<?xml version="1.0" standalone="no"?>
<!DOCTYPE svg PUBLIC "-//W3C//DTD SVG 1.1//EN" "http://www.w3.org/Graphics/SVG/1.1/DTD/svg11.dtd" >
<svg xmlns="http://www.w3.org/2000/svg" xmlns:xlink="http://www.w3.org/1999/xlink" version="1.1">
<metadata>
Created by FontForge 20201107 at Sat Mar 31 05:24:18 2018
 By 喬嵩
(c) 2018 Unicode Fonts for Ancient Scripts; all rights reserved.
</metadata>
<defs>
<font id="Assyrian" horiz-adv-x="1155" >
  <font-face 
    font-family="Assyrian"
    font-weight="400"
    font-stretch="semi-condensed"
    units-per-em="2048"
    panose-1="2 2 6 2 9 8 5 9 10 3"
    ascent="1638"
    descent="-410"
    x-height="988"
    cap-height="1593"
    bbox="-327 -526 17678 2748"
    underline-thickness="72"
    underline-position="-736"
    unicode-range="U+000D-F5625"
  />
<missing-glyph horiz-adv-x="1668" 
d="M1540 0h-1412v2692h1412v-2692zM1412 128v2436h-1156v-2436h1156zM1232 1747q0 -295 -388 -446l-41 -261h-104l-34 343q145 24 233 98q104 87 104 223q0 269 -557 269l38 164h6q743 0 743 -390zM910 700q0 -66 -47 -113t-113 -47t-113 47t-47 113t47 113t113 47t113 -47
t47 -113z" />
    <glyph glyph-name="uF54F3" unicode="&#x1226d;&#x12016;&#x1227d;&#x1227d;&#x12216;" horiz-adv-x="11047" 
d="M10069 1544q-163 -163 -220 -312q-21 -55 -21 -110h-2v-778h-1024q-99 0 -222 -75q-102 -62 -202 -167q18 31 33 112q16 85 16 165q0 105 -17 170h-297q-78 0 -210 -74q-120 -67 -214 -166q50 83 50 275q0 107 -35 155q35 50 35 138v14q0 60 -12 101q-8 27 -23 57
q35 48 35 155q0 173 -54 275q143 -150 324 -219q61 -23 111 -23h436q-55 160 -211 307q23 -19 106.5 -33t165.5 -14q76 0 160 14q79 13 115 33q-152 -152 -217 -311q-23 -56 -23 -100v-684q74 -37 147 -37h93q18 42 18 172q0 78 -33 151q33 73 33 156q0 97 -35 158
q35 61 35 153q0 198 -33 260q76 -80 198.5 -152.5t219.5 -72.5h442q-56 149 -219 307q25 -20 109 -36q92 -17 168 -17q116 0 226 34q31 10 48 19zM10727 2161l-136 -131q-81 -134 -81 -283q0 -159 84 -289l131 -135q0 -33 -9.5 -40t-44.5 -7l-192 188q-14 14 -76 62
q-83 65 -163 109q-63 35 -103 55h-5446q-193 0 -378 -124q-108 -73 -279 -249q83 212 86 426q2 164 -40 300q-18 57 -46 126q133 -137 209 -199q123 -100 247 -145q91 -33 199 -33h5446q141 63 350 233l186 183q36 0 46 -7t10 -40zM7544 793h-422l309 -308l-53 -51l-360 359
h-445q-101 0 -218 -78q-95 -63 -193 -166q22 38 36 114q17 90 17 166q0 73 -17 160q-12 60 -36 115q170 -170 303 -222q57 -22 108 -22h377l-137 139q-66 67 -195 95q-93 20 -245 20q17 4 90 52q141 92 230 225q40 59 52 96q0 -224 62 -351q25 -50 61 -87l187 -189h489v-67z
M10483 35l-5814 -2q-166 0 -351 -123q-124 -83 -284 -248q85 217 88 426q1 102 -16 195q-19 103 -72 231q101 -101 139 -136q80 -74 151 -122q179 -121 345 -121h5814v-100zM6026 793h-421l309 -308l-53 -51l-361 359h-446q-98 0 -217 -78q-97 -64 -195 -166q22 38 36 114
q17 90 17 166q0 73 -17 160q-12 60 -36 115q166 -166 312 -222q58 -22 110 -22h369l-138 139q-67 68 -194 95q-93 20 -246 20q17 4 90 52q143 94 231 225q40 59 52 96q0 -226 61 -351q23 -48 62 -87l186 -189h489v-67zM3989 1436l-158 -166q-39 -66 -60 -186
q-20 -113 -20 -175q0 -74 18 -170q23 -123 60 -180l158 -166q0 -33 -9.5 -40t-44.5 -7l-372 367q-43 33 -131.5 96t-149.5 90l-2 31q81 42 154 95l129 93l372 365q37 0 45 -5q11 -8 11 -42zM3370 55l-71 -71l-162 151q-169 94 -428 147q-105 22 -228 35q-239 26 -371 28
q-69 1 -102 1h-71l73 37l-67 72q-92 98 -253 137q-101 24 -247 24h-80q148 53 291 193q93 90 147 189q17 31 23 53q53 18 130 69q102 68 144 111q160 164 177 248q118 47 247 176q53 53 114 141q47 67 77 133v-35q0 -251 64 -405q31 -74 81 -121l94 -88q8 18 41 68
q0 -297 34 -538q51 -361 188 -599zM1613 1237l-87 -93q-136 -145 -216 -325q-43 -96 -43 -194v-625h-102v623q0 164 -138 371q-73 110 -198 243q220 -66 336 -66v132q0 262 -262 533q-61 63 -89 93q57 -18 170 -48q103 -21 234 -21q145 0 221 17q11 3 172 52
q-126 -118 -204 -231q-140 -204 -140 -395v-132q109 0 183 18q70 17 163 48zM984 950l-67 -71l-256 254q-65 64 -206 88q-94 16 -237 16h-110q74 22 157 79q63 43 154 132q104 101 148 169q53 82 79 161v-136q0 -149 17 -251q23 -139 86 -203zM909 236l-68 -72l-256 254
q-63 62 -206 89q-91 17 -236 17h-111q78 18 159 76q57 40 152 133q104 101 148 169q55 85 80 161v-135q0 -156 16 -252q23 -140 86 -203zM9756 928v239h-457q-145 0 -301 -118q158 -121 301 -121h457zM9756 616v244h-457q-141 0 -299 -121q164 -123 299 -123h457zM9756 412
v137h-455q-151 0 -321 -137h776zM8584 928v198h-2q0 21 -4 41h-465q-114 0 -278 -118q163 -121 278 -121h471zM8584 485v64h-90q30 -22 90 -64zM8584 616v244h-471q-116 0 -282 -123q168 -121 282 -121h279q-4 13 -14 37l36 -37h170zM2893 1200l-88 92q-72 75 -235 118
q-138 36 -228 36h-31v-51q0 -29 5 -97q9 -121 66 -243q29 -62 83 -119l135 -143l58 65q35 40 112 152q69 100 123 190zM2529 735l-134 123q-59 54 -114 80q-119 56 -268 70q-63 6 -109 6h-47v-21q0 -134 23 -222q42 -160 151 -269l74 -74q256 141 364 248z" />
    <glyph glyph-name="uF54F2" unicode="&#x1226d;&#x12016;&#x12216;&#x1227d;&#x1227d;" horiz-adv-x="11036" 
d="M10067 793h-422l310 -310l-54 -51l-360 361h-445q-88 0 -212 -77q-102 -64 -199 -165q22 39 36 112q17 90 17 164q0 73 -17 160q-12 60 -36 115q166 -166 305 -220q57 -22 106 -22h377l-137 137q-68 68 -194 95q-93 20 -246 20q17 4 90 52q141 92 230 225q40 59 52 96
q0 -224 62 -351q25 -51 61 -87l187 -187h489v-67zM10716 2159l-135 -131q-82 -135 -82 -283q0 -159 84 -289l131 -135q0 -34 -9 -40.5t-44 -6.5l-192 188q-6 6 -75 63q-77 64 -160 110q-63 35 -103 55h-5440q-193 0 -378 -124q-108 -73 -279 -249q83 212 86 426
q2 164 -40 300q-18 57 -46 126q133 -137 209 -199q123 -100 247 -145q91 -33 199 -33h5444q116 52 197 116l145 115l186 183q37 0 46 -6.5t9 -40.5zM8550 793h-422l309 -310l-53 -51l-361 361h-446q-85 0 -211 -77q-104 -64 -201 -165q22 39 36 112q17 90 17 164
q0 73 -17 160q-12 60 -36 115q163 -163 313 -220q58 -22 109 -22h369l-138 137q-69 68 -194 95q-93 20 -246 20q17 4 90 52q143 94 231 225q40 59 52 96q0 -226 61 -351q24 -49 62 -87l186 -187h490v-67zM10514 35l-5845 -2q-166 0 -351 -123q-124 -83 -284 -248
q85 217 88 426q1 102 -16 195q-19 103 -72 231q101 -101 139 -136q80 -74 151 -122q179 -121 345 -121h725q34 97 34 244q0 109 -16 170h-297q-78 0 -210 -74q-120 -67 -214 -166q49 82 49 275q0 108 -34 155q34 47 34 152q0 95 -34 158q34 47 34 155q0 175 -53 275
q83 -88 206 -163q132 -81 228 -81h437q-56 163 -211 309q23 -19 106.5 -33t165.5 -14q121 0 226 29q31 9 48 18q-88 -88 -159 -201q-80 -127 -80 -210v-684q74 -37 147 -37h92q19 44 19 172q0 78 -33 151q33 73 33 156q0 97 -35 158q35 61 35 153q0 198 -33 260
q83 -87 199 -154q127 -73 219 -73h442q-57 152 -219 309q25 -20 109 -36q92 -17 168 -17q72 0 159 17q77 15 115 36q-246 -246 -246 -422v-778h-1022q-89 0 -202 -63q-92 -51 -191 -146h5104v-100zM3989 1436l-158 -166q-39 -66 -60 -186q-20 -113 -20 -175q0 -74 18 -170
q23 -123 60 -180l158 -166q0 -33 -9.5 -40t-44.5 -7l-372 367q-43 33 -131.5 96t-149.5 90l-2 29q81 42 154 96l129 94l372 365q37 0 45 -5q11 -8 11 -42zM3370 55l-71 -71l-162 151q-169 94 -428 147q-105 22 -228 35q-239 26 -371 28q-69 1 -102 1h-71l73 37l-67 72
q-90 97 -253 138q-99 25 -247 25h-80q151 55 291 191q93 90 147 189q17 31 23 53q53 18 130 69q102 68 144 111q160 164 177 248q118 47 247 176q53 53 114 141q47 67 77 133v-35q0 -251 64 -405q31 -74 81 -121l94 -88q8 18 41 68q0 -297 34 -538q51 -361 188 -599z
M1613 1235q-70 -73 -203 -237q-143 -207 -143 -373v-625h-102v623q0 114 -70 254q-50 100 -143 219q-35 45 -70 82l-28 30q-15 16 -25 27q50 -17 153 -46q93 -22 183 -22v136q0 262 -262 533q-61 63 -89 93q55 -18 168 -48q103 -21 232 -21q147 0 223 17q19 4 174 52
q-126 -118 -204 -231q-140 -204 -140 -395v-136q139 0 259 39zM984 950l-67 -71l-256 254q-65 64 -206 88q-83 14 -237 14h-110q74 22 157 80q62 44 154 133q104 101 148 169q53 82 79 161v-136q0 -149 17 -251q23 -139 86 -203zM909 236l-68 -72l-256 254q-63 62 -206 89
q-91 17 -236 17h-111q78 18 159 76q57 40 152 133q104 101 148 169q55 85 80 161v-135q0 -156 16 -252q23 -140 86 -203zM6758 928v239h-457q-145 0 -301 -118q158 -121 303 -121h455zM6758 616v244h-455q-143 0 -301 -121q164 -123 299 -123h457zM6758 412v137h-455
q-152 0 -322 -137h777zM5586 928v198h-2q0 21 -4 41h-465q-114 0 -278 -118q163 -121 276 -121h473zM5586 485v64h-90q30 -22 90 -64zM5586 616v244h-477q-110 0 -276 -123q168 -121 282 -121h279q-5 13 -15 37l37 -37h170zM2893 1200l-88 92q-72 75 -235 118
q-138 36 -228 36h-31v-51q0 -29 5 -98q9 -130 65 -243q32 -65 84 -118l135 -137l58 59q41 42 114 151q55 82 121 191zM2529 735l-134 123q-59 54 -114 80q-119 56 -268 70q-63 6 -109 6h-47v-21q0 -134 23 -222q42 -160 151 -269l74 -74q256 141 364 248z" />
    <glyph glyph-name="uF540C" unicode="&#x12056;&#x121a8;&#x12311;&#x12047;" horiz-adv-x="9046" 
d="M8183 793h-479v-517h-68v517h-344q-93 0 -226 -77q-113 -65 -208 -165q17 30 35 112.5t18 163.5q0 149 -53 275q158 -158 327 -223q60 -23 109 -23h342v211q0 94 -77 215q-62 98 -164 195q27 -22 108 -35q95 -15 168 -15q133 0 230 30q29 9 49 20q-169 -169 -224 -302
q-22 -53 -22 -106v-213h479v-63zM8726 1317q-3 -43 -60 -43l-188 184q-6 6 -75 63t-162 111q-56 32 -105 56h-3656q-265 0 -523 -243q-69 -65 -134 -130q85 217 88 426q1 107 -15 194q-19 100 -73 232q180 -185 289 -258q179 -119 368 -119h3656q148 66 348 229l186 185
q39 0 47.5 -7.5t8.5 -39.5l-135 -134q-82 -135 -82 -284q0 -157 84 -287zM6618 553h-237q-66 0 -165 -51q-143 -73 -253 -189q17 30 35 112.5t18 164.5q0 69 -23 151q-10 29 -30 86q17 34 33 87q24 79 24 157q0 105 -57 248q-104 -166 -104 -268v-775h-68v775
q0 139 -158 327q-155 -184 -155 -323v-779h-68v787q0 126 -158 315q-153 -189 -153 -313v-789h-68v277h-227q-88 0 -216 -77q-114 -68 -206 -165q17 30 35 112.5t18 164.5q0 69 -23 151q-10 29 -30 86q17 34 33 87q24 79 24 157q0 148 -53 274q101 -101 202 -164
q124 -77 220 -77h219q-15 87 -87 197q-63 95 -150 178q23 -19 108 -37q81 -17 168 -17q77 0 118 13q9 3 72 28q67 -41 189 -41q80 0 132 15q32 9 60 26q58 -29 116 -37q29 -4 73 -4q116 0 226 34q27 8 48 20q-64 -64 -123 -142q159 -159 302 -213q53 -20 106 -20h233v-68
h-233q-84 0 -200 -66q-102 -58 -185 -141q148 -141 280 -188q50 -18 101 -18h237v-68zM8550 35h-4062q-186 0 -375 -128q-103 -70 -290 -257q85 217 88 436q1 106 -15 197q-18 99 -73 233q102 -102 140 -137q80 -74 152 -121q184 -121 373 -121h4062v-102zM3786 391
q0 -34 -9 -42.5t-44 -8.5l-377 369q-43 33 -131.5 96t-149.5 90l-2 31q81 42 154 95l129 93l375 365q36 0 45.5 -7t9.5 -40l-160 -166q-39 -66 -60 -186q-20 -113 -20 -175q0 -74 18 -170q23 -123 60 -180zM3202 1929q-69 -69 -198 -220q-146 -201 -146 -392v-217
q107 0 183 19q60 15 159 48q-69 -70 -198 -223q-144 -201 -144 -403v-541h-102v379h-897v-344h-103v344h-413v-344h-103v344h-413v-344h-103v344h-35q-265 0 -523 -243q-69 -65 -134 -130q79 202 82 422q1 113 -12 196q-17 103 -70 232q90 -93 138 -137q79 -73 151 -120
q180 -118 368 -118h35v41q0 79 -91 235t-179 240q27 -22 123 -42q112 -23 205 -23q157 0 256 53q99 -53 256 -53q163 0 256 53q93 -53 260 -53q85 0 195 23q84 18 128 42q-99 -86 -183 -226q-91 -152 -91 -247v-43h897v62q0 203 -141 399q-32 45 -201 225q49 -16 149 -44
q81 -19 193 -23v205l-4 38h-2061q-191 0 -371 -121q-106 -71 -286 -251q77 196 80 422q2 176 -35 304q-17 57 -45 126q180 -185 289 -258q179 -119 368 -119h2042q-42 159 -160 308q-55 57 -163 175q55 -17 167 -46q100 -21 230 -21q140 0 222 16q20 4 173 51zM5031 621v413
h-227q-86 0 -200 -65q-84 -48 -185 -144q156 -141 288 -187q49 -17 97 -17h227zM1756 481v43q0 87 -63 202q-53 97 -145 198q-91 -91 -147 -199q-58 -112 -58 -203v-41h413zM1240 481v43q0 90 -61 203q-57 107 -141 199q-140 -140 -194 -305q-17 -52 -17 -99v-41h413z" />
    <glyph glyph-name="uF55CC" unicode="&#x122c1;&#x12134;&#x12228;&#x1230b;" horiz-adv-x="17019" 
d="M16699 1432l-170 -164q-68 -112 -68 -359q0 -228 103 -387l133 -135q0 -34 -9 -40.5t-44 -6.5l-363 367q-116 83 -237 153h-676q-170 0 -352 -124q-123 -83 -283 -249q85 217 88 426q1 108 -15 195q-18 99 -73 231q98 -98 138 -135q80 -74 150 -122q173 -119 347 -119
h674q90 54 176 116q23 16 63 45l363 355q36 0 45.5 -7t9.5 -40zM14975 1929q-115 -107 -202 -237q-142 -212 -142 -389v-1303h-103v1298q0 188 -138 391q-83 123 -208 240q55 -18 167 -48q100 -21 230 -21q143 0 220 17q24 5 176 52zM14210 860h-412v-860h-100v860h-518
v-860h-103v860h-518v-860h-102v860h-344q-265 0 -523 -243q-69 -65 -134 -130q74 192 86 373h-193q-265 0 -523 -243q-69 -65 -134 -130q85 217 88 426q1 107 -15 195q-18 99 -73 231q180 -185 289 -258q177 -118 368 -118h195q-7 142 -47 265q-15 46 -41 111
q179 -179 298 -257q182 -119 359 -119h344v340q0 180 -140 386q-65 80 -196 240q54 -18 163 -48q96 -21 224 -21q139 0 212 22q54 16 95 47q50 -33 97 -47q75 -22 217 -22q131 0 208 22q53 15 101 47q50 -31 100 -45q86 -24 219 -24q147 0 221 17q33 8 78 23q11 4 93 29
q-69 -70 -203 -227q-148 -199 -148 -385v-354h412v-103zM10639 61l-72 -71l-161 151q-169 94 -428 147q-169 35 -435 55q-91 7 -165 8l-173 1l74 37l-67 72q-90 97 -253 138q-102 26 -247 26h-80q153 55 291 190q53 51 107 127q51 71 63 115q53 18 130 69q102 68 144 111
q159 162 176 248q80 32 183 117q94 77 179 200q47 67 77 133v-34q0 -252 64 -406q31 -74 81 -121l94 -88q8 18 41 68q0 -492 100 -846q45 -159 121 -291zM8793 1929q-68 -70 -199 -229q-145 -207 -145 -397v-1303h-103v1300q0 248 -204 477q-49 55 -89 95
q-114 -114 -187 -236q-106 -177 -106 -331v-1305h-102v276h-1705q-162 0 -345 -123q-134 -90 -288 -249q85 217 88 426q2 157 -42 300q-18 57 -46 126q173 -178 288 -258q172 -119 343 -119h1707v924q0 183 -138 386q-60 89 -202 240q55 -18 166 -48q98 -21 229 -21
q124 0 225 26q21 5 115 43q39 -22 111 -42q98 -27 233 -27q144 0 221 17q35 8 81 23q3 1 94 29zM7277 1077q0 -34 -9 -40.5t-44 -6.5l-193 189q-5 4 -74 62q-73 61 -162 112q-40 23 -106 55h-734q-176 0 -356 -124q-114 -78 -279 -249q85 217 88 426q1 103 -16 195
q-19 103 -72 231q263 -271 454 -344q87 -33 181 -33h734q118 53 201 115q54 38 148 115l155 149q38 0 44 -4q11 -6 11 -39l-104 -102q-82 -135 -82 -283q0 -159 84 -289zM5283 391q0 -34 -9 -40.5t-44 -6.5l-381 369q-54 42 -135 96q-43 29 -83 51h-639q-84 0 -191.5 -57
t-193.5 -131q157 -135 281 -176q51 -17 96 -17h631v-102h-633q-95 0 -245 -93q-123 -76 -224 -182q0 1 16 51q54 172 54 275q0 167 -53 244q53 88 53 241q0 152 -47 240q47 101 47 240q0 81 -27 197q-13 44 -35 132q83 -95 213 -179q152 -97 258 -97h623v-103h-623
q-77 0 -191 -58q-92 -47 -196 -132q222 -190 387 -190h637q44 25 88 55q78 52 130 90l381 373q37 0 46 -6.5t9 -40.5l-135 -134q-105 -173 -105 -391q0 -215 109 -383zM3636 -289l-67 -69l-252 252q-62 62 -206 89q-91 17 -237 17h-127q61 8 162 74q109 71 193 159v1043
q0 180 -107 360q-73 123 -188 238q-128 -142 -187 -238q-108 -177 -108 -331v-961q63 87 102 195v-136q0 -149 17 -251q23 -139 86 -203l235 -238l-74 -67l-250 250q-56 56 -210 86q-103 20 -218 20h-1494q-153 0 -324 -125q-109 -80 -276 -252q78 225 80 430q2 175 -80 420
q158 -163 270 -244v1071q0 167 -140 381q-83 127 -204 248q55 -18 166 -48q98 -21 227 -21q142 0 224 19q51 12 133 50q39 -90 213.5 -217t279.5 -127h1059q-45 96 -143 210q-41 44 -124 134q55 -18 168 -48q103 -21 232 -21q126 0 208 19q59 14 132 50q76 -38 127 -50
q80 -19 219 -19q207 0 395 69q-129 -129 -203 -236q-141 -204 -141 -393v-950q60 85 98 189v-136q0 -149 17 -251q11 -65 30 -115t56 -88zM13698 963v368q0 117 -89 281q-63 115 -165 229q-179 -188 -239 -353q-25 -69 -25 -145v-380h518zM13077 963v387q0 134 -95 283
q-58 91 -167 206q-169 -178 -231 -386q-25 -84 -25 -175v-315h518zM10162 1206l-88 92q-72 75 -235 118q-138 36 -228 36h-31v-51q0 -199 70 -341q32 -65 84 -118l135 -137l57 55q69 82 175 249q21 33 61 97zM9797 741l-133 119q-62 56 -114 80q-130 61 -268 74
q-63 6 -109 6h-47v-21q0 -134 23 -222q41 -158 151 -269l73 -74q262 145 365 248zM2409 999v301q0 92 -32 183h-1081q-88 0 -220 -75q-116 -66 -217 -167q152 -166 321 -222q60 -20 116 -20h1113zM2409 414v483h-1113q-99 0 -226 -80q-84 -53 -211 -164q195 -173 330 -220
q54 -19 109 -19h1111zM2409 229v82h-1095q-107 0 -222 -63q-89 -49 -196 -146h1374q59 43 139 127zM827 362q0 206 -72 293q72 89 72 308q0 75 -22 163q-17 69 -48 115q25 34 47 118q23 90 23 175q0 128 -35 226q-14 39 -39 91q-60 -70 -175 -227q-100 -161 -100 -324v-1134
q118 -64 246 -64h68q15 59 33 180q2 33 2 80z" />
    <glyph glyph-name="uF53C9" unicode="&#x120bc;&#x12195;&#x12000;" horiz-adv-x="6893" 
d="M5992 1030q-112 -112 -166 -193q-78 -117 -78 -212v-279h-68v281q0 95 -76 212q-51 79 -161 189q27 -18 93 -32.5t144 -18.5v145q0 85 -59 189q-55 98 -129 176q-188 -199 -188 -363v-778h-68v772q0 95 -76 222q-72 120 -168 212q34 -20 110 -36q88 -19 167 -19
q123 0 225 51q93 -51 223 -51q167 0 275 57q-94 -94 -166 -217q-78 -133 -78 -217v-143q155 9 244 53zM4923 1171h-861q-95 0 -212 -75q-105 -67 -201 -168q22 39 36 111q17 90 17 165q0 73 -17 160q-12 60 -36 115q143 -150 310 -217q58 -23 106 -23h858v-68zM4923 586
h-484v-240h-67v240h-293q-99 0 -222 -76q-116 -72 -208 -168q22 39 36 112q17 90 17 164q0 73 -17 160q-12 60 -36 115q141 -149 318 -217q60 -23 112 -23h293q0 54 -70 167q-54 87 -104 143q81 -37 206 -37q58 0 123 14q28 5 80 23q-42 -38 -102 -141q-66 -114 -66 -169
h484v-67zM6573 1929q-125 -134 -197 -245q-143 -221 -143 -404v-1280h-102v174h-4715v-381h-102v381h-420v-381h-102v381h-125q-245 0 -504 -244q-69 -65 -131 -129q82 211 82 424q0 122 -12 196q-17 103 -70 232q180 -185 289 -258q179 -119 368 -119h103v48q0 133 -88 265
q-55 83 -180 202q26 -22 128 -42q120 -24 187 -24q91 0 173 21q65 17 91 36q25 -18 93 -36q82 -21 171 -21q88 0 188 21q96 20 132 40q-101 -88 -182 -222q-89 -148 -89 -242v-46h4715v1053q0 143 -94 293h-5366q-178 0 -356 -124q-117 -82 -279 -249q78 201 78 424
q0 133 -9 196q-14 99 -69 232q105 -105 137 -135q78 -74 147 -122q170 -120 351 -120h5296q-44 72 -131 155q-23 22 -47 50q55 -18 167 -48q100 -21 230 -21q129 0 221 22q55 16 166 47zM3510 860h-453v-514h-68v514h-266q-98 0 -221 -75q-105 -64 -203 -167q17 29 35 106.5
t18 135.5h-225q-90 0 -214 -77q-56 -35 -105 -77t-93 -88q22 39 36 112q18 95 18 165q0 67 -18 160q-11 59 -36 114q241 -241 422 -241h215q0 92 -35 197q-8 24 -18 44q101 -101 202 -164q124 -77 220 -77h268v209q0 99 -76 219q-59 93 -165 194q25 -21 108 -36
q92 -17 168 -17q116 0 226 34q34 10 49 19q-165 -165 -221 -312q-21 -55 -21 -110v-200h453v-68zM1314 276v48q0 88 -64 198q-53 91 -149 197q-80 -80 -145 -198q-62 -113 -62 -197v-48h420z" />
    <glyph glyph-name="uF5289" unicode="&#x12226;&#x12118;&#x120fc;" horiz-adv-x="9865" 
d="M9545 45l-72 -72l-162 156q-160 89 -428 144q-191 39 -434 55q-91 6 -165 7l-173 1l74 37l-2 2h-971q-184 0 -356 -128q-34 -26 -277 -253q88 224 88 426q0 223 -51 293q51 98 51 295q0 196 -49 290q49 118 49 295q0 115 -15 195q-18 99 -73 231q160 -165 287 -250
q183 -122 342 -122h1491q82 82 157 212q17 29 31 60q10 -45 14 -126q4 -99 7 -127q26 -215 125 -308l94 -88q5 12 22 38l19 29q0 -495 99 -845q44 -156 122 -291zM6412 51l-72 -71l-162 155q-163 91 -428 145q-183 38 -434 54q-91 6 -165 7l-173 1l74 37l-2 2h-1389v-311
h-102v311h-512q-171 0 -349 -124q-108 -75 -276 -249q79 202 82 418q2 115 -12 199q-17 106 -70 235q159 -174 276 -256q174 -121 349 -121h512v6q-15 96 -99 232q-71 115 -168 207q21 -17 100 -35q96 -22 158 -25q-23 96 -102 217q-56 86 -158 193q13 -13 97 -33
q76 -18 153 -26q57 172 66 280q4 50 4 113q0 176 -38 297q-18 56 -46 125q97 -97 137 -134q79 -73 148 -123q168 -120 342 -120h1417q119 127 184 268q8 -35 12 -122q4 -101 8 -131q12 -90 38 -169q27 -82 88 -139l94 -88q6 14 21 38q9 12 20 29q0 -320 32 -538
q53 -362 189 -598zM2232 860h-926v-860h-103v860h-514q-188 0 -378 -126q-101 -67 -279 -245q79 202 82 422q1 113 -12 197q-16 103 -70 233q179 -184 289 -259q175 -119 368 -119h514v317q0 186 -140 402q-82 127 -202 247q55 -17 167 -47q95 -22 231 -22q137 0 221 19
q35 8 172 50q-219 -235 -303 -438q-43 -104 -43 -213v-315h926v-103zM9068 1190l-88 92q-80 83 -267 125q-131 29 -227 29q1 -72 14 -219q31 -179 140 -291l135 -138l57 64q74 83 176 243q20 32 60 95zM8703 725l-133 133q-123 123 -337 142q-66 6 -101 6q-17 0 -50.5 -1
t-50.5 -1v-15q0 -209 76 -363q35 -71 98 -134l74 -74q262 145 365 248zM8574 1544h-1356q-143 0 -269 -73q-102 -59 -220 -168q137 -126 220 -173q126 -71 269 -71h811v-2q117 64 190 118q60 44 116 116q49 63 92 135q14 24 22 42q57 29 125 76zM8083 477q-134 113 -358 129
q-57 4 -103 4q-14 0 -42 -1t-42 -1q128 64 224 134q108 79 189 214h-739q-130 0 -269 -73q-100 -52 -229 -166q170 -163 355 -219q69 -21 141 -21h873zM5934 1196l-88 92q-80 84 -266 125q-131 29 -227 29q2 -16 2 -39v-51q0 -178 74 -316q31 -57 77 -104l135 -137l58 59
q41 42 114 151q55 82 121 191zM5570 731l-133 123q-58 54 -107 80q-110 59 -230 72q-55 6 -102 6q-17 0 -50 -1t-50 -1v-15q0 -209 76 -363q35 -71 98 -134l74 -74q249 135 364 248zM5445 1554h-1288q-177 0 -336 -107q-97 -65 -260 -228q8 -2 24 -2h23q125 0 273 40
q37 10 57 21q-87 -74 -163 -186q-81 -120 -106 -224q70 7 161 27q40 8 110 33q-155 -133 -243 -330q-28 -62 -34 -115h1286q-91 77 -237 111q-94 22 -224 22q-14 0 -42 -1t-42 -1q112 56 226 134q95 65 174 191q34 54 61 108q38 16 126 70q100 61 149 110q61 61 114 143
q24 36 62 105q57 28 129 79z" />
    <glyph glyph-name="uF52B4" unicode="&#x120f0;&#x122fa;&#x12111;" horiz-adv-x="8358" 
d="M8038 1929q-127 -119 -205 -234q-141 -209 -141 -413v-1282h-103v381h-1126q-164 0 -344 -123q-98 -67 -283 -252q73 186 76 424q2 124 -9 198q-16 109 -67 234q172 -178 283 -255q178 -124 348 -124h1122l-2 863h-1120q-250 0 -505 -244q-68 -65 -130 -129
q79 202 82 426q1 113 -12 194q-17 104 -70 232q266 -274 447 -344q86 -33 184 -33h1106q-48 156 -164 304q-53 58 -158 177q55 -18 168 -48q103 -21 232 -21q139 0 216 17q21 5 175 52zM5651 1171q-70 -71 -199 -226q-145 -205 -145 -400v-545h-103v557q0 157 -90 306
q-43 72 -121 161q-23 26 -45 51q-108 -114 -165 -209q-37 -62 -64 -140q-33 -95 -33 -169v-557h-102v557q0 210 -175 420q-44 53 -85 96q-258 -272 -258 -516v-557h-103v557q0 133 -95 296q-63 108 -165 222q-174 -184 -234 -367q-26 -80 -26 -165v-543h-102v563
q-10 103 -45 195h-625q-169 0 -354 -123q-105 -70 -285 -250q79 202 82 424q1 113 -12 196q-17 103 -70 232q92 -92 139 -135q79 -73 150 -122q172 -120 350 -120h573q-54 93 -134 188q-31 37 -61 70l-46 51q77 -27 235 -65q44 -6 103 -6v205q0 185 -141 388
q-65 79 -197 238q54 -17 163 -47q90 -22 226 -22q128 0 210 21q47 12 101 48q47 -31 102 -47q77 -22 212 -22q116 0 207 26q15 4 102 43q32 -16 98 -43q88 -26 215 -26q131 0 208 22q55 16 97 47q123 -69 316 -69q146 0 220 17q8 2 171 52q-70 -71 -199 -226
q-145 -205 -145 -398v-205q125 0 254 42zM3013 1026l-68 -72l-256 254q-66 65 -205 91q-97 18 -237 18h-111q157 48 333 231q173 179 206 305v-135q0 -244 47 -366q20 -53 55 -88zM1951 -291l-68 -71l-256 253q-67 66 -205 92q-91 17 -237 17h-111q66 8 154 70q45 31 82 63
q27 23 76 72l28 28v627h-725q-191 0 -381 -126q-118 -78 -276 -242q79 202 82 419q2 115 -12 198q-17 106 -70 234q157 -168 272 -249q83 -58 178 -94.5t207 -36.5h725v372q0 177 -139 370q-30 41 -201 224q55 -17 166 -47q92 -22 230 -22q146 0 220 17q8 2 171 52
q-70 -70 -199 -221q-145 -197 -145 -377v-368h272v-103h-272v-510q69 101 96 187v-136q0 -155 16 -251q23 -140 86 -203zM5204 1102v192q0 178 -81 326q-55 100 -175 215q-120 -126 -172 -212q-90 -149 -90 -325v-200q103 0 173 24q22 8 85 47q117 -67 260 -67zM4584 1098
v200q0 225 -173 436q-44 54 -87 99q-258 -258 -258 -533v-202q102 0 173 27q29 15 87 44q28 -16 87 -44q71 -27 171 -27zM3963 1098v202q0 218 -176 438q-43 54 -84 97q-174 -183 -234 -368q-26 -80 -26 -164v-205q159 0 260 71q99 -71 260 -71z" />
    <glyph glyph-name="uF5605" unicode="&#x122d9;&#x1202d;&#x12132;" horiz-adv-x="7325" 
d="M7005 911l-1213 -921q-22 -16 -78 -80q-145 -164 -178 -328q-7 41 -26 90q-24 60 -68 117q-30 39 -80 86l-1241 610q-43 21 -152 46q-87 20 -173 20q-83 0 -154 -21q82 60 139 179q60 125 60 202q-15 119 -58 211q-54 116 -139 178q68 -20 154 -20q90 0 173 19
q105 24 152 47l1243 610q51 51 72 80q86 118 98 194q33 -165 174 -317q25 -28 78 -78zM3653 860h-830v-860h-102v860h-391q-163 0 -331 -111q-134 -89 -312 -276q84 176 84 387h-389q-168 0 -338 -122q-112 -80 -281 -265q24 107 47 215q27 131 27 215q0 80 -20 209
q-22 144 -54 225q78 -76 247 -220q204 -154 370 -154h393q0 175 -86 374q178 -182 309 -267q166 -107 334 -107h391v311q0 225 -138 426q-40 59 -200 229q54 -18 163 -48q96 -21 226 -21q145 0 222 17q14 3 173 52q-70 -71 -199 -225q-145 -204 -145 -430v-311h830v-103z
M919 -287l-70 -69l-252 247q-68 66 -206 92q-91 17 -238 17h-121q146 23 350 231v1067q0 188 -144 393q-76 108 -206 238q55 -18 168 -48q103 -21 231 -21q144 0 221 17q35 8 82 23q30 9 95 29q-138 -138 -203 -231q-141 -201 -141 -400v-946q58 86 98 195v-146
q0 -155 16 -251q23 -140 86 -203zM6853 911l-1124 840q-42 32 -135 73q-75 33 -158 50l-1266 -619q-70 -34 -185 -144q-92 -88 -140 -200q65 -147 231 -273q30 -24 92 -63l1270 -624q81 17 158 50q94 41 137 73zM5776 225l-45 -43l-115 115q-65 65 -182 82q-52 8 -205 8
q23 6 79 39q74 44 120 90v344h-451q-98 0 -219 -77q-87 -56 -192 -165q22 39 36 112q17 90 17 165q0 124 -35 226q-12 33 -18 48q108 -108 192 -163q119 -78 219 -78h451v211q0 103 -77 222q-57 88 -165 191q23 -19 109 -35q98 -18 168 -18q66 0 159 18q80 16 115 35
q-114 -114 -164 -189q-78 -117 -78 -222v-213h175v-68h-175v-262q39 59 62 127q0 -139 16 -210q24 -109 97 -183z" />
    <glyph glyph-name="uF54E0" unicode="&#x12313;&#x122a9;&#x12138;" horiz-adv-x="6441" 
d="M6121 -287l-68 -71l-256 254q-65 64 -206 88q-94 16 -238 16h-109q135 21 311 203l29 30v1051q0 192 -111 362q-27 41 -186 218q-62 -65 -181 -216q-112 -172 -112 -362v-936q62 88 99 189v-136q0 -155 16 -251q23 -140 86 -203l236 -238l-68 -71l-256 254
q-63 62 -206 89q-91 17 -238 17h-109q58 7 153 72q45 31 83 64q25 25 75 73l27 24v1053q0 192 -102 360q-55 90 -189 218q-130 -130 -186 -218q-107 -168 -107 -360v-1286h-102v860h-551q-182 0 -372 -124q-139 -91 -292 -249q74 192 86 373h-319q-159 0 -339 -124
q-129 -89 -284 -249q85 217 88 426q1 107 -15 195q-18 99 -73 231q182 -182 288 -257q168 -119 335 -119h321q-5 104 -20 170q-19 83 -68 206q180 -185 289 -258q177 -118 369 -118h557v321q0 181 -139 397q-76 119 -197 248q54 -18 164 -48q98 -21 227 -21q140 0 218 19
q59 14 120 50q115 -69 352 -69q148 0 224 19q62 15 118 50q110 -69 344 -69q148 0 224 17q19 4 174 52q-71 -72 -202 -229q-146 -210 -146 -420v-926q67 97 96 187v-135q0 -156 16 -252q23 -140 86 -203zM3088 1610l-68 -72l-256 254q-65 65 -195 88q-90 16 -227 16h-57
q-130 -117 -204 -229q-122 -184 -122 -364v-955q70 99 103 191v-136q0 -155 16 -251q23 -139 86 -203l235 -238l-67 -71l-256 254q-63 62 -206 89q-91 17 -236 17h-111q58 7 153 72q81 55 158 137q3 2 23 22v1074q0 237 -202 472q-49 57 -89 97q-193 -193 -265 -390
q-32 -88 -32 -181v-1303h-102v1303q0 262 -262 533q-61 63 -89 93q57 -18 170 -48q103 -21 234 -21q142 0 228 22q64 16 120 47q125 -69 346 -69q138 0 220 19q56 18 169 54q55 29 113 75q23 19 106 99q103 100 148 169q55 85 80 161v-135q0 -156 16 -252q23 -140 86 -203z
M976 1065l-67 -72l-256 254q-38 38 -92 58q-104 39 -236 46q-60 3 -115 3h-110q59 7 152 71q40 27 83 65q26 25 76 73q174 166 227 329v-135q0 -244 47 -366q20 -51 56 -88zM909 266l-68 -71l-256 254q-63 62 -206 89q-91 17 -236 17h-111q58 7 153 72q45 31 83 64
q25 25 75 73q100 95 148 169q55 85 80 161v-136q0 -155 16 -251q23 -140 86 -203z" />
    <glyph glyph-name="uF5551" unicode="&#x1230b;&#x12313;&#x121a4;" horiz-adv-x="6159" 
d="M5839 1929q-136 -136 -201 -230q-143 -207 -143 -401v-1298h-102v1276q0 194 -107 369q-50 82 -186 225q-127 -127 -187 -225q-108 -177 -108 -369v-1276h-102v1276q0 191 -109 369q-50 82 -188 227q-121 -121 -183 -218q-106 -166 -106 -354v-1300h-103v449h-723
q-265 0 -523 -243q-69 -65 -134 -130q80 204 80 426q0 166 -39 290q-15 48 -43 121q82 223 82 412q0 127 -12 199q-17 99 -70 229q105 -105 137 -135q79 -74 148 -122q172 -120 354 -120h735q-28 184 -159 356q-61 64 -181 197q55 -18 168 -48q103 -21 234 -21q132 0 221 21
q35 8 121 48q34 -18 105 -47q73 -22 239 -22q131 0 222 21q64 15 126 48q60 -33 116 -47q86 -22 228 -22q143 0 219 17q19 4 174 52zM2513 1929q-126 -118 -204 -231q-140 -204 -140 -395v-1303h-102v1303q0 262 -262 533q-61 63 -89 93q57 -18 170 -48q103 -21 234 -21
q145 0 221 17q11 3 172 52zM1876 1065l-67 -72l-256 254q-38 38 -92 58q-104 39 -236 46q-60 3 -115 3h-110q59 7 152 71q40 27 83 65q26 25 76 73q174 166 227 329v-135q0 -244 47 -366q20 -51 56 -88zM1809 266l-68 -71l-256 254q-63 62 -206 89q-91 17 -236 17h-111
q58 7 153 72q45 31 83 64q25 25 75 73q100 95 148 169q55 85 80 161v-136q0 -155 16 -251q23 -140 86 -203zM759 1432l-170 -164q-68 -112 -68 -359q0 -228 103 -387l133 -135q0 -34 -9 -40.5t-44 -6.5l-363 367q-111 80 -230 149q-42 24 -79 41v27q116 61 246 155
q23 16 63 45l363 355q36 0 45.5 -7t9.5 -40zM4014 551v723h-743q-250 0 -487 -233q-67 -66 -123 -128q120 -132 189 -191q111 -95 228 -139q85 -32 183 -32h753z" />
    <glyph glyph-name="uF5525" unicode="&#x1230b;&#x12074;&#x121b3;" horiz-adv-x="5193" 
d="M4873 719l-53 -86l-360 227l-1117 -735q-64 -42 -112 -114q-60 -90 -99 -223q-5 -15 -59 -237q-22 138 -62 219q-11 22 -92 152q-118 189 -270 297q225 -55 375 -55q128 0 215 29q33 11 63 26l1061 703l-524 331q-98 62 -178 86q-70 21 -168 21q-103 0 -209 -25l-201 -47
q171 123 275 271l-97 61q-59 37 -158 57q-84 17 -163 17q-152 0 -397 -60q191 136 301 312q59 94 90 174q39 99 61 237q55 -257 109 -377q86 -191 248 -292l-3 -5l62 -38q51 93 73 153q34 96 52 213q53 -250 107 -375q36 -84 97.5 -161.5t151.5 -133.5l-2 -2l565 -356
l351 231l57 -86l-311 -206zM3706 805l-51 -47l-103 102q-105 104 -336 113q9 -237 121 -346l99 -97l-46 -45l-102 101q-56 56 -155 82q-82 22 -195 28q14 -233 127 -346l98 -98l-45 -45l-90 90q-125 125 -438 125q19 5 86 45q72 43 125 96q35 35 68.5 88.5t33.5 87.5
q90 20 150 80l-62 64q-121 125 -438 125q19 5 86 45q72 43 125 96q105 105 137 201q0 -272 127 -414l68 -76q66 66 81 150q29 4 82 33q71 38 138 116t92 154q0 -135 29 -237q33 -118 85 -169zM2797 -111l-68 -71l-256 254q-65 65 -206 91q-91 17 -236 17h-111q61 8 155 72
q45 31 83 63q20 17 73 70l31 31v444h-629q-176 0 -363 -123q-111 -73 -288 -250q79 202 82 424q1 113 -12 196q-17 103 -70 232q171 -176 288 -255q180 -121 365 -121h627v352q0 172 -137 378q-78 117 -199 238q55 -17 166 -48q88 -23 227 -23t221 19q33 8 78 23q11 4 93 29
q-41 -42 -123 -131q-153 -177 -203 -342q-21 -69 -21 -137v-786q69 98 95 182v-135q0 -156 16 -252q23 -140 86 -203zM759 1432l-170 -164q-68 -112 -68 -359q0 -228 103 -387l133 -135q0 -34 -9 -40.5t-44 -6.5l-363 367q-111 80 -230 149q-42 24 -79 41v27q116 61 246 155
q23 16 63 45l363 355q36 0 45.5 -7t9.5 -40z" />
    <glyph glyph-name="uF5318" unicode="&#x1231d;&#x1230b;&#x121b8;" horiz-adv-x="6836" 
d="M6516 1929q-114 -106 -201 -233q-143 -209 -143 -385v-1311h-102v1311q0 169 -142 377q-89 130 -207 241q55 -18 168 -48q103 -21 236 -21q130 0 227 22q30 7 164 47zM5949 1311q-154 -154 -220 -330q-22 -59 -22 -102v-879h-1151q-95 0 -220 -75q-100 -60 -202 -167
q22 39 36 112q17 90 17 165q0 127 -34 226q-8 23 -19 48l40 -40q33 -33 73 -63q22 -17 49 -32v676q0 102 -75 241q-70 129 -165 220q22 -18 109 -37t166 -19q84 0 147.5 20t104.5 36q-6 34 -29 98q128 -143 252 -200q86 -40 196 -40h523q-22 24 -67 72l-40 42q-10 11 -26 28
q22 -19 111 -37.5t169 -18.5q113 0 229 36q27 8 48 20zM3985 985l-86 -92q-27 -41 -51 -112q-27 -81 -27 -128q0 -54 31 -147q13 -41 43 -103l81 -86q0 -43 -36 -43l-125 121q-96 93 -222 189q-44 34 -73 51v33q63 31 174 124q71 59 119 105l131 125q41 0 41 -37zM3827 1929
q-70 -71 -199 -226q-145 -205 -145 -400v-1303h-103v1300q0 169 -109 341q-69 109 -187 227q-190 -190 -262 -385q-31 -84 -31 -180v-1303h-103v174h-917q-168 0 -348 -122q-119 -81 -289 -251q86 219 86 426q0 106 -6 154q-6 45 -33 141h-512q-159 0 -346 -124
q-142 -94 -291 -248q82 211 82 423q0 203 -64 342q64 144 64 347q0 188 -35 304q-17 55 -45 124q163 -168 297 -259q177 -120 342 -120h502q25 54 36 137q7 57 7 164q0 169 -40 298q-18 57 -46 126l135 -135q79 -75 146 -122q170 -120 354 -120h802q-51 81 -127 165
q-34 34 -100 105q55 -18 167 -48q100 -21 230 -21q139 0 225 22q57 15 122 47q59 -32 117 -47q86 -22 229 -22q134 0 223 19q2 0 172 50zM5639 68v811q0 101 -81 223h-556q-105 0 -238 -77q-109 -63 -210 -169q19 33 34 113t15 168q0 97 -12 151q-152 -160 -208 -330
q-19 -58 -19 -108v-711q87 -43 148 -63q25 -8 42 -8h1085zM2688 276v1000q0 144 -59 280h-862q-177 0 -333 -111q-83 -59 -255 -237h-510q-156 0 -306 -92q-99 -61 -239 -201q145 -145 246 -206q141 -84 303 -84h506q216 -246 416 -319q83 -30 174 -30h919z" />
    <glyph glyph-name="uF5319" unicode="&#x1234f;&#x1230b;&#x121b8;" horiz-adv-x="4950" 
d="M4630 1929q-70 -68 -199 -218q-143 -197 -143 -400v-1311h-103v176h-2431q-168 0 -346 -124q-130 -91 -274 -245q85 216 88 426q2 146 -37 285h-524q-143 0 -332 -123q-134 -87 -297 -250q82 209 82 424q0 100 -27 207t-55 142q29 41 55.5 141t26.5 203q0 191 -33 304
q-17 57 -45 126q154 -154 290 -248q192 -133 329 -133h530q37 133 37 299q0 112 -15 192q-19 100 -73 232q177 -183 286 -258q172 -119 349 -119h2312q-49 79 -132 167q-36 34 -104 105q55 -17 166 -47q92 -22 230 -22q136 0 218 19q34 8 171 50zM3634 481v561q0 78 -71 201
h-275q-96 0 -215 -78q-102 -67 -192 -161q51 117 51 276q0 29 -4 58l-8 59q-85 -100 -125 -175q-56 -105 -56 -171v-502q118 -68 213 -68h682zM4185 279v1032q0 103 -57 243h-2359q-165 0 -327 -107q-114 -75 -257 -239h-530q-143 0 -290 -93q-105 -66 -239 -195
q141 -141 241 -204q151 -95 294 -95h524q77 -88 117 -128q68 -68 131 -112q146 -102 321 -102h795q20 72 20 170q0 61 -19 159q-8 41 -32 113q67 -69 154 -129v457q0 82 -78 206q-73 116 -164 207q116 -49 275 -49q116 0 206 27q-18 75 -30 112q111 -111 193 -164
q119 -77 214 -77h236q-38 54 -131 153q121 -51 276 -51q147 0 275 51q-157 -157 -220 -319q-22 -57 -22 -101v-630h-750q-139 0 -317 -135h1550zM2414 606q0 -39 -37 -39l-133 119q-88 78 -197 148q-45 28 -84 45v34q78 37 164 98q41 28 117 91l125 123q43 0 43 -41l-84 -90
q-53 -86 -53 -195q0 -141 55 -201zM1885 1270l-147 -137q-15 -23 -32 -95q-15 -64 -15 -120q0 -86 38 -187q10 -26 15 -33l131 -135q0 -45 -43 -45l-186 182q-37 36 -116 92q-105 75 -173 103l2 31q106 50 240 159q26 21 47 41l196 185q43 0 43 -41z" />
    <glyph glyph-name="uF52B2" unicode="&#x120f0;&#x122fa;&#x122db;" horiz-adv-x="9122" 
d="M8802 1929q-128 -128 -201 -236q-143 -212 -143 -397v-1296h-103v1274q0 200 -103 370q-58 96 -190 228q-129 -129 -187 -219q-110 -171 -110 -353v-1300h-102v379h-748q-178 0 -356 -124q-108 -75 -278 -251q85 215 88 426q2 101 -16 195q-19 103 -72 231
q92 -95 137 -137q79 -73 151 -120q180 -118 369 -118h725v793q0 37 -4 69h-1165q-191 0 -380 -126q-108 -72 -282 -246q79 202 82 426q1 113 -12 194q-17 104 -70 232q176 -181 291 -258q179 -119 364 -119h1153q-38 160 -155 307q-54 58 -160 176q55 -17 165 -47
q90 -22 226 -22q124 0 231 26q53 13 113 43q123 -69 348 -69q146 0 222 17q34 8 79 23q11 4 93 29zM5651 1171q-70 -71 -199 -226q-145 -205 -145 -400v-545h-103v557q0 157 -90 306q-43 72 -121 161q-23 26 -45 51q-108 -114 -165 -209q-37 -62 -64 -140q-33 -95 -33 -169
v-557h-102v557q0 210 -175 420q-44 53 -85 96q-258 -272 -258 -516v-557h-103v557q0 133 -95 296q-63 108 -165 222q-174 -184 -234 -367q-26 -80 -26 -165v-543h-102v563q-10 103 -45 195h-625q-169 0 -354 -123q-105 -70 -285 -250q79 202 82 424q1 113 -12 196
q-17 103 -70 232q92 -92 139 -135q79 -73 150 -122q172 -120 350 -120h573q-54 93 -134 188q-31 37 -61 70l-46 51q77 -27 235 -65q44 -6 103 -6v205q0 185 -141 388q-65 79 -197 238q54 -17 163 -47q90 -22 226 -22q128 0 210 21q47 12 101 48q47 -31 102 -47
q77 -22 212 -22q116 0 207 26q15 4 102 43q32 -16 98 -43q88 -26 215 -26q131 0 208 22q55 16 97 47q123 -69 316 -69q146 0 220 17q8 2 171 52q-70 -71 -199 -226q-145 -205 -145 -398v-205q125 0 254 42zM3013 1026l-68 -72l-256 254q-66 65 -205 91q-97 18 -237 18h-111
q157 48 333 231q173 179 206 305v-135q0 -244 47 -366q20 -53 55 -88zM1951 -291l-68 -71l-256 253q-67 66 -205 92q-91 17 -237 17h-111q66 8 154 70q45 31 82 63q27 23 76 72l28 28v627h-725q-191 0 -381 -126q-118 -78 -276 -242q79 202 82 419q2 115 -12 198
q-17 106 -70 234q157 -168 272 -249q83 -58 178 -94.5t207 -36.5h725v372q0 177 -139 370q-30 41 -201 224q55 -17 166 -47q92 -22 230 -22q146 0 220 17q8 2 171 52q-70 -70 -199 -221q-145 -197 -145 -377v-368h272v-103h-272v-510q69 101 96 187v-136q0 -155 16 -251
q23 -140 86 -203zM5204 1102v192q0 178 -81 326q-55 100 -175 215q-120 -126 -172 -212q-90 -149 -90 -325v-200q103 0 173 24q22 8 85 47q117 -67 260 -67zM4584 1098v200q0 225 -173 436q-44 54 -87 99q-258 -258 -258 -533v-202q102 0 173 27q29 15 87 44q28 -16 87 -44
q71 -27 171 -27zM3963 1098v202q0 218 -176 438q-43 54 -84 97q-174 -183 -234 -368q-26 -80 -26 -164v-205q159 0 260 71q99 -71 260 -71z" />
    <glyph glyph-name="uF5389" unicode="&#x12252;&#x12228;&#x122fa;" horiz-adv-x="5970" 
d="M5650 1722h-3234q-192 0 -372 -121q-106 -71 -286 -251q86 220 89 426q1 102 -16 194q-19 100 -73 232q70 -70 142 -136q263 -241 512 -241h3238v-103zM5484 1061q-60 -47 -151 -187q-95 -146 -95 -223v-309h-68v322q0 68 -54 164q-26 46 -69 105q-16 22 -28 36
q-101 -119 -143 -230q-17 -45 -17 -77v-320h-67v307q0 61 -55 169q-49 97 -101 153q-19 -21 -47 -64q-63 -97 -92 -175q-17 -46 -17 -70v-320h-67v317q0 46 -60 156q-54 98 -100 154q-97 -151 -133 -243q-17 -44 -17 -69v-315h-67v311q0 26 -29 99l-24 60q-4 11 -21 48h-246
q-95 0 -241 -80q-119 -65 -232 -164q17 30 31 123q12 80 12 158q0 119 -26 220q-7 28 -17 50q99 -86 236 -159q151 -80 237 -80h187q-33 56 -107 139q28 -14 96 -32q87 -23 144 -23v133q0 69 -104 214q-77 107 -140 177q28 -14 111 -27q89 -14 168 -14q139 0 192 33
q59 -33 184 -33q133 0 191 33q66 -33 192 -33q127 0 183 35q61 -35 190 -35q87 0 173 14q80 13 108 27q-98 -107 -144 -170q-102 -138 -102 -207v-147q63 0 142 18q39 9 104 31zM3768 1055l-43 -43l-154 133q-26 29 -162 52q-120 20 -194 20q28 7 82 38q63 36 120 93
q105 105 133 188q0 -146 39 -289q12 -44 29 -57zM3133 860h-230q-98 0 -221 -75q-57 -35 -108 -78t-95 -89q22 39 36 112q18 95 18 165q0 124 -35 226q-8 23 -19 48q100 -100 198 -163q122 -78 216 -78h240v-68zM5650 0h-3361q-150 0 -340 -126q-140 -93 -289 -247
q75 192 78 428q2 151 -35 275l-219 219h-795q-265 0 -523 -243q-69 -65 -134 -130q82 209 82 426q0 195 -66 309q66 99 66 312q0 122 -12 194q-17 104 -70 232l136 -136q243 -239 497 -239h784l211 205q36 0 45.5 -7t9.5 -40l-139 -144q-69 -117 -99 -275q-9 -47 -9 -85
q0 -199 102 -357l162 -168q142 -147 262 -218q141 -83 293 -83l3363 2v-104zM2653 1540q-98 -98 -163 -201q-78 -124 -78 -223v-774h-68v774q0 98 -75 221q-65 107 -166 203q25 -21 108 -36q92 -17 168 -17q116 0 226 34q31 10 48 19zM5170 1012v135q0 50 -54 149t-99 156
q-63 -73 -105 -154q-53 -101 -53 -151v-135q94 9 154 39q49 -39 157 -39zM4792 1012v127q0 46 -53.5 155t-100.5 160q-90 -105 -142 -247q-16 -44 -16 -68v-127q84 0 158 37q42 -37 154 -37zM4413 1012v127q0 43 -56 155q-24 48 -68 117q-16 24 -28 41q-90 -105 -142 -244
q-16 -43 -16 -67v-129q95 0 160 37q55 -37 150 -37zM1367 651q-60 50 -188 137q-112 76 -174 105l-2 35q108 57 282 184l60 59h-680q-151 0 -285 -78q-82 -48 -227 -182q130 -125 229 -181q140 -79 285 -79h700z" />
    <glyph glyph-name="uF5501" unicode="&#x12134;&#x12228;&#x1230b;" horiz-adv-x="8759" 
d="M8439 1432l-170 -164q-68 -112 -68 -359q0 -228 103 -387l133 -135q0 -34 -9 -40.5t-44 -6.5l-363 367q-111 80 -230 149q-42 24 -79 41v27q116 61 246 155q23 16 63 45l363 355q36 0 45.5 -7t9.5 -40zM7534 860h-776q-170 0 -352 -124q-123 -83 -283 -249q85 217 88 426
q1 107 -15 195q-18 99 -73 231q98 -98 138 -135q80 -74 150 -122q173 -119 347 -119h776v-103zM6365 1929q-115 -107 -202 -237q-142 -212 -142 -389v-1303h-103v1298q0 188 -138 391q-83 123 -208 240q55 -18 167 -48q100 -21 230 -21q143 0 220 17q24 5 176 52zM5580 860
h-412v-860h-100v860h-518v-860h-103v860h-518v-860h-102v860h-414q-265 0 -523 -243q-69 -65 -134 -130q74 192 86 373h-193q-265 0 -523 -243q-69 -65 -134 -130q85 217 88 426q1 107 -15 195q-18 99 -73 231q180 -185 289 -258q177 -118 368 -118h195q-7 142 -47 265
q-15 46 -41 111q179 -179 298 -257q182 -119 359 -119h414v340q0 180 -140 386q-65 80 -196 240q54 -18 163 -48q96 -21 224 -21q139 0 212 22q54 16 95 47q50 -33 97 -47q75 -22 217 -22q131 0 208 22q53 15 101 47q50 -31 100 -45q86 -24 219 -24q147 0 221 17q33 8 78 23
q11 4 93 29q-69 -70 -203 -227q-148 -199 -148 -385v-354h412v-103zM2039 61l-72 -71l-161 151q-169 94 -428 147q-169 35 -435 55q-91 7 -165 8l-173 1l74 37l-67 72q-90 97 -253 138q-102 26 -247 26h-80q153 55 291 190q53 51 107 127q51 71 63 115q53 18 130 69
q102 68 144 111q159 162 176 248q80 32 183 117q73 60 125 125q62 77 99 142q22 38 32 60v-28q0 -252 64 -406q31 -74 81 -121l94 -88q8 18 41 68q0 -492 100 -846q45 -159 121 -291zM5068 963v368q0 117 -89 281q-63 115 -165 229q-179 -188 -239 -353q-25 -69 -25 -145
v-380h518zM4447 963v387q0 134 -95 283q-58 91 -167 206q-169 -178 -231 -386q-25 -84 -25 -175v-315h518zM1562 1206l-88 92q-72 75 -235 118q-138 36 -228 36h-31v-51q0 -199 70 -341q32 -65 84 -118l135 -137l57 59q46 48 115 151q26 39 61 95zM1197 741l-133 123
q-58 54 -114 80q-119 56 -268 70q-63 6 -109 6h-47v-21q0 -134 23 -222q41 -158 151 -269l73 -74q262 145 365 248z" />
    <glyph glyph-name="uF540F" unicode="&#x12056;&#x121a8;&#x12318;" horiz-adv-x="9416" 
d="M7624 594q0 -49 -47 -49l-121 125q-32 33 -114 87q-110 73 -173 99v39q103 49 240 160q17 14 47 41l119 108q43 0 43 -41l-70 -61q-17 -25 -42 -94q-27 -74 -27 -123q0 -85 53 -191q12 -24 18 -32zM9096 2157l-135 -134q-82 -135 -82 -284q0 -157 84 -287l131 -135
q0 -34 -9 -40.5t-44 -6.5l-192 188q-6 6 -75 63t-162 111q-56 32 -105 56h-4027q-265 0 -523 -243q-69 -65 -134 -130q85 217 88 426q1 107 -15 194q-19 100 -73 232q180 -185 289 -258q179 -119 368 -119h4027q148 66 348 229l186 185q36 0 45.5 -7t9.5 -40zM7145 594
q0 -49 -47 -49l-121 125q-32 33 -114 87q-110 73 -173 99v39q103 49 240 160q17 14 47 41l119 108q43 0 43 -41l-70 -61q-17 -25 -42 -94q-28 -76 -28 -123q0 -56 29 -133q24 -65 43 -90zM6625 594q0 -49 -48 -49l-120 125q-31 32 -114 87q-110 73 -173 99v39
q101 48 239 160q29 23 48 41l118 108q43 0 43 -41l-69 -61q-17 -25 -42 -94q-28 -76 -28 -123q0 -56 29 -133q12 -32 43 -90zM8926 35h-4438q-186 0 -375 -128q-103 -70 -290 -257q85 217 88 436q1 106 -15 197q-18 99 -73 233q102 -102 140 -137q80 -74 152 -121
q184 -121 373 -121h1409q19 47 46 147q4 29 4 70q0 133 -29 162h-870q-105 0 -256 -104q-103 -71 -172 -140q11 28 28 106q21 97 21 171q0 118 -37 192q37 104 37 189q0 106 -37 192q39 85 39 195q0 51 -21 156q-8 44 -28 112q39 -49 184 -140q157 -99 231 -99h938l-16 -68
l-92 -94q-62 -63 -62 -260q0 -99 34 -183q20 -49 46 -84l119 -114q21 -20 65.5 -50.5t84.5 -48.5q106 -47 198 -47h1614v209q0 99 -81 238q-76 130 -171 221q25 -17 100 -32q70 -14 152 -19v139q0 42 -36 116q-4 9 -60 111h-1463q-102 0 -221 -75q-99 -63 -200 -168
q20 34 32 111q15 93 15 165q0 188 -45 273q105 -105 200 -163q123 -75 219 -75h1430q-15 24 -47 72q-27 38 -55 63q21 -18 100 -34q73 -15 160 -15q166 0 262 51q-147 -147 -205 -334q-18 -58 -18 -112v-125q152 8 233 49q-150 -150 -213 -343q-20 -61 -20 -114v-327h-68v51
h-1614q-185 0 -403 -193h2977v-102zM3786 391q0 -34 -9 -42.5t-44 -8.5l-377 369q-43 33 -131.5 96t-149.5 90l-2 31q81 42 154 95l129 93l375 365q36 0 45.5 -7t9.5 -40l-160 -166q-39 -66 -60 -186q-20 -113 -20 -175q0 -79 18 -189q23 -144 60 -200zM3202 1929
q-69 -69 -198 -220q-146 -201 -146 -392v-217q107 0 183 19q60 15 159 48q-69 -70 -198 -223q-144 -201 -144 -403v-541h-102v379h-897v-344h-103v344h-413v-344h-103v344h-413v-344h-103v344h-35q-265 0 -523 -243q-69 -65 -134 -130q85 217 88 426q1 106 -15 193
q-18 99 -73 231q90 -93 138 -137q79 -73 151 -120q180 -118 368 -118h35v41q0 79 -91 235t-179 240q23 -19 123 -44t205 -25q149 0 256 57q107 -57 256 -57q156 0 256 57q100 -57 260 -57q97 0 195 25q90 23 128 44q-99 -86 -183 -226q-91 -152 -91 -247v-43h897v62
q0 203 -141 399q-32 45 -201 225q49 -16 149 -44q81 -19 193 -23v178l-4 65h-2061q-191 0 -371 -121q-106 -71 -286 -251q85 217 88 426q1 107 -15 194q-19 100 -73 232q180 -185 289 -258q179 -119 368 -119h2042q-42 159 -160 308q-55 57 -163 175q56 -18 169 -49
q95 -22 232 -22q138 0 220 19q8 2 171 52zM5863 1278h-830q-70 0 -170 -57q-63 -36 -145 -99q41 -35 130 -100q96 -59 200 -59h401q85 43 155 87q64 41 103 70zM5848 584l-129 133q-4 4 -36 29q-107 83 -232 149h-403q-73 0 -180 -55q-64 -33 -150 -99q186 -157 330 -157
h800zM1756 481v43q0 87 -63 202q-53 97 -145 198q-91 -91 -147 -199q-58 -112 -58 -203v-41h413zM1240 481v43q0 90 -61 203q-57 107 -141 199q-140 -140 -194 -305q-17 -52 -17 -99v-41h413z" />
    <glyph glyph-name="uF540E" unicode="&#x12056;&#x121a8;&#x12323;" horiz-adv-x="9416" 
d="M9096 2157l-135 -134q-82 -135 -82 -284q0 -157 84 -287l131 -135q0 -34 -9 -40.5t-44 -6.5l-192 188q-6 6 -75 63t-162 111q-56 32 -105 56h-4027q-265 0 -523 -243q-69 -65 -134 -130q85 217 88 426q1 107 -15 194q-19 100 -73 232q180 -185 289 -258
q179 -119 368 -119h4027q148 66 348 229l186 185q36 0 45.5 -7t9.5 -40zM8926 35h-4438q-186 0 -375 -128q-103 -70 -290 -257q85 217 88 436q1 106 -15 197q-18 99 -73 233q102 -102 140 -137q80 -74 152 -121q184 -121 373 -121h1409q19 47 46 147q4 29 4 70
q0 133 -29 162h-870q-105 0 -256 -104q-103 -71 -172 -140q11 28 28 106q21 97 21 171q0 118 -37 192q37 104 37 189q0 106 -37 192q39 85 39 195q0 51 -21 156q-8 44 -28 112q39 -49 184 -140q157 -99 231 -99h938l-16 -68l-92 -94q-62 -63 -62 -260q0 -99 34 -183
q20 -49 46 -84l119 -114q21 -20 65.5 -50.5t84.5 -48.5q106 -47 198 -47h326q-134 127 -283 215v43q151 90 285 217h43q-88 -139 -88 -233q0 -80 48 -163q21 -36 50 -79h375q-131 131 -281 215v43q43 28 128 87q90 67 153 130h43q-86 -111 -86 -233q0 -80 45 -163
q19 -36 49 -79h363q-152 139 -283 215v43q49 27 130 88q99 75 150 129h43q-83 -103 -83 -233q0 -80 45 -163q19 -36 49 -79h393v209q0 99 -81 238q-76 130 -171 221q25 -17 100 -32q70 -14 152 -19v139q0 42 -36 116q-4 9 -60 111h-297q-94 -137 -94 -247q0 -51 26 -118
q28 -72 60 -120h-43q-175 167 -283 215v49l283 221h-363q-94 -148 -94 -247q0 -98 84 -238h-41q-165 151 -281 215v49q185 104 281 221h-375q-66 -107 -89 -187q-9 -31 -9 -56q0 -48 29 -119q22 -55 59 -123h-43q-95 89 -169 138l-116 77v49q103 54 283 221h-271
q-102 0 -221 -75q-99 -63 -200 -168q20 34 32 111q15 93 15 165q0 188 -45 273q105 -105 200 -163q123 -75 219 -75h1430q-15 24 -47 72q-27 38 -55 63q21 -18 100 -34q73 -15 160 -15q166 0 262 51q-147 -147 -205 -334q-18 -58 -18 -112v-125q152 8 233 49
q-150 -150 -213 -343q-20 -61 -20 -114v-327h-68v51h-1614q-185 0 -403 -193h2977v-102zM3786 391q0 -34 -9 -42.5t-44 -8.5l-377 369q-43 33 -131.5 96t-149.5 90l-2 31q81 42 154 95l129 93l375 365q36 0 45.5 -7t9.5 -40l-160 -166q-39 -66 -60 -186q-20 -113 -20 -175
q0 -79 18 -189q23 -144 60 -200zM3202 1929q-69 -72 -198 -228q-146 -206 -146 -401v-200q107 0 183 19q60 15 159 48q-69 -70 -198 -223q-144 -201 -144 -403v-541h-102v379h-897v-344h-103v344h-413v-344h-103v344h-413v-344h-103v344h-35q-265 0 -523 -243
q-69 -65 -134 -130q77 196 80 426q1 108 -11 197q-14 99 -69 233q95 -98 138 -138q79 -74 151 -122q182 -121 368 -121h35v41q0 79 -91 235t-179 240q23 -19 123 -44t205 -25q149 0 256 57q107 -57 256 -57q156 0 256 57q100 -57 260 -57q97 0 195 25q90 23 128 44
q-99 -86 -183 -226q-91 -152 -91 -247v-43h897v62q0 203 -141 399q-32 45 -201 225q49 -16 149 -44q81 -19 193 -23v178l-4 65h-2061q-191 0 -371 -121q-106 -71 -286 -251q75 191 78 430q2 120 -9 192q-14 97 -69 230q180 -185 289 -258q179 -119 368 -119h2042
q-42 159 -160 308q-55 57 -163 175q55 -18 168 -48q103 -21 231 -21q145 0 221 17q11 3 172 52zM5863 1278h-830q-70 0 -170 -57q-63 -36 -145 -99q41 -35 130 -100q96 -59 200 -59h401q85 43 155 87q64 41 103 70zM5848 584l-129 133q-4 4 -36 29q-107 83 -232 149h-403
q-73 0 -180 -55q-64 -33 -150 -99q186 -157 330 -157h800zM1756 481v43q0 87 -63 202q-53 97 -145 198q-91 -91 -147 -199q-58 -112 -58 -203v-41h413zM1240 481v43q0 90 -61 203q-57 107 -141 199q-140 -140 -194 -305q-17 -52 -17 -99v-41h413z" />
    <glyph glyph-name="uF52A3" unicode="&#x12263;&#x121ec;&#x12351;" horiz-adv-x="7784" 
d="M7464 1929q-70 -72 -198 -230q-146 -211 -146 -417v-1282h-102v1276q0 112 -27 200q-16 52 -63 146h-2046q-104 0 -211 -60q-75 -42 -187 -139q61 3 176 25q90 17 130 37q-96 -78 -182 -222q-93 -155 -93 -249v-1014h-102v1014h-2q0 102 -88 246q-77 126 -181 225
q29 -19 117 -37q108 -22 178 -25q35 125 35 248q0 133 -42 274q-12 40 -19 56q88 -106 213 -185q146 -92 270 -92h1968q-36 49 -182 205q55 -17 166 -47q92 -22 227 -22q138 0 220 19q34 8 171 50zM6913 1202q-157 -157 -220 -319q-21 -54 -21 -101v-782h-68v205h-917v-156
h-68v156h-260v-156h-68v156h-149q-101 0 -228 -75q-106 -63 -206 -167q51 117 51 277q0 56 -20 159q-8 41 -16 66l-15 47q157 -157 322 -218q60 -22 112 -22h149q0 73 -66 178q-47 74 -104 138q90 -41 203 -41q46 0 94 14l72 21q111 -37 162 -37q59 0 117 14q34 8 56 16
q8 4 19 9q-51 -46 -100 -134q-57 -102 -57 -178h917v508q0 86 -77 214q-57 95 -165 208q121 -51 277 -51q146 0 274 51zM6326 1130l-82 -88q-68 -111 -68 -200q0 -62 34 -138q17 -37 32 -57l77 -84q0 -43 -37 -43l-120 115q-51 49 -141 103q-115 69 -181 69h-711
q-95 0 -221 -77q-102 -62 -200 -165q51 117 51 277q0 56 -20 159q-8 41 -16 66l-15 47q103 -103 203 -163q128 -77 221 -77h702q76 0 198 78q86 55 132 99l121 116q41 0 41 -37zM4071 1407l-136 -131q-39 -66 -60 -187q-19 -108 -19 -176q0 -129 41 -267q15 -51 36 -83
l132 -135q0 -33 -9.5 -40t-44.5 -7l-346 336l-136 100q-80 57 -144 86l-2 31q77 40 153 95l129 93l350 332q36 0 46 -7t10 -40zM3409 1929q-136 -147 -199 -242q-145 -220 -145 -399v-1288h-102v1288q0 230 -173 447q-42 53 -83 96q-175 -184 -235 -371q-25 -78 -25 -172
v-1288h-103v1288q0 159 -92 324q-65 117 -168 225q-115 -121 -171 -222q-89 -161 -89 -323v-1292h-102v1294q0 166 -91 324q-63 110 -165 217q-116 -122 -171 -215q-94 -159 -94 -326v-1294h-102v860h-414q-271 0 -528 -245q-80 -76 -125 -123q79 202 82 419q2 115 -12 198
q-17 106 -70 234q100 -103 136 -138q79 -74 150 -122q178 -120 367 -120h414v331q0 209 -139 410q-34 49 -199 225q55 -17 166 -47q92 -22 227 -22q136 0 206 19q50 14 102 50q49 -34 103 -48q82 -21 212 -21q140 0 214 19q64 17 93 50q37 -33 97 -48q82 -21 218 -21
q139 0 207 19q46 13 99 50q49 -34 103 -48q82 -21 210 -21q138 0 220 19q34 8 171 50zM5619 272q0 61 -44 140q-34 60 -85 127q-88 -105 -119 -199q-12 -36 -12 -68h260z" />
    <glyph glyph-name="uF5531" unicode="&#x12016;&#x12000;" horiz-adv-x="3134" 
d="M2814 1723h-1314q-192 0 -372 -121q-106 -71 -286 -251q86 220 89 426q1 102 -16 194q-19 100 -73 232q70 -70 142 -136q263 -241 512 -241h1318v-103zM2445 1001q-103 -103 -164 -200q-78 -124 -78 -217v-275h-67v275q0 98 -75 218q-61 97 -165 197q27 -18 96 -33
q82 -18 144 -18v156q0 73 -61 175q-51 84 -134 177q-186 -206 -186 -358v-789h-68v787q0 80 -81 212q-65 106 -161 212q133 -56 275 -56q143 0 223 49q82 -49 227 -49q165 0 275 58q-151 -151 -220 -325q-22 -56 -22 -93v-156q63 0 139 19q70 17 103 34zM2814 0h-1314
q-192 0 -372 -121q-106 -71 -286 -251q86 220 89 426q1 102 -16 194q-19 100 -73 232q70 -70 142 -136q263 -241 512 -241h1318v-103zM759 1432l-170 -164q-68 -112 -68 -359q0 -228 103 -387l133 -135q0 -34 -9 -40.5t-44 -6.5l-363 367q-111 80 -230 149q-42 24 -79 41v27
q116 61 246 155q23 16 63 45l363 355q36 0 45.5 -7t9.5 -40z" />
    <glyph glyph-name="uF52ED" unicode="&#x122db;&#x12000;" horiz-adv-x="4731" 
d="M4411 1929q-70 -68 -200 -218q-144 -195 -144 -421v-194q115 4 184 21q32 8 158 50q-67 -73 -194 -229q-148 -208 -148 -399v-539h-103v535q0 198 -143 400q-32 45 -98 117q-71 79 -99 115q50 -17 150 -46q92 -22 190 -25v194q0 200 -125 385q-37 54 -196 223
q-73 -78 -102 -111q-54 -63 -91 -119q-127 -196 -127 -374v-1294h-102v1292q0 183 -122 370q-64 98 -198 232q-201 -211 -284 -423q-35 -90 -35 -179v-1292h-103v1290q0 190 -128 378q-34 50 -92 115q-93 107 -97 111q-214 -214 -283 -397q-35 -93 -35 -197v-1300h-102v379
h-625q-178 0 -356 -124q-108 -75 -278 -251q85 215 88 426q2 101 -16 195q-19 103 -72 231q92 -95 137 -137q79 -73 151 -120q180 -118 369 -118h602v862h-1061q-185 0 -369 -126q-107 -73 -280 -246q79 202 82 422q2 169 -37 304q-17 57 -45 126q176 -181 291 -258
q179 -119 364 -119h1028q-39 162 -159 307q-56 58 -164 176q57 -17 173 -47q99 -22 234 -22q227 0 365 69q123 -69 365 -69q149 0 244 22q67 16 130 47q117 -69 371 -69q231 0 369 69q92 -37 152 -50q87 -19 227 -19q136 0 218 19q31 7 78 22q29 9 93 28z" />
    <glyph glyph-name="uF54B8" unicode="&#x122fc;&#x12000;" horiz-adv-x="4280" 
d="M3960 1929q-207 -223 -299 -438q-43 -100 -43 -199v-190q108 0 176 17q80 20 164 48q-70 -70 -198 -224q-142 -204 -142 -411v-532h-102v532q0 208 -141 408q-36 51 -201 227q52 -17 156 -46q82 -19 186 -19v180q0 175 -109 358q-64 107 -186 236q-127 -127 -187 -225
q-106 -173 -106 -369v-1282h-103v1300q0 175 -108 347q-69 110 -184 225q-191 -191 -263 -393q-30 -84 -30 -179v-1300h-103v1298q0 186 -140 390q-36 52 -98 123q-98 111 -104 118q56 -18 169 -48q100 -21 225 -21q138 0 232 24q54 14 110 45q43 -18 131 -47
q84 -22 219 -22q125 0 232 26q57 14 108 43q132 -69 344 -69q132 0 232 21q54 16 163 48zM1867 965l-68 -72l-256 254q-66 65 -184 88q-73 14 -217 14h-49v-45q0 -165 13 -252q21 -142 81 -202l236 -238l-68 -72l-256 254q-64 63 -198 89q-93 18 -230 18h-29v-41
q0 -157 14 -250q21 -138 83 -201l235 -237l-68 -72l-256 254q-63 63 -205 89q-91 17 -237 17h-110q59 7 154 72q83 57 161 137q116 108 166 212q15 32 20 59q161 50 226 137l-240 240q-62 62 -206 89q-91 17 -236 17h-111q58 7 153 72q45 31 83 64q25 25 75 73
q100 95 148 169q55 85 80 161v-136q0 -155 16 -251q23 -140 86 -203l223 -225q94 76 140 192q12 30 12 55q52 4 127.5 56.5t126.5 111.5q103 101 147 169q55 85 80 161v-135q0 -156 16 -252q23 -140 86 -203z" />
    <glyph glyph-name="uF55D5" unicode="&#x12328;&#x12000;" horiz-adv-x="3729" 
d="M3409 1929q-138 -138 -203 -231q-141 -201 -141 -398v-1300h-2357q-157 0 -329 -127q-96 -71 -273 -254q78 225 78 428q0 196 -78 430q59 -68 189 -190q36 -28 81 -56v1069q0 280 -255 539l-89 90q55 -18 166 -48q98 -21 229 -21q264 0 346 69q90 -69 344 -69
q144 0 221 17q21 5 175 52q-74 -74 -108 -112q-57 -62 -96 -122q-140 -211 -140 -419v-1174h1794v758h-412v-377h-68v377h-313v-377h-67v377h-72q-165 0 -344 -127q-100 -71 -277 -248q78 225 80 430q2 175 -80 420q173 -178 282 -254q170 -118 337 -118h74v235
q0 86 -77 214q-57 95 -165 208q126 -53 276 -53q132 0 189 35q18 -10 66 -25q53 -10 126 -10q147 0 275 51q-134 -134 -206 -272q-26 -49 -36 -93q49 0 133 21q40 10 109 33q-179 -179 -230 -344h400v313q0 208 -141 418q-81 120 -203 235q55 -18 166 -48q98 -21 229 -21
q143 0 220 17q21 5 175 52zM2483 1253q-28 110 -159 271q-154 -194 -154 -324v-237h299q-21 74 -92 178q-57 83 -135 166q131 -54 241 -54zM1066 102v1198q0 175 -106 346q-52 84 -187 226q-193 -193 -264 -402q-31 -91 -31 -194v-1112q73 -36 161 -54q40 -8 69 -8h358z" />
    <glyph glyph-name="uF526E" unicode="&#x12364;&#x12000;" horiz-adv-x="5935" 
d="M5615 1171q-74 -74 -108 -112q-57 -62 -96 -122q-140 -211 -140 -419v-518h-103v518q0 209 -140 418q-79 118 -204 235q81 -26 246 -63q44 -6 98 -6v174q0 180 -105 363q-69 120 -188 239q-123 -129 -186 -234q-108 -179 -108 -346v-1298h-103v1298q0 166 -141 380
q-89 135 -205 251q55 -18 167 -48q100 -21 230 -21q256 0 344 69q107 -69 346 -69q144 0 221 17q21 5 175 52q-120 -120 -204 -253q-140 -221 -140 -400v-174q101 0 179 19q55 13 165 50zM3690 1501l-45 -45l-129 121q-20 19 -111 33q-76 12 -168 12q0 -138 29 -225
q11 -34 22 -45l125 -125l-47 -47l-125 125q-21 17 -111 29q-77 9 -169 9q0 -137 28 -221q10 -29 23 -47l125 -125l-45 -45l-129 121q-22 20 -126 35q-86 12 -184 12q40 9 93 53q60 50 92 82q43 43 89 127q11 19 13 31q73 17 148 92l-109 109q-11 11 -48 20q-95 23 -263 23
q36 8 90 53q32 26 92 82q57 59 71 78q35 44 50 92q0 -143 32 -248q12 -38 25 -55l105 -105q20 20 52 67t32 71q27 4 86 43q50 34 86 71q53 56 71 78q36 47 50 92q0 -144 30 -249q10 -35 25 -54zM4048 592l-49 -45l-125 125q-23 23 -112 34q-77 9 -169 9q0 -133 28 -226
q10 -33 22 -45l129 -129l-45 -47l-129 129q-22 18 -112 30q-77 9 -169 9q0 -81 12 -153q14 -81 39 -115l119 -119l-49 -49l-119 119q-11 11 -48 20q-111 27 -261 27q39 9 92 53q60 50 92 82q43 43 89 127q12 22 14 31q71 16 147 92l-109 108q-22 22 -126 34q-85 9 -185 9
q34 8 90 54q32 26 92 82q61 64 72 77q33 42 49 93q0 -86 14 -170q17 -101 44 -136l104 -104q22 22 53 69.5t31 69.5q26 4 86 46q45 32 86 75q36 37 71 74q35 42 50 90q9 -153 37 -254q10 -38 24 -55zM2553 1171q-122 -131 -199 -247q-145 -218 -145 -367v-557h-102v553
q0 157 -110 328q-72 112 -191 225q-67 -71 -98 -106q-51 -60 -86 -115q-105 -166 -105 -328v-557h-103v567q0 36 -16 97q-11 42 -29 94h-698q-173 0 -355 -123q-105 -71 -284 -250q79 202 82 428q1 112 -12 193q-17 102 -70 231q92 -92 139 -135q79 -73 150 -122
q172 -120 350 -120h645q-50 87 -133 188q-20 24 -107 121q49 -17 149 -46q89 -22 189 -25v225q0 236 -253 512q-61 66 -85 94q55 -17 165 -47q95 -22 231 -22q244 0 338 69q39 -25 133 -45q110 -24 219 -24q138 0 220 19q34 8 171 50q-124 -124 -201 -238
q-143 -212 -143 -393v-200q143 0 257 43q22 8 87 30zM1046 1026l-70 -63l-250 243q-56 54 -201 85q-113 24 -243 24h-113q63 8 167 82q50 36 92 71q109 92 210 246q47 72 72 148v-148q0 -122 31 -264q33 -152 71 -190zM2107 1098v196q0 248 -202 474q-58 64 -95 100
q-189 -148 -265 -378q-28 -85 -28 -187v-205q196 0 289 73q33 -19 124 -45q98 -28 177 -28z" />
    <glyph glyph-name="uF53E9" unicode="&#x120b7;&#x12016;" horiz-adv-x="4831" 
d="M3792 1241h-993q-92 0 -220 -77q-104 -62 -202 -165q22 39 36 112q17 90 17 165q0 124 -35 226q-12 33 -18 48q163 -163 312 -220q55 -21 110 -21h993v-68zM3792 586h-989q-95 0 -221 -77q-100 -61 -203 -169q22 38 36 114q17 90 17 167q0 72 -17 159q-12 60 -36 115
q164 -164 310 -220q58 -22 110 -22h993v-67zM4511 1929q-70 -69 -198 -222q-142 -204 -142 -427v-1280h-102v174h-2653v-381h-102v381h-420v-381h-102v381h-125q-245 0 -504 -244q-69 -65 -131 -129q77 196 80 422q1 108 -11 197q-14 99 -69 233q180 -185 289 -258
q179 -119 368 -119h103v48q0 133 -88 265q-55 83 -180 202q26 -22 128 -42q120 -24 187 -24q91 0 173 21q65 17 91 36q25 -18 93 -36q82 -21 171 -21q88 0 188 21q96 20 132 40q-101 -88 -182 -222q-89 -148 -89 -242v-46h2653v1053q0 141 -95 293h-3303q-178 0 -356 -124
q-117 -82 -279 -249q73 186 76 426q2 122 -9 195q-15 106 -67 231q105 -105 137 -135q78 -74 147 -122q170 -120 351 -120h3234q-44 72 -131 155q-23 22 -47 50q55 -18 165 -48q98 -21 228 -21q131 0 223 22q56 16 168 47zM2277 616q0 -30 -47 -30l-150 151q-28 28 -114 89
q-102 72 -173 102v35q106 50 240 159q26 21 47 41l154 146q25 0 34 -9t9 -32l-105 -99q-18 -28 -34 -90q-17 -68 -17 -116q0 -89 38 -199q10 -28 15 -35zM1314 276v48q0 88 -64 198q-53 91 -149 197q-80 -80 -145 -198q-62 -113 -62 -197v-48h420z" />
    <glyph glyph-name="uF54E5" unicode="&#x1226d;&#x12016;" horiz-adv-x="6506" 
d="M6186 1485h-1501q-169 0 -351 -124q-128 -87 -284 -248q85 217 88 426q2 157 -42 300q-16 53 -46 125q95 -95 139 -135q80 -74 150 -122q173 -119 346 -119h1501v-103zM6186 239h-1501q-169 0 -351 -124q-128 -87 -284 -248q85 217 88 426q2 157 -42 300q-16 53 -46 125
q95 -95 139 -135q80 -74 150 -122q173 -119 346 -119h1501v-103zM3989 1436l-158 -166q-39 -66 -60 -186q-20 -113 -20 -175q0 -74 18 -170q23 -123 60 -180l158 -166q0 -33 -9.5 -40t-44.5 -7l-372 367q-43 33 -131.5 96t-149.5 90l-2 31q81 42 154 95l129 93l372 365
q37 0 45 -5q11 -8 11 -42zM3370 55l-71 -71l-162 155q-163 91 -428 145q-105 22 -228 35q-218 24 -371 26q-69 1 -102 1h-71l73 37l-67 72q-90 97 -253 138q-99 25 -247 25h-80q151 55 291 191q93 90 147 189q17 31 23 53q53 18 130 69q102 68 144 111q160 164 177 248
q118 47 247 176q53 53 114 141q47 67 77 133v-35q0 -251 64 -405q31 -74 81 -121l94 -88q8 18 41 68q0 -297 34 -538q51 -361 188 -599zM1613 1237l-87 -93q-136 -145 -216 -325q-43 -96 -43 -194v-625h-102v623q0 164 -138 371q-73 110 -198 243q220 -66 336 -66v132
q0 262 -262 533q-61 63 -89 93q56 -18 169 -48q100 -21 233 -21q145 0 222 17q14 3 173 52q-126 -118 -204 -231q-140 -204 -140 -395v-132q109 0 183 18q70 17 163 48zM984 950l-67 -71l-256 254q-65 64 -206 88q-94 16 -237 16h-110q74 22 157 79q63 43 154 132
q104 101 148 169q53 82 79 161v-136q0 -149 17 -251q23 -139 86 -203zM909 236l-68 -72l-256 254q-63 62 -206 89q-91 17 -236 17h-111q78 18 159 76q57 40 152 133q104 101 148 169q55 85 80 161v-135q0 -156 16 -252q23 -140 86 -203zM2893 1200l-88 92q-72 75 -235 118
q-138 36 -228 36h-31v-51q0 -29 5 -98q9 -130 65 -243q32 -65 84 -118l135 -137l58 59q41 42 114 151q55 82 121 191zM2529 735l-134 123q-59 54 -114 80q-119 56 -268 70q-63 6 -109 6h-47v-21q0 -134 23 -222q42 -160 151 -269l74 -74q256 141 364 248z" />
    <glyph glyph-name="uF5534" unicode="&#x1230b;&#x1201c;" horiz-adv-x="4476" 
d="M4156 1929q-69 -69 -198 -221q-146 -203 -146 -405v-1303h-102v207h-956q-179 0 -357 -124q-114 -79 -278 -249q85 217 88 426q1 98 -23 198q-23 95 -45 95h-518q-177 0 -358 -125q-112 -78 -281 -252q82 211 82 424q0 195 -47 313q47 106 47 310q0 177 -37 304
q-17 57 -45 126q179 -185 295 -261q178 -118 367 -118h507q13 42 36 126q18 80 18 167q0 181 -37 304q-17 55 -45 124q174 -179 293 -257q180 -118 352 -118h854q-54 101 -137 191q-38 39 -113 118q54 -18 164 -48q98 -21 227 -21q145 0 221 17q11 3 172 52zM759 1432
l-170 -164q-68 -112 -68 -359q0 -228 103 -387l133 -135q0 -34 -9 -40.5t-44 -6.5l-363 367q-111 80 -230 149q-42 24 -79 41v27q116 61 246 155q23 16 63 45l363 355q36 0 45.5 -7t9.5 -40zM3710 963v313q0 130 -43 242h-909q-297 0 -527 -279q213 -197 379 -252
q72 -24 154 -24h946zM3710 309v551h-936q-151 0 -304 -87q-106 -61 -239 -183q78 -75 110 -104q64 -56 121 -91q138 -86 292 -86h956zM2205 913q0 151 -17 200q-10 29 -22 58h-527q-148 0 -291 -77q-100 -54 -235 -179q133 -128 215 -179q130 -81 264 -81h578q9 35 24 107
q11 72 11 151z" />
    <glyph glyph-name="uF5288" unicode="&#x12047;&#x1202d;" horiz-adv-x="5612" 
d="M5292 860h-830v-860h-102v860h-391q-163 0 -331 -111q-134 -89 -312 -276q84 176 84 387h-390q-152 0 -327 -122q-134 -94 -291 -265q26 106 52 213q30 127 30 215q0 226 -82 436q248 -234 439 -328q93 -46 177 -46h394q0 170 -86 374q178 -182 309 -267
q166 -107 334 -107h391v311q0 225 -138 426q-40 59 -200 229q54 -17 164 -47q92 -22 227 -22q137 0 221 19q35 8 172 50q-70 -71 -199 -226q-145 -206 -145 -429v-311h830v-103zM2232 860h-926v-860h-103v860h-514q-188 0 -378 -126q-101 -67 -279 -245q79 202 82 422
q1 113 -12 197q-16 103 -70 233q179 -184 289 -259q175 -119 368 -119h514v317q0 186 -140 402q-82 127 -202 247q55 -17 167 -47q95 -22 231 -22q137 0 221 19q35 8 172 50q-219 -235 -303 -438q-43 -104 -43 -213v-315h926v-103z" />
    <glyph glyph-name="uF533C" unicode="&#x120a1;&#x1202d;" horiz-adv-x="5619" 
d="M4710 793h-443v-517h-67v517h-281q-90 0 -214 -77q-100 -62 -198 -165q43 76 52 242h-224q-96 0 -217 -77q-93 -59 -194 -165q22 39 36 112q17 90 17 164q0 73 -17 160q-12 60 -36 115q109 -109 195 -164q122 -78 216 -78h224q-9 155 -52 242q163 -163 313 -220
q58 -22 109 -22h271v187q0 99 -78 230q-71 120 -162 206q25 -20 109 -36q92 -17 168 -17q72 0 159 17q77 15 115 36q-162 -162 -222 -325q-22 -60 -22 -111v-187h443v-67zM5299 1929q-128 -128 -200 -232q-144 -208 -144 -394v-1303h-2060q-265 0 -523 -243
q-69 -65 -134 -130q74 197 86 373h-1671q-138 0 -323 -124q-137 -92 -298 -253q82 209 82 428q0 160 -45 275q23 56 33 108q12 64 12 170q0 121 -12 193q-17 102 -70 231q167 -172 297 -257q177 -116 340 -116h401q12 32 30 97q7 43 7 133q0 139 -29 220q-7 17 -20 54
q51 97 51 277q0 162 -42 298q-18 57 -46 126q93 -95 136 -136q77 -73 148 -122q172 -119 351 -119h799q-46 120 -165 272q-90 115 -149 174q54 -18 163 -48q96 -21 227 -21q145 0 222 17q14 3 173 52q-119 -105 -206 -230q-138 -198 -138 -380v-1133q146 -84 305 -84h1966
v1229q0 125 -87 280q-25 44 -48 79h-1202q-266 0 -524 -243q-69 -65 -134 -130q85 217 88 426q1 107 -15 194q-19 100 -73 232q180 -185 289 -258q179 -119 369 -119h1126q-36 46 -72 81l-29 28l-28 28q55 -18 166 -48q98 -21 229 -21q146 0 220 17q8 2 171 52zM2479 932
v387q-1 20 -8 61h-846q-126 0 -243 -70q-61 -36 -195 -153q186 -171 320 -208q62 -17 145 -17h827zM2479 379v450h-827q-222 0 -461 -221q187 -163 328 -209q62 -20 135 -20h616q-10 34 -32 100q37 -32 110 -100h131zM2326 102q-5 99 -21 174h-653l2 3q-171 0 -309 -105
q-39 -30 -88 -72h1069zM1107 332q0 167 -35 221h-407q-131 0 -256 -69q-95 -52 -213 -156q118 -107 210 -156q133 -70 259 -70h418q24 112 24 230z" />
    <glyph glyph-name="uF5604" unicode="&#x122d9;&#x1202d;" horiz-adv-x="3973" 
d="M3653 860h-830v-860h-102v860h-391q-163 0 -331 -111q-134 -89 -312 -276q84 176 84 387h-389q-168 0 -338 -122q-112 -80 -281 -265q24 107 47 215q27 131 27 215q0 80 -20 209q-22 144 -54 225q78 -76 247 -220q204 -154 370 -154h393q0 175 -86 374q178 -182 309 -267
q166 -107 334 -107h391v311q0 225 -138 426q-40 59 -200 229q54 -18 163 -48q96 -21 226 -21q145 0 222 17q14 3 173 52q-70 -71 -199 -225q-145 -204 -145 -430v-311h830v-103zM919 -287l-70 -69l-252 247q-68 66 -206 92q-91 17 -238 17h-121q146 23 350 231v1067
q0 188 -144 393q-76 108 -206 238q55 -18 168 -48q103 -21 231 -21q144 0 221 17q35 8 82 23q30 9 95 29q-138 -138 -203 -231q-141 -201 -141 -400v-946q58 86 98 195v-146q0 -155 16 -251q23 -140 86 -203z" />
    <glyph glyph-name="uF5606" unicode="&#x122d9;&#x1202f;" horiz-adv-x="7512" 
d="M7192 860h-830v-860h-102v860h-391q-163 0 -331 -111q-134 -89 -312 -276q84 176 84 387h-390q-152 0 -327 -122q-134 -94 -291 -265q26 106 52 213q30 127 30 215q0 226 -82 436q248 -234 439 -328q93 -46 177 -46h394q0 170 -86 374q178 -182 309 -267
q166 -107 334 -107h391v311q0 225 -138 426q-40 59 -200 229q54 -17 164 -47q92 -22 227 -22q137 0 221 19q35 8 172 50q-70 -71 -199 -226q-145 -206 -145 -429v-311h830v-103zM4143 1929q-68 -70 -200 -230q-144 -205 -144 -403v-166q152 5 257 41l85 29
q-70 -69 -199 -221q-143 -199 -143 -412v-567h-103v377h-986q-254 0 -505 -240q-68 -65 -130 -129q65 168 78 369h-578q-186 0 -364 -124q-86 -60 -279 -253q79 202 82 426q2 115 -12 199q-17 106 -70 235q132 -137 204 -197q121 -102 239 -149q88 -35 186 -35h592
q-8 169 -38 269q-14 48 -40 112q99 -99 139 -136q80 -74 150 -123q175 -122 346 -122h986v92q0 205 -137 405q-38 56 -197 226q49 -17 148 -46q91 -23 186 -26v216h-964q-265 0 -523 -243q-69 -65 -134 -130q65 167 78 373h-564q-181 0 -368 -124q-123 -81 -285 -249
q75 191 78 424q2 121 -9 195q-14 100 -69 233q180 -185 289 -258q179 -119 369 -119h559q-5 99 -16 170q-14 86 -62 207q180 -185 289 -258q179 -119 368 -119h950q-37 155 -160 306q-57 57 -166 175q57 -18 170 -48q103 -21 234 -21q146 0 216 17q56 17 167 52zM919 -287
l-70 -69l-252 247q-68 66 -206 92q-91 17 -238 17h-121q146 23 350 231v1067q0 188 -144 393q-76 108 -206 238q55 -18 168 -48q103 -21 231 -21q144 0 221 17q35 8 82 23q30 9 95 29q-138 -138 -203 -231q-141 -201 -141 -400v-946q58 86 98 195v-146q0 -155 16 -251
q23 -140 86 -203z" />
    <glyph glyph-name="uF530D" unicode="&#x1200a;&#x12038;" horiz-adv-x="3827" 
d="M3507 1929q-66 -61 -196 -204q-144 -188 -144 -408v-1317h-102v172h-1292q-254 0 -506 -244q-68 -66 -129 -129q86 218 88 426q2 153 -39 289h-496q-265 0 -523 -243q-69 -65 -134 -130q80 204 80 424q0 112 -16.5 203.5t-42.5 144.5q59 153 59 349q0 122 -12 194
q-17 104 -70 232q92 -92 139 -135q79 -72 150 -122q172 -120 340 -120h526q23 83 29 131q8 64 8 162q0 122 -12 194q-17 101 -70 230q172 -177 290 -259q170 -118 337 -118h1190q-52 87 -128 170q-41 45 -104 108q55 -18 166 -48q98 -21 227 -21q144 0 218 17zM3065 274
v1043q0 96 -55 231h-1233q-170 0 -352 -124q-126 -85 -283 -248q4 11 12 32h-465q-161 0 -311 -93q-102 -64 -248 -204q146 -146 241 -206q142 -89 298 -89h483q-2 3 -14 35q116 -116 136 -135q78 -74 146 -122q170 -120 353 -120h1292zM2840 879h-717q-100 0 -227 -75
q-109 -64 -207 -167q51 117 51 276q0 62 -19 160q-6 33 -17 66l-15 47q157 -157 322 -218q60 -22 112 -22h717v-67z" />
    <glyph glyph-name="uF53D9" unicode="&#x120b7;&#x1203e;" horiz-adv-x="4282" 
d="M3170 518h-412v-137h-68v137h-264q-93 0 -219 -77q-109 -67 -203 -165q49 82 49 279q0 133 -36 172q36 41 36 168q0 128 -36 176q36 63 36 172q0 127 -34 226q-10 28 -19 49q165 -165 312 -221q55 -21 110 -21h246q-49 144 -219 309q25 -21 108 -36q92 -17 168 -17
q116 0 226 34q34 10 49 19q-169 -169 -220 -309h390v-68h-408q-4 -20 -4 -34v-246h412v-68h-412v-274h412v-68zM3962 1929q-70 -69 -198 -222q-142 -204 -142 -427v-1280h-102v174h-2104v-381h-102v381h-420v-381h-102v381h-125q-245 0 -504 -244q-69 -65 -131 -129
q82 211 82 422q0 122 -12 197q-16 103 -70 233q180 -185 289 -258q179 -119 368 -119h103v48q0 133 -88 265q-55 83 -180 202q26 -22 128 -42q120 -24 187 -24q91 0 173 21q65 17 91 36q25 -18 93 -36q82 -21 171 -21q88 0 188 21q96 20 132 40q-101 -88 -182 -222
q-89 -148 -89 -242v-46h2104v1053q0 143 -94 293h-2755q-178 0 -356 -124q-117 -82 -279 -249q78 199 78 428q0 131 -9 193q-14 98 -69 231q105 -105 137 -135q78 -74 147 -122q170 -120 351 -120h2685q-44 72 -131 155q-23 22 -47 50q55 -18 167 -48q100 -21 230 -21
q129 0 221 22q55 16 166 47zM2690 928v233q0 23 -4 47h-262q-131 0 -301 -137q179 -143 289 -143h278zM2690 586v274h-278q-125 0 -295 -135q173 -139 309 -139h264zM1314 276v48q0 88 -64 198q-53 91 -149 197q-80 -80 -145 -198q-62 -113 -62 -197v-48h420z" />
    <glyph glyph-name="uF5609" unicode="&#x122d9;&#x1203e;" horiz-adv-x="3244" 
d="M2924 311h-688v-311h-102v311h-467q-166 0 -348 -124q-132 -89 -287 -250q82 251 82 423q0 93 -22 169q-15 52 -44 110q49 85 61 178q5 40 5 96q0 120 -40 215q-12 29 -22 60q18 39 45 121q17 73 17 161q0 133 -9 195q-14 98 -69 231q109 -109 138 -136q80 -75 150 -122
q178 -120 347 -120h422q-47 130 -156 260q-48 50 -143 151q54 -18 164 -48q98 -21 227 -21q145 0 221 17q11 3 172 52q-48 -47 -141 -147q-108 -128 -160 -264h647v-103h-675q-13 -85 -13 -108v-344h688v-103h-688v-446h688v-103zM919 -287l-70 -69l-252 247q-68 66 -206 92
q-91 17 -238 17h-121q146 23 350 231v1067q0 271 -267 543q-59 60 -83 88q55 -18 168 -48q103 -21 231 -21q144 0 221 17q35 8 82 23q30 9 95 29q-138 -138 -203 -231q-141 -201 -141 -400v-946q58 86 98 195v-146q0 -155 16 -251q23 -140 86 -203zM2134 963v342
q0 41 -15 110h-448q-153 0 -268 -62q-83 -45 -211 -163q124 -119 215 -167q114 -60 260 -60h467zM2134 414v446h-467q-143 0 -259 -59q-91 -46 -216 -162q130 -120 216 -164q120 -61 259 -61h467z" />
    <glyph glyph-name="uF5459" unicode="&#x12215;&#x12041;" horiz-adv-x="6365" 
d="M6045 393l-68 -71l-456 452q-63 62 -206 89q-97 18 -237 18h-110q119 17 274 172l-129 133q-64 66 -205 101q-120 30 -239 30h-135q73 19 168 72q113 63 178 131q174 183 217 317v-135q0 -166 14 -250q24 -142 82 -203l121 -127q138 134 192 297v-135q0 -244 47 -366
q21 -54 56 -89zM3344 1202l-35 -43q-35 -57 -35 -162q0 -122 39 -172l29 -28q0 -43 -37 -43l-72 71q-47 47 -113 85q-91 53 -163 53h-795q-70 0 -203 -82q-100 -62 -164 -119q49 123 49 233q0 61 -19 151q-14 64 -28 93q54 -60 162 -126q136 -83 205 -83h793q72 0 182 71
q60 39 117 93l47 45q41 0 41 -37zM4380 139h-1036v-340h-103v340h-448v-340h-103v340h-450v-340h-103v340h-297q-181 0 -358 -121q-109 -75 -276 -247q80 211 90 368h-629q-152 0 -338 -121q-151 -98 -295 -247q80 205 80 417q0 100 -22 222q-20 110 -42 141q23 37 42 136
q22 115 22 224q0 112 -20 221q-21 113 -44 144q64 105 64 360q0 122 -12 196q-17 103 -70 232q173 -178 294 -260q179 -121 345 -121h623q-7 140 -48 269q-19 60 -40 112q103 -103 139 -136q80 -75 150 -123q177 -122 345 -122h351q-7 140 -48 269q-19 60 -40 112
q112 -112 137 -136q80 -75 149 -123q175 -122 348 -122h349q-7 140 -48 269q-19 60 -40 112q97 -100 137 -138q80 -75 151 -122q182 -121 369 -121h719v-102h-719q-269 0 -523 -239q-69 -65 -134 -130q75 193 86 369h-347q-257 0 -505 -240q-68 -66 -129 -129q75 193 86 369
h-326q-269 0 -523 -239q-69 -65 -134 -130q77 199 88 369h-650q-131 0 -286 -101q-87 -56 -246 -204q144 -139 247 -210q149 -103 285 -103h592v-107h-592q-132 0 -288 -104q-94 -63 -246 -203q222 -214 388 -279q71 -28 146 -28h650q-5 101 -21 172q-22 96 -67 209
q103 -103 138 -136q80 -74 150 -123q175 -122 346 -122h297v14q0 100 -88 244q-76 123 -180 223q23 -19 128 -40t189 -21q50 0 145 22q55 13 136 41q38 -22 107 -41q90 -25 165 -25q59 0 153 23q48 10 128 41q30 -17 109 -39q90 -25 161 -25q77 0 189 22q52 10 141 40
q-102 -88 -185 -221q-91 -145 -91 -246v-12h1036v-103zM3241 242v22q0 80 -69 202q-62 109 -152 204q-83 -83 -148 -190q-79 -132 -79 -226v-12h448zM2690 242v22q0 84 -70.5 201t-154.5 205q-225 -236 -225 -428h450z" />
    <glyph glyph-name="uF5373" unicode="&#x12255;&#x12044;" horiz-adv-x="4794" 
d="M4314 969l-45 -43l-98 96q-69 67 -201 97q-107 24 -252 24q19 5 91 52q76 50 131 105q117 117 151 218q0 -145 21 -245q27 -129 96 -198zM4474 1722h-2081q-243 0 -500 -242q-86 -81 -135 -130q86 220 89 426q1 102 -16 194q-19 100 -73 232q70 -70 139 -136
q252 -241 496 -241h2081v-103zM4314 455l-45 -43l-98 96q-69 67 -201 97q-107 24 -252 24q19 5 91 52q76 50 131 105q119 119 151 215q0 -145 21 -243q28 -129 96 -197zM3350 936l-45 -43l-99 96q-40 39 -89 61q-98 44 -235 55q-63 5 -128 5q17 4 90 52t131 106
q120 120 152 215q0 -231 56 -353q24 -52 60 -88zM3821 1559q-108 -108 -165 -201q-77 -126 -77 -221v-791h-69v418h-586q-96 0 -217 -77q-95 -60 -195 -165q42 74 51 242h-147q-98 0 -221 -75q-105 -64 -203 -167q22 39 36 112q17 90 17 165q0 72 -17 159q-12 60 -36 115
q164 -164 306 -220q56 -22 106 -22h159q-9 157 -51 242q167 -167 303 -220q57 -22 109 -22h588v306q0 100 -75 220q-65 105 -167 202q25 -21 108 -36q98 -18 168 -18q67 0 160 18q77 15 115 36zM4474 0h-2220q-148 0 -322 -126q-111 -81 -272 -247q75 192 78 428
q2 151 -35 275l-219 219h-795q-265 0 -523 -243q-69 -65 -134 -130q82 209 82 424q0 202 -62 309q62 93 62 318q0 172 -37 297q-17 56 -45 125l136 -136q243 -239 497 -239h784l211 205q36 0 45.5 -7t9.5 -40l-139 -144q-68 -115 -99 -289q-9 -50 -9 -88q0 -182 102 -340
l162 -168q150 -155 251 -218q134 -83 304 -83h2187v-102zM1367 651q-60 50 -188 137q-112 76 -174 105l-2 35q108 57 282 184l60 59h-680q-151 0 -283 -79q-78 -47 -225 -183q130 -125 227 -180q138 -78 283 -78h700z" />
    <glyph glyph-name="uF5363" unicode="&#x1219c;&#x1204d;" horiz-adv-x="6630" 
d="M6310 860h-1033q-157 0 -342 -126q-115 -78 -282 -245q85 217 88 426q1 102 -16 195q-19 103 -72 231q170 -176 290 -259q171 -119 334 -119h1033v-103zM4667 965l-68 -72l-256 254q-66 65 -184 88q-73 14 -217 14h-49v-45q0 -165 13 -252q21 -142 81 -202l236 -238
l-68 -72l-256 254q-64 63 -198 89q-93 18 -230 18h-29v-41q0 -157 14 -250q21 -138 83 -201l235 -237l-68 -72l-256 254q-63 63 -205 89q-91 17 -237 17h-110q59 7 154 72q83 57 161 137q116 108 166 212q15 32 20 59q161 50 226 137l-240 240q-62 62 -206 89
q-91 17 -236 17h-111q58 7 163 82q203 144 298 296q53 85 78 161v-136q0 -155 16 -251q23 -140 86 -203l223 -225q94 76 140 192q12 30 12 55q52 4 127.5 56.5t126.5 111.5q103 101 147 169q55 85 80 161v-135q0 -156 16 -252q23 -140 86 -203zM2680 444h-358l157 -315
l-90 -47l-182 362h-735l334 -671l-93 -43l-356 714h-686q-180 0 -358 -122q-86 -59 -279 -252q77 196 80 424q1 113 -13 190q-19 99 -69 227q82 214 82 414q0 128 -11 202q-14 92 -69 226q102 -105 131 -133q76 -74 141 -122q166 -122 332 -122h217q-155 143 -512 258
q223 20 422 111q73 33 182 124q42 38 129 111q42 5 157 34q135 34 208 71q153 77 251 172q43 42 91 98q-106 -302 -106 -475q0 -150 67 -285l109 -219h823v-102h-770l358 -727h416v-103zM1738 1376l-90 180h-2q-76 152 -243 255q-124 76 -318 141q-92 -261 -92 -484
q0 -42 10 -92h735zM2156 547l-365 727h-735l365 -727h735zM1306 547l-367 727h-301q-152 0 -321 -120q-89 -63 -269 -243q166 -171 270 -246q164 -118 318 -118h670z" />
    <glyph glyph-name="uF52C4" unicode="&#x12051;&#x12051;" horiz-adv-x="2560" 
d="M2240 1157q0 -43 -37 -43l-123 123q-39 39 -126 94q-101 64 -165 82v-450h-67v450h-377q-100 0 -216 -75q-96 -62 -196 -167q17 30 35 112.5t18 164.5q0 148 -53 274q99 -99 197 -163q119 -78 215 -78h377v159q0 90 -74 217q-61 105 -166 205q23 -19 109 -37
q76 -16 167 -16q88 0 160 16q81 18 115 37q-165 -165 -222 -314q-22 -58 -22 -108v-159q76 18 191 99q36 25 123 95l96 94q26 0 33.5 -6t7.5 -30l-84 -93q-64 -105 -64 -192q0 -51 27 -127q20 -56 41 -84zM1351 1819l-49 -47l-45 47q-57 60 -148 90q-87 29 -186 37
q-168 -199 -168 -330v-359q55 67 70 113q0 -125 24 -230q26 -114 101 -184l57 -53l-49 -47l-45 47q-72 75 -188 104q-109 27 -240 27q18 4 79 46q72 49 121 98q0 4 2 4v231h-215q-91 0 -223 -75q-122 -69 -215 -167q17 30 35 112.5t18 164.5q0 148 -53 274
q101 -101 210 -164q133 -77 228 -77h215v131q0 83 -74 206t-165 210q23 -19 108 -37q81 -17 168 -17q101 0 189 23q134 96 210 204q34 48 46 85q0 -298 125 -414zM2238 -59q0 -43 -37 -43l-123 122q-38 38 -125 92q-93 58 -164 78v-442h-69l2 442h-379q-103 0 -216 -71
q-98 -62 -196 -164q17 30 35 112.5t18 163.5q0 149 -53 275q165 -165 304 -220q56 -22 108 -22h379v158q0 93 -75 218q-65 109 -167 206q23 -19 108 -37q76 -16 168 -16q88 0 160 16q40 9 115 37q-160 -160 -220 -320q-22 -59 -22 -108v-154q71 17 189 100q42 30 78 59
l44 36l97 94q26 0 33.5 -6t7.5 -31l-84 -92q-64 -105 -64 -193q0 -51 27 -127q20 -56 41 -84zM1349 602l-49 -47l-45 47q-57 60 -148 90q-87 29 -186 37q-166 -197 -166 -330v-358q52 64 68 113q0 -126 24 -231q26 -116 100 -183l58 -53l-49 -47l-45 47q-71 74 -188 103
q-113 28 -240 28q18 4 79 46q75 51 121 97q1 4 4 4v225h-217q-94 0 -223 -71q-123 -68 -215 -164q17 30 35 112.5t18 163.5q0 149 -53 275q103 -103 210 -165q133 -77 228 -77h217v133q0 79 -76 206q-71 118 -165 208q23 -19 108 -37q76 -16 168 -16q105 0 189 22
q134 96 210 204q34 48 46 85q0 -298 125 -414z" />
    <glyph glyph-name="uF53A7" unicode="&#x122c6;&#x12054;" horiz-adv-x="9480" 
d="M9160 1929q-70 -71 -199 -226q-143 -202 -143 -396v-1307h-102v1309q0 191 -141 391q-48 67 -199 229q55 -18 165 -49q92 -22 228 -22q138 0 220 19q8 2 171 52zM8586 711l-45 -43l-98 96q-69 67 -201 97q-107 24 -251 24q17 4 91.5 53t129.5 104q117 117 151 218
q0 -145 21 -245q27 -129 96 -198zM8586 174l-45 -43l-98 96q-70 69 -201 98q-103 23 -251 23q5 1 32 17q18 10 58 35q73 48 131 106q119 119 151 215q0 -228 57 -352q24 -51 60 -88zM6870 688l-45 -43l-98 96q-70 69 -201 98q-103 23 -252 23q17 4 90 52q143 94 231 225
q40 59 52 96q0 -230 56 -352q23 -49 61 -88zM8154 1307q-97 -97 -162 -207q-75 -127 -75 -213v-887h-68v885q0 70 -53 172q-47 90 -119 180q-174 -207 -174 -350v-887h-67v893q0 55 -58 166q-42 80 -119 178q-174 -207 -174 -352v-885h-69v463h-676q-100 0 -220 -75
q-100 -62 -198 -165q38 66 47 240h-319q-95 0 -218 -74q-93 -56 -198 -166q24 72 32 113q17 87 17 164q0 86 -49 274q105 -105 194 -165q117 -79 213 -79h328q-9 169 -47 244q169 -169 308 -222q58 -22 110 -22h676v355q0 102 -70 222q-65 111 -162 204q25 -21 102 -36
q90 -18 162 -18q152 0 211 54q59 -54 209 -54q155 0 209 54q59 -54 207 -54q145 0 270 50zM4634 1815l-135 -132q-82 -135 -82 -284q0 -157 84 -287l131 -135q0 -34 -9 -40.5t-44 -6.5l-193 188q-6 6 -74.5 62.5t-161.5 108.5q-39 22 -106 54h-1018q-161 0 -338 -126
q-116 -82 -282 -254q72 183 75 436q2 120 -9 192q-15 104 -68 232q171 -176 289 -258q172 -119 333 -119h1018q137 61 348 233l187 183q36 0 45.5 -7t9.5 -40zM5445 1929q-70 -71 -200 -225q-144 -202 -144 -428v-1276h-103v383h-1972q-154 0 -335 -127q-97 -68 -285 -256
q77 196 80 432q0 4 -2 98q-2 105 -31 204q-17 57 -45 126q176 -182 283 -254q179 -121 341 -121h1966v791q0 227 -138 425q-57 82 -112 138l-88 90q55 -18 166 -49q92 -22 228 -22q138 0 220 19q8 2 171 52zM2363 1815l-136 -132q-81 -134 -81 -284q0 -157 84 -287l131 -135
q0 -33 -9.5 -40t-44.5 -7l-192 188q-6 6 -73.5 62t-163.5 109q-45 25 -105 54h-1084q-178 0 -365 -120q-137 -88 -292 -248q79 202 82 420q2 114 -12 197q-18 108 -70 235q95 -98 138 -138q79 -74 151 -122q182 -121 368 -121h1084q137 61 348 233l186 183q35 0 44 -6
q12 -9 12 -41zM2363 850l-136 -131q-81 -134 -81 -285q0 -157 84 -287l131 -135q0 -33 -9.5 -40t-44.5 -7l-192 189q-26 21 -75 62q-73 61 -162 112q-45 26 -105 55h-1106q-250 0 -505 -244q-68 -65 -130 -129q82 211 82 426q0 123 -12 195q-17 102 -70 231
q266 -274 446 -344q85 -33 183 -33h1112q145 65 348 230l186 182q36 0 46 -7t10 -40z" />
    <glyph glyph-name="uF5527" unicode="&#x1230b;&#x1206f;" horiz-adv-x="5855" 
d="M5535 1929q-70 -70 -199 -223q-145 -202 -145 -401v-1305h-103v1305q0 222 -138 410q-36 50 -97 111l-103 103q55 -17 166 -47q92 -22 228 -22q138 0 220 19q34 8 171 50zM4945 57l-72 -71l-162 155q-163 91 -428 145q-183 38 -434 54q-91 6 -165 7l-173 1l74 37l-68 72
q-132 140 -381 160q-74 6 -114 6q-14 0 -42 -1t-42 -1q114 57 225 133q67 46 123 118q46 59 90 139q9 17 23 42q38 16 126 70q97 59 148 110q64 64 115 143q23 35 61 105q30 13 108 64q82 54 140 112q93 93 159 211q16 29 31 61q10 -44 13 -125q3 -95 7 -127
q29 -216 126 -307l94 -88q10 24 41 70q0 -501 99 -849q44 -155 122 -290zM3155 1929q-70 -71 -200 -225q-144 -202 -144 -428v-1276h-103v379h-649q-173 0 -355 -123q-110 -74 -278 -248q85 215 88 426q2 106 -15 195q-18 99 -73 231q85 -86 268 -246q178 -133 367 -133h647
v795q0 38 -4 70h-1118q-182 0 -345 -123q-59 -45 -134 -121q-62 -66 -125 -131q79 202 82 426q1 113 -12 194q-17 104 -70 232q172 -177 281 -254q172 -121 323 -121h1100q-40 155 -157 305q-53 58 -158 176q54 -17 162 -47q90 -22 227 -22q135 0 222 19q37 8 173 50z
M759 1432l-170 -164q-68 -112 -68 -359q0 -228 103 -387l133 -135q0 -34 -9 -40.5t-44 -6.5l-363 367q-111 80 -230 149q-42 24 -79 41v27q116 61 246 155q23 16 63 45l363 355q36 0 45.5 -7t9.5 -40zM4468 1202l-88 92q-80 83 -267 125q-131 29 -227 29q2 -16 2 -39v-51
q0 -176 75 -316q31 -57 77 -104l135 -137l57 59q46 48 115 151q26 39 61 95zM4103 737l-133 123q-60 55 -106 80q-110 59 -231 72q-55 6 -101 6q-17 0 -50.5 -1t-50.5 -1v-15q0 -209 76 -363q35 -71 98 -134l74 -74q255 138 365 248z" />
    <glyph glyph-name="uF5523" unicode="&#x1230b;&#x12074;" horiz-adv-x="5193" 
d="M4873 717l-53 -86l-360 227l-1117 -735q-65 -42 -113 -118q-79 -122 -120 -302q-17 -72 -37 -149q-12 71 -28 125q-26 86 -76 163q-16 25 -50 78q-118 189 -270 297q225 -55 375 -55q131 0 215 28q27 9 63 27l1061 703l-524 331q-165 76 -269 89q-49 6 -89 6
q-153 0 -398 -60q172 124 275 270l-97 62q-63 41 -158 59q-77 15 -163 15h-12q-145 0 -385 -60q191 138 292 289q117 175 160 434q81 -381 205 -537q36 -46 152 -132l59 -44q50 91 73 154q34 96 52 213q53 -250 107 -375q82 -191 249 -295l-2 -2l565 -356l351 231l57 -86
l-311 -206zM2797 -113l-68 -71l-256 254q-65 65 -206 91q-91 17 -236 17h-111q64 7 170 84q73 53 172 152v446h-621q-185 0 -372 -124q-107 -71 -287 -251q79 202 82 426q1 114 -12 195q-17 102 -70 231q167 -173 294 -254q187 -120 363 -120h623v354q0 204 -137 394
q-54 75 -112 132l-87 86q55 -17 166 -47q92 -22 227 -22q139 0 221 19q31 7 78 22q29 9 93 28q-67 -63 -201 -217q-146 -198 -146 -395v-785q69 98 95 183v-135q0 -156 16 -252q23 -140 86 -203zM759 1432l-170 -164q-68 -112 -68 -359q0 -228 103 -387l133 -135
q0 -34 -9 -40.5t-44 -6.5l-363 367q-111 80 -230 149q-42 24 -79 41v27q116 61 246 155q23 16 63 45l363 355q36 0 45.5 -7t9.5 -40z" />
    <glyph glyph-name="uF5524" unicode="&#x1230b;&#x12075;" horiz-adv-x="5193" 
d="M4873 715l-53 -86l-360 227l-1117 -735q-64 -42 -112 -113q-60 -89 -100 -221q-4 -17 -58 -236q-22 136 -62 216q-9 19 -92 151q-118 189 -270 297q225 -55 375 -55q131 0 215 28q27 9 63 27l1061 703l-524 331q-62 29 -189 74q-82 20 -169 20q-157 0 -398 -59
q172 124 275 270l-97 62q-57 37 -158 57q-84 17 -163 17q-152 0 -397 -60q191 136 301 312q59 94 90 174q39 99 61 237q54 -256 109 -377q86 -192 248 -293l-3 -4l62 -39q50 91 73 154q34 96 52 213q53 -250 107 -375q82 -191 249 -295l-2 -2l565 -356l351 231l57 -86
l-311 -206zM3618 690l-45 -43l-99 96q-93 90 -304 108q-83 7 -120 7h-30q0 -218 59 -352q22 -51 57 -86l105 -107l-43 -43l-98 97q-68 67 -201 97q-103 23 -252 23q15 4 90 53q132 87 216 204q34 47 54 90l-79 81q-66 68 -201 98q-103 23 -252 23q15 4 90 53q144 94 231 224
q40 59 52 96q0 -230 56 -352q24 -51 60 -88l89 -90q114 67 190 143q120 120 152 215q0 -230 56 -352q24 -52 60 -88zM2797 -115l-68 -71l-256 254q-65 65 -206 91q-91 17 -236 17h-111q66 8 154 70q81 57 157 137q8 6 31 29v448h-625q-173 0 -361 -125q-126 -84 -294 -252
q79 202 82 428q1 112 -12 193q-17 102 -70 231q162 -167 294 -252q187 -120 361 -120h625v358q0 157 -137 363q-88 132 -199 243q54 -17 163 -46q96 -21 226 -21q145 0 222 17q40 9 174 50q-70 -70 -201 -224q-146 -201 -146 -378v-795q69 98 95 183v-135q0 -156 16 -252
q23 -140 86 -203zM759 1432l-170 -164q-68 -112 -68 -359q0 -228 103 -387l133 -135q0 -34 -9 -40.5t-44 -6.5l-363 367q-111 80 -230 149q-42 24 -79 41v27q116 61 246 155q23 16 63 45l363 355q36 0 45.5 -7t9.5 -40z" />
    <glyph glyph-name="uF532A" unicode="&#x12309;&#x12079;" horiz-adv-x="4206" 
d="M3886 1929q-75 -75 -107 -111q-55 -61 -96 -123q-141 -213 -141 -419v-1276h-102v1276q0 209 -140 418q-79 118 -204 235q55 -18 166 -48q98 -21 229 -21q143 0 220 17q21 5 175 52zM3305 207h-863v-207h-102v207h-536q-179 0 -357 -124q-114 -79 -278 -249
q85 217 88 426q1 87 -28 196q-24 90 -48 95h-524q-163 0 -343 -124q-117 -81 -282 -251q82 209 82 424q0 235 -47 313q47 128 47 312q0 121 -12 195q-17 104 -70 233q179 -185 295 -261q178 -118 367 -118h507q13 42 36 126q18 80 18 167q0 181 -37 304q-17 55 -45 124
q177 -182 287 -257q174 -118 348 -118h1497v-102h-1497q-297 0 -527 -279q145 -134 236 -188q148 -88 291 -88h499q-50 142 -156 273q-43 53 -84 94l-65 65q51 -17 156 -46q98 -22 237 -22q143 0 221 16q6 1 171 52q-51 -50 -148 -155q-111 -134 -160 -277h826v-103h-852
q-11 -51 -11 -119v-432h863v-102zM2340 309v432q0 49 -10 119h-506q-151 0 -304 -87q-106 -61 -239 -183q78 -75 110 -104q64 -56 121 -91q138 -86 292 -86h536zM1255 913q0 151 -17 200q-10 29 -22 58h-527q-148 0 -291 -77q-100 -54 -235 -179q131 -126 220 -180
q134 -82 270 -82h553q26 41 38 98q11 53 11 162z" />
    <glyph glyph-name="uF5567" unicode="&#x12146;&#x1207e;" horiz-adv-x="7446" 
d="M7126 1929q-68 -66 -198 -219q-146 -203 -146 -407v-1303h-102v1276q0 181 -88 338q-57 103 -168 225q-177 -177 -237 -376q-25 -83 -25 -183v-1280h-103v1276q0 178 -93 343q-58 103 -169 220q-174 -193 -230 -373q-26 -83 -26 -170v-1296h-102v1298q0 238 -175 444
q-44 52 -85 95q-258 -258 -258 -537v-1300h-103v174h-932q-165 0 -343 -126q-108 -76 -273 -247q86 218 88 426q2 162 -35 291h-528q-145 0 -335 -124q-130 -85 -298 -253q82 209 82 426q0 103 -20 205q-7 29 -21 84l-1 4h-274q-265 0 -523 -243q-69 -65 -134 -130
q85 217 88 426q1 107 -15 195q-18 99 -73 231q180 -185 289 -258q177 -118 368 -118h273l2 7q41 144 41 294q0 122 -12 194q-17 104 -70 232q85 -83 266 -239q187 -140 363 -140h522q45 162 45 293q0 112 -15 192q-19 100 -73 232q92 -94 137 -136q78 -74 149 -122
q169 -115 347 -115h794q-61 103 -122 168l-99 106q55 -18 166 -48q98 -21 230 -21q131 0 208 25q52 17 101 44q112 -69 309 -69q133 0 215 24q42 12 94 45q33 -24 98 -44q80 -25 214 -25q146 0 256 42q37 14 57 27q94 -69 307 -69q145 0 222 17q14 3 173 52zM1480 1929
q-70 -69 -199 -221q-143 -199 -143 -408v-1300h-102v1300q0 207 -143 407q-20 27 -202 222q55 -18 167 -48q100 -21 231 -21q139 0 216 17q21 5 175 52zM753 391q0 -34 -9 -40.5t-44 -6.5l-381 369q-158 123 -287 182v31q128 68 285 182l381 373q37 0 46 -6.5t9 -40.5
l-135 -134q-105 -173 -105 -391q0 -215 109 -383zM4818 276v1020q0 121 -55 256h-860q-166 0 -330 -107q-127 -83 -262 -237h-520q-173 0 -312 -95q-31 -21 -217 -200q292 -292 533 -292h520q78 -89 118 -129q68 -68 132 -113q148 -103 321 -103h932z" />
    <glyph glyph-name="uF537B" unicode="&#x12255;&#x1207e;" horiz-adv-x="5368" 
d="M5048 1722h-2632q-192 0 -372 -121q-106 -71 -286 -251q86 220 89 426q1 102 -16 194q-19 100 -73 232q70 -70 139 -136q252 -241 496 -241h2655v-103zM4824 1548q-157 -157 -220 -319q-21 -54 -21 -101v-780h-68v787q0 108 -135 288q-141 -180 -141 -295v-780h-68v787
q0 105 -137 288q-139 -185 -139 -286v-789h-68v787q0 109 -139 288q-142 -181 -142 -295v-780h-67v133h-436q-82 0 -210 -74q-122 -71 -212 -165q51 117 51 276q0 83 -23 170h-215q-103 0 -227 -73q-115 -68 -207 -164q49 112 49 278q0 63 -10 101q-1 2 -25 51q9 12 25 49
q10 40 10 104q0 62 -19 160q-6 33 -17 66l-15 47q157 -157 323 -218q60 -22 111 -22h221q21 100 21 174q0 57 -20 160q-7 39 -16 65l-15 47q101 -101 203 -162q128 -77 223 -77h389q-64 132 -201 274q121 -51 277 -51q119 0 174 35q64 -35 174 -35q118 0 170 35
q70 -35 174 -35q81 0 114.5 10t57.5 25q52 -35 172 -35q146 0 274 51zM5048 0h-2794q-148 0 -322 -126q-111 -81 -272 -247q75 192 78 428q2 151 -35 275l-219 219h-795q-265 0 -523 -243q-69 -65 -134 -130q82 209 82 424q0 202 -62 309q62 93 62 316q0 120 -12 192
q-17 104 -70 232l136 -136q243 -239 497 -239h784l211 205q36 0 45.5 -7t9.5 -40l-139 -144q-68 -115 -99 -289q-9 -50 -9 -88q0 -182 102 -340l162 -168q150 -155 251 -218q134 -83 304 -83h2761v-102zM3479 549v577q0 25 -15 80h-419q-86 0 -193 -60q-100 -56 -184 -136
v-11h-236q-125 0 -293 -120q167 -123 285 -123h248v-15q103 -89 187 -133q111 -59 196 -59h424zM1367 651q-60 50 -188 137q-112 76 -174 105l-2 35q108 57 282 184l60 59h-680q-151 0 -283 -79q-78 -47 -225 -183q130 -125 227 -180q138 -78 283 -78h700z" />
    <glyph glyph-name="uF560A" unicode="&#x122d9;&#x12088;" horiz-adv-x="7088" 
d="M6068 451h-186l67 -134l-61 -41l-88 175h-365l139 -275l-61 -43l-160 318h-481q-85 0 -216 -78q-124 -74 -208 -162q22 39 36 112q17 90 17 164q0 131 -53 222q51 77 51 221q0 124 -35 226q-12 33 -18 48q161 -161 310 -220q53 -21 102 -21h233q-109 123 -366 186
q95 8 241 108q45 30 124 100l32 38q99 8 194 73q70 47 99 71q59 46 84 85q-29 -106 -29 -209q0 -63 10 -120q12 -67 33 -109l113 -223h442v-70h-410l191 -375h219v-67zM6768 1929q-211 -227 -299 -439q-43 -103 -43 -206v-1284h-3461q-265 0 -523 -243q-69 -65 -134 -130
q86 218 88 426q2 139 -29 258h-700q-166 0 -348 -124q-132 -89 -287 -250q82 251 82 423q0 147 -66 279q49 84 61 180q5 40 5 96q0 95 -20 159q-15 38 -42 114q18 39 46 120q16 62 16 162q0 133 -9 195q-14 98 -69 231q109 -109 138 -136q80 -75 150 -122q178 -120 347 -120
h872q-47 132 -155 260q-48 50 -144 151q54 -18 164 -48q98 -21 228 -21q168 0 344 69q56 -30 124 -47q90 -22 226 -22q130 0 219 21q47 11 121 48q59 -30 121 -45q96 -24 227 -24q137 0 221 19q11 3 172 52q-70 -73 -199 -230q-145 -206 -145 -423v-1176h2257v1182
q0 209 -133 406h-1217q-250 0 -500 -243q-67 -65 -132 -130q85 217 88 426q2 157 -42 300q-18 57 -46 126q109 -109 136 -135q79 -74 147 -122q170 -120 351 -120h1137q-47 57 -127 137q55 -18 166 -48q98 -21 227 -21q144 0 218 17q8 2 171 52zM919 -287l-70 -69l-252 247
q-68 66 -206 92q-91 17 -238 17h-121q146 23 350 231v1067q0 271 -267 543q-59 60 -83 88q55 -18 168 -48q103 -21 231 -21q144 0 221 17q35 8 82 23q30 9 95 29q-138 -138 -203 -231q-141 -201 -141 -400v-946q58 86 98 195v-146q0 -155 16 -251q23 -140 86 -203zM5544 963
l-101 196q-87 110 -286 176q-19 -93 -19 -178q0 -46 5 -86q6 -48 20 -76l16 -32h365zM5767 518l-190 375h-365l190 -375h365zM5318 518l-188 375h-260q-168 0 -367 -184q96 -86 182 -132q111 -59 187 -59h446zM3965 102v1201q0 177 -110 348q-68 106 -185 223
q-128 -128 -187 -226q-106 -176 -106 -372v-1174h588zM3275 102v1174q0 195 -110 371q-55 88 -187 227q-106 -117 -185 -250q-106 -178 -106 -317v-1139q132 -66 278 -66h310zM2584 963v342q0 46 -14 110h-899q-153 0 -268 -62q-83 -45 -211 -163q124 -119 215 -167
q114 -60 260 -60h917zM2584 229v82h-104q46 -44 104 -82zM2584 414v446h-917q-143 0 -259 -59q-91 -46 -216 -162q130 -120 216 -164q120 -61 259 -61h668q-9 21 -27 65q21 -22 63 -65h213z" />
    <glyph glyph-name="uF5265" unicode="&#x1227d;&#x1208a;" horiz-adv-x="5269" 
d="M4949 1174q-129 -129 -202 -239q-142 -214 -142 -415v-520h-102v520q0 200 -138 410q-64 97 -204 237q52 -17 156 -46q82 -19 186 -19v201q0 165 -109 341q-50 81 -188 226q-190 -190 -260 -382q-31 -85 -31 -183v-1305h-103v449h-747q-160 0 -343 -125
q-114 -78 -290 -254q82 209 82 432q0 192 -82 409q82 231 82 416q0 127 -12 199q-17 99 -70 229q176 -181 286 -259q170 -120 347 -120h739q-28 187 -152 356q-31 42 -87 100q-73 77 -91 97q53 -18 161 -48q96 -21 224 -21q232 0 349 69q110 -69 344 -69q130 0 227 22
q27 6 170 47q-126 -118 -204 -231q-140 -204 -140 -393v-203q102 0 178 20q47 12 166 52zM2234 860h-770l532 -704l-88 -62l-578 766h-653q-173 0 -358 -123q-111 -74 -287 -250q79 202 82 424q1 113 -12 196q-17 103 -70 232q92 -95 136 -136q79 -74 149 -122
q172 -118 364 -118h574l-90 118q-92 121 -304 192q-167 56 -380 81q431 111 661 520q-16 -118 -16 -295q0 -144 15 -214q25 -116 101 -214l146 -188h846v-103zM3812 551v723h-747q-153 0 -332 -120q-117 -79 -276 -243q164 -169 280 -246q172 -114 328 -114h747z" />
    <glyph glyph-name="uF5568" unicode="&#x12146;&#x1208d;" horiz-adv-x="6083" 
d="M5763 1929q-70 -71 -199 -225q-145 -204 -145 -428v-1276h-102v1274q0 252 -175 466q-44 54 -85 97q-172 -180 -233 -381q-25 -82 -25 -182v-1274h-103v1276q0 170 -92 337q-54 97 -172 222q-165 -165 -227 -377q-25 -85 -25 -182v-1276h-102v1276q0 256 -178 465
q-45 53 -86 96q-166 -166 -232 -379q-27 -87 -27 -184v-1274h-102v449h-582q-265 0 -523 -243q-69 -65 -134 -130q80 204 80 424q0 168 -39 292q-11 34 -23 68h-304q-265 0 -523 -243q-69 -65 -134 -130q85 217 88 426q1 107 -15 195q-18 99 -73 231q180 -185 289 -258
q177 -118 368 -118h301q65 196 65 362q0 127 -12 199q-17 99 -70 229q105 -105 137 -135q79 -74 148 -122q172 -120 354 -120h594q-28 184 -159 356q-61 64 -181 197q55 -18 168 -48q103 -21 233 -21q136 0 215 21q58 15 95 48q66 -49 183 -63q51 -6 130 -6q136 0 211 22
q49 14 98 47q48 -32 97 -47q73 -22 214 -22q130 0 209 21q48 13 101 48q43 -33 91 -47q73 -22 218 -22q143 0 220 17q21 5 175 52zM1480 1929q-70 -69 -199 -221q-143 -199 -143 -408v-1300h-102v1300q0 207 -143 407q-20 27 -202 222q55 -18 167 -48q100 -21 231 -21
q139 0 216 17q21 5 175 52zM753 391q0 -34 -9 -40.5t-44 -6.5l-381 369q-158 123 -287 182v31q128 68 285 182l381 373q37 0 46 -6.5t9 -40.5l-135 -134q-105 -173 -105 -391q0 -215 109 -383zM3453 551v723h-602q-250 0 -487 -233q-67 -66 -123 -128q120 -132 189 -191
q111 -95 228 -139q85 -32 183 -32h612z" />
    <glyph glyph-name="uF5522" unicode="&#x1230b;&#x12098;" horiz-adv-x="6817" 
d="M6497 1513q-70 -71 -199 -225q-145 -204 -145 -430v-858h-102v858q0 166 -79 325q-65 131 -172 240q-58 59 -87 90q55 -17 166 -48q88 -23 227 -23q138 0 220 19q8 2 171 52zM5897 -281l-74 -69l-233 239q-88 73 -251 97q-97 14 -263 14h-41q55 0 147 67q44 32 82 67
q27 24 76 75q20 19 29 35q13 22 26 35v1021q0 190 -106 359q-63 100 -184 221q-124 -124 -186 -222q-109 -172 -109 -349v-897q42 70 65 137v-107q0 -135 19 -259q24 -158 73 -224l242 -244l-74 -69l-235 241q-48 50 -151 78q-90 25 -181 35h-2949q-254 0 -506 -244
q-68 -66 -129 -129q77 196 80 428q1 108 -11 193q-14 98 -69 231q170 -180 275 -255q173 -122 360 -122h2896q43 30 131 117q19 18 61 60v376h-483v-309h-102v309h-381v-309h-103v309h-383v-309h-102v309h-934q-194 0 -372 -125q-112 -79 -273 -256q73 185 76 435
q2 178 -33 297q-17 56 -45 127q157 -177 275 -259q167 -116 362 -116h944q0 92 -91 230q-81 123 -177 214q26 -22 132 -42q110 -21 191 -21q147 0 240 65q81 -65 243 -65q155 0 238 61q75 -61 244 -61q125 0 273 44q39 12 56 21q-167 -144 -251 -338q-27 -62 -27 -108h483
v516q0 23 -4 35h-1716q-182 0 -354 -121q-102 -72 -271 -252q80 212 82 373q3 270 -82 479q83 -90 126 -131q72 -70 138 -117q182 -129 361 -129h1704q-35 172 -156 331q-17 23 -168 185q54 -17 164 -46q98 -21 227 -21q261 0 345 69q84 -69 346 -69q137 0 221 19
q35 8 172 50q-70 -68 -199 -218q-145 -199 -145 -408v-891q39 61 67 139v-119q0 -158 14 -258q22 -158 79 -215zM759 1432l-170 -164q-68 -112 -68 -359q0 -228 103 -387l133 -135q0 -34 -9 -40.5t-44 -6.5l-363 367q-111 80 -230 149q-42 24 -79 41v27q116 61 246 155
q23 16 63 45l363 355q36 0 45.5 -7t9.5 -40zM4122 758q0 76 -60 182q-47 83 -131 182q-118 -139 -171 -279q-17 -45 -19 -85h381zM3638 758q0 70 -58 172q-23 41 -60 90q-21 30 -68 86l-6 6q-45 -56 -128 -175q-63 -105 -63 -179h383z" />
    <glyph glyph-name="uF5569" unicode="&#x12146;&#x1209f;" horiz-adv-x="4453" 
d="M4133 1237l-87 -93q-136 -145 -216 -325q-43 -96 -43 -194v-625h-102v623q0 164 -138 371q-73 110 -198 243q220 -66 336 -66v132q0 262 -262 533q-61 63 -89 93q55 -18 168 -48q103 -21 232 -21q147 0 223 17q19 4 174 52q-126 -118 -204 -231q-140 -204 -140 -395v-132
q109 0 183 18q70 17 163 48zM3504 950l-67 -71l-256 254q-65 64 -206 88q-94 16 -237 16h-110q74 22 155 81q99 73 156 130q71 72 144 173q58 81 83 157v-136q0 -149 17 -251q23 -139 86 -203zM3429 236l-68 -72l-256 254q-63 62 -206 89q-91 17 -236 17h-111
q164 46 330 225.5t209 313.5v-135q0 -156 16 -252q23 -140 86 -203zM2787 860h-859q-265 0 -523 -243q-69 -65 -134 -130q85 217 88 426q1 107 -15 195q-18 99 -73 231q180 -185 289 -258q177 -118 368 -118h859v-103zM1480 1929q-70 -69 -199 -221q-143 -199 -143 -408
v-1300h-102v1300q0 207 -143 407q-20 27 -202 222q55 -18 167 -48q100 -21 231 -21q139 0 216 17q21 5 175 52zM753 391q0 -34 -9 -40.5t-44 -6.5l-381 369q-158 123 -287 182v31q128 68 285 182l381 373q37 0 46 -6.5t9 -40.5l-135 -134q-105 -173 -105 -391
q0 -215 109 -383z" />
    <glyph glyph-name="vF5294" unicode="&#x12246;&#x1209f;" horiz-adv-x="4863" 
d="M4543 1237l-87 -93q-136 -145 -216 -325q-43 -96 -43 -194v-625h-102v623q0 164 -138 371q-73 110 -198 243q220 -66 336 -66v132q0 262 -262 533q-61 63 -89 93q55 -18 168 -48q103 -21 232 -21q147 0 223 17q19 4 174 52q-126 -118 -204 -231q-140 -204 -140 -395v-132
q109 0 183 18q70 17 163 48zM3914 950l-67 -71l-256 254q-65 64 -206 88q-94 16 -237 16h-110q74 22 155 81q99 73 156 130q71 72 144 173q58 81 83 157v-136q0 -149 17 -251q23 -139 86 -203zM3839 236l-68 -72l-256 254q-63 62 -206 89q-91 17 -236 17h-111
q164 46 330 225.5t209 313.5v-135q0 -156 16 -252q23 -140 86 -203zM2995 1929q-200 -216 -298 -427q-44 -95 -44 -181v-1321h-102v1319q0 149 -143 358q-84 123 -205 252q56 -17 169 -47q95 -22 232 -22q146 0 220 17q8 2 171 52zM2109 410q0 -33 -10 -40.5t-44 -7.5
l-360 359q-114 88 -233 137h-15v-858h-102v860h-680q-253 0 -503 -243q-69 -67 -130 -130q79 202 82 424q1 113 -12 196q-17 103 -70 232q125 -137 200 -200q118 -100 241 -145q85 -31 192 -31h680v360q0 238 -249 510q-61 67 -87 96q54 -17 164 -47q92 -22 227 -22
q145 0 221 17q11 3 172 52q-70 -71 -200 -224q-146 -201 -146 -384v-358h15q103 49 177 102q17 12 58 43l356 348q36 0 46 -7t10 -40l-135 -131q-38 -64 -69 -187q-28 -110 -28 -178q0 -66 28 -178q31 -126 73 -190z" />
    <glyph glyph-name="uF53C0" unicode="&#x1224c;&#x1209f;" horiz-adv-x="3799" 
d="M3479 981q-208 -208 -302 -435q-42 -101 -42 -202v-344h-103v344q0 175 -140 389q-96 147 -204 248q50 -16 152 -44q96 -23 192 -26v389q0 185 -140 391q-72 106 -204 238q55 -18 166 -48q98 -21 230 -21q143 0 220 17q21 5 175 52q-130 -130 -203 -237
q-141 -206 -141 -392v-389q131 5 257 42q28 8 87 28zM2889 1061l-68 -72l-245 246q-62 62 -206 89q-91 17 -237 17h-110q58 4 153 70q80 56 158 139q179 191 227 330v-135q0 -150 17 -252q23 -139 86 -203zM2887 98l-68 -71l-245 245q-37 37 -92 58q-104 39 -236 46
q-60 3 -115 3h-110q58 4 165 79q219 155 305 307q40 71 68 153v-136q0 -244 47 -366q19 -51 56 -88zM1994 1341h-1341q-157 0 -336 -124q-125 -86 -285 -252q82 236 82 428q0 176 -82 422q156 -161 289 -252q174 -119 329 -119h1344v-103zM1994 379h-346v-344h-103v344h-518
v-344h-102v344h-275q-160 0 -339 -127q-100 -71 -279 -250q82 236 82 426q0 178 -82 424q258 -266 442 -338q85 -33 176 -33h275v119q0 97 -90 241q-77 124 -178 220q23 -19 128 -40q110 -22 189 -22q60 0 177 30q43 11 136 42q40 -15 133 -41q111 -31 175 -31q76 0 188 22
q52 10 141 40q-102 -88 -185 -221q-91 -145 -91 -240v-119h346v-102zM1545 481v119q0 95 -85 226q-72 111 -171 210q-166 -158 -238 -340q-24 -61 -24 -106v-109h518z" />
    <glyph glyph-name="vF556B" unicode="&#x12146;&#x120a0;" horiz-adv-x="6398" 
d="M6078 1929q-129 -129 -203 -236q-141 -204 -141 -393v-1300h-2528q-153 0 -324 -125q-109 -80 -276 -252q78 225 80 430q2 175 -80 420q158 -163 270 -244v1071q0 167 -140 381q-83 127 -204 248q55 -18 166 -48q98 -21 227 -21q142 0 224 19q51 12 133 50
q39 -90 213.5 -217t279.5 -127h1089q-45 96 -143 210q-41 44 -124 134q55 -18 168 -48q103 -21 232 -21q126 0 208 19q59 14 132 50q76 -38 127 -50q80 -19 219 -19q207 0 395 69zM2767 860h-839q-265 0 -523 -243q-69 -65 -134 -130q85 217 88 426q1 107 -15 195
q-18 99 -73 231q180 -185 289 -258q177 -118 368 -118h839v-103zM1480 1929q-70 -69 -199 -221q-143 -199 -143 -408v-1300h-102v1300q0 207 -143 407q-20 27 -202 222q55 -18 167 -48q100 -21 231 -21q139 0 216 17q21 5 175 52zM753 391q0 -34 -9 -40.5t-44 -6.5l-381 369
q-158 123 -287 182v31q128 68 285 182l381 373q37 0 46 -6.5t9 -40.5l-135 -134q-105 -173 -105 -391q0 -215 109 -383zM5632 102v1174q0 180 -107 360q-73 123 -188 238q-128 -142 -187 -238q-108 -177 -108 -331v-1203h590zM4939 999v301q0 92 -32 183h-1111
q-88 0 -220 -75q-116 -66 -217 -167q152 -166 321 -222q60 -20 116 -20h1143zM4939 414v483h-1143q-99 0 -226 -80q-84 -53 -211 -164q195 -173 330 -220q54 -19 109 -19h1141zM4939 102v209h-1125q-107 0 -222 -63q-89 -49 -196 -146h1543zM3327 362q0 206 -72 293
q72 89 72 308q0 75 -22 163q-17 69 -48 115q25 34 47 118q23 90 23 175q0 128 -35 226q-14 39 -39 91q-60 -70 -175 -227q-100 -161 -100 -324v-1134q118 -64 246 -64h68q15 59 33 180q2 33 2 80z" />
    <glyph glyph-name="uF561F" unicode="&#x122a9;&#x120a0;" horiz-adv-x="5005" 
d="M4685 1929l-86 -92q-137 -147 -215 -328q-43 -100 -43 -204v-1305h-1876q-153 0 -324 -125q-109 -80 -276 -252q78 225 80 430q2 175 -80 420q158 -163 270 -244v631h-858q-164 0 -339 -124q-89 -63 -279 -253q78 225 80 430q2 175 -80 420q169 -174 281 -252
q170 -118 337 -118h858v337q0 167 -140 381q-83 127 -204 248q55 -18 166 -48q98 -21 227 -21q142 0 224 19q51 12 133 50q39 -90 213.5 -217t279.5 -127h1129q-45 96 -143 210q-41 44 -124 134q55 -18 168 -48q103 -21 232 -21q142 0 216 17q16 4 173 52zM1603 1608
l-68 -72l-256 254q-63 62 -206 89q-91 17 -236 17h-41q-204 -204 -278 -405q-33 -90 -33 -193v-946q58 86 98 195v-146q0 -155 16 -251q23 -140 86 -203l234 -234l-70 -69l-252 247q-68 66 -206 92q-91 17 -238 17h-121q146 23 350 231v1067q0 280 -255 539l-89 90
q55 -17 166 -46q98 -21 229 -21q202 0 340 69q102 21 265 176q169 161 227 330v-135q0 -156 16 -252q23 -140 86 -203zM4238 999v301q0 92 -32 183h-1151q-88 0 -220 -75q-116 -66 -217 -167q152 -166 321 -222q60 -20 116 -20h1183zM4238 414v483h-1183q-99 0 -226 -80
q-84 -53 -211 -164q195 -173 330 -220q54 -19 109 -19h1181zM4238 102v209h-1165q-107 0 -222 -63q-89 -49 -196 -146h1583zM2586 362q0 206 -72 293q72 89 72 308q0 75 -22 163q-17 69 -48 115q25 34 47 118q23 90 23 175q0 128 -35 226q-14 39 -39 91q-60 -70 -175 -227
q-100 -161 -100 -324v-1134q118 -64 246 -64h68q15 59 33 180q2 33 2 80z" />
    <glyph glyph-name="uF526D" unicode="&#x12364;&#x120a0;" horiz-adv-x="7350" 
d="M7030 1929l-86 -92q-138 -147 -215 -328q-43 -100 -43 -204v-1305h-1876q-153 0 -324 -125q-109 -80 -276 -252q78 225 80 430q2 175 -80 420q158 -163 270 -244v1071q0 167 -140 381q-83 127 -204 248q55 -18 166 -48q98 -21 227 -21q142 0 224 19q51 12 133 50
q39 -90 213.5 -217t279.5 -127h1129q-45 96 -143 210q-41 44 -124 134q55 -18 168 -48q103 -21 232 -21q142 0 216 17q16 4 173 52zM3690 1501l-45 -45l-129 121q-20 19 -111 33q-76 12 -168 12q0 -138 29 -225q11 -34 22 -45l125 -125l-47 -47l-125 125q-21 17 -111 29
q-77 9 -169 9q0 -137 28 -221q10 -29 23 -47l125 -125l-45 -45l-129 121q-22 20 -126 35q-86 12 -184 12q40 9 93 53q60 50 92 82q43 43 89 127q11 19 13 31q73 17 148 92l-109 109q-11 11 -48 20q-95 23 -263 23q36 8 90 53q32 26 92 82q57 59 71 78q35 44 50 92
q0 -143 32 -248q12 -38 25 -55l105 -105q20 20 52 67t32 71q27 4 86 43q50 34 86 71q53 56 71 78q36 47 50 92q0 -144 30 -249q10 -35 25 -54zM4048 592l-49 -45l-125 125q-23 23 -112 34q-77 9 -169 9q0 -133 28 -226q10 -33 22 -45l129 -129l-45 -47l-129 129
q-22 18 -112 30q-77 9 -169 9q0 -81 12 -153q14 -81 39 -115l119 -119l-49 -49l-119 119q-11 11 -48 20q-111 27 -261 27q39 9 92 53q60 50 92 82q43 43 89 127q12 22 14 31q71 16 147 92l-109 108q-22 22 -126 34q-85 9 -185 9q34 8 90 54q32 26 92 82q61 64 72 77
q33 42 49 93q0 -86 14 -170q17 -101 44 -136l104 -104q22 22 53 69.5t31 69.5q26 4 86 46q45 32 86 75q36 37 71 74q35 42 50 90q9 -153 37 -254q10 -38 24 -55zM2553 1171q-122 -131 -199 -247q-145 -218 -145 -367v-557h-102v553q0 157 -110 328q-72 112 -191 225
q-67 -71 -98 -106q-51 -60 -86 -115q-105 -166 -105 -328v-557h-103v567q0 36 -16 97q-11 42 -29 94h-698q-173 0 -355 -123q-105 -71 -284 -250q79 202 82 428q1 112 -12 193q-17 102 -70 231q92 -92 139 -135q79 -73 150 -122q172 -120 350 -120h645q-50 87 -133 188
q-20 24 -107 121q49 -17 149 -46q89 -22 189 -25v225q0 236 -253 512q-61 66 -85 94q55 -17 165 -47q95 -22 231 -22q244 0 338 69q39 -25 133 -45q110 -24 219 -24q138 0 220 19q34 8 171 50q-124 -124 -201 -238q-143 -212 -143 -393v-200q143 0 257 43q22 8 87 30z
M1046 1026l-70 -63l-250 243q-56 54 -201 85q-113 24 -243 24h-113q63 8 167 82q50 36 92 71q109 92 210 246q47 72 72 148v-148q0 -122 31 -264q33 -152 71 -190zM6583 999v301q0 92 -32 183h-1151q-88 0 -220 -75q-116 -66 -217 -167q152 -166 321 -222q60 -20 116 -20
h1183zM6583 414v483h-1183q-99 0 -226 -80q-84 -53 -211 -164q195 -173 330 -220q54 -19 109 -19h1181zM6583 102v209h-1165q-107 0 -222 -63q-89 -49 -196 -146h1583zM4931 362q0 206 -72 293q72 89 72 308q0 75 -22 163q-17 69 -48 115q25 34 47 118q23 90 23 175
q0 128 -35 226q-14 39 -39 91q-60 -70 -175 -227q-100 -161 -100 -324v-1134q118 -64 246 -64h68q15 59 33 180q2 33 2 80zM2107 1098v196q0 248 -202 474q-58 64 -95 100q-189 -148 -265 -378q-28 -85 -28 -187v-205q196 0 289 73q33 -19 124 -45q98 -28 177 -28z" />
    <glyph glyph-name="uF5547" unicode="&#x1230b;&#x120b5;" horiz-adv-x="5017" 
d="M4697 1059l-67 -72l-256 254q-65 64 -206 88q-100 17 -237 17h-112q63 8 153 71q83 58 162 137q169 169 225 332v-135q0 -150 17 -252q23 -140 86 -203zM4697 168l-67 -72l-256 254q-38 38 -92 58q-104 39 -236 46q-60 3 -115 3h-110q59 7 152 71q79 54 161 136
q170 170 225 331v-133q0 -246 47 -368q20 -51 56 -88zM4011 1929q-136 -136 -201 -230q-143 -207 -143 -401v-1298h-102v1276q0 194 -107 369q-50 82 -186 225q-127 -127 -187 -225q-108 -177 -108 -369v-1276h-102v1276q0 191 -109 369q-50 82 -188 227
q-121 -121 -183 -218q-106 -166 -106 -354v-1300h-103v449h-723q-265 0 -523 -243q-69 -65 -134 -130q80 204 80 426q0 166 -39 290q-15 48 -43 121q82 223 82 412q0 127 -12 199q-17 99 -70 229q105 -105 137 -135q79 -74 148 -122q172 -120 354 -120h735q-28 184 -159 356
q-61 64 -181 197q55 -18 168 -48q103 -21 234 -21q132 0 221 21q35 8 121 48q34 -18 105 -47q73 -22 239 -22q131 0 222 21q64 15 126 48q60 -33 116 -47q86 -22 228 -22q143 0 219 17q19 4 174 52zM759 1432l-170 -164q-68 -112 -68 -359q0 -228 103 -387l133 -135
q0 -34 -9 -40.5t-44 -6.5l-363 367q-111 80 -230 149q-42 24 -79 41v27q116 61 246 155q23 16 63 45l363 355q36 0 45.5 -7t9.5 -40zM2186 551v723h-743q-250 0 -487 -233q-67 -66 -123 -128q120 -132 189 -191q111 -95 228 -139q85 -32 183 -32h753z" />
    <glyph glyph-name="uF5332" unicode="&#x12290;&#x120f5;" horiz-adv-x="6795" 
d="M6475 842l-78 -68l-239 240q-35 35 -92 59q-101 42 -237 51q-61 4 -116 4h-110q116 17 274 166l-84 84q-65 65 -203 91q-105 20 -233 20h-111q60 8 149 69q65 45 160 134q175 164 230 333v-182q0 -212 41 -321q19 -50 51 -82l76 -76q132 132 188 301v-135q0 -152 17 -254
q23 -140 88 -205zM5334 176h-1411v-352h-102v352h-783q-169 0 -346 -121q-95 -65 -280 -250q51 139 71 289q7 51 7 82h-1842q-150 0 -327 -121q-117 -80 -287 -250q80 205 80 420q0 89 -49 285q51 90 51 278q0 115 -12 187q-16 98 -72 233q98 -101 135 -136q78 -75 147 -124
q170 -121 326 -121h428q29 45 39 85.5t10 148.5q0 125 -53 276q55 117 55 275q0 179 -37 297q-18 56 -46 125l137 -137q146 -143 308 -208q86 -34 183 -34h824q0 148 -33 266q-14 52 -39 113l137 -137q246 -242 490 -242h346q-7 140 -47 266q-17 52 -41 113
q176 -181 289 -259q174 -120 360 -120h338q-7 139 -47 263q-17 52 -41 112q173 -179 286 -254q182 -121 347 -121h501v-103h-501q-167 0 -348 -122q-102 -69 -285 -252q74 197 86 374h-336q-182 0 -370 -126q-106 -71 -279 -244q74 192 86 370h-357q-169 0 -340 -120
q-81 -57 -274 -250q72 186 72 370h-826q-139 0 -260 -65q-91 -49 -213 -156q245 -225 500 -225h723v-102h-723q-161 0 -286 -66q-86 -45 -214 -158q252 -227 459 -227h790q-7 34 -26 102q178 -184 284 -258q168 -118 342 -118h783v20q0 101 -88 240q-76 119 -180 219
q23 -19 128 -40q110 -22 189 -22q76 0 188 22q54 10 142 40q-178 -155 -251 -339q-26 -66 -26 -122v-18h1411v-103zM2488 279q0 52 -8 100l-15 72h-823q-149 0 -313 -109q-50 -34 -89 -63h1248zM1117 510q2 85 -12 139q-10 39 -33 76h-438q-120 0 -242 -68
q-84 -47 -204 -151q123 -108 205 -156q123 -71 243 -71h453q25 58 28 231z" />
    <glyph glyph-name="uF5336" unicode="&#x12217;&#x120f6;" horiz-adv-x="9113" 
d="M8793 207h-1499q-177 0 -355 -124q-102 -71 -276 -251q77 196 80 422q2 139 -38 259q-8 25 -16 38h-567q-135 0 -313 -124q-129 -90 -285 -251q80 204 80 426q0 216 -49 309q49 93 49 316q0 172 -37 297q-17 56 -45 125q176 -182 290 -257q178 -118 369 -118h515
q12 42 32 126q15 78 15 167q0 194 -33 305q-17 56 -45 125q176 -181 283 -259q165 -120 329 -120h1516v-102h-1516q-205 0 -394 -166q-58 -51 -116 -113q79 -73 108 -98q63 -54 117 -88q139 -88 281 -88h223q-7 154 -40 261q-14 47 -40 111q118 -118 135 -134
q79 -75 146 -121q170 -117 344 -117h752v-103h-752q-162 0 -347 -132q-94 -67 -278 -251q66 170 80 383h-223q-137 0 -274 -89q-100 -65 -230 -185q85 -82 107 -102q63 -56 117 -91q130 -84 288 -84h1512v-102zM5334 176h-717v-344h-102v344h-453v-344h-102v344h-446v-344
h-103v344h-373q-172 0 -347 -121q-95 -66 -279 -250q51 139 71 289q7 51 7 82h-1842q-150 0 -327 -121q-117 -80 -287 -250q80 204 80 426q0 192 -51 269q51 91 51 280q0 116 -12 191q-18 110 -70 237q175 -180 290 -260q175 -121 318 -121h428q29 45 39 85.5t10 148.5
q0 125 -53 276q55 117 55 275q0 179 -37 297q-18 56 -46 125q67 -68 135 -135q79 -76 146 -123q175 -121 349 -121h824l-4 85q-4 85 -31 181q-14 52 -39 113q67 -68 134 -135q79 -76 146 -123q172 -121 347 -121h346q-7 140 -47 266q-17 52 -41 113q175 -180 288 -259
q172 -120 357 -120h342q-7 139 -47 263q-17 52 -41 112q173 -179 286 -254q182 -121 347 -121h501v-103h-501q-167 0 -348 -122q-102 -69 -285 -252q74 197 86 374h-342q-182 0 -367 -126q-100 -68 -276 -244q74 192 86 370h-357q-169 0 -340 -120q-81 -57 -274 -250
q74 192 74 370h-826q-142 0 -261 -65q-97 -53 -214 -156q245 -225 500 -225h723v-102h-723q-161 0 -286 -66q-86 -45 -214 -158q252 -227 459 -227h790q-7 34 -26 102q178 -184 284 -258q168 -118 342 -118h373v20q0 104 -89 243q-81 126 -181 222q25 -21 123 -43
q110 -25 198 -25q84 0 183 33q32 13 96 35q30 -12 92 -35q99 -33 180 -33q84 0 181 27q55 15 98 41q34 -20 103 -39q100 -27 169 -27q77 0 189 22q52 10 141 40q-93 -77 -184 -213q-93 -140 -93 -238v-30h717v-103zM6743 915q0 100 -13 159q-9 41 -37 97h-512
q-151 0 -294 -78q-101 -55 -238 -182q198 -190 335 -236q66 -22 142 -22h567q12 35 34 106q16 62 16 156zM4515 279v28q0 93 -73 208q-43 68 -154 190q-155 -155 -206 -286q-20 -52 -20 -97v-43h453zM3960 279v45q0 82 -75 198q-59 91 -146 183q-152 -152 -206 -303
q-19 -53 -19 -105v-18h446zM2488 279q0 52 -8 100l-15 72h-823q-149 0 -313 -109q-50 -34 -89 -63h1248zM1117 510q2 85 -12 139q-10 39 -33 76h-438q-120 0 -241 -71q-73 -43 -201 -154q246 -221 444 -221h453q25 58 28 231z" />
    <glyph glyph-name="uF5331" unicode="&#x12290;&#x120f6;" horiz-adv-x="9113" 
d="M8793 207h-1499q-177 0 -355 -124q-102 -71 -276 -251q77 196 80 422q2 139 -38 259q-8 25 -16 38h-567q-135 0 -313 -124q-129 -90 -285 -251q80 204 80 426q0 216 -49 309q49 93 49 316q0 172 -37 297q-17 56 -45 125q176 -182 290 -257q178 -118 369 -118h515
q12 42 32 126q15 78 15 167q0 194 -33 305q-17 56 -45 125q176 -181 283 -259q165 -120 329 -120h1516v-102h-1516q-205 0 -394 -166q-58 -51 -116 -113q79 -73 108 -98q63 -54 117 -88q139 -88 281 -88h223q-7 154 -40 261q-14 47 -40 111q118 -118 135 -134
q79 -75 146 -121q170 -117 344 -117h752v-103h-752q-162 0 -347 -132q-94 -67 -278 -251q66 170 80 383h-223q-137 0 -274 -89q-100 -65 -230 -185q85 -82 107 -102q63 -56 117 -91q130 -84 288 -84h1512v-102zM5334 174h-1411v-350h-102v350h-783q-177 0 -353 -120
q-75 -51 -143 -119l-130 -130q51 140 71 287q7 51 7 82h-1856q-147 0 -321 -120q-97 -67 -279 -249q80 205 80 424q0 85 -49 281q28 56 37 99q12 58 12 163q0 117 -12 195q-17 113 -70 241q92 -94 136 -137q78 -73 148 -123q170 -121 326 -121h416q16 27 43 86q16 48 16 148
q0 125 -53 276q55 117 55 275q0 179 -37 297q-18 56 -46 125q67 -68 135 -135q79 -76 146 -123q175 -121 349 -121h824l-4 85q-4 85 -31 181q-14 52 -39 113q109 -109 137 -136q79 -74 149 -122q175 -121 341 -121h346q-7 140 -47 266q-17 52 -41 113q165 -186 277 -264
q165 -115 345 -115h365q-7 139 -47 263q-17 52 -41 112q173 -179 286 -254q182 -121 347 -121h501v-103h-501q-167 0 -348 -122q-102 -69 -285 -252q74 197 86 374h-363q-162 0 -345 -126q-106 -73 -277 -244q74 192 86 370h-344q-172 0 -347 -120q-95 -65 -280 -250
q74 192 74 370h-826q-142 0 -261 -65q-97 -53 -214 -156q245 -225 500 -225h723v-102h-723q-161 0 -286 -66q-86 -45 -214 -158q252 -227 459 -227h790q-7 34 -26 102q177 -182 284 -259q168 -120 342 -120h783v23q0 101 -88 240q-76 119 -180 219q23 -19 128 -40
q110 -22 189 -22q76 0 188 22q54 10 142 40q-178 -155 -251 -339q-26 -66 -26 -122v-21h1411v-102zM6743 915q0 100 -13 159q-9 41 -37 97h-512q-151 0 -294 -78q-101 -55 -238 -182q198 -190 335 -236q66 -22 142 -22h567q12 35 34 106q16 62 16 156zM2488 276q0 55 -8 103
l-15 72h-823q-102 0 -215 -54q-76 -37 -187 -121h1248zM1117 510q2 85 -12 139q-10 39 -33 76h-438q-120 0 -242 -68q-84 -47 -204 -151q193 -170 324 -211q60 -19 124 -19h453q25 58 28 234z" />
    <glyph glyph-name="uF5535" unicode="&#x1230b;&#x120f6;" horiz-adv-x="4573" 
d="M4253 207h-1499q-177 0 -355 -124q-102 -71 -276 -251q77 196 80 422q2 139 -38 259q-8 25 -16 38h-567q-135 0 -313 -124q-129 -90 -285 -251q80 204 80 426q0 216 -49 309q49 93 49 316q0 172 -37 297q-17 56 -45 125q176 -182 290 -257q178 -118 369 -118h515
q12 42 32 126q15 78 15 167q0 194 -33 305q-17 56 -45 125q176 -181 283 -259q165 -120 329 -120h1516v-102h-1516q-205 0 -394 -166q-58 -51 -116 -113q79 -73 108 -98q63 -54 117 -88q139 -88 281 -88h223q-7 154 -40 261q-14 47 -40 111q118 -118 135 -134
q79 -75 146 -121q170 -117 344 -117h752v-103h-752q-162 0 -347 -132q-94 -67 -278 -251q66 170 80 383h-223q-137 0 -274 -89q-100 -65 -230 -185q85 -82 107 -102q63 -56 117 -91q130 -84 288 -84h1512v-102zM759 1432l-170 -164q-68 -112 -68 -359q0 -228 103 -387
l133 -135q0 -34 -9 -40.5t-44 -6.5l-363 367q-111 80 -230 149q-42 24 -79 41v27q116 61 246 155q23 16 63 45l363 355q36 0 45.5 -7t9.5 -40zM2203 915q0 100 -13 159q-9 41 -37 97h-512q-151 0 -294 -78q-101 -55 -238 -182q198 -190 335 -236q66 -22 142 -22h567
q12 35 34 106q16 62 16 156z" />
    <glyph glyph-name="uF539E" unicode="&#x12308;&#x120f8;" horiz-adv-x="4931" 
d="M4611 174h-2291q-171 0 -353 -129q-123 -88 -264 -250q62 164 76 379h-358v-379h-68v379h-277v-379h-67v379h-281v-379h-67v379q-250 -5 -498 -246q-66 -64 -129 -127q77 196 80 426q1 110 -11 195q-14 98 -69 231q131 -135 202 -194q119 -100 237 -147q85 -34 188 -36
v402q0 94 -77 222q-65 109 -165 204q71 -53 277 -53q70 0 118 16q18 8 54 23q68 -39 176 -39q77 0 111 12q24 8 55 24q17 -8 52 -22q44 -14 122 -14q84 0 161 15q40 7 115 34q-157 -157 -217 -305q-22 -54 -22 -107v-412h358q-3 57 -17 171q-20 95 -65 208q94 -97 134 -135
q77 -73 145 -122q170 -122 342 -122h301v1024q0 181 -140 391q-76 114 -200 238q52 -19 158 -50q91 -19 233 -19q145 0 222.5 17t170.5 52q-102 -87 -199 -233q-143 -215 -143 -400v-1020h305q39 139 39 263q0 133 -47 237q47 89 47 242q0 178 -47 244q27 32 35 66
q14 58 14 175q0 84 -23 194q-15 71 -42 132q96 -111 223 -188q149 -91 248 -91h1138v-102h-1173q-153 -22 -348 -188q76 -68 189.5 -131.5t191.5 -63.5h1140v-102h-1142q-74 0 -187 -59q-95 -49 -192 -128q218 -188 364 -188h1157v-103h-1181q-172 -32 -369 -209h1550v-102z
M2197 1808l-135 -131q-82 -135 -82 -284q0 -157 84 -287l131 -135q0 -33 -9.5 -40t-44.5 -7l-192 188q-6 6 -75 63t-162 111q-45 26 -105 55v5h-918q-265 0 -523 -243q-69 -65 -134 -130q79 202 82 428q1 111 -12 192q-17 104 -70 232q180 -185 289 -258q179 -119 368 -119
h926q113 52 340 225l186 182q37 0 45 -5q11 -8 11 -42zM1353 276v400h-2q0 126 -139 299q-136 -176 -136 -287v-412h277zM1009 276v400q0 116 -146 297q-135 -175 -135 -299v-398h281z" />
    <glyph glyph-name="uF556F" unicode="&#x12146;&#x120fb;" horiz-adv-x="4768" 
d="M4448 1929q-53 -62 -154 -199q-118 -186 -118 -350v-86q29 8 37 13q-355 -355 -523 -712q-32 -69 -60 -142q-73 -191 -73 -398v-55h-102v55q0 367 -234 739q-126 200 -282 372q-83 92 -133 143l26 -13v84q0 173 -107 350q-76 125 -163 199q189 -63 319 -63q93 0 197 26
q39 13 117 37q45 -19 118 -37q107 -26 191 -26q80 0 187 26q78 19 120 37q53 -23 120 -39q98 -24 196 -24q195 0 321 63zM2767 860h-839q-265 0 -523 -243q-69 -65 -134 -130q85 217 88 426q1 107 -15 195q-18 99 -73 231q180 -185 289 -258q177 -118 368 -118h839v-103z
M1480 1929q-70 -69 -199 -221q-143 -199 -143 -408v-1300h-102v1300q0 207 -143 407q-20 27 -202 222q55 -18 167 -48q100 -21 231 -21q139 0 216 17q21 5 175 52zM753 391q0 -34 -9 -40.5t-44 -6.5l-381 369q-158 123 -287 182v31q128 68 285 182l381 373q37 0 46 -6.5
t9 -40.5l-135 -134q-105 -173 -105 -391q0 -215 109 -383zM4073 1268v112q0 158 -111 334q-50 79 -149 189q-74 -82 -147 -203q-109 -182 -109 -324v-184h80q56 0 201 25q69 12 121 24zM3455 1192v186q0 142 -107 323q-77 130 -151 204q-76 -69 -153 -191
q-109 -172 -109 -336v-104q279 -82 436 -82h84z" />
    <glyph glyph-name="uF558C" unicode="&#x121b8;&#x12100;" horiz-adv-x="4722" 
d="M4402 1929q-114 -106 -200 -228q-145 -206 -145 -401v-1300h-3288q-176 0 -350 -121q-107 -74 -281 -254q84 215 87 430q0 24 -3 98q-4 94 -37 200q-15 48 -47 126q76 -80 240 -227v1048q0 270 -258 537q-60 62 -88 92q55 -18 168 -48q103 -21 233 -21q134 0 216 19
q39 9 167 50q-20 57 -57 172q183 -188 290 -261q175 -118 363 -118h2379q-55 74 -102 124l-78 83q55 -18 167 -48q100 -21 224 -21q137 0 224 19q47 10 176 50zM3955 102v1198q0 139 -96 320h-2447q-184 0 -369 -124q-94 -63 -284 -253q82 209 82 430v86q0 63 -8 107
q-2 11 -13 55q-212 -187 -300 -408q-39 -98 -39 -213v-1116q150 -82 288 -82h3186zM3717 283l-50 -47l-108 106q-134 62 -320 102q-37 8 -196 23q-149 14 -267 14q17 10 48 33l-72 62q-21 25 -176 48q-140 21 -189 21q69 23 128 64q26 18 41 33l34 34q57 57 97 128
q14 25 14 40q32 9 88 44q51 32 82 63q20 20 63 87q41 64 41 81q33 5 89.5 45.5t86.5 70.5q85 85 129 195q0 -85 14 -187q18 -128 60 -163l86 -101q3 4 37 60v-94q0 -99 20 -270.5t71 -300.5q22 -54 50 -91zM2505 1482q-151 -151 -220 -325q-22 -56 -22 -93v-795h-67v795
q0 73 -61 175q-51 84 -134 177q-186 -206 -186 -358v-789h-68v524h-333q-93 0 -226 -77q-113 -65 -208 -165q22 38 36 111q17 87 17 163q0 75 -17 162q-12 60 -36 115q159 -159 325 -220q60 -22 107 -22h335v196q0 80 -81 212q-65 106 -161 212q133 -56 275 -56
q143 0 223 49q82 -49 227 -49q165 0 275 58zM3403 1024l-88 96q-38 27 -144 48q-90 18 -163 18q0 -149 44 -248q13 -29 32 -47l123 -115q140 146 196 248zM3155 727l-116 113q-42 32 -150 53q-52 5 -156 18q0 -68 14 -150q17 -101 58 -134l84 -84q145 55 266 184z" />
    <glyph glyph-name="uF5376" unicode="&#x12255;&#x12100;" horiz-adv-x="4800" 
d="M4480 1722h-2064q-192 0 -372 -121q-106 -71 -286 -251q86 220 89 426q1 102 -16 194q-19 100 -73 232q70 -70 139 -136q252 -241 496 -241h2087v-103zM4349 395l-45 -49l-78 70q-34 31 -102 58.5t-131 41.5q-11 2 -83 10q-118 12 -279 21q-75 4 -134 4q28 11 66 49
l-88 86q-20 24 -164 52q-132 26 -178 26q118 39 186 113q31 37 87 115q13 21 15 36q68 18 138 92q49 52 79 108q9 17 9 27q29 4 80 41q30 22 134 132q33 35 62 108q0 -84 20 -175q25 -116 70 -159l82 -78q17 20 33 52l2 4q0 -10 3 -61l7 -117q3 -40 11 -126q7 -71 10 -92
q0 -47 27 -147q34 -124 83 -170v-2zM3311 1548q-168 -168 -224 -314q-22 -58 -22 -112v-780h-67v766q0 147 -154 336q-156 -185 -156 -336v-766h-67v518h-271q-102 0 -223 -76q-57 -36 -108 -79t-95 -89q22 39 36 112q18 95 18 165q0 124 -35 226q-8 23 -19 48
q81 -86 185 -154q111 -73 204 -85h308v194q0 105 -73 224q-65 107 -165 202q25 -20 109 -36q92 -17 168 -17q141 0 182 41q37 -27 78 -34q38 -7 116 -7q73 0 160 17q77 15 115 36zM4480 0h-2226q-148 0 -322 -126q-111 -81 -272 -247q75 192 78 428q2 151 -35 275l-219 219
h-795q-265 0 -523 -243q-69 -65 -134 -130q82 211 82 422q0 204 -62 311q62 93 62 316q0 120 -12 192q-17 104 -70 232l136 -136q243 -239 497 -239h784l211 205q36 0 45.5 -7t9.5 -40l-139 -144q-68 -115 -99 -289q-9 -50 -9 -88q0 -182 102 -340l162 -168
q150 -155 251 -218q134 -83 304 -83h2193v-102zM4050 1075l-84 82q-38 31 -118 41q-50 6 -126 6v-14q0 -121 27 -184q12 -27 35 -50l106 -104q89 92 160 223zM3841 805l-104 102q-57 56 -197 56h-57v-66q0 -129 45 -168l78 -84q132 50 235 160zM1367 651q-60 50 -188 137
q-112 76 -174 105l-2 35q108 57 282 184l60 59h-680q-151 0 -283 -79q-78 -47 -225 -183q130 -125 227 -180q138 -78 283 -78h700z" />
    <glyph glyph-name="uF550A" unicode="&#x1212d;&#x1210a;" horiz-adv-x="5088" 
d="M4768 207h-1341q-155 0 -341 -122q-130 -85 -296 -251q88 224 88 426q0 90 -24 207q-17 81 -42 119q22 31 42 126q24 115 24 206q0 222 -68 327q32 45 52 161q16 94 16 171q0 166 -43 295q-19 57 -47 125q171 -171 301 -257q181 -120 338 -120h1341v-102h-1341
q-157 0 -292 -84q-98 -61 -233 -191q200 -200 373 -257q70 -23 152 -23h313q-5 104 -20 170q-19 83 -68 206q180 -185 289 -258q177 -118 368 -118h459v-103h-459q-265 0 -523 -243q-69 -65 -134 -130q74 192 86 373h-311q-149 0 -291 -85q-84 -50 -234 -189
q144 -139 231 -193q135 -84 292 -84h1343v-102zM2759 1432l-170 -164q-68 -112 -68 -359q0 -228 103 -387l133 -135q0 -34 -9 -40.5t-44 -6.5l-363 367q-111 80 -230 149q-42 24 -79 41v27q116 61 246 155q23 16 63 45l363 355q36 0 45.5 -7t9.5 -40zM2039 61l-72 -71
l-161 151q-169 94 -428 147q-169 35 -435 55q-91 7 -165 8l-173 1l74 37l-67 72q-90 97 -253 138q-102 26 -247 26h-80q153 55 291 190q53 51 107 127q51 71 63 115q53 18 130 69q102 68 144 111q159 162 176 248q80 32 183 117q94 77 179 200q47 67 77 133v-34
q0 -252 64 -406q31 -74 81 -121l94 -88q8 18 41 68q0 -492 100 -846q45 -159 121 -291zM1562 1206l-88 92q-72 75 -235 118q-138 36 -228 36h-31v-51q0 -199 70 -341q32 -65 84 -118l135 -137l57 59q46 48 115 151q26 39 61 95zM1197 741l-133 123q-58 54 -114 80
q-119 56 -268 70q-63 6 -109 6h-47v-21q0 -134 23 -222q41 -158 151 -269l73 -74q262 145 365 248z" />
    <glyph glyph-name="uF5554" unicode="&#x1230b;&#x1210a;" horiz-adv-x="3948" 
d="M3628 207h-1501q-155 0 -341 -122q-130 -85 -296 -251q88 224 88 426q0 90 -24 207q-17 81 -42 119q22 31 42 126q24 115 24 206q0 222 -68 327q32 45 52 161q16 94 16 171q0 166 -43 295q-19 57 -47 125q171 -171 301 -257q181 -120 338 -120h1501v-102h-1501
q-157 0 -292 -84q-98 -61 -233 -191q200 -200 373 -257q70 -23 152 -23h243q-5 104 -20 170q-19 83 -68 206q180 -185 289 -258q177 -118 368 -118h689v-103h-689q-265 0 -523 -243q-69 -65 -134 -130q74 192 86 373h-241q-149 0 -291 -85q-84 -50 -234 -189
q144 -139 231 -193q135 -84 292 -84h1503v-102zM1459 1432l-170 -164q-68 -112 -68 -359q0 -228 103 -387l133 -135q0 -34 -9 -40.5t-44 -6.5l-363 367q-111 80 -230 149q-42 24 -79 41v27q116 61 246 155q23 16 63 45l363 355q36 0 45.5 -7t9.5 -40zM759 1432l-170 -164
q-68 -112 -68 -359q0 -228 103 -387l133 -135q0 -34 -9 -40.5t-44 -6.5l-363 367q-111 80 -230 149q-42 24 -79 41v27q116 61 246 155q23 16 63 45l363 355q36 0 45.5 -7t9.5 -40z" />
    <glyph glyph-name="uF522A" unicode="&#x12157;&#x12111;" horiz-adv-x="4866" 
d="M4546 1929q-70 -69 -199 -222q-141 -199 -141 -427v-1280h-1866q-264 0 -520 -245q-69 -66 -131 -130q85 215 88 426q2 132 -42 282q-16 53 -40 116h-137q-186 0 -373 -124q-107 -71 -287 -251q88 224 88 426q0 118 -9 171q-16 95 -58 189h-232q-261 0 -521 -245
q-69 -65 -134 -130q79 202 82 422q1 113 -12 197q-16 103 -70 233q94 -94 139 -135q80 -73 151 -121q175 -118 365 -118h230q65 195 65 364q0 115 -15 195q-18 99 -73 231q232 -266 438 -341q93 -34 199 -34h428q-28 189 -153 353q-60 65 -177 196q55 -17 166 -46
q98 -21 228 -21q146 0 220 17q46 11 79 21l92 29q-21 106 -74 238q187 -187 289 -256q175 -119 358 -119h905q-42 50 -131 139q55 -17 166 -47q92 -22 228 -22q138 0 220 19q34 8 171 50zM4103 102v1227q0 94 -50 199q-43 89 -89 160h-975q-266 0 -519 -245
q-69 -67 -130 -130q85 215 88 426q2 99 -14 188q-70 -70 -199 -223q-143 -204 -143 -428v-1102q134 -64 209 -72h1822zM1969 551v725h-432q-190 0 -361 -117q-95 -65 -253 -229v-31q168 -173 268 -240q162 -108 344 -108h434zM1969 223v226h-254q81 -81 122 -119
q70 -64 132 -107zM3964 1464q-160 -160 -220 -312q-22 -56 -22 -99v-799h-67v213h-514q-100 0 -227 -75q-109 -64 -207 -167q51 117 51 277q0 57 -20 160q-7 39 -16 65l-15 47q103 -103 203 -163q127 -76 221 -76h524v534h-526q-94 0 -220 -77q-107 -65 -202 -165
q51 117 51 277q0 57 -20 160q-7 39 -16 65l-15 47q160 -160 315 -218q56 -21 109 -21h505q-51 150 -223 327q121 -51 277 -51q146 0 274 51z" />
    <glyph glyph-name="uF53F8" unicode="&#x122d6;&#x12111;" horiz-adv-x="5009" 
d="M4689 1929q-71 -69 -201 -223q-54 -77 -101 -189q-44 -107 -44 -239v-1278h-102v381h-1125q-178 0 -356 -124q-117 -82 -279 -249q85 217 88 426q1 107 -15 195q-18 99 -73 231q180 -185 289 -258q179 -119 369 -119h1102l-4 860h-1121q-246 0 -504 -243
q-69 -65 -131 -129q85 217 88 426q1 107 -15 194q-19 100 -73 232q104 -104 137 -135q79 -74 147 -122q170 -120 351 -120h1106q-42 160 -157 308q-54 57 -160 175q54 -18 163 -48q96 -21 226 -21q145 0 222 17q14 3 173 52zM2412 1929q-61 -65 -123 -129q-69 -77 -108 -142
q-113 -185 -113 -380v-1278h-103v381h-483v-381h-102v381h-453v-381h-102v381h-158q-245 0 -504 -244q-69 -65 -131 -129q82 209 82 422q0 122 -12 197q-16 103 -70 233q180 -185 289 -258q179 -119 368 -119h136v11q0 99 -88 243q-79 128 -181 226q25 -21 128 -39
q118 -21 190 -21q82 0 181 24q75 18 99 36q23 -17 100 -36q99 -24 177 -24q91 0 192 23q48 10 135 41q-168 -146 -250 -349q-26 -64 -26 -112v-23h483l-4 860h-1294q-180 0 -356 -123q-117 -82 -279 -249q82 209 82 426q0 122 -12 194q-17 104 -70 232q148 -148 206 -196
q123 -103 241 -148q88 -33 188 -33h1278q-41 158 -158 308q-54 57 -160 175q54 -18 163 -48q96 -21 227 -21q145 0 222 17q14 3 173 52zM1380 483v13q0 87 -71 211q-55 96 -155 206q-84 -84 -155.5 -205t-71.5 -204v-21h453z" />
    <glyph glyph-name="uF5343" unicode="&#x120a1;&#x1211e;" horiz-adv-x="5966" 
d="M4970 864l-45 -43l-99 97q-69 68 -200 97q-103 23 -252 23q15 4 90.5 53.5t130.5 104.5q119 119 151 215q0 -228 57 -352q24 -52 60 -88zM4970 315l-45 -43l-99 97q-69 68 -200 97q-103 23 -252 23q15 4 90.5 53.5t130.5 104.5q120 120 151 213q0 -230 57 -351
q24 -51 60 -87zM4474 1452q-163 -163 -220 -312q-22 -58 -22 -110v-790h-67v209h-610q-99 0 -222 -75q-102 -62 -202 -167q21 37 35 111q18 95 18 165q0 67 -18 160q-13 64 -35 115q104 -104 201 -164q126 -78 221 -78h612v483h-610q-103 0 -224 -74q-102 -62 -202 -167
q21 37 35 111q18 95 18 165q0 67 -18 160q-13 64 -35 115q108 -108 203 -165q128 -77 223 -77h606q-26 184 -238 385q25 -20 109 -36q92 -17 168 -17q72 0 159 17q77 15 115 36zM5646 1929q-132 -132 -201 -232q-143 -207 -143 -394v-1303h-2407q-265 0 -523 -243
q-69 -65 -134 -130q74 197 86 373h-1671q-138 0 -323 -124q-137 -92 -298 -253q82 209 82 426q0 162 -45 277q23 56 33 108q12 64 12 170q0 121 -12 193q-17 102 -70 231q167 -172 297 -257q177 -116 340 -116h401q12 32 30 97q7 43 7 133q0 139 -29 220q-7 17 -20 54
q51 97 51 277q0 114 -15 194q-19 100 -73 232q91 -94 136 -136q78 -73 148 -123q170 -120 351 -120h799q-46 120 -165 272q-90 115 -149 174q54 -18 163 -48q96 -21 225 -21q147 0 223 17q19 4 174 52q-119 -105 -206 -230q-138 -198 -138 -380v-1133q146 -84 305 -84h2312
v1229q0 125 -87 280q-25 44 -48 79h-1548q-266 0 -524 -243q-69 -65 -134 -130q85 217 88 426q1 107 -15 194q-19 100 -73 232q180 -185 289 -258q179 -119 369 -119h1472q-36 46 -72 81l-29 28l-28 28q55 -18 166 -48q98 -21 227 -21q146 0 222 17q34 8 79 23q11 4 93 29z
M2479 932v387q-1 20 -8 61h-846q-126 0 -243 -70q-61 -36 -195 -153q186 -171 320 -208q62 -17 145 -17h827zM2479 379v450h-827q-222 0 -461 -221q187 -163 328 -209q62 -20 135 -20h616q-10 34 -32 100q37 -32 110 -100h131zM2326 102q-5 99 -21 174h-653l2 3
q-171 0 -309 -105q-39 -30 -88 -72h1069zM1107 332q0 167 -35 221h-407q-131 0 -256 -69q-95 -52 -213 -156q118 -107 210 -156q133 -70 259 -70h418q24 112 24 230z" />
    <glyph glyph-name="uF55F6" unicode="&#x1235d;&#x12122;" horiz-adv-x="6172" 
d="M5852 1929q-69 -66 -199 -215q-143 -194 -143 -397v-1317h-102v176h-1164q-168 0 -346 -124q-130 -91 -274 -245q85 216 88 426q2 146 -37 285h-524q-143 0 -332 -123q-134 -87 -297 -250q82 209 82 424q0 100 -27 207t-55 142q29 41 55.5 141t26.5 203q0 191 -33 304
q-17 57 -45 126q154 -154 290 -248q192 -133 329 -133h528q39 140 39 299q0 112 -15 192q-19 100 -73 232q177 -183 286 -258q172 -119 349 -119h1044q-49 79 -132 167q-35 34 -103 105q55 -17 166 -47q92 -22 229 -22q136 0 218 19q34 8 171 50zM2299 1432l-170 -164
q-68 -112 -68 -359q0 -228 103 -387l133 -135q0 -34 -9 -40.5t-44 -6.5l-363 367q-111 80 -230 149q-42 24 -79 41v27q116 61 246 155q23 16 63 45l363 355q36 0 45.5 -7t9.5 -40zM1515 1929q-116 -116 -205 -251q-141 -214 -141 -380v-196q103 0 181 19q48 12 163 50
q-138 -138 -203 -232q-141 -204 -141 -396v-543h-103v539q0 164 -108 346q-64 107 -187 237q-188 -188 -262 -408q-31 -92 -31 -196v-518h-102v518q0 208 -140 419q-55 83 -115 144l-89 90q82 -27 121 -38q68 -19 125 -26q42 -5 98 -5v174q0 179 -140 400q-84 133 -204 253
q58 -20 175 -52q77 -17 220 -17q239 0 346 69q88 -69 344 -69q131 0 231 21q56 16 167 48zM5408 279v1038q0 95 -58 237h-1091q-165 0 -327 -107q-114 -75 -257 -239h-530q-143 0 -290 -93q-105 -66 -239 -195q141 -141 241 -204q151 -95 294 -95h524q77 -88 117 -128
q68 -68 131 -112q146 -102 321 -102h1164zM1066 1102v196q0 242 -205 480q-49 57 -90 100q-188 -188 -262 -407q-31 -92 -31 -195v-174q178 0 297 67q97 -67 291 -67zM4825 1270l-147 -137q-15 -23 -32 -95q-15 -64 -15 -120q0 -86 38 -187q10 -26 15 -33l131 -135
q0 -45 -43 -45l-186 182q-37 36 -116 92q-105 75 -173 103l2 31q106 50 240 159q30 24 47 41l196 191q43 0 43 -47z" />
    <glyph glyph-name="uF5526" unicode="&#x1230b;&#x12125;" horiz-adv-x="4268" 
d="M3948 1929q-128 -128 -201 -235q-144 -211 -144 -396v-1290h-102v1268q0 199 -103 374q-66 112 -190 224q-129 -129 -187 -219q-110 -171 -110 -352v-1295h-102v371h-1192q-177 0 -357 -124q-111 -76 -278 -249q79 202 82 422q1 113 -12 197q-16 103 -70 233
q180 -185 289 -258q179 -119 368 -119h1170v795q0 35 -4 67h-715q-181 0 -365 -118q-125 -80 -297 -252q86 218 89 426q0 30 -4 98q-7 100 -38 202q-15 48 -47 126q266 -274 466 -346q92 -33 196 -33h696q-38 160 -155 307q-54 58 -160 176q54 -17 164 -47q92 -22 227 -22
q215 0 344 69q123 -69 352 -69q136 0 218 19q38 9 172 50zM759 1432l-170 -164q-68 -112 -68 -359q0 -228 103 -387l133 -135q0 -34 -9 -40.5t-44 -6.5l-363 367q-111 80 -230 149q-42 24 -79 41v27q116 61 246 155q23 16 63 45l363 355q36 0 45.5 -7t9.5 -40z" />
    <glyph glyph-name="uF5262" unicode="&#x1227d;&#x1212c;" horiz-adv-x="5885" 
d="M5565 860h-1269q-182 0 -369 -124q-128 -85 -287 -249q77 204 88 373h-632q-181 0 -373 -124q-134 -86 -291 -249q79 202 82 418q2 115 -12 199q-17 106 -70 235q180 -185 289 -258q177 -118 368 -118h639q-8 177 -88 376q180 -185 289 -258q177 -118 369 -118h1267v-103
zM2234 860h-770l532 -704l-88 -62l-578 766h-653q-173 0 -358 -123q-111 -74 -287 -250q79 202 82 424q1 113 -12 196q-17 103 -70 232q92 -95 136 -136q79 -74 149 -122q172 -118 364 -118h574l-90 118q-92 121 -304 192q-167 56 -380 81q431 111 661 520
q-16 -118 -16 -295q0 -144 15 -214q25 -116 101 -214l146 -188h846v-103z" />
    <glyph glyph-name="uF5296" unicode="&#x12137;&#x1212d;" horiz-adv-x="5073" 
d="M4753 51l-72 -71l-162 155q-163 91 -428 145q-183 38 -434 54q-91 6 -165 7l-173 1l74 37l-68 72q-95 101 -251 139q-106 26 -244 26q-14 0 -42 -1t-42 -1q108 54 225 134q95 65 174 191q34 54 61 108q38 16 126 70q100 61 149 110q64 64 115 143q47 73 61 105
q28 12 107 64q124 82 200 179q60 77 99 149q23 42 32 62q8 -35 12 -123q4 -101 8 -132q29 -219 126 -310l94 -88q6 15 21 39q10 16 20 31q0 -501 99 -849q44 -155 122 -290zM2995 1929q-200 -216 -298 -427q-44 -95 -44 -181v-1321h-102v1319q0 149 -143 358
q-84 123 -205 252q56 -17 169 -47q95 -22 232 -22q138 0 220 19q34 8 171 50zM2109 410q0 -33 -10 -40.5t-44 -7.5l-360 359q-114 88 -233 137h-15v-858h-102v860h-680q-177 0 -357 -123q-101 -69 -276 -250q79 202 82 426q1 114 -12 195q-17 102 -70 231q93 -102 130 -138
q76 -76 144 -123q167 -115 359 -115h680v352q0 202 -137 395q-54 76 -112 133l-87 86q54 -17 164 -47q92 -22 227 -22q137 0 221 19q35 8 172 50q-69 -68 -200 -220q-146 -201 -146 -394v-352h15q103 49 177 102q17 12 58 43l356 348q36 0 46 -7t10 -40l-135 -131
q-38 -64 -69 -187q-28 -110 -28 -178q0 -66 28 -178q31 -126 73 -190zM4275 1196l-88 92q-48 50 -119 79q-133 54 -284 69q-62 6 -90 6q2 -16 2 -39v-51q0 -176 75 -316q32 -60 76 -104l136 -137l57 63q52 57 115 150q52 76 120 188zM3911 731l-133 133q-124 124 -337 143
q-55 5 -101 5q-17 0 -50.5 -1t-50.5 -1v-15q0 -209 76 -363q35 -71 98 -134l74 -74q255 138 365 248z" />
    <glyph glyph-name="uF5238" unicode="&#x12157;&#x1212f;" horiz-adv-x="5851" 
d="M5531 1929q-70 -69 -199 -222q-141 -199 -141 -427v-1280h-2851q-264 0 -520 -245q-69 -66 -131 -130q85 215 88 426q2 132 -42 282q-16 53 -40 116h-137q-186 0 -373 -124q-107 -71 -287 -251q88 224 88 426q0 166 -27 259q-13 44 -38 101h-234q-261 0 -521 -245
q-69 -65 -134 -130q79 202 82 422q1 113 -12 197q-16 103 -70 233q94 -94 139 -135q80 -73 151 -121q175 -118 365 -118h230q65 195 65 364q0 115 -15 195q-18 99 -73 231q232 -266 438 -341q93 -34 199 -34h428q-28 189 -153 353q-60 65 -177 196q54 -17 163 -47
q90 -22 227 -22q176 0 303 40l92 29q-21 106 -74 238q187 -187 289 -256q175 -119 358 -119h1891q-37 44 -132 139q55 -17 166 -47q92 -22 228 -22q138 0 220 19q34 8 171 50zM5089 102v1227q0 92 -51 199q-43 89 -89 160h-1960q-266 0 -519 -245q-69 -67 -130 -130
q85 215 88 426q2 99 -14 188q-70 -70 -199 -223q-143 -204 -143 -428v-1102q134 -64 209 -72h2808zM1969 551v725h-432q-190 0 -361 -117q-95 -65 -253 -229v-31q168 -173 268 -240q162 -108 344 -108h434zM1969 223v226h-254q81 -81 122 -119q70 -64 132 -107zM4826 430
h-395v-137h-67v137h-203q-101 0 -228 -75q-106 -63 -206 -167q51 117 51 277q0 108 -43 156q33 26 40 85q3 25 3 68q0 104 -43 156q23 23 32 51q11 35 11 104q0 57 -20 160q-8 41 -16 66l-15 47q149 -149 327 -218q57 -22 97 -22h208q-15 85 -88 196q-59 90 -149 185
q121 -51 276 -51q147 0 275 51q-135 -135 -206 -286q-24 -51 -32 -95h391v-67h-395v-242h395v-68h-395v-243h395v-68zM3663 340l-45 -49l-78 69q-75 67 -233 101q-28 6 -213 22q-175 15 -281 15q39 16 64 47l-88 86q-20 24 -164 52q-132 26 -178 26q66 22 103 48
q41 34 83 68q3 4 57 72q21 26 45 76q14 4 35 14q76 38 103 78q28 28 56 69q32 47 32 66q25 4 80 36q52 31 77 62q68 66 119 193q0 -84 22 -184q13 -57 27 -96t41 -64l82 -78q18 21 33 51l2 4q0 -38 11 -177l10 -127q4 -49 10 -91q0 -58 26 -147q37 -126 84 -170v-2z
M4364 809v242h-203q-126 0 -289 -121q165 -121 276 -121h216zM4364 498v243h-205q-135 0 -297 -120q76 -56 150.5 -89.5t148.5 -33.5h203zM3364 1020l-84 82q-38 31 -118 41q-50 6 -126 6v-14q0 -77 9 -124q14 -73 53 -110l106 -102q91 95 160 221zM3155 750l-104 102
q-50 49 -197 49h-57v-74q0 -114 45 -153l78 -84q132 50 235 160z" />
    <glyph glyph-name="uF5364" unicode="&#x1219c;&#x12134;" horiz-adv-x="8600" 
d="M8280 860h-412v-860h-100v860h-518v-860h-103v860h-518v-860h-102v860h-414q-265 0 -523 -243q-69 -65 -134 -130q74 192 86 373h-193q-265 0 -523 -243q-69 -65 -134 -130q85 217 88 426q1 107 -15 195q-18 99 -73 231q180 -185 289 -258q177 -118 368 -118h195
q-7 142 -47 265q-15 46 -41 111q179 -179 298 -257q182 -119 359 -119h414v340q0 180 -140 386q-65 80 -196 240q54 -18 163 -48q96 -21 224 -21q139 0 212 22q54 16 95 47q50 -33 97 -47q75 -22 217 -22q131 0 208 22q53 15 101 47q50 -31 100 -45q86 -24 219 -24
q147 0 221 17q33 8 78 23q11 4 93 29q-69 -70 -203 -227q-148 -199 -148 -385v-354h412v-103zM4739 61l-72 -71l-161 151q-169 94 -428 147q-169 35 -435 55q-91 7 -165 8l-173 1l74 37l-67 72q-90 97 -253 138q-102 26 -247 26h-80q153 55 291 190q53 51 107 127
q51 71 63 115q53 18 130 69q102 68 144 111q159 162 176 248q80 32 183 117q73 60 125 125q62 77 99 142q22 38 32 60v-28q0 -252 64 -406q31 -74 81 -121l94 -88q8 18 41 68q0 -492 100 -846q45 -159 121 -291zM2680 444h-358l157 -315l-90 -47l-182 362h-735l334 -671
l-93 -43l-356 714h-686q-180 0 -358 -122q-86 -59 -279 -252q77 196 80 424q1 113 -13 190q-19 99 -69 227q82 214 82 414q0 128 -11 202q-14 92 -69 226q102 -105 131 -133q76 -74 141 -122q166 -122 332 -122h217q-155 143 -512 258q223 20 422 111q73 33 182 124
q42 38 129 111q42 5 157 34q135 34 208 71q153 77 251 172q43 42 91 98q-106 -302 -106 -475q0 -150 67 -285l109 -219h823v-102h-770l358 -727h416v-103zM7768 963v368q0 117 -89 281q-63 115 -165 229q-179 -188 -239 -353q-25 -69 -25 -145v-380h518zM7147 963v387
q0 134 -95 283q-58 91 -167 206q-169 -178 -231 -386q-25 -84 -25 -175v-315h518zM4262 1206l-88 92q-72 75 -235 118q-138 36 -228 36h-31v-51q0 -199 70 -341q32 -65 84 -118l135 -137l57 59q46 48 115 151q26 39 61 95zM3897 741l-133 123q-58 54 -114 80
q-119 56 -268 70q-63 6 -109 6h-47v-21q0 -134 23 -222q41 -158 151 -269l73 -74q262 145 365 248zM1738 1376l-90 180h-2q-76 152 -243 255q-124 76 -318 141q-92 -261 -92 -484q0 -42 10 -92h735zM2156 547l-365 727h-735l365 -727h735zM1306 547l-367 727h-301
q-152 0 -321 -120q-89 -63 -269 -243q166 -171 270 -246q164 -118 318 -118h670z" />
    <glyph glyph-name="uF54A9" unicode="&#x122ba;&#x12137;" horiz-adv-x="5315" 
d="M4995 1929q-200 -216 -298 -427q-44 -95 -44 -181v-1321h-102v1319q0 149 -143 358q-84 123 -205 252q56 -17 169 -47q95 -22 232 -22q146 0 220 17q8 2 171 52zM4109 410q0 -33 -10 -40.5t-44 -7.5l-360 359q-114 88 -233 137h-15v-858h-102v860h-680q-253 0 -503 -243
q-69 -67 -130 -130q79 202 82 424q1 113 -12 196q-17 103 -70 232q125 -137 200 -200q118 -100 241 -145q85 -31 192 -31h680v360q0 238 -249 510q-61 67 -87 96q54 -17 164 -47q92 -22 227 -22q145 0 221 17q11 3 172 52q-70 -71 -200 -224q-146 -201 -146 -384v-358h15
q103 49 177 102q17 12 58 43l356 348q36 0 46 -7t10 -40l-135 -131q-38 -64 -69 -187q-28 -110 -28 -178q0 -66 28 -178q31 -126 73 -190zM1867 965l-68 -72l-256 254q-66 65 -184 88q-73 14 -217 14h-49v-45q0 -165 13 -252q21 -142 81 -202l236 -238l-68 -72l-256 254
q-64 63 -198 89q-93 18 -230 18h-29v-41q0 -157 14 -250q21 -138 83 -201l235 -237l-68 -72l-256 254q-63 63 -205 89q-91 17 -237 17h-110q59 7 154 72q83 57 161 137q116 108 166 212q15 32 20 59q161 50 226 137l-240 240q-62 62 -206 89q-91 17 -236 17h-111
q62 8 154 72q87 61 157 137q131 143 192 251q24 42 36 79v-136q0 -155 16 -251q23 -140 86 -203l223 -225q94 76 140 192q12 30 12 55q52 4 127.5 56.5t126.5 111.5q103 101 147 169q55 85 80 161v-135q0 -156 16 -252q23 -140 86 -203z" />
    <glyph glyph-name="uF5419" unicode="&#x1227a;&#x12141;" horiz-adv-x="5916" 
d="M5596 1929q-71 -69 -201 -221q-143 -199 -143 -403v-1305h-2533q-253 0 -514 -257q-68 -67 -121 -116q81 207 84 424q1 112 -14 196q-19 103 -72 232q171 -176 276 -250v1049q0 211 -142 418q-40 58 -204 233q56 -18 169 -48q100 -21 232 -21q147 0 221 17q33 8 78 23
q11 4 93 29q-70 -72 -199 -229q-145 -212 -145 -422v-1110q132 -66 256 -66h1744v758h-1171q-263 0 -521 -243q-69 -65 -134 -130q83 212 86 426q1 112 -14 195q-19 103 -72 231q90 -93 137 -136q79 -74 150 -122q175 -118 368 -118h1171v342q0 175 -138 381
q-70 104 -200 243q54 -18 164 -48q98 -21 228 -21q131 0 222 21q62 14 120 48q74 -37 122 -48q91 -21 224 -21q130 0 219 19q67 14 174 50zM1922 381h-755v-381h-103v381h-414q-159 0 -336 -123q-98 -68 -282 -252q77 196 80 424q1 111 -11 198q-15 102 -69 234
q172 -178 283 -255q178 -124 335 -124h414v793l-8 70h-397q-167 0 -347 -124q-117 -80 -280 -249q77 196 80 426q1 109 -11 194q-15 100 -69 232q105 -105 137 -135q78 -74 147 -122q170 -120 343 -120h383q-42 159 -156 306q-54 57 -160 175q55 -18 166 -49q92 -22 227 -22
q139 0 221 19q33 8 78 23q11 4 93 29q-53 -52 -159 -171q-122 -153 -163 -310h733v-102h-747l-8 -68v-795h755v-102zM5150 102v1198q0 183 -109 354q-63 99 -184 220q-125 -125 -185 -222q-108 -174 -108 -349v-1201h586z" />
    <glyph glyph-name="uF52EC" unicode="&#x12223;&#x1214a;" horiz-adv-x="7890" 
d="M7570 0h-920q-175 0 -355 -124q-117 -80 -280 -249q74 197 86 373h-1188q-182 0 -369 -123q-94 -62 -284 -252q84 214 84 428q0 167 -67 279q67 91 67 274q0 159 -63 275q63 90 63 276q0 181 -35 291q-104 0 -284 -130q-148 -107 -283 -247q82 209 82 428q0 129 -12 201
q-17 99 -70 229q163 -168 297 -259q177 -120 336 -120h1425q87 31 193 106q102 72 155 122l160 151h47q53 -17 159 -47q95 -22 222 -22q145 0 217 17q56 17 168 52q-130 -122 -206 -234q-138 -203 -138 -392v-1201h793v-102zM3585 1929q-134 -134 -203 -237
q-143 -213 -143 -398v-1294h-102v1292q0 184 -109 360q-65 105 -184 224q-107 -112 -187 -244q-108 -178 -108 -340v-1292h-102v1290q0 192 -115 367q-19 29 -174 215q-132 -132 -188 -219q-109 -170 -109 -353v-1300h-103v379h-641q-178 0 -356 -124q-108 -75 -278 -251
q85 215 88 426q2 101 -16 195q-19 103 -72 231q92 -95 137 -137q79 -73 151 -120q180 -118 369 -118h618l-4 862h-1060q-192 0 -379 -126q-114 -77 -283 -246q79 202 82 426q1 113 -12 194q-17 104 -70 232q176 -181 291 -258q179 -119 364 -119h1049q-38 158 -156 307
q-54 58 -159 176q54 -17 164 -47q90 -22 227 -22q123 0 230 26q55 13 114 43q123 -69 346 -69q136 0 230 24q58 15 112 45q64 -32 109 -43q107 -26 239 -26q134 0 213 17q36 8 180 52zM6163 1206l-15 15q-8 8 -75 62q-79 64 -166 111q-39 21 -107 54h-1415
q124 -120 231 -173q138 -69 297 -69h1250zM6675 102v1198q0 172 -118 360q-78 125 -192 226l-110 -104q-82 -135 -82 -283q0 -139 90 -278l135 -146q0 -34 -9 -40.5t-44 -6.5l-78 76h-1354q-200 0 -388 -137q-53 -39 -107 -86q246 -226 495 -226h1344v-102h-1344
q-246 0 -499 -223q249 -228 477 -228h1212q-7 143 -47 266q-15 46 -41 111q105 -105 137 -135q79 -74 148 -122q172 -120 350 -120h25z" />
    <glyph glyph-name="uF52E0" unicode="&#x12295;&#x1214a;" horiz-adv-x="7108" 
d="M6788 379h-755v-379h-103v379h-399q-180 0 -357 -130q-45 -33 -276 -249q81 207 84 432q1 107 -15 196q-18 99 -73 232q63 -63 125 -127q74 -72 135 -117q183 -135 375 -135h401l-4 862h-393q-164 0 -348 -130q-113 -80 -289 -250q77 196 80 434q2 124 -10 194
q-19 112 -68 232q181 -175 289 -250q183 -127 346 -127h375q-38 158 -156 307q-54 58 -160 176q54 -17 164 -47q92 -22 227 -22q138 0 222 19q35 8 172 50q-53 -52 -160 -171q-122 -149 -164 -312h735v-103h-751l-4 -67v-795h755v-102zM4824 0h-483q-97 0 -222 -75
q-109 -65 -204 -165q18 31 31 104q14 77 14 136h-549q-97 0 -224 -74q-111 -65 -206 -164q16 29 32 109q15 77 15 164q0 168 -35 203q35 50 35 180q0 136 -35 184q35 64 35 199q0 56 -12 113q-8 22 -18 67q-229 -76 -379 -236q16 28 34 112q19 88 19 165q0 148 -53 274
q160 -160 334 -225q59 -22 114 -22h621q68 0 202 83q81 50 138 103l82 76q38 0 41 -27q72 -24 223 -24q126 0 226 31q27 8 48 20q-149 -149 -217 -325q-22 -57 -22 -107v-811h415v-68zM2893 1929q-70 -68 -199 -219q-145 -202 -145 -407v-1303h-102v1294q0 192 -116 362
q-59 71 -177 216q-65 -68 -183 -216q-112 -168 -112 -353v-1303h-103v379h-643q-244 0 -500 -252q-68 -67 -130 -121q85 215 88 426q2 101 -16 195q-19 103 -72 231q89 -88 279 -250q172 -127 351 -127h643l-4 862h-1087q-181 0 -359 -135q-57 -43 -139 -120
q-110 -104 -135 -125q79 202 82 428q2 114 -12 197q-18 108 -70 235q171 -171 296 -257q174 -120 333 -120h1073q-38 158 -156 307q-54 58 -160 176q54 -17 163 -47q90 -22 227 -22q208 0 346 69q50 -28 108 -43q104 -26 236 -26q135 0 222 19q37 8 173 50zM3999 829
q-35 39 -137 95q-105 57 -168 57h-598q104 -97 234 -138q44 -14 77 -14h592zM4341 68v811q0 90 -57 200q-53 101 -138 191l-65 -70q-64 -81 -64 -194q0 -84 68 -177l61 -67q0 -39 -45 -39l-34 39h-666q-59 0 -160 -53q-66 -35 -160 -105q123 -107 232 -143q45 -15 86 -15
h661v-67h-661q-134 0 -313 -143q92 -77 157 -114q94 -54 158 -54h559q0 92 -29 197q-9 31 -16 46q166 -166 315 -222q56 -21 111 -21z" />
    <glyph glyph-name="uF5264" unicode="&#x1227d;&#x12156;" horiz-adv-x="6678" 
d="M6358 1927q-128 -138 -197 -239q-143 -209 -143 -365v-1323h-102v1282q0 196 -108 366q-52 82 -187 224q-72 -76 -98 -106q-53 -61 -87 -116q-108 -174 -108 -354v-1296h-103v379h-2185q-152 0 -332 -130q-98 -71 -276 -249q79 201 82 432q1 113 -12 196q-17 103 -70 232
q173 -178 276 -252q177 -127 342 -127h2175v817q0 183 -137 389q-62 92 -200 240q54 -17 162 -46q96 -21 227 -21q237 0 344 69q60 -30 112 -43q104 -26 236 -26q189 0 297 37q49 17 92 30zM4849 1810l-136 -131q-81 -134 -81 -284q0 -157 84 -287l131 -135q0 -33 -9.5 -40
t-44.5 -7l-192 188q-6 6 -75 63q-77 64 -160 110q-45 25 -103 54h-1169q-193 0 -374 -124q-107 -73 -288 -254q79 201 82 434q1 113 -12 194q-17 104 -70 232q179 -185 295 -261q178 -118 367 -118h1165v2q148 66 348 229l186 183q36 0 46 -7.5t10 -40.5zM2234 860h-770
l532 -704l-88 -62l-578 766h-653q-173 0 -358 -123q-111 -74 -287 -250q79 202 82 424q1 113 -12 196q-17 103 -70 232q92 -95 136 -136q79 -74 149 -122q172 -118 364 -118h574l-90 118q-92 121 -304 192q-167 56 -380 81q431 111 661 520q-16 -118 -16 -295
q0 -144 15 -214q25 -116 101 -214l146 -188h846v-103z" />
    <glyph glyph-name="uF551F" unicode="&#x1230b;&#x12157;" horiz-adv-x="5541" 
d="M5221 1929q-69 -70 -198 -224q-146 -206 -146 -402v-1303h-1587q-172 0 -364 -124q-145 -93 -293 -247q85 215 88 426q1 85 -14 184q-14 90 -62 210h-139q-185 0 -372 -123q-105 -69 -286 -250q88 224 88 426q0 122 -38 256q-15 54 -33 102h-228q-254 0 -519 -243
q-71 -65 -136 -130q79 202 82 424q1 113 -12 196q-17 103 -70 232q182 -182 293 -256q180 -120 358 -120h232q67 201 67 366q0 115 -15 195q-18 99 -73 231q180 -185 289 -258q179 -119 373 -119h405q-28 166 -163 344q-60 69 -179 207q55 -17 166 -47q92 -22 229 -22
q147 0 221 17q33 8 78 23q11 4 93 29q-68 -75 -197 -238q-145 -210 -145 -388v-1135q141 -66 276 -66h1485v758h-971q-263 0 -521 -246q-67 -64 -128 -125q85 215 88 426q2 106 -15 195q-18 99 -73 231q92 -95 137 -137q78 -73 149 -122q173 -119 367 -119h967v337
q0 270 -244 531q-56 60 -94 98q55 -17 166 -47q92 -22 227 -22q138 0 220 19q34 8 171 50zM759 1432l-170 -164q-68 -112 -68 -359q0 -228 103 -387l133 -135q0 -34 -9 -40.5t-44 -6.5l-363 367q-111 80 -230 149q-42 24 -79 41v27q116 61 246 155q23 16 63 45l363 355
q36 0 45.5 -7t9.5 -40zM2911 551v725h-407q-192 0 -366 -114q-101 -66 -265 -230v-31q152 -162 277 -242q169 -108 356 -108h405zM2911 229v220h-248q156 -156 248 -220z" />
    <glyph glyph-name="uF544D" unicode="&#x1211d;&#x12195;" horiz-adv-x="7380" 
d="M7060 1343h-1223q-180 0 -356 -123q-117 -82 -279 -249q82 209 82 424q0 121 -12 195q-17 104 -70 233q148 -148 206 -196q123 -103 241 -148q88 -33 188 -33h1223v-103zM7060 381h-756v-381h-103v381h-364q-245 0 -504 -244q-69 -65 -131 -129q82 209 82 422
q0 122 -12 197q-16 103 -70 233q180 -185 289 -258q179 -119 368 -119h342v11q0 99 -88 243q-80 131 -180 226q25 -21 128 -39q118 -21 190 -21q67 0 188 21q103 18 141 39q-100 -87 -183 -217q-93 -145 -93 -242v-21h756v-102zM5091 57l-72 -71l-162 155q-163 91 -428 145
q-183 38 -434 54q-91 6 -165 7l-173 1l61 31h-1585v-309h-102v309h-369q-250 0 -505 -244q-68 -65 -130 -129q74 192 86 373h-450q-164 0 -344 -122q-112 -76 -287 -251q82 211 82 422q0 204 -66 293q66 123 66 289q0 177 -62 301q62 107 62 295q0 122 -12 194
q-17 104 -70 232q173 -178 289 -259q172 -120 342 -120h1417q-5 107 -20 171q-21 91 -68 208q110 -110 138 -136q79 -74 149 -122q177 -121 348 -121h1616q48 48 113 144q48 71 77 134q9 -40 13 -124q5 -103 8 -129q26 -215 125 -308l94 -88q6 14 21 38l20 30
q0 -496 99 -846q44 -156 122 -291zM4613 1202l-88 92q-48 50 -119 79q-133 54 -283 69q-61 6 -91 6q1 -72 14 -219q31 -182 139 -291l136 -137l57 59q46 48 115 151q43 64 120 191zM4249 737l-133 123q-58 54 -107 80q-110 59 -230 72q-55 6 -102 6q-17 0 -50 -1t-50 -1v-15
q0 -209 76 -363q35 -71 98 -134l74 -74q256 141 364 248zM4110 1550h-1483q-175 0 -342 -109q-98 -64 -258 -224q21 -3 26 -3h27q76 0 188 22q54 10 142 40q-83 -70 -162 -187q-84 -124 -107 -219q69 7 158 27q40 8 111 33q-162 -139 -244 -333q-27 -63 -33 -116h1506
q-137 121 -365 137q-73 5 -107 5q-14 0 -41.5 -1t-41.5 -1q96 48 146 80q89 57 144 110q48 46 108 135q44 65 62 107q41 18 125 70q107 67 150 110q61 61 114 143q24 36 62 105q63 32 115 69zM2078 1550h-1413q-152 0 -283 -77q-83 -49 -211 -166q173 -166 356 -222
q65 -20 138 -20h465v-102h-465q-133 0 -266 -73q-116 -64 -230 -169q260 -240 500 -240h446q-5 104 -20 170q-19 86 -68 207q136 -140 203 -197q121 -102 239 -147q86 -33 185 -33h375q-8 99 -93 235q-77 122 -171 212q21 -14 102 -33q92 -22 156 -25q-22 90 -103 213
q-72 111 -155 189q47 -31 241 -53q60 173 72 331zM1765 928h-2v2v-2h2z" />
    <glyph glyph-name="uF5338" unicode="&#x12217;&#x1219a;" horiz-adv-x="7913" 
d="M7593 358l-74 -71l-739 741q-108 108 -239 146q-103 30 -267 30v-151q0 -189 123 -312l174 -174q36 38 97 116q32 50 83 177v-213q0 -133 27 -216q34 -104 125 -195l283 -283l-74 -74l-287 289q-100 101 -236 130q-89 19 -261 19h-113q177 78 287 172l-185 187
q-89 90 -194 115q-75 18 -232 18q2 -94 6 -138q7 -77 25 -136q39 -131 150 -242l727 -727l-72 -72l-735 735q-175 175 -484 186q-84 3 -170 3q80 33 230 114q29 20 69 60q126 126 144 225l-176 176q-92 92 -245 130q-122 30 -308 30h-50q144 66 227 141q21 19 68 66
q171 171 193 268q104 28 250 174q40 37 114 115q50 59 101 182v-28q0 -238 17 -333q14 -76 41 -140q26 -59 81 -115l180 -180q49 14 92 42q31 20 91 80q112 112 170 215q25 44 55 113q0 -241 24 -363q16 -81 53.5 -158t96.5 -136zM5334 180h-717v-348h-102v348h-453v-348
h-102v348h-446v-348h-103v348h-385q-163 0 -338 -123q-81 -57 -276 -252q54 149 70 292q6 54 6 83h-1846q-147 0 -324 -123q-104 -72 -284 -252q80 204 80 428q0 190 -51 267q51 91 51 276q0 115 -12 192q-18 113 -70 240q167 -172 299 -260q182 -121 330 -121h395
q15 27 40 84q21 56 21 150q0 125 -53 276q55 117 55 275q0 179 -37 297q-18 56 -46 125q67 -68 135 -135q79 -76 146 -123q175 -121 349 -121h824l-4 85q-4 85 -31 181q-14 52 -39 113q67 -68 134 -135q79 -76 146 -123q172 -121 347 -121h346q-7 140 -47 266
q-17 52 -41 113q175 -180 288 -259q172 -120 357 -120h342q-7 139 -47 263q-17 52 -41 112q173 -179 286 -254q182 -121 347 -121h501v-103h-501q-167 0 -348 -122q-102 -69 -285 -252q74 197 86 374h-342q-182 0 -367 -126q-100 -68 -276 -244q74 192 86 370h-357
q-169 0 -340 -120q-81 -57 -274 -250q74 192 74 370h-826q-142 0 -261 -65q-97 -53 -214 -156q245 -225 500 -225h723v-102h-723q-161 0 -286 -66q-86 -45 -214 -158q252 -227 459 -227h790q-7 34 -26 102q90 -92 136 -136q78 -73 148 -121q167 -115 342 -115h373v16
q0 104 -89 243q-81 126 -181 222q25 -21 123 -43q110 -25 198 -25q84 0 183 33q32 13 96 35q30 -12 92 -35q99 -33 180 -33q84 0 181 27q55 15 98 41q34 -20 103 -39q100 -27 169 -27q77 0 189 22q52 10 141 40q-93 -77 -184 -213q-93 -140 -93 -238v-26h717v-103z
M6182 1251l-170 170q-125 125 -325 138q-37 2 -138 8l2 -47q4 -101 6 -128q6 -73 20 -127q34 -133 124 -223l149 -149q43 20 129 76q30 25 64 59q115 115 139 223zM4515 283v24q0 93 -73 208q-43 68 -154 190q-155 -155 -206 -286q-20 -52 -20 -97v-39h453zM3960 283v41
q0 82 -75 198q-59 91 -146 183q-152 -152 -206 -303q-19 -53 -19 -105v-14h446zM2488 283q0 55 -8 98q-5 23 -15 70h-823q-181 0 -402 -168h1248zM1117 510q2 85 -12 139q-10 39 -33 76h-438q-120 0 -241 -71q-73 -43 -201 -154q241 -217 444 -217h453q25 59 28 227z" />
    <glyph glyph-name="uF5333" unicode="&#x12290;&#x1219a;" horiz-adv-x="7907" 
d="M7587 358l-74 -71l-733 733q-184 184 -506 184v-151q0 -195 125 -320l172 -172q68 68 97 116t83 183v-213q0 -135 27 -219q35 -109 125 -199l277 -276l-72 -74l-279 279q-98 98 -238 135q-92 24 -263 24h-113q124 53 217 117q36 25 68 53l-187 187q-89 89 -192 116
q-73 19 -230 19q5 -199 26 -277q33 -124 142 -233l735 -735l-73 -70l-731 731q-174 174 -482 189q-84 4 -170 4q80 33 230 114q29 20 69 60q133 133 148 215l-172 172q-93 93 -249 137q-131 37 -312 37h-50q144 66 227 141q21 19 68 66q171 171 193 268q63 17 116 55
q68 49 134 119l16 17q102 108 145 179q25 41 54 101v-47q0 -278 58 -443q28 -79 77 -128l176 -176q83 24 139 72q44 38 113 112q60 64 109 151q25 44 55 113q0 -254 22 -365q16 -81 52.5 -158t95.5 -136zM5338 174h-1415v-350h-102v350h-783q-173 0 -349 -120
q-87 -59 -277 -249q54 150 70 287q6 53 6 82h-1842q-145 0 -326 -120q-110 -73 -286 -249q80 205 80 422q0 196 -51 273q51 91 51 278q0 115 -12 192q-17 110 -70 238q174 -179 289 -260q172 -121 317 -121h428q29 45 39 86q12 48 12 148q0 125 -53 276q55 117 55 275
q0 179 -37 297q-18 56 -46 125q67 -68 135 -135q79 -76 146 -123q175 -121 349 -121h824l-4 85q-4 85 -31 181q-14 52 -39 113q67 -68 134 -135q79 -76 146 -123q172 -121 347 -121h346q-7 140 -47 266q-17 52 -41 113q175 -180 288 -259q172 -120 357 -120h342
q-7 139 -47 263q-17 52 -41 112q173 -179 286 -254q182 -121 347 -121h501v-103h-501q-167 0 -348 -122q-102 -69 -285 -252q74 197 86 374h-342q-182 0 -367 -126q-100 -68 -276 -244q74 192 86 370h-357q-169 0 -340 -120q-81 -57 -274 -250q74 192 74 370h-826
q-142 0 -261 -65q-97 -53 -214 -156q245 -225 500 -225h723v-102h-723q-161 0 -286 -66q-86 -45 -214 -158q252 -227 459 -227h790q-7 34 -26 102q177 -182 284 -259q168 -120 342 -120h783v23q0 101 -88 240q-76 119 -180 219q23 -19 128 -40q110 -22 189 -22q76 0 188 22
q54 10 142 40q-178 -155 -251 -339q-26 -66 -26 -122v-21h1411zM6192 1235l-174 174q-93 93 -219 127q-80 22 -250 31l2 -47q4 -103 7 -130q5 -73 19 -128q34 -136 124 -226l153 -153q26 12 79 45q38 28 110 100q69 69 89 94q48 59 60 113zM2488 276q0 55 -8 103l-15 72
h-823q-102 0 -215 -54q-76 -37 -187 -121h1248zM1117 510q2 85 -12 139q-10 39 -33 76h-438q-120 0 -241 -71q-73 -43 -201 -154q190 -167 320 -206q60 -18 124 -18h453q25 58 28 234z" />
    <glyph glyph-name="uF5420" unicode="&#x1211e;&#x1219c;" horiz-adv-x="3420" 
d="M3100 1059l-68 -72l-256 254q-63 62 -206 89q-97 18 -236 18h-111q64 8 152 72q78 56 160 136q175 169 227 330v-135q0 -156 16 -252q23 -140 86 -203zM3100 168l-68 -72l-256 254q-63 62 -206 89q-97 18 -236 18h-111q64 8 152 72q73 53 160 137q175 170 227 329v-133
q0 -246 47 -368q20 -53 55 -88zM2412 1929q-124 -116 -202 -229q-140 -204 -140 -393v-1307h-103v279h-1261q-198 0 -387 -123q-100 -65 -287 -252q82 211 82 424q0 121 -12 195q-17 104 -70 233q176 -182 287 -254q186 -121 387 -121h647l-109 205h-352q-86 0 -183 -52
q-84 -45 -153 -114q13 22 20 86.5t7 111.5q0 92 -31 140q33 49 33 139q0 135 -33 207q115 -115 241 -160q45 -16 93 -16h174q-81 91 -266 112q41 8 81 35l93 62q27 18 77 57q24 23 50 53q88 10 162 68q103 81 135 133h-721q-180 0 -358 -124q-111 -77 -277 -249
q78 199 78 428q0 127 -10 185q-17 96 -68 239q177 -183 286 -258q172 -119 345 -119h1233q-70 141 -156 243q-42 45 -125 136q55 -18 168 -48q103 -21 240 -21q140 0 214 17q8 2 171 52zM1967 381v944l-18 123h-557v-191q0 -94 31 -157l84 -172h280v-68h-252l107 -207h145
v-67h-119l47 -88l-63 -27l-59 115h-265l109 -205h530zM1423 928l-72 141q-93 121 -227 133q-13 -52 -13 -133q0 -51 25 -106l16 -35h271zM1564 653l-113 207h-266l113 -207h266zM1214 653l-107 207h-223q-85 0 -138.5 -22t-115.5 -76q126 -109 250 -109h334z" />
    <glyph glyph-name="uF54FF" unicode="&#x12134;&#x1219c;" horiz-adv-x="8800" 
d="M8480 444h-358l157 -315l-90 -47l-182 362h-735l334 -671l-93 -43l-356 714h-686q-180 0 -358 -122q-86 -59 -279 -252q77 196 80 424q1 113 -13 190q-19 99 -69 227q82 214 82 414q0 128 -11 202q-14 92 -69 226q102 -105 131 -133q76 -74 141 -122q166 -122 332 -122
h217q-155 143 -512 258q223 20 422 111q73 33 182 124q42 38 129 111q42 5 157 34q135 34 208 71q153 77 251 172q43 42 91 98q-106 -302 -106 -475q0 -150 67 -285l109 -219h823v-102h-770l358 -727h416v-103zM5580 860h-412v-860h-100v860h-518v-860h-103v860h-518v-860
h-102v860h-414q-265 0 -523 -243q-69 -65 -134 -130q74 192 86 373h-193q-265 0 -523 -243q-69 -65 -134 -130q85 217 88 426q1 107 -15 195q-18 99 -73 231q180 -185 289 -258q177 -118 368 -118h195q-7 142 -47 265q-15 46 -41 111q179 -179 298 -257q182 -119 359 -119
h414v340q0 180 -140 386q-65 80 -196 240q54 -18 163 -48q96 -21 224 -21q139 0 212 22q54 16 95 47q50 -33 97 -47q75 -22 217 -22q131 0 208 22q53 15 101 47q50 -31 100 -45q86 -24 219 -24q147 0 221 17q33 8 78 23q11 4 93 29q-69 -70 -203 -227q-148 -199 -148 -385
v-354h412v-103zM2039 61l-72 -71l-161 151q-169 94 -428 147q-169 35 -435 55q-91 7 -165 8l-173 1l74 37l-67 72q-90 97 -253 138q-102 26 -247 26h-80q153 55 291 190q53 51 107 127q51 71 63 115q53 18 130 69q102 68 144 111q159 162 176 248q80 32 183 117
q73 60 125 125q62 77 99 142q22 38 32 60v-28q0 -252 64 -406q31 -74 81 -121l94 -88q8 18 41 68q0 -492 100 -846q45 -159 121 -291zM7538 1376l-90 180h-2q-76 152 -243 255q-124 76 -318 141q-92 -261 -92 -484q0 -42 10 -92h735zM7956 547l-365 727h-735l365 -727h735z
M7106 547l-367 727h-301q-152 0 -321 -120q-89 -63 -269 -243q166 -171 270 -246q164 -118 318 -118h670zM5068 963v368q0 117 -89 281q-63 115 -165 229q-179 -188 -239 -353q-25 -69 -25 -145v-380h518zM4447 963v387q0 134 -95 283q-58 91 -167 206q-169 -178 -231 -386
q-25 -84 -25 -175v-315h518zM1562 1206l-88 92q-72 75 -235 118q-138 36 -228 36h-31v-51q0 -199 70 -341q32 -65 84 -118l135 -137l57 59q46 48 115 151q26 39 61 95zM1197 741l-133 123q-58 54 -114 80q-119 56 -268 70q-63 6 -109 6h-47v-21q0 -134 23 -222
q41 -158 151 -269l73 -74q262 145 365 248z" />
    <glyph glyph-name="uF5310" unicode="&#x1200a;&#x121a0;" horiz-adv-x="5521" 
d="M5201 1929q-68 -70 -199 -229q-145 -207 -145 -397v-1303h-2455q-149 0 -328 -127q-113 -80 -277 -250q81 205 84 436q1 60 -22 186q-18 97 -62 230q169 -169 276 -246q176 -127 329 -127h2353v1198q0 207 -154 422h-2173q-166 0 -346 -120q-105 -70 -285 -250
q79 201 82 430q2 171 -35 297q-17 56 -45 125q70 -70 139 -137q147 -143 311 -208q86 -34 179 -34h2089q-34 34 -100 104q54 -18 164 -48q98 -21 227 -21q145 0 221 17q11 3 172 52zM4386 1536q-165 -165 -220 -307q-22 -57 -22 -107v-780h-1042q-42 0 -93 -21
q-109 -45 -218 -133q-56 -46 -95 -88q22 39 36 112q18 95 18 165q0 67 -18 160q-11 59 -36 114q111 -111 205 -168v639q0 99 -75 217q-62 98 -166 197q21 -17 108 -31q76 -12 168 -12q88 0 160 12q83 14 114 31q-27 -23 -77 -74q95 -95 192 -153q117 -70 207 -70h522
q-43 127 -219 297q20 -17 109 -31q76 -12 168 -12q87 0 159 12q85 14 115 31zM2658 551q-2 -33 -48 -33l-149 152q-27 27 -114 89q-98 70 -173 101v35q103 49 240 160q25 20 47 41l154 145q43 0 43 -41l-103 -102q-15 -23 -35 -100q-18 -70 -18 -126q0 -82 38 -179
q9 -23 15 -31zM1767 1466l-191 -192q-36 -61 -55 -179q-14 -86 -14 -186q0 -243 63 -340l195 -204q0 -48 -56 -48l-364 361q-17 17 -84 62q-92 62 -183 113q-42 23 -73 38l-2 37q156 82 266 158q39 27 76 57l366 375q35 0 45.5 -9t10.5 -43zM1308 549h-653q-172 0 -345 -122
q-92 -65 -278 -251q82 209 82 424q0 200 -62 307q62 93 62 316q0 120 -12 192q-17 104 -70 232l136 -136q145 -143 307 -204q88 -33 190 -33h643v-103h-643q-151 0 -283 -79q-72 -43 -225 -185q133 -128 224 -181q128 -75 272 -75h655v-102zM4077 928v205q0 16 -4 36h-568
q-114 -14 -249 -118q161 -123 280 -123h541zM4077 616v244h-539q-124 0 -280 -119q167 -125 266 -125h553zM4077 410v139h-553q-127 0 -301 -139h854zM3167 893q0 110 -40 158q40 42 40 155q0 83 -25 194q-8 34 -15 54q-158 -188 -158 -332v-676q81 -36 149 -36h27
q20 76 20 174q0 112 -36 155q38 38 38 154z" />
    <glyph glyph-name="uF5546" unicode="&#x1230b;&#x121a4;" horiz-adv-x="4331" 
d="M4011 1929q-136 -136 -201 -230q-143 -207 -143 -401v-1298h-102v1276q0 194 -107 369q-50 82 -186 225q-127 -127 -187 -225q-108 -177 -108 -369v-1276h-102v1276q0 191 -109 369q-50 82 -188 227q-121 -121 -183 -218q-106 -166 -106 -354v-1300h-103v449h-723
q-265 0 -523 -243q-69 -65 -134 -130q80 204 80 426q0 166 -39 290q-15 48 -43 121q82 223 82 412q0 127 -12 199q-17 99 -70 229q105 -105 137 -135q79 -74 148 -122q172 -120 354 -120h735q-28 184 -159 356q-61 64 -181 197q55 -18 168 -48q103 -21 234 -21q132 0 221 21
q35 8 121 48q34 -18 105 -47q73 -22 239 -22q131 0 222 21q64 15 126 48q60 -33 116 -47q86 -22 228 -22q143 0 219 17q19 4 174 52zM759 1432l-170 -164q-68 -112 -68 -359q0 -228 103 -387l133 -135q0 -34 -9 -40.5t-44 -6.5l-363 367q-111 80 -230 149q-42 24 -79 41v27
q116 61 246 155q23 16 63 45l363 355q36 0 45.5 -7t9.5 -40zM2186 551v723h-743q-250 0 -487 -233q-67 -66 -123 -128q120 -132 189 -191q111 -95 228 -139q85 -32 183 -32h753z" />
    <glyph glyph-name="uF53FD" unicode="&#x12056;&#x121a8;" horiz-adv-x="7006" 
d="M6686 2054l-135 -133q-82 -135 -82 -285q0 -156 84 -286l131 -136q0 -32 -9.5 -39.5t-43.5 -7.5l-193 189q-26 21 -75 62q-110 91 -267 167h-1616q-265 0 -523 -243q-69 -65 -134 -130q85 217 88 426q1 107 -15 195q-18 99 -73 231q180 -185 289 -258q177 -118 368 -118
h1616q148 66 348 229l187 184q37 0 46 -6.5t9 -40.5zM6444 137h-1962q-189 0 -371 -122q-106 -71 -286 -251q85 217 88 426q1 107 -15 195q-18 99 -73 231q99 -99 139 -135q79 -74 150 -122q175 -119 368 -119h1962v-103zM3786 391q0 -34 -9 -42.5t-44 -8.5l-377 369
q-43 33 -131.5 96t-149.5 90l-2 31q81 42 154 95l129 93l375 365q36 0 45.5 -7t9.5 -40l-160 -166q-39 -66 -60 -186q-20 -113 -20 -175q0 -74 18 -170q23 -123 60 -180zM3202 1929q-69 -72 -198 -228q-146 -206 -146 -401v-200q107 0 183 19q60 15 159 48
q-69 -70 -198 -223q-144 -201 -144 -403v-541h-102v379h-897v-344h-103v344h-413v-344h-103v344h-413v-344h-103v344h-35q-265 0 -523 -243q-69 -65 -134 -130q77 196 80 426q1 108 -11 197q-14 99 -69 233q95 -98 138 -138q79 -74 151 -122q182 -121 368 -121h35v41
q0 79 -91 235t-179 240q27 -22 123 -42q112 -23 205 -23q157 0 256 53q99 -53 256 -53q163 0 256 53q93 -53 260 -53q85 0 195 23q84 18 128 42q-99 -86 -183 -226q-91 -152 -91 -247v-43h897v62q0 203 -141 399q-32 45 -201 225q49 -16 149 -44q81 -19 193 -23v205l-4 38
h-2061q-191 0 -371 -121q-106 -71 -286 -251q75 191 78 426q2 121 -9 194q-15 100 -69 232q180 -185 289 -258q179 -119 368 -119h2042q-42 159 -160 308q-55 57 -163 175q55 -18 168 -48q103 -21 231 -21q145 0 221 17q11 3 172 52zM1756 481v43q0 87 -63 202
q-53 97 -145 198q-91 -91 -147 -199q-58 -112 -58 -203v-41h413zM1240 481v43q0 90 -61 203q-57 107 -141 199q-140 -140 -194 -305q-17 -52 -17 -99v-41h413z" />
    <glyph glyph-name="uF54E6" unicode="&#x1226d;&#x121a8;" horiz-adv-x="7344" 
d="M7024 2054l-135 -131q-82 -135 -82 -283q0 -158 84 -288l131 -135q0 -33 -9 -40.5t-44 -7.5l-193 189q-26 21 -75 62q-83 69 -159 111q-36 20 -104 54h-1751q-269 0 -528 -244q-69 -65 -131 -129q85 217 88 426q1 102 -16 195q-19 103 -72 231q91 -94 137 -137
q80 -73 151 -121q177 -118 369 -118h1749v2q148 66 348 229l187 182q37 0 46 -6.5t9 -40.5zM6786 139h-2121q-169 0 -351 -124q-128 -87 -284 -248q85 217 88 426q2 157 -42 300q-16 53 -46 125q95 -95 139 -135q80 -74 150 -122q173 -119 346 -119h2121v-103zM3989 1436
l-158 -166q-39 -66 -60 -186q-20 -113 -20 -175q0 -74 18 -170q23 -123 60 -180l158 -166q0 -33 -9.5 -40t-44.5 -7l-372 367q-43 33 -131.5 96t-149.5 90l-2 31q81 42 154 95l129 93l372 365q37 0 45 -5q11 -8 11 -42zM3370 55l-71 -71l-162 155q-163 91 -428 145
q-105 22 -228 35q-218 24 -371 26q-69 1 -102 1h-71l73 37l-67 72q-90 97 -253 138q-99 25 -247 25h-80q151 55 291 191q93 90 147 189q17 31 23 53q53 18 130 69q102 68 144 111q160 164 177 248q118 47 247 176q53 53 114 141q47 67 77 133v-35q0 -251 64 -405
q31 -74 81 -121l94 -88q8 18 41 68q0 -297 34 -538q51 -361 188 -599zM1613 1237l-87 -93q-136 -145 -216 -325q-43 -96 -43 -194v-625h-102v623q0 164 -138 371q-73 110 -198 243q220 -66 336 -66v132q0 262 -262 533q-61 63 -89 93q56 -18 169 -48q100 -21 233 -21
q145 0 222 17q14 3 173 52q-126 -118 -204 -231q-140 -204 -140 -395v-132q109 0 183 18q70 17 163 48zM984 950l-67 -71l-256 254q-65 64 -206 88q-94 16 -237 16h-110q74 22 157 79q63 43 154 132q104 101 148 169q53 82 79 161v-136q0 -149 17 -251q23 -139 86 -203z
M909 236l-68 -72l-256 254q-63 62 -206 89q-91 17 -236 17h-111q78 18 159 76q57 40 152 133q104 101 148 169q55 85 80 161v-135q0 -156 16 -252q23 -140 86 -203zM2893 1200l-88 92q-72 75 -235 118q-138 36 -228 36h-31v-51q0 -29 5 -98q9 -130 65 -243q32 -65 84 -118
l135 -137l58 59q41 42 114 151q55 82 121 191zM2529 735l-134 123q-59 54 -114 80q-119 56 -268 70q-63 6 -109 6h-47v-21q0 -134 23 -222q42 -160 151 -269l74 -74q256 141 364 248z" />
    <glyph glyph-name="wF5466" unicode="&#x1220a;&#x121aa;" horiz-adv-x="5622" 
d="M5238 1518q-163 -163 -220 -313q-22 -58 -22 -109v-613h-852q-100 0 -221 -74q-105 -64 -203 -167q22 39 36 111q18 95 18 165q0 67 -18 160q-12 60 -36 115q133 -133 246 -191v492q0 79 -77 212q-72 124 -164 212q25 -21 108 -36q98 -18 168 -18q67 0 160 18
q76 15 114 36q-64 -64 -100 -113q94 -81 195 -138q108 -61 194 -61h342q-51 149 -219 312q25 -20 109 -36q98 -18 168 -18q66 0 159 18q77 15 115 36zM5302 70h-1960v-340h-103v340h-448v-340h-103v340h-450v-340h-103v340h-297q-177 0 -352 -118q-114 -76 -283 -251
q81 214 91 369h-629q-152 0 -338 -121q-148 -96 -295 -248q82 209 82 422q0 94 -31 236q-27 123 -51 157q26 41 51 157q31 142 31 247q0 102 -29 233q-28 124 -53 158q29 50 55 166q27 122 27 239q0 118 -11 193q-14 98 -69 231q173 -178 294 -260q179 -121 345 -121h623
q-7 143 -47 269q-15 47 -41 112q103 -103 139 -136q80 -75 150 -123q177 -122 345 -122h351q-7 143 -47 269q-15 47 -41 112q112 -112 137 -136q80 -75 149 -123q175 -122 348 -122h349q-7 143 -47 269q-15 47 -41 112q97 -100 137 -138q80 -75 151 -122q182 -121 369 -121
h1645v-102h-1645q-269 0 -523 -239q-69 -65 -134 -130q75 193 86 369h-347q-257 0 -505 -240q-68 -66 -129 -129q75 193 86 369h-326q-269 0 -523 -239q-69 -65 -134 -130q77 199 88 369h-650q-133 0 -305 -122q-94 -67 -264 -224q156 -150 263 -227q168 -121 302 -121h592
v-103h-610q-140 0 -302 -121q-29 -22 -245 -221q78 -79 243 -224q160 -122 306 -122h666q-5 101 -21 172q-21 90 -68 209q98 -98 139 -136q80 -74 150 -123q175 -122 346 -122h297v14q0 100 -88 244q-76 123 -180 223q23 -19 128 -40t189 -21q50 0 145 22q55 13 136 41
q38 -22 107 -41q86 -24 165 -24q84 0 230 43q36 11 51 20q30 -17 109 -39q86 -24 161 -24q122 0 274 41q39 11 56 20q-102 -88 -185 -221q-91 -145 -91 -246v-12h1960v-102zM4929 963v141q0 15 -4 35h-369q-90 0 -227 -88q137 -88 227 -88h373zM4929 723v172h-373
q-90 0 -225 -84q134 -88 225 -88h373zM4929 551v104h-371q-111 0 -256 -104h627zM4189 686q0 39 -12 66q-19 47 -22 57q34 75 34 123q0 64 -38 117q38 68 38 122q0 99 -32 211q-123 -161 -123 -286v-525q56 -20 108 -20h33q14 39 14 135zM3239 172v23q0 79 -69 201
q-62 109 -152 204q-85 -85 -156 -205t-71 -211v-12h448zM2688 172v23q0 83 -70.5 200t-154.5 205q-152 -159 -206 -319q-19 -56 -19 -109h450z" />
    <glyph glyph-name="uF5614" unicode="&#x122a9;&#x121aa;" horiz-adv-x="4387" 
d="M4067 1929q-70 -71 -200 -225q-145 -204 -145 -428v-1276h-102v242h-1196q-167 0 -348 -125q-131 -90 -287 -252q88 270 88 426q0 172 -63 315q54 103 61 254h-598q-164 0 -339 -124q-89 -63 -279 -253q78 225 80 430q2 175 -80 420q169 -174 281 -252q170 -118 337 -118
h598q-4 84 -61 262q30 68 45 133q18 77 18 174q0 114 -15 194q-19 100 -73 232q98 -98 138 -135q80 -74 150 -122q174 -120 347 -120h1126q-54 114 -144 217q-42 43 -124 131q54 -18 164 -48q98 -21 227 -21q146 0 222 17q34 8 79 23q11 4 93 29zM1603 1608l-68 -72
l-256 254q-63 62 -206 89q-91 17 -236 17h-41q-204 -204 -278 -405q-33 -90 -33 -193v-946q58 86 98 195v-146q0 -155 16 -251q23 -140 86 -203l234 -234l-70 -69l-252 247q-68 66 -206 92q-91 17 -238 17h-121q146 23 350 231v1067q0 280 -255 539l-89 90q55 -17 166 -46
q98 -21 229 -21q202 0 340 69q102 21 265 176q169 161 227 330v-135q0 -156 16 -252q23 -140 86 -203zM3620 963v313q0 101 -31 203h-1142q-219 0 -421 -156q-62 -48 -114 -96q127 -122 230 -183q137 -81 282 -81h1196zM3620 344v516h-1196q-138 0 -270 -75
q-96 -54 -228 -177q72 -67 109 -98q63 -52 118 -86q131 -80 271 -80h1196z" />
    <glyph glyph-name="uF5544" unicode="&#x1202b;&#x121ac;" horiz-adv-x="3680" 
d="M3360 2017l-135 -131q-82 -135 -82 -282q0 -159 84 -289l131 -135q0 -34 -9 -40.5t-44 -6.5l-193 188q-26 21 -75 62q-110 91 -267 167h-1356q-164 0 -339 -124q-92 -65 -279 -252q35 100 56 212q23 121 24 218q2 174 -80 419q157 -162 279 -249q170 -121 321 -121h1374
q148 66 348 229l187 182q37 0 46 -6.5t9 -40.5zM2655 995q-118 -118 -169 -193q-72 -106 -72 -198v-295h-68v295q0 94 -57 182q-37 56 -131 156q-135 -150 -176 -268q-17 -49 -17 -90v-275h-67v273q0 92 -77 216q-61 97 -165 197q31 -13 108 -32q87 -21 134 -21v148
q0 78 -81 208q-63 100 -161 209q116 -49 274 -49q144 0 224 49q82 -49 227 -49q181 0 274 49q-90 -90 -163 -208q-78 -126 -78 -201v-156q47 0 134 21q61 15 107 32zM1648 1253l-105 -98q-17 -25 -33 -100q-18 -82 -18 -129q0 -54 21 -127q19 -67 32 -84l97 -105
q0 -43 -39 -43l-152 156q-28 29 -113 89q-98 70 -173 101v35q72 34 166 104q81 60 120 97l154 145q43 0 43 -41zM3360 639l-135 -131q-82 -135 -82 -283q0 -158 84 -288l131 -136q0 -34 -9 -40.5t-44 -6.5l-193 189q-26 21 -75 62q-76 63 -161 112q-40 23 -106 55v2h-1356
q-164 0 -339 -124q-89 -63 -279 -253q78 225 80 430q2 175 -80 420q253 -261 442 -337q84 -34 176 -34h1360q145 66 344 228l187 182q37 0 46 -6.5t9 -40.5zM747 1436l-127 -119q-111 -104 -111 -408q0 -183 60 -312q20 -43 49 -73l127 -131q0 -33 -9.5 -40t-44.5 -7
l-372 367l-63 45q-77 56 -148 99q-39 23 -76 40v31q97 51 287 190l372 365q37 0 45 -5q11 -8 11 -42zM2346 942v156q0 75 -60 175q-51 84 -134 177q-187 -207 -187 -358v-150q40 0 98 14q64 16 91 37q85 -51 192 -51z" />
    <glyph glyph-name="uF52F6" unicode="&#x122f0;&#x121b2;" horiz-adv-x="8906" 
d="M8586 860h-380v-860h-103v860h-518v-860h-102v860h-516v-860h-103v856q-163 -22 -324 -134q-113 -78 -264 -235q75 197 86 373h-241q-254 0 -506 -244q-68 -66 -129 -129q85 215 88 426q2 106 -15 195q-18 99 -73 231q140 -140 208 -196q124 -103 242 -148
q84 -32 185 -32h243q-8 177 -88 376q153 -163 262 -241q158 -113 326 -131v319q0 268 -264 551q-59 63 -82 92q55 -17 167 -47q95 -22 230 -22q127 0 213 24q56 15 97 45q42 -30 95 -45q84 -24 216 -24q240 0 309 69q35 -30 96 -47q79 -22 215 -22q139 0 216 17q31 7 178 52
q-209 -209 -302 -429q-42 -99 -42 -197v-340h380v-103zM5582 51l-72 -71l-161 155q-163 91 -428 145q-183 38 -435 54q-123 8 -266 8h-72l74 37l-67 72q-93 100 -251 139q-106 26 -245 26q-14 0 -42 -1t-42 -1q108 54 225 134q67 46 123 118q46 59 90 139q9 17 23 42
q38 16 126 70q134 82 211 180q43 54 91 136q14 24 22 42q30 13 108 64q124 82 200 179q62 80 99 146q22 40 32 61q9 -39 12 -124q3 -97 7 -129q29 -217 126 -308l94 -88q10 24 41 70q0 -316 33 -541q53 -364 188 -598zM3823 1929q-69 -66 -199 -216q-143 -197 -143 -413
v-1300h-103v860h-1069q-173 0 -346 -124q-101 -73 -266 -249l10 31h-1018q-184 0 -371 -123q-105 -69 -286 -250q80 204 80 422q0 98 -19 207q-17 97 -38 139q15 45 33 135q24 120 24 214q0 132 -9 194q-15 100 -69 232q94 -94 139 -135q79 -72 150 -121q177 -121 346 -121
h1034l-12 39q148 -157 243 -230q205 -157 377 -157h1067v335q0 209 -140 408q-27 39 -200 223q55 -17 167 -47q95 -22 227 -22q161 0 391 69zM8103 963v337q0 170 -90 322q-46 77 -122 162q-23 27 -46 51q-111 -111 -171 -221q-89 -164 -89 -338v-313h518zM7483 963v313
q0 182 -88 337q-58 103 -170 220q-171 -181 -232 -351q-26 -73 -26 -155v-364h516zM5105 1196l-88 92q-80 84 -266 125q-131 29 -228 29q2 -16 2 -39v-51q0 -176 75 -316q31 -57 77 -104l135 -137l57 59q46 48 115 151q55 82 121 191zM4740 731l-133 123q-60 55 -106 80
q-110 59 -231 72q-55 6 -101 6q-17 0 -50 -1t-50 -1v-15q0 -136 23 -225q41 -161 151 -272l73 -74q255 138 365 248zM1773 913q0 161 -35 295h-1069q-184 0 -320 -93q-53 -36 -223 -200q202 -210 370 -268q75 -26 171 -26h1071q29 130 33 205q2 37 2 87z" />
    <glyph glyph-name="uF52C2" unicode="&#x12074;&#x121b3;" horiz-adv-x="4243" 
d="M3923 719l-53 -86l-360 227l-1117 -735q-64 -42 -112 -114q-60 -90 -99 -223q-5 -15 -59 -237q-22 138 -62 219q-11 22 -92 152q-118 189 -270 297q225 -55 375 -55q128 0 215 29q33 11 63 26l1061 703l-524 331q-98 62 -178 86q-70 21 -168 21q-103 0 -209 -25l-201 -47
q171 123 275 271l-97 61q-59 37 -158 57q-84 17 -163 17q-152 0 -397 -60q191 136 301 312q59 94 90 174q39 99 61 237q55 -257 109 -377q86 -191 248 -292l-3 -5l62 -38q51 93 73 153q34 96 52 213q53 -250 107 -375q36 -84 97.5 -161.5t151.5 -133.5l-2 -2l565 -356
l351 231l57 -86l-311 -206zM2756 805l-51 -47l-103 102q-105 104 -336 113q9 -237 121 -346l99 -97l-46 -45l-102 101q-56 56 -155 82q-82 22 -195 28q14 -233 127 -346l98 -98l-45 -45l-90 90q-125 125 -438 125q19 5 86 45q72 43 125 96q35 35 68.5 88.5t33.5 87.5
q90 20 150 80l-62 64q-121 125 -438 125q19 5 86 45q72 43 125 96q105 105 137 201q0 -272 127 -414l68 -76q66 66 81 150q29 4 82 33q71 38 138 116t92 154q0 -135 29 -237q33 -118 85 -169zM1847 -111l-68 -71l-256 254q-65 65 -206 91q-91 17 -236 17h-111q61 8 155 72
q45 31 83 63q20 17 73 70l31 31v444h-629q-176 0 -363 -123q-111 -73 -288 -250q79 202 82 424q1 113 -12 196q-17 103 -70 232q171 -176 288 -255q180 -121 365 -121h627v352q0 172 -137 378q-78 117 -199 238q55 -17 166 -48q88 -23 227 -23t221 19q33 8 78 23q11 4 93 29
q-41 -42 -123 -131q-153 -177 -203 -342q-21 -69 -21 -137v-786q69 98 95 182v-135q0 -156 16 -252q23 -140 86 -203z" />
    <glyph glyph-name="uF5362" unicode="&#x1219c;&#x121b3;" horiz-adv-x="4976" 
d="M4656 670l-67 -72l-256 254q-65 65 -206 91q-107 20 -237 20h-110q61 4 152 69q81 58 159 135q172 169 227 330v-135q0 -242 48 -367q20 -53 55 -88zM3780 963l-64 -74l-231 219q-61 58 -194 86q-95 20 -248 20h-111q58 4 153 72q69 50 158 137q174 171 228 330v-135
q0 -156 16 -252q24 -143 86 -203zM4040 72l-68 -72l-256 254q-63 63 -205 89q-91 17 -237 17h-111q58 7 153 72q53 36 159 137q101 96 154 164q62 79 89 156v-178q0 -139 13 -225q18 -122 73 -177zM2680 444h-358l157 -315l-90 -47l-182 362h-735l334 -671l-93 -43l-356 714
h-686q-180 0 -358 -122q-86 -59 -279 -252q77 196 80 424q1 113 -13 190q-19 99 -69 227q82 214 82 414q0 128 -11 202q-14 92 -69 226q102 -105 131 -133q76 -74 141 -122q166 -122 332 -122h217q-155 143 -512 258q223 20 422 111q73 33 182 124q42 38 129 111
q42 5 157 34q135 34 208 71q153 77 251 172q43 42 91 98q-106 -302 -106 -475q0 -150 67 -285l109 -219h823v-102h-770l358 -727h416v-103zM1738 1376l-90 180h-2q-76 152 -243 255q-124 76 -318 141q-92 -261 -92 -484q0 -42 10 -92h735zM2156 547l-365 727h-735l365 -727
h735zM1306 547l-367 727h-301q-152 0 -321 -120q-89 -63 -269 -243q166 -171 270 -246q164 -118 318 -118h670z" />
    <glyph glyph-name="uF5618" unicode="&#x122a9;&#x121b3;" horiz-adv-x="3610" 
d="M3290 754l-71 -72l-248 242q-67 65 -206 91q-102 19 -236 19h-111q60 4 152 70q194 139 306 306q54 81 81 159v-135q0 -156 16 -252q24 -142 86 -203zM2418 1034l-64 -73l-231 219q-61 58 -194 86q-95 20 -248 20h-111q58 4 153 72q69 50 158 137q174 171 228 330v-135
q0 -156 16 -252q24 -143 86 -203zM2682 145l-67 -67l-261 248q-36 34 -91 56q-102 40 -236 47q-60 3 -115 3h-111q141 22 318 199q187 187 237 330v-179q0 -316 86 -401zM2270 860h-993q-164 0 -339 -124q-89 -63 -279 -253q78 225 80 430q2 175 -80 420q169 -174 281 -252
q170 -118 337 -118h993v-103zM1603 1608l-68 -72l-256 254q-63 62 -206 89q-91 17 -236 17h-41q-204 -204 -278 -405q-33 -90 -33 -193v-946q58 86 98 195v-146q0 -155 16 -251q23 -140 86 -203l234 -234l-70 -69l-252 247q-68 66 -206 92q-91 17 -238 17h-121
q146 23 350 231v1067q0 280 -255 539l-89 90q55 -17 166 -46q98 -21 229 -21q202 0 340 69q102 21 265 176q169 161 227 330v-135q0 -156 16 -252q23 -140 86 -203z" />
    <glyph glyph-name="uF5365" unicode="&#x1219c;&#x121b8;" horiz-adv-x="5875" 
d="M5555 1929q-111 -103 -199 -228q-145 -206 -145 -401v-1300h-1712q-176 0 -350 -121q-107 -74 -281 -254q84 215 87 430q0 24 -3 98q-4 94 -37 200q-15 48 -47 126q76 -80 240 -227v1048q0 270 -258 537q-60 62 -88 92q55 -18 168 -48q103 -21 233 -21q134 0 216 19
q39 9 167 50q-20 57 -57 172q94 -96 137 -137q79 -75 150 -123q177 -121 366 -121h803q-55 74 -102 125l-78 84q55 -18 167 -48q100 -21 224 -21q137 0 224 19q44 10 175 50zM2680 444h-358l157 -315l-90 -47l-182 362h-735l334 -671l-93 -43l-356 714h-686
q-180 0 -358 -122q-86 -59 -279 -252q77 196 80 424q1 113 -13 190q-19 99 -69 227q82 214 82 414q0 128 -11 202q-14 92 -69 226q102 -105 131 -133q76 -74 141 -122q166 -122 332 -122h217q-155 143 -512 258q223 20 422 111q73 33 182 124q42 38 129 111q42 5 157 34
q135 34 208 71q153 77 251 172q43 42 91 98q-106 -302 -106 -475q0 -150 67 -285l109 -219h823v-102h-770l358 -727h416v-103zM5109 102v1198q0 137 -96 318h-871q-182 0 -369 -123q-94 -62 -284 -252q82 209 82 430v86q0 63 -8 107q-2 11 -13 55q-212 -187 -300 -408
q-39 -98 -39 -213v-1116q150 -82 288 -82h1610zM1738 1376l-90 180h-2q-76 152 -243 255q-124 76 -318 141q-92 -261 -92 -484q0 -42 10 -92h735zM2156 547l-365 727h-735l365 -727h735zM1306 547l-367 727h-301q-152 0 -321 -120q-89 -63 -269 -243q166 -171 270 -246
q164 -118 318 -118h670z" />
    <glyph glyph-name="uF55B6" unicode="&#x121b8;&#x121b8;" horiz-adv-x="5144" 
d="M4824 1929q-69 -70 -198 -223q-146 -203 -146 -403v-1303h-1708q-250 0 -505 -244q-68 -65 -130 -129q74 197 86 373h-1454q-176 0 -350 -121q-107 -74 -281 -254q84 215 87 430q0 24 -3 98q-4 94 -37 200q-15 48 -47 126q76 -80 240 -227v1048q0 270 -258 537
q-60 62 -88 92q55 -18 168 -48q103 -21 233 -21q134 0 216 19q39 9 167 50q-20 57 -57 172q183 -188 290 -261q175 -118 363 -118h801q-55 74 -102 124l-78 83q55 -18 167 -48q100 -21 224 -21q147 0 224.5 17t162.5 48q-28 107 -55 174q106 -106 137 -135q80 -74 149 -122
q174 -120 367 -120h815q-36 48 -184 207q54 -18 163 -48q96 -21 226 -21q145 0 222 17q14 3 173 52zM4378 102v1174q0 178 -90 344h-879q-264 0 -518 -243q-68 -65 -133 -130q82 223 82 426q0 99 -5 141q-4 33 -22 105q-129 -129 -198 -230q-136 -199 -136 -389v-1114
q78 -44 125 -60q70 -24 162 -24h1612zM2377 256v1044q0 139 -96 320h-869q-184 0 -369 -124q-94 -63 -284 -253q82 209 82 430v86q0 63 -8 107q-2 11 -13 55q-212 -187 -300 -408q-39 -98 -39 -213v-1116q150 -82 288 -82h1454q-7 150 -45 266q-15 46 -41 111
q150 -156 240 -223z" />
    <glyph glyph-name="uF526C" unicode="&#x12364;&#x121b8;" horiz-adv-x="7245" 
d="M6925 1929q-111 -103 -199 -228q-145 -206 -145 -401v-1300h-1712q-176 0 -350 -121q-107 -74 -281 -254q84 215 87 430q0 24 -3 98q-4 94 -37 200q-15 48 -47 126q76 -80 240 -227v1048q0 270 -258 537q-60 62 -88 92q55 -18 168 -48q103 -21 233 -21q134 0 216 19
q39 9 167 50q-20 57 -57 172q94 -96 137 -137q79 -75 150 -123q177 -121 366 -121h803q-55 74 -102 125l-78 84q55 -18 167 -48q100 -21 224 -21q137 0 224 19q44 10 175 50zM3690 1501l-45 -45l-129 121q-20 19 -111 33q-76 12 -168 12q0 -138 29 -225q11 -34 22 -45
l125 -125l-47 -47l-125 125q-21 17 -111 29q-77 9 -169 9q0 -137 28 -221q10 -29 23 -47l125 -125l-45 -45l-129 121q-22 20 -126 35q-86 12 -184 12q40 9 93 53q60 50 92 82q43 43 89 127q11 19 13 31q73 17 148 92l-109 109q-11 11 -48 20q-95 23 -263 23q36 8 90 53
q32 26 92 82q57 59 71 78q35 44 50 92q0 -143 32 -248q12 -38 25 -55l105 -105q20 20 52 67t32 71q27 4 86 43q50 34 86 71q53 56 71 78q36 47 50 92q0 -144 30 -249q10 -35 25 -54zM4048 592l-49 -45l-125 125q-23 23 -112 34q-77 9 -169 9q0 -133 28 -226q10 -33 22 -45
l129 -129l-45 -47l-129 129q-22 18 -112 30q-77 9 -169 9q0 -81 12 -153q14 -81 39 -115l119 -119l-49 -49l-119 119q-11 11 -48 20q-111 27 -261 27q39 9 92 53q60 50 92 82q43 43 89 127q12 22 14 31q71 16 147 92l-109 108q-22 22 -126 34q-85 9 -185 9q34 8 90 54
q32 26 92 82q61 64 72 77q33 42 49 93q0 -86 14 -170q17 -101 44 -136l104 -104q22 22 53 69.5t31 69.5q26 4 86 46q45 32 86 75q36 37 71 74q35 42 50 90q9 -153 37 -254q10 -38 24 -55zM2553 1171q-122 -131 -199 -247q-145 -218 -145 -367v-557h-102v553q0 157 -110 328
q-72 112 -191 225q-67 -71 -98 -106q-51 -60 -86 -115q-105 -166 -105 -328v-557h-103v567q0 36 -16 97q-11 42 -29 94h-698q-173 0 -355 -123q-105 -71 -284 -250q79 202 82 428q1 112 -12 193q-17 102 -70 231q92 -92 139 -135q79 -73 150 -122q172 -120 350 -120h645
q-50 87 -133 188q-20 24 -107 121q49 -17 149 -46q89 -22 189 -25v225q0 236 -253 512q-61 66 -85 94q55 -17 165 -47q95 -22 231 -22q244 0 338 69q39 -25 133 -45q110 -24 219 -24q138 0 220 19q34 8 171 50q-124 -124 -201 -238q-143 -212 -143 -393v-200q143 0 257 43
q22 8 87 30zM1046 1026l-70 -63l-250 243q-56 54 -201 85q-113 24 -243 24h-113q63 8 167 82q50 36 92 71q109 92 210 246q47 72 72 148v-148q0 -122 31 -264q33 -152 71 -190zM6479 102v1198q0 137 -96 318h-871q-182 0 -369 -123q-94 -62 -284 -252q82 209 82 430v86
q0 63 -8 107q-2 11 -13 55q-212 -187 -300 -408q-39 -98 -39 -213v-1116q150 -82 288 -82h1610zM2107 1098v196q0 248 -202 474q-58 64 -95 100q-189 -148 -265 -378q-28 -85 -28 -187v-205q196 0 289 73q33 -19 124 -45q98 -28 177 -28z" />
    <glyph glyph-name="uF55B9" unicode="&#x121e7;&#x121e7;" horiz-adv-x="5697" 
d="M5377 1929q-69 -70 -198 -223q-146 -203 -146 -403v-1303h-1984q-250 0 -505 -244q-68 -65 -130 -129q74 197 86 373h-1731q-176 0 -350 -121q-107 -74 -281 -254q84 215 87 430q0 24 -3 98q-4 94 -37 200q-15 48 -47 126q76 -80 240 -227v1048q0 270 -258 537
q-60 62 -88 92q55 -18 168 -48q103 -21 233 -21q134 0 216 19q39 9 167 50q-20 57 -57 172q183 -188 290 -261q175 -118 363 -118h1078q-51 69 -103 124l-78 83q55 -18 167 -48q100 -21 225 -21q147 0 224.5 17t162.5 48q-26 99 -56 174q105 -105 137 -135q80 -75 149 -122
q174 -120 368 -120h1091q-36 48 -184 207q54 -18 164 -48q98 -21 227 -21q145 0 221 17q11 3 172 52zM4931 102v1174q0 178 -90 344h-1155q-189 0 -369 -122q-100 -68 -283 -251q82 223 82 426q0 130 -13 190q-7 31 -13 56q-132 -132 -199 -230q-135 -198 -135 -389v-1114
q78 -44 125 -60q31 -11 71 -17q44 -7 91 -7h1888zM2653 256v1044q0 139 -96 320h-1145q-184 0 -369 -124q-94 -63 -284 -253q82 209 82 430v86q0 63 -8 107q-2 11 -13 55q-212 -187 -300 -408q-39 -98 -39 -213v-1116q150 -82 288 -82h1731q-7 150 -45 266q-15 46 -41 111
q77 -80 115 -116q66 -63 124 -107zM4691 1167l-104 -98q-18 -27 -34 -100q-17 -78 -17 -129q0 -57 20 -127q9 -32 33 -84l96 -105q0 -43 -39 -43l-151 156q-26 27 -114 89q-98 70 -173 101v35q101 48 239 160q33 27 48 41l153 145q43 0 43 -41zM4138 1167l-104 -98
q-18 -27 -34 -100q-17 -78 -17 -129q0 -57 20 -127q9 -32 33 -84l96 -105q0 -43 -39 -43l-151 156q-26 27 -114 89q-98 70 -173 101v35q75 35 167 104q82 61 120 97l153 145q43 0 43 -41zM3589 1167l-104 -98q-18 -27 -34 -100q-17 -78 -17 -129q0 -83 38 -180q9 -23 15 -31
l96 -105q0 -43 -39 -43l-151 156q-26 27 -114 89q-98 70 -173 101v35q75 35 167 104q82 61 120 97l153 145q43 0 43 -41zM2377 1167l-104 -98q-18 -27 -34 -100q-18 -82 -18 -129q0 -54 21 -127q9 -32 33 -84l96 -105q0 -43 -39 -43l-152 156q-28 29 -113 89
q-98 70 -173 101v35q101 48 239 160q25 20 47 41l154 145q43 0 43 -41zM1824 1167l-104 -98q-18 -27 -34 -100q-18 -82 -18 -129q0 -54 21 -127q9 -32 33 -84l96 -105q0 -43 -39 -43l-152 156q-28 29 -113 89q-98 70 -173 101v35q101 48 239 160q25 20 47 41l154 145
q43 0 43 -41zM1275 1167l-104 -98q-18 -27 -34 -100q-18 -82 -18 -129q0 -53 21 -127q9 -32 33 -84l96 -105q0 -43 -39 -43l-151 156q-26 27 -114 89q-98 70 -173 101v35q101 48 239 160q33 27 48 41l153 145q43 0 43 -41z" />
    <glyph glyph-name="uF52A0" unicode="&#x12263;&#x121ec;" horiz-adv-x="7108" 
d="M6788 1929q-70 -72 -198 -230q-146 -211 -146 -417v-1282h-102v1276q0 157 -55 274q-16 34 -35 72h-1370q-104 0 -211 -60q-75 -42 -187 -139q61 3 176 25q90 17 130 37q-96 -78 -182 -222q-93 -155 -93 -249v-1014h-102v1014h-2q0 102 -88 246q-77 126 -181 225
q29 -19 117 -37q108 -22 178 -25q35 125 35 248q0 133 -42 274q-12 40 -19 56q88 -106 213 -185q146 -92 270 -92h1292q-36 49 -182 205q55 -17 166 -47q92 -22 227 -22q138 0 220 19q34 8 171 50zM4071 1407l-136 -131q-39 -66 -60 -187q-19 -108 -19 -176q0 -129 41 -267
q15 -51 36 -83l132 -135q0 -33 -9.5 -40t-44.5 -7l-346 336l-136 100q-80 57 -144 86l-2 31q77 40 153 95l129 93l350 332q36 0 46 -7t10 -40zM3409 1929q-136 -147 -199 -242q-145 -220 -145 -399v-1288h-102v1300q0 228 -173 437q-42 51 -83 94q-179 -189 -235 -358
q-25 -76 -25 -170v-1303h-103v1300q0 158 -92 318q-62 107 -168 219q-115 -121 -171 -222q-89 -161 -89 -323v-1292h-102v1294q0 166 -91 324q-63 110 -165 217q-116 -122 -171 -215q-94 -159 -94 -326v-1294h-102v860h-412q-273 0 -530 -245q-80 -76 -125 -123
q79 202 82 419q2 115 -12 198q-17 106 -70 234q100 -103 136 -138q79 -74 150 -122q178 -120 367 -120h414v337q0 209 -139 407q-27 39 -199 222q55 -17 166 -47q92 -22 227 -22q136 0 206 19q50 14 102 50q49 -34 103 -48q82 -21 212 -21q140 0 214 19q64 17 93 50
q37 -33 97 -48q82 -21 218 -21q139 0 207 19q46 13 99 50q49 -34 103 -48q82 -21 210 -21q138 0 220 19q34 8 171 50z" />
    <glyph glyph-name="uF561D" unicode="&#x122a9;&#x121ec;" horiz-adv-x="5714" 
d="M5394 1929q-70 -71 -198 -227q-146 -209 -146 -399v-1303h-102v1300q0 191 -131 390h-1321q-93 0 -218 -73q-88 -52 -202 -155q64 -8 129 -8q87 0 200 21q93 17 130 38q-176 -153 -251 -339q-26 -64 -26 -115v-1059h-102v1059q0 98 -94 239q-79 119 -183 218
q63 -28 166 -43q37 132 37 266q0 97 -21 197q-17 79 -40 132q86 -99 227 -185q149 -91 246 -91h1245q-38 46 -73 81l-56 56q54 -18 164 -48q98 -21 227 -21q145 0 221 17q11 3 172 52zM2754 1329l-135 -131q-82 -135 -82 -283q0 -158 84 -288l131 -135q0 -33 -9.5 -40.5
t-44.5 -7.5l-192 189q-23 22 -73 64q-83 68 -265 163h-891q-164 0 -339 -124q-89 -63 -279 -253q78 225 80 430q2 175 -80 420q169 -174 281 -252q170 -118 337 -118h887v2q122 63 202.5 114.5t145.5 114.5l186 182q37 0 45 -5q11 -8 11 -42zM1603 1608l-68 -72l-256 254
q-63 62 -206 89q-91 17 -236 17h-41q-204 -204 -278 -405q-33 -90 -33 -193v-946q58 86 98 195v-146q0 -155 16 -251q23 -140 86 -203l234 -234l-70 -69l-252 247q-68 66 -206 92q-91 17 -238 17h-121q71 19 161 77q109 70 189 154v1067q0 280 -255 539l-89 90
q55 -17 166 -46q98 -21 227 -21q204 0 342 69q126 27 294 207q151 161 198 299v-135q0 -156 16 -252q23 -140 86 -203z" />
    <glyph glyph-name="uF546A" unicode="&#x12200;&#x121f2;" horiz-adv-x="7137" 
d="M5236 1448q-163 -163 -220 -312q-22 -58 -22 -110v-610h-854q-100 0 -221 -76q-102 -64 -201 -168q22 39 36 112q18 95 18 165q0 66 -18 159q-12 60 -36 115q133 -133 246 -191v492q0 79 -77 212q-71 122 -165 212q25 -20 109 -36q92 -17 168 -17q120 0 226 33
q27 8 48 20q-64 -64 -100 -113q159 -137 293 -182q48 -16 96 -16h342q-50 147 -219 311q25 -20 109 -36q92 -17 168 -17q72 0 159 17q77 15 115 36zM6817 70h-3475v-340h-103v340h-448v-340h-103v340h-450v-340h-103v340h-297q-177 0 -352 -118q-114 -76 -283 -251
q81 214 91 369h-629q-152 0 -338 -121q-148 -96 -295 -248q82 211 82 428q0 93 -31 233q-27 120 -51 154q26 42 51 158q31 145 31 248q0 102 -29 233q-27 121 -53 156q29 50 55 166q27 122 27 239q0 118 -11 193q-14 98 -69 231q173 -178 294 -260q179 -121 345 -121h623
q-7 143 -47 269q-15 47 -41 112q103 -103 139 -136q80 -75 150 -123q177 -122 345 -122h351q-7 143 -47 269q-15 47 -41 112q112 -112 137 -136q80 -75 149 -123q175 -122 348 -122h349q-7 143 -47 269q-15 47 -41 112q97 -100 137 -138q80 -75 151 -122q182 -121 369 -121
h3160v-102h-1094q45 -50 148 -108q117 -66 190 -66h594v-68h-594q-75 0 -192 -66q-110 -62 -150 -102q33 73 39 164q-46 -41 -107 -148q-67 -117 -67 -188v-659h-67v659q0 69 -70 189q-53 91 -107 151q86 -39 211 -39q41 0 122 14q65 11 85 23q2 10 2 19v18q0 81 -26 176
q-5 20 -11 31h-2066q-269 0 -523 -239q-69 -65 -134 -130q75 193 86 369h-347q-257 0 -505 -240q-68 -66 -129 -129q75 193 86 369h-326q-269 0 -523 -239q-69 -65 -134 -130q77 199 88 369h-650q-133 0 -305 -122q-94 -67 -264 -224q156 -150 263 -227q168 -121 302 -121
h592v-103h-610q-140 0 -302 -121q-29 -22 -245 -221q78 -79 243 -224q160 -122 306 -122h666q-5 101 -21 172q-21 90 -68 209q98 -98 139 -136q80 -74 150 -123q175 -122 346 -122h297v14q0 100 -88 244q-76 123 -180 223q23 -19 128 -40t189 -21q50 0 145 22q55 13 136 41
q38 -22 107 -41q86 -24 165 -24q84 0 230 43q36 11 51 20q30 -17 109 -39q86 -24 161 -24q122 0 274 41q39 11 56 20q-102 -88 -185 -221q-91 -145 -91 -246v-12h3475v-102zM4927 893v141q0 15 -4 35h-369q-90 0 -227 -88q57 -36 114 -61q63 -27 113 -27h373zM4927 653v172
h-373q-90 0 -225 -84q134 -88 225 -88h373zM4927 481v105h-371q-110 0 -256 -105h627zM4187 616q0 39 -12 66q-19 47 -22 57q34 75 34 123q0 62 -39 117q39 70 39 123q0 99 -32 211q-123 -161 -123 -287v-524q59 -21 108 -21h33q14 38 14 135zM3239 172v23q0 79 -69 201
q-62 109 -152 204q-85 -85 -156 -205t-71 -211v-12h448zM2688 172v23q0 83 -70.5 200t-154.5 205q-152 -159 -206 -319q-19 -56 -19 -109h450z" />
    <glyph glyph-name="uF535D" unicode="&#x12083;&#x121fa;" horiz-adv-x="4668" 
d="M4348 1929q-126 -118 -204 -231q-140 -204 -140 -395v-1303h-103v1303q0 263 -261 533q-61 63 -89 93q55 -18 168 -48q103 -21 232 -21q147 0 223 17q19 4 174 52zM3779 1063l-68 -72l-256 254q-63 62 -206 89q-97 18 -236 18h-111q60 8 153 71q40 27 83 65q25 25 75 73
q100 95 148 169q56 86 80 160v-135q0 -244 47 -366q21 -55 55 -89zM2877 1024l-70 -70l-254 254q-66 66 -206 90q-100 17 -236 17h-17v-55q0 -158 15 -247q23 -135 86 -198l235 -235l-74 -76l-245 246q-65 65 -201 91q-100 19 -233 19h-27l-4 -37q-6 -56 -6 -94
q0 -251 108 -360l236 -238l-68 -72l-256 254q-63 62 -206 89q-97 18 -236 18h-111q56 7 160 78q167 114 292 300q50 74 52 113q124 28 215 123l-240 244q-66 67 -203 90q-94 16 -239 16h-111q58 7 153 72q53 36 159 137q97 93 147 169q55 85 80 161v-135q0 -156 16 -252
q24 -141 86 -203l232 -229q134 143 145 256q50 5 127 54q83 53 133 110q103 99 148 169q56 86 80 160v-135q0 -244 47 -366q20 -53 55 -88zM1548 1206h-883q-141 0 -297 -92q-114 -67 -246 -194q149 -149 248 -209q143 -88 305 -88h662l-181 -103h-487q-155 0 -342 -124
q-145 -96 -293 -249q80 204 80 426q0 219 -64 342q64 164 64 351q0 120 -12 192q-17 104 -70 232q94 -97 137 -137q78 -74 149 -123q175 -121 351 -121h692z" />
    <glyph glyph-name="uF541B" unicode="&#x1227a;&#x121fb;" horiz-adv-x="5920" 
d="M5600 1929q-129 -129 -203 -236q-141 -204 -141 -393v-1300h-2568q-153 0 -324 -125q-109 -80 -276 -252q78 225 80 430q2 175 -80 420q158 -163 270 -244v1071q0 167 -140 381q-83 127 -204 248q55 -18 166 -48q98 -21 227 -21q142 0 224 19q51 12 133 50
q39 -90 213.5 -217t279.5 -127h1129q-45 96 -143 210q-41 44 -124 134q55 -18 168 -48q103 -21 232 -21q126 0 208 19q59 14 132 50q76 -38 127 -50q80 -19 219 -19q207 0 395 69zM1922 381h-755v-381h-103v381h-414q-159 0 -336 -123q-98 -68 -282 -252q77 196 80 424
q1 111 -11 198q-15 102 -69 234q172 -178 283 -255q178 -124 335 -124h414v793l-8 70h-397q-167 0 -347 -124q-117 -80 -280 -249q77 196 80 426q1 109 -11 194q-15 100 -69 232q105 -105 137 -135q78 -74 147 -122q170 -120 343 -120h383q-42 159 -156 306q-54 57 -160 175
q55 -18 166 -49q92 -22 227 -22q139 0 221 19q33 8 78 23q11 4 93 29q-53 -52 -159 -171q-122 -153 -163 -310h733v-102h-747l-8 -68v-795h755v-102zM5154 102v1174q0 180 -107 360q-73 123 -188 238q-128 -142 -187 -238q-108 -177 -108 -331v-1203h590zM4461 999v301
q0 92 -32 183h-1151q-88 0 -220 -75q-116 -66 -217 -167q152 -166 321 -222q60 -20 116 -20h1183zM4461 414v483h-1183q-99 0 -226 -80q-84 -53 -211 -164q195 -173 330 -220q54 -19 109 -19h1181zM4461 102v209h-1165q-107 0 -222 -63q-89 -49 -196 -146h1583zM2809 362
q0 206 -72 293q72 89 72 308q0 75 -22 163q-17 69 -48 115q25 34 47 118q23 90 23 175q0 128 -35 226q-14 39 -39 91q-60 -70 -175 -227q-100 -161 -100 -324v-1134q118 -64 246 -64h68q15 59 33 180q2 33 2 80z" />
    <glyph glyph-name="uF524A" unicode="&#x12157;&#x1221d;" horiz-adv-x="5458" 
d="M5138 1931q-71 -69 -201 -223q-145 -207 -145 -428v-1280h-2454q-183 0 -361 -120q-113 -76 -288 -257q85 217 88 426q2 153 -39 284q-17 53 -41 116h-141q-187 0 -372 -124q-100 -67 -286 -253q88 224 88 426q0 161 -30 260q-14 46 -41 102h-234q-186 0 -368 -124
q-87 -59 -281 -253q80 203 82 430q2 216 -82 435q87 -91 129 -130q73 -70 140 -117q84 -59 179 -98.5t203 -39.5h226q73 219 73 362q0 115 -15 195q-18 99 -73 231q179 -185 287 -257q173 -116 367 -116h409q-28 186 -152 353q-59 64 -176 194q54 -17 163 -46
q87 -19 227 -19q132 0 227 18q20 4 168 47q-70 -69 -199 -222q-143 -202 -143 -427v-1108q120 -57 201 -66h749l-55 54q-60 58 -180 77q-72 11 -236 11q17 4 91.5 53t129.5 104q9 8 21 21v610q0 75 -78 203q-73 120 -164 211q121 -51 277 -51q102 0 186 22q94 61 156 123
q59 59 118 150h-295q-189 0 -372 -127q-112 -78 -281 -252q85 217 88 426q1 107 -15 194q-19 100 -73 232q99 -99 136 -134q79 -72 149 -119q176 -118 364 -118h1487q-32 38 -97 112q-12 13 -26 27q55 -18 166 -49q92 -22 227 -22q139 0 221 19q8 2 171 52zM4689 102v1227
q0 92 -51 199q-44 91 -90 162h-1227q0 -259 96 -349l133 -124l-51 -52l-135 129q-82 78 -321 88q-127 -150 -167 -266q-16 -47 -16 -86v-526q49 68 64 112q0 -167 11 -231q9 -51 29.5 -100t55.5 -82l107 -101h1562zM1969 551v725h-421q-177 0 -360 -119q-103 -67 -265 -229
v-31q165 -171 270 -239q164 -107 344 -107h432zM1969 223v226h-254q81 -81 122 -119q70 -64 132 -107zM4480 518h-350q-99 0 -224 -75q-109 -65 -206 -167q21 37 37 102q20 83 20 140h-198q-99 0 -223 -77q-97 -61 -197 -165q21 37 33 109q14 84 14 164q0 166 -41 225
q41 56 41 207q0 123 -32 226q-10 32 -17 48q103 -103 201 -164q124 -77 221 -77h200q-7 104 -34 197q-7 25 -17 44q101 -101 202 -164q124 -77 220 -77h350v-68h-348q-157 0 -364 -182q203 -178 354 -178h358v-68zM3759 946h-198q-166 0 -365 -184q92 -78 178 -123
q102 -53 183 -53h200q0 98 -47 180q49 98 49 180z" />
    <glyph glyph-name="uF5500" unicode="&#x12134;&#x12228;" horiz-adv-x="7854" 
d="M7534 860h-776q-170 0 -352 -124q-123 -83 -283 -249q85 217 88 426q1 107 -15 195q-18 99 -73 231q98 -98 138 -135q80 -74 150 -122q173 -119 347 -119h776v-103zM6365 1929q-115 -107 -202 -237q-142 -212 -142 -389v-1303h-103v1298q0 188 -138 391q-83 123 -208 240
q55 -18 167 -48q100 -21 230 -21q143 0 220 17q24 5 176 52zM5580 860h-412v-860h-100v860h-518v-860h-103v860h-518v-860h-102v860h-414q-265 0 -523 -243q-69 -65 -134 -130q74 192 86 373h-193q-265 0 -523 -243q-69 -65 -134 -130q85 217 88 426q1 107 -15 195
q-18 99 -73 231q180 -185 289 -258q177 -118 368 -118h195q-7 142 -47 265q-15 46 -41 111q179 -179 298 -257q182 -119 359 -119h414v340q0 180 -140 386q-65 80 -196 240q54 -18 163 -48q96 -21 224 -21q139 0 212 22q54 16 95 47q50 -33 97 -47q75 -22 217 -22
q131 0 208 22q53 15 101 47q50 -31 100 -45q86 -24 219 -24q147 0 221 17q33 8 78 23q11 4 93 29q-69 -70 -203 -227q-148 -199 -148 -385v-354h412v-103zM2039 61l-72 -71l-161 151q-169 94 -428 147q-169 35 -435 55q-91 7 -165 8l-173 1l74 37l-67 72q-90 97 -253 138
q-102 26 -247 26h-80q153 55 291 190q53 51 107 127q51 71 63 115q53 18 130 69q102 68 144 111q159 162 176 248q80 32 183 117q73 60 125 125q62 77 99 142q22 38 32 60v-28q0 -252 64 -406q31 -74 81 -121l94 -88q8 18 41 68q0 -492 100 -846q45 -159 121 -291zM5068 963
v368q0 117 -89 281q-63 115 -165 229q-179 -188 -239 -353q-25 -69 -25 -145v-380h518zM4447 963v387q0 134 -95 283q-58 91 -167 206q-169 -178 -231 -386q-25 -84 -25 -175v-315h518zM1562 1206l-88 92q-72 75 -235 118q-138 36 -228 36h-31v-51q0 -199 70 -341
q32 -65 84 -118l135 -137l57 59q46 48 115 151q26 39 61 95zM1197 741l-133 123q-58 54 -114 80q-119 56 -268 70q-63 6 -109 6h-47v-21q0 -134 23 -222q41 -158 151 -269l73 -74q262 145 365 248z" />
    <glyph glyph-name="uF5431" unicode="&#x1231d;&#x12228;" horiz-adv-x="4868" 
d="M3620 793h-506q-98 0 -221 -75q-105 -64 -203 -167q22 39 36 112q18 95 18 164q0 67 -18 160q-12 60 -36 115q163 -163 313 -220q58 -22 109 -22h508v-67zM2828 1479q-169 -169 -223 -311q-21 -55 -21 -109v-783h-68v783q0 97 -74 220q-61 100 -165 200q22 -18 108 -34
q81 -15 168 -15q117 0 226 30q29 8 49 19zM4548 0h-2828q-186 0 -368 -123q-92 -62 -282 -252q79 201 82 430q1 96 -14 182t-64 212h-413q-173 0 -348 -122q-93 -65 -279 -251q80 204 80 426q0 166 -39 290q-15 48 -43 121q82 223 82 412q0 127 -12 199q-17 99 -70 229
q105 -105 137 -135q79 -74 148 -122q172 -120 354 -120h596q-28 184 -159 356q-61 64 -181 197q56 -18 169 -48q100 -21 234 -21q131 0 220 21q33 8 120 48q41 -18 124 -47q81 -22 220 -22q189 0 396 69q-214 -214 -305 -448q-39 -101 -39 -205v-1174h1831v1184
q0 262 -233 528q-57 65 -107 115q132 -69 387 -69q127 0 232 21q21 4 167 48q-140 -140 -215 -257q-129 -201 -129 -382v-1188h549v-102zM1963 102v1174q0 193 -106 366q-50 82 -187 226q-128 -128 -184 -216q-108 -169 -108 -352v-1097q158 -101 342 -101h243zM1275 551
v723h-604q-248 0 -485 -233q-66 -65 -125 -128q238 -262 417 -330q85 -32 183 -32h614zM1275 276v173h-184q93 -97 184 -173z" />
    <glyph glyph-name="uF54DD" unicode="&#x122ae;&#x1222a;" horiz-adv-x="5247" 
d="M4927 1929q-126 -118 -204 -231q-140 -204 -140 -395v-1303h-103v1303q0 263 -261 533q-61 63 -89 93q55 -18 168 -48q103 -21 231 -21q148 0 224 17q19 4 174 52zM4286 918h-566q-93 0 -217 -78q-120 -75 -198 -162q18 31 35.5 101.5t17.5 138.5h-297q-101 0 -224 -76
q-111 -69 -206 -168q18 31 35.5 112.5t17.5 163.5q0 149 -53 275q140 -148 320 -217q60 -23 106 -23h301q0 87 -36 199q-10 31 -17 45q108 -108 200 -166q124 -78 220 -78h561v-67zM4284 229h-553q-95 0 -225 -83q-109 -69 -201 -166q19 34 37 112t18 137h-305
q-101 0 -221 -78q-104 -68 -203 -171q17 30 35 115t18 169q0 149 -53 275q165 -165 312 -221q55 -21 110 -21h307q0 95 -37 199q-11 31 -18 45q101 -101 200 -165q122 -79 226 -79h553v-68zM2598 246q0 -33 -53 -33l-168 182q-30 33 -114 90q-108 73 -173 101v35
q60 28 168 104q80 56 119 96l178 183q39 0 39 -39l-125 -142q-18 -26 -34.5 -100t-16.5 -125q0 -87 38 -180q10 -24 15 -31zM2305 1929q-212 -198 -302 -415q-42 -101 -42 -211v-1303h-102v1303q0 164 -104 333q-58 95 -187 230q-114 -114 -188 -232q-107 -170 -107 -331
v-1303h-102v1303q0 191 -145 392q-60 83 -116 141l-90 93q57 -18 170 -48q103 -21 234 -21q134 0 228 24q61 16 114 45q63 -32 117 -45q96 -24 229 -24q145 0 221 17q11 3 172 52zM976 1065l-67 -72l-256 254q-38 38 -92 58q-104 39 -236 46q-60 3 -115 3h-110q59 7 152 71
q40 27 83 65q26 25 76 73q174 166 227 329v-135q0 -244 47 -366q20 -51 56 -88zM909 266l-68 -71l-256 254q-63 62 -206 89q-91 17 -236 17h-111q58 7 153 72q45 31 83 64q25 25 75 73q100 95 148 169q55 85 80 161v-136q0 -155 16 -251q23 -140 86 -203z" />
    <glyph glyph-name="uF5576" unicode="&#x121a0;&#x1222b;" horiz-adv-x="5284" 
d="M4964 1929q-70 -69 -199 -221q-145 -202 -145 -403v-1305h-3163q-249 0 -504 -244q-68 -65 -130 -129q85 217 88 426q1 103 -16 195q-19 103 -72 231q162 -167 280 -250v1071q0 162 -141 376q-86 130 -201 253q54 -18 163 -48q96 -21 224 -21q260 0 350 69
q173 -214 373 -311q72 -35 139 -35h1057q-55 113 -147 215q-43 43 -127 131q57 -18 170 -48q103 -21 233 -21q202 0 340 69q112 -69 342 -69q223 0 344 69q42 -24 111 -42q103 -27 233 -27q148 0 224 17q34 8 80 23q3 1 94 29zM753 391q0 -34 -9 -40.5t-44 -6.5l-381 369
q-158 123 -287 182v31q128 68 285 182l381 373q37 0 46 -6.5t9 -40.5l-135 -134q-105 -173 -105 -391q0 -215 109 -383zM4517 102v1176q0 196 -106 369q-52 85 -187 227q-199 -199 -263 -377q-32 -89 -32 -192v-1203h588zM3827 102v1176q0 192 -106 369q-52 87 -185 227
q-205 -198 -272 -425q-25 -84 -25 -173v-1174h588zM3137 999v328q0 54 -29 154h-1098q-85 0 -181 -51q-55 -29 -247 -189q67 -59 210 -165q124 -77 214 -77h1131zM3137 412v485h-1143q-80 0 -200 -75q-101 -63 -210 -167q158 -165 311 -223q53 -20 105 -20h1137zM3137 102
v207h-1129q-79 0 -190 -59t-205 -148h1524zM1550 360q0 184 -68 297q68 85 68 291q0 196 -68 295q68 85 68 289q0 111 -25 190l-43 136q-182 -192 -248 -385q-28 -82 -28 -173v-1130q136 -68 274 -68h35q35 135 35 258z" />
    <glyph glyph-name="uF55D6" unicode="&#x12328;&#x1222b;" horiz-adv-x="3729" 
d="M3409 1929q-138 -138 -203 -231q-141 -201 -141 -398v-1300h-2357q-157 0 -329 -127q-96 -71 -273 -254q78 225 78 428q0 196 -78 430q59 -68 189 -190q36 -28 81 -56v1069q0 280 -255 539l-89 90q55 -18 166 -48q98 -21 229 -21q264 0 346 69q90 -69 344 -69
q144 0 221 17q21 5 175 52q-74 -74 -108 -112q-57 -62 -96 -122q-140 -211 -140 -419v-1174h1794v758h-412v-414h-68v414h-313v-414h-67v414h-72q-165 0 -344 -127q-100 -71 -277 -248q78 225 80 430q2 175 -80 420q169 -174 284 -254q170 -118 337 -118h72v200
q0 86 -77 214q-57 95 -165 208q126 -53 276 -53q132 0 189 35q18 -10 66 -25q53 -10 126 -10q147 0 275 51q-150 -150 -218 -315q-24 -58 -24 -103v-202h412v313q0 208 -141 418q-81 120 -203 235q55 -18 166 -48q98 -21 229 -21q143 0 220 17q21 5 175 52zM2483 963v202
q0 64 -54 165q-47 87 -105 159q-154 -194 -154 -324v-202h313zM1066 102v1198q0 175 -106 346q-52 84 -187 226q-193 -193 -264 -402q-31 -91 -31 -194v-1112q73 -36 161 -54q40 -8 69 -8h358z" />
    <glyph glyph-name="uF5521" unicode="&#x1230b;&#x1222c;" horiz-adv-x="4149" 
d="M3829 954l-68 -69l-260 260q-58 58 -183 79q-88 15 -216 15h-54q0 -238 38 -388q17 -68 48 -99l244 -244l-69 -72l-248 248q-65 65 -208 91q-100 18 -253 18q0 -230 50 -409q17 -62 42 -87l238 -238l-68 -69l-256 256q-45 45 -191 75q-141 29 -253 29h-111q63 8 156 70
q88 59 161 137q45 44 68 73q58 76 97 151q18 35 26 57q135 46 217 125l-233 239q-50 51 -199 87q-124 30 -248 30h-110q65 8 153 70q44 31 82 64q6 5 76 73q96 93 147 172q55 86 80 162v-140q0 -135 22 -261q25 -144 83 -202l221 -221q125 110 155 246q158 58 269 176
q177 190 219 330v-137q0 -179 11 -252q21 -141 83 -203zM2633 963l-127 -103h-867q-179 0 -368 -123q-132 -86 -289 -248q79 202 82 422q1 113 -12 197q-16 103 -70 233q179 -184 289 -259q175 -119 368 -119h994zM759 1432l-170 -164q-68 -112 -68 -359q0 -228 103 -387
l133 -135q0 -34 -9 -40.5t-44 -6.5l-363 367q-111 80 -230 149q-42 24 -79 41v27q116 61 246 155q23 16 63 45l363 355q36 0 45.5 -7t9.5 -40z" />
    <glyph glyph-name="uF52E8" unicode="&#x12223;&#x1222e;" horiz-adv-x="6983" 
d="M6663 1348h-788q-185 0 -372 -123q-105 -69 -286 -250q85 215 88 426q2 105 -15 194q-19 100 -73 232q180 -185 289 -258q179 -119 369 -119h788v-102zM6663 381h-829v-381h-103v381h-407q-270 0 -529 -244q-69 -65 -131 -129q75 197 86 373h-459q-191 0 -378 -124
q-112 -74 -281 -249q79 202 82 422q1 113 -12 196q-17 103 -70 232q90 -93 138 -137q79 -73 151 -120q180 -118 368 -118h463q-2 39 -7 84q-16 129 -81 291q90 -93 138 -137q79 -73 151 -120q180 -118 369 -118h409v23q0 195 -166 389q-49 57 -102 104q127 -61 321 -61
q204 0 320 61q-121 -100 -193 -223q-77 -133 -77 -270v-23h829v-102zM3585 1929q-134 -134 -203 -237q-143 -213 -143 -398v-1294h-102v1292q0 184 -109 360q-65 105 -184 224q-107 -112 -187 -244q-108 -178 -108 -340v-1292h-102v1290q0 192 -115 367q-19 29 -174 215
q-132 -132 -188 -219q-109 -170 -109 -353v-1300h-103v379h-641q-178 0 -356 -124q-108 -75 -278 -251q85 215 88 426q2 101 -16 195q-19 103 -72 231q92 -95 137 -137q79 -73 151 -120q180 -118 369 -118h618l-4 862h-1060q-192 0 -379 -126q-114 -77 -283 -246
q79 202 82 426q1 113 -12 194q-17 104 -70 232q176 -181 291 -258q179 -119 364 -119h1049q-38 158 -156 307q-54 58 -159 176q54 -17 164 -47q90 -22 227 -22q123 0 230 26q55 13 114 43q123 -69 346 -69q136 0 230 24q58 15 112 45q64 -32 109 -43q107 -26 239 -26
q134 0 213 17q36 8 180 52z" />
    <glyph glyph-name="uF5297" unicode="&#x12137;&#x1223f;" horiz-adv-x="9453" 
d="M9133 51l-71 -71l-162 155q-163 91 -428 145q-105 22 -228 35q-218 24 -371 26q-69 1 -102 1h-71l73 37l-2 2h-970q-185 0 -357 -128q-30 -22 -276 -253q86 219 86 428q0 100 -16 185q-15 79 -33 106q49 92 49 297q0 199 -47 289q49 118 49 294q0 115 -15 195
q-18 99 -73 231q245 -253 452 -337q86 -35 177 -35h1490q57 57 113 141q51 76 76 131q9 -39 12 -124q3 -97 7 -129q29 -218 126 -308l95 -88q6 14 21 38l19 29q0 -313 33 -538q53 -362 189 -598zM5994 1915l-94 -103q-36 -61 -63 -181q-21 -94 -21 -169q0 -133 42 -262
q16 -50 37 -82l97 -108q0 -33 -9.5 -40t-44.5 -7l-202 202q-27 23 -77 67q-77 68 -162 123q-45 29 -105 58h-1227q-164 0 -356 -124q-136 -88 -299 -251q85 215 88 426q0 30 -4 99q-6 99 -38 201q-18 57 -46 126q162 -167 299 -254q189 -120 356 -120h1227q214 119 340 243
l206 203q37 0 45 -5q11 -8 11 -42zM5930 307h-1753q-268 0 -529 -245q-79 -74 -126 -123q85 215 88 426q2 100 -16 194q-20 105 -72 232q97 -100 137 -138q79 -74 150 -123q175 -120 366 -120h1755v-103zM3514 1399l-136 -131q-37 -62 -61 -182q-20 -98 -20 -168
q0 -134 44 -272q16 -51 37 -83l132 -135q0 -33 -9.5 -40t-44.5 -7l-192 188q-26 27 -85 84q-100 90 -230 173q-68 43 -121 69v35q151 68 351 248q65 59 93 86l186 182q36 0 46 -7t10 -40zM2995 1931q-198 -214 -298 -429q-44 -95 -44 -181v-1321h-102v1319q0 149 -143 358
q-84 123 -205 252q56 -17 169 -47q95 -22 232 -22q138 0 220 19q8 2 171 52zM2109 410q0 -33 -10 -40.5t-44 -7.5l-360 359q-119 92 -233 139h-15v-860h-102v860h-678q-175 0 -357 -123q-104 -70 -278 -250q79 202 82 426q1 114 -12 195q-17 102 -70 231q93 -102 130 -138
q76 -76 144 -123q167 -115 359 -115h680v358q0 103 -70 241q-55 108 -143 223q-69 90 -123 144q54 -17 163 -47q90 -22 226 -22q135 0 222 19q37 8 173 50q-81 -90 -123 -142q-147 -182 -202 -347q-21 -63 -21 -119v-358h15q103 49 177 102q17 12 58 43l356 348q37 0 44 -4
q12 -6 12 -39l-135 -135q-38 -64 -69 -187q-28 -110 -28 -178q0 -66 28 -178q31 -126 73 -190zM8656 1196l-88 92q-80 84 -266 125q-131 29 -228 29q3 -24 3 -39v-51q0 -178 74 -316q31 -57 77 -104l135 -137l58 65q46 52 114 149q56 81 121 187zM8292 731l-134 133
q-87 87 -222 122q-99 26 -216 26q-17 0 -50 -1t-50 -1v-15q0 -136 23 -225q42 -163 151 -272l74 -74q249 135 364 248zM8163 1550h-1356q-142 0 -271 -71q-87 -48 -219 -170q197 -182 345 -225q65 -19 145 -19h811v-2q113 62 189 118q62 46 117 116q43 54 91 136
q18 30 23 42q65 33 125 75zM7671 483q-134 113 -357 129q-57 4 -104 4q-14 0 -42 -1t-42 -1q127 64 225 135q108 79 189 214h-739q-131 0 -270 -75q-105 -57 -228 -165q176 -169 354 -220q69 -20 142 -20h872z" />
    <glyph glyph-name="uF5607" unicode="&#x122d9;&#x12240;" horiz-adv-x="7005" 
d="M6685 1343h-1808q-180 0 -356 -123q-117 -82 -279 -249q82 209 82 424q0 121 -12 195q-17 104 -70 233q148 -148 206 -196q123 -103 241 -148q88 -33 188 -33h1808v-103zM6685 381h-446v-381h-103v381h-381v-381h-102v381h-381v-381h-102v381h-293q-245 0 -504 -244
q-69 -65 -131 -129q82 209 82 422q0 122 -12 197q-16 103 -70 233q180 -185 289 -258q179 -119 368 -119h271v11q0 99 -88 243q-79 128 -181 226q13 -11 48 -21q133 -39 270 -39q182 0 242 45q60 -45 243 -45q150 0 240 45q99 -45 242 -45q72 0 188 21q96 18 135 39
q-97 -84 -176 -208q-94 -146 -94 -253v-19h446v-102zM4098 1208q-70 -70 -199 -224q-145 -205 -145 -417v-567h-103v176h-1998q-140 0 -323 -125q-139 -95 -298 -254q82 209 82 428q0 160 -45 275q23 56 33 108q14 75 14 168q0 123 -12 195q-16 94 -72 231
q167 -172 297 -257q180 -118 340 -118h442q12 31 30 96q7 41 7 132t-14 163q-5 28 -35 111q51 97 51 277q0 114 -15 194q-19 100 -73 232q91 -94 136 -136q78 -73 148 -123q170 -120 351 -120h846q-43 72 -108 145q-61 66 -122 131q54 -18 164 -48q98 -21 228 -21
q145 0 221 17q11 3 172 52q-70 -71 -200 -225q-144 -202 -144 -428v-139q118 4 185 21q39 10 159 50zM919 -287l-70 -69l-252 247q-68 66 -206 92q-91 17 -238 17h-121q146 23 350 231v1067q0 271 -267 543q-59 60 -83 88q55 -18 168 -48q103 -21 231 -21q144 0 221 17
q35 8 82 23q30 9 95 29q-138 -138 -203 -231q-141 -201 -141 -400v-946q58 86 98 195v-146q0 -155 16 -251q23 -140 86 -203zM6136 483v19q0 79 -59 188q-53 98 -131 189q-131 -153 -175 -287q-16 -49 -16 -86v-23h381zM5653 483v23q0 155 -192 366q-189 -189 -189 -368v-21
h381zM3651 1137v139q0 141 -55 274h-930q-126 0 -243 -70q-61 -36 -195 -153q179 -165 334 -206q64 -17 143 -17h707q-34 34 -99 104q49 -17 149 -46q89 -22 189 -25zM3651 551v4q0 224 -153 446h-803q-221 0 -463 -223q123 -108 203 -155q122 -72 260 -72h956zM3651 279
v170h-956q-127 0 -224 -47.5t-182 -122.5h1362zM2148 502q0 166 -37 223h-446q-129 0 -256 -68q-92 -50 -213 -155q244 -223 469 -223h465q18 84 18 223z" />
    <glyph glyph-name="uF5608" unicode="&#x122d9;&#x12248;" horiz-adv-x="6556" 
d="M6236 1929q-70 -71 -200 -225q-144 -202 -144 -428v-1276h-102v381h-1127q-182 0 -360 -124q-105 -73 -275 -249q85 217 88 426q1 107 -15 195q-18 99 -73 231q116 -116 136 -135q79 -74 147 -122q172 -120 360 -120h1119v828q0 14 -5 37h-1114q-167 0 -352 -123
q-105 -70 -287 -252q85 217 88 426q1 107 -15 194q-19 100 -73 232q168 -173 289 -254q182 -121 350 -121h1096q-44 163 -156 305q-53 57 -159 174q54 -18 163 -48q98 -21 228 -21q145 0 221 17q11 3 172 52zM3926 55l-72 -71l-162 155q-163 91 -428 145q-183 38 -434 54
q-91 6 -165 7l-173 1l70 35h-873q-267 0 -523 -241q-69 -65 -134 -130q79 202 82 424q1 114 -12 195q-17 102 -70 231q180 -185 289 -258q179 -119 368 -119h779q-139 118 -361 133q-73 5 -104 5q-14 0 -42 -1.5t-42 -1.5q124 62 224 135q75 54 123 119q56 74 91 136
q18 32 23 43q41 18 125 70q104 65 149 110q31 31 94 117h-1067q-262 0 -515 -245q-69 -67 -130 -130q75 191 78 426q2 121 -9 194q-15 100 -69 232q90 -93 138 -137q79 -73 151 -120q180 -118 369 -118h1120q5 10 16 29q30 13 108 64q82 54 140 112q91 91 159 213
q16 29 31 61v-26q0 -252 63 -411q29 -74 83 -124l94 -88q8 18 41 68q0 -496 99 -846q44 -156 122 -291zM919 -287l-70 -69l-252 247q-68 66 -206 92q-91 17 -238 17h-121q146 23 350 231v1067q0 271 -267 543q-59 60 -83 88q55 -18 168 -48q103 -21 231 -21q144 0 221 17
q35 8 82 23q30 9 95 29q-138 -138 -203 -231q-141 -201 -141 -400v-946q58 86 98 195v-146q0 -155 16 -251q23 -140 86 -203zM3449 1200l-88 92q-82 86 -267 127q-140 31 -227 31q1 -73 14 -222q31 -181 140 -292l135 -137l57 61q47 50 115 150q27 40 61 94zM3084 735
l-133 125q-98 92 -222 127q-103 29 -216 29q-17 0 -50.5 -1t-50.5 -1v-15q0 -209 76 -363q35 -71 98 -134l74 -74q262 145 365 248z" />
    </font>
</defs>
</svg>
