<svg xmlns="http://www.w3.org/2000/svg" width="100" height="70" viewBox="0 0 1000 700">
    <g fill="blue" fill-rule="evenodd">
        <path d="M 0 320 v -160 h 120 v -140 h -100 v 100 h 140 v -120 h 320 v 20 h -300 v 120 h -180 v -140 h 140 v 180 h -120 v 140 z
        M 40 40 h 60 v 60 h -60 v -60 m 20 20 v 20 h 20 v -20 z"/>
        <path d="M 40 220 h 60 v 60 h -60 v -60 m 20 20 v 20 h 20 v -20 z M 0 320 h 140 v -180 h -120 v -140 h -20 v 160 h 120 v140 h -100 v -100 h 140 v 120 h 320 v -20 h -300 v -120 h -200 z" transform="translate(0 380)"/>
        <path d="M 380 40 h 60 v 60 h -60 v -60 m 20 20 v 20 h 20 v -20 z M 480 0 v 140 h -180 v -120 h -300 v -20 h 320 v 120 h 140 v -100 h -100 v 140 h 120 v 160 h -20 v -140 h -120 v -180 z" transform="translate(520 0)"/>
        <path d="M 480 0 v 160 h -120 v 140 h 100 v -100 h -140 v 120 h -320 v -20 h 300 v -120 h 180 v 140 h -140 v -180 h 120 v -140 z M 380 220 h 60 v 60 h -60 v -60 m 20 20 v 20 h 20 v -20 z" transform="translate(520 380)"/>
    </g>
</svg>
