<?xml version="1.0" standalone="no"?>
<!DOCTYPE svg PUBLIC "-//W3C//DTD SVG 1.1//EN" "http://www.w3.org/Graphics/SVG/1.1/DTD/svg11.dtd" >
<svg xmlns="http://www.w3.org/2000/svg" xmlns:xlink="http://www.w3.org/1999/xlink" version="1.1">
<metadata>
Created by FontForge 20201107 at Fri Oct 24 13:13:09 2014
 By fANhAN iNSiDE
Copyright (c) SIL International, 1997-2014.
</metadata>
<defs>
<font id="CharisSIL-Italic" horiz-adv-x="0" >
  <font-face 
    font-family="Charis SIL"
    font-weight="400"
    font-style="italic"
    font-stretch="normal"
    units-per-em="2048"
    panose-1="2 0 6 0 6 0 0 9 0 4"
    ascent="1638"
    descent="-410"
    x-height="1012"
    cap-height="1374"
    bbox="-1467 -1092 6262 2600"
    underline-thickness="120"
    underline-position="-350"
    slope="-11"
    unicode-range="U+0020-1D519"
  />
<missing-glyph horiz-adv-x="1400" 
d="M150 50h1100v1700h-1100v-1700zM100 1800h1200v-1800h-1200v1800z" />
    <glyph glyph-name="f_i" unicode="fi" horiz-adv-x="1202" 
d="M1198 59q-12 -5 -44.5 -19t-75 -28.5t-90.5 -25.5t-91 -11q-51 0 -82 18t-46 47t-16.5 65t5.5 71l123 658h-449q-3 -23 -10.5 -80t-18 -132t-22.5 -160.5t-24.5 -165t-24.5 -146.5t-21 -105q-14 -57 -38 -117.5t-57 -117.5t-73 -108t-85 -89t-94.5 -60t-100.5 -22
q-39 0 -64.5 13t-39.5 30.5t-19.5 34t-5.5 24.5q0 39 15 60.5t40 38.5l209 -54q26 33 48 81t40.5 106t33.5 124.5t27 137.5q26 145 48 323.5t53 380.5l-158 -16l2 80l178 59q10 54 27.5 116.5t43.5 124t61.5 118.5t81.5 100.5t103.5 69.5t127.5 26q52 0 88 -13t58 -32.5
t32 -41.5t10 -40q0 -49 -36 -75.5t-93 -34.5l-160 129q-22 -18 -41 -52t-36 -77t-31 -91.5t-25 -94t-18.5 -85t-11.5 -65.5h319l252 76h84l-156 -819q-4 -21 0.5 -40t15 -33.5t27 -23t37.5 -8.5q18 0 42.5 6.5t49 15t45.5 16.5t31 11v-78zM1190 1313q0 -23 -8.5 -43.5
t-24 -36.5t-39 -25.5t-53.5 -9.5q-63 0 -95 33.5t-32 81.5q0 20 8.5 40t25 36.5t40.5 27t55 10.5q29 0 52 -10t38.5 -26t24 -36.5t8.5 -41.5z" />
    <glyph glyph-name="f_l" unicode="fl" horiz-adv-x="1202" 
d="M903 1374q-3 -45 -39 -69.5t-90 -32.5l-160 129q-22 -18 -41 -52t-36 -77t-31 -91.5t-25 -94t-18.5 -85t-11.5 -65.5h442l82 432zM1200 53q-12 -5 -44 -17.5t-74 -26t-87 -24t-82 -10.5q-46 0 -78.5 11t-53.5 31t-30.5 47.5t-9.5 60.5q0 15 2.5 33.5t6.5 38.5l122 637
h-440q-3 -23 -10.5 -80t-18 -132t-22.5 -160.5t-24.5 -165t-24.5 -146.5t-21 -105q-14 -57 -38.5 -117.5t-57 -117.5t-73 -108t-86 -89t-95 -60t-100.5 -22q-39 0 -64.5 13t-39.5 30.5t-19.5 34t-5.5 24.5q0 39 15 60.5t40 38.5l209 -54q26 33 48.5 81t41 106t34 124.5
t27.5 137.5q26 145 48 323.5t53 380.5l-158 -16l2 80l178 59q10 54 27.5 116.5t43.5 124t61.5 118.5t81.5 100.5t103.5 69.5t127.5 26q54 0 90 -14.5t57 -34.5l250 49h80l-250 -1306q-4 -23 1.5 -43t18.5 -36t31.5 -25t40.5 -9q15 0 40 5.5t50.5 12.5t46.5 14t29 9v-78z" />
    <glyph glyph-name="f_f_i" unicode="ffi" horiz-adv-x="1862" 
d="M1858 59q-12 -5 -45 -19t-76 -28.5t-91 -25.5t-90 -11q-52 0 -83 18t-46 47t-16.5 65t4.5 71l125 658h-444q-4 -23 -12 -80t-18.5 -132t-23 -160.5t-24.5 -165t-24 -146.5t-21 -105q-14 -57 -38.5 -117.5t-58 -117.5t-74.5 -108t-87 -89t-96 -60t-101 -22q-38 0 -63 13
t-39.5 30.5t-20.5 34t-6 24.5q0 39 16 60.5t39 38.5l209 -54q27 33 50 81t42.5 106t36 124.5t29.5 137.5q26 145 47.5 324t50.5 383h-473q-3 -23 -10.5 -80t-18.5 -132t-23.5 -160.5t-25 -165t-24.5 -146.5t-21 -105q-14 -57 -38.5 -117.5t-58 -117.5t-74.5 -108t-86.5 -89
t-95 -60t-99.5 -22q-39 0 -64.5 13t-39.5 30.5t-19.5 34t-5.5 24.5q0 39 15 60.5t40 38.5l207 -54q27 33 50 81t42.5 106t36 124.5t29.5 137.5q26 145 47.5 323.5t52.5 380.5l-158 -16l2 80l176 59q11 54 28.5 116.5t44 124t62 118.5t81.5 100.5t103.5 69.5t127.5 26
q51 0 86.5 -13t57.5 -32.5t32 -41.5t10 -40q0 -49 -36 -75.5t-93 -34.5l-158 129q-22 -18 -41.5 -52t-36.5 -77t-31 -91.5t-25 -94t-18 -85t-11 -65.5h475q9 57 26 121.5t43.5 128t62.5 122t82.5 103.5t104.5 71.5t127 26.5q52 0 88.5 -13t58.5 -32.5t32 -41.5t10 -40
q0 -49 -36 -75.5t-93 -34.5l-158 129q-22 -18 -41.5 -52t-37 -77t-31.5 -91.5t-25.5 -94t-19 -85t-11.5 -65.5h322l247 76h82l-153 -819q-5 -21 -1 -40t15 -33.5t28 -23t38 -8.5q18 0 42.5 6.5t49 15t45.5 16.5t31 11v-78zM1849 1313q0 -23 -8.5 -43.5t-24.5 -36.5
t-39.5 -25.5t-54.5 -9.5q-62 0 -94.5 33.5t-32.5 81.5q0 20 9 40t26 36.5t40.5 27t53.5 10.5t53.5 -10t39 -26t24 -36.5t8.5 -41.5z" />
    <glyph glyph-name="f_f_l" unicode="ffl" horiz-adv-x="1862" 
d="M1563 1374q-3 -45 -39 -69.5t-90 -32.5l-160 129q-22 -18 -41.5 -52t-36.5 -77t-31 -91.5t-25 -94t-18.5 -85t-11.5 -65.5h440l84 432zM1855 53q-12 -5 -44 -17.5t-73 -26t-85.5 -24t-81.5 -10.5q-46 0 -78.5 11t-52.5 31t-29.5 47.5t-9.5 60.5q0 31 6 72l123 637h-438
q-3 -23 -11 -80t-18 -132t-22.5 -160.5t-24.5 -165t-24 -146.5t-21 -105q-14 -57 -38.5 -117.5t-57.5 -117.5t-73.5 -108t-86 -89t-95 -60t-100.5 -22q-38 0 -63 13t-39.5 30.5t-20.5 34t-6 24.5q0 39 16 60.5t39 38.5l209 -54q27 33 49 81t40.5 106t34 124.5t28.5 137.5
q26 145 47.5 324t52.5 383h-475q-3 -23 -10.5 -80t-18 -132t-22.5 -160.5t-24.5 -165t-24.5 -146.5t-21 -105q-14 -57 -38.5 -117.5t-57 -117.5t-73 -108t-85.5 -89t-94 -60t-100 -22q-39 0 -64.5 13t-39.5 30.5t-19.5 34t-5.5 24.5q0 39 15 60.5t38 38.5l209 -54
q27 33 49.5 81t41 106t33.5 124.5t27 137.5q26 145 48 323.5t53 380.5l-158 -16l2 80l178 59q10 54 27.5 116.5t43.5 124t61.5 118.5t81.5 100.5t103.5 69.5t127.5 26q52 0 88 -13t58 -32.5t32 -41.5t10 -40q0 -49 -36 -75.5t-93 -34.5l-160 129q-22 -18 -41 -52t-36 -77
t-31 -91.5t-25 -94t-18.5 -85t-11.5 -65.5h475q9 57 26.5 121.5t44 128t63 122t83 103.5t104 71.5t127.5 26.5q54 0 90 -14.5t58 -34.5l245 49h82l-250 -1306q-5 -23 1 -43t18.5 -36t31.5 -25t42 -9q15 0 39.5 5.5t49.5 12.5t45.5 14t28.5 9v-78z" />
    <glyph glyph-name="f_f" unicode="ff" horiz-adv-x="1319" 
d="M1563 1382q0 -49 -36 -75.5t-93 -34.5l-160 129q-22 -18 -41.5 -52t-36.5 -77t-31 -91.5t-25 -94t-18.5 -85t-11.5 -65.5h256v-102h-274q-3 -23 -11 -80t-18 -132t-22.5 -160.5t-24.5 -165t-24 -146.5t-21 -105q-14 -57 -38.5 -117.5t-57 -117.5t-72 -108t-84.5 -89
t-94.5 -60t-100.5 -22q-39 0 -64 13t-39.5 30.5t-20 34t-5.5 24.5q0 39 15.5 60.5t40.5 38.5l206 -54q27 33 49 81t40 106t33 124.5t28 137.5q26 145 47.5 324t52.5 383h-475q-3 -23 -10.5 -80t-18 -132t-22.5 -160.5t-24.5 -165t-24.5 -146.5t-21 -105q-14 -57 -38 -117.5
t-56.5 -117.5t-72.5 -108t-84.5 -89t-94 -60t-100.5 -22q-39 0 -64.5 13t-39.5 30.5t-19.5 34t-5.5 24.5q0 39 15 60.5t40 38.5l209 -54q26 33 48 81t40 106t32.5 124.5t26.5 137.5q26 145 48 323.5t53 380.5l-158 -16l2 80l178 59q10 54 27.5 116.5t43.5 124t61.5 118.5
t81.5 100.5t103.5 69.5t127.5 26q52 0 88 -13t58 -32.5t32 -41.5t10 -40q0 -49 -36 -75.5t-93 -34.5l-160 129q-22 -18 -41 -52t-36 -77t-31 -91.5t-25 -94t-18.5 -85t-11.5 -65.5h475q9 57 26.5 121.5t44 128t63 122t83 103.5t104 71.5t127.5 26.5q52 0 88 -13t58.5 -32.5
t32.5 -41.5t10 -40z" />
    <glyph glyph-name=".notdef" horiz-adv-x="1400" 
d="M150 50h1100v1700h-1100v-1700zM100 1800h1200v-1800h-1200v1800z" />
    <glyph glyph-name=".null" 
 />
    <glyph glyph-name="nonmarkingreturn" horiz-adv-x="1024" 
 />
    <glyph glyph-name="space" unicode=" " horiz-adv-x="600" 
 />
    <glyph glyph-name="exclam" unicode="!" horiz-adv-x="692" 
d="M401 100q0 -49 -36.5 -83.5t-98.5 -34.5q-22 0 -45.5 7.5t-42.5 22.5t-31 37t-12 51q0 27 10 49.5t28 39t42 25.5t51 9t51.5 -9t43 -25t29.5 -38.5t11 -50.5zM608 1294q-58 -226 -107 -419q-21 -82 -42 -164.5t-39 -154.5t-32 -127.5t-21 -82.5h-129l104 885
q5 39 15.5 70t29.5 53t48 33.5t71 11.5q102 0 102 -105z" />
    <glyph glyph-name="quotedbl" unicode="&#x22;" horiz-adv-x="678" 
d="M440 1384q0 -11 -11 -49.5t-28.5 -92t-38 -114t-39 -114.5t-33.5 -95t-20 -55h-65l26 457q2 31 9 56.5t21 44.5t37 29.5t58 10.5t59.5 -20t24.5 -58zM770 1384q0 -11 -11.5 -49.5t-29 -92t-38 -114t-40 -114.5t-34 -95t-19.5 -55h-66l25 457q2 31 9.5 56.5t22 44.5
t37.5 29.5t58 10.5q37 0 61.5 -20t24.5 -58z" />
    <glyph glyph-name="numbersign" unicode="#" horiz-adv-x="1522" 
d="M692 862l-98 -293h297l98 293h-297zM1104 862l-98 -293h329v-102h-364l-174 -514l-103 33l162 481h-297l-174 -514l-102 35l163 479h-290v102h323l101 293h-330v105h364l164 483l105 -33l-156 -450h299l162 483l106 -33l-155 -450h286v-105h-321z" />
    <glyph glyph-name="dollar" unicode="$" horiz-adv-x="1139" 
d="M762 371q0 66 -35 117.5t-111 86.5l-90 -462q115 28 175.5 95t60.5 163zM627 1268q-49 -15 -89 -38.5t-68.5 -55t-44 -70.5t-15.5 -84q0 -69 34 -117t97 -80zM1001 1010h-120l10 200q0 7 -8 17.5t-15 13.5q-2 1 -12.5 6t-26.5 10.5t-37.5 11t-46.5 7.5l-96 -508
q68 -22 128 -54t104.5 -74t70 -95.5t25.5 -118.5q0 -79 -25.5 -140.5t-67 -108t-93.5 -78.5t-105 -53t-101.5 -31.5t-82.5 -12.5l-39 -211h-121l39 209q-54 3 -101 10t-89 18t-82 26.5t-80 35.5l65 322h137l-18 -236q0 -8 4.5 -12t9.5 -6q4 -2 20.5 -9.5t40.5 -16.5
t53.5 -17t61.5 -11l101 523q-65 27 -119.5 61t-94.5 75.5t-62.5 91.5t-22.5 110q0 87 36.5 158t97.5 122.5t141 83t167 39.5l29 154h117l-25 -148q50 -2 98 -10t88.5 -17.5t70.5 -18.5t42 -13z" />
    <glyph glyph-name="percent" unicode="%" horiz-adv-x="1761" 
d="M645 1161q0 27 -3.5 56.5t-15 54.5t-32.5 41t-55 16q-47 0 -84 -29.5t-65 -77t-48 -106.5t-32.5 -117.5t-18.5 -111t-6 -86.5q0 -28 4.5 -59t16.5 -57t34 -43t57 -17q46 0 82 30.5t63.5 78.5t47 108t32 120t18 112.5t5.5 86.5zM1532 582q0 27 -4 56.5t-15.5 54t-33 41
t-56.5 16.5q-46 0 -82.5 -29.5t-64.5 -77t-48 -106.5t-32.5 -118t-18.5 -111.5t-6 -86.5q0 -28 4 -59t16 -57.5t34 -44t57 -17.5q45 0 81.5 30.5t64 79t47.5 109t32.5 120.5t18.5 113t6 87zM797 1122q0 -60 -11 -125.5t-34 -129.5t-57 -122t-80.5 -102t-104.5 -70t-129 -26
q-65 0 -111.5 22.5t-76 61.5t-43 91.5t-13.5 111.5q0 60 11.5 125.5t34 129t57 121.5t81 101.5t105 69.5t129.5 26q65 0 111 -22.5t75 -61t42.5 -90.5t13.5 -111zM401 0h-129l1147 1374h127zM1681 543q0 -60 -11 -126t-34 -130t-57 -122t-80 -102t-104.5 -70t-128.5 -26
q-65 0 -111 22.5t-75 61.5t-42.5 91.5t-13.5 111.5q0 60 11 126t34 129.5t57 121t80.5 101t104.5 69.5t129 26q65 0 111 -22.5t75 -61t42 -90t13 -110.5z" />
    <glyph glyph-name="ampersand" unicode="&#x26;" horiz-adv-x="1442" 
d="M432 672q-88 -57 -139 -129t-51 -166q0 -62 21 -112t56 -85t81 -54.5t96 -19.5q36 0 68.5 6.5t65.5 20.5t67.5 35.5t74.5 50.5zM836 1112q0 36 -10 70t-29.5 60t-48.5 42t-66 16t-77.5 -14t-74.5 -42t-56.5 -70.5t-22.5 -100.5q0 -37 10 -73.5t26 -71t36.5 -66
t41.5 -57.5q60 24 110 53t85.5 66t55.5 83t20 105zM1231 631q-43 -91 -109.5 -187t-144.5 -180q35 -48 69 -80.5t72 -52.5t84 -29t105 -10v-90q-50 -2 -85.5 -4t-64.5 -4q-32 -2 -62.5 -1t-58.5 7q-25 4 -48.5 13.5t-47 25.5t-48.5 40t-52 58q-45 -34 -94 -63t-104 -50.5
t-117 -34t-134 -12.5q-77 0 -143.5 23t-116 67t-78 107t-28.5 143q0 76 27.5 139.5t75.5 117t112 97.5t137 81q-23 32 -43.5 64t-35.5 64.5t-23.5 66.5t-8.5 71q0 83 35 153t96 121t144.5 80t181.5 29q84 0 143 -23t97 -61.5t55.5 -87t17.5 -99.5q0 -74 -30.5 -133
t-85.5 -107t-131.5 -86t-167.5 -69l288 -381q53 59 93 126t65 120q1 2 -2 7t-6.5 10t-7 8.5t-4.5 3.5l-105 18v94h436v-94z" />
    <glyph glyph-name="quotesingle" unicode="'" horiz-adv-x="348" 
d="M451 1384q0 -11 -12 -49.5t-30 -92t-39.5 -114t-41.5 -114.5t-35.5 -95t-20.5 -55h-67l26 457q3 31 10.5 56.5t22.5 44.5t39 29.5t59 10.5q39 0 64 -20t25 -58z" />
    <glyph glyph-name="parenleft" unicode="(" horiz-adv-x="858" 
d="M938 1376q-85 -11 -155.5 -53t-128 -105.5t-103 -144t-79.5 -169t-58 -180.5t-39 -179t-22 -164t-7 -135q0 -114 22.5 -192.5t62 -130.5t92.5 -80.5t114 -41.5l-19 -94q-104 6 -190.5 50.5t-149.5 120t-98 179t-35 228.5q0 122 22 254t66 259.5t111 244t157 207.5
t204 149.5t251 70.5z" />
    <glyph glyph-name="parenright" unicode=")" horiz-adv-x="856" 
d="M711 909q0 -170 -28.5 -321t-80 -280t-125 -234.5t-163 -182.5t-194 -124.5t-218.5 -61.5l18 98q89 12 161.5 56.5t131 111.5t103 151.5t77.5 176t55.5 185t36 179t19.5 158t6 121.5q0 31 -4 72t-14.5 86t-30.5 90t-52 83t-78.5 65.5t-109.5 37.5l19 94
q109 -12 186.5 -51t130 -92t83 -115t46.5 -120t20.5 -107t4.5 -76z" />
    <glyph glyph-name="asterisk" unicode="*" horiz-adv-x="1024" 
d="M537 743l-144 -53l4 152l207 166l27 -19zM598 1036l-266 15l-92 116l143 43l221 -145zM748 743l-95 246l27 19l207 -166l4 -152zM655 1085h-26l-72 256l84 125l86 -125zM952 1051l-264 -15l-8 29l219 145l145 -43z" />
    <glyph glyph-name="plus" unicode="+" horiz-adv-x="2048" 
d="M1087 551v-551h-126v551h-551v127h551v551h126v-551h551v-127h-551z" />
    <glyph glyph-name="comma" unicode="," horiz-adv-x="573" 
d="M326 96q0 -87 -37 -164t-98.5 -137t-140.5 -98t-163 -45l15 74q63 13 110.5 36.5t82 58t56.5 82.5t33 111h-129q-11 14 -15.5 31.5t-4.5 34.5q0 31 13 61.5t34.5 54.5t50 39t60.5 15q36 0 61.5 -11.5t41 -32.5t23 -49t7.5 -61z" />
    <glyph glyph-name="hyphen" unicode="-" horiz-adv-x="653" 
d="M553 424h-492l27 139h492z" />
    <glyph glyph-name="period" unicode="." horiz-adv-x="573" 
d="M311 113q0 -29 -11 -54t-30 -43.5t-44.5 -29.5t-53.5 -11q-29 0 -53.5 11t-42.5 29.5t-28.5 43.5t-10.5 54q0 28 10.5 53t28.5 43.5t42.5 29.5t53.5 11q28 0 53.5 -11t44.5 -29.5t30 -43.5t11 -53z" />
    <glyph glyph-name="slash" unicode="/" horiz-adv-x="1004" 
d="M131 -190h-131l872 1564h132z" />
    <glyph glyph-name="zero" unicode="0" horiz-adv-x="1139" 
d="M907 981q0 84 -15 144.5t-41 100t-61 58.5t-75 19q-64 0 -119.5 -41t-102.5 -110t-84 -160.5t-63 -192.5t-39.5 -205.5t-13.5 -200.5q0 -105 20 -168t49 -96.5t63 -44t62 -10.5q60 0 115 40.5t101.5 109t84 159.5t64 192t41 205.5t14.5 200.5zM1128 946q0 -120 -21 -239
t-61 -227.5t-97.5 -202.5t-131 -162.5t-161.5 -108t-189 -39.5q-95 0 -169 31t-124.5 89.5t-77 144t-26.5 194.5q0 108 18.5 222.5t55.5 223.5t92.5 206.5t129.5 170.5t166.5 115.5t202.5 42.5q102 0 176 -35.5t122 -97.5t71.5 -146.5t23.5 -181.5z" />
    <glyph glyph-name="one" unicode="1" horiz-adv-x="1139" 
d="M623 147q-4 -17 5 -28t34 -13l153 -10v-96h-643v96l207 10q17 2 26.5 14t12.5 27l209 1072l-322 -41v92l486 137h75z" />
    <glyph glyph-name="two" unicode="2" horiz-adv-x="1139" 
d="M1096 1102q0 -70 -24.5 -139t-66.5 -136t-99.5 -130.5t-123.5 -121.5q-64 -57 -130.5 -109t-135.5 -101.5t-138.5 -97.5t-139.5 -97h573l70 174h123l-64 -344h-983l27 133q148 105 270 195.5t219.5 170.5t170 152t120.5 142t72 139.5t24 144.5q0 58 -16 99.5t-44.5 67.5
t-66.5 38t-82 12q-27 0 -53 -5t-48 -12.5t-39.5 -15.5t-29.5 -14l-43 -217q-5 -4 -14.5 -10t-24 -12t-33 -10.5t-42.5 -4.5q-17 0 -36.5 4t-36.5 14t-28.5 27.5t-11.5 44.5q0 57 40.5 114.5t109.5 104t161 76t195 29.5q80 0 149 -17t120 -53.5t80.5 -94.5t29.5 -140z" />
    <glyph glyph-name="three" unicode="3" horiz-adv-x="1139" 
d="M1096 1116q0 -54 -22.5 -109.5t-68.5 -106.5t-117.5 -94t-168.5 -73q67 -10 121 -29.5t92 -51.5t59 -77t21 -106q0 -98 -47 -188.5t-130 -160t-196 -111.5t-244 -42q-104 0 -176.5 22.5t-117.5 56.5t-65 73.5t-20 73.5q0 14 6.5 34.5t21 39t39 31.5t60.5 13q26 0 49 -5
t41 -13l31 -174q7 -5 21.5 -13t34.5 -15.5t44.5 -13t53.5 -5.5q74 0 140.5 28.5t116.5 78t79.5 116t29.5 143.5q0 72 -25.5 116t-61.5 67t-75 30.5t-67 7.5q-38 0 -73 -4t-70 -10l18 127q98 -5 178 18t137 66t88 103t31 131q0 60 -21 100.5t-52.5 65.5t-67.5 36t-66 11
q-33 0 -62 -7t-52 -17t-40.5 -21t-27.5 -19l-31 -195q-7 -2 -20 -6.5t-29 -9t-32.5 -7.5t-30.5 -3q-19 0 -38 6t-34.5 18.5t-25 31.5t-9.5 44q0 61 43.5 114t114 92t160.5 61t182 22q178 0 274.5 -74t96.5 -217z" />
    <glyph glyph-name="four" unicode="4" horiz-adv-x="1139" 
d="M272 555h418l109 543zM1042 414h-190l-90 -469h-193l93 469h-619l27 137l825 856h152l-164 -852h186z" />
    <glyph glyph-name="five" unicode="5" horiz-adv-x="1139" 
d="M1079 1208h-596l-80 -397q38 11 90.5 21t120.5 10q70 0 139.5 -16.5t124.5 -55.5t89 -102t34 -156q0 -74 -23 -143t-64.5 -129.5t-99.5 -110.5t-129 -86t-153 -56t-170 -20q-163 0 -252.5 51.5t-89.5 139.5q0 24 9 47t26.5 40t43 27.5t59.5 10.5q17 0 34 -2.5t29 -6.5
l55 -174q32 -11 64 -19.5t70 -8.5q77 0 145 32t119 85.5t80.5 123.5t29.5 146q0 77 -29 127t-77 79.5t-109 41.5t-125 12q-21 0 -50.5 -2t-60.5 -5t-60 -6t-50 -6l137 674h750z" />
    <glyph glyph-name="six" unicode="6" horiz-adv-x="1139" 
d="M846 502q0 67 -14.5 121t-44.5 92t-76.5 59t-110.5 21q-31 0 -62 -5t-64 -17.5t-69.5 -33t-76.5 -51.5q-2 -10 -9 -39.5t-14 -68.5t-12.5 -82t-5.5 -80q0 -52 9 -113t34 -113t69 -87t115 -35q64 0 124 35t106.5 94.5t74 138t27.5 164.5zM1063 555q0 -119 -43.5 -225.5
t-119.5 -187t-177.5 -128t-218.5 -47.5q-48 0 -99 8.5t-99.5 29.5t-91 56t-75 87.5t-51 124.5t-18.5 167q0 125 30.5 245.5t88.5 229.5t142 203t191.5 166.5t236.5 120t277 63.5l2 -112q-133 -15 -245 -62t-199 -118t-147.5 -162t-88.5 -193q75 50 156 77.5t174 27.5
q82 0 151 -25.5t118.5 -73.5t77.5 -116.5t28 -155.5z" />
    <glyph glyph-name="seven" unicode="7" horiz-adv-x="1139" 
d="M1221 1286l-932 -1315l-13 -47h-202l911 1284h-596l-65 -184h-131l69 350h975z" />
    <glyph glyph-name="eight" unicode="8" horiz-adv-x="1139" 
d="M815 373q0 48 -29.5 89t-78 77t-111 68.5t-127.5 62.5q-50 -27 -92.5 -61t-74 -75t-49 -89.5t-17.5 -104.5q0 -54 18 -101.5t52.5 -83t84 -56.5t113.5 -21q65 0 122 25.5t99 66.5t66 94t24 109zM891 1100q0 47 -14 85.5t-39.5 66t-62.5 42.5t-83 15q-57 0 -107.5 -22.5
t-88 -61.5t-59 -91t-21.5 -110q0 -42 18.5 -77t52.5 -65t82.5 -56.5t108.5 -51.5q48 25 87 58.5t67 74t43.5 89t15.5 104.5zM1085 1118q0 -81 -24.5 -141t-66.5 -105t-98 -79t-118 -62q40 -18 85 -43.5t83 -62.5t63 -85.5t25 -111.5q0 -95 -43.5 -178.5t-120 -146.5
t-180 -99.5t-223.5 -36.5q-105 0 -186.5 24t-137 68.5t-84 106.5t-28.5 137q0 50 17 106t57.5 112t107 108.5t164.5 95.5q-52 28 -84.5 59.5t-50.5 64.5t-24.5 66t-6.5 64q0 84 34.5 161.5t99 137t157.5 94.5t209 35q93 0 163 -22.5t117 -61.5t70.5 -91.5t23.5 -113.5z" />
    <glyph glyph-name="nine" unicode="9" horiz-adv-x="1139" 
d="M924 977q0 100 -23 164.5t-58 102t-76.5 51.5t-78.5 14q-68 0 -128 -36t-105.5 -96.5t-72 -140t-26.5 -166.5q0 -76 23 -129t58.5 -86.5t78 -49t82.5 -15.5q55 0 104 16.5t87.5 38t63.5 42t32 28.5q11 63 25 130t14 132zM1141 979q0 -151 -42.5 -280.5t-116 -239
t-172 -199t-210 -160.5t-230.5 -124t-233 -89l-43 97q109 42 208 90.5t189.5 114t172.5 154.5t157 212q-34 -17 -72 -33t-78 -28t-82 -19.5t-83 -7.5q-64 0 -130 19.5t-120 62.5t-88.5 112t-34.5 168q0 120 45 225.5t124.5 183.5t187.5 123.5t233 45.5q35 0 80 -5t91 -21
t90.5 -45t79.5 -76.5t56 -116.5t21 -164z" />
    <glyph glyph-name="colon" unicode=":" horiz-adv-x="573" 
d="M311 113q0 -29 -11 -54t-30 -43.5t-44.5 -29.5t-53.5 -11q-29 0 -53.5 11t-43.5 29.5t-29.5 43.5t-10.5 54q0 28 10.5 53t29.5 43.5t43.5 29.5t53.5 11q28 0 53.5 -11t44.5 -29.5t30 -43.5t11 -53zM461 874q0 -28 -11 -53t-30 -43.5t-44.5 -29.5t-53.5 -11q-29 0 -54 11
t-43.5 29.5t-29.5 43.5t-11 53t11 53.5t29.5 44t43.5 29.5t54 11q28 0 53.5 -11t44.5 -29.5t30 -44t11 -53.5z" />
    <glyph glyph-name="semicolon" unicode=";" horiz-adv-x="573" 
d="M326 98q0 -87 -37 -165t-98.5 -138t-140.5 -98t-163 -45l15 74q63 13 110.5 36t82 57.5t56.5 82.5t33 112h-129q-11 14 -15.5 33.5t-4.5 36.5q0 30 13 59.5t35 53.5t50.5 38.5t59.5 14.5q35 0 60.5 -11.5t41.5 -32t23.5 -48.5t7.5 -60zM461 874q0 -28 -11 -53t-30 -43.5
t-44.5 -29.5t-53.5 -11q-29 0 -54 11t-43.5 29.5t-29.5 43.5t-11 53t11 53.5t29.5 44t43.5 29.5t54 11q28 0 53.5 -11t44.5 -29.5t30 -44t11 -53.5z" />
    <glyph glyph-name="less" unicode="&#x3c;" horiz-adv-x="2048" 
d="M410 551v127l1228 471v-127l-1097 -408l1097 -407v-127z" />
    <glyph glyph-name="equal" unicode="=" horiz-adv-x="2048" 
d="M410 365v127h1228v-127h-1228zM410 737v127h1228v-127h-1228z" />
    <glyph glyph-name="greater" unicode="&#x3e;" horiz-adv-x="2048" 
d="M410 80v127l1097 407l-1097 408v127l1228 -471v-127z" />
    <glyph glyph-name="question" unicode="?" horiz-adv-x="995" 
d="M465 90q0 -24 -8.5 -46t-25.5 -39t-41.5 -27.5t-55.5 -10.5q-32 0 -57.5 10t-43 27t-27 38.5t-9.5 45.5t9.5 46.5t27 40t43 28t57.5 10.5q31 0 55.5 -10t41.5 -27.5t25.5 -39.5t8.5 -46zM948 1112q0 -103 -41.5 -184.5t-108 -145t-150 -111t-167.5 -81.5l-47 -244h-137
l55 305q70 22 137 61.5t119.5 95t84.5 127t32 157.5q0 105 -57 159t-156 54l-125 -203h-59q-53 0 -83 22t-30 62q0 30 17.5 68.5t59.5 72t110.5 57t170.5 23.5q91 0 161 -20.5t117.5 -59t72 -93t24.5 -122.5z" />
    <glyph glyph-name="at" unicode="@" horiz-adv-x="1917" 
d="M1217 805q3 13 -5.5 33t-25 38.5t-40 32t-50.5 13.5q-76 0 -137 -35.5t-104 -97t-66 -144t-23 -176.5q0 -111 41 -166t119 -55q34 0 65 13.5t57.5 33.5t48.5 43t38 43zM1790 764q0 -104 -23 -192.5t-61.5 -160.5t-89.5 -127.5t-107 -93t-113 -56.5t-108 -19
q-85 0 -122.5 42.5t-37.5 127.5q-80 -81 -151 -124.5t-143 -43.5q-56 0 -103 23.5t-81 67t-53 105t-19 138.5q0 117 43 219t114 177t162 118t188 43q22 0 48 -4t52.5 -11.5t52.5 -18t48 -22.5l37 47h117q-2 -6 -9 -35.5t-17.5 -73t-23 -98t-25.5 -109.5q-30 -130 -67 -292
q-8 -35 -8 -64.5t9 -50.5t27.5 -33t47.5 -12q30 0 65.5 16.5t70.5 48.5t67.5 78t57.5 105t40 130t15 153q0 96 -22.5 175.5t-62.5 142t-94.5 108.5t-118.5 76.5t-135 45.5t-143 15q-117 0 -221.5 -27.5t-193 -78t-160 -122.5t-121 -161t-76.5 -192.5t-27 -217.5
q0 -156 48.5 -291t140.5 -234t225 -155.5t303 -56.5q90 0 168.5 14t146 36t124.5 49t104 53l29 -74q-69 -37 -141.5 -69.5t-149 -57t-159 -39t-171.5 -14.5q-110 0 -212.5 25t-193 72.5t-165.5 117t-128.5 158.5t-83.5 197t-30 232q0 152 36.5 279.5t100.5 230.5t151.5 181
t190 130t215 78.5t226.5 26.5q152 0 280.5 -42.5t221.5 -125t145.5 -204t52.5 -279.5z" />
    <glyph glyph-name="A" unicode="A" horiz-adv-x="1378" 
d="M766 1155l-303 -532h391zM801 0v86l94 10q45 6 39 39l-62 391h-464l-209 -391q-11 -20 -0.5 -28t39.5 -11l94 -10v-86h-441v86l115 12l756 1309h164l221 -1272q3 -20 11 -28.5t30 -10.5l94 -10v-86h-481z" />
    <glyph glyph-name="B" unicode="B" horiz-adv-x="1243" 
d="M1176 1112q0 -79 -27 -140t-73.5 -106.5t-109 -78.5t-132.5 -56q67 -9 122 -27.5t95 -50.5t62 -79.5t22 -114.5q0 -126 -46 -213.5t-127.5 -142t-192 -79t-239.5 -24.5h-561v86l129 10q19 2 27.5 11.5t11.5 27.5l213 1102q3 17 -5 28t-36 13l-114 10v86h575
q111 0 188.5 -18.5t126 -53t70 -83t21.5 -107.5zM911 438q0 63 -22 106.5t-62.5 70.5t-98.5 39t-130 12q-38 0 -79 -3t-75 -8l-108 -557q12 -1 28.5 -2t34 -2t34.5 -1.5t30 -0.5q220 0 334 91.5t114 254.5zM948 1098q0 97 -73.5 142.5t-204.5 45.5q-32 0 -60 -2t-45 -4
l-100 -520q12 -1 25 -2l27 -1q14 0 25.5 -0.5t18.5 -0.5q96 0 168.5 27.5t121 74t73 109t24.5 131.5z" />
    <glyph glyph-name="C" unicode="C" horiz-adv-x="1290" 
d="M1264 1006h-121v190q0 16 -11.5 33t-25.5 22q-4 2 -18 10.5t-36.5 17.5t-52.5 16.5t-67 7.5q-79 0 -155 -25t-144.5 -72t-126.5 -115t-100.5 -154.5t-66.5 -190.5t-24 -222q0 -116 33.5 -201t90.5 -141t133.5 -83t162.5 -27q33 0 60 4.5t46.5 10.5t31.5 11.5t16 7.5
q12 2 26.5 14.5t20.5 26.5l88 234h121l-55 -332q-12 -4 -51.5 -17t-97 -27.5t-128.5 -26t-145 -11.5q-102 0 -184 23t-145 63t-109 95t-75 119.5t-43 135.5t-14 144q0 109 27 215t78 201.5t124 177t164.5 140.5t200 92.5t230.5 33.5q50 0 96 -5.5t93 -16t98 -26t110 -34.5z
" />
    <glyph glyph-name="D" unicode="D" horiz-adv-x="1374" 
d="M1116 868q0 128 -39 206t-105 121t-153 58.5t-182 18.5h-74l-225 -1166h149q155 2 273 66.5t197 170.5t119 242.5t40 282.5zM1337 850q0 -126 -29 -238t-84 -206.5t-133.5 -169.5t-177 -127.5t-215 -80.5t-247.5 -28h-482v86l127 10q20 2 28 11.5t13 27.5l213 1102
q3 17 -5 28t-36 13l-114 10v86h489q140 0 259.5 -27t207 -89t137 -162t49.5 -246z" />
    <glyph glyph-name="E" unicode="E" horiz-adv-x="1143" 
d="M1126 1067h-131v166q0 22 -8 30.5t-31 8.5h-393l-94 -504h274q22 0 33.5 8.5t18.5 30.5l39 137h114l-90 -469h-117l21 146q6 41 -39 41h-277l-106 -560h481q22 0 33.5 11.5t17.5 29.5l64 197h125l-68 -340h-1024v86l119 10q43 3 49 39l213 1102q3 17 -5 28t-34 13
l-114 10v86h991z" />
    <glyph glyph-name="F" unicode="F" horiz-adv-x="1053" 
d="M1102 1044h-131v189q0 22 -9 30.5t-32 8.5h-367l-100 -527h262q22 0 33 9t16 30l39 140h117l-90 -467h-117l20 143q4 20 -7.5 30.5t-33.5 10.5h-260l-98 -506q-3 -15 5 -26t34 -13l133 -10v-86h-547v86l117 10q42 3 51 39l213 1102q3 17 -5 28t-36 13l-114 10v86h970z
" />
    <glyph glyph-name="G" unicode="G" horiz-adv-x="1409" 
d="M1266 567q-20 -2 -33.5 -10.5t-18.5 -28.5l-92 -481q-10 -3 -35 -9.5t-60 -15.5t-77.5 -18.5t-88.5 -18t-92.5 -13.5t-88.5 -5q-117 0 -205.5 27t-153 72.5t-107.5 105t-69 124.5t-36.5 130t-10.5 123q0 131 35 245.5t96.5 210t145 170t182 126.5t206.5 79t218 27
q50 0 93.5 -4t87.5 -12.5t92.5 -22t107.5 -31.5l-64 -329h-139l6 188q2 23 -9 37.5t-30 19.5q-4 1 -17 8t-34.5 15t-51.5 14t-67 6q-77 0 -153.5 -25t-147 -72t-131 -115.5t-105 -155t-70 -190.5t-25.5 -222q0 -83 19 -147.5t51 -113.5t73 -83t85 -55.5t88 -31t81 -9.5
q31 0 62.5 4t59.5 10t50.5 12t34.5 9l80 417q3 17 -5 27t-36 12l-113 11v86h528v-86z" />
    <glyph glyph-name="H" unicode="H" horiz-adv-x="1485" 
d="M1452 1278q-19 -2 -31.5 -11.5t-17.5 -29.5l-213 -1102q-3 -15 5 -26t36 -13l115 -10v-86h-535v86l123 10q18 2 32 11.5t17 27.5l102 533h-639l-102 -533q-3 -15 5 -26t34 -13l119 -10v-86h-533v86l117 10q42 3 51 39l213 1102q3 17 -5 28t-36 13l-114 10v86h532v-86
l-121 -10q-18 -2 -32 -11.5t-17 -29.5l-90 -467h639l90 467q3 17 -5 28t-36 13l-117 10v86h533v-86z" />
    <glyph glyph-name="I" unicode="I" horiz-adv-x="643" 
d="M598 1278q-20 -2 -28 -11.5t-13 -29.5l-213 -1102q-3 -15 5 -26t36 -13l119 -10v-86h-535v86l129 10q19 2 27.5 11.5t11.5 27.5l213 1102q3 17 -5 28t-34 13l-114 10v86h532v-86z" />
    <glyph glyph-name="J" unicode="J" horiz-adv-x="958" 
d="M922 1278q-42 -3 -52 -41l-131 -713q-23 -127 -56 -230t-90 -175.5t-144.5 -112t-219.5 -39.5q-60 0 -107 8t-80.5 18.5t-54 21t-28.5 14.5l68 350h135v-250q0 -26 25 -40.5t57 -14.5q65 0 111 29t78 84t54.5 135.5t40.5 183.5l136 731q3 17 -5 28t-34 13l-119 10v86h532
v-86z" />
    <glyph glyph-name="K" unicode="K" horiz-adv-x="1343" 
d="M1245 1272l-536 -518l284 -551q19 -38 36.5 -61.5t36.5 -37t40.5 -18t48.5 -4.5q19 0 40 1t46 3v-86q-48 -14 -100 -23.5t-92 -9.5q-45 0 -78.5 7t-61.5 24.5t-51 46.5t-47 74l-252 485h-125l-92 -469q-3 -15 6 -26t35 -13l119 -10v-86h-535v86l119 10q43 3 49 39
l215 1102q3 17 -5 28t-34 13l-114 10v86h532v-86l-121 -10q-20 -2 -33 -11.5t-18 -29.5l-104 -537h34l545 537q13 12 10.5 25.5t-24.5 15.5l-131 10v86h530v-86z" />
    <glyph glyph-name="L" unicode="L" horiz-adv-x="1061" 
d="M915 0h-946v86l119 10q43 3 49 39l213 1102q3 17 -5 28t-34 13l-114 10v86h532v-86l-121 -10q-23 -2 -35.5 -14t-15.5 -27l-217 -1135h403q20 0 32.5 11.5t19.5 29.5l73 236h121z" />
    <glyph glyph-name="M" unicode="M" horiz-adv-x="1765" 
d="M1733 1278q-42 -3 -52 -41l-211 -1102q-3 -15 5.5 -26t35.5 -13l115 -10v-86h-532v86l120 10q19 2 33 11.5t17 27.5l198 1039l-657 -1174h-123l-205 1163l-190 -1028q-3 -15 5 -26t34 -13l114 -10v-86h-469v86l117 10q42 3 51 39l211 1102q3 17 -5 28t-36 13l-114 10v86
h458v-57l176 -991l547 981v67h473v-86z" />
    <glyph glyph-name="N" unicode="N" horiz-adv-x="1456" 
d="M1430 1278q-20 -2 -33.5 -11.5t-18.5 -29.5l-241 -1237h-148l-516 1087l-182 -952q-3 -15 5 -26t36 -13l114 -10v-86h-475v86l117 10q42 3 51 39l211 1102q3 17 -5 28t-34 13l-114 10v86h395v-53l461 -977l174 893q3 17 -5 28t-34 13l-117 10v86h475v-86z" />
    <glyph glyph-name="O" unicode="O" horiz-adv-x="1454" 
d="M1182 854q0 102 -25.5 185t-71 142.5t-108 91.5t-135.5 32q-75 0 -142 -33t-124 -90t-102.5 -133.5t-77.5 -163.5t-49 -180.5t-17 -184.5q0 -104 26.5 -186.5t72 -140t107.5 -88.5t134 -31q75 0 142 33.5t124 91.5t102.5 134.5t77.5 163.5t49 178.5t17 178.5zM1415 854
q0 -108 -23 -215.5t-67 -206.5t-109 -183.5t-149.5 -147.5t-188 -98.5t-223.5 -35.5q-123 0 -225 40.5t-176 115.5t-115 180t-41 234q0 110 25 217t72.5 204t115 179t152 142t185 94t212.5 34q127 0 230 -43.5t175 -118.5t111 -176t39 -215z" />
    <glyph glyph-name="P" unicode="P" horiz-adv-x="1159" 
d="M956 1012q0 59 -16.5 108t-54 84t-98 54.5t-148.5 19.5q-19 0 -40.5 -1t-37.5 -3l-127 -651q45 -4 90.5 -2.5t89.5 9t85 22t77 36.5q39 23 72 54t57 71t37.5 89.5t13.5 109.5zM1169 1047q0 -124 -47 -223t-130.5 -168.5t-198 -106.5t-248.5 -37q-16 0 -38 0.5t-42 1.5
q-24 1 -49 2l-76 -381q-3 -15 5 -26t36 -13l117 -10v-86h-533v86l119 10q40 3 49 39l215 1102q3 17 -5 28t-36 13l-114 10v86h509q126 0 214.5 -24.5t145 -68t82 -103.5t25.5 -131z" />
    <glyph glyph-name="Q" unicode="Q" horiz-adv-x="1454" 
d="M1182 856q0 97 -24 179t-67.5 141.5t-104 93t-134.5 33.5q-76 0 -145 -31.5t-127.5 -86.5t-106 -130t-80.5 -162t-51 -182t-18 -191t24 -177.5t68.5 -140.5t108 -92.5t143.5 -33.5q73 0 139.5 33t124 90t103.5 133.5t79 163t50.5 179t17.5 181.5zM1479 -227
q-12 -6 -47 -23t-84 -34t-105 -30.5t-110 -13.5q-79 0 -138 23t-103.5 64t-78 96t-61.5 120q-23 -2 -50.5 -5t-52.5 -3q-113 0 -214 37.5t-176.5 109.5t-120 177t-44.5 239q0 106 25.5 212t73 203.5t115.5 182t153 146.5t186.5 97.5t214.5 35.5q125 0 227 -42t174 -116
t111 -175t39 -218q0 -55 -7 -122t-25 -139.5t-50 -147.5t-82 -147.5t-120 -138.5t-164 -120q31 -57 59 -103t60 -79t70 -50.5t89 -17.5q30 0 61.5 6.5t62.5 16.5t59.5 22t52.5 23v-86z" />
    <glyph glyph-name="R" unicode="R" horiz-adv-x="1313" 
d="M958 1042q0 75 -32.5 121t-83.5 71t-113 32.5t-121 5.5q-8 0 -22 -1t-23 -1l-104 -559h45q83 0 164 15t145.5 53t104.5 101.5t40 161.5zM1260 0q-42 -19 -78.5 -26t-71.5 -7q-93 0 -149.5 30t-89 78t-48 106.5t-26.5 115.5q-12 57 -26.5 112.5t-41 99t-70.5 70.5t-116 27
q-14 0 -32 -0.5t-35 -0.5q-19 -1 -40 -1l-88 -469q-3 -15 5 -26t34 -13l119 -10v-86h-533v86l117 10q42 3 51 39l209 1102q3 17 -5 28t-34 13l-114 10v86h548q85 0 165.5 -14t142.5 -49t99.5 -93.5t37.5 -146.5q0 -83 -33 -150t-90 -119.5t-133 -90.5t-162 -62
q63 -27 100.5 -60.5t60.5 -74.5t36 -91t28 -108q15 -57 33 -100.5t47.5 -72.5t73 -43.5t109.5 -14.5v-84z" />
    <glyph glyph-name="S" unicode="S" horiz-adv-x="1067" 
d="M985 1020h-121l8 207q0 10 -15 23.5t-40.5 26t-58.5 21.5t-70 9q-59 0 -114.5 -21t-98.5 -58.5t-68.5 -89t-25.5 -112.5q0 -55 30 -96.5t74 -73.5t94 -56t91 -44q54 -28 105.5 -59t91.5 -70t64.5 -89.5t24.5 -117.5q0 -74 -30.5 -154t-98.5 -146.5t-176.5 -109.5
t-265.5 -43q-79 0 -146.5 14.5t-119 33t-85 36t-44.5 23.5l69 329h140l-23 -235q-1 -12 14 -24t39 -22.5t53 -19t55.5 -15t47 -10t27.5 -3.5q66 0 126 20.5t105.5 59t72.5 94t27 125.5q0 52 -30.5 92.5t-75 72.5t-94.5 56.5t-88 44.5q-54 28 -105 58.5t-90.5 68t-63.5 84.5
t-24 108q0 102 40 185t111.5 141.5t169 90.5t212.5 32q69 0 128 -9.5t104 -22.5t74.5 -25t39.5 -17z" />
    <glyph glyph-name="T" unicode="T" horiz-adv-x="1200" 
d="M1266 1061h-129l8 180q3 41 -39 41h-264l-213 -1147q-3 -15 5 -26t36 -13l116 -10v-86h-532v86l119 10q18 2 32 11.5t17 27.5l213 1147h-256q-39 0 -51 -41l-64 -180h-129l60 313h1134z" />
    <glyph glyph-name="U" unicode="U" horiz-adv-x="1448" 
d="M1415 1278q-18 -2 -32 -11.5t-17 -29.5l-158 -799q-21 -111 -67 -198.5t-117.5 -148t-168 -92.5t-218.5 -32q-95 0 -176.5 19.5t-142.5 62.5t-95.5 111t-34.5 166q0 31 6.5 87t20.5 128l143 696q3 17 -5 28t-36 13l-114 10v86h532v-86l-121 -10q-18 -2 -32 -11.5
t-17 -29.5l-141 -696q-12 -60 -17.5 -107.5t-5.5 -75.5q0 -65 20.5 -113t58 -80.5t91 -48.5t119.5 -16q100 0 167.5 33.5t112.5 89.5t71 130.5t42 156.5l144 727q3 17 -5 28t-36 13l-115 10v86h463v-86z" />
    <glyph glyph-name="V" unicode="V" horiz-adv-x="1317" 
d="M1358 1276l-707 -1309h-155l-199 1276q-3 20 -16 29.5t-33 11.5l-78 4v86h465v-86l-88 -4q-23 -2 -33.5 -10.5t-7.5 -30.5l153 -991l521 991q8 16 3 27.5t-34 13.5l-100 4v86h417v-86z" />
    <glyph glyph-name="W" unicode="W" horiz-adv-x="1898" 
d="M1927 1276l-614 -1309h-131l-119 1094l-512 -1094h-143l-103 1276q-2 20 -12.5 29.5t-36.5 11.5l-86 4v86h473v-86l-90 -4q-23 -2 -32 -12t-9 -29l72 -889l481 1020h166l104 -1034l416 903q18 38 -39 41l-92 4v86h428v-86z" />
    <glyph glyph-name="X" unicode="X" horiz-adv-x="1296" 
d="M1266 1280q-16 -2 -29.5 -12.5t-19.5 -18.5l-451 -512l268 -612q10 -19 20 -24t21 -7l111 -8v-86h-529v86l131 8q17 2 27 14t2 27l-184 430l-387 -430q-13 -12 -10.5 -25.5t28.5 -15.5l123 -8v-86h-477v86l98 8q17 2 30 12.5t19 18.5l510 571l-245 553q-8 19 -18 24
t-21 7l-113 8v86h532v-86l-133 -8q-17 -2 -27 -13.5t-3 -27.5l168 -383l335 383q11 12 9.5 25.5t-27.5 15.5l-98 8v86h463v-86z" />
    <glyph glyph-name="Y" unicode="Y" horiz-adv-x="1309" 
d="M1341 1280q-15 -2 -30 -12.5t-23 -18.5l-520 -674l-86 -440q-5 -15 4 -26t35 -13l115 -10v-86h-533v86l119 10q18 2 31 11.5t18 27.5l84 422l-229 692q-7 20 -17.5 24.5t-21.5 6.5l-115 8v86h530v-86l-131 -8q-17 -2 -25.5 -13t-2.5 -28l168 -532l395 532q4 7 7 14
t2 12.5t-6.5 9.5t-18.5 5l-127 8v86h493v-86z" />
    <glyph glyph-name="Z" unicode="Z" horiz-adv-x="1153" 
d="M1200 1282l-964 -1173h557q40 0 51 41l61 229h139l-71 -379h-1014l18 90l961 1178h-479q-22 0 -32.5 -9.5t-16.5 -29.5l-56 -180h-141l66 325h940z" />
    <glyph glyph-name="bracketleft" unicode="[" horiz-adv-x="862" 
d="M631 1354l-305 -1528h313v-96h-528l344 1720h510v-96h-334z" />
    <glyph glyph-name="backslash" unicode="\" horiz-adv-x="1001" 
d="M870 -190l-870 1564h131l870 -1564h-131z" />
    <glyph glyph-name="bracketright" unicode="]" horiz-adv-x="862" 
d="M426 -270h-510v98h336l303 1528h-313v94h528z" />
    <glyph glyph-name="asciicircum" unicode="^" horiz-adv-x="702" 
d="M676 1128l-168 189l-246 -189h-143l338 347h161l201 -347h-143z" />
    <glyph glyph-name="underscore" unicode="_" horiz-adv-x="622" 
d="M462 -315h-622l29 135h619z" />
    <glyph glyph-name="grave" unicode="`" horiz-adv-x="805" 
d="M526 1128l-297 195q-21 14 -34 34.5t-13 51.5q0 15 4.5 31t15 29t28 21.5t44.5 8.5q22 0 37.5 -4t27.5 -10.5t21.5 -16t18.5 -20.5l274 -320h-127z" />
    <glyph glyph-name="a" unicode="a" horiz-adv-x="1067" 
d="M760 803q1 5 -7.5 23t-20.5 37.5t-25.5 34.5t-22.5 15q-78 0 -139.5 -25.5t-107.5 -69t-78.5 -100.5t-52.5 -119t-29 -125t-9 -120q0 -43 7 -86t24.5 -78t48 -57t78.5 -22q36 0 72 16t67 37t54 42t34 32zM1061 55q-12 -5 -44 -18.5t-71.5 -27t-80 -24t-70.5 -10.5
q-37 0 -62.5 9t-42 27t-25.5 44t-12 60q-23 -22 -54 -46.5t-68.5 -45.5t-80 -34.5t-88.5 -13.5q-60 0 -105.5 17t-78.5 45.5t-54.5 66t-34.5 78t-18 82t-5 78.5q0 79 17 159.5t50.5 155t83.5 139.5t115.5 113t146 75.5t176.5 27.5q28 0 55.5 -6.5t51.5 -17t44 -23.5t34 -27
l30 49h140q-5 -12 -11 -28.5t-12 -33.5t-10.5 -32t-5.5 -23q-7 -27 -20 -81.5t-27.5 -122.5t-30 -142.5t-27.5 -141t-20 -118t-8 -74.5q0 -54 23 -74t65 -20q10 0 29.5 4.5t40.5 10.5t39 11t26 7v-74z" />
    <glyph glyph-name="b" unicode="b" horiz-adv-x="1008" 
d="M739 627q0 69 -16 116.5t-39 77.5t-48.5 43t-43.5 13q-25 0 -55 -8t-61.5 -22.5t-62.5 -33.5t-57 -41l-114 -620q10 -15 27 -29t39 -25.5t48 -18.5t54 -7q47 0 89.5 24t79 65t66.5 96t50.5 116.5t32 127t11.5 126.5zM942 635q0 -64 -14 -137.5t-43.5 -146.5t-75.5 -141
t-110 -120t-147 -83.5t-187 -31.5q-87 0 -171.5 24t-156.5 71l242 1298l-183 18v62l320 61h80l-117 -620q28 25 61.5 47.5t69.5 39t74 26.5t75 10q79 0 133 -35t87.5 -90t48 -121.5t14.5 -130.5z" />
    <glyph glyph-name="c" unicode="c" horiz-adv-x="891" 
d="M825 868q0 -20 -6 -41t-23.5 -39t-48 -32.5t-79.5 -20.5l-117 158q-55 -3 -98 -30.5t-75.5 -70.5t-55 -97.5t-36.5 -110.5t-20 -109t-6 -94q0 -50 9.5 -98.5t31 -87t56 -62.5t85.5 -24q41 0 83 14.5t84.5 40.5t85.5 62t87 79v-129q-32 -31 -73 -66t-91 -65t-109.5 -50
t-127.5 -20q-73 0 -131.5 25.5t-99 74t-62.5 119.5t-22 162q0 92 21.5 176t59.5 157t90 132.5t113 102t128.5 65.5t137.5 23q55 0 95 -14t65 -35t37 -46.5t12 -48.5z" />
    <glyph glyph-name="d" unicode="d" horiz-adv-x="1077" 
d="M850 176q-5 -29 3 -47t21.5 -28.5t28 -14.5t21.5 -4t28.5 5.5t45.5 12.5t45 13l28 8v-76q-12 -5 -44 -16.5t-71 -23.5t-80.5 -21t-72.5 -9q-47 0 -77 11.5t-47 32t-23.5 48.5t-6.5 62q-27 -29 -59.5 -56.5t-69.5 -49t-78 -35t-84 -13.5q-86 0 -142.5 33t-89.5 86
t-46.5 118t-13.5 130q0 81 17.5 162.5t52 156t84.5 138.5t114 111.5t142.5 74.5t168.5 27q23 0 45 -4.5t42 -10.5t37 -13t30 -11l69 395l-186 18v62l317 61h84zM770 807q1 4 -11.5 22.5t-32 38.5t-42.5 36t-43 16q-75 0 -143 -43.5t-120 -119.5t-83 -179.5t-31 -223.5
q0 -66 13.5 -114t36 -79t51.5 -46t59 -15q28 0 60.5 14t65.5 37.5t65.5 54t60.5 62.5z" />
    <glyph glyph-name="e" unicode="e" horiz-adv-x="889" 
d="M672 807q0 20 -8 39.5t-22 34.5t-35 24.5t-46 9.5q-34 0 -65 -18t-59.5 -48t-53 -69t-44 -82t-34.5 -87t-24 -83q65 6 134.5 30t126.5 61.5t93.5 85.5t36.5 102zM854 805q0 -56 -26 -103t-70.5 -85t-103 -67.5t-123 -50t-131.5 -33t-128 -15.5q-3 -20 -5.5 -48t-2.5 -47
q0 -56 13.5 -103t39 -81.5t61.5 -54t81 -19.5q69 0 152 50t196 149v-129q-29 -28 -71 -61.5t-95.5 -63t-116.5 -49t-133 -19.5q-31 0 -67.5 6t-72.5 21.5t-69.5 42.5t-59 68.5t-41 99t-15.5 135.5q0 81 19.5 161.5t55 154t85.5 137t110 110t128.5 73t141.5 26.5
q71 0 118.5 -23.5t76.5 -56.5t41 -68t12 -57z" />
    <glyph glyph-name="f" unicode="f" horiz-adv-x="659" 
d="M903 1382q0 -49 -36 -75.5t-93 -34.5l-160 129q-22 -18 -41 -52t-35 -77t-29.5 -91.5t-23.5 -94t-17 -85t-11 -65.5h250v-102h-269q-3 -23 -10.5 -80t-18.5 -132t-23.5 -160.5t-25 -165t-24.5 -146.5t-21 -105q-14 -57 -38.5 -117.5t-58 -117.5t-74 -108t-86 -89t-95 -60
t-100.5 -22q-39 0 -64.5 13t-39.5 30.5t-19.5 34t-5.5 24.5q0 39 15 60.5t38 38.5l209 -54q27 33 49.5 81t41 106t33.5 124.5t27 137.5q26 145 48 323.5t53 380.5l-158 -16l2 80l178 59q10 54 27.5 116.5t43.5 124t61.5 118.5t81.5 100.5t103.5 69.5t127.5 26q52 0 88 -13
t58 -32.5t32 -41.5t10 -40z" />
    <glyph glyph-name="g" unicode="g" horiz-adv-x="901" 
d="M657 -180q0 37 -22 68t-82 59l-256 116q-49 -12 -81.5 -33t-51.5 -47.5t-27 -56.5t-8 -61q0 -35 15 -77t46.5 -78t79.5 -60.5t113 -24.5q74 0 126 21t85 51t48 63.5t15 59.5zM635 735q0 38 -7 72.5t-21.5 61t-37 42t-53.5 15.5q-37 0 -76 -27t-71.5 -74t-53 -110
t-20.5 -135q0 -37 8 -68.5t23.5 -54t37 -35t48.5 -12.5q51 0 92.5 32.5t70.5 81.5t44.5 106t15.5 105zM805 862q9 -23 17.5 -59t8.5 -78q0 -98 -36 -171t-97 -122t-141.5 -73.5t-169.5 -24.5q-7 -15 -12 -33t-8 -35.5t-4 -32t2 -22.5l274 -125q47 -21 85.5 -42.5t66 -47
t42.5 -58t15 -77.5q0 -44 -20.5 -85.5t-56 -78t-85 -67.5t-107 -53t-121 -34t-128.5 -12q-101 0 -175 25t-122.5 66t-72 95t-23.5 113q0 52 21.5 96t58.5 79t86.5 62t105.5 46q-5 24 -0.5 56.5t15 66t27.5 64.5t38 52q-41 18 -76 41.5t-60.5 54t-40 70t-14.5 88.5
q0 75 28 147.5t81.5 130t130 93t174.5 35.5q37 0 69.5 -6.5t59 -15t46 -17.5t28.5 -15h278v-96h-188z" />
    <glyph glyph-name="h" unicode="h" horiz-adv-x="1073" 
d="M1069 51q-13 -5 -45.5 -17t-72.5 -25.5t-82 -23.5t-74 -10q-19 0 -48 5.5t-54.5 20t-40.5 40.5t-7 68l125 604q9 40 -1.5 71t-29.5 51.5t-42 31t-40 10.5q-24 0 -58.5 -12t-73 -33t-77.5 -50.5t-73 -64.5l-150 -717h-188l282 1368l-182 18v62l320 61h82l-138 -661
q31 34 73.5 64t91 52.5t101 35t103.5 12.5q56 0 99 -17.5t69.5 -52t34 -86.5t-7.5 -121l-113 -551q-6 -29 3 -48.5t24.5 -31t32.5 -16t26 -4.5q28 0 61 14t68 25z" />
    <glyph glyph-name="i" unicode="i" horiz-adv-x="545" 
d="M539 59q-12 -5 -44 -19t-75 -28.5t-90.5 -25.5t-89.5 -11q-53 0 -84 18t-46 47t-17 65t5 71l131 694l-176 19v59l309 64h84l-155 -819q-4 -21 0.5 -40t15 -33.5t27 -23t37.5 -8.5q18 0 42.5 6.5t49 15t45.5 16.5t31 11v-78zM530 1313q0 -23 -8.5 -43.5t-24 -36.5
t-38.5 -25.5t-53 -9.5q-63 0 -95 33.5t-32 81.5q0 20 8.5 40t25 36.5t40.5 27t55 10.5q29 0 51.5 -10t38.5 -26t24 -36.5t8 -41.5z" />
    <glyph glyph-name="j" unicode="j" horiz-adv-x="559" 
d="M328 164q-9 -51 -27 -118t-45.5 -137.5t-65 -138t-85.5 -121t-106 -86t-126 -32.5q-65 0 -101 31t-36 78q0 19 6 34t15 26t18.5 19t17.5 13l205 -56q15 16 30.5 49t30.5 74.5t27 87.5t20 88l154 895l-172 19v59l309 64h76zM545 1313q0 -18 -9 -38.5t-26 -37.5t-40.5 -28
t-51.5 -11q-56 0 -91.5 32.5t-35.5 82.5q0 23 7.5 44t23.5 37.5t40 26t56 9.5q31 0 54.5 -9.5t39.5 -26t24.5 -37.5t8.5 -44z" />
    <glyph glyph-name="k" unicode="k" horiz-adv-x="1042" 
d="M1018 47q-26 -13 -59.5 -26t-68.5 -23t-68.5 -16.5t-57.5 -6.5q-25 0 -49 8.5t-45.5 22t-39.5 31t-30 35.5q-14 21 -31.5 54.5t-37 73.5t-39.5 83.5t-38.5 84t-34 75.5t-26.5 57l-94 -84l-84 -416h-188l272 1368l-180 18v62l317 61h82l-190 -952l331 342q29 30 53 51.5
t46.5 35t45.5 20t50 6.5q34 0 59.5 -10t42 -26t24.5 -36t7 -39q0 -35 -32.5 -72.5t-104.5 -62.5l-70 74q-28 -22 -60.5 -49t-65.5 -55t-63 -55t-54 -48q13 -26 28.5 -65t33 -83.5t38 -91t43.5 -88.5q23 -43 48.5 -82.5t52.5 -70t55 -48.5t55 -18q11 0 27 2.5t34 6.5t35.5 10
t30.5 12v-70z" />
    <glyph glyph-name="l" unicode="l" horiz-adv-x="543" 
d="M539 53q-12 -5 -45 -17.5t-74 -26t-85.5 -24t-80.5 -10.5q-47 0 -80 11t-54 31t-30.5 47.5t-9.5 60.5q0 31 6 72l225 1171l-182 18v62l320 61h79l-249 -1306q-4 -21 2 -41.5t19 -36t32 -25.5t41 -10q15 0 39.5 5.5t49.5 12.5t46.5 14t30.5 9v-78z" />
    <glyph glyph-name="m" unicode="m" horiz-adv-x="1589" 
d="M1583 53q-26 -11 -58.5 -24.5t-67 -25.5t-68.5 -20t-64 -8q-42 0 -75.5 9.5t-56 27.5t-32 45t-2.5 62l113 547q10 51 7 89t-15.5 63t-31 37.5t-38.5 12.5q-47 0 -91.5 -21t-81.5 -49.5t-64 -58t-37 -47.5l-144 -692h-190l137 668q7 33 6.5 68.5t-10 64.5t-29.5 48t-53 19
q-36 0 -76.5 -21t-78 -50t-68 -59.5t-45.5 -49.5l-144 -688h-188l176 870l-170 19v59l307 64h84l-39 -189q38 36 81 70.5t89 60.5t93 42t92 16q51 0 84.5 -19t54 -47.5t30 -61.5t13.5 -61q37 37 82 71t94 60.5t99.5 42t97.5 15.5q51 0 89.5 -18.5t62 -52.5t30 -82t-5.5 -107
l-115 -553q-5 -25 1 -45.5t18.5 -35.5t30.5 -23.5t38 -8.5q25 0 58 12t71 25v-70z" />
    <glyph glyph-name="n" unicode="n" horiz-adv-x="1085" 
d="M1079 41q-13 -5 -45.5 -15.5t-72.5 -22t-82 -20t-74 -8.5q-18 0 -49.5 3.5t-60.5 16t-47 36.5t-9 65l125 629q7 41 0.5 68t-21 43.5t-33.5 23t-36 6.5q-25 0 -61.5 -14.5t-77 -38.5t-81.5 -56.5t-75 -68.5l-141 -688h-191l178 870l-172 19v59l309 64h82l-38 -191
q34 34 78 68.5t94 61.5t103.5 44t104.5 17q112 0 159.5 -62t23.5 -200l-109 -578q-5 -29 4.5 -46t25 -26t32.5 -11.5t26 -2.5q28 0 61 8t68 19z" />
    <glyph glyph-name="o" unicode="o" horiz-adv-x="1036" 
d="M766 623q0 73 -14 129t-38 94t-57.5 58t-72.5 20q-67 0 -124.5 -48.5t-99.5 -127t-66 -177t-24 -198.5q0 -76 14 -133t39 -95.5t58 -57.5t72 -19q48 0 90.5 24.5t77 66t61.5 96.5t46 116.5t28.5 126.5t9.5 125zM973 614q0 -83 -18.5 -162.5t-53 -150.5t-83 -130.5
t-109 -103t-131.5 -68t-150 -24.5q-84 0 -152 27t-115 77.5t-72.5 122t-25.5 160.5q0 83 18 163.5t51.5 152.5t81.5 133.5t108.5 106t132 69.5t151.5 25q74 0 140.5 -23t117 -72t80 -124t29.5 -179z" />
    <glyph glyph-name="p" unicode="p" horiz-adv-x="1012" 
d="M743 625q0 45 -9.5 91.5t-29 84.5t-49.5 62t-71 24q-37 0 -74 -16.5t-67.5 -37t-52.5 -40t-30 -25.5l-122 -635q9 -5 25.5 -15.5t38.5 -20.5t47 -17.5t52 -7.5q56 0 103 25t85 67.5t67 98.5t48 117.5t29 124.5t10 120zM946 633q0 -84 -20 -165.5t-57.5 -154.5t-90.5 -135
t-118 -107t-141 -70.5t-159 -25.5q-46 0 -83 13t-62 24l-65 -329q-4 -17 4.5 -27.5t35.5 -13.5l129 -11v-77h-516v77l107 11q43 3 49 41l231 1187l-172 19v59l310 64h80l-25 -127q26 17 59.5 39t71.5 41.5t79.5 33t84.5 13.5q78 0 129.5 -33.5t82 -87.5t43.5 -122t13 -136z
" />
    <glyph glyph-name="q" unicode="q" horiz-adv-x="1069" 
d="M772 795q2 11 -9.5 31.5t-29 41t-36 35.5t-29.5 15q-84 0 -157.5 -43t-128.5 -119t-86.5 -179t-31.5 -223q0 -58 11.5 -105t33 -80t52.5 -51t69 -18q31 0 61.5 11.5t59 30.5t56.5 42t55 47zM743 -317q-3 -17 5.5 -27.5t35.5 -13.5l127 -11v-77h-516v77l109 11
q20 2 33 11.5t18 29.5l84 426q-71 -59 -145 -96.5t-146 -37.5q-62 0 -113.5 23.5t-89 70.5t-58.5 116t-21 161q0 79 19 159t54 154t86 138.5t115 112t140 75t161 27.5q65 0 115 -19t78 -41l49 60h123z" />
    <glyph glyph-name="r" unicode="r" horiz-adv-x="766" 
d="M838 874q0 -36 -13 -57.5t-37 -32.5t-57.5 -14.5t-75.5 -3.5l-49 98q-38 -16 -81.5 -55.5t-82.5 -90t-68 -104t-38 -98.5l-107 -516h-190l176 870l-172 19v59l309 64h82l-43 -207q63 97 143 152t173 55q37 0 62 -13.5t40.5 -34.5t22 -45t6.5 -45z" />
    <glyph glyph-name="s" unicode="s" horiz-adv-x="758" 
d="M715 883q0 -36 -16 -57.5t-39 -33.5t-48.5 -16.5t-44.5 -5.5l-92 125q-6 5 -19 10.5t-32 5.5q-34 0 -57 -14.5t-37.5 -36t-20.5 -46t-6 -44.5q0 -28 16 -56.5t42 -57t58.5 -56t65.5 -53.5q34 -27 65.5 -55.5t56.5 -59t40 -64.5t15 -71q0 -63 -25.5 -121t-75 -103
t-123 -71.5t-168.5 -26.5q-74 0 -128 16.5t-89 43t-52 60.5t-17 69q0 49 29.5 79.5t92.5 30.5q19 0 36 -5t31 -11.5t24.5 -14t15.5 -12.5l-39 -100q22 -31 54.5 -52.5t84.5 -21.5q31 0 60 12t51.5 34t35.5 53.5t13 70.5q0 31 -12.5 58.5t-35 53.5t-53 51.5t-67.5 53.5
q-32 25 -61.5 54t-53 61.5t-37.5 68.5t-14 74q0 75 34 133t87.5 97.5t119 59.5t128.5 20q58 0 97.5 -13.5t64 -33t35 -42t10.5 -40.5z" />
    <glyph glyph-name="t" unicode="t" horiz-adv-x="614" 
d="M414 858l-129 -643q-6 -27 2 -48.5t25.5 -36t41 -22.5t49.5 -8q29 0 60 5.5t59.5 13.5t53 16.5t40.5 14.5v-82q-13 -6 -50 -21t-85 -31t-101 -28.5t-97 -12.5q-56 0 -93 13.5t-59 37t-31.5 56t-9.5 70.5q0 20 1.5 41t6.5 43l125 622l-129 -12v67l154 68l100 205h125
l-41 -234h283v-94h-301z" />
    <glyph glyph-name="u" unicode="u" horiz-adv-x="1079" 
d="M1073 49q-19 -11 -52.5 -24t-72.5 -24t-79.5 -18.5t-73.5 -7.5q-58 0 -86 19.5t-38.5 45t-9.5 51.5t1 38q-81 -77 -169.5 -115.5t-191.5 -38.5q-71 0 -116 25t-68 63t-28 83t3 85l133 639l-172 19v59l309 64h84l-163 -781q-6 -26 2.5 -49.5t25 -41t37.5 -28t41 -10.5
q37 0 74.5 10.5t74.5 28.5t71 41.5t63 50.5l155 754h191l-164 -788q-7 -32 0 -53.5t21.5 -35.5t33 -20t35.5 -6q20 0 53 6t76 31v-72z" />
    <glyph glyph-name="v" unicode="v" horiz-adv-x="946" 
d="M956 889q0 -26 -5 -49t-11.5 -43t-14 -36t-12.5 -26q-68 -126 -146 -241t-153 -212.5t-142 -176t-114 -130.5h-118q21 45 32 83.5t9 72.5q0 3 -2 30.5t-5.5 71t-8.5 99.5t-11 116t-12.5 120.5t-14 113t-15 93t-15.5 61.5q-10 21 -20 31t-27 10l-146 8v59l219 68
q84 -2 122 -37.5t46 -108.5l64 -630q52 68 96 129.5t80.5 119.5t66.5 115.5t54 118.5l-39 248q20 20 50 32.5t68 12.5q66 0 95.5 -33.5t29.5 -89.5z" />
    <glyph glyph-name="w" unicode="w" horiz-adv-x="1438" 
d="M1446 891q0 -43 -22 -103t-58 -129.5t-83 -144.5t-96.5 -148t-98 -139.5t-88.5 -119.5t-67.5 -88t-35.5 -44h-127l-45 699q-45 -97 -94 -193.5t-98 -186.5t-96.5 -171.5t-90.5 -147.5h-151l20 48l-57 845l-154 17v57l248 70l92 -6l45 -766q40 73 84 161t89 181.5t89 190
t84 188.5l154 18l51 -780q95 122 167 251t134 271l-41 240q4 4 13.5 12.5t25.5 17t37 15t47 6.5q37 0 60.5 -14.5t37.5 -34t19.5 -40t5.5 -32.5z" />
    <glyph glyph-name="x" unicode="x" horiz-adv-x="1081" 
d="M1104 891q0 -40 -26.5 -76.5t-86.5 -56.5l-90 80q-27 -11 -60 -39.5t-67.5 -73t-68.5 -103.5t-64 -130q6 -19 14.5 -47.5t19.5 -62t23.5 -69t26.5 -67.5q15 -33 31.5 -62t34.5 -51t36.5 -34.5t36.5 -12.5q23 0 49.5 4.5t67.5 24.5v-74q-59 -31 -116.5 -48.5t-123.5 -17.5
q-34 0 -63 18.5t-53.5 48.5t-45 69.5t-36.5 81.5t-28.5 84t-20.5 77q-29 -54 -66.5 -119.5t-85.5 -123.5t-106.5 -97t-129.5 -39q-63 0 -103 29.5t-40 83.5q0 50 32.5 80t94.5 41l86 -82q31 19 65.5 52t70 79.5t69 106.5t61.5 133q-5 20 -16 55t-26.5 74.5t-32.5 80.5
t-33 74.5t-29 55t-20 22.5l-179 23v55q9 3 29 9.5t45.5 15t53 17t51.5 16t42 12t25 4.5q36 0 68 -26t60.5 -76t54 -122t49.5 -165q30 58 71.5 126t91.5 126.5t108.5 97.5t123.5 39q56 0 90.5 -33.5t34.5 -87.5z" />
    <glyph glyph-name="y" unicode="y" horiz-adv-x="1018" 
d="M971 846q-12 -12 -35 -44t-47.5 -72t-48 -82.5t-37.5 -74.5q-22 -49 -51.5 -119t-66 -150.5t-79.5 -167t-92 -169.5q-48 -81 -102.5 -159.5t-115.5 -140t-128.5 -99t-140.5 -37.5q-56 0 -93 14t-59 34.5t-30.5 44t-8.5 42.5q0 23 10.5 44.5t29.5 38t45 26.5t56 12
l119 -119q32 3 63 25.5t65.5 67.5t75.5 113t93 163q-2 12 -10 53.5t-19.5 101t-26 131.5t-30.5 146q-16 72 -33.5 144.5t-34 130.5t-29.5 95t-20 38l-186 14v51l28 9q20 7 44 14.5t51 16t51 15t43.5 11t28.5 4.5q33 0 58 -15.5t44.5 -44.5t36 -69.5t31.5 -91.5
q26 -91 54 -225.5t58 -299.5l312 746h59l170 -56v-47z" />
    <glyph glyph-name="z" unicode="z" horiz-adv-x="911" 
d="M227 145l172 45q21 -8 48 -19.5t55.5 -22.5t55.5 -19t48 -8q22 0 38.5 6.5t29 16.5t22.5 21.5t19 22.5l-113 125q10 18 24 32.5t29.5 24.5t31.5 15.5t30 5.5q28 0 49.5 -11.5t36.5 -29.5t23 -41t8 -45q0 -62 -27.5 -115t-71 -91.5t-96 -60.5t-102.5 -22q-47 0 -89.5 13.5
t-82 30t-77.5 30.5t-75 14q-8 0 -23.5 -3t-29.5 -17l-51 -96l-142 76l695 813l-181 -39q-42 23 -87 41t-87 18q-13 0 -29 -4t-31 -11.5t-28.5 -18.5t-21.5 -25l108 -131q-4 -6 -14 -17.5t-24.5 -23t-33.5 -19.5t-40 -8q-29 0 -50.5 11.5t-35.5 29.5t-20.5 39.5t-6.5 40.5
q0 47 19.5 98.5t57 95t91 71.5t121.5 28q46 0 88.5 -16t80.5 -35.5t72.5 -35.5t65.5 -16q6 0 17 2.5t30 12.5l45 114l154 -80z" />
    <glyph glyph-name="braceleft" unicode="{" horiz-adv-x="995" 
d="M1032 1354q-83 0 -137 -20t-88 -52q-35 -33 -54.5 -78t-31.5 -96t-20.5 -106t-21.5 -108t-34.5 -101.5t-60.5 -87.5q-34 -32 -85.5 -60.5t-129.5 -48.5q46 -16 80 -33.5t59 -40.5q32 -30 45.5 -69t14.5 -83t-6.5 -92t-17.5 -95.5t-19 -93.5t-11 -86t6.5 -73t34.5 -55
q16 -14 37 -22t44.5 -12.5t49 -5.5t49.5 -1l-16 -86q-56 0 -108 2.5t-96.5 11.5t-81 25.5t-62.5 44.5q-29 31 -40 72t-10.5 87t9 95.5t19 99.5t20 97.5t11 89.5t-8 77t-35.5 58q-18 17 -43 25t-53.5 11t-59.5 3h-61l18 94q42 0 79.5 1t69.5 7t59.5 18.5t49.5 34.5
q38 36 58.5 89.5t33 114.5t23.5 126.5t29.5 127.5t50.5 115.5t88 90.5q63 43 153.5 58.5t215.5 15.5z" />
    <glyph glyph-name="bar" unicode="|" horiz-adv-x="724" 
d="M300 -528v2158h124v-2158h-124z" />
    <glyph glyph-name="braceright" unicode="}" horiz-adv-x="995" 
d="M879 547q-42 0 -79.5 -1.5t-70 -7.5t-59.5 -18.5t-49 -34.5q-38 -36 -58 -89t-33 -114t-23.5 -127t-29 -127.5t-50.5 -115t-87 -90.5q-65 -44 -155.5 -59t-215.5 -15l15 86q83 0 137.5 20t89.5 52q35 33 54 78t30.5 96.5t19.5 106.5t21 108t35 101.5t61 86.5
q34 34 85.5 61.5t129.5 49.5q-92 27 -137 72q-43 40 -54 95.5t-5 117.5t21.5 127t24.5 123.5t4.5 106.5t-38.5 77q-17 14 -38.5 22t-45 12.5t-49 5.5t-49.5 1l18 86q55 0 106 -2.5t95.5 -11.5t81.5 -25.5t63 -44.5q38 -42 46 -99.5t0 -122.5t-24 -132t-24.5 -128.5t-3 -112
t40.5 -81.5q18 -17 43 -25t53.5 -11t59.5 -3h61z" />
    <glyph glyph-name="asciitilde" unicode="~" horiz-adv-x="1706" 
d="M1544 627q-59 -41 -110 -68.5t-97.5 -44.5t-90 -24t-87.5 -7q-73 0 -145 21.5t-145 47.5t-148 47.5t-154 21.5q-78 0 -174.5 -42.5t-199.5 -117.5v133q109 78 207 111.5t182 33.5q74 0 149 -21.5t148 -47t144 -47t138 -21.5q37 0 78.5 8t88.5 26.5t100.5 48.5t115.5 75
v-133z" />
    <glyph glyph-name="Adieresis" unicode="&#xc4;" horiz-adv-x="1378" 
d="M766 1155l-303 -532h391zM801 0v86l94 10q45 6 39 39l-62 391h-464l-209 -391q-11 -20 -0.5 -28t39.5 -11l94 -10v-86h-441v86l115 12l756 1309h164l221 -1272q3 -20 11 -28.5t30 -10.5l94 -10v-86h-481zM781 1713q0 -23 -9 -44t-24.5 -37t-36 -25t-43.5 -9q-22 0 -42 9
t-35 25t-24 36t-9 43q0 22 9 42.5t24 36.5t35 25.5t42 9.5q23 0 43.5 -9t36 -24t24.5 -35.5t9 -43.5zM1205 1713q0 -23 -8.5 -44t-23.5 -37t-35.5 -25t-43.5 -9t-43.5 9t-35.5 25t-24 37t-9 44q0 21 9.5 41.5t25 36t36 25t41.5 9.5q23 0 43.5 -9t35.5 -24t23.5 -35.5
t8.5 -43.5z" />
    <glyph glyph-name="Aring" unicode="&#xc5;" horiz-adv-x="1378" 
d="M766 1155l-303 -532h391zM801 0v86l94 10q45 6 39 39l-62 391h-464l-209 -391q-11 -20 -0.5 -28t39.5 -11l94 -10v-86h-441v86l115 12l756 1309h164l221 -1272q3 -20 11 -28.5t30 -10.5l94 -10v-86h-481zM1030 1797q0 48 -31 76t-78 28q-32 0 -61.5 -13t-53 -35
t-37.5 -51t-14 -61q0 -48 32.5 -77t78.5 -29q31 0 61 13.5t52.5 36t36.5 51.5t14 61zM850 1528q-43 0 -79.5 14.5t-63 40.5t-41.5 62t-15 78q0 56 23.5 107.5t63 91t91 63t107.5 23.5q43 0 79.5 -14.5t63.5 -41t42 -62.5t15 -79q0 -57 -23.5 -108t-63.5 -90t-91.5 -62
t-107.5 -23z" />
    <glyph glyph-name="Ccedilla" unicode="&#xc7;" horiz-adv-x="1290" 
d="M817 -229q0 -53 -23 -95.5t-63 -72t-92.5 -45t-110.5 -15.5q-23 0 -47.5 3t-46.5 6.5t-40.5 8t-29.5 7.5l19 82q23 -6 61 -14.5t72 -8.5q14 0 37 4t44.5 14.5t37.5 29.5t16 49q0 15 -6.5 25.5t-16 17t-21.5 9.5t-24 3q-9 0 -21 -5.5t-44 -21.5l42 222q-40 6 -76 16
q-82 23 -145 63t-109 95t-75 119.5t-43 135.5t-14 144q0 109 27 215t78 201.5t124 177t164.5 140.5t200 92.5t230.5 33.5q50 0 96 -5.5t93 -16t98 -26t110 -34.5l-55 -319h-121v190q0 16 -11.5 33t-25.5 22q-4 2 -18 10.5t-36.5 17.5t-52.5 16.5t-67 7.5q-79 0 -155 -25
t-144.5 -72t-126.5 -115t-100.5 -154.5t-66.5 -190.5t-24 -222q0 -116 33.5 -201t90.5 -141t133.5 -83t162.5 -27q33 0 60 4.5t46.5 10.5t31.5 11.5t16 7.5q12 2 26.5 14.5t20.5 26.5l88 234h121l-55 -332q-12 -4 -51.5 -17t-97 -27.5t-128.5 -26t-145 -11.5h-2l-17 -92
q8 2 15.5 3t15.5 1q137 0 137 -108z" />
    <glyph glyph-name="Eacute" unicode="&#xc9;" horiz-adv-x="1143" 
d="M1126 1067h-131v166q0 22 -8 30.5t-31 8.5h-393l-94 -504h274q22 0 33.5 8.5t18.5 30.5l39 137h114l-90 -469h-117l21 146q6 41 -39 41h-277l-106 -560h481q22 0 33.5 11.5t17.5 29.5l64 197h125l-68 -340h-1024v86l119 10q43 3 49 39l213 1102q3 17 -5 28t-34 13
l-114 10v86h991zM1072 1811q0 -29 -13 -48.5t-36 -35.5l-307 -199h-144l279 320q10 12 21 21t24.5 16t31 10.5t40.5 3.5q27 0 46.5 -8t32 -20.5t19 -28.5t6.5 -31z" />
    <glyph glyph-name="Ntilde" unicode="&#xd1;" horiz-adv-x="1456" 
d="M1430 1278q-20 -2 -33.5 -11.5t-18.5 -29.5l-241 -1237h-148l-516 1087l-182 -952q-3 -15 5 -26t36 -13l114 -10v-86h-475v86l117 10q42 3 51 39l211 1102q3 17 -5 28t-34 13l-114 10v86h395v-53l461 -977l174 893q3 17 -5 28t-34 13l-117 10v86h475v-86zM1321 1815
q-22 -45 -50.5 -84.5t-65 -69t-81.5 -46.5t-100 -17q-42 0 -73 13.5t-63 33.5q-13 9 -26 17t-28.5 15t-34 11t-42.5 4q-13 0 -29.5 -7t-32.5 -19.5t-30 -29.5t-22 -38h-109q21 45 49.5 84.5t64.5 69t81 46.5t100 17q42 0 73.5 -13.5t63.5 -35.5q26 -15 55 -30t76 -15
q14 0 30.5 7t32.5 19.5t29.5 29.5t22.5 38h109z" />
    <glyph glyph-name="Odieresis" unicode="&#xd6;" horiz-adv-x="1454" 
d="M1182 854q0 102 -25.5 185t-71 142.5t-108 91.5t-135.5 32q-75 0 -142 -33t-124 -90t-102.5 -133.5t-77.5 -163.5t-49 -180.5t-17 -184.5q0 -104 26.5 -186.5t72 -140t107.5 -88.5t134 -31q75 0 142 33.5t124 91.5t102.5 134.5t77.5 163.5t49 178.5t17 178.5zM1415 854
q0 -108 -23 -215.5t-67 -206.5t-109 -183.5t-149.5 -147.5t-188 -98.5t-223.5 -35.5q-123 0 -225 40.5t-176 115.5t-115 180t-41 234q0 110 25 217t72.5 204t115 179t152 142t185 94t212.5 34q127 0 230 -43.5t175 -118.5t111 -176t39 -215zM835 1713q0 -23 -9 -44
t-24.5 -37t-36 -25t-43.5 -9q-22 0 -42 9t-35 25t-24 36t-9 43q0 22 9 42.5t24 36.5t35 25.5t42 9.5q23 0 43.5 -9t36 -24t24.5 -35.5t9 -43.5zM1259 1713q0 -23 -8.5 -44t-23.5 -37t-35.5 -25t-43.5 -9t-43.5 9t-35.5 25t-24 37t-9 44q0 21 9.5 41.5t25 36t36 25t41.5 9.5
q23 0 43.5 -9t35.5 -24t23.5 -35.5t8.5 -43.5z" />
    <glyph glyph-name="Udieresis" unicode="&#xdc;" horiz-adv-x="1448" 
d="M1415 1278q-18 -2 -32 -11.5t-17 -29.5l-158 -799q-21 -111 -67 -198.5t-117.5 -148t-168 -92.5t-218.5 -32q-95 0 -176.5 19.5t-142.5 62.5t-95.5 111t-34.5 166q0 31 6.5 87t20.5 128l143 696q3 17 -5 28t-36 13l-114 10v86h532v-86l-121 -10q-18 -2 -32 -11.5
t-17 -29.5l-141 -696q-12 -60 -17.5 -107.5t-5.5 -75.5q0 -65 20.5 -113t58 -80.5t91 -48.5t119.5 -16q100 0 167.5 33.5t112.5 89.5t71 130.5t42 156.5l144 727q3 17 -5 28t-36 13l-115 10v86h463v-86zM842 1713q0 -23 -9 -44t-24.5 -37t-36 -25t-43.5 -9q-22 0 -42 9
t-35 25t-24 36t-9 43q0 22 9 42.5t24 36.5t35 25.5t42 9.5q23 0 43.5 -9t36 -24t24.5 -35.5t9 -43.5zM1266 1713q0 -23 -8.5 -44t-23.5 -37t-35.5 -25t-43.5 -9t-43.5 9t-35.5 25t-24 37t-9 44q0 21 9.5 41.5t25 36t36 25t41.5 9.5q23 0 43.5 -9t35.5 -24t23.5 -35.5
t8.5 -43.5z" />
    <glyph glyph-name="aacute" unicode="&#xe1;" horiz-adv-x="1067" 
d="M760 803q1 5 -7.5 23t-20.5 37.5t-25.5 34.5t-22.5 15q-78 0 -139.5 -25.5t-107.5 -69t-78.5 -100.5t-52.5 -119t-29 -125t-9 -120q0 -43 7 -86t24.5 -78t48 -57t78.5 -22q36 0 72 16t67 37t54 42t34 32zM1061 55q-12 -5 -44 -18.5t-71.5 -27t-80 -24t-70.5 -10.5
q-37 0 -62.5 9t-42 27t-25.5 44t-12 60q-23 -22 -54 -46.5t-68.5 -45.5t-80 -34.5t-88.5 -13.5q-60 0 -105.5 17t-78.5 45.5t-54.5 66t-34.5 78t-18 82t-5 78.5q0 79 17 159.5t50.5 155t83.5 139.5t115.5 113t146 75.5t176.5 27.5q28 0 55.5 -6.5t51.5 -17t44 -23.5t34 -27
l30 49h140q-5 -12 -11 -28.5t-12 -33.5t-10.5 -32t-5.5 -23q-7 -27 -20 -81.5t-27.5 -122.5t-30 -142.5t-27.5 -141t-20 -118t-8 -74.5q0 -54 23 -74t65 -20q10 0 29.5 4.5t40.5 10.5t39 11t26 7v-74zM1043 1411q0 -29 -13 -48.5t-36 -35.5l-307 -199h-144l279 320
q10 12 21 21t24.5 16t31 10.5t40.5 3.5q27 0 46.5 -8t32 -20.5t19 -28.5t6.5 -31z" />
    <glyph glyph-name="agrave" unicode="&#xe0;" horiz-adv-x="1067" 
d="M760 803q1 5 -7.5 23t-20.5 37.5t-25.5 34.5t-22.5 15q-78 0 -139.5 -25.5t-107.5 -69t-78.5 -100.5t-52.5 -119t-29 -125t-9 -120q0 -43 7 -86t24.5 -78t48 -57t78.5 -22q36 0 72 16t67 37t54 42t34 32zM1061 55q-12 -5 -44 -18.5t-71.5 -27t-80 -24t-70.5 -10.5
q-37 0 -62.5 9t-42 27t-25.5 44t-12 60q-23 -22 -54 -46.5t-68.5 -45.5t-80 -34.5t-88.5 -13.5q-60 0 -105.5 17t-78.5 45.5t-54.5 66t-34.5 78t-18 82t-5 78.5q0 79 17 159.5t50.5 155t83.5 139.5t115.5 113t146 75.5t176.5 27.5q28 0 55.5 -6.5t51.5 -17t44 -23.5t34 -27
l30 49h140q-5 -12 -11 -28.5t-12 -33.5t-10.5 -32t-5.5 -23q-7 -27 -20 -81.5t-27.5 -122.5t-30 -142.5t-27.5 -141t-20 -118t-8 -74.5q0 -54 23 -74t65 -20q10 0 29.5 4.5t40.5 10.5t39 11t26 7v-74zM786 1128l-297 195q-21 14 -34 34.5t-13 51.5q0 15 4.5 31t15 29
t28 21.5t44.5 8.5q22 0 37.5 -4t27.5 -10.5t21.5 -16t18.5 -20.5l274 -320h-127z" />
    <glyph glyph-name="acircumflex" unicode="&#xe2;" horiz-adv-x="1067" 
d="M760 803q1 5 -7.5 23t-20.5 37.5t-25.5 34.5t-22.5 15q-78 0 -139.5 -25.5t-107.5 -69t-78.5 -100.5t-52.5 -119t-29 -125t-9 -120q0 -43 7 -86t24.5 -78t48 -57t78.5 -22q36 0 72 16t67 37t54 42t34 32zM1061 55q-12 -5 -44 -18.5t-71.5 -27t-80 -24t-70.5 -10.5
q-37 0 -62.5 9t-42 27t-25.5 44t-12 60q-23 -22 -54 -46.5t-68.5 -45.5t-80 -34.5t-88.5 -13.5q-60 0 -105.5 17t-78.5 45.5t-54.5 66t-34.5 78t-18 82t-5 78.5q0 79 17 159.5t50.5 155t83.5 139.5t115.5 113t146 75.5t176.5 27.5q28 0 55.5 -6.5t51.5 -17t44 -23.5t34 -27
l30 49h140q-5 -12 -11 -28.5t-12 -33.5t-10.5 -32t-5.5 -23q-7 -27 -20 -81.5t-27.5 -122.5t-30 -142.5t-27.5 -141t-20 -118t-8 -74.5q0 -54 23 -74t65 -20q10 0 29.5 4.5t40.5 10.5t39 11t26 7v-74zM917 1128l-168 189l-246 -189h-143l338 347h161l201 -347h-143z" />
    <glyph glyph-name="adieresis" unicode="&#xe4;" horiz-adv-x="1067" 
d="M760 803q1 5 -7.5 23t-20.5 37.5t-25.5 34.5t-22.5 15q-78 0 -139.5 -25.5t-107.5 -69t-78.5 -100.5t-52.5 -119t-29 -125t-9 -120q0 -43 7 -86t24.5 -78t48 -57t78.5 -22q36 0 72 16t67 37t54 42t34 32zM1061 55q-12 -5 -44 -18.5t-71.5 -27t-80 -24t-70.5 -10.5
q-37 0 -62.5 9t-42 27t-25.5 44t-12 60q-23 -22 -54 -46.5t-68.5 -45.5t-80 -34.5t-88.5 -13.5q-60 0 -105.5 17t-78.5 45.5t-54.5 66t-34.5 78t-18 82t-5 78.5q0 79 17 159.5t50.5 155t83.5 139.5t115.5 113t146 75.5t176.5 27.5q28 0 55.5 -6.5t51.5 -17t44 -23.5t34 -27
l30 49h140q-5 -12 -11 -28.5t-12 -33.5t-10.5 -32t-5.5 -23q-7 -27 -20 -81.5t-27.5 -122.5t-30 -142.5t-27.5 -141t-20 -118t-8 -74.5q0 -54 23 -74t65 -20q10 0 29.5 4.5t40.5 10.5t39 11t26 7v-74zM647 1313q0 -23 -9 -44t-24.5 -37t-36 -25t-43.5 -9q-22 0 -42 9t-35 25
t-24 36t-9 43q0 22 9 42.5t24 36.5t35 25.5t42 9.5q23 0 43.5 -9t36 -24t24.5 -35.5t9 -43.5zM1071 1313q0 -23 -8.5 -44t-23.5 -37t-35.5 -25t-43.5 -9t-43.5 9t-35.5 25t-24 37t-9 44q0 21 9.5 41.5t25 36t36 25t41.5 9.5q23 0 43.5 -9t35.5 -24t23.5 -35.5t8.5 -43.5z
" />
    <glyph glyph-name="atilde" unicode="&#xe3;" horiz-adv-x="1067" 
d="M760 803q1 5 -7.5 23t-20.5 37.5t-25.5 34.5t-22.5 15q-78 0 -139.5 -25.5t-107.5 -69t-78.5 -100.5t-52.5 -119t-29 -125t-9 -120q0 -43 7 -86t24.5 -78t48 -57t78.5 -22q36 0 72 16t67 37t54 42t34 32zM1061 55q-12 -5 -44 -18.5t-71.5 -27t-80 -24t-70.5 -10.5
q-37 0 -62.5 9t-42 27t-25.5 44t-12 60q-23 -22 -54 -46.5t-68.5 -45.5t-80 -34.5t-88.5 -13.5q-60 0 -105.5 17t-78.5 45.5t-54.5 66t-34.5 78t-18 82t-5 78.5q0 79 17 159.5t50.5 155t83.5 139.5t115.5 113t146 75.5t176.5 27.5q28 0 55.5 -6.5t51.5 -17t44 -23.5t34 -27
l30 49h140q-5 -12 -11 -28.5t-12 -33.5t-10.5 -32t-5.5 -23q-7 -27 -20 -81.5t-27.5 -122.5t-30 -142.5t-27.5 -141t-20 -118t-8 -74.5q0 -54 23 -74t65 -20q10 0 29.5 4.5t40.5 10.5t39 11t26 7v-74zM1140 1415q-22 -45 -50.5 -84.5t-65 -69t-81.5 -46.5t-100 -17
q-42 0 -73 13.5t-63 33.5q-13 9 -26 17t-28.5 15t-34 11t-42.5 4q-13 0 -29.5 -7t-32.5 -19.5t-30 -29.5t-22 -38h-109q21 45 49.5 84.5t64.5 69t81 46.5t100 17q42 0 73.5 -13.5t63.5 -35.5q26 -15 55 -30t76 -15q14 0 30.5 7t32.5 19.5t29.5 29.5t22.5 38h109z" />
    <glyph glyph-name="aring" unicode="&#xe5;" horiz-adv-x="1067" 
d="M760 803q1 5 -7.5 23t-20.5 37.5t-25.5 34.5t-22.5 15q-78 0 -139.5 -25.5t-107.5 -69t-78.5 -100.5t-52.5 -119t-29 -125t-9 -120q0 -43 7 -86t24.5 -78t48 -57t78.5 -22q36 0 72 16t67 37t54 42t34 32zM1061 55q-12 -5 -44 -18.5t-71.5 -27t-80 -24t-70.5 -10.5
q-37 0 -62.5 9t-42 27t-25.5 44t-12 60q-23 -22 -54 -46.5t-68.5 -45.5t-80 -34.5t-88.5 -13.5q-60 0 -105.5 17t-78.5 45.5t-54.5 66t-34.5 78t-18 82t-5 78.5q0 79 17 159.5t50.5 155t83.5 139.5t115.5 113t146 75.5t176.5 27.5q28 0 55.5 -6.5t51.5 -17t44 -23.5t34 -27
l30 49h140q-5 -12 -11 -28.5t-12 -33.5t-10.5 -32t-5.5 -23q-7 -27 -20 -81.5t-27.5 -122.5t-30 -142.5t-27.5 -141t-20 -118t-8 -74.5q0 -54 23 -74t65 -20q10 0 29.5 4.5t40.5 10.5t39 11t26 7v-74zM896 1397q0 48 -31 76t-78 28q-32 0 -61.5 -13t-53 -35t-37.5 -51
t-14 -61q0 -48 32.5 -77t78.5 -29q31 0 61 13.5t52.5 36t36.5 51.5t14 61zM716 1128q-43 0 -79.5 14.5t-63 40.5t-41.5 62t-15 78q0 56 23.5 107.5t63 91t91 63t107.5 23.5q43 0 79.5 -14.5t63.5 -41t42 -62.5t15 -79q0 -57 -23.5 -108t-63.5 -90t-91.5 -62t-107.5 -23z" />
    <glyph glyph-name="ccedilla" unicode="&#xe7;" horiz-adv-x="891" 
d="M608 -229q0 -53 -23 -95.5t-63 -72t-92.5 -45t-110.5 -15.5q-23 0 -47.5 3t-46.5 6.5t-40.5 8t-29.5 7.5l19 82q23 -6 61 -14.5t72 -8.5q14 0 37 4t44.5 14.5t37.5 29.5t16 49q0 15 -6.5 25.5t-16 17t-21.5 9.5t-24 3q-9 0 -21 -5.5t-44 -21.5l43 224q-56 4 -103 24
q-58 26 -98.5 74.5t-62.5 119.5t-22 162q0 92 21.5 176t59.5 157t90 132.5t113 102t128.5 65.5t137.5 23q55 0 95 -14t65 -35t37 -46.5t12 -48.5q0 -20 -6 -41t-23.5 -39t-48 -32.5t-79.5 -20.5l-117 158q-55 -3 -98 -30.5t-75.5 -70.5t-55 -97.5t-36.5 -110.5t-20 -109
t-6 -94q0 -50 9.5 -98.5t31 -87t56 -62.5t85.5 -24q41 0 83 14.5t84.5 40.5t85.5 62t87 79v-129q-32 -31 -73 -66t-91 -65t-110 -50q-24 -8 -49 -12l-19 -108q8 2 15.5 3t15.5 1q137 0 137 -108z" />
    <glyph glyph-name="eacute" unicode="&#xe9;" horiz-adv-x="889" 
d="M672 807q0 20 -8 39.5t-22 34.5t-35 24.5t-46 9.5q-34 0 -65 -18t-59.5 -48t-53 -69t-44 -82t-34.5 -87t-24 -83q65 6 134.5 30t126.5 61.5t93.5 85.5t36.5 102zM854 805q0 -56 -26 -103t-70.5 -85t-103 -67.5t-123 -50t-131.5 -33t-128 -15.5q-3 -20 -5.5 -48t-2.5 -47
q0 -56 13.5 -103t39 -81.5t61.5 -54t81 -19.5q69 0 152 50t196 149v-129q-29 -28 -71 -61.5t-95.5 -63t-116.5 -49t-133 -19.5q-31 0 -67.5 6t-72.5 21.5t-69.5 42.5t-59 68.5t-41 99t-15.5 135.5q0 81 19.5 161.5t55 154t85.5 137t110 110t128.5 73t141.5 26.5
q71 0 118.5 -23.5t76.5 -56.5t41 -68t12 -57zM938 1411q0 -29 -13 -48.5t-36 -35.5l-307 -199h-144l279 320q10 12 21 21t24.5 16t31 10.5t40.5 3.5q27 0 46.5 -8t32 -20.5t19 -28.5t6.5 -31z" />
    <glyph glyph-name="egrave" unicode="&#xe8;" horiz-adv-x="889" 
d="M672 807q0 20 -8 39.5t-22 34.5t-35 24.5t-46 9.5q-34 0 -65 -18t-59.5 -48t-53 -69t-44 -82t-34.5 -87t-24 -83q65 6 134.5 30t126.5 61.5t93.5 85.5t36.5 102zM854 805q0 -56 -26 -103t-70.5 -85t-103 -67.5t-123 -50t-131.5 -33t-128 -15.5q-3 -20 -5.5 -48t-2.5 -47
q0 -56 13.5 -103t39 -81.5t61.5 -54t81 -19.5q69 0 152 50t196 149v-129q-29 -28 -71 -61.5t-95.5 -63t-116.5 -49t-133 -19.5q-31 0 -67.5 6t-72.5 21.5t-69.5 42.5t-59 68.5t-41 99t-15.5 135.5q0 81 19.5 161.5t55 154t85.5 137t110 110t128.5 73t141.5 26.5
q71 0 118.5 -23.5t76.5 -56.5t41 -68t12 -57zM681 1128l-297 195q-21 14 -34 34.5t-13 51.5q0 15 4.5 31t15 29t28 21.5t44.5 8.5q22 0 37.5 -4t27.5 -10.5t21.5 -16t18.5 -20.5l274 -320h-127z" />
    <glyph glyph-name="ecircumflex" unicode="&#xea;" horiz-adv-x="889" 
d="M672 807q0 20 -8 39.5t-22 34.5t-35 24.5t-46 9.5q-34 0 -65 -18t-59.5 -48t-53 -69t-44 -82t-34.5 -87t-24 -83q65 6 134.5 30t126.5 61.5t93.5 85.5t36.5 102zM854 805q0 -56 -26 -103t-70.5 -85t-103 -67.5t-123 -50t-131.5 -33t-128 -15.5q-3 -20 -5.5 -48t-2.5 -47
q0 -56 13.5 -103t39 -81.5t61.5 -54t81 -19.5q69 0 152 50t196 149v-129q-29 -28 -71 -61.5t-95.5 -63t-116.5 -49t-133 -19.5q-31 0 -67.5 6t-72.5 21.5t-69.5 42.5t-59 68.5t-41 99t-15.5 135.5q0 81 19.5 161.5t55 154t85.5 137t110 110t128.5 73t141.5 26.5
q71 0 118.5 -23.5t76.5 -56.5t41 -68t12 -57zM812 1128l-168 189l-246 -189h-143l338 347h161l201 -347h-143z" />
    <glyph glyph-name="edieresis" unicode="&#xeb;" horiz-adv-x="889" 
d="M672 807q0 20 -8 39.5t-22 34.5t-35 24.5t-46 9.5q-34 0 -65 -18t-59.5 -48t-53 -69t-44 -82t-34.5 -87t-24 -83q65 6 134.5 30t126.5 61.5t93.5 85.5t36.5 102zM854 805q0 -56 -26 -103t-70.5 -85t-103 -67.5t-123 -50t-131.5 -33t-128 -15.5q-3 -20 -5.5 -48t-2.5 -47
q0 -56 13.5 -103t39 -81.5t61.5 -54t81 -19.5q69 0 152 50t196 149v-129q-29 -28 -71 -61.5t-95.5 -63t-116.5 -49t-133 -19.5q-31 0 -67.5 6t-72.5 21.5t-69.5 42.5t-59 68.5t-41 99t-15.5 135.5q0 81 19.5 161.5t55 154t85.5 137t110 110t128.5 73t141.5 26.5
q71 0 118.5 -23.5t76.5 -56.5t41 -68t12 -57zM542 1313q0 -23 -9 -44t-24.5 -37t-36 -25t-43.5 -9q-22 0 -42 9t-35 25t-24 36t-9 43q0 22 9 42.5t24 36.5t35 25.5t42 9.5q23 0 43.5 -9t36 -24t24.5 -35.5t9 -43.5zM966 1313q0 -23 -8.5 -44t-23.5 -37t-35.5 -25t-43.5 -9
t-43.5 9t-35.5 25t-24 37t-9 44q0 21 9.5 41.5t25 36t36 25t41.5 9.5q23 0 43.5 -9t35.5 -24t23.5 -35.5t8.5 -43.5z" />
    <glyph glyph-name="iacute" unicode="&#xed;" horiz-adv-x="545" 
d="M539 59q-12 -5 -44 -19t-75 -28.5t-90.5 -25.5t-89.5 -11q-53 0 -84 18t-46 47t-17 65t5 71l131 694l-176 19v59l309 64h84l-155 -819q-4 -21 0.5 -40t15 -33.5t27 -23t37.5 -8.5q18 0 42.5 6.5t49 15t45.5 16.5t31 11v-78zM718 1411q0 -29 -13 -48.5t-36 -35.5
l-307 -199h-144l279 320q10 12 21 21t24.5 16t31 10.5t40.5 3.5q27 0 46.5 -8t32 -20.5t19 -28.5t6.5 -31z" />
    <glyph glyph-name="igrave" unicode="&#xec;" horiz-adv-x="545" 
d="M539 59q-12 -5 -44 -19t-75 -28.5t-90.5 -25.5t-89.5 -11q-53 0 -84 18t-46 47t-17 65t5 71l131 694l-176 19v59l309 64h84l-155 -819q-4 -21 0.5 -40t15 -33.5t27 -23t37.5 -8.5q18 0 42.5 6.5t49 15t45.5 16.5t31 11v-78zM461 1128l-297 195q-21 14 -34 34.5t-13 51.5
q0 15 4.5 31t15 29t28 21.5t44.5 8.5q22 0 37.5 -4t27.5 -10.5t21.5 -16t18.5 -20.5l274 -320h-127z" />
    <glyph glyph-name="icircumflex" unicode="&#xee;" horiz-adv-x="545" 
d="M539 59q-12 -5 -44 -19t-75 -28.5t-90.5 -25.5t-89.5 -11q-53 0 -84 18t-46 47t-17 65t5 71l131 694l-176 19v59l309 64h84l-155 -819q-4 -21 0.5 -40t15 -33.5t27 -23t37.5 -8.5q18 0 42.5 6.5t49 15t45.5 16.5t31 11v-78zM592 1128l-168 189l-246 -189h-143l338 347
h161l201 -347h-143z" />
    <glyph glyph-name="idieresis" unicode="&#xef;" horiz-adv-x="545" 
d="M539 59q-12 -5 -44 -19t-75 -28.5t-90.5 -25.5t-89.5 -11q-53 0 -84 18t-46 47t-17 65t5 71l131 694l-176 19v59l309 64h84l-155 -819q-4 -21 0.5 -40t15 -33.5t27 -23t37.5 -8.5q18 0 42.5 6.5t49 15t45.5 16.5t31 11v-78zM322 1313q0 -23 -9 -44t-24.5 -37t-36 -25
t-43.5 -9q-22 0 -42 9t-35 25t-24 36t-9 43q0 22 9 42.5t24 36.5t35 25.5t42 9.5q23 0 43.5 -9t36 -24t24.5 -35.5t9 -43.5zM746 1313q0 -23 -8.5 -44t-23.5 -37t-35.5 -25t-43.5 -9t-43.5 9t-35.5 25t-24 37t-9 44q0 21 9.5 41.5t25 36t36 25t41.5 9.5q23 0 43.5 -9
t35.5 -24t23.5 -35.5t8.5 -43.5z" />
    <glyph glyph-name="ntilde" unicode="&#xf1;" horiz-adv-x="1085" 
d="M1079 41q-13 -5 -45.5 -15.5t-72.5 -22t-82 -20t-74 -8.5q-18 0 -49.5 3.5t-60.5 16t-47 36.5t-9 65l125 629q7 41 0.5 68t-21 43.5t-33.5 23t-36 6.5q-25 0 -61.5 -14.5t-77 -38.5t-81.5 -56.5t-75 -68.5l-141 -688h-191l178 870l-172 19v59l309 64h82l-38 -191
q34 34 78 68.5t94 61.5t103.5 44t104.5 17q112 0 159.5 -62t23.5 -200l-109 -578q-5 -29 4.5 -46t25 -26t32.5 -11.5t26 -2.5q28 0 61 8t68 19zM1085 1415q-22 -45 -50.5 -84.5t-65 -69t-81.5 -46.5t-100 -17q-42 0 -73 13.5t-63 33.5q-13 9 -26 17t-28.5 15t-34 11t-42.5 4
q-13 0 -29.5 -7t-32.5 -19.5t-30 -29.5t-22 -38h-109q21 45 49.5 84.5t64.5 69t81 46.5t100 17q42 0 73.5 -13.5t63.5 -35.5q26 -15 55 -30t76 -15q14 0 30.5 7t32.5 19.5t29.5 29.5t22.5 38h109z" />
    <glyph glyph-name="oacute" unicode="&#xf3;" horiz-adv-x="1036" 
d="M766 623q0 73 -14 129t-38 94t-57.5 58t-72.5 20q-67 0 -124.5 -48.5t-99.5 -127t-66 -177t-24 -198.5q0 -76 14 -133t39 -95.5t58 -57.5t72 -19q48 0 90.5 24.5t77 66t61.5 96.5t46 116.5t28.5 126.5t9.5 125zM973 614q0 -83 -18.5 -162.5t-53 -150.5t-83 -130.5
t-109 -103t-131.5 -68t-150 -24.5q-84 0 -152 27t-115 77.5t-72.5 122t-25.5 160.5q0 83 18 163.5t51.5 152.5t81.5 133.5t108.5 106t132 69.5t151.5 25q74 0 140.5 -23t117 -72t80 -124t29.5 -179zM981 1411q0 -29 -13 -48.5t-36 -35.5l-307 -199h-144l279 320q10 12 21 21
t24.5 16t31 10.5t40.5 3.5q27 0 46.5 -8t32 -20.5t19 -28.5t6.5 -31z" />
    <glyph glyph-name="ograve" unicode="&#xf2;" horiz-adv-x="1036" 
d="M766 623q0 73 -14 129t-38 94t-57.5 58t-72.5 20q-67 0 -124.5 -48.5t-99.5 -127t-66 -177t-24 -198.5q0 -76 14 -133t39 -95.5t58 -57.5t72 -19q48 0 90.5 24.5t77 66t61.5 96.5t46 116.5t28.5 126.5t9.5 125zM973 614q0 -83 -18.5 -162.5t-53 -150.5t-83 -130.5
t-109 -103t-131.5 -68t-150 -24.5q-84 0 -152 27t-115 77.5t-72.5 122t-25.5 160.5q0 83 18 163.5t51.5 152.5t81.5 133.5t108.5 106t132 69.5t151.5 25q74 0 140.5 -23t117 -72t80 -124t29.5 -179zM724 1128l-297 195q-21 14 -34 34.5t-13 51.5q0 15 4.5 31t15 29t28 21.5
t44.5 8.5q22 0 37.5 -4t27.5 -10.5t21.5 -16t18.5 -20.5l274 -320h-127z" />
    <glyph glyph-name="ocircumflex" unicode="&#xf4;" horiz-adv-x="1036" 
d="M766 623q0 73 -14 129t-38 94t-57.5 58t-72.5 20q-67 0 -124.5 -48.5t-99.5 -127t-66 -177t-24 -198.5q0 -76 14 -133t39 -95.5t58 -57.5t72 -19q48 0 90.5 24.5t77 66t61.5 96.5t46 116.5t28.5 126.5t9.5 125zM973 614q0 -83 -18.5 -162.5t-53 -150.5t-83 -130.5
t-109 -103t-131.5 -68t-150 -24.5q-84 0 -152 27t-115 77.5t-72.5 122t-25.5 160.5q0 83 18 163.5t51.5 152.5t81.5 133.5t108.5 106t132 69.5t151.5 25q74 0 140.5 -23t117 -72t80 -124t29.5 -179zM855 1128l-168 189l-246 -189h-143l338 347h161l201 -347h-143z" />
    <glyph glyph-name="odieresis" unicode="&#xf6;" horiz-adv-x="1036" 
d="M766 623q0 73 -14 129t-38 94t-57.5 58t-72.5 20q-67 0 -124.5 -48.5t-99.5 -127t-66 -177t-24 -198.5q0 -76 14 -133t39 -95.5t58 -57.5t72 -19q48 0 90.5 24.5t77 66t61.5 96.5t46 116.5t28.5 126.5t9.5 125zM973 614q0 -83 -18.5 -162.5t-53 -150.5t-83 -130.5
t-109 -103t-131.5 -68t-150 -24.5q-84 0 -152 27t-115 77.5t-72.5 122t-25.5 160.5q0 83 18 163.5t51.5 152.5t81.5 133.5t108.5 106t132 69.5t151.5 25q74 0 140.5 -23t117 -72t80 -124t29.5 -179zM585 1313q0 -23 -9 -44t-24.5 -37t-36 -25t-43.5 -9q-22 0 -42 9t-35 25
t-24 36t-9 43q0 22 9 42.5t24 36.5t35 25.5t42 9.5q23 0 43.5 -9t36 -24t24.5 -35.5t9 -43.5zM1009 1313q0 -23 -8.5 -44t-23.5 -37t-35.5 -25t-43.5 -9t-43.5 9t-35.5 25t-24 37t-9 44q0 21 9.5 41.5t25 36t36 25t41.5 9.5q23 0 43.5 -9t35.5 -24t23.5 -35.5t8.5 -43.5z
" />
    <glyph glyph-name="otilde" unicode="&#xf5;" horiz-adv-x="1036" 
d="M766 623q0 73 -14 129t-38 94t-57.5 58t-72.5 20q-67 0 -124.5 -48.5t-99.5 -127t-66 -177t-24 -198.5q0 -76 14 -133t39 -95.5t58 -57.5t72 -19q48 0 90.5 24.5t77 66t61.5 96.5t46 116.5t28.5 126.5t9.5 125zM973 614q0 -83 -18.5 -162.5t-53 -150.5t-83 -130.5
t-109 -103t-131.5 -68t-150 -24.5q-84 0 -152 27t-115 77.5t-72.5 122t-25.5 160.5q0 83 18 163.5t51.5 152.5t81.5 133.5t108.5 106t132 69.5t151.5 25q74 0 140.5 -23t117 -72t80 -124t29.5 -179zM1078 1415q-22 -45 -50.5 -84.5t-65 -69t-81.5 -46.5t-100 -17
q-42 0 -73 13.5t-63 33.5q-13 9 -26 17t-28.5 15t-34 11t-42.5 4q-13 0 -29.5 -7t-32.5 -19.5t-30 -29.5t-22 -38h-109q21 45 49.5 84.5t64.5 69t81 46.5t100 17q42 0 73.5 -13.5t63.5 -35.5q26 -15 55 -30t76 -15q14 0 30.5 7t32.5 19.5t29.5 29.5t22.5 38h109z" />
    <glyph glyph-name="uacute" unicode="&#xfa;" horiz-adv-x="1079" 
d="M1073 49q-19 -11 -52.5 -24t-72.5 -24t-79.5 -18.5t-73.5 -7.5q-58 0 -86 19.5t-38.5 45t-9.5 51.5t1 38q-81 -77 -169.5 -115.5t-191.5 -38.5q-71 0 -116 25t-68 63t-28 83t3 85l133 639l-172 19v59l309 64h84l-163 -781q-6 -26 2.5 -49.5t25 -41t37.5 -28t41 -10.5
q37 0 74.5 10.5t74.5 28.5t71 41.5t63 50.5l155 754h191l-164 -788q-7 -32 0 -53.5t21.5 -35.5t33 -20t35.5 -6q20 0 53 6t76 31v-72zM994 1411q0 -29 -13 -48.5t-36 -35.5l-307 -199h-144l279 320q10 12 21 21t24.5 16t31 10.5t40.5 3.5q27 0 46.5 -8t32 -20.5t19 -28.5
t6.5 -31z" />
    <glyph glyph-name="ugrave" unicode="&#xf9;" horiz-adv-x="1079" 
d="M1073 49q-19 -11 -52.5 -24t-72.5 -24t-79.5 -18.5t-73.5 -7.5q-58 0 -86 19.5t-38.5 45t-9.5 51.5t1 38q-81 -77 -169.5 -115.5t-191.5 -38.5q-71 0 -116 25t-68 63t-28 83t3 85l133 639l-172 19v59l309 64h84l-163 -781q-6 -26 2.5 -49.5t25 -41t37.5 -28t41 -10.5
q37 0 74.5 10.5t74.5 28.5t71 41.5t63 50.5l155 754h191l-164 -788q-7 -32 0 -53.5t21.5 -35.5t33 -20t35.5 -6q20 0 53 6t76 31v-72zM737 1128l-297 195q-21 14 -34 34.5t-13 51.5q0 15 4.5 31t15 29t28 21.5t44.5 8.5q22 0 37.5 -4t27.5 -10.5t21.5 -16t18.5 -20.5
l274 -320h-127z" />
    <glyph glyph-name="ucircumflex" unicode="&#xfb;" horiz-adv-x="1079" 
d="M1073 49q-19 -11 -52.5 -24t-72.5 -24t-79.5 -18.5t-73.5 -7.5q-58 0 -86 19.5t-38.5 45t-9.5 51.5t1 38q-81 -77 -169.5 -115.5t-191.5 -38.5q-71 0 -116 25t-68 63t-28 83t3 85l133 639l-172 19v59l309 64h84l-163 -781q-6 -26 2.5 -49.5t25 -41t37.5 -28t41 -10.5
q37 0 74.5 10.5t74.5 28.5t71 41.5t63 50.5l155 754h191l-164 -788q-7 -32 0 -53.5t21.5 -35.5t33 -20t35.5 -6q20 0 53 6t76 31v-72zM868 1128l-168 189l-246 -189h-143l338 347h161l201 -347h-143z" />
    <glyph glyph-name="udieresis" unicode="&#xfc;" horiz-adv-x="1079" 
d="M1073 49q-19 -11 -52.5 -24t-72.5 -24t-79.5 -18.5t-73.5 -7.5q-58 0 -86 19.5t-38.5 45t-9.5 51.5t1 38q-81 -77 -169.5 -115.5t-191.5 -38.5q-71 0 -116 25t-68 63t-28 83t3 85l133 639l-172 19v59l309 64h84l-163 -781q-6 -26 2.5 -49.5t25 -41t37.5 -28t41 -10.5
q37 0 74.5 10.5t74.5 28.5t71 41.5t63 50.5l155 754h191l-164 -788q-7 -32 0 -53.5t21.5 -35.5t33 -20t35.5 -6q20 0 53 6t76 31v-72zM598 1313q0 -23 -9 -44t-24.5 -37t-36 -25t-43.5 -9q-22 0 -42 9t-35 25t-24 36t-9 43q0 22 9 42.5t24 36.5t35 25.5t42 9.5q23 0 43.5 -9
t36 -24t24.5 -35.5t9 -43.5zM1022 1313q0 -23 -8.5 -44t-23.5 -37t-35.5 -25t-43.5 -9t-43.5 9t-35.5 25t-24 37t-9 44q0 21 9.5 41.5t25 36t36 25t41.5 9.5q23 0 43.5 -9t35.5 -24t23.5 -35.5t8.5 -43.5z" />
    <glyph glyph-name="dagger" unicode="&#x2020;" horiz-adv-x="1024" 
d="M391 -264h-59l84 864l147 342h62l20 -342zM555 963l-332 -76l-135 98l176 100l299 -86zM934 887l-295 76l6 34l328 88l141 -100zM639 1022h-59l-27 289l145 186l74 -186z" />
    <glyph glyph-name="degree" unicode="&#xb0;" horiz-adv-x="655" 
d="M471 1249q0 30 -11 56t-30.5 45.5t-45.5 31t-56 11.5t-56.5 -11.5t-46 -31t-30.5 -45.5t-11 -56t11 -56t30.5 -45.5t46 -30.5t56.5 -11t56 11t45.5 30.5t30.5 45.5t11 56zM553 1249q0 -47 -17.5 -88t-48 -71.5t-71.5 -48t-88 -17.5t-88 17.5t-72 48t-48.5 71.5t-17.5 88
t17.5 88t48.5 72t72 48.5t88 17.5t88 -17.5t71.5 -48.5t48 -72t17.5 -88z" />
    <glyph glyph-name="cent" unicode="&#xa2;" horiz-adv-x="1139" 
d="M1020 651h-123q1 8 2.5 27t2.5 43.5t0 50.5t-5.5 49t-13.5 39.5t-23 20.5q-6 3 -32.5 15t-71.5 17l-160 -837q45 5 76.5 12.5t36.5 9.5q18 4 32.5 21.5t25 41t18 51.5t13 53t7.5 45l4 28h123l-43 -301q-31 -18 -64 -29.5t-71 -19t-81.5 -10.5t-94.5 -3l-39 -200h-127
l41 207q-86 13 -150 49t-106 86.5t-63 111t-21 123.5q0 73 15.5 146.5t46 142t75.5 130t104.5 110t132.5 81.5t160 46l41 204h125l-39 -200q50 -1 89 -5t72.5 -11t64 -17t63.5 -23zM627 895q-67 -26 -123.5 -76.5t-97.5 -118t-64 -149.5t-23 -172q0 -116 41 -187t115 -102z
" />
    <glyph glyph-name="sterling" unicode="&#xa3;" horiz-adv-x="1139" 
d="M1190 1257q0 -39 -23 -65.5t-55 -44t-65.5 -26t-55.5 -11.5l-88 186q-68 -4 -118 -33.5t-86.5 -76t-60.5 -105.5t-40.5 -121.5t-27 -124t-19.5 -112.5h373v-105h-398q-13 -72 -33 -135.5t-52.5 -120.5t-80.5 -108t-116 -98q43 5 78.5 7.5t60.5 2.5h600v-166h-991v123
q97 18 155.5 67t92.5 117q20 39 33 78t22 78t16 78t15 77h-146v105h160q3 35 13 99t33.5 140t63.5 155t102.5 143.5t151 105.5t209.5 41q38 0 86 -7t90.5 -24t71.5 -46t29 -73z" />
    <glyph glyph-name="section" unicode="&#xa7;" horiz-adv-x="1024" 
d="M741 625q0 33 -10.5 63t-36 58t-67.5 55.5t-105 56.5q-57 -21 -97 -53.5t-65 -69.5t-36 -74.5t-11 -68.5q0 -37 9 -67t34 -58.5t68 -58t111 -64.5q44 25 82 56.5t65.5 67t43 75.5t15.5 82zM969 1151h-123l8 168q-43 28 -85.5 40.5t-82.5 12.5q-31 0 -69.5 -11.5
t-72.5 -34.5t-57.5 -57.5t-23.5 -80.5q0 -34 17 -60.5t45.5 -49t66 -43t78 -41.5t82 -45t77.5 -54q48 -40 78.5 -92t30.5 -123q0 -63 -26.5 -121t-70.5 -107.5t-101 -89t-119 -65.5q74 -42 119.5 -94.5t45.5 -124.5q0 -86 -39.5 -153.5t-104 -114.5t-147 -72t-169.5 -25
q-165 0 -301 68l47 266h131l-6 -182q42 -28 85 -39.5t80 -11.5q33 0 74 12t76.5 36t59.5 59.5t24 82.5q0 35 -20 65t-52.5 56.5t-73.5 50.5t-82 46t-78 43t-63 42q-48 40 -78 91.5t-30 125.5q0 69 22.5 126t63 104.5t96.5 84.5t123 66q-35 22 -64 45.5t-49.5 49.5
t-31.5 56.5t-11 65.5q0 91 40.5 157t107 108.5t151.5 62.5t174 20q32 0 69 -3t73.5 -9.5t72 -16t64.5 -22.5z" />
    <glyph glyph-name="bullet" unicode="&#x2022;" horiz-adv-x="614" 
d="M543 696q0 -49 -18.5 -92t-50.5 -74.5t-75 -50t-92 -18.5t-92 18.5t-74.5 50t-50 74.5t-18.5 92t18.5 92t50 75t74.5 50.5t92 18.5t92 -18.5t75 -50.5t50.5 -75t18.5 -92z" />
    <glyph glyph-name="paragraph" unicode="&#xb6;" horiz-adv-x="995" 
d="M862 1280v-1442h-98v1452h-158v-715q-111 0 -203 17.5t-158.5 62.5t-103.5 122t-37 196q0 113 32.5 189.5t94 123.5t151.5 67.5t204 20.5h403v-74z" />
    <glyph glyph-name="germandbls" unicode="&#xdf;" horiz-adv-x="1139" 
d="M1085 1239q0 -90 -22 -177.5t-47 -172.5q-37 3 -60 4.5t-43 1.5q-25 0 -61.5 -5.5t-70 -20.5t-57.5 -42.5t-24 -70.5q0 -29 15.5 -55.5t41 -52t58 -51t66.5 -52.5q34 -26 66 -54t57 -58t40 -63.5t15 -70.5q0 -76 -31 -136t-84.5 -102t-124 -64t-149.5 -22
q-53 0 -105 10.5t-93 33t-67 59t-26 88.5q0 43 30.5 73.5t92.5 30.5q34 0 56 -10t50 -29l-37 -102q32 -40 64 -55t67 -15q32 0 62.5 11t54.5 33t38.5 54t14.5 74q0 31 -13 57.5t-36 51t-54 49t-67 51.5q-32 25 -61.5 50.5t-52.5 55t-37 63t-14 73.5q0 64 26.5 117t71.5 92.5
t105 63.5t128 30q19 65 32 130t13 128q0 42 -12 73.5t-33 52t-49.5 30.5t-62.5 10q-69 0 -124.5 -31.5t-98 -85.5t-74 -126.5t-53.5 -155.5q-36 -135 -53.5 -273.5t-33 -276.5t-39 -274.5t-71.5 -269.5q-12 -33 -35.5 -74.5t-54.5 -84.5t-69 -83.5t-79.5 -72t-85 -51
t-86.5 -19.5q-65 0 -96 30.5t-31 80.5q0 48 54 90l211 -56q21 20 39 55t33 77.5t27.5 89t22 90t15.5 81t10 60.5l119 803q11 74 33 145.5t55.5 135.5t79 118t104.5 93.5t132 62t161 22.5q72 0 131 -17t100 -51t63.5 -84.5t22.5 -117.5z" />
    <glyph glyph-name="registered" unicode="&#xae;" horiz-adv-x="1714" 
d="M1063 944q0 42 -14 75.5t-45 57t-79.5 35.5t-117.5 12h-70v-368q1 0 10 -0.5t21 -0.5t24.5 -0.5t20.5 -0.5q61 0 107.5 9.5t78 32t48 58.5t16.5 90zM1407 291q-5 -1 -18 -2.5t-30 -3t-36 -3t-35 -1.5q-68 0 -110.5 17.5t-68 46.5t-39.5 65.5t-25 75t-25 75t-39 65.5
t-67 46.5t-109 17.5q-23 0 -44 -1t-24 -1v-305q0 -9 7 -18t24 -11l78 -6v-57h-363v57l78 6q16 2 23.5 11t7.5 18v713q0 9 -7.5 17.5t-23.5 10.5l-78 6v58h381q84 0 150.5 -12.5t113 -40.5t71 -73.5t24.5 -111.5q0 -52 -20 -89.5t-53 -64t-76.5 -43t-90.5 -26.5
q61 -14 96.5 -37.5t55.5 -52.5t29.5 -62t17 -65.5t18.5 -62t34.5 -52t64 -36t108.5 -13.5v-55zM1597 717q0 98 -25 188t-70.5 168.5t-109 143t-141 110.5t-167 71t-185.5 25t-185 -25t-166.5 -70.5t-142 -110t-110 -143t-71 -170t-25.5 -191.5q0 -96 25 -185t70 -167
t108.5 -142t141.5 -110t167 -71.5t186 -25.5t186.5 25.5t167 71.5t141.5 111t109.5 143t70.5 168t25 186zM1686 717q0 -109 -28 -210t-79.5 -189t-123.5 -160t-160 -123.5t-189.5 -80t-210.5 -28.5q-108 0 -207.5 28.5t-186.5 80t-159 123.5t-123.5 160t-79.5 189t-28 210
t28 210t79.5 189t123 160.5t159 124t188.5 80t210 28.5q107 0 207.5 -28.5t188 -79.5t159.5 -123.5t123.5 -160.5t80 -189.5t28.5 -210.5z" />
    <glyph glyph-name="copyright" unicode="&#xa9;" horiz-adv-x="1714" 
d="M1221 283q-3 -1 -27.5 -9t-64 -17t-91 -16.5t-108.5 -7.5q-121 0 -214.5 39.5t-157.5 106t-97 154t-33 184.5q0 106 36 194t102 152t159 99.5t207 35.5q80 0 150 -15.5t139 -35.5v-244h-93l-30 156q-23 15 -62.5 29t-83.5 14q-65 0 -126 -25.5t-107.5 -74.5t-74.5 -119.5
t-28 -161.5q0 -94 27 -167t71 -123.5t101 -76.5t117 -26q25 0 50 3.5t47 9.5t41 13t32 13l28 174h91v-258zM1597 717q0 97 -25 187t-70 168t-108.5 143t-141.5 111t-167 71.5t-186 25.5t-186.5 -25.5t-167 -71.5t-141.5 -110.5t-109.5 -143t-70.5 -168.5t-25 -187t25 -186.5
t70.5 -168t109 -143t141 -110.5t167 -71.5t185.5 -25.5t185.5 25.5t167 71.5t141.5 110.5t110 143t71 168t25 186.5zM1686 719q0 -109 -28 -210t-79.5 -189t-123.5 -161t-159.5 -124.5t-188.5 -80t-210 -28.5q-108 0 -208 28.5t-187.5 80t-159.5 124t-123.5 160.5t-79.5 189
t-28 209q0 109 28 210t79.5 189t123 160.5t159 124t188.5 80t210 28.5q110 0 211 -29t188.5 -81t159 -124.5t122.5 -160.5t78.5 -188t27.5 -207z" />
    <glyph glyph-name="trademark" unicode="&#x2122;" horiz-adv-x="1364" 
d="M1210 817v45l62 10v428l-185 -483h-49l-174 483v-428l62 -10v-45h-187v45l64 10v424l-64 13v47h213v-27l135 -360l136 360v27h211v-47l-66 -13v-424l66 -10v-45h-224zM625 1212l-15 86q0 11 -8 11h-106v-437l28 -4q12 -2 25 -3.5t22 -2.5v-45h-252v45l22 2q14 2 26 4
q14 2 30 4v437h-108q-8 0 -8 -11l-13 -86h-57v144h471v-144h-57z" />
    <glyph glyph-name="acute" unicode="&#xb4;" horiz-adv-x="598" 
d="M774 1411q0 -29 -13 -48.5t-36 -35.5l-307 -199h-144l279 320q10 12 21 21t24.5 16t31 10.5t40.5 3.5q27 0 46.5 -8t32 -20.5t19 -28.5t6.5 -31z" />
    <glyph glyph-name="dieresis" unicode="&#xa8;" horiz-adv-x="649" 
d="M381 1313q0 -23 -9 -44t-24.5 -37t-36 -25t-43.5 -9q-22 0 -42 9t-35 25t-24 36t-9 43q0 22 9 42.5t24 36.5t35 25.5t42 9.5q23 0 43.5 -9t36 -24t24.5 -35.5t9 -43.5zM805 1313q0 -23 -8.5 -44t-23.5 -37t-35.5 -25t-43.5 -9t-43.5 9t-35.5 25t-24 37t-9 44
q0 21 9.5 41.5t25 36t36 25t41.5 9.5q23 0 43.5 -9t35.5 -24t23.5 -35.5t8.5 -43.5z" />
    <glyph glyph-name="notequal" unicode="&#x2260;" horiz-adv-x="2048" 
d="M856 365l-225 -226l-82 82l143 144h-282v127h409l246 245h-655v127h782l225 226l82 -82l-143 -144h282v-127h-409l-246 -245h655v-127h-782z" />
    <glyph glyph-name="AE" unicode="&#xc6;" horiz-adv-x="1917" 
d="M633 627h395l121 626zM1901 1067h-132v166q0 22 -7.5 30.5t-30.5 8.5h-369l-98 -504h256q21 0 32 8.5t17 30.5l39 137h116l-92 -469h-114l18 146q6 41 -39 41h-254l-108 -560h462q20 0 31.5 11.5t18.5 29.5l63 197h125l-66 -340h-1001v86l125 10q19 2 28 15t11 24l76 383
h-461l-316 -383q-11 -12 1 -24t38 -15l88 -10v-86h-467v86l99 10q14 2 25.5 13t25.5 26l899 1102q11 12 8.5 25.5t-14.5 15.5l-115 10v86h1143z" />
    <glyph glyph-name="Oslash" unicode="&#xd8;" horiz-adv-x="1454" 
d="M1182 854q0 94 -21 170t-59 135l-651 -991q45 -47 100.5 -70.5t118.5 -23.5q75 0 142 33.5t124 91t102.5 134.5t77.5 163.5t49 178t17 179.5zM1018 1247q-38 28 -82.5 43t-93.5 15q-75 0 -142 -33t-124 -90t-102.5 -133.5t-77.5 -163.5t-49 -180.5t-17 -184.5
q0 -148 53 -254zM1415 854q0 -108 -23 -215.5t-67 -206.5t-109 -183.5t-149.5 -147.5t-188 -98.5t-223.5 -35.5q-81 0 -153.5 18.5t-134.5 53.5l-134 -203l-88 66l129 200q-83 76 -129.5 185.5t-46.5 249.5q0 110 25 217t72.5 204t115 179t152 142t185 94t212.5 34
q65 0 123 -11.5t109 -31.5l110 170l105 -64l-111 -165q105 -76 162 -193.5t57 -257.5z" />
    <glyph glyph-name="infinity" unicode="&#x221e;" horiz-adv-x="2048" 
d="M954 614q-32 27 -69.5 58.5t-78.5 59t-84.5 45.5t-88.5 18q-39 0 -73 -15.5t-58.5 -42t-38.5 -61t-14 -72.5t16.5 -70.5t43.5 -56.5t61.5 -37.5t70.5 -13.5q50 0 92.5 17.5t80.5 44.5t72.5 60.5t67.5 65.5zM1597 604q0 38 -14 72.5t-38.5 61t-58.5 42t-73 15.5
q-45 0 -88.5 -18t-84.5 -45.5t-78.5 -59t-69.5 -58.5q33 -32 67.5 -65.5t72.5 -60.5t81 -44.5t94 -17.5q36 0 70 13.5t61 37.5t43 56.5t16 70.5zM1704 618q0 -56 -21.5 -108t-59 -92t-88 -64t-108.5 -24q-68 0 -122.5 18.5t-101.5 49t-90 69.5t-89 80q-47 -41 -90 -80
t-90 -69.5t-101 -49t-122 -18.5q-58 0 -108.5 24t-88 64t-59 92t-21.5 108q0 58 24 110t64 90t92.5 60.5t110.5 22.5q57 0 110 -20.5t101.5 -53t93 -71t84.5 -74.5q39 36 83 74.5t93 71t102.5 53t110.5 20.5q58 0 110.5 -22.5t92.5 -60.5t64 -90t24 -110z" />
    <glyph glyph-name="plusminus" unicode="&#xb1;" horiz-adv-x="2048" 
d="M410 0v127h1228v-127h-1228zM1087 733v-368h-126v368h-551v127h551v369h126v-369h551v-127h-551z" />
    <glyph glyph-name="lessequal" unicode="&#x2264;" horiz-adv-x="2048" 
d="M410 0v113h1228v-113h-1228zM410 629v127l1228 389v-127l-1097 -326l1097 -325v-127z" />
    <glyph glyph-name="greaterequal" unicode="&#x2265;" horiz-adv-x="2048" 
d="M410 0v113h1228v-113h-1228zM410 240v127l1097 325l-1097 326v127l1228 -389v-127z" />
    <glyph glyph-name="yen" unicode="&#xa5;" horiz-adv-x="1139" 
d="M1184 1245l-291 -381h235v-92h-317l-149 -199h407v-94h-424l-63 -342q-1 -5 -1 -10.5t2 -11t8 -10t17 -5.5l137 -10v-90h-555v90q29 2 61 1.5t58 2.5q12 1 24.5 4t23.5 7.5t18.5 12t9.5 19.5l64 342h-392v94h408l-66 199h-282v92h243l-122 385l-111 25v86h475v-90
l-119 -10q-14 -2 -19.5 -12.5t-0.5 -24.5l160 -502l378 491q4 6 7.5 12t3 11t-5.5 9.5t-17 6.5l-90 21v88h410v-88z" />
    <glyph glyph-name="mu" unicode="&#xb5;" horiz-adv-x="1120" 
d="M1069 221q-12 -47 -33.5 -91t-53 -78.5t-73.5 -55.5t-96 -21q-45 0 -73.5 16.5t-43.5 44.5t-19.5 64t-2.5 74q-35 -32 -74 -67.5t-82.5 -64.5t-91 -48t-98.5 -19q-25 0 -50 4.5t-47 15.5t-39.5 28t-27.5 43q-14 -73 -19.5 -142t-5.5 -143q0 -32 -3 -73t-16 -77t-38 -61
t-70 -25q-18 0 -31 7.5t-21.5 19.5t-12.5 27.5t-4 31.5q0 29 10.5 62.5t25 67.5t30 66.5t26.5 59.5q28 79 48 158.5t36 161.5l153 780h191l-115 -584q-9 -43 -16.5 -87t-7.5 -91q0 -25 7 -47t21 -38.5t35 -26t49 -9.5q37 0 71 13t65.5 34t59.5 46t54 49l148 741h190
l-139 -706q-3 -12 -7.5 -30.5t-8 -39.5t-4 -42.5t3.5 -38.5t15 -27.5t31 -10.5q24 0 42 13.5t31.5 33.5t23 42t16.5 40h41z" />
    <glyph glyph-name="partialdiff" unicode="&#x2202;" horiz-adv-x="1057" 
d="M784 639q-17 18 -37 42t-47 45t-63.5 35.5t-85.5 14.5q-53 0 -96.5 -21t-78 -57t-60 -82.5t-42.5 -98t-25.5 -103.5t-8.5 -99q0 -21 2 -51t8.5 -63t20 -66t36 -59t55.5 -42t80 -16q53 0 97 26t79 70.5t62 105t47.5 129.5t34 143t22.5 147zM987 840q0 -34 -3.5 -90
t-13 -124.5t-26.5 -145t-44 -151t-66 -142.5t-92 -119.5t-122 -82t-157 -30.5q-94 0 -169 35t-127.5 90t-81 122t-28.5 132q0 108 22.5 189.5t58.5 140t82 96.5t93 60t90.5 31t75.5 9q47 0 83 -7t71 -24t74.5 -45t93.5 -69q14 66 17 126t5 122q1 78 -23.5 147t-66.5 121
t-96.5 82t-112.5 30q-40 0 -67 -4t-52 -12.5t-52.5 -21.5t-67.5 -31l-84 106q23 10 53 21t65 20t73.5 15t78.5 6q109 0 190 -36t138.5 -92t94 -125.5t57 -136t28.5 -123.5t8 -89z" />
    <glyph glyph-name="summation" unicode="&#x2211;" horiz-adv-x="1153" 
d="M-41 0l17 90l550 623l-283 567l18 94h935l-63 -327h-118l7 190q-1 14 -7.5 24.5t-20.5 10.5h-504l271 -559l-543 -609h591q14 0 25 11t16 26l80 238h119l-72 -379h-1018z" />
    <glyph glyph-name="product" unicode="&#x220f;" horiz-adv-x="1526" 
d="M866 0v31q34 0 70.5 5.5t67.5 20.5t51 41t20 66v1055q0 43 -17.5 68.5t-45.5 38.5t-63.5 16.5t-71.5 3.5h-228q-36 0 -71.5 -3.5t-63.5 -16.5t-45.5 -38.5t-17.5 -68.5v-1055q0 -42 20 -68t50.5 -40.5t67 -19.5t70.5 -5v-31h-628v31q34 0 70.5 5t67.5 19t51 40.5t20 68.5
v1055q0 43 -15 73.5t-42 49.5t-65.5 27.5t-86.5 8.5v31h1464v-31q-47 0 -86 -8.5t-66.5 -27.5t-43 -49.5t-15.5 -73.5v-1055q0 -40 20.5 -66t51.5 -41t68 -20.5t71 -5.5v-31h-629z" />
    <glyph glyph-name="pi" unicode="&#x3c0;" horiz-adv-x="1217" 
d="M1176 311q0 -84 -18.5 -147t-50 -105t-73.5 -63t-90 -21q-75 0 -118.5 25.5t-66.5 64.5t-29.5 86t-6.5 91v579h-279v-469q0 -80 -17 -149t-50 -119.5t-81 -79.5t-110 -29q-44 0 -72.5 25t-44.5 65.5t-22 92t-6 104.5h68q0 -60 21.5 -97.5t55.5 -37.5q15 0 33.5 5.5t37 22
t35.5 46.5t30.5 78.5t21.5 118t8 165.5v258h-86q-51 0 -80 -13t-44 -31.5t-21 -38.5t-10 -33h-60q0 34 13 77t41.5 81t73.5 63.5t110 25.5h737q34 0 63 16t35 38h52q0 -38 -8 -71.5t-26 -59t-47.5 -40t-72.5 -14.5h-125v-545q0 -51 -0.5 -92t5.5 -69t22 -43t49 -15
q23 0 45.5 15t40 46.5t28.5 79.5t11 113h78z" />
    <glyph glyph-name="integral" unicode="&#x222b;" horiz-adv-x="965" 
d="M889 1360q-6 -13 -22 -26.5t-37.5 -20t-46 -3.5t-46.5 23q-43 37 -70.5 47t-43.5 4t-23 -22t-8 -31q-2 -28 -4 -98t-4 -164t-4.5 -202t-6.5 -212l-10 -274q-6 -162 -18 -280t-30 -201.5t-42.5 -137.5t-56 -87t-70 -49.5t-84.5 -26.5q-24 -6 -48.5 -7t-46 1t-38.5 8.5
t-27 15.5q-32 31 -39 65.5t9 71.5q6 14 22.5 28t38 21.5t46.5 4.5t48 -23q42 -37 69.5 -47t43.5 -4.5t23.5 21t9.5 30.5q1 28 5 99t9 170t10 218.5t9 245.5l8 230q7 215 24 356.5t49.5 228t83.5 128.5t127 57q24 4 48 5.5t45.5 -1t39 -8.5t27.5 -15q34 -32 40 -66.5
t-9 -72.5z" />
    <glyph glyph-name="ordfeminine" unicode="&#xaa;" horiz-adv-x="692" 
d="M610 1266q1 3 -4.5 13.5t-13 22t-16.5 20.5t-15 9q-77 0 -128.5 -33t-83 -83t-45 -108.5t-13.5 -109.5q0 -26 4 -52t15.5 -47t31 -34.5t51.5 -13.5q24 0 47 9.5t43 22.5t35 26t23 20zM700 627h-614l16 73h613zM807 817q-9 -3 -30 -10.5t-46.5 -16t-52 -14.5t-45.5 -6
q-50 0 -69.5 21t-22.5 63q-15 -14 -35.5 -29t-45 -27t-52.5 -20t-58 -8q-58 0 -95.5 22t-59 54.5t-29.5 71t-8 71.5q0 72 25 143.5t73.5 129t120.5 93.5t166 36q37 0 68.5 -14t50.5 -29l20 28h90q-3 -7 -7 -17t-7.5 -20t-7 -19t-5.5 -13q-4 -17 -12 -49.5t-17.5 -73.5
t-19.5 -86t-18 -85t-13.5 -71t-5.5 -45q0 -31 16 -43t44 -12q7 0 19.5 2.5t26 5.5t25.5 6t17 4v-43z" />
    <glyph glyph-name="ordmasculine" unicode="&#xba;" horiz-adv-x="674" 
d="M604 1157q0 88 -33 134t-84 46q-43 0 -80 -29t-64 -76t-42.5 -105.5t-15.5 -118.5q0 -93 33.5 -138t82.5 -45q48 0 85.5 31.5t63.5 80t40 107.5t14 113zM659 627h-587l14 65h588zM739 1153q0 -75 -26 -144t-73 -122t-112 -85t-143 -32q-54 0 -97.5 16t-74 46t-47 72.5
t-16.5 96.5q0 75 25.5 145t72 124.5t111.5 87.5t143 33q48 0 91.5 -14t75.5 -43t51 -74t19 -107z" />
    <glyph glyph-name="Omega" unicode="&#x2126;" horiz-adv-x="1565" 
d="M1495 850q0 -83 -22 -153.5t-60 -129.5t-89.5 -105t-110 -78t-121.5 -50.5t-125 -22.5v-127h319q19 0 43 7.5t45 24t35 43t14 65.5h43v-324h-575v360q87 27 157 72.5t120 107t77 139t27 169.5q0 101 -35 198.5t-99.5 173.5t-154.5 122.5t-201 46.5t-201.5 -46.5
t-154.5 -122.5t-98.5 -173.5t-34.5 -198.5q0 -92 27 -169.5t76.5 -139t120 -107t157.5 -72.5v-360h-576v324h43q0 -39 14.5 -65.5t35.5 -43t45 -24t43 -7.5h319v127q-93 6 -187 44.5t-170 107t-123.5 166t-47.5 221.5q0 133 48.5 242.5t140 187t224 120t299.5 42.5
q168 0 300 -42.5t224 -120t140.5 -187t48.5 -242.5z" />
    <glyph glyph-name="ae" unicode="&#xe6;" horiz-adv-x="1526" 
d="M1489 805q0 -56 -27.5 -103t-74 -85t-107 -67.5t-127.5 -50t-135 -33t-129 -15.5q-2 -10 -5 -22.5t-6 -25.5t-5.5 -25.5t-2.5 -21.5q0 -68 5.5 -116.5t25.5 -80t58.5 -46.5t105.5 -15q69 0 152 50t194 149v-129q-28 -28 -69.5 -61.5t-95 -63t-116.5 -49t-133 -19.5
q-60 0 -107.5 6t-84 26.5t-62.5 58t-41 100.5q-34 -48 -75.5 -83.5t-86.5 -59.5t-90.5 -36t-87.5 -12q-60 0 -105.5 17t-78.5 45.5t-54.5 66t-34.5 78t-18 82t-5 78.5q0 79 17 159.5t50.5 155t83.5 139.5t115.5 113t146 75.5t176.5 27.5q28 0 50.5 -6.5t41 -17t33.5 -23.5
t29 -27l33 49h137q-3 -8 -7 -21t-9 -28l-9 -29q-4 -14 -8 -24q66 54 141.5 89.5t155.5 35.5q71 0 118 -23.5t75.5 -56.5t40.5 -68t12 -57zM684 913q-78 0 -139.5 -25.5t-107.5 -69t-78.5 -100.5t-52.5 -119t-29 -125t-9 -120q0 -43 7 -86t24.5 -78t48 -57t78.5 -22
q30 0 64.5 13t66.5 32.5t58 42t40 41.5l105 561zM1309 807q0 40 -30 69t-83 29q-33 0 -66 -17t-63 -46t-57 -67t-49.5 -80t-38.5 -85t-25 -82q43 4 90.5 16.5t93.5 31.5t87.5 43.5t72.5 54.5t49.5 63.5t18.5 69.5z" />
    <glyph glyph-name="oslash" unicode="&#xf8;" horiz-adv-x="1036" 
d="M766 623q0 37 -4 69t-10 60l-404 -639q45 -45 105 -45q48 0 90.5 24.5t77 66t61.5 96.5t46 116.5t28.5 126.5t9.5 125zM707 858q-51 66 -123 66q-67 0 -124.5 -48.5t-99.5 -127t-66 -177t-24 -198.5q0 -53 7.5 -94.5t19.5 -75.5zM973 614q0 -83 -18.5 -162.5t-53 -150.5
t-83 -130.5t-109 -103t-131.5 -68t-150 -24.5q-42 0 -78.5 7.5t-70.5 19.5l-113 -178l-76 51l109 172q-65 50 -100.5 129.5t-35.5 185.5q0 83 18 163.5t51.5 152.5t81.5 133.5t108.5 106t132 69.5t151.5 25q93 0 172 -37l99 155l81 -51l-100 -157q53 -50 84 -125.5
t31 -182.5z" />
    <glyph glyph-name="questiondown" unicode="&#xbf;" horiz-adv-x="995" 
d="M760 -207q0 -30 -17.5 -68t-59.5 -72t-111 -57.5t-171 -23.5q-90 0 -160 20.5t-118 58.5t-72.5 92t-24.5 122q0 104 41.5 186t108.5 145.5t150 110.5t167 82l48 244h139l-58 -305q-70 -22 -136.5 -61.5t-119 -95t-84.5 -126.5t-32 -157q0 -106 57.5 -159.5t157.5 -53.5
l123 202h59q53 0 83 -21.5t30 -62.5zM778 891q0 -24 -9.5 -46.5t-26.5 -40.5t-42.5 -29t-56.5 -11q-32 0 -56.5 10.5t-41 28t-25 40t-8.5 46.5t8.5 46t25 39.5t41 27.5t56.5 10q31 0 56.5 -10t42.5 -26.5t26.5 -38.5t9.5 -46z" />
    <glyph glyph-name="exclamdown" unicode="&#xa1;" horiz-adv-x="692" 
d="M342 -246q-6 -43 -19.5 -73t-34.5 -49t-48 -28t-58 -9q-59 0 -84 28t-25 74q0 9 10.5 54.5t27.5 114t39 153t45 171.5q54 204 122 457h131zM548 897q0 -27 -10 -50t-27 -40.5t-41.5 -27t-52.5 -9.5q-27 0 -51.5 9.5t-43 25.5t-29.5 37.5t-11 46.5q0 26 10 48.5t28 39
t42.5 26t54.5 9.5q22 0 45.5 -7.5t42.5 -21.5t31 -36t12 -50z" />
    <glyph glyph-name="logicalnot" unicode="&#xac;" horiz-adv-x="1270" 
d="M1065 387v350h-983v123h1106v-473h-123z" />
    <glyph glyph-name="radical" unicode="&#x221a;" horiz-adv-x="1178" 
d="M1075 1372l-370 -1372h-62l-442 872l-127 -63l-33 61l240 121l399 -780l334 1223h164v-62h-103z" />
    <glyph glyph-name="florin" unicode="&#x192;" horiz-adv-x="659" 
d="M903 1382q0 -49 -36 -75.5t-93 -34.5l-160 129q-22 -18 -41 -52t-35 -77t-29.5 -91.5t-23.5 -94t-17 -85t-11 -65.5h250v-102h-269q-3 -23 -10.5 -80t-18.5 -132t-23.5 -160.5t-25 -165t-24.5 -146.5t-21 -105q-14 -57 -38.5 -117.5t-58 -117.5t-74 -108t-86 -89t-95 -60
t-100.5 -22q-39 0 -64.5 13t-39.5 30.5t-19.5 34t-5.5 24.5q0 39 15 60.5t38 38.5l209 -54q27 33 49.5 81t41 106t33.5 124.5t27 137.5q26 145 48 323.5t53 380.5l-158 -16l2 80l178 59q10 54 27.5 116.5t43.5 124t61.5 118.5t81.5 100.5t103.5 69.5t127.5 26q52 0 88 -13
t58 -32.5t32 -41.5t10 -40z" />
    <glyph glyph-name="approxequal" unicode="&#x2248;" horiz-adv-x="2048" 
d="M1638 453q-21 -20 -51.5 -42t-68.5 -41.5t-81 -33.5t-89 -17q-61 -4 -103 -0.5t-78.5 12.5t-73.5 22.5t-87 31.5q-84 30 -150 45t-119.5 17t-97 -8.5t-81.5 -30.5t-74 -50t-74 -67v141q19 19 43 41t59.5 41.5t86.5 34.5t124 20q57 5 112 -4.5t107 -25.5t100.5 -34.5
t90.5 -31.5q93 -29 163.5 -31t129 16t109 53.5t103.5 82.5v-141zM1638 801q-21 -19 -51.5 -41t-68.5 -41.5t-81 -33.5t-89 -17q-61 -4 -103 -1t-78.5 12t-73.5 22.5t-87 31.5q-84 30 -150 45t-119.5 17t-97 -8.5t-81.5 -30.5t-74 -50t-74 -67v141q19 19 43 41t59.5 41.5
t86.5 34.5t124 21q57 4 112 -5.5t107 -25.5t100.5 -34.5t90.5 -31.5q93 -29 163.5 -31t129 16t109 53.5t103.5 82.5v-141z" />
    <glyph glyph-name="Delta" unicode="&#x2206;" horiz-adv-x="1309" 
d="M621 1085l-455 -970h856zM12 0l684 1470l604 -1470h-1288z" />
    <glyph glyph-name="guillemotleft" unicode="&#xab;" horiz-adv-x="833" 
d="M389 441l21 103l394 443h92l-335 -494l135 -493h-92zM40 441l21 103l393 443h92l-334 -494l134 -493h-92z" />
    <glyph glyph-name="guillemotright" unicode="&#xbb;" horiz-adv-x="833" 
d="M443 546l-21 -103l-393 -443h-92l334 494l-134 493h92zM793 546l-21 -103l-394 -443h-92l335 494l-135 493h92z" />
    <glyph glyph-name="ellipsis" unicode="&#x2026;" horiz-adv-x="2048" 
d="M399 113q0 -29 -10.5 -54t-29.5 -43.5t-44 -29.5t-53 -11q-29 0 -53.5 11t-43.5 29.5t-29.5 43.5t-10.5 54q0 28 10.5 53t29.5 43.5t43.5 29.5t53.5 11q28 0 53 -11t44 -29.5t29.5 -43.5t10.5 -53zM1081 113q0 -29 -10.5 -54.5t-29.5 -44t-44 -29t-53 -10.5q-29 0 -54 11
t-43.5 29.5t-29 43.5t-10.5 54q0 28 10.5 53t29.5 43.5t43.5 29.5t53.5 11q28 0 53 -11t44 -29.5t29.5 -43.5t10.5 -53zM1763 113q0 -29 -10.5 -54t-29 -43.5t-43.5 -29.5t-54 -11t-53.5 11t-43.5 29.5t-29.5 43.5t-10.5 54q0 28 10.5 53t28.5 43.5t42.5 29.5t53.5 11
q28 0 53.5 -11t44.5 -30t30 -44t11 -52z" />
    <glyph glyph-name="uni00A0" unicode="&#xa0;" horiz-adv-x="600" 
 />
    <glyph glyph-name="Agrave" unicode="&#xc0;" horiz-adv-x="1378" 
d="M766 1155l-303 -532h391zM801 0v86l94 10q45 6 39 39l-62 391h-464l-209 -391q-11 -20 -0.5 -28t39.5 -11l94 -10v-86h-441v86l115 12l756 1309h164l221 -1272q3 -20 11 -28.5t30 -10.5l94 -10v-86h-481zM920 1528l-297 195q-21 14 -34 34.5t-13 51.5q0 15 4.5 31t15 29
t28 21.5t44.5 8.5q22 0 37.5 -4t27.5 -10.5t21.5 -16t18.5 -20.5l274 -320h-127z" />
    <glyph glyph-name="Atilde" unicode="&#xc3;" horiz-adv-x="1378" 
d="M766 1155l-303 -532h391zM801 0v86l94 10q45 6 39 39l-62 391h-464l-209 -391q-11 -20 -0.5 -28t39.5 -11l94 -10v-86h-441v86l115 12l756 1309h164l221 -1272q3 -20 11 -28.5t30 -10.5l94 -10v-86h-481zM1274 1815q-22 -45 -50.5 -84.5t-65 -69t-81.5 -46.5t-100 -17
q-42 0 -73 13.5t-63 33.5q-13 9 -26 17t-28.5 15t-34 11t-42.5 4q-13 0 -29.5 -7t-32.5 -19.5t-30 -29.5t-22 -38h-109q21 45 49.5 84.5t64.5 69t81 46.5t100 17q42 0 73.5 -13.5t63.5 -35.5q26 -15 55 -30t76 -15q14 0 30.5 7t32.5 19.5t29.5 29.5t22.5 38h109z" />
    <glyph glyph-name="Otilde" unicode="&#xd5;" horiz-adv-x="1454" 
d="M1182 854q0 102 -25.5 185t-71 142.5t-108 91.5t-135.5 32q-75 0 -142 -33t-124 -90t-102.5 -133.5t-77.5 -163.5t-49 -180.5t-17 -184.5q0 -104 26.5 -186.5t72 -140t107.5 -88.5t134 -31q75 0 142 33.5t124 91.5t102.5 134.5t77.5 163.5t49 178.5t17 178.5zM1415 854
q0 -108 -23 -215.5t-67 -206.5t-109 -183.5t-149.5 -147.5t-188 -98.5t-223.5 -35.5q-123 0 -225 40.5t-176 115.5t-115 180t-41 234q0 110 25 217t72.5 204t115 179t152 142t185 94t212.5 34q127 0 230 -43.5t175 -118.5t111 -176t39 -215zM1328 1815q-22 -45 -50.5 -84.5
t-65 -69t-81.5 -46.5t-100 -17q-42 0 -73 13.5t-63 33.5q-13 9 -26 17t-28.5 15t-34 11t-42.5 4q-13 0 -29.5 -7t-32.5 -19.5t-30 -29.5t-22 -38h-109q21 45 49.5 84.5t64.5 69t81 46.5t100 17q42 0 73.5 -13.5t63.5 -35.5q26 -15 55 -30t76 -15q14 0 30.5 7t32.5 19.5
t29.5 29.5t22.5 38h109z" />
    <glyph glyph-name="OE" unicode="&#x152;" horiz-adv-x="2058" 
d="M1182 854q0 120 -29.5 205.5t-77.5 140t-109.5 80t-125.5 25.5q-72 0 -138 -32.5t-122.5 -89.5t-102.5 -133.5t-79 -164t-50.5 -182t-17.5 -187.5q0 -111 28 -193.5t75 -138t108.5 -83t128.5 -27.5q74 0 140.5 32.5t123.5 89t103 132.5t78 163t49.5 180t17.5 183z
M2044 1067h-131v166q0 22 -9 30.5t-32 8.5h-389l-99 -504h277q22 0 32.5 8.5t16.5 30.5l39 137h117l-92 -469h-115l18 146q6 41 -39 41h-272l-111 -560h484q20 0 31.5 11.5t17.5 29.5l63 197h125l-65 -340h-879l29 137q-96 -86 -195 -128t-211 -42q-116 0 -217.5 38.5
t-177 112t-119 180t-43.5 241.5q0 105 24.5 210.5t71 202t113.5 179.5t151.5 144.5t185 96.5t214.5 35q78 0 140.5 -16.5t112 -46t86.5 -70.5t65 -90l34 190h807z" />
    <glyph glyph-name="oe" unicode="&#x153;" horiz-adv-x="1530" 
d="M754 600q0 60 -11 118t-33.5 104t-55.5 74t-76 28q-45 0 -84.5 -23t-73 -62.5t-60.5 -92.5t-45.5 -114.5t-28.5 -127.5t-10 -131q0 -66 11.5 -122t34 -96.5t55 -63.5t74.5 -23q49 0 90.5 23t75 63t59.5 92.5t43 112t26 121.5t9 120zM1313 784q0 13 -2.5 35t-11.5 43.5
t-26.5 37t-47.5 15.5q-51 0 -94.5 -35t-79 -90.5t-62 -124.5t-43.5 -137q54 4 118 21t119.5 48t92.5 77.5t37 109.5zM1493 784q0 -66 -31 -115.5t-80.5 -86t-111.5 -60.5t-124 -39t-117.5 -22.5t-92.5 -9.5q-3 -20 -4.5 -48t-1.5 -45q0 -60 14.5 -108t40.5 -81.5t62 -52
t79 -18.5q40 0 82.5 16t86 43.5t87 63.5t86.5 76v-129q-41 -38 -85.5 -73t-94.5 -61.5t-107 -42.5t-124 -16q-88 0 -158 48t-117 153q-35 -56 -74 -94.5t-83.5 -62t-93 -34t-101.5 -10.5q-81 0 -148 27t-115 77.5t-74.5 122.5t-26.5 163q0 76 16.5 153.5t47.5 149.5
t77.5 135t106.5 109.5t133.5 73t158.5 26.5q56 0 103.5 -18t85 -49t65 -72.5t43.5 -88.5q22 52 64 94.5t93.5 72t107 45.5t106.5 16q64 0 106.5 -23.5t67.5 -58t35 -74.5t10 -72z" />
    <glyph glyph-name="endash" unicode="&#x2013;" horiz-adv-x="1024" 
d="M1020 430h-1055l25 125h1052z" />
    <glyph glyph-name="emdash" unicode="&#x2014;" horiz-adv-x="2048" 
d="M2040 430h-2075l25 125h2074z" />
    <glyph glyph-name="quotedblleft" unicode="&#x201c;" horiz-adv-x="936" 
d="M582 1446q-35 -33 -75.5 -73t-75 -85.5t-58.5 -95t-25 -100.5h125q6 -8 13.5 -22t7.5 -42q0 -25 -11.5 -51t-32 -47.5t-48.5 -35t-62 -13.5t-62.5 9t-49.5 27.5t-32.5 47.5t-11.5 69q0 64 31 126.5t75.5 117.5t92 98.5t80.5 69.5h119zM995 1446q-34 -33 -74.5 -73
t-76 -85.5t-59 -95t-23.5 -100.5h127q5 -10 11.5 -25t6.5 -35q0 -25 -12 -52t-33 -49t-50.5 -36t-63.5 -14q-25 0 -51.5 6.5t-48.5 23.5t-36 45.5t-14 73.5q0 65 30.5 128.5t73.5 119t90 99t80 69.5h123z" />
    <glyph glyph-name="quotedblright" unicode="&#x201d;" horiz-adv-x="936" 
d="M588 1296q0 -65 -30.5 -128.5t-74 -119t-90.5 -99t-80 -68.5h-123q35 33 76 73t76 85.5t58.5 95.5t23.5 102h-127q-5 8 -11.5 22.5t-6.5 34.5q0 25 12 52t33 49.5t50 36.5t64 14q25 0 51.5 -6.5t48.5 -23.5t36 -46t14 -74zM1001 1292q0 -64 -31 -126.5t-75 -117.5
t-91.5 -98.5t-80.5 -68.5h-119q34 33 74.5 73t75.5 85.5t58.5 95.5t25.5 102h-125q-6 6 -13.5 20t-7.5 41q0 25 11.5 51.5t32 48t49 35t63.5 13.5q66 0 109.5 -37t43.5 -117z" />
    <glyph glyph-name="quoteleft" unicode="&#x2018;" horiz-adv-x="520" 
d="M582 1446q-35 -33 -75.5 -73t-75 -85.5t-58.5 -95t-25 -100.5h125q6 -8 13.5 -22t7.5 -42q0 -25 -11.5 -51t-32 -47.5t-48.5 -35t-62 -13.5t-62.5 9t-49.5 27.5t-32.5 47.5t-11.5 69q0 64 31 126.5t75.5 117.5t92 98.5t80.5 69.5h119z" />
    <glyph glyph-name="quoteright" unicode="&#x2019;" horiz-adv-x="520" 
d="M588 1296q0 -65 -30.5 -128.5t-74 -119t-90.5 -99t-80 -68.5h-123q35 33 76 73t76 85.5t58.5 95.5t23.5 102h-127q-5 8 -11.5 22.5t-6.5 34.5q0 25 12 52t33 49.5t50 36.5t64 14q25 0 51.5 -6.5t48.5 -23.5t36 -46t14 -74z" />
    <glyph glyph-name="divide" unicode="&#xf7;" horiz-adv-x="2048" 
d="M1147 285q0 -26 -9.5 -48t-26.5 -38t-39.5 -25.5t-47.5 -9.5q-26 0 -48 9.5t-39 25.5t-26.5 38t-9.5 48t9.5 48.5t26.5 39t39 26t48 9.5q25 0 47.5 -9.5t39.5 -26t26.5 -39t9.5 -48.5zM410 551v127h1228v-127h-1228zM1147 944q0 -26 -9.5 -48.5t-26.5 -39t-39.5 -26
t-47.5 -9.5q-26 0 -48 9.5t-39 26t-26.5 39t-9.5 48.5q0 25 9.5 47.5t26.5 39.5t39 26.5t48 9.5q25 0 47.5 -9.5t39.5 -26.5t26.5 -39.5t9.5 -47.5z" />
    <glyph glyph-name="lozenge" unicode="&#x25ca;" horiz-adv-x="1100" 
d="M551 1473l-352 -670l352 -688l350 688zM614 0h-129l-413 803l413 786h129l414 -786z" />
    <glyph glyph-name="ydieresis" unicode="&#xff;" horiz-adv-x="1018" 
d="M971 846q-12 -12 -35 -44t-47.5 -72t-48 -82.5t-37.5 -74.5q-22 -49 -51.5 -119t-66 -150.5t-79.5 -167t-92 -169.5q-48 -81 -102.5 -159.5t-115.5 -140t-128.5 -99t-140.5 -37.5q-56 0 -93 14t-59 34.5t-30.5 44t-8.5 42.5q0 23 10.5 44.5t29.5 38t45 26.5t56 12
l119 -119q32 3 63 25.5t65.5 67.5t75.5 113t93 163q-2 12 -10 53.5t-19.5 101t-26 131.5t-30.5 146q-16 72 -33.5 144.5t-34 130.5t-29.5 95t-20 38l-186 14v51l28 9q20 7 44 14.5t51 16t51 15t43.5 11t28.5 4.5q33 0 58 -15.5t44.5 -44.5t36 -69.5t31.5 -91.5
q26 -91 54 -225.5t58 -299.5l312 746h59l170 -56v-47zM556 1313q0 -23 -9 -44t-24.5 -37t-36 -25t-43.5 -9q-22 0 -42 9t-35 25t-24 36t-9 43q0 22 9 42.5t24 36.5t35 25.5t42 9.5q23 0 43.5 -9t36 -24t24.5 -35.5t9 -43.5zM980 1313q0 -23 -8.5 -44t-23.5 -37t-35.5 -25
t-43.5 -9t-43.5 9t-35.5 25t-24 37t-9 44q0 21 9.5 41.5t25 36t36 25t41.5 9.5q23 0 43.5 -9t35.5 -24t23.5 -35.5t8.5 -43.5z" />
    <glyph glyph-name="Ydieresis" unicode="&#x178;" horiz-adv-x="1309" 
d="M1341 1280q-15 -2 -30 -12.5t-23 -18.5l-520 -674l-86 -440q-5 -15 4 -26t35 -13l115 -10v-86h-533v86l119 10q18 2 31 11.5t18 27.5l84 422l-229 692q-7 20 -17.5 24.5t-21.5 6.5l-115 8v86h530v-86l-131 -8q-17 -2 -25.5 -13t-2.5 -28l168 -532l395 532q4 7 7 14
t2 12.5t-6.5 9.5t-18.5 5l-127 8v86h493v-86zM770 1713q0 -23 -9 -44t-24.5 -37t-36 -25t-43.5 -9q-22 0 -42 9t-35 25t-24 36t-9 43q0 22 9 42.5t24 36.5t35 25.5t42 9.5q23 0 43.5 -9t36 -24t24.5 -35.5t9 -43.5zM1194 1713q0 -23 -8.5 -44t-23.5 -37t-35.5 -25t-43.5 -9
t-43.5 9t-35.5 25t-24 37t-9 44q0 21 9.5 41.5t25 36t36 25t41.5 9.5q23 0 43.5 -9t35.5 -24t23.5 -35.5t8.5 -43.5z" />
    <glyph glyph-name="fraction" unicode="&#x2044;" horiz-adv-x="1004" 
d="M141 -190h-131l873 1564h131z" />
    <glyph glyph-name="currency" unicode="&#xa4;" horiz-adv-x="1249" 
d="M950 877q0 64 -24.5 121t-66.5 100t-99 68.5t-121 25.5q-67 0 -125 -24.5t-101.5 -67.5t-68.5 -101t-25 -125q0 -66 25 -123.5t68.5 -100t102 -67t124.5 -24.5q65 0 122 25.5t99 69t66 101t24 122.5zM1114 328l-211 211q-56 -48 -124.5 -72.5t-139.5 -24.5
q-77 0 -146 23.5t-126 73.5l-211 -211l-74 73l211 211q-45 56 -67.5 123t-22.5 139q0 36 5.5 72.5t17 71.5t29 67.5t42.5 59.5l-215 215l74 74l215 -215q55 45 125.5 67.5t142.5 22.5q71 0 138 -23.5t120 -68.5l217 217l74 -74l-213 -213q43 -54 67.5 -126t24.5 -144
q0 -73 -22 -141t-68 -124l211 -211z" />
    <glyph glyph-name="guilsinglleft" unicode="&#x2039;" horiz-adv-x="460" 
d="M26 441l21 103l393 443h92l-334 -494l134 -493h-92z" />
    <glyph glyph-name="guilsinglright" unicode="&#x203a;" horiz-adv-x="460" 
d="M434 546l-21 -103l-393 -443h-92l334 494l-134 493h92z" />
    <glyph glyph-name="fi" unicode="&#xfb01;" horiz-adv-x="1202" 
d="M1198 59q-12 -5 -44.5 -19t-75 -28.5t-90.5 -25.5t-91 -11q-51 0 -82 18t-46 47t-16.5 65t5.5 71l123 658h-449q-3 -23 -10.5 -80t-18 -132t-22.5 -160.5t-24.5 -165t-24.5 -146.5t-21 -105q-14 -57 -38 -117.5t-57 -117.5t-73 -108t-85 -89t-94.5 -60t-100.5 -22
q-39 0 -64.5 13t-39.5 30.5t-19.5 34t-5.5 24.5q0 39 15 60.5t40 38.5l209 -54q26 33 48 81t40.5 106t33.5 124.5t27 137.5q26 145 48 323.5t53 380.5l-158 -16l2 80l178 59q10 54 27.5 116.5t43.5 124t61.5 118.5t81.5 100.5t103.5 69.5t127.5 26q52 0 88 -13t58 -32.5
t32 -41.5t10 -40q0 -49 -36 -75.5t-93 -34.5l-160 129q-22 -18 -41 -52t-36 -77t-31 -91.5t-25 -94t-18.5 -85t-11.5 -65.5h319l252 76h84l-156 -819q-4 -21 0.5 -40t15 -33.5t27 -23t37.5 -8.5q18 0 42.5 6.5t49 15t45.5 16.5t31 11v-78zM1190 1313q0 -23 -8.5 -43.5
t-24 -36.5t-39 -25.5t-53.5 -9.5q-63 0 -95 33.5t-32 81.5q0 20 8.5 40t25 36.5t40.5 27t55 10.5q29 0 52 -10t38.5 -26t24 -36.5t8.5 -41.5z" />
    <glyph glyph-name="fl" unicode="&#xfb02;" horiz-adv-x="1202" 
d="M903 1374q-3 -45 -39 -69.5t-90 -32.5l-160 129q-22 -18 -41 -52t-36 -77t-31 -91.5t-25 -94t-18.5 -85t-11.5 -65.5h442l82 432zM1200 53q-12 -5 -44 -17.5t-74 -26t-87 -24t-82 -10.5q-46 0 -78.5 11t-53.5 31t-30.5 47.5t-9.5 60.5q0 15 2.5 33.5t6.5 38.5l122 637
h-440q-3 -23 -10.5 -80t-18 -132t-22.5 -160.5t-24.5 -165t-24.5 -146.5t-21 -105q-14 -57 -38.5 -117.5t-57 -117.5t-73 -108t-86 -89t-95 -60t-100.5 -22q-39 0 -64.5 13t-39.5 30.5t-19.5 34t-5.5 24.5q0 39 15 60.5t40 38.5l209 -54q26 33 48.5 81t41 106t34 124.5
t27.5 137.5q26 145 48 323.5t53 380.5l-158 -16l2 80l178 59q10 54 27.5 116.5t43.5 124t61.5 118.5t81.5 100.5t103.5 69.5t127.5 26q54 0 90 -14.5t57 -34.5l250 49h80l-250 -1306q-4 -23 1.5 -43t18.5 -36t31.5 -25t40.5 -9q15 0 40 5.5t50.5 12.5t46.5 14t29 9v-78z" />
    <glyph glyph-name="daggerdbl" unicode="&#x2021;" horiz-adv-x="1024" 
d="M348 -297l-69 186l137 289h59l21 -291zM410 197l-336 -78l-137 100l174 100l303 -88zM786 119l-299 76l7 36l327 88l146 -102zM487 258h-59l-39 344l174 340h60l30 -342zM555 963l-334 -76l-135 98l178 100l295 -86zM932 887l-293 76l4 34l328 88l143 -100zM637 1022h-62
l-22 291l143 180l74 -182z" />
    <glyph glyph-name="periodcentered" unicode="&#xb7;" horiz-adv-x="385" 
d="M313 696q0 -25 -9.5 -47t-25.5 -38.5t-38 -26t-47 -9.5q-26 0 -48 9.5t-38 26t-25.5 38.5t-9.5 47t9.5 47.5t25.5 38.5t38 25.5t48 9.5q25 0 47 -9.5t38 -25.5t25.5 -38.5t9.5 -47.5z" />
    <glyph glyph-name="quotesinglbase" unicode="&#x201a;" horiz-adv-x="520" 
d="M340 82q0 -45 -14 -88.5t-37.5 -84.5t-53 -78t-60.5 -68.5t-60 -56.5t-52 -42h-120q40 39 78 78t68.5 78t52.5 79.5t30 82.5q2 6 2 15v19h-123q-5 8 -11.5 22.5t-6.5 37.5q0 31 12 56.5t33.5 44.5t51 29.5t63.5 10.5q39 0 67 -12.5t45.5 -32t26 -43.5t8.5 -47z" />
    <glyph glyph-name="quotedblbase" unicode="&#x201e;" horiz-adv-x="936" 
d="M342 78q0 -43 -14 -85.5t-37.5 -83t-53 -78t-60 -69.5t-60 -57.5t-51.5 -42.5h-123q40 39 78.5 78t69.5 79t53 80.5t30 82.5q2 6 2 15v19h-123q-6 7 -13 21.5t-7 42.5q0 27 12.5 52t34.5 43.5t52 30t65 11.5q45 0 73.5 -13t44 -33t21.5 -44.5t6 -48.5zM756 76
q0 -44 -14.5 -86.5t-38.5 -83t-54 -77.5t-61 -68.5t-61 -56.5t-52 -42h-119q43 40 81.5 79t69 78.5t51.5 80t30 82.5q2 6 2 15v19h-127q-5 10 -11 24.5t-6 33.5q0 29 11 55t32 45.5t50.5 31t66.5 11.5q44 0 73 -12.5t46 -32.5t24 -45t7 -51z" />
    <glyph glyph-name="perthousand" unicode="&#x2030;" horiz-adv-x="2324" 
d="M647 1161q0 27 -4 56.5t-15.5 54.5t-32 41t-54.5 16q-47 0 -84 -29.5t-65 -77t-48 -106.5t-32.5 -117.5t-18.5 -111t-6 -86.5q0 -28 4 -59t16 -57t33.5 -43t56.5 -17q46 0 82.5 30.5t64.5 78.5t47.5 108t32 120t18 112.5t5.5 86.5zM1372 582q0 27 -4 56.5t-15.5 54
t-32 41t-54.5 16.5q-47 0 -84 -29.5t-65 -77t-48 -106.5t-32.5 -118t-18.5 -111.5t-6 -86.5q0 -28 4 -59t16 -57.5t33.5 -44t56.5 -17.5q46 0 82.5 30.5t64.5 79t47.5 109t32 120.5t18 113t5.5 87zM2093 582q0 27 -3.5 56.5t-15 54t-32.5 41t-55 16.5q-47 0 -83.5 -29.5
t-64.5 -77t-48 -106.5t-32.5 -118t-18 -111.5t-5.5 -86.5q0 -28 4 -59t16 -57.5t33.5 -44t56.5 -17.5q46 0 82 30.5t63.5 79t47 109t32 120.5t18 113t5.5 87zM799 1122q0 -60 -11 -125.5t-34 -129.5t-57 -122t-80.5 -102t-104.5 -70t-129 -26q-66 0 -112.5 22.5t-75.5 61.5
t-42.5 91.5t-13.5 111.5q0 60 11.5 125.5t34 129t57 121.5t80.5 101.5t104.5 69.5t128.5 26q65 0 111.5 -22.5t76 -61t43 -90.5t13.5 -111zM324 0h-129l1146 1374h127zM1524 543q0 -60 -11 -126t-34 -130t-57 -122t-80.5 -102t-104.5 -70t-129 -26q-66 0 -112.5 22.5
t-75.5 61.5t-42.5 91.5t-13.5 111.5q0 60 11.5 126t34 129.5t57 121t80.5 101t104.5 69.5t128.5 26q65 0 111.5 -22.5t76 -61t43 -90t13.5 -110.5zM2245 543q0 -60 -11 -126t-34 -130t-57.5 -122t-80.5 -102t-104.5 -70t-128.5 -26q-65 0 -111.5 22.5t-76 61.5t-43 91.5
t-13.5 111.5q0 60 11.5 126t34 129.5t57 121t81 101t105 69.5t129.5 26q65 0 111 -22.5t75 -61t42.5 -90t13.5 -110.5z" />
    <glyph glyph-name="Acircumflex" unicode="&#xc2;" horiz-adv-x="1378" 
d="M766 1155l-303 -532h391zM801 0v86l94 10q45 6 39 39l-62 391h-464l-209 -391q-11 -20 -0.5 -28t39.5 -11l94 -10v-86h-441v86l115 12l756 1309h164l221 -1272q3 -20 11 -28.5t30 -10.5l94 -10v-86h-481zM1051 1528l-168 189l-246 -189h-143l338 347h161l201 -347h-143z
" />
    <glyph glyph-name="Ecircumflex" unicode="&#xca;" horiz-adv-x="1143" 
d="M1126 1067h-131v166q0 22 -8 30.5t-31 8.5h-393l-94 -504h274q22 0 33.5 8.5t18.5 30.5l39 137h114l-90 -469h-117l21 146q6 41 -39 41h-277l-106 -560h481q22 0 33.5 11.5t17.5 29.5l64 197h125l-68 -340h-1024v86l119 10q43 3 49 39l213 1102q3 17 -5 28t-34 13
l-114 10v86h991zM946 1528l-168 189l-246 -189h-143l338 347h161l201 -347h-143z" />
    <glyph glyph-name="Aacute" unicode="&#xc1;" horiz-adv-x="1378" 
d="M766 1155l-303 -532h391zM801 0v86l94 10q45 6 39 39l-62 391h-464l-209 -391q-11 -20 -0.5 -28t39.5 -11l94 -10v-86h-441v86l115 12l756 1309h164l221 -1272q3 -20 11 -28.5t30 -10.5l94 -10v-86h-481zM1177 1811q0 -29 -13 -48.5t-36 -35.5l-307 -199h-144l279 320
q10 12 21 21t24.5 16t31 10.5t40.5 3.5q27 0 46.5 -8t32 -20.5t19 -28.5t6.5 -31z" />
    <glyph glyph-name="Edieresis" unicode="&#xcb;" horiz-adv-x="1143" 
d="M1126 1067h-131v166q0 22 -8 30.5t-31 8.5h-393l-94 -504h274q22 0 33.5 8.5t18.5 30.5l39 137h114l-90 -469h-117l21 146q6 41 -39 41h-277l-106 -560h481q22 0 33.5 11.5t17.5 29.5l64 197h125l-68 -340h-1024v86l119 10q43 3 49 39l213 1102q3 17 -5 28t-34 13
l-114 10v86h991zM676 1713q0 -23 -9 -44t-24.5 -37t-36 -25t-43.5 -9q-22 0 -42 9t-35 25t-24 36t-9 43q0 22 9 42.5t24 36.5t35 25.5t42 9.5q23 0 43.5 -9t36 -24t24.5 -35.5t9 -43.5zM1100 1713q0 -23 -8.5 -44t-23.5 -37t-35.5 -25t-43.5 -9t-43.5 9t-35.5 25t-24 37
t-9 44q0 21 9.5 41.5t25 36t36 25t41.5 9.5q23 0 43.5 -9t35.5 -24t23.5 -35.5t8.5 -43.5z" />
    <glyph glyph-name="Egrave" unicode="&#xc8;" horiz-adv-x="1143" 
d="M1126 1067h-131v166q0 22 -8 30.5t-31 8.5h-393l-94 -504h274q22 0 33.5 8.5t18.5 30.5l39 137h114l-90 -469h-117l21 146q6 41 -39 41h-277l-106 -560h481q22 0 33.5 11.5t17.5 29.5l64 197h125l-68 -340h-1024v86l119 10q43 3 49 39l213 1102q3 17 -5 28t-34 13
l-114 10v86h991zM815 1528l-297 195q-21 14 -34 34.5t-13 51.5q0 15 4.5 31t15 29t28 21.5t44.5 8.5q22 0 37.5 -4t27.5 -10.5t21.5 -16t18.5 -20.5l274 -320h-127z" />
    <glyph glyph-name="Iacute" unicode="&#xcd;" horiz-adv-x="643" 
d="M598 1278q-20 -2 -28 -11.5t-13 -29.5l-213 -1102q-3 -15 5 -26t36 -13l119 -10v-86h-535v86l129 10q19 2 27.5 11.5t11.5 27.5l213 1102q3 17 -5 28t-34 13l-114 10v86h532v-86zM826 1811q0 -29 -13 -48.5t-36 -35.5l-307 -199h-144l279 320q10 12 21 21t24.5 16
t31 10.5t40.5 3.5q27 0 46.5 -8t32 -20.5t19 -28.5t6.5 -31z" />
    <glyph glyph-name="Icircumflex" unicode="&#xce;" horiz-adv-x="643" 
d="M598 1278q-20 -2 -28 -11.5t-13 -29.5l-213 -1102q-3 -15 5 -26t36 -13l119 -10v-86h-535v86l129 10q19 2 27.5 11.5t11.5 27.5l213 1102q3 17 -5 28t-34 13l-114 10v86h532v-86zM700 1528l-168 189l-246 -189h-143l338 347h161l201 -347h-143z" />
    <glyph glyph-name="Idieresis" unicode="&#xcf;" horiz-adv-x="643" 
d="M598 1278q-20 -2 -28 -11.5t-13 -29.5l-213 -1102q-3 -15 5 -26t36 -13l119 -10v-86h-535v86l129 10q19 2 27.5 11.5t11.5 27.5l213 1102q3 17 -5 28t-34 13l-114 10v86h532v-86zM430 1713q0 -23 -9 -44t-24.5 -37t-36 -25t-43.5 -9q-22 0 -42 9t-35 25t-24 36t-9 43
q0 22 9 42.5t24 36.5t35 25.5t42 9.5q23 0 43.5 -9t36 -24t24.5 -35.5t9 -43.5zM854 1713q0 -23 -8.5 -44t-23.5 -37t-35.5 -25t-43.5 -9t-43.5 9t-35.5 25t-24 37t-9 44q0 21 9.5 41.5t25 36t36 25t41.5 9.5q23 0 43.5 -9t35.5 -24t23.5 -35.5t8.5 -43.5z" />
    <glyph glyph-name="Igrave" unicode="&#xcc;" horiz-adv-x="643" 
d="M598 1278q-20 -2 -28 -11.5t-13 -29.5l-213 -1102q-3 -15 5 -26t36 -13l119 -10v-86h-535v86l129 10q19 2 27.5 11.5t11.5 27.5l213 1102q3 17 -5 28t-34 13l-114 10v86h532v-86zM569 1528l-297 195q-21 14 -34 34.5t-13 51.5q0 15 4.5 31t15 29t28 21.5t44.5 8.5
q22 0 37.5 -4t27.5 -10.5t21.5 -16t18.5 -20.5l274 -320h-127z" />
    <glyph glyph-name="Oacute" unicode="&#xd3;" horiz-adv-x="1454" 
d="M1182 854q0 102 -25.5 185t-71 142.5t-108 91.5t-135.5 32q-75 0 -142 -33t-124 -90t-102.5 -133.5t-77.5 -163.5t-49 -180.5t-17 -184.5q0 -104 26.5 -186.5t72 -140t107.5 -88.5t134 -31q75 0 142 33.5t124 91.5t102.5 134.5t77.5 163.5t49 178.5t17 178.5zM1415 854
q0 -108 -23 -215.5t-67 -206.5t-109 -183.5t-149.5 -147.5t-188 -98.5t-223.5 -35.5q-123 0 -225 40.5t-176 115.5t-115 180t-41 234q0 110 25 217t72.5 204t115 179t152 142t185 94t212.5 34q127 0 230 -43.5t175 -118.5t111 -176t39 -215zM1231 1811q0 -29 -13 -48.5
t-36 -35.5l-307 -199h-144l279 320q10 12 21 21t24.5 16t31 10.5t40.5 3.5q27 0 46.5 -8t32 -20.5t19 -28.5t6.5 -31z" />
    <glyph glyph-name="Ocircumflex" unicode="&#xd4;" horiz-adv-x="1454" 
d="M1182 854q0 102 -25.5 185t-71 142.5t-108 91.5t-135.5 32q-75 0 -142 -33t-124 -90t-102.5 -133.5t-77.5 -163.5t-49 -180.5t-17 -184.5q0 -104 26.5 -186.5t72 -140t107.5 -88.5t134 -31q75 0 142 33.5t124 91.5t102.5 134.5t77.5 163.5t49 178.5t17 178.5zM1415 854
q0 -108 -23 -215.5t-67 -206.5t-109 -183.5t-149.5 -147.5t-188 -98.5t-223.5 -35.5q-123 0 -225 40.5t-176 115.5t-115 180t-41 234q0 110 25 217t72.5 204t115 179t152 142t185 94t212.5 34q127 0 230 -43.5t175 -118.5t111 -176t39 -215zM1105 1528l-168 189l-246 -189
h-143l338 347h161l201 -347h-143z" />
    <glyph glyph-name="uni25CC" unicode="&#x25cc;" horiz-adv-x="1066" 
d="M486 868q0 20 13.5 34t33.5 14t34 -14t14 -34t-14 -33.5t-34 -13.5t-33.5 13.5t-13.5 33.5zM486 47q0 20 13.5 34t33.5 14t34 -14t14 -34t-14 -33.5t-34 -13.5t-33.5 13.5t-13.5 33.5zM646 855q6 14 18 22t26 8q20 0 34 -15t14 -34q0 -20 -15 -33.5t-33 -13.5
q-20 0 -33.5 15.5t-13.5 33.5q0 8 3 17zM332 96q6 14 19.5 22t25.5 8q20 0 33.5 -15t13.5 -33q0 -20 -15 -33.5t-33 -13.5q-20 0 -34 15t-14 32q0 5 1 9t3 9zM789 782q16 14 34 14q20 0 33.5 -14t13.5 -34t-13.5 -34t-33.5 -14t-33.5 15t-13.5 33q0 19 13 34zM209 200
q15 15 32 15q21 0 35 -13.5t14 -33.5q0 -19 -13.5 -33.5t-33.5 -14.5q-19 0 -33.5 14.5t-14.5 33.5q0 18 14 32zM894 659q5 2 9 3t9 1q18 0 33 -14t15 -34q0 -18 -14 -33t-35 -15q-18 0 -32 13.5t-14 33.5q0 14 7.5 26.5t21.5 18.5zM135 344q8 4 19 4q20 0 34 -13t14 -33
q0 -19 -14 -34t-34 -15q-19 0 -33.5 14.5t-14.5 34.5q0 14 7.5 25.5t21.5 16.5zM943 506q20 0 34 -14t14 -34q0 -19 -13.5 -33t-33.5 -14h-4q-18 0 -31.5 14t-13.5 32q0 20 15 33.5t33 15.5zM122 505q19 0 34 -13.5t15 -32.5q0 -20 -15 -34.5t-33 -14.5h-2q-20 0 -33 14.5
t-13 33.5q0 20 13.5 33.5t33.5 13.5zM930 345q14 -6 22 -18t8 -26q0 -20 -14.5 -33.5t-33.5 -13.5q-23 0 -35.5 14.5t-12.5 32.5q0 23 15.5 35t33.5 12q9 0 17 -3zM171 659q14 -6 22.5 -19t8.5 -27q0 -20 -15.5 -33t-33.5 -13q-21 0 -34 15t-13 33q0 20 14.5 34t32.5 14
q5 0 9 -1t9 -3zM857 202q14 -14 14 -34q0 -19 -13.5 -33t-34.5 -14q-20 0 -34 14t-14 33q0 20 13 33.5t33 13.5t36 -13zM275 782q15 -13 15 -33q0 -22 -13 -35t-34 -13q-20 0 -34 13.5t-14 32.5q0 20 14 34.5t33 14.5t33 -14zM734 97q2 -5 3 -9t1 -9q0 -18 -14 -33t-34 -15
q-18 0 -33 14t-15 35q0 17 13 32t32 15q14 0 27 -8t20 -22zM419 856q4 -8 4 -19q0 -19 -12.5 -33.5t-32.5 -14.5t-35 13.5t-15 34.5q0 18 14.5 33t34.5 15q14 0 25 -7.5t17 -21.5z" />
    <glyph glyph-name="Ograve" unicode="&#xd2;" horiz-adv-x="1454" 
d="M1182 854q0 102 -25.5 185t-71 142.5t-108 91.5t-135.5 32q-75 0 -142 -33t-124 -90t-102.5 -133.5t-77.5 -163.5t-49 -180.5t-17 -184.5q0 -104 26.5 -186.5t72 -140t107.5 -88.5t134 -31q75 0 142 33.5t124 91.5t102.5 134.5t77.5 163.5t49 178.5t17 178.5zM1415 854
q0 -108 -23 -215.5t-67 -206.5t-109 -183.5t-149.5 -147.5t-188 -98.5t-223.5 -35.5q-123 0 -225 40.5t-176 115.5t-115 180t-41 234q0 110 25 217t72.5 204t115 179t152 142t185 94t212.5 34q127 0 230 -43.5t175 -118.5t111 -176t39 -215zM974 1528l-297 195
q-21 14 -34 34.5t-13 51.5q0 15 4.5 31t15 29t28 21.5t44.5 8.5q22 0 37.5 -4t27.5 -10.5t21.5 -16t18.5 -20.5l274 -320h-127z" />
    <glyph glyph-name="Uacute" unicode="&#xda;" horiz-adv-x="1448" 
d="M1415 1278q-18 -2 -32 -11.5t-17 -29.5l-158 -799q-21 -111 -67 -198.5t-117.5 -148t-168 -92.5t-218.5 -32q-95 0 -176.5 19.5t-142.5 62.5t-95.5 111t-34.5 166q0 31 6.5 87t20.5 128l143 696q3 17 -5 28t-36 13l-114 10v86h532v-86l-121 -10q-18 -2 -32 -11.5
t-17 -29.5l-141 -696q-12 -60 -17.5 -107.5t-5.5 -75.5q0 -65 20.5 -113t58 -80.5t91 -48.5t119.5 -16q100 0 167.5 33.5t112.5 89.5t71 130.5t42 156.5l144 727q3 17 -5 28t-36 13l-115 10v86h463v-86zM1238 1811q0 -29 -13 -48.5t-36 -35.5l-307 -199h-144l279 320
q10 12 21 21t24.5 16t31 10.5t40.5 3.5q27 0 46.5 -8t32 -20.5t19 -28.5t6.5 -31z" />
    <glyph glyph-name="Ucircumflex" unicode="&#xdb;" horiz-adv-x="1448" 
d="M1415 1278q-18 -2 -32 -11.5t-17 -29.5l-158 -799q-21 -111 -67 -198.5t-117.5 -148t-168 -92.5t-218.5 -32q-95 0 -176.5 19.5t-142.5 62.5t-95.5 111t-34.5 166q0 31 6.5 87t20.5 128l143 696q3 17 -5 28t-36 13l-114 10v86h532v-86l-121 -10q-18 -2 -32 -11.5
t-17 -29.5l-141 -696q-12 -60 -17.5 -107.5t-5.5 -75.5q0 -65 20.5 -113t58 -80.5t91 -48.5t119.5 -16q100 0 167.5 33.5t112.5 89.5t71 130.5t42 156.5l144 727q3 17 -5 28t-36 13l-115 10v86h463v-86zM1112 1528l-168 189l-246 -189h-143l338 347h161l201 -347h-143z" />
    <glyph glyph-name="Ugrave" unicode="&#xd9;" horiz-adv-x="1448" 
d="M1415 1278q-18 -2 -32 -11.5t-17 -29.5l-158 -799q-21 -111 -67 -198.5t-117.5 -148t-168 -92.5t-218.5 -32q-95 0 -176.5 19.5t-142.5 62.5t-95.5 111t-34.5 166q0 31 6.5 87t20.5 128l143 696q3 17 -5 28t-36 13l-114 10v86h532v-86l-121 -10q-18 -2 -32 -11.5
t-17 -29.5l-141 -696q-12 -60 -17.5 -107.5t-5.5 -75.5q0 -65 20.5 -113t58 -80.5t91 -48.5t119.5 -16q100 0 167.5 33.5t112.5 89.5t71 130.5t42 156.5l144 727q3 17 -5 28t-36 13l-115 10v86h463v-86zM981 1528l-297 195q-21 14 -34 34.5t-13 51.5q0 15 4.5 31t15 29
t28 21.5t44.5 8.5q22 0 37.5 -4t27.5 -10.5t21.5 -16t18.5 -20.5l274 -320h-127z" />
    <glyph glyph-name="dotlessi" unicode="&#x131;" horiz-adv-x="545" 
d="M539 59q-12 -5 -44 -19t-75 -28.5t-90.5 -25.5t-89.5 -11q-53 0 -84 18t-46 47t-17 65t5 71l131 694l-176 19v59l309 64h84l-155 -819q-4 -21 0.5 -40t15 -33.5t27 -23t37.5 -8.5q18 0 42.5 6.5t49 15t45.5 16.5t31 11v-78z" />
    <glyph glyph-name="circumflex" unicode="&#x2c6;" horiz-adv-x="702" 
d="M676 1128l-168 189l-246 -189h-143l338 347h161l201 -347h-143z" />
    <glyph glyph-name="tilde" unicode="&#x2dc;" horiz-adv-x="739" 
d="M918 1415q-22 -45 -50.5 -84.5t-65 -69t-81.5 -46.5t-100 -17q-42 0 -73 13.5t-63 33.5q-13 9 -26 17t-28.5 15t-34 11t-42.5 4q-13 0 -29.5 -7t-32.5 -19.5t-30 -29.5t-22 -38h-109q21 45 49.5 84.5t64.5 69t81 46.5t100 17q42 0 73.5 -13.5t63.5 -35.5q26 -15 55 -30
t76 -15q14 0 30.5 7t32.5 19.5t29.5 29.5t22.5 38h109z" />
    <glyph glyph-name="macron" unicode="&#xaf;" horiz-adv-x="625" 
d="M760 1200h-620l29 135h617z" />
    <glyph glyph-name="breve" unicode="&#x2d8;" horiz-adv-x="641" 
d="M821 1423q-12 -52 -41.5 -104.5t-76 -95t-110 -69t-144.5 -26.5q-73 0 -124 21t-82.5 55t-46 77t-14.5 87q0 12 1 26t3 29h107q2 -45 18.5 -75.5t41.5 -49t55.5 -26.5t60.5 -8q31 0 66.5 8t69 27t63 49.5t49.5 74.5h104z" />
    <glyph glyph-name="dotaccent" unicode="&#x2d9;" horiz-adv-x="231" 
d="M391 1313q0 -24 -9 -45t-24.5 -36.5t-36.5 -24.5t-45 -9t-44.5 9t-36 24.5t-24.5 36.5t-9 45t8.5 45t24 37t36.5 25.5t45 9.5t45 -9t36.5 -25t24.5 -37.5t9 -45.5z" />
    <glyph glyph-name="ring" unicode="&#x2da;" horiz-adv-x="479" 
d="M547 1397q0 48 -31 76t-78 28q-32 0 -61.5 -13t-53 -35t-37.5 -51t-14 -61q0 -48 32.5 -77t78.5 -29q31 0 61 13.5t52.5 36t36.5 51.5t14 61zM367 1128q-43 0 -79.5 14.5t-63 40.5t-41.5 62t-15 78q0 56 23.5 107.5t63 91t91 63t107.5 23.5q43 0 79.5 -14.5t63.5 -41
t42 -62.5t15 -79q0 -57 -23.5 -108t-63.5 -90t-91.5 -62t-107.5 -23z" />
    <glyph glyph-name="cedilla" unicode="&#xb8;" horiz-adv-x="487" 
d="M336 -229q0 -53 -23 -95.5t-63 -72t-92.5 -45t-110.5 -15.5q-23 0 -47.5 3t-46.5 6.5t-40.5 8t-29.5 7.5l19 82q23 -6 61 -14.5t72 -8.5q14 0 37 4t44.5 14.5t37.5 29.5t16 49q0 15 -6.5 25.5t-16 17t-21.5 9.5t-24 3q-9 0 -21 -5.5t-44 -21.5l57 298h106l-32 -175
q8 2 15.5 3t15.5 1q137 0 137 -108z" />
    <glyph glyph-name="hungarumlaut" unicode="&#x2dd;" horiz-adv-x="856" 
d="M616 1411q0 -29 -13.5 -48.5t-35.5 -35.5l-309 -199h-141l276 320q20 23 46.5 37t72.5 14q27 0 46.5 -8t32.5 -20.5t19 -28.5t6 -31zM1032 1411q0 -29 -13.5 -48.5t-35.5 -35.5l-307 -199h-144l279 320q10 12 21 21t24.5 16t31 10.5t40.5 3.5q27 0 46.5 -8t32 -20.5
t19 -28.5t6.5 -31z" />
    <glyph glyph-name="ogonek" unicode="&#x2db;" horiz-adv-x="377" 
d="M135 0q-29 -22 -58 -49.5t-52.5 -59.5t-38.5 -68t-15 -75q0 -37 24 -53.5t58 -16.5q20 0 38.5 3t37.5 8l-18 -117q-26 -6 -54.5 -10t-56.5 -4q-33 0 -63.5 7t-53.5 22.5t-37 41.5t-14 64q0 45 17 89.5t44 84t61.5 73.5t70.5 60h110z" />
    <glyph glyph-name="caron" unicode="&#x2c7;" horiz-adv-x="702" 
d="M551 1128h-162l-201 347h144l170 -189l243 189h146z" />
    <glyph glyph-name="a.2StorySItal" horiz-adv-x="1004" 
d="M659 535q-113 -26 -197 -56t-140 -67t-83.5 -82t-27.5 -101q0 -27 8.5 -50t23.5 -40t35.5 -27t45.5 -10q37 0 80 13.5t82 31t69 33.5t39 21zM963 45q-41 -26 -99 -48t-123 -22q-46 0 -76.5 13.5t-49 33.5t-26 44t-7.5 45q-18 -11 -55 -33.5t-84.5 -45.5t-101 -40
t-103.5 -17t-91.5 16t-71 45t-45.5 70t-16 91q0 53 14 96.5t40.5 78.5t63.5 63.5t83 51.5q54 27 111 46.5t115.5 35.5t118 29t118.5 27q1 7 5 24.5t7.5 39.5t6.5 45.5t3 43.5q0 29 -6 52.5t-21.5 39.5t-43 24.5t-70.5 8.5q-25 0 -49.5 -4t-45.5 -9.5t-36 -11t-22 -8.5
l-33 -172l-137 -2q-35 0 -53.5 13t-18.5 39q0 54 36 102t99.5 84t149.5 57t186 21q54 0 100 -11.5t80.5 -36t54 -63.5t19.5 -94q0 -16 -5 -51.5t-12.5 -82.5t-18 -102.5t-20.5 -110.5q-25 -129 -55 -284q-8 -38 10 -66t56 -28q7 0 23 3.5t34 9.5t35 13t27 13v-76z" />
    <glyph glyph-name="uni0430" unicode="&#x430;" horiz-adv-x="1067" 
d="M760 803q1 5 -7.5 23t-20.5 37.5t-25.5 34.5t-22.5 15q-78 0 -139.5 -25.5t-107.5 -69t-78.5 -100.5t-52.5 -119t-29 -125t-9 -120q0 -43 7 -86t24.5 -78t48 -57t78.5 -22q36 0 72 16t67 37t54 42t34 32zM1061 55q-12 -5 -44 -18.5t-71.5 -27t-80 -24t-70.5 -10.5
q-37 0 -62.5 9t-42 27t-25.5 44t-12 60q-23 -22 -54 -46.5t-68.5 -45.5t-80 -34.5t-88.5 -13.5q-60 0 -105.5 17t-78.5 45.5t-54.5 66t-34.5 78t-18 82t-5 78.5q0 79 17 159.5t50.5 155t83.5 139.5t115.5 113t146 75.5t176.5 27.5q28 0 55.5 -6.5t51.5 -17t44 -23.5t34 -27
l30 49h140q-5 -12 -11 -28.5t-12 -33.5t-10.5 -32t-5.5 -23q-7 -27 -20 -81.5t-27.5 -122.5t-30 -142.5t-27.5 -141t-20 -118t-8 -74.5q0 -54 23 -74t65 -20q10 0 29.5 4.5t40.5 10.5t39 11t26 7v-74z" />
    <glyph glyph-name="uni2090" unicode="&#x2090;" horiz-adv-x="694" 
d="M369 22q1 3 -4.5 13.5t-13.5 22.5t-17 21t-14 9q-51 0 -91 -15.5t-70 -41.5t-51 -60t-34 -71.5t-19 -75t-6 -72.5q0 -25 4.5 -51t16 -47t31.5 -34t51 -13q23 0 46.5 9.5t43.5 22t35 25t22 19.5zM565 -427q-8 -3 -29 -11t-46.5 -16t-52 -14.5t-45.5 -6.5q-24 0 -40.5 5.5
t-27.5 16t-17 26.5t-8 36q-15 -13 -35 -28t-44.5 -27.5t-52 -20.5t-57.5 -8q-39 0 -68.5 10t-51 27.5t-35.5 40t-22.5 46.5t-11.5 49t-3 47q0 48 11 96t33 93t54.5 84t75 67.5t94.5 45t115 16.5q18 0 36 -4t33.5 -10t28.5 -14t22 -16l19 29h91q-3 -7 -7 -17t-7.5 -20
t-6.5 -19t-4 -14q-4 -16 -12.5 -49t-18 -73.5t-19.5 -85.5t-18 -84.5t-13 -70.5t-5 -45q0 -32 15 -44t42 -12q6 0 19 2.5t26.5 6t25 6.5t17.5 4v-44z" />
    <glyph glyph-name="uni2090.SngStory" horiz-adv-x="666" 
d="M369 22q0 3 -5 13.5t-13 22.5t-16.5 21t-14.5 9q-77 0 -128.5 -33.5t-83.5 -83.5t-45.5 -109t-13.5 -110q0 -26 4.5 -51.5t16 -46.5t31.5 -34t51 -13q23 0 46.5 9.5t43.5 22t35 25t22 19.5zM565 -427q-8 -3 -29 -11t-46.5 -16t-52 -14.5t-45.5 -6.5q-49 0 -68.5 21.5
t-24.5 62.5q-15 -13 -35 -28t-44 -27.5t-52 -20.5t-58 -8q-59 0 -96 22t-58.5 55t-29.5 71.5t-8 71.5q0 71 25 143t73.5 129.5t120 93.5t164.5 36q37 0 69.5 -13.5t50.5 -30.5l19 29h91q-3 -7 -7 -17t-7.5 -20t-6.5 -19t-4 -14q-5 -16 -13 -49t-18 -73.5t-20 -85
t-18.5 -84.5t-13.5 -71t-5 -45q0 -32 15.5 -44t43.5 -12q7 0 19.5 2.5t26 6t25.5 6.5t17 4v-44z" />
    <glyph glyph-name="uni1D43" unicode="&#x1d43;" horiz-adv-x="692" 
d="M791 817q-8 -3 -28.5 -10.5t-46.5 -16t-53 -14.5t-47 -6q-48 0 -68.5 21t-23.5 63q-15 -14 -35 -29t-44 -27t-51.5 -20t-57.5 -8q-59 0 -97 22t-60 54.5t-30 71t-8 71.5q0 72 25 143.5t73.5 129t120.5 93.5t166 36q37 0 69 -14t50 -29l21 28h90q-2 -7 -6 -17l-8 -20
q-4 -10 -8 -19t-5 -13q-4 -17 -12 -49.5t-17.5 -73.5t-19.5 -86t-18 -85t-13.5 -71t-5.5 -45q0 -31 16 -43t43 -12q7 0 19.5 2.5t26 5.5t25.5 6t18 4v-43zM594 1266q1 3 -4.5 13.5t-13.5 22t-16.5 20.5t-14.5 9q-76 0 -128 -33t-83.5 -83t-45.5 -108.5t-14 -109.5
q0 -26 4.5 -52t16.5 -47t32 -34.5t52 -13.5q23 0 46 9.5t42.5 22.5t34.5 26t22 20z" />
    <glyph glyph-name="uni1D43.SngStory" horiz-adv-x="693" 
d="M609 1267q1 3 -4.5 13.5t-13.5 22.5t-17 21t-14 9q-51 0 -91 -15.5t-70 -41.5t-51 -60t-34 -71.5t-19 -75t-6 -72.5q0 -25 4.5 -51t16 -47t31.5 -34t51 -13q23 0 46.5 9.5t43.5 22t35 25t22 19.5zM805 818q-8 -3 -29 -11t-46.5 -16t-52 -14.5t-45.5 -6.5q-24 0 -40.5 5.5
t-27.5 16t-17 26.5t-8 36q-15 -13 -35 -28t-44.5 -27.5t-52 -20.5t-57.5 -8q-39 0 -68.5 10t-51 27.5t-35.5 40t-22.5 46.5t-11.5 49t-3 47q0 48 11 96t33 93t54.5 84t75 67.5t94.5 45t115 16.5q18 0 36 -4t33.5 -10t28.5 -14t22 -16l19 29h91q-3 -7 -7 -17t-7.5 -20
t-6.5 -19t-4 -14q-4 -16 -12.5 -49t-18.5 -73.5t-20 -85.5t-18 -84.5t-13.5 -70.5t-5.5 -45q0 -32 16 -44t43 -12q6 0 19 2.5t26.5 6t25 6.5t17.5 4v-44z" />
    <glyph glyph-name="uni0363" unicode="&#x363;" 
d="M-18 1192q-8 -3 -28.5 -10.5t-46.5 -16t-53 -14.5t-47 -6q-48 0 -68.5 21t-23.5 63q-15 -14 -35 -29t-44 -27t-51.5 -20t-57.5 -8q-59 0 -97 22t-60 54.5t-30 71t-8 71.5q0 72 25 143.5t73.5 129t120.5 93.5t166 36q37 0 69 -14t50 -29l21 28h90q-2 -7 -6 -17l-8 -20
q-4 -10 -8 -19t-5 -13q-4 -17 -12 -49.5t-17.5 -73.5t-19.5 -86t-18 -85t-13.5 -71t-5.5 -45q0 -31 16 -43t43 -12q7 0 19.5 2.5t26 5.5t25.5 6t18 4v-43zM-215 1641q1 3 -4.5 13.5t-13.5 22t-16.5 20.5t-14.5 9q-76 0 -128 -33t-83.5 -83t-45.5 -108.5t-14 -109.5
q0 -26 4.5 -52t16.5 -47t32 -34.5t52 -13.5q23 0 46 9.5t42.5 22.5t34.5 26t22 20z" />
    <glyph glyph-name="uni0363.SngStory" 
d="M-201 1642q0 3 -5 13.5t-13 22.5t-16.5 21t-14.5 9q-77 0 -128.5 -33.5t-83.5 -83.5t-45.5 -109t-13.5 -110q0 -26 4.5 -51.5t16 -46.5t31.5 -34t51 -13q23 0 46.5 9.5t43.5 22t35 25t22 19.5zM-5 1193q-8 -3 -29 -11t-46.5 -16t-52 -14.5t-45.5 -6.5q-49 0 -68.5 21.5
t-24.5 62.5q-15 -13 -35 -28t-44 -27.5t-52 -20.5t-58 -8q-59 0 -96 22t-58.5 55t-29.5 71.5t-8 71.5q0 71 25 143t73.5 129.5t120 93.5t164.5 36q37 0 69.5 -13.5t50.5 -30.5l19 29h91q-3 -7 -7 -17t-7.5 -20t-6.5 -19t-4 -14q-5 -16 -13 -49t-18 -73.5t-20 -85
t-18.5 -84.5t-13.5 -71t-5 -45q0 -32 15.5 -44t43.5 -12q7 0 19.5 2.5t26 6t25.5 6.5t17 4v-44z" />
    <glyph glyph-name="uni0201" unicode="&#x201;" horiz-adv-x="1067" 
d="M760 803q1 5 -7.5 23t-20.5 37.5t-25.5 34.5t-22.5 15q-78 0 -139.5 -25.5t-107.5 -69t-78.5 -100.5t-52.5 -119t-29 -125t-9 -120q0 -43 7 -86t24.5 -78t48 -57t78.5 -22q36 0 72 16t67 37t54 42t34 32zM1061 55q-12 -5 -44 -18.5t-71.5 -27t-80 -24t-70.5 -10.5
q-37 0 -62.5 9t-42 27t-25.5 44t-12 60q-23 -22 -54 -46.5t-68.5 -45.5t-80 -34.5t-88.5 -13.5q-60 0 -105.5 17t-78.5 45.5t-54.5 66t-34.5 78t-18 82t-5 78.5q0 79 17 159.5t50.5 155t83.5 139.5t115.5 113t146 75.5t176.5 27.5q28 0 55.5 -6.5t51.5 -17t44 -23.5t34 -27
l30 49h140q-5 -12 -11 -28.5t-12 -33.5t-10.5 -32t-5.5 -23q-7 -27 -20 -81.5t-27.5 -122.5t-30 -142.5t-27.5 -141t-20 -118t-8 -74.5q0 -54 23 -74t65 -20q10 0 29.5 4.5t40.5 10.5t39 11t26 7v-74zM564 1128l-272 199q-33 22 -33 64q0 48 32.5 79t82.5 31q41 0 59 -14.5
t35 -40.5l213 -318h-117zM943 1128l-272 199q-33 22 -33 64q0 24 9 44t24.5 34.5t36.5 23t45 8.5q41 0 60 -14.5t36 -40.5l213 -318h-119z" />
    <glyph glyph-name="uni1EAD" unicode="&#x1ead;" horiz-adv-x="1067" 
d="M760 803q1 5 -7.5 23t-20.5 37.5t-25.5 34.5t-22.5 15q-78 0 -139.5 -25.5t-107.5 -69t-78.5 -100.5t-52.5 -119t-29 -125t-9 -120q0 -43 7 -86t24.5 -78t48 -57t78.5 -22q36 0 72 16t67 37t54 42t34 32zM1061 55q-12 -5 -44 -18.5t-71.5 -27t-80 -24t-70.5 -10.5
q-37 0 -62.5 9t-42 27t-25.5 44t-12 60q-23 -22 -54 -46.5t-68.5 -45.5t-80 -34.5t-88.5 -13.5q-60 0 -105.5 17t-78.5 45.5t-54.5 66t-34.5 78t-18 82t-5 78.5q0 79 17 159.5t50.5 155t83.5 139.5t115.5 113t146 75.5t176.5 27.5q28 0 55.5 -6.5t51.5 -17t44 -23.5t34 -27
l30 49h140q-5 -12 -11 -28.5t-12 -33.5t-10.5 -32t-5.5 -23q-7 -27 -20 -81.5t-27.5 -122.5t-30 -142.5t-27.5 -141t-20 -118t-8 -74.5q0 -54 23 -74t65 -20q10 0 29.5 4.5t40.5 10.5t39 11t26 7v-74zM536 -293q0 -24 -9 -44.5t-24.5 -36.5t-36 -25t-44.5 -9t-45 9t-36.5 25
t-24.5 36.5t-9 44.5t8.5 45.5t24 38t36.5 26t46 9.5q24 0 44.5 -9.5t36 -25.5t24.5 -37.5t9 -46.5zM917 1128l-168 189l-246 -189h-143l338 347h161l201 -347h-143z" />
    <glyph glyph-name="uni1EA5" unicode="&#x1ea5;" horiz-adv-x="1067" 
d="M760 803q1 5 -7.5 23t-20.5 37.5t-25.5 34.5t-22.5 15q-78 0 -139.5 -25.5t-107.5 -69t-78.5 -100.5t-52.5 -119t-29 -125t-9 -120q0 -43 7 -86t24.5 -78t48 -57t78.5 -22q36 0 72 16t67 37t54 42t34 32zM1061 55q-12 -5 -44 -18.5t-71.5 -27t-80 -24t-70.5 -10.5
q-37 0 -62.5 9t-42 27t-25.5 44t-12 60q-23 -22 -54 -46.5t-68.5 -45.5t-80 -34.5t-88.5 -13.5q-60 0 -105.5 17t-78.5 45.5t-54.5 66t-34.5 78t-18 82t-5 78.5q0 79 17 159.5t50.5 155t83.5 139.5t115.5 113t146 75.5t176.5 27.5q28 0 55.5 -6.5t51.5 -17t44 -23.5t34 -27
l30 49h140q-5 -12 -11 -28.5t-12 -33.5t-10.5 -32t-5.5 -23q-7 -27 -20 -81.5t-27.5 -122.5t-30 -142.5t-27.5 -141t-20 -118t-8 -74.5q0 -54 23 -74t65 -20q10 0 29.5 4.5t40.5 10.5t39 11t26 7v-74zM917 1128l-168 189l-246 -189h-143l338 347h161l201 -347h-143z
M1087 1811q0 -29 -13 -48.5t-36 -35.5l-307 -199h-144l279 320q10 12 21 21t24.5 16t31 10.5t40.5 3.5q27 0 46.5 -8t32 -20.5t19 -28.5t6.5 -31z" />
    <glyph glyph-name="uni1EA5.VN" horiz-adv-x="1067" 
d="M760 803q1 5 -7.5 23t-20.5 37.5t-25.5 34.5t-22.5 15q-78 0 -139.5 -25.5t-107.5 -69t-78.5 -100.5t-52.5 -119t-29 -125t-9 -120q0 -43 7 -86t24.5 -78t48 -57t78.5 -22q36 0 72 16t67 37t54 42t34 32zM1061 55q-12 -5 -44 -18.5t-71.5 -27t-80 -24t-70.5 -10.5
q-37 0 -62.5 9t-42 27t-25.5 44t-12 60q-23 -22 -54 -46.5t-68.5 -45.5t-80 -34.5t-88.5 -13.5q-60 0 -105.5 17t-78.5 45.5t-54.5 66t-34.5 78t-18 82t-5 78.5q0 79 17 159.5t50.5 155t83.5 139.5t115.5 113t146 75.5t176.5 27.5q28 0 55.5 -6.5t51.5 -17t44 -23.5t34 -27
l30 49h140q-5 -12 -11 -28.5t-12 -33.5t-10.5 -32t-5.5 -23q-7 -27 -20 -81.5t-27.5 -122.5t-30 -142.5t-27.5 -141t-20 -118t-8 -74.5q0 -54 23 -74t65 -20q10 0 29.5 4.5t40.5 10.5t39 11t26 7v-74zM932 1128l-170 189l-246 -189h-143l340 347h159l201 -347h-141z
M1303 1638q0 -17 -11 -34t-28 -31l-248 -199l-35 49l152 211q23 31 43.5 48.5t54.5 17.5q31 0 51.5 -15t20.5 -47z" />
    <glyph glyph-name="uni1EA5.2StorySItal" horiz-adv-x="1004" 
d="M659 535q-113 -26 -197 -56t-140 -67t-83.5 -82t-27.5 -101q0 -27 8.5 -50t23.5 -40t35.5 -27t45.5 -10q37 0 80 13.5t82 31t69 33.5t39 21zM963 45q-41 -26 -99 -48t-123 -22q-46 0 -76.5 13.5t-49 33.5t-26 44t-7.5 45q-18 -11 -55 -33.5t-84.5 -45.5t-101 -40
t-103.5 -17t-91.5 16t-71 45t-45.5 70t-16 91q0 53 14 96.5t40.5 78.5t63.5 63.5t83 51.5q54 27 111 46.5t115.5 35.5t118 29t118.5 27q1 7 5 24.5t7.5 39.5t6.5 45.5t3 43.5q0 29 -6 52.5t-21.5 39.5t-43 24.5t-70.5 8.5q-25 0 -49.5 -4t-45.5 -9.5t-36 -11t-22 -8.5
l-33 -172l-137 -2q-35 0 -53.5 13t-18.5 39q0 54 36 102t99.5 84t149.5 57t186 21q54 0 100 -11.5t80.5 -36t54 -63.5t19.5 -94q0 -16 -5 -51.5t-12.5 -82.5t-18 -102.5t-20.5 -110.5q-25 -129 -55 -284q-8 -38 10 -66t56 -28q7 0 23 3.5t34 9.5t35 13t27 13v-76zM841 1128
l-168 189l-246 -189h-143l338 347h161l201 -347h-143zM1011 1811q0 -29 -13 -48.5t-36 -35.5l-307 -199h-144l279 320q10 12 21 21t24.5 16t31 10.5t40.5 3.5q27 0 46.5 -8t32 -20.5t19 -28.5t6.5 -31z" />
    <glyph glyph-name="uni1EA5.2StorySItal.VN" horiz-adv-x="1004" 
d="M659 535q-113 -26 -197 -56t-140 -67t-83.5 -82t-27.5 -101q0 -27 8.5 -50t23.5 -40t35.5 -27t45.5 -10q37 0 80 13.5t82 31t69 33.5t39 21zM963 45q-41 -26 -99 -48t-123 -22q-46 0 -76.5 13.5t-49 33.5t-26 44t-7.5 45q-18 -11 -55 -33.5t-84.5 -45.5t-101 -40
t-103.5 -17t-91.5 16t-71 45t-45.5 70t-16 91q0 53 14 96.5t40.5 78.5t63.5 63.5t83 51.5q54 27 111 46.5t115.5 35.5t118 29t118.5 27q1 7 5 24.5t7.5 39.5t6.5 45.5t3 43.5q0 29 -6 52.5t-21.5 39.5t-43 24.5t-70.5 8.5q-25 0 -49.5 -4t-45.5 -9.5t-36 -11t-22 -8.5
l-33 -172l-137 -2q-35 0 -53.5 13t-18.5 39q0 54 36 102t99.5 84t149.5 57t186 21q54 0 100 -11.5t80.5 -36t54 -63.5t19.5 -94q0 -16 -5 -51.5t-12.5 -82.5t-18 -102.5t-20.5 -110.5q-25 -129 -55 -284q-8 -38 10 -66t56 -28q7 0 23 3.5t34 9.5t35 13t27 13v-76zM856 1128
l-170 189l-246 -189h-143l340 347h159l201 -347h-141zM1227 1638q0 -17 -11 -34t-28 -31l-248 -199l-35 49l152 211q23 31 43.5 48.5t54.5 17.5q31 0 51.5 -15t20.5 -47z" />
    <glyph glyph-name="uni1EA7" unicode="&#x1ea7;" horiz-adv-x="1067" 
d="M760 803q1 5 -7.5 23t-20.5 37.5t-25.5 34.5t-22.5 15q-78 0 -139.5 -25.5t-107.5 -69t-78.5 -100.5t-52.5 -119t-29 -125t-9 -120q0 -43 7 -86t24.5 -78t48 -57t78.5 -22q36 0 72 16t67 37t54 42t34 32zM1061 55q-12 -5 -44 -18.5t-71.5 -27t-80 -24t-70.5 -10.5
q-37 0 -62.5 9t-42 27t-25.5 44t-12 60q-23 -22 -54 -46.5t-68.5 -45.5t-80 -34.5t-88.5 -13.5q-60 0 -105.5 17t-78.5 45.5t-54.5 66t-34.5 78t-18 82t-5 78.5q0 79 17 159.5t50.5 155t83.5 139.5t115.5 113t146 75.5t176.5 27.5q28 0 55.5 -6.5t51.5 -17t44 -23.5t34 -27
l30 49h140q-5 -12 -11 -28.5t-12 -33.5t-10.5 -32t-5.5 -23q-7 -27 -20 -81.5t-27.5 -122.5t-30 -142.5t-27.5 -141t-20 -118t-8 -74.5q0 -54 23 -74t65 -20q10 0 29.5 4.5t40.5 10.5t39 11t26 7v-74zM917 1128l-168 189l-246 -189h-143l338 347h161l201 -347h-143z
M830 1528l-297 195q-21 14 -34 34.5t-13 51.5q0 15 4.5 31t15 29t28 21.5t44.5 8.5q22 0 37.5 -4t27.5 -10.5t21.5 -16t18.5 -20.5l274 -320h-127z" />
    <glyph glyph-name="uni1EA7.VN" horiz-adv-x="1067" 
d="M760 803q1 5 -7.5 23t-20.5 37.5t-25.5 34.5t-22.5 15q-78 0 -139.5 -25.5t-107.5 -69t-78.5 -100.5t-52.5 -119t-29 -125t-9 -120q0 -43 7 -86t24.5 -78t48 -57t78.5 -22q36 0 72 16t67 37t54 42t34 32zM1061 55q-12 -5 -44 -18.5t-71.5 -27t-80 -24t-70.5 -10.5
q-37 0 -62.5 9t-42 27t-25.5 44t-12 60q-23 -22 -54 -46.5t-68.5 -45.5t-80 -34.5t-88.5 -13.5q-60 0 -105.5 17t-78.5 45.5t-54.5 66t-34.5 78t-18 82t-5 78.5q0 79 17 159.5t50.5 155t83.5 139.5t115.5 113t146 75.5t176.5 27.5q28 0 55.5 -6.5t51.5 -17t44 -23.5t34 -27
l30 49h140q-5 -12 -11 -28.5t-12 -33.5t-10.5 -32t-5.5 -23q-7 -27 -20 -81.5t-27.5 -122.5t-30 -142.5t-27.5 -141t-20 -118t-8 -74.5q0 -54 23 -74t65 -20q10 0 29.5 4.5t40.5 10.5t39 11t26 7v-74zM896 1128l-170 189l-246 -189h-143l340 347h160l200 -347h-141z
M531 1399l-168 198q-8 11 -13 21t-5 22q0 18 8.5 33.5t22 26.5t30 17.5t33.5 6.5q35 0 52 -17.5t26 -49.5l66 -211z" />
    <glyph glyph-name="uni1EA7.2StorySItal" horiz-adv-x="1004" 
d="M659 535q-113 -26 -197 -56t-140 -67t-83.5 -82t-27.5 -101q0 -27 8.5 -50t23.5 -40t35.5 -27t45.5 -10q37 0 80 13.5t82 31t69 33.5t39 21zM963 45q-41 -26 -99 -48t-123 -22q-46 0 -76.5 13.5t-49 33.5t-26 44t-7.5 45q-18 -11 -55 -33.5t-84.5 -45.5t-101 -40
t-103.5 -17t-91.5 16t-71 45t-45.5 70t-16 91q0 53 14 96.5t40.5 78.5t63.5 63.5t83 51.5q54 27 111 46.5t115.5 35.5t118 29t118.5 27q1 7 5 24.5t7.5 39.5t6.5 45.5t3 43.5q0 29 -6 52.5t-21.5 39.5t-43 24.5t-70.5 8.5q-25 0 -49.5 -4t-45.5 -9.5t-36 -11t-22 -8.5
l-33 -172l-137 -2q-35 0 -53.5 13t-18.5 39q0 54 36 102t99.5 84t149.5 57t186 21q54 0 100 -11.5t80.5 -36t54 -63.5t19.5 -94q0 -16 -5 -51.5t-12.5 -82.5t-18 -102.5t-20.5 -110.5q-25 -129 -55 -284q-8 -38 10 -66t56 -28q7 0 23 3.5t34 9.5t35 13t27 13v-76zM841 1128
l-168 189l-246 -189h-143l338 347h161l201 -347h-143zM754 1528l-297 195q-21 14 -34 34.5t-13 51.5q0 15 4.5 31t15 29t28 21.5t44.5 8.5q22 0 37.5 -4t27.5 -10.5t21.5 -16t18.5 -20.5l274 -320h-127z" />
    <glyph glyph-name="uni1EA7.2StorySItal.VN" horiz-adv-x="1004" 
d="M659 535q-113 -26 -197 -56t-140 -67t-83.5 -82t-27.5 -101q0 -27 8.5 -50t23.5 -40t35.5 -27t45.5 -10q37 0 80 13.5t82 31t69 33.5t39 21zM963 45q-41 -26 -99 -48t-123 -22q-46 0 -76.5 13.5t-49 33.5t-26 44t-7.5 45q-18 -11 -55 -33.5t-84.5 -45.5t-101 -40
t-103.5 -17t-91.5 16t-71 45t-45.5 70t-16 91q0 53 14 96.5t40.5 78.5t63.5 63.5t83 51.5q54 27 111 46.5t115.5 35.5t118 29t118.5 27q1 7 5 24.5t7.5 39.5t6.5 45.5t3 43.5q0 29 -6 52.5t-21.5 39.5t-43 24.5t-70.5 8.5q-25 0 -49.5 -4t-45.5 -9.5t-36 -11t-22 -8.5
l-33 -172l-137 -2q-35 0 -53.5 13t-18.5 39q0 54 36 102t99.5 84t149.5 57t186 21q54 0 100 -11.5t80.5 -36t54 -63.5t19.5 -94q0 -16 -5 -51.5t-12.5 -82.5t-18 -102.5t-20.5 -110.5q-25 -129 -55 -284q-8 -38 10 -66t56 -28q7 0 23 3.5t34 9.5t35 13t27 13v-76zM820 1128
l-170 189l-246 -189h-143l340 347h160l200 -347h-141zM455 1399l-168 198q-8 11 -13 21t-5 22q0 18 8.5 33.5t22 26.5t30 17.5t33.5 6.5q35 0 52 -17.5t26 -49.5l66 -211z" />
    <glyph glyph-name="uni1EAB" unicode="&#x1eab;" horiz-adv-x="1067" 
d="M760 803q1 5 -7.5 23t-20.5 37.5t-25.5 34.5t-22.5 15q-78 0 -139.5 -25.5t-107.5 -69t-78.5 -100.5t-52.5 -119t-29 -125t-9 -120q0 -43 7 -86t24.5 -78t48 -57t78.5 -22q36 0 72 16t67 37t54 42t34 32zM1061 55q-12 -5 -44 -18.5t-71.5 -27t-80 -24t-70.5 -10.5
q-37 0 -62.5 9t-42 27t-25.5 44t-12 60q-23 -22 -54 -46.5t-68.5 -45.5t-80 -34.5t-88.5 -13.5q-60 0 -105.5 17t-78.5 45.5t-54.5 66t-34.5 78t-18 82t-5 78.5q0 79 17 159.5t50.5 155t83.5 139.5t115.5 113t146 75.5t176.5 27.5q28 0 55.5 -6.5t51.5 -17t44 -23.5t34 -27
l30 49h140q-5 -12 -11 -28.5t-12 -33.5t-10.5 -32t-5.5 -23q-7 -27 -20 -81.5t-27.5 -122.5t-30 -142.5t-27.5 -141t-20 -118t-8 -74.5q0 -54 23 -74t65 -20q10 0 29.5 4.5t40.5 10.5t39 11t26 7v-74zM917 1128l-168 189l-246 -189h-143l338 347h161l201 -347h-143z
M1184 1815q-22 -45 -50.5 -84.5t-65 -69t-81.5 -46.5t-100 -17q-42 0 -73 13.5t-63 33.5q-13 9 -26 17t-28.5 15t-34 11t-42.5 4q-13 0 -29.5 -7t-32.5 -19.5t-30 -29.5t-22 -38h-109q21 45 49.5 84.5t64.5 69t81 46.5t100 17q42 0 73.5 -13.5t63.5 -35.5q26 -15 55 -30
t76 -15q14 0 30.5 7t32.5 19.5t29.5 29.5t22.5 38h109z" />
    <glyph glyph-name="uni1EAB.VN" horiz-adv-x="1067" 
d="M760 803q1 5 -7.5 23t-20.5 37.5t-25.5 34.5t-22.5 15q-78 0 -139.5 -25.5t-107.5 -69t-78.5 -100.5t-52.5 -119t-29 -125t-9 -120q0 -43 7 -86t24.5 -78t48 -57t78.5 -22q36 0 72 16t67 37t54 42t34 32zM1061 55q-12 -5 -44 -18.5t-71.5 -27t-80 -24t-70.5 -10.5
q-37 0 -62.5 9t-42 27t-25.5 44t-12 60q-23 -22 -54 -46.5t-68.5 -45.5t-80 -34.5t-88.5 -13.5q-60 0 -105.5 17t-78.5 45.5t-54.5 66t-34.5 78t-18 82t-5 78.5q0 79 17 159.5t50.5 155t83.5 139.5t115.5 113t146 75.5t176.5 27.5q28 0 55.5 -6.5t51.5 -17t44 -23.5t34 -27
l30 49h140q-5 -12 -11 -28.5t-12 -33.5t-10.5 -32t-5.5 -23q-7 -27 -20 -81.5t-27.5 -122.5t-30 -142.5t-27.5 -141t-20 -118t-8 -74.5q0 -54 23 -74t65 -20q10 0 29.5 4.5t40.5 10.5t39 11t26 7v-74zM937 1128l-170 189l-243 -189h-146l340 347h162l201 -347h-144z
M1233 1752q-21 -45 -49 -84.5t-64 -69t-81.5 -46.5t-100.5 -17q-42 0 -73.5 13.5t-63.5 33.5q-12 9 -25 17t-28 15t-33.5 11t-42.5 4q-14 0 -30.5 -7t-33 -19.5t-30.5 -29.5t-23 -38h-106q21 45 48.5 84.5t64 69t81.5 46.5t101 17q42 0 73.5 -13.5t63.5 -33.5q26 -17 55 -32
t76 -15q13 0 29.5 7t32.5 19.5t30 29.5t23 38h106z" />
    <glyph glyph-name="uni1EAB.2StorySItal.VN" horiz-adv-x="1004" 
d="M659 535q-113 -26 -197 -56t-140 -67t-83.5 -82t-27.5 -101q0 -27 8.5 -50t23.5 -40t35.5 -27t45.5 -10q37 0 80 13.5t82 31t69 33.5t39 21zM963 45q-41 -26 -99 -48t-123 -22q-46 0 -76.5 13.5t-49 33.5t-26 44t-7.5 45q-18 -11 -55 -33.5t-84.5 -45.5t-101 -40
t-103.5 -17t-91.5 16t-71 45t-45.5 70t-16 91q0 53 14 96.5t40.5 78.5t63.5 63.5t83 51.5q54 27 111 46.5t115.5 35.5t118 29t118.5 27q1 7 5 24.5t7.5 39.5t6.5 45.5t3 43.5q0 29 -6 52.5t-21.5 39.5t-43 24.5t-70.5 8.5q-25 0 -49.5 -4t-45.5 -9.5t-36 -11t-22 -8.5
l-33 -172l-137 -2q-35 0 -53.5 13t-18.5 39q0 54 36 102t99.5 84t149.5 57t186 21q54 0 100 -11.5t80.5 -36t54 -63.5t19.5 -94q0 -16 -5 -51.5t-12.5 -82.5t-18 -102.5t-20.5 -110.5q-25 -129 -55 -284q-8 -38 10 -66t56 -28q7 0 23 3.5t34 9.5t35 13t27 13v-76zM861 1128
l-170 189l-243 -189h-146l340 347h162l201 -347h-144zM1157 1752q-21 -45 -49 -84.5t-64 -69t-81.5 -46.5t-100.5 -17q-42 0 -73.5 13.5t-63.5 33.5q-12 9 -25 17t-28 15t-33.5 11t-42.5 4q-14 0 -30.5 -7t-33 -19.5t-30.5 -29.5t-23 -38h-106q21 45 48.5 84.5t64 69
t81.5 46.5t101 17q42 0 73.5 -13.5t63.5 -33.5q26 -17 55 -32t76 -15q13 0 29.5 7t32.5 19.5t30 29.5t23 38h106z" />
    <glyph glyph-name="uni1EAB.2StorySItal" horiz-adv-x="1004" 
d="M659 535q-113 -26 -197 -56t-140 -67t-83.5 -82t-27.5 -101q0 -27 8.5 -50t23.5 -40t35.5 -27t45.5 -10q37 0 80 13.5t82 31t69 33.5t39 21zM963 45q-41 -26 -99 -48t-123 -22q-46 0 -76.5 13.5t-49 33.5t-26 44t-7.5 45q-18 -11 -55 -33.5t-84.5 -45.5t-101 -40
t-103.5 -17t-91.5 16t-71 45t-45.5 70t-16 91q0 53 14 96.5t40.5 78.5t63.5 63.5t83 51.5q54 27 111 46.5t115.5 35.5t118 29t118.5 27q1 7 5 24.5t7.5 39.5t6.5 45.5t3 43.5q0 29 -6 52.5t-21.5 39.5t-43 24.5t-70.5 8.5q-25 0 -49.5 -4t-45.5 -9.5t-36 -11t-22 -8.5
l-33 -172l-137 -2q-35 0 -53.5 13t-18.5 39q0 54 36 102t99.5 84t149.5 57t186 21q54 0 100 -11.5t80.5 -36t54 -63.5t19.5 -94q0 -16 -5 -51.5t-12.5 -82.5t-18 -102.5t-20.5 -110.5q-25 -129 -55 -284q-8 -38 10 -66t56 -28q7 0 23 3.5t34 9.5t35 13t27 13v-76zM841 1128
l-168 189l-246 -189h-143l338 347h161l201 -347h-143zM1108 1815q-22 -45 -50.5 -84.5t-65 -69t-81.5 -46.5t-100 -17q-42 0 -73 13.5t-63 33.5q-13 9 -26 17t-28.5 15t-34 11t-42.5 4q-13 0 -29.5 -7t-32.5 -19.5t-30 -29.5t-22 -38h-109q21 45 49.5 84.5t64.5 69t81 46.5
t100 17q42 0 73.5 -13.5t63.5 -35.5q26 -15 55 -30t76 -15q14 0 30.5 7t32.5 19.5t29.5 29.5t22.5 38h109z" />
    <glyph glyph-name="uni1EA9" unicode="&#x1ea9;" horiz-adv-x="1067" 
d="M760 803q1 5 -7.5 23t-20.5 37.5t-25.5 34.5t-22.5 15q-78 0 -139.5 -25.5t-107.5 -69t-78.5 -100.5t-52.5 -119t-29 -125t-9 -120q0 -43 7 -86t24.5 -78t48 -57t78.5 -22q36 0 72 16t67 37t54 42t34 32zM1061 55q-12 -5 -44 -18.5t-71.5 -27t-80 -24t-70.5 -10.5
q-37 0 -62.5 9t-42 27t-25.5 44t-12 60q-23 -22 -54 -46.5t-68.5 -45.5t-80 -34.5t-88.5 -13.5q-60 0 -105.5 17t-78.5 45.5t-54.5 66t-34.5 78t-18 82t-5 78.5q0 79 17 159.5t50.5 155t83.5 139.5t115.5 113t146 75.5t176.5 27.5q28 0 55.5 -6.5t51.5 -17t44 -23.5t34 -27
l30 49h140q-5 -12 -11 -28.5t-12 -33.5t-10.5 -32t-5.5 -23q-7 -27 -20 -81.5t-27.5 -122.5t-30 -142.5t-27.5 -141t-20 -118t-8 -74.5q0 -54 23 -74t65 -20q10 0 29.5 4.5t40.5 10.5t39 11t26 7v-74zM917 1128l-168 189l-246 -189h-143l338 347h161l201 -347h-143z
M968 1825q0 -36 -14.5 -65t-38.5 -51.5t-53.5 -38.5t-59.5 -27l-23 -115h-70l31 152q27 7 51 17.5t42.5 27t29 39t10.5 53.5q0 11 -2 23t-7.5 22t-14.5 16.5t-23 6.5q-17 0 -29 -8.5t-21 -21t-16 -27.5t-14 -27q-9 -6 -19.5 -10.5t-23.5 -4.5q-21 0 -32 14t-11 34
q0 27 19.5 48t47 35.5t57 22.5t50.5 8q57 0 95.5 -32t38.5 -91z" />
    <glyph glyph-name="uni1EA9.VN" horiz-adv-x="1067" 
d="M760 803q1 5 -7.5 23t-20.5 37.5t-25.5 34.5t-22.5 15q-78 0 -139.5 -25.5t-107.5 -69t-78.5 -100.5t-52.5 -119t-29 -125t-9 -120q0 -43 7 -86t24.5 -78t48 -57t78.5 -22q36 0 72 16t67 37t54 42t34 32zM1061 55q-12 -5 -44 -18.5t-71.5 -27t-80 -24t-70.5 -10.5
q-37 0 -62.5 9t-42 27t-25.5 44t-12 60q-23 -22 -54 -46.5t-68.5 -45.5t-80 -34.5t-88.5 -13.5q-60 0 -105.5 17t-78.5 45.5t-54.5 66t-34.5 78t-18 82t-5 78.5q0 79 17 159.5t50.5 155t83.5 139.5t115.5 113t146 75.5t176.5 27.5q28 0 55.5 -6.5t51.5 -17t44 -23.5t34 -27
l30 49h140q-5 -12 -11 -28.5t-12 -33.5t-10.5 -32t-5.5 -23q-7 -27 -20 -81.5t-27.5 -122.5t-30 -142.5t-27.5 -141t-20 -118t-8 -74.5q0 -54 23 -74t65 -20q10 0 29.5 4.5t40.5 10.5t39 11t26 7v-74zM914 1128l-168 189l-245 -189h-144l338 347h162l201 -347h-144z
M1263 1608q0 -37 -15 -66.5t-39.5 -52t-55 -39t-60.5 -27.5l-23 -98h-68l23 133q28 7 53 18.5t44 28t30.5 40t11.5 54.5q0 11 -2.5 23t-8 22t-14.5 16.5t-22 6.5q-19 0 -31.5 -7.5t-21.5 -19.5t-15.5 -27t-13.5 -30q-11 -6 -24 -10t-25 -4q-41 0 -41 41q0 29 19.5 52
t48 38.5t59.5 24t55 8.5q59 0 97.5 -32.5t38.5 -92.5z" />
    <glyph glyph-name="uni1EA9.2StorySItal" horiz-adv-x="1004" 
d="M659 535q-113 -26 -197 -56t-140 -67t-83.5 -82t-27.5 -101q0 -27 8.5 -50t23.5 -40t35.5 -27t45.5 -10q37 0 80 13.5t82 31t69 33.5t39 21zM963 45q-41 -26 -99 -48t-123 -22q-46 0 -76.5 13.5t-49 33.5t-26 44t-7.5 45q-18 -11 -55 -33.5t-84.5 -45.5t-101 -40
t-103.5 -17t-91.5 16t-71 45t-45.5 70t-16 91q0 53 14 96.5t40.5 78.5t63.5 63.5t83 51.5q54 27 111 46.5t115.5 35.5t118 29t118.5 27q1 7 5 24.5t7.5 39.5t6.5 45.5t3 43.5q0 29 -6 52.5t-21.5 39.5t-43 24.5t-70.5 8.5q-25 0 -49.5 -4t-45.5 -9.5t-36 -11t-22 -8.5
l-33 -172l-137 -2q-35 0 -53.5 13t-18.5 39q0 54 36 102t99.5 84t149.5 57t186 21q54 0 100 -11.5t80.5 -36t54 -63.5t19.5 -94q0 -16 -5 -51.5t-12.5 -82.5t-18 -102.5t-20.5 -110.5q-25 -129 -55 -284q-8 -38 10 -66t56 -28q7 0 23 3.5t34 9.5t35 13t27 13v-76zM841 1128
l-168 189l-246 -189h-143l338 347h161l201 -347h-143zM892 1825q0 -36 -14.5 -65t-38.5 -51.5t-53.5 -38.5t-59.5 -27l-23 -115h-70l31 152q27 7 51 17.5t42.5 27t29 39t10.5 53.5q0 11 -2 23t-7.5 22t-14.5 16.5t-23 6.5q-17 0 -29 -8.5t-21 -21t-16 -27.5t-14 -27
q-9 -6 -19.5 -10.5t-23.5 -4.5q-21 0 -32 14t-11 34q0 27 19.5 48t47 35.5t57 22.5t50.5 8q57 0 95.5 -32t38.5 -91z" />
    <glyph glyph-name="uni1EA9.2StorySItal.VN" horiz-adv-x="1004" 
d="M659 535q-113 -26 -197 -56t-140 -67t-83.5 -82t-27.5 -101q0 -27 8.5 -50t23.5 -40t35.5 -27t45.5 -10q37 0 80 13.5t82 31t69 33.5t39 21zM963 45q-41 -26 -99 -48t-123 -22q-46 0 -76.5 13.5t-49 33.5t-26 44t-7.5 45q-18 -11 -55 -33.5t-84.5 -45.5t-101 -40
t-103.5 -17t-91.5 16t-71 45t-45.5 70t-16 91q0 53 14 96.5t40.5 78.5t63.5 63.5t83 51.5q54 27 111 46.5t115.5 35.5t118 29t118.5 27q1 7 5 24.5t7.5 39.5t6.5 45.5t3 43.5q0 29 -6 52.5t-21.5 39.5t-43 24.5t-70.5 8.5q-25 0 -49.5 -4t-45.5 -9.5t-36 -11t-22 -8.5
l-33 -172l-137 -2q-35 0 -53.5 13t-18.5 39q0 54 36 102t99.5 84t149.5 57t186 21q54 0 100 -11.5t80.5 -36t54 -63.5t19.5 -94q0 -16 -5 -51.5t-12.5 -82.5t-18 -102.5t-20.5 -110.5q-25 -129 -55 -284q-8 -38 10 -66t56 -28q7 0 23 3.5t34 9.5t35 13t27 13v-76zM838 1128
l-168 189l-245 -189h-144l338 347h162l201 -347h-144zM1187 1608q0 -37 -15 -66.5t-39.5 -52t-55 -39t-60.5 -27.5l-23 -98h-68l23 133q28 7 53 18.5t44 28t30.5 40t11.5 54.5q0 11 -2.5 23t-8 22t-14.5 16.5t-22 6.5q-19 0 -31.5 -7.5t-21.5 -19.5t-15.5 -27t-13.5 -30
q-11 -6 -24 -10t-25 -4q-41 0 -41 41q0 29 19.5 52t48 38.5t59.5 24t55 8.5q59 0 97.5 -32.5t38.5 -92.5z" />
    <glyph glyph-name="uni0203" unicode="&#x203;" horiz-adv-x="1067" 
d="M760 803q1 5 -7.5 23t-20.5 37.5t-25.5 34.5t-22.5 15q-78 0 -139.5 -25.5t-107.5 -69t-78.5 -100.5t-52.5 -119t-29 -125t-9 -120q0 -43 7 -86t24.5 -78t48 -57t78.5 -22q36 0 72 16t67 37t54 42t34 32zM1061 55q-12 -5 -44 -18.5t-71.5 -27t-80 -24t-70.5 -10.5
q-37 0 -62.5 9t-42 27t-25.5 44t-12 60q-23 -22 -54 -46.5t-68.5 -45.5t-80 -34.5t-88.5 -13.5q-60 0 -105.5 17t-78.5 45.5t-54.5 66t-34.5 78t-18 82t-5 78.5q0 79 17 159.5t50.5 155t83.5 139.5t115.5 113t146 75.5t176.5 27.5q28 0 55.5 -6.5t51.5 -17t44 -23.5t34 -27
l30 49h140q-5 -12 -11 -28.5t-12 -33.5t-10.5 -32t-5.5 -23q-7 -27 -20 -81.5t-27.5 -122.5t-30 -142.5t-27.5 -141t-20 -118t-8 -74.5q0 -54 23 -74t65 -20q10 0 29.5 4.5t40.5 10.5t39 11t26 7v-74zM1016 1186q0 -14 -0.5 -29t-3.5 -29h-88q-1 42 -15.5 71t-39 47.5
t-57 27t-68.5 8.5t-73 -8.5t-70 -27t-60 -47.5t-45 -71h-88q11 52 40 105t75 95t107 68.5t136 26.5q65 0 112.5 -20t78 -53t45 -76t14.5 -88z" />
    <glyph glyph-name="abreve" unicode="&#x103;" horiz-adv-x="1067" 
d="M760 803q1 5 -7.5 23t-20.5 37.5t-25.5 34.5t-22.5 15q-78 0 -139.5 -25.5t-107.5 -69t-78.5 -100.5t-52.5 -119t-29 -125t-9 -120q0 -43 7 -86t24.5 -78t48 -57t78.5 -22q36 0 72 16t67 37t54 42t34 32zM1061 55q-12 -5 -44 -18.5t-71.5 -27t-80 -24t-70.5 -10.5
q-37 0 -62.5 9t-42 27t-25.5 44t-12 60q-23 -22 -54 -46.5t-68.5 -45.5t-80 -34.5t-88.5 -13.5q-60 0 -105.5 17t-78.5 45.5t-54.5 66t-34.5 78t-18 82t-5 78.5q0 79 17 159.5t50.5 155t83.5 139.5t115.5 113t146 75.5t176.5 27.5q28 0 55.5 -6.5t51.5 -17t44 -23.5t34 -27
l30 49h140q-5 -12 -11 -28.5t-12 -33.5t-10.5 -32t-5.5 -23q-7 -27 -20 -81.5t-27.5 -122.5t-30 -142.5t-27.5 -141t-20 -118t-8 -74.5q0 -54 23 -74t65 -20q10 0 29.5 4.5t40.5 10.5t39 11t26 7v-74zM1088 1423q-12 -52 -41.5 -104.5t-76 -95t-110 -69t-144.5 -26.5
q-73 0 -124 21t-82.5 55t-46 77t-14.5 87q0 12 1 26t3 29h107q2 -45 18.5 -75.5t41.5 -49t55.5 -26.5t60.5 -8q31 0 66.5 8t69 27t63 49.5t49.5 74.5h104z" />
    <glyph glyph-name="uni1EB7" unicode="&#x1eb7;" horiz-adv-x="1067" 
d="M760 803q1 5 -7.5 23t-20.5 37.5t-25.5 34.5t-22.5 15q-78 0 -139.5 -25.5t-107.5 -69t-78.5 -100.5t-52.5 -119t-29 -125t-9 -120q0 -43 7 -86t24.5 -78t48 -57t78.5 -22q36 0 72 16t67 37t54 42t34 32zM1061 55q-12 -5 -44 -18.5t-71.5 -27t-80 -24t-70.5 -10.5
q-37 0 -62.5 9t-42 27t-25.5 44t-12 60q-23 -22 -54 -46.5t-68.5 -45.5t-80 -34.5t-88.5 -13.5q-60 0 -105.5 17t-78.5 45.5t-54.5 66t-34.5 78t-18 82t-5 78.5q0 79 17 159.5t50.5 155t83.5 139.5t115.5 113t146 75.5t176.5 27.5q28 0 55.5 -6.5t51.5 -17t44 -23.5t34 -27
l30 49h140q-5 -12 -11 -28.5t-12 -33.5t-10.5 -32t-5.5 -23q-7 -27 -20 -81.5t-27.5 -122.5t-30 -142.5t-27.5 -141t-20 -118t-8 -74.5q0 -54 23 -74t65 -20q10 0 29.5 4.5t40.5 10.5t39 11t26 7v-74zM536 -293q0 -24 -9 -44.5t-24.5 -36.5t-36 -25t-44.5 -9t-45 9t-36.5 25
t-24.5 36.5t-9 44.5t8.5 45.5t24 38t36.5 26t46 9.5q24 0 44.5 -9.5t36 -25.5t24.5 -37.5t9 -46.5zM1088 1423q-12 -52 -41.5 -104.5t-76 -95t-110 -69t-144.5 -26.5q-73 0 -124 21t-82.5 55t-46 77t-14.5 87q0 12 1 26t3 29h107q2 -45 18.5 -75.5t41.5 -49t55.5 -26.5
t60.5 -8q31 0 66.5 8t69 27t63 49.5t49.5 74.5h104z" />
    <glyph glyph-name="uni1EAF" unicode="&#x1eaf;" horiz-adv-x="1067" 
d="M760 803q1 5 -7.5 23t-20.5 37.5t-25.5 34.5t-22.5 15q-78 0 -139.5 -25.5t-107.5 -69t-78.5 -100.5t-52.5 -119t-29 -125t-9 -120q0 -43 7 -86t24.5 -78t48 -57t78.5 -22q36 0 72 16t67 37t54 42t34 32zM1061 55q-12 -5 -44 -18.5t-71.5 -27t-80 -24t-70.5 -10.5
q-37 0 -62.5 9t-42 27t-25.5 44t-12 60q-23 -22 -54 -46.5t-68.5 -45.5t-80 -34.5t-88.5 -13.5q-60 0 -105.5 17t-78.5 45.5t-54.5 66t-34.5 78t-18 82t-5 78.5q0 79 17 159.5t50.5 155t83.5 139.5t115.5 113t146 75.5t176.5 27.5q28 0 55.5 -6.5t51.5 -17t44 -23.5t34 -27
l30 49h140q-5 -12 -11 -28.5t-12 -33.5t-10.5 -32t-5.5 -23q-7 -27 -20 -81.5t-27.5 -122.5t-30 -142.5t-27.5 -141t-20 -118t-8 -74.5q0 -54 23 -74t65 -20q10 0 29.5 4.5t40.5 10.5t39 11t26 7v-74zM1088 1423q-12 -52 -41.5 -104.5t-76 -95t-110 -69t-144.5 -26.5
q-73 0 -124 21t-82.5 55t-46 77t-14.5 87q0 12 1 26t3 29h107q2 -45 18.5 -75.5t41.5 -49t55.5 -26.5t60.5 -8q31 0 66.5 8t69 27t63 49.5t49.5 74.5h104zM1087 1811q0 -29 -13 -48.5t-36 -35.5l-307 -199h-144l279 320q10 12 21 21t24.5 16t31 10.5t40.5 3.5q27 0 46.5 -8
t32 -20.5t19 -28.5t6.5 -31z" />
    <glyph glyph-name="uni1EAF.VN" horiz-adv-x="1067" 
d="M760 803q1 5 -7.5 23t-20.5 37.5t-25.5 34.5t-22.5 15q-78 0 -139.5 -25.5t-107.5 -69t-78.5 -100.5t-52.5 -119t-29 -125t-9 -120q0 -43 7 -86t24.5 -78t48 -57t78.5 -22q36 0 72 16t67 37t54 42t34 32zM1061 55q-12 -5 -44 -18.5t-71.5 -27t-80 -24t-70.5 -10.5
q-37 0 -62.5 9t-42 27t-25.5 44t-12 60q-23 -22 -54 -46.5t-68.5 -45.5t-80 -34.5t-88.5 -13.5q-60 0 -105.5 17t-78.5 45.5t-54.5 66t-34.5 78t-18 82t-5 78.5q0 79 17 159.5t50.5 155t83.5 139.5t115.5 113t146 75.5t176.5 27.5q28 0 55.5 -6.5t51.5 -17t44 -23.5t34 -27
l30 49h140q-5 -12 -11 -28.5t-12 -33.5t-10.5 -32t-5.5 -23q-7 -27 -20 -81.5t-27.5 -122.5t-30 -142.5t-27.5 -141t-20 -118t-8 -74.5q0 -54 23 -74t65 -20q10 0 29.5 4.5t40.5 10.5t39 11t26 7v-74zM1088 1423q-12 -52 -41.5 -104.5t-76 -95t-110 -69t-144.5 -26.5
q-73 0 -124 21t-82.5 55t-46 77t-14.5 87q0 12 1 26t3 29h107q2 -45 18.5 -75.5t41.5 -49t55.5 -26.5t60.5 -8q31 0 66.5 8t69 27t63 49.5t49.5 74.5h104zM1206 1701q0 -29 -13 -48.5t-36 -35.5l-307 -199h-144l279 320q10 12 21 21t24.5 16t31 10.5t40.5 3.5q27 0 46.5 -8
t32 -20.5t19 -28.5t6.5 -31z" />
    <glyph glyph-name="uni1EAF.2StorySItal.VN" horiz-adv-x="1004" 
d="M659 535q-113 -26 -197 -56t-140 -67t-83.5 -82t-27.5 -101q0 -27 8.5 -50t23.5 -40t35.5 -27t45.5 -10q37 0 80 13.5t82 31t69 33.5t39 21zM963 45q-41 -26 -99 -48t-123 -22q-46 0 -76.5 13.5t-49 33.5t-26 44t-7.5 45q-18 -11 -55 -33.5t-84.5 -45.5t-101 -40
t-103.5 -17t-91.5 16t-71 45t-45.5 70t-16 91q0 53 14 96.5t40.5 78.5t63.5 63.5t83 51.5q54 27 111 46.5t115.5 35.5t118 29t118.5 27q1 7 5 24.5t7.5 39.5t6.5 45.5t3 43.5q0 29 -6 52.5t-21.5 39.5t-43 24.5t-70.5 8.5q-25 0 -49.5 -4t-45.5 -9.5t-36 -11t-22 -8.5
l-33 -172l-137 -2q-35 0 -53.5 13t-18.5 39q0 54 36 102t99.5 84t149.5 57t186 21q54 0 100 -11.5t80.5 -36t54 -63.5t19.5 -94q0 -16 -5 -51.5t-12.5 -82.5t-18 -102.5t-20.5 -110.5q-25 -129 -55 -284q-8 -38 10 -66t56 -28q7 0 23 3.5t34 9.5t35 13t27 13v-76zM1012 1423
q-12 -52 -41.5 -104.5t-76 -95t-110 -69t-144.5 -26.5q-73 0 -124 21t-82.5 55t-46 77t-14.5 87q0 12 1 26t3 29h107q2 -45 18.5 -75.5t41.5 -49t55.5 -26.5t60.5 -8q31 0 66.5 8t69 27t63 49.5t49.5 74.5h104zM1130 1701q0 -29 -13 -48.5t-36 -35.5l-307 -199h-144l279 320
q10 12 21 21t24.5 16t31 10.5t40.5 3.5q27 0 46.5 -8t32 -20.5t19 -28.5t6.5 -31z" />
    <glyph glyph-name="uni1EB1" unicode="&#x1eb1;" horiz-adv-x="1067" 
d="M760 803q1 5 -7.5 23t-20.5 37.5t-25.5 34.5t-22.5 15q-78 0 -139.5 -25.5t-107.5 -69t-78.5 -100.5t-52.5 -119t-29 -125t-9 -120q0 -43 7 -86t24.5 -78t48 -57t78.5 -22q36 0 72 16t67 37t54 42t34 32zM1061 55q-12 -5 -44 -18.5t-71.5 -27t-80 -24t-70.5 -10.5
q-37 0 -62.5 9t-42 27t-25.5 44t-12 60q-23 -22 -54 -46.5t-68.5 -45.5t-80 -34.5t-88.5 -13.5q-60 0 -105.5 17t-78.5 45.5t-54.5 66t-34.5 78t-18 82t-5 78.5q0 79 17 159.5t50.5 155t83.5 139.5t115.5 113t146 75.5t176.5 27.5q28 0 55.5 -6.5t51.5 -17t44 -23.5t34 -27
l30 49h140q-5 -12 -11 -28.5t-12 -33.5t-10.5 -32t-5.5 -23q-7 -27 -20 -81.5t-27.5 -122.5t-30 -142.5t-27.5 -141t-20 -118t-8 -74.5q0 -54 23 -74t65 -20q10 0 29.5 4.5t40.5 10.5t39 11t26 7v-74zM1088 1423q-12 -52 -41.5 -104.5t-76 -95t-110 -69t-144.5 -26.5
q-73 0 -124 21t-82.5 55t-46 77t-14.5 87q0 12 1 26t3 29h107q2 -45 18.5 -75.5t41.5 -49t55.5 -26.5t60.5 -8q31 0 66.5 8t69 27t63 49.5t49.5 74.5h104zM830 1528l-297 195q-21 14 -34 34.5t-13 51.5q0 15 4.5 31t15 29t28 21.5t44.5 8.5q22 0 37.5 -4t27.5 -10.5
t21.5 -16t18.5 -20.5l274 -320h-127z" />
    <glyph glyph-name="uni1EB1.VN" horiz-adv-x="1067" 
d="M760 803q1 5 -7.5 23t-20.5 37.5t-25.5 34.5t-22.5 15q-78 0 -139.5 -25.5t-107.5 -69t-78.5 -100.5t-52.5 -119t-29 -125t-9 -120q0 -43 7 -86t24.5 -78t48 -57t78.5 -22q36 0 72 16t67 37t54 42t34 32zM1061 55q-12 -5 -44 -18.5t-71.5 -27t-80 -24t-70.5 -10.5
q-37 0 -62.5 9t-42 27t-25.5 44t-12 60q-23 -22 -54 -46.5t-68.5 -45.5t-80 -34.5t-88.5 -13.5q-60 0 -105.5 17t-78.5 45.5t-54.5 66t-34.5 78t-18 82t-5 78.5q0 79 17 159.5t50.5 155t83.5 139.5t115.5 113t146 75.5t176.5 27.5q28 0 55.5 -6.5t51.5 -17t44 -23.5t34 -27
l30 49h140q-5 -12 -11 -28.5t-12 -33.5t-10.5 -32t-5.5 -23q-7 -27 -20 -81.5t-27.5 -122.5t-30 -142.5t-27.5 -141t-20 -118t-8 -74.5q0 -54 23 -74t65 -20q10 0 29.5 4.5t40.5 10.5t39 11t26 7v-74zM1088 1423q-12 -52 -41.5 -104.5t-76 -95t-110 -69t-144.5 -26.5
q-73 0 -124 21t-82.5 55t-46 77t-14.5 87q0 12 1 26t3 29h107q2 -45 18.5 -75.5t41.5 -49t55.5 -26.5t60.5 -8q31 0 66.5 8t69 27t63 49.5t49.5 74.5h104zM714 1418l-297 195q-21 14 -34 34.5t-13 51.5q0 15 4.5 31t15 29t28 21.5t44.5 8.5q22 0 37.5 -4t27.5 -10.5
t21.5 -16t18.5 -20.5l274 -320h-127z" />
    <glyph glyph-name="uni1EB1.2StorySItal.VN" horiz-adv-x="1004" 
d="M659 535q-113 -26 -197 -56t-140 -67t-83.5 -82t-27.5 -101q0 -27 8.5 -50t23.5 -40t35.5 -27t45.5 -10q37 0 80 13.5t82 31t69 33.5t39 21zM963 45q-41 -26 -99 -48t-123 -22q-46 0 -76.5 13.5t-49 33.5t-26 44t-7.5 45q-18 -11 -55 -33.5t-84.5 -45.5t-101 -40
t-103.5 -17t-91.5 16t-71 45t-45.5 70t-16 91q0 53 14 96.5t40.5 78.5t63.5 63.5t83 51.5q54 27 111 46.5t115.5 35.5t118 29t118.5 27q1 7 5 24.5t7.5 39.5t6.5 45.5t3 43.5q0 29 -6 52.5t-21.5 39.5t-43 24.5t-70.5 8.5q-25 0 -49.5 -4t-45.5 -9.5t-36 -11t-22 -8.5
l-33 -172l-137 -2q-35 0 -53.5 13t-18.5 39q0 54 36 102t99.5 84t149.5 57t186 21q54 0 100 -11.5t80.5 -36t54 -63.5t19.5 -94q0 -16 -5 -51.5t-12.5 -82.5t-18 -102.5t-20.5 -110.5q-25 -129 -55 -284q-8 -38 10 -66t56 -28q7 0 23 3.5t34 9.5t35 13t27 13v-76zM1012 1423
q-12 -52 -41.5 -104.5t-76 -95t-110 -69t-144.5 -26.5q-73 0 -124 21t-82.5 55t-46 77t-14.5 87q0 12 1 26t3 29h107q2 -45 18.5 -75.5t41.5 -49t55.5 -26.5t60.5 -8q31 0 66.5 8t69 27t63 49.5t49.5 74.5h104zM638 1418l-297 195q-21 14 -34 34.5t-13 51.5q0 15 4.5 31
t15 29t28 21.5t44.5 8.5q22 0 37.5 -4t27.5 -10.5t21.5 -16t18.5 -20.5l274 -320h-127z" />
    <glyph glyph-name="uni1EB5" unicode="&#x1eb5;" horiz-adv-x="1067" 
d="M760 803q1 5 -7.5 23t-20.5 37.5t-25.5 34.5t-22.5 15q-78 0 -139.5 -25.5t-107.5 -69t-78.5 -100.5t-52.5 -119t-29 -125t-9 -120q0 -43 7 -86t24.5 -78t48 -57t78.5 -22q36 0 72 16t67 37t54 42t34 32zM1061 55q-12 -5 -44 -18.5t-71.5 -27t-80 -24t-70.5 -10.5
q-37 0 -62.5 9t-42 27t-25.5 44t-12 60q-23 -22 -54 -46.5t-68.5 -45.5t-80 -34.5t-88.5 -13.5q-60 0 -105.5 17t-78.5 45.5t-54.5 66t-34.5 78t-18 82t-5 78.5q0 79 17 159.5t50.5 155t83.5 139.5t115.5 113t146 75.5t176.5 27.5q28 0 55.5 -6.5t51.5 -17t44 -23.5t34 -27
l30 49h140q-5 -12 -11 -28.5t-12 -33.5t-10.5 -32t-5.5 -23q-7 -27 -20 -81.5t-27.5 -122.5t-30 -142.5t-27.5 -141t-20 -118t-8 -74.5q0 -54 23 -74t65 -20q10 0 29.5 4.5t40.5 10.5t39 11t26 7v-74zM1088 1423q-12 -52 -41.5 -104.5t-76 -95t-110 -69t-144.5 -26.5
q-73 0 -124 21t-82.5 55t-46 77t-14.5 87q0 12 1 26t3 29h107q2 -45 18.5 -75.5t41.5 -49t55.5 -26.5t60.5 -8q31 0 66.5 8t69 27t63 49.5t49.5 74.5h104zM1184 1815q-22 -45 -50.5 -84.5t-65 -69t-81.5 -46.5t-100 -17q-42 0 -73 13.5t-63 33.5q-13 9 -26 17t-28.5 15
t-34 11t-42.5 4q-13 0 -29.5 -7t-32.5 -19.5t-30 -29.5t-22 -38h-109q21 45 49.5 84.5t64.5 69t81 46.5t100 17q42 0 73.5 -13.5t63.5 -35.5q26 -15 55 -30t76 -15q14 0 30.5 7t32.5 19.5t29.5 29.5t22.5 38h109z" />
    <glyph glyph-name="uni1EB5.VN" horiz-adv-x="1067" 
d="M760 803q1 5 -7.5 23t-20.5 37.5t-25.5 34.5t-22.5 15q-78 0 -139.5 -25.5t-107.5 -69t-78.5 -100.5t-52.5 -119t-29 -125t-9 -120q0 -43 7 -86t24.5 -78t48 -57t78.5 -22q36 0 72 16t67 37t54 42t34 32zM1061 55q-12 -5 -44 -18.5t-71.5 -27t-80 -24t-70.5 -10.5
q-37 0 -62.5 9t-42 27t-25.5 44t-12 60q-23 -22 -54 -46.5t-68.5 -45.5t-80 -34.5t-88.5 -13.5q-60 0 -105.5 17t-78.5 45.5t-54.5 66t-34.5 78t-18 82t-5 78.5q0 79 17 159.5t50.5 155t83.5 139.5t115.5 113t146 75.5t176.5 27.5q28 0 55.5 -6.5t51.5 -17t44 -23.5t34 -27
l30 49h140q-5 -12 -11 -28.5t-12 -33.5t-10.5 -32t-5.5 -23q-7 -27 -20 -81.5t-27.5 -122.5t-30 -142.5t-27.5 -141t-20 -118t-8 -74.5q0 -54 23 -74t65 -20q10 0 29.5 4.5t40.5 10.5t39 11t26 7v-74zM1091 1423q-12 -52 -41.5 -104.5t-76 -95t-110 -69t-144.5 -26.5
q-73 0 -124 21t-82.5 55t-46 77t-14.5 87q0 12 1 26t3 29h107q2 -45 18.5 -75.5t41.5 -49t55.5 -26.5t60.5 -8q31 0 66.5 8t69 27t63 49.5t49.5 74.5h104zM1205 1701q-21 -45 -48.5 -84.5t-64 -69t-82 -46.5t-100.5 -17q-42 0 -73 12.5t-62 34.5q-13 8 -26.5 16.5t-28.5 15
t-33.5 11t-42.5 4.5q-13 0 -30 -7t-33.5 -19.5t-30.5 -29.5t-23 -38h-106q21 43 49 82.5t64 69.5t81 47.5t101 17.5q42 0 73.5 -14t63.5 -35q26 -17 54.5 -31t76.5 -14q14 0 30.5 6.5t32.5 18.5t29.5 29.5t22.5 39.5h106z" />
    <glyph glyph-name="uni1EB5.2StorySItal.VN" horiz-adv-x="1004" 
d="M659 535q-113 -26 -197 -56t-140 -67t-83.5 -82t-27.5 -101q0 -27 8.5 -50t23.5 -40t35.5 -27t45.5 -10q37 0 80 13.5t82 31t69 33.5t39 21zM963 45q-41 -26 -99 -48t-123 -22q-46 0 -76.5 13.5t-49 33.5t-26 44t-7.5 45q-18 -11 -55 -33.5t-84.5 -45.5t-101 -40
t-103.5 -17t-91.5 16t-71 45t-45.5 70t-16 91q0 53 14 96.5t40.5 78.5t63.5 63.5t83 51.5q54 27 111 46.5t115.5 35.5t118 29t118.5 27q1 7 5 24.5t7.5 39.5t6.5 45.5t3 43.5q0 29 -6 52.5t-21.5 39.5t-43 24.5t-70.5 8.5q-25 0 -49.5 -4t-45.5 -9.5t-36 -11t-22 -8.5
l-33 -172l-137 -2q-35 0 -53.5 13t-18.5 39q0 54 36 102t99.5 84t149.5 57t186 21q54 0 100 -11.5t80.5 -36t54 -63.5t19.5 -94q0 -16 -5 -51.5t-12.5 -82.5t-18 -102.5t-20.5 -110.5q-25 -129 -55 -284q-8 -38 10 -66t56 -28q7 0 23 3.5t34 9.5t35 13t27 13v-76zM1015 1423
q-12 -52 -41.5 -104.5t-76 -95t-110 -69t-144.5 -26.5q-73 0 -124 21t-82.5 55t-46 77t-14.5 87q0 12 1 26t3 29h107q2 -45 18.5 -75.5t41.5 -49t55.5 -26.5t60.5 -8q31 0 66.5 8t69 27t63 49.5t49.5 74.5h104zM1129 1701q-21 -45 -48.5 -84.5t-64 -69t-82 -46.5t-100.5 -17
q-42 0 -73 12.5t-62 34.5q-13 8 -26.5 16.5t-28.5 15t-33.5 11t-42.5 4.5q-13 0 -30 -7t-33.5 -19.5t-30.5 -29.5t-23 -38h-106q21 43 49 82.5t64 69.5t81 47.5t101 17.5q42 0 73.5 -14t63.5 -35q26 -17 54.5 -31t76.5 -14q14 0 30.5 6.5t32.5 18.5t29.5 29.5t22.5 39.5h106
z" />
    <glyph glyph-name="uni1EB3" unicode="&#x1eb3;" horiz-adv-x="1067" 
d="M760 803q1 5 -7.5 23t-20.5 37.5t-25.5 34.5t-22.5 15q-78 0 -139.5 -25.5t-107.5 -69t-78.5 -100.5t-52.5 -119t-29 -125t-9 -120q0 -43 7 -86t24.5 -78t48 -57t78.5 -22q36 0 72 16t67 37t54 42t34 32zM1061 55q-12 -5 -44 -18.5t-71.5 -27t-80 -24t-70.5 -10.5
q-37 0 -62.5 9t-42 27t-25.5 44t-12 60q-23 -22 -54 -46.5t-68.5 -45.5t-80 -34.5t-88.5 -13.5q-60 0 -105.5 17t-78.5 45.5t-54.5 66t-34.5 78t-18 82t-5 78.5q0 79 17 159.5t50.5 155t83.5 139.5t115.5 113t146 75.5t176.5 27.5q28 0 55.5 -6.5t51.5 -17t44 -23.5t34 -27
l30 49h140q-5 -12 -11 -28.5t-12 -33.5t-10.5 -32t-5.5 -23q-7 -27 -20 -81.5t-27.5 -122.5t-30 -142.5t-27.5 -141t-20 -118t-8 -74.5q0 -54 23 -74t65 -20q10 0 29.5 4.5t40.5 10.5t39 11t26 7v-74zM1088 1423q-12 -52 -41.5 -104.5t-76 -95t-110 -69t-144.5 -26.5
q-73 0 -124 21t-82.5 55t-46 77t-14.5 87q0 12 1 26t3 29h107q2 -45 18.5 -75.5t41.5 -49t55.5 -26.5t60.5 -8q31 0 66.5 8t69 27t63 49.5t49.5 74.5h104zM968 1825q0 -36 -14.5 -65t-38.5 -51.5t-53.5 -38.5t-59.5 -27l-23 -115h-70l31 152q27 7 51 17.5t42.5 27t29 39
t10.5 53.5q0 11 -2 23t-7.5 22t-14.5 16.5t-23 6.5q-17 0 -29 -8.5t-21 -21t-16 -27.5t-14 -27q-9 -6 -19.5 -10.5t-23.5 -4.5q-21 0 -32 14t-11 34q0 27 19.5 48t47 35.5t57 22.5t50.5 8q57 0 95.5 -32t38.5 -91z" />
    <glyph glyph-name="uni1EB3.VN" horiz-adv-x="1067" 
d="M760 803q1 5 -7.5 23t-20.5 37.5t-25.5 34.5t-22.5 15q-78 0 -139.5 -25.5t-107.5 -69t-78.5 -100.5t-52.5 -119t-29 -125t-9 -120q0 -43 7 -86t24.5 -78t48 -57t78.5 -22q36 0 72 16t67 37t54 42t34 32zM1061 55q-12 -5 -44 -18.5t-71.5 -27t-80 -24t-70.5 -10.5
q-37 0 -62.5 9t-42 27t-25.5 44t-12 60q-23 -22 -54 -46.5t-68.5 -45.5t-80 -34.5t-88.5 -13.5q-60 0 -105.5 17t-78.5 45.5t-54.5 66t-34.5 78t-18 82t-5 78.5q0 79 17 159.5t50.5 155t83.5 139.5t115.5 113t146 75.5t176.5 27.5q28 0 55.5 -6.5t51.5 -17t44 -23.5t34 -27
l30 49h140q-5 -12 -11 -28.5t-12 -33.5t-10.5 -32t-5.5 -23q-7 -27 -20 -81.5t-27.5 -122.5t-30 -142.5t-27.5 -141t-20 -118t-8 -74.5q0 -54 23 -74t65 -20q10 0 29.5 4.5t40.5 10.5t39 11t26 7v-74zM1088 1423q-12 -52 -41.5 -104.5t-76 -95t-110 -69t-144.5 -26.5
q-73 0 -124 21t-82.5 55t-46 77t-14.5 87q0 12 1 26t3 29h107q2 -45 18.5 -75.5t41.5 -49t55.5 -26.5t60.5 -8q31 0 66.5 8t69 27t63 49.5t49.5 74.5h104zM968 1642q0 -36 -14.5 -65t-38.5 -51.5t-53.5 -38.5t-59.5 -27l-23 -115h-70l31 152q27 7 51 17.5t42.5 27t29 39
t10.5 53.5q0 11 -2 23t-7.5 22t-14.5 16.5t-23 6.5q-17 0 -29 -8.5t-21 -21t-16 -27.5t-14 -27q-9 -6 -19.5 -10.5t-23.5 -4.5q-21 0 -32 14t-11 34q0 27 19.5 48t47 35.5t57 22.5t50.5 8q57 0 95.5 -32t38.5 -91z" />
    <glyph glyph-name="uni1EB3.2StorySItal.VN" horiz-adv-x="1004" 
d="M659 535q-113 -26 -197 -56t-140 -67t-83.5 -82t-27.5 -101q0 -27 8.5 -50t23.5 -40t35.5 -27t45.5 -10q37 0 80 13.5t82 31t69 33.5t39 21zM963 45q-41 -26 -99 -48t-123 -22q-46 0 -76.5 13.5t-49 33.5t-26 44t-7.5 45q-18 -11 -55 -33.5t-84.5 -45.5t-101 -40
t-103.5 -17t-91.5 16t-71 45t-45.5 70t-16 91q0 53 14 96.5t40.5 78.5t63.5 63.5t83 51.5q54 27 111 46.5t115.5 35.5t118 29t118.5 27q1 7 5 24.5t7.5 39.5t6.5 45.5t3 43.5q0 29 -6 52.5t-21.5 39.5t-43 24.5t-70.5 8.5q-25 0 -49.5 -4t-45.5 -9.5t-36 -11t-22 -8.5
l-33 -172l-137 -2q-35 0 -53.5 13t-18.5 39q0 54 36 102t99.5 84t149.5 57t186 21q54 0 100 -11.5t80.5 -36t54 -63.5t19.5 -94q0 -16 -5 -51.5t-12.5 -82.5t-18 -102.5t-20.5 -110.5q-25 -129 -55 -284q-8 -38 10 -66t56 -28q7 0 23 3.5t34 9.5t35 13t27 13v-76zM1012 1423
q-12 -52 -41.5 -104.5t-76 -95t-110 -69t-144.5 -26.5q-73 0 -124 21t-82.5 55t-46 77t-14.5 87q0 12 1 26t3 29h107q2 -45 18.5 -75.5t41.5 -49t55.5 -26.5t60.5 -8q31 0 66.5 8t69 27t63 49.5t49.5 74.5h104zM892 1642q0 -36 -14.5 -65t-38.5 -51.5t-53.5 -38.5t-59.5 -27
l-23 -115h-70l31 152q27 7 51 17.5t42.5 27t29 39t10.5 53.5q0 11 -2 23t-7.5 22t-14.5 16.5t-23 6.5q-17 0 -29 -8.5t-21 -21t-16 -27.5t-14 -27q-9 -6 -19.5 -10.5t-23.5 -4.5q-21 0 -32 14t-11 34q0 27 19.5 48t47 35.5t57 22.5t50.5 8q57 0 95.5 -32t38.5 -91z" />
    <glyph glyph-name="uni04D1" unicode="&#x4d1;" horiz-adv-x="1067" 
d="M760 803q1 5 -7.5 23t-20.5 37.5t-25.5 34.5t-22.5 15q-78 0 -139.5 -25.5t-107.5 -69t-78.5 -100.5t-52.5 -119t-29 -125t-9 -120q0 -43 7 -86t24.5 -78t48 -57t78.5 -22q36 0 72 16t67 37t54 42t34 32zM1061 55q-12 -5 -44 -18.5t-71.5 -27t-80 -24t-70.5 -10.5
q-37 0 -62.5 9t-42 27t-25.5 44t-12 60q-23 -22 -54 -46.5t-68.5 -45.5t-80 -34.5t-88.5 -13.5q-60 0 -105.5 17t-78.5 45.5t-54.5 66t-34.5 78t-18 82t-5 78.5q0 79 17 159.5t50.5 155t83.5 139.5t115.5 113t146 75.5t176.5 27.5q28 0 55.5 -6.5t51.5 -17t44 -23.5t34 -27
l30 49h140q-5 -12 -11 -28.5t-12 -33.5t-10.5 -32t-5.5 -23q-7 -27 -20 -81.5t-27.5 -122.5t-30 -142.5t-27.5 -141t-20 -118t-8 -74.5q0 -54 23 -74t65 -20q10 0 29.5 4.5t40.5 10.5t39 11t26 7v-74zM1030 1372q-22 -51 -52 -95.5t-70 -77.5t-91 -52t-115 -19
q-42 0 -84.5 10t-76 31t-55 52.5t-21.5 74.5q0 19 7 39t19.5 36t30.5 26t39 10q7 0 18 -1.5t23 -3.5t22 -5t15 -6l33 -148q14 -12 38.5 -19t49.5 -7q41 0 74 16.5t58 40.5t42 50.5t26 47.5h70z" />
    <glyph glyph-name="uni01CE" unicode="&#x1ce;" horiz-adv-x="1067" 
d="M760 803q1 5 -7.5 23t-20.5 37.5t-25.5 34.5t-22.5 15q-78 0 -139.5 -25.5t-107.5 -69t-78.5 -100.5t-52.5 -119t-29 -125t-9 -120q0 -43 7 -86t24.5 -78t48 -57t78.5 -22q36 0 72 16t67 37t54 42t34 32zM1061 55q-12 -5 -44 -18.5t-71.5 -27t-80 -24t-70.5 -10.5
q-37 0 -62.5 9t-42 27t-25.5 44t-12 60q-23 -22 -54 -46.5t-68.5 -45.5t-80 -34.5t-88.5 -13.5q-60 0 -105.5 17t-78.5 45.5t-54.5 66t-34.5 78t-18 82t-5 78.5q0 79 17 159.5t50.5 155t83.5 139.5t115.5 113t146 75.5t176.5 27.5q28 0 55.5 -6.5t51.5 -17t44 -23.5t34 -27
l30 49h140q-5 -12 -11 -28.5t-12 -33.5t-10.5 -32t-5.5 -23q-7 -27 -20 -81.5t-27.5 -122.5t-30 -142.5t-27.5 -141t-20 -118t-8 -74.5q0 -54 23 -74t65 -20q10 0 29.5 4.5t40.5 10.5t39 11t26 7v-74zM793 1128h-162l-201 347h144l170 -189l243 189h146z" />
    <glyph glyph-name="amacron" unicode="&#x101;" horiz-adv-x="1067" 
d="M760 803q1 5 -7.5 23t-20.5 37.5t-25.5 34.5t-22.5 15q-78 0 -139.5 -25.5t-107.5 -69t-78.5 -100.5t-52.5 -119t-29 -125t-9 -120q0 -43 7 -86t24.5 -78t48 -57t78.5 -22q36 0 72 16t67 37t54 42t34 32zM1061 55q-12 -5 -44 -18.5t-71.5 -27t-80 -24t-70.5 -10.5
q-37 0 -62.5 9t-42 27t-25.5 44t-12 60q-23 -22 -54 -46.5t-68.5 -45.5t-80 -34.5t-88.5 -13.5q-60 0 -105.5 17t-78.5 45.5t-54.5 66t-34.5 78t-18 82t-5 78.5q0 79 17 159.5t50.5 155t83.5 139.5t115.5 113t146 75.5t176.5 27.5q28 0 55.5 -6.5t51.5 -17t44 -23.5t34 -27
l30 49h140q-5 -12 -11 -28.5t-12 -33.5t-10.5 -32t-5.5 -23q-7 -27 -20 -81.5t-27.5 -122.5t-30 -142.5t-27.5 -141t-20 -118t-8 -74.5q0 -54 23 -74t65 -20q10 0 29.5 4.5t40.5 10.5t39 11t26 7v-74zM1035 1200h-620l29 135h617z" />
    <glyph glyph-name="uni04D3" unicode="&#x4d3;" horiz-adv-x="1067" 
d="M760 803q1 5 -7.5 23t-20.5 37.5t-25.5 34.5t-22.5 15q-78 0 -139.5 -25.5t-107.5 -69t-78.5 -100.5t-52.5 -119t-29 -125t-9 -120q0 -43 7 -86t24.5 -78t48 -57t78.5 -22q36 0 72 16t67 37t54 42t34 32zM1061 55q-12 -5 -44 -18.5t-71.5 -27t-80 -24t-70.5 -10.5
q-37 0 -62.5 9t-42 27t-25.5 44t-12 60q-23 -22 -54 -46.5t-68.5 -45.5t-80 -34.5t-88.5 -13.5q-60 0 -105.5 17t-78.5 45.5t-54.5 66t-34.5 78t-18 82t-5 78.5q0 79 17 159.5t50.5 155t83.5 139.5t115.5 113t146 75.5t176.5 27.5q28 0 55.5 -6.5t51.5 -17t44 -23.5t34 -27
l30 49h140q-5 -12 -11 -28.5t-12 -33.5t-10.5 -32t-5.5 -23q-7 -27 -20 -81.5t-27.5 -122.5t-30 -142.5t-27.5 -141t-20 -118t-8 -74.5q0 -54 23 -74t65 -20q10 0 29.5 4.5t40.5 10.5t39 11t26 7v-74zM641 1313q0 -23 -9 -44t-24.5 -37t-36 -25t-43.5 -9q-22 0 -42 9t-35 25
t-24 36t-9 43q0 22 9 42.5t24 36.5t35 25.5t42 9.5q23 0 43.5 -9t36 -24t24.5 -35.5t9 -43.5zM1065 1313q0 -23 -8.5 -44t-23.5 -37t-35.5 -25t-43.5 -9t-43.5 9t-35.5 25t-24 37t-9 44q0 21 9.5 41.5t25 36t36 25t41.5 9.5q23 0 43.5 -9t35.5 -24t23.5 -35.5t8.5 -43.5z
" />
    <glyph glyph-name="uni01DF" unicode="&#x1df;" horiz-adv-x="1067" 
d="M760 803q1 5 -7.5 23t-20.5 37.5t-25.5 34.5t-22.5 15q-78 0 -139.5 -25.5t-107.5 -69t-78.5 -100.5t-52.5 -119t-29 -125t-9 -120q0 -43 7 -86t24.5 -78t48 -57t78.5 -22q36 0 72 16t67 37t54 42t34 32zM1061 55q-12 -5 -44 -18.5t-71.5 -27t-80 -24t-70.5 -10.5
q-37 0 -62.5 9t-42 27t-25.5 44t-12 60q-23 -22 -54 -46.5t-68.5 -45.5t-80 -34.5t-88.5 -13.5q-60 0 -105.5 17t-78.5 45.5t-54.5 66t-34.5 78t-18 82t-5 78.5q0 79 17 159.5t50.5 155t83.5 139.5t115.5 113t146 75.5t176.5 27.5q28 0 55.5 -6.5t51.5 -17t44 -23.5t34 -27
l30 49h140q-5 -12 -11 -28.5t-12 -33.5t-10.5 -32t-5.5 -23q-7 -27 -20 -81.5t-27.5 -122.5t-30 -142.5t-27.5 -141t-20 -118t-8 -74.5q0 -54 23 -74t65 -20q10 0 29.5 4.5t40.5 10.5t39 11t26 7v-74zM647 1313q0 -23 -9 -44t-24.5 -37t-36 -25t-43.5 -9q-22 0 -42 9t-35 25
t-24 36t-9 43q0 22 9 42.5t24 36.5t35 25.5t42 9.5q23 0 43.5 -9t36 -24t24.5 -35.5t9 -43.5zM1071 1313q0 -23 -8.5 -44t-23.5 -37t-35.5 -25t-43.5 -9t-43.5 9t-35.5 25t-24 37t-9 44q0 21 9.5 41.5t25 36t36 25t41.5 9.5q23 0 43.5 -9t35.5 -24t23.5 -35.5t8.5 -43.5z
M1119 1600h-620l29 135h617z" />
    <glyph glyph-name="uni0227" unicode="&#x227;" horiz-adv-x="1067" 
d="M760 803q1 5 -7.5 23t-20.5 37.5t-25.5 34.5t-22.5 15q-78 0 -139.5 -25.5t-107.5 -69t-78.5 -100.5t-52.5 -119t-29 -125t-9 -120q0 -43 7 -86t24.5 -78t48 -57t78.5 -22q36 0 72 16t67 37t54 42t34 32zM1061 55q-12 -5 -44 -18.5t-71.5 -27t-80 -24t-70.5 -10.5
q-37 0 -62.5 9t-42 27t-25.5 44t-12 60q-23 -22 -54 -46.5t-68.5 -45.5t-80 -34.5t-88.5 -13.5q-60 0 -105.5 17t-78.5 45.5t-54.5 66t-34.5 78t-18 82t-5 78.5q0 79 17 159.5t50.5 155t83.5 139.5t115.5 113t146 75.5t176.5 27.5q28 0 55.5 -6.5t51.5 -17t44 -23.5t34 -27
l30 49h140q-5 -12 -11 -28.5t-12 -33.5t-10.5 -32t-5.5 -23q-7 -27 -20 -81.5t-27.5 -122.5t-30 -142.5t-27.5 -141t-20 -118t-8 -74.5q0 -54 23 -74t65 -20q10 0 29.5 4.5t40.5 10.5t39 11t26 7v-74zM863 1313q0 -24 -9 -45t-24.5 -36.5t-36.5 -24.5t-45 -9t-44.5 9
t-36 24.5t-24.5 36.5t-9 45t8.5 45t24 37t36.5 25.5t45 9.5t45 -9t36.5 -25t24.5 -37.5t9 -45.5z" />
    <glyph glyph-name="uni01E1" unicode="&#x1e1;" horiz-adv-x="1067" 
d="M760 803q1 5 -7.5 23t-20.5 37.5t-25.5 34.5t-22.5 15q-78 0 -139.5 -25.5t-107.5 -69t-78.5 -100.5t-52.5 -119t-29 -125t-9 -120q0 -43 7 -86t24.5 -78t48 -57t78.5 -22q36 0 72 16t67 37t54 42t34 32zM1061 55q-12 -5 -44 -18.5t-71.5 -27t-80 -24t-70.5 -10.5
q-37 0 -62.5 9t-42 27t-25.5 44t-12 60q-23 -22 -54 -46.5t-68.5 -45.5t-80 -34.5t-88.5 -13.5q-60 0 -105.5 17t-78.5 45.5t-54.5 66t-34.5 78t-18 82t-5 78.5q0 79 17 159.5t50.5 155t83.5 139.5t115.5 113t146 75.5t176.5 27.5q28 0 55.5 -6.5t51.5 -17t44 -23.5t34 -27
l30 49h140q-5 -12 -11 -28.5t-12 -33.5t-10.5 -32t-5.5 -23q-7 -27 -20 -81.5t-27.5 -122.5t-30 -142.5t-27.5 -141t-20 -118t-8 -74.5q0 -54 23 -74t65 -20q10 0 29.5 4.5t40.5 10.5t39 11t26 7v-74zM1119 1600h-620l29 135h617zM863 1313q0 -24 -9 -45t-24.5 -36.5
t-36.5 -24.5t-45 -9t-44.5 9t-36 24.5t-24.5 36.5t-9 45t8.5 45t24 37t36.5 25.5t45 9.5t45 -9t36.5 -25t24.5 -37.5t9 -45.5z" />
    <glyph glyph-name="aringacute" unicode="&#x1fb;" horiz-adv-x="1067" 
d="M760 803q1 5 -7.5 23t-20.5 37.5t-25.5 34.5t-22.5 15q-78 0 -139.5 -25.5t-107.5 -69t-78.5 -100.5t-52.5 -119t-29 -125t-9 -120q0 -43 7 -86t24.5 -78t48 -57t78.5 -22q36 0 72 16t67 37t54 42t34 32zM1061 55q-12 -5 -44 -18.5t-71.5 -27t-80 -24t-70.5 -10.5
q-37 0 -62.5 9t-42 27t-25.5 44t-12 60q-23 -22 -54 -46.5t-68.5 -45.5t-80 -34.5t-88.5 -13.5q-60 0 -105.5 17t-78.5 45.5t-54.5 66t-34.5 78t-18 82t-5 78.5q0 79 17 159.5t50.5 155t83.5 139.5t115.5 113t146 75.5t176.5 27.5q28 0 55.5 -6.5t51.5 -17t44 -23.5t34 -27
l30 49h140q-5 -12 -11 -28.5t-12 -33.5t-10.5 -32t-5.5 -23q-7 -27 -20 -81.5t-27.5 -122.5t-30 -142.5t-27.5 -141t-20 -118t-8 -74.5q0 -54 23 -74t65 -20q10 0 29.5 4.5t40.5 10.5t39 11t26 7v-74zM896 1397q0 48 -31 76t-78 28q-32 0 -61.5 -13t-53 -35t-37.5 -51
t-14 -61q0 -48 32.5 -77t78.5 -29q31 0 61 13.5t52.5 36t36.5 51.5t14 61zM716 1128q-43 0 -79.5 14.5t-63 40.5t-41.5 62t-15 78q0 56 23.5 107.5t63 91t91 63t107.5 23.5q43 0 79.5 -14.5t63.5 -41t42 -62.5t15 -79q0 -57 -23.5 -108t-63.5 -90t-91.5 -62t-107.5 -23z
M1117 1971q0 -29 -13 -48.5t-36 -35.5l-307 -199h-144l279 320q10 12 21 21t24.5 16t31 10.5t40.5 3.5q27 0 46.5 -8t32 -20.5t19 -28.5t6.5 -31z" />
    <glyph glyph-name="uni1E9A" unicode="&#x1e9a;" horiz-adv-x="1067" 
d="M760 803q1 5 -7.5 23t-20.5 37.5t-25.5 34.5t-22.5 15q-78 0 -139.5 -25.5t-107.5 -69t-78.5 -100.5t-52.5 -119t-29 -125t-9 -120q0 -43 7 -86t24.5 -78t48 -57t78.5 -22q36 0 72 16t67 37t54 42t34 32zM1061 55q-12 -5 -44 -18.5t-71.5 -27t-80 -24t-70.5 -10.5
q-37 0 -62.5 9t-42 27t-25.5 44t-12 60q-23 -22 -54 -46.5t-68.5 -45.5t-80 -34.5t-88.5 -13.5q-60 0 -105.5 17t-78.5 45.5t-54.5 66t-34.5 78t-18 82t-5 78.5q0 79 17 159.5t50.5 155t83.5 139.5t115.5 113t146 75.5t176.5 27.5q28 0 55.5 -6.5t51.5 -17t44 -23.5t34 -27
l30 49h140q-5 -12 -11 -28.5t-12 -33.5t-10.5 -32t-5.5 -23q-7 -27 -20 -81.5t-27.5 -122.5t-30 -142.5t-27.5 -141t-20 -118t-8 -74.5q0 -54 23 -74t65 -20q10 0 29.5 4.5t40.5 10.5t39 11t26 7v-74zM864 1410q0 -47 -21 -90.5t-55 -77t-78 -53.5t-90 -20l14 73q31 0 59 12
t49.5 33t34.5 49t13 60q0 46 -31 73t-76 27l15 72q34 0 64.5 -11.5t53 -32t35.5 -49.5t13 -65z" />
    <glyph glyph-name="uni1EA3" unicode="&#x1ea3;" horiz-adv-x="1067" 
d="M760 803q1 5 -7.5 23t-20.5 37.5t-25.5 34.5t-22.5 15q-78 0 -139.5 -25.5t-107.5 -69t-78.5 -100.5t-52.5 -119t-29 -125t-9 -120q0 -43 7 -86t24.5 -78t48 -57t78.5 -22q36 0 72 16t67 37t54 42t34 32zM1061 55q-12 -5 -44 -18.5t-71.5 -27t-80 -24t-70.5 -10.5
q-37 0 -62.5 9t-42 27t-25.5 44t-12 60q-23 -22 -54 -46.5t-68.5 -45.5t-80 -34.5t-88.5 -13.5q-60 0 -105.5 17t-78.5 45.5t-54.5 66t-34.5 78t-18 82t-5 78.5q0 79 17 159.5t50.5 155t83.5 139.5t115.5 113t146 75.5t176.5 27.5q28 0 55.5 -6.5t51.5 -17t44 -23.5t34 -27
l30 49h140q-5 -12 -11 -28.5t-12 -33.5t-10.5 -32t-5.5 -23q-7 -27 -20 -81.5t-27.5 -122.5t-30 -142.5t-27.5 -141t-20 -118t-8 -74.5q0 -54 23 -74t65 -20q10 0 29.5 4.5t40.5 10.5t39 11t26 7v-74zM924 1425q0 -36 -14.5 -65t-38.5 -51.5t-53.5 -38.5t-59.5 -27l-23 -115
h-70l31 152q27 7 51 17.5t42.5 27t29 39t10.5 53.5q0 11 -2 23t-7.5 22t-14.5 16.5t-23 6.5q-17 0 -29 -8.5t-21 -21t-16 -27.5t-14 -27q-9 -6 -19.5 -10.5t-23.5 -4.5q-21 0 -32 14t-11 34q0 27 19.5 48t47 35.5t57 22.5t50.5 8q57 0 95.5 -32t38.5 -91z" />
    <glyph glyph-name="uni1EA1" unicode="&#x1ea1;" horiz-adv-x="1067" 
d="M760 803q1 5 -7.5 23t-20.5 37.5t-25.5 34.5t-22.5 15q-78 0 -139.5 -25.5t-107.5 -69t-78.5 -100.5t-52.5 -119t-29 -125t-9 -120q0 -43 7 -86t24.5 -78t48 -57t78.5 -22q36 0 72 16t67 37t54 42t34 32zM1061 55q-12 -5 -44 -18.5t-71.5 -27t-80 -24t-70.5 -10.5
q-37 0 -62.5 9t-42 27t-25.5 44t-12 60q-23 -22 -54 -46.5t-68.5 -45.5t-80 -34.5t-88.5 -13.5q-60 0 -105.5 17t-78.5 45.5t-54.5 66t-34.5 78t-18 82t-5 78.5q0 79 17 159.5t50.5 155t83.5 139.5t115.5 113t146 75.5t176.5 27.5q28 0 55.5 -6.5t51.5 -17t44 -23.5t34 -27
l30 49h140q-5 -12 -11 -28.5t-12 -33.5t-10.5 -32t-5.5 -23q-7 -27 -20 -81.5t-27.5 -122.5t-30 -142.5t-27.5 -141t-20 -118t-8 -74.5q0 -54 23 -74t65 -20q10 0 29.5 4.5t40.5 10.5t39 11t26 7v-74zM536 -293q0 -24 -9 -44.5t-24.5 -36.5t-36 -25t-44.5 -9t-45 9t-36.5 25
t-24.5 36.5t-9 44.5t8.5 45.5t24 38t36.5 26t46 9.5q24 0 44.5 -9.5t36 -25.5t24.5 -37.5t9 -46.5z" />
    <glyph glyph-name="uni1E01" unicode="&#x1e01;" horiz-adv-x="1067" 
d="M760 803q1 5 -7.5 23t-20.5 37.5t-25.5 34.5t-22.5 15q-78 0 -139.5 -25.5t-107.5 -69t-78.5 -100.5t-52.5 -119t-29 -125t-9 -120q0 -43 7 -86t24.5 -78t48 -57t78.5 -22q36 0 72 16t67 37t54 42t34 32zM1061 55q-12 -5 -44 -18.5t-71.5 -27t-80 -24t-70.5 -10.5
q-37 0 -62.5 9t-42 27t-25.5 44t-12 60q-23 -22 -54 -46.5t-68.5 -45.5t-80 -34.5t-88.5 -13.5q-60 0 -105.5 17t-78.5 45.5t-54.5 66t-34.5 78t-18 82t-5 78.5q0 79 17 159.5t50.5 155t83.5 139.5t115.5 113t146 75.5t176.5 27.5q28 0 55.5 -6.5t51.5 -17t44 -23.5t34 -27
l30 49h140q-5 -12 -11 -28.5t-12 -33.5t-10.5 -32t-5.5 -23q-7 -27 -20 -81.5t-27.5 -122.5t-30 -142.5t-27.5 -141t-20 -118t-8 -74.5q0 -54 23 -74t65 -20q10 0 29.5 4.5t40.5 10.5t39 11t26 7v-74zM546 -338q0 24 -9 43.5t-24 34t-35 22t-43 7.5q-32 0 -61.5 -13.5
t-53 -36t-37.5 -52t-14 -60.5q0 -48 31 -77.5t78 -29.5q31 0 61.5 13.5t54 36t38 51.5t14.5 61zM363 -604q-43 0 -79.5 14.5t-63.5 40.5t-42 62t-15 79q0 56 24 107.5t64 90.5t92 62t108 23q42 0 78.5 -14.5t63.5 -41t42 -62.5t15 -79q0 -57 -24 -108t-63.5 -89.5
t-91.5 -61.5t-108 -23z" />
    <glyph glyph-name="aogonek" unicode="&#x105;" horiz-adv-x="1067" 
d="M1061 55q-12 -5 -44 -18.5t-72 -27.5q-25 -9 -52 -16q-24 -19 -48 -42q-29 -28 -52.5 -60t-38.5 -68t-15 -75q0 -37 24 -53.5t58 -16.5q20 0 38.5 3t37.5 8l-18 -117q-26 -6 -54.5 -10t-56.5 -4q-33 0 -63.5 7t-53.5 22.5t-37 41.5t-14 64q0 45 17 89.5t44 84t61 73.5
q20 20 41 37q-17 2 -31 7q-25 9 -41.5 27t-25.5 44t-12 60q-23 -22 -54 -46.5t-68.5 -45.5t-80 -34.5t-88.5 -13.5q-60 0 -105.5 17t-78.5 45.5t-54.5 66t-34.5 78t-18 82t-5 78.5q0 79 17 159.5t50.5 155t83.5 139.5t115.5 113t146 75.5t176.5 27.5q28 0 55.5 -6.5
t51.5 -17t44 -23.5t34 -27l30 49h140q-5 -12 -11 -28.5t-12 -33.5t-10.5 -32t-5.5 -23q-7 -27 -20 -81.5t-27.5 -122.5t-30 -142.5t-27.5 -141t-20 -118t-8 -74.5q0 -54 23 -74t65 -20q10 0 29.5 4.5t40.5 10.5t39 11t26 7v-74zM760 803q1 5 -7.5 23t-20.5 37.5t-25.5 34.5
t-22.5 15q-78 0 -139.5 -25.5t-107.5 -69t-78.5 -100.5t-52.5 -119t-29 -125t-9 -120q0 -43 7 -86t24.5 -78t48 -57t78.5 -22q36 0 72 16t67 37t54 42t34 32z" />
    <glyph glyph-name="aogonek.RetroHook" horiz-adv-x="1067" 
d="M760 803q1 5 -7.5 23t-20.5 37.5t-25.5 34.5t-22.5 15q-78 0 -139.5 -25.5t-107.5 -69t-78.5 -100.5t-52.5 -119t-29 -125t-9 -120q0 -43 7 -86t24.5 -78t48 -57t78.5 -22q36 0 72 16t67 37t54 42t34 32zM1061 55q-12 -5 -44 -18.5t-71.5 -27t-80 -24t-70.5 -10.5
q-37 0 -62.5 9t-42 27t-25.5 44t-12 60q-32 -30 -77.5 -64t-102.5 -54q-6 -29 -14.5 -68.5t-16.5 -79.5t-13.5 -75t-5.5 -54q0 -47 26 -64.5t70 -17.5l171 158q15 -8 31.5 -18.5t29.5 -24t21.5 -29.5t8.5 -35q0 -41 -25.5 -70.5t-62.5 -49t-79 -29t-75 -9.5q-44 0 -83.5 8
t-70.5 27.5t-49 52.5t-18 84q0 34 6 66l42 206h-4q-60 0 -105.5 17t-78.5 45.5t-54.5 66t-34.5 78t-18 82t-5 78.5q0 79 17 159.5t50.5 155t83.5 139.5t115.5 113t146 75.5t176.5 27.5q28 0 55.5 -6.5t51.5 -17t44 -23.5t34 -27l30 49h140q-5 -12 -11 -28.5t-12 -33.5
t-10.5 -32t-5.5 -23q-7 -27 -20 -81.5t-27.5 -122.5t-30 -142.5t-27.5 -141t-20 -118t-8 -74.5q0 -54 23 -74t65 -20q10 0 29.5 4.5t40.5 10.5t39 11t26 7v-74z" />
    <glyph glyph-name="uni1D8F" unicode="&#x1d8f;" horiz-adv-x="1067" 
d="M1061 55l-1 -1l-57 -294q-2 -11 -3.5 -21t-1.5 -20q0 -43 26 -61t71 -18l190 143q4 -2 15.5 -8t23 -18.5t20.5 -34.5t9 -56q0 -29 -20 -53.5t-53 -42t-75.5 -27.5t-87.5 -10q-223 0 -223 172q0 31 6 66l47 239l-2 -1q-39 -13 -79.5 -23.5t-70.5 -10.5q-37 0 -62.5 9
t-42 27t-25.5 44t-12 60q-23 -22 -54 -46.5t-68.5 -45.5t-80 -34.5t-88.5 -13.5q-60 0 -105.5 17t-78.5 45.5t-54.5 66t-34.5 78t-18 82t-5 78.5q0 79 17 159.5t50.5 155t83.5 139.5t115.5 113t146 75.5t176.5 27.5q28 0 55.5 -6.5t51.5 -17t44 -23.5t34 -27l30 49h140
q-5 -12 -11 -28.5t-12 -33.5t-10.5 -32t-5.5 -23q-7 -27 -20 -81.5t-27.5 -122.5t-30 -142.5t-27.5 -141t-20 -118t-8 -74.5q0 -54 23 -74t65 -20q10 0 29.5 4.5t40.5 10.5t39 11t26 7v-74zM760 803q1 5 -7.5 23t-20.5 37.5t-25.5 34.5t-22.5 15q-78 0 -139.5 -25.5
t-107.5 -69t-78.5 -100.5t-52.5 -119t-29 -125t-9 -120q0 -43 7 -86t24.5 -78t48 -57t78.5 -22q36 0 72 16t67 37t54 42t34 32z" />
    <glyph glyph-name="uni2C65" unicode="&#x2c65;" horiz-adv-x="1067" 
d="M426 111q36 0 72 16t67 37t54 42t34 32l106 563l-418 -663q35 -27 85 -27zM268 354q0 -33 3.5 -66.5t13.5 -63.5l422 673q-6 7 -12 11.5t-11 4.5q-78 0 -139.5 -25.5t-107.5 -69t-78.5 -100.5t-52.5 -119t-29 -125t-9 -120zM877 987h133q-5 -12 -11 -28.5t-12 -33.5
t-10.5 -32t-5.5 -23q-7 -27 -20 -81.5t-27.5 -122.5t-30 -142.5t-27.5 -141t-20 -118t-8 -74.5q0 -54 23 -74t65 -20q10 0 29.5 4.5t40.5 10.5t39 11t26 7v-74q-12 -5 -44 -18.5t-71.5 -27t-80 -24t-70.5 -10.5q-37 0 -62.5 9t-42 27t-25.5 44t-12 60q-23 -22 -54 -46.5
t-68.5 -45.5t-80 -34.5t-88.5 -13.5q-32 0 -60 5t-52 14l-107 -170l-76 51l105 168q-31 28 -51.5 65t-32.5 77t-17 80.5t-5 76.5q0 79 17 159.5t50.5 155t83.5 139.5t115.5 113t146 75.5t176.5 27.5q29 0 57 -6.5t52 -17.5l90 142l81 -51z" />
    <glyph glyph-name="atilde.2StorySItal" horiz-adv-x="1004" 
d="M659 535q-113 -26 -197 -56t-140 -67t-83.5 -82t-27.5 -101q0 -27 8.5 -50t23.5 -40t35.5 -27t45.5 -10q37 0 80 13.5t82 31t69 33.5t39 21zM963 45q-41 -26 -99 -48t-123 -22q-46 0 -76.5 13.5t-49 33.5t-26 44t-7.5 45q-18 -11 -55 -33.5t-84.5 -45.5t-101 -40
t-103.5 -17t-91.5 16t-71 45t-45.5 70t-16 91q0 53 14 96.5t40.5 78.5t63.5 63.5t83 51.5q54 27 111 46.5t115.5 35.5t118 29t118.5 27q1 7 5 24.5t7.5 39.5t6.5 45.5t3 43.5q0 29 -6 52.5t-21.5 39.5t-43 24.5t-70.5 8.5q-25 0 -49.5 -4t-45.5 -9.5t-36 -11t-22 -8.5
l-33 -172l-137 -2q-35 0 -53.5 13t-18.5 39q0 54 36 102t99.5 84t149.5 57t186 21q54 0 100 -11.5t80.5 -36t54 -63.5t19.5 -94q0 -16 -5 -51.5t-12.5 -82.5t-18 -102.5t-20.5 -110.5q-25 -129 -55 -284q-8 -38 10 -66t56 -28q7 0 23 3.5t34 9.5t35 13t27 13v-76zM1064 1415
q-22 -45 -50.5 -84.5t-65 -69t-81.5 -46.5t-100 -17q-42 0 -73 13.5t-63 33.5q-13 9 -26 17t-28.5 15t-34 11t-42.5 4q-13 0 -29.5 -7t-32.5 -19.5t-30 -29.5t-22 -38h-109q21 45 49.5 84.5t64.5 69t81 46.5t100 17q42 0 73.5 -13.5t63.5 -35.5q26 -15 55 -30t76 -15
q14 0 30.5 7t32.5 19.5t29.5 29.5t22.5 38h109z" />
    <glyph glyph-name="uni1EA1.2StorySItal" horiz-adv-x="1004" 
d="M659 535q-113 -26 -197 -56t-140 -67t-83.5 -82t-27.5 -101q0 -27 8.5 -50t23.5 -40t35.5 -27t45.5 -10q37 0 80 13.5t82 31t69 33.5t39 21zM963 45q-41 -26 -99 -48t-123 -22q-46 0 -76.5 13.5t-49 33.5t-26 44t-7.5 45q-18 -11 -55 -33.5t-84.5 -45.5t-101 -40
t-103.5 -17t-91.5 16t-71 45t-45.5 70t-16 91q0 53 14 96.5t40.5 78.5t63.5 63.5t83 51.5q54 27 111 46.5t115.5 35.5t118 29t118.5 27q1 7 5 24.5t7.5 39.5t6.5 45.5t3 43.5q0 29 -6 52.5t-21.5 39.5t-43 24.5t-70.5 8.5q-25 0 -49.5 -4t-45.5 -9.5t-36 -11t-22 -8.5
l-33 -172l-137 -2q-35 0 -53.5 13t-18.5 39q0 54 36 102t99.5 84t149.5 57t186 21q54 0 100 -11.5t80.5 -36t54 -63.5t19.5 -94q0 -16 -5 -51.5t-12.5 -82.5t-18 -102.5t-20.5 -110.5q-25 -129 -55 -284q-8 -38 10 -66t56 -28q7 0 23 3.5t34 9.5t35 13t27 13v-76zM460 -293
q0 -24 -9 -44.5t-24.5 -36.5t-36 -25t-44.5 -9t-45 9t-36.5 25t-24.5 36.5t-9 44.5t8.5 45.5t24 38t36.5 26t46 9.5q24 0 44.5 -9.5t36 -25.5t24.5 -37.5t9 -46.5z" />
    <glyph glyph-name="uniA733" unicode="&#xa733;" horiz-adv-x="1679" 
d="M760 803q1 5 -7.5 23t-20.5 37.5t-25.5 34.5t-22.5 15q-78 0 -139.5 -25.5t-107.5 -69t-78.5 -100.5t-52.5 -119t-29 -125t-9 -120q0 -43 7 -86t24.5 -78t48 -57t78.5 -22q36 0 72 16t67 37t54 42t34 32zM1370 803q1 5 -7.5 23t-20.5 37.5t-25.5 34.5t-22.5 15
q-78 0 -139.5 -25.5t-107.5 -69t-78.5 -100.5t-52.5 -119t-29 -125t-9 -120q0 -43 7 -86t24.5 -78t48 -57t78.5 -22q36 0 72 16t67 37t54 42t34 32zM1671 55q-12 -5 -44 -18.5t-71.5 -27t-80 -24t-70.5 -10.5q-37 0 -62.5 9t-42 27t-25.5 44t-12 60q-23 -22 -54 -46.5
t-68.5 -45.5t-80 -34.5t-88.5 -13.5q-57 0 -99 15t-72 40.5t-49 59t-31 71.5q-27 -27 -65 -59t-83.5 -60.5t-99 -47.5t-111.5 -19q-60 0 -105.5 17t-78.5 45.5t-54.5 66t-34.5 78t-18 82t-5 78.5q0 79 17 159.5t50.5 155t83.5 139.5t115.5 113t146 75.5t176.5 27.5
q28 0 55.5 -6.5t51.5 -17t44 -23.5t34 -27l30 49h140l-19 -49q57 35 125 54.5t149 19.5q28 0 55.5 -6.5t51.5 -17t44 -23.5t34 -27l30 49h140q-5 -12 -11 -28.5t-12 -33.5t-10.5 -32t-5.5 -23q-7 -27 -20 -81.5t-27.5 -122.5t-30 -142.5t-27.5 -141t-20 -118t-8 -74.5
q0 -54 23 -74t65 -20q10 0 29.5 4.5t40.5 10.5t39 11t26 7v-74z" />
    <glyph glyph-name="uniA735" unicode="&#xa735;" horiz-adv-x="1645" 
d="M760 803q1 5 -7.5 23t-20.5 37.5t-25.5 34.5t-22.5 15q-78 0 -139.5 -25.5t-107.5 -69t-78.5 -100.5t-52.5 -119t-29 -125t-9 -120q0 -43 7 -86t24.5 -78t48 -57t78.5 -22q36 0 72 16t67 37t54 42t34 32zM1375 623q0 146 -47 223.5t-125 77.5q-67 0 -122.5 -48.5
t-96 -127t-63 -177t-22.5 -198.5q0 -152 48 -228.5t125 -76.5q48 0 89.5 24.5t75 66t59.5 96.5t43.5 116.5t26.5 126.5t9 125zM1582 614q0 -83 -18 -162.5t-51 -150.5t-80.5 -130.5t-107 -103t-129.5 -68t-149 -24.5q-116 0 -196.5 50t-121.5 141q-26 -26 -65 -59t-87 -62.5
t-103 -49.5t-112 -20q-60 0 -105.5 17t-78.5 45.5t-54.5 66t-34.5 78t-18 82t-5 78.5q0 79 17 159.5t50.5 155t83.5 139.5t115.5 113t146 75.5t176.5 27.5q28 0 55.5 -6.5t51.5 -17t44 -23.5t34 -27l30 49h110q-5 -11 -11 -27t-12 -33q57 40 124.5 62.5t143.5 22.5
q74 0 139 -23t113.5 -72t76.5 -124t28 -179z" />
    <glyph glyph-name="uniA737" unicode="&#xa737;" horiz-adv-x="1631" 
d="M760 803q1 5 -7.5 23t-20.5 37.5t-25.5 34.5t-22.5 15q-78 0 -139.5 -25.5t-107.5 -69t-78.5 -100.5t-52.5 -119t-29 -125t-9 -120q0 -43 7 -86t24.5 -78t48 -57t78.5 -22q33 0 68 14t66 34t55.5 42t37.5 37zM1625 49q-19 -11 -52.5 -24t-72.5 -24t-79.5 -18.5
t-73.5 -7.5q-58 0 -86 19.5t-38.5 45t-9.5 51.5t1 38q-80 -77 -164 -115.5t-187 -38.5q-48 0 -83.5 11.5t-60.5 31.5t-40.5 45.5t-22.5 54.5q-24 -23 -55.5 -48t-69 -46t-80.5 -35t-89 -14q-60 0 -105.5 17t-78.5 45.5t-54.5 66t-34.5 78t-18 82t-5 78.5q0 79 17 159.5
t50.5 155t83.5 139.5t115.5 113t146 75.5t176.5 27.5q28 0 55.5 -6.5t51.5 -17t44 -23.5t34 -27l30 49h140q-5 -12 -11 -28.5t-11.5 -33.5t-10 -32t-6.5 -23q-5 -21 -15 -59.5t-25.5 -108.5t-37 -177t-48.5 -264q-6 -40 1 -70t22 -49.5t35.5 -29.5t40.5 -10q37 0 74 10.5
t73 28.5t70 41.5t63 50.5l155 754h191l-164 -788q-7 -32 0 -53.5t21.5 -35.5t33 -20t35.5 -6q20 0 53 6t76 31v-72z" />
    <glyph glyph-name="uniA739" unicode="&#xa739;" horiz-adv-x="1473" 
d="M760 803q1 5 -7.5 23t-20.5 37.5t-25.5 34.5t-22.5 15q-78 0 -139.5 -25.5t-107.5 -69t-78.5 -100.5t-52.5 -119t-29 -125t-9 -120q0 -43 7 -86t24.5 -78t48 -57t78.5 -22q36 0 72 16t67 37t54 42t34 32zM1483 889q0 -26 -5 -49t-11.5 -43t-14 -36t-12.5 -26
q-53 -97 -113 -190t-126.5 -183.5t-139.5 -180.5t-153 -181q-29 -10 -60.5 -17.5t-52.5 -7.5q-37 0 -62.5 9t-42 27t-25.5 44t-12 60q-23 -22 -54 -46.5t-68.5 -45.5t-80 -34.5t-88.5 -13.5q-60 0 -105.5 17t-78.5 45.5t-54.5 66t-34.5 78t-18 82t-5 78.5q0 79 17 159.5
t50.5 155t83.5 139.5t115.5 113t146 75.5t176.5 27.5q28 0 55.5 -6.5t51.5 -17t44 -23.5t34 -27l30 49h140q-5 -12 -11 -28.5t-12 -33.5t-10.5 -32t-5.5 -23q-7 -27 -20 -81.5t-27.5 -122.5t-30 -142.5t-27.5 -141t-20 -118t-8 -74.5q0 -40 10.5 -57t27.5 -28
q140 171 245 325.5t158 288.5l-39 248q20 20 50 32.5t68 12.5q66 0 95.5 -33.5t29.5 -89.5z" />
    <glyph glyph-name="uniA73B" unicode="&#xa73b;" horiz-adv-x="1498" 
d="M876 105q75 92 140 178.5t119 169.5h-256q-9 -45 -16.5 -86t-13 -75.5t-8.5 -61t-3 -40.5q0 -40 10.5 -57t27.5 -28zM760 803q1 5 -7.5 23t-20.5 37.5t-25.5 34.5t-22.5 15q-78 0 -139.5 -25.5t-107.5 -69t-78.5 -100.5t-52.5 -119t-29 -125t-9 -120q0 -43 7 -86
t24.5 -78t48 -57t78.5 -22q36 0 72 16t67 37t54 42t34 32zM1265 453q-79 -115 -168 -227t-189 -226q-29 -10 -60.5 -17.5t-52.5 -7.5q-37 0 -62.5 9t-42 27t-25.5 44t-12 60q-23 -22 -54 -46.5t-68.5 -45.5t-80 -34.5t-88.5 -13.5q-60 0 -105.5 17t-78.5 45.5t-54.5 66
t-34.5 78t-18 82t-5 78.5q0 79 17 159.5t50.5 155t83.5 139.5t115.5 113t146 75.5t176.5 27.5q28 0 55.5 -6.5t51.5 -17t44 -23.5t34 -27l30 49h140q-5 -12 -11 -28.5t-12 -33.5t-10.5 -32t-5.5 -23q-5 -19 -13 -51.5t-17.5 -74.5t-20 -90.5t-20.5 -98.5h298q49 84 81 164
l-39 248q20 20 50 32.5t68 12.5q66 0 95.5 -33.5t29.5 -89.5q0 -26 -5 -49t-11.5 -43t-14 -36t-12.5 -26q-26 -46 -52.5 -90.5t-54.5 -89.5h140v-102h-208z" />
    <glyph glyph-name="uniA73D" unicode="&#xa73d;" horiz-adv-x="1555" 
d="M760 803q1 5 -7.5 23t-20.5 37.5t-25.5 34.5t-22.5 15q-78 0 -139.5 -25.5t-107.5 -69t-78.5 -100.5t-52.5 -119t-29 -125t-9 -120q0 -43 7 -86t24.5 -78t48 -57t78.5 -22q36 0 72 16t67 37t54 42t34 32zM1508 846q-12 -12 -35 -44t-47.5 -72t-48 -82.5t-37.5 -74.5
q-22 -49 -51.5 -119t-66 -150.5t-79.5 -167t-92 -169.5q-48 -81 -102.5 -159.5t-115.5 -140t-128.5 -99t-140.5 -37.5q-56 0 -93 14t-59 34.5t-30.5 44t-8.5 42.5q0 23 10.5 44.5t29.5 38t45 26.5t56 12l119 -119q30 3 65.5 30t73 72t76 104.5t74.5 127.5q-35 -11 -68 -19
t-59 -8q-37 0 -62.5 9t-42 27t-25.5 44t-12 60q-23 -22 -54 -46.5t-68.5 -45.5t-80 -34.5t-88.5 -13.5q-60 0 -105.5 17t-78.5 45.5t-54.5 66t-34.5 78t-18 82t-5 78.5q0 79 17 159.5t50.5 155t83.5 139.5t115.5 113t146 75.5t176.5 27.5q28 0 55.5 -6.5t51.5 -17t44 -23.5
t34 -27l30 49h140q-5 -12 -11 -28.5t-12 -33.5t-10.5 -32t-5.5 -23q-7 -27 -20 -81.5t-27.5 -122.5t-30 -142.5t-27.5 -141t-20 -118t-8 -74.5q0 -54 23 -74t65 -20q8 0 21 2.5t29 6.5q48 95 99 205t102.5 227t103 237.5t100.5 237.5h59l170 -56v-47z" />
    <glyph glyph-name="uni0250" unicode="&#x250;" horiz-adv-x="1067" 
d="M799 633q0 43 -7 86.5t-25 78.5t-49 57t-79 22q-35 0 -71 -16t-66.5 -37t-54 -42.5t-33.5 -31.5l-109 -566q-1 -5 7.5 -23t20.5 -37.5t25.5 -34.5t22.5 -15q78 0 139.5 26t108 69t79 100t53 119t29.5 125.5t9 119.5zM1001 643q0 -79 -17 -159t-51 -154t-84 -139
t-115.5 -113t-146.5 -75.5t-177 -27.5q-29 0 -55.5 6.5t-50.5 16.5t-43.5 23t-33.5 26l-32 -47h-138q4 12 10 28.5t11.5 33.5t10.5 32t7 23q7 27 19.5 81.5t27 122.5t30 142.5t28 141t20.5 118t8 74.5q0 54 -24 74t-66 20q-11 0 -30 -4.5t-39.5 -10.5t-38.5 -11.5t-27 -6.5
v74q12 4 44 17.5t71.5 27t80 24.5t70.5 11q38 0 64 -9t43 -27t25.5 -44t11.5 -60q23 22 54 46.5t68.5 45.5t80 34.5t88.5 13.5q90 0 147.5 -36.5t90.5 -91.5t45.5 -120t12.5 -121z" />
    <glyph glyph-name="uni0250.2StorySItal" horiz-adv-x="1004" 
d="M774 758q0 27 -8.5 50t-23.5 40t-35.5 27t-44.5 10q-37 0 -80.5 -13.5t-82.5 -31t-69 -33.5t-39 -21l-65 -333q113 26 197 55.5t140 66.5t83.5 82t27.5 101zM971 791q0 -53 -14 -96.5t-40.5 -79t-63.5 -64t-83 -51.5q-54 -27 -111 -47t-115.5 -36t-118.5 -29t-118 -26
q-2 -8 -5.5 -25t-7 -39t-6.5 -45.5t-3 -43.5q0 -29 6 -52.5t21.5 -39.5t43 -24.5t70.5 -8.5q25 0 50 4.5t45.5 10t36 11t22.5 7.5l32 172l138 2q34 0 52.5 -12.5t18.5 -38.5q0 -54 -36 -102t-99.5 -84.5t-149.5 -57.5t-186 -21q-54 0 -100 11.5t-80.5 36t-54 63.5t-19.5 94
q0 15 4.5 50.5t12.5 82.5t17.5 102t20.5 111q25 129 56 285q8 38 -9.5 66t-56.5 28q-8 0 -23.5 -3.5t-33.5 -9.5t-34.5 -13t-26.5 -13v76q20 13 45 25.5t53.5 22.5t59.5 16t63 6q46 0 76.5 -13.5t49 -33.5t26 -43.5t7.5 -44.5q18 10 55.5 32.5t85 45.5t101 40t103.5 17
t91 -16t70.5 -45t45.5 -69.5t16 -90.5z" />
    <glyph glyph-name="uni1D44" unicode="&#x1d44;" horiz-adv-x="693" 
d="M634 1165q0 26 -4.5 52t-16 47t-31.5 34t-52 13q-22 0 -45.5 -9.5t-43.5 -22t-35 -25.5t-22 -19l-71 -340q0 -3 5.5 -13.5t13 -22.5t16.5 -21t15 -9q50 0 90 16t70.5 41.5t51.5 60t34.5 71.5t19 75t5.5 72zM766 1171q0 -48 -11 -96t-33.5 -92t-55 -83t-75 -68t-95 -45.5
t-115.5 -16.5q-18 0 -35.5 4t-33 10t-28 13.5t-21.5 15.5l-21 -28h-90q3 7 6.5 17t7.5 20t7 19t4 14q5 16 13 49t17.5 73.5t19.5 85.5t18 85t13.5 70.5t5.5 44.5q0 33 -15.5 45t-43.5 12q-7 0 -19.5 -3t-25.5 -6.5t-25 -7t-17 -3.5v44q7 3 28 11t46.5 16t52 14.5t45.5 6.5
q25 0 42 -5.5t28 -16t16.5 -26t7.5 -36.5q15 13 35 28t44.5 27.5t52 20.5t57.5 8q59 0 96 -22t58.5 -55t30 -72t8.5 -72z" />
    <glyph glyph-name="uni0251" unicode="&#x251;" horiz-adv-x="1067" 
d="M760 803q1 5 -7.5 23t-20.5 37.5t-25.5 34.5t-22.5 15q-78 0 -139.5 -25.5t-107.5 -69t-78.5 -100.5t-52.5 -119t-29 -125t-9 -120q0 -43 7 -86t24.5 -78t48 -57t78.5 -22q36 0 72 16t67 37t54 42t34 32zM1061 55q-12 -5 -44 -18.5t-71.5 -27t-80 -24t-70.5 -10.5
q-37 0 -62.5 9t-42 27t-25.5 44t-12 60q-23 -22 -54 -46.5t-68.5 -45.5t-80 -34.5t-88.5 -13.5q-60 0 -105.5 17t-78.5 45.5t-54.5 66t-34.5 78t-18 82t-5 78.5q0 79 17 159.5t50.5 155t83.5 139.5t115.5 113t146 75.5t176.5 27.5q28 0 55.5 -6.5t51.5 -17t44 -23.5t34 -27
l30 49h140q-5 -12 -11 -28.5t-12 -33.5t-10.5 -32t-5.5 -23q-7 -27 -20 -81.5t-28 -122.5t-30.5 -142.5t-28 -141t-20.5 -118t-8 -74.5q0 -54 24 -74t66 -20q10 0 29.5 4.5t40.5 10.5t39 11t26 7v-74z" />
    <glyph glyph-name="uni2C65.2StorySItal" horiz-adv-x="1004" 
d="M678 625q1 7 4.5 23t7 36.5t6.5 43t4 42.5l-104 -164q21 5 41.5 9.5t40.5 9.5zM211 229q0 -26 8 -48l167 266q-88 -42 -131.5 -94.5t-43.5 -123.5zM659 535q-35 -8 -67.5 -16.5t-61.5 -17.5l-247 -392q18 -7 41 -7q37 0 80 13.5t82 31t69 33.5t39 21zM820 961
q32 -25 50.5 -62.5t18.5 -91.5q0 -16 -5 -51.5t-12.5 -82.5t-18 -102.5t-20.5 -110.5q-25 -129 -55 -284q-8 -38 10 -66t56 -28q7 0 23 3.5t34 9.5t35 13t27 13v-76q-41 -26 -99 -48t-123 -22q-46 0 -76.5 13.5t-49 33.5t-26 44t-7.5 45q-18 -11 -55 -33.5t-84.5 -45.5
t-101 -40t-103.5 -17q-20 0 -38 3l-97 -154l-76 51l83 133q-45 29 -70.5 77t-25.5 112q0 53 14 96.5t40.5 78.5t63.5 63.5t83 51.5q60 30 122.5 51t128.5 38l192 305q-17 11 -40.5 16.5t-58.5 5.5q-25 0 -49.5 -4t-45.5 -9.5t-36 -11t-22 -8.5l-33 -172l-137 -2
q-35 0 -53.5 13t-18.5 39q0 54 36 102t99.5 84t149.5 57t186 21q51 0 98 -11l81 129l81 -51z" />
    <glyph glyph-name="a.SngStory" horiz-adv-x="1067" 
d="M760 803q1 5 -7.5 23t-20.5 37.5t-25.5 34.5t-22.5 15q-78 0 -139.5 -25.5t-107.5 -69t-78.5 -100.5t-52.5 -119t-29 -125t-9 -120q0 -43 7 -86t24.5 -78t48 -57t78.5 -22q36 0 72 16t67 37t54 42t34 32zM1061 55q-12 -5 -44 -18.5t-71.5 -27t-80 -24t-70.5 -10.5
q-37 0 -62.5 9t-42 27t-25.5 44t-12 60q-23 -22 -54 -46.5t-68.5 -45.5t-80 -34.5t-88.5 -13.5q-60 0 -105.5 17t-78.5 45.5t-54.5 66t-34.5 78t-18 82t-5 78.5q0 79 17 159.5t50.5 155t83.5 139.5t115.5 113t146 75.5t176.5 27.5q28 0 55.5 -6.5t51.5 -17t44 -23.5t34 -27
l30 49h140q-5 -12 -11 -28.5t-12 -33.5t-10.5 -32t-5.5 -23q-7 -27 -20 -81.5t-28 -122.5t-30.5 -142.5t-28 -141t-20.5 -118t-8 -74.5q0 -54 24 -74t66 -20q10 0 29.5 4.5t40.5 10.5t39 11t26 7v-74z" />
    <glyph glyph-name="aacute.SngStory" horiz-adv-x="1067" 
d="M760 803q1 5 -7.5 23t-20.5 37.5t-25.5 34.5t-22.5 15q-78 0 -139.5 -25.5t-107.5 -69t-78.5 -100.5t-52.5 -119t-29 -125t-9 -120q0 -43 7 -86t24.5 -78t48 -57t78.5 -22q36 0 72 16t67 37t54 42t34 32zM1061 55q-12 -5 -44 -18.5t-71.5 -27t-80 -24t-70.5 -10.5
q-37 0 -62.5 9t-42 27t-25.5 44t-12 60q-23 -22 -54 -46.5t-68.5 -45.5t-80 -34.5t-88.5 -13.5q-60 0 -105.5 17t-78.5 45.5t-54.5 66t-34.5 78t-18 82t-5 78.5q0 79 17 159.5t50.5 155t83.5 139.5t115.5 113t146 75.5t176.5 27.5q28 0 55.5 -6.5t51.5 -17t44 -23.5t34 -27
l30 49h140q-5 -12 -11 -28.5t-12 -33.5t-10.5 -32t-5.5 -23q-7 -27 -20 -81.5t-28 -122.5t-30.5 -142.5t-28 -141t-20.5 -118t-8 -74.5q0 -54 24 -74t66 -20q10 0 29.5 4.5t40.5 10.5t39 11t26 7v-74zM1038 1411q0 -29 -13 -48.5t-36 -35.5l-307 -199h-144l279 320
q10 12 21 21t24.5 16t31 10.5t40.5 3.5q27 0 46.5 -8t32 -20.5t19 -28.5t6.5 -31z" />
    <glyph glyph-name="agrave.SngStory" horiz-adv-x="1067" 
d="M760 803q1 5 -7.5 23t-20.5 37.5t-25.5 34.5t-22.5 15q-78 0 -139.5 -25.5t-107.5 -69t-78.5 -100.5t-52.5 -119t-29 -125t-9 -120q0 -43 7 -86t24.5 -78t48 -57t78.5 -22q36 0 72 16t67 37t54 42t34 32zM1061 55q-12 -5 -44 -18.5t-71.5 -27t-80 -24t-70.5 -10.5
q-37 0 -62.5 9t-42 27t-25.5 44t-12 60q-23 -22 -54 -46.5t-68.5 -45.5t-80 -34.5t-88.5 -13.5q-60 0 -105.5 17t-78.5 45.5t-54.5 66t-34.5 78t-18 82t-5 78.5q0 79 17 159.5t50.5 155t83.5 139.5t115.5 113t146 75.5t176.5 27.5q28 0 55.5 -6.5t51.5 -17t44 -23.5t34 -27
l30 49h140q-5 -12 -11 -28.5t-12 -33.5t-10.5 -32t-5.5 -23q-7 -27 -20 -81.5t-28 -122.5t-30.5 -142.5t-28 -141t-20.5 -118t-8 -74.5q0 -54 24 -74t66 -20q10 0 29.5 4.5t40.5 10.5t39 11t26 7v-74zM781 1128l-297 195q-21 14 -34 34.5t-13 51.5q0 15 4.5 31t15 29
t28 21.5t44.5 8.5q22 0 37.5 -4t27.5 -10.5t21.5 -16t18.5 -20.5l274 -320h-127z" />
    <glyph glyph-name="uni0201.SngStory" horiz-adv-x="1067" 
d="M760 803q1 5 -7.5 23t-20.5 37.5t-25.5 34.5t-22.5 15q-78 0 -139.5 -25.5t-107.5 -69t-78.5 -100.5t-52.5 -119t-29 -125t-9 -120q0 -43 7 -86t24.5 -78t48 -57t78.5 -22q36 0 72 16t67 37t54 42t34 32zM1061 55q-12 -5 -44 -18.5t-71.5 -27t-80 -24t-70.5 -10.5
q-37 0 -62.5 9t-42 27t-25.5 44t-12 60q-23 -22 -54 -46.5t-68.5 -45.5t-80 -34.5t-88.5 -13.5q-60 0 -105.5 17t-78.5 45.5t-54.5 66t-34.5 78t-18 82t-5 78.5q0 79 17 159.5t50.5 155t83.5 139.5t115.5 113t146 75.5t176.5 27.5q28 0 55.5 -6.5t51.5 -17t44 -23.5t34 -27
l30 49h140q-5 -12 -11 -28.5t-12 -33.5t-10.5 -32t-5.5 -23q-7 -27 -20 -81.5t-28 -122.5t-30.5 -142.5t-28 -141t-20.5 -118t-8 -74.5q0 -54 24 -74t66 -20q10 0 29.5 4.5t40.5 10.5t39 11t26 7v-74zM559 1128l-272 199q-33 22 -33 64q0 48 32.5 79t82.5 31q41 0 59 -14.5
t35 -40.5l213 -318h-117zM938 1128l-272 199q-33 22 -33 64q0 24 9 44t24.5 34.5t36.5 23t45 8.5q41 0 60 -14.5t36 -40.5l213 -318h-119z" />
    <glyph glyph-name="acircumflex.SngStory" horiz-adv-x="1067" 
d="M760 803q1 5 -7.5 23t-20.5 37.5t-25.5 34.5t-22.5 15q-78 0 -139.5 -25.5t-107.5 -69t-78.5 -100.5t-52.5 -119t-29 -125t-9 -120q0 -43 7 -86t24.5 -78t48 -57t78.5 -22q36 0 72 16t67 37t54 42t34 32zM1061 55q-12 -5 -44 -18.5t-71.5 -27t-80 -24t-70.5 -10.5
q-37 0 -62.5 9t-42 27t-25.5 44t-12 60q-23 -22 -54 -46.5t-68.5 -45.5t-80 -34.5t-88.5 -13.5q-60 0 -105.5 17t-78.5 45.5t-54.5 66t-34.5 78t-18 82t-5 78.5q0 79 17 159.5t50.5 155t83.5 139.5t115.5 113t146 75.5t176.5 27.5q28 0 55.5 -6.5t51.5 -17t44 -23.5t34 -27
l30 49h140q-5 -12 -11 -28.5t-12 -33.5t-10.5 -32t-5.5 -23q-7 -27 -20 -81.5t-28 -122.5t-30.5 -142.5t-28 -141t-20.5 -118t-8 -74.5q0 -54 24 -74t66 -20q10 0 29.5 4.5t40.5 10.5t39 11t26 7v-74zM912 1128l-168 189l-246 -189h-143l338 347h161l201 -347h-143z" />
    <glyph glyph-name="uni1EAD.SngStory" horiz-adv-x="1067" 
d="M760 803q1 5 -7.5 23t-20.5 37.5t-25.5 34.5t-22.5 15q-78 0 -139.5 -25.5t-107.5 -69t-78.5 -100.5t-52.5 -119t-29 -125t-9 -120q0 -43 7 -86t24.5 -78t48 -57t78.5 -22q36 0 72 16t67 37t54 42t34 32zM1061 55q-12 -5 -44 -18.5t-71.5 -27t-80 -24t-70.5 -10.5
q-37 0 -62.5 9t-42 27t-25.5 44t-12 60q-23 -22 -54 -46.5t-68.5 -45.5t-80 -34.5t-88.5 -13.5q-60 0 -105.5 17t-78.5 45.5t-54.5 66t-34.5 78t-18 82t-5 78.5q0 79 17 159.5t50.5 155t83.5 139.5t115.5 113t146 75.5t176.5 27.5q28 0 55.5 -6.5t51.5 -17t44 -23.5t34 -27
l30 49h140q-5 -12 -11 -28.5t-12 -33.5t-10.5 -32t-5.5 -23q-7 -27 -20 -81.5t-28 -122.5t-30.5 -142.5t-28 -141t-20.5 -118t-8 -74.5q0 -54 24 -74t66 -20q10 0 29.5 4.5t40.5 10.5t39 11t26 7v-74zM530 -293q0 -24 -9 -44.5t-24.5 -36.5t-36 -25t-44.5 -9t-45 9t-36.5 25
t-24.5 36.5t-9 44.5t8.5 45.5t24 38t36.5 26t46 9.5q24 0 44.5 -9.5t36 -25.5t24.5 -37.5t9 -46.5zM912 1128l-168 189l-246 -189h-143l338 347h161l201 -347h-143z" />
    <glyph glyph-name="uni1EA5.SngStory" horiz-adv-x="1067" 
d="M760 803q1 5 -7.5 23t-20.5 37.5t-25.5 34.5t-22.5 15q-78 0 -139.5 -25.5t-107.5 -69t-78.5 -100.5t-52.5 -119t-29 -125t-9 -120q0 -43 7 -86t24.5 -78t48 -57t78.5 -22q36 0 72 16t67 37t54 42t34 32zM1061 55q-12 -5 -44 -18.5t-71.5 -27t-80 -24t-70.5 -10.5
q-37 0 -62.5 9t-42 27t-25.5 44t-12 60q-23 -22 -54 -46.5t-68.5 -45.5t-80 -34.5t-88.5 -13.5q-60 0 -105.5 17t-78.5 45.5t-54.5 66t-34.5 78t-18 82t-5 78.5q0 79 17 159.5t50.5 155t83.5 139.5t115.5 113t146 75.5t176.5 27.5q28 0 55.5 -6.5t51.5 -17t44 -23.5t34 -27
l30 49h140q-5 -12 -11 -28.5t-12 -33.5t-10.5 -32t-5.5 -23q-7 -27 -20 -81.5t-28 -122.5t-30.5 -142.5t-28 -141t-20.5 -118t-8 -74.5q0 -54 24 -74t66 -20q10 0 29.5 4.5t40.5 10.5t39 11t26 7v-74zM912 1128l-168 189l-246 -189h-143l338 347h161l201 -347h-143z
M1082 1811q0 -29 -13 -48.5t-36 -35.5l-307 -199h-144l279 320q10 12 21 21t24.5 16t31 10.5t40.5 3.5q27 0 46.5 -8t32 -20.5t19 -28.5t6.5 -31z" />
    <glyph glyph-name="uni1EA5.SngStory.VN" horiz-adv-x="1067" 
d="M760 803q1 5 -7.5 23t-20.5 37.5t-25.5 34.5t-22.5 15q-78 0 -139.5 -25.5t-107.5 -69t-78.5 -100.5t-52.5 -119t-29 -125t-9 -120q0 -43 7 -86t24.5 -78t48 -57t78.5 -22q36 0 72 16t67 37t54 42t34 32zM1061 55q-12 -5 -44 -18.5t-71.5 -27t-80 -24t-70.5 -10.5
q-37 0 -62.5 9t-42 27t-25.5 44t-12 60q-23 -22 -54 -46.5t-68.5 -45.5t-80 -34.5t-88.5 -13.5q-60 0 -105.5 17t-78.5 45.5t-54.5 66t-34.5 78t-18 82t-5 78.5q0 79 17 159.5t50.5 155t83.5 139.5t115.5 113t146 75.5t176.5 27.5q28 0 55.5 -6.5t51.5 -17t44 -23.5t34 -27
l30 49h140q-5 -12 -11 -28.5t-12 -33.5t-10.5 -32t-5.5 -23q-7 -27 -20 -81.5t-28 -122.5t-30.5 -142.5t-28 -141t-20.5 -118t-8 -74.5q0 -54 24 -74t66 -20q10 0 29.5 4.5t40.5 10.5t39 11t26 7v-74zM927 1128l-170 189l-246 -189h-143l340 347h159l201 -347h-141z
M1298 1638q0 -17 -11 -34t-28 -31l-248 -199l-35 49l152 211q23 31 43.5 48.5t54.5 17.5q31 0 51.5 -15t20.5 -47z" />
    <glyph glyph-name="uni1EA7.SngStory" horiz-adv-x="1067" 
d="M760 803q1 5 -7.5 23t-20.5 37.5t-25.5 34.5t-22.5 15q-78 0 -139.5 -25.5t-107.5 -69t-78.5 -100.5t-52.5 -119t-29 -125t-9 -120q0 -43 7 -86t24.5 -78t48 -57t78.5 -22q36 0 72 16t67 37t54 42t34 32zM1061 55q-12 -5 -44 -18.5t-71.5 -27t-80 -24t-70.5 -10.5
q-37 0 -62.5 9t-42 27t-25.5 44t-12 60q-23 -22 -54 -46.5t-68.5 -45.5t-80 -34.5t-88.5 -13.5q-60 0 -105.5 17t-78.5 45.5t-54.5 66t-34.5 78t-18 82t-5 78.5q0 79 17 159.5t50.5 155t83.5 139.5t115.5 113t146 75.5t176.5 27.5q28 0 55.5 -6.5t51.5 -17t44 -23.5t34 -27
l30 49h140q-5 -12 -11 -28.5t-12 -33.5t-10.5 -32t-5.5 -23q-7 -27 -20 -81.5t-28 -122.5t-30.5 -142.5t-28 -141t-20.5 -118t-8 -74.5q0 -54 24 -74t66 -20q10 0 29.5 4.5t40.5 10.5t39 11t26 7v-74zM912 1128l-168 189l-246 -189h-143l338 347h161l201 -347h-143z
M825 1528l-297 195q-21 14 -34 34.5t-13 51.5q0 15 4.5 31t15 29t28 21.5t44.5 8.5q22 0 37.5 -4t27.5 -10.5t21.5 -16t18.5 -20.5l274 -320h-127z" />
    <glyph glyph-name="uni1EA7.SngStory.VN" horiz-adv-x="1067" 
d="M760 803q1 5 -7.5 23t-20.5 37.5t-25.5 34.5t-22.5 15q-78 0 -139.5 -25.5t-107.5 -69t-78.5 -100.5t-52.5 -119t-29 -125t-9 -120q0 -43 7 -86t24.5 -78t48 -57t78.5 -22q36 0 72 16t67 37t54 42t34 32zM1061 55q-12 -5 -44 -18.5t-71.5 -27t-80 -24t-70.5 -10.5
q-37 0 -62.5 9t-42 27t-25.5 44t-12 60q-23 -22 -54 -46.5t-68.5 -45.5t-80 -34.5t-88.5 -13.5q-60 0 -105.5 17t-78.5 45.5t-54.5 66t-34.5 78t-18 82t-5 78.5q0 79 17 159.5t50.5 155t83.5 139.5t115.5 113t146 75.5t176.5 27.5q28 0 55.5 -6.5t51.5 -17t44 -23.5t34 -27
l30 49h140q-5 -12 -11 -28.5t-12 -33.5t-10.5 -32t-5.5 -23q-7 -27 -20 -81.5t-28 -122.5t-30.5 -142.5t-28 -141t-20.5 -118t-8 -74.5q0 -54 24 -74t66 -20q10 0 29.5 4.5t40.5 10.5t39 11t26 7v-74zM891 1128l-170 189l-246 -189h-143l340 347h160l200 -347h-141z
M526 1399l-168 198q-8 11 -13 21t-5 22q0 18 8.5 33.5t22 26.5t30 17.5t33.5 6.5q35 0 52 -17.5t26 -49.5l66 -211z" />
    <glyph glyph-name="uni1EAB.SngStory" horiz-adv-x="1067" 
d="M760 803q1 5 -7.5 23t-20.5 37.5t-25.5 34.5t-22.5 15q-78 0 -139.5 -25.5t-107.5 -69t-78.5 -100.5t-52.5 -119t-29 -125t-9 -120q0 -43 7 -86t24.5 -78t48 -57t78.5 -22q36 0 72 16t67 37t54 42t34 32zM1061 55q-12 -5 -44 -18.5t-71.5 -27t-80 -24t-70.5 -10.5
q-37 0 -62.5 9t-42 27t-25.5 44t-12 60q-23 -22 -54 -46.5t-68.5 -45.5t-80 -34.5t-88.5 -13.5q-60 0 -105.5 17t-78.5 45.5t-54.5 66t-34.5 78t-18 82t-5 78.5q0 79 17 159.5t50.5 155t83.5 139.5t115.5 113t146 75.5t176.5 27.5q28 0 55.5 -6.5t51.5 -17t44 -23.5t34 -27
l30 49h140q-5 -12 -11 -28.5t-12 -33.5t-10.5 -32t-5.5 -23q-7 -27 -20 -81.5t-28 -122.5t-30.5 -142.5t-28 -141t-20.5 -118t-8 -74.5q0 -54 24 -74t66 -20q10 0 29.5 4.5t40.5 10.5t39 11t26 7v-74zM912 1128l-168 189l-246 -189h-143l338 347h161l201 -347h-143z
M1179 1815q-22 -45 -50.5 -84.5t-65 -69t-81.5 -46.5t-100 -17q-42 0 -73 13.5t-63 33.5q-13 9 -26 17t-28.5 15t-34 11t-42.5 4q-13 0 -29.5 -7t-32.5 -19.5t-30 -29.5t-22 -38h-109q21 45 49.5 84.5t64.5 69t81 46.5t100 17q42 0 73.5 -13.5t63.5 -35.5q26 -15 55 -30
t76 -15q14 0 30.5 7t32.5 19.5t29.5 29.5t22.5 38h109z" />
    <glyph glyph-name="uni1EAB.SngStory.VN" horiz-adv-x="1067" 
d="M760 803q1 5 -7.5 23t-20.5 37.5t-25.5 34.5t-22.5 15q-78 0 -139.5 -25.5t-107.5 -69t-78.5 -100.5t-52.5 -119t-29 -125t-9 -120q0 -43 7 -86t24.5 -78t48 -57t78.5 -22q36 0 72 16t67 37t54 42t34 32zM1061 55q-12 -5 -44 -18.5t-71.5 -27t-80 -24t-70.5 -10.5
q-37 0 -62.5 9t-42 27t-25.5 44t-12 60q-23 -22 -54 -46.5t-68.5 -45.5t-80 -34.5t-88.5 -13.5q-60 0 -105.5 17t-78.5 45.5t-54.5 66t-34.5 78t-18 82t-5 78.5q0 79 17 159.5t50.5 155t83.5 139.5t115.5 113t146 75.5t176.5 27.5q28 0 55.5 -6.5t51.5 -17t44 -23.5t34 -27
l30 49h140q-5 -12 -11 -28.5t-12 -33.5t-10.5 -32t-5.5 -23q-7 -27 -20 -81.5t-28 -122.5t-30.5 -142.5t-28 -141t-20.5 -118t-8 -74.5q0 -54 24 -74t66 -20q10 0 29.5 4.5t40.5 10.5t39 11t26 7v-74zM932 1128l-170 189l-243 -189h-146l340 347h162l201 -347h-144z
M1228 1752q-21 -45 -49 -84.5t-64 -69t-81.5 -46.5t-100.5 -17q-42 0 -73.5 13.5t-63.5 33.5q-12 9 -25 17t-28 15t-33.5 11t-42.5 4q-14 0 -30.5 -7t-33 -19.5t-30.5 -29.5t-23 -38h-106q21 45 48.5 84.5t64 69t81.5 46.5t101 17q42 0 73.5 -13.5t63.5 -33.5q26 -17 55 -32
t76 -15q13 0 29.5 7t32.5 19.5t30 29.5t23 38h106z" />
    <glyph glyph-name="uni1EA9.SngStory" horiz-adv-x="1067" 
d="M760 803q1 5 -7.5 23t-20.5 37.5t-25.5 34.5t-22.5 15q-78 0 -139.5 -25.5t-107.5 -69t-78.5 -100.5t-52.5 -119t-29 -125t-9 -120q0 -43 7 -86t24.5 -78t48 -57t78.5 -22q36 0 72 16t67 37t54 42t34 32zM1061 55q-12 -5 -44 -18.5t-71.5 -27t-80 -24t-70.5 -10.5
q-37 0 -62.5 9t-42 27t-25.5 44t-12 60q-23 -22 -54 -46.5t-68.5 -45.5t-80 -34.5t-88.5 -13.5q-60 0 -105.5 17t-78.5 45.5t-54.5 66t-34.5 78t-18 82t-5 78.5q0 79 17 159.5t50.5 155t83.5 139.5t115.5 113t146 75.5t176.5 27.5q28 0 55.5 -6.5t51.5 -17t44 -23.5t34 -27
l30 49h140q-5 -12 -11 -28.5t-12 -33.5t-10.5 -32t-5.5 -23q-7 -27 -20 -81.5t-28 -122.5t-30.5 -142.5t-28 -141t-20.5 -118t-8 -74.5q0 -54 24 -74t66 -20q10 0 29.5 4.5t40.5 10.5t39 11t26 7v-74zM912 1128l-168 189l-246 -189h-143l338 347h161l201 -347h-143z
M963 1825q0 -36 -14.5 -65t-38.5 -51.5t-53.5 -38.5t-59.5 -27l-23 -115h-70l31 152q27 7 51 17.5t42.5 27t29 39t10.5 53.5q0 11 -2 23t-7.5 22t-14.5 16.5t-23 6.5q-17 0 -29 -8.5t-21 -21t-16 -27.5t-14 -27q-9 -6 -19.5 -10.5t-23.5 -4.5q-21 0 -32 14t-11 34
q0 27 19.5 48t47 35.5t57 22.5t50.5 8q57 0 95.5 -32t38.5 -91z" />
    <glyph glyph-name="uni1EA9.SngStory.VN" horiz-adv-x="1067" 
d="M760 803q1 5 -7.5 23t-20.5 37.5t-25.5 34.5t-22.5 15q-78 0 -139.5 -25.5t-107.5 -69t-78.5 -100.5t-52.5 -119t-29 -125t-9 -120q0 -43 7 -86t24.5 -78t48 -57t78.5 -22q36 0 72 16t67 37t54 42t34 32zM1061 55q-12 -5 -44 -18.5t-71.5 -27t-80 -24t-70.5 -10.5
q-37 0 -62.5 9t-42 27t-25.5 44t-12 60q-23 -22 -54 -46.5t-68.5 -45.5t-80 -34.5t-88.5 -13.5q-60 0 -105.5 17t-78.5 45.5t-54.5 66t-34.5 78t-18 82t-5 78.5q0 79 17 159.5t50.5 155t83.5 139.5t115.5 113t146 75.5t176.5 27.5q28 0 55.5 -6.5t51.5 -17t44 -23.5t34 -27
l30 49h140q-5 -12 -11 -28.5t-12 -33.5t-10.5 -32t-5.5 -23q-7 -27 -20 -81.5t-28 -122.5t-30.5 -142.5t-28 -141t-20.5 -118t-8 -74.5q0 -54 24 -74t66 -20q10 0 29.5 4.5t40.5 10.5t39 11t26 7v-74zM909 1128l-168 189l-245 -189h-144l338 347h162l201 -347h-144z
M1258 1608q0 -37 -15 -66.5t-39.5 -52t-55 -39t-60.5 -27.5l-23 -98h-68l23 133q28 7 53 18.5t44 28t30.5 40t11.5 54.5q0 11 -2.5 23t-8 22t-14.5 16.5t-22 6.5q-19 0 -31.5 -7.5t-21.5 -19.5t-15.5 -27t-13.5 -30q-11 -6 -24 -10t-25 -4q-41 0 -41 41q0 29 19.5 52
t48 38.5t59.5 24t55 8.5q59 0 97.5 -32.5t38.5 -92.5z" />
    </font>
</defs>
</svg>
