<?xml version="1.0" standalone="no"?>
<!DOCTYPE svg PUBLIC "-//W3C//DTD SVG 1.1//EN" "http://www.w3.org/Graphics/SVG/1.1/DTD/svg11.dtd" >
<svg>
<metadata>
Created by FontForge 20120731 at Wed Apr 17 19:48:26 2019
 By www-data
Digitized by Dan X. Solo. Software (c) 2000 by Dover Publications, Inc., New York.
</metadata>
<defs>
<font id="Alcazar" horiz-adv-x="20" >
  <font-face 
    font-family="Alcazar"
    font-weight="400"
    font-stretch="normal"
    units-per-em="1000"
    panose-1="0 0 4 0 0 0 0 0 0 0"
    ascent="800"
    descent="-200"
    x-height="521"
    cap-height="672"
    bbox="-36 -191 859 863"
    underline-thickness="20"
    underline-position="-123"
    unicode-range="U+0020-F002"
  />
<missing-glyph horiz-adv-x="500" 
d="M63 0v800h375v-800h-375zM125 63h250v675h-250v-675z" />
    <glyph glyph-name=".notdef" horiz-adv-x="500" 
d="M63 0v800h375v-800h-375zM125 63h250v675h-250v-675z" />
    <glyph glyph-name=".null" horiz-adv-x="0" 
 />
    <glyph glyph-name="glyph2" horiz-adv-x="202" 
 />
    <glyph glyph-name="space" unicode=" " horiz-adv-x="202" 
 />
    <glyph glyph-name="exclam" unicode="!" horiz-adv-x="328" 
d="M109 223l-53 371l-50 78h267q-49 -73 -55 -181l-46 -268h-63zM235 91q0 -41 -28 -70t-69 -29q-40 0 -68.5 29t-28.5 70q0 38 29.5 67t67.5 29q40 0 68.5 -28t28.5 -68z" />
    <glyph glyph-name="quotedbl" unicode="&#x22;" horiz-adv-x="354" 
d="M228 382l-48 291h129l-40 -291h-41zM58 382l-48 291h129l-40 -291h-41z" />
    <glyph glyph-name="numbersign" unicode="#" horiz-adv-x="527" 
d="M217 447l-29 -208h97l30 208h-98zM168 676h83l-22 -149h97l22 149h83l-22 -149h76l-10 -80h-77l-30 -208h79l-10 -81h-80l-24 -159h-83l23 159h-97l-24 -159h-83l24 159h-85l10 81h87l29 208h-88l10 80h90z" />
    <glyph glyph-name="dollar" unicode="$" horiz-adv-x="499" 
d="M158 676h93v-70q126 0 172 -117q-43 -15 -64 -24q-36 -16 -57 -35q-17 32 -31 44q-19 15 -51 15l-24 -10l-11 -25q0 -23 71 -46q96 -31 130 -53q71 -46 71 -123q0 -71 -67 -107l29 -39h-168v-86h-93v86q-90 0 -119 28q-26 25 -41 117q17 -6 39 -6q20 0 48 18q38 24 47 27
q6 -23 34 -43t52 -20q52 0 52 34q0 25 -68 49q-97 34 -128 54q-68 45 -68 120q0 61 58 104q-15 13 -31 38h125v70z" />
    <glyph glyph-name="percent" unicode="%" horiz-adv-x="755" 
d="M700 105q0 -29 -38 -74q8 -8 24 -29h-151q-39 0 -72 42t-33 77l1 160q1 42 35 74q-10 12 -27 38h169q40 0 68 -44q24 -38 24 -81v-163zM563 298q-14 0 -21 -6t-7 -32v-112q0 -32 15 -38q7 -3 16 -3q16 0 22 9q5 6 5 30v110q-1 30 -11 36q-6 6 -19 6zM424 675h92
l-251 -671h-92zM270 388q0 -29 -38 -74q8 -8 24 -29h-151q-39 0 -72 42t-33 77l1 160q1 42 35 74q-10 12 -27 38h169q40 0 68 -44q24 -38 24 -81v-163zM133 581q-14 0 -21 -6t-7 -32v-112q0 -32 15 -38q7 -3 16 -3q15 0 23 11q4 6 4 28v110q-1 30 -11 36q-6 6 -19 6z" />
    <glyph glyph-name="ampersand" unicode="&#x26;" horiz-adv-x="738" 
d="M697 248q0 -85 -59 -147q-19 -20 -20 -23q8 -9 55 -78h-305q-1 0 -20 7q-72 27 -132 90q-11 -5 -11 -33q0 -31 14 -64l-189 1q-25 40 -25 84q0 169 123 221q-29 72 -29 131q0 31 17.5 72t39.5 64q12 12 47 34q-14 28 -31 66l300 -1q52 0 88 -48q33 -44 33 -98
q0 -99 -90 -174q-45 -37 -175 -105q20 -88 116 -88q27 0 54 12q35 16 35 37q0 -18 -14 21.5t-14 51.5q0 37 28 58q26 18 64 18q100 0 100 -109zM420 489q0 13 -11.5 21t-25.5 8q-43 0 -69 -28.5t-26 -71.5q0 -17 3 -32q129 72 129 103z" />
    <glyph glyph-name="quotesingle" unicode="'" horiz-adv-x="184" 
d="M58 382l-48 291h129l-40 -291h-41z" />
    <glyph glyph-name="parenleft" unicode="(" horiz-adv-x="348" 
d="M6 289q-5 -315 226 -459q25 -16 49 -21q14 14 15 21q0 2 -17.5 26t-20.5 30q-92 200 -88 397q4 218 119 426l-36 20q-17 -13 -60 -49q-183 -169 -187 -391z" />
    <glyph glyph-name="parenright" unicode=")" horiz-adv-x="348" 
d="M309 289q6 -314 -226 -459q-25 -16 -50 -21q-14 14 -14 21q0 2 17 26t20 30q92 203 89 397q-4 217 -119 426l36 20q18 -13 60 -49q183 -170 187 -391z" />
    <glyph glyph-name="asterisk" unicode="*" horiz-adv-x="348" 
d="M293 516l-32 -55l-94 72l20 -118h-65l16 117l-93 -76l-32 55l110 45l-113 43l32 55l94 -72l-20 118h65l-16 -117l93 76l32 -55l-110 -45z" />
    <glyph glyph-name="plus" unicode="+" horiz-adv-x="553" 
d="M207 61v207h-208v98h208v208h98v-208h208v-98h-208v-207h-98z" />
    <glyph glyph-name="comma" unicode="," horiz-adv-x="228" 
d="M202 89q0 -103 -115 -161l-15 -8q-2 0 -10.5 15.5t-9.5 19.5q33 19 44 43q-46 20 -64 36q-28 25 -28 66t28.5 69t69.5 28q44 0 72 -32t28 -76z" />
    <glyph glyph-name="hyphen" unicode="-" horiz-adv-x="253" 
d="M-1 326h214v-98h-214v98z" />
    <glyph glyph-name="hyphen" unicode="&#x2010;" horiz-adv-x="253" 
d="M-1 326h214v-98h-214v98z" />
    <glyph glyph-name="period" unicode="." horiz-adv-x="235" 
d="M216 101q0 -41 -28 -70t-69 -29q-40 0 -68.5 29t-28.5 70q0 38 29.5 67t67.5 29q40 0 68.5 -28t28.5 -68z" />
    <glyph glyph-name="slash" unicode="/" horiz-adv-x="263" 
d="M171 684h86l-180 -695h-86z" />
    <glyph glyph-name="zero" unicode="0" horiz-adv-x="558" 
d="M494 425q0 -90 -1 -269q-6 -46 -41 -82q-2 -2 22 -34q26 -37 28 -39h-358q-38 2 -72 34q-29 28 -46 68q-22 52 -22 110l-1 284q1 15 2 31q3 26 21 49q12 15 22 22.5t10 6.5q0 2 -19 23q-24 26 -38 46q205 -3 329 0q42 1 85 -37q38 -34 57 -78q23 -53 22 -135zM330 428
q0 83 -60 83h-39q-31 0 -43 -17t-12 -64v-207q0 -18 11 -34q13 -19 35 -21q9 -1 55 0q43 1 52 52v104q1 72 1 104z" />
    <glyph glyph-name="one" unicode="1" horiz-adv-x="364" 
d="M305 1l-250 -1q13 31 25 99t12 105v274q0 46 -15 78q-10 23 -45 68q28 0 136 47q92 1 133 0q-36 -102 -36 -226l1 -387q12 -18 39 -57z" />
    <glyph glyph-name="two" unicode="2" horiz-adv-x="563" 
d="M506 1h-502q0 1 2 7t3 10q-1 -4 -1 15q0 130 75 226q42 54 140 124q76 55 78 84q3 56 -50 56q-60 0 -86 -84q-62 49 -167 64q11 51 17 64q14 33 47 59q5 4 -19 46h280q78 0 124 -60q41 -54 41 -135q0 -103 -65 -155q-62 -46 -186 -139q1 -2 5 -7l230 1v-117
q16 -26 34 -59z" />
    <glyph glyph-name="three" unicode="3" horiz-adv-x="559" 
d="M506 193q0 -37 -18 -76q-20 -45 -50 -57l47 -59h-320q-60 0 -108 64q-40 53 -50 113q28 2 84.5 18.5t79.5 30.5q8 -36 24.5 -49.5t53.5 -13.5q74 0 78 57q2 22 -10.5 39.5t-34.5 17.5h-90q-4 25 -21 64q-20 47 -25 64h145q16 0 27 19.5t9 35.5q-3 35 -30 46q-16 7 -46 7
q-32 0 -46 -6q-27 -11 -40 -51q-86 39 -158 55q2 15 4 31q5 22 18 40q8 27 51 54q0 3 -8 18t-9 20h271q92 0 133 -78q27 -50 27 -123q0 -98 -79 -128q51 -25 68 -50q23 -33 23 -103z" />
    <glyph glyph-name="four" unicode="4" horiz-adv-x="563" 
d="M551 208q-76 -64 -144 -75q-1 -7 -1 -15q0 -38 53 -117l-256 1q33 71 30 125q-84 1 -157.5 39t-73.5 124q0 75 65 177q57 90 131 160q-10 16 -29 47h256l-24 -74v-320q-2 1 2.5 4t8.5 3q17 0 72 41q16 -35 67 -120zM235 272v86q0 25 -7 76l-40 -58q-29 -42 -27 -61
q5 -43 60 -43h14z" />
    <glyph glyph-name="five" unicode="5" horiz-adv-x="562" 
d="M504 221q0 -96 -57 -160l32 -59l-301 -1q-75 0 -128 80q-43 65 -42 119l154 37q1 -29 23.5 -48.5t52.5 -19.5h38q52 0 52 60q0 87 -132 79q-113 -6 -174 -35l60 339q-5 20 -23 60h431q-12 -46 -29 -165h-181q-53 -5 -58 -34l-7 -37q22 1 42 1q110 0 176 -52
q71 -57 71 -164z" />
    <glyph glyph-name="six" unicode="6" horiz-adv-x="560" 
d="M489 493q-85 -2 -161 -38q-6 37 -26 50q-16 11 -54 11q-71 0 -78 -43q-1 -12 0 -67q0 -2 97 0q234 6 234 -201q0 -59 -23 -103q-11 -22 -41 -47l43 -54h-299q-77 0 -131 64q-50 59 -50 129v325q16 72 75 97q0 3 -18 28.5t-20 29.5h299q67 0 114 -64q39 -53 39 -98v-19z
M333 209q2 20 -11 37.5t-36 17.5h-116v-45q0 -34 29 -48q14 -7 49 -7q46 0 62 7q20 9 23 38z" />
    <glyph glyph-name="seven" unicode="7" horiz-adv-x="558" 
d="M502 672q-219 -465 -219 -589q0 -17 11 -33q18 -18 44 -50h-245q16 134 102 316q11 23 96 195h-250v99l-45 63z" />
    <glyph glyph-name="eight" unicode="8" horiz-adv-x="510" 
d="M460 164q0 -40 -12 -67q-3 -7 -18 -27.5t-15 -22.5q0 -3 13.5 -22.5t15.5 -24.5h-294q-73 0 -118 76q-33 55 -33 106q0 113 97 165q-91 58 -89 147q2 59 21 90q14 22 34 34q17 10 17 8q0 2 -14.5 22t-16.5 24l259 1q66 0 106 -57q37 -52 35 -119q-4 -103 -87 -150
q99 -69 99 -183zM293 470q0 23 -20.5 37t-44.5 14t-43 -13q-22 -15 -22 -38t22 -37q19 -13 43 -13t44.5 13.5t20.5 36.5zM301 217q0 60 -69 60q-75 0 -75 -57q0 -58 78 -58q25 0 45.5 15t20.5 40z" />
    <glyph glyph-name="nine" unicode="9" horiz-adv-x="565" 
d="M510 216q0 -47 -17 -83q-7 -15 -29 -52q-7 -10 -27 -27q4 -6 31 -53l-292 -1q-65 0 -115 57q-47 53 -54 120q91 1 175 37q-2 -50 86 -50q51 0 63 25q7 14 7 71h-119q-92 0 -152 54t-60 145q0 115 65 156q6 3 -40 58l306 -2q71 0 121.5 -53.5t50.5 -124.5v-277zM249 516
q-29 0 -52 -14q-26 -16 -26 -43q0 -25 18 -40t45 -15q-5 0 30 0h80q-1 -2 -1 21q0 49 -22.5 70t-71.5 21z" />
    <glyph glyph-name="colon" unicode=":" horiz-adv-x="263" 
d="M220 348q0 -43 -27 -70.5t-70 -27.5q-39 0 -67 28.5t-28 67.5q0 40 28.5 68t68.5 28q41 0 68 -26.5t27 -67.5zM214 97q0 -41 -28 -69t-69 -28q-39 0 -68.5 27t-29.5 66q0 41 30 70t71 29q39 0 66.5 -28t27.5 -67z" />
    <glyph glyph-name="semicolon" unicode=";" horiz-adv-x="263" 
d="M222 349q0 -37 -29.5 -68t-66.5 -31h-14q-34 0 -59.5 31.5t-25.5 66.5q0 41 29 69t70 28q39 0 67.5 -28.5t28.5 -67.5zM222 89q0 -103 -115 -161l-15 -8q-2 0 -10.5 15.5t-9.5 19.5q33 19 44 43q-46 20 -64 36q-28 25 -28 66t28.5 69t69.5 28q44 0 72 -32t28 -76z" />
    <glyph glyph-name="less" unicode="&#x3c;" horiz-adv-x="467" 
d="M351 569l41 -41l-282 -192l281 -191l-40 -41l-343 232z" />
    <glyph glyph-name="equal" unicode="=" horiz-adv-x="460" 
d="M-1 406h414v-98h-414v98zM-1 226h414v-98h-414v98z" />
    <glyph glyph-name="greater" unicode="&#x3e;" horiz-adv-x="467" 
d="M49 104l-41 41l282 192l-281 191l41 41l342 -233z" />
    <glyph glyph-name="question" unicode="?" horiz-adv-x="538" 
d="M471 486q0 -77 -39 -130q-26 -35 -133 -88q-12 -6 -21 -27q0 -11 -3 -29h-149v24q0 51 42 104q16 20 78 78q41 38 41 57q0 36 -47 36q-51 0 -76 -69q-37 29 -83 49q-51 22 -81 20q-6 31 35 85q20 26 41 38l-25 41h277q31 0 70 -36q36 -32 51 -64q22 -46 22 -89zM301 83
q0 -41 -29 -69t-70 -28q-39 0 -67.5 28.5t-28.5 67.5q0 40 29.5 68t69.5 28q39 0 67.5 -28t28.5 -67z" />
    <glyph glyph-name="at" unicode="@" horiz-adv-x="762" 
d="M699 379q0 -110 -56.5 -179.5t-138.5 -69.5q-92 0 -99 75q-54 -65 -129 -65q-42 0 -71 31q-32 34 -32 94q0 110 59 184q65 82 176 82q60 0 116 -30q-11 -36 -54 -232q-6 -26 -6 -43q0 -39 43 -39q47 0 82 56t35 136q0 102 -73 172q-76 71 -193 71q-122 0 -203 -93
q-77 -89 -77 -211q0 -112 77 -185.5t187 -73.5q65 0 124 19l16 -58q-61 -20 -140 -20q-143 0 -237 82q-102 88 -102 236q0 153 100.5 257t254.5 104q147 0 243 -81q98 -84 98 -219zM438 469q-13 6 -36 6q-75 0 -118 -71q-36 -60 -36 -142q0 -60 46 -60q31 0 62 28
q37 32 48 85z" />
    <glyph glyph-name="A" unicode="A" horiz-adv-x="598" 
d="M564 0h-235q25 40 25 81q0 -12 -5 53l-120 -35q-11 -33 -11 -40q0 -16 22 -59q-78 -1 -136 -1t-97 1q38 41 75 198q31 130 80 409l-31 67h306q-18 -33 -18 -79q0 -20 7 -54q53 -261 105 -482q3 -11 15 -29q15 -21 18 -30zM332 252q-17 78 -52 214l-38 -237z" />
    <glyph glyph-name="B" unicode="B" horiz-adv-x="623" 
d="M564 189q0 -59 -47 -124q-14 -20 -16 -24l24 -42l-503 2q45 98 45 206v388l-47 78l391 -2q64 0 109 -62q40 -56 40 -123q0 -93 -73 -143q77 -51 77 -154zM382 461q0 51 -58 51h-87l-3 -102h93q24 0 39.5 14t15.5 37zM388 219q0 19 -11 35t-29 16h-111v-109h113
q18 0 29 21q9 17 9 37z" />
    <glyph glyph-name="C" unicode="C" horiz-adv-x="553" 
d="M504 166q1 -67 -63 -131q7 -9 25 -36l-292 1q-54 0 -101 53q-45 50 -45 106v336q0 23 20.5 64t20.5 35q0 6 -41 80h335q49 0 92.5 -51.5t43.5 -101.5v-38q-58 -7 -77 -10q-45 -9 -74 -23q-6 56 -78 56q-70 0 -70 -42q0 -16 1 -53v-69v-122q0 -28 25 -45q22 -15 51 -15
q36 0 45 4q16 7 29 38q58 -31 153 -36z" />
    <glyph glyph-name="D" unicode="D" horiz-adv-x="607" 
d="M381 227v194q0 23 -12 50q-15 32 -34 32l-106 1q-1 -5 -1 -10l1 -331l106 2q18 0 33 23q13 20 13 39zM546 156q0 -20 -12.5 -49t-26.5 -44q13 -21 37 -63h-527q3 12 25 89q15 53 15 91v415l-43 79h347q180 0 184 -176q1 -41 1 -342z" />
    <glyph glyph-name="E" unicode="E" horiz-adv-x="554" 
d="M522 0h-514q16 36 28.5 93.5t12.5 97.5l-1 400q-7 13 -46 83h512q-37 -48 -37 -113q0 -12 3 -51h-261q1 -61 0 -88h148q8 -101 36 -154h-181v-101h253v-60q0 -39 11 -59z" />
    <glyph glyph-name="F" unicode="F" horiz-adv-x="551" 
d="M509 219q0 -35 -24 -54.5t-60 -19.5q-44 0 -86.5 34.5t-52.5 78.5q-5 0 -67 -1v-189q15 -22 46 -68h-252q39 111 39 191v407l-52 76h504q-24 -84 -30 -171l-258 -1l1 -94h146q2 -28 8.5 -82t37.5 -74q21 21 46 21q20 0 37 -17t17 -37z" />
    <glyph glyph-name="G" unicode="G" horiz-adv-x="560" 
d="M507 212q0 -56 -16 -95q-2 -6 -20 -31.5t-18 -28.5q0 -6 31 -57l-260 -1q-44 0 -60 5q-69 21 -104 87q-30 56 -30 135v265q0 27 23 66l23 39q0 3 -20 36q-23 38 -24 40h298q63 0 112 -61q42 -54 51 -121q-113 -16 -151 -38q-3 34 -37 42q-9 2 -61 2q-49 0 -49 -34v-254
q0 -47 35 -47q41 0 88 1q37 1 37 44q0 22 -17 36q-20 -7 -32 -7q-29 0 -47 26q-15 22 -15 53q0 42 37 69q33 25 76 25q68 0 112 -66q38 -58 38 -130z" />
    <glyph glyph-name="H" unicode="H" horiz-adv-x="587" 
d="M570 0h-256q40 90 40 214q0 54 -38 54h-64q-23 0 -40 24v-232q28 -38 46 -60q-53 -1 -83 -1l-181 1q19 21 33 76q13 49 13 84v434q-17 19 -49 78h254q-25 -58 -31 -88q-8 -33 -8 -92q0 -54 23 -68q5 -3 53 -8q44 -4 70 -28v208l-41 76h252q-41 -50 -41 -232v-378z" />
    <glyph glyph-name="I" unicode="I" horiz-adv-x="313" 
d="M272 0h-257q41 104 41 198v396q0 12 -50 78h258q-38 -104 -38 -188v-420z" />
    <glyph glyph-name="J" unicode="J" horiz-adv-x="533" 
d="M499 673q-24 -69 -32 -100q-12 -48 -12 -95v-217q0 -113 -17 -163q-4 -11 -25.5 -28t-21.5 -31l22 -37h-297q-50 0 -95 54q24 46 27 54q11 25 11 49q-55 28 -55 74q0 34 21.5 57.5t55.5 23.5q35 0 59.5 -22.5t24.5 -57.5q0 -21 -21 -53q23 -26 70 -26q63 0 70 48l1 390
q-18 26 -53 80h267z" />
    <glyph glyph-name="K" unicode="K" horiz-adv-x="638" 
d="M618 1l-234 1q-20 83 -85 218q-18 -17 -51 -81q-29 -57 -29 -63q6 -12 41 -75h-256q10 29 28 87q12 41 12 83v423q0 11 -15 34l-28 44h275q-33 -55 -40 -81q-10 -36 -10 -84v-72l135 181q-12 18 -30 57h273q-44 -48 -111 -135q-90 -116 -90 -138q0 -5 25 -61
q9 -22 22 -50l20 -42l58 -134q37 -73 90 -112z" />
    <glyph glyph-name="L" unicode="L" horiz-adv-x="576" 
d="M540 229q0 -51 -47 -76v-93q11 -18 41 -60l-525 1q9 22 27 67q19 54 19 131l-1 394q0 10 -48 80h256q-7 -18 -19 -55q-14 -47 -14 -86v-370h181q-33 34 -33 71q0 80 84 80q32 0 55.5 -26t23.5 -58z" />
    <glyph glyph-name="M" unicode="M" horiz-adv-x="803" 
d="M721 60q19 -24 41 -59h-249q14 25 24 80q9 47 9 84l2 222l-113 -328q6 -18 30 -59h-150q0 115 -110 381v-320q19 -26 43 -61h-229l24 68q15 42 15 94v437l-47 74h284q-1 -40 13 -87q19 -61 90 -242l86 259q-13 22 -40 70h317q-43 -56 -42 -214z" />
    <glyph glyph-name="N" unicode="N" horiz-adv-x="586" 
d="M548 672q-33 -65 -41 -152v-459l14 -61h-213q-6 88 -111 351v-285q18 -22 47 -65h-232q42 41 42 150l1 446q-15 25 -43 75l219 1q48 -132 140 -372q5 2 5 97q0 72 -3 196l-62 78h237z" />
    <glyph glyph-name="O" unicode="O" horiz-adv-x="564" 
d="M517 -1h-361q-51 0 -93 64q-37 57 -37 111v327l6 54q9 42 45 64l-55 54l344 -1q35 0 71 -31q64 -54 67 -124q2 -34 4 -42v-322q-7 -53 -36 -87q17 -23 45 -67zM342 217l1 244q0 49 -78 49q-32 0 -47 -7q-24 -11 -24 -44v-238q0 -38 28 -51q13 -6 48 -6q72 0 72 53z" />
    <glyph glyph-name="P" unicode="P" horiz-adv-x="607" 
d="M483 121q0 -25 -18.5 -42t-43.5 -17q-26 0 -44 18t-18 44q0 23 18 42t41 19q27 0 46 -18.5t19 -45.5zM570 462q0 -82 -59 -147t-140 -65h-135v-187q16 -18 50 -62h-269q9 21 25 63q18 50 18 107l-1 427q-7 10 -50 75h365q77 0 138 -67q58 -66 58 -144zM396 453
q0 45 -68 46l-92 1v-98h91q69 0 69 51z" />
    <glyph glyph-name="Q" unicode="Q" horiz-adv-x="580" 
d="M577 160l-28 -74q-16 -43 -17 -86h-37h-20q-5 1 -2 1q-37 -3 -58 52q-29 -46 -63 -52h-171q-61 0 -104 58q-40 55 -40 110v337q0 50 12 74q7 14 40 40l-45 52h320q57 0 97 -59q32 -47 32 -88v-324q0 -41 50 -41h34zM328 216v219q0 42 -10 58q-14 20 -54 20q-43 0 -56 -20
q-7 -11 -7 -53v-222q8 -55 66 -52q61 3 61 50z" />
    <glyph glyph-name="R" unicode="R" horiz-adv-x="624" 
d="M589 1h-198q-30 25 -38 95q-5 48 -11 111q-10 54 -46 54h-66l2 -197l43 -64l-268 1q30 55 38.5 90.5t8.5 97.5l1 409l-45 74h394q16 0 50 -15q103 -45 102 -171q0 -61 -20.5 -99t-71.5 -69q37 -41 60.5 -153.5t64.5 -163.5zM370 455q0 62 -66 62h-73q-1 -32 0 -113l79 1
q14 0 35 3q25 10 25 47z" />
    <glyph glyph-name="S" unicode="S" horiz-adv-x="515" 
d="M476 185q0 -85 -62 -126q-2 -2 15 -24q23 -29 26 -34h-283q-51 0 -105.5 62t-56.5 115q11 -1 22 -1q68 0 139 43q29 -60 74 -60q20 0 37.5 10.5t17.5 29.5q0 32 -73 59q-98 36 -135 64q-73 55 -76 157q-3 107 64 138l-35 55h232q66 0 122 -49.5t60 -114.5
q-63 -10 -150 -52q-10 18 -19 35q-12 17 -46 17q-52 0 -52 -37q0 -23 74 -52q97 -38 137 -72q73 -61 73 -163z" />
    <glyph glyph-name="T" unicode="T" horiz-adv-x="553" 
d="M502 323q0 -25 -19 -43.5t-44 -18.5q-22 0 -43 21.5t-21 43.5q0 25 20.5 42t45.5 17t43 -18.5t18 -43.5zM529 673q-44 -87 -41 -174h-138v-440q15 -18 47 -58h-254q39 123 39 205v297h-136v99q-20 24 -54 71h537zM154 333q0 -26 -16 -45t-42 -19q-28 0 -46 17.5t-18 45.5
q0 23 17 41t40 18q24 0 44.5 -17t20.5 -41z" />
    <glyph glyph-name="U" unicode="U" horiz-adv-x="590" 
d="M567 673q-18 -26 -34 -75t-16 -79v-329q0 -110 -59 -143q10 -16 29 -47h-315q-60 0 -96 64q-28 50 -28 85v455q0 1 -23.5 31.5t-26.5 36.5h257q-37 -106 -37 -189v-272q0 -59 78 -54q36 2 46 6q29 11 29 48l1 396q-11 17 -43 66h238z" />
    <glyph glyph-name="V" unicode="V" horiz-adv-x="552" 
d="M541 672q-47 -65 -74 -161q-16 -59 -44 -165l-75 -287q2 -14 32 -58h-222q20 44 18 107t-57 240q-60 194 -71 259q-18 24 -47 66l237 -1q-19 -39 -19 -82q0 -19 4 -36l56 -234q5 28 60 287q-14 29 -35 65h237z" />
    <glyph glyph-name="W" unicode="W" horiz-adv-x="850" 
d="M820 672q-36 -72 -37 -75q-22 -46 -30 -77q-13 -50 -43 -198q-42 -206 -42 -264q0 -17 32 -57h-242q11 29 11 75q0 98 -50 253l-65 -271q10 -16 29 -57h-263q24 33 24 118q0 90 -96 484l-54 69l237 1q-22 -30 -22 -74q0 -15 4 -33q18 -80 59 -260l57 300l-40 66h238
q-24 -63 -24 -96q0 -9 1 -19l59 -256l61 308q-3 11 -18.5 31t-19.5 32h234z" />
    <glyph glyph-name="X" unicode="X" horiz-adv-x="642" 
d="M616 1h-235q2 75 -60 168q-54 -104 -54 -111q11 -23 25 -57h-281q44 38 79 93q24 38 75 129q59 105 59 115q0 28 -92 169q-89 136 -121 165h233q-1 -23 14 -69q9 -28 50 -98q15 21 36 64q19 38 19 43q0 17 -15 59h251q-70 -59 -92 -117q-113 -206 -113 -219
q0 -14 93 -158q96 -149 129 -176z" />
    <glyph glyph-name="Y" unicode="Y" horiz-adv-x="550" 
d="M522 672q-11 -21 -37.5 -59.5t-41.5 -78.5q-41 -107 -94 -253v-217l28 -63h-245q8 14 23 43q17 33 17 58v179q-25 66 -83 228q-31 92 -96 164h251q-13 -20 -26 -41q-9 -18 -7 -46l63 -187q5 19 37 115q30 90 30 95q-4 11 -26 63h207zM514 253q0 -26 -16 -45t-42 -19
q-28 0 -46 17.5t-18 45.5q0 23 17 41t40 18q24 0 44.5 -17t20.5 -41zM134 253q0 -26 -16 -45t-42 -19q-28 0 -46 17.5t-18 45.5q0 23 17 41t40 18q24 0 44.5 -17t20.5 -41z" />
    <glyph glyph-name="Z" unicode="Z" horiz-adv-x="571" 
d="M541 0h-527l232 503h-174v100q-16 21 -50 69h514q-75 -86 -141 -236q-26 -59 -116 -267q1 -1 122 -1q-17 28 -17 47q0 24 18.5 39.5t42.5 15.5q27 0 43.5 -16t16.5 -42q0 -13 -8 -31.5t-8 -30.5q0 -49 7 -72q10 -34 45 -78z" />
    <glyph glyph-name="bracketleft" unicode="[" horiz-adv-x="182" 
d="M139 676v-52h-72v-630h72v-52h-71q-47 1 -69 1v733h140z" />
    <glyph glyph-name="backslash" unicode="\" horiz-adv-x="263" 
d="M77 684h-86l180 -695h86z" />
    <glyph glyph-name="bracketright" unicode="]" horiz-adv-x="182" 
d="M-1 -58v52h72v630h-72v52h71.5h68.5v-734h-140z" />
    <glyph glyph-name="asciicircum" unicode="^" horiz-adv-x="369" 
d="M190 741l-118 -42l-18 25l135 81h1v0l1 -1l134 -80l-18 -25z" />
    <glyph glyph-name="underscore" unicode="_" horiz-adv-x="411" 
d="M-1 -77h412v-49h-412v49z" />
    <glyph glyph-name="grave" unicode="`" horiz-adv-x="554" 
d="M403 727l-199 106l-34 -68l222 -66z" />
    <glyph glyph-name="a" unicode="a" horiz-adv-x="442" 
d="M426 1h-319q-58 0 -86 70q-17 43 -17 77q0 89 63 132q40 27 117 39q62 9 62 17q0 49 -45 49q-54 0 -60 -40q-66 24 -134 41q10 36 65 103q0 2 -12.5 13.5t-13.5 17.5l226 1q89 0 109 -138q7 -52 4 -59l-1 -259zM243 167v67h-25q-12 0 -39 -12q-35 -16 -35 -43
q0 -35 53 -35q46 0 46 23z" />
    <glyph glyph-name="b" unicode="b" horiz-adv-x="479" 
d="M416 342l1 -200q-1 -21 -21.5 -56.5l-20.5 -35.5q0 -3 14.5 -24t16.5 -25h-202q-9 12 -26 29q-3 -2 -29 -29h-145q30 59 30 158v449q-4 10 -25 62h187q-18 -41 -18 -108v-69q46 35 84 35q154 0 154 -186zM279 322q5 53 -54 53q-53 0 -54 -53q-1 -49 0 -136q1 -51 56 -51
q52 0 52 48v139z" />
    <glyph glyph-name="c" unicode="c" horiz-adv-x="463" 
d="M411 394q-53 -13 -67 -18q-37 -13 -59 -34q-16 26 -30 44q-16 5 -35 5q-62 0 -62 -81q0 -8 -1 -30t-1 -35q0 -104 57 -104q28 0 40.5 8t24.5 33q82 -37 136 -42q-12 -39 -20 -52q-9 -17 -38 -45q12 -12 39 -42h-215q-60 0 -108 44.5t-48 104.5v249q0 54 44 91
q-6 10 -17 30l204 1q65 0 101 -33q28 -26 55 -94z" />
    <glyph glyph-name="d" unicode="d" horiz-adv-x="464" 
d="M427 1h-314q-47 0 -71 36q-21 30 -21 80l-1 297q0 53 45 86q41 31 94 31q25 0 94 -37q-3 22 -1 58q1 52 1 56q-8 20 -34 63h200q-24 -111 -24 -193l-1 -422zM261 177v137q0 33 -9 46q-12 17 -45 17q-36 0 -47 -16q-9 -12 -9 -48v0v-64q-1 -42 -1 -64q0 -54 51 -54
q60 0 60 46z" />
    <glyph glyph-name="e" unicode="e" horiz-adv-x="468" 
d="M409 368q0 -78 -63 -121q-54 -37 -137 -37q-35 0 -52 8l-1 -25q-2 -37 15 -50q14 -13 53 -13q32 0 51 35q41 -15 125 -43q-6 -51 -52 -96l14 -25h-232q-38 0 -73.5 41.5t-35.5 80.5v248q0 36 10 56q5 9 33 45h3q-9 17 -26 50h256q44 0 80 -57q32 -51 32 -97zM274 332
q0 19 -14.5 31t-34.5 12q-38 0 -52 -22q-11 -17 -12 -58q12 -6 36 -6q77 0 77 43z" />
    <glyph glyph-name="f" unicode="f" horiz-adv-x="254" 
d="M217 570q-20 4 -24 4q-21 0 -17 -24l1 -32h39v-146q-12 -2 -45 1v-311l34 -61h-201q31 79 31 115l-1 257q-12 1 -35 2v145q10 -3 19 -3q10 0 19 3l2 88q11 63 71 63h107v-101z" />
    <glyph glyph-name="g" unicode="g" horiz-adv-x="541" 
d="M537 -57l-52 -114q-35 16 -102 16q42 0 -55 -11t-125 -11q-173 0 -173 127q0 37 24 67q21 26 20 27q-28 30 -39 60q-9 22 -15 81l-1 183q0 94 47 112q-3 5 -25 40l235 1q40 0 48 -4q12 -6 47 -48q30 58 85 58q76 0 76 -80q0 -75 -64 -75q-8 0 -23.5 6t-18.5 11
q-30 -20 -30 -63v-195q0 -28 -37 -74q0 -6 37 -55h-214q-23 0 -27 -29q19 -19 27.5 -23t34.5 -5q47 -2 121 14.5t100 16.5q36 0 53 -5q24 -7 46 -28zM264 187v137q0 27 -3 35q-10 28 -51 28q-36 0 -47 -16q-8 -11 -8 -48q0 -21 -1 -66q-1 -67 -1 -70q8 -49 56 -46q23 1 29 4
q26 11 26 42z" />
    <glyph glyph-name="h" unicode="h" horiz-adv-x="482" 
d="M462 0h-207q18 46 22 65q5 23 5 68v165q0 83 -55 85q-37 2 -51 -28q-9 -20 -9 -59l1 -237l40 -59h-203q25 99 25 184l-1 421q-8 31 -24 68h191q-25 -59 -26 -127l-1 -50q53 35 93 35q68 0 111 -42t45 -110q2 -92 0 -320z" />
    <glyph glyph-name="i" unicode="i" horiz-adv-x="247" 
d="M207 0h-199q25 61 26 66q7 25 7 61l-1 329q0 2 -16 31.5t-17 32.5h190q-19 -49 -19 -137l1 -324q8 -17 28 -59zM176 618q0 -33 -20 -52.5t-53 -19.5q-27 0 -51.5 23.5t-24.5 50.5q0 30 21 52.5t51 22.5q32 0 54.5 -22.5t22.5 -54.5z" />
    <glyph glyph-name="j" unicode="j" horiz-adv-x="245" 
d="M107 -177h-127q16 42 16 90q0 27 -6 47q11 -2 25 -2q30 0 30 33l-1 466q0 2 -16 31.5t-17 32.5h190q-19 -49 -19 -136l1 -433q0 -60 -15 -90q-19 -39 -61 -39zM180 618q0 -33 -20 -52.5t-53 -19.5q-27 0 -51.5 23.5t-24.5 50.5q0 30 21 52.5t51 22.5q32 0 54.5 -22.5
t22.5 -54.5z" />
    <glyph glyph-name="k" unicode="k" horiz-adv-x="474" 
d="M1 1h196l-29 60v64v66q92 -127 97 -189l194 -1q-15 11 -47 54q-16 22 -136 228q0 14 76 116q65 87 95 123l-192 1q11 -45 11 -38q0 -17 -98 -144v222l18 110h-187l25 -65l2 -454q0 -74 -25 -153z" />
    <glyph glyph-name="l" unicode="l" horiz-adv-x="237" 
d="M178 566q4 39 6 54q6 31 17 52l-192 1l25 -65l2 -454q0 -74 -25 -153h196l-29 60v505z" />
    <glyph glyph-name="m" unicode="m" horiz-adv-x="722" 
d="M690 0h-186q19 51 19 142v209q0 24 -23 31q-12 4 -42 4q-44 0 -44 -29l1 -294l24 -62h-189q19 37 24 69q3 20 3 76v31q1 28 1 44v75q0 57 -1 61q-7 29 -45 29q-33 0 -42 -4q-18 -8 -18 -36v-284q10 -20 29 -61h-204q38 79 38 141v325q-4 10 -31 55h537q61 0 92 -51
q26 -43 26 -108l-1 -305q0 -2 14 -27q17 -29 18 -31z" />
    <glyph glyph-name="n" unicode="n" horiz-adv-x="488" 
d="M172 346v-284q10 -20 29 -61h-204q38 79 38 141v325q-4 10 -31 55h297q61 0 92 -51q26 -43 26 -108l-1 -305q0 -2 14 -27q17 -29 18 -31h-186q19 51 19 142v209q0 24 -20 30q-9 3 -39 3q-32 0 -38 -3q-14 -7 -14 -35z" />
    <glyph glyph-name="o" unicode="o" horiz-adv-x="447" 
d="M398 137q0 -39 -50 -99q10 -10 31 -38h-228q-52 0 -95 55q-42 52 -42 105l-1 212q0 55 46 98q-13 17 -36 51h253q53 0 90 -58q32 -52 32 -108v-218zM202 394q-32 0 -40 -7q-11 -8 -11 -43v-149q0 -43 20 -51q10 -4 35 -4q33 0 41 9.5t8 42.5v147q-1 39 -14 48q-8 7 -39 7
z" />
    <glyph glyph-name="p" unicode="p" horiz-adv-x="479" 
d="M413 374v-231q-10 -64 -53 -105q-44 -45 -107 -45q-28 0 -81 28l-1 -142l31 -51h-193q-10 0 2 21q14 25 14 23q0 9 6 30.5t6 29.5v533q0 3 -13 27t-15 29h262q65 0 103.5 -41t38.5 -106zM223 394q-32 0 -40 -7q-11 -8 -11 -43v-149q0 -43 20 -51q10 -4 35 -4q33 0 41 9.5
t8 42.5v147q-1 39 -14 48q-8 7 -39 7z" />
    <glyph glyph-name="q" unicode="q" horiz-adv-x="474" 
d="M24 374v-231q10 -63 53 -105q45 -45 107 -45q28 0 81 28l-1 -76q0 -38 -7 -60q-4 -10 -28 -59h200q13 0 -6 27q-22 31 -22 29v512q0 53 27 127l-365 -1q28 -32 25 -35q-64 -26 -64 -111zM214 394q33 0 42 -8.5t9 -41.5v-149q0 -35 -8 -46t-42 -11q-32 0 -43 11t-11 43
v147q1 39 14 48q8 7 39 7z" />
    <glyph glyph-name="r" unicode="r" horiz-adv-x="390" 
d="M375 485q-28 -48 -68 -134q-9 1 -33 11q-17 7 -41 5q-48 -4 -48 -31v-13q1 -10 1 -16q0 -13 -2 -25l3 -219q6 -16 34 -62l-211 -1q22 38 30 80q2 10 9 75l-1 296q-2 9 -18.5 32.5t-20.5 35.5h157q5 -21 19 -51l22 28q24 24 58 26q92 5 110 -37z" />
    <glyph glyph-name="s" unicode="s" horiz-adv-x="499" 
d="M457 146q0 -71 -67 -107q4 -6 29 -39h-320q-46 0 -74 50q-16 29 -27 95q15 -6 39 -6q20 0 44 16q35 23 51 29q6 -23 34 -43t52 -20q52 0 52 34q0 25 -68 49q-99 35 -127 53q-69 45 -69 121q0 30 13 52q4 11 19 32q8 7 26 20q-8 6 -31 38h245q40 0 83 -35t62 -82
q-90 -31 -121 -59q-17 33 -32 44q-18 15 -50 15q-14 0 -24.5 -10.5t-10.5 -24.5q0 -24 71 -46q95 -30 131 -53q70 -45 70 -123z" />
    <glyph glyph-name="t" unicode="t" horiz-adv-x="251" 
d="M214 384h-40l1 -320l39 -64h-157q-9 5 -15 23t-6 69v292q-9 2 -17 2q-9 0 -18 -2v137h32q2 18 0 87q-4 9 -25 63h192q-23 -66 -23 -99v-51q3 -1 12 -1t24 1z" />
    <glyph glyph-name="u" unicode="u" horiz-adv-x="473" 
d="M267 176v284q-9 20 -28 61h204q-39 -79 -39 -141v-325q0 -2 32 -55h-298q-61 0 -92 51q-26 43 -26 108v305q0 3 -14.5 27.5t-15.5 30.5h196q-29 -79 -29 -132v-219q0 -24 18 -29.5t35 -5.5q33 0 43 5q14 7 14 35z" />
    <glyph glyph-name="v" unicode="v" horiz-adv-x="481" 
d="M392 355q-12 -28 -39 -127q-34 -125 -34 -167q23 -53 27 -59h-208q-2 126 -127 464l-43 55h202q-4 -21 -4 -45q0 -49 20 -115l34 -112q10 7 33 113q21 97 21 109q0 -4 -25 50h210q-17 -31 -35 -80z" />
    <glyph glyph-name="w" unicode="w" horiz-adv-x="806" 
d="M709 355q-13 -42 -38 -127q-35 -124 -35 -167q23 -53 27 -59h-208q-1 90 -72 305q-57 -189 -57 -246q23 -53 27 -59h-208q-2 126 -127 464l-43 55h202q-4 -21 -4 -45q0 -49 20 -115l34 -112q10 7 33 112q21 96 21 109q0 -3 -25 51l231 -1q-4 -21 -4 -45q0 -48 20 -114
l34 -112q10 7 33 112q21 96 21 109q0 -3 -25 51h220q-13 -20 -38 -61q-20 -33 -39 -105z" />
    <glyph glyph-name="x" unicode="x" horiz-adv-x="549" 
d="M530 0h-211q1 45 -20 96q-11 26 -44 87l-62 -121l43 -62l-257 -1v-3q71 74 107 128q17 26 91 156q-40 74 -111 189q-2 3 -55 51l194 1q17 -18 30 -59q15 -49 25 -64l34 72q-6 10 -22 51h237q-8 -6 -29 -23q-32 -26 -67 -79q-47 -71 -75 -137q77 -133 133 -220
q22 -22 59 -62z" />
    <glyph glyph-name="y" unicode="y" horiz-adv-x="464" 
d="M449 521q-15 -26 -44 -80q-8 -16 -29 -96q-28 -101 -92 -347q-23 -92 -57 -130q-40 -45 -109 -45q-56 0 -97 34q19 32 42 117q4 -4 16 -11q2 -1 17 -1q18 0 31 15.5t13 33.5q0 21 -59 223q-15 50 -66 233l-32 54h192q-7 -19 -7 -49q0 -50 19 -129l28 -112q8 17 28 123
q18 98 18 115q0 5 -23 52h211z" />
    <glyph glyph-name="z" unicode="z" horiz-adv-x="467" 
d="M446 1h-445q51 66 84 143l102 238l-152 -1v94q0 4 -24 46h417q-126 -197 -181 -377q79 0 156 1l4 -68q6 -40 39 -76z" />
    <glyph glyph-name="braceleft" unicode="{" horiz-adv-x="241" 
d="M209 766v-52h-38q-26 -8 -34 -43v-228q-12 -53 -21 -71q-12 -22 -39 -35q33 -12 46 -38q6 -13 14 -58v-250q-4 -16 12 -27.5t32 -9.5h28v-52h-60q-7 -1 -14 -1q-28 0 -46.5 19t-18.5 51l-1 267q-8 42 -22.5 62.5t-47.5 37.5q63 27 70 105v236q10 42 29.5 60t58.5 27h52z
" />
    <glyph glyph-name="bar" unicode="|" horiz-adv-x="172" 
d="M62 672h38v-670h-38v670z" />
    <glyph glyph-name="braceright" unicode="}" horiz-adv-x="241" 
d="M-1 -98v52h38q26 8 34 43v229q12 52 22 70q11 23 38 35q-33 12 -46 39q-6 13 -14 58v249q5 17 -11.5 28.5t-32.5 8.5h-28v52h60q7 1 15 1q27 0 45.5 -19t18.5 -51l1 -267q8 -41 22.5 -61.5t47.5 -38.5q-63 -26 -70 -105v-235q-10 -42 -30 -62q-18 -16 -57 -26h-53z" />
    <glyph glyph-name="asciitilde" unicode="~" horiz-adv-x="349" 
d="M116 754q-27 2 -36.5 -1.5t-29.5 -23.5l-12 10q1 25 36 46q30 18 52 18q20 0 42 -12t42 -12q34 0 32 0q18 4 37 26q2 3 8.5 -4t5.5 -10q-8 -28 -37 -47q-25 -17 -48 -17q-22 0 -47 12.5t-45 14.5z" />
    <glyph glyph-name="Adieresis" unicode="&#xc4;" horiz-adv-x="598" 
d="M564 0h-235q25 40 25 81q0 -12 -5 53l-120 -35q-11 -33 -11 -40q0 -16 22 -59q-78 -1 -136 -1t-97 1q38 41 75 198q31 130 80 409l-31 67h306q-18 -33 -18 -79q0 -20 7 -54q53 -261 105 -482q3 -11 15 -29q15 -21 18 -30zM332 252q-17 78 -52 214l-38 -237zM322 762
q0 18 13 31t32 13t32 -13t13 -31q0 -19 -13 -32t-32 -13t-32 13t-13 32zM152 762q0 18 13 31t32 13t32 -13t13 -31q0 -19 -13 -32t-32 -13t-32 13t-13 32z" />
    <glyph glyph-name="Aring" unicode="&#xc5;" horiz-adv-x="598" 
d="M564 0h-235q25 40 25 81q0 -12 -5 53l-120 -35q-11 -33 -11 -40q0 -16 22 -59q-78 -1 -136 -1t-97 1q38 41 75 198q31 130 80 409l-31 67h306q-18 -33 -18 -79q0 -20 7 -54q53 -261 105 -482q3 -11 15 -29q15 -21 18 -30zM332 252q-17 78 -52 214l-38 -237zM281 863
q32 0 55 -22.5t23 -54.5q0 -33 -23 -55.5t-55 -22.5t-54.5 22.5t-22.5 55.5q0 32 22.5 54.5t54.5 22.5zM281 823q-15 0 -26 -11t-11 -26q0 -16 11 -27t26 -11q16 0 27 11t11 27q0 15 -11 26t-27 11z" />
    <glyph glyph-name="Ccedilla" unicode="&#xc7;" horiz-adv-x="553" 
d="M247 -36l8 36h-81q-55 0 -100.5 52t-45.5 107v336q0 23 20.5 64t20.5 35q0 6 -41 80h335q49 0 92.5 -51.5t43.5 -101.5v-38q-58 -7 -77 -10q-45 -9 -74 -23q-6 56 -78 56q-70 0 -70 -42q0 -16 1 -53v-69v-122q0 -28 25 -45q22 -15 51 -15q36 0 45 4q16 7 29 38
q58 -31 153 -36q1 -67 -63 -131q5 -8 21 -34l-161 -1l-10 -35q27 -4 58 -12q19 -19 19 -46q0 -36 -33 -65q-22 -19 -102 -16q-34 2 -65 39l26 26q17 -22 41 -19q17 2 23.5 6.5l6.5 4.5q15 15 15 31q0 33 -38 32q3 7 5 18z" />
    <glyph glyph-name="Eacute" unicode="&#xc9;" horiz-adv-x="554" 
d="M522 0h-514q16 36 28.5 93.5t12.5 97.5l-1 400q-7 13 -46 83h512q-37 -48 -37 -113q0 -12 3 -51h-261q1 -61 0 -88h148q8 -101 36 -154h-181v-101h253v-60q0 -39 11 -59zM170 727l199 106l34 -68l-222 -66z" />
    <glyph glyph-name="Ntilde" unicode="&#xd1;" horiz-adv-x="586" 
d="M548 672q-33 -65 -41 -152v-459l14 -61h-213q-6 88 -111 351v-285q18 -22 47 -65h-232q42 41 42 150l1 446q-15 25 -43 75l219 1q48 -132 140 -372q5 2 5 97q0 72 -3 196l-62 78h237zM206 754q-32 2 -43.5 -1.5t-35.5 -23.5l-14 10q1 25 43 46q36 18 63 18q23 0 49.5 -12
t50.5 -12q40 0 39 0q21 4 44 26q2 3 10 -4t7 -10q-10 -28 -45 -47q-30 -17 -58 -17q-26 0 -56 12.5t-54 14.5z" />
    <glyph glyph-name="Odieresis" unicode="&#xd6;" horiz-adv-x="564" 
d="M517 -1h-361q-51 0 -93 64q-37 57 -37 111v327l6 54q9 42 45 64l-55 54l344 -1q35 0 71 -31q64 -54 67 -124q2 -34 4 -42v-322q-7 -53 -36 -87q17 -23 45 -67zM342 217l1 244q0 49 -78 49q-32 0 -47 -7q-24 -11 -24 -44v-238q0 -38 28 -51q13 -6 48 -6q72 0 72 53z
M302 762q0 18 13 31t32 13t32 -13t13 -31q0 -19 -13 -32t-32 -13t-32 13t-13 32zM132 762q0 18 13 31t32 13t32 -13t13 -31q0 -19 -13 -32t-32 -13t-32 13t-13 32z" />
    <glyph glyph-name="Udieresis" unicode="&#xdc;" horiz-adv-x="590" 
d="M567 673q-18 -26 -34 -75t-16 -79v-329q0 -110 -59 -143q10 -16 29 -47h-315q-60 0 -96 64q-28 50 -28 85v455q0 1 -23.5 31.5t-26.5 36.5h257q-37 -106 -37 -189v-272q0 -59 78 -54q36 2 46 6q29 11 29 48l1 396q-11 17 -43 66h238zM322 762q0 18 13 31t32 13t32 -13
t13 -31q0 -19 -13 -32t-32 -13t-32 13t-13 32zM152 762q0 18 13 31t32 13t32 -13t13 -31q0 -19 -13 -32t-32 -13t-32 13t-13 32z" />
    <glyph glyph-name="aacute" unicode="&#xe1;" horiz-adv-x="442" 
d="M426 1h-319q-58 0 -86 70q-17 43 -17 77q0 89 63 132q40 27 117 39q62 9 62 17q0 49 -45 49q-54 0 -60 -40q-66 24 -134 41q10 36 65 103q0 2 -12.5 13.5t-13.5 17.5l226 1q89 0 109 -138q7 -52 4 -59l-1 -259zM243 167v67h-25q-12 0 -39 -12q-35 -16 -35 -43
q0 -35 53 -35q46 0 46 23zM80 577l199 106l34 -68l-222 -66z" />
    <glyph glyph-name="agrave" unicode="&#xe0;" horiz-adv-x="442" 
d="M426 1h-319q-58 0 -86 70q-17 43 -17 77q0 89 63 132q40 27 117 39q62 9 62 17q0 49 -45 49q-54 0 -60 -40q-66 24 -134 41q10 36 65 103q0 2 -12.5 13.5t-13.5 17.5l226 1q89 0 109 -138q7 -52 4 -59l-1 -259zM243 167v67h-25q-12 0 -39 -12q-35 -16 -35 -43
q0 -35 53 -35q46 0 46 23zM303 577l-199 106l-34 -68l222 -66z" />
    <glyph glyph-name="acircumflex" unicode="&#xe2;" horiz-adv-x="442" 
d="M426 1h-319q-58 0 -86 70q-17 43 -17 77q0 89 63 132q40 27 117 39q62 9 62 17q0 49 -45 49q-54 0 -60 -40q-66 24 -134 41q10 36 65 103q0 2 -12.5 13.5t-13.5 17.5l226 1q89 0 109 -138q7 -52 4 -59l-1 -259zM243 167v67h-25q-12 0 -39 -12q-35 -16 -35 -43
q0 -35 53 -35q46 0 46 23zM190 601l-118 -42l-18 25l135 81h1v0l1 -1l134 -80l-18 -25z" />
    <glyph glyph-name="adieresis" unicode="&#xe4;" horiz-adv-x="442" 
d="M426 1h-319q-58 0 -86 70q-17 43 -17 77q0 89 63 132q40 27 117 39q62 9 62 17q0 49 -45 49q-54 0 -60 -40q-66 24 -134 41q10 36 65 103q0 2 -12.5 13.5t-13.5 17.5l226 1q89 0 109 -138q7 -52 4 -59l-1 -259zM243 167v67h-25q-12 0 -39 -12q-35 -16 -35 -43
q0 -35 53 -35q46 0 46 23zM232 622q0 18 13 31t32 13t32 -13t13 -31q0 -19 -13 -32t-32 -13t-32 13t-13 32zM62 622q0 18 13 31t32 13t32 -13t13 -31q0 -19 -13 -32t-32 -13t-32 13t-13 32z" />
    <glyph glyph-name="atilde" unicode="&#xe3;" horiz-adv-x="442" 
d="M426 1h-319q-58 0 -86 70q-17 43 -17 77q0 89 63 132q40 27 117 39q62 9 62 17q0 49 -45 49q-54 0 -60 -40q-66 24 -134 41q10 36 65 103q0 2 -12.5 13.5t-13.5 17.5l226 1q89 0 109 -138q7 -52 4 -59l-1 -259zM243 167v67h-25q-12 0 -39 -12q-35 -16 -35 -43
q0 -35 53 -35q46 0 46 23zM136 584q-27 2 -36.5 -1.5t-29.5 -23.5l-12 10q1 25 36 46q30 18 52 18q20 0 42 -12t42 -12q34 0 32 0q18 4 37 26q2 3 8.5 -4t5.5 -10q-8 -28 -37 -47q-25 -17 -48 -17q-22 0 -47 12.5t-45 14.5z" />
    <glyph glyph-name="aring" unicode="&#xe5;" horiz-adv-x="442" 
d="M426 1h-319q-58 0 -86 70q-17 43 -17 77q0 89 63 132q40 27 117 39q62 9 62 17q0 49 -45 49q-54 0 -60 -40q-66 24 -134 41q10 36 65 103q0 2 -12.5 13.5t-13.5 17.5l226 1q89 0 109 -138q7 -52 4 -59l-1 -259zM243 167v67h-25q-12 0 -39 -12q-35 -16 -35 -43
q0 -35 53 -35q46 0 46 23zM191 703q32 0 55 -22.5t23 -54.5q0 -33 -23 -55.5t-55 -22.5t-54.5 22.5t-22.5 55.5q0 32 22.5 54.5t54.5 22.5zM191 663q-15 0 -26 -11t-11 -26q0 -16 11 -27t26 -11q16 0 27 11t11 27q0 15 -11 26t-27 11z" />
    <glyph glyph-name="ccedilla" unicode="&#xe7;" horiz-adv-x="463" 
d="M411 394q-53 -13 -67 -18q-37 -13 -59 -34q-16 26 -30 44q-16 5 -35 5q-62 0 -62 -81q0 -8 -1 -30t-1 -35q0 -104 57 -104q28 0 40.5 8t24.5 33q82 -37 136 -42q-12 -39 -20 -52q-9 -17 -38 -45q12 -12 39 -42h-124l-10 -36q27 -4 58 -12q19 -19 19 -46q0 -36 -33 -65
q-22 -19 -102 -16q-34 2 -65 39l26 26q17 -22 41 -19q17 2 23.5 6.5l6.5 4.5q15 15 15 31q0 33 -38 32q3 7 5 18l8 37h-45q-60 0 -108 44.5t-48 104.5v249q0 54 44 91q-6 10 -17 30l204 1q65 0 101 -33q28 -26 55 -94z" />
    <glyph glyph-name="eacute" unicode="&#xe9;" horiz-adv-x="468" 
d="M409 368q0 -79 -63 -121q-54 -37 -137 -37q-7 0 -23 4.5t-24 4.5l-5 -1l-1 -18q-2 -40 13 -55t55 -15q32 0 51 35q41 -15 125 -43q-6 -51 -52 -96l14 -25h-232q-38 0 -73.5 41.5t-35.5 80.5v248q0 36 10 56q4 9 33 45q2 -1 3 0q0 4 -12 24.5t-14 25.5h256q43 0 79 -57
q33 -51 33 -97zM274 332q0 19 -14.5 31t-34.5 12q-38 0 -52 -22q-11 -18 -12 -58q12 -6 36 -6q77 0 77 43zM100 577l199 106l34 -68l-222 -66z" />
    <glyph glyph-name="egrave" unicode="&#xe8;" horiz-adv-x="468" 
d="M409 368q0 -79 -63 -121q-54 -37 -137 -37q-7 0 -23 4.5t-24 4.5l-5 -1l-1 -18q-2 -40 13 -55t55 -15q32 0 51 35q41 -15 125 -43q-6 -51 -52 -96l14 -25h-232q-38 0 -73.5 41.5t-35.5 80.5v248q0 36 10 56q4 9 33 45q2 -1 3 0q0 4 -12 24.5t-14 25.5h256q43 0 79 -57
q33 -51 33 -97zM274 332q0 19 -14.5 31t-34.5 12q-38 0 -52 -22q-11 -18 -12 -58q12 -6 36 -6q77 0 77 43zM303 577l-199 106l-34 -68l222 -66z" />
    <glyph glyph-name="ecircumflex" unicode="&#xea;" horiz-adv-x="468" 
d="M409 368q0 -79 -63 -121q-54 -37 -137 -37q-7 0 -23 4.5t-24 4.5l-5 -1l-1 -18q-2 -40 13 -55t55 -15q32 0 51 35q41 -15 125 -43q-6 -51 -52 -96l14 -25h-232q-38 0 -73.5 41.5t-35.5 80.5v248q0 36 10 56q4 9 33 45q2 -1 3 0q0 4 -12 24.5t-14 25.5h256q43 0 79 -57
q33 -51 33 -97zM274 332q0 19 -14.5 31t-34.5 12q-38 0 -52 -22q-11 -18 -12 -58q12 -6 36 -6q77 0 77 43zM200 601l-118 -42l-18 25l135 81h1v0l1 -1l134 -80l-18 -25z" />
    <glyph glyph-name="edieresis" unicode="&#xeb;" horiz-adv-x="468" 
d="M409 368q0 -79 -63 -121q-54 -37 -137 -37q-7 0 -23 4.5t-24 4.5l-5 -1l-1 -18q-2 -40 13 -55t55 -15q32 0 51 35q41 -15 125 -43q-6 -51 -52 -96l14 -25h-232q-38 0 -73.5 41.5t-35.5 80.5v248q0 36 10 56q4 9 33 45q2 -1 3 0q0 4 -12 24.5t-14 25.5h256q43 0 79 -57
q33 -51 33 -97zM274 332q0 19 -14.5 31t-34.5 12q-38 0 -52 -22q-11 -18 -12 -58q12 -6 36 -6q77 0 77 43zM242 622q0 18 13 31t32 13t32 -13t13 -31q0 -19 -13 -32t-32 -13t-32 13t-13 32zM72 622q0 18 13 31t32 13t32 -13t13 -31q0 -19 -13 -32t-32 -13t-32 13t-13 32z
" />
    <glyph glyph-name="iacute" unicode="&#xed;" horiz-adv-x="247" 
d="M207 0h-199q25 61 26 66q7 25 7 61l-1 329q0 2 -16 31.5t-17 32.5h190q-19 -49 -19 -137l1 -324q8 -17 28 -59zM-20 577l199 106l34 -68l-222 -66z" />
    <glyph glyph-name="igrave" unicode="&#xec;" horiz-adv-x="247" 
d="M207 0h-199q25 61 26 66q7 25 7 61l-1 329q0 2 -16 31.5t-17 32.5h190q-19 -49 -19 -137l1 -324q8 -17 28 -59zM223 577l-199 106l-34 -68l222 -66z" />
    <glyph glyph-name="icircumflex" unicode="&#xee;" horiz-adv-x="247" 
d="M207 0h-199q25 61 26 66q7 25 7 61l-1 329q0 2 -16 31.5t-17 32.5h190q-19 -49 -19 -137l1 -324q8 -17 28 -59zM100 601l-118 -42l-18 25l135 81h1v0l1 -1l134 -80l-18 -25z" />
    <glyph glyph-name="idieresis" unicode="&#xef;" horiz-adv-x="247" 
d="M207 0h-199q25 61 26 66q7 25 7 61l-1 329q0 2 -16 31.5t-17 32.5h190q-19 -49 -19 -137l1 -324q8 -17 28 -59zM125 622q0 18 13 31t32 13t32 -13t13 -31q0 -19 -13 -32t-32 -13t-32 13t-13 32zM-15 622q0 18 13 31t32 13t32 -13t13 -31q0 -19 -13 -32t-32 -13t-32 13
t-13 32z" />
    <glyph glyph-name="ntilde" unicode="&#xf1;" horiz-adv-x="488" 
d="M172 346v-284q10 -20 29 -61h-204q38 79 38 141v325q-4 10 -31 55h297q61 0 92 -51q26 -43 26 -108l-1 -305q0 -2 14 -27q17 -29 18 -31h-186q19 51 19 142v209q0 24 -20 30q-9 3 -39 3q-32 0 -38 -3q-14 -7 -14 -35zM136 584q-27 2 -36.5 -1.5t-29.5 -23.5l-12 10
q1 25 36 46q30 18 52 18q20 0 42 -12t42 -12q34 0 32 0q18 4 37 26q2 3 8.5 -4t5.5 -10q-8 -28 -37 -47q-25 -17 -48 -17q-22 0 -47 12.5t-45 14.5z" />
    <glyph glyph-name="oacute" unicode="&#xf3;" horiz-adv-x="447" 
d="M398 137q0 -39 -50 -99q10 -10 31 -38h-228q-52 0 -95 55q-42 52 -42 105l-1 212q0 55 46 98q-13 17 -36 51h253q53 0 90 -58q32 -52 32 -108v-218zM202 394q-32 0 -40 -7q-11 -8 -11 -43v-149q0 -43 20 -51q10 -4 35 -4q33 0 41 9.5t8 42.5v147q-1 39 -14 48q-8 7 -39 7
zM80 577l199 106l34 -68l-222 -66z" />
    <glyph glyph-name="ograve" unicode="&#xf2;" horiz-adv-x="447" 
d="M398 137q0 -39 -50 -99q10 -10 31 -38h-228q-52 0 -95 55q-42 52 -42 105l-1 212q0 55 46 98q-13 17 -36 51h253q53 0 90 -58q32 -52 32 -108v-218zM202 394q-32 0 -40 -7q-11 -8 -11 -43v-149q0 -43 20 -51q10 -4 35 -4q33 0 41 9.5t8 42.5v147q-1 39 -14 48q-8 7 -39 7
zM303 577l-199 106l-34 -68l222 -66z" />
    <glyph glyph-name="ocircumflex" unicode="&#xf4;" horiz-adv-x="447" 
d="M398 137q0 -39 -50 -99q10 -10 31 -38h-228q-52 0 -95 55q-42 52 -42 105l-1 212q0 55 46 98q-13 17 -36 51h253q53 0 90 -58q32 -52 32 -108v-218zM202 394q-32 0 -40 -7q-11 -8 -11 -43v-149q0 -43 20 -51q10 -4 35 -4q33 0 41 9.5t8 42.5v147q-1 39 -14 48q-8 7 -39 7
zM190 601l-118 -42l-18 25l135 81h1v0l1 -1l134 -80l-18 -25z" />
    <glyph glyph-name="odieresis" unicode="&#xf6;" horiz-adv-x="447" 
d="M398 137q0 -39 -50 -99q10 -10 31 -38h-228q-52 0 -95 55q-42 52 -42 105l-1 212q0 55 46 98q-13 17 -36 51h253q53 0 90 -58q32 -52 32 -108v-218zM202 394q-32 0 -40 -7q-11 -8 -11 -43v-149q0 -43 20 -51q10 -4 35 -4q33 0 41 9.5t8 42.5v147q-1 39 -14 48q-8 7 -39 7
zM222 622q0 18 13 31t32 13t32 -13t13 -31q0 -19 -13 -32t-32 -13t-32 13t-13 32zM52 622q0 18 13 31t32 13t32 -13t13 -31q0 -19 -13 -32t-32 -13t-32 13t-13 32z" />
    <glyph glyph-name="otilde" unicode="&#xf5;" horiz-adv-x="447" 
d="M398 137q0 -39 -50 -99q10 -10 31 -38h-228q-52 0 -95 55q-42 52 -42 105l-1 212q0 55 46 98q-13 17 -36 51h253q53 0 90 -58q32 -52 32 -108v-218zM202 394q-32 0 -40 -7q-11 -8 -11 -43v-149q0 -43 20 -51q10 -4 35 -4q33 0 41 9.5t8 42.5v147q-1 39 -14 48q-8 7 -39 7
zM136 584q-27 2 -36.5 -1.5t-29.5 -23.5l-12 10q1 25 36 46q30 18 52 18q20 0 42 -12t42 -12q34 0 32 0q18 4 37 26q2 3 8.5 -4t5.5 -10q-8 -28 -37 -47q-25 -17 -48 -17q-22 0 -47 12.5t-45 14.5z" />
    <glyph glyph-name="uacute" unicode="&#xfa;" horiz-adv-x="473" 
d="M267 176v284q-9 20 -28 61h204q-39 -79 -39 -141v-325q0 -2 32 -55h-298q-61 0 -93 51q-25 43 -25 108v305q0 3 -14.5 27.5t-15.5 30.5h196q-29 -79 -29 -132v-219q0 -24 18 -29.5t35 -5.5q33 0 43 5q14 7 14 35zM90 577l199 106l34 -68l-222 -66z" />
    <glyph glyph-name="ugrave" unicode="&#xf9;" horiz-adv-x="473" 
d="M267 176v284q-9 20 -28 61h204q-39 -79 -39 -141v-325q0 -2 32 -55h-298q-61 0 -93 51q-25 43 -25 108v305q0 3 -14.5 27.5t-15.5 30.5h196q-29 -79 -29 -132v-219q0 -24 18 -29.5t35 -5.5q33 0 43 5q14 7 14 35zM313 577l-199 106l-34 -68l222 -66z" />
    <glyph glyph-name="ucircumflex" unicode="&#xfb;" horiz-adv-x="473" 
d="M267 176v284q-9 20 -28 61h204q-39 -79 -39 -141v-325q0 -2 32 -55h-298q-61 0 -93 51q-25 43 -25 108v305q0 3 -14.5 27.5t-15.5 30.5h196q-29 -79 -29 -132v-219q0 -24 18 -29.5t35 -5.5q33 0 43 5q14 7 14 35zM210 601l-118 -42l-18 25l135 81h1v0l1 -1l134 -80
l-18 -25z" />
    <glyph glyph-name="udieresis" unicode="&#xfc;" horiz-adv-x="473" 
d="M267 176v284q-9 20 -28 61h204q-39 -79 -39 -141v-325q0 -2 32 -55h-298q-61 0 -93 51q-25 43 -25 108v305q0 3 -14.5 27.5t-15.5 30.5h196q-29 -79 -29 -132v-219q0 -24 18 -29.5t35 -5.5q33 0 43 5q14 7 14 35zM252 622q0 18 13 31t32 13t32 -13t13 -31q0 -19 -13 -32
t-32 -13t-32 13t-13 32zM82 622q0 18 13 31t32 13t32 -13t13 -31q0 -19 -13 -32t-32 -13t-32 13t-13 32z" />
    <glyph glyph-name="dagger" unicode="&#x2020;" 
 />
    <glyph glyph-name="degree" unicode="&#xb0;" horiz-adv-x="354" 
d="M165 360q-65 0 -110.5 45.5t-45.5 110.5t45.5 110.5t110.5 45.5q64 0 110 -45.5t46 -110.5t-46 -110.5t-110 -45.5zM165 602q-36 0 -61 -25t-25 -61t25 -61t61 -25q35 0 60.5 25t25.5 61t-25.5 61t-60.5 25z" />
    <glyph glyph-name="cent" unicode="&#xa2;" horiz-adv-x="446" 
d="M143 676h92v-56q62 -1 97 -34q28 -26 54 -93q-53 -14 -66 -18q-38 -13 -60 -34q-16 26 -30 44q-16 5 -35 5q-62 0 -62 -81v-30q-1 -22 -1 -35q0 -104 56 -104q28 0 41 8t24 33q82 -37 136 -42q-12 -39 -19 -53q-10 -16 -39 -44q13 -12 39 -42h-135v-99h-92v99
q-57 5 -100.5 49t-43.5 100v249q0 53 44 91q-6 10 -18 31l118 -1v57z" />
    <glyph glyph-name="sterling" unicode="&#xa3;" horiz-adv-x="556" 
d="M359 289h-109q-5 -42 -21 -85t-28 -50l292 -1l-1 -152h-476v155q17 24 29 45q30 53 34 88h-74v92h44q-16 30 -22 45q-10 27 -11 54q-3 107 64 138l-35 55h232q90 0 140 -47q63 -58 66 -109q-36 -15 -132 -58q-17 36 -37.5 50t-54.5 14q-26 0 -46.5 -16t-20.5 -35
q0 -41 33 -91h134v-92z" />
    <glyph glyph-name="section" unicode="&#xa7;" 
 />
    <glyph glyph-name="bullet" unicode="&#x2022;" horiz-adv-x="293" 
d="M8 298q0 50 35.5 85.5t85.5 35.5t85.5 -35.5t35.5 -85.5t-35.5 -85.5t-85.5 -35.5t-85.5 35.5t-35.5 85.5z" />
    <glyph glyph-name="paragraph" unicode="&#xb6;" 
 />
    <glyph glyph-name="germandbls" unicode="&#xdf;" horiz-adv-x="545" 
d="M170 524l1 -462l34 -61h-201q31 79 31 115q0 263 -3 382q-3 92 41 136t130 42l132 -2q93 -2 133 -78q27 -50 27 -123q0 -98 -79 -128q42 -21 61 -43q27 -34 27 -102q0 -63 -13 -90q-20 -38 -52 -51l48 -58h-205l-79 132h96q53 0 60 90q3 30 -15 55q-19 29 -51 29h-20
q-17 38 -46 118l86 -1q28 0 37 38q4 21 3 53q-4 53 -81 53h-60q-5 1 -9 1q-37 0 -33 -45z" />
    <glyph glyph-name="registered" unicode="&#xae;" horiz-adv-x="457" 
d="M182 322q-75 0 -128 54t-53 130q0 75 53 128t128 53t127.5 -53.5t52.5 -129.5q0 -75 -52.5 -128.5t-127.5 -53.5zM182 643q-58 1 -97 -39.5t-39 -99.5q0 -57 40.5 -98t95.5 -41t95 41t40 98t-40 97t-95 42zM187 600q11 4 32 -2q36 -11 36 -46q0 -45 -44 -54l49 -76h-45
l-49 75h-15v-75h-38v178h74zM188 568h-39v-29h44q25 0 25 18q0 11 -30 11z" />
    <glyph glyph-name="copyright" unicode="&#xa9;" horiz-adv-x="816" 
d="M366 -21q-149 0 -253 104.5t-104 254.5t104 255t253 105t253.5 -105t104.5 -255t-104.5 -254.5t-253.5 -104.5zM366 625q-116 0 -200.5 -84t-84.5 -203t84.5 -202.5t200.5 -83.5t200.5 83.5t84.5 202.5t-84.5 203t-200.5 84zM477 397q-23 81 -101 81q-60 0 -95 -39
t-35 -100q0 -55 31 -94q35 -43 97 -43q83 0 103 79h74q-17 -75 -63.5 -113.5t-112.5 -38.5q-92 0 -147 60t-55 152q0 89 56 150t147 61q65 0 112 -39q50 -42 63 -116h-74z" />
    <glyph glyph-name="trademark" unicode="&#x2122;" horiz-adv-x="520" 
d="M377 597l-56 -140h-27l-52 134v-134h-43v211h58l51 -129l52 129h59v-211h-42v140zM103 624v-167h-43v167h-66v44h173v-44h-64z" />
    <glyph glyph-name="acute" unicode="&#xb4;" horiz-adv-x="554" 
d="M170 727l199 106l34 -68l-222 -66z" />
    <glyph glyph-name="dieresis" unicode="&#xa8;" horiz-adv-x="429" 
d="M252 762q0 18 13 31t32 13t32 -13t13 -31q0 -19 -13 -32t-32 -13t-32 13t-13 32zM82 762q0 18 13 31t32 13t32 -13t13 -31q0 -19 -13 -32t-32 -13t-32 13t-13 32z" />
    <glyph glyph-name="AE" unicode="&#xc6;" horiz-adv-x="856" 
d="M386 146l-158 -47q-18 -33 -19 -40q-4 -16 9 -59q-78 -1 -136 -1t-97 1q47 41 117 198q59 130 168 409l-34 68l598 -1q-37 -48 -37 -113q0 -12 3 -51h-241q1 -61 0 -88h128q8 -101 36 -154h-161v-101h233v-60q0 -39 11 -59l36 -48h-494q16 35 28 94q7 29 10 52zM394 515
q-85 -178 -125 -286l125 40v246z" />
    <glyph glyph-name="Oslash" unicode="&#xd8;" horiz-adv-x="564" 
d="M203 186q14 -22 67 -22q72 0 72 53l1 192zM332 492q-12 11 -69 11h-45q-24 -11 -24 -44v-186zM511 676l-42 -68q9 -11 25 -36q10 -20 11.5 -45t3.5 -50l-1 -324q-7 -53 -36 -87q17 -23 45 -67h-361q-30 0 -57 22l-15 -23h-63l41 66q-36 57 -36 110v327l6 54q9 42 45 64
l-55 54l344 -1q31 0 64 -25l18 29h63z" />
    <glyph glyph-name="plusminus" unicode="&#xb1;" 
 />
    <glyph glyph-name="yen" unicode="&#xa5;" horiz-adv-x="550" 
d="M64 320h93q-38 101 -68 189q-31 92 -96 164h251q-13 -20 -26 -41q-9 -18 -7 -46l63 -187q5 19 37 115q30 90 30 95q-4 11 -26 63h207q-11 -21 -37.5 -59.5t-41.5 -78.5q-36 -95 -80 -214h99v-63h-113v-57h113v-63h-113v-73l28 -63h-245q8 14 23 43q17 33 17 48v45h-108
v63h108v57h-108v63z" />
    <glyph glyph-name="mu" unicode="&#xb5;" horiz-adv-x="576" 
d="M2 257l53 39l-1 297q0 10 -48 80h256q-7 -18 -19 -55q-14 -47 -14 -86v-110l145 106v-95l-145 -102v-169h181q-33 34 -33 71q0 80 84 80q32 0 55.5 -26t23.5 -58q0 -51 -47 -76v-93q11 -18 41 -60l-525 1q9 22 27 67q19 54 19 131v9l-53 -37v86z" />
    <glyph glyph-name="mu" unicode="&#x3bc;" horiz-adv-x="576" 
d="M2 257l53 39l-1 297q0 10 -48 80h256q-7 -18 -19 -55q-14 -47 -14 -86v-110l145 106v-95l-145 -102v-169h181q-33 34 -33 71q0 80 84 80q32 0 55.5 -26t23.5 -58q0 -51 -47 -76v-93q11 -18 41 -60l-525 1q9 22 27 67q19 54 19 131v9l-53 -37v86z" />
    <glyph glyph-name="ordfeminine" unicode="&#xaa;" horiz-adv-x="571" 
d="M541 0h-527l232 503h-174v100q-16 21 -50 69h514q-75 -86 -141 -236q-26 -59 -116 -267q1 -1 122 -1q-17 28 -17 47q0 24 18.5 39.5t42.5 15.5q27 0 43.5 -16t16.5 -42q0 -13 -8 -31.5t-8 -30.5q0 -49 7 -72q10 -34 45 -78zM290 762l117 43l18 -26l-135 -80v0h-1v1
l-135 79l18 26z" />
    <glyph glyph-name="ordmasculine" unicode="&#xba;" horiz-adv-x="467" 
d="M446 1h-445q51 66 84 143l102 238l-152 -1v94q0 4 -24 46h417q-126 -197 -181 -377q79 0 156 1l4 -68q6 -40 39 -76zM220 622l117 43l18 -26l-135 -80v0h-1v1l-135 79l18 26z" />
    <glyph glyph-name="ae" unicode="&#xe6;" horiz-adv-x="688" 
d="M386 337q1 -10 -1 -13v-31q11 -4 32 -4q77 0 77 43q0 19 -14.5 31t-34.5 12q-48 0 -59 -38zM107 1q-58 0 -86 70q-17 43 -17 77q0 89 63 132q40 27 117 39q44 7 57 13v31q-10 22 -40 22q-54 0 -60 -40q-66 24 -134 41q11 37 38 73q18 24 27 30q0 2 -12.5 13.5t-13.5 17.5
h231h232q44 0 84 -56q36 -51 36 -96q0 -78 -63 -121q-54 -37 -137 -37q-26 0 -44 5l-1 -66q14 -19 60 -19q32 0 51 35q41 -15 125 -43q-6 -51 -52 -96l14 -25h-475zM241 234h-23q-12 0 -39 -12q-35 -16 -35 -43q0 -35 53 -35q37 0 44 15v75z" />
    <glyph glyph-name="oslash" unicode="&#xf8;" horiz-adv-x="447" 
d="M151 214l101 152q-3 16 -11 22t-39 6q-32 0 -40 -7q-11 -8 -11 -43v-130zM255 288l-92 -139q9 -9 43 -9q33 0 41 9.5t8 42.5v96zM353 520h55l-40 -61q30 -48 30 -104v-218q0 -39 -50 -99q10 -10 31 -38h-228q-36 0 -68 27l-18 -26h-55l41 61q-37 49 -37 98l-1 212
q0 55 46 98q-13 17 -36 51h253q34 0 62 -25z" />
    <glyph glyph-name="questiondown" unicode="&#xbf;" horiz-adv-x="538" 
d="M-1 25q0 78 39 130q26 36 133 89q12 6 21 26q0 11 2 29h150q0 1 0 -24q0 -50 -42 -104q-16 -20 -78 -78q-41 -38 -41 -57q0 -36 47 -36q51 0 76 69q37 -29 83 -49q51 -22 81 -20q6 -31 -35 -85q-20 -26 -41 -38l25 -41h-277q-31 0 -71 36q-35 32 -50 64q-22 47 -22 89z
M169 428q0 42 29 69.5t70 27.5q39 0 67.5 -28.5t28.5 -67.5q0 -40 -29.5 -68t-69.5 -28q-39 0 -67.5 28.5t-28.5 66.5z" />
    <glyph glyph-name="exclamdown" unicode="&#xa1;" horiz-adv-x="328" 
d="M170 291l53 -371l50 -78h-267q49 73 55 181l46 268h63zM44 423q0 41 28 70t69 29q40 0 68.5 -29t28.5 -70q0 -38 -29.5 -67t-67.5 -29q-40 0 -68.5 28t-28.5 68z" />
    <glyph glyph-name="logicalnot" unicode="&#xac;" 
 />
    <glyph glyph-name="florin" unicode="&#x192;" horiz-adv-x="588" 
d="M534 166q1 -67 -63 -131q12 -15 25 -35h-292q-55 0 -101 53q-45 50 -45 106v95h-56v63h56v47h-56v63h56v68q0 23 20.5 64t20.5 35q0 6 -41 80h335q49 0 92.5 -51.5t43.5 -101.5v-38q-41 -5 -82 -12q-22 -3 -63 -15q-9 84 -93 84q-61 0 -61 -56q0 -16 1 -57h121v-63h-121
v-47h121v-63h-121v-54q0 -34 26 -52q11 -8 50 -8q31 0 48 17q12 12 26 45q58 -31 153 -36z" />
    <glyph glyph-name="guillemotleft" unicode="&#xab;" horiz-adv-x="319" 
d="M266 436l-131 -159l137 -158l17 26q-88 133 -88 135q0 3 79 124zM136 436l-131 -159l137 -158l17 26q-88 133 -88 135q0 3 79 124z" />
    <glyph glyph-name="guillemotright" unicode="&#xbb;" horiz-adv-x="305" 
d="M28 119l131 158l-137 159l-17 -26q88 -133 88 -135q0 -3 -80 -124zM158 119l131 158l-137 159l-17 -26q88 -133 88 -135q0 -3 -80 -124z" />
    <glyph glyph-name="ellipsis" unicode="&#x2026;" horiz-adv-x="900" 
d="M559 101q0 -41 -28 -70t-69 -29q-40 0 -68.5 29t-28.5 70q0 38 29.5 67t67.5 29q40 0 68.5 -28t28.5 -68zM859 101q0 -41 -28 -70t-69 -29q-40 0 -68.5 29t-28.5 70q0 38 29.5 67t67.5 29q40 0 68.5 -28t28.5 -68zM259 101q0 -41 -28 -70t-69 -29q-40 0 -68.5 29
t-28.5 70q0 38 29.5 67t67.5 29q40 0 68.5 -28t28.5 -68z" />
    <glyph glyph-name="nonbreakingspace" unicode="&#xa0;" horiz-adv-x="201" 
 />
    <glyph glyph-name="Agrave" unicode="&#xc0;" horiz-adv-x="598" 
d="M564 0h-235q25 40 25 81q0 -12 -5 53l-120 -35q-11 -33 -11 -40q0 -16 22 -59q-78 -1 -136 -1t-97 1q38 41 75 198q31 130 80 409l-31 67h306q-18 -33 -18 -79q0 -20 7 -54q53 -261 105 -482q3 -11 15 -29q15 -21 18 -30zM332 252q-17 78 -52 214l-38 -237zM403 727
l-199 106l-34 -68l222 -66z" />
    <glyph glyph-name="Atilde" unicode="&#xc3;" horiz-adv-x="598" 
d="M564 0h-235q25 40 25 81q0 -12 -5 53l-120 -35q-11 -33 -11 -40q0 -16 22 -59q-78 -1 -136 -1t-97 1q38 41 75 198q31 130 80 409l-31 67h306q-18 -33 -18 -79q0 -20 7 -54q53 -261 105 -482q3 -11 15 -29q15 -21 18 -30zM332 252q-17 78 -52 214l-38 -237zM216 754
q-32 2 -43.5 -1.5t-35.5 -23.5l-14 10q1 25 43 46q36 18 63 18q23 0 49.5 -12t50.5 -12q40 0 39 0q21 4 44 26q2 3 10 -4t7 -10q-10 -28 -45 -47q-30 -17 -58 -17q-26 0 -56 12.5t-54 14.5z" />
    <glyph glyph-name="Otilde" unicode="&#xd5;" horiz-adv-x="564" 
d="M517 -1h-361q-51 0 -93 64q-37 57 -37 111v327l6 54q9 42 45 64l-55 54l344 -1q35 0 71 -31q64 -54 67 -124q2 -34 4 -42v-322q-7 -53 -36 -87q17 -23 45 -67zM342 217l1 244q0 49 -78 49q-32 0 -47 -7q-24 -11 -24 -44v-238q0 -38 28 -51q13 -6 48 -6q72 0 72 53z
M186 754q-32 2 -43.5 -1.5t-35.5 -23.5l-14 10q1 25 43 46q36 18 63 18q23 0 49.5 -12t50.5 -12q40 0 39 0q21 4 44 26q2 3 10 -4t7 -10q-10 -28 -45 -47q-30 -17 -58 -17q-26 0 -56 12.5t-54 14.5z" />
    <glyph glyph-name="OE" unicode="&#x152;" horiz-adv-x="867" 
d="M347 214v246q0 50 -82 50q-34 0 -42 -4q-29 -14 -29 -47v-238q0 -38 28 -51q13 -6 48 -6q77 0 77 50zM822 0h-666q-52 0 -93 63q-37 57 -37 111v327l6 54q9 42 45 64l-55 55h792q-37 -48 -37 -113q0 -12 3 -51h-261q1 -61 0 -88h148q8 -101 36 -154h-181v-101h253v-60
q0 -39 11 -59z" />
    <glyph glyph-name="oe" unicode="&#x153;" horiz-adv-x="699" 
d="M514 332q0 19 -14.5 31t-34.5 12q-38 0 -52 -22q-11 -17 -12 -58q12 -6 36 -6q77 0 77 43zM151 0q-52 0 -95 55q-42 52 -42 105l-1 212q0 55 46 98q-13 17 -36 51l512 -1q51 0 85 -56q29 -47 29 -96q0 -78 -63 -121q-54 -37 -137 -37q-34 0 -51 8v-55q9 -33 66 -33
q32 0 51 35q41 -15 125 -43q-6 -51 -52 -96l14 -25zM202 394q-21 0 -36 -12t-15 -38v-149q0 -43 20 -51q10 -4 35 -4q33 0 41 9.5t8 42.5v147q0 34 -11 42q-15 13 -42 13z" />
    <glyph glyph-name="endash" unicode="&#x2013;" horiz-adv-x="457" 
d="M-1 326h424v-98h-424v98z" />
    <glyph glyph-name="emdash" unicode="&#x2014;" horiz-adv-x="849" 
d="M-1 326h824v-98h-824v98z" />
    <glyph glyph-name="quotedblleft" unicode="&#x201c;" horiz-adv-x="490" 
d="M446 586q0 -36 -26 -63t-63 -35q3 -15 24 -31.5t21 -22.5q0 -22 -22 -22q-55 0 -98 69q-36 57 -36 96q0 42 30.5 73.5t72.5 31.5q40 0 68.5 -28t28.5 -68zM206 586q0 -36 -26 -63t-63 -35q3 -15 24 -31.5t21 -22.5q0 -22 -22 -22q-55 0 -98 69q-36 57 -36 96
q0 42 30.5 73.5t72.5 31.5q40 0 68.5 -28t28.5 -68z" />
    <glyph glyph-name="quotedblright" unicode="&#x201d;" horiz-adv-x="490" 
d="M-4 586q0 -36 26 -63t63 -35q-2 -15 -23.5 -31.5t-21.5 -22.5q0 -22 22 -22q55 0 98 69q36 57 36 96q0 43 -30 74t-73 31q-40 0 -68.5 -28t-28.5 -68zM236 586q0 -36 26 -63t63 -35q-2 -15 -23.5 -31.5t-21.5 -22.5q0 -22 22 -22q56 0 97 57q37 52 38 111q1 42 -30.5 72
t-73.5 30q-40 0 -68.5 -28t-28.5 -68z" />
    <glyph glyph-name="quoteleft" unicode="&#x2018;" horiz-adv-x="263" 
d="M206 586q0 -36 -26 -63t-63 -35q3 -15 24 -31.5t21 -22.5q0 -22 -22 -22q-55 0 -98 69q-36 57 -36 96q0 42 30.5 73.5t72.5 31.5q40 0 68.5 -28t28.5 -68z" />
    <glyph glyph-name="quoteright" unicode="&#x2019;" horiz-adv-x="263" 
d="M196 575q0 -43 -39 -99q-45 -64 -96 -64q-23 0 -23 22q0 6 21.5 24t25.5 24q-84 40 -84 104q0 39 28.5 67.5t67.5 28.5q44 0 71.5 -31t27.5 -76z" />
    <glyph glyph-name="divide" unicode="&#xf7;" 
 />
    <glyph glyph-name="ydieresis" unicode="&#xff;" horiz-adv-x="464" 
d="M449 521q-15 -26 -44 -80q-8 -16 -29 -96q-28 -101 -92 -347q-23 -92 -57 -130q-40 -45 -109 -45q-56 0 -97 34q19 32 42 117q4 -4 16 -11q2 -1 17 -1q18 0 31 15.5t13 33.5q0 21 -59 223q-15 50 -66 233l-32 54h192q-7 -19 -7 -49q0 -50 19 -129l28 -112q8 17 28 123
q18 98 18 115q0 5 -23 52h211zM252 622q0 18 13 31t32 13t32 -13t13 -31q0 -19 -13 -32t-32 -13t-32 13t-13 32zM82 622q0 18 13 31t32 13t32 -13t13 -31q0 -19 -13 -32t-32 -13t-32 13t-13 32z" />
    <glyph glyph-name="Ydieresis" unicode="&#x178;" horiz-adv-x="550" 
d="M522 672q-11 -21 -37.5 -59.5t-41.5 -78.5q-41 -107 -94 -253v-217l28 -63h-245q8 14 23 43q17 33 17 58v179q-25 66 -83 228q-31 92 -96 164h251q-13 -20 -26 -41q-9 -18 -7 -46l63 -187q5 19 37 115q30 90 30 95q-4 11 -26 63h207zM514 253q0 -26 -16 -45t-42 -19
q-28 0 -46 17.5t-18 45.5q0 23 17 41t40 18q24 0 44.5 -17t20.5 -41zM134 253q0 -26 -16 -45t-42 -19q-28 0 -46 17.5t-18 45.5q0 23 17 41t40 18q24 0 44.5 -17t20.5 -41zM302 762q0 18 13 31t32 13t32 -13t13 -31q0 -19 -13 -32t-32 -13t-32 13t-13 32zM132 762
q0 18 13 31t32 13t32 -13t13 -31q0 -19 -13 -32t-32 -13t-32 13t-13 32z" />
    <glyph glyph-name="currency" unicode="&#xa4;" 
 />
    <glyph glyph-name="guilsinglleft" unicode="&#x2039;" horiz-adv-x="195" 
d="M136 436l-131 -159l137 -158l17 26l-88 135l79 124z" />
    <glyph glyph-name="guilsinglright" unicode="&#x203a;" horiz-adv-x="195" 
d="M28 119l131 158l-137 159l-17 -26l88 -135l-80 -124z" />
    <glyph glyph-name="daggerdbl" unicode="&#x2021;" 
 />
    <glyph glyph-name="periodcentered" unicode="&#xb7;" 
 />
    <glyph glyph-name="periodcentered" unicode="&#x2219;" 
 />
    <glyph glyph-name="quotesinglbase" unicode="&#x201a;" horiz-adv-x="263" 
d="M196 75q0 -43 -39 -99q-45 -64 -96 -64q-23 0 -23 22q0 6 21.5 24t25.5 24q-84 40 -84 104q0 39 28.5 67.5t67.5 28.5q44 0 71.5 -31t27.5 -76z" />
    <glyph glyph-name="quotedblbase" unicode="&#x201e;" horiz-adv-x="490" 
d="M-4 86q0 -36 26 -63t63 -35q-2 -15 -23.5 -31.5t-21.5 -22.5q0 -22 22 -22q55 0 98 69q36 57 36 96q0 43 -30 74t-73 31q-40 0 -68.5 -28t-28.5 -68zM236 86q0 -36 26 -63t63 -35q-2 -15 -23.5 -31.5t-21.5 -22.5q0 -22 22 -22q56 0 97 57q37 52 38 111q1 42 -30.5 72
t-73.5 30q-40 0 -68.5 -28t-28.5 -68z" />
    <glyph glyph-name="perthousand" unicode="&#x2030;" 
 />
    <glyph glyph-name="Acircumflex" unicode="&#xc2;" horiz-adv-x="598" 
d="M571 0h-235q25 40 25 81q0 -12 -5 53l-120 -35q-11 -33 -11 -40q0 -16 22 -59q-77 -1 -136 -1q-58 0 -97 1q38 41 75 198q31 130 80 409l-31 67h306q-18 -33 -18 -79q0 -20 7 -54q53 -261 105 -482q3 -11 16 -29q14 -21 17 -30zM339 252q-17 78 -52 214l-38 -237z
M292 741l-118 -42l-18 25l135 81h1v0l1 -1l134 -80l-18 -25z" />
    <glyph glyph-name="Ecircumflex" unicode="&#xca;" horiz-adv-x="554" 
d="M522 0h-514q16 36 28.5 93.5t12.5 97.5l-1 400q-7 13 -46 83h512q-37 -48 -37 -113q0 -12 3 -51h-261q1 -61 0 -88h148q8 -101 36 -154h-181v-101h253v-60q0 -39 11 -59zM270 741l-118 -42l-18 25l135 81h1v0l1 -1l134 -80l-18 -25z" />
    <glyph glyph-name="Aacute" unicode="&#xc1;" horiz-adv-x="598" 
d="M564 0h-235q25 40 25 81q0 -12 -5 53l-120 -35q-11 -33 -11 -40q0 -16 22 -59q-78 -1 -136 -1t-97 1q38 41 75 198q31 130 80 409l-31 67h306q-18 -33 -18 -79q0 -20 7 -54q53 -261 105 -482q3 -11 15 -29q15 -21 18 -30zM332 252q-17 78 -52 214l-38 -237zM170 727
l199 106l34 -68l-222 -66z" />
    <glyph glyph-name="Edieresis" unicode="&#xcb;" horiz-adv-x="554" 
d="M522 0h-514q16 36 28.5 93.5t12.5 97.5l-1 400q-7 13 -46 83h512q-37 -48 -37 -113q0 -12 3 -51h-261q1 -61 0 -88h148q8 -101 36 -154h-181v-101h253v-60q0 -39 11 -59zM312 762q0 18 13 31t32 13t32 -13t13 -31q0 -19 -13 -32t-32 -13t-32 13t-13 32zM142 762
q0 18 13 31t32 13t32 -13t13 -31q0 -19 -13 -32t-32 -13t-32 13t-13 32z" />
    <glyph glyph-name="Egrave" unicode="&#xc8;" horiz-adv-x="554" 
d="M522 0h-514q16 36 28.5 93.5t12.5 97.5l-1 400q-7 13 -46 83h512q-37 -48 -37 -113q0 -12 3 -51h-261q1 -61 0 -88h148q8 -101 36 -154h-181v-101h253v-60q0 -39 11 -59zM373 727l-199 106l-34 -68l222 -66z" />
    <glyph glyph-name="Iacute" unicode="&#xcd;" horiz-adv-x="313" 
d="M272 0h-257q41 104 41 198v396q0 12 -50 78h258q-38 -104 -38 -188v-420zM20 727l199 106l34 -68l-222 -66z" />
    <glyph glyph-name="Icircumflex" unicode="&#xce;" horiz-adv-x="313" 
d="M272 0h-257q41 104 41 198v396q0 12 -50 78h258q-38 -104 -38 -188v-420zM140 741l-118 -42l-18 25l135 81h1v0l1 -1l134 -80l-18 -25z" />
    <glyph glyph-name="Idieresis" unicode="&#xcf;" horiz-adv-x="313" 
d="M272 0h-257q41 104 41 198v396q0 12 -50 78h258q-38 -104 -38 -188v-420zM172 762q0 18 13 31t32 13t32 -13t13 -31q0 -19 -13 -32t-32 -13t-32 13t-13 32zM12 762q0 18 13 31t32 13t32 -13t13 -31q0 -19 -13 -32t-32 -13t-32 13t-13 32z" />
    <glyph glyph-name="Igrave" unicode="&#xcc;" horiz-adv-x="313" 
d="M272 0h-257q41 104 41 198v396q0 12 -50 78h258q-38 -104 -38 -188v-420zM253 727l-199 106l-34 -68l222 -66z" />
    <glyph glyph-name="Oacute" unicode="&#xd3;" horiz-adv-x="564" 
d="M517 -1h-361q-51 0 -93 64q-37 57 -37 111v327l6 54q9 42 45 64l-55 54l344 -1q35 0 71 -31q64 -54 67 -124q2 -34 4 -42v-322q-7 -53 -36 -87q17 -23 45 -67zM342 217l1 244q0 49 -78 49q-32 0 -47 -7q-24 -11 -24 -44v-238q0 -38 28 -51q13 -6 48 -6q72 0 72 53z
M140 727l199 106l34 -68l-222 -66z" />
    <glyph glyph-name="Ocircumflex" unicode="&#xd4;" horiz-adv-x="564" 
d="M517 -1h-361q-51 0 -93 64q-37 57 -37 111v327l6 54q9 42 45 64l-55 54l344 -1q35 0 71 -31q64 -54 67 -124q2 -34 4 -42v-322q-7 -53 -36 -87q17 -23 45 -67zM342 217l1 244q0 49 -78 49q-32 0 -47 -7q-24 -11 -24 -44v-238q0 -38 28 -51q13 -6 48 -6q72 0 72 53z
M250 741l-118 -42l-18 25l135 81h1v0l1 -1l134 -80l-18 -25z" />
    <glyph glyph-name="Ograve" unicode="&#xd2;" horiz-adv-x="564" 
d="M517 -1h-361q-51 0 -93 64q-37 57 -37 111v327l6 54q9 42 45 64l-55 54l344 -1q35 0 71 -31q64 -54 67 -124q2 -34 4 -42v-322q-7 -53 -36 -87q17 -23 45 -67zM342 217l1 244q0 49 -78 49q-32 0 -47 -7q-24 -11 -24 -44v-238q0 -38 28 -51q13 -6 48 -6q72 0 72 53z
M343 727l-199 106l-34 -68l222 -66z" />
    <glyph glyph-name="Uacute" unicode="&#xda;" horiz-adv-x="590" 
d="M567 673q-18 -26 -34 -75t-16 -79v-329q0 -110 -59 -143q10 -16 29 -47h-315q-60 0 -96 64q-28 50 -28 85v455q0 1 -23.5 31.5t-26.5 36.5h257q-37 -106 -37 -189v-272q0 -59 78 -54q36 2 46 6q29 11 29 48l1 396q-11 17 -43 66h238zM160 727l199 106l34 -68l-222 -66z
" />
    <glyph glyph-name="Ucircumflex" unicode="&#xdb;" horiz-adv-x="590" 
d="M567 673q-18 -26 -34 -75t-16 -79v-329q0 -110 -59 -143q10 -16 29 -47h-315q-60 0 -96 64q-28 50 -28 85v455q0 1 -23.5 31.5t-26.5 36.5h257q-37 -106 -37 -189v-272q0 -59 78 -54q36 2 46 6q29 11 29 48l1 396q-11 17 -43 66h238zM290 741l-118 -42l-18 25l135 81h1v0
l1 -1l134 -80l-18 -25z" />
    <glyph glyph-name="Ugrave" unicode="&#xd9;" horiz-adv-x="590" 
d="M567 673q-18 -26 -34 -75t-16 -79v-329q0 -110 -59 -143q10 -16 29 -47h-315q-60 0 -96 64q-28 50 -28 85v455q0 1 -23.5 31.5t-26.5 36.5h257q-37 -106 -37 -189v-272q0 -59 78 -54q36 2 46 6q29 11 29 48l1 396q-11 17 -43 66h238zM403 727l-199 106l-34 -68l222 -66z
" />
    <glyph glyph-name="circumflex" unicode="&#x2c6;" horiz-adv-x="369" 
d="M190 741l-118 -42l-18 25l135 81h1v0l1 -1l134 -80l-18 -25z" />
    <glyph glyph-name="tilde" unicode="&#x2dc;" horiz-adv-x="349" 
d="M116 754q-27 2 -36.5 -1.5t-29.5 -23.5l-12 10q1 25 36 46q30 18 52 18q20 0 42 -12t42 -12q34 0 32 0q18 4 37 26q2 3 8.5 -4t5.5 -10q-8 -28 -37 -47q-25 -17 -48 -17q-22 0 -47 12.5t-45 14.5z" />
    <glyph glyph-name="macron" unicode="&#xaf;" horiz-adv-x="308" 
d="M25 814h259v-55h-259v55z" />
    <glyph glyph-name="macron" unicode="&#x2c9;" horiz-adv-x="308" 
d="M25 814h259v-55h-259v55z" />
    <glyph glyph-name="cedilla" unicode="&#xb8;" horiz-adv-x="553" 
d="M247 -36l9 42l46 -2l-11 -39q27 -4 58 -12q19 -19 19 -46q0 -36 -33 -65q-22 -19 -102 -16q-34 2 -65 39l26 26q17 -22 41 -19q17 2 23.5 6.5l6.5 4.5q15 15 15 31q0 33 -38 32q3 7 5 18z" />
    <glyph glyph-name="Scaron" unicode="&#x160;" 
 />
    <glyph glyph-name="scaron" unicode="&#x161;" 
 />
    <glyph glyph-name="brokenbar" unicode="&#xa6;" 
 />
    <glyph glyph-name="Eth" unicode="&#xd0;" 
 />
    <glyph glyph-name="eth" unicode="&#xf0;" 
 />
    <glyph glyph-name="Yacute" unicode="&#xdd;" 
 />
    <glyph glyph-name="Thorn" unicode="&#xde;" 
 />
    <glyph glyph-name="thorn" unicode="&#xfe;" 
 />
    <glyph glyph-name="minus" unicode="&#xad;" 
 />
    <glyph glyph-name="minus" unicode="&#x2212;" 
 />
    <glyph glyph-name="onesuperior" unicode="&#xb9;" 
 />
    <glyph glyph-name="twosuperior" unicode="&#xb2;" 
 />
    <glyph glyph-name="threesuperior" unicode="&#xb3;" 
 />
    <glyph glyph-name="onehalf" unicode="&#xbd;" 
 />
    <glyph glyph-name="onequarter" unicode="&#xbc;" 
 />
    <glyph glyph-name="threequarters" unicode="&#xbe;" 
 />
    <glyph glyph-name="Lslash" unicode="&#x141;" 
 />
    <glyph glyph-name="lslash" unicode="&#x142;" 
 />
    <glyph glyph-name="HT" horiz-adv-x="195" 
 />
    <glyph glyph-name="LF" 
 />
    <glyph glyph-name="nonmarkingreturn" horiz-adv-x="195" 
 />
    <glyph glyph-name="Zcaron" unicode="&#x17d;" 
 />
    <glyph glyph-name="zcaron" unicode="&#x17e;" 
 />
    <glyph glyph-name="DLE" 
 />
    <glyph glyph-name="DC1" 
 />
    <glyph glyph-name="DC2" 
 />
    <glyph glyph-name="DC3" 
 />
    <glyph glyph-name="DC4" 
 />
    <glyph glyph-name="RS" 
 />
    <glyph glyph-name="US" 
 />
    <glyph glyph-name="notequal" unicode="&#x2260;" 
 />
    <glyph glyph-name="infinity" unicode="&#x221e;" 
 />
    <glyph glyph-name="lessequal" unicode="&#x2264;" 
 />
    <glyph glyph-name="greaterequal" unicode="&#x2265;" 
 />
    <glyph glyph-name="partialdiff" unicode="&#x2202;" horiz-adv-x="239" 
d="M236 332l-58 -40v-231l29 -60h-196q25 79 25 153v40l-34 -23v86l33 24l-1 327l-25 65l192 -1q-16 -30 -23 -106v-181l58 42v-95z" />
    <glyph glyph-name="summation" unicode="&#x2211;" horiz-adv-x="515" 
d="M476 185q0 -85 -62 -126q-2 -2 15 -24q23 -29 26 -34h-283q-51 0 -105.5 62t-56.5 115q11 -1 22 -1q68 0 139 43q29 -60 74 -60q20 0 37.5 10.5t17.5 29.5q0 32 -73 59q-98 36 -135 64q-73 55 -76 157q-3 107 64 138l-35 55h232q66 0 122 -49.5t60 -114.5
q-63 -10 -150 -52q-10 18 -19 35q-12 17 -46 17q-52 0 -52 -37q0 -23 74 -52q97 -38 137 -72q73 -61 73 -163zM230 762l117 43l18 -26l-135 -80v0h-1v1l-135 79l18 26z" />
    <glyph glyph-name="product" unicode="&#x220f;" horiz-adv-x="499" 
d="M457 146q0 -71 -67 -107q4 -6 29 -39h-320q-46 0 -74 50q-16 29 -27 95q15 -6 39 -6q20 0 44 16q35 23 51 29q6 -23 34 -43t52 -20q52 0 52 34q0 25 -68 49q-99 35 -127 53q-69 45 -69 121q0 30 13 52q4 11 19 32q8 7 26 20q-8 6 -31 38h245q40 0 83 -35t62 -82
q-90 -31 -121 -59q-17 33 -32 44q-18 15 -50 15q-14 0 -24.5 -10.5t-10.5 -24.5q0 -24 71 -46q95 -30 131 -53q70 -45 70 -123zM210 622l117 43l18 -26l-135 -80v0h-1v1l-135 79l18 26z" />
    <glyph glyph-name="pi" unicode="&#x3c0;" horiz-adv-x="550" 
d="M522 672q-11 -21 -37.5 -59.5t-41.5 -78.5q-41 -107 -94 -253v-217l28 -63h-245q8 14 23 43q17 33 17 58v179q-25 66 -83 228q-31 92 -96 164h251q-13 -20 -26 -41q-9 -18 -7 -46l63 -187q5 19 37 115q30 90 30 95q-4 11 -26 63h207zM514 253q0 -26 -16 -45t-42 -19
q-28 0 -46 17.5t-18 45.5q0 23 17 41t40 18q24 0 44.5 -17t20.5 -41zM134 253q0 -26 -16 -45t-42 -19q-28 0 -46 17.5t-18 45.5q0 23 17 41t40 18q24 0 44.5 -17t20.5 -41zM160 727l199 106l34 -68l-222 -66z" />
    <glyph glyph-name="integral" unicode="&#x222b;" horiz-adv-x="464" 
d="M449 521q-15 -26 -44 -80q-8 -16 -29 -96q-28 -101 -92 -347q-23 -92 -57 -130q-40 -45 -109 -45q-56 0 -97 34q19 32 42 117q4 -4 16 -11q2 -1 17 -1q18 0 31 15.5t13 33.5q0 21 -59 223q-15 50 -66 233l-32 54h192q-7 -19 -7 -49q0 -50 19 -129l28 -112q8 17 28 123
q18 98 18 115q0 5 -23 52h211zM100 587l199 106l34 -68l-222 -66z" />
    <glyph glyph-name="Omega" unicode="&#x3a9;" horiz-adv-x="588" 
d="M534 166q1 -67 -63 -131q12 -15 25 -35h-292q-55 0 -101 53q-45 50 -45 106v95h-56v63h56v47h-56v63h56v68q0 23 20.5 64t20.5 35q0 6 -41 80h335q49 0 92.5 -51.5t43.5 -101.5v-38q-41 -5 -82 -12q-22 -3 -63 -15q-9 84 -93 84q-61 0 -61 -56q0 -16 1 -57h121v-63h-121
v-47h121v-63h-121v-54q0 -34 26 -52q11 -8 50 -8q31 0 48 17q12 12 26 45q58 -31 153 -36z" />
    <glyph glyph-name="Omega" unicode="&#x2126;" horiz-adv-x="588" 
d="M534 166q1 -67 -63 -131q12 -15 25 -35h-292q-55 0 -101 53q-45 50 -45 106v95h-56v63h56v47h-56v63h56v68q0 23 20.5 64t20.5 35q0 6 -41 80h335q49 0 92.5 -51.5t43.5 -101.5v-38q-41 -5 -82 -12q-22 -3 -63 -15q-9 84 -93 84q-61 0 -61 -56q0 -16 1 -57h121v-63h-121
v-47h121v-63h-121v-54q0 -34 26 -52q11 -8 50 -8q31 0 48 17q12 12 26 45q58 -31 153 -36z" />
    <glyph glyph-name="radical" unicode="&#x221a;" 
 />
    <glyph glyph-name="approxequal" unicode="&#x2248;" 
 />
    <glyph glyph-name="approxequal" unicode="&#x22f2;" 
 />
    <glyph glyph-name="Delta" unicode="&#x394;" 
 />
    <glyph glyph-name="Delta" unicode="&#x2206;" 
 />
    <glyph glyph-name="lozenge" unicode="&#x25ca;" 
 />
    <glyph glyph-name="fraction" unicode="&#x2044;" 
 />
    <glyph glyph-name="fi" unicode="&#xf001;" 
 />
    <glyph glyph-name="fl" unicode="&#xf002;" 
 />
    <glyph glyph-name="apple" unicode="&#xf000;" 
 />
    <glyph glyph-name="dotlessi" unicode="&#x131;" horiz-adv-x="247" 
d="M207 0h-199q25 61 26 66q7 25 7 61l-1 329q0 2 -16 31.5t-17 32.5h190q-19 -49 -19 -137l1 -324q8 -17 28 -59z" />
    <glyph glyph-name="breve" unicode="&#x2d8;" horiz-adv-x="331" 
d="M12 825l20 10q66 -62 130 -54q62 -8 127 54l21 -10q-52 -107 -151 -107q-98 0 -147 107z" />
    <glyph glyph-name="dotaccent" unicode="&#x2d9;" horiz-adv-x="189" 
d="M28 766q0 25 18 42t44 17t44 -17t18 -42q0 -24 -18 -41.5t-44 -17.5t-44 17.5t-18 41.5z" />
    <glyph glyph-name="ring" unicode="&#x2da;" horiz-adv-x="308" 
d="M151 843q32 0 55 -22.5t23 -54.5q0 -33 -23 -55.5t-55 -22.5t-54.5 22.5t-22.5 55.5q0 32 22.5 54.5t54.5 22.5zM151 803q-15 0 -26 -11t-11 -26q0 -16 11 -27t26 -11q16 0 27 11t11 27q0 15 -11 26t-27 11z" />
    <glyph glyph-name="hungarumlaut" unicode="&#x2dd;" horiz-adv-x="349" 
d="M155 727l66 130l54 -23l-98 -120q-4 1 -22 13zM55 727l61 129l54 -22l-93 -120q-5 3 -22 13z" />
    <glyph glyph-name="ogonek" unicode="&#x2db;" horiz-adv-x="321" 
d="M245 -81q-5 -38 -70 -68q-18 -8 -55 -15h-36q-56 0 -56 33q0 41 41 89t81 55q24 4 34 4h1q1 -1 13.5 -2t21.5 -9q-55 -20 -76 -57l-14 -38q-1 0 2.5 -8t23.5 -12q18 -4 46 9.5t27 13.5z" />
    <glyph glyph-name="caron" unicode="&#x2c7;" horiz-adv-x="332" 
d="M160 762l117 43l18 -26l-135 -80v0h-1v1l-135 79l18 26z" />
    </font>
</defs>
</svg>
