<?xml version="1.0" standalone="no"?>
<!DOCTYPE svg PUBLIC "-//W3C//DTD SVG 1.1//EN" "http://www.w3.org/Graphics/SVG/1.1/DTD/svg11.dtd" >
<svg>
<metadata>
Created by FontForge 20120731 at Wed Apr 17 19:51:42 2019
 By www-data
Digitized by Dan X. Solo. Software (c) 2000 by Dover Publications, Inc., New  York.
</metadata>
<defs>
<font id="ArtSans" horiz-adv-x="220" >
  <font-face 
    font-family="Art Sans"
    font-weight="400"
    font-stretch="normal"
    units-per-em="1000"
    panose-1="0 0 4 0 0 0 0 0 0 0"
    ascent="800"
    descent="-200"
    x-height="454"
    cap-height="655"
    bbox="-79 -230 839 861"
    underline-thickness="20"
    underline-position="-123"
    unicode-range="U+0020-F002"
  />
<missing-glyph horiz-adv-x="500" 
d="M63 0v800h375v-800h-375zM125 63h250v675h-250v-675z" />
    <glyph glyph-name=".notdef" horiz-adv-x="500" 
d="M63 0v800h375v-800h-375zM125 63h250v675h-250v-675z" />
    <glyph glyph-name="glyph1" horiz-adv-x="0" 
 />
    <glyph glyph-name="glyph2" horiz-adv-x="201" 
 />
    <glyph glyph-name="space" unicode=" " horiz-adv-x="201" 
 />
    <glyph glyph-name="exclam" unicode="!" horiz-adv-x="292" 
d="M220 652l-61 -486l-75 -1l-60 487h196zM185 4l-122 -1l1 126l120 -1zM190 629h-137l42 -340l53 -26z" />
    <glyph glyph-name="quotedbl" unicode="&#x22;" horiz-adv-x="309" 
d="M247 657l-30 -243h-48l-30 243h108zM228 643h-72l22 -169l29 -16zM111 657l-30 -243h-48l-30 243h108zM92 643h-72l22 -169l29 -16z" />
    <glyph glyph-name="numbersign" unicode="#" horiz-adv-x="542" 
d="M411 374l-23 -77h77l-49 -154h-73q-3 -8 -40 -141h-112l42 141h-32l-41 -139h-115l46 139h-75l49 154h70l23 77h-83l49 154h77l37 130h118l-38 -130h20l37 130h118l-38 -130h69l-49 -154h-64zM399 166l34 108h-76l36 123h65l34 108h-67l37 130h-70l-37 -130h-67l37 130
h-70l-37 -130h-77l-34 -108h81l-36 -123l176 -108h71zM251 297h21l22 77h-20zM220 274l36 123h69l-36 -123h-69z" />
    <glyph glyph-name="dollar" unicode="$" horiz-adv-x="420" 
d="M196 640h-19v-42l-20 -3q-124 -22 -124 -122q0 -70 55 -110q8 -5 96 -31q85 -24 135 -36q-14 26 -70 57q-87 50 -93 54q-46 32 -46 64q0 34 21.5 52.5t55.5 18.5q26 0 95 -35l25 61q-80 35 -111 31v41zM214 41v-42h-57v39q-60 5 -110 52t-50 104q0 28 16 59t39 47
q31 -22 85 -66q-28 -21 -28 -44q0 -26 20.5 -42t46.5 -16q29 0 52 19.5t23 48.5q0 35 -61 75q-107 69 -114 76q-62 52 -62 118q0 123 143 143v48h59v-45q36 0 116 -36l-44 -101q-71 44 -105 44q-56 0 -56 -47q0 -32 62 -68q99 -57 116 -72q63 -51 63 -120q0 -151 -154 -174z
" />
    <glyph glyph-name="percent" unicode="%" horiz-adv-x="747" 
d="M696 203q0 -90 -33 -144q-40 -67 -121 -62q-144 7 -141 219q1 78 37 129q42 56 116 55q73 -1 111 -65q31 -53 31 -132zM560 654q-335 -653 -338 -653h-83q340 654 343 654t78 -1zM296 463q0 -90 -33 -144q-40 -67 -121 -62q-144 7 -141 219q1 78 37 129q42 56 116 55
q73 -1 111 -65q31 -53 31 -132zM533 641h-41l-173 -329l32 -29zM681 194v27q0 64 -31 110q-35 54 -96 54q-140 0 -140 -198q0 -4 1 -14t2.5 -15t59.5 -32q-7 29 -8 52l-1 19q-7 136 79 138q79 2 79 -112v-71l46 -27q9 30 9 69zM610 170v70q0 32 -15.5 55.5t-45.5 23.5
q-43 0 -57 -50q-7 -27 -7 -86q0 -103 60 -103q65 0 65 90zM281 454v27q0 64 -31 110q-35 54 -96 54q-140 0 -140 -198q0 -4 1 -14t2.5 -15t59.5 -32q-7 29 -8 52l-1 19q-7 136 79 138q79 2 79 -112v-71l46 -27q9 30 9 69zM210 430v70q0 32 -15.5 55.5t-45.5 23.5
q-43 0 -57 -50q-7 -27 -7 -86q0 -103 60 -103q65 0 65 90z" />
    <glyph glyph-name="ampersand" unicode="&#x26;" horiz-adv-x="609" 
d="M570 -4q-44 -34 -123 -71q-21 60 -26 73q-19 47 -35 66q-49 -35 -60 -41q-61 -32 -132 -32q-84 0 -139.5 61.5t-55.5 145.5q0 60 30 101q33 38 66 77q-44 72 -44 143q0 74 58 120q52 42 129 44q65 2 114 -42q52 -47 52 -119q0 -26 -18 -62q-19 -41 -42 -44l3 -3h-1
q-3 0 -91 80q2 11 2 22q0 48 -39 48q-20 0 -32 -13.5t-12 -34.5q0 -53 73 -126q54 -55 122 -98q25 23 67 72q12 -18 36 -44q20 -20 40 -41l-58 -74q81 -115 116 -208zM483 275q-4 7 -49 54l-67 -74q-129 106 -136 112q-82 81 -82 145q0 31 18.5 51.5t49.5 20.5q64 0 64 -83
q23 -15 66 -55q10 6 20.5 33.5t10.5 42.5q0 55 -42 96t-98 41q-70 0 -114 -37q-48 -40 -48 -110q0 -69 53 -141q-54 -52 -71 -74q-36 -47 -36 -90q0 -8 2 -16q91 -41 100 -41q-14 47 -14 57q0 41 13 64t47 49q7 -1 77 -61l197 -108q14 7 12 10l-33 43q24 29 60 71zM315 165
q0 7 -83 76q-60 50 -62 50q-12 0 -26 -31q-11 -27 -11 -43q0 -108 94 -108q38 0 88 56z" />
    <glyph glyph-name="quotesingle" unicode="'" horiz-adv-x="173" 
d="M111 657l-30 -243h-48l-30 243h108zM92 643h-72l22 -169l29 -16z" />
    <glyph glyph-name="parenleft" unicode="(" horiz-adv-x="282" 
d="M223 -21h-91q-132 163 -132 360q0 194 132 338h90q-64 -232 -64 -372q0 -154 65 -326zM22 298l121 -93q-11 58 -11 117q0 76 20 169q9 39 44 166h-55q-57 -63 -88.5 -149.5t-31.5 -173.5q0 -18 1 -36z" />
    <glyph glyph-name="parenright" unicode=")" horiz-adv-x="280" 
d="M-1 -21h92q132 163 132 360q0 194 -133 338h-89q64 -232 64 -372q0 -154 -66 -326zM172 179l-78 98q2 103 -17 193q-4 18 -50 187l50 1q51 -56 82 -139q36 -93 36 -190q0 -77 -23 -150z" />
    <glyph glyph-name="asterisk" unicode="*" horiz-adv-x="311" 
d="M258 498q0 4 -1 5q-5 0 -15 1q-24 9 -92 33q97 33 103 32h4q1 3 1 4l-29 51q-2 1 -4 1q-3 -4 -9 -13q-19 -16 -75 -63q8 46 24 106q2 1 3 3q-2 3 -4 3l-58 1q-2 -2 -3 -4l3 -5t4 -8q4 -25 17 -97q-36 29 -79 74q-1 1 -2 3q-3 0 -4 -1l-30 -50q0 -3 1 -5q5 1 16 0
q23 -9 92 -34q-98 -32 -104 -32q-3 1 -4 0q-1 -2 -1 -4l29 -50q3 -2 5 -2q2 5 8 13q19 16 75 63q-7 -46 -24 -105q-1 -1 -2 -4q1 -2 3 -3h58q3 1 4 3q0 1 -3.5 6t-4.5 8q-4 25 -17 96q36 -29 80 -73q0 -2 2 -4q2 0 4 1zM242 441q-9 -16 -25 -7q-4 7 -10 15q-18 15 -41 35
q4 -25 10 -54q7 -12 7 -16q0 -21 -43 -21q-16 0 -34 3q-18 0 -18 18q0 5 3.5 11l3.5 6q4 22 10 53q-20 -16 -42 -36q-9 -16 -18 -16q-23 0 -46 60q-9 15 7 24q8 1 18 2q22 8 51 18q-50 18 -52 18q-14 0 -17 2q-8 5 -8 15q0 22 31 61q9 15 24 6q5 -6 11 -14q17 -15 40 -36
q-3 26 -9 55q-7 11 -7 15q0 21 42 21q17 0 35 -1.5t18 -19.5q0 -5 -4 -10.5l-4 -5.5q-4 -23 -10 -53q20 16 42 36q9 16 18 16q23 0 46 -60q9 -16 -6 -25q-8 0 -18 -2q-22 -7 -51 -17q49 -19 52 -19q13 0 17 -2q8 -4 8 -15q0 -22 -31 -60z" />
    <glyph glyph-name="plus" unicode="+" horiz-adv-x="556" 
d="M291 277v-185h-106v185h-185v107h185l-1 185h108v-185l184 -1v-105z" />
    <glyph glyph-name="comma" unicode="," horiz-adv-x="198" 
d="M129 134v-128l-69 -101l-45 22l22 77h-29l-1 130h122z" />
    <glyph glyph-name="hyphen" unicode="-" horiz-adv-x="293" 
d="M225 325v-126l-225 1v125h225zM202 223v79h-177l-3 -10zM-185 249z" />
    <glyph glyph-name="hyphen" unicode="&#x2010;" horiz-adv-x="293" 
d="M225 325v-126l-225 1v125h225zM202 223v79h-177l-3 -10zM-185 249z" />
    <glyph glyph-name="period" unicode="." horiz-adv-x="198" 
d="M128 127l1 -127l-126 1v125z" />
    <glyph glyph-name="slash" unicode="/" horiz-adv-x="372" 
d="M375 714l-290 -755h-93l290 755h93zM337 688h-39l-181 -478l22 -41z" />
    <glyph glyph-name="zero" unicode="0" horiz-adv-x="569" 
d="M495 336q0 -149 -55 -241q-67 -110 -202 -103q-141 8 -197 127q-41 86 -39 239q2 130 63 214q69 94 192 92t186 -108q52 -88 52 -220zM469 321v46q0 105 -51 183q-59 90 -160 90q-129 0 -188 -106q-45 -83 -45 -224q0 -7 1.5 -24t1.5 -26q5 -8 101 -52q-11 49 -13 87
l-1 31q-5 89 19 148q32 81 111 83q71 1 105 -61q27 -49 27 -126v-118l78 -47q14 52 14 116zM351 282v117q0 52 -24 89q-28 42 -78 42q-71 0 -94 -84q-12 -44 -12 -142q0 -173 100 -173q108 0 108 151z" />
    <glyph glyph-name="one" unicode="1" horiz-adv-x="374" 
d="M249 0l-143 -1l1 450h-76l1 72q66 26 105 137h111zM225 632h-70q-38 -103 -99 -127v-33l75 -1l-1 -222l95 -62v445z" />
    <glyph glyph-name="two" unicode="2" horiz-adv-x="545" 
d="M481 446q0 -95 -73 -164q-34 -32 -133 -90q-68 -39 -62 -65q0 -2 258 -1q3 5 -55 -125h-414q0 131 88 217q22 22 162 115q87 57 87 119q0 36 -26.5 63t-61.5 27q-26 0 -50.5 -17.5t-33.5 -44.5q-9 -18 -23 -60q-57 10 -131 21q-8 85 64.5 155.5t168.5 70.5
q98 0 166.5 -62t68.5 -159zM457 450q0 84 -69 142q-64 54 -149 54q-80 0 -141 -63q-55 -57 -60 -124l88 -15q33 121 125 121q54 0 87 -39q30 -34 30 -79q0 -52 -71 -114q-50 -43 -118 -79l64 -55q214 109 214 251z" />
    <glyph glyph-name="three" unicode="3" horiz-adv-x="496" 
d="M184 -3q-55 0 -117 35q-72 41 -86 100q50 27 130 70q9 -35 19 -49q21 -26 65 -26q86 0 86 98q0 95 -87 95q-8 0 -15 -1l11 124q76 8 74 67q-1 49 -52 72q-38 17 -93 17q-22 0 -66 -11q-10 66 -30 181q152 -35 227 -69q147 -67 152 -167q5 -98 -85 -148q102 -59 102 -157
q0 -104 -65.5 -167.5t-169.5 -63.5zM398 242q2 36 -36 80q-35 39 -73 54q-2 7 0 10q2 4 1 11q44 23 62 47q24 32 24 84q0 94 -161 160q-67 27 -162 47l22 -117q31 6 46 6q60 0 108 -24q60 -29 60 -82q0 -78 -79 -96q-4 -35 -8 -83q12 0 23 -3q26 -5 42 -20q27 -25 32 -55
q2 -7 97 -49z" />
    <glyph glyph-name="four" unicode="4" horiz-adv-x="543" 
d="M473 125h-67v-185l-138 -57v243h-275v119l213 413l193 -1l1 -404h73v-128zM377 635h-154l-190 -368l71 -48l159 319l27 1v-212q43 -59 86 -117zM268 507l-124 -258h124v258z" />
    <glyph glyph-name="five" unicode="5" horiz-adv-x="515" 
d="M441 209q0 -126 -101 -221q-91 -85 -222 -112l-68 121q87 23 153 69q88 60 88 130q0 40 -23.5 68t-63.5 28q-67 0 -110 -43l-100 79l87 329h356l-36 -124l-215 -1l-46 -143q50 23 100 23q86 0 143.5 -59t57.5 -144zM414 217q0 68 -54.5 119t-123.5 51q-35 0 -110 -29
l-16 13l52 185l215 1l25 72h-300l-79 -290l73 -59q52 38 109 38q39 0 70 -25t41 -63q39 -21 98 -44v31z" />
    <glyph glyph-name="six" unicode="6" horiz-adv-x="552" 
d="M482 235q0 -100 -68.5 -170.5t-167.5 -70.5q-125 0 -190 99q-56 85 -56 216q0 182 91 310q101 144 275 149l42 -143q-127 -14 -196 -103q-65 -84 -65 -215q0 -188 106 -188q33 0 58.5 27t25.5 61t-18.5 56t-47.5 22q-15 0 -32 -7q-5 72 -36 113q47 45 107 45
q78 0 127 -63q45 -58 45 -138zM352 742q-157 -17 -244 -144q-79 -115 -79 -280q0 -27 3 -53q10 -12 50 -35.5t54 -24.5q-15 39 -15 106q0 128 65 217q69 96 191 114zM306 414q-16 0 -41 -7q-30 -9 -30 -20q0 -6 6 -17q8 -15 8 -17q5 -12 11 -50q8 1 17 1q50 0 73 -49
q36 -15 102 -55q7 1 7 25q0 76 -38 129q-42 60 -115 60z" />
    <glyph glyph-name="seven" unicode="7" horiz-adv-x="463" 
d="M163 -120l-122 53l198 600h-244l31 123l389 2zM377 631h-326l-23 -77h243l-101 -301l69 -63z" />
    <glyph glyph-name="eight" unicode="8" horiz-adv-x="531" 
d="M462 170q-2 -76 -63.5 -127t-138.5 -51q-7 -1 -38 -1q-30 0 -35 1q-75 0 -130 55.5t-55 130.5q0 56 29 95q24 33 78 66q-99 49 -99 153q0 86 70 132q61 41 155 40q91 -1 150 -39q69 -45 69 -130q0 -50 -24 -90.5t-64 -57.5q34 -18 63 -57q35 -48 34 -96zM427 498
q0 69 -64 109q-55 35 -128 35q-82 0 -135 -34q-62 -41 -62 -121q0 -56 32 -92q17 -19 77 -56q-27 -9 -62 -38.5t-40 -52.5l75 -54q9 41 17 56q31 53 98 53q82 0 106 -67q29 -11 99 -48v23q0 42 -49 90q-41 41 -64 46q48 12 76 59q24 42 24 92zM323 202q0 35 -27 57t-62 22
q-39 0 -64.5 -25t-25.5 -64q0 -31 25 -53t56 -22q42 0 70 22.5t28 62.5zM228 385q-38 0 -68 24q-33 25 -34 63q-2 45 32 71q30 23 76 23q41 0 71.5 -25t30.5 -64q0 -41 -32.5 -66.5t-75.5 -25.5zM236 544q-37 2 -62 -17t-25 -56q1 -25 25 -44.5t49 -19.5q88 0 88 69
q0 25 -24 46t-51 22z" />
    <glyph glyph-name="nine" unicode="9" horiz-adv-x="542" 
d="M469 385q0 -195 -81 -326q-96 -154 -278 -166q-14 41 -36 123q123 19 195 127q65 97 65 228q0 180 -120 180q-35 0 -57 -29.5t-22 -65.5q0 -79 65 -79q17 0 37 8q4 -59 34 -115q-48 -36 -109 -36q-72 0 -121 57t-49 129q0 102 67 176.5t167 74.5q109 0 179 -91
q64 -84 64 -195zM444 378q0 104 -57 184q-63 88 -162 88q-89 0 -150 -74q-57 -70 -57 -160q0 -65 45 -112t110 -47q12 0 38 7q30 8 30 16q0 -3 -10 26.5t-10 50.5q-4 1 -9 0q-5 -2 -8 -2q-97 0 -92 107q1 43 30 75q31 36 76 36q141 0 141 -220q0 -62 -15 -100l75 -36
q25 56 25 161z" />
    <glyph glyph-name="colon" unicode=":" horiz-adv-x="190" 
d="M138 127v-127l-126 1v125zM132 445l1 -125h-126v125h125zM109 343v79h-77v-79h77z" />
    <glyph glyph-name="semicolon" unicode=";" horiz-adv-x="204" 
d="M132 445l1 -125h-126v125h125zM132 134v-128l-69 -101l-45 22l22 77h-29v130h121zM109 343v79h-77v-79h77z" />
    <glyph glyph-name="less" unicode="&#x3c;" horiz-adv-x="455" 
d="M351 569l41 -41l-282 -192l281 -191l-40 -41l-343 232z" />
    <glyph glyph-name="equal" unicode="=" horiz-adv-x="393" 
d="M345 265v-75h-345v75h345zM345 405v-76l-345 1v75h345z" />
    <glyph glyph-name="greater" unicode="&#x3e;" horiz-adv-x="467" 
d="M49 104l-41 41l282 192l-281 191l41 41l342 -233z" />
    <glyph glyph-name="question" unicode="?" horiz-adv-x="344" 
d="M277 508q0 -51 -20 -92q-26 -52 -67 -124q-12 -23 -17 -33q-9 -19 -12 -34q-4 -24 -5 -66h-69l-9 95q2 28 9 78q12 25 31 75q9 34 9 61q0 43 -48 43q-21 0 -36 -6q-1 0 -6 36q-7 46 -11 63q-8 28 -20 86q1 0 51 -10q27 -6 53 -12q71 -11 116 -51q51 -44 51 -109zM184 127
l1 -127l-126 1v125zM251 497q0 81 -80 123q-42 23 -133 41l28 -127h9q79 0 79 -67q0 -21 -14 -67q-12 -42 -24 -66l42 -37q10 2 44 68q33 62 37 80q1 4 7 25q5 15 5 27z" />
    <glyph glyph-name="at" unicode="@" horiz-adv-x="762" 
d="M699 379q0 -110 -56.5 -179.5t-138.5 -69.5q-92 0 -99 75q-54 -65 -129 -65q-42 0 -71 31q-32 34 -32 94q0 110 59 184q65 82 176 82q60 0 116 -30q-11 -36 -54 -232q-6 -26 -6 -43q0 -39 43 -39q47 0 82 56t35 136q0 102 -73 172q-76 71 -193 71q-122 0 -203 -93
q-77 -89 -77 -211q0 -112 77 -185.5t187 -73.5q65 0 124 19l16 -58q-61 -20 -140 -20q-143 0 -237 82q-102 88 -102 236q0 153 100.5 257t254.5 104q147 0 244 -82.5t97 -217.5zM438 469q-13 6 -36 6q-75 0 -118 -71q-36 -60 -36 -142q0 -60 46 -60q31 0 62 28q37 32 48 85z
" />
    <glyph glyph-name="A" unicode="A" horiz-adv-x="593" 
d="M519 224l-51 -30l60 -270l-131 -50l-66 274l-168 -67l-21 -82h-143l157 658h203l80 -333l81 28zM496 314l-76 -28l-83 346h-157l-97 -405l150 -91l116 47l112 -65l-20 89l55 29v78zM337 258l-163 -61l-12 8l77 317h31zM254 478l-57 -246l107 40z" />
    <glyph glyph-name="B" unicode="B" horiz-adv-x="595" 
d="M519 196q0 -81 -58.5 -138.5t-140.5 -57.5q-32 0 -306 1q24 198 24 280v121q0 48 -20 165l130 57q29 -141 31 -230q80 30 115 53q65 45 65 106q0 38 -22.5 63.5t-60.5 25.5q-43 0 -65 -28q-54 59 -140 59q-17 0 -42 -3q25 57 81 88q52 30 118 30q120 0 193 -50
q86 -58 86 -174q0 -112 -83 -187q49 -40 70 -75q25 -44 25 -106zM494 224q-6 49 -38 88q-8 10 -69 67q23 24 47 47q43 55 43 148q0 90 -68 140q-65 47 -174 47q-116 0 -151 -66q45 -2 64 -8q34 -9 65 -37q37 20 68 20q47 0 78.5 -35t31.5 -80q0 -130 -234 -192q0 82 -28 226
l-87 -37q18 -85 19 -123q3 -148 -2 -183l98 -50l6 72q37 10 153 72q14 -16 25 -30q26 -35 33 -55q24 -17 120 -65v34zM361 211q0 29 -17 59q-3 6 -31 43q-43 -24 -128 -58q-5 -39 -9 -129l95 -1q38 0 64 24t26 62z" />
    <glyph glyph-name="C" unicode="C" horiz-adv-x="461" 
d="M387 500q-64 38 -120 38q-59 0 -85 -48q-14 -27 -27 -100q0 -112 21 -171q29 -80 89 -145q68 -72 135 -74q-65 -85 -99 -119q-120 41 -211 202q-82 143 -88 271q-6 131 50 220q65 103 192 103q18 0 37 -2l102 -12l54 5q-11 -27 -50 -168zM401 638q-8 -2 -18 -2
q-23 0 -66 9.5t-56 9.5q-123 0 -183 -86q-52 -74 -52 -205q0 -45 20 -114q22 -19 118 -67q-33 76 -33 185q0 196 141 196q36 0 98 -24q16 42 31 98z" />
    <glyph glyph-name="D" unicode="D" horiz-adv-x="582" 
d="M92 -1h-45q-29 1 -46 1q26 166 26 326q0 126 -22 242l119 50q51 -122 51 -315q0 -98 -14 -181h24q137 0 176 85q22 49 22 209q0 78 -26 140q-34 83 -102 83q-28 0 -54 -34q-17 31 -66 50q-43 17 -90 17q-16 0 -30 -2q23 54 93 86q60 27 126 27q145 0 218 -113
q62 -95 62 -248q0 -416 -231 -422q-41 -1 -191 -1zM488 398q0 357 -257 357q-104 0 -167 -61q84 2 143 -52q19 19 47 19q85 0 128 -92q33 -71 33 -165q0 -59 -10 -153l58 -61q25 60 25 208zM109 585l-75 -31q22 -125 22 -218q0 -46 -5 -85q31 -14 93 -48q8 37 8 93
q0 173 -43 289z" />
    <glyph glyph-name="E" unicode="E" horiz-adv-x="536" 
d="M452 528l-291 1v-172l182 68l1 -125l-187 -78l-1 -98h297v-124h-433v656h432v-128zM428 630l-381 1l-1 -391l83 -50l-1 45l192 85v72l-185 -76v236h292z" />
    <glyph glyph-name="F" unicode="F" horiz-adv-x="495" 
d="M452 528l-291 1v-172l182 68v-125l-186 -78l1 -221l-138 -1v656h432v-128zM427 631l-382 1l1 -392l83 -50l-1 46l192 84v72l-185 -73v233h292v79z" />
    <glyph glyph-name="G" unicode="G" horiz-adv-x="564" 
d="M482 -3q-34 15 -53 15q-12 0 -34 -8q-45 -17 -143 -17q-202 0 -237 247q-10 51 -10 93q0 49 13 91q30 90 48 122q28 49 89 97t204 132q21 -29 80 -145q-45 -20 -89 -41q-84 -44 -131 -108q-66 -89 -60 -216q3 -52 26 -94q29 -50 76 -50q30 0 53.5 19t23.5 49q0 21 -20 34
q-16 11 -32 11q-7 0 -7 -4v27q26 11 204 79zM402 641q-5 15 -22 42q-21 34 -25 42q-173 -87 -237 -166q-80 -99 -80 -278q0 -1 7 -40q7 -7 46 -21q49 -18 51 -19q-18 73 -13 117q12 99 54 163q34 52 98 93q6 3 121 67z" />
    <glyph glyph-name="H" unicode="H" horiz-adv-x="536" 
d="M459 0h-132l1 340l-182 -83v-257l-137 -1l1 657l136 1v-266l183 85v309l130 -52v-733zM434 713l-79 32v-284l-236 -105v274h-83v-381l89 -43v66l228 105l-1 -110l82 -61v507z" />
    <glyph glyph-name="I" unicode="I" horiz-adv-x="222" 
d="M153 1h-144v654h144v-654zM129 632h-97l1 -375l96 -66v441z" />
    <glyph glyph-name="J" unicode="J" horiz-adv-x="276" 
d="M200 52q1 -54 -36 -103q-47 -63 -129 -63h-34l-25 121q21 -2 30 -2q36 0 47 32q4 15 4 62l-1 558l144 1v-606zM174 635h-93l1 -374q33 -19 92 -52v426z" />
    <glyph glyph-name="K" unicode="K" horiz-adv-x="496" 
d="M455 656l-167 -262l188 -456l-139 -55l-143 354l-59 -80l-1 -156h-139v657h135v-279l172 277h153zM412 633h-94l-213 -336v340h-83v-367l110 -71l67 93l20 -45l130 -61l-90 210z" />
    <glyph glyph-name="L" unicode="L" horiz-adv-x="375" 
d="M322 1h-320v655h140v-535h181zM117 635h-90v-386l90 -58v444z" />
    <glyph glyph-name="M" unicode="M" horiz-adv-x="674" 
d="M598 -64l-143 -55v542l-91 -423h-122l-96 416v-415h-145v656h220l83 -315l70 316l224 -1v-721zM571 634h-177l-75 -338l-28 1l-95 337h-167v-392l88 -51v309h31l70 -251l154 -77l75 325l32 1v-263l93 -45z" />
    <glyph glyph-name="N" unicode="N" horiz-adv-x="550" 
d="M474 737v-737l-158 1l-172 402v-402h-142v655h183l144 -319v459zM446 716l-90 39v-472h-34l-160 348l-130 1v-392l87 -65l1 280h26l70 -156l231 -133z" />
    <glyph glyph-name="O" unicode="O" horiz-adv-x="589" 
d="M511 356q0 -150 -51 -244q-65 -120 -202 -120q-116 0 -186 84q-65 78 -65 197q0 89 27 136q69 -30 130 -40q-9 -54 -9 -91q0 -57 22 -101q27 -56 78 -56q106 0 106 197q0 207 -98 207q-60 0 -60 -49q0 -20 9 -46q-30 -13 -54 -13q-32 0 -70 23q-7 4 -61 44q21 85 83 133
t150 48q124 0 191 -96q60 -84 60 -213zM490 344q0 116 -54 199q-62 97 -172 97q-112 0 -170 -71q-22 -26 -40 -80q53 -47 90 -47q8 0 16 1l20 5q-5 15 -5 27q0 31 25 51.5t57 20.5q129 0 129 -210q0 -30 -3 -79q35 -24 86 -54q21 74 21 140zM149 184q-21 30 -21 109
q0 20 7 53q-30 8 -88 27q-20 -79 -20 -99q0 -3 4 -27q1 -6 54 -34.5t64 -28.5z" />
    <glyph glyph-name="P" unicode="P" horiz-adv-x="548" 
d="M169 262l1 -38q1 -49 -3 -113q-6 -85 -19 -108h-149q35 123 35 285q0 156 -22 286q25 7 60 23l58 28q21 -30 37 -235q64 18 115 56q63 48 63 103q0 99 -78 99q-38 0 -57 -31q-42 34 -69 46q-30 13 -71 13q-19 0 -47 -2q36 112 205 112q111 0 185 -56q82 -62 82 -170
q0 -90 -51 -151q-42 -49 -125 -87q-6 -3 -150 -60zM470 556q0 101 -73 156q-66 50 -170 50q-121 0 -164 -62h13q59 1 133 -47q27 17 48 17q120 0 120 -119q0 -62 -87 -129q-83 -63 -146 -64q-1 -1 -2 4v11q-2 31 -11 110q-10 89 -17 107q-20 -8 -75 -36q21 -199 21 -239
q0 -39 -5 -72l89 -72q7 40 -1 107q153 50 215 90q112 73 112 188z" />
    <glyph glyph-name="Q" unicode="Q" horiz-adv-x="559" 
d="M499 287q0 -120 -81 -226q27 -32 34 -40q22 -24 40 -35q-93 -99 -103 -97q-24 5 -48 52q-20 38 -26 69l-71 -12q-131 0 -194 106q-51 86 -51 225q0 140 58 231q69 109 202 109q76 0 146 -51q78 -55 78 -129l-2 -12q-66 -50 -136 -50q-39 0 -63 19q26 24 26 40
q0 46 -59 46q-58 0 -84 -78q-18 -53 -18 -125q0 -202 94 -202q32 0 38 11q-5 19 -26 35q-20 13 -39 26l59 56q10 -1 33.5 -18.5t37.5 -37.5q5 8 7 24q1 10 0 28q-1 24 -1 26q0 62 -9 96q44 10 135 41q23 -80 23 -127zM473 295q0 13 -4.5 46.5t-8.5 37.5q6 0 -95 -23
q9 -28 9 -105q0 -7 84 -52q15 19 15 96zM451 490q-6 68 -72 113q-61 40 -133 40q-59 0 -112 -41t-76 -98q-31 -76 -31 -171q0 -13 2 -80l105 -48q-17 80 -17 112q0 241 131 241q86 0 86 -65q0 -5 -4 -18.5t-2 -19.5q27 -2 64.5 8t58.5 27z" />
    <glyph glyph-name="R" unicode="R" horiz-adv-x="546" 
d="M501 -56l-131 -65q-18 87 -34 162q-39 178 -65 261q3 2 -109 -40q3 -44 -2 -134q-6 -104 -19 -125h-149q35 123 35 285q0 114 -19 262q-3 26 -3 24q22 6 59 23q30 14 59 28l5 -10q21 -83 32 -225q51 16 88 38q88 52 90 121q1 42 -17 68q-20 31 -61 31q-39 0 -57 -31
q-39 32 -54 40q-30 17 -65 17q-12 0 -35.5 -2.5t-35.5 -1.5q37 118 218 116q107 -2 179 -59q78 -62 78 -167q0 -112 -92 -193zM463 556q0 102 -74 157q-66 49 -169 49q-63 -1 -102 -16q-34 -14 -68 -48q27 4 44 4q32 0 108 -49q28 17 48 17q119 0 119 -119q0 -67 -92 -133
q-83 -60 -140 -60q-2 0 -2 15q0 24 -11.5 114t-16.5 103q-17 -6 -75 -36q19 -182 19 -261q0 -31 -3 -50l89 -72q6 45 -1 107q17 11 152 57l32 -124l107 -61l-61 223q97 78 97 183z" />
    <glyph glyph-name="S" unicode="S" horiz-adv-x="485" 
d="M437 148q-4 -127 -202 -209q-83 -34 -198 -57l-57 171q19 -8 66 -9q76 -3 142 19q91 31 93 94q2 58 -75 104q-136 82 -142 87q-75 65 -72 170q3 88 64 143q45 40 139 72q77 25 154 51q7 -15 35 -82q28 -71 27 -75q-72 6 -153 -14q-112 -28 -115 -92q-2 -56 76 -105
q135 -85 145 -93q77 -69 73 -175zM413 158q2 90 -78 152q-74 46 -147 92q-79 53 -76 120q3 58 68 91q46 23 120 33l72 6q-14 37 -42 95l-18 -7q-58 -18 -115 -37q-77 -28 -118 -64q-55 -49 -57 -122q-3 -80 39 -130q27 -33 97 -71q80 -43 106.5 -66t34.5 -59q2 -2 109 -58
q3 11 5 25z" />
    <glyph glyph-name="T" unicode="T" horiz-adv-x="451" 
d="M415 661l-136 -64l1 -596h-139l1 542l-143 -57v123l416 180v-128zM393 753l-369 -158v-75l143 61v-354l85 -51v437l140 63z" />
    <glyph glyph-name="U" unicode="U" horiz-adv-x="544" 
d="M473 232q0 -104 -65 -171.5t-169 -67.5q-111 0 -173.5 62.5t-62.5 173.5v427l136 -1v-425q1 -52 24.5 -82.5t68.5 -28.5q52 1 74.5 27t22.5 82l1 547l141 -56zM444 700l-88 36v-482q35 -17 86 -37q-2 149 2 483zM114 629h-84v-372l84 -48v420z" />
    <glyph glyph-name="V" unicode="V" horiz-adv-x="520" 
d="M481 735l-171 -734h-189l-136 652l132 1l95 -449l139 575zM450 720l-79 25l-120 -488l73 -52zM185 216l-91 413h-78l74 -351z" />
    <glyph glyph-name="W" unicode="W" horiz-adv-x="795" 
d="M762 724l-170 -723h-145l-76 378l-91 -378h-136q-12 49 -153 654h142l83 -351l8 -2q6 27 75 354h148l81 -341l8 -2l109 472zM730 711l-68 37l-117 -512l66 -37zM518 255l-90 373l-104 1q-1 -11 -83 -372l68 -31l52 213h22l27 -115q60 -34 80 -48q14 -11 28 -21zM111 630
h-85l74 -311l95 -39z" />
    <glyph glyph-name="X" unicode="X" horiz-adv-x="527" 
d="M505 -45l-107 -80q20 -27 -169 319l-3 -2l-110 -192h-144l180 341l-176 347l111 70l140 -274l82 173h156l-160 -316zM424 635h-91l-106 -206l-147 293l-72 -43l173 -335l-65 -120l75 -46l43 67l137 -84l-96 181z" />
    <glyph glyph-name="Y" unicode="Y" horiz-adv-x="501" 
d="M478 729l-199 -512v-278l-135 -54l-1 335l-158 436h132l92 -248l149 374zM443 715l-69 33l-165 -402l-108 283h-76l142 -389l89 -62v59z" />
    <glyph glyph-name="Z" unicode="Z" horiz-adv-x="470" 
d="M414 543l-261 -413h260v-128l-413 -1v115l260 415h-239v126h393v-114zM390 632h-343v-77l259 1l-199 -310l63 -46l220 352v80z" />
    <glyph glyph-name="bracketleft" unicode="[" horiz-adv-x="235" 
d="M186 -39v-63h-188v758h188v-73h-75v-622h75zM87 606h75l-1 25l-137 1v-486l63 -32v492z" />
    <glyph glyph-name="backslash" unicode="\" horiz-adv-x="666" 
d="M418 283l26 -149l-134 70l-134 -70l26 149l-108 105l149 22l67 136l67 -136l149 -22zM359 386l-49 100l-49 -100l-111 -16l80 -78l-19 -110l99 52l99 -52l-19 110l80 78z" />
    <glyph glyph-name="bracketright" unicode="]" horiz-adv-x="235" 
d="M-2 -39v-63h188v758h-188v-73h75v-622h-75zM96 606h-74l1 25l138 1l-1 -486l-64 -32v492z" />
    <glyph glyph-name="asciicircum" unicode="^" horiz-adv-x="409" 
d="M202 720l-124 -42l-18 37l141 95l141 -90l-11 -41zM201 743l114 -36l1 3l-114 74l-114 -76l1 -3z" />
    <glyph glyph-name="underscore" unicode="_" horiz-adv-x="573" 
d="M-1 -86h574v-52h-574v52z" />
    <glyph glyph-name="grave" unicode="`" horiz-adv-x="349" 
d="M274 714l4 6l-178 96l-25 -57zM286 689l-242 55l45 102l218 -117z" />
    <glyph glyph-name="a" unicode="a" horiz-adv-x="434" 
d="M371 1q-7 -2 -26 -1.5t-63 -1t-67 -1.5q-99 0 -148 25q-67 33 -66 119q0 64 39.5 108t102.5 44q47 0 73 -20q-12 -28 -35 -83q-5 2 -17 2q-18 0 -31 -12t-13 -30q0 -36 38 -47q18 -5 68 -5q14 0 14 75v146q0 23 -17 40t-39 17q-58 0 -58 -61q-53 26 -81 26q-6 0 -21 -5
q-1 68 56 104q47 29 119 29q81 0 123 -52q38 -47 37 -127q-1 -51 -1 -202q0 -66 13 -87zM340 175v124q-3 21 -6 43q-8 43 -33 69q-35 36 -102 39q-46 2 -88 -15q-56 -23 -62 -73q0 -1 24.5 -6t35.5 -11q4 22 26 36.5t48 13.5q66 -3 76 -78v-94q0 -3 81 -48zM50 218
q0 -2 28.5 -25.5t28.5 -21.5q0 18 24 30q19 9 37 9q8 17 22 52q-9 13 -39 13q-34 0 -65 -16q-34 -17 -36 -41z" />
    <glyph glyph-name="b" unicode="b" horiz-adv-x="448" 
d="M111 496v-314l-68 30v167q0 184 -12 232q25 5 69 19q9 -46 10 -59q1 -9 1 -75zM386 230q-1 98 -47 155q-22 27 -123 104q-14 -22 -51 -91q29 -24 57 -49q25 -22 33 -44q11 -27 11 -76v-61q-4 -54 -44 -66q-12 -4 -88 -6l1 434q0 60 -19 126l-111 -33q13 -19 13 -134
l1 -488q29 -1 203 -1q167 0 164 230zM360 230q0 -19 -2 -59l-70 34q1 6 -0.5 23.5t-1.5 20.5q0 54 -28 93q-18 25 -64 60q1 8 28 52q72 -46 103 -92q35 -54 35 -132z" />
    <glyph glyph-name="c" unicode="c" horiz-adv-x="404" 
d="M357 452q-8 -48 -30 -140q-24 14 -48 27t-55 13q-56 0 -83 -43q-22 -36 -22 -93q0 -92 47 -153q18 -24 113 -106l19 -11l-55 -93q-7 4 -21 11q-98 58 -168 166q-56 86 -56 187q0 111 60.5 175t170.5 64q-2 0 28 -4q27 -3 48 -2q16 -2 35 1q15 2 17 1zM333 428h-35
q-59 11 -94 6q-80 2 -135 -67q-49 -62 -49 -138q0 -15 3 -28q17 -14 77 -33q-3 30 -3 53q0 94 53 131q32 23 57 23q27 0 55 -9q25 -9 51 -17q8 33 20 79z" />
    <glyph glyph-name="d" unicode="d" horiz-adv-x="438" 
d="M375 623q-14 -53 -21 -138q0 -90 1 -260q2 -191 2 -226h-170q-112 -1 -153 60q-34 50 -34 171q0 82 49 154.5t125 95.5l52 -85q-58 -31 -82 -67q-27 -41 -27 -114q0 -67 10 -87q17 -31 77 -30h48v398q0 104 20 162q69 -21 103 -34zM355 609q-36 11 -64 22
q-17 -50 -17 -179v-242q10 -10 61 -41q0 332 0 309q2 91 20 131zM198 402l-31 52q-58 -18 -102.5 -87t-45.5 -146q0 -8 77 -55v39q0 82 17 117q20 44 85 80z" />
    <glyph glyph-name="e" unicode="e" horiz-adv-x="424" 
d="M359 240q-49 -13 -99 -26q-56 -15 -95 -35l-26 83q29 19 96 35q0 25 -16.5 46.5t-40.5 21.5q-68 0 -68 -148q0 -46 14 -82q19 -50 57 -50q39 0 56 22q1 2 26 55l95 -30q-8 -71 -60 -110q-48 -36 -122 -36q-90 0 -139 71q-43 61 -43 153q0 252 187 252q85 0 134 -71
q44 -63 44 -151zM183 442q-98 0 -140 -88q-32 -66 -26 -159l76 -44q-5 48 -5 94q0 139 92 139q33 0 56 -28t20 -60l-1 -12q-36 -7 -94 -30l17 -53q31 22 157 52q0 77 -36 129q-42 60 -116 60z" />
    <glyph glyph-name="f" unicode="f" horiz-adv-x="306" 
d="M244 454l1 -110l-69 25l-2 -368h-115v380l-58 12v61l58 1q-1 7 -1 20q0 185 165 182h26v-103q-43 -6 -60 -32q-15 -22 -14 -68h69zM224 435h-72v36q0 81 75 98v70h-13q-84 2 -113 -62q-20 -44 -17 -140h-61v-27l57 -11v-198l72 -43v237l72 -21v61z" />
    <glyph glyph-name="g" unicode="g" horiz-adv-x="447" 
d="M366 455q-2 -9 -4 -53v-276q0 -21 3.5 -61t3.5 -60q0 -79 -39 -131q-42 -56 -110 -56q-16 0 -49.5 3t-50.5 3q-28 0 -53 -6q-1 0 -13 -4.5t-16 -3.5q-1 5 -16 49q-13 37 -10 40q22 20 85 20q16 0 34 -1t17 -1q51 3 71 15q30 18 29 65q-2 122 -2 368q-32 1 -48 1
q-58 0 -73 -72q-6 -27 -6 -119q0 -29 12 -53q15 -29 42 -29q9 0 26 11q2 1 16 -46t14 -52q-27 -14 -60 -14q-170 0 -170 233q0 111 32 162q42 66 147 68h188zM338 433q-28 2 -66 1q-49 -2 -87 -1q-94 2 -135 -63q-27 -44 -27 -112q0 -21 2 -37l72 -59q-4 38 -4 52
q0 168 101 173q19 1 74 0v-171l70 -50v122v145z" />
    <glyph glyph-name="h" unicode="h" horiz-adv-x="428" 
d="M372 1h-108q-18 29 -18 110v201q0 41 -43 51q-15 4 -76 4v-366h-106v532q-6 82 -12 104l106 25q13 -32 14 -98q2 -95 0 -109h86q73 0 112 -52q25 -34 25 -88v-173q0 -64 10 -111q4 -18 10 -30zM330 211q0 121 -10 152q-26 74 -128 72h-86q6 163 -9 203q-27 -9 -63 -17
q4 -30 7 -88q1 -123 1 -329l64 -38v219h80q80 1 80 -94v-87q0 -3 32 -23t32 -19v49z" />
    <glyph glyph-name="i" unicode="i" horiz-adv-x="200" 
d="M117 512h-100v110h100v-110zM135 1h-126l7 57l-3 396l113 1v-397zM96 600h-58v-68h58v68zM101 433l-61 2v-192l62 -70z" />
    <glyph glyph-name="j" unicode="j" horiz-adv-x="219" 
d="M129 -95q-7 -16 -31.5 -38.5t-44.5 -30.5q-14 -6 -41 -13l-42 95l30 15q27 16 34 49q2 12 2 62l-3 410l113 1l-1 -406q7 -93 -16 -144zM137 512h-100l-1 109l101 1v-110zM116 600h-58v-68h58v68zM122 435h-64v-192l64 -70v262z" />
    <glyph glyph-name="k" unicode="k" horiz-adv-x="415" 
d="M382 -8l-32 -22l-48 -30q-31 22 -41 59q-32 113 -88 172q-16 -20 -45 -58v-72l6 -40l-121 -2l8 48v492l-10 80l106 37q17 -64 17 -109q1 -82 -2 -262q13 19 109 169h116l-116 -189q32 -44 49 -75q38 -67 65 -149q8 -21 27 -49zM317 433h-58l-145 -219l-3 1l-1 332
q0 43 -13 79l-63 -23q4 -13 4 -22q0 -20 5 -52v-307q10 -8 102 -57l29 37l21 -24q31 -8 90 -26q-23 58 -70 113z" />
    <glyph glyph-name="l" unicode="l" horiz-adv-x="207" 
d="M134 -1h-124q0 12 4 76v482l-5 98h119v-582q1 -40 6 -74zM102 634h-72l4 -79v-344l68 -42v465z" />
    <glyph glyph-name="m" unicode="m" horiz-adv-x="667" 
d="M610 -41l-101 -45q-2 6 -5 12q-27 40 -27 160q0 25 1.5 66t1.5 52.5t1 35.5t1 36q0 49 -11 65q-14 23 -62 23h-25q-17 1 -25 1v-364h-108v364h-117v-364h-123q8 47 8 54q0 18 1 46t1 47v111q-1 51 -1 111q0 26 -9 85h350q82 0 111 -6q62 -12 89.5 -57.5t28.5 -113.5
l1 -248q0 -25 19 -71zM568 256q2 87 -31 129q-37 48 -123 48l-377 -1q3 -19 6 -51l1 -177l66 -29q0 132 0 87v87q0 44 0 40h162q-2 -183 1 -188t64 -31l1 219h84q80 0 85 -83q-3 -46 -1 -102q29 -13 62 -28v80z" />
    <glyph glyph-name="n" unicode="n" horiz-adv-x="446" 
d="M136 363v-363l-125 1q11 47 11 54v46q-1 28 -1 47v111q-1 51 -1 111q0 26 -11 85h142q79 0 106 -6q57 -12 85 -58t28 -113l-2 -249q0 -26 22 -70l-101 -45q-2 6 -5 12q-20 29 -24 140v138q0 12 1 36t1 36q0 49 -11 65q-14 23 -62 23h-17q-9 -1 -17 -1h-19zM202 389
q80 1 85 -83q-3 -46 -1 -102q29 -13 62 -28v80q2 87 -31 129q-37 48 -123 48q-115 0 -156 1q2 -20 5 -53l1 -177l66 -29q0 132 0 87v87q0 44 0 40l17 -1z" />
    <glyph glyph-name="o" unicode="o" horiz-adv-x="419" 
d="M351 209q-7 -84 -29 -130q-42 -89 -148 -89q-64 0 -100 25q-31 21 -52 75q-18 48 -18 92q0 66 23 118q25 -13 87 -33q-11 -28 -11 -72q0 -41 16 -74q19 -41 56 -41q17 0 23 3q33 17 42 74q4 25 4 92q0 44 -15 76q-19 42 -59 42q-36 0 -38 -69q-71 12 -115 50q7 20 30 60
q18 21 57 37q36 15 66 15t62 -9q66 -19 98 -102q27 -68 21 -140zM328 230q0 89 -34 143q-43 66 -132 66q-48 0 -88 -34q-24 -21 -30 -50q30 -26 68 -32q10 69 60 68q48 -1 73 -44q21 -36 21 -89q0 -8 1 -26v-27t53 -42q8 8 8 67zM88 253q-17 6 -46 17q-14 -24 -16 -44
q1 5 1 -34l59 -37q-5 26 -5 50q0 27 7 48z" />
    <glyph glyph-name="p" unicode="p" horiz-adv-x="417" 
d="M349 234q0 -139 -65 -193q-84 -70 -173 -116v-103h-111v633h168q101 0 145 -63q36 -52 36 -158zM326 249q0 185 -157 184l-146 1v-216q64 -43 67 -43v211h76q65 -3 82 -56q7 -25 7 -115q0 -5 67 -40zM234 173q1 16 0 120q0 28 -14 50q-17 24 -45 24h-64v-311q35 20 61 39
q61 45 62 78z" />
    <glyph glyph-name="q" unicode="q" horiz-adv-x="427" 
d="M0 234q0 -139 65 -193q84 -70 173 -116v-103h111v633h-168q-102 0 -145 -63q-36 -52 -36 -158zM23 249q0 185 157 184l146 1l1 -266q-65 43 -67 43q-1 47 -1 175h-76q-64 -3 -82 -76q-7 -31 -7 -134q0 -5 -67 38q-4 26 -4 35zM114 173v120q1 28 16.5 51t42.5 23h65v-311
q-35 20 -61 39q-61 45 -63 78z" />
    <glyph glyph-name="r" unicode="r" horiz-adv-x="358" 
d="M317 345q0 -40 -19 -55l-95 28v23q0 22 -40 22q-30 0 -39 -15q-6 -9 -6 -38l-1 -259q0 -12 5 -49l-118 -2l6 59v328l-6 68h108v-22q51 26 97 26q45 0 76.5 -34.5t31.5 -79.5zM296 353q0 33 -30 60.5t-61 27.5q-69 0 -111 -46v36h-62v-239l62 -39v174q-3 57 77 56
q29 0 42.5 -17t9.5 -35q11 -5 64 -17q9 11 9 39z" />
    <glyph glyph-name="s" unicode="s" horiz-adv-x="368" 
d="M306 457q-1 -5 -48 -117q-54 36 -116 36q-15 0 -26 -9.5t-11 -23.5q0 -32 50 -57q81 -42 93 -51q49 -40 49 -105q0 -76 -76 -136q-43 -35 -143 -81q-9 -4 -32 -13l-75 82q212 97 212 152q0 31 -48 55q-82 40 -90 46q-48 35 -48 94q0 71 56 106q48 29 121 28q27 -3 95 -10
q15 -2 37 4zM275 435q-20 -2 -63.5 4t-62.5 4q-56 -8 -83 -23q-40 -24 -48 -75q-1 -9 -1 -18q0 -47 44 -77q8 -6 108 -56q7 -7 20 -18q53 -29 84 -29q4 0 4 2q-4 41 -54 75q-46 27 -92 53q-49 30 -49 60q0 23 17.5 39.5t41.5 18.5q57 4 106 -26q6 9 16.5 32.5t11.5 33.5z
" />
    <glyph glyph-name="t" unicode="t" horiz-adv-x="303" 
d="M238 345l-76 18v-233q-1 -11 -1 -20q0 -29 12 -54q1 -3 31 -57h-131q-16 37 -16 96l-1 286q-22 -1 -54 10l-1 65h54v131l110 -1v-130h72zM215 432h-75v133h-64v-132h-54v-24q19 -5 54 -10v-185l64 -45v223l75 -19v59z" />
    <glyph glyph-name="u" unicode="u" horiz-adv-x="429" 
d="M163 0q-72 0 -113 53q-37 48 -37 124v254q0 26 -19 79l101 36q27 -76 27 -100v-296q5 -30 20 -42q22 -18 73 -14q11 0 28 1l-1 359h112v-399l8 -55h-199zM332 430h-67l-1 -31v-193q48 -34 68 -40v264zM100 443q0 11 -18 75l-60 -20q6 -22 12 -57q2 -77 0 -233l66 -42v277
z" />
    <glyph glyph-name="v" unicode="v" horiz-adv-x="415" 
d="M382 510q0 -3 -27 -62q-23 -65 -60 -215q-13 -48 -55 -232q-49 1 -147 -1q-9 37 -109 454h111q68 -284 73 -291l4 2l20 95q23 105 59 217q7 21 20.5 46.5t19.5 25.5q8 0 49.5 -18t41.5 -21zM353 498q-54 24 -56 21q-33 -27 -97 -327q20 -18 53 -47l11 49q41 188 67 251z
M147 163q2 -12 -70 271h-67l58 -236q37 -16 79 -35z" />
    <glyph glyph-name="w" unicode="w" horiz-adv-x="613" 
d="M570 498q-25 -58 -71 -242q-13 -49 -37 -155l-18 -101h-111l-64 278l-63 -277l-112 -1l-103 454h113l55 -238l56 238h110l59 -231l40 152q19 71 25 92q14 47 28 78q15 -5 93 -47zM545 485l-53 27q-10 -16 -14 -29q-8 -33 -10 -38q-26 -81 -70 -258l55 -15l30 113l41 147z
M309 434l-73 -1l-61 -235l45 -24l49 181l34 -143l64 -22zM146 174l-62 260h-66l53 -225z" />
    <glyph glyph-name="x" unicode="x" horiz-adv-x="411" 
d="M362 0h-117l-62 139l-70 -139h-117l121 236l-106 218h119l55 -106l43 106h123l-110 -212zM317 433h-73l-59 -131l-68 132h-71l96 -200l-7 -16l128 -62l-44 87z" />
    <glyph glyph-name="y" unicode="y" horiz-adv-x="434" 
d="M361 -5q-1 -41 -19 -81q-20 -43 -52 -64q-45 -31 -116 -31q-15 0 -68 3q-27 2 -68 -13q-26 98 -26 102q22 13 83 13l76 -1q72 -1 72 78h-84q-43 -1 -73 16q-48 25 -61 67q-9 26 -9 92q0 13 -1 92q0 56 1 91q1 54 -9 81q-1 4 -9 17l106 45q5 -8 10 -21q12 -43 12 -163
v-166q1 -43 25 -51q13 -5 90 -5v358q0 -2 118 0zM339 435h-78v-237l79 -44zM100 448l-7 24q-28 -9 -64 -22q-2 -1 -2 -3q0 -3 3.5 -9.5t3.5 -9.5q0 -12 3 -37t3 -38v-166l64 -35v33v216q0 16 -4 47z" />
    <glyph glyph-name="z" unicode="z" horiz-adv-x="400" 
d="M330 366l-204 -271h207v-95l-333 1v98l199 260h-179l-1 94l311 1v-88zM309 434h-267v-53h201l-137 -179l44 -39l159 208v63z" />
    <glyph glyph-name="braceleft" unicode="{" horiz-adv-x="621" 
d="M280 155l-179 -94l34 199l-144 141l200 29l89 181l89 -181l200 -29l-144 -141l34 -199zM404 219l-6 50l118 115l-163 23l-73 148l-73 -148l-163 -23q196 -80 263 -111q44 -20 97 -54z" />
    <glyph glyph-name="bar" unicode="|" horiz-adv-x="666" 
d="M115 38l37 218l-158 154l218 32l98 198l98 -198l218 -32l-158 -154l37 -218l-195 103zM148 84l162 85l162 -85l-31 180l132 128l-182 27l-81 164l-81 -164l-182 -27l132 -128z" />
    <glyph glyph-name="braceright" unicode="}" horiz-adv-x="621" 
d="M280 155l-179 -94l34 199l-144 141l200 29l89 181l89 -181l200 -29l-144 -141l34 -199z" />
    <glyph glyph-name="asciitilde" unicode="~" horiz-adv-x="385" 
d="M180 712q-12 8 -37 22q-12 5 -21 5q-11 0 -20 -14.5t-24 -13.5q-12 2 -43 7q-2 38 27.5 63.5t67.5 25.5q26 0 46 -13q40 -25 57 -25q16 0 27 16q10 13 24 11q14 -3 51 -14q-12 -34 -44 -57.5t-67 -23.5q-24 0 -44 11zM281 774q-16 -27 -48 -27q-22 0 -52.5 19t-49.5 19
q-25 0 -47.5 -14.5t-26.5 -33.5l10 -2q7 -1 13 -2q19 29 43 29q19 0 49.5 -19.5t50.5 -19.5q24 0 48 13t35 32q-16 4 -25 6z" />
    <glyph glyph-name="Adieresis" unicode="&#xc4;" horiz-adv-x="593" 
d="M519 224l-51 -30l60 -270l-131 -50l-66 274l-168 -67l-21 -82h-143l157 658h203l80 -333l81 28zM496 314l-76 -28l-83 346h-157l-97 -405l150 -91l116 47l112 -65l-20 89l55 29v78zM337 258l-163 -61l-12 8l77 317h31zM254 478l-57 -246l107 40zM326 822q26 0 44 -18
t18 -44q0 -25 -18 -43.5t-44 -18.5q-25 0 -43.5 18.5t-18.5 43.5q0 26 18.5 44t43.5 18zM326 797q-15 0 -26 -11t-11 -26t11 -26t26 -11q16 0 26.5 11t10.5 26t-10.5 26t-26.5 11zM176 822q26 0 44 -18t18 -44q0 -25 -18 -43.5t-44 -18.5q-25 0 -43.5 18.5t-18.5 43.5
q0 26 18.5 44t43.5 18zM176 797q-15 0 -26 -11t-11 -26t11 -26t26 -11q16 0 26.5 11t10.5 26t-10.5 26t-26.5 11z" />
    <glyph glyph-name="Aring" unicode="&#xc5;" horiz-adv-x="593" 
d="M519 224l-51 -30l60 -270l-131 -50l-66 274l-168 -67l-21 -82h-143l157 658h203l80 -333l81 28zM496 314l-76 -28l-83 346h-157l-97 -405l150 -91l116 47l112 -65l-20 89l55 29v78zM337 258l-163 -61l-12 8l77 317h31zM254 478l-57 -246l107 40zM253 810q26 0 45 -18
t19 -44t-19 -44.5t-45 -18.5t-45 18.5t-19 44.5t19 44t45 18zM253 780q-14 0 -24 -9.5t-10 -22.5t10 -23t24 -10t24 10t10 23t-10 22.5t-24 9.5z" />
    <glyph glyph-name="Ccedilla" unicode="&#xc7;" horiz-adv-x="461" 
d="M401 638q-8 -2 -18 -2q-23 0 -66 9.5t-56 9.5q-123 0 -183 -86q-52 -74 -52 -205q0 -70 12 -113q22 -19 126 -68q-33 76 -33 185q0 196 141 196q36 0 98 -24q16 42 31 98zM263 -8l-6 -19q94 -10 94 -75q0 -43 -30 -65q-26 -21 -70 -21q-19 0 -41 10q-26 13 -26 29
q0 21 20 21q7 0 17.5 -9t25.5 -9q33 0 33 42q0 31 -32.5 41t-32.5 30q0 2 12 33q-66 19 -117 63.5t-75 104.5q-27 69 -33 186q-6 131 50 220q65 103 192 103q18 0 37 -2l102 -12l54 5q-11 -27 -50 -168q-64 38 -120 38q-59 0 -85 -48q-14 -27 -27 -100q0 -112 21 -171
q5 -13 25 -49q32 -56 110 -56q52 0 118 25q-4 -14 -16 -80q-9 -46 -21 -58q-63 -19 -129 -9z" />
    <glyph glyph-name="Eacute" unicode="&#xc9;" horiz-adv-x="536" 
d="M452 528l-291 1v-172l182 68l1 -125l-187 -78l-1 -98h297v-124h-433v656h432v-128zM427 631l-380 1l-1 -392l83 -50l-1 45l192 85v72l-185 -76v236h292v79zM124 687l-21 43l220 118l47 -105zM138 716l197 44l-24 54l-175 -94z" />
    <glyph glyph-name="Ntilde" unicode="&#xd1;" horiz-adv-x="550" 
d="M474 657v-657l-158 1l-172 402v-402h-142v655h183l144 -319v320h145zM446 631h-91l1 -348h-34l-160 348l-130 1v-392l87 -65l1 280h26l70 -156l229 -134zM240 712q-12 8 -37 22q-12 5 -21 5q-11 0 -20 -14.5t-24 -13.5q-12 2 -43 7q-2 38 27.5 63.5t67.5 25.5
q26 0 46 -13q40 -25 57 -25q16 0 27 16q10 13 24 11q14 -3 51 -14q-12 -34 -43.5 -57.5t-67.5 -23.5q-24 0 -44 11zM341 774q-16 -27 -48 -27q-22 0 -52.5 19t-49.5 19q-25 0 -47.5 -14.5t-26.5 -33.5l10 -2q7 -1 13 -2q19 29 43 29q19 0 49.5 -19.5t50.5 -19.5q24 0 48 13
t35 32q-16 4 -25 6z" />
    <glyph glyph-name="Odieresis" unicode="&#xd6;" horiz-adv-x="589" 
d="M511 356q0 -150 -51 -244q-65 -120 -202 -120q-116 0 -186 84q-65 78 -65 197q0 89 27 136q69 -30 130 -40q-9 -54 -9 -91q0 -57 22 -101q27 -56 78 -56q106 0 106 197q0 207 -98 207q-60 0 -60 -49q0 -20 9 -46q-30 -13 -54 -13q-32 0 -70 23q-7 4 -61 44q21 85 83 133
t150 48q124 0 191 -96q60 -84 60 -213zM490 344q0 116 -54 199q-62 97 -172 97q-112 0 -170 -71q-22 -26 -40 -80q53 -47 90 -47q8 0 16 1l20 5q-5 15 -5 27q0 31 25 51.5t57 20.5q129 0 129 -210q0 -30 -3 -79q35 -24 86 -54q21 74 21 140zM149 184q-21 30 -21 109
q0 20 7 53q-30 8 -88 27q-20 -79 -20 -99q0 -3 4 -27q1 -6 54 -34.5t64 -28.5zM339 821q25 0 43 -18t18 -43t-18 -42.5t-43 -17.5t-42.5 17.5t-17.5 42.5t17.5 43t42.5 18zM339 799q-16 0 -27 -11.5t-11 -27.5t11 -27t27 -11t27.5 11t11.5 27t-11.5 27.5t-27.5 11.5z
M169 821q25 0 43 -18t18 -43t-18 -42.5t-43 -17.5t-42.5 17.5t-17.5 42.5t17.5 43t42.5 18zM169 799q-16 0 -27 -11.5t-11 -27.5t11 -27t27 -11t27.5 11t11.5 27t-11.5 27.5t-27.5 11.5z" />
    <glyph glyph-name="Udieresis" unicode="&#xdc;" horiz-adv-x="544" 
d="M473 232q0 -104 -65 -171.5t-169 -67.5q-111 0 -173.5 62.5t-62.5 173.5v427h136v-426q1 -52 24.5 -82.5t68.5 -28.5q52 1 74.5 27t22.5 82q0 129 -1 432l142 1zM441 635h-84l-1 -381q35 -17 86 -37q-1 63 -1 418zM114 630h-84v-373l84 -48v421zM316 821q25 0 43 -18
t18 -43t-18 -42.5t-43 -17.5t-42.5 17.5t-17.5 42.5t17.5 43t42.5 18zM316 799q-16 0 -27 -11.5t-11 -27.5t11 -27t27 -11t27.5 11t11.5 27t-11.5 27.5t-27.5 11.5zM146 821q25 0 43 -18t18 -43t-18 -42.5t-43 -17.5t-42.5 17.5t-17.5 42.5t17.5 43t42.5 18zM146 799
q-16 0 -27 -11.5t-11 -27.5t11 -27t27 -11t27.5 11t11.5 27t-11.5 27.5t-27.5 11.5z" />
    <glyph glyph-name="aacute" unicode="&#xe1;" horiz-adv-x="434" 
d="M371 1q-7 -2 -26 -1.5t-63 -1t-67 -1.5q-99 0 -148 25q-67 33 -66 119q0 64 39.5 108t102.5 44q47 0 73 -20q-12 -28 -35 -83q-5 2 -17 2q-18 0 -31 -12t-13 -30q0 -36 38 -47q18 -5 68 -5q14 0 14 75v146q0 23 -17 40t-39 17q-58 0 -58 -61q-53 26 -81 26q-6 0 -21 -5
q-1 68 56 104q47 29 119 29q81 0 123 -52q38 -47 37 -127q-1 -51 -1 -202q0 -66 13 -87zM340 175v124q-3 21 -6 43q-8 43 -33 69q-35 36 -102 39q-46 2 -88 -15q-56 -23 -62 -73q0 -1 24.5 -6t35.5 -11q4 22 26 36.5t48 13.5q66 -3 76 -78v-94q0 -3 81 -48zM50 218
q0 -2 28.5 -25.5t28.5 -21.5q0 18 24 30q19 9 37 9q8 17 22 52q-9 13 -39 13q-34 0 -65 -16q-34 -17 -36 -41zM101 501l-17 33l174 93l37 -82zM110 521l160 37l-20 45l-142 -77z" />
    <glyph glyph-name="agrave" unicode="&#xe0;" horiz-adv-x="434" 
d="M371 1q-7 -2 -26 -1.5t-63 -1t-67 -1.5q-99 0 -148 25q-67 33 -66 119q0 64 39.5 108t102.5 44q47 0 73 -20q-12 -28 -35 -83q-5 2 -17 2q-18 0 -31 -12t-13 -30q0 -36 38 -47q18 -5 68 -5q14 0 14 75v146q0 23 -17 40t-39 17q-58 0 -58 -61q-53 26 -81 26q-6 0 -21 -5
q-1 68 56 104q47 29 119 29q81 0 123 -52q38 -47 37 -127q-1 -51 -1 -202q0 -66 13 -87zM340 175v124q-3 21 -6 43q-8 43 -33 69q-35 36 -102 39q-46 2 -88 -15q-56 -23 -62 -73q0 -1 24.5 -6t35.5 -11q4 22 26 36.5t48 13.5q66 -3 76 -78v-94q0 -3 81 -48zM50 218
q0 -2 28.5 -25.5t28.5 -21.5q0 18 24 30q19 9 37 9q8 17 22 52q-9 13 -39 13q-34 0 -65 -16q-34 -17 -36 -41zM265 515l2 5l-142 76l-20 -45zM274 494l-194 44l37 82l173 -93z" />
    <glyph glyph-name="acircumflex" unicode="&#xe2;" horiz-adv-x="434" 
d="M371 1q-7 -2 -26 -1.5t-63 -1t-67 -1.5q-99 0 -148 25q-67 33 -66 119q0 64 39.5 108t102.5 44q47 0 73 -20q-12 -28 -35 -83q-5 2 -17 2q-18 0 -31 -12t-13 -30q0 -36 38 -47q18 -5 68 -5q14 0 14 75v146q0 23 -17 40t-39 17q-58 0 -58 -61q-53 26 -81 26q-6 0 -21 -5
q-1 68 56 104q47 29 119 29q81 0 123 -52q38 -47 37 -127q-1 -51 -1 -202q0 -66 13 -87zM340 175v124q-3 21 -6 43q-8 43 -33 69q-35 36 -102 39q-46 2 -88 -15q-56 -23 -62 -73q0 -1 24.5 -6t35.5 -11q4 22 26 36.5t48 13.5q66 -3 76 -78v-94q0 -3 81 -48zM50 218
q0 -2 28.5 -25.5t28.5 -21.5q0 18 24 30q19 9 37 9q8 17 22 52q-9 13 -39 13q-34 0 -65 -16q-34 -17 -36 -41zM179 523l-99 -34l-15 31l114 75l112 -72l-9 -33zM179 542l91 -29l1 2l-92 59l-91 -60l1 -3z" />
    <glyph glyph-name="adieresis" unicode="&#xe4;" horiz-adv-x="434" 
d="M371 1q-7 -2 -26 -1.5t-63 -1t-67 -1.5q-99 0 -148 25q-67 33 -66 119q0 64 39.5 108t102.5 44q47 0 73 -20q-12 -28 -35 -83q-5 2 -17 2q-18 0 -31 -12t-13 -30q0 -36 38 -47q18 -5 68 -5q14 0 14 75v146q0 23 -17 40t-39 17q-58 0 -58 -61q-53 26 -81 26q-6 0 -21 -5
q-1 68 56 104q47 29 119 29q81 0 123 -52q38 -47 37 -127q-1 -51 -1 -202q0 -66 13 -87zM340 175v124q-3 21 -6 43q-8 43 -33 69q-35 36 -102 39q-46 2 -88 -15q-56 -23 -62 -73q0 -1 24.5 -6t35.5 -11q4 22 26 36.5t48 13.5q66 -3 76 -78v-94q0 -3 81 -48zM50 218
q0 -2 28.5 -25.5t28.5 -21.5q0 18 24 30q19 9 37 9q8 17 22 52q-9 13 -39 13q-34 0 -65 -16q-34 -17 -36 -41zM250 600q21 0 35.5 -14.5t14.5 -35.5q0 -20 -14.5 -35t-35.5 -15t-35.5 15t-14.5 35q0 21 14.5 35.5t35.5 14.5zM250 580q-30 0 -30 -30t30 -30t30 30t-30 30z
M112 600q21 0 35.5 -14.5t14.5 -35.5q0 -20 -14.5 -35t-35.5 -15q-20 0 -35 15t-15 35q0 21 15 35.5t35 14.5zM112 580q-30 0 -30 -30t30 -30t30 30t-30 30z" />
    <glyph glyph-name="atilde" unicode="&#xe3;" horiz-adv-x="434" 
d="M371 1q-7 -2 -26 -1.5t-63 -1t-67 -1.5q-99 0 -148 25q-67 33 -66 119q0 64 39.5 108t102.5 44q47 0 73 -20q-12 -28 -35 -83q-5 2 -17 2q-18 0 -31 -12t-13 -30q0 -36 38 -47q18 -5 68 -5q14 0 14 75v146q0 23 -17 40t-39 17q-58 0 -58 -61q-53 26 -81 26q-6 0 -21 -5
q-1 68 56 104q47 29 119 29q81 0 123 -52q38 -47 37 -127q-1 -51 -1 -202q0 -66 13 -87zM340 175v124q-3 21 -6 43q-8 43 -33 69q-35 36 -102 39q-46 2 -88 -15q-56 -23 -62 -73q0 -1 24.5 -6t35.5 -11q4 22 26 36.5t48 13.5q66 -3 76 -78v-94q0 -3 81 -48zM50 218
q0 -2 28.5 -25.5t28.5 -21.5q0 18 24 30q19 9 37 9q8 17 22 52q-9 13 -39 13q-34 0 -65 -16q-34 -17 -36 -41zM181 507q-11 7 -33 20q-12 5 -19 5q-11 0 -19 -13.5t-21 -12.5q-11 2 -38 7q-2 33 24.5 55.5t60.5 22.5q23 0 41 -11q35 -23 52 -23q13 0 23 13t22 11t45 -12
q-10 -30 -38.5 -51t-60.5 -21q-21 0 -39 10zM271 563q-14 -24 -42 -24q-21 0 -48 17t-45 17q-23 0 -43.5 -13.5t-23.5 -31.5l10 -2l12 -2q17 26 38 26q17 0 44 -17t46 -17q53 0 76 41z" />
    <glyph glyph-name="aring" unicode="&#xe5;" horiz-adv-x="434" 
d="M371 1q-7 -2 -26 -1.5t-63 -1t-67 -1.5q-99 0 -148 25q-67 33 -66 119q0 64 39.5 108t102.5 44q47 0 73 -20q-12 -28 -35 -83q-5 2 -17 2q-18 0 -31 -12t-13 -30q0 -36 38 -47q18 -5 68 -5q14 0 14 75v146q0 23 -17 40t-39 17q-58 0 -58 -61q-53 26 -81 26q-6 0 -21 -5
q-1 68 56 104q47 29 119 29q81 0 123 -52q38 -47 37 -127q-1 -51 -1 -202q0 -66 13 -87zM340 175v124q-3 21 -6 43q-8 43 -33 69q-35 36 -102 39q-46 2 -88 -15q-56 -23 -62 -73q0 -1 24.5 -6t35.5 -11q4 22 26 36.5t48 13.5q66 -3 76 -78v-94q0 -3 81 -48zM190 262
q-9 13 -39 13q-34 0 -65 -16q-34 -17 -36 -41q0 -2 28.5 -25.5t28.5 -21.5q0 18 24 30q19 9 37 9q8 17 22 52zM195 513q-24 0 -41.5 16.5t-17.5 40.5t17.5 41t41.5 17q25 0 42 -17t17 -41t-17 -40.5t-42 -16.5zM195 608q-16 0 -27.5 -11t-11.5 -27q0 -15 11.5 -26t27.5 -11
q17 0 28 11t11 26q0 16 -11 27t-28 11z" />
    <glyph glyph-name="ccedilla" unicode="&#xe7;" horiz-adv-x="341" 
d="M265 329q-45 29 -84 29q-37 0 -54 -46q-6 -17 -16 -77q-1 -64 20 -102q3 -5 10 -17q20 -34 69 -34q37 0 88 19q-13 -50 -30 -105q-43 -13 -86 -7l-1 -4q62 -9 62 -54q0 -64 -73 -64q-14 0 -32 9.5t-18 22.5q0 19 19 19q6 0 12 -5l2 -2q6 -5 14 -5q18 0 18 23
q0 16 -12 20.5t-22 10t-10 17.5q1 4 4 12l2 7q-93 29 -127 115q-22 56 -22 128q0 102 44 163q52 73 149 58l75 -12l37 8q-9 -25 -38 -127zM221 429q-4 1 -24 7q-16 5 -25 5q-149 0 -149 -205q0 -41 7 -66q29 -14 78 -37q-20 49 -20 101q0 151 96 151q24 0 64 -14q7 20 18 53
q-16 -1 -45 5z" />
    <glyph glyph-name="eacute" unicode="&#xe9;" horiz-adv-x="424" 
d="M359 240q-49 -13 -99 -26q-56 -15 -95 -35l-26 83q29 19 96 35q0 25 -16.5 46.5t-40.5 21.5q-68 0 -68 -148q0 -46 14 -82q19 -50 57 -50q39 0 56 22q1 2 26 55l95 -30q-8 -71 -60 -110q-48 -36 -122 -36q-90 0 -139 71q-43 61 -43 153q0 252 187 252q85 0 134 -71
q44 -63 44 -151zM183 442q-98 0 -140 -88q-32 -66 -26 -159l76 -44q-5 48 -5 94q0 139 92 139q33 0 56 -28t20 -60l-1 -12q-36 -7 -94 -30l17 -53q31 22 157 52q0 77 -36 129q-42 60 -116 60zM91 501l-17 33l174 93l37 -82zM100 521l160 37l-20 45l-142 -77z" />
    <glyph glyph-name="egrave" unicode="&#xe8;" horiz-adv-x="424" 
d="M359 240q-49 -13 -99 -26q-56 -15 -95 -35l-26 83q29 19 96 35q0 25 -16.5 46.5t-40.5 21.5q-68 0 -68 -148q0 -46 14 -82q19 -50 57 -50q39 0 56 22q1 2 26 55l95 -30q-8 -71 -60 -110q-48 -36 -122 -36q-90 0 -139 71q-43 61 -43 153q0 252 187 252q85 0 134 -71
q44 -63 44 -151zM183 442q-98 0 -140 -88q-32 -66 -26 -159l76 -44q-5 48 -5 94q0 139 92 139q33 0 56 -28t20 -60l-1 -12q-36 -7 -94 -30l17 -53q31 22 157 52q0 77 -36 129q-42 60 -116 60zM255 515l2 5l-142 76l-20 -45zM264 494l-194 44l37 82l173 -93z" />
    <glyph glyph-name="ecircumflex" unicode="&#xea;" horiz-adv-x="424" 
d="M359 240q-49 -13 -99 -26q-56 -15 -95 -35l-26 83q29 19 96 35q0 25 -16.5 46.5t-40.5 21.5q-68 0 -68 -148q0 -46 14 -82q19 -50 57 -50q39 0 56 22q1 2 26 55l95 -30q-8 -71 -60 -110q-48 -36 -122 -36q-90 0 -139 71q-43 61 -43 153q0 252 187 252q85 0 134 -71
q44 -63 44 -151zM183 442q-98 0 -140 -88q-32 -66 -26 -159l76 -44q-5 48 -5 94q0 139 92 139q33 0 56 -28t20 -60l-1 -12q-36 -7 -94 -30l17 -53q31 22 157 52q0 77 -36 129q-42 60 -116 60zM179 523l-99 -34l-15 31l114 75l112 -72l-9 -33zM179 542l91 -29l1 2l-92 59
l-91 -60l1 -3z" />
    <glyph glyph-name="edieresis" unicode="&#xeb;" horiz-adv-x="424" 
d="M359 240q-49 -13 -99 -26q-56 -15 -95 -35l-26 83q29 19 96 35q0 25 -16.5 46.5t-40.5 21.5q-68 0 -68 -148q0 -46 14 -82q19 -50 57 -50q39 0 56 22q1 2 26 55l95 -30q-8 -71 -60 -110q-48 -36 -122 -36q-90 0 -139 71q-43 61 -43 153q0 252 187 252q85 0 134 -71
q44 -63 44 -151zM183 442q-98 0 -140 -88q-32 -66 -26 -159l76 -44q-5 48 -5 94q0 139 92 139q33 0 56 -28t20 -60l-1 -12q-36 -7 -94 -30l17 -53q31 22 157 52q0 77 -36 129q-42 60 -116 60zM250 600q21 0 35.5 -14.5t14.5 -35.5q0 -20 -14.5 -35t-35.5 -15t-35.5 15
t-14.5 35q0 21 14.5 35.5t35.5 14.5zM250 580q-30 0 -30 -30t30 -30t30 30t-30 30zM112 600q21 0 35.5 -14.5t14.5 -35.5q0 -20 -14.5 -35t-35.5 -15q-20 0 -35 15t-15 35q0 21 15 35.5t35 14.5zM112 580q-30 0 -30 -30t30 -30t30 30t-30 30z" />
    <glyph glyph-name="iacute" unicode="&#xed;" horiz-adv-x="200" 
d="M135 1h-126l7 57l-3 396l113 1v-397zM101 433l-61 2v-192l62 -70zM-29 501l-17 33l174 93l37 -82zM-20 521l160 37l-20 45l-142 -77z" />
    <glyph glyph-name="igrave" unicode="&#xec;" horiz-adv-x="200" 
d="M135 1h-126l7 57l-3 396l113 1v-397zM101 433l-61 2v-192l62 -70zM145 515l2 5l-142 76l-20 -45zM154 494l-194 44l37 82l173 -93z" />
    <glyph glyph-name="icircumflex" unicode="&#xee;" horiz-adv-x="200" 
d="M135 1h-126l7 57l-3 396l113 1v-397zM101 433l-61 2v-192l62 -70zM62 522l-84 -39l-17 34l100 88l100 -84l-11 -37zM61 543l76 -32l1 3l-77 65l-75 -67l1 -3z" />
    <glyph glyph-name="idieresis" unicode="&#xef;" horiz-adv-x="200" 
d="M135 1h-126l7 57l-3 396l113 1v-397zM101 433l-61 2v-192l62 -70zM140 600q21 0 35.5 -14.5t14.5 -35.5q0 -20 -14.5 -35t-35.5 -15t-35.5 15t-14.5 35q0 21 14.5 35.5t35.5 14.5zM140 580q-30 0 -30 -30t30 -30t30 30t-30 30zM2 600q21 0 35.5 -14.5t14.5 -35.5
q0 -20 -14.5 -35t-35.5 -15q-20 0 -35 15t-15 35q0 21 15 35.5t35 14.5zM2 580q-30 0 -30 -30t30 -30t30 30t-30 30z" />
    <glyph glyph-name="ntilde" unicode="&#xf1;" horiz-adv-x="446" 
d="M136 363v-363l-125 1q11 47 11 54v46q-1 28 -1 47v111q-1 51 -1 111q0 26 -11 85h142q79 0 106 -6q57 -12 85 -58t28 -113l-2 -249q0 -26 22 -70l-101 -45q-2 6 -5 12q-20 29 -24 140v138q0 12 1 36t1 36q0 49 -11 64q-14 22 -62 22h-17q-9 1 -17 1h-19zM202 388
q80 -1 85 -82q-3 -46 -1 -102q29 -13 62 -28v80q3 179 -159 179q-115 0 -151 -1q2 -20 5 -53l1 -177l66 -29q0 132 0 87v87q0 44 0 40l17 -1h75zM180 492q-12 8 -37 22q-12 5 -21 5q-11 0 -20 -14.5t-24 -13.5q-12 2 -43 7q-2 38 27.5 63.5t67.5 25.5q26 0 46 -13
q40 -25 57 -25q16 0 27 16q10 13 24 11q14 -3 51 -14q-12 -34 -44 -57.5t-67 -23.5q-24 0 -44 11zM281 554q-16 -27 -48 -27q-22 0 -52.5 19t-49.5 19q-25 0 -47.5 -14.5t-26.5 -33.5l10 -2q7 -1 13 -2q19 29 43 29q19 0 49.5 -19.5t50.5 -19.5q24 0 48 13t35 32
q-16 4 -25 6z" />
    <glyph glyph-name="oacute" unicode="&#xf3;" horiz-adv-x="419" 
d="M351 209q-7 -84 -29 -130q-42 -89 -148 -89q-64 0 -100 25q-31 21 -52 75q-18 48 -18 92q0 66 23 118q25 -13 87 -33q-11 -28 -11 -72q0 -41 16 -74q19 -41 56 -41q17 0 23 3q33 17 42 74q4 25 4 92q0 44 -15 76q-19 42 -59 42q-36 0 -38 -69q-71 12 -115 50q7 20 30 60
q18 21 57 37q36 15 66 15t62 -9q66 -19 98 -102q27 -68 21 -140zM328 230q0 89 -34 143q-43 66 -132 66q-48 0 -88 -34q-24 -21 -30 -50q30 -26 68 -32q10 69 60 68q48 -1 73 -44q21 -36 21 -89q0 -8 1 -26v-27t53 -42q8 8 8 67zM88 253q-17 6 -46 17q-14 -24 -16 -44
q1 5 1 -34l59 -37q-5 26 -5 50q0 27 7 48zM81 501l-17 33l174 93l37 -82zM90 521l160 37l-20 45l-142 -77z" />
    <glyph glyph-name="ograve" unicode="&#xf2;" horiz-adv-x="419" 
d="M351 209q-7 -84 -29 -130q-42 -89 -148 -89q-64 0 -100 25q-31 21 -52 75q-18 48 -18 92q0 66 23 118q25 -13 87 -33q-11 -28 -11 -72q0 -41 16 -74q19 -41 56 -41q17 0 23 3q33 17 42 74q4 25 4 92q0 44 -15 76q-19 42 -59 42q-36 0 -38 -69q-71 12 -115 50q7 20 30 60
q18 21 57 37q36 15 66 15t62 -9q66 -19 98 -102q27 -68 21 -140zM328 230q0 89 -34 143q-43 66 -132 66q-48 0 -88 -34q-24 -21 -30 -50q30 -26 68 -32q10 69 60 68q48 -1 73 -44q21 -36 21 -89q0 -8 1 -26v-27t53 -42q8 8 8 67zM88 253q-17 6 -46 17q-14 -24 -16 -44
q1 5 1 -34l59 -37q-5 26 -5 50q0 27 7 48zM245 515l2 5l-142 76l-20 -45zM254 494l-194 44l37 82l173 -93z" />
    <glyph glyph-name="ocircumflex" unicode="&#xf4;" horiz-adv-x="419" 
d="M351 209q-7 -84 -29 -130q-42 -89 -148 -89q-64 0 -100 25q-31 21 -52 75q-18 48 -18 92q0 66 23 118q25 -13 87 -33q-11 -28 -11 -72q0 -41 16 -74q19 -41 56 -41q17 0 23 3q33 17 42 74q4 25 4 92q0 44 -15 76q-19 42 -59 42q-36 0 -38 -69q-71 12 -115 50q7 20 30 60
q18 21 57 37q36 15 66 15t62 -9q66 -19 98 -102q27 -68 21 -140zM328 230q0 89 -34 143q-43 66 -132 66q-48 0 -88 -34q-24 -21 -30 -50q30 -26 68 -32q10 69 60 68q48 -1 73 -44q21 -36 21 -89q0 -8 1 -26v-27t53 -42q8 8 8 67zM88 253q-17 6 -46 17q-14 -24 -16 -44
q1 5 1 -34l59 -37q-5 26 -5 50q0 27 7 48zM169 523l-99 -34l-15 31l114 75l112 -72l-9 -33zM169 542l91 -29l1 2l-92 59l-91 -60l1 -3z" />
    <glyph glyph-name="odieresis" unicode="&#xf6;" horiz-adv-x="419" 
d="M351 209q-7 -84 -29 -130q-42 -89 -148 -89q-64 0 -100 25q-31 21 -52 75q-18 48 -18 92q0 66 23 118q25 -13 87 -33q-11 -28 -11 -72q0 -41 16 -74q19 -41 56 -41q17 0 23 3q33 17 42 74q4 25 4 92q0 44 -15 76q-19 42 -59 42q-36 0 -38 -69q-71 12 -115 50q7 20 30 60
q18 21 57 37q36 15 66 15t62 -9q66 -19 98 -102q27 -68 21 -140zM328 230q0 89 -34 143q-43 66 -132 66q-48 0 -88 -34q-24 -21 -30 -50q30 -26 68 -32q10 69 60 68q48 -1 73 -44q21 -36 21 -89q0 -8 1 -26v-27t53 -42q8 8 8 67zM88 253q-17 6 -46 17q-14 -24 -16 -44
q1 5 1 -34l59 -37q-5 26 -5 50q0 27 7 48zM240 600q21 0 35.5 -14.5t14.5 -35.5q0 -20 -14.5 -35t-35.5 -15t-35.5 15t-14.5 35q0 21 14.5 35.5t35.5 14.5zM240 580q-30 0 -30 -30t30 -30t30 30t-30 30zM102 600q21 0 35.5 -14.5t14.5 -35.5q0 -20 -14.5 -35t-35.5 -15
q-20 0 -35 15t-15 35q0 21 15 35.5t35 14.5zM102 580q-30 0 -30 -30t30 -30t30 30t-30 30z" />
    <glyph glyph-name="otilde" unicode="&#xf5;" horiz-adv-x="419" 
d="M351 209q-7 -84 -29 -130q-42 -89 -148 -89q-64 0 -100 25q-31 21 -52 75q-18 48 -18 92q0 66 23 118q25 -13 87 -33q-11 -28 -11 -72q0 -41 16 -74q19 -41 56 -41q17 0 23 3q33 17 42 74q4 25 4 92q0 44 -15 76q-19 42 -59 42q-36 0 -38 -69q-71 12 -115 50q7 20 30 60
q18 21 57 37q36 15 66 15t62 -9q66 -19 98 -102q27 -68 21 -140zM328 230q0 89 -34 143q-43 66 -132 66q-48 0 -88 -34q-24 -21 -30 -50q30 -26 68 -32q10 69 60 68q48 -1 73 -44q21 -36 21 -89q0 -8 1 -26v-27t53 -42q8 8 8 67zM88 253q-17 6 -46 17q-14 -24 -16 -44
q1 5 1 -34l59 -37q-5 26 -5 50q0 27 7 48zM171 507q-11 7 -33 20q-12 5 -19 5q-11 0 -19 -13.5t-21 -12.5q-11 2 -38 7q-2 33 24.5 55.5t60.5 22.5q23 0 41 -11q35 -23 52 -23q13 0 23 13t22 11t45 -12q-11 -30 -39 -51t-60 -21q-21 0 -39 10zM261 563q-14 -24 -42 -24
q-21 0 -48 17t-45 17q-23 0 -43.5 -13.5t-23.5 -31.5l10 -2l12 -2q17 26 38 26q17 0 44 -17t46 -17q53 0 76 41z" />
    <glyph glyph-name="uacute" unicode="&#xfa;" horiz-adv-x="429" 
d="M170 0q-72 0 -113 53q-37 48 -37 124v217q0 26 -17 50l101 36q27 -69 27 -93q0 -2 -2 -237q5 -30 20 -42q22 -18 73 -14q11 0 28 1l-1 359h112v-399l8 -55h-36q-182 0 -163 0zM339 430h-67l-1 -31v-193q48 -34 68 -40v264zM109 383q0 12 -18 68l-60 -20q5 -31 11 -76
q1 -76 -1 -147l66 -42q2 135 2 217zM98 501l-17 33l174 93l37 -82zM107 521l160 37l-20 45l-142 -77z" />
    <glyph glyph-name="ugrave" unicode="&#xf9;" horiz-adv-x="429" 
d="M163 0q-72 0 -113 53q-37 48 -37 124v217q0 26 -17 50l101 36q27 -69 27 -93q0 -2 -2 -237q5 -30 20 -42q22 -18 73 -14q11 0 28 1l-1 359h112v-399l8 -55h-36q-182 0 -163 0zM332 430h-67l-1 -31v-193q48 -34 68 -40v264zM102 383q0 12 -18 68l-60 -20q5 -31 11 -76
q1 -76 -1 -147l66 -42q2 135 2 217zM265 515l2 5l-142 76l-20 -45zM274 494l-194 44l37 82l173 -93z" />
    <glyph glyph-name="ucircumflex" unicode="&#xfb;" horiz-adv-x="429" 
d="M163 0q-73 0 -114 53q-37 49 -36 124l2 177q0 26 -19 80l101 36q27 -76 27 -100q0 -2 -2 -220q5 -30 20 -42q22 -18 73 -14q11 0 28 1l-1 359h112v-399l8 -55h-36q-181 0 -163 0zM332 430h-67l-1 -31v-193q48 -34 68 -40v264zM102 366q0 11 -18 75l-60 -20q6 -22 12 -57
q2 -76 -2 -156l66 -42q2 117 2 200zM179 523l-99 -34l-15 31l114 75l112 -72l-9 -33zM179 542l91 -29l1 2l-92 59l-91 -60l1 -3z" />
    <glyph glyph-name="udieresis" unicode="&#xfc;" horiz-adv-x="429" 
d="M163 0q-72 0 -113 53q-37 48 -37 124v217q0 26 -17 50l101 36q27 -69 27 -93q0 -2 -2 -237q5 -30 20 -42q22 -18 73 -14q11 0 28 1l-1 359h112v-399l8 -55h-36q-181 0 -163 0zM332 430h-67l-1 -31v-193q48 -34 68 -40v264zM102 383q0 12 -18 68l-60 -20q5 -31 11 -76
q1 -76 -1 -147l66 -42q2 135 2 217zM250 600q21 0 35.5 -14.5t14.5 -35.5q0 -20 -14.5 -35t-35.5 -15t-35.5 15t-14.5 35q0 21 14.5 35.5t35.5 14.5zM250 580q-30 0 -30 -30t30 -30t30 30t-30 30zM112 600q21 0 35.5 -14.5t14.5 -35.5q0 -20 -14.5 -35t-35.5 -15
q-20 0 -35 15t-15 35q0 21 15 35.5t35 14.5zM112 580q-30 0 -30 -30t30 -30t30 30t-30 30z" />
    <glyph glyph-name="dagger" unicode="&#x2020;" horiz-adv-x="11" 
 />
    <glyph glyph-name="degree" unicode="&#xb0;" horiz-adv-x="360" 
d="M9 543q0 63 44.5 107t107.5 44q62 0 106.5 -44t44.5 -107t-44.5 -107.5t-106.5 -44.5q-63 0 -107.5 44.5t-44.5 107.5zM31 543q0 -54 38 -92t92 -38q53 0 91 38t38 92q0 53 -38 91t-91 38q-54 0 -92 -38t-38 -91zM83 543q0 -33 22.5 -55.5t55.5 -22.5q32 0 54.5 22.5
t22.5 55.5q0 32 -22.5 55t-54.5 23q-33 0 -55.5 -23t-22.5 -55zM62 543q0 40 29 69t70 29q40 0 69 -29t29 -69q0 -41 -29 -69.5t-69 -28.5q-41 0 -70 28.5t-29 69.5z" />
    <glyph glyph-name="cent" unicode="&#xa2;" horiz-adv-x="313" 
d="M165 526v67h-21q-2 0 -2 -10v-57q-117 -13 -117 -171q0 -31 10 -66q9 -8 65 -34q-19 47 -19 101q0 118 88 118q21 0 58 -13q3 7 15 55q-14 0 -77 10zM182 124v-61h-55v73q-125 48 -125 223q0 67 29 117q33 58 95 68v64l58 1v-64q54 -13 93 -3q-10 -27 -34 -115
q-40 26 -75 26q-30 0 -47 -28q-15 -24 -15 -56q0 -160 87 -160q33 0 80 18l-18 -80q-13 -27 -73 -23z" />
    <glyph glyph-name="sterling" unicode="&#xa3;" horiz-adv-x="525" 
d="M352 356l-1 -90h-136q0 -9 1 -26.5t1 -25.5q0 -58 -14 -94h246v-122h-419q1 13 1 117v4q20 27 35 67.5t12 72.5l-79 1v93h54q-25 48 -25 90q0 103 62 157q58 50 162 50q81 0 135 -49.5t54 -131.5v-12h-133q-19 59 -59 59q-66 0 -66 -80q0 -43 17 -80q34 -3 152 0z
M192 291h134l-1 42q-136 -3 -141 -1q-25 50 -25 107q0 102 90 102q49 0 73 -60l93 1q-5 66 -50 104.5t-113 38.5q-199 0 -199 -182q0 -43 41 -113l-71 -1v-46h81q3 -13 0 -49q-18 0 21 -17q54 -23 64 -30q6 17 6 40q0 12 -2 34t-1 30z" />
    <glyph glyph-name="section" unicode="&#xa7;" horiz-adv-x="412" 
d="M350 76q0 -90 -58 -139q-53 -46 -145 -46q-62 0 -111.5 48t-49.5 109q0 58 61 101q27 -19 79 -61q-28 -21 -28 -44q0 -26 20 -42t47 -16q29 0 52 19.5t23 48.5q0 35 -56 75q-98 69 -105 76q-56 52 -56 118q0 76 60 114q50 32 129 32q33 0 112 -20l-41 -103q-58 30 -91 30
q-56 0 -56 -47q0 -32 55 -66q88 -55 103 -69q56 -50 56 -118zM299 439q-58 14 -85 14q-68 0 -115 -29q-56 -34 -56 -99q0 -72 53 -109q19 -15 201 -57q-14 26 -102 79q-76 46 -76 87q0 34 21.5 52.5t55.5 18.5q25 0 77 -24z" />
    <glyph glyph-name="bullet" unicode="&#x2022;" horiz-adv-x="435" 
d="M17 333q0 73 51.5 124.5t124.5 51.5t124.5 -51.5t51.5 -124.5t-51.5 -124.5t-124.5 -51.5t-124.5 51.5t-51.5 124.5z" />
    <glyph glyph-name="paragraph" unicode="&#xb6;" horiz-adv-x="11" 
 />
    <glyph glyph-name="germandbls" unicode="&#xdf;" horiz-adv-x="479" 
d="M425 227q0 -103 -67 -165.5t-171 -62.5q-3 -4 2 -4q1 2 1 16l-1 105q98 0 98 109q0 40 -20 68.5t-56 28.5q-7 0 -15 -1v122h1q26 0 45 17t19 43q0 58 -75 58q-45 0 -60 -29q-11 -20 -11 -70l1 -461l-116 1v473q0 94 35 139q39 50 130 50q6 0 20.5 1.5t20.5 1.5
q82 0 132 -35q57 -41 57 -121q0 -86 -72 -126q54 -31 76 -63q26 -37 26 -95zM404 214q0 118 -107 160q-1 6 -1 8q0 19 1 15q74 40 74 110q0 95 -73 124q-38 14 -146 14q-76 0 -106 -58q-23 -42 -23 -126l1 -236l68 -64l1 273q0 81 9 102q18 44 87 44q97 0 97 -69
q0 -34 -18 -59q-19 -28 -50 -33v-76q38 -2 66 -37q25 -32 25 -71q0 -2 35.5 -31t48.5 -37q11 22 11 47z" />
    <glyph glyph-name="registered" unicode="&#xae;" horiz-adv-x="355" 
d="M147 672q83 0 121 -76q16 -30 16 -63q0 -57 -41 -98t-98 -41t-97.5 41t-40.5 98q0 59 41 99t99 40zM144 647q-44 0 -77 -33t-33 -81q0 -47 32.5 -80.5t78.5 -33.5q47 0 79 33.5t32 80.5q0 48 -32.5 81t-79.5 33zM87 611h65q56 0 56 -43q0 -26 -26 -37q20 -7 23 -31
q0 -16 5 -43h-33q-3 5 -4 31q-2 33 -32 33h-20v-64h-34v154zM121 590v-49h23q30 0 30 25q0 24 -28 24h-25z" />
    <glyph glyph-name="copyright" unicode="&#xa9;" horiz-adv-x="765" 
d="M346 -9q-141 0 -241 100.5t-100 241.5q0 145 101 243.5t245 98.5q93 0 174 -51t124 -136q37 -73 37 -155q0 -141 -99.5 -241.5t-240.5 -100.5zM343 623q-114 0 -197.5 -84t-83.5 -206q0 -119 82.5 -204t201.5 -85q117 0 199.5 84.5t82.5 204.5q0 122 -83.5 206t-201.5 84
zM347 139q-86 0 -137 57q-48 54 -48 140t51.5 141.5t136.5 55.5q79 0 127 -52q33 -35 39 -81h-57q-20 68 -109 68q-54 0 -84 -40q-27 -36 -27 -93q0 -55 26 -91q30 -40 84 -40q98 0 113 87h58q-7 -70 -54 -111t-119 -41z" />
    <glyph glyph-name="trademark" unicode="&#x2122;" horiz-adv-x="487" 
d="M356 409l-2 198l-41 -198h-44l-47 198l1 -84v-114h-47v260h85q4 -28 31 -195q10 83 30 195l85 -1v-259h-51zM92 629v-220h-48v220h-35v40h120v-40h-37z" />
    <glyph glyph-name="acute" unicode="&#xb4;" horiz-adv-x="349" 
d="M64 687l-21 43l220 118l47 -105zM78 716l197 44l-24 54l-175 -94z" />
    <glyph glyph-name="dieresis" unicode="&#xa8;" horiz-adv-x="368" 
d="M266 821q25 0 43 -18t18 -43t-18 -42.5t-43 -17.5t-42.5 17.5t-17.5 42.5t17.5 43t42.5 18zM266 799q-16 0 -27 -11.5t-11 -27.5t11 -27t27 -11t27.5 11t11.5 27t-11.5 27.5t-27.5 11.5zM96 821q25 0 43 -18t18 -43t-18 -42.5t-43 -17.5t-42.5 17.5t-17.5 42.5t17.5 43
t42.5 18zM96 799q-16 0 -27 -11.5t-11 -27.5t11 -27t27 -11t27.5 11t11.5 27t-11.5 27.5t-27.5 11.5z" />
    <glyph glyph-name="AE" unicode="&#xc6;" horiz-adv-x="817" 
d="M763 124v-124l-453 1v143l-147 -63l-21 -82h-143l157 658l606 -1v-128l-291 1v-172l182 68l1 -125l-187 -78l-1 -98h297zM737 552v79l-557 1l-97 -405l137 -93l134 57l83 -57l1 101l192 85v72l-185 -76v236h292zM334 254l-160 -57l-12 8l84 347l88 -1v-297zM304 272v256
h-37l-70 -296z" />
    <glyph glyph-name="Oslash" unicode="&#xd8;" horiz-adv-x="588" 
d="M193 151q25 -30 62 -30q106 0 106 197q0 30 -2 54zM511 356q0 -150 -51 -244q-65 -120 -202 -120q-86 0 -149 48l-30 -41h-55l53 71q-70 79 -70 203q0 89 27 136q69 -30 130 -40q-9 -54 -9 -91q0 -44 15 -84l180 240q-22 91 -87 91q-60 0 -60 -49q0 -20 9 -46
q-30 -13 -54 -13q-32 0 -70 23q-7 4 -61 44q21 85 83 133t150 48q124 0 191 -96l53 68h55l-84 -110q36 -74 36 -171zM434 546q-62 94 -170 94q-112 0 -170 -71q-22 -26 -40 -80q53 -47 90 -47q8 0 16 1l20 5q-5 15 -5 27q0 31 25 51.5t57 20.5q84 0 113 -86zM490 344
q0 87 -33 159l-74 -99q6 -52 0 -146q35 -24 86 -54q21 74 21 140zM149 184q-21 30 -21 109q0 20 7 53q-30 8 -88 27q-20 -79 -20 -99q0 -3 4 -27q1 -6 54 -34.5t64 -28.5z" />
    <glyph glyph-name="plusminus" unicode="&#xb1;" 
 />
    <glyph glyph-name="yen" unicode="&#xa5;" horiz-adv-x="483" 
d="M388 632h-82l-104 -226l-97 226h-76l130 -332h94zM29 271h107v9l-147 379h132l81 -191l81 186l145 2l-156 -385h116v-50h-116v-50h116v-50h-116v-122l-135 -1v123h-108v50h108l-1 50h-107v50z" />
    <glyph glyph-name="uni00B5" unicode="&#xb5;" horiz-adv-x="375" 
d="M26 248l91 -57v153l123 105v41l-123 -105v250h-90l-1 -327l-84 -74v-40l84 71v-17zM259 530v-91l-117 -99v-219h181l1 -120h-322v220l-81 -67v91l81 68v343h141l-1 -225z" />
    <glyph glyph-name="uni00B5" unicode="&#x3bc;" horiz-adv-x="375" 
d="M26 248l91 -57v153l123 105v41l-123 -105v250h-90l-1 -327l-84 -74v-40l84 71v-17zM259 530v-91l-117 -99v-219h181l1 -120h-322v220l-81 -67v91l81 68v343h141l-1 -225z" />
    <glyph glyph-name="ordfeminine" unicode="&#xaa;" horiz-adv-x="470" 
d="M414 542l-261 -413h260v-128l-413 -1v115l260 415h-239v126h393v-114zM390 631h-343v-77l259 1l-199 -310l63 -46l220 352v80zM211 770l130 41q5 -22 11 -41q-46 -31 -141 -90l-5 3l-15 9q-7 4 -118 76v6l-1 7q0 8 4 15l9 14zM95 784l-1 -1v-2l117 -76q16 10 115 74l-1 4
l-114 -36z" />
    <glyph glyph-name="ordmasculine" unicode="&#xba;" horiz-adv-x="400" 
d="M330 366l-204 -271h207v-95l-333 1v98l199 260h-179l-1 94l311 1v-88zM309 434h-267v-53h201l-137 -179l44 -39l159 208v63zM171 570l130 41q5 -22 11 -41q-46 -31 -141 -90l-5 3l-15 9q-7 4 -118 76v6l-1 7q0 8 4 15l9 14zM55 584l-1 -1v-2l117 -76q16 10 115 74l-1 4
l-114 -36z" />
    <glyph glyph-name="ae" unicode="&#xe6;" horiz-adv-x="653" 
d="M50 218q0 -2 28.5 -25.5t28.5 -21.5q0 18 24 30q19 9 37 9q8 17 22 52q-9 13 -39 13q-34 0 -65 -16q-34 -17 -36 -41zM204 451q-47 2 -89 -15q-56 -24 -62 -74q0 -1 23 -5q27 -5 37 -11q4 22 26.5 38t48.5 15q40 -2 59 -25q24 -30 24 -105q0 -21 -2 -47q19 -12 75 -46
q-4 16 -4 60q0 81 20 104q23 45 74 45q37 0 58 -33q17 -28 19 -67q-40 -7 -96 -30l17 -53q31 22 157 51q0 78 -36 130q-41 60 -116 60t-120 -48q-19 16 -38 27q-44 28 -75 29zM609 240q-49 -13 -99 -26q-56 -15 -95 -35l-23 85q25 17 93 33q0 25 -16.5 46.5t-40.5 21.5
q-68 0 -68 -148q0 -46 14 -82q19 -50 57 -50q39 0 56 22q1 2 26 55l95 -30q-8 -71 -60 -110q-48 -36 -122 -36q-39 0 -70 14q-7 -1 -11 -1q-19 1 -63 -0.5t-67 -1.5q-99 0 -148 25q-67 33 -66 119q0 64 39.5 108t102.5 44q47 0 73 -20q-12 -28 -35 -83q-5 2 -17 2
q-18 0 -31 -12t-13 -30q0 -36 38 -47q18 -5 68 -5q14 0 14 75l2 144q0 22 -18 40.5t-40 18.5q-58 0 -58 -61q-53 26 -81 26q-6 0 -21 -5q-1 68 56 104q47 29 119 29q75 0 117 -45q44 38 115 38q85 0 134 -71q44 -63 44 -151z" />
    <glyph glyph-name="oslash" unicode="&#xf8;" horiz-adv-x="418" 
d="M126 108q19 -28 49 -28q17 0 23 3q33 17 42 74q4 25 4 92q0 12 -2 25zM351 209q-7 -84 -29 -130q-42 -89 -148 -89q-74 0 -109 32l-16 -23h-55l42 61q-32 58 -32 122q0 66 23 118q25 -13 87 -33q-11 -28 -11 -72q0 -17 3 -36l121 171q-20 37 -57 37q-36 0 -38 -69
q-71 12 -115 50q7 20 30 60q18 21 57 37q36 15 66 15t62 -9t56 -34l25 36h55l-52 -74q42 -75 35 -170zM274 397q-41 42 -112 42q-48 0 -88 -34q-24 -21 -30 -50q30 -26 68 -32q10 69 60 68q45 -1 70 -39zM328 230q0 77 -26 128l-40 -56q4 -21 4 -44q0 -8 1 -26v-27t53 -42
q8 8 8 67zM88 253q-17 6 -46 17q-14 -24 -16 -44q1 5 1 -34l59 -37q-5 26 -5 50q0 27 7 48z" />
    <glyph glyph-name="questiondown" unicode="&#xbf;" horiz-adv-x="344" 
d="M16 -48q0 51 20 92q25 51 66 124q13 22 29 67q4 24 6 66h69l9 -96q-2 -27 -9 -77q-12 -25 -32 -75q-8 -34 -8 -61q0 -43 48 -43q21 0 35 6q2 0 7 -36q7 -46 11 -63q7 -28 20 -86q-1 0 -51 10q-27 6 -53 12q-71 11 -116 50q-51 45 -51 110zM109 333l-1 127l126 -1v-125z
M42 -37q0 -81 80 -123q42 -23 133 -41l-29 127h-8q-79 0 -79 67q0 21 14 67q12 42 24 66l-42 37q-10 -2 -45 -68q-32 -62 -36 -80q-1 -4 -8 -26q-4 -14 -4 -26z" />
    <glyph glyph-name="exclamdown" unicode="&#xa1;" horiz-adv-x="292" 
d="M24 -191l61 486l76 1l59 -487h-196zM59 457l122 1l-1 -126l-121 1v124zM55 -168h136l-42 340l-53 26z" />
    <glyph glyph-name="logicalnot" unicode="&#xac;" horiz-adv-x="17" 
 />
    <glyph glyph-name="florin" unicode="&#x192;" horiz-adv-x="566" 
d="M515 142q-15 -70 -80 -112q-60 -38 -135 -38q-216 0 -256 259h-62v64h54v36h-54v64l56 1q11 106 80 176q73 74 183 74q152 0 194 -96l-129 -105q-34 60 -68 60q-38 0 -64.5 -31.5t-35.5 -79.5h155l1 -64l-164 1q1 -13 0 -37h164v-63h-165q11 -130 104 -130
q34 0 59.5 23.5t31.5 58.5zM460 573q-10 36 -70 54q-43 14 -90 14q-98 0 -165 -73q-64 -69 -75 -172q4 0 -58 0l-1 -24h60v-79q-20 1 -59 2v-24h61q0 -21 8 -39q55 -26 109 -53q-17 62 -16 92h170v24h-84h-84q0 32 1 76h167l-1 24h-164q4 64 39 107q37 48 92 47
q47 -1 75 -43z" />
    <glyph glyph-name="guillemotleft" unicode="&#xab;" horiz-adv-x="434" 
d="M331 569l41 -41l-82 -192l81 -191l-40 -41l-143 232zM151 569l41 -41l-82 -192l81 -191l-40 -41l-143 232z" />
    <glyph glyph-name="guillemotright" unicode="&#xbb;" horiz-adv-x="434" 
d="M49 104l-41 41l82 192l-81 191l41 41l142 -233zM229 104l-41 41l82 192l-81 191l41 41l142 -233z" />
    <glyph glyph-name="ellipsis" unicode="&#x2026;" horiz-adv-x="893" 
d="M238 127l1 -127l-126 1v125zM838 127l1 -127l-126 1v125zM538 127l1 -127l-126 1v125z" />
    <glyph glyph-name="uni00A0" unicode="&#xa0;" horiz-adv-x="204" 
 />
    <glyph glyph-name="Agrave" unicode="&#xc0;" horiz-adv-x="593" 
d="M519 224l-51 -30l60 -270l-131 -50l-66 274l-168 -67l-21 -82h-143l157 658h203l80 -333l81 28zM496 314l-76 -28l-83 346h-157l-97 -405l150 -91l116 47l112 -65l-20 89l55 29v78zM337 258l-163 -61l-12 8l77 317h31zM254 478l-57 -246l107 40zM354 714l4 6l-178 96
l-25 -57zM366 689l-242 55l45 102l218 -117z" />
    <glyph glyph-name="Atilde" unicode="&#xc3;" horiz-adv-x="593" 
d="M519 224l-51 -30l60 -270l-131 -50l-66 274l-168 -67l-21 -82h-143l157 658h203l80 -333l81 28zM496 314l-76 -28l-83 346h-157l-97 -405l150 -91l116 47l112 -65l-20 89l55 29v78zM337 258l-163 -61l-12 8l77 317h31zM254 478l-57 -246l107 40zM260 712q-12 8 -37 22
q-12 5 -21 5q-11 0 -20 -14.5t-24 -13.5q-12 2 -43 7q-2 38 27.5 63.5t67.5 25.5q26 0 46 -13q40 -25 57 -25q16 0 27 16q10 13 24 11q14 -3 51 -14q-12 -34 -43.5 -57.5t-67.5 -23.5q-24 0 -44 11zM361 774q-16 -27 -48 -27q-22 0 -52.5 19t-49.5 19q-25 0 -47.5 -14.5
t-26.5 -33.5l10 -2q7 -1 13 -2q19 29 43 29q19 0 49.5 -19.5t50.5 -19.5q24 0 48 13t35 32q-16 4 -25 6z" />
    <glyph glyph-name="Otilde" unicode="&#xd5;" horiz-adv-x="589" 
d="M511 356q0 -150 -51 -244q-65 -120 -202 -120q-116 0 -186 84q-65 78 -65 197q0 89 27 136q69 -30 130 -40q-9 -54 -9 -91q0 -57 22 -101q27 -56 78 -56q106 0 106 197q0 207 -98 207q-60 0 -60 -49q0 -20 9 -46q-30 -13 -54 -13q-32 0 -70 23q-7 4 -61 44q21 85 83 133
t150 48q124 0 191 -96q60 -84 60 -213zM490 344q0 116 -54 199q-62 97 -172 97q-112 0 -170 -71q-22 -26 -40 -80q53 -47 90 -47q8 0 16 1l20 5q-5 15 -5 27q0 31 25 51.5t57 20.5q129 0 129 -210q0 -30 -3 -79q35 -24 86 -54q21 74 21 140zM149 184q-21 30 -21 109
q0 20 7 53q-30 8 -88 27q-20 -79 -20 -99q0 -3 4 -27q1 -6 54 -34.5t64 -28.5zM260 712q-12 8 -37 22q-12 5 -21 5q-11 0 -20 -14.5t-24 -13.5q-12 2 -43 7q-2 38 27.5 63.5t67.5 25.5q26 0 46 -13q40 -25 57 -25q16 0 27 16q10 13 24 11q14 -3 51 -14q-12 -34 -43.5 -57.5
t-67.5 -23.5q-24 0 -44 11zM361 774q-16 -27 -48 -27q-22 0 -52.5 19t-49.5 19q-25 0 -47.5 -14.5t-26.5 -33.5l10 -2q7 -1 13 -2q19 29 43 29q19 0 49.5 -19.5t50.5 -19.5q24 0 48 13t35 32q-16 4 -25 6z" />
    <glyph glyph-name="OE" unicode="&#x152;" horiz-adv-x="839" 
d="M784 126l1 -126h-433v14q-44 -22 -102 -22q-116 0 -187 85q-67 79 -67 197q0 83 30 135q69 -30 130 -40q-9 -53 -9 -91q0 -57 22 -101q27 -56 78 -56q75 0 96 89q9 38 9 147q0 63 -18 107q-25 61 -79 61q-60 0 -60 -50q0 -20 9 -45q-30 -13 -54 -13q-33 0 -70 23
q-7 3 -61 44q45 181 233 181q57 0 100 -21v12h432v-128l-291 1v-172l182 68l1 -125l-187 -78l-1 -98zM758 631h-379v-31q-58 40 -123 40q-159 0 -206 -149q54 -48 90 -48q14 0 32 5q-5 17 -5 27q0 31 25 51.5t57 20.5q133 0 133 -209q0 -33 -4 -82q29 -21 83 -52v35l191 81
v72l-190 -66l1 227l296 -1zM141 184q-21 30 -21 109q0 30 6 57q-59 15 -88 27q-19 -73 -19 -103q0 -9 4 -27q2 -7 54.5 -35t63.5 -28z" />
    <glyph glyph-name="oe" unicode="&#x153;" horiz-adv-x="669" 
d="M609 240q-49 -13 -99 -26q-56 -15 -95 -35l-26 83q29 19 96 35q0 25 -16.5 46.5t-40.5 21.5q-68 0 -68 -148q0 -46 14 -82q19 -50 57 -50q39 0 56 22q1 2 26 55l95 -30q-8 -71 -60 -110q-48 -36 -122 -36q-80 0 -128 56q-43 -52 -124 -52q-64 0 -100 25q-31 21 -52 75
q-18 48 -18 92q0 66 23 118q25 -13 87 -33q-11 -28 -11 -72q0 -41 16 -74q19 -41 56 -41q17 0 23 3q33 17 42 74q4 25 4 92q0 44 -15 76q-19 42 -59 42q-36 0 -38 -69q-71 12 -115 50q7 20 30 60q18 21 57 37q36 15 66 15t62 -9q39 -11 66 -45q47 56 133 56q85 0 134 -71
q44 -63 44 -151zM585 253q0 77 -36 129q-42 60 -116 60q-39 0 -79 -23q-34 -20 -56 -48q-42 68 -136 68q-48 0 -88 -34q-24 -21 -30 -50q30 -26 68 -32q10 69 60 68q62 -1 85 -70q11 -51 10 -116l81 -53q-12 34 -12 82q0 37 7 71q17 79 87 79q33 0 56 -28t20 -60l-1 -12
q-36 -7 -94 -30l17 -53q31 22 157 52zM88 253q-17 6 -46 17q-14 -24 -16 -44q1 5 1 -34l59 -37q-5 26 -5 50q0 27 7 48z" />
    <glyph glyph-name="endash" unicode="&#x2013;" horiz-adv-x="473" 
d="M405 325v-126l-405 1v125h405zM382 223v79h-357l-3 -10z" />
    <glyph glyph-name="emdash" unicode="&#x2014;" horiz-adv-x="893" 
d="M825 325v-126l-825 1v125h825zM802 223v79h-777l-3 -10z" />
    <glyph glyph-name="quotedblleft" unicode="&#x201c;" horiz-adv-x="358" 
d="M170 427v129l69 100l45 -21l-22 -77h29v-130zM270 449l1 86h-39l29 90l-16 8l-52 -84v-100h77zM4 427v129l69 100l45 -21l-22 -77h29v-130zM104 449l1 86h-39l29 90l-16 8l-52 -84v-100h77z" />
    <glyph glyph-name="quotedblright" unicode="&#x201d;" horiz-adv-x="344" 
d="M125 656v-128l-69 -101l-45 22l22 77h-29v129zM26 635l-1 -86l38 -1l-29 -89l17 -9l52 85v100h-77zM286 656v-128l-69 -101l-45 22l22 77h-29v129zM187 635l-1 -86l38 -1l-29 -89l17 -9l52 85v100h-77z" />
    <glyph glyph-name="quoteleft" unicode="&#x2018;" horiz-adv-x="192" 
d="M4 427v129l69 100l45 -21l-22 -77h29v-130zM104 449l1 86h-39l29 90l-16 8l-52 -84v-100h77z" />
    <glyph glyph-name="quoteright" unicode="&#x2019;" horiz-adv-x="190" 
d="M132 656v-128l-69 -101l-45 22l22 77h-29v129zM33 635l-1 -86l38 -1l-29 -89l17 -9l52 85v100h-77z" />
    <glyph glyph-name="divide" unicode="&#xf7;" horiz-adv-x="11" 
 />
    <glyph glyph-name="ydieresis" unicode="&#xff;" horiz-adv-x="434" 
d="M361 -5q-1 -41 -19 -81q-20 -43 -52 -64q-45 -31 -116 -31q-15 0 -68 3q-27 2 -68 -13q-26 98 -26 102q22 13 83 13l76 -1q72 -1 72 78h-84q-43 -1 -73 16q-48 25 -61 67q-9 26 -9 92q0 13 -1 92q0 56 1 91q1 54 -9 81q-1 4 -9 17l106 45q5 -8 10 -21q12 -43 12 -163
v-166q1 -43 25 -51q13 -5 90 -5v358q0 -2 118 0zM339 435h-78v-237l79 -44zM100 448l-7 24q-28 -9 -64 -22q-2 -1 -2 -3q0 -3 3.5 -9.5t3.5 -9.5q0 -12 3 -37t3 -38v-166l64 -35v33v216q0 16 -4 47zM266 641q25 0 43 -18t18 -43t-18 -42.5t-43 -17.5t-42.5 17.5t-17.5 42.5
t17.5 43t42.5 18zM266 619q-16 0 -27 -11.5t-11 -27.5t11 -27t27 -11t27.5 11t11.5 27t-11.5 27.5t-27.5 11.5zM96 641q25 0 43 -18t18 -43t-18 -42.5t-43 -17.5t-42.5 17.5t-17.5 42.5t17.5 43t42.5 18zM96 619q-16 0 -27 -11.5t-11 -27.5t11 -27t27 -11t27.5 11t11.5 27
t-11.5 27.5t-27.5 11.5z" />
    <glyph glyph-name="Ydieresis" unicode="&#x178;" horiz-adv-x="501" 
d="M439 624l-160 -407v-278l-135 -54l-1 335l-158 436h132l92 -248l111 269zM405 609l-69 33l-127 -296l-108 283h-76l142 -389l89 -62v59zM296 821q25 0 43 -18t18 -43t-18 -42.5t-43 -17.5t-42.5 17.5t-17.5 42.5t17.5 43t42.5 18zM296 799q-16 0 -27 -11.5t-11 -27.5
t11 -27t27 -11t27.5 11t11.5 27t-11.5 27.5t-27.5 11.5zM126 821q25 0 43 -18t18 -43t-18 -42.5t-43 -17.5t-42.5 17.5t-17.5 42.5t17.5 43t42.5 18zM126 799q-16 0 -27 -11.5t-11 -27.5t11 -27t27 -11t27.5 11t11.5 27t-11.5 27.5t-27.5 11.5z" />
    <glyph glyph-name="currency" unicode="&#xa4;" 
 />
    <glyph glyph-name="guilsinglleft" unicode="&#x2039;" horiz-adv-x="256" 
d="M151 569l41 -41l-82 -192l81 -191l-40 -41l-143 232z" />
    <glyph glyph-name="guilsinglright" unicode="&#x203a;" horiz-adv-x="256" 
d="M49 104l-41 41l82 192l-81 191l41 41l142 -233z" />
    <glyph glyph-name="daggerdbl" unicode="&#x2021;" horiz-adv-x="14" 
 />
    <glyph glyph-name="periodcentered" unicode="&#xb7;" horiz-adv-x="17" 
 />
    <glyph glyph-name="periodcentered" unicode="&#x2219;" horiz-adv-x="17" 
 />
    <glyph glyph-name="quotesinglbase" unicode="&#x201a;" horiz-adv-x="194" 
d="M125 134v-128l-69 -101l-45 22l22 77h-29v129z" />
    <glyph glyph-name="quotedblbase" unicode="&#x201e;" horiz-adv-x="365" 
d="M125 132v-128l-69 -101l-45 22l22 77h-29v131zM296 132v-128l-69 -101l-45 22l22 77l-31 -5l1 135h122z" />
    <glyph glyph-name="perthousand" unicode="&#x2030;" horiz-adv-x="536" 
d="M486 -60q-63 -40 -129 -60q-29 43 -64 172q-33 118 -40 184l-106 -50v-186h-146v659q93 0 186 -1q131 -5 201 -41q94 -48 94 -156q0 -109 -99 -175q0 -28 44 -168q34 -110 59 -178zM206 629l-172 1v-347q31 -12 96 -73l146 62l104 -72q-9 33 -30 99q99 64 99 154
q0 93 -79 139q-64 36 -164 37zM358 458q0 -60 -51 -95q-18 -12 -103.5 -47t-88.5 -35v16l-1 38q0 53 3 232l36 1q96 2 134 -10q71 -23 71 -100zM330 454q0 48 -32 69q-24 16 -72 18q-40 1 -79 1v-219q57 22 113 45q70 37 70 86z" />
    <glyph glyph-name="Acircumflex" unicode="&#xc2;" horiz-adv-x="593" 
d="M519 224l-51 -30l60 -270l-131 -50l-66 274l-168 -67l-21 -82h-143l157 658h203l80 -333l81 28zM496 314l-76 -28l-83 346h-157l-97 -405l150 -91l116 47l112 -65l-20 89l55 29v78zM337 258l-163 -61l-12 8l77 317h31zM254 478l-57 -246l107 40zM252 720l-124 -42l-18 37
l141 95l141 -90l-11 -41zM251 743l114 -36l1 3l-114 74l-114 -76l1 -3z" />
    <glyph glyph-name="Ecircumflex" unicode="&#xca;" horiz-adv-x="536" 
d="M452 528l-291 1v-172l182 68l1 -125l-187 -78l-1 -98h297v-124h-433v656h432v-128zM427 631l-380 1l-1 -392l83 -50l-1 45l192 85v72l-185 -76v236h292v79zM232 720l-124 -42l-18 37l141 95l141 -90l-11 -41zM231 743l114 -36l1 3l-114 74l-114 -76l1 -3z" />
    <glyph glyph-name="Aacute" unicode="&#xc1;" horiz-adv-x="593" 
d="M512 224l-51 -30l60 -270l-131 -50l-66 274l-168 -67l-21 -82h-143l157 658h203l80 -333l81 28zM489 314l-76 -28l-83 346h-157l-97 -405l150 -91l116 47l112 -65l-20 89l55 29v78zM330 258l-163 -61l-12 8l77 317h31zM246 478l-57 -246l108 40zM137 687l-21 43l220 118
l47 -105zM151 716l197 44l-24 54l-175 -94z" />
    <glyph glyph-name="Edieresis" unicode="&#xcb;" horiz-adv-x="536" 
d="M452 528l-291 1v-172l182 68l1 -125l-187 -78l-1 -98h297v-124h-433v656h432v-128zM427 631l-380 1l-1 -392l83 -50l-1 45l192 85v72l-185 -76v236h292v79zM316 821q25 0 43 -18t18 -43t-18 -42.5t-43 -17.5t-42.5 17.5t-17.5 42.5t17.5 43t42.5 18zM316 799
q-16 0 -27 -11.5t-11 -27.5t11 -27t27 -11t27.5 11t11.5 27t-11.5 27.5t-27.5 11.5zM146 821q25 0 43 -18t18 -43t-18 -42.5t-43 -17.5t-42.5 17.5t-17.5 42.5t17.5 43t42.5 18zM146 799q-16 0 -27 -11.5t-11 -27.5t11 -27t27 -11t27.5 11t11.5 27t-11.5 27.5t-27.5 11.5z
" />
    <glyph glyph-name="Egrave" unicode="&#xc8;" horiz-adv-x="536" 
d="M452 528l-291 1v-172l182 68l1 -125l-187 -78l-1 -98h297v-124h-433v656h432v-128zM427 631l-380 1l-1 -392l83 -50l-1 45l192 85v72l-185 -76v236h292v79zM334 714l4 6l-178 96l-25 -57zM346 689l-242 55l45 102l218 -117z" />
    <glyph glyph-name="Iacute" unicode="&#xcd;" horiz-adv-x="222" 
d="M153 1h-144v654h144v-654zM129 632h-97l1 -375l96 -66v441zM-36 687l-21 43l220 118l47 -105zM-22 716l197 44l-24 54l-175 -94z" />
    <glyph glyph-name="Icircumflex" unicode="&#xce;" horiz-adv-x="222" 
d="M153 1h-144v654h144v-654zM129 632h-97l1 -375l96 -66v441zM82 720l-124 -42l-18 37l141 95l141 -90l-11 -41zM81 743l114 -36l1 3l-114 74l-114 -76l1 -3z" />
    <glyph glyph-name="Idieresis" unicode="&#xcf;" horiz-adv-x="222" 
d="M153 1h-144v654h144v-654zM129 632h-96v-375l96 -66v441zM146 821q25 0 43 -18t18 -43t-18 -42.5t-43 -17.5t-42.5 17.5t-17.5 42.5t17.5 43t42.5 18zM146 799q-16 0 -27 -11.5t-11 -27.5t11 -27t27 -11t27.5 11t11.5 27t-11.5 27.5t-27.5 11.5zM-4 821q25 0 43 -18
t18 -43t-18 -42.5t-43 -17.5t-42.5 17.5t-17.5 42.5t17.5 43t42.5 18zM-4 799q-16 0 -27 -11.5t-11 -27.5t11 -27t27 -11t27.5 11t11.5 27t-11.5 27.5t-27.5 11.5z" />
    <glyph glyph-name="Igrave" unicode="&#xcc;" horiz-adv-x="222" 
d="M153 1h-144v654h144v-654zM129 632h-97l1 -375l96 -66v441zM174 714l4 6l-178 96l-25 -57zM186 689l-242 55l45 102l218 -117z" />
    <glyph glyph-name="Oacute" unicode="&#xd3;" horiz-adv-x="589" 
d="M511 356q0 -150 -51 -244q-65 -120 -202 -120q-116 0 -186 84q-65 78 -65 197q0 89 27 136q69 -30 130 -40q-9 -54 -9 -91q0 -57 22 -101q27 -56 78 -56q106 0 106 197q0 207 -98 207q-60 0 -60 -49q0 -20 9 -46q-30 -13 -54 -13q-32 0 -70 23q-7 4 -61 44q21 85 83 133
t150 48q124 0 191 -96q60 -84 60 -213zM490 344q0 116 -54 199q-62 97 -172 97q-112 0 -170 -71q-22 -26 -40 -80q53 -47 90 -47q8 0 16 1l20 5q-5 15 -5 27q0 31 25 51.5t57 20.5q129 0 129 -210q0 -30 -3 -79q35 -24 86 -54q21 74 21 140zM149 184q-21 30 -21 109
q0 20 7 53q-30 8 -88 27q-20 -79 -20 -99q0 -3 4 -27q1 -6 54 -34.5t64 -28.5zM144 687l-21 43l220 118l47 -105zM158 716l197 44l-24 54l-175 -94z" />
    <glyph glyph-name="Ocircumflex" unicode="&#xd4;" horiz-adv-x="589" 
d="M511 356q0 -150 -51 -244q-65 -120 -202 -120q-116 0 -186 84q-65 78 -65 197q0 89 27 136q69 -30 130 -40q-9 -54 -9 -91q0 -57 22 -101q27 -56 78 -56q106 0 106 197q0 207 -98 207q-60 0 -60 -49q0 -20 9 -46q-30 -13 -54 -13q-32 0 -70 23q-7 4 -61 44q21 85 83 133
t150 48q124 0 191 -96q60 -84 60 -213zM490 344q0 116 -54 199q-62 97 -172 97q-112 0 -170 -71q-22 -26 -40 -80q53 -47 90 -47q8 0 16 1l20 5q-5 15 -5 27q0 31 25 51.5t57 20.5q129 0 129 -210q0 -30 -3 -79q35 -24 86 -54q21 74 21 140zM149 184q-21 30 -21 109
q0 20 7 53q-30 8 -88 27q-20 -79 -20 -99q0 -3 4 -27q1 -6 54 -34.5t64 -28.5zM262 720l-124 -42l-18 37l141 95l141 -90l-11 -41zM261 743l114 -36l1 3l-114 74l-114 -76l1 -3z" />
    <glyph glyph-name="Ograve" unicode="&#xd2;" horiz-adv-x="589" 
d="M511 356q0 -150 -51 -244q-65 -120 -202 -120q-116 0 -186 84q-65 78 -65 197q0 89 27 136q69 -30 130 -40q-9 -54 -9 -91q0 -57 22 -101q27 -56 78 -56q106 0 106 197q0 207 -98 207q-60 0 -60 -49q0 -20 9 -46q-30 -13 -54 -13q-32 0 -70 23q-7 4 -61 44q21 85 83 133
t150 48q124 0 191 -96q60 -84 60 -213zM490 344q0 116 -54 199q-62 97 -172 97q-112 0 -170 -71q-22 -26 -40 -80q53 -47 90 -47q8 0 16 1l20 5q-5 15 -5 27q0 31 25 51.5t57 20.5q129 0 129 -210q0 -30 -3 -79q35 -24 86 -54q21 74 21 140zM149 184q-21 30 -21 109
q0 20 7 53q-30 8 -88 27q-20 -79 -20 -99q0 -3 4 -27q1 -6 54 -34.5t64 -28.5zM354 714l4 6l-178 96l-25 -57zM366 689l-242 55l45 102l218 -117z" />
    <glyph glyph-name="Uacute" unicode="&#xda;" horiz-adv-x="544" 
d="M473 232q0 -104 -65 -171.5t-169 -67.5q-111 0 -173.5 62.5t-62.5 173.5v427h136v-426q1 -52 24.5 -82.5t68.5 -28.5q52 1 74.5 27t22.5 82q0 129 -1 432l142 1zM441 635h-84l-1 -381q35 -17 86 -37q-1 63 -1 418zM114 630h-84v-373l84 -48v421zM115 689l-20 40l217 117
l46 -102zM127 714l200 45l-25 57l-178 -96z" />
    <glyph glyph-name="Ucircumflex" unicode="&#xdb;" horiz-adv-x="544" 
d="M473 232q0 -104 -65 -171.5t-169 -67.5q-111 0 -173.5 62.5t-62.5 173.5v427h136v-426q1 -52 24.5 -82.5t68.5 -28.5q52 1 74.5 27t22.5 82q0 129 -1 432l142 1zM441 635h-84l-1 -381q35 -17 86 -37q-1 63 -1 418zM114 630h-84v-373l84 -48v421zM222 720l-124 -42l-18 37
l141 95l141 -90l-11 -41zM221 743l114 -36l1 3l-114 74l-114 -76l1 -3z" />
    <glyph glyph-name="Ugrave" unicode="&#xd9;" horiz-adv-x="544" 
d="M473 232q0 -104 -65 -171.5t-169 -67.5q-111 0 -173.5 62.5t-62.5 173.5v427h136v-426q1 -52 24.5 -82.5t68.5 -28.5q52 1 74.5 27t22.5 82q0 129 -1 432h142zM441 635h-84l-1 -381q35 -17 86 -37q-1 63 -1 418zM114 630h-84v-373l84 -48v421zM334 714l4 6l-178 96
l-25 -57zM346 689l-242 55l45 102l218 -117z" />
    <glyph glyph-name="circumflex" unicode="&#x2c6;" horiz-adv-x="544" 
d="M222 720l-124 -42l-18 37l141 95l141 -90l-11 -41zM221 743l114 -36l1 3l-114 74l-114 -76l1 -3z" />
    <glyph glyph-name="tilde" unicode="&#x2dc;" horiz-adv-x="385" 
d="M180 712q-12 8 -37 22q-12 5 -21 5q-11 0 -20 -14.5t-24 -13.5q-12 2 -43 7q-2 38 27.5 63.5t67.5 25.5q26 0 46 -13q40 -25 57 -25q16 0 27 16q10 13 24 11q14 -3 51 -14q-12 -34 -44 -57.5t-67 -23.5q-24 0 -44 11zM281 774q-16 -27 -48 -27q-22 0 -52.5 19t-49.5 19
q-25 0 -47.5 -14.5t-26.5 -33.5l10 -2q7 -1 13 -2q19 29 43 29q19 0 49.5 -19.5t50.5 -19.5q24 0 48 13t35 32q-16 4 -25 6z" />
    <glyph glyph-name="macron" unicode="&#xaf;" horiz-adv-x="351" 
d="M313 805v-77h-296v77h296zM291 783h-252v-33h252v33z" />
    <glyph glyph-name="macron" unicode="&#x2c9;" horiz-adv-x="351" 
d="M313 805v-77h-296v77h296zM291 783h-252v-33h252v33z" />
    <glyph glyph-name="cedilla" unicode="&#xb8;" horiz-adv-x="301" 
d="M135 1l-8 -28q94 -10 94 -75q0 -43 -30 -65q-26 -21 -70 -21q-19 0 -41 10q-26 13 -26 29q0 21 20 21q7 0 17.5 -9t25.5 -9q33 0 33 42q0 31 -32.5 41t-32.5 30q0 1 12 34h38z" />
    <glyph glyph-name="Scaron" unicode="&#x160;" 
 />
    <glyph glyph-name="scaron" unicode="&#x161;" 
 />
    <glyph glyph-name="brokenbar" unicode="&#xa6;" 
 />
    <glyph glyph-name="Eth" unicode="&#xd0;" 
 />
    <glyph glyph-name="eth" unicode="&#xf0;" 
 />
    <glyph glyph-name="Yacute" unicode="&#xdd;" 
 />
    <glyph glyph-name="yacute" unicode="&#xfd;" 
 />
    <glyph glyph-name="Thorn" unicode="&#xde;" 
 />
    <glyph glyph-name="thorn" unicode="&#xfe;" 
 />
    <glyph glyph-name="uni00AD" unicode="&#xad;" 
 />
    <glyph glyph-name="uni00AD" unicode="&#x2212;" 
 />
    <glyph glyph-name="multiply" unicode="&#xd7;" 
 />
    <glyph glyph-name="uni00B9" unicode="&#xb9;" 
 />
    <glyph glyph-name="uni00B2" unicode="&#xb2;" 
 />
    <glyph glyph-name="uni00B3" unicode="&#xb3;" 
 />
    <glyph glyph-name="onehalf" unicode="&#xbd;" 
 />
    <glyph glyph-name="onequarter" unicode="&#xbc;" 
 />
    <glyph glyph-name="threequarters" unicode="&#xbe;" 
 />
    <glyph glyph-name="Lslash" unicode="&#x141;" 
 />
    <glyph glyph-name="lslash" unicode="&#x142;" 
 />
    <glyph glyph-name="glyph220" 
 />
    <glyph glyph-name="glyph221" 
 />
    <glyph glyph-name="glyph222" 
 />
    <glyph glyph-name="Zcaron" unicode="&#x17d;" 
 />
    <glyph glyph-name="zcaron" unicode="&#x17e;" 
 />
    <glyph glyph-name="glyph225" 
 />
    <glyph glyph-name="glyph226" 
 />
    <glyph glyph-name="glyph227" 
 />
    <glyph glyph-name="glyph228" 
 />
    <glyph glyph-name="glyph229" 
 />
    <glyph glyph-name="glyph230" 
 />
    <glyph glyph-name="glyph231" 
 />
    <glyph glyph-name="glyph232" horiz-adv-x="1003" 
 />
    <glyph glyph-name="notequal" unicode="&#x2260;" horiz-adv-x="14" 
 />
    <glyph glyph-name="infinity" unicode="&#x221e;" 
 />
    <glyph glyph-name="lessequal" unicode="&#x2264;" 
 />
    <glyph glyph-name="greaterequal" unicode="&#x2265;" 
 />
    <glyph glyph-name="partialdiff" unicode="&#x2202;" horiz-adv-x="207" 
d="M205 417v45l-82 -64l1 238l-72 1l4 -80v-207l-52 -35v-40l52 35v-97l68 -42l-1 188zM224 499v-92l-76 -55v-279q1 -40 6 -74h-124q5 27 4 76v195l-48 -34v92l48 34v195l-5 98h119v-211z" />
    <glyph glyph-name="summation" unicode="&#x2211;" horiz-adv-x="485" 
d="M437 138q-4 -127 -202 -209q-83 -34 -198 -57l-57 171q19 -8 66 -9q76 -3 142 19q91 31 93 94q2 58 -75 96q-136 68 -142 73q-75 57 -72 162q3 88 64 143q45 40 139 72q77 25 154 51q7 -15 35 -82q28 -71 27 -75q-72 6 -153 -14q-112 -28 -115 -92q-2 -56 76 -97
q135 -72 145 -79q77 -61 73 -167zM413 148q2 90 -78 145q-74 38 -147 77q-79 45 -76 112q3 58 68 91q46 23 120 33l72 6q-14 37 -42 95l-18 -7q-58 -18 -115 -37q-77 -28 -118 -64q-55 -49 -57 -122q-3 -79 39 -122q25 -26 98.5 -57t105.5 -59q26 -22 34 -58q2 -2 109 -58
q3 11 5 25zM211 820l130 41q5 -22 11 -41q-46 -31 -141 -90l-5 3l-15 9q-7 4 -118 76v6l-1 7q0 8 4 15l9 14zM95 834l-1 -1v-2l117 -76q16 10 115 74l-1 4l-114 -36z" />
    <glyph glyph-name="product" unicode="&#x220f;" horiz-adv-x="368" 
d="M306 457q-1 -5 -48 -117q-54 36 -116 36q-15 0 -26 -9.5t-11 -23.5q0 -32 50 -57q81 -42 93 -51q49 -40 49 -105q0 -76 -76 -136q-43 -35 -143 -81q-9 -4 -32 -13l-75 82q212 97 212 152q0 31 -48 55q-82 40 -90 46q-48 35 -48 94q0 71 56 106q48 29 121 28q27 -3 95 -10
q15 -2 37 4zM275 435q-20 -2 -63.5 4t-62.5 4q-56 -8 -83 -23q-40 -24 -48 -75q-1 -9 -1 -18q0 -47 44 -77q8 -6 108 -56q7 -7 20 -18q53 -29 84 -29q4 0 4 2q-4 41 -54 75q-46 27 -92 53q-49 30 -49 60q0 23 17.5 39.5t41.5 18.5q57 4 106 -26q6 9 16.5 32.5t11.5 33.5z
M171 570l130 41q5 -22 11 -41q-46 -31 -141 -90l-5 3l-15 9q-7 4 -118 76v6l-1 7q0 8 4 15l9 14zM55 584l-1 -1v-2l117 -76q16 10 115 74l-1 4l-114 -36z" />
    <glyph glyph-name="pi" unicode="&#x3c0;" horiz-adv-x="501" 
d="M446 640l-167 -423v-278l-135 -54l-1 335l-158 436h132l92 -248l117 285zM411 626l-69 33l-133 -313l-108 283h-76l142 -389l89 -62v59zM94 687l-21 43l220 118l47 -105zM108 716l197 44l-24 54l-175 -94z" />
    <glyph glyph-name="integral" unicode="&#x222b;" horiz-adv-x="434" 
d="M361 -5q-1 -41 -19 -81q-20 -43 -52 -64q-45 -31 -116 -31q-15 0 -68 3q-27 2 -68 -13q-26 98 -26 102q22 13 83 13l76 -1q72 -1 72 78h-84q-43 -1 -73 16q-48 25 -61 67q-9 26 -9 92q0 13 -1 92q0 56 1 91q1 45 -9 71q-1 4 -9 17l106 45q5 -8 10 -21q12 -43 12 -153
v-166q1 -43 25 -51q13 -5 90 -5v358q0 -2 118 0zM339 435h-78v-237l79 -44zM100 438l-7 24q-28 -9 -64 -22q-2 -1 -2 -3q0 -3 3.5 -9.5t3.5 -9.5q0 -12 3 -32t3 -33v-166l64 -35v33v206q0 16 -4 47zM89 513l-21 41l218 117l45 -103zM101 538l199 46l-25 56l-178 -95z" />
    <glyph glyph-name="Omega" unicode="&#x3a9;" horiz-adv-x="566" 
d="M515 142q-15 -70 -80 -112q-60 -38 -135 -38q-216 0 -256 259h-62v64h54v36h-54v64l56 1q11 106 80 176q73 74 183 74q152 0 194 -96l-129 -105q-34 60 -68 60q-38 0 -64.5 -31.5t-35.5 -79.5h155l1 -64l-164 1q1 -13 0 -37h164v-63h-165q11 -130 104 -130
q34 0 59.5 23.5t31.5 58.5zM460 573q-10 36 -70 54q-43 14 -90 14q-98 0 -165 -73q-64 -69 -75 -172q4 0 -58 0l-1 -24h60v-79q-20 1 -59 2v-24h61q0 -21 8 -39q55 -26 109 -53q-17 62 -16 92h170v24h-84h-84q0 32 1 76h167l-1 24h-164q4 64 39 107q37 48 92 47
q47 -1 75 -43z" />
    <glyph glyph-name="Omega" unicode="&#x2126;" horiz-adv-x="566" 
d="M515 142q-15 -70 -80 -112q-60 -38 -135 -38q-216 0 -256 259h-62v64h54v36h-54v64l56 1q11 106 80 176q73 74 183 74q152 0 194 -96l-129 -105q-34 60 -68 60q-38 0 -64.5 -31.5t-35.5 -79.5h155l1 -64l-164 1q1 -13 0 -37h164v-63h-165q11 -130 104 -130
q34 0 59.5 23.5t31.5 58.5zM460 573q-10 36 -70 54q-43 14 -90 14q-98 0 -165 -73q-64 -69 -75 -172q4 0 -58 0l-1 -24h60v-79q-20 1 -59 2v-24h61q0 -21 8 -39q55 -26 109 -53q-17 62 -16 92h170v24h-84h-84q0 32 1 76h167l-1 24h-164q4 64 39 107q37 48 92 47
q47 -1 75 -43z" />
    <glyph glyph-name="radical" unicode="&#x221a;" horiz-adv-x="14" 
 />
    <glyph glyph-name="approxequal" unicode="&#x2248;" horiz-adv-x="11" 
 />
    <glyph glyph-name="approxequal" unicode="&#x22f2;" horiz-adv-x="11" 
 />
    <glyph glyph-name="Delta" unicode="&#x394;" horiz-adv-x="14" 
 />
    <glyph glyph-name="Delta" unicode="&#x2206;" horiz-adv-x="14" 
 />
    <glyph glyph-name="lozenge" unicode="&#x25ca;" horiz-adv-x="14" 
 />
    <glyph glyph-name="fraction" unicode="&#x2044;" 
 />
    <glyph glyph-name="uniF001" unicode="&#xf001;" 
 />
    <glyph glyph-name="uniF002" unicode="&#xf002;" 
 />
    <glyph glyph-name="uniF000" unicode="&#xf000;" horiz-adv-x="14" 
 />
    <glyph glyph-name="dotlessi" unicode="&#x131;" horiz-adv-x="200" 
d="M135 1h-126l7 57l-3 396l113 1v-397zM101 433l-61 2v-192l61 -70v260z" />
    <glyph glyph-name="breve" unicode="&#x2d8;" horiz-adv-x="297" 
d="M131 697q-50 0 -89 22q-47 27 -47 73q0 36 36 36t36 -36q10 -23 64 -23q53 0 63 23q0 36 36 36t36 -36q0 -46 -47 -73q-39 -22 -88 -22zM131 719q44 0 78.5 20t34.5 53q0 14 -14 14t-14 -15t-23 -29.5t-62 -14.5q-27 0 -52 10q-34 13 -34 35q0 14 -14 14t-14 -14
q0 -33 36 -54q33 -19 78 -19z" />
    <glyph glyph-name="dotaccent" unicode="&#x2d9;" horiz-adv-x="158" 
d="M70 820q25 0 42.5 -17t17.5 -41q0 -25 -17.5 -42t-42.5 -17q-24 0 -42 17t-18 42q0 24 18 41t42 17z" />
    <glyph glyph-name="ring" unicode="&#x2da;" horiz-adv-x="187" 
d="M90 824q27 0 45.5 -18t18.5 -44t-18.5 -44.5t-45.5 -18.5q-26 0 -45 18.5t-19 44.5t19 44t45 18zM90 794q-14 0 -24 -9.5t-10 -22.5q0 -14 10 -23.5t24 -9.5q15 0 24.5 9.5t9.5 23.5q0 13 -9.5 22.5t-24.5 9.5z" />
    <glyph glyph-name="hungarumlaut" unicode="&#x2dd;" horiz-adv-x="298" 
d="M194 806q5 12 19 12q12 0 22.5 -9t10.5 -20q0 -6 -4 -12q-17 -25 -33 -50q-23 -31 -37 -31q-10 0 -16 9t-2 18zM208 799l-39 -83q-1 -1 -1 -2l5 -2h1l55 74q3 5 -3.5 10.5t-12.5 5.5q-4 0 -5 -3zM104 806q5 12 19 12q12 0 22.5 -9t10.5 -20q0 -6 -4 -12q-17 -25 -33 -50
q-23 -31 -37 -31q-10 0 -16 9t-2 18zM118 799l-39 -83q-1 -1 -1 -2l5 -2h1l55 74q3 5 -3.5 10.5t-12.5 5.5q-4 0 -5 -3z" />
    <glyph glyph-name="ogonek" unicode="&#x2db;" horiz-adv-x="283" 
d="M234 -149q-47 -46 -77 -46q-42 0 -77.5 31t-35.5 72q0 43 35.5 80.5t75.5 37.5q20 0 20 -20t-20 -20q-15 0 -26 -17q-14 -21 -14 -57q0 -57 47 -57q18 0 43 25q3 2 17 -12t12 -17z" />
    <glyph glyph-name="caron" unicode="&#x2c7;" horiz-adv-x="470" 
d="M211 770l130 41q5 -22 11 -41q-46 -31 -141 -90l-5 3l-15 9q-7 4 -118 76v6l-1 7q0 8 4 15l9 14zM95 784l-1 -1v-2l117 -76q16 10 115 74l-1 4l-114 -36z" />
    </font>
</defs>
</svg>
