<?xml version="1.0" standalone="no"?>
<!DOCTYPE svg PUBLIC "-//W3C//DTD SVG 1.1//EN" "http://www.w3.org/Graphics/SVG/1.1/DTD/svg11.dtd" >
<svg>
<metadata>
Created by FontForge 20120731 at Wed Apr 17 20:01:52 2019
 By www-data
Digitized by Dan X. Solo. Software (c) 2000 by Dover Publications, Inc., New York. 
</metadata>
<defs>
<font id="Balderdash" horiz-adv-x="20" >
  <font-face 
    font-family="Balderdash"
    font-weight="400"
    font-stretch="normal"
    units-per-em="1000"
    panose-1="0 0 4 0 0 0 0 0 0 0"
    ascent="800"
    descent="-200"
    x-height="485"
    cap-height="667"
    bbox="-54 -215 885 847"
    underline-thickness="20"
    underline-position="-123"
    unicode-range="U+0020-F002"
  />
<missing-glyph horiz-adv-x="500" 
d="M63 0v800h375v-800h-375zM125 63h250v675h-250v-675z" />
    <glyph glyph-name=".notdef" horiz-adv-x="500" 
d="M63 0v800h375v-800h-375zM125 63h250v675h-250v-675z" />
    <glyph glyph-name="glyph1" horiz-adv-x="0" 
 />
    <glyph glyph-name="glyph2" horiz-adv-x="175" 
 />
    <glyph glyph-name="space" unicode=" " horiz-adv-x="175" 
 />
    <glyph glyph-name="exclam" unicode="!" horiz-adv-x="312" 
d="M290 635q-49 -81 -89 -265q-29 -135 -29 -151l-21 -16q-7 2 -23 16q-9 78 -25 148q-39 168 -103 272q23 0 36 -6q4 -2 32 -20q19 35 30 45q18 16 51 16q31 0 50 -18q13 -12 28 -44q9 6 18 11q21 11 45 12zM220 12q-9 1 -24 12q-21 -25 -48 -25q-15 0 -25 12q-6 8 -13 15
q-16 -14 -30 -14q16 34 16 69q0 18 -6 34.5t-11 31.5q19 -2 29 -14q23 29 43 29q15 0 27 -14l12 -14l9 8q7 5 20 5q-2 -7 -12 -65q-1 -8 -1 -16q0 -18 7 -36.5t7 -17.5z" />
    <glyph glyph-name="quotedbl" unicode="&#x22;" horiz-adv-x="279" 
d="M253 647q-20 -41 -36 -133q-11 -67 -11 -75l-9 -8q-3 0 -9 8q-10 51 -18 91q-21 95 -33 118q11 0 27 -12q13 30 33 30q19 0 31 -31q5 5 25 12zM123 647q-20 -41 -36 -133q-11 -67 -11 -75l-9 -8q-3 0 -9 8q-10 51 -18 91q-21 95 -33 118q11 0 27 -12q13 30 33 30
q19 0 31 -31q5 5 25 12z" />
    <glyph glyph-name="numbersign" unicode="#" horiz-adv-x="409" 
d="M242 451h-77l-25 -200h77zM45 531h87l18 139h43l-18 -139h77l18 139h43l-18 -139h89l-10 -80h-89l-25 -200h90l-10 -80h-90l-22 -170h-43l22 170h-77l-22 -170h-43l22 170h-86l10 80h86l25 200h-86z" />
    <glyph glyph-name="dollar" unicode="$" horiz-adv-x="374" 
d="M146 666h52v-70q110 -12 117 -117q8 -30 28 -55h-6q-4 0 -13.5 4.5t-13.5 5.5q-12 -26 -33 -26q-12 0 -19 8t-13 16q-9 -3 -27 -7q11 16 11 31q0 20 -17 32.5t-39 12.5q-40 0 -40 -37q0 -40 49 -69q42 -26 85 -26q-1 -4 -14 -11q86 -72 86 -140q0 -59 -42 -96
q-38 -34 -99 -41v-78h-52v80q-50 8 -86.5 38t-34.5 58q2 48 -21 84l7 1q4 0 13 -11q23 32 42 32q21 0 37 -31q17 11 21 11l3 -1q-12 -24 -12 -40q0 -44 54 -44q20 0 35.5 13.5t15.5 33.5q0 34 -49 67q-45 30 -87 30q-8 0 -15 -2l17 12q-46 48 -52 57q-23 35 -21 85t43 84
q38 32 90 37v69z" />
    <glyph glyph-name="percent" unicode="%" horiz-adv-x="648" 
d="M584 73q16 -17 26 -17q-3 22 -5 44q-7 53 -8 83q-1 23 3 65q5 49 12 59q-14 1 -19 -3.5t-11 -9.5q-8 19 -17 38q-26 37 -79 37t-80 -37l-18 -38q-6 5 -11.5 9.5t-18.5 5.5q14 -19 16 -126q0 -23 -7 -78q-3 -25 -6 -49q9 0 26 17q16 -39 35 -56q23 -20 62 -20q41 0 64 20
q20 17 36 56zM510 227v-79q0 -73 -22 -73q-27 0 -27 73v79q0 63 23 63q26 0 26 -63zM234 373q16 -17 26 -17q-3 22 -5 44q-7 53 -8 83q-1 23 3 65q5 49 12 59q-14 1 -19 -3.5t-11 -9.5q-8 19 -17 38q-26 37 -79 37t-80 -37l-18 -38q-6 5 -11.5 9.5t-18.5 5.5q14 -19 16 -126
q0 -23 -7 -78q-3 -25 -6 -49q9 0 26 17q16 -39 35 -56q23 -20 62 -20q41 0 64 20q20 17 36 56zM160 527v-79q0 -73 -22 -73q-27 0 -27 73v79q0 63 23 63q26 0 26 -63zM472 670h57l-380 -669h-57z" />
    <glyph glyph-name="ampersand" unicode="&#x26;" horiz-adv-x="665" 
d="M629 86q0 -19 -13 -32t-32 -14l-4 -3q18 -25 18 -36q-1 -1 -4 0q-33 15 -54 15q-13 0 -39 -8.5t-39 -8.5q-55 0 -93 47q-37 -35 -90 -46q-34 -7 -102 -7l-2 -3q-75 0 -126 63q-48 59 -48 135q0 129 177 220q1 2 -6 13q-32 52 -32 123q0 66 62 102q52 30 121 30
q67 0 114 -43.5t47 -109.5q0 -85 -104 -160q17 -33 44 -81h3q22 35 42 125q14 -10 20 -29l6 -19q13 4 24 4q48 0 48 -50q0 -20 -11 -41q34 -4 34 -28q-52 7 -107 -72q35 -24 48 -24q15 0 33 14q15 12 29 24l2 -3q0 -15 -13 -45q47 -18 47 -52zM351 511q0 18 -18 18
q-19 0 -19 -25q0 -14 11 -26q8 2 17 13.5t9 19.5zM304 162q-30 56 -68 128l-3 1q-19 -7 -33 -32.5t-14 -46.5q0 -26 14 -48q16 -25 41 -25q3 0 8 1.5t8 1.5q2 0 2 -1.5t2 -1.5q8 0 25.5 8t17.5 15z" />
    <glyph glyph-name="quotesingle" unicode="'" horiz-adv-x="156" 
d="M123 647q-20 -41 -36 -133q-11 -67 -11 -75l-9 -8q-3 0 -9 8q-10 51 -18 91q-21 95 -33 118q11 0 27 -12q13 30 33 30q19 0 31 -31q5 5 25 12z" />
    <glyph glyph-name="parenleft" unicode="(" horiz-adv-x="233" 
d="M121 664h55q-81 -190 -81 -332q0 -146 81 -328h-55q-112 146 -112 334q0 184 112 326z" />
    <glyph glyph-name="parenright" unicode=")" horiz-adv-x="233" 
d="M56 4h-55q82 190 82 331q0 146 -82 329h55q113 -147 113 -335q0 -184 -113 -325z" />
    <glyph glyph-name="asterisk" unicode="*" horiz-adv-x="345" 
d="M190 657q-16 -34 -29 -129q66 50 96 95q3 -7 1 -21q23 3 30 -9q7 -11 -8 -30q5 -1 16 -11q-40 -3 -127 -38q76 -33 131 -36q-4 -7 -18 -12q14 -19 7 -30q-6 -12 -29 -8q1 -5 -2 -20q-23 33 -97 92q10 -83 34 -132q-7 0 -18 9q-10 -21 -23 -21q-14 0 -22 21q-3 -3 -18 -8
q18 37 31 130q-67 -50 -97 -95q-4 6 -2 20q-22 -2 -29 9q-7 12 8 30q-5 1 -16 11q38 3 126 39q-76 32 -130 36q4 6 17 12q-13 18 -7 30q7 11 30 8q-1 5 2 19v0q22 -31 97 -90q-11 82 -35 130q8 0 19 -8q10 21 23 21q14 0 22 -22q3 4 17 8z" />
    <glyph glyph-name="plus" unicode="+" horiz-adv-x="498" 
d="M272 548l2 1q9 6 29 8q-29 -60 -39 -190q116 7 189 43q0 -21 -7 -30l-3 -3q28 -12 28 -34q0 -23 -29 -34q-2 4 -3 5l1 -2q10 -12 12 -34q-60 29 -189 39q7 -116 43 -189q-21 0 -31 8l-3 2q-12 -27 -34 -27t-33 27l-3 -1q-8 -6 -28 -8q28 60 38 190q-116 -7 -189 -43
q0 21 8 30l2 3q-27 12 -27 34q0 23 28 34l-2 2q-6 9 -8 29q60 -29 190 -39q-7 116 -43 189q21 0 30 -7l3 -3q12 27 34 27q23 0 34 -27z" />
    <glyph glyph-name="comma" unicode="," horiz-adv-x="225" 
d="M189 165q-22 -50 -22 -84q0 -8 13 -70q-18 -9 -55 -28q-32 -18 -71 -68q-16 9 -34 28q19 14 65 77q-21 2 -42 -9t-31 -12q18 40 18 45q0 77 -23 121q25 0 40 -16q1 0 16 17.5t34 17.5q22 0 37 -16q7 -9 14 -17q16 10 18 10.5t23 3.5z" />
    <glyph glyph-name="hyphen" unicode="-" horiz-adv-x="274" 
d="M202 346q3 -10 3 -16q0 -5 -4 -11q-5 -9 -8 -16q12 -7 25 -16t13 -24q0 -39 -34 -46q6 -9 12 -17q2 -4 -3 -27q-31 14 -80 14q-64 0 -95 -14q-5 23 -3 27q6 8 12 17q-34 7 -34 46q0 15 13 24t25 16q-3 7 -9 16q-4 6 -4 11q0 6 4 16q33 -20 81 -20q52 0 86 20z" />
    <glyph glyph-name="hyphen" unicode="&#x2010;" horiz-adv-x="274" 
d="M202 346q3 -10 3 -16q0 -5 -4 -11q-5 -9 -8 -16q12 -7 25 -16t13 -24q0 -39 -34 -46q6 -9 12 -17q2 -4 -3 -27q-31 14 -80 14q-64 0 -95 -14q-5 23 -3 27q6 8 12 17q-34 7 -34 46q0 15 13 24t25 16q-3 7 -9 16q-4 6 -4 11q0 6 4 16q33 -20 81 -20q52 0 86 20z" />
    <glyph glyph-name="period" unicode="." horiz-adv-x="202" 
d="M168 16q-11 1 -28 14q-26 -29 -62 -29q-18 0 -30 14l-16 18q-19 -17 -36 -17q13 30 16 41.5t3 42.5q0 21 -7 40.5t-13 37.5q23 -2 35 -17q28 35 51 35q19 0 35 -16q8 -9 16 -17q1 0 12 9q7 7 23 7q-13 -46 -13 -83q0 -17 7 -47.5t7 -32.5z" />
    <glyph glyph-name="slash" unicode="/" horiz-adv-x="261" 
d="M172 670h64l-170 -669h-64z" />
    <glyph glyph-name="zero" unicode="0" horiz-adv-x="488" 
d="M459 559q-14 -18 -22 -109q-7 -75 -6 -118q2 -54 14 -150q5 -40 9 -80q-17 0 -47 31q-29 -71 -64 -101q-43 -37 -116 -37t-115 37q-34 30 -63 101q-30 -31 -47 -31q5 44 11 88q13 100 12 142q-3 196 -27 229q23 -2 33 -10t21 -16l14 36q19 41 50 66q45 34 114 34
q68 0 112 -34q31 -25 49 -66l14 -36q9 9 18.5 16.5t35.5 7.5zM281 340q0 187 -55 187q-49 0 -49 -187q0 -205 56 -205q48 0 48 205z" />
    <glyph glyph-name="one" unicode="1" horiz-adv-x="387" 
d="M343 32q-28 5 -32.5 7t-25.5 16q-11 -17 -22 -35q-19 -26 -53 -26q-33 0 -52 17q-12 10 -30 44q-23 -15 -60 -19q10 19 26 55q17 45 24 108l8 110q0 7 1 34t1 43q0 101 -48 101q-20 0 -27 -6q-18 -15 -29 -21q15 48 15 81q0 30 -1 36q-7 17 -13 33l85 1q5 0 15 17
q14 22 26 32q21 17 50 16q39 -2 54 -17q12 -11 27 -53q26 -1 47 15q-17 -50 -30 -145q-11 -87 -11 -148q0 -101 55 -296z" />
    <glyph glyph-name="two" unicode="2" horiz-adv-x="488" 
d="M338 307q-42 -35 -82.5 -70t-66.5 -97h129q62 1 125 35q-3 -8 -23 -37q37 -26 37 -53q0 -21 -45 -58l34 -40q-8 -2 -33 11q-29 15 -54 18q-9 1 -31 -8.5t-31 -7.5q-7 -2 -15 -2q-28 0 -54 16q-46 -11 -82 -11q-3 0 -28 7t-39 7q-20 0 -75 -14l-1 -6q0 8 14 27t22 25
q-32 34 -32 52q0 63 58 122l128 114q72 74 72 140q0 57 -37 57q-57 0 -57 -50q0 -20 9 -34t19 -29v-5q-29 6 -48 17l-3 -1q-18 -28 -46 -28q-31 0 -48 31q-18 -21 -34 -21q-5 0 -5 5l1 4q18 19 23 50q3 27 6 55q10 80 62 114q45 28 135 31q54 2 107 -30q69 -40 75 -111
q35 19 50 19l-19 -30q-10 -18 -19 -37q-10 -23 -12 -42q-12 -26 -25 -50q-31 -55 -61 -85z" />
    <glyph glyph-name="three" unicode="3" horiz-adv-x="492" 
d="M214 -9q-83 0 -130 39q-35 29 -48 76q-4 24 -8 49q1 40 -32 86q19 3 25 -1l18 -16q24 26 53 24q21 -2 30 -11q0 -1 14 -22q7 5 16 16q4 6 14 6q6 0 16 -1q-21 -23 -21 -62q0 -40 50 -40q37 0 49 31q7 18 7 65q0 15 -9 35t-22 20q-12 0 -18 -9t-11 -18v7q0 1 -2.5 5
t-2.5 20q-35 19 -35 49q0 24 13 32t27 17l-1 32q9 -13 32 -28l16 8q10 15 10 58q0 76 -44 72q-42 -3 -42 -45q0 -13 4 -33l6 -18q-23 0 -31.5 8t-16.5 16l-3 -2q-17 -28 -35 -28q-32 0 -49 31q-18 -20 -33 -20q-18 0 -18 1t11.5 13.5l11.5 12.5q8 15 8 36q0 35 1 37
q10 134 186 134q67 0 121.5 -40t74.5 -101q35 19 51 19l-13 -15q-23 -36 -30 -113q-3 -37 -10 -51q-11 -21 -46 -45q50 -43 59 -91q2 -23 3 -46q4 -28 17 -50l17 -30q-15 0 -51 19q-23 -86 -71 -115q-38 -23 -128 -23z" />
    <glyph glyph-name="four" unicode="4" horiz-adv-x="522" 
d="M499 251q0 -15 -11.5 -29t-24.5 -18q15 -18 16 -20t8 -19l-3 -1q-24 13 -75 20l-2 -21q4 -81 36 -137q-15 1 -31 2t-24 13q-24 -32 -30 -36q-13 -8 -49 -8t-52 15q-9 9 -18 35q-27 -20 -49 -20l-2 3q15 26 26.5 71.5t11.5 75.5l-1 5h-26q-29 0 -87.5 -13t-84.5 -13l-1 3
l21 39l-2 3q-50 13 -50 63q0 34 36 60q71 52 114 137q30 60 59 170l26 -25q19 35 34 48q23 18 63 16q34 -1 50 -18q8 -8 25 -43q23 29 50 29q-44 -116 -48 -242q-2 -61 5 -91q39 9 75 29q-1 -17 -2 -19.5t-12 -22.5q29 -28 29 -41zM242 315l3 49q0 4 -1.5 22.5t-1.5 36.5
l-10 -1q-17 -20 -35 -50q-24 -39 -24 -60q0 -5 2 -9q14 -5 19.5 -6t14.5 -1q11 1 21.5 1t11.5 18z" />
    <glyph glyph-name="five" unicode="5" horiz-adv-x="486" 
d="M449 123l-26 5l-16 8q-12 -65 -63.5 -101.5t-119.5 -36.5q-71 0 -128 41q-63 45 -63 114q0 39 -9 59q-14 23 -27 47q16 2 24.5 -5.5t16.5 -13.5q26 31 56 28q23 -2 28.5 -5.5t17.5 -23.5q6 9 13 18t25 11q-7 -16 -13.5 -29.5t-6.5 -36.5q0 -58 50 -58q20 0 34.5 22
t13.5 42q0 5 1 25t1 32q0 98 -51 102q-22 2 -32 -16l-12 -32l-20 25q-4 -18 -18.5 -31t-32.5 -13q-25 0 -40 23q-12 19 -8 27q-31 -9 -38 -9q27 32 35 106q2 28 2 116q0 44 -12 77l3 1q22 -2 26 -9t17 -11q18 27 26 34q15 12 43 12q45 0 73 -28q34 34 68 34q12 0 32.5 -10.5
t33.5 -10.5q17 0 57 19l1 -3q-2 -20 -3 -22t-12 -12q44 -12 44 -53q0 -37 -46 -52q1 -2 12 -15q5 -5 5 -21q-34 28 -58 34q-15 3 -62 3q-110 0 -110 -70v-29q33 45 95 45q45 0 73 -22q22 -16 48 -59l20 13q12 8 23 3q-8 -21 -17 -42q-15 -48 -12 -92q2 -33 4 -67
q4 -20 34 -87z" />
    <glyph glyph-name="six" unicode="6" horiz-adv-x="509" 
d="M479 104q-18 8 -52 28q-30 -139 -189 -139q-89 0 -138 69q-16 22 -29 58l-4 3q-47 -31 -59 -31l-1 3q32 105 32 163q0 113 -2 148q-7 92 -31 142h12q17 -3 42 -25q38 88 65 114q38 36 120 36q98 1 142.5 -40.5t52.5 -141.5q1 -10 13 -18q17 -13 19 -15v-4l-11 1
q-11 -1 -21 -1q-2 0 -21 10q-18 -32 -49 -32q-22 0 -45 33q-43 -18 -46 -17q4 8 9 17.5t4 27.5q-6 27 -38 27q-55 0 -53 -81l2 -62l2 -1q40 36 101 36q35 0 65 -19t43 -51q8 7 27.5 16.5t26.5 8.5q-13 -56 -13 -58q-6 -30 -6 -60q0 -48 15 -101q7 -22 15 -44zM299 213
q0 76 -48 76q-47 0 -47 -63q0 -92 47 -92q31 0 42 25q6 16 6 54z" />
    <glyph glyph-name="seven" unicode="7" horiz-adv-x="470" 
d="M448 612q-125 -166 -125 -449q0 -75 32 -123l-34 -3q-13 5 -19 12t-15 13q-12 -66 -82 -66q-72 0 -94 66q-10 -9 -36.5 -17t-38.5 -6v4q66 70 104 175q2 4 51 173q26 93 64 133v3l-6 2q-41 0 -82 -1q-60 -2 -84 -13q-8 -3 -61 -37l-2 4l12 26l11 17q-49 21 -49 61
q0 20 24 39q19 -2 26 10q-16 12 -28 36l2 5q29 -20 50 -20q16 0 48.5 8.5t50.5 8.5q56 0 93 -32q22 33 68 33q66 0 75 -55q25 14 50 18z" />
    <glyph glyph-name="eight" unicode="8" horiz-adv-x="492" 
d="M476 126q-5 3 -2 3q-6 -1 -11 -1q-10 0 -35 21l-3 -4q0 -73 -60 -111q-50 -32 -124 -32q-76 0 -130 32q-66 38 -67 111l-2 4q-26 -21 -36 -21q-5 0 -10 1q-1 1 -2 -1l-1 -2q0 2 16 28t16 50q0 50 4 71q11 49 49 75l4 4q-29 23 -39 49q-6 16 -8 50q-2 38 -9 61
q-1 5 -13.5 29.5t-12.5 26.5v7q11 -1 31.5 -12.5t21.5 -11.5q15 54 69 91t113 37q60 0 113 -37t69 -91q1 0 21 11.5t31 12.5v-7q0 -2 -12.5 -26.5t-13.5 -29.5q-6 -23 -9 -61q-2 -34 -8 -50q-9 -26 -38 -49l3 -4q38 -26 49 -75q5 -21 5 -71q0 -24 15.5 -50t15.5 -28z
M286 475q0 33 -15.5 56t-38.5 23q-22 0 -37.5 -23t-15.5 -56t15.5 -56t37.5 -23q23 0 38.5 23t15.5 56zM286 215q0 33 -15.5 56t-38.5 23q-22 0 -37.5 -23t-15.5 -56t15.5 -56t37.5 -23q23 0 38.5 23t15.5 56z" />
    <glyph glyph-name="nine" unicode="9" horiz-adv-x="502" 
d="M6 562q18 -8 52 -29q29 140 188 140q90 0 138 -69q16 -22 30 -59l3 -2q47 30 59 30l1 -3q-32 -105 -32 -163q0 -112 3 -147q6 -92 31 -142h-12q-17 3 -42 25q-39 -88 -66 -114q-38 -36 -119 -36q-99 -1 -143.5 40.5t-52.5 141.5q-1 9 -12 18q-17 12 -19 15v3h11
q10 0 21 1q2 0 20 -11q19 33 49 33q23 0 46 -33q43 18 46 17l-10 -18t-3 -27q6 -27 37 -27q56 0 53 81l-2 62h-2q-39 -36 -101 -36q-34 0 -64 19.5t-43 50.5q-8 -6 -28 -15.5t-26 -8.5q12 55 13 58q5 29 5 60q0 48 -14 100q-8 23 -15 45zM185 453q0 -76 49 -76q47 0 47 62
q0 93 -47 93q-32 0 -42 -26q-7 -15 -7 -53z" />
    <glyph glyph-name="colon" unicode=":" horiz-adv-x="202" 
d="M164 310q-11 1 -28 14q-16 -18 -24 -22q-11 -7 -34 -7q-18 0 -30 14l-16 18q-19 -17 -36 -17q13 30 16 41.5t3 42.5q0 21 -7 40.5t-13 37.5q23 -2 35 -17q28 35 51 35q18 0 33 -16q7 -9 14 -17q1 0 12 9q7 7 23 7q-11 -40 -13 -83q-1 -22 6.5 -51.5t7.5 -28.5zM168 16
q-11 1 -28 14q-26 -29 -62 -29q-18 0 -30 14l-16 18q-19 -17 -36 -17q13 30 16 41.5t3 42.5q0 21 -7 40.5t-13 37.5q23 -2 35 -17q28 35 51 35q19 0 35 -16q8 -9 16 -17q1 0 12 9q7 7 23 7q-13 -46 -13 -83q0 -17 7 -47.5t7 -32.5z" />
    <glyph glyph-name="semicolon" unicode=";" horiz-adv-x="223" 
d="M174 308q-10 0 -28 14q-16 -19 -23 -23q-12 -7 -35 -7q-18 0 -31 15q-7 9 -15 18q-19 -18 -37 -17q14 29 16.5 41t2.5 43q0 21 -7 42q-7 18 -13 37q23 -2 36 -17q28 35 51 35q19 0 33 -16q7 -9 15 -18l11 10q7 6 24 6q-3 -9 -15 -78q-1 -10 -1 -20q0 -21 8 -43.5t8 -21.5
zM189 165q-22 -50 -22 -84q0 -8 13 -70q-18 -9 -55 -28q-32 -18 -71 -68q-16 9 -34 28q19 14 65 77q-21 2 -42 -9t-31 -12q18 40 18 45q0 77 -23 121q25 0 40 -16q1 0 16 17.5t34 17.5q22 0 37 -16q7 -9 14 -17q16 10 18 10.5t23 3.5z" />
    <glyph glyph-name="less" unicode="&#x3c;" horiz-adv-x="285" 
d="M228 552l30 -31l-196 -193l192 -193l-30 -30l-223 222z" />
    <glyph glyph-name="equal" unicode="=" horiz-adv-x="472" 
d="M14 241h383v-72h-383v72zM14 381h383v-72h-383v72z" />
    <glyph glyph-name="greater" unicode="&#x3e;" horiz-adv-x="285" 
d="M32 105l-31 30l197 194l-192 192l30 31l222 -222z" />
    <glyph glyph-name="question" unicode="?" horiz-adv-x="439" 
d="M125 201q-10 16 -10 40q0 54 59 111q73 75 73 133t-46 58q-54 0 -54 -57q0 -20 9 -34.5t18 -28.5q-24 1 -27 2q-8 6 -16 11q-8 -7 -16 -15q-13 -11 -33 -11q-36 0 -49 23q-6 -8 -43 -17q19 19 26 50q3 11 9 57q10 82 56 119q43 34 128 36q66 2 117 -30q60 -37 68 -105
q29 16 43 16q-40 -50 -44 -77t-9 -53q-15 -45 -74 -88q-67 -49 -67 -114q0 -14 4 -24l-32 14q-8 -21 -33 -21q-21 0 -30 21zM263 5q-9 0 -25 12q-17 -19 -49 -19q-16 0 -31 9q-8 7 -17 13q-17 -16 -32 -16q16 38 16 75q0 19 -6 37t-12 34q21 -2 32 -15q25 31 46 31
q17 0 31 -14q8 -8 15 -16l10 9q7 6 21 6q-11 -42 -11 -75q0 -15 6 -42.5t6 -28.5z" />
    <glyph glyph-name="at" unicode="@" horiz-adv-x="762" 
d="M699 379q0 -110 -56.5 -179.5t-138.5 -69.5q-92 0 -99 75q-54 -65 -129 -65q-42 0 -71 31q-32 34 -32 94q0 110 59 184q65 82 176 82q60 0 116 -30q-11 -36 -54 -232q-6 -26 -6 -43q0 -39 43 -39q47 0 82 56t35 136q0 102 -73 172q-76 71 -193 71q-122 0 -203 -93
q-77 -89 -77 -211q0 -112 77 -185.5t187 -73.5q65 0 124 19l16 -58q-61 -20 -140 -20q-143 0 -237 82q-102 88 -102 236q0 153 100.5 257t254.5 104q147 0 244 -82.5t97 -217.5zM438 469q-13 6 -36 6q-75 0 -118 -71q-36 -60 -36 -142q0 -60 46 -60q31 0 62 28q37 32 48 85z
" />
    <glyph glyph-name="A" unicode="A" horiz-adv-x="599" 
d="M577 35l-1 -3q-33 8 -59 26q-14 -35 -33.5 -49t-58.5 -14q-41 0 -55 15q-18 24 -35 48q-20 -18 -56 -29q14 15 22 56q7 34 7 63l-3 14h-76q-6 -17 -6 -35q0 -21 11 -50l18 -48q-35 9 -53 26q-6 0 -12 -15q-9 -20 -19 -29q-16 -15 -44 -15q-45 0 -66 56q-21 -22 -52 -23
l-2 4q59 78 111 243q51 162 51 263q0 47 -10 91q17 -3 24 -11q13 -13 18 -16q6 27 31 45.5t53 18.5q68 0 86 -57q11 12 19 14q12 4 24 7l3 -4q-11 -36 -11 -82q0 -221 174 -510zM296 246q-20 94 -31 110l-3 -2q-22 -60 -24 -108h16h42z" />
    <glyph glyph-name="B" unicode="B" horiz-adv-x="543" 
d="M514 170q0 -72 -52.5 -124t-124.5 -52q-41 0 -68 15q-21 11 -54 45q-9 -25 -31 -41.5t-47 -16.5q-63 0 -79 63q-37 -27 -54 -26h-4q54 100 54 270q0 205 -49 324q45 0 52 -24l4 1q6 28 27.5 45.5t49.5 17.5q24 0 43 -17q9 -7 31 -36q26 52 105 52q78 0 130.5 -53
t52.5 -132q0 -106 -93 -143q57 -27 82 -66t25 -102zM312 474q0 20 -9 36q-12 20 -30 20q-54 0 -54 -102q0 -25 1 -39q8 -4 15 -4q44 0 62 23q15 20 15 66zM313 204q0 82 -73 82q-14 0 -20 -5q-3 -21 -3 -39q0 -101 52 -101q44 0 44 63z" />
    <glyph glyph-name="C" unicode="C" horiz-adv-x="495" 
d="M298 464q0 -16 -22 -65l12 -1q12 0 19 6t14 13q5 -2 20 -21q12 -14 28 -14q39 0 53 33q6 -2 14 -12q3 -3 35 -5q-25 26 -32 67l-10 74q-15 66 -66 102q-48 33 -118 33q-72 0 -117 -37q-38 -31 -69 -102l-20 18q-7 6 -28 6h-6q13 -19 21 -109q6 -68 6 -118q0 -55 -15 -166
q-8 -58 -8 -64v0q19 0 48 31q28 -71 65 -102q42 -36 114 -36q75 0 126 27q64 32 77 97q2 40 5 80.5t32 73.5q-1 3 -7 3q-19 0 -40 -14q-11 28 -50 28q-20 0 -31 -13q-6 -9 -13 -17q-8 6 -50 22l-3 -1q2 -9 14 -32q10 -19 10 -36q0 -29 -17 -51q-18 -25 -47 -25q-27 0 -41 54
q-10 38 -10 78v144q0 38 11 70q15 46 45 46q22 0 36.5 -20.5t14.5 -44.5z" />
    <glyph glyph-name="D" unicode="D" horiz-adv-x="542" 
d="M520 119h-26q-11 0 -30 15q-45 -138 -156 -138q-43 0 -85 47q-7 -3 -27 -29q-14 -19 -44 -19q-43 0 -60 28q-9 19 -18 37q-12 -9 -23 -19q-9 -5 -33 -6q46 167 46 254q0 249 -58 333l29 1q6 0 17 -9q8 -7 15 -13q11 68 72 68q53 0 73 -43q34 45 97 45q61 0 99 -38
q28 -28 54 -93q10 10 20.5 19t26.5 15q-31 -111 -31 -231q0 -129 42 -224zM327 365q0 168 -48 168q-57 0 -57 -161q0 -102 4 -135q10 -101 50 -101q51 0 51 163v66z" />
    <glyph glyph-name="E" unicode="E" horiz-adv-x="528" 
d="M484 578q0 -27 -15 -36l-36 -16q10 -14 19 -42h-4q-63 38 -132 38q-50 0 -66 -27q-10 -17 -16 -74q-2 -20 1 -25q7 -5 13 -10q57 1 109 46h5v-3q0 -20 -19 -38q52 -24 52 -58q0 -24 -17 -33.5t-35 -17.5q15 -20 15 -37l-2 -1q-53 38 -115 38q-10 0 -10 -20
q0 -119 63 -119q77 0 158 45l3 -2q-5 -16 -17 -37q2 -4 24 -21q16 -13 15 -37q0 -42 -44 -51q2 -3 20 -15q15 -10 18 -24q-12 -1 -22 -1q-22 0 -41.5 6.5t-31.5 6.5q-13 0 -37 -7t-37 -7q-44 0 -84 35q-23 -34 -64 -34q-55 0 -85 69q-16 -11 -31 -22q-20 -14 -33 -14l-2 5
q41 86 54 181q10 66 10 187q0 87 -56 229l26 -2q11 -3 20 -10q14 -13 17 -15q20 59 84 59q27 0 62 -32q42 34 76 34q18 0 53.5 -8t54.5 -8q9 0 26.5 6.5t24.5 12.5h5l3 -4q-9 -26 -25 -38q32 -15 34 -17q12 -10 12 -35z" />
    <glyph glyph-name="F" unicode="F" horiz-adv-x="516" 
d="M9 37q30 -2 38 4q17 14 25 17q17 -31 28 -42q16 -16 44 -17q25 -1 43 16q8 7 30 39q15 -17 58 -21q-7 18 -20 48q-27 69 -24 180q0 21 10 21q62 0 115 -38l2 1q0 17 -15 37q18 8 35 17.5t17 33.5q0 34 -52 58q19 18 19 38v3h-5q-52 -45 -109 -46q-6 5 -13 10q-3 5 -1 25
q6 57 16 74q16 27 66 27q69 0 132 -38h4q0 7 -19 42l36 16q15 9 15 36q0 25 -12 35q-2 2 -34 17q16 12 25 38l-3 4h-5q-7 -6 -24.5 -12.5t-26.5 -6.5q-19 0 -54.5 8t-53.5 8q-34 0 -76 -34q-35 32 -62 32q-64 0 -84 -59q-15 12 -31 24q-8 5 -37 7q18 -47 36 -149t18 -154
q-6 -136 -16 -193q-10 -68 -35 -106z" />
    <glyph glyph-name="G" unicode="G" horiz-adv-x="522" 
d="M432 81q4 -8 26 -22q15 -2 29 -3q-23 43 -23 130q0 56 21 118q-4 2 -20.5 -7t-20.5 -14q-24 57 -67 57q-57 0 -67 -52q-14 8 -28 15q-9 4 -33 3q48 -68 48 -105q0 -28 -15 -47t-38 -19q-25 0 -40 47q-13 40 -13 87v144q0 111 53 116q26 -2 44.5 -21t18.5 -47
q0 -31 -16 -69q3 0 45 20l12 -18q12 -15 35 -15q21 0 31 13l14 20q26 -21 43 -21q6 0 13 2q-18 15 -27 50q-5 28 -10 57q-10 170 -206 174q-69 0 -115 -36q-32 -25 -52 -66q-8 -19 -15 -37q-10 9 -19.5 16.5t-34.5 7.5q24 -33 27 -230q1 -42 -12 -141q-6 -43 -11 -86
q17 0 48 31q55 -138 198 -138q46 -1 100.5 24t76.5 62z" />
    <glyph glyph-name="H" unicode="H" horiz-adv-x="591" 
d="M219 390h121q-11 107 -50 235q-1 3 8 3q25 0 47 -27q4 27 30 46.5t56 19.5q54 0 75 -66q1 0 16.5 10.5t38.5 11.5q-12 -35 -32 -105q-23 -99 -21 -189q4 -163 53 -298q-25 6 -31 8q-11 4 -27 16q-15 -30 -23 -39q-21 -21 -56 -19q-68 2 -81 60q-25 -25 -50 -25q-4 0 -5 1
q49 131 54 242h-121q9 -133 50 -244q-25 6 -31 8q-11 4 -27 16q-15 -30 -23 -39q-21 -21 -56 -19q-68 2 -81 60q-22 -22 -47 -22q-6 0 -7 2q33 86 43.5 146t10.5 154q0 113 -53 288q-1 3 8 3q25 0 47 -27q4 28 25.5 47t50.5 19q64 0 85 -66q1 0 16 12.5t38 13.5
q-11 -37 -31 -109q-18 -78 -20 -128z" />
    <glyph glyph-name="I" unicode="I" horiz-adv-x="300" 
d="M218 353q0 -177 53 -322q-23 5 -30 8q-13 4 -28 16q-16 -33 -29 -44q-17 -14 -50 -14q-68 0 -81 60q-22 -22 -47 -22q-4 0 -7 2q32 85 43 146.5t11 153.5q0 101 -46 264q-4 11 -7 24q0 2 8 3q25 0 47 -27q4 28 26 47t50 19q64 0 85 -66l17 10.5t38 11.5
q-53 -177 -53 -270z" />
    <glyph glyph-name="J" unicode="J" horiz-adv-x="527" 
d="M484 634q-55 -142 -54 -265l1 -11q1 -84 24 -201q6 -30 11 -47q3 -11 4 -11t1 1q-39 2 -66 33q-1 1 -3 2q-1 0 -28 -58q-36 -79 -156 -79q-103 0 -151 40q-51 43 -51 145q0 34 -5 51q-4 13 -21 47q4 1 8 1q11 0 19 -8.5t16 -16.5q22 32 48 32q35 0 50 -31q22 18 46 18
q-26 -41 -26 -53q0 -79 48 -79q47 0 60 71q5 27 5 108q0 164 -62 310h5q20 2 54 -21q9 5 16.5 22.5t15.5 23.5q15 12 45 12q54 0 83 -56l2 -1q25 14 29.5 15.5t31.5 5.5z" />
    <glyph glyph-name="K" unicode="K" horiz-adv-x="589" 
d="M138 671q34 0 52 -14q11 -8 34 -41q19 22 28 22q2 0 28 -5q-48 -108 -48 -257l3 -1q82 132 82 210q0 25 -5 57l45 -23q15 27 24 35q13 11 40 11q45 0 69 -46q16 23 51 23q9 0 13 -3q-45 -42 -89 -116q-12 -20 -70 -129q20 -90 77 -185q27 -46 114 -168q-7 2 -13 2
q-4 0 -12 -1.5t-12 -1.5q-13 0 -26 16q-15 -35 -28.5 -45t-49.5 -10q-61 0 -68 58q-30 -24 -54 -32q11 23 11 43q0 37 -17 83l-32 80l-38 -50q2 0 2 -8q0 -4 -1 -12t-1 -12q1 -27 23 -73t22 -50q-23 5 -30 9l-24 18q-13 -14 -25 -29q-28 -26 -72 -26q-47 0 -74 55
q-41 -32 -62 -32q4 5 11 17q1 2 10 30q35 112 36 212v53q0 92 -12 148q-9 45 -44 144q9 1 16 1q17 0 38 -16q9 25 30.5 42t47.5 17z" />
    <glyph glyph-name="L" unicode="L" horiz-adv-x="504" 
d="M272 640q-32 -1 -61 -22q-3 -1 -5 -1q-12 21 -23 32q-21 21 -45 21q-62 0 -80 -55l-22 18q-3 1 -32 4q57 -145 57 -249v-77q0 -166 -64 -285l1 3q14 0 33 13q15 11 31 23q28 -65 85 -65q19 0 41.5 10t32.5 24q40 -35 84 -35q12 0 36.5 7t37.5 7q12 0 36 -6.5t37 -6.5
q10 0 22 1q-3 14 -17 23q-18 11 -21 16q44 9 44 51q0 26 -15 37q-21 15 -24 21q12 20 16 37l-2 2q-81 -45 -158 -45q-80 0 -80 112q0 235 55 385z" />
    <glyph glyph-name="M" unicode="M" horiz-adv-x="741" 
d="M652 310q0 -92 57 -274q-19 2 -28 3q-18 4 -24 12q-25 -58 -67 -58q-32 0 -46 13q-10 11 -20 45q-18 -20 -50 -20q-6 0 -8 2q28 56 28 239q0 94 -15 100q-25 -25 -44 -114q-15 -74 -15 -126q0 -47 15 -99q-4 0 -7 -1.5t-4 -1.5q-4 0 -21 12q-20 -49 -61 -49
q-33 0 -42 17.5t-18 37.5q-12 -12 -18 -12h-17q11 39 11 115q0 42 -25.5 117.5t-50.5 108.5l-3 -2q-6 -50 -6 -77q0 -161 44 -262q-10 -4 -15 -4q-11 0 -32 16q-15 -34 -20 -40q-12 -12 -43 -12q-44 0 -61 52q-12 -11 -27 -11q-9 0 -21 -3q33 80 44 136.5t11 143.5
q0 101 -11 162q-10 50 -46 159q30 -8 31 -8q6 -3 27 -18q14 60 89 60q82 0 105 -62q12 11 24 22.5t31 14.5q-12 -31 -12 -65q0 -77 61 -160q59 66 59 150q0 34 -10 75q36 -1 64 -35q11 16 23 33q21 25 72 25q70 0 89 -58q22 30 59 29q-21 -80 -41 -160q-15 -72 -15 -168z
" />
    <glyph glyph-name="N" unicode="N" horiz-adv-x="583" 
d="M548 32q-6 -2 -13 -2q-18 0 -39 14q-11 -45 -66 -45q-59 0 -75 48q-19 -15 -22 -16q-15 -2 -30 -5q1 10 1 20q0 36 -12 86q-11 46 -34 101q-33 79 -59 79q-5 0 -8 -4v-43q0 -132 54 -241q-16 3 -33 7.5t-24 17.5q-12 -29 -24 -39q-15 -12 -45 -12q-24 0 -41 17t-22 41
q-25 -25 -49 -23h-6q38 119 44 141q18 73 18 148q0 137 -60 314q29 -2 38 -7l28 -22q11 19 23 38q18 26 61 26q36 0 49 -19q12 -23 25 -45q32 23 56 23v-3q0 -7 -5.5 -25t-5.5 -28q0 -56 34 -125q29 -61 72 -110q3 3 3 8q0 208 -48 283h6q17 0 46 -21q15 59 71 59
q40 0 58 -55q15 11 22 15q14 8 27 8q-35 -91 -43 -120q-16 -60 -16 -127q0 -183 44 -357z" />
    <glyph glyph-name="O" unicode="O" horiz-adv-x="481" 
d="M407 133q28 -31 47 -31q1 0 1 1q0 2 -9 67q-15 112 -15 162t7 118q8 90 21 109h-6q-21 0 -29 -6q-9 -9 -19 -18q-8 20 -19 44q-48 93 -160 93q-113 0 -158 -93l-16 -44q-10 9 -19 18t-30 8h-5q12 -18 21 -109q6 -70 6 -120t-15 -162q-8 -65 -8 -67v-1q19 0 47 31
q29 -72 64 -102q42 -36 114 -36t115 36q36 31 65 102zM273 413v-144q0 -133 -40 -133q-27 0 -40 54q-9 37 -9 79v144q0 115 42 115q47 0 47 -115z" />
    <glyph glyph-name="P" unicode="P" horiz-adv-x="500" 
d="M473 462q0 -192 -191 -192q-11 0 -33 2.5t-33 2.5q-6 0 -6 -26q0 -65 10 -110q8 -37 34 -104q-16 3 -31 6q-6 1 -23 14q-7 -14 -14 -29q-17 -25 -59 -25q-62 0 -74 56q-22 -22 -47 -22q-6 0 -7 2q31 82 42 150q11 62 11 154q0 85 -33 229q-9 38 -15 59l-7 25h1
q31 0 59 -33q8 51 64 51q47 0 60 -46q17 31 53 41q22 5 68 5q87 0 132 -64q39 -56 39 -146zM304 465q0 21 -10 36q-13 18 -32 18q-52 0 -52 -90q0 -39 3 -43q5 -8 41 -8q50 0 50 87z" />
    <glyph glyph-name="Q" unicode="Q" horiz-adv-x="543" 
d="M533 65q0 -32 -39 -42q4 -9 9 -28q-43 17 -81 17q-31 0 -94 -8.5t-94 -8.5q-72 0 -114 36q-35 30 -63 102q-30 -31 -48 -31v1q0 3 8 64q15 115 15 165q0 49 -6 119q-8 90 -21 108h6q21 0 28 -6l20 -18q7 18 17 41q50 96 165 96q125 0 163 -113q3 -12 8 -24q10 9 19 18
q8 6 29 6h6q-14 -19 -25 -118q-9 -82 -9 -128q0 -38 16 -161q3 -21 15 -21q13 0 31 15q5 -12 5 -19q0 -6 -3 -12q37 -11 37 -50zM288 355q0 173 -55 173q-49 0 -49 -167q0 -225 56 -225q48 0 48 182v37z" />
    <glyph glyph-name="R" unicode="R" horiz-adv-x="538" 
d="M541 36q-12 -4 -22 -4q-23 0 -39 18q-18 -32 -30.5 -40.5t-47.5 -8.5q-39 0 -69 52q-6 0 -18 -8t-23 -8q-6 0 -14 2q37 51 37 130q0 29 -17 61q-19 36 -45 42q-16 4 -39 4q-4 0 -4 -14q0 8 10 -94q4 -45 38 -133q-15 3 -31 6q-6 1 -23 14q-7 -14 -13 -28q-17 -26 -59 -26
q-63 0 -75 56q-22 -22 -47 -22q-4 0 -7 2q31 82 42 150q11 62 11 154q0 85 -34 235q-9 39 -15 60l-7 25v1q27 0 61 -41q8 51 64 51q47 0 60 -46q18 31 53 41q22 5 69 5q86 0 135 -63q44 -58 44 -147q0 -117 -89 -166q61 -18 85 -67q19 -39 19 -109q0 -37 20 -60t20 -24z
M315 464q0 55 -49 55q-52 0 -52 -90q0 -39 3 -43q5 -8 41 -8q57 0 57 86z" />
    <glyph glyph-name="S" unicode="S" horiz-adv-x="483" 
d="M409 450q-15 -34 -47 -34q-19 0 -27 8q-8 12 -17 23q-30 -10 -42 -10l-1 3q19 26 19 45q0 40 -53 40q-46 0 -46 -40q0 -49 61 -81q52 -28 104 -24q-2 -8 -16 -22q104 -88 104 -178q0 -85 -60 -138q-57 -49 -144 -49q-77 0 -137 30q-75 38 -75 107q0 73 -32 113q3 1 11 2
h11q8 0 16 -9q26 37 53 37q31 0 50 -37q18 11 22 11q3 0 17 -4q-18 -31 -18 -57q0 -47 62 -47q23 0 40.5 14.5t17.5 37.5q0 34 -57 77t-93 43q-19 0 -51 -7q7 15 26 27q-44 45 -61 76q-24 42 -24 95q0 72 61 123q58 49 131 49q86 0 143 -41q64 -45 69 -127q2 -27 33 -65
q-10 -4 -18 -4q-10 0 -19.5 6t-12.5 7z" />
    <glyph glyph-name="T" unicode="T" horiz-adv-x="527" 
d="M341 672q11 0 33.5 -8t34.5 -8q44 0 73 21q-6 -18 -8 -21t-18 -19q34 -7 46 -57q-6 -39 -41 -63l24 -38q-50 20 -50 21q-25 8 -54 8q-32 0 -40 -35q-2 -9 -4 -61q-1 -35 -1 -69q0 -107 3 -151q3 -38 12 -70q13 -42 26 -83q-18 -3 -25 -3q-6 0 -14 7q-11 9 -14 10
q-6 -14 -16 -33q-17 -29 -56 -29q-38 0 -57 29q-7 16 -16 33q-2 -1 -14.5 -9.5t-18.5 -8.5t-20 4q25 84 29 103q9 43 11 105v96v69q-2 52 -4 61q-8 35 -40 35q-29 0 -54 -8q0 -1 -50 -21l24 38q-35 24 -42 63q12 50 47 57q-16 16 -18 19t-8 21q29 -21 73 -21q12 0 34 8t34 8
q46 0 87 -43q41 43 92 43z" />
    <glyph glyph-name="U" unicode="U" horiz-adv-x="513" 
d="M439 355q0 -155 31 -248q-14 -1 -32.5 6.5t-24.5 18.5q-33 -79 -56 -102q-36 -35 -114 -35q-121 0 -177 134q-40 -28 -62 -26q39 80 39 237q0 198 -59 289q19 -1 55 -15q17 56 79 56q70 0 78 -65q13 17 39 23q-41 -133 -41 -360q0 -128 67 -128q49 0 49 157
q0 187 -58 332q33 -5 51 -25q22 66 66 66q33 -1 49 -17q10 -10 25 -45q16 10 24 14q14 8 26 8q-25 -53 -40 -135q-14 -75 -14 -140z" />
    <glyph glyph-name="V" unicode="V" horiz-adv-x="571" 
d="M247 499q0 29 9 71q11 48 25 65q-24 -8 -30 -11q-11 -5 -26 -19q-38 46 -39 47q-18 15 -61 15q-37 0 -52.5 -12.5t-29.5 -49.5q-26 18 -59 26l-1 -2q175 -290 175 -510q0 -41 -14 -83q24 -1 29 5q9 9 20 13q18 -58 85 -58q29 0 53.5 18.5t30.5 46.5q14 -14 20 -17
q2 -1 25 -5l5 2q-18 30 -18 83q0 101 51.5 264.5t110.5 241.5l-1 4q-32 -1 -53 -23q-21 56 -66 56q-28 0 -46 -14q-10 -8 -19.5 -24.5t-14.5 -16.5q-9 14 -22 17l-26 6q27 -93 27 -136q0 -45 -12 -120q-14 -80 -28 -109q-19 29 -34 111q-14 73 -14 118z" />
    <glyph glyph-name="W" unicode="W" horiz-adv-x="899" 
d="M295 291l12 -3q14 40 25 113q10 68 10 116q0 44 -27 118q24 -5 43 -17q13 -9 14 -9q13 34 30 47.5t53 13.5q47 0 68 -34q3 -6 10 -18q22 15 45 15q5 0 12 2q-26 -41 -26 -121q0 -37 17 -115q18 -82 34 -108l12 -3q14 40 25 113q10 68 10 117q0 61 -27 117q22 -7 51 -17
q2 23 23 36t46 13q47 0 66 -52q21 19 53 19q9 0 11 -5q-60 -78 -112 -241t-52 -264q0 -43 17 -89q-20 3 -29 10t-20 16q-6 -28 -30.5 -46.5t-53.5 -18.5q-61 0 -81 62q-30 -20 -49 -23q17 54 17 81q0 87 -47 231q-44 -140 -44 -223q0 -57 19 -89q-26 4 -32 8l-22 18
q-44 -65 -81 -65q-28 0 -51.5 17.5t-32.5 44.5q-7 -7 -48 -22q12 36 12 83q0 220 -175 510l1 2q33 -8 59 -26q15 38 28 50q17 15 54 15q39 0 55 -18q18 -23 35 -47q20 18 56 30q-13 -16 -24 -63q-10 -41 -10 -67q0 -32 18 -110q18 -81 33 -104z" />
    <glyph glyph-name="X" unicode="X" horiz-adv-x="596" 
d="M580 24q-26 -1 -39.5 6.5t-25.5 15.5q-21 -34 -24 -36q-17 -17 -50 -17q-39 -2 -55 14q-4 4 -26 42q3 -1 -3 -11.5t-35 -8.5q-21 1 -21 0q16 34 16 52q0 22 -20 63q-16 31 -32 61q-51 -76 -51 -128q0 -6 8 -23t13 -23h-26q-8 3 -15 5t-14 10q-9 -29 -20.5 -39t-40.5 -10
q-28 0 -39 12q-2 2 -19 34q2 0 -7.5 -6.5t-26.5 -6.5l-29 3q42 51 106 153q79 123 79 157q-135 259 -185 302q25 2 40 -6q12 -8 24 -15l24 36q17 16 51 17q38 1 54 -14q4 -4 26 -43q-3 1 3 12t36 9q20 -1 21 0q-17 -35 -17 -52q0 -22 21 -64l32 -60q50 75 50 128q0 6 -8 23
t-13 22h27q8 -2 15 -4t13 -10q10 29 21 39t40 10q28 0 39 -12q2 -2 19 -34q-1 0 5.5 5.5t23.5 5.5l35 -1q-52 -64 -108 -145q-80 -116 -80 -149q70 -135 98 -184q61 -110 90 -135z" />
    <glyph glyph-name="Y" unicode="Y" horiz-adv-x="615" 
d="M-8 629q17 5 28 5q7 0 50 -20q8 56 78 56q29 0 52 -15.5t30 -42.5q12 15 30 20q5 2 36 6q-28 -42 -28 -68q0 -69 54 -149q10 1 28 69q17 63 17 82q0 16 -11 34q-16 27 -18 32q22 -2 59 -23q14 55 67 55q32 0 46.5 -12t24.5 -43q33 19 52 18l13 -1q-20 -22 -48 -57
q-59 -82 -106 -167q-69 -122 -69 -174q0 -65 17 -107q22 -49 43 -99q-22 5 -30 8q-14 5 -28 16q-16 -33 -29 -44q-18 -14 -51 -14q-62 0 -76 61q-24 -23 -51 -23q-3 1 -7 2q20 48 40 97q11 34 11 114q0 70 -84 203q-70 111 -140 181z" />
    <glyph glyph-name="Z" unicode="Z" horiz-adv-x="526" 
d="M509 632q-2 -3 -22 -25q-34 -38 -116 -211q-84 -177 -84 -217q0 -39 38 -39q35 0 77 18q36 16 73 31v-10q0 -19 -19 -30q17 -8 29 -26.5t12 -37.5q0 -41 -44 -52q22 -13 23 -18q5 -20 7 -23q-7 2 -33 13q-20 9 -36 9q-18 0 -53.5 -9.5t-53.5 -9.5q-44 0 -78 32
q-4 -2 -26 -21q-13 -12 -46 -12q-66 0 -83 54q-2 7 -4 7q1 0 -13 -12.5t-28 -12.5l-27 3q50 73 129 229q92 180 92 229q0 36 -40 36q-72 0 -146 -42q-5 4 -5 10q0 8 15 29q-24 7 -31 24q-5 11 -5 39q0 31 44 49q-2 3 -14 14q-6 5 -9 20q24 -10 59 -10q16 0 48.5 6.5
t48.5 6.5q50 0 89 -32q29 20 41.5 24.5t44.5 4.5q70 0 74 -50q37 14 54 14q9 0 18 -2z" />
    <glyph glyph-name="bracketleft" unicode="[" horiz-adv-x="177" 
d="M137 -110l-135 1v776q20 0 67 -1h68v-44h-51v-688h51v-44z" />
    <glyph glyph-name="backslash" unicode="\" horiz-adv-x="713" 
d="M675 390q-8 -41 -67 -94q-43 -37 -86 -73q29 -68 29 -148q0 -42 -8 -81q-60 0 -128.5 33.5t-71.5 33.5t-78 -33.5t-134 -33.5q-9 39 -9 81q0 80 29 148q-40 34 -79 68q-54 49 -70 99q47 40 131 59q38 6 77 12q16 55 54 124q45 82 74 82t73 -82q36 -67 52 -124l80 -12
q86 -19 132 -59zM482 356q-20 17 -56 25q-17 2 -34 5q-7 24 -22 53q-19 34 -31 34q-13 0 -32 -34q-16 -30 -23 -53q-16 -3 -33 -5q-35 -8 -55 -25q6 -21 29 -42q17 -15 34 -29q-20 -47 -9 -97q26 -1 57.5 13.5t33.5 14.5q1 0 30 -14.5t54 -13.5q11 50 -8 97q18 15 36 31
q25 22 29 40z" />
    <glyph glyph-name="bracketright" unicode="]" horiz-adv-x="177" 
d="M2 667l135 -1v-776q-19 0 -67 1h-68v44h52v688h-52v44z" />
    <glyph glyph-name="asciicircum" unicode="^" horiz-adv-x="407" 
d="M333 707q-56 20 -137 46q-35 -10 -69 -20q-39 -11 -65 -24q-16 -9 -21 9q-4 15 11 22q25 11 66 38l50 36q11 18 28 15q17 3 27 -15q37 -28 116 -74q15 -7 11 -22q-4 -16 -17 -11z" />
    <glyph glyph-name="underscore" unicode="_" horiz-adv-x="460" 
d="M-1 -68h461v-52h-461v52z" />
    <glyph glyph-name="grave" unicode="`" horiz-adv-x="349" 
d="M74 746l172 -41l15 -5q9 -4 14 -4q16 0 16 19q0 9 -11.5 13.5t-21.5 8.5l-96 56q-52 27 -78 27q-38 0 -38 -37q0 -30 28 -37z" />
    <glyph glyph-name="a" unicode="a" horiz-adv-x="388" 
d="M363 33q-23 4 -26 12q-17 -49 -58 -49q-22 0 -34 13q-8 9 -17 35q-31 -50 -99 -50q-126 0 -126 131q0 73 56 116q23 17 103 49q56 23 56 49q0 51 -42 51q-45 0 -45 -36q0 -24 16 -43q-10 -2 -16 -2q-4 0 -10.5 6.5t-9.5 8.5q-4 -27 -33 -27q-26 0 -30 27q-24 -18 -31 -18
h-6q14 18 14 54q0 129 148 129q151 0 146 -120q12 15 19 21q11 11 22 16q-28 -113 -28 -168q0 -92 31 -205zM224 259q-50 -34 -60 -44q-32 -30 -32 -64q0 -56 38 -56q58 0 58 93q0 14 -1 36q-2 27 -3 35z" />
    <glyph glyph-name="b" unicode="b" horiz-adv-x="412" 
d="M354 247q0 -111 29 -182q-10 0 -16.5 5t-12.5 10q-23 -83 -99 -83q-63 0 -81 32q-3 9 -13 27q-5 -31 -17 -44q-13 -16 -43 -16q-34 0 -46 14q-10 11 -15 46q-20 -21 -25 -21q-14 0 -11 1q38 102 38 303q0 214 -41 297q17 -4 37 -21q8 53 50 53q49 0 58 -49q7 6 33 21
q-29 -148 -29 -212q33 63 87 63q103 0 113 -111q15 20 34 31q-30 -90 -30 -164zM197 371q-48 0 -48 -102v-68q0 -89 47 -89q54 0 54 128q0 57 -5 80q-11 51 -48 51z" />
    <glyph glyph-name="c" unicode="c" horiz-adv-x="375" 
d="M338 301h-10q-13 0 -22 13q-9 -25 -32 -25q-14 0 -18 7t-9 16q-9 -16 -31 -16q10 24 10 37q0 45 -39 45t-48 -75q-2 -19 -2 -105q0 -101 47 -101q44 0 44 52q0 10 -11 39q8 -5 23 -15l14 22t27 11q25 0 35 -30q12 17 27 18q-13 -18 -13 -44q0 -17 -6 -47
q-25 -109 -135 -109q-56 0 -97 25q-49 30 -49 83q-11 -17 -32 -23q24 74 24 168q0 84 -24 159q21 -2 33 -22q1 53 43 82q37 26 92 26q52 0 92 -26q44 -30 48 -80q2 -33 4 -44q4 -20 15 -41z" />
    <glyph glyph-name="d" unicode="d" horiz-adv-x="406" 
d="M28 247q0 -113 -29 -182q8 0 30 15q22 -83 99 -83q62 0 80 32q4 9 13 27q11 -60 60 -60q34 0 46 14q10 11 16 46q19 -21 24 -21q15 0 11 1q-38 102 -38 303q0 214 42 297q-18 -4 -37 -21q-9 53 -50 53q-49 0 -58 -49q-16 14 -34 21q30 -148 29 -212q-32 63 -87 63
q-103 0 -112 -111q-15 20 -35 31q30 -90 30 -164zM185 371q48 0 48 -102v-68q0 -89 -47 -89q-53 0 -53 122v30q0 107 52 107z" />
    <glyph glyph-name="e" unicode="e" horiz-adv-x="356" 
d="M307 131q4 -141 -145 -141q-62 0 -91 32q-22 26 -39 95q-10 -11 -16 -12q-11 0 -16 -2q21 72 19 138q0 35 -18 144q6 -1 17.5 -10t14.5 -14q-3 54 30 90q38 41 109 41q72 0 114 -54q36 -45 36 -103q0 -47 -24 -64q19 -6 23 -23v-17q-46 8 -50 8l-155 1q-1 -31 -1 -47
q0 -49 7 -70q12 -38 49 -38q49 0 44 84q5 -3 23 -9q2 27 26 27q18 0 21 -6q2 -10 5 -20l23 6q-6 -12 -6 -36zM226 294q2 10 2 23q0 79 -56 79q-60 0 -60 -79q0 -12 1 -23h113z" />
    <glyph glyph-name="f" unicode="f" horiz-adv-x="256" 
d="M223 611q0 -13 -9.5 -18t-19.5 -10l17 -24q-29 3 -31 3q-32 0 -32 -42q0 -40 56 -34l1 -96q-39 0 -48.5 -9.5t-9.5 -49.5q0 -181 44 -301q-6 -7 -9 -7q-12 0 -34 27q-4 -31 -12 -41q-10 -13 -38 -13q-21 0 -32 18q-10 15 -9 36q-7 -6 -13.5 -11.5t-15.5 -5.5h-9
q29 40 35 144q1 25 1 157q0 39 -10.5 49t-45.5 8l-1 95l25 -1q22 7 26 30q0 -1 0 42q0 119 101 119q27 0 62 -12l-12 -17q1 -1 16 -12q7 -5 7 -24z" />
    <glyph glyph-name="g" unicode="g" horiz-adv-x="405" 
d="M398 415q0 -18 -29 -35q13 -29 13 -27q0 -1 -1 -1l-12 7t-15 8v-1q0 -4 -4 -4q-15 0 -21 -16l-4 -30q1 -3 1 -19q-1 -74 21 -122l-9 -10q-22 10 -32 31q-1 -4 -6 -59q-3 -31 -29 -52q-34 -27 -96 -27q-6 0 -19.5 1.5t-19.5 1.5q-9 0 -15 -10t-6 -20q0 -23 22 -23h118
q27 0 69 -1q39 -1 61.5 -29t22.5 -68q0 -92 -88 -92h-218q-33 0 -63 15q-35 19 -35 49q0 25 13.5 53t35.5 38q-15 9 -30.5 19.5t-15.5 33.5q0 36 18 50q25 11 49 23q-34 36 -44 72l-6 3q-14 -8 -19 -8h-5q21 68 21 116q0 47 -24 129q16 -17 42 -35q2 11 7 32q10 49 37.5 69
t84.5 18q37 -1 53 -7q23 -8 39 -33q30 31 41 31q18 0 27.5 -6.5t11.5 -6.5t9 2q28 -6 50 8l-21 -32q20 -18 20 -36zM214 293q0 79 -44 79q-20 0 -33 -33q-11 -27 -11 -50q0 -119 44 -119t44 100v23zM337 -109q0 33 -63 33h-144q-32 0 -49 -28q2 -12 18 -21t29 -9q3 1 2 2
h158q49 0 49 23z" />
    <glyph glyph-name="h" unicode="h" horiz-adv-x="390" 
d="M339 205q0 -60 29 -175q-23 -1 -32 18q0 -19 -15 -33t-36 -14q-41 0 -46 49q-8 -19 -34 -17q37 122 37 216q0 132 -54 132q-47 0 -47 -88q0 -94 12 -169q6 -24 15 -71l2 -26q-12 8 -38 23q-7 -49 -52 -49q-18 0 -30.5 14.5t-11.5 34.5h-4q-2 -1 -8 -5q-10 -6 -24 -9
q35 104 35 297q0 177 -37 309l31 -17q13 43 61 43q24 0 36 -9.5t25 -33.5l31 11q-40 -91 -40 -196q33 33 40 38q20 14 52 14q41 0 70 -25.5t31 -66.5q4 -2 6.5 2.5t4.5 8.5l15 9q-24 -92 -24 -215z" />
    <glyph glyph-name="i" unicode="i" horiz-adv-x="207" 
d="M133 538l-84 -1q-1 19 -3 36q-5 42 -18 72q9 -6 22 -17q6 13 11 26q9 14 26 14q21 0 30 -13q6 -12 12 -23q8 5 23 13q-20 -44 -19 -107zM17 59l-14 -34q9 4 25 11q2 1 14 14q4 -29 12 -40q12 -15 40 -15q30 0 41.5 12.5t14.5 41.5q11 -9 32 -19l-11 29q-17 106 -17 179
q0 100 19 180l9 34q-21 -9 -32 -19q-3 30 -14.5 42t-41.5 12q-28 0 -40 -15q-8 -11 -12 -39q-12 12 -14 13q-16 7 -25 12l14 -35q24 -57 28 -180q-4 -127 -28 -184z" />
    <glyph glyph-name="j" unicode="j" horiz-adv-x="218" 
d="M141 538h-80q-5 35 -25 107q9 -6 22 -17q6 13 13 26.5t25 13.5q20 0 30 -13q5 -12 11 -23q8 5 23 13q-20 -44 -19 -107zM180 428q-17 -106 -17 -143v-144q0 -32 8 -95t8 -94q0 -44 -32 -79t-77 -35q-82 0 -106 7q1 2 13 22q-31 14 -31 35q0 13 11 22q12 6 23 12
q-3 2 -13 21q19 -6 30 -6q39 0 52 42q7 23 7 75q0 288 -30 360l-13 34l24 -12q2 -1 14 -13q5 32 13 45q12 20 40 20q48 0 55 -64q11 9 32 19z" />
    <glyph glyph-name="k" unicode="k" horiz-adv-x="435" 
d="M186 29q-28 13 -37 21q-3 -30 -14 -42t-41 -12q-29 0 -40 15q-8 11 -13 39q-12 -12 -14 -13q-16 -7 -24 -12l13 35q12 30 21 126q8 84 8 151q0 65 -8 147q-8 92 -21 123l-13 34q10 -3 38 -25q4 28 13 39q13 15 41 15q47 0 52 -52q4 3 37 18l-11 -29q-20 -125 -20 -275
q0 -20 2 -50q59 60 69 73q33 44 33 93l-9 37l32 -26q13 32 37 29q25 -4 35 -29q10 9 20.5 17t37.5 6q-55 -50 -75 -73q-44 -51 -61 -100q18 -46 35 -93q33 -84 71 -132q8 -16 27 -35.5t19 -21.5q-13 1 -25 1q-6 2 -15 13q-11 -12 -21 -23q-14 -14 -36 -17q-32 3 -38 13
q-7 16 -14 33l-32 -23l8 51q-7 93 -65 156q-7 -2 -29 -21q7 -95 15 -146z" />
    <glyph glyph-name="l" unicode="l" horiz-adv-x="222" 
d="M16 60l-13 -35q8 5 24 12q2 1 14 13q5 -28 13 -39q11 -15 40 -15q30 0 41 12t14 42q9 -8 37 -21l-12 35q-27 169 -27 268q0 131 23 275l11 29q-21 -10 -32 -19q-3 29 -14 41.5t-41 12.5q-29 0 -40 -15q-8 -11 -13 -40q-12 12 -14 13l-24 12l13 -34q21 -49 29 -270
q-9 -229 -29 -277z" />
    <glyph glyph-name="m" unicode="m" horiz-adv-x="616" 
d="M583 44q-10 -7 -11 -7l-18 15q-9 -20 -17.5 -38.5t-39.5 -18.5q-47 0 -55 55q-9 -9 -25 -8q31 154 31 211q0 68 -4 89q-9 48 -41 48q-49 -4 -49 -82q0 -122 26 -264q-6 0 -11 -1q-5 0 -12 9q-3 0 -17 -29.5t-44 -29.5q-24 0 -38 18q-8 10 -19 39q-22 -6 -25 -6
q33 65 33 252q0 99 -50 99q-49 0 -49 -151q0 -27 10 -101q10 -79 18 -99q-16 -1 -26 9l-12 -32q-12 -26 -45 -26q-30 0 -47 17.5t-16 45.5q-10 -13 -11.5 -14t-11.5 -3q10 29 20 102q9 68 9 102q0 110 -32 211q4 -2 26 -18q7 28 14 38q13 20 42 20q36 0 63 -49q45 50 101 50
q59 0 95 -56q16 18 33 36q22 18 68 20q59 2 89 -33q16 -18 28 -58l26 15l-15 -38q-16 -41 -19 -90q1 11 1 -92q0 -58 27 -157z" />
    <glyph glyph-name="n" unicode="n" horiz-adv-x="414" 
d="M352 278q0 -83 7 -122l22 -114q-6 0 -12 1t-13 9q-3 0 -17 -29.5t-44 -29.5q-24 0 -38 18q-8 10 -19 39q-7 -2 -11.5 -5.5t-10.5 -2.5q30 59 30 234q0 119 -50 119q-49 0 -49 -151q0 -30 8 -101q7 -80 15 -99q-16 -1 -26 9l-12 -32q-12 -26 -45 -26q-30 0 -47 17.5
t-16 45.5q-10 -13 -11.5 -14t-11.5 -3q10 31 22 102t12 102q0 43 -10 110.5t-23 107.5q3 -3 23 -20q14 53 60 53q36 0 63 -49q43 48 95 48q75 0 110 -55q9 -29 9 -61q0 -22 -5 -56t-5 -45z" />
    <glyph glyph-name="o" unicode="o" horiz-adv-x="377" 
d="M357 393q-21 -57 -21 -151q0 -108 19 -153q-8 -1 -13 4q-15 12 -16 13q-8 -46 -54.5 -79.5t-91.5 -30.5q-47 0 -93 32.5t-55 77.5q-1 -1 -15 -13q-6 -5 -14 -4q19 45 19 153q0 94 -20 151q21 0 36 -11q13 27 26 53q36 51 105 51q72 0 114 -48q18 -28 37 -56q16 11 37 11z
M229 174v125q0 32 -12 56q-15 31 -42 33q-50 0 -50 -85q0 -59 2 -129q0 -30 11 -51q14 -28 40 -26q49 0 51 77z" />
    <glyph glyph-name="p" unicode="p" horiz-adv-x="406" 
d="M349 241q0 114 29 182q-11 0 -17.5 -5t-12.5 -10q-21 78 -103 82q-46 2 -65 -14q-3 -2 -24 -34q-8 48 -63 48q-56 0 -59 -48q-18 19 -22 20h-13q41 -110 41 -279q0 -115 -5 -167q-9 -103 -40 -164q9 2 37 21q5 -29 14 -39q11 -13 36 -14t42 17q13 14 17 32
q14 -12 15.5 -13t17.5 -8q-30 149 -29 212q31 -61 87 -63q103 0 113 111q15 -20 34 -31q-30 90 -30 164zM244 234q0 -118 -52 -117q-35 1 -44 51q-4 19 -4 77q0 62 3 80q9 53 44 51q53 -2 53 -142z" />
    <glyph glyph-name="q" unicode="q" horiz-adv-x="406" 
d="M30 241q0 114 -29 182q11 0 17.5 -5t12.5 -10q23 83 99 83q53 0 73 -21l20 -38q6 35 19.5 47.5t40.5 12.5q35 0 47 -14q9 -10 15 -46q19 19 23 20h12q-38 -102 -38 -238q0 -137 3 -182q8 -120 39 -180q-9 2 -37 21q-5 -29 -14 -39q-10 -13 -36 -14q-25 -1 -42 17
q-13 14 -16 32q-11 -9 -18 -10q-13 -2 -19 -5q33 65 32 206q-31 -61 -87 -63q-103 0 -112 111q-16 -20 -35 -31q30 90 30 164zM135 234q0 -118 52 -117q35 1 44 51q4 19 4 77q0 62 -3 80q-9 53 -44 51q-53 -2 -53 -142z" />
    <glyph glyph-name="r" unicode="r" horiz-adv-x="299" 
d="M274 430q0 -16 -20 -27l15 -11q0 -13 -24 -18q-20 -1 -35.5 6.5t-21.5 7.5q-39 0 -49 -46q-3 -17 -3 -78q0 -168 31 -224q-15 -3 -23.5 4t-8.5 5q-13 -46 -56 -46q-26 0 -37 22l-12 28q-8 -7 -10 -8t-22 -5q20 51 26 108q3 37 3 119q0 129 -29 217q12 -4 23 -8
q4 -2 20 -19q16 22 31 28q9 4 32 4q16 0 29.5 -10.5t27.5 -21.5q23 33 75 33q11 0 20 -4l18 -10q-5 -2 -19 -12q19 -15 19 -34z" />
    <glyph glyph-name="s" unicode="s" horiz-adv-x="361" 
d="M202 320q11 16 11 36q0 40 -50 40q-38 0 -38 -35q0 -39 46 -66q40 -24 82 -25q-1 -4 -14 -10q44 -37 55 -52q25 -34 25 -85q0 -127 -155 -131q-58 -2 -97 30.5t-45 78.5q0 4 -12 40l-8 28l7 1q4 0 12 -11q22 31 40 31q20 0 35 -29q16 10 20 10l3 -1q-11 -22 -11 -38
q0 -42 51 -42q20 0 34.5 12.5t14.5 31.5q0 34 -45 63.5t-85 29.5q-8 0 -14 -1l16 11q-43 45 -50 55q-21 32 -19 80q5 121 149 121q122 0 144 -109q7 -30 8 -31q5 -18 14 -29q-21 -5 -22 -5l-10 12q-10 -24 -32 -24q-12 0 -18 7.5t-13 16.5q-10 -5 -29 -11z" />
    <glyph glyph-name="t" unicode="t" horiz-adv-x="262" 
d="M240 96q0 -12 -10.5 -21t-19.5 -17l20 -14l-46 -12q-12 -3 -39 -19q-20 -12 -36 -12q-28 0 -40 9.5t-21 36.5l-26 -17l9 25q23 115 20 266q-1 62 -55 66v101q9 -2 16 -2q38 0 38 60q0 40 -29 98q-2 4 1 4q12 0 30 -19q5 13 11.5 27t33.5 14q38 0 46 -44l33 18
q-28 -49 -26 -101q2 -39 18 -50q9 -5 44 -8q1 -94 0 -104q-36 -3 -41 -6q-19 -11 -19 -54q0 -92 5 -109q10 -34 61 -61l-11 -16q12 -6 22.5 -13t10.5 -26z" />
    <glyph glyph-name="u" unicode="u" horiz-adv-x="419" 
d="M30 212q0 82 -6 122q-12 56 -23 113q7 0 14 -1q4 0 11 -9q5 0 8 14q4 18 11 26q12 14 40 14q29 0 41 -15q5 -6 17 -37q20 6 26 6q-32 -64 -32 -232q0 -119 49 -119q54 0 54 149q0 27 -10 102q-10 81 -18 100q16 1 26 -8q6 15 13 30q11 24 44 24q56 0 60 -58
q9 11 14.5 12.5t11.5 3.5q-10 -31 -21 -103.5t-11 -105.5q0 -104 35 -213q-4 1 -27 20q-13 -54 -60 -54q-36 0 -63 50q-43 -49 -95 -49q-74 0 -110 56q-9 28 -9 61q0 21 5 55t5 46z" />
    <glyph glyph-name="v" unicode="v" horiz-adv-x="401" 
d="M349 407q-58 -119 -83 -252q-6 -13 -7 -38q0 -17 1 -46q2 -32 2 -41q-11 -2 -19 5.5t-12 8.5q-13 -30 -17 -35q-11 -15 -32 -14q-26 0 -37 15q-8 19 -15 37q-19 -19 -35 -15q6 30 5 73q-1 37 -6 55l-40 162q-27 100 -60 134q23 6 35 -8q10 34 43 37q30 0 39.5 -7
t21.5 -33q9 9 12 10q10 0 19 1q-9 -13 -11 -23.5t-1 -20.5q1 -15 1 -14q0 -76 35 -204h8q21 73 29 202q1 23 -14 60h19q5 -2 15 -14q6 14 12.5 28.5t33.5 14.5t34 -13.5t12 -26.5q7 3 14 7q13 6 27 4z" />
    <glyph glyph-name="w" unicode="w" horiz-adv-x="606" 
d="M262 171q-3 -13 -3 -35q0 -27 5 -66q2 -19 4 -37q-6 -2 -11 -2q-8 0 -15 6t-11 7q-11 -25 -19 -33q-13 -14 -34 -13q-26 0 -34 15.5t-14 33.5q-19 -19 -35 -15q6 30 5 73q-1 37 -6 55l-36 150q3 -12 6 -19v0q0 10 -20 68q-24 72 -49 102q23 5 34 -7q12 39 47 39
q28 0 39 -10q6 -5 18 -32q9 9 12 10q10 0 19 1q-12 -18 -14 -37q1 4 2 -26q3 -83 36 -205h8q20 71 29 208q1 23 -14 60h19q5 -2 15 -14q7 16 13 32q10 16 33 13q27 0 36 -10q3 -3 16 -32q9 9 12 10q10 0 19 1q-12 -18 -14 -37q1 4 2 -26q3 -83 36 -205h8q20 71 29 208
q1 23 -14 60h19q5 -2 15 -14q6 15 13.5 30t30.5 15q25 0 32 -16l8 -26q7 3 13 7q12 6 26 4l-29 -49q-74 -153 -71 -248q-4 -14 -4 -40t4 -61l4 -34q-5 -2 -8 -2q-8 0 -13.5 7.5t-9.5 8.5q-11 -25 -19 -33q-13 -14 -34 -13q-27 0 -37 13q-2 2 -15 33q-16 -16 -35 -11
q14 50 6 138q-3 40 -26 128q-30 -102 -29 -128z" />
    <glyph glyph-name="x" unicode="x" horiz-adv-x="371" 
d="M25 58q-13 -17 -29 -38q0 -1 2 -1q6 0 25.5 7.5t13.5 7.5q0 -43 43 -40q26 2 37 18q7 12 15 25q5 -4 32 -14q-7 11 -8 17q-1 5 0 16q2 13 2 25q0 16 21 75q9 -4 15 -24q10 -36 15 -49q1 -30 -5 -60q-1 -5 3 -5t17.5 8t14.5 8q2 -3 3 -21q1 -14 28 -16q23 -2 31 12
q4 6 7 28l14 -12q7 -5 14 -5q6 0 15 3q-37 37 -82 115t-45 105t45 103t82 113q-10 4 -16 4q-2 0 -24 -15q-6 40 -41 37q-20 -2 -23.5 -6t-4.5 -21q0 -6 -3 -10q-23 7 -35 11q6 -45 5 -60q-8 -20 -14 -51q-5 -23 -11 -27l-18 38q-11 24 -11 40q0 58 -1 35q0 10 10 25
q-13 -5 -32 -14q-8 13 -15 26q-11 15 -37 17q-43 3 -43 -40q-4 0 -25 9q-8 3 -16 5q15 -15 62 -105q49 -93 49 -113q0 -16 -30 -81q-26 -61 -52 -105z" />
    <glyph glyph-name="y" unicode="y" horiz-adv-x="395" 
d="M263 -75q-14 -4 -21 7l-11 15l-22 -58q-25 -46 -91 -45q-34 0 -59 29q-24 26 -27 63q-16 -20 -30 -20q-3 0 -2 2q6 18 6 71q0 27 -10 74q7 1 11 -2.5t8 -7.5q8 17 23 17q12 0 17 -8l3.5 -7t3.5 -3q1 0 8.5 6t10.5 4q-5 -30 -5 -65q0 -22 14 -26q5 -1 17 -1q22 0 22 57
q0 46 -25 137q-22 81 -43 162q-30 100 -63 134q23 6 35 -8q10 34 43 37q30 0 39.5 -7t21.5 -33q9 9 12 10q10 0 19 1q-9 -13 -11 -23.5t-1 -20.5q1 -15 1 -14q0 -48 13 -104l28 -100h8q11 38 15 106l4 96q1 23 -14 60h19q5 -2 15 -14q6 14 12.5 28.5t33.5 14.5t34 -13.5
t12 -26.5q7 3 14 7q13 6 27 4l-29 -49q-67 -114 -76 -253q-7 -28 -17 -89q-7 -48 3 -115q1 -5 4 -29z" />
    <glyph glyph-name="z" unicode="z" horiz-adv-x="390" 
d="M164 373q0 15 -29 15q-38 0 -60.5 -8.5t-49.5 -35.5q-1 23 0 26q6 8 11 16q-33 9 -33 39q0 16 5 22t23 12q-5 8 -11 17q-1 2 3 21q18 -15 23.5 -17t29.5 -2q7 0 20 7t28 7q33 0 44 -8l26 -28q17 27 21 30q8 6 32 6q56 1 56 -42q23 24 50 21l-19 -35l-54 -92
q-31 -54 -47 -96q-45 -115 -45 -130t29 -15q75 0 120 44q1 -23 0 -26q-6 -8 -11 -16q34 -9 34 -35q0 -27 -32 -35q7 -10 13 -19q2 -4 -1 -23q-19 16 -24.5 18t-29.5 2q-7 0 -25 -7t-33 -7q-32 0 -44 12q-13 17 -26 33q-17 -31 -19 -32q-10 -10 -37 -10q-29 0 -39.5 9.5
t-10.5 37.5q-22 -23 -53 -19l25 30q49 58 98 185q42 108 42 128z" />
    <glyph glyph-name="braceleft" unicode="{" horiz-adv-x="781" 
d="M560 12q35 45 35 105q0 29 -15 107q173 85 170 120q-2 33 -61 71q-52 34 -107 48q10 99 10 96q0 61 -35 107q-44 2 -92 -19q-54 -23 -90 -68q-36 45 -87 68q-47 21 -91 19q-35 -46 -35 -107q0 3 10 -96q-55 -14 -107 -48q-59 -38 -61 -71q-3 -35 170 -120
q-15 -78 -15 -107q0 -60 35 -105q49 6 84 24q21 10 52 36q28 23 48 32q20 -9 48 -32q31 -26 50 -36q35 -18 84 -24z" />
    <glyph glyph-name="bar" unicode="|" horiz-adv-x="719" 
d="M543 -6q8 39 8 81q0 80 -29 148q43 36 86 73q59 53 67 94q-46 40 -132 59l-80 12q-16 57 -52 124q-44 82 -73 82t-74 -82q-38 -69 -54 -124q-39 -6 -77 -12q-84 -19 -131 -59q16 -50 70 -99q39 -34 79 -68q-29 -68 -29 -148q0 -42 9 -81q59 0 134 33.5t78 33.5
t71.5 -33.5t128.5 -33.5z" />
    <glyph glyph-name="braceright" unicode="}" horiz-adv-x="418" 
d="M278 176q18 22 18 52q0 15 -7 54q86 42 85 59q-2 17 -29.5 35t-54.5 25q4 50 4 48q0 31 -17 54q-54 2 -91 -44q-37 46 -89 44q-17 -23 -17 -54q0 2 4 -48q-27 -7 -53 -24q-29 -19 -31 -36q-1 -17 85 -59q-7 -39 -7 -54q0 -30 18 -52q33 3 56 20q33 24 36 26q3 -2 35 -26
q22 -17 55 -20z" />
    <glyph glyph-name="asciitilde" unicode="~" horiz-adv-x="455" 
d="M270 707q-26 -1 -45.5 10t-39.5 23q-14 5 -23 5q-16 0 -32 -26q-1 -1 -39 3q-2 33 23.5 55.5t59.5 22.5q22 0 39 -11q41 -26 60 -26q29 0 36 24q2 4 45 -4q-12 -35 -39 -56q-23 -18 -45 -20z" />
    <glyph glyph-name="Adieresis" unicode="&#xc4;" horiz-adv-x="599" 
d="M577 35l-1 -3q-33 8 -59 26q-14 -35 -33.5 -49t-58.5 -14q-41 0 -55 15q-18 24 -35 48q-20 -18 -56 -29q14 15 22 56q7 34 7 63l-3 14h-76q-6 -17 -6 -35q0 -21 11 -50l18 -48q-35 9 -53 26q-6 0 -12 -15q-9 -20 -19 -29q-16 -15 -44 -15q-45 0 -66 56q-21 -22 -52 -23
l-2 4q59 78 111 243q51 162 51 263q0 47 -10 91q17 -3 24 -11q13 -13 18 -16q6 27 31 45.5t53 18.5q68 0 86 -57q11 12 19 14q12 4 24 7l3 -4q-11 -36 -11 -82q0 -221 174 -510zM296 246q-20 94 -31 110l-3 -2q-22 -60 -24 -108h16h42zM317 750q0 21 14.5 35.5t34.5 14.5
q21 0 35.5 -14.5t14.5 -35.5q0 -20 -14.5 -34.5t-35.5 -14.5q-20 0 -34.5 14.5t-14.5 34.5zM147 750q0 21 14.5 35.5t34.5 14.5q21 0 35.5 -14.5t14.5 -35.5q0 -20 -14.5 -34.5t-35.5 -14.5q-20 0 -34.5 14.5t-14.5 34.5z" />
    <glyph glyph-name="Aring" unicode="&#xc5;" horiz-adv-x="599" 
d="M577 35l-1 -3q-33 8 -59 26q-14 -35 -33.5 -49t-58.5 -14q-41 0 -55 15q-18 24 -35 48q-20 -18 -56 -29q14 15 22 56q7 34 7 63l-3 14h-76q-6 -17 -6 -35q0 -21 11 -50l18 -48q-35 9 -53 26q-6 0 -12 -15q-9 -20 -19 -29q-16 -15 -44 -15q-45 0 -66 56q-21 -22 -52 -23
l-2 4q59 78 111 243q51 162 51 263q0 47 -10 91q17 -3 24 -11q13 -13 18 -16q6 27 31 45.5t53 18.5q68 0 86 -57q11 12 19 14q12 4 24 7l3 -4q-11 -36 -11 -82q0 -221 174 -510zM296 246q-20 94 -31 110l-3 -2q-22 -60 -24 -108h16h42zM280 825q27 0 47 -19t20 -45
q0 -27 -20 -46t-47 -19t-47 19t-20 46q0 26 20 45t47 19zM280 795q-15 0 -26 -10t-11 -24t11 -24.5t26 -10.5q16 0 26.5 10.5t10.5 24.5t-10.5 24t-26.5 10z" />
    <glyph glyph-name="Ccedilla" unicode="&#xc7;" horiz-adv-x="495" 
d="M352 -112q-2 -44 -43 -62q-32 -15 -74 -10q-55 5 -76 30l26 23q16 -18 50 -18q38 0 38 43q0 15 -12 26.5t-32 11.5q-33 0 -47 -11q2 8 9 78q-87 17 -134 134q-29 -31 -48 -31v0q0 6 8 64q15 111 15 166q0 50 -6 118q-8 90 -21 109h6q21 0 28 -6l20 -18q31 71 69 102
q45 37 117 37q70 0 118 -33q51 -36 66 -102l10 -74q7 -41 32 -67q-32 2 -35 5q-8 10 -14 12q-14 -33 -53 -33q-16 0 -28 14q-15 19 -20 21q-7 -7 -14 -13t-19 -6l-12 1q22 49 22 65q0 24 -14.5 44.5t-36.5 20.5q-30 0 -45 -46q-11 -32 -11 -70v-144q0 -40 10 -78
q14 -54 41 -54q29 0 47 25q17 22 17 51q0 17 -10 36q-12 23 -14 32l3 1q18 -5 50 -22q7 8 13 17q11 13 31 13q39 0 50 -28q21 14 40 14q6 0 7 -3q-29 -33 -32 -73.5t-5 -80.5q-13 -65 -77 -97q-51 -27 -126 -27q-6 0 -11 1l-5 -34h23q9 1 19 1q38 0 62 -17q29 -20 28 -58z
" />
    <glyph glyph-name="Eacute" unicode="&#xc9;" horiz-adv-x="528" 
d="M484 578q0 -27 -15 -36l-36 -16q10 -14 19 -42h-4q-63 38 -132 38q-50 0 -66 -27q-10 -17 -16 -74q-2 -20 1 -25q7 -5 13 -10q57 1 109 46h5v-3q0 -20 -19 -38q52 -24 52 -58q0 -24 -17 -33.5t-35 -17.5q15 -20 15 -37l-2 -1q-53 38 -115 38q-10 0 -10 -20
q0 -119 63 -119q77 0 158 45l3 -2q-5 -16 -17 -37q2 -4 24 -21q16 -13 15 -37q0 -42 -44 -51q2 -3 20 -15q15 -10 18 -24q-12 -1 -22 -1q-22 0 -41.5 6.5t-31.5 6.5q-13 0 -37 -7t-37 -7q-44 0 -84 35q-23 -34 -64 -34q-55 0 -85 69q-16 -11 -31 -22q-20 -14 -33 -14l-2 5
q41 86 54 181q10 66 10 187q0 87 -56 229l26 -2q11 -3 20 -10q14 -13 17 -15q20 59 84 59q27 0 62 -32q42 34 76 34q18 0 53.5 -8t54.5 -8q9 0 26.5 6.5t24.5 12.5h5l3 -4q-9 -26 -25 -38q32 -15 34 -17q12 -10 12 -35zM340 746l-173 -41q-3 -1 -13.5 -5t-15.5 -4
q-15 0 -15 19q0 9 11 13.5t21 8.5q49 28 98.5 55.5t76.5 27.5q37 0 37 -37q0 -30 -27 -37z" />
    <glyph glyph-name="Ntilde" unicode="&#xd1;" horiz-adv-x="583" 
d="M548 32q-6 -2 -13 -2q-18 0 -39 14q-11 -45 -66 -45q-59 0 -75 48q-19 -15 -22 -16q-15 -2 -30 -5q1 10 1 20q0 36 -12 86q-11 46 -34 101q-33 79 -59 79q-5 0 -8 -4v-43q0 -132 54 -241q-16 3 -33 7.5t-24 17.5q-12 -29 -24 -39q-15 -12 -45 -12q-24 0 -41 17t-22 41
q-25 -25 -49 -23h-6q38 119 44 141q18 73 18 148q0 137 -60 314q29 -2 38 -7l28 -22q11 19 23 38q18 26 61 26q36 0 49 -19q12 -23 25 -45q32 23 56 23v-3q0 -7 -5.5 -25t-5.5 -28q0 -56 34 -125q29 -61 72 -110q3 3 3 8q0 208 -48 283h6q17 0 46 -21q15 59 71 59
q40 0 58 -55q15 11 22 15q14 8 27 8q-35 -91 -43 -120q-16 -60 -16 -127q0 -183 44 -357zM320 707q-26 -1 -45.5 10t-39.5 23q-14 5 -25 5q-24 0 -40 -26q-1 -1 -39 3q-2 33 28 56q27 22 63 22q24 0 41 -11q41 -26 60 -26q12 0 28 7.5t18 16.5q2 4 45 -4q-11 -34 -44 -56
q-26 -18 -50 -20z" />
    <glyph glyph-name="Odieresis" unicode="&#xd6;" horiz-adv-x="481" 
d="M407 133q28 -31 47 -31q1 0 1 1q0 2 -9 67q-15 112 -15 162t7 118q8 90 21 109h-6q-21 0 -29 -6q-9 -9 -19 -18q-8 20 -19 44q-48 93 -160 93q-113 0 -158 -93l-16 -44q-10 9 -19 18t-30 8h-5q12 -18 21 -109q6 -70 6 -120t-15 -162q-8 -65 -8 -67v-1q19 0 47 31
q29 -72 64 -102q42 -36 114 -36t115 36q36 31 65 102zM273 413v-144q0 -133 -40 -133q-27 0 -40 54q-9 37 -9 79v144q0 115 42 115q47 0 47 -115zM267 750q0 21 14.5 35.5t34.5 14.5q21 0 35.5 -14.5t14.5 -35.5q0 -20 -14.5 -34.5t-35.5 -14.5q-20 0 -34.5 14.5t-14.5 34.5
zM97 750q0 21 14.5 35.5t34.5 14.5q21 0 35.5 -14.5t14.5 -35.5q0 -20 -14.5 -34.5t-35.5 -14.5q-20 0 -34.5 14.5t-14.5 34.5z" />
    <glyph glyph-name="Udieresis" unicode="&#xdc;" horiz-adv-x="513" 
d="M439 355q0 -155 31 -248q-14 -1 -32.5 6.5t-24.5 18.5q-33 -79 -56 -102q-36 -35 -114 -35q-121 0 -177 134q-40 -28 -62 -26q39 80 39 237q0 198 -59 289q19 -1 55 -15q17 56 79 56q70 0 78 -65q13 17 39 23q-41 -133 -41 -360q0 -128 67 -128q49 0 49 157
q0 187 -58 332q33 -5 51 -25q22 66 66 66q33 -1 49 -17q10 -10 25 -45q16 10 24 14q14 8 26 8q-25 -53 -40 -135q-14 -75 -14 -140zM277 750q0 21 14.5 35.5t34.5 14.5q21 0 35.5 -14.5t14.5 -35.5q0 -20 -14.5 -34.5t-35.5 -14.5q-20 0 -34.5 14.5t-14.5 34.5zM107 750
q0 21 14.5 35.5t34.5 14.5q21 0 35.5 -14.5t14.5 -35.5q0 -20 -14.5 -34.5t-35.5 -14.5q-20 0 -34.5 14.5t-14.5 34.5z" />
    <glyph glyph-name="aacute" unicode="&#xe1;" horiz-adv-x="388" 
d="M363 33q-23 4 -26 12q-17 -49 -58 -49q-22 0 -34 13q-8 9 -17 35q-31 -50 -99 -50q-126 0 -126 131q0 73 56 116q23 17 103 49q56 23 56 49q0 51 -42 51q-45 0 -45 -36q0 -24 16 -43q-10 -2 -16 -2q-4 0 -10.5 6.5t-9.5 8.5q-4 -27 -33 -27q-26 0 -30 27q-24 -18 -31 -18
h-6q14 18 14 54q0 129 148 129q151 0 146 -120q12 15 19 21q11 11 22 16q-28 -113 -28 -168q0 -92 31 -205zM224 259q-50 -34 -60 -44q-32 -30 -32 -64q0 -56 38 -56q58 0 58 93q0 14 -1 36q-2 27 -3 35zM245 567l-146 -35q-32 -8 -25 -8q-13 0 -13 16q0 8 9.5 11.5
t18.5 7.5q41 23 83 46.5t65 23.5q32 0 32 -31q0 -25 -24 -31z" />
    <glyph glyph-name="agrave" unicode="&#xe0;" horiz-adv-x="388" 
d="M363 33q-23 4 -26 12q-17 -49 -58 -49q-22 0 -34 13q-8 9 -17 35q-31 -50 -99 -50q-126 0 -126 131q0 73 56 116q23 17 103 49q56 23 56 49q0 51 -42 51q-45 0 -45 -36q0 -24 16 -43q-10 -2 -16 -2q-4 0 -10.5 6.5t-9.5 8.5q-4 -27 -33 -27q-26 0 -30 27q-24 -18 -31 -18
h-6q14 18 14 54q0 129 148 129q151 0 146 -120q12 15 19 21q11 11 22 16q-28 -113 -28 -168q0 -92 31 -205zM224 259q-50 -34 -60 -44q-32 -30 -32 -64q0 -56 38 -56q58 0 58 93q0 14 -1 36q-2 27 -3 35zM98 567l147 -35q32 -8 24 -8q13 0 13 16q0 8 -9.5 11.5t-17.5 7.5
q-41 23 -82 47q-44 23 -67 23q-31 0 -31 -31q0 -25 23 -31z" />
    <glyph glyph-name="acircumflex" unicode="&#xe2;" horiz-adv-x="388" 
d="M363 33q-23 4 -26 12q-17 -49 -58 -49q-22 0 -34 13q-8 9 -17 35q-31 -50 -99 -50q-126 0 -126 131q0 73 56 116q23 17 103 49q56 23 56 49q0 51 -42 51q-45 0 -45 -36q0 -24 16 -43q-10 -2 -16 -2q-4 0 -10.5 6.5t-9.5 8.5q-4 -27 -33 -27q-26 0 -30 27q-24 -18 -31 -18
h-6q14 18 14 54q0 129 148 129q151 0 146 -120q12 15 19 21q11 11 22 16q-28 -113 -28 -168q0 -92 31 -205zM224 259q-50 -34 -60 -44q-32 -30 -32 -64q0 -56 38 -56q58 0 58 93q0 14 -1 36q-2 27 -3 35zM296 520q-47 17 -117 39q-39 -10 -113 -38q-14 -7 -18 8q-4 13 9 19
q21 9 56 32q21 15 43 31q9 15 23 13q15 2 23 -13q32 -24 99 -63q13 -6 9 -19q-3 -13 -14 -9z" />
    <glyph glyph-name="adieresis" unicode="&#xe4;" horiz-adv-x="388" 
d="M363 33q-23 4 -26 12q-17 -49 -58 -49q-22 0 -34 13q-8 9 -17 35q-31 -50 -99 -50q-126 0 -126 131q0 73 56 116q23 17 103 49q56 23 56 49q0 51 -42 51q-45 0 -45 -36q0 -24 16 -43q-10 -2 -16 -2q-4 0 -10.5 6.5t-9.5 8.5q-4 -27 -33 -27q-26 0 -30 27q-24 -18 -31 -18
h-6q14 18 14 54q0 129 148 129q151 0 146 -120q12 15 19 21q11 11 22 16q-28 -113 -28 -168q0 -92 31 -205zM224 259q-50 -34 -60 -44q-32 -30 -32 -64q0 -56 38 -56q58 0 58 93q0 14 -1 36q-2 27 -3 35zM209 582q0 17 12 29.5t30 12.5q17 0 29.5 -12.5t12.5 -29.5
t-12.5 -29.5t-29.5 -12.5q-18 0 -30 12.5t-12 29.5zM64 582q0 17 12.5 29.5t29.5 12.5q18 0 30 -12.5t12 -29.5t-12 -29.5t-30 -12.5q-17 0 -29.5 12.5t-12.5 29.5z" />
    <glyph glyph-name="atilde" unicode="&#xe3;" horiz-adv-x="388" 
d="M363 33q-23 4 -26 12q-17 -49 -58 -49q-22 0 -34 13q-8 9 -17 35q-31 -50 -99 -50q-126 0 -126 131q0 73 56 116q23 17 103 49q56 23 56 49q0 51 -42 51q-45 0 -45 -36q0 -24 16 -43q-10 -2 -16 -2q-4 0 -10.5 6.5t-9.5 8.5q-4 -27 -33 -27q-26 0 -30 27q-24 -18 -31 -18
h-6q14 18 14 54q0 129 148 129q151 0 146 -120q12 15 19 21q11 11 22 16q-28 -113 -28 -168q0 -92 31 -205zM224 259q-50 -34 -60 -44q-32 -30 -32 -64q0 -56 38 -56q58 0 58 93q0 14 -1 36q-2 27 -3 35zM230 527q-26 -1 -45.5 10t-39.5 23q-14 5 -25 5q-24 0 -40 -26
q-1 -1 -37 8q1 31 28.5 52.5t61.5 21.5q22 0 40 -12q41 -26 60 -26q12 0 28 7.5t18 16.5q2 4 45 -10q-11 -34 -44 -53q-25 -15 -50 -17z" />
    <glyph glyph-name="aring" unicode="&#xe5;" horiz-adv-x="388" 
d="M363 33q-23 4 -26 12q-17 -49 -58 -49q-22 0 -34 13q-8 9 -17 35q-31 -50 -99 -50q-126 0 -126 131q0 73 56 116q23 17 103 49q56 23 56 49q0 51 -42 51q-45 0 -45 -36q0 -24 16 -43q-10 -2 -16 -2q-4 0 -10.5 6.5t-9.5 8.5q-4 -27 -33 -27q-26 0 -30 27q-24 -18 -31 -18
h-6q14 18 14 54q0 129 148 129q151 0 146 -120q12 15 19 21q11 11 22 16q-28 -113 -28 -168q0 -92 31 -205zM224 259q-50 -34 -60 -44q-32 -30 -32 -64q0 -56 38 -56q58 0 58 93q0 14 -1 36q-2 27 -3 35zM170 655q27 0 47 -19t20 -45q0 -27 -20 -46t-47 -19t-47 19t-20 46
q0 26 20 45t47 19zM170 625q-15 0 -26 -10t-11 -24t11 -24.5t26 -10.5q16 0 26.5 10.5t10.5 24.5t-10.5 24t-26.5 10z" />
    <glyph glyph-name="ccedilla" unicode="&#xe7;" horiz-adv-x="375" 
d="M274 -102q-2 -37 -37 -52q-27 -13 -63 -9q-47 5 -65 26l23 19q13 -15 42 -15q33 0 33 37q0 32 -38 32q-28 0 -39 -9q1 7 8 74q-95 24 -95 101q-11 -17 -32 -23q24 74 24 168q0 84 -24 159q21 -2 33 -22q1 53 43 82q37 26 92 26q52 0 92 -26q44 -30 48 -80q2 -33 4 -44
q4 -20 15 -41h-10q-13 0 -22 13q-9 -25 -32 -25q-14 0 -18 7t-9 16q-9 -16 -31 -16q10 24 10 37q0 45 -39 45t-48 -75q-2 -19 -2 -105q0 -101 47 -101q44 0 44 52q0 10 -11 39q8 -5 23 -15l14 22t27 11q25 0 35 -30q12 17 27 18q-13 -18 -13 -44q0 -17 -6 -47
q-25 -109 -135 -109q-11 0 -23 1l-4 -33q6 -1 19 -1q8 1 16 1q32 0 53 -14q25 -17 24 -50z" />
    <glyph glyph-name="eacute" unicode="&#xe9;" horiz-adv-x="356" 
d="M307 131q4 -141 -145 -141q-62 0 -91 32q-22 26 -39 95q-10 -11 -16 -12q-11 0 -16 -2q21 72 19 138q0 35 -18 144q6 -1 17.5 -10t14.5 -14q-3 54 30 90q38 41 109 41q72 0 114 -54q36 -45 36 -103q0 -47 -24 -64q19 -6 23 -23v-17q-46 8 -50 8l-155 1q-1 -31 -1 -47
q0 -49 7 -70q12 -38 49 -38q49 0 44 84q5 -3 23 -9q2 27 26 27q18 0 21 -6q2 -10 5 -20l23 6q-6 -12 -6 -36zM226 294q2 10 2 23q0 79 -56 79q-60 0 -60 -79q0 -12 1 -23h113zM235 567l-146 -35q-32 -8 -25 -8q-13 0 -13 16q0 8 9.5 11.5t18.5 7.5q41 23 83 46.5t65 23.5
q32 0 32 -31q0 -25 -24 -31z" />
    <glyph glyph-name="egrave" unicode="&#xe8;" horiz-adv-x="356" 
d="M307 131q4 -141 -145 -141q-62 0 -91 32q-22 26 -39 95q-10 -11 -16 -12q-11 0 -16 -2q21 72 19 138q0 35 -18 144q6 -1 17.5 -10t14.5 -14q-3 54 30 90q38 41 109 41q72 0 114 -54q36 -45 36 -103q0 -47 -24 -64q19 -6 23 -23v-17q-46 8 -50 8l-155 1q-1 -31 -1 -47
q0 -49 7 -70q12 -38 49 -38q49 0 44 84q5 -3 23 -9q2 27 26 27q18 0 21 -6q2 -10 5 -20l23 6q-6 -12 -6 -36zM226 294q2 10 2 23q0 79 -56 79q-60 0 -60 -79q0 -12 1 -23h113zM78 567l147 -35q31 -8 24 -8q13 0 13 16q0 8 -9.5 11.5t-17.5 7.5q-41 23 -82 47q-44 23 -67 23
q-31 0 -31 -31q0 -25 23 -31z" />
    <glyph glyph-name="ecircumflex" unicode="&#xea;" horiz-adv-x="356" 
d="M307 131q4 -141 -145 -141q-62 0 -91 32q-22 26 -39 95q-10 -11 -16 -12q-11 0 -16 -2q21 72 19 138q0 35 -18 144q6 -1 17.5 -10t14.5 -14q-3 54 30 90q38 41 109 41q72 0 114 -54q36 -45 36 -103q0 -47 -24 -64q19 -6 23 -23v-17q-46 8 -50 8l-155 1q-1 -31 -1 -47
q0 -49 7 -70q12 -38 49 -38q49 0 44 84q5 -3 23 -9q2 27 26 27q18 0 21 -6q2 -10 5 -20l23 6q-6 -12 -6 -36zM226 294q2 10 2 23q0 79 -56 79q-60 0 -60 -79q0 -12 1 -23h113zM276 520q-47 17 -117 39q-39 -10 -113 -38q-14 -7 -18 8q-4 13 9 19q21 9 56 32q21 15 43 31
q9 15 23 13q15 2 23 -13q32 -24 99 -63q13 -6 9 -19q-3 -13 -14 -9z" />
    <glyph glyph-name="edieresis" unicode="&#xeb;" horiz-adv-x="356" 
d="M307 131q4 -141 -145 -141q-62 0 -91 32q-22 26 -39 95q-10 -11 -16 -12q-11 0 -16 -2q21 72 19 138q0 35 -18 144q6 -1 17.5 -10t14.5 -14q-3 54 30 90q38 41 109 41q72 0 114 -54q36 -45 36 -103q0 -47 -24 -64q19 -6 23 -23v-17q-46 8 -50 8l-155 1q-1 -31 -1 -47
q0 -49 7 -70q12 -38 49 -38q49 0 44 84q5 -3 23 -9q2 27 26 27q18 0 21 -6q2 -10 5 -20l23 6q-6 -12 -6 -36zM226 294q2 10 2 23q0 79 -56 79q-60 0 -60 -79q0 -12 1 -23h113zM189 582q0 17 12 29.5t30 12.5q17 0 29.5 -12.5t12.5 -29.5t-12.5 -29.5t-29.5 -12.5
q-18 0 -30 12.5t-12 29.5zM44 582q0 17 12.5 29.5t29.5 12.5q18 0 30 -12.5t12 -29.5t-12 -29.5t-30 -12.5q-17 0 -29.5 12.5t-12.5 29.5z" />
    <glyph glyph-name="iacute" unicode="&#xed;" horiz-adv-x="207" 
d="M18 61l-14 -35q9 5 25 12q2 1 14 13q4 -28 12 -39q12 -15 40 -15q30 0 41.5 12t14.5 42q11 -10 32 -19l-11 29q-17 106 -17 179q0 99 19 179l9 35q-21 -10 -32 -19q-3 29 -14.5 41.5t-41.5 12.5q-28 0 -40 -15q-8 -11 -12 -40q-12 12 -14 13q-16 8 -25 12l14 -34
q24 -58 28 -180q-4 -127 -28 -184zM175 567l-146 -35q-32 -8 -25 -8q-13 0 -13 16q0 8 9.5 11.5t18.5 7.5q41 23 83 46.5t65 23.5q32 0 32 -31q0 -25 -24 -31z" />
    <glyph glyph-name="igrave" unicode="&#xec;" horiz-adv-x="207" 
d="M18 61l-14 -35q9 5 25 12q2 1 14 13q4 -28 12 -39q12 -15 40 -15q30 0 41.5 12t14.5 42q11 -10 32 -19l-11 29q-17 106 -17 179q0 99 19 179l9 35q-21 -10 -32 -19q-3 29 -14.5 41.5t-41.5 12.5q-28 0 -40 -15q-8 -11 -12 -40q-12 12 -14 13q-16 8 -25 12l14 -34
q24 -58 28 -180q-4 -127 -28 -184zM18 567l147 -35q31 -8 24 -8q13 0 13 16q0 8 -9.5 11.5t-17.5 7.5q-41 23 -82 47q-44 23 -67 23q-31 0 -31 -31q0 -25 23 -31z" />
    <glyph glyph-name="icircumflex" unicode="&#xee;" horiz-adv-x="207" 
d="M18 61l-14 -35q9 5 25 12q2 1 14 13q4 -28 12 -39q12 -15 40 -15q30 0 41.5 12t14.5 42q11 -10 32 -19l-11 29q-17 106 -17 179q0 99 19 179l9 35q-21 -10 -32 -19q-3 29 -14.5 41.5t-41.5 12.5q-28 0 -40 -15q-8 -11 -12 -40q-12 12 -14 13q-16 8 -25 12l14 -34
q24 -58 28 -180q-4 -127 -28 -184zM183 520q-38 17 -94 39q-31 -10 -90 -38q-12 -7 -15 8q-3 13 7 19q7 3 80 63q7 15 18 13q12 2 19 -13q25 -24 79 -63q10 -6 7 -19t-11 -9z" />
    <glyph glyph-name="idieresis" unicode="&#xef;" horiz-adv-x="207" 
d="M18 61l-14 -35q9 5 25 12q2 1 14 13q4 -28 12 -39q12 -15 40 -15q30 0 41.5 12t14.5 42q11 -10 32 -19l-11 29q-17 106 -17 179q0 99 19 179l9 35q-21 -10 -32 -19q-3 29 -14.5 41.5t-41.5 12.5q-28 0 -40 -15q-8 -11 -12 -40q-12 12 -14 13q-16 8 -25 12l14 -34
q24 -58 28 -180q-4 -127 -28 -184zM129 582q0 17 12 29.5t30 12.5q17 0 29.5 -12.5t12.5 -29.5t-12.5 -29.5t-29.5 -12.5q-18 0 -30 12.5t-12 29.5zM-16 582q0 17 12.5 29.5t29.5 12.5q18 0 30 -12.5t12 -29.5t-12 -29.5t-30 -12.5q-17 0 -29.5 12.5t-12.5 29.5z" />
    <glyph glyph-name="ntilde" unicode="&#xf1;" horiz-adv-x="414" 
d="M352 278q0 -83 7 -122l22 -114q-6 0 -12 1t-13 9q-3 0 -17 -29.5t-44 -29.5q-24 0 -38 18q-8 10 -19 39q-7 -2 -11.5 -5.5t-10.5 -2.5q30 59 30 234q0 119 -50 119q-49 0 -49 -151q0 -30 8 -101q7 -80 15 -99q-16 -1 -26 9l-12 -32q-12 -26 -45 -26q-30 0 -47 17.5
t-16 45.5q-10 -13 -11.5 -14t-11.5 -3q10 31 22 102t12 102q0 43 -10 110.5t-23 107.5q3 -3 23 -20q14 53 60 53q36 0 63 -49q43 48 95 48q75 0 110 -55q9 -29 9 -61q0 -22 -5 -56t-5 -45zM230 527q-26 -1 -45.5 10t-39.5 23q-14 5 -25 5q-24 0 -40 -26q-1 -1 -37 8
q1 31 28.5 52.5t61.5 21.5q22 0 40 -12q41 -26 60 -26q12 0 28 7.5t18 16.5q2 4 45 -10q-11 -34 -44 -53q-25 -15 -50 -17z" />
    <glyph glyph-name="oacute" unicode="&#xf3;" horiz-adv-x="377" 
d="M357 393q-21 -57 -21 -151q0 -108 19 -153q-8 -1 -13 4q-15 12 -16 13q-8 -46 -54.5 -79.5t-91.5 -30.5q-47 0 -93 32.5t-55 77.5q-1 -1 -15 -13q-6 -5 -14 -4q19 45 19 153q0 94 -20 151q21 0 36 -11q13 27 26 53q36 51 105 51q72 0 114 -48q18 -28 37 -56q16 11 37 11z
M229 174v125q0 32 -12 56q-15 31 -42 33q-50 0 -50 -85q0 -59 2 -129q0 -30 11 -51q14 -28 40 -26q49 0 51 77zM245 567l-146 -35q-32 -8 -25 -8q-13 0 -13 16q0 8 9.5 11.5t18.5 7.5q41 23 83 46.5t65 23.5q32 0 32 -31q0 -25 -24 -31z" />
    <glyph glyph-name="ograve" unicode="&#xf2;" horiz-adv-x="377" 
d="M357 393q-21 -57 -21 -151q0 -108 19 -153q-8 -1 -13 4q-15 12 -16 13q-8 -46 -54.5 -79.5t-91.5 -30.5q-47 0 -93 32.5t-55 77.5q-1 -1 -15 -13q-6 -5 -14 -4q19 45 19 153q0 94 -20 151q21 0 36 -11q13 27 26 53q36 51 105 51q72 0 114 -48q18 -28 37 -56q16 11 37 11z
M229 174v125q0 32 -12 56q-15 31 -42 33q-50 0 -50 -85q0 -59 2 -129q0 -30 11 -51q14 -28 40 -26q49 0 51 77zM98 567l147 -35q32 -8 24 -8q13 0 13 16q0 8 -9.5 11.5t-17.5 7.5q-41 23 -82 47q-44 23 -67 23q-31 0 -31 -31q0 -25 23 -31z" />
    <glyph glyph-name="ocircumflex" unicode="&#xf4;" horiz-adv-x="377" 
d="M357 393q-21 -57 -21 -151q0 -108 19 -153q-8 -1 -13 4q-15 12 -16 13q-8 -46 -54.5 -79.5t-91.5 -30.5q-47 0 -93 32.5t-55 77.5q-1 -1 -15 -13q-6 -5 -14 -4q19 45 19 153q0 94 -20 151q21 0 36 -11q13 27 26 53q36 51 105 51q72 0 114 -48q18 -28 37 -56q16 11 37 11z
M229 174v125q0 32 -12 56q-15 31 -42 33q-50 0 -50 -85q0 -59 2 -129q0 -30 11 -51q14 -28 40 -26q49 0 51 77zM286 520q-47 17 -117 39q-39 -10 -113 -38q-14 -7 -18 8q-4 13 9 19q21 9 56 32q21 15 43 31q9 15 23 13q15 2 23 -13q32 -24 99 -63q13 -6 9 -19q-3 -13 -14 -9
z" />
    <glyph glyph-name="odieresis" unicode="&#xf6;" horiz-adv-x="377" 
d="M357 393q-21 -57 -21 -151q0 -108 19 -153q-8 -1 -13 4q-15 12 -16 13q-8 -46 -54.5 -79.5t-91.5 -30.5q-47 0 -93 32.5t-55 77.5q-1 -1 -15 -13q-6 -5 -14 -4q19 45 19 153q0 94 -20 151q21 0 36 -11q13 27 26 53q36 51 105 51q72 0 114 -48q18 -28 37 -56q16 11 37 11z
M229 174v125q0 32 -12 56q-15 31 -42 33q-50 0 -50 -85q0 -59 2 -129q0 -30 11 -51q14 -28 40 -26q49 0 51 77zM209 582q0 17 12 29.5t30 12.5q17 0 29.5 -12.5t12.5 -29.5t-12.5 -29.5t-29.5 -12.5q-18 0 -30 12.5t-12 29.5zM64 582q0 17 12.5 29.5t29.5 12.5
q18 0 30 -12.5t12 -29.5t-12 -29.5t-30 -12.5q-17 0 -29.5 12.5t-12.5 29.5z" />
    <glyph glyph-name="otilde" unicode="&#xf5;" horiz-adv-x="377" 
d="M357 393q-21 -57 -21 -151q0 -108 19 -153q-8 -1 -13 4q-15 12 -16 13q-8 -46 -54.5 -79.5t-91.5 -30.5q-47 0 -93 32.5t-55 77.5q-1 -1 -15 -13q-6 -5 -14 -4q19 45 19 153q0 94 -20 151q21 0 36 -11q13 27 26 53q36 51 105 51q72 0 114 -48q18 -28 37 -56q16 11 37 11z
M229 174v125q0 32 -12 56q-15 31 -42 33q-50 0 -50 -85q0 -59 2 -129q0 -30 11 -51q14 -28 40 -26q49 0 51 77zM220 527q-26 -1 -45.5 10t-39.5 23q-14 5 -25 5q-24 0 -40 -26q-1 -1 -37 8q1 31 28.5 52.5t61.5 21.5q22 0 40 -12q41 -26 60 -26q12 0 28 7.5t18 16.5
q2 4 45 -10q-11 -34 -44 -53q-25 -15 -50 -17z" />
    <glyph glyph-name="uacute" unicode="&#xfa;" horiz-adv-x="419" 
d="M30 212q0 82 -6 122q-12 56 -23 113q7 0 14 -1q4 0 11 -9q5 0 8 14q4 18 11 26q12 14 40 14q29 0 41 -15q5 -6 17 -37q20 6 26 6q-32 -64 -32 -232q0 -119 49 -119q54 0 54 149q0 27 -10 102q-10 81 -18 100q16 1 26 -8q6 15 13 30q11 24 44 24q56 0 60 -58
q9 11 14.5 12.5t11.5 3.5q-10 -31 -21 -103.5t-11 -105.5q0 -104 35 -213q-4 1 -27 20q-13 -54 -60 -54q-36 0 -63 50q-43 -49 -95 -49q-74 0 -110 56q-9 28 -9 61q0 21 5 55t5 46zM265 567l-146 -35q-32 -8 -25 -8q-13 0 -13 16q0 8 9.5 11.5t18.5 7.5q41 23 83 46.5
t65 23.5q32 0 32 -31q0 -25 -24 -31z" />
    <glyph glyph-name="ugrave" unicode="&#xf9;" horiz-adv-x="419" 
d="M30 212q0 82 -6 122q-12 56 -23 113q7 0 14 -1q4 0 11 -9q5 0 8 14q4 18 11 26q12 14 40 14q29 0 41 -15q5 -6 17 -37q20 6 26 6q-32 -64 -32 -232q0 -119 49 -119q54 0 54 149q0 27 -10 102q-10 81 -18 100q16 1 26 -8q6 15 13 30q11 24 44 24q56 0 60 -58
q9 11 14.5 12.5t11.5 3.5q-10 -31 -21 -103.5t-11 -105.5q0 -104 35 -213q-4 1 -27 20q-13 -54 -60 -54q-36 0 -63 50q-43 -49 -95 -49q-74 0 -110 56q-9 28 -9 61q0 21 5 55t5 46zM108 567l147 -35q32 -8 24 -8q13 0 13 16q0 8 -9.5 11.5t-17.5 7.5q-41 23 -82 47
q-44 23 -67 23q-31 0 -31 -31q0 -25 23 -31z" />
    <glyph glyph-name="ucircumflex" unicode="&#xfb;" horiz-adv-x="419" 
d="M30 212q0 82 -6 122q-12 56 -23 113q7 0 14 -1q4 0 11 -9q5 0 8 14q4 18 11 26q12 14 40 14q29 0 41 -15q5 -6 17 -37q20 6 26 6q-32 -64 -32 -232q0 -119 49 -119q54 0 54 149q0 27 -10 102q-10 81 -18 100q16 1 26 -8q6 15 13 30q11 24 44 24q56 0 60 -58
q9 11 14.5 12.5t11.5 3.5q-10 -31 -21 -103.5t-11 -105.5q0 -104 35 -213q-4 1 -27 20q-13 -54 -60 -54q-36 0 -63 50q-43 -49 -95 -49q-74 0 -110 56q-9 28 -9 61q0 21 5 55t5 46zM296 520q-47 17 -117 39q-39 -10 -113 -38q-14 -7 -18 8q-4 13 9 19q21 9 56 32
q21 15 43 31q9 15 23 13q15 2 23 -13q32 -24 99 -63q13 -6 9 -19q-3 -13 -14 -9z" />
    <glyph glyph-name="udieresis" unicode="&#xfc;" horiz-adv-x="419" 
d="M30 212q0 82 -6 122q-12 56 -23 113q7 0 14 -1q4 0 11 -9q5 0 8 14q4 18 11 26q12 14 40 14q29 0 41 -15q5 -6 17 -37q20 6 26 6q-32 -64 -32 -232q0 -119 49 -119q54 0 54 149q0 27 -10 102q-10 81 -18 100q16 1 26 -8q6 15 13 30q11 24 44 24q56 0 60 -58
q9 11 14.5 12.5t11.5 3.5q-10 -31 -21 -103.5t-11 -105.5q0 -104 35 -213q-4 1 -27 20q-13 -54 -60 -54q-36 0 -63 50q-43 -49 -95 -49q-74 0 -110 56q-9 28 -9 61q0 21 5 55t5 46zM219 582q0 17 12 29.5t30 12.5q17 0 29.5 -12.5t12.5 -29.5t-12.5 -29.5t-29.5 -12.5
q-18 0 -30 12.5t-12 29.5zM74 582q0 17 12.5 29.5t29.5 12.5q18 0 30 -12.5t12 -29.5t-12 -29.5t-30 -12.5q-17 0 -29.5 12.5t-12.5 29.5z" />
    <glyph glyph-name="dagger" unicode="&#x2020;" 
 />
    <glyph glyph-name="degree" unicode="&#xb0;" horiz-adv-x="338" 
d="M140 690q55 0 93.5 -39t38.5 -94t-38.5 -94t-93.5 -39t-93.5 39t-38.5 94t38.5 94t93.5 39zM140 640q-34 0 -58 -24t-24 -59q0 -34 24 -58.5t58 -24.5t58 24.5t24 58.5q0 35 -24 59t-58 24z" />
    <glyph glyph-name="cent" unicode="&#xa2;" horiz-adv-x="375" 
d="M338 301h-10q-13 0 -22 13q-9 -25 -32 -25q-14 0 -18 7t-9 16q-9 -16 -31 -16q10 24 10 37q0 45 -39 45t-48 -75q-2 -19 -2 -105q0 -101 47 -101q44 0 44 52q0 10 -11 39q8 -5 23 -15l14 22t27 11q25 0 35 -30q12 17 27 18q-13 -18 -13 -44q0 -17 -6 -47
q-25 -109 -135 -109q-56 0 -97 25q-49 30 -49 83q-11 -17 -32 -23q24 74 24 168q0 84 -24 159q21 -2 33 -22q1 53 43 82q37 26 92 26q52 0 92 -26q44 -30 48 -80q2 -33 4 -44q4 -20 15 -41z" />
    <glyph glyph-name="sterling" unicode="&#xa3;" horiz-adv-x="511" 
d="M343 301h-121q-2 -23 -11 -55q0 -103 86 -103q77 0 158 45l2 -2q-4 -17 -16 -37q3 -6 24 -21q15 -11 15 -37q0 -42 -44 -51q3 -5 21 -16q14 -9 17 -23q-12 -1 -22 -1q-13 0 -37 6.5t-36 6.5q-13 0 -37.5 -7t-36.5 -7q-44 0 -84 35q-10 -14 -32.5 -24t-41.5 -10
q-57 0 -85 65l-30 -22q-20 -14 -34 -14l-1 -3l1 3v0q39 71 48 94.5t27 99.5q10 43 12 78h-82v57h81q-5 40 -26 78q-1 18 -19 45l-26 40l-19 30q15 0 50 -19q6 71 74 111q54 32 108 30q90 -3 134 -31q53 -34 63 -114q3 -23 6.5 -44.5t22.5 -40.5l1 -4q0 -5 -5 -5
q-16 0 -34 21q-17 -31 -48 -31q-28 0 -46 28l-3 1q-19 -11 -48 -17v5q10 15 19 29t9 34q0 36 -60 36q-19 0 -31 -23t-12 -47q0 -10 2 -17q18 -59 23 -95h124v-57z" />
    <glyph glyph-name="section" unicode="&#xa7;" 
 />
    <glyph glyph-name="bullet" unicode="&#x2022;" horiz-adv-x="435" 
d="M17 333q0 73 51.5 124.5t124.5 51.5t124.5 -51.5t51.5 -124.5t-51.5 -124.5t-124.5 -51.5t-124.5 51.5t-51.5 124.5z" />
    <glyph glyph-name="paragraph" unicode="&#xb6;" 
 />
    <glyph glyph-name="germandbls" unicode="&#xdf;" horiz-adv-x="432" 
d="M218 676q50 3 90 -19q51 -28 55 -88q3 -55 3 -60q0 -21 -7.5 -35.5t-33.5 -46.5q38 -20 61 -64.5t23 -100.5q0 -128 -36 -184q-45 -69 -167 -74l18 23q-26 15 -24 32q-3 29 24 32l-21 26q15 -4 27 -4q39 0 57 40q15 32 15 80q0 74 -17 110q-20 43 -73 55q-9 0 -16.5 9.5
t-7.5 21.5q0 23 27 33q16 2 33 26.5t17 48.5q0 48 -70 46q-37 -1 -54 -24q-13 -18 -13 -39q0 -28 -1 -83.5t-1 -83.5q0 -201 45 -323q-6 -7 -9 -7q-12 0 -34 27q-4 -31 -12 -41q-10 -13 -38 -13q-21 0 -32 18q-10 15 -9 36q-7 -6 -13.5 -11.5t-15.5 -5.5h-9q30 42 30 240
q0 58 -3 165q-3 93 -2 116q4 130 194 122z" />
    <glyph glyph-name="registered" unicode="&#xae;" horiz-adv-x="425" 
d="M182 322q-75 0 -128 54t-53 130q0 75 53 128t128 53t127.5 -53.5t52.5 -129.5q0 -75 -52.5 -128.5t-127.5 -53.5zM182 643q-58 1 -97 -39.5t-39 -99.5q0 -57 40.5 -98t95.5 -41t95 41t40 98t-40 97t-95 42zM187 600q11 4 32 -2q36 -11 36 -46q0 -45 -44 -54l49 -76h-45
l-49 75h-15v-75h-38v178h74zM188 568h-39v-29h44q25 0 25 18q0 11 -30 11z" />
    <glyph glyph-name="copyright" unicode="&#xa9;" horiz-adv-x="814" 
d="M366 -21q-149 0 -253 104.5t-104 254.5t104 255t253 105t253.5 -105t104.5 -255t-104.5 -254.5t-253.5 -104.5zM366 625q-116 0 -200.5 -84t-84.5 -203t84.5 -202.5t200.5 -83.5t200.5 83.5t84.5 202.5t-84.5 203t-200.5 84zM477 397q-23 81 -101 81q-60 0 -95 -39
t-35 -100q0 -55 31 -94q35 -43 97 -43q83 0 103 79h74q-17 -75 -63.5 -113.5t-112.5 -38.5q-92 0 -147 60t-55 152q0 89 56 150t147 61q65 0 112 -39q50 -42 63 -116h-74z" />
    <glyph glyph-name="trademark" unicode="&#x2122;" horiz-adv-x="492" 
d="M377 607l-56 -140h-27l-52 134v-134h-43v211h58l51 -129l52 129h59v-211h-42v140zM103 634v-167h-43v167h-66v44h173v-44h-64z" />
    <glyph glyph-name="acute" unicode="&#xb4;" horiz-adv-x="349" 
d="M250 746l-173 -41q-3 -1 -13.5 -5t-15.5 -4q-15 0 -15 19q0 9 11 13.5t21 8.5q49 28 98.5 55.5t76.5 27.5q37 0 37 -37q0 -30 -27 -37z" />
    <glyph glyph-name="dieresis" unicode="&#xa8;" horiz-adv-x="368" 
d="M217 760q0 21 14.5 35.5t34.5 14.5q21 0 35.5 -14.5t14.5 -35.5q0 -20 -14.5 -34.5t-35.5 -14.5q-20 0 -34.5 14.5t-14.5 34.5zM47 760q0 21 14.5 35.5t34.5 14.5q21 0 35.5 -14.5t14.5 -35.5q0 -20 -14.5 -34.5t-35.5 -14.5q-20 0 -34.5 14.5t-14.5 34.5z" />
    <glyph glyph-name="AE" unicode="&#xc6;" horiz-adv-x="796" 
d="M405 -6q-65 0 -74 52q-17 -14 -63 -28q32 32 52 99q7 21 6 42l-99 1q-1 -11 -5 -34q-7 -47 14 -105q-34 10 -50 27q-5 0 -14 -14q-12 -18 -23 -25q-18 -14 -46 -14q-45 0 -57 56q-25 -22 -57 -23v4q71 78 149 243q76 162 92 263q7 42 3 92q14 -3 22 -11q13 -15 17 -17
q24 64 78 64q72 0 96 -58q48 61 120 61q18 0 53.5 -8t54.5 -8q22 0 56 19l3 -4q-9 -26 -25 -38q32 -15 34 -17q12 -10 12 -35q0 -27 -15 -36l-36 -16q10 -14 19 -42h-4q-63 38 -132 38q-50 0 -66 -27q-10 -17 -16 -74q-2 -20 1 -25q7 -5 13 -10q57 1 109 46h5v-3
q0 -20 -19 -38q52 -24 52 -58q0 -24 -17 -33.5t-35 -17.5q15 -20 15 -37l-2 -1q-34 24 -50 32q-26 12 -56 10q-16 -1 -19 -10v-14q0 -119 63 -119q87 0 168 45l3 -2q-5 -16 -17 -37q2 -4 24 -21q16 -13 15 -37q-1 -43 -44 -51q2 -3 19 -15q14 -10 17 -23q-27 -2 -53.5 4.5
t-39.5 6.5t-42 -7t-42 -7q-44 0 -84 35q-27 -40 -83 -40zM326 245q1 67 0 156l-30 -52q-22 -38 -29 -51q-16 -32 -20 -53q9 -2 79 0z" />
    <glyph glyph-name="Oslash" unicode="&#xd8;" horiz-adv-x="481" 
d="M184 308l87 144q-8 76 -45 76q-42 0 -42 -115v-105zM273 369l-87 -142q11 -91 47 -91q40 0 40 133v100zM401 666h52l-61 -100l13 -31q10 9 19 18q8 6 29 6h6q-13 -19 -21 -109q-7 -68 -7 -118t15 -162q9 -65 9 -67q0 -1 -1 -1q-19 0 -47 31q-29 -71 -65 -102
q-43 -36 -115 -36q-94 0 -141 67l-36 -61h-53l64 105q-6 12 -12 27q-28 -31 -47 -31v1q0 2 8 67q15 112 15 162t-6 120q-9 91 -21 109h5q21 1 30 -8t19 -18q7 20 16 44q45 93 158 93q91 0 141 -62z" />
    <glyph glyph-name="plusminus" unicode="&#xb1;" 
 />
    <glyph glyph-name="yen" unicode="&#xa5;" horiz-adv-x="615" 
d="M103 317h97q-28 75 -97 174q-59 86 -111 138q17 5 28 5q7 0 50 -20q8 56 78 56q29 0 52 -15.5t30 -42.5q12 15 30 20q5 2 36 6q-28 -42 -28 -68q0 -69 54 -149q10 1 28 69q17 63 17 82q0 16 -11 34q-16 27 -18 32q22 -2 59 -23q14 55 67 55q32 0 46.5 -12t24.5 -43
q33 19 52 18l13 -1q-20 -22 -48 -57q-105 -148 -152 -258h96v-49h-114q-5 -20 -5 -34v-17h119v-49h-114q5 -27 21 -62q25 -51 34 -78q-22 5 -30 8q-14 5 -28 16q-16 -33 -29 -44q-18 -14 -51 -14q-62 0 -76 61q-24 -23 -51 -23q-3 1 -7 2q14 33 29 66q16 39 20 68h-109
l-2 49h113v28q0 10 -2 23h-109z" />
    <glyph glyph-name="uni00B5" unicode="&#xb5;" horiz-adv-x="504" 
d="M335 370l-117 -62q-1 -25 -1 -53q0 -112 80 -112q77 0 158 45l2 -2q-4 -17 -16 -37q3 -6 24 -21q15 -11 15 -37q0 -42 -44 -51q3 -5 21 -16q14 -9 17 -23q-12 -1 -22 -1q-13 0 -37 6.5t-36 6.5q-13 0 -37.5 -7t-36.5 -7q-44 0 -84 35q-10 -14 -32.5 -24t-41.5 -10
q-57 0 -85 65l-30 -22q-20 -14 -34 -14l-1 -3l1 3v0q48 90 59 192l-57 -30l-1 69l62 33v18v77q0 104 -57 249q29 -3 32 -4l22 -18q18 55 80 55q24 0 45 -21q11 -11 23 -32q2 0 5 1q29 21 61 22q-42 -116 -51 -262l114 61v-69z" />
    <glyph glyph-name="uni00B5" unicode="&#x3bc;" horiz-adv-x="504" 
d="M335 370l-117 -62q-1 -25 -1 -53q0 -112 80 -112q77 0 158 45l2 -2q-4 -17 -16 -37q3 -6 24 -21q15 -11 15 -37q0 -42 -44 -51q3 -5 21 -16q14 -9 17 -23q-12 -1 -22 -1q-13 0 -37 6.5t-36 6.5q-13 0 -37.5 -7t-36.5 -7q-44 0 -84 35q-10 -14 -32.5 -24t-41.5 -10
q-57 0 -85 65l-30 -22q-20 -14 -34 -14l-1 -3l1 3v0q48 90 59 192l-57 -30l-1 69l62 33v18v77q0 104 -57 249q29 -3 32 -4l22 -18q18 55 80 55q24 0 45 -21q11 -11 23 -32q2 0 5 1q29 21 61 22q-42 -116 -51 -262l114 61v-69z" />
    <glyph glyph-name="ordfeminine" unicode="&#xaa;" horiz-adv-x="526" 
d="M509 632q-2 -3 -22 -25q-34 -38 -116 -211q-84 -177 -84 -217q0 -39 38 -39q35 0 77 18q36 16 73 31v-10q0 -19 -19 -30q17 -8 29 -26.5t12 -37.5q0 -41 -44 -52q22 -13 23 -18q5 -20 7 -23q-7 2 -33 13q-20 9 -36 9q-18 0 -53.5 -9.5t-53.5 -9.5q-44 0 -78 32
q-4 -2 -26 -21q-13 -12 -46 -12q-66 0 -83 54q-2 7 -4 7q1 0 -13 -12.5t-28 -12.5l-27 3q50 73 129 229q92 180 92 229q0 36 -40 36q-72 0 -146 -42q-5 4 -5 10q0 8 15 29q-24 7 -31 24q-5 11 -5 39q0 31 44 49q-2 3 -14 14q-6 5 -9 20q24 -10 59 -10q16 0 48.5 6.5
t48.5 6.5q50 0 89 -32q29 20 41.5 24.5t44.5 4.5q70 0 74 -50q37 14 54 14q9 0 18 -2zM118 829q56 -20 138 -46q34 10 70.5 20.5t62.5 23.5q16 9 21 -9q5 -16 -11 -22q-25 -11 -65 -38q-26 -18 -51 -36q-10 -18 -27 -15q-17 -3 -28 15q-37 28 -116 74q-15 7 -11 22
q5 16 17 11z" />
    <glyph glyph-name="ordmasculine" unicode="&#xba;" horiz-adv-x="390" 
d="M164 373q0 15 -29 15q-38 0 -60.5 -8.5t-49.5 -35.5q-1 23 0 26q6 8 11 16q-33 9 -33 39q0 16 5 22t23 12q-5 8 -11 17q-1 2 3 21q18 -15 23.5 -17t29.5 -2q7 0 20 7t28 7q33 0 44 -8l26 -28q17 27 21 30q8 6 32 6q56 1 56 -42q23 24 50 21l-19 -35l-54 -92
q-31 -54 -47 -96q-45 -115 -45 -130t29 -15q75 0 120 44q1 -23 0 -26q-6 -8 -11 -16q34 -9 34 -35q0 -27 -32 -35q7 -10 13 -19q2 -4 -1 -23q-19 16 -24.5 18t-29.5 2q-7 0 -25 -7t-33 -7q-32 0 -44 12q-13 17 -26 33q-17 -31 -19 -32q-10 -10 -37 -10q-29 0 -39.5 9.5
t-10.5 37.5q-22 -23 -53 -19l25 30q49 58 98 185q42 108 42 128zM59 630q47 -17 117 -39q38 9 113 37q14 8 18 -7q4 -14 -9 -19q-21 -9 -56 -33q-21 -15 -43 -30q-9 -15 -23 -13q-15 -2 -24 13q-31 24 -98 63q-13 5 -10 19q4 13 15 9z" />
    <glyph glyph-name="ae" unicode="&#xe6;" horiz-adv-x="560" 
d="M224 259q-50 -34 -60 -44q-32 -30 -32 -64q0 -56 38 -56q58 0 58 93q0 14 -1 36q-2 27 -3 35zM522 131q4 -133 -152 -133h-24.5h-24.5q-28 0 -55 12q-31 14 -38 34q-31 -50 -99 -50q-126 0 -126 131q0 73 56 116q23 17 103 49q56 23 56 49q0 51 -42 51q-45 0 -45 -36
q0 -24 16 -43q-10 -2 -16 -2q-4 0 -10.5 6.5t-9.5 8.5q-4 -27 -33 -27q-26 0 -30 27q-24 -18 -31 -18h-6q14 18 14 54q0 130 148 130q71 0 110 -30q37 32 104 32q72 0 114 -54q36 -45 36 -103q0 -47 -24 -64q21 -7 21 -26t-1 -14q-43 8 -47 8l-155 1q1 -31 1 -47
q0 -51 6 -70q11 -38 48 -38q49 0 44 84q5 -3 23 -9q2 27 26 27q18 0 21 -6q2 -10 5 -20l23 6q-6 -12 -6 -36zM441 294q2 10 2 23q0 79 -56 79q-60 0 -60 -79q0 -12 1 -23h113z" />
    <glyph glyph-name="oslash" unicode="&#xf8;" horiz-adv-x="377" 
d="M126 202l91 153q-15 32 -42 33q-50 1 -50 -85q0 -29 1 -101zM229 297l-96 -162q13 -39 45 -38q49 1 51 77v123zM294 485h47l-42 -69q8 -15 21 -34q16 11 37 11q-21 -57 -21 -151q0 -108 19 -153q-8 -1 -13 4q-15 12 -16 13q-8 -45 -54 -78.5t-92 -31.5q-58 1 -105 42
l-21 -37h-47l40 68q-11 18 -15 37q-1 -1 -15 -13q-6 -5 -14 -4q19 45 19 153q0 94 -20 151q21 0 36 -11q13 27 26 53q36 51 105 51q64 0 103 -37z" />
    <glyph glyph-name="questiondown" unicode="&#xbf;" horiz-adv-x="460" 
d="M301 285q11 -16 11 -40q0 -53 -59 -111q-73 -75 -73 -133t46 -58q54 0 54 57q0 20 -9 34.5t-18 28.5q24 -1 26 -2q8 -6 17 -11q8 8 16 15q13 11 33 11q36 0 49 -23q6 8 43 17q-19 -19 -27 -50q-2 -11 -8 -56q-10 -83 -54.5 -118.5t-129.5 -37.5q-66 -2 -118 30
q-59 37 -67 105q-29 -16 -43 -16q40 50 44 77t9 53q14 45 74 88q66 49 66 114q0 14 -3 25l32 -15q8 21 32 21q22 0 31 -21zM164 481q9 0 25 -12q17 19 49 19q16 0 31 -9q8 -6 17 -13q17 16 32 16q-16 -38 -16 -75q0 -19 6 -37t12 -34q-21 2 -32 15q-25 -31 -46 -31
q-17 0 -32 14l-14 16q-1 0 -10 -9q-7 -5 -22 -6q12 42 12 75q0 15 -6 42.5t-6 28.5z" />
    <glyph glyph-name="exclamdown" unicode="&#xa1;" horiz-adv-x="322" 
d="M0 -152q49 81 89 265q29 135 29 151l21 16q7 -2 23 -16q9 -78 25 -148q38 -168 103 -272q-23 0 -36 6q-4 2 -32 20q-19 -35 -31 -45q-17 -16 -50 -16q-31 0 -50 18q-13 12 -28 44q-9 -6 -19 -11q-20 -11 -44 -12zM70 471q9 -1 24 -11q21 24 48 24q15 0 25 -12
q6 -8 13 -15q16 14 30 14q-16 -34 -16 -69q0 -18 6 -34.5t11 -31.5q-19 2 -30 14q-23 -29 -42 -29q-15 0 -27 14l-12 14q-1 0 -8.5 -6.5t-20.5 -6.5q2 7 12 65q1 8 1 16q0 18 -7 36.5t-7 17.5z" />
    <glyph glyph-name="logicalnot" unicode="&#xac;" 
 />
    <glyph glyph-name="florin" unicode="&#x192;" horiz-adv-x="528" 
d="M3 417h52v3q0 24 -19.5 93t-19.5 90q0 24 16 24q14 0 42 -19q20 59 84 59q27 0 62 -32q42 34 76 34q18 0 53.5 -8t54.5 -8q9 0 26.5 6.5t24.5 12.5h5l3 -4q-9 -26 -25 -38q32 -15 34 -17q12 -10 12 -35q0 -27 -15 -36l-36 -16q10 -14 19 -42l-17 13q-53 31 -115 31
q-31 0 -61 -8q-43 -13 -62 -103h129v-49h-136q-2 -25 -1 -51h137v-49h-132q21 -125 100 -125q77 0 158 45l13 -2q-5 -16 -17 -37q2 -4 24 -21q16 -13 15 -37q-1 -43 -44 -51q2 -3 20 -15q15 -10 18 -24q-12 -1 -22 -1q-22 0 -41.5 6.5t-31.5 6.5q-13 0 -42 -7t-42 -7
q-44 0 -84 35q-23 -34 -64 -34q-30 0 -46 18q-8 10 -25 46q-24 -16 -39 -16q-28 0 -28 56q0 37 21 164h-34v49h42q4 29 6 51h-48v49z" />
    <glyph glyph-name="guillemotleft" unicode="&#xab;" horiz-adv-x="299" 
d="M127 455q-21 -55 -46 -137q10 -35 19 -69q12 -39 25 -64q9 -17 -9 -21q-16 -5 -22 10q-11 25 -39 66q-17 25 -35 51q-18 10 -16 27q-2 17 16 27q28 37 74 117q6 15 22 10q16 -4 11 -17zM257 455q-21 -55 -46 -137q10 -35 19 -69q12 -39 25 -64q9 -17 -9 -21
q-16 -5 -22 10q-11 25 -39 66q-17 25 -35 51q-18 10 -16 27q-2 17 16 27q28 37 74 117q6 15 22 10q16 -4 11 -17z" />
    <glyph glyph-name="guillemotright" unicode="&#xbb;" horiz-adv-x="299" 
d="M134 180q21 56 47 138q-10 35 -20 69q-11 39 -25 64q-8 17 9 21q16 5 23 -10q10 -25 38 -66q18 -25 36 -51q17 -10 15 -27q2 -17 -15 -27q-28 -37 -74 -117q-7 -15 -23 -10q-15 4 -11 16zM4 180q21 56 47 138q-10 35 -20 69q-11 39 -25 64q-8 17 9 21q16 5 23 -10
q10 -25 38 -66q18 -25 36 -51q17 -10 15 -27q2 -17 -15 -27q-28 -37 -74 -117q-7 -15 -23 -10q-15 4 -11 16z" />
    <glyph glyph-name="ellipsis" unicode="&#x2026;" horiz-adv-x="864" 
d="M518 16q-11 1 -28 14q-26 -29 -62 -29q-18 0 -30 14l-16 18q-19 -17 -36 -17q13 30 16 41.5t3 42.5q0 21 -7 40.5t-13 37.5q23 -2 35 -17q28 35 51 35q19 0 35 -16q8 -9 16 -17q1 0 12 9q7 7 23 7q-13 -46 -13 -83q0 -17 7 -47.5t7 -32.5zM818 16q-11 1 -28 14
q-26 -29 -62 -29q-18 0 -30 14l-16 18q-19 -17 -36 -17q13 30 16 41.5t3 42.5q0 21 -7 40.5t-13 37.5q23 -2 35 -17q28 35 51 35q19 0 35 -16q8 -9 16 -17q1 0 12 9q7 7 23 7q-13 -46 -13 -83q0 -17 7 -47.5t7 -32.5zM218 16q-11 1 -28 14q-26 -29 -62 -29q-18 0 -30 14
l-16 18q-19 -17 -36 -17q13 30 16 41.5t3 42.5q0 21 -7 40.5t-13 37.5q23 -2 35 -17q28 35 51 35q19 0 35 -16q8 -9 16 -17q1 0 12 9q7 7 23 7q-13 -46 -13 -83q0 -17 7 -47.5t7 -32.5z" />
    <glyph glyph-name="uni00A0" unicode="&#xa0;" horiz-adv-x="163" 
 />
    <glyph glyph-name="Agrave" unicode="&#xc0;" horiz-adv-x="599" 
d="M577 35l-1 -3q-33 8 -59 26q-14 -35 -33.5 -49t-58.5 -14q-41 0 -55 15q-18 24 -35 48q-20 -18 -56 -29q14 15 22 56q7 34 7 63l-3 14h-76q-6 -17 -6 -35q0 -21 11 -50l18 -48q-35 9 -53 26q-6 0 -12 -15q-9 -20 -19 -29q-16 -15 -44 -15q-45 0 -66 56q-21 -22 -52 -23
l-2 4q59 78 111 243q51 162 51 263q0 47 -10 91q17 -3 24 -11q13 -13 18 -16q6 27 31 45.5t53 18.5q68 0 86 -57q11 12 19 14q12 4 24 7l3 -4q-11 -36 -11 -82q0 -221 174 -510zM296 246q-20 94 -31 110l-3 -2q-22 -60 -24 -108h16h42zM194 746l172 -41l15 -5q9 -4 14 -4
q16 0 16 19q0 9 -11.5 13.5t-21.5 8.5l-96 56q-52 27 -78 27q-38 0 -38 -37q0 -30 28 -37z" />
    <glyph glyph-name="Atilde" unicode="&#xc3;" horiz-adv-x="599" 
d="M577 35l-1 -3q-33 8 -59 26q-14 -35 -33.5 -49t-58.5 -14q-41 0 -55 15q-18 24 -35 48q-20 -18 -56 -29q14 15 22 56q7 34 7 63l-3 14h-76q-6 -17 -6 -35q0 -21 11 -50l18 -48q-35 9 -53 26q-6 0 -12 -15q-9 -20 -19 -29q-16 -15 -44 -15q-45 0 -66 56q-21 -22 -52 -23
l-2 4q59 78 111 243q51 162 51 263q0 47 -10 91q17 -3 24 -11q13 -13 18 -16q6 27 31 45.5t53 18.5q68 0 86 -57q11 12 19 14q12 4 24 7l3 -4q-11 -36 -11 -82q0 -221 174 -510zM296 246q-20 94 -31 110l-3 -2q-22 -60 -24 -108h16h42zM330 707q-26 -1 -45.5 10t-39.5 23
q-14 5 -25 5q-24 0 -40 -26q-1 -1 -39 3q-2 33 28 56q27 22 63 22q24 0 41 -11q41 -26 60 -26q12 0 28 7.5t18 16.5q2 4 45 -4q-11 -34 -44 -56q-26 -18 -50 -20z" />
    <glyph glyph-name="Otilde" unicode="&#xd5;" horiz-adv-x="481" 
d="M407 133q28 -31 47 -31q1 0 1 1q0 2 -9 67q-15 112 -15 162t7 118q8 90 21 109h-6q-21 0 -29 -6q-9 -9 -19 -18q-8 20 -19 44q-48 93 -160 93q-113 0 -158 -93l-16 -44q-10 9 -19 18t-30 8h-5q12 -18 21 -109q6 -70 6 -120t-15 -162q-8 -65 -8 -67v-1q19 0 47 31
q29 -72 64 -102q42 -36 114 -36t115 36q36 31 65 102zM273 413v-144q0 -133 -40 -133q-27 0 -40 54q-9 37 -9 79v144q0 115 42 115q47 0 47 -115zM270 707q-26 -1 -45.5 10t-39.5 23q-14 5 -25 5q-24 0 -40 -26q-1 -1 -39 3q-2 33 28 56q27 22 63 22q24 0 41 -11
q41 -26 60 -26q12 0 28 7.5t18 16.5q2 4 45 -4q-11 -34 -44 -56q-26 -18 -50 -20z" />
    <glyph glyph-name="OE" unicode="&#x152;" horiz-adv-x="740" 
d="M333 18q-38 -23 -96 -23q-72 0 -114 36q-35 30 -64 102q-28 -31 -47 -31v1q0 2 8 67q15 112 15 162t-6 120q-9 91 -21 109h5q21 1 30 -8t19 -18q7 20 16 44q45 93 158 93q77 0 108 -27q9 8 18 15t26 7q27 0 62 -32q42 34 76 34q18 0 53.5 -8t54.5 -8q9 0 26.5 6.5
t24.5 12.5h5l3 -4q-9 -26 -25 -38q32 -15 34 -17q12 -10 12 -35q0 -27 -15 -36l-36 -16q10 -14 19 -42h-4q-63 38 -132 38q-50 0 -66 -27q-10 -17 -16 -74q-2 -20 1 -25q7 -5 13 -10q57 1 109 46h5v-3q0 -20 -19 -38q52 -24 52 -58q0 -24 -17 -33.5t-35 -17.5q15 -20 15 -37
l-2 -1q-53 38 -115 38q-10 0 -10 -20q0 -119 63 -119q77 0 158 45l3 -2q-5 -16 -17 -37q2 -4 24 -21q16 -13 15 -37q-1 -43 -44 -51q2 -3 20 -15q15 -10 18 -24q-12 -1 -22 -1q-22 0 -41.5 6.5t-31.5 6.5q-13 0 -37 -7t-37 -7q-44 0 -84 35q-23 -34 -64 -34q-29 0 -51 18z
M283 269v144q0 115 -47 115q-42 0 -42 -115v-144q0 -42 9 -79q13 -54 40 -54q40 0 40 133z" />
    <glyph glyph-name="oe" unicode="&#x153;" horiz-adv-x="558" 
d="M229 174v125q0 33 -12 57q-15 31 -42 32q-50 1 -50 -85q0 -59 2 -129q0 -29 11 -51q14 -27 40 -26q49 2 51 77zM517 132q4 -142 -145 -142q-68 0 -97 40q-45 -35 -95 -34q-47 0 -93 32.5t-55 77.5q-1 -1 -15 -13q-6 -5 -14 -4q19 45 19 153q0 94 -20 151q21 0 36 -11
q13 27 26 53q36 51 105 51q63 0 102 -36q38 42 110 42t114 -53q36 -46 36 -104q0 -47 -23 -63q19 -7 22 -23q1 -9 1 -18q-46 9 -51 9h-154q-1 -30 -1 -47q0 -49 6 -70q12 -37 50 -37q48 0 43 84q5 -4 23 -9q2 26 26 26q19 0 22 -6l4 -20l23 6q-6 -12 -5 -35zM436 294
q1 11 1 23q0 80 -56 80q-60 0 -60 -79q0 -13 2 -23q109 0 113 -1z" />
    <glyph glyph-name="endash" unicode="&#x2013;" horiz-adv-x="463" 
d="M403 340q3 -10 3 -16q0 -7 -4 -14q-7 -11 -9 -17q12 -7 25 -16t13 -24q0 -39 -34 -46q6 -9 12 -17q2 -4 -3 -27q-31 14 -180 14q-164 0 -195 -14q-5 23 -3 27q6 8 12 17q-34 7 -34 46q0 15 13 24t25 16q-3 7 -9 16q-4 6 -4 11q0 6 4 16q33 -20 181 -20q38 0 94 5
q74 8 93 19z" />
    <glyph glyph-name="emdash" unicode="&#x2014;" horiz-adv-x="769" 
d="M713 340q3 -10 3 -16q0 -7 -4 -14q-7 -11 -9 -17q12 -7 25 -16t13 -24q0 -39 -34 -46q6 -9 12 -17q2 -4 -3 -27q-31 14 -330 14q-324 0 -355 -14q-5 23 -3 27q6 8 12 17q-34 7 -34 46q0 15 13 24t25 16q-3 7 -9 16q-4 6 -4 11q0 6 4 16q33 -20 341 -20q59 0 169 5
q149 8 168 19z" />
    <glyph glyph-name="quotedblleft" unicode="&#x201c;" horiz-adv-x="420" 
d="M17 548l-10 -53q-1 -6 21 -20q13 -7 26 -15q25 -16 71 -79l24 27q-1 2 -60 88q36 4 83 -15v5q0 1 -9.5 27t-9.5 41q0 43 22 87q-20 2 -25 -0.5t-19 -16.5q-9 13 -17 26q-11 14 -28 14q-25 0 -36 -18q-14 -23 -15 -23q-27 18 -38 16q19 -39 20 -40v-51zM217 548l-10 -53
q-1 -6 21 -20q13 -7 26 -15q25 -16 71 -79l24 27q-1 2 -60 88q36 4 83 -15v5q0 1 -9.5 27t-9.5 41q0 43 22 87q-20 2 -25 -0.5t-19 -16.5q-9 13 -17 26q-11 14 -28 14q-25 0 -36 -18q-14 -23 -15 -23q-27 18 -38 16q19 -39 20 -40v-51z" />
    <glyph glyph-name="quotedblright" unicode="&#x201d;" horiz-adv-x="420" 
d="M359 548l10 -53q1 -6 -21 -20q-13 -7 -26 -15q-25 -16 -71 -79l-24 27q1 2 60 88q-36 4 -83 -15v5q0 1 9.5 27t9.5 41q0 43 -22 87q20 2 25 -0.5t19 -16.5q9 13 18.5 26.5t26.5 13.5q25 0 36 -18q14 -23 15 -23q27 18 38 16q-19 -39 -20 -40v-51zM159 548l10 -53
q1 -6 -21 -20q-13 -7 -26 -15q-25 -16 -71 -79l-24 27q1 2 60 88q-36 4 -83 -15v5q0 1 9.5 27t9.5 41q0 43 -22 87q20 2 25 -0.5t19 -16.5q9 13 18.5 26.5t26.5 13.5q25 0 36 -18q14 -23 15 -23q27 18 38 16q-19 -39 -20 -40v-51z" />
    <glyph glyph-name="quoteleft" unicode="&#x2018;" horiz-adv-x="224" 
d="M18 548l-10 -53q-1 -6 22 -20q13 -7 26 -15q24 -16 70 -79l24 27q-1 2 -59 88q35 4 82 -15v5q0 1 -9.5 27t-9.5 41q0 43 22 87q-19 2 -26 -1q-3 -2 -18 -16q-8 13 -18 26.5t-27 13.5q-25 0 -36 -18q-14 -23 -15 -23q-27 18 -38 16q20 -39 20 -40v-51z" />
    <glyph glyph-name="quoteright" unicode="&#x2019;" horiz-adv-x="246" 
d="M179 548l10 -53q1 -6 -21 -20q-13 -7 -26 -15q-25 -16 -71 -79l-24 27q1 2 60 88q-36 4 -83 -15v5q0 1 9.5 27t9.5 41q0 43 -22 87q20 2 25 -0.5t19 -16.5q9 13 18.5 26.5t26.5 13.5q25 0 36 -18q14 -23 15 -23q27 18 38 16q-19 -39 -20 -40v-51z" />
    <glyph glyph-name="divide" unicode="&#xf7;" 
 />
    <glyph glyph-name="ydieresis" unicode="&#xff;" horiz-adv-x="395" 
d="M263 -75q-14 -4 -21 7l-11 15l-22 -58q-25 -46 -91 -45q-34 0 -59 29q-24 26 -27 63q-16 -20 -30 -20q-3 0 -2 2q6 18 6 71q0 27 -10 74q7 1 11 -2.5t8 -7.5q8 17 23 17q12 0 17 -8l3.5 -7t3.5 -3q1 0 8.5 6t10.5 4q-5 -30 -5 -65q0 -22 14 -26q5 -1 17 -1q22 0 22 57
q0 46 -25 137q-22 81 -43 162q-30 100 -63 134q23 6 35 -8q10 34 43 37q30 0 39.5 -7t21.5 -33q9 9 12 10q10 0 19 1q-9 -13 -11 -23.5t-1 -20.5q1 -15 1 -14q0 -48 13 -104l28 -100h8q11 38 15 106l4 96q1 23 -14 60h19q5 -2 15 -14q6 14 12.5 28.5t33.5 14.5t34 -13.5
t12 -26.5q7 3 14 7q13 6 27 4l-29 -49q-67 -114 -76 -253q-7 -28 -17 -89q-7 -48 3 -115q1 -5 4 -29zM209 582q0 17 12 29.5t30 12.5q17 0 29.5 -12.5t12.5 -29.5t-12.5 -29.5t-29.5 -12.5q-18 0 -30 12.5t-12 29.5zM64 582q0 17 12.5 29.5t29.5 12.5q18 0 30 -12.5
t12 -29.5t-12 -29.5t-30 -12.5q-17 0 -29.5 12.5t-12.5 29.5z" />
    <glyph glyph-name="Ydieresis" unicode="&#x178;" horiz-adv-x="615" 
d="M-8 629q17 5 28 5q7 0 50 -20q8 56 78 56q29 0 52 -15.5t30 -42.5q12 15 30 20q5 2 36 6q-28 -42 -28 -68q0 -69 54 -149q10 1 28 69q17 63 17 82q0 16 -11 34q-16 27 -18 32q22 -2 59 -23q14 55 67 55q32 0 46.5 -12t24.5 -43q33 19 52 18l13 -1q-20 -22 -48 -57
q-59 -82 -106 -167q-69 -122 -69 -174q0 -65 17 -107q22 -49 43 -99q-22 5 -30 8q-14 5 -28 16q-16 -33 -29 -44q-18 -14 -51 -14q-62 0 -76 61q-24 -23 -51 -23q-3 1 -7 2q20 48 40 97q11 34 11 114q0 70 -84 203q-70 111 -140 181zM327 750q0 21 14.5 35.5t34.5 14.5
q21 0 35.5 -14.5t14.5 -35.5q0 -20 -14.5 -34.5t-35.5 -14.5q-20 0 -34.5 14.5t-14.5 34.5zM157 750q0 21 14.5 35.5t34.5 14.5q21 0 35.5 -14.5t14.5 -35.5q0 -20 -14.5 -34.5t-35.5 -14.5q-20 0 -34.5 14.5t-14.5 34.5z" />
    <glyph glyph-name="currency" unicode="&#xa4;" 
 />
    <glyph glyph-name="guilsinglleft" unicode="&#x2039;" horiz-adv-x="179" 
d="M127 455q-21 -55 -46 -137q10 -35 19 -69q12 -39 25 -64q9 -17 -9 -21q-16 -5 -22 10q-11 25 -39 66q-17 25 -35 51q-18 10 -16 27q-2 17 16 27q28 37 74 117q6 15 22 10q16 -4 11 -17z" />
    <glyph glyph-name="guilsinglright" unicode="&#x203a;" horiz-adv-x="179" 
d="M4 180q21 56 47 138q-10 35 -20 69q-11 39 -25 64q-8 17 9 21q16 5 23 -10q10 -25 38 -66q18 -25 36 -51q17 -10 15 -27q2 -17 -15 -27q-28 -37 -74 -117q-7 -15 -23 -10q-15 4 -11 16z" />
    <glyph glyph-name="daggerdbl" unicode="&#x2021;" 
 />
    <glyph glyph-name="periodcentered" unicode="&#xb7;" horiz-adv-x="215" 
d="M22 332q0 33 23 55.5t55 22.5t55 -22.5t23 -55.5q0 -32 -23 -54.5t-55 -22.5t-55 22.5t-23 54.5z" />
    <glyph glyph-name="periodcentered" unicode="&#x2219;" horiz-adv-x="215" 
d="M22 332q0 33 23 55.5t55 22.5t55 -22.5t23 -55.5q0 -32 -23 -54.5t-55 -22.5t-55 22.5t-23 54.5z" />
    <glyph glyph-name="quotesinglbase" unicode="&#x201a;" horiz-adv-x="225" 
d="M189 165q-22 -50 -22 -84q0 -8 13 -70q-18 -9 -55 -28q-32 -18 -71 -68q-16 9 -34 28q19 14 65 77q-21 2 -42 -9t-31 -12q18 40 18 45q0 77 -23 121q25 0 40 -16q1 0 16 17.5t34 17.5q22 0 37 -16q7 -9 14 -17q16 10 18 10.5t23 3.5z" />
    <glyph glyph-name="quotedblbase" unicode="&#x201e;" horiz-adv-x="429" 
d="M399 165q-22 -50 -22 -84q0 -8 13 -70q-18 -9 -55 -28q-32 -18 -71 -68q-16 9 -34 28q19 14 65 77q-21 2 -42 -9t-31 -12q18 40 18 45q0 77 -23 121q25 0 40 -16q1 0 16 17.5t34 17.5q22 0 37 -16q7 -9 14 -17q16 10 18 10.5t23 3.5zM189 165q-22 -50 -22 -84
q0 -8 13 -70q-18 -9 -55 -28q-32 -18 -71 -68q-16 9 -34 28q19 14 65 77q-21 2 -42 -9t-31 -12q18 40 18 45q0 77 -23 121q25 0 40 -16q1 0 16 17.5t34 17.5q22 0 37 -16q7 -9 14 -17q16 10 18 10.5t23 3.5z" />
    <glyph glyph-name="perthousand" unicode="&#x2030;" 
 />
    <glyph glyph-name="Acircumflex" unicode="&#xc2;" horiz-adv-x="599" 
d="M577 35l-1 -3q-33 8 -59 26q-14 -35 -33.5 -49t-58.5 -14q-41 0 -55 15q-18 24 -35 48q-20 -18 -56 -29q14 15 22 56q7 34 7 63l-3 14h-76q-6 -17 -6 -35q0 -21 11 -50l18 -48q-35 9 -53 26q-6 0 -12 -15q-9 -20 -19 -29q-16 -15 -44 -15q-45 0 -66 56q-21 -22 -52 -23
l-2 4q59 78 111 243q51 162 51 263q0 47 -10 91q17 -3 24 -11q13 -13 18 -16q6 27 31 45.5t53 18.5q68 0 86 -57q11 12 19 14q12 4 24 7l3 -4q-11 -36 -11 -82q0 -221 174 -510zM296 246q-20 94 -31 110l-3 -2q-22 -60 -24 -108h16h42zM413 697q-56 20 -137 46
q-35 -10 -69 -20q-39 -11 -65 -24q-16 -9 -21 9q-4 15 11 22q25 11 66 38l50 36q11 18 28 15q17 3 27 -15q37 -28 116 -74q15 -7 11 -22q-4 -16 -17 -11z" />
    <glyph glyph-name="Ecircumflex" unicode="&#xca;" horiz-adv-x="528" 
d="M484 578q0 -27 -15 -36l-36 -16q10 -14 19 -42h-4q-63 38 -132 38q-50 0 -66 -27q-10 -17 -16 -74q-2 -20 1 -25q7 -5 13 -10q57 1 109 46h5v-3q0 -20 -19 -38q52 -24 52 -58q0 -24 -17 -33.5t-35 -17.5q15 -20 15 -37l-2 -1q-53 38 -115 38q-10 0 -10 -20
q0 -119 63 -119q77 0 158 45l3 -2q-5 -16 -17 -37q2 -4 24 -21q16 -13 15 -37q0 -42 -44 -51q2 -3 20 -15q15 -10 18 -24q-12 -1 -22 -1q-22 0 -41.5 6.5t-31.5 6.5q-13 0 -37 -7t-37 -7q-44 0 -84 35q-23 -34 -64 -34q-55 0 -85 69q-16 -11 -31 -22q-20 -14 -33 -14l-2 5
q41 86 54 181q10 66 10 187q0 87 -56 229l26 -2q11 -3 20 -10q14 -13 17 -15q20 59 84 59q27 0 62 -32q42 34 76 34q18 0 53.5 -8t54.5 -8q9 0 26.5 6.5t24.5 12.5h5l3 -4q-9 -26 -25 -38q32 -15 34 -17q12 -10 12 -35zM373 697q-56 20 -137 46q-35 -10 -69 -20
q-39 -11 -65 -24q-16 -9 -21 9q-4 15 11 22q25 11 66 38l50 36q11 18 28 15q17 3 27 -15q37 -28 116 -74q15 -7 11 -22q-4 -16 -17 -11z" />
    <glyph glyph-name="Aacute" unicode="&#xc1;" horiz-adv-x="599" 
d="M577 35l-1 -3q-33 8 -59 26q-14 -35 -33.5 -49t-58.5 -14q-41 0 -55 15q-18 24 -35 48q-20 -18 -56 -29q14 15 22 56q7 34 7 63l-3 14h-76q-6 -17 -6 -35q0 -21 11 -50l18 -48q-35 9 -53 26q-6 0 -12 -15q-9 -20 -19 -29q-16 -15 -44 -15q-45 0 -66 56q-21 -22 -52 -23
l-2 4q59 78 111 243q51 162 51 263q0 47 -10 91q17 -3 24 -11q13 -13 18 -16q6 27 31 45.5t53 18.5q68 0 86 -57q11 12 19 14q12 4 24 7l3 -4q-11 -36 -11 -82q0 -221 174 -510zM296 246q-20 94 -31 110l-3 -2q-22 -60 -24 -108h16h42zM370 746l-173 -41q-3 -1 -13.5 -5
t-15.5 -4q-15 0 -15 19q0 9 11 13.5t21 8.5q49 28 98.5 55.5t76.5 27.5q37 0 37 -37q0 -30 -27 -37z" />
    <glyph glyph-name="Edieresis" unicode="&#xcb;" horiz-adv-x="528" 
d="M484 578q0 -27 -15 -36l-36 -16q10 -14 19 -42h-4q-63 38 -132 38q-50 0 -66 -27q-10 -17 -16 -74q-2 -20 1 -25q7 -5 13 -10q57 1 109 46h5v-3q0 -20 -19 -38q52 -24 52 -58q0 -24 -17 -33.5t-35 -17.5q15 -20 15 -37l-2 -1q-53 38 -115 38q-10 0 -10 -20
q0 -119 63 -119q77 0 158 45l3 -2q-5 -16 -17 -37q2 -4 24 -21q16 -13 15 -37q0 -42 -44 -51q2 -3 20 -15q15 -10 18 -24q-12 -1 -22 -1q-22 0 -41.5 6.5t-31.5 6.5q-13 0 -37 -7t-37 -7q-44 0 -84 35q-23 -34 -64 -34q-55 0 -85 69q-16 -11 -31 -22q-20 -14 -33 -14l-2 5
q41 86 54 181q10 66 10 187q0 87 -56 229l26 -2q11 -3 20 -10q14 -13 17 -15q20 59 84 59q27 0 62 -32q42 34 76 34q18 0 53.5 -8t54.5 -8q9 0 26.5 6.5t24.5 12.5h5l3 -4q-9 -26 -25 -38q32 -15 34 -17q12 -10 12 -35zM287 760q0 21 14.5 35.5t34.5 14.5q21 0 35.5 -14.5
t14.5 -35.5q0 -20 -14.5 -34.5t-35.5 -14.5q-20 0 -34.5 14.5t-14.5 34.5zM117 760q0 21 14.5 35.5t34.5 14.5q21 0 35.5 -14.5t14.5 -35.5q0 -20 -14.5 -34.5t-35.5 -14.5q-20 0 -34.5 14.5t-14.5 34.5z" />
    <glyph glyph-name="Egrave" unicode="&#xc8;" horiz-adv-x="528" 
d="M484 578q0 -27 -15 -36l-36 -16q10 -14 19 -42h-4q-63 38 -132 38q-50 0 -66 -27q-10 -17 -16 -74q-2 -20 1 -25q7 -5 13 -10q57 1 109 46h5v-3q0 -20 -19 -38q52 -24 52 -58q0 -24 -17 -33.5t-35 -17.5q15 -20 15 -37l-2 -1q-53 38 -115 38q-10 0 -10 -20
q0 -119 63 -119q77 0 158 45l3 -2q-5 -16 -17 -37q2 -4 24 -21q16 -13 15 -37q0 -42 -44 -51q2 -3 20 -15q15 -10 18 -24q-12 -1 -22 -1q-22 0 -41.5 6.5t-31.5 6.5q-13 0 -37 -7t-37 -7q-44 0 -84 35q-23 -34 -64 -34q-55 0 -85 69q-16 -11 -31 -22q-20 -14 -33 -14l-2 5
q41 86 54 181q10 66 10 187q0 87 -56 229l26 -2q11 -3 20 -10q14 -13 17 -15q20 59 84 59q27 0 62 -32q42 34 76 34q18 0 53.5 -8t54.5 -8q9 0 26.5 6.5t24.5 12.5h5l3 -4q-9 -26 -25 -38q32 -15 34 -17q12 -10 12 -35zM144 746l172 -41l15 -5q9 -4 14 -4q16 0 16 19
q0 9 -11.5 13.5t-21.5 8.5l-96 56q-52 27 -78 27q-38 0 -38 -37q0 -30 28 -37z" />
    <glyph glyph-name="Iacute" unicode="&#xcd;" horiz-adv-x="300" 
d="M218 353q0 -177 53 -322q-23 5 -30 8q-13 4 -28 16q-16 -33 -29 -44q-17 -14 -50 -14q-68 0 -81 60q-22 -22 -47 -22q-4 0 -7 2q32 85 43 146.5t11 153.5q0 101 -46 264q-4 11 -7 24q0 2 8 3q25 0 47 -27q4 28 26 47t50 19q64 0 85 -66q1 0 17.5 17t37.5 18
q-53 -177 -53 -283zM220 746l-173 -41q-3 -1 -13.5 -5t-15.5 -4q-15 0 -15 19q0 9 11 13.5t21 8.5q49 28 98.5 55.5t76.5 27.5q37 0 37 -37q0 -30 -27 -37z" />
    <glyph glyph-name="Icircumflex" unicode="&#xce;" horiz-adv-x="300" 
d="M218 353q0 -177 53 -322q-23 5 -30 8q-13 4 -28 16q-16 -33 -29 -44q-17 -14 -50 -14q-68 0 -81 60q-22 -22 -47 -22q-4 0 -7 2q32 85 43 146.5t11 153.5q0 101 -46 264q-4 11 -7 24q0 2 8 3q25 0 47 -27q4 28 26 47t50 19q64 0 85 -66l17 10.5t38 11.5
q-53 -177 -53 -270zM273 697q-56 20 -137 46q-35 -10 -69 -20q-39 -11 -65 -24q-16 -9 -21 9q-4 15 11 22q25 11 66 38l50 36q11 18 28 15q17 3 27 -15q37 -28 116 -74q15 -7 11 -22q-4 -16 -17 -11z" />
    <glyph glyph-name="Idieresis" unicode="&#xcf;" horiz-adv-x="300" 
d="M218 353q0 -177 53 -322q-23 5 -30 8q-13 4 -28 16q-16 -33 -29 -44q-17 -14 -50 -14q-68 0 -81 60q-22 -22 -47 -22q-4 0 -7 2q32 85 43 146.5t11 153.5q0 101 -46 264q-4 11 -7 24q0 2 8 3q25 0 47 -27q4 28 26 47t50 19q64 0 85 -66l17 10.5t38 11.5
q-53 -177 -53 -270zM172 750q0 21 14.5 35.5t34.5 14.5q21 0 35.5 -14.5t14.5 -35.5q0 -20 -14.5 -34.5t-35.5 -14.5q-20 0 -34.5 14.5t-14.5 34.5zM2 750q0 21 14.5 35.5t34.5 14.5q21 0 35.5 -14.5t14.5 -35.5q0 -20 -14.5 -34.5t-35.5 -14.5q-20 0 -34.5 14.5t-14.5 34.5
z" />
    <glyph glyph-name="Igrave" unicode="&#xcc;" horiz-adv-x="300" 
d="M218 353q0 -177 53 -322q-23 5 -30 8q-13 4 -28 16q-16 -33 -29 -44q-17 -14 -50 -14q-68 0 -81 60q-22 -22 -47 -22q-4 0 -7 2q32 85 43 146.5t11 153.5q0 101 -46 264q-4 11 -7 24q0 2 8 3q25 0 47 -27q4 28 26 47t50 19q64 0 85 -66l17 10.5t38 11.5
q-53 -177 -53 -270zM44 746l172 -41l15 -5q9 -4 14 -4q16 0 16 19q0 9 -11.5 13.5t-21.5 8.5l-96 56q-52 27 -78 27q-38 0 -38 -37q0 -30 28 -37z" />
    <glyph glyph-name="Oacute" unicode="&#xd3;" horiz-adv-x="481" 
d="M407 133q28 -31 47 -31q1 0 1 1q0 2 -9 67q-15 112 -15 162t7 118q8 90 21 109h-6q-21 0 -29 -6q-9 -9 -19 -18q-8 20 -19 44q-48 93 -160 93q-113 0 -158 -93l-16 -44q-10 9 -19 18t-30 8h-5q12 -18 21 -109q6 -70 6 -120t-15 -162q-8 -65 -8 -67v-1q19 0 47 31
q29 -72 64 -102q42 -36 114 -36t115 36q36 31 65 102zM273 413v-144q0 -133 -40 -133q-27 0 -40 54q-9 37 -9 79v144q0 115 42 115q47 0 47 -115zM310 746l-173 -41q-3 -1 -13.5 -5t-15.5 -4q-15 0 -15 19q0 9 11 13.5t21 8.5q49 28 98.5 55.5t76.5 27.5q37 0 37 -37
q0 -30 -27 -37z" />
    <glyph glyph-name="Ocircumflex" unicode="&#xd4;" horiz-adv-x="481" 
d="M407 133q28 -31 47 -31q1 0 1 1q0 2 -9 67q-15 112 -15 162t7 118q8 90 21 109h-6q-21 0 -29 -6q-9 -9 -19 -18q-8 20 -19 44q-48 93 -160 93q-113 0 -158 -93l-16 -44q-10 9 -19 18t-30 8h-5q12 -18 21 -109q6 -70 6 -120t-15 -162q-8 -65 -8 -67v-1q19 0 47 31
q29 -72 64 -102q42 -36 114 -36t115 36q36 31 65 102zM273 413v-144q0 -133 -40 -133q-27 0 -40 54q-9 37 -9 79v144q0 115 42 115q47 0 47 -115zM363 697q-56 20 -137 46q-35 -10 -69 -20q-39 -11 -65 -24q-16 -9 -21 9q-4 15 11 22q25 11 66 38l50 36q11 18 28 15
q17 3 27 -15q37 -28 116 -74q15 -7 11 -22q-4 -16 -17 -11z" />
    <glyph glyph-name="Ograve" unicode="&#xd2;" horiz-adv-x="481" 
d="M407 133q28 -31 47 -31q1 0 1 1q0 2 -9 67q-15 112 -15 162t7 118q8 90 21 109h-6q-21 0 -29 -6q-9 -9 -19 -18q-8 20 -19 44q-48 93 -160 93q-113 0 -158 -93l-16 -44q-10 9 -19 18t-30 8h-5q12 -18 21 -109q6 -70 6 -120t-15 -162q-8 -65 -8 -67v-1q19 0 47 31
q29 -72 64 -102q42 -36 114 -36t115 36q36 31 65 102zM273 413v-144q0 -133 -40 -133q-27 0 -40 54q-9 37 -9 79v144q0 115 42 115q47 0 47 -115zM124 746l172 -41l15 -5q9 -4 14 -4q16 0 16 19q0 9 -11.5 13.5t-21.5 8.5l-96 56q-52 27 -78 27q-38 0 -38 -37q0 -30 28 -37z
" />
    <glyph glyph-name="Uacute" unicode="&#xda;" horiz-adv-x="513" 
d="M439 355q0 -155 31 -248q-14 -1 -32.5 6.5t-24.5 18.5q-33 -79 -56 -102q-36 -35 -114 -35q-121 0 -177 134q-40 -28 -62 -26q39 80 39 237q0 198 -59 289q19 -1 55 -15q17 56 79 56q70 0 78 -65q13 17 39 23q-41 -133 -41 -360q0 -128 67 -128q49 0 49 157
q0 187 -58 332q33 -5 51 -25q22 66 66 66q33 -1 49 -17q10 -10 25 -45q16 10 24 14q14 8 26 8q-25 -53 -40 -135q-14 -75 -14 -140zM340 746l-173 -41q-3 -1 -13.5 -5t-15.5 -4q-15 0 -15 19q0 9 11 13.5t21 8.5q49 28 98.5 55.5t76.5 27.5q37 0 37 -37q0 -30 -27 -37z" />
    <glyph glyph-name="Ucircumflex" unicode="&#xdb;" horiz-adv-x="513" 
d="M439 355q0 -155 31 -248q-14 -1 -32.5 6.5t-24.5 18.5q-33 -79 -56 -102q-36 -35 -114 -35q-121 0 -177 134q-40 -28 -62 -26q39 80 39 237q0 198 -59 289q19 -1 55 -15q17 56 79 56q70 0 78 -65q13 17 39 23q-41 -133 -41 -360q0 -128 67 -128q49 0 49 157
q0 187 -58 332q33 -5 51 -25q22 66 66 66q33 -1 49 -17q10 -10 25 -45q16 10 24 14q14 8 26 8q-25 -53 -40 -135q-14 -75 -14 -140zM363 697q-56 20 -137 46q-35 -10 -69 -20q-39 -11 -65 -24q-16 -9 -21 9q-4 15 11 22q25 11 66 38l50 36q11 18 28 15q17 3 27 -15
q37 -28 116 -74q15 -7 11 -22q-4 -16 -17 -11z" />
    <glyph glyph-name="Ugrave" unicode="&#xd9;" horiz-adv-x="513" 
d="M439 355q0 -155 31 -248q-14 -1 -32.5 6.5t-24.5 18.5q-33 -79 -56 -102q-36 -35 -114 -35q-121 0 -177 134q-40 -28 -62 -26q39 80 39 237q0 198 -59 289q19 -1 55 -15q17 56 79 56q70 0 78 -65q13 17 39 23q-41 -133 -41 -360q0 -128 67 -128q49 0 49 157
q0 187 -58 332q33 -5 51 -25q22 66 66 66q33 -1 49 -17q10 -10 25 -45q16 10 24 14q14 8 26 8q-25 -53 -40 -135q-14 -75 -14 -140zM134 746l172 -41l15 -5q9 -4 14 -4q16 0 16 19q0 9 -11.5 13.5t-21.5 8.5l-96 56q-52 27 -78 27q-38 0 -38 -37q0 -30 28 -37z" />
    <glyph glyph-name="circumflex" unicode="&#x2c6;" horiz-adv-x="407" 
d="M333 707q-56 20 -137 46q-35 -10 -69 -20q-39 -11 -65 -24q-16 -9 -21 9q-4 15 11 22q25 11 66 38l50 36q11 18 28 15q17 3 27 -15q37 -28 116 -74q15 -7 11 -22q-4 -16 -17 -11z" />
    <glyph glyph-name="tilde" unicode="&#x2dc;" horiz-adv-x="583" 
d="M320 707q-26 -1 -45.5 10t-39.5 23q-14 5 -25 5q-24 0 -40 -26q-1 -1 -39 3q-2 33 28 56q27 22 63 22q24 0 41 -11q41 -26 60 -26q12 0 28 7.5t18 16.5q2 4 45 -4q-11 -34 -44 -56q-26 -18 -50 -20z" />
    <glyph glyph-name="macron" unicode="&#xaf;" horiz-adv-x="339" 
d="M55 745v59h235v-59h-235z" />
    <glyph glyph-name="macron" unicode="&#x2c9;" horiz-adv-x="339" 
d="M55 745v59h235v-59h-235z" />
    <glyph glyph-name="cedilla" unicode="&#xb8;" horiz-adv-x="317" 
d="M248 -116q-1 -44 -43 -62q-32 -15 -74 -10q-55 5 -76 30l26 23q16 -18 50 -18q38 0 38 43q0 15 -11.5 26.5t-32.5 11.5q-13 0 -30.5 -5t-16.5 -7q2 -1 11 102l35 -5l-7 -54q7 -1 22 -1q10 1 19 1q38 0 62 -17q29 -20 28 -58z" />
    <glyph glyph-name="Scaron" unicode="&#x160;" 
 />
    <glyph glyph-name="scaron" unicode="&#x161;" 
 />
    <glyph glyph-name="brokenbar" unicode="&#xa6;" 
 />
    <glyph glyph-name="Eth" unicode="&#xd0;" 
 />
    <glyph glyph-name="eth" unicode="&#xf0;" 
 />
    <glyph glyph-name="Yacute" unicode="&#xdd;" 
 />
    <glyph glyph-name="yacute" unicode="&#xfd;" 
 />
    <glyph glyph-name="Thorn" unicode="&#xde;" 
 />
    <glyph glyph-name="thorn" unicode="&#xfe;" 
 />
    <glyph glyph-name="uni00AD" unicode="&#xad;" 
 />
    <glyph glyph-name="uni00AD" unicode="&#x2212;" 
 />
    <glyph glyph-name="multiply" unicode="&#xd7;" 
 />
    <glyph glyph-name="uni00B9" unicode="&#xb9;" 
 />
    <glyph glyph-name="uni00B2" unicode="&#xb2;" 
 />
    <glyph glyph-name="uni00B3" unicode="&#xb3;" 
 />
    <glyph glyph-name="onehalf" unicode="&#xbd;" 
 />
    <glyph glyph-name="onequarter" unicode="&#xbc;" 
 />
    <glyph glyph-name="threequarters" unicode="&#xbe;" 
 />
    <glyph glyph-name="Lslash" unicode="&#x141;" 
 />
    <glyph glyph-name="lslash" unicode="&#x142;" 
 />
    <glyph glyph-name="glyph220" 
 />
    <glyph glyph-name="glyph221" 
 />
    <glyph glyph-name="glyph222" 
 />
    <glyph glyph-name="Zcaron" unicode="&#x17d;" 
 />
    <glyph glyph-name="zcaron" unicode="&#x17e;" 
 />
    <glyph glyph-name="glyph225" 
 />
    <glyph glyph-name="glyph226" 
 />
    <glyph glyph-name="glyph227" 
 />
    <glyph glyph-name="glyph228" 
 />
    <glyph glyph-name="glyph229" 
 />
    <glyph glyph-name="glyph230" 
 />
    <glyph glyph-name="glyph231" 
 />
    <glyph glyph-name="glyph232" horiz-adv-x="1004" 
 />
    <glyph glyph-name="notequal" unicode="&#x2260;" 
 />
    <glyph glyph-name="infinity" unicode="&#x221e;" 
 />
    <glyph glyph-name="lessequal" unicode="&#x2264;" 
 />
    <glyph glyph-name="greaterequal" unicode="&#x2265;" 
 />
    <glyph glyph-name="partialdiff" unicode="&#x2202;" horiz-adv-x="222" 
d="M205 303l-55 -30q8 -108 24 -209l12 -35q-28 13 -37 21q-3 -30 -14 -42t-41 -12q-29 0 -40 15q-8 11 -13 39q-12 -12 -14 -13q-16 -7 -24 -12l13 35q14 34 22 152l-38 -21l-1 69l43 24q3 48 3 53q-6 212 -29 270l-13 34q10 -3 38 -25q5 29 13 40q11 15 40 15
q30 0 41 -12.5t14 -41.5q11 9 32 19l-11 -29q-22 -137 -23 -267l58 32v-69z" />
    <glyph glyph-name="summation" unicode="&#x2211;" horiz-adv-x="483" 
d="M409 450q-15 -34 -47 -34q-19 0 -27 8q-8 12 -17 23q-30 -10 -42 -10l-1 3q19 26 19 45q0 40 -53 40q-46 0 -46 -40q0 -49 61 -81q52 -28 104 -24q-2 -8 -16 -22q104 -88 104 -178q0 -85 -60 -138q-57 -49 -144 -49q-77 0 -137 30q-75 38 -75 107q0 73 -32 113q3 1 11 2
h11q8 0 16 -9q26 37 53 37q31 0 50 -37q18 11 22 11q3 0 17 -4q-18 -31 -18 -57q0 -47 62 -47q23 0 40.5 14.5t17.5 37.5q0 34 -57 77t-93 43q-19 0 -51 -7q7 15 26 27q-44 45 -61 76q-24 42 -24 95q0 72 61 123q58 49 131 49q86 0 143 -41q64 -45 69 -127q2 -27 33 -65
q-10 -4 -18 -4q-10 0 -19.5 6t-12.5 7zM78 819q56 -20 138 -46q34 10 70.5 20.5t62.5 23.5q16 9 21 -9q5 -16 -11 -22q-25 -11 -65 -38q-26 -18 -51 -36q-10 -18 -27 -15q-17 -3 -28 15q-37 28 -116 74q-15 7 -11 22q5 16 17 11z" />
    <glyph glyph-name="product" unicode="&#x220f;" horiz-adv-x="361" 
d="M202 320q11 16 11 36q0 40 -50 40q-38 0 -38 -35q0 -39 46 -66q40 -24 82 -25q-1 -4 -14 -10q44 -37 55 -52q25 -34 25 -85q0 -127 -155 -131q-58 -2 -97 30.5t-45 78.5q0 4 -12 40l-8 28l7 1q4 0 12 -11q22 31 40 31q20 0 35 -29q16 10 20 10l3 -1q-11 -22 -11 -38
q0 -42 51 -42q20 0 34.5 12.5t14.5 31.5q0 34 -45 63.5t-85 29.5q-8 0 -14 -1l16 11q-43 45 -50 55q-21 32 -19 80q5 121 149 121q122 0 144 -109q7 -30 8 -31q5 -18 14 -29q-21 -5 -22 -5l-10 12q-10 -24 -32 -24q-12 0 -18 7.5t-13 16.5q-10 -5 -29 -11zM49 630
q47 -17 117 -39q38 9 113 37q14 8 18 -7q4 -14 -9 -19q-21 -9 -56 -33q-21 -15 -43 -30q-9 -15 -23 -13q-15 -2 -24 13q-31 24 -98 63q-13 5 -10 19q4 13 15 9z" />
    <glyph glyph-name="pi" unicode="&#x3c0;" horiz-adv-x="615" 
d="M-8 629q17 5 28 5q7 0 50 -20q8 56 78 56q29 0 52 -15.5t30 -42.5q12 15 30 20q5 2 36 6q-28 -42 -28 -68q0 -69 54 -149q10 1 28 69q17 63 17 82q0 16 -11 34q-16 27 -18 32q22 -2 59 -23q14 55 67 55q32 0 46.5 -12t24.5 -43q33 19 52 18l13 -1q-20 -22 -48 -57
q-59 -82 -106 -167q-69 -122 -69 -174q0 -65 17 -107q22 -49 43 -99q-22 5 -30 8q-14 5 -28 16q-16 -33 -29 -44q-18 -14 -51 -14q-62 0 -76 61q-24 -23 -51 -23q-3 1 -7 2q20 48 40 97q11 34 11 114q0 70 -84 203q-70 111 -140 181zM390 746l-173 -41q-3 -1 -13.5 -5
t-15.5 -4q-15 0 -15 19q0 9 11 13.5t21 8.5q49 28 98.5 55.5t76.5 27.5q37 0 37 -37q0 -30 -27 -37z" />
    <glyph glyph-name="integral" unicode="&#x222b;" horiz-adv-x="395" 
d="M263 -75q-14 -4 -21 7l-11 15l-22 -58q-25 -46 -91 -45q-34 0 -59 29q-24 26 -27 63q-16 -20 -30 -20q-3 0 -2 2q6 18 6 71q0 27 -10 74q7 1 11 -2.5t8 -7.5q8 17 23 17q12 0 17 -8l3.5 -7t3.5 -3q1 0 8.5 6t10.5 4q-5 -30 -5 -65q0 -22 14 -26q5 -1 17 -1q22 0 22 57
q0 46 -25 137q-22 81 -43 162q-30 100 -63 134q23 6 35 -8q10 34 43 37q30 0 39.5 -7t21.5 -33q9 9 12 10q10 0 19 1q-9 -13 -11 -23.5t-1 -20.5q1 -15 1 -14q0 -48 13 -104l28 -100h8q11 38 15 106l4 96q1 23 -14 60h19q5 -2 15 -14q6 14 12.5 28.5t33.5 14.5t34 -13.5
t12 -26.5q7 3 14 7q13 6 27 4l-29 -49q-67 -114 -76 -253q-7 -28 -17 -89q-7 -48 3 -115q1 -5 4 -29zM280 576l-173 -41q-3 -1 -13.5 -5t-15.5 -4q-15 0 -15 19q0 9 11 13.5t21 8.5q49 28 98.5 55.5t76.5 27.5q37 0 37 -37q0 -30 -27 -37z" />
    <glyph glyph-name="Omega" unicode="&#x3a9;" horiz-adv-x="528" 
d="M3 417h52v3q0 24 -19.5 93t-19.5 90q0 24 16 24q14 0 42 -19q20 59 84 59q27 0 62 -32q42 34 76 34q18 0 53.5 -8t54.5 -8q9 0 26.5 6.5t24.5 12.5h5l3 -4q-9 -26 -25 -38q32 -15 34 -17q12 -10 12 -35q0 -27 -15 -36l-36 -16q10 -14 19 -42l-17 13q-53 31 -115 31
q-31 0 -61 -8q-43 -13 -62 -103h129v-49h-136q-2 -25 -1 -51h137v-49h-132q21 -125 100 -125q77 0 158 45l13 -2q-5 -16 -17 -37q2 -4 24 -21q16 -13 15 -37q-1 -43 -44 -51q2 -3 20 -15q15 -10 18 -24q-12 -1 -22 -1q-22 0 -41.5 6.5t-31.5 6.5q-13 0 -42 -7t-42 -7
q-44 0 -84 35q-23 -34 -64 -34q-30 0 -46 18q-8 10 -25 46q-24 -16 -39 -16q-28 0 -28 56q0 37 21 164h-34v49h42q4 29 6 51h-48v49z" />
    <glyph glyph-name="Omega" unicode="&#x2126;" horiz-adv-x="528" 
d="M3 417h52v3q0 24 -19.5 93t-19.5 90q0 24 16 24q14 0 42 -19q20 59 84 59q27 0 62 -32q42 34 76 34q18 0 53.5 -8t54.5 -8q9 0 26.5 6.5t24.5 12.5h5l3 -4q-9 -26 -25 -38q32 -15 34 -17q12 -10 12 -35q0 -27 -15 -36l-36 -16q10 -14 19 -42l-17 13q-53 31 -115 31
q-31 0 -61 -8q-43 -13 -62 -103h129v-49h-136q-2 -25 -1 -51h137v-49h-132q21 -125 100 -125q77 0 158 45l13 -2q-5 -16 -17 -37q2 -4 24 -21q16 -13 15 -37q-1 -43 -44 -51q2 -3 20 -15q15 -10 18 -24q-12 -1 -22 -1q-22 0 -41.5 6.5t-31.5 6.5q-13 0 -42 -7t-42 -7
q-44 0 -84 35q-23 -34 -64 -34q-30 0 -46 18q-8 10 -25 46q-24 -16 -39 -16q-28 0 -28 56q0 37 21 164h-34v49h42q4 29 6 51h-48v49z" />
    <glyph glyph-name="radical" unicode="&#x221a;" 
 />
    <glyph glyph-name="approxequal" unicode="&#x2248;" 
 />
    <glyph glyph-name="approxequal" unicode="&#x22f2;" 
 />
    <glyph glyph-name="Delta" unicode="&#x394;" 
 />
    <glyph glyph-name="Delta" unicode="&#x2206;" 
 />
    <glyph glyph-name="lozenge" unicode="&#x25ca;" 
 />
    <glyph glyph-name="fraction" unicode="&#x2044;" 
 />
    <glyph glyph-name="uniF001" unicode="&#xf001;" 
 />
    <glyph glyph-name="uniF002" unicode="&#xf002;" 
 />
    <glyph glyph-name="uniF000" unicode="&#xf000;" 
 />
    <glyph glyph-name="dotlessi" unicode="&#x131;" horiz-adv-x="207" 
d="M18 61l-14 -35q9 5 25 12q2 1 14 13q4 -28 12 -39q12 -15 40 -15q30 0 41.5 12t14.5 42q11 -10 32 -19l-11 29q-17 106 -17 179q0 99 19 179l9 35q-21 -10 -32 -19q-3 29 -14.5 41.5t-41.5 12.5q-28 0 -40 -15q-8 -11 -12 -40q-12 12 -14 13q-16 8 -25 12l14 -34
q24 -58 28 -180q-4 -127 -28 -184z" />
    <glyph glyph-name="breve" unicode="&#x2d8;" horiz-adv-x="345" 
d="M159 710q-45 0 -78 22q-38 25 -38 67h45q0 -34 71 -34t71 34h45q0 -42 -35.5 -65.5t-80.5 -23.5z" />
    <glyph glyph-name="dotaccent" unicode="&#x2d9;" horiz-adv-x="368" 
d="M143 755q0 19 14 33t34 14t33.5 -14t13.5 -33q0 -20 -13.5 -34t-33.5 -14t-34 14t-14 34z" />
    <glyph glyph-name="ring" unicode="&#x2da;" horiz-adv-x="599" 
d="M280 825q27 0 47 -19t20 -45q0 -27 -20 -46t-47 -19t-47 19t-20 46q0 26 20 45t47 19zM280 795q-15 0 -26 -10t-11 -24t11 -24.5t26 -10.5q16 0 26.5 10.5t10.5 24.5t-10.5 24t-26.5 10z" />
    <glyph glyph-name="hungarumlaut" unicode="&#x2dd;" horiz-adv-x="380" 
d="M89 713q-9 7 22.5 70.5t62.5 63.5q11 0 20 -8t9 -19q0 -30 -53.5 -71.5t-60.5 -35.5zM189 713q-9 7 22.5 70.5t62.5 63.5q11 0 20 -8t9 -19q0 -30 -53.5 -71.5t-60.5 -35.5z" />
    <glyph glyph-name="ogonek" unicode="&#x2db;" horiz-adv-x="280" 
d="M54 -98q0 48 40.5 84.5t89.5 36.5q17 0 33 -6l-9 -20q-41 -2 -59 -21q-12 -13 -27 -54q-6 -18 -6 -36q0 -56 39 -56q18 0 39 19l30 -34q-34 -30 -69 -30q-42 0 -71.5 37t-29.5 80z" />
    <glyph glyph-name="caron" unicode="&#x2c7;" horiz-adv-x="413" 
d="M48 829q56 -20 138 -46q34 10 70.5 20.5t62.5 23.5q16 9 21 -9q5 -16 -11 -22q-25 -11 -65 -38q-26 -18 -51 -36q-10 -18 -27 -15q-17 -3 -28 15q-37 28 -116 74q-15 7 -11 22q5 16 17 11z" />
    </font>
</defs>
</svg>
