<?xml version="1.0" standalone="no"?>
<!DOCTYPE svg PUBLIC "-//W3C//DTD SVG 1.1//EN" "http://www.w3.org/Graphics/SVG/1.1/DTD/svg11.dtd" >
<svg>
<metadata>
Created by FontForge 20120731 at Wed Apr 17 20:06:27 2019
 By www-data
Digitized by Dan X. Solo. Software (c) 2000 by Dover Publications, Inc., New York.
</metadata>
<defs>
<font id="Centennial" horiz-adv-x="20" >
  <font-face 
    font-family="Centennial"
    font-weight="400"
    font-stretch="normal"
    units-per-em="1000"
    panose-1="0 0 4 0 0 0 0 0 0 0"
    ascent="800"
    descent="-200"
    x-height="673"
    cap-height="673"
    bbox="-19 -197 806 822"
    underline-thickness="20"
    underline-position="-123"
    unicode-range="U+0020-F002"
  />
<missing-glyph horiz-adv-x="500" 
d="M63 0v800h375v-800h-375zM125 63h250v675h-250v-675z" />
    <glyph glyph-name=".notdef" horiz-adv-x="500" 
d="M63 0v800h375v-800h-375zM125 63h250v675h-250v-675z" />
    <glyph glyph-name="glyph1" horiz-adv-x="0" 
 />
    <glyph glyph-name="glyph2" horiz-adv-x="149" 
 />
    <glyph glyph-name="space" unicode=" " horiz-adv-x="149" 
 />
    <glyph glyph-name="exclam" unicode="!" horiz-adv-x="183" 
d="M114 4q-29 -3 -60 0v144h60v-144zM31 335q20 9 20 29q1 32 1 33q-2 2 0 85q0 11 -3 30q-4 14 -14.5 16.5t-20.5 4.5v140q28 0 29 -1q6 -1 18 -8.5t14 -7.5t17.5 7.5t22.5 9.5q11 2 16 1q10 -1 17 -1l-1 -140q-10 -2 -20.5 -4.5t-14.5 -16.5q0 -10 -2 -30q2 -83 0 -85
q0 -1 1 -33q0 -20 19 -29q-31 -17 -31 -49l-7 -92h-20l-8 86q0 14 -9.5 31t-23.5 24z" />
    <glyph glyph-name="quotedbl" unicode="&#x22;" horiz-adv-x="233" 
d="M167 425q-2 -1 -17 -1q-15 -1 -17 1q-8 91 -21 251l39 -21l41 21zM57 425q-2 -1 -17 -1q-15 -1 -17 1q-8 91 -21 251l37 -24l43 24z" />
    <glyph glyph-name="numbersign" unicode="#" horiz-adv-x="339" 
d="M194 465h-74l-22 -251h74zM42 569h41l10 103h46l-10 -103h74l10 103h46l-10 -103h54l-12 -104h-51l-22 -251h57l-12 -104h-54l-10 -109h-46l9 109h-73l-10 -109h-46l9 109h-40l12 104h38l22 251h-44z" />
    <glyph glyph-name="dollar" unicode="$" horiz-adv-x="197" 
d="M64 674h29v-42q55 -7 62 -90l1 -132h-36q1 -8 1 36q0 67 -41 67q-35 0 -35 -42q0 -23 19 -61q21 -44 42 -40q-1 -9 3 -24q35 -55 46 -96q9 -30 9 -75q0 -118 -71 -125v-46h-29v47q-63 9 -63 91q0 -9 -1 133h34v-46q0 -20 10 -37q12 -21 32 -21q41 0 41 43q0 26 -22 68
q-25 49 -52 43q6 14 6 20q0 -2 -25.5 55t-25.5 113q0 111 66 120v41z" />
    <glyph glyph-name="percent" unicode="%" horiz-adv-x="426" 
d="M383 170v-104q0 -35 -17.5 -54t-43.5 -19t-46 20t-20 54v99q-2 17 -3 20q-2 7 -13 18q13 13 16 39v102q4 75 63 75q31 0 49 -22q15 -20 15 -51v-107q-1 -18 15 -34q-15 -14 -15 -36zM344 169q2 19 -16 37q12 12 16 36q1 10 1 36l-1 26q3 29 -27 29q-24 0 -24 -30v-58
q0 -16 3 -22q7 -9 13 -18q-5 -8 -10.5 -15t-5.5 -26v-55q0 -29 28 -29q25 0 23 29q-3 40 0 60zM153 420v-104q0 -35 -17.5 -54t-43.5 -19t-46 20t-20 54v99q-2 17 -3 20q-2 7 -13 18q13 13 16 39v102q4 75 63 75q31 0 49 -22q15 -20 15 -51v-107q-1 -18 15 -34
q-15 -14 -15 -36zM114 419q2 19 -16 37q12 12 16 36q1 10 1 36l-1 26q3 29 -27 29q-24 0 -24 -30v-58q0 -16 3 -22q7 -9 13 -18q-5 -8 -10.5 -15t-5.5 -26v-55q0 -29 28 -29q25 0 23 29q-3 40 0 60zM308 667h37l-246 -668h-37z" />
    <glyph glyph-name="ampersand" unicode="&#x26;" horiz-adv-x="401" 
d="M376 91q1 -14 -9 -42t-20 -35q-22 -16 -45 -16q-41 0 -72 47q-45 -47 -101 -47q-79 0 -106 65q-17 39 -17 118q0 53 17 93q22 46 76 93q14 12 14 14q0 -3 -7.5 38.5t-7.5 85.5q0 167 93 167q48 0 74 -48q19 -35 19 -78q0 -54 -29 -103q-18 -31 -53 -64q-29 -28 -29 -31
q0 -19 17 -60q6 -13 30 -12q-1 -2 -10 -14q-5 -6 -5 -15q0 -6 23 -52q8 3 20.5 25.5t12.5 37.5q0 28 -38 27q0 4 -2.5 15t-2.5 14v52h31q22 0 37 -21q18 21 70 19q7 -3 8 -12q0 -20 2 -62q-4 -4 -14 -5q-13 -2 -17 -3q-18 -6 -23 -27.5t-10 -42t-20 -63.5q5 -7 15 -7
q16 0 27 17t8 33q-2 1 44 1v-102zM220 495q0 31 -28 31q-19 0 -30 -16t-11 -36q0 13 7 -59q18 9 40 36.5t22 43.5zM177 153q-15 63 -37 77q-4 3 -13.5 5t-9.5 6q17 17 17 37q0 11 -9 35q-64 -55 -64 -107q0 -31 19 -49t49 -18q10 0 27.5 5t20.5 9z" />
    <glyph glyph-name="quotesingle" unicode="'" horiz-adv-x="138" 
d="M57 425q-2 -1 -17 -1q-15 -1 -17 1q-8 91 -21 251l37 -24l43 24z" />
    <glyph glyph-name="parenleft" unicode="(" horiz-adv-x="200" 
d="M121 675h39q-53 -146 -59 -305q-1 -18 22 -35q-23 -17 -22 -37q5 -159 59 -297h-39q-80 145 -84 302q0 16 -26 38q26 13 27 29q8 158 83 305z" />
    <glyph glyph-name="parenright" unicode=")" horiz-adv-x="200" 
d="M50 1h-39q53 146 59 305q1 18 -22 35q23 17 23 37q-6 159 -60 297h39q81 -145 85 -302q0 -16 25 -38q-25 -13 -26 -29q-9 -157 -84 -305z" />
    <glyph glyph-name="asterisk" unicode="*" horiz-adv-x="341" 
d="M287 581l-113 -50l112 -53l-23 -40l-101 72l11 -123h-47l13 123l-102 -71l-23 41l113 50l-112 53l23 40l100 -72l-10 123h47l-13 -123l102 71z" />
    <glyph glyph-name="plus" unicode="+" horiz-adv-x="524" 
d="M208 569h55v-200l200 -1v-54h-200v-201h-55v201h-200v54l200 1v200z" />
    <glyph glyph-name="comma" unicode="," horiz-adv-x="123" 
d="M70 146l1 -142l-52 -67l-17 10l27 53h-28v146h69z" />
    <glyph glyph-name="hyphen" unicode="-" horiz-adv-x="192" 
d="M145 362q5 -47 0 -92h-141q-3 46 0 92h141z" />
    <glyph glyph-name="hyphen" unicode="&#x2010;" horiz-adv-x="192" 
d="M145 362q5 -47 0 -92h-141q-3 46 0 92h141z" />
    <glyph glyph-name="period" unicode="." horiz-adv-x="123" 
d="M75 0h-69v143h69v-143z" />
    <glyph glyph-name="slash" unicode="/" horiz-adv-x="293" 
d="M248 668h37l-246 -668h-37z" />
    <glyph glyph-name="zero" unicode="0" horiz-adv-x="283" 
d="M249 335q-21 -20 -21 -60v-174q0 -40 -17 -69q-25 -42 -78 -43q-91 0 -100 115l-1 166q-3 27 -3 30q-5 16 -20 32q15 15 20 34q0 1 3 31l1 171q5 116 96 116q55 0 81 -43q18 -30 18 -71v-177q-3 -34 21 -58zM179 174q-5 66 -1 98q5 36 -22 63q16 17 22 60q1 49 1 103
q5 57 -53 57q-33 0 -44 -21q-5 -10 -5 -36v-97q0 -30 4 -38q11 -15 22 -29l-22 -30q-4 -8 -4 -38v-92q0 -57 55 -57q52 0 47 57z" />
    <glyph glyph-name="one" unicode="1" horiz-adv-x="237" 
d="M146 673l-1 -277q0 -14 3 -25q8 -26 28 -36q-31 -11 -31 -49v-115q0 -24 44 -24v-147h-29q-12 0 -25.5 10.5t-16.5 10.5t-17.5 -10.5t-26.5 -10.5h-30v147q45 0 45 24v115q0 32 -32 49q18 8 24 31q4 16 7 31q-2 2 0 85q0 11 -3 30q-4 13 -18 16t-28 5l-1 96q29 2 53 22.5
t19 20.5q13 0 36 1z" />
    <glyph glyph-name="two" unicode="2" horiz-adv-x="246" 
d="M215 517q0 -88 -39 -148q-9 -15 -9 -34v-31q-3 2 -6 2q-28 0 -67.5 -71t-39.5 -108q0 -4 3 -11q10 11 32 25q16 -2 47 1q22 9 27 43q3 28 5 55h44v-151q0 -35 -15 -60q-20 -32 -60 -32q-19 0 -36.5 11.5t-24.5 11.5q-15 0 -15 -16q0 -5 2 -9q-4 -2 -37 0q-19 13 -19 104
q0 50 23 105q14 31 44 80q24 38 24 48q0 13 -12 29q14 0 26 9q33 23 44 64q5 19 5 43q0 58 -53 58q-47 0 -53 -43l-2 -74h-44v122q0 53 23 91q29 47 84 47q99 0 99 -161z" />
    <glyph glyph-name="three" unicode="3" horiz-adv-x="251" 
d="M231 444q-22 -11 -27 -43q-6 -37 -31 -60q13 -14 29 -42q0 -14 3 -41q3 -14 23 -23q-5 -6 -19 -20q-5 -6 -5 -32q-1 -81 -10 -111q-20 -67 -85 -67q-67 0 -92 75q-8 25 -7 37v150h42q0 -24 2.5 -72.5t47.5 -48.5q28 0 37.5 9t9.5 36q0 33 -26 44q26 11 26 44q0 35 -35 35
q-7 0 -28 -2l1 54h15q49 0 49 41q0 28 -21 41q0 2 13 13q9 8 9 30q0 35 -46 35q-52 0 -52 -60q0 -11 1.5 -31t1.5 -28h-45v155q0 50 27.5 82t75.5 32q31 0 60.5 -35.5t29.5 -67.5v-69q0 -25 1 -32q5 -19 25 -28z" />
    <glyph glyph-name="four" unicode="4" horiz-adv-x="264" 
d="M236 226q-41 2 -57 0q-1 0 -1 -52q0 -32 29 -32q15 0 16 -1l-1 -137q-17 -9 -41 1q-3 1 -11.5 9t-11.5 8q-2 0 -15 -9.5t-16 -9.5h-36v138q11 4 23 8q17 7 17 20v59h-139q-1 3 -1 54q1 7 6 21t5 16q0 14 -10 30q28 15 43 53l105 274q17 -8 18 -8q2 0 8.5 3.5t11.5 4.5
v-296q0 -25 26 -41q-19 -13 -23 -29q0 -2 -1 -30q28 -1 57 -1zM135 416l-3 115q-9 -16 -34 -83.5t-25 -77.5q0 -13 13 -28q-18 -7 -33.5 -26.5t-15.5 -34.5l4 -5q36 0 63 1q16 1 22 1.5t5.5 0.5t0.5 1.5t1 4.5q0 30 -7 40q-8 5 -21 14q22 15 25 26q5 19 5 51z" />
    <glyph glyph-name="five" unicode="5" horiz-adv-x="253" 
d="M230 246q0 -2 -11.5 -14.5t-11.5 -22.5v-90q0 -22 -11 -55t-23 -43q-24 -19 -32.5 -22.5t-30.5 -3.5q-27 0 -40 7q-61 34 -61 124v139q13 -1 45 0v-73q0 -28 14.5 -44.5t37.5 -16.5q32 0 43 16q9 13 12 53q1 10 -7 24q-10 18 -25 19q20 14 24 22.5t4 26.5q0 31 -11 41
t-40 10q-33 0 -50 -30h-46l20 360q12 -3 35 -21q6 10 12.5 14.5t25.5 4.5h104l-1 -140h-132q-10 -94 -9 -96q26 25 63 25q41 0 61 -33q18 -27 18 -68v-80q0 -21 23 -33z" />
    <glyph glyph-name="six" unicode="6" horiz-adv-x="253" 
d="M212 140q0 -66 -16 -99q-23 -47 -84 -47q-60 0 -81 60q-12 34 -12 109v138q0 24 -23 37q23 20 23 36v123q0 -2 0 37q0 57 18 94q24 50 74 50q76 0 96 -98q6 -30 7 -152h-44v40q0 35 -8 50q-12 20 -45 20q-48 0 -49 -62q1 -36 1 -108q30 27 58 27q36 0 61 -25t25 -57z
M166 237q0 64 -52 64q-47 0 -47 -67q0 -50 4 -61q9 -31 46 -31q38 0 46 32q3 11 3 63z" />
    <glyph glyph-name="seven" unicode="7" horiz-adv-x="251" 
d="M210 578q0 -45 -20 -130t-20 -86q0 -13 17 -28q-9 -9 -17 -18t-10 -19q-12 -62 -16 -123q-1 -25 23 -36v-140l-28 1q-10 0 -18 8.5t-9 8.5q1 0 -8 -9t-22 -9h-14v145q15 -5 16 25.5t11 81.5t10 49q0 23 -12 34q14 10 34 33q37 101 44 188h-7q-17 -21 -53 -27
q-29 -6 -43 -38q-4 -10 -9 -37q-6 -31 -4 -45q-45 -2 -47 0l16 264q14 1 23.5 -5t7.5 -6q1 0 15 6.5t32 6.5q13 0 56 -20q12 0 13 15l39 -1v-89z" />
    <glyph glyph-name="eight" unicode="8" horiz-adv-x="253" 
d="M223 228q-18 -15 -16 -41v-82q0 -49 -24 -80t-71 -30q-46 -1 -70 31q-22 29 -22 79v82q1 14 -5 24q-5 7 -11 14q14 9 18 35l6 38q7 22 34 36q-23 14 -32 31.5t-9 55.5q0 15 -8.5 26.5l-8.5 11.5l8 11.5t9 21.5v64q0 50 25 85.5t68 37.5q44 -2 67.5 -36.5t23.5 -84.5v-66
q1 -12 9.5 -24l8.5 -12l-8 -12.5t-8 -27.5q0 -37 -10 -54q-8 -13 -33 -28q27 -14 34 -36l6 -38q2 -12 5 -16q3 -8 14 -16zM164 415q0 26 -19 38q17 3 17 37q0 19 -15.5 33.5t-34.5 14.5q-18 0 -32.5 -14t-14.5 -34q0 -15 18 -34q-16 -13 -16 -50l4 -10q8 -14 20.5 -25
t25.5 -11q47 0 47 55zM164 184q2 25 -12 38l-4 3q13 10 14 19q0 -2 0 16q0 27 -15.5 40t-34.5 12h2q-17 3 -32.5 -12.5t-18.5 -38.5q-3 -26 15 -36q-14 -8 -15 -14v-24q-2 -26 19 -41q17 -11 33 -11t31.5 13t17.5 36z" />
    <glyph glyph-name="nine" unicode="9" horiz-adv-x="246" 
d="M11 532q0 67 16 99q23 47 84 47t81 -59q12 -35 12 -110v-137q0 -15 7.5 -23t15.5 -14q0 -1 -15 -16q-8 -7 -8 -20l1 -161q0 -52 -25 -93q-29 -49 -81 -50q-92 -3 -92 175q0 25 4 75h41q1 0 1 -49q0 -33 11 -47q13 -17 47 -17q46 0 47 58q-1 39 -2 114q-18 -16 -25 -19
q-11 -6 -31 -6q-36 0 -62.5 24.5t-26.5 56.5v172zM57 435q0 -62 52 -63q31 0 41 19q8 13 8 45q0 52 -4 65q-9 34 -46 34q-38 0 -47 -35q-4 -13 -4 -65z" />
    <glyph glyph-name="colon" unicode=":" horiz-adv-x="138" 
d="M92 339h-71v144h71v-144zM92 0h-71v146h71v-146z" />
    <glyph glyph-name="semicolon" unicode=";" horiz-adv-x="125" 
d="M88 335h-69v146q35 -4 69 0v-146zM84 9l-3 -16q-40 -28 -64 -40q-3 1 -3 6q0 2 12 17q15 19 19 24q-14 3 -28 -1v144h67v-134z" />
    <glyph glyph-name="less" unicode="&#x3c;" horiz-adv-x="328" 
d="M236 542l38 -39l-176 -176l176 -178l-38 -39l-216 218z" />
    <glyph glyph-name="equal" unicode="=" horiz-adv-x="496" 
d="M4 244h456v-61h-456v61zM4 394h456v-61h-456v61z" />
    <glyph glyph-name="greater" unicode="&#x3e;" horiz-adv-x="328" 
d="M59 110l-39 39l176 176l-176 178l39 39l215 -218z" />
    <glyph glyph-name="question" unicode="?" horiz-adv-x="229" 
d="M130 0h-57v151h57v-151zM69 351q26 0 47 28q19 23 27 55q5 19 5 43q0 60 -43 58q-52 -2 -52 -57q0 -71 2 -60h-39v122q0 138 97 138q58 0 78 -59q11 -31 11 -95q0 -79 -50 -151q-4 -5 -4 -12q0 -8 13 -42q-15 -5 -31 -10q-10 -8 -13 -42v-64h-32q-2 46 0 64q6 62 -16 84z
" />
    <glyph glyph-name="at" unicode="@" horiz-adv-x="891" 
d="M589 46q-98 0 -107 102q-75 -90 -158 -90q-45 0 -75 32q-35 37 -35 103q0 125 66 208q73 91 197 91q64 0 123 -30q-11 -38 -61 -262q-7 -31 -7 -52q0 -56 60 -56t103.5 69t43.5 165q0 123 -90 207.5t-230 84.5q-146 0 -243 -112q-92 -106 -92 -251q0 -135 94 -225
q91 -87 223 -87q71 0 137 20l13 -48q-66 -20 -150 -20q-163 0 -270 93q-115 99 -115 267q0 174 114.5 291.5t288.5 117.5q167 0 276 -92q111 -95 111 -246q0 -125 -65 -205q-62 -75 -152 -75zM470 447q-93 0 -145 -87q-44 -73 -44 -171q0 -79 64 -79q40 0 79 35
q45 40 59 104l40 187q-24 11 -53 11z" />
    <glyph glyph-name="A" unicode="A" horiz-adv-x="317" 
d="M280 -1h-26q-13 0 -25 8l-12 8q-31 -16 -41 -16h-25l1 148q4 -1 9 -1q14 0 22.5 9.5t8.5 19.5q0 5 -13 67h-72l-11 -68q0 -12 10.5 -21t26.5 -6l1 -148h-23q-12 0 -35 18q-2 0 -18.5 -9t-19.5 -9h-14h-18l-1 146q1 0 16.5 2.5t20.5 13.5t15 73q9 57 9 67q0 16 -7 23
l-14 14q7 5 20 18q6 7 11 42q4 29 32 273q-1 -1 12 -1q2 0 10.5 -6t10.5 -6t9.5 6t11.5 6t12 2l43 -301q3 -21 25 -32q0 -1 -13 -16q-6 -7 -6 -20q0 -8 16 -126q2 -8 11.5 -19t14.5 -11h6.5h8.5v-148zM161 372l-20 162l-18 -157q0 -34 18 -36q20 -2 20 31zM171 290
q-9 54 -30 54q-5 0 -14 -7.5t-9 -14.5q0 -11 -5 -32q51 -1 58 0z" />
    <glyph glyph-name="B" unicode="B" horiz-adv-x="283" 
d="M271 230q-7 -5 -14 -11q-11 -8 -11 -35l1 -79q0 -48 -28.5 -79t-76.5 -30q-33 1 -64 25q-3 0 -19.5 -10.5t-28.5 -10.5h-30v147q48 0 48 33l1 110q0 32 -32 49q32 15 32 48q-2 83 -1 104t-23 28.5t-26 3.5l1 150q40 0 33 -1q12 1 24.5 -7l12.5 -8q-2 0 22.5 9.5t49.5 7.5
q45 -2 74 -38.5t29 -85.5v-61q2 -12 26 -29q0 -1 -15 -12q-11 -8 -10 -26q0 -37 -9 -55q-9 -14 -33 -29q27 -14 34 -38l6 -40q2 -12 27 -30zM194 420q0 32 -25 41q21 8 21 31q0 33 -47 33q-35 0 -44 -23q-5 -11 -5 -50l1 -60q0 -11 11 -22t21 -11q34 0 46 7q21 13 21 54z
M195 184q2 30 -23 44q24 15 22 32q-4 37 -23 49q-15 10 -47 8q-10 -1 -19.5 -12t-9.5 -24l-1 -63q0 -39 5 -50q9 -23 44 -23q50 0 52 39z" />
    <glyph glyph-name="C" unicode="C" horiz-adv-x="260" 
d="M216 146q0 -54 1 -50q-11 -102 -99 -102q-43 0 -69 33q-25 30 -25 73v101l-1 45v61t-21 32l12 14q9 12 9 18v27q1 20 1 21v144q0 39 13 69q21 45 70 45q40 0 62 -28q23 23 27 23h20v-262h-44q0 42 -1 82q-7 38 -51 38q-50 0 -50 -41q1 -26 1 -44q-1 -12 -1 -20v-8
q0 -36 4 -48q8 -24 21 -33q-11 -9 -23 -32v-117q0 -43 48 -44q45 -1 51 41q-2 37 0 81h45v-119z" />
    <glyph glyph-name="D" unicode="D" horiz-adv-x="268" 
d="M264 337q-25 -8 -25 -38l1 -160q0 -39 -4 -55q-13 -52 -42 -72q-22 -15 -60 -15q-37 0 -66 27q-30 -23 -37 -23q-20 -9 -31 -2v145q42 -5 42 40v115q0 20 -30 38q28 11 28 32v127q0 24 -13 31q-6 4 -27 4v139h9h10q11 0 39 -21q20 18 37 23q13 4 42 4q34 0 65 -24
q37 -27 41 -72v-59v-147q0 -21 21 -37zM188 216q0 87 1 77q-2 23 -6 28q-9 7 -18 15q25 17 23 38q-1 49 -3 98q-9 57 -51 57q-39 0 -43 -33q2 -42 0 -127q-1 -20 25 -32q-25 -12 -25 -40q0 -22 1 -50q0 -28 0 -26q0 -44 5 -55q8 -20 42 -21q38 -1 47 34q2 8 2 37z" />
    <glyph glyph-name="E" unicode="E" horiz-adv-x="259" 
d="M153 397v23h-30q3 -12 3 -24q0 -36 -25 -33q-7 0 -10 9q-1 6 -3 11v96q1 45 28 45q29 0 17 0h24q26 0 35 -59q7 -53 2 -60h37l1 267q-24 3 -37 -3q-7 -3 -13 -10.5l-6 -7.5q2 0 -12.5 12t-42.5 13q-31 1 -51 -27q-12 15 -24 20q-8 2 -15 3h-30v-146q45 0 45 -25v-115
q0 -32 -32 -49q32 -17 32 -51v-115q0 -24 -45 -24v-147h30q15 0 20 3t19 21q19 -27 53 -27q19 0 37 13.5t16 13.5q-1 0 10.5 -11t21.5 -12h24v266h-38q5 -126 -43 -120h-37q-18 0 -24 23q-2 10 -2 24v95q2 6 4 13t9 8q24 2 24 -34q0 -13 -2 -26h34v40q1 12 2.5 23.5
t19.5 21.5q-30 15 -26 62z" />
    <glyph glyph-name="F" unicode="F" horiz-adv-x="258" 
d="M123 149q-29 0 -34 50l-1 90q2 6 4 13t9 8q23 2 23 -36q0 -7 -1 -16t-1 -10q-6 2 31 2v37q-3 7 -3 13q0 20 29 35q-29 15 -29 37q0 6 3 14v34h-30l1.5 -9t1.5 -17q0 -34 -25 -31q-7 0 -10 9q-1 6 -3 11v96q-6 46 21 46q10 0 57 -1q30 2 30 -81q0 -27 -2 -38h37l1 264
q-24 6 -37 0q-6 -3 -12.5 -9.5t-7.5 -6.5q2 0 -15.5 11t-36.5 11q-34 0 -53 -26q-14 17 -19 20.5t-20 2.5h-30v-146q45 0 45 -25v-115q0 -32 -32 -49q32 -17 32 -51v-84q0 -38 -17 -50q-8 -5 -28 -5v-147h30q16 0 23.5 3.5t20.5 20.5q9 -12 17 -16q13 -5 26 -11q5 -2 29 3
l1 149h-25z" />
    <glyph glyph-name="G" unicode="G" horiz-adv-x="268" 
d="M257 277q-14 -3 -27 -5q-18 -6 -20 -23v-41v-210h-11q-2 0 -17 8.5t-17 8.5t-6 -4.5t-7 -5.5q-19 -10 -28 -10q-57 0 -85 54q-20 40 -20 95v164q0 6 -8 15.5t-16 11.5q18 15 22 29q2 6 2 40v108q0 72 10 104q20 64 86 61q13 -1 30.5 -11t18.5 -10l13.5 10t31.5 9v-266
q-10 -2 -45 -1q8 26 4 79q-4 41 -53 41q-24 0 -33 -7t-12 -30l-2 -108q0 -20 1 -23q4 -16 24 -24q-18 -10 -21 -22q-8 -36 -4 -87l2 -46q9 -36 48 -36q31 0 41 12q8 9 9 38v59q0 14 -16.5 19t-31.5 2v87q31 -2 49 -14t15 -12q1 0 16 8q19 10 57 16q-3 -21 0 -83z" />
    <glyph glyph-name="H" unicode="H" horiz-adv-x="320" 
d="M118 357h52q20 0 23 25l-1 100q0 23 -3 29q-7 15 -34 15l1 147l23 -1q26 -1 40 -17q23 18 45 18h27l-1 -146q-29 -2 -34 -9.5t-5 -35.5v-100q0 -29 21 -47q-24 -21 -21 -45v-99q0 -44 38 -44v-147h-23q-12 0 -25.5 10.5t-16.5 10.5t-17.5 -10.5t-26.5 -10.5h-24v147
q39 0 39 44l1 99q-6 8 -10.5 15t-16.5 7h-51q-23 -5 -21 -22v-99q0 -44 38 -44v-147h-23q-12 0 -25.5 10.5t-16.5 10.5t-17.5 -10.5t-26.5 -10.5h-24v147q41 0 40 42v101q5 24 -23 45q14 12 17 17.5t6 29.5l-1 100q0 44 -40 44l1 147l23 -1q26 -1 40 -17q23 18 45 18h27
l-2 -147q-28 -1 -34 -10q-3 -5 -3 -34l-1 -100q-1 -10 10 -17q5 -4 11 -8z" />
    <glyph glyph-name="I" unicode="I" horiz-adv-x="192" 
d="M125 673h37l-1 -146q-31 -2 -38.5 -8t-10.5 -37v-100q-1 -19 10 -31q11 -8 21 -16q-34 -21 -31 -45v-99q0 -44 49 -44v-147h-34q-12 0 -25.5 10.5t-16.5 10.5t-17.5 -10.5t-26.5 -10.5h-33v147q48 0 48 44l1 99q5 24 -33 45q11 8 20.5 17t12.5 30l-2 100q0 29 -8 37
t-39 8v146h30q27 -1 42 -18q23 18 45 18z" />
    <glyph glyph-name="J" unicode="J" horiz-adv-x="265" 
d="M236 520q-15 -2 -29 -4q-18 -4 -16 -31v-86q0 -47 25 -61q-25 -24 -25 -49v-177q0 -43 -24 -76q-26 -36 -66 -36q-47 0 -75 39q-25 35 -25 84v145h44q-1 -43 -1 -68q0 -55 43 -55q29 0 40.5 7t11.5 33v42q1 28 1 41q0 46 -24 69q10 14 21 27q5 9 5 38v86q0 33 -43 36v152
q2 -1 30 -3q20 -1 39 -23q19 32 69 25z" />
    <glyph glyph-name="K" unicode="K" horiz-adv-x="315" 
d="M290 0h-28q-21 0 -43 17q-4 -5 -21 -11t-22 -6h-25v145q7 0 17 2q14 12 14 23q0 8 -19 62q-17 49 -22 61q-2 0 -3.5 -5.5l-1.5 -5.5q-3 -5 -28 -58q-12 -26 -13 -45q-2 -22 16 -30q7 -3 17 -2l1 -144q-10 -3 -15 -3q-17 1 -32 9.5t-16 8.5q1 0 -13.5 -9t-29.5 -9
q-13 0 -22 2v142q2 1 21.5 1t25.5 36q1 116 -1 135q-1 9 -13 16l-16 8q12 7 25 27q4 6 4 30l-1 87q-1 30 -21 35q-12 1 -24 3v151h20q23 0 47 -21q7 6 13 11q12 10 29 10h17l1 -151q-34 5 -34 -38l1 -114q0 -22 11 -29q5 5 7 8q72 142 72 146q0 24 -34 28v149h19
q27 0 43 -21q24 23 47 22l21 -1v-151q-10 -1 -19 -3q-17 -5 -25 -23q-2 -5 -33 -70q-26 -53 -26 -61q0 -18 23 -26q-14 -13 -16 -18v-18q0 -10 12.5 -37t32.5 -83q7 -17 24 -30q7 -5 36 -5v-147z" />
    <glyph glyph-name="L" unicode="L" horiz-adv-x="267" 
d="M106 190q4 -28 7 -33q9 -14 41 -14q17 0 29 11.5t13 27.5v81q7 -2 43 0v-262q-6 -1 -12 -1q-19 0 -40 15q-1 0 -24.5 -9.5t-36.5 -10.5q-26 -1 -47.5 10.5t-17.5 11.5q3 0 -14.5 -9t-47.5 -7v143q41 -1 46 45v95q-3 41 -28 51q16 14 20 21q9 12 11 34v92q-3 29 -9.5 35
t-37.5 6l-1 150q31 0 38 -2q20 -5 35 -26q22 24 43 27q19 0 39 1l-1 -150q-32 -2 -39 -6.5t-13 -33.5v-91q5 -36 31 -59q-22 -9 -27 -45q2 -96 0 -98z" />
    <glyph glyph-name="M" unicode="M" horiz-adv-x="390" 
d="M198 1q27 198 47 311q2 14 14 22q-4 7 -8 15q-2 6 1 31l18 137h7l1 -137q-1 -9 -1 -18q-3 -14 -16 -28q1 2 8 -9q8 -15 8 -43v-106q-2 -15 -17 -22.5t-29 -6.5v-146q0 -5 30.5 7t34.5 16q5 -6 36 -15.5t31 -7.5v146q-44 -5 -44 32q-1 68 -1 100q0 45 23 56q-16 13 -19 23
q-1 3 -1 23l1 114q0 15 5 22.5t36 4.5v149q-38 5 -64 -20q-21 23 -53 23q-4 -36 -42 -294q-6 -35 -19 -45q11 -9 11 -25q0 -9 -6 -28q-6 -24 -7 -29q-1 5 -8 29q-5 19 -5 28q0 16 11 25q-9 17 -19 45q-17 105 -43 294q-43 2 -59 -25q-19 27 -58 22v-149q33 3 39 -8
q3 -6 4 -20l-1 -113q0 -20 -1 -23q-3 -10 -19 -23q23 -11 23 -56v-100q-1 -37 -44 -32l-1 -146h16q14 4 31.5 11.5t20.5 11.5q9 -10 64 -23v146q-14 -1 -29 6.5t-17 22.5v106q0 28 9 43q6 11 8 9q-14 14 -16 28q-1 9 -1 18v137h7l19 -137q3 -25 1 -31q-4 -8 -9 -15
q12 -8 15 -22q20 -113 46 -311q4 -1 16 14q3 -8 15 -14z" />
    <glyph glyph-name="N" unicode="N" horiz-adv-x="311" 
d="M241 367q0 -7 12 -20q9 -11 17 -16q-9 -9 -17 -18.5t-8 -28.5v-125q1 -124 1 -157q-11 2 -26 11q-22 -15 -23 -13q-14 76 -38 189q-7 46 -31 134q-1 3 -9 9.5t-8 8.5q0 3 5.5 11.5t5.5 10.5q0 3 -4.5 22t-5.5 24q-4 25 -22 113v-147q2 -9 5 -18q5 -13 12 -16
q-19 -25 -19 -60v-99q0 -11 11 -23t21 -12h16l1 -147h-35q-11 -1 -21 8l-10 9q1 0 -10.5 -8.5t-24.5 -8.5h-36v147q8 -1 22 -1q25 8 25 38v98v31q-3 17 -21 25q21 20 21 39l-2 133q-2 25 -29 25q-7 0 -13 -2l1 138q6 3 13 3q13 0 26 -11t13 -10q15 20 31 20q7 0 12 -5
q24 -104 73 -314q2 -11 15 -16q12 7 12 63l-2 85q-7 40 -43 37l-1 150h28q10 1 23.5 -8l13.5 -9q-2 0 13 9t28 8l30 -1v-152q-16 -2 -32 -3q-15 -6 -15 -34zM201 325q0 4 -14 11q-3 -5 -9 -13l18 -82q1 46 3 68q2 19 2 16z" />
    <glyph glyph-name="O" unicode="O" horiz-adv-x="269" 
d="M249 335q-21 -20 -21 -60v-174q0 -40 -17 -69q-25 -42 -78 -43q-91 0 -100 115l-1 166q-3 27 -3 30q-5 16 -20 32q15 15 20 34q0 1 3 31l1 171q5 116 96 116q55 0 81 -43q18 -30 18 -71v-177q-3 -34 21 -58zM179 194q-4 53 -1 78q5 36 -22 63q16 17 22 60v85q4 55 -52 55
q-33 0 -44 -21q-5 -10 -5 -36v-77q0 -30 4 -38q11 -15 22 -29l-22 -30q-4 -8 -4 -38v-72q0 -57 55 -57q52 0 47 57z" />
    <glyph glyph-name="P" unicode="P" horiz-adv-x="274" 
d="M261 461q-22 -22 -19 -41q3 -29 -12 -64q-19 -45 -58 -47t-84 -2q-2 -96 0 -130q0 -29 45 -29l-1 -149h-26q-6 0 -21 9.5t-22 17.5q-14 -12 -45 -25l-18 -1l1 147q12 0 21 4q20 8 21 31q3 58 -1 113q-2 14 -29 39q25 8 28 50l1 98q0 39 -42 40v152q-1 -1 26 -1
q19 0 39 -23q20 27 72 26q40 -1 61 -16q28 -19 39 -70q5 -22 3 -90q3 -22 21 -39zM191 497q0 21 -15 26q-6 2 -36 2q-28 0 -35 -5q-14 -7 -14 -36v-88q0 -23 8 -32.5t32 -9.5t41.5 17t17.5 45q0 21 -2 26t-16 17q15 8 18 17q1 4 1 21z" />
    <glyph glyph-name="Q" unicode="Q" horiz-adv-x="274" 
d="M263 144v-145h-17q-21 0 -41 29q-25 -33 -72 -33q-46 0 -75 34q-26 31 -27 77l-1 174q0 30 -21 52q22 22 22 55v190q0 99 89 99q97 0 97 -96l-1 -191q4 -15 8 -29q6 -19 19 -26q-15 -14 -20 -32q-2 -11 -4 -21l-1 -106q0 -18 17 -25q6 -2 28 -6zM174 388q-2 104 -2 105
q-6 32 -46 32q-36 1 -45 -24q-5 -12 -4 -55v-55q1 -45 23 -57q-21 -20 -21 -53v-75q0 -34 8 -47q10 -16 40 -16q28 0 37 17q6 11 6 40v81q-1 3 -7 27q-4 14 -14 24q10 10 15 25.5t10 30.5z" />
    <glyph glyph-name="R" unicode="R" horiz-adv-x="276" 
d="M264 1q1 0 -42 0q-52 0 -52 46v135q-2 9 -7 25q-7 7 -21 22q28 10 26 38q-3 33 -9 38q-1 1 -23 1q-45 0 -48 1q-1 -36 0 -125q0 -11 14.5 -21.5t30.5 -13.5v-145q-5 -4 -15 -2q-15 2 -16 2q-11 2 -20 10.5t-10 9.5q-9 -8 -17.5 -14.5t-21.5 -6.5h-33v146q16 -2 29.5 7.5
t13.5 27.5v111q0 19 -7 28q-5 5 -22 14q25 12 28 37q1 101 0 119q-2 28 -43 28v152q14 3 38 -5.5t31 -15.5q32 24 63 24q46 0 69 -43q17 -32 17 -77l-1 -63q-2 -16 23 -34q-23 -22 -21 -40q3 -58 -38 -83q36 -12 36 -64q0 -14 8.5 -22t16.5 -16q-23 -13 -23 -53
q0 -22 8.5 -30.5t37.5 -5.5v-142zM170 420q0 15 -6.5 23t-13.5 16q21 6 20 30q-2 23 -8.5 28.5t-30.5 5.5q-43 0 -43 -26v-115q-3 -8 4 -18q10 -14 42 -14q36 0 36 70z" />
    <glyph glyph-name="S" unicode="S" horiz-adv-x="239" 
d="M206 146q0 -151 -90 -151q-32 0 -49 23q-2 0 -15.5 -10.5t-16.5 -10.5l-23 1l1 266h40v-54q0 -23 13 -45q15 -25 38 -25q47 0 47 52q0 29 -26 74q-30 52 -61 45q6 16 6 23q0 5 -15 36q-19 37 -29 68q-15 48 -15 96q0 144 89 144q22 0 50 -18q21 18 30 17h17v-266h-42
q1 -7 1 40q0 83 -49 83q-19 0 -30 -16t-11 -35q0 -27 22 -73q25 -51 49 -46q0 -11 3 -28q43 -67 55 -107q11 -33 11 -83z" />
    <glyph glyph-name="T" unicode="T" horiz-adv-x="287" 
d="M172 676q15 -1 30 -7t13 -6q-3 0 11.5 6t22.5 6q7 0 9 -4v-264l-38 2q-3 57 0 88q4 32 -34 32q-23 0 -28 -30q-2 -8 -2 -45l1 -81q0 -7 10 -21q6 -9 13 -17q-9 -2 -19 -15.5t-8 -20.5l1 -110q0 -44 40 -42v-146q-35 0 -41.5 2.5t-13.5 8.5t-8 6q-2 0 -11.5 -6t-16 -8.5
t-41.5 -2.5v146q40 -2 40 42l1 110q2 7 -8 20.5t-19 15.5q7 8 13 17q10 14 10 21l1 81q0 37 -2 45q-5 30 -28 30q-37 0 -34 -32q3 -31 0 -88l-38 -2v264q2 4 9 4q9 0 23 -6t11 -6q-2 0 13 6t30 7q21 0 33.5 -5.5t13.5 -5.5l10 5.5t31 5.5z" />
    <glyph glyph-name="U" unicode="U" horiz-adv-x="315" 
d="M273 336q-26 -14 -26 -60v-157q0 -44 -18 -78q-24 -46 -75 -46q-50 0 -80 46q-23 37 -23 78v159q0 44 -27 58q10 5 18.5 21t7.5 27q-1 86 0 87q0 31 -9 41.5t-35 10.5l1 151q44 0 64 -21q27 16 32 18q9 3 36 3v-150q-29 -5 -36 -13.5t-7 -39.5q0 -102 -1 -89
q2 -27 26 -48q-19 -21 -21 -24q-4 -9 -4 -32.5t-1 -102.5q1 -21 11.5 -28t42.5 -7q26 0 36 4q16 7 17 31v99q0 25 -3.5 32t-22.5 28q24 21 26 47q2 36 0 90q-1 32 -8.5 40t-34.5 13v150q28 0 36 -3q5 -2 32 -18q20 21 65 21v-151q-24 -2 -29 -6q-9 -8 -15 -46q2 -2 0 -88
q0 -11 7.5 -26.5t17.5 -20.5z" />
    <glyph glyph-name="V" unicode="V" horiz-adv-x="309" 
d="M138 184q-7 47 -17 116q-2 18 0 20q6 9 13 17q-21 20 -23 30q-13 67 -13 121q0 18 3.5 22t30.5 12q0 44 1 154q-40 0 -68 -28q-25 28 -66 25l-1 -150q14 -3 27.5 -8t16.5 -24q20 -119 20 -122q0 -16 -22 -32q27 -14 29 -30q15 -106 47 -309q5 -1 13.5 7t10.5 6q2 2 13 -6
t15 -7q11 52 25 151q18 132 22 158q3 16 29 30q-21 16 -21 32q0 3 19 122q3 19 17 24t27 8l-1 150q-41 3 -66 -25q-28 28 -67 28l1 -154q26 -8 30 -12t4 -22q0 -54 -14 -121q-2 -10 -23 -30q7 -8 14 -17q1 -2 -1 -20q-7 -55 -16 -116q-4 -8 -6 -6q-1 -2 -3 6z" />
    <glyph glyph-name="W" unicode="W" horiz-adv-x="457" 
d="M273 -2q6 0 22 12q2 3 11 -5t13 -7q14 56 26 153q18 139 21 155.5t29 30.5q-21 16 -21 32q0 3 19 122q3 19 17 24t27 8l-1 150q-41 3 -66 -25q-28 28 -67 28v-154q27 -8 31 -12t4 -22q0 -54 -14 -121q-2 -10 -23 -30q7 -8 14 -17q1 -2 -1 -20q-7 -55 -16 -116q-1 0 -3 3
q-15 91 -15 112q0 1 -1 11q-1 8 0 13q2 7 10 13q-6 6 -13 12.5t-9 18.5l-23 126q0 26 37 30v153q-42 -9 -65 -32q-23 24 -62 32v-153q20 -2 27.5 -7.5t7.5 -22.5q0 -1 -10 -49q-11 -52 -14 -79q-1 -10 -7.5 -16.5t-11.5 -12.5q8 -6 10 -12t1 -14q-2 -10 -2 -11
q0 -21 -15 -112q-1 -2 -2 -3q-7 47 -17 116q-2 18 0 20q6 9 13 17q-21 20 -23 30q-13 67 -13 121q0 18 3.5 22t30.5 12q0 44 1 154q-40 0 -68 -28q-25 28 -66 25l-1 -150q14 -3 27.5 -8t16.5 -24q20 -119 20 -122q0 -16 -22 -32q27 -14 29.5 -30.5t20.5 -155.5
q12 -97 26 -153q5 -1 13.5 7t10.5 5q6 -6 12 -8.5t11 -3.5l55 342q14 -87 55 -342z" />
    <glyph glyph-name="X" unicode="X" horiz-adv-x="313" 
d="M180 362q0 16 42 122q9 23 20.5 31t35.5 10l1 146q-31 0 -39 -3.5t-27 -23.5q-15 26 -60 29l-1 -148q24 -7 24 -34q0 -12 -13 -47.5t-20 -47.5q-7 11 -21 47.5t-14 47.5q0 27 24 34v148q-45 -3 -61 -29q-18 20 -26 23.5t-39 3.5v-146q25 -2 36.5 -10t20.5 -31
q42 -108 42 -122q0 -13 -17 -26q17 -14 17 -30q0 -6 -44 -118q-16 -39 -57 -41l1 -147q30 0 38 3t26 24q16 -26 61 -28v148q-24 6 -24 33q0 11 15 49q15 35 22 46q7 -11 21.5 -47.5t14.5 -47.5q0 -27 -24 -33l1 -148q45 2 60 28q19 -21 26.5 -24.5t38.5 -3.5v148
q-41 2 -56 41q-45 112 -45 118q0 16 18 29q-18 13 -18 27z" />
    <glyph glyph-name="Y" unicode="Y" horiz-adv-x="324" 
d="M221 1l-2 147q-42 -2 -42 69v64q4 41 57 50q-15 16 -15 31q0 18 13 64q10 33 19 66t52 31v150q-25 0 -36.5 -4.5t-30.5 -21.5q-25 16 -32 19q-11 4 -38 5v-148q11 -3 22 -6.5t11 -16.5q0 -27 -17 -76q-13 -38 -27 -76l-3 -10l-6 10q-12 38 -25 76q-15 49 -15 76
q0 13 11 16.5t22 6.5v148q-26 -1 -38 -5q-7 -3 -31 -19q-20 17 -31.5 21.5t-36.5 4.5v-150q43 2 52 -31t19 -66q13 -46 13 -64q0 -15 -15 -31q51 -9 54 -52q3 -39 3 -62q0 -71 -42 -69l-1 -147q32 -2 37 -2q23 2 29 16q7 -14 31 -16q6 0 39 2z" />
    <glyph glyph-name="Z" unicode="Z" horiz-adv-x="275" 
d="M253 672l-88 -302q-2 -29 13 -39q-14 -10 -34 -33q-12 -29 -27 -79q-14 -45 -14 -50q0 -28 45 -28q23 0 37 14.5t14 36.5v69h45v-263q-22 0 -35.5 10t-11.5 10q-1 0 -24 -12t-46 -9q-51 -3 -69 22q-2 0 -18.5 -9.5t-19.5 -9.5h-22l92 302q3 6 -5 18l-14 18q22 2 39 29
q3 6 22 62q20 60 20 72q0 26 -46 26q-50 0 -56 -28q-1 -41 -1 -82h-40v257q19 3 34.5 -9t17.5 -12q1 0 23.5 10.5t39.5 10.5q25 0 47 -10.5t21 -10.5q10 6 20 11q14 8 41 8z" />
    <glyph glyph-name="bracketleft" unicode="[" horiz-adv-x="152" 
d="M101 733v-146q-38 -2 -49 0v-499q35 -1 49 -1v-147l-101 1v791z" />
    <glyph glyph-name="backslash" unicode="\" horiz-adv-x="293" 
d="M248 0h37l-246 668h-37z" />
    <glyph glyph-name="bracketright" unicode="]" horiz-adv-x="152" 
d="M1 -60l-1 145q39 3 50 0v500q-36 1 -50 1v147l101 -1v-792h-100z" />
    <glyph glyph-name="asciicircum" unicode="^" horiz-adv-x="259" 
d="M116 741q-21 -9 -57 -26q-31 -15 -32 -15q-2 0 -7 16l95 81v-1l1 1l1 -2l94 -79q-5 -16 -7 -16q-1 0 -32 15q-36 17 -56 26z" />
    <glyph glyph-name="underscore" unicode="_" horiz-adv-x="377" 
d="M-1 -103h378v-46h-378v46z" />
    <glyph glyph-name="grave" unicode="`" horiz-adv-x="259" 
d="M82 802l107 -90q-6 -17 -9 -17q-2 0 -133 52z" />
    <glyph glyph-name="a" unicode="a" horiz-adv-x="317" 
d="M280 -1h-26q-13 0 -25 8l-12 8q-31 -16 -41 -16h-25l1 148q4 -1 9 -1q14 0 22.5 9.5t8.5 19.5q0 5 -13 67h-72l-11 -68q0 -12 10.5 -21t26.5 -6l1 -148h-23q-12 0 -35 18q-2 0 -18.5 -9t-19.5 -9h-14h-18l-1 146q1 0 16.5 2.5t20.5 13.5t15 73q9 57 9 67q0 16 -7 23
l-14 14q7 5 20 18q6 7 11 42q4 29 32 273q-1 -1 12 -1q2 0 10.5 -6t10.5 -6t9.5 6t11.5 6t12 2l43 -301q3 -21 25 -32q0 -1 -13 -16q-6 -7 -6 -20q0 -8 16 -126q2 -8 11.5 -19t14.5 -11h6.5h8.5v-148zM161 372l-20 162l-18 -157q0 -34 18 -36q20 -2 20 31zM171 290
q-9 54 -30 54q-5 0 -14 -7.5t-9 -14.5q0 -11 -5 -32q51 -1 58 0z" />
    <glyph glyph-name="b" unicode="b" horiz-adv-x="283" 
d="M271 230q-7 -5 -14 -11q-11 -8 -11 -35l1 -79q0 -48 -28.5 -79t-76.5 -30q-33 1 -64 25q-3 0 -19.5 -10.5t-28.5 -10.5h-30v147q48 0 48 33l1 110q0 32 -32 49q32 15 32 48q-2 83 -1 104t-23 28.5t-26 3.5l1 150q40 0 33 -1q12 1 24.5 -7l12.5 -8q-2 0 22.5 9.5t49.5 7.5
q45 -2 74 -38.5t29 -85.5v-61q2 -12 26 -29q0 -1 -15 -12q-11 -8 -10 -26q0 -37 -9 -55q-9 -14 -33 -29q27 -14 34 -38l6 -40q2 -12 27 -30zM194 420q0 32 -25 41q21 8 21 31q0 33 -47 33q-35 0 -44 -23q-5 -11 -5 -50l1 -60q0 -11 11 -22t21 -11q34 0 46 7q21 13 21 54z
M195 184q2 30 -23 44q24 15 22 32q-4 37 -23 49q-15 10 -47 8q-10 -1 -19.5 -12t-9.5 -24l-1 -63q0 -39 5 -50q9 -23 44 -23q50 0 52 39z" />
    <glyph glyph-name="c" unicode="c" horiz-adv-x="260" 
d="M216 146q0 -54 1 -50q-11 -102 -99 -102q-43 0 -69 33q-25 30 -25 73v101l-1 45v61t-21 32l12 14q9 12 9 18v27q1 20 1 21v144q0 39 13 69q21 45 70 45q40 0 62 -28q23 23 27 23h20v-262h-44q0 42 -1 82q-7 38 -51 38q-50 0 -50 -41q1 -26 1 -44q-1 -12 -1 -20v-8
q0 -36 4 -48q8 -24 21 -33q-11 -9 -23 -32v-117q0 -43 48 -44q45 -1 51 41q-2 37 0 81h45v-119z" />
    <glyph glyph-name="d" unicode="d" horiz-adv-x="268" 
d="M264 337q-25 -8 -25 -38l1 -160q0 -39 -4 -55q-13 -52 -42 -72q-22 -15 -60 -15q-37 0 -66 27q-30 -23 -37 -23q-20 -9 -31 -2v145q42 -5 42 40v115q0 20 -30 38q28 11 28 32v127q0 24 -13 31q-6 4 -27 4v139h9h10q11 0 39 -21q20 18 37 23q13 4 42 4q34 0 65 -24
q37 -27 41 -72v-59v-147q0 -21 21 -37zM188 216q0 87 1 77q-2 23 -6 28q-9 7 -18 15q25 17 23 38q-1 49 -3 98q-9 57 -51 57q-39 0 -43 -33q2 -42 0 -127q-1 -20 25 -32q-25 -12 -25 -40q0 -22 1 -50q0 -28 0 -26q0 -44 5 -55q8 -20 42 -21q38 -1 47 34q2 8 2 37z" />
    <glyph glyph-name="e" unicode="e" horiz-adv-x="259" 
d="M153 397v23h-30q3 -12 3 -24q0 -36 -25 -33q-7 0 -10 9q-1 6 -3 11v96q1 45 28 45q29 0 17 0h24q26 0 35 -59q7 -53 2 -60h37l1 267q-24 3 -37 -3q-7 -3 -13 -10.5l-6 -7.5q2 0 -12.5 12t-42.5 13q-31 1 -51 -27q-12 15 -24 20q-8 2 -15 3h-30v-146q45 0 45 -25v-115
q0 -32 -32 -49q32 -17 32 -51v-115q0 -24 -45 -24v-147h30q15 0 20 3t19 21q19 -27 53 -27q19 0 37 13.5t16 13.5q-1 0 10.5 -11t21.5 -12h24v266h-38q5 -126 -43 -120h-37q-18 0 -24 23q-2 10 -2 24v95q2 6 4 13t9 8q24 2 24 -34q0 -13 -2 -26h34v40q1 12 2.5 23.5
t19.5 21.5q-30 15 -26 62z" />
    <glyph glyph-name="f" unicode="f" horiz-adv-x="258" 
d="M123 149q-29 0 -34 50l-1 90q2 6 4 13t9 8q23 2 23 -36q0 -7 -1 -16t-1 -10q-6 2 31 2v37q-3 7 -3 13q0 20 29 35q-29 15 -29 37q0 6 3 14v34h-30l1.5 -9t1.5 -17q0 -34 -25 -31q-7 0 -10 9q-1 6 -3 11v96q-6 46 21 46q10 0 57 -1q30 2 30 -81q0 -27 -2 -38h37l1 264
q-24 6 -37 0q-6 -3 -12.5 -9.5t-7.5 -6.5q2 0 -15.5 11t-36.5 11q-34 0 -53 -26q-14 17 -19 20.5t-20 2.5h-30v-146q45 0 45 -25v-115q0 -32 -32 -49q32 -17 32 -51v-84q0 -38 -17 -50q-8 -5 -28 -5v-147h30q16 0 23.5 3.5t20.5 20.5q9 -12 17 -16q13 -5 26 -11q5 -2 29 3
l1 149h-25z" />
    <glyph glyph-name="g" unicode="g" horiz-adv-x="268" 
d="M257 277q-14 -3 -27 -5q-18 -6 -20 -23v-41v-210h-11q-2 0 -17 8.5t-17 8.5t-6 -4.5t-7 -5.5q-19 -10 -28 -10q-57 0 -85 54q-20 40 -20 95v164q0 6 -8 15.5t-16 11.5q18 15 22 29q2 6 2 40v108q0 72 10 104q20 64 86 61q13 -1 30.5 -11t18.5 -10l13.5 10t31.5 9v-266
q-10 -2 -45 -1q8 26 4 79q-4 41 -53 41q-24 0 -33 -7t-12 -30l-2 -108q0 -20 1 -23q4 -16 24 -24q-18 -10 -21 -22q-8 -36 -4 -87l2 -46q9 -36 48 -36q31 0 41 12q8 9 9 38v59q0 14 -16.5 19t-31.5 2v87q31 -2 49 -14t15 -12q1 0 16 8q19 10 57 16q-3 -21 0 -83z" />
    <glyph glyph-name="h" unicode="h" horiz-adv-x="320" 
d="M118 357h52q20 0 23 25l-1 100q0 23 -3 29q-7 15 -34 15l1 147l23 -1q26 -1 40 -17q23 18 45 18h27l-1 -146q-29 -2 -34 -9.5t-5 -35.5v-100q0 -29 21 -47q-24 -21 -21 -45v-99q0 -44 38 -44v-147h-23q-12 0 -25.5 10.5t-16.5 10.5t-17.5 -10.5t-26.5 -10.5h-24v147
q39 0 39 44l1 99q-6 8 -10.5 15t-16.5 7h-51q-23 -5 -21 -22v-99q0 -44 38 -44v-147h-23q-12 0 -25.5 10.5t-16.5 10.5t-17.5 -10.5t-26.5 -10.5h-24v147q41 0 40 42v101q5 24 -23 45q14 12 17 17.5t6 29.5l-1 100q0 44 -40 44l1 147l23 -1q26 -1 40 -17q23 18 45 18h27
l-2 -147q-28 -1 -34 -10q-3 -5 -3 -34l-1 -100q-1 -10 10 -17q5 -4 11 -8z" />
    <glyph glyph-name="i" unicode="i" horiz-adv-x="192" 
d="M125 673h37l-1 -146q-31 -2 -38.5 -8t-10.5 -37v-100q-1 -19 10 -31q11 -8 21 -16q-34 -21 -31 -45v-99q0 -44 49 -44v-147h-34q-12 0 -25.5 10.5t-16.5 10.5t-17.5 -10.5t-26.5 -10.5h-33v147q48 0 48 44l1 99q5 24 -33 45q11 8 20.5 17t12.5 30l-2 100q0 29 -8 37
t-39 8v146h30q27 -1 42 -18q23 18 45 18z" />
    <glyph glyph-name="j" unicode="j" horiz-adv-x="265" 
d="M236 520q-15 -2 -29 -4q-18 -4 -16 -31v-86q0 -47 25 -61q-25 -24 -25 -49v-177q0 -43 -24 -76q-26 -36 -66 -36q-47 0 -75 39q-25 35 -25 84v145h44q-1 -43 -1 -68q0 -55 43 -55q29 0 40.5 7t11.5 33v42q1 28 1 41q0 46 -24 69q10 14 21 27q5 9 5 38v86q0 33 -43 36v152
q2 -1 30 -3q20 -1 39 -23q19 32 69 25z" />
    <glyph glyph-name="k" unicode="k" horiz-adv-x="315" 
d="M290 0h-28q-21 0 -43 17q-4 -5 -21 -11t-22 -6h-25v145q7 0 17 2q14 12 14 23q0 8 -19 62q-17 49 -22 61q-2 0 -3.5 -5.5l-1.5 -5.5q-3 -5 -28 -58q-12 -26 -13 -45q-2 -22 16 -30q7 -3 17 -2l1 -144q-10 -3 -15 -3q-17 1 -32 9.5t-16 8.5q1 0 -13.5 -9t-29.5 -9
q-13 0 -22 2v142q2 1 21.5 1t25.5 36q1 116 -1 135q-1 9 -13 16l-16 8q12 7 25 27q4 6 4 30l-1 87q-1 30 -21 35q-12 1 -24 3v151h20q23 0 47 -21q7 6 13 11q12 10 29 10h17l1 -151q-34 5 -34 -38l1 -114q0 -22 11 -29q5 5 7 8q72 142 72 146q0 24 -34 28v149h19
q27 0 43 -21q24 23 47 22l21 -1v-151q-10 -1 -19 -3q-17 -5 -25 -23q-2 -5 -33 -70q-26 -53 -26 -61q0 -18 23 -26q-14 -13 -16 -18v-18q0 -10 12.5 -37t32.5 -83q7 -17 24 -30q7 -5 36 -5v-147z" />
    <glyph glyph-name="l" unicode="l" horiz-adv-x="267" 
d="M106 190q4 -28 7 -33q9 -14 41 -14q17 0 29 11.5t13 27.5v81q7 -2 43 0v-262q-6 -1 -12 -1q-19 0 -40 15q-1 0 -24.5 -9.5t-36.5 -10.5q-26 -1 -47.5 10.5t-17.5 11.5q3 0 -14.5 -9t-47.5 -7v143q41 -1 46 45v95q-3 41 -28 51q16 14 20 21q9 12 11 34v92q-3 29 -9.5 35
t-37.5 6l-1 150q31 0 38 -2q20 -5 35 -26q22 24 43 27q19 0 39 1l-1 -150q-32 -2 -39 -6.5t-13 -33.5v-91q5 -36 31 -59q-22 -9 -27 -45q2 -96 0 -98z" />
    <glyph glyph-name="m" unicode="m" horiz-adv-x="390" 
d="M198 1q27 198 47 311q2 14 14 22q-4 7 -8 15q-2 6 1 31l18 137h7l1 -137q-1 -9 -1 -18q-3 -14 -16 -28q1 2 8 -9q8 -15 8 -43v-106q-2 -15 -17 -22.5t-29 -6.5v-146q0 -5 30.5 7t34.5 16q5 -6 36 -15.5t31 -7.5v146q-44 -5 -44 32q-1 68 -1 100q0 45 23 56q-16 13 -19 23
q-1 3 -1 23l1 114q0 15 5 22.5t36 4.5v149q-38 5 -64 -20q-21 23 -53 23q-4 -36 -42 -294q-6 -35 -19 -45q11 -9 11 -25q0 -9 -6 -28q-6 -24 -7 -29q-1 5 -8 29q-5 19 -5 28q0 16 11 25q-9 17 -19 45q-17 105 -43 294q-43 2 -59 -25q-19 27 -58 22v-149q33 3 39 -8
q3 -6 4 -20l-1 -113q0 -20 -1 -23q-3 -10 -19 -23q23 -11 23 -56v-100q-1 -37 -44 -32l-1 -146h16q14 4 31.5 11.5t20.5 11.5q9 -10 64 -23v146q-14 -1 -29 6.5t-17 22.5v106q0 28 9 43q6 11 8 9q-14 14 -16 28q-1 9 -1 18v137h7l19 -137q3 -25 1 -31q-4 -8 -9 -15
q12 -8 15 -22q20 -113 46 -311q4 -1 16 14q3 -8 15 -14z" />
    <glyph glyph-name="n" unicode="n" horiz-adv-x="311" 
d="M241 367q0 -7 12 -20q9 -11 17 -16q-9 -9 -17 -18.5t-8 -28.5v-125q1 -124 1 -157q-11 2 -26 11q-22 -15 -23 -13q-14 76 -38 189q-7 46 -31 134q-1 3 -9 9.5t-8 8.5q0 3 5.5 11.5t5.5 10.5q0 3 -4.5 22t-5.5 24q-4 25 -22 113v-147q2 -9 5 -18q5 -13 12 -16
q-19 -25 -19 -60v-99q0 -11 11 -23t21 -12h16l1 -147h-35q-11 -1 -21 8l-10 9q1 0 -10.5 -8.5t-24.5 -8.5h-36v147q8 -1 22 -1q25 8 25 38v98v31q-3 17 -21 25q21 20 21 39l-2 133q-2 25 -29 25q-7 0 -13 -2l1 138q6 3 13 3q13 0 26 -11t13 -10q15 20 31 20q7 0 12 -5
q24 -104 73 -314q2 -11 15 -16q12 7 12 63l-2 85q-7 40 -43 37l-1 150h28q10 1 23.5 -8l13.5 -9q-2 0 13 9t28 8l30 -1v-152q-16 -2 -32 -3q-15 -6 -15 -34zM201 325q0 4 -14 11q-3 -5 -9 -13l18 -82q1 46 3 68q2 19 2 16z" />
    <glyph glyph-name="o" unicode="o" horiz-adv-x="269" 
d="M249 335q-21 -20 -21 -60v-174q0 -40 -17 -69q-25 -42 -78 -43q-91 0 -101 115v166q-3 27 -3 30q-5 16 -20 32q15 15 20 34q0 1 3 31v171q6 116 97 116q55 0 81 -43q18 -30 18 -71v-177q-3 -34 21 -58zM179 194q-4 53 -1 78q5 36 -22 63q16 17 22 60v85q4 55 -52 55
q-33 0 -44 -21q-5 -10 -5 -36v-77q0 -30 4 -38q11 -15 22 -29l-22 -30q-4 -8 -4 -38v-72q0 -57 55 -57q52 0 47 57z" />
    <glyph glyph-name="p" unicode="p" horiz-adv-x="274" 
d="M261 461q-22 -22 -19 -41q3 -29 -12 -64q-19 -45 -58 -47t-84 -2q-2 -96 0 -130q0 -29 45 -29l-1 -149h-26q-6 0 -21 9.5t-22 17.5q-14 -12 -45 -25l-18 -1l1 147q12 0 21 4q20 8 21 31q3 58 -1 113q-2 14 -29 39q25 8 28 50l1 98q0 39 -42 40v152q-1 -1 26 -1
q19 0 39 -23q20 27 72 26q40 -1 61 -16q28 -19 39 -70q5 -22 3 -90q3 -22 21 -39zM191 497q0 21 -15 26q-6 2 -36 2q-28 0 -35 -5q-14 -7 -14 -36v-88q0 -23 8 -32.5t32 -9.5t41.5 17t17.5 45q0 21 -2 26t-16 17q15 8 18 17q1 4 1 21z" />
    <glyph glyph-name="q" unicode="q" horiz-adv-x="274" 
d="M263 144v-145h-17q-21 0 -41 29q-25 -33 -72 -33q-46 0 -75 34q-26 31 -27 77l-1 174q0 30 -21 52q22 22 22 55v190q0 99 89 99q97 0 97 -96l-1 -191q4 -15 8 -29q6 -19 19 -26q-15 -14 -20 -32q-2 -11 -4 -21l-1 -106q0 -18 17 -25q6 -2 28 -6zM174 388q-2 104 -2 105
q-6 32 -46 32q-36 1 -45 -24q-5 -12 -4 -55v-55q1 -45 23 -57q-21 -20 -21 -53v-75q0 -34 8 -47q10 -16 40 -16q28 0 37 17q6 11 6 40v81q-1 3 -7 27q-4 14 -14 24q10 10 15 25.5t10 30.5z" />
    <glyph glyph-name="r" unicode="r" horiz-adv-x="276" 
d="M264 1q1 0 -42 0q-52 0 -52 46v135q-2 9 -7 25q-7 7 -21 22q28 10 26 38q-3 33 -9 38q-1 1 -23 1q-45 0 -48 1q-1 -36 0 -125q0 -11 14.5 -21.5t30.5 -13.5v-145q-5 -4 -15 -2q-15 2 -16 2q-11 2 -20 10.5t-10 9.5q-9 -8 -17.5 -14.5t-21.5 -6.5h-33v146q16 -2 29.5 7.5
t13.5 27.5v111q0 19 -7 28q-5 5 -22 14q25 12 28 37q1 101 0 119q-2 28 -43 28v152q14 3 38 -5.5t31 -15.5q32 24 63 24q46 0 69 -43q17 -32 17 -77l-1 -63q-2 -16 23 -34q-23 -22 -21 -40q3 -58 -38 -83q36 -12 36 -64q0 -14 8.5 -22t16.5 -16q-23 -13 -23 -53
q0 -22 8.5 -30.5t37.5 -5.5v-142zM170 420q0 15 -6.5 23t-13.5 16q21 6 20 30q-2 23 -8.5 28.5t-30.5 5.5q-43 0 -43 -26v-115q-3 -8 4 -18q10 -14 42 -14q36 0 36 70z" />
    <glyph glyph-name="s" unicode="s" horiz-adv-x="239" 
d="M206 146q0 -151 -90 -151q-32 0 -49 23q-2 0 -15.5 -10.5t-16.5 -10.5l-23 1l1 266h40v-54q0 -23 13 -45q15 -25 38 -25q47 0 47 52q0 29 -26 74q-30 52 -61 45q6 16 6 23q0 5 -15 36q-19 37 -29 68q-15 48 -15 96q0 144 89 144q22 0 50 -18q21 18 30 17h17v-266h-42
q1 -7 1 40q0 83 -49 83q-19 0 -30 -16t-11 -35q0 -27 22 -73q25 -51 49 -46q0 -11 3 -28q43 -67 55 -107q11 -33 11 -83z" />
    <glyph glyph-name="t" unicode="t" horiz-adv-x="287" 
d="M172 676q15 -1 30 -7t13 -6q-3 0 11.5 6t22.5 6q7 0 9 -4v-264l-38 2q-3 57 0 88q4 32 -34 32q-23 0 -28 -30q-2 -8 -2 -45l1 -81q0 -7 10 -21q6 -9 13 -17q-9 -2 -19 -15.5t-8 -20.5l1 -110q0 -44 40 -42v-146q-35 0 -41.5 2.5t-13.5 8.5t-8 6q-2 0 -11.5 -6t-16 -8.5
t-41.5 -2.5v146q40 -2 40 42l1 110q2 7 -8 20.5t-19 15.5q7 8 13 17q10 14 10 21l1 81q0 37 -2 45q-5 30 -28 30q-37 0 -34 -32q3 -31 0 -88l-38 -2v264q2 4 9 4q9 0 23 -6t11 -6q-2 0 13 6t30 7q21 0 33.5 -5.5t13.5 -5.5l10 5.5t31 5.5z" />
    <glyph glyph-name="u" unicode="u" horiz-adv-x="315" 
d="M273 336q-26 -14 -26 -60v-157q0 -44 -18 -78q-24 -46 -75 -46q-50 0 -80 46q-23 37 -23 78v159q0 44 -27 58q10 5 18.5 21t7.5 27q-1 86 0 87q0 31 -9 41.5t-35 10.5l1 151q44 0 64 -21q27 16 32 18q9 3 36 3v-150q-29 -5 -36 -13.5t-7 -39.5q0 -102 -1 -89
q2 -27 26 -48q-19 -21 -21 -24q-4 -9 -4 -32.5t-1 -102.5q1 -21 11.5 -28t42.5 -7q26 0 36 4q16 7 17 31v99q0 25 -3.5 32t-22.5 28q24 21 26 47q2 36 0 90q-1 32 -8.5 40t-34.5 13v150q28 0 36 -3q5 -2 32 -18q20 21 65 21v-151q-24 -2 -29 -6q-9 -8 -15 -46q2 -2 0 -88
q0 -11 7.5 -26.5t17.5 -20.5z" />
    <glyph glyph-name="v" unicode="v" horiz-adv-x="309" 
d="M138 184q-7 47 -17 116q-2 18 0 20q6 9 13 17q-21 20 -23 30q-13 67 -13 121q0 18 3.5 22t30.5 12q0 44 1 154q-40 0 -68 -28q-25 28 -66 25l-1 -150q14 -3 27.5 -8t16.5 -24q20 -119 20 -122q0 -16 -22 -32q27 -14 29 -30q15 -106 47 -309q5 -1 13.5 7t10.5 6q2 2 13 -6
t15 -7q11 52 25 151q18 132 22 158q3 16 29 30q-21 16 -21 32q0 3 19 122q3 19 17 24t27 8l-1 150q-41 3 -66 -25q-28 28 -67 28l1 -154q26 -8 30 -12t4 -22q0 -54 -14 -121q-2 -10 -23 -30q7 -8 14 -17q1 -2 -1 -20q-7 -55 -16 -116q-4 -8 -6 -6q-1 -2 -3 6z" />
    <glyph glyph-name="w" unicode="w" horiz-adv-x="450" 
d="M273 -2q6 0 22 12q2 3 11 -5t13 -7q14 56 26 153q18 139 21 155.5t29 30.5q-21 16 -21 32q0 3 19 122q3 19 17 24t27 8l-1 150q-41 3 -66 -25q-28 28 -67 28v-154q27 -8 31 -12t4 -22q0 -54 -14 -121q-2 -10 -23 -30q7 -8 14 -17q1 -2 -1 -20q-7 -55 -16 -116q-1 0 -3 3
q-15 91 -15 112q0 1 -1 11q-1 8 0 13q2 7 10 13q-6 6 -13 12.5t-9 18.5l-23 126q0 26 37 30v153q-42 -9 -65 -32q-23 24 -62 32v-153q20 -2 27.5 -7.5t7.5 -22.5q0 -1 -10 -49q-11 -52 -14 -79q-1 -10 -7.5 -16.5t-11.5 -12.5q8 -6 10 -12t1 -14q-2 -10 -2 -11
q0 -21 -15 -112q-1 -2 -2 -3q-7 47 -17 116q-2 18 0 20q6 9 13 17q-21 20 -23 30q-13 67 -13 121q0 18 3.5 22t30.5 12q0 44 1 154q-40 0 -68 -28q-25 28 -66 25l-1 -150q14 -3 27.5 -8t16.5 -24q20 -119 20 -122q0 -16 -22 -32q27 -14 29.5 -30.5t20.5 -155.5
q12 -97 26 -153q5 -1 13.5 7t10.5 5q6 -6 12 -8.5t11 -3.5l55 342q14 -87 55 -342z" />
    <glyph glyph-name="x" unicode="x" horiz-adv-x="313" 
d="M180 362q0 16 42 122q9 23 20.5 31t35.5 10l1 146q-31 0 -39 -3.5t-27 -23.5q-15 26 -60 29l-1 -148q24 -7 24 -34q0 -12 -13 -47.5t-20 -47.5q-7 11 -21 47.5t-14 47.5q0 27 24 34v148q-45 -3 -61 -29q-18 20 -26 23.5t-39 3.5v-146q25 -2 36.5 -10t20.5 -31
q42 -108 42 -122q0 -13 -17 -26q17 -14 17 -30q0 -6 -44 -118q-16 -39 -57 -41l1 -147q30 0 38 3t26 24q16 -26 61 -28v148q-24 6 -24 33q0 11 15 49q15 35 22 46q7 -11 21.5 -47.5t14.5 -47.5q0 -27 -24 -33l1 -148q45 2 60 28q19 -21 26.5 -24.5t38.5 -3.5v148
q-41 2 -56 41q-45 112 -45 118q0 16 18 29q-18 13 -18 27z" />
    <glyph glyph-name="y" unicode="y" horiz-adv-x="324" 
d="M228 1l-2 147q-42 -2 -42 69v64q4 41 57 50q-15 16 -15 31q0 18 13 64q10 33 19 66t52 31v150q-25 0 -36.5 -4.5t-30.5 -21.5q-25 16 -32 19q-11 4 -38 5v-148q11 -3 22.5 -6.5t11.5 -16.5q0 -27 -18 -76l-26 -76l-4 -10l-6 10q-12 38 -25 76q-15 49 -15 76q0 13 11 16.5
t22 6.5v148q-26 -1 -38 -5q-7 -3 -31 -19q-20 17 -31.5 21.5t-36.5 4.5v-150q43 2 52 -31t19 -66q13 -46 13 -64q0 -15 -15 -31q51 -9 55 -52q2 -39 2 -62q0 -71 -42 -69l-1 -147q32 -2 37 -2q23 2 29 16q7 -14 31 -16q6 0 39 2z" />
    <glyph glyph-name="z" unicode="z" horiz-adv-x="275" 
d="M253 672l-88 -302q-2 -29 13 -39q-14 -10 -34 -33q-12 -29 -27 -79q-14 -45 -14 -50q0 -28 45 -28q23 0 37 14.5t14 36.5v69h45v-263q-22 0 -35.5 10t-11.5 10q-1 0 -24 -12t-46 -9q-51 -3 -69 22q-2 0 -18.5 -9.5t-19.5 -9.5h-22l92 302q3 6 -5 18l-14 18q22 2 39 29
q3 6 22 62q20 60 20 72q0 26 -46 26q-50 0 -56 -28q-1 -41 -1 -82h-40v257q19 3 34.5 -9t17.5 -12q1 0 23.5 10.5t39.5 10.5q25 0 47 -10.5t21 -10.5q10 6 20 11q14 8 41 8z" />
    <glyph glyph-name="braceleft" unicode="{" horiz-adv-x="152" 
d="M96 -110h39l1 78q-33 2 -44 15q-6 8 -6 27v273q0 31 -27 52q8 5 13 11q13 14 14 32v269q-4 54 48 50l1 86l-43 -1q-21 -1 -40 -21t-18 -52v-328q3 -24 -36 -45q8 -6 15 -18q12 -21 17 -28v-329q-3 -30 17 -50.5t49 -20.5z" />
    <glyph glyph-name="bar" unicode="|" horiz-adv-x="184" 
d="M57 704h52v-744h-52v744z" />
    <glyph glyph-name="braceright" unicode="}" horiz-adv-x="152" 
d="M38 782l-39 1l-1 -78q34 -3 45 -16q6 -7 6 -26v-274q0 -30 27 -52q-8 -4 -13 -10q-13 -15 -14 -33v-269q4 -53 -48 -50l-1 -85l43 1q21 1 38 19q21 22 20 53v328q-3 24 35 45q-7 7 -14 18q-13 22 -18 29l1 329q3 29 -17 49.5t-50 20.5z" />
    <glyph glyph-name="asciitilde" unicode="~" horiz-adv-x="224" 
d="M-1 742q39 50 62 50q29 0 52 -15.5t36 -15.5q20 0 29 5q4 2 26 19l14 -20q-20 -32 -27 -38q-14 -14 -39 -14q-24 0 -46.5 13t-40.5 13q-39 0 -52 -20z" />
    <glyph glyph-name="Adieresis" unicode="&#xc4;" horiz-adv-x="317" 
d="M280 -1h-26q-13 0 -25 8l-12 8q-31 -16 -41 -16h-25l1 148q4 -1 9 -1q14 0 22.5 9.5t8.5 19.5q0 5 -13 67h-72l-11 -68q0 -12 10.5 -21t26.5 -6l1 -148h-23q-12 0 -35 18q-2 0 -18.5 -9t-19.5 -9h-14h-18l-1 146q1 0 16.5 2.5t20.5 13.5t15 73q9 57 9 67q0 16 -7 23
l-14 14q7 5 20 18q6 7 11 42q4 29 32 273q-1 -1 12 -1q2 0 10.5 -6t10.5 -6t9.5 6t11.5 6t12 2l43 -301q3 -21 25 -32q0 -1 -13 -16q-6 -7 -6 -20q0 -8 16 -126q2 -8 11.5 -19t14.5 -11h6.5h8.5v-148zM161 372l-20 162l-18 -157q0 -34 18 -36q20 -2 20 31zM171 290
q-9 54 -30 54q-5 0 -14 -7.5t-9 -14.5q0 -11 -5 -32q51 -1 58 0zM161 749q0 15 11 26t26 11q16 0 27 -11t11 -26q0 -16 -11 -27t-27 -11q-15 0 -26 11t-11 27zM41 749q0 15 11 26t26 11q16 0 27 -11t11 -26q0 -16 -11 -27t-27 -11q-15 0 -26 11t-11 27z" />
    <glyph glyph-name="Aring" unicode="&#xc5;" horiz-adv-x="317" 
d="M280 -1h-26q-13 0 -25 8l-12 8q-31 -16 -41 -16h-25l1 148q4 -1 9 -1q14 0 22.5 9.5t8.5 19.5q0 5 -13 67h-72l-11 -68q0 -12 10.5 -21t26.5 -6l1 -148h-23q-12 0 -35 18q-2 0 -18.5 -9t-19.5 -9h-14h-18l-1 146q1 0 16.5 2.5t20.5 13.5t15 73q9 57 9 67q0 16 -7 23
l-14 14q7 5 20 18q6 7 11 42q4 29 32 273q-1 -1 12 -1q2 0 10.5 -6t10.5 -6t9.5 6t11.5 6t12 2l43 -301q3 -21 25 -32q0 -1 -13 -16q-6 -7 -6 -20q0 -8 16 -126q2 -8 11.5 -19t14.5 -11h6.5h8.5v-148zM161 372l-20 162l-18 -157q0 -34 18 -36q20 -2 20 31zM171 290
q-9 54 -30 54q-5 0 -14 -7.5t-9 -14.5q0 -11 -5 -32q51 -1 58 0zM137 822q25 0 42.5 -17.5t17.5 -42.5t-17.5 -42.5t-42.5 -17.5t-42.5 17.5t-17.5 42.5t17.5 42.5t42.5 17.5zM137 792q-30 0 -30 -30t30 -30t30 30t-30 30z" />
    <glyph glyph-name="Ccedilla" unicode="&#xc7;" horiz-adv-x="260" 
d="M136 -5v-33q23 -3 40.5 -21t17.5 -40q0 -34 -22 -56q-25 -24 -68 -20q-36 4 -51 17l27 30q10 -10 24 -10q43 0 43 39q0 13 -14 21t-29 8v65q-37 6 -58.5 36t-21.5 69v101l-1 45v61t-21 32l12 14q9 12 9 18v27q1 20 1 21v144q0 39 13 69q21 45 70 45q40 0 62 -28
q23 23 27 23h20v-262h-44q0 42 -1 82q-7 38 -51 38q-50 0 -50 -41q1 -26 1 -44q-1 -12 -1 -20v-8q0 -36 4 -48q8 -24 21 -33q-11 -9 -23 -32v-117q0 -43 48 -44q45 -1 51 41q-2 37 0 81h45v-119q0 -54 1 -50q-10 -91 -81 -101z" />
    <glyph glyph-name="Eacute" unicode="&#xc9;" horiz-adv-x="259" 
d="M153 397v23h-30q3 -12 3 -24q0 -36 -25 -33q-7 0 -10 9q-1 6 -3 11v96q1 45 28 45h41q26 0 35 -59q7 -53 2 -60h37l1 267q-24 3 -37 -3q-7 -3 -13 -10.5l-6 -7.5q2 0 -12.5 12t-42.5 13q-31 1 -51 -27q-12 15 -24 20q-8 2 -15 3h-30v-146q45 0 45 -25v-115q0 -32 -32 -49
q32 -17 32 -51v-115q0 -24 -45 -24v-147h30q15 0 20 3t19 21q19 -27 53 -27q19 0 37 13.5t16 13.5q-1 0 10.5 -11t21.5 -12h24v266h-38q5 -126 -43 -120h-37q-18 0 -24 23q-2 10 -2 24v95q2 6 4 13t9 8q24 2 24 -34q0 -13 -2 -26h34v40q1 12 2.5 23.5t19.5 21.5
q-30 15 -26 62zM153 802l-107 -90q6 -17 9 -17q2 0 133 52z" />
    <glyph glyph-name="Ntilde" unicode="&#xd1;" horiz-adv-x="311" 
d="M241 367q0 -7 12 -20q9 -11 17 -16q-9 -9 -17 -18.5t-8 -28.5v-125q1 -124 1 -157q-11 2 -26 11q-22 -15 -23 -13q-14 76 -38 189q-7 46 -31 134q-1 3 -9 9.5t-8 8.5q0 3 5.5 11.5t5.5 10.5q0 3 -4.5 22t-5.5 24q-4 25 -22 113v-147q2 -9 5 -18q5 -13 12 -16
q-19 -25 -19 -60v-99q0 -11 11 -23t21 -12h16l1 -147h-35q-11 -1 -21 8l-10 9q1 0 -10.5 -8.5t-24.5 -8.5h-36v147q8 -1 22 -1q25 8 25 38v98v31q-3 17 -21 25q21 20 21 39l-2 133q-2 25 -29 25q-7 0 -13 -2l1 138q6 3 13 3q13 0 26 -11t13 -10q15 20 31 20q7 0 12 -5
q24 -104 73 -314q2 -11 15 -16q12 7 12 63l-2 85q-7 40 -43 37l-1 150h28q10 1 23.5 -8l13.5 -9q-2 0 13 9t28 8l30 -1v-152q-16 -2 -32 -3q-15 -6 -15 -34zM201 325q0 4 -14 11q-3 -5 -9 -13l18 -82q1 46 3 68q2 19 2 16zM29 742q39 50 62 50q29 0 52 -15.5t36 -15.5
q20 0 29 5q4 2 26 19l14 -20q-20 -32 -27 -38q-14 -14 -39 -14q-24 0 -46.5 13t-40.5 13q-39 0 -52 -20z" />
    <glyph glyph-name="Odieresis" unicode="&#xd6;" horiz-adv-x="269" 
d="M249 335q-21 -20 -21 -60v-174q0 -40 -17 -69q-25 -42 -78 -43q-91 0 -100 115l-1 166q-3 27 -3 30q-5 16 -20 32q15 15 20 34q0 1 3 31l1 171q5 116 96 116q55 0 81 -43q18 -30 18 -71v-177q-3 -34 21 -58zM179 194q-4 53 -1 78q5 36 -22 63q16 17 22 60v85q4 55 -52 55
q-33 0 -44 -21q-5 -10 -5 -36v-77q0 -30 4 -38q11 -15 22 -29l-22 -30q-4 -8 -4 -38v-72q0 -57 55 -57q52 0 47 57zM151 749q0 15 11 26t26 11q16 0 27 -11t11 -26q0 -16 -11 -27t-27 -11q-15 0 -26 11t-11 27zM31 749q0 15 11 26t26 11q16 0 27 -11t11 -26q0 -16 -11 -27
t-27 -11q-15 0 -26 11t-11 27z" />
    <glyph glyph-name="Udieresis" unicode="&#xdc;" horiz-adv-x="315" 
d="M273 336q-26 -14 -26 -60v-157q0 -44 -18 -78q-24 -46 -75 -46q-50 0 -80 46q-23 37 -23 78v159q0 44 -27 58q10 5 18.5 21t7.5 27q-1 86 0 87q0 31 -9 41.5t-35 10.5l1 151q44 0 64 -21q28 16 31 18q9 3 36 3l1 -150q-29 -5 -36 -13.5t-7 -39.5q0 -102 -1 -89
q2 -27 26 -48q-19 -21 -21 -24q-4 -9 -4 -32.5t-1 -102.5q1 -21 11.5 -28t42.5 -7q26 0 36 4q16 7 17 31v99q0 25 -3.5 32t-22.5 28q24 21 26 47q2 36 0 90q-1 32 -8.5 40t-34.5 13v150q28 0 36 -3q5 -2 32 -18q20 21 65 21v-151q-24 -2 -29 -6q-9 -8 -15 -46q2 -2 0 -88
q0 -11 7.5 -26.5t17.5 -20.5zM171 749q0 15 11 26t26 11q16 0 27 -11t11 -26q0 -16 -11 -27t-27 -11q-15 0 -26 11t-11 27zM51 749q0 15 11 26t26 11q16 0 27 -11t11 -26q0 -16 -11 -27t-27 -11q-15 0 -26 11t-11 27z" />
    <glyph glyph-name="aacute" unicode="&#xe1;" horiz-adv-x="317" 
d="M280 -1h-26q-13 0 -25 8l-12 8q-31 -16 -41 -16h-25l1 148q4 -1 9 -1q14 0 22.5 9.5t8.5 19.5q0 5 -13 67h-72l-11 -68q0 -12 10.5 -21t26.5 -6l1 -148h-23q-12 0 -35 18q-2 0 -18.5 -9t-19.5 -9h-14h-18l-1 146q1 0 16.5 2.5t20.5 13.5t15 73q9 57 9 67q0 16 -7 23
l-14 14q7 5 20 18q6 7 11 42q4 29 32 273q-1 -1 12 -1q2 0 10.5 -6t10.5 -6t9.5 6t11.5 6t12 2l43 -301q3 -21 25 -32q0 -1 -13 -16q-6 -7 -6 -20q0 -8 16 -126q2 -8 11.5 -19t14.5 -11h6.5h8.5v-148zM161 372l-20 162l-18 -157q0 -34 18 -36q20 -2 20 31zM171 290
q-9 54 -30 54q-5 0 -14 -7.5t-9 -14.5q0 -11 -5 -32q51 -1 58 0zM173 802l-107 -90q6 -17 9 -17q2 0 133 52z" />
    <glyph glyph-name="agrave" unicode="&#xe0;" horiz-adv-x="317" 
d="M280 -1h-26q-13 0 -25 8l-12 8q-31 -16 -41 -16h-25l1 148q4 -1 9 -1q14 0 22.5 9.5t8.5 19.5q0 5 -13 67h-72l-11 -68q0 -12 10.5 -21t26.5 -6l1 -148h-23q-12 0 -35 18q-2 0 -18.5 -9t-19.5 -9h-14h-18l-1 146q1 0 16.5 2.5t20.5 13.5t15 73q9 57 9 67q0 16 -7 23
l-14 14q7 5 20 18q6 7 11 42q4 29 32 273q-1 -1 12 -1q2 0 10.5 -6t10.5 -6t9.5 6t11.5 6t12 2l43 -301q3 -21 25 -32q0 -1 -13 -16q-6 -7 -6 -20q0 -8 16 -126q2 -8 11.5 -19t14.5 -11h6.5h8.5v-148zM161 372l-20 162l-18 -157q0 -34 18 -36q20 -2 20 31zM171 290
q-9 54 -30 54q-5 0 -14 -7.5t-9 -14.5q0 -11 -5 -32q51 -1 58 0zM102 802l107 -90q-6 -17 -9 -17q-2 0 -133 52z" />
    <glyph glyph-name="acircumflex" unicode="&#xe2;" horiz-adv-x="317" 
d="M280 -1h-26q-13 0 -25 8l-12 8q-31 -16 -41 -16h-25l1 148q4 -1 9 -1q14 0 22.5 9.5t8.5 19.5q0 5 -13 67h-72l-11 -68q0 -12 10.5 -21t26.5 -6l1 -148h-23q-12 0 -35 18q-2 0 -18.5 -9t-19.5 -9h-14h-18l-1 146q1 0 16.5 2.5t20.5 13.5t15 73q9 57 9 67q0 16 -7 23
l-14 14q7 5 20 18q6 7 11 42q4 29 32 273q-1 -1 12 -1q2 0 10.5 -6t10.5 -6t9.5 6t11.5 6t12 2l43 -301q3 -21 25 -32q0 -1 -13 -16q-6 -7 -6 -20q0 -8 16 -126q2 -8 11.5 -19t14.5 -11h6.5h8.5v-148zM161 372l-20 162l-18 -157q0 -34 18 -36q20 -2 20 31zM171 290
q-9 54 -30 54q-5 0 -14 -7.5t-9 -14.5q0 -11 -5 -32q51 -1 58 0zM136 741q-21 -9 -57 -26q-31 -15 -32 -15q-2 0 -7 16l95 81v-1l1 1l1 -2l94 -79q-5 -16 -7 -16q-1 0 -32 15q-36 17 -56 26z" />
    <glyph glyph-name="adieresis" unicode="&#xe4;" horiz-adv-x="317" 
d="M280 -1h-26q-13 0 -25 8l-12 8q-31 -16 -41 -16h-25l1 148q4 -1 9 -1q14 0 22.5 9.5t8.5 19.5q0 5 -13 67h-72l-11 -68q0 -12 10.5 -21t26.5 -6l1 -148h-23q-12 0 -35 18q-2 0 -18.5 -9t-19.5 -9h-14h-18l-1 146q1 0 16.5 2.5t20.5 13.5t15 73q9 57 9 67q0 16 -7 23
l-14 14q7 5 20 18q6 7 11 42q4 29 32 273q-1 -1 12 -1q2 0 10.5 -6t10.5 -6t9.5 6t11.5 6t12 2l43 -301q3 -21 25 -32q0 -1 -13 -16q-6 -7 -6 -20q0 -8 16 -126q2 -8 11.5 -19t14.5 -11h6.5h8.5v-148zM161 372l-20 162l-18 -157q0 -34 18 -36q20 -2 20 31zM171 290
q-9 54 -30 54q-5 0 -14 -7.5t-9 -14.5q0 -11 -5 -32q51 -1 58 0zM161 749q0 15 11 26t26 11q16 0 27 -11t11 -26q0 -16 -11 -27t-27 -11q-15 0 -26 11t-11 27zM41 749q0 15 11 26t26 11q16 0 27 -11t11 -26q0 -16 -11 -27t-27 -11q-15 0 -26 11t-11 27z" />
    <glyph glyph-name="atilde" unicode="&#xe3;" horiz-adv-x="317" 
d="M280 -1h-26q-13 0 -25 8l-12 8q-31 -16 -41 -16h-25l1 148q4 -1 9 -1q14 0 22.5 9.5t8.5 19.5q0 5 -13 67h-72l-11 -68q0 -12 10.5 -21t26.5 -6l1 -148h-23q-12 0 -35 18q-2 0 -18.5 -9t-19.5 -9h-14h-18l-1 146q1 0 16.5 2.5t20.5 13.5t15 73q9 57 9 67q0 16 -7 23
l-14 14q7 5 20 18q6 7 11 42q4 29 32 273q-1 -1 12 -1q2 0 10.5 -6t10.5 -6t9.5 6t11.5 6t12 2l43 -301q3 -21 25 -32q0 -1 -13 -16q-6 -7 -6 -20q0 -8 16 -126q2 -8 11.5 -19t14.5 -11h6.5h8.5v-148zM161 372l-20 162l-18 -157q0 -34 18 -36q20 -2 20 31zM171 290
q-9 54 -30 54q-5 0 -14 -7.5t-9 -14.5q0 -11 -5 -32q51 -1 58 0zM36 742q39 50 62 50q29 0 52 -15.5t36 -15.5q20 0 29 5q4 2 26 19l14 -20q-20 -32 -27 -38q-14 -14 -39 -14q-24 0 -46.5 13t-40.5 13q-39 0 -52 -20z" />
    <glyph glyph-name="aring" unicode="&#xe5;" horiz-adv-x="317" 
d="M280 -1h-26q-13 0 -25 8l-12 8q-31 -16 -41 -16h-25l1 148q4 -1 9 -1q14 0 22.5 9.5t8.5 19.5q0 5 -13 67h-72l-11 -68q0 -12 10.5 -21t26.5 -6l1 -148h-23q-12 0 -35 18q-2 0 -18.5 -9t-19.5 -9h-14h-18l-1 146q1 0 16.5 2.5t20.5 13.5t15 73q9 57 9 67q0 16 -7 23
l-14 14q7 5 20 18q6 7 11 42q4 29 32 273q-1 -1 12 -1q2 0 10.5 -6t10.5 -6t9.5 6t11.5 6t12 2l43 -301q3 -21 25 -32q0 -1 -13 -16q-6 -7 -6 -20q0 -8 16 -126q2 -8 11.5 -19t14.5 -11h6.5h8.5v-148zM161 372l-20 162l-18 -157q0 -34 18 -36q20 -2 20 31zM171 290
q-9 54 -30 54q-5 0 -14 -7.5t-9 -14.5q0 -11 -5 -32q51 -1 58 0zM137 822q25 0 42.5 -17.5t17.5 -42.5t-17.5 -42.5t-42.5 -17.5t-42.5 17.5t-17.5 42.5t17.5 42.5t42.5 17.5zM137 792q-30 0 -30 -30t30 -30t30 30t-30 30z" />
    <glyph glyph-name="ccedilla" unicode="&#xe7;" horiz-adv-x="260" 
d="M136 -5v-33q23 -3 40.5 -21t17.5 -40q0 -34 -22 -56q-25 -24 -68 -20q-36 4 -51 17l27 30q10 -10 24 -10q43 0 43 39q0 13 -14 21t-29 8v65q-37 6 -58.5 36t-21.5 69v101l-1 45v61t-21 32l12 14q9 12 9 18v27q1 20 1 21v144q0 39 13 69q21 45 70 45q40 0 62 -28
q23 23 27 23h20v-262h-44q0 42 -1 82q-7 38 -51 38q-50 0 -50 -41q1 -26 1 -44q-1 -12 -1 -20v-8q0 -36 4 -48q8 -24 21 -33q-11 -9 -23 -32v-117q0 -43 48 -44q45 -1 51 41q-2 37 0 81h45v-119q0 -54 1 -50q-10 -91 -81 -101z" />
    <glyph glyph-name="eacute" unicode="&#xe9;" horiz-adv-x="259" 
d="M153 397v23h-30q3 -12 3 -24q0 -36 -25 -33q-7 0 -10 9q-1 6 -3 11v96q1 45 28 45q29 0 17 0h24q26 0 35 -59q7 -53 2 -60h37l1 267q-24 3 -37 -3q-7 -3 -13 -10.5l-6 -7.5q2 0 -12.5 12t-42.5 13q-31 1 -51 -27q-12 15 -24 20q-8 2 -15 3h-30v-146q45 0 45 -25v-115
q0 -32 -32 -49q32 -17 32 -51v-115q0 -24 -45 -24v-147h30q15 0 20 3t19 21q19 -27 53 -27q19 0 37 13.5t16 13.5q-1 0 10.5 -11t21.5 -12h24v266h-38q5 -126 -43 -120h-37q-18 0 -24 23q-2 10 -2 24v95q2 6 4 13t9 8q24 2 24 -34q0 -13 -2 -26h34v40q1 12 2.5 23.5
t19.5 21.5q-30 15 -26 62zM153 802l-107 -90q6 -17 9 -17q2 0 133 52z" />
    <glyph glyph-name="egrave" unicode="&#xe8;" horiz-adv-x="259" 
d="M153 397v23h-30q3 -12 3 -24q0 -36 -25 -33q-7 0 -10 9q-1 6 -3 11v96q1 45 28 45h41q26 0 35 -59q7 -53 2 -60h37l1 267q-24 3 -37 -3q-7 -3 -13 -10.5l-6 -7.5q2 0 -12.5 12t-42.5 13q-31 1 -51 -27q-12 15 -24 20q-8 2 -15 3h-30v-146q45 0 45 -25v-115q0 -32 -32 -49
q32 -17 32 -51v-115q0 -24 -45 -24v-147h30q15 0 20 3t19 21q19 -27 53 -27q19 0 37 13.5t16 13.5q-1 0 10.5 -11t21.5 -12h24v266h-38q5 -126 -43 -120h-37q-18 0 -24 23q-2 10 -2 24v95q2 6 4 13t9 8q24 2 24 -34q0 -13 -2 -26h34v40q1 12 2.5 23.5t19.5 21.5
q-30 15 -26 62zM72 802l107 -90q-6 -17 -9 -17q-2 0 -133 52z" />
    <glyph glyph-name="ecircumflex" unicode="&#xea;" horiz-adv-x="259" 
d="M153 397v23h-30q3 -12 3 -24q0 -36 -25 -33q-7 0 -10 9q-1 6 -3 11v96q1 45 28 45h41q26 0 35 -59q7 -53 2 -60h37l1 267q-24 3 -37 -3q-7 -3 -13 -10.5l-6 -7.5q2 0 -12.5 12t-42.5 13q-31 1 -51 -27q-12 15 -24 20q-8 2 -15 3h-30v-146q45 0 45 -25v-115q0 -32 -32 -49
q32 -17 32 -51v-115q0 -24 -45 -24v-147h30q15 0 20 3t19 21q19 -27 53 -27q19 0 37 13.5t16 13.5q-1 0 10.5 -11t21.5 -12h24v266h-38q5 -126 -43 -120h-37q-18 0 -24 23q-2 10 -2 24v95q2 6 4 13t9 8q24 2 24 -34q0 -13 -2 -26h34v40q1 12 2.5 23.5t19.5 21.5
q-30 15 -26 62zM116 741q-21 -9 -57 -26q-31 -15 -32 -15q-2 0 -7 16l95 81v-1l1 1l1 -2l94 -79q-5 -16 -7 -16q-1 0 -32 15q-36 17 -56 26z" />
    <glyph glyph-name="edieresis" unicode="&#xeb;" horiz-adv-x="259" 
d="M153 397v23h-30q3 -12 3 -24q0 -36 -25 -33q-7 0 -10 9q-1 6 -3 11v96q1 45 28 45h41q26 0 35 -59q7 -53 2 -60h37l1 267q-24 3 -37 -3q-7 -3 -13 -10.5l-6 -7.5q2 0 -12.5 12t-42.5 13q-31 1 -51 -27q-12 15 -24 20q-8 2 -15 3h-30v-146q45 0 45 -25v-115q0 -32 -32 -49
q32 -17 32 -51v-115q0 -24 -45 -24v-147h30q15 0 20 3t19 21q19 -27 53 -27q19 0 37 13.5t16 13.5q-1 0 10.5 -11t21.5 -12h24v266h-38q5 -126 -43 -120h-37q-18 0 -24 23q-2 10 -2 24v95q2 6 4 13t9 8q24 2 24 -34q0 -13 -2 -26h34v40q1 12 2.5 23.5t19.5 21.5
q-30 15 -26 62zM141 749q0 15 11 26t26 11q16 0 27 -11t11 -26q0 -16 -11 -27t-27 -11q-15 0 -26 11t-11 27zM21 749q0 15 11 26t26 11q16 0 27 -11t11 -26q0 -16 -11 -27t-27 -11q-15 0 -26 11t-11 27z" />
    <glyph glyph-name="iacute" unicode="&#xed;" horiz-adv-x="192" 
d="M125 673h37l-1 -146q-31 -2 -38.5 -8t-10.5 -37v-100q-1 -19 10 -31q11 -8 21 -16q-34 -21 -31 -45v-99q0 -44 49 -44v-147h-34q-12 0 -25.5 10.5t-16.5 10.5t-17.5 -10.5t-26.5 -10.5h-33v147q48 0 48 44l1 99q5 24 -33 45q11 8 20.5 17t12.5 30l-2 100q0 29 -8 37
t-38 8l-1 146h30q27 -1 42 -18q23 18 45 18zM123 802l-107 -90q6 -17 9 -17q2 0 133 52z" />
    <glyph glyph-name="igrave" unicode="&#xec;" horiz-adv-x="192" 
d="M125 673h37l-1 -146q-31 -2 -38.5 -8t-10.5 -37v-100q-1 -19 10 -31q11 -8 21 -16q-34 -21 -31 -45v-99q0 -44 49 -44v-147h-34q-12 0 -25.5 10.5t-16.5 10.5t-17.5 -10.5t-26.5 -10.5h-33v147q48 0 48 44l1 99q5 24 -33 45q11 8 20.5 17t12.5 30l-2 100q0 29 -8 37
t-38 8l-1 146h30q27 -1 42 -18q23 18 45 18zM52 802l107 -90q-6 -17 -9 -17q-2 0 -133 52z" />
    <glyph glyph-name="icircumflex" unicode="&#xee;" horiz-adv-x="192" 
d="M125 673h37l-1 -146q-31 -2 -38.5 -8t-10.5 -37v-100q-1 -19 10 -31q11 -8 21 -16q-34 -21 -31 -45v-99q0 -44 49 -44v-147h-34q-12 0 -25.5 10.5t-16.5 10.5t-17.5 -10.5t-26.5 -10.5h-33v147q48 0 48 44l1 99q5 24 -33 45q11 8 20.5 17t12.5 30l-2 100q0 29 -8 37
t-39 8l-1 146h31q27 -1 42 -18q23 18 45 18zM86 741q-21 -9 -57 -26q-31 -15 -32 -15q-2 0 -7 16l95 81v-1l1 1l1 -2l94 -79q-5 -16 -7 -16q-1 0 -32 15q-36 17 -56 26z" />
    <glyph glyph-name="idieresis" unicode="&#xef;" horiz-adv-x="192" 
d="M125 673h37l-1 -146q-31 -2 -38.5 -8t-10.5 -37v-100q-1 -19 10 -31q11 -8 21 -16q-34 -21 -31 -45v-99q0 -44 49 -44v-147h-34q-12 0 -25.5 10.5t-16.5 10.5t-17.5 -10.5t-26.5 -10.5h-33v147q48 0 48 44l1 99q5 24 -33 45q11 8 20.5 17t12.5 30l-2 100q0 29 -8 37
t-38 8l-1 146h30q27 -1 42 -18q23 18 45 18zM101 749q0 15 11 26t26 11q16 0 27 -11t11 -26q0 -16 -11 -27t-27 -11q-15 0 -26 11t-11 27zM-19 749q0 15 11 26t26 11q16 0 27 -11t11 -26q0 -16 -11 -27t-27 -11q-15 0 -26 11t-11 27z" />
    <glyph glyph-name="ntilde" unicode="&#xf1;" horiz-adv-x="311" 
d="M241 367q0 -7 12 -20q9 -11 17 -16q-9 -9 -17 -18.5t-8 -28.5v-125q1 -124 1 -157q-11 2 -26 11q-22 -15 -23 -13q-14 76 -38 189q-7 46 -31 134q-1 3 -9 9.5t-8 8.5q0 3 5.5 11.5t5.5 10.5q0 3 -4.5 22t-5.5 24q-4 25 -22 113v-147q2 -9 5 -18q5 -13 12 -16
q-19 -25 -19 -60v-99q0 -11 11 -23t21 -12h16l1 -147h-35q-11 -1 -21 8l-10 9q1 0 -10.5 -8.5t-24.5 -8.5h-36v147q8 -1 22 -1q25 8 25 38v98v31q-3 17 -21 25q21 20 21 39l-2 133q-2 25 -29 25q-7 0 -13 -2l1 138q6 3 13 3q13 0 26 -11t13 -10q15 20 31 20q7 0 12 -5
q24 -104 73 -314q2 -11 15 -16q12 7 12 63l-2 85q-7 40 -43 37l-1 150h28q10 1 23.5 -8l13.5 -9q-2 0 13 9t28 8l30 -1v-152q-16 -2 -32 -3q-15 -6 -15 -34zM201 325q0 4 -14 11q-3 -5 -9 -13l18 -82q1 46 3 68q2 19 2 16zM29 742q39 50 62 50q29 0 52 -15.5t36 -15.5
q20 0 29 5q4 2 26 19l14 -20q-20 -32 -27 -38q-14 -14 -39 -14q-24 0 -46.5 13t-40.5 13q-39 0 -52 -20z" />
    <glyph glyph-name="oacute" unicode="&#xf3;" horiz-adv-x="269" 
d="M249 335q-21 -20 -21 -60v-174q0 -40 -17 -69q-25 -42 -78 -43q-91 0 -101 115v166q-3 27 -3 30q-5 16 -20 32q15 15 20 34q0 1 3 31v171q6 116 97 116q55 0 81 -43q18 -30 18 -71v-177q-3 -34 21 -58zM179 194q-4 53 -1 78q5 36 -22 63q16 17 22 60v85q4 55 -52 55
q-33 0 -44 -21q-5 -10 -5 -36v-77q0 -30 4 -38q11 -15 22 -29l-22 -30q-4 -8 -4 -38v-72q0 -57 55 -57q52 0 47 57zM163 802l-107 -90q6 -17 9 -17q2 0 133 52z" />
    <glyph glyph-name="ograve" unicode="&#xf2;" horiz-adv-x="269" 
d="M249 335q-21 -20 -21 -60v-174q0 -40 -17 -69q-25 -42 -78 -43q-91 0 -100 115l-1 166q-3 27 -3 30q-5 16 -20 32q15 15 20 34q0 1 3 31l1 171q5 116 96 116q55 0 81 -43q18 -30 18 -71v-177q-3 -34 21 -58zM179 194q-4 53 -1 78q5 36 -22 63q16 17 22 60v85q4 55 -52 55
q-33 0 -44 -21q-5 -10 -5 -36v-77q0 -30 4 -38q11 -15 22 -29l-22 -30q-4 -8 -4 -38v-72q0 -57 55 -57q52 0 47 57zM92 802l107 -90q-6 -17 -9 -17q-2 0 -133 52z" />
    <glyph glyph-name="ocircumflex" unicode="&#xf4;" horiz-adv-x="269" 
d="M131 741q-21 -9 -57 -26q-31 -15 -32 -15q-2 0 -7 16l95 81v-1l1 1l1 -2l94 -79q-5 -16 -7 -16q-1 0 -32 15q-36 17 -56 26zM249 335q-21 -20 -21 -60v-174q0 -40 -17 -69q-25 -42 -78 -43q-91 0 -101 115v166q-3 27 -3 30q-5 16 -20 32q15 15 20 34q0 1 3 31v171
q6 116 97 116q55 0 81 -43q18 -30 18 -71v-177q-3 -34 21 -58zM179 194q-4 53 -1 78q5 36 -22 63q16 17 22 60v85q4 55 -52 55q-33 0 -44 -21q-5 -10 -5 -36v-77q0 -30 4 -38q11 -15 22 -29l-22 -30q-4 -8 -4 -38v-72q0 -57 55 -57q52 0 47 57z" />
    <glyph glyph-name="odieresis" unicode="&#xf6;" horiz-adv-x="269" 
d="M249 335q-21 -20 -21 -60v-174q0 -40 -17 -69q-25 -42 -78 -43q-91 0 -100 115l-1 166q-3 27 -3 30q-5 16 -20 32q15 15 20 34q0 1 3 31l1 171q5 116 96 116q55 0 81 -43q18 -30 18 -71v-177q-3 -34 21 -58zM179 194q-4 53 -1 78q5 36 -22 63q16 17 22 60v85q4 55 -52 55
q-33 0 -44 -21q-5 -10 -5 -36v-77q0 -30 4 -38q11 -15 22 -29l-22 -30q-4 -8 -4 -38v-72q0 -57 55 -57q52 0 47 57zM151 749q0 15 11 26t26 11q16 0 27 -11t11 -26q0 -16 -11 -27t-27 -11q-15 0 -26 11t-11 27zM31 749q0 15 11 26t26 11q16 0 27 -11t11 -26q0 -16 -11 -27
t-27 -11q-15 0 -26 11t-11 27z" />
    <glyph glyph-name="otilde" unicode="&#xf5;" horiz-adv-x="269" 
d="M249 335q-21 -20 -21 -60v-174q0 -40 -17 -69q-25 -42 -78 -43q-91 0 -100 115l-1 166q-3 27 -3 30q-5 16 -20 32q15 15 20 34q0 1 3 31l1 171q5 116 96 116q55 0 81 -43q18 -30 18 -71v-177q-3 -34 21 -58zM179 194q-4 53 -1 78q5 36 -22 63q16 17 22 60v85q4 55 -52 55
q-33 0 -44 -21q-5 -10 -5 -36v-77q0 -30 4 -38q11 -15 22 -29l-22 -30q-4 -8 -4 -38v-72q0 -57 55 -57q52 0 47 57zM19 742q39 50 62 50q29 0 52 -15.5t36 -15.5q20 0 29 5q4 2 26 19l14 -20q-20 -32 -27 -38q-14 -14 -39 -14q-24 0 -46.5 13t-40.5 13q-39 0 -52 -20z" />
    <glyph glyph-name="uacute" unicode="&#xfa;" horiz-adv-x="315" 
d="M273 336q-26 -14 -26 -60v-157q0 -44 -18 -78q-24 -46 -75 -46q-50 0 -80 46q-23 37 -23 78v159q0 44 -27 58q10 5 18.5 21t7.5 27q-1 86 0 87q0 31 -9 41.5t-35 10.5l1 151q44 0 64 -21q28 16 31 18q9 3 36 3l1 -150q-29 -5 -36 -13.5t-7 -39.5q0 -102 -1 -89
q2 -27 26 -48q-19 -21 -21 -24q-4 -9 -4 -32.5t-1 -102.5q1 -21 11.5 -28t42.5 -7q26 0 36 4q16 7 17 31v99q0 25 -3.5 32t-22.5 28q24 21 26 47q2 36 0 90q-1 32 -8.5 40t-34.5 13v150q28 0 36 -3q5 -2 32 -18q20 21 65 21v-151q-24 -2 -29 -6q-9 -8 -15 -46q2 -2 0 -88
q0 -11 7.5 -26.5t17.5 -20.5zM173 802l-107 -90q6 -17 9 -17q2 0 133 52z" />
    <glyph glyph-name="ugrave" unicode="&#xf9;" horiz-adv-x="315" 
d="M273 336q-26 -14 -26 -60v-157q0 -44 -18 -78q-24 -46 -75 -46q-50 0 -80 46q-23 37 -23 78v159q0 44 -27 58q10 5 18.5 21t7.5 27q-1 86 0 87q0 31 -9 41.5t-35 10.5l1 151q44 0 64 -21q28 16 31 18q9 3 36 3l1 -150q-29 -5 -36 -13.5t-7 -39.5q0 -102 -1 -89
q2 -27 26 -48q-19 -21 -21 -24q-4 -9 -4 -32.5t-1 -102.5q1 -21 11.5 -28t42.5 -7q26 0 36 4q16 7 17 31v99q0 25 -3.5 32t-22.5 28q24 21 26 47q2 36 0 90q-1 32 -8.5 40t-34.5 13v150q28 0 36 -3q5 -2 32 -18q20 21 65 21v-151q-24 -2 -29 -6q-9 -8 -15 -46q2 -2 0 -88
q0 -11 7.5 -26.5t17.5 -20.5zM102 802l107 -90q-6 -17 -9 -17q-2 0 -133 52z" />
    <glyph glyph-name="ucircumflex" unicode="&#xfb;" horiz-adv-x="315" 
d="M266 336q-26 -14 -26 -60v-157q0 -44 -18 -78q-24 -46 -75 -46q-50 0 -80 46q-23 37 -23 78v159q0 44 -27 58q10 5 18.5 21t7.5 27q-1 86 0 87q0 31 -9 41.5t-35 10.5l1 151q44 0 64 -21q15 9 30 19q11 5 37 5l1 -153q-29 -5 -36 -13.5t-7 -39.5q0 -102 -1 -89
q2 -27 26 -48q-19 -21 -21 -24q-4 -9 -4 -32.5t-1 -102.5q1 -21 11.5 -28t42.5 -7q26 0 36 4q16 7 17 31v99q0 25 -3.5 32t-22.5 28q24 21 26 47q2 36 0 90q-1 32 -8.5 40t-34.5 13v150q28 0 36 -3q5 -2 32 -18q20 21 65 21v-151q-24 -2 -29 -6q-9 -8 -15 -46q2 -2 0 -88
q0 -11 7.5 -26.5t17.5 -20.5zM139 741q-21 -9 -57 -26q-31 -15 -32 -15q-2 0 -7 16l95 81v-1l1 1l1 -2l94 -79q-5 -16 -7 -16q-1 0 -32 15q-36 17 -56 26z" />
    <glyph glyph-name="udieresis" unicode="&#xfc;" horiz-adv-x="315" 
d="M273 336q-26 -14 -26 -60v-157q0 -44 -18 -78q-24 -46 -75 -46q-50 0 -80 46q-23 37 -23 78v159q0 44 -27 58q10 5 18.5 21t7.5 27q-1 86 0 87q0 31 -9 41.5t-35 10.5l1 151q44 0 64 -21q28 16 31 18q9 3 36 3l1 -150q-29 -5 -36 -13.5t-7 -39.5q0 -102 -1 -89
q2 -27 26 -48q-19 -21 -21 -24q-4 -9 -4 -32.5t-1 -102.5q1 -21 11.5 -28t42.5 -7q26 0 36 4q16 7 17 31v99q0 25 -3.5 32t-22.5 28q24 21 26 47q2 36 0 90q-1 32 -8.5 40t-34.5 13v150q28 0 36 -3q5 -2 32 -18q20 21 65 21v-151q-24 -2 -29 -6q-9 -8 -15 -46q2 -2 0 -88
q0 -11 7.5 -26.5t17.5 -20.5zM171 749q0 15 11 26t26 11q16 0 27 -11t11 -26q0 -16 -11 -27t-27 -11q-15 0 -26 11t-11 27zM51 749q0 15 11 26t26 11q16 0 27 -11t11 -26q0 -16 -11 -27t-27 -11q-15 0 -26 11t-11 27z" />
    <glyph glyph-name="dagger" unicode="&#x2020;" 
 />
    <glyph glyph-name="degree" unicode="&#xb0;" horiz-adv-x="279" 
d="M123 695q49 0 83.5 -34.5t34.5 -83.5t-34.5 -83.5t-83.5 -34.5t-83.5 34.5t-34.5 83.5t34.5 83.5t83.5 34.5zM123 655q-32 0 -55 -22.5t-23 -55.5q0 -32 23 -55t55 -23t55 23t23 55q0 33 -23 55.5t-55 22.5z" />
    <glyph glyph-name="cent" unicode="&#xa2;" horiz-adv-x="186" 
d="M73 562h24v-43q50 -6 51 -71v-102h-28q-1 3 -1 37q0 40 -35 40q-30 0 -30 -39v-19q-1 -13 -1 -20q0 -34 17 -45q-17 -14 -17 -43q0 -9 1 -28.5t1 -28.5q0 -29 33 -29q26 0 31 20q1 4 1 34v28l28 -1v-75q0 -85 -51 -95v-37h-24v37q-37 8 -48 48q-8 28 -5 78q3 56 0 78
q-1 5 -12 14q14 19 14 29q0 20 1 65v52q0 67 50 73v43z" />
    <glyph glyph-name="sterling" unicode="&#xa3;" horiz-adv-x="226" 
d="M1 347h26q-30 97 -28 168q1 56 18 95q27 62 84 62q29 0 59 -19q6 5 11.5 11t16.5 7h20v-262h-42q-2 32 -5 65q-12 55 -53 55q-22 0 -36.5 -17t-14.5 -31q0 -64 29 -134h75v-42h-60q7 -24 7 -51q0 -38 -12 -91q3 -18 13 -18q-2 0 5.5 -1.5t15.5 -1.5q11 0 21 3
q6 3 14.5 15.5t8.5 19.5v31q7 -2 43 0l1 -212q-6 -1 -12 -1q-19 0 -41 15l-9 -10t-32 -10q-18 0 -42.5 11t-22.5 11t-14 -10t-46 -8v144h18q17 8 27 50q6 22 6 45q0 30 -11 69h-38v42z" />
    <glyph glyph-name="section" unicode="&#xa7;" 
 />
    <glyph glyph-name="bullet" unicode="&#x2022;" horiz-adv-x="275" 
d="M3 316q0 47 33 80t80 33q46 0 79 -33t33 -80q0 -46 -33 -79t-79 -33q-47 0 -80 33t-33 79z" />
    <glyph glyph-name="paragraph" unicode="&#xb6;" 
 />
    <glyph glyph-name="germandbls" unicode="&#xdf;" 
 />
    <glyph glyph-name="registered" unicode="&#xae;" horiz-adv-x="355" 
d="M197 672q57 0 97 -41t40 -98t-40.5 -98t-98.5 -41q-57 0 -97.5 41t-40.5 98q0 58 41 98.5t99 40.5zM194 647q-46 0 -78 -33.5t-32 -80.5t32.5 -80.5t78.5 -33.5q47 0 79 33.5t32 80.5q0 48 -32 81t-80 33zM137 611h67q54 0 54 -43q0 -26 -26 -37q21 -7 23 -33
q3 -37 5 -41h-33l-5 41q-3 23 -31 23h-20v-64h-34v154zM171 590v-49h23q30 0 30 25q0 24 -28 24h-25z" />
    <glyph glyph-name="copyright" unicode="&#xa9;" horiz-adv-x="765" 
d="M346 -9q-141 0 -241 100.5t-100 241.5q0 144 100.5 243t245.5 99q138 0 236.5 -101.5t98.5 -240.5q0 -141 -99.5 -241.5t-240.5 -100.5zM343 623q-117 0 -199 -86t-82 -204q0 -119 82.5 -204t201.5 -85q118 0 200 85t82 204q0 120 -82.5 205t-202.5 85zM347 139
q-86 0 -135.5 55t-49.5 142q0 86 51.5 141.5t136.5 55.5q62 0 110.5 -36t55.5 -97h-57q-20 68 -109 68q-54 0 -84 -40q-27 -36 -27 -93q0 -56 26 -91q30 -40 84 -40q98 0 113 87h58q-7 -70 -54.5 -111t-118.5 -41z" />
    <glyph glyph-name="trademark" unicode="&#x2122;" horiz-adv-x="487" 
d="M356 409l-2 198l-41 -198h-44l-47 198l1 -84v-114h-47v260h85q4 -28 31 -195q10 83 30 195l85 -1v-259h-51zM92 629v-220h-48v220h-35v40h120v-40h-37z" />
    <glyph glyph-name="acute" unicode="&#xb4;" horiz-adv-x="259" 
d="M153 802l-107 -90q6 -17 9 -17q2 0 133 52z" />
    <glyph glyph-name="dieresis" unicode="&#xa8;" horiz-adv-x="261" 
d="M151 749q0 15 11 26t26 11q16 0 27 -11t11 -26q0 -16 -11 -27t-27 -11q-15 0 -26 11t-11 27zM31 749q0 15 11 26t26 11q16 0 27 -11t11 -26q0 -16 -11 -27t-27 -11q-15 0 -26 11t-11 27z" />
    <glyph glyph-name="AE" unicode="&#xc6;" horiz-adv-x="433" 
d="M217 21q-21 -24 -49 -24q-6 0 -12 1v149q14 -4 25 6t13 24q1 7 1 65h-82l-20 -68q-2 -12 7.5 -21t26.5 -6l2 -148h-23q-21 -1 -39 25q1 0 1 -1q0 -4 -15 -14.5t-27 -10.5q-2 0 -10 1h-15l-2 146l16 2.5t22.5 13.5t24.5 73q16 57 18 67q2 16 -4 23t-13 14q8 5 23 18
q7 7 16 42q35 127 72 277q18 0 33 -12q4 -6 9 -11q12 10 25 20q10 6 36 5q28 -1 42.5 -12.5t11.5 -11.5q-1 0 19 11.5t37 9.5v-267h-38q5 7 -2 60q-8 59 -35 59h-40q-28 0 -28 -46v-95q1 -6 3 -11q3 -9 10 -10q24 -2 24 34q0 12 -2 24h30v-23q0 -49 26 -63q-19 -9 -22 -21
v-23v-41h-35q3 14 3 26q0 37 -24 35q-7 -1 -10 -10q-2 -5 -3 -11v-95q-2 -47 26 -47h37q32 -5 40 57q4 26 2 63h39v-268q-26 0 -44 11.5t-14 11.5q1 0 -15 -13t-36 -12q-29 1 -43 9q-9 6 -19 13zM193 290q-1 33 -10 47l-4 2h2q-2 2 -4 3q14 7 17 30v161l-9 1l-38 -157
q-4 -27 8 -34q-19 -10 -20.5 -21t-9.5 -32q60 -1 68 0zM177 342q-5 -2 -17 -1q-3 0 -5 2q3 1 5 1q14 0 17 -2z" />
    <glyph glyph-name="Oslash" unicode="&#xd8;" horiz-adv-x="288" 
d="M77 175l77 376q-11 4 -28 4q-33 0 -44 -21q-5 -10 -5 -36v-97q0 -33 1.5 -37.5t19.5 -29.5q-18 -26 -19.5 -30.5t-1.5 -37.5q0 -92 0 -91zM179 488l-75 -366q11 -5 28 -5q52 0 47 57q-5 66 -1 98q6 45 -12 63q5 5 12 60q3 20 1 93zM186 701h37l-12 -61q17 -30 17 -70
v-177q-3 -34 21 -58q-21 -20 -21 -60v-174q0 -40 -17 -69q-25 -42 -78 -43q-31 0 -53 15l-5 -24h-38l12 61q-14 28 -16 63l-1 166q-3 27 -3 30q-5 16 -20 32q15 15 20 34q0 1 3 31l1 171q5 116 96 116q29 0 50 -12z" />
    <glyph glyph-name="plusminus" unicode="&#xb1;" 
 />
    <glyph glyph-name="yen" unicode="&#xa5;" horiz-adv-x="312" 
d="M33 309h80q-14 23 -34 26q9 9 9 41q0 18 -14 57q-19 52 -21 59q-8 33 -51 31l1 150q25 0 36 -4.5t31 -21.5q24 16 31 19q12 4 38 5v-148q-11 -3 -22 -6.5t-11 -16.5q0 -41 45 -165q45 130 45 163q0 27 -35 26v147q39 -1 64 -22q22 25 66 24l1 -150q-13 -1 -27 -3.5
t-20 -18.5q-3 -5 -17.5 -64t-15.5 -64q-3 -13 4 -22.5t12 -16.5q-17 -8 -30 -25h77v-34h-93q-5 -17 -5 -36h98v-34h-97q1 -57 41 -57v-148h-8q-38 -2 -57 30q-6 -14 -26 -22t-36 -8h-5l1 148q39 -2 45 57h-100v34h100q-1 19 -6 36h-94v34z" />
    <glyph glyph-name="uni00B5" unicode="&#xb5;" horiz-adv-x="274" 
d="M4 277l42 31q0 111 2 174q-3 29 -9.5 35t-37.5 6l-1 150q31 0 38 -2q20 -5 35 -26q22 24 43 28h39l-1 -150q-32 -2 -39 -6.5t-13 -33.5v-135l90 65v-40l-90 -66v-111q7 -20 13 -40q8 -13 39 -13q16 0 29 11.5t13 27.5v81q7 -2 43 0v-262q-6 -1 -12 -1q-19 0 -40 15
q-1 0 -24.5 -9.5t-36.5 -10.5q-26 -1 -47.5 10.5t-17.5 11.5q3 0 -14.5 -9t-47.5 -7l-1 143q41 -1 49 49q0 15 -1 74l-42 -31v41z" />
    <glyph glyph-name="uni00B5" unicode="&#x3bc;" horiz-adv-x="274" 
d="M4 277l42 31q0 111 2 174q-3 29 -9.5 35t-37.5 6l-1 150q31 0 38 -2q20 -5 35 -26q22 24 43 28h39l-1 -150q-32 -2 -39 -6.5t-13 -33.5v-135l90 65v-40l-90 -66v-111q7 -20 13 -40q8 -13 39 -13q16 0 29 11.5t13 27.5v81q7 -2 43 0v-262q-6 -1 -12 -1q-19 0 -40 15
q-1 0 -24.5 -9.5t-36.5 -10.5q-26 -1 -47.5 10.5t-17.5 11.5q3 0 -14.5 -9t-47.5 -7l-1 143q41 -1 49 49q0 15 -1 74l-42 -31v41z" />
    <glyph glyph-name="ordfeminine" unicode="&#xaa;" horiz-adv-x="282" 
d="M253 672l-88 -302q-2 -29 13 -39q-14 -10 -34 -33q-12 -28 -27 -82q-14 -47 -14 -53q0 -28 45 -28q23 0 37 14.5t14 36.5v69q21 7 45 0v-263q-22 0 -35.5 10t-11.5 10q-2 0 -25 -11t-41 -9q-9 -2 -17 -2q-40 0 -56 23q-2 0 -18.5 -9.5t-19.5 -9.5h-22l92 308q3 6 -5 18
l-14 18q22 2 39 29q3 6 22 62q20 60 20 72q0 26 -46 26q-50 0 -56 -33q-1 -43 -1 -87h-40v267q19 3 34.5 -9t17.5 -12q1 0 23.5 10.5t39.5 10.5q25 0 47 -10.5t21 -10.5q10 6 20 11q14 8 41 8zM125 756q21 9 57 26q31 15 32 15q2 0 7 -16l-95 -81l-1 1v-1l-1 2l-94 79
q5 16 7 16q1 0 32 -15q36 -17 56 -26z" />
    <glyph glyph-name="ordmasculine" unicode="&#xba;" horiz-adv-x="282" 
d="M253 672l-88 -302q-2 -29 13 -39q-14 -10 -34 -33q-12 -28 -27 -82q-14 -47 -14 -53q0 -28 45 -28q23 0 37 14.5t14 36.5v69q21 7 45 0v-263q-22 0 -35.5 10t-11.5 10q-2 0 -25 -11t-41 -9q-9 -2 -17 -2q-40 0 -56 23q-2 0 -18.5 -9.5t-19.5 -9.5h-22l92 308q3 6 -5 18
l-14 18q22 2 39 29q3 6 22 62q20 60 20 72q0 26 -46 26q-50 0 -56 -33q-1 -43 -1 -87h-40v267q19 3 34.5 -9t17.5 -12q1 0 23.5 10.5t39.5 10.5q25 0 47 -10.5t21 -10.5q10 6 20 11q14 8 41 8zM125 756q21 9 57 26q31 15 32 15q2 0 7 -16l-95 -81l-1 1v-1l-1 2l-94 79
q5 16 7 16q1 0 32 -15q36 -17 56 -26z" />
    <glyph glyph-name="ae" unicode="&#xe6;" horiz-adv-x="433" 
d="M217 21q-21 -24 -49 -24q-6 0 -12 1v149q14 -4 25 6t13 24q1 7 1 65h-82l-20 -68q-2 -12 7.5 -21t26.5 -6l2 -148h-23q-21 -1 -39 25q1 0 1 -1q0 -4 -15 -14.5t-27 -10.5q-2 0 -10 1h-15l-2 146l16 2.5t22.5 13.5t24.5 73q16 57 18 67q2 16 -4 23t-13 14q8 5 23 18
q7 7 16 42q35 127 72 277q18 0 33 -12q4 -6 9 -11q12 10 25 20q10 6 36 5q28 -1 42.5 -12.5t11.5 -11.5q-1 0 19 11.5t37 9.5v-267h-38q5 7 -2 60q-8 59 -35 59h-40q-28 0 -28 -46v-95q1 -6 3 -11q3 -9 10 -10q24 -2 24 34q0 12 -2 24h30v-23q0 -49 26 -63q-19 -9 -22 -21
v-23v-41h-35q3 14 3 26q0 37 -24 35q-7 -1 -10 -10q-2 -5 -3 -11v-95q-2 -47 26 -47h37q32 -5 40 57q4 26 2 63h39v-268q-26 0 -44 11.5t-14 11.5q1 0 -15 -13t-36 -12q-29 1 -43 9q-9 6 -19 13zM193 290q-1 33 -10 47l-4 2h2q-2 2 -4 3q14 7 17 30v161l-9 1l-38 -157
q-4 -27 8 -34q-19 -10 -20.5 -21t-9.5 -32q60 -1 68 0zM177 342q-5 -2 -17 -1q-3 0 -5 2q3 1 5 1q14 0 17 -2z" />
    <glyph glyph-name="oslash" unicode="&#xf8;" horiz-adv-x="288" 
d="M77 175l77 376q-11 4 -28 4q-33 0 -44 -21q-5 -10 -5 -36v-97q0 -33 1.5 -37.5t19.5 -29.5q-18 -26 -19.5 -30.5t-1.5 -37.5q0 -92 0 -91zM179 488l-75 -366q11 -5 28 -5q52 0 47 57q-5 66 -1 98q6 45 -12 63q5 5 12 60q3 20 1 93zM186 701h37l-12 -61q17 -30 17 -70
v-177q-3 -34 21 -58q-21 -20 -21 -60v-174q0 -40 -17 -69q-25 -42 -78 -43q-31 0 -53 15l-5 -24h-38l12 61q-14 28 -16 63l-1 166q-3 27 -3 30q-5 16 -20 32q15 15 20 34q0 1 3 31l1 171q5 116 96 116q29 0 50 -12z" />
    <glyph glyph-name="questiondown" unicode="&#xbf;" horiz-adv-x="229" 
d="M88 525h57l-1 -151l-56 1v150zM149 175q-26 0 -48 -28q-18 -24 -26 -56q-5 -19 -5 -43q0 -60 42 -58q52 2 52 58q0 70 -1 59h39v-122q0 -138 -97 -138q-59 0 -79 59q-10 31 -10 95q0 79 50 151q3 5 3 12q0 8 -13 42q16 5 31 10q10 8 14 42v64h32q1 -46 0 -64
q-6 -61 16 -83z" />
    <glyph glyph-name="exclamdown" unicode="&#xa1;" horiz-adv-x="183" 
d="M47 523q29 3 60 0v-144h-60v144zM130 191q-19 -8 -20 -29q-1 -31 -1 -32q2 -3 0 -86q0 -10 3 -29q4 -14 14.5 -17t21.5 -4l-1 -140h-28q-7 2 -18.5 9t-13.5 7q-3 0 -18.5 -7t-21.5 -9q-11 -3 -16 -2q-11 2 -17 2v140q10 1 20.5 4t14.5 17q0 10 3 29q-3 83 0 86
q-1 1 -2 32q0 21 -19 29q32 17 32 49l6 93h21l7 -87q0 -14 10 -31t23 -24z" />
    <glyph glyph-name="logicalnot" unicode="&#xac;" 
 />
    <glyph glyph-name="florin" unicode="&#x192;" horiz-adv-x="261" 
d="M173 298h-92q1 -73 1 -111q0 -43 48 -44q45 -1 51 41q-2 7 0 21h45v-59q0 -54 1 -50q-11 -102 -99 -102q-43 0 -69 33q-25 30 -25 73v198h-36v38h36v32h-36v38h36v157q0 36 18 69q25 46 75 46q92 0 99 -119v-89h-44q0 12 -1 22q-7 38 -51 38q-50 0 -50 -41v-41v-42h93
v-38h-93l1 -32h92v-38z" />
    <glyph glyph-name="guillemotleft" unicode="&#xab;" horiz-adv-x="295" 
d="M203 523h43l-60 -185l60 -190h-43l-80 190zM83 523h43l-60 -185l60 -190h-43l-80 190z" />
    <glyph glyph-name="guillemotright" unicode="&#xbb;" horiz-adv-x="295" 
d="M46 148h-43l60 184l-60 191h43l80 -191zM166 148h-43l60 184l-60 191h43l80 -191z" />
    <glyph glyph-name="ellipsis" unicode="&#x2026;" horiz-adv-x="598" 
d="M525 0h-69v143h69v-143zM325 0h-69v143h69v-143zM125 0h-69v143h69v-143z" />
    <glyph glyph-name="uni00A0" unicode="&#xa0;" horiz-adv-x="149" 
 />
    <glyph glyph-name="Agrave" unicode="&#xc0;" horiz-adv-x="317" 
d="M280 -1h-26q-13 0 -25 8l-12 8q-31 -16 -41 -16h-25l1 148q4 -1 9 -1q14 0 22.5 9.5t8.5 19.5q0 5 -13 67h-72l-11 -68q0 -12 10.5 -21t26.5 -6l1 -148h-23q-12 0 -35 18q-2 0 -18.5 -9t-19.5 -9h-14h-18l-1 146q1 0 16.5 2.5t20.5 13.5t15 73q9 57 9 67q0 16 -7 23
l-14 14q7 5 20 18q6 7 11 42q4 29 32 273q-1 -1 12 -1q2 0 10.5 -6t10.5 -6t9.5 6t11.5 6t12 2l43 -301q3 -21 25 -32q0 -1 -13 -16q-6 -7 -6 -20q0 -8 16 -126q2 -8 11.5 -19t14.5 -11h6.5h8.5v-148zM161 372l-20 162l-18 -157q0 -34 18 -36q20 -2 20 31zM171 290
q-9 54 -30 54q-5 0 -14 -7.5t-9 -14.5q0 -11 -5 -32q51 -1 58 0zM102 802l107 -90q-6 -17 -9 -17q-2 0 -133 52z" />
    <glyph glyph-name="Atilde" unicode="&#xc3;" horiz-adv-x="317" 
d="M280 -1h-26q-13 0 -25 8l-12 8q-31 -16 -41 -16h-25l1 148q4 -1 9 -1q14 0 22.5 9.5t8.5 19.5q0 5 -13 67h-72l-11 -68q0 -12 10.5 -21t26.5 -6l1 -148h-23q-12 0 -35 18q-2 0 -18.5 -9t-19.5 -9h-14h-18l-1 146q1 0 16.5 2.5t20.5 13.5t15 73q9 57 9 67q0 16 -7 23
l-14 14q7 5 20 18q6 7 11 42q4 29 32 273q-1 -1 12 -1q2 0 10.5 -6t10.5 -6t9.5 6t11.5 6t12 2l43 -301q3 -21 25 -32q0 -1 -13 -16q-6 -7 -6 -20q0 -8 16 -126q2 -8 11.5 -19t14.5 -11h6.5h8.5v-148zM161 372l-20 162l-18 -157q0 -34 18 -36q20 -2 20 31zM171 290
q-9 54 -30 54q-5 0 -14 -7.5t-9 -14.5q0 -11 -5 -32q51 -1 58 0zM36 742q39 50 62 50q29 0 52 -15.5t36 -15.5q20 0 29 5q4 2 26 19l14 -20q-20 -32 -27 -38q-14 -14 -39 -14q-24 0 -46.5 13t-40.5 13q-39 0 -52 -20z" />
    <glyph glyph-name="Otilde" unicode="&#xd5;" horiz-adv-x="269" 
d="M249 335q-21 -20 -21 -60v-174q0 -40 -17 -69q-25 -42 -78 -43q-91 0 -100 115l-1 166q-3 27 -3 30q-5 16 -20 32q15 15 20 34q0 1 3 31l1 171q5 116 96 116q55 0 81 -43q18 -30 18 -71v-177q-3 -34 21 -58zM179 194q-4 53 -1 78q5 36 -22 63q16 17 22 60v85q4 55 -52 55
q-33 0 -44 -21q-5 -10 -5 -36v-77q0 -30 4 -38q11 -15 22 -29l-22 -30q-4 -8 -4 -38v-72q0 -57 55 -57q52 0 47 57zM19 742q39 50 62 50q29 0 52 -15.5t36 -15.5q20 0 29 5q4 2 26 19l14 -20q-20 -32 -27 -38q-14 -14 -39 -14q-24 0 -46.5 13t-40.5 13q-39 0 -52 -20z" />
    <glyph glyph-name="OE" unicode="&#x152;" horiz-adv-x="408" 
d="M231 303q-3 -13 -3 -28v-98q4 -30 25 -30h37q32 -4 41 58q3 25 2 62h38v-266h-24q-10 1 -21.5 12t-10.5 11q2 0 -16 -13.5t-37 -13.5q-34 0 -53 27q-18 -23 -30 -24q-20 -10 -46 -11q-91 0 -100 115l-1 166q-3 27 -3 30q-5 16 -20 32q15 15 20 34q0 1 3 31l1 171
q5 116 96 116q32 0 54 -15q14 -4 26 -20q20 28 51 27q28 -1 42.5 -13t12.5 -12l6 7.5t13 10.5q13 6 37 3l-1 -267h-37q5 7 -2 60q-9 59 -35 59h-41q-23 0 -27 -33v-98q-1 -6 0 -11q2 -11 3 -11q3 -8 9 -8q25 -3 25 33q0 12 -3 24h30v-23q0 -49 26 -62q-18 -10 -22 -22v-23
v-40h-34q2 13 2 26q0 36 -24 34q-6 -1 -9 -7zM179 174q-5 66 -1 98q5 36 -22 63v0q-2 1 -3 2q4 2 7 5q15 25 18 53q1 49 1 103q5 57 -53 57q-33 0 -44 -21q-5 -10 -5 -36v-97q0 -30 4 -38q11 -15 22 -29l-22 -30q-4 -8 -4 -38v-92q0 -57 55 -57q52 0 47 57z" />
    <glyph glyph-name="oe" unicode="&#x153;" horiz-adv-x="408" 
d="M231 303q-3 -13 -3 -28v-98q4 -30 25 -30h37q32 -4 41 58q3 25 2 62h38v-266h-24q-10 1 -21.5 12t-10.5 11q2 0 -16 -13.5t-37 -13.5q-34 0 -53 27q-18 -23 -30 -24q-20 -10 -46 -11q-91 0 -100 115l-1 166q-3 27 -3 30q-5 16 -20 32q15 15 20 34q0 1 3 31l1 171
q5 116 96 116q32 0 54 -15q14 -4 26 -20q20 28 51 27q28 -1 42.5 -13t12.5 -12l6 7.5t13 10.5q13 6 37 3l-1 -267h-37q5 7 -2 60q-9 59 -35 59h-41q-23 0 -27 -33v-98q-1 -6 0 -11q2 -11 3 -11q3 -8 9 -8q25 -3 25 33q0 12 -3 24h30v-23q0 -49 26 -62q-18 -10 -22 -22v-23
v-40h-34q2 13 2 26q0 36 -24 34q-6 -1 -9 -7zM179 174q-5 66 -1 98q5 36 -22 63v0q-2 1 -3 2q4 2 7 5q15 25 18 53q1 49 1 103q5 57 -53 57q-33 0 -44 -21q-5 -10 -5 -36v-97q0 -30 4 -38q11 -15 22 -29l-22 -30q-4 -8 -4 -38v-92q0 -57 55 -57q52 0 47 57z" />
    <glyph glyph-name="endash" unicode="&#x2013;" horiz-adv-x="303" 
d="M4 270q-3 46 0 92h271q5 -47 0 -92h-271z" />
    <glyph glyph-name="emdash" unicode="&#x2014;" horiz-adv-x="571" 
d="M4 270q-3 46 0 92h541q5 -47 0 -92h-541z" />
    <glyph glyph-name="quotedblleft" unicode="&#x201c;" horiz-adv-x="241" 
d="M1 465v142l52 67l18 -10l-28 -53h28v-146h-70zM122 465v142l51 67l18 -10l-28 -53h28v-146h-69z" />
    <glyph glyph-name="quotedblright" unicode="&#x201d;" horiz-adv-x="241" 
d="M191 674v-142l-52 -67l-17 10l27 53h-28v146h70zM70 674l1 -142l-52 -67l-17 10l27 53h-28v146h69z" />
    <glyph glyph-name="quoteleft" unicode="&#x2018;" horiz-adv-x="123" 
d="M2 467l-1 142l52 67l18 -10l-28 -53h28v-146h-69z" />
    <glyph glyph-name="quoteright" unicode="&#x2019;" horiz-adv-x="123" 
d="M70 676l1 -142l-52 -67l-17 10l27 53h-28v146h69z" />
    <glyph glyph-name="divide" unicode="&#xf7;" 
 />
    <glyph glyph-name="ydieresis" unicode="&#xff;" horiz-adv-x="312" 
d="M221 1l-2 147q-42 -2 -42 69v63q4 42 57 51q-15 16 -15 31q0 18 13 64q10 33 19 66t52 31v150q-25 0 -36.5 -4.5t-30.5 -21.5q-25 16 -32 19q-11 4 -38 5v-148q11 -3 22 -6.5t11 -16.5q0 -28 -16 -86l-26 -86l-3 -10l-6 10l-26 86q-16 58 -16 86q0 13 11 16.5t22 6.5v148
q-26 -1 -38 -5q-7 -3 -31 -19q-20 17 -31.5 21.5t-36.5 4.5v-150q43 2 52 -31t19 -66q13 -46 13 -64q0 -15 -15 -31q53 -9 57 -51v-63q0 -71 -42 -69l-1 -147q32 -2 37 -2q23 2 29 16q7 -14 31 -16q6 0 39 2zM171 749q0 15 11 26t26 11q16 0 27 -11t11 -26q0 -16 -11 -27
t-27 -11q-15 0 -26 11t-11 27zM51 749q0 15 11 26t26 11q16 0 27 -11t11 -26q0 -16 -11 -27t-27 -11q-15 0 -26 11t-11 27z" />
    <glyph glyph-name="Ydieresis" unicode="&#x178;" horiz-adv-x="312" 
d="M221 1l-2 147q-42 -2 -42 69v63q4 42 57 51q-15 16 -15 31q0 18 13 64q10 33 19 66t52 31v150q-25 0 -36.5 -4.5t-30.5 -21.5q-25 16 -32 19q-11 4 -38 5v-148q11 -3 22 -6.5t11 -16.5q0 -28 -16 -86l-26 -86l-3 -10l-6 10l-26 86q-16 58 -16 86q0 13 11 16.5t22 6.5v148
q-26 -1 -38 -5q-7 -3 -31 -19q-20 17 -31.5 21.5t-36.5 4.5v-150q43 2 52 -31t19 -66q13 -46 13 -64q0 -15 -15 -31q53 -9 57 -51v-63q0 -71 -42 -69l-1 -147q32 -2 37 -2q23 2 29 16q7 -14 31 -16q6 0 39 2zM171 749q0 15 11 26t26 11q16 0 27 -11t11 -26q0 -16 -11 -27
t-27 -11q-15 0 -26 11t-11 27zM51 749q0 15 11 26t26 11q16 0 27 -11t11 -26q0 -16 -11 -27t-27 -11q-15 0 -26 11t-11 27z" />
    <glyph glyph-name="currency" unicode="&#xa4;" 
 />
    <glyph glyph-name="guilsinglleft" unicode="&#x2039;" horiz-adv-x="175" 
d="M83 523h43l-60 -185l60 -190h-43l-80 190z" />
    <glyph glyph-name="guilsinglright" unicode="&#x203a;" horiz-adv-x="175" 
d="M46 148h-43l60 184l-60 191h43l80 -191z" />
    <glyph glyph-name="daggerdbl" unicode="&#x2021;" 
 />
    <glyph glyph-name="periodcentered" unicode="&#xb7;" horiz-adv-x="210" 
d="M25 344q0 28 20.5 48.5t48.5 20.5q29 0 49 -20.5t20 -48.5q0 -29 -20 -49t-49 -20q-28 0 -48.5 20t-20.5 49z" />
    <glyph glyph-name="periodcentered" unicode="&#x2219;" horiz-adv-x="210" 
d="M25 344q0 28 20.5 48.5t48.5 20.5q29 0 49 -20.5t20 -48.5q0 -29 -20 -49t-49 -20q-28 0 -48.5 20t-20.5 49z" />
    <glyph glyph-name="quotesinglbase" unicode="&#x201a;" horiz-adv-x="123" 
d="M70 146l1 -142l-52 -67l-17 10l27 53h-28v146h69z" />
    <glyph glyph-name="quotedblbase" unicode="&#x201e;" horiz-adv-x="241" 
d="M191 146v-142l-52 -67l-17 10l27 53h-28v146h70zM70 146l1 -142l-52 -67l-17 10l27 53h-28v146h69z" />
    <glyph glyph-name="perthousand" unicode="&#x2030;" 
 />
    <glyph glyph-name="Acircumflex" unicode="&#xc2;" horiz-adv-x="317" 
d="M280 -1h-26q-13 0 -25 8l-12 8q-31 -16 -41 -16h-25l1 148q4 -1 9 -1q14 0 22.5 9.5t8.5 19.5q0 5 -13 67h-72l-11 -68q0 -12 10.5 -21t26.5 -6l1 -148h-23q-12 0 -35 18q-2 0 -18.5 -9t-19.5 -9h-14h-18l-1 146q1 0 16.5 2.5t20.5 13.5t15 73q9 57 9 67q0 16 -7 23
l-14 14q7 5 20 18q6 7 11 42q4 29 32 273q-1 -1 12 -1q2 0 10.5 -6t10.5 -6t9.5 6t11.5 6t12 2l43 -301q3 -21 25 -32q0 -1 -13 -16q-6 -7 -6 -20q0 -8 16 -126q2 -8 11.5 -19t14.5 -11h6.5h8.5v-148zM161 372l-20 162l-18 -157q0 -34 18 -36q20 -2 20 31zM171 290
q-9 54 -30 54q-5 0 -14 -7.5t-9 -14.5q0 -11 -5 -32q51 -1 58 0zM136 741q-21 -9 -57 -26q-31 -15 -32 -15q-2 0 -7 16l95 81v-1l1 1l1 -2l94 -79q-5 -16 -7 -16q-1 0 -32 15q-36 17 -56 26z" />
    <glyph glyph-name="Ecircumflex" unicode="&#xca;" horiz-adv-x="259" 
d="M153 397v23h-30q3 -12 3 -24q0 -36 -25 -33q-7 0 -10 9q-1 6 -3 11v96q1 45 28 45q29 0 17 0h24q26 0 35 -59q7 -53 2 -60h37l1 267q-24 3 -37 -3q-7 -3 -13 -10.5l-6 -7.5q2 0 -12.5 12t-42.5 13q-31 1 -51 -27q-12 15 -24 20q-8 2 -15 3h-30v-146q45 0 45 -25v-115
q0 -32 -32 -49q32 -17 32 -51v-115q0 -24 -45 -24v-147h30q15 0 20 3t19 21q19 -27 53 -27q19 0 37 13.5t16 13.5q-1 0 10.5 -11t21.5 -12h24v266h-38q5 -126 -43 -120h-37q-18 0 -24 23q-2 10 -2 24v95q2 6 4 13t9 8q24 2 24 -34q0 -13 -2 -26h34v40q1 12 2.5 23.5
t19.5 21.5q-30 15 -26 62zM116 741q-21 -9 -57 -26q-31 -15 -32 -15q-2 0 -7 16l95 81v-1l1 1l1 -2l94 -79q-5 -16 -7 -16q-1 0 -32 15q-36 17 -56 26z" />
    <glyph glyph-name="Aacute" unicode="&#xc1;" horiz-adv-x="317" 
d="M280 -1h-26q-13 0 -25 8l-12 8q-31 -16 -41 -16h-25l1 148q4 -1 9 -1q14 0 22.5 9.5t8.5 19.5q0 5 -13 67h-72l-11 -68q0 -12 10.5 -21t26.5 -6l1 -148h-23q-12 0 -35 18q-2 0 -18.5 -9t-19.5 -9h-14h-18l-1 146q1 0 16.5 2.5t20.5 13.5t15 73q9 57 9 67q0 16 -7 23
l-14 14q7 5 20 18q6 7 11 42q4 29 32 273q-1 -1 12 -1q2 0 10.5 -6t10.5 -6t9.5 6t11.5 6t12 2l43 -301q3 -21 25 -32q0 -1 -13 -16q-6 -7 -6 -20q0 -8 16 -126q2 -8 11.5 -19t14.5 -11h6.5h8.5v-148zM161 372l-20 162l-18 -157q0 -34 18 -36q20 -2 20 31zM171 290
q-9 54 -30 54q-5 0 -14 -7.5t-9 -14.5q0 -11 -5 -32q51 -1 58 0zM173 802l-107 -90q6 -17 9 -17q2 0 133 52z" />
    <glyph glyph-name="Edieresis" unicode="&#xcb;" horiz-adv-x="259" 
d="M153 397v23h-30q3 -12 3 -24q0 -36 -25 -33q-7 0 -10 9q-1 6 -3 11v96q1 45 28 45q29 0 17 0h24q26 0 35 -59q7 -53 2 -60h37l1 267q-24 3 -37 -3q-7 -3 -13 -10.5l-6 -7.5q2 0 -12.5 12t-42.5 13q-31 1 -51 -27q-12 15 -24 20q-8 2 -15 3h-30v-146q45 0 45 -25v-115
q0 -32 -32 -49q32 -17 32 -51v-115q0 -24 -45 -24v-147h30q15 0 20 3t19 21q19 -27 53 -27q19 0 37 13.5t16 13.5q-1 0 10.5 -11t21.5 -12h24v266h-38q5 -126 -43 -120h-37q-18 0 -24 23q-2 10 -2 24v95q2 6 4 13t9 8q24 2 24 -34q0 -13 -2 -26h34v40q1 12 2.5 23.5
t19.5 21.5q-30 15 -26 62zM141 749q0 15 11 26t26 11q16 0 27 -11t11 -26q0 -16 -11 -27t-27 -11q-15 0 -26 11t-11 27zM21 749q0 15 11 26t26 11q16 0 27 -11t11 -26q0 -16 -11 -27t-27 -11q-15 0 -26 11t-11 27z" />
    <glyph glyph-name="Egrave" unicode="&#xc8;" horiz-adv-x="259" 
d="M153 397v23h-30q3 -12 3 -24q0 -36 -25 -33q-7 0 -10 9q-1 6 -3 11v96q1 45 28 45q29 0 17 0h24q26 0 35 -59q7 -53 2 -60h37l1 267q-24 3 -37 -3q-7 -3 -13 -10.5l-6 -7.5q2 0 -12.5 12t-42.5 13q-31 1 -51 -27q-12 15 -24 20q-8 2 -15 3h-30v-146q45 0 45 -25v-115
q0 -32 -32 -49q32 -17 32 -51v-115q0 -24 -45 -24v-147h30q15 0 20 3t19 21q19 -27 53 -27q19 0 37 13.5t16 13.5q-1 0 10.5 -11t21.5 -12h24v266h-38q5 -126 -43 -120h-37q-18 0 -24 23q-2 10 -2 24v95q2 6 4 13t9 8q24 2 24 -34q0 -13 -2 -26h34v40q1 12 2.5 23.5
t19.5 21.5q-30 15 -26 62zM72 802l107 -90q-6 -17 -9 -17q-2 0 -133 52z" />
    <glyph glyph-name="Iacute" unicode="&#xcd;" horiz-adv-x="192" 
d="M125 673h37l-1 -146q-31 -2 -38.5 -8t-10.5 -37v-100q-1 -19 10 -31q11 -8 21 -16q-34 -21 -31 -45v-99q0 -44 49 -44v-147h-34q-12 0 -25.5 10.5t-16.5 10.5t-17.5 -10.5t-26.5 -10.5h-33v147q48 0 48 44l1 99q5 24 -33 45q11 8 20.5 17t12.5 30l-2 100q0 29 -8 37
t-38 8l-1 146h30q27 -1 42 -18q23 18 45 18zM123 802l-107 -90q6 -17 9 -17q2 0 133 52z" />
    <glyph glyph-name="Icircumflex" unicode="&#xce;" horiz-adv-x="192" 
d="M125 673h37l-1 -146q-31 -2 -38.5 -8t-10.5 -37v-100q-1 -19 10 -31q11 -8 21 -16q-34 -21 -31 -45v-99q0 -44 49 -44v-147h-34q-12 0 -25.5 10.5t-16.5 10.5t-17.5 -10.5t-26.5 -10.5h-33v147q48 0 48 44l1 99q5 24 -33 45q11 8 20.5 17t12.5 30l-2 100q0 29 -8 37
t-39 8l-1 146h31q27 -1 42 -18q23 18 45 18zM86 741q-21 -9 -57 -26q-31 -15 -32 -15q-2 0 -7 16l95 81v-1l1 1l1 -2l94 -79q-5 -16 -7 -16q-1 0 -32 15q-36 17 -56 26z" />
    <glyph glyph-name="Idieresis" unicode="&#xcf;" horiz-adv-x="192" 
d="M125 673h37l-1 -146q-31 -2 -38.5 -8t-10.5 -37v-100q-1 -19 10 -31q11 -8 21 -16q-34 -21 -31 -45v-99q0 -44 49 -44v-147h-34q-12 0 -25.5 10.5t-16.5 10.5t-17.5 -10.5t-26.5 -10.5h-33v147q48 0 48 44l1 99q5 24 -33 45q11 8 20.5 17t12.5 30l-2 100q0 29 -8 37
t-38 8l-1 146h30q27 -1 42 -18q23 18 45 18zM101 749q0 15 11 26t26 11q16 0 27 -11t11 -26q0 -16 -11 -27t-27 -11q-15 0 -26 11t-11 27zM-19 749q0 15 11 26t26 11q16 0 27 -11t11 -26q0 -16 -11 -27t-27 -11q-15 0 -26 11t-11 27z" />
    <glyph glyph-name="Igrave" unicode="&#xcc;" horiz-adv-x="192" 
d="M125 673h37l-1 -146q-31 -2 -38.5 -8t-10.5 -37v-100q-1 -19 10 -31q11 -8 21 -16q-34 -21 -31 -45v-99q0 -44 49 -44v-147h-34q-12 0 -25.5 10.5t-16.5 10.5t-17.5 -10.5t-26.5 -10.5h-33v147q48 0 48 44l1 99q5 24 -33 45q11 8 20.5 17t12.5 30l-2 100q0 29 -8 37
t-38 8l-1 146h30q27 -1 42 -18q23 18 45 18zM52 802l107 -90q-6 -17 -9 -17q-2 0 -133 52z" />
    <glyph glyph-name="Oacute" unicode="&#xd3;" horiz-adv-x="269" 
d="M249 335q-21 -20 -21 -60v-174q0 -40 -17 -69q-25 -42 -78 -43q-91 0 -101 115v166q-3 27 -3 30q-5 16 -20 32q15 15 20 34q0 1 3 31v171q6 116 97 116q55 0 81 -43q18 -30 18 -71v-177q-3 -34 21 -58zM179 194q-4 53 -1 78q5 36 -22 63q16 17 22 60v85q4 55 -52 55
q-33 0 -44 -21q-5 -10 -5 -36v-77q0 -30 4 -38q11 -15 22 -29l-22 -30q-4 -8 -4 -38v-72q0 -57 55 -57q52 0 47 57zM163 802l-107 -90q6 -17 9 -17q2 0 133 52z" />
    <glyph glyph-name="Ocircumflex" unicode="&#xd4;" horiz-adv-x="269" 
d="M131 741q-21 -9 -57 -26q-31 -15 -32 -15q-2 0 -7 16l95 81v-1l1 1l1 -2l94 -79q-5 -16 -7 -16q-1 0 -32 15q-36 17 -56 26zM249 335q-21 -20 -21 -60v-174q0 -40 -17 -69q-25 -42 -78 -43q-91 0 -101 115v166q-3 27 -3 30q-5 16 -20 32q15 15 20 34q0 1 3 31v171
q6 116 97 116q55 0 81 -43q18 -30 18 -71v-177q-3 -34 21 -58zM179 194q-4 53 -1 78q5 36 -22 63q16 17 22 60v85q4 55 -52 55q-33 0 -44 -21q-5 -10 -5 -36v-77q0 -30 4 -38q11 -15 22 -29l-22 -30q-4 -8 -4 -38v-72q0 -57 55 -57q52 0 47 57z" />
    <glyph glyph-name="Ograve" unicode="&#xd2;" horiz-adv-x="269" 
d="M249 335q-21 -20 -21 -60v-174q0 -40 -17 -69q-25 -42 -78 -43q-91 0 -101 115v166q-3 27 -3 30q-5 16 -20 32q15 15 20 34q0 1 3 31v171q6 116 97 116q55 0 81 -43q18 -30 18 -71v-177q-3 -34 21 -58zM179 194q-4 53 -1 78q5 36 -22 63q16 17 22 60v85q4 55 -52 55
q-33 0 -44 -21q-5 -10 -5 -36v-77q0 -30 4 -38q11 -15 22 -29l-22 -30q-4 -8 -4 -38v-72q0 -57 55 -57q52 0 47 57zM89 802l107 -90q-6 -17 -9 -17t-133 52z" />
    <glyph glyph-name="Uacute" unicode="&#xda;" horiz-adv-x="315" 
d="M273 336q-26 -14 -26 -60v-157q0 -44 -18 -78q-24 -46 -75 -46q-50 0 -80 46q-23 37 -23 78v159q0 44 -27 58q10 5 18.5 21t7.5 27q-1 86 0 87q0 31 -9 41.5t-35 10.5l1 151q44 0 64 -21q28 16 31 18q9 3 36 3l1 -150q-29 -5 -36 -13.5t-7 -39.5q0 -102 -1 -89
q2 -27 26 -48q-19 -21 -21 -24q-4 -9 -4 -32.5t-1 -102.5q1 -21 11.5 -28t42.5 -7q26 0 36 4q16 7 17 31v99q0 25 -3.5 32t-22.5 28q24 21 26 47q2 36 0 90q-1 32 -8.5 40t-34.5 13v150q28 0 36 -3q5 -2 32 -18q20 21 65 21v-151q-24 -2 -29 -6q-9 -8 -15 -46q2 -2 0 -88
q0 -11 7.5 -26.5t17.5 -20.5zM173 802l-107 -90q6 -17 9 -17q2 0 133 52z" />
    <glyph glyph-name="Ucircumflex" unicode="&#xdb;" horiz-adv-x="315" 
d="M266 336q-26 -14 -26 -60v-157q0 -44 -18 -78q-24 -46 -75 -46q-50 0 -80 46q-23 37 -23 78v159q0 44 -27 58q10 5 18.5 21t7.5 27q-1 86 0 87q0 31 -9 41.5t-35 10.5l1 151q44 0 64 -21q15 9 30 19q11 5 37 5l1 -153q-29 -5 -36 -13.5t-7 -39.5q0 -102 -1 -89
q2 -27 26 -48q-19 -21 -21 -24q-4 -9 -4 -32.5t-1 -102.5q1 -21 11.5 -28t42.5 -7q26 0 36 4q16 7 17 31v99q0 25 -3.5 32t-22.5 28q24 21 26 47q2 36 0 90q-1 32 -8.5 40t-34.5 13v150q28 0 36 -3q5 -2 32 -18q20 21 65 21v-151q-24 -2 -29 -6q-9 -8 -15 -46q2 -2 0 -88
q0 -11 7.5 -26.5t17.5 -20.5zM139 741q-21 -9 -57 -26q-31 -15 -32 -15q-2 0 -7 16l95 81v-1l1 1l1 -2l94 -79q-5 -16 -7 -16q-1 0 -32 15q-36 17 -56 26z" />
    <glyph glyph-name="Ugrave" unicode="&#xd9;" horiz-adv-x="315" 
d="M273 336q-26 -14 -26 -60v-157q0 -44 -18 -78q-24 -46 -75 -46q-50 0 -80 46q-23 37 -23 78v159q0 44 -27 58q10 5 18.5 21t7.5 27q-1 86 0 87q0 31 -9 41.5t-35 10.5l1 151q44 0 64 -21q28 16 31 18q9 3 36 3l1 -150q-29 -5 -36 -13.5t-7 -39.5q0 -102 -1 -89
q2 -27 26 -48q-19 -21 -21 -24q-4 -9 -4 -32.5t-1 -102.5q1 -21 11.5 -28t42.5 -7q26 0 36 4q16 7 17 31v99q0 25 -3.5 32t-22.5 28q24 21 26 47q2 36 0 90q-1 32 -8.5 40t-34.5 13v150q28 0 36 -3q5 -2 32 -18q20 21 65 21v-151q-24 -2 -29 -6q-9 -8 -15 -46q2 -2 0 -88
q0 -11 7.5 -26.5t17.5 -20.5zM102 802l107 -90q-6 -17 -9 -17q-2 0 -133 52z" />
    <glyph glyph-name="circumflex" unicode="&#x2c6;" horiz-adv-x="259" 
d="M116 741q-21 -9 -57 -26q-31 -15 -32 -15q-2 0 -7 16l95 81v-1l1 1l1 -2l94 -79q-5 -16 -7 -16q-1 0 -32 15q-36 17 -56 26z" />
    <glyph glyph-name="tilde" unicode="&#x2dc;" horiz-adv-x="224" 
d="M-1 742q39 50 62 50q29 0 52 -15.5t36 -15.5q20 0 29 5q4 2 26 19l14 -20q-20 -32 -27 -38q-14 -14 -39 -14q-24 0 -46.5 13t-40.5 13q-39 0 -52 -20z" />
    <glyph glyph-name="macron" unicode="&#xaf;" horiz-adv-x="215" 
d="M5 779h176v-46h-176v46z" />
    <glyph glyph-name="macron" unicode="&#x2c9;" horiz-adv-x="215" 
d="M5 779h176v-46h-176v46z" />
    <glyph glyph-name="cedilla" unicode="&#xb8;" horiz-adv-x="260" 
d="M104 5h32v-43q23 -3 40.5 -21t17.5 -40q0 -34 -22 -56q-25 -24 -68 -20q-36 4 -51 17l27 30q10 -10 24 -10q43 0 43 39q0 13 -14 21t-29 8v75z" />
    <glyph glyph-name="Scaron" unicode="&#x160;" 
 />
    <glyph glyph-name="scaron" unicode="&#x161;" 
 />
    <glyph glyph-name="brokenbar" unicode="&#xa6;" 
 />
    <glyph glyph-name="Eth" unicode="&#xd0;" 
 />
    <glyph glyph-name="eth" unicode="&#xf0;" 
 />
    <glyph glyph-name="Yacute" unicode="&#xdd;" 
 />
    <glyph glyph-name="yacute" unicode="&#xfd;" 
 />
    <glyph glyph-name="Thorn" unicode="&#xde;" 
 />
    <glyph glyph-name="thorn" unicode="&#xfe;" 
 />
    <glyph glyph-name="uni00AD" unicode="&#xad;" 
 />
    <glyph glyph-name="uni00AD" unicode="&#x2212;" 
 />
    <glyph glyph-name="multiply" unicode="&#xd7;" 
 />
    <glyph glyph-name="uni00B9" unicode="&#xb9;" 
 />
    <glyph glyph-name="uni00B2" unicode="&#xb2;" 
 />
    <glyph glyph-name="uni00B3" unicode="&#xb3;" 
 />
    <glyph glyph-name="onehalf" unicode="&#xbd;" 
 />
    <glyph glyph-name="onequarter" unicode="&#xbc;" 
 />
    <glyph glyph-name="threequarters" unicode="&#xbe;" 
 />
    <glyph glyph-name="Lslash" unicode="&#x141;" 
 />
    <glyph glyph-name="lslash" unicode="&#x142;" 
 />
    <glyph glyph-name="glyph220" 
 />
    <glyph glyph-name="glyph221" 
 />
    <glyph glyph-name="glyph222" 
 />
    <glyph glyph-name="Zcaron" unicode="&#x17d;" 
 />
    <glyph glyph-name="zcaron" unicode="&#x17e;" 
 />
    <glyph glyph-name="glyph225" 
 />
    <glyph glyph-name="glyph226" 
 />
    <glyph glyph-name="glyph227" 
 />
    <glyph glyph-name="glyph228" 
 />
    <glyph glyph-name="glyph229" 
 />
    <glyph glyph-name="glyph230" 
 />
    <glyph glyph-name="glyph231" 
 />
    <glyph glyph-name="glyph232" horiz-adv-x="1023" 
 />
    <glyph glyph-name="notequal" unicode="&#x2260;" 
 />
    <glyph glyph-name="infinity" unicode="&#x221e;" 
 />
    <glyph glyph-name="lessequal" unicode="&#x2264;" 
 />
    <glyph glyph-name="greaterequal" unicode="&#x2265;" 
 />
    <glyph glyph-name="partialdiff" unicode="&#x2202;" horiz-adv-x="274" 
d="M4 277l42 31q0 111 2 174q-3 29 -9.5 35t-37.5 6l-1 150q31 0 38 -2q20 -5 35 -26q22 24 43 28h39l-1 -150q-32 -2 -39 -6.5t-13 -33.5v-135l90 65v-40l-90 -66v-111q7 -20 13 -40q8 -13 39 -13q16 0 29 11.5t13 27.5v81q7 -2 43 0v-262q-6 -1 -12 -1q-19 0 -40 15
q-1 0 -24.5 -9.5t-36.5 -10.5q-26 -1 -47.5 10.5t-17.5 11.5q3 0 -14.5 -9t-47.5 -7l-1 143q41 -1 49 49q0 15 -1 74l-42 -31v41z" />
    <glyph glyph-name="summation" unicode="&#x2211;" horiz-adv-x="218" 
d="M199 146q0 -151 -90 -151q-32 0 -49 23q-2 0 -15.5 -10.5t-16.5 -10.5l-23 1l1 266h40v-54q0 -23 13 -45q15 -25 38 -25q47 0 47 52q0 29 -26 74q-30 52 -61 45q6 16 6 23q0 5 -15 36q-19 37 -29 68q-15 48 -15 96q0 144 89 144q22 0 49 -18q22 18 31 17h16v-266h-41
q1 -7 1 40q0 83 -49 83q-19 0 -30 -16t-11 -35q0 -27 22 -73q25 -51 49 -46q0 -11 3 -28q43 -67 55 -107q11 -33 11 -83zM95 756q21 9 57 26q31 15 32 15q2 0 7 -16l-95 -81l-1 1v-1l-1 2l-94 79q5 16 7 16q1 0 32 -15q36 -17 56 -26z" />
    <glyph glyph-name="product" unicode="&#x220f;" horiz-adv-x="218" 
d="M199 146q0 -151 -90 -151q-32 0 -49 23q-2 0 -15.5 -10.5t-16.5 -10.5l-23 1l1 266h40v-54q0 -23 13 -45q15 -25 38 -25q47 0 47 52q0 29 -26 74q-30 52 -61 45q6 16 6 23q0 5 -15 36q-19 37 -29 68q-15 48 -15 96q0 144 89 144q22 0 49 -18q22 18 31 17h16v-266h-41
q1 -7 1 40q0 83 -49 83q-19 0 -30 -16t-11 -35q0 -27 22 -73q25 -51 49 -46q0 -11 3 -28q43 -67 55 -107q11 -33 11 -83zM95 756q21 9 57 26q31 15 32 15q2 0 7 -16l-95 -81l-1 1v-1l-1 2l-94 79q5 16 7 16q1 0 32 -15q36 -17 56 -26z" />
    <glyph glyph-name="pi" unicode="&#x3c0;" horiz-adv-x="312" 
d="M221 1l-2 147q-42 -2 -42 69v63q4 42 57 51q-15 16 -15 31q0 18 13 64q10 33 19 66t52 31v150q-25 0 -36.5 -4.5t-30.5 -21.5q-25 16 -32 19q-11 4 -38 5v-148q11 -3 22 -6.5t11 -16.5q0 -28 -16 -86l-26 -86l-3 -10l-6 10l-26 86q-16 58 -16 86q0 13 11 16.5t22 6.5v148
q-26 -1 -38 -5q-7 -3 -31 -19q-20 17 -31.5 21.5t-36.5 4.5v-150q43 2 52 -31t19 -66q13 -46 13 -64q0 -15 -15 -31q53 -9 57 -51v-63q0 -71 -42 -69l-1 -147q32 -2 37 -2q23 2 29 16q7 -14 31 -16q6 0 39 2zM183 802l-107 -90q6 -17 9 -17q2 0 133 52z" />
    <glyph glyph-name="integral" unicode="&#x222b;" horiz-adv-x="312" 
d="M221 1l-2 147q-42 -2 -42 69v63q4 42 57 51q-15 16 -15 31q0 18 13 64q10 33 19 66t52 31v150q-25 0 -36.5 -4.5t-30.5 -21.5q-25 16 -32 19q-11 4 -38 5v-148q11 -3 22 -6.5t11 -16.5q0 -28 -16 -86l-26 -86l-3 -10l-6 10l-26 86q-16 58 -16 86q0 13 11 16.5t22 6.5v148
q-26 -1 -38 -5q-7 -3 -31 -19q-20 17 -31.5 21.5t-36.5 4.5v-150q43 2 52 -31t19 -66q13 -46 13 -64q0 -15 -15 -31q53 -9 57 -51v-63q0 -71 -42 -69l-1 -147q32 -2 37 -2q23 2 29 16q7 -14 31 -16q6 0 39 2zM183 802l-107 -90q6 -17 9 -17q2 0 133 52z" />
    <glyph glyph-name="Omega" unicode="&#x3a9;" horiz-adv-x="261" 
d="M173 298h-92q1 -73 1 -111q0 -43 48 -44q45 -1 51 41q-2 7 0 21h45v-59q0 -54 1 -50q-11 -102 -99 -102q-43 0 -69 33q-25 30 -25 73v198h-36v38h36v32h-36v38h36v157q0 36 18 69q25 46 75 46q92 0 99 -119v-89h-44q0 12 -1 22q-7 38 -51 38q-50 0 -50 -41v-41v-42h93
v-38h-93l1 -32h92v-38z" />
    <glyph glyph-name="Omega" unicode="&#x2126;" horiz-adv-x="261" 
d="M173 298h-92q1 -73 1 -111q0 -43 48 -44q45 -1 51 41q-2 7 0 21h45v-59q0 -54 1 -50q-11 -102 -99 -102q-43 0 -69 33q-25 30 -25 73v198h-36v38h36v32h-36v38h36v157q0 36 18 69q25 46 75 46q92 0 99 -119v-89h-44q0 12 -1 22q-7 38 -51 38q-50 0 -50 -41v-41v-42h93
v-38h-93l1 -32h92v-38z" />
    <glyph glyph-name="radical" unicode="&#x221a;" 
 />
    <glyph glyph-name="approxequal" unicode="&#x2248;" 
 />
    <glyph glyph-name="approxequal" unicode="&#x22f2;" 
 />
    <glyph glyph-name="Delta" unicode="&#x394;" 
 />
    <glyph glyph-name="Delta" unicode="&#x2206;" 
 />
    <glyph glyph-name="lozenge" unicode="&#x25ca;" 
 />
    <glyph glyph-name="fraction" unicode="&#x2044;" 
 />
    <glyph glyph-name="uniF001" unicode="&#xf001;" 
 />
    <glyph glyph-name="uniF002" unicode="&#xf002;" 
 />
    <glyph glyph-name="uniF000" unicode="&#xf000;" 
 />
    <glyph glyph-name="dotlessi" unicode="&#x131;" horiz-adv-x="192" 
d="M125 673h37l-1 -146q-31 -2 -38.5 -8t-10.5 -37v-100q-1 -19 10 -31q11 -8 21 -16q-34 -21 -31 -45v-99q0 -44 49 -44v-147h-34q-12 0 -25.5 10.5t-16.5 10.5t-17.5 -10.5t-26.5 -10.5h-33v147q48 0 48 44l1 99q5 24 -33 45q11 8 20.5 17t12.5 30l-2 100q0 29 -8 37
t-39 8v146h30q27 -1 42 -18q23 18 45 18z" />
    <glyph glyph-name="breve" unicode="&#x2d8;" horiz-adv-x="308" 
d="M248 790q0 -32 -36 -52q-31 -17 -72 -17t-72 17q-36 20 -36 52h40q0 -8 16 -17q20 -12 52 -12t52 12q16 9 16 17h40z" />
    <glyph glyph-name="dotaccent" unicode="&#x2d9;" horiz-adv-x="149" 
d="M25 755q0 16 12 28t28 12q17 0 29 -12t12 -28q0 -17 -12 -29t-29 -12q-16 0 -28 12t-12 29z" />
    <glyph glyph-name="ring" unicode="&#x2da;" horiz-adv-x="287" 
d="M137 822q25 0 42.5 -17.5t17.5 -42.5t-17.5 -42.5t-42.5 -17.5t-42.5 17.5t-17.5 42.5t17.5 42.5t42.5 17.5zM137 792q-30 0 -30 -30t30 -30t30 30t-30 30z" />
    <glyph glyph-name="hungarumlaut" unicode="&#x2dd;" horiz-adv-x="230" 
d="M157 797l-49 -100q10 -11 12 -10t80 81zM77 797l-49 -100q10 -11 12 -10t80 81z" />
    <glyph glyph-name="ogonek" unicode="&#x2db;" horiz-adv-x="179" 
d="M149 -156q-20 -41 -54 -41q-33 0 -52 34q-18 30 -18 74q0 45 16 78q19 38 52 38v-32q-7 0 -16 -20q-12 -26 -12 -64q0 -35 12 -54q9 -14 18 -14q17 0 26 19z" />
    <glyph glyph-name="caron" unicode="&#x2c7;" horiz-adv-x="259" 
d="M135 756q21 9 57 26q31 15 32 15q2 0 7 -16l-95 -81l-1 1v-1l-1 2l-94 79q5 16 7 16q1 0 32 -15q36 -17 56 -26z" />
    </font>
</defs>
</svg>
