<?xml version="1.0" standalone="no"?>
<!DOCTYPE svg PUBLIC "-//W3C//DTD SVG 1.1//EN" "http://www.w3.org/Graphics/SVG/1.1/DTD/svg11.dtd" >
<svg>
<metadata>
Created by FontForge 20120731 at Wed Apr 17 20:16:47 2019
 By www-data
Digitized by Dan X. Solo. Software (c) 2000 by Dover Publications, Inc., New York.
</metadata>
<defs>
<font id="DiamondInlay" horiz-adv-x="20" >
  <font-face 
    font-family="Diamond Inlay"
    font-weight="400"
    font-stretch="normal"
    units-per-em="1000"
    panose-1="0 0 4 0 0 0 0 0 0 0"
    ascent="800"
    descent="-200"
    x-height="670"
    cap-height="671"
    bbox="-16.0588 -195 1089 828"
    underline-thickness="20"
    underline-position="-123"
    unicode-range="U+0020-F002"
  />
<missing-glyph horiz-adv-x="500" 
d="M63 0v800h375v-800h-375zM125 63h250v675h-250v-675z" />
    <glyph glyph-name=".notdef" horiz-adv-x="500" 
d="M63 0v800h375v-800h-375zM125 63h250v675h-250v-675z" />
    <glyph glyph-name="glyph1" horiz-adv-x="0" 
 />
    <glyph glyph-name="glyph2" horiz-adv-x="205" 
 />
    <glyph glyph-name="space" unicode=" " horiz-adv-x="205" 
 />
    <glyph glyph-name="exclam" unicode="!" horiz-adv-x="342" 
d="M322 92q0 -64 -40 -102.5t-104 -38.5q-72 0 -122 77q-14 23 -14 25q0 -2 6 21q-24 47 -24 90q0 48 16.5 73t57.5 41q-13 52 -38 133q-40 116 -40 165q0 109 101 109q12 0 34.5 -7.5t30.5 -7.5q3 0 3.5 3.5t4.5 3.5q45 0 82 -58q34 -53 34 -101q0 -59 -31.5 -140.5
t-31.5 -115.5q0 -23 0 -22q29 -26 52 -69t23 -79zM119 670q-84 0 -84 -93q0 -45 37 -151q19 -53 34 -128l23 -1q7 18 13 47q6 25 37 106q24 64 24 108q0 43 -20 75q-23 37 -64 37zM305 91q0 34 -23 77q-21 39 -49 63q-3 3 -3 9q0 49 33 139t33 137q0 36 -22 80.5t-53 57.5
q57 -74 56 -132l-1 -6q0 -38 -21 -109q-16 -54 -33 -109q-7 -21 -13 -64q74 -81 74 -142q0 -48 -35 -76.5t-83 -28.5q-54 0 -75 25q36 -43 90 -43q55 0 90 33.5t35 88.5zM192 191q0 27 -25 51t-52 24q-29 0 -50 -24t-21 -53q0 -32 21 -52.5t54 -20.5q28 0 50.5 23.5
t22.5 51.5zM129 366q0 -8 -6 -15h-10q-10 4 -10 15q0 14 12 14q14 0 14 -14zM115 627q-12 0 -12 13q0 12 12 12q13 0 13 -12q0 -13 -13 -13zM117 587q-16 0 -16 16q0 17 16 17q17 0 17 -17q0 -16 -17 -16zM115 392q-20 0 -20 20q0 19 20 19q19 0 19 -19q0 -20 -19 -20z
M163 510l-47 -63l-41 62l42 59zM139 509l-21 22l-17 -23l19 -24z" />
    <glyph glyph-name="quotedbl" unicode="&#x22;" horiz-adv-x="316" 
d="M274 669l29 -39l-35 -235q-38 2 -38 0t-35 42l-32 232h111zM255 654h-72l24 -202l23 2zM124 669l29 -39l-35 -235q-38 2 -38 0t-35 42l-32 232h111zM105 654h-72l24 -202l23 2z" />
    <glyph glyph-name="numbersign" unicode="#" horiz-adv-x="523" 
d="M452 357h-57l35 -73l-29 -118h-60q-11 -37 -51 -156h-188l-70 107l19 53l-44 59l42 132h60l-49 76l40 124h66l32 112h220l34 -42l-19 -73l19 -3l35 -51q-6 -34 -35 -147zM337 240l30 102h-66l32 106h56l29 93h-58l32 112h-60l-32 -112h-59l33 112h-61l-32 -112h-66
l-30 -93h70l-33 -106q-63 -3 -63 0q-8 -27 -30 -102h62q0 -11 -14 -48q-12 -30 -23 -61h57l36 106l63 1l-32 -107l63 1l35 107zM183 342l31 106h59l-30 -106h-60zM140 -24h173l44 163h67l27 121l14 -24l-29 -114h-63l-45 -159l-175 -1zM439 336h36l28 125l13 -14l-29 -126
h-48v15zM467 566l11 45l12 -15l-12 -48zM360 499q0 19 19 19t19 -19q0 -20 -19 -20t-19 20zM297 499q0 22 22 22q23 0 23 -22q0 -23 -23 -23q-22 0 -22 23zM231 499q0 25 25 25q26 0 26 -25q0 -26 -26 -26q-25 0 -25 26zM170 499q0 22 22 22q23 0 23 -22q0 -23 -23 -23
q-22 0 -22 23zM120 499q0 19 19 19t19 -19q0 -20 -19 -20t-19 20zM300 291q0 19 19 19t19 -19q0 -20 -19 -20t-19 20zM237 291q0 22 22 22q23 0 23 -22q0 -23 -23 -23q-22 0 -22 23zM171 291q0 25 25 25q26 0 26 -25q0 -26 -26 -26q-25 0 -25 26zM110 291q0 22 22 22
q23 0 23 -22q0 -23 -23 -23q-22 0 -22 23zM60 291q0 19 19 19t19 -19q0 -20 -19 -20t-19 20z" />
    <glyph glyph-name="dollar" unicode="$" horiz-adv-x="606" 
d="M594 204q0 -85 -47.5 -148.5t-128.5 -85.5q-9 -1 -27 -7q-3 -16 -1 -57l-141 -1l1 15h126q3 18 0 52q201 72 201 226q0 88 -110 179q43 18 61 41t18 67q0 39 -32.5 82.5t-71.5 54.5l1 -6q30 -22 53 -57q26 -39 26 -72q0 -85 -102 -99q131 -91 131 -194q0 -119 -139 -185
q-20 -8 -60 -26q-3 -1 0 -44h-134q-4 19 -1 46q-59 11 -97 47q-10 9 -70 82q-1 0 -1 -5q0 -39 69 -98q65 -54 81 -50l1 -19q-58 16 -112 69q-59 57 -59 113q0 12 9 15q-21 43 -21 84q0 36 18 64.5t52 35.5q-75 65 -75 173q0 85 63 134q53 42 136 50q0 9 1 25h85v-25
q39 -13 115 -44q2 8 8 8q47 0 94 -54.5t47 -102.5q0 -84 -72 -112q56 -50 74 -74q31 -43 31 -97zM458 254q0 63 -70 123q-52 46 -129 80q0 139 -1 187q1 2 5 2q24 0 72 -21q52 -23 52 -42q0 -6 -4 -9q-28 10 -34 10q-18 0 -28 -20q-8 -16 -8 -35q0 -26 17.5 -44.5
t43.5 -18.5q57 0 57 70q0 98 -169 136l1 19h-33q-1 -2 3 -16q-28 -6 -56 -11q-58 -15 -93 -44q-49 -41 -49 -105q0 -69 65 -128q55 -50 130 -73v-178q-5 -5 -10 -5q-32 0 -76 12q-14 5 -40 23t-26 29l2 6l27 -6q20 0 33.5 15.5t13.5 35.5q0 27 -14.5 45t-40.5 18
q-28 0 -46 -20.5t-18 -48.5q0 -71 66 -107q53 -28 129 -28v-64l36 1v63q64 0 125 42q67 46 67 107zM215 149v104q-17 9 -52 29q32 -45 32 -75q0 -8 -4.5 -22.5t-4.5 -21.5q0 -8 4 -14q23 -1 16 -1q6 0 9 1zM225 474q-30 13 -55 37q-30 30 -30 58q0 66 85 75v-170zM353 337
q0 -18 -17 -18q-18 0 -18 18q0 19 18 19q17 0 17 -19zM377 308q0 -14 -14 -14q-15 0 -15 14q0 15 15 15q14 0 14 -15zM400 279q0 -15 -14 -15q-15 0 -15 15q0 16 15 16q14 0 14 -16zM411 247q0 -13 -11 -13t-11 13t11 13t11 -13zM305 356l-79 -9l-27 68l72 9zM110 526
q0 -13 -12 -13q-11 0 -11 13t11 13q12 0 12 -13zM127 494q0 -15 -14 -15q-15 0 -15 15t15 15q14 0 14 -15zM150 465q0 -15 -15 -15q-14 0 -14 15q0 14 14 14q15 0 15 -14zM180 436q0 -19 -17 -19q-18 0 -18 19q0 18 18 18q17 0 17 -18zM355 208q0 -35 -29 -55
q-26 -16 -64 -16l1 166q92 -35 92 -95zM273 374l-11 25l-31 -2l13 -27z" />
    <glyph glyph-name="percent" unicode="%" horiz-adv-x="876" 
d="M863 219q0 -82 -45 -141q-49 -65 -128 -65q-97 0 -143 96l3 6q-37 69 -37 160q0 69 36 117q39 53 106 53q29 0 74 -17q2 0 3.5 1.5t3.5 1.5t32 -16q47 -26 72 -85q23 -52 23 -111zM854 219q0 129 -78 177q58 -60 58 -156q0 -82 -36 -139q-42 -67 -119 -67q-43 0 -87 31
q12 -15 40.5 -28.5t47.5 -13.5q82 0 130 58q44 54 44 138zM655 436q-62 0 -99 -50q-34 -44 -34 -109t31 -112q37 -54 99 -54q61 0 98 44q34 40 35 103q2 66 -24 112q-21 36 -53 51t-53 15zM700 154q0 -11 -15.5 -19t-27.5 -8q-15 0 -30.5 12t-15.5 27v214q0 17 13 30t31 13
q45 0 45 -59v-210zM692 159v202q0 7 -10 7q-17 0 -17 -20v-212q7 1 17 8.5t10 14.5zM770 278l-28 -38l-25 38l26 35zM753 277l-10 14l-10 -14l11 -15zM730 381q-2 -7 -9 -4q-7 2 -5 9q3 7 10 5q7 -3 4 -10zM743 359q-4 -10 -13 -6q-9 3 -6 12q4 9 13 6t6 -12zM750 331
q-4 -11 -15 -7t-7 15t15 7t7 -15zM714 399q-1 -5 -7 -3q-5 2 -3 7q1 6 7 4q4 -2 3 -8zM720 144q-1 -6 -7 -3q-5 2 -3 7t7 3q4 -1 3 -7zM734 166q-3 7 -10 4q-7 -2 -4 -10q2 -7 9 -4t5 10zM745 192q-3 9 -12 6q-10 -3 -6 -13q3 -9 12 -5q9 3 6 12zM753 220q-4 11 -15 7
t-7 -15t15 -7t7 15zM540 278l28 -38l25 38l-25 35zM557 277l10 14l10 -14l-11 -15zM580 381q3 -7 10 -4q7 2 4 9q-2 7 -10 5q-7 -3 -4 -10zM568 359q3 -10 12 -6q9 3 6 12t-13 6q-9 -3 -5 -12zM560 331q4 -11 15 -7t7 15t-15 7t-7 -15zM596 399q1 -5 7 -3t4 7q-2 6 -8 4
q-4 -2 -3 -8zM590 144q1 -6 7 -3q6 2 4 7t-8 3q-4 -1 -3 -7zM577 166q2 7 9 4q7 -2 5 -10q-3 -7 -10 -4t-4 10zM565 192q3 9 13 6q9 -3 5 -13q-3 -9 -12 -5q-9 3 -6 12zM557 220q4 11 15 7t7 -15t-15 -7t-7 15zM363 449q0 -82 -45 -141q-49 -65 -128 -65q-97 0 -143 96l3 6
q-37 69 -37 160q0 69 36 117q39 53 106 53q29 0 74 -17q2 0 3.5 1.5t3.5 1.5t32 -16q47 -26 72 -85q23 -52 23 -111zM350 450q0 131 -74 176q58 -60 58 -156q0 -82 -36 -139q-42 -67 -119 -67q-43 0 -87 31q12 -15 40.5 -28.5t47.5 -13.5q81 0 128 59q42 54 42 138zM155 666
q-62 0 -99 -50q-34 -44 -34 -109t31 -112q37 -54 99 -54q61 0 98 44q34 40 35 103q2 66 -24 112q-21 36 -53 51t-53 15zM200 384q0 -11 -15.5 -19t-27.5 -8q-15 0 -30.5 12t-15.5 27v214q0 17 13 30t31 13q45 0 45 -59v-210zM192 389v202q0 7 -10 7q-17 0 -17 -20v-212
q7 1 17 8.5t10 14.5zM270 508l-28 -38l-25 38l26 35zM253 507l-10 14l-10 -14l11 -15zM230 611q-2 -7 -9 -4q-7 2 -5 9q3 7 10 5q7 -3 4 -10zM243 589q-4 -10 -13 -6q-9 3 -6 12q4 9 13 6t6 -12zM250 561q-4 -11 -15 -7t-7 15t15 7t7 -15zM214 629q-1 -5 -7 -3q-5 2 -3 7
q1 6 7 4q4 -2 3 -8zM220 374q-1 -6 -7 -3q-5 2 -3 7t7 3q4 -1 3 -7zM234 396q-3 7 -10 4q-7 -2 -4 -10q2 -7 9 -4t5 10zM245 422q-3 9 -12 6q-10 -3 -6 -13q3 -9 12 -5q9 3 6 12zM253 450q-4 11 -15 7t-7 -15t15 -7t7 15zM40 508l28 -38l25 38l-25 35zM57 507l10 14l10 -14
l-11 -15zM80 611q3 -7 10 -4q7 2 4 9q-2 7 -10 5q-7 -3 -4 -10zM68 589q3 -10 12 -6q9 3 6 12t-13 6q-9 -3 -5 -12zM60 561q4 -11 15 -7t7 15t-15 7t-7 -15zM96 629q1 -5 7 -3t4 7q-2 6 -8 4q-4 -2 -3 -8zM90 374q1 -6 7 -3q6 2 4 7t-8 3q-4 -1 -3 -7zM77 396q2 7 9 4
q7 -2 5 -10q-3 -7 -10 -4t-4 10zM65 422q3 9 13 6q9 -3 5 -13q-3 -9 -12 -5q-9 3 -6 12zM57 450q4 11 15 7t7 -15t-15 -7t-7 15zM577 676l12 -45q0 -3 -269 -570q-7 0 -23 2l-36 75l258 539zM555 662h-26l-244 -509h29zM603 575l-266 -552h-4q1 -1 0 -1q-3 0 -17 1l-12 17
l25 -1l261 546z" />
    <glyph glyph-name="ampersand" unicode="&#x26;" horiz-adv-x="807" 
d="M791 150q-5 -31 -10 -50q-14 -64 -67.5 -104.5t-120.5 -40.5q-40 0 -88 19t-42 19q1 0 -41 -17q-49 -21 -114 -21q-60 0 -113 18q-64 22 -90 65q1 5 7 13q-40 37 -68 93t-28 108q0 143 183 217q-27 50 -27 88q0 74 57 112q50 33 127 33q86 0 156 -47q81 -53 81 -134
q0 -36 -54 -75q3 -2 9 -2h9q5 1 8 1q17 0 34 30q14 27 14 46q0 41 -12 66q-8 16 -39 52l9 7q26 -13 43 -54q14 -36 14 -70q0 -54 -32 -77q14 -3 71 0l86 -57v-70q-22 -2 -45 -5q-14 -3 -38 -25t-47 -63q5 -2 19 -2q9 0 20 2q1 16 29 41t45 25q5 0 40 8l-1 74l13 -2l1 -89
q-34 0 -63 -12q-39 -15 -42 -42q47 -37 72 -55q0 -69 -49 -124.5t-117 -55.5q-49 0 -100 27q-13 9 -29 17q-89 -48 -161 -48q-64 0 -125 29q-18 9 -56 25q63 -73 184 -73q67 0 124 23q42 18 39 18q-5 0 37.5 -20.5t81.5 -20.5q82 0 133.5 50.5t58.5 132.5zM670 210h-26
l-20 -24q-8 -8 -28 -8h-13q-12 4 -40 34t-28 40q0 4 26 36l32 40q50 69 87 73l3 23l-1 4h-95q-31 0 -69 -1v-16q41 -14 41 -44v-4q0 -16 -13 -42q-15 -30 -29 -30q-2 0 -14 17q-41 61 -93 157q58 20 79 36q34 26 34 75q0 109 -145 109q-69 0 -116 -29q-55 -35 -55 -100
q0 -20 11 -48q9 -23 19 -45q-185 -73 -185 -209q0 -67 67 -106q56 -33 128 -33q90 0 135 22q4 2 25 17t24 15q-1 0 3 -6q9 -14 28 -24q36 -20 86 -20q53 0 90 20q45 24 52 71zM443 574q0 -32 -21 -50q-15 -13 -52 -24q-19 29 -37 59q-27 42 -27 59q0 18 18 29q15 11 34 11
q37 0 61 -23.5t24 -60.5zM242 558q-13 0 -13 14q0 17 16 17q12 0 12 -14q0 -17 -15 -17zM262 518q-15 0 -15 16q0 17 17 17q15 0 15 -16q0 -17 -17 -17zM290 476q-15 0 -15 16q0 17 16 17q15 0 15 -16q0 -17 -16 -17zM316 425q-20 0 -20 22t21 22t21 -22t-22 -22zM405 391
l-5 -78l-73 30l7 73zM420 262q-21 0 -21 21q0 22 22 22q20 0 20 -21q0 -22 -21 -22zM449 226q-15 0 -15 16q0 18 16 18q15 0 15 -16q0 -18 -16 -18zM477 191q-15 0 -15 16q0 17 16 17q15 0 15 -16q0 -17 -16 -17zM509 160q-14 0 -14 15q0 16 15 16q13 0 13 -14
q0 -17 -14 -17zM390 187q-2 -1 -5.5 -5t-6.5 -4q-29 -19 -60 -19q7 0 -21 1q-49 1 -99 60t-50 108q0 73 89 109l153 -237v-13zM126 352q0 -12 -12 -12q-11 0 -11 12q0 11 11 11q12 0 12 -11zM114 313q0 -16 -17 -16t-17 16q0 15 17 15t17 -15zM121 258q0 -21 -21 -21
q-22 0 -22 21t22 21q21 0 21 -21zM137 211q0 -16 -17 -16t-17 16q0 15 17 15t17 -15zM166 179q0 -14 -15 -14q-16 0 -16 14q0 13 16 13q15 0 15 -13zM430 593q-2 2 -5 9q-1 2 -14 6q-7 -3 -14 -13q19 -43 25 -46q9 8 9 25zM382 376l-27 10l-2 -29l27 -11zM370 197
q-31 53 -98 157q-22 -17 -22 -32q0 -25 40 -80t64 -55q4 0 8 4.5t8 5.5z" />
    <glyph glyph-name="quotesingle" unicode="'" horiz-adv-x="173" 
d="M127 669l30 -39l-35 -235q-39 2 -39 0t-35 42l-31 232h110zM108 654h-72l25 -202l22 2z" />
    <glyph glyph-name="parenleft" unicode="(" horiz-adv-x="319" 
d="M186 677l-1 -4l1 3l60 -80q-51 -165 -51 -276q0 -128 57 -323h-64q0 1 -41 26q-37 22 -41 38l-1 -8q-92 175 -92 327q0 154 92 297h81zM176 663l-63 -1q-86 -134 -86 -281t87 -313h52q-51 159 -51 272q0 120 61 323zM283 550q-34 -121 -34 -245q0 -157 57 -344h-89v15h69
q-52 175 -52 329q0 126 35 249z" />
    <glyph glyph-name="parenright" unicode=")" horiz-adv-x="319" 
d="M134 180q33 112 37 188q6 148 -86 294h-53q56 -187 56 -304q0 -114 -53 -280l55 -1q34 67 44 103zM141 4l-67 -3l-56 62h-3q58 180 58 298q0 114 -61 316h82l2 -3l73 -62q76 -118 76 -253q0 -155 -104 -355zM243 574q41 -123 41 -245q-7 -153 -115 -354q0 3 -67 0l13 -19
h67q113 204 124 366q5 125 -41 255z" />
    <glyph glyph-name="asterisk" unicode="*" horiz-adv-x="311" 
d="M237 454l27 47v-2v0q-7 -2 -14 0l-105 39q35 11 105 35q4 2 11 1h1l-26 46h-1q0 1 1 1v0h1h1q-8 -15 -43 -44q-26 -21 -51 -41q8 36 22 109q0 5 5 11l-53 1l-1 -1v1v0l1 1v1q10 -15 17 -59q5 -33 10 -65q-28 25 -84 73q-3 3 -7 10l-26 -45v-1h-1v1h-1q13 1 14 0
q36 -13 106 -38l-105 -36q-4 -1 -11 -1h-1l26 -46h1h-1v-1h-1h-1q8 16 43 45q25 20 51 40q-8 -36 -22 -109q-1 -4 -5 -11h51q-7 10 -15 58l-10 64q28 -25 84 -74q3 -3 7 -10zM274 500q0 -2 -1 -4l-30 -50q-2 -4 -7 -4q-5 1 -7 5l-2 4q-2 4 -4 6q-20 17 -62 54q6 -40 16 -86
q7 -11 3 -16q-2 -3 -6 -3h-58q-8 0 -8 8q0 3 2 5l2 4q3 4 3 6q5 27 16 81q-23 -19 -64 -54q-1 -1 -4.5 -8t-8.5 -6l-2 1h-2q-2 1 -3 3l-29 51q-2 4 1 8t7 4l4 -1q5 0 7 1q26 9 79 26q-29 11 -79 29h-11q-6 0 -8 4v2l-1 2q0 3 1 5l30 50q2 4 7 3q5 0 7 -4l2 -4q2 -5 4 -6
q20 -18 62 -54q-5 30 -15 82q0 1 -5 9q-2 3 -2 5q0 3 2 4l1 2l2 1q1 2 4 2l58 -1q8 0 8 -8q0 -2 -2 -4l-1 -2q-3 -3 -20 -89q23 19 63 53q2 1 6 10q3 5 8 4h2l2 -1q2 -1 3 -3l29 -50q2 -4 -1 -8t-7 -4h-4q-6 1 -8 0q-25 -9 -78 -27q29 -11 79 -28q1 -1 11 0q6 0 7 -5l1 -2z
" />
    <glyph glyph-name="plus" unicode="+" horiz-adv-x="556" 
d="M388 45l-130 -4l-38 46v143h-145l-40 42v117h184v185l116 -2l56 -66v-118h130l43 -63l-3 -98h-173v-182zM327 97l-1 185l185 1v95l-184 1l-2 184l-96 1v-185h-184v-97h185v-185h97z" />
    <glyph glyph-name="comma" unicode="," horiz-adv-x="316" 
d="M310 86q0 -78 -45.5 -136.5t-120.5 -84.5q-4 2 -8 5q-1 1 2 7q70 26 113 81t43 127q0 33 -15 77q-19 51 -43 59q40 -75 40 -135q0 -55 -36 -103.5t-88 -71.5q-7 -3 -24 -14l-64 95q12 15 35 41q-5 1 -15 6q-64 43 -64 131q0 50 27.5 79.5t77.5 29.5q45 0 75 -23l8 9
q48 -23 76 -75q26 -48 26 -104zM207 148q0 42 -19 76q-24 41 -63 41q-31 0 -56 -23t-25 -53q0 -31 22 -55t52 -24q7 0 20 5t18 5l4 -6v-14q0 -23 -22 -54q0 -1 -51 -48l11 -13q50 20 79.5 64.5t29.5 98.5z" />
    <glyph glyph-name="hyphen" unicode="-" horiz-adv-x="337" 
d="M318 169h-188l-9 13h184v193h13v-206zM281 205h-181l-81 109l-1 144l180 1l83 -58v-196zM187 326v115h-70l45 -53l-45 -62h70zM116 442l-77 1l-1 -117h77l-45 61zM117 410l-18 -23l16 -22l18 22z" />
    <glyph glyph-name="hyphen" unicode="&#x2010;" horiz-adv-x="337" 
d="M318 169h-188l-9 13h184v193h13v-206zM281 205h-181l-81 109l-1 144l180 1l83 -58v-196zM187 326v115h-70l45 -53l-45 -62h70zM116 442l-77 1l-1 -117h77l-45 61zM117 410l-18 -23l16 -22l18 22z" />
    <glyph glyph-name="period" unicode="." horiz-adv-x="299" 
d="M77 -3q-1 6 1 11t8 4q22 -27 66 -27q55 0 94.5 37t39.5 91t-31 89q-16 18 -75 58v8q51 -17 85 -59q38 -44 38 -96q0 -65 -44.5 -105t-110.5 -40q-45 0 -71 29zM-3 188q0 42 25.5 68.5t73.5 27.5q53 2 107 -60.5t54 -117.5q0 -94 -97 -94q-38 0 -55 17q-55 56 -69 72
q-39 50 -39 87zM176 187q0 36 -22 58.5t-58 22.5q-33 0 -58 -22.5t-25 -55.5q0 -32 23 -58.5t55 -26.5t58.5 25t26.5 57z" />
    <glyph glyph-name="slash" unicode="/" horiz-adv-x="354" 
d="M322 676l12 -45q0 -3 -269 -570q-7 0 -23 2l-36 75l258 539zM300 662h-26l-244 -509h29zM348 575l-266 -552q-4 0 -3 0q0 -1 -1 -1q-3 0 -17 1l-12 17l25 -1l261 546z" />
    <glyph glyph-name="zero" unicode="0" horiz-adv-x="602" 
d="M593 302q0 -136 -75 -235q-82 -108 -214 -108q-77 0 -141 45q-62 42 -96 114l5 11q-62 114 -62 266q0 115 59 195q66 89 177 89q48 0 124 -29q3 0 5.5 3t5.5 3t47 -25q79 -43 124 -142q41 -89 41 -187zM578 302q0 92 -29 167q-35 87 -102 128q97 -99 97 -261
q0 -136 -59 -230q-70 -112 -198 -112q-73 0 -146 52q20 -25 67.5 -48t79.5 -23q136 0 216 97q74 90 74 230zM336 638q-55 25 -89 25q-104 0 -166 -82q-57 -75 -57 -182q0 -109 53 -187q60 -90 164 -90q102 0 163 73q57 68 59 173q3 110 -41 185q-34 61 -86 85zM320 205
q0 -26 -27 -43q-21 -13 -43 -13q-26 0 -51 20t-25 45l-1 356q0 29 22 50t51 21q38 0 57 -28.5t19 -68.5zM307 205v333q0 13 -16 13q-28 0 -28 -33v-355q44 8 44 42zM438 401l-47 -63l-41 62l42 59zM410 399l-17 23l-17 -23l19 -26zM372 572q-5 -12 -16 -7q-12 4 -8 16
q4 11 16 7t8 -16zM392 535q-5 -16 -21 -10q-15 5 -9 21q5 15 21 9q15 -5 9 -20zM405 489q-6 -19 -25 -12q-18 7 -11 25q6 18 25 12q18 -7 11 -25zM345 603q-2 -10 -12 -6q-9 3 -6 12t12 6q8 -3 6 -12zM355 177q-2 -9 -12 -6q-9 4 -6 13t12 5q8 -2 6 -12zM377 213
q-4 12 -16 8q-11 -5 -7 -16q4 -12 16 -8t7 16zM396 257q-5 16 -21 10q-15 -5 -9 -21q5 -15 21 -9q15 5 9 20zM409 303q-6 19 -25 12q-18 -7 -11 -25q6 -18 25 -12q18 7 11 25zM55 401l46 -63l42 62l-43 59zM82 399l18 23l16 -23l-18 -26zM121 572q4 -12 16 -7q12 4 8 16
q-5 11 -16 7q-12 -4 -8 -16zM100 535q6 -16 21 -10q15 5 10 21q-6 15 -21 9q-15 -5 -10 -20zM88 489q6 -19 25 -12q18 7 11 25q-6 18 -25 12q-18 -7 -11 -25zM148 603q2 -10 12 -6q9 3 6 12q-4 9 -13 6q-7 -3 -5 -12zM138 177q2 -9 12 -6q9 4 6 13q-4 9 -13 5q-7 -2 -5 -12z
M115 213q5 12 16 8q12 -5 8 -16q-4 -12 -16 -8t-8 16zM96 257q6 16 21 10q15 -5 10 -21q-6 -15 -21 -9q-15 5 -10 20zM84 303q6 19 25 12q18 -7 11 -25q-6 -18 -25 -12q-18 7 -11 25z" />
    <glyph glyph-name="one" unicode="1" horiz-adv-x="469" 
d="M401 156l-14 9l-1 416l15 -7v-418zM406 3h-306q-17 39 -56 114v40q41 15 58.5 38t17.5 66q0 23 -1 84q-1 54 -1 85q-13 17 -20 19q-5 2 -29 -1l-40 72v49q91 24 131 102h109l90 -74q0 -42 1 -200q1 -123 1 -200q0 -3 -1 -9.5t-1 -10.5q0 -19 13.5 -36.5t32.5 -19.5z
M440 105v-139h-310l-9 15l305 1l-1 133zM348 130l-1 16q-30 8 -54 30q-27 25 -29 54v26v400h-94q-46 -62 -126 -98v-30q52 0 67 -10q21 -14 21 -63v-216q0 -31 -21.5 -57t-51.5 -35v-17h289zM188 601q-9 0 -9 10q0 9 9 9q10 0 10 -10q0 -9 -10 -9zM189 567q-12 0 -12 13
q0 12 12 12q13 0 13 -12q0 -13 -13 -13zM190 528q-17 0 -17 16q0 17 17 17q16 0 16 -17q0 -16 -16 -16zM192 480q-19 0 -19 19q0 20 19 20q20 0 20 -20q0 -19 -20 -19zM240 401l-45 -66l-43 65l43 59zM193 278q-19 0 -19 19q0 20 19 20q20 0 20 -20q0 -19 -20 -19zM196 236
q-16 0 -16 17q0 16 16 16t16 -16q0 -17 -16 -17zM196 204q-12 0 -12 12q0 13 12 13q13 0 13 -13q0 -12 -13 -12zM196 177q-9 0 -9 10q0 9 10 9q9 0 9 -10q0 -9 -10 -9zM214 398l-18 24l-17 -23l18 -26z" />
    <glyph glyph-name="two" unicode="2" horiz-adv-x="562" 
d="M470 300l51 -39l-86 -275q-25 13 -48 13h-312l-67 128v88q32 17 93 81q-29 17 -54.5 50t-30.5 65l14 7q-5 3 -14 44q-9 38 -9 49q0 84 76 130q63 37 153 37q103 0 185 -46q98 -55 98 -150q0 -54 -18 -89.5t-63 -73.5l19 -14q84 74 84 165q0 66 -39 109q-30 33 -98 66
q-2 1 -2 5q0 7 6 7t30 -12q117 -58 117 -176q0 -107 -85 -169zM554 236l-96 -300q-44 31 -72 31l-296 -2l-6 14l299 1q37 0 68 -24q6 9 91 292zM273 510q0 53 -55 53q-22 0 -34 -12q32 -23 42 -52q9 -24 8 -67q39 32 39 78zM443 299l-14 10q-45 -52 -86 -52h-140
q-21 0 -53.5 -10.5t-42.5 -10.5q-7 0 -7 4q33 33 127 74q109 48 142 71q67 46 67 109q0 84 -62 129q-55 41 -141 41q-80 0 -139 -35q-70 -42 -70 -116q0 -34 14 -57q16 -27 48 -27q31 0 50 31q17 27 17 60q0 54 -47 54q-13 0 -29 -11l-9 5l2 10q15 23 47 38t62 15
q47 0 79 -32t32 -79q0 -43 -21 -72q-42 -58 -116 -127q-65 -58 -130 -115v-75h289q18 0 33 -10.5t30 -20.5q22 67 68 199zM147 339h-8q-31 -2 -61 20t-45 52l-3 -4q0 -19 33 -58.5t51 -39.5q5 0 33 30zM368 567q0 -21 -20 -21q-21 0 -21 20q0 22 21 22q20 0 20 -21zM337 600
q0 -17 -17 -17q-18 0 -18 18q0 17 17 17q18 0 18 -18zM303 621q0 -13 -15 -13q-12 0 -12 13t14 13q13 0 13 -13zM268 633q0 -8 -9 -8q-8 0 -8 8q0 9 8 9q9 0 9 -9zM395 476l-48 -54l-36 64l46 50q14 -24 38 -60zM312 390q-19 1 -19 17q0 22 21 22q10 0 17 -15
q1 -12 -3 -18.5t-16 -5.5zM290 386q0 -11 -13 -17q-17 5 -16 21q9 10 15 10q13 0 14 -14zM390 185q0 -12 -13 -12t-13 12t13 12t13 -12zM354 185q0 -16 -16 -16t-16 16t16 16t16 -16zM312 184q0 -20 -19 -20t-19 20q0 21 19 21t19 -21zM262 187l-49 -37l-48 40l50 36z
M156 184q0 -20 -18 -20q-19 0 -19 20q0 21 19 21q18 0 18 -21zM109 183q0 -16 -16 -16t-16 16q0 17 16 17t16 -17zM66 180q0 -13 -13 -13t-13 13q0 12 13 12t13 -12zM233 187l-19 14l-20 -13l20 -16zM354 501l-19 -19l16 -26l19 22zM234 366q0 13 13 13t13 -13t-13 -13
t-13 13zM214 348q0 10 9 10t9 -10q0 -9 -9 -9t-9 9z" />
    <glyph glyph-name="three" unicode="3" horiz-adv-x="582" 
d="M569 188q0 -110 -91 -170q-79 -52 -195 -52q-68 0 -128 25q-68 28 -101 80q0 2 -1 5v6q0 3 2 3q1 0 5 -1q33 -51 100 -80q60 -26 126 -26q109 0 184 50q86 58 86 162q0 83 -50 135q-13 10 -36 34q33 15 52 47.5t19 69.5t-25 76q-24 35 -58 57l-6 -3q67 -59 67 -129
q0 -45 -24 -69q-18 -19 -64 -38q103 -65 103 -176q0 -98 -83 -150q-70 -44 -174 -44q-112 0 -188 72.5t-76 183.5q0 39 23 66t62 27q56 0 109 -63h4q12 0 32 -27t20 -41q0 -40 -11 -60q49 17 49 88q0 31 -15 42q-18 11 -35 22q-8 7 -21 38q-9 22 -19 44q-18 -16 -46 -16
q-57 0 -95 53q-34 48 -34 108q0 74 77 111q60 29 144 29q92 0 158 -43q5 9 10 9q132 -67 132 -165q0 -80 -68 -124q80 -59 80 -166zM286 500q0 57 -53 57q-17 0 -28 -7q45 -35 42 -110q39 7 39 60zM450 257q0 67 -37 102q-30 29 -100 49l1 12q50 5 84 34q38 32 38 80
q0 68 -65 102q-52 28 -126 28q-71 0 -126 -27q-68 -35 -68 -98q0 -29 21.5 -55.5t49.5 -26.5q57 0 57 63q0 23 -11 41q-13 22 -35 22q-29 0 -36.5 -23t-12.5 -23q-4 9 -4 16q0 37 38 61q32 20 72 20q111 0 111 -119q0 -84 -76 -95l-1 -22q92 -9 92 -116q0 -72 -13 -102
q-21 -49 -84 -49q-48 0 -96 24q-58 29 -58 72q0 7 7 8q8 -13 16 -25.5t28 -12.5q24 0 36 25q10 20 10 46q0 66 -67 66q-28 0 -47.5 -23.5t-19.5 -51.5q0 -44 39 -84q36 -35 82 -48q39 -12 88 -12q83 0 140 29q73 38 73 113zM216 268q1 -4 11 -26q6 -15 6 -26q0 -14 -18 -64
h4q17 0 26 23q7 17 7 36q0 32 -36 57zM371 574q-5 -14 -15 -14q-15 0 -15 12q0 15 14 15q9 0 16 -13zM392 536q0 -6 -9 -13t-15 -7q-20 0 -20 19q0 17 14 17q30 0 30 -16zM373 486q0 -19 -19 -19q-21 0 -21 19q0 21 20 21t20 -21zM330 605q0 10 11 10t11 -10q0 -11 -11 -11
t-11 11zM381 238q-5 15 -15 15q-15 0 -15 -13q0 -15 14 -15q9 0 16 13zM392 277q0 20 -14 20q-20 0 -20 -19q0 -17 14 -17q20 0 20 16zM383 327q0 18 -19 18q-21 0 -21 -18q0 -22 20 -22t20 22zM340 208q0 -11 11 -11t11 11t-11 11t-11 -11z" />
    <glyph glyph-name="four" unicode="4" horiz-adv-x="617" 
d="M598 283v-149l-2 -1l-12 1q-1 100 0 145l-76 59v252l16 -13v-232q0 -3 74 -62zM562 1h-316l-74 95l-82 -1l-5 15h81q0 15 -1 21q-29 3 -92 1l-54 108l-1 79l253 350l134 1l81 -65v-278q44 -31 80 -62l-2 -131h-56l55 -40zM598 -33h-324l-14 16l322 -1q0 99 3 105
q14 -3 14 -9q0 -46 -1 -111zM486 245v52l-56 -1q-17 0 -37 1l1 360h-109l-252 -343v-68h221q2 -3 2 -14q0 -35 -23 -53q-16 -13 -56 -25v-21h304v24q-33 1 -60 27.5t-27 60.5q28 1 92 0zM259 293h-202l-1 7l192 265q7 0 11 -4v-268zM244 307l-1 99q-45 -56 -72 -99h73z
M321 602q-9 0 -9 10q0 9 10 9q9 0 9 -10q0 -9 -10 -9zM323 568q-13 0 -13 13q0 12 13 12q12 0 12 -12q0 -13 -12 -13zM325 528q-17 0 -17 16q0 17 17 17q16 0 16 -17q0 -16 -16 -16zM327 480q-19 0 -19 19q0 20 19 20q20 0 20 -20q0 -19 -20 -19zM370 401l-46 -63l-42 62
l43 59zM328 278q-19 0 -19 19q0 20 19 20q20 0 20 -20q0 -19 -20 -19zM330 236q-16 0 -16 17q0 16 16 16t16 -16q0 -17 -16 -17zM331 204q-12 0 -12 12q0 13 12 13q13 0 13 -13q0 -12 -13 -12zM333 173q-9 0 -9 10q0 9 10 9q9 0 9 -9q0 -10 -10 -10zM343 402l-17 20l-17 -23
l18 -23z" />
    <glyph glyph-name="five" unicode="5" horiz-adv-x="601" 
d="M582 195q0 -112 -98 -179q-87 -60 -204 -60q-58 0 -116 29.5t-95 76.5v11q9 -8 20 -9q-27 22 -50 78q-20 53 -20 91q0 49 38 80q-24 29 -24 38q0 15 76 267q13 46 12 55h240q18 0 42 11t23 11q6 0 88 -50q-3 -19 -31 -81q-26 -57 -40.5 -80t-66.5 -43v-1l3 -5
q17 -10 49 -30q119 -81 119 -203q0 -66 -49 -127q-33 -43 -98 -66q-58 -21 -119 -21q-98 0 -162 49q-6 5 -10 5q57 -69 182 -69q107 0 187 57q89 63 89 165q0 136 -148 231l-4 8q28 4 65 76q7 12 46 101q9 -7 9 -17q0 -5 -23 -48q-15 -31 -31 -62q-18 -35 -43 -55
q22 -17 50 -38q94 -83 94 -196zM462 276q0 86 -72 136q-63 43 -154 43q-60 0 -108 -22q-23 -11 -26 -11q1 0 -7 3q13 50 30 101q128 -1 137 -1q83 0 113 35q14 16 51 111q-40 -11 -37 -11h-255l-80 -280q-1 -3 -3 -19q78 56 139 56q64 0 100 -52q31 -44 31 -111
q0 -54 -22 -88q-27 -40 -78 -40q-29 0 -77 15q-58 18 -58 39q0 6 5 8q22 -9 27 -9q22 0 39 23q14 21 14 44q0 26 -21 47t-46 21q-28 0 -49.5 -27t-21.5 -55q0 -69 74 -102q55 -25 133 -25q92 0 151 39q71 45 71 132zM306 267q0 33 -29 50q-23 14 -59 14q-28 0 -67 -17
q47 -29 66 -51q28 -32 28 -77q0 -17 -21 -42h16q37 0 54 46q12 32 12 77zM299 601l-43 -41l-41 38l41 40zM294 406q0 10 9 10t9 -10t-9 -10t-9 10zM317 390q0 14 14 14q15 0 15 -14t-15 -14q-14 0 -14 14zM339 360q0 19 19 19q18 0 18 -19t-18 -19q-19 0 -19 19zM307 146
q0 -10 10 -10q9 0 9 10t-9 10q-10 0 -10 -10zM331 162q0 -14 14 -14q15 0 15 14t-15 14q-14 0 -14 -14zM353 193q0 -19 19 -19q18 0 18 19q0 18 -18 18q-19 0 -19 -18zM421 281l-42 -57l-37 56l38 53zM396 282l-15 18l-16 -21l17 -20zM129 603q0 13 13 13q14 0 14 -13
q0 -14 -14 -14q-13 0 -13 14zM164 601q0 19 21 19q20 0 20 -19t-20 -19q-21 0 -21 19zM385 603q0 13 -13 13q-14 0 -14 -13q0 -14 14 -14q13 0 13 14zM350 601q0 19 -20 19q-21 0 -21 -19t21 -19q20 0 20 19zM257 615l-17 -17l17 -17l18 18q-9 9 -18 16z" />
    <glyph glyph-name="six" unicode="6" horiz-adv-x="583" 
d="M569 201q-4 -103 -79 -169t-185 -69q-54 -2 -123 34q-75 38 -102 90q3 2 11 9q20 -47 87.5 -84t128.5 -37q99 0 172 63q78 66 78 165q0 100 -83 185q10 4 30 21q32 43 32 85q0 74 -106 150q2 1 4 5t4 3q33 -16 64 -51q28 -33 38 -63q10 -33 10 -44q-4 -74 -56 -109
q80 -79 75 -184zM535 203q0 -88 -72 -149q-68 -58 -157 -58q-129 0 -215 127q-77 113 -77 248q0 291 252 308q28 2 80 -9q59 -12 110 -62q54 -53 54 -111q0 -24 -16 -50.5t-38 -36.5q-8 -4 -29 -8q108 -79 108 -199zM312 453q-34 53 -34 90q0 17 7 34q-15 0 -19 -4l-10 -16
v-99q17 4 29 2q13 -4 27 -7zM438 273q0 81 -48.5 127t-128.5 46q-23 0 -58 -16t-34 -16q-2 0 -1 55q1 56 0 57q2 56 22 82q23 30 78 31q32 1 59 -8q37 -11 37 -36q0 -5 -1 -11q-5 4 -10 7q-8 4 -19 3q-42 -5 -42 -50q0 -28 17 -49.5t45 -21.5t47.5 21t19.5 49q0 58 -41 89.5
t-112 31.5q-119 1 -185 -93q-59 -84 -55 -205q6 -170 127 -230q14 -7 46 -14.5t48 -7.5q71 0 128 43q61 47 61 116zM306 236q0 -91 -67 -91q-68 0 -70 116v105q0 24 24.5 40t67.5 18q16 1 28 -20.5t16 -52.5q-2 -31 -1 -70q2 -50 2 -45zM290 252v87q-41 2 -47 -41
q-3 -25 1 -92q-4 -43 17 -43q4 0 10 1q19 17 19 88zM57 401l46 -63l42 62l-43 59zM84 399l18 23l16 -23l-18 -26zM342 177q-1 -9 -12 -6q-9 4 -5 13q3 9 12 5q7 -2 5 -12zM123 572q4 -12 16 -7q12 4 8 16q-5 11 -16 7q-12 -4 -8 -16zM102 535q6 -16 21 -10q15 5 10 21
q-6 15 -21 9q-15 -5 -10 -20zM90 489q6 -19 25 -12q18 7 11 25q-6 18 -25 12q-18 -7 -11 -25zM365 213q-4 12 -16 8q-12 -5 -8 -16q5 -12 16 -8q12 4 8 16zM381 352q-6 16 -21 10q-15 -5 -10 -21q6 -16 21 -11q16 6 10 22zM387 303q-7 19 -25 12q-19 -7 -12 -25t25 -12
q18 7 12 25zM150 603q2 -10 12 -6q9 3 6 12q-4 9 -13 6q-7 -3 -5 -12zM140 177q2 -9 12 -6q9 4 6 13q-4 9 -13 5q-7 -2 -5 -12zM117 213q5 12 16 8q12 -5 8 -16q-4 -12 -16 -8t-8 16zM98 257q6 16 21 10q15 -5 10 -21q-6 -15 -21 -9q-15 5 -10 20zM86 303q6 19 25 12
q18 -7 11 -25q-6 -18 -25 -12q-18 7 -11 25zM381 257q-6 16 -21 10q-15 -5 -10 -21q6 -15 21 -9q15 5 10 20zM333 386q0 16 16 16q17 0 17 -16q0 -15 -17 -15q-16 0 -16 15z" />
    <glyph glyph-name="seven" unicode="7" horiz-adv-x="525" 
d="M521 580q-82 -101 -101 -187q-11 -49 -11 -212q0 -94 -40 -155q-47 -73 -137 -73q-54 0 -107 41l4 10q24 -13 46.5 -24.5t58.5 -11.5q45 0 85.5 29.5t57 72.5t18.5 116q0 -16 0 116q0 8 1 25t1 25q0 50 38.5 128t78.5 108zM501 605q-28 -27 -63 -87q-31 -57 -46 -99
q-21 -64 -21 -131q0 -12 2 -37.5t2 -38.5q0 -224 -161 -224q-93 0 -120 75.5t-27 130.5q0 107 112 234q-1 2 -5 2q-62 0 -67 -54h-64l-39 91q24 76 73 227q33 -23 69 -23h301q7 0 54 -66zM104 341q-8 0 -26 1h-25q-3 4 -4 10h52q2 -4 3 -11zM423 654h-292q-13 0 -45 20
l-63 -196q3 0 6 -1q7 0 8 -1q22 22 45 43q14 10 53 9q8 0 32 -3t34 -3q74 0 135 48q9 2 17 10q-21 -46 -61 -78q-94 -74 -139 -129q-71 -87 -71 -170q0 -37 25 -60t62 -23q61 0 87 48q17 33 22 104q5 78 11 96q26 75 63 148q35 69 71 138zM234 552l-53 44l56 38l51 -31
q2 -6 -54 -51zM285 398l-66 -52l-26 52l64 44zM221 305q0 -23 -23 -23t-23 23t23 23t23 -23zM204 256q0 -20 -19 -20q-22 0 -22 19q0 21 22 21q19 0 19 -20zM192 205q-5 -9 -14 -9q-18 0 -18 16q0 15 19 15q8 0 13 -6v-16zM253 596l-18 14l-18 -16l16 -14zM250 415l-30 -19
l9 -18l30 18zM159 170q0 16 14 16q18 0 18 -16t-16 -16t-16 16zM133 600q0 17 16 17t16 -17t-16 -17t-16 17zM303 600q0 17 16 17t16 -17t-16 -17t-16 17zM93 602q0 14 14 14t14 -14t-14 -14t-14 14z" />
    <glyph glyph-name="eight" unicode="8" horiz-adv-x="562" 
d="M442 275q0 -56 -41 -97q-37 -37 -95 -51q-27 -6 -78 -6q-82 0 -137 33q-65 40 -65 117q0 40 38.5 89.5t38.5 45.5q0 -1 -26.5 35t-26.5 79q0 76 63 115q53 34 133 34q67 0 118 -28q64 -34 64 -97q0 -26 -34 -61q-28 -30 -58 -45q106 -61 106 -163zM379 549q0 95 -134 95
q-35 0 -69 -12q-45 -17 -45 -46q0 -17 19 -37q14 -15 79.5 -55.5t78.5 -40.5q28 0 51 35q20 31 20 61zM305 374l-35 68l-70 -12l31 -67zM327 227q0 50 -79 101q-93 61 -111 61q-22 0 -46 -42q-22 -38 -22 -62q0 -62 47 -102q44 -37 108 -37q41 0 70 19q33 22 33 62zM361 526
q0 -12 -20 -35.5t-31 -23.5q-14 0 -51.5 25t-37.5 37q0 20 24 32q20 10 42 10q18 0 46 -14t28 -31zM290 181q-23 -20 -48 -20q-35 0 -59 19q-27 21 -27 54q0 12 8 28t18 16q22 0 63 -37t45 -60zM18 106q88 -142 252 -142q123 0 201 60q85 66 85 186q0 55 -19 95
q-17 36 -59 77q58 41 58 118q0 51 -15 77.5t-59 54.5v-8q35 -36 45 -54q15 -28 15 -68q0 -72 -62 -120q42 -47 58 -79q22 -42 22 -95q0 -111 -80 -173q-73 -57 -188 -57q-90 0 -149 35q-50 29 -97 97zM262 -3q103 0 177 53q83 58 83 157q0 105 -89 182q69 47 69 117
q0 67 -56 118q-28 26 -92 42q-56 14 -103 13q-217 -2 -217 -173q0 -33 21 -70.5t21 -33.5q0 -2 -18 -25q-22 -28 -34 -52q-18 -38 -18 -77q0 -109 73.5 -180t182.5 -71zM292 490q-44 22 -44 36q0 12 12.5 20t25.5 8q23 0 50 -17l-8 -11q-25 16 -44 16q-7 0 -17 -6.5
t-10 -12.5q3 -5 45 -27zM232 414l26 4l12 -26l-25 -4zM198 256q-10 -12 -10 -23q0 -14 20 -29t36 -18l-1 -11q-68 12 -68 54q0 17 15 34zM310 350q0 20 19 20q21 0 21 -20t-22 -20q-18 0 -18 20zM346 316q0 18 18 18t18 -18t-18 -18t-18 18zM364 274q0 16 18 16t18 -16
t-18 -16t-18 16zM364 229q0 15 14 15t14 -15t-14 -15t-14 15zM188 448q0 -22 -19 -22q-21 0 -21 20t22 20q18 0 18 -18zM146 476q0 -18 -18 -18t-18 18t18 18t18 -18zM120 517q0 -17 -18 -17t-18 17q0 16 18 16t18 -16zM112 561q0 -15 -14 -15t-14 15t14 15t14 -15z" />
    <glyph glyph-name="nine" unicode="9" horiz-adv-x="577" 
d="M572 321q0 -141 -70 -238q-82 -111 -231 -111q-58 0 -116 31q-69 38 -101 102q12 6 11 7q29 -60 92 -95q56 -32 115 -32q142 0 219 110q66 93 66 229q0 210 -137 290l14 -17q103 -108 103 -257q0 -139 -68 -234q-78 -107 -211 -103q-52 2 -103 31q-61 34 -92 96
q-11 20 -21 58q-5 18 -2 47q3 31 12 46q-8 11 -29 56q-5 14 -18 73q4 2 10 8q-5 60 -5 67q0 96 65 147q56 46 147 48q94 3 132 -26q5 -3 10 8q75 -23 143 -112q65 -86 65 -229zM446 386q0 80 -30 153q-40 98 -118 118q-31 7 -84 7q-77 0 -129 -41q-61 -47 -61 -134
q0 -45 25 -88q31 -52 83 -64q45 -10 49 -10q14 0 45 9q28 9 38 15q7 4 21 17t17 13q4 0 6 -2l3 -116q-11 -55 -12 -57q-11 -33 -42 -51q-25 -14 -67 -14q-70 0 -88 44q-2 4 0 5q2 2 2 3q27 -7 26 -7q18 0 33 19q13 16 13 34q0 26 -15.5 45.5t-42.5 19.5q-29 0 -47.5 -19.5
t-18.5 -50.5q0 -63 59 -97q46 -26 104 -26q28 0 52 5q41 7 84.5 37.5t60.5 64.5q34 67 34 168zM297 267q0 12 -4 20q-28 -25 -68 -30q24 -34 24 -70q0 -12 -4 -20q24 5 39 42q13 30 13 58zM84 310q-16 5 -39 41q-19 29 -26 47l-1 -9q4 -37 41 -97q3 6 14 11.5t11 6.5z
M311 480q0 -36 -7 -49q-12 -23 -41 -43.5t-49 -20.5q-35 0 -46 41v124q2 58 14 79q15 28 60 28q49 0 62 -57q3 -17 3 -82q0 -2 2 -9t2 -11zM300 509q0 24 -8 46q-7 4 -13 4q-22 0 -22 -56q0 -76 9 -93q9 0 17.5 8.5t9.5 13.5q7 33 7 77zM420 401l-46 -63l-42 62l43 59z
M393 399l-17 23l-17 -23l18 -26zM360 572q-4 -12 -16 -7q-12 4 -8 16q5 11 16 7q12 -4 8 -16zM375 535q-6 -16 -21 -10q-15 5 -10 21q6 15 21 9q15 -5 10 -20zM388 489q-7 -19 -25 -12q-19 7 -12 25t25 12q18 -7 12 -25zM337 603q-2 -10 -12 -6q-9 3 -6 12q4 9 13 6
q7 -3 5 -12zM337 177q-2 -9 -12 -6q-9 4 -6 13q4 9 13 5q7 -2 5 -12zM360 213q-5 12 -16 8q-12 -5 -8 -16q4 -12 16 -8t8 16zM379 257q-6 16 -21 10q-15 -5 -10 -21q6 -15 21 -9q15 5 10 20zM392 303q-7 19 -25 12q-19 -7 -12 -25t25 -12q18 7 12 25zM124 606q2 10 12 6
q9 -3 6 -12t-12 -6q-8 3 -6 12zM102 570q4 -12 16 -7q12 4 7 16q-4 11 -16 7q-11 -4 -7 -16zM86 431q6 -15 21 -10q15 6 10 21q-6 16 -21 11q-16 -6 -10 -22zM80 480q7 -19 25 -12t12 25q-7 18 -25 12q-19 -7 -12 -25zM86 526q6 -15 21 -10q15 6 10 21q-6 15 -21 10
q-16 -6 -10 -21zM134 397q0 -16 -17 -16q-16 0 -16 16q0 15 16 15q17 0 17 -15z" />
    <glyph glyph-name="colon" unicode=":" horiz-adv-x="327" 
d="M176 428q0 36 -22 58.5t-58 22.5q-33 0 -58 -22.5t-25 -55.5q0 -32 23 -58.5t55 -26.5t58.5 25t26.5 57zM257 105q0 -94 -97 -94q-38 0 -55 17q-55 56 -69 72q-39 50 -39 87q0 90 95 96q-95 94 -95 146q0 42 25.5 68.5t73.5 27.5q53 2 107 -60.5t54 -117.5
q0 -35 -22.5 -60.5t-63.5 -31.5q2 -2 36 -37q50 -60 50 -113zM286 354q0 54 -31 89q-16 18 -75 58v8q51 -17 85 -59q38 -44 38 -96q0 -74 -64 -115q64 -51 64 -127q0 -65 -44.5 -105t-110.5 -40q-43 0 -72 33q-1 5 1.5 8.5t8.5 2.5q23 -28 66 -28q55 0 96 37.5t41 91.5
q0 75 -77 133q30 8 52 41t22 68zM96 267q-33 0 -58 -22.5t-25 -55.5q0 -32 23 -58.5t55 -26.5t58.5 25t26.5 57q0 35 -22.5 58t-57.5 23z" />
    <glyph glyph-name="semicolon" unicode=";" horiz-adv-x="316" 
d="M122 265q-31 0 -56.5 -23t-25.5 -53q0 -31 22 -55t53 -24q7 0 20.5 5.5t18.5 6.5q3 -46 -19 -76q-4 -5 -53 -52l12 -9q51 20 82.5 67t31.5 102q0 39 -22 72q-26 39 -64 39zM308 88q0 -78 -46 -137.5t-121 -85.5q0 1 -5 13q70 26 112.5 80.5t42.5 126.5q0 38 -12 85
q-18 66 -51 88q43 21 43 86q0 49 -28 81q-15 17 -68 53l3 8q47 -21 76 -56q32 -39 32 -86q0 -51 -36 -86q15 -10 35 -59q23 -57 23 -111zM268 92q0 -71 -53 -132q-44 -51 -90 -63l-65 105q-2 -4 -2 -7q0 -1 1 -1q5 0 24 21t25 33q-14 6 -32 14q-61 41 -59 108q3 92 79 107
q-15 8 -20 13q-68 68 -68 123q0 37 25.5 62.5t64.5 24.5q49 -2 97.5 -57.5t48.5 -104.5q0 -63 -59 -74q6 -4 22 -18q19 -18 22 -26q12 -14 25 -53q14 -43 14 -75zM171 411q0 33 -20 53.5t-53 20.5q-30 0 -52.5 -20.5t-22.5 -50.5q0 -29 21 -53t50 -24t53 22.5t24 51.5z" />
    <glyph glyph-name="less" unicode="&#x3c;" horiz-adv-x="326" 
d="M301 96l-296 208l1 1h-1h2l290 224l29 -38l-239 -181l240 -179z" />
    <glyph glyph-name="equal" unicode="=" horiz-adv-x="605" 
d="M583 287h-54l-26 13h64v135l15 -8zM544 325h-441l-81 79v114l440 -1l82 -56v-136zM582 217v-139h-450l-9 14l442 1l2 132zM544 115h-441l-81 79l1 116l438 -1l83 -58v-136zM450 416l-1 84h-407l-1 -84h409zM450 206l-1 84h-407l-1 -84h409z" />
    <glyph glyph-name="greater" unicode="&#x3e;" horiz-adv-x="326" 
d="M31 96l296 208l-1 1h1h-2l-290 224l-29 -38l239 -181l-240 -179z" />
    <glyph glyph-name="question" unicode="?" horiz-adv-x="529" 
d="M511 498q0 -56 -45 -106q-23 -25 -115 -98q-13 -10 -14 -21v-15q46 -30 73 -73.5t27 -83.5q0 -59 -45 -104t-102 -45q-47 0 -88 27q-46 31 -66 86q1 3 8 5t7 5q0 4 -7.5 17.5t-9.5 19.5q-15 49 -13 79q2 23 21 45t42 31l-5 8q-13 26 -13 42q0 -3 11 44q-18 -7 -38 -7
q-42 0 -76 27q-15 12 -27 38q-10 22 -10 30l-2 13q8 0 11 3q-5 8 -11 34.5t-6 39.5q0 79 71 121q55 33 128 33q90 0 166 -43q2 1 2 11q0 -1 14 -4q50 -11 81 -58.5t31 -100.5zM394 540q0 71 -57 108q-48 31 -119 31q-68 0 -117 -26q-66 -36 -66 -110t61 -74q21 0 37 22
q15 19 15 40q0 14 -10 32q-13 25 -34 25q-8 0 -23 -10.5t-17 -10.5q-3 0 -8 5q23 75 102 75q43 0 68.5 -28.5t25.5 -73.5q0 -41 -34 -117t-34 -109l1 -19q33 0 34 2q-5 20 4 35q17 32 43 54q43 35 85 69q43 39 43 80zM496 493q0 47 -24 89q-28 48 -78 61q77 -64 77 -152
q0 -33 -13.5 -55t-51.5 -55q-26 -20 -51 -39q-34 -26 -44 -44q-18 -33 -18 -45q0 -4 22 -27q28 -27 33 -34q40 -52 40 -93q0 -36 -28 -72q-32 -40 -76 -40q-30 0 -64 16q-42 21 -62 58q16 -46 61 -73q37 -22 70 -22q48 0 89.5 39t41.5 90q0 42 -25 81q-16 24 -49 53
q-26 24 -26 29q-2 26 44 63q79 65 86 72q46 49 46 100zM237 531q0 13 -12.5 26t-24.5 13q-11 0 -22 -11q32 -33 32 -74q0 -37 -28.5 -61.5t-67.5 -24.5q-12 0 -35 12.5t-32 27.5q4 -36 38 -56q27 -16 61 -16q31 0 35 11q56 129 56 153zM281 186q0 26 -15 47q-18 23 -46 23
q-30 0 -53 -17q-28 -19 -28 -54q0 -26 19.5 -48.5t50.5 -22.5q29 0 50.5 21.5t21.5 50.5zM326 605q0 -9 -9 -14.5t-15 -5.5q-8 0 -14.5 8.5t-6.5 14.5q0 7 8.5 13.5t15.5 6.5q9 0 15 -8.5t6 -14.5zM349 516l-59 -33l-18 57q17 10 54 31q6 -19 23 -55zM211 652q0 14 12 14
t12 -14q0 -10 -10 -10q-14 0 -14 10zM248 638q0 19 17 19t17 -19t-17 -19t-17 19zM253 452q0 20 19 20q18 0 18 -20t-18 -20q-19 0 -19 20zM231 415q0 15 15 15q16 0 16 -15q0 -16 -16 -16q-15 0 -15 16zM318 546l-23 -15l8 -21l23 15z" />
    <glyph glyph-name="at" unicode="@" horiz-adv-x="762" 
d="M699 379q0 -110 -56.5 -179.5t-138.5 -69.5q-92 0 -99 75q-54 -65 -129 -65q-42 0 -71 31q-32 34 -32 94q0 110 59 184q65 82 176 82q60 0 116 -30q-11 -36 -54 -232q-6 -26 -6 -43q0 -39 43 -39q47 0 82 56t35 136q0 102 -73 172q-76 71 -193 71q-122 0 -203 -93
q-77 -89 -77 -211q0 -112 77 -185.5t187 -73.5q65 0 124 19l16 -58q-61 -20 -140 -20q-143 0 -237 82q-102 88 -102 236q0 153 100.5 257t254.5 104q147 0 244 -82.5t97 -217.5zM438 469q-13 6 -36 6q-75 0 -118 -71q-36 -60 -36 -142q0 -60 46 -60q31 0 62 28q37 32 48 85z
" />
    <glyph glyph-name="A" unicode="A" horiz-adv-x="750" 
d="M743 130v-165h-353l-10 14l345 1l1 142q-16 19 -33 38q-40 52 -60 111q-1 2 -34 83q-31 76 -103 262l22 -15l132 -328q24 -59 60 -106q17 -19 33 -37zM708 114q1 -1 -1 -114h-332l-54 131v27h21q37 0 41 32q0 3 2 15h-142q-9 -18 -9 -24q0 -26 18 -41t44 -11v-129h-230
q-11 28 -35 74t-24 44q2 17 0 47q61 -1 82 54l-33 67l1 38h92l51 98l-26 15l4 11l28 -13l10 19q-7 8 -30 19l-31 76v44q53 0 102 22q34 15 66 41l28 23q4 0 48 -18q48 -18 62 -28q19 -42 53 -124q18 -43 52 -125q16 -41 48 -125l28 -58q24 -45 66 -87zM332 -34h-249l-12 16
l250 1l-1 111l12 -32v-96zM627 144q-13 5 -40 20q-19 14 -48 82q-62 137 -186 412q-9 -12 -67 -46q-35 -19 -74 -26q-14 -2 -40 -9v-20q15 -1 48 -8q14 -5 28.5 -16.5t14.5 -15.5q0 -11 -106 -205h-83v-21h74l-18 -36t-33 -59q-16 -41 -76 -45v-20h182v19q-15 1 -26 5
q-26 11 -29 37q-6 40 30 97l189 -1q23 -51 25 -68q2 -9 2 -17q0 -40 -31 -52q-18 -7 -31 -3v-17h295v13zM327 575q0 -11 -11 -11t-11 11t11 11t11 -11zM342 546q0 -14 -14 -14t-14 14t14 14t14 -14zM361 511q0 -18 -17 -18q-18 0 -18 18t18 18q17 0 17 -18zM383 470
q0 -21 -21 -21t-21 21t21 21t21 -21zM444 391q-6 -19 -21 -69q-18 11 -64 41l24 68zM460 280q0 -20 -19 -20q-20 0 -20 20q0 19 20 19q19 0 19 -19zM475 238q0 -16 -16 -16q-17 0 -17 16q0 17 17 17q16 0 16 -17zM486 205q0 -12 -13 -12q-12 0 -12 12q0 13 12 13
q13 0 13 -13zM359 312h-173q8 10 94 183q29 -62 79 -183zM493 177q0 -9 -10 -9q-9 0 -9 9q0 10 9 10q10 0 10 -10zM420 380l-28 18l-8 -26l27 -19zM332 328l-21 59l-29 -58z" />
    <glyph glyph-name="B" unicode="B" horiz-adv-x="728" 
d="M718 202q0 -73 -42 -134q-49 -71 -135 -94q-36 -9 -71 -9h-370q-9 5 -9 14h356q166 1 226 111q30 56 30 107q0 49 -27 94q-4 7 -37 48q13 12 34 39q21 37 21 87q0 59 -34 107.5t-91 61.5q95 -83 95 -167q0 -72 -65 -121q31 -23 51.5 -66t20.5 -90q0 -23 -5 -44
q-16 -67 -76.5 -107.5t-131.5 -40.5q-12 0 -23 1h-360l-60 121v46q6 -1 49 24q11 7 21 31q9 21 9 33v206q0 28 -34 48q1 2 -2 7q-2 2 2 2q1 0 28 -18q3 3 3 13q0 18 -15 25l-28 8q-39 71 -39 76v49h365q73 0 78 -1q35 -4 97 -26q2 2 7 10q30 -9 42 -13q22 -9 39 -22
q36 -26 55 -71.5t18 -88.5q-1 -22 -3 -32q-4 -17 -17 -48q-3 -7 -17.5 -23t-12.5 -18q58 -59 58 -135zM594 267q0 63 -44 97q-37 30 -117 43q-5 4 -5 7q5 5 8 5q61 3 101 36t40 84q0 62 -67 93q-50 23 -121 23h-365v-15q38 -3 62 -32t26 -78q-1 -118 0 -284q1 -32 -23.5 -60
t-58.5 -35v-20l299 -1q117 0 162 13q103 28 103 124zM468 603q-4 -9 -12 -6q-9 3 -6 12t12 6t6 -12zM486 572q-4 -12 -16 -7q-11 4 -7 16q4 11 16 7t7 -16zM501 535q-5 -16 -21 -10q-15 5 -9 21q5 15 20 9q16 -5 10 -20zM504 489q-7 -19 -25 -12t-12 25q7 18 25 12
q19 -7 12 -25zM414 532q0 -44 -27.5 -73t-73.5 -29q-6 0 -60 1v200q61 0 78 1q34 1 60 -38q23 -33 23 -62zM521 327q7 -18 -11 -25q-19 -6 -25 12q-7 18 11 25q19 7 25 -12zM523 279q5 -14 -10 -20q-16 -5 -21 9q-5 15 12 22q13 4 19 -11zM513 239q4 -11 -7 -16
q-12 -4 -16 8q-5 12 7 16t16 -8zM494 209q4 -9 -5 -13q-9 -3 -12 6q-4 9 5 12t12 -5zM440 280q0 -53 -18 -80q-21 -30 -74 -39q-22 -4 -27 -4h-68v243h30q157 2 157 -120zM222 401l-47 -63l-41 62l42 59zM404 525q0 6 -19 6v-60q7 16 15 33q3 16 4 21zM397 539l-7 16
q-14 10 -35 10q-13 0 -13 -1v-118l14 6q5 3 17 12v77q12 4 24 -2zM425 249q1 11 -21 12q-9 1 -21 0v-77l7 5q10 6 17 14q16 19 18 46zM425 267l-4 12q-1 8 -23.5 20t-35.5 12h-22l-1 -142q11 3 32 9v95h32q4 0 12.5 -3t9.5 -3zM196 398l-19 24l-17 -23l18 -26zM169 191
q4 9 13 6q8 -3 5 -12t-12 -6q-9 4 -6 12zM167 222q4 12 16 8q12 -5 7 -17q-4 -11 -16 -7q-11 4 -7 16zM163 260q5 15 20 9q16 -5 10 -21q-6 -15 -21 -9q-15 5 -9 21zM158 306q7 18 25 11t12 -25q-7 -18 -25 -11q-19 7 -12 25zM180 607q-3 -9 -12 -6q-9 4 -5 13q3 9 12 5
q9 -3 5 -12zM183 576q-5 -11 -16 -7q-12 4 -8 16q5 12 16 7q12 -4 8 -16zM187 539q-6 -16 -21 -10t-9 21q5 15 21 10q15 -6 9 -21zM192 493q-7 -19 -25 -12q-19 7 -12 25q7 19 25 12t12 -25z" />
    <glyph glyph-name="C" unicode="C" horiz-adv-x="670" 
d="M667 309q-4 -3 -15 -3q-61 0 -134 35q-83 41 -106 99h11q63 -87 171 -113q12 -3 31 -6l21 -1q-8 26 -20 91q-14 55 -30 162q11 2 13 -9q5 -33 30 -155q13 -63 28 -100zM626 267q0 -26 -34 -99q-37 -79 -118 -126q-71 -42 -143 -42q-143 0 -239 122q-89 114 -89 262
q0 127 67 209q73 88 199 88q41 0 82 -18t51 -18q21 0 51 24l105 -74q12 -62 22 -109q24 -112 34 -129q-54 -1 -134 48q-59 37 -90 71q-11 11 -34 43q-20 26 -20 25q-27 0 -27 -17v-315q0 -15 9 -33q11 -24 27 -24q55 0 98 56q39 53 37 107q14 4 69 -3q4 0 40.5 -21.5
t36.5 -26.5zM659 243q0 -38 -44 -110q-60 -100 -140 -141q-60 -30 -144 -30q-54 0 -100 15q-51 16 -100 56q-74 60 -90 132q3 2 9 8q12 -78 106 -140q88 -58 172 -58q66 0 96 9q88 28 154 115q57 77 66 152q1 1 2 1q3 0 8 -3.5t5 -5.5zM335 555q-2 4 -12.5 15t-11.5 11
q-40 -3 -40 -46v-261q0 -60 1 -61q23 -54 37 -48q-14 29 -14 50v306q0 13 8.5 24.5t20.5 11.5q6 0 11 -2zM531 277l4 28h-40q-3 -44 -22 -80q-21 -40 -68 -65q-42 -22 -81 -22q-19 0 -42 3q-47 8 -78 57q-27 43 -27 87l-1 246q0 36 20 70q23 41 58 41q50 0 97 -62
q62 -81 103 -104q27 -15 32 -17q20 -10 41 -11q2 0 2 2q0 4 -6 13q-10 33 -22 82l-23 86q-16 17 -22 17q1 0 -20.5 -9.5t-37.5 -9.5q-3 0 -58 22q-35 15 -78 15q-119 0 -184 -87q-58 -78 -58 -198q0 -123 72.5 -198t196.5 -75q66 0 129 31q80 37 103 105q10 27 10 33z
M53 391l47 -64l43 63l-44 61zM81 390l18 23l17 -24l-17 -25zM148 597q3 -9 12 -6q9 4 6 13t-12 6q-10 -4 -6 -13zM121 566q4 -12 16 -8q12 5 8 17q-5 12 -17 7q-12 -4 -7 -16zM99 528q6 -16 22 -10q15 5 10 21q-6 16 -22 10q-15 -6 -10 -21zM86 481q7 -19 26 -12q18 7 12 25
q-7 19 -26 12t-12 -25zM160 175q3 9 12 6q10 -3 6 -12q-3 -9 -12 -6t-6 12zM131 207q4 12 16 7q12 -4 8 -16q-5 -12 -17 -8q-12 5 -7 17zM106 245q5 15 21 10q15 -6 10 -21q-6 -16 -22 -10q-15 5 -9 21zM92 292q7 19 26 12t12 -26q-7 -18 -26 -12q-18 7 -12 26zM257 -35z
" />
    <glyph glyph-name="D" unicode="D" horiz-adv-x="703" 
d="M694 333q2 -253 -227 -343q-60 -24 -115 -24h-263l-5 13h266q162 12 251 123q78 97 78 230q0 74 -28 145q-35 87 -104 139l-5 -5q115 -111 115 -265q0 -132 -68 -220q-78 -102 -232 -123q-17 -3 -70 -4q-68 -1 -216 0q-63 115 -62 122v50q26 0 54 26.5t28 62.5l1 222
q0 20 -42 29l-4 14q21 -9 43 -19q-1 9 -2 19q-15 31 -56 39l-21 74v33q60 0 57 0h75q218 -1 212 -1q53 0 119 -21q16 -6 35 -18q14 -8 21 -6q2 -1 3 8q80 -41 125 -139q37 -80 37 -161zM569 395q0 67 -26 132q-35 87 -101 113q-52 20 -117 18h-303l1 -17q26 -7 53 -15
q32 -16 31 -55v-317q0 -29 -25.5 -60t-58.5 -35v-25h306q113 0 178 73q62 70 62 188zM410 428v-147q-3 -50 -39 -83t-97 -33q-20 0 -28 4v462h44q39 0 69 -19q37 -23 46 -78q5 -25 5 -106zM397 426q0 73 -1 82q-5 48 -29 67q-16 14 -37 14h-20l2 -407l23 7v371q4 3 12 2
q14 -2 12 -2q9 -6 20 -15q2 -3 2 -9l-8 7t-18 7q-4 0 -9 -1v-354q51 28 51 81v150zM532 401l-46 -63l-42 62l43 59zM507 395l-19 27l-17 -23l18 -26zM433 603q-3 -9 -12 -6t-6 12q4 9 13 6t5 -12zM462 572q-4 -12 -16 -7q-12 4 -8 16q5 11 16 7q12 -4 8 -16zM487 535
q-6 -16 -21 -10q-15 5 -10 21q6 15 21 9q15 -5 10 -20zM500 489q-7 -19 -25 -12q-19 7 -12 25t25 12q18 -7 12 -25zM427 189q-3 9 -12 6t-6 -12q4 -9 13 -6t5 12zM456 220q-4 12 -16 7q-12 -4 -8 -16q5 -11 16 -7q12 4 8 16zM481 257q-6 16 -21 10q-15 -5 -10 -21
q6 -15 21 -9q15 5 10 20zM494 303q-7 19 -25 12q-19 -7 -12 -25t25 -12q18 7 12 25zM219 401l-46 -63l-42 62l43 59zM194 398l-19 24l-17 -23l18 -26zM167 191q3 9 12 6t6 -12q-4 -9 -12 -6q-9 4 -6 12zM165 222q4 12 16 8q11 -5 7 -17q-4 -11 -16 -7t-7 16zM160 260
q6 15 21 9q15 -5 10 -21q-6 -15 -21 -9q-16 5 -10 21zM156 306q7 18 25 11t11 -25t-25 -11t-11 25zM178 607q-3 -9 -12 -6q-9 4 -6 13t12 5q9 -3 6 -12zM180 576q-4 -11 -16 -7q-11 4 -7 16t16 7q12 -4 7 -16zM185 539q-6 -16 -21 -10t-10 21q6 15 21 10q15 -6 10 -21z
M189 493q-7 -19 -25 -12t-11 25q7 19 25 12t11 -25z" />
    <glyph glyph-name="E" unicode="E" horiz-adv-x="683" 
d="M654 346q-1 0 -10 1q-65 2 -155 43v-96q36 21 75 21q17 -9 86 -54q-52 -121 -70 -260l-511 -1l-64 121q-4 42 0 43q73 13 73 80v239q-14 16 -41 25l1 12q4 0 20 -8.5t18 -8.5v13q0 17 -41 32l-32 83v40h498l75 -61q5 -51 10 -91q12 -97 24 -122q-32 0 -75 14.5t-68 33.5
q-37 34 -75 68q-56 47 -81 47v-105q1 -9 5 -9q6 0 17 30h34q21 -18 82 -69v-132q11 0 25 13l1 121q77 -39 164 -48q-31 136 -37 235l14 -7q6 -59 21 -144q7 -38 14 -75zM680 234q-14 -31 -38 -126q-24 -98 -28 -144h-529q0 1 -5 7t-5 8q0 1 2 1q-19 0 254 -2q168 -1 271 2
q1 4 2 11q18 146 65 251q3 0 11 -8zM557 297h-19q-6 1 -42 -14q-16 -6 -109 -68q-78 -53 -114 -53h-48v222l40 -1q41 0 47 -2q21 -9 26 -49l22 -2v132h-20q-5 -33 -30 -41q-3 -1 -35 -3q-10 -1 -50 0v204q5 10 15 10q84 0 191 -113q10 -10 35.5 -23t32 -13t27.5 -3
q-26 78 -35 177h-474v-18q24 -5 46 -22q28 -23 28 -53v-310q0 -95 -77 -100v-26h484q12 88 59 169zM406 249q-38 34 -87 74l-1 -128q26 6 50 24zM203 401l-46 -63l-41 62l42 59zM178 398l-19 24l-17 -23l18 -26zM151 191q4 9 12 6q9 -3 6 -12t-12 -6q-9 4 -6 12zM149 222
q4 12 16 8q12 -5 7 -17q-4 -11 -16 -7q-11 4 -7 16zM144 260q6 15 21 9q16 -5 10 -21q-6 -15 -21 -9q-15 5 -10 21zM140 306q7 18 25 11t12 -25q-7 -18 -26 -11q-18 7 -11 25zM162 607q-3 -9 -12 -6q-9 4 -6 13q4 9 13 5q9 -3 5 -12zM165 576q-5 -11 -16 -7q-12 4 -8 16
q5 12 16 7q12 -4 8 -16zM169 539q-6 -16 -21 -10t-9 21q5 15 21 10q15 -6 9 -21zM174 493q-7 -19 -26 -12q-18 7 -11 25q7 19 25 12t12 -25z" />
    <glyph glyph-name="F" unicode="F" horiz-adv-x="643" 
d="M467 249l1 160q77 -39 164 -48q-31 136 -36 235l14 -7q5 -59 20 -144q7 -38 14 -75l3 -24q-1 0 -10 1q-65 2 -155 41v-154h-87l-17 15h89zM430 -32h-351q-3 3 -8 13h346v109l13 -6v-116zM288 385q36 4 43 -53l22 1v129h-19q-5 -32 -44 -41q-67 -2 -72 -1l-1 202
q5 10 16 10q85 0 191 -113q10 -10 36 -23t32 -13t27 -3q-25 76 -34 178l-475 -1v-18q24 -5 46 -22q28 -23 28 -53l1 -301q0 -89 -65 -105q-2 -2 -10 -3v-24h298v24q-55 2 -74 36q-14 25 -13 82l1 113zM330 272l13 -13v-114q18 -16 53 -46l-1 -99h-334l-63 122q-5 34 -2 42
q74 6 74 102l1 217q-13 16 -40 25v12q4 0 20 -9t18 -10v15q0 17 -40 32l-33 83v40l496 1l78 -62q4 -51 9 -91q12 -97 24 -122q-32 0 -75 14.5t-67 33.5l-76 68q-55 47 -81 47v-105q2 -4 4 -4q6 0 18 28h34q20 -12 82 -58v-151h-80l-51 52q0 -17 -1 -106q2 -15 5 -30
q4 -22 15 -32v118zM195 401l-47 -63l-41 62l42 59zM169 398l-19 24l-17 -23l19 -26zM142 191q4 9 13 6t5 -12q-3 -9 -12 -6q-9 4 -6 12zM140 222q4 12 16 8q12 -5 8 -17q-5 -11 -17 -7q-11 4 -7 16zM136 260q5 15 21 9q15 -5 9 -21q-6 -15 -21 -9q-15 5 -9 21zM131 306
q7 18 25 11q19 -7 12 -25t-25 -11q-19 7 -12 25zM153 607q-3 -9 -12 -6q-9 4 -5 13q3 9 12 5q9 -3 5 -12zM156 576q-5 -11 -16 -7q-12 4 -8 16q5 12 16 7q12 -4 8 -16zM160 539q-5 -16 -21 -10q-15 6 -9 21t21 10q15 -6 9 -21zM165 493q-7 -19 -25 -12q-19 7 -12 25
q7 19 25 12q19 -7 12 -25z" />
    <glyph glyph-name="G" unicode="G" horiz-adv-x="690" 
d="M678 320h-47l-7 12h21h15q-1 -1 -1 13q-21 113 -23 121q-14 84 -15 124l12 -11q2 -47 20 -137q12 -61 25 -122zM649 288q1 -45 -1 -57q-5 1 -24 0q-62 -1 -62 -96q0 -53 18 -119h-45q-6 8 -21 23q-14 10 -44 10q-45 -10 -91 -20q-51 -11 -80 -11q-21 0 -36 5
q-119 28 -190 148q-62 104 -62 222q0 125 66 205q71 87 195 87q8 0 41 -5q39 -6 54 -11q38 -14 64 -14q3 0 22 9.5t23 9.5h24l92 -64q3 -19 7 -59q1 -31 14 -93t27 -101q-1 -1 -30 -1q-35 0 -95 32q-52 28 -74 51q-36 40 -61 76q-20 31 -28 39q-16 18 -33 19
q-14 1 -23.5 -11.5t-10 -24.5t-0.5 -136v-52l29 -3v172q-2 29 16 27q12 -1 98 -118q15 -21 98 -78h48q26 -21 75 -61zM680 181q-36 4 -42 4q-26 0 -34 -27q-2 -9 -2 -38q0 -48 24 -148h-94q-19 36 -53 36q-27 0 -46 -6q-39 -13 -118 -18q-81 -5 -165.5 55.5t-101.5 139.5
q3 2 9 8q6 -40 56 -96q63 -69 148 -90q66 -14 124 1q80 20 94 20q44 0 60 -38h69q-4 21 -11 60q-9 77 -9 75q0 46 15 69q7 9 32 9q13 0 36 -3q1 11 -1 35q-2 30 -2 41l12 -7v-82zM500 349q-53 32 -99 90q-30 41 -61 82q-4 5 -8 5q-7 0 -6 -15l1 -162h173zM571 313v21h-321
v-23q37 -4 49 -10q37 -19 36 -73q0 -14 -5 -39q-15 -34 -54 -34q-45 8 -72 56q-23 41 -23 86l-1 241q0 35 20 68q22 40 56 40q44 1 91 -43q40 -45 81 -90q51 -54 95 -68q10 -4 33 -8q-10 27 -25 80q-3 17 -30 140q-17 1 -23 1l-18.5 -10t-31.5 -10q-12 0 -62.5 17t-98.5 17
q-117 0 -181 -88q-57 -77 -57 -196q0 -120 70.5 -192.5t191.5 -72.5q27 0 61 10q54 16 68 16q18 0 28.5 -12.5t36.5 -12.5q16 0 23 4q-17 70 -17 88q0 48 39 80q10 8 19 10q15 4 22 7zM322 209q-2 42 -36 48v-90q10 0 23.5 11.5t12.5 30.5zM171 609q3 -9 -6 -12t-12 6t5 12
q9 3 13 -6zM150 581q4 -12 -8 -16q-12 -5 -16 7t8 16q11 4 16 -7zM437 288q-7 -18 -25 -11q-19 7 -12 25t25 11q19 -7 12 -25zM435 244q-6 -15 -21 -9q-15 5 -9 21q5 15 21 9q15 -5 9 -21zM136 546q5 -16 -10 -21q-15 -6 -21 10q-5 15 10 20q15 6 21 -9zM432 209
q-4 -11 -16 -7q-11 4 -7 16t16 8q12 -5 7 -17zM129 502q7 -18 -12 -25q-18 -7 -25 12q-6 18 12 25q18 6 25 -12zM429 181q-3 -9 -12 -6q-9 4 -6 12q4 9 13 6t5 -12zM148 400l-42 -62l-46 63l45 58zM135 290q-7 -18 -25 -12q-18 7 -12 25q7 19 25 12q19 -7 12 -25zM142 246
q-6 -15 -21 -9q-15 5 -10 20q6 16 21 10q15 -5 10 -21zM160 211q-5 -11 -16 -7q-12 4 -8 16t16 7q12 -4 8 -16zM183 183q-4 -9 -13 -6q-8 3 -5 12t12 6t6 -12zM121 399l-17 23l-16 -23l17 -25z" />
    <glyph glyph-name="H" unicode="H" horiz-adv-x="732" 
d="M729 542q-39 -3 -51 -21q-9 -14 -9 -52l-1 -309q-1 0 -8 10.5t-8 11.5v312q0 61 62 61v47l15 -21v-39zM69 0l-63 122q-5 34 -3 42q74 6 74 99l-1 222q-11 14 -38 23l1 12q4 0 20 -9t18 -10q1 7 1 14q0 16 -42 33l-32 83v40h627l58 -50v-36q-64 -2 -64 -86v-197
q0 -95 5 -114q10 -43 61 -66q0 -18 1 -122h-623zM388 441l-1 111q-18 7 -26 7q-20 0 -22 -51q-1 -41 -1 -51q-5 0 -11 -1q-2 -2 -2 49q0 64 38 64q10 0 23 -4q-12 25 -42 25q-11 0 -22 -5q-23 -10 -17 -86v-58q83 -1 83 0zM620 131l-1 19q-80 2 -80 99v313q-1 32 19.5 54
t56.5 22l-1 21h-286v-20q27 -4 50.5 -27.5t23.5 -47.5v-142h-173v66q1 42 0 72q0 32 20 55t56 23l-1 21h-286v-20q23 -5 47 -25q29 -26 29 -56l-2 -295q0 -101 -74 -109v-23l287 1l-1 19q-75 3 -75 97v130h173v-115q0 -103 -74 -111l1 -20zM389 300v19h-83v-99
q-5 -46 18 -56v136h65zM389 286h-53v-121q51 8 53 96q0 -5 0 25zM713 114q7 0 15 -9v-140h-641l-10 14l636 1v134zM205 401l-47 -63l-41 62l42 59zM179 398l-19 24l-17 -23l18 -26zM152 191q4 9 13 6q8 -3 5 -12t-12 -6q-9 4 -6 12zM150 222q4 12 16 8q12 -5 7 -17
q-4 -11 -16 -7q-11 4 -7 16zM145 260q6 15 21 9q16 -5 10 -21q-6 -15 -21 -9q-15 5 -10 21zM141 306q7 18 25 11t12 -25q-7 -18 -26 -11q-18 7 -11 25zM163 607q-3 -9 -12 -6q-9 4 -6 13q4 9 13 5q9 -3 5 -12zM166 576q-5 -11 -16 -7q-12 4 -8 16q5 12 16 7q12 -4 8 -16z
M170 539q-6 -16 -21 -10t-9 21q5 15 21 10q15 -6 9 -21zM175 493q-7 -19 -26 -12q-18 7 -11 25q7 19 25 12t12 -25zM516 401l-47 -63l-41 62l42 59zM490 398l-19 24l-17 -23l18 -26zM463 191q4 9 13 6q8 -3 5 -12t-12 -6q-9 4 -6 12zM461 222q4 12 16 8q12 -5 7 -17
q-4 -11 -16 -7q-11 4 -7 16zM456 260q6 15 21 9q16 -5 10 -21q-6 -15 -21 -9q-15 5 -10 21zM452 306q7 18 25 11t12 -25q-7 -18 -26 -11q-18 7 -11 25zM474 607q-3 -9 -12 -6q-9 4 -6 13q4 9 13 5q9 -3 5 -12zM477 576q-5 -11 -16 -7q-12 4 -8 16q5 12 16 7q12 -4 8 -16z
M481 539q-6 -16 -21 -10t-9 21q5 15 21 10q15 -6 9 -21zM486 493q-7 -19 -26 -12q-18 7 -11 25q7 19 25 12t12 -25z" />
    <glyph glyph-name="I" unicode="I" horiz-adv-x="431" 
d="M424 542q-39 -3 -50.5 -19t-11.5 -54v-297q-2 0 -9 10.5t-8 11.5v300q0 61 62 61v57l17 -21v-49zM383 0h-311l-63 122q-5 34 -2 42q73 6 73 99v221q-12 15 -38 24v12q4 0 20 -9t18 -10v15q0 17 -40 32l-33 83v40h159h158l58 -50v-36q-61 -2 -64 -86v-197q0 -96 4 -112
q10 -41 61 -69q1 -102 0 -121zM421 -35l-332 -1l-9 15h326v135q7 0 15 -9v-140zM319 131l-1 19q-86 2 -86 99v313q-2 31 19 53.5t57 22.5v21h-287l1 -20q23 -5 45 -22q28 -23 28 -53l1 -301q0 -103 -75 -111v-21h298zM209 401l-47 -63l-41 62l42 59zM183 398l-19 24l-17 -23
l19 -26zM157 191q3 9 12 6t5 -12q-3 -9 -12 -6q-9 4 -5 12zM154 222q5 12 16 8q12 -5 8 -17q-5 -11 -16 -7q-12 4 -8 16zM150 260q5 15 21 9q15 -5 9 -21q-5 -15 -21 -9q-15 5 -9 21zM145 306q7 18 25 11q19 -7 12 -25t-25 -11t-12 25zM168 607q-4 -9 -13 -6q-9 4 -5 13
q3 9 12 5q9 -3 6 -12zM170 576q-4 -11 -16 -7t-7 16q4 12 16 7q11 -4 7 -16zM174 539q-5 -16 -21 -10q-15 6 -9 21t21 10q15 -6 9 -21zM179 493q-7 -19 -25 -12t-12 25q7 19 25 12q19 -7 12 -25z" />
    <glyph glyph-name="J" unicode="J" horiz-adv-x="623" 
d="M581 536q-44 -7 -58.5 -19t-14.5 -33q0 -6 1.5 -22t1.5 -27v-260q0 -3 -9 -40q-18 -78 -103 -116q-65 -29 -146 -29q-59 0 -115 24q-73 32 -103 95q-19 40 -26 110q-5 55 21 95q30 45 87 46q46 1 76 -16q32 -20 61 -68v238l-54 36l-48 69v52h360l68 -53zM615 507
q-5 -3 -38 -15q-24 -8 -29 -19v-303q0 -104 -105 -169q-89 -56 -181 -50q-55 3 -108 24q-68 27 -99 73l5 9q36 -45 98 -70q54 -21 112 -21q90 0 166 47q95 58 97 161q0 -8 0 312q1 8 32 19q17 7 35 13l1 89l14 -13q-3 -58 0 -87zM508 630q6 12 -1 26h-340v-26q39 -6 56 -17
q46 -29 46 -102v-240q-9 -117 -111 -117q-82 0 -93 52q33 -14 51 -14q23 0 37 28q11 21 11 43q0 27 -14 49q-18 28 -49 28q-38 0 -57 -41q-13 -28 -13 -58q0 -70 74 -102q50 -22 115 -22q166 0 183 73q9 35 9 27v251q0 83 6 100q16 50 90 62zM386 401l-47 -63l-41 62l42 59z
M360 398l-19 24l-17 -23l19 -26zM321 191q3 9 12 6t5 -12q-3 -9 -12 -6q-9 4 -5 12zM326 222q5 12 16 8q12 -5 8 -17q-5 -11 -16 -7q-12 4 -8 16zM327 260q5 15 21 9q15 -5 9 -21q-6 -15 -21 -9q-15 5 -9 21zM322 306q7 18 25 11q19 -7 12 -25t-25 -11q-19 7 -12 25z
M344 607q-4 -9 -13 -6q-9 4 -5 13q3 9 12 5q9 -3 6 -12zM347 576q-4 -11 -16 -7t-8 16q5 12 17 7q11 -4 7 -16zM351 539q-5 -16 -21 -10q-15 6 -9 21t21 10q15 -6 9 -21zM356 493q-7 -19 -25 -12q-19 7 -12 25q7 19 25 12q19 -7 12 -25z" />
    <glyph glyph-name="K" unicode="K" horiz-adv-x="800" 
d="M797 124l-1 -160l-711 -1l-6 16h705q2 128 0 134q-84 154 -195 355q21 19 59 50q37 26 97 24v58l12 1l1 -74q-11 3 -27 3q-42 0 -83 -28q-12 -8 -41 -36l164 -294q10 -16 26 -48zM765 115q4 -83 -2 -114h-697l-63 127v39q25 1 48.5 19t33.5 51l-1 237l-44 33l-5 22
l48 -31l1 14l-58 52l-23 60v48h338l34 -26v26l277 -1l74 -71v-34q-47 4 -84 -17l-88 -72l127 -229zM408 535q-12 13 -29 13q-52 0 -45 -43v-52q25 22 74 82zM694 131v18q-19 3 -60 19q-44 28 -89 112l-80 150q-31 49 -31 56q0 4 42 45q53 52 70 71q36 41 89 37l-1 18
l-242 -1l1 -12q62 -13 62 -53q0 -32 -16 -50q-106 -122 -189 -203l-7 8v218q0 66 93 71v21h-320v-17q83 -3 83 -114v-289q-4 -67 -83 -81v-26h312q10 3 10 15q0 4 -1.5 7.5t-1.5 4.5h-8.5h-8.5q-39 0 -59 38q-16 30 -16 73q0 17 3 21q77 83 83 83q13 0 89 -140q7 -12 7 -27
q0 -41 -56 -55v-18h325zM410 202q0 15 -19 44q-15 25 -27 35q-19 -10 -24 -26q-2 -6 -2 -27q0 -60 29 -60q14 0 28.5 10t14.5 24zM446 403l-8 -71l-72 26l11 73zM174 598q-3 -9 -12 -5q-9 3 -6 12q4 9 13 5q8 -3 5 -12zM478 290q3 -19 -16 -23q-19 -3 -22 16t16 23
q19 3 22 -16zM176 568q-4 -12 -16 -8q-11 5 -7 16q5 12 16 8q12 -5 7 -16zM498 251q3 -16 -13 -18q-16 -3 -18 13q-3 16 13 19q16 2 18 -14zM513 220q2 -12 -10 -14t-14 10t10 14t14 -10zM525 194q1 -9 -8 -11q-9 -1 -11 8q-1 9 8 11q9 1 11 -8zM181 531q-6 -15 -21 -10
q-15 6 -9 21q5 15 20 9q15 -5 10 -20zM185 485q-7 -18 -25 -11q-18 6 -11 24q7 19 25 12t11 -25zM215 394l-46 -63l-41 62l42 59zM188 286q-7 -18 -25 -11t-11 25t25 11q18 -6 11 -25zM187 243q-6 -15 -21 -9q-15 5 -10 20q6 15 21 10q15 -6 10 -21zM184 209q-4 -12 -16 -8
q-12 5 -7 16q4 12 16 7q11 -4 7 -15zM181 180q-4 -9 -12 -5q-9 3 -6 12t12 5q9 -3 6 -12zM425 389l-27 11l-5 -29l29 -10zM190 391l-19 25l-17 -24l18 -25z" />
    <glyph glyph-name="L" unicode="L" horiz-adv-x="671" 
d="M413 542q-39 -3 -52.5 -18.5t-13.5 -54.5v-262l-14 -9l-1 297q11 59 66 60v51l15 -21v-43zM645 261q-52 -121 -70 -260h-511l-64 125l-1 37q36 9 56 36q18 24 17 53q-5 158 -1 232q-12 15 -39 24l1 12q4 0 20 -9t18 -10v15q0 17 -41 32l-32 83v39h159h158l58 -49v-36
q-62 -2 -65 -86v-320q19 -2 62 33q70 56 87 67q56 36 102 36q17 -9 86 -54zM673 234q-14 -30 -37 -126.5t-27 -143.5h-529q0 3 -8 15l525 1q1 4 2 11q18 146 65 251q3 0 9 -8zM553 302q-43 -3 -97 -39q-42 -33 -86 -67t-68 -34l-79 -1v400q-2 31 19 54t57 23l-1 21h-286v-20
q67 -13 74 -91v-294q0 -82 -77 -100v-21h484q11 84 60 169zM155 607q-3 -9 -12 -6q-9 4 -6 13q4 9 13 5q9 -3 5 -12zM158 576q-5 -11 -16 -7q-12 4 -8 16q5 12 16 7q12 -4 8 -16zM163 539q-6 -16 -21 -10t-9 21q5 15 21 10q15 -6 9 -21zM169 493q-7 -19 -26 -12
q-18 7 -11 25q7 19 25 12t12 -25zM193 401l-46 -63l-41 62l42 59zM170 291q-7 -19 -25 -12t-12 25q7 18 25 12q19 -7 12 -25zM169 247q-6 -15 -21 -10q-15 6 -10 21q6 15 21 10q15 -6 10 -21zM165 212q-4 -12 -16 -7q-11 4 -7 16q4 11 16 7t7 -16zM161 183q-3 -9 -12 -5
q-9 3 -5 12q3 9 12 5q9 -3 5 -12zM166 400l-18 23l-17 -23l18 -26z" />
    <glyph glyph-name="M" unicode="M" horiz-adv-x="886" 
d="M881 508h-39q-28 0 -28 -32l1 -265q0 -27 23 -49q17 -17 36 -23q-1 -117 0 -167h-361l-4 12h351v145q-61 30 -61 87v265q0 35 26 40q12 3 23 2q10 -1 20 0v74l13 -13v-76zM850 547q-56 0 -69 -35q-5 -13 -5 -70l3 -215q1 -71 64 -104v-123l-347 -1q-2 2 -15 32
q-25 -19 -70 -62q-3 2 -8 9q31 37 72 62q-3 7 -13 22q-21 -9 -76 -66l-56 115q-24 65 -75 186q0 2 0 -145l-12 14v156q-5 18 -22 54v-202q-1 -13 34 -50q7 -7 33 -38v-86h-221q-63 116 -62 123v43q82 17 82 101v217q-1 11 -12 16l-22 10l-3 15q20 -9 35 -21v15q0 25 -41 30
l-39 80v44l275 -1l115 -67l29 -72l85 138h262l79 -56v-68zM317 -26h-236l-6 10h233l-1 90l10 -17v-83zM532 272l-1 161q-44 -68 -44 -71q0 -5 10 -30q14 -32 17 -43q13 -17 18 -17zM778 133l1 25q-46 2 -73 37q-24 31 -24 73v296q0 33 26 55q23 20 54 22v17h-242l-152 -250
l-96 247l-252 1l-1 -19q41 -8 63 -41q19 -28 19 -62v-283q-1 -78 -83 -93q0 -10 1 -19q0 -8 0 -7h188l-1 23q-79 9 -79 113v362q5 5 7 5l205 -506q49 64 145 94q0 14 -1 15q-63 20 -80 68q-22 60 -22 61l164 265h4v-366q0 -102 -101 -112l-1 -22zM623 607q-3 -9 -12 -6
q-9 4 -6 13q4 9 13 5q8 -3 5 -12zM625 576q-4 -11 -16 -7q-11 4 -7 16t16 7q12 -4 7 -16zM631 539q-6 -16 -21 -10t-10 21q6 15 21 10q16 -6 10 -21zM636 493q-6 -19 -25 -12q-18 7 -11 25q7 19 25 12t11 -25zM661 408l-46 -63l-42 62l43 59zM638 298q-7 -19 -25 -12
q-19 7 -12 25t25 12q18 -7 12 -25zM637 254q-6 -15 -21 -10q-16 6 -10 21t21 10q15 -6 10 -21zM633 219q-4 -12 -16 -7q-12 4 -7 16q4 11 16 7t7 -16zM629 190q-3 -9 -12 -5q-9 3 -6 12q4 9 13 5q8 -3 5 -12zM634 407l-18 23l-17 -23l18 -26zM223 603q0 -9 -10 -9q-9 0 -9 9
q0 10 9 10q10 0 10 -10zM236 575q0 -12 -12 -12q-13 0 -13 12q0 13 12 13q13 0 13 -13zM255 542q0 -16 -16 -16q-17 0 -17 16t16 16t17 -16zM276 501q0 -19 -19 -20q-20 0 -20 20q0 19 20 19q19 1 19 -19zM332 425l-20 -76l-61 43l18 71zM348 313q0 -19 -19 -20
q-20 0 -20 20q0 19 19 19q20 1 20 -19zM362 272q1 -16 -16 -17q-16 0 -16 16q0 17 16 17t16 -16zM372 238q0 -12 -12 -13q-13 0 -13 13q0 12 12 12q13 1 13 -12zM378 210q1 -7 -2 -7q-16 -1 -17 7q0 9 10 9q9 0 9 -9zM307 414l-25 15l-8 -28l26 -17z" />
    <glyph glyph-name="N" unicode="N" horiz-adv-x="719" 
d="M716 526q-49 4 -53 -32v-220q0 -53 12 -63q4 -7 23 -23v-122q-62 -25 -162 -103l-4 8q24 24 89 63q32 18 63 36v115q-35 21 -35 61v250q5 42 55 43v72q4 -1 12 -5v-80zM678 574q-52 -23 -52 -71v-182v-19v-24q0 -56 14 -76q11 -15 29 -28v-87q-59 -23 -155 -97
q-24 37 -65 100q-66 95 -200 283v-204q3 -20 20 -57q11 -13 30 -22v-90h-234q-2 3 -31 58.5t-29 57.5l-1 44q34 2 55.5 24t21.5 54v250q-9 15 -33 23v11q20 -5 25 -10t7 -5q0 20 -8.5 30t-27.5 9q-3 10 -22 44q-16 31 -16 35v46l214 1l130 -61l139 -175v42q0 25 -1 50
q-17 24 -42 28l-43 81v34h208l67 -45v-52zM334 72l-1 -106l-253 1l-7 11l247 1v102q3 0 14 -9zM604 646v15h-189v-18q63 -3 80 -37q7 -15 7 -66v-209q0 -7 1 -44l-294 371h-189v-25q10 0 19 -1q16 -1 34 -13q9 -6 16 -20.5t7 -20.5v-346q0 -31 -22.5 -55t-55.5 -29v-25h180
v27q-24 0 -45 18q-28 22 -28 63v332q11 -10 327 -451q62 33 160 83l-5 10q-35 7 -49 20q-26 25 -26 93v258q0 64 72 70zM242 140q-6 16 -6 30v219l-23 24v-228q0 -7 9 -23.5t20 -21.5zM191 599q3 -12 -9 -15q-12 -2 -14 9q-3 12 9 15t14 -9zM218 567q4 -15 -11 -19
q-15 -3 -19 12q-3 15 12 18q15 4 18 -11zM250 530q5 -19 -14 -23q-19 -5 -24 14q-4 19 15 24q19 4 23 -15zM287 485q6 -22 -17 -27q-22 -5 -28 17q-5 23 18 28q22 5 27 -18zM375 413q-2 -20 -9 -74q-20 7 -75 37l4 73zM416 307q5 -20 -16 -25t-25 16q-5 21 16 25
q21 5 25 -16zM446 260q4 -17 -13 -21q-18 -4 -22 13t14 21q17 4 21 -13zM470 226q3 -14 -10 -17t-16 10q-4 14 10 17q13 3 16 -10zM487 195q3 -10 -8 -13q-10 -2 -12 8t8 13q10 2 12 -8zM350 401l-30 11l-2 -25l27 -13z" />
    <glyph glyph-name="O" unicode="O" horiz-adv-x="668" 
d="M669 302q0 -133 -77 -228q-89 -112 -246 -112q-81 0 -152 35q-83 41 -128 121q2 4 6 11q-73 114 -73 266q0 106 66 187q78 96 215 95q55 -1 142 -29q4 0 5 4t5 4q8 0 49 -19q51 -23 102 -83q46 -54 61 -97q25 -71 25 -155zM652 302q0 201 -143 295q90 -79 106 -179
q7 -40 7 -82q0 -111 -45 -194q-52 -97 -155 -132q-49 -16 -78 -16h-22q-85 0 -169 52q23 -26 83 -47q56 -20 92 -20h21q150 0 233 109q70 91 70 214zM522 378q0 78 -26 142q-37 92 -121 123q-59 23 -97 23q-125 0 -198 -88q-64 -75 -64 -179q0 -99 54 -177q70 -100 199 -100
q89 0 152 43q71 48 89 136q12 63 12 77zM363 193q0 -8 -12 -18q-35 -26 -71 -26q-72 0 -90 65v356q11 71 84 71q49 0 72 -35q17 -26 17 -62v-351zM347 199l-1 339q0 13 -19 13q-29 0 -32 -33l-2 -355q33 3 54 36zM489 401l-46 -63l-42 62l43 59zM464 395l-20 27l-17 -23
l19 -26zM396 603q-3 -9 -12 -6t-6 12q4 9 12 6q9 -3 6 -12zM423 572q-4 -12 -16 -7q-12 4 -8 16q5 11 16 7q12 -4 8 -16zM444 535q-6 -16 -21 -10q-16 5 -10 21q6 15 21 9q15 -5 10 -20zM456 489q-6 -19 -25 -12q-18 7 -11 25q6 18 25 12q18 -7 11 -25zM424 218q-4 14 -17 9
q-12 -4 -8 -16q5 -11 16 -7q12 4 9 14zM448 257q-6 16 -21 10q-16 -5 -10 -21q6 -15 21 -9q15 5 10 20zM460 303q-6 19 -25 12q-18 -7 -11 -25q6 -18 25 -12q18 7 11 25zM408 182q0 12 -15 12q-12 0 -12 -11q0 -14 12 -14q15 0 15 13zM61 401l46 -63l42 62l-43 59zM86 395
l19 27l17 -23l-18 -26zM154 603q3 -9 12 -6t5 12q-3 9 -12 6t-5 -12zM127 572q4 -12 16 -7q12 4 7 16q-4 11 -16 7q-11 -4 -7 -16zM106 535q6 -16 21 -10q15 5 10 21q-6 15 -21 9q-15 -5 -10 -20zM93 489q7 -19 25 -12q19 7 12 25t-25 12q-18 -7 -12 -25zM126 218q4 14 17 9
q12 -4 7 -16q-4 -11 -16 -7q-11 4 -8 14zM102 257q6 16 21 10q15 -5 10 -21q-6 -15 -21 -9q-15 5 -10 20zM89 303q7 19 25 12q19 -7 12 -25t-25 -12q-18 7 -12 25zM142 182q0 12 14 12q13 0 13 -11q0 -14 -13 -14q-14 0 -14 13z" />
    <glyph glyph-name="P" unicode="P" horiz-adv-x="732" 
d="M729 437q0 -93 -95 -161q-89 -63 -204 -68q-12 -1 -52 0q-2 -4 -2 -8q0 -18 29 -42q19 -15 39 -30v-12l-56 42q-23 22 -23 47v14q7 -1 9 1q124 -5 223 47q117 61 117 172q0 95 -74 166q-2 0 -7 -3q59 -68 59 -143q0 -36 -17 -76q-62 -138 -265 -138q-7 0 -72 -1v-35
q0 -63 106 -115l-1 -94h-377l-63 123v35q33 -2 59 24t26 52l1 210v41q-17 14 -23 18q-9 6 -25 9q-9 16 -2 16q15 0 26.5 -9.5t22.5 -19.5l-1 12q-4 42 -55 49l-27 66v46l473 -1q28 2 81 -21.5t71 -46.5q0 6 2 17q42 -18 72 -82q25 -56 25 -101zM483 -40h-398q-3 2 -7 13h393
v109q2 1 6 -5t5 -6zM604 518q0 51 -31 88q-34 41 -98 50q-134 -1 -459 1l1 -21q64 -6 85 -124v-282q0 -20 -18 -45q-22 -30 -57 -37q-5 1 -13 -1v-9.5v-6.5h325v18q-90 4 -92 68q-2 44 0 141q90 -1 157 0q93 1 146.5 42.5t53.5 117.5zM433 509q0 -103 -59 -115h-127v237h114
q72 -4 72 -122zM422 518q-4 61 -62 61h-32v-174h23v147h21q27 0 35 -19q-1 -2 -1 -4q-1 0 -3 1q-15 10 -17 10q-3 1 -23 0v-135q28 -1 44.5 32t14.5 81zM179 607q-4 -9 -12 -6q-9 4 -6 13t12 5q9 -3 6 -12zM181 576q-4 -11 -16 -7t-7 16q4 12 16 7q11 -4 7 -16zM187 539
q-6 -16 -21 -10q-16 6 -10 21t21 10q15 -6 10 -21zM192 493q-7 -19 -25 -12t-12 25q7 19 26 12q18 -7 11 -25zM217 401l-46 -63l-42 62l43 59zM193 291q-6 -19 -25 -12q-18 7 -11 25q6 18 25 12q18 -7 11 -25zM192 247q-5 -15 -21 -10q-15 6 -9 21q5 15 20 10q16 -6 10 -21z
M189 212q-4 -12 -16 -7q-12 4 -8 16q5 11 16 7q12 -4 8 -16zM185 183q-3 -9 -12 -5q-9 3 -6 12t12 5q9 -3 6 -12zM190 400l-19 23l-17 -23l19 -26zM498 603q-3 -9 -12 -6t-6 12q4 9 12 6q9 -3 6 -12zM517 572q-5 -12 -16 -7q-12 4 -8 16q5 11 16 7q12 -4 8 -16zM532 535
q-6 -16 -21 -10q-16 5 -10 21q6 15 21 9q15 -5 10 -20zM534 489q-6 -19 -25 -12q-18 7 -11 25q6 18 25 12q18 -7 11 -25zM482 448q0 17 19 17q16 0 16 -17t-17 -17q-18 0 -18 17z" />
    <glyph glyph-name="Q" unicode="Q" horiz-adv-x="710" 
d="M706 328q0 -63 -25 -132q-27 -74 -69 -114q8 -5 21 -18l-76 -191q-28 -5 -54 -5q-48 0 -91 18q12 -21 47 -34q29 -10 57 -10q25 0 60 8q39 108 76 194q5 -1 11 -10l-79 -197q-40 -8 -63 -8q-108 0 -178 95q-60 9 -110 27q-65 25 -124 99q-51 65 -78 142t-27 186
q0 137 82.5 221.5t222.5 80.5q49 -1 89 -9q3 -1 22 -6.5t22 -5.5q4 0 2 9q0 3 3 3q9 0 63 -23q91 -39 145 -130q51 -87 51 -190zM691 322q0 99 -50 185q-53 93 -139 128q68 -44 118 -127t50 -162q0 -59 -21 -121q-21 -67 -58 -106q-5 -4 -11 -13l18 -13q44 38 70 105
q23 61 23 124zM575 365q0 122 -72 210q-77 93 -196 93q-133 0 -208.5 -79t-75.5 -211q0 -92 55 -171q59 -83 147 -102q33 -7 70 -8q6 -32 12 -65q19 -61 72 -61q107 0 112 6q12 16 29 64q24 64 26 70q-14 10 -17 10q2 0 -20 -24q-25 -26 -61 -34q-5 -1 -24 -1
q-32 0 -46.5 6.5t-37.5 31.5q98 0 168 86q67 80 67 179zM340 -57q-15 12 -36 40q-64 6 -93 16q-40 14 -81 51q17 -33 70 -66t96 -37zM336 130q-3 13 -2.5 38t-0.5 36q-5 29 -25.5 48t-49.5 19q-46 0 -68 -44l1 272q0 146 110 146q97 0 97 -123v-10.5v-11.5v-298
q0 -18 -22 -44.5t-40 -27.5zM300 129q-2 -1 -6 -1q-30 0 -59 13q-36 17 -36 44q0 16 22 31q19 14 36 14q20 0 31.5 -17t11.5 -38v-46zM381 507q0 21 -13.5 34.5t-34.5 13.5q-47 0 -47 -72l-1 -201q6 1 12 1q48 0 84 -77v301zM532 401l-47 -63l-45 63l43 58zM504 401l-20 23
l-16 -23l19 -26zM426 602q-3 -9 -12 -7q-9 3 -6 12t12 7q9 -3 6 -12zM454 572q-3 -12 -15 -8t-9 16q4 12 16 8t8 -16zM477 536q-5 -16 -20 -11q-16 5 -11 21q5 15 20 10q16 -4 11 -20zM492 491q-5 -19 -24 -13q-19 5 -13 24t24 13q19 -6 13 -24zM466 218q-4 14 -16 9
q-12 -4 -8 -16q4 -11 16 -7q11 4 8 14zM490 257q-5 16 -20 10q-16 -5 -10 -21q5 -15 21 -9q15 5 9 20zM503 303q-6 19 -25 12q-18 -7 -11 -25q6 -18 25 -12q18 7 11 25zM450 182q0 12 -14 12q-13 0 -13 -11q0 -14 13 -14q14 0 14 13zM57 401l45 -63l43 62l-40 59zM82 399
l22 23l16 -25l-19 -24zM162 602q3 -9 12 -7q9 3 7 12q-3 9 -12 7q-9 -3 -7 -12zM134 572q4 -12 16 -8t8 16t-16 8q-11 -4 -8 -16zM111 536q5 -16 21 -11q15 5 11 21q-5 15 -21 10q-15 -4 -11 -20zM96 491q6 -19 25 -13q18 5 13 24q-6 19 -25 13q-18 -6 -13 -24zM122 218
q4 14 17 9q12 -4 7 -16q-4 -11 -16 -7q-11 4 -8 14zM98 257q6 16 21 10q15 -5 10 -21q-6 -15 -21 -9q-16 5 -10 20zM85 303q7 19 25 12t12 -25q-7 -18 -25 -12q-18 7 -12 25zM138 182q0 12 14 12q13 0 13 -11q0 -14 -13 -14q-14 0 -14 13z" />
    <glyph glyph-name="R" unicode="R" horiz-adv-x="813" 
d="M807 -43h-248l-4 12l237 1v155q-37 43 -81 103l-10 16q-7 12 -6 22l7 8q4 -14 16 -30q11 -23 40 -54q48 -53 49 -63v-170zM760 -1h-222l-159 260q1 -26 1 -106q-12 10 -12 23v103l-27 41v-116q-1 -28 27.5 -60.5t66.5 -45.5v-99h-365l-65 119v43q41 5 60 22q30 26 30 85
q2 159 0 184q-3 35 -31 51q1 2 -2 8.5t-3 7.5q0 2 2 2q5 0 17 -9.5t15 -14.5v15q-8 10 -50 45q-1 2 -18 36.5t-18 37.5v41l505 -1q68 0 118 -25q91 -46 97 -152q6 -102 -124 -156q30 -38 76 -46q0 -3 -3 -16t-3 -17q2 -52 87 -123v-137zM482 -43h-385l-6 13h378l1 116
q8 -7 12 -42v-87zM711 149q-10 2 -34 5q-51 9 -84.5 65t-33.5 68t-2.5 20.5t-2.5 9.5q0 5 12 16q-133 -7 -207 54q3 3 20 0q213 0 242 121q4 14 4 28q0 57 -58 93q-50 31 -114 31h-430q-7 0 0 -22q85 -12 85 -130v-249q0 -98 -84 -107l-1 -20h320v20q-47 0 -72.5 28
t-25.5 75v25q1 26 1 49v59q57 2 65 -1t81 -118q43 -69 86 -137h233q3 2 0 17zM458 517q0 -105 -155 -105h-56q-3 221 0 224q38 -1 126 0q85 -16 85 -119zM429 507v11q-28 37 -68 37h-17v-122h27v88h17q-2 0 41 -14zM429 488q0 6 -10.5 12t-18.5 6h-16v-67q45 17 45 49z
M512 603q-3 -9 -12 -6t-5 12q3 9 12 6t5 -12zM531 572q-4 -12 -16 -7q-12 4 -7 16q4 11 16 7q11 -4 7 -16zM546 535q-6 -16 -21 -10q-15 5 -10 21q6 15 21 9q15 -5 10 -20zM549 489q-7 -19 -25 -12q-19 7 -12 25t25 12q18 -7 12 -25zM497 448q0 17 19 17q16 0 16 -17
t-18 -17q-17 0 -17 17zM178 607q-3 -9 -12 -6q-9 4 -6 13q4 9 13 5q8 -3 5 -12zM180 576q-4 -11 -16 -7q-11 4 -7 16t16 7q12 -4 7 -16zM186 539q-6 -16 -21 -10t-10 21q6 15 21 10q16 -6 10 -21zM191 493q-6 -19 -25 -12q-18 7 -11 25q7 19 25 12t11 -25zM216 401l-46 -63
l-42 62l43 59zM193 291q-7 -19 -25 -12q-19 7 -12 25t25 12q18 -7 12 -25zM191 247q-5 -15 -20 -10q-16 6 -10 21t21 10q15 -6 9 -21zM188 212q-4 -12 -16 -7q-12 4 -7 16q4 11 16 7t7 -16zM184 183q-3 -9 -12 -5q-9 3 -6 12q4 9 13 5q8 -3 5 -12zM189 400l-18 23l-17 -23
l18 -26zM495 288q2 -20 -18 -21q-19 -2 -20 19q-2 20 18 21q19 2 20 -19zM513 247q1 -17 -15 -18t-17 15q-1 17 15 18t17 -15zM526 213q1 -13 -11 -14q-13 -1 -14 12t12 14q12 1 13 -12zM535 184q1 -10 -8 -10q-10 -1 -11 9q0 10 9 11q10 0 10 -10z" />
    <glyph glyph-name="S" unicode="S" horiz-adv-x="639" 
d="M629 198q0 -111 -89 -179q-79 -61 -182 -61q-86 0 -183 41q-7 1 -25 -14h-45q-8 8 -6 11l47 1q15 24 33 19l70 -24q65 -20 108 -20q96 0 172 57q86 64 86 165q0 33 -17 78q-18 51 -39 60q0 2 18.5 -43t16.5 -83q-7 -104 -83 -162q-66 -51 -159 -51q-49 0 -105 22
q-31 13 -68 26q-34 2 -40 -26q-11 -1 -53 -1l-43 101l-33 225q15 3 35 -4q76 -28 157.5 -102t123.5 -74q22 0 27 25q0 33 -31 52q-25 13 -50 25q-44 20 -124 60q-114 68 -121 204q-5 82 60 125q54 36 136 36q72 0 167 -37l50 23l96 -70l46 -222q-99 27 -162 88
q-18 29 -57 76q-26 23 -49 23q-33 0 -33 -30q0 -31 65 -67q31 -14 62.5 -28t53.5 -26q25 -15 35 -19q48 -22 106 -27l-40 209l12 -7q45 -208 44 -214q-1 -4 0 -8l2 -5q-35 -1 -60 7q28 -25 48 -71t20 -84zM340 572q-22 31 -59 35q-16 2 -34 -10q-24 -15 -24 -42
q0 -28 37 -50q21 -9 41 -18q-32 23 -32 52q0 39 45 39q8 0 26 -6zM508 275q0 56 -34 95q-57 66 -156 96q-41 12 -86 37q-72 40 -77 81q-4 35 22 54q22 16 52 16q47 0 70 -18q20 -15 70 -75q43 -52 71 -66q12 -6 39 -10l-39 175q-48 -26 -54 -24q-60 24 -73 27q-37 10 -94 10
q-69 0 -117 -33q-55 -38 -55 -104q0 -68 61 -115q15 -11 118 -66l110 -52q57 -35 57 -90q0 -31 -24 -53.5t-53 -21.5q-81 5 -163 93q-16 18 -31 36q-27 27 -60 46q-7 4 -15 9q-2 0 -19 2q9 -66 29 -192q0 -3 5 -2q8 1 10.5 2t14.5 21q7 14 25 14q9 0 78 -26.5t118 -26.5
q72 0 129 35q71 44 71 126zM348 380l-38 65l-73 -20l41 -64zM274 411l25 7l15 -25l-25 -7zM364 356q-2 20 17 22q21 2 23 -18t-20 -22q-18 -2 -20 18zM403 326q-2 17 16 19t20 -16q1 -18 -16 -20q-18 -1 -20 17zM425 285q-2 16 16 18q18 1 20 -15q1 -16 -17 -17
q-18 -2 -19 14zM429 240q-2 15 12 17q14 1 15 -14q2 -14 -19 -16q-7 -1 -8 13zM212 443q2 -22 -17 -23q-21 -2 -23 18q-1 20 21 22q18 1 19 -17zM168 468q1 -18 -17 -20t-19 16q-2 18 16 20q18 1 20 -16zM138 506q2 -17 -16 -18q-18 -2 -19 15q-2 16 16 17q18 2 19 -14z
M127 549q1 -15 -13 -16t-15 14q-2 15 12 16t16 -14z" />
    <glyph glyph-name="T" unicode="T" horiz-adv-x="687" 
d="M688 310q-66 -2 -126 32l-52 38q-3 12 4 12q-8 0 53.5 -33.5t104.5 -32.5l-44 273q0 2 6 -4.5t9 -4.5zM647 354q-78 15 -157 78q-5 -3 -6 -12q-1 -6 0 -17q1 -12 1 -14l-1 -213l-13 7v260l-28 29l1 -99q0 -6 -1 -60q-2 -41 0 -67q2 -36 9 -57q10 -28 37.5 -53t54.5 -34
v-105h-373q-16 40 -55 117l-1 46q19 -7 48 16q34 28 34 76q2 143 0 161q-16 -18 -54 -51q-41 -28 -76 -36l-6 14q75 24 136 96l1 37q-86 -104 -148 -112q-38 71 -51 109l45 200l478 -1l83 -53zM582 -37l-391 -1q0 1 -6 8t-6 10l388 -2v115l15 -6v-124zM561 466l-47 187
l-456 1q-41 -163 -41 -181q54 12 95 53q20 20 53 69q23 34 36 35l14 -1v-380q0 -84 -86 -104v-14h324q-1 7 -3 14q-86 17 -97 111l1 373q0 2 5.5 0.5t6.5 -0.5q26 -3 55 -45q49 -70 53 -75q35 -39 78 -39q4 0 5.5 -3t3.5 -1zM288 607q-3 -9 -12 -6q-9 4 -6 13q4 9 13 5
q8 -3 5 -12zM290 576q-4 -11 -16 -7q-11 4 -7 16t16 7q12 -4 7 -16zM296 539q-6 -16 -21 -10t-10 21q6 15 21 10q16 -6 10 -21zM301 493q-6 -19 -25 -12q-18 7 -11 25q7 19 25 12t11 -25zM326 401l-46 -63l-42 62l43 59zM303 291q-7 -19 -25 -12q-19 7 -12 25t25 12
q18 -7 12 -25zM302 247q-6 -15 -21 -10q-16 6 -10 21t21 10q15 -6 10 -21zM299 212q-4 -12 -16 -7q-12 4 -7 16q4 11 16 7t7 -16zM296 183q-3 -9 -12 -5q-9 3 -6 12q4 9 13 5q8 -3 5 -12zM301 395l-19 27l-17 -23l18 -26z" />
    <glyph glyph-name="U" unicode="U" horiz-adv-x="736" 
d="M726 596v-24q1 -15 1 -23q0 -13 -1 -27l-8 1q-19 1 -34 -9.5t-16 -28.5l-2 -241q0 -22 21 -55t21 -36q0 -27 -38 -69q-126 -139 -284 -139q-53 0 -115 13q-73 17 -103 42q-1 11 7 11l7 -4q88 -50 198 -50q83 0 164.5 41.5t129.5 109.5q22 32 22 42q0 1 -22 38t-22 57v241
q0 17 18 33.5t36 16.5q4 0 8 -2v8q0 12 -1.5 33t-1.5 30zM692 554q-41 -7 -54 -33q-10 -19 -10 -66l1 -219q0 -36 27 -68l9 -10l5 -6q0 -10 -27 -44q-102 -130 -261 -130q-70 0 -151 28q-95 34 -120 85q-48 98 -48 120v1q28 20 38 39l3 6v1v-1q-1 43 0 111q1 87 1 111
q0 17 -25.5 26.5t-28.5 18.5q3 3 7 3q8 0 21 -8l20 -12l-2 9q-22 36 -50 32l-37 73l-1 49h334q8 0 66 -61l1 -62q-20 -5 -40 -11q-22 -9 -22 -32v-310q0 -44 21 -52l3 335q0 49 71 49q23 0 43 -12h6q-2 9 -4 17q-4 13 -19 13l-54 89l1 40h210q9 0 34 -22q16 -14 33 -29z
M498 451q0 2 -2 44q-5 8 -24.5 13.5t-32.5 5.5q-18 0 -33 -7q-19 -9 -19 -24v-340h30q22 0 47.5 19t29.5 41t4 38v210zM619 635v20h-188v-16q31 -2 55.5 -31t24.5 -60l-1 -312q0 -105 -126 -105q-55 0 -90 22q-42 27 -42 79l2 316q0 36 23.5 62t58.5 23v22h-309v-24
q45 -5 70 -39q21 -31 21 -78v-259q0 -10 -18.5 -28t-18.5 -19q0 -9 40 -45q75 -68 217 -68q75 0 142 30q78 34 107 93q-20 11 -33.5 34.5t-13.5 46.5l-1 249q0 36 22.5 62t57.5 25zM180 601q-9 0 -9 10q0 9 10 9q9 0 9 -10q0 -9 -10 -9zM180 568q-12 0 -12 13q0 12 12 12
q13 0 13 -12q0 -13 -13 -13zM182 528q-16 0 -16 16q0 17 16 17q17 0 17 -17q0 -16 -17 -16zM185 480q-20 0 -20 19q0 20 20 20q19 0 19 -20q0 -19 -19 -19zM230 401l-47 -63l-41 62l42 59zM204 400l-19 22l-17 -23l18 -23zM191 229q15 0 15 -13t-13 -13t-13 12q0 14 11 14z
M184 268q16 0 16 -16t-16 -16q-19 0 -19 17q0 15 19 15zM182 316q20 0 20 -19q0 -20 -20 -20q-19 0 -19 20q0 19 19 19zM197 182q0 12 14 12q13 0 13 -11q0 -14 -13 -14q-14 0 -14 13z" />
    <glyph glyph-name="V" unicode="V" horiz-adv-x="703" 
d="M697 508q-61 2 -69 -20q-47 -101 -118 -262q-2 -5 -2 -10q0 -12 17 -21q13 -6 26 -11q0 -4 -8 -7q-20 0 -34.5 11.5t-14.5 28.5q0 8 4 17q37 86 114 258q8 16 30 25t40 5q3 48 0 68l15 -4v-78zM661 549q-54 2 -75 -48q-61 -139 -121 -286q-1 -31 29 -50q25 -17 56 -18
v-54l-102 -36q-38 -17 -90 -69l-80 74l-187 450q-5 13 -22.5 31t-25.5 20.5t-29 6.5v16l22 -4q13 -5 35 -23q-7 17 -15 34q-11 15 -50 25v52h295l73 -60v-61q-18 -1 -22 -7q-1 -2 -3 -16q4 -32 51 -120q36 75 36 113q0 24 -17 28l-36 72l-1 51l206 -1q6 0 73 -57
q2 -50 0 -63zM585 131q-2 -13 0 -75l-44 -8q-64 -12 -155 -86l-11 10q25 24 82 59q27 17 71 30q21 6 43 11v64q5 -1 14 -5zM585 633v20h-185l-2 -21q42 -8 55 -21q17 -16 16 -60q0 -20 -52 -153q-51 -129 -55 -129q-19 30 -75 153q-59 128 -58 145q0 38 22 51q1 0 43 13v22
h-268v-23q22 -10 30 -16q11 -9 23 -32q68 -168 209 -504q63 79 163 101l-5 20q-10 0 -34 9q-32 12 -32 27q45 103 130 316q19 50 30 62t45 20zM155 592q0 -11 -11 -11t-11 11q0 12 11 12t11 -12zM170 562q0 -15 -14 -15t-14 15t14 15t14 -15zM189 525q0 -19 -18 -19
q-17 0 -17 19q0 18 17 18q18 0 18 -18zM210 482q0 -22 -21 -22t-21 22t21 22t21 -22zM272 400q-6 -20 -21 -71q-19 11 -64 42l23 71zM288 284q0 -20 -20 -20q-19 0 -19 20q0 21 19 21q20 0 20 -21zM303 241q0 -16 -17 -16q-16 0 -16 16q0 17 16 17q17 0 17 -17zM313 207
q0 -13 -12 -13q-13 0 -13 13t13 13q12 0 12 -13zM320 178q0 -10 -9 -10q-10 0 -10 10t10 10q9 0 9 -10zM248 389l-28 18l-9 -27l28 -20z" />
    <glyph glyph-name="W" unicode="W" horiz-adv-x="959" 
d="M684 549q-21 -1 -28 -5.5t-5 -21.5q9 -33 42 -121q8 31 34 107q0 26 -7.5 34t-35.5 7zM923 549q-49 2 -69 -48q-26 -68 -63 -176q-35 -103 -35 -110q-1 -31 26 -50q22 -17 50 -18v-54l-92 -36q-34 -17 -80 -69q-75 69 -75.5 69.5t-114.5 270.5q-26 -54 -52 -113
q-1 -31 26 -50q22 -17 50 -18v-54l-92 -36q-34 -17 -80 -69l-73 74l-168 450q-5 13 -20.5 31t-22.5 20.5t-26 6.5v16l20 -4q11 -5 31 -23q-6 17 -13 34q-11 15 -45 25v51h269l33 -46l-1 47l318 -1l37 -51v51h201l61 -57q1 -50 0 -63zM469 592q0 -11 -10 -11t-10 11
q0 12 10 12t10 -12zM482 562q0 -15 -12 -15q-13 0 -13 15q0 14 13 14q12 0 12 -14zM500 525q0 -19 -16 -19t-16 19q0 18 16 18t16 -18zM519 482q0 -22 -19 -22t-19 22t19 22t19 -22zM574 400q-5 -20 -19 -71q-17 11 -58 42l22 71zM588 284q0 -20 -17 -20q-18 0 -18 20
q0 21 18 21q17 0 17 -21zM604 241q0 -17 -15 -17t-15 17t15 17t15 -17zM954 508q-10 3 -18 3q-21 0 -44 -23l-96 -262q-2 -5 -2 -9q0 -13 16 -22q12 -6 24 -11q0 -4 -8 -7q-18 0 -31 11.5t-13 28.5q0 8 4 17q27 86 92 258q7 16 27 25t36 5v73l13 -9q3 -20 0 -78zM614 207
q0 -13 -11 -13t-11 13t11 13t11 -13zM624 178q0 -10 -9 -10t-9 10t9 10t9 -10zM864 131q-2 -13 0 -75l-39 -8q-58 -12 -140 -86l-10 10q22 24 73 59q25 17 64 30q20 6 39 11v64q5 -1 13 -5zM526 131q-2 -13 0 -75l-39 -8q-58 -12 -140 -86l-10 10q22 24 73 59q25 17 64 30
q20 6 39 11v64q5 -1 13 -5zM552 389l-25 18l-7 -27l25 -20zM309 528q3 -20 56 -130l34 83l-22 55q-19 27 -40 15h-16q-14 -1 -14 -13q0 -4 2 -10zM854 633v21l-179 1v-23q41 -9 55 -21q20 -18 20 -60q0 -20 -43 -153q-41 -129 -44 -129q-13 23 -53 108q-46 98 -67 152
q-8 18 -8 34q0 28 24 49q21 17 48 21v20l-288 1l4 -24q26 0 40 -23l14 -32q19 -46 39 -91q-89 -215 -91 -215q-17 30 -67 153q-53 128 -53 145q0 38 22 52q2 1 40 14l-1 21l-243 1v-25q20 -10 26 -16q10 -9 21 -32q61 -168 188 -504q58 79 147 101l-5 20q-8 0 -30 9
q-29 12 -29 27q0 5 89 216l162 -373q57 78 151 101l-5 20q-8 0 -30 9q-29 12 -29 27q35 103 107 316q17 50 27 62t41 20zM139 592q0 -11 -10 -11t-10 11q0 12 10 12t10 -12zM152 562q0 -15 -12 -15q-13 0 -13 15q0 14 13 14q12 0 12 -14zM170 525q0 -19 -16 -19t-16 19
q0 18 16 18t16 -18zM189 482q0 -22 -19 -22t-19 22t19 22t19 -22zM244 400q-5 -20 -19 -71q-17 11 -58 42l22 71zM258 284q0 -20 -17 -20q-18 0 -18 20q0 21 18 21q17 0 17 -21zM272 241q0 -17 -15 -17t-15 17t15 17t15 -17zM282 207q0 -13 -11 -13t-11 13t11 13t11 -13z
M291 178q0 -10 -9 -10t-9 10t9 10t9 -10zM222 389l-25 18l-7 -27l25 -20z" />
    <glyph glyph-name="X" unicode="X" horiz-adv-x="830" 
d="M803 514q-36 7 -47 7q-31 0 -74 -30l-29 -25q-33 -29 -47 -50l195 -261q-1 -4 -7 -4q-9 0 -69 81q-4 6 -87 114q-52 69 -52 73t38 40q34 31 50 44q39 32 88 32q14 0 28 -2v64l14 -10zM789 0h-375l-60 126v42q46 0 46 35q0 20 -25 49q-2 0 -4 -1l-46 -48q-18 -20 -18 -41
q0 -28 49 -70q2 -20 0 -92h-295q-53 106 -53 118v47q64 11 103 46q45 42 103.5 101.5t61.5 66.5q2 5 -20 33.5t-41 48.5q-9 8 -34 20q-32 14 -90 20q1 10 -2 13q3 3 17 2q20 -3 18 -3q16 0 36 -10t28 -12q-37 54 -87 60h-26q-6 8 -22 42t-17 40v38l340 -1l57 -49v49l249 1
l88 -60q-1 -37 -1 -57q-9 2 -19 2q-24 0 -47 -8q-18 -6 -20.5 -8.5t-67.5 -59.5q-61 -53 -61 -58q0 -2 163 -223q24 -33 51 -57q8 -5 21 -16v-126zM821 109v-67v-73h-400q0 5 6 14h383v135q11 0 11 -9zM394 -8v-24h-306l-7 14h297v48q11 -18 16 -38zM484 553q4 18 -23 21
q-32 3 -32 -10q0 -6 7 -12q7 -10 24 -25q4 4 12 13t12 13zM702 132v17q-14 4 -36 11q-38 14 -80 67q-34 44 -68 89q-89 102 -89 115q0 5 64 68t110 104q23 20 73 34v21h-226v-25q58 -12 58 -53q0 -17 -13 -35q-5 -8 -87 -84q-38 46 -80 101q-7 16 -7 29q0 36 47 46v20h-317
v-20q12 -2 24 -5q28 -9 44 -29q182 -220 177 -226q-44 -45 -127 -130q-47 -48 -82 -72q-13 -8 -30.5 -12.5t-33.5 -9.5v-22h245q3 18 0 22q-74 -6 -74 41q0 28 9.5 42.5t59.5 62.5t55 48q4 0 40 -46t50 -71q7 -12 7 -30q0 -39 -46 -47v-21h333zM233 599q3 -12 -9 -15
q-12 -2 -15 9q-2 12 9 15q12 3 15 -9zM260 567q3 -15 -12 -19q-15 -3 -18 12q-4 15 11 18q15 4 19 -11zM292 530q4 -19 -15 -23q-19 -5 -23 14q-5 19 14 24q19 4 24 -15zM329 485q5 -22 -17 -27q-23 -5 -28 17q-5 23 17 28q23 5 28 -18zM417 413q-3 -20 -9 -74q-21 7 -76 37
l5 73zM458 307q5 -20 -16 -25t-26 16t16 25q21 5 26 -16zM488 260q4 -17 -14 -21q-17 -4 -21 13t13 21q18 4 22 -13zM512 226q3 -14 -10 -17q-14 -3 -17 10q-3 14 10 17q14 3 17 -10zM529 195q2 -10 -8 -13q-10 -2 -13 8q-2 10 8 13q10 2 13 -8zM391 401l-29 11l-3 -25
l28 -13z" />
    <glyph glyph-name="Y" unicode="Y" horiz-adv-x="717" 
d="M570 143q-3 -4 -3 -7q-18 2 -35.5 29t-17.5 48q0 36 37 53h13q-9 -7 -18 -15q-17 -15 -17 -38q0 -16 14 -39t27 -31zM720 600v-60q-51 -17 -73 -47q-35 -47 -82 -118t-47 -76q0 -1 10 -12q-19 -10 -36 -35q-6 -10 -6 -35q0 -68 92 -109q-1 -31 1 -106l-375 -1
q-58 117 -58 121v45q33 0 58 16t30 35v73q0 29 -4 39q-14 25 -43 82q-10 20 -33 48q-20 24 -69 32l-2 14q23 0 53 -17q-4 6 -10 19q-15 34 -25.5 37.5t-33.5 3.5q-5 0 -55 81v41h324l78 -65v-41q-21 -16 -21 -26q0 -7 37 -58l43 62q2 7 2 14q0 28 -53 73l-2 41h200
q10 -6 31 -21t31 -21q-1 -19 1 -64q-38 -13 -63 -47q-128 -178 -128 -183q0 -3 16 -25q35 51 128 188q30 40 72 45v61zM614 -33l-390 1l-9 13h385v112l14 -6v-120zM618 639v11.5v5.5h-183v-17q28 -2 45.5 -22.5t17.5 -44.5q0 -25 -49 -98.5t-69 -85.5q-16 24 -56 94
q-50 85 -50 97q0 23 13 36q10 11 40 24v20h-299v-20q11 -2 25 -5q25 -9 53 -60q49 -80 137 -242q4 -8 4 -28v-88q-12 -43 -88 -63v-21h332v23q-46 7 -62 17q-21 12 -23 42v84l8 16q3 4 24 19q-33 23 -33 27q0 7 65 107q63 96 88 128q28 36 60 44zM175 618q2 -12 -10 -14
q-12 -1 -14 10q-2 12 10 14t14 -10zM199 584q3 -15 -13 -17q-15 -3 -17 13q-3 15 13 17q15 3 17 -13zM229 546q3 -20 -16 -23q-20 -3 -23 17q-3 19 16 22q20 3 23 -16zM263 498q3 -22 -19 -26q-23 -4 -27 19q-3 23 19 27q23 3 27 -20zM336 416q-4 -20 -14 -73q-20 8 -73 42
l11 70zM310 404l-28 14l-5 -27l27 -12zM346 301q-6 -19 -25 -12q-18 7 -11 25q6 18 25 12q18 -7 11 -25zM345 257q-5 -15 -21 -10q-15 6 -9 21q5 15 20 10q16 -6 10 -21zM343 222q-4 -12 -16 -7q-12 4 -8 16q5 11 16 7q12 -4 8 -16zM340 193q-3 -9 -12 -5q-9 3 -6 12t12 5
q9 -3 6 -12z" />
    <glyph glyph-name="Z" unicode="Z" horiz-adv-x="701" 
d="M691 587l-276 -356q41 28 81 55q56 36 87 36q6 0 78 -51q-19 -37 -32 -131q-11 -86 -8 -139h-551q-29 65 -60 123v43l184 230q-1 0 -32.5 -14t-49.5 -13v11q33 7 47 12q24 9 43 25q24 20 55 60q39 53 50 64q-50 -41 -99 -83q-67 -57 -105 -57q-11 0 -63 83l40 186h502
q38 -18 77 -45q0 -8 -1 -21l-326 -423q11 2 40 15l308 395q-2 9 -1 13h11zM657 -35l-555 -1l-8 10l1 4l547 -1l-1 22q-2 154 37 253l13 -8q-38 -115 -34 -279zM582 308q-47 -3 -118 -60q-82 -65 -110 -75q-36 -12 -152 -12l361 473v22h-470q-11 -56 -38 -167q9 -2 14 -2
t16 4q15 5 17 6q29 7 87 54q69 57 89 68q25 13 78 13h37l-2 -3q-1 -2 -115 -146l-253 -323v-29h518q14 116 41 177zM449 582q-11 -6 -17 5q-6 10 5 16t17 -4q5 -11 -5 -17zM425 548q-13 -8 -21 6q-7 13 6 21q14 7 21 -6q8 -14 -6 -21zM399 507q-17 -10 -27 7q-9 17 8 27
q17 9 27 -8q9 -17 -8 -26zM366 459q-20 -12 -31 9q-11 20 9 31t31 -9t-9 -31zM321 354q-20 -3 -74 -12q1 22 15 83l71 16zM231 285q-19 -10 -29 9q-11 19 8 29t29 -8q10 -19 -8 -30zM193 244q-15 -9 -24 7q-9 15 7 24t24 -7q9 -16 -7 -24zM167 211q-12 -7 -19 5q-6 13 6 19
q12 7 18 -5q7 -12 -5 -19zM142 186q-9 -5 -14 4q-5 10 4 15t14 -4q5 -10 -4 -15zM302 375l3 32l-25 -5l-5 -30z" />
    <glyph glyph-name="bracketleft" unicode="[" horiz-adv-x="226" 
d="M155 672v-30h-66v-730h66v-30h-153v790h153z" />
    <glyph glyph-name="backslash" unicode="\" horiz-adv-x="401" 
d="M22 671h54l290 -671h-54z" />
    <glyph glyph-name="bracketright" unicode="]" horiz-adv-x="226" 
d="M2 672v-30h66v-730h-66v-30h153v790h-153z" />
    <glyph glyph-name="asciicircum" unicode="^" horiz-adv-x="432" 
d="M366 712l-150 42l-153 -46l-3 6q91 66 130 90q15 15 24 14q5 0 22 -12l133 -88z" />
    <glyph glyph-name="underscore" unicode="_" horiz-adv-x="504" 
d="M-1 -68h505v-49h-505v49z" />
    <glyph glyph-name="grave" unicode="`" horiz-adv-x="325" 
d="M97 816q-5 5 -12 5q-21 0 -33 -33q-3 -8 -3 -17q0 -27 17 -27q8 0 202 -43l5 12q-79 44 -176 103z" />
    <glyph glyph-name="a" unicode="a" horiz-adv-x="750" 
d="M743 130v-165h-353l-10 14l345 1l1 142q-16 19 -33 38q-40 52 -60 111q-1 2 -34 83q-31 76 -103 262l22 -15l132 -328q24 -59 60 -106q17 -19 33 -37zM708 114q1 -1 -1 -114h-332l-54 131v27h21q37 0 41 32q0 3 2 15h-142q-9 -18 -9 -24q0 -26 18 -41t44 -11v-129h-230
q-11 28 -35 74t-24 44q2 17 0 47q61 -1 82 54l-33 67l1 38h92l51 98l-26 15l4 11l28 -13l10 19q-7 8 -30 19l-31 76v44q53 0 102 22q34 15 66 41l28 23q4 0 48 -18q48 -18 62 -28q19 -42 53 -124q18 -43 52 -125q16 -41 48 -125l28 -58q24 -45 66 -87zM332 -34h-249l-12 16
l250 1l-1 111l12 -32v-96zM627 144q-13 5 -40 20q-19 14 -48 82q-62 137 -186 412q-9 -12 -67 -46q-35 -19 -74 -26q-14 -2 -40 -9v-20q15 -1 48 -8q14 -5 28.5 -16.5t14.5 -15.5q0 -11 -106 -205h-83v-21h74l-18 -36t-33 -59q-16 -41 -76 -45v-20h182v19q-15 1 -26 5
q-26 11 -29 37q-6 40 30 97l189 -1q23 -51 25 -68q2 -9 2 -17q0 -40 -31 -52q-18 -7 -31 -3v-17h295v13zM327 575q0 -11 -11 -11t-11 11t11 11t11 -11zM342 546q0 -14 -14 -14t-14 14t14 14t14 -14zM361 511q0 -18 -17 -18q-18 0 -18 18t18 18q17 0 17 -18zM383 470
q0 -21 -21 -21t-21 21t21 21t21 -21zM444 391q-6 -19 -21 -69q-18 11 -64 41l24 68zM460 280q0 -20 -19 -20q-20 0 -20 20q0 19 20 19q19 0 19 -19zM475 238q0 -16 -16 -16q-17 0 -17 16q0 17 17 17q16 0 16 -17zM486 205q0 -12 -13 -12q-12 0 -12 12q0 13 12 13
q13 0 13 -13zM359 312h-173q8 10 94 183q29 -62 79 -183zM493 177q0 -9 -10 -9q-9 0 -9 9q0 10 9 10q10 0 10 -10zM420 380l-28 18l-8 -26l27 -19zM332 328l-21 59l-29 -58z" />
    <glyph glyph-name="b" unicode="b" horiz-adv-x="728" 
d="M718 202q0 -73 -42 -134q-49 -71 -135 -94q-36 -9 -71 -9h-370q-9 5 -9 14h356q166 1 226 111q30 56 30 107q0 49 -27 94q-4 7 -37 48q13 12 34 39q21 37 21 87q0 59 -34 107.5t-91 61.5q95 -83 95 -167q0 -72 -65 -121q31 -23 51.5 -66t20.5 -90q0 -23 -5 -44
q-16 -67 -76.5 -107.5t-131.5 -40.5q-12 0 -23 1h-360l-60 121v46q6 -1 49 24q11 7 21 31q9 21 9 33v206q0 28 -34 48q1 2 -2 7q-2 2 2 2q1 0 28 -18q3 3 3 13q0 18 -15 25l-28 8q-39 71 -39 76v49h365q73 0 78 -1q35 -4 97 -26q2 2 7 10q30 -9 42 -13q22 -9 39 -22
q36 -26 55 -71.5t18 -88.5q-1 -22 -3 -32q-4 -17 -17 -48q-3 -7 -17.5 -23t-12.5 -18q58 -59 58 -135zM594 267q0 63 -44 97q-37 30 -117 43q-5 4 -5 7q5 5 8 5q61 3 101 36t40 84q0 62 -67 93q-50 23 -121 23h-365v-15q38 -3 62 -32t26 -78q-1 -118 0 -284q1 -32 -23.5 -60
t-58.5 -35v-20l299 -1q117 0 162 13q103 28 103 124zM468 603q-4 -9 -12 -6q-9 3 -6 12t12 6t6 -12zM486 572q-4 -12 -16 -7q-11 4 -7 16q4 11 16 7t7 -16zM501 535q-5 -16 -21 -10q-15 5 -9 21q5 15 20 9q16 -5 10 -20zM504 489q-7 -19 -25 -12t-12 25q7 18 25 12
q19 -7 12 -25zM414 532q0 -44 -27.5 -73t-73.5 -29q-6 0 -60 1v200q61 0 78 1q34 1 60 -38q23 -33 23 -62zM521 327q7 -18 -11 -25q-19 -6 -25 12q-7 18 11 25q19 7 25 -12zM523 279q5 -14 -10 -20q-16 -5 -21 9q-5 15 12 22q13 4 19 -11zM513 239q4 -11 -7 -16
q-12 -4 -16 8q-5 12 7 16t16 -8zM494 209q4 -9 -5 -13q-9 -3 -12 6q-4 9 5 12t12 -5zM440 280q0 -53 -18 -80q-21 -30 -74 -39q-22 -4 -27 -4h-68v243h30q157 2 157 -120zM222 401l-47 -63l-41 62l42 59zM404 525q0 6 -19 6v-60q7 16 15 33q3 16 4 21zM397 539l-7 16
q-14 10 -35 10q-13 0 -13 -1v-118l14 6q5 3 17 12v77q12 4 24 -2zM425 249q1 11 -21 12q-9 1 -21 0v-77l7 5q10 6 17 14q16 19 18 46zM425 267l-4 12q-1 8 -23.5 20t-35.5 12h-22l-1 -142q11 3 32 9v95h32q4 0 12.5 -3t9.5 -3zM196 398l-19 24l-17 -23l18 -26zM169 191
q4 9 13 6q8 -3 5 -12t-12 -6q-9 4 -6 12zM167 222q4 12 16 8q12 -5 7 -17q-4 -11 -16 -7q-11 4 -7 16zM163 260q5 15 20 9q16 -5 10 -21q-6 -15 -21 -9q-15 5 -9 21zM158 306q7 18 25 11t12 -25q-7 -18 -25 -11q-19 7 -12 25zM180 607q-3 -9 -12 -6q-9 4 -5 13q3 9 12 5
q9 -3 5 -12zM183 576q-5 -11 -16 -7q-12 4 -8 16q5 12 16 7q12 -4 8 -16zM187 539q-6 -16 -21 -10t-9 21q5 15 21 10q15 -6 9 -21zM192 493q-7 -19 -25 -12q-19 7 -12 25q7 19 25 12t12 -25z" />
    <glyph glyph-name="c" unicode="c" horiz-adv-x="670" 
d="M667 309q-4 -3 -15 -3q-61 0 -134 35q-83 41 -106 99h11q63 -87 171 -113q12 -3 31 -6l21 -1q-8 26 -20 91q-14 55 -30 162q11 2 13 -9q5 -33 30 -155q13 -63 28 -100zM626 267q0 -26 -34 -99q-37 -79 -118 -126q-71 -42 -143 -42q-143 0 -239 122q-89 114 -89 262
q0 127 67 209q73 88 199 88q41 0 82 -18t51 -18q21 0 51 24l105 -74q12 -62 22 -109q24 -112 34 -129q-54 -1 -134 48q-59 37 -90 71q-11 11 -34 43q-20 26 -20 25q-27 0 -27 -17v-315q0 -15 9 -33q11 -24 27 -24q55 0 98 56q39 53 37 107q14 4 69 -3q4 0 40.5 -21.5
t36.5 -26.5zM659 243q0 -38 -44 -110q-60 -100 -140 -141q-60 -30 -144 -30q-54 0 -100 15q-51 16 -100 56q-74 60 -90 132q3 2 9 8q12 -78 106 -140q88 -58 172 -58q66 0 96 9q88 28 154 115q57 77 66 152q1 1 2 1q3 0 8 -3.5t5 -5.5zM335 555q-2 4 -12.5 15t-11.5 11
q-40 -3 -40 -46v-261q0 -60 1 -61q23 -54 37 -48q-14 29 -14 50v306q0 13 8.5 24.5t20.5 11.5q6 0 11 -2zM531 277l4 28h-40q-3 -44 -22 -80q-21 -40 -68 -65q-42 -22 -81 -22q-19 0 -42 3q-47 8 -78 57q-27 43 -27 87l-1 246q0 36 20 70q23 41 58 41q50 0 97 -62
q62 -81 103 -104q27 -15 32 -17q20 -10 41 -11q2 0 2 2q0 4 -6 13q-10 33 -22 82l-23 86q-16 17 -22 17q1 0 -20.5 -9.5t-37.5 -9.5q-3 0 -58 22q-35 15 -78 15q-119 0 -184 -87q-58 -78 -58 -198q0 -123 72.5 -198t196.5 -75q66 0 129 31q80 37 103 105q10 27 10 33z
M53 391l47 -64l43 63l-44 61zM81 390l18 23l17 -24l-17 -25zM148 597q3 -9 12 -6q9 4 6 13t-12 6q-10 -4 -6 -13zM121 566q4 -12 16 -8q12 5 8 17q-5 12 -17 7q-12 -4 -7 -16zM99 528q6 -16 22 -10q15 5 10 21q-6 16 -22 10q-15 -6 -10 -21zM86 481q7 -19 26 -12q18 7 12 25
q-7 19 -26 12t-12 -25zM160 175q3 9 12 6q10 -3 6 -12q-3 -9 -12 -6t-6 12zM131 207q4 12 16 7q12 -4 8 -16q-5 -12 -17 -8q-12 5 -7 17zM106 245q5 15 21 10q15 -6 10 -21q-6 -16 -22 -10q-15 5 -9 21zM92 292q7 19 26 12t12 -26q-7 -18 -26 -12q-18 7 -12 26zM257 -35z
" />
    <glyph glyph-name="d" unicode="d" horiz-adv-x="703" 
d="M694 333q2 -253 -227 -343q-60 -24 -115 -24h-263l-5 13h266q162 12 251 123q78 97 78 230q0 74 -28 145q-35 87 -104 139l-5 -5q115 -111 115 -265q0 -132 -68 -220q-78 -102 -232 -123q-17 -3 -70 -4q-68 -1 -216 0q-63 115 -62 122v50q26 0 54 26.5t28 62.5l1 222
q0 20 -42 29l-4 14q21 -9 43 -19q-1 9 -2 19q-15 31 -56 39l-21 74v33q60 0 57 0h75q218 -1 212 -1q53 0 119 -21q16 -6 35 -18q14 -8 21 -6q2 -1 3 8q80 -41 125 -139q37 -80 37 -161zM569 395q0 67 -26 132q-35 87 -101 113q-52 20 -117 18h-303l1 -17q26 -7 53 -15
q32 -16 31 -55v-317q0 -29 -25.5 -60t-58.5 -35v-25h306q113 0 178 73q62 70 62 188zM410 428v-147q-3 -50 -39 -83t-97 -33q-20 0 -28 4v462h44q39 0 69 -19q37 -23 46 -78q5 -25 5 -106zM397 426q0 73 -1 82q-5 48 -29 67q-16 14 -37 14h-20l2 -407l23 7v371q4 3 12 2
q14 -2 12 -2q9 -6 20 -15q2 -3 2 -9l-8 7t-18 7q-4 0 -9 -1v-354q51 28 51 81v150zM532 401l-46 -63l-42 62l43 59zM507 395l-19 27l-17 -23l18 -26zM433 603q-3 -9 -12 -6t-6 12q4 9 13 6t5 -12zM462 572q-4 -12 -16 -7q-12 4 -8 16q5 11 16 7q12 -4 8 -16zM487 535
q-6 -16 -21 -10q-15 5 -10 21q6 15 21 9q15 -5 10 -20zM500 489q-7 -19 -25 -12q-19 7 -12 25t25 12q18 -7 12 -25zM427 189q-3 9 -12 6t-6 -12q4 -9 13 -6t5 12zM456 220q-4 12 -16 7q-12 -4 -8 -16q5 -11 16 -7q12 4 8 16zM481 257q-6 16 -21 10q-15 -5 -10 -21
q6 -15 21 -9q15 5 10 20zM494 303q-7 19 -25 12q-19 -7 -12 -25t25 -12q18 7 12 25zM219 401l-46 -63l-42 62l43 59zM194 398l-19 24l-17 -23l18 -26zM167 191q3 9 12 6t6 -12q-4 -9 -12 -6q-9 4 -6 12zM165 222q4 12 16 8q11 -5 7 -17q-4 -11 -16 -7t-7 16zM160 260
q6 15 21 9q15 -5 10 -21q-6 -15 -21 -9q-16 5 -10 21zM156 306q7 18 25 11t11 -25t-25 -11t-11 25zM178 607q-3 -9 -12 -6q-9 4 -6 13t12 5q9 -3 6 -12zM180 576q-4 -11 -16 -7q-11 4 -7 16t16 7q12 -4 7 -16zM185 539q-6 -16 -21 -10t-10 21q6 15 21 10q15 -6 10 -21z
M189 493q-7 -19 -25 -12t-11 25q7 19 25 12t11 -25z" />
    <glyph glyph-name="e" unicode="e" horiz-adv-x="683" 
d="M654 346q-1 0 -10 1q-65 2 -155 43v-96q36 21 75 21q17 -9 86 -54q-52 -121 -70 -260l-511 -1l-64 121q-4 42 0 43q73 13 73 80v239q-14 16 -41 25l1 12q4 0 20 -8.5t18 -8.5v13q0 17 -41 32l-32 83v40h498l75 -61q5 -51 10 -91q12 -97 24 -122q-32 0 -75 14.5t-68 33.5
q-37 34 -75 68q-56 47 -81 47v-105q1 -9 5 -9q6 0 17 30h34q21 -18 82 -69v-132q11 0 25 13l1 121q77 -39 164 -48q-31 136 -37 235l14 -7q6 -59 21 -144q7 -38 14 -75zM680 234q-14 -31 -38 -126q-24 -98 -28 -144h-529q0 1 -5 7t-5 8q0 1 2 1q-19 0 254 -2q168 -1 271 2
q1 4 2 11q18 146 65 251q3 0 11 -8zM557 297h-19q-6 1 -42 -14q-16 -6 -109 -68q-78 -53 -114 -53h-48v222l40 -1q41 0 47 -2q21 -9 26 -49l22 -2v132h-20q-5 -33 -30 -41q-3 -1 -35 -3q-10 -1 -50 0v204q5 10 15 10q84 0 191 -113q10 -10 35.5 -23t32 -13t27.5 -3
q-26 78 -35 177h-474v-18q24 -5 46 -22q28 -23 28 -53v-310q0 -95 -77 -100v-26h484q12 88 59 169zM406 249q-38 34 -87 74l-1 -128q26 6 50 24zM203 401l-46 -63l-41 62l42 59zM178 398l-19 24l-17 -23l18 -26zM151 191q4 9 12 6q9 -3 6 -12t-12 -6q-9 4 -6 12zM149 222
q4 12 16 8q12 -5 7 -17q-4 -11 -16 -7q-11 4 -7 16zM144 260q6 15 21 9q16 -5 10 -21q-6 -15 -21 -9q-15 5 -10 21zM140 306q7 18 25 11t12 -25q-7 -18 -26 -11q-18 7 -11 25zM162 607q-3 -9 -12 -6q-9 4 -6 13q4 9 13 5q9 -3 5 -12zM165 576q-5 -11 -16 -7q-12 4 -8 16
q5 12 16 7q12 -4 8 -16zM169 539q-6 -16 -21 -10t-9 21q5 15 21 10q15 -6 9 -21zM174 493q-7 -19 -26 -12q-18 7 -11 25q7 19 25 12t12 -25z" />
    <glyph glyph-name="f" unicode="f" horiz-adv-x="643" 
d="M467 249l1 160q77 -39 164 -48q-31 136 -36 235l14 -7q5 -59 20 -144q7 -38 14 -75l3 -24q-1 0 -10 1q-65 2 -155 41v-154h-87l-17 15h89zM430 -32h-351q-3 3 -8 13h346v109l13 -6v-116zM288 385q36 4 43 -53l22 1v129h-19q-5 -32 -44 -41q-67 -2 -72 -1l-1 202
q5 10 16 10q85 0 191 -113q10 -10 36 -23t32 -13t27 -3q-25 76 -34 178l-475 -1v-18q24 -5 46 -22q28 -23 28 -53l1 -301q0 -89 -65 -105q-2 -2 -10 -3v-24h298v24q-55 2 -74 36q-14 25 -13 82l1 113zM330 272l13 -13v-114q18 -16 53 -46l-1 -99h-334l-63 122q-5 34 -2 42
q74 6 74 102l1 217q-13 16 -40 25v12q4 0 20 -9t18 -10v15q0 17 -40 32l-33 83v40l496 1l78 -62q4 -51 9 -91q12 -97 24 -122q-32 0 -75 14.5t-67 33.5l-76 68q-55 47 -81 47v-105q2 -4 4 -4q6 0 18 28h34q20 -12 82 -58v-151h-80l-51 52q0 -17 -1 -106q2 -15 5 -30
q4 -22 15 -32v118zM195 401l-47 -63l-41 62l42 59zM169 398l-19 24l-17 -23l19 -26zM142 191q4 9 13 6t5 -12q-3 -9 -12 -6q-9 4 -6 12zM140 222q4 12 16 8q12 -5 8 -17q-5 -11 -17 -7q-11 4 -7 16zM136 260q5 15 21 9q15 -5 9 -21q-6 -15 -21 -9q-15 5 -9 21zM131 306
q7 18 25 11q19 -7 12 -25t-25 -11q-19 7 -12 25zM153 607q-3 -9 -12 -6q-9 4 -5 13q3 9 12 5q9 -3 5 -12zM156 576q-5 -11 -16 -7q-12 4 -8 16q5 12 16 7q12 -4 8 -16zM160 539q-5 -16 -21 -10q-15 6 -9 21t21 10q15 -6 9 -21zM165 493q-7 -19 -25 -12q-19 7 -12 25
q7 19 25 12q19 -7 12 -25z" />
    <glyph glyph-name="g" unicode="g" horiz-adv-x="690" 
d="M678 320h-47l-7 12h21h15q-1 -1 -1 13q-21 113 -23 121q-14 84 -15 124l12 -11q2 -47 20 -137q12 -61 25 -122zM649 288q1 -45 -1 -57q-5 1 -24 0q-62 -1 -62 -96q0 -53 18 -119h-45q-6 8 -21 23q-14 10 -44 10q-45 -10 -91 -20q-51 -11 -80 -11q-21 0 -36 5
q-119 28 -190 148q-62 104 -62 222q0 125 66 205q71 87 195 87q8 0 41 -5q39 -6 54 -11q38 -14 64 -14q3 0 22 9.5t23 9.5h24l92 -64q3 -19 7 -59q1 -31 14 -93t27 -101q-1 -1 -30 -1q-35 0 -95 32q-52 28 -74 51q-36 40 -61 76q-20 31 -28 39q-16 18 -33 19
q-14 1 -23.5 -11.5t-10 -24.5t-0.5 -136v-52l29 -3v172q-2 29 16 27q12 -1 98 -118q15 -21 98 -78h48q26 -21 75 -61zM680 181q-36 4 -42 4q-26 0 -34 -27q-2 -9 -2 -38q0 -48 24 -148h-94q-19 36 -53 36q-27 0 -46 -6q-39 -13 -118 -18q-81 -5 -165.5 55.5t-101.5 139.5
q3 2 9 8q6 -40 56 -96q63 -69 148 -90q66 -14 124 1q80 20 94 20q44 0 60 -38h69q-4 21 -11 60q-9 77 -9 75q0 46 15 69q7 9 32 9q13 0 36 -3q1 11 -1 35q-2 30 -2 41l12 -7v-82zM500 349q-53 32 -99 90q-30 41 -61 82q-4 5 -8 5q-7 0 -6 -15l1 -162h173zM571 313v21h-321
v-23q37 -4 49 -10q37 -19 36 -73q0 -14 -5 -39q-15 -34 -54 -34q-45 8 -72 56q-23 41 -23 86l-1 241q0 35 20 68q22 40 56 40q44 1 91 -43q40 -45 81 -90q51 -54 95 -68q10 -4 33 -8q-10 27 -25 80q-3 17 -30 140q-17 1 -23 1l-18.5 -10t-31.5 -10q-12 0 -62.5 17t-98.5 17
q-117 0 -181 -88q-57 -77 -57 -196q0 -120 70.5 -192.5t191.5 -72.5q27 0 61 10q54 16 68 16q18 0 28.5 -12.5t36.5 -12.5q16 0 23 4q-17 70 -17 88q0 48 39 80q10 8 19 10q15 4 22 7zM322 209q-2 42 -36 48v-90q10 0 23.5 11.5t12.5 30.5zM171 609q3 -9 -6 -12t-12 6t5 12
q9 3 13 -6zM150 581q4 -12 -8 -16q-12 -5 -16 7t8 16q11 4 16 -7zM437 288q-7 -18 -25 -11q-19 7 -12 25t25 11q19 -7 12 -25zM435 244q-6 -15 -21 -9q-15 5 -9 21q5 15 21 9q15 -5 9 -21zM136 546q5 -16 -10 -21q-15 -6 -21 10q-5 15 10 20q15 6 21 -9zM432 209
q-4 -11 -16 -7q-11 4 -7 16t16 8q12 -5 7 -17zM129 502q7 -18 -12 -25q-18 -7 -25 12q-6 18 12 25q18 6 25 -12zM429 181q-3 -9 -12 -6q-9 4 -6 12q4 9 13 6t5 -12zM148 400l-42 -62l-46 63l45 58zM135 290q-7 -18 -25 -12q-18 7 -12 25q7 19 25 12q19 -7 12 -25zM142 246
q-6 -15 -21 -9q-15 5 -10 20q6 16 21 10q15 -5 10 -21zM160 211q-5 -11 -16 -7q-12 4 -8 16t16 7q12 -4 8 -16zM183 183q-4 -9 -13 -6q-8 3 -5 12t12 6t6 -12zM121 399l-17 23l-16 -23l17 -25z" />
    <glyph glyph-name="h" unicode="h" horiz-adv-x="732" 
d="M729 542q-39 -3 -51 -21q-9 -14 -9 -52l-1 -309q-1 0 -8 10.5t-8 11.5v312q0 61 62 61v47l15 -21v-39zM69 0l-63 122q-5 34 -3 42q74 6 74 99l-1 222q-11 14 -38 23l1 12q4 0 20 -9t18 -10q1 7 1 14q0 16 -42 33l-32 83v40h627l58 -50v-36q-64 -2 -64 -86v-197
q0 -95 5 -114q10 -43 61 -66q0 -18 1 -122h-623zM388 441l-1 111q-18 7 -26 7q-20 0 -22 -51q-1 -41 -1 -51q-5 0 -11 -1q-2 -2 -2 49q0 64 38 64q10 0 23 -4q-12 25 -42 25q-11 0 -22 -5q-23 -10 -17 -86v-58q83 -1 83 0zM620 131l-1 19q-80 2 -80 99v313q-1 32 19.5 54
t56.5 22l-1 21h-286v-20q27 -4 50.5 -27.5t23.5 -47.5v-142h-173v66q1 42 0 72q0 32 20 55t56 23l-1 21h-286v-20q23 -5 47 -25q29 -26 29 -56l-2 -295q0 -101 -74 -109v-23l287 1l-1 19q-75 3 -75 97v130h173v-115q0 -103 -74 -111l1 -20zM389 300v19h-83v-99
q-5 -46 18 -56v136h65zM389 286h-53v-121q51 8 53 96q0 -5 0 25zM713 114q7 0 15 -9v-140h-641l-10 14l636 1v134zM205 401l-47 -63l-41 62l42 59zM179 398l-19 24l-17 -23l18 -26zM152 191q4 9 13 6q8 -3 5 -12t-12 -6q-9 4 -6 12zM150 222q4 12 16 8q12 -5 7 -17
q-4 -11 -16 -7q-11 4 -7 16zM145 260q6 15 21 9q16 -5 10 -21q-6 -15 -21 -9q-15 5 -10 21zM141 306q7 18 25 11t12 -25q-7 -18 -26 -11q-18 7 -11 25zM163 607q-3 -9 -12 -6q-9 4 -6 13q4 9 13 5q9 -3 5 -12zM166 576q-5 -11 -16 -7q-12 4 -8 16q5 12 16 7q12 -4 8 -16z
M170 539q-6 -16 -21 -10t-9 21q5 15 21 10q15 -6 9 -21zM175 493q-7 -19 -26 -12q-18 7 -11 25q7 19 25 12t12 -25zM516 401l-47 -63l-41 62l42 59zM490 398l-19 24l-17 -23l18 -26zM463 191q4 9 13 6q8 -3 5 -12t-12 -6q-9 4 -6 12zM461 222q4 12 16 8q12 -5 7 -17
q-4 -11 -16 -7q-11 4 -7 16zM456 260q6 15 21 9q16 -5 10 -21q-6 -15 -21 -9q-15 5 -10 21zM452 306q7 18 25 11t12 -25q-7 -18 -26 -11q-18 7 -11 25zM474 607q-3 -9 -12 -6q-9 4 -6 13q4 9 13 5q9 -3 5 -12zM477 576q-5 -11 -16 -7q-12 4 -8 16q5 12 16 7q12 -4 8 -16z
M481 539q-6 -16 -21 -10t-9 21q5 15 21 10q15 -6 9 -21zM486 493q-7 -19 -26 -12q-18 7 -11 25q7 19 25 12t12 -25z" />
    <glyph glyph-name="i" unicode="i" horiz-adv-x="431" 
d="M424 542q-39 -3 -50.5 -19t-11.5 -54v-297q-2 0 -9 10.5t-8 11.5v300q0 61 62 61v57l17 -21v-49zM383 0h-311l-63 122q-5 34 -2 42q73 6 73 99v221q-12 15 -38 24v12q4 0 20 -9t18 -10v15q0 17 -40 32l-33 83v40h159h158l58 -50v-36q-61 -2 -64 -86v-197q0 -96 4 -112
q10 -41 61 -69q1 -102 0 -121zM421 -35l-332 -1l-9 15h326v135q7 0 15 -9v-140zM319 131l-1 19q-86 2 -86 99v313q-2 31 19 53.5t57 22.5v21h-287l1 -20q23 -5 45 -22q28 -23 28 -53l1 -301q0 -103 -75 -111v-21h298zM209 401l-47 -63l-41 62l42 59zM183 398l-19 24l-17 -23
l19 -26zM157 191q3 9 12 6t5 -12q-3 -9 -12 -6q-9 4 -5 12zM154 222q5 12 16 8q12 -5 8 -17q-5 -11 -16 -7q-12 4 -8 16zM150 260q5 15 21 9q15 -5 9 -21q-5 -15 -21 -9q-15 5 -9 21zM145 306q7 18 25 11q19 -7 12 -25t-25 -11t-12 25zM168 607q-4 -9 -13 -6q-9 4 -5 13
q3 9 12 5q9 -3 6 -12zM170 576q-4 -11 -16 -7t-7 16q4 12 16 7q11 -4 7 -16zM174 539q-5 -16 -21 -10q-15 6 -9 21t21 10q15 -6 9 -21zM179 493q-7 -19 -25 -12t-12 25q7 19 25 12q19 -7 12 -25z" />
    <glyph glyph-name="j" unicode="j" horiz-adv-x="623" 
d="M581 536q-44 -7 -58.5 -19t-14.5 -33q0 -6 1.5 -22t1.5 -27v-260q0 -3 -9 -40q-18 -78 -103 -116q-65 -29 -146 -29q-59 0 -115 24q-73 32 -103 95q-19 40 -26 110q-5 55 21 95q30 45 87 46q46 1 76 -16q32 -20 61 -68v238l-54 36l-48 69v52h360l68 -53zM615 507
q-5 -3 -38 -15q-24 -8 -29 -19v-303q0 -104 -105 -169q-89 -56 -181 -50q-55 3 -108 24q-68 27 -99 73l5 9q36 -45 98 -70q54 -21 112 -21q90 0 166 47q95 58 97 161q0 -8 0 312q1 8 32 19q17 7 35 13l1 89l14 -13q-3 -58 0 -87zM508 630q6 12 -1 26h-340v-26q39 -6 56 -17
q46 -29 46 -102v-240q-9 -117 -111 -117q-82 0 -93 52q33 -14 51 -14q23 0 37 28q11 21 11 43q0 27 -14 49q-18 28 -49 28q-38 0 -57 -41q-13 -28 -13 -58q0 -70 74 -102q50 -22 115 -22q166 0 183 73q9 35 9 27v251q0 83 6 100q16 50 90 62zM386 401l-47 -63l-41 62l42 59z
M360 398l-19 24l-17 -23l19 -26zM321 191q3 9 12 6t5 -12q-3 -9 -12 -6q-9 4 -5 12zM326 222q5 12 16 8q12 -5 8 -17q-5 -11 -16 -7q-12 4 -8 16zM327 260q5 15 21 9q15 -5 9 -21q-6 -15 -21 -9q-15 5 -9 21zM322 306q7 18 25 11q19 -7 12 -25t-25 -11q-19 7 -12 25z
M344 607q-4 -9 -13 -6q-9 4 -5 13q3 9 12 5q9 -3 6 -12zM347 576q-4 -11 -16 -7t-8 16q5 12 17 7q11 -4 7 -16zM351 539q-5 -16 -21 -10q-15 6 -9 21t21 10q15 -6 9 -21zM356 493q-7 -19 -25 -12q-19 7 -12 25q7 19 25 12q19 -7 12 -25z" />
    <glyph glyph-name="k" unicode="k" horiz-adv-x="800" 
d="M797 124l-1 -160l-711 -1l-6 16h705q2 128 0 134q-84 154 -195 355q21 19 59 50q37 26 97 24v58l12 1l1 -74q-11 3 -27 3q-42 0 -83 -28q-12 -8 -41 -36l164 -294q10 -16 26 -48zM765 115q4 -83 -2 -114h-697l-63 127v39q25 1 48.5 19t33.5 51l-1 237l-44 33l-5 22
l48 -31l1 14l-58 52l-23 60v48h338l34 -26v26l277 -1l74 -71v-34q-47 4 -84 -17l-88 -72l127 -229zM408 535q-12 13 -29 13q-52 0 -45 -43v-52q25 22 74 82zM694 131v18q-19 3 -60 19q-44 28 -89 112l-80 150q-31 49 -31 56q0 4 42 45q53 52 70 71q36 41 89 37l-1 18
l-242 -1l1 -12q62 -13 62 -53q0 -32 -16 -50q-106 -122 -189 -203l-7 8v218q0 66 93 71v21h-320v-17q83 -3 83 -114v-289q-4 -67 -83 -81v-26h312q10 3 10 15q0 4 -1.5 7.5t-1.5 4.5h-8.5h-8.5q-39 0 -59 38q-16 30 -16 73q0 17 3 21q77 83 83 83q13 0 89 -140q7 -12 7 -27
q0 -41 -56 -55v-18h325zM410 202q0 15 -19 44q-15 25 -27 35q-19 -10 -24 -26q-2 -6 -2 -27q0 -60 29 -60q14 0 28.5 10t14.5 24zM446 403l-8 -71l-72 26l11 73zM174 598q-3 -9 -12 -5q-9 3 -6 12q4 9 13 5q8 -3 5 -12zM478 290q3 -19 -16 -23q-19 -3 -22 16t16 23
q19 3 22 -16zM176 568q-4 -12 -16 -8q-11 5 -7 16q5 12 16 8q12 -5 7 -16zM498 251q3 -16 -13 -18q-16 -3 -18 13q-3 16 13 19q16 2 18 -14zM513 220q2 -12 -10 -14t-14 10t10 14t14 -10zM525 194q1 -9 -8 -11q-9 -1 -11 8q-1 9 8 11q9 1 11 -8zM181 531q-6 -15 -21 -10
q-15 6 -9 21q5 15 20 9q15 -5 10 -20zM185 485q-7 -18 -25 -11q-18 6 -11 24q7 19 25 12t11 -25zM215 394l-46 -63l-41 62l42 59zM188 286q-7 -18 -25 -11t-11 25t25 11q18 -6 11 -25zM187 243q-6 -15 -21 -9q-15 5 -10 20q6 15 21 10q15 -6 10 -21zM184 209q-4 -12 -16 -8
q-12 5 -7 16q4 12 16 7q11 -4 7 -15zM181 180q-4 -9 -12 -5q-9 3 -6 12t12 5q9 -3 6 -12zM425 389l-27 11l-5 -29l29 -10zM190 391l-19 25l-17 -24l18 -25z" />
    <glyph glyph-name="l" unicode="l" horiz-adv-x="671" 
d="M413 542q-39 -3 -52.5 -18.5t-13.5 -54.5v-262l-14 -9l-1 297q11 59 66 60v51l15 -21v-43zM645 261q-52 -121 -70 -260h-511l-64 125l-1 37q36 9 56 36q18 24 17 53q-5 158 -1 232q-12 15 -39 24l1 12q4 0 20 -9t18 -10v15q0 17 -41 32l-32 83v39h159h158l58 -49v-36
q-62 -2 -65 -86v-320q19 -2 62 33q70 56 87 67q56 36 102 36q17 -9 86 -54zM673 234q-14 -30 -37 -126.5t-27 -143.5h-529q0 3 -8 15l525 1q1 4 2 11q18 146 65 251q3 0 9 -8zM553 302q-43 -3 -97 -39q-42 -33 -86 -67t-68 -34l-79 -1v400q-2 31 19 54t57 23l-1 21h-286v-20
q67 -13 74 -91v-294q0 -82 -77 -100v-21h484q11 84 60 169zM155 607q-3 -9 -12 -6q-9 4 -6 13q4 9 13 5q9 -3 5 -12zM158 576q-5 -11 -16 -7q-12 4 -8 16q5 12 16 7q12 -4 8 -16zM163 539q-6 -16 -21 -10t-9 21q5 15 21 10q15 -6 9 -21zM169 493q-7 -19 -26 -12
q-18 7 -11 25q7 19 25 12t12 -25zM193 401l-46 -63l-41 62l42 59zM170 291q-7 -19 -25 -12t-12 25q7 18 25 12q19 -7 12 -25zM169 247q-6 -15 -21 -10q-15 6 -10 21q6 15 21 10q15 -6 10 -21zM165 212q-4 -12 -16 -7q-11 4 -7 16q4 11 16 7t7 -16zM161 183q-3 -9 -12 -5
q-9 3 -5 12q3 9 12 5q9 -3 5 -12zM166 400l-18 23l-17 -23l18 -26z" />
    <glyph glyph-name="m" unicode="m" horiz-adv-x="886" 
d="M881 508h-39q-28 0 -28 -32l1 -265q0 -27 23 -49q17 -17 36 -23q-1 -117 0 -167h-361l-4 12h351v145q-61 30 -61 87v265q0 35 26 40q12 3 23 2q10 -1 20 0v74l13 -13v-76zM850 547q-56 0 -69 -35q-5 -13 -5 -70l3 -215q1 -71 64 -104v-123l-347 -1q-2 2 -15 32
q-25 -19 -70 -62q-3 2 -8 9q31 37 72 62q-3 7 -13 22q-21 -9 -76 -66l-56 115q-24 65 -75 186q0 2 0 -145l-12 14v156q-5 18 -22 54v-202q-1 -13 34 -50q7 -7 33 -38v-86h-221q-63 116 -62 123v43q82 17 82 101v217q-1 11 -12 16l-22 10l-3 15q20 -9 35 -21v15q0 25 -41 30
l-39 80v44l275 -1l115 -67l29 -72l85 138h262l79 -56v-68zM317 -26h-236l-6 10h233l-1 90l10 -17v-83zM532 272l-1 161q-44 -68 -44 -71q0 -5 10 -30q14 -32 17 -43q13 -17 18 -17zM778 133l1 25q-46 2 -73 37q-24 31 -24 73v296q0 33 26 55q23 20 54 22v17h-242l-152 -250
l-96 247l-252 1l-1 -19q41 -8 63 -41q19 -28 19 -62v-283q-1 -78 -83 -93q0 -10 1 -19q0 -8 0 -7h188l-1 23q-79 9 -79 113v362q5 5 7 5l205 -506q49 64 145 94q0 14 -1 15q-63 20 -80 68q-22 60 -22 61l164 265h4v-366q0 -102 -101 -112l-1 -22zM623 607q-3 -9 -12 -6
q-9 4 -6 13q4 9 13 5q8 -3 5 -12zM625 576q-4 -11 -16 -7q-11 4 -7 16t16 7q12 -4 7 -16zM631 539q-6 -16 -21 -10t-10 21q6 15 21 10q16 -6 10 -21zM636 493q-6 -19 -25 -12q-18 7 -11 25q7 19 25 12t11 -25zM661 408l-46 -63l-42 62l43 59zM638 298q-7 -19 -25 -12
q-19 7 -12 25t25 12q18 -7 12 -25zM637 254q-6 -15 -21 -10q-16 6 -10 21t21 10q15 -6 10 -21zM633 219q-4 -12 -16 -7q-12 4 -7 16q4 11 16 7t7 -16zM629 190q-3 -9 -12 -5q-9 3 -6 12q4 9 13 5q8 -3 5 -12zM634 407l-18 23l-17 -23l18 -26zM223 603q0 -9 -10 -9q-9 0 -9 9
q0 10 9 10q10 0 10 -10zM236 575q0 -12 -12 -12q-13 0 -13 12q0 13 12 13q13 0 13 -13zM255 542q0 -16 -16 -16q-17 0 -17 16t16 16t17 -16zM276 501q0 -19 -19 -20q-20 0 -20 20q0 19 20 19q19 1 19 -19zM332 425l-20 -76l-61 43l18 71zM348 313q0 -19 -19 -20
q-20 0 -20 20q0 19 19 19q20 1 20 -19zM362 272q1 -16 -16 -17q-16 0 -16 16q0 17 16 17t16 -16zM372 238q0 -12 -12 -13q-13 0 -13 13q0 12 12 12q13 1 13 -12zM378 210q1 -7 -2 -7q-16 -1 -17 7q0 9 10 9q9 0 9 -9zM307 414l-25 15l-8 -28l26 -17z" />
    <glyph glyph-name="n" unicode="n" horiz-adv-x="719" 
d="M716 526q-49 4 -53 -32v-220q0 -53 12 -63q4 -7 23 -23v-122q-62 -25 -162 -103l-4 8q24 24 89 63q32 18 63 36v115q-35 21 -35 61v250q5 42 55 43v72q4 -1 12 -5v-80zM678 574q-52 -23 -52 -71v-182v-19v-24q0 -56 14 -76q11 -15 29 -28v-87q-59 -23 -155 -97
q-24 37 -65 100q-66 95 -200 283v-204q3 -20 20 -57q11 -13 30 -22v-90h-234q-2 3 -31 58.5t-29 57.5l-1 44q34 2 55.5 24t21.5 54v250q-9 15 -33 23v11q20 -5 25 -10t7 -5q0 20 -8.5 30t-27.5 9q-3 10 -22 44q-16 31 -16 35v46l214 1l130 -61l139 -175v42q0 25 -1 50
q-17 24 -42 28l-43 81v34h208l67 -45v-52zM334 72l-1 -106l-253 1l-7 11l247 1v102q3 0 14 -9zM604 646v15h-189v-18q63 -3 80 -37q7 -15 7 -66v-209q0 -7 1 -44l-294 371h-189v-25q10 0 19 -1q16 -1 34 -13q9 -6 16 -20.5t7 -20.5v-346q0 -31 -22.5 -55t-55.5 -29v-25h180
v27q-24 0 -45 18q-28 22 -28 63v332q11 -10 327 -451q62 33 160 83l-5 10q-35 7 -49 20q-26 25 -26 93v258q0 64 72 70zM242 140q-6 16 -6 30v219l-23 24v-228q0 -7 9 -23.5t20 -21.5zM191 599q3 -12 -9 -15q-12 -2 -14 9q-3 12 9 15t14 -9zM218 567q4 -15 -11 -19
q-15 -3 -19 12q-3 15 12 18q15 4 18 -11zM250 530q5 -19 -14 -23q-19 -5 -24 14q-4 19 15 24q19 4 23 -15zM287 485q6 -22 -17 -27q-22 -5 -28 17q-5 23 18 28q22 5 27 -18zM375 413q-2 -20 -9 -74q-20 7 -75 37l4 73zM416 307q5 -20 -16 -25t-25 16q-5 21 16 25
q21 5 25 -16zM446 260q4 -17 -13 -21q-18 -4 -22 13t14 21q17 4 21 -13zM470 226q3 -14 -10 -17t-16 10q-4 14 10 17q13 3 16 -10zM487 195q3 -10 -8 -13q-10 -2 -12 8t8 13q10 2 12 -8zM350 401l-30 11l-2 -25l27 -13z" />
    <glyph glyph-name="o" unicode="o" horiz-adv-x="668" 
d="M669 302q0 -133 -77 -228q-89 -112 -246 -112q-81 0 -152 35q-83 41 -128 121q2 4 6 11q-73 114 -73 266q0 106 66 187q78 96 215 95q55 -1 142 -29q4 0 5 4t5 4q8 0 49 -19q51 -23 102 -83q46 -54 61 -97q25 -71 25 -155zM652 302q0 201 -143 295q90 -79 106 -179
q7 -40 7 -82q0 -111 -45 -194q-52 -97 -155 -132q-49 -16 -78 -16h-22q-85 0 -169 52q23 -26 83 -47q56 -20 92 -20h21q150 0 233 109q70 91 70 214zM522 378q0 78 -26 142q-37 92 -121 123q-59 23 -97 23q-125 0 -198 -88q-64 -75 -64 -179q0 -99 54 -177q70 -100 199 -100
q89 0 152 43q71 48 89 136q12 63 12 77zM363 193q0 -8 -12 -18q-35 -26 -71 -26q-72 0 -90 65v356q11 71 84 71q49 0 72 -35q17 -26 17 -62v-351zM347 199l-1 339q0 13 -19 13q-29 0 -32 -33l-2 -355q33 3 54 36zM489 401l-46 -63l-42 62l43 59zM464 395l-20 27l-17 -23
l19 -26zM396 603q-3 -9 -12 -6t-6 12q4 9 12 6q9 -3 6 -12zM423 572q-4 -12 -16 -7q-12 4 -8 16q5 11 16 7q12 -4 8 -16zM444 535q-6 -16 -21 -10q-16 5 -10 21q6 15 21 9q15 -5 10 -20zM456 489q-6 -19 -25 -12q-18 7 -11 25q6 18 25 12q18 -7 11 -25zM424 218q-4 14 -17 9
q-12 -4 -8 -16q5 -11 16 -7q12 4 9 14zM448 257q-6 16 -21 10q-16 -5 -10 -21q6 -15 21 -9q15 5 10 20zM460 303q-6 19 -25 12q-18 -7 -11 -25q6 -18 25 -12q18 7 11 25zM408 182q0 12 -15 12q-12 0 -12 -11q0 -14 12 -14q15 0 15 13zM61 401l46 -63l42 62l-43 59zM86 395
l19 27l17 -23l-18 -26zM154 603q3 -9 12 -6t5 12q-3 9 -12 6t-5 -12zM127 572q4 -12 16 -7q12 4 7 16q-4 11 -16 7q-11 -4 -7 -16zM106 535q6 -16 21 -10q15 5 10 21q-6 15 -21 9q-15 -5 -10 -20zM93 489q7 -19 25 -12q19 7 12 25t-25 12q-18 -7 -12 -25zM126 218q4 14 17 9
q12 -4 7 -16q-4 -11 -16 -7q-11 4 -8 14zM102 257q6 16 21 10q15 -5 10 -21q-6 -15 -21 -9q-15 5 -10 20zM89 303q7 19 25 12q19 -7 12 -25t-25 -12q-18 7 -12 25zM142 182q0 12 14 12q13 0 13 -11q0 -14 -13 -14q-14 0 -14 13z" />
    <glyph glyph-name="p" unicode="p" horiz-adv-x="732" 
d="M729 437q0 -93 -95 -161q-89 -63 -204 -68q-12 -1 -52 0q-2 -4 -2 -8q0 -18 29 -42q19 -15 39 -30v-12l-56 42q-23 22 -23 47v14q7 -1 9 1q124 -5 223 47q117 61 117 172q0 95 -74 166q-2 0 -7 -3q59 -68 59 -143q0 -36 -17 -76q-62 -138 -265 -138q-7 0 -72 -1v-35
q0 -63 106 -115l-1 -94h-377l-63 123v35q33 -2 59 24t26 52l1 210v41q-17 14 -23 18q-9 6 -25 9q-9 16 -2 16q15 0 26.5 -9.5t22.5 -19.5l-1 12q-4 42 -55 49l-27 66v46l473 -1q28 2 81 -21.5t71 -46.5q0 6 2 17q42 -18 72 -82q25 -56 25 -101zM483 -40h-398q-3 2 -7 13h393
v109q2 1 6 -5t5 -6zM604 518q0 51 -31 88q-34 41 -98 50q-134 -1 -459 1l1 -21q64 -6 85 -124v-282q0 -20 -18 -45q-22 -30 -57 -37q-5 1 -13 -1v-9.5v-6.5h325v18q-90 4 -92 68q-2 44 0 141q90 -1 157 0q93 1 146.5 42.5t53.5 117.5zM433 509q0 -103 -59 -115h-127v237h114
q72 -4 72 -122zM422 518q-4 61 -62 61h-32v-174h23v147h21q27 0 35 -19q-1 -2 -1 -4q-1 0 -3 1q-15 10 -17 10q-3 1 -23 0v-135q28 -1 44.5 32t14.5 81zM179 607q-4 -9 -12 -6q-9 4 -6 13t12 5q9 -3 6 -12zM181 576q-4 -11 -16 -7t-7 16q4 12 16 7q11 -4 7 -16zM187 539
q-6 -16 -21 -10q-16 6 -10 21t21 10q15 -6 10 -21zM192 493q-7 -19 -25 -12t-12 25q7 19 26 12q18 -7 11 -25zM217 401l-46 -63l-42 62l43 59zM193 291q-6 -19 -25 -12q-18 7 -11 25q6 18 25 12q18 -7 11 -25zM192 247q-5 -15 -21 -10q-15 6 -9 21q5 15 20 10q16 -6 10 -21z
M189 212q-4 -12 -16 -7q-12 4 -8 16q5 11 16 7q12 -4 8 -16zM185 183q-3 -9 -12 -5q-9 3 -6 12t12 5q9 -3 6 -12zM190 400l-19 23l-17 -23l19 -26zM498 603q-3 -9 -12 -6t-6 12q4 9 12 6q9 -3 6 -12zM517 572q-5 -12 -16 -7q-12 4 -8 16q5 11 16 7q12 -4 8 -16zM532 535
q-6 -16 -21 -10q-16 5 -10 21q6 15 21 9q15 -5 10 -20zM534 489q-6 -19 -25 -12q-18 7 -11 25q6 18 25 12q18 -7 11 -25zM482 448q0 17 19 17q16 0 16 -17t-17 -17q-18 0 -18 17z" />
    <glyph glyph-name="q" unicode="q" horiz-adv-x="710" 
d="M706 328q0 -63 -25 -132q-27 -74 -69 -114q8 -5 21 -18l-76 -191q-28 -5 -54 -5q-48 0 -91 18q12 -21 47 -34q29 -10 57 -10q25 0 60 8q39 108 76 194q5 -1 11 -10l-79 -197q-40 -8 -63 -8q-108 0 -178 95q-60 9 -110 27q-65 25 -124 99q-51 65 -78 142t-27 186
q0 137 82.5 221.5t222.5 80.5q49 -1 89 -9q3 -1 22 -6.5t22 -5.5q4 0 2 9q0 3 3 3q9 0 63 -23q91 -39 145 -130q51 -87 51 -190zM691 322q0 99 -50 185q-53 93 -139 128q68 -44 118 -127t50 -162q0 -59 -21 -121q-21 -67 -58 -106q-5 -4 -11 -13l18 -13q44 38 70 105
q23 61 23 124zM575 365q0 122 -72 210q-77 93 -196 93q-133 0 -208.5 -79t-75.5 -211q0 -92 55 -171q59 -83 147 -102q33 -7 70 -8q6 -32 12 -65q19 -61 72 -61q107 0 112 6q12 16 29 64q24 64 26 70q-14 10 -17 10q2 0 -20 -24q-25 -26 -61 -34q-5 -1 -24 -1
q-32 0 -46.5 6.5t-37.5 31.5q98 0 168 86q67 80 67 179zM340 -57q-15 12 -36 40q-64 6 -93 16q-40 14 -81 51q17 -33 70 -66t96 -37zM336 130q-3 13 -2.5 38t-0.5 36q-5 29 -25.5 48t-49.5 19q-46 0 -68 -44l1 272q0 146 110 146q97 0 97 -123v-10.5v-11.5v-298
q0 -18 -22 -44.5t-40 -27.5zM300 129q-2 -1 -6 -1q-30 0 -59 13q-36 17 -36 44q0 16 22 31q19 14 36 14q20 0 31.5 -17t11.5 -38v-46zM381 507q0 21 -13.5 34.5t-34.5 13.5q-47 0 -47 -72l-1 -201q6 1 12 1q48 0 84 -77v301zM532 401l-47 -63l-45 63l43 58zM504 401l-20 23
l-16 -23l19 -26zM426 602q-3 -9 -12 -7q-9 3 -6 12t12 7q9 -3 6 -12zM454 572q-3 -12 -15 -8t-9 16q4 12 16 8t8 -16zM477 536q-5 -16 -20 -11q-16 5 -11 21q5 15 20 10q16 -4 11 -20zM492 491q-5 -19 -24 -13q-19 5 -13 24t24 13q19 -6 13 -24zM466 218q-4 14 -16 9
q-12 -4 -8 -16q4 -11 16 -7q11 4 8 14zM490 257q-5 16 -20 10q-16 -5 -10 -21q5 -15 21 -9q15 5 9 20zM503 303q-6 19 -25 12q-18 -7 -11 -25q6 -18 25 -12q18 7 11 25zM450 182q0 12 -14 12q-13 0 -13 -11q0 -14 13 -14q14 0 14 13zM57 401l45 -63l43 62l-40 59zM82 399
l22 23l16 -25l-19 -24zM162 602q3 -9 12 -7q9 3 7 12q-3 9 -12 7q-9 -3 -7 -12zM134 572q4 -12 16 -8t8 16t-16 8q-11 -4 -8 -16zM111 536q5 -16 21 -11q15 5 11 21q-5 15 -21 10q-15 -4 -11 -20zM96 491q6 -19 25 -13q18 5 13 24q-6 19 -25 13q-18 -6 -13 -24zM122 218
q4 14 17 9q12 -4 7 -16q-4 -11 -16 -7q-11 4 -8 14zM98 257q6 16 21 10q15 -5 10 -21q-6 -15 -21 -9q-16 5 -10 20zM85 303q7 19 25 12t12 -25q-7 -18 -25 -12q-18 7 -12 25zM138 182q0 12 14 12q13 0 13 -11q0 -14 -13 -14q-14 0 -14 13z" />
    <glyph glyph-name="r" unicode="r" horiz-adv-x="813" 
d="M807 -43h-248l-4 12l237 1v155q-37 43 -81 103l-10 16q-7 12 -6 22l7 8q4 -14 16 -30q11 -23 40 -54q48 -53 49 -63v-170zM760 -1h-222l-159 260q1 -26 1 -106q-12 10 -12 23v103l-27 41v-116q-1 -28 27.5 -60.5t66.5 -45.5v-99h-365l-65 119v43q41 5 60 22q30 26 30 85
q2 159 0 184q-3 35 -31 51q1 2 -2 8.5t-3 7.5q0 2 2 2q5 0 17 -9.5t15 -14.5v15q-8 10 -50 45q-1 2 -18 36.5t-18 37.5v41l505 -1q68 0 118 -25q91 -46 97 -152q6 -102 -124 -156q30 -38 76 -46q0 -3 -3 -16t-3 -17q2 -52 87 -123v-137zM482 -43h-385l-6 13h378l1 116
q8 -7 12 -42v-87zM711 149q-10 2 -34 5q-51 9 -84.5 65t-33.5 68t-2.5 20.5t-2.5 9.5q0 5 12 16q-133 -7 -207 54q3 3 20 0q213 0 242 121q4 14 4 28q0 57 -58 93q-50 31 -114 31h-430q-7 0 0 -22q85 -12 85 -130v-249q0 -98 -84 -107l-1 -20h320v20q-47 0 -72.5 28
t-25.5 75v25q1 26 1 49v59q57 2 65 -1t81 -118q43 -69 86 -137h233q3 2 0 17zM458 517q0 -105 -155 -105h-56q-3 221 0 224q38 -1 126 0q85 -16 85 -119zM429 507v11q-28 37 -68 37h-17v-122h27v88h17q-2 0 41 -14zM429 488q0 6 -10.5 12t-18.5 6h-16v-67q45 17 45 49z
M512 603q-3 -9 -12 -6t-5 12q3 9 12 6t5 -12zM531 572q-4 -12 -16 -7q-12 4 -7 16q4 11 16 7q11 -4 7 -16zM546 535q-6 -16 -21 -10q-15 5 -10 21q6 15 21 9q15 -5 10 -20zM549 489q-7 -19 -25 -12q-19 7 -12 25t25 12q18 -7 12 -25zM497 448q0 17 19 17q16 0 16 -17
t-18 -17q-17 0 -17 17zM178 607q-3 -9 -12 -6q-9 4 -6 13q4 9 13 5q8 -3 5 -12zM180 576q-4 -11 -16 -7q-11 4 -7 16t16 7q12 -4 7 -16zM186 539q-6 -16 -21 -10t-10 21q6 15 21 10q16 -6 10 -21zM191 493q-6 -19 -25 -12q-18 7 -11 25q7 19 25 12t11 -25zM216 401l-46 -63
l-42 62l43 59zM193 291q-7 -19 -25 -12q-19 7 -12 25t25 12q18 -7 12 -25zM191 247q-5 -15 -20 -10q-16 6 -10 21t21 10q15 -6 9 -21zM188 212q-4 -12 -16 -7q-12 4 -7 16q4 11 16 7t7 -16zM184 183q-3 -9 -12 -5q-9 3 -6 12q4 9 13 5q8 -3 5 -12zM189 400l-18 23l-17 -23
l18 -26zM495 288q2 -20 -18 -21q-19 -2 -20 19q-2 20 18 21q19 2 20 -19zM513 247q1 -17 -15 -18t-17 15q-1 17 15 18t17 -15zM526 213q1 -13 -11 -14q-13 -1 -14 12t12 14q12 1 13 -12zM535 184q1 -10 -8 -10q-10 -1 -11 9q0 10 9 11q10 0 10 -10z" />
    <glyph glyph-name="s" unicode="s" horiz-adv-x="639" 
d="M629 198q0 -111 -89 -179q-79 -61 -182 -61q-86 0 -183 41q-7 1 -25 -14h-45q-8 8 -6 11l47 1q15 24 33 19l70 -24q65 -20 108 -20q96 0 172 57q86 64 86 165q0 33 -17 78q-18 51 -39 60q0 2 18.5 -43t16.5 -83q-7 -104 -83 -162q-66 -51 -159 -51q-49 0 -105 22
q-31 13 -68 26q-34 2 -40 -26q-11 -1 -53 -1l-43 101l-33 225q15 3 35 -4q76 -28 157.5 -102t123.5 -74q22 0 27 25q0 33 -31 52q-25 13 -50 25q-44 20 -124 60q-114 68 -121 204q-5 82 60 125q54 36 136 36q72 0 167 -37l50 23l96 -70l46 -222q-99 27 -162 88
q-18 29 -57 76q-26 23 -49 23q-33 0 -33 -30q0 -31 65 -67q31 -14 62.5 -28t53.5 -26q25 -15 35 -19q48 -22 106 -27l-40 209l12 -7q45 -208 44 -214q-1 -4 0 -8l2 -5q-35 -1 -60 7q28 -25 48 -71t20 -84zM340 572q-22 31 -59 35q-16 2 -34 -10q-24 -15 -24 -42
q0 -28 37 -50q21 -9 41 -18q-32 23 -32 52q0 39 45 39q8 0 26 -6zM508 275q0 56 -34 95q-57 66 -156 96q-41 12 -86 37q-72 40 -77 81q-4 35 22 54q22 16 52 16q47 0 70 -18q20 -15 70 -75q43 -52 71 -66q12 -6 39 -10l-39 175q-48 -26 -54 -24q-60 24 -73 27q-37 10 -94 10
q-69 0 -117 -33q-55 -38 -55 -104q0 -68 61 -115q15 -11 118 -66l110 -52q57 -35 57 -90q0 -31 -24 -53.5t-53 -21.5q-81 5 -163 93q-16 18 -31 36q-27 27 -60 46q-7 4 -15 9q-2 0 -19 2q9 -66 29 -192q0 -3 5 -2q8 1 10.5 2t14.5 21q7 14 25 14q9 0 78 -26.5t118 -26.5
q72 0 129 35q71 44 71 126zM348 380l-38 65l-73 -20l41 -64zM274 411l25 7l15 -25l-25 -7zM364 356q-2 20 17 22q21 2 23 -18t-20 -22q-18 -2 -20 18zM403 326q-2 17 16 19t20 -16q1 -18 -16 -20q-18 -1 -20 17zM425 285q-2 16 16 18q18 1 20 -15q1 -16 -17 -17
q-18 -2 -19 14zM429 240q-2 15 12 17q14 1 15 -14q2 -14 -19 -16q-7 -1 -8 13zM212 443q2 -22 -17 -23q-21 -2 -23 18q-1 20 21 22q18 1 19 -17zM168 468q1 -18 -17 -20t-19 16q-2 18 16 20q18 1 20 -16zM138 506q2 -17 -16 -18q-18 -2 -19 15q-2 16 16 17q18 2 19 -14z
M127 549q1 -15 -13 -16t-15 14q-2 15 12 16t16 -14z" />
    <glyph glyph-name="t" unicode="t" horiz-adv-x="687" 
d="M688 310q-66 -2 -126 32l-52 38q-3 12 4 12q-8 0 53.5 -33.5t104.5 -32.5l-44 273q0 2 6 -4.5t9 -4.5zM647 354q-78 15 -157 78q-5 -3 -6 -12q-1 -6 0 -17q1 -12 1 -14l-1 -213l-13 7v260l-28 29l1 -99q0 -6 -1 -60q-2 -41 0 -67q2 -36 9 -57q10 -28 37.5 -53t54.5 -34
v-105h-373q-16 40 -55 117l-1 46q19 -7 48 16q34 28 34 76q2 143 0 161q-16 -18 -54 -51q-41 -28 -76 -36l-6 14q75 24 136 96l1 37q-86 -104 -148 -112q-38 71 -51 109l45 200l478 -1l83 -53zM582 -37l-391 -1q0 1 -6 8t-6 10l388 -2v115l15 -6v-124zM561 466l-47 187
l-456 1q-41 -163 -41 -181q54 12 95 53q20 20 53 69q23 34 36 35l14 -1v-380q0 -84 -86 -104v-14h324q-1 7 -3 14q-86 17 -97 111l1 373q0 2 5.5 0.5t6.5 -0.5q26 -3 55 -45q49 -70 53 -75q35 -39 78 -39q4 0 5.5 -3t3.5 -1zM288 607q-3 -9 -12 -6q-9 4 -6 13q4 9 13 5
q8 -3 5 -12zM290 576q-4 -11 -16 -7q-11 4 -7 16t16 7q12 -4 7 -16zM296 539q-6 -16 -21 -10t-10 21q6 15 21 10q16 -6 10 -21zM301 493q-6 -19 -25 -12q-18 7 -11 25q7 19 25 12t11 -25zM326 401l-46 -63l-42 62l43 59zM303 291q-7 -19 -25 -12q-19 7 -12 25t25 12
q18 -7 12 -25zM302 247q-6 -15 -21 -10q-16 6 -10 21t21 10q15 -6 10 -21zM299 212q-4 -12 -16 -7q-12 4 -7 16q4 11 16 7t7 -16zM296 183q-3 -9 -12 -5q-9 3 -6 12q4 9 13 5q8 -3 5 -12zM301 395l-19 27l-17 -23l18 -26z" />
    <glyph glyph-name="u" unicode="u" horiz-adv-x="736" 
d="M726 596v-24q1 -15 1 -23q0 -13 -1 -27l-8 1q-19 1 -34 -9.5t-16 -28.5l-2 -241q0 -22 21 -55t21 -36q0 -27 -38 -69q-126 -139 -284 -139q-53 0 -115 13q-73 17 -103 42q-1 11 7 11l7 -4q88 -50 198 -50q83 0 164.5 41.5t129.5 109.5q22 32 22 42q0 1 -22 38t-22 57v241
q0 17 18 33.5t36 16.5q4 0 8 -2v8q0 12 -1.5 33t-1.5 30zM692 554q-41 -7 -54 -33q-10 -19 -10 -66l1 -219q0 -36 27 -68l9 -10l5 -6q0 -10 -27 -44q-102 -130 -261 -130q-70 0 -151 28q-95 34 -120 85q-48 98 -48 120v1q28 20 38 39l3 6v1v-1q-1 43 0 111q1 87 1 111
q0 17 -25.5 26.5t-28.5 18.5q3 3 7 3q8 0 21 -8l20 -12l-2 9q-22 36 -50 32l-37 73l-1 49h334q8 0 66 -61l1 -62q-20 -5 -40 -11q-22 -9 -22 -32v-310q0 -44 21 -52l3 335q0 49 71 49q23 0 43 -12h6q-2 9 -4 17q-4 13 -19 13l-54 89l1 40h210q9 0 34 -22q16 -14 33 -29z
M498 451q0 2 -2 44q-5 8 -24.5 13.5t-32.5 5.5q-18 0 -33 -7q-19 -9 -19 -24v-340h30q22 0 47.5 19t29.5 41t4 38v210zM619 635v20h-188v-16q31 -2 55.5 -31t24.5 -60l-1 -312q0 -105 -126 -105q-55 0 -90 22q-42 27 -42 79l2 316q0 36 23.5 62t58.5 23v22h-309v-24
q45 -5 70 -39q21 -31 21 -78v-259q0 -10 -18.5 -28t-18.5 -19q0 -9 40 -45q75 -68 217 -68q75 0 142 30q78 34 107 93q-20 11 -33.5 34.5t-13.5 46.5l-1 249q0 36 22.5 62t57.5 25zM180 601q-9 0 -9 10q0 9 10 9q9 0 9 -10q0 -9 -10 -9zM180 568q-12 0 -12 13q0 12 12 12
q13 0 13 -12q0 -13 -13 -13zM182 528q-16 0 -16 16q0 17 16 17q17 0 17 -17q0 -16 -17 -16zM185 480q-20 0 -20 19q0 20 20 20q19 0 19 -20q0 -19 -19 -19zM230 401l-47 -63l-41 62l42 59zM204 400l-19 22l-17 -23l18 -23zM191 229q15 0 15 -13t-13 -13t-13 12q0 14 11 14z
M184 268q16 0 16 -16t-16 -16q-19 0 -19 17q0 15 19 15zM182 316q20 0 20 -19q0 -20 -20 -20q-19 0 -19 20q0 19 19 19zM197 182q0 12 14 12q13 0 13 -11q0 -14 -13 -14q-14 0 -14 13z" />
    <glyph glyph-name="v" unicode="v" horiz-adv-x="703" 
d="M697 508q-61 2 -69 -20q-47 -101 -118 -262q-2 -5 -2 -10q0 -12 17 -21q13 -6 26 -11q0 -4 -8 -7q-20 0 -34.5 11.5t-14.5 28.5q0 8 4 17q37 86 114 258q8 16 30 25t40 5q3 48 0 68l15 -4v-78zM661 549q-54 2 -75 -48q-61 -139 -121 -286q-1 -31 29 -50q25 -17 56 -18
v-54l-102 -36q-38 -17 -90 -69l-80 74l-187 450q-5 13 -22.5 31t-25.5 20.5t-29 6.5v16l22 -4q13 -5 35 -23q-7 17 -15 34q-11 15 -50 25v52h295l73 -60v-61q-18 -1 -22 -7q-1 -2 -3 -16q4 -32 51 -120q36 75 36 113q0 24 -17 28l-36 72l-1 51l206 -1q6 0 73 -57
q2 -50 0 -63zM585 131q-2 -13 0 -75l-44 -8q-64 -12 -155 -86l-11 10q25 24 82 59q27 17 71 30q21 6 43 11v64q5 -1 14 -5zM585 633v20h-185l-2 -21q42 -8 55 -21q17 -16 16 -60q0 -20 -52 -153q-51 -129 -55 -129q-19 30 -75 153q-59 128 -58 145q0 38 22 51q1 0 43 13v22
h-268v-23q22 -10 30 -16q11 -9 23 -32q68 -168 209 -504q63 79 163 101l-5 20q-10 0 -34 9q-32 12 -32 27q45 103 130 316q19 50 30 62t45 20zM155 592q0 -11 -11 -11t-11 11q0 12 11 12t11 -12zM170 562q0 -15 -14 -15t-14 15t14 15t14 -15zM189 525q0 -19 -18 -19
q-17 0 -17 19q0 18 17 18q18 0 18 -18zM210 482q0 -22 -21 -22t-21 22t21 22t21 -22zM272 400q-6 -20 -21 -71q-19 11 -64 42l23 71zM288 284q0 -20 -20 -20q-19 0 -19 20q0 21 19 21q20 0 20 -21zM303 241q0 -16 -17 -16q-16 0 -16 16q0 17 16 17q17 0 17 -17zM313 207
q0 -13 -12 -13q-13 0 -13 13t13 13q12 0 12 -13zM320 178q0 -10 -9 -10q-10 0 -10 10t10 10q9 0 9 -10zM248 389l-28 18l-9 -27l28 -20z" />
    <glyph glyph-name="w" unicode="w" horiz-adv-x="959" 
d="M684 549q-21 -1 -28 -5.5t-5 -21.5q9 -33 42 -121q8 31 34 107q0 26 -7.5 34t-35.5 7zM923 549q-49 2 -69 -48q-26 -68 -63 -176q-35 -103 -35 -110q-1 -31 26 -50q22 -17 50 -18v-54l-92 -36q-34 -17 -80 -69q-75 69 -75.5 69.5t-114.5 270.5q-26 -54 -52 -113
q-1 -31 26 -50q22 -17 50 -18v-54l-92 -36q-34 -17 -80 -69l-73 74l-168 450q-5 13 -20.5 31t-22.5 20.5t-26 6.5v16l20 -4q11 -5 31 -23q-6 17 -13 34q-11 15 -45 25v51h269l33 -46l-1 47l318 -1l37 -51v51h201l61 -57q1 -50 0 -63zM469 592q0 -11 -10 -11t-10 11
q0 12 10 12t10 -12zM482 562q0 -15 -12 -15q-13 0 -13 15q0 14 13 14q12 0 12 -14zM500 525q0 -19 -16 -19t-16 19q0 18 16 18t16 -18zM519 482q0 -22 -19 -22t-19 22t19 22t19 -22zM574 400q-5 -20 -19 -71q-17 11 -58 42l22 71zM588 284q0 -20 -17 -20q-18 0 -18 20
q0 21 18 21q17 0 17 -21zM604 241q0 -17 -15 -17t-15 17t15 17t15 -17zM954 508q-10 3 -18 3q-21 0 -44 -23l-96 -262q-2 -5 -2 -9q0 -13 16 -22q12 -6 24 -11q0 -4 -8 -7q-18 0 -31 11.5t-13 28.5q0 8 4 17q27 86 92 258q7 16 27 25t36 5v73l13 -9q3 -20 0 -78zM614 207
q0 -13 -11 -13t-11 13t11 13t11 -13zM624 178q0 -10 -9 -10t-9 10t9 10t9 -10zM864 131q-2 -13 0 -75l-39 -8q-58 -12 -140 -86l-10 10q22 24 73 59q25 17 64 30q20 6 39 11v64q5 -1 13 -5zM526 131q-2 -13 0 -75l-39 -8q-58 -12 -140 -86l-10 10q22 24 73 59q25 17 64 30
q20 6 39 11v64q5 -1 13 -5zM552 389l-25 18l-7 -27l25 -20zM309 528q3 -20 56 -130l34 83l-22 55q-19 27 -40 15h-16q-14 -1 -14 -13q0 -4 2 -10zM854 633v21l-179 1v-23q41 -9 55 -21q20 -18 20 -60q0 -20 -43 -153q-41 -129 -44 -129q-13 23 -53 108q-46 98 -67 152
q-8 18 -8 34q0 28 24 49q21 17 48 21v20l-288 1l4 -24q26 0 40 -23l14 -32q19 -46 39 -91q-89 -215 -91 -215q-17 30 -67 153q-53 128 -53 145q0 38 22 52q2 1 40 14l-1 21l-243 1v-25q20 -10 26 -16q10 -9 21 -32q61 -168 188 -504q58 79 147 101l-5 20q-8 0 -30 9
q-29 12 -29 27q0 5 89 216l162 -373q57 78 151 101l-5 20q-8 0 -30 9q-29 12 -29 27q35 103 107 316q17 50 27 62t41 20zM139 592q0 -11 -10 -11t-10 11q0 12 10 12t10 -12zM152 562q0 -15 -12 -15q-13 0 -13 15q0 14 13 14q12 0 12 -14zM170 525q0 -19 -16 -19t-16 19
q0 18 16 18t16 -18zM189 482q0 -22 -19 -22t-19 22t19 22t19 -22zM244 400q-5 -20 -19 -71q-17 11 -58 42l22 71zM258 284q0 -20 -17 -20q-18 0 -18 20q0 21 18 21q17 0 17 -21zM272 241q0 -17 -15 -17t-15 17t15 17t15 -17zM282 207q0 -13 -11 -13t-11 13t11 13t11 -13z
M291 178q0 -10 -9 -10t-9 10t9 10t9 -10zM222 389l-25 18l-7 -27l25 -20z" />
    <glyph glyph-name="x" unicode="x" horiz-adv-x="830" 
d="M803 514q-36 7 -47 7q-31 0 -74 -30l-29 -25q-33 -29 -47 -50l195 -261q-1 -4 -7 -4q-9 0 -69 81q-4 6 -87 114q-52 69 -52 73t38 40q34 31 50 44q39 32 88 32q14 0 28 -2v64l14 -10zM789 0h-375l-60 126v42q46 0 46 35q0 20 -25 49q-2 0 -4 -1l-46 -48q-18 -20 -18 -41
q0 -28 49 -70q2 -20 0 -92h-295q-53 106 -53 118v47q64 11 103 46q45 42 103.5 101.5t61.5 66.5q2 5 -20 33.5t-41 48.5q-9 8 -34 20q-32 14 -90 20q1 10 -2 13q3 3 17 2q20 -3 18 -3q16 0 36 -10t28 -12q-37 54 -87 60h-26q-6 8 -22 42t-17 40v38l340 -1l57 -49v49l249 1
l88 -60q-1 -37 -1 -57q-9 2 -19 2q-24 0 -47 -8q-18 -6 -20.5 -8.5t-67.5 -59.5q-61 -53 -61 -58q0 -2 163 -223q24 -33 51 -57q8 -5 21 -16v-126zM821 109v-67v-73h-400q0 5 6 14h383v135q11 0 11 -9zM394 -8v-24h-306l-7 14h297v48q11 -18 16 -38zM484 553q4 18 -23 21
q-32 3 -32 -10q0 -6 7 -12q7 -10 24 -25q4 4 12 13t12 13zM702 132v17q-14 4 -36 11q-38 14 -80 67q-34 44 -68 89q-89 102 -89 115q0 5 64 68t110 104q23 20 73 34v21h-226v-25q58 -12 58 -53q0 -17 -13 -35q-5 -8 -87 -84q-38 46 -80 101q-7 16 -7 29q0 36 47 46v20h-317
v-20q12 -2 24 -5q28 -9 44 -29q182 -220 177 -226q-44 -45 -127 -130q-47 -48 -82 -72q-13 -8 -30.5 -12.5t-33.5 -9.5v-22h245q3 18 0 22q-74 -6 -74 41q0 28 9.5 42.5t59.5 62.5t55 48q4 0 40 -46t50 -71q7 -12 7 -30q0 -39 -46 -47v-21h333zM233 599q3 -12 -9 -15
q-12 -2 -15 9q-2 12 9 15q12 3 15 -9zM260 567q3 -15 -12 -19q-15 -3 -18 12q-4 15 11 18q15 4 19 -11zM292 530q4 -19 -15 -23q-19 -5 -23 14q-5 19 14 24q19 4 24 -15zM329 485q5 -22 -17 -27q-23 -5 -28 17q-5 23 17 28q23 5 28 -18zM417 413q-3 -20 -9 -74q-21 7 -76 37
l5 73zM458 307q5 -20 -16 -25t-26 16t16 25q21 5 26 -16zM488 260q4 -17 -14 -21q-17 -4 -21 13t13 21q18 4 22 -13zM512 226q3 -14 -10 -17q-14 -3 -17 10q-3 14 10 17q14 3 17 -10zM529 195q2 -10 -8 -13q-10 -2 -13 8q-2 10 8 13q10 2 13 -8zM391 401l-29 11l-3 -25
l28 -13z" />
    <glyph glyph-name="y" unicode="y" horiz-adv-x="717" 
d="M563 143q-3 -4 -3 -7q-18 2 -35.5 29t-17.5 48q0 36 37 53h13q-9 -7 -18 -15q-17 -15 -17 -38q0 -16 13.5 -39t27.5 -31zM713 600v-60q-51 -17 -73 -47q-35 -47 -82 -118t-47 -76q0 -1 10 -12q-19 -10 -36 -35q-6 -10 -6 -35q0 -68 92 -109q-1 -31 1 -106l-375 -1
q-59 117 -59 121q0 43 1 45q32 0 59 17q24 15 29 34v73q0 29 -4 39q-14 25 -43 82q-10 20 -33 48q-20 24 -69 32l-2 14q22 0 53 -17q-4 6 -10 19q-16 34 -26 37.5t-33 3.5q-5 0 -55 81v41h324l78 -65v-41q-21 -16 -21 -26q0 -7 37 -58l43 62q2 7 2 14q0 28 -53 73l-2 41h200
q10 -6 31 -21t31 -21q-1 -19 1 -64q-39 -13 -63 -47q-128 -178 -128 -183q0 -3 16 -25q35 51 127 188q31 40 73 45v61zM607 -33l-390 1l-9 13h385v112l14 -6v-120zM611 639v11.5v5.5h-183v-17q28 -2 45.5 -22.5t17.5 -44.5q0 -25 -49 -98.5t-69 -85.5q-16 24 -57 94
q-49 85 -49 97q0 23 11.5 35t41.5 25v20h-299v-20q11 -2 25 -5q24 -9 53 -60q49 -80 137 -242q4 -8 4 -28v-88q-12 -43 -88 -63v-21h332v23q-46 7 -62 17q-21 12 -23 42v84l8 16q3 4 24 19q-33 23 -33 27q0 7 65 107q63 96 88 128q28 36 60 44zM168 618q2 -12 -10 -14
q-12 -1 -14 10q-2 12 10 14t14 -10zM192 584q3 -15 -13 -17q-15 -3 -17 13q-3 15 13 17q15 3 17 -13zM222 546q3 -20 -17 -23q-19 -3 -22 17q-3 19 16 22q20 3 23 -16zM256 498q3 -22 -19 -26q-23 -4 -27 19t19 27q23 3 27 -20zM329 416q-4 -20 -14 -73q-20 8 -73 42l11 70z
M303 404l-28 14l-5 -27l27 -12zM339 301q-6 -19 -25 -12q-18 7 -11 25q6 18 25 12q18 -7 11 -25zM338 257q-6 -15 -21 -10q-15 6 -10 21q6 15 21 10q16 -6 10 -21zM336 222q-5 -12 -16 -7q-12 4 -8 16q5 11 16 7q12 -4 8 -16zM333 193q-3 -9 -12 -5q-9 3 -6 12t12 5
q9 -3 6 -12z" />
    <glyph glyph-name="z" unicode="z" horiz-adv-x="701" 
d="M691 587l-276 -356q41 28 81 55q56 36 87 36q6 0 78 -51q-19 -37 -32 -131q-11 -86 -8 -139h-551q-29 65 -60 123v43l184 230q-1 0 -32.5 -14t-49.5 -13v11q33 7 47 12q24 9 43 25q24 20 55 60q39 53 50 64q-50 -41 -99 -83q-67 -57 -105 -57q-11 0 -63 83l40 186h502
q38 -18 77 -45q0 -8 -1 -21l-326 -423q11 2 40 15l308 395q-2 9 -1 13h11zM657 -35l-555 -1l-8 10l1 4l547 -1l-1 22q-2 154 37 253l13 -8q-38 -115 -34 -279zM582 308q-47 -3 -118 -60q-82 -65 -110 -75q-36 -12 -152 -12l361 473v22h-470q-11 -56 -38 -167q9 -2 14 -2
t16 4q15 5 17 6q29 7 87 54q69 57 89 68q25 13 78 13h37l-2 -3q-1 -2 -115 -146l-253 -323v-29h518q14 116 41 177zM449 582q-11 -6 -17 5q-6 10 5 16t17 -4q5 -11 -5 -17zM425 548q-13 -8 -21 6q-7 13 6 21q14 7 21 -6q8 -14 -6 -21zM399 507q-17 -10 -27 7q-9 17 8 27
q17 9 27 -8q9 -17 -8 -26zM366 459q-20 -12 -31 9q-11 20 9 31t31 -9t-9 -31zM321 354q-20 -3 -74 -12q1 22 15 83l71 16zM231 285q-19 -10 -29 9q-11 19 8 29t29 -8q10 -19 -8 -30zM193 244q-15 -9 -24 7q-9 15 7 24t24 -7q9 -16 -7 -24zM167 211q-12 -7 -19 5q-6 13 6 19
q12 7 18 -5q7 -12 -5 -19zM142 186q-9 -5 -14 4q-5 10 4 15t14 -4q5 -10 -4 -15zM302 375l3 32l-25 -5l-5 -30z" />
    <glyph glyph-name="braceleft" unicode="{" horiz-adv-x="241" 
d="M209 766v-52h-38q-26 -8 -34 -43v-228q-12 -53 -21 -71q-12 -22 -39 -35q33 -12 46 -38q6 -13 14 -58v-250q-4 -16 12 -27.5t32 -9.5h28v-52h-60q-7 -1 -14 -1q-28 0 -46.5 19t-18.5 51l-1 267q-8 42 -22.5 62.5t-47.5 37.5q63 27 70 105v236q10 42 29.5 60t58.5 27h52z
" />
    <glyph glyph-name="bar" unicode="|" horiz-adv-x="172" 
d="M62 672h38v-670h-38v670z" />
    <glyph glyph-name="braceright" unicode="}" horiz-adv-x="241" 
d="M-1 -98v52h38q26 8 34 43v229q12 52 22 70q11 23 38 35q-33 12 -46 39q-6 13 -14 58v249q5 17 -11.5 28.5t-32.5 8.5h-28v52h60q7 1 15 1q27 0 45.5 -19t18.5 -51l1 -267q8 -41 22.5 -61.5t47.5 -38.5q-63 -26 -70 -105v-235q-10 -42 -30 -62q-18 -16 -57 -26h-53z" />
    <glyph glyph-name="asciitilde" unicode="~" horiz-adv-x="405" 
d="M146 815q24 0 53.5 -16t62.5 -16q14 0 22.5 11t11.5 11q16 2 18 -5l4 -14q-22 -34 -37 -45q-20 -14 -54 -14q-13 0 -45.5 16t-57.5 16q-10 0 -21 -12.5t-21 -12.5q-17 0 -17 12q0 18 28.5 43.5t52.5 25.5z" />
    <glyph glyph-name="Adieresis" unicode="&#xc4;" horiz-adv-x="750" 
d="M743 130v-165h-353l-10 14l345 1l1 142q-16 19 -33 38q-40 52 -60 111q-1 2 -34 83q-31 76 -103 262l22 -15l132 -328q24 -59 60 -106q17 -19 33 -37zM708 114q1 -1 -1 -114h-332l-54 131v27h21q37 0 41 32q0 3 2 15h-142q-9 -18 -9 -24q0 -26 18 -41t44 -11v-129h-230
q-11 28 -35 74t-24 44q2 17 0 47q61 -1 82 54l-33 67l1 38h92l51 98l-26 15l4 11l28 -13l10 19q-7 8 -30 19l-31 76v44q53 0 102 22q34 15 66 41l28 23q4 0 48 -18q48 -18 62 -28q19 -42 53 -124q18 -43 52 -125q16 -41 48 -125l28 -58q24 -45 66 -87zM332 -34h-249l-12 16
l250 1l-1 111l12 -32v-96zM627 144q-13 5 -40 20q-19 14 -48 82q-62 137 -186 412q-9 -12 -67 -46q-35 -19 -74 -26q-14 -2 -40 -9v-20q15 -1 48 -8q14 -5 28.5 -16.5t14.5 -15.5q0 -11 -106 -205h-83v-21h74l-18 -36t-33 -59q-16 -41 -76 -45v-20h182v19q-15 1 -26 5
q-26 11 -29 37q-6 40 30 97l189 -1q23 -51 25 -68q2 -9 2 -17q0 -40 -31 -52q-18 -7 -31 -3v-17h295v13zM327 575q0 -11 -11 -11t-11 11t11 11t11 -11zM342 546q0 -14 -14 -14t-14 14t14 14t14 -14zM361 511q0 -18 -17 -18q-18 0 -18 18t18 18q17 0 17 -18zM383 470
q0 -21 -21 -21t-21 21t21 21t21 -21zM444 391q-6 -19 -21 -69q-18 11 -64 41l24 68zM460 280q0 -20 -19 -20q-20 0 -20 20q0 19 20 19q19 0 19 -19zM475 238q0 -16 -16 -16q-17 0 -17 16q0 17 17 17q16 0 16 -17zM486 205q0 -12 -13 -12q-12 0 -12 12q0 13 12 13
q13 0 13 -13zM359 312h-173q8 10 94 183q29 -62 79 -183zM493 177q0 -9 -10 -9q-9 0 -9 9q0 10 9 10q10 0 10 -10zM420 380l-28 18l-8 -26l27 -19zM332 328l-21 59l-29 -58zM408 716q-17 0 -28.5 12t-11.5 28q0 17 11.5 29t28.5 12t28.5 -12t11.5 -29q0 -16 -11.5 -28
t-28.5 -12zM264 716q-17 0 -28.5 12t-11.5 28q0 17 11.5 29t28.5 12t28.5 -12t11.5 -29q0 -16 -11.5 -28t-28.5 -12z" />
    <glyph glyph-name="Aring" unicode="&#xc5;" horiz-adv-x="750" 
d="M743 130v-165h-353l-10 14l345 1l1 142q-16 19 -33 38q-40 52 -60 111q-1 2 -34 83q-31 76 -103 262l22 -15l132 -328q24 -59 60 -106q17 -19 33 -37zM708 114q1 -1 -1 -114h-332l-54 131v27h21q37 0 41 32q0 3 2 15h-142q-9 -18 -9 -24q0 -26 18 -41t44 -11v-129h-230
q-11 28 -35 74t-24 44q2 17 0 47q61 -1 82 54l-33 67l1 38h92l51 98l-26 15l4 11l28 -13l10 19q-7 8 -30 19l-31 76v44q53 0 102 22q34 15 66 41l28 23q4 0 48 -18q48 -18 62 -28q19 -42 53 -124q18 -43 52 -125q16 -41 48 -125l28 -58q24 -45 66 -87zM332 -34h-249l-12 16
l250 1l-1 111l12 -32v-96zM627 144q-13 5 -40 20q-19 14 -48 82q-62 137 -186 412q-9 -12 -67 -46q-35 -19 -74 -26q-14 -2 -40 -9v-20q15 -1 48 -8q14 -5 28.5 -16.5t14.5 -15.5q0 -11 -106 -205h-83v-21h74l-18 -36t-33 -59q-16 -41 -76 -45v-20h182v19q-15 1 -26 5
q-26 11 -29 37q-6 40 30 97l189 -1q23 -51 25 -68q2 -9 2 -17q0 -40 -31 -52q-18 -7 -31 -3v-17h295v13zM327 575q0 -11 -11 -11t-11 11t11 11t11 -11zM342 546q0 -14 -14 -14t-14 14t14 14t14 -14zM361 511q0 -18 -17 -18q-18 0 -18 18t18 18q17 0 17 -18zM383 470
q0 -21 -21 -21t-21 21t21 21t21 -21zM444 391q-6 -19 -21 -69q-18 11 -64 41l24 68zM460 280q0 -20 -19 -20q-20 0 -20 20q0 19 20 19q19 0 19 -19zM475 238q0 -16 -16 -16q-17 0 -17 16q0 17 17 17q16 0 16 -17zM486 205q0 -12 -13 -12q-12 0 -12 12q0 13 12 13
q13 0 13 -13zM359 312h-173q8 10 94 183q29 -62 79 -183zM493 177q0 -9 -10 -9q-9 0 -9 9q0 10 9 10q10 0 10 -10zM420 380l-28 18l-8 -26l27 -19zM332 328l-21 59l-29 -58zM334 708q-24 0 -41 17t-17 41t17 41t41 17t41 -17t17 -41t-17 -41t-41 -17zM334 794q-28 0 -28 -28
t28 -28t28 28t-28 28z" />
    <glyph glyph-name="Ccedilla" unicode="&#xc7;" horiz-adv-x="670" 
d="M667 309q-4 -3 -15 -3q-61 0 -134 35q-83 41 -106 99h11q63 -87 171 -113q23 -5 31 -6l21 -1q-8 26 -20 91q-14 55 -30 162q11 2 13 -9q5 -33 30 -155q13 -63 28 -100zM426 -109q0 -42 -32 -65q-28 -20 -73 -20q-19 0 -41 10q-26 13 -26 29q0 21 20 21q7 0 17.5 -9
t25.5 -9q33 0 33 42q0 31 -32.5 41t-32.5 30q0 1 1 4q-32 5 -55 12q-51 16 -100 56q-74 60 -90 132q3 2 9 8q10 -66 91 -128q76 -57 148 -67q4 14 7 24q-130 14 -215 135q-78 111 -78 247q0 127 67 209q73 88 199 88q41 0 82 -18t51 -18q21 0 51 24l105 -74q12 -62 22 -109
q24 -112 34 -129q-54 -1 -134 48q-59 37 -90 71q-11 11 -34 43q-20 26 -20 25q-27 0 -27 -17v-315q0 -15 9 -33q11 -24 27 -24q55 0 98 56q39 53 37 107q14 4 69 -3q4 0 40.5 -21.5t36.5 -26.5q0 -26 -34 -99q-37 -78 -116 -125q-71 -42 -142 -43l-5 -25q65 0 95 9
q88 28 154 115q57 77 66 152q1 1 2 1q3 0 8 -3.5t5 -5.5q0 -38 -44 -110q-98 -163 -263 -171q74 -17 74 -71zM335 555q-2 4 -12.5 15t-11.5 11q-40 -3 -40 -46v-261q0 -60 1 -61q23 -54 37 -48q-14 29 -14 50v306q0 13 8.5 24.5t20.5 11.5q6 0 11 -2zM535 305h-40
q-3 -44 -22 -80q-21 -40 -68 -65q-42 -22 -81 -22q-19 0 -42 3q-47 8 -78 57q-27 42 -27 87l-1 246q0 35 20 70q23 41 58 41q50 0 97 -62q62 -81 103 -104q27 -15 32 -17q20 -10 41 -11q2 0 2 2q0 4 -6 13q-8 29 -22 82l-23 86q-16 17 -22 17q1 0 -20.5 -9.5t-37.5 -9.5
q-3 0 -58 22q-35 15 -78 15q-119 0 -184 -87q-58 -78 -58 -198q0 -123 72.5 -198t196.5 -75q66 0 129 31q80 37 103 105q10 27 10 33zM166 604q3 -9 -6 -13q-9 -3 -12 6q-4 9 6 13q9 3 12 -6zM145 575q4 -12 -8 -17q-12 -4 -16 8q-5 12 7 16q12 5 17 -7zM131 539
q5 -16 -10 -21q-16 -6 -22 10q-5 15 10 21q16 6 22 -10zM124 494q6 -18 -12 -25q-19 -7 -26 12q-7 18 12 25t26 -12zM143 390l-43 -63l-47 64l46 60zM116 389l-17 24l-18 -23l18 -26zM130 278q-7 -18 -26 -12q-18 7 -12 26q7 19 26 12t12 -26zM137 234q-6 -16 -22 -10
q-15 5 -9 21q5 15 21 10q15 -6 10 -21zM155 198q-5 -12 -17 -8q-12 5 -7 17q4 12 16 7q12 -4 8 -16zM178 169q-3 -9 -12 -6t-6 12t12 6q10 -3 6 -12z" />
    <glyph glyph-name="Eacute" unicode="&#xc9;" horiz-adv-x="683" 
d="M654 346q-1 0 -10 1q-65 2 -155 43v-96q36 21 75 21q17 -9 86 -54q-52 -121 -70 -260l-511 -1l-64 121q-4 42 0 43q73 13 73 80v239q-14 16 -41 25l1 12q4 0 20 -8.5t18 -8.5v13q0 17 -41 32l-32 83v39l498 1l75 -61q5 -51 10 -91q12 -97 24 -122q-32 0 -75 14.5
t-68 33.5q-37 34 -75 68q-56 47 -81 47v-105q1 -9 5 -9q6 0 17 30h34q21 -18 82 -69v-132q11 0 25 13l1 121q77 -39 164 -48q-31 136 -37 235l14 -7q6 -59 21 -144q7 -38 14 -75zM680 234q-14 -31 -38 -126q-24 -98 -28 -144h-529q0 1 -5 7t-5 8q0 1 2 1q-19 0 254 -2
q168 -1 271 2q1 4 2 11q18 146 65 251q3 0 11 -8zM557 297h-19q-6 1 -42 -14q-16 -6 -109 -68q-78 -53 -114 -53h-48v222l40 -1q41 0 47 -2q21 -9 26 -49l22 -2v132h-20q-5 -33 -30 -41q-3 -1 -35 -3q-10 -1 -50 0v204q5 10 15 10q84 0 191 -113q10 -10 35.5 -23t32 -13
t27.5 -3q-26 78 -35 177h-474v-18q24 -5 46 -22q28 -23 28 -53v-310q0 -95 -77 -100v-26h484q12 88 59 169zM406 249q-38 34 -87 74l-1 -128q26 6 50 24zM203 401l-46 -63l-41 62l42 59zM178 398l-19 24l-17 -23l18 -26zM151 191q4 9 12 6q9 -3 6 -12t-12 -6q-9 4 -6 12z
M149 222q4 12 16 8q12 -5 7 -17q-4 -11 -16 -7q-11 4 -7 16zM144 260q6 15 21 9q16 -5 10 -21q-6 -15 -21 -9q-15 5 -10 21zM140 306q7 18 25 11t12 -25q-7 -18 -26 -11q-18 7 -11 25zM162 607q-3 -9 -12 -6q-9 4 -6 13q4 9 13 5q9 -3 5 -12zM165 576q-5 -11 -16 -7
q-12 4 -8 16q5 12 16 7q12 -4 8 -16zM169 539q-6 -16 -21 -10t-9 21q5 15 21 10q15 -6 9 -21zM174 493q-7 -19 -26 -12q-18 7 -11 25q7 19 25 12t12 -25zM397 747q-9 0 -201 -43l-3 8q157 88 174 102q5 5 11 5q19 0 30 -32q3 -8 3 -16q0 -24 -14 -24z" />
    <glyph glyph-name="Ntilde" unicode="&#xd1;" horiz-adv-x="719" 
d="M716 526q-49 4 -53 -32v-220q0 -53 12 -63q4 -7 23 -23v-122q-62 -25 -162 -103l-4 8q24 24 89 63q32 18 63 36v115q-35 21 -35 61v250q5 42 55 43v72q4 -1 12 -5v-80zM678 574q-52 -23 -52 -71v-182v-19v-24q0 -56 14 -76q11 -15 29 -28v-87q-59 -23 -155 -97
q-24 37 -65 100q-66 95 -200 283v-204q3 -20 20 -57q11 -13 30 -22v-90h-234q-2 3 -31 58.5t-29 57.5l-1 44q34 2 55.5 24t21.5 54v250q-9 15 -33 23v11q20 -5 25 -10t7 -5q0 20 -8.5 30t-27.5 9q-3 10 -22 44q-16 31 -16 35v46l214 1l130 -61l139 -175v42q0 25 -1 50
q-17 24 -42 28l-43 81v34h208l67 -45v-52zM334 72l-1 -106l-253 1l-7 11l247 1v102q3 0 14 -9zM604 646v15h-189v-18q63 -3 80 -37q7 -15 7 -66v-209q0 -7 1 -44l-294 371h-189v-25q10 0 19 -1q16 -1 34 -13q9 -6 16 -20.5t7 -20.5v-346q0 -31 -22.5 -55t-55.5 -29v-25h180
v27q-24 0 -45 18q-28 22 -28 63v332q11 -10 327 -451q62 33 160 83l-5 10q-35 7 -49 20q-26 25 -26 93v258q0 64 72 70zM242 140q-6 16 -6 30v219l-23 24v-228q0 -7 9 -23.5t20 -21.5zM191 599q3 -12 -9 -15q-12 -2 -14 9q-3 12 9 15t14 -9zM218 567q4 -15 -11 -19
q-15 -3 -19 12q-3 15 12 18q15 4 18 -11zM250 530q5 -19 -14 -23q-19 -5 -24 14q-4 19 15 24q19 4 23 -15zM287 485q6 -22 -17 -27q-22 -5 -28 17q-5 23 18 28q22 5 27 -18zM375 413q-2 -20 -9 -74q-20 7 -75 37l4 73zM416 307q5 -20 -16 -25t-25 16q-5 21 16 25
q21 5 25 -16zM446 260q4 -17 -13 -21q-18 -4 -22 13t14 21q17 4 21 -13zM470 226q3 -14 -10 -17t-16 10q-4 14 10 17q13 3 16 -10zM487 195q3 -10 -8 -13q-10 -2 -12 8t8 13q10 2 12 -8zM350 401l-30 11l-2 -25l27 -13zM272 806q29 0 64.5 -16t74.5 -16q17 0 27.5 11
t14.5 11q18 2 21 -5t5 -15q-26 -33 -45 -44q-24 -15 -64 -15q-16 0 -55.5 16t-68.5 16q-12 0 -25.5 -12t-25.5 -12q-20 0 -20 12q0 18 34.5 43.5t62.5 25.5z" />
    <glyph glyph-name="Odieresis" unicode="&#xd6;" horiz-adv-x="668" 
d="M669 302q0 -133 -77 -228q-89 -112 -246 -112q-81 0 -152 35q-83 41 -128 121q2 4 6 11q-73 114 -73 266q0 106 66 187q78 96 215 95q55 -1 142 -29q4 0 5 4t5 4q8 0 49 -19q51 -23 102 -83q46 -54 61 -97q25 -71 25 -155zM652 302q0 201 -143 295q90 -79 106 -179
q7 -40 7 -82q0 -111 -45 -194q-52 -97 -155 -132q-49 -16 -78 -16h-22q-85 0 -169 52q23 -26 83 -47q56 -20 92 -20h21q150 0 233 109q70 91 70 214zM522 378q0 78 -26 142q-37 92 -121 123q-59 23 -97 23q-125 0 -198 -88q-64 -75 -64 -179q0 -99 54 -177q70 -100 199 -100
q89 0 152 43q71 48 89 136q12 63 12 77zM363 193q0 -8 -12 -18q-35 -26 -71 -26q-72 0 -90 65v356q11 71 84 71q49 0 72 -35q17 -26 17 -62v-351zM347 199l-1 339q0 13 -19 13q-29 0 -32 -33l-2 -355q33 3 54 36zM489 401l-46 -63l-42 62l43 59zM464 395l-20 27l-17 -23
l19 -26zM396 603q-3 -9 -12 -6t-6 12q4 9 12 6q9 -3 6 -12zM423 572q-4 -12 -16 -7q-12 4 -8 16q5 11 16 7q12 -4 8 -16zM444 535q-6 -16 -21 -10q-16 5 -10 21q6 15 21 9q15 -5 10 -20zM456 489q-6 -19 -25 -12q-18 7 -11 25q6 18 25 12q18 -7 11 -25zM424 218q-4 14 -17 9
q-12 -4 -8 -16q5 -11 16 -7q12 4 9 14zM448 257q-6 16 -21 10q-16 -5 -10 -21q6 -15 21 -9q15 5 10 20zM460 303q-6 19 -25 12q-18 -7 -11 -25q6 -18 25 -12q18 7 11 25zM408 182q0 12 -15 12q-12 0 -12 -11q0 -14 12 -14q15 0 15 13zM61 401l46 -63l42 62l-43 59zM86 395
l19 27l17 -23l-18 -26zM154 603q3 -9 12 -6t5 12q-3 9 -12 6t-5 -12zM127 572q4 -12 16 -7q12 4 7 16q-4 11 -16 7q-11 -4 -7 -16zM106 535q6 -16 21 -10q15 5 10 21q-6 15 -21 9q-15 -5 -10 -20zM93 489q7 -19 25 -12q19 7 12 25t-25 12q-18 -7 -12 -25zM126 218q4 14 17 9
q12 -4 7 -16q-4 -11 -16 -7q-11 4 -8 14zM102 257q6 16 21 10q15 -5 10 -21q-6 -15 -21 -9q-15 5 -10 20zM89 303q7 19 25 12q19 -7 12 -25t-25 -12q-18 7 -12 25zM142 182q0 12 14 12q13 0 13 -11q0 -14 -13 -14q-14 0 -14 13zM358 716q-17 0 -28.5 12t-11.5 28
q0 17 11.5 29t28.5 12t28.5 -12t11.5 -29q0 -16 -11.5 -28t-28.5 -12zM214 716q-17 0 -28.5 12t-11.5 28q0 17 11.5 29t28.5 12t28.5 -12t11.5 -29q0 -16 -11.5 -28t-28.5 -12z" />
    <glyph glyph-name="Udieresis" unicode="&#xdc;" horiz-adv-x="736" 
d="M726 596v-24q1 -15 1 -23q0 -13 -1 -27l-8 1q-19 1 -34 -9.5t-16 -28.5l-2 -241q0 -22 21 -55t21 -36q0 -27 -38 -69q-126 -139 -284 -139q-53 0 -115 13q-73 17 -103 42q-1 11 7 11l7 -4q88 -50 198 -50q83 0 164.5 41.5t129.5 109.5q22 32 22 42q0 1 -22 38t-22 57v241
q0 17 18 33.5t36 16.5q4 0 8 -2v8q0 12 -1.5 33t-1.5 30zM692 554q-41 -7 -54 -33q-10 -19 -10 -66l1 -219q0 -36 27 -68l9 -10l5 -6q0 -10 -27 -44q-102 -130 -261 -130q-70 0 -151 28q-95 34 -120 85q-48 98 -48 120v1q28 20 38 39l3 6v1v-1q-1 43 0 111q1 87 1 111
q0 17 -25.5 26.5t-28.5 18.5q3 3 7 3q8 0 21 -8l20 -12l-2 9q-22 36 -50 32l-39 80l1 42h334q8 0 66 -61l1 -62q-20 -5 -40 -11q-22 -9 -22 -32v-310q0 -44 21 -52l3 335q0 49 71 49q23 0 43 -12h6q-2 9 -4 17q-4 13 -19 13l-54 89l1 40h210q9 0 34 -22q16 -14 33 -29z
M498 451q0 2 -2 44q-5 8 -24.5 13.5t-32.5 5.5q-18 0 -33 -7q-19 -9 -19 -24v-340h30q22 0 47.5 19t29.5 41t4 38v210zM619 635l-6 22l-182 -2v-16q31 -2 55.5 -31t24.5 -60l-1 -312q0 -105 -126 -105q-55 0 -90 22q-42 27 -42 79l2 316q0 36 23.5 62t58.5 23v22h-309v-24
q45 -5 70 -39q21 -31 21 -78v-259q0 -10 -18.5 -28t-18.5 -19q0 -9 40 -45q75 -68 217 -68q75 0 142 30q78 34 107 93q-20 11 -33.5 34.5t-13.5 46.5l-1 249q0 36 22.5 62t57.5 25zM180 601q-9 0 -9 10q0 9 10 9q9 0 9 -10q0 -9 -10 -9zM180 568q-12 0 -12 13q0 12 12 12
q13 0 13 -12q0 -13 -13 -13zM182 528q-16 0 -16 16q0 17 16 17q17 0 17 -17q0 -16 -17 -16zM185 480q-20 0 -20 19q0 20 20 20q19 0 19 -20q0 -19 -19 -19zM230 401l-47 -63l-41 62l42 59zM204 400l-19 22l-17 -23l18 -23zM191 229q15 0 15 -13t-13 -13t-13 12q0 14 11 14z
M184 268q16 0 16 -16t-16 -16q-19 0 -19 17q0 15 19 15zM182 316q20 0 20 -19q0 -20 -20 -20q-19 0 -19 20q0 19 19 19zM197 182q0 12 14 12q13 0 13 -11q0 -14 -13 -14q-14 0 -14 13zM428 716q-17 0 -28.5 12t-11.5 28q0 17 11.5 29t28.5 12t28.5 -12t11.5 -29
q0 -16 -11.5 -28t-28.5 -12zM284 716q-17 0 -28.5 12t-11.5 28q0 17 11.5 29t28.5 12t28.5 -12t11.5 -29q0 -16 -11.5 -28t-28.5 -12z" />
    <glyph glyph-name="aacute" unicode="&#xe1;" horiz-adv-x="750" 
d="M743 130v-165h-353l-10 14l345 1l1 142q-16 19 -33 38q-40 52 -60 111q-1 2 -34 83q-31 76 -103 262l22 -15l132 -328q24 -59 60 -106q17 -19 33 -37zM708 114q1 -1 -1 -114h-332l-54 131v27h21q37 0 41 32q0 3 2 15h-142q-9 -18 -9 -24q0 -26 18 -41t44 -11v-129h-230
q-11 28 -35 74t-24 44q2 17 0 47q61 -1 82 54l-33 67l1 38h92l51 98l-26 15l4 11l28 -13l10 19q-7 8 -30 19l-31 76v44q53 0 102 22q34 15 66 41l28 23q4 0 48 -18q48 -18 62 -28q19 -42 53 -124q18 -43 52 -125q16 -41 48 -125l28 -58q24 -45 66 -87zM332 -34h-249l-12 16
l250 1l-1 111l12 -32v-96zM627 144q-13 5 -40 20q-19 14 -48 82q-62 137 -186 412q-9 -12 -67 -46q-35 -19 -74 -26q-14 -2 -40 -9v-20q15 -1 48 -8q14 -5 28.5 -16.5t14.5 -15.5q0 -11 -106 -205h-83v-21h74l-18 -36t-33 -59q-16 -41 -76 -45v-20h182v19q-15 1 -26 5
q-26 11 -29 37q-6 40 30 97l189 -1q23 -51 25 -68q2 -9 2 -17q0 -40 -31 -52q-18 -7 -31 -3v-17h295v13zM327 575q0 -11 -11 -11t-11 11t11 11t11 -11zM342 546q0 -14 -14 -14t-14 14t14 14t14 -14zM361 511q0 -18 -17 -18q-18 0 -18 18t18 18q17 0 17 -18zM383 470
q0 -21 -21 -21t-21 21t21 21t21 -21zM444 391q-6 -19 -21 -69q-18 11 -64 41l24 68zM460 280q0 -20 -19 -20q-20 0 -20 20q0 19 20 19q19 0 19 -19zM475 238q0 -16 -16 -16q-17 0 -17 16q0 17 17 17q16 0 16 -17zM486 205q0 -12 -13 -12q-12 0 -12 12q0 13 12 13
q13 0 13 -13zM359 312h-173q8 10 94 183q29 -62 79 -183zM493 177q0 -9 -10 -9q-9 0 -9 9q0 10 9 10q10 0 10 -10zM420 380l-28 18l-8 -26l27 -19zM332 328l-21 59l-29 -58zM457 747q-9 0 -201 -43l-3 8q157 88 174 102q5 5 11 5q19 0 30 -32q3 -8 3 -16q0 -24 -14 -24z" />
    <glyph glyph-name="agrave" unicode="&#xe0;" horiz-adv-x="750" 
d="M743 130v-165h-353l-10 14l345 1l1 142q-16 19 -33 38q-40 52 -60 111q-1 2 -34 83q-31 76 -103 262l22 -15l132 -328q24 -59 60 -106q17 -19 33 -37zM708 114q1 -1 -1 -114h-332l-54 131v27h21q37 0 41 32q0 3 2 15h-142q-9 -18 -9 -24q0 -26 18 -41t44 -11v-129h-230
q-11 28 -35 74t-24 44q2 17 0 47q61 -1 82 54l-33 67l1 38h92l51 98l-26 15l4 11l28 -13l10 19q-7 8 -30 19l-31 76v44q53 0 102 22q34 15 66 41l28 23q4 0 48 -18q48 -18 62 -28q19 -42 53 -124q18 -43 52 -125q16 -41 48 -125l28 -58q24 -45 66 -87zM332 -34h-249l-12 16
l250 1l-1 111l12 -32v-96zM627 144q-13 5 -40 20q-19 14 -48 82q-62 137 -186 412q-9 -12 -67 -46q-35 -19 -74 -26q-14 -2 -40 -9v-20q15 -1 48 -8q14 -5 28.5 -16.5t14.5 -15.5q0 -11 -106 -205h-83v-21h74l-18 -36t-33 -59q-16 -41 -76 -45v-20h182v19q-15 1 -26 5
q-26 11 -29 37q-6 40 30 97l189 -1q23 -51 25 -68q2 -9 2 -17q0 -40 -31 -52q-18 -7 -31 -3v-17h295v13zM327 575q0 -11 -11 -11t-11 11t11 11t11 -11zM342 546q0 -14 -14 -14t-14 14t14 14t14 -14zM361 511q0 -18 -17 -18q-18 0 -18 18t18 18q17 0 17 -18zM383 470
q0 -21 -21 -21t-21 21t21 21t21 -21zM444 391q-6 -19 -21 -69q-18 11 -64 41l24 68zM460 280q0 -20 -19 -20q-20 0 -20 20q0 19 20 19q19 0 19 -19zM475 238q0 -16 -16 -16q-17 0 -17 16q0 17 17 17q16 0 16 -17zM486 205q0 -12 -13 -12q-12 0 -12 12q0 13 12 13
q13 0 13 -13zM359 312h-173q8 10 94 183q29 -62 79 -183zM493 177q0 -9 -10 -9q-9 0 -9 9q0 10 9 10q10 0 10 -10zM420 380l-28 18l-8 -26l27 -19zM332 328l-21 59l-29 -58zM267 816q-5 5 -12 5q-21 0 -33 -33q-3 -8 -3 -17q0 -27 17 -27q8 0 202 -43l5 12q-79 44 -176 103z
" />
    <glyph glyph-name="acircumflex" unicode="&#xe2;" horiz-adv-x="750" 
d="M743 130v-165h-353l-10 14l345 1l1 142q-16 19 -33 38q-40 52 -60 111q-1 2 -34 83q-31 76 -103 262l22 -15l132 -328q24 -59 60 -106q17 -19 33 -37zM708 114q1 -1 -1 -114h-332l-54 131v27h21q37 0 41 32q0 3 2 15h-142q-9 -18 -9 -24q0 -26 18 -41t44 -11v-129h-230
q-11 28 -35 74t-24 44q2 17 0 47q61 -1 82 54l-33 67l1 38h92l51 98l-26 15l4 11l28 -13l10 19q-7 8 -30 19l-31 76v44q53 0 102 22q34 15 66 41l28 23q4 0 48 -18q48 -18 62 -28q19 -42 53 -124q18 -43 52 -125q16 -41 48 -125l28 -58q24 -45 66 -87zM332 -34h-249l-12 16
l250 1l-1 111l12 -32v-96zM627 144q-13 5 -40 20q-19 14 -48 82q-62 137 -186 412q-9 -12 -67 -46q-35 -19 -74 -26q-14 -2 -40 -9v-20q15 -1 48 -8q14 -5 28.5 -16.5t14.5 -15.5q0 -11 -106 -205h-83v-21h74l-18 -36t-33 -59q-16 -41 -76 -45v-20h182v19q-15 1 -26 5
q-26 11 -29 37q-6 40 30 97l189 -1q23 -51 25 -68q2 -9 2 -17q0 -40 -31 -52q-18 -7 -31 -3v-17h295v13zM327 575q0 -11 -11 -11t-11 11t11 11t11 -11zM342 546q0 -14 -14 -14t-14 14t14 14t14 -14zM361 511q0 -18 -17 -18q-18 0 -18 18t18 18q17 0 17 -18zM383 470
q0 -21 -21 -21t-21 21t21 21t21 -21zM444 391q-6 -19 -21 -69q-18 11 -64 41l24 68zM460 280q0 -20 -19 -20q-20 0 -20 20q0 19 20 19q19 0 19 -19zM475 238q0 -16 -16 -16q-17 0 -17 16q0 17 17 17q16 0 16 -17zM486 205q0 -12 -13 -12q-12 0 -12 12q0 13 12 13
q13 0 13 -13zM359 312h-173q8 10 94 183q29 -62 79 -183zM493 177q0 -9 -10 -9q-9 0 -9 9q0 10 9 10q10 0 10 -10zM420 380l-28 18l-8 -26l27 -19zM332 328l-21 59l-29 -58zM345 742l-131 -47l-4 10q39 33 113 91q12 15 20 15q6 0 21 -13l114 -90l-4 -9z" />
    <glyph glyph-name="adieresis" unicode="&#xe4;" horiz-adv-x="750" 
d="M743 130v-165h-353l-10 14l345 1l1 142q-16 19 -33 38q-40 52 -60 111q-1 2 -34 83q-31 76 -103 262l22 -15l132 -328q24 -59 60 -106q17 -19 33 -37zM708 114q1 -1 -1 -114h-332l-54 131v27h21q37 0 41 32q0 3 2 15h-142q-9 -18 -9 -24q0 -26 18 -41t44 -11v-129h-230
q-11 28 -35 74t-24 44q2 17 0 47q61 -1 82 54l-33 67l1 38h92l51 98l-26 15l4 11l28 -13l10 19q-7 8 -30 19l-31 76v44q53 0 102 22q34 15 66 41l28 23q4 0 48 -18q48 -18 62 -28q19 -42 53 -124q18 -43 52 -125q16 -41 48 -125l28 -58q24 -45 66 -87zM332 -34h-249l-12 16
l250 1l-1 111l12 -32v-96zM627 144q-13 5 -40 20q-19 14 -48 82q-62 137 -186 412q-9 -12 -67 -46q-35 -19 -74 -26q-14 -2 -40 -9v-20q15 -1 48 -8q14 -5 28.5 -16.5t14.5 -15.5q0 -11 -106 -205h-83v-21h74l-18 -36t-33 -59q-16 -41 -76 -45v-20h182v19q-15 1 -26 5
q-26 11 -29 37q-6 40 30 97l189 -1q23 -51 25 -68q2 -9 2 -17q0 -40 -31 -52q-18 -7 -31 -3v-17h295v13zM327 575q0 -11 -11 -11t-11 11t11 11t11 -11zM342 546q0 -14 -14 -14t-14 14t14 14t14 -14zM361 511q0 -18 -17 -18q-18 0 -18 18t18 18q17 0 17 -18zM383 470
q0 -21 -21 -21t-21 21t21 21t21 -21zM444 391q-6 -19 -21 -69q-18 11 -64 41l24 68zM460 280q0 -20 -19 -20q-20 0 -20 20q0 19 20 19q19 0 19 -19zM475 238q0 -16 -16 -16q-17 0 -17 16q0 17 17 17q16 0 16 -17zM486 205q0 -12 -13 -12q-12 0 -12 12q0 13 12 13
q13 0 13 -13zM359 312h-173q8 10 94 183q29 -62 79 -183zM493 177q0 -9 -10 -9q-9 0 -9 9q0 10 9 10q10 0 10 -10zM420 380l-28 18l-8 -26l27 -19zM332 328l-21 59l-29 -58zM408 716q-17 0 -28.5 12t-11.5 28q0 17 11.5 29t28.5 12t28.5 -12t11.5 -29q0 -16 -11.5 -28
t-28.5 -12zM264 716q-17 0 -28.5 12t-11.5 28q0 17 11.5 29t28.5 12t28.5 -12t11.5 -29q0 -16 -11.5 -28t-28.5 -12z" />
    <glyph glyph-name="atilde" unicode="&#xe3;" horiz-adv-x="750" 
d="M743 130v-165h-353l-10 14l345 1l1 142q-16 19 -33 38q-40 52 -60 111q-1 2 -34 83q-31 76 -103 262l22 -15l132 -328q24 -59 60 -106q17 -19 33 -37zM708 114q1 -1 -1 -114h-332l-54 131v27h21q37 0 41 32q0 3 2 15h-142q-9 -18 -9 -24q0 -26 18 -41t44 -11v-129h-230
q-11 28 -35 74t-24 44q2 17 0 47q61 -1 82 54l-33 67l1 38h92l51 98l-26 15l4 11l28 -13l10 19q-7 8 -30 19l-31 76v44q53 0 102 22q34 15 66 41l28 23q4 0 48 -18q48 -18 62 -28q19 -42 53 -124q18 -43 52 -125q16 -41 48 -125l28 -58q24 -45 66 -87zM332 -34h-249l-12 16
l250 1l-1 111l12 -32v-96zM627 144q-13 5 -40 20q-19 14 -48 82q-62 137 -186 412q-9 -12 -67 -46q-35 -19 -74 -26q-14 -2 -40 -9v-20q15 -1 48 -8q14 -5 28.5 -16.5t14.5 -15.5q0 -11 -106 -205h-83v-21h74l-18 -36t-33 -59q-16 -41 -76 -45v-20h182v19q-15 1 -26 5
q-26 11 -29 37q-6 40 30 97l189 -1q23 -51 25 -68q2 -9 2 -17q0 -40 -31 -52q-18 -7 -31 -3v-17h295v13zM327 575q0 -11 -11 -11t-11 11t11 11t11 -11zM342 546q0 -14 -14 -14t-14 14t14 14t14 -14zM361 511q0 -18 -17 -18q-18 0 -18 18t18 18q17 0 17 -18zM383 470
q0 -21 -21 -21t-21 21t21 21t21 -21zM444 391q-6 -19 -21 -69q-18 11 -64 41l24 68zM460 280q0 -20 -19 -20q-20 0 -20 20q0 19 20 19q19 0 19 -19zM475 238q0 -16 -16 -16q-17 0 -17 16q0 17 17 17q16 0 16 -17zM486 205q0 -12 -13 -12q-12 0 -12 12q0 13 12 13
q13 0 13 -13zM359 312h-173q8 10 94 183q29 -62 79 -183zM493 177q0 -9 -10 -9q-9 0 -9 9q0 10 9 10q10 0 10 -10zM420 380l-28 18l-8 -26l27 -19zM332 328l-21 59l-29 -58zM272 806q29 0 64.5 -16t74.5 -16q17 0 27.5 11t14.5 11q18 2 21 -5t5 -15q-26 -33 -45 -44
q-24 -15 -64 -15q-16 0 -55.5 16t-68.5 16q-12 0 -25.5 -12t-25.5 -12q-20 0 -20 12q0 18 34.5 43.5t62.5 25.5z" />
    <glyph glyph-name="aring" unicode="&#xe5;" horiz-adv-x="750" 
d="M743 130v-165h-353l-10 14l345 1l1 142q-16 19 -33 38q-40 52 -60 111q-1 2 -34 83q-31 76 -103 262l22 -15l132 -328q24 -59 60 -106q17 -19 33 -37zM708 114q1 -1 -1 -114h-332l-54 131v27h21q37 0 41 32q0 3 2 15h-142q-9 -18 -9 -24q0 -26 18 -41t44 -11v-129h-230
q-11 28 -35 74t-24 44q2 17 0 47q61 -1 82 54l-33 67l1 38h92l51 98l-26 15l4 11l28 -13l10 19q-7 8 -30 19l-31 76v44q53 0 102 22q34 15 66 41l28 23q4 0 48 -18q48 -18 62 -28q19 -42 53 -124q18 -43 52 -125q16 -41 48 -125l28 -58q24 -45 66 -87zM332 -34h-249l-12 16
l250 1l-1 111l12 -32v-96zM627 144q-13 5 -40 20q-19 14 -48 82q-62 137 -186 412q-9 -12 -67 -46q-35 -19 -74 -26q-14 -2 -40 -9v-20q15 -1 48 -8q14 -5 28.5 -16.5t14.5 -15.5q0 -11 -106 -205h-83v-21h74l-18 -36t-33 -59q-16 -41 -76 -45v-20h182v19q-15 1 -26 5
q-26 11 -29 37q-6 40 30 97l189 -1q23 -51 25 -68q2 -9 2 -17q0 -40 -31 -52q-18 -7 -31 -3v-17h295v13zM327 575q0 -11 -11 -11t-11 11t11 11t11 -11zM342 546q0 -14 -14 -14t-14 14t14 14t14 -14zM361 511q0 -18 -17 -18q-18 0 -18 18t18 18q17 0 17 -18zM383 470
q0 -21 -21 -21t-21 21t21 21t21 -21zM444 391q-6 -19 -21 -69q-18 11 -64 41l24 68zM460 280q0 -20 -19 -20q-20 0 -20 20q0 19 20 19q19 0 19 -19zM475 238q0 -16 -16 -16q-17 0 -17 16q0 17 17 17q16 0 16 -17zM486 205q0 -12 -13 -12q-12 0 -12 12q0 13 12 13
q13 0 13 -13zM359 312h-173q8 10 94 183q29 -62 79 -183zM493 177q0 -9 -10 -9q-9 0 -9 9q0 10 9 10q10 0 10 -10zM420 380l-28 18l-8 -26l27 -19zM332 328l-21 59l-29 -58z" />
    <glyph glyph-name="ccedilla" unicode="&#xe7;" horiz-adv-x="670" 
d="M667 309q-4 -3 -15 -3q-61 0 -134 35q-83 41 -106 99h11q63 -87 171 -113q23 -5 31 -6l21 -1q-8 26 -20 91q-14 55 -30 162q11 2 13 -9q5 -33 30 -155q13 -63 28 -100zM426 -109q0 -42 -32 -65q-28 -20 -73 -20q-19 0 -41 10q-26 13 -26 29q0 21 20 21q7 0 17.5 -9
t25.5 -9q33 0 33 42q0 31 -32.5 41t-32.5 30q0 1 1 4q-32 5 -55 12q-51 16 -100 56q-74 60 -90 132q3 2 9 8q10 -66 91 -128q76 -57 148 -67q4 14 7 24q-130 14 -215 135q-78 111 -78 247q0 127 67 209q73 88 199 88q41 0 82 -18t51 -18q21 0 51 24l105 -74q12 -62 22 -109
q24 -112 34 -129q-54 -1 -134 48q-59 37 -90 71q-11 11 -34 43q-20 26 -20 25q-27 0 -27 -17v-315q0 -15 9 -33q11 -24 27 -24q55 0 98 56q39 53 37 107q14 4 69 -3q4 0 40.5 -21.5t36.5 -26.5q0 -26 -34 -99q-37 -78 -116 -125q-71 -42 -142 -43l-5 -25q65 0 95 9
q88 28 154 115q57 77 66 152q1 1 2 1q3 0 8 -3.5t5 -5.5q0 -38 -44 -110q-98 -163 -263 -171q74 -17 74 -71zM335 555q-2 4 -12.5 15t-11.5 11q-40 -3 -40 -46v-261q0 -60 1 -61q23 -54 37 -48q-14 29 -14 50v306q0 13 8.5 24.5t20.5 11.5q6 0 11 -2zM535 305h-40
q-3 -44 -22 -80q-21 -40 -68 -65q-42 -22 -81 -22q-19 0 -42 3q-47 8 -78 57q-27 42 -27 87l-1 246q0 35 20 70q23 41 58 41q50 0 97 -62q62 -81 103 -104q27 -15 32 -17q20 -10 41 -11q2 0 2 2q0 4 -6 13q-8 29 -22 82l-23 86q-16 17 -22 17q1 0 -20.5 -9.5t-37.5 -9.5
q-3 0 -58 22q-35 15 -78 15q-119 0 -184 -87q-58 -78 -58 -198q0 -123 72.5 -198t196.5 -75q66 0 129 31q80 37 103 105q10 27 10 33zM166 604q3 -9 -6 -13q-9 -3 -12 6q-4 9 6 13q9 3 12 -6zM145 575q4 -12 -8 -17q-12 -4 -16 8q-5 12 7 16q12 5 17 -7zM131 539
q5 -16 -10 -21q-16 -6 -22 10q-5 15 10 21q16 6 22 -10zM124 494q6 -18 -12 -25q-19 -7 -26 12q-7 18 12 25t26 -12zM143 390l-43 -63l-47 64l46 60zM116 389l-17 24l-18 -23l18 -26zM130 278q-7 -18 -26 -12q-18 7 -12 26q7 19 26 12t12 -26zM137 234q-6 -16 -22 -10
q-15 5 -9 21q5 15 21 10q15 -6 10 -21zM155 198q-5 -12 -17 -8q-12 5 -7 17q4 12 16 7q12 -4 8 -16zM178 169q-3 -9 -12 -6t-6 12t12 6q10 -3 6 -12z" />
    <glyph glyph-name="eacute" unicode="&#xe9;" horiz-adv-x="683" 
d="M654 346q-1 0 -10 1q-65 2 -155 43v-96q36 21 75 21q17 -9 86 -54q-52 -121 -70 -260l-511 -1l-64 121q-4 42 0 43q73 13 73 80v239q-14 16 -41 25l1 12q4 0 20 -8.5t18 -8.5v13q0 17 -41 32l-32 83v39l498 1l75 -61q5 -51 10 -91q12 -97 24 -122q-32 0 -75 14.5
t-68 33.5q-37 34 -75 68q-56 47 -81 47v-105q1 -9 5 -9q6 0 17 30h34q21 -18 82 -69v-132q11 0 25 13l1 121q77 -39 164 -48q-31 136 -37 235l14 -7q6 -59 21 -144q7 -38 14 -75zM680 234q-14 -31 -38 -126q-24 -98 -28 -144h-529q0 1 -5 7t-5 8q0 1 2 1q-19 0 254 -2
q168 -1 271 2q1 4 2 11q18 146 65 251q3 0 11 -8zM557 297h-19q-6 1 -42 -14q-16 -6 -109 -68q-78 -53 -114 -53h-48v222l40 -1q41 0 47 -2q21 -9 26 -49l22 -2v132h-20q-5 -33 -30 -41q-3 -1 -35 -3q-10 -1 -50 0v204q5 10 15 10q84 0 191 -113q10 -10 35.5 -23t32 -13
t27.5 -3q-26 78 -35 177h-474v-18q24 -5 46 -22q28 -23 28 -53v-310q0 -95 -77 -100v-26h484q12 88 59 169zM406 249q-38 34 -87 74l-1 -128q26 6 50 24zM203 401l-46 -63l-41 62l42 59zM178 398l-19 24l-17 -23l18 -26zM151 191q4 9 12 6q9 -3 6 -12t-12 -6q-9 4 -6 12z
M149 222q4 12 16 8q12 -5 7 -17q-4 -11 -16 -7q-11 4 -7 16zM144 260q6 15 21 9q16 -5 10 -21q-6 -15 -21 -9q-15 5 -10 21zM140 306q7 18 25 11t12 -25q-7 -18 -26 -11q-18 7 -11 25zM162 607q-3 -9 -12 -6q-9 4 -6 13q4 9 13 5q9 -3 5 -12zM165 576q-5 -11 -16 -7
q-12 4 -8 16q5 12 16 7q12 -4 8 -16zM169 539q-6 -16 -21 -10t-9 21q5 15 21 10q15 -6 9 -21zM174 493q-7 -19 -26 -12q-18 7 -11 25q7 19 25 12t12 -25zM397 747q-9 0 -201 -43l-3 8q157 88 174 102q5 5 11 5q19 0 30 -32q3 -8 3 -16q0 -24 -14 -24z" />
    <glyph glyph-name="egrave" unicode="&#xe8;" horiz-adv-x="683" 
d="M654 346q-1 0 -10 1q-65 2 -155 43v-96q36 21 75 21q17 -9 86 -54q-52 -121 -70 -260l-511 -1l-64 121q-4 42 0 43q73 13 73 80v239q-14 16 -41 25l1 12q4 0 20 -8.5t18 -8.5v13q0 17 -41 32l-32 83v40h498l75 -61q5 -51 10 -91q12 -97 24 -122q-32 0 -75 14.5t-68 33.5
q-37 34 -75 68q-56 47 -81 47v-105q1 -9 5 -9q6 0 17 30h34q21 -18 82 -69v-132q11 0 25 13l1 121q77 -39 164 -48q-31 136 -37 235l14 -7q6 -59 21 -144q7 -38 14 -75zM680 234q-14 -31 -38 -126q-24 -98 -28 -144h-529q0 1 -5 7t-5 8q0 1 2 1q-19 0 254 -2q168 -1 271 2
q1 4 2 11q18 146 65 251q3 0 11 -8zM557 297h-19q-6 1 -42 -14q-16 -6 -109 -68q-78 -53 -114 -53h-48v222l40 -1q41 0 47 -2q21 -9 26 -49l22 -2v132h-20q-5 -33 -30 -41q-3 -1 -35 -3q-10 -1 -50 0v204q5 10 15 10q84 0 191 -113q10 -10 35.5 -23t32 -13t27.5 -3
q-26 78 -35 177h-474v-18q24 -5 46 -22q28 -23 28 -53v-310q0 -95 -77 -100v-26h484q12 88 59 169zM406 249q-38 34 -87 74l-1 -128q26 6 50 24zM203 401l-46 -63l-41 62l42 59zM178 398l-19 24l-17 -23l18 -26zM151 191q4 9 12 6q9 -3 6 -12t-12 -6q-9 4 -6 12zM149 222
q4 12 16 8q12 -5 7 -17q-4 -11 -16 -7q-11 4 -7 16zM144 260q6 15 21 9q16 -5 10 -21q-6 -15 -21 -9q-15 5 -10 21zM140 306q7 18 25 11t12 -25q-7 -18 -26 -11q-18 7 -11 25zM162 607q-3 -9 -12 -6q-9 4 -6 13q4 9 13 5q9 -3 5 -12zM165 576q-5 -11 -16 -7q-12 4 -8 16
q5 12 16 7q12 -4 8 -16zM169 539q-6 -16 -21 -10t-9 21q5 15 21 10q15 -6 9 -21zM174 493q-7 -19 -26 -12q-18 7 -11 25q7 19 25 12t12 -25zM227 816q-5 5 -12 5q-21 0 -33 -33q-3 -8 -3 -17q0 -27 17 -27q8 0 202 -43l5 12q-79 44 -176 103z" />
    <glyph glyph-name="ecircumflex" unicode="&#xea;" horiz-adv-x="683" 
d="M654 346q-1 0 -10 1q-65 2 -155 43v-96q36 21 75 21q17 -9 86 -54q-52 -121 -70 -260l-511 -1l-64 121q-4 42 0 43q73 13 73 80v239q-14 16 -41 25l1 12q4 0 20 -8.5t18 -8.5v13q0 17 -41 32l-32 83l-1 39l499 1l75 -61q5 -51 10 -91q12 -97 24 -122q-32 0 -75 14.5
t-68 33.5q-37 34 -75 68q-56 47 -81 47v-105q1 -9 5 -9q6 0 17 30h34q21 -18 82 -69v-132q11 0 25 13l1 121q77 -39 164 -48q-31 136 -37 235l14 -7q6 -59 21 -144q7 -38 14 -75zM680 234q-14 -31 -38 -126q-24 -98 -28 -144h-529q0 1 -5 7t-5 8q0 1 2 1q-19 0 254 -2
q168 -1 271 2q1 4 2 11q18 146 65 251q3 0 11 -8zM557 297h-19q-6 1 -42 -14q-16 -6 -109 -68q-78 -53 -114 -53h-48v222l40 -1q41 0 47 -2q21 -9 26 -49l22 -2v132h-20q-5 -33 -30 -41q-3 -1 -35 -3q-10 -1 -50 0v204q5 10 15 10q84 0 191 -113q10 -10 35.5 -23t32 -13
t27.5 -3q-26 78 -35 177h-474v-18q24 -5 46 -22q28 -23 28 -53v-310q0 -95 -77 -100v-26h484q12 88 59 169zM406 249q-38 34 -87 74l-1 -128q26 6 50 24zM203 401l-46 -63l-41 62l42 59zM178 398l-19 24l-17 -23l18 -26zM151 191q4 9 12 6q9 -3 6 -12t-12 -6q-9 4 -6 12z
M149 222q4 12 16 8q12 -5 7 -17q-4 -11 -16 -7q-11 4 -7 16zM144 260q6 15 21 9q16 -5 10 -21q-6 -15 -21 -9q-15 5 -10 21zM140 306q7 18 25 11t12 -25q-7 -18 -26 -11q-18 7 -11 25zM162 607q-3 -9 -12 -6q-9 4 -6 13q4 9 13 5q9 -3 5 -12zM165 576q-5 -11 -16 -7
q-12 4 -8 16q5 12 16 7q12 -4 8 -16zM169 539q-6 -16 -21 -10t-9 21q5 15 21 10q15 -6 9 -21zM174 493q-7 -19 -26 -12q-18 7 -11 25q7 19 25 12t12 -25zM285 742l-131 -47l-4 10q39 33 113 91q12 15 20 15q6 0 21 -13l114 -90l-4 -9z" />
    <glyph glyph-name="edieresis" unicode="&#xeb;" horiz-adv-x="683" 
d="M654 346q-1 0 -10 1q-65 2 -155 43v-96q36 21 75 21q17 -9 86 -54q-52 -121 -70 -260l-511 -1l-64 121q-4 42 0 43q73 13 73 80v239q-14 16 -41 25l1 12q4 0 20 -8.5t18 -8.5v13q0 17 -41 32l-32 83v39l498 1l75 -61q5 -51 10 -91q12 -97 24 -122q-32 0 -75 14.5
t-68 33.5q-37 34 -75 68q-56 47 -81 47v-105q1 -9 5 -9q6 0 17 30h34q21 -18 82 -69v-132q11 0 25 13l1 121q77 -39 164 -48q-31 136 -37 235l14 -7q6 -59 21 -144q7 -38 14 -75zM680 234q-14 -31 -38 -126q-24 -98 -28 -144h-529q0 1 -5 7t-5 8q0 1 2 1q-19 0 254 -2
q168 -1 271 2q1 4 2 11q18 146 65 251q3 0 11 -8zM557 297h-19q-6 1 -42 -14q-16 -6 -109 -68q-78 -53 -114 -53h-48v222l40 -1q41 0 47 -2q21 -9 26 -49l22 -2v132h-20q-5 -33 -30 -41q-3 -1 -35 -3q-10 -1 -50 0v204q5 10 15 10q84 0 191 -113q10 -10 35.5 -23t32 -13
t27.5 -3q-26 78 -35 177h-474v-18q24 -5 46 -22q28 -23 28 -53v-310q0 -95 -77 -100v-26h484q12 88 59 169zM406 249q-38 34 -87 74l-1 -128q26 6 50 24zM203 401l-46 -63l-41 62l42 59zM178 398l-19 24l-17 -23l18 -26zM151 191q4 9 12 6q9 -3 6 -12t-12 -6q-9 4 -6 12z
M149 222q4 12 16 8q12 -5 7 -17q-4 -11 -16 -7q-11 4 -7 16zM144 260q6 15 21 9q16 -5 10 -21q-6 -15 -21 -9q-15 5 -10 21zM140 306q7 18 25 11t12 -25q-7 -18 -26 -11q-18 7 -11 25zM162 607q-3 -9 -12 -6q-9 4 -6 13q4 9 13 5q9 -3 5 -12zM165 576q-5 -11 -16 -7
q-12 4 -8 16q5 12 16 7q12 -4 8 -16zM169 539q-6 -16 -21 -10t-9 21q5 15 21 10q15 -6 9 -21zM174 493q-7 -19 -26 -12q-18 7 -11 25q7 19 25 12t12 -25zM358 716q-17 0 -28.5 12t-11.5 28q0 17 11.5 29t28.5 12t28.5 -12t11.5 -29q0 -16 -11.5 -28t-28.5 -12zM214 716
q-17 0 -28.5 12t-11.5 28q0 17 11.5 29t28.5 12t28.5 -12t11.5 -29q0 -16 -11.5 -28t-28.5 -12z" />
    <glyph glyph-name="iacute" unicode="&#xed;" horiz-adv-x="431" 
d="M424 542q-39 -3 -50.5 -19t-11.5 -54v-297q-2 0 -9 10.5t-8 11.5v300q0 61 62 61v57l17 -21v-49zM383 0h-311l-63 122q-5 34 -2 42q73 6 73 99v221q-12 15 -38 24v12q4 0 20 -9t18 -10v15q0 17 -40 32l-33 83v40h159h158l58 -50v-36q-61 -2 -64 -86v-197q0 -96 4 -112
q10 -41 61 -69q1 -102 0 -121zM421 -35l-332 -1l-9 15h326v135q7 0 15 -9v-140zM319 131l-1 19q-86 2 -86 99v313q-2 31 19 53.5t57 22.5v21h-287l1 -20q23 -5 45 -22q28 -23 28 -53l1 -301q0 -103 -75 -111v-21h298zM209 401l-47 -63l-41 62l42 59zM183 398l-19 24l-17 -23
l19 -26zM157 191q3 9 12 6t5 -12q-3 -9 -12 -6q-9 4 -5 12zM154 222q5 12 16 8q12 -5 8 -17q-5 -11 -16 -7q-12 4 -8 16zM150 260q5 15 21 9q15 -5 9 -21q-5 -15 -21 -9q-15 5 -9 21zM145 306q7 18 25 11q19 -7 12 -25t-25 -11t-12 25zM168 607q-4 -9 -13 -6q-9 4 -5 13
q3 9 12 5q9 -3 6 -12zM170 576q-4 -11 -16 -7t-7 16q4 12 16 7q11 -4 7 -16zM174 539q-5 -16 -21 -10q-15 6 -9 21t21 10q15 -6 9 -21zM179 493q-7 -19 -25 -12t-12 25q7 19 25 12q19 -7 12 -25zM277 747q-9 0 -201 -43l-3 8q157 88 174 102q5 5 11 5q19 0 30 -32
q3 -8 3 -16q0 -24 -14 -24z" />
    <glyph glyph-name="igrave" unicode="&#xec;" horiz-adv-x="431" 
d="M424 542q-39 -3 -50.5 -19t-11.5 -54v-297q-2 0 -9 10.5t-8 11.5v300q0 61 62 61v57l17 -21v-49zM383 0h-311l-63 122q-5 34 -2 42q73 6 73 99v221q-12 15 -38 24v12q4 0 20 -9t18 -10v15q0 17 -40 32l-33 83v40h159h158l58 -50v-36q-61 -2 -64 -86v-197q0 -96 4 -112
q10 -41 61 -69q1 -102 0 -121zM421 -35l-332 -1l-9 15h326v135q7 0 15 -9v-140zM319 131l-1 19q-86 2 -86 99v313q-2 31 19 53.5t57 22.5v21h-287l1 -20q23 -5 45 -22q28 -23 28 -53l1 -301q0 -103 -75 -111v-21h298zM209 401l-47 -63l-41 62l42 59zM183 398l-19 24l-17 -23
l19 -26zM157 191q3 9 12 6t5 -12q-3 -9 -12 -6q-9 4 -5 12zM154 222q5 12 16 8q12 -5 8 -17q-5 -11 -16 -7q-12 4 -8 16zM150 260q5 15 21 9q15 -5 9 -21q-5 -15 -21 -9q-15 5 -9 21zM145 306q7 18 25 11q19 -7 12 -25t-25 -11t-12 25zM168 607q-4 -9 -13 -6q-9 4 -5 13
q3 9 12 5q9 -3 6 -12zM170 576q-4 -11 -16 -7t-7 16q4 12 16 7q11 -4 7 -16zM174 539q-5 -16 -21 -10q-15 6 -9 21t21 10q15 -6 9 -21zM179 493q-7 -19 -25 -12t-12 25q7 19 25 12q19 -7 12 -25zM117 816q-5 5 -12 5q-21 0 -33 -33q-3 -8 -3 -17q0 -27 17 -27q8 0 202 -43
l5 12q-79 44 -176 103z" />
    <glyph glyph-name="icircumflex" unicode="&#xee;" horiz-adv-x="431" 
d="M424 542q-39 -3 -50.5 -19t-11.5 -54v-297q-2 0 -9 10.5t-8 11.5v300q0 61 62 61v57l17 -21v-49zM383 0h-311l-63 122q-5 34 -2 42q73 6 73 99v221q-12 15 -38 24v12q4 0 20 -9t18 -10v15q0 17 -40 32l-33 83v40h159h158l58 -50v-36q-61 -2 -64 -86v-197q0 -96 4 -112
q10 -41 61 -69q1 -102 0 -121zM421 -35l-332 -1l-9 15h326v135q7 0 15 -9v-140zM319 131l-1 19q-86 2 -86 99v313q-2 31 19 53.5t57 22.5v21h-287l1 -20q23 -5 45 -22q28 -23 28 -53l1 -301q0 -103 -75 -111v-21h298zM209 401l-47 -63l-41 62l42 59zM183 398l-19 24l-17 -23
l19 -26zM157 191q3 9 12 6t5 -12q-3 -9 -12 -6q-9 4 -5 12zM154 222q5 12 16 8q12 -5 8 -17q-5 -11 -16 -7q-12 4 -8 16zM150 260q5 15 21 9q15 -5 9 -21q-5 -15 -21 -9q-15 5 -9 21zM145 306q7 18 25 11q19 -7 12 -25t-25 -11t-12 25zM168 607q-4 -9 -13 -6q-9 4 -5 13
q3 9 12 5q9 -3 6 -12zM170 576q-4 -11 -16 -7t-7 16q4 12 16 7q11 -4 7 -16zM174 539q-5 -16 -21 -10q-15 6 -9 21t21 10q15 -6 9 -21zM179 493q-7 -19 -25 -12t-12 25q7 19 25 12q19 -7 12 -25zM175 742l-131 -47l-4 10q39 33 113 91q12 15 20 15q6 0 21 -13l114 -90l-4 -9
z" />
    <glyph glyph-name="idieresis" unicode="&#xef;" horiz-adv-x="431" 
d="M424 542q-39 -3 -50.5 -19t-11.5 -54v-297q-2 0 -9 10.5t-8 11.5v300q0 61 62 61v57l17 -21v-49zM383 0h-311l-63 122q-5 34 -2 42q73 6 73 99v221q-12 15 -38 24v12q4 0 20 -9t18 -10v15q0 17 -40 32l-33 83v40h159h158l58 -50v-36q-61 -2 -64 -86v-197q0 -96 4 -112
q10 -41 61 -69q1 -102 0 -121zM421 -35l-332 -1l-9 15h326v135q7 0 15 -9v-140zM319 131l-1 19q-86 2 -86 99v313q-2 31 19 53.5t57 22.5v21h-287l1 -20q23 -5 45 -22q28 -23 28 -53l1 -301q0 -103 -75 -111v-21h298zM209 401l-47 -63l-41 62l42 59zM183 398l-19 24l-17 -23
l19 -26zM157 191q3 9 12 6t5 -12q-3 -9 -12 -6q-9 4 -5 12zM154 222q5 12 16 8q12 -5 8 -17q-5 -11 -16 -7q-12 4 -8 16zM150 260q5 15 21 9q15 -5 9 -21q-5 -15 -21 -9q-15 5 -9 21zM145 306q7 18 25 11q19 -7 12 -25t-25 -11t-12 25zM168 607q-4 -9 -13 -6q-9 4 -5 13
q3 9 12 5q9 -3 6 -12zM170 576q-4 -11 -16 -7t-7 16q4 12 16 7q11 -4 7 -16zM174 539q-5 -16 -21 -10q-15 6 -9 21t21 10q15 -6 9 -21zM179 493q-7 -19 -25 -12t-12 25q7 19 25 12q19 -7 12 -25zM238 716q-17 0 -28.5 12t-11.5 28q0 17 11.5 29t28.5 12t28.5 -12t11.5 -29
q0 -16 -11.5 -28t-28.5 -12zM94 716q-17 0 -28.5 12t-11.5 28q0 17 11.5 29t28.5 12t28.5 -12t11.5 -29q0 -16 -11.5 -28t-28.5 -12z" />
    <glyph glyph-name="ntilde" unicode="&#xf1;" horiz-adv-x="719" 
d="M716 526q-49 4 -53 -32v-220q0 -53 12 -63q4 -7 23 -23v-122q-62 -25 -162 -103l-4 8q24 24 89 63q32 18 63 36v115q-35 21 -35 61v250q5 42 55 43v72q4 -1 12 -5v-80zM678 574q-52 -23 -52 -71v-182v-19v-24q0 -56 14 -76q11 -15 29 -28v-87q-59 -23 -155 -97
q-24 37 -65 100q-66 95 -200 283v-204q3 -20 20 -57q11 -13 30 -22v-90h-234q-2 3 -31 58.5t-29 57.5l-1 44q34 2 55.5 24t21.5 54v250q-9 15 -33 23v11q20 -5 25 -10t7 -5q0 20 -8.5 30t-27.5 9q-3 10 -22 44q-16 31 -16 35v46l214 1l130 -61l139 -175v42q0 25 -1 50
q-17 24 -42 28l-43 81v34h208l67 -45v-52zM334 72l-1 -106l-253 1l-7 11l247 1v102q3 0 14 -9zM604 646v15h-189v-18q63 -3 80 -37q7 -15 7 -66v-209q0 -7 1 -44l-294 371h-189v-25q10 0 19 -1q16 -1 34 -13q9 -6 16 -20.5t7 -20.5v-346q0 -31 -22.5 -55t-55.5 -29v-25h180
v27q-24 0 -45 18q-28 22 -28 63v332q11 -10 327 -451q62 33 160 83l-5 10q-35 7 -49 20q-26 25 -26 93v258q0 64 72 70zM242 140q-6 16 -6 30v219l-23 24v-228q0 -7 9 -23.5t20 -21.5zM191 599q3 -12 -9 -15q-12 -2 -14 9q-3 12 9 15t14 -9zM218 567q4 -15 -11 -19
q-15 -3 -19 12q-3 15 12 18q15 4 18 -11zM250 530q5 -19 -14 -23q-19 -5 -24 14q-4 19 15 24q19 4 23 -15zM287 485q6 -22 -17 -27q-22 -5 -28 17q-5 23 18 28q22 5 27 -18zM375 413q-2 -20 -9 -74q-20 7 -75 37l4 73zM416 307q5 -20 -16 -25t-25 16q-5 21 16 25
q21 5 25 -16zM446 260q4 -17 -13 -21q-18 -4 -22 13t14 21q17 4 21 -13zM470 226q3 -14 -10 -17t-16 10q-4 14 10 17q13 3 16 -10zM487 195q3 -10 -8 -13q-10 -2 -12 8t8 13q10 2 12 -8zM350 401l-30 11l-2 -25l27 -13zM272 806q29 0 64.5 -16t74.5 -16q17 0 27.5 11
t14.5 11q18 2 21 -5t5 -15q-26 -33 -45 -44q-24 -15 -64 -15q-16 0 -55.5 16t-68.5 16q-12 0 -25.5 -12t-25.5 -12q-20 0 -20 12q0 18 34.5 43.5t62.5 25.5z" />
    <glyph glyph-name="oacute" unicode="&#xf3;" horiz-adv-x="668" 
d="M669 302q0 -133 -77 -228q-89 -112 -246 -112q-81 0 -152 35q-83 41 -128 121q2 4 6 11q-73 114 -73 266q0 106 66 187q78 96 215 95q55 -1 142 -29q4 0 5 4t5 4q8 0 49 -19q51 -23 102 -83q46 -54 61 -97q25 -71 25 -155zM652 302q0 201 -143 295q90 -79 106 -179
q7 -40 7 -82q0 -111 -45 -194q-52 -97 -155 -132q-49 -16 -78 -16h-22q-85 0 -169 52q23 -26 83 -47q56 -20 92 -20h21q150 0 233 109q70 91 70 214zM522 378q0 78 -26 142q-37 92 -121 123q-59 23 -97 23q-125 0 -198 -88q-64 -75 -64 -179q0 -99 54 -177q70 -100 199 -100
q89 0 152 43q71 48 89 136q12 63 12 77zM363 193q0 -8 -12 -18q-35 -26 -71 -26q-72 0 -90 65v356q11 71 84 71q49 0 72 -35q17 -26 17 -62v-351zM347 199l-1 339q0 13 -19 13q-29 0 -32 -33l-2 -355q33 3 54 36zM489 401l-46 -63l-42 62l43 59zM464 395l-20 27l-17 -23
l19 -26zM396 603q-3 -9 -12 -6t-6 12q4 9 12 6q9 -3 6 -12zM423 572q-4 -12 -16 -7q-12 4 -8 16q5 11 16 7q12 -4 8 -16zM444 535q-6 -16 -21 -10q-16 5 -10 21q6 15 21 9q15 -5 10 -20zM456 489q-6 -19 -25 -12q-18 7 -11 25q6 18 25 12q18 -7 11 -25zM424 218q-4 14 -17 9
q-12 -4 -8 -16q5 -11 16 -7q12 4 9 14zM448 257q-6 16 -21 10q-16 -5 -10 -21q6 -15 21 -9q15 5 10 20zM460 303q-6 19 -25 12q-18 -7 -11 -25q6 -18 25 -12q18 7 11 25zM408 182q0 12 -15 12q-12 0 -12 -11q0 -14 12 -14q15 0 15 13zM61 401l46 -63l42 62l-43 59zM86 395
l19 27l17 -23l-18 -26zM154 603q3 -9 12 -6t5 12q-3 9 -12 6t-5 -12zM127 572q4 -12 16 -7q12 4 7 16q-4 11 -16 7q-11 -4 -7 -16zM106 535q6 -16 21 -10q15 5 10 21q-6 15 -21 9q-15 -5 -10 -20zM93 489q7 -19 25 -12q19 7 12 25t-25 12q-18 -7 -12 -25zM126 218q4 14 17 9
q12 -4 7 -16q-4 -11 -16 -7q-11 4 -8 14zM102 257q6 16 21 10q15 -5 10 -21q-6 -15 -21 -9q-15 5 -10 20zM89 303q7 19 25 12q19 -7 12 -25t-25 -12q-18 7 -12 25zM142 182q0 12 14 12q13 0 13 -11q0 -14 -13 -14q-14 0 -14 13zM387 747q-9 0 -201 -43l-3 8q157 88 174 102
q5 5 11 5q19 0 30 -32q3 -8 3 -16q0 -24 -14 -24z" />
    <glyph glyph-name="ograve" unicode="&#xf2;" horiz-adv-x="668" 
d="M669 302q0 -133 -77 -228q-89 -112 -246 -112q-81 0 -152 35q-83 41 -128 121q2 4 6 11q-73 114 -73 266q0 106 66 187q78 96 215 95q55 -1 142 -29q4 0 5 4t5 4q8 0 49 -19q51 -23 102 -83q46 -54 61 -97q25 -71 25 -155zM652 302q0 201 -143 295q90 -79 106 -179
q7 -40 7 -82q0 -111 -45 -194q-52 -97 -155 -132q-49 -16 -78 -16h-22q-85 0 -169 52q23 -26 83 -47q56 -20 92 -20h21q150 0 233 109q70 91 70 214zM522 378q0 78 -26 142q-37 92 -121 123q-59 23 -97 23q-125 0 -198 -88q-64 -75 -64 -179q0 -99 54 -177q70 -100 199 -100
q89 0 152 43q71 48 89 136q12 63 12 77zM363 193q0 -8 -12 -18q-35 -26 -71 -26q-72 0 -90 65v356q11 71 84 71q49 0 72 -35q17 -26 17 -62v-351zM347 199l-1 339q0 13 -19 13q-29 0 -32 -33l-2 -355q33 3 54 36zM489 401l-46 -63l-42 62l43 59zM464 395l-20 27l-17 -23
l19 -26zM396 603q-3 -9 -12 -6t-6 12q4 9 12 6q9 -3 6 -12zM423 572q-4 -12 -16 -7q-12 4 -8 16q5 11 16 7q12 -4 8 -16zM444 535q-6 -16 -21 -10q-16 5 -10 21q6 15 21 9q15 -5 10 -20zM456 489q-6 -19 -25 -12q-18 7 -11 25q6 18 25 12q18 -7 11 -25zM424 218q-4 14 -17 9
q-12 -4 -8 -16q5 -11 16 -7q12 4 9 14zM448 257q-6 16 -21 10q-16 -5 -10 -21q6 -15 21 -9q15 5 10 20zM460 303q-6 19 -25 12q-18 -7 -11 -25q6 -18 25 -12q18 7 11 25zM408 182q0 12 -15 12q-12 0 -12 -11q0 -14 12 -14q15 0 15 13zM61 401l46 -63l42 62l-43 59zM86 395
l19 27l17 -23l-18 -26zM154 603q3 -9 12 -6t5 12q-3 9 -12 6t-5 -12zM127 572q4 -12 16 -7q12 4 7 16q-4 11 -16 7q-11 -4 -7 -16zM106 535q6 -16 21 -10q15 5 10 21q-6 15 -21 9q-15 -5 -10 -20zM93 489q7 -19 25 -12q19 7 12 25t-25 12q-18 -7 -12 -25zM126 218q4 14 17 9
q12 -4 7 -16q-4 -11 -16 -7q-11 4 -8 14zM102 257q6 16 21 10q15 -5 10 -21q-6 -15 -21 -9q-15 5 -10 20zM89 303q7 19 25 12q19 -7 12 -25t-25 -12q-18 7 -12 25zM142 182q0 12 14 12q13 0 13 -11q0 -14 -13 -14q-14 0 -14 13zM237 816q-5 5 -12 5q-21 0 -33 -33
q-3 -8 -3 -17q0 -27 17 -27q8 0 202 -43l5 12q-79 44 -176 103z" />
    <glyph glyph-name="ocircumflex" unicode="&#xf4;" horiz-adv-x="668" 
d="M669 302q0 -133 -77 -228q-89 -112 -246 -112q-81 0 -152 35q-83 41 -128 121q2 4 6 11q-73 114 -73 266q0 106 66 187q78 96 215 95q55 -1 142 -29q4 0 5 4t5 4q8 0 49 -19q51 -23 102 -83q46 -54 61 -97q25 -71 25 -155zM652 302q0 201 -143 295q90 -79 106 -179
q7 -40 7 -82q0 -111 -45 -194q-52 -97 -155 -132q-49 -16 -78 -16h-22q-85 0 -169 52q23 -26 83 -47q56 -20 92 -20h21q150 0 233 109q70 91 70 214zM522 378q0 78 -26 142q-37 92 -121 123q-59 23 -97 23q-125 0 -198 -88q-64 -75 -64 -179q0 -99 54 -177q70 -100 199 -100
q89 0 152 43q71 48 89 136q12 63 12 77zM363 193q0 -8 -12 -18q-35 -26 -71 -26q-72 0 -90 65v356q11 71 84 71q49 0 72 -35q17 -26 17 -62v-351zM347 199l-1 339q0 13 -19 13q-29 0 -32 -33l-2 -355q33 3 54 36zM489 401l-46 -63l-42 62l43 59zM464 395l-20 27l-17 -23
l19 -26zM396 603q-3 -9 -12 -6t-6 12q4 9 12 6q9 -3 6 -12zM423 572q-4 -12 -16 -7q-12 4 -8 16q5 11 16 7q12 -4 8 -16zM444 535q-6 -16 -21 -10q-16 5 -10 21q6 15 21 9q15 -5 10 -20zM456 489q-6 -19 -25 -12q-18 7 -11 25q6 18 25 12q18 -7 11 -25zM424 218q-4 14 -17 9
q-12 -4 -8 -16q5 -11 16 -7q12 4 9 14zM448 257q-6 16 -21 10q-16 -5 -10 -21q6 -15 21 -9q15 5 10 20zM460 303q-6 19 -25 12q-18 -7 -11 -25q6 -18 25 -12q18 7 11 25zM408 182q0 12 -15 12q-12 0 -12 -11q0 -14 12 -14q15 0 15 13zM61 401l46 -63l42 62l-43 59zM86 395
l19 27l17 -23l-18 -26zM154 603q3 -9 12 -6t5 12q-3 9 -12 6t-5 -12zM127 572q4 -12 16 -7q12 4 7 16q-4 11 -16 7q-11 -4 -7 -16zM106 535q6 -16 21 -10q15 5 10 21q-6 15 -21 9q-15 -5 -10 -20zM93 489q7 -19 25 -12q19 7 12 25t-25 12q-18 -7 -12 -25zM126 218q4 14 17 9
q12 -4 7 -16q-4 -11 -16 -7q-11 4 -8 14zM102 257q6 16 21 10q15 -5 10 -21q-6 -15 -21 -9q-15 5 -10 20zM89 303q7 19 25 12q19 -7 12 -25t-25 -12q-18 7 -12 25zM142 182q0 12 14 12q13 0 13 -11q0 -14 -13 -14q-14 0 -14 13zM275 742l-131 -47l-4 10q39 33 113 91
q12 15 20 15q6 0 21 -13l114 -90l-4 -9z" />
    <glyph glyph-name="odieresis" unicode="&#xf6;" horiz-adv-x="668" 
d="M669 302q0 -133 -77 -228q-89 -112 -246 -112q-81 0 -152 35q-83 41 -128 121q2 4 6 11q-73 114 -73 266q0 106 66 187q78 96 215 95q55 -1 142 -29q4 0 5 4t5 4q8 0 49 -19q51 -23 102 -83q46 -54 61 -97q25 -71 25 -155zM652 302q0 201 -143 295q90 -79 106 -179
q7 -40 7 -82q0 -111 -45 -194q-52 -97 -155 -132q-49 -16 -78 -16h-22q-85 0 -169 52q23 -26 83 -47q56 -20 92 -20h21q150 0 233 109q70 91 70 214zM522 378q0 78 -26 142q-37 92 -121 123q-59 23 -97 23q-125 0 -198 -88q-64 -75 -64 -179q0 -99 54 -177q70 -100 199 -100
q89 0 152 43q71 48 89 136q12 63 12 77zM363 193q0 -8 -12 -18q-35 -26 -71 -26q-72 0 -90 65v356q11 71 84 71q49 0 72 -35q17 -26 17 -62v-351zM347 199l-1 339q0 13 -19 13q-29 0 -32 -33l-2 -355q33 3 54 36zM489 401l-46 -63l-42 62l43 59zM464 395l-20 27l-17 -23
l19 -26zM396 603q-3 -9 -12 -6t-6 12q4 9 12 6q9 -3 6 -12zM423 572q-4 -12 -16 -7q-12 4 -8 16q5 11 16 7q12 -4 8 -16zM444 535q-6 -16 -21 -10q-16 5 -10 21q6 15 21 9q15 -5 10 -20zM456 489q-6 -19 -25 -12q-18 7 -11 25q6 18 25 12q18 -7 11 -25zM424 218q-4 14 -17 9
q-12 -4 -8 -16q5 -11 16 -7q12 4 9 14zM448 257q-6 16 -21 10q-16 -5 -10 -21q6 -15 21 -9q15 5 10 20zM460 303q-6 19 -25 12q-18 -7 -11 -25q6 -18 25 -12q18 7 11 25zM408 182q0 12 -15 12q-12 0 -12 -11q0 -14 12 -14q15 0 15 13zM61 401l46 -63l42 62l-43 59zM86 395
l19 27l17 -23l-18 -26zM154 603q3 -9 12 -6t5 12q-3 9 -12 6t-5 -12zM127 572q4 -12 16 -7q12 4 7 16q-4 11 -16 7q-11 -4 -7 -16zM106 535q6 -16 21 -10q15 5 10 21q-6 15 -21 9q-15 -5 -10 -20zM93 489q7 -19 25 -12q19 7 12 25t-25 12q-18 -7 -12 -25zM126 218q4 14 17 9
q12 -4 7 -16q-4 -11 -16 -7q-11 4 -8 14zM102 257q6 16 21 10q15 -5 10 -21q-6 -15 -21 -9q-15 5 -10 20zM89 303q7 19 25 12q19 -7 12 -25t-25 -12q-18 7 -12 25zM142 182q0 12 14 12q13 0 13 -11q0 -14 -13 -14q-14 0 -14 13zM358 716q-17 0 -28.5 12t-11.5 28
q0 17 11.5 29t28.5 12t28.5 -12t11.5 -29q0 -16 -11.5 -28t-28.5 -12zM214 716q-17 0 -28.5 12t-11.5 28q0 17 11.5 29t28.5 12t28.5 -12t11.5 -29q0 -16 -11.5 -28t-28.5 -12z" />
    <glyph glyph-name="otilde" unicode="&#xf5;" horiz-adv-x="668" 
d="M669 302q0 -133 -77 -228q-89 -112 -246 -112q-81 0 -152 35q-83 41 -128 121q2 4 6 11q-73 114 -73 266q0 106 66 187q78 96 215 95q55 -1 142 -29q4 0 5 4t5 4q8 0 49 -19q51 -23 102 -83q46 -54 61 -97q25 -71 25 -155zM652 302q0 201 -143 295q90 -79 106 -179
q7 -40 7 -82q0 -111 -45 -194q-52 -97 -155 -132q-49 -16 -78 -16h-22q-85 0 -169 52q23 -26 83 -47q56 -20 92 -20h21q150 0 233 109q70 91 70 214zM522 378q0 78 -26 142q-37 92 -121 123q-59 23 -97 23q-125 0 -198 -88q-64 -75 -64 -179q0 -99 54 -177q70 -100 199 -100
q89 0 152 43q71 48 89 136q12 63 12 77zM363 193q0 -8 -12 -18q-35 -26 -71 -26q-72 0 -90 65v356q11 71 84 71q49 0 72 -35q17 -26 17 -62v-351zM347 199l-1 339q0 13 -19 13q-29 0 -32 -33l-2 -355q33 3 54 36zM489 401l-46 -63l-42 62l43 59zM464 395l-20 27l-17 -23
l19 -26zM396 603q-3 -9 -12 -6t-6 12q4 9 12 6q9 -3 6 -12zM423 572q-4 -12 -16 -7q-12 4 -8 16q5 11 16 7q12 -4 8 -16zM444 535q-6 -16 -21 -10q-16 5 -10 21q6 15 21 9q15 -5 10 -20zM456 489q-6 -19 -25 -12q-18 7 -11 25q6 18 25 12q18 -7 11 -25zM424 218q-4 14 -17 9
q-12 -4 -8 -16q5 -11 16 -7q12 4 9 14zM448 257q-6 16 -21 10q-16 -5 -10 -21q6 -15 21 -9q15 5 10 20zM460 303q-6 19 -25 12q-18 -7 -11 -25q6 -18 25 -12q18 7 11 25zM408 182q0 12 -15 12q-12 0 -12 -11q0 -14 12 -14q15 0 15 13zM61 401l46 -63l42 62l-43 59zM86 395
l19 27l17 -23l-18 -26zM154 603q3 -9 12 -6t5 12q-3 9 -12 6t-5 -12zM127 572q4 -12 16 -7q12 4 7 16q-4 11 -16 7q-11 -4 -7 -16zM106 535q6 -16 21 -10q15 5 10 21q-6 15 -21 9q-15 -5 -10 -20zM93 489q7 -19 25 -12q19 7 12 25t-25 12q-18 -7 -12 -25zM126 218q4 14 17 9
q12 -4 7 -16q-4 -11 -16 -7q-11 4 -8 14zM102 257q6 16 21 10q15 -5 10 -21q-6 -15 -21 -9q-15 5 -10 20zM89 303q7 19 25 12q19 -7 12 -25t-25 -12q-18 7 -12 25zM142 182q0 12 14 12q13 0 13 -11q0 -14 -13 -14q-14 0 -14 13zM242 806q29 0 64.5 -16t74.5 -16
q17 0 27.5 11t14.5 11q18 2 21 -5t5 -15q-26 -33 -45 -44q-24 -15 -64 -15q-16 0 -55.5 16t-68.5 16q-12 0 -25.5 -12t-25.5 -12q-20 0 -20 12q0 18 34.5 43.5t62.5 25.5z" />
    <glyph glyph-name="uacute" unicode="&#xfa;" horiz-adv-x="736" 
d="M726 596v-24q1 -15 1 -23q0 -13 -1 -27l-8 1q-19 1 -34 -9.5t-16 -28.5l-2 -241q0 -22 21 -55t21 -36q0 -27 -38 -69q-126 -139 -284 -139q-53 0 -115 13q-73 17 -103 42q-1 11 7 11l7 -4q88 -50 198 -50q83 0 164.5 41.5t129.5 109.5q22 32 22 42q0 1 -22 38t-22 57v241
q0 17 18 33.5t36 16.5q4 0 8 -2v8q0 12 -1.5 33t-1.5 30zM692 554q-41 -7 -54 -33q-10 -19 -10 -66l1 -219q0 -36 27 -68l9 -10l5 -6q0 -10 -27 -44q-102 -130 -261 -130q-70 0 -151 28q-95 34 -120 85q-48 98 -48 120v1q28 20 38 39l3 6v1v-1q-1 43 0 111q1 87 1 111
q0 17 -25.5 26.5t-28.5 18.5q3 3 7 3q8 0 21 -8l20 -12l-2 9q-22 36 -50 32l-37 73l-1 49h334q8 0 66 -61l1 -62q-20 -5 -40 -11q-22 -9 -22 -32v-310q0 -44 21 -52l3 335q0 49 71 49q23 0 43 -12h6q-2 9 -4 17q-4 13 -19 13l-54 89l1 40h210q9 0 34 -22q16 -14 33 -29z
M498 451q0 2 -2 44q-5 8 -24.5 13.5t-32.5 5.5q-18 0 -33 -7q-19 -9 -19 -24v-340h30q22 0 47.5 19t29.5 41t4 38v210zM619 635v22l-188 -2v-16q31 -2 55.5 -31t24.5 -60l-1 -312q0 -105 -126 -105q-55 0 -90 22q-42 27 -42 79l2 316q0 36 23.5 62t58.5 23v22h-309v-24
q45 -5 70 -39q21 -31 21 -78v-259q0 -10 -18.5 -28t-18.5 -19q0 -9 40 -45q75 -68 217 -68q75 0 142 30q78 34 107 93q-20 11 -33.5 34.5t-13.5 46.5l-1 249q0 36 22.5 62t57.5 25zM180 601q-9 0 -9 10q0 9 10 9q9 0 9 -10q0 -9 -10 -9zM180 568q-12 0 -12 13q0 12 12 12
q13 0 13 -12q0 -13 -13 -13zM182 528q-16 0 -16 16q0 17 16 17q17 0 17 -17q0 -16 -17 -16zM185 480q-20 0 -20 19q0 20 20 20q19 0 19 -20q0 -19 -19 -19zM230 401l-47 -63l-41 62l42 59zM204 400l-19 22l-17 -23l18 -23zM191 229q15 0 15 -13t-13 -13t-13 12q0 14 11 14z
M184 268q16 0 16 -16t-16 -16q-19 0 -19 17q0 15 19 15zM182 316q20 0 20 -19q0 -20 -20 -20q-19 0 -19 20q0 19 19 19zM197 182q0 12 14 12q13 0 13 -11q0 -14 -13 -14q-14 0 -14 13zM457 737q-9 0 -201 -43l-3 8q157 88 174 102q5 5 11 5q19 0 30 -32q3 -8 3 -16
q0 -24 -14 -24z" />
    <glyph glyph-name="ugrave" unicode="&#xf9;" horiz-adv-x="736" 
d="M726 596v-24q1 -15 1 -23q0 -13 -1 -27l-8 1q-19 1 -34 -9.5t-16 -28.5l-2 -241q0 -22 21 -55t21 -36q0 -27 -38 -69q-126 -139 -284 -139q-53 0 -115 13q-73 17 -103 42q-1 11 7 11l7 -4q88 -50 198 -50q83 0 164.5 41.5t129.5 109.5q22 32 22 42q0 1 -22 38t-22 57v241
q0 17 18 33.5t36 16.5q4 0 8 -2v8q0 12 -1.5 33t-1.5 30zM692 554q-41 -7 -54 -33q-10 -19 -10 -66l1 -219q0 -36 27 -68l9 -10l5 -6q0 -10 -27 -44q-102 -130 -261 -130q-70 0 -151 28q-95 34 -120 85q-48 98 -48 120v1q28 20 38 39l3 6v1v-1q-1 43 0 111q1 87 1 111
q0 17 -25.5 26.5t-28.5 18.5q3 3 7 3q8 0 21 -8l20 -12l-2 9q-22 36 -50 32l-37 73l-1 49h334q8 0 66 -61l1 -62q-20 -5 -40 -11q-22 -9 -22 -32v-310q0 -44 21 -52l3 335q0 49 71 49q23 0 43 -12h6q-2 9 -4 17q-4 13 -19 13l-54 89l1 40h210q9 0 34 -22q16 -14 33 -29z
M498 451q0 2 -2 44q-5 8 -24.5 13.5t-32.5 5.5q-18 0 -33 -7q-19 -9 -19 -24v-340h30q22 0 47.5 19t29.5 41t4 38v210zM619 635l3 22l-191 -2v-16q31 -2 55.5 -31t24.5 -60l-1 -312q0 -105 -126 -105q-55 0 -90 22q-42 27 -42 79l2 316q0 36 23.5 62t58.5 23v22h-309v-24
q45 -5 70 -39q21 -31 21 -78v-259q0 -10 -18.5 -28t-18.5 -19q0 -9 40 -45q75 -68 217 -68q75 0 142 30q78 34 107 93q-20 11 -33.5 34.5t-13.5 46.5l-1 249q0 36 22.5 62t57.5 25zM180 601q-9 0 -9 10q0 9 10 9q9 0 9 -10q0 -9 -10 -9zM180 568q-12 0 -12 13q0 12 12 12
q13 0 13 -12q0 -13 -13 -13zM182 528q-16 0 -16 16q0 17 16 17q17 0 17 -17q0 -16 -17 -16zM185 480q-20 0 -20 19q0 20 20 20q19 0 19 -20q0 -19 -19 -19zM230 401l-47 -63l-41 62l42 59zM204 400l-19 22l-17 -23l18 -23zM191 229q15 0 15 -13t-13 -13t-13 12q0 14 11 14z
M184 268q16 0 16 -16t-16 -16q-19 0 -19 17q0 15 19 15zM182 316q20 0 20 -19q0 -20 -20 -20q-19 0 -19 20q0 19 19 19zM197 182q0 12 14 12q13 0 13 -11q0 -14 -13 -14q-14 0 -14 13zM287 816q-5 5 -12 5q-21 0 -33 -33q-3 -8 -3 -17q0 -27 17 -27q8 0 202 -43l5 12
q-79 44 -176 103z" />
    <glyph glyph-name="ucircumflex" unicode="&#xfb;" horiz-adv-x="736" 
d="M726 596v-24q1 -15 1 -23q0 -13 -1 -27l-8 1q-19 1 -34 -9.5t-16 -28.5l-2 -241q0 -22 21 -55t21 -36q0 -27 -38 -69q-126 -139 -284 -139q-53 0 -115 13q-73 17 -103 42q-1 11 7 11l7 -4q88 -50 198 -50q83 0 164.5 41.5t129.5 109.5q22 32 22 42q0 1 -22 38t-22 57v241
q0 17 18 33.5t36 16.5q4 0 8 -2v8q0 12 -1.5 33t-1.5 30zM692 554q-41 -7 -54 -33q-10 -19 -10 -66l1 -219q0 -36 27 -68l9 -10l5 -6q0 -10 -27 -44q-102 -130 -261 -130q-70 0 -151 28q-95 34 -120 85q-48 98 -48 120v1q28 20 38 39l3 6v1v-1q-1 43 0 111q1 87 1 111
q0 17 -25.5 26.5t-28.5 18.5q3 3 7 3q8 0 21 -8l20 -12l-2 9q-22 36 -50 32l-37 73l-1 49h334q8 0 66 -61l1 -62q-20 -5 -40 -11q-22 -9 -22 -32v-310q0 -44 21 -52l3 335q0 49 71 49q23 0 43 -12h6q-2 9 -4 17q-4 13 -19 13l-54 89l1 40h210q9 0 34 -22q16 -14 33 -29z
M498 451q0 2 -2 44q-5 8 -24.5 13.5t-32.5 5.5q-18 0 -33 -7q-19 -9 -19 -24v-340h30q22 0 47.5 19t29.5 41t4 38v210zM619 635v22l-188 -2v-16q31 -2 55.5 -31t24.5 -60l-1 -312q0 -105 -126 -105q-55 0 -90 22q-42 27 -42 79l2 316q0 36 23.5 62t58.5 23v22h-309v-24
q45 -5 70 -39q21 -31 21 -78v-259q0 -10 -18.5 -28t-18.5 -19q0 -9 40 -45q75 -68 217 -68q75 0 142 30q78 34 107 93q-20 11 -33.5 34.5t-13.5 46.5l-1 249q0 36 22.5 62t57.5 25zM180 601q-9 0 -9 10q0 9 10 9q9 0 9 -10q0 -9 -10 -9zM180 568q-12 0 -12 13q0 12 12 12
q13 0 13 -12q0 -13 -13 -13zM182 528q-16 0 -16 16q0 17 16 17q17 0 17 -17q0 -16 -17 -16zM185 480q-20 0 -20 19q0 20 20 20q19 0 19 -20q0 -19 -19 -19zM230 401l-47 -63l-41 62l42 59zM204 400l-19 22l-17 -23l18 -23zM191 229q15 0 15 -13t-13 -13t-13 12q0 14 11 14z
M184 268q16 0 16 -16t-16 -16q-19 0 -19 17q0 15 19 15zM182 316q20 0 20 -19q0 -20 -20 -20q-19 0 -19 20q0 19 19 19zM197 182q0 12 14 12q13 0 13 -11q0 -14 -13 -14q-14 0 -14 13zM355 742l-131 -47l-4 10q39 33 113 91q12 15 20 15q6 0 21 -13l114 -90l-4 -9z" />
    <glyph glyph-name="udieresis" unicode="&#xfc;" horiz-adv-x="736" 
d="M726 596v-24q1 -15 1 -23q0 -13 -1 -27l-8 1q-19 1 -34 -9.5t-16 -28.5l-2 -241q0 -22 21 -55t21 -36q0 -27 -38 -69q-126 -139 -284 -139q-53 0 -115 13q-73 17 -103 42q-1 11 7 11l7 -4q88 -50 198 -50q83 0 164.5 41.5t129.5 109.5q22 32 22 42q0 1 -22 38t-22 57v241
q0 17 18 33.5t36 16.5q4 0 8 -2v8q0 12 -1.5 33t-1.5 30zM692 554q-41 -7 -54 -33q-10 -19 -10 -66l1 -219q0 -36 27 -68l9 -10l5 -6q0 -10 -27 -44q-102 -130 -261 -130q-70 0 -151 28q-95 34 -120 85q-48 98 -48 120v1q28 20 38 39l3 6v1v-1q-1 43 0 111q1 87 1 111
q0 17 -25.5 26.5t-28.5 18.5q3 3 7 3q8 0 21 -8l20 -12l-2 9q-22 36 -50 32l-39 80l1 42h334q8 0 66 -61l1 -62q-20 -5 -40 -11q-22 -9 -22 -32v-310q0 -44 21 -52l3 335q0 49 71 49q23 0 43 -12h6q-2 9 -4 17q-4 13 -19 13l-54 89l1 40h210q9 0 34 -22q16 -14 33 -29z
M498 451q0 2 -2 44q-5 8 -24.5 13.5t-32.5 5.5q-18 0 -33 -7q-19 -9 -19 -24v-340h30q22 0 47.5 19t29.5 41t4 38v210zM619 635l-6 22l-182 -2v-16q31 -2 55.5 -31t24.5 -60l-1 -312q0 -105 -126 -105q-55 0 -90 22q-42 27 -42 79l2 316q0 36 23.5 62t58.5 23v22h-309v-24
q45 -5 70 -39q21 -31 21 -78v-259q0 -10 -18.5 -28t-18.5 -19q0 -9 40 -45q75 -68 217 -68q75 0 142 30q78 34 107 93q-20 11 -33.5 34.5t-13.5 46.5l-1 249q0 36 22.5 62t57.5 25zM180 601q-9 0 -9 10q0 9 10 9q9 0 9 -10q0 -9 -10 -9zM180 568q-12 0 -12 13q0 12 12 12
q13 0 13 -12q0 -13 -13 -13zM182 528q-16 0 -16 16q0 17 16 17q17 0 17 -17q0 -16 -17 -16zM185 480q-20 0 -20 19q0 20 20 20q19 0 19 -20q0 -19 -19 -19zM230 401l-47 -63l-41 62l42 59zM204 400l-19 22l-17 -23l18 -23zM191 229q15 0 15 -13t-13 -13t-13 12q0 14 11 14z
M184 268q16 0 16 -16t-16 -16q-19 0 -19 17q0 15 19 15zM182 316q20 0 20 -19q0 -20 -20 -20q-19 0 -19 20q0 19 19 19zM197 182q0 12 14 12q13 0 13 -11q0 -14 -13 -14q-14 0 -14 13zM428 716q-17 0 -28.5 12t-11.5 28q0 17 11.5 29t28.5 12t28.5 -12t11.5 -29
q0 -16 -11.5 -28t-28.5 -12zM284 716q-17 0 -28.5 12t-11.5 28q0 17 11.5 29t28.5 12t28.5 -12t11.5 -29q0 -16 -11.5 -28t-28.5 -12z" />
    <glyph glyph-name="dagger" unicode="&#x2020;" 
 />
    <glyph glyph-name="degree" unicode="&#xb0;" horiz-adv-x="230" 
d="M91 685q39 0 66.5 -29t27.5 -69t-27.5 -68.5t-66.5 -28.5q-40 0 -67.5 28.5t-27.5 68.5t27.5 69t67.5 29zM91 655q-27 0 -46 -20t-19 -48t19 -47.5t46 -19.5q26 0 45 19.5t19 47.5t-19 48t-45 20z" />
    <glyph glyph-name="cent" unicode="&#xa2;" horiz-adv-x="395" 
d="M173 128v10q-32 9 -66 29q23 -25 66 -39zM208 66h-35v52q-85 26 -126 100q1 3 4 8q-50 78 -50 182q0 69 40 126q48 68 132 75v62h33v-63q43 -3 112 -22l33 -49v-96q-39 40 -47 46q-25 19 -62 25q-36 7 -36 -33v-233l35 3q39 10 77 42l28 -45l1 -77l-47 -22
q-54 -18 -92 -15v-66zM309 272q-45 -36 -104 -36q-19 0 -41 14q-25 16 -32 39v240q8 52 63 52q71 0 112 -73v62q-11 9 -26 15q-36 15 -86 16q-87 2 -138 -60q-45 -54 -45 -126q0 -70 39 -127q49 -72 140 -72q71 0 117 29zM120 562q3 -7 -3 -9q-7 -2 -9 4t4 9q6 2 8 -4z
M106 542q3 -9 -5 -12q-9 -3 -12 6q-3 8 6 11q8 3 11 -5zM96 517q4 -11 -7 -14q-10 -4 -14 6q-4 11 7 15q10 4 14 -7zM91 486q5 -12 -8 -17t-17 8q-5 13 8 18q13 4 17 -9zM105 415l-29 -44l-33 45l32 41zM86 414l-12 17l-13 -20l12 -14zM89 338q-5 -13 -18 -8t-8 18
q5 12 17 8q13 -5 9 -18zM93 308q-4 -11 -14 -7q-11 4 -7 14q4 11 15 7q10 -4 6 -14zM106 283q-3 -8 -11 -5t-6 10q3 10 12 6q8 -3 5 -11zM119 263q0 -10 -9 -10q-10 0 -10 9t10 9q9 0 9 -8zM224 115q51 4 70 10q16 6 69 36l-1 68l13 -18v-53q-38 -29 -85 -41q-34 -10 -57 -7
v-66h-50l-5 7h46v64zM224 659h9v-45h-9v45z" />
    <glyph glyph-name="sterling" unicode="&#xa3;" horiz-adv-x="720" 
d="M718 234q-14 -30 -37 -126.5t-27 -143.5h-529q0 3 -8 15l525 1q10 53 19 99q24 109 48 163q3 0 9 -8zM24 412h56q-14 49 -13 88q4 67 71 122q63 51 129 51q57 0 92 -10q9 -2 72 -27q6 -2 54 24l39 -175q-13 2 -39 10q-28 14 -71 66q-50 60 -70 75q-23 18 -70 18
q-29 0 -54 -23q-28 -25 -24 -60q6 -53 62 -140q4 -6 13 -19h122v-74h-107q6 -83 -33 -176h89q26 0 113.5 68.5t142.5 71.5q-49 -85 -60 -169h-484v21q81 19 81 98q0 14 -16 43q-12 22 -24 43h-71v74zM608 579l12 -7q47 -230 46 -235q-1 -3 -6 -3q-25 0 -102 44
q-81 47 -122 88q-2 2 -99 105q-16 3 -19 -12q2 -27 58 -110q-8 -2 -11 -2q-5 2 -32.5 52.5t-26.5 61.5q-3 26 24 26q8 0 13 -4q93 -101 133 -134q74 -62 177 -101zM627 381l-46 222l-96 70l-50 -23q-97 38 -168 38q-78 0 -144 -56q-72 -60 -72 -144l8 -61h-51v-101l73 -55
h35l2 -26q3 -63 -74 -82l1 -37l64 -126h513q19 147 68 261q-48 33 -86 54q-46 0 -104 -37q-23 -15 -90 -69q-44 -37 -60 -36h-21q14 28 29 112h96l1 89l-39 55q-60 3 -58 0q-8 5 -38 50q-35 54 -35 82q0 52 41 46q17 -2 26 -5q18 -8 33 -30q39 -55 117 -116.5t125 -74.5z
M356 189l20 83h95v81l7 -7v-81l-95 -1l-19 -73zM218 305l15 75l-61 35l-19 -72zM186 382l23 -13l-7 -28l-22 13zM173 443q-3 -7 -16 -8q-12 -2 -20.5 2t-0.5 21q9 19 29 9q16 -7 8 -24zM148 493q-8 -16 -24 -8q-16 7 -9 24q8 16 24 8q16 -7 9 -24zM156 542q-7 -15 -24 -8
q-16 8 -9 23t23 7q16 -7 10 -22zM175 587q-7 -15 -23 -7q-12 6 -6 19q6 14 19 8q16 -7 10 -20zM184 267q0 24 27 24t27 -24t-27 -24t-27 24zM184 216q0 14 18 14q17 0 17 -14q0 -15 -17 -15q-18 0 -18 15zM172 177q0 12 14 12t14 -12q0 -11 -14 -11t-14 11z" />
    <glyph glyph-name="section" unicode="&#xa7;" 
 />
    <glyph glyph-name="bullet" unicode="&#x2022;" 
 />
    <glyph glyph-name="paragraph" unicode="&#xb6;" 
 />
    <glyph glyph-name="germandbls" unicode="&#xdf;" 
 />
    <glyph glyph-name="registered" unicode="&#xae;" horiz-adv-x="355" 
d="M147 672q83 0 121 -76q16 -30 16 -63q0 -57 -41 -98t-98 -41t-97.5 41t-40.5 98q0 59 41 99t99 40zM144 647q-44 0 -77 -33t-33 -81q0 -47 32.5 -80.5t78.5 -33.5q47 0 79 33.5t32 80.5q0 48 -32.5 81t-79.5 33zM87 611h65q56 0 56 -43q0 -26 -26 -37q20 -7 23 -31
q0 -16 5 -43h-33q-3 5 -4 31q-2 33 -32 33h-20v-64h-34v154zM121 590v-49h23q30 0 30 25q0 24 -28 24h-25z" />
    <glyph glyph-name="copyright" unicode="&#xa9;" horiz-adv-x="765" 
d="M346 -9q-141 0 -241 100.5t-100 241.5q0 145 101 243.5t245 98.5q93 0 174 -51t124 -136q37 -73 37 -155q0 -141 -99.5 -241.5t-240.5 -100.5zM343 623q-114 0 -197.5 -84t-83.5 -206q0 -119 82.5 -204t201.5 -85q117 0 199.5 84.5t82.5 204.5q0 122 -83.5 206t-201.5 84
zM347 139q-86 0 -137 57q-48 54 -48 140t51.5 141.5t136.5 55.5q79 0 127 -52q33 -35 39 -81h-57q-20 68 -109 68q-54 0 -84 -40q-27 -36 -27 -93q0 -55 26 -91q30 -40 84 -40q98 0 113 87h58q-7 -70 -54 -111t-119 -41z" />
    <glyph glyph-name="trademark" unicode="&#x2122;" horiz-adv-x="487" 
d="M356 409l-2 198l-41 -198h-44l-47 198l1 -84v-114h-47v260h85q4 -28 31 -195q10 83 30 195l85 -1v-259h-51zM92 629v-220h-48v220h-35v40h120v-40h-37z" />
    <glyph glyph-name="acute" unicode="&#xb4;" horiz-adv-x="325" 
d="M257 747q-9 0 -201 -43l-3 8q157 88 174 102q5 5 11 5q19 0 30 -32q3 -8 3 -16q0 -24 -14 -24z" />
    <glyph glyph-name="dieresis" unicode="&#xa8;" horiz-adv-x="325" 
d="M238 716q-17 0 -28.5 12t-11.5 28q0 17 11.5 29t28.5 12t28.5 -12t11.5 -29q0 -16 -11.5 -28t-28.5 -12zM94 716q-17 0 -28.5 12t-11.5 28q0 17 11.5 29t28.5 12t28.5 -12t11.5 -29q0 -16 -11.5 -28t-28.5 -12z" />
    <glyph glyph-name="AE" unicode="&#xc6;" horiz-adv-x="993" 
d="M958 347h-9q-65 2 -156 44v-96q36 21 75 21q17 -9 86 -54q-52 -122 -70 -262l-603 1v157q-4 1 33 1q34 0 51 30q1 2 9 17h-138q-8 -9 -20 -24q-5 -12 -5 -22q0 -36 47 -29l-1 -130h-196l-61 117v48q7 0 20.5 1.5t99.5 84.5l-31 35l1 36l101 1l142 150q-2 23 -5 28
q-5 9 -23 11v7q7 2 12 2q23 0 31 -37l7 8q3 11 3 17q0 28 -42 38v44q110 0 169 79l320 1l75 -61q5 -51 10 -91q12 -97 24 -122q-32 0 -75 14.5t-68 33.5q-37 34 -75 68q-56 47 -81 47v-105q1 -9 5 -9q6 0 17 30h34q21 -18 82 -69v-132q11 0 25 13l1 121q77 -39 164 -48
q-31 136 -37 235l14 -7q6 -59 21 -144q7 -38 14 -75zM984 235q-13 -29 -35.5 -126t-26.5 -144l-842 2l-10 15h837q9 53 19 98q23 109 47 163q3 0 11 -8zM710 250q-38 34 -87 74l-1 -128q26 6 50 24zM861 298h-19q-6 1 -42 -14q-16 -6 -109 -68q-78 -53 -114 -53h-47v221h39
q41 0 47 -2q21 -9 26 -49l22 -2v132h-20q-5 -33 -30 -41q-3 -1 -35 -3q-10 -1 -49 0v188q-1 3 -1 6q0 16 23 16q46 0 88 -26q39 -24 95 -83q10 -10 35.5 -23t32 -13t27.5 -3q-26 78 -35 177l-301 -1q-54 -45 -73 -54q-30 -13 -93 -24v-22q11 0 36 -7q12 -5 21 -16.5t8 -15.5
q-5 -11 -196 -205h-96v-22l77 1q-11 -12 -33.5 -36t-58.5 -59q2 0 -24 -22t-47 -23v-20l157 -2l-1 21q-38 2 -38 29q0 43 75 110l188 -1q1 -51 -4 -68q-16 -52 -59 -68q-27 -11 -40 -6q1 -9 0 -15h204q50 0 152 1q86 1 152 0q12 82 60 165zM469 577q-5 -11 -16 -7
q-12 4 -8 16q5 12 16 7q12 -4 8 -16zM473 540q-6 -16 -21 -10t-9 21q5 15 21 10q15 -6 9 -21zM478 494q-7 -19 -26 -12q-18 7 -11 25q7 19 25 12t12 -25zM507 402l-46 -63l-41 62l42 59zM481 293q-7 -18 -26 -11q-18 7 -11 25t25 11t12 -25zM479 249q-6 -15 -21 -9
q-15 5 -10 21q6 15 21 9q16 -5 10 -21zM399 313h-174q13 10 172 185q1 -35 2 -185zM476 214q-4 -11 -16 -7q-11 4 -7 16t16 8q12 -5 7 -17zM473 186q-3 -9 -12 -6q-9 4 -6 12q4 9 12 6q9 -3 6 -12zM482 399l-19 24l-17 -23l18 -26zM384 329v59l-55 -58z" />
    <glyph glyph-name="Oslash" unicode="&#xd8;" horiz-adv-x="668" 
d="M294 355l52 64v119q0 13 -19 13q-29 0 -32 -33zM135 159l11 14q-4 4 -4 9q0 12 14 12q4 0 7 -1l27 34v343q11 71 84 71q49 0 72 -35q17 -26 17 -62v-104l68 84q-9 -2 -15 5.5t-3 16.5q6 15 21 9q10 -3 11 -15l24 31q-36 51 -94.5 73t-96.5 22q-125 0 -198 -88
q-64 -75 -64 -179q0 -64 27 -126q32 -75 92 -114zM346 349l-52 -65l-1 -121q33 3 54 36zM493 529l-130 -160v-176q0 -8 -12 -18q-35 -26 -71 -26q-45 0 -71 30l-33 -40q42 -17 93 -17q89 0 152 43q71 48 89 136q6 29 12 78q1 82 -29 150zM534 579l-3 -3q70 -72 84 -158
q7 -40 7 -82q0 -111 -45 -194q-52 -97 -155 -132q-49 -16 -78 -16h-22q-85 0 -169 52q23 -26 83 -47q56 -20 92 -20h21q150 0 233 109q70 91 70 214q0 181 -118 277zM552 673h57l-64 -80q76 -68 99 -136q25 -71 25 -155q0 -133 -77 -228q-89 -112 -246 -112q-144 0 -236 96
l-52 -64h-57l80 99q-8 12 -15 25q2 4 6 11q-73 114 -73 266q0 106 66 187q78 96 215 95q55 -1 142 -29q4 0 5 4t5 4q8 0 49 -19q14 -6 29 -16zM489 401l-46 -63l-42 62l43 59zM464 395l-20 27l-17 -23l19 -26zM424 218q3 -10 -9 -14q-11 -4 -16 7q-4 12 8 16q13 5 17 -9z
M448 257q5 -15 -10 -20q-15 -6 -21 9q-6 16 10 21q15 6 21 -10zM460 303q7 -18 -11 -25q-19 -6 -25 12q-7 18 11 25q19 7 25 -12zM408 182q0 -13 -15 -13q-12 0 -12 14q0 11 12 11q15 0 15 -12zM396 603q-3 -9 -12 -6t-6 12q4 9 12 6q9 -3 6 -12zM423 572q-4 -12 -16 -7
q-12 4 -8 16q5 11 16 7q12 -4 8 -16zM61 401l45 58l43 -59l-42 -62zM86 395l18 -22l18 26l-17 23zM154 603q-4 9 5 12t12 -6q4 -9 -5 -12t-12 6zM127 572q-4 12 7 16q12 4 16 -7q5 -12 -7 -16q-12 -5 -16 7zM106 535q-5 15 10 20q15 6 21 -9q5 -16 -10 -21q-15 -6 -21 10z
M93 489q-6 18 12 25q18 6 25 -12t-12 -25q-18 -7 -25 12zM126 218q4 14 17 9q12 -4 7 -16q-4 -11 -16 -7q-11 4 -8 14zM102 257q6 16 21 10q15 -5 10 -21q-6 -15 -21 -9q-15 5 -10 20zM89 303q7 19 25 12q19 -7 12 -25t-25 -12q-18 7 -12 25z" />
    <glyph glyph-name="plusminus" unicode="&#xb1;" 
 />
    <glyph glyph-name="yen" unicode="&#xa5;" horiz-adv-x="716" 
d="M607 -33l-390 1l-9 13h385v112l14 -6v-120zM611 639v11.5v5.5h-183v-17q28 -2 45.5 -22.5t17.5 -44.5q0 -21 -52 -98q-30 -46 -60 -91q-18 27 -60 96q-52 88 -52 100q0 23 11.5 35t41.5 25v20h-299v-20q11 -2 25 -5q24 -9 53 -60q47 -78 133 -239q8 -17 8 -31v-88
q-12 -43 -88 -63v-21h332v23q-46 7 -63 17q-22 12 -22 42v84l8 16q3 4 24 19q-33 23 -33 27q0 7 65 107q63 96 88 128q28 36 60 44zM509 322h-18q4 -4 10 -12q2 2 8 12zM111 354h100q-11 19 -31 58q-10 20 -33 48q-20 24 -69 32l-2 14q22 0 53 -17q-4 6 -10 19
q-16 34 -26 37.5t-33 3.5q-5 0 -55 81v40l324 1l78 -65v-41q-21 -16 -21 -26q0 -7 37 -58l43 62q2 7 2 14q0 28 -53 73l-2 41h200q10 -6 31 -21t31 -21q-1 -19 1 -64q-39 -13 -63 -47q-46 -63 -117 -164h35l97 144q29 42 73 45v61l12 -4v-60q-51 -17 -73 -47
q-43 -58 -96 -140h52v-32l-72 1q-13 -21 -13 -23q0 -1 10 -12q-12 -6 -19 -12h103v-32h-73q-10 -12 -10 -30q0 -16 13.5 -39t27.5 -31q-3 -4 -3 -7q-18 2 -35.5 29t-17.5 48q0 15 10 30l-35 1q-3 -12 -3 -27q0 -68 92 -109q-1 -31 1 -106l-375 -1q-59 117 -59 121q0 43 1 45
q32 0 59 17q24 15 29 34q1 11 1 25l-117 1v32l116 -1q0 2 -1 16v15q-7 19 -11 27v0q2 -4 8 -12l-112 1v32zM168 618q2 -12 -10 -14q-12 -1 -14 10q-2 12 10 14t14 -10zM192 584q3 -15 -13 -17q-15 -3 -17 13q-3 15 13 17q15 3 17 -13zM222 546q3 -20 -17 -23q-19 -3 -22 17
q-3 19 16 22q20 3 23 -16zM256 498q3 -22 -19 -26q-23 -4 -27 19t19 27q23 3 27 -20zM329 416q-4 -20 -14 -73q-20 8 -73 42l11 70zM303 404l-28 14l-5 -27l27 -12zM339 301q-6 -19 -25 -12q-18 7 -11 25q6 18 25 12q18 -7 11 -25zM338 257q-6 -15 -21 -10q-15 6 -10 21
q6 15 21 10q16 -6 10 -21zM336 222q-5 -12 -16 -7q-12 4 -8 16q5 11 16 7q12 -4 8 -16zM333 193q-3 -9 -12 -5q-9 3 -6 12t12 5q9 -3 6 -12z" />
    <glyph glyph-name="uni00B5" unicode="&#xb5;" horiz-adv-x="668" 
d="M673 234q-14 -30 -37 -126.5t-27 -143.5h-529q0 3 -8 15l525 1q1 4 2 11q18 146 65 251q3 0 9 -8zM166 400l-18 23l-17 -23l18 -26zM223 339l-61 -25q13 -8 8 -23q-7 -19 -25 -12q-17 6 -12 23l-47 -19v-29q0 -82 -77 -100v-21h484q11 84 60 169q-43 -3 -97 -39
q-42 -33 -86 -67t-68 -34l-79 -1v178zM86 332l51 21l-31 47l42 59l45 -58l-26 -36l56 22v174q0 32 20 54.5t56 22.5l-1 21h-286v-20q74 -14 74 -91v-216zM-4 297l74 29q-2 104 1 158q-12 15 -39 24l1 12q4 0 20 -9t18 -10v15q0 17 -41 32l-32 83v39h317l58 -49v-36
q-65 -2 -65 -86v-78l24 9v65q11 59 66 60v51l15 -21v-43q-39 -3 -52.5 -18.5t-13.5 -54.5v-33l82 33v-45l-82 -34v-183l-14 -9v186l-25 -10v-195q19 -2 62 33q70 56 87 67q56 36 102 36q17 -9 86 -54q-52 -121 -70 -260h-511l-64 125l-1 37q36 9 56 36q18 24 17 53l-1 25
l-75 -31v51zM155 607q-3 -9 -12 -6q-9 4 -6 13q4 9 13 5q9 -3 5 -12zM158 576q-5 -11 -16 -7q-12 4 -8 16q5 12 16 7q12 -4 8 -16zM163 539q-6 -16 -21 -10t-9 21q5 15 21 10q15 -6 9 -21zM169 493q-7 -19 -26 -12q-18 7 -11 25q7 19 25 12t12 -25zM169 247q-6 -15 -21 -10
q-15 6 -10 21q6 15 21 10q15 -6 10 -21zM165 212q-4 -12 -16 -7q-11 4 -7 16q4 11 16 7t7 -16zM161 183q-3 -9 -12 -5q-9 3 -5 12q3 9 12 5q9 -3 5 -12z" />
    <glyph glyph-name="uni00B5" unicode="&#x3bc;" horiz-adv-x="668" 
d="M673 234q-14 -30 -37 -126.5t-27 -143.5h-529q0 3 -8 15l525 1q1 4 2 11q18 146 65 251q3 0 9 -8zM166 400l-18 23l-17 -23l18 -26zM223 339l-61 -25q13 -8 8 -23q-7 -19 -25 -12q-17 6 -12 23l-47 -19v-29q0 -82 -77 -100v-21h484q11 84 60 169q-43 -3 -97 -39
q-42 -33 -86 -67t-68 -34l-79 -1v178zM86 332l51 21l-31 47l42 59l45 -58l-26 -36l56 22v174q0 32 20 54.5t56 22.5l-1 21h-286v-20q74 -14 74 -91v-216zM-4 297l74 29q-2 104 1 158q-12 15 -39 24l1 12q4 0 20 -9t18 -10v15q0 17 -41 32l-32 83v39h317l58 -49v-36
q-65 -2 -65 -86v-78l24 9v65q11 59 66 60v51l15 -21v-43q-39 -3 -52.5 -18.5t-13.5 -54.5v-33l82 33v-45l-82 -34v-183l-14 -9v186l-25 -10v-195q19 -2 62 33q70 56 87 67q56 36 102 36q17 -9 86 -54q-52 -121 -70 -260h-511l-64 125l-1 37q36 9 56 36q18 24 17 53l-1 25
l-75 -31v51zM155 607q-3 -9 -12 -6q-9 4 -6 13q4 9 13 5q9 -3 5 -12zM158 576q-5 -11 -16 -7q-12 4 -8 16q5 12 16 7q12 -4 8 -16zM163 539q-6 -16 -21 -10t-9 21q5 15 21 10q15 -6 9 -21zM169 493q-7 -19 -26 -12q-18 7 -11 25q7 19 25 12t12 -25zM169 247q-6 -15 -21 -10
q-15 6 -10 21q6 15 21 10q15 -6 10 -21zM165 212q-4 -12 -16 -7q-11 4 -7 16q4 11 16 7t7 -16zM161 183q-3 -9 -12 -5q-9 3 -5 12q3 9 12 5q9 -3 5 -12z" />
    <glyph glyph-name="ordfeminine" unicode="&#xaa;" horiz-adv-x="701" 
d="M691 587l-276 -356q41 28 81 55q56 36 87 36q6 0 78 -51q-19 -37 -32 -131q-11 -86 -8 -139h-551q-29 65 -60 123v43l184 230q-1 0 -32.5 -14t-49.5 -13v11q33 7 47 12q24 9 43 25q24 20 55 60q39 53 50 64q-50 -41 -99 -83q-67 -57 -105 -57q-11 0 -63 83l40 186h502
q38 -18 77 -45q0 -8 -1 -21l-326 -423q11 2 40 15l308 395q-2 9 -1 13h11zM657 -35l-555 -1l-8 10l1 4l547 -1l-1 22q-2 154 37 253l13 -8q-38 -115 -34 -279zM582 308q-47 -3 -118 -60q-82 -65 -110 -75q-36 -12 -152 -12l361 473v22h-470q-11 -56 -38 -167q9 -2 14 -2
t16 4q15 5 17 6q29 7 87 54q69 57 89 68q25 13 78 13h37l-2 -3q-1 -2 -115 -146l-253 -323v-29h518q14 116 41 177zM449 582q-11 -6 -17 5q-6 10 5 16t17 -4q5 -11 -5 -17zM425 548q-13 -8 -21 6q-7 13 6 21q14 7 21 -6q8 -14 -6 -21zM399 507q-17 -10 -27 7q-9 17 8 27
q17 9 27 -8q9 -17 -8 -26zM366 459q-20 -12 -31 9q-11 20 9 31t31 -9t-9 -31zM321 354q-20 -3 -74 -12q1 22 15 83l71 16zM231 285q-19 -10 -29 9q-11 19 8 29t29 -8q10 -19 -8 -30zM193 244q-15 -9 -24 7q-9 15 7 24t24 -7q9 -16 -7 -24zM167 211q-12 -7 -19 5q-6 13 6 19
q12 7 18 -5q7 -12 -5 -19zM142 186q-9 -5 -14 4q-5 10 4 15t14 -4q5 -10 -4 -15zM302 375l3 32l-25 -5l-5 -30zM363 782l131 46l4 -9q-39 -33 -112 -91q-13 -15 -21 -15q-5 0 -21 12l-114 90l4 10z" />
    <glyph glyph-name="ordmasculine" unicode="&#xba;" horiz-adv-x="701" 
d="M691 587l-276 -356q41 28 81 55q56 36 87 36q6 0 78 -51q-19 -37 -32 -131q-11 -86 -8 -139h-551q-29 65 -60 123v43l184 230q-1 0 -32.5 -14t-49.5 -13v11q33 7 47 12q24 9 43 25q24 20 55 60q39 53 50 64q-50 -41 -99 -83q-67 -57 -105 -57q-11 0 -63 83l40 186h502
q38 -18 77 -45q0 -8 -1 -21l-326 -423q11 2 40 15l308 395q-2 9 -1 13h11zM657 -35l-555 -1l-8 10l1 4l547 -1l-1 22q-2 154 37 253l13 -8q-38 -115 -34 -279zM582 308q-47 -3 -118 -60q-82 -65 -110 -75q-36 -12 -152 -12l361 473v22h-470q-11 -56 -38 -167q9 -2 14 -2
t16 4q15 5 17 6q29 7 87 54q69 57 89 68q25 13 78 13h37l-2 -3q-1 -2 -115 -146l-253 -323v-29h518q14 116 41 177zM449 582q-11 -6 -17 5q-6 10 5 16t17 -4q5 -11 -5 -17zM425 548q-13 -8 -21 6q-7 13 6 21q14 7 21 -6q8 -14 -6 -21zM399 507q-17 -10 -27 7q-9 17 8 27
q17 9 27 -8q9 -17 -8 -26zM366 459q-20 -12 -31 9q-11 20 9 31t31 -9t-9 -31zM321 354q-20 -3 -74 -12q1 22 15 83l71 16zM231 285q-19 -10 -29 9q-11 19 8 29t29 -8q10 -19 -8 -30zM193 244q-15 -9 -24 7q-9 15 7 24t24 -7q9 -16 -7 -24zM167 211q-12 -7 -19 5q-6 13 6 19
q12 7 18 -5q7 -12 -5 -19zM142 186q-9 -5 -14 4q-5 10 4 15t14 -4q5 -10 -4 -15zM302 375l3 32l-25 -5l-5 -30zM363 782l131 46l4 -9q-39 -33 -112 -91q-13 -15 -21 -15q-5 0 -21 12l-114 90l4 10z" />
    <glyph glyph-name="ae" unicode="&#xe6;" horiz-adv-x="993" 
d="M958 347h-9q-65 2 -156 44v-96q36 21 75 21q17 -9 86 -54q-52 -122 -70 -262l-603 1v157q-4 1 33 1q34 0 51 30q1 2 9 17h-138q-8 -9 -20 -24q-5 -12 -5 -22q0 -36 47 -29l-1 -130h-196l-61 117v48q7 0 20.5 1.5t99.5 84.5l-31 35l1 36l101 1l142 150q-2 23 -5 28
q-5 9 -23 11v7q7 2 12 2q23 0 31 -37l7 8q3 11 3 17q0 28 -42 38v44q110 0 169 79l320 1l75 -61q5 -51 10 -91q12 -97 24 -122q-32 0 -75 14.5t-68 33.5q-37 34 -75 68q-56 47 -81 47v-105q1 -9 5 -9q6 0 17 30h34q21 -18 82 -69v-132q11 0 25 13l1 121q77 -39 164 -48
q-31 136 -37 235l14 -7q6 -59 21 -144q7 -38 14 -75zM984 235q-13 -29 -35.5 -126t-26.5 -144l-842 2l-10 15h837q9 53 19 98q23 109 47 163q3 0 11 -8zM710 250q-38 34 -87 74l-1 -128q26 6 50 24zM861 298h-19q-6 1 -42 -14q-16 -6 -109 -68q-78 -53 -114 -53h-47v221h39
q41 0 47 -2q21 -9 26 -49l22 -2v132h-20q-5 -33 -30 -41q-3 -1 -35 -3q-10 -1 -49 0v188q-1 3 -1 6q0 16 23 16q46 0 88 -26q39 -24 95 -83q10 -10 35.5 -23t32 -13t27.5 -3q-26 78 -35 177l-301 -1q-54 -45 -73 -54q-30 -13 -93 -24v-22q11 0 36 -7q12 -5 21 -16.5t8 -15.5
q-5 -11 -196 -205h-96v-22l77 1q-11 -12 -33.5 -36t-58.5 -59q2 0 -24 -22t-47 -23v-20l157 -2l-1 21q-38 2 -38 29q0 43 75 110l188 -1q1 -51 -4 -68q-16 -52 -59 -68q-27 -11 -40 -6q1 -9 0 -15h204q50 0 152 1q86 1 152 0q12 82 60 165zM469 577q-5 -11 -16 -7
q-12 4 -8 16q5 12 16 7q12 -4 8 -16zM473 540q-6 -16 -21 -10t-9 21q5 15 21 10q15 -6 9 -21zM478 494q-7 -19 -26 -12q-18 7 -11 25q7 19 25 12t12 -25zM507 402l-46 -63l-41 62l42 59zM481 293q-7 -18 -26 -11q-18 7 -11 25t25 11t12 -25zM479 249q-6 -15 -21 -9
q-15 5 -10 21q6 15 21 9q16 -5 10 -21zM399 313h-174q13 10 172 185q1 -35 2 -185zM476 214q-4 -11 -16 -7q-11 4 -7 16t16 8q12 -5 7 -17zM473 186q-3 -9 -12 -6q-9 4 -6 12q4 9 12 6q9 -3 6 -12zM482 399l-19 24l-17 -23l18 -26zM384 329v59l-55 -58z" />
    <glyph glyph-name="oslash" unicode="&#xf8;" horiz-adv-x="668" 
d="M294 355l52 64v119q0 13 -19 13q-29 0 -32 -33zM135 159l11 14q-4 4 -4 9q0 12 14 12q4 0 7 -1l27 34v343q11 71 84 71q49 0 72 -35q17 -26 17 -62v-104l68 84q-9 -2 -15 5.5t-3 16.5q6 15 21 9q10 -3 11 -15l24 31q-36 51 -94.5 73t-96.5 22q-125 0 -198 -88
q-64 -75 -64 -179q0 -64 27 -126q32 -75 92 -114zM346 349l-52 -65l-1 -121q33 3 54 36zM493 529l-130 -160v-176q0 -8 -12 -18q-35 -26 -71 -26q-45 0 -71 30l-33 -40q42 -17 93 -17q89 0 152 43q71 48 89 136q6 29 12 78q1 82 -29 150zM534 579l-3 -3q70 -72 84 -158
q7 -40 7 -82q0 -111 -45 -194q-52 -97 -155 -132q-49 -16 -78 -16h-22q-85 0 -169 52q23 -26 83 -47q56 -20 92 -20h21q150 0 233 109q70 91 70 214q0 181 -118 277zM552 673h57l-64 -80q76 -68 99 -136q25 -71 25 -155q0 -133 -77 -228q-89 -112 -246 -112q-144 0 -236 96
l-52 -64h-57l80 99q-8 12 -15 25q2 4 6 11q-73 114 -73 266q0 106 66 187q78 96 215 95q55 -1 142 -29q4 0 5 4t5 4q8 0 49 -19q14 -6 29 -16zM489 401l-46 -63l-42 62l43 59zM464 395l-20 27l-17 -23l19 -26zM424 218q3 -10 -9 -14q-11 -4 -16 7q-4 12 8 16q13 5 17 -9z
M448 257q5 -15 -10 -20q-15 -6 -21 9q-6 16 10 21q15 6 21 -10zM460 303q7 -18 -11 -25q-19 -6 -25 12q-7 18 11 25q19 7 25 -12zM408 182q0 -13 -15 -13q-12 0 -12 14q0 11 12 11q15 0 15 -12zM396 603q-3 -9 -12 -6t-6 12q4 9 12 6q9 -3 6 -12zM423 572q-4 -12 -16 -7
q-12 4 -8 16q5 11 16 7q12 -4 8 -16zM61 401l45 58l43 -59l-42 -62zM86 395l18 -22l18 26l-17 23zM154 603q-4 9 5 12t12 -6q4 -9 -5 -12t-12 6zM127 572q-4 12 7 16q12 4 16 -7q5 -12 -7 -16q-12 -5 -16 7zM106 535q-5 15 10 20q15 6 21 -9q5 -16 -10 -21q-15 -6 -21 10z
M93 489q-6 18 12 25q18 6 25 -12t-12 -25q-18 -7 -25 12zM126 218q4 14 17 9q12 -4 7 -16q-4 -11 -16 -7q-11 4 -8 14zM102 257q6 16 21 10q15 -5 10 -21q-6 -15 -21 -9q-15 5 -10 20zM89 303q7 19 25 12q19 -7 12 -25t-25 -12q-18 7 -12 25z" />
    <glyph glyph-name="questiondown" unicode="&#xbf;" horiz-adv-x="529" 
d="M18 47q0 56 45 105q23 26 114 99q13 10 15 21v14q-46 31 -73.5 74t-27.5 84q0 59 45 104t102 45q48 0 89 -28q46 -30 66 -86q-1 -2 -8 -4t-7 -6q0 -3 7.5 -16.5t9.5 -20.5q15 -49 12 -78q-2 -23 -20.5 -45t-41.5 -32l4 -7q14 -27 14 -42q0 2 -11 -45q17 7 38 7
q42 0 75 -26q15 -12 28 -39q10 -22 10 -30l2 -12q-9 0 -12 -3q6 -9 12 -35.5t6 -38.5q0 -80 -71 -122q-55 -32 -128 -32q-91 0 -166 43q-2 -2 -2 -11l-14 3q-50 11 -82 61q-30 46 -30 99zM135 4q0 -70 57 -107q48 -32 119 -32q67 0 116 27q66 36 66 109q0 74 -60 74
q-21 0 -36.5 -20.5t-15.5 -41.5q0 -13 9 -31q14 -25 35 -25q8 0 23 10.5t17 10.5q3 0 8 -5q-23 -75 -103 -75q-42 0 -67.5 28.5t-25.5 73.5q0 41 34 116.5t34 108.5l-2 19q-32 0 -33 -2q4 -19 -4 -34q-17 -32 -43 -55q-43 -34 -86 -69q-42 -39 -42 -80zM32 51q0 -47 25 -88
q28 -49 78 -62q-77 64 -77 152q0 33 14 57q13 20 51 54q25 19 51 39q34 25 44 44q18 32 18 44q0 5 -23 27q-27 27 -33 35q-39 51 -39 92q0 36 28 72q32 41 76 41q29 0 63 -17q42 -21 63 -57q-17 46 -62 73q-36 22 -69 22q-49 0 -89 -39q-43 -39 -43 -90q0 -43 26 -82
q16 -23 48 -52q26 -24 27 -30q1 -25 -44 -63q-79 -65 -86 -72q-47 -48 -47 -100zM292 13q0 -13 12.5 -25.5t24.5 -12.5q11 0 22 10q-32 33 -32 74q0 37 28.5 62t67.5 25q11 0 34.5 -13t32.5 -27q-5 36 -38 56q-28 15 -62 15q-30 0 -35 -10q-55 -129 -55 -154zM248 358
q0 -25 15 -46q18 -24 45 -24q31 0 54 17q28 20 28 55q0 26 -20 48.5t-50 22.5t-51 -21.5t-21 -51.5zM203 -61q0 9 10 16q7 5 14 5q8 0 14.5 -9t6.5 -15q0 -7 -8.5 -13t-16.5 -6t-14 8t-6 14zM179 28l59 34l18 -57q-17 -11 -54 -32q-5 20 -23 55zM318 -108q0 -13 -12 -13
q-13 0 -13 13q0 10 10 10q15 0 15 -10zM280 -94q0 -19 -17 -19q-16 0 -16 19t16 19q17 0 17 -19zM276 92q0 -20 -19 -20t-19 20t19 20t19 -20zM298 130q0 -16 -16 -16q-15 0 -15 16t15 16q16 0 16 -16zM211 -1l23 14l-8 21l-24 -14z" />
    </font>
</defs>
</svg>
