<?xml version="1.0" standalone="no"?>
<!DOCTYPE svg PUBLIC "-//W3C//DTD SVG 1.1//EN" "http://www.w3.org/Graphics/SVG/1.1/DTD/svg11.dtd" >
<svg>
<metadata>
Created by FontForge 20120731 at Wed Apr 17 20:21:04 2019
 By www-data
Digitized by Dan X. Solo. Software (c) 2000 by Dover Publications, Inc., New York.
</metadata>
<defs>
<font id="HometownNormal" horiz-adv-x="0" >
  <font-face 
    font-family="Hometown"
    font-weight="400"
    font-stretch="normal"
    units-per-em="1000"
    panose-1="0 0 4 0 0 0 0 0 0 0"
    ascent="800"
    descent="-200"
    x-height="668"
    cap-height="669"
    bbox="-34 -193 966 852"
    underline-thickness="20"
    underline-position="-123"
    unicode-range="U+0020-F002"
  />
<missing-glyph horiz-adv-x="500" 
d="M63 0v800h375v-800h-375zM125 63h250v675h-250v-675z" />
    <glyph glyph-name=".notdef" horiz-adv-x="500" 
d="M63 0v800h375v-800h-375zM125 63h250v675h-250v-675z" />
    <glyph glyph-name=".null" 
 />
    <glyph glyph-name="glyph2" horiz-adv-x="192" 
 />
    <glyph glyph-name="space" unicode=" " horiz-adv-x="192" 
 />
    <glyph glyph-name="exclam" unicode="!" horiz-adv-x="322" 
d="M280 669q-56 -121 -77 -224q-22 -109 -22 -282q-47 15 -77 0l-10 196q-5 94 -20 155q-19 77 -64 155q70 -11 137 -11t133 11zM205 112q-15 -53 -3 -119q-38 10 -63 10q-26 0 -54 -10q10 31 10 56t-11 63q66 -12 121 0z" />
    <glyph glyph-name="quotedbl" unicode="&#x22;" horiz-adv-x="351" 
d="M179 667q32 -132 35 -245h46q2 150 29 245h-110zM19 667q32 -132 35 -245h46q2 150 29 245h-110z" />
    <glyph glyph-name="numbersign" unicode="#" horiz-adv-x="489" 
d="M149 260h115q14 85 22 165h-117q-12 -82 -20 -165zM405 260l-10 -72h-82q-7 -101 -8 -187h-96q24 89 42 187h-108q-7 -101 -8 -187h-96q24 89 42 187h-85l10 72h88q14 85 22 165h-83l10 72h79q6 94 3 170h86q-17 -78 -32 -170h113q6 94 3 170h86q-17 -78 -32 -170h94
l-10 -72h-94q-12 -82 -20 -165h86z" />
    <glyph glyph-name="dollar" unicode="$" horiz-adv-x="403" 
d="M171 669h43v-75q4 0 11 1h10q8 -9 35 -36l20 36h45q-9 -104 -1 -139q-3 -1 -30 -1q-26 0 -28 1q-7 19 -13 37q-11 26 -32 35q-14 6 -45 6q-33 0 -51 -24q-16 -20 -16 -49q0 -38 36 -58q29 -16 70 -16q8 0 54 5q37 -56 91 -76q-9 -34 0 -128q-38 -14 -67 -52
q-15 -21 -31 -43l-58 5v-102h-43v102q-19 -2 -44 -5l-39 35l-15 -35h-55l2 186h64q4 -18 7 -36q11 -37 30 -60q28 -32 71 -31q35 1 61 25t26 62q0 25 -18 46t-49 28q-26 6 -52 6q-25 0 -43 -5q-17 18 -32 32q-35 33 -52 40q3 19 3 44q0 37 -6 79q45 33 76 85h65v75z" />
    <glyph glyph-name="percent" unicode="%" horiz-adv-x="665" 
d="M277 490q0 -64 13 -125q-36 -19 -58 -68q-19 3 -57 7l-56 -7q-27 46 -57 67q9 85 9 127q0 35 -9 125q14 6 32.5 24.5t24.5 33.5q27 -8 61 -8q37 0 53 6q19 -35 58 -59q-14 -83 -14 -123zM607 190q0 -64 13 -125q-36 -19 -58 -68q-19 2 -57 7l-56 -7q-27 46 -57 67
q9 85 9 127q0 35 -9 125q14 6 32.5 24.5t24.5 33.5q27 -8 61 -8q37 0 53 6q19 -35 58 -59q-14 -83 -14 -123zM177 624q-53 0 -53 -131q0 -143 50 -143q46 0 50 102q1 25 1 44q0 128 -48 128zM507 324q-53 0 -53 -131q0 -143 50 -143q46 0 50 102q1 25 1 44q0 128 -48 128z
M595 667l-486 -666h-39l487 670z" />
    <glyph glyph-name="ampersand" unicode="&#x26;" horiz-adv-x="587" 
d="M313 390q104 -19 228 0v-82q-5 1 -72 3q-4 -76 25 -206q-18 -9 -55 -50t-43 -55l-261 -2q-15 26 -33 47q-41 50 -87 66q12 34 12 70q0 23 -6 59q-9 58 -10 63q8 4 59 21q38 14 59 30q-19 15 -67 34q-41 16 -41 20q9 51 9 85q0 33 -8 69q22 15 41 31q45 39 63 77
q39 -3 259 0q21 -26 41 -50.5t53 -41.5l-14 -52q-6 -29 -5 -64h-86q0 126 -113 126q-42 0 -71 -29t-29 -76q0 -19 14.5 -42t31.5 -31q14 -8 29 -16q10 -6 20 -6q7 0 17 2v-66h-20q-103 12 -103 -114q0 -55 26 -88q32 -42 99 -40q113 3 108 230q-32 0 -70 -4v82z" />
    <glyph glyph-name="quotesingle" unicode="'" horiz-adv-x="184" 
d="M19 667q32 -132 35 -245h46q2 150 29 245h-110z" />
    <glyph glyph-name="parenleft" unicode="(" horiz-adv-x="272" 
d="M99 -1l-28 60q-19 30 -69 58q22 156 22 234q0 25 -10 118q-9 86 -12 101q68 25 97 102h117v-60q-79 0 -102 -96q-12 -46 -12 -166q0 -296 117 -296v-54z" />
    <glyph glyph-name="parenright" unicode=")" horiz-adv-x="272" 
d="M122 -1l28 60q19 30 69 58q-22 156 -22 234q0 25 10 118q9 86 12 101q-68 25 -97 102h-117v-60q79 0 103 -96q11 -46 11 -166q0 -296 -117 -296v-54z" />
    <glyph glyph-name="asterisk" unicode="*" horiz-adv-x="362" 
d="M117 673h65q-13 -48 -16 -126q52 35 99 80l33 -57q-49 -12 -117 -48q56 -28 119 -46l-33 -57q-35 36 -101 77q5 -63 20 -126h-66q14 48 17 126q-52 -36 -99 -80l-33 57q48 12 117 48q-57 28 -119 46l33 57q35 -36 100 -77q-4 63 -19 126z" />
    <glyph glyph-name="plus" unicode="+" horiz-adv-x="556" 
d="M183 574h110q-24 -84 -28 -219q110 5 228 34v-110q-87 25 -229 29q7 -108 34 -219h-110q24 84 29 219q-108 -7 -219 -34v110q84 -24 219 -29q-7 108 -34 219z" />
    <glyph glyph-name="comma" unicode="," horiz-adv-x="178" 
d="M128 20q-26 -18 -61 -66q-21 -30 -43 -60l-20 10l49 115q-18 -1 -41 -9q10 31 10 56t-11 63q66 -12 121 0q-13 -47 -5 -106z" />
    <glyph glyph-name="hyphen" unicode="-" horiz-adv-x="293" 
d="M2 260h231v-72h-231v72z" />
    <glyph glyph-name="hyphen" unicode="&#x2010;" horiz-adv-x="293" 
d="M2 260h231v-72h-231v72z" />
    <glyph glyph-name="period" unicode="." horiz-adv-x="163" 
d="M118 119q-14 -54 -2 -118q-37 9 -62 9q-26 0 -55 -9q10 30 10 55t-11 63q63 -11 120 0z" />
    <glyph glyph-name="slash" unicode="/" horiz-adv-x="455" 
d="M305 667q-40 -153 -130 -361q-87 -199 -156 -305h96q39 132 124.5 338.5t151.5 327.5q-86 -3 -86 0z" />
    <glyph glyph-name="zero" unicode="0" horiz-adv-x="565" 
d="M501 566q-21 -150 -21 -222q0 -118 27 -225q-54 -23 -94 -62q-31 -31 -42 -59l-242 1q-35 66 -127 118q22 156 22 234q0 25 -10 118q-9 86 -12 101q73 27 127 102l236 -1q15 -20 31 -40q42 -44 105 -65zM371 355q0 237 -123 237q-79 0 -103 -86q-13 -44 -13 -156
q0 -266 118 -266q83 0 109 101q12 49 12 170z" />
    <glyph glyph-name="one" unicode="1" horiz-adv-x="348" 
d="M309 1h-305q10 33 -1 79q45 1 60 7.5t21 27.5q7 29 13 58v204q0 207 -41 209q-8 0 -46 -1v-5q2 3 4 15t2 26q0 24 -6 45q103 -3 216 1q-20 -84 -20 -290v-200q0 -99 80 -99q11 0 23 2q-8 -34 0 -79z" />
    <glyph glyph-name="two" unicode="2" horiz-adv-x="544" 
d="M484 214q-18 -107 -5 -213h-473q8 25 8 41q0 18 -9 37l36 24q79 92 136 169q138 183 143 258q3 40 -37 57q-28 11 -75 9q-110 -4 -111 -180h-70q3 77 -16 148q81 55 108 107q70 -8 125 -8q34 0 120 7q29 -55 133 -136q-75 -53 -178 -197q-105 -147 -105 -207
q0 -23 29 -35q22 -9 49 -9q49 0 78 35.5t29 92.5h85z" />
    <glyph glyph-name="three" unicode="3" horiz-adv-x="540" 
d="M474 111q-67 -24 -117 -110l-263 -1q-6 16 -37 54q-34 42 -51 51q24 40 18 116q95 0 90 -1q-4 -135 101 -138q66 -2 99 40q26 34 26 88q0 50 -35.5 79.5t-86.5 29.5q-9 0 -18 -1q-16 -2 -31 0v75q15 -3 31 -3q44 0 79 18q17 9 33.5 32.5t16.5 42.5q0 47 -29 76.5
t-71 29.5q-74 0 -98 -48q-12 -26 -11 -75h-96q0 34 -5 62l-8 50q35 18 57 39q6 5 45 51q221 -3 259 0q30 -60 96 -105q-8 -35 -8 -69q0 -32 9 -86q0 -4 -41 -20q-48 -19 -67 -34q21 -17 54 -30q51 -20 54 -21q-10 -75 -10 -102q0 -46 15 -90z" />
    <glyph glyph-name="four" unicode="4" horiz-adv-x="543" 
d="M502 169h-115l-1 -60q19 -34 85 -30q-14 -33 0 -79h-308q9 24 9 41t-9 39q78 -3 94 29q10 19 6 61l-258 1q0 -7 3 29q1 16 -6 41q0 2 25 37q29 42 38 58q62 114 142 333q38 -3 95 -2q90 2 96 2l-12 -43q-6 -95 -5 -193q2 -87 3 -174h121q-17 -47 -3 -90zM265 437
q0 55 -9 85q-11 -11 -53 -100q-46 -97 -46 -130q0 -23 15 -30q10 -4 36 -4h58q2 2 1 83q-2 111 -2 96z" />
    <glyph glyph-name="five" unicode="5" horiz-adv-x="561" 
d="M498 352q-19 -85 -19 -116q0 -60 17 -120q-46 -24 -80 -64q-19 -25 -38 -51h-251q-20 23 -41 46q-38 38 -74 52q12 44 13 69q0 1 -1 73q28 -9 52 -9q23 0 58 9q-8 -160 105 -160q51 0 85 39t34 94q0 66 -42 104q-37 33 -91 33q-52 0 -108 -37l-79 48q19 72 19 78
q9 37 9 89q0 47 -9 79q0 4 -17 61h422v-105q-39 10 -82 21q-65 4 -94 4q-93 0 -96 -25q0 3 0 -124q15 -4 40.5 -10t51.5 -6q54 0 99 20q34 -56 117 -92z" />
    <glyph glyph-name="six" unicode="6" horiz-adv-x="588" 
d="M518 124q-34 -10 -78.5 -49t-57.5 -74h-252q-18 39 -50 70q-35 33 -74 43q2 28 15 112q11 70 11 112q0 85 -29 224q95 40 125 106l265 1q22 -68 106 -102q-6 -22 -13 -45q-8 -26 -6 -47h-87q-9 54 -35.5 78.5t-79.5 24.5q-82 0 -109 -70q-15 -40 -15 -139l72 54l171 -1
q20 -40 42 -59q12 -11 36 -22t36 -24q-6 -43 -6 -84q0 -61 13 -109zM385 217q0 51 -31 85.5t-81 34.5q-57 0 -88 -33.5t-31 -91.5q0 -120 121 -120q51 0 82 38q28 35 28 87z" />
    <glyph glyph-name="seven" unicode="7" horiz-adv-x="531" 
d="M362 344q-67 -195 -76 -345q-3 -1 -95 -2q-93 -1 -99 1q19 72 63 172q40 84 79 167q35 65 96 196q4 10 4 19q0 25 -34 36q-26 7 -58 5q-65 -4 -96 -30q-40 -34 -40 -116q-12 -1 -98 -1q2 -2 5 37q4 43 4 86q0 65 -9 100q162 -2 491 0q-50 -108 -137 -325z" />
    <glyph glyph-name="eight" unicode="8" horiz-adv-x="565" 
d="M504 88q-41 -27 -60 -41q-36 -27 -43 -46q-14 1 -156 0h-124q-49 63 -118 89q13 50 13 112q0 48 -9 94q51 13 55 15q35 12 49 29q-17 12 -52 23q-40 13 -51 19q11 35 11 83q0 33 -5.5 70.5t-5.5 31.5q39 19 65 46q15 16 41 55q132 2 267 0q35 -54 111 -97
q-11 -42 -11 -92q0 -46 11 -88q-25 -10 -51 -20q-30 -12 -48 -26q14 -13 54 -28q46 -16 61 -26q-14 -54 -14 -110q0 -47 10 -93zM357 485q0 50 -28.5 78.5t-77.5 28.5q-39 0 -70 -31t-31 -74q0 -41 25 -70q29 -32 77 -32q45 0 75 27.5t30 72.5zM371 195q0 51 -32.5 78
t-83.5 27q-108 0 -108 -108q0 -52 30.5 -80t79.5 -28q50 0 82 28.5t32 82.5z" />
    <glyph glyph-name="nine" unicode="9" horiz-adv-x="588" 
d="M13 545q27 8 68 53q33 36 55 71h265l32 -50q40 -51 92 -64q-2 -27 -15 -111q-11 -69 -11 -113q0 -79 29 -224q-88 -37 -125 -106h-265q-3 8 -6 17q-13 22 -34 42q-29 27 -66 42q6 20 12 41q9 29 7 51h87q10 -58 39 -82q25 -21 76 -21q124 0 124 163v46l-72 -53h-180
q-22 32 -57 59q-47 37 -55 45q11 45 11 101q0 54 -11 93zM146 452q0 -51 31 -85.5t81 -34.5q54 0 86.5 32t32.5 94q0 119 -121 119q-53 0 -83 -40q-27 -34 -27 -85z" />
    <glyph glyph-name="colon" unicode=":" horiz-adv-x="208" 
d="M148 519q-14 -54 -2 -118q-37 9 -62 9q-26 0 -55 -9q10 30 10 55t-11 63q63 -11 120 0zM148 119q-14 -54 -2 -118q-37 9 -62 9q-26 0 -55 -9q10 30 10 55t-11 63q63 -11 120 0z" />
    <glyph glyph-name="semicolon" unicode=";" horiz-adv-x="206" 
d="M148 10q-26 -18 -61 -66q-21 -30 -43 -60l-20 10l49 115q-18 -1 -41 -9q10 31 10 56t-11 63q66 -12 121 0q-13 -47 -5 -106zM151 519q-14 -54 -2 -118q-37 9 -62 9q-26 0 -55 -9q10 30 10 55t-11 63q63 -11 120 0z" />
    <glyph glyph-name="less" unicode="&#x3c;" horiz-adv-x="500" 
d="M58 292v91l383 200v-88l-309 -159l309 -158v-87z" />
    <glyph glyph-name="equal" unicode="=" horiz-adv-x="519" 
d="M13 381h442v-71h-442v71zM13 232h442v-70h-442v70z" />
    <glyph glyph-name="greater" unicode="&#x3e;" horiz-adv-x="500" 
d="M59 91v88l309 158l-309 159v87l383 -200v-92z" />
    <glyph glyph-name="question" unicode="?" horiz-adv-x="522" 
d="M272 112q-15 -53 -3 -119q-38 10 -63 10q-26 0 -54 -10q10 31 10 56t-11 63q66 -12 121 0zM451 422q-72 -18 -129 -79t-57 -129q0 -37 -6 -64q-56 15 -96 4q2 13 1 34q-2 30 -2 33.5t-5.5 24.5t-5.5 24q-1 2 20 22q136 134 136 213q0 82 -68 82q-45 0 -77 -41.5
t-32 -90.5q0 -21 7 -39q-32 14 -39 16h-34q-12 0 -19 -2q-10 -3 -20 -4v73q-2 28 -9 46q-9 23 -10 30q34 14 63 37q36 29 41 57q84 -10 126 -10q53 0 122 10q16 -25 44 -51q31 -30 55 -40q-12 -28 -12 -59q0 -12 3.5 -44.5t2.5 -52.5zM-29 -115h-5v10h5v-10z" />
    <glyph glyph-name="at" unicode="@" horiz-adv-x="762" 
d="M699 379q0 -110 -56.5 -179.5t-138.5 -69.5q-92 0 -99 75q-54 -65 -129 -65q-42 0 -71 31q-32 34 -32 94q0 110 59 184q65 82 176 82q60 0 116 -30q-11 -36 -54 -232q-6 -26 -6 -43q0 -39 43 -39q47 0 82 56t35 136q0 102 -73 172q-76 71 -193 71q-122 0 -203 -93
q-77 -89 -77 -211q0 -112 77 -185.5t187 -73.5q65 0 124 19l16 -58q-61 -20 -140 -20q-143 0 -237 82q-102 88 -102 236q0 153 100.5 257t254.5 104q147 0 244 -82.5t97 -217.5zM438 469q-13 6 -36 6q-75 0 -118 -71q-36 -60 -36 -142q0 -60 46 -60q31 0 62 28q37 32 48 85z
" />
    <glyph glyph-name="A" unicode="A" horiz-adv-x="596" 
d="M556 0q-60 9 -146 9q-73 0 -119 -8q2 25 0 78q24 0 41 11q21 12 21 35q0 24 -28 122q-69 -15 -137 0q-8 -32 -17 -64q-11 -43 -11 -63q0 -26 27 -34q13 -4 47 -4q-2 -63 0 -83q-73 13 -123 13q-52 0 -111 -13q4 27 0 82q36 5 43 9q18 8 24 34q39 135 77 270
q45 163 51 275q51 -10 85 -10q36 0 78 10q22 -250 119 -539q16 -47 79 -47q-2 -62 0 -83zM313 313q-19 77 -55 230l-58 -230q23 -8 51 -8q29 0 62 8z" />
    <glyph glyph-name="B" unicode="B" horiz-adv-x="569" 
d="M509 109q0 1 -2 1q-16 0 -56 -45.5t-44 -64.5q-108 8 -216 8q-115 0 -188 -9q1 57 0 82l22 -2q30 0 51 19t26 126v140q0 167 -29 210q-15 22 -46 22q-11 0 -27 -3v75q237 -14 394 -1q15 -22 43 -45q45 -37 47 -39q-13 -42 -13 -82q0 -44 15 -86q-72 -50 -72 -58t41 -29
q31 -16 51 -23q-13 -45 -13 -87q0 -45 16 -109zM374 490q0 89 -94 89q-54 0 -67 -59q-5 -21 -5 -102q0 -14 1 -20l19 1q85 2 101 8q45 16 45 83zM390 198q0 77 -45 104q-34 21 -116 21h-19q-3 -38 -3 -102q0 -63 14 -88q20 -35 79 -35q90 0 90 100z" />
    <glyph glyph-name="C" unicode="C" horiz-adv-x="496" 
d="M442 88q-60 -33 -113 -88q-30 10 -105 10q-82 0 -107 -10q-56 92 -117 112q28 103 28 226q0 132 -25 218q46 23 108 113q38 -7 98 -7q61 0 97 7l40 -43q3 14 11 40h68q-16 -106 0 -209q-8 1 -79 1q-1 55 -25 90q-29 41 -81 41q-73 0 -94 -97q-9 -41 -9 -154
q0 -260 102 -260q75 0 97 57q11 30 12 123h94q-9 -55 -9 -89t9 -81z" />
    <glyph glyph-name="D" unicode="D" horiz-adv-x="554" 
d="M502 133q-88 -53 -124 -132q-91 9 -194 9q-107 0 -182 -10v86q18 -6 26 -6q57 0 57 172q0 26 -1.5 62t-1.5 41q-3 237 -51 237q-5 0 -14.5 -1.5t-14.5 -1.5l1 82q73 -14 178 -14q103 0 195 13q19 -47 121 -106q-17 -147 -17 -209q0 -74 22 -222zM273 597q-61 0 -79 -97
q-8 -41 -8 -142q0 -122 7 -165q17 -111 78 -111q106 0 106 223q0 124 -10 175q-22 117 -94 117z" />
    <glyph glyph-name="E" unicode="E" horiz-adv-x="528" 
d="M461 1q-118 9 -245 9q-132 0 -216 -10q14 45 1 83q11 -4 25 -11q55 -3 55 153q0 21 -1 68t-1 71q0 97 -3 126q-9 101 -44 101q-5 0 -29 -6q10 39 -1 84q267 -18 448 0q-3 -16 -5 -32q-6 -37 -6 -75q0 -54 11 -104h-63q0 65 -21 96q-27 38 -92 38q-60 0 -78 -49
q-13 -35 -13 -122q0 -32 4 -35q5 -1 26 0q33 6 45 24q8 13 19 60h41q-17 -132 0 -233h-46q-4 42 -13 60q-14 28 -49 28q-21 0 -23 -2q1 -34 0 -114q-3 -56 20 -91q26 -38 77 -38q65 0 89 55q13 31 17 111q7 2 66 2q-6 -39 -6 -90q0 -50 6 -108q3 -25 5 -49z" />
    <glyph glyph-name="F" unicode="F" horiz-adv-x="500" 
d="M442 433q-26 2 -65 2q-3 39 -7.5 78t-21.5 57q-21 22 -69 22q-60 0 -80 -40q-14 -28 -14 -94v-78q8 -2 16 -2q51 0 66 100h52q-12 -125 4 -236h-55q-2 98 -83 90q-3 -41 6 -184q0 -51 36 -64q7 -2 47 -4q-9 -22 -9 -44q0 -20 8 -35q-65 12 -128 12q-60 0 -145 -12
q8 55 0 79q32 -3 43 4q29 18 29 177v53l-1 29q0 3 1 29.5t1 47.5q0 153 -45 169q-10 4 -29 1q12 31 1 78q93 -9 224 -9q130 0 218 9q-7 -40 -7 -102q0 -66 7 -133z" />
    <glyph glyph-name="G" unicode="G" horiz-adv-x="565" 
d="M513 284h-11q-41 0 -51 -39q-4 -16 -4 -75q0 -46 20 -170h-66l-26 46q-8 -7 -54 -47q-63 11 -104 11q-44 0 -92 -11l-30 52q-40 54 -95 75q7 20 15 108q6 76 6 113q0 118 -16 205q55 23 119 117q67 -10 111 -10q47 0 95 10l42 -47q2 -4 12 47h60q-6 -102 -6 -94
q0 -52 11 -98h-90q-12 62 -28 83q-25 33 -87 33q-64 0 -94 -94q-21 -65 -21 -148q0 -114 13 -167q25 -104 102 -104q57 0 85 44q23 36 23 93q0 34 -26.5 55t-61.5 17q15 39 4 70l118 -6q39 0 124 6q-6 -14 -6 -31q0 -20 9 -44z" />
    <glyph glyph-name="H" unicode="H" horiz-adv-x="659" 
d="M600 0q-53 10 -129 10q-73 0 -143 -9q8 22 8 38q0 18 -11 41q43 2 60 30q15 24 15 74q0 90 1 137q-105 -18 -207 0l-3 -154q-1 -35 4 -48q16 -42 75 -39q-7 -20 -7 -44q0 -14 3 -27l2 -8q-155 16 -269 -1q9 45 0 80q77 -7 81 93l6 161q2 37 -9 172q-4 52 -27 69
q-13 11 -46 13q12 34 0 80q63 -9 137 -9q73 0 124 9q-2 -8 -4 -15q-4 -15 -4 -28q0 -20 9 -36q-49 4 -65 -29q-4 -8 -10 -51q-2 -13 0 -125q114 -14 209 0v125q-5 84 -74 80q12 45 -2 79q62 -9 138 -9q77 0 130 9q-13 -34 0 -80q-40 -2 -56 -16q-20 -18 -23 -69
q-13 -110 -9 -163l9 -156q4 -62 15 -79q15 -21 69 -25q-7 -34 -7 -40q0 -11 10 -40z" />
    <glyph glyph-name="I" unicode="I" horiz-adv-x="340" 
d="M2 -2q2 7 4 13q3 14 3 26q0 19 -7 38q62 -4 80 76q8 36 9 182q1 141 -5 185q-11 79 -83 75q9 18 9 33q0 14 -10 42q50 -8 135 -8q90 0 149 9q-9 -26 -9 -41q0 -16 9 -35q-71 4 -83 -75q-7 -43 -5 -185q2 -145 10 -182q18 -80 79 -76q-8 -13 -8 -33q0 -14 4 -30l4 -14
q-92 12 -149 12q-60 0 -136 -12z" />
    <glyph glyph-name="J" unicode="J" horiz-adv-x="549" 
d="M404 318q4 -42 12 -110q1 -8 13 -52q9 -36 7 -38q-36 -26 -72 -53q-32 -28 -36 -64q-107 15 -212 0q-30 51 -104 96q10 55 9 80q-1 21 -6 64l99 1q0 -62 6 -84q18 -70 84 -70q50 0 69 31q15 24 24 95q9 66 6 112l-11 194q-13 77 -82 73q9 24 9 40q0 17 -9 34
q153 -14 283 0q-9 -18 -9 -38t9 -36q-70 4 -83 -75z" />
    <glyph glyph-name="K" unicode="K" horiz-adv-x="663" 
d="M0 0l4 14q4 15 4 29q0 18 -6 36q62 -4 80 76q8 36 9 180q1 139 -5 183q-11 79 -83 75q10 43 0 74q66 -8 146 -8q78 0 134 8q-7 -30 3 -74q-70 4 -83 -75q-7 -42 -5 -169q45 32 134 126l38 40q24 27 25 42q2 26 -13 34q-12 5 -23 9q7 16 7 34t-6 33q138 -14 239 0
q-6 -11 -6 -26q0 -10 3.5 -26t2.5 -20q-51 -8 -63 -17q-23 -25 -46 -49q-132 -119 -132 -137q0 -23 94 -160q92 -133 110 -144.5t58 -15.5q-10 -24 -10 -40t8 -32l-139 10l-132 -10q2 0 2 73q38 3 38 29q0 23 -49.5 107t-69.5 97q-41 -27 -68 -57q2 -65 8 -94q18 -80 79 -76
q-4 -22 -2 -79q-72 8 -152 8q-78 0 -133 -8z" />
    <glyph glyph-name="L" unicode="L" horiz-adv-x="543" 
d="M418 241l-3 39q18 1 81 0q-12 -56 -12 -130q0 -52 6 -108l6 -44q-133 10 -274 10q-132 0 -220 -10q9 17 9 40q0 21 -9 41q62 -4 80 76q8 36 9 180q1 139 -5 183q-11 79 -83 75q9 25 9 40q0 16 -9 34q49 -7 136 -7q88 1 147 8q-11 -28 0 -75q-70 4 -83 -75q-6 -37 -6 -142
q0 -172 11 -221q8 -34 30 -54q24 -23 59 -21q53 3 63 6q35 11 48.5 55.5t9.5 99.5z" />
    <glyph glyph-name="M" unicode="M" horiz-adv-x="850" 
d="M788 588q-42 2 -59.5 -8t-25.5 -41q-18 -74 -18 -185q0 -48 6 -175q5 -90 90 -91q-9 -43 0 -89q-55 8 -140 8q-86 0 -139 -8q9 32 9 48q0 19 -9 38q56 4 77 92q9 40 9 131q0 127 -12 209q-101 -215 -161 -513q-49 -4 -50 -3q-84 323 -187 527q-5 -25 -8 -127
q-2 -91 0 -140q3 -104 11 -129q18 -57 81 -53q-2 -7 -4 -15q-4 -13 -4 -25q0 -21 11 -41q-46 6 -125 7q-86 1 -137 -6q8 46 2 80q19 0 34 6q36 15 47 54q12 43 11 185v87q-2 65 -14 113q-15 61 -60 61q-8 0 -19 -2q8 24 8 46q0 21 -8 38q122 -11 248 0q88 -285 148 -390
q37 46 119 390q138 -14 266 0q-9 -24 3 -79z" />
    <glyph glyph-name="N" unicode="N" horiz-adv-x="627" 
d="M579 585l-37 -4q-34 -13 -28 -60v-281l13 -238q-62 13 -140 0l-28 72l-204 380q-1 -7 3 -172l3 -129q1 -54 52 -67l41 -3v-84q-47 8 -119 8q-70 0 -135 -8q9 43 1 87h43q22 13 27 20q11 14 11 50q4 87 4 156q0 108 -13 235q-11 21 -16 23q-18 6 -35 12l-29 -6
q10 30 10 49q0 21 -10 42q97 -11 203 0l239 -461v265q0 109 -38 109q-3 0 -6 -1h-44q10 45 -3 88q128 -14 234 0q-13 -36 1 -82z" />
    <glyph glyph-name="O" unicode="O" horiz-adv-x="589" 
d="M534 566q-20 -145 -20 -217q0 -130 26 -230q-45 -18 -86 -56.5t-48 -64.5q-44 5 -135 12l-131 -11q-52 76 -131 118q21 152 21 230q0 26 -9 120q-9 89 -12 103q38 2 86 50q45 44 37 52q59 -16 131 -16q67 0 154 14q19 -39 55 -66q2 -2 62 -38zM397 355q0 99 -16 150
q-27 87 -103 87q-84 0 -114 -86q-19 -53 -19 -156q0 -266 125 -266q87 0 114 101q13 49 13 170z" />
    <glyph glyph-name="P" unicode="P" horiz-adv-x="571" 
d="M204 345q21 1 49 1q51 -2 91.5 40t40.5 106q0 45 -25 74q-28 32 -74 33q-71 2 -83 -75q-8 -56 1 -179zM206 275q-2 -82 6 -130q12 -76 75 -72q-7 -12 -7 -31q0 -18 7 -44q-69 10 -149 10q-79 0 -136 -10q8 20 8 41q0 19 -8 34q65 -4 81 72q10 49 10 167q0 146 -11 224
q-9 67 -79 63v74q78 -11 192 -11q126 0 222 11q31 -62 89 -93q-13 -124 7 -199q-32 -14 -60 -58q-24 -37 -24 -51q-54 9 -119 9q-55 0 -104 -6z" />
    <glyph glyph-name="Q" unicode="Q" horiz-adv-x="594" 
d="M534 566q-20 -145 -20 -217q0 -130 26 -230q-52 -21 -98 -68q3 -2 42 -46q31 -36 70 -55q-27 -8 -37 -12q-16 -7 -29 -17l-39 -33q-14 32 -44 63q-28 26 -56 53q-50 5 -78 6l-131 -11q-52 76 -131 118q19 150 19 228q0 25 -9 117q-9 86 -12 100q38 3 87 55q46 50 38 58
q59 -16 131 -16q67 0 154 14q19 -40 55 -68q11 -8 62 -39zM397 355q0 100 -16 152q-27 88 -103 88q-83 0 -114 -87q-19 -54 -19 -158q0 -266 125 -266q87 0 114 101q13 49 13 170z" />
    <glyph glyph-name="R" unicode="R" horiz-adv-x="622" 
d="M204 370q6 -1 49 -3q53 -2 91 30q41 36 41 99q0 45 -25 74q-28 32 -74 33q-71 2 -83 -75q-2 -13 -1 -64q2 -76 2 -94zM250 303h-47q0 -53 9 -158q12 -76 75 -72q-7 -12 -7 -31q0 -18 7 -44q-56 8 -123 8q-64 0 -162 -8q8 20 8 41q0 19 -8 34q64 -4 81 72q14 60 14 184
q0 123 -11 200.5t-83 73.5v74q78 -11 192 -11q126 0 222 11q31 -62 89 -93q-13 -122 3 -180q-11 -6 -40 -30q-33 -28 -33 -35q0 -10 66 -51q-1 -15 0 -41q2 -31 2 -27q0 -3 -1 -16v-24q0 -96 55 -96q5 0 18 3q0 -1 -4.5 -16.5t-4.5 -29.5q0 -19 8 -39h-109q-19 58 -74 80
q2 54 2 57q0 98 -51 139q-31 25 -93 25z" />
    <glyph glyph-name="S" unicode="S" horiz-adv-x="514" 
d="M467 120q-34 -6 -77 -49q-38 -38 -52 -70l-101 8q-5 0 -92 -8l-52 46l-20 -46h-73q16 77 16 129q0 49 -14 119h86q5 -24 9 -48q14 -50 40 -81q37 -42 95 -41q46 1 81 33t35 83q0 33 -24 64t-65 40q-29 6 -58 6q-40 0 -70 -10q-23 24 -42 42q-47 44 -70 54q4 25 4 58
q0 51 -8 106q61 43 102 113q88 -12 172 2q11 -12 47 -49l25 49h61q-7 -32 -7 -79q0 -59 10 -105q-81 0 -85 1q-10 54 -30 75q-26 27 -86 29q-44 2 -69 -33q-21 -28 -21 -67q0 -51 42 -79q36 -23 88 -23q11 0 83 10q51 -76 121 -101q-12 -46 -12 -97q0 -46 11 -81z" />
    <glyph glyph-name="T" unicode="T" horiz-adv-x="600" 
d="M554 434q-80 -3 -89 0q0 12 1.5 33t1.5 23q0 108 -59 108q-47 0 -60 -90l-8 -122l3 -206q6 -50 24 -73q23 -29 73 -29q9 0 20 1q-5 -31 1 -78q-184 12 -344 0q0 1 1 7.5t2 12.5q2 27 -4 62q51 -5 84 25t33 75v203q0 212 -73 211q-29 -1 -49 -35q-17 -29 -16 -57l2 -74
h-83q10 48 10 115t-10 127q129 -9 282 -9q151 0 251 9q-5 -35 -5 -79q0 -53 11 -160z" />
    <glyph glyph-name="U" unicode="U" horiz-adv-x="649" 
d="M580 600q-26 2 -43 -6q-22 -11 -27 -82q-2 -21 -2 -103q0 -150 6 -190q4 -28 23 -96l-110 -119q-135 8 -244 -2l-117 115q8 45 16 97l6 183q1 43 -15 134q-8 43 -18 51q-19 15 -36 15q-3 0 -7 -1h-5q-6 0 -9 4v69q60 -10 139 -10q74 0 148 10q-9 -26 0 -75q-21 1 -44 0
q-33 -4 -44 -94q-5 -36 -7 -132q-2 -105 18 -175q30 -103 102 -103q74 0 98 108q11 52 11 167q0 201 -37 223q-12 7 -49 7q11 30 1 73q112 -15 246 -1v-67z" />
    <glyph glyph-name="V" unicode="V" horiz-adv-x="649" 
d="M587 670q-8 -23 -8 -45q0 -21 8 -34q-16 3 -40 -5q-19 -6 -31 -46q-8 -33 -16 -67q-4 -15 -73 -301q-13 -60 -37 -171q-70 7 -71 7q-20 0 -71 -7q-62 302 -149 523q-26 66 -58 66q1 0 -38 3q9 34 1 77q57 -8 142 -8q84 0 135 8q-13 -38 4 -77q-56 2 -56 -44
q0 -29 47.5 -192.5t63.5 -196.5q25 94 51 187q32 128 32 189q0 36 -13 47t-53 10q10 42 -4 77q130 -17 234 0z" />
    <glyph glyph-name="W" unicode="W" horiz-adv-x="1006" 
d="M966 600q-1 -1 -2 -1q-10 0 -22 1q-8 1 -13 0q-6 -2 -19 -9q-16 -10 -39 -80l-24 -84q-64 -217 -107 -428q-64 10 -142 1q-52 312 -100 439q-53 -130 -117 -441q-13 0 -37.5 3.5t-41.5 3.5q-26 0 -57 -7q-40 212 -73 327q-27 96 -35 117q-24 69 -58 122q-12 18 -36 25
q-9 3 -45 8q5 66 -2 76q56 -9 147 -9q113 0 166 11q-6 -32 3 -77q-41 2 -58 -11t-17 -50q0 -61 15 -118q18 -69 74 -247q25 46 64.5 209.5t56.5 284.5q31 -4 69 -4q39 0 65 4q8 -89 42 -252q39 -182 68 -231q13 8 55 190q40 172 40 189q0 31 -21 37q-4 1 -47 2q11 35 -2 70
q142 -12 250 0q-6 -27 0 -71z" />
    <glyph glyph-name="X" unicode="X" horiz-adv-x="699" 
d="M647 79q-12 -48 0 -81q-99 6 -147 6q-108 0 -150 -5q8 42 -4 80q17 3 33.5 6t16.5 24t-31 82q-26 48 -47 80q-27 -27 -64 -75q-45 -59 -46 -78q-1 -32 16 -34.5t33 -4.5q-9 -35 0 -84q-91 12 -137 12q-2 0 -119 -8q7 52 -1 80q40 5 56 14q22 12 49 50q41 52 81 103
q67 85 67 96q0 14 -73 115q-56 78 -83 111q-14 18 -40 23q-20 3 -39 6q8 16 8 33t-8 38l146 -8q18 -1 73 4q60 5 74 5q-6 -15 -6 -34q0 -13 2.5 -27.5t2.5 -13.5q-7 8 -19 8q-31 0 -26 -34q1 -7 35 -69t42 -71q40 51 52 70q27 43 26 73q5 22 -28 22q-8 0 -18 -2q8 19 8 38
q0 20 -8 39q137 -7 128 -8l131 12q-15 -48 1 -83q-19 -1 -57 -10q-31 -11 -71 -64l-60 -82q-7 -8 -25 -36q-19 -32 -19 -38q0 -18 75 -123q56 -78 97 -129q23 -28 73 -28z" />
    <glyph glyph-name="Y" unicode="Y" horiz-adv-x="648" 
d="M602 592q-36 1 -56 -19q-68 -68 -160 -250q-13 -25 -13 -116t27 -112q20 -19 62 -14v-81q-66 9 -150 9q-83 0 -159 -9v83q54 0 74.5 13t19.5 120q0 1 1.5 9t1.5 16q0 33 -27 80q-11 19 -104 191q-20 37 -28 48q-12 16 -33 27q-16 9 -59 6l1 81q55 -12 137 -12
q77 0 150 10v-79q-50 6 -50 -38q0 -15 44 -93q36 -66 47 -81q16 9 58 85q40 73 43 93q6 32 -56 36v77q35 -8 94 -8q71 0 135 10v-82z" />
    <glyph glyph-name="Z" unicode="Z" horiz-adv-x="557" 
d="M486 0q-126 8 -264 8q-133 0 -218 -8q9 61 0 112q308 392 308 444q0 41 -77 41q-113 0 -124 -106q-21 1 -74 0q9 44 9 84q0 36 -9 93l213 -10l228 10q-5 -17 -5 -43q0 -18 2.5 -38t2.5 -16l-160 -234q-35 -47 -69 -94q-66 -94 -68 -115q-5 -49 77 -49q58 0 96 20
q32 17 42 57q15 64 15 66q27 -1 77 1q-18 -116 -2 -223z" />
    <glyph glyph-name="bracketleft" unicode="[" horiz-adv-x="302" 
d="M213 667v-100h-100v-628h100v-98h-213v826h213z" />
    <glyph glyph-name="backslash" unicode="\" horiz-adv-x="382" 
d="M77 719h-81l256 -767h81z" />
    <glyph glyph-name="bracketright" unicode="]" horiz-adv-x="302" 
d="M-3 -159v99h100v628h-100v99h213v-826h-213z" />
    <glyph glyph-name="asciicircum" unicode="^" horiz-adv-x="451" 
d="M188 753l-130 -37l-9 17l135 93l144 -93l-4 -20z" />
    <glyph glyph-name="underscore" unicode="_" horiz-adv-x="616" 
d="M-1 -100h617v-46h-617v46z" />
    <glyph glyph-name="grave" unicode="`" horiz-adv-x="397" 
d="M298 733l-182 95q-35 -69 -35 -72t203 -55z" />
    <glyph glyph-name="a" unicode="a" horiz-adv-x="596" 
d="M556 0q-60 9 -146 9q-73 0 -119 -8q2 25 0 78q24 0 41 11q21 12 21 35q0 24 -28 122q-69 -15 -137 0q-8 -32 -17 -64q-11 -43 -11 -63q0 -26 27 -34q13 -4 47 -4q-2 -63 0 -83q-73 13 -123 13q-52 0 -111 -13q4 27 0 82q36 5 43 9q18 8 24 34q39 135 77 270
q45 163 51 275q51 -10 85 -10q36 0 78 10q22 -250 119 -539q16 -47 79 -47q-2 -62 0 -83zM313 313q-19 77 -55 230l-58 -230q23 -8 51 -8q29 0 62 8z" />
    <glyph glyph-name="b" unicode="b" horiz-adv-x="569" 
d="M509 109q0 1 -2 1q-16 0 -56 -45.5t-44 -64.5q-108 8 -216 8q-115 0 -188 -9q1 57 0 82l22 -2q30 0 51 19t26 126v140q0 167 -29 210q-15 22 -46 22q-11 0 -27 -3v75q237 -14 394 -1q15 -22 43 -45q45 -37 47 -39q-13 -42 -13 -82q0 -44 15 -86q-72 -50 -72 -58t41 -29
q31 -16 51 -23q-13 -45 -13 -87q0 -45 16 -109zM374 490q0 89 -94 89q-54 0 -67 -59q-5 -21 -5 -102q0 -14 1 -20l19 1q85 2 101 8q45 16 45 83zM390 198q0 77 -45 104q-34 21 -116 21h-19q-3 -38 -3 -102q0 -63 14 -88q20 -35 79 -35q90 0 90 100z" />
    <glyph glyph-name="c" unicode="c" horiz-adv-x="496" 
d="M442 88q-60 -33 -113 -88q-30 10 -105 10q-82 0 -107 -10q-56 92 -117 112q28 103 28 226q0 132 -25 218q46 23 108 113q38 -7 98 -7q61 0 97 7l40 -43q3 14 11 40h68q-16 -106 0 -209q-8 1 -79 1q-1 55 -25 90q-29 41 -81 41q-73 0 -94 -97q-9 -41 -9 -154
q0 -260 102 -260q75 0 97 57q11 30 12 123h94q-9 -55 -9 -89t9 -81z" />
    <glyph glyph-name="d" unicode="d" horiz-adv-x="554" 
d="M502 133q-88 -53 -124 -132q-91 9 -194 9q-107 0 -182 -10v86q18 -6 26 -6q57 0 57 172q0 26 -1.5 62t-1.5 41q-3 237 -51 237q-5 0 -14.5 -1.5t-14.5 -1.5l1 82q73 -14 178 -14q103 0 195 13q19 -47 121 -106q-17 -147 -17 -209q0 -74 22 -222zM273 597q-61 0 -79 -97
q-8 -41 -8 -142q0 -122 7 -165q17 -111 78 -111q106 0 106 223q0 124 -10 175q-22 117 -94 117z" />
    <glyph glyph-name="e" unicode="e" horiz-adv-x="528" 
d="M461 1q-118 9 -245 9q-132 0 -216 -10q14 45 1 83q11 -4 25 -11q55 -3 55 153q0 21 -1 68t-1 71q0 97 -3 126q-9 101 -44 101q-5 0 -29 -6q10 39 -1 84q267 -18 448 0q-3 -16 -5 -32q-6 -37 -6 -75q0 -54 11 -104h-63q0 65 -21 96q-27 38 -92 38q-60 0 -78 -49
q-13 -35 -13 -122q0 -32 4 -35q5 -1 26 0q33 6 45 24q8 13 19 60h41q-17 -132 0 -233h-46q-4 42 -13 60q-14 28 -49 28q-21 0 -23 -2q1 -34 0 -114q-3 -56 20 -91q26 -38 77 -38q65 0 89 55q13 31 17 111q7 2 66 2q-6 -39 -6 -90q0 -50 6 -108q3 -25 5 -49z" />
    <glyph glyph-name="f" unicode="f" horiz-adv-x="500" 
d="M442 433q-26 2 -65 2q-3 39 -7.5 78t-21.5 57q-21 22 -69 22q-60 0 -80 -40q-14 -28 -14 -94v-78q8 -2 16 -2q51 0 66 100h52q-12 -125 4 -236h-55q-2 98 -83 90q-3 -41 6 -184q0 -51 36 -64q7 -2 47 -4q-9 -22 -9 -44q0 -20 8 -35q-65 12 -128 12q-60 0 -145 -12
q8 55 0 79q32 -3 43 4q29 18 29 177v53l-1 29q0 3 1 29.5t1 47.5q0 153 -45 169q-10 4 -29 1q12 31 1 78q93 -9 224 -9q130 0 218 9q-7 -40 -7 -102q0 -66 7 -133z" />
    <glyph glyph-name="g" unicode="g" horiz-adv-x="565" 
d="M513 284h-11q-41 0 -51 -39q-4 -16 -4 -75q0 -46 20 -170h-66l-26 46q-8 -7 -54 -47q-63 11 -104 11q-44 0 -92 -11l-30 52q-40 54 -95 75q7 20 15 108q6 76 6 113q0 118 -16 205q55 23 119 117q67 -10 111 -10q47 0 95 10l42 -47q2 -4 12 47h60q-6 -102 -6 -94
q0 -52 11 -98h-90q-12 62 -28 83q-25 33 -87 33q-64 0 -94 -94q-21 -65 -21 -148q0 -114 13 -167q25 -104 102 -104q57 0 85 44q23 36 23 93q0 34 -26.5 55t-61.5 17q15 39 4 70l118 -6q39 0 124 6q-6 -14 -6 -31q0 -20 9 -44z" />
    <glyph glyph-name="h" unicode="h" horiz-adv-x="659" 
d="M600 0q-53 10 -129 10q-73 0 -143 -9q8 22 8 38q0 18 -11 41q43 2 60 30q15 24 15 74q0 90 1 137q-105 -18 -207 0l-3 -154q-1 -35 4 -48q16 -42 75 -39q-7 -20 -7 -44q0 -14 3 -27l2 -8q-155 16 -269 -1q9 45 0 80q77 -7 81 93l6 161q2 37 -9 172q-4 52 -27 69
q-13 11 -46 13q12 34 0 80q63 -9 137 -9q73 0 124 9q-2 -8 -4 -15q-4 -15 -4 -28q0 -20 9 -36q-49 4 -65 -29q-4 -8 -10 -51q-2 -13 0 -125q114 -14 209 0v125q-5 84 -74 80q12 45 -2 79q62 -9 138 -9q77 0 130 9q-13 -34 0 -80q-40 -2 -56 -16q-20 -18 -23 -69
q-13 -110 -9 -163l9 -156q4 -62 15 -79q15 -21 69 -25q-7 -34 -7 -40q0 -11 10 -40z" />
    <glyph glyph-name="i" unicode="i" horiz-adv-x="340" 
d="M2 -2q2 7 4 13q3 14 3 26q0 19 -7 38q62 -4 80 76q8 36 9 182q1 141 -5 185q-11 79 -83 75q9 18 9 33q0 14 -10 42q50 -8 135 -8q90 0 149 9q-9 -26 -9 -41q0 -16 9 -35q-71 4 -83 -75q-7 -43 -5 -185q2 -145 10 -182q18 -80 79 -76q-8 -13 -8 -33q0 -14 4 -30l4 -14
q-92 12 -149 12q-60 0 -136 -12z" />
    <glyph glyph-name="j" unicode="j" horiz-adv-x="549" 
d="M404 318q4 -42 12 -110q1 -8 13 -52q9 -36 7 -38q-36 -26 -72 -53q-32 -28 -36 -64q-107 15 -212 0q-30 51 -104 96q10 55 9 80q-1 21 -6 64l99 1q0 -62 6 -84q18 -70 84 -70q50 0 69 31q15 24 24 95q9 66 6 112l-11 194q-13 77 -82 73q9 24 9 40q0 17 -9 34
q153 -14 283 0q-9 -18 -9 -38t9 -36q-70 4 -83 -75z" />
    <glyph glyph-name="k" unicode="k" horiz-adv-x="663" 
d="M0 0l4 14q4 15 4 29q0 18 -6 36q62 -4 80 76q8 36 9 180q1 139 -5 183q-11 79 -83 75q10 43 0 74q66 -8 146 -8q78 0 134 8q-7 -30 3 -74q-70 4 -83 -75q-7 -42 -5 -169q45 32 134 126l38 40q24 27 25 42q2 26 -13 34q-12 5 -23 9q7 16 7 34t-6 33q138 -14 239 0
q-6 -11 -6 -26q0 -10 3.5 -26t2.5 -20q-51 -8 -63 -17q-23 -25 -46 -49q-132 -119 -132 -137q0 -23 94 -160q92 -133 110 -144.5t58 -15.5q-10 -24 -10 -40t8 -32l-139 10l-132 -10q2 0 2 73q38 3 38 29q0 23 -49.5 107t-69.5 97q-41 -27 -68 -57q2 -65 8 -94q18 -80 79 -76
q-4 -22 -2 -79q-72 8 -152 8q-78 0 -133 -8z" />
    <glyph glyph-name="l" unicode="l" horiz-adv-x="543" 
d="M418 241l-3 39q18 1 81 0q-12 -56 -12 -130q0 -52 6 -108l6 -44q-133 10 -274 10q-132 0 -220 -10q9 17 9 40q0 21 -9 41q62 -4 80 76q8 36 9 180q1 139 -5 183q-11 79 -83 75q9 25 9 40q0 16 -9 34q49 -7 136 -7q88 1 147 8q-11 -28 0 -75q-70 4 -83 -75q-6 -37 -6 -142
q0 -172 11 -221q8 -34 30 -54q24 -23 59 -21q53 3 63 6q35 11 48.5 55.5t9.5 99.5z" />
    <glyph glyph-name="m" unicode="m" horiz-adv-x="850" 
d="M788 588q-42 2 -59.5 -8t-25.5 -41q-18 -74 -18 -185q0 -48 6 -175q5 -90 90 -91q-9 -43 0 -89q-55 8 -140 8q-86 0 -139 -8q9 32 9 48q0 19 -9 38q56 4 77 92q9 40 9 131q0 127 -12 209q-101 -215 -161 -513q-49 -4 -50 -3q-84 323 -187 527q-5 -25 -8 -127
q-2 -91 0 -140q3 -104 11 -129q18 -57 81 -53q-2 -7 -4 -15q-4 -13 -4 -25q0 -21 11 -41q-46 6 -125 7q-86 1 -137 -6q8 46 2 80q19 0 34 6q36 15 47 54q12 43 11 185v87q-2 65 -14 113q-15 61 -60 61q-8 0 -19 -2q8 24 8 46q0 21 -8 38q122 -11 248 0q88 -285 148 -390
q37 46 119 390q138 -14 266 0q-9 -24 3 -79z" />
    <glyph glyph-name="n" unicode="n" horiz-adv-x="627" 
d="M579 585l-37 -4q-34 -13 -28 -60v-281l13 -238q-62 13 -140 0l-28 72l-204 380q-1 -7 3 -172l3 -129q1 -54 52 -67l41 -3v-84q-47 8 -119 8q-70 0 -135 -8q9 43 1 87h43q22 13 27 20q11 14 11 50q4 87 4 156q0 108 -13 235q-11 21 -16 23q-18 6 -35 12l-29 -6
q10 30 10 49q0 21 -10 42q97 -11 203 0l239 -461v265q0 109 -38 109q-3 0 -6 -1h-44q10 45 -3 88q128 -14 234 0q-13 -36 1 -82z" />
    <glyph glyph-name="o" unicode="o" horiz-adv-x="589" 
d="M534 566q-20 -145 -20 -217q0 -130 26 -230q-45 -18 -86 -56.5t-48 -64.5q-44 5 -135 12l-131 -11q-52 76 -131 118q21 152 21 230q0 26 -9 120q-9 89 -12 103q38 2 86 50q45 44 37 52q59 -16 131 -16q67 0 154 14q19 -39 55 -66q2 -2 62 -38zM397 355q0 99 -16 150
q-27 87 -103 87q-84 0 -114 -86q-19 -53 -19 -156q0 -266 125 -266q87 0 114 101q13 49 13 170z" />
    <glyph glyph-name="p" unicode="p" horiz-adv-x="571" 
d="M204 345q21 1 49 1q51 -2 91.5 40t40.5 106q0 45 -25 74q-28 32 -74 33q-71 2 -83 -75q-8 -56 1 -179zM206 275q-2 -82 6 -130q12 -76 75 -72q-7 -12 -7 -31q0 -18 7 -44q-69 10 -149 10q-79 0 -136 -10q8 20 8 41q0 19 -8 34q65 -4 81 72q10 49 10 167q0 146 -11 224
q-9 67 -79 63v74q78 -11 192 -11q126 0 222 11q31 -62 89 -93q-13 -124 7 -199q-32 -14 -60 -58q-24 -37 -24 -51q-54 9 -119 9q-55 0 -104 -6z" />
    <glyph glyph-name="q" unicode="q" horiz-adv-x="594" 
d="M534 566q-20 -145 -20 -217q0 -130 26 -230q-52 -21 -98 -68q3 -2 42 -46q31 -36 70 -55q-27 -8 -37 -12q-16 -7 -29 -17l-39 -33q-14 32 -44 63q-28 26 -56 53q-50 5 -78 6l-131 -11q-52 76 -131 118q19 150 19 228q0 25 -9 117q-9 86 -12 100q38 3 87 55q46 50 38 58
q59 -16 131 -16q67 0 154 14q19 -40 55 -68q11 -8 62 -39zM397 355q0 100 -16 152q-27 88 -103 88q-83 0 -114 -87q-19 -54 -19 -158q0 -266 125 -266q87 0 114 101q13 49 13 170z" />
    <glyph glyph-name="r" unicode="r" horiz-adv-x="622" 
d="M204 370q6 -1 49 -3q53 -2 91 30q41 36 41 99q0 45 -25 74q-28 32 -74 33q-71 2 -83 -75q-2 -13 -1 -64q2 -76 2 -94zM250 303h-47q0 -53 9 -158q12 -76 75 -72q-7 -12 -7 -31q0 -18 7 -44q-56 8 -123 8q-64 0 -162 -8q8 20 8 41q0 19 -8 34q64 -4 81 72q14 60 14 184
q0 123 -11 200.5t-83 73.5v74q78 -11 192 -11q126 0 222 11q31 -62 89 -93q-13 -122 3 -180q-11 -6 -40 -30q-33 -28 -33 -35q0 -10 66 -51q-1 -15 0 -41q2 -31 2 -27q0 -3 -1 -16v-24q0 -96 55 -96q5 0 18 3q0 -1 -4.5 -16.5t-4.5 -29.5q0 -19 8 -39h-109q-19 58 -74 80
q2 54 2 57q0 98 -51 139q-31 25 -93 25z" />
    <glyph glyph-name="s" unicode="s" horiz-adv-x="514" 
d="M467 120q-34 -6 -77 -49q-38 -38 -52 -70l-101 8q-5 0 -92 -8l-52 46l-20 -46h-73q16 77 16 129q0 49 -14 119h86q5 -24 9 -48q14 -50 40 -81q37 -42 95 -41q46 1 81 33t35 83q0 33 -24 64t-65 40q-29 6 -58 6q-40 0 -70 -10q-23 24 -42 42q-47 44 -70 54q4 25 4 58
q0 51 -8 106q61 43 102 113q88 -12 172 2q11 -12 47 -49l25 49h61q-7 -32 -7 -79q0 -59 10 -105q-81 0 -85 1q-10 54 -30 75q-26 27 -86 29q-44 2 -69 -33q-21 -28 -21 -67q0 -51 42 -79q36 -23 88 -23q11 0 83 10q51 -76 121 -101q-12 -46 -12 -97q0 -46 11 -81z" />
    <glyph glyph-name="t" unicode="t" horiz-adv-x="600" 
d="M547 434q-80 -3 -89 0q0 12 1.5 33t1.5 23q0 108 -59 108q-47 0 -60 -90l-8 -122l3 -206q6 -50 24 -73q23 -29 73 -29q9 0 20 1q-5 -31 1 -78q-184 12 -344 0q0 1 1 7.5t2 12.5q2 27 -4 62q51 -5 84 25t33 75v203q0 212 -73 211q-29 -1 -49 -35q-17 -29 -16 -57l2 -74
h-83q10 48 10 115t-10 127q129 -9 282 -9q151 0 251 9q-5 -35 -5 -79q0 -53 11 -160z" />
    <glyph glyph-name="u" unicode="u" horiz-adv-x="649" 
d="M580 600q-26 2 -43 -6q-22 -11 -27 -82q-2 -21 -2 -103q0 -150 6 -190q4 -28 23 -96l-110 -119q-135 8 -244 -2l-117 115q8 45 16 97l6 183q1 43 -15 134q-8 43 -18 51q-19 15 -36 15q-3 0 -7 -1h-5q-6 0 -9 4v69q60 -10 139 -10q74 0 148 10q-9 -26 0 -75q-21 1 -44 0
q-33 -4 -44 -94q-5 -36 -7 -132q-2 -105 18 -175q30 -103 102 -103q74 0 98 108q11 52 11 167q0 201 -37 223q-12 7 -49 7q11 30 1 73q112 -15 246 -1v-67z" />
    <glyph glyph-name="v" unicode="v" horiz-adv-x="649" 
d="M587 670q-8 -23 -8 -45q0 -21 8 -34q-16 3 -40 -5q-19 -6 -31 -46q-8 -33 -16 -67q-4 -15 -73 -301q-13 -60 -37 -171q-70 7 -71 7q-20 0 -71 -7q-62 302 -149 523q-26 66 -58 66q1 0 -38 3q9 34 1 77q57 -8 142 -8q84 0 135 8q-13 -38 4 -77q-56 2 -56 -44
q0 -29 47.5 -192.5t63.5 -196.5q25 94 51 187q32 128 32 189q0 36 -13 47t-53 10q10 42 -4 77q130 -17 234 0z" />
    <glyph glyph-name="w" unicode="w" horiz-adv-x="1006" 
d="M966 600q-1 -1 -2 -1q-10 0 -22 1q-8 1 -13 0q-6 -2 -19 -9q-16 -10 -39 -80l-24 -84q-64 -217 -107 -428q-64 10 -142 1q-52 312 -100 439q-53 -130 -117 -441q-13 0 -37.5 3.5t-41.5 3.5q-26 0 -57 -7q-40 212 -73 327q-27 96 -35 117q-24 69 -58 122q-12 18 -36 25
q-9 3 -45 8q5 66 -2 76q56 -9 147 -9q113 0 166 11q-6 -32 3 -77q-41 2 -58 -11t-17 -50q0 -61 15 -118q18 -69 74 -247q25 46 64.5 209.5t56.5 284.5q31 -4 69 -4q39 0 65 4q8 -89 42 -252q39 -182 68 -231q13 8 55 190q40 172 40 189q0 31 -21 37q-4 1 -47 2q11 35 -2 70
q142 -12 250 0q-6 -27 0 -71z" />
    <glyph glyph-name="x" unicode="x" horiz-adv-x="699" 
d="M647 79q-12 -48 0 -81q-99 6 -147 6q-108 0 -150 -5q8 42 -4 80q17 3 33.5 6t16.5 24t-31 82q-26 48 -47 80q-27 -27 -64 -75q-45 -59 -46 -78q-1 -32 16 -34.5t33 -4.5q-9 -35 0 -84q-91 12 -137 12q-2 0 -119 -8q7 52 -1 80q40 5 56 14q22 12 49 50q41 52 81 103
q67 85 67 96q0 14 -73 115q-56 78 -83 111q-14 18 -40 23q-20 3 -39 6q8 16 8 33t-8 38l146 -8q18 -1 73 4q60 5 74 5q-6 -15 -6 -34q0 -13 2.5 -27.5t2.5 -13.5q-7 8 -19 8q-31 0 -26 -34q1 -7 35 -69t42 -71q40 51 52 70q27 43 26 73q5 22 -28 22q-8 0 -18 -2q8 19 8 38
q0 20 -8 39q137 -7 128 -8l131 12q-15 -48 1 -83q-19 -1 -57 -10q-31 -11 -71 -64l-60 -82q-7 -8 -25 -36q-19 -32 -19 -38q0 -18 75 -123q56 -78 97 -129q23 -28 73 -28z" />
    <glyph glyph-name="y" unicode="y" horiz-adv-x="648" 
d="M602 592q-36 1 -56 -19q-68 -68 -160 -250q-13 -25 -13 -116t27 -112q20 -19 62 -14v-81q-66 9 -150 9q-83 0 -159 -9v83q54 0 74.5 13t19.5 120q0 1 1.5 9t1.5 16q0 33 -27 80q-11 19 -104 191q-20 37 -28 48q-12 16 -33 27q-16 9 -59 6l1 81q55 -12 137 -12
q77 0 150 10v-79q-50 6 -50 -38q0 -15 44 -93q36 -66 47 -81q16 9 58 85q40 73 43 93q6 32 -56 36v77q35 -8 94 -8q71 0 135 10v-82z" />
    <glyph glyph-name="z" unicode="z" horiz-adv-x="557" 
d="M486 0q-126 8 -264 8q-133 0 -218 -8q9 61 0 112q308 392 308 444q0 41 -77 41q-113 0 -124 -106q-21 1 -74 0q9 44 9 84q0 36 -9 93l213 -10l228 10q-5 -17 -5 -43q0 -18 2.5 -38t2.5 -16l-160 -234q-35 -47 -69 -94q-66 -94 -68 -115q-5 -49 77 -49q58 0 96 20
q32 17 42 57q15 64 15 66q27 -1 77 1q-18 -116 -2 -223z" />
    <glyph glyph-name="braceleft" unicode="{" horiz-adv-x="302" 
d="M289 797v-100h-100v-284q2 -10 2 -20q0 -29 -20 -52.5t-43 -31.5q25 -14 43.5 -40t18.5 -52q0 -6 -1 -11v-267h100v-98h-214v351q5 38 -17 73.5t-61 53.5q44 10 61.5 37.5t17.5 80.5l-1 360h214z" />
    <glyph glyph-name="bar" unicode="|" horiz-adv-x="239" 
d="M146 719h-80l-1 -767h81v767z" />
    <glyph glyph-name="braceright" unicode="}" horiz-adv-x="302" 
d="M-3 -159v99h100v284q-3 10 -3 20q0 29 22 54q18 22 41 30q-25 15 -43 40.5t-18 51.5q0 6 1 12v266h-100v99h213v-351q-5 -38 17.5 -74t61.5 -54q-44 -10 -62 -37.5t-18 -80.5l1 -359h-213z" />
    <glyph glyph-name="asciitilde" unicode="~" horiz-adv-x="451" 
d="M60 719l-32 18q34 75 88 75q25 0 73.5 -21.5t68.5 -21.5q32 0 51 36l33 -25q-25 -63 -97 -63q-19 0 -65.5 18t-67.5 18q-34 0 -52 -34z" />
    <glyph glyph-name="Adieresis" unicode="&#xc4;" horiz-adv-x="596" 
d="M556 0q-60 9 -146 9q-73 0 -119 -8q2 25 0 78q24 0 41 11q21 12 21 35q0 24 -28 122q-69 -15 -137 0q-8 -32 -17 -64q-11 -43 -11 -63q0 -26 27 -34q13 -4 47 -4q-2 -63 0 -83q-73 13 -123 13q-52 0 -111 -13q4 27 0 82q36 5 43 9q18 8 24 34q39 135 77 270
q45 163 51 275q51 -10 85 -10q36 0 78 10q22 -250 119 -539q16 -47 79 -47q-2 -62 0 -83zM313 313q-19 77 -55 230l-58 -230q23 -8 51 -8q29 0 62 8zM369 709q-24 0 -40 16t-16 38q0 23 16 39t40 16q23 0 39.5 -16t16.5 -39q0 -22 -16.5 -38t-39.5 -16zM179 709
q-24 0 -40 16t-16 38q0 23 16 39t40 16q23 0 39.5 -16t16.5 -39q0 -22 -16.5 -38t-39.5 -16z" />
    <glyph glyph-name="Aring" unicode="&#xc5;" horiz-adv-x="596" 
d="M556 0q-60 9 -146 9q-73 0 -119 -8q2 25 0 78q24 0 41 11q21 12 21 35q0 24 -28 122q-69 -15 -137 0q-8 -32 -17 -64q-11 -43 -11 -63q0 -26 27 -34q13 -4 47 -4q-2 -63 0 -83q-73 13 -123 13q-52 0 -111 -13q4 27 0 82q36 5 43 9q18 8 24 34q39 135 77 270
q45 163 51 275q51 -10 85 -10q36 0 78 10q22 -250 119 -539q16 -47 79 -47q-2 -62 0 -83zM313 313q-19 77 -55 230l-58 -230q23 -8 51 -8q29 0 62 8zM272 852q32 0 57.5 -18.5t25.5 -48.5q0 -31 -25.5 -49.5t-57.5 -18.5t-57.5 18.5t-25.5 49.5q0 30 25.5 48.5t57.5 18.5z
M272 812q-20 0 -31.5 -9t-11.5 -18q0 -10 11.5 -19t31.5 -9t33 10q10 8 10 18q0 9 -10 17q-13 10 -33 10z" />
    <glyph glyph-name="Ccedilla" unicode="&#xc7;" horiz-adv-x="496" 
d="M187 -70q-3 0 0 80q-53 -3 -70 -10q-56 92 -117 112q28 103 28 226q0 132 -25 218q46 23 108 113q38 -7 98 -7q61 0 97 7l40 -43q3 14 11 40h68q-16 -106 0 -209q-8 1 -79 1q-1 55 -25 90q-29 41 -81 41q-73 0 -94 -97q-9 -41 -9 -154q0 -260 102 -260q75 0 97 57
q11 30 12 123h94q-9 -55 -9 -89t9 -81q-60 -33 -113 -88q-26 9 -88 10l-1 -42q79 -11 75 -84q-2 -31 -40 -52q-32 -18 -68 -18h-23v51q64 0 65 33q1 32 -62 32z" />
    <glyph glyph-name="Eacute" unicode="&#xc9;" horiz-adv-x="528" 
d="M461 1q-118 9 -245 9q-132 0 -216 -10q14 45 1 83q11 -4 25 -11q55 -3 55 153q0 21 -1 68t-1 71q0 97 -3 126q-9 101 -44 101q-5 0 -29 -6q10 39 -1 84q267 -18 448 0q-3 -16 -5 -32q-6 -37 -6 -75q0 -54 11 -104h-63q0 65 -21 96q-27 38 -92 38q-60 0 -78 -49
q-13 -35 -13 -122q0 -32 4 -35q5 -1 26 0q33 6 45 24q8 13 19 60h41q-17 -132 0 -233h-46q-4 42 -13 60q-14 28 -49 28q-21 0 -23 -2q1 -34 0 -114q-3 -56 20 -91q26 -38 77 -38q65 0 89 55q13 31 17 111q7 2 66 2q-6 -39 -6 -90q0 -50 6 -108q3 -25 5 -49zM140 733l182 95
q34 -72 34 -75t-201 -52z" />
    <glyph glyph-name="Ntilde" unicode="&#xd1;" horiz-adv-x="627" 
d="M579 585l-37 -4q-34 -13 -28 -60v-281l13 -238q-62 13 -140 0l-28 72l-204 380q-1 -7 3 -172l3 -129q1 -54 52 -67l41 -3v-84q-47 8 -119 8q-70 0 -135 -8q9 43 1 87h43q22 13 27 20q11 14 11 50q4 87 4 156q0 108 -13 235q-11 21 -16 23q-18 6 -35 12l-29 -6
q10 30 10 49q0 21 -10 42q97 -11 203 0l239 -461v265q0 109 -38 109q-3 0 -6 -1h-44q10 45 -3 88q128 -14 234 0q-13 -36 1 -82zM140 719l-32 18q34 75 88 75q25 0 73.5 -21.5t68.5 -21.5q32 0 51 36l33 -25q-25 -63 -97 -63q-19 0 -65.5 18t-67.5 18q-34 0 -52 -34z" />
    <glyph glyph-name="Odieresis" unicode="&#xd6;" horiz-adv-x="589" 
d="M534 566q-20 -145 -20 -217q0 -130 26 -230q-45 -18 -86 -56.5t-48 -64.5q-44 5 -135 12l-131 -11q-52 76 -131 118q21 152 21 230q0 26 -9 120q-9 89 -12 103q38 2 86 50q45 44 37 52q59 -16 131 -16q67 0 154 14q19 -39 55 -66q2 -2 62 -38zM397 355q0 99 -16 150
q-27 87 -103 87q-84 0 -114 -86q-19 -53 -19 -156q0 -266 125 -266q87 0 114 101q13 49 13 170zM369 709q-24 0 -40 16t-16 38q0 23 16 39t40 16q23 0 39.5 -16t16.5 -39q0 -22 -16.5 -38t-39.5 -16zM179 709q-24 0 -40 16t-16 38q0 23 16 39t40 16q23 0 39.5 -16t16.5 -39
q0 -22 -16.5 -38t-39.5 -16z" />
    <glyph glyph-name="Udieresis" unicode="&#xdc;" horiz-adv-x="649" 
d="M580 600q-26 2 -43 -6q-22 -11 -27 -82q-2 -21 -2 -103q0 -150 6 -190q4 -28 23 -96l-110 -119q-135 8 -244 -2l-117 115q8 45 16 97l6 183q1 43 -15 134q-8 43 -18 51q-19 15 -36 15q-3 0 -7 -1h-5q-6 0 -9 4v69q60 -10 139 -10q74 0 148 10q-9 -26 0 -75q-21 1 -44 0
q-33 -4 -44 -94q-5 -36 -7 -132q-2 -105 18 -175q30 -103 102 -103q74 0 98 108q11 52 11 167q0 201 -37 223q-12 7 -49 7q11 30 1 73q112 -15 246 -1v-67zM399 709q-24 0 -40 16t-16 38q0 23 16 39t40 16q23 0 39.5 -16t16.5 -39q0 -22 -16.5 -38t-39.5 -16zM209 709
q-24 0 -40 16t-16 38q0 23 16 39t40 16q23 0 39.5 -16t16.5 -39q0 -22 -16.5 -38t-39.5 -16z" />
    <glyph glyph-name="aacute" unicode="&#xe1;" horiz-adv-x="596" 
d="M556 0q-60 9 -146 9q-73 0 -119 -8q2 25 0 78q24 0 41 11q21 12 21 35q0 24 -28 122q-69 -15 -137 0q-8 -32 -17 -64q-11 -43 -11 -63q0 -26 27 -34q13 -4 47 -4q-2 -63 0 -83q-73 13 -123 13q-52 0 -111 -13q4 27 0 82q36 5 43 9q18 8 24 34q39 135 77 270
q45 163 51 275q51 -10 85 -10q36 0 78 10q22 -250 119 -539q16 -47 79 -47q-2 -62 0 -83zM313 313q-19 77 -55 230l-58 -230q23 -8 51 -8q29 0 62 8zM160 733l182 95q35 -69 35 -72t-202 -55z" />
    <glyph glyph-name="agrave" unicode="&#xe0;" horiz-adv-x="596" 
d="M556 0q-60 9 -146 9q-73 0 -119 -8q2 25 0 78q24 0 41 11q21 12 21 35q0 24 -28 122q-69 -15 -137 0q-8 -32 -17 -64q-11 -43 -11 -63q0 -26 27 -34q13 -4 47 -4q-2 -63 0 -83q-73 13 -123 13q-52 0 -111 -13q4 27 0 82q36 5 43 9q18 8 24 34q39 135 77 270
q45 163 51 275q51 -10 85 -10q36 0 78 10q22 -250 119 -539q16 -47 79 -47q-2 -62 0 -83zM313 313q-19 77 -55 230l-58 -230q23 -8 51 -8q29 0 62 8zM388 733l-182 95q-35 -69 -35 -72t203 -55z" />
    <glyph glyph-name="acircumflex" unicode="&#xe2;" horiz-adv-x="596" 
d="M556 0q-60 9 -146 9q-73 0 -119 -8q2 25 0 78q24 0 41 11q21 12 21 35q0 24 -28 122q-69 -15 -137 0q-8 -32 -17 -64q-11 -43 -11 -63q0 -26 27 -34q13 -4 47 -4q-2 -63 0 -83q-73 13 -123 13q-52 0 -111 -13q4 27 0 82q36 5 43 9q18 8 24 34q39 135 77 270
q45 163 51 275q51 -10 85 -10q36 0 78 10q22 -250 119 -539q16 -47 79 -47q-2 -62 0 -83zM313 313q-19 77 -55 230l-58 -230q23 -8 51 -8q29 0 62 8zM278 751l-130 -36l-9 17l133 80l146 -80l-4 -20z" />
    <glyph glyph-name="adieresis" unicode="&#xe4;" horiz-adv-x="596" 
d="M556 0q-60 9 -146 9q-73 0 -119 -8q2 25 0 78q24 0 41 11q21 12 21 35q0 24 -28 122q-69 -15 -137 0q-8 -32 -17 -64q-11 -43 -11 -63q0 -26 27 -34q13 -4 47 -4q-2 -63 0 -83q-73 13 -123 13q-52 0 -111 -13q4 27 0 82q36 5 43 9q18 8 24 34q39 135 77 270
q45 163 51 275q51 -10 85 -10q36 0 78 10q22 -250 119 -539q16 -47 79 -47q-2 -62 0 -83zM313 313q-19 77 -55 230l-58 -230q23 -8 51 -8q29 0 62 8zM369 709q-24 0 -40 16t-16 38q0 23 16 39t40 16q23 0 39.5 -16t16.5 -39q0 -22 -16.5 -38t-39.5 -16zM179 709
q-24 0 -40 16t-16 38q0 23 16 39t40 16q23 0 39.5 -16t16.5 -39q0 -22 -16.5 -38t-39.5 -16z" />
    <glyph glyph-name="atilde" unicode="&#xe3;" horiz-adv-x="596" 
d="M556 0q-60 9 -146 9q-73 0 -119 -8q2 25 0 78q24 0 41 11q21 12 21 35q0 24 -28 122q-69 -15 -137 0q-8 -32 -17 -64q-11 -43 -11 -63q0 -26 27 -34q13 -4 47 -4q-2 -63 0 -83q-73 13 -123 13q-52 0 -111 -13q4 27 0 82q36 5 43 9q18 8 24 34q39 135 77 270
q45 163 51 275q51 -10 85 -10q36 0 78 10q22 -250 119 -539q16 -47 79 -47q-2 -62 0 -83zM313 313q-19 77 -55 230l-58 -230q23 -8 51 -8q29 0 62 8zM140 719l-32 18q34 75 88 75q25 0 73.5 -21.5t68.5 -21.5q32 0 51 36l33 -25q-26 -66 -102 -66q-20 0 -65 19t-66 19
q-32 0 -49 -33z" />
    <glyph glyph-name="aring" unicode="&#xe5;" horiz-adv-x="596" 
d="M556 0q-60 9 -146 9q-73 0 -119 -8q2 25 0 78q24 0 41 11q21 12 21 35q0 24 -28 122q-69 -15 -137 0q-8 -32 -17 -64q-11 -43 -11 -63q0 -26 27 -34q13 -4 47 -4q-2 -63 0 -83q-73 13 -123 13q-52 0 -111 -13q4 27 0 82q36 5 43 9q18 8 24 34q39 135 77 270
q45 163 51 275q51 -10 85 -10q36 0 78 10q22 -250 119 -539q16 -47 79 -47q-2 -62 0 -83zM313 313q-19 77 -55 230l-58 -230q23 -8 51 -8q29 0 62 8zM272 852q32 0 57.5 -18.5t25.5 -48.5q0 -31 -25.5 -49.5t-57.5 -18.5t-57.5 18.5t-25.5 49.5q0 30 25.5 48.5t57.5 18.5z
M272 812q-20 0 -31.5 -9t-11.5 -18q0 -10 11.5 -19t31.5 -9t33 10q10 8 10 18q0 9 -10 17q-13 10 -33 10z" />
    <glyph glyph-name="ccedilla" unicode="&#xe7;" horiz-adv-x="496" 
d="M187 -70q-3 0 0 80q-53 -3 -70 -10q-56 92 -117 112q28 103 28 226q0 132 -25 218q46 23 108 113q38 -7 98 -7q61 0 97 7l40 -43q3 14 11 40h68q-16 -106 0 -209q-8 1 -79 1q-1 55 -25 90q-29 41 -81 41q-73 0 -94 -97q-9 -41 -9 -154q0 -260 102 -260q75 0 97 57
q11 30 12 123h94q-9 -55 -9 -89t9 -81q-60 -33 -113 -88q-26 9 -88 10l-1 -42q79 -11 75 -84q-2 -31 -40 -52q-32 -18 -68 -18h-23v51q64 0 65 33q1 32 -62 32z" />
    <glyph glyph-name="eacute" unicode="&#xe9;" horiz-adv-x="528" 
d="M461 1q-118 9 -245 9q-132 0 -216 -10q14 45 1 83q11 -4 25 -11q55 -3 55 153q0 21 -1 68t-1 71q0 97 -3 126q-9 101 -44 101q-5 0 -29 -6q10 39 -1 84q267 -18 448 0q-3 -16 -5 -32q-6 -37 -6 -75q0 -54 11 -104h-63q0 65 -21 96q-27 38 -92 38q-60 0 -78 -49
q-13 -35 -13 -122q0 -32 4 -35q5 -1 26 0q33 6 45 24q8 13 19 60h41q-17 -132 0 -233h-46q-4 42 -13 60q-14 28 -49 28q-21 0 -23 -2q1 -34 0 -114q-3 -56 20 -91q26 -38 77 -38q65 0 89 55q13 31 17 111q7 2 66 2q-6 -39 -6 -90q0 -50 6 -108q3 -25 5 -49zM140 733l182 95
q34 -72 34 -75t-201 -52z" />
    <glyph glyph-name="egrave" unicode="&#xe8;" horiz-adv-x="528" 
d="M461 1q-118 9 -245 9q-132 0 -216 -10q14 45 1 83q11 -4 25 -11q55 -3 55 153q0 21 -1 68t-1 71q0 97 -3 126q-9 101 -44 101q-5 0 -29 -6q10 39 -1 84q267 -18 448 0q-3 -16 -5 -32q-6 -37 -6 -75q0 -54 11 -104h-63q0 65 -21 96q-27 38 -92 38q-60 0 -78 -49
q-13 -35 -13 -122q0 -32 4 -35q5 -1 26 0q33 6 45 24q8 13 19 60h41q-17 -132 0 -233h-46q-4 42 -13 60q-14 28 -49 28q-21 0 -23 -2q1 -34 0 -114q-3 -56 20 -91q26 -38 77 -38q65 0 89 55q13 31 17 111q7 2 66 2q-6 -39 -6 -90q0 -50 6 -108q3 -25 5 -49zM338 733l-182 95
q-35 -69 -35 -72t203 -55z" />
    <glyph glyph-name="ecircumflex" unicode="&#xea;" horiz-adv-x="528" 
d="M461 1q-118 9 -245 9q-132 0 -216 -10q14 45 1 83q11 -4 25 -11q55 -3 55 153q0 21 -1 68t-1 71q0 97 -3 126q-9 101 -44 101q-5 0 -29 -6q10 39 -1 84q267 -18 448 0q-3 -16 -5 -32q-6 -37 -6 -75q0 -54 11 -104h-63q0 65 -21 96q-27 38 -92 38q-60 0 -78 -49
q-13 -35 -13 -122q0 -32 4 -35q5 -1 26 0q33 6 45 24q8 13 19 60h41q-17 -132 0 -233h-46q-4 42 -13 60q-14 28 -49 28q-21 0 -23 -2q1 -34 0 -114q-3 -56 20 -91q26 -38 77 -38q65 0 89 55q13 31 17 111q7 2 66 2q-6 -39 -6 -90q0 -50 6 -108q3 -25 5 -49zM228 751
l-130 -36l-9 17l133 80l146 -80l-4 -20z" />
    <glyph glyph-name="edieresis" unicode="&#xeb;" horiz-adv-x="528" 
d="M461 1q-118 9 -245 9q-132 0 -216 -10q14 45 1 83q11 -4 25 -11q55 -3 55 153q0 21 -1 68t-1 71q0 97 -3 126q-9 101 -44 101q-5 0 -29 -6q10 39 -1 84q267 -18 448 0q-3 -16 -5 -32q-6 -37 -6 -75q0 -54 11 -104h-63q0 65 -21 96q-27 38 -92 38q-60 0 -78 -49
q-13 -35 -13 -122q0 -32 4 -35q5 -1 26 0q33 6 45 24q8 13 19 60h41q-17 -132 0 -233h-46q-4 42 -13 60q-14 28 -49 28q-21 0 -23 -2q1 -34 0 -114q-3 -56 20 -91q26 -38 77 -38q65 0 89 55q13 31 17 111q7 2 66 2q-6 -39 -6 -90q0 -50 6 -108q3 -25 5 -49zM329 709
q-24 0 -40 16t-16 38q0 23 16 39t40 16q23 0 39.5 -16t16.5 -39q0 -22 -16.5 -38t-39.5 -16zM139 709q-24 0 -40 16t-16 38q0 23 16 39t40 16q23 0 39.5 -16t16.5 -39q0 -22 -16.5 -38t-39.5 -16z" />
    <glyph glyph-name="iacute" unicode="&#xed;" horiz-adv-x="340" 
d="M2 -2q2 7 4 13q3 14 3 26q0 19 -7 38q62 -4 80 76q8 36 9 182q1 141 -5 185q-11 79 -83 75q9 18 9 33q0 14 -10 42q50 -8 135 -8q90 0 149 9q-9 -26 -9 -41q0 -16 9 -35q-71 4 -83 -75q-7 -43 -5 -185q2 -145 10 -182q18 -80 79 -76q-8 -13 -8 -33q0 -14 4 -30l4 -14
q-92 12 -149 12q-60 0 -136 -12zM30 733l182 95q35 -69 35 -72t-202 -55z" />
    <glyph glyph-name="igrave" unicode="&#xec;" horiz-adv-x="340" 
d="M2 -2q2 7 4 13q3 14 3 26q0 19 -7 38q62 -4 80 76q8 36 9 182q1 141 -5 185q-11 79 -83 75q9 18 9 33q0 14 -10 42q50 -8 135 -8q90 0 149 9q-9 -26 -9 -41q0 -16 9 -35q-71 4 -83 -75q-7 -43 -5 -185q2 -145 10 -182q18 -80 79 -76q-8 -13 -8 -33q0 -14 4 -30l4 -14
q-92 12 -149 12q-60 0 -136 -12zM248 733l-182 95q-35 -69 -35 -72t203 -55z" />
    <glyph glyph-name="icircumflex" unicode="&#xee;" horiz-adv-x="340" 
d="M2 -2q2 7 4 13q3 14 3 26q0 19 -7 38q62 -4 80 76q8 36 9 182q1 141 -5 185q-11 79 -83 75q9 18 9 33q0 14 -10 42q50 -8 135 -8q90 0 149 9q-9 -26 -9 -41q0 -16 9 -35q-71 4 -83 -75q-7 -43 -5 -185q2 -145 10 -182q18 -80 79 -76q-8 -13 -8 -33q0 -14 4 -30l4 -14
q-92 12 -149 12q-60 0 -136 -12zM148 751l-130 -36l-9 17l133 80l146 -80l-4 -20z" />
    <glyph glyph-name="idieresis" unicode="&#xef;" horiz-adv-x="340" 
d="M2 -2q2 7 4 13q3 14 3 26q0 19 -7 38q62 -4 80 76q8 36 9 182q1 141 -5 185q-11 79 -83 75q9 18 9 33q0 14 -10 42q50 -8 135 -8q90 0 149 9q-9 -26 -9 -41q0 -16 9 -35q-71 4 -83 -75q-7 -43 -5 -185q2 -145 10 -182q18 -80 79 -76q-8 -13 -8 -33q0 -14 4 -30l4 -14
q-92 12 -149 12q-60 0 -136 -12zM239 709q-24 0 -40 16t-16 38q0 23 16 39t40 16q23 0 39.5 -16t16.5 -39q0 -22 -16.5 -38t-39.5 -16zM49 709q-24 0 -40 16t-16 38q0 23 16 39t40 16q23 0 39.5 -16t16.5 -39q0 -22 -16.5 -38t-39.5 -16z" />
    <glyph glyph-name="ntilde" unicode="&#xf1;" horiz-adv-x="627" 
d="M579 585l-37 -4q-34 -13 -28 -60v-281l13 -238q-62 13 -140 0l-28 72l-204 380q-1 -7 3 -172l3 -129q1 -54 52 -67l41 -3v-84q-47 8 -119 8q-70 0 -135 -8q9 43 1 87h43q22 13 27 20q11 14 11 50q4 87 4 156q0 108 -13 235q-11 21 -16 23q-18 6 -35 12l-29 -6
q10 30 10 49q0 21 -10 42q97 -11 203 0l239 -461v265q0 109 -38 109q-3 0 -6 -1h-44q10 45 -3 88q128 -14 234 0q-13 -36 1 -82zM140 719l-32 18q34 75 88 75q25 0 73.5 -21.5t68.5 -21.5q32 0 51 36l33 -25q-25 -63 -97 -63q-19 0 -65.5 18t-67.5 18q-34 0 -52 -34z" />
    <glyph glyph-name="oacute" unicode="&#xf3;" horiz-adv-x="589" 
d="M534 566q-20 -145 -20 -217q0 -130 26 -230q-45 -18 -86 -56.5t-48 -64.5q-44 5 -135 12l-131 -11q-52 76 -131 118q21 152 21 230q0 26 -9 120q-9 89 -12 103q38 2 86 50q45 44 37 52q59 -16 131 -16q67 0 154 14q19 -39 55 -66q2 -2 62 -38zM397 355q0 99 -16 150
q-27 87 -103 87q-84 0 -114 -86q-19 -53 -19 -156q0 -266 125 -266q87 0 114 101q13 49 13 170zM170 733l182 95q35 -69 35 -72t-202 -55z" />
    <glyph glyph-name="ograve" unicode="&#xf2;" horiz-adv-x="589" 
d="M534 566q-20 -145 -20 -217q0 -130 26 -230q-45 -18 -86 -56.5t-48 -64.5q-44 5 -135 12l-131 -11q-52 76 -131 118q21 152 21 230q0 26 -9 120q-9 89 -12 103q38 2 86 50q45 44 37 52q59 -16 131 -16q67 0 154 14q19 -39 55 -66q2 -2 62 -38zM397 355q0 99 -16 150
q-27 87 -103 87q-84 0 -114 -86q-19 -53 -19 -156q0 -266 125 -266q87 0 114 101q13 49 13 170zM378 733l-182 95q-35 -69 -35 -72t203 -55z" />
    <glyph glyph-name="ocircumflex" unicode="&#xf4;" horiz-adv-x="589" 
d="M534 566q-20 -145 -20 -217q0 -130 26 -230q-45 -18 -86 -56.5t-48 -64.5q-44 5 -135 12l-131 -11q-52 76 -131 118q21 152 21 230q0 26 -9 120q-9 89 -12 103q38 2 86 50q45 44 37 52q59 -16 131 -16q67 0 154 14q19 -39 55 -66q2 -2 62 -38zM397 355q0 99 -16 150
q-27 87 -103 87q-84 0 -114 -86q-19 -53 -19 -156q0 -266 125 -266q87 0 114 101q13 49 13 170zM268 751l-130 -36l-9 17l133 80l146 -80l-4 -20z" />
    <glyph glyph-name="odieresis" unicode="&#xf6;" horiz-adv-x="589" 
d="M534 566q-20 -145 -20 -217q0 -130 26 -230q-45 -18 -86 -56.5t-48 -64.5q-44 5 -135 12l-131 -11q-52 76 -131 118q21 152 21 230q0 26 -9 120q-9 89 -12 103q38 2 86 50q45 44 37 52q59 -16 131 -16q67 0 154 14q19 -39 55 -66q2 -2 62 -38zM397 355q0 99 -16 150
q-27 87 -103 87q-84 0 -114 -86q-19 -53 -19 -156q0 -266 125 -266q87 0 114 101q13 49 13 170zM369 709q-24 0 -40 16t-16 38q0 23 16 39t40 16q23 0 39.5 -16t16.5 -39q0 -22 -16.5 -38t-39.5 -16zM179 709q-24 0 -40 16t-16 38q0 23 16 39t40 16q23 0 39.5 -16t16.5 -39
q0 -22 -16.5 -38t-39.5 -16z" />
    <glyph glyph-name="otilde" unicode="&#xf5;" horiz-adv-x="589" 
d="M534 566q-20 -145 -20 -217q0 -130 26 -230q-45 -18 -86 -56.5t-48 -64.5q-44 5 -135 12l-131 -11q-52 76 -131 118q21 152 21 230q0 26 -9 120q-9 89 -12 103q38 2 86 50q45 44 37 52q59 -16 131 -16q67 0 154 14q19 -39 55 -66q2 -2 62 -38zM397 355q0 99 -16 150
q-27 87 -103 87q-84 0 -114 -86q-19 -53 -19 -156q0 -266 125 -266q87 0 114 101q13 49 13 170zM140 719l-32 18q34 75 88 75q25 0 73.5 -21.5t68.5 -21.5q32 0 51 36l33 -25q-25 -63 -97 -63q-19 0 -65.5 18t-67.5 18q-34 0 -52 -34z" />
    <glyph glyph-name="uacute" unicode="&#xfa;" horiz-adv-x="649" 
d="M580 600q-26 2 -43 -6q-22 -11 -27 -82q-2 -21 -2 -103q0 -150 6 -190q4 -28 23 -96l-110 -119q-135 8 -244 -2l-117 115q8 45 16 97l6 183q1 43 -15 134q-8 43 -18 51q-19 15 -36 15q-3 0 -7 -1h-5q-6 0 -9 4v69q60 -10 139 -10q74 0 148 10q-9 -26 0 -75q-21 1 -44 0
q-33 -4 -44 -94q-5 -36 -7 -132q-2 -105 18 -175q30 -103 102 -103q74 0 98 108q11 52 11 167q0 201 -37 223q-12 7 -49 7q11 30 1 73q112 -15 246 -1v-67zM180 733l182 95q35 -69 35 -72t-202 -55z" />
    <glyph glyph-name="ugrave" unicode="&#xf9;" horiz-adv-x="649" 
d="M580 600q-26 2 -43 -6q-22 -11 -27 -82q-2 -21 -2 -103q0 -150 6 -190q4 -28 23 -96l-110 -119q-135 8 -244 -2l-117 115q8 45 16 97l6 183q1 43 -15 134q-8 43 -18 51q-19 15 -36 15q-3 0 -7 -1h-5q-6 0 -9 4v69q60 -10 139 -10q74 0 148 10q-9 -26 0 -75q-21 1 -44 0
q-33 -4 -44 -94q-5 -36 -7 -132q-2 -105 18 -175q30 -103 102 -103q74 0 98 108q11 52 11 167q0 201 -37 223q-12 7 -49 7q11 30 1 73q112 -15 246 -1v-67zM388 733l-182 95q-35 -69 -35 -72t203 -55z" />
    <glyph glyph-name="ucircumflex" unicode="&#xfb;" horiz-adv-x="649" 
d="M580 600q-26 2 -43 -6q-22 -11 -27 -82q-2 -21 -2 -103q0 -150 6 -190q4 -28 23 -96l-110 -119q-135 8 -244 -2l-117 115q8 45 16 97l6 183q1 43 -15 134q-8 43 -18 51q-19 15 -36 15q-3 0 -7 -1h-5q-6 0 -9 4v69q60 -10 139 -10q74 0 148 10q-9 -26 0 -75q-21 1 -44 0
q-33 -4 -44 -94q-5 -36 -7 -132q-2 -105 18 -175q30 -103 102 -103q74 0 98 108q11 52 11 167q0 201 -37 223q-12 7 -49 7q11 30 1 73q112 -15 246 -1v-67zM298 751l-130 -36l-9 17l133 80l146 -80l-4 -20z" />
    <glyph glyph-name="udieresis" unicode="&#xfc;" horiz-adv-x="649" 
d="M580 600q-26 2 -43 -6q-22 -11 -27 -82q-2 -21 -2 -103q0 -150 6 -190q4 -28 23 -96l-110 -119q-135 8 -244 -2l-117 115q8 45 16 97l6 183q1 43 -15 134q-8 43 -18 51q-19 15 -36 15q-3 0 -7 -1h-5q-6 0 -9 4v69q60 -10 139 -10q74 0 148 10q-9 -26 0 -75q-21 1 -44 0
q-33 -4 -44 -94q-5 -36 -7 -132q-2 -105 18 -175q30 -103 102 -103q74 0 98 108q11 52 11 167q0 201 -37 223q-12 7 -49 7q11 30 1 73q112 -15 246 -1v-67zM399 709q-24 0 -40 16t-16 38q0 23 16 39t40 16q23 0 39.5 -16t16.5 -39q0 -22 -16.5 -38t-39.5 -16zM209 709
q-24 0 -40 16t-16 38q0 23 16 39t40 16q23 0 39.5 -16t16.5 -39q0 -22 -16.5 -38t-39.5 -16z" />
    <glyph glyph-name="dagger" unicode="&#x2020;" horiz-adv-x="615" 
d="M547 477v-115h-174v-521h-131v521h-175v115h175v190h131v-190h174z" />
    <glyph glyph-name="degree" unicode="&#xb0;" horiz-adv-x="398" 
d="M172 681q63 0 108.5 -46t45.5 -109q0 -66 -45 -111.5t-111 -45.5q-65 0 -110.5 45.5t-45.5 110.5q0 66 46 111t112 45zM168 624q-39 0 -67.5 -30t-28.5 -69q0 -41 28.5 -70t69.5 -29q39 0 68.5 29t29.5 68q0 42 -29 71.5t-71 29.5z" />
    <glyph glyph-name="cent" unicode="&#xa2;" horiz-adv-x="388" 
d="M150 668h46v-78q15 1 37 6l26 -33l12 30h44v-156h-52q-1 42 -19 68q-21 31 -61 31q-54 0 -70 -73q-7 -31 -7 -116q0 -195 77 -195q56 0 72 43q9 23 9 92h63v-127q-28 -16 -77 -66q-18 2 -54 5v-98h-46v99q-29 -1 -59 -6q-42 69 -88 84q21 77 21 169q0 90 -21 163
q38 19 84 86q25 -5 63 -6v78z" />
    <glyph glyph-name="sterling" unicode="&#xa3;" horiz-adv-x="544" 
d="M-4 370h79q-10 34 -42 90q-39 68 -43 77q86 68 123 136q87 -7 120 -7q53 0 125 8q27 -52 108 -107q-19 -68 -16 -148l-70 -3l1 25q6 154 -117 154q-95 0 -95 -68q-6 -14 -6 -31q0 -26 26 -100q2 -11 3 -26h81q-12 -19 -12 -39q0 -19 12 -48h-85q-1 -24 -1 -41
q0 -146 111 -153q48 -3 77.5 33.5t29.5 94.5h85q-1 -9 -10 -63q-6 -42 -6 -73q0 -39 10 -77q-312 7 -466 0l-1 78q38 63 51 99q17 45 17 102h-89q15 21 15 42q0 18 -15 45z" />
    <glyph glyph-name="section" unicode="&#xa7;" horiz-adv-x="20" 
 />
    <glyph glyph-name="bullet" unicode="&#x2022;" horiz-adv-x="667" 
d="M336 478q57 0 97 -41.5t40 -97.5q0 -58 -40.5 -98.5t-98.5 -40.5q-57 0 -97.5 40.5t-40.5 98.5q0 59 40.5 99t99.5 40z" />
    <glyph glyph-name="paragraph" unicode="&#xb6;" horiz-adv-x="19" 
 />
    <glyph glyph-name="germandbls" unicode="&#xdf;" horiz-adv-x="17" 
 />
    <glyph glyph-name="registered" unicode="&#xae;" horiz-adv-x="355" 
d="M147 672q83 0 121 -76q16 -30 16 -63q0 -57 -41 -98t-98 -41t-97.5 41t-40.5 98q0 59 41 99t99 40zM144 647q-44 0 -77 -33t-33 -81q0 -47 32.5 -80.5t78.5 -33.5q47 0 79 33.5t32 80.5q0 48 -32.5 81t-79.5 33zM87 611h65q56 0 56 -43q0 -26 -26 -37q20 -7 23 -31
q0 -16 5 -43h-33q-3 5 -4 31q-2 33 -32 33h-20v-64h-34v154zM121 590v-49h23q30 0 30 25q0 24 -28 24h-25z" />
    <glyph glyph-name="copyright" unicode="&#xa9;" horiz-adv-x="765" 
d="M346 -9q-141 0 -241 100.5t-100 241.5q0 145 101 243.5t245 98.5q93 0 174 -51t124 -136q37 -73 37 -155q0 -141 -99.5 -241.5t-240.5 -100.5zM343 623q-114 0 -197.5 -84t-83.5 -206q0 -119 82.5 -204t201.5 -85q117 0 199.5 84.5t82.5 204.5q0 122 -83.5 206t-201.5 84
zM347 139q-86 0 -137 57q-48 54 -48 140t51.5 141.5t136.5 55.5q79 0 127 -52q33 -35 39 -81h-57q-20 68 -109 68q-54 0 -84 -40q-27 -36 -27 -93q0 -55 26 -91q30 -40 84 -40q98 0 113 87h58q-7 -70 -54 -111t-119 -41z" />
    <glyph glyph-name="trademark" unicode="&#x2122;" horiz-adv-x="487" 
d="M356 409l-2 198l-41 -198h-44l-47 198l1 -84v-114h-47v260h85q4 -28 31 -195q10 83 30 195l85 -1v-259h-51zM92 629v-220h-48v220h-35v40h120v-40h-37z" />
    <glyph glyph-name="acute" unicode="&#xb4;" horiz-adv-x="397" 
d="M80 733l182 95q35 -69 35 -72t-202 -55z" />
    <glyph glyph-name="dieresis" unicode="&#xa8;" horiz-adv-x="451" 
d="M289 709q-24 0 -40 16t-16 38q0 23 16 39t40 16q23 0 39.5 -16t16.5 -39q0 -22 -16.5 -38t-39.5 -16zM99 709q-24 0 -40 16t-16 38q0 23 16 39t40 16q23 0 39.5 -16t16.5 -39q0 -22 -16.5 -38t-39.5 -16z" />
    <glyph glyph-name="AE" unicode="&#xc6;" horiz-adv-x="783" 
d="M272 -1q13 23 13 44q0 16 -9 31q22 0 44 14.5t27 37.5q1 55 1 62q0 11 -5 62q-72 -14 -137 1q-23 -47 -53 -126q-9 -48 60 -49q-7 -33 -7 -40q0 -14 7 -37q-56 11 -95 11q-44 0 -118 -15q7 22 -1 89q30 4 40 11t22 35q65 135 129 269q77 162 105 274q69 -14 200 -14
q119 0 225 10q-3 -16 -5 -32q-6 -37 -6 -75q0 -54 11 -104h-63q0 65 -21 96q-27 38 -92 38q-60 0 -78 -49q-13 -35 -13 -122q0 -32 4 -35q5 -1 26 0q33 6 45 24q8 13 19 60h41q-17 -132 0 -233h-46q-4 42 -13 60q-14 28 -49 28q-21 0 -23 -2q0 -10 3 -67q2 -37 10 -117
q5 -31 35 -47q22 -12 49 -12q65 0 89 55q13 31 17 111q7 2 66 2q-6 -39 -6 -90q0 -50 6 -108q3 -25 5 -49q-86 6 -202 6q-204 0 -257 -8zM344 316q-4 77 -11 231l-102 -230q22 -8 51 -8q28 0 62 7z" />
    <glyph glyph-name="Oslash" unicode="&#xd8;" horiz-adv-x="597" 
d="M160 196l218 312q-29 85 -104 85q-84 0 -112 -86q-17 -50 -17 -157q0 -96 15 -154zM391 452l-214 -305q32 -63 93 -63q87 0 114 101q13 49 13 170q0 57 -6 97zM511 697h52l-70 -98q20 -14 51 -33q-33 -150 -33 -222q0 -116 29 -225q-41 -17 -84 -59q-33 -32 -51 -62
q-43 5 -133 12l-130 -11q-22 29 -37 45l-48 -69h-52l69 98q-29 25 -65 44q21 152 21 230q0 26 -9 120q-9 89 -12 103q52 29 61 35q34 25 56 66q81 -14 149 -10l144 9q15 -23 41 -45z" />
    <glyph glyph-name="plusminus" unicode="&#xb1;" horiz-adv-x="20" 
 />
    <glyph glyph-name="yen" unicode="&#xa5;" horiz-adv-x="648" 
d="M135 305h97l-8 24q-38 66 -105 183q-20 37 -28 48q-12 16 -33 27q-16 9 -59 6l1 81q55 -12 137 -12q77 0 150 10v-79q-50 6 -50 -38q0 -15 44 -93q36 -66 47 -81q16 9 58 85q40 73 43 93q6 33 -56 36v77q35 -8 94 -8q71 0 135 10v-82q-36 1 -56 -19q-68 -68 -160 -250
q-4 -8 -7 -18h102v-49h-108v-49v-2h108v-49h-106q4 -44 24.5 -62t62.5 -13v-81q-66 9 -150 9q-83 0 -159 -9v83q54 0 75 14q15 9 18 59h-111v49h112v11q3 9 2 40h-114v49z" />
    <glyph glyph-name="mu" unicode="&#xb5;" horiz-adv-x="543" 
d="M-1 270l92 58q1 144 -5 190q-11 79 -83 75q9 25 9 40q0 16 -9 34q49 -7 136 -7q88 1 147 8q-11 -28 0 -75q-70 4 -83 -75q-5 -33 -6 -124l137 87v-96l-136 -84q3 -114 10.5 -147t29.5 -53q24 -23 59 -21q53 3 63 6q35 11 48.5 55.5t9.5 99.5l-3 39q18 1 81 0
q-12 -56 -12 -130q0 -52 6 -108l6 -44q-133 10 -274 10q-132 0 -220 -10q9 17 9 40q0 21 -9 41q62 -4 80 76q4 19 7 78l-90 -56v93z" />
    <glyph glyph-name="mu" unicode="&#x3bc;" horiz-adv-x="543" 
d="M-1 270l92 58q1 144 -5 190q-11 79 -83 75q9 25 9 40q0 16 -9 34q49 -7 136 -7q88 1 147 8q-11 -28 0 -75q-70 4 -83 -75q-5 -33 -6 -124l137 87v-96l-136 -84q3 -114 10.5 -147t29.5 -53q24 -23 59 -21q53 3 63 6q35 11 48.5 55.5t9.5 99.5l-3 39q18 1 81 0
q-12 -56 -12 -130q0 -52 6 -108l6 -44q-133 10 -274 10q-132 0 -220 -10q9 17 9 40q0 21 -9 41q62 -4 80 76q4 19 7 78l-90 -56v93z" />
    <glyph glyph-name="ordfeminine" unicode="&#xaa;" horiz-adv-x="557" 
d="M486 0q-126 8 -264 8q-133 0 -218 -8q9 61 0 112q308 392 308 444q0 41 -77 41q-113 0 -124 -106q-21 1 -74 0q9 44 9 84q0 36 -9 93l213 -10l228 10q-5 -17 -5 -43q0 -18 2.5 -38t2.5 -16l-160 -234q-35 -47 -69 -94q-66 -94 -68 -115q-5 -49 77 -49q58 0 96 20
q32 17 42 57q15 64 15 66q27 -1 77 1q-18 -116 -2 -223zM259 776l130 36l9 -16l-136 -93l-143 93l4 20z" />
    <glyph glyph-name="ordmasculine" unicode="&#xba;" horiz-adv-x="557" 
d="M486 0q-126 8 -264 8q-133 0 -218 -8q9 61 0 112q308 392 308 444q0 41 -77 41q-113 0 -124 -106q-21 1 -74 0q9 44 9 84q0 36 -9 93l213 -10l228 10q-5 -17 -5 -43q0 -18 2.5 -38t2.5 -16l-160 -234q-35 -47 -69 -94q-66 -94 -68 -115q-5 -49 77 -49q58 0 96 20
q32 17 42 57q15 64 15 66q27 -1 77 1q-18 -116 -2 -223zM259 776l130 36l9 -16l-136 -93l-143 93l4 20z" />
    <glyph glyph-name="ae" unicode="&#xe6;" horiz-adv-x="783" 
d="M272 -1q13 23 13 44q0 16 -9 31q22 0 44 14.5t27 37.5q1 55 1 62q0 11 -5 62q-72 -14 -137 1q-23 -47 -53 -126q-9 -48 60 -49q-7 -33 -7 -40q0 -14 7 -37q-56 11 -95 11q-44 0 -118 -15q7 22 -1 89q30 4 40 11t22 35q65 135 129 269q77 162 105 274q69 -14 200 -14
q119 0 225 10q-3 -16 -5 -32q-6 -37 -6 -75q0 -54 11 -104h-63q0 65 -21 96q-27 38 -92 38q-60 0 -78 -49q-13 -35 -13 -122q0 -32 4 -35q5 -1 26 0q33 6 45 24q8 13 19 60h41q-17 -132 0 -233h-46q-4 42 -13 60q-14 28 -49 28q-21 0 -23 -2q0 -10 3 -67q2 -37 10 -117
q5 -31 35 -47q22 -12 49 -12q65 0 89 55q13 31 17 111q7 2 66 2q-6 -39 -6 -90q0 -50 6 -108q3 -25 5 -49q-86 6 -202 6q-204 0 -257 -8zM344 316q-4 77 -11 231l-102 -230q22 -8 51 -8q28 0 62 7z" />
    <glyph glyph-name="oslash" unicode="&#xf8;" horiz-adv-x="597" 
d="M160 196l218 312q-29 85 -104 85q-84 0 -112 -86q-17 -50 -17 -157q0 -96 15 -154zM391 452l-214 -305q32 -63 93 -63q87 0 114 101q13 49 13 170q0 57 -6 97zM511 697h52l-70 -98q20 -14 51 -33q-33 -150 -33 -222q0 -116 29 -225q-41 -17 -84 -59q-33 -32 -51 -62
q-43 5 -133 12l-130 -11q-22 29 -37 45l-48 -69h-52l69 98q-29 25 -65 44q21 152 21 230q0 26 -9 120q-9 89 -12 103q52 29 61 35q34 25 56 66q81 -14 149 -10l144 9q15 -23 41 -45z" />
    <glyph glyph-name="questiondown" unicode="&#xbf;" horiz-adv-x="522" 
d="M191 412q15 53 3 119q38 -10 63 -10q26 0 54 10q-10 -31 -10 -56t11 -63q-66 12 -121 0zM12 102q72 18 129 79t57 129q0 37 6 64q56 -15 96 -4q-2 -13 -1 -34q2 -30 2 -33.5t5.5 -24.5t5.5 -24q1 -2 -20 -22q-136 -134 -136 -213q0 -82 68 -82q45 0 77 41.5t32 90.5
q0 21 -7 39q32 -14 39 -15q3 -1 34 -1q12 0 20.5 2.5t18.5 3.5v-73q2 -28 9 -46q9 -23 10 -30q-34 -14 -63 -37q-36 -29 -41 -57q-84 10 -126 10q-53 0 -122 -10q-16 25 -44 51q-31 30 -55 40q12 28 12 59q0 12 -4 46q-3 31 -2 51z" />
    <glyph glyph-name="exclamdown" unicode="&#xa1;" horiz-adv-x="322" 
d="M10 -137q56 121 77 224q22 109 22 282q47 -15 77 0l10 -196q5 -94 20 -155q19 -77 64 -155q-70 11 -137 11t-133 -11zM85 420q15 53 3 119q38 -10 63 -10q26 0 54 10q-10 -31 -10 -56t11 -63q-66 12 -121 0z" />
    <glyph glyph-name="logicalnot" unicode="&#xac;" horiz-adv-x="20" 
 />
    <glyph glyph-name="florin" unicode="&#x192;" horiz-adv-x="629" 
d="M-1 441h44q-10 110 -14 129q22 12 80 59l53 43q79 -14 133 -11l144 9q32 -48 125 -104q-4 -17 -16 -77l-145 3q-25 100 -105 100q-110 0 -129 -151h185v-55h-189v-36t1 -39h188v-55h-185q19 -172 121 -172q61 0 97 51q28 40 28 86h124q-2 -31 7 -60l14 -42
q-41 -17 -84 -59q-33 -32 -51 -62q-43 5 -133 12l-130 -11q-62 80 -133 118q5 34 16 139h-46v55h50q1 20 1 36q0 11 -2 39h-49v55z" />
    <glyph glyph-name="guillemotleft" unicode="&#xab;" horiz-adv-x="313" 
d="M217 298l43 -156l-19 -10l-112 162l112 172l24 -4zM77 298l43 -156l-19 -10l-112 162l112 172l24 -4z" />
    <glyph glyph-name="guillemotright" unicode="&#xbb;" horiz-adv-x="313" 
d="M37 300l-43 156l19 10l112 -163l-112 -171l-24 4zM177 300l-43 156l19 10l112 -163l-112 -171l-24 4z" />
    <glyph glyph-name="ellipsis" unicode="&#x2026;" horiz-adv-x="699" 
d="M388 119q-14 -54 -2 -118q-37 9 -62 9q-26 0 -55 -9q10 30 10 55t-11 63q63 -11 120 0zM638 119q-14 -54 -2 -118q-37 9 -62 9q-26 0 -55 -9q10 30 10 55t-11 63q63 -11 120 0zM138 119q-14 -54 -2 -118q-37 9 -62 9q-26 0 -55 -9q10 30 10 55t-11 63q63 -11 120 0z" />
    <glyph glyph-name="nonbreakingspace" unicode="&#xa0;" horiz-adv-x="194" 
 />
    <glyph glyph-name="Agrave" unicode="&#xc0;" horiz-adv-x="596" 
d="M556 0q-60 9 -146 9q-73 0 -119 -8q2 25 0 78q24 0 41 11q21 12 21 35q0 24 -28 122q-69 -15 -137 0q-8 -32 -17 -64q-11 -43 -11 -63q0 -26 27 -34q13 -4 47 -4q-2 -63 0 -83q-73 13 -123 13q-52 0 -111 -13q4 27 0 82q36 5 43 9q18 8 24 34q39 135 77 270
q45 163 51 275q51 -10 85 -10q36 0 78 10q22 -250 119 -539q16 -47 79 -47q-2 -62 0 -83zM313 313q-19 77 -55 230l-58 -230q23 -8 51 -8q29 0 62 8zM388 733l-182 95q-35 -69 -35 -72t203 -55z" />
    <glyph glyph-name="Atilde" unicode="&#xc3;" horiz-adv-x="596" 
d="M556 0q-60 9 -146 9q-73 0 -119 -8q2 25 0 78q24 0 41 11q21 12 21 35q0 24 -28 122q-69 -15 -137 0q-8 -32 -17 -64q-11 -43 -11 -63q0 -26 27 -34q13 -4 47 -4q-2 -63 0 -83q-73 13 -123 13q-52 0 -111 -13q4 27 0 82q36 5 43 9q18 8 24 34q39 135 77 270
q45 163 51 275q51 -10 85 -10q36 0 78 10q22 -250 119 -539q16 -47 79 -47q-2 -62 0 -83zM313 313q-19 77 -55 230l-58 -230q23 -8 51 -8q29 0 62 8zM140 719l-32 18q34 75 88 75q25 0 73.5 -21.5t68.5 -21.5q32 0 51 36l33 -25q-26 -66 -102 -66q-20 0 -65 19t-66 19
q-32 0 -49 -33z" />
    <glyph glyph-name="Otilde" unicode="&#xd5;" horiz-adv-x="589" 
d="M534 566q-20 -145 -20 -217q0 -130 26 -230q-45 -18 -86 -56.5t-48 -64.5q-44 5 -135 12l-131 -11q-52 76 -131 118q21 152 21 230q0 26 -9 120q-9 89 -12 103q38 2 86 50q45 44 37 52q59 -16 131 -16q67 0 154 14q19 -39 55 -66q2 -2 62 -38zM397 355q0 99 -16 150
q-27 87 -103 87q-84 0 -114 -86q-19 -53 -19 -156q0 -266 125 -266q87 0 114 101q13 49 13 170zM140 719l-32 18q34 75 88 75q25 0 73.5 -21.5t68.5 -21.5q32 0 51 36l33 -25q-25 -63 -97 -63q-19 0 -65.5 18t-67.5 18q-34 0 -52 -34z" />
    <glyph glyph-name="OE" unicode="&#x152;" horiz-adv-x="829" 
d="M521 558q-9 -44 -6 -172h18q33 6 45 24q8 13 19 60h41q-17 -132 0 -233h-46q-4 42 -13 60q-14 28 -49 28q-1 0 -8 1h-8q1 -67 13 -203q13 -48 77 -48q65 0 89 57q13 32 17 114q7 2 66 2q-6 -39 -6 -91q0 -51 6 -111q3 -25 5 -50q-170 12 -337 12q-166 0 -307 -12
q-60 87 -127 121q20 152 20 230q0 26 -9 120q-9 89 -12 103q38 2 86 50q45 44 37 52q47 -13 293 -13q203 0 345 10q-3 -16 -5 -32q-6 -37 -6 -75q0 -54 11 -104h-63q0 65 -21 96q-27 38 -92 38q-19 0 -42 -10t-31 -24zM397 355q0 99 -16 150q-27 87 -103 87q-84 0 -114 -86
q-19 -53 -19 -156q0 -271 125 -271q87 0 114 104q13 49 13 172z" />
    <glyph glyph-name="oe" unicode="&#x153;" horiz-adv-x="829" 
d="M521 558q-9 -44 -6 -172h18q33 6 45 24q8 13 19 60h41q-17 -132 0 -233h-46q-4 42 -13 60q-14 28 -49 28q-1 0 -8 1h-8q1 -67 13 -203q13 -48 77 -48q65 0 89 57q13 32 17 114q7 2 66 2q-6 -39 -6 -91q0 -51 6 -111q3 -25 5 -50q-170 12 -337 12q-166 0 -307 -12
q-60 87 -127 121q20 152 20 230q0 26 -9 120q-9 89 -12 103q38 2 86 50q45 44 37 52q47 -13 293 -13q203 0 345 10q-3 -16 -5 -32q-6 -37 -6 -75q0 -54 11 -104h-63q0 65 -21 96q-27 38 -92 38q-19 0 -42 -10t-31 -24zM397 355q0 99 -16 150q-27 87 -103 87q-84 0 -114 -86
q-19 -53 -19 -156q0 -271 125 -271q87 0 114 104q13 49 13 172z" />
    <glyph glyph-name="endash" unicode="&#x2013;" horiz-adv-x="501" 
d="M443 260v-72h-441v72h441z" />
    <glyph glyph-name="emdash" unicode="&#x2014;" horiz-adv-x="899" 
d="M843 260v-72h-841v72h841z" />
    <glyph glyph-name="quotedblleft" unicode="&#x201c;" horiz-adv-x="351" 
d="M8 543q25 18 60 66q21 30 43 60l21 -10q-20 -46 -49 -116q23 4 40 10q-10 -31 -10 -56t11 -63q-66 12 -120 0q12 47 4 106v3zM178 543q25 18 60 66q21 30 43 60l21 -10q-20 -46 -49 -116q23 4 40 10q-10 -31 -10 -56t11 -63q-66 12 -120 0q12 47 4 106v3z" />
    <glyph glyph-name="quotedblright" unicode="&#x201d;" horiz-adv-x="351" 
d="M298 560q-26 -18 -61 -66q-21 -30 -43 -60l-20 10l49 115q-18 -1 -41 -9q10 31 10 56t-11 63q66 -12 121 0q-13 -47 -5 -106zM128 560q-26 -18 -61 -66q-21 -30 -43 -60l-20 10l49 115q-18 -1 -41 -9q10 31 10 56t-11 63q66 -12 121 0q-13 -47 -5 -106z" />
    <glyph glyph-name="quoteleft" unicode="&#x2018;" horiz-adv-x="178" 
d="M8 543q25 18 60 66q21 30 43 60l21 -10q-20 -46 -49 -116q23 4 40 10q-10 -31 -10 -56t11 -63q-66 12 -120 0q12 47 4 106v3z" />
    <glyph glyph-name="quoteright" unicode="&#x2019;" horiz-adv-x="178" 
d="M128 560q-26 -18 -61 -66q-21 -30 -43 -60l-20 10l49 115q-18 -1 -41 -9q10 31 10 56t-11 63q66 -12 121 0q-13 -47 -5 -106z" />
    <glyph glyph-name="divide" unicode="&#xf7;" horiz-adv-x="20" 
 />
    <glyph glyph-name="ydieresis" unicode="&#xff;" horiz-adv-x="648" 
d="M602 592q-36 1 -56 -19q-68 -68 -160 -250q-13 -25 -13 -116t27 -112q20 -19 62 -14v-81q-66 9 -150 9q-83 0 -159 -9v83q54 0 74.5 13t19.5 120q0 1 1.5 9t1.5 16q0 33 -27 80q-11 19 -104 191q-20 37 -28 48q-12 16 -33 27q-16 9 -59 6l1 81q55 -12 137 -12
q77 0 150 10v-79q-50 6 -50 -38q0 -15 44 -93q36 -66 47 -81q16 9 58 85q40 73 43 93q6 32 -56 36v77q35 -8 94 -8q71 0 135 10v-82zM389 709q-24 0 -40 16t-16 38q0 23 16 39t40 16q23 0 39.5 -16t16.5 -39q0 -22 -16.5 -38t-39.5 -16zM199 709q-24 0 -40 16t-16 38
q0 23 16 39t40 16q23 0 39.5 -16t16.5 -39q0 -22 -16.5 -38t-39.5 -16z" />
    <glyph glyph-name="Ydieresis" unicode="&#x178;" horiz-adv-x="648" 
d="M602 592q-36 1 -56 -19q-68 -68 -160 -250q-13 -25 -13 -116t27 -112q20 -19 62 -14v-81q-66 9 -150 9q-83 0 -159 -9v83q54 0 74.5 13t19.5 120q0 1 1.5 9t1.5 16q0 33 -27 80q-11 19 -104 191q-20 37 -28 48q-12 16 -33 27q-16 9 -59 6l1 81q55 -12 137 -12
q77 0 150 10v-79q-50 6 -50 -38q0 -15 44 -93q36 -66 47 -81q16 9 58 85q40 73 43 93q6 33 -56 36v77q35 -8 94 -8q71 0 135 10v-82zM389 709q-24 0 -40 16t-16 38q0 23 16 39t40 16q23 0 39.5 -16t16.5 -39q0 -22 -16.5 -38t-39.5 -16zM199 709q-24 0 -40 16t-16 38
q0 23 16 39t40 16q23 0 39.5 -16t16.5 -39q0 -22 -16.5 -38t-39.5 -16z" />
    <glyph glyph-name="currency" unicode="&#xa4;" horiz-adv-x="20" 
 />
    <glyph glyph-name="guilsinglleft" unicode="&#x2039;" horiz-adv-x="189" 
d="M77 298l43 -156l-19 -10l-112 162l112 172l24 -4z" />
    <glyph glyph-name="guilsinglright" unicode="&#x203a;" horiz-adv-x="189" 
d="M37 300l-43 156l19 10l112 -163l-112 -171l-24 4z" />
    <glyph glyph-name="daggerdbl" unicode="&#x2021;" horiz-adv-x="20" 
 />
    <glyph glyph-name="periodcentered" unicode="&#xb7;" horiz-adv-x="208" 
d="M148 389q-14 -54 -2 -118q-37 9 -62 9q-26 0 -55 -9q10 30 10 55t-11 63q63 -11 120 0z" />
    <glyph glyph-name="periodcentered" unicode="&#x2219;" horiz-adv-x="208" 
d="M148 389q-14 -54 -2 -118q-37 9 -62 9q-26 0 -55 -9q10 30 10 55t-11 63q63 -11 120 0z" />
    <glyph glyph-name="quotesinglbase" unicode="&#x201a;" horiz-adv-x="178" 
d="M128 20q-26 -18 -61 -66q-21 -30 -43 -60l-20 10l49 115q-18 -1 -41 -9q10 31 10 56t-11 63q66 -12 121 0q-13 -47 -5 -106z" />
    <glyph glyph-name="quotedblbase" unicode="&#x201e;" horiz-adv-x="348" 
d="M288 20q-26 -18 -61 -66q-21 -30 -43 -60l-20 10l49 115q-18 -1 -41 -9q10 31 10 56t-11 63q66 -12 121 0q-13 -47 -5 -106zM118 20q-26 -18 -61 -66q-21 -30 -43 -60l-20 10l49 115q-18 -1 -41 -9q10 31 10 56t-11 63q66 -12 121 0q-13 -47 -5 -106z" />
    <glyph glyph-name="Acircumflex" unicode="&#xc2;" horiz-adv-x="596" 
d="M556 0q-60 9 -146 9q-73 0 -119 -8q2 25 0 78q24 0 41 11q21 12 21 35q0 24 -28 122q-69 -15 -137 0q-8 -32 -17 -64q-11 -43 -11 -63q0 -26 27 -34q13 -4 47 -4q-2 -63 0 -83q-73 13 -123 13q-52 0 -111 -13q4 27 0 82q36 5 43 9q18 8 24 34q39 135 77 270
q45 163 51 275q51 -10 85 -10q36 0 78 10q22 -250 119 -539q16 -47 79 -47q-2 -62 0 -83zM313 313q-19 77 -55 230l-58 -230q23 -8 51 -8q29 0 62 8zM278 750l-153 -43l-11 19l157 95l171 -95l-4 -23z" />
    <glyph glyph-name="Ecircumflex" unicode="&#xca;" horiz-adv-x="528" 
d="M461 1q-118 9 -245 9q-132 0 -216 -10q14 45 1 83q11 -4 25 -11q55 -3 55 153q0 21 -1 68t-1 71q0 97 -3 126q-9 101 -44 101q-5 0 -29 -6q10 39 -1 84q267 -18 448 0q-3 -16 -5 -32q-6 -37 -6 -75q0 -54 11 -104h-63q0 65 -21 96q-27 38 -92 38q-60 0 -78 -49
q-13 -35 -13 -122q0 -32 4 -35q5 -1 26 0q33 6 45 24q8 13 19 60h41q-17 -132 0 -233h-46q-4 42 -13 60q-14 28 -49 28q-21 0 -23 -2q1 -34 0 -114q-3 -56 20 -91q26 -38 77 -38q65 0 89 55q13 31 17 111q7 2 66 2q-6 -39 -6 -90q0 -50 6 -108q3 -25 5 -49zM228 750
l-153 -43l-11 19l157 95l171 -95l-4 -23z" />
    <glyph glyph-name="Aacute" unicode="&#xc1;" horiz-adv-x="596" 
d="M556 0q-60 9 -146 9q-73 0 -119 -8q2 25 0 78q24 0 41 11q21 12 21 35q0 24 -28 122q-69 -15 -137 0q-8 -32 -17 -64q-11 -43 -11 -63q0 -26 27 -34q13 -4 47 -4q-2 -63 0 -83q-73 13 -123 13q-52 0 -111 -13q4 27 0 82q36 5 43 9q18 8 24 34q39 135 77 270
q45 163 51 275q51 -10 85 -10q36 0 78 10q22 -250 119 -539q16 -47 79 -47q-2 -62 0 -83zM313 313q-19 77 -55 230l-58 -230q23 -8 51 -8q29 0 62 8zM160 733l182 95q35 -69 35 -72t-202 -55z" />
    <glyph glyph-name="Edieresis" unicode="&#xcb;" horiz-adv-x="528" 
d="M461 1q-118 9 -245 9q-132 0 -216 -10q14 45 1 83q11 -4 25 -11q55 -3 55 153q0 21 -1 68t-1 71q0 97 -3 126q-9 101 -44 101q-5 0 -29 -6q10 39 -1 84q267 -18 448 0q-3 -16 -5 -32q-6 -37 -6 -75q0 -54 11 -104h-63q0 65 -21 96q-27 38 -92 38q-60 0 -78 -49
q-13 -35 -13 -122q0 -32 4 -35q5 -1 26 0q33 6 45 24q8 13 19 60h41q-17 -132 0 -233h-46q-4 42 -13 60q-14 28 -49 28q-21 0 -23 -2q1 -34 0 -114q-3 -56 20 -91q26 -38 77 -38q65 0 89 55q13 31 17 111q7 2 66 2q-6 -39 -6 -90q0 -50 6 -108q3 -25 5 -49zM329 709
q-24 0 -40 16t-16 38q0 23 16 39t40 16q23 0 39.5 -16t16.5 -39q0 -22 -16.5 -38t-39.5 -16zM139 709q-24 0 -40 16t-16 38q0 23 16 39t40 16q23 0 39.5 -16t16.5 -39q0 -22 -16.5 -38t-39.5 -16z" />
    <glyph glyph-name="Egrave" unicode="&#xc8;" horiz-adv-x="528" 
d="M461 1q-118 9 -245 9q-132 0 -216 -10q14 45 1 83q11 -4 25 -11q55 -3 55 153q0 21 -1 68t-1 71q0 97 -3 126q-9 101 -44 101q-5 0 -29 -6q10 39 -1 84q267 -18 448 0q-3 -16 -5 -32q-6 -37 -6 -75q0 -54 11 -104h-63q0 65 -21 96q-27 38 -92 38q-60 0 -78 -49
q-13 -35 -13 -122q0 -32 4 -35q5 -1 26 0q33 6 45 24q8 13 19 60h41q-17 -132 0 -233h-46q-4 42 -13 60q-14 28 -49 28q-21 0 -23 -2q1 -34 0 -114q-3 -56 20 -91q26 -38 77 -38q65 0 89 55q13 31 17 111q7 2 66 2q-6 -39 -6 -90q0 -50 6 -108q3 -25 5 -49zM338 733l-182 95
q-35 -69 -35 -72t203 -55z" />
    <glyph glyph-name="Iacute" unicode="&#xcd;" horiz-adv-x="340" 
d="M2 -2q2 7 4 13q3 14 3 26q0 19 -7 38q62 -4 80 76q8 36 9 182q1 141 -5 185q-11 79 -83 75q9 18 9 33q0 14 -10 42q50 -8 135 -8q90 0 149 9q-9 -26 -9 -41q0 -16 9 -35q-71 4 -83 -75q-7 -43 -5 -185q2 -145 10 -182q18 -80 79 -76q-8 -13 -8 -33q0 -14 4 -30l4 -14
q-92 12 -149 12q-60 0 -136 -12zM30 733l182 95q35 -69 35 -72t-202 -55z" />
    <glyph glyph-name="Icircumflex" unicode="&#xce;" horiz-adv-x="340" 
d="M2 -2q2 7 4 13q3 14 3 26q0 19 -7 38q62 -4 80 76q8 36 9 182q1 141 -5 185q-11 79 -83 75q9 18 9 33q0 14 -10 42q50 -8 135 -8q90 0 149 9q-9 -26 -9 -41q0 -16 9 -35q-71 4 -83 -75q-7 -43 -5 -185q2 -145 10 -182q18 -80 79 -76q-8 -13 -8 -33q0 -14 4 -30l4 -14
q-92 12 -149 12q-60 0 -136 -12zM148 750l-153 -43l-11 19l157 95l171 -95l-4 -23z" />
    <glyph glyph-name="Idieresis" unicode="&#xcf;" horiz-adv-x="340" 
d="M2 -2q2 7 4 13q3 14 3 26q0 19 -7 38q62 -4 80 76q8 36 9 182q1 141 -5 185q-11 79 -83 75q9 18 9 33q0 14 -10 42q50 -8 135 -8q90 0 149 9q-9 -26 -9 -41q0 -16 9 -35q-71 4 -83 -75q-7 -43 -5 -185q2 -145 10 -182q18 -80 79 -76q-8 -13 -8 -33q0 -14 4 -30l4 -14
q-92 12 -149 12q-60 0 -136 -12zM239 709q-24 0 -40 16t-16 38q0 23 16 39t40 16q23 0 39.5 -16t16.5 -39q0 -22 -16.5 -38t-39.5 -16zM49 709q-24 0 -40 16t-16 38q0 23 16 39t40 16q23 0 39.5 -16t16.5 -39q0 -22 -16.5 -38t-39.5 -16z" />
    <glyph glyph-name="Igrave" unicode="&#xcc;" horiz-adv-x="340" 
d="M2 -2q2 7 4 13q3 14 3 26q0 19 -7 38q62 -4 80 76q8 36 9 182q1 141 -5 185q-11 79 -83 75q9 18 9 33q0 14 -10 42q50 -8 135 -8q90 0 149 9q-9 -26 -9 -41q0 -16 9 -35q-71 4 -83 -75q-7 -43 -5 -185q2 -145 10 -182q18 -80 79 -76q-8 -13 -8 -33q0 -14 4 -30l4 -14
q-92 12 -149 12q-60 0 -136 -12zM248 733l-182 95q-35 -69 -35 -72t203 -55z" />
    <glyph glyph-name="Oacute" unicode="&#xd3;" horiz-adv-x="589" 
d="M534 566q-20 -145 -20 -217q0 -130 26 -230q-45 -18 -86 -56.5t-48 -64.5q-44 5 -135 12l-131 -11q-52 76 -131 118q21 152 21 230q0 26 -9 120q-9 89 -12 103q38 2 86 50q45 44 37 52q59 -16 131 -16q67 0 154 14q19 -39 55 -66q2 -2 62 -38zM397 355q0 99 -16 150
q-27 87 -103 87q-84 0 -114 -86q-19 -53 -19 -156q0 -266 125 -266q87 0 114 101q13 49 13 170zM170 733l182 95q35 -69 35 -72t-202 -55z" />
    <glyph glyph-name="Ocircumflex" unicode="&#xd4;" horiz-adv-x="589" 
d="M534 566q-20 -145 -20 -217q0 -130 26 -230q-45 -18 -86 -56.5t-48 -64.5q-44 5 -135 12l-131 -11q-52 76 -131 118q21 152 21 230q0 26 -9 120q-9 89 -12 103q38 2 86 50q45 44 37 52q59 -16 131 -16q67 0 154 14q19 -39 55 -66q2 -2 62 -38zM397 355q0 99 -16 150
q-27 87 -103 87q-84 0 -114 -86q-19 -53 -19 -156q0 -266 125 -266q87 0 114 101q13 49 13 170zM278 750l-153 -43l-11 19l157 95l171 -95l-4 -23z" />
    <glyph glyph-name="Ograve" unicode="&#xd2;" horiz-adv-x="589" 
d="M534 566q-20 -145 -20 -217q0 -130 26 -230q-45 -18 -86 -56.5t-48 -64.5q-44 5 -135 12l-131 -11q-52 76 -131 118q21 152 21 230q0 26 -9 120q-9 89 -12 103q38 2 86 50q45 44 37 52q59 -16 131 -16q67 0 154 14q19 -39 55 -66q2 -2 62 -38zM397 355q0 99 -16 150
q-27 87 -103 87q-84 0 -114 -86q-19 -53 -19 -156q0 -266 125 -266q87 0 114 101q13 49 13 170zM378 733l-182 95q-35 -69 -35 -72t203 -55z" />
    <glyph glyph-name="Uacute" unicode="&#xda;" horiz-adv-x="649" 
d="M580 600q-26 2 -43 -6q-22 -11 -27 -82q-2 -21 -2 -103q0 -150 6 -190q4 -28 23 -96l-110 -119q-135 8 -244 -2l-117 115q8 45 16 97l6 183q1 43 -15 134q-8 43 -18 51q-19 15 -36 15q-3 0 -7 -1h-5q-6 0 -9 4v69q60 -10 139 -10q74 0 148 10q-9 -26 0 -75q-21 1 -44 0
q-33 -4 -44 -94q-5 -36 -7 -132q-2 -105 18 -175q30 -103 102 -103q74 0 98 108q11 52 11 167q0 201 -37 223q-12 7 -49 7q11 30 1 73q112 -15 246 -1v-67zM180 733l182 95q35 -69 35 -72t-202 -55z" />
    <glyph glyph-name="Ucircumflex" unicode="&#xdb;" horiz-adv-x="649" 
d="M580 600q-26 2 -43 -6q-22 -11 -27 -82q-2 -21 -2 -103q0 -150 6 -190q4 -28 23 -96l-110 -119q-135 8 -244 -2l-117 115q8 45 16 97l6 183q1 43 -15 134q-8 43 -18 51q-19 15 -36 15q-3 0 -7 -1h-5q-6 0 -9 4v69q60 -10 139 -10q74 0 148 10q-9 -26 0 -75q-21 1 -44 0
q-33 -4 -44 -94q-5 -36 -7 -132q-2 -105 18 -175q30 -103 102 -103q74 0 98 108q11 52 11 167q0 201 -37 223q-12 7 -49 7q11 30 1 73q112 -15 246 -1v-67zM298 750l-153 -43l-11 19l157 95l171 -95l-4 -23z" />
    <glyph glyph-name="Ugrave" unicode="&#xd9;" horiz-adv-x="649" 
d="M580 600q-26 2 -43 -6q-22 -11 -27 -82q-2 -21 -2 -103q0 -150 6 -190q4 -28 23 -96l-110 -119q-135 8 -244 -2l-117 115q8 45 16 97l6 183q1 43 -15 134q-8 43 -18 51q-19 15 -36 15q-3 0 -7 -1h-5q-6 0 -9 4v69q60 -10 139 -10q74 0 148 10q-9 -26 0 -75q-21 1 -44 0
q-33 -4 -44 -94q-5 -36 -7 -132q-2 -105 18 -175q30 -103 102 -103q74 0 98 108q11 52 11 167q0 201 -37 223q-12 7 -49 7q11 30 1 73q112 -15 246 -1v-67zM388 733l-182 95q-35 -69 -35 -72t203 -55z" />
    <glyph glyph-name="circumflex" unicode="&#x2c6;" horiz-adv-x="451" 
d="M188 753l-130 -37l-9 17l135 93l144 -93l-4 -20z" />
    <glyph glyph-name="tilde" unicode="&#x2dc;" horiz-adv-x="451" 
d="M60 719l-32 18q34 75 88 75q25 0 73.5 -21.5t68.5 -21.5q32 0 51 36l33 -25q-25 -63 -97 -63q-19 0 -65.5 18t-67.5 18q-34 0 -52 -34z" />
    <glyph glyph-name="macron" unicode="&#xaf;" horiz-adv-x="371" 
d="M19 791h240v-55h-240v55z" />
    <glyph glyph-name="macron" unicode="&#x2c9;" horiz-adv-x="371" 
d="M19 791h240v-55h-240v55z" />
    <glyph glyph-name="cedilla" unicode="&#xb8;" horiz-adv-x="496" 
d="M187 -70q-3 0 0 82l54 2l-1 -46q79 -11 75 -84q-2 -31 -40 -52q-32 -18 -68 -18h-23v51q64 0 65 33q1 32 -62 32z" />
    <glyph glyph-name="Scaron" unicode="&#x160;" 
 />
    <glyph glyph-name="scaron" unicode="&#x161;" 
 />
    <glyph glyph-name="brokenbar" unicode="&#xa6;" 
 />
    <glyph glyph-name="Eth" unicode="&#xd0;" 
 />
    <glyph glyph-name="eth" unicode="&#xf0;" 
 />
    <glyph glyph-name="Yacute" unicode="&#xdd;" 
 />
    <glyph glyph-name="yacute" unicode="&#xfd;" 
 />
    <glyph glyph-name="Thorn" unicode="&#xde;" 
 />
    <glyph glyph-name="thorn" unicode="&#xfe;" 
 />
    <glyph glyph-name="minus" unicode="&#xad;" 
 />
    <glyph glyph-name="minus" unicode="&#x2212;" 
 />
    <glyph glyph-name="multiply" unicode="&#xd7;" horiz-adv-x="14" 
 />
    <glyph glyph-name="onesuperior" unicode="&#xb9;" 
 />
    <glyph glyph-name="twosuperior" unicode="&#xb2;" 
 />
    <glyph glyph-name="threesuperior" unicode="&#xb3;" 
 />
    <glyph glyph-name="onehalf" unicode="&#xbd;" 
 />
    <glyph glyph-name="onequarter" unicode="&#xbc;" 
 />
    <glyph glyph-name="threequarters" unicode="&#xbe;" 
 />
    <glyph glyph-name="Lslash" unicode="&#x141;" 
 />
    <glyph glyph-name="lslash" unicode="&#x142;" 
 />
    <glyph glyph-name="HT" 
 />
    <glyph glyph-name="LF" 
 />
    <glyph glyph-name="nonmarkingreturn" 
 />
    <glyph glyph-name="Zcaron" unicode="&#x17d;" 
 />
    <glyph glyph-name="zcaron" unicode="&#x17e;" 
 />
    <glyph glyph-name="DLE" 
 />
    <glyph glyph-name="DC1" 
 />
    <glyph glyph-name="DC2" 
 />
    <glyph glyph-name="DC3" 
 />
    <glyph glyph-name="DC4" 
 />
    <glyph glyph-name="RS" 
 />
    <glyph glyph-name="US" 
 />
    <glyph glyph-name="notequal" unicode="&#x2260;" horiz-adv-x="25" 
 />
    <glyph glyph-name="infinity" unicode="&#x221e;" horiz-adv-x="20" 
 />
    <glyph glyph-name="lessequal" unicode="&#x2264;" horiz-adv-x="20" 
 />
    <glyph glyph-name="greaterequal" unicode="&#x2265;" horiz-adv-x="20" 
 />
    <glyph glyph-name="partialdiff" unicode="&#x2202;" horiz-adv-x="543" 
d="M-1 270l92 58q1 144 -5 190q-11 79 -83 75q9 25 9 40q0 16 -9 34q49 -7 136 -7q88 1 147 8q-11 -28 0 -75q-70 4 -83 -75q-5 -33 -6 -124l137 87v-96l-136 -84q3 -114 10.5 -147t29.5 -53q24 -23 59 -21q53 3 63 6q35 11 48.5 55.5t9.5 99.5l-3 39q18 1 81 0
q-12 -56 -12 -130q0 -52 6 -108l6 -44q-133 10 -274 10q-132 0 -220 -10q9 17 9 40q0 21 -9 41q62 -4 80 76q4 19 7 78l-90 -56v93z" />
    <glyph glyph-name="summation" unicode="&#x2211;" horiz-adv-x="514" 
d="M467 120q-34 -6 -77 -49q-38 -38 -52 -70l-101 8q-5 0 -92 -8l-52 46l-20 -46h-73q16 77 16 129q0 49 -14 119h86q5 -24 9 -48q14 -50 40 -81q37 -42 95 -41q46 1 81 33t35 83q0 33 -24 64t-65 40q-29 6 -58 6q-40 0 -70 -10q-23 24 -42 42q-47 44 -70 54q4 25 4 58
q0 51 -8 106q61 43 102 113q88 -12 172 2q11 -12 47 -49l25 49h61q-7 -32 -7 -79q0 -59 10 -105q-81 0 -85 1q-10 54 -30 75q-26 27 -86 29q-44 2 -69 -33q-21 -28 -21 -67q0 -51 42 -79q36 -23 88 -23q11 0 83 10q51 -76 121 -101q-12 -46 -12 -97q0 -46 11 -81zM229 776
l130 36l9 -16l-136 -93l-143 93l4 20z" />
    <glyph glyph-name="product" unicode="&#x220f;" horiz-adv-x="514" 
d="M467 120q-34 -6 -77 -49q-38 -38 -52 -70l-101 8q-5 0 -92 -8l-52 46l-20 -46h-73q16 77 16 129q0 49 -14 119h86q5 -24 9 -48q14 -50 40 -81q37 -42 95 -41q46 1 81 33t35 83q0 33 -24 64t-65 40q-29 6 -58 6q-40 0 -70 -10q-23 24 -42 42q-47 44 -70 54q4 25 4 58
q0 51 -8 106q61 43 102 113q88 -12 172 2q11 -12 47 -49l25 49h61q-7 -32 -7 -79q0 -59 10 -105q-81 0 -85 1q-10 54 -30 75q-26 27 -86 29q-44 2 -69 -33q-21 -28 -21 -67q0 -51 42 -79q36 -23 88 -23q11 0 83 10q51 -76 121 -101q-12 -46 -12 -97q0 -46 11 -81zM229 776
l130 36l9 -16l-136 -93l-143 93l4 20z" />
    <glyph glyph-name="pi" unicode="&#x3c0;" horiz-adv-x="648" 
d="M602 592q-36 1 -56 -19q-68 -68 -160 -250q-13 -25 -13 -116t27 -112q20 -19 62 -14v-81q-66 9 -150 9q-83 0 -159 -9v83q54 0 74.5 13t19.5 120q0 1 1.5 9t1.5 16q0 33 -27 80q-11 19 -104 191q-20 37 -28 48q-12 16 -33 27q-16 9 -59 6l1 81q55 -12 137 -12
q77 0 150 10v-79q-50 6 -50 -38q0 -15 44 -93q36 -66 47 -81q16 9 58 85q40 73 43 93q6 33 -56 36v77q35 -8 94 -8q71 0 135 10v-82zM187 736l207 107q35 -70 35 -73q0 -2 -228 -66z" />
    <glyph glyph-name="integral" unicode="&#x222b;" horiz-adv-x="648" 
d="M602 592q-36 1 -56 -19q-68 -68 -160 -250q-13 -25 -13 -116t27 -112q20 -19 62 -14v-81q-66 9 -150 9q-83 0 -159 -9v83q54 0 74.5 13t19.5 120q0 1 1.5 9t1.5 16q0 33 -27 80q-11 19 -104 191q-20 37 -28 48q-12 16 -33 27q-16 9 -59 6l1 81q55 -12 137 -12
q77 0 150 10v-79q-50 6 -50 -38q0 -15 44 -93q36 -66 47 -81q16 9 58 85q40 73 43 93q6 33 -56 36v77q35 -8 94 -8q71 0 135 10v-82zM187 736l207 107q35 -70 35 -73q0 -2 -228 -66z" />
    <glyph glyph-name="Omega" unicode="&#x3a9;" horiz-adv-x="629" 
d="M-1 441h44q-10 110 -14 129q22 12 80 59l53 43q79 -14 133 -11l144 9q32 -48 125 -104q-4 -17 -16 -77l-145 3q-25 100 -105 100q-110 0 -129 -151h185v-55h-189v-36t1 -39h188v-55h-185q19 -172 121 -172q61 0 97 51q28 40 28 86h124q-2 -31 7 -60l14 -42
q-41 -17 -84 -59q-33 -32 -51 -62q-43 5 -133 12l-130 -11q-62 80 -133 118q5 34 16 139h-46v55h50q1 20 1 36q0 11 -2 39h-49v55z" />
    <glyph glyph-name="Omega" unicode="&#x2126;" horiz-adv-x="629" 
d="M-1 441h44q-10 110 -14 129q22 12 80 59l53 43q79 -14 133 -11l144 9q32 -48 125 -104q-4 -17 -16 -77l-145 3q-25 100 -105 100q-110 0 -129 -151h185v-55h-189v-36t1 -39h188v-55h-185q19 -172 121 -172q61 0 97 51q28 40 28 86h124q-2 -31 7 -60l14 -42
q-41 -17 -84 -59q-33 -32 -51 -62q-43 5 -133 12l-130 -11q-62 80 -133 118q5 34 16 139h-46v55h50q1 20 1 36q0 11 -2 39h-49v55z" />
    <glyph glyph-name="radical" unicode="&#x221a;" horiz-adv-x="20" 
 />
    <glyph glyph-name="approxequal" unicode="&#x2248;" horiz-adv-x="20" 
 />
    <glyph glyph-name="approxequal" unicode="&#x22f2;" horiz-adv-x="20" 
 />
    <glyph glyph-name="Delta" unicode="&#x394;" horiz-adv-x="20" 
 />
    <glyph glyph-name="Delta" unicode="&#x2206;" horiz-adv-x="20" 
 />
    <glyph glyph-name="lozenge" unicode="&#x25ca;" horiz-adv-x="267" 
d="M114 186l-111 159l111 155l111 -155z" />
    <glyph glyph-name="fraction" unicode="&#x2044;" horiz-adv-x="20" 
 />
    <glyph glyph-name="fi" unicode="&#xf001;" horiz-adv-x="20" 
 />
    <glyph glyph-name="fl" unicode="&#xf002;" horiz-adv-x="20" 
 />
    <glyph glyph-name="apple" unicode="&#xf000;" horiz-adv-x="19" 
 />
    <glyph glyph-name="dotlessi" unicode="&#x131;" horiz-adv-x="340" 
d="M2 -2q2 7 4 13q3 14 3 26q0 19 -7 38q62 -4 80 76q8 36 9 182q1 141 -5 185q-11 79 -83 75q9 18 9 33q0 14 -10 42q50 -8 135 -8q90 0 149 9q-9 -26 -9 -41q0 -16 9 -35q-71 4 -83 -75q-7 -43 -5 -185q2 -145 10 -182q18 -80 79 -76q-8 -13 -8 -33q0 -14 4 -30l4 -14
q-92 12 -149 12q-60 0 -136 -12z" />
    <glyph glyph-name="breve" unicode="&#x2d8;" horiz-adv-x="368" 
d="M296 790q0 -41 -56 -67q-45 -20 -89 -20q-45 0 -89 20q-57 26 -57 67h40q0 -18 47 -29q34 -8 59 -8q24 0 58 8q47 11 47 29h40z" />
    <glyph glyph-name="dotaccent" unicode="&#x2d9;" horiz-adv-x="224" 
d="M99 709q-24 0 -40 16t-16 38q0 23 16 39t40 16q23 0 39.5 -16t16.5 -39q0 -22 -16.5 -38t-39.5 -16z" />
    <glyph glyph-name="ring" unicode="&#x2da;" horiz-adv-x="451" 
d="M192 852q32 0 57.5 -18.5t25.5 -48.5q0 -31 -25.5 -49.5t-57.5 -18.5t-57.5 18.5t-25.5 49.5q0 30 25.5 48.5t57.5 18.5zM192 812q-20 0 -31.5 -9t-11.5 -18q0 -10 11.5 -19t31.5 -9t33 10q10 8 10 18q0 9 -10 17q-13 10 -33 10z" />
    <glyph glyph-name="hungarumlaut" unicode="&#x2dd;" horiz-adv-x="270" 
d="M236 794l-92 -103l-16 7l43 126zM136 794l-92 -103l-16 7l43 126z" />
    <glyph glyph-name="ogonek" unicode="&#x2db;" horiz-adv-x="238" 
d="M180 -152q-22 -41 -60 -41q-34 0 -58.5 31.5t-24.5 68.5q0 40 24 83q27 47 59 47v-36q-11 0 -24 -31.5t-13 -62.5q0 -29 12 -46.5t25 -17.5q16 0 29 22z" />
    <glyph glyph-name="caron" unicode="&#x2c7;" horiz-adv-x="451" 
d="M189 786l130 36l9 -16l-136 -93l-143 93l4 20z" />
    </font>
</defs>
</svg>
