<?xml version="1.0" standalone="no"?>
<!DOCTYPE svg PUBLIC "-//W3C//DTD SVG 1.1//EN" "http://www.w3.org/Graphics/SVG/1.1/DTD/svg11.dtd" >
<svg>
<metadata>
Created by FontForge 20120731 at Wed Apr 17 20:29:31 2019
 By www-data
Digitized by Dan X. Solo. Software (c) 2000 by Dover Publications, Inc., New York.
</metadata>
<defs>
<font id="Panjandrum" horiz-adv-x="20" >
  <font-face 
    font-family="Panjandrum"
    font-weight="400"
    font-stretch="normal"
    units-per-em="1000"
    panose-1="0 0 4 0 0 0 0 0 0 0"
    ascent="800"
    descent="-200"
    x-height="672"
    cap-height="673"
    bbox="-11 -215 1130 857"
    underline-thickness="20"
    underline-position="-123"
    unicode-range="U+0020-F002"
  />
<missing-glyph horiz-adv-x="500" 
d="M63 0v800h375v-800h-375zM125 63h250v675h-250v-675z" />
    <glyph glyph-name=".notdef" horiz-adv-x="500" 
d="M63 0v800h375v-800h-375zM125 63h250v675h-250v-675z" />
    <glyph glyph-name="glyph1" horiz-adv-x="0" 
 />
    <glyph glyph-name="glyph2" horiz-adv-x="173" 
 />
    <glyph glyph-name="space" unicode=" " horiz-adv-x="173" 
 />
    <glyph glyph-name="exclam" unicode="!" horiz-adv-x="316" 
d="M226 677q1 7 -2 2l50 -36q-33 -88 -42 -300q-2 -47 16 -88l-3 -3q-34 -30 -36 -92h-83l-36 35l-2 1q-4 24 -9 43q-12 45 -27 58q19 40 15 116q-7 179 -39 264h198zM258 636l-37 29q-27 -67 -35 -252q-3 -76 15 -116q-34 -31 -36 -103l-62 1l25 -25q55 1 69 0q3 54 37 88
q-16 36 -14 85q3 65 13 151q12 104 25 142zM212 143v-144l-151 1l36 -39h144v145zM49 -1v154h163v0l39 -45v-157l-159 -1z" />
    <glyph glyph-name="quotedbl" unicode="&#x22;" horiz-adv-x="328" 
d="M260 673q1 4 -1 1l30 -22q-22 -58 -25 -131q-1 -23 10 -47l-2 -2q-21 -18 -22 -55h-38l-21 21h-1q-3 15 -6 26q-7 27 -16 35q10 22 9 46q-3 74 -23 128h106zM280 648l-23 18q-17 -44 -21 -121q0 -24 10 -46q-21 -18 -22 -61h-25l15 -15h29q2 32 22 53q-9 21 -8 45
q3 70 23 127zM110 673q1 4 -1 1l30 -22q-22 -58 -25 -131q-1 -23 10 -47l-2 -2q-21 -18 -22 -55h-38l-21 21h-1q-3 15 -6 26q-7 27 -16 35q10 22 9 46q-3 74 -23 128h106zM130 648l-23 18q-17 -44 -21 -121q0 -24 10 -46q-21 -18 -22 -61h-25l15 -15h29q2 32 22 53
q-9 21 -8 45q3 70 23 127z" />
    <glyph glyph-name="numbersign" unicode="#" horiz-adv-x="527" 
d="M217 447l-29 -208h97l30 208h-98zM168 676h83l-22 -149h97l22 149h83l-22 -149h76l-10 -80h-77l-30 -208h79l-10 -81h-80l-24 -159h-83l23 159h-97l-24 -159h-83l24 159h-85l10 81h87l29 208h-88l10 80h90z" />
    <glyph glyph-name="dollar" unicode="$" horiz-adv-x="501" 
d="M209 70v61q-15 14 -43 34v-64q0 -15 13 -23t30 -8zM111 340q22 -17 32 -38q62 -5 87 -14q-41 56 -119 52zM13 410l36 -49q13 0 32 -4q0 1 -68 53zM213 376q-6 27 0 154q2 40 43 42q-6 34 -42 34q-18 0 -31 -11t-13 -30v-131q0 -40 43 -58zM438 376l-41 40h-31
q10 -12 37 -40h35zM403 427l43 -42v237l-43 37v-232zM415 83l45 -41v187l-45 40q2 -154 0 -186zM184 0h-29q-7 0 2 -4q18 -7 27 -17v21zM310 7l37 -36q28 42 101 65l-41 39q-40 -8 -57 -20q-22 -14 -40 -48zM84 -38l-38 38q-12 3 -29 0l36 -38h31zM54 9l39 -39q11 28 50 30
q-3 25 -51 25q-30 0 -38 -16zM197 -94l26 -23h48v78l67 1l-37 37h-58v-93h-46zM269 672v43l-26 17v-60h26zM278 720l1 -48h1q12 -31 38 -31q32 0 43 31h43l55 -43v-264h-62q-18 21 -53 56l1 -3q-4 6 -1 3q-5 33 -13 44q-18 24 -72 39v57q-31 -1 -31 -32v-64v-91q25 -7 63 -7
q36 0 35 0q12 -51 87 -83q7 -3 58 -51q-1 -205 0 -205q-85 -18 -124 -80h-61q-2 -78 0 -78q-31 1 -68 1l-38 37h4v45q-6 35 -42 35q-39 0 -39 -37l-58 -1l-41 48l-2 1v268h49q13 -30 48 -55q32 -23 68 -32h-1q16 -9 56 -43l-1 -64q24 7 24 28v142q0 14 -6 28q-50 25 -102 18
q-4 9 -20.5 28.5t-25.5 24.5q-16 5 -50 12q-33 46 -37 49q1 1 -2 3v185q38 6 62 20q30 19 56 61h64v71h59z" />
    <glyph glyph-name="percent" unicode="%" horiz-adv-x="757" 
d="M732 148q-22 -15 -22 -36q0 4 0 -30.5v-56.5v-31q-13 -3 -25 -7q-28 -11 -46 -37h-102q-27 40 -68 43l-18 25q-1 0 -1 1l1 118q0 4 -1 8l-3 2l2 1q-5 12 -18 21q11 6 18 25l1 107q22 2 44 15t29 33h92q5 -16 29.5 -32.5t41.5 -16.5q6 -8 25 -28v-99q3 -7 5 -15
q2 -2 16 -10zM720 147q-8 5 -16 25v96q-9 10 -20 21v-92q3 -8 6 -14.5t14 -12.5q-16 -12 -19 -32q-4 -41 0 -116l18 -19v113q0 17 17 31zM590 300q-20 2 -20 -13v-116q0 -14 16 -25q-16 -5 -16 -24l1 -121q17 4 17 18v123q0 18 -13 25q15 8 15 27v106zM589 308q1 14 -22 14
q-22 0 -22 -15l-1 -114q0 -17 16 -26q-15 -6 -15 -26l-1 -122q0 -16 19 -17v119q0 18 12 25q-12 8 -12 25l1 116q0 17 25 17v4zM699 -1l-20 19q-36 -5 -60 -37l19 -21q28 36 61 39zM631 -43l-18 21h-89q4 -3 17 -21h90zM508 -10q-12 13 -47 27l12 -16q18 -2 35 -11zM497 628
l-173 -675h-61l-37 48h1h-3l170 669h62l2 2zM281 1h-42l31 -36h36zM484 623l-30 37l-165 -650l27 -39zM302 472q-22 -15 -22 -36q0 4 0 -30.5v-56.5v-31q-13 -3 -25 -7q-28 -11 -46 -37h-102q-27 40 -68 43l-18 25q-1 0 -1 1l1 118q0 4 -1 8l-3 2l2 1q-5 12 -18 21
q11 6 18 25l1 107q22 2 44 15t29 33h92q5 -16 29.5 -32.5t41.5 -16.5q6 -8 25 -28v-99q3 -7 5 -15q2 -2 16 -10zM290 471q-8 5 -16 25v96q-9 10 -20 21v-92q3 -8 6 -14.5t14 -12.5q-16 -12 -19 -32q-4 -41 0 -116l18 -19v113q0 17 17 31zM160 624q-20 2 -20 -13v-116
q0 -14 16 -25q-16 -5 -16 -24l1 -121q17 4 17 18v123q0 18 -13 25q15 8 15 27v106zM159 632q1 14 -22 14q-22 0 -22 -15l-1 -114q0 -17 16 -26q-15 -6 -15 -26l-1 -122q0 -16 19 -17v119q0 18 12 25q-12 8 -12 25l1 116q0 17 25 17v4zM269 323l-20 19q-36 -5 -60 -37l19 -21
q28 36 61 39zM201 281l-18 21h-89q4 -3 17 -21h90zM78 314q-12 13 -47 27l12 -16q18 -2 35 -11z" />
    <glyph glyph-name="ampersand" unicode="&#x26;" horiz-adv-x="588" 
d="M574 304l-1 -89q-45 -8 -60 -20.5t-26 -52.5q17 -31 34 -63q26 -42 49 -50v-81l-14 -1q-36 -3 -70 5q-58 14 -81 40q-43 -41 -42 -41h-169q-21 27 -44 38q-14 8 -55 20l-33 54q2 -1 -2 1l-62 168q34 27 64 103l111 48q-10 26 -26 64q-13 19 -34 29l-1 115q27 6 48 29
q12 13 39 52h155q17 -44 98 -85q1 -1 43 -44l-1 -98l-110 -62l45 -118q20 25 69 76q7 5 13 9.5t17 4.5v-1zM454 102q17 -21 60 -29q-10 19 -37 70q10 41 26.5 57t59.5 26v77l-34 38l-1 -1l1 -67q-7 1 -32 -15q-17 -20 -63 -106q9 -24 20 -50zM330 412l73 -182l21 26
q-15 34 -52 132l10 4l100 56l1 88l-31 35v-94zM212 226l70 -154q1 -3 8 -8q17 5 17 17q0 3 -2 7l-85 191q-20 -26 -8 -53zM201 221q-5 12 -5 25q0 24 19 44l-10 20q-38 -15 -38 -55q0 -12 5 -22l69 -153q5 -12 24 -19q5 -1 10 0q-3 3 -4 6zM150 3q-33 39 -75 58l29 -42
q16 -5 46 -16zM330 0h-173q23 -12 43 -37q130 0 125 0q31 0 36 1l1 1q13 12 42 40q45 -36 86.5 -43t69.5 -6q1 42 0 67q-29 23 -34 34q1 -60 0 -59q-33 -2 -78 5q-15 6 -31 13q-27 13 -37 28zM317 483q-29 57 -29 85q0 31 31 40q4 1 9 1q-6 5 -14 7q-11 3 -23 2
q-28 -8 -28 -42q0 -29 20 -73q9 -15 18 -29q6 3 16 9zM334 597q-8 1 -15 0q-21 -6 -21 -29q0 -24 28 -79q6 5 11.5 23.5t3.5 37.5q-3 32 -3 29q0 6 -4 18z" />
    <glyph glyph-name="quotesingle" unicode="'" horiz-adv-x="169" 
d="M110 674q1 4 -1 1l30 -22q-22 -58 -25 -131q-1 -23 10 -47l-2 -2q-21 -18 -22 -55h-38l-21 21h-1q-3 15 -6 26q-7 27 -16 35q10 22 9 46q-3 74 -23 128h106zM130 649l-23 18q-17 -44 -21 -121q0 -24 10 -46q-21 -18 -22 -61h-25l15 -15h29q2 32 22 53q-9 21 -8 45
q3 70 23 127z" />
    <glyph glyph-name="parenleft" unicode="(" horiz-adv-x="226" 
d="M149 690l49 -54q-46 -206 -46 -353q0 -164 55 -351h-34q-38 23 -63 53q-10 23 -15 29q-9 11 -30 14q-68 162 -68 310q0 147 65 304q45 2 49 51h39zM188 -55q-51 177 -51 344q0 150 42 344l-32 39q-50 -185 -50 -361q0 -169 46 -326q-9 0 -18 -1q15 -21 50 -39q6 1 13 0z
" />
    <glyph glyph-name="parenright" unicode=")" horiz-adv-x="233" 
d="M133 -22q-43 -2 -46 -46h-48l-44 52q46 247 46 395q0 159 -45 314h36q7 -24 15.5 -31.5t32.5 -10.5q1 0 2 -1q23 -22 46 -43q76 -155 76 -310q0 -148 -71 -319zM125 -10q63 155 63 299q0 145 -66 304q-5 1 -21 20t-19 19q58 -160 58 -311q0 -149 -56 -284q-45 -2 -49 -52
h-1l-27 -1l34 -40l34 1q6 40 50 45z" />
    <glyph glyph-name="asterisk" unicode="*" horiz-adv-x="348" 
d="M293 516l-32 -55l-94 72l20 -118h-65l16 117l-93 -76l-32 55l110 45l-113 43l32 55l94 -72l-20 118h65l-16 -117l93 76l32 -55l-110 -45z" />
    <glyph glyph-name="plus" unicode="+" horiz-adv-x="581" 
d="M561 242h-212v-212l-98 -1l-38 47v166l-170 1l-42 45v89h212v212h90l46 -34v-178h166l46 -34v-101zM549 254v85l-34 26v-77h-212v-212h-78l34 -34h78v212h212zM19 288l29 -35l165 1v34h-194zM337 377l-1 171l-33 25v-196h34z" />
    <glyph glyph-name="comma" unicode="," horiz-adv-x="355" 
d="M228 11l-174 -139l-45 41v72q-1 -1 34 29q-15 15 -33 32l-1 167l177 1l42 -45v-158zM216 17v148l-33 32l-1 -153q-19 -14 -161 -124l34 -31zM84 47h-60l28 -26z" />
    <glyph glyph-name="hyphen" unicode="-" horiz-adv-x="343" 
d="M271 380v-165l-256 -1l34 -41h256v166zM3 214v180l268 1v-1l46 -52v-181h-274z" />
    <glyph glyph-name="hyphen" unicode="&#x2010;" horiz-adv-x="343" 
d="M271 380v-165l-256 -1l34 -41h256v166zM3 214v180l268 1v-1l46 -52v-181h-274z" />
    <glyph glyph-name="period" unicode="." horiz-adv-x="259" 
d="M171 173v-169h-156l34 -41h156v166zM3 4v180l168 1v-1l46 -52v-181l-174 -1z" />
    <glyph glyph-name="slash" unicode="/" horiz-adv-x="297" 
d="M284 643l-182 -708h-64l-39 50h1h-3l178 703h66l2 2zM57 -15h-44l33 -38h37zM270 639l-31 38l-174 -682l29 -41z" />
    <glyph glyph-name="zero" unicode="0" horiz-adv-x="578" 
d="M555 309q-40 -28 -40 -66q0 8 0 -55v-103v-56l-46 -12q-50 -20 -83 -68h-185q-50 73 -124 79l-33 44q-1 1 -1 2l1 215q0 8 -3 15l-4 4l3 1q-9 22 -32 38q20 11 24 18q4 14 9 27l1 196q40 3 78 25q42 25 55 61h168q8 -28 52.5 -58t74.5 -31q12 -14 46 -51l1 -180l10 -26
q3 -5 28 -19zM338 0h-160q6 -6 29 -39h165zM459 72q-66 -8 -110 -66l34 -40q52 66 112 73zM533 307q-15 9 -19.5 20.5t-8.5 24.5l-1 175q-17 17 -36 39v-168q5 -15 11 -29q5 -10 25 -21q-30 -20 -34 -56q0 -7 -1 -96q-1 -94 0 -117l34 -33q0 14 -1 205q-1 29 31 56zM296 585
q-35 4 -35 -24v-210q0 -26 29 -46q-29 -9 -29 -43l1 -220q30 6 30 33l1 224q0 31 -24 44q27 14 27 49v193zM296 600q0 25 -41 25q-40 0 -40 -26l-1 -208q0 -32 29 -48q-28 -10 -29 -46v-223q0 -29 34 -30v216q0 33 21 46q-21 14 -21 46l1 209q0 25 21 31q4 1 26 1v7zM148 21
q-22 24 -86 49l22 -28q32 -4 64 -21z" />
    <glyph glyph-name="one" unicode="1" horiz-adv-x="347" 
d="M70 2h-2v288q1 18 -8 29l-24 26q15 9 20.5 22t11.5 27v86q-12 -11 -48 -11v48q50 13 93 56t59 100h59v2l47 -58l1 -268q4 -25 36 -55q-33 -26 -36 -52l2 -289l-159 -1zM293 295q-25 25 -29 53v262l-33 48v-259q1 -23 13 -38q9 -8 19 -16q-29 -24 -32 -53v-290h-146
l44 -35h136l-1 276q3 27 29 52z" />
    <glyph glyph-name="two" unicode="2" horiz-adv-x="522" 
d="M206 120q74 147 235 236v185l-33 43l1 -199q-195 -105 -250 -249q14 -16 28 -16h19zM88 0l44 -32h312q-4 21 -4 34q0 89 20 121q-10 22 -36 70q-27 -109 -27 -142q0 -28 7 -51h-316zM250 560q-18 8 -32 8q-59 0 -59 -67q0 -101 54 -175q46 75 46 157q0 30 -9 77zM112 372
q9 -12 39 -42h27h14q-47 72 -47 163q0 90 73 90q8 0 28 -7q-14 41 -56 41q-76 0 -76 -127q0 -69 39 -118h-41zM37 590q70 25 111 84l161 -1q15 -28 41 -49q29 -25 57 -24l49 -56v-197q-161 -88 -233 -228h87q29 0 50 23.5t21 53.5q0 15 -5 41q20 -10 51 -25l51 -89
q-23 -34 -23 -121q0 -17 9 -49l-338 1q-41 35 -123 110q21 16 59 54q9 11 143 201h-61q-60 64 -79 91q-40 57 -40 111q0 43 12 69z" />
    <glyph glyph-name="three" unicode="3" horiz-adv-x="497" 
d="M195 406q45 28 52 88q2 54 -4 81q-6 2 -36 5q-28 3 -45.5 -20.5t-16.5 -58.5q1 -57 50 -95zM104 -1q-18 22 -35 44q-20 21 -68 34l1 89q0 35 31 65t67 30q18 0 33 -9q15 -18 49 -50q-53 -15 -53 -68q0 -34 21 -75q11 -2 26 -2q36 0 55 33q16 28 16 67q0 23 -7 99l-3 6
q-30 18 -86 17l-53 53l-1 47q30 4 85 21q-7 -1 -24 -1q-52 0 -87 36q-9 9 -30 45q-9 10 -21 48v70q56 7 88 75h177q29 -65 109 -70v1l47 -73l-1 -160q-80 -16 -119 -39q33 -23 70 -26v-2l53 -59v-228q-47 -7 -67 -18t-41 -47h-175zM133 61q-22 40 -22 78q0 56 46 69
q-12 14 -35 31q-40 -16 -40 -71q0 -29 7 -50q13 -45 44 -57zM115 334l41 -40q40 0 70 -10q-19 29 -58 42q-30 11 -53 8zM68 465q10 -23 40 -38t57 -13q-35 45 -37 82q-2 47 21 75t62 28q4 0 14.5 -3.5t12.5 -3.5q-14 33 -69 33q-67 0 -67 -77q0 -70 31 -94q-17 -2 -65 11z
M304 339q45 28 122 44l1 141l-32 57l-1 -171q-77 -15 -125 -50q6 -5 35 -21zM429 30v207l-32 40v-204q-43 -5 -69 -26q-17 -15 -36 -48h-166q9 -13 41 -32h161q29 51 101 63z" />
    <glyph glyph-name="four" unicode="4" horiz-adv-x="543" 
d="M243 86v32h-226l46 -33zM475 162v-46h-75l1 -116h-137l46 -33l123 1l-1 105h84l1 41zM401 501l1 -112q0 -29 24 -40q-25 -13 -25 -40v-128h32v78q0 12 9 24t21 14q-29 18 -29 42l1 102zM375 659q-57 -115 -146 -253q-95 -146 -168 -224h44q182 218 280 443zM228 674
l154 -1q-1 -2 -1 -4v0q1 4 3 9v0q0 -1 -2 -5l20 -44q-97 -229 -277 -447l122 1v113q29 42 52 80q57 90 81 144l20 -1h1l49 -72l-1 -108q0 -20 30 -34h-8q1 -14 -11 -25.5t-12 -20.5v-78h26h1l57 -62v-61h-85l1 -105h-145l-60 47v71h-185l-56 47l-1 61q73 61 73 140
q0 11 -2 21q69 53 113 150q40 91 43 184z" />
    <glyph glyph-name="five" unicode="5" horiz-adv-x="507" 
d="M172 398q-37 -6 -43 -47h-61l42 -34q29 20 64 7q6 38 51 38q9 0 19 -3q-2 15 -20 27q-22 10 -52 12zM445 307v-264q-48 -7 -77 -30q-19 -15 -52 -60h-138l-60 46q-43 75 -113 106v58q8 91 94 102q11 -14 22 -26.5t36 -22.5q-34 -27 -34 -63q0 -19 10 -40q3 -11 10 -31
q8 -1 18 -1q32 0 59 19.5t27 44.5l-1 195q-22 3 -26 3q-25 0 -34 -33l-4 -16l-14 11q-10 8 -25 8q-21 0 -36 -12l-56 50q1 0 0 -1v323h314q0 -4 0 -2l54 -47q-3 -25 4 -48q0 -1 4 -11q3 -22 13 -64q-1 -26 -12 -45q-1 -2 -25 -35q-3 -4 -6 -4q-6 0 -15 14q1 8 1 13
q0 18 -16 26.5t-17 12.5q4 19 3 41q-8 3 -18 6l-158 1q-1 -29 0 -78h118q31 -73 101 -87l9 -2zM124 89q-2 7 -6 20q-10 31 -10 50q0 30 25 53q-16 6 -35 34l-17 -24q-12 -13 -12 -46q0 -59 55 -87zM368 489l16 -12q10 -10 15 -37q24 31 26 59l-8 37q-1 9 -6 21q0 6 -2 14
l-1 2q-3 12 -1 43l-39 34q6 -19 25 -100q-3 -45 -25 -61zM162 445v99q20 1 175 1q7 -2 13 -4q-6 16 -23 24q-21 7 -41 13l-156 1v-80q1 -81 0 -82q10 4 32 28zM430 301l-34 46l1 -257q-61 -8 -120 -90h-139q35 -16 44 -32l124 -1q55 77 124 89v245z" />
    <glyph glyph-name="six" unicode="6" horiz-adv-x="537" 
d="M495 554q-21 -38 -16 -52q-29 -60 -116 -86q-7 20 -19 30q-17 15 -18 16q7 29 13 58q2 11 -2 39q0 3 -1 8q-12 5 -25 5q-24 0 -42.5 -15.5t-16.5 -38.5q6 -68 0 -128h85q14 -30 34.5 -46t66.5 -33v1q14 -12 48 -45l-1 -245q-78 -6 -105 -71l-189 1q-13 16 -37 49v-1
q-42 67 -115 74v235q0 25 -33 41q33 18 33 40l1 209q83 18 127 73h154q10 -18 56.5 -45.5t69.5 -28.5q-1 -2 18.5 -20t29.5 -24zM477 547q-10 14 -35 34q-9 -12 -12 -32q0 -9 -1 -19q-15 -33 -86 -64q8 -5 24 -36q20 2 55 26q40 27 43 50q1 7 12 41zM330 583q-17 35 -59 35
q-28 0 -48 -16.5t-17 -42.5l1 -199q16 0 31 26l1 132q-3 30 19 48.5t53 18.5q10 0 19 -2zM470 35v227q-14 13 -32 35v-228q-30 -3 -61 -22t-42 -47h-164q10 -12 25 -33h174q13 26 42 45t58 23zM279 115v158q-25 -6 -24 -26v-164q24 8 24 32zM279 287q-2 33 -34 33
q-37 0 -37 -36v-172q0 -31 33 -29v166q0 34 38 38z" />
    <glyph glyph-name="seven" unicode="7" horiz-adv-x="482" 
d="M275 537l15 33h-185q-10 0 -24 -6q-8 -4 -17 -13q-16 -17 -16 -42q0 -22 13 -44q7 72 84 72h130zM414 656q-97 -282 -99 -282q-2 -11 5 -20l14 -18q-30 -10 -36 -20q-7 -13 -13 -26q-104 -290 -106 -290h-167l42 -35h161l103 288q6 8 8 15l3 6q5 15 33 26l-1 1
q-16 19 -13 34l5 5h-3q7 19 51 145q18 52 45 126zM419 671l44 -53l-48 -138q-21 -65 -53 -148q-1 -8 6 -16.5t13 -15.5l4 -8l-24 -8q-15 -7 -18 -16l-3 -5q-3 -9 -8 -17q-11 -29 -110 -294l-170 1l-57 47h9l139 281q0 5 5 17t5 19q0 12 -10 22q14 5 24 11q26 13 31 27
q0 2 69 145h-122q-48 0 -61 -28q-9 -18 -7 -71l-14 15q-31 35 -35 45q-21 49 -21 71q0 23 11 41q9 33 0 77z" />
    <glyph glyph-name="eight" unicode="8" horiz-adv-x="501" 
d="M413 260l1 -192q-33 -4 -69 -22q-40 -21 -52 -46h-158q12 -12 23 -32h171q27 48 116 64l1 201q-6 1 -17 13t-16 14zM414 584l-1 -194q-51 -9 -90 -49q6 -13 35 -34q39 39 88 50l1 199zM414 603l22 -20q24 -20 26 -20l1 1l-3 3v-224q-54 -10 -88 -43q4 -5 10 -13
q7 -3 31 -8v-1q16 -15 48 -33l-1 -226q-98 -14 -122 -66h-189q-18 35 -39 49q-6 4 -8 18q-25 37 -83 49l-1 215q53 12 95 55q-22 35 -95 57v210q64 2 107 65h177q18 -27 49.5 -47t62.5 -21zM221 64q34 6 34 40v165q-2 1 -3 1q-31 0 -31 -29v-177zM255 285q-8 32 -44 32
q-38 0 -38 -36v-180q0 -32 33 -37v177q0 22 14 33t32 11h3zM221 367q34 6 34 40v162q-2 1 -3 1q-31 0 -31 -29v-174zM255 585q-8 32 -44 32q-38 0 -38 -36v-177q0 -32 33 -37v174q0 22 14 33t32 11h3z" />
    <glyph glyph-name="nine" unicode="9" horiz-adv-x="515" 
d="M498 285q-14 -7 -27.5 -16t-13.5 -25l-1 -219q-88 -19 -131 -72h-162q-12 15 -40 53q-19 22 -82 55q-28 12 -42 13q15 30 11 55q3 19 13 35q24 36 82 43q9 -7 41 -49q3 -51 27 -97q3 -2 9 -2q19 0 42 19.5t20 43.5l-1 115h-95q-51 76 -137 126v243q31 2 66 21.5t47 45.5
l171 1q26 -36 44 -48q26 -19 71 -23q18 -21 48 -43l-1 -234q0 -16 14 -26q3 -3 27 -15zM442 325v1l-1 226q-10 5 -32 27v-213q0 -25 33 -41zM240 390v157q-23 -4 -23 -27v-163q23 8 23 33zM240 562q0 32 -35 32q-36 0 -36 -34v-170q0 -33 33 -35v165q0 9 19 21t19 21z
M243 307q-9 0 -22 -7.5t-16 -15.5l-68 1q4 -4 26 -34l77 1q1 2 3 5v50zM467 285q-25 14 -25 40q-33 -18 -33 -41v-213q-85 -18 -128 -71h-130q10 -6 14 -17q5 -14 6 -15h147q42 50 123 69l1 207q0 26 25 41zM156 59q-29 55 -24 97q-27 24 -27 27q0 -1 -3 -13t-3 -23
q0 -16 6 -32q15 -39 51 -56z" />
    <glyph glyph-name="colon" unicode=":" horiz-adv-x="288" 
d="M201 173l-1 -169h-156l34 -41h156v166zM32 4v180l169 1v-1l45 -52v-181h-173zM200 513v-162l-156 -2l34 -40h156v165zM32 349v180l169 1v-1l45 -52v-180l-171 -1z" />
    <glyph glyph-name="semicolon" unicode=";" horiz-adv-x="304" 
d="M246 293h-173l-41 56v180l169 1v-1l45 -52v-184zM250 11l-174 -139l-45 41v72q-1 -1 34 29q-15 15 -33 32l-1 167l177 1l42 -45v-158zM234 305v169l-33 44l-1 -169h-156l34 -44h156zM238 17v148l-33 32l-1 -153q-19 -14 -161 -124l34 -31zM106 47h-60l28 -26z" />
    <glyph glyph-name="less" unicode="&#x3c;" horiz-adv-x="285" 
d="M228 552l30 -31l-196 -193l192 -193l-30 -30l-223 222z" />
    <glyph glyph-name="equal" unicode="=" horiz-adv-x="487" 
d="M411 248l1 -66l-377 -1l34 -41h377v67zM23 181v81h389v-1l45 -51l-1 -83l-392 1zM411 398l1 -66l-377 -1l34 -41h377v67zM23 331v81h389v-1l45 -51l-1 -83l-392 1z" />
    <glyph glyph-name="greater" unicode="&#x3e;" horiz-adv-x="285" 
d="M32 105l-31 30l197 194l-192 192l30 31l222 -222z" />
    <glyph glyph-name="question" unicode="?" horiz-adv-x="480" 
d="M329 -48l-179 -1l-42 47v162h175l46 -34v-174zM309 -36l-34 34h-155l34 -34h155zM283 6l34 -36l1 149l-35 29v-142zM440 362q-69 -17 -115 -62q-51 -49 -58 -117h-6h-64l-34 46h-3q-10 141 -8 141q89 10 89 84v112q-7 2 -15 2q-47 0 -47 -31v-122l-113 -1l-36 47l-1 1
v135q70 8 101 76h170q7 -20 40 -44q27 -21 54 -32v-1q15 -14 46 -35v-199zM165 611q-29 0 -32 -34v0v-116h-91l33 -33l92 -1v110q0 20 17.5 31.5t41.5 11.5q7 0 15 -2q-7 36 -56 36q-11 0 -20 -3zM394 417l34 -35v171q-12 11 -34 29v-165zM252 193l-32 36h-42l27 -32v-2
q30 -2 47 -2zM224 243l34 -38q11 57 56.5 101.5t107.5 63.5l-34 35q-62 -17 -107.5 -61t-56.5 -101z" />
    <glyph glyph-name="at" unicode="@" horiz-adv-x="762" 
d="M699 379q0 -110 -56.5 -179.5t-138.5 -69.5q-92 0 -99 75q-54 -65 -129 -65q-42 0 -71 31q-32 34 -32 94q0 110 59 184q65 82 176 82q60 0 116 -30q-11 -36 -54 -232q-6 -26 -6 -43q0 -39 43 -39q47 0 82 56t35 136q0 102 -73 172q-76 71 -193 71q-122 0 -203 -93
q-77 -89 -77 -211q0 -112 77 -185.5t187 -73.5q65 0 124 19l16 -58q-61 -20 -140 -20q-143 0 -237 82q-102 88 -102 236q0 153 100.5 257t254.5 104q147 0 244 -82.5t97 -217.5zM438 469q-13 6 -36 6q-75 0 -118 -71q-36 -60 -36 -142q0 -60 46 -60q31 0 62 28q37 32 48 85z
" />
    <glyph glyph-name="A" unicode="A" horiz-adv-x="525" 
d="M270 663l83 -272q1 -9 13.5 -18t24.5 -16l-78 263zM293 -1l-35 116h-108l-48 -165l-53 1l-41 48v0v1v-1l89 294q1 7 1 14q0 18 -26 40q38 16 46 44l80 282h72l48 -44l85 -278q0 -2 1 -4l2 -1l-1 -1q4 -10 21 -22q11 -9 23 -18q-21 -18 -21 -47v-4v-2l83 -302h-174z
M198 320l-29 -105h60zM158 215l35 123l-14 48l-50 -171h29zM491 -41l-37 40h-147l38 -39zM457 11l37 -37l-76 277v7q0 30 16 47q-14 9 -36 32q-20 -17 -20 -34q0 -4 3 -12zM90 -40l-36 39l-33 1l34 -41zM141 119l-32 33l-43 -150l31 -32zM115 160l35 -35h105l-11 35h-129z
" />
    <glyph glyph-name="B" unicode="B" horiz-adv-x="545" 
d="M504 241l-1 -207q-56 -11 -130 -83h-291l-45 49v293q0 34 -35 57q26 12 35 50l-1 271h288q18 -27 55.5 -49t74.5 -27v1q14 -15 20 -21q15 -14 25 -15v-192q-35 -11 -69 -23q-39 -14 -63 -33q34 -19 39 -21q24 -11 52 -12q14 -15 46 -38zM292 425v152q-13 -1 -42 0v-204
q10 3 20 5q22 13 22 47zM290 271l-40 -1v-217v0l10 -1q11 0 21.5 13.5t10.5 39.5v156q0 2 -2 10zM240 581l-36 37l1 -246h35v209zM215 620l34 -34h38q-8 29 -43 34q5 0 -29 0zM482 373l-31 29q-73 -25 -118 -61q5 -8 25 -24q31 25 124 56zM453 415l36 -35v171q-17 3 -36 33
v-169zM240 271l-35 36l-1 -255h36v219zM211 315l34 -35h43q-9 37 -41 36q-35 -1 -36 -1zM459 84l34 -34l-1 186l-34 29zM358 -39l-35 39h-272l35 -39h272zM334 3l36 -40q69 66 117 78l-35 36q-55 -14 -118 -74z" />
    <glyph glyph-name="C" unicode="C" horiz-adv-x="553" 
d="M291 521v-1v1zM503 24q-3 -1 -11 -4q-52 -15 -105 -70l-169 -2q-49 73 -141 80l-35 47l-1 205q0 21 -15 40q-13 14 -26 27q14 7 25 27t11 36v184q84 4 133 79h152q8 -28 39 -28q34 0 46 28h47l48 -48l1 -250h-61l-45 45q-3 14 -10 39q-8 20 -33 38q-29 22 -61 23l-1 1
q0 51 -1 58q-3 1 -5 1q-34 0 -34 -29l-1 -185q0 -33 47 -60q-25 -12 -32 -17q-15 -12 -15 -32q-1 -37 -1 -114q3 -68 33 -93q9 -1 18 -1q63 0 88 66q2 6 3 30t1 69h64l1 -2l46 -44v-144zM492 621l-39 39v-227l39 -38v226zM487 385l-37 36h-43l38 -35zM287 590q-8 35 -42 35
q-17 0 -28.5 -11.5t-11.5 -29.5v-178q0 -35 40 -59q-6 14 -6 25l1 180q0 38 45 38h2zM494 164l-38 34v-129l38 -36v131zM276 307q-19 14 -30 39q-41 -19 -41 -58l1 -139q0 -61 53 -91q-18 29 -19 85v114q0 28 36 50zM485 27l-33 30q-53 -13 -97 -56l31 -32q43 42 99 58z
M376 -39l-35 39l-152 -1l34 -38h153zM148 21q-22 24 -86 49l22 -28q32 -4 64 -21z" />
    <glyph glyph-name="D" unicode="D" horiz-adv-x="557" 
d="M33 1v292q-5 22 -8 29q-6 15 -21 25q25 17 31 49q-2 0 -1 276h300q13 -29 48.5 -55t68.5 -28q5 -4 48 -43l-1 -192q4 -30 42 -47q-31 -21 -36 -36q-1 -7 -6 -21v-237q-61 -7 -110 -63h-305zM339 0l-289 -1l37 -40l288 1zM451 574v-180q3 -30 38 -47q0 3 -1 7v185z
M204 614v-217q-4 -26 32 -52q-30 -20 -30 -52v-242h35v202q0 32 27 52q-33 27 -29 53l1 223v-1zM290 586q-11 32 -47 36h-33l35 -35h38q4 -1 7 -1zM295 304q-5 34 -34 39q22 18 26 27q3 13 6 25v180l-10 2h-34v-220q-4 -23 36 -52q-34 -22 -34 -52v-200q44 12 44 62v189z
M481 21l-38 36q-53 -11 -94 -53l36 -42q46 47 96 59zM451 63l38 -36q-1 205 -1 224v2q2 7 6.5 21.5t27.5 30.5q-25 15 -32 40q-26 -18 -32 -33q-4 -10 -7 -21v-228z" />
    <glyph glyph-name="E" unicode="E" horiz-adv-x="467" 
d="M402 619l33 -34v39l-34 36zM237 573l-35 41l1 -238h34v197zM214 612l34 -35l182 -1l-35 35zM203 315l-1 -248h36l-1 214zM351 286l-36 35h-104l33 -33l-2 -2h109zM326 324l35 -34v47l-35 31v-44zM434 -39l-40 39h-338l45 -40zM446 -50h-354l-53 51l-1 287q0 35 -37 60
q25 11 33 53v271l368 1h-1l43 -42l1 -65l-198 1l1 -191l78 1v1l45 -36v-66h-123v-209h155v1l43 -43v-75zM403 6l34 -35v51l-34 33v-49z" />
    <glyph glyph-name="F" unicode="F" horiz-adv-x="473" 
d="M247 570q0 -4 1 -194h78l45 -42v-57h-123v-327h-158l-51 50l-1 288q0 35 -37 60q28 13 35 51v273l364 1l46 -45v-59q19 1 -199 1zM362 291v38l-36 36l-1 -38zM245 286l110 1l-35 35l-112 -1zM237 -35v315l-34 34l-1 -307zM50 0l44 -42h137l-35 41zM202 608l1 -232h35
l1 191zM394 615h-188l35 -35l188 -1zM436 586l1 37l-36 36l1 -38z" />
    <glyph glyph-name="G" unicode="G" horiz-adv-x="531" 
d="M485 -49l-52 -1q-2 44 -39 44t-41 -43h-151q-49 71 -134 78l-38 47v231q0 22 -31 48q33 28 33 45l-1 190q80 21 119 82h150q9 -34 48 -34q18 0 36 9.5t19 25.5h37l45 -43v-255q-17 1 -47 0l-43 44q-7 33 -36 62.5t-68 34.5q-11 2 -17 1q1 31 0 63q-32 5 -32 -20v-200
q0 -15 11 -26.5t22 -21.5q-24 -17 -30 -49q-3 -15 -3 -68v-130v-10q34 6 34 31v83q-1 55 -1 83q69 10 84 53q18 -44 77 -49l49 -48v-32q0 -237 0 -225zM475 625l-36 37v-239l36 -36v238zM468 383l-37 36l-25 1l36 -37h26zM273 591q0 34 -37 34q-39 0 -39 -35v-190
q0 -16 10 -26.5t21 -21.5q-33 -26 -33 -69q0 -7 1 -23t1 -25v-130q0 -49 35 -51v11v130q0 9 -1 24.5t-1 22.5q0 44 30 71q-28 26 -28 47v200q0 31 34 31q-1 -1 7 0zM475 -30v233q-14 13 -36 34v-225zM472 -39l-34 39l-22 -1q23 -10 27 -38h29zM393 7q1 0 0.5 2.5t-0.5 4.5
q-7 31 -42 31q-44 0 -41 -38l35 -42q12 42 48 42zM336 -40l-33 40h-131q15 -13 37 -40h127zM134 21q-28 32 -87 50l23 -29q32 -4 64 -21z" />
    <glyph glyph-name="H" unicode="H" horiz-adv-x="566" 
d="M553 304q-39 -19 -39 -55v-298h-10h-168l-42 49v271l-35 1v-322h-174l-41 50v0l-1 286q-10 41 -37 56q33 13 37 50v280h168l45 -42l1 -259h34l1 301l170 1l45 -40v-280q4 -25 46 -49zM497 347q0 3 -1 5v275l-34 31l-1 -266q3 -24 36 -45zM247 371l-1 254l-34 33v-288z
M217 318l39 -36h38v36h-77zM206 0h-149l33 -40h150zM214 10l35 -41v304l-35 35v-298zM461 0h-151l32 -40h152zM468 11l35 -42l-1 282q0 34 30 53q-26 18 -33 39q-32 -18 -32 -52z" />
    <glyph glyph-name="I" unicode="I" horiz-adv-x="296" 
d="M35 -1v290q-4 25 -8 33q-7 14 -27 22q37 19 37 51l1 278l160 -1v0l45 -45v-268q-5 -39 41 -56q-29 -11 -36 -37q-4 -13 -4 -68q-1 -76 1 -247h-163zM233 345q-1 5 0 10v265l-36 40l1 -265q-5 -34 35 -50zM191 0l-141 -1l36 -36h142zM260 303q-24 14 -27 41
q-29 -9 -32 -40v-33q-3 -2 0 -265l32 -34q1 136 1 226q0 63 1 73q4 23 25 32z" />
    <glyph glyph-name="J" unicode="J" horiz-adv-x="446" 
d="M97 0q13 -17 27 -39h154l-35 39h-146zM11 67q50 -25 82 -63q0 19 -23 41q-26 25 -59 22zM117 -50q-23 45 -52 71q-20 18 -66 45v1q18 49 14 89h83v-1l45 -42l7 -37q36 1 36 36v182q0 7 -1 13h-1l1 1q-4 21 -31 39q28 16 34 48v278h167v0l44 -40l1 -276q-3 -28 38 -46
q-20 -16 -25.5 -25t-5.5 -32v-215q-82 -17 -118 -89q-168 0 -74 0h-96zM417 309q-29 17 -29 49l-1 270l-34 34v-264q-3 -32 34 -48q-27 -21 -27 -56v-205l35 -35v200q0 36 22 55zM389 46l-35 35q-69 -16 -104 -74l35 -37q37 59 104 76zM136 74l-5 33l-35 34q1 -21 10 -42
q12 -28 30 -25z" />
    <glyph glyph-name="K" unicode="K" horiz-adv-x="557" 
d="M327 0l-59 185v-234h-176l-45 49v296q0 24 -4 32q-5 12 -23 22q29 21 29 52v270h172q45 -39 44 -47v-194l153 242h64l1 -1l36 -31l-126 -208q8 -31 25 -83q5 0 2 -3q15 -30 43 -32l11 -1q-22 -22 -22 -40q0 -10 7 -20l90 -303l-176 -1zM532 -30l-82 279q-8 12 -8 27
q0 16 11 30q-30 8 -40 32q-15 -25 2 -47l82 -280zM493 1h-156l42 -41l149 1zM353 454l24 -72q7 -21 32 -29l-27 81l126 204l-26 24q-42 -66 -129 -208zM222 660v-301l34 57l-1 208zM216 0h-154l36 -40l152 1zM263 199l-19 60l-21 -29l1 -223l34 -40v224z" />
    <glyph glyph-name="L" unicode="L" horiz-adv-x="453" 
d="M247 352q-20 -11 -26 -22t-6 -34v-219h35v179q0 39 27 56q-25 16 -30 40zM213 659v-258q0 -33 34 -48q-1 4 -1 8v263zM45 0v299q-7 32 -34 49q23 18 28 44v281h174l46 -46l-1 -269q0 -27 41 -45q-23 -13 -29.5 -23t-6.5 -36v-177h150q-6 5 44 -54l1 -72l-361 -1zM448 -32
v49l-35 42v-50zM406 0h-348l42 -38l342 -1z" />
    <glyph glyph-name="M" unicode="M" horiz-adv-x="672" 
d="M665 297q-21 -12 -28 -19q-10 -11 -16 -32v-296h-166l-43 51l-1 -1v279l-76 -329h-95l-41 51l-57 285v-335h-62l-45 50v-1l1 291q0 15 -10.5 32t-24.5 22q26 15 34 47v281h200q0 1 45 -37l48 -235l66 272l181 -1q42 -39 46 -43v-143q0 -44 1 -147q0 -28 43 -42zM130 -27
v373l-34 171v-506zM49 1l33 -39l47 1l-39 38h-41zM321 374l-51 259l-34 30l71 -347zM283 0h-71l32 -37h77zM411 514q-8 -35 -119 -505l35 -39l84 361v183zM609 339v287l-33 32q2 -175 0 -279q0 -29 33 -40zM568 0h-140l32 -37l141 -1zM638 295q-26 15 -28 40
q-26 -14 -35 -49v-276l34 -39v276q9 33 29 48z" />
    <glyph glyph-name="N" unicode="N" horiz-adv-x="521" 
d="M369 371l-114 248l-36 32l150 -322v42zM426 673l44 -55l1 -266q0 -20 4.5 -26.5t22.5 -15.5q-30 -21 -30 -54v-305h-92l-48 50l-187 412v-61q0 -12 1 -16.5t8 -15.5q8 -4 18 -12l-9 -10q-23 -25 -22 -62q1 -96 1 -285h-68l-43 50h1v288q0 33 -26 54q29 21 29 52l1 278
h178q4 -4 57 -47l102 -226v273h57zM120 -39l-34 40h-41l31 -40h44zM92 11l34 -38q-1 248 -1 281q1 30 29 53q-25 10 -25 45v89l-35 74l1 -123q0 -34 26 -49q-32 -23 -29 -54q-2 0 0 -278zM448 -37l-34 38h-67l35 -38h66zM422 9l34 -38v285q0 31 20 52q-17 12 -17 45l-1 260
l-34 46l1 -267q0 -32 21 -43q-24 -17 -24 -53v-287z" />
    <glyph glyph-name="O" unicode="O" horiz-adv-x="571" 
d="M555 309q-40 -28 -40 -66q0 8 0 -55v-103v-56l-46 -12q-50 -20 -83 -68h-185q-50 73 -124 79l-33 44q-1 1 -1 2l1 215q0 8 -3 15l-4 4l3 1q-9 22 -32 38q20 11 24 18q4 14 9 27l1 196q40 3 78 25q42 25 55 61h168q8 -28 52.5 -58t74.5 -31q12 -14 46 -51l1 -180l10 -26
q3 -5 28 -19zM338 0h-160q6 -6 29 -39h165zM459 72q-66 -8 -110 -66l34 -40q52 66 112 73zM533 307q-15 9 -19.5 20.5t-8.5 24.5l-1 175q-17 17 -36 39v-168q5 -15 11 -29q5 -10 25 -21q-30 -20 -34 -56q0 -7 -1 -96q-1 -94 0 -117l34 -33q0 14 -1 205q-1 29 31 56zM296 585
q-35 4 -35 -24v-210q0 -26 29 -46q-29 -9 -29 -43l1 -220q30 6 30 33l1 224q0 31 -24 44q27 14 27 49v193zM296 600q0 25 -41 25q-40 0 -40 -26l-1 -208q0 -32 29 -48q-28 -10 -29 -46v-223q0 -29 34 -30v216q0 33 21 46q-21 14 -21 46l1 209q0 25 21 31q4 1 26 1v7zM148 21
q-22 24 -86 49l22 -28q32 -4 64 -21z" />
    <glyph glyph-name="P" unicode="P" horiz-adv-x="545" 
d="M511 352q-52 -7 -77 -24q-28 -19 -46 -66l-138 -1v-311h-166q-18 18 -44 50l-1 300q5 24 -24 52q26 14 26 55l1 266h309q22 -35 59 -60q31 -20 52 -23q6 -4 49 -41v-197zM193 0l-135 -1l34 -38l138 1zM204 301v-295l34 -35v296zM334 308h-121l34 -34h121zM457 396
q-83 -13 -111 -83l35 -36q29 70 110 84zM499 370v173l-34 32v-171zM285 573h-35v-199h7q28 8 28 46v153zM244 585h41q-5 30 -44 30h-27zM238 374v201v0l-32 31v-232q-2 0 3 0h29z" />
    <glyph glyph-name="Q" unicode="Q" horiz-adv-x="562" 
d="M523 307q-15 9 -19.5 20.5t-8.5 24.5l-1 175q-17 17 -36 39v-168q5 -15 11 -29q5 -10 25 -21q-30 -20 -34 -56q0 -7 -1 -96q-1 -94 0 -117l34 -33q0 76 -1 205q0 30 31 56zM251 86v-42q21 0 29 31q-6 9 -29 11zM240 138l-2 122q0 33 21 46q-21 14 -21 46l1 209
q0 25 21 31q4 1 26 1v7q0 25 -41 25q-40 0 -40 -26l-1 -208q0 -32 29 -48q-28 -10 -29 -46v-223q0 -29 34 -30v43h-17v51h19zM285 134l-2 165q-1 31 -24 44q27 14 27 49v193q-35 4 -35 -24v-210q0 -26 29 -46q-29 -9 -29 -43v-124q5 1 34 -4zM421 12q32 23 64 27l-36 33
q-33 -4 -64 -24zM337 0h-169q6 -6 29 -39h166zM138 21q-22 24 -86 49l22 -28q32 -4 64 -21zM375 -61q13 -26 20 -36q27 -33 72 -33q31 0 53 18.5t22 52.5q0 14 -4 30q-6 3 -26 16q5 -15 5 -31q0 -28 -16 -43q-22 -21 -53 -21q-12 0 -21 4q-43 17 -52 43zM365 -49l4 -1l-1 1
h-3zM546 -23v-2q6 -21 6 -39q0 -39 -23.5 -59t-57.5 -20q-55 0 -84 39q-20 27 -26 55h-170q-28 40 -51.5 56t-69.5 22l-36 43q-1 1 -1 2l1 215q0 8 -3 15l-4 4l3 1q-9 22 -32 38q20 11 24 18q4 14 9 27l1 196q40 3 78 25q42 25 55 61h168q8 -28 52.5 -58t74.5 -31
q12 -14 46 -51l1 -180l10 -26q3 -5 28 -19q-40 -28 -40 -66q0 8 0 -55v-103v-56q-17 -1 -72 -25q24 -16 47 -16q12 0 23 5l7 6z" />
    <glyph glyph-name="R" unicode="R" horiz-adv-x="570" 
d="M588 -56h-140q-34 58 -109 56q-22 30 -44 59v186v8q-16 5 -32 2l-1 -292l6 -6l-6 -6v-7h-171q-18 20 -48 57v274q0 17 -14 37t-32 29q44 19 44 69l-1 261l332 1q9 -26 36.5 -51.5t56.5 -31.5q-1 0 1 0l47 -50l-1 -167q-73 -15 -92 -62v0q12 -6 51 -29v1q17 -22 47 -50
v-177q0 -54 70 -111zM458 411q-53 -12 -73 -60q3 -22 24 -35q21 48 82 64zM500 388q0 -2 0 146l-34 38v-152zM295 422l1 139l-33 -1v-186q32 11 32 48zM218 601l-1 -226l22 -1h12v194zM293 571q-10 34 -47 34h-16l33 -35q10 1 30 1zM514 15q-8 20 -8 40l1 172q-10 4 -36 41
v-161q0 -49 43 -92zM387 4q-4 22 -20 37q-23 21 -59 17l35 -47q22 0 44 -7zM555 -45q-23 22 -35 45l-119 1q36 -14 57 -46h97zM209 -1l-149 1q8 -13 38 -45h153v2zM252 260l-37 37v-287l36 -36zM220 308l40 -39q6 0 18 -1.5t17 -1.5q-10 43 -60 43q-8 0 -15 -1z" />
    <glyph glyph-name="S" unicode="S" horiz-adv-x="506" 
d="M352 418q-4 6 0 3q-6 33 -14 44q-18 24 -71 39v57q-32 -1 -32 -32v-64v-91q25 -7 63 -7h36q11 -51 86 -83q7 -3 58 -51q-1 -205 0 -205q-83 -18 -121 -77l-165 -1q-4 38 -43 38t-39 -37l-58 -1l-41 48l-2 1v268h49q13 -30 47 -54t69 -33h-1q16 -9 56 -43l-1 -64
q24 7 24 28v142q0 14 -5 28q-51 25 -103 18q-4 9 -20.5 28.5t-25.5 24.5q-16 5 -50 12q-33 46 -37 49q1 1 -1 3l-1 185q39 6 62 20q30 19 57 61h159q13 -31 39 -31q31 0 42 31h44l55 -43v-264h-63q-18 21 -52 56v-3zM216 70v61q-15 14 -43 34v-64q0 -15 13 -23t30 -8z
M118 340q22 -17 33 -38q61 -5 86 -14q-41 56 -119 52zM21 410l36 -49q12 0 32 -4q-1 1 -68 53zM220 376q-6 27 0 154q2 40 43 42q-6 34 -42 34q-18 0 -31 -11t-13 -30v-131q0 -40 43 -58zM445 376l-40 40h-32q10 -12 38 -40h34zM411 427l43 -42v237l-43 37v-232zM423 83
l44 -41v187l-45 40q2 -154 1 -186zM345 -38l-37 37l-146 1q-1 -1 -1 -3q14 -5 22 -10q15 -11 18 -26zM317 7l37 -36q28 42 102 65l-42 39q-39 -8 -57 -20q-21 -14 -40 -48zM91 -38l-38 38q-11 3 -28 0l35 -38h31zM61 9l39 -39q12 28 51 30q-3 25 -51 25q-30 0 -39 -16z
M352 418q-4 6 0 3v-3z" />
    <glyph glyph-name="T" unicode="T" horiz-adv-x="544" 
d="M525 547h-149v-194q-3 -35 52 -56q-28 -19 -33 -24q-16 -16 -13 -37l-1 -286h-178l-52 50v280q0 28 -15 40t-30 23q36 13 45 63v142l-100 1l-51 56v66h469l57 -50zM369 -28l1 263q-5 34 33 59q-36 19 -39 51q-42 -29 -38 -60l-1 -275zM163 0l44 -38h155l-44 38h-155z
M320 595v-192q-3 -39 44 -57q-1 4 -0.5 6t0.5 199zM460 603h-132l44 -44l138 -1zM513 570l-1 48l-44 39l1 -46zM16 605l44 -44l91 -1v44z" />
    <glyph glyph-name="U" unicode="U" horiz-adv-x="558" 
d="M538 300q-35 -28 -35 -54q0 -7 3 -12v-104q-1 -107 -1 -105q-71 -12 -92 -82h-205q-27 46 -46 57.5t-76 21.5l-36 53q6 0 -2 2v189q0 64 -42 80q32 12 40 50v275h181v1l50 -45l-1 -274q0 -34 45 -62q-47 -18 -41 -56v-154q0 -3 1 -6q16 -4 34 -4q35 0 60.5 17t25.5 49
l-1 149q-5 45 -35 63q24 13 33 56v267h51l51 -45v-275q8 -24 25 -38q14 -11 13 -14zM64 75l30 -44q24 -4 63 -15q-32 50 -93 59zM268 80v1v153q-6 39 28 59q-32 26 -32 60l1 267l-38 34l-1 -251q0 -37 37 -61q-40 -15 -33 -58v-153q0 -34 38 -51zM369 -1h-186q13 -12 32 -44
h191l1 1zM447 75q-51 -12 -71 -66l36 -41q25 53 77 66zM520 300q-33 30 -33 56l1 264l-38 36v-253q0 -26 36 -57q-32 -6 -32 -56v-204l39 -39q0 -8 1 193q-4 42 26 60z" />
    <glyph glyph-name="V" unicode="V" horiz-adv-x="473" 
d="M463 637l-75 -275q-2 -7 -2 -14q0 -19 11 -29l13 -11q-27 -14 -29 -16q-14 -11 -20 -34l-75 -307h-62l-53 49l-76 301q-13 38 -50 49q28 21 28 46q0 9 -3 20l-69 257h174l53 -38l60 -228l65 266h62zM177 659l88 -344l18 70l-66 243zM232 1l-46 -1l40 -36l43 -1zM449 633
l-37 29l-70 -256q-2 -7 -2 -14q0 -16 7 -29.5t15 -13.5q-38 -15 -46 -47l-73 -295l35 -36l72 290q7 30 38 47q-21 23 -12 57z" />
    <glyph glyph-name="W" unicode="W" horiz-adv-x="797" 
d="M765 619q-8 -47 -39 -252q-4 -27 26 -67q-29 -16 -36 -21q-18 -14 -22 -34l-72 -295h-77l-36 51v0l-109 346l-97 -384l1 -2l-2 -1l-3 -10h-89l-40 51h1l-74 288q-10 40 -52 63q25 27 25 51q0 10 -3 24q-64 246 -60 246l178 -1l45 -45l71 -275l69 321h102l-1 -1l50 -48
l84 -280l60 329h63l-1 -1zM295 326l-76 298l-31 32q27 -99 97 -378zM256 1h-73l32 -39h73zM374 430q-12 -42 -108 -423l27 -32l99 395zM600 323q-14 47 -91 297l-34 34l118 -383q2 21 7 52zM578 1h-57l32 -39h51zM726 660l-36 -247q-5 -30 23 -66q-26 -15 -35 -22
q-15 -14 -20 -33l-70 -286l26 -37l68 279q7 31 52 56q-25 36 -20 65q11 76 39 248z" />
    <glyph glyph-name="X" unicode="X" horiz-adv-x="516" 
d="M95 350q19 20 19 45q0 9 -3 18q-1 -5 -101 260l182 -1l52 -30l39 -106l72 136h70v1l2 -1h-2l32 -38l-118 -223q-10 -25 -1 -51q9 -5 16 -10q1 1 1 0q10 -13 44 -43q-11 -14 -11 -30q0 -13 12 -42q9 -24 117 -285h-203l-43 50l-58 151l-98 -201h-74l-38 51l144 293
q-15 43 -52 56zM276 522l-39 109l-38 23l61 -160zM326 366q-10 11 -2 50l118 217l-23 28q-125 -242 -128 -242t9 -26q8 -17 26 -27zM491 -37l-42 38h-166l36 -38h172zM456 11l37 -34l-104 253q-14 32 -14 49q0 14 7 25q-20 14 -33 35q-15 -26 -1 -62zM98 -38l-32 38l-48 1
l29 -38zM76 7l32 -39q69 134 99 198l-23 58z" />
    <glyph glyph-name="Y" unicode="Y" horiz-adv-x="525" 
d="M521 633l-117 -283q-3 -7 -3 -13q0 -13 25 -41q-56 -27 -52 -71v-137v-138h-177l-36 50v267q0 30 -20 54q-18 21 -36 23q6 0 13.5 11.5t7.5 26.5q0 9 -4 17l-115 273h180l60 -37l73 -185l91 222h65v0zM313 434l-75 190l-46 32l106 -264zM324 1h-150l30 -38l151 1z
M507 627l-36 33l-109 -264q-4 -9 -4 -17q0 -14 21 -38q-19 -9 -34.5 -31t-13.5 -43v-256l31 -37v250q-2 21 12 42.5t33 33.5q-18 21 -18 36q0 9 4 19z" />
    <glyph glyph-name="Z" unicode="Z" horiz-adv-x="528" 
d="M493 626l-116 -277q-3 -8 -3 -16q0 -18 28 -38q-58 -19 -66 -67q0 -2 -45 -107l-24 -57h187l-1 -1l43 -43v-69l-451 -1l-45 51h4l107 270q4 57 -17 73q29 8 38 14q18 11 29 34l74 161l-157 1l-38 48v1v69h417v0zM52 602l33 -37h155l18 38zM254 64l71 166q8 49 52 69
q-15 15 -15 35q0 10 4 20l112 268l-26 38l-110 -264q-4 -10 -4 -18q0 -22 21 -37q-50 -17 -59 -68q0 -3 -88 -209h42zM444 1h-429l34 -38h429zM484 -26v40l-31 33l1 -39z" />
    <glyph glyph-name="bracketleft" unicode="[" horiz-adv-x="215" 
d="M189 -84h-6h-64.5h-64.5h-15l-41 47h1v738h144l2 -1l44 -39v-61h-63v-582h17v1l47 -39zM114 18v594h63v43l-32 33v-42h-65v-628h34zM177 -72l2 46l-36 33v-45q-49 0 -133 1l35 -34h66q47 -1 66 -1z" />
    <glyph glyph-name="backslash" unicode="\" horiz-adv-x="607" 
d="M330 184l-149 -103l-41 35l-2 -1l61 169l-145 101l179 -1l56 170q5 -2 53 -34l36 -138l137 -1l35 -40l-124 -87l60 -175q-47 35 -58 35q-4 0 -3 -4zM152 125l29 -29l139 96l-36 28zM366 382l-32 123l-38 33l43 -156h27zM420 133l43 -23l-52 150l119 84l-23 26l-137 -92z
" />
    <glyph glyph-name="bracketright" unicode="]" horiz-adv-x="244" 
d="M189 -84l-150 1l-38 45h-2v55h64v582h-28q-15 20 -36 46v55h144l46 -46v-738zM12 646l25 -34l26 -1v34zM177 -72v722l-34 32v-720h-130l32 -34h132z" />
    <glyph glyph-name="asciicircum" unicode="^" horiz-adv-x="511" 
d="M233 755l-129 -56l-11 28l142 106l139 -106l-11 -28z" />
    <glyph glyph-name="underscore" unicode="_" horiz-adv-x="432" 
d="M-1 -96h433v-37h-433v37z" />
    <glyph glyph-name="grave" unicode="`" horiz-adv-x="554" 
d="M403 727l-199 106l-34 -68l222 -66z" />
    <glyph glyph-name="a" unicode="a" horiz-adv-x="525" 
d="M277 663l83 -272q1 -9 13.5 -18t24.5 -16l-78 263zM300 -1l-35 116h-108l-47 -165l-54 1l-40 48h-1v1l1 -1l88 294q1 7 1 14q0 18 -26 40q38 16 46 44l80 282h72l48 -44l85 -278q0 -2 1 -4l2 -1l-1 -1q5 -10 21 -22q12 -9 23 -18q-21 -18 -21 -47v-4v-2l83 -302h-174z
M205 320l-29 -105h60zM165 215l35 123l-14 48l-50 -171h29zM498 -41l-37 40h-147l38 -39zM464 11l37 -37l-76 277v7q0 30 16 47q-14 9 -36 32q-20 -17 -20 -34q0 -4 3 -12zM97 -40l-36 39l-33 1l34 -41zM148 119l-32 33l-43 -150l31 -32zM122 160l35 -35h105l-11 35h-129z
" />
    <glyph glyph-name="b" unicode="b" horiz-adv-x="545" 
d="M504 241l-1 -207q-56 -11 -130 -83h-291l-45 49v293q0 34 -35 57q26 12 35 50l-1 271h288q18 -27 55.5 -49t74.5 -27v1q14 -15 20 -21q15 -14 25 -15v-192q-35 -11 -69 -23q-39 -14 -63 -33q34 -19 39 -21q24 -11 52 -12q14 -15 46 -38zM292 425v152q-13 -1 -42 0v-204
q10 3 20 5q22 13 22 47zM290 271l-40 -1v-217v0l10 -1q11 0 21.5 13.5t10.5 39.5v156q0 2 -2 10zM240 581l-36 37l1 -246h35v209zM215 620l34 -34h38q-8 29 -43 34q5 0 -29 0zM482 373l-31 29q-73 -25 -118 -61q5 -8 25 -24q31 25 124 56zM453 415l36 -35v171q-17 3 -36 33
v-169zM240 271l-35 36l-1 -255h36v219zM211 315l34 -35h43q-9 37 -41 36q-35 -1 -36 -1zM459 84l34 -34l-1 186l-34 29zM358 -39l-35 39h-272l35 -39h272zM334 3l36 -40q69 66 117 78l-35 36q-55 -14 -118 -74z" />
    <glyph glyph-name="c" unicode="c" horiz-adv-x="553" 
d="M291 521v-1v1zM503 24q-3 -1 -11 -4q-52 -15 -105 -70l-169 -2q-49 73 -141 80l-35 47l-1 205q0 21 -15 40q-13 14 -26 27q14 7 25 27t11 36v184q84 4 133 79h152q8 -28 39 -28q34 0 46 28h47l48 -48l1 -250h-61l-45 45q-3 14 -10 39q-8 20 -33 38q-29 22 -61 23l-1 1
q0 51 -1 58q-3 1 -5 1q-34 0 -34 -29l-1 -185q0 -33 47 -60q-25 -12 -32 -17q-15 -12 -15 -32q-1 -37 -1 -114q3 -68 33 -93q9 -1 18 -1q63 0 88 66q2 6 3 30t1 69h64l1 -2l46 -44v-144zM492 621l-39 39v-227l39 -38v226zM487 385l-37 36h-43l38 -35zM287 590q-8 35 -42 35
q-17 0 -28.5 -11.5t-11.5 -29.5v-178q0 -35 40 -59q-6 14 -6 25l1 180q0 38 45 38h2zM494 164l-37 34l-1 -129l38 -36v131zM276 307q-19 14 -30 39q-41 -19 -41 -58l1 -139q0 -61 53 -91q-18 29 -19 85v114q0 28 36 50zM485 27l-33 30q-53 -13 -97 -56l31 -32q43 42 99 58z
M376 -39l-35 39l-152 -1l34 -38h153zM148 21q-22 24 -86 49l22 -28q32 -4 64 -21z" />
    <glyph glyph-name="d" unicode="d" horiz-adv-x="557" 
d="M33 1v292q-5 22 -8 29q-6 15 -21 25q25 17 31 49q-2 0 -1 276h300q13 -29 48.5 -55t68.5 -28q5 -4 48 -43l-1 -192q4 -30 42 -47q-31 -21 -36 -36q-1 -7 -6 -21v-237q-61 -7 -110 -63h-305zM339 0l-289 -1l37 -40l288 1zM451 574v-180q3 -30 38 -47q0 3 -1 7v185z
M204 614v-217q-4 -26 32 -52q-30 -20 -30 -52v-242h35v202q0 32 27 52q-33 27 -29 53l1 223v-1zM290 586q-11 32 -47 36h-33l35 -35h38q4 -1 7 -1zM295 304q-5 34 -34 39q22 18 26 27q3 13 6 25v180l-10 2h-34v-220q-4 -23 36 -52q-34 -22 -34 -52v-200q44 12 44 62v189z
M481 21l-38 36q-53 -11 -94 -53l36 -42q46 47 96 59zM451 63l38 -36q-1 205 -1 224v2q2 7 6.5 21.5t27.5 30.5q-25 15 -32 40q-26 -18 -32 -33q-4 -10 -7 -21v-228z" />
    <glyph glyph-name="e" unicode="e" horiz-adv-x="467" 
d="M402 619l33 -34v39l-34 36zM237 573l-35 41l1 -238h34v197zM214 612l34 -35l182 -1l-35 35zM203 315l-1 -248h36l-1 214zM351 286l-36 35h-104l33 -33l-2 -2h109zM326 324l35 -34v47l-35 31v-44zM434 -39l-40 39h-338l45 -40zM446 -50h-354l-53 51l-1 287q0 35 -37 60
q25 11 33 53v271l368 1h-1l43 -42l1 -65l-198 1l1 -191l78 1v1l45 -36v-66h-123v-209h155v1l43 -43v-75zM403 6l34 -35v51l-34 33v-49z" />
    <glyph glyph-name="f" unicode="f" horiz-adv-x="473" 
d="M247 570q0 -4 1 -194h78l45 -42v-57h-123v-327h-158l-51 50l-1 288q0 35 -37 60q28 13 35 51v273l364 1l46 -45v-59q19 1 -199 1zM362 291v38l-36 36l-1 -38zM245 286l110 1l-35 35l-112 -1zM237 -35v315l-34 34l-1 -307zM50 0l44 -42h137l-35 41zM202 608l1 -232h35
l1 191zM394 615h-188l35 -35l188 -1zM436 586l1 37l-36 36l1 -38z" />
    <glyph glyph-name="g" unicode="g" horiz-adv-x="531" 
d="M485 -49l-52 -1q-2 44 -39 44t-41 -43h-151q-49 71 -134 78l-38 47v231q0 22 -31 48q33 28 33 45l-1 190q80 21 119 82h150q9 -34 48 -34q18 0 36 9.5t19 25.5h37l45 -43v-255q-17 1 -47 0l-43 44q-7 33 -36 62.5t-68 34.5q-11 2 -17 1q1 31 0 63q-32 5 -32 -20v-200
q0 -15 11 -26.5t22 -21.5q-24 -17 -30 -49q-3 -15 -3 -68v-130v-10q34 6 34 31v83q-1 55 -1 83q69 10 84 53q18 -44 77 -49l49 -48v-32q0 -237 0 -225zM475 625l-36 37v-239l36 -36v238zM468 383l-37 36l-25 1l36 -37h26zM273 591q0 34 -37 34q-39 0 -39 -35v-190
q0 -16 10 -26.5t21 -21.5q-33 -26 -33 -69q0 -7 1 -23t1 -25v-130q0 -49 35 -51v11v130q0 9 -1 24.5t-1 22.5q0 44 30 71q-28 26 -28 47v200q0 31 34 31q-1 -1 7 0zM475 -30v233q-14 13 -36 34v-225zM472 -39l-34 39l-22 -1q23 -10 27 -38h29zM393 7q1 0 0.5 2.5t-0.5 4.5
q-7 31 -42 31q-44 0 -41 -38l35 -42q12 42 48 42zM336 -40l-33 40h-131q15 -13 37 -40h127zM134 21q-28 32 -87 50l23 -29q32 -4 64 -21z" />
    <glyph glyph-name="h" unicode="h" horiz-adv-x="566" 
d="M553 304q-39 -19 -39 -55v-298h-10h-168l-42 49v271l-35 1v-322h-174l-41 50v0l-1 286q-10 41 -37 56q33 13 37 50v280h168l45 -42l1 -259h34l1 301l170 1l45 -40v-280q4 -25 46 -49zM497 347q0 3 -1 5v275l-34 31l-1 -266q3 -24 36 -45zM247 371l-1 254l-34 33v-288z
M217 318l39 -36h38v36h-77zM206 0h-149l33 -40h150zM214 10l35 -41v304l-35 35v-298zM461 0h-151l32 -40h152zM468 11l35 -42l-1 282q0 34 30 53q-26 18 -33 39q-32 -18 -32 -52z" />
    <glyph glyph-name="i" unicode="i" horiz-adv-x="296" 
d="M35 -1v290q-4 25 -8 33q-7 14 -27 22q37 19 37 51l1 278l160 -1v0l45 -45v-268q-5 -39 41 -56q-29 -11 -36 -37q-4 -13 -4 -68q-1 -76 1 -247h-163zM233 345q-1 5 0 10v265l-36 40l1 -265q-5 -34 35 -50zM191 0l-141 -1l36 -36h142zM260 303q-24 14 -27 41
q-29 -9 -32 -40v-33q-3 -2 0 -265l32 -34q1 136 1 226q0 63 1 73q4 23 25 32z" />
    <glyph glyph-name="j" unicode="j" horiz-adv-x="446" 
d="M97 0q13 -17 27 -39h154l-35 39h-146zM11 67q50 -25 82 -63q0 19 -23 41q-26 25 -59 22zM117 -50q-23 45 -52 71q-20 18 -66 45v1q18 49 14 89h83v-1l45 -42l7 -37q36 1 36 36v182q0 7 -1 13h-1l1 1q-4 21 -31 39q28 16 34 48v278h167v0l44 -40l1 -276q-3 -28 38 -46
q-20 -16 -25.5 -25t-5.5 -32v-215q-82 -17 -118 -89q-168 0 -74 0h-96zM417 309q-29 17 -29 49l-1 270l-34 34v-264q-3 -32 34 -48q-27 -21 -27 -56v-205l35 -35v200q0 36 22 55zM389 46l-35 35q-69 -16 -104 -74l35 -37q37 59 104 76zM136 74l-5 33l-35 34q1 -21 10 -42
q12 -28 30 -25z" />
    <glyph glyph-name="k" unicode="k" horiz-adv-x="557" 
d="M327 0l-59 185v-234h-176l-45 49v296q0 24 -4 32q-5 12 -23 22q29 21 29 52v270h172q45 -39 44 -47v-194l153 242h64l1 -1l36 -31l-126 -208q8 -31 25 -83q5 0 2 -3q15 -30 43 -32l11 -1q-22 -22 -22 -40q0 -10 7 -20l90 -303l-176 -1zM532 -30l-82 279q-8 12 -8 27
q0 16 11 30q-30 8 -40 32q-15 -25 2 -47l82 -280zM493 1h-156l42 -41l149 1zM353 454l24 -72q7 -21 32 -29l-27 81l126 204l-26 24q-42 -66 -129 -208zM222 660v-301l34 57l-1 208zM216 0h-154l36 -40l152 1zM263 199l-19 60l-21 -29l1 -223l34 -40v224z" />
    <glyph glyph-name="l" unicode="l" horiz-adv-x="453" 
d="M240 352q-20 -11 -26 -22t-6 -34v-219h35v179q0 39 27 56q-25 16 -30 40zM206 659v-258q0 -33 34 -48q-1 4 -1 8v263zM38 0v299q-7 32 -35 49q24 18 29 44v281h174l46 -46l-1 -269q0 -27 41 -45q-24 -13 -30 -23t-6 -36v-177h150q-6 5 44 -54l1 -72l-361 -1zM441 -32v49
l-35 42v-50zM399 0h-348l42 -38l342 -1z" />
    <glyph glyph-name="m" unicode="m" horiz-adv-x="672" 
d="M665 297q-21 -12 -28 -19q-10 -11 -16 -32v-296h-166l-43 51l-1 -1v279l-76 -329h-95l-41 51l-57 285v-335h-62l-45 50v-1l1 291q0 15 -10.5 32t-24.5 22q26 15 34 47v281h200q0 1 45 -37l48 -235l66 272l181 -1q42 -39 46 -43v-143q0 -44 1 -147q0 -28 43 -42zM130 -27
v373l-34 171v-506zM49 1l33 -39l47 1l-39 38h-41zM321 374l-51 259l-34 30l71 -347zM283 0h-71l32 -37h77zM411 514q-8 -35 -119 -505l35 -39l84 361v183zM609 339v287l-33 32q2 -175 0 -279q0 -29 33 -40zM568 0h-140l32 -37l141 -1zM638 295q-26 15 -28 40
q-26 -14 -35 -49v-276l34 -39v276q9 33 29 48z" />
    <glyph glyph-name="n" unicode="n" horiz-adv-x="521" 
d="M369 371l-114 248l-36 32l150 -322v42zM426 673l44 -55l1 -266q0 -20 4.5 -26.5t22.5 -15.5q-30 -21 -30 -54v-305h-92l-48 50l-187 412v-61q0 -12 1 -16.5t8 -15.5q8 -4 18 -12l-9 -10q-23 -25 -22 -62q1 -96 1 -285h-68l-43 50h1v288q0 33 -26 54q29 21 29 52l1 278
h178q4 -4 57 -47l102 -226v273h57zM120 -39l-34 40h-41l31 -40h44zM92 11l34 -38q-1 248 -1 281q1 30 29 53q-25 10 -25 45v89l-35 74l1 -123q0 -34 26 -49q-32 -23 -29 -54q-2 0 0 -278zM448 -37l-34 38h-67l35 -38h66zM422 9l34 -38v285q0 31 20 52q-17 12 -17 45l-1 260
l-34 46l1 -267q0 -32 21 -43q-24 -17 -24 -53v-287z" />
    <glyph glyph-name="o" unicode="o" horiz-adv-x="571" 
d="M555 309q-40 -28 -40 -66q0 8 0 -55v-103v-56l-46 -12q-50 -20 -83 -68h-185q-50 73 -124 79l-33 44q-1 1 -1 2l1 215q0 8 -3 15l-4 4l3 1q-9 22 -32 38q20 11 24 18q4 14 9 27l1 196q40 3 78 25q42 25 55 61h168q8 -28 52.5 -58t74.5 -31q12 -14 46 -51l1 -180l10 -26
q3 -5 28 -19zM338 0h-160q6 -6 29 -39h165zM459 72q-66 -8 -110 -66l34 -40q52 66 112 73zM533 307q-15 9 -19.5 20.5t-8.5 24.5l-1 175q-17 17 -36 39v-168q5 -15 11 -29q5 -10 25 -21q-30 -20 -34 -56q0 -7 -1 -96q-1 -94 0 -117l34 -33q0 14 -1 205q-1 29 31 56zM296 585
q-35 4 -35 -24v-210q0 -26 29 -46q-29 -9 -29 -43l1 -220q30 6 30 33l1 224q0 31 -24 44q27 14 27 49v193zM296 600q0 25 -41 25q-40 0 -40 -26l-1 -208q0 -32 29 -48q-28 -10 -29 -46v-223q0 -29 34 -30v216q0 33 21 46q-21 14 -21 46l1 209q0 25 21 31q4 1 26 1v7zM148 21
q-22 24 -86 49l22 -28q32 -4 64 -21z" />
    <glyph glyph-name="p" unicode="p" horiz-adv-x="545" 
d="M504 352q-52 -7 -77 -24q-28 -19 -46 -66l-139 -1l1 -311h-166q-18 18 -44 50l-1 300q5 24 -24 52q26 14 26 55l1 266h309q22 -35 59 -60q31 -20 52 -23q6 -4 49 -41v-197zM186 0l-135 -1l34 -38l138 1zM196 301l1 -295l34 -35v296zM327 308h-121l34 -34h121zM449 396
q-82 -13 -110 -83l35 -36q29 70 110 84zM492 370v173l-34 32v-171zM278 573h-35v-199h7q28 8 28 46v153zM237 585h41q-5 30 -44 30h-27zM231 374v201v0l-32 31v-232q-2 0 3 0h29z" />
    <glyph glyph-name="q" unicode="q" horiz-adv-x="562" 
d="M523 307q-15 9 -19.5 20.5t-8.5 24.5l-1 175q-17 17 -36 39v-168q5 -15 11 -29q5 -10 25 -21q-30 -20 -34 -56q0 -7 -1 -96q-1 -94 0 -117l34 -33q0 76 -1 205q0 30 31 56zM251 86v-42q21 0 29 31q-6 9 -29 11zM240 138l-2 122q0 33 21 46q-21 14 -21 46l1 209
q0 25 21 31q4 1 26 1v7q0 25 -41 25q-40 0 -40 -26l-1 -208q0 -32 29 -48q-28 -10 -29 -46v-223q0 -29 34 -30v43h-17v51h19zM285 134l-2 165q-1 31 -24 44q27 14 27 49v193q-35 4 -35 -24v-210q0 -26 29 -46q-29 -9 -29 -43v-124q5 1 34 -4zM421 12q32 23 64 27l-36 33
q-33 -4 -64 -24zM337 0h-169q6 -6 29 -39h166zM138 21q-22 24 -86 49l22 -28q32 -4 64 -21zM375 -61q13 -26 20 -36q27 -33 72 -33q31 0 53 18.5t22 52.5q0 14 -4 30q-6 3 -26 16q5 -15 5 -31q0 -28 -16 -43q-22 -21 -53 -21q-12 0 -21 4q-43 17 -52 43zM365 -49l4 -1l-1 1
h-3zM546 -23v-2q6 -21 6 -39q0 -39 -23.5 -59t-57.5 -20q-55 0 -84 39q-20 27 -26 55h-170q-28 40 -51.5 56t-69.5 22l-36 43q-1 1 -1 2l1 215q0 8 -3 15l-4 4l3 1q-9 22 -32 38q20 11 24 18q4 14 9 27l1 196q40 3 78 25q42 25 55 61h168q8 -28 52.5 -58t74.5 -31
q12 -14 46 -51l1 -180l10 -26q3 -5 28 -19q-40 -28 -40 -66q0 8 0 -55v-103v-56q-17 -1 -72 -25q24 -16 47 -16q12 0 23 5l7 6z" />
    <glyph glyph-name="r" unicode="r" horiz-adv-x="570" 
d="M588 -56h-140q-34 58 -109 56q-22 30 -44 59v186v8q-16 5 -32 2l-1 -292l6 -6l-6 -6v-7h-171q-18 20 -48 57v274q0 17 -14 37t-32 29q44 19 44 69l-1 261l332 1q9 -26 36.5 -51.5t56.5 -31.5q-1 0 1 0l47 -50l-1 -167q-73 -15 -92 -62v0q12 -6 51 -29v1q17 -22 47 -50
v-177q0 -54 70 -111zM458 411q-53 -12 -73 -60q3 -22 24 -35q21 48 82 64zM500 388q0 -2 0 146l-34 38v-152zM295 422l1 139l-33 -1v-186q32 11 32 48zM218 601l-1 -226l22 -1h12v194zM293 571q-10 34 -47 34h-16l33 -35q10 1 30 1zM514 15q-8 20 -8 40l1 172q-10 4 -36 41
v-161q0 -49 43 -92zM387 4q-4 22 -20 37q-23 21 -59 17l35 -47q22 0 44 -7zM555 -45q-23 22 -35 45l-119 1q36 -14 57 -46h97zM209 -1l-149 1q8 -13 38 -45h153v2zM252 260l-37 37v-287l36 -36zM220 308l40 -39q6 0 18 -1.5t17 -1.5q-10 43 -60 43q-8 0 -15 -1z" />
    <glyph glyph-name="s" unicode="s" horiz-adv-x="506" 
d="M352 418q-4 6 0 3q-6 33 -14 44q-18 24 -71 39v57q-32 -1 -32 -32v-64v-91q25 -7 63 -7h36q11 -51 86 -83q7 -3 58 -51q-1 -205 0 -205q-83 -18 -121 -77l-165 -1q-4 38 -43 38t-39 -37l-58 -1l-41 48l-2 1v268h49q13 -30 47 -54t69 -33h-1q16 -9 56 -43l-1 -64
q24 7 24 28v142q0 14 -5 28q-51 25 -103 18q-4 9 -20.5 28.5t-25.5 24.5q-16 5 -50 12q-33 46 -37 49q1 1 -1 3l-1 185q39 6 62 20q30 19 57 61h159q13 -31 39 -31q31 0 42 31h44l55 -43v-264h-63q-18 21 -52 56v-3zM216 70v61q-15 14 -43 34v-64q0 -15 13 -23t30 -8z
M118 340q22 -17 33 -38q61 -5 86 -14q-41 56 -119 52zM21 410l36 -49q12 0 32 -4q-1 1 -68 53zM220 376q-6 27 0 154q2 40 43 42q-6 34 -42 34q-18 0 -31 -11t-13 -30v-131q0 -40 43 -58zM445 376l-40 40h-32q10 -12 38 -40h34zM411 427l43 -42v237l-43 37v-232zM423 83
l44 -41v187l-45 40q2 -154 1 -186zM345 -38l-37 37l-146 1q-1 -1 -1 -3q14 -5 22 -10q15 -11 18 -26zM317 7l37 -36q28 42 102 65l-42 39q-39 -8 -57 -20q-21 -14 -40 -48zM91 -38l-38 38q-11 3 -28 0l35 -38h31zM61 9l39 -39q12 28 51 30q-3 25 -51 25q-30 0 -39 -16z
M352 418q-4 6 0 3v-3z" />
    <glyph glyph-name="t" unicode="t" horiz-adv-x="544" 
d="M525 547h-149v-194q-3 -35 52 -56q-28 -19 -33 -24q-16 -16 -13 -37l-1 -286h-178l-52 50v280q0 28 -15 40t-30 23q36 13 45 63v142l-100 1l-51 56v66h469l57 -50zM369 -28l1 263q-5 34 33 59q-36 19 -39 51q-42 -29 -38 -60l-1 -275zM163 0l44 -38h155l-44 38h-155z
M320 595v-192q-3 -39 44 -57q-1 4 -0.5 6t0.5 199zM460 603h-132l44 -44l138 -1zM513 570l-1 48l-44 39l1 -46zM16 605l44 -44l91 -1v44z" />
    <glyph glyph-name="u" unicode="u" horiz-adv-x="558" 
d="M538 300q-35 -28 -35 -54q0 -7 3 -12v-104q-1 -107 -1 -105q-71 -12 -92 -82h-205q-27 46 -46 57.5t-76 21.5l-36 53q6 0 -2 2v189q0 64 -42 80q32 12 40 50v275h181v1l50 -45l-1 -274q0 -34 45 -62q-47 -18 -41 -56v-154q0 -3 1 -6q16 -4 34 -4q35 0 60.5 17t25.5 49
l-1 149q-5 45 -35 63q24 13 33 56v267h51l51 -45v-275q8 -24 25 -38q14 -11 13 -14zM64 75l30 -44q24 -4 63 -15q-32 50 -93 59zM268 80v1v153q-6 39 28 59q-32 26 -32 60l1 267l-38 34l-1 -251q0 -37 37 -61q-40 -15 -33 -58v-153q0 -34 38 -51zM369 -1h-186q13 -12 32 -44
h191l1 1zM447 75q-51 -12 -71 -66l36 -41q25 53 77 66zM520 300q-33 30 -33 56l1 264l-38 36v-253q0 -26 36 -57q-32 -6 -32 -56v-204l39 -39q0 -8 1 193q-4 42 26 60z" />
    <glyph glyph-name="v" unicode="v" horiz-adv-x="473" 
d="M470 637l-75 -275q-2 -7 -2 -14q0 -19 11 -29l13 -11q-26 -14 -28 -16q-15 -11 -21 -34l-75 -307h-62l-53 49l-76 301q-13 38 -49 49q27 21 27 46q0 9 -3 20l-69 257h174l53 -38l60 -228l65 266h62zM184 659l89 -344l17 70l-66 243zM239 1l-46 -1l40 -36l43 -1zM456 633
l-37 29l-70 -256q-2 -7 -2 -14q0 -16 7 -29.5t15 -13.5q-38 -15 -46 -47l-73 -295l35 -36l72 290q7 30 38 47q-21 23 -12 57z" />
    <glyph glyph-name="w" unicode="w" horiz-adv-x="797" 
d="M772 619q-8 -47 -39 -252q-4 -27 26 -67q-29 -16 -36 -21q-18 -14 -22 -34l-72 -295h-77l-36 51v0l-109 346l-97 -384l1 -2l-2 -1l-3 -10h-89l-40 51h1l-74 288q-10 40 -52 63q25 27 25 51q0 10 -3 24q-63 246 -60 246l178 -1l45 -45l71 -275l69 321h102l-1 -1l50 -48
l85 -280l59 329h63l-1 -1zM302 326l-76 298l-31 32q27 -99 97 -378zM263 1h-73l33 -39h72zM381 430q-12 -42 -108 -423l27 -32l99 395zM607 323q-14 47 -91 297l-34 34l118 -383q2 21 7 52zM585 1h-56l31 -39h52zM733 660l-36 -247q-5 -30 23 -66q-26 -15 -35 -22
q-15 -14 -20 -33l-69 -286l25 -37l68 279q8 31 52 56q-25 36 -20 65q11 76 39 248z" />
    <glyph glyph-name="x" unicode="x" horiz-adv-x="516" 
d="M95 350q19 20 19 45q0 9 -3 18q-1 -5 -101 260l182 -1l52 -30l39 -106l72 136h70v1l2 -1h-2l32 -38l-118 -223q-10 -25 -1 -51q9 -5 16 -10q1 1 1 0q10 -13 44 -43q-11 -14 -11 -30q0 -13 12 -42q9 -24 117 -285h-203l-43 50l-58 151l-98 -201h-74l-38 51l144 293
q-15 43 -52 56zM276 522l-39 109l-38 23l61 -160zM326 366q-10 11 -2 50l118 217l-23 28q-125 -242 -128 -242t9 -26q8 -17 26 -27zM491 -37l-42 38h-166l36 -38h172zM456 11l37 -34l-104 253q-14 32 -14 49q0 14 7 25q-20 14 -33 35q-15 -26 -1 -62zM98 -38l-32 38l-48 1
l29 -38zM76 7l32 -39q69 134 99 198l-23 58z" />
    <glyph glyph-name="y" unicode="y" horiz-adv-x="525" 
d="M514 633l-117 -283q-3 -7 -3 -13q0 -13 25 -41q-56 -27 -52 -71v-137v-138h-177l-36 50v267q0 30 -20 54q-18 21 -36 23q6 0 13.5 11.5t7.5 26.5q0 9 -4 17l-115 273h180l60 -37l73 -185l91 222h65v0zM306 434l-75 190l-46 32l105 -264zM317 1h-150l30 -38l151 1z
M500 627l-36 33l-109 -264q-4 -9 -4 -17q0 -14 21 -38q-19 -9 -34.5 -31t-13.5 -43v-256l31 -37v250q-2 21 12 42.5t32 33.5q-17 21 -17 36q0 9 4 19z" />
    <glyph glyph-name="z" unicode="z" horiz-adv-x="534" 
d="M493 626l-116 -277q-3 -8 -3 -16q0 -18 28 -38q-58 -19 -66 -67q0 -2 -45 -107l-24 -57h187l-1 -1l43 -43v-69l-451 -1l-45 51h4l107 270q4 57 -17 73q29 8 38 14q18 11 29 34l74 161l-157 1l-38 48v1v69h417v0zM52 602l33 -37h155l18 38zM254 64l71 166q8 49 52 69
q-15 15 -15 35q0 10 4 20l112 268l-26 38l-110 -264q-4 -10 -4 -18q0 -22 21 -37q-50 -17 -59 -68q0 -3 -88 -209h42zM444 1h-429l34 -38h429zM484 -26v40l-31 33l1 -39z" />
    <glyph glyph-name="braceleft" unicode="{" horiz-adv-x="288" 
d="M249 766v-52h-38q-26 -8 -34 -43v-228q-12 -53 -21 -71q-12 -22 -39 -35q33 -12 46 -38q6 -13 14 -58v-250q-4 -16 12 -27.5t32 -9.5h28v-52h-60q-50 -4 -88 14q-41 20 -41 55l-1 267q-8 42 -22.5 62.5t-47.5 37.5q63 27 70 105v236q0 86 138 87h52z" />
    <glyph glyph-name="bar" unicode="|" horiz-adv-x="172" 
d="M62 672h38v-670h-38v670z" />
    <glyph glyph-name="braceright" unicode="}" horiz-adv-x="288" 
d="M3 -98v52h38q26 8 34 42v229q12 53 22 71q11 22 38 35q-33 11 -46 38q-6 13 -14 58v250q5 16 -11.5 27.5t-32.5 9.5h-28v52l60 -1q50 5 89.5 -14t39.5 -55l1 -267q8 -41 22.5 -61.5t47.5 -37.5q-63 -27 -70 -105v-236q0 -86 -137 -87h-53z" />
    <glyph glyph-name="asciitilde" unicode="~" horiz-adv-x="521" 
d="M176 744q-27 2 -36.5 -1.5t-29.5 -23.5l-12 10q1 25 36 46q30 18 52 18q20 0 42 -12t42 -12q34 0 32 0q18 4 37 26q2 3 8.5 -4t5.5 -10q-8 -28 -37 -47q-25 -17 -48 -17q-22 0 -47 12.5t-45 14.5z" />
    <glyph glyph-name="Adieresis" unicode="&#xc4;" horiz-adv-x="525" 
d="M270 663l83 -272q1 -9 13.5 -18t24.5 -16l-78 263zM293 -1l-35 116h-108l-48 -165l-53 1l-41 48v0v1v-1l89 294q1 7 1 14q0 18 -26 40q38 16 46 44l80 282h72l48 -44l85 -278q0 -2 1 -4l2 -1l-1 -1q4 -10 21 -22q11 -9 23 -18q-21 -18 -21 -47v-4v-2l83 -302h-174z
M198 320l-29 -105h60zM158 215l35 123l-14 48l-50 -171h29zM491 -41l-37 40h-147l38 -39zM457 11l37 -37l-76 277v7q0 30 16 47q-14 9 -36 32q-20 -17 -20 -34q0 -4 3 -12zM90 -40l-36 39l-33 1l34 -41zM141 119l-32 33l-43 -150l31 -32zM115 160l35 -35h105l-11 35h-129z
M272 762q0 18 13 31t32 13t32 -13t13 -31q0 -19 -13 -32t-32 -13t-32 13t-13 32zM112 762q0 18 13 31t32 13t32 -13t13 -31q0 -19 -13 -32t-32 -13t-32 13t-13 32z" />
    <glyph glyph-name="Aring" unicode="&#xc5;" horiz-adv-x="525" 
d="M270 663l83 -272q1 -9 13.5 -18t24.5 -16l-78 263zM293 -1l-35 116h-108l-48 -165l-53 1l-41 48v0v1v-1l89 294q1 7 1 14q0 18 -26 40q38 16 46 44l80 282h72l48 -44l85 -278q0 -2 1 -4l2 -1l-1 -1q4 -10 21 -22q11 -9 23 -18q-21 -18 -21 -47v-4v-2l83 -302h-174z
M198 320l-29 -105h60zM158 215l35 123l-14 48l-50 -171h29zM491 -41l-37 40h-147l38 -39zM457 11l37 -37l-76 277v7q0 30 16 47q-14 9 -36 32q-20 -17 -20 -34q0 -4 3 -12zM90 -40l-36 39l-33 1l34 -41zM141 119l-32 33l-43 -150l31 -32zM115 160l35 -35h105l-11 35h-129z
M231 831q28 0 47 -19t19 -46q0 -28 -19 -47t-47 -19q-27 0 -46 19t-19 47q0 27 19 46t46 19zM231 797q-31 0 -31 -31q0 -32 31 -32q32 0 32 32q0 31 -32 31z" />
    <glyph glyph-name="Ccedilla" unicode="&#xc7;" horiz-adv-x="537" 
d="M291 521v-1v1zM248 -41l8 41h-81q27 -11 44 -41h29zM485 27l-33 30q-55 -14 -100 -57q-6 0 -51 1l-6 -43q33 7 50 -11q20 -22 20 -50q0 -34 -30 -61q-21 -19 -102 -15q-25 1 -57 25l24 -42q38 -10 70 -10q59 0 93 32q29 27 29 69q0 39 -27 68q43 42 120 64zM164 -143
l30 29q17 -22 41 -19q18 2 24.5 6t5.5 4q15 15 15 31q0 33 -38 33q1 0 3 9h-33q-48 71 -135 78l-35 47l-1 205q0 21 -15 40q-13 14 -26 27q14 7 25 26.5t11 36.5v184q84 4 133 79h152q8 -28 39 -28q34 0 46 28h47l48 -48l1 -250h-61l-45 45q-3 14 -10 39q-8 20 -33 38
q-29 22 -61 23l-1 1q0 51 -1 58q-3 1 -5 1q-34 0 -34 -29l-1 -185q0 -33 47 -60q-25 -12 -32 -17q-15 -12 -15 -32q-1 -37 -1 -114q3 -68 33 -93q9 -1 18 -1q63 0 88 66q3 6 3.5 30t0.5 69h64l1 -2l46 -44v-144q-3 -1 -11 -4q-79 -23 -111 -56q24 -32 24 -69q0 -46 -34 -77
q-37 -33 -98 -33q-37 0 -80 13q-26 56 -29 59zM492 621l-39 39v-227l39 -38v226zM487 385l-37 36h-43l38 -35zM287 590q-8 35 -42 35q-17 0 -28.5 -11.5t-11.5 -29.5v-178q0 -35 40 -59q-6 14 -6 25l1 180q0 38 45 38h2zM494 164l-37 34l-1 -129l38 -36v131zM276 307
q-19 14 -30 39q-41 -19 -41 -58l1 -139q0 -61 53 -91q-18 29 -19 85v114q0 28 36 50zM148 22q-19 22 -86 48l22 -32q43 -4 64 -16z" />
    <glyph glyph-name="Eacute" unicode="&#xc9;" horiz-adv-x="467" 
d="M402 619l33 -34v39l-34 36zM237 573l-35 41l1 -238h34v197zM214 612l34 -35l182 -1l-35 35zM203 315l-1 -248h36l-1 214zM351 286l-36 35h-104l33 -33l-2 -2h109zM326 324l35 -34v47l-35 31v-44zM434 -39l-40 39h-338l45 -40zM446 -50h-354l-53 51l-1 287q0 35 -37 60
q25 11 33 53v271l368 1h-1l43 -42l1 -65l-198 1l1 -191l78 1v1l45 -36v-66h-123v-209h155v1l43 -43v-75zM403 6l34 -35v51l-34 33v-49zM120 727l199 106l34 -68l-222 -66z" />
    <glyph glyph-name="Ntilde" unicode="&#xd1;" horiz-adv-x="521" 
d="M369 371l-114 248l-36 32l150 -322v42zM426 673l44 -55l1 -266q0 -20 4.5 -26.5t22.5 -15.5q-30 -21 -30 -54v-305h-92l-48 50l-187 412v-61q0 -12 1 -16.5t8 -15.5q8 -4 18 -12l-9 -10q-23 -25 -22 -62q1 -96 1 -285h-68l-43 50h1v288q0 33 -26 54q29 21 29 52l1 278
h178q4 -4 57 -47l102 -226v273h57zM120 -39l-34 40h-41l31 -40h44zM92 11l34 -38q-1 248 -1 281q1 30 29 53q-25 10 -25 45v89l-35 74l1 -123q0 -34 26 -49q-32 -23 -29 -54q-2 0 0 -278zM448 -37l-34 38h-67l35 -38h66zM422 9l34 -38v285q0 31 20 52q-17 12 -17 45l-1 260
l-34 46l1 -267q0 -32 21 -43q-24 -17 -24 -53v-287zM176 744q-27 2 -36.5 -1.5t-29.5 -23.5l-12 10q1 25 36 46q30 18 52 18q20 0 42 -12t42 -12q34 0 32 0q18 4 37 26q2 3 8.5 -4t5.5 -10q-8 -28 -37 -47q-25 -17 -48 -17q-22 0 -47 12.5t-45 14.5z" />
    <glyph glyph-name="Odieresis" unicode="&#xd6;" horiz-adv-x="571" 
d="M555 309q-40 -28 -40 -66q0 8 0 -55v-103v-56l-46 -12q-50 -20 -83 -68h-185q-50 73 -124 79l-33 44q-1 1 -1 2l1 215q0 8 -3 15l-4 4l3 1q-9 22 -32 38q20 11 24 18q4 14 9 27l1 196q40 3 78 25q42 25 55 61h168q8 -28 52.5 -58t74.5 -31q12 -14 46 -51l1 -180l10 -26
q3 -5 28 -19zM338 0h-160q6 -6 29 -39h165zM459 72q-66 -8 -110 -66l34 -40q52 66 112 73zM533 307q-15 9 -19.5 20.5t-8.5 24.5l-1 175q-17 17 -36 39v-168q5 -15 11 -29q5 -10 25 -21q-30 -20 -34 -56q0 -7 -1 -96q-1 -94 0 -117l34 -33q0 14 -1 205q-1 29 31 56zM296 585
q-35 4 -35 -24v-210q0 -26 29 -46q-29 -9 -29 -43l1 -220q30 6 30 33l1 224q0 31 -24 44q27 14 27 49v193zM296 600q0 25 -41 25q-40 0 -40 -26l-1 -208q0 -32 29 -48q-28 -10 -29 -46v-223q0 -29 34 -30v216q0 33 21 46q-21 14 -21 46l1 209q0 25 21 31q4 1 26 1v7zM148 21
q-22 24 -86 49l22 -28q32 -4 64 -21zM292 762q0 18 13 31t32 13t32 -13t13 -31q0 -19 -13 -32t-32 -13t-32 13t-13 32zM142 762q0 18 13 31t32 13t32 -13t13 -31q0 -19 -13 -32t-32 -13t-32 13t-13 32z" />
    <glyph glyph-name="Udieresis" unicode="&#xdc;" horiz-adv-x="558" 
d="M538 300q-35 -28 -35 -54q0 -7 3 -12v-104q-1 -107 -1 -105q-71 -12 -92 -82h-205q-27 46 -46 57.5t-76 21.5l-36 53q6 0 -2 2v189q0 64 -42 80q32 12 40 50v275h181v1l50 -45l-1 -274q0 -34 45 -62q-47 -18 -41 -56v-154q0 -3 1 -6q16 -4 34 -4q35 0 60.5 17t25.5 49
l-1 149q-5 45 -35 63q24 13 33 56v267h51l51 -45v-275q8 -24 25 -38q14 -11 13 -14zM64 75l30 -44q24 -4 63 -15q-32 50 -93 59zM268 80v1v153q-6 39 28 59q-32 26 -32 60l1 267l-38 34l-1 -251q0 -37 37 -61q-40 -15 -33 -58v-153q0 -34 38 -51zM369 -1h-186q13 -12 32 -44
h191l1 1zM447 75q-51 -12 -71 -66l36 -41q25 53 77 66zM520 300q-33 30 -33 56l1 264l-38 36v-253q0 -26 36 -57q-32 -6 -32 -56v-204l39 -39q0 -8 1 193q-4 42 26 60zM292 762q0 18 13 31t32 13t32 -13t13 -31q0 -19 -13 -32t-32 -13t-32 13t-13 32zM142 762q0 18 13 31
t32 13t32 -13t13 -31q0 -19 -13 -32t-32 -13t-32 13t-13 32z" />
    <glyph glyph-name="aacute" unicode="&#xe1;" horiz-adv-x="525" 
d="M270 663l83 -272q1 -9 13.5 -18t24.5 -16l-78 263zM293 -1l-35 116h-108l-48 -165l-53 1l-41 48v0v1v-1l89 294q1 7 1 14q0 18 -26 40q38 16 46 44l80 282h72l48 -44l85 -278q0 -2 1 -4l2 -1l-1 -1q4 -10 21 -22q11 -9 23 -18q-21 -18 -21 -47v-4v-2l83 -302h-174z
M198 320l-29 -105h60zM158 215l35 123l-14 48l-50 -171h29zM491 -41l-37 40h-147l38 -39zM457 11l37 -37l-76 277v7q0 30 16 47q-14 9 -36 32q-20 -17 -20 -34q0 -4 3 -12zM90 -40l-36 39l-33 1l34 -41zM141 119l-32 33l-43 -150l31 -32zM115 160l35 -35h105l-11 35h-129z
M120 727l199 106l34 -68l-222 -66z" />
    <glyph glyph-name="agrave" unicode="&#xe0;" horiz-adv-x="525" 
d="M270 663l83 -272q1 -9 13.5 -18t24.5 -16l-78 263zM293 -1l-35 116h-108l-48 -165l-53 1l-41 48v0v1v-1l89 294q1 7 1 14q0 18 -26 40q38 16 46 44l80 282h72l48 -44l85 -278q0 -2 1 -4l2 -1l-1 -1q4 -10 21 -22q11 -9 23 -18q-21 -18 -21 -47v-4v-2l83 -302h-174z
M198 320l-29 -105h60zM158 215l35 123l-14 48l-50 -171h29zM491 -41l-37 40h-147l38 -39zM457 11l37 -37l-76 277v7q0 30 16 47q-14 9 -36 32q-20 -17 -20 -34q0 -4 3 -12zM90 -40l-36 39l-33 1l34 -41zM141 119l-32 33l-43 -150l31 -32zM115 160l35 -35h105l-11 35h-129z
M354 727l-199 106l-35 -68l223 -66z" />
    <glyph glyph-name="acircumflex" unicode="&#xe2;" horiz-adv-x="525" 
d="M270 663l83 -272q1 -9 13.5 -18t24.5 -16l-78 263zM293 -1l-35 116h-108l-48 -165l-53 1l-41 48v0v1v-1l89 294q1 7 1 14q0 18 -26 40q38 16 46 44l80 282h72l48 -44l85 -278q0 -2 1 -4l2 -1l-1 -1q4 -10 21 -22q11 -9 23 -18q-21 -18 -21 -47v-4v-2l83 -302h-174z
M198 320l-29 -105h60zM158 215l35 123l-14 48l-50 -171h29zM491 -41l-37 40h-147l38 -39zM457 11l37 -37l-76 277v7q0 30 16 47q-14 9 -36 32q-20 -17 -20 -34q0 -4 3 -12zM90 -40l-36 39l-33 1l34 -41zM141 119l-32 33l-43 -150l31 -32zM115 160l35 -35h105l-11 35h-129z
M233 755l-129 -56l-11 28l142 106l139 -106l-11 -28z" />
    <glyph glyph-name="adieresis" unicode="&#xe4;" horiz-adv-x="525" 
d="M270 663l83 -272q1 -9 13.5 -18t24.5 -16l-78 263zM293 -1l-35 116h-108l-48 -165l-53 1l-41 48v0v1v-1l89 294q1 7 1 14q0 18 -26 40q38 16 46 44l80 282h72l48 -44l85 -278q0 -2 1 -4l2 -1l-1 -1q4 -10 21 -22q11 -9 23 -18q-21 -18 -21 -47v-4v-2l83 -302h-174z
M198 320l-29 -105h60zM158 215l35 123l-14 48l-50 -171h29zM491 -41l-37 40h-147l38 -39zM457 11l37 -37l-76 277v7q0 30 16 47q-14 9 -36 32q-20 -17 -20 -34q0 -4 3 -12zM90 -40l-36 39l-33 1l34 -41zM141 119l-32 33l-43 -150l31 -32zM115 160l35 -35h105l-11 35h-129z
M272 762q0 18 13 31t32 13t32 -13t13 -31q0 -19 -13 -32t-32 -13t-32 13t-13 32zM112 762q0 18 13 31t32 13t32 -13t13 -31q0 -19 -13 -32t-32 -13t-32 13t-13 32z" />
    <glyph glyph-name="atilde" unicode="&#xe3;" horiz-adv-x="525" 
d="M270 663l83 -272q1 -9 13.5 -18t24.5 -16l-78 263zM293 -1l-35 116h-108l-48 -165l-53 1l-41 48v0v1v-1l89 294q1 7 1 14q0 18 -26 40q38 16 46 44l80 282h72l48 -44l85 -278q0 -2 1 -4l2 -1l-1 -1q4 -10 21 -22q11 -9 23 -18q-21 -18 -21 -47v-4v-2l83 -302h-174z
M198 320l-29 -105h60zM158 215l35 123l-14 48l-50 -171h29zM491 -41l-37 40h-147l38 -39zM457 11l37 -37l-76 277v7q0 30 16 47q-14 9 -36 32q-20 -17 -20 -34q0 -4 3 -12zM90 -40l-36 39l-33 1l34 -41zM141 119l-32 33l-43 -150l31 -32zM115 160l35 -35h105l-11 35h-129z
M196 744q-27 2 -36.5 -1.5t-29.5 -23.5l-12 10q1 25 36 46q30 18 52 18q20 0 42 -12t42 -12q34 0 32 0q18 4 37 26q2 3 8.5 -4t5.5 -10q-8 -28 -37 -47q-25 -17 -48 -17q-22 0 -47 12.5t-45 14.5z" />
    <glyph glyph-name="aring" unicode="&#xe5;" horiz-adv-x="525" 
d="M270 663l83 -272q1 -9 13.5 -18t24.5 -16l-78 263zM293 -1l-35 116h-108l-48 -165l-53 1l-41 48v0v1v-1l89 294q1 7 1 14q0 18 -26 40q38 16 46 44l80 282h72l48 -44l85 -278q0 -2 1 -4l2 -1l-1 -1q4 -10 21 -22q11 -9 23 -18q-21 -18 -21 -47v-4v-2l83 -302h-174z
M198 320l-29 -105h60zM158 215l35 123l-14 48l-50 -171h29zM491 -41l-37 40h-147l38 -39zM457 11l37 -37l-76 277v7q0 30 16 47q-14 9 -36 32q-20 -17 -20 -34q0 -4 3 -12zM90 -40l-36 39l-33 1l34 -41zM141 119l-32 33l-43 -150l31 -32zM115 160l35 -35h105l-11 35h-129z
M231 831q28 0 47 -19t19 -46q0 -28 -19 -47t-47 -19q-27 0 -46 19t-19 47q0 27 19 46t46 19zM231 797q-31 0 -31 -31q0 -32 31 -32q32 0 32 32q0 31 -32 31z" />
    <glyph glyph-name="ccedilla" unicode="&#xe7;" horiz-adv-x="537" 
d="M291 521v-1v1zM248 -41l8 41h-81q27 -11 44 -41h29zM485 27l-33 30q-55 -14 -100 -57q-6 0 -51 1l-6 -43q33 7 50 -11q20 -22 20 -50q0 -34 -30 -61q-21 -19 -102 -15q-25 1 -57 25l24 -42q38 -10 70 -10q59 0 93 32q29 27 29 69q0 39 -27 68q43 42 120 64zM164 -143
l30 29q17 -22 41 -19q18 2 24.5 6t5.5 4q15 15 15 31q0 33 -38 33q1 0 3 9h-33q-48 71 -135 78l-35 47l-1 205q0 21 -15 40q-13 14 -26 27q14 7 25 26.5t11 36.5v184q84 4 133 79h152q8 -28 39 -28q34 0 46 28h47l48 -48l1 -250h-61l-45 45q-3 14 -10 39q-8 20 -33 38
q-29 22 -61 23l-1 1q0 51 -1 58q-3 1 -5 1q-34 0 -34 -29l-1 -185q0 -33 47 -60q-25 -12 -32 -17q-15 -12 -15 -32q-1 -37 -1 -114q3 -68 33 -93q9 -1 18 -1q63 0 88 66q3 6 3.5 30t0.5 69h64l1 -2l46 -44v-144q-3 -1 -11 -4q-79 -23 -111 -56q24 -32 24 -69q0 -46 -34 -77
q-37 -33 -98 -33q-37 0 -80 13q-26 56 -29 59zM492 621l-39 39v-227l39 -38v226zM487 385l-37 36h-43l38 -35zM287 590q-8 35 -42 35q-17 0 -28.5 -11.5t-11.5 -29.5v-178q0 -35 40 -59q-6 14 -6 25l1 180q0 38 45 38h2zM494 164l-37 34l-1 -129l38 -36v131zM276 307
q-19 14 -30 39q-41 -19 -41 -58l1 -139q0 -61 53 -91q-18 29 -19 85v114q0 28 36 50zM148 22q-19 22 -86 48l22 -32q43 -4 64 -16z" />
    <glyph glyph-name="eacute" unicode="&#xe9;" horiz-adv-x="467" 
d="M402 619l33 -34v39l-34 36zM237 573l-35 41l1 -238h34v197zM214 612l34 -35l182 -1l-35 35zM203 315l-1 -248h36l-1 214zM351 286l-36 35h-104l33 -33l-2 -2h109zM326 324l35 -34v47l-35 31v-44zM434 -39l-40 39h-338l45 -40zM446 -50h-354l-53 51l-1 287q0 35 -37 60
q25 11 33 53v271l368 1h-1l43 -42l1 -65l-198 1l1 -191l78 1v1l45 -36v-66h-123v-209h155v1l43 -43v-75zM403 6l34 -35v51l-34 33v-49zM120 727l199 106l34 -68l-222 -66z" />
    <glyph glyph-name="egrave" unicode="&#xe8;" horiz-adv-x="467" 
d="M402 619l33 -34v39l-34 36zM237 573l-35 41l1 -238h34v197zM214 612l34 -35l182 -1l-35 35zM203 315l-1 -248h36l-1 214zM351 286l-36 35h-104l33 -33l-2 -2h109zM326 324l35 -34v47l-35 31v-44zM434 -39l-40 39h-338l45 -40zM446 -50h-354l-53 51l-1 287q0 35 -37 60
q25 11 33 53v271l368 1h-1l43 -42l1 -64h-198l1 -191l78 1v1l45 -36v-66h-123v-209h155v1l43 -43v-75zM403 6l34 -35v51l-34 33v-49zM344 727l-199 106l-35 -68l223 -66z" />
    <glyph glyph-name="ecircumflex" unicode="&#xea;" horiz-adv-x="467" 
d="M402 619l33 -34v39l-34 36zM237 573l-35 41l1 -238h34v197zM214 612l34 -35l182 -1l-35 35zM203 315l-1 -248h36l-1 214zM351 286l-36 35h-104l33 -33l-2 -2h109zM326 324l35 -34v47l-35 31v-44zM434 -39l-40 39h-338l45 -40zM446 -50h-354l-53 51l-1 287q0 35 -37 60
q25 11 33 53v271l368 1h-1l43 -42l1 -65l-196 -1l-1 -189l78 1v1l45 -36v-66h-123v-209h155v1l43 -43v-75zM403 6l34 -35v51l-34 33v-49zM223 755l-129 -56l-11 28l142 106l139 -106l-11 -28z" />
    <glyph glyph-name="edieresis" unicode="&#xeb;" horiz-adv-x="467" 
d="M402 619l33 -34v39l-34 36zM237 573l-35 41l1 -238h34v197zM214 612l34 -35l182 -1l-35 35zM203 315l-1 -248h36l-1 214zM351 286l-36 35h-104l33 -33l-2 -2h109zM326 324l35 -34v47l-35 31v-44zM433 -41l-39 41h-338l45 -40zM446 -50h-354l-53 51l-1 287q0 35 -37 60
q25 11 33 53v271l368 1h-1l43 -42l1 -65l-196 -1l-1 -189l78 1v1l45 -36v-66h-123v-209h155v1l43 -43v-75zM403 6l34 -35v51l-34 33v-49zM252 762q0 18 13 31t32 13t32 -13t13 -31q0 -19 -13 -32t-32 -13t-32 13t-13 32zM92 762q0 18 13 31t32 13t32 -13t13 -31
q0 -19 -13 -32t-32 -13t-32 13t-13 32z" />
    <glyph glyph-name="iacute" unicode="&#xed;" horiz-adv-x="296" 
d="M35 -1v290q-4 25 -8 33q-7 14 -27 22q37 19 37 51l1 278l160 -1v0l45 -45v-268q-5 -39 41 -56q-29 -11 -36 -37q-4 -13 -4 -68q-1 -76 1 -247h-163zM233 345q-1 5 0 10v265l-36 40l1 -265q-5 -34 35 -50zM191 0l-141 -1l36 -36h142zM260 303q-24 14 -27 41
q-29 -9 -32 -40v-33q-3 -2 0 -265l32 -34q1 136 1 226q0 63 1 73q4 23 25 32zM0 727l199 106l34 -68l-222 -66z" />
    <glyph glyph-name="igrave" unicode="&#xec;" horiz-adv-x="296" 
d="M35 -1v290q-4 25 -8 33q-7 14 -27 22q37 19 37 51l1 278l160 -1v0l45 -45v-268q-5 -39 41 -56q-29 -11 -36 -37q-4 -13 -4 -68q-1 -76 1 -247h-163zM233 345q-1 5 0 10v265l-36 40l1 -265q-5 -34 35 -50zM191 0l-141 -1l36 -36h142zM260 303q-24 14 -27 41
q-29 -9 -32 -40v-33q-3 -2 0 -265l32 -34q1 136 1 226q0 63 1 73q4 23 25 32zM244 727l-199 106l-35 -68l223 -66z" />
    <glyph glyph-name="icircumflex" unicode="&#xee;" horiz-adv-x="296" 
d="M35 -1v290q-4 25 -8 33q-7 14 -27 22q37 19 37 51l1 278l160 -1v0l45 -45v-268q-5 -39 41 -56q-29 -11 -36 -37q-4 -13 -4 -68q-1 -76 1 -247h-163zM233 345q-1 5 0 10v265l-36 40l1 -265q-5 -34 35 -50zM191 0l-141 -1l36 -36h142zM260 303q-24 14 -27 41
q-29 -9 -32 -40v-33q-3 -2 0 -265l32 -34q1 136 1 226q0 63 1 73q4 23 25 32zM133 755l-129 -56l-11 28l142 106l139 -106l-11 -28z" />
    <glyph glyph-name="idieresis" unicode="&#xef;" horiz-adv-x="296" 
d="M35 -1v290q-4 25 -8 33q-7 14 -27 22q37 19 37 51l1 278l160 -1v0l45 -45v-268q-5 -39 41 -56q-29 -11 -36 -37q-4 -13 -4 -68q-1 -76 1 -247h-163zM233 345q-1 5 0 10v265l-36 40l1 -265q-5 -34 35 -50zM191 0l-141 -1l36 -36h142zM260 303q-24 14 -27 41
q-29 -9 -32 -40v-33q-3 -2 0 -265l32 -34q1 136 1 226q0 63 1 73q4 23 25 32zM152 762q0 18 13 31t32 13t32 -13t13 -31q0 -19 -13 -32t-32 -13t-32 13t-13 32zM2 762q0 18 13 31t32 13t32 -13t13 -31q0 -19 -13 -32t-32 -13t-32 13t-13 32z" />
    <glyph glyph-name="ntilde" unicode="&#xf1;" horiz-adv-x="521" 
d="M369 371l-114 248l-36 32l150 -322v42zM426 673l44 -55l1 -266q0 -20 4.5 -26.5t22.5 -15.5q-30 -21 -30 -54v-305h-92l-48 50l-187 412v-61q0 -12 1 -16.5t8 -15.5q8 -4 18 -12l-9 -10q-23 -25 -22 -62q1 -96 1 -285h-68l-43 50h1v288q0 33 -26 54q29 21 29 52l1 278
h178q4 -4 57 -47l102 -226v273h57zM120 -39l-34 40h-41l31 -40h44zM92 11l34 -38q-1 248 -1 281q1 30 29 53q-25 10 -25 45v89l-35 74l1 -123q0 -34 26 -49q-32 -23 -29 -54q-2 0 0 -278zM448 -37l-34 38h-67l35 -38h66zM422 9l34 -38v285q0 31 20 52q-17 12 -17 45l-1 260
l-34 46l1 -267q0 -32 21 -43q-24 -17 -24 -53v-287zM176 744q-27 2 -36.5 -1.5t-29.5 -23.5l-12 10q1 25 36 46q30 18 52 18q20 0 42 -12t42 -12q34 0 32 0q18 4 37 26q2 3 8.5 -4t5.5 -10q-8 -28 -37 -47q-25 -17 -48 -17q-22 0 -47 12.5t-45 14.5z" />
    <glyph glyph-name="oacute" unicode="&#xf3;" horiz-adv-x="571" 
d="M555 309q-40 -28 -40 -66q0 8 0 -55v-103v-56l-46 -12q-50 -20 -83 -68h-185q-50 73 -124 79l-33 44q-1 1 -1 2l1 215q0 8 -3 15l-4 4l3 1q-9 22 -32 38q20 11 24 18q4 14 9 27l1 196q40 3 78 25q42 25 55 61h168q8 -28 52.5 -58t74.5 -31q12 -14 46 -51l1 -180l10 -26
q3 -5 28 -19zM338 0h-160q6 -6 29 -39h165zM459 72q-66 -8 -110 -66l34 -40q52 66 112 73zM533 307q-15 9 -19.5 20.5t-8.5 24.5l-1 175q-17 17 -36 39v-168q5 -15 11 -29q5 -10 25 -21q-30 -20 -34 -56q0 -7 -1 -96q-1 -94 0 -117l34 -33q0 14 -1 205q-1 29 31 56zM296 585
q-35 4 -35 -24v-210q0 -26 29 -46q-29 -9 -29 -43l1 -220q30 6 30 33l1 224q0 31 -24 44q27 14 27 49v193zM296 600q0 25 -41 25q-40 0 -40 -26l-1 -208q0 -32 29 -48q-28 -10 -29 -46v-223q0 -29 34 -30v216q0 33 21 46q-21 14 -21 46l1 209q0 25 21 31q4 1 26 1v7zM148 21
q-22 24 -86 49l22 -28q32 -4 64 -21zM140 727l199 106l34 -68l-222 -66z" />
    <glyph glyph-name="ograve" unicode="&#xf2;" horiz-adv-x="571" 
d="M555 309q-40 -28 -40 -66q0 8 0 -55v-103v-56l-46 -12q-50 -20 -83 -68h-185q-50 73 -124 79l-33 44q-1 1 -1 2l1 215q0 8 -3 15l-4 4l3 1q-9 22 -32 38q20 11 24 18q4 14 9 27l1 196q40 3 78 25q42 25 55 61h168q8 -28 52.5 -58t74.5 -31q12 -14 46 -51l1 -180l10 -26
q3 -5 28 -19zM338 0h-160q6 -6 29 -39h165zM459 72q-66 -8 -110 -66l34 -40q52 66 112 73zM533 307q-15 9 -19.5 20.5t-8.5 24.5l-1 175q-17 17 -36 39v-168q5 -15 11 -29q5 -10 25 -21q-30 -20 -34 -56q0 -7 -1 -96q-1 -94 0 -117l34 -33q0 14 -1 205q-1 29 31 56zM296 585
q-35 4 -35 -24v-210q0 -26 29 -46q-29 -9 -29 -43l1 -220q30 6 30 33l1 224q0 31 -24 44q27 14 27 49v193zM296 600q0 25 -41 25q-40 0 -40 -26l-1 -208q0 -32 29 -48q-28 -10 -29 -46v-223q0 -29 34 -30v216q0 33 21 46q-21 14 -21 46l1 209q0 25 21 31q4 1 26 1v7zM148 21
q-22 24 -86 49l22 -28q32 -4 64 -21zM384 727l-199 106l-35 -68l223 -66z" />
    <glyph glyph-name="ocircumflex" unicode="&#xf4;" horiz-adv-x="571" 
d="M555 309q-40 -28 -40 -66q0 8 0 -55v-103v-56l-46 -12q-50 -20 -83 -68h-185q-50 73 -124 79l-33 44q-1 1 -1 2l1 215q0 8 -3 15l-4 4l3 1q-9 22 -32 38q20 11 24 18q4 14 9 27l1 196q40 3 78 25q42 25 55 61h168q8 -28 52.5 -58t74.5 -31q12 -14 48 -52l-1 -179l10 -26
q3 -5 28 -19zM338 0h-160q6 -6 29 -39h165zM459 72q-66 -8 -110 -66l34 -40q52 66 112 73zM533 307q-15 9 -19.5 20.5t-8.5 24.5l-1 175q-17 17 -36 39v-168q5 -15 11 -29q5 -10 25 -21q-30 -20 -34 -56q0 -7 -1 -96q-1 -94 0 -117l34 -33q0 14 -1 205q-1 29 31 56zM296 585
q-35 4 -35 -24v-210q0 -26 29 -46q-29 -9 -29 -43l1 -220q30 6 30 33l1 224q0 31 -24 44q27 14 27 49v193zM296 600q0 25 -41 25q-40 0 -40 -26l-1 -208q0 -32 29 -48q-28 -10 -29 -46v-223q0 -29 34 -30v216q0 33 21 46q-21 14 -21 46l1 209q0 25 21 31q4 1 26 1v7zM148 21
q-22 24 -86 49l22 -28q32 -4 64 -21zM253 755l-129 -56l-11 28l142 106l139 -106l-11 -28z" />
    <glyph glyph-name="odieresis" unicode="&#xf6;" horiz-adv-x="571" 
d="M555 309q-40 -28 -40 -66q0 8 0 -55v-103v-56l-46 -12q-50 -20 -83 -68h-185q-50 73 -124 79l-33 44q-1 1 -1 2l1 215q0 8 -3 15l-4 4l3 1q-9 22 -32 38q20 11 24 18q4 14 9 27l1 196q40 3 78 25q42 25 55 61h168q8 -28 52.5 -58t74.5 -31q12 -14 46 -51l1 -180l10 -26
q3 -5 28 -19zM338 0h-160q6 -6 29 -39h165zM459 72q-66 -8 -110 -66l34 -40q52 66 112 73zM533 307q-15 9 -19.5 20.5t-8.5 24.5l-1 175q-17 17 -36 39v-168q5 -15 11 -29q5 -10 25 -21q-30 -20 -34 -56q0 -7 -1 -96q-1 -94 0 -117l34 -33q0 14 -1 205q-1 29 31 56zM296 585
q-35 4 -35 -24v-210q0 -26 29 -46q-29 -9 -29 -43l1 -220q30 6 30 33l1 224q0 31 -24 44q27 14 27 49v193zM296 600q0 25 -41 25q-40 0 -40 -26l-1 -208q0 -32 29 -48q-28 -10 -29 -46v-223q0 -29 34 -30v216q0 33 21 46q-21 14 -21 46l1 209q0 25 21 31q4 1 26 1v7zM148 21
q-22 24 -86 49l22 -28q32 -4 64 -21zM292 762q0 18 13 31t32 13t32 -13t13 -31q0 -19 -13 -32t-32 -13t-32 13t-13 32zM142 762q0 18 13 31t32 13t32 -13t13 -31q0 -19 -13 -32t-32 -13t-32 13t-13 32z" />
    <glyph glyph-name="otilde" unicode="&#xf5;" horiz-adv-x="571" 
d="M555 309q-40 -28 -40 -66q0 8 0 -55v-103v-56l-46 -12q-50 -20 -83 -68h-185q-50 73 -124 79l-33 44q-1 1 -1 2l1 215q0 8 -3 15l-4 4l3 1q-9 22 -32 38q20 11 24 18q4 14 9 27l1 196q40 3 78 25q42 25 55 61h168q8 -28 52.5 -58t74.5 -31q12 -14 46 -51l1 -180l10 -26
q3 -5 28 -19zM338 0h-160q6 -6 29 -39h165zM459 72q-66 -8 -110 -66l34 -40q52 66 112 73zM533 307q-15 9 -19.5 20.5t-8.5 24.5l-1 175q-17 17 -36 39v-168q5 -15 11 -29q5 -10 25 -21q-30 -20 -34 -56q0 -7 -1 -96q-1 -94 0 -117l34 -33q0 14 -1 205q-1 29 31 56zM296 585
q-35 4 -35 -24v-210q0 -26 29 -46q-29 -9 -29 -43l1 -220q30 6 30 33l1 224q0 31 -24 44q27 14 27 49v193zM296 600q0 25 -41 25q-40 0 -40 -26l-1 -208q0 -32 29 -48q-28 -10 -29 -46v-223q0 -29 34 -30v216q0 33 21 46q-21 14 -21 46l1 209q0 25 21 31q4 1 26 1v7zM148 21
q-22 24 -86 49l22 -28q32 -4 64 -21zM206 744q-27 2 -36.5 -1.5t-29.5 -23.5l-12 10q1 25 36 46q30 18 52 18q20 0 42 -12t42 -12q34 0 32 0q18 4 37 26q2 3 8.5 -4t5.5 -10q-8 -28 -37 -47q-25 -17 -48 -17q-22 0 -47 12.5t-45 14.5z" />
    <glyph glyph-name="uacute" unicode="&#xfa;" horiz-adv-x="558" 
d="M538 300q-35 -28 -35 -54q0 -7 3 -12v-104q-1 -107 -1 -105q-71 -12 -92 -82h-205q-27 46 -46 57.5t-76 21.5l-36 53q6 0 -2 2v189q0 64 -42 80q32 12 40 50v275h181v1l50 -45l-1 -274q0 -34 45 -62q-47 -18 -41 -56v-154q0 -3 1 -6q16 -4 34 -4q35 0 60.5 17t25.5 49
l-1 149q-5 45 -35 63q24 13 33 56v267h51l51 -45v-275q8 -24 25 -38q14 -11 13 -14zM64 75l30 -44q24 -4 63 -15q-32 50 -93 59zM268 80v1v153q-6 39 28 59q-32 26 -32 60l1 267l-38 34l-1 -251q0 -37 37 -61q-40 -15 -33 -58v-153q0 -34 38 -51zM369 -1h-186q13 -12 32 -44
h191l1 1zM447 75q-51 -12 -71 -66l36 -41q25 53 77 66zM520 300q-33 30 -33 56l1 264l-38 36v-253q0 -26 36 -57q-32 -6 -32 -56v-204l39 -39q0 -8 1 193q-4 42 26 60zM150 727l199 106l34 -68l-222 -66z" />
    <glyph glyph-name="ugrave" unicode="&#xf9;" horiz-adv-x="558" 
d="M538 300q-35 -28 -35 -54q0 -7 3 -12v-104q-1 -107 -1 -105q-71 -12 -92 -82h-205q-27 46 -46 57.5t-76 21.5l-36 53q6 0 -2 2v189q0 64 -42 80q32 12 40 50v275h181v1l50 -45l-1 -274q0 -34 45 -62q-47 -18 -41 -56v-154q0 -3 1 -6q16 -4 34 -4q35 0 60.5 17t25.5 49
l-1 149q-5 45 -35 63q24 13 33 56v267h51l51 -45v-275q8 -24 25 -38q14 -11 13 -14zM64 75l30 -44q24 -4 63 -15q-32 50 -93 59zM268 80v1v153q-6 39 28 59q-32 26 -32 60l1 267l-38 34l-1 -251q0 -37 37 -61q-40 -15 -33 -58v-153q0 -34 38 -51zM369 -1h-186q13 -12 32 -44
h191l1 1zM447 75q-51 -12 -71 -66l36 -41q25 53 77 66zM520 300q-33 30 -33 56l1 264l-38 36v-253q0 -26 36 -57q-32 -6 -32 -56v-204l39 -39q0 -8 1 193q-4 42 26 60zM374 727l-199 106l-35 -68l223 -66z" />
    <glyph glyph-name="ucircumflex" unicode="&#xfb;" horiz-adv-x="558" 
d="M538 300q-35 -28 -35 -54q0 -7 3 -12v-104q-1 -107 -1 -105q-71 -12 -92 -82h-205q-27 46 -46 57.5t-76 21.5l-36 53q6 0 -2 2v189q0 64 -42 80q32 12 40 50l-1 275h182v1l50 -45l-1 -274q0 -34 45 -62q-47 -18 -41 -56v-154q0 -3 1 -6q16 -4 34 -4q35 0 60.5 17t25.5 49
l-1 149q-5 45 -35 63q24 13 33 56v267h51l53 -53l-2 -267q8 -24 25 -38q14 -11 13 -14zM64 75l30 -44q24 -4 63 -15q-32 50 -93 59zM268 80v1v153q-6 39 28 59q-32 26 -32 60l1 267l-38 34l-1 -251q0 -37 37 -61q-40 -15 -33 -58v-153q0 -34 38 -51zM369 -1h-186
q13 -12 32 -44h191l1 1zM447 75q-51 -12 -71 -66l36 -41q25 53 77 66zM520 300q-33 29 -33 56l-1 256l-36 44v-253q0 -26 36 -57q-32 -6 -32 -56v-204l39 -39q0 -8 1 193q-4 42 26 60zM253 755l-129 -56l-11 28l142 106l139 -106l-11 -28z" />
    <glyph glyph-name="udieresis" unicode="&#xfc;" horiz-adv-x="558" 
d="M538 300q-35 -28 -35 -54q0 -7 3 -12v-104q-1 -107 -1 -105q-71 -12 -92 -82h-205q-27 46 -46 57.5t-76 21.5l-36 53q6 0 -2 2v189q0 64 -42 80q32 12 40 50v275h181v1l50 -45l-1 -274q0 -34 45 -62q-47 -18 -41 -56v-154q0 -3 1 -6q16 -4 34 -4q35 0 60.5 17t25.5 49
l-1 149q-5 45 -35 63q24 13 33 56v267h51l51 -45v-275q8 -24 25 -38q14 -11 13 -14zM64 75l30 -44q24 -4 63 -15q-32 50 -93 59zM268 80v1v153q-6 39 28 59q-32 26 -32 60l1 267l-38 34l-1 -251q0 -37 37 -61q-40 -15 -33 -58v-153q0 -34 38 -51zM369 -1h-186q13 -12 32 -44
h191l1 1zM447 75q-51 -12 -71 -66l36 -41q25 53 77 66zM520 300q-33 30 -33 56l1 264l-38 36v-253q0 -26 36 -57q-32 -6 -32 -56v-204l39 -39q0 -8 1 193q-4 42 26 60zM292 762q0 18 13 31t32 13t32 -13t13 -31q0 -19 -13 -32t-32 -13t-32 13t-13 32zM142 762q0 18 13 31
t32 13t32 -13t13 -31q0 -19 -13 -32t-32 -13t-32 13t-13 32z" />
    <glyph glyph-name="dagger" unicode="&#x2020;" 
 />
    <glyph glyph-name="degree" unicode="&#xb0;" horiz-adv-x="354" 
d="M165 360q-65 0 -110.5 45.5t-45.5 110.5t45.5 110.5t110.5 45.5q64 0 110 -45.5t46 -110.5t-46 -110.5t-110 -45.5zM165 602q-36 0 -61 -25t-25 -61t25 -61t61 -25q35 0 60.5 25t25.5 61t-25.5 61t-60.5 25z" />
    <glyph glyph-name="cent" unicode="&#xa2;" horiz-adv-x="394" 
d="M327 262q2 0 4 -3l29 -27v-103q-4 -1 -10 -3q-35 -11 -73 -49h-47v-53h-43l-20 25h-2v28h-12q-34 50 -95 54l-25 35l-1 143q0 15 -10 26.5t-20 21.5q27 12 27 44v130q60 3 93 55h41l-1 47h36q9 -11 24 -28v-19h10q5 -19 26 -19q22 0 30 20h35l35 -35l1 -178h-46l-32 32h2
q-3 10 -9.5 27.5t-13.5 26.5q-14 14 -37 16l-16 1q0 36 -1 40h-1q-22 1 -22 -18l-1 -129q0 -21 36 -43q-36 -16 -35 -33q-1 -26 -1 -80q2 -47 22 -63q6 -1 12 -1q42 0 59 45q3 6 3 70h49v-3zM324 571v-154l24 -23v154zM199 618v-32l15 1v14q-5 5 -15 17zM319 405l-23 1
l22 -20l23 -1zM204 528q-6 21 -27 21q-26 0 -26 -26v-125q0 -19 22 -36q-2 6 -2 12v126q0 28 33 28zM327 248v-86l22 -21v87zM176 353q-25 -13 -25 -38l1 -97q0 -36 29 -57q-9 17 -10 53v79q0 20 24 36q-11 9 -19 24zM322 151q-36 -9 -65 -37l19 -20q28 28 65 40zM243 111
h-39l21 -23h39zM218 82l-16 19v-40l16 -16v37zM165 111l-25 -1l23 -22h2v23zM196 52h-19l14 -16h23zM51 162l14 -20q13 -1 32 -9q-10 13 -46 29z" />
    <glyph glyph-name="sterling" unicode="&#xa3;" horiz-adv-x="504" 
d="M450 385v237l-39 37v-232zM441 376l-36 40h-32q10 -12 38 -40h30zM263 572q-6 34 -43 34q-19 0 -32.5 -11t-13.5 -30v-131q0 -38 46 -58q-6 27 0 154q2 40 43 42zM342 286v35l-34 41v-45zM190 82l57 125q17 37 17 71l75 -1l-36 32h-76q3 -17 3 -29q0 -9 -15 -63l-43 -73
q-11 -20 -1 -34q3 -18 19 -28zM74 273q-3 20 -3 33h-60l28 -33h35zM486 137v-184h-439l-44 47v151l66 110h-35l-38 44l1 1h-1v61h55q-21 58 -47 63l1 161q79 12 123 81h159q13 -31 39 -31q31 0 42 31h44l51 -43v-264h-59q-18 21 -52 56q-6 33 -14 44q-18 24 -71 39v57
q-32 -1 -32 -32v-64q1 -7 1 -92h74l43 -47v-60h-77q-1 -27 -18 -64l-57 -126q15 -6 33 -6q30 0 50.5 16.5t15.5 48.5q14 -2 23 -2q41 0 51 44l66 -1q-2 2 46 -39zM429 1l-409 -1l32 -35h414zM474 -25v157l-34 32v-157z" />
    <glyph glyph-name="section" unicode="&#xa7;" 
 />
    <glyph glyph-name="bullet" unicode="&#x2022;" horiz-adv-x="319" 
d="M4 320q0 57 40.5 97.5t97.5 40.5t97.5 -40.5t40.5 -97.5q0 -58 -40.5 -98.5t-97.5 -40.5t-97.5 40.5t-40.5 98.5z" />
    <glyph glyph-name="paragraph" unicode="&#xb6;" 
 />
    <glyph glyph-name="germandbls" unicode="&#xdf;" 
 />
    <glyph glyph-name="registered" unicode="&#xae;" horiz-adv-x="457" 
d="M182 322q-75 0 -128 54t-53 130q0 75 53 128t128 53t127.5 -53.5t52.5 -129.5q0 -75 -52.5 -128.5t-127.5 -53.5zM182 643q-58 1 -97 -39.5t-39 -99.5q0 -57 40.5 -98t95.5 -41t95 41t40 98t-40 97t-95 42zM187 600q11 4 32 -2q36 -11 36 -46q0 -45 -44 -54l49 -76h-45
l-49 75h-15v-75h-38v178h74zM188 568h-39v-29h44q25 0 25 18q0 11 -30 11z" />
    <glyph glyph-name="copyright" unicode="&#xa9;" horiz-adv-x="816" 
d="M366 -21q-149 0 -253 104.5t-104 254.5t104 255t253 105t253.5 -105t104.5 -255t-104.5 -254.5t-253.5 -104.5zM366 625q-116 0 -200.5 -84t-84.5 -203t84.5 -202.5t200.5 -83.5t200.5 83.5t84.5 202.5t-84.5 203t-200.5 84zM477 397q-23 81 -101 81q-60 0 -95 -39
t-35 -100q0 -55 31 -94q35 -43 97 -43q83 0 103 79h74q-17 -75 -63.5 -113.5t-112.5 -38.5q-92 0 -147 60t-55 152q0 89 56 150t147 61q65 0 112 -39q50 -42 63 -116h-74z" />
    <glyph glyph-name="trademark" unicode="&#x2122;" horiz-adv-x="520" 
d="M377 597l-56 -140h-27l-52 134v-134h-43v211h58l51 -129l52 129h59v-211h-42v140zM103 624v-167h-43v167h-66v44h173v-44h-64z" />
    <glyph glyph-name="acute" unicode="&#xb4;" horiz-adv-x="554" 
d="M170 727l199 106l34 -68l-222 -66z" />
    <glyph glyph-name="dieresis" unicode="&#xa8;" horiz-adv-x="345" 
d="M192 762q0 18 13 31t32 13t32 -13t13 -31q0 -19 -13 -32t-32 -13t-32 13t-13 32zM42 762q0 18 13 31t32 13t32 -13t13 -31q0 -19 -13 -32t-32 -13t-32 13t-13 32z" />
    <glyph glyph-name="AE" unicode="&#xc6;" horiz-adv-x="703" 
d="M675 28v-76l-344 1q-20 21 -49 50l-1 112h-103l-96 -162h-56l-28 49h-1v1l1 -1l170 294q8 15 8 25q0 11 -17 29q42 16 58 44l164 278h249q12 -8 44 -43l1 -60l-201 1v-190h79v1l45 -36v-65l-123 -1v-209h155v1zM666 625l-35 35v-34l34 -41zM660 576l-35 37l-180 1l33 -37
zM467 380l-1 197l-34 37l-1 -234h36zM591 337l-35 31v-44l35 -34v47zM581 286l-36 35h-104l36 -36zM668 -32v53l-35 34v-49zM468 280l-4 5l-31 30l1 -245h34v210zM281 388l-99 -173h29l69 123zM281 215v105l-59 -105h59zM661 -36l-35 36h-325l34 -38zM282 125v35h-130
l25 -35h105zM167 119l-23 33l-85 -150l22 -32zM71 -40l-25 39l-33 1l23 -41z" />
    <glyph glyph-name="Oslash" unicode="&#xd8;" horiz-adv-x="579" 
d="M338 0h-160q6 -6 29 -39h165zM459 72q-66 -8 -110 -66l34 -40q52 66 112 73zM533 307q-15 9 -19.5 20.5t-8.5 24.5l-1 175q-17 17 -36 39v-168q5 -15 11 -29q5 -10 25 -21q-30 -20 -34 -56q0 -7 -1 -96q-1 -94 0 -117l34 -33q0 76 -1 205q0 30 31 56zM261 367l35 68v150
q-35 4 -35 -24v-194zM214 276l34 67l1 218q0 25 21 31q4 1 26 1v7q0 25 -41 25q-40 0 -40 -26zM92 40l7 14q-19 9 -37 16l22 -28zM143 26l-1 -2q3 -1 6 -3zM248 230l-34 -67v-89q0 -29 34 -30v186zM297 323l-36 -68l-1 -210q37 8 37 31v247zM423 680h58l-45 -87q20 -8 34 -8
q12 -14 48 -55l-1 -176l10 -26q3 -5 28 -19q-40 -28 -40 -66q0 8 0 -55v-103v-56l-46 -12q-50 -20 -83 -68h-185q-31 45 -65 63l-32 -62h-58l39 77q-4 0 -8 1l-33 44q-1 1 -1 2l1 215q0 8 -3 15l-4 4l3 1q-9 22 -32 38q20 11 24 18q4 14 9 27l1 196q40 3 78 25q42 25 55 61
h168q8 -26 48 -55z" />
    <glyph glyph-name="plusminus" unicode="&#xb1;" 
 />
    <glyph glyph-name="yen" unicode="&#xa5;" horiz-adv-x="533" 
d="M71 205l13 -17h70v17h-83zM69 95l15 -17h70v17h-85zM154 69h-72l-26 26v43h98v41h-72l-24 26h-2v43h98v19q0 30 -20 54q-18 21 -36 23q6 0 13.5 11.5t7.5 26.5q0 9 -4 17l-115 273l180 1l60 -38l73 -185l91 222h65v0l45 -39l-117 -283q-3 -7 -3 -13q0 -13 25 -41
q-18 -5 -36 -9q-17 -8 -16 -39h76v0l30 -23v-54h-105v-33h75v-2q29 -16 29 -18v-54h-105l-1 -114l-160 1l-52 49v69zM500 627l-36 33l-109 -264q-4 -9 -4 -17q0 -14 21 -38q-19 -9 -34.5 -31t-13.5 -43v-19h30q-4 46 45 52q-17 21 -17 36q0 9 4 19zM306 434l-75 191l-46 32
l105 -265zM464 182v35q-8 6 -21 17v-29h-119v-67h30v43zM462 76v39l-19 11v-31h-119v-84l31 -37v101zM350 -38l-33 39h-150l43 -39h140z" />
    <glyph glyph-name="uni00B5" unicode="&#xb5;" horiz-adv-x="475" 
d="M461 -49l-358 -1l-56 50v119q-15 15 -47 51v71l48 38v20q-7 32 -35 49q24 18 29 44l1 281l169 -1l54 -51l1 -165l63 51l47 -42v-64l-110 -91v-234l149 1v-1l44 -53zM251 618q-11 11 -35 37v-240l35 28v175zM451 17l-35 42v-50l35 -41v49zM445 -39l-36 39h-348l42 -38z
M48 206l-36 -28l35 -36zM365 417v39l-33 32l-1 -43zM223 347l37 -25l101 83l-34 29zM254 311l-38 26v-261h39z" />
    <glyph glyph-name="uni00B5" unicode="&#x3bc;" horiz-adv-x="475" 
d="M461 -49l-358 -1l-56 50v119q-15 15 -47 51v71l48 38v20q-7 32 -35 49q24 18 29 44l1 281l169 -1l54 -51l1 -165l63 51l47 -42v-64l-110 -91v-234l149 1v-1l44 -53zM251 618q-11 11 -35 37v-240l35 28v175zM451 17l-35 42v-50l35 -41v49zM445 -39l-36 39h-348l42 -38z
M48 206l-36 -28l35 -36zM365 417v39l-33 32l-1 -43zM223 347l37 -25l101 83l-34 29zM254 311l-38 26v-261h39z" />
    <glyph glyph-name="ordfeminine" unicode="&#xaa;" horiz-adv-x="504" 
d="M493 626l-116 -277q-3 -8 -3 -16q0 -18 28 -38q-58 -19 -66 -67q0 -2 -45 -107l-24 -57h187l-1 -1l43 -43v-69l-451 -1l-45 51h4l107 270q4 57 -17 73q29 8 38 14q18 11 29 34l74 161l-157 1l-38 48v1v69h417v0zM52 602l33 -37h155l18 38zM254 64l71 166q8 49 52 69
q-15 15 -15 35q0 10 4 20l112 268l-26 38l-110 -264q-4 -10 -4 -18q0 -22 21 -37q-50 -17 -59 -68q0 -3 -88 -209h42zM444 1h-429l34 -38h429zM484 -26v40l-31 33l1 -39zM263 777l130 56l11 -28l-142 -106l-139 106l11 28z" />
    <glyph glyph-name="ordmasculine" unicode="&#xba;" horiz-adv-x="504" 
d="M493 626l-116 -277q-3 -8 -3 -16q0 -18 28 -38q-58 -19 -66 -67q0 -2 -45 -107l-24 -57h187l-1 -1l43 -43v-69l-451 -1l-45 51h4l107 270q4 57 -17 73q29 8 38 14q18 11 29 34l74 161l-157 1l-38 48v1v69h417v0zM52 602l33 -37h155l18 38zM254 64l71 166q8 49 52 69
q-15 15 -15 35q0 10 4 20l112 268l-26 38l-110 -264q-4 -10 -4 -18q0 -22 21 -37q-50 -17 -59 -68q0 -3 -88 -209h42zM444 1h-429l34 -38h429zM484 -26v40l-31 33l1 -39zM263 777l130 56l11 -28l-142 -106l-139 106l11 28z" />
    <glyph glyph-name="ae" unicode="&#xe6;" horiz-adv-x="703" 
d="M675 28v-76l-344 1q-20 21 -49 50l-1 112h-103l-96 -162h-56l-28 49h-1v1l1 -1l170 294q8 15 8 25q0 11 -17 29q42 16 58 44l164 278h249q12 -8 44 -43l1 -60l-201 1v-190h79v1l45 -36v-65l-123 -1v-209h155v1zM666 625l-35 35v-34l34 -41zM660 576l-35 37l-180 1l33 -37
zM467 380l-1 197l-34 37l-1 -234h36zM591 337l-35 31v-44l35 -34v47zM581 286l-36 35h-104l36 -36zM668 -32v53l-35 34v-49zM468 280l-4 5l-31 30l1 -245h34v210zM281 388l-99 -173h29l69 123zM281 215v105l-59 -105h59zM661 -36l-35 36h-325l34 -38zM282 125v35h-130
l25 -35h105zM167 119l-23 33l-85 -150l22 -32zM71 -40l-25 39l-33 1l23 -41z" />
    <glyph glyph-name="oslash" unicode="&#xf8;" horiz-adv-x="579" 
d="M338 0h-160q6 -6 29 -39h165zM459 72q-66 -8 -110 -66l34 -40q52 66 112 73zM533 307q-15 9 -19.5 20.5t-8.5 24.5l-1 175q-17 17 -36 39v-168q5 -15 11 -29q5 -10 25 -21q-30 -20 -34 -56q0 -7 -1 -96q-1 -94 0 -117l34 -33q0 76 -1 205q0 30 31 56zM261 367l35 68v150
q-35 4 -35 -24v-194zM214 276l34 67l1 218q0 25 21 31q4 1 26 1v7q0 25 -41 25q-40 0 -40 -26zM92 40l7 14q-19 9 -37 16l22 -28zM143 26l-1 -2q3 -1 6 -3zM248 230l-34 -67v-89q0 -29 34 -30v186zM297 323l-36 -68l-1 -210q37 8 37 31v247zM423 680h58l-45 -87q20 -8 34 -8
q12 -14 48 -55l-1 -176l10 -26q3 -5 28 -19q-40 -28 -40 -66q0 8 0 -55v-103v-56l-46 -12q-50 -20 -83 -68h-185q-31 45 -65 63l-32 -62h-58l39 77q-4 0 -8 1l-33 44q-1 1 -1 2l1 215q0 8 -3 15l-4 4l3 1q-9 22 -32 38q20 11 24 18q4 14 9 27l1 196q40 3 78 25q42 25 55 61
h168q8 -26 48 -55z" />
    <glyph glyph-name="questiondown" unicode="&#xbf;" horiz-adv-x="495" 
d="M330 525l46 -43l1 -165h-184l-37 49v159h174zM331 363h-157l28 -33l163 -1v150l-35 31zM137 -142q-1 11 -34 35q-21 14 -42 27l15 -38l32 -16q26 -12 29 -8zM410 46v-120q-30 -3 -59 -25.5t-42 -50.5l-156 -1q12 -11 30 -33h162q32 64 99 76v59q-1 35 -1 65zM278 280
q7 -130 9 -130q-89 -10 -89 -84l1 -110q0 -30 34 -41q-6 22 -4 58q3 60 3 53q-1 76 87 89q-5 40 -10 141zM219 294l57 1l45 -33l12 -156q-89 -11 -89 -77l1 -110v-4q24 -3 42.5 9t18.5 38v100h103q0 12 1 -2l45 -40l1 -139q-72 -9 -103 -77h-178q-8 22 -47 41q-31 13 -61 25
l-22 52q-2 1 -4 3h7q-1 0 -3 1v192q53 0 110.5 56t63.5 120z" />
    <glyph glyph-name="exclamdown" unicode="&#xa1;" horiz-adv-x="319" 
d="M258 478v-154l-165 -2q-1 0 -49 48h-4v0v153l163 1zM246 469l-42 39l-1 -138l-140 -2l39 -33l144 1v133zM66 -200l-40 40q32 75 40 259q3 67 -15 107q34 30 36 106h77l-2 7q0 -1 2 -9l55 -32q2 -14 10 -50q12 -46 28 -60q-19 -43 -16 -108q7 -167 42 -260h-217zM266 -188
q-31 92 -37 247q-3 63 14 106q-21 23 -34 101l-39 26q9 -36 13 -48q10 -32 17 -38q-18 -40 -15 -107q7 -168 39 -253h-183l37 -34h188z" />
    <glyph glyph-name="logicalnot" unicode="&#xac;" 
 />
    <glyph glyph-name="florin" unicode="&#x192;" horiz-adv-x="558" 
d="M384 377q-113 0 -147 1q3 -5 1 -26q-2 -32 -2 -34q0 -12 4 -15l31 1v43h151zM392 416v-30l38 -31l-2 23zM522 471v66l-37 40v-60zM515 459l-39 50q-16 -2 -27 -3l38 -47h28zM413 561q-11 17 -32 31q-24 14 -26 17q-58 4 -92 -19q-26 -19 -26 -42l-1 -113h35v93
q0 15 24.5 30t59.5 15q29 0 58 -12zM430 223v37l-38 28v-36zM522 38q3 0 0 75q-35 29 -35 32v-75q0 -2 16.5 -17t18.5 -15zM421 214l-41 32l-145 1l1 -98q0 -61 53 -91q-18 29 -19 85q0 19 1 71h150zM512 30l-30 27q-53 -13 -97 -56l31 -32q47 46 96 61zM406 -39l-35 39
l-152 -1l34 -38h153zM178 21q-22 24 -86 49l22 -28q32 -4 64 -21zM17 247q11 -17 24 -38h28v38h-52zM64 324h-30q-4 2 -9 4q-7 10 -18 32q-4 8 -10 19v0v56h69v159q84 4 133 79l176 2q11 -66 109 -83l2 1l48 -51v-95h-52l-48 59q-4 1 -4 2q-2 18 -7 33q-36 16 -70 16
q-29 0 -48 -10.5t-19 -21.5v-90h103v1l1 -1h2v-2l48 -48v-50h-157v-31l101 1v1l2 -1h6v-4l52 -38l-1 -63h-160q-1 -43 0 -58q2 -70 29 -92q9 -1 18 -1q63 0 88 66q4 10 4 49h64l1 -2l46 -44v-94q-3 -1 -11 -4q-52 -15 -105 -70l-169 -2q-49 73 -141 80l-37 47l-1 122h-35
q-11 18 -33 50h-4v5v0v0v53l67 -2v21zM14 378q12 -18 27 -42h23v42h-50z" />
    <glyph glyph-name="guillemotleft" unicode="&#xab;" horiz-adv-x="400" 
d="M309 124l53 -47l-55 220l19 101q6 29 17 99q-3 8 -32 34l-49 -203zM354 70l-43 37l-24 -2q18 -16 38 -35h29zM372 56l-1 -1l-1 1h-48l-50 47l-1 4l-100 220l108 220l32 1q7 -7 49 -51q-3 -12 -8 -33q-11 -54 -33 -166l64 -242h-11zM139 124l53 -47l-55 220l19 101
q6 29 17 99q-3 8 -32 34l-49 -203zM184 70l-43 37l-24 -2q18 -16 38 -35h29zM202 56l-1 -1l-1 1h-48l-50 47l-1 4l-100 220l108 220l32 1q7 -7 49 -51q-3 -12 -8 -33q-11 -54 -33 -166l64 -242h-11z" />
    <glyph glyph-name="guillemotright" unicode="&#xbb;" horiz-adv-x="394" 
d="M171 108q-2 0 -2 1q-2 2 57 219l-57 219q3 0 19 1h21l52 -28l100 -206l-112 -240h-48zM311 328l-100 -222q-15 0 -27 1l20 -23h36l107 230l-95 198l-38 20zM11 108q-2 0 -2 1q-2 2 57 219l-57 219q3 0 19 1h21l52 -28l100 -206l-112 -240h-48zM151 328l-100 -222
q-15 0 -27 1l20 -23h36l107 230l-95 198l-38 20z" />
    <glyph glyph-name="ellipsis" unicode="&#x2026;" horiz-adv-x="1012" 
d="M551 169v-165h-156l34 -41h156v166zM383 4v180l168 1v-1l48 -51v-183l-176 1zM892 168l-1 -164h-156l34 -41h156v166zM723 4v180l168 1v-1l48 -51v-183l-176 1zM212 168l-1 -164h-156l34 -41h156v166zM43 4v180l168 1v-1l48 -51v-177l-176 -5z" />
    <glyph glyph-name="uni00A0" unicode="&#xa0;" horiz-adv-x="173" 
 />
    <glyph glyph-name="Agrave" unicode="&#xc0;" horiz-adv-x="525" 
d="M270 663l83 -272q1 -9 13.5 -18t24.5 -16l-78 263zM293 -1l-35 116h-108l-48 -165l-53 1l-41 48v0v1v-1l89 294q1 7 1 14q0 18 -26 40q38 16 46 44l80 282h72l48 -44l85 -278q0 -2 1 -4l2 -1l-1 -1q4 -10 21 -22q11 -9 23 -18q-21 -18 -21 -47v-4v-2l83 -302h-174z
M198 320l-29 -105h60zM158 215l35 123l-14 48l-50 -171h29zM491 -41l-37 40h-147l38 -39zM457 11l37 -37l-76 277v7q0 30 16 47q-14 9 -36 32q-20 -17 -20 -34q0 -4 3 -12zM90 -40l-36 39l-33 1l34 -41zM141 119l-32 33l-43 -150l31 -32zM115 160l35 -35h105l-11 35h-129z
M354 727l-199 106l-35 -68l223 -66z" />
    <glyph glyph-name="Atilde" unicode="&#xc3;" horiz-adv-x="525" 
d="M270 663l83 -272q1 -9 13.5 -18t24.5 -16l-78 263zM293 -1l-35 116h-108l-48 -165l-53 1l-41 48v0v1v-1l89 294q1 7 1 14q0 18 -26 40q38 16 46 44l80 282h72l48 -44l85 -278q0 -2 1 -4l2 -1l-1 -1q4 -10 21 -22q11 -9 23 -18q-21 -18 -21 -47v-4v-2l83 -302h-174z
M198 320l-29 -105h60zM158 215l35 123l-14 48l-50 -171h29zM491 -41l-37 40h-147l38 -39zM457 11l37 -37l-76 277v7q0 30 16 47q-14 9 -36 32q-20 -17 -20 -34q0 -4 3 -12zM90 -40l-36 39l-33 1l34 -41zM141 119l-32 33l-43 -150l31 -32zM115 160l35 -35h105l-11 35h-129z
M196 744q-27 2 -36.5 -1.5t-29.5 -23.5l-12 10q1 25 36 46q30 18 52 18q20 0 42 -12t42 -12q34 0 32 0q18 4 37 26q2 3 8.5 -4t5.5 -10q-8 -28 -37 -47q-25 -17 -48 -17q-22 0 -47 12.5t-45 14.5z" />
    <glyph glyph-name="Otilde" unicode="&#xd5;" horiz-adv-x="571" 
d="M555 309q-40 -28 -40 -66q0 8 0 -55v-103v-56l-46 -12q-50 -20 -83 -68h-185q-50 73 -124 79l-33 44q-1 1 -1 2l1 215q0 8 -3 15l-4 4l3 1q-9 22 -32 38q20 11 24 18q4 14 9 27l1 196q40 3 78 25q42 25 55 61h168q8 -28 52.5 -58t74.5 -31q12 -14 46 -51l1 -180l10 -26
q3 -5 28 -19zM338 0h-160q6 -6 29 -39h165zM459 72q-66 -8 -110 -66l34 -40q52 66 112 73zM533 307q-15 9 -19.5 20.5t-8.5 24.5l-1 175q-17 17 -36 39v-168q5 -15 11 -29q5 -10 25 -21q-30 -20 -34 -56q0 -7 -1 -96q-1 -94 0 -117l34 -33q0 14 -1 205q-1 29 31 56zM296 585
q-35 4 -35 -24v-210q0 -26 29 -46q-29 -9 -29 -43l1 -220q30 6 30 33l1 224q0 31 -24 44q27 14 27 49v193zM296 600q0 25 -41 25q-40 0 -40 -26l-1 -208q0 -32 29 -48q-28 -10 -29 -46v-223q0 -29 34 -30v216q0 33 21 46q-21 14 -21 46l1 209q0 25 21 31q4 1 26 1v7zM148 21
q-22 24 -86 49l22 -28q32 -4 64 -21zM206 744q-27 2 -36.5 -1.5t-29.5 -23.5l-12 10q1 25 36 46q30 18 52 18q20 0 42 -12t42 -12q34 0 32 0q18 4 37 26q2 3 8.5 -4t5.5 -10q-8 -28 -37 -47q-25 -17 -48 -17q-22 0 -47 12.5t-45 14.5z" />
    <glyph glyph-name="OE" unicode="&#x152;" horiz-adv-x="733" 
d="M706 -50l-505 -1q-50 73 -124 79l-33 44q-1 1 -1 2l1 215q0 34 -36 58q20 11 24 18q4 14 9 27l1 196q41 3 78 25q43 24 56 60q-12 0 88 0h195q-320 0 203 0h-1l43 -42l1 -65l-198 1l1 -191l78 1v1l45 -36v-66h-123v-209h155v1l44 -43zM695 585v39l-34 36l1 -41zM690 576
l-35 35l-181 1l34 -35zM496 574l-34 40l1 -238h34zM621 337l-35 31v-44l35 -34v47zM611 286l-36 35h-104l33 -33l-2 -2h109zM697 22l-34 33v-49l34 -35v51zM497 281l-34 34l-1 -248h36zM294 585q-33 4 -33 -24v-210q0 -26 29 -46q-29 -9 -29 -43l1 -220q30 6 30 33l1 224
q0 31 -24 44q18 10 25 33v209zM294 593v15q-9 17 -39 17q-40 0 -40 -26l-1 -208q0 -32 29 -48q-28 -10 -29 -46v-223q0 -29 34 -30v216q0 33 21 46q-21 14 -21 46l1 209q0 35 45 32zM176 1q9 -9 31 -40h487l-40 39zM148 21q-22 24 -86 49l21 -30q36 -3 65 -19z" />
    <glyph glyph-name="oe" unicode="&#x153;" horiz-adv-x="733" 
d="M706 -50l-505 -1q-50 73 -124 79l-33 44q-1 1 -1 2l1 215q0 34 -36 58q20 11 24 18q4 14 9 27l1 196q41 3 78 25q43 24 56 60q-12 0 88 0h195q-320 0 203 0h-1l43 -42l1 -65l-198 1l1 -191l78 1v1l45 -36v-66h-123v-209h155v1l44 -43zM695 585v39l-34 36l1 -41zM690 576
l-35 35l-181 1l34 -35zM496 574l-34 40l1 -238h34zM621 337l-35 31v-44l35 -34v47zM611 286l-36 35h-104l33 -33l-2 -2h109zM697 22l-34 33v-49l34 -35v51zM497 281l-34 34l-1 -248h36zM294 585q-33 4 -33 -24v-210q0 -26 29 -46q-29 -9 -29 -43l1 -220q30 6 30 33l1 224
q0 31 -24 44q18 10 25 33v209zM294 593v15q-9 17 -39 17q-40 0 -40 -26l-1 -208q0 -32 29 -48q-28 -10 -29 -46v-223q0 -29 34 -30v216q0 33 21 46q-21 14 -21 46l1 209q0 35 45 32zM176 1q9 -9 31 -40h487l-40 39zM148 21q-22 24 -86 49l21 -30q36 -3 65 -19z" />
    <glyph glyph-name="endash" unicode="&#x2013;" horiz-adv-x="625" 
d="M5 216l-1 180h549v0l47 -54l1 -178l-556 -2zM587 182l-5 -5l-34 40l-532 -1l35 -41h536v7zM551 231l36 -42v152l-34 41z" />
    <glyph glyph-name="emdash" unicode="&#x2014;" horiz-adv-x="1147" 
d="M5 216l-1 180h1079v0l47 -54v-178l-1085 -2zM1117 182l-5 -5l-34 40l-1062 -1l35 -41h1066v7zM1081 231l36 -42v152l-34 41z" />
    <glyph glyph-name="quotedblleft" unicode="&#x201c;" horiz-adv-x="495" 
d="M456 335l-179 1l-33 44h-1v168l173 130l37 -33v-62l-47 -38h10l41 -40zM256 380l24 -30h162v151l-25 29v-150h-161zM442 589v52l-25 23v-56l-85 -62l58 -1zM214 338l-177 -2l-33 44h-1v168l173 130q0 4 37 -33v-62l-47 -38h10l39 -40zM16 380l24 -30h162v151l-25 29v-150
h-161zM202 589v52l-25 23v-56l-85 -62l58 -1z" />
    <glyph glyph-name="quotedblright" unicode="&#x201d;" horiz-adv-x="513" 
d="M471 471l-172 -138l-47 40v72q-1 -1 34 29q-15 15 -33 32l-1 167l177 1l42 -45v-158zM221 471l-174 -139l-45 41v72q-1 -1 34 29q-15 15 -33 32l-1 167l177 1l42 -45v-158zM459 477v148l-33 32l-1 -153q-19 -14 -161 -124l34 -31zM327 507h-60l28 -26zM209 477v148
l-33 32l-1 -153q-19 -14 -161 -124l34 -31zM77 507h-60l28 -26z" />
    <glyph glyph-name="quoteleft" unicode="&#x2018;" horiz-adv-x="246" 
d="M214 338l-177 -2l-33 44h-1v168l173 130q0 4 37 -33v-62l-47 -38h10l39 -40zM16 380l24 -30h162v151l-25 29v-150h-161zM202 589v52l-25 23v-56l-85 -62l58 -1z" />
    <glyph glyph-name="quoteright" unicode="&#x2019;" horiz-adv-x="262" 
d="M221 471l-174 -139l-45 41v72q-1 -1 34 29q-15 15 -33 32l-1 167l177 1l42 -45v-158zM209 477v148l-33 32l-1 -153q-19 -14 -161 -124l34 -31zM77 507h-60l28 -26z" />
    <glyph glyph-name="divide" unicode="&#xf7;" 
 />
    <glyph glyph-name="ydieresis" unicode="&#xff;" horiz-adv-x="525" 
d="M514 633l-117 -283q-3 -7 -3 -13q0 -13 25 -41q-56 -27 -52 -71v-137v-138h-177l-36 50v267q0 30 -20 54q-18 21 -36 23q6 0 13.5 11.5t7.5 26.5q0 9 -4 17l-115 273h180l60 -37l73 -185l91 222h65v0zM306 434l-75 190l-46 32l105 -264zM317 1h-150l30 -38l151 1z
M500 627l-36 33l-109 -264q-4 -9 -4 -17q0 -14 21 -38q-19 -9 -34.5 -31t-13.5 -43v-256l31 -37v250q-2 21 12 42.5t32 33.5q-17 21 -17 36q0 9 4 19zM282 762q0 18 13 31t32 13t32 -13t13 -31q0 -19 -13 -32t-32 -13t-32 13t-13 32zM132 762q0 18 13 31t32 13t32 -13
t13 -31q0 -19 -13 -32t-32 -13t-32 13t-13 32z" />
    <glyph glyph-name="Ydieresis" unicode="&#x178;" horiz-adv-x="525" 
d="M514 633l-117 -283q-3 -7 -3 -13q0 -13 25 -41q-56 -27 -52 -71v-137v-138h-177l-36 50v267q0 30 -20 54q-18 21 -36 23q6 0 13.5 11.5t7.5 26.5q0 9 -4 17l-115 273h180l60 -37l73 -185l91 222h65v0zM306 434l-75 190l-46 32l105 -264zM317 1h-150l30 -38l151 1z
M500 627l-36 33l-109 -264q-4 -9 -4 -17q0 -14 21 -38q-19 -9 -34.5 -31t-13.5 -43v-256l31 -37v250q-2 21 12 42.5t32 33.5q-17 21 -17 36q0 9 4 19zM282 762q0 18 13 31t32 13t32 -13t13 -31q0 -19 -13 -32t-32 -13t-32 13t-13 32zM132 762q0 18 13 31t32 13t32 -13
t13 -31q0 -19 -13 -32t-32 -13t-32 13t-13 32z" />
    <glyph glyph-name="currency" unicode="&#xa4;" 
 />
    <glyph glyph-name="guilsinglleft" unicode="&#x2039;" horiz-adv-x="236" 
d="M139 124l53 -47l-55 220l19 101q6 29 17 99q-3 8 -32 34l-49 -203zM184 70l-43 37l-24 -2q18 -16 38 -35h29zM202 56l-1 -1l-1 1h-48l-50 47l-1 4l-100 220l108 220l32 1q7 -7 49 -51q-3 -12 -8 -33q-11 -54 -33 -166l64 -242h-11z" />
    <glyph glyph-name="guilsinglright" unicode="&#x203a;" horiz-adv-x="236" 
d="M11 108q-2 0 -2 1q-2 2 57 219l-57 219q3 0 19 1h21l52 -28l100 -206l-112 -240h-48zM151 328l-100 -222q-15 0 -27 1l20 -23h36l107 230l-95 198l-38 20z" />
    <glyph glyph-name="daggerdbl" unicode="&#x2021;" 
 />
    <glyph glyph-name="periodcentered" unicode="&#xb7;" horiz-adv-x="288" 
d="M200 473v-162l-156 -2l34 -40h156v165zM32 309v180l169 1v-1l45 -52v-180h-171z" />
    <glyph glyph-name="periodcentered" unicode="&#x2219;" horiz-adv-x="288" 
d="M200 473v-162l-156 -2l34 -40h156v165zM32 309v180l169 1v-1l45 -52v-180h-171z" />
    <glyph glyph-name="quotesinglbase" unicode="&#x201a;" horiz-adv-x="262" 
d="M221 11l-174 -139l-45 41v72q-1 -1 34 29q-15 15 -33 32l-1 167l177 1l42 -45v-158zM209 17v148l-33 32l-1 -153q-19 -14 -161 -124l34 -31zM77 47h-60l28 -26z" />
    <glyph glyph-name="quotedblbase" unicode="&#x201e;" horiz-adv-x="496" 
d="M471 11l-174 -139l-45 41v72q-1 -1 34 29q-15 15 -33 32l-1 167l177 1l42 -45v-158zM221 11l-174 -139l-45 41v72q-1 -1 34 29q-15 15 -33 32l-1 167l177 1l42 -45v-158zM459 17v148l-33 32l-1 -153q-19 -14 -161 -124l34 -31zM327 47h-60l28 -26zM209 17v148l-33 32
l-1 -153q-19 -14 -161 -124l34 -31zM77 47h-60l28 -26z" />
    <glyph glyph-name="perthousand" unicode="&#x2030;" 
 />
    <glyph glyph-name="Acircumflex" unicode="&#xc2;" horiz-adv-x="525" 
d="M270 663l83 -272q1 -9 13.5 -18t24.5 -16l-78 263zM293 -1l-35 116h-108l-48 -165l-53 1l-41 48v0v1v-1l89 294q1 7 1 14q0 18 -26 40q38 16 46 44l80 282h72l48 -44l85 -278q0 -2 1 -4l2 -1l-1 -1q4 -10 21 -22q11 -9 23 -18q-21 -18 -21 -47v-4v-2l83 -302h-174z
M198 320l-29 -105h60zM158 215l35 123l-14 48l-50 -171h29zM491 -41l-37 40h-147l38 -39zM457 11l37 -37l-76 277v7q0 30 16 47q-14 9 -36 32q-20 -17 -20 -34q0 -4 3 -12zM90 -40l-36 39l-33 1l34 -41zM141 119l-32 33l-43 -150l31 -32zM115 160l35 -35h105l-11 35h-129z
M233 755l-129 -56l-11 28l142 106l139 -106l-11 -28z" />
    <glyph glyph-name="Ecircumflex" unicode="&#xca;" horiz-adv-x="467" 
d="M402 619l33 -34v39l-34 36zM237 573l-35 41l1 -238h34v197zM214 612l34 -35l182 -1l-35 35zM203 315l-1 -248h36l-1 214zM351 286l-36 35h-104l33 -33l-2 -2h109zM326 324l35 -34v47l-35 31v-44zM434 -39l-40 39h-338l45 -40zM446 -50h-354l-53 51l-1 287q0 35 -37 60
q25 11 33 53v271l368 1h-1l43 -42l1 -65l-196 -1l-1 -189l78 1v1l45 -36v-66h-123v-209h155v1l43 -43v-75zM403 6l34 -35v51l-34 33v-49zM223 755l-129 -56l-11 28l142 106l139 -106l-11 -28z" />
    <glyph glyph-name="Aacute" unicode="&#xc1;" horiz-adv-x="525" 
d="M270 663l83 -272q1 -9 13.5 -18t24.5 -16l-78 263zM293 -1l-35 116h-108l-48 -165l-53 1l-41 48v0v1v-1l89 294q1 7 1 14q0 18 -26 40q38 16 46 44l80 282h72l48 -44l85 -278q0 -2 1 -4l2 -1l-1 -1q4 -10 21 -22q11 -9 23 -18q-21 -18 -21 -47v-4v-2l83 -302h-174z
M198 320l-29 -105h60zM158 215l35 123l-14 48l-50 -171h29zM491 -41l-37 40h-147l38 -39zM457 11l37 -37l-76 277v7q0 30 16 47q-14 9 -36 32q-20 -17 -20 -34q0 -4 3 -12zM90 -40l-36 39l-33 1l34 -41zM141 119l-32 33l-43 -150l31 -32zM115 160l35 -35h105l-11 35h-129z
M120 727l199 106l34 -68l-222 -66z" />
    <glyph glyph-name="Edieresis" unicode="&#xcb;" horiz-adv-x="467" 
d="M402 619l33 -34v39l-34 36zM237 573l-35 41l1 -238h34v197zM214 612l34 -35l182 -1l-35 35zM203 315l-1 -248h36l-1 214zM351 286l-36 35h-104l33 -33l-2 -2h109zM326 324l35 -34v47l-35 31v-44zM433 -41l-39 41h-338l45 -40zM446 -50h-354l-53 51l-1 287q0 35 -37 60
q25 11 33 53v271l368 1h-1l43 -42l1 -65l-196 -1l-1 -189l78 1v1l45 -36v-66h-123v-209h155v1l43 -43v-75zM403 6l34 -35v51l-34 33v-49zM252 762q0 18 13 31t32 13t32 -13t13 -31q0 -19 -13 -32t-32 -13t-32 13t-13 32zM92 762q0 18 13 31t32 13t32 -13t13 -31
q0 -19 -13 -32t-32 -13t-32 13t-13 32z" />
    <glyph glyph-name="Egrave" unicode="&#xc8;" horiz-adv-x="467" 
d="M402 619l33 -34v39l-34 36zM237 573l-35 41l1 -238h34v197zM214 612l34 -35l182 -1l-35 35zM203 315l-1 -248h36l-1 214zM351 286l-36 35h-104l33 -33l-2 -2h109zM326 324l35 -34v47l-35 31v-44zM434 -39l-40 39h-338l45 -40zM446 -50h-354l-53 51l-1 287q0 35 -37 60
q25 11 33 53v271l368 1h-1l43 -42l1 -64h-198l1 -191l78 1v1l45 -36v-66h-123v-209h155v1l43 -43v-75zM403 6l34 -35v51l-34 33v-49zM344 727l-199 106l-35 -68l223 -66z" />
    <glyph glyph-name="Iacute" unicode="&#xcd;" horiz-adv-x="296" 
d="M35 -1v290q-4 25 -8 33q-7 14 -27 22q37 19 37 51l1 278l160 -1v0l45 -45v-268q-5 -39 41 -56q-29 -11 -36 -37q-4 -13 -4 -68q-1 -76 1 -247h-163zM233 345q-1 5 0 10v265l-36 40l1 -265q-5 -34 35 -50zM191 0l-141 -1l36 -36h142zM260 303q-24 14 -27 41
q-29 -9 -32 -40v-33q-3 -2 0 -265l32 -34q1 136 1 226q0 63 1 73q4 23 25 32zM0 727l199 106l34 -68l-222 -66z" />
    <glyph glyph-name="Icircumflex" unicode="&#xce;" horiz-adv-x="296" 
d="M35 -1v290q-4 25 -8 33q-7 14 -27 22q37 19 37 51l1 278l160 -1v0l45 -45v-268q-5 -39 41 -56q-29 -11 -36 -37q-4 -13 -4 -68q-1 -76 1 -247h-163zM233 345q-1 5 0 10v265l-36 40l1 -265q-5 -34 35 -50zM191 0l-141 -1l36 -36h142zM260 303q-24 14 -27 41
q-29 -9 -32 -40v-33q-3 -2 0 -265l32 -34q1 136 1 226q0 63 1 73q4 23 25 32zM133 755l-129 -56l-11 28l142 106l139 -106l-11 -28z" />
    <glyph glyph-name="Idieresis" unicode="&#xcf;" horiz-adv-x="296" 
d="M35 -1v290q-4 25 -8 33q-7 14 -27 22q37 19 37 51l1 278l160 -1v0l45 -45v-268q-5 -39 41 -56q-29 -11 -36 -37q-4 -13 -4 -68q-1 -76 1 -247h-163zM233 345q-1 5 0 10v265l-36 40l1 -265q-5 -34 35 -50zM191 0l-141 -1l36 -36h142zM260 303q-24 14 -27 41
q-29 -9 -32 -40v-33q-3 -2 0 -265l32 -34q1 136 1 226q0 63 1 73q4 23 25 32zM152 762q0 18 13 31t32 13t32 -13t13 -31q0 -19 -13 -32t-32 -13t-32 13t-13 32zM2 762q0 18 13 31t32 13t32 -13t13 -31q0 -19 -13 -32t-32 -13t-32 13t-13 32z" />
    <glyph glyph-name="Igrave" unicode="&#xcc;" horiz-adv-x="296" 
d="M35 -1v290q-4 25 -8 33q-7 14 -27 22q37 19 37 51l1 278l160 -1v0l45 -45v-268q-5 -39 41 -56q-29 -11 -36 -37q-4 -13 -4 -68q-1 -76 1 -247h-163zM233 345q-1 5 0 10v265l-36 40l1 -265q-5 -34 35 -50zM191 0l-141 -1l36 -36h142zM260 303q-24 14 -27 41
q-29 -9 -32 -40v-33q-3 -2 0 -265l32 -34q1 136 1 226q0 63 1 73q4 23 25 32zM244 727l-199 106l-35 -68l223 -66z" />
    <glyph glyph-name="Oacute" unicode="&#xd3;" horiz-adv-x="571" 
d="M555 309q-40 -28 -40 -66q0 8 0 -55v-103v-56l-46 -12q-50 -20 -83 -68h-185q-50 73 -124 79l-33 44q-1 1 -1 2l1 215q0 8 -3 15l-4 4l3 1q-9 22 -32 38q20 11 24 18q4 14 9 27l1 196q40 3 78 25q42 25 55 61h168q8 -28 52.5 -58t74.5 -31q12 -14 46 -51l1 -180l10 -26
q3 -5 28 -19zM338 0h-160q6 -6 29 -39h165zM459 72q-66 -8 -110 -66l34 -40q52 66 112 73zM533 307q-15 9 -19.5 20.5t-8.5 24.5l-1 175q-17 17 -36 39v-168q5 -15 11 -29q5 -10 25 -21q-30 -20 -34 -56q0 -7 -1 -96q-1 -94 0 -117l34 -33q0 14 -1 205q-1 29 31 56zM296 585
q-35 4 -35 -24v-210q0 -26 29 -46q-29 -9 -29 -43l1 -220q30 6 30 33l1 224q0 31 -24 44q27 14 27 49v193zM296 600q0 25 -41 25q-40 0 -40 -26l-1 -208q0 -32 29 -48q-28 -10 -29 -46v-223q0 -29 34 -30v216q0 33 21 46q-21 14 -21 46l1 209q0 25 21 31q4 1 26 1v7zM148 21
q-22 24 -86 49l22 -28q32 -4 64 -21zM140 727l199 106l34 -68l-222 -66z" />
    <glyph glyph-name="Ocircumflex" unicode="&#xd4;" horiz-adv-x="571" 
d="M555 309q-40 -28 -40 -66q0 8 0 -55v-103v-56l-46 -12q-50 -20 -83 -68h-185q-50 73 -124 79l-33 44q-1 1 -1 2l1 215q0 8 -3 15l-4 4l3 1q-9 22 -32 38q20 11 24 18q4 14 9 27l1 196q40 3 78 25q42 25 55 61h168q8 -28 52.5 -58t74.5 -31q12 -14 48 -52l-1 -179l10 -26
q3 -5 28 -19zM338 0h-160q6 -6 29 -39h165zM459 72q-66 -8 -110 -66l34 -40q52 66 112 73zM533 307q-15 9 -19.5 20.5t-8.5 24.5l-1 175q-17 17 -36 39v-168q5 -15 11 -29q5 -10 25 -21q-30 -20 -34 -56q0 -7 -1 -96q-1 -94 0 -117l34 -33q0 14 -1 205q-1 29 31 56zM296 585
q-35 4 -35 -24v-210q0 -26 29 -46q-29 -9 -29 -43l1 -220q30 6 30 33l1 224q0 31 -24 44q27 14 27 49v193zM296 600q0 25 -41 25q-40 0 -40 -26l-1 -208q0 -32 29 -48q-28 -10 -29 -46v-223q0 -29 34 -30v216q0 33 21 46q-21 14 -21 46l1 209q0 25 21 31q4 1 26 1v7zM148 21
q-22 24 -86 49l22 -28q32 -4 64 -21zM253 755l-129 -56l-11 28l142 106l139 -106l-11 -28z" />
    <glyph glyph-name="Ograve" unicode="&#xd2;" horiz-adv-x="571" 
d="M555 309q-40 -28 -40 -66q0 8 0 -55v-103v-56l-46 -12q-50 -20 -83 -68h-185q-50 73 -124 79l-33 44q-1 1 -1 2l1 215q0 8 -3 15l-4 4l3 1q-9 22 -32 38q20 11 24 18q4 14 9 27l1 196q40 3 78 25q42 25 55 61h168q8 -28 52.5 -58t74.5 -31q12 -14 46 -51l1 -180l10 -26
q3 -5 28 -19zM338 0h-160q6 -6 29 -39h165zM459 72q-66 -8 -110 -66l34 -40q52 66 112 73zM533 307q-15 9 -19.5 20.5t-8.5 24.5l-1 175q-17 17 -36 39v-168q5 -15 11 -29q5 -10 25 -21q-30 -20 -34 -56q0 -7 -1 -96q-1 -94 0 -117l34 -33q0 14 -1 205q-1 29 31 56zM296 585
q-35 4 -35 -24v-210q0 -26 29 -46q-29 -9 -29 -43l1 -220q30 6 30 33l1 224q0 31 -24 44q27 14 27 49v193zM296 600q0 25 -41 25q-40 0 -40 -26l-1 -208q0 -32 29 -48q-28 -10 -29 -46v-223q0 -29 34 -30v216q0 33 21 46q-21 14 -21 46l1 209q0 25 21 31q4 1 26 1v7zM148 21
q-22 24 -86 49l22 -28q32 -4 64 -21zM384 727l-199 106l-35 -68l223 -66z" />
    <glyph glyph-name="Uacute" unicode="&#xda;" horiz-adv-x="558" 
d="M538 300q-35 -28 -35 -54q0 -7 3 -12v-104q-1 -107 -1 -105q-71 -12 -92 -82h-205q-27 46 -46 57.5t-76 21.5l-36 53q6 0 -2 2v189q0 64 -42 80q32 12 40 50v275h181v1l50 -45l-1 -274q0 -34 45 -62q-47 -18 -41 -56v-154q0 -3 1 -6q16 -4 34 -4q35 0 60.5 17t25.5 49
l-1 149q-5 45 -35 63q24 13 33 56v267h51l51 -45v-275q8 -24 25 -38q14 -11 13 -14zM64 75l30 -44q24 -4 63 -15q-32 50 -93 59zM268 80v1v153q-6 39 28 59q-32 26 -32 60l1 267l-38 34l-1 -251q0 -37 37 -61q-40 -15 -33 -58v-153q0 -34 38 -51zM369 -1h-186q13 -12 32 -44
h191l1 1zM447 75q-51 -12 -71 -66l36 -41q25 53 77 66zM520 300q-33 30 -33 56l1 264l-38 36v-253q0 -26 36 -57q-32 -6 -32 -56v-204l39 -39q0 -8 1 193q-4 42 26 60zM150 727l199 106l34 -68l-222 -66z" />
    <glyph glyph-name="Ucircumflex" unicode="&#xdb;" horiz-adv-x="558" 
d="M538 300q-35 -28 -35 -54q0 -7 3 -12v-104q-1 -107 -1 -105q-71 -12 -92 -82h-205q-27 46 -46 57.5t-76 21.5l-36 53q6 0 -2 2v189q0 64 -42 80q32 12 40 50l-1 275h182v1l50 -45l-1 -274q0 -34 45 -62q-47 -18 -41 -56v-154q0 -3 1 -6q16 -4 34 -4q35 0 60.5 17t25.5 49
l-1 149q-5 45 -35 63q24 13 33 56v267h51l53 -53l-2 -267q8 -24 25 -38q14 -11 13 -14zM64 75l30 -44q24 -4 63 -15q-32 50 -93 59zM268 80v1v153q-6 39 28 59q-32 26 -32 60l1 267l-38 34l-1 -251q0 -37 37 -61q-40 -15 -33 -58v-153q0 -34 38 -51zM369 -1h-186
q13 -12 32 -44h191l1 1zM447 75q-51 -12 -71 -66l36 -41q25 53 77 66zM520 300q-33 29 -33 56l-1 256l-36 44v-253q0 -26 36 -57q-32 -6 -32 -56v-204l39 -39q0 -8 1 193q-4 42 26 60zM253 755l-129 -56l-11 28l142 106l139 -106l-11 -28z" />
    <glyph glyph-name="Ugrave" unicode="&#xd9;" horiz-adv-x="558" 
d="M538 300q-35 -28 -35 -54q0 -7 3 -12v-104q-1 -107 -1 -105q-71 -12 -92 -82h-205q-27 46 -46 57.5t-76 21.5l-36 53q6 0 -2 2v189q0 64 -42 80q32 12 40 50v275h181v1l50 -45l-1 -274q0 -34 45 -62q-47 -18 -41 -56v-154q0 -3 1 -6q16 -4 34 -4q35 0 60.5 17t25.5 49
l-1 149q-5 45 -35 63q24 13 33 56v267h51l51 -45v-275q8 -24 25 -38q14 -11 13 -14zM64 75l30 -44q24 -4 63 -15q-32 50 -93 59zM268 80v1v153q-6 39 28 59q-32 26 -32 60l1 267l-38 34l-1 -251q0 -37 37 -61q-40 -15 -33 -58v-153q0 -34 38 -51zM369 -1h-186q13 -12 32 -44
h191l1 1zM447 75q-51 -12 -71 -66l36 -41q25 53 77 66zM520 300q-33 30 -33 56l1 264l-38 36v-253q0 -26 36 -57q-32 -6 -32 -56v-204l39 -39q0 -8 1 193q-4 42 26 60zM374 727l-199 106l-35 -68l223 -66z" />
    <glyph glyph-name="circumflex" unicode="&#x2c6;" horiz-adv-x="511" 
d="M233 755l-129 -56l-11 28l142 106l139 -106l-11 -28z" />
    <glyph glyph-name="tilde" unicode="&#x2dc;" horiz-adv-x="521" 
d="M176 744q-27 2 -36.5 -1.5t-29.5 -23.5l-12 10q1 25 36 46q30 18 52 18q20 0 42 -12t42 -12q34 0 32 0q18 4 37 26q2 3 8.5 -4t5.5 -10q-8 -28 -37 -47q-25 -17 -48 -17q-22 0 -47 12.5t-45 14.5z" />
    <glyph glyph-name="macron" unicode="&#xaf;" horiz-adv-x="308" 
d="M25 794h259v-55h-259v55z" />
    <glyph glyph-name="macron" unicode="&#x2c9;" horiz-adv-x="308" 
d="M25 794h259v-55h-259v55z" />
    <glyph glyph-name="cedilla" unicode="&#xb8;" horiz-adv-x="293" 
d="M107 -36l9 42l46 -2l-11 -39q25 -4 54 -13q20 -21 20 -49q0 -34 -30 -61q-22 -19 -102 -16q-34 2 -65 39l26 26q17 -22 41 -19q17 2 23.5 6.5l6.5 4.5q15 15 15 31q0 33 -38 32q3 7 5 18z" />
    <glyph glyph-name="Scaron" unicode="&#x160;" 
 />
    <glyph glyph-name="scaron" unicode="&#x161;" 
 />
    <glyph glyph-name="brokenbar" unicode="&#xa6;" 
 />
    <glyph glyph-name="Eth" unicode="&#xd0;" 
 />
    <glyph glyph-name="eth" unicode="&#xf0;" 
 />
    <glyph glyph-name="Yacute" unicode="&#xdd;" 
 />
    <glyph glyph-name="yacute" unicode="&#xfd;" 
 />
    <glyph glyph-name="Thorn" unicode="&#xde;" 
 />
    <glyph glyph-name="thorn" unicode="&#xfe;" 
 />
    <glyph glyph-name="uni00AD" unicode="&#xad;" 
 />
    <glyph glyph-name="uni00AD" unicode="&#x2212;" 
 />
    <glyph glyph-name="multiply" unicode="&#xd7;" 
 />
    <glyph glyph-name="uni00B9" unicode="&#xb9;" 
 />
    <glyph glyph-name="uni00B2" unicode="&#xb2;" 
 />
    <glyph glyph-name="uni00B3" unicode="&#xb3;" 
 />
    <glyph glyph-name="onehalf" unicode="&#xbd;" 
 />
    <glyph glyph-name="onequarter" unicode="&#xbc;" 
 />
    <glyph glyph-name="threequarters" unicode="&#xbe;" 
 />
    <glyph glyph-name="Lslash" unicode="&#x141;" 
 />
    <glyph glyph-name="lslash" unicode="&#x142;" 
 />
    <glyph glyph-name="glyph220" 
 />
    <glyph glyph-name="glyph221" 
 />
    <glyph glyph-name="glyph222" 
 />
    <glyph glyph-name="Zcaron" unicode="&#x17d;" 
 />
    <glyph glyph-name="zcaron" unicode="&#x17e;" 
 />
    <glyph glyph-name="glyph225" 
 />
    <glyph glyph-name="glyph226" 
 />
    <glyph glyph-name="glyph227" 
 />
    <glyph glyph-name="glyph228" 
 />
    <glyph glyph-name="glyph229" 
 />
    <glyph glyph-name="glyph230" 
 />
    <glyph glyph-name="glyph231" 
 />
    <glyph glyph-name="glyph232" horiz-adv-x="1002" 
 />
    <glyph glyph-name="notequal" unicode="&#x2260;" 
 />
    <glyph glyph-name="infinity" unicode="&#x221e;" 
 />
    <glyph glyph-name="lessequal" unicode="&#x2264;" 
 />
    <glyph glyph-name="greaterequal" unicode="&#x2265;" 
 />
    <glyph glyph-name="partialdiff" unicode="&#x2202;" horiz-adv-x="475" 
d="M461 -49l-358 -1l-56 50v119q-15 15 -47 51v71l48 38v20q-7 32 -35 49q24 18 29 44l1 281l169 -1l54 -51l1 -165l63 51l47 -42v-64l-110 -91v-234l149 1v-1l44 -53zM251 618q-11 11 -35 37v-240l35 28v175zM451 17l-35 42v-50l35 -41v49zM445 -39l-36 39h-348l42 -38z
M48 206l-36 -28l35 -36zM365 417v39l-33 32l-1 -43zM223 347l37 -25l101 83l-34 29zM254 311l-38 26v-261h39z" />
    <glyph glyph-name="summation" unicode="&#x2211;" horiz-adv-x="506" 
d="M352 418q-4 6 0 3q-6 33 -14 44q-18 24 -71 39v57q-32 -1 -32 -32v-64v-91q25 -7 63 -7h36q11 -51 86 -83q7 -3 58 -51q-1 -205 0 -205q-83 -18 -121 -77l-165 -1q-4 38 -43 38t-39 -37l-58 -1l-41 48l-2 1v268h49q13 -30 47 -54t69 -33h-1q16 -9 56 -43l-1 -64
q24 7 24 28v142q0 14 -5 28q-51 25 -103 18q-4 9 -20.5 28.5t-25.5 24.5q-16 5 -50 12q-33 46 -37 49q1 1 -1 3l-1 185q39 6 62 20q30 19 57 61h159q13 -31 39 -31q31 0 42 31h44l55 -43v-264h-63q-18 21 -52 56v-3zM216 70v61q-15 14 -43 34v-64q0 -15 13 -23t30 -8z
M118 340q22 -17 33 -38q61 -5 86 -14q-41 56 -119 52zM21 410l36 -49q12 0 32 -4q-1 1 -68 53zM220 376q-6 27 0 154q2 40 43 42q-6 34 -42 34q-18 0 -31 -11t-13 -30v-131q0 -40 43 -58zM445 376l-40 40h-32q10 -12 38 -40h34zM411 427l43 -42v237l-43 37v-232zM423 83
l44 -41v187l-45 40q2 -154 1 -186zM345 -38l-37 37l-146 1q-1 -1 -1 -3q14 -5 22 -10q15 -11 18 -26zM317 7l37 -36q28 42 102 65l-42 39q-39 -8 -57 -20q-21 -14 -40 -48zM91 -38l-38 38q-11 3 -28 0l35 -38h31zM61 9l39 -39q12 28 51 30q-3 25 -51 25q-30 0 -39 -16z
M352 418q-4 6 0 3v-3zM223 777l130 56l11 -28l-142 -106l-139 106l11 28z" />
    <glyph glyph-name="product" unicode="&#x220f;" horiz-adv-x="506" 
d="M352 418q-4 6 0 3q-6 33 -14 44q-18 24 -71 39v57q-32 -1 -32 -32v-64v-91q25 -7 63 -7h36q11 -51 86 -83q7 -3 58 -51q-1 -205 0 -205q-83 -18 -121 -77l-165 -1q-4 38 -43 38t-39 -37l-58 -1l-41 48l-2 1v268h49q13 -30 47 -54t69 -33h-1q16 -9 56 -43l-1 -64
q24 7 24 28v142q0 14 -5 28q-51 25 -103 18q-4 9 -20.5 28.5t-25.5 24.5q-16 5 -50 12q-33 46 -37 49q1 1 -1 3l-1 185q39 6 62 20q30 19 57 61h159q13 -31 39 -31q31 0 42 31h44l55 -43v-264h-63q-18 21 -52 56v-3zM216 70v61q-15 14 -43 34v-64q0 -15 13 -23t30 -8z
M118 340q22 -17 33 -38q61 -5 86 -14q-41 56 -119 52zM21 410l36 -49q12 0 32 -4q-1 1 -68 53zM220 376q-6 27 0 154q2 40 43 42q-6 34 -42 34q-18 0 -31 -11t-13 -30v-131q0 -40 43 -58zM445 376l-40 40h-32q10 -12 38 -40h34zM411 427l43 -42v237l-43 37v-232zM423 83
l44 -41v187l-45 40q2 -154 1 -186zM345 -38l-37 37l-146 1q-1 -1 -1 -3q14 -5 22 -10q15 -11 18 -26zM317 7l37 -36q28 42 102 65l-42 39q-39 -8 -57 -20q-21 -14 -40 -48zM91 -38l-38 38q-11 3 -28 0l35 -38h31zM61 9l39 -39q12 28 51 30q-3 25 -51 25q-30 0 -39 -16z
M352 418q-4 6 0 3v-3zM223 777l130 56l11 -28l-142 -106l-139 106l11 28z" />
    <glyph glyph-name="pi" unicode="&#x3c0;" horiz-adv-x="525" 
d="M514 633l-117 -283q-3 -7 -3 -13q0 -13 25 -41q-56 -27 -52 -71v-137v-138h-177l-36 50v267q0 30 -20 54q-18 21 -36 23q6 0 13.5 11.5t7.5 26.5q0 9 -4 17l-115 273h180l60 -37l73 -185l91 222h65v0zM306 434l-75 190l-46 32l105 -264zM317 1h-150l30 -38l151 1z
M500 627l-36 33l-109 -264q-4 -9 -4 -17q0 -14 21 -38q-19 -9 -34.5 -31t-13.5 -43v-256l31 -37v250q-2 21 12 42.5t32 33.5q-17 21 -17 36q0 9 4 19zM130 727l199 106l34 -68l-222 -66z" />
    <glyph glyph-name="integral" unicode="&#x222b;" horiz-adv-x="525" 
d="M514 633l-117 -283q-3 -7 -3 -13q0 -13 25 -41q-56 -27 -52 -71v-137v-138h-177l-36 50v267q0 30 -20 54q-18 21 -36 23q6 0 13.5 11.5t7.5 26.5q0 9 -4 17l-115 273h180l60 -37l73 -185l91 222h65v0zM306 434l-75 190l-46 32l105 -264zM317 1h-150l30 -38l151 1z
M500 627l-36 33l-109 -264q-4 -9 -4 -17q0 -14 21 -38q-19 -9 -34.5 -31t-13.5 -43v-256l31 -37v250q-2 21 12 42.5t32 33.5q-17 21 -17 36q0 9 4 19zM130 727l199 106l34 -68l-222 -66z" />
    <glyph glyph-name="Omega" unicode="&#x3a9;" horiz-adv-x="558" 
d="M384 377q-113 0 -147 1q3 -5 1 -26q-2 -32 -2 -34q0 -12 4 -15l31 1v43h151zM392 416v-30l38 -31l-2 23zM522 471v66l-37 40v-60zM515 459l-39 50q-16 -2 -27 -3l38 -47h28zM413 561q-11 17 -32 31q-24 14 -26 17q-58 4 -92 -19q-26 -19 -26 -42l-1 -113h35v93
q0 15 24.5 30t59.5 15q29 0 58 -12zM430 223v37l-38 28v-36zM522 38q3 0 0 75q-35 29 -35 32v-75q0 -2 16.5 -17t18.5 -15zM421 214l-41 32l-145 1l1 -98q0 -61 53 -91q-18 29 -19 85q0 19 1 71h150zM512 30l-30 27q-53 -13 -97 -56l31 -32q47 46 96 61zM406 -39l-35 39
l-152 -1l34 -38h153zM178 21q-22 24 -86 49l22 -28q32 -4 64 -21zM17 247q11 -17 24 -38h28v38h-52zM64 324h-30q194 30 187 42q-5 8 -113 9t-111 4v0v56h69v159q84 4 133 79l176 2q11 -66 109 -83l2 1l48 -51v-95h-52l-48 59q-4 1 -4 2q-2 18 -7 33q-36 16 -70 16
q-29 0 -48 -10.5t-19 -21.5v-90h103v1l1 -1h2v-2l48 -48v-50h-157v-31l101 1v1l2 -1h6v-4l52 -38l-1 -63h-160q-1 -43 0 -58q2 -70 29 -92q9 -1 18 -1q63 0 88 66q4 10 4 49h64l1 -2l46 -44v-94q-3 -1 -11 -4q-52 -15 -105 -70l-169 -2q-49 73 -141 80l-37 47l-1 122h-35
q-11 18 -33 50h-4v5v0v0v53l67 -2v21zM14 378q12 -18 27 -42h23v42h-50z" />
    <glyph glyph-name="Omega" unicode="&#x2126;" horiz-adv-x="558" 
d="M384 377q-113 0 -147 1q3 -5 1 -26q-2 -32 -2 -34q0 -12 4 -15l31 1v43h151zM392 416v-30l38 -31l-2 23zM522 471v66l-37 40v-60zM515 459l-39 50q-16 -2 -27 -3l38 -47h28zM413 561q-11 17 -32 31q-24 14 -26 17q-58 4 -92 -19q-26 -19 -26 -42l-1 -113h35v93
q0 15 24.5 30t59.5 15q29 0 58 -12zM430 223v37l-38 28v-36zM522 38q3 0 0 75q-35 29 -35 32v-75q0 -2 16.5 -17t18.5 -15zM421 214l-41 32l-145 1l1 -98q0 -61 53 -91q-18 29 -19 85q0 19 1 71h150zM512 30l-30 27q-53 -13 -97 -56l31 -32q47 46 96 61zM406 -39l-35 39
l-152 -1l34 -38h153zM178 21q-22 24 -86 49l22 -28q32 -4 64 -21zM17 247q11 -17 24 -38h28v38h-52zM64 324h-30q194 30 187 42q-5 8 -113 9t-111 4v0v56h69v159q84 4 133 79l176 2q11 -66 109 -83l2 1l48 -51v-95h-52l-48 59q-4 1 -4 2q-2 18 -7 33q-36 16 -70 16
q-29 0 -48 -10.5t-19 -21.5v-90h103v1l1 -1h2v-2l48 -48v-50h-157v-31l101 1v1l2 -1h6v-4l52 -38l-1 -63h-160q-1 -43 0 -58q2 -70 29 -92q9 -1 18 -1q63 0 88 66q4 10 4 49h64l1 -2l46 -44v-94q-3 -1 -11 -4q-52 -15 -105 -70l-169 -2q-49 73 -141 80l-37 47l-1 122h-35
q-11 18 -33 50h-4v5v0v0v53l67 -2v21zM14 378q12 -18 27 -42h23v42h-50z" />
    <glyph glyph-name="radical" unicode="&#x221a;" 
 />
    <glyph glyph-name="approxequal" unicode="&#x2248;" 
 />
    <glyph glyph-name="approxequal" unicode="&#x22f2;" 
 />
    <glyph glyph-name="Delta" unicode="&#x394;" 
 />
    <glyph glyph-name="Delta" unicode="&#x2206;" 
 />
    <glyph glyph-name="lozenge" unicode="&#x25ca;" 
 />
    <glyph glyph-name="fraction" unicode="&#x2044;" 
 />
    <glyph glyph-name="uniF001" unicode="&#xf001;" 
 />
    <glyph glyph-name="uniF002" unicode="&#xf002;" 
 />
    <glyph glyph-name="uniF000" unicode="&#xf000;" 
 />
    <glyph glyph-name="dotlessi" unicode="&#x131;" horiz-adv-x="296" 
d="M35 -1v290q-4 25 -8 33q-7 14 -27 22q37 19 37 51l1 278l160 -1v0l45 -45v-268q-5 -39 41 -56q-29 -11 -36 -37q-4 -13 -4 -68q-1 -76 1 -247h-163zM233 345q-1 5 0 10v265l-36 40l1 -265q-5 -34 35 -50zM191 0l-141 -1l36 -36h142zM260 303q-24 14 -27 41
q-29 -9 -32 -40v-33q-3 -2 0 -265l32 -34q1 136 1 226q0 63 1 73q4 23 25 32z" />
    <glyph glyph-name="breve" unicode="&#x2d8;" horiz-adv-x="331" 
d="M34 798l18 8q55 -52 110 -45q53 -7 108 45l17 -8q-44 -91 -127 -91q-84 0 -126 91z" />
    <glyph glyph-name="dotaccent" unicode="&#x2d9;" horiz-adv-x="189" 
d="M37 766q0 21 15.5 35.5t37.5 14.5t37.5 -14.5t15.5 -35.5t-15.5 -35.5t-37.5 -14.5t-37.5 14.5t-15.5 35.5z" />
    <glyph glyph-name="ring" unicode="&#x2da;" horiz-adv-x="308" 
d="M151 831q28 0 47 -19t19 -46q0 -28 -19 -47t-47 -19q-27 0 -46 19t-19 47q0 27 19 46t46 19zM151 797q-31 0 -31 -31q0 -32 31 -32q32 0 32 32q0 31 -32 31z" />
    <glyph glyph-name="hungarumlaut" unicode="&#x2dd;" horiz-adv-x="349" 
d="M155 727l66 130l54 -23l-98 -120q-4 1 -22 13zM55 727l61 129l54 -22l-93 -120q-5 3 -22 13z" />
    <glyph glyph-name="ogonek" unicode="&#x2db;" horiz-adv-x="321" 
d="M245 -91q-5 -38 -70 -68q-18 -8 -55 -15h-36q-56 0 -56 33q0 41 41 94t81 60q24 4 34 4h1q1 -1 13.5 -2t21.5 -9q-54 -20 -76 -62q-7 -22 -14 -43q-1 0 2.5 -8t23.5 -12q18 -4 46 9.5t27 13.5z" />
    <glyph glyph-name="caron" unicode="&#x2c7;" horiz-adv-x="511" 
d="M233 777l130 56l11 -28l-142 -106l-139 106l11 28z" />
    </font>
</defs>
</svg>
