<?xml version="1.0" standalone="no"?>
<!DOCTYPE svg PUBLIC "-//W3C//DTD SVG 1.1//EN" "http://www.w3.org/Graphics/SVG/1.1/DTD/svg11.dtd" >
<svg>
<metadata>
Created by FontForge 20120731 at Wed Apr 17 20:32:08 2019
 By www-data
Digitized by Dan X. Solo. Software (c) 2000 by Dover Publications, Inc., New York.
</metadata>
<defs>
<font id="Penzance" horiz-adv-x="283" >
  <font-face 
    font-family="Penzance"
    font-weight="400"
    font-stretch="normal"
    units-per-em="1000"
    panose-1="0 0 4 0 0 0 0 0 0 0"
    ascent="800"
    descent="-200"
    x-height="489"
    cap-height="673"
    bbox="-90 -211 897 835"
    underline-thickness="20"
    underline-position="-123"
    unicode-range="U+0020-F002"
  />
<missing-glyph horiz-adv-x="500" 
d="M63 0v800h375v-800h-375zM125 63h250v675h-250v-675z" />
    <glyph glyph-name=".notdef" horiz-adv-x="500" 
d="M63 0v800h375v-800h-375zM125 63h250v675h-250v-675z" />
    <glyph glyph-name="glyph1" horiz-adv-x="0" 
 />
    <glyph glyph-name="glyph2" horiz-adv-x="241" 
 />
    <glyph glyph-name="space" unicode=" " horiz-adv-x="241" 
 />
    <glyph glyph-name="exclam" unicode="!" horiz-adv-x="293" 
d="M96 247q5 -25 10 -49q13 -33 43 -33q36 0 47 27l12 58q23 109 65 328q2 7 14.5 25.5t12.5 29.5q0 13 -13 26t-25 12l-211 2q-12 1 -26.5 -13t-14.5 -27q0 -11 12.5 -29.5t14.5 -25.5q17 -111 59 -331zM224 69q0 -31 -24 -55t-53 -24q-33 0 -55.5 22t-22.5 53
q0 34 24 57.5t59 23.5q30 0 51 -24.5t21 -52.5z" />
    <glyph glyph-name="quotedbl" unicode="&#x22;" horiz-adv-x="357" 
d="M225 463l6 -24q6 -17 21 -17q18 0 24 13q0 1 6 30q11 54 32 164q1 3 7.5 12.5t6.5 14.5q0 7 -6.5 13t-12.5 6l-106 1q-6 0 -13 -6.5t-7 -13.5q0 -5 6 -14.5t7 -12.5q9 -56 29 -166zM45 463l6 -24q6 -17 21 -17q18 0 24 13q0 1 6 30q11 54 32 164q1 3 7.5 12.5t6.5 14.5
q0 7 -6.5 13t-12.5 6l-106 1q-6 0 -13 -6.5t-7 -13.5q0 -5 6 -14.5t7 -12.5q9 -56 29 -166z" />
    <glyph glyph-name="numbersign" unicode="#" horiz-adv-x="478" 
d="M252 427h-83v-173h83v173zM38 534h45v114q0 22 29 22h29q28 0 28 -22v-114h83v114q0 22 29 22h29q28 0 28 -22v-114h47q28 0 28 -22v-63q0 -22 -28 -22h-47v-173h47q28 0 28 -22v-63q0 -22 -28 -22h-47v-123q0 -22 -28 -22h-29q-29 0 -29 22v123h-83v-123q0 -22 -28 -22
h-29q-29 0 -29 22v123h-45q-29 0 -29 22v63q0 22 29 22h45v173h-45q-29 0 -29 22v63q0 22 29 22z" />
    <glyph glyph-name="dollar" unicode="$" horiz-adv-x="488" 
d="M418 514q0 -27 -18.5 -45t-46.5 -16q-45 2 -61 46q-12 4 -36 9q-19 1 -36 -5q-23 -7 -23 -23q0 -20 67 -40q90 -27 125 -48q67 -42 67 -117q0 -70 -61 -115q-52 -38 -127 -44v-73q0 -15 -26 -15q-11 0 -24 3l-12 12v74q-5 1 -64 4q-48 2 -85 30q-42 32 -42 80q0 30 20 47
t51 16q24 -1 45 -21t28 -45q6 -6 53 -14q30 -2 54 6q34 11 34 36q0 19 -72 35q-95 22 -134 44q-72 42 -72 125q0 129 181 137q-2 20 2 62q2 15 18 17q-2 0 28 -2q11 0 15 -24q1 -3 -1 -34v-19l35 -1q118 -20 118 -82z" />
    <glyph glyph-name="percent" unicode="%" horiz-adv-x="688" 
d="M422 672h24q8 0 15 -6t5 -14l-200 -643q-7 -20 -20 -20h-24q-9 0 -15.5 6.5t-4.5 13.5l200 643q6 20 20 20zM664 183q0 -75 -37 -125q-41 -57 -113 -57t-108 65q-29 51 -29 129q0 72 36 123q40 57 110 57t109 -64q32 -53 32 -128zM551 258q1 52 -31 52q-30 0 -31 -47
l-1 -142q-1 -60 31 -60q31 0 32 38v159zM294 483q0 -75 -37 -125q-41 -57 -113 -57t-108 65q-29 51 -29 129q0 72 36 123q40 57 110 57t109 -64q32 -53 32 -128zM181 558q1 52 -31 52q-30 0 -31 -47l-1 -142q-1 -60 31 -60q31 0 32 38v159z" />
    <glyph glyph-name="ampersand" unicode="&#x26;" horiz-adv-x="653" 
d="M628 323q0 -24 -20 -44q-10 -9 -40 -29q50 -51 50 -91q0 -164 -348 -164q-94 0 -172 50q-89 58 -89 147q0 90 83 146l54 30q43 24 43 30q0 7 -21 23q-27 21 -38 37q-21 27 -21 64q0 80 77 122q61 33 148 33q66 0 119 -32q61 -38 67 -103q6 -27 -26 -35q-38 -15 -86 -23
q-7 -2 -13 -2q-27 0 -33 41t-37 41q-23 0 -38 -17.5t-15 -41.5q0 -34 30 -54q29 -13 57 -26q30 -16 30 -41l-19 -46q-71 -31 -83 -40q-40 -29 -40 -81q0 -47 31.5 -77t78.5 -30q35 0 66 18q37 21 37 53q0 40 -32 40q-6 0 -19 -1.5t-20 -1.5q-8 0 -18.5 12t-10.5 21
q0 31 40 44q31 9 63 18q11 5 22.5 27.5t21.5 30.5q18 16 53 16q28 0 48 -18.5t20 -45.5z" />
    <glyph glyph-name="quotesingle" unicode="'" horiz-adv-x="193" 
d="M45 463l6 -24q6 -17 21 -17q18 0 24 13q0 1 6 30q11 54 32 164q1 3 7.5 12.5t6.5 14.5q0 7 -6.5 13t-12.5 6l-106 1q-6 0 -13 -6.5t-7 -13.5q0 -5 6 -14.5t7 -12.5q9 -56 29 -166z" />
    <glyph glyph-name="parenleft" unicode="(" horiz-adv-x="265" 
d="M193 -107q-78 0 -137.5 122.5t-59.5 275.5q0 152 59.5 274.5t137.5 122.5q20 0 20 -20t-20 -20q-77 0 -77 -357q0 -358 77 -358q20 0 20 -20t-20 -20z" />
    <glyph glyph-name="parenright" unicode=")" horiz-adv-x="265" 
d="M16 688q77 0 137 -122.5t60 -274.5q0 -153 -60 -275.5t-137 -122.5q-20 0 -20 20t20 20q77 0 77 358q0 357 -77 357q-20 0 -20 20t20 20z" />
    <glyph glyph-name="asterisk" unicode="*" horiz-adv-x="311" 
d="M175 414q0 -11 -11 -11l-58 1q-11 0 -11 10q0 3 3.5 8t4.5 7q5 29 14 74q-20 -16 -58 -48q-3 -6 -10 -14q-9 -6 -15 4l-28 50q-6 10 3 15q7 0 17 1q27 10 71 24q-23 10 -71 27q-6 -1 -16 2.5t-4 13.5l29 50q5 9 14 4q3 -6 10 -14q22 -19 56 -50q-3 26 -12 75q-1 2 -4.5 7
t-3.5 8q0 11 11 11h59q10 0 10 -11q0 -3 -3.5 -8t-3.5 -7q-5 -28 -15 -74q20 16 58 49q3 6 10 14q9 5 15 -4l29 -51q5 -9 -4 -14q-6 0 -17 -1q-27 -10 -71 -25q24 -9 71 -26q6 1 17 -1q9 -6 4 -15l-30 -51q-5 -9 -14 -3q-3 5 -10 14q-22 18 -56 49q4 -25 13 -75
q0 -1 3.5 -6.5t3.5 -8.5z" />
    <glyph glyph-name="plus" unicode="+" horiz-adv-x="439" 
d="M394 287h-145v-145q0 -28 -28 -28h-17q-28 0 -28 28v145h-145q-28 0 -28 28v17q0 28 28 28h145v145q0 28 28 28h17q28 0 28 -28v-145h145q28 0 28 -28v-17q0 -28 -28 -28z" />
    <glyph glyph-name="comma" unicode="," horiz-adv-x="209" 
d="M149 48q0 -48 -27 -92q-30 -51 -75 -51q-27 0 -27 19q0 3 8.5 21.5t8.5 26.5q0 13 -21 34t-21 51t21 53t51 23q37 0 59.5 -24t22.5 -61z" />
    <glyph glyph-name="hyphen" unicode="-" horiz-adv-x="251" 
d="M21 356h162q20 0 20 -20v-76q0 -20 -20 -20h-162q-20 0 -20 20v76q0 20 20 20z" />
    <glyph glyph-name="hyphen" unicode="&#x2010;" horiz-adv-x="251" 
d="M21 356h162q20 0 20 -20v-76q0 -20 -20 -20h-162q-20 0 -20 20v76q0 20 20 20z" />
    <glyph glyph-name="period" unicode="." horiz-adv-x="211" 
d="M155 73q0 -29 -23 -52.5t-51 -23.5q-34 0 -58 21t-24 55q0 30 23 52.5t55 22.5q28 0 53 -21t25 -54z" />
    <glyph glyph-name="slash" unicode="/" horiz-adv-x="246" 
d="M219 678h23q9 0 16 -6t4 -14l-200 -643q-6 -20 -20 -20h-23q-9 0 -15.5 6.5t-4.5 13.5l200 643q6 20 20 20z" />
    <glyph glyph-name="zero" unicode="0" horiz-adv-x="580" 
d="M527 319q0 -136 -66 -228q-75 -103 -206 -103q-132 0 -198 118q-53 93 -53 235q0 131 66 223q74 104 200 104q128 0 198 -116q59 -97 59 -233zM322 455q1 95 -56 95t-58 -85l-2 -260q0 -48 7 -70q12 -39 50 -39q57 0 58 71z" />
    <glyph glyph-name="one" unicode="1" horiz-adv-x="368" 
d="M319 29q1 -14 -23 -22q-19 -6 -36 -6q-3 0 -43 -2.5t-69 -2.5q-120 0 -120 39l14 35.5t15 49.5q9 106 4 360q-10 19 -33 54q4 91 229 148q26 0 27 -32q5 -174 2 -535q0 -16 16.5 -45.5t16.5 -40.5z" />
    <glyph glyph-name="two" unicode="2" horiz-adv-x="554" 
d="M511 142l-28 -104q-25 -75 -51 -75q-5 0 -32.5 19t-61.5 19l-289 2q-30 0 -37 4q-12 6 -12 33q0 85 75 178q69 73 138 147q75 80 75 133q0 23 -16 40t-39 17q-40 0 -40 -37q0 -8 2.5 -25.5t2.5 -24.5q0 -14 -65 -35q-56 -17 -81 -20l-30 20l-7 37q0 88 77 148
q71 57 160 57q97 0 166 -55q76 -60 76 -155q0 -101 -84 -158q-81 -46 -163 -91q-8 -6 -21 -20q-16 -17 -13 -23q59 5 60 5l121 -17q17 -3 46.5 7t41.5 10q18 0 29 -36z" />
    <glyph glyph-name="three" unicode="3" horiz-adv-x="554" 
d="M511 163q0 -93 -88 -145q-73 -43 -172 -43q-98 0 -163 41q-77 47 -87 143l-2 23q-2 19 26 26q16 5 47 7q21 1 57 0q44 -2 50 -2q28 0 28 -28q0 -15 -14 -33.5t-14 -29.5q0 -12 18 -35l32 -8q68 19 68 95q0 56 -46 84q-13 8 -84 31q-46 15 -46 40q0 13 36 68q6 9 21 9
q7 0 21.5 -3t19.5 -3q27 0 47 21.5t20 49.5q0 34 -23 53.5t-57 19.5t-67 -24t-42 -24q-15 0 -35 13l-5 17q0 4 26.5 77.5t30.5 78.5q6 12 20 12q10 0 20 -7q6 -4 43 -17q23 -5 67 -14q226 -55 226 -192q0 -57 -36 -89q-1 -1 -82 -53l72 -42q67 -47 67 -117z" />
    <glyph glyph-name="four" unicode="4" horiz-adv-x="554" 
d="M223 447q-13 -5 -51 -58q-41 -58 -41 -86q0 -29 26 -35q7 -2 21 -2l28 1q4 0 17 17v163zM513 249q-1 -31 0 -73q3 -22 0 -27q-4 -8 -23 -11q-1 0 -16.5 6t-24.5 6q-17 0 -17 -18q0 -38 19.5 -62.5t18.5 -35.5q-3 -35 -101 -35q-15 0 -36 1t-25 1h-75q-54 6 -54 35
q1 15 19 48.5t18 55.5q0 18 -34 18h-120q-65 0 -65 57q0 149 132 294q129 143 278 164q22 3 27 -26q-1 -50 0 -134q1 -83 1 -134v-106q2 -8 4 -9h12q8 1 22.5 6.5t20.5 5.5q18 0 19 -27z" />
    <glyph glyph-name="five" unicode="5" horiz-adv-x="554" 
d="M510 285q0 -90 -59 -152q-46 -48 -137 -86l-158 -56q-35 -13 -36 -14q-20 -9 -29.5 -22.5t-19.5 -13.5q-6 0 -12 4q-15 12 -38 83q-22 68 -22 90q0 14 13 24.5t28 10.5q9 0 41 -14.5t51 -14.5q65 0 109 47t44 112q0 29 -13 49q-15 25 -42 25q-19 0 -34.5 -25.5
t-29.5 -25.5q-64 0 -69.5 1.5t-17.5 20t-24 155.5q-10 120 -10 170q0 27 107 27q35 0 89 -3t59 -3q23 0 55.5 13.5t44.5 13.5q15 0 25 -24q8 -19 8 -36q0 -44 -32 -71t-77 -27q-23 0 -58 7q-29 7 -58 13l-27 -11v-84l10 -9q56 23 101 23q85 0 150 -55q68 -58 68 -142z" />
    <glyph glyph-name="six" unicode="6" horiz-adv-x="554" 
d="M515 238q0 -109 -66.5 -181t-175.5 -72q-128 0 -205 99q-71 91 -71 223q0 238 250 360q79 39 119 39q28 0 40 -23q2 -10 22.5 -68.5t20.5 -61.5q0 -12 -12.5 -26t-25.5 -14q-5 0 -45.5 14.5t-67.5 14.5q-46 0 -76 -32.5t-28 -83.5q0 -20 6 -28q14 24 56 41q35 14 64 14
q87 0 143 -65q52 -61 52 -150zM358 155q0 44 -22 93q-28 59 -67 59q-19 0 -34 -14t-15 -34q0 -38 29 -90q32 -58 67 -58q19 0 30.5 12.5t11.5 31.5z" />
    <glyph glyph-name="seven" unicode="7" horiz-adv-x="554" 
d="M512 630q-16 -61 -58 -167q-44 -113 -59 -166q-27 -94 -27 -179q0 -50 14 -81q-25 -36 -34 -36q-74 -2 -236 0q-6 3 -13 6q-11 8 -7 32q11 72 101 262.5t125 212.5l-8 7q-64 -28 -125 -28q-15 0 -40.5 9t-37.5 9q-14 0 -28.5 -13t-18.5 -13q-13 0 -34 22q-1 9 -16 77
q-10 49 -10 76q0 12 11 22.5t22 10.5q7 0 30.5 -9.5t36.5 -9.5q270 -4 252 -4q7 0 42 3t54 3q29 0 38 -6q28 -4 28 -22q0 -7 -2 -18z" />
    <glyph glyph-name="eight" unicode="8" horiz-adv-x="554" 
d="M512 217q0 -107 -80 -168q-73 -54 -183 -54q-97 0 -166 41q-84 50 -84 141q0 43 23.5 83t60.5 56l17 12q-27 18 -48.5 59.5t-21.5 82.5q0 87 68 146q65 57 153 57q76 0 143 -42q78 -48 78 -120q0 -51 -21 -83q-8 -12 -41 -41q102 -65 102 -170zM268 555
q-19 0 -36.5 -13.5t-17.5 -32.5q0 -28 25 -47.5t53 -18.5q8 1 23 19.5t15 29.5q0 63 -62 63zM309 166q0 46 -80 71q-3 1 -15 9.5t-14 8.5q-15 0 -27 -26q-11 -22 -11 -40q0 -34 24.5 -57t58.5 -23q26 0 45 16t19 41z" />
    <glyph glyph-name="nine" unicode="9" horiz-adv-x="554" 
d="M513 371q0 -137 -120 -268.5t-253 -131.5q-11 0 -27 6.5t-19 14.5q-4 22 -15 66q-2 4 -15 31q-9 19 -9 31q0 25 2 30t11 6q27 4 24 5q26 -10 51 -20q33 -12 54 -12q44 0 80 32t36 76l-3 24l-4 2q-72 -46 -117 -46q-84 0 -139 65q-52 61 -52 146q0 114 68.5 186.5
t181.5 72.5q124 0 198 -98q67 -90 67 -218zM292 412q0 42 -28 92q-32 55 -70 55q-36 0 -36 -47q0 -42 24 -91q28 -58 65 -58q45 0 45 49z" />
    <glyph glyph-name="colon" unicode=":" horiz-adv-x="201" 
d="M152 78q0 -29 -23 -52.5t-51 -23.5q-34 0 -58 21t-24 55q0 29 23 52t55 23q29 0 52 -20q26 -23 26 -55zM156 359q0 -28 -23 -51.5t-51 -23.5q-34 0 -58 21t-24 54q0 30 23 52.5t55 22.5q28 0 53 -21t25 -54z" />
    <glyph glyph-name="semicolon" unicode=";" horiz-adv-x="196" 
d="M149 48q0 -48 -27 -92q-30 -51 -75 -51q-27 0 -27 19q0 3 8.5 21.5t8.5 26.5q0 13 -21 34t-21 51t21.5 53t50.5 23q37 0 59.5 -24t22.5 -61zM156 359q0 -28 -23 -51.5t-51 -23.5q-34 0 -58 21t-24 54q0 30 23 52.5t55 22.5q28 0 53 -21t25 -54z" />
    <glyph glyph-name="less" unicode="&#x3c;" horiz-adv-x="337" 
d="M160 224q-70 -39 -81 -42q-22 -7 -22 17q0 12 12 89q-71 67 -71 77t25 16q10 2 79 13q28 61 33 69q12 23 21 23q8 0 22 -23q4 -7 35 -67q69 -9 79 -11q25 -5 25 -15t-68 -79q15 -79 15 -91q0 -17 -11 -17t-93 41z" />
    <glyph glyph-name="equal" unicode="=" horiz-adv-x="449" 
d="M31 222h363q20 0 20 -20v-17q0 -20 -20 -20h-363q-20 0 -20 20v17q0 20 20 20zM31 352h363q20 0 20 -20v-17q0 -20 -20 -20h-363q-20 0 -20 20v17q0 20 20 20z" />
    <glyph glyph-name="greater" unicode="&#x3e;" horiz-adv-x="337" 
d="M160 224q-70 -39 -81 -42q-22 -7 -22 17q0 12 12 89q-71 67 -71 77t25 16q10 2 79 13q28 61 33 69q12 23 21 23q8 0 22 -23q4 -7 35 -67q69 -9 79 -11q25 -5 25 -15t-68 -79q15 -79 15 -91q0 -17 -11 -17t-93 41zM169 264l49 -24q-10 53 -10 55q0 11 10 21q17 18 34 35
q-58 7 -63 11t-32 55q-25 -52 -30 -56t-63 -14q18 -16 36 -33q10 -11 10 -22q0 -1 -8 -54l26 16q22 12 34 12q4 0 7 -2z" />
    <glyph glyph-name="question" unicode="?" horiz-adv-x="362" 
d="M328 501q2 -56 -60 -132q-71 -87 -87 -155q-9 -38 -41 -38q-35 0 -50 32q-7 15 -7 67q0 26 18.5 76t18.5 74q0 41 -53 41q-15 0 -30 -4q-27 6 -27 21q0 2 1 5q-5 6 -5 16q0 8 4.5 26t4.5 27q0 13 -5.5 38.5t-5.5 37.5q0 39 68 39q95 0 117 -3q64 -7 96 -40
q41 -41 43 -128zM217 72q0 -34 -23 -57t-56 -23q-30 0 -55 22.5t-25 50.5q0 32 24 55.5t56 23.5q30 0 54.5 -21t24.5 -51z" />
    <glyph glyph-name="at" unicode="@" horiz-adv-x="762" 
d="M699 379q0 -110 -56.5 -179.5t-138.5 -69.5q-92 0 -99 75q-54 -65 -129 -65q-42 0 -71 31q-32 34 -32 94q0 110 59 184q65 82 176 82q60 0 116 -30q-11 -36 -54 -232q-6 -26 -6 -43q0 -39 43 -39q47 0 82 56t35 136q0 102 -73 172q-76 71 -193 71q-122 0 -203 -93
q-77 -89 -77 -211q0 -112 77 -185.5t187 -73.5q65 0 124 19l16 -58q-61 -20 -140 -20q-143 0 -237 82q-102 88 -102 236q0 153 100.5 257t254.5 104q147 0 244 -82.5t97 -217.5zM438 469q-13 6 -36 6q-75 0 -118 -71q-36 -60 -36 -142q0 -60 46 -60q31 0 62 28q37 32 48 85z
" />
    <glyph glyph-name="A" unicode="A" horiz-adv-x="606" 
d="M571 52q0 -27 -12 -37q-8 -6 -43 -15q-23 -6 -47 -11q-7 -2 -50 -20q-31 -13 -50 -13q-16 0 -33 7q-22 8 -22 22q0 9 5 26.5t5 25.5q0 27 -11 44q-52 -32 -68 -32q-20 0 -46.5 23t-45.5 22h-6q-18 -19 -18 -52q0 -7 5 -22t5 -22q0 -28 -31 -28q-10 0 -52.5 16t-52.5 21.5
t-10 20.5q0 9 11 25q14 20 16 24q9 20 17 51q6 26 13 52q28 95 57 189q43 149 43 172q0 13 -11 31.5t-11 29.5q0 29 28 39q17 6 58 6.5t52 6.5q9 2 28 6q5 2 39 16t36 14q16 0 34.5 -9t18.5 -24q0 -6 -1 -19.5t-1 -20.5q0 -35 19 -111q16 -56 31 -113q19 -80 45 -181
q7 -19 18 -56q3 -10 38 -104zM285 205q0 26 -16 83q-19 65 -35 65t-34 -59q-10 -39 -19 -77q14 -1 45 -12q8 -6 17.5 -13t16.5 -7q9 0 17 6t8 14z" />
    <glyph glyph-name="B" unicode="B" horiz-adv-x="649" 
d="M611 175q0 -89 -70 -135q-57 -38 -140 -38h-352q-11 0 -24 9t-13 20l11.5 26.5t15.5 41.5q1 14 4 46l3 348q0 25 -22.5 41.5t-22.5 23.5q0 39 85 78q66 30 94 32q22 4 44.5 7.5t75.5 3.5q96 0 174 -42q103 -56 103 -160q0 -53 -34 -81q-22 -19 -62 -29q-34 -9 -34 -12
q0 -4 43 -27q51 -29 78 -57q43 -44 43 -96zM365 503q0 71 -50 71q-46 0 -46 -61q0 -69 46 -69q23 0 37 19q13 16 13 40zM381 213q0 42 -11 73q-18 49 -59 49q-35 0 -43 -34q-2 -8 -2 -55q0 -75 2 -88q9 -47 48 -47q65 0 65 102z" />
    <glyph glyph-name="C" unicode="C" horiz-adv-x="551" 
d="M515 488q0 -12 -14 -21.5t-24 -9.5q-16 0 -46 25q-46 36 -61 44q-40 25 -80 25q-59 0 -90 -51q-24 -40 -24 -93q0 -111 83 -177q74 -58 177 -58h12q11 1 13 1q23 0 31 -2q16 -6 16 -27q0 -72 -73 -120q-60 -40 -121 -40h-10q-145 0 -229 122q-71 104 -71 238
q0 129 66 221q78 106 213 106l65 -6q16 0 40 19t29 19q10 0 26.5 -9t18.5 -15q4 -24 16 -87q4 -18 21 -60q16 -38 16 -44z" />
    <glyph glyph-name="D" unicode="D" horiz-adv-x="658" 
d="M619 270q0 -108 -60 -186q-67 -89 -179 -89h-310q-62 0 -62 33q0 1 14.5 29t15.5 34q6 29 6 59v361q0 13 -17 27t-17 21q0 16 40 48q30 24 42 30q80 39 182 39q163 0 261 -137q84 -118 84 -269zM389 217v214q0 132 -77 132q-33 0 -43 -30q-5 -16 -5 -52v-337
q0 -17 16 -31t31 -14q78 0 78 118z" />
    <glyph glyph-name="E" unicode="E" horiz-adv-x="563" 
d="M527 168q0 -18 -16 -99t-23 -93q-9 -15 -42 -15q3 0 -25 18.5t-53 18.5l-315 2q-52 0 -52 30l17 35t15 49q3 5 3 437q0 25 -16 51.5t-16 38.5q0 19 13 25q5 2 29 5h32h146q97 -1 145 -1q14 0 40.5 19.5t31.5 19.5q33 0 40 -25q4 -30 14 -89q6 -23 12 -45q7 -30 7 -46
q0 -11 -15.5 -25t-26.5 -14q-8 0 -43 44q-38 47 -66 53h-68q-39 0 -39 -48q0 -43 5 -54q49 6 40 6q39 0 70 -36q23 -34 46 -69q9 -14 33 -19q18 -4 18 -22q0 -32 -26 -56.5t-58 -24.5q-41 0 -56 32q-7 31 -15 62.5t-32 31.5q-18 0 -23 -10q-3 -5 -3 -25.5t-2 -89.5
q-1 -54 -1 -88q0 -32 17 -41q11 -6 47 -6q47 0 83 27q20 15 49 52q21 27 32 27q13 0 30 -15t17 -28z" />
    <glyph glyph-name="F" unicode="F" horiz-adv-x="559" 
d="M520 499q0 -12 -15.5 -25t-27.5 -13q-13 0 -42 34q-36 40 -45 46q-20 14 -88 14q-38 0 -39 -30l-2 -85q0 -26 6 -30q41 8 58 8q41 0 78 -51.5t72 -51.5q13 0 13 -34q0 -31 -25.5 -56t-57.5 -25q-37 0 -56 29q-12 27 -25 55.5t-35 28.5q-29 0 -29 -39v-146
q0 -35 17.5 -63.5t17.5 -35.5q0 -29 -54 -29h-198q-16 0 -29 10t-13 25q0 2 19.5 40.5t19.5 60.5l-1 421q0 18 -16 44.5t-16 35.5q0 16 14 25t31 9h323q18 0 40 18t29 18t21.5 -7t17.5 -13q5 -10 13 -60q10 -65 10.5 -66.5t8.5 -30.5q5 -20 5 -31z" />
    <glyph glyph-name="G" unicode="G" horiz-adv-x="620" 
d="M587 281q0 -7 -12 -28.5t-12 -32.5v-192q0 -10 -10.5 -17.5t-20.5 -7.5q-9 0 -27 2.5t-27 2.5q-32 0 -98 -20.5t-111 -20.5q-28 0 -89 19q-87 27 -135 100q-45 69 -45 163q0 83 29 170q32 94 84 149q42 45 95 67q23 10 110 33q4 1 42 15q25 9 42 9q18 0 29 -10
q7 -7 39 -80t32 -82q0 -12 -12 -22.5t-25 -10.5q-15 0 -62 29.5t-81 29.5q-90 0 -90 -136v-193q0 -129 64 -129q51 0 51 60v80q0 17 -11.5 37.5t-11.5 25.5q0 17 16 27q13 9 31 9q17 0 49.5 -1.5t48.5 -1.5q13 0 38 1.5t38 1.5q15 0 28.5 -15.5t13.5 -30.5z" />
    <glyph glyph-name="H" unicode="H" horiz-adv-x="671" 
d="M640 31q0 -12 -12 -22t-25 -10h-224q-9 0 -18 12.5t-9 21.5q0 8 15.5 36.5t15.5 49.5v238q0 4 -6 4q-5 0 -17 -2.5t-17 -2.5q-13 0 -31 9.5t-30 9.5q-23 0 -23 -50v-26q1 -17 1 -25q0 -144 2 -159.5t17.5 -48.5t15.5 -36q0 -9 -13 -19.5t-23 -10.5h-212q-12 0 -26 7.5
t-14 19.5q0 9 16.5 37t15.5 94l-1 361q0 40 -6 59q-2 8 -16 34q-13 23 -13 32q0 15 20 25q15 7 33 7l179 -4q57 -1 57 -28q0 -1 -14 -27t-16 -34q-2 -12 -2 -72q0 -15 14 -15q4 0 12.5 1.5t13.5 1.5q19 0 36.5 -8.5t22.5 -8.5q25 0 25 35q0 31 -15 80l-15 49q0 11 12 21
t23 9l164 -1q6 0 17.5 1.5t17.5 1.5q52 0 52 -35q0 -7 -15.5 -33t-15.5 -44v-416q0 -39 15.5 -77.5t15.5 -41.5z" />
    <glyph glyph-name="I" unicode="I" horiz-adv-x="359" 
d="M310 637q0 -6 -11.5 -24t-12.5 -23q-11 -28 -10 -64v-144q-1 -107 -1 -135v-135q0 -16 16 -45.5t16 -38.5q0 -15 -31 -28l-220 1q-37 1 -37 37q0 2 16 40t16 51l1 415q0 23 -17 54t-17 39q0 13 15.5 24.5t29.5 11.5h190q19 0 36 -9q21 -10 21 -27z" />
    <glyph glyph-name="J" unicode="J" horiz-adv-x="514" 
d="M473 640q0 -6 -12 -34.5t-13 -36.5q-2 -12 -2 -21v-233q0 -8 -1 -32.5t-1 -32.5q0 -6 8.5 -19t6.5 -32q-2 -21 -11 -58q-78 -157 -254 -157q-74 0 -130 33q-68 39 -68 108q0 34 22.5 58t56.5 24q48 0 59 -28q1 -4 5 -52q2 -28 27 -28q52 0 53 105l3 326q0 32 -16.5 68.5
t-16.5 37.5q0 35 60 36l174 1q26 0 34 -4q16 -6 16 -29z" />
    <glyph glyph-name="K" unicode="K" horiz-adv-x="674" 
d="M651 48q0 -19 -25 -28.5t-95 -24.5q-73 -16 -97 -16q-3 0 -5 1q-22 8 -26 35q0 -2 0 46q0 22 -13 70q-11 35 -22 71q-6 27 -12 55q-12 39 -30 39q-13 0 -36.5 -29.5t-25.5 -43.5q-1 -7 -1 -59q0 -36 1 -43q2 -14 18 -49.5l16 -35.5q0 -34 -48 -34h-205q-13 0 -25 9.5
t-12 22.5q0 3 14 31.5t15 36.5q4 20 4 46v406q0 22 -15 56l-15 34q0 26 62 27l179 1q13 1 29 -9t16 -23q0 -2 -14 -27q-14 -28 -16 -34q-4 -14 -4 -67q0 -32 1 -37q4 -25 21 -25q12 0 78 81q60 73 77 100q7 20 15 40q10 27 25 27q5 0 48.5 -21.5t50.5 -26.5q11 -8 11 -25
q0 -16 -43 -45t-43 -55q0 -9 25 -95q27 -106 90 -313q2 -7 19 -32q13 -19 13 -37z" />
    <glyph glyph-name="L" unicode="L" horiz-adv-x="539" 
d="M511 172q0 -10 -35 -183q-2 -10 -15.5 -19t-21.5 -9q-5 -1 -35.5 20t-67.5 20q-110 1 -303 1q-7 0 -18 11t-11 17q0 -1 19 42.5t18 59.5l3 390q1 21 -5 63q-13 19 -26 54q-1 31 47 32h210q9 -2 20 -13.5t11 -23.5q0 -2 -11 -19q-12 -20 -14.5 -29t-7.5 -28l-1 -182
l-3 -227q0 -1 -1 -2t-1 -3q1 -37 45 -36h17q31 1 62 28q14 12 45 50q22 27 32 27q19 0 33 -14.5t15 -26.5z" />
    <glyph glyph-name="M" unicode="M" horiz-adv-x="752" 
d="M712 44q0 -11 -14 -25t-25 -14h-46q-25 0 -73 -21.5t-57 -21.5q-32 0 -32 27q0 8 4 27.5t4 30.5q0 18 -14 118t-18 110q-8 19 -19 19q-18 0 -61 -118t-59 -118q-14 0 -19 9q-5 6 -50 123q-40 101 -56 101q-12 0 -18 -11q-3 -5 -17 -110t-14 -120q0 -8 5 -23.5t5 -23.5
q0 -23 -28 -23q8 0 -38 10q-22 1 -62 9q-14 5 -14 21q0 5 13 43.5t14 48.5q11 72 39 290q16 133 16 137q0 23 -12 46t-12 33q0 21 18 29q14 6 44 10l45 7q31 14 94 28l8 1q9 0 15 -11q2 -13 8 -38q8 -32 29 -76q26 -57 43 -57q11 0 25 27t14 40q0 8 -2.5 23.5t-2.5 23.5
q0 28 25 34l46 6l135 31q10 2 23.5 -8t13.5 -21q0 -7 -6 -33.5t-6 -41.5q0 -39 16 -128q15 -107 48 -320q2 -10 15 -51q10 -35 10 -49z" />
    <glyph glyph-name="N" unicode="N" horiz-adv-x="613" 
d="M573 644q0 -7 -15.5 -26t-15.5 -32v-472l11 -85q2 -10 -12 -19.5t-25 -9.5h-75q-9 0 -20 11t-11 21q0 8 11.5 26t11.5 31q0 18 -96 127q-126 141 -141 141q-12 0 -18.5 -22.5t-32.5 -170.5q-17 -92 -17 -99q0 -9 4.5 -27t4.5 -26q0 -16 -15 -16q-13 0 -56 5t-53 8
q-18 5 -18 23q0 1 15.5 39.5t16.5 53.5q10 55 26 149q2 11 21 102q15 69 15 96q0 34 -49 67q-14 7 -27.5 14t-13.5 25q0 28 17 38q24 15 71 31q53 18 73 28q11 7 21 13q14 9 22 9q28 0 25 1q8 -2 13 -18q13 -36 45 -74q30 -32 59 -65q50 -59 67 -59q22 0 22 49q0 63 -6 75
q-2 3 -15 20q-11 14 -11 19q0 8 10 18t17 10h115q9 0 19 -10.5t10 -18.5z" />
    <glyph glyph-name="O" unicode="O" horiz-adv-x="656" 
d="M625 315q0 -133 -92.5 -225.5t-227.5 -92.5q-142 0 -229 102q-81 97 -81 241q0 139 85 235q89 100 227 100q112 0 204.5 -80.5t109.5 -191.5q4 -29 4 -88zM423 181q0 40 -51 184q-53 149 -80 173q-19 17 -46 17q-22 0 -37.5 -18t-15.5 -41q0 -35 48.5 -175.5t70.5 -173
t58 -32.5q25 0 39 20t14 46z" />
    <glyph glyph-name="P" unicode="P" horiz-adv-x="617" 
d="M588 398q0 -88 -46 -152q-52 -70 -137 -70h-19q-36 0 -70.5 21t-38.5 21q-21 0 -21 -64v-24q1 -40 10 -65q1 -2 8.5 -19t7.5 -20q0 -26 -69 -25h-87q-60 -1 -86 -1q-42 0 -42 29q0 1 14 25t16 30q9 29 9 227v219q0 18 -18 29t-18 23q0 26 52 52q35 18 76 28q74 19 142 19
q129 0 220 -75q97 -81 97 -208zM377 447q0 120 -69 120q-49 0 -49 -58v-106q0 -26 13 -47q14 -25 38 -25q35 0 53 43q14 32 14 73z" />
    <glyph glyph-name="Q" unicode="Q" horiz-adv-x="680" 
d="M633 324q0 -108 -62 -194q6 -9 14.5 -18t39.5 -10q6 -1 20 2.5t19 3.5q10 0 15.5 -13.5t5.5 -24.5q0 -53 -32.5 -83t-88.5 -30q-52 0 -86 67q-2 7 -5 16q-72 -43 -158 -43q-142 0 -229 102q-81 97 -81 241q0 139 85 235q89 100 227 100q112 0 204.5 -80.5t109.5 -191.5
q2 -13 2 -79zM413 267q-24 83 -56 164q-36 90 -55 107t-46 17q-22 0 -37.5 -18t-15.5 -41q0 -35 48.5 -175.5t70.5 -173t58 -32.5q24 0 38 19q-25 35 -53 69q-5 11 -40 22q-29 8 -26 32q4 27 16 32q3 1 38 1q8 0 18.5 -4t19 -6t22.5 -13z" />
    <glyph glyph-name="R" unicode="R" horiz-adv-x="681" 
d="M653 151q0 -71 -43 -113t-114 -42q-65 0 -113 48q-31 31 -66 98.5t-51 81.5q-4 -3 -4 -10q0 -101 9 -131q1 -5 11.5 -28.5t10.5 -25.5q0 -11 -15 -19t-27 -8l-197 2q-44 0 -44 26q0 4 17 32t17 55v375q0 48 -9 60q-2 2 -18 15q-12 10 -12 17q0 36 88 72q83 33 208 33
q102 0 202 -65q113 -72 113 -167q0 -85 -57.5 -134.5t-143.5 -49.5q-2 0 -53 13q-2 -1 -2 -5q0 -1 13 -17q49 -54 125 -54q35 0 74 17.5t35 17.5q5 0 17 -13q29 -32 29 -81zM386 460q0 44 -15 75q-18 41 -57 41q-50 0 -50 -62q0 -115 9 -131q13 -24 51 -24q62 0 62 101z" />
    <glyph glyph-name="S" unicode="S" horiz-adv-x="617" 
d="M585 257q0 -120 -112 -193q-93 -60 -201 -60l-118 10q-23 0 -50 -10.5t-34 -10.5q-15 0 -13 -1q-10 2 -17 16q-3 4 -17 79q-24 79 -24 94q0 12 16.5 25t25.5 13q18 0 47 -37q18 -22 43 -37q58 -33 125 -33h14q30 0 70 23q48 27 48 60q0 36 -47 45q-63 10 -127 20
q-76 18 -126 68q-54 53 -54 130q0 98 85 160q74 53 166 53l89 -6q21 0 44 9.5t29 9.5q29 0 34 -20q18 -73 18 -147q0 -12 -13.5 -22t-22.5 -10q-19 0 -63.5 39t-91.5 39q-71 0 -71 -47q0 -34 44 -50q28 -10 83 -14q47 -3 49 -7q13 -3 37 -11q19 -7 59 -32q34 -22 57 -71
q19 -42 19 -74z" />
    <glyph glyph-name="T" unicode="T" horiz-adv-x="644" 
d="M622 496q1 -10 -11 -22.5t-26 -12.5q-8 0 -14 6q-28 30 -55 60q-30 26 -73 26q-16 -3 -23 -39l2 -368q0 -44 18 -77.5t18 -35.5q0 -36 -66 -36l-192 1q-36 0 -36 36q0 2 17.5 35.5t17.5 41.5q-1 12 2 26l1 377q-9 40 -23 40q-35 0 -64 -23q-13 -10 -42 -44
q-19 -23 -31 -23q-15 0 -29.5 14t-14.5 25q0 3 13 72.5t15 86.5q0 5 3 17q8 25 22 29h28q-4 0 27.5 -19.5t75.5 -19.5h301l65 32q6 2 11 2q27 0 31 -26z" />
    <glyph glyph-name="U" unicode="U" horiz-adv-x="577" 
d="M525 174q0 -47 -23 -83q-36 -57 -94 -78q-43 -16 -123 -16q-123 0 -194 55q-79 61 -79 181l8 106l16 214v41q-20 45 -20 54q0 12 21 22.5t34 9.5h2q14 -1 71 -12q44 -8 71 -8q59 0 59 -44q0 -6 -7 -22q-9 -20 -10 -23q-7 -23 -9 -72q-1 -37 -3 -74l-12 -205q0 -48 25 -77
q27 -32 74 -32q88 0 88 109q0 48 -5 182q-7 168 -14 188q-2 4 -13 22q-9 14 -9 20q0 36 41 36q6 0 19.5 -2.5t19.5 -2.5q42 0 40 0q21 -3 21 -25q0 -11 -5 -32.5t-4 -34.5q14 -268 14 -397z" />
    <glyph glyph-name="V" unicode="V" horiz-adv-x="587" 
d="M566 625q0 -3 -17 -41t-19 -46q-110 -380 -110 -431q0 -8 11 -27t11 -27q0 -6 -4.5 -19t-8.5 -14q-58 -9 -145 -24q-1 0 -44 -14q-26 -9 -46 -9q-15 0 -28 7q-16 9 -16 22q0 8 2.5 23t2.5 23q0 9 -55 228.5t-64 243.5q-2 7 -18 38t-16 32q0 27 18 37q8 5 93 31t93 26
q42 0 42 -30q0 -7 -3 -21t-3 -21q0 -23 31.5 -152t41.5 -149t23 -20q14 0 23 23q8 20 41.5 150t33.5 143q0 7 -5 22.5t-5 23.5t10 16t18 8t49.5 -14t49.5 -18q13 -8 13 -20z" />
    <glyph glyph-name="W" unicode="W" horiz-adv-x="776" 
d="M762 635q0 -7 -8 -18.5t-16 -21.5q-15 -26 -71 -254q-53 -217 -53 -230t8 -34.5t8 -33.5q0 -18 -23 -28q-6 -3 -65.5 -12t-68.5 -9t-20 6q-4 6 -4 61q0 26 -5 43q-11 37 -21 74q-17 59 -25 65q-2 2 -7 2q-15 0 -21 -14t-17.5 -63.5t-11.5 -61.5q0 -18 9.5 -33.5
t9.5 -23.5q0 -4 -7 -16.5t-11 -14.5t-68 -15.5t-71 -13.5q-10 0 -21 9t-11 19q0 7 3 22.5t3 22.5q0 14 -21 94q-33 126 -102 377q-3 10 -20 41q-16 27 -16 37q0 21 18 31q7 4 93 31.5t91 27.5q16 0 32 -8.5t16 -23.5q0 -9 -3.5 -25.5t-3.5 -25.5q0 -21 15 -71q17 -57 31 -57
q9 0 14 7.5t17 50t12 52.5q0 7 -3 20.5t-3 20.5q0 10 5 15q8 9 31 12l34 4q57 13 83 13q20 0 25 -4.5t8 -33.5q2 -34 3 -39q10 -39 35 -111q5 -9 16 -9q9 0 15 10.5t18.5 63t12.5 65.5q0 7 -4 22t-4 22q0 29 29 29q12 0 47.5 -12.5t49.5 -21t14 -31.5z" />
    <glyph glyph-name="X" unicode="X" horiz-adv-x="606" 
d="M574 59q0 -17 -24 -27q-33 -8 -96 -25q-6 -2 -46 -18q-31 -12 -44 -12q-34 0 -50 19q0 65 -16 100q-24 42 -47 85q-18 -8 -52 -63q-32 -51 -38 -73q2 4 2 -33q0 -13 -10.5 -23.5t-24.5 -10.5q-28 0 -66 9q-51 12 -51 30q0 5 88 139t88 140q0 11 -98 191
q-14 26 -30.5 43.5t-34.5 35.5q-5 6 -5 16q0 29 18 39q6 4 98.5 32.5t98.5 28.5q5 0 28 -14q1 -2 1 -30q0 -14 26.5 -66.5t32.5 -52.5q8 0 36 43q26 40 30 53q3 8 3 43q0 22 28 22q12 0 61.5 -14t58.5 -20q0 -7 -4 -21q-11 -13 -31.5 -41t-64.5 -95q-55 -82 -55 -91
t113 -213q13 -27 47 -78q8 -7 23 -23q7 -8 7 -25z" />
    <glyph glyph-name="Y" unicode="Y" horiz-adv-x="565" 
d="M6 610q-1 -14 13 -27q9 -8 18 -15q32 -45 60 -125q20 -60 83 -191q-2 -99 0 -173l-14 -18q-14 -19 -16 -36q-2 -19 22 -23q4 -1 32 -1h171q39 0 39 30q0 4 -13.5 21.5t-16.5 24t-3 187.5q0 7 59.5 144t72.5 158q10 15 21 29q15 22 15 31t-50 35.5t-62 26.5q-30 0 -30 -23
q0 -6 1.5 -18.5t1.5 -19.5q0 -25 -30 -109q-33 -90 -51 -90q-16 0 -43 86q-25 80 -25 105q0 6 1.5 17.5t1.5 17.5q0 36 -39 36q-20 0 -50 -10q-24 -8 -48.5 -15t-48.5 -13q-34 -9 -40.5 -15t-21.5 -10q-9 -2 -10 -17z" />
    <glyph glyph-name="Z" unicode="Z" horiz-adv-x="556" 
d="M533 562q0 -7 -9 -15q-32 -32 -48 -65l-117 -228l-34 -62q-26 -49 -26 -59q0 -26 33 -26q4 0 22 5q60 19 111 89q57 -27 57 -47q0 -11 -7 -35q-9 -31 -10 -36q-5 -34 -20 -101l-6 -7q-31 -10 -36 -10q-8 0 -23 13.5t-31 17t-42 3.5h-317q-29 0 -29 35q0 2 127.5 236.5
t127.5 254.5q0 41 -49 41q-28 0 -55.5 -47t-64.5 -47q-25 0 -41.5 15.5t-16.5 40.5q0 67 81 113q70 39 143 39q155 0 243 -69q37 -29 37 -49z" />
    <glyph glyph-name="bracketleft" unicode="[" horiz-adv-x="157" 
d="M143 765q20 0 20 -23v-26q0 -20 -20 -20h-52v-748h52q20 0 20 -20v-26q0 -10 -20 -20l-103 1q-21 9 -21 26v836q0 20 20 20h104z" />
    <glyph glyph-name="backslash" unicode="\" horiz-adv-x="597" 
d="M435 269l25 -149q3 -18 -6 -30t-24 -12q-10 0 -20 6l-134 70l-134 -70q-10 -6 -20 -6q-16 0 -25 12t-6 30l26 149l-109 106q-12 13 -12 27q0 28 32 33l149 21l67 136q11 22 32 22q20 0 31 -22l67 -136l150 -21q32 -5 32 -33q0 -14 -13 -27zM346 390q-21 3 -44 48
q-13 30 -26 59l-40 -82q-13 -21 -37 -27q-45 -6 -91 -12q32 -31 64 -61q17 -18 17 -38q0 -1 -17 -98q34 18 67 36q24 12 37 12t36 -12q34 -18 67 -36q-16 97 -16 98q0 20 17 38q32 30 63 61z" />
    <glyph glyph-name="bracketright" unicode="]" horiz-adv-x="228" 
d="M39 -118q-20 0 -20 23v26q0 20 20 20h52v748h-52q-20 0 -20 20v26q0 11 20 20h103q21 -9 21 -26v-837q0 -20 -20 -20h-104z" />
    <glyph glyph-name="asciicircum" unicode="^" horiz-adv-x="359" 
d="M153 748l-88 -34q-12 -5 -17 3l-4 6q-6 8 3 16l92 84q6 6 14 4q8 2 15 -4l91 -84q9 -8 3 -16l-4 -6q-5 -8 -17 -3z" />
    <glyph glyph-name="underscore" unicode="_" horiz-adv-x="415" 
d="M-4 -77h449v-62h-449v62z" />
    <glyph glyph-name="grave" unicode="`" horiz-adv-x="322" 
d="M242 725l-102 104q-5 6 -13 6q-13 0 -20 -12l-28 -38q-6 -9 -4 -20q1 -11 10 -14l137 -54q13 -5 19 3l5 7q6 9 -4 18z" />
    <glyph glyph-name="a" unicode="a" horiz-adv-x="522" 
d="M491 62q0 -28 -55 -28q-18 0 -54 -18t-54 -18l-19 8q-7 16 -13 50q-58 -52 -139 -52q-64 0 -111 40q-50 41 -50 105q0 78 63 122q43 31 117 44q33 5 67 10q-5 29 -18 54q-18 33 -42 33q-18 0 -24 -24q-9 -40 -11 -45q-13 -24 -49 -24q-30 0 -49 21.5t-19 51.5q0 52 49 84
q43 29 98 29q108 0 170 -66q47 -50 76 -153q23 -88 45 -176zM278 157q0 24 -18 46t-42 22q-23 0 -38.5 -15.5t-15.5 -37.5q0 -27 17.5 -48.5t42.5 -21.5q21 0 37.5 17t16.5 38z" />
    <glyph glyph-name="b" unicode="b" horiz-adv-x="538" 
d="M506 272q0 -150 -155 -224q-118 -56 -285 -56q-13 0 -32.5 16t-19.5 29q0 1 11.5 26.5t11.5 34.5l1 467q0 15 -13 39t-13 30q0 14 29 20q71 14 138 37q5 1 9 1q34 0 34 -96q0 -27 -2.5 -59.5t-2.5 -29.5l6 -34q48 21 78 21q90 0 147.5 -65.5t57.5 -156.5zM319 203v108
q0 75 -54 75q-51 0 -50 -58l2 -163q0 -56 41 -56q30 0 47 33q14 27 14 61z" />
    <glyph glyph-name="c" unicode="c" horiz-adv-x="456" 
d="M430 126q0 -67 -62 -104q-51 -30 -121 -30q-100 0 -174.5 72t-74.5 172q0 86 47 158q51 79 132 90t137 1l56 18q24 8 36 -63q8 -52 6 -88l-1 -10q-9 -9 -14 -12q-9 -7 -17 -7q-18 5 -61 40q-37 30 -67 30q-50 0 -81.5 -30.5t-31.5 -82.5q0 -72 66 -112q56 -34 132 -34
q13 0 39 4.5t39 4.5q15 0 15 -17z" />
    <glyph glyph-name="d" unicode="d" horiz-adv-x="541" 
d="M487 40q0 -19 -68 -32q-45 -7 -90 -15q-8 -4 -15 -2t-6 11q-7 17 -14 26q-62 -30 -89 -30q-83 0 -143.5 67.5t-60.5 150.5q0 97 60 180q65 92 157 92q22 0 69 -23l3 3l2 10q-1 46 -14 88t-13 41q0 27 76 48q61 17 101 17q16 0 23 -6q1 -4 1 -58q0 -389 3 -478
q1 -16 9.5 -46.5t8.5 -43.5zM246 383q-28 0 -43 -30q-13 -25 -13 -56v-118q0 -31 15.5 -52t44.5 -21q46 0 46 66q0 27 -1 70q-1 56 -1 69q-1 72 -48 72z" />
    <glyph glyph-name="e" unicode="e" horiz-adv-x="520" 
d="M480 156q0 -71 -88 -115q-72 -35 -149 -35q-99 0 -164.5 69t-65.5 168q0 107 68.5 183t174.5 76q81 0 147.5 -63.5t66.5 -145.5q0 -25 -118 -61q-74 -20 -149 -40l-3 -11q0 -31 25 -52t57 -21q42 0 72 22q15 12 38 44q19 24 31 26q8 0 50 -28zM308 341q0 62 -56 62
q-24 0 -38 -17t-14 -42q0 -21 15 -39t37 -18q23 0 39.5 15.5t16.5 38.5z" />
    <glyph glyph-name="f" unicode="f" horiz-adv-x="372" 
d="M338 472q-4 -27 -8 -53q-6 -35 -27 -42l-45 14l-19 -1l1 -278q0 -35 22 -73q5 -7 5 -14q0 -14 -17 -18q-22 -9 -120 -9q-85 0 -85 33q0 12 9.5 35.5t9.5 36.5v289q-10 6 -41 2l-18 10q-8 35 -8 64q0 21 26 21q9 0 28 -4l14 3q-5 83 37 142q45 64 125 64q42 0 75.5 -25.5
t33.5 -66.5q0 -28 -23 -50.5t-51 -22.5q-36 0 -72 42l-1 -31q0 -51 62 -51h21q14 1 21 1q27 0 41 -7z" />
    <glyph glyph-name="g" unicode="g" horiz-adv-x="562" 
d="M523 419q0 -24 -15 -41.5t-39 -17.5q-34 0 -45.5 34.5t-34.5 34.5l-14 -8q28 -34 39 -62.5t11 -73.5q0 -94 -73 -144q-62 -43 -159 -43q-6 0 -14.5 -11.5t-8.5 -18.5q0 -31 31 -31q27 0 88.5 19t95.5 19q56 0 90 -23q39 -27 39 -81q0 -95 -133 -145q-99 -37 -213 -37
q-67 0 -115 20q-64 28 -64 85q0 30 19 54t49 24q73 0 73 -79q0 -30 36 -30q41 0 81 13q55 17 55 49q0 25 -60 25q-16 0 -35 -2q-11 -1 -21 -2q-41 -1 -82 25q-45 29 -45 69q0 41 40 82q-33 36 -66 73q-27 38 -27 94q0 89 59 142.5t149 53.5q49 0 90 -15q61 28 114 28
q36 0 69 -20q36 -24 36 -59zM273 221q0 12 -24.5 81.5t-32.5 77.5q-12 12 -26 12q-13 0 -23.5 -9.5t-10.5 -23.5q0 -6 22 -73.5t26 -74.5q13 -24 33 -24q36 0 36 34z" />
    <glyph glyph-name="h" unicode="h" horiz-adv-x="538" 
d="M508 52q0 -22 -72 -44q-61 -19 -94 -19l-29 21q-4 6 -1 23q5 22 5 24q0 43 -14 117q-21 112 -22 117q-5 38 -10 49q-10 26 -37 26q-17 0 -30 -13t-13 -30l3 -224q0 -15 10 -37.5t10 -32.5q0 -33 -92 -33q-20 0 -46.5 1.5t-27.5 1.5q-36 0 -48 33q18 40 18 90q0 4 1 65.5
t1 110.5q0 256 -25 310q10 24 22.5 28.5t49.5 8.5q33 4 52 13q28 15 39 15q32 0 32 -79q0 -17 -1.5 -49.5t-1.5 -45.5q0 -37 9 -43q41 30 75 30q77 0 125 -66q36 -50 58 -146q14 -73 29 -146q1 -8 13 -40.5t12 -35.5z" />
    <glyph glyph-name="i" unicode="i" horiz-adv-x="270" 
d="M198 592q0 -38 -26 -59.5t-65 -21.5q-8 0 -33 13q1 7 -6 10.5l-13 6.5q-18 15 -18 54q0 30 24 54t54 24q33 0 58 -24.5t25 -56.5zM230 24q-13 -30 -31 -30h-158q-11 0 -18.5 9t-7.5 21q0 6 8 23.5t8 26.5v304l-16 53q-10 31 61 31q16 0 52.5 18t46.5 18q24 0 30 -21
q2 -9 2 -38v-367z" />
    <glyph glyph-name="j" unicode="j" horiz-adv-x="291" 
d="M215 598q0 -30 -23 -55t-52 -25q-34 0 -57 22.5t-23 55.5q0 81 79 81q31 0 53.5 -23.5t22.5 -55.5zM232 463l-3 -493q-1 -172 -128 -172q-41 0 -72 29.5t-31 70.5q0 59 68 59q9 0 18 -2l2 4q-13 18 -19 28q-12 19 -12 30q-5 63 -3 158q2 78 4 157q0 24 -12 52t-12 34
q0 21 16 33t37 12q36 0 103 32q44 -14 44 -32z" />
    <glyph glyph-name="k" unicode="k" horiz-adv-x="534" 
d="M479 24l-23 -27q-36 -8 -71 -15q-47 -10 -70 -10q-16 0 -29 11q-27 174 -58 202l-3 1l-7 -2q-18 -16 -18 -71q0 -17 9 -47.5t9 -42.5q0 -13 -9.5 -23t-21.5 -10h-88q-72 1 -79 5l-17 23q0 7 10.5 25t10.5 32v490q0 12 -8 31.5t-8 27.5q0 26 67 40q49 10 94 10
q16 0 37 -37q-6 -31 -6 -35q0 -20 -2 -87q-1 -56 0 -90q2 -49 10 -85l8 -4q9 2 58 52.5t56 62.5q4 14 17 39l25 7q54 -17 87 -40l5 -31l-3 -11l-52 -26q-31 -19 -31 -42q0 -9 33 -134q32 -121 38 -140q3 -7 16.5 -23t13.5 -26z" />
    <glyph glyph-name="l" unicode="l" horiz-adv-x="278" 
d="M222 14l-21 -26l-31 -1h-57q-40 0 -88 5l-17 26q11 22 21 61l6 468q0 9 -7.5 27t-7.5 26q0 26 39 32q29 2 59 4q9 2 34 14q22 10 31 10q29 0 29 -40q0 -66 -7 -243q-6 -160 -4 -242q1 -64 1 -66q3 -19 20 -55z" />
    <glyph glyph-name="m" unicode="m" horiz-adv-x="823" 
d="M783 44q0 -22 -67 -43q-58 -19 -89 -19q-37 0 -37 26q0 7 2.5 21.5t2.5 20.5q0 32 -18 151q-20 128 -31 147q-26 15 -31 15q-49 0 -49 -160q0 -34 2.5 -75.5l2.5 -41.5q-1 -13 9 -38t10 -24q0 -10 -7.5 -18.5t-17.5 -8.5h-148q-41 0 -41 29q0 7 10 32.5t10 38.5l3 179
q2 94 -55 94q-13 0 -40 -25q-8 -12 -9 -126v-139q-1 -8 9 -28.5t10 -23.5q0 -11 -10.5 -20t-21.5 -9l-112 1q-70 1 -70 29q0 2 8 19t9 23q2 50 5 300q0 21 -16 55l19 29q38 7 40 5l108 30q19 -4 24 -14q6 -14 11 -28q35 38 77 38q62 0 126 -61q59 56 129 56q96 0 145 -74
q34 -52 52 -162q25 -149 30 -163q1 -5 8.5 -17.5t7.5 -20.5zM463 211q0 3 -4 6q-1 -1 -1 -4v-1q0 -2 1 -2t4 1z" />
    <glyph glyph-name="n" unicode="n" horiz-adv-x="546" 
d="M516 59q2 -6 2 -11q0 -14 -21 -21q-5 -3 -52 -8q-13 -2 -45 -13.5t-44 -11.5q-8 0 -22 9.5t-14 16.5q0 5 4 16t4 16q0 47 -19 132q-25 108 -28 133q-8 55 -45 55q-46 0 -45 -44q0 -62 1 -123q2 -121 13 -144q7 -9 15 -30l-22 -27l-159 -3q-13 0 -22 8.5t-9 21.5
q0 5 8.5 29t7.5 37q0 25 1 94q1 64 0 100q-2 56 -10 96q-1 6 -8 20.5t-7 23.5q0 33 83 33q14 0 40 15t39 15q18 0 26 -18.5t11 -18.5q39 32 79 32q90 0 136 -87q28 -53 54 -183q25 -124 48 -160z" />
    <glyph glyph-name="o" unicode="o" horiz-adv-x="553" 
d="M506 241q0 -109 -78.5 -179t-187.5 -70q-100 0 -170 75t-70 175q0 107 79 178q76 69 184 69q98 0 170.5 -74.5t72.5 -173.5zM338 144q0 15 -22 76q-16 40 -31 81.5t-22 53.5q-18 29 -46 29q-21 0 -35 -14.5t-14 -35.5q0 -19 29.5 -102t42.5 -105q19 -32 47 -32
q20 0 35.5 15t15.5 34z" />
    <glyph glyph-name="p" unicode="p" horiz-adv-x="533" 
d="M494 217q0 -83 -52 -152q-57 -74 -137 -74q-38 0 -91 27l-8 -12q7 -22 7 -72q1 -46 11 -74q-8 -28 -20 -31q-108 -27 -133 -27q-12 0 -45 29l-2 9q0 12 5.5 40t5.5 42q0 -22 2 226q1 136 -9 224q-1 11 -10.5 34t-9.5 29q0 17 68 35l92 24q31 -7 39 -35q30 23 70 23
q87 0 155 -90q62 -84 62 -175zM308 248q-1 130 -60 130q-47 0 -45 -85l3 -141q1 -20 13.5 -37.5t32.5 -17.5q56 0 56 85v66z" />
    <glyph glyph-name="q" unicode="q" horiz-adv-x="529" 
d="M295 -191q-14 0 -26 13t-12 27q0 18 11.5 56t11.5 58l-6 52q-54 -18 -88 -18q-76 0 -135 71q-55 67 -55 145q0 108 57 188q64 89 169 89q69 0 140 -49l40 35l46 -12q14 -8 14 -43q0 -93 -1.5 -279.5t-1.5 -279.5q0 -19 -73 -37q-61 -16 -91 -16zM290 312q0 70 -43 70
q-63 0 -63 -153q0 -57 4 -77q11 -47 49 -47q32 0 43 26q6 15 7 53q3 117 3 128z" />
    <glyph glyph-name="r" unicode="r" horiz-adv-x="434" 
d="M393 387q0 -29 -16 -53q-19 -29 -50 -36q-38 -1 -50 3q-33 9 -29 45q-29 -12 -47 -67q-15 -48 -13 -84l7 -109q9 -26 20 -59q-6 -28 -43 -28q1 0 -25.5 -1.5t-47.5 -1.5q-98 0 -98 34q0 4 11.5 24.5t11.5 34.5l-1 290q0 19 -10.5 41.5t-10.5 28.5q0 26 35 26q53 0 127 28
q25 2 30 -29q8 -45 9 -46q23 20 47.5 39.5t55.5 19.5q39 0 63 -30t24 -70z" />
    <glyph glyph-name="s" unicode="s" horiz-adv-x="502" 
d="M462 164q0 -82 -80 -131q-67 -41 -155 -41q-16 0 -47.5 4.5t-46.5 4.5q-10 0 -33 -7t-33 -7q-28 0 -44 20q-5 28 -12 67q-1 5 -10 38t-9 34q0 16 37 32q19 -7 82 -53q45 -32 100 -32q90 0 90 43q0 20 -74 35q-98 20 -138 42q-74 42 -74 128q0 93 99 128q61 22 174 22
q23 0 56 14q34 -9 43 -56q3 -15 3 -77q0 -9 -13.5 -18t-23.5 -9q-7 0 -41 28.5t-67 28.5q-50 0 -50 -31q0 -21 69 -40q93 -26 128 -47q70 -43 70 -120z" />
    <glyph glyph-name="t" unicode="t" horiz-adv-x="401" 
d="M377 467q0 -9 -2 -44q-2 -28 -1 -45q3 -10 -3 -18.5t-17 -8.5q-7 0 -15 4q-26 15 -71 11l-1 -210q0 -22 7 -26l9 -2q15 16 46 34l24 -14t17 -17q-26 -70 -65 -102q-44 -37 -115 -37q-98 0 -97 135l1 230q0 18 -18 18q-5 0 -15 -1t-15 -1q-15 0 -20.5 9t-5.5 62
q0 19 15 27.5t30 15.5q38 21 70 73q37 60 60 79q14 15 29 7q6 0 41 -17q12 -11 3 -143q33 2 46 2q47 0 39 1q24 -3 24 -22z" />
    <glyph glyph-name="u" unicode="u" horiz-adv-x="552" 
d="M501 464l-8 -18t-8 -25l-6 -291q-1 -15 7.5 -41.5t8.5 -37.5q0 -24 -53 -32l-3 1q-35 -6 -108 -29q-16 2 -21.5 16t-10.5 28q-18 -11 -35.5 -21t-42.5 -10q-86 0 -130 75q-30 52 -47 161q-19 129 -27 151q-11 34 -11 45q0 24 11 32q6 5 22 6q12 1 22.5 2t47.5 11
q32 9 45 9q11 0 24.5 -8.5t13.5 -18.5q0 -6 -3.5 -21t-3.5 -22q0 -26 9 -77t9 -76q0 -48 13 -94q17 -63 50 -63q39 0 40 44l3 226q0 7 -18 53q8 28 37 37l14 4q95 13 122 13q8 0 22.5 -10.5t14.5 -18.5z" />
    <glyph glyph-name="v" unicode="v" horiz-adv-x="460" 
d="M421 454q0 -9 -13 -24q-15 -18 -18 -24q-9 -23 -46 -160t-37 -153q0 -23 12 -43l-20 -35q-103 -29 -169 -29q-23 0 -26 16q0 -3 0 35q0 41 -45 199q-44 152 -67 199q0 16 3 23q6 15 24 16q42 6 124 25q11 3 18 3q27 0 26 -72q0 -35 15 -85q17 -53 38 -75l13 7
q6 16 22.5 75t16.5 69q0 8 -5.5 22.5t-5.5 22.5q0 29 33 28q16 -7 50 -10.5t50 -9.5z" />
    <glyph glyph-name="w" unicode="w" horiz-adv-x="683" 
d="M640 439q-36 -44 -78.5 -200t-35.5 -215q4 -4 4 -8q0 -9 -16 -14q-70 -19 -114 -19q-17 0 -21 4q-14 10 -29 105q-14 90 -30 90q-31 0 -31 -159q0 -14 -58 -27q-47 -11 -73 -11q-12 -3 -19 2t-6 13q0 45 -37 195q-37 146 -59 194q-15 17 -32 48q-2 5 -2 9q0 19 23 26
q138 25 147 25q38 0 38 -34q0 -4 -1 -14v-16q0 -73 36 -107l17 9q13 26 13 55q0 9 -1.5 29t-1.5 32q0 21 16 25h33q17 0 50 7t50 7q21 0 21 -20q0 -4 -1.5 -12.5t-1.5 -13.5q0 -53 26 -115l12 -8l12 6q24 41 24 90q0 8 -5.5 21t-5.5 20q0 13 10 23t23 10q12 0 43 -7
q37 -9 45 -10q15 -10 16 -12t0 -23z" />
    <glyph glyph-name="x" unicode="x" horiz-adv-x="538" 
d="M484 34q0 -26 -71 -41l-98 -16l-34 15q-8 34 -16 67q-15 51 -39 51q-30 0 -54.5 -63t-55.5 -63q-13 0 -37.5 9t-38.5 9q-23 0 -23 26q0 17 9 22q34 16 78 78q33 47 66 95v5q0 27 -51 108t-79 98l-6 13q-4 4 -4 9q0 13 22 21q12 3 74 3q16 0 48 7.5t49 7.5q5 0 25 -43
q22 -48 31 -59q11 -3 12 -3q16 0 32 34q14 29 14 48q0 30 28 28l7 -1q22 -2 93 -29l9 -22q0 -10 -12.5 -18t-24.5 -15q-17 -16 -53 -64q-39 -51 -43 -67q6 -22 53 -110t62 -107q8 -8 17 -15q11 -10 11 -18z" />
    <glyph glyph-name="y" unicode="y" horiz-adv-x="501" 
d="M466 444q0 -12 -11 -25q-15 -20 -16.5 -23t-25.5 -66q-34 -96 -69 -193q-42 -116 -77 -189q-64 -134 -163 -134q-48 0 -80.5 29.5t-32.5 77.5q0 30 22 52t52 22q20 0 37.5 -15t17.5 -35q0 -13 -13.5 -24t-13.5 -18q0 -12 13 -12q34 0 67 93q-45 134 -141 399q-3 7 -19 29
q-14 18 -14 28q0 28 71 44q50 8 99 16q7 2 11 2q17 0 20 -22q0 -37 21 -110q24 -82 48 -98h4h5q11 8 35.5 73t21.5 79q-7 43 -7 40q0 11 14 20t26 9q21 0 57 -15q41 -17 41 -34z" />
    <glyph glyph-name="z" unicode="z" horiz-adv-x="476" 
d="M429 147q0 -20 -36 -139q-28 -24 -45 -24q-5 0 -72 11.5t-103 11.5q-26 0 -74.5 -5t-74.5 -5q-33 0 -33 35q43 66 107 174q84 142 84 165q0 10 -9 19t-20 9q-20 0 -40 -33t-46 -33q-22 0 -38 16t-16 38q0 107 200 107q46 0 119 -17q93 -22 93 -50q0 -11 -18 -24
q-23 -16 -25 -19q-13 -16 -79.5 -130.5t-66.5 -122.5q0 -30 40 -30q30 0 59 30q23 25 47 49l6 1q11 0 26 -12t15 -22z" />
    <glyph glyph-name="braceleft" unicode="{" horiz-adv-x="243" 
d="M213 742v-26q0 -13 -18 -13h-24q-32 -9 -32 -27q0 -3 1 -8t1 -7v-238q-7 -36 -20 -54t-42 -37q63 -41 62 -108v-245q-3 -14 21 -33l31 2q20 2 20 -20v-26q0 -10 -20 -20l-73 1q-52 3 -52 75l1 269q3 28 -13 54q-19 29 -52 36q-9 2 -9 5q0 4 9 8q30 13 51 45q19 29 14 48
l-4 274q0 25 24 47.5t58 22.5q17 0 23 -1t24.5 -1t18.5 -23z" />
    <glyph glyph-name="bar" unicode="|" horiz-adv-x="604" 
d="M435 269l25 -149q3 -18 -6 -30t-24 -12q-10 0 -20 6l-134 70l-134 -70q-10 -6 -20 -6q-16 0 -25 12t-6 30l26 149l-109 106q-12 13 -12 27q0 28 32 33l149 21l67 136q11 22 32 22q20 0 31 -22l67 -136l150 -21q32 -5 32 -33q0 -14 -13 -27z" />
    <glyph glyph-name="braceright" unicode="}" horiz-adv-x="243" 
d="M15 765q-20 0 -20 -23v-26q0 -13 18 -13h24q32 -9 32 -27q0 -3 -1 -8t-1 -7v-238q8 -36 21 -54t41 -37q-62 -41 -62 -108v-245q3 -14 -21 -33l-31 2q-20 2 -20 -20v-26q0 -10 20 -20l74 1q51 3 51 75l-1 269q-3 28 14.5 55.5t51.5 34.5q8 2 8 5q0 4 -8 8q-30 13 -51 45
q-20 29 -15 48l4 274q0 25 -24 47.5t-58 22.5q-17 0 -23 -1t-23 -1z" />
    <glyph glyph-name="asciitilde" unicode="~" horiz-adv-x="613" 
d="M238 823q28 0 63 -19t73 -19q17 0 27 13t14 14q18 1 20.5 -7t5.5 -17q-26 -39 -44 -52q-24 -17 -63 -17q-16 0 -54.5 18.5t-67.5 18.5q-11 0 -24.5 -14.5t-25.5 -14.5q-20 0 -20 15q0 21 34 51t62 30z" />
    <glyph glyph-name="Adieresis" unicode="&#xc4;" horiz-adv-x="629" 
d="M585 52q0 -27 -12 -37q-8 -6 -42 -15q-24 -6 -48 -11q-7 -2 -49 -20q-32 -13 -50 -13q-17 0 -34 7q-22 8 -22 22q0 9 5 26.5t5 25.5q0 27 -11 44q-51 -32 -68 -32q-20 0 -46 23t-46 22h-6q-17 -19 -17 -52q0 -7 4.5 -22t4.5 -22q0 -28 -31 -28q-10 0 -54 16
q-40 16 -50.5 21.5t-10.5 20.5q0 9 11 25q14 20 16 24q9 20 17 51q6 26 13 52q28 95 57 189q44 149 44 172q0 13 -11.5 31.5t-11.5 29.5q0 29 28 39q17 6 60 7q39 0 50 6q10 2 28 6q6 2 40 16t36 14q16 0 34 -9t18 -24q0 -6 -1 -19.5t-1 -20.5q0 -35 20 -111q15 -56 30 -113
q20 -80 46 -181q6 -19 17 -56q3 -10 38 -104zM299 205q0 26 -16 83q-18 65 -35 65q-16 0 -34 -59q-9 -39 -19 -77q14 -1 45 -12q8 -6 17.5 -13t17.5 -7t16 6t8 14zM324 763q0 19 12.5 31.5t30.5 12.5t30 -12.5t12 -31.5q0 -18 -12 -31t-30 -13t-30.5 13t-12.5 31zM184 763
q0 19 12.5 31.5t30.5 12.5t30 -12.5t12 -31.5q0 -18 -12 -31t-30 -13t-30.5 13t-12.5 31z" />
    <glyph glyph-name="Aring" unicode="&#xc5;" horiz-adv-x="629" 
d="M585 52q0 -27 -12 -37q-8 -6 -42 -15q-24 -6 -48 -11q-7 -2 -49 -20q-32 -13 -50 -13q-17 0 -34 7q-22 8 -22 22q0 9 5 26.5t5 25.5q0 27 -11 44q-51 -32 -68 -32q-20 0 -46 23t-46 22h-6q-17 -19 -17 -52q0 -7 4.5 -22t4.5 -22q0 -28 -31 -28q-10 0 -54 16
q-40 16 -50.5 21.5t-10.5 20.5q0 9 11 25q14 20 16 24q9 20 17 51q6 26 13 52q28 95 57 189q44 149 44 172q0 13 -11.5 31.5t-11.5 29.5q0 29 28 39q17 6 60 7q39 0 50 6q10 2 28 6q6 2 40 16t36 14q16 0 34 -9t18 -24q0 -6 -1 -19.5t-1 -20.5q0 -35 20 -111q15 -56 30 -113
q20 -80 46 -181q6 -19 17 -56q3 -10 38 -104zM299 205q0 26 -16 83q-18 65 -35 65q-16 0 -34 -59q-9 -39 -19 -77q14 -1 45 -12q8 -6 17.5 -13t17.5 -7t16 6t8 14zM280 831q29 0 50 -20.5t21 -48.5q0 -29 -21 -49t-50 -20t-49.5 20t-20.5 49q0 28 20.5 48.5t49.5 20.5z
M280 798q-15 0 -26 -11t-11 -25q0 -15 11 -25.5t26 -10.5q16 0 27 10.5t11 25.5q0 14 -11 25t-27 11z" />
    <glyph glyph-name="Ccedilla" unicode="&#xc7;" horiz-adv-x="554" 
d="M515 488q0 -12 -14 -21.5t-24 -9.5q-16 0 -46 25q-46 36 -61 44q-40 25 -80 25q-59 0 -90 -51q-24 -40 -24 -93q0 -111 83 -177q74 -58 177 -58h12q11 1 13 1q23 0 31 -2q16 -6 16 -27q0 -72 -73 -120q-60 -40 -121 -40h-10q-145 0 -229 122q-71 104 -71 238
q0 129 66 221q78 106 213 106l65 -6q16 0 40 19t29 19q10 0 26.5 -9t18.5 -15q4 -24 16 -87q4 -18 21 -60q16 -38 16 -44zM294 -10l-11 -28q109 -9 109 -75q0 -42 -32.5 -64t-82.5 -22q-22 0 -47 11q-31 12 -31 29q0 20 24 20q8 0 20.5 -6t29.5 -6q37 0 37 36q0 31 -37 41.5
t-37 29.5q0 1 14 34h44z" />
    <glyph glyph-name="Eacute" unicode="&#xc9;" horiz-adv-x="563" 
d="M527 168q0 -18 -16 -99t-23 -93q-9 -15 -42 -15q3 0 -25 18.5t-53 18.5l-315 2q-52 0 -52 30l17 35t15 49q3 5 3 437q0 25 -16 51.5t-16 38.5q0 19 13 25q5 2 29 5h32h146q97 -1 145 -1q14 0 40.5 19.5t31.5 19.5q33 0 40 -25q4 -30 14 -89q6 -23 12 -45q7 -30 7 -46
q0 -11 -15.5 -25t-26.5 -14q-8 0 -43 44q-38 47 -66 53h-68q-39 0 -39 -48q0 -43 5 -54q49 6 40 6q39 0 70 -36q23 -34 46 -69q9 -14 33 -19q18 -4 18 -22q0 -32 -26 -56.5t-58 -24.5q-41 0 -56 32q-7 31 -15 62.5t-32 31.5q-18 0 -23 -10q-3 -5 -3 -25.5t-2 -89.5
q-1 -54 -1 -88q0 -32 17 -41q11 -6 47 -6q47 0 83 27q20 15 49 52q21 27 32 27q13 0 30 -15t17 -28zM181 725l102 104q5 6 13 6q13 0 21 -12l27 -38q6 -9 4 -20q-1 -11 -10 -14l-137 -54q-13 -5 -19 3l-4 7q-7 9 3 18z" />
    <glyph glyph-name="Ntilde" unicode="&#xd1;" horiz-adv-x="613" 
d="M573 644q0 -7 -15.5 -26t-15.5 -32v-472l11 -85q2 -10 -12 -19.5t-25 -9.5h-75q-9 0 -20 11t-11 21q0 8 11.5 26t11.5 31q0 18 -96 127q-126 141 -141 141q-12 0 -18.5 -22.5t-32.5 -170.5q-17 -92 -17 -99q0 -9 4.5 -27t4.5 -26q0 -16 -15 -16q-13 0 -56 5t-53 8
q-18 5 -18 23q0 1 15.5 39.5t16.5 53.5q10 55 26 149q2 11 21 102q15 69 15 96q0 34 -49 67q-14 7 -27.5 14t-13.5 25q0 28 17 38q24 15 71 31q53 18 73 28q11 7 21 13q14 9 22 9q28 0 25 1q8 -2 13 -18q13 -36 45 -74q30 -32 59 -65q50 -59 67 -59q22 0 22 49q0 63 -6 75
q-2 3 -15 20q-11 14 -11 19q0 8 10 18t17 10h115q9 0 19 -10.5t10 -18.5zM238 823q28 0 63 -19t73 -19q17 0 27 13t14 14q18 1 20.5 -7t5.5 -17q-26 -39 -44 -52q-24 -17 -63 -17q-16 0 -54.5 18.5t-67.5 18.5q-11 0 -24.5 -14.5t-25.5 -14.5q-20 0 -20 15q0 21 34 51t62 30
z" />
    <glyph glyph-name="Odieresis" unicode="&#xd6;" horiz-adv-x="684" 
d="M635 315q0 -133 -92.5 -225.5t-227.5 -92.5q-142 0 -229 102q-81 97 -81 241q0 139 85 235q89 100 227 100q112 0 204.5 -80.5t109.5 -191.5q4 -29 4 -88zM433 181q0 40 -51 184q-53 149 -80 173q-19 17 -46 17q-22 0 -37.5 -18t-15.5 -41q0 -35 48.5 -175.5t70.5 -173
t58 -32.5q25 0 39 20t14 46zM344 763q0 19 12.5 31.5t30.5 12.5t30 -12.5t12 -31.5q0 -18 -12 -31t-30 -13t-30.5 13t-12.5 31zM194 763q0 19 12.5 31.5t30.5 12.5t30 -12.5t12 -31.5q0 -18 -12 -31t-30 -13t-30.5 13t-12.5 31z" />
    <glyph glyph-name="Udieresis" unicode="&#xdc;" horiz-adv-x="585" 
d="M525 174q0 -47 -23 -83q-36 -57 -94 -78q-43 -16 -123 -16q-123 0 -194 55q-79 61 -79 181l8 106l16 214v41q-20 45 -20 54q0 12 21 22.5t34 9.5h2q14 -1 71 -12q44 -8 71 -8q59 0 59 -44q0 -6 -7 -22q-9 -20 -10 -23q-7 -23 -9 -72q-1 -37 -3 -74l-12 -205q0 -48 25 -77
q27 -32 74 -32q88 0 88 109q0 48 -5 182q-7 168 -14 188q-2 4 -13 22q-9 14 -9 20q0 36 41 36q6 0 19.5 -2.5t19.5 -2.5q42 0 40 0q21 -3 21 -25q0 -11 -5 -32.5t-4 -34.5q14 -268 14 -397zM314 763q0 19 12.5 31.5t30.5 12.5t30 -12.5t12 -31.5q0 -18 -12 -31t-30 -13
t-30.5 13t-12.5 31zM164 763q0 19 12.5 31.5t30.5 12.5t30 -12.5t12 -31.5q0 -18 -12 -31t-30 -13t-30.5 13t-12.5 31z" />
    <glyph glyph-name="aacute" unicode="&#xe1;" horiz-adv-x="536" 
d="M511 62q0 -28 -55 -28q-18 0 -54 -18t-54 -18l-19 8q-7 16 -13 50q-58 -52 -139 -52q-64 0 -111 40q-50 41 -50 105q0 78 63 122q43 31 117 44q33 5 67 10q-5 29 -18 54q-18 33 -42 33q-18 0 -24 -24q-9 -40 -11 -45q-13 -24 -49 -24q-30 0 -49 21.5t-19 51.5q0 52 49 84
q43 29 98 29q108 0 170 -66q47 -50 76 -153q23 -88 45 -176zM298 157q0 24 -18 46t-42 22q-23 0 -38.5 -15.5t-15.5 -37.5q0 -27 17.5 -48.5t42.5 -21.5q21 0 37.5 17t16.5 38zM151 555l102 104q5 6 13 6q13 0 21 -12l27 -38q6 -9 4 -20q-1 -11 -10 -14l-137 -54
q-13 -5 -19 3l-4 7q-7 9 3 18z" />
    <glyph glyph-name="agrave" unicode="&#xe0;" horiz-adv-x="536" 
d="M511 62q0 -28 -55 -28q-18 0 -54 -18t-54 -18l-19 8q-7 16 -13 50q-58 -52 -139 -52q-64 0 -111 40q-50 41 -50 105q0 78 63 122q43 31 117 44q33 5 67 10q-5 29 -18 54q-18 33 -42 33q-18 0 -24 -24q-9 -40 -11 -45q-13 -24 -49 -24q-30 0 -49 21.5t-19 51.5q0 52 49 84
q43 29 98 29q108 0 170 -66q47 -50 76 -153q23 -88 45 -176zM298 157q0 24 -18 46t-42 22q-23 0 -38.5 -15.5t-15.5 -37.5q0 -27 17.5 -48.5t42.5 -21.5q21 0 37.5 17t16.5 38zM280 565l-102 104q-5 6 -13 6q-13 0 -20 -12l-27 -38q-7 -9 -5 -20q1 -11 10 -14l137 -54
q13 -5 19 3l5 7q6 9 -4 18z" />
    <glyph glyph-name="acircumflex" unicode="&#xe2;" horiz-adv-x="536" 
d="M511 62q0 -28 -55 -28q-18 0 -54 -18t-54 -18l-19 8q-7 16 -13 50q-58 -52 -139 -52q-64 0 -111 40q-50 41 -50 105q0 78 63 122q43 31 117 44q33 5 67 10q-5 29 -18 54q-18 33 -42 33q-18 0 -24 -24q-9 -40 -11 -45q-13 -24 -49 -24q-30 0 -49 21.5t-19 51.5q0 52 49 84
q43 29 98 29q108 0 170 -66q47 -50 76 -153q23 -88 45 -176zM298 157q0 24 -18 46t-42 22q-23 0 -38.5 -15.5t-15.5 -37.5q0 -27 17.5 -48.5t42.5 -21.5q21 0 37.5 17t16.5 38zM223 568l-88 -34q-12 -5 -17 3l-4 6q-6 8 3 16l92 84q6 6 14 4q8 2 15 -4l91 -84q9 -8 3 -16
l-4 -6q-5 -8 -17 -3z" />
    <glyph glyph-name="adieresis" unicode="&#xe4;" horiz-adv-x="536" 
d="M511 62q0 -28 -55 -28q-18 0 -54 -18t-54 -18l-19 8q-7 16 -13 50q-58 -52 -139 -52q-64 0 -111 40q-50 41 -50 105q0 78 63 122q43 31 117 44q33 5 67 10q-5 29 -18 54q-18 33 -42 33q-18 0 -24 -24q-9 -40 -11 -45q-13 -24 -49 -24q-30 0 -49 21.5t-19 51.5q0 52 49 84
q43 29 98 29q108 0 170 -66q47 -50 76 -153q23 -88 45 -176zM298 157q0 24 -18 46t-42 22q-23 0 -38.5 -15.5t-15.5 -37.5q0 -27 17.5 -48.5t42.5 -21.5q21 0 37.5 17t16.5 38zM254 583q0 19 12.5 31.5t30.5 12.5t30 -12.5t12 -31.5q0 -18 -12 -31t-30 -13t-30.5 13
t-12.5 31zM114 583q0 19 12.5 31.5t30.5 12.5t30 -12.5t12 -31.5q0 -18 -12 -31t-30 -13t-30.5 13t-12.5 31z" />
    <glyph glyph-name="atilde" unicode="&#xe3;" horiz-adv-x="536" 
d="M511 62q0 -28 -55 -28q-18 0 -54 -18t-54 -18l-19 8q-7 16 -13 50q-58 -52 -139 -52q-64 0 -111 40q-50 41 -50 105q0 78 63 122q43 31 117 44q33 5 67 10q-5 29 -18 54q-18 33 -42 33q-18 0 -24 -24q-9 -40 -11 -45q-13 -24 -49 -24q-30 0 -49 21.5t-19 51.5q0 52 49 84
q43 29 98 29q108 0 170 -66q47 -50 76 -153q23 -88 45 -176zM298 157q0 24 -18 46t-42 22q-23 0 -38.5 -15.5t-15.5 -37.5q0 -27 17.5 -48.5t42.5 -21.5q21 0 37.5 17t16.5 38zM178 633q28 0 63 -19t73 -19q17 0 27 13t14 14q18 1 20.5 -7t5.5 -17q-26 -39 -44 -52
q-24 -17 -63 -17q-16 0 -54.5 18.5t-67.5 18.5q-11 0 -24.5 -14.5t-25.5 -14.5q-20 0 -20 15q0 21 34 51t62 30z" />
    <glyph glyph-name="aring" unicode="&#xe5;" horiz-adv-x="536" 
d="M511 62q0 -28 -55 -28q-18 0 -54 -18t-54 -18l-19 8q-7 16 -13 50q-58 -52 -139 -52q-64 0 -111 40q-50 41 -50 105q0 78 63 122q43 31 117 44q33 5 67 10q-5 29 -18 54q-18 33 -42 33q-18 0 -24 -24q-9 -40 -11 -45q-13 -24 -49 -24q-30 0 -49 21.5t-19 51.5q0 52 49 84
q43 29 98 29q108 0 170 -66q47 -50 76 -153q23 -88 45 -176zM298 157q0 24 -18 46t-42 22q-23 0 -38.5 -15.5t-15.5 -37.5q0 -27 17.5 -48.5t42.5 -21.5q21 0 37.5 17t16.5 38zM220 664q27 0 45.5 -18t18.5 -44t-18.5 -44.5t-45.5 -18.5q-26 0 -45 18.5t-19 44.5t19 44
t45 18zM220 634q-14 0 -24 -9.5t-10 -22.5q0 -14 10 -23.5t24 -9.5q15 0 24.5 9.5t9.5 23.5q0 13 -9.5 22.5t-24.5 9.5z" />
    <glyph glyph-name="ccedilla" unicode="&#xe7;" horiz-adv-x="456" 
d="M237 -27q92 -9 94 -75q1 -43 -31 -67q-28 -19 -69 -19q-35 0 -61 25q-6 6 -6 14q0 21 20 21q8 0 14 -6q12 -12 29 -12q33 0 33 42q0 16 -11 29.5t-30 13.5q-12 0 -19 13q-7 10 -5 17l12 26q-87 15 -148 88t-61 163q0 85 47 153q50 74 132 85q29 4 68 3q71 -2 69 -2l56 18
q21 7 33 -45q10 -41 10 -87q0 -13 -1 -19q-4 -18 -10 -23.5t-22 -5.5q-18 5 -61 40q-37 30 -67 30q-113 0 -113 -103q0 -73 66 -117q58 -39 132 -39q16 0 38 4q34 7 38 7q17 3 17 -19q0 -67 -62 -104q-51 -30 -121 -30h-3z" />
    <glyph glyph-name="eacute" unicode="&#xe9;" horiz-adv-x="520" 
d="M480 156q0 -71 -88 -115q-72 -35 -149 -35q-99 0 -164.5 69t-65.5 168q0 107 68.5 183t174.5 76q81 0 147.5 -63.5t66.5 -145.5q0 -25 -118 -61q-74 -20 -149 -40l-3 -11q0 -31 25 -52t57 -21q42 0 72 22q15 12 38 44q19 24 31 26q8 0 50 -28zM308 341q0 62 -56 62
q-24 0 -38 -17t-14 -42q0 -21 15 -39t37 -18q23 0 39.5 15.5t16.5 38.5zM181 565l102 104q5 6 13 6q13 0 21 -12l27 -38q6 -9 4 -20q-1 -11 -10 -14l-137 -54q-13 -5 -19 3l-4 7q-7 9 3 18z" />
    <glyph glyph-name="egrave" unicode="&#xe8;" horiz-adv-x="520" 
d="M480 156q0 -71 -88 -115q-72 -35 -149 -35q-99 0 -164.5 69t-65.5 168q0 107 68.5 183t174.5 76q81 0 147.5 -63.5t66.5 -145.5q0 -25 -118 -61q-74 -20 -149 -40l-3 -11q0 -31 25 -52t57 -21q42 0 72 22q15 12 38 44q19 24 31 26q8 0 50 -28zM308 341q0 62 -56 62
q-24 0 -38 -17t-14 -42q0 -21 15 -39t37 -18q23 0 39.5 15.5t16.5 38.5zM310 565l-102 104q-5 6 -13 6q-13 0 -20 -12l-27 -38q-7 -9 -5 -20q1 -11 10 -14l137 -54q13 -5 19 3l5 7q6 9 -4 18z" />
    <glyph glyph-name="ecircumflex" unicode="&#xea;" horiz-adv-x="520" 
d="M480 156q0 -71 -88 -115q-72 -35 -149 -35q-99 0 -164.5 69t-65.5 168q0 107 68.5 183t174.5 76q81 0 147.5 -63.5t66.5 -145.5q0 -25 -118 -61q-74 -20 -149 -40l-3 -11q0 -31 25 -52t57 -21q42 0 72 22q15 12 38 44q19 24 31 26q8 0 50 -28zM308 341q0 62 -56 62
q-24 0 -38 -17t-14 -42q0 -21 15 -39t37 -18q23 0 39.5 15.5t16.5 38.5z" />
    <glyph glyph-name="edieresis" unicode="&#xeb;" horiz-adv-x="520" 
d="M480 156q0 -71 -88 -115q-72 -35 -149 -35q-99 0 -164.5 69t-65.5 168q0 107 68.5 183t174.5 76q81 0 147.5 -63.5t66.5 -145.5q0 -25 -118 -61q-74 -20 -149 -40l-3 -11q0 -31 25 -52t57 -21q42 0 72 22q15 12 38 44q19 24 31 26q8 0 50 -28zM308 341q0 62 -56 62
q-24 0 -38 -17t-14 -42q0 -21 15 -39t37 -18q23 0 39.5 15.5t16.5 38.5zM284 583q0 19 12.5 31.5t30.5 12.5t30 -12.5t12 -31.5q0 -18 -12 -31t-30 -13t-30.5 13t-12.5 31zM144 583q0 19 12.5 31.5t30.5 12.5t30 -12.5t12 -31.5q0 -18 -12 -31t-30 -13t-30.5 13t-12.5 31z
" />
    <glyph glyph-name="iacute" unicode="&#xed;" horiz-adv-x="292" 
d="M240 34q-13 -30 -31 -30h-158q-11 0 -18.5 9t-7.5 21q0 6 8 23.5t8 26.5v294l-16 53q-10 31 61 31q16 0 52.5 18t46.5 18q24 0 30 -21q2 -9 2 -38v-357zM41 565l102 104q5 6 13 6q13 0 21 -12l27 -38q6 -9 4 -20q-1 -11 -10 -14l-137 -54q-13 -5 -19 3l-4 7q-7 9 3 18z
" />
    <glyph glyph-name="igrave" unicode="&#xec;" horiz-adv-x="292" 
d="M240 34q-13 -30 -31 -30h-158q-11 0 -18.5 9t-7.5 21q0 6 8 23.5t8 26.5v294l-16 53q-10 31 61 31q16 0 52.5 18t46.5 18q24 0 30 -21q2 -9 2 -38v-357zM200 565l-102 104q-5 6 -13 6q-13 0 -20 -12l-27 -38q-7 -9 -5 -20q1 -11 10 -14l137 -54q13 -5 19 3l5 7q6 9 -4 18
z" />
    <glyph glyph-name="icircumflex" unicode="&#xee;" horiz-adv-x="292" 
d="M240 34q-13 -30 -31 -30h-158q-11 0 -18.5 9t-7.5 21q0 6 8 23.5t8 26.5v294l-16 53q-10 31 61 31q16 0 52.5 18t46.5 18q24 0 30 -21q2 -9 2 -38v-357zM123 568l-88 -34q-12 -5 -17 3l-4 6q-6 8 3 16l92 84q6 6 14 4q8 2 15 -4l91 -84q9 -8 3 -16l-4 -6q-5 -8 -17 -3z
" />
    <glyph glyph-name="idieresis" unicode="&#xef;" horiz-adv-x="292" 
d="M240 34q-13 -30 -31 -30h-158q-11 0 -18.5 9t-7.5 21q0 6 8 23.5t8 26.5v294l-16 53q-10 31 61 31q16 0 52.5 18t46.5 18q24 0 30 -21q2 -9 2 -38v-357zM144 583q0 19 12.5 31.5t30.5 12.5t30 -12.5t12 -31.5q0 -18 -12 -31t-30 -13t-30.5 13t-12.5 31zM4 583
q0 19 12.5 31.5t30.5 12.5t30 -12.5t12 -31.5q0 -18 -12 -31t-30 -13t-30.5 13t-12.5 31z" />
    <glyph glyph-name="ntilde" unicode="&#xf1;" horiz-adv-x="565" 
d="M536 52l-19 -32q-5 -3 -52 -8q-13 -2 -45 -13.5t-44 -11.5q-8 0 -22 9.5t-14 16.5q0 5 4 16t4 16q0 47 -19 131q-24 106 -28 131q-8 55 -45 55q-46 0 -45 -44q0 -61 1 -122q2 -119 13 -142q7 -9 15 -30l-22 -27l-159 -3q-13 0 -22 8.5t-9 21.5q0 5 8.5 29t7.5 37
q0 25 1 93q1 63 0 99q-2 55 -10 95q-1 6 -8 20.5t-7 23.5q0 33 83 33q14 0 40 15t39 15q18 0 26 -18.5t11 -18.5q39 32 79 32q90 0 136 -86q28 -53 54 -182q25 -123 48 -159zM178 623q28 0 63 -19t73 -19q17 0 27 13t14 14q18 1 20.5 -7t5.5 -17q-26 -39 -44 -52
q-24 -17 -63 -17q-16 0 -54.5 18.5t-67.5 18.5q-11 0 -24.5 -14.5t-25.5 -14.5q-20 0 -20 15q0 21 34 51t62 30z" />
    <glyph glyph-name="oacute" unicode="&#xf3;" horiz-adv-x="553" 
d="M513 251q0 -109 -78 -179t-188 -70q-100 0 -170 75t-70 175q0 107 79 178q76 69 184 69q99 0 171 -74.5t72 -173.5zM345 154q0 15 -22 76q-15 40 -30.5 81.5t-22.5 53.5q-18 29 -46 29q-21 0 -35 -14.5t-14 -35.5q0 -19 29.5 -102t42.5 -105q19 -32 47 -32q20 0 35.5 15
t15.5 34zM181 565l102 104q5 6 13 6q13 0 21 -12l27 -38q6 -9 4 -20q-1 -11 -10 -14l-137 -54q-13 -5 -19 3l-4 7q-7 9 3 18z" />
    <glyph glyph-name="ograve" unicode="&#xf2;" horiz-adv-x="553" 
d="M513 251q0 -109 -78 -179t-188 -70q-100 0 -170 75t-70 175q0 107 79 178q76 69 184 69q99 0 171 -74.5t72 -173.5zM345 154q0 15 -22 76q-15 40 -30.5 81.5t-22.5 53.5q-18 29 -46 29q-21 0 -35 -14.5t-14 -35.5q0 -19 29.5 -102t42.5 -105q19 -32 47 -32q20 0 35.5 15
t15.5 34zM330 565l-102 104q-5 6 -13 6q-13 0 -20 -12l-27 -38q-7 -9 -5 -20q1 -11 10 -14l137 -54q13 -5 19 3l5 7q6 9 -4 18z" />
    <glyph glyph-name="ocircumflex" unicode="&#xf4;" horiz-adv-x="553" 
d="M513 251q0 -109 -78 -179t-188 -70q-100 0 -170 75t-70 175q0 107 79 178q76 69 184 69q99 0 171 -74.5t72 -173.5zM345 154q0 15 -22 76q-15 40 -30.5 81.5t-22.5 53.5q-18 29 -46 29q-21 0 -35 -14.5t-14 -35.5q0 -19 29.5 -102t42.5 -105q19 -32 47 -32q20 0 35.5 15
t15.5 34zM263 568l-88 -34q-12 -5 -17 3l-4 6q-6 8 3 16l92 84q6 6 14 4q8 2 15 -4l91 -84q9 -8 3 -16l-4 -6q-5 -8 -17 -3z" />
    <glyph glyph-name="odieresis" unicode="&#xf6;" horiz-adv-x="553" 
d="M513 251q0 -109 -78 -179t-188 -70q-100 0 -170 75t-70 175q0 107 79 178q76 69 184 69q99 0 171 -74.5t72 -173.5zM345 154q0 15 -22 76q-15 40 -30.5 81.5t-22.5 53.5q-18 29 -46 29q-21 0 -35 -14.5t-14 -35.5q0 -19 29.5 -102t42.5 -105q19 -32 47 -32q20 0 35.5 15
t15.5 34zM294 583q0 19 12.5 31.5t30.5 12.5t30 -12.5t12 -31.5q0 -18 -12 -31t-30 -13t-30.5 13t-12.5 31zM154 583q0 19 12.5 31.5t30.5 12.5t30 -12.5t12 -31.5q0 -18 -12 -31t-30 -13t-30.5 13t-12.5 31z" />
    <glyph glyph-name="otilde" unicode="&#xf5;" horiz-adv-x="553" 
d="M513 251q0 -109 -78 -179t-188 -70q-100 0 -170 75t-70 175q0 107 79 178q76 69 184 69q99 0 171 -74.5t72 -173.5zM345 154q0 15 -22 76q-15 40 -30.5 81.5t-22.5 53.5q-18 29 -46 29q-21 0 -35 -14.5t-14 -35.5q0 -19 29.5 -102t42.5 -105q19 -32 47 -32q20 0 35.5 15
t15.5 34zM198 633q28 0 63 -19t73 -19q17 0 27 13t14 14q18 1 20.5 -7t5.5 -17q-26 -39 -44 -52q-24 -17 -63 -17q-16 0 -54.5 18.5t-67.5 18.5q-11 0 -24.5 -14.5t-25.5 -14.5q-20 0 -20 15q0 21 34 51t62 30z" />
    <glyph glyph-name="uacute" unicode="&#xfa;" horiz-adv-x="552" 
d="M501 464l-8 -18t-8 -25l-6 -291q-1 -15 7.5 -41.5t8.5 -37.5q0 -24 -53 -32l-3 1q-35 -6 -108 -29q-16 2 -21.5 16t-10.5 28q-18 -11 -35.5 -21t-42.5 -10q-86 0 -130 75q-30 52 -47 161q-19 129 -27 151q-11 34 -11 45q0 24 11 32q6 5 22 6q12 1 22.5 2t47.5 11
q32 9 45 9q11 0 24.5 -8.5t13.5 -18.5q0 -6 -3.5 -21t-3.5 -22q0 -26 9 -77t9 -76q0 -48 13 -94q17 -63 50 -63q39 0 40 44l3 226q0 7 -18 53q8 28 37 37l7 -1q32 6 65 11q40 7 64 7q8 0 22.5 -10.5t14.5 -18.5zM181 565l102 104q5 6 13 6q13 0 21 -12l27 -38q6 -9 4 -20
q-1 -11 -10 -14l-137 -54q-13 -5 -19 3l-4 7q-7 9 3 18z" />
    <glyph glyph-name="ugrave" unicode="&#xf9;" horiz-adv-x="552" 
d="M501 464l-8 -18t-8 -25l-6 -291q-1 -15 7.5 -41.5t8.5 -37.5q0 -24 -53 -32l-3 1q-35 -6 -108 -29q-16 2 -21.5 16t-10.5 28q-18 -11 -35.5 -21t-42.5 -10q-86 0 -130 75q-30 52 -47 161q-19 129 -27 151q-11 34 -11 45q0 24 11 32q6 5 22 6q12 1 22.5 2t47.5 11
q32 9 45 9q11 0 24.5 -8.5t13.5 -18.5q0 -6 -3.5 -21t-3.5 -22q0 -26 9 -77t9 -76q0 -48 13 -94q17 -63 50 -63q39 0 40 44l3 226q0 7 -18 53q8 28 37 37l7 -1q32 6 65 11q40 7 64 7q8 0 22.5 -10.5t14.5 -18.5zM320 565l-102 104q-5 6 -13 6q-13 0 -20 -12l-27 -38
q-7 -9 -5 -20q1 -11 10 -14l137 -54q13 -5 19 3l5 7q6 9 -4 18z" />
    <glyph glyph-name="ucircumflex" unicode="&#xfb;" horiz-adv-x="552" 
d="M501 464l-8 -18t-8 -25l-6 -291q-1 -15 7.5 -41.5t8.5 -37.5q0 -24 -53 -32l-3 1q-35 -6 -108 -29q-16 2 -21.5 16t-10.5 28q-18 -11 -35.5 -21t-42.5 -10q-86 0 -130 75q-30 52 -47 161q-19 129 -27 151q-11 34 -11 45q0 24 11 32q6 5 22 6q12 1 22.5 2t47.5 11
q32 9 45 9q11 0 24.5 -8.5t13.5 -18.5q0 -6 -3.5 -21t-3.5 -22q0 -26 9 -77t9 -76q0 -48 13 -94q17 -63 50 -63q39 0 40 44l3 226q0 7 -18 53q8 28 37 37l7 -1q32 6 65 11q40 7 64 7q8 0 22.5 -10.5t14.5 -18.5zM253 568l-88 -34q-12 -5 -17 3l-4 6q-6 8 3 16l92 84
q6 6 14 4q8 2 15 -4l91 -84q9 -8 3 -16l-4 -6q-5 -8 -17 -3z" />
    <glyph glyph-name="udieresis" unicode="&#xfc;" horiz-adv-x="552" 
d="M501 464l-8 -18t-8 -25l-6 -291q-1 -15 7.5 -41.5t8.5 -37.5q0 -24 -53 -32l-3 1q-35 -6 -108 -29q-16 2 -21.5 16t-10.5 28q-18 -11 -35.5 -21t-42.5 -10q-86 0 -130 75q-30 52 -47 161q-19 129 -27 151q-11 34 -11 45q0 24 11 32q6 5 22 6q12 1 22.5 2t47.5 11
q32 9 45 9q11 0 24.5 -8.5t13.5 -18.5q0 -6 -3.5 -21t-3.5 -22q0 -26 9 -77t9 -76q0 -48 13 -94q17 -63 50 -63q39 0 40 44l3 226q0 7 -18 53q8 28 37 37l7 -1q32 6 65 11q40 7 64 7q8 0 22.5 -10.5t14.5 -18.5zM284 583q0 19 12.5 31.5t30.5 12.5t30 -12.5t12 -31.5
q0 -18 -12 -31t-30 -13t-30.5 13t-12.5 31zM144 583q0 19 12.5 31.5t30.5 12.5t30 -12.5t12 -31.5q0 -18 -12 -31t-30 -13t-30.5 13t-12.5 31z" />
    <glyph glyph-name="dagger" unicode="&#x2020;" horiz-adv-x="14" 
 />
    <glyph glyph-name="degree" unicode="&#xb0;" horiz-adv-x="358" 
d="M137 389q-58 0 -99 39.5t-41 96.5q0 58 41 100.5t99 42.5q57 0 99.5 -41t42.5 -99q0 -57 -42.5 -98t-99.5 -41zM137 617q-37 0 -62.5 -26t-25.5 -63q0 -36 25.5 -62t62.5 -26q36 0 61.5 26t25.5 62q0 37 -25.5 63t-61.5 26z" />
    <glyph glyph-name="cent" unicode="&#xa2;" horiz-adv-x="457" 
d="M290 484l-38 19q-51 0 -82 -26.5t-31 -76.5q0 -72 66 -112q56 -34 132 -34q13 0 39 4.5t39 4.5l15 -17q0 -61 -53 -98q-44 -30 -110 -35q0 -12 1.5 -30t1.5 -24q0 -34 -46 -34q-19 0 -20 36v55q-87 15 -146.5 84t-59.5 156q0 97 55.5 165.5t150.5 75.5q0 11 -1.5 27
t-1.5 22q0 31 46 31q18 0 22 -30q1 -22 1 -44h17q54 0 96 -25q49 -30 49 -81q0 -80 -65 -80q-77 0 -77 67z" />
    <glyph glyph-name="sterling" unicode="&#xa3;" horiz-adv-x="553" 
d="M368 314q0 -24 -24 -24h-79q1 -13 1 -26q0 -56 -26 -102q-11 -20 -11 -34q0 -16 14 -16q6 0 13 3h39q41 1 109 54.5t76 53.5q14 0 30.5 -14.5t16.5 -27.5q0 -10 -35 -182q-3 -16 -50 -16q-4 0 -58.5 14t-90.5 14q-80 -4 -242 -7q-8 0 -18.5 10.5t-10.5 17.5
q-12 42 -26 110q8 26 28 26t22 1t20 19q31 31 31 80q0 11 -1 22h-66q-24 0 -24 24v19q0 24 24 24h46q-21 50 -63 108q0 95 76 155q69 55 166 55q89 0 160 -57q77 -60 77 -148q0 -6 -4.5 -16.5t-5.5 -15.5l-12 -27q-30 3 -85 17q-69 18 -66 31q7 27 7 46q0 54 -52 54
q-38 0 -47 -3q-27 -10 -27 -46q0 -9 2 -20q3 -19 20 -59q21 -48 29 -74h93q24 0 24 -24v-19z" />
    <glyph glyph-name="section" unicode="&#xa7;" horiz-adv-x="14" 
 />
    <glyph glyph-name="bullet" unicode="&#x2022;" horiz-adv-x="348" 
d="M2 325q0 57 40.5 97t96.5 40q57 0 97 -40t40 -97t-40 -97t-97 -40q-56 0 -96.5 40t-40.5 97z" />
    <glyph glyph-name="paragraph" unicode="&#xb6;" horiz-adv-x="17" 
 />
    <glyph glyph-name="germandbls" unicode="&#xdf;" horiz-adv-x="562" 
d="M24 103q0 -12 -9 -32.5t-10 -39.5q-1 -27 40 -32q3 -1 61 -1h19q18 -1 30 -1q72 0 72 30q0 13 -13.5 36.5t-13.5 48.5l1 330q0 14 -27.5 42t-27.5 55q0 26 39 41q29 11 60 11q101 0 101 -122q0 -56 -25 -70q-4 -2 -47 -7q-25 -3 -25 -33q0 -55 3 -61q8 -21 51 -21
q50 0 50 -87q0 -6 -3 -22t-3 -22q0 -26 -26 -28.5t-50 -4.5q-27 -8 -27 -48q0 -68 42 -68q98 0 162 35q78 44 78 134q0 152 -127 173q48 28 61 68q8 26 8 98q0 94 -68 138q-56 37 -151 37q-227 0 -227 -179v-54.5v-55.5q0 -48 1 -144t1 -144z" />
    <glyph glyph-name="registered" unicode="&#xae;" horiz-adv-x="355" 
d="M147 672q83 0 121 -76q16 -30 16 -63q0 -57 -41 -98t-98 -41t-97.5 41t-40.5 98q0 59 41 99t99 40zM144 647q-44 0 -77 -33t-33 -81q0 -47 32.5 -80.5t78.5 -33.5q47 0 79 33.5t32 80.5q0 48 -32.5 81t-79.5 33zM87 611h65q56 0 56 -43q0 -26 -26 -37q20 -7 23 -31
q0 -16 5 -43h-33q-3 5 -4 31q-2 33 -32 33h-20v-64h-34v154zM121 590v-49h23q30 0 30 25q0 24 -28 24h-25z" />
    <glyph glyph-name="copyright" unicode="&#xa9;" horiz-adv-x="765" 
d="M346 -9q-141 0 -241 100.5t-100 241.5q0 145 101 243.5t245 98.5q93 0 174 -51t124 -136q37 -73 37 -155q0 -141 -99.5 -241.5t-240.5 -100.5zM343 623q-114 0 -197.5 -84t-83.5 -206q0 -119 82.5 -204t201.5 -85q117 0 199.5 84.5t82.5 204.5q0 122 -83.5 206t-201.5 84
zM347 139q-86 0 -137 57q-48 54 -48 140t51.5 141.5t136.5 55.5q79 0 127 -52q33 -35 39 -81h-57q-20 68 -109 68q-54 0 -84 -40q-27 -36 -27 -93q0 -55 26 -91q30 -40 84 -40q98 0 113 87h58q-7 -70 -54 -111t-119 -41z" />
    <glyph glyph-name="trademark" unicode="&#x2122;" horiz-adv-x="487" 
d="M356 409l-2 198l-41 -198h-44l-47 198l1 -84v-114h-47v260h85q4 -28 31 -195q10 83 30 195l85 -1v-259h-51zM92 629v-220h-48v220h-35v40h120v-40h-37z" />
    <glyph glyph-name="acute" unicode="&#xb4;" horiz-adv-x="563" 
d="M181 725l102 104q5 6 13 6q13 0 21 -12l27 -38q6 -9 4 -20q-1 -11 -10 -14l-137 -54q-13 -5 -19 3l-4 7q-7 9 3 18z" />
    <glyph glyph-name="dieresis" unicode="&#xa8;" 
d="M144 753q0 19 12.5 31.5t30.5 12.5t30 -12.5t12 -31.5q0 -18 -12 -31t-30 -13t-30.5 13t-12.5 31zM4 753q0 19 12.5 31.5t30.5 12.5t30 -12.5t12 -31.5q0 -18 -12 -31t-30 -13t-30.5 13t-12.5 31z" />
    <glyph glyph-name="AE" unicode="&#xc6;" horiz-adv-x="877" 
d="M566 347q-1 -59 -1 -132q1 -19 3 -55q0 -10 3 -42q11 -13 55 -13q47 0 83 27q20 15 49 52q21 27 32 27q13 0 30 -15t17 -28q0 -18 -16 -99t-23 -93q-9 -15 -42 -15q3 0 -25 18.5t-53 18.5l-315 2q-52 0 -52 30q0 -1 19 40q0 11 -2 16q-60 -32 -76 -31q-21 0 -41 23.5
t-39 22.5h-7q-22 -19 -31 -52q-1 -7 0 -22q0 -15 -1 -22q-8 -28 -39 -28q-10 0 -48 16.5t-46.5 22t-5.5 20.5q3 9 18 25q19 21 21 23t58 104q95 172 111 201q87 161 93 185q2 6 2 13q0 8 -3 23.5t-3 23.5q0 43 35 43q8 0 17 -4q26 -5 90 -6q43 0 126 1q93 2 120 2
q14 0 40.5 19.5t31.5 19.5q33 0 40 -25q4 -30 14 -89q6 -23 12 -45q7 -30 7 -46q0 -11 -15.5 -25t-26.5 -14q-8 0 -43 44q-38 47 -66 53h-68q-39 0 -39 -48q0 -43 5 -54q49 6 40 6q39 0 70 -36q23 -34 46 -69q9 -14 33 -19q18 -4 18 -22q0 -32 -26 -56.5t-58 -24.5
q-41 0 -56 32q-7 31 -15 62.5t-32 31.5q-23 0 -25 -18zM338 283q0 76 -18 77q-16 0 -49 -60q-20 -38 -39 -76q14 -1 42 -12q8 -11 29 -21q24 0 29.5 20.5t5.5 71.5z" />
    <glyph glyph-name="Oslash" unicode="&#xd8;" horiz-adv-x="671" 
d="M260 297l99 129q-37 94 -56.5 111.5t-46.5 17.5q-22 0 -37.5 -18t-15.5 -41q0 -39 57 -199zM376 380l-99 -129q31 -82 45 -103q22 -33 58 -33q25 0 39 20t14 46q0 44 -57 199zM557 677h8q8 0 16 -5.5t8 -11.5q0 -3 -2 -5l-54 -71q82 -78 98 -181q4 -29 4 -88
q0 -133 -92.5 -225.5t-227.5 -92.5q-108 0 -186 61l-32 -41q-5 -7 -9.5 -14.5t-12.5 -7.5h-8q-8 0 -16 5.5t-8 11.5q0 3 2 5l53 69q-93 98 -93 254q0 139 85 235q89 100 227 100q98 0 184 -64l34 44q5 7 9.5 14.5t12.5 7.5z" />
    <glyph glyph-name="plusminus" unicode="&#xb1;" horiz-adv-x="14" 
 />
    <glyph glyph-name="yen" unicode="&#xa5;" horiz-adv-x="593" 
d="M95 305h102v1q0 9 -64 103q-70 105 -73 111q-12 22 -24 29q-18 11 -29 23q-5 6 -5 16q0 28 18 39q6 4 79 28t78 24q6 0 29 -14q1 -1 1 -30q0 -13 51 -110.5t57 -97.5q7 0 44 89q29 68 39 99q3 8 3 43q0 22 28 22q12 0 61.5 -14t58.5 -20q0 -7 -4 -21q-11 -13 -31 -40
q-11 -16 -74 -138t-63 -131v-11h104q24 0 24 -24v-10q0 -24 -24 -24h-106q-1 -28 -1 -52h107q24 0 24 -24v-10q0 -24 -24 -24h-106q1 -25 8 -58q3 -5 4.5 -17t5.5 -16q7 -9 7 -25q0 -4 1 -11q1 -5 0 -7q-2 -3 -7 -5q-10 -5 -20 -5q-2 0 -22 4q-13 2 -27 -2q-5 0 -33 -1.5
t-46 -1.5q-78 0 -78 28q0 -1 10.5 13t11.5 25q3 28 4 79h-99q-24 0 -24 24v10q0 24 24 24h101v52h-101q-24 0 -24 24v10q0 24 24 24z" />
    <glyph glyph-name="uni00B5" unicode="&#xb5;" horiz-adv-x="563" 
d="M9 222l46 32l2 268q0 48 -5 63q-13 19 -27 54q0 32 48 32h210q9 -2 19.5 -13.5t10.5 -23.5q0 -2 -10 -19q-12 -20 -15 -29t-7 -28l-1 -148l124 86q2 2 5 2q6 0 11.5 -8t5.5 -16v-25q0 -7 -22 -22l-125 -87l-3 -191v-2q-1 -1 -1 -3q0 -37 45 -36h17q31 1 61 28
q14 12 46 50q22 27 32 27q14 0 30.5 -14.5t16.5 -26.5q0 -10 -35 -183q-2 -10 -15.5 -19t-21.5 -9q-4 -1 -34.5 20t-67.5 20q-111 1 -303 1q-8 0 -18.5 11t-10.5 17l18.5 43t18.5 59v52l-45 -32q-3 -1 -5 -1q-7 0 -12 7.5t-5 15.5v26q0 7 22 22z" />
    <glyph glyph-name="uni00B5" unicode="&#x3bc;" horiz-adv-x="563" 
d="M9 222l46 32l2 268q0 48 -5 63q-13 19 -27 54q0 32 48 32h210q9 -2 19.5 -13.5t10.5 -23.5q0 -2 -10 -19q-12 -20 -15 -29t-7 -28l-1 -148l124 86q2 2 5 2q6 0 11.5 -8t5.5 -16v-25q0 -7 -22 -22l-125 -87l-3 -191v-2q-1 -1 -1 -3q0 -37 45 -36h17q31 1 61 28
q14 12 46 50q22 27 32 27q14 0 30.5 -14.5t16.5 -26.5q0 -10 -35 -183q-2 -10 -15.5 -19t-21.5 -9q-4 -1 -34.5 20t-67.5 20q-111 1 -303 1q-8 0 -18.5 11t-10.5 17l18.5 43t18.5 59v52l-45 -32q-3 -1 -5 -1q-7 0 -12 7.5t-5 15.5v26q0 7 22 22z" />
    <glyph glyph-name="ordfeminine" unicode="&#xaa;" horiz-adv-x="563" 
d="M533 562q0 -7 -9 -15q-32 -32 -48 -65l-117 -228l-34 -62q-26 -49 -26 -59q0 -26 33 -26q4 0 22 5q60 19 111 89q57 -27 57 -47q0 -11 -7 -35q-9 -31 -10 -36q-5 -34 -20 -101l-6 -7q-31 -10 -36 -10q-8 0 -23 13.5t-31 17t-42 3.5h-317q-29 0 -29 35q0 2 127.5 236.5
t127.5 254.5q0 41 -49 41q-28 0 -55.5 -47t-64.5 -47q-25 0 -41.5 15.5t-16.5 40.5q0 67 81 113q70 39 143 39q155 0 243 -69q37 -29 37 -49zM283 784l88 33q12 5 17 -3l4 -6q6 -8 -3 -16l-91 -84q-7 -5 -15 -4q-8 -1 -14 4l-92 84q-9 8 -3 16l4 6q5 8 17 3z" />
    <glyph glyph-name="ordmasculine" unicode="&#xba;" horiz-adv-x="476" 
d="M429 147q0 -20 -36 -139q-28 -24 -45 -24q-5 0 -70.5 13.5t-101.5 13.5q-26 0 -77.5 -2t-77.5 -2q-33 0 -33 36q194 291 194 328q0 10 -9 19t-20 9q-20 0 -40 -33t-46 -33q-22 0 -38 16t-16 38q0 107 200 107q46 0 119 -17q93 -22 93 -50q0 -11 -18 -24q-23 -16 -25 -19
q-13 -16 -79.5 -130.5t-66.5 -122.5q0 -30 40 -30q30 0 59 30q23 25 47 49l6 1q11 0 26 -12t15 -22zM223 604l88 33q12 5 17 -3l4 -6q6 -8 -3 -16l-91 -84q-7 -5 -15 -4q-8 -1 -14 4l-92 84q-9 8 -3 16l4 6q5 8 17 3z" />
    <glyph glyph-name="ae" unicode="&#xe6;" horiz-adv-x="762" 
d="M558 341q0 62 -56 62q-24 0 -38 -17t-14 -42q0 -21 15 -39t37 -18q23 0 39.5 15.5t16.5 38.5zM400 25l-36 -18q-21 -9 -36 -9l-19 8q-7 16 -13 50q-58 -52 -139 -52q-64 0 -111 40q-50 41 -50 105q0 78 63 122q43 31 117 44q33 5 67 10q-5 29 -18 54q-18 33 -42 33
q-18 0 -24 -24q-9 -40 -11 -45q-13 -24 -49 -24q-30 0 -49 21.5t-19 51.5q0 52 49 84q43 29 98 29q107 0 168 -64q67 61 160 61q81 0 147.5 -63.5t66.5 -145.5q0 -25 -118 -61q-74 -20 -149 -40q-1 -3 -3 -10q4 -18 8 -31q22 -43 74 -43q42 0 72 22q15 12 38 44q19 24 31 26
q8 0 50 -28l7 -16q0 -71 -88 -115q-72 -35 -149 -35q-49 0 -93 19zM268 192q-19 33 -50 33q-23 0 -38.5 -15.5t-15.5 -37.5q0 -27 17.5 -48.5t42.5 -21.5q21 0 37.5 16.5t16.5 37.5q-6 18 -10 36zM-84 785l-1 -2l-5 2v2z" />
    <glyph glyph-name="oslash" unicode="&#xf8;" horiz-adv-x="553" 
d="M209 230l76 100q-22 64 -61 64q-21 0 -35 -14.5t-14 -35.5t34 -114zM302 284l-76 -99q14 -37 21 -48q19 -32 47 -32q20 0 35.5 15t15.5 34q0 18 -43 130zM437 521h8q8 0 16 -5t8 -12q0 -2 -2 -5l-44 -58q90 -76 90 -190q0 -109 -78 -179t-188 -70q-71 0 -130 41l-20 -26
q-5 -7 -9.5 -14.5t-12.5 -7.5h-8q-8 0 -16 5.5t-8 11.5q0 3 2 5l40 52q-78 75 -78 183q0 107 79 178q76 69 184 69q63 0 119 -34l26 34q5 8 10 15t12 7z" />
    <glyph glyph-name="questiondown" unicode="&#xbf;" horiz-adv-x="365" 
d="M4 -17q-2 56 60 132q71 88 87 155q9 38 41 38q34 0 50 -32q7 -15 7 -67q0 -26 -19 -76t-19 -73q0 -42 53 -42q15 0 31 4q27 -6 27 -21q0 -2 -1 -5q4 -6 4 -16q0 -8 -4 -26t-4 -27q0 -13 5.5 -38.5t5.5 -37.5q0 -39 -68 -39q-95 0 -117 3q-64 7 -97 40q-40 41 -42 128z
M115 412q0 34 22.5 57t56.5 23q29 0 54 -22.5t25 -50.5q0 -32 -23.5 -55.5t-55.5 -23.5q-30 0 -54.5 21t-24.5 51z" />
    <glyph glyph-name="exclamdown" unicode="&#xa1;" horiz-adv-x="305" 
d="M215 236q-5 22 -10 45q-12 28 -47 28q-33 0 -46 -28q-4 -8 -10 -48q-23 -109 -65 -328q-1 -7 -14 -26t-13 -29q0 -14 13 -27.5t25 -12.5h212q12 -1 26 13t14 27q0 11 -12.5 29.5t-14.5 25.5q-17 111 -58 331zM81 414q0 31 24 55t54 24q33 0 55 -22t22 -53q0 -34 -24 -58
t-58 -24q-31 0 -52 25t-21 53z" />
    <glyph glyph-name="logicalnot" unicode="&#xac;" horiz-adv-x="17" 
 />
    <glyph glyph-name="florin" unicode="&#x192;" horiz-adv-x="597" 
d="M20 427h42q21 105 85 170q74 76 186 74q91 -1 108 -5q55 -14 67 -74q4 -18 21 -60q16 -38 16 -44q0 -12 -14 -21.5t-24 -9.5q-16 0 -41 25q-38 36 -51 44q-35 25 -75 25q-53 0 -84 -42q-24 -32 -29 -82h148q24 0 24 -24v-4q0 -24 -24 -24h-148q2 -24 8 -46h143
q24 0 24 -24v-4q0 -24 -24 -24h-124q58 -112 196 -112q2 0 30.5 4t30.5 4q23 0 31 -2q16 -6 16 -27q0 -72 -73 -120q-60 -40 -121 -40h-10q-126 0 -207 94q-69 79 -88 199h-36q-24 0 -24 24v4q0 24 24 24h31v15q0 16 1 31h-35q-24 0 -24 24v4q0 24 24 24z" />
    <glyph glyph-name="guillemotleft" unicode="&#xab;" horiz-adv-x="295" 
d="M218 120q-16 0 -28 26l-72 155q24 55 76 165q9 18 24 18q9 0 17 -10t8 -23q0 -5 -2 -9l-49 -139l55 -151q1 -4 1 -7q0 -11 -10 -18t-20 -7zM98 120q-16 0 -28 26l-72 155q24 55 76 165q9 18 24 18q10 0 20 -7t10 -18q0 -3 -1 -7l-55 -149l55 -151q1 -4 1 -7
q0 -11 -10 -18t-20 -7z" />
    <glyph glyph-name="guillemotright" unicode="&#xbb;" horiz-adv-x="253" 
d="M19 128q-9 0 -17 6.5t-5 15.5l57 151l-57 153q-2 9 5.5 15.5t16.5 6.5q12 0 22 -22l70 -151l-70 -153q-10 -22 -22 -22zM129 128q-9 0 -17 6.5t-5 15.5l57 151l-57 153q-2 9 5.5 15.5t16.5 6.5q12 0 22 -22l70 -151l-70 -153q-10 -22 -22 -22z" />
    <glyph glyph-name="ellipsis" unicode="&#x2026;" horiz-adv-x="913" 
d="M555 73q0 -29 -23 -52.5t-51 -23.5q-34 0 -58 21t-24 55q0 30 23 52.5t55 22.5q28 0 53 -21t25 -54zM855 73q0 -29 -23 -52.5t-51 -23.5q-34 0 -58 21t-24 55q0 30 23 52.5t55 22.5q28 0 53 -21t25 -54zM255 73q0 -29 -23 -52.5t-51 -23.5q-34 0 -58 21t-24 55
q0 30 23 52.5t55 22.5q28 0 53 -21t25 -54z" />
    <glyph glyph-name="uni00A0" unicode="&#xa0;" horiz-adv-x="220" 
 />
    <glyph glyph-name="Agrave" unicode="&#xc0;" horiz-adv-x="629" 
d="M585 52q0 -27 -12 -37q-8 -6 -42 -15q-24 -6 -48 -11q-7 -2 -49 -20q-32 -13 -50 -13q-17 0 -34 7q-22 8 -22 22q0 9 5 26.5t5 25.5q0 27 -11 44q-51 -32 -68 -32q-20 0 -46 23t-46 22h-6q-17 -19 -17 -52q0 -7 4.5 -22t4.5 -22q0 -28 -31 -28q-10 0 -54 16
q-40 16 -50.5 21.5t-10.5 20.5q0 9 11 25q14 20 16 24q9 20 17 51q6 26 13 52q28 95 57 189q44 149 44 172q0 13 -11.5 31.5t-11.5 29.5q0 29 28 39q17 6 60 7q39 0 50 6q10 2 28 6q6 2 40 16t36 14q16 0 34 -9t18 -24q0 -6 -1 -19.5t-1 -20.5q0 -35 20 -111q15 -56 30 -113
q20 -80 46 -181q6 -19 17 -56q3 -10 38 -104zM299 205q0 26 -16 83q-18 65 -35 65q-16 0 -34 -59q-9 -39 -19 -77q14 -1 45 -12q8 -6 17.5 -13t17.5 -7t16 6t8 14zM362 725l-102 104q-5 6 -13 6q-13 0 -20 -12l-28 -38q-6 -9 -4 -20q1 -11 10 -14l137 -54q13 -5 19 3l5 7
q6 9 -4 18z" />
    <glyph glyph-name="Atilde" unicode="&#xc3;" horiz-adv-x="629" 
d="M585 52q0 -27 -12 -37q-8 -6 -42 -15q-24 -6 -48 -11q-7 -2 -49 -20q-32 -13 -50 -13q-17 0 -34 7q-22 8 -22 22q0 9 5 26.5t5 25.5q0 27 -11 44q-51 -32 -68 -32q-20 0 -46 23t-46 22h-6q-17 -19 -17 -52q0 -7 4.5 -22t4.5 -22q0 -28 -31 -28q-10 0 -54 16
q-40 16 -50.5 21.5t-10.5 20.5q0 9 11 25q14 20 16 24q9 20 17 51q6 26 13 52q28 95 57 189q44 149 44 172q0 13 -11.5 31.5t-11.5 29.5q0 29 28 39q17 6 60 7q39 0 50 6q10 2 28 6q6 2 40 16t36 14q16 0 34 -9t18 -24q0 -6 -1 -19.5t-1 -20.5q0 -35 20 -111q15 -56 30 -113
q20 -80 46 -181q6 -19 17 -56q3 -10 38 -104zM299 205q0 26 -16 83q-18 65 -35 65q-16 0 -34 -59q-9 -39 -19 -77q14 -1 45 -12q8 -6 17.5 -13t17.5 -7t16 6t8 14zM238 823q28 0 63 -19t73 -19q17 0 27 13t14 14q18 1 20.5 -7t5.5 -17q-26 -39 -44 -52q-24 -17 -63 -17
q-16 0 -54.5 18.5t-67.5 18.5q-11 0 -24.5 -14.5t-25.5 -14.5q-20 0 -20 15q0 21 34 51t62 30z" />
    <glyph glyph-name="Otilde" unicode="&#xd5;" horiz-adv-x="671" 
d="M635 315q0 -133 -92.5 -225.5t-227.5 -92.5q-142 0 -229 102q-81 97 -81 241q0 139 85 235q89 100 227 100q112 0 204.5 -80.5t109.5 -191.5q4 -29 4 -88zM433 181q0 40 -51 184q-53 149 -80 173q-19 17 -46 17q-22 0 -37.5 -18t-15.5 -41q0 -35 48.5 -175.5t70.5 -173
t58 -32.5q25 0 39 20t14 46zM248 823q28 0 63 -19t73 -19q17 0 27 13t14 14q18 1 20.5 -7t5.5 -17q-26 -39 -44 -52q-24 -17 -63 -17q-16 0 -54.5 18.5t-67.5 18.5q-11 0 -24.5 -14.5t-25.5 -14.5q-20 0 -20 15q0 21 34 51t62 30z" />
    <glyph glyph-name="OE" unicode="&#x152;" horiz-adv-x="946" 
d="M622 152q0 -32 17 -41q11 -6 47 -6q47 0 83 27q20 15 49 52q21 27 32 27q13 0 30 -15t17 -28q0 -18 -16 -99t-23 -93q-9 -15 -42 -15q3 0 -25 18.5t-53 18.5l-305 2q-22 0 -37 7q-39 -10 -81 -10q-142 0 -229 102q-81 97 -81 241q0 139 85 235q89 100 227 100
q72 0 211 -2.5t211 -2.5q14 0 40.5 19.5t31.5 19.5q33 0 40 -25q4 -30 14 -89q6 -23 12 -45q7 -30 7 -46q0 -11 -15.5 -25t-26.5 -14q-8 0 -43 44q-38 47 -66 53h-68q-39 0 -39 -48q0 -43 5 -54q49 6 40 6q39 0 70 -36q23 -34 46 -69q9 -14 33 -19q18 -4 18 -22
q0 -32 -26 -56.5t-58 -24.5q-41 0 -56 32q-7 31 -15 62.5t-32 31.5q-30 0 -30 -35q0 -27 1 -89v-89zM381 175q7 53 7 152q0 171 -19 205t-53 34q-40 0 -54 -41q-11 -34 -11 -186q0 -145 9 -182q6 -21 23 -37t38 -16q35 0 53 42z" />
    <glyph glyph-name="oe" unicode="&#x153;" horiz-adv-x="836" 
d="M628 341q0 62 -56 62q-24 0 -38 -17t-14 -42q0 -21 15 -39t37 -18q23 0 39.5 15.5t16.5 38.5zM417 57q-73 -55 -170 -55q-100 0 -170 75t-70 175q0 107 79 178q76 69 184 69q83 0 150 -55q65 58 156 58q81 0 147.5 -63.5t66.5 -145.5q0 -25 -118 -61q-74 -20 -149 -40
l-3 -11q0 -31 25 -52t57 -21q42 0 72 22q15 12 38 44q19 24 31 26q8 0 50 -28l7 -16q0 -71 -88 -115q-72 -35 -149 -35q-83 0 -146 51zM345 154q0 15 -22 76q-15 40 -30.5 81.5t-22.5 53.5q-18 29 -46 29q-21 0 -35 -14.5t-14 -35.5q0 -19 29.5 -102t42.5 -105
q19 -32 47 -32q20 0 35.5 15t15.5 34z" />
    <glyph glyph-name="endash" unicode="&#x2013;" horiz-adv-x="452" 
d="M21 356h372q20 0 20 -20v-76q0 -20 -20 -20h-372q-20 0 -20 20v76q0 20 20 20z" />
    <glyph glyph-name="emdash" unicode="&#x2014;" horiz-adv-x="859" 
d="M783 356q20 0 20 -20v-76q0 -20 -20 -20h-762q-20 0 -20 20v76q0 20 20 20h762z" />
    <glyph glyph-name="quotedblleft" unicode="&#x201c;" horiz-adv-x="396" 
d="M-5 530q0 48 26 92q31 51 76 51q27 0 27 -19q0 -2 -8.5 -20.5t-8.5 -27.5q0 -13 21 -33.5t21 -50.5t-21.5 -53.5t-50.5 -23.5q-37 0 -59.5 24t-22.5 61zM195 530q0 48 26 92q31 51 76 51q27 0 27 -19q0 -2 -8.5 -20.5t-8.5 -27.5q0 -13 21 -33.5t21 -50.5t-21.5 -53.5
t-50.5 -23.5q-37 0 -59.5 24t-22.5 61z" />
    <glyph glyph-name="quotedblright" unicode="&#x201d;" horiz-adv-x="407" 
d="M349 588q0 -48 -27 -92q-30 -51 -75 -51q-27 0 -27 19q0 3 8.5 21.5t8.5 26.5q0 13 -21 34t-21 51t21.5 53t50.5 23q37 0 59.5 -24t22.5 -61zM149 588q0 -48 -27 -92q-30 -51 -75 -51q-27 0 -27 19q0 3 8.5 21.5t8.5 26.5q0 13 -21 34t-21 51t21.5 53t50.5 23
q37 0 59.5 -24t22.5 -61z" />
    <glyph glyph-name="quoteleft" unicode="&#x2018;" horiz-adv-x="196" 
d="M-5 530q0 48 26 92q31 51 76 51q27 0 27 -19q0 -2 -8.5 -20.5t-8.5 -27.5q0 -13 21 -33.5t21 -50.5t-21.5 -53.5t-50.5 -23.5q-37 0 -59.5 24t-22.5 61z" />
    <glyph glyph-name="quoteright" unicode="&#x2019;" horiz-adv-x="207" 
d="M149 588q0 -48 -27 -92q-30 -51 -75 -51q-27 0 -27 19q0 3 8.5 21.5t8.5 26.5q0 13 -21 34t-21 51t21.5 53t50.5 23q37 0 59.5 -24t22.5 -61z" />
    <glyph glyph-name="divide" unicode="&#xf7;" horiz-adv-x="24" 
 />
    <glyph glyph-name="ydieresis" unicode="&#xff;" horiz-adv-x="501" 
d="M466 444q0 -12 -11 -25q-15 -20 -16.5 -23t-25.5 -66q-34 -96 -69 -193q-42 -116 -77 -189q-64 -134 -163 -134q-48 0 -80.5 29.5t-32.5 77.5q0 30 22 52t52 22q20 0 37.5 -15t17.5 -35q0 -13 -13.5 -24t-13.5 -18q0 -12 13 -12q34 0 67 93q-45 134 -141 399q-3 7 -19 29
q-14 18 -14 28q0 28 71 43q50 9 99 17l31 -20q0 -37 21 -110q24 -82 48 -98h4h5q11 8 35.5 73t21.5 79q-7 43 -7 40q0 11 14 20t26 9q21 0 57 -15q41 -17 41 -34zM254 583q0 19 12.5 31.5t30.5 12.5t30 -12.5t12 -31.5q0 -18 -12 -31t-30 -13t-30.5 13t-12.5 31zM114 583
q0 19 12.5 31.5t30.5 12.5t30 -12.5t12 -31.5q0 -18 -12 -31t-30 -13t-30.5 13t-12.5 31z" />
    <glyph glyph-name="Ydieresis" unicode="&#x178;" horiz-adv-x="564" 
d="M294 763q0 19 12.5 31.5t30.5 12.5t30 -12.5t12 -31.5q0 -18 -12 -31t-30 -13t-30.5 13t-12.5 31zM144 763q0 19 12.5 31.5t30.5 12.5t30 -12.5t12 -31.5q0 -18 -12 -31t-30 -13t-30.5 13t-12.5 31zM-1 610q-1 -14 13 -27q9 -8 17 -15q33 -45 60 -125q21 -60 84 -191
q-2 -99 0 -173q-7 -9 -15 -18q-13 -19 -15 -36q-2 -19 22 -23q4 -1 32 -1h171q39 0 39 30q0 4 -13.5 21.5t-16.5 24t-3 187.5q0 7 59.5 144t71.5 158q11 15 22 29q15 22 15 31t-50.5 35.5t-61.5 26.5q-30 0 -30 -23q0 -6 1.5 -18.5t1.5 -19.5q0 -25 -31 -109
q-33 -90 -50 -90q-16 0 -43 86q-25 80 -25 105q0 6 1.5 17.5t1.5 17.5q0 36 -39 36q-20 0 -50 -10q-24 -8 -48.5 -15t-48.5 -13q-35 -9 -43 -16q-4 -5 -19 -9q-10 -2 -10 -17z" />
    <glyph glyph-name="currency" unicode="&#xa4;" horiz-adv-x="14" 
 />
    <glyph glyph-name="guilsinglleft" unicode="&#x2039;" horiz-adv-x="159" 
d="M90 476q9 0 16.5 -6.5t4.5 -15.5l-56 -151l56 -153q3 -9 -4.5 -15.5t-16.5 -6.5q-12 0 -22 22l-70 151l70 153q10 22 22 22z" />
    <glyph glyph-name="guilsinglright" unicode="&#x203a;" horiz-adv-x="159" 
d="M20 128q-9 0 -16.5 6.5t-4.5 15.5l56 151l-56 153q-3 9 4.5 15.5t16.5 6.5q12 0 22 -22l70 -151l-70 -153q-10 -22 -22 -22z" />
    <glyph glyph-name="daggerdbl" unicode="&#x2021;" horiz-adv-x="5" 
 />
    <glyph glyph-name="periodcentered" unicode="&#xb7;" horiz-adv-x="0" 
 />
    <glyph glyph-name="periodcentered" unicode="&#x2219;" horiz-adv-x="0" 
 />
    <glyph glyph-name="quotesinglbase" unicode="&#x201a;" horiz-adv-x="209" 
d="M149 48q0 -48 -27 -92q-30 -51 -75 -51q-27 0 -27 19q0 3 8.5 21.5t8.5 26.5q0 13 -21 34t-21 51t21.5 53t50.5 23q37 0 59.5 -24t22.5 -61z" />
    <glyph glyph-name="quotedblbase" unicode="&#x201e;" horiz-adv-x="409" 
d="M349 48q0 -48 -27 -92q-30 -51 -75 -51q-27 0 -27 19q0 3 8.5 21.5t8.5 26.5q0 13 -21 34t-21 51t21.5 53t50.5 23q37 0 59.5 -24t22.5 -61zM149 48q0 -48 -27 -92q-30 -51 -75 -51q-27 0 -27 19q0 3 8.5 21.5t8.5 26.5q0 13 -21 34t-21 51t21.5 53t50.5 23
q37 0 59.5 -24t22.5 -61z" />
    <glyph glyph-name="perthousand" unicode="&#x2030;" horiz-adv-x="14" 
 />
    <glyph glyph-name="Acircumflex" unicode="&#xc2;" horiz-adv-x="629" 
d="M585 52q0 -27 -12 -37q-8 -6 -42 -15q-24 -6 -48 -11q-7 -2 -49 -20q-32 -13 -50 -13q-17 0 -34 7q-22 8 -22 22q0 9 5 26.5t5 25.5q0 27 -11 44q-51 -32 -68 -32q-20 0 -46 23t-46 22h-6q-17 -19 -17 -52q0 -7 4.5 -22t4.5 -22q0 -28 -31 -28q-10 0 -54 16
q-40 16 -50.5 21.5t-10.5 20.5q0 9 11 25q14 20 16 24q9 20 17 51q6 26 13 52q28 95 57 189q44 149 44 172q0 13 -11.5 31.5t-11.5 29.5q0 29 28 39q17 6 60 7q39 0 50 6q10 2 28 6q6 2 40 16t36 14q16 0 34 -9t18 -24q0 -6 -1 -19.5t-1 -20.5q0 -35 20 -111q15 -56 30 -113
q20 -80 46 -181q6 -19 17 -56q3 -10 38 -104zM299 205q0 26 -16 83q-18 65 -35 65q-16 0 -34 -59q-9 -39 -19 -77q14 -1 45 -12q8 -6 17.5 -13t17.5 -7t16 6t8 14zM283 748l-88 -34q-12 -5 -17 3l-4 6q-6 8 3 16l92 84q6 6 14 4q8 2 15 -4l91 -84q9 -8 3 -16l-4 -6
q-5 -8 -17 -3z" />
    <glyph glyph-name="Ecircumflex" unicode="&#xca;" horiz-adv-x="563" 
d="M527 168q0 -18 -16 -99t-23 -93q-9 -15 -42 -15q3 0 -25 18.5t-53 18.5l-315 2q-52 0 -52 30l17 35t15 49q3 5 3 437q0 25 -16 51.5t-16 38.5q0 19 13 25q5 2 29 5h32h146q97 -1 145 -1q14 0 40.5 19.5t31.5 19.5q33 0 40 -25q4 -30 14 -89q6 -23 12 -45q7 -30 7 -46
q0 -11 -15.5 -25t-26.5 -14q-8 0 -43 44q-38 47 -66 53h-68q-39 0 -39 -48q0 -43 5 -54q49 6 40 6q39 0 70 -36q23 -34 46 -69q9 -14 33 -19q18 -4 18 -22q0 -32 -26 -56.5t-58 -24.5q-41 0 -56 32q-7 31 -15 62.5t-32 31.5q-18 0 -23 -10q-3 -5 -3 -25.5t-2 -89.5
q-1 -54 -1 -88q0 -32 17 -41q11 -6 47 -6q47 0 83 27q20 15 49 52q21 27 32 27q13 0 30 -15t17 -28zM253 748l-88 -34q-12 -5 -17 3l-4 6q-6 8 3 16l92 84q6 6 14 4q8 2 15 -4l91 -84q9 -8 3 -16l-4 -6q-5 -8 -17 -3z" />
    <glyph glyph-name="Aacute" unicode="&#xc1;" horiz-adv-x="629" 
d="M585 52q0 -27 -12 -37q-8 -6 -42 -15q-24 -6 -48 -11q-7 -2 -49 -20q-32 -13 -50 -13q-17 0 -34 7q-22 8 -22 22q0 9 5 26.5t5 25.5q0 27 -11 44q-51 -32 -68 -32q-20 0 -46 23t-46 22h-6q-17 -19 -17 -52q0 -7 4.5 -22t4.5 -22q0 -28 -31 -28q-10 0 -54 16
q-40 16 -50.5 21.5t-10.5 20.5q0 9 11 25q14 20 16 24q9 20 17 51q6 26 13 52q28 95 57 189q44 149 44 172q0 13 -11.5 31.5t-11.5 29.5q0 29 28 39q17 6 60 7q39 0 50 6q10 2 28 6q6 2 40 16t36 14q16 0 34 -9t18 -24q0 -6 -1 -19.5t-1 -20.5q0 -35 20 -111q15 -56 30 -113
q20 -80 46 -181q6 -19 17 -56q3 -10 38 -104zM299 205q0 26 -16 83q-18 65 -35 65q-16 0 -34 -59q-9 -39 -19 -77q14 -1 45 -12q8 -6 17.5 -13t17.5 -7t16 6t8 14zM211 725l102 104q5 6 13 6q13 0 21 -12l27 -38q6 -9 4 -20q-1 -11 -10 -14l-137 -54q-13 -5 -19 3l-4 7
q-7 9 3 18z" />
    <glyph glyph-name="Edieresis" unicode="&#xcb;" horiz-adv-x="563" 
d="M527 168q0 -18 -16 -99t-23 -93q-9 -15 -42 -15q3 0 -25 18.5t-53 18.5l-315 2q-52 0 -52 30l17 35t15 49q3 5 3 437q0 25 -16 51.5t-16 38.5q0 19 13 25q5 2 29 5h32h146q97 -1 145 -1q14 0 40.5 19.5t31.5 19.5q33 0 40 -25q4 -30 14 -89q6 -23 12 -45q7 -30 7 -46
q0 -11 -15.5 -25t-26.5 -14q-8 0 -43 44q-38 47 -66 53h-68q-39 0 -39 -48q0 -43 5 -54q49 6 40 6q39 0 70 -36q23 -34 46 -69q9 -14 33 -19q18 -4 18 -22q0 -32 -26 -56.5t-58 -24.5q-41 0 -56 32q-7 31 -15 62.5t-32 31.5q-18 0 -23 -10q-3 -5 -3 -25.5t-2 -89.5
q-1 -54 -1 -88q0 -32 17 -41q11 -6 47 -6q47 0 83 27q20 15 49 52q21 27 32 27q13 0 30 -15t17 -28zM274 763q0 19 12.5 31.5t30.5 12.5t30 -12.5t12 -31.5q0 -18 -12 -31t-30 -13t-30.5 13t-12.5 31zM124 763q0 19 12.5 31.5t30.5 12.5t30 -12.5t12 -31.5q0 -18 -12 -31
t-30 -13t-30.5 13t-12.5 31z" />
    <glyph glyph-name="Egrave" unicode="&#xc8;" horiz-adv-x="563" 
d="M527 168q0 -18 -16 -99t-23 -93q-9 -15 -42 -15q3 0 -25 18.5t-53 18.5l-315 2q-52 0 -52 30l17 35t15 49q3 5 3 437q0 25 -16 51.5t-16 38.5q0 19 13 25q5 2 29 5h32h146q97 -1 145 -1q14 0 40.5 19.5t31.5 19.5q33 0 40 -25q4 -30 14 -89q6 -23 12 -45q7 -30 7 -46
q0 -11 -15.5 -25t-26.5 -14q-8 0 -43 44q-38 47 -66 53h-68q-39 0 -39 -48q0 -43 5 -54q49 6 40 6q39 0 70 -36q23 -34 46 -69q9 -14 33 -19q18 -4 18 -22q0 -32 -26 -56.5t-58 -24.5q-41 0 -56 32q-7 31 -15 62.5t-32 31.5q-18 0 -23 -10q-3 -5 -3 -25.5t-2 -89.5
q-1 -54 -1 -88q0 -32 17 -41q11 -6 47 -6q47 0 83 27q20 15 49 52q21 27 32 27q13 0 30 -15t17 -28zM322 725l-102 104q-5 6 -13 6q-13 0 -20 -12l-28 -38q-6 -9 -4 -20q1 -11 10 -14l137 -54q13 -5 19 3l5 7q6 9 -4 18z" />
    <glyph glyph-name="Iacute" unicode="&#xcd;" horiz-adv-x="359" 
d="M310 637q0 -6 -11.5 -24t-12.5 -23q-11 -28 -10 -64v-144q-1 -107 -1 -135v-135q0 -16 16 -45.5t16 -38.5q0 -15 -31 -28l-220 1q-37 1 -37 37q0 2 16 40t16 51l1 415q0 23 -17 54t-17 39q0 13 15.5 24.5t29.5 11.5h190q19 0 36 -9q21 -10 21 -27zM91 725l102 104
q5 6 13 6q13 0 21 -12l27 -38q6 -9 4 -20q-1 -11 -10 -14l-137 -54q-13 -5 -19 3l-4 7q-7 9 3 18z" />
    <glyph glyph-name="Icircumflex" unicode="&#xce;" horiz-adv-x="359" 
d="M310 637q0 -6 -11.5 -24t-12.5 -23q-11 -28 -10 -64v-144q-1 -107 -1 -135v-135q0 -16 16 -45.5t16 -38.5q0 -15 -31 -28l-220 1q-37 1 -37 37q0 2 16 40t16 51l1 415q0 23 -17 54t-17 39q0 13 15.5 24.5t29.5 11.5h190q19 0 36 -9q21 -10 21 -27zM153 748l-88 -34
q-12 -5 -17 3l-4 6q-6 8 3 16l92 84q6 6 14 4q8 2 15 -4l91 -84q9 -8 3 -16l-4 -6q-5 -8 -17 -3z" />
    <glyph glyph-name="Idieresis" unicode="&#xcf;" horiz-adv-x="359" 
d="M310 637q0 -6 -11.5 -24t-12.5 -23q-11 -28 -10 -64v-144q-1 -107 -1 -135v-135q0 -16 16 -45.5t16 -38.5q0 -15 -31 -28l-220 1q-37 1 -37 37q0 2 16 40t16 51l1 415q0 23 -17 54t-17 39q0 13 15.5 24.5t29.5 11.5h190q19 0 36 -9q21 -10 21 -27zM188 763
q0 19 12.5 31.5t30.5 12.5t30 -12.5t12 -31.5q0 -18 -12 -31t-30 -13t-30.5 13t-12.5 31zM48 763q0 19 12.5 31.5t30.5 12.5t30 -12.5t12 -31.5q0 -18 -12 -31t-30 -13t-30.5 13t-12.5 31z" />
    <glyph glyph-name="Igrave" unicode="&#xcc;" horiz-adv-x="359" 
d="M310 637q0 -6 -11.5 -24t-12.5 -23q-11 -28 -10 -64v-144q-1 -107 -1 -135v-135q0 -16 16 -45.5t16 -38.5q0 -15 -31 -28l-220 1q-37 1 -37 37q0 2 16 40t16 51l1 415q0 23 -17 54t-17 39q0 13 15.5 24.5t29.5 11.5h190q19 0 36 -9q21 -10 21 -27zM232 725l-102 104
q-5 6 -13 6q-13 0 -20 -12l-28 -38q-6 -9 -4 -20q1 -11 10 -14l137 -54q13 -5 19 3l5 7q6 9 -4 18z" />
    <glyph glyph-name="Oacute" unicode="&#xd3;" horiz-adv-x="671" 
d="M635 315q0 -133 -92.5 -225.5t-227.5 -92.5q-142 0 -229 102q-81 97 -81 241q0 139 85 235q89 100 227 100q112 0 204.5 -80.5t109.5 -191.5q4 -29 4 -88zM433 181q0 40 -51 184q-53 149 -80 173q-19 17 -46 17q-22 0 -37.5 -18t-15.5 -41q0 -35 48.5 -175.5t70.5 -173
t58 -32.5q25 0 39 20t14 46zM231 725l102 104q5 6 13 6q13 0 21 -12l27 -38q6 -9 4 -20q-1 -11 -10 -14l-137 -54q-13 -5 -19 3l-4 7q-7 9 3 18z" />
    <glyph glyph-name="Ocircumflex" unicode="&#xd4;" horiz-adv-x="671" 
d="M635 315q0 -133 -92.5 -225.5t-227.5 -92.5q-142 0 -229 102q-81 97 -81 241q0 139 85 235q89 100 227 100q112 0 204.5 -80.5t109.5 -191.5q4 -29 4 -88zM433 181q0 40 -51 184q-53 149 -80 173q-19 17 -46 17q-22 0 -37.5 -18t-15.5 -41q0 -35 48.5 -175.5t70.5 -173
t58 -32.5q25 0 39 20t14 46zM313 748l-88 -34q-12 -5 -17 3l-4 6q-6 8 3 16l92 84q6 6 14 4q8 2 15 -4l91 -84q9 -8 3 -16l-4 -6q-5 -8 -17 -3z" />
    <glyph glyph-name="Ograve" unicode="&#xd2;" horiz-adv-x="671" 
d="M635 315q0 -133 -92.5 -225.5t-227.5 -92.5q-142 0 -229 102q-81 97 -81 241q0 139 85 235q89 100 227 100q112 0 204.5 -80.5t109.5 -191.5q4 -29 4 -88zM433 181q0 40 -51 184q-53 149 -80 173q-19 17 -46 17q-22 0 -37.5 -18t-15.5 -41q0 -35 48.5 -175.5t70.5 -173
t58 -32.5q25 0 39 20t14 46zM382 725l-102 104q-5 6 -13 6q-13 0 -20 -12l-28 -38q-6 -9 -4 -20q1 -11 10 -14l137 -54q13 -5 19 3l5 7q6 9 -4 18z" />
    <glyph glyph-name="Uacute" unicode="&#xda;" horiz-adv-x="585" 
d="M525 174q0 -47 -23 -83q-36 -57 -94 -78q-43 -16 -123 -16q-123 0 -194 55q-79 61 -79 181l8 106l16 214v41q-20 45 -20 54q0 12 21 22.5t34 9.5h2q14 -1 71 -12q44 -8 71 -8q59 0 59 -44q0 -6 -7 -22q-9 -20 -10 -23q-7 -23 -9 -72q-1 -37 -3 -74l-12 -205q0 -48 25 -77
q27 -32 74 -32q88 0 88 109q0 48 -5 182q-7 168 -14 188q-2 4 -13 22q-9 14 -9 20q0 36 41 36q6 0 19.5 -2.5t19.5 -2.5q42 0 40 0q21 -3 21 -25q0 -11 -5 -32.5t-4 -34.5q14 -268 14 -397zM191 725l102 104q5 6 13 6q13 0 21 -12l27 -38q6 -9 4 -20q-1 -11 -10 -14
l-137 -54q-13 -5 -19 3l-4 7q-7 9 3 18z" />
    <glyph glyph-name="Ucircumflex" unicode="&#xdb;" horiz-adv-x="585" 
d="M525 174q0 -47 -23 -83q-36 -57 -94 -78q-43 -16 -123 -16q-123 0 -194 55q-79 61 -79 181l8 106l16 214v41q-19 43 -20 54q-1 20 22 28q14 5 33 4h2q14 -1 71 -12q44 -8 71 -8q59 0 59 -44q0 -6 -7 -22q-9 -20 -10 -23q-7 -23 -9 -72q-1 -37 -3 -74l-12 -205
q0 -48 25 -77q27 -32 74 -32q88 0 88 109q0 48 -5 182q-7 168 -14 188q-2 4 -13 22q-9 14 -9 20q0 36 41 36q6 0 19.5 -2.5t19.5 -2.5q42 0 40 0q21 -3 21 -25q0 -11 -5 -32.5t-4 -34.5q14 -268 14 -397zM273 748l-88 -34q-12 -5 -17 3l-4 6q-6 8 3 16l92 84q6 6 14 4
q8 2 15 -4l91 -84q9 -8 3 -16l-4 -6q-5 -8 -17 -3z" />
    <glyph glyph-name="Ugrave" unicode="&#xd9;" horiz-adv-x="585" 
d="M525 174q0 -47 -23 -83q-36 -57 -94 -78q-43 -16 -123 -16q-123 0 -194 55q-79 61 -79 181l8 106l16 214v41q-20 45 -20 54q0 12 21 22.5t34 9.5h2q14 -1 71 -12q44 -8 71 -8q59 0 59 -44q0 -6 -7 -22q-9 -20 -10 -23q-7 -23 -9 -72q-1 -37 -3 -74l-12 -205q0 -48 25 -77
q27 -32 74 -32q88 0 88 109q0 48 -5 182q-7 168 -14 188q-2 4 -13 22q-9 14 -9 20q0 36 41 36q6 0 19.5 -2.5t19.5 -2.5q42 0 40 0q21 -3 21 -25q0 -11 -5 -32.5t-4 -34.5q14 -268 14 -397zM352 725l-102 104q-5 6 -13 6q-13 0 -20 -12l-28 -38q-6 -9 -4 -20q1 -11 10 -14
l137 -54q13 -5 19 3l5 7q6 9 -4 18z" />
    <glyph glyph-name="circumflex" unicode="&#x2c6;" horiz-adv-x="359" 
d="M153 748l-88 -34q-12 -5 -17 3l-4 6q-6 8 3 16l92 84q6 6 14 4q8 2 15 -4l91 -84q9 -8 3 -16l-4 -6q-5 -8 -17 -3z" />
    <glyph glyph-name="tilde" unicode="&#x2dc;" horiz-adv-x="613" 
d="M238 823q28 0 63 -19t73 -19q17 0 27 13t14 14q18 1 20.5 -7t5.5 -17q-26 -39 -44 -52q-24 -17 -63 -17q-16 0 -54.5 18.5t-67.5 18.5q-11 0 -24.5 -14.5t-25.5 -14.5q-20 0 -20 15q0 21 34 51t62 30z" />
    <glyph glyph-name="macron" unicode="&#xaf;" 
d="M33 802h169q22 0 22 -22v-13q0 -22 -22 -22h-169q-22 0 -22 22v13q0 22 22 22z" />
    <glyph glyph-name="macron" unicode="&#x2c9;" 
d="M33 802h169q22 0 22 -22v-13q0 -22 -22 -22h-169q-22 0 -22 22v13q0 22 22 22z" />
    <glyph glyph-name="cedilla" unicode="&#xb8;" horiz-adv-x="301" 
d="M135 1l-8 -28q94 -10 94 -75q0 -43 -30 -65q-26 -21 -70 -21q-19 0 -41 10q-26 13 -26 29q0 21 20 21q7 0 17.5 -9t25.5 -9q33 0 33 42q0 31 -32.5 41t-32.5 30q0 1 12 34h38z" />
    <glyph glyph-name="Scaron" unicode="&#x160;" 
 />
    <glyph glyph-name="scaron" unicode="&#x161;" 
 />
    <glyph glyph-name="brokenbar" unicode="&#xa6;" 
 />
    <glyph glyph-name="Eth" unicode="&#xd0;" 
 />
    <glyph glyph-name="eth" unicode="&#xf0;" 
 />
    <glyph glyph-name="Yacute" unicode="&#xdd;" 
 />
    <glyph glyph-name="yacute" unicode="&#xfd;" 
 />
    <glyph glyph-name="Thorn" unicode="&#xde;" 
 />
    <glyph glyph-name="thorn" unicode="&#xfe;" 
 />
    <glyph glyph-name="uni00AD" unicode="&#xad;" 
 />
    <glyph glyph-name="uni00AD" unicode="&#x2212;" 
 />
    <glyph glyph-name="multiply" unicode="&#xd7;" 
 />
    <glyph glyph-name="uni00B9" unicode="&#xb9;" 
 />
    <glyph glyph-name="uni00B2" unicode="&#xb2;" 
 />
    <glyph glyph-name="uni00B3" unicode="&#xb3;" 
 />
    <glyph glyph-name="onehalf" unicode="&#xbd;" 
 />
    <glyph glyph-name="onequarter" unicode="&#xbc;" 
 />
    <glyph glyph-name="threequarters" unicode="&#xbe;" 
 />
    <glyph glyph-name="Lslash" unicode="&#x141;" 
 />
    <glyph glyph-name="lslash" unicode="&#x142;" 
 />
    <glyph glyph-name="glyph220" 
 />
    <glyph glyph-name="glyph221" 
 />
    <glyph glyph-name="glyph222" 
 />
    <glyph glyph-name="Zcaron" unicode="&#x17d;" 
 />
    <glyph glyph-name="zcaron" unicode="&#x17e;" 
 />
    <glyph glyph-name="glyph225" 
 />
    <glyph glyph-name="glyph226" 
 />
    <glyph glyph-name="glyph227" 
 />
    <glyph glyph-name="glyph228" 
 />
    <glyph glyph-name="glyph229" 
 />
    <glyph glyph-name="glyph230" 
 />
    <glyph glyph-name="glyph231" 
 />
    <glyph glyph-name="glyph232" horiz-adv-x="1000" 
 />
    <glyph glyph-name="notequal" unicode="&#x2260;" horiz-adv-x="14" 
 />
    <glyph glyph-name="infinity" unicode="&#x221e;" horiz-adv-x="11" 
 />
    <glyph glyph-name="lessequal" unicode="&#x2264;" horiz-adv-x="11" 
 />
    <glyph glyph-name="greaterequal" unicode="&#x2265;" horiz-adv-x="14" 
 />
    <glyph glyph-name="partialdiff" unicode="&#x2202;" horiz-adv-x="313" 
d="M242 14l-21 -16l-31 -1h-57q-85 0 -91 1l-14 20q1 6 10 28q7 17 7 28v103l-36 -25q-3 -1 -5 -1q-7 0 -12 7.5t-5 15.5v26q0 7 22 22l36 25v320q0 9 -7.5 27t-7.5 26q0 26 39 32q29 2 59 4q9 2 34 14q22 10 31 10q29 0 29 -40q0 -48 -2 -273l42 29q2 2 5 2q6 0 11.5 -8
t5.5 -16v-25q0 -7 -22 -22l-42 -29q0 -108 1 -163q1 -64 1 -66q3 -19 20 -55z" />
    <glyph glyph-name="summation" unicode="&#x2211;" horiz-adv-x="617" 
d="M585 257q0 -120 -112 -193q-93 -60 -201 -60l-118 10q-23 0 -50 -10.5t-34 -10.5q-15 0 -13 -1q-10 2 -17 16q-3 4 -17 79q-24 79 -24 94q0 12 16.5 25t25.5 13q18 0 47 -37q18 -22 43 -37q58 -33 125 -33h14q30 0 70 23q48 27 48 60q0 36 -47 45q-63 10 -127 20
q-76 18 -126 68q-54 53 -54 130q0 98 85 160q74 53 166 53l89 -6q21 0 44 9.5t29 9.5q29 0 34 -20q18 -73 18 -147q0 -12 -13.5 -22t-22.5 -10q-19 0 -63.5 39t-91.5 39q-71 0 -71 -47q0 -34 44 -50q28 -10 83 -14q47 -3 49 -7q13 -3 37 -11q19 -7 59 -32q34 -22 57 -71
q19 -42 19 -74zM303 784l88 33q12 5 17 -3l4 -6q6 -8 -3 -16l-91 -84q-7 -5 -15 -4q-8 -1 -14 4l-92 84q-9 8 -3 16l4 6q5 8 17 3z" />
    <glyph glyph-name="product" unicode="&#x220f;" horiz-adv-x="502" 
d="M462 164q0 -82 -80 -131q-67 -41 -155 -41q-16 0 -47.5 4.5t-46.5 4.5q-10 0 -33 -7t-33 -7q-28 0 -44 20q-5 28 -12 67q-1 5 -10 38t-9 34q0 16 37 32q19 -7 82 -53q45 -32 100 -32q90 0 90 43q0 20 -74 35q-98 20 -138 42q-74 42 -74 128q0 93 99 128q61 22 174 22
q23 0 56 14q34 -9 43 -56q3 -15 3 -77q0 -9 -13.5 -18t-23.5 -9q-7 0 -41 28.5t-67 28.5q-50 0 -50 -31q0 -21 69 -40q93 -26 128 -47q70 -43 70 -120zM233 604l88 33q12 5 17 -3l4 -6q6 -8 -3 -16l-91 -84q-7 -5 -15 -4q-8 -1 -14 4l-92 84q-9 8 -3 16l4 6q5 8 17 3z" />
    <glyph glyph-name="pi" unicode="&#x3c0;" horiz-adv-x="555" 
d="M294 763q0 19 12.5 31.5t30.5 12.5t30 -12.5t12 -31.5q0 -18 -12 -31t-30 -13t-30.5 13t-12.5 31zM154 763q0 19 12.5 31.5t30.5 12.5t30 -12.5t12 -31.5q0 -18 -12 -31t-30 -13t-30.5 13t-12.5 31zM-1 610q-1 -14 13 -27q9 -8 17 -15q33 -45 60 -125q21 -60 84 -191
q-2 -99 0 -173q-7 -9 -15 -18q-13 -19 -15 -36q-2 -19 22 -23q4 -1 32 -1h171q39 0 39 30q0 4 -13.5 21.5t-16.5 24t-3 187.5q0 7 59.5 144t71.5 158q11 15 22 29q15 22 15 31t-50.5 35.5t-61.5 26.5q-30 0 -30 -23q0 -6 1.5 -18.5t1.5 -19.5q0 -25 -31 -109
q-33 -90 -50 -90q-16 0 -43 86q-25 80 -25 105q0 6 1.5 17.5t1.5 17.5q0 36 -39 36q-20 0 -50 -10q-24 -8 -48.5 -15t-48.5 -13q-35 -9 -43 -16q-4 -5 -19 -9q-10 -2 -10 -17z" />
    <glyph glyph-name="integral" unicode="&#x222b;" horiz-adv-x="501" 
d="M466 444q0 -12 -11 -25q-15 -20 -16.5 -23t-25.5 -66q-34 -96 -69 -193q-42 -116 -77 -189q-64 -134 -163 -134q-48 0 -80.5 29.5t-32.5 77.5q0 30 22 52t52 22q20 0 37.5 -15t17.5 -35q0 -13 -13.5 -24t-13.5 -18q0 -12 13 -12q34 0 67 93q-45 134 -141 399q-3 7 -19 29
q-14 18 -14 28q0 28 71 43q50 9 99 17q21 -2 29 -7.5t8 -23.5q1 -39 19 -105q21 -77 44 -92h4h5q11 8 35.5 73t21.5 79q-7 43 -7 40q0 11 14 20t26 9q21 0 57 -15q41 -17 41 -34zM264 583q0 19 12.5 31.5t30.5 12.5t30 -12.5t12 -31.5q0 -18 -12 -31t-30 -13t-30.5 13
t-12.5 31zM114 583q0 19 12.5 31.5t30.5 12.5t30 -12.5t12 -31.5q0 -18 -12 -31t-30 -13t-30.5 13t-12.5 31z" />
    <glyph glyph-name="Omega" unicode="&#x3a9;" horiz-adv-x="597" 
d="M20 427h42q21 105 85 170q74 76 186 74q91 -1 108 -5q55 -14 67 -74q4 -18 21 -60q16 -38 16 -44q0 -12 -14 -21.5t-24 -9.5q-16 0 -41 25q-38 36 -51 44q-35 25 -75 25q-53 0 -84 -42q-24 -32 -29 -82h148q24 0 24 -24v-4q0 -24 -24 -24h-148q2 -24 8 -46h143
q24 0 24 -24v-4q0 -24 -24 -24h-124q58 -112 196 -112q2 0 30.5 4t30.5 4q23 0 31 -2q16 -6 16 -27q0 -72 -73 -120q-60 -40 -121 -40h-10q-126 0 -207 94q-69 79 -88 199h-36q-24 0 -24 24v4q0 24 24 24h31v15q0 16 1 31h-35q-24 0 -24 24v4q0 24 24 24z" />
    <glyph glyph-name="Omega" unicode="&#x2126;" horiz-adv-x="597" 
d="M20 427h42q21 105 85 170q74 76 186 74q91 -1 108 -5q55 -14 67 -74q4 -18 21 -60q16 -38 16 -44q0 -12 -14 -21.5t-24 -9.5q-16 0 -41 25q-38 36 -51 44q-35 25 -75 25q-53 0 -84 -42q-24 -32 -29 -82h148q24 0 24 -24v-4q0 -24 -24 -24h-148q2 -24 8 -46h143
q24 0 24 -24v-4q0 -24 -24 -24h-124q58 -112 196 -112q2 0 30.5 4t30.5 4q23 0 31 -2q16 -6 16 -27q0 -72 -73 -120q-60 -40 -121 -40h-10q-126 0 -207 94q-69 79 -88 199h-36q-24 0 -24 24v4q0 24 24 24h31v15q0 16 1 31h-35q-24 0 -24 24v4q0 24 24 24z" />
    <glyph glyph-name="radical" unicode="&#x221a;" horiz-adv-x="8" 
 />
    <glyph glyph-name="approxequal" unicode="&#x2248;" horiz-adv-x="14" 
 />
    <glyph glyph-name="approxequal" unicode="&#x22f2;" horiz-adv-x="14" 
 />
    <glyph glyph-name="Delta" unicode="&#x394;" horiz-adv-x="8" 
 />
    <glyph glyph-name="Delta" unicode="&#x2206;" horiz-adv-x="8" 
 />
    <glyph glyph-name="lozenge" unicode="&#x25ca;" horiz-adv-x="256" 
d="M4 348l106 126l106 -126l-106 -126z" />
    <glyph glyph-name="fraction" unicode="&#x2044;" horiz-adv-x="5" 
 />
    <glyph glyph-name="uniF001" unicode="&#xf001;" horiz-adv-x="8" 
 />
    <glyph glyph-name="uniF002" unicode="&#xf002;" horiz-adv-x="14" 
 />
    <glyph glyph-name="uniF000" unicode="&#xf000;" 
 />
    <glyph glyph-name="dotlessi" unicode="&#x131;" horiz-adv-x="292" 
d="M240 34q-13 -30 -31 -30h-158q-11 0 -18.5 9t-7.5 21q0 6 8 23.5t8 26.5v294l-16 53q-10 31 61 31q16 0 52.5 18t46.5 18q24 0 30 -21q2 -9 2 -38v-357z" />
    <glyph glyph-name="breve" unicode="&#x2d8;" horiz-adv-x="297" 
d="M255 792q0 -39 -41 -63q-36 -21 -83 -21t-83 21q-42 24 -42 63q0 25 25 25t25 -25q0 -10 17 -20q22 -14 58 -14q35 0 57 14q17 10 17 20q0 25 25 25t25 -25z" />
    <glyph glyph-name="dotaccent" unicode="&#x2d9;" horiz-adv-x="158" 
d="M21 762q0 19 14.5 33t34.5 14q21 0 35 -14t14 -33q0 -20 -14 -34t-35 -14q-20 0 -34.5 14t-14.5 34z" />
    <glyph glyph-name="ring" unicode="&#x2da;" horiz-adv-x="187" 
d="M90 824q27 0 45.5 -18t18.5 -44t-18.5 -44.5t-45.5 -18.5q-26 0 -45 18.5t-19 44.5t19 44t45 18zM90 794q-14 0 -24 -9.5t-10 -22.5q0 -14 10 -23.5t24 -9.5q15 0 24.5 9.5t9.5 23.5q0 13 -9.5 22.5t-24.5 9.5z" />
    <glyph glyph-name="hungarumlaut" unicode="&#x2dd;" 
d="M141 719l40 83q6 14 21 6l8 -5q15 -9 5 -21l-55 -74q-5 -7 -11 -3l-5 3q-6 3 -3 11zM71 719l40 83q6 14 21 6l8 -5q15 -9 5 -21l-55 -74q-5 -7 -11 -3l-5 3q-6 3 -3 11z" />
    <glyph glyph-name="ogonek" unicode="&#x2db;" 
d="M225 -147q-25 -48 -68 -48q-39 0 -62 29.5t-23 73.5q0 47 22.5 82.5t60.5 35.5q20 0 20 -20t-20 -20q-15 0 -28 -19q-15 -22 -15 -59q0 -63 45 -63q19 0 33 27q5 11 17 11q21 0 21 -20q0 -5 -3 -10z" />
    <glyph glyph-name="caron" unicode="&#x2c7;" horiz-adv-x="324" 
d="M153 794l88 33q12 5 17 -3l4 -6q6 -8 -3 -16l-91 -84q-7 -5 -15 -4q-8 -1 -14 4l-92 84q-9 8 -3 16l4 6q5 8 17 3z" />
    </font>
</defs>
</svg>
