<?xml version="1.0" standalone="no"?>
<!DOCTYPE svg PUBLIC "-//W3C//DTD SVG 1.1//EN" "http://www.w3.org/Graphics/SVG/1.1/DTD/svg11.dtd" >
<svg>
<metadata>
Created by FontForge 20120731 at Wed Apr 17 20:46:25 2019
 By www-data
Digitized by Dan X. Solo. Software (c) 2000 by Dover Publications, Inc., New York.
</metadata>
<defs>
<font id="ShowtimeNormal" horiz-adv-x="20" >
  <font-face 
    font-family="Showtime"
    font-weight="400"
    font-stretch="normal"
    units-per-em="1000"
    panose-1="0 0 4 0 0 0 0 0 0 0"
    ascent="800"
    descent="-200"
    x-height="663"
    bbox="-46 -203 915 857"
    underline-thickness="20"
    underline-position="-123"
    unicode-range="U+0020-F002"
  />
<missing-glyph horiz-adv-x="500" 
d="M63 0v800h375v-800h-375zM125 63h250v675h-250v-675z" />
    <glyph glyph-name=".notdef" horiz-adv-x="500" 
d="M63 0v800h375v-800h-375zM125 63h250v675h-250v-675z" />
    <glyph glyph-name=".null" horiz-adv-x="0" 
 />
    <glyph glyph-name="glyph2" horiz-adv-x="268" 
 />
    <glyph glyph-name="space" unicode=" " horiz-adv-x="268" 
 />
    <glyph glyph-name="exclam" unicode="!" horiz-adv-x="273" 
d="M143 214h-98l-18 80q-11 51 -11 79v292h159v-295zM160 589v10h-12l-15 11l13 27q-14 -7 -30 -11l-7 4l4 20l-3 8q-6 -17 -19 -29q-15 7 -29 16v-9l6 -19q-12 -24 -39 -30l31 -3l11 -16q-9 -14 -16 -33h9l19 27h5l12 -28q2 22 17 30q12 -5 21 -15l6 5l-14 20zM158 491v10
l-3 2l-25 -7l1 3q-2 5 -4 9q2 22 2 20l-1 6l-28 -18q-17 7 -23 25l-6 -7q4 -9 7 -20l-6 -9l-33 8l23 -22v-20l-28 -13l3 -7l29 8l9 -5q0 -7 2 -30l20 22l20 5q13 -6 24 -15l3 5l-11 21l6 22zM151 353q-14 8 -24 30l22 24l-9 5l-25 -18l-11 9l-6 16l-9 -22l-17 -10l-25 4
l18 -18v-6l-22 -7l3 -9l19 4l6 -5l-18 -21l5 -4q12 9 25 16l18 -8l9 -15l7 31zM142 257v5l-18 5v5l15 15h-3q-8 0 -16 -2l-7 3l10 21l-8 2l-14 -21l-15 15q1 -13 -8 -20q-8 3 -15 7l-6 -2q9 -7 15 -16l-2 -7l-18 -12l6 -2l11 2l8 -3l-17 -17l8 -3l16 15q10 -10 10 -22
q6 12 17 22q10 -6 19 -12l6 2v5l-15 13l1 2h20zM165 1h-135v163h135v-163zM145 93l-8 5l-4 -2l-23 13q7 12 14 23l-3 6q-8 -10 -13 -21l-6 4v14q-6 -7 -10 -16q-9 10 -20 17l-4 -1l12 -33l-1 -4l-23 6l-6 -7l21 -14l-21 -21q20 4 32 -7l-16 -28l3 -5l27 25l9 -6l-2 -15l5 -9
q0 16 -5 30l8 7l19 -9l8 11q-15 5 -21 16v1z" />
    <glyph glyph-name="quotedbl" unicode="&#x22;" horiz-adv-x="425" 
d="M303 322h-78l-12 80q-7 49 -7 79v182h119v-185q0 -29 -8 -78zM318 599v10l-3 2l-15 -7l-9 3q8 13 8 29l-1 6l-28 -18q-12 10 -13 25l-6 -7q4 -9 7 -20l-6 -9l-33 8l23 -22v-20l-28 -13l3 -7l29 8l9 -5q0 -7 2 -30q6 10 11 21q8 4 19 6q7 -7 14 -15l3 5l-11 21l6 22z
M311 461q-9 9 -14 30l12 24l-9 5q-6 -12 -15 -18l-11 9l-6 16q-4 -13 -16 -32l-25 4l18 -18v-6l-22 -7l3 -9l19 4l6 -5l-18 -21l5 -4q12 9 25 16l13 -8l4 -15l2 31zM312 365v5l-18 5v5l15 15h-3q-8 0 -16 -2l-7 3l10 21l-8 2l-14 -21l-15 15q1 -13 -8 -20q-8 3 -15 7l-6 -2
q9 -7 15 -16l-2 -7l-18 -12l6 -2l11 2l8 -3l-17 -17l8 -3l16 15q10 -10 10 -22q6 12 17 22q10 -6 19 -12l6 2v5l-15 13l1 2h20zM133 322h-78l-12 80q-7 49 -7 79v182h119v-185q0 -29 -8 -78zM148 599v10l-3 2l-15 -7l-9 3q8 13 8 29l-1 6l-28 -18q-12 10 -13 25l-6 -7
q4 -9 7 -20l-6 -9l-33 8l23 -22v-20l-28 -13l3 -7l29 8l9 -5q0 -7 2 -30q6 10 11 21q8 4 19 6q7 -7 14 -15l3 5l-11 21l6 22zM141 461q-9 9 -14 30l12 24l-9 5q-6 -12 -15 -18l-11 9l-6 16q-4 -13 -16 -32l-25 4l18 -18v-6l-22 -7l3 -9l19 4l6 -5l-18 -21l5 -4q12 9 25 16
l13 -8l4 -15l2 31zM142 365v5l-18 5v5l15 15h-3q-8 0 -16 -2l-7 3l10 21l-8 2l-14 -21l-15 15q1 -13 -8 -20q-8 3 -15 7l-6 -2q9 -7 15 -16l-2 -7l-18 -12l6 -2l11 2l8 -3l-17 -17l8 -3l16 15q10 -10 10 -22q6 12 17 22q10 -6 19 -12l6 2v5l-15 13l1 2h20z" />
    <glyph glyph-name="numbersign" unicode="#" horiz-adv-x="566" 
d="M235 580l1 11l-8 -1l-8 13l14 29q-10 -6 -21 -11l-4 4q6 21 6 23l-1 8q-6 -18 -17 -32q-8 8 -15 18q-1 -6 -1 -31q-10 -24 -30 -33l19 -4l5 -18q-9 -15 -16 -37h5l17 30h3l2 -30q5 20 17 33q7 -6 11 -17l4 6q-3 11 -5 22zM193 314q-10 12 -11 40q8 17 21 31l-6 6l-22 -23
q-11 9 -7 32q-8 -31 -27 -41l-17 5l9 -23l-1 -8l-17 -10l-1 -11l16 5l3 -6l-17 -28l2 -6q12 12 22 21l11 -10l5 -20l11 38zM174 191l2 9l-16 7q-2 9 19 33h-4q-4 -1 -14 -5l-6 6l14 34l-6 2q-7 -20 -18 -32l-10 23q-1 -20 -13 -33l-11 12l-6 -3q6 -12 10 -25q-4 -12 -23 -31
l5 -2l10 2l6 -5l-18 -26l6 -5l18 23q7 -15 3 -35q8 20 22 35l14 -19l5 3l1 8l-10 21l2 4v-1h18zM158 93l-5 5l-3 -2l-12 13q6 12 12 23l-1 6l-20 -21l-3 4l2 14l-15 -16q-7 10 -17 17l-2 -1l2 -33q0 -1 -1 -4l-14 6l-5 -7l12 -14l-17 -21h12l7 -7l-14 -28l1 -5l21 25
q12 -10 16 -30q1 26 16 37l11 -9l6 11q-9 6 -11 16l1 1zM403 580l1 11l-8 -1l-8 13l14 29q-10 -6 -21 -11l-4 4q6 21 6 23l-1 8q-6 -18 -17 -32q-8 8 -15 18q-1 -6 -1 -31q-10 -24 -30 -33l19 -4l5 -18q-9 -15 -16 -37h5l17 30h3l2 -30q5 20 17 33q7 -6 11 -17l4 6
q-3 11 -5 22zM384 470l2 11l-2 3l-17 -7q1 10 4 31q1 2 1 6l1 5l-22 -21q-8 9 -10 28l-4 -7v-23l-5 -10l-20 9l12 -24l-4 -22l-21 -15l1 -8l20 9l5 -6q-2 -8 -4 -33l17 25l13 5q7 -7 13 -16l3 6l-4 23l8 24zM361 314q-10 12 -11 40q8 17 21 31l-6 6l-22 -23q-11 9 -7 32
q-8 -31 -27 -41l-17 5l9 -23l-1 -8l-17 -10l-1 -11l16 5l3 -6l-17 -28l2 -6q12 12 22 21l11 -10l5 -20l11 38zM326 93l-5 5l-3 -2l-12 13q6 12 12 23l-1 6l-20 -21l-3 4l2 14l-15 -16q-7 10 -17 17l-2 -1l2 -33q0 -1 -1 -4l-14 6l-5 -7l12 -14l-17 -21h12l7 -7l-14 -28l1 -5
l21 25q12 -10 16 -30q1 26 16 37l11 -9l6 11q-9 6 -11 16l1 1zM460 456l-4 4l-2 -2l-11 10q5 10 10 19l-1 5l-16 -17l-2 3l1 11l-12 -13q-5 9 -13 14l-2 -1l2 -26q0 -1 -1 -3l-11 4l-2 -2l-1 -4l9 -10l-13 -17h10l6 -6l-11 -22l1 -4l16 20q10 -9 14 -24q-1 21 11 29l9 -7
l5 9q-7 5 -9 13v1zM434 236l-4 4l-2 -2l-10 10q4 10 9 19l-1 5l-15 -17l-3 3l2 11l-12 -13q-6 9 -14 14l-2 -1l3 -26q0 -1 -1 -3l-11 4l-4 -5l9 -11l-13 -17h10l6 -6l-11 -22l1 -4l17 20q10 -9 13 -24q0 21 12 29l9 -7l5 9q-8 5 -9 13v1zM77 236l-3 4l-3 -2l-10 10
q5 10 9 19l-1 5l-15 -17l-3 3l2 11l-12 -13q-7 7 -11 18l-5 -5l3 -26q0 -1 -1 -3l-11 4l-4 -5l9 -11l-12 -17h9l6 -6l-11 -22l1 -4l17 20q10 -9 13 -24q0 21 12 29l9 -7l5 9q-7 5 -9 13v1zM215 469l2 14l-1 1l-17 -7q1 10 4 31q1 2 1 6l1 5l-22 -21q-8 9 -10 28l-4 -7v-23
l-5 -10l-20 9l12 -24l-4 -22l-21 -15l1 -8l20 9l5 -6q-2 -8 -4 -33l17 25l13 5q7 -7 13 -16l3 6l-4 23q4 11 8 24zM289 464l-3 3l-2 -2l-10 11q4 9 9 18l-1 5l-15 -17l-3 3l1 11l-11 -12q-6 8 -14 13l-2 -1l3 -26q-1 -1 -1 -3l-11 4l-1 -9l6 -7q-11 -11 -10 -17h7l6 -6
l-11 -22l1 -4l16 20q10 -8 14 -24q0 21 12 30l8 -8l6 9q-8 5 -10 13l1 1l14 14zM263 191l-1 -5h3l10 2l6 -5l-18 -26l6 -5l18 23q7 -15 3 -35q8 20 22 35l14 -19l5 3l1 8l-10 21l2 4v-1h18l2 9l-16 7q-2 9 19 33h-4q-4 -1 -14 -5l-6 6l14 34l-6 2q-7 -20 -18 -32l-10 23
q-1 -20 -13 -33l-11 12l-6 -3q6 -12 10 -25q-6 -16 -20 -28zM201 290h61l15 99h-60zM241 159h-60l-25 -158h-107l25 165h-79l16 130h84l14 91l-89 -1l20 130l89 1l23 147h107l-22 -144h60l23 144h107l-23 -146h76l-16 -131h-80l-14 -93l85 1l-20 -132h-86l-25 -162h-107z
M253 236l-1 -1l-10 11q4 9 9 18l-1 5l-15 -17l-3 3l1 11l-11 -12q-6 8 -14 13l-2 -1l3 -26q-1 -1 -1 -3l-11 5l-4 -6l9 -11l-13 -17h10l6 -6l-11 -22l1 -4l16 20q10 -8 14 -24q0 21 12 30l8 -8q3 3 3 11q-4 3 -7 11l1 1l10 9zM103 456l-4 4l-2 -2l-10 10q4 10 9 19l-1 5
l-15 -17l-3 3l1 11l-11 -13q-6 9 -14 14l-2 -1l3 -26q-1 -1 -1 -3l-12 4l-3 -5l9 -11l-13 -17h10l6 -6l-11 -22l1 -4l16 20q10 -9 14 -24q0 21 12 29l8 -7l6 9q-8 5 -10 13l1 1z" />
    <glyph glyph-name="dollar" unicode="$" horiz-adv-x="424" 
d="M306 486v6l-25 11l10 19l-4 4l-19 -18l-2 3l-1 20l-11 -1q2 -19 2 -21q-4 1 -7 -1l-19 12l-5 -3l10 -18l-3 -5l-11 1l-8 -1v-6l19 -8l-15 -17h16l11 -7l-7 -15l8 -6l17 19q13 -4 22 -16v12q-2 5 -5 11l3 3l14 -9h10v7l-20 13q7 9 20 11zM222 520v6l-21 14l12 14l-4 3
q-8 -5 -18 -8l-5 2l-1 13l-7 8l-4 -13l-11 -9l-16 15l-5 -2q6 -10 10 -20l-4 -5q-16 5 -24 12l-4 -2l25 -26l-16 -17q7 1 28 -2q-3 -16 -3 -17l14 8l11 -17l9 21l16 -21l6 4v6l-12 18q7 14 24 15zM140 480q0 3 -23 20q0 15 -3 23l-15 -17h-13q-11 9 -25 17h-2l14 -25
l-26 -10q14 -10 26 -27l-14 -18l8 -10q10 14 21 19q9 -8 7 -20h6l1 14l7 8l17 -17l4 4l-12 20l8 13zM310 310l-2 6h-11q-5 -2 -12 -5q-9 11 -8 29l-14 -18l-14 -4q-7 6 -20 10l8 -21l-5 -18l-15 -6l4 -9l15 7l5 -34l21 17q9 -7 13 -17h6v8q-2 5 -5 11l8 5l20 -7l-15 21v15z
M224 616h-2l-25 18l11 14l-5 4l-15 -12l-4 3l-5 19q-3 -14 -14 -20l-14 14l-6 -4l8 -17q-10 -12 -25 -18l13 -2l7 -8l-12 -20l23 4l4 -2l-3 -13l6 -2l10 14l17 -15l4 4l-3 16q12 16 30 23zM137 363l-15 25q7 7 13 16l-2 4l-18 -5l-18 6l-5 16h-9l3 -18l-10 -4l-25 10l-2 -10
l18 -17l-7 -9l-14 -3v-7q23 0 27 -4l-9 -23q10 8 20 14l21 -22l8 2v7q-2 5 -4 12l11 6l15 -2zM305 202v7h-5l-18 18l-2 18q-7 -12 -30 -18l-17 15l-4 -2l10 -21l-21 -11v-6l15 -7l6 -14l-7 -18l2 -4l22 15l7 -20l9 2v9q0 1 -2 7l6 4q10 -7 18 -17l4 4v5l-12 17zM132 190
l-2 11h-4l-14 10l4 22l-19 -15l1 25h-10l-6 -25l-21 14l-2 -4l7 -19l-10 -10h-17v-11l9 3l14 -3l-15 -15l6 -6l13 7l5 -1q-1 -15 1 -28l14 17h4l12 -25l4 4l-3 18l5 8q9 -3 20 -5l-11 21l1 7h14zM168 123h11l3 4l3 -4h11l-1 7l7 7l21 -14l2 8l-19 15l14 18v8q-2 -1 -22 9
q4 6 7 18l-5 2l-13 -15h-5l-6 15h-8v-12l-8 -11l-17 11l-6 -4l17 -19l-14 -4l2 -10q3 1 12 -4l-14 -20l3 -5l24 10l3 -1zM226 4h-101v91q-51 18 -80.5 61t-29.5 97h123q6 -35 37 -35q35 0 35 36q0 27 -51 38q-72 15 -93 28q-51 31 -51 109q0 51 30.5 93t79.5 58v88h101v-89
q47 -16 77 -58t30 -92v-5h-123q0 41 -36 41q-14 0 -24.5 -11t-10.5 -25q0 -26 51 -38q71 -16 93 -31q51 -34 51 -115q0 -50 -30.5 -91t-78.5 -58zM204 64v1q6 6 10 14l3 -6l-17 10q-5 10 -3 20q-6 -17 -13 -32q-2 3 -8 16t-17 18l6 -32l-21 6l-5 -5l8 -10l-8 -16h3
q2 0 8.5 3t7.5 3l-14 -31l2 -4q14 15 28 28q11 -14 15 -31l2 18l10 9l13 -7l6 8q-10 5 -15 12v1l2 2l-5 3zM228 341h-2l-25 18l11 14l-5 4l-15 -12l-4 3l-5 19q-2 -14 -14 -20l-14 14l-6 -4l8 -17q-10 -12 -25 -18l13 -2l7 -8l-12 -20l23 4l4 -2l-3 -13l6 -2l10 14l17 -15
l4 4l-3 16q12 16 30 23z" />
    <glyph glyph-name="percent" unicode="%" horiz-adv-x="679" 
d="M205 618q-6 2 -13.5 4t-7.5 7q2 4 6 10q-2 1 -6 5q-4 -5 -11 -10q-9 17 -11 17q0 -21 -8 -21l-14 10l-3 -4l12 -15q-4 -1 -11 -4v-7q3 0 10 -5q-4 -5 -12 -16q0 -2 1 -3q3 0 10 3t10 3l1 -1l-3 -9q-1 -4 -2 -5q0 -4 7 -4q2 6 7 13q3 -5 10 -14q3 12 1 20h6l12 -9l2 4
q-1 1 -5.5 7t-4.5 7q0 6 8.5 10.5t8.5 6.5zM241 552v5q-1 1 -3 1q7 0 -12 -3q-1 2 -3 5q3 5 10 14q-1 3 -3 5l-17 -13q-9 0 -14 14h-4q0 -16 -4 -19.5t-21 -6.5q17 -14 17 -23q0 -3 -13 -19l3 -4q9 5 12.5 8t6.5 6v0q5 0 8 -8t5 -10q6 19 9 21t22 2q-4 8 -12 13v6q4 1 13 6z
M130 610q-1 4 -10 6t-9 8q0 1 4.5 8t4.5 8q0 5 -4 5h-2q-4 -5 -12 -14l-2 2v19h-8v-18q-3 0 -4 -2q-9 8 -15 12q-1 -1 -1 -4v0l1 -3l3 -11q-2 -2 -4 -3q-3 1 -10 2l-1 -6q3 -1 10 -6v-3q-5 -4 -12 -14h6q3 1 5 1q8 0 9 -6q-3 -5 -3 -8q0 -4 4 -7q5 11 12 11l16 -15
q-1 11 -1 14q0 4 1 7q5 -4 15 -11l3 3q-1 2 -7 9t-6 11l1 1q6 1 16 4zM245 484q-1 2 -1 4h-6q-1 0 -5.5 -2.5t-6.5 -2.5q-4 3 -6 24q-2 -1 -8.5 -10.5t-13.5 -9.5q-1 0 -5.5 4.5t-8.5 3.5h-2q2 -6 8 -17q0 -11 -16 -21q1 -2 3 -5q4 1 12 4q6 -5 5 -13q-1 -11 0 -14
q9 9 15 14q4 0 10 -15h5v8q-3 9 -3 10q0 4 5 4h-1h1l3 -1l13 -2q-1 2 -11 14q0 5 -2 13q6 4 16 10zM249 397q-22 1 -22 13q0 3 3.5 9.5t3.5 9.5t-2 5q-7 -14 -14 -20l-8 18q-6 -22 -12 -22q-3 4 -10 9l-4 -3q3 -5 10 -13q0 -6 -17 -11v-5q17 0 17 -8q0 -2 -3.5 -8.5
t-3.5 -10.5q6 4 19 9l1 -1l-3 -16q2 -1 5 -3q1 8 8 20q5 -4 17 -11l-5 18q-1 5 9 12.5t11 8.5zM163 390v139q0 40 -28 40q-29 0 -29 -43l1 -130q0 -37 28 -37t28 31zM92 533l-13 8q7 5 11 12q-14 0 -17 -1l-3 4q5 8 8 16q-14 -9 -21 -14q-4 0 -7.5 9.5t-7.5 9.5v1l1 -1v-2
v-11q0 -7 -7 -12q-8 4 -9 4q-3 -1 -3 -2q0 -5 9 -11v-4q-5 -2 -13 -7v-5q20 0 20 -7q0 -1 -4 -7t-4 -7q0 -3 6 -3q3 5 10 14q3 -2 5 -11q3 1 8 1q0 1 -1 2q0 4 4 8l14 -11q2 1 4 1v5l-8 17l2 2q5 -3 10 -3t6 5zM215 301q-6 5 -15 13v9q6 5 12 14q-15 -2 -16 -2q-6 0 -6 8
q0 7 1 13q-3 0 -5 1q-2 -5 -6 -14h-4q-4 6 -12 13q0 -1 -1 -2q0 -2 1 -6.5t1 -6.5q0 -8 -6 -8q-3 0 -8.5 2t-8.5 2q5 -4 15 -13v-4l-1 -1q-3 0 -7 -1v-5l10 -5v-3l-1 -2q-3 -7 -5 -12q1 -3 2 -4q6 4 18 11q2 -8 0 -17l6 -1q1 5 5 15q7 -8 13 -9v5q0 1 -1.5 4.5t-1.5 5.5l2 4
q9 -4 19 -4zM101 371l-14 14v4l13 7v5l-2 1q-10 -2 -12 -2q-4 0 -4 3q4 7 10 16l-3 3h-4q-9 -14 -13 -14q-7 0 -16 15q-2 1 -5 2q2 4 5 13h5q6 -10 11 -13v16q0 4 5 7q7 -5 12 -7q3 2 6 5q-13 10 -13 15t6 10.5t7 8.5h-6q-2 0 -7 -1t-7 -1q5 6 11 19q-3 1 -7 1
q-7 -9 -12 -14l-4 2l-4 17q-3 -2 -5.5 -12.5t-7.5 -10.5q-6 4 -15 11l-3 -3q1 -3 13 -16l-2 -2h-16v-8h15v-6q-4 -6 -10 -17q6 1 18 4l2 -1q0 -3 -2 -10.5t-2 -11.5l4 -2l3 4l2 -2v-14q0 -7 -24 -11q6 -5 12 -10.5t6 -13.5q-4 -8 -10 -19l2 -3q14 15 16 15q6 0 9.5 -8
t6.5 -8l3 15q7 5 11 8h6q4 -1 6 -1q1 0 4 1zM137 309q-1 2 -9.5 6t-8.5 9q0 1 4.5 7.5t5.5 8.5q-1 3 -3 5q-5 -5 -16 -13l1 21h-9v-17h-7q-8 11 -14 13q0 -3 1.5 -8.5t1.5 -8.5q0 -4 -3 -6q-7 3 -18 6v-5l15 -9v-3q-13 -10 -13 -12h2q6 1 16 -6q-1 -3 -8 -14q2 -1 6 -5
q4 4 11 13q6 0 18 -18q0 14 2 21q9 -8 14 -13q3 1 4 4q-11 20 -11 17q0 4 18 7zM258 399q0 -58 -32 -98q-34 -44 -91 -44q-50 0 -87.5 37.5t-37.5 87.5v152q0 55 34.5 95t88.5 40q57 0 92 -46q33 -42 33 -100v-124zM534 348q-6 2 -13.5 4t-7.5 7l5 10q-2 1 -5 5
q-4 -5 -11 -10q-9 17 -11 17q-3 -21 -8 -21l-14 10l-3 -4l12 -15q-4 -1 -11 -4v-7q3 0 9 -5q-4 -5 -11 -16q0 -2 1 -3q3 0 10 3t10 3l1 -1l-3 -10q-1 -3 -2 -4q0 -4 7 -4q2 6 6 13l11 -14q2 12 0 20h6l12 -9q1 1 2 4q-1 2 -5 7.5t-4 6.5q0 6 8.5 10.5t8.5 6.5zM570 282v5
q-1 1 -3 1q7 0 -12 -3q-2 2 -4 5q4 5 11 14q-1 3 -3 5l-17 -13q-9 0 -14 14h-4q0 -16 -4 -19.5t-21 -6.5q17 -14 17 -23q0 3 -13 -19l3 -4q8 5 13 9q2 1 6 4q1 1 0 1q5 0 8 -8t5 -10q5 18 8 20.5t22 2.5q-3 8 -11 13v6q4 1 13 6zM459 340q-1 4 -10.5 6t-9.5 8q0 1 5 8t5 8
q0 5 -5 5h-2q-3 -5 -11 -14l-2 2v19h-8v-18q-3 0 -5 -2q-9 8 -14 12q-1 -2 -1 -4v0l1 -3l3 -11q-2 -2 -4 -3q-3 1 -10 2l-1 -6q3 -1 10 -6v-3q-5 -4 -12 -14h6q3 1 5 1q8 0 9 -6q-3 -5 -3 -8q0 -4 4 -7q5 11 11 11q7 -6 16 -15v21l16 -11l3 3q-1 2 -7 9t-6 11l1 1q6 1 16 4z
M574 214q-2 1 -2 4h-5q3 0 -12 -5q-4 3 -7 24q-1 -1 -7.5 -10.5t-14.5 -9.5l-13 8h-2q2 -6 8 -17q0 -11 -16 -21q1 -2 3 -5q4 1 12 4q6 -4 5 -13q-1 -11 0 -14q9 9 15 14q4 0 10 -15h5v8q-3 9 -3 10q0 4 5 4h-1h1l3 -1l13 -2q-5 4 -13 27q6 4 16 10zM578 127q-23 1 -23 13
q0 2 4 9.5t4 9.5q0 3 -2 5q-7 -13 -14 -20l-8 18q-6 -22 -12 -22q-3 4 -11 9l-3 -3q3 -5 9 -13q0 -6 -17 -11v-5q17 0 17 -8q0 -3 -3 -9t-3 -10q6 4 19 9l1 -1l-3 -16q2 -1 5 -3q1 8 8 20q5 -4 17 -11l-5 18q-1 5 9 12.5t11 8.5zM492 120v139q0 40 -29 40q-28 0 -28 -43
l1 -130q0 -37 28 -37q12 0 20 9.5t8 21.5zM421 263l-13 8q7 5 10 12q-13 0 -16 -1l-3 4q5 8 7 16l-21 -14q-3 0 -6 9.5t-8 9.5v1q1 -1 1 -3v-11q0 -7 -7 -12q-8 4 -9 4q-3 -1 -3 -2q0 -5 9 -11v-4q-5 -2 -13 -7v-5q19 0 19 -7q0 -1 -4 -7t-4 -7q0 -3 7 -3q3 5 10 14
q3 -2 5 -11q3 1 7 1q0 6 4 10l14 -11q1 1 3 1v5q-3 8 -7 17l2 2q5 -3 9 -3q5 0 7 5zM543 31q-5 5 -14 13v9q6 5 12 14q-15 -2 -17 -2q-4 0 -4 21q-3 0 -5 1q-2 -5 -7 -14h-3q-4 6 -12 13q0 -1 -1 -2q0 -2 1 -6.5t1 -6.5q0 -8 -6 -8q-3 0 -8.5 2t-8.5 2q5 -4 15 -13v-4l-1 -1
q-3 0 -7 -1v-5q3 -2 10 -5v-3l-1 -2q-3 -7 -5 -12q1 -3 2 -4q5 4 18 11q2 -8 0 -17l6 -1q1 5 5 15q7 -8 13 -9v5q0 1 -1.5 4.5t-1.5 5.5l2 4q9 -4 18 -4zM430 101q-5 4 -14 14v4l13 7v5l-2 1q-10 -2 -12 -2q-5 0 -5 4q5 6 11 15l-3 3h-5q-8 -14 -12 -14q-7 0 -16 15
q-3 1 -5 2q2 4 5 13h5q6 -10 11 -13v16q0 4 5 7q7 -5 12 -7q3 2 6 5q-13 8 -13 15q0 5 6 10.5t7 8.5h-6q-2 0 -7 -1t-7 -1q4 6 10 19q-3 1 -6 1q-7 -9 -12 -14l-4 2l-4 17q-3 -2 -5.5 -12.5t-7.5 -10.5q-6 4 -15 11l-3 -3q1 -3 13 -16l-3 -2h-16v-8h16v-6q-5 -6 -10 -17
q6 1 18 4l1 -1q-3 -28 -3 -19v-3l4 -2l3 4l2 -2v-14q-5 -8 -24 -11q6 -5 12 -11t6 -13q-4 -8 -10 -19l2 -3q14 15 16 15q5 0 9 -8t7 -8l3 15q7 5 11 8h6q4 -1 6 -1zM466 39q-1 2 -10 6t-9 9q0 1 5 7.5t6 8.5q-1 3 -3 5q-5 -5 -16 -13v21h-9q1 -3 1 -11q0 4 -1 -6h-7
q-8 11 -14 13q0 -3 2 -8.5t2 -8.5q0 -4 -3 -6q-10 4 -18 6v-5l15 -9v-3q-14 -10 -14 -12h2q7 0 17 -6q-1 -3 -8 -14l6 -5q8 9 10 13q7 0 19 -18q0 14 1 21q10 -8 15 -13q2 1 4 4q-12 14 -12 17q0 4 19 7zM464 -13q-51 0 -87.5 37t-38.5 88v-2v1l1 7v146q0 55 34.5 95
t88.5 40q62 0 96 -50q29 -43 29 -107q0 -12 1 -38v-41q0 -81 -20 -120q-29 -56 -104 -56zM87 1l389 663h25l-384 -663h-30z" />
    <glyph glyph-name="ampersand" unicode="&#x26;" horiz-adv-x="550" 
d="M460 1l-300 -2q-76 -1 -120.5 49t-44.5 127q0 54 22 92q20 34 66 67q-84 51 -84 146q0 79 49 130.5t128 51.5h238l1 -165h-197q-20 0 -36 -14.5t-16 -34.5q0 -51 61 -51q8 0 23.5 1t21.5 1v-136l-70 1q-13 0 -23.5 -17.5t-10.5 -31.5q0 -18 12 -33t29 -15l102 1v147h149
v-314zM332 620q-20 6 -34 13q13 -38 13 -33q0 -9 -10 -10q-13 0 -19 -8q14 -7 21 -7q8 -5 12 -10q-9 -13 -15 -20q-1 -6 8 -6q4 0 11.5 6t10.5 6q6 0 18 -37l9 33l4 2q16 -19 24 -31q8 -1 8 8q0 4 -8 17t-8 15q0 16 30 16q2 0 9 -4q-3 11 -19.5 20t-16.5 22q0 8 6 16l-5 17
q-19 -21 -27 -21q-6 0 -9.5 13.5t-11.5 16.5q-2 -11 -1 -34zM199 622q-3 3 -29 30l-5 -14q9 -18 14 -27q-4 -3 -6 -3q-5 0 -14.5 2t-14.5 2q4 -14 22 -26v-7l-29 -6l4 -14q11 2 31 5l2 -3q-10 -10 -13 -19q4 -5 10 -5q4 0 9.5 5.5t8.5 5.5q10 0 16.5 -15.5t6.5 -26.5
q8 24 8 44h6l23 -18h11l3 9l-21 24h34q-1 0 -19 13q-12 8 -12 16q0 2 18 24q-7 9 -11 9q-6 0 -20 -14q-6 2 -13 35q-6 -9 -20 -26zM155 533q-8 4 -22 6q-8 14 -11 23q0 4 4.5 10.5t4.5 13.5q-36 -17 -35 -17q-5 0 -18 25l-12 -5q4 -13 6 -25l-17 -13q-27 0 -33 -4
q10 -6 31 -20v-4q-8 -5 -16.5 -11t-9.5 -14q6 0 15.5 3t14.5 3q10 0 10 -16q0 -4 -2 -13v-14q7 8 15.5 17.5t15.5 9.5q8 0 13 -18h13v10q0 3 -2 8.5t-2 8.5q0 15 39 26zM424 231v11q8 6 21 23q-4 6 -11 6q-4 0 -11 -6t-10 -6q-8 0 -8 33q-9 -9 -26 -24q-4 12 -18 33
q-4 -3 -13 -4q0 -9 4 -18q5 -13 7 -17q-1 -2 -5 -5q-17 4 -32 8q7 -12 23 -32v-3q-18 -7 -30 -9v-9q4 -5 12 -5q-5 0 20 2l2 -1l-20 -21l-1 -2q0 -12 11 -12q6 0 27 20q9 -3 13.5 -17t13.5 -18q2 11 5 33l5 1q8 -6 23 -22l12 4v11l-19 21q12 0 38 1q-12 8 -33 24zM250 274
h-1q1 -1 2 -1q5 0 5 8l-23 24q0 9 36 13q-12 13 -27 21v3q11 7 22 18q-5 4 -7 11l-27 -9h-1v7q0 9 5 15h-21q-4 -13 -16 -13l-8.5 4.5t-17.5 4.5q0 -8 8 -23q-3 -4 -28 -4q-4 -1 -4 -2t1 -1q6 -10 16 -18q-11 -10 -21 -15q5 -5 8 -12q8 2 24 7l2 -2q-8 -26 -8 -32v-7
q9 7 29 21h3q2 -4 2 -14h18v15q3 0 6 1q7 -8 23 -20zM61 429q-3 -6 -6 -19q-12 -10 -25 -19h8q38 1 38 -32q0 -6 -6 -22q9 9 26 30q10 3 13 3q2 0 13.5 -10t15.5 -10q1 3 5 10l-18 21q4 6 6 6q5 0 14 -2h14q-2 9 -13 14t-10 9q6 8 26 29q-3 0 -10 -1h-9h-14q-13 0 -20 15
q-10 23 -13 26q-10 -32 -19 -32q-1 0 -7.5 4.5t-10.5 4.5l-7 -9q3 -5 9 -16zM451 68h1q-11 12 -19 19q13 8 23 13q-4 5 -13 12v-2l-1 1l-20 -6q10 13 10 26v14q-12 -6 -34 -19q-2 1 -10 14h-12v-14q-3 -2 -4 -2q-5 0 -19.5 10t-16.5 10q-5 0 -5 -8q0 -4 7 -13t7 -12
q0 -9 -14 -10q-17 0 -21 -8q16 -12 26 -16q-9 -14 -17 -22q7 -8 10 -8q4 0 10.5 4.5t8.5 4.5q13 0 25 -39q3 2 14 19q9 13 19 13q4 -4 20 -22h14q-10 20 -20 33q4 4 29 4q4 1 4 2t-2 2zM132 270q0 6 9 25q-2 4 -5 9q-9 -5 -26 -16h-6l-4 18q-3 8 -12 16q0 -3 -1 -34
q-11 3 -36 15q11 -31 11 -34l-2 -6q-15 -5 -28 -3q0 -12 21 -17q6 -8 8 -14l-16 -17q5 -6 9 -12q13 16 18 16q12 0 12 -24q0 -2 -5 -6h18q0 15 6 22q15 -17 23 -27q8 -1 8 8q0 2 -6 12.5t-6 12.5q0 13 19 17q1 0 30 2q-39 25 -39 37zM276 43h15q-20 27 -20 30q0 7 9 11
q14 6 16 9q-34 6 -34 17q0 1 5 10t6 12l-8 9q-6 -7 -18 -22q-11 1 -35 33l-7 -33v0q-3 0 -28 25q-7 0 -12 -5q2 -5 13 -18.5t11 -14.5q0 -12 -15 -19q-1 -1 -25 -9q5 -4 29 -11q19 -5 19 -22q0 -5 -1.5 -14t-1.5 -14q9 8 27 26h13q10 -18 14 -28h14q0 11 -9 31l1 2
q22 -4 22 -5zM136 144q0 1 6.5 9.5t7.5 11.5l-9 7q-17 -16 -19 -16q-17 0 -44 30q-4 -16 -1 -34q-8 -15 -42 -15v-3q-1 -9 14 -15.5t15 -11.5q0 -1 -9 -12.5t-10 -14.5l5 -8q14 6 26 18q16 -6 32 -47q2 12 5 24q4 18 9 18l17 -13q9 6 9 11q0 6 -12 17q1 7 17.5 12.5
t20.5 10.5q-8 0 -23 7t-15 14z" />
    <glyph glyph-name="quotesingle" unicode="'" horiz-adv-x="255" 
d="M133 322h-78l-12 80q-7 49 -7 79v182h119v-185q0 -29 -8 -78zM148 599v10l-3 2q-3 -3 -15 -7l-9 3q8 24 8 29l-1 6q-24 -18 -28 -18q-6 0 -9 10q-3 14 -4 15q-6 -1 -6 -7q0 -3 3.5 -9.5t3.5 -10.5q0 -5 -6 -9q-11 3 -33 8q7 -13 23 -22v-20q-10 -4 -28 -13q2 -4 3 -7
l20 5q3 0 10 3h-1q6 0 9 -5q0 1 2 -30q3 8 11 21q15 6 19 6t7.5 -7t6.5 -8l3 5q-11 16 -11 21q0 6 6 22q9 3 19 7zM141 461q0 2 -7 10t-7 20q0 11 12 24q-3 2 -9 5q-12 -18 -15 -18q-8 0 -17 25q-14 -32 -16 -32q-4 0 -12.5 2t-12.5 2q3 -5 18 -18v-6q-7 -4 -22 -7l3 -9
q18 4 19 4q4 0 6 -5q-4 -8 -18 -21l5 -4l25 16q10 0 12.5 -7.5t4.5 -15.5q-1 9 -1 15q0 16 9 19q2 1 23 1zM142 365v5q-6 2 -18 5v5q7 5 15 15h-3h-3q-2 0 -6.5 -1t-6.5 -1q-5 0 -7 3q7 10 10 21q-3 2 -8 2q-4 -10 -14 -21q-5 6 -15 15q-4 -20 -8 -20q-3 0 -8 3.5t-7 3.5
q-4 0 -6 -2q6 -5 15 -16v2l-1 -2l-1 -7l-18 -12q3 -2 6 -2q2 0 5.5 1t5.5 1q5 0 8 -3q-7 -6 -17 -17q2 -1 8 -3l16 15q5 -1 7 -8.5t3 -13.5q2 1 7 11.5t10 10.5q3 0 10.5 -6t8.5 -6q4 0 6 2v5q-15 7 -15 13l1 2h20z" />
    <glyph glyph-name="parenleft" unicode="(" horiz-adv-x="328" 
d="M92 722h140q-70 -244 -70 -409q0 -176 70 -372h-140q-89 184 -89 401q0 213 89 380zM196 621v11q-13 -1 -15 -1q-13 0 -13 13q0 2 14 29q-3 -1 -14.5 -6t-15.5 -5t-7 4q0 3 2 11t2 12q0 5 -3 8q-4 -3 -8 -17.5t-11 -14.5q-1 0 -28 18v-10q0 -4 2.5 -10.5t2.5 -10.5
q0 -15 -16 -22q-20 -7 -22 -11q8 -2 31 -4q11 -16 11 -18q0 -3 -8 -15t-8 -20v-2h8q7 10 19 30h6q3 -10 10 -30q10 33 18 33q4 0 21 -17l6 6q-14 25 -14 22q0 18 30 17zM148 304q0 3 -14 13.5t-14 26.5q0 9 26 31q-3 3 -11 6q-19 -23 -29 -23q-13 0 -19 32q-5 -10 -12 -28
l-19 -13q-5 0 -14.5 2.5t-14.5 2.5q4 -6 21 -23v-8q-9 -5 -25 -10l2 -11q22 5 23 5q5 0 7 -6q-5 -10 -21 -28l5 -6q29 21 30 21q14 0 32 -30q5 25 8 38zM164 161v9q-9 2 -26 7v8q10 8 21 25h-5q-4 0 -10.5 -2.5t-10.5 -2.5q-7 0 -11 6q9 16 14 34q-4 2 -11 2
q-14 -32 -20 -32q-6 8 -21 23l-2 -20q-2 -13 -10 -13q-4 0 -10.5 6t-10.5 6q-5 0 -8 -3q8 -8 21 -25l-3 -12q-9 -6 -25 -19q4 -2 8 -2q3 0 8 1t8 1q6 0 11 -5q-10 -8 -23 -26q3 -2 11 -5l23 23q7 -1 13 -35q3 2 11 20q7 15 14 15q4 0 13.5 -9.5t13.5 -9.5q5 0 7 3v8
q-20 12 -20 21l1 4l1 -1h28zM162 486q-5 2 -8 5l-4 -2q-23 0 -23 13q0 3 7 12t7 11q0 3 -3 6q-9 -7 -26 -21l-6 4v14q-7 -5 -20 -16q-2 0 -15 10q-10 7 -15 7l-4 -1q12 -29 12 -33l-1 -4q-21 6 -23 6q-5 0 -6 -7l21 -14q-8 -6 -21 -21q28 0 32 -7l-11 -20q-6 -12 -5 -8
q0 -4 3 -5q8 8 27 25q10 0 18 -12q9 -16 14 -18q1 11 3 24t13 13q3 0 19 -9q2 3 8 11q-22 11 -22 15l1 2q10 6 28 20zM203 34q-5 2 -8 5l-4 -2q-23 0 -23 13q0 4 7 12.5t7 10.5q0 4 -3 6q-9 -7 -26 -21l-6 4v14q-7 -5 -20 -16q-2 1 -15 10q-9 7 -15 7l-4 -1q12 -29 12 -33
l-1 -4q-21 6 -23 6q-4 0 -6 -7l21 -14q-8 -6 -21 -21q28 0 32 -7l-10 -19q-6 -12 -6 -9q0 -3 3 -5q8 9 27 25q10 0 18 -12q9 -15 14 -18q1 12 3 24.5t13 12.5q3 0 19 -9q2 3 8 11q-22 11 -21 15v2q10 6 28 20z" />
    <glyph glyph-name="parenright" unicode=")" horiz-adv-x="328" 
d="M143 -59h-140q70 244 70 409q0 176 -70 372h140q89 -184 89 -401q0 -213 -89 -380zM39 42v-11q13 1 15 1q13 0 13 -13q0 -2 -14 -29q3 1 14.5 6t15.5 5t7 -4q0 -3 -2 -11t-2 -12q0 -5 3 -8q4 3 8 17.5t11 14.5l28 -18v10q0 4 -2.5 10.5t-2.5 10.5q0 15 16 22q20 7 22 11
q-8 2 -31 4q-11 16 -11 18q0 3 8 15t8 20v2h-8q-7 -10 -19 -30h-6q-3 10 -10 30q-10 -33 -18 -33q-4 0 -21 17l-6 -6q14 -25 14 -22q0 -18 -30 -17zM87 359q0 -3 14 -13.5t14 -26.5q0 -9 -26 -31q3 -3 11 -6q19 23 29 23q13 0 19 -32q5 10 12 28l19 13q5 0 14.5 -2.5
t14.5 -2.5q-4 6 -21 23v8q9 5 25 10l-2 11q-22 -5 -23 -5q-5 0 -7 6q5 10 21 28l-5 6q-29 -21 -30 -21q-14 0 -32 30q-4 -24 -8 -38zM71 502v-9q9 -2 26 -7v-8q-10 -8 -21 -25h5q4 0 10.5 2.5t10.5 2.5q7 0 11 -6q-9 -16 -14 -34q4 -2 11 -2q14 32 20 32q6 -8 21 -23
q1 10 2.5 21.5t9.5 11.5q4 0 10.5 -6t10.5 -6q5 0 8 3q-8 8 -21 25l3 12q9 6 25 19q-4 2 -8 2q-3 0 -8 -1t-8 -1q-6 0 -11 5q10 8 23 26q-3 2 -11 5l-23 -23q-7 1 -13 35q-3 -2 -10.5 -18.5t-14.5 -16.5q-4 0 -13.5 9.5t-13.5 9.5q-5 0 -7 -3v-8q20 -12 20 -21l-1 -4l-1 1
h-28zM73 179q4 -2 8 -5l4 2q23 0 23 -13q0 -3 -7 -12t-7 -11q0 -3 3 -6q9 7 26 21l6 -4v-14q7 5 20 16q1 -1 15 -10q9 -7 15 -7l4 1q-12 29 -12 33l1 4q20 -6 23 -6q4 0 6 7l-21 14q8 6 21 21q-28 0 -32 7l10 20q6 11 6 8q0 4 -3 5q-9 -8 -27 -25q-11 0 -18 12
q-10 15 -14 18q-1 -11 -3 -24t-13 -13q-3 0 -19 9q-2 -3 -8 -11q21 -11 21 -15v-2q-10 -6 -28 -20zM32 629q5 -2 8 -5l4 2q23 0 23 -13q0 -4 -7 -12.5t-7 -10.5q0 -4 3 -6q9 7 26 21l6 -4v-14q7 5 20 16q2 -1 15 -10q9 -7 15 -7q2 0 4 1q-12 29 -12 33l1 4q21 -6 23 -6
q4 0 6 7l-21 14q8 6 21 21q-28 0 -32 7l10 19q6 12 6 9q0 3 -3 5q-9 -9 -27 -25q-10 0 -18.5 13.5t-13.5 16.5q-1 -12 -2 -23q-3 -14 -14 -14q-3 0 -19 9q-2 -3 -8 -11q22 -11 21 -15v-2q-10 -6 -28 -20z" />
    <glyph glyph-name="asterisk" unicode="*" horiz-adv-x="424" 
d="M173 454q-6 0 -18 6q2 5 4 17q-7 -3 -14 -7v0h1h-1h-2l-8 1l-6 9h-5q1 -2 2 -12q-2 -4 -7 -10q-4 -1 -11 -4l-1 -3q13 0 13 -3q0 -4 -5.5 -8t-5.5 -6t1 -3l14 6q6 0 7 -16h4q0 15 5 15l3.5 -2t11.5 -5q-1 2 -1 13l5 9q5 0 14 3zM204 547q0 5 3 7h3q2 -2 7 -6h4
q-1 1 -4.5 5t-3.5 6t2 4q4 0 10 -3q2 2 4 5q-14 4 -14 9v-1q3 3 7 13l-9 -2q-5 -1 -4 -1h-1q0 2 2 11v-2v1h-5q-1 -4 -4 -8h-3q-2 3 -8 10q-2 -4 -5 -12q-1 -4 0 -4q-2 0 -6 1.5t-6 1.5t-3 -1v-3q6 -2 12 -6q-4 -2 -11 -3l1 -5h10q2 -1 2 -8q0 -1 -1 -4v-4l3 -1q1 3 6 8
q3 -1 7 -2l-3 -15l8 1l1 2q-1 3 -1 6zM258 395q-9 6 -9 19l-4 5q-1 -1 -3 -4h-2v1q0 5 1 14l-6 1q0 -5 -3 -14q-9 3 -14 13q2 -3 2 -13q0 -6 -6 -6q-2 0 -7 2t-8 2l-1 -4q5 -2 13 -9q-6 -3 -15 -4l2 -5l13 2q3 0 3 -4q0 -1 -3 -6t-3 -6q0 -2 1 -3q5 2 16 7v-12h7v2q0 4 4 10
q9 -6 14 -7v6l-4 8q-1 2 4 3q2 0 4 -2t4 -2v3.5v2.5zM140 394l-3 2l-15 -2q0 3 5.5 10.5t5.5 9.5t-2 2q-1 0 -7 -5t-8 -5q-3 0 -3 3q0 2 2 6.5t2 5.5q0 4 -1 6h-5v-5q0 -7 -7 -15l-3 8q-2 1 -7 4q-2 0 -3 -1q1 -2 1 -8v-11q-5 -2 -16 -6l-1 -5q4 1 8 1q5 0 11 -1
q-3 -5 -9 -14q1 -2 3 -2q4 2 13 6q9 0 16 -10h4q-1 4 -1 8v6q2 2 7 8h11zM160 564l-10 6q4 3 10 9q-14 0 -16 3l5 9q3 5 3 4q0 2 -1 3q-7 -5 -10 -7q-6 -5 -4 -5q-4 0 -6.5 6.5t-4.5 7.5q0 -17 -7 -17q-2 0 -10 4l-4 -5q4 -3 11 -7v-1q-5 -2 -14 -8q2 -2 4 -3q1 1 2 1
q11 0 11 -6q-1 -2 -3.5 -5t-3.5 -5q0 -3 2 -3l13 10q2 -1 3 -2v-7q0 3 4 8q16 -8 15 -8l2 1q-4 9 -6 14l1 2q1 0 11 -3q2 0 3 4zM106 468h-105l-1 70l111 1l-72 122h85l42 -85q0 12 32 85h79l-56 -121h114v-68h-110q15 -35 48 -102q5 -8 7 -8v1q-53 -1 -77 0q-11 31 -34 82
l-37 -82h-79zM220 507l2 -1q-6 -2 -14 -6q8 -1 20 -6q-3 -4 -7 -10l2 -4q5 5 12 10q4 0 4 -4q0 -1 -1 -2v-3q0 -3 2 -4q3 16 8 16q2 0 10 -4l4 5q-7 5 -11 7v1q5 2 14 8q-2 2 -4 3q-1 0 -2 -1q-11 0 -11 6q0 -3 7 10q-1 2 -2 3l-13 -10q4 1 7 2v7q-3 -3 -10 -7q-3 2 -8 5
l-4 -8q1 -3 2 -5l-1 -2q-6 4 -13 8zM199 514q-2 1 -4 3q-1 0 -2 -1q-13 0 -13 6q0 2 4 5t4 5t-1 3q-4 -4 -13 -10q-2 1 -3 2v6q-3 -2 -10 -7q-1 1 -4 4.5t-6 3.5l-1 -1q5 -13 5 -15v-1q-10 2 -11 2q-3 0 -4 -3l11 -6q-4 -3 -11 -10q3 1 10 1q4 0 7 -4q-3 -5 -6 -9t-3 -3
q1 -2 2 -3q5 3 13 11q1 1 0 1q10 0 11 -14v3q-1 14 8 14q3 -1 9 -4q2 1 4 5q-3 3 -10 7v1q5 2 14 8zM258 628q-6 1 -18 5q2 6 4 18l-14 -8v0h1h-1l-2 1l-7 1q-3 3 -7 9h-5q1 -2 2 -12q-2 -4 -7 -10q-4 -1 -11 -4l-1 -3q13 0 13 -3q0 1 -11 -14q0 -2 1 -3l14 6q6 0 7 -16h4
q0 15 5 15q4 -3 15 -8q-1 3 -1 13l5 10q5 0 14 3zM233 454q-2 0 -4 2q-1 0 -2 -1q-13 0 -13 7q3 3 8 9q0 2 -1 3q-4 -3 -13 -9q-2 0 -3 1v7q-5 -5 -10 -7q-2 0 -4.5 3.5t-6.5 3.5q5 -13 5 -15v-2q-8 3 -11 3q-2 0 -4 -3l11 -7q-4 -2 -11 -9q14 0 17 -3q-3 -4 -9 -13l2 -2
q6 4 13 10q1 1 0 1q10 0 11 -13v3q-1 13 8 13q3 -1 9 -4q2 2 4 5l-10 8q5 3 14 9zM328 497l-10 7q4 2 10 9q-14 0 -16 3q2 4 8 13l-1 2q-7 -4 -10 -7q-6 -4 -4 -4q-5 0 -6.5 6t-4.5 7q0 -16 -7 -16q-2 0 -10 4l-4 -5q4 -3 11 -7v-1q-5 -2 -14 -9l4 -2q1 1 2 1q11 0 11 -6
q0 -2 -3.5 -5.5t-3.5 -4.5q0 -3 2 -3q4 3 13 9q2 0 3 -1v-7q0 3 4 7q2 0 7 -3.5t8 -3.5h2q-6 13 -6 15l1 2q1 0 11 -3q2 0 3 3zM102 601q0 5 3 8h3l9 -6h4q-1 1 -5 5.5t-4 6.5t2 4q4 0 12 -3q1 2 4 5q-15 5 -15 11v-1q3 4 7 14l-14 -4h-1v0q0 2 1 5.5t1 5.5h-5q-2 -4 -5 -8
h-3l-10 10q-2 -5 -5 -14q-1 -4 0 -4q-2 0 -7 2.5t-7 2.5q-3 0 -3 -5q7 -2 14 -7q-2 -1 -13 -3l1 -6q2 1 11 1q3 0 3 -10q0 -1 -1 -4v-4l3 -1q1 3 7 8q3 0 8 -2l-3 -16h8l2 2q-2 4 -2 7zM47 482q0 5 3 7h3q3 -2 8 -6h5q-1 1 -5 5.5t-4 6.5q0 3 2 5l12 -3l4 4q-15 7 -15 11v-1
q3 3 7 14l-15 -3v0v0q2 13 2 10v1h-6q-1 -5 -4 -9h-3q-1 2 -10 9q-2 -5 -5 -16q-2 0 -7 2t-7 2t-3 -1v-4q7 -2 14 -7q-2 0 -13 -3l1 -5q14 0 14 -4v-3q-1 -1 -1 -2v-9l3 -1q1 3 6 8q4 0 8 -1l-3 -17l9 1l2 2q-2 4 -2 7zM120 500l-2 1q6 3 13 6l-7 4q-2 0 -5 -1q-5 0 -7 4
q3 3 7 10l-2 4q-5 -6 -12 -11q-3 0 -3 9q0 4 -3 5q0 -17 -7 -17q-2 0 -10 4l-4 -5q4 -3 11 -7q-5 -3 -14 -9q2 -2 4 -3q1 1 2 1q11 0 11 -5q0 -2 -3.5 -5.5t-3.5 -5.5t2 -2q4 3 13 9q-4 -1 -7 -2v-6q3 2 9 7q4 -2 9 -5l3 8q-1 3 -1 5l1 1q6 -3 13 -8z" />
    <glyph glyph-name="plus" unicode="+" horiz-adv-x="616" 
d="M194 255h-200v131h200v208h137v-208h200v-131h-200v-192h-137v192zM518 309l-15 11q6 5 15 16h-13t-10 7l8 15q4 9 4 7q0 2 -3 4q-6 -7 -19 -20q-8 0 -14 11t-9 13q-5 -30 -11 -30q-2 0 -14 8l-6 -9q15 -11 15 -14q-7 -5 -20 -16q4 -2 6 -4q1 1 3 2q17 0 17 -11
q0 -3 -5.5 -9.5t-5.5 -8.5q0 -3 3 -5q6 6 18 17l5 -3v-12l14 13q1 0 9 -6.5t13 -6.5h2q-8 24 -8 27q0 1 1 3q14 -5 15 -5q4 0 5 6zM318 527v8q-9 -1 -10 -1q-10 0 -10 11q3 8 10 23l-21 -9q-4 1 -5 4q3 26 3 18q0 4 -3 6q-3 -2 -5.5 -13.5t-7.5 -11.5q-17 0 -36 14v-8
q0 -3 1.5 -8.5t1.5 -8.5q0 -12 -11 -17q-15 -6 -16 -9q6 -2 22 -3q7 -12 8 -15q0 -2 -6 -11.5t-6 -16.5l1 -1h5q5 8 14 24h12q6 -7 15 -24q8 26 13 26q3 0 16 -13l4 4q-10 20 -10 18q0 15 21 14zM417 307q0 2 -10 10.5t-10 21.5q0 7 19 25q-2 2 -8 5q-14 -19 -21 -19
q-9 0 -14 26q-3 -9 -8 -23l-14 -10v1q-6 3 -13 3q3 -5 15 -18v-7q-6 -4 -18 -8l2 -9l16 4q4 0 5 -4q-3 -8 -15 -23l4 -5q16 13 13 17q10 0 23 -24q4 20 6 31zM317 439v8l-3 3q-6 -4 -17 -6q0 3 -1.5 7.5t-1.5 6.5q0 3 1 7.5t1 6.5l-1 6q-11 -12 -20 -17q-6 0 -17.5 8.5
t-14.5 13.5q-4 0 -4 -5q0 -3 2 -9.5t2 -9.5q0 -5 -3 -8q-8 3 -25 8q6 -13 18 -20v-17l-21 -12q2 -2 2 -7l14 5q5 1 7 3q6 0 8 -32q21 7 30 20q5 2 14 4q6 -5 18 -12l2 4q-9 14 -9 19t5 19zM318 215v7l-18 6v6q7 7 15 20h-4q-2 0 -7 -2t-8 -2q-5 0 -8 5q7 13 10 27q-4 2 -8 2
q-2 -8 -9 -22v5q0 23 11 23q3 0 14 -8l6 9q-16 9 -15 14q7 5 20 16l-6 4q-1 -1 -3 -2q-16 0 -16 11q0 1 4.5 8.5t5.5 9.5l-2 5l-19 -17l-4 3v12q-11 -3 -31 -13q-20 13 -21 13h-3q8 -24 8 -27v-3q-6 2 -17 5q-3 -2 -4 -6l15 -11q-6 -5 -15 -17q20 0 23 -6q-4 -7 -12 -22
l2 -4l20 20q29 0 38 -23l-4 -3q-12 6 -31 19l-2 -16q-1 -11 -7 -11q-1 0 -7 4.5t-8 5.5l-6 -2q6 -6 15 -20l-2 -10l-18 -15h18q4 0 7 -4q-7 -7 -16 -21l8 -4l16 18q11 -1 15 -11q6 -13 11 -17q4 9 8.5 18.5t9.5 9.5q1 0 9 -7t10 -8l5 3v6q-14 10 -14 17q0 1 1 3v-1h20z
M190 314q-3 3 -10 8v7q5 5 6 11t1 7q-11 0 -13 -4l-14 10q-4 14 -8 23q-5 -26 -14 -26q-7 0 -21 19q-5 -3 -8 -5q19 -18 19 -25q0 -13 -10 -21.5t-10 -10.5l28 -6q3 -12 6 -31q13 24 23 24q3 0 9 -6t4 -11l4 5q-2 7 -7 23q1 4 5 4v0q0 -1 8 -4zM317 137l-6 4q-1 -1 -3 -2
q-16 0 -16 11q0 3 5 9.5t5 8.5q0 3 -2 5q-7 -6 -19 -17l-4 3v11q-11 -2 -31 -12q-1 0 -10 8q-7 5 -11 5q-1 0 -3 -1q8 -23 8 -26v-3q-6 2 -17 5q-3 -2 -4 -6l15 -11q-6 -5 -15 -17q20 0 23 -6l-7 -15q-1 -2 -4 -7h-1q0 -3 2 -4l20 20q20 0 26.5 -8t12.5 -16q2 30 11 30
q3 0 14 -8l6 9q-15 9 -15 12v2q7 5 20 16zM99 312q-13 11 -20 16v1q0 2 15 13l-6 9q-11 -8 -14 -8q-6 0 -11 30q-3 -2 -9 -13t-13 -11q-5 3 -20 20q-1 -1 -3 -4v0q1 0 3 -3t9 -19q-4 -8 -23 -7q9 -11 15 -16l-15 -11q1 -6 5 -6q1 0 16 5v-3q0 -3 -8 -27h3q4 0 12 6.5t9 6.5
l15 -13v12l4 3q12 -11 19 -17q2 2 2 5q0 2 -5 8.5t-5 9.5q0 11 16 11q1 -1 3 -2zM281 262v-2l-1 1z" />
    <glyph glyph-name="comma" unicode="," horiz-adv-x="278" 
d="M177 -3l-113 -146h-52l66 146h-69v163h168v-163zM157 89q-5 2 -8 5l-4 -2q-23 0 -23 13q0 4 7 12.5t7 10.5q0 3 -3 6q-9 -7 -26 -21l-6 4v14q-7 -5 -20 -16q-1 1 -15 10q-9 7 -15 7l-4 -1q12 -29 12 -33l-1 -4q-20 6 -23 6q-4 0 -6 -7l21 -14q-8 -6 -21 -21q28 0 32 -7
l-10 -20q-6 -11 -6 -8q0 -3 3 -5q9 9 27 25q11 0 18 -12q10 -15 14 -18q1 12 3 24.5t13 12.5q3 0 19 -9q2 3 8 11q-21 11 -21 15v2q10 6 28 20z" />
    <glyph glyph-name="hyphen" unicode="-" horiz-adv-x="417" 
d="M316 227h-307v163h307v-163zM298 294l-21 14q8 6 21 21q-4 -1 -19 -1q-9 0 -14 8l10 19l5 7q2 3 2 2q-1 3 -4 5q-8 -9 -27 -25q-10 0 -18 12q-9 16 -13 18q-2 -11 -4 -24t-12 -13q-3 0 -19 9q-3 -3 -8 -11q21 -13 21 -17q-10 -6 -28 -20q5 -2 8 -5l4 2q23 0 23 -13
q0 -4 -7 -12.5t-7 -10.5q0 -3 3 -6q9 7 26 21l6 -4v-14l20 16q2 -1 14 -10q9 -7 16 -7q1 0 3 1q-11 29 -11 33l1 4q20 -6 22 -6q5 0 7 7zM157 319q-5 2 -8 5l-4 -2q-23 0 -23 13q0 4 7 12.5t7 10.5q0 3 -3 6q-9 -7 -26 -21l-6 4v14q-7 -5 -20 -16q-1 1 -15 10q-9 7 -15 7
l-4 -1q12 -29 12 -33l-1 -4q-20 6 -23 6q-4 0 -6 -7l21 -14q-8 -6 -21 -21q28 0 32 -7l-10 -19q-1 -4 -5 -9q-1 -1 -1 0q0 -4 3 -5q9 9 27 25q19 0 32 -30v7q-1 30 16 30q3 0 19 -9q2 3 8 11q-21 11 -21 15v2q10 6 28 20z" />
    <glyph glyph-name="hyphen" unicode="&#x2010;" horiz-adv-x="417" 
d="M316 227h-307v163h307v-163zM298 294l-21 14q8 6 21 21q-4 -1 -19 -1q-9 0 -14 8l10 19l5 7q2 3 2 2q-1 3 -4 5q-8 -9 -27 -25q-10 0 -18 12q-9 16 -13 18q-2 -11 -4 -24t-12 -13q-3 0 -19 9q-3 -3 -8 -11q21 -13 21 -17q-10 -6 -28 -20q5 -2 8 -5l4 2q23 0 23 -13
q0 -4 -7 -12.5t-7 -10.5q0 -3 3 -6q9 7 26 21l6 -4v-14l20 16q2 -1 14 -10q9 -7 16 -7q1 0 3 1q-11 29 -11 33l1 4q20 -6 22 -6q5 0 7 7zM157 319q-5 2 -8 5l-4 -2q-23 0 -23 13q0 4 7 12.5t7 10.5q0 3 -3 6q-9 -7 -26 -21l-6 4v14q-7 -5 -20 -16q-1 1 -15 10q-9 7 -15 7
l-4 -1q12 -29 12 -33l-1 -4q-20 6 -23 6q-4 0 -6 -7l21 -14q-8 -6 -21 -21q28 0 32 -7l-10 -19q-1 -4 -5 -9q-1 -1 -1 0q0 -4 3 -5q9 9 27 25q19 0 32 -30v7q-1 30 16 30q3 0 19 -9q2 3 8 11q-21 11 -21 15v2q10 6 28 20z" />
    <glyph glyph-name="period" unicode="." horiz-adv-x="278" 
d="M177 -3h-168v163h168v-163zM157 89q-5 2 -8 5l-4 -2q-23 0 -23 13q0 4 7 12.5t7 10.5q0 3 -3 6q-9 -7 -26 -21l-6 4v14q-7 -5 -20 -16q-1 1 -15 10q-9 7 -15 7l-4 -1q12 -29 12 -33l-1 -4q-20 6 -23 6q-4 0 -6 -7l21 -14q-8 -6 -21 -21q28 0 32 -7l-10 -20q-6 -11 -6 -8
q0 -3 3 -5q9 9 27 25q11 0 18 -12q10 -15 14 -18q1 12 3 24.5t13 12.5q3 0 19 -9q2 3 8 11q-21 11 -21 15v2q10 6 28 20z" />
    <glyph glyph-name="slash" unicode="/" horiz-adv-x="365" 
d="M46 -47l-47 -2l242 744l48 1z" />
    <glyph glyph-name="zero" unicode="0" horiz-adv-x="535" 
d="M378 591q-10 3 -29 6q-9 8 -9 12q0 2 10 17l-11 8q-6 -7 -18 -16q-2 2 -8 15t-12 13q-3 -35 -15 -35l-25 16l-5 -6q7 -8 21 -25q-7 -2 -19 -7v-11q5 -1 16 -9q-7 -9 -21 -25q0 -4 3 -6q6 0 18 4.5t18 4.5l1 -1q-9 -29 -9 -22q0 -7 13 -7q3 8 11 21q6 -9 20 -24q2 10 2 18
t-2 15h11q7 -4 21 -14q2 2 4 6q-17 28 -17 23q0 11 15 18.5t16 10.5zM441 482v8l-5 1q5 0 -21 -5q-3 3 -7 8q6 8 19 24q-2 5 -6 8q-10 -7 -29 -21q-16 0 -26 22l-7 1q0 -30 -9 -36q-2 -2 -36 -8q31 -20 31 -38q0 -2 -11 -15q-12 -16 -13 -17l6 -6q30 24 34 24q9 0 14 -13
q5 -16 9 -18q10 31 15.5 35t39.5 4q-7 12 -21 22v8zM244 579q-2 5 -18.5 8.5t-16.5 13.5q0 3 8 14t8 13q0 9 -9 8h-2q-6 -8 -21 -23l-4 4v31h-13v-31h-4q-3 0 -5 -2q-16 12 -26 19l-1 -5q1 -2 2 -5l5 -19q-3 -4 -8 -6q-6 2 -17 4l-3 -11q6 -2 19 -9v-6q-18 -13 -21 -22h10
q6 1 9 1q15 0 16 -10q-6 -8 -6 -13q0 -6 8 -12q8 19 20 19q9 0 29 -26v12q-1 8 -1 12q0 6 1 12q9 -7 28 -19l6 5q-2 3 -14 16q-10 10 -10 18q13 4 31 9zM448 367q-2 3 -2 8h-10q-4 0 -11.5 -4t-10.5 -5q-6 3 -11 40q-4 -1 -14.5 -17t-24.5 -16q-1 0 -10.5 7t-17.5 7l9 -20
q1 -3 4 -9q1 -1 1 0q0 -21 -29 -35l6 -9q7 3 21 7q10 -6 10 -17q0 -3 -1.5 -10t-1.5 -10q0 -5 3 -7q20 23 26 23q9 0 18 -25h9v13l-3 6.5t-3 10.5q0 7 9 7h-2l2 -1l5 -1l24 -3q-8 10 -20 23q0 7 -3 21q10 7 28 16zM455 222q-40 3 -40 23q0 4 7.5 16t7.5 16t-4 7
q-8 -13 -26 -33q-4 0 -14 30l-6 -22q-5 -14 -15 -15q-6 7 -19 16l-6 -5q5 -8 17 -22q0 -12 -31 -18v-8q31 -3 31 -14q0 -3 -5.5 -15t-6.5 -16q11 6 33 14l2 -2q-1 -9 -5 -26q5 -2 9 -5q2 13 14 33q10 -7 31 -19q-9 30 -9 32q0 8 14 18q11 8 21 15zM301 212v231q0 67 -50 67
t-50 -72v-217q0 -62 51 -62q20 0 34.5 16.5t14.5 36.5zM175 450q-8 4 -23 14q13 8 19 19q-24 0 -29 -2l-6 6q9 14 13 27q-23 -14 -37 -23q-7 0 -12.5 15.5t-12.5 16.5v1l1 -1v-4v-18q0 -12 -12 -20q-14 7 -17 7q-4 0 -6 -3q0 -8 17 -19v-6l-24 -12v-9l13 1q23 0 23 -12
q0 -2 -7.5 -11.5t-7.5 -11.5q0 -6 12 -6q5 8 18 24q6 -3 9 -19q5 2 13 3v5q0 5 6 11q9 -6 26 -19l6 3v8l-14 27l3 4q10 -5 18 -5q9 0 11 9zM394 63q-9 8 -26 22v14q21 18 21 25q-27 -5 -29 -5q-10 0 -10 13q0 3 1 8.5t1 8.5l-1 5q-5 0 -7 3q-4 -8 -13 -24h-6q-7 10 -22 21
v-3q0 -4 1 -11t1 -11q0 -12 -11 -12q-5 0 -13.5 3t-13.5 3h-2q1 -3 26 -22v-6l-2 -2q-5 0 -12 -2v-9q6 -2 19 -7v-6q-12 -20 -12 -23q0 -4 3 -7q11 7 33 19q1 -6 1 -12q0 -7 -2 -16l11 -2q2 9 9 25q14 -13 24 -16v8l-6 17q0 4 3 8q17 -7 34 -7zM174 169l-25 25v6l24 11l1 8
l-4 3q-18 -4 -21 -4q-8 0 -8 6v2q8 9 20 23l-6 7h-8q-16 -23 -23 -23q-12 0 -17 7q-1 1 -10 19q-5 1 -9 3l10 22l8 -1q10 -17 19 -21q0 -1 0 26q0 7 9 10q12 -8 22 -11q5 2 10 7q-22 17 -22 27q0 7 11 16t13 14q-10 -1 -30 -2h-5q8 10 20 31q-6 3 -11 3q-13 -16 -23 -23
q-4 0 -7 3q-3 15 -6 28q-5 -2 -10.5 -19.5t-14.5 -17.5q-3 0 -26 20l-6 -5q3 -6 23 -26l-4 -4l-29 1l-1 -14l28 -1v-10q-8 -10 -19 -27l33 5l2 -1q-4 -12 -8 -38l8 -3l5 7l3 -4q0 -18 -3 -24q-3 -11 -18 -13q-5 -5 -17 -9q26 -11 26 -35q0 -1 -10 -14.5t-10 -15.5q0 -5 3 -6
l31 25q9 0 14.5 -14.5t11.5 -14.5q3 8 6 26q13 8 21 12q29 -3 22 -3zM256 77l-20 10q-13 7 -13 13q0 4 9 15t9 12q0 4 -5 9q-9 -9 -28 -22v35h-16q1 -4 1 -19q0 6 -1 -9h-12q-15 19 -25 21q0 -5 3 -13.5t3 -13.5q0 -7 -6 -10q-18 9 -31 9v-8l26 -14v-6q-7 -5 -14 -9
q-10 -7 -10 -11q8 -1 22 -2q8 -1 11 -7q-2 -5 -14 -24l11 -8q6 8 18 21q13 0 34 -30q0 23 2 35q8 -8 26 -21q5 2 8 6q-21 31 -21 28q0 6 33 13zM472 226q0 -99 -60 -166q-62 -70 -160 -70q-225 0 -225 288q0 192 22 261q46 138 199 138q99 0 163 -74q61 -70 61 -171v-206z
" />
    <glyph glyph-name="one" unicode="1" horiz-adv-x="338" 
d="M224 -3h-168v663h168v-663zM205 576v11q-12 -1 -14 -1q-13 0 -13 13q0 2 13 29q-36 -11 -30 -11q-4 0 -7 4q4 15 4 23q0 5 -2 8q-4 -3 -8 -17.5t-11 -14.5q-1 0 -29 18v-10q0 -4 3 -10.5t3 -10.5q0 -15 -16 -21q-19 -8 -22 -12q8 -2 30 -4q11 -16 11 -18q0 -3 -8 -15.5
t-8 -21.5h9q7 10 18 30h6q4 -10 11 -30q10 33 18 33q2 0 21 -17l5 6q-1 2 -7.5 11.5t-6.5 10.5q0 18 30 17zM203 466v11l-3 3q-10 -5 -25 -7l1 2q0 1 -2 5t-2 6q0 4 1 11t1 11l-1 7q-24 -21 -28 -21q-8 0 -22 28q-6 -1 -6 -7q0 -4 3.5 -11.5t3.5 -11.5q0 -6 -6 -10
q-11 4 -33 9q7 -15 23 -24v-22l-28 -15q3 -2 3 -8l20 5l9 3q1 1 0 1q9 0 9 -21v-9q1 -6 1 -9q9 9 20 25q3 0 10 2.5t11 2.5q-4 0 23 -16l3 6q-11 17 -11 23t6 24q9 3 19 7zM205 310q0 2 -13.5 12.5t-13.5 27.5q0 6 25 31q-3 3 -11 6q-18 -23 -28 -23t-20 32l-11 -28l-19 -13
q-5 0 -14.5 2.5t-14.5 2.5q3 -6 21 -23v-8q-9 -5 -26 -10l3 -11q22 5 23 5q4 0 7 -6q-6 -10 -21 -28l5 -6q25 21 30 21q16 0 31 -30l8 38zM205 187v9q-8 2 -25 7v8q9 8 21 25h-5q-4 0 -11 -2.5t-11 -2.5q-7 0 -10 6q9 16 14 34q-4 2 -11 2q-14 -32 -20 -32q-7 8 -22 23
q-4 -33 -11 -33q-4 0 -11.5 6t-9.5 6q-5 0 -8 -3q8 -8 21 -25l-3 -12q-9 -6 -25 -19q3 -2 8 -2q3 0 8 1t8 1q6 0 11 -5q-10 -8 -24 -26q3 -2 11 -5l23 23q7 -1 9.5 -13t4.5 -22q2 2 11 20q6 15 13 15q3 0 14 -9.5t13 -9.5q6 0 8 3v8q-20 12 -21 21l2 4v-1h28zM203 89l-8 5
l-4 -2q-23 0 -23 13q0 4 7 12.5t7 10.5q0 3 -3 6q-8 -7 -26 -21l-6 4v14l-19 -16q-3 1 -13.5 9t-17.5 8q-1 0 -3 -1q12 -29 12 -33l-1 -4q-20 6 -23 6q-4 0 -6 -7l20 -14q-8 -6 -20 -21q28 0 32 -7l-10 -20q-6 -11 -6 -8q0 -3 3 -5q8 9 27 25q10 0 18 -12q10 -15 14 -18
q1 12 3 24.5t13 12.5q2 0 18 -9q3 3 8 11q-21 12 -21 17q10 6 28 20z" />
    <glyph glyph-name="two" unicode="2" horiz-adv-x="535" 
d="M460 457q0 -80 -41 -130q-24 -29 -92.5 -72t-97.5 -79l5 -3l-6 -6l10 2q33 0 104 -2t105 -2v-165h-422l-2 20q0 168 63 254q13 18 114 85q88 57 88 86q0 20 -13.5 34t-33.5 14q-45 0 -52 -49h-169v27q0 81 70 142q67 59 148 59q90 0 156 -62.5t66 -152.5zM420 504v9
q-26 10 -26 24q0 1 9 13t10 14l-9 9q-8 -8 -22 -24q-5 0 -6.5 4t-1.5 11q1 11 1 10q0 7 -6 7q-7 0 -8.5 -14t-9.5 -14q-3 0 -13.5 9.5t-13.5 10.5l-4 -3v-5q0 -2 5.5 -12t5.5 -11q0 -11 -12 -21q-6 -1 -19 -6v-8q28 -7 28 -17q0 -1 -6.5 -12.5t-7.5 -14.5l4 -2q2 1 14 9.5
t13 8.5q20 0 28 -10t11 -10q4 1 5 2q-1 7 -1 13q0 19 6 23t26 7zM311 615q0 6 -6 8q-24 -20 -33 -19q0 11 -1 33l-22 -19q-3 9 -12 22q-8 0 -8 -10q0 -2 2.5 -7t2.5 -7q0 -4 -4 -7q-11 4 -32 14q-2 -1 -4 -4v-5q8 -10 17 -23v-4q-5 -4 -16 -3v-6q-1 -5 -1 -7q6 -1 11.5 -1.5
t6.5 -8.5q-15 -13 -23 -21q0 -4 5 -8q13 6 25 17q13 -4 13 -15q0 -2 -3 -17q5 -2 7 -2q4 0 8.5 10.5t14.5 10.5q8 -12 19 -20l5 4q-3 8 -11 24q0 11 31 11q1 4 2 11q-20 12 -20 23q0 4 13 13t13 13zM425 368q-10 4 -28 14q0 8 2 19q10 10 23 26h-9q-1 0 -12 -4.5t-12 -4.5
q-9 0 -9 8q0 1 8 24h-12q-3 -7 -5.5 -13.5t-10.5 -6.5t-23 22h-8v-13q0 -3 1.5 -10t1.5 -10q0 -10 -9 -10q8 0 -18 6l-4 -2q-3 -5 -2 -9q8 -3 22 -11q5 -25 5 -21q0 -4 -11 -21l7 -7q7 4 20 14q19 0 36 -33q2 2 5 4v9q-2 29 9 29q3 0 12.5 -4.5t16.5 -4.5q3 5 4 10zM180 533
h-3q-2 -1 -3 -1q-13 0 -13 8q0 -1 16 26q-1 3 -2 4h-5l-22 -9q-7 0 -7 9q0 3 5 31q-3 2 -7 3q-4 -10 -8 -19q-7 -15 -10 -15t-12 11t-10 12q-3 0 -4 -1q0 -5 1 -15t1 -15q0 -9 -7 -9q-2 0 -8.5 5t-12.5 5q-2 -3 -5 -9q22 -12 22 -16q-1 -3 -3 -5q-20 0 -28 -2l-3 2v-13
q1 -1 25 -1q13 0 13 -12q0 3 -9 -25q1 -5 2 -7h5q7 7 21 20q7 0 10 -34l4 -3h6q1 2 1 26q0 7 4 9q8 -8 24 -21l3 2v8q0 -8 -9 23q3 9 12 13q8 -1 14 -1q3 7 3 12zM318 316v8h-34q-10 0 -14 20t-10 20q-11 -26 -18 -26q-1 0 -7.5 6t-7.5 6q-5 0 -9 -5q4 -5 10 -14
q-3 -4 -37 -4q7 -10 23 -23v-12q-14 -5 -22 -10q5 -8 11 -8q2 0 7.5 2.5t7.5 2.5q5 -4 14 -12q-2 -7 -2 -12q0 -6 3 -16h5q7 23 15 23q5 0 12 -11h5q4 3 8 7q-3 6 -3 9q0 5 7 6q2 -3 8 -6l10 5q-4 4 -12 13l3 18q13 9 27 13zM439 96v11q-27 0 -32 10q-4 17 -9 34
q-5 -11 -16 -26q-7 -3 -21 -8q-10 9 -31 25q-5 -6 -7 -10q9 -9 26 -29q0 -8 -24 -17q1 -5 3 -12h-1h2l2 -1l16 -1q13 -15 13 -19q0 -6 -4 -28q2 -1 5 -2q21 25 25 25q6 0 9.5 -11.5t6.5 -13.5q4 1 9 3l-4 27l6 5q10 -10 21 -15q2 2 2 15q-5 4 -14 12q0 22 17 26zM199 257
l-3 2l-1 -1l2 -2zM198 249q0 7 -9 7q-4 0 -14 -4t-14 -4q-5 0 -9 6q1 9 1 17q0 7 -1 14h-10v-3q0 -7 -6 -26q1 0 -20 -3q-9 5 -28 15q1 -4 7 -14t6 -16q0 -14 -25 -11q-8 -6 -10 -14q10 -1 21 -1q11 -3 11 -14q0 -1 -7 -10t-8 -14q-2 2 -4 2q-3 0 -2 -8v-6q13 5 24.5 12
t12.5 7q11 0 12 -9q0 2 0 -19h12q3 13 4 22q11 5 23 10q7 0 29 -6v8q-8 6 -20 17v14q-1 5 0 11l5 5h2l1 -1q16 7 16 16zM331 60l-3 8l-22 13q-1 6 -3 19q6 7 16 23l-2 5h-6q-18 -11 -23 -11q-15 0 -21.5 10t-11.5 21l-10 -5q2 -10 6 -21q-9 -8 -14 -8q-4 0 -11 2t-11 2
q-5 0 -9 -2q9 -8 22 -28l-3 -8q-13 -4 -39 -13q-14 5 -31 14q0 10 -4 18l21 20l-8 7q-7 -6 -22 -15l-4 8l2 25q-4 -2 -13 -13t-14 -11q-8 0 -15 21h-7l-5 -3l8 -23q-5 -10 -14 -14q-18 7 -22 7q-2 -5 -3 -11q8 -3 23 -10q-1 -11 -9 -18q-12 -12 -14 -15l2 -3q17 3 25 3
q7 0 10 -6q-6 -9 -15 -24l3 -4h7l20 24q16 -10 43 -29l2 4q-7 9 -15 29q8 17 53 17l11 -5q36 6 28 6q8 0 8 -8l-11 -30h6l21 19q11 -2 21 1l13 -28l11 2v8q0 -3 -7 21q2 5 7 8h11q8 -1 22 1z" />
    <glyph glyph-name="three" unicode="3" horiz-adv-x="535" 
d="M454 469q0 -32 -10 -71q-13 -51 -33 -56q30 -12 46 -59q12 -36 12 -77q0 -97 -61 -154t-159 -57q-82 0 -151 64.5t-69 146.5q0 12 2 23h173l-3 -7q0 -20 13.5 -35t33.5 -15q18 0 34.5 15t16.5 32q0 34 -25 46q-11 6 -52 13v118q80 3 80 65q0 18 -15.5 30.5t-33.5 12.5
q-38 0 -47 -57h-175v22q0 81 71 142q68 58 150 58q90 0 146 -55.5t56 -144.5zM426 526v7q-33 0 -33 14q7 13 16 30q-1 4 -1 6q-9 -3 -31 -27q-20 2 -24 8q-10 12 -17 16q-3 0 -3 -24q0 -14 -10 -23q-18 0 -23 -8v-4q7 -2 24 -8q2 -6 7 -16q-7 -10 -17 -29l9 -5q14 16 20 24
q9 0 9 -30h9q2 27 12 27l25 -24h6q4 6 4 11q0 -2 -15 24q0 19 33 31zM329 616q-4 3 -9 2q-23 -15 -25 -15q-10 0 -10 6q0 2 7 11.5t7 16.5q-5 2 -7 2q-4 0 -21 -20q-9 0 -14.5 15t-10.5 16q-3 -3 -5 -16.5t-7 -15.5q-19 12 -25 12q-1 0 -4 -2q5 -7 15 -22q0 -9 -29 -19v-6
q0 -3 16 -7t16 -15q0 -1 -8.5 -14.5t-8.5 -14.5q0 -8 6 -8h3q7 10 22 28q6 -3 12 -34q5 10 16 29q5 -5 13 -14q4 1 7 2q-3 7 -7 21l1 3l34 -3q3 5 4 9q-9 6 -23 18q17 13 35 35zM419 385q-3 2 -19 2q-4 0 -4 9q2 3 15.5 14t13.5 13q0 7 -7 7q-2 0 -17 -7t-17 -7q-4 0 -13 9
q5 11 5 21q-9 2 -13 2l-6 -21q-8 -3 -23 -11v0l-5 2q-3 1 -23 7v-8q6 -6 17 -18q-1 -12 -4 -20q-7 -6 -16 -11q0 -8 5 -12q7 1 22 4q1 -2 10 -7q-5 -15 -5 -24v-5h9l9 24q-6 0 21 3q6 -9 18 -22l10 6l-12 27q3 6 6 9q16 4 18 5.5t5 8.5zM375 345q-1 -1 -1 -4v-1v-3q0 8 1 8
v0zM203 536q-5 8 -9 12q-2 0 -6.5 -1.5t-6.5 -1.5q-6 0 -10 5q9 15 14 25l-2 5h-5q-15 -8 -25 -15q-9 0 -9 11q0 7 3 17q-3 1 -10 4q-1 -14 -9 -32h-4q-10 17 -19 26q-4 -1 -6 -2v-9l13 -24q0 -6 -15 -10q-11 -2 -21 -4l-4 -19q9 4 18 3h5q2 -10 17 -27q-9 -10 -25 -31l3 -2
q7 0 23.5 15.5t23.5 15.5l18 -19h5q3 7 5 11q-1 5 -3 8l9 6q11 -5 18 -5q5 0 7 4q-12 8 -31 22q21 8 38 12zM432 276q-13 2 -28 5t-15 19q0 3 2 11t1 13v3q-8 -2 -11 -14q-5 -16 -6 -18q-11 -1 -16 -2q-3 0 -9.5 9.5t-7.5 10.5q-2 -2 -10 -5l14 -18q0 -1 -1 -3q-2 0 -32 6
q-1 -4 -4 -6q16 -10 28 -23q-11 -4 -31 -14l4 -10h6q2 0 12.5 5t11.5 5q9 0 9 -9q0 -3 -12 -27q7 -7 11 -7q8 15 13 29q3 2 7 1q17 -33 22 -33q3 0 4 2l-9 36q9 0 29 -12q10 -6 7 -6l5 2v8l-27 22q4 10 33 20zM312 335q-7 1 -23 22q-4 3 -11 9q2 2 2 5q0 4 -5 11t-10 7
q3 0 -10 -2v-7l6 -6v-13q-4 0 -6 -1q-4 3 -11 11q-7 -4 -7 -8q0 -1 5.5 -9t6.5 -10q-6 -9 -12 -19q0 -3 3 -5v-2q0 -3 2 -5q5 3 13 10q1 1 0 1q3 0 7 -3q0 -3 -1 -9v-9q0 -13 7 -13q2 0 6 2l6 38q25 -5 19 -5q4 0 13 10zM432 136v7q-2 2 -32 2q-5 7 -7 11q10 33 10 25
q0 6 -5 8q-14 -14 -23 -20q-5 0 -7 11q-2 8 -3 16h-12q2 -11 2 -18q0 -3 -1 -7q-4 2 -26 21l-3 -4l9 -28l-9 -12h-17l-3 -13q6 -1 12.5 -3t6.5 -8q0 1 -15 -24q1 -2 4 -5q3 1 13 5t11 4q7 0 7 -8q0 -5 -2 -15.5t-2 -15.5q2 -2 5 -3q2 2 9 19q5 14 9 14q6 0 18 -23h5
q0 12 1 33q3 4 7 7q6 -4 18 -11q5 5 6 10q-6 5 -19 14q0 1 1 7q3 -1 6 -1q11 0 26 5zM297 125q0 4 -5 8q-11 -7 -24 -15q-10 0 -10 31q-5 2 -7 2q-3 0 -7 -10.5t-12 -12.5q-10 13 -20 21q-3 -1 -6 -3l9 -23q3 -7 -9 -9.5t-19 -1.5q-2 -4 -2 -12q18 -9 18 -21q-9 -8 -26 -26
q0 -5 7 -8q12 7 29 20q5 -4 4 -15q-1 -16 0 -19q3 2 20 20q3 -8 11 -23h5q5 5 5 9q0 2 -2 7.5t-2 7.5q0 1 2 5q20 -7 31 -12q4 1 6 2v7q-7 8 -19 24q3 5 17 5q0 9 2 12q-9 2 -17 3q0 3 -2 5q8 8 23 22zM189 153v5q-27 10 -27 16q0 1 6.5 13.5t7.5 16.5h-7q-8 -6 -22 -18
q-15 0 -21 4q-2 2 -13 17h-10l1 -14q1 -10 1 -6q0 -13 -12 -21q-8 0 -22 -7l2 -6q6 -2 17 -5q5 -9 7 -17q-6 -9 -18 -29l10 -7q12 15 20 23q5 0 7 -4v-10q-1 -7 1 -17h9q2 8 4 17t9 9q4 0 13.5 -9t15.5 -9v8q0 2 -4.5 11t-4.5 11q0 11 10 17t20 11z" />
    <glyph glyph-name="four" unicode="4" horiz-adv-x="535" 
d="M488 128q-18 4 -28 4l-4 -1v-131h-165v122h-280v8q199 491 225 534h220v-377h32v-159zM437 568l-20 11v4q10 7 19 17q-9 0 -19 1q-13 1 -15 6q13 19 19 30q-3 4 -8 4l-23 -25q-12 1 -27 29h-7q0 -17 -2 -28l-11 -9q-2 1 -10 5.5t-10 4.5q-7 0 -7 -9q7 -4 20 -16
q-4 -11 -27 -11l-6 5q7 5 14 6q-6 12 -12 18l-9 -3q-7 0 -11 6l4 17q0 7 -3 14h-6q-5 -13 -19 -34q-6 4 -14 13h-12q4 -8 10 -23q-4 -5 -11 -22h-29v-12h22q13 -2 13 -12q0 -2 -5 -13.5t-6 -14.5l2 -5h5q11 11 22 17q10 -1 19 -4q4 -8 14 -22l5 3l4 -2l-2 17l-4 4
q5 14 13 33h8q28 0 28 -13q0 -1 -7 -11.5t-8 -13.5l3 -5h6q6 8 21 22l5 -4q-5 -13 -7 -25l11 -3q-6 -27 -18 -27q1 0 -28 20q-4 -5 -7 -10q8 -7 23 -22l-5 -5q-6 1 -25 3l-1 -4q0 -4 2 -10q15 -1 23 -8q-8 -9 -22 -28l4 -4q12 5 25 8l8 -4q-5 -11 -13 -33l3 -4l7 -3
q13 33 20 33q3 0 12 -11t11 -12q1 10 2 21t10 14l20 -15q7 4 10 10l-21 17v14q12 6 27 22q-26 -1 -30 -1l-5 3q7 9 23 25q-5 5 -9 7q-8 -8 -26 -22l-6 3q-5 28 -5 34q0 2 3 16l4 3q9 -7 27 -20l6 2v7q0 2 -5 13t-6 14l4 6l22 -10zM431 340v7q-3 3 -7 3q-3 0 -10 -2t-10 -2
q-7 0 -7 8q8 7 22 24q-2 5 -7 8q-9 -8 -28 -22q-5 2 -16 4q-5 12 -18 26q0 -32 -11 -40q-6 -3 -21 0q-12 2 -13 -6q0 -2 22 -17q2 -7 7 -22q-9 -10 -26 -30q4 -6 8 -6q3 0 15.5 11t14.5 12q9 0 14 -11.5t9 -21.5q5 10 9 28q9 7 19 13q5 0 13.5 -4t13.5 -4q2 0 4 3
q-23 27 -23 28q0 6 26 13zM289 477q-4 3 -7 3q-5 0 -13 -4t-12 -4q-11 0 -11 21q0 2 1 6.5t1 6.5l-1 5q-8 -3 -21 -23q-7 -2 -20 -5q-2 1 -13.5 9t-15.5 8v-5q12 -23 12 -25q0 -11 -26 -7q-3 -6 -3 -10v-4l6 1q13 0 18 -6v-8q-16 -8 -29 -12q4 -12 8 -12q2 0 14.5 5.5
t14.5 5.5q5 0 15 -12q0 -9 2 -28h6q12 31 27 31q5 0 15.5 -4t16.5 -4l1 6l-17 22q1 8 5 20q8 4 17 9.5t9 13.5zM475 166v56q-10 14 -28 30l-2 -10l11 -22q-19 -6 -19 -14q0 -13 10 -17q-4 -8 -9 -24l13 5q2 5 9 12q3 -9 11 -20zM288 287v122q-54 -119 -53 -122h53zM431 228
l-3 8l-26 -8q-4 -1 -3 -1q-11 0 -11 40h-6q-9 -20 -11 -22q-6 -7 -23 -7q-1 0 -11 7t-11 7q-4 0 -6 -3l13 -26q1 -3 -8 -24q-13 -3 -19 -6v-7q0 -4 6 -7q6 3 18 8q2 -4 8 -12q0 -5 -1 -15.5t-1 -15.5h5q17 21 25 21q7 0 11 -9.5t7 -17.5h5l5 5q-5 16 -9 26l9 7
q5 0 14.5 -4.5t13.5 -4.5q3 0 5 2q-23 24 -23 44zM237 331v5l-2 2q-28 0 -32 8q12 13 18 21q-4 2 -12 4q-2 -1 -9 -7t-8 -6q-7 0 -9 15t-7 16q-14 -28 -21 -28q-7 7 -14 20q-5 0 -14 -3v-5q13 -17 13 -21q0 -13 -15 -16q-21 -5 -24 -8q15 -4 32 -13q-12 -5 -31 -18l5 -8h6
l27 12q6 0 6 -7q0 -4 -3 -12.5t-3 -13.5v-4h7q16 23 25 23q7 0 14 -14t10 -14q3 2 10 5l-14 28l4 4l17 -7q6 -3 8 -5q3 5 6 14q-13 5 -21 12q0 9 31 21zM436 84l-4 4l-8 -2h2h-1l-4 1l-15 1l-13 19q1 2 9.5 17t8.5 17q0 4 -9 4l-21 -32q-7 2 -14 32q-2 -2 -7 -20
q-4 -14 -12 -14q-8 6 -19 17q-7 -3 -9 -8q5 -7 16 -20q0 -9 -17 -10.5t-17 -11.5q0 -7 27 -7q7 0 7 -9q0 -4 -14 -13.5t-14 -15.5q0 -7 7 -7q1 0 15.5 7.5t17.5 8.5l5 -1q-5 -15 -5 -26v-4l5 -3h7q6 17 8 30q3 2 6 2q7 0 27 -20l4 2q0 5 -4 14.5t-4 14.5q0 11 14 19
q12 5 24 11zM305 198v7q0 4 -18 4q-5 0 -10 2v4l18 24l-1 6h-7l-12 -5t-17 -5h-3v1q0 5 10 21q-6 5 -14 8q-3 -7 -12 -21l-18 20l-4 -3v-10q1 -8 1 -10q0 -6 -4 -9q-2 1 -9.5 4t-9.5 3q-9 0 -9 -8q6 -7 17 -14q-5 -17 -15 -21q-9 4 -19.5 9t-10.5 13q15 11 22 21q-2 4 -6 6
q-9 -4 -26 -15l-6 1q1 8 1 12l-1 7h-7q-4 -6 -13 -12q-6 10 -23 26l-6 -2q0 -6 1 -19t1 -19q-13 4 -21 15q-7 -3 -10 -10q3 -5 17 -18q-16 -7 -25 -12q3 -4 16 -7t15 -9q-14 -11 -26 -26l3 -4q10 6 32 17q7 -3 14 -9q1 -13 10 -28l5 5q2 8 7 23q5 2 12 6q6 -6 18 -16
q11 0 10 9v2q-6 5 -16 18q3 4 29 8l3 -5q11 -1 15.5 -2.5t10.5 -9.5q-4 -7 -11 -21q0 -7 10 -9q5 7 15 23l1 -5l5 3q4 -8 8 -15q5 -11 10 -11q1 11 3 22.5t12 14.5q12 -10 26 -15l5 7q-8 7 -23 23q3 4 15.5 6.5t14.5 3.5zM452 247l-2 -2l-2 2l1 2z" />
    <glyph glyph-name="five" unicode="5" horiz-adv-x="512" 
d="M398 664v-165h-166l-15 -54q23 3 45 3q106 0 152 -64q38 -54 38 -164q0 -93 -58.5 -159t-152.5 -66q-90 0 -154.5 65.5t-62.5 153.5v6h170l-1 -9q0 -15 15 -27t31 -12q19 0 33 15.5t14 35.5q0 46 -3 55q-9 26 -134 26q-21 0 -58 -1h-42l18 361h331zM215 429q2 0 -39 8
q1 5 10.5 20t9.5 29l-3 5q-9 -11 -29 -30q-3 -10 -6 -10h-1q0 23 -12 62q-2 -11 -12 -36q-11 -30 -16 -30l-27 19l-5 -6q7 -7 18 -23q-3 -6 -32 -13q9 -2 28 -9v-6q-15 -13 -19 -26l24 6q5 -2 8 -6q-12 -26 -18 -44h18q8 11 20 39q15 -17 45 -48q0 5 -7 21t-7 21q0 15 12 15
q6 0 18 -14l8 6q-18 18 -18 28q14 9 32 22zM223 557q-1 4 -5 11q-4 -2 -8 -2q-5 0 -19 17q17 9 27 19q-13 0 -26 1q-18 2 -18 12q0 4 14 24l-6 3l-25 -25q-7 3 -17 11q-2 8 -16 19q0 -37 -13 -37q-3 0 -10 4.5t-9 4.5q-4 0 -8 -2v-9q17 -10 19 -17q-11 -5 -28 -17
q2 -2 18 -3.5t16 -12.5q0 1 -13 -26q4 -2 8 -3q19 18 24 18q1 0 3 -1v-15q9 16 20 16l27 -20q0 15 -1 19q6 13 23 13q4 0 11.5 -1t11.5 -1zM89 211q-1 0 -1 -1q0 -4 1.5 -10.5t1.5 -10.5q0 -3 -2 -3l-15 7v-2q0 -5 7 -12.5t7 -13.5t-9 -9.5t-17 -6.5v-5v-3q9 1 28 4l1 -5
l-13 -22l3 -18q2 5 12 20q3 -1 7 -1q5 -18 9 -29q1 1 10 23q3 3 8 4q6 -9 20 -25l4 7l-15 25l3 7l9 -1q10 0 16 3q-20 14 -20 20l1 5q20 6 32 11q0 4 -5 8q-4 0 -15 -3t-17 -3q-11 0 -11 12q0 6 2 16.5t2 15.5q-6 -11 -16 -24v-1q-1 0 -1 -1q-5 0 -27 22zM280 341
q9 -25 16 -40q4 1 10 4v6q0 4 -4.5 12t-4.5 12q0 9 8 9q24 0 42 -9q1 1 11 4t9 5q-13 9 -40 23q19 -1 31 -1q6 0 9 1v1q1 1 3 2l2 -4v1q0 3 -3 20q-26 -2 -65 -7q3 13 13 29q6 10 6 7l-2 5h-8q-8 -10 -23 -27q-13 5 -19 33q-2 -14 -5 -27q-3 -16 -19 -16q-4 0 -11 1.5
t-10 1.5l-6 -1q2 -6 12 -9.5t19 -6.5q2 -21 2 -16q0 -1 -20 -17q2 -2 6 -10l18 14q4 -11 6 -34q5 14 17 34zM412 136v7q-3 2 -32 2q-6 7 -8 11q11 33 11 25q0 6 -5 8q-14 -14 -23 -20q-5 0 -7 11q-2 8 -3 16h-12q2 -15 1 -20v-5q-5 2 -26 21l-4 -4l9 -28l-8 -12h-17l-3 -13
q6 -1 12.5 -3t6.5 -8q0 1 -15 -24q1 -2 4 -5q3 1 13 5t11 4q7 0 7 -8q0 -5 -2 -15.5t-2 -15.5q2 -2 5 -3q2 2 9 19q5 14 9 14q7 0 18 -23h5v9q-1 24 7 31q6 -4 18 -11q5 5 7 10l-20 14q1 1 2 7q3 -1 6 -1q11 0 26 5zM336 264q-12 0 -41 -5l-6 -19l9 11q1 1 7 -2.5t7 -3.5
q16 0 16 -4q0 -3 -12 -27q7 -7 12 -7q8 15 12 29q4 1 7 1q18 -33 23 -33q1 0 4 2l-1 30q4 -5 49 -29l5 2v8q-10 13 -37 40q2 5 19.5 8t22.5 11l1 4q0 5 -32 5q-9 0 -9 4l2.5 3t2.5 8q0 26 -7 46q-3 -1 -20 -40q-16 -13 -11 -13q-4 0 -10 9.5t-7 10.5q-3 -2 -10 -5l6 -17
q-8 -3 -26 -8q16 -10 24 -19zM275 116q-2 4 -5 7q-3 -1 -13.5 -8t-11.5 -7q-10 0 -10 32q-1 1 -6 1q-3 0 -7 -10.5t-13 -11.5q-9 12 -20 21q-2 -2 -5 -4q5 -11 9 -23q0 -15 -28 -11q-2 -4 -2 -12q18 -8 18 -21q-9 -8 -26 -25q0 -6 7 -9q9 7 29 20q5 -4 4 -16q-1 -15 -1 -17
q3 2 21 19q3 -7 10 -22h6q5 5 5 9q0 1 -2 6t-2 6l2 4q23 -9 31 -9q4 1 5 2v7q-7 8 -18 24q0 1 17 6q0 8 1 11q-9 2 -17 3q0 3 -1 6zM381 600q-24 0 -34 2q21 24 21 25q0 6 -11 6q-8 -9 -23 -21l-6 4q0 13 -5 29q-3 -2 -15 -17.5t-20 -15.5l-27 19l-5 -6q7 -7 18 -23
q-3 -7 -32 -13q9 -2 28 -9v-6q-15 -13 -19 -26l24 6q5 -2 8 -6q-5 -11 -13 -35h11q5 10 16 30h6l29 -26q3 35 14 35q6 0 18 -14l8 6q-18 18 -18 28q0 8 27 28z" />
    <glyph glyph-name="six" unicode="6" horiz-adv-x="503" 
d="M437 202q0 -119 -48 -165.5t-169 -46.5q-79 0 -133 39q-61 44 -61 120v360q0 69 62 119q58 47 129 47q194 0 194 -163q0 -6 -8 -59h-120v8q1 23 -14 43.5t-38 20.5q-24 0 -39 -15t-15 -39v-136q32 60 105 60q155 0 155 -193zM282 224q0 17 -15.5 29.5t-33.5 12.5
q-46 0 -46 -58q0 -48 46 -48q21 0 35 21t14 43zM370 551q0 -6 15 31q-2 4 -4 7q-20 -7 -39 -22q-6 0 -10 -4q-4 0 -21 20q-7 0 -7 -7q0 -4 2.5 -12t2.5 -12q0 -14 -15.5 -18.5t-17.5 -11.5q15 -3 23 -6l8 -16l-17 -31q8 -3 11 -6q14 26 20 26q7 0 7 -14q0 -9 4 -16q4 2 8 2
q3 16 3 26l9 1q9 -10 28 -25q9 2 9 11q0 2 -9.5 13.5t-9.5 12.5q0 12 15 22.5t15 17.5q-10 1 -20 2.5t-10 8.5zM269 588q-2 0 -11 10q15 5 31 9.5t26 13.5l-29 7l-2 2q-12 -7 -32 -16l-9 1q11 18 11 34q-1 1 -4 7q-8 -7 -21 -36h-8l-12 29q-5 0 -12 -3v-5q0 4 11 -25
q-2 -7 -7 -10q-13 7 -34 12v-5q-1 -4 -1 -5q9 -6 28 -16q-5 -8 -27 -20v-3q0 -1 1 -3v-3q18 0 33 4q-2 -6 -10 -17v-17q15 3 22 16t11 13q8 0 10.5 -14t14.5 -22q1 4 1 36q0 12 17 13q-15 -1 24 -1v13q-3 3 -7 3q-3 0 -8 -1t-7 -1zM80 557l-5 -13q-7 -4 -21 -10v-7l2 -3
q11 1 21 -6t10 -17q0 -5 -2 -13t-2 -13q0 -8 5 -14q8 17 20 34q7 1 20 4q10 -7 29 -22v8q0 2 -6 12.5t-6 11.5q0 3 28 17v7q-28 9 -28 27q0 3 4.5 13.5t4.5 17.5q-7 -1 -17.5 -10.5t-12.5 -9.5q-7 0 -13 28h-11q0 2 1 -11q0 -9 -1 -13q-1 -7 -7 -7q-3 0 -20 27q-3 -3 -10 -7
v-4q0 -2 8 -13.5t9 -13.5zM362 220l5 1q9 -7 27 -19q4 4 4 8q-11 16 -11 24q0 -5 5 10q8 1 25 3v8q-22 2 -24 9q9 5 21 17q-1 5 -5 8l-21 -9q-7 1 -7 10q0 3 2 8.5t2 8.5v16q-4 -3 -13 -14.5t-14 -11.5q-1 1 -5 3q-2 11 -13 33l-5 -5q3 -15 3 -27q0 -14 -5 -12q-25 11 -28 9
v-5l-1 2q0 -2 7.5 -12t7.5 -12q0 -1 -1 -4v-4q-8 -2 -22 -2q2 -7 6 -16h5q18 1 18 -13q0 -4 -4 -14t-4 -16q3 0 27 20l4 -5q-3 -16 -3 -24q10 3 13 2q3 15 4 25zM213 308q-17 -16 -36 -30q16 2 33 6q15 9 14 9q5 0 5 -12q0 -2 -3 -10l8 -6q2 5 4 14l4 3q12 -14 18 -14
q2 0 3 7q1 8 -1 11l12 -12l7 8l-7 12q6 11 21 11v9q-6 -1 -8.5 1t-1.5 7q5 3 16 6q2 0 40 19q-7 2 -14 2q-8 0 -20 -3q-15 -2 -21 -3q0 2 25 18l-3 4q-1 0 -3.5 1.5t-4.5 1.5l-38 -20q-4 1 -8 5l12 23l-17 -3q-3 -7 -9 -20q-9 -3 -15 -3q-5 2 -12 10q-6 -7 -5 -11
q14 -11 11 -19l1 1l3 -2q0 1 1 0h-5q-5 -3 -18 -11q-20 -12 -28 -20q23 6 40 10zM143 379q1 2 7 23q7 3 22 9v3q0 1 -3 8l-22 -6q-5 5 -9 13q4 22 4 15v15h-5q-19 -22 -26 -22q-5 0 -10 9l-8 14h-8v-9q6 -14 6 -16q0 -7 -10 -7q-1 0 -34 12q8 -10 15 -19q11 -14 11 -20
q0 -13 -9 -17q-2 -2 -20 -7q3 -9 9 -9q4 0 12.5 3.5t12.5 3.5q8 0 10 -18v-23l20 26q3 1 9.5 3t9.5 2t12.5 -7.5t16.5 -7.5v7q0 1 -6 10t-7 12zM368 151q0 1 9.5 12.5t9.5 12.5q0 9 -8 11q-9 -8 -28 -24h-5l-4 1q0 10 -3 24q-2 2 -9 4q0 -13 -4 -28q-2 -3 -6 -3q-6 0 -20 24
q-4 -1 -9 -4l16 -30l-9 -17l-23 -5q2 -8 17 -12.5t15 -18.5q0 -4 -1.5 -12t-1.5 -12t7 -7q16 23 41 23q8 -8 26 -29q6 4 6 7q0 2 -8 16t-8 15q0 8 31 12q0 7 -15.5 17.5t-15.5 22.5zM149 281q8 6 21 24q-3 1 -5 4q-9 -3 -28 -7q-5 4 -16 11q-2 9 -11 35q-18 -39 -21 -39
q-2 0 -12.5 8t-13.5 8q-5 0 -13 -7q21 -20 21 -23q0 -12 -14 -22q-12 -6 -25 -13q6 -2 7 -5q36 -1 36 -6q-6 -9 -15 -25q4 -2 9 -4q6 0 12.5 8t10.5 8q8 0 13 -13q3 -9 6 -19l8 1q3 8 7 30q5 6 11 8q5 -5 18 -14q4 5 11 12l-20 17q3 21 3 23zM279 119q3 0 -23 -15
q-4 2 -11 6q0 10 -2 26h-9q-2 -8 -5.5 -15.5t-10.5 -7.5q-11 13 -20 20l-4 -1v-2q0 -6 9 -25q-12 -12 -30 -10v-13q19 -6 19 -21l-27 -27q5 -8 9 -7q24 20 27 20q4 0 5 -37q6 8 20 24q8 -14 11 -21h7q4 3 4 8q0 7 -4 20l1 1q13 -6 36 -12l3 2v6q-2 1 -13 12q-7 7 -6 16
q5 3 14 3q2 7 2 11q-18 3 -17 10q3 4 22 23q-4 6 -7 6zM80 166l-4 2q-7 5 -14 8q-5 0 -13 3l-3 -3v-5q10 -6 27 -19v-5q-10 -4 -29 -12q2 -4 2 -9q34 -2 34 -13q0 7 -14 -27q2 -4 7 -7h2q3 3 18 26q10 -4 10 -33q2 0 7 1h7q-4 12 -4 21q0 10 11 10q8 0 27 -19q5 5 5 8
q-13 19 -13 23q0 7 4 7t10 -2.5t9 -2.5q9 0 8 13q-26 9 -26 13q7 8 21 23h-14q-9 -1 -14 -1q-10 0 -10 9q0 -8 9 19q-2 4 -6 9h-4q-16 -26 -26 -26q-4 0 -26 23q0 -5 2 -16.5t2 -16.5z" />
    <glyph glyph-name="seven" unicode="7" horiz-adv-x="485" 
d="M59 1l153 492l-10 6l-188 1v164h432l-214 -663h-173zM385 563q-9 4 -23 16q8 10 23 31q-9 -2 -23 -2q-7 0 -14 4q5 9 16 26l-8 6q-7 -10 -23 -26q-7 2 -13.5 14.5t-13.5 13.5q0 -33 -20 -43q-13 -6 -53 -6q-8 5 -19 14q1 8 10 14t11 9q-2 0 -7 6.5t-9 6.5q-3 0 -13 -15.5
t-19 -15.5l-13 28l-11 -2v-8q0 -3 2 -7.5t2 -6.5q0 -3 -3 -6q0 -7 -14 -9q-10 0 -20 -1q9 -10 18 -19q10 -13 10 -23q0 -2 -8.5 -11t-8.5 -11q0 -4 3 -6l28 12l23 -9q5 -11 8 -22l13 3l-7 22q8 8 16 8q-3 0 29 -3l-21 30q0 6 12 10.5t20 4.5q24 0 24 -27q0 -4 -21 -19l8 -8
q7 4 21 14l6 -4q-3 -9 -3 -17q0 -7 3 -12q17 24 24 24q8 0 14 -21q7 0 13 2q-4 17 -9 24l16 13q2 -1 8.5 -4t8.5 -3q6 0 7 11zM137 534l-26 27v1q-1 11 23 15v11q-33 3 -33 28q0 3 1 10t1 10l-1 6q-16 -19 -26 -26q-6 0 -11 13t-14 13l-1 -12q0 -3 3.5 -8t4.5 -7
q-3 -5 -11 -8q-6 7 -20 16l-3 -12q1 -2 7.5 -10t6.5 -9q0 -20 -16 -22v-11l3 -3q2 0 6.5 1t6.5 1q22 0 20 -39q2 -3 8 -3q3 8 12 22q24 8 21 8q3 0 15 -11.5t14 -11.5q10 0 9 10v1zM311 373l-6 5q-5 -1 -17.5 -8t-17.5 -7q-8 0 -11 14q-2 10 -4 21q-7 -10 -14.5 -21
t-20.5 -11q3 0 -33 11l2 -9q15 -15 15 -23t-24 -8v-4q0 -7 3 -12q3 2 10 2q6 0 11 -2l1 -6q-9 -5 -26 -16l4 -11q5 1 17 8t17 7q12 0 24 -36q3 2 9 22q6 16 16 16q-10 0 34 -4l-2 11q-8 5 -17 15v6q-2 14 14 24t16 15v1zM349 471l-1 8q-17 -3 -20 -3q-8 0 -14 6q6 8 13 24
q-4 2 -7 1h-4q-11 -15 -17 -15q-3 0 -6 1q-3 10 -10 27q-1 -1 -8 -18q-6 -13 -11 -13q-3 0 -11.5 7t-11.5 7q-6 0 -8 -4q16 -23 16 -28q0 -9 -14 -15q-17 -6 -19 -11q12 -1 32 -8q-6 -6 -25 -18q1 -7 5 -13q23 17 30 17q4 0 7 -2v-9q-1 -12 2 -23q22 28 28 28t14.5 -11.5
t11.5 -11.5q6 0 10 4l-1 8q-6 7 -18 20l3 5q18 -6 30 -7q-1 5 0 14q-11 2 -22 10q2 7 10 12.5t16 10.5zM198 94q0 -1 16 26l-6 5q-5 -3 -23 -21l-6 3q0 2 -1 9v8l-11 -1q-3 -7 -11 -14q-9 9 -28 21q0 -7 2 -20t2 -20q-9 2 -22 11q-10 -6 -9 -12v-1l21 -12q-8 -6 -23 -18
q9 -1 20.5 -3.5t12.5 -7.5q-12 -13 -18 -33l8 1q9 10 23 21h1q9 1 16.5 -13.5t13.5 -16.5q4 19 4 20q4 11 13 13q8 -3 19 -11q10 6 9 12v1q-6 5 -19 15l3 7l21 6l3 -1q-31 6 -31 26zM264 229l-2 8q-18 -7 -23 -7q-6 0 -11 4l5 20q1 3 3 7v-1q-5 1 -11 -1q-8 -18 -16 -18
l-4 1q-4 8 -14 25q-2 -2 -5 -18.5t-8 -16.5t-13 5.5t-13 5.5q-4 0 -7 -6q9 -8 20 -21l1 -6q0 -7 -12 -15q-15 -8 -17 -14h7q8 1 27 -2q-5 -7 -22 -23q3 -6 7 -11q10 9 27 22q4 0 7 -2q2 -18 7 -30q9 15 21 32h3q5 0 15 -9t14 -9q6 0 9 6q-3 7 -24 24l3 5q15 -2 22 -1h8
q-1 5 -2 13q-11 0 -24 6q1 8 8 14.5t14 12.5z" />
    <glyph glyph-name="eight" unicode="8" horiz-adv-x="535" 
d="M472 225q0 -98 -58 -165q-61 -70 -158 -70q-94 0 -161 63.5t-67 157.5q0 70 46 122q-45 69 -45 124q0 91 64 154t156 63t155 -62.5t63 -154.5q0 -74 -41 -119q20 -15 34 -52q12 -33 12 -61zM424 539q-11 1 -23 3.5t-12 11.5q0 1 7.5 15.5t7.5 15.5q0 7 -6 7
q-17 -19 -26 -29q-19 0 -25 6l-18 17q-5 0 -5 -7q0 -4 1.5 -12t1.5 -12q0 -14 -16 -19t-16 -11l23 -6q3 -5 9 -16q-6 -8 -17 -31l10 -5q12 25 20 25q7 0 8 -11t2 -20q4 0 9 2q3 19 3 26q5 1 9 1q9 -9 28 -24q8 0 8 11q0 2 -9 13.5t-9 12.5q0 11 13 21q11 7 22 15zM321 621
q-4 3 -6 3q-3 0 -12.5 -8t-16.5 -8q-10 0 -10 6q0 1 6.5 12t7.5 13q-1 3 -4 5h-6q3 0 -19 -19q-10 0 -15 13.5t-9 15.5q-7 -4 -7 -17.5t-7 -15.5l-14 7q-7 4 -14 4l-2 -4q6 -7 18 -20q-2 -9 -11.5 -14t-18.5 -9q1 -6 26 -12q5 -7 7 -12q-1 -2 -8 -15.5t-7 -14.5q0 -5 9 -8
q13 20 21 29l4 -1q7 -19 10 -30q5 10 15 26l14 -12q4 1 7 2q-1 4 -9 22l2 2l36 -1q1 3 2 9q-15 7 -23 16q23 17 34 36zM427 375v9q-10 2 -20.5 4t-10.5 13q0 17 26 22q1 3 2 7q-2 3 -5 6l-35 -15q-6 0 -14 9q3 13 3 22q-10 1 -11 1l-6 -23q-22 -9 -24 -9q1 0 -25 8
q-1 -2 -5 -5q7 -7 20 -23q-2 -14 -2 -17q-5 -7 -18 -16q0 -4 4 -10h9q2 0 7.5 2.5t7.5 2.5q9 0 9 -10q0 -3 -2 -9.5t-2 -9.5q0 -6 4 -8h4q5 0 7.5 12.5t3.5 13t21 3.5q1 -1 14 -10q9 -7 13 -7h2l-14 28q5 9 11 9q3 0 9 -1t9 -1q4 0 8 2zM297 459q0 20 -14 33.5t-34 13.5
q-48 0 -48 -52q0 -21 17 -35.5t38 -14.5q4 0 16 7t16 11q9 12 9 37zM194 537v5q0 7 -7 7q8 0 -20 -5q-3 2 -3 7q0 -2 12 24q-1 4 -4 6q-2 -1 -14.5 -9.5t-13.5 -8.5q-11 0 -11 10q0 4 1.5 11t1.5 10q1 0 -12 1q-1 -17 -1 -18q-2 -12 -9 -14q-6 9 -19 26q-9 -4 -9 -8
q0 -1 7 -13.5t7 -13.5q0 -9 -33 -13l-2 -9q9 -3 28 -12v-4q-10 -7 -28 -22q2 -2 4 -5q11 0 31 12l2 -1v-4q0 -3 -2 -11t-2 -12v-4q28 21 26 21q12 0 17 -8t9 -17l4 -1q4 5 6 9q-9 28 -9 20q0 8 10 8h26q1 0 2 -1h-1q-7 8 -20 24q0 6 26 13zM436 270v14q1 0 -25 -1
q-16 -1 -16 21v14q0 8 -1 14q-6 -4 -10 -8q-2 -9 -4.5 -18.5t-10.5 -9.5q-4 0 -10 10q-8 14 -9 15h-6q-4 -5 -9 -13q10 -7 12 -18q-7 3 -31 5q-1 -3 -4 -9q12 -6 27 -21q-11 -5 -29 -16l3 -10q19 6 33 13q5 -5 7 -10q-1 -2 -7 -15q-4 -9 -4 -15q6 -3 10 -3h2q5 10 12 29h8
q11 -23 20 -31h5v12q0 6 -11 24l9 1q1 0 15.5 -8t17.5 -9q1 3 3 5q-11 11 -31 27q7 7 13 11q7 -2 15 -2q3 0 6 2zM308 342q0 7 -14 7q-2 0 -9 -2q-9 4 -12 15q1 2 8 11q4 6 4 12q-3 2 -10 5q-10 -12 -18 -18q-6 0 -18 26h-6q0 -30 -9 -29h-1q-4 5 -15 17q-7 -4 -7 -8
q0 -3 13 -19q0 -14 -13 -19q-4 -2 -25 -5v-6q43 -7 43 -24q0 -3 -5 -25q5 -3 9 -4q15 20 21 20q2 0 13 -17q5 3 8 4q-1 6 -4 17q3 2 6 2h-1q3 -1 8 -3l23 -6v7l-16 22q2 10 9 13l17 2q1 1 1 5zM190 420q0 3 -2 6q-27 -8 -28 -8q-4 0 -12 8l3 14q2 5 3 7q-3 5 -8 11
q-1 -6 -7.5 -17t-10.5 -11t-13 12.5t-13 13.5l-2 -3v-5v2l1 -2v-4l3 -20q-9 -11 -14 -18l-25 7l-5 -2q0 2 -1 -10q11 -4 30 -12l2 -6q-7 -9 -20 -29q6 -2 10 -2q9 4 21 9h-1l1 -1q4 -2 20 -7q7 -26 12 -26q1 0 5 2q0 41 24 41q-3 0 22 -6q3 7 5 12q-7 3 -22 8v13
q22 18 22 23zM441 136v9q-10 1 -34 2q-2 4 -6 11q4 8 11 25q-1 4 -4 7q-8 -7 -26 -20q-4 1 -6 1q0 9 -3 25q-9 0 -14 -1q0 -5 3 -21q-2 -3 -4 -4q-15 13 -26 20v-8q0 -4 3.5 -11t3.5 -11q0 -18 -22 -14q-6 -7 -6 -12q0 -3 2 -4q13 0 19 -1q-1 -4 1 -8q-1 -2 -8 -12.5
t-7 -11.5q0 -3 2 -4h5l21 9q7 0 7 -12q0 -10 -4 -26l5 -5q7 6 13 33q3 2 6 2q6 0 12 -11.5t10 -11.5q3 0 4 2v12q0 2 -2 8t-2 9q0 9 8 9q-1 0 21 -9q2 3 5 9q-9 6 -22 17q1 5 15 6q9 1 19 2zM304 224q0 18 -17 31.5t-35 13.5q-48 0 -48 -61q0 -11 14.5 -25.5t26.5 -14.5h7
q21 0 36.5 17.5t15.5 38.5zM193 256l-23 9q-2 8 -6 23l7 14q5 8 5 14l-4 2q-8 -6 -24 -16q-7 2 -20 5q-5 8 -19 25v-22q-2 -18 -10 -18q-4 0 -13 3.5t-13 3.5t-8 -8q10 -4 19 -8t9 -16q0 -9 -23 -35l3 -2q28 9 29 9q9 0 9 -7q0 -3 -3 -11t-3 -14h7q3 0 7.5 11.5t12.5 11.5
q6 0 26 -23l4 2v14q0 5 -4 15q4 9 10 14q6 -3 21 -7q1 4 4 11zM305 125q-3 3 -7 5q-8 -6 -24 -16l-10 8q0 9 -2 25h-9q-10 -23 -15 -23h-1q-16 20 -20 20q-3 0 -7 -4l12 -23q-13 -15 -31 -12v-12q20 -5 20 -22q0 -3 -12.5 -13t-14.5 -12q4 -9 8 -9q17 13 28 20q5 0 5 -19
q0 -9 1 -14q7 7 20 21l10 -21h7q4 3 4 8q0 3 -2 10t-2 10l2 1l32 -13q4 1 5 2v7q-9 9 -18 21v6q4 3 15 3q0 9 2 12q-19 3 -19 10q9 7 23 24zM193 146v7q-28 7 -28 16q0 -8 12 25l-2 5q-8 -7 -26 -20q-13 1 -21 4q-8 10 -21 21q-3 -3 -3 -8q0 -3 1.5 -9t1.5 -10
q0 -20 -33 -24v-9q10 -1 21 -9q2 -5 5 -14q-1 -2 -10 -15q-7 -9 -7 -16q6 -3 11 -5q11 17 19 25q6 0 8 -31h10q2 9 4.5 18.5t9.5 9.5q2 0 12 -9.5t16 -9.5h1v7q0 2 -4.5 12t-4.5 11q0 18 28 28zM147 505l-2 -2l-7 9l2 2z" />
    <glyph glyph-name="nine" unicode="9" horiz-adv-x="497" 
d="M436 156q0 -69 -62 -119q-58 -48 -128 -48q-205 0 -205 168q0 3 2 27q1 17 -1 28h127v-9q-1 -23 14 -43t38 -20q25 0 44.5 14.5t19.5 39.5v136q-32 -60 -105 -60q-96 0 -131 68q-23 46 -23 152q0 102 55 147q49 41 155 41q79 0 136 -40q64 -46 64 -122v-360zM275 457
q0 10 -14.5 29t-24.5 19h-7q-21 0 -35 -21.5t-14 -42.5q0 -18 15.5 -30t33.5 -12q46 0 46 58zM382 498l4 -2q7 -4 13 -6t14 -4l3 3v4q-10 7 -27 20v4q10 4 29 13q-2 3 -2 8q-34 2 -34 14q6 11 14 27q-2 3 -7 6h-2q-3 -3 -18 -25q-10 3 -10 32h-7q-4 -1 -7 -1q4 -12 4 -21
q0 -10 -13 -10q-9 6 -25 19q-5 -4 -5 -7q13 -19 13 -23q0 -8 -4 -8t-10 2.5t-9 2.5q-9 0 -8 -12q26 -9 26 -13l-21 -24q4 0 14 1h14q10 0 10 -8q0 7 -9 -19q2 -4 6 -10h4q16 26 26 26q4 0 26 -22q0 5 -2 16t-2 16zM288 577v12q-19 6 -20 22l28 26q-5 8 -9 8q-24 -20 -27 -20
q-5 0 -5 36q-7 -8 -21 -23q-7 13 -11 21h-6q-4 -3 -4 -8q0 -8 4 -20l-2 -2q-12 7 -35 13l-3 -2v-6q1 -2 12 -13q7 -6 7 -15q-5 -3 -14 -3q-2 -7 -2 -12q17 -2 17 -9q-4 -5 -23 -23q4 -6 8 -6q-3 0 23 15q4 -2 10 -7q0 -9 3 -25h8q3 7 6.5 15t9.5 8q12 -14 21 -20l3 1
q1 1 1 2q0 6 -9 24q11 12 30 11zM391 382l1 2l1 2v0q10 4 30 13v6q-1 4 -1 5h-3q-2 0 -27 -7q-5 8 -14 18q1 12 4 25v6h-4q-6 -7 -11 -14q-9 -11 -12 -11q-9 0 -18 28q-9 -7 -9 -10h5v-1h-4v0q1 -5 5 -20q-6 -7 -11 -9q-10 3 -28 8q-3 -3 -3 -5q0 -5 22 -23v-14
q-8 -2 -21 -7q0 -5 4 -12q22 5 23 5q13 0 19 -16q1 -2 6 -27h3q5 0 12 27q8 2 22 7q3 -1 19 -9q5 0 10 3q-6 11 -20 30zM153 569q0 1 -5 6t-5 16q0 27 -3 29q-1 -2 -3 -2q-1 0 -4.5 3t-5.5 3t-4 -1q1 -20 1 -33q0 -7 -1 -12q-21 7 -22 8q-6 3 -19 18q-4 -3 -6 -7
q8 -15 16 -31q0 -8 -31 -12q0 -7 15.5 -17.5t15.5 -22.5q0 -1 -9.5 -12.5t-9.5 -12.5q0 -9 8 -12q9 9 29 24h4l4 -1q1 -9 3 -24q5 -2 9 -3q1 12 5 28q1 2 6 2t19 -24q5 1 10 5l-16 30l8 17l24 5q-2 7 -17.5 11.5t-15.5 21.5zM319 286q-1 -3 -7 -23q-7 -3 -22 -10v-3
q0 -1 3 -7l22 6q5 -5 9 -14q0 -1 -2 -6.5t-2 -7.5v-16h5q19 22 26 22q5 0 10 -8q8 -14 8 -15h8v9q-6 15 -6 17q0 6 10 6q1 0 34 -11q-8 9 -15 19q-11 13 -11 20q0 12 9 17q2 1 20 6q-3 9 -9 9q-4 0 -12.5 -3.5t-12.5 -3.5q-8 0 -10 19v23l-20 -27q-3 0 -9.5 -2.5t-9.5 -2.5
t-12.5 7.5t-16.5 7.5v-6q0 -2 6 -11t7 -11zM249 357q17 16 36 30q-16 -3 -33 -7q-15 -8 -14 -8q-4 0 -4 12q0 1 2 10l-8 6q-2 -5 -4 -14l-4 -3q-12 14 -18 14q-2 0 -3 -8t1 -10q-4 3 -12 11l-7 -7l7 -12q-6 -11 -20 -11v-9q5 0 7.5 -2t2.5 -6q-6 -3 -17 -6q-2 0 -40 -20
q7 -1 14 -1q8 0 21.5 2.5t19.5 2.5q0 -2 -25 -17l2 -4l3 -1q3 -3 6 -3l38 21q4 -1 8 -5l-12 -24l17 3l9 21q9 3 15 3q5 -3 12 -10q6 7 6 11q-15 10 -12 18h-1l-3 2v0h5q4 2 17 10q20 13 28 21q-23 -7 -40 -10zM74 384q7 -1 7 -9q0 -3 -2 -8.5t-2 -8.5v-16q4 3 13 14t14 11
q1 0 5 -2q2 -12 13 -33l5 5q-3 14 -3 27t5 11q25 -10 28 -9v5l1 -1q0 2 -7.5 12t-7.5 12q0 1 1 4v4q8 1 22 1q-2 8 -6 16h-5q-18 -1 -18 14q0 4 4 13.5t4 16.5q-3 -1 -27 -20l-4 4q3 17 3 25q-10 -4 -13 -3q-3 -14 -4 -25l-5 -1q-9 8 -27 20q-4 -4 -4 -8q11 -17 11 -24
q0 5 -5 -11q-8 -1 -25 -2v-9q22 -1 24 -8q-9 -5 -21 -17q1 -5 5 -8q7 2 21 8zM382 107l5 14q8 4 21 9v8l-2 2q-11 0 -21 6.5t-10 17.5q0 4 2 12.5t2 12.5q0 8 -5 14q-8 -16 -20 -34q-7 0 -20 -4q-10 8 -29 23v-9q0 -1 6 -11.5t6 -11.5q0 -8 -9.5 -11.5t-18.5 -5.5v-7
q28 -9 28 -27q0 -4 -4.5 -14t-4.5 -17q7 1 17.5 10t12.5 9q7 0 13 -28h11q0 -1 -1 12q0 8 1 13.5t7 5.5q3 0 20 -26q3 3 10 6v5q0 1 -8 12.5t-9 13.5zM183 74q1 0 12 -11q-14 -9 -32 -26l5 -6q12 7 32 17l9 -1q-11 -18 -11 -34l4 -8q8 8 21 37h18l12 -29q5 0 12 3v5
q0 -5 -11 25q2 7 7 10q14 -7 34 -13v6q1 3 1 5q-9 5 -28 16q5 8 27 20v3q0 1 -1 3v3q-18 0 -33 -5q2 7 10 18v17q-15 -3 -22 -16t-11 -13q-16 0 -20 12q-5 17 -15 24q-1 -4 -1 -37q0 -11 -17 -12q15 1 -24 1v-13q3 -3 7 -3q3 0 8 1t7 1zM153 146l-8 16l17 31q-8 3 -11 6
q-14 -26 -20 -26q-7 0 -7 14q0 9 -4 16q-4 -2 -8 -2q-3 -16 -3 -26l-9 -1q-9 9 -28 25q-8 -3 -8 -11q0 -2 9.5 -13.5t9.5 -12.5q0 -12 -15 -22.5t-15 -18.5q9 0 19.5 -1.5t10.5 -8.5q0 6 -15 -31q1 -4 4 -8l27 30q22 0 42 -23q7 0 7 6q0 4 -2.5 12.5t-2.5 11.5
q0 14 15.5 18.5t17.5 12.5q-16 3 -23 6z" />
    <glyph glyph-name="colon" unicode=":" horiz-adv-x="270" 
d="M177 317h-168v163h168v-163zM157 409q-5 2 -8 5l-4 -2q-23 0 -23 13q0 4 7 12.5t7 10.5q0 3 -3 6q-9 -7 -26 -21l-6 4v14q-7 -5 -20 -16q-1 1 -15 10q-9 7 -15 7l-4 -1q12 -29 12 -33l-1 -4q-20 6 -23 6q-4 0 -6 -7l21 -14q-8 -6 -21 -21q28 0 32 -7l-10 -20
q-6 -11 -6 -8q0 -3 3 -5q9 9 27 25q11 0 18 -12q10 -15 14 -18q1 12 3 24.5t13 12.5q3 0 19 -9q2 3 8 11q-21 11 -21 15v2q10 6 28 20zM177 -3h-168v163h168v-163zM157 89q-5 2 -8 5l-4 -2q-23 0 -23 13q0 4 7 12.5t7 10.5q0 3 -3 6q-9 -7 -26 -21l-6 4v14q-7 -5 -20 -16
q-1 1 -15 10q-9 7 -15 7l-4 -1q12 -29 12 -33l-1 -4q-20 6 -23 6q-4 0 -6 -7l21 -14q-8 -6 -21 -21q28 0 32 -7l-10 -20q-6 -11 -6 -8q0 -3 3 -5q9 9 27 25q11 0 18 -12q10 -15 14 -18q1 12 3 24.5t13 12.5q3 0 19 -9q2 3 8 11q-21 11 -21 15v2q10 6 28 20z" />
    <glyph glyph-name="semicolon" unicode=";" horiz-adv-x="270" 
d="M177 -3l-113 -146h-52l66 146h-69v163h168v-163zM157 89q-5 2 -8 5l-4 -2q-23 0 -23 13q0 4 7 12.5t7 10.5q0 3 -3 6q-9 -7 -26 -21l-6 4v14q-7 -5 -20 -16q-1 1 -15 10q-9 7 -15 7l-4 -1q12 -29 12 -33l-1 -4q-20 6 -23 6q-4 0 -6 -7l21 -14q-8 -6 -21 -21q28 0 32 -7
l-10 -20q-6 -11 -6 -8q0 -3 3 -5q9 9 27 25q11 0 18 -12q10 -15 14 -18q1 12 3 24.5t13 12.5q3 0 19 -9q2 3 8 11q-21 11 -21 15v2q10 6 28 20zM177 317h-168v163h168v-163zM157 409q-5 2 -8 5l-4 -2q-23 0 -23 13q0 4 7 12.5t7 10.5q0 3 -3 6q-9 -7 -26 -21l-6 4v14
q-7 -5 -20 -16q-1 1 -15 10q-9 7 -15 7l-4 -1q12 -29 12 -33l-1 -4q-20 6 -23 6q-4 0 -6 -7l21 -14q-8 -6 -21 -21q28 0 32 -7l-10 -20q-6 -11 -6 -8q0 -3 3 -5q9 9 27 25q11 0 18 -12q10 -15 14 -18q1 12 3 24.5t13 12.5q3 0 19 -9q2 3 8 11q-21 11 -21 15v2q10 6 28 20z
" />
    <glyph glyph-name="less" unicode="&#x3c;" horiz-adv-x="450" 
d="M230 341l131 -129l-117 -117l-246 251l235 234l118 -119zM285 156q-16 32 -16 38q0 19 19 22.5t19 10.5q-18 5 -29 8q-9 10 -9 19q0 4 6 24l-12 6q-2 -7 -10 -20q-18 6 -28 30q-9 21 -17 21h-3q3 -18 12 -47q-12 -7 -16 -12q-14 5 -43 12q4 -4 32 -22q0 -8 2 -23
q-10 -6 -16 -12q3 -3 23 -3q7 0 14.5 -6t7.5 -14q0 -4 -8 -21l7 -7q10 5 16 29q18 -1 44 -36zM291 422q0 5 4 8l-29 16v4q0 6 3 11v-1v0q2 0 10 9.5t9 13.5q-23 -5 -26 -5q-24 0 -24 22q0 10 -8 18q-8 -21 -11 -25l-20 -14q-6 1 -22 9q-5 -5 -7 -10l21 -13q-2 -5 -5 -16
q-7 -6 -21 -20q9 1 19 1q8 0 13 -3t5 -9t-10 -22l8 -8q5 10 21 28l7 -4h-1q0 -2 16 -28q3 47 24 47q4 0 24 -9zM183 286l-1 7q-4 2 -8 2t-7 -3q5 -6 13 -6h2h1zM179 292l10 9q-17 12 -21.5 20t-4.5 27q26 6 39 12q-5 5 -14 5q-6 0 -29 -4l-2 7q5 9 15 26q-26 -13 -30 -13
q-10 0 -10 16q0 7 -1 12q-5 1 -8 1h-2q-2 -9 -4 -26l-15 -4q-6 5 -20 15l-6 -7q15 -18 15 -21q0 -7 -14 -13q-9 -4 -19 -8q9 -3 19.5 -7t12.5 -10q-9 -5 -24 -19l1 -5h1q5 0 14.5 6t14.5 6l5 -2l7 -46q2 -2 6 -2q12 36 40 36q12 0 24 -11z" />
    <glyph glyph-name="equal" unicode="=" horiz-adv-x="573" 
d="M5 232h481v-63h-481v63zM5 382h481v-63h-481v63z" />
    <glyph glyph-name="greater" unicode="&#x3e;" horiz-adv-x="449" 
d="M128 334l-130 129l116 117l247 -251l-235 -234l-118 118zM73 519q16 -32 16 -38q0 -19 -18.5 -22.5t-18.5 -10.5q9 -3 28 -8q10 -10 10 -19q0 -5 -7 -24l12 -6q3 7 11 20q18 -6 27 -29t18 -23l2 1q-3 18 -12 47q12 6 16 12q14 -6 43 -12q-4 4 -31 22q-1 8 -2 23
q10 6 16 12q-4 2 -23 2q-8 0 -15.5 6.5t-7.5 13.5q0 5 8 21l-7 8q-9 -6 -15 -29q-18 1 -44 36zM67 252q0 -4 -3 -7l28 -16v-5q1 -6 -3 -11l1 1v0q-3 0 -10.5 -9t-8.5 -13q23 5 25 5q25 0 25 -22q0 -10 8 -18q7 21 10 24q10 8 20 15q7 -1 22 -9q5 5 8 10l-21 13q2 5 4 15
q8 7 22 21q-10 -1 -20 -1q-8 0 -13 3t-5 9t10 22l-7 8q-6 -10 -22 -28l-6 3v1q0 2 -16 28q-3 -47 -24 -47q-3 0 -24 8zM175 389l1 -7q5 -2 8 -2q5 0 8 3q-6 6 -13 6h-3h-1zM179 383l-9 -9q17 -12 21 -20t4 -27q-25 -6 -38 -12q5 -5 14 -5q5 0 29 4l1 -7q-5 -9 -15 -26
q27 12 30 12q10 0 10 -15q0 -7 3 -10.5t7 -2.5h2q1 8 3 26l16 4q6 -6 19 -15l6 7q-14 18 -14 21q0 6 13 12q10 4 19 8q-9 3 -19 7t-12 10q8 6 23 19v5h-2q-5 1 -14.5 -5t-14.5 -6l-5 1l-6 46q-3 3 -7 3q-11 -36 -40 -36q-12 0 -24 11z" />
    <glyph glyph-name="question" unicode="?" horiz-adv-x="540" 
d="M281 445q0 20 -13 34t-33 14q-46 0 -53 -49h-169v27q0 81 70 142q67 59 148 59q91 0 157 -62.5t66 -152.5q0 -78 -50 -128q-14 -14 -91 -64q-46 -30 -40 -62h-130q0 102 36 145q14 18 66 43q36 17 36 54zM413 504v9q-26 10 -26 24q0 1 9 13t10 14l-9 9q-8 -8 -22 -24
q-8 0 -8 8q0 3 1 8.5t1 8.5q0 7 -6 7q-7 0 -8.5 -14t-10.5 -14q-2 0 -13 9.5t-14 10.5l-4 -3v-5q0 -2 5.5 -12t5.5 -11q0 -11 -12 -21q-6 -1 -18 -6v-8q27 -7 27 -17q0 1 -14 -27l4 -2q2 1 14 9.5t13 8.5q14 0 21 -3q3 -2 9 -9.5t9 -7.5q4 1 6 2q-1 8 -1 14q0 18 7 23
q4 3 24 6zM304 615q0 6 -5 8q-13 -10 -28 -19h-6q0 11 -1 33l-22 -19q-6 17 -12 22q-7 0 -7 -10q0 -2 2 -7t2 -8t-4 -6q-10 4 -31 14q-2 -1 -5 -4v-5q9 -10 17 -23v-4q-5 -4 -15 -3q-2 -8 -2 -13q6 -1 12 -1.5t7 -8.5q-16 -12 -24 -21q0 -4 6 -8q13 6 25 17q12 -4 12 -15
q0 7 -2 -17q2 -2 6 -2t8.5 10.5t14.5 10.5q9 -12 19 -20q3 2 5 4q-5 13 -8 21q-1 1 -2 3q0 11 30 11q1 4 2 11q-20 12 -20 23q0 4 13 13t13 13zM418 368q-9 4 -28 14q0 8 2 19q10 10 23 26h-8q-2 0 -13 -4.5t-12 -4.5q-8 0 -8 8q0 1 7 24h-12q-2 -7 -4.5 -13.5t-10.5 -6.5
q-9 0 -24 22h-7v-13q0 -3 1 -10t1 -10q0 -10 -8 -10q-3 0 -9 3t-9 3t-6 -2q1 -5 -1 -9q8 -3 23 -11q0 -4 2.5 -11t2.5 -10q0 -4 -11 -21l7 -7q7 4 19 14q21 0 36 -33l6 4v13q0 25 8 25q3 0 13 -4.5t17 -4.5q3 5 3 10zM173 533h-3q-2 -1 -3 -1q-12 0 -12 8q0 -1 15 26
q-1 3 -2 4h-5q-6 0 -21 -9q-7 0 -7 9q0 3 4 31q-3 3 -7 3l-8 -19q-7 -15 -9 -15q-4 0 -13 11t-10 12l-3 -1v-15q1 -10 1 -15q0 -9 -7 -9q-2 0 -8.5 5t-11.5 5q-2 -3 -5 -9q21 -12 21 -16q0 -2 -2 -5q-21 0 -29 -2l-2 2v-13q12 0 23 -1q15 -1 15 -12q0 -4 -4.5 -14t-4.5 -15
q0 -1 1 -3h6q7 6 20 20q10 0 10 -34l5 -3h5q2 3 2 24q0 9 4 11q7 -8 23 -21l4 2v8q0 -8 -10 23q3 10 13 13q4 -2 13 -1q3 7 3 12zM312 319v7q-23 0 -36 1q-5 6 -5 42q0 6 -4 6q-26 -34 -31 -34q-1 0 -8 6t-8 6q-5 0 -8 -6q5 -8 12 -21q-4 -2 -7 -2q-6 0 -16 2q-13 4 -17 4
q8 -10 23 -23v-12q-14 -11 -35 -26q5 -8 12 -12q9 9 28 25q5 -4 13 -12q-6 -13 -18 -42l11 -2q7 14 12 22q11 17 16 17q5 -10 16 -28h2l8 24q-4 6 -4 10t7 5q3 -3 8 -6l10 5q-5 4 -12 13q1 6 3 17q14 10 28 14zM277 -3h-135v163h135v-163zM257 89q-3 1 -8 5l-4 -2
q-23 0 -23 13q0 4 7 12.5t7 10.5q0 5 -3 6q-5 -3 -7.5 -11t-5.5 -10l-6 4v14q-3 -6 -10 -16q-4 2 -9.5 9.5t-10.5 7.5q-1 0 -4 -1q12 -29 12 -33l-1 -4q-20 6 -23 6q-4 0 -6 -7l21 -14q-8 -6 -21 -21q28 0 32 -7q-3 -7 -10 -19l-3 -5q-3 -6 -3 -4q0 -3 3 -5q9 9 27 25
q9 0 9 -6q0 -3 -1 -7.5t-1 -7.5q0 -6 5 -9q1 1 1 4q0 4 -3 13t-3 13q0 7 8 7q3 0 19 -9q2 3 8 11q-21 11 -21 15v2q10 6 28 20z" />
    <glyph glyph-name="at" unicode="@" horiz-adv-x="762" 
d="M699 379q0 -110 -56.5 -179.5t-138.5 -69.5q-92 0 -99 75q-54 -65 -129 -65q-42 0 -71 31q-32 34 -32 94q0 110 59 184q65 82 176 82q60 0 116 -30q-11 -36 -54 -232q-6 -26 -6 -43q0 -39 43 -39q47 0 82 56t35 136q0 102 -73 172q-76 71 -193 71q-122 0 -203 -93
q-77 -89 -77 -211q0 -112 77 -185.5t187 -73.5q65 0 124 19l16 -58q-61 -20 -140 -20q-143 0 -237 82q-102 88 -102 236q0 153 100.5 257t254.5 104q147 0 244 -82.5t97 -217.5zM438 469q-13 6 -36 6q-75 0 -118 -71q-36 -60 -36 -142q0 -60 46 -60q31 0 62 28q37 32 48 85z
" />
    <glyph glyph-name="A" unicode="A" 
 />
    <glyph glyph-name="B" unicode="B" 
 />
    <glyph glyph-name="C" unicode="C" 
 />
    <glyph glyph-name="D" unicode="D" 
 />
    <glyph glyph-name="E" unicode="E" 
 />
    <glyph glyph-name="F" unicode="F" 
 />
    <glyph glyph-name="G" unicode="G" 
 />
    <glyph glyph-name="H" unicode="H" 
 />
    <glyph glyph-name="I" unicode="I" 
 />
    <glyph glyph-name="J" unicode="J" 
 />
    <glyph glyph-name="K" unicode="K" 
 />
    <glyph glyph-name="L" unicode="L" 
 />
    <glyph glyph-name="M" unicode="M" 
 />
    <glyph glyph-name="N" unicode="N" 
 />
    <glyph glyph-name="O" unicode="O" 
 />
    <glyph glyph-name="P" unicode="P" 
 />
    <glyph glyph-name="Q" unicode="Q" 
 />
    <glyph glyph-name="R" unicode="R" 
 />
    <glyph glyph-name="S" unicode="S" 
 />
    <glyph glyph-name="T" unicode="T" 
 />
    <glyph glyph-name="U" unicode="U" 
 />
    <glyph glyph-name="V" unicode="V" 
 />
    <glyph glyph-name="W" unicode="W" 
 />
    <glyph glyph-name="X" unicode="X" 
 />
    <glyph glyph-name="Y" unicode="Y" 
 />
    <glyph glyph-name="Z" unicode="Z" 
 />
    <glyph glyph-name="bracketleft" unicode="[" horiz-adv-x="244" 
d="M157 664v-52h-84v-558h84v-52q-27 0 -76 -1h-74v662h73q50 1 77 1z" />
    <glyph glyph-name="backslash" unicode="\" horiz-adv-x="475" 
d="M314 179l-118 62l-118 -62l23 131l-95 92l131 20l59 119l59 -119l131 -20l-95 -92zM248 392l-5 8l-7 -2q-5 -6 -18 -15q-5 -3 -13 4q-3 16 -4 49l-8 2q-2 -1 -10 -18q-3 -6 -1 -19q2 -11 1 -12q-8 -4 -15 -4q-6 0 -11.5 2.5t-29.5 4.5l8 -14q3 -6 11 -14q4 -5 2 -8
q-2 -5 -23 -18q-7 -5 -10 -12q4 2 25 0q11 1 26 -2q-1 -10 -1 -23q1 -3 -5 -22q-4 -13 -2 -17q1 0 8 -2q4 3 10 14q9 23 19 23q8 0 17 -9q12 -14 19 -13q-8 29 -1 57q8 3 23 7q13 9 29 19q-9 1 -26 3q-13 -1 -26 0q-3 5 5 16q7 7 13 15z" />
    <glyph glyph-name="bracketright" unicode="]" horiz-adv-x="256" 
d="M7 1v52h83v558h-83v52h75q49 1 75 1v-662q-23 0 -73 -1h-77z" />
    <glyph glyph-name="asciicircum" unicode="^" horiz-adv-x="369" 
d="M260 741l-118 -42l-18 25l135 81h1v0l1 -1l134 -80l-18 -25z" />
    <glyph glyph-name="underscore" unicode="_" horiz-adv-x="370" 
d="M1 -88h396v-55h-396v55z" />
    <glyph glyph-name="grave" unicode="`" horiz-adv-x="330" 
d="M273 727l-170 101l-43 -63l190 -70z" />
    <glyph glyph-name="a" unicode="a" horiz-adv-x="563" 
d="M504 1h-165l-22 80l-128 -1l-20 -78h-166v9l169 651h166zM313 591l-33 11l24 26l-4 5l-29 -20l-32 32l1 -7l-17 -28l-20 12l-3 -6l13 -22v-3l-27 -14l21 -6l11 -13l-18 -20l2 -6h8l21 16l6 -6l2 -12h9l10 13l27 -20l-3 39l22 -6l6 2l-18 19zM369 472l-19 -2l-12 -3l5 39
l-29 -23l-11 40l-8 -21l-3 -14l-29 12v-9l12 -24l-26 -36l15 -2l25 6l-1 -21l-2 -28l2 -6l20 37l19 -28l11 37l20 -9l7 3l-19 19v5zM396 364l-6 6l-17 -9l-15 13l-2 24l-28 -28l-21 23l-8 -5l14 -25l-2 -22l-33 11l30 -38l-20 -22h10l19 11l17 -34l34 36l22 -9l6 3l-19 29
v13zM255 481v11l-29 -11l-6 34l-28 -25l-29 23l-1 -5l12 -25l-6 -7l-23 10l-5 -9l23 -14l-28 -28l19 1l16 -9l-19 -28l3 -6l30 26l17 -28l18 30l20 -18l9 5l-16 23l21 23v8l-19 4zM435 212l-43 16l20 47h-2l-30 -25l-27 23l-7 -45l-38 1l28 -26l-21 -21l6 -4l21 10l8 -10
l-14 -27l6 -3l33 37l27 -32v2l-3 25zM292 200l-38 156l-39 -156h77zM232 332l-21 6l-9 10l25 21l-5 6l-29 -14l-18 13l-6 24l-10 -23l-21 -14l-23 7l-3 -9l18 -29l-30 -38h11l25 11l14 -13l2 -21l36 30l30 -12l-16 30l4 7zM470 89v9h-33v12l14 23l-6 2l-23 -12l-8 6l3 16
l-3 20l-15 -37h-6l-22 16l3 -26l-8 -9l-22 7l-6 -8l20 -10l8 -18l-19 -26l25 7l6 -2l-9 -18v-15l28 28l19 -28l2 22l13 15l26 -12l6 4l-26 25zM313 138l-21 9l18 22l-21 -4l-11 5l10 18l-20 -12l-26 16v-12l-11 -18l-15 7l-6 -3l-1 -5l23 -14l-30 -18l5 -8l15 2l12 -12
l-4 -20l20 16h6l7 -12l5 17h9l19 -12l-11 29zM202 216l-3 11l-25 -2l-9 11l5 30l-39 -25l-26 25l2 -14l-13 -36l-21 -3v-9h23l4 -14l-7 -30l31 24l20 -42l-1 21l10 13l30 -13l-16 27l9 22zM169 81l-34 29l28 30l-6 4l-30 -23l-6 4l-3 28l-28 -30l-11 21h-8v-8l1 -3l8 -15
l-37 -16l15 -6l8 -11l-19 -28l29 4l8 -6l-14 -26l6 -3l22 25l25 -25l3 33z" />
    <glyph glyph-name="b" unicode="b" horiz-adv-x="535" 
d="M448 175q0 -107 -78 -151q-59 -33 -174 -33q-35 0 -97.5 3.5t-89.5 3.5v664h257q79 0 128 -51.5t49 -130.5q0 -95 -83 -146q88 -62 88 -159zM415 547q-10 1 -27 1q-8 5 -21 15l6 25l-8 3q-9 -25 -19 -25l-32 16l9 -20q0 -5 -11 -25q-15 -2 -23 -6l-1 -6q40 -11 40 -28
q0 -4 -2.5 -12t-2.5 -13h9q3 18 14 18q12 0 29 -23q-1 -4 -1 21q0 18 11 18q4 0 13.5 -3t14.5 -3q-2 5 -26 22v6q9 7 28 19zM302 571l-28 6v10q18 12 21 22q-4 0 -12.5 -2t-12.5 -2q-5 0 -9 6q4 9 13 27l-3 9l-27 -28q-7 8 -20 23q-2 -15 -3 -19q-3 -11 -12 -13
q-14 14 -19 14q-3 0 -8 -6q18 -21 18 -24q0 -9 -9 -15.5t-18 -11.5h32l-23 -27l3 -6h8q14 12 23 19q5 0 8 -2q0 -20 4 -31q16 30 26 30q2 0 8.5 -5.5t8.5 -5.5q6 0 8 3q-3 8 -14 19l4 6q10 -2 30 -5zM404 394l-18 10t-11 16q17 15 38 35l-6 6q-2 -1 -21 -10t-20 -9
q-12 0 -21 30q-1 -3 -9 -29q-4 -12 -9 -14q-3 -1 -15 2q-16 3 -26 3q15 -15 23 -26q0 -6 -11 -11t-12 -10q4 0 12.5 1t12.5 1q14 0 15 -2q-9 -10 -24 -27q2 -3 4 -8q26 17 28 17h15q6 -9 17 -22q-1 6 -1 12q0 37 39 35zM157 583q-3 3 -18 5q-10 1 -10 12q0 1 11 28
q-11 -5 -32 -12v35q-5 -2 -8 -16t-12 -14q-8 0 -25 19l-3 -11q6 -8 6 -17q0 -15 -16 -23q-19 -10 -20 -14q3 1 6 1q33 0 33 -18q0 -2 -8 -16t-8 -16q0 -4 3 -6q8 12 26 33l5 -4q3 -9 7 -26q10 30 19 30q2 0 10.5 -6t11.5 -6q4 0 5 3q-5 7 -16 21q4 6 15 13h2q6 -1 16 5z
M277 448q0 21 -13 35t-32 14h-54v-99l55 1q18 0 31 17.5t13 31.5zM408 257l-6 -1q-8 0 -22 5q-2 3 -2 8q0 3 9 29q-20 -9 -32 -13l-2 1v23q0 4 -1 8q-7 -6 -8 -16q-2 -13 -4 -16h-9q-8 5 -23 16q-2 -2 -4 -6q10 -18 10 -25q0 -13 -35 -35q44 -3 44 -21q0 -4 -6 -14t-6 -11
q0 -6 5 -6q7 10 22 28q5 -2 11 -23h8q0 30 13 30q6 0 19 -14q2 5 5 8l-16 16q2 7 9 17q21 5 21 11v1zM295 316q-8 4 -21 16q13 9 19 19v0l-1 -1h-4h-15q-8 0 -12 7q4 7 9 20h-5q-4 0 -11 -4.5t-8 -4.5q-15 0 -18 13h-14q1 -1 1 -4q0 -18 -15 -18h1q0 1 -1 1q-4 2 -22 8
q-2 -4 -5 -8q9 -10 21 -17v-6q-17 -8 -26 -17q35 -4 35 -15q0 -1 -7 -11.5t-7 -12.5q0 -5 2 -5q1 0 12 10t13 10q5 0 8 -2v-14h13q0 10 2 14h6q9 -6 26 -18v2q0 9 -8 33l4 4q8 -2 23 -7zM154 472v9q-4 0 -11 -1t-11 -1q-9 0 -11 14v-1l1 1v4v17l-1 6q-17 -20 -26 -20
q-8 0 -13 11.5t-13 15.5v-10q0 -2 3.5 -9t3.5 -11q0 -7 -11 -7q-8 0 -26 7q3 -6 14 -16q5 -5 5 -26q0 -5 -26 -14v-8q5 0 15 3t15 3q7 0 10 -17q2 -12 3 -24q18 30 37 30q1 0 9.5 -7t16.5 -7q-3 9 -11 27q2 19 9.5 23t17.5 8zM406 134q-34 0 -43 18q2 11 2 19q0 5 -1 10
q-25 -28 -43 -28q-2 0 -20 16l-6 -5q14 -24 14 -20q0 -10 -35 -24q11 -3 22.5 -7.5t12.5 -13.5q-12 -11 -12 -16q0 -4 6 -8l16 13q10 0 17 -37q7 19 11 25q8 13 21 17q11 -13 23 -18l3 5q-18 30 -18 27q0 7 15 13.5t15 13.5zM274 215q0 14 -12 31.5t-26 17.5h-61v-97h59
q17 0 28.5 15t11.5 33zM154 318q-9 6 -25 19q0 2 -2.5 9t-2.5 10q0 8 25 24v8l-8 3q-23 -23 -27 -23q-11 0 -21 32q-4 -7 -11 -26l-20 -13q-5 0 -14 2.5t-14 2.5q4 -5 21 -23v-8q-8 -4 -25 -9v-8l5 -1q3 0 9.5 1t9.5 1q5 0 8 -5q-7 -10 -21 -28l11 -4q18 19 24 19
q18 0 26 -28l5 1q3 33 11 36zM288 77q-37 12 -37 29q0 -4 23 32q-3 3 -8 3q-25 -25 -29 -25l-2 2q-1 9 -5 28q-5 -10 -10 -19.5t-16 -10.5q-5 7 -16 21l-6 -6q12 -20 12 -21q0 -12 -33 -19q7 -3 15 -6.5t8 -11.5q0 -4 -18 -28h10h-1q1 1 4 2q7 1 20 4l4 -5q-9 -20 -9 -29h8
q5 9 14 28h6q8 -9 24 -23q0 3 -1 11t-1 12q0 17 14.5 22.5t29.5 9.5zM156 201q-10 2 -30 9v6q10 9 21 27q-10 -2 -28 -7q-5 5 -6 8q0 3 5.5 14t5.5 19q-5 1 -8 3q-18 -32 -21 -32q-5 3 -23 23q0 -32 -11 -32q-4 0 -11.5 5.5t-9.5 5.5q-6 0 -8 -3q12 -16 21 -21v-14
q-9 -7 -28 -21q22 0 35 -1l-21 -24v-8l8 -3q14 14 24 21q4 0 7 -2q0 -9 5 -30q4 2 9 18q5 13 17 16q24 -20 26 -20q9 0 8 9v2l-21 20q1 3 4 6q3 0 10 -2t11 -2q10 0 9 10zM150 94q-3 4 -21 5q-14 1 -14 12q0 4 7 13.5t7 11.5q0 4 -3 5q-8 -8 -26 -20q-3 1 -6 4v12h-8
q-4 -7 -13 -14q-8 6 -29 18v-10q0 -4 4.5 -12.5t4.5 -12.5t-2 -4q-21 5 -22 7h1q-5 -3 -10 -8q8 -4 23 -14q-8 -6 -20 -21h-1l2 1h2h16q9 0 13 -7q-10 -13 -18 -31h8q7 8 22 22q10 0 17.5 -10.5t13.5 -19.5q1 11 3 22q3 15 13 15q2 0 10 -4l10 -5q3 2 6 6q-7 7 -18 23
q10 4 28 16z" />
    <glyph glyph-name="c" unicode="c" horiz-adv-x="529" 
d="M439 412h-169v37q-1 16 -1 13q1 21 -12.5 35t-31.5 14q-31 0 -45.5 -18.5t-12.5 -39.5l-1 -242q-1 -34 18 -49q14 -12 34 -11q47 2 49 43q0 -17 0 53h170q1 -12 1 -23q0 -100 -59 -167q-61 -70 -160 -70q-74 0 -128 41.5t-78 113.5q-8 24 -8 38v286q0 13 6 37
q19 77 77 124.5t137 47.5q66 0 121 -40q35 -25 62 -68q31 -48 31 -87v-68zM351 551q-1 5 -13 11.5t-12 11.5q8 7 23 22q-33 4 -33 13q14 14 14 19q0 3 -5 8q-3 -1 -11.5 -10t-13.5 -9q-10 0 -18 12.5t-11 15.5q0 -23 -2 -32q-9 7 -28 21l-5 -6q1 -3 10.5 -14t9.5 -14
q0 -7 -32 -10q2 -6 17 -11.5t15 -15.5q0 -3 -10 -12.5t-10 -12.5t5 -8q3 1 13 10.5t13 9.5q6 0 3 -1v-12q-1 -7 -1 -11q0 -6 1 -10h9l7 28h8q21 -18 23 -19q3 0 4 1q-7 21 -7 23q0 6 6 8q27 -9 24 -9q4 0 7 3zM397 515q-2 2 -6 3q-30 -23 -28 -23q-13 0 -19 28
q-4 -1 -11 -19t-18 -18q-13 0 -28 4q-2 -2 -3 -8q23 -17 23 -22t-9.5 -9.5t-13.5 -4.5v-11q30 5 24 5q7 0 21 -14q13 14 19 14q3 0 7.5 -6t8.5 -6q8 0 8 7q1 11 2 12q2 0 16.5 -3.5t20.5 -3.5q5 0 6 2q-4 5 -24 23q-17 15 -17 18q0 4 21 32zM212 547q-8 6 -25 19v6l2 2l1 -1
q6 0 11 6q-7 4 -19 12q2 7 14 30q-2 2 -5 3q-10 -5 -30 -16l-4 4q0 4 1 12t1 12l-8 2q-2 -3 -9 -25q-8 7 -24 16v-10q0 -4 3.5 -9t3.5 -7q0 -4 -8 -6q-14 9 -25 9q-4 0 -7 -5q26 -16 26 -24q0 -7 -9.5 -16t-11.5 -15q10 2 22 2q8 0 17 -8q-2 -8 -4 -24l11 -2q1 2 4 14
q3 8 11 9q16 -23 22 -23q0 22 -2 28q7 8 10 8q-8 0 29 -9zM418 204v9h-21q-14 0 -14 12q0 2 1.5 5.5t1.5 4.5t-1 2l-8 2q-19 -19 -25 -19q-4 0 -21 9q-3 -10 -3 -15q0 -3 12 -13q-16 0 -30 12h-14l-3 -9q8 -3 23 -11q-7 -6 -18 -21q4 0 12 1t12 1q3 0 8 -6q-4 -6 -13 -18v-8
q39 23 36 23q7 0 12.5 -15.5t10.5 -17.5q0 7 1 23.5t12 16.5q4 0 16 -7l6 5q-1 2 -16 17v6q14 9 23 11zM144 459v11l-15 -1l-12 13l5 15l6 14l-31 -11l-3 1l4 26l-8 3l-11 -30l-16 9l-17 7l9 -28l-14 -18l-21 -13l26 -6l13 -18l-8 -15l-7 -28l30 36l12 -36l6 24l14 19
l19 -16l6 3l-16 21zM152 329l-3 11l-19 -4l-11 16l1 24l-2 11l-11 -13l-14 -7l-14 12l-12 13v-3l2 -12l3 -14l-10 -8h-33l22 -18l4 -29l-4 -2l-21 -7v-8l7 -2l12 4l12 4l9 -18l2 -24l5 1l34 32l22 -14l5 3l-14 26l2 8l4 7zM346 99q-2 1 -21 1q-9 0 -13 10q6 11 9 17l-8 8
q-13 -19 -16 -19q-12 0 -20 9q-14 15 -16 16v-14q0 -3 2 -8t2 -7t-1 -3q-10 7 -30 19q-3 -6 -5 -8q8 -9 25 -25l-2 -7q-11 -1 -30 -7q2 -3 20 -10q14 -5 14 -14q0 -3 -8 -12.5t-8 -12.5q0 -6 3 -8q9 9 28 23l4 -4v-10q-1 -6 -1 -10q0 -6 1 -11h11v30h13l16 -16h10q0 3 -5 12
t-5 14q0 6 10 6q5 0 16 -4v11l-15 9v6q8 6 20 19zM155 177q-30 19 -30 37q0 10 23 33q-2 1 -4 1q-7 0 -19 -10.5t-14 -10.5q-10 0 -20 35q-3 -9 -10.5 -26.5t-27.5 -17.5q3 0 -7 2.5t-13 2.5q0 -1 10 -12.5t10 -14.5q0 -9 -8 -11l-15 -2v-11q27 4 25 4q6 0 8 -7
q-8 -9 -21 -26l5 -6q3 1 15 11t14 10q21 0 26 -25q9 0 9 27q5 6 15 13q10 1 29 4zM213 115q0 6 -3 6q-5 0 -15.5 -4t-15.5 -4l-6 2q4 8 9 23q-2 3 -10 6q-4 -8 -14 -21q-6 9 -19 21v-30h-8q-8 6 -24 14q-1 -3 -1 -5q0 -4 7 -11.5t7 -11.5q0 -12 -11 -16q-14 -5 -19 -13
q37 -7 37 -17q0 -3 -4.5 -8t-4.5 -7q0 -3 5 -8q3 1 10 7.5t10 6.5q6 0 7 -2v-3q0 -21 14 -21q3 32 16 32q3 0 12 -6q10 -9 12 -10q3 5 3 9q-1 0 -9.5 9t-8.5 11q1 3 4 6h15v11q-12 2 -16 11q20 23 21 23z" />
    <glyph glyph-name="d" unicode="d" horiz-adv-x="526" 
d="M240 1h-236v662h206q224 0 224 -250v-136q0 -108 -41 -182q-51 -94 -153 -94zM325 588l-6 8l-39 -9q-4 4 -4 9q0 2 11 30q-23 -18 -28 -18q-18 0 -22 7q-4 4 -5 23h-9v-33q-4 -4 -7 -6q-3 0 -10 1t-11 1q-6 0 -11 -2q14 -12 22 -18q0 -8 3 -23q-11 -7 -18 -20
q5 0 14.5 2.5t14.5 2.5q9 0 23 -11q2 -11 6 -21h8l1 5q0 3 -1.5 8.5t-1.5 8.5q0 8 15 8q-10 0 29 -5q-11 18 -18 28q0 7 20.5 14t23.5 10zM405 481v9l-24 -2l-8 6l21 25l-6 6q-14 -12 -28 -21l-17 7q3 20 -11 41q-7 -48 -24 -61l-25 -4q18 -12 30 -40l-25 -33l10 -2l28 23
q18 -8 23 -30l6 26l23 13l25 -3l-21 20v11zM156 594q-25 0 -25 8q0 2 5.5 13t5.5 20q-10 -4 -29 -11q-3 1 -6 4v-2q1 2 1 8q0 7 -4 15q-5 -13 -12 -23q-10 7 -30 19v-10q0 -3 2.5 -10.5t2.5 -10.5q0 -11 -16 -19q-20 -9 -22 -12q24 -3 27 -4q15 -5 15 -19q0 1 -19 -35l6 -3
q8 12 25 33q6 -6 8.5 -17.5t4.5 -15.5q11 33 18 33q5 0 20 -16q5 2 8 5q-5 8 -16 23q2 6 9 15q21 0 21 12zM408 349v9l-3 3q-13 -6 -27 -10q-6 15 -12 40l-20 -25l-17 -3q-14 6 -27 14q6 -15 11 -30l-9 -23l-18 -5v-11l6 -1q7 2 17 5l10 -18q-3 -22 -3 -26q11 15 28 21
l11 -6l5 -14h14l-10 26l9 6q14 -5 30 -9l-17 18l-4 27zM156 474q0 7 -3 13l-21 -6q-10 5 -10 14q0 4 1.5 10.5t1.5 10.5q0 5 -2 9q-18 -21 -26 -21q-9 0 -12 8.5t-6 16.5h-8q0 -1 -1 -4q0 -4 3 -10.5t3 -10.5q0 -5 -7 -12q-10 4 -31 8q21 -24 21 -34q0 -11 -9 -15t-19 -8
l3 -8h12q2 0 8 3.5t8 3.5q9 0 9 -24q0 -12 5 -18q15 30 35 30q5 0 18 -14h11l-12 28q1 -3 5 21q9 6 23 9zM233 494h-58v-327h53q42 0 41 90v164q0 73 -36 73zM407 176v11l-17 2l-10 11l14 29h-9l-21 -12l-7 4q3 28 3 31q-9 -16 -20 -32l-29 21v-11l6 -23q-18 -24 -38 -30
l28 -4l13 -19l-19 -32l6 -6l26 32l3 -2l11 -28q1 24 18 33q8 -10 20 -17l7 4q-8 11 -14 23l9 15h20zM156 320q-30 24 -30 40q0 2 19 33q-11 -7 -32 -21q-8 0 -21 33q-15 -40 -31 -40q-5 0 -13.5 2t-13.5 2q23 -25 23 -26q0 -6 -25 -15v-9q3 0 9.5 1t10.5 1q8 0 12 -7
q-9 -8 -21 -24l6 -6q9 7 26 21h-2q2 -1 5 -2l14 -3q4 -10 17 -25q0 30 8 36q5 5 39 9zM313 93v9q-4 -1 -19 -1q-9 0 -9 11q0 1 12 29h-9q-17 -11 -24 -11l-2 1q1 13 1 14l-1 7l-6 3q-7 -23 -12 -23q-1 0 -30 18v-8q3 -5 3 -12l-1 -7l-20 4q-7 -6 -5 -12q-17 -13 -17 -27
q0 -4 3 -7h-1h1l3 1h12h22l-1 -5q4 -3 12 -11q0 -6 -5 -18.5t-5 -19.5q15 20 25 30q3 0 14 -28q3 11 6.5 22t14.5 13q5 -7 19 -18l5 5q-5 8 -16 22q0 9 10.5 14.5t19.5 4.5zM156 197v8q-9 1 -19 2t-11 11q10 9 23 27h-5q-4 0 -11 -2t-10 -2q-9 0 -11 5q3 7 9 19l-3 17
q-6 -11 -21 -32q-5 2 -21 25q-5 -12 -6 -28q-4 -6 -8 -6q-8 5 -20 13l-8 -5q20 -20 20 -23q0 -11 -10 -19q-16 -13 -17 -15q24 0 32 -1q-16 -22 -16 -25q0 -5 3 -9q8 9 26 24l3 -2l9 -33q3 2 10 20q6 15 16 15q10 -7 24 -21l8 8q-7 8 -21 25l4 4h31zM209 69q-1 1 -3 1
q-5 0 -18 -10q2 -6 4 -9l2 5l6 -5q1 1 9 18zM163 104q-49 0 -49 11q3 7 13 26q-9 -5 -25 -18l-9 4v14q-11 -11 -17 -16q-8 0 -24 18h-5q-4 0 -4 -4t4.5 -15.5t4.5 -17.5l-2 -2q-7 2 -21 2v-8q6 -2 14 -9q-7 -5 -19 -19q5 -2 10 -2q2 0 6 1t6 1q4 0 8 -6q-7 -10 -20 -31
q3 -2 10 -3q7 9 24 24q10 0 29 -31q2 3 5 22q2 15 14 15q4 0 12 -3.5t12 -3.5q-6 9 -19 25q22 22 32 22l4 -3q3 2 6 7z" />
    <glyph glyph-name="e" unicode="e" horiz-adv-x="438" 
d="M349 0h-347v662h346v-164h-179v-99h132v-134h-132v-101h180v-164zM322 599q-30 0 -35 5q7 8 21 23q-2 5 -5 8q-29 -21 -27 -21q-4 0 -8 2q0 13 -5 28q-3 -2 -9.5 -15t-15.5 -17l-26 20l-6 -5q5 -10 21 -26l-6 -6q-5 1 -23 1h-6q-4 -1 -6 -1l2 -9q18 -3 32 0v-12
q-24 -21 -42 -43q1 0 14.5 3t15.5 3t8.5 8.5t9.5 8.5q4 0 8 -4q-5 -14 -14 -35h11q13 27 20 27q6 0 13 -10.5t9 -12.5q4 35 13 35q7 -4 19 -14q4 0 8 2q-4 13 -19 22v14q9 7 28 21zM171 565q-10 3 -20 6.5t-12 12.5q21 10 28 20l-33 -2q-3 4 -11 13q4 8 14 24h-4
q-6 0 -14 -10t-13 -10q-13 0 -31 30q0 -37 -16 -37q-3 0 -19 9q1 -5 0 -13q9 -6 13 -14q-3 -7 -14.5 -11t-13.5 -10q4 -1 26 -4q9 -7 9 -11q-6 -10 -16 -24l6 -6q7 8 25 21q7 -7 8 -16q9 14 16 14q3 0 14 -9.5t13 -9.5q4 0 4 4q0 2 -1 7t-1 7q0 12 19 12q3 0 9.5 -2t9.5 -2
q5 0 5 11zM292 327q-14 4 -30 17q2 9 18 22v9l-27 -8q-4 -1 -3 -1q-4 0 -27 23q-2 -6 -12.5 -16t-15.5 -10q-3 0 -17 7t-18 8v-1q0 -6 14 -14.5t16 -13.5q-7 -5 -25 -9v-9q21 -3 30 -15q-17 -16 -17 -19t3 -5q2 1 11 7t11 6q21 0 17 -27h11q0 25 12 25q-3 0 30 -11
q-9 19 -13 29q1 3 3 5q2 0 8.5 -1t9.5 -1q5 0 11 3zM148 479h1q0 -1 -1 -1h-3h-17q-10 0 -15 5q7 8 21 23q0 6 -11 6q-7 -9 -22 -21q-4 3 -10 32q-4 -2 -11 -17t-15 -15l-27 21q-3 -3 -8 -11q8 -6 23 -20q-4 -2 -13 -5h2h-1l-5 1l-17 2l-3 -11q11 -2 30 -9v-8
q-21 -14 -21 -21q0 -5 3 -6q15 6 26 9q6 -5 6 -8t-5.5 -14t-5.5 -19l8 -3q6 12 21 32q8 -6 20 -25q2 11 3 21q3 14 11 14l21 -14l8 8q-21 17 -21 24q0 8 28 30zM143 349q-30 0 -18 -1q-10 1 -14 9q9 8 21 24l-6 6q-24 -21 -28 -21q-12 0 -19 10t-13 20q-6 -36 -10 -38
q-19 -2 -37 -4v-1q0 -6 22 -19q5 -16 5 -22v-3q-25 -18 -25 -26l8 -8l30 23q9 0 13.5 -11t7.5 -21q16 39 31 39q8 0 28 -5q-2 3 -21 23v9q11 3 25 17zM141 230q-2 3 -3 8l-21 -5q-5 -2 -7 -4q-7 0 -9 18q-2 12 -3 24q-14 -21 -14 -22q-9 -9 -24 -9q-4 0 -22 17l-6 -3l12 -27
q0 -5 -6 -22q-7 -5 -22 -9q0 -5 3 -13q8 2 23 7q3 -6 9 -14q0 -5 -2 -15t-2 -15q7 6 14.5 13t13.5 7q8 0 13 -11q7 -14 10 -17l6 3q-1 3 -4.5 11.5t-3.5 13.5q0 7 7 12l31 -9q-7 17 -21 24v20zM173 94q-17 -2 -47 -2q-1 0 -19 18l13 35h-8l-21 -30l-8 2q-2 10 -8 28
q-7 -32 -17 -32q-3 0 -11.5 7.5t-11.5 8.5l-5 -6q6 -6 16 -21q-4 -13 -11 -15h-21v-11q27 -3 27 -13q0 -3 -5 -15t-6 -16q20 11 32 11q1 0 3 -1q-5 -20 -5 -27v-1l6 -3q5 14 13 30q8 0 20.5 -13t24.5 -12h1v8q-7 8 -7 17q0 7 5 18.5t6 15.5q12 3 25 7q17 6 19 12zM323 91v8
q-28 0 -28 11q0 3 4 9.5t5 9.5q-3 6 -8 11l-21 -24q-21 0 -43 28q0 -11 -3 -35q-8 8 -28 21q-3 -5 -5 -10q10 -9 23 -26q-6 -7 -27 -16q-14 -5 -28 -11q2 -4 13 -4q5 0 15.5 1t15.5 1q13 0 13 -6q0 -5 -19 -28q3 -3 11 -8q7 8 21 23l5 -6q-1 -9 -1 -14q0 -6 2 -15h9
q9 30 22 30h1q9 -9 27 -21v3q0 5 -3.5 13.5t-3.5 12.5q0 3 4 6q8 -1 24 -4v11q-7 4 -16 15q7 4 19 14z" />
    <glyph glyph-name="f" unicode="f" horiz-adv-x="434" 
d="M357 499h-186v-100h129v-134h-129v-265h-168v663h354v-164zM322 600q-25 0 -35 2q21 24 21 25q0 6 -11 6q-8 -9 -23 -21l-6 4q0 13 -5 29q-3 -2 -10 -17.5t-15 -15.5q-1 0 -27 19l-5 -6q7 -7 18 -23q-3 -7 -32 -13q9 -2 28 -9v-6q-15 -13 -19 -26l24 6q5 -2 9 -6
q-6 -11 -14 -35h11q5 10 16 30h6q5 -9 19 -26q3 35 14 35q6 0 18 -14l8 6q-18 21 -18 28q0 9 28 28zM173 557q-1 4 -5 11q-4 -2 -8 -2q-6 0 -19 17q17 9 28 19q-2 1 -20 1q-24 0 -24 12q0 4 13 24l-6 3l-25 -25q-7 3 -17 11q-2 8 -16 19v-9q0 -28 -13 -28q-3 0 -9.5 4.5
t-9.5 4.5q-4 0 -8 -2v-9q8 -5 19 -17q-10 -5 -28 -17q3 -3 19 -4.5t16 -11.5q0 1 -14 -26q4 -2 8 -3q19 18 24 18q1 0 3 -1v-15q10 16 20 16l28 -20v4q0 11 -2 15q6 13 23 13q4 0 11.5 -1t11.5 -1zM291 325v6q-9 2 -17 4q-12 3 -13 9q7 9 21 26q-4 2 -9 2q-4 0 -11 -3
t-11 -3q-18 0 -25 24q-14 -17 -29 -28q-26 16 -35 16q1 -8 28 -27l-3 -8q-8 0 -21 -8q3 -2 17 -7q9 -2 13 -14q-6 -5 -18 -18l6 -6q7 5 21 16q16 -8 15 -30h11v8q-1 6 -1 8q0 9 12 9q-1 0 31 -11q-6 11 -12 33l2 2q16 -4 22 -4zM150 477q-31 0 -35 2q7 9 21 28l-6 6
q-24 -21 -28 -21q-5 0 -11 32q-5 -2 -10 -17t-16 -15q-2 0 -13 8.5t-12 9.5q-5 -2 -8 -5q7 -9 21 -26l-4 -4h-31v-13q5 1 10 1q3 0 9 -1h9q0 -5 2 -9q-15 -15 -23 -25q4 -2 7 -2q4 0 11 2.5t11 2.5l8 -6q-6 -11 -14 -35h11q5 10 16 30h8q5 -9 18 -23q0 31 13 34
q14 -14 19 -14t10 6q-7 6 -14 13.5t-7 14.5q0 8 11 15q8 6 17 11zM145 350q-9 -1 -28 -2l-4 6q4 9 21 25l-8 8l-28 -21q-15 0 -21.5 14t-11.5 16q0 -31 -5.5 -35.5t-39.5 -8.5q0 -4 14 -14.5t14 -25.5q0 -7 -25 -25v-8l8 -3q26 23 30 23q8 0 21 -35q5 13 9 26q8 16 20 16h-2
l2 -1l6 -1l24 -4q-7 12 -21 24v8q11 4 25 18zM143 225l-3 11q-9 -1 -27 -6v0q-8 0 -10 16q-1 12 -2 23q-6 -9 -20 -25q-24 -3 -18 -3q-2 0 -11.5 7t-11.5 7q-3 0 -6 -3q4 -9 12 -26q0 -15 -5.5 -20t-22.5 -11v-9l3 -3q18 5 20 5q10 0 8 -42q27 21 28 21q9 0 18 -28h8
q0 5 -6 31q6 6 10 6h-2q3 -2 31 -6q-10 15 -21 24v20q9 5 28 11zM154 82v8q-3 3 -10 3t-18 -3q-9 6 -22 20q13 18 18 32q-4 2 -8 3q-7 -13 -25 -29l-12 30q-5 -16 -17 -32q-7 5 -22 16l-6 -6q14 -25 14 -22q0 -14 -30 -17v-10h16q11 0 11 -12q0 -5 -6 -15.5t-7 -14.5
q10 4 30 11q4 -1 7 -4q-6 -18 -6 -22q0 -6 5 -9q4 11 14 33h6q22 -18 34 -28q5 1 7 3q-6 11 -6 23q0 22 5.5 28.5t27.5 13.5z" />
    <glyph glyph-name="g" unicode="g" horiz-adv-x="527" 
d="M431 407h-160l1 22q4 77 -51 77q-52 0 -52 -93v-190q0 -66 48 -66q26 0 39.5 17.5t12.5 42.5l-25 -1l-24 2q0 3 -2 88h217v-130q0 -76 -72 -133q-67 -53 -143 -53q-107 0 -166 76q-52 69 -52 178q0 18 -1 56v58q0 147 36 216q52 99 193 99q82 0 142.5 -54t59.5 -134z
M350 594q-17 2 -20 2q-11 3 -15 11q5 7 16 21q-3 3 -11 8q-14 -21 -18 -21q-10 0 -18 10.5t-15 19.5q1 -5 1 -20q0 -10 -5 -14q-9 9 -26 23l-5 -6q21 -32 21 -28q0 -6 -3 -8h-3q-8 1 -27 -6q33 -13 33 -24q0 -2 -10 -12t-11 -12q3 -6 8 -11l23 23l5 -6v-1q0 -4 -1.5 -10.5
t-1.5 -9.5q0 -6 4 -10h6q1 9 3 17q3 12 8 13q10 -8 31 -23q0 5 -3.5 14t-3.5 14q0 7 9 9q17 -9 28 -9v9q-12 4 -23 13v7q9 5 24 17zM408 446q-14 8 -22 14q-5 11 -11 22q16 20 21 32l-5 2q-28 -21 -30 -21q-8 0 -14 11q-4 8 -8 17q-7 -15 -9 -27q-7 -4 -19 -13h1h-2l-6 1
l-22 2q9 -8 24 -23v-8q-12 -7 -23 -9v-11l5 -3q13 2 35 12q11 -14 16 -25l-15 4q6 2 20 16h6q6 -8 10 -18q3 2 6 2q-1 16 -1 21q6 -1 13 -1q3 0 30 3zM210 546q-4 3 -25 18v5q7 4 13 5v8q-8 3 -18 11q11 22 11 31q-35 -16 -33 -16q-3 0 -4 1q3 13 3 17q0 1 -1 4v3q-4 3 -7 5
q-2 -8 -10 -25q-7 7 -23 16v-10q0 -2 1 -7t1 -7q0 -4 -2 -8l-30 9l-3 -6l26 -16v-16q-8 -5 -21 -16v-6l3 -3q14 5 22 5q14 0 14 -13q0 -8 -4 -19q5 -3 10 -5q5 13 12 23h6q11 -19 19 -23q1 11 1 22q2 17 9 17q4 0 12.5 -4.5t12.5 -4.5q5 0 5 4v1zM419 211v8q-35 0 -35 11
q0 2 7 11t7 11q0 6 -8 7q-7 -8 -21 -23q-2 2 -6 41l-20 3q2 -18 3 -42h-7q-20 24 -48 54l-6 -9l39 -64l-4 -4q-14 5 -18 5q-6 0 -10 -9q8 -4 23 -13q-14 -10 -19 -22q2 0 8.5 1t10.5 1q8 0 14 -6q-10 -13 -14 -26l38 23q6 0 12 -14q7 -17 9 -19q5 5 5 10q0 2 -1 6.5t-1 6.5
q0 17 14 17q3 0 9 -2.5t10 -2.5l2 6q-5 6 -16 14v8zM148 462h-6q-4 -1 -6 -1q-18 0 -18 14q3 7 13 29q-29 -12 -30 -12q-3 0 -7 4q4 11 4 17q0 10 -8 12q-5 -30 -13 -30q-8 4 -28 17q0 -5 2.5 -16t2.5 -16q0 -14 -16 -21t-17 -13q3 1 6 1q33 0 33 -21q0 -2 -8.5 -16
t-8.5 -16q0 -6 5 -6q8 11 25 32q3 -2 5 -4q2 -11 11 -26l4 21q4 13 14 14q12 -11 19 -16q3 0 5 3q-1 2 -7 11t-6 11q0 22 24 17q3 2 6 11zM148 336q0 7 -3 13l-13 -3l-6 -3q-9 0 -10 11v-4q1 8 1 23q0 7 -1 14q-7 -3 -14 -15t-13 -12q-7 0 -12 13q-3 9 -6 19h-9q5 -14 5 -30
q0 -13 -8 -13q-5 0 -14.5 4.5t-14.5 4.5q2 -7 13 -16q8 -6 8 -25q0 -7 -26 -14q0 -7 3 -14q23 10 27 10q8 0 9.5 -18.5t8.5 -21.5q6 30 33 30q7 0 17 -11h11l-12 27q1 -3 5 22q7 5 21 9zM347 105q-35 0 -35 10q0 2 3.5 7t3.5 7q0 5 -8 9q-15 -16 -21 -16q-9 0 -28 26
q0 -4 1 -11v-12q0 -7 -1 -12l-27 19q-6 0 -6 -11l23 -22q-1 -4 -4 -7q-15 0 -28 -7q2 -4 20 -9q15 -4 15 -14q-6 -9 -17 -30l11 -5q17 23 21 23h3v-1v-31l9 -2q5 18 5 30q4 0 8 2q8 -6 23 -19q4 0 6 3q-1 3 -4.5 11t-3.5 12q0 6 7 9q6 -2 17 -7q2 7 2 14l-16 6v9q8 6 21 19z
M152 182q-21 14 -21 15q-9 8 -9 23q4 7 26 29l-5 5h-8q-17 -23 -25 -23t-15 13q-4 10 -9 20q-11 -40 -29 -40q-6 0 -27 4q23 -27 23 -28q0 -7 -26 -13l3 -11q22 4 23 4q4 0 7 -6q-6 -12 -21 -25l5 -8q11 7 32 21q7 -1 14 -3q5 -9 15 -23q5 32 11 37q2 1 36 9zM213 122
q-7 1 -12 1q-4 0 -11.5 -2.5t-11.5 -2.5t-7 3q3 7 12 19l-8 8q-6 -7 -19 -19q-8 13 -19 21v1l1 -1v-4v-18q0 -8 -7 -10q-9 5 -27 13l-3 -5q17 -17 17 -22q0 -11 -12 -17q-15 -8 -18 -13q37 -3 37 -16l-10 -18q3 -3 11 -6q6 7 16 16q6 -3 9.5 -15t9.5 -15q6 35 17 35
q2 0 11.5 -8t11.5 -8q4 0 7 3q-6 10 -21 26l4 6h15v13q-5 1 -14 4v6q8 8 21 25z" />
    <glyph glyph-name="h" unicode="h" horiz-adv-x="539" 
d="M418 600q-11 -2 -32 7q10 12 18 28l-5 6l-6 -1l-23 -23q-20 8 -32 28q-1 -9 0 -19l-14 -20l-21 11l-1 -4q7 -13 16 -25q-18 -7 -27 -21l20 -2l14 -12q-7 -13 -14 -24l6 -7l24 23l5 -4q-1 -3 3 -14h11l4 16h6l27 -19l1 7q0 6 -10 30l4 5l14 -4l8 3l-17 16zM423 473v11
l-37 -10l16 29l-8 3l-22 -20l-8 2l-4 31q-9 -21 -26 -35q-13 9 -26 19l-6 -5v-6l21 -21l-4 -6l-7 4q-9 -5 -19 -1l-7 -4l3 -10q6 1 18 1l9 -1v-12l-21 -22l6 -6l23 10l8 -4l-9 -38l6 -2l21 34l23 -23v19l12 16l21 -14l8 8l-21 17v15zM418 341v9l-23 -2q-4 1 -9 3v7l18 24
l-5 3l-28 -21l-18 9l-9 18l-6 1v-20l-20 -21l-25 -7q23 -12 30 -36l-21 -29v-8q18 14 34 23q18 -13 24 -32l27 41l26 -6q1 5 1 8l-21 22q8 12 25 14zM284 348l-33 1v8l19 28l-6 4l-26 -21l-25 27l3 -25l-1 -10q-9 6 -20 12l-11 -8l21 -20q-15 -8 -28 -19v-1l20 -3l13 -13
q-7 -13 -16 -26l8 -3l23 19l30 -26l6 3l-9 33l3 6l19 -11l8 4v9l-19 13zM421 225l-3 9h-12l-17 -7l-10 8l2 13l-3 18q-13 -10 -19 -25l-20 -5q-10 8 -27 14q6 -13 11 -28l-9 -25l-19 -11l3 -8h10l14 7l8 -15l-3 -24l3 -5q12 18 28 23q14 -7 17 -28l10 3v1q-4 17 -7 25l7 11
l28 -8l5 2l-23 21v23zM427 87l-6 -1l-35 21q19 30 16 38q-18 -16 -31 -32l-12 32q-2 -22 -18 -34l-22 16l-7 -11l16 -18l-10 -15l-20 -5v-9l18 1l9 -12q-6 -12 -11 -31l31 14l4 -1v-1l-4 -29q1 -1 5 -4l14 33h6l27 -19v11l-6 21q15 23 36 35zM177 -3h-168v663h168v-248l98 1
l2 248h168v-663h-165v263l-102 -1zM159 576v11l-13 -1l-15 13l14 29q-14 -6 -30 -11l-7 4q4 19 4 23l-3 8q-6 -19 -19 -32q-15 8 -28 18v-10l5 -21q-11 -26 -38 -33l31 -4l11 -18q-10 -15 -16 -37h8l19 30h6l10 -30q2 21 18 33q12 -6 21 -17l6 6q-8 11 -14 22zM157 466v11
l-4 3l-24 -7q1 3 -1 12t-2 12q0 2 1 5.5t1 5.5l-1 7l-28 -21q-15 8 -23 28l-5 -7l6 -23l-5 -10l-34 9l24 -24v-22l-29 -15l3 -8l29 9l9 -6q0 -8 2 -33l20 25l20 5q12 -7 24 -16l3 6l-12 23l7 24zM159 310q-17 10 -28 40q10 17 26 31l-11 6l-29 -23l-13 11l-6 21l-12 -28
l-19 -13l-29 5l21 -23v-8l-25 -10l2 -11l23 5l7 -6l-21 -28l5 -6q16 13 30 21l20 -10l12 -20l8 38zM159 187v9l-26 7v8l21 25h-5q-2 0 -21 -5l-11 6l14 34l-11 2q-5 -21 -20 -32l-21 23q3 -21 -12 -33l-21 12l-8 -3q12 -11 21 -25l-3 -12l-25 -19l8 -2l16 2l11 -5l-23 -26
l11 -5l23 23q14 -13 13 -35q8 20 25 35l27 -19l7 3v8l-20 21l1 4l1 -1h28zM157 89l-8 5l-4 -2l-23 13q7 12 14 23l-3 6l-26 -21l-6 4v14l-20 -16q-13 11 -30 17l-4 -1l12 -33l-1 -4l-23 6l-6 -7l21 -14l-21 -21q20 4 32 -7l-16 -28l3 -5l27 25q21 -9 32 -30l3 24l13 13
l19 -9l8 11q-15 5 -21 16v1z" />
    <glyph glyph-name="i" unicode="i" horiz-adv-x="273" 
d="M180 1h-168v663h168v-663zM151 582v11l-13 -1l-15 13l14 29q-14 -6 -30 -11l-7 4q4 19 4 23q-1 3 -3 8q-6 -19 -19 -32q-15 8 -28 18v-10l5 -21q-10 -26 -38 -33l31 -4l11 -18q-10 -15 -16 -37h8l19 30h6l10 -30q3 21 18 33q12 -6 21 -17l6 6q-8 11 -14 22zM154 468v11
l-4 3l-24 -7q0 3 -1.5 12.5t-1.5 11.5t1 5.5t1 5.5l-1 7l-28 -21q-15 8 -23 28l-5 -7l6 -23l-5 -10l-34 9l24 -24v-22l-29 -15l3 -8l29 9l9 -6q-1 -8 2 -33l20 25l20 5q12 -7 24 -16l3 6l-12 23l7 24zM154 312q-17 10 -28 40q10 17 26 31l-11 6l-29 -23l-13 11l-6 21
l-12 -28l-19 -13l-29 5l21 -23v-8l-25 -10l2 -11l23 5l7 -6l-21 -28l5 -6q16 12 30 21l20 -10l12 -20l8 38zM162 191v9l-26 7v8l21 25h-5q-2 0 -21 -5l-11 6l14 34l-11 2q-5 -21 -20 -32l-21 23q3 -21 -12 -33l-21 12l-8 -3q12 -11 21 -25l-3 -12l-25 -19l8 -2l16 2l11 -5
l-23 -26l11 -5l23 23q14 -13 13 -35q8 20 25 35l27 -19l7 3v8l-20 21l1 4l1 -1h28zM160 93l-8 5l-4 -2l-23 13q7 12 14 23l-3 6l-26 -21l-6 4v14l-20 -16q-13 11 -30 17l-4 -1l12 -33l-1 -4l-23 6l-6 -7l21 -14l-21 -21q20 4 32 -7l-16 -28l3 -5l27 25q21 -9 32 -30l2 24
l14 13l19 -9l8 11q-15 5 -21 16v1z" />
    <glyph glyph-name="j" unicode="j" horiz-adv-x="518" 
d="M423 192q0 -82 -67.5 -142.5t-149.5 -60.5q-66 0 -127 40q-66 44 -77 106l153 68q3 -17 18.5 -29.5t32.5 -12.5q49 0 49 61q0 9 -1 26t-1 24v393h170v-473zM399 582v9q-27 0 -27 13q0 1 11 28q-4 0 -15.5 -5.5t-17.5 -5.5l-2 2q0 12 5 30q-6 3 -11 3q0 -32 -12 -32
q-1 0 -30 18v-8q7 -12 7 -22q0 -14 -37 -29v-5q5 -2 28 -4q4 -6 13 -18q0 -3 -8 -15.5t-8 -21.5q5 2 15 16t14 14q5 0 13 -30q3 11 7.5 22.5t14.5 12.5q5 -7 19 -16l5 3q-5 8 -16 23l9 15q8 0 23 3zM400 473l-6 11l-14 -4q-3 -2 -5 -3q-10 0 -10 16q0 3 1.5 10t1.5 11
q0 5 -3 7q-20 -23 -27 -23q-8 0 -12.5 13.5t-11.5 14.5v-20q0 -6 4 -11q-5 -6 -9 -6q3 0 -30 6q3 -7 14 -17q7 -6 7 -25q0 -6 -26 -16v-8l3 -3l28 9q7 0 9 -16q2 -12 3 -23l5 1q3 8 14 24q3 0 10 2.5t11 2.5l8.5 -7t17.5 -7l-11 28q-2 5 9 25q6 3 19 8zM399 315q0 5 -9.5 11
t-20.5 29q17 17 26 28q0 4 -6 8q-10 -8 -31 -23q-10 0 -20 32q-6 -12 -12 -25q-9 -14 -21 -14q-4 0 -28 4q7 -8 23 -24v-9q-11 -3 -26 -17q4 0 13 1t13 1t7 -4v-6q-13 -13 -19 -22q2 -5 6 -8q18 14 28 21q15 0 29 -28q3 17 7 33q3 6 22 7q9 1 19 5zM404 200q-20 4 -30 9v6
q9 9 21 27l-19 -4l-9 -3q-7 0 -7 7q0 1 12 35h-11q-11 -30 -21 -30q-8 0 -18 23q-2 -16 -12 -35q-21 12 -23 12q-5 0 -8 -3q21 -29 21 -30q0 -6 -12 -16t-14 -13q15 2 22 2q6 0 11 -2q-4 -5 -12 -16q3 -3 5 -8q7 5 20 14q7 -4 8 -15q2 -14 5 -18q4 2 10 19q5 14 14 14
l28 -19l8 9q-8 7 -24 23q1 3 4 6q13 -4 21 -4q10 0 10 10zM325 106v8q-8 1 -16.5 2t-8.5 10q0 7 9 22l-6 6q-19 -14 -25 -14q-5 1 -6 2h2v9q1 5 1 8q0 5 -2 9q-7 -3 -9.5 -15.5t-9.5 -12.5q-4 0 -11 6t-11 6t-7 -3l6 -17q1 -3 3 -8q1 -1 1 0q0 -10 -31 -37q14 0 29 -1
q5 -5 13 -17l-14 -32l9 -6q6 17 20 35q9 -12 15 -30q2 10 5.5 22t11.5 12q3 0 10 -5.5t9 -5.5q4 0 9 5l-19 23q0 3 7 13q11 3 16 6zM206 116q-2 0 -7 -1h-6h-14q-6 0 -7 5l7 14q-3 3 -11 6q-7 -7 -14 -7q-1 2 -3 17q-2 11 -11 16q-5 -17 -6 -19q-5 -12 -12 -14q-5 6 -14 19
l-8 -8q6 -11 6 -15l-1 -5q-2 0 -6 1t-6 1q-7 0 -12 -6q9 -6 21 -20q-12 -6 -35 -20q6 0 17.5 1t17.5 1q7 0 8 -8q2 -6 0 -17l-1 -13l1 -6q27 21 29 21q8 0 26 -42q-5 33 -5 37q0 16 9 16q5 0 14 -3t14 -3l-18 30q0 6 13.5 11t13.5 11z" />
    <glyph glyph-name="k" unicode="k" horiz-adv-x="521" 
d="M444 664l-116 -329l111 -337h-162l-99 283l-3 -5v-277h-167v665h168v-267l99 267h169zM402 578q-18 4 -30 16l30 21l-5 8l-33 -16q-17 26 -18 39q-9 -18 -28 -30q-13 7 -22 16v-4l9 -25q-17 -6 -33 -14l25 -14l3 -9l-25 -18l2 -6h11l19 11l7 -5l-5 -12l14 -5l10 11
l22 -28l5 3l2 37l22 -12l6 3l-16 21zM358 458l-30 18l28 18l-6 8l-30 -13l-6 9q3 25 3 28q-14 -16 -33 -26q-12 13 -25 28l-3 -13l12 -20l-4 -4q-13 7 -28 12l-6 -6l1 -6l23 -13v-6l-30 -24q18 1 32 -9l-21 -23h9l27 11l14 -20q6 16 21 27l18 -21l11 6l-14 16q12 19 37 23z
M156 566l-2 8l-18 9l20 21h-32v8l16 29l-5 1q-13 -13 -27 -21q-21 10 -32 27l1 -10l-14 -27q-11 5 -21 10l-8 -3l21 -22v-6l-26 -11v-9l16 1l19 -14l-16 -23l4 -6l27 21l6 -19l13 3l2 14h6l27 -19l1 6q0 2 -8 32l2 1l20 -9zM154 481l-28 -2l-7 4l21 20v8l-8 3l-25 -21
q-13 12 -11 33q-10 -20 -26 -35l-26 18l-8 -5l21 -26l-4 -3h-31v-9l30 -11v-6l-21 -23l3 4l23 -3l9 6l-11 -35l8 -3q6 21 22 32l20 -25l3 20l10 7l21 -4l8 3l-12 4l-9 13q7 25 28 36zM342 239l-3 5l-21 -7l-11 12l2 22l-1 6l-25 -21l-4 2l-3 10l6 10l-10 35l9 8q10 0 22 -1
l6 3q-23 13 -30 37q8 11 14 30q-15 -8 -30 -14l-7 2l-1 28h-10l-9 -27h-6l-14 25l-11 -2v-9l12 -24l-11 -15l-26 -8l23 -11l11 -19l-5 -25l2 -5l23 19l23 -3l15 -24l-7 -9l2 -14l-7 -6l-32 7l19 -37l-23 -34v-8l25 6l19 -13l-5 -37l3 -3q12 19 15 37h6l19 -23l-1 23l9 14
l23 -9l5 11l-23 16q3 17 23 40zM152 354l-3 6l-25 -4l-7 8l21 23l-6 8q-13 -12 -28 -21l-17 9l-11 18l-5 1l1 -13l-14 -27l-34 -5q25 -13 30 -39q-11 -16 -25 -31l11 -3l27 23q16 -10 21 -35q5 29 29 42q16 -2 30 -5q-11 11 -21 27q10 12 26 18zM390 52q-21 19 -20 47l18 19
l-8 7l-19 -14q-15 20 -21 40q-3 -23 -20 -33h-2l-21 24l-8 -6l16 -26l-15 -9l-22 -1l27 -18l5 -22l-21 -17l5 -8q13 9 28 16q15 -15 25 -34l6 26l21 13q18 -5 26 -4zM152 238l-3 8q-14 -5 -30 -9l-9 14v26h-9l-31 -28l-24 14l-5 -3l11 -36q0 -5 -5 -23l-23 -9l6 -13l19 7
l9 -17q-2 -22 -2 -25q15 15 29 21q14 -14 25 -28v20l-5 11l11 6l29 -6q-18 13 -21 35q6 19 28 35zM154 85l-28 4l-14 18q8 18 19 34l-6 3l-24 -30l-8 2l-7 30q0 -25 -21 -37l-19 16l-5 -3q7 -11 13 -23l-27 -16v-11q6 2 13 1l12 -12l-14 -28l5 -1q13 5 30 10l2 -2l-3 -20
l5 -10l14 30h6l24 -17l3 1q-5 12 -7 26q15 25 37 35z" />
    <glyph glyph-name="l" unicode="l" horiz-adv-x="431" 
d="M360 1h-359v663h166v-498h193v-165zM158 593l-3 11q-14 -1 -17 -1q-17 0 -17 13q0 4 4.5 13t5.5 12q-9 -8 -29 -23q-7 0 -17 12l-14 18q-2 -37 -15 -37q-6 0 -20 9q-3 -3 -8 -11q11 -7 21 -17q0 -7 -27 -14v-8q34 0 34 -12q0 1 -16 -27l11 -3l18 21q6 -3 10 -19
q10 16 18 16q5 0 22 -18h9q0 11 -4 19q5 8 13.5 10t17.5 4v10q-18 0 -18 13q7 5 21 9zM149 472q-11 0 -34 3q10 9 20 25q-2 3 -8 8q-8 -10 -25 -23l-4 2q-2 14 -10 30l-8 -20q-7 -12 -16 -12q-4 0 -13 9t-13 9q-6 0 -9 -3q8 -9 23 -28l-4 -4l-30 2l-3 -10q10 -3 30 -7v-9
q-8 -7 -21 -24q5 0 14.5 2t13.5 2q7 0 9 -5q-14 -28 -14 -31q0 -6 6 -6l5 1q6 10 17 30h8q6 -13 17 -23q1 10 2.5 21t10.5 13q7 -5 22 -14l7 11q-6 6 -21 16v14q10 6 28 21zM142 343v8l-6 1q-3 0 -9.5 -1.5t-9.5 -1.5q-5 0 -8 8q9 7 21 24l-5 5q-2 -1 -15 -9.5t-16 -8.5
q-14 0 -21 12q-9 16 -12 18q0 -42 -12 -42q-2 0 -6 1h-6q-12 0 -23 -7q9 -6 25 -19q0 -3 2.5 -9t2.5 -10q-2 -3 -13.5 -14.5t-11.5 -14.5t6 -8q26 23 32 23q11 0 15.5 -15t8.5 -17q10 39 28 39q5 0 15 -2t15 -2l-23 27q0 5 26 15zM336 73q-29 9 -31 10q-15 8 -15 26
q0 2 7 11t7 11q0 4 -3 7q-9 -5 -26 -14q-18 0 -32 28l-13 -4q3 -7 7 -22q-12 -6 -16 -6q-8 0 -22.5 7t-21.5 7t-10 -5q15 -11 42 -25q-4 -13 -3 -20q-14 -6 -39 -22h17q3 0 11 3t10 4l18 -15q-3 -11 -3 -20q6 2 14.5 11.5t20.5 9.5q14 0 22 -25h10q1 1 1 4q0 10 -10 27
q14 12 56 6zM142 230q-3 3 -3 8l-31 -9q-8 6 -9 13v-1q1 1 1 4v13q0 7 -3 12q-21 -30 -39 -30l-8.5 7t-18.5 7q11 -23 11 -28q0 -4 -2.5 -11t-2.5 -10q-5 -4 -22 -9q0 -7 2 -13l24 6q2 -5 8 -14q0 -3 -1 -10.5t-1 -11.5l1 -8q15 18 24 23q13 0 19 -27h11v10q0 3 -3 9t-3 9
l1 7l8 2h-1q3 -1 7 -3l24 -6q-21 24 -21 35q0 12 9 18q1 1 19 8zM172 93l-6 4q-10 -4 -10 -12h2q7 0 14 8zM153 81v13q-12 -2 -25 -2q-9 0 -26 17q14 22 19 36h-4q-7 0 -27 -30l-6 4q-3 10 -8 29q-12 -33 -19 -33q-4 0 -11 6.5t-10 7.5q-5 -2 -8 -6q5 -7 16 -21l-8 -14
q-8 0 -24 -3v-9q9 -1 18 -1q10 -3 10 -12q0 -2 -5 -14t-6 -15q29 12 30 12t4 -2q0 -5 -1.5 -13.5t-1.5 -13.5v-3l4 -3q4 3 7.5 16.5t10.5 15.5l37 -28q3 0 6 3q-6 12 -6 25q0 36 34 38z" />
    <glyph glyph-name="m" unicode="m" horiz-adv-x="665" 
d="M572 1h-168l2 234l-54 -128h-124l-56 128q0 -194 -1 -234h-165v662h165l120 -296l120 296h161v-662zM561 600l-23 1l-10 8l19 28l-6 3q-11 -12 -25 -23q-22 7 -28 29h-5q4 -11 -15 -36l-34 26l-8 -6v-8q19 -16 35 -31q-24 -17 -58 -18l3 -9l46 4l16 -12l-14 -24l3 -5
l26 20l6 -3v-15h9l13 16l23 -21l6 3q-9 25 -9 34l1 5l23 -9l6 5v8l-21 11zM558 477l-34 3q15 12 21 25l-9 8q-11 -14 -24 -23l-7 2v30h-11l-7 -21l-13 -11q-13 5 -24 15q17 -18 23 -41l-7 -19l-17 5l-11 10l16 19l-5 2l-18 -8q-9 11 -13 33q-4 20 0 35q-5 -37 -32 -56
q-12 6 -21 16l-3 -13l9 -14l-4 -6h-28l-3 -5q21 -8 28 -24q-11 -13 -23 -25l5 -2l26 10l6 -2l-5 -18h11l13 9l16 -28h8l-1 24l7 13l17 -16l10 8l-16 18l18 9l9 -4l5 -9l-13 -36l11 -2l16 30h8l17 -23l2 21l11 13l22 -14l8 9l-21 25q9 18 27 28zM554 347l-6 6l-19 -5l-10 8
l23 24l-5 5q-14 -9 -31 -18l-20 10l-13 20q0 -3 -1 -31q-16 -18 -41 -14v-8l20 -11q4 -10 5 -21l-25 -30l5 -6q3 -1 34 21q17 -11 20 -32l11 26l20 13q16 -2 28 -5l-21 23v11zM551 226l-2 11q-14 -6 -29 -9q-13 16 -11 41l-19 -25l-20 -5q-12 7 -24 16l-1 -4q4 -14 9 -24
l-6 -25l-21 -7v-8l5 -6l25 8l1 -42l29 20l11 -9l5 -18h9v3l-5 26l9 8l25 -10l6 4l-23 24v19zM417 328l-30 16l28 14l-3 11h-8l-24 -12l-7 7l6 26q0 1 -1 4l-30 -23q-14 15 -25 30l-8 -5q7 -14 12 -30l-2 -2h-6l-20 9l-2 -10l16 -11v-7l-21 -11v-9l14 -3l9 -9l-20 -19v-8
l8 -3q11 12 24 19l7 -2l7 -28q7 18 21 28h2l17 -28l13 3q-10 17 -16 33l15 15zM165 587l-34 5l-13 12q6 15 14 29q-14 -7 -30 -11l-7 3l4 22q-1 4 -3 9q-8 -17 -18 -32q-14 9 -26 18l-6 -3l10 -28l-37 -27v-8l41 -19l-16 -33l3 -7l24 33l8 -2l8 -31l6 23l14 14l19 -16l6 3
q-7 11 -14 23l18 18zM241 428l-23 17l23 25l-5 8l-17 -5l-10 13q2 25 2 23l-1 6l-25 -21q-10 20 -9 48l-11 5v-26q0 2 5 -25l-9 -9l-31 9l16 -30l-23 -41l23 7l21 -13l-4 -40l8 2l11 37l24 -26q-2 27 -2 31l9 6l20 -9zM373 234h-16v-11zM554 88l-31 3l-11 18q8 18 19 33
l-9 4l-23 -30q-11 14 -14 31l-16 -33l-21 16l-8 -5q8 -11 14 -22l-10 -14l-20 -3v-11l12 1l16 -12q-6 -15 -14 -31l35 12l2 -2l-7 -30h11l13 29q16 -8 29 -18v10l-6 21q18 24 39 33zM280 305q-7 6 -15 22t-6 24l17 17l-6 8l-19 -12q-17 13 -20 37q-5 -21 -24 -30
q-11 11 -23 21l-8 -5l16 -25q-13 -15 -37 -13l25 -12l12 -22l-23 -21l5 -8l29 18q17 -12 15 -30l11 3l24 32l23 -5zM134 475h-4l-14 14l1 24l-1 7q-13 -13 -28 -21q-13 13 -25 27v-16q0 -2 4 -13l-8 -10l-31 9l23 -27v-17l-28 -14l3 -11q14 6 30 9q15 -14 12 -39
q12 23 30 37l17 -7l1 5l-5 24q0 1 23 19zM354 190l-23 13l23 16v8l-2 3l-23 -4l-2 1l20 28l-10 5l-28 -23q-16 13 -24 30q0 -1 -7 -26l-18 -16l-28 3l23 -22v-7l-25 -19q12 0 25 1l9 -8l-21 -23l8 -8l27 23q23 -3 32 -25q-3 25 13 37q19 3 31 13zM151 318l-21 15l-10 22
q7 8 14 19l-2 9q-12 -8 -25 -14q-19 10 -20 32q-4 -29 -29 -41q-16 2 -30 5l23 -29l-25 -11v-11l26 4l6 -8l-21 -26l6 -5q14 12 30 21l13 -3l17 -25q-2 27 17 41zM155 193v9l-30 9v6l21 27l-28 -7l-7 7q5 17 12 32l-11 2l-18 -32l-24 23q3 -21 -11 -32l-21 12l-8 -6l21 -21
v-3q-8 -14 -11 -19q-7 -10 -17 -14l30 2l5 -3l-21 -29l8 -5l28 23l8 -32l9 2l19 33l24 -19l11 8l-24 23l2 4l22 -2zM150 97l-22 3l-12 11l14 24l-9 4q-10 -14 -20 -20l-6 4l-3 14l-13 -4q1 -5 1 -9l-4 -3h-5l-24 18l-5 -5q5 -16 9 -34l-25 7l-5 -10l21 -14l-19 -20h33v-8
l-15 -31q15 14 31 23q19 -6 29 -28l2 22l14 18l21 -12l8 5q-7 13 -23 22q14 10 27 23z" />
    <glyph glyph-name="n" unicode="n" horiz-adv-x="530" 
d="M437 2h-162l-99 248h-2v-249h-168v664l166 -1l101 -260v258h164v-660zM420 584v9q-4 -1 -18 -1q-9 0 -9 12q0 1 5.5 12t5.5 19q-23 -12 -32 -12q-3 2 -3 5t2 9t2 9q0 8 -10 10q-2 -17 -2 -19q-3 -11 -11 -14q-8 8 -26 21v-6q0 -5 3 -13.5t3 -12.5q0 -12 -39 -31
q1 -3 31 -7q11 -14 11 -18q0 -3 -19 -34l11 -3q7 10 19 30h5q2 -3 11 -30q3 11 7.5 23t12.5 14l19 -18q5 2 8 5q-16 18 -16 22q0 12 29 19zM420 473l-2 11q-8 -1 -21 -7q-10 8 -10 17q0 3 1.5 10t1.5 10t-1 7q-3 -2 -11.5 -11t-15.5 -9q-8 0 -18 25h-9q0 -4 7 -31
q-6 -6 -10 -6q-6 0 -16.5 3t-15.5 3q8 -9 24 -21v-23q-8 -5 -26 -11l3 -11h9q4 0 10 4.5t10 4.5q5 0 9 -8q-1 -6 -1 -13q0 -13 2 -21l7 3q13 27 32 27q-1 0 23 -11q-6 19 -6 31q0 25 24 27zM425 320q-8 6 -25 18q0 3 -2.5 9t-2.5 10q8 11 23 31l-5 4q-22 -13 -33 -21
q-6 0 -21 30q-10 -40 -27 -40q-2 0 -29 7v-8q13 -13 20 -22q0 -6 -18 -12v-8l5 -5q9 4 15 4q4 -3 8 -8l-21 -23q2 -4 5 -8q35 21 31 21q12 0 30 -28q3 15 4 31q8 10 23 12t20 6zM170 532l-4 2l-2 -4v-4h1q5 0 5 6zM161 562q-18 4 -35 21q14 9 19 19h-5q-8 -1 -27 6
q17 17 20 31q-4 3 -11 3q-7 -8 -21 -26h-2q-7 0 -18 14t-14 16v-23q-3 -9 -14 -16l-21 12l-3 -6q7 -8 19 -23q-3 -5 -15 -10.5t-13 -11.5q35 -4 35 -13q0 -3 -6.5 -12t-7.5 -12q2 -4 5 -7q24 21 28 21l2 -2q0 -1 -1 -2q0 -7 3 -12h11q0 12 11 16q9 -9 26 -19v7q0 5 -4 14.5
t-4 14.5q0 1 1 4q11 -2 27 -8zM244 435q-11 4 -23 11v16q7 7 14 8v9l-3 3q-7 -3 -15 -7q-9 0 -10 13v-4q1 8 1 23q0 2 -1 7q-15 -15 -26 -23l-4 1q1 19 -10 32q-3 -5 -3 -11q0 -4 1.5 -11t1.5 -10q0 -8 -8 -8q-5 0 -25 7v-11q13 -14 13 -22q0 -10 -16 -36q8 2 23 7
q8 -5 18 -14l1 -6q0 -4 -1 -12t-1 -12q0 -6 3 -10q6 7 8 21t4 19h6q13 -14 19 -23q0 4 -1 12.5t-1 12.5q0 16 10 16h-1l5 -2l19 -4zM296 314q-26 26 -26 43q0 2 6 7t6 7q0 4 -6 9q-8 -4 -14 -12q-11 1 -16.5 17.5t-11.5 19.5q-3 -32 -18 -32q-3 0 -11.5 9t-10.5 10
q-5 0 -7 -4q6 -16 18 -26q-2 -10 -37 -14q10 -5 30 -14q2 -7 10 -20q-13 -13 -19 -21q0 -6 11 -6q16 19 19 19q7 0 15 -15t12 -17q2 9 4 28q14 13 20 13q3 0 10 -1t10 -1zM430 195v8q-11 1 -30 7v9q20 15 20 26l-19 -4q-5 -1 -7 -2l-8 3q4 11 8 34q-22 -28 -37 -28
q-3 0 -13 23q0 -23 -13 -56q-13 5 -22 6q-4 6 -13 17q2 11 2 20q0 6 -1 11l-24 -26h-1q-2 1 -19 26l-6 -3v-12q0 -2 3 -7t3 -7q-3 -4 -7 -6q-9 6 -26 21q-4 -4 -8 -5l23 -31q0 -24 -20 -25q2 -6 5 -11h21q13 -8 14 -30q2 -32 3 -35q2 16 16 48q7 3 22 8q3 -1 14 -10t16 -9
q4 0 7 4q-26 22 -26 29t10 12.5t18 5.5q4 0 7 -6q-7 -14 -11 -26q5 2 14 7q9 -5 10.5 -16t3.5 -21l11 22t14 12q9 -6 21 -18h8l3 6q-6 12 -21 21v6l2 2q11 -2 19 -2t14 2zM147 344v8q-26 -4 -25 -4q-6 0 -7 7l21 26l-8 6q-25 -21 -27 -21q-30 0 -30 39q0 12 10 12
q5 0 19 -23q1 10 3 22.5t10 14.5q6 -4 10 -7q0 4 -2 14.5t-2 15.5l12 23q-6 0 -16 2q6 9 16 29q-4 2 -8 3l-22 -20l-7 2q0 12 -5 30q-7 -3 -11.5 -18.5t-13.5 -15.5q-2 0 -13.5 9t-13.5 9q-4 0 -6 -5l1 -5l20 -21l-6 -6q-8 1 -23 5l-3 -13q8 -2 24 -4l4 -5q-4 -8 -21 -25v-8
q9 4 28 9l7 -4v-6q-14 -19 -14 -27q1 -3 3 -7h10l4 7l1 -27q-8 -9 -20 -11.5t-24 -4.5l3 -7q27 -14 27 -33q0 3 -20 -35h8q16 15 26 23q11 0 21 -33q16 42 29 42h-1l1 -1l5 -1l24 -3q-21 24 -21 27q0 6 23 16zM425 96q-10 2 -22 4t-12 11q5 7 16 22q-3 3 -5 8
q-33 -21 -29 -21q-3 0 -3 16h-14q0 -12 -8 -16l-26 19q-4 0 -5 -3q11 -28 11 -33l-1 -4q-1 2 -20.5 7t-24.5 5q2 -8 37 -27l-21 -18q5 -2 22 -2q6 0 13 -5q-14 -18 -21 -28q0 -6 5 -6l6 1q17 23 24 23q11 0 26 -27l6 -1q-1 16 -1 18q0 19 15 19h-1q2 -1 6.5 -3t17.5 -6l2 6
q-9 7 -21 22q10 6 28 19zM150 233q-3 3 -10 3q-4 0 -11 -3.5t-11 -3.5q-7 0 -9 17q-1 11 -2 23q-5 -9 -19 -25q-16 -5 -20 -5q-2 0 -10.5 7t-11.5 7q-5 0 -5 -4q7 -15 14 -25q0 -12 -9 -24l-19 -8v-8l5 -6q14 7 18 7q12 0 12 -10q0 -4 -1.5 -12t-1.5 -12l1 -7q24 23 31 23
q5 0 15 -28l11 3q-9 21 -9 26q0 8 10 8v0l1 -1l5 -1l23 -4q-8 9 -15.5 18.5t-7.5 24.5q8 7 24 15zM159 86q-25 4 -27 5q-9 3 -17 19q12 21 18 35l-6 3l-25 -32q-1 0 -14 30q-10 -33 -16 -33q-4 0 -10.5 7t-10.5 7q-3 0 -8 -5q7 -12 16 -21q-2 -6 -8 -15q-9 -1 -22 -5v-9
q13 1 15 1q13 0 13 -12q0 -3 -5.5 -14t-5.5 -17q20 9 33 14l1 -2q-4 -28 -4 -29v-1l8 -3q3 11 12 33h6q7 -7 23 -19l3 6q0 4 -4.5 12.5t-4.5 12.5q0 12 40 32z" />
    <glyph glyph-name="o" unicode="o" horiz-adv-x="544" 
d="M360 591q-9 3 -28 6q-9 8 -9 12q0 2 9 17q-3 3 -10 8q-6 -7 -19 -16q-15 28 -19 28q-1 -11 -3 -21q-3 -14 -12 -14l-25 16l-6 -6q8 -8 22 -25q-7 -2 -19 -7v-11q5 -1 16 -9q-7 -9 -21 -25q0 -4 3 -6q6 0 18 4.5t18 4.5l1 -1q-9 -19 -9 -22q0 -7 13 -7q3 8 11 21
q6 -9 19 -24q4 20 1 33h10q2 0 22 -14q2 2 4 6q-17 25 -17 23q0 11 15 18.5t15 10.5zM424 482v8l-6 1q-4 0 -11 -2.5t-10 -2.5q-2 3 -6 8q6 8 19 24q-2 5 -6 8q-10 -7 -29 -21q-17 0 -26 22l-7 1q0 -30 -9 -36q-2 -2 -36 -8q31 -20 31 -38q0 -2 -11 -15q-12 -16 -13 -17
l6 -6q30 24 34 24q9 0 13.5 -14t9.5 -17q10 31 15.5 35t39.5 4q-7 12 -22 22v8q9 4 24 12zM227 579q-2 5 -19 8.5t-17 13.5q0 4 8.5 14.5t8.5 12.5q0 9 -9 8h-2q-6 -8 -21 -23l-4 4v31h-13v-31h-4q-3 0 -5 -2q-16 12 -26 19l-1 -5q1 -2 2 -5l5 -19q-3 -4 -8 -6q-6 2 -17 4
l-3 -11q6 -2 19 -9v-6q-18 -13 -21 -22h10q6 1 9 1q15 0 16 -10q-6 -8 -6 -13q0 -6 7 -12q9 19 21 19q6 0 29 -26q0 4 -1 12v12q0 6 1 12q9 -7 28 -19l6 5q-2 3 -14 16q-10 10 -10 18q13 4 31 9zM431 367q-2 3 -2 8h-10q-4 0 -11.5 -4t-10.5 -5q-5 2 -8 6q0 13 -3 34
q-4 -1 -14.5 -17t-24.5 -16q-1 0 -10.5 7t-17.5 7l8 -20q1 -3 4 -9q1 -1 1 0q0 -15 -8 -22q-3 -3 -20 -13l6 -9q7 3 21 7q10 -6 10 -17q0 -3 -1.5 -10t-1.5 -10q0 -5 3 -7q16 23 26 23q9 0 18 -25h8v13l-2.5 7t-2.5 10q0 7 9 7h-2l2 -1l5 -1l24 -3q-8 10 -20 23q0 7 -3 21
q10 7 28 16zM438 222q-40 3 -40 23q0 4 7 16t7 16t-3 7q-8 -13 -26 -33q-4 0 -14 30l-6 -22q-5 -14 -15 -15q-6 7 -19 16l-6 -5q5 -8 16 -22q0 -12 -30 -18v-8q30 -3 30 -14q0 -4 -5.5 -15t-5.5 -16q11 6 33 14l2 -2q-1 -9 -5 -26q5 -2 9 -5q2 13 14 33q10 -7 31 -19
q-9 30 -9 32q0 8 14 18q11 8 21 15zM284 212v231q0 67 -50 67t-50 -72v-217q0 -62 51 -62q20 0 34.5 16.5t14.5 36.5zM158 450q-8 4 -23 14q13 8 19 19q-24 0 -29 -2l-7 6q10 14 14 27q-13 -7 -37 -23q-7 0 -12.5 15.5t-12.5 16.5v-24q-2 -11 -12 -18q-14 7 -16 7
q-4 0 -6 -3q0 -8 17 -19v-6l-24 -12v-9l13 1q22 0 22 -12q0 -2 -7 -11.5t-7 -11.5q0 -6 11 -6q6 8 19 24q6 -3 9 -19q4 2 13 3q0 1 -1 2q0 7 7 14q9 -6 26 -19l5 3v8l-14 27l4 4q10 -5 18 -5t11 9zM377 63q-10 8 -26 22v14q21 18 21 25q-27 -5 -29 -5q-11 0 -11 13
q0 3 1.5 8.5t1.5 8.5l-1 5q-5 0 -8 3q-3 -8 -12 -24h-6q-7 10 -22 21q0 -1 -1 -3q0 -4 1.5 -11t1.5 -11q0 -12 -11 -12q-5 0 -13.5 3t-13.5 3h-2q2 -5 26 -22v-6l-2 -2q-5 0 -12 -2v-9q6 -2 18 -7v-6q-11 -21 -11 -23q0 -4 3 -7q11 7 33 19q1 -6 1 -12q0 -7 -2 -16l11 -2
q2 9 9 25q14 -13 24 -16v8l-6 17q0 4 3 8q17 -7 34 -7zM175 179l-26 24v6l23 12v8l-3 3q-18 -5 -21 -5q-9 0 -9 8q9 9 19 24l-5 6h-8q-16 -24 -22 -24q-15 0 -29 25q-5 1 -9 3q4 7 9 22h9q5 -8 19 -21v26q0 7 9 11q12 -7 22 -11q5 3 10 8q-23 14 -23 26q0 8 10.5 17t12.5 14
h-10q-4 0 -12.5 -1.5t-12.5 -1.5q8 10 18 31q-5 3 -10 3q-13 -16 -22 -24q-4 0 -8 3q-3 15 -7 28q-4 -3 -9.5 -20.5t-13.5 -17.5q-4 0 -27 19l-6 -5q3 -6 24 -26l-4 -4h-29v-14h28v-10q-8 -10 -18 -27l33 6l2 -1q0 -6 -3.5 -19t-3.5 -19l8 -3l4 7l4 -4v-23q0 -14 -42 -18
q10 -9 21 -18t11 -22q0 -2 -9 -15.5t-9 -15.5q0 -5 3 -6l30 26q10 0 15.5 -14t11.5 -14q3 8 6 26q12 9 19 13q3 0 11 -1t12 -1zM238 77q-10 5 -19 10q-14 7 -14 13q0 4 9.5 15t9.5 12q0 4 -5 9q-10 -9 -28 -22v35h-16q1 -4 1 -19q0 6 -1 -9h-13q-14 19 -24 21q0 -5 3 -13.5
t3 -13.5q0 -7 -6 -10q-18 9 -31 9v-8l26 -14v-6q-24 -18 -24 -20q8 -1 22 -2q8 -1 11 -7q-2 -5 -14 -24l11 -8q6 8 18 21q13 0 34 -30q0 23 2 35q8 -8 25 -21q5 2 9 6q-1 1 -11.5 14t-10.5 14q0 6 33 13zM452 217q0 -99 -55 -160q-57 -64 -155 -65q-110 -1 -169 54
q-62 57 -62 168v234q6 229 220 229q222 0 220 -250q1 -1 1 -210z" />
    <glyph glyph-name="p" unicode="p" horiz-adv-x="529" 
d="M446 450q4 -130 -88 -175q-54 -26 -174 -26v-249h-170v664h207q96 0 159.5 -58t65.5 -156zM405 536v8l-3 3q-14 -5 -24 -7q-4 3 -8 8q10 10 21 27l-11 5q-15 -15 -25 -23h1h-1l-3 1l-13 1q-3 5 -10 14q-6 -2 -7 -11t-2 -11q-6 -10 -21 -13.5t-18 -10.5q30 -18 30 -32
l-23 -34q6 -3 13 -3q20 26 26 26q9 0 15 -14t11 -14q8 31 13.5 34.5t38.5 3.5q-1 2 -23 22v9q8 3 23 11zM309 559v7q-26 5 -26 32q0 2 8.5 11.5t8.5 11.5q0 4 -3 6l-28 -12q-7 4 -23 10q-6 13 -8 21l-14 -5q3 -6 8 -19q-10 -9 -15 -9q-2 0 -6.5 2t-6.5 2h-17q14 -18 21 -30
q0 -8 -26 -14v-14q21 7 26 7q9 0 9 -8q0 -6 -11 -32q31 21 28 21q19 0 24 -7q2 -2 7 -23l11 2v8l-6 23q3 6 8 9h-2q1 -1 4 -1h11q5 0 18 1zM415 374q0 5 -15.5 12t-15.5 21q0 2 9.5 12t9.5 12q0 6 -3 8q-12 -9 -26 -23l-6 4v3q1 8 -6 23q-15 -26 -20 -26q2 0 -18 14
q-3 -5 -5 -11l6 -12v-1q-5 -6 -9 -12q-8 0 -23 -2q1 -6 12 -9.5t11 -13.5q0 -1 -7 -10t-7 -11q0 -4 3 -7q4 0 11 2.5t11 2.5q5 0 8 -2q-2 -5 -7 -16l11 -3q4 6 14 16q11 -8 18 -20h8v14q0 2 -1 6t-1 6q0 13 38 23zM168 570q-8 4 -21 16q17 11 18 20q-25 0 -32 2q16 33 16 32
q0 4 -3 6q-24 -24 -29 -24q-10 0 -18 13t-15 15q0 -39 -12 -39q-3 0 -11.5 5t-11.5 6q-3 -2 -8 -11q11 -4 24 -20q-11 -4 -29 -17q3 -3 19 -4q13 0 19 -12q-5 -9 -16 -26l5 -6q21 21 29 21l1 -1q0 -9 3 -15h10q1 5 9 16q8 -5 23 -18h9q-3 14 -12 36l4 3q7 -2 21 -9q3 6 8 11
zM283 447q0 16 -12 33.5t-27 17.5h-61q-2 -5 -2 -16v-86q11 -8 30 -2q9 -2 20 -2q53 0 52 55zM311 337q-17 0 -19 1q-12 2 -14 10q17 17 17 23q0 4 -3 7q-22 -21 -25 -21q-10 0 -27 32h-6q-1 -18 -2 -22q-3 -13 -13 -15q-7 4 -20 12q-4 -2 -7 -6q1 -4 18 -21q-3 -7 -15 -10
t-15 -8q2 -2 20 -6q15 -3 15 -13q0 -2 -8 -12t-8 -11q0 -4 3 -6q8 7 26 19q3 -1 6 -4v-15h9q3 7 13 16q7 -7 21 -19q6 0 8 3q0 5 -3 14t-3 14q0 3 1 7q11 -4 24 -12q2 5 5 14q-7 3 -19 13q8 5 21 16zM163 481q-19 -2 -24 -2t-9 1q8 8 22 26q-2 5 -6 8q-10 -5 -29 -23l-3 2
q-3 10 -10 31q-3 -2 -9.5 -17.5t-14.5 -15.5q-4 0 -28 19l-6 -6q3 -7 21 -24v-4l-2 -2h-28v-11q9 -1 25 -7v-6q-9 -9 -21 -27q5 0 14.5 3.5t14.5 3.5q3 0 6 -4v-7q0 -2 -5.5 -13t-5.5 -18q5 -1 8 -3q17 33 22 33q2 0 23 -24q0 17 1 20q2 12 8 16q10 -4 23 -14l8 5
q-8 9 -21 27q0 9 12 19t14 14zM163 341l-3 11q-18 -5 -23 -5q-4 0 -7 6q5 10 22 26l-9 8l-28 -21q-16 0 -27 28l-6 -2q-3 -31 -9 -36l-37 -8q9 -6 23 -19q2 -7 8 -19q-17 -17 -26 -29q2 -5 6 -8q1 1 17 13q13 11 15 11q8 0 21 -33q9 14 10 26q18 14 22 14q10 0 26 -7
q0 9 -21 27v7q5 3 26 10zM163 224v11q-5 0 -15.5 -3.5t-15.5 -3.5q-8 0 -10 17q-1 11 -2 23l-5 -1q-12 -29 -34 -29q-1 0 -10 7t-18 7q12 -24 12 -28q0 -3 -6 -19q-6 -5 -20 -9v-11q6 -1 7 -1l17 5q10 -5 10 -16q0 -4 -2 -11.5t-2 -11.5l1 -6q3 2 12 12t17 10q11 0 15 -26h9
v20q0 6 -4 11q6 6 10 6q5 0 14.5 -3.5t14.5 -3.5q-2 7 -11.5 14.5t-9.5 25.5q0 6 26 14zM168 87q-8 3 -29 4q-4 6 -13 17q13 22 18 35q-2 3 -6 4q-14 -23 -25 -31q-5 0 -14 31q-4 -10 -9 -29q-9 -7 -11 -7q-4 0 -20 17l-6 -6q5 -8 16 -21q-5 -21 -30 -16l-2 -11q9 0 19.5 -1
t10.5 -9q0 -2 -5.5 -13.5t-5.5 -18.5q19 14 29 14q3 -1 5 -4q-1 -5 -6 -28l8 -3q3 11 12 33h6q10 -9 27 -19v11q0 3 -3 10t-3 10q0 12 13 18.5t24 12.5z" />
    <glyph glyph-name="q" unicode="q" horiz-adv-x="546" 
d="M499 94q-15 -30 -29 -59q-26 -49 -38 -49q-17 0 -42.5 12.5t-31.5 26.5q-54 -35 -123 -35q-123 0 -182 80q-47 65 -45 167q-1 80 3 213q9 108 52 161q53 66 168 66q118 0 175 -70q46 -55 49 -145v-236q0 -43 -11 -79q5 -16 22 -33t33 -20zM470 76l-19 9l-9 43l-13 -32
l-31 32l7 -40l-26 -3l26 -19l-25 -29l30 8l8 -32l12 26l18 -12l-2 33zM360 591q-9 3 -28 6q-9 8 -9 12q0 2 9 17q-3 3 -10 8q-6 -7 -19 -16q-15 28 -19 28q-1 -11 -3 -21q-3 -14 -12 -14l-25 16l-6 -6q8 -8 22 -25q-7 -2 -19 -7v-11q5 -1 16 -9q-7 -9 -21 -25q0 -4 3 -6
q6 0 18 4.5t18 4.5l1 -1q-9 -19 -9 -22q0 -7 13 -7q3 8 11 21q6 -9 19 -24q4 20 1 33h10q2 0 22 -14q2 2 4 6q-17 25 -17 23q0 11 15 18.5t15 10.5zM424 482v8l-6 1q-4 0 -11 -2.5t-10 -2.5q-2 3 -6 8q6 8 19 24q-2 5 -6 8q-10 -7 -29 -21q-17 0 -26 22l-7 1q0 -30 -9 -36
q-2 -2 -36 -8q31 -20 31 -38q0 -2 -11 -15q-12 -16 -13 -17l6 -6q30 24 34 24q9 0 13.5 -14t9.5 -17q10 31 15.5 35t39.5 4q-7 12 -22 22v8q9 4 24 12zM227 579q-2 5 -19 8.5t-17 13.5q0 4 8.5 14.5t8.5 12.5q0 9 -9 8h-2q-6 -8 -21 -23l-4 4v31h-13v-31h-4q-3 0 -5 -2
q-16 12 -26 19l-1 -5q1 -2 2 -5l5 -19q-3 -4 -8 -6q-6 2 -17 4l-3 -11q6 -2 19 -9v-6q-18 -13 -21 -22h10q6 1 9 1q15 0 16 -10q-6 -8 -6 -13q0 -6 7 -12q9 19 21 19q6 0 29 -26q0 4 -1 12v12q0 6 1 12q9 -7 28 -19l6 5q-2 3 -14 16q-10 10 -10 18q13 4 31 9zM431 367
q-2 3 -2 8h-10q-4 0 -11.5 -4t-10.5 -5q-5 2 -8 6q0 13 -3 34q-4 -1 -14.5 -17t-24.5 -16q-1 0 -10.5 7t-17.5 7l8 -20q1 -3 4 -9q1 -1 1 0q0 -15 -8 -22q-3 -3 -20 -13l6 -9q7 3 21 7q10 -6 10 -17q0 -3 -1.5 -10t-1.5 -10q0 -5 3 -7q16 23 26 23q9 0 18 -25h8v13l-2.5 7
t-2.5 10q0 7 9 7h-2l2 -1l5 -1l24 -3q-8 10 -20 23q0 7 -3 21q10 7 28 16zM438 222l-40 23l14 32l-3 7q-13 -19 -29 -41l-11 38q0 -25 -21 -37l-19 16l-6 -5l16 -22l-10 -13l-20 -5v-8l20 -2l10 -12q-6 -14 -11 -31l33 14l2 -2l-5 -26l9 -5l14 33l31 -19l-9 32q15 22 35 33z
M284 212v231q0 67 -50 67t-50 -72v-217q0 -62 51 -62q20 0 34.5 16.5t14.5 36.5zM158 450q-8 4 -23 14q13 8 19 19q-24 0 -29 -2l-7 6q10 14 14 27q-13 -7 -37 -23q-7 0 -12.5 15.5t-12.5 16.5v-24q-2 -11 -12 -18q-14 7 -16 7q-4 0 -6 -3q0 -8 17 -19v-6l-24 -12v-9l13 1
q22 0 22 -12q0 -2 -7 -11.5t-7 -11.5q0 -6 11 -6q6 8 19 24q6 -3 9 -19q4 2 13 3q0 1 -1 2q0 7 7 14q9 -6 26 -19l5 3v8l-14 27l4 4q10 -5 18 -5t11 9zM377 63l-26 22v14l21 23v2l-29 -5l-11 13l3 17l-1 5l-8 3l-12 -24h-6l-22 21q0 -1 -1 -3q0 -2 3 -22l-11 -12
q-14 4 -29 6q10 -14 26 -22v-6l-2 -2l-12 -2v-9l18 -7v-6l-11 -23l3 -7l33 19l-1 -28l11 -2l9 25l24 -16v8q-3 8 -6 17l3 8zM175 179l-26 24v6l23 12v8l-3 3q-18 -5 -21 -5q-9 0 -9 8q9 9 19 24l-5 6h-8q-16 -24 -22 -24q-15 0 -29 25q-5 1 -9 3q4 7 9 22h9q5 -8 19 -21v26
q0 7 9 11q12 -7 22 -11q5 3 10 8q-23 14 -23 26q0 8 10.5 17t12.5 14h-10q-4 0 -12.5 -1.5t-12.5 -1.5q8 10 18 31q-5 3 -10 3q-13 -16 -22 -24q-4 0 -8 3q-3 15 -7 28q-4 -3 -9.5 -20.5t-13.5 -17.5q-4 0 -27 19l-6 -5q3 -6 24 -26l-4 -4h-29v-14h28v-10q-8 -10 -18 -27
l33 6l2 -1q0 -6 -3.5 -19t-3.5 -19l8 -3l4 7l4 -4v-23q0 -14 -42 -18q10 -9 21 -18t11 -22q0 -2 -9 -15.5t-9 -15.5q0 -5 3 -6l30 26q10 0 15.5 -14t11.5 -14q3 8 6 26q12 9 19 13q3 0 11 -1t12 -1zM238 77q-10 5 -19 10q-14 7 -14 13q0 4 9.5 15t9.5 12q0 4 -5 9
q-10 -9 -28 -22v35h-16q1 -4 1 -19q0 6 -1 -9h-13q-14 19 -24 21q0 -5 3 -13.5t3 -13.5q0 -7 -6 -10q-18 9 -31 9v-8l26 -14v-6q-24 -18 -24 -20q8 -1 22 -2q8 -1 11 -7q-2 -5 -14 -24l11 -8q6 8 18 21q13 0 34 -30q0 23 2 35q8 -8 25 -21q5 2 9 6q-1 1 -11.5 14t-10.5 14
q0 6 33 13z" />
    <glyph glyph-name="r" unicode="r" horiz-adv-x="540" 
d="M450 -2q-111 3 -155 0q-28 46 -59 115q-26 60 -52 119l-6 -4v-230h-164l1 665h219q86 0 149 -64t63 -151q0 -64 -29 -109q-25 -38 -82 -78zM404 491q-10 10 -26 21v9q12 6 23 9v11q-4 0 -12.5 -2.5t-12.5 -2.5t-7 6q7 9 19 28q-3 3 -11 6q-18 -23 -24 -23q-11 0 -16 5
l-11 11q-4 -2 -9 -22q-2 -8 -19 -12t-19 -12q10 0 20 -10.5t10 -20.5l-23 -31l5 -6h8q19 26 24 26q9 0 21 -28h6q3 8 6 26q6 4 18 13q4 0 11.5 -1t11.5 -1zM309 557q-28 11 -28 38q0 4 18 21l-3 6q-21 -9 -27 -9q-4 0 -25 11q-1 12 -5 18l-6 1l-8 -6q6 -8 6 -15
q0 -11 -14 -11q3 0 -29 3q8 -8 21 -25q0 -12 -28 -21v-11l28 7q7 2 7 -9q0 -4 -9 -30q1 1 17 12q8 6 19 6q12 0 15 -9t5 -18h11v12l-6 19q5 9 13 9q3 0 8.5 -1.5t8.5 -1.5q6 0 11 4zM408 369v11q-13 0 -19 7q-2 2 -11 18q19 18 19 23t-3 8q-8 -7 -24 -23q-3 2 -8 6q1 3 1 6
q0 2 -1 8v8q-7 -9 -24 -23l-17 14l-8 -6q4 -5 10 -16q-13 -13 -17 -13q-3 0 -8.5 1t-7.5 1v-11q21 -5 21 -13q0 -5 -7 -13.5t-7 -9.5q0 -6 13 -6q3 0 9.5 1.5t10.5 1.5q-2 -6 -4 -17q0 -2 5 -5q8 8 12 17h6q6 -7 16 -21h9q0 27 5 35.5t29 10.5zM167 600q-11 2 -33 5
q17 34 17 32q0 4 -3 6q-10 -8 -30 -23q-10 0 -17.5 12.5t-14.5 15.5q1 -5 1 -12q0 -25 -14 -25q-4 0 -11 4.5t-10 4.5q-6 0 -8 -3q6 -12 21 -22v-6q-9 -3 -25 -12v-8l10 1q19 0 24 -14q-16 -16 -16 -23q0 -6 4 -6l27 21q8 -12 6 -18h11q1 12 11 16l23 -19q4 0 6 3
q0 6 -4.5 17.5t-4.5 17.5l1 1l24 -9q2 5 5 14q-7 3 -21 11zM281 446q0 18 -14 34.5t-32 16.5h-55v-102h25q76 0 76 51zM306 338q-16 4 -30 1v10q14 13 14 29l-27 -21q-13 0 -30 33q-7 -37 -17 -37l-20 11q-3 -2 -8 -10q9 -6 19 -18q-2 -2 -17 -8q-11 -6 -11 -12
q32 -6 32 -15q0 -3 -8 -12.5t-8 -11.5q0 -4 3 -5q4 1 26 18l6 -4v-14h8q7 8 10 14h6l19 -19q5 2 8 5q-5 26 -5 32l22 -9l6 5v8q-13 5 -18 11q8 6 20 19zM162 480q-18 -2 -24 -2q-4 0 -8 2q7 9 21 25q-2 5 -6 8q-31 -21 -32 -21l-2 2q-1 10 -5 31q-3 -3 -12 -21
q-7 -14 -15 -14q-9 6 -22 18h-8q-2 -5 -5 -8q10 -8 23 -23l-4 -4l-26 3v-11q8 -1 15.5 -3t10.5 -10q-10 -9 -23 -27q4 0 13 2t14 2q8 0 10 -5q-6 -11 -14 -34l11 -2q5 11 18 32h1q6 0 22 -25q1 10 2.5 21t11.5 13q6 -4 18 -13q11 4 11 11l-21 15v14q10 7 25 24zM359 184
q0 4 -2 13q-6 0 -17.5 1t-17.5 1q0 5 -2 9q16 13 16 20v4h-10q-2 0 -8 -3.5t-8 -3.5q-4 0 -11 8q3 9 7 24l-11 5q-9 -30 -22 -30q3 0 -31 18q1 -4 6 -15t5 -18l-1 -1q-10 4 -31 14q-1 -4 -5 -11q11 -6 30 -16v-7q-11 -4 -25 -19q3 -2 20 -2q14 0 19 -10q-9 -24 -9 -32
q2 -3 8 -3q3 11 20 28q3 -10 10 -30q4 1 10 5v8q0 3 -1.5 8t-1.5 8q0 1 2 2.5t6 2.5q3 -1 14 -7q8 -4 16 -4v8q-14 14 -14 20q0 3 2 7zM160 342l-3 11q-18 -5 -22 -5q-6 0 -8 8q8 8 22 26l-6 6q-31 -21 -28 -21q-16 0 -28 26l-8 1q0 -17 -1 -28q-8 -8 -15 -13q-23 0 -28 -1
q2 -3 18 -16q10 -9 10 -23q-3 -4 -26 -31l5 -6h8q9 7 25 23q12 0 22 -34q17 41 29 41q5 0 15.5 -3t16.5 -3q-13 17 -24 24v8q9 5 26 10zM397 74q-12 3 -28 17q8 7 21 22l-6 5l-24 -9q-5 3 -12 8l9 26q-5 3 -10 5q-3 -13 -16 -30q-5 6 -14 14q-3 -2 -8 -2q0 -2 1.5 -6.5
t1.5 -6.5q0 -4 -5 -6l-20 6q-5 2 -8 4q-4 -2 -7 -6q8 -10 23 -30q-9 -1 -25 -4q-2 -3 -2 -7q0 -3 2 -7h12q6 0 11 -1q-4 -8 -12 -26q12 3 29 11l6 -6q-7 -13 -9 -31h10q12 30 23 30q5 0 28 -19q1 1 1 4q0 5 -3 14t-3 14q0 10 17 10q2 0 6 -1t6 -1q5 0 5 5v4zM160 231
q-2 3 -3 8l-20 -5q-11 -6 -19 -12q-5 0 -2 13q4 19 4 15q0 14 -2 19q-4 -2 -12.5 -15t-26.5 -13q1 0 -25 14q0 -1 -1 -4q0 -5 5 -13.5t5 -11.5q0 -31 -28 -29l3 -14q7 2 21 7q9 -9 9 -20q0 -4 -1.5 -12t-1.5 -12q1 1 14 13q8 8 15 8t12 -9.5t9 -18.5l6 6q0 4 -4.5 14.5
t-4.5 14.5q0 2 12 2q5 0 14.5 -2.5t14.5 -2.5q-7 8 -14 16.5t-7 17.5q0 10 9 17q10 4 19 9zM162 87q-13 3 -26 5q-15 6 -15 18q0 -1 18 36l-6 2q-8 -11 -25 -32l-6 4q0 14 -8 28l-6 -22q-5 -14 -15 -15q-5 7 -19 19l-5 -6q4 -7 14 -22q0 -11 -10 -13.5t-20 -3.5v-8
q9 -1 18 -2.5t9 -11.5q0 -2 -13 -28q11 4 35 9l2 -2q-3 -11 -3 -20q0 -6 1 -10q6 3 9 15t6 15h8q8 -7 24 -19v4q0 5 -2 14.5t-2 14.5q0 11 17.5 19t19.5 12z" />
    <glyph glyph-name="s" unicode="s" horiz-adv-x="536" 
d="M445 208q0 -89 -64.5 -152.5t-153.5 -63.5q-91 0 -155 64t-63 155v7h168q8 -48 51 -48q20 0 33.5 14t13.5 35q0 38 -69 52q-100 21 -129 38q-69 43 -69 150q0 91 64 154t155 63q92 0 155.5 -66t62.5 -158h-169q0 57 -49 57q-20 0 -34.5 -15t-14.5 -35q0 -36 69 -51
q97 -22 129 -43q69 -46 69 -157zM408 538v8q-35 3 -35 14q3 7 14 27l-6 6l-25 -26l-4 4l-1 28q-9 0 -15 -2q2 -8 2 -28l-9 -2q-3 1 -13 8.5t-13 7.5q-4 0 -7 -3q4 -9 14 -26q-1 -3 -4 -5q-9 1 -15 1q-7 0 -11 -2v-8q11 -1 26 -11l-21 -24q37 0 37 -9q0 7 -9 -21q3 -2 10 -8
q14 26 23 26q11 0 31 -21v15q-1 4 -6 16l3 4q15 -11 19 -12h15v9q-14 6 -28 18q0 5 28 16zM291 584v8q-27 5 -27 19q0 5 16 20l-6 4q-21 -12 -24 -12q-4 0 -7 4q-1 8 -2 17.5t-9 10.5q-3 -9 -7 -18t-13 -12q-13 13 -22 21q-5 0 -7 -3q1 -3 7 -14.5t6 -13.5q0 -6 -14 -6
q-3 0 -12.5 8t-11.5 8q-4 0 -6 -3q19 -24 35 -35q-9 -7 -23 -24q27 0 40 -2q-5 -22 -5 -21v-3q7 4 19 12q4 -9 15 -24q2 8 4.5 16.5t8.5 11.5q7 -9 21 -28l8 6v7q-16 24 -16 26q0 8 13 13q9 4 19 7zM180 529q-2 4 -4 7q-28 3 -28 20v8q1 6 1 8q0 10 -5 16q-7 -7 -21 -23h-17
q-4 0 -15.5 11.5t-18.5 11.5q-1 0 -3 -1q18 -31 18 -34q0 -10 -34 -13q0 -5 17 -15t17 -22q0 -2 -9 -12.5t-9 -12.5q0 -9 10 -13q12 13 30 26q5 -4 9 -28h8q1 9 2 19.5t8 10.5h1q7 -9 24 -23l5 5l-16 28q0 12 10 17t20 9zM412 296q-2 3 -2 9h-15q-2 0 -8 -3.5t-8 -3.5
q-7 0 -9 16q-2 12 -3 23q-5 -9 -19 -25q-6 -2 -19 -5q-3 1 -13 9q-7 5 -15 5q12 -24 12 -29q0 -10 -7 -24q-7 -3 -21 -8q1 -5 5 -13l21 9q8 -8 9 -22q-1 27 -2 -24q23 23 28 23q7 0 18 -23h9v11q0 2 -7 15q6 6 10 6h-1q2 -1 8.5 -3t21.5 -6q0 11 -21 29v20q5 4 28 14z
M301 339q-37 0 -37 24q0 7 14 19l-6 6q-7 -2 -21 -16l-6 4v3q0 9 -6 23q-11 -28 -19 -28q-4 0 -20 19q-3 -2 -8 -6q11 -21 11 -23q0 -9 -16 -13.5t-18 -10.5q27 -3 27 -13q-5 -8 -16 -29q6 0 16.5 3.5t15.5 3.5q3 -1 5 -4q-4 -11 -4 -17q5 0 8 -2q7 13 14 18q7 -7 23 -21
l6 6q-4 19 -4 22q0 13 19.5 20t21.5 12zM176 369q-21 12 -21 34q1 2 9.5 9.5t8.5 11.5t-3 6q-3 -1 -11.5 -4t-13.5 -3q-8 0 -25 9q0 8 -5 21h-14q1 -9 5 -24q-8 -4 -14 -6l-34 14l-3 -13q25 -12 25 -24q0 -8 -30 -17v-8q10 0 29 -1l8 -6q-7 -14 -11 -30l28 18q16 0 22 -7
q3 -5 6 -23l11 2v11q0 1 -2.5 7t-2.5 9q0 8 35 6q0 5 3 8zM405 148v10q-29 0 -31 24q-1 13 -2 25q-2 0 -13 -12.5t-29 -12.5q-9 7 -23 21q-2 -2 -6 -3q1 -3 7.5 -14.5t6.5 -13.5q0 -9 -28 -16v-8q7 -3 20 -10q3 -6 8 -19q-1 -3 -5 -12.5t-4 -11.5q0 -4 3 -6q13 11 29 21
q9 0 10 -28l13 3v13q-3 4 -3 8q0 6 9 6q4 -3 23 -23l6 5v8q-16 26 -16 23q0 15 25 23zM296 51q-9 7 -25 21q0 13 18 25v10q-30 0 -30 12q0 1 4.5 9t4.5 16l-6 3q-7 -6 -18 -21h-6q-6 7 -9 21h-11v1q1 -1 1 -4v-14q0 -10 -12 -15q-8 5 -23 16q-5 -2 -8 -6q8 -8 23 -26
q-5 -9 -19 -6q3 -5 3 -13h5q5 0 11 -6l-19 -27q0 -4 3 -7q12 4 34 14l3 -2q0 -2 -1.5 -7t-1.5 -8q0 -8 9 -13q5 15 11 21q7 -9 22 -18v2q0 4 -2 11t-2 10q0 9 10 9q16 -12 28 -18q3 3 3 10zM168 131q0 7 -2 16q-3 -1 -6 -1q-19 0 -19 14q0 5 3 15.5t3 15.5q-8 -7 -26 -21
q-1 7 -1 14q0 10 2 21h-13q0 -14 -9 -35q-9 7 -28 19l-3 -6q9 -18 9 -25q0 -11 -12.5 -12.5t-24.5 -1.5v-15q5 4 12 4q4 0 21 -4q-8 -6 -22 -20l8 -8l18 9q4 0 7 -2q0 -29 2 -37q7 7 18 23h6q5 -12 17 -35l6 5q-5 15 -5 25q0 12 7 12q3 0 12.5 -3.5t15.5 -3.5
q-1 3 -8.5 14.5t-7.5 13.5q0 4 2 9h18z" />
    <glyph glyph-name="t" unicode="t" horiz-adv-x="517" 
d="M437 500h-132v-498h-167v495h-131v167h430v-164zM423 596v8q-18 -2 -32 11l16 21l-11 10l-22 -21q-19 8 -31 28l-2 -32l-28 20l-6 -10l21 -21v-6l-32 -7l2 -8l20 -6l10 -14l-18 -21v-8l8 -3l23 21l4 -4l-2 -19l2 -14h9q0 1 11 30q15 -9 28 -23v5l-4 22l5 8l27 -10l2 14
l-23 13q12 12 23 16zM286 608q-20 -4 -32 7l21 28l-8 5q-13 -13 -27 -25q-20 7 -29 30q-7 -14 -6 -29q-4 -7 -11 -10l-23 11l-3 -6l19 -25q-16 -6 -28 -19q22 2 35 -14l-14 -25l3 -6l28 21l7 -19l13 3l-1 3l7 13l25 -21l6 3l-12 35q18 4 26 9l-16 10zM144 590h-4l-28 22
l17 21l-9 8l-18 -20l-6 4l-5 28q-5 -17 -24 -35l-19 19l-5 -3q6 -11 11 -23l-12 -13l-20 -3v-9l19 -2l9 -12q-7 -15 -16 -30l35 9l2 -2l-10 -27l8 -6l19 33l26 -24l-1 30q15 22 31 35zM286 483l-32 2q10 14 16 28l-3 5q-13 -12 -27 -23l-7 2l-5 33q-9 -20 -25 -35
q-14 9 -27 19l-8 -6l21 -28l-4 -4h-31v-8q18 3 30 -9l-20 -25v-8l26 6l8 -3l-7 -34q0 -1 1 -4l9 7l2 -27q-18 -16 -44 -16q17 -13 30 -40q-9 -18 -23 -35l6 -3l31 23q15 -8 20 -30q5 29 31 39l28 -4q-14 13 -23 28l10 10l15 4l-3 11l-21 -4l-8 5l21 26l-6 6q-14 -11 -30 -19
l-21 12l-11 22l9 17h6l19 -23l1 21l10 14l22 -14l7 5l-21 22v5q12 20 28 30zM286 234l-2 8q-14 -5 -30 -7l-9 6l-4 34l-17 -26l-20 -5l-22 14l-7 -3l14 -26l-9 -24l-19 -8l3 -13l24 7l6 -16l-7 -25h13l21 20l12 -10l5 -15h11l-7 29l10 8q15 -3 30 -8l-21 23l-2 23zM293 90
l-5 6q-4 -1 -9 -3l-16 3l-14 17l19 33l-3 5q-16 -15 -28 -30q-12 10 -14 30q-2 -21 -18 -32l-20 16l-7 -5v-8l13 -16l-30 -20v-8l24 -2l4 -5q-6 -17 -11 -35q16 7 33 11l1 -2l-2 -32l9 2q-2 21 13 32l29 -18v10l-7 21q12 24 39 30z" />
    <glyph glyph-name="u" unicode="u" horiz-adv-x="530" 
d="M442 189q0 -83 -67.5 -143t-150.5 -60q-79 0 -146 55q-72 59 -72 137q0 49 3 485h169v-470q0 -12 18 -24.5t31 -12.5q14 0 31 12.5t17 26.5v468h167v-474zM423 574v10q-9 0 -25 5q0 6 4 18q6 16 7 19q-3 -1 -15.5 -6t-14.5 -5q-4 0 -7 4l7 32q-5 1 -8 3q-4 -13 -12 -37
h-6q-8 6 -24 19q-4 0 -6 -3q0 -4 5 -13.5t5 -13.5q0 -12 -40 -32q20 -6 31 -6l11 -18q0 -3 -8 -14.5t-8 -22.5q4 1 27 30l8 -2q1 -19 8 -29q3 11 6.5 22t13.5 13q6 -6 19 -16q4 0 6 3q-1 2 -7.5 11t-6.5 12q0 8 11 15q6 0 19 2zM424 467q-2 4 -6 10l-21 -6q-10 4 -10 13
q0 4 2.5 12t2.5 12q0 3 -2 7q-9 -8 -26 -24q-9 0 -12 9.5t-6 18.5h-9q0 -4 1 -13t1 -14q0 -4 -6 -10q-10 3 -30 8q2 -6 11 -15t9 -20q0 -9 -9.5 -14.5t-18.5 -10.5q3 -3 3 -8l15 5t15 4q8 0 9 -14q-1 20 -1 -21v-2q4 -3 8 -5q12 30 34 30q1 0 9.5 -7t17.5 -7q-1 3 -6.5 15
t-5.5 14q0 9 11 24zM421 310q-28 21 -28 37q0 5 26 29l-8 8q-11 -7 -32 -23q-7 0 -13 13q-5 10 -9 20q-7 -15 -9 -27l-20 -13q-4 0 -12.5 2.5t-12.5 2.5l-5 -1q23 -28 23 -27q0 -4 -2 -8h-3q-6 0 -20 -5l2 -10l24 3q4 -2 6 -9q-9 -8 -21 -24l6 -6q24 21 28 21q11 0 20 -10
q6 -10 13 -20q0 30 7 37q4 3 31 6q6 1 9 4zM158 598q-10 2 -18 2t-15 -2v11q10 14 16 28q-2 2 -5 4q-24 -24 -27 -24q-10 0 -18 11q-11 15 -14 17q0 -37 -15 -37q-2 0 -9 4.5t-11 4.5t-5 -3q11 -11 18 -26q-11 -3 -25 -19q32 -5 32 -15q0 -3 -14 -24l6 -6q21 21 28 21l1 -1
q0 -10 3 -15h11q1 5 4 14h6q9 -6 27 -19q1 4 1 7q0 5 -4 15.5t-4 16.5l2 1q13 -5 21 -10q8 9 8 14q-8 4 -21 13q7 6 21 17zM423 184v9l-16 2q-13 3 -14 8q9 11 21 32l-19 -4q-5 -2 -8 -3q-4 2 -8 6q5 12 14 36h-11q-5 -11 -18 -30h-6q-6 11 -20 23q0 -33 -11 -33
q-3 0 -10.5 6t-9.5 6q-4 0 -9 -6q21 -21 21 -25q0 -9 -9.5 -16t-18.5 -13q15 -1 35 -5l-12 -13q0 -6 9 -10q5 4 15 13q7 0 13 -32q2 2 10 19q5 13 14 13q3 0 13.5 -8.5t12.5 -9.5q5 2 9 5q-1 2 -11 13.5t-10 12.5q0 4 1 4q4 0 11 -1t11 -1q8 0 11 2zM155 477q-26 0 -35 2
q8 8 21 25l-8 8q-8 -9 -25 -23l-4 2q-3 11 -10 31q-3 -2 -9 -17.5t-15 -15.5l-28 19l-8 -8l24 -24l-4 -3h-31v-9l28 -7v-8q-8 -8 -21 -24q3 -2 7 -2t11 3t11 3t8 -2v-6l-14 -30q0 -1 11 -7l16 33h9q11 -16 19 -23q0 32 11 35q7 -5 21 -14l8 5q-1 5 -10.5 12.5t-9.5 14.5
q0 8 27 30zM151 340v9l-3 3q-14 -5 -20 -5q-7 0 -10 8q9 9 21 26q-4 3 -11 3q-18 -18 -24 -18q-14 0 -20 9l-12 19q0 -37 -16 -40.5t-31 -6.5q19 -13 20 -15q5 -5 10 -23q-17 -17 -25 -28q3 -4 8 -9q23 24 30 24q10 0 20 -33q20 40 31 40q5 0 14.5 -2t14.5 -2q-10 15 -21 21
v11zM344 103q-8 2 -25 12q0 5 3 15.5t3 15.5h-8q-18 -11 -20 -11q-5 0 -5 1t1 1v-1q1 1 1 4v12q0 6 -5 11q-3 -10 -12 -28h-8q-15 11 -25 11q9 -26 9 -27q0 -11 -15 -21t-17 -16q42 0 42 -17q0 -8 -17 -34l6 -6q8 13 26 35q4 -10 15 -30q2 10 5.5 22.5t10.5 12.5l20 -14
q3 3 8 11q-11 11 -16 19q0 11 23 22zM151 224v11q-5 0 -15 -3.5t-15 -3.5q-9 0 -13 40q-15 -31 -39 -31l-17 14h-11l12 -28q-1 3 -5 -21q-5 -4 -23 -9q0 -7 3 -14l23 7q8 -8 8 -16q0 -6 -8 -23h13q13 12 22 18q5 0 14 -16h8v-2l-1 2v3v13q0 9 8 9q4 0 13 -2t13 -2
q-16 28 -16 37q0 8 26 17zM225 108q-2 3 -3 6q-15 -2 -23 -2q-7 0 -11 5q7 7 7 15q-6 3 -11 5l-9 -9q-3 3 -4.5 5t-3 10t-1.5 12t3 7h-13q-11 -32 -17 -32q-5 7 -15 19l-6 -6q4 -23 4 -16l-1 -4q-16 0 -24 -3q8 -7 21 -23q-11 -5 -35 -14q1 -4 3 -9q23 5 30 5q4 0 8 -5.5
t4 -9.5t-1.5 -11t-1.5 -11l1 -7q3 2 13 12q7 9 15 9q9 0 17 -20t12 -22q-7 15 -7 35q0 16 10 16q5 0 14 -2t13 -2q-2 13 -18 22v11q10 4 30 14z" />
    <glyph glyph-name="v" unicode="v" horiz-adv-x="582" 
d="M507 663l-166 -661h-171l-166 661h167l86 -324l85 324h165zM477 590q-2 2 -15.5 5t-14.5 9q9 9 28 23q-5 8 -11 8l-27 -18q-12 0 -24 37q-4 -11 -8.5 -22t-16.5 -11q-2 0 -11 6.5t-12 7.5q12 -28 12 -29q-1 -3 -4 -6q-14 0 -29 -7q2 -3 17 -9t16 -15q-9 -6 -21 -18v-9
l6 -2l24 16q4 -1 7 -4q-1 -5 -2 -14q5 0 13 -3q3 12 9 14q8 -10 26 -25v13q-1 8 -1 12q0 8 3 14q14 -7 17 -7q4 0 7 3q-2 8 -14 17q9 4 26 14zM444 470q-4 5 -15 6.5t-15 6.5q9 6 23 23l-8 3q-16 -10 -24 -14l-8 2q2 10 2 18q0 7 -2 15q-2 -2 -11.5 -15t-15.5 -13
q-10 8 -27 26l-6 -5q5 -9 14 -29l-1 -4l-1 1q-7 0 -30 9l-5 -11q10 -4 28 -14q-3 -8 -12.5 -14t-18.5 -11l3 -6q13 3 25 3q6 0 7 -6l-16 -32q0 -6 11 -2l1 -1q0 -31 -19 -31q-4 0 -13 1t-15 1l-7 -1q7 -7 18 -22q0 -8 3 -23q-15 -8 -30 -28l6 -3q27 16 32 16q9 0 11 -13
t4 -24q26 32 37 32q7 0 25 -14l2 5l-15 27l2 8l16 2q9 2 13 9q-9 0 -19 1t-12 10q11 7 26 24l-6 5q-28 -14 -29 -14q-14 0 -18.5 18.5t-9.5 20.5q11 11 19 17l7 -2q3 -18 10 -26q10 31 19 31q1 0 9.5 -8t10.5 -9l7 4q-4 9 -14 25q0 11 11 16t21 9zM174 580q-6 13 -21 17
q4 8 11 24q-4 0 -12 -2t-12 -2q-3 1 -6 4l9 33h-8q-16 -26 -23 -26q-6 0 -20 14h-11q0 -3 1 -9.5t1 -10.5q0 -15 -9 -15q-4 0 -23 5l-3 -11q9 -3 23 -11q-6 -11 -20 -20v-9q26 4 27 4q10 0 10 -10q0 -1 -7 -29h8l14 26h6q2 -6 8 -17q4 8 16 21l27 -12q4 0 7 4q-19 25 -19 30
q0 4 2 4q3 0 10 -1t11 -1h3zM202 442v9q-9 3 -17 6.5t-9 18.5q2 4 17 18l-3 6q-4 0 -11.5 -1.5t-11.5 -1.5h-5l14 28q3 5 -11 5l-18 -28q-2 2 -6 3l-12 28q-5 -2 -7 -7q-1 -4 0 -11q1 -9 1 -10q0 -12 -13 -12q-4 0 -15.5 6.5t-15.5 7.5l-5 -13q28 -14 28 -18q-13 -2 -33 -7
l3 -13q8 2 16 2q7 0 14 -2v-8q-14 -21 -14 -24q0 -4 3 -5q17 9 29 14l3 -2q0 -5 -1.5 -13.5t-1.5 -13.5q0 -8 4 -11q2 2 8 20q5 15 13 15q3 0 24 -19v4q0 4 -1.5 11.5t-1.5 11.5q0 11 9 11q3 0 9 -3.5t10 -3.5t8 2zM384 231q-9 8 -14 8q-2 0 -7 -1t-7 -1q-10 0 -10 10
q0 5 2 16t2 16q-21 -21 -25 -21t-11 1t-10 1q-12 16 -20 18q0 -3 1 -11t1 -12q0 -14 -11 -27q-16 0 -24 -5v-9l3 -3h21q6 -6 6 -10q0 -1 -4.5 -11t-4.5 -18h8q7 4 19 13q11 0 15 -20h11v12q0 8 9 8q1 0 10.5 -5.5t17.5 -5.5q-5 9 -13 28q2 8 6 20q10 2 29 9zM237 323
q-10 6 -28 18v9q8 4 21 16l-3 6h-8q-10 -5 -16 -9q-5 2 -8 6l14 28q-3 2 -11 5q-14 -28 -32 -28q-3 0 -24 21q0 -4 1 -11.5t1 -11.5q0 -16 -15 -22q-20 -8 -23 -12q12 -5 25 -11t13 -19q-6 -9 -19 -33l5 -5h8q18 30 24 30q8 0 14 -10q8 -13 14 -16q0 2 1.5 7.5t1.5 8.5
q0 1 -1 4t-1 4q0 6 15 20q11 0 31 5zM262 195q-13 11 -18 20q-6 13 -10 18q6 4 17 14v11q-27 -12 -26 -12q-5 0 -20 35q-12 -37 -30 -37q-4 0 -11 4.5t-11 4.5t-7 -3q6 -8 12.5 -16.5t6.5 -18.5q0 -15 -19 -25q0 -9 6 -14l18 12q10 0 14 -17q5 -20 8 -23q9 25 25 31
q5 -8 16 -24l11 3l-14 27q0 10 8 10q9 0 19 -4zM323 87q-10 1 -31 6l-11 18q3 7 21 34l-6 3q-9 -10 -28 -30q-4 4 -11 32q-4 -10 -7 -19q-6 -13 -13 -13q-2 0 -10.5 7t-10.5 7q-4 0 -7 -4q14 -20 14 -22q0 -18 -30 -14l-2 -11q10 0 27 -9q-4 -11 -11 -35q23 11 27 11t8 -4
q-3 -7 -7 -21q3 -3 8 -3q5 9 16 26q9 -9 29 -21v10q0 4 -2 11t-2 11q0 11 18.5 18.5t20.5 11.5z" />
    <glyph glyph-name="w" unicode="w" horiz-adv-x="955" 
d="M627 339l85 324h165l-166 -663h-171l-99 403l-100 -403h-171l-166 663h167l86 -324l85 324h198zM847 590q-2 2 -15.5 5t-14.5 9q9 9 28 23q-5 8 -11 8l-27 -18q-12 0 -24 37q-4 -11 -8.5 -22t-16.5 -11q-2 0 -11 6.5t-12 7.5q12 -28 12 -29q-1 -3 -4 -6q-14 0 -29 -7
q2 -3 17 -9t16 -15q-9 -6 -21 -18v-9l6 -2l24 16q4 -1 7 -4q-1 -5 -2 -14q5 0 13 -3q3 12 9 14q8 -10 26 -25v13q-1 8 -1 12q0 8 3 14q14 -7 17 -7q4 0 7 3q-2 8 -14 17q9 4 26 14zM814 470q-4 5 -15 6.5t-15 6.5q9 6 23 23l-8 3q-16 -10 -24 -14l-8 2q2 10 2 18q0 7 -2 15
q-2 -2 -11.5 -15t-15.5 -13q-10 8 -27 26l-6 -5q5 -9 14 -29l-1 -4l-1 1q-7 0 -30 9l-5 -11q10 -4 28 -14q-3 -8 -12.5 -14t-18.5 -11l3 -6q13 3 25 3q6 0 7 -6l-16 -32q0 -6 11 -2l1 -1q0 -31 -19 -31q-4 0 -13 1t-15 1l-7 -1q7 -7 18 -22q0 -8 3 -23q-15 -8 -30 -28l6 -3
q27 16 32 16q9 0 11 -13t4 -24q26 32 37 32q7 0 25 -14l2 5l-15 27l2 8l16 2q9 2 13 9q-9 0 -19 1t-12 10q11 7 26 24l-6 5q-28 -14 -29 -14q-14 0 -18.5 18.5t-9.5 20.5q11 11 19 17l7 -2q3 -18 10 -26q10 31 19 31q1 0 9.5 -8t10.5 -9l7 4q-4 9 -14 25q0 11 11 16t21 9z
M579 440v9q-10 3 -17.5 6.5t-8.5 18.5q2 4 17 18l-3 6q-4 0 -11.5 -1.5t-11.5 -1.5h-5l14 28q2 5 -11 5l-18 -28q-2 2 -6 3l-12 28q-5 -2 -7 -8q-1 -3 0 -10l1 -10q0 -12 -13 -12q-4 0 -15.5 6.5t-15.5 7.5l-5 -13q28 -14 28 -18q-11 -7 -33 -16l3 -10q12 3 13.5 3t7.5 1.5
t9 1.5v-8q-14 -21 -14 -24q0 -4 3 -5q16 9 29 14l3 -2q0 -5 -1.5 -14t-1.5 -13q0 -8 4 -11q2 2 8 20q4 15 13 15q3 0 24 -19v4q0 3 -1.5 11t-1.5 12q0 11 9 11q3 0 9 -3.5t10 -3.5t8 2zM754 231q-9 8 -14 8q-2 0 -7 -1t-7 -1q-10 0 -10 10q0 5 2 16t2 16q-21 -21 -25 -21
t-11 1t-10 1q-12 16 -20 18q0 -3 1 -11t1 -12q0 -14 -11 -27q-16 0 -24 -5v-9l3 -3h21q6 -6 6 -10q0 -1 -4.5 -11t-4.5 -18h8q7 4 19 13q11 0 15 -20h11v12q0 8 9 8q1 0 10.5 -5.5t17.5 -5.5q-5 9 -13 28q2 8 6 20q10 2 29 9zM607 323q-10 6 -28 18v9q8 4 21 16l-3 6h-8
q-10 -5 -16 -9q-5 2 -8 6l14 28q-3 2 -11 5q-14 -28 -32 -28q-3 0 -24 21q0 -4 1 -11.5t1 -11.5q0 -16 -15 -22q-20 -8 -23 -12q12 -5 25 -11t13 -19q-6 -9 -19 -33l5 -5h8q18 30 24 30q8 0 14 -10q8 -13 14 -16q0 2 1.5 7.5t1.5 8.5q0 1 -1 4t-1 4q0 6 15 20q11 0 31 5z
M632 195q-13 11 -18 20q-6 13 -10 18q6 4 17 14v11q-27 -12 -26 -12q-5 0 -20 35q-12 -37 -30 -37q-4 0 -11 4.5t-11 4.5t-7 -3q6 -8 12.5 -16.5t6.5 -18.5q0 -15 -19 -25q0 -9 6 -14l18 12q10 0 14 -17q5 -20 8 -23q9 25 25 31q5 -8 16 -24l11 3l-14 27q0 10 8 10
q9 0 19 -4zM693 87q-10 1 -31 6l-11 18q3 7 21 34l-6 3q-9 -10 -28 -30q-4 4 -11 32q-4 -10 -7 -19q-6 -13 -13 -13q-2 0 -10.5 7t-10.5 7q-4 0 -7 -4q14 -20 14 -22q0 -18 -30 -14l-2 -11q10 0 27 -9q-4 -11 -11 -35q23 11 27 11t8 -4q-3 -7 -7 -21q3 -3 8 -3q5 9 16 26
q9 -9 29 -21v10q0 4 -2 11t-2 11q0 11 18.5 18.5t20.5 11.5zM533 595q-3 2 -28 5t-25 10q9 9 28 23q-5 8 -11 8l-27 -18q-14 0 -24 30q-4 -9 -8.5 -17.5t-16.5 -8.5q-3 0 -11.5 6.5t-11.5 7.5l12 -29q-25 -2 -51 -4q-3 0 -3 -2l2 -3t2 -4q0 -3 -3 -4q2 -3 27 -7t26 -13
q-9 -6 -21 -18v-9l6 -2l24 16q4 -1 7 -4q-3 -14 -5 -28q3 0 7 -3.5t5 -4.5q4 15 13 33q8 -11 26 -25q0 4 -1 12v13q0 8 3 14q34 -18 46 -18q2 0 1.5 6t0.5 6q-1 5 -19 11t-19 8q20 4 49 13zM444 470q-4 5 -15 6.5t-15 6.5q9 6 23 23l-8 3q-16 -10 -24 -14l-8 2q2 10 2 18
q0 7 -2 15q-2 -2 -11.5 -15t-15.5 -13q-10 8 -27 26l-6 -5q5 -9 14 -29l-1 -4l-1 1q-7 0 -30 9l-5 -11q10 -4 28 -14q-3 -8 -12.5 -14t-18.5 -11l3 -6q13 3 25 3q6 0 7 -6l-16 -32q0 -6 11 -2l1 -1q0 -31 -19 -31q-4 0 -13 1t-15 1l-7 -1q7 -7 18 -22q0 -8 3 -23
q-15 -8 -30 -28l6 -3q27 16 32 16q9 0 11 -13t4 -24q26 32 37 32q7 0 25 -14l2 5l-15 27l2 8l16 2q9 2 13 9q-9 0 -19 1t-12 10q11 7 26 24l-6 5q-28 -14 -29 -14q-14 0 -18.5 18.5t-9.5 20.5q11 11 19 17l7 -2q3 -18 10 -26q10 31 19 31q1 0 9.5 -8t10.5 -9l7 4
q-4 9 -14 25q0 11 11 16t21 9zM174 580q-6 13 -21 17q4 8 11 24q-4 0 -12 -2t-12 -2q-3 1 -6 4l9 33h-8q-16 -26 -23 -26q-6 0 -20 14h-11q0 -3 1 -9.5t1 -10.5q0 -15 -9 -15q-4 0 -23 5l-3 -11q9 -3 23 -11q-6 -11 -20 -20v-9q26 4 27 4q10 0 10 -10q0 -1 -7 -29h8l14 26h6
q2 -6 8 -17q4 8 16 21l27 -12q4 0 7 4q-19 25 -19 30q0 4 2 4q3 0 10 -1t11 -1h3zM202 442v9q-9 3 -17 6.5t-9 18.5q2 4 17 18l-3 6q-4 0 -11.5 -1.5t-11.5 -1.5h-5l14 28q3 5 -11 5l-18 -28q-2 2 -6 3l-12 28q-5 -2 -7 -7q-1 -4 0 -11q1 -9 1 -10q0 -12 -13 -12
q-4 0 -15.5 6.5t-15.5 7.5l-5 -13q28 -14 28 -18q-13 -2 -33 -7l3 -13q8 2 16 2q7 0 14 -2v-8q-14 -21 -14 -24q0 -4 3 -5q17 9 29 14l3 -2q0 -5 -1.5 -13.5t-1.5 -13.5q0 -8 4 -11q2 2 8 20q5 15 13 15q3 0 24 -19v4q0 4 -1.5 11.5t-1.5 11.5q0 11 9 11q3 0 9 -3.5t10 -3.5
t8 2zM384 231q-9 8 -14 8q-2 0 -7 -1t-7 -1q-10 0 -10 10q0 5 2 16t2 16q-21 -21 -25 -21t-11 1t-10 1q-12 16 -20 18q0 -3 1 -11t1 -12q0 -14 -11 -27q-16 0 -24 -5v-9l3 -3h21q6 -6 6 -10q0 -1 -4.5 -11t-4.5 -18h8q7 4 19 13q11 0 15 -20h11v12q0 8 9 8q1 0 10.5 -5.5
t17.5 -5.5q-5 9 -13 28q2 8 6 20q10 2 29 9zM237 323q-10 6 -28 18v9q8 4 21 16l-3 6h-8q-10 -5 -16 -9q-5 2 -8 6l14 28q-3 2 -11 5q-14 -28 -32 -28q-3 0 -24 21q0 -4 1 -11.5t1 -11.5q0 -16 -15 -22q-20 -8 -23 -12q12 -5 25 -11t13 -19q-6 -9 -19 -33l5 -5h8
q18 30 24 30q8 0 14 -10q8 -13 14 -16q0 2 1.5 7.5t1.5 8.5q0 1 -1 4t-1 4q0 6 15 20q11 0 31 5zM262 195q-13 11 -18 20q-6 13 -10 18q6 4 17 14v11q-27 -12 -26 -12q-5 0 -20 35q-12 -37 -30 -37q-4 0 -11 4.5t-11 4.5t-7 -3q6 -8 12.5 -16.5t6.5 -18.5q0 -15 -19 -25
q0 -9 6 -14l18 12q10 0 14 -17q5 -20 8 -23q9 25 25 31q5 -8 16 -24l11 3l-14 27q0 10 8 10q9 0 19 -4zM323 87q-10 1 -31 6l-11 18q3 7 21 34l-6 3q-9 -10 -28 -30q-4 4 -11 32q-4 -10 -7 -19q-6 -13 -13 -13q-2 0 -10.5 7t-10.5 7q-4 0 -7 -4q14 -20 14 -22q0 -18 -30 -14
l-2 -11q10 0 27 -9q-4 -11 -11 -35q23 11 27 11t8 -4q-3 -7 -7 -21q3 -3 8 -3q5 9 16 26q9 -9 29 -21v10q0 4 -2 11t-2 11q0 11 18.5 18.5t20.5 11.5z" />
    <glyph glyph-name="x" unicode="x" horiz-adv-x="512" 
d="M444 2l-108 -2l-47 1q-19 49 -58 141l-56 -141h-161l126 331l-143 330l171 1l56 -130q13 52 45 130h165l-126 -325zM389 590q-5 6 -17.5 7t-17.5 5q3 13 6 38q-9 -6 -27 -16h1h-1l-3 1l-17 2l-14 20h-8q2 -8 2 -26q0 -5 -14 -22q-8 0 -23 -3l-1 -13q23 0 26 -4v-3
q0 -8 -6 -19t-6 -12q0 -4 3 -7q9 4 28 14q9 0 12 -14q1 -10 2 -21h8q3 32 10 32q8 -5 30 -16q-1 3 -6 14t-5 15q0 1 9 22h3q9 0 26 6zM341 449l-1 5q-29 14 -29 30q0 3 28 31l-10 4q-9 -8 -28 -21l-4 4q1 10 2 31q-7 -10 -25 -26q-6 8 -21 21q-5 0 -7 -3v-7l6 -16
q-7 -9 -12 -13q-10 4 -18 4v-11q14 -7 14 -13q-5 -8 -16 -29q20 0 30 -2l-14 -26q4 -2 11 -2q9 20 19 20q4 0 23 -25q4 31 13 37q3 2 39 7zM224 462l-30 14v9q5 4 16 11v8l-3 3q-12 -4 -24 -11q-6 2 -8 8q5 9 12 29l-8 3q-6 -10 -11 -20q-8 -11 -17 -11q-6 0 -34 21v12l4 10
h6q5 -5 16 -14h9q-8 22 -8 26q0 6 5 11q8 -2 23 -7l8 10q-10 4 -20 9.5t-10 14.5q0 -2 15 29q-36 -7 -31 -7h-1q5 17 5 24h-11q-3 -11 -9 -19h-6q-6 8 -20 24q-8 -23 -8 -40h-3q-3 0 -14 4t-13 5l-7 -3v-8q14 -4 28 -15q-16 -8 -30 -12v-11q21 4 27 4q7 0 7 -8
q0 -1 -5.5 -12t-5.5 -19l6 -3q13 14 23 19l6 -4v-36h11l3 5q9 -13 9 -23q0 -9 -16 -18.5t-19 -14.5q42 -10 42 -25q0 -6 -4 -16q-4 -13 -4 -17l3 -3q21 30 27 30q9 0 26 -21q3 36 6 39q19 8 37 16zM285 341q0 3 -17 3q-7 0 -9 5q10 9 24 27l-6 5q-28 -18 -30 -18
q-14 0 -26 27q-3 1 -8 1v-13q0 -17 -17 -21q-11 -4 -30 -1v-9q23 -14 23 -30q0 -2 -12 -16t-12 -17q0 -5 2 -5q1 0 34 18q7 4 13.5 -14t8.5 -19q3 9 10 26q6 5 20 12q7 -3 27 -10v11q-7 6 -16 20q6 2 18 7q3 6 3 11zM357 164q-17 16 -40 36l4 3h22q-2 5 -5 9q-8 1 -23 2v13
v0q1 1 3 7.5t6 22.5q-7 -11 -22 -26q-10 9 -30 28h-8v-7q0 -2 2.5 -8.5t2.5 -10.5q0 -16 -8 -16t-20 5l-3 -11q11 -3 25 -16l-18 -18v-9q7 1 21 5l5 1q1 0 1 1h-1q7 0 13 -8l-9 -25q0 -7 11 -7q3 9 7 19t11 12q2 -3 9 -17q5 2 13 8q-1 3 -4 10q1 3 4 6q10 -4 31 -9zM413 73
q-11 4 -22 8.5t-11 15.5q0 3 7 11t7 10q0 4 -3 7h-8q-9 -9 -16 -9l-4 1q1 0 12 34h-13q-5 -11 -16 -30q-6 2 -18 28q-6 -3 -9 -5q0 -4 1 -11t1 -11q0 -15 -10 -15q-4 0 -31 9l-3 -8q11 -5 28 -21q-13 -5 -30 -9l2 -11q28 5 27 5q6 0 6 -8q0 -4 -6 -14.5t-6 -13.5q0 -4 3 -6
q28 16 31 16q1 -1 1 -28h14q0 24 8 28q17 -14 27 -16v13l-3.5 7t-3.5 11q0 6 8 6q-3 0 25 -5q1 4 5 11zM233 169q-7 5 -22 15l1 11q13 7 16 22v0q0 -1 -1 -1h-4h-14q-9 0 -11 7q14 21 14 24q0 4 -3 6l-26 -26q-4 4 -24 30q-4 -19 -12 -41q-20 -2 -40 -3v-9q30 -3 30 -32
q-21 -16 -31 -26l6 -6q10 5 33 21l6 -3q-4 -16 -4 -25l1 -7q2 2 12 16q8 10 16 10q7 0 10.5 -11t7.5 -13l6 3l-7 26q4 4 13 10l12 -1q7 0 4 0q8 0 11 3zM190 69l-5 5h-21q0 2 -1 6.5t-1 7.5q0 2 7 12.5t7 12.5q0 4 -3 6q-9 -4 -26 -14q-11 0 -13 17.5t-3 19.5h-8
q0 -24 -7 -32h-6q-24 16 -22 16q-4 0 -5 -3q5 -14 9 -22l2 -4q0 -7 -9 -19l-28 -3v-9q9 -1 20 -3t15 -8q-4 -16 -12 -31q3 -2 6 -3q9 4 27 14q16 0 31 -23h8q-2 9 -2 20q0 9 14 28q7 0 22 1z" />
    <glyph glyph-name="y" unicode="y" horiz-adv-x="595" 
d="M516 664q-174 -364 -174 -371v-293h-169v293q-14 56 -77 184l-92 186l170 -1l83 -202q33 71 80 203zM464 597q-9 1 -18.5 2t-13.5 9q6 10 19 29h-2q-6 0 -15.5 -8t-13.5 -8t-7 2q0 24 -8 29q-15 -28 -23 -28q-10 14 -18 21q-6 0 -9 -3q4 -9 14 -26q0 -11 -40 -22
q11 -8 30 -15q-7 -7 -28 -16l3 -11q3 1 15 6t16 5q3 0 8 -6q-7 -14 -7 -27v-2h9q17 21 24 21q6 0 12.5 -10t11.5 -18l6 2v11q0 3 -12 20l4 4h7q11 -12 24 -12l3 11q-11 5 -21 12v6q15 7 30 22zM410 457q-28 19 -28 29q17 8 26 15q-2 4 -3 8h-10q-15 -9 -20 -9q-6 0 -7 5
q3 6 3 11l-1 5q-4 0 -8 2q-4 -6 -13 -12q-16 28 -25 28q0 -30 -4 -37q-25 14 -22 14q-4 0 -7 -2q4 -12 14 -24q-18 -5 -26 -13q28 -9 28 -15v0q-10 -6 -28 -19l5 -6l15 5t15 4q15 0 16 -24q0 6 -1 12q-1 -14 -1 -46v-3q5 2 9 5v6q-1 4 -1 6q0 34 24 34q2 0 10 -8t14 -8v8
q-9 15 -9 18t4 7q20 0 31 4zM181 570q-8 3 -24 12v18q14 7 19 14l-3 6l-21 -9q-11 4 -12 16q0 -1 0 23q-16 -16 -26 -23q-4 1 -3 2q0 7 -5 21h-9q0 -4 2 -11.5t2 -11.5q0 -5 -3 -7h-15q-3 0 -10 2t-11 2q6 -8 12 -17t6 -16q0 -11 -21 -38l15 5t14 4q6 0 19 -12q-1 7 -1 -40
l11 3v37h11q7 -9 22 -20q-5 21 -5 25q0 13 10 13q2 0 9.5 -3t9.5 -4q2 1 7 9zM234 449l-1 6q-24 18 -24 38q5 7 14 15v8l-3 3q-24 -14 -21 -14q-11 0 -24 38q-10 -36 -22 -36q-1 0 -11 9t-12 10q-5 -2 -8 -5q6 -8 19 -24q0 -6 -2 -9q-12 -1 -33 -6q9 -6 28 -13q3 -7 11 -21
q-13 -14 -19 -21q0 -6 11 -6l21 18q8 0 14.5 -14.5t14.5 -15.5q0 25 1 26q11 16 22 16q4 0 12 -1t12 -1zM339 358q-10 5 -17 8q-2 -1 -5 -2q-9 0 -22.5 10t-13.5 18q0 -6 9 20l-2 10l-14 -16q-10 -11 -16 -11q-9 0 -25 25l-4 -26q-4 -12 -15 -20q-11 0 -31 -4l28 -19v-6
q-7 -4 -19 -14v-9l10 -2q6 3 17 9q4 -2 8 -6q-6 -8 -17 -26l14 -5q14 23 26 23q7 0 28 -14q2 7 1 17q11 14 41 37q4 -5 8 -5q8 0 11 8zM320 187q-2 4 -16 18q-10 11 -10 21q0 9 7.5 18t7.5 10q0 4 -3 7q-20 -7 -22 -7q-13 0 -24 13q0 23 -6 36q-6 -3 -6.5 -23.5t-14.5 -20.5
q-3 0 -27 9q1 -3 7.5 -15.5t6.5 -13.5q0 -16 -26 -35v-6q4 0 12.5 1t12.5 1q12 0 12 -7q0 -4 -2.5 -11.5t-2.5 -11.5l1 -5q7 8 23 21q4 0 7 -2v-30h14q-1 6 -1 13q0 31 17 31q14 0 25 -17zM329 94q-38 0 -40 21q-1 11 -8 24q-7 -28 -30 -28q-3 0 -21 19l-6 -6q4 -7 14 -21
q-1 -3 -4 -6l-29 2q9 -8 26 -25v-8l-21 -9v-9q6 0 26 7q6 -6 12 -13l-3 -24l8 -3q7 23 14 23q2 0 12 -8t12 -8q5 0 7 3q-3 8 -3 16q0 10 7 11q6 -3 16 -9q5 0 6 3q-7 7 -18 24q23 14 23 24z" />
    <glyph glyph-name="z" unicode="z" horiz-adv-x="528" 
d="M443 0l-432 2l-3 4l201 487l-10 6l-188 1l1 164h431l-210 -498l210 -1v-165zM382 563q-18 8 -23 16q8 10 23 31q-9 -2 -23 -2q-7 0 -14 4q5 9 16 26l-8 6q-7 -10 -23 -26q-7 2 -13.5 14.5t-13.5 13.5q0 -33 -20 -43q-13 -6 -53 -6q-5 0 -9 6q5 20 11 31q-4 0 -17 -9
t-31 -9l-13 28l-11 -2v-8q0 -4 3.5 -11t3.5 -11q0 -5 -18 -7q-11 0 -22 -1q9 -10 18 -19q10 -13 10 -23q0 -2 -8 -11t-8 -11q0 -4 3 -6l27 12q6 -3 23 -9q5 -11 8 -22l13 3l-7 22q8 8 16 8q-3 0 29 -3q-13 19 -21 30q0 6 12 10.5t20 4.5q24 0 24 -27q0 -4 -21 -19l8 -8
q7 4 21 14l6 -4q-2 -9 -2 -17q0 -7 2 -12q17 24 24 24q8 0 14 -21q7 0 13 2q-4 17 -9 24l16 13q2 -1 9 -4t8 -3q6 0 7 11zM335 443v10h-18q-8 2 -8 13q0 4 6 15.5t6 16.5q-3 -1 -14.5 -6t-14.5 -5q-12 0 -13 35h-9q-3 -33 -10 -33h-3q-14 16 -27 19v-8l11 -21q0 -5 -5 -13.5
t-9 -8.5t-12.5 1t-12.5 1q0 -8 -3 -11q10 -1 21 -3q15 -3 17 -8q-1 -3 -6.5 -15.5t-5.5 -15.5q0 -4 3 -6q23 17 27 17q17 0 26 -13t14 -13q0 17 1 31q14 18 23 18q8 0 10 -3zM134 534l-26 27v1q-1 11 23 15v11q-33 3 -33 28q0 3 1 10t1 10l-1 6q-16 -18 -26 -26q-6 0 -11 13
t-14 13v-12q0 -3 3 -8t4 -7q-2 -5 -11 -8q-6 7 -20 16q-1 -4 -2 -12q1 -2 7.5 -10t6.5 -9q0 -20 -17 -22v-11l3 -3q2 0 6.5 1t6.5 1q22 0 20 -39q2 -3 8 -3q3 8 12 22q24 8 21 8q4 0 15 -11.5t15 -11.5q9 0 8 9v2zM295 355l-5 5h-10q-4 0 -12.5 -4.5t-12.5 -4.5
q-11 0 -12 12q0 -2 1 -6v26v5q-3 -2 -17 -16q-9 -9 -23 -9q-8 5 -31 16v-8q12 -18 12 -23q0 -8 -11 -8q-3 0 -8 1t-7 1q-1 -4 -1 -8q0 -3 1 -8q13 0 21 -5v-6q-9 -3 -28 -11l2 -11h10q4 0 12 4.5t12 4.5q13 0 19 -40q4 2 13 19q7 14 18 14q6 0 16.5 -4.5t16.5 -4.5v10
q-14 13 -14 19q0 18 18.5 26t19.5 14zM423 91v8q-31 0 -31 10q0 2 5.5 10t6.5 10q-3 6 -8 11l-21 -24q-11 0 -33 28q0 -11 -3 -35q-8 8 -28 21q-3 -5 -5 -10q10 -9 23 -26q-5 -6 -17 -7.5t-16 -3.5q3 -4 19 -10t16 -14q0 -5 -19 -28q3 -3 11 -8q7 8 21 23l5 -6q-1 -9 -1 -14
q0 -6 2 -15h9q3 31 12 30h1q9 -9 27 -21v3q0 5 -3.5 13.5t-3.5 12.5q0 3 4 6q8 -1 24 -4v11q-7 4 -16 15q7 4 19 14zM233 209v8q-27 0 -32 9q6 7 16 22q-4 2 -10 2q-3 0 -9.5 -5.5t-8.5 -5.5q-4 0 -7 2q-1 9 -5 28q-4 0 -11 -14t-13 -14q-3 2 -10.5 10.5t-10.5 8.5
q-6 0 -9 -3l8 -19q1 -2 4 -7v0q0 -13 -16 -16q-19 -5 -21 -8q11 -3 30 -14q-7 -5 -28 -13q0 -7 3 -13q28 11 32 11t7 -4q-5 -16 -4 -27v-4l31 23q7 0 14 -14t10 -14q6 0 9 3l1 8l-14 23l3 3q18 -8 29 -11q0 5 3 13q-11 4 -21 14q4 7 13 11t17 7zM296 40q-8 9 -23 24l4 6
l14 2v9q-6 2 -16 11q8 11 19 26l-3 5q-12 -4 -37 -9l-2 2q4 13 9 21q-5 4 -13 8q-5 -16 -13 -21q-6 9 -17 18l-6 -33l-11 3l-5 -8l2 -13q0 -5 -11 -16q-31 9 -31 20q0 3 21 23l-6 6l-26 -16l-6 3q3 9 3 15l-1 3h-10q-8 -8 -13 -12q-8 10 -25 26q0 -14 -2 -40q-9 3 -21 14
q-10 -4 -10 -10v-1l18 -16q-9 -4 -25 -14l19.5 -6.5t10.5 -9.5q-14 -10 -23 -29h8q22 16 25 16q10 0 15 -14q6 -18 11 -21q4 9 8.5 19.5t13.5 10.5q4 0 18 -14q10 4 10 10v1l-16 18q3 8 29 8q4 0 27 -15l-9 -26l11 -6l14 22h3q5 0 11 -12.5t12 -13.5q3 35 14 35
q2 0 11.5 -5.5t12.5 -6.5z" />
    <glyph glyph-name="braceleft" unicode="{" horiz-adv-x="860" 
d="M478 252q0 -4 -3 -7l28 -16v-5q1 -6 -3 -11l1 1v0q-3 0 -10.5 -9t-8.5 -13q23 5 25 5q25 0 25 -22q0 -10 8 -18q7 21 10 24q10 8 20 15q7 -1 22 -9q5 5 8 10l-21 13q2 5 4 15q8 7 22 21q-10 -1 -20 -1q-8 0 -13 3t-5 9t10 22l-7 8q-6 -10 -22 -28l-6 3v1q0 2 -16 28
q-3 -47 -24 -47q-3 0 -24 8zM406 376q16 -12 20.5 -19.5t4.5 -27.5q-25 -5 -39 -12q5 -5 14 -5q6 0 29 5l2 -7q-5 -10 -15 -27q27 13 30 13q10 0 10 -16q0 -7 3 -10t6 -3h3q3 17 3 26l16 5q5 -6 19 -15l5 2q-13 23 -13 26q0 15 54 18q-18 2 -52 15l-1 4q8 6 23 19l-1 5h-1
q-5 0 -14.5 -5.5t-14.5 -5.5l-5 1l-6 46q-3 2 -7 2q-16 -48 -20 -48q-10 0 -40 19q2 4 2 7q-3 1 -15 -12zM494 398q1 -1 12 -7q3 7 11 20q18 -6 27 -29t18 -23l2 1q-3 18 -12 47q12 6 16 12q14 -6 43 -12q-4 4 -31 22q-1 8 -2 23q10 6 16 12q-4 2 -23 2q-8 0 -15.5 6.5
t-7.5 13.5q0 5 8 21l-7 8q-9 -6 -15 -29q-18 1 -44 36l-6 -3q16 -32 16 -38q0 -19 -18.5 -22.5t-18.5 -10.5q9 -3 28 -8q8 -8 8 -17q0 -11 -5 -25zM-2 255v168h449l-38 40l116 117l247 -251l-235 -234l-118 118l41 42h-462zM344 282h11l3 4q-5 9 -7 24q3 0 9 2t9 2t8.5 -1.5
t8.5 -1.5l7 1q-21 24 -21 28q0 6 28 23q-1 5 -7 5q-4 0 -11.5 -3t-11.5 -3q-6 0 -10 5q4 11 9 34q-15 -8 -24 -24h-22l-15 29q-2 -3 -8 -3l5 -20q2 -6 4 -9q0 -8 -39 -11q9 -7 25 -20q0 -2 2.5 -9t2.5 -11t-7.5 -12t-8.5 -12l6 -3q17 12 23 12t24 -7zM188 280q2 0 12.5 14
t27.5 14q8 0 31 -26q3 3 6 11q-23 19 -23 29q0 13 32 19q-11 6 -28 12l-13 19q0 5 2.5 14.5t2.5 14.5q-6 -4 -23 -21h-8q-5 9 -10 25l-11 -2q5 -22 5 -23q0 -5 -6 -7q-10 5 -28 21l-6 -5q21 -28 21 -30q0 -14 -30 -32q23 -4 38 -8zM65 280h9q2 9 7 26h8q8 -10 25 -21v5
q0 4 -2.5 11t-2.5 10q0 7 6 11q16 -9 34 -14q2 4 2 11q-32 15 -32 20q8 6 23 21l-20 2q-13 3 -13 10q0 4 6 10.5t6 10.5q0 5 -3 8q-8 -8 -25 -21q-4 2 -12 3q-6 9 -19 25q-2 -4 -2 -8q0 -2 1 -7.5t1 -8.5q0 -6 -5 -11q-8 10 -26 23q-2 -3 -5 -11l23 -23q-1 -6 -35 -13
q2 -3 20 -11q15 -6 15 -14q0 -4 -9.5 -13.5t-9.5 -13.5q0 -5 3 -7h8q12 20 21 20l4 -1l-1 -1v-28zM579 374q18 -14 21.5 -20.5t3.5 -26.5q-25 -5 -38 -12q5 -5 14 -5q5 0 29 5l1 -7q-5 -10 -15 -27q27 13 31 13q9 0 9 -16q0 -7 2 -12q4 -1 8 -1h2q3 17 4 26l15 4
q6 -5 19 -14l6 6q-14 18 -14 21q0 7 13 13q10 4 19 8q-9 3 -19 7t-12 10q8 6 23 19v5h-2q-4 0 -14 -5.5t-15 -5.5l-5 1l-6 46q-3 2 -6 2q-3 -9 -17 -44z" />
    <glyph glyph-name="bar" unicode="|" horiz-adv-x="645" 
d="M462 88l-176 93l-176 -93l33 197l-142 139l197 28l88 179l88 -179l197 -28l-142 -139zM364 408l-7 12q-7 -2 -22.5 -14.5t-21.5 -12.5q-5 0 -13 7q1 3 1 8q0 10 -4.5 32t-3.5 34l-12 3q-21 -30 -14 -73q-12 -7 -23 -7q-8 0 -23.5 6t-24.5 6q-8 0 -14 -1l12 -20
q1 -2 11 -15t10 -15q0 -8 -22 -23q-25 -17 -29 -25h11q8 1 11 1q57 0 57 -11q0 -2 -2.5 -14.5t-1.5 -14.5q0 -9 -6 -26.5t-6 -25.5q0 -3 2.5 -5t12.5 -4q4 13 18.5 34t24.5 21q11 0 27 -16.5t25 -15.5h1q-6 22 -6 46t5 40q23 6 78 38q-10 4 -39 5t-39 -1q-2 3 -2 5
q0 6 29 42z" />
    <glyph glyph-name="braceright" unicode="}" horiz-adv-x="825" 
d="M291 422q0 5 4 8l-29 16v4q0 6 3 11v-1v0q2 0 10 9.5t9 13.5q-23 -5 -26 -5q-24 0 -24 22q0 10 -8 18q-8 -21 -11 -25l-20 -14q-6 1 -22 9q-5 -5 -7 -10l21 -13q-2 -5 -5 -16q-7 -6 -21 -20q9 1 19 1q8 0 13 -3t5 -9t-10 -22l8 -8q5 10 21 28l7 -4h-1q0 -2 16 -28
q3 47 24 47q4 0 24 -9zM364 299q-17 12 -21.5 19.5t-4.5 26.5q26 6 39 12q-5 6 -14 6q-6 0 -29 -5l-1 7q5 9 15 26q-27 -12 -31 -12q-9 0 -9 16q0 7 -3 10t-7 3h-2q-2 -9 -4 -27l-15 -4q-6 6 -19 15l-5 -3q12 -22 12 -25q0 -15 -53 -18q18 -2 51 -15l2 -4q-8 -6 -24 -19
l1 -5h2q4 0 14 5.5t15 5.5l5 -1l6 -46q2 -2 6 -2q16 48 21 48q9 0 40 -19q-3 -5 -3 -7q3 -1 16 12zM275 277q0 1 -12 7q-2 -7 -10 -20q-18 6 -28 30q-9 21 -17 21h-3q3 -18 12 -47q-12 -7 -16 -12q-14 5 -43 12q4 -4 32 -22q0 -8 2 -23q-10 -6 -16 -12q3 -3 23 -3
q7 0 14.5 -6t7.5 -14q0 -4 -8 -21l7 -7q10 5 16 29q18 -1 44 -36l5 3q-16 32 -16 38q0 19 19 22.5t19 10.5q-18 5 -29 8q-7 8 -7 17q0 11 4 25zM772 420v-168l-450 -1l39 -39l-117 -117l-246 251l235 234l118 -119l-42 -41h463zM426 393h-11l-3 -4q4 -10 7 -24q-4 0 -9.5 -2
t-8.5 -2t-9 1.5t-8 1.5l-7 -1q21 -25 21 -28q0 -6 -28 -23q0 -5 7 -5q4 0 11 3t12 3q6 0 10 -5q-5 -12 -9 -34q15 8 24 24h22l15 -29q2 3 8 3l-6 20l-2 17l38 3l-25 20q-1 2 -3 9t-2 11q0 3 7.5 11.5t8.5 12.5l-6 3q-17 -12 -23 -12q-7 0 -24 7zM582 395q-3 -1 -13.5 -14.5
t-26.5 -13.5q-9 0 -31 26q-4 -4 -6 -11q23 -19 23 -29q0 -13 -32 -19q10 -6 28 -12l13 -19q0 -5 -2.5 -15t-2.5 -14q6 4 23 21h8q5 -10 10 -25l11 2q-5 21 -5 23q0 5 6 7q10 -6 28 -21l6 5q-21 28 -21 30q0 13 30 32q-13 2 -38 8zM705 395h-9q-2 -9 -7 -26h-8q-8 9 -25 21
v-5q0 -4 2.5 -11t2.5 -10q0 -8 -6 -11q-16 8 -34 14q-3 -5 -2 -11q31 -15 32 -20q-9 -7 -23 -21q9 -2 19 -3q14 -2 14 -9q0 -4 -6 -11t-6 -10q0 -6 3 -8q7 8 25 21q3 -2 12 -3q6 -10 19 -25q2 3 2 8q0 2 -1 7.5t-1 8.5q0 6 5 11q8 -11 26 -23q2 3 5 11l-23 23q0 7 14 10
q10 1 21 3q-3 3 -21 11q-14 6 -14 14q0 3 9.5 13t9.5 14q0 5 -3 7h-8q-12 -20 -21 -20q-1 0 -4 1l1 1v28zM190 301q-17 14 -21 20.5t-4 26.5q25 5 39 12q-5 5 -14 5q-6 0 -29 -5l-2 7q5 10 15 26q-26 -12 -30 -12q-10 0 -10 16q0 7 -1 11q-5 2 -8 2h-2q-4 -18 -4 -26l-15 -5
q-6 6 -20 15l-6 -6q14 -18 14 -21q0 -7 -13 -13q-9 -4 -19 -8q9 -3 19.5 -7t11.5 -10q-8 -6 -23 -19l1 -5h1q5 0 14.5 5.5t14.5 5.5l5 -1l7 -46q2 -2 6 -2q4 12 16 44z" />
    <glyph glyph-name="asciitilde" unicode="~" horiz-adv-x="403" 
d="M166 744q-27 2 -36.5 -1.5t-29.5 -23.5l-12 10q1 25 36 46q30 18 52 18q20 0 42 -12t42 -12q34 0 32 0q18 4 37 26q2 3 8.5 -4t5.5 -10q-8 -28 -37 -47q-25 -17 -48 -17q-22 0 -47 12.5t-45 14.5z" />
    <glyph glyph-name="Adieresis" unicode="&#xc4;" 
 />
    <glyph glyph-name="Aring" unicode="&#xc5;" 
 />
    <glyph glyph-name="Ccedilla" unicode="&#xc7;" 
 />
    <glyph glyph-name="Eacute" unicode="&#xc9;" 
 />
    <glyph glyph-name="Ntilde" unicode="&#xd1;" 
 />
    <glyph glyph-name="Odieresis" unicode="&#xd6;" 
 />
    <glyph glyph-name="Udieresis" unicode="&#xdc;" 
 />
    <glyph glyph-name="aacute" unicode="&#xe1;" horiz-adv-x="592" 
d="M509 1h-165q-2 9 -22 78h1h-5l-12 1h-112l-20 -78h-166v9l169 651h166zM318 591q-16 2 -33 11l24 26q0 5 -3 5q-1 0 -14.5 -10t-15.5 -10q-11 0 -18 13q-11 17 -14 19q1 -6 1 -11q0 -24 -17 -24q-4 0 -20 12l-3 -6q4 -7 13 -22v-3q-10 -3 -27 -14q32 -10 32 -19
q-6 -7 -18 -20q1 -2 2 -6h8q17 16 21 16q3 0 8 -18h9q0 10 10 13q8 -8 27 -20q0 5 -1.5 16t-1.5 16v7q4 0 11 -3t11 -3q3 0 6 2q-6 6 -18 19zM373 474q-2 0 -8.5 -1t-10.5 -1q-11 0 -11 12q0 13 4 24l-28 -15q-6 4 -6.5 16t-5.5 16q-1 -10 -1 -21q-2 -14 -10 -14
q-3 0 -29 12v-9q12 -15 12 -24q0 -7 -26 -36q8 2 15 2q10 0 16 -4q12 -9 13 -9v-5q0 -5 -3.5 -14.5t-3.5 -14.5q0 -3 2 -6q5 16 20 37q8 -9 19 -28q3 37 11 37q2 0 10 -4.5t10 -4.5q4 0 7 3q-2 9 -19 19v5q0 11 10.5 17t12.5 11zM401 364l-6 6q-6 -3 -17 -9q-12 0 -14 12.5
t-3 24.5q-22 -28 -28 -28q-2 0 -21 23q-3 -1 -8 -5q14 -21 14 -25q0 -7 -15 -9q-19 -2 -20 -2q30 -16 30 -37v-1q-17 -13 -20 -22h10q18 11 19 11q11 0 17 -34q7 11 14 23.5t20 12.5q4 0 11.5 -4.5t10.5 -4.5q4 0 6 3q-19 25 -19 29v13q0 7 19 23zM260 481v11
q-3 -1 -14.5 -6t-14.5 -5q-6 0 -6 34q-7 -2 -13.5 -13.5t-14.5 -11.5t-15 10.5t-14 12.5l-1 -5q0 -6 5.5 -14t6.5 -11l-6 -7l-16 6q-5 2 -7 4q-3 -2 -5 -7v-2q23 -12 23 -14q0 -7 -12.5 -15t-15.5 -13q16 1 19 1q14 0 16 -9q-19 -21 -19 -28q0 -4 3 -6q11 11 30 26l17 -28
q5 16 6 17q4 10 12 13q12 -12 20 -18q4 0 9 5q-16 26 -16 23q0 8 21 23v8q-7 1 -19 4q6 12 21 15zM440 212q-37 13 -37 29q6 16 14 34h-2q-5 0 -14.5 -12.5t-15.5 -12.5q-8 0 -15.5 10.5t-11.5 12.5q0 -31 -16 -43q-20 -2 -29 -1q28 -20 28 -26l-21 -21l6 -4q18 10 21 10
q8 0 8 -10l-14 -27l6 -3q6 9 12.5 17.5t18.5 8.5q11 0 29 -21v2q0 4 -1.5 12.5t-1.5 12.5q0 11 17 19t19 13zM297 200l-38 156q-12 -51 -38 -156h76zM237 332q-3 5 -16 5.5t-14 10.5q10 5 25 21l-5 6q-14 -7 -29 -14q-6 0 -18 13q-1 13 -6 24l-10 -24q-8 -13 -21 -13
q-5 0 -23 7q-2 -3 -3 -9q18 -17 18 -29q0 -10 -12 -21q-16 -14 -18 -17h11q16 11 25 11q11 0 13 -11.5t3 -22.5q8 10 16.5 20t19.5 10q1 0 11.5 -6t18.5 -6q-5 10 -16 30q0 4 4 7h4.5h4.5q13 0 17 8zM475 89v9h-33v12q6 7 14 23q-3 2 -6 2q-4 0 -11 -6t-12 -6q-4 2 -8 6
q3 7 3 16q0 11 -3 20q-6 -5 -8 -19t-7 -18h-6q-13 13 -22 16q0 -4 1.5 -13t1.5 -13q0 -9 -8 -9q-4 0 -22 7l-6 -8q10 -5 19 -10t9 -18q0 4 -19 -26q8 2 25 7l6 -2q-9 -16 -9 -18v-15q8 10 28 28q14 -28 19 -28q1 11 3 24t12 13q2 0 13 -6t13 -6q6 0 6 4q-9 7 -26 25
q6 2 33 9zM318 138q-7 0 -21 9q7 7 18 22q-16 -4 -21 -4q-8 0 -11 5q10 10 10 18q-13 -12 -20 -12q-13 0 -20 15q-2 1 -6 1q0 -30 -11 -30q-2 0 -7.5 3.5t-7.5 3.5q-5 0 -7 -8q8 -4 23 -14q-1 -5 -30 -18q2 -4 5 -8q2 0 7 1t8 1q12 0 12 -12q0 -3 -2 -9.5t-2 -10.5
q7 3 20 16h6q2 -4 7 -12q2 6 5 17h9q6 -5 19 -12q-3 13 -11 29q12 5 28 9zM207 216l-3 11q-4 0 -12.5 -1t-12.5 -1q-9 0 -9 11q0 -9 5 30q-9 -7 -17 -12.5t-24 -5.5q-4 0 -12 7q-11 11 -12 11q2 -6 2 -14q0 -24 -13 -36q-7 0 -21 -3v-9q6 -3 23 0q4 -7 4 -14q0 -5 -3.5 -15
t-3.5 -15q10 4 28 14q11 0 12.5 -14.5t10.5 -17.5v-1l-1 1v4v17q0 13 10 13q4 0 15 -6t15 -7l-10 18q-6 12 -6 9q0 11 9 22q16 4 26 4zM174 81q-30 6 -34 29q10 10 28 30l-6 4q-10 -8 -30 -23q-4 1 -6 4q0 15 -3 28q-9 -15 -11 -18q-7 -10 -17 -12q-8 13 -11 21h-8v-8
q0 -1 4.5 -7.5t4.5 -10.5q0 -10 -15 -12q-20 -2 -22 -4q23 -10 23 -17q0 -9 -19 -28l29 4q5 -2 8 -6q-4 -9 -14 -26l6 -3q6 10 22 25q5 0 25 -25q0 46 27 48q8 0 19 7zM140 727l170 101l43 -63l-190 -70z" />
    <glyph glyph-name="agrave" unicode="&#xe0;" horiz-adv-x="592" 
d="M509 1h-165q-2 9 -22 78h1h-5l-12 1h-112l-20 -78h-166v9l169 651h166zM318 591q-16 2 -33 11l24 26q0 5 -3 5q-1 0 -14.5 -10t-15.5 -10q-11 0 -18 13q-11 17 -14 19q1 -6 1 -11q0 -24 -17 -24q-4 0 -20 12l-3 -6q4 -7 13 -22v-3q-10 -3 -27 -14q32 -10 32 -19
q-6 -7 -18 -20q1 -2 2 -6h8q17 16 21 16q3 0 8 -18h9q0 10 10 13q8 -8 27 -20q0 5 -1.5 16t-1.5 16v7q4 0 11 -3t11 -3q3 0 6 2q-6 6 -18 19zM373 474q-2 0 -8.5 -1t-10.5 -1q-11 0 -11 12q0 13 4 24l-28 -15q-6 4 -6.5 16t-5.5 16q-1 -10 -1 -21q-2 -14 -10 -14
q-3 0 -29 12v-9q12 -15 12 -24q0 -7 -26 -36q8 2 15 2q10 0 16 -4q12 -9 13 -9v-5q0 -5 -3.5 -14.5t-3.5 -14.5q0 -3 2 -6q5 16 20 37q8 -9 19 -28q3 37 11 37q2 0 10 -4.5t10 -4.5q4 0 7 3q-2 9 -19 19v5q0 11 10.5 17t12.5 11zM401 364l-6 6q-6 -3 -17 -9q-12 0 -14 12.5
t-3 24.5q-22 -28 -28 -28q-2 0 -21 23q-3 -1 -8 -5q14 -21 14 -25q0 -7 -15 -9q-19 -2 -20 -2q30 -16 30 -37v-1q-17 -13 -20 -22h10q18 11 19 11q11 0 17 -34q7 11 14 23.5t20 12.5q4 0 11.5 -4.5t10.5 -4.5q4 0 6 3q-19 25 -19 29v13q0 7 19 23zM260 481v11
q-3 -1 -14.5 -6t-14.5 -5q-6 0 -6 34q-7 -2 -13.5 -13.5t-14.5 -11.5t-15 10.5t-14 12.5l-1 -5q0 -6 5.5 -14t6.5 -11l-6 -7l-16 6q-5 2 -7 4q-3 -2 -5 -7v-2q23 -12 23 -14q0 -7 -12.5 -15t-15.5 -13q16 1 19 1q14 0 16 -9q-19 -21 -19 -28q0 -4 3 -6q11 11 30 26l17 -28
q5 16 6 17q4 10 12 13q12 -12 20 -18q4 0 9 5q-16 26 -16 23q0 8 21 23v8q-7 1 -19 4q6 12 21 15zM440 212q-37 13 -37 29q6 16 14 34h-2q-5 0 -14.5 -12.5t-15.5 -12.5q-8 0 -15.5 10.5t-11.5 12.5q0 -31 -16 -43q-20 -2 -29 -1q28 -20 28 -26l-21 -21l6 -4q18 10 21 10
q8 0 8 -10l-14 -27l6 -3q6 9 12.5 17.5t18.5 8.5q11 0 29 -21v2q0 4 -1.5 12.5t-1.5 12.5q0 11 17 19t19 13zM297 200l-38 156q-12 -51 -38 -156h76zM237 332q-3 5 -16 5.5t-14 10.5q10 5 25 21l-5 6q-14 -7 -29 -14q-6 0 -18 13q-1 13 -6 24l-10 -24q-8 -13 -21 -13
q-5 0 -23 7q-2 -3 -3 -9q18 -17 18 -29q0 -10 -12 -21q-16 -14 -18 -17h11q16 11 25 11q11 0 13 -11.5t3 -22.5q8 10 16.5 20t19.5 10q1 0 11.5 -6t18.5 -6q-5 10 -16 30q0 4 4 7h4.5h4.5q13 0 17 8zM475 89v9h-33v12q6 7 14 23q-3 2 -6 2q-4 0 -11 -6t-12 -6q-4 2 -8 6
q3 7 3 16q0 11 -3 20q-6 -5 -8 -19t-7 -18h-6q-13 13 -22 16q0 -4 1.5 -13t1.5 -13q0 -9 -8 -9q-4 0 -22 7l-6 -8q10 -5 19 -10t9 -18q0 4 -19 -26q8 2 25 7l6 -2q-9 -16 -9 -18v-15q8 10 28 28q14 -28 19 -28q1 11 3 24t12 13q2 0 13 -6t13 -6q6 0 6 4q-9 7 -26 25
q6 2 33 9zM318 138q-7 0 -21 9q7 7 18 22q-16 -4 -21 -4q-8 0 -11 5q10 10 10 18q-13 -12 -20 -12q-13 0 -20 15q-2 1 -6 1q0 -30 -11 -30q-2 0 -7.5 3.5t-7.5 3.5q-5 0 -7 -8q8 -4 23 -14q-1 -5 -30 -18q2 -4 5 -8q2 0 7 1t8 1q12 0 12 -12q0 -3 -2 -9.5t-2 -10.5
q7 3 20 16h6q2 -4 7 -12q2 6 5 17h9q6 -5 19 -12q-3 13 -11 29q12 5 28 9zM207 216l-3 11q-4 0 -12.5 -1t-12.5 -1q-9 0 -9 11q0 -9 5 30q-9 -7 -17 -12.5t-24 -5.5q-4 0 -12 7q-11 11 -12 11q2 -6 2 -14q0 -24 -13 -36q-7 0 -21 -3v-9q6 -3 23 0q4 -7 4 -14q0 -5 -3.5 -15
t-3.5 -15q10 4 28 14q11 0 12.5 -14.5t10.5 -17.5v-1l-1 1v4v17q0 13 10 13q4 0 15 -6t15 -7l-10 18q-6 12 -6 9q0 11 9 22q16 4 26 4zM174 81q-30 6 -34 29q10 10 28 30l-6 4q-10 -8 -30 -23q-4 1 -6 4q0 15 -3 28q-9 -15 -11 -18q-7 -10 -17 -12q-8 13 -11 21h-8v-8
q0 -1 4.5 -7.5t4.5 -10.5q0 -10 -15 -12q-20 -2 -22 -4q23 -10 23 -17q0 -9 -19 -28l29 4q5 -2 8 -6q-4 -9 -14 -26l6 -3q6 10 22 25q5 0 25 -25q0 46 27 48q8 0 19 7zM373 727l-170 101l-43 -63l190 -70z" />
    <glyph glyph-name="acircumflex" unicode="&#xe2;" horiz-adv-x="592" 
d="M509 1h-165q-2 9 -22 78h1h-5l-12 1h-112l-20 -78h-166v9l169 651h166zM318 591q-16 2 -33 11l24 26q0 5 -3 5q-1 0 -14.5 -10t-15.5 -10q-11 0 -18 13q-11 17 -14 19q1 -6 1 -11q0 -24 -17 -24q-4 0 -20 12l-3 -6q4 -7 13 -22v-3q-10 -3 -27 -14q32 -10 32 -19
q-6 -7 -18 -20q1 -2 2 -6h8q17 16 21 16q3 0 8 -18h9q0 10 10 13q8 -8 27 -20q0 5 -1.5 16t-1.5 16v7q4 0 11 -3t11 -3q3 0 6 2q-6 6 -18 19zM373 474q-2 0 -8.5 -1t-10.5 -1q-11 0 -11 12q0 13 4 24l-28 -15q-6 4 -6.5 16t-5.5 16q-1 -10 -1 -21q-2 -14 -10 -14
q-3 0 -29 12v-9q12 -15 12 -24q0 -7 -26 -36q8 2 15 2q10 0 16 -4q12 -9 13 -9v-5q0 -5 -3.5 -14.5t-3.5 -14.5q0 -3 2 -6q5 16 20 37q8 -9 19 -28q3 37 11 37q2 0 10 -4.5t10 -4.5q4 0 7 3q-2 9 -19 19v5q0 11 10.5 17t12.5 11zM401 364l-6 6q-6 -3 -17 -9q-12 0 -14 12.5
t-3 24.5q-22 -28 -28 -28q-2 0 -21 23q-3 -1 -8 -5q14 -21 14 -25q0 -7 -15 -9q-19 -2 -20 -2q30 -16 30 -37v-1q-17 -13 -20 -22h10q18 11 19 11q11 0 17 -34q7 11 14 23.5t20 12.5q4 0 11.5 -4.5t10.5 -4.5q4 0 6 3q-19 25 -19 29v13q0 7 19 23zM260 481v11
q-3 -1 -14.5 -6t-14.5 -5q-6 0 -6 34q-7 -2 -13.5 -13.5t-14.5 -11.5t-15 10.5t-14 12.5l-1 -5q0 -6 5.5 -14t6.5 -11l-6 -7l-16 6q-5 2 -7 4q-3 -2 -5 -7v-2q23 -12 23 -14q0 -7 -12.5 -15t-15.5 -13q16 1 19 1q14 0 16 -9q-19 -21 -19 -28q0 -4 3 -6q11 11 30 26l17 -28
q5 16 6 17q4 10 12 13q12 -12 20 -18q4 0 9 5q-16 26 -16 23q0 8 21 23v8q-7 1 -19 4q6 12 21 15zM440 212q-37 13 -37 29q6 16 14 34h-2q-5 0 -14.5 -12.5t-15.5 -12.5q-8 0 -15.5 10.5t-11.5 12.5q0 -31 -16 -43q-20 -2 -29 -1q28 -20 28 -26l-21 -21l6 -4q18 10 21 10
q8 0 8 -10l-14 -27l6 -3q6 9 12.5 17.5t18.5 8.5q11 0 29 -21v2q0 4 -1.5 12.5t-1.5 12.5q0 11 17 19t19 13zM297 200l-38 156q-12 -51 -38 -156h76zM237 332q-3 5 -16 5.5t-14 10.5q10 5 25 21l-5 6q-14 -7 -29 -14q-6 0 -18 13q-1 13 -6 24l-10 -24q-8 -13 -21 -13
q-5 0 -23 7q-2 -3 -3 -9q18 -17 18 -29q0 -10 -12 -21q-16 -14 -18 -17h11q16 11 25 11q11 0 13 -11.5t3 -22.5q8 10 16.5 20t19.5 10q1 0 11.5 -6t18.5 -6q-5 10 -16 30q0 4 4 7h4.5h4.5q13 0 17 8zM475 89v9h-33v12q6 7 14 23q-3 2 -6 2q-4 0 -11 -6t-12 -6q-4 2 -8 6
q3 7 3 16q0 11 -3 20q-6 -5 -8 -19t-7 -18h-6q-13 13 -22 16q0 -4 1.5 -13t1.5 -13q0 -9 -8 -9q-4 0 -22 7l-6 -8q10 -5 19 -10t9 -18q0 4 -19 -26q8 2 25 7l6 -2q-9 -16 -9 -18v-15q8 10 28 28q14 -28 19 -28q1 11 3 24t12 13q2 0 13 -6t13 -6q6 0 6 4q-9 7 -26 25
q6 2 33 9zM318 138q-7 0 -21 9q7 7 18 22q-16 -4 -21 -4q-8 0 -11 5q10 10 10 18q-13 -12 -20 -12q-13 0 -20 15q-2 1 -6 1q0 -30 -11 -30q-2 0 -7.5 3.5t-7.5 3.5q-5 0 -7 -8q8 -4 23 -14q-1 -5 -30 -18q2 -4 5 -8q2 0 7 1t8 1q12 0 12 -12q0 -3 -2 -9.5t-2 -10.5
q7 3 20 16h6q2 -4 7 -12q2 6 5 17h9q6 -5 19 -12q-3 13 -11 29q12 5 28 9zM207 216l-3 11q-4 0 -12.5 -1t-12.5 -1q-9 0 -9 11q0 -9 5 30q-9 -7 -17 -12.5t-24 -5.5q-4 0 -12 7q-11 11 -12 11q2 -6 2 -14q0 -24 -13 -36q-7 0 -21 -3v-9q6 -3 23 0q4 -7 4 -14q0 -5 -3.5 -15
t-3.5 -15q10 4 28 14q11 0 12.5 -14.5t10.5 -17.5v-1l-1 1v4v17q0 13 10 13q4 0 15 -6t15 -7l-10 18q-6 12 -6 9q0 11 9 22q16 4 26 4zM174 81q-30 6 -34 29q10 10 28 30l-6 4q-10 -8 -30 -23q-4 1 -6 4q0 15 -3 28q-9 -15 -11 -18q-7 -10 -17 -12q-8 13 -11 21h-8v-8
q0 -1 4.5 -7.5t4.5 -10.5q0 -10 -15 -12q-20 -2 -22 -4q23 -10 23 -17q0 -9 -19 -28l29 4q5 -2 8 -6q-4 -9 -14 -26l6 -3q6 10 22 25q5 0 25 -25q0 46 27 48q8 0 19 7zM260 741l-118 -42l-18 25l136 81q62 -38 135 -81l-18 -25z" />
    <glyph glyph-name="adieresis" unicode="&#xe4;" horiz-adv-x="599" 
d="M509 1h-165q-2 9 -22 78h1h-5l-12 1h-112l-20 -78h-166v9l169 651h166zM318 591q-16 2 -33 11l24 26q0 5 -3 5q-1 0 -14.5 -10t-15.5 -10q-11 0 -18 13q-11 17 -14 19q1 -6 1 -11q0 -24 -17 -24q-4 0 -20 12l-3 -6q4 -7 13 -22v-3q-10 -3 -27 -14q32 -10 32 -19
q-6 -7 -18 -20q1 -2 2 -6h8q17 16 21 16q3 0 8 -18h9q0 10 10 13q8 -8 27 -20q0 5 -1.5 16t-1.5 16v7q4 0 11 -3t11 -3q3 0 6 2q-6 6 -18 19zM373 474q-2 0 -8.5 -1t-10.5 -1q-11 0 -11 12q0 13 4 24l-28 -15q-6 4 -6.5 16t-5.5 16q-1 -10 -1 -21q-2 -14 -10 -14
q-3 0 -29 12v-9q12 -15 12 -24q0 -7 -26 -36q8 2 15 2q10 0 16 -4q12 -9 13 -9v-5q0 -5 -3.5 -14.5t-3.5 -14.5q0 -3 2 -6q5 16 20 37q8 -9 19 -28q3 37 11 37q2 0 10 -4.5t10 -4.5q4 0 7 3q-2 9 -19 19v5q0 11 10.5 17t12.5 11zM401 364l-6 6q-6 -3 -17 -9q-12 0 -14 12.5
t-3 24.5q-22 -28 -28 -28q-2 0 -21 23q-3 -1 -8 -5q14 -21 14 -25q0 -7 -15 -9q-19 -2 -20 -2q30 -16 30 -37v-1q-17 -13 -20 -22h10q18 11 19 11q11 0 17 -34q7 11 14 23.5t20 12.5q4 0 11.5 -4.5t10.5 -4.5q4 0 6 3q-19 25 -19 29v13q0 7 19 23zM260 481v11
q-3 -1 -14.5 -6t-14.5 -5q-6 0 -6 34q-7 -2 -13.5 -13.5t-14.5 -11.5t-15 10.5t-14 12.5l-1 -5q0 -6 5.5 -14t6.5 -11l-6 -7l-16 6q-5 2 -7 4q-3 -2 -5 -7v-2q23 -12 23 -14q0 -7 -12.5 -15t-15.5 -13q16 1 19 1q14 0 16 -9q-19 -21 -19 -28q0 -4 3 -6q11 11 30 26l17 -28
q5 16 6 17q4 10 12 13q12 -12 20 -18q4 0 9 5q-16 26 -16 23q0 8 21 23v8q-7 1 -19 4q6 12 21 15zM440 212q-37 13 -37 29q6 16 14 34h-2q-5 0 -14.5 -12.5t-15.5 -12.5q-8 0 -15.5 10.5t-11.5 12.5q0 -31 -16 -43q-20 -2 -29 -1q28 -20 28 -26l-21 -21l6 -4q18 10 21 10
q8 0 8 -10l-14 -27l6 -3q6 9 12.5 17.5t18.5 8.5q11 0 29 -21v2q0 4 -1.5 12.5t-1.5 12.5q0 11 17 19t19 13zM297 200l-38 156q-12 -51 -38 -156h76zM237 332q-3 5 -16 5.5t-14 10.5q10 5 25 21l-5 6q-14 -7 -29 -14q-6 0 -18 13q-1 13 -6 24l-10 -24q-8 -13 -21 -13
q-5 0 -23 7q-2 -3 -3 -9q18 -17 18 -29q0 -10 -12 -21q-16 -14 -18 -17h11q16 11 25 11q11 0 13 -11.5t3 -22.5q8 10 16.5 20t19.5 10q1 0 11.5 -6t18.5 -6q-5 10 -16 30q0 4 4 7h4.5h4.5q13 0 17 8zM475 89v9h-33v12q6 7 14 23q-3 2 -6 2q-4 0 -11 -6t-12 -6q-4 2 -8 6
q3 7 3 16q0 11 -3 20q-6 -5 -8 -19t-7 -18h-6q-13 13 -22 16q0 -4 1.5 -13t1.5 -13q0 -9 -8 -9q-4 0 -22 7l-6 -8q10 -5 19 -10t9 -18q0 4 -19 -26q8 2 25 7l6 -2q-9 -16 -9 -18v-15q8 10 28 28q14 -28 19 -28q1 11 3 24t12 13q2 0 13 -6t13 -6q6 0 6 4q-9 7 -26 25
q6 2 33 9zM318 138q-7 0 -21 9q7 7 18 22q-16 -4 -21 -4q-8 0 -11 5q10 10 10 18q-13 -12 -20 -12q-13 0 -20 15q-2 1 -6 1q0 -30 -11 -30q-2 0 -7.5 3.5t-7.5 3.5q-5 0 -7 -8q8 -4 23 -14q-1 -5 -30 -18q2 -4 5 -8q2 0 7 1t8 1q12 0 12 -12q0 -3 -2 -9.5t-2 -10.5
q7 3 20 16h6q2 -4 7 -12q2 6 5 17h9q6 -5 19 -12q-3 13 -11 29q12 5 28 9zM207 216l-3 11q-4 0 -12.5 -1t-12.5 -1q-9 0 -9 11q0 -9 5 30q-9 -7 -17 -12.5t-24 -5.5q-4 0 -12 7q-11 11 -12 11q2 -6 2 -14q0 -24 -13 -36q-7 0 -21 -3v-9q6 -3 23 0q4 -7 4 -14q0 -5 -3.5 -15
t-3.5 -15q10 4 28 14q11 0 12.5 -14.5t10.5 -17.5v-1l-1 1v4v17q0 13 10 13q4 0 15 -6t15 -7l-10 18q-6 12 -6 9q0 11 9 22q16 4 26 4zM174 81q-30 6 -34 29q10 10 28 30l-6 4q-10 -8 -30 -23q-4 1 -6 4q0 15 -3 28q-9 -15 -11 -18q-7 -10 -17 -12q-8 13 -11 21h-8v-8
q0 -1 4.5 -7.5t4.5 -10.5q0 -10 -15 -12q-20 -2 -22 -4q23 -10 23 -17q0 -9 -19 -28l29 4q5 -2 8 -6q-4 -9 -14 -26l6 -3q6 10 22 25q5 0 25 -25q0 46 27 48q8 0 19 7zM292 752q0 18 13.5 31t31.5 13t31.5 -13t13.5 -31q0 -19 -13.5 -32t-31.5 -13t-31.5 13t-13.5 32z
M122 752q0 18 13.5 31t31.5 13t31.5 -13t13.5 -31q0 -19 -13.5 -32t-31.5 -13t-31.5 13t-13.5 32z" />
    <glyph glyph-name="atilde" unicode="&#xe3;" horiz-adv-x="599" 
d="M509 1h-165q-2 9 -22 78h1h-5l-12 1h-112l-20 -78h-166v9l169 651h166zM318 591q-16 2 -33 11l24 26q0 5 -3 5q-1 0 -14.5 -10t-15.5 -10q-11 0 -18 13q-11 17 -14 19q1 -6 1 -11q0 -24 -17 -24q-4 0 -20 12l-3 -6q4 -7 13 -22v-3q-10 -3 -27 -14q32 -10 32 -19
q-6 -7 -18 -20q1 -2 2 -6h8q17 16 21 16q3 0 8 -18h9q0 10 10 13q8 -8 27 -20q0 5 -1.5 16t-1.5 16v7q4 0 11 -3t11 -3q3 0 6 2q-6 6 -18 19zM373 474q-2 0 -8.5 -1t-10.5 -1q-11 0 -11 12q0 13 4 24l-28 -15q-6 4 -6.5 16t-5.5 16q-1 -10 -1 -21q-2 -14 -10 -14
q-3 0 -29 12v-9q12 -15 12 -24q0 -7 -26 -36q8 2 15 2q10 0 16 -4q12 -9 13 -9v-5q0 -5 -3.5 -14.5t-3.5 -14.5q0 -3 2 -6q5 16 20 37q8 -9 19 -28q3 37 11 37q2 0 10 -4.5t10 -4.5q4 0 7 3q-2 9 -19 19v5q0 11 10.5 17t12.5 11zM401 364l-6 6q-6 -3 -17 -9q-12 0 -14 12.5
t-3 24.5q-22 -28 -28 -28q-2 0 -21 23q-3 -1 -8 -5q14 -21 14 -25q0 -7 -15 -9q-19 -2 -20 -2q30 -16 30 -37v-1q-17 -13 -20 -22h10q18 11 19 11q11 0 17 -34q7 11 14 23.5t20 12.5q4 0 11.5 -4.5t10.5 -4.5q4 0 6 3q-19 25 -19 29v13q0 7 19 23zM260 481v11
q-3 -1 -14.5 -6t-14.5 -5q-6 0 -6 34q-7 -2 -13.5 -13.5t-14.5 -11.5t-15 10.5t-14 12.5l-1 -5q0 -6 5.5 -14t6.5 -11l-6 -7l-16 6q-5 2 -7 4q-3 -2 -5 -7v-2q23 -12 23 -14q0 -7 -12.5 -15t-15.5 -13q16 1 19 1q14 0 16 -9q-19 -21 -19 -28q0 -4 3 -6q11 11 30 26l17 -28
q5 16 6 17q4 10 12 13q12 -12 20 -18q4 0 9 5q-16 26 -16 23q0 8 21 23v8q-7 1 -19 4q6 12 21 15zM440 212q-37 13 -37 29q6 16 14 34h-2q-5 0 -14.5 -12.5t-15.5 -12.5q-8 0 -15.5 10.5t-11.5 12.5q0 -31 -16 -43q-20 -2 -29 -1q28 -20 28 -26l-21 -21l6 -4q18 10 21 10
q8 0 8 -10l-14 -27l6 -3q6 9 12.5 17.5t18.5 8.5q11 0 29 -21v2q0 4 -1.5 12.5t-1.5 12.5q0 11 17 19t19 13zM297 200l-38 156q-12 -51 -38 -156h76zM237 332q-3 5 -16 5.5t-14 10.5q10 5 25 21l-5 6q-14 -7 -29 -14q-6 0 -18 13q-1 13 -6 24l-10 -24q-8 -13 -21 -13
q-5 0 -23 7q-2 -3 -3 -9q18 -17 18 -29q0 -10 -12 -21q-16 -14 -18 -17h11q16 11 25 11q11 0 13 -11.5t3 -22.5q8 10 16.5 20t19.5 10q1 0 11.5 -6t18.5 -6q-5 10 -16 30q0 4 4 7h4.5h4.5q13 0 17 8zM475 89v9h-33v12q6 7 14 23q-3 2 -6 2q-4 0 -11 -6t-12 -6q-4 2 -8 6
q3 7 3 16q0 11 -3 20q-6 -5 -8 -19t-7 -18h-6q-13 13 -22 16q0 -4 1.5 -13t1.5 -13q0 -9 -8 -9q-4 0 -22 7l-6 -8q10 -5 19 -10t9 -18q0 4 -19 -26q8 2 25 7l6 -2q-9 -16 -9 -18v-15q8 10 28 28q14 -28 19 -28q1 11 3 24t12 13q2 0 13 -6t13 -6q6 0 6 4q-9 7 -26 25
q6 2 33 9zM318 138q-7 0 -21 9q7 7 18 22q-16 -4 -21 -4q-8 0 -11 5q10 10 10 18q-13 -12 -20 -12q-13 0 -20 15q-2 1 -6 1q0 -30 -11 -30q-2 0 -7.5 3.5t-7.5 3.5q-5 0 -7 -8q8 -4 23 -14q-1 -5 -30 -18q2 -4 5 -8q2 0 7 1t8 1q12 0 12 -12q0 -3 -2 -9.5t-2 -10.5
q7 3 20 16h6q2 -4 7 -12q2 6 5 17h9q6 -5 19 -12q-3 13 -11 29q12 5 28 9zM207 216l-3 11q-4 0 -12.5 -1t-12.5 -1q-9 0 -9 11q0 -9 5 30q-9 -7 -17 -12.5t-24 -5.5q-4 0 -12 7q-11 11 -12 11q2 -6 2 -14q0 -24 -13 -36q-7 0 -21 -3v-9q6 -3 23 0q4 -7 4 -14q0 -5 -3.5 -15
t-3.5 -15q10 4 28 14q11 0 12.5 -14.5t10.5 -17.5v-1l-1 1v4v17q0 13 10 13q4 0 15 -6t15 -7l-10 18q-6 12 -6 9q0 11 9 22q16 4 26 4zM174 81q-30 6 -34 29q10 10 28 30l-6 4q-10 -8 -30 -23q-4 1 -6 4q0 15 -3 28q-9 -15 -11 -18q-7 -10 -17 -12q-8 13 -11 21h-8v-8
q0 -1 4.5 -7.5t4.5 -10.5q0 -10 -15 -12q-20 -2 -22 -4q23 -10 23 -17q0 -9 -19 -28l29 4q5 -2 8 -6q-4 -9 -14 -26l6 -3q6 10 22 25q5 0 25 -25q0 46 27 48q8 0 19 7zM174 746q-17 0 -44 -27q-12 8 -12 10q0 23 32 43.5t56 20.5q16 0 47 -12.5t60 -12.5q17 0 33 14t15 14
q3 0 7.5 -6t4.5 -9q0 -21 -31.5 -42.5t-53.5 -21.5q-20 0 -56 14.5t-58 14.5z" />
    <glyph glyph-name="aring" unicode="&#xe5;" horiz-adv-x="592" 
d="M509 1h-165l-22 78l-128 1l-20 -78h-166v9l169 651h166zM318 591l-33 11l24 26l-4 5q-14 -11 -29 -20q-21 9 -32 32l1 -7l-17 -28l-20 12l-3 -6l13 -22v-3l-27 -14l21 -6l11 -13l-18 -20l2 -6h8l21 16l6 -6l2 -12h9l10 13l27 -20q-3 32 -3 34v5l22 -6l6 2l-18 19z
M373 474l-19 -2l-11 12l4 24l-28 -15q-7 20 -12 32l-1 -21l-10 -14l-29 12v-9l12 -24q-7 -21 -26 -36q14 2 15 2q16 0 29 -13v-2q0 -8 -7 -32l2 -6q8 20 20 37l19 -28v6q0 20 11 31l20 -9l7 3l-19 19v5q0 13 23 28zM401 364l-6 6l-17 -9l-15 13l-2 24q-9 -20 -28 -28
q-12 9 -21 23l-8 -5l20 -34l-12 -15l-29 13l30 -38l-20 -22h10l19 11l17 -34q7 21 34 36q12 -4 22 -9l6 3l-19 29v13q0 7 19 23zM260 481v11q-15 -6 -29 -11l-6 34q-13 -15 -28 -25q-16 10 -29 23l-1 -5q0 -8 12 -25l-6 -7l-23 10l-5 -9q13 -3 23 -14q-11 -16 -28 -28
q7 1 19 1l16 -9l-19 -28l3 -6l30 26l17 -28q3 19 18 30l20 -18l9 5q-9 12 -16 23q4 15 21 23v8l-19 4zM440 212l-37 15l14 48h-2q-14 -13 -30 -25q-17 9 -27 23v-2q0 -5 -16 -41l-29 -1q19 -10 28 -26q-9 -12 -21 -21l6 -4q9 6 21 10l8 -10l-14 -27l6 -3l13 18l18 8
q19 -3 29 -21v2l-3 25q14 21 36 32zM297 200l-38 156l-38 -156h76zM237 332l-21 6l-9 10l25 21l-5 6l-29 -14l-18 13l-6 24l-10 -23l-21 -14l-23 7l-3 -9l18 -29q-8 -22 -30 -38h11q11 5 25 11l14 -13l2 -21q13 23 36 30q11 -7 30 -12l-16 30l4 7h1q2 0 25 8zM475 89v9h-33
v12l14 23l-6 2q-10 -6 -23 -12l-8 6l3 16l-3 20q-9 -19 -15 -37h-6l-22 16l3 -26l-8 -9l-22 7l-6 -8l20 -10l8 -18q-9 -13 -19 -26l25 7l6 -2q-5 -8 -9 -18v-15l28 28q8 -17 19 -28l2 22l13 15l26 -12l6 4l-26 25zM318 138l-21 9l18 22l-21 -4l-11 5l10 18l-20 -12
q-21 16 -25 16h-1v-12l-11 -18l-15 7l-5 -3l-2 -5l23 -14q-12 -13 -30 -18l5 -8l15 2l12 -12q-5 -12 -4 -19v-1l20 16h6l7 -12l5 17h9l19 -12l-11 29zM207 216l-3 11l-25 -2l-9 11q2 17 5 30q-14 -18 -39 -18q-8 0 -26 18q2 -13 2 -14q0 -19 -4 -31l-30 -8v-9h23q2 -6 4 -14
q0 -2 -7 -30l28 14q13 -19 23 -32l-1 21l10 13q15 -6 30 -13l-16 27l9 22q12 3 26 4zM174 81l-34 29l28 30l-6 4l-30 -23l-6 4l-3 28q-7 -22 -28 -30l-11 21h-8v-8l1 -3q5 -8 8 -15q-23 -15 -37 -16l15 -6l8 -11q-4 -16 -19 -28l29 4l8 -6l-14 -26l6 -3q10 15 22 25l25 -25
l3 33q22 17 43 22zM261 843q32 0 55 -23t23 -54q0 -32 -23 -55t-55 -23q-31 0 -54 23t-23 55q0 31 23 54t54 23zM261 803q-15 0 -26 -11t-11 -26q0 -16 11 -27t26 -11q16 0 27 11t11 27q0 15 -11 26t-27 11z" />
    <glyph glyph-name="ccedilla" unicode="&#xe7;" horiz-adv-x="522" 
d="M351 551q-1 5 -13 11.5t-12 11.5q8 7 23 22q-33 4 -33 13q14 14 14 19q0 3 -5 8q-3 -2 -11 -10.5t-14 -8.5q-9 0 -16 9.5t-13 18.5q0 -23 -2 -32q-9 7 -28 21l-5 -6q20 -32 20 -28q0 -7 -32 -10q2 -6 17 -11.5t15 -15.5q0 -1 -9.5 -11.5t-10.5 -13.5q2 -5 5 -8
q30 20 26 20h3v-1v-12q-1 -7 -1 -11q0 -6 1 -10h9l7 28h8q8 -7 23 -19l4 1q-7 19 -7 23q0 6 6 8l24 -9q4 0 7 3zM397 515q-2 2 -6 3q-10 -7 -28 -23q-13 0 -19 28q-4 -1 -11 -19t-18 -18q-13 0 -28 4q-2 -2 -3 -8q23 -17 23 -22q0 -8 -23 -14v-11q30 5 25 5q6 0 20 -14
q13 14 19 14q3 0 7.5 -6t8.5 -6q7 0 8 6.5t2 12.5q11 0 16 10q-14 18 -14 26q0 4 21 32zM212 547l-25 19v6l2 2l1 -1q6 0 11 6q-7 4 -19 12q2 7 14 30l-5 3q-10 -5 -30 -16l-4 4q0 4 1 12t1 12l-8 2q-2 -3 -9 -25q-8 7 -24 16v-10q0 -3 3.5 -9t3.5 -7q0 -4 -8 -6
q-14 9 -25 9q-4 0 -7 -5q26 -16 26 -24q0 -7 -9.5 -16t-11.5 -15q10 2 22 2q8 0 17 -8q-2 -8 -4 -24l11 -2q2 11 4 14q4 8 11 9q16 -23 22 -23q0 22 -2 28q3 3 9 8q10 -4 30 -9zM418 204v9q-25 0 -21 0q-14 1 -14 12q0 -3 3 10l-1 2l-8 2q-19 -19 -25 -19q-4 0 -21 9
q-3 -10 -3 -15q4 -6 12 -13q-16 0 -30 12h-14l-3 -9q8 -3 23 -11q-7 -6 -18 -21q4 0 12 1t12 1q3 0 8 -6q-4 -6 -13 -18v-8q12 7 36 23q7 0 12.5 -15.5t10.5 -17.5q1 40 13 40q4 0 16 -7l6 5q-6 7 -16 17v6q14 9 23 11zM147 454v10h-15q-12 0 -12 13q0 1 11 29
q-19 -11 -31 -11q-1 0 -3 1q4 18 4 26l-8 3q-2 -11 -11 -30q-5 1 -16 8.5t-17 7.5q9 -18 9 -28q0 -12 -35 -31q9 -3 26 -6q4 -6 13 -18q-1 -2 -10 -19q-5 -10 -5 -21v-3q9 13 30 36q5 -11 12 -36q3 12 7 26t13 17q12 -11 19 -16q4 0 6 3q-5 8 -16 21q7 20 29 18zM150 329
l-3 11l-19 -4q-10 0 -11 17q1 -11 1 23q0 8 -2 11q-19 -20 -25 -20q-9 0 -14 11.5t-12 13.5v-3q0 -4 2.5 -13t2.5 -13q0 -7 -8 -8v0l-2 1l-5 1l-22 3q14 -19 16 -23q4 -10 4 -29q-10 -3 -25 -9v-8q4 -2 7 -2q4 0 12 4t12 4q7 0 9 -18l2 -24l5 1q14 32 34 32q2 0 11 -7t11 -7
q4 0 5 3q-8 16 -14 26q4 21 28 26zM346 99q-10 0 -20 1t-14 10l9 17l-8 8q-9 -13 -16 -19q-10 0 -19 8.5t-17 16.5v-14q0 -3 2 -8t2 -7q0 -1 -1 -3q-10 7 -30 19q-2 -5 -5 -8q8 -9 25 -25l-2 -7q-11 -1 -30 -7q2 -3 18 -9t16 -15q0 -2 -8 -12.5t-8 -12.5q0 -6 3 -8
q9 9 28 23l4 -4v-10q-1 -7 -1 -10q0 -6 1 -11h11v30h13l16 -16h10q-1 3 -5.5 12t-4.5 14q0 6 10 6q5 0 16 -4v11l-15 9v6q8 6 20 19zM155 177q-30 19 -30 37q0 5 23 33q-1 1 -4 1q-6 0 -18.5 -10.5t-14.5 -10.5q-10 0 -20 35q-17 -44 -30 -44q10 0 -28 5q20 -29 20 -27
q0 -10 -23 -13v-11q27 4 25 4q6 0 8 -7q-8 -9 -21 -26l5 -6q34 21 29 21q21 0 26 -25q9 0 9 27q9 11 20.5 13t23.5 4zM213 115q0 4 -3 6q-5 0 -15.5 -4t-15.5 -4l-6 2q4 8 9 23q-2 3 -10 6q-4 -8 -14 -21q-6 9 -19 21v-30h-8q-8 6 -24 14l-1 -5q0 -5 7 -11.5t7 -11.5
q0 -10 -12 -17q-15 -8 -18 -12q37 -7 37 -17q0 -2 -4 -7.5t-5 -7.5q2 -5 5 -8q24 14 20 14q4 0 7 -2q0 -24 14 -24q3 32 16 32q2 0 24 -16q3 5 3 9q-12 9 -18 20q1 3 4 6h15v11q-12 2 -16 11q7 8 21 23zM196 -12q-70 6 -129 63q-62 60 -62 129v286q0 85 69 148q66 61 151 61
q108 0 165 -81q49 -71 49 -182h-169q1 47 -3 62q-9 33 -44 33q-60 0 -60 -139q0 -35 4 -86.5t4 -56.5q-1 -74 47 -74q38 0 46 33q3 11 3 63h170l1 -23q4 -90 -50.5 -159t-145.5 -77l-10 -35q47 -17 47 -59q0 -35 -25.5 -58t-60.5 -23q-54 0 -84 39l26 27q13 -20 32 -20
q37 0 39 11q15 15 15 31q0 14 -11.5 23t-26.5 9q7 18 13 55zM180 550v0v0zM118 347h-1v0v1v4q1 -9 1 -5z" />
    <glyph glyph-name="eacute" unicode="&#xe9;" horiz-adv-x="438" 
d="M349 0h-347v662h346v-164h-179v-99h132v-134h-132v-101h180v-164zM322 599q-30 0 -35 5q7 8 21 23q-2 5 -5 8q-29 -21 -27 -21q-4 0 -8 2q0 13 -5 28q-3 -2 -9.5 -15t-15.5 -17l-26 20l-6 -5q5 -10 21 -26l-6 -6q-5 1 -23 1h-6q-4 -1 -6 -1l2 -9q18 -3 32 0v-12
q-8 -7 -21 -23h3.5h3.5q3 0 10 1.5t10 1.5q4 0 8 -4q-5 -14 -14 -35h11q13 27 20 27q6 0 13 -10.5t9 -12.5q4 35 13 35q7 -4 19 -14q4 0 8 2q-4 13 -19 22v14q9 7 28 21zM171 565q-10 3 -20 6.5t-12 12.5q21 10 28 20l-33 -2q-3 4 -11 13q4 8 14 24h-4q-6 0 -14 -10t-13 -10
q-13 0 -31 30q0 -37 -16 -37q-3 0 -19 9q1 -5 0 -13q9 -6 13 -14q-3 -7 -14.5 -11t-13.5 -10q4 -1 26 -4q9 -7 9 -11q-6 -10 -16 -24l6 -6q7 8 25 21q7 -7 8 -16q9 14 16 14q3 0 14 -9.5t13 -9.5q4 0 4 4q0 2 -1 7t-1 7q0 12 19 12q3 0 9.5 -2t9.5 -2q5 0 5 11zM292 327
q-14 4 -30 17q2 9 18 22v9l-27 -8q-4 -1 -3 -1q-4 0 -27 23q-2 -6 -12.5 -16t-15.5 -10q-3 0 -17 7t-18 8v-1q0 -6 14 -14.5t16 -13.5q-7 -5 -25 -9v-9q21 -3 30 -15q-17 -16 -17 -19t3 -5q2 1 11 7t11 6q21 0 17 -27h11q0 25 12 25q-3 0 30 -11q-9 19 -13 29q1 3 3 5
q2 0 8.5 -1t9.5 -1q5 0 11 3zM148 479h1q0 -1 -1 -1h-3h-17q-10 0 -15 5q7 8 21 23q0 6 -11 6q-7 -9 -22 -21q-4 3 -10 32q-4 -2 -11 -17t-15 -15l-27 21q-3 -3 -8 -11q8 -6 23 -20q-4 -2 -13 -5h2h-1l-5 1l-17 2l-3 -11q11 -2 30 -9v-8q-21 -14 -21 -21q0 -5 3 -6
q15 6 26 9q6 -5 6 -8t-5.5 -14t-5.5 -19l8 -3q6 12 21 32q8 -6 20 -25q2 11 3 21q3 14 11 14l21 -14l8 8q-21 17 -21 24q0 8 28 30zM143 349q-30 0 -18 -1q-10 1 -14 9q9 8 21 24l-6 6q-24 -21 -28 -21q-12 0 -19 10t-13 20q-6 -36 -10 -38q-19 -2 -37 -4v-1q0 -6 22 -19
q5 -16 5 -22v-3q-25 -18 -25 -26l8 -8l30 23q9 0 13.5 -11t7.5 -21q16 39 31 39q8 0 28 -5q-2 3 -21 23v9q11 3 25 17zM141 230q-2 3 -3 8l-21 -5q-5 -2 -7 -4q-7 0 -9 18q-2 12 -3 24q-14 -21 -14 -22q-9 -9 -24 -9q-4 0 -22 17l-6 -3l12 -27q0 -5 -6 -22q-7 -5 -22 -9
q0 -5 3 -13q8 2 23 7q3 -6 9 -14q0 -5 -2 -15t-2 -15q7 6 14.5 13t13.5 7q8 0 13 -11q7 -14 10 -17l6 3q-1 3 -4.5 11.5t-3.5 13.5q0 7 7 12l31 -9q-7 17 -21 24v20zM173 94q-17 -2 -47 -2q-1 0 -19 18l13 35h-8l-21 -30l-8 2q-2 10 -8 28q-7 -32 -17 -32q-3 0 -11.5 7.5
t-11.5 8.5l-5 -6q6 -6 16 -21q-4 -13 -11 -15h-21v-11q27 -3 27 -13q0 -3 -5 -15t-6 -16q20 11 32 11q1 0 3 -1q-5 -20 -5 -27v-1l6 -3q5 14 13 30q8 0 20.5 -13t24.5 -12h1v8q-7 8 -7 17q0 7 5 18.5t6 15.5q12 3 25 7q17 6 19 12zM323 91v8q-28 0 -28 11q0 3 4 9.5t5 9.5
q-3 6 -8 11l-21 -24q-21 0 -43 28q0 -11 -3 -35q-8 8 -28 21q-3 -5 -5 -10q10 -9 23 -26q-5 -6 -17 -7.5t-16 -3.5q3 -4 19 -10t16 -14q0 -5 -19 -28q3 -3 11 -8q7 8 21 23l5 -6q-1 -9 -1 -14q0 -6 2 -15h9q9 30 22 30h1q9 -9 27 -21v3q0 5 -3.5 13.5t-3.5 12.5q0 3 4 6
q8 -1 24 -4v11q-7 4 -16 15q7 4 19 14zM70 727l170 101l43 -63l-190 -70z" />
    <glyph glyph-name="egrave" unicode="&#xe8;" horiz-adv-x="438" 
d="M349 0h-347v662h346v-164h-179v-99h132v-134h-132v-101h180v-164zM322 599q-30 0 -35 5q7 8 21 23q-2 5 -5 8q-29 -21 -27 -21q-4 0 -8 2q0 13 -5 28q-3 -2 -9.5 -15t-15.5 -17l-26 20l-6 -5q5 -10 21 -26l-6 -6q-5 1 -23 1h-6q-4 -1 -6 -1l2 -9q18 -3 32 0v-12
q-8 -7 -21 -23h3.5h3.5q3 0 10 1.5t10 1.5q4 0 8 -4q-5 -14 -14 -35h11q13 27 20 27q6 0 13 -10.5t9 -12.5q4 35 13 35q7 -4 19 -14q4 0 8 2q-4 13 -19 22v14q9 7 28 21zM171 565q-10 3 -20 6.5t-12 12.5q21 10 28 20l-33 -2q-3 4 -11 13q4 8 14 24h-4q-6 0 -14 -10t-13 -10
q-13 0 -31 30q0 -37 -16 -37q-3 0 -19 9q1 -5 0 -13q9 -6 13 -14q-3 -7 -14.5 -11t-13.5 -10q4 -1 26 -4q9 -7 9 -11q-6 -10 -16 -24l6 -6q7 8 25 21q7 -7 8 -16q9 14 16 14q3 0 14 -9.5t13 -9.5q4 0 4 4q0 2 -1 7t-1 7q0 12 19 12q3 0 9.5 -2t9.5 -2q5 0 5 11zM292 327
q-14 4 -30 17q2 9 18 22v9l-27 -8q-4 -1 -3 -1q-4 0 -27 23q-2 -6 -12.5 -16t-15.5 -10q-3 0 -17 7t-18 8v-1q0 -6 14 -14.5t16 -13.5q-7 -5 -25 -9v-9q21 -3 30 -15q-17 -16 -17 -19t3 -5q2 1 11 7t11 6q21 0 17 -27h11q0 25 12 25q-3 0 30 -11q-9 19 -13 29q1 3 3 5
q2 0 8.5 -1t9.5 -1q5 0 11 3zM148 479h1q0 -1 -1 -1h-3h-17q-10 0 -15 5q7 8 21 23q0 6 -11 6q-7 -9 -22 -21q-4 3 -10 32q-4 -2 -11 -17t-15 -15l-27 21q-3 -3 -8 -11q8 -6 23 -20q-4 -2 -13 -5h2h-1l-5 1l-17 2l-3 -11q11 -2 30 -9v-8q-21 -14 -21 -21q0 -5 3 -6
q15 6 26 9q6 -5 6 -8t-5.5 -14t-5.5 -19l8 -3q6 12 21 32q8 -6 20 -25q2 11 3 21q3 14 11 14l21 -14l8 8q-21 17 -21 24q0 8 28 30zM143 349q-30 0 -18 -1q-10 1 -14 9q9 8 21 24l-6 6q-24 -21 -28 -21q-12 0 -19 10t-13 20q-6 -36 -10 -38q-19 -2 -37 -4v-1q0 -6 22 -19
q5 -16 5 -22v-3q-25 -18 -25 -26l8 -8l30 23q9 0 13.5 -11t7.5 -21q16 39 31 39q8 0 28 -5q-2 3 -21 23v9q11 3 25 17zM141 230q-2 3 -3 8l-21 -5q-5 -2 -7 -4q-7 0 -9 18q-2 12 -3 24q-14 -21 -14 -22q-9 -9 -24 -9q-4 0 -22 17l-6 -3l12 -27q0 -5 -6 -22q-7 -5 -22 -9
q0 -5 3 -13q8 2 23 7q3 -6 9 -14q0 -5 -2 -15t-2 -15q7 6 14.5 13t13.5 7q8 0 13 -11q7 -14 10 -17l6 3q-1 3 -4.5 11.5t-3.5 13.5q0 7 7 12l31 -9q-7 17 -21 24v20zM173 94q-17 -2 -47 -2q-1 0 -19 18l13 35h-8l-21 -30l-8 2q-2 10 -8 28q-7 -32 -17 -32q-3 0 -11.5 7.5
t-11.5 8.5l-5 -6q6 -6 16 -21q-4 -13 -11 -15h-21v-11q27 -3 27 -13q0 -3 -5 -15t-6 -16q20 11 32 11q1 0 3 -1q-5 -20 -5 -27v-1l6 -3q5 14 13 30q8 0 20.5 -13t24.5 -12h1v8q-7 8 -7 17q0 7 5 18.5t6 15.5q12 3 25 7q17 6 19 12zM323 91v8q-28 0 -28 11q0 3 4 9.5t5 9.5
q-3 6 -8 11l-21 -24q-21 0 -43 28q0 -11 -3 -35q-8 8 -28 21q-3 -5 -5 -10q10 -9 23 -26q-5 -6 -17 -7.5t-16 -3.5q3 -4 19 -10t16 -14q0 -5 -19 -28q3 -3 11 -8q7 8 21 23l5 -6q-1 -9 -1 -14q0 -6 2 -15h9q9 30 22 30h1q9 -9 27 -21v3q0 5 -3.5 13.5t-3.5 12.5q0 3 4 6
q8 -1 24 -4v11q-7 4 -16 15q7 4 19 14zM283 727l-170 101l-43 -63l190 -70z" />
    <glyph glyph-name="ecircumflex" unicode="&#xea;" horiz-adv-x="438" 
d="M349 0h-347v662h346v-164h-179v-99h132v-134h-132v-101h180v-164zM322 599q-30 0 -35 5q7 8 21 23q-2 5 -5 8q-29 -21 -27 -21q-4 0 -8 2q0 13 -5 28q-3 -2 -9.5 -15t-15.5 -17l-26 20l-6 -5q5 -10 21 -26l-6 -6q-5 1 -23 1h-6q-4 -1 -6 -1l2 -9q18 -3 32 0v-12
q-8 -7 -21 -23h3.5h3.5q3 0 10 1.5t10 1.5q4 0 8 -4q-5 -14 -14 -35h11q13 27 20 27q6 0 13 -10.5t9 -12.5q4 35 13 35q7 -4 19 -14q4 0 8 2q-4 13 -19 22v14q9 7 28 21zM171 565q-10 3 -20 6.5t-12 12.5q21 10 28 20l-33 -2q-3 4 -11 13q4 8 14 24h-4q-6 0 -14 -10t-13 -10
q-13 0 -31 30q0 -37 -16 -37q-3 0 -19 9q1 -5 0 -13q9 -6 13 -14q-3 -7 -14.5 -11t-13.5 -10q4 -1 26 -4q9 -7 9 -11q-6 -10 -16 -24l6 -6q7 8 25 21q7 -7 8 -16q9 14 16 14q3 0 14 -9.5t13 -9.5q4 0 4 4q0 2 -1 7t-1 7q0 12 19 12q3 0 9.5 -2t9.5 -2q5 0 5 11zM292 327
q-14 4 -30 17q2 9 18 22v9l-27 -8q-4 -1 -3 -1q-4 0 -27 23q-2 -6 -12.5 -16t-15.5 -10q-3 0 -17 7t-18 8v-1q0 -6 14 -14.5t16 -13.5q-7 -5 -25 -9v-9q21 -3 30 -15q-17 -16 -17 -19t3 -5q2 1 11 7t11 6q21 0 17 -27h11q0 25 12 25q-3 0 30 -11q-9 19 -13 29q1 3 3 5
q2 0 8.5 -1t9.5 -1q5 0 11 3zM148 479h1q0 -1 -1 -1h-3h-17q-10 0 -15 5q7 8 21 23q0 6 -11 6q-7 -9 -22 -21q-4 3 -10 32q-4 -2 -11 -17t-15 -15l-27 21q-3 -3 -8 -11q8 -6 23 -20q-4 -2 -13 -5h2h-1l-5 1l-17 2l-3 -11q11 -2 30 -9v-8q-21 -14 -21 -21q0 -5 3 -6
q15 6 26 9q6 -5 6 -8t-5.5 -14t-5.5 -19l8 -3q6 12 21 32q8 -6 20 -25q2 11 3 21q3 14 11 14l21 -14l8 8q-21 17 -21 24q0 8 28 30zM143 349q-30 0 -18 -1q-10 1 -14 9q9 8 21 24l-6 6q-24 -21 -28 -21q-12 0 -19 10t-13 20q-6 -36 -10 -38q-19 -2 -37 -4v-1q0 -6 22 -19
q5 -16 5 -22v-3q-25 -18 -25 -26l8 -8l30 23q9 0 13.5 -11t7.5 -21q16 39 31 39q8 0 28 -5q-2 3 -21 23v9q11 3 25 17zM141 230q-2 3 -3 8l-21 -5q-5 -2 -7 -4q-7 0 -9 18q-2 12 -3 24q-14 -21 -14 -22q-9 -9 -24 -9q-4 0 -22 17l-6 -3l12 -27q0 -5 -6 -22q-7 -5 -22 -9
q0 -5 3 -13q8 2 23 7q3 -6 9 -14q0 -5 -2 -15t-2 -15q7 6 14.5 13t13.5 7q8 0 13 -11q7 -14 10 -17l6 3q-1 3 -4.5 11.5t-3.5 13.5q0 7 7 12l31 -9q-7 17 -21 24v20zM173 94q-17 -2 -47 -2q-1 0 -19 18l13 35h-8l-21 -30l-8 2q-2 10 -8 28q-7 -32 -17 -32q-3 0 -11.5 7.5
t-11.5 8.5l-5 -6q6 -6 16 -21q-4 -13 -11 -15h-21v-11q27 -3 27 -13q0 -3 -5 -15t-6 -16q20 11 32 11q1 0 3 -1q-5 -20 -5 -27v-1l6 -3q5 14 13 30q8 0 20.5 -13t24.5 -12h1v8q-7 8 -7 17q0 7 5 18.5t6 15.5q12 3 25 7q17 6 19 12zM323 91v8q-28 0 -28 11q0 3 4 9.5t5 9.5
q-3 6 -8 11l-21 -24q-21 0 -43 28q0 -11 -3 -35q-8 8 -28 21q-3 -5 -5 -10q10 -9 23 -26q-5 -6 -17 -7.5t-16 -3.5q3 -4 19 -10t16 -14q0 -5 -19 -28q3 -3 11 -8q7 8 21 23l5 -6q-1 -9 -1 -14q0 -6 2 -15h9q9 30 22 30h1q9 -9 27 -21v3q0 5 -3.5 13.5t-3.5 12.5q0 3 4 6
q8 -1 24 -4v11q-7 4 -16 15q7 4 19 14zM180 741l-118 -42l-18 25l136 81q62 -38 135 -81l-18 -25z" />
    <glyph glyph-name="edieresis" unicode="&#xeb;" horiz-adv-x="438" 
d="M349 0h-347v662h346v-164h-179v-99h132v-134h-132v-101h180v-164zM322 599h-25q-5 0 -10 5q20 23 21 23q0 3 -5 8q-1 0 -12.5 -10.5t-14.5 -10.5q-6 0 -8 2q0 13 -5 28q-3 -2 -9.5 -15t-15.5 -17q-9 7 -26 20l-6 -5q5 -10 21 -26l-6 -6q-5 1 -10 1h-13q-8 -1 -12 -1l2 -9
q9 -1 17 -1t15 1v-12q-8 -7 -21 -23h4q4 -1 12 1t11 2q4 0 8 -4q-2 -6 -14 -35h11q14 27 20 27t13 -10.5t9 -12.5q3 35 13 35q20 -13 19 -14q6 0 8 2q-4 13 -19 22v14q9 7 28 21zM171 565q-1 1 -19 6q-11 3 -13 13q21 10 28 20l-33 -2q-1 2 -11 13q4 8 14 24h-4
q-5 0 -14 -10t-13 -10q-13 0 -31 30v-8q0 -29 -16 -29q-3 0 -19 9q1 -5 0 -13q9 -6 13 -14q-3 -7 -14.5 -11t-13.5 -10q4 -1 26 -4q9 -7 9 -11q0 -2 -16 -24l6 -6q7 8 25 21q7 -7 8 -16q9 14 16 14q4 0 14 -9.5t13 -9.5q4 0 4 4q0 2 -1 7t-1 7q0 12 19 12q3 0 9.5 -2t9.5 -2
q5 0 5 11zM292 327q-14 4 -30 17q2 9 18 22v9q-34 -9 -30 -9q-4 0 -27 23q-2 -6 -12.5 -16t-15.5 -10q-3 0 -17 7t-18 8v-1q0 -5 14 -14.5t16 -13.5q-7 -5 -25 -9v-9q21 -3 30 -15q-17 -16 -17 -19q0 -5 3 -5q2 0 10.5 6.5t11.5 6.5q21 0 17 -27h11v11q0 14 12 14
q-3 0 30 -11q-13 27 -13 29t3 5q3 0 9 -1t9 -1q5 0 11 3zM148 479q5 -1 -20 -1q-10 0 -15 5q20 23 21 23q0 6 -11 6q-7 -9 -22 -21q-4 3 -10 32q-4 -2 -11 -17t-15 -15q-3 3 -27 21q-3 -3 -8 -11q8 -6 23 -20l-6 -2q-4 -3 -7 -3q9 0 -21 3l-3 -11q11 -2 30 -9v-8
q-21 -14 -21 -21t3 -6q15 6 26 9q6 -5 6 -8t-5.5 -14t-5.5 -19l8 -3q6 12 21 32q8 -6 20 -25q2 11 3 21q3 14 11 14l21 -14l8 8q-21 17 -21 24q0 8 28 30zM143 349h-23q-5 0 -9 8q9 8 21 24l-6 6q-21 -21 -28 -21q-14 0 -20 11q-10 17 -12 19q-1 -1 -3 -21t-26 -20h-4
q-9 0 -14 -1q-1 -7 22 -20q6 -18 5 -23v-2q-25 -18 -25 -26q1 -2 8 -8l30 23q9 0 13.5 -11t7.5 -21q16 39 31 39q8 0 28 -5q-2 3 -21 23v9q11 3 25 17zM141 230q-2 3 -3 8q-36 -9 -28 -9q-8 0 -9.5 19.5t-2.5 22.5q-13 -20 -14 -22q-9 -9 -24 -9q-4 0 -22 17l-6 -3
q11 -27 12 -27q0 -5 -6 -22q-7 -5 -22 -9q0 -5 3 -13q8 2 23 7q9 -17 9 -14q0 -5 -2 -15t-2 -15q2 1 11.5 10.5t16.5 9.5q10 0 12 -9q3 -12 11 -19l6 3q0 3 -4 11.5t-4 13.5q0 7 7 12q10 -3 31 -9q-7 17 -21 24v20q10 6 28 17zM173 94q-17 -2 -47 -2q-5 0 -10 7q-8 10 -9 11
q4 11 13 35h-8l-21 -30l-8 2q-2 10 -8 28q-7 -32 -17 -32q-4 0 -11.5 7.5t-11.5 8.5l-5 -6q6 -6 16 -21q-4 -14 -12 -15h-20v-11q27 -3 27 -13q0 -3 -5 -15t-6 -16q20 11 32 11l3 -1q-5 -20 -5 -27v-1l6 -3q4 9 11 28q1 2 2 2q8 0 21 -13t25 -12v8q-7 8 -7 17q0 7 5.5 18.5
t5.5 15.5q12 3 25 7q17 5 19 12zM323 91v8h-13q-15 0 -15 11q0 4 4.5 10t4.5 9t-8 11q-23 -24 -21 -24q-21 0 -43 28q0 -11 -3 -35q-8 8 -28 21q-2 -2 -5 -10q10 -9 23 -26q-6 -6 -16 -8q-14 -1 -17 -3q3 -4 19 -10t16 -14q0 -9 -19 -28q3 -3 11 -8q7 8 21 23l5 -6
q-1 -9 -1 -14q0 -6 2 -15h9q9 31 23 30q9 -9 27 -21v3q0 5 -3.5 13.5t-3.5 12.5q0 3 4 6q8 -1 24 -4v11q-7 4 -16 15q7 4 19 14zM212 752q0 18 13 31t32 13t32 -13t13 -31q0 -19 -13 -32t-32 -13t-32 13t-13 32zM42 752q0 18 13 31t32 13t32 -13t13 -31q0 -19 -13 -32
t-32 -13t-32 13t-13 32z" />
    <glyph glyph-name="iacute" unicode="&#xed;" horiz-adv-x="277" 
d="M177 -3h-168v663h168v-663zM159 576v11l-13 -1q-15 -1 -15 13q2 6 14 29q-3 0 -14.5 -5.5t-15.5 -5.5t-7 4q0 4 2 11.5t2 11.5q0 5 -3 8q-4 -2 -8 -17t-11 -15q-3 0 -14.5 8.5t-13.5 9.5v-10q0 -4 2.5 -10.5t2.5 -10.5q0 -16 -15 -21q-20 -7 -23 -12q8 -2 31 -4
q10 -15 11 -18q0 -3 -8.5 -15.5t-7.5 -21.5h8q7 10 19 30h6q3 -10 10 -30q10 33 18 33q4 0 11 -7l10 -10l6 6q-1 3 -7.5 11t-6.5 11q0 19 30 17zM157 466v11l-4 3q-9 -5 -24 -7v2q0 2 -1.5 5.5t-1.5 5.5q-1 4 0 11q2 8 2 11l-1 7q-24 -21 -28 -21q-6 0 -23 28q-5 -1 -5 -7
q0 -4 3 -11.5t3 -11.5q0 -6 -5 -10q-11 4 -34 9q8 -15 24 -24v-22q-10 -5 -29 -15q3 -2 3 -8q36 9 29 9q7 0 9 -6v-10q0 -4 1 -11.5t1 -11.5q2 1 20 25q3 0 9.5 2.5t10.5 2.5t12 -7.5t12 -8.5l3 6q-12 17 -12 23t7 24q8 3 19 7zM159 310q0 2 -14 12.5t-14 27.5q0 8 26 31
q-3 3 -11 6q-19 -23 -29 -23q-13 0 -19 32q-2 -2 -12 -28l-19 -13q-5 0 -14.5 2.5t-14.5 2.5q4 -6 21 -23v-8q-9 -5 -25 -10l2 -11q21 5 23 5q5 0 7 -6q-5 -10 -21 -28l5 -6q21 21 30 21q14 0 32 -30q7 37 8 38q19 4 39 8zM159 187v9q-9 2 -26 7v8q10 8 21 25h-5
q-4 0 -11 -2.5t-10 -2.5q-7 0 -11 6q9 16 14 34q-4 2 -11 2q-14 -32 -20 -32q-6 8 -21 23q-1 -3 -2.5 -18t-9.5 -15q-4 0 -10.5 6t-10.5 6q-5 0 -8 -3q21 -21 21 -25q0 -2 -1.5 -6t-1.5 -6q-9 -6 -25 -19q4 -2 8 -2q3 0 8 1t8 1q6 0 11 -5q-10 -8 -23 -26q3 -2 11 -5l23 23
q8 -1 10 -15l3 -20q3 2 11 20q7 15 14 15q4 0 13.5 -9.5t13.5 -9.5q5 0 7 3v8q-20 12 -20 21l1 4l1 -1h28zM157 89q-3 1 -8 5q-2 -2 -4 -2q-23 0 -23 13q0 4 7 12t7 11q0 5 -3 6q-9 -7 -26 -21q-2 1 -6 4v14q-7 -5 -20 -16q-1 1 -15 10q-10 7 -15 7q-1 0 -4 -1
q12 -29 12 -33q0 -2 -1 -4q-17 5 -23 6q-4 0 -6 -7l21 -14q-8 -6 -21 -21h19q9 0 13 -7q-16 -32 -16 -28q0 -5 3 -5q2 1 14 13t13 12q11 0 18.5 -13t13.5 -17q1 12 3 24.5t13 12.5q3 0 19 -9q2 3 8 11q-2 1 -12 6.5t-9 9.5v1q10 6 28 20zM-30 727l170 101l43 -63l-190 -70z
" />
    <glyph glyph-name="igrave" unicode="&#xec;" horiz-adv-x="277" 
d="M177 -3h-168v663h168v-663zM159 576v11l-13 -1q-15 -1 -15 13q2 6 14 29q-3 0 -14.5 -5.5t-15.5 -5.5t-7 4q0 4 2 11.5t2 11.5q0 5 -3 8q-4 -2 -8 -17t-11 -15q-3 0 -14.5 8.5t-13.5 9.5v-10q0 -4 2.5 -10.5t2.5 -10.5q0 -16 -15 -21q-20 -7 -23 -12q8 -2 31 -4
q10 -15 11 -18q0 -3 -8.5 -15.5t-7.5 -21.5h8q7 10 19 30h6q3 -10 10 -30q10 33 18 33q4 0 11 -7l10 -10l6 6q-1 3 -7.5 11t-6.5 11q0 19 30 17zM157 466v11l-4 3q-9 -5 -24 -7v2q0 2 -1.5 5.5t-1.5 5.5q-1 4 0 11q2 8 2 11l-1 7q-24 -21 -28 -21q-6 0 -23 28q-5 -1 -5 -7
q0 -4 3 -11.5t3 -11.5q0 -6 -5 -10q-11 4 -34 9q8 -15 24 -24v-22q-10 -5 -29 -15q3 -2 3 -8q36 9 29 9q7 0 9 -6v-10q0 -4 1 -11.5t1 -11.5q2 1 20 25q3 0 9.5 2.5t10.5 2.5t12 -7.5t12 -8.5l3 6q-12 17 -12 23t7 24q8 3 19 7zM159 310q0 2 -14 12.5t-14 27.5q0 8 26 31
q-3 3 -11 6q-19 -23 -29 -23q-13 0 -19 32q-2 -2 -12 -28l-19 -13q-5 0 -14.5 2.5t-14.5 2.5q4 -6 21 -23v-8q-9 -5 -25 -10l2 -11q21 5 23 5q5 0 7 -6q-5 -10 -21 -28l5 -6q21 21 30 21q14 0 32 -30q7 37 8 38q19 4 39 8zM159 187v9q-9 2 -26 7v8q10 8 21 25h-5
q-4 0 -11 -2.5t-10 -2.5q-7 0 -11 6q9 16 14 34q-4 2 -11 2q-14 -32 -20 -32q-6 8 -21 23q-1 -3 -2.5 -18t-9.5 -15q-4 0 -10.5 6t-10.5 6q-5 0 -8 -3q21 -21 21 -25q0 -2 -1.5 -6t-1.5 -6q-9 -6 -25 -19q4 -2 8 -2q3 0 8 1t8 1q6 0 11 -5q-10 -8 -23 -26q3 -2 11 -5l23 23
q8 -1 10 -15l3 -20q3 2 11 20q7 15 14 15q4 0 13.5 -9.5t13.5 -9.5q5 0 7 3v8q-20 12 -20 21l1 4l1 -1h28zM157 89q-3 1 -8 5q-2 -2 -4 -2q-23 0 -23 13q0 4 7 12t7 11q0 5 -3 6q-9 -7 -26 -21q-2 1 -6 4v14q-7 -5 -20 -16q-1 1 -15 10q-10 7 -15 7q-1 0 -4 -1
q12 -29 12 -33q0 -2 -1 -4q-17 5 -23 6q-4 0 -6 -7l21 -14q-8 -6 -21 -21h19q9 0 13 -7q-16 -32 -16 -28q0 -5 3 -5q2 1 14 13t13 12q11 0 18.5 -13t13.5 -17q1 12 3 24.5t13 12.5q3 0 19 -9q2 3 8 11q-2 1 -12 6.5t-9 9.5v1q10 6 28 20zM203 727l-170 101l-43 -63l190 -70z
" />
    <glyph glyph-name="icircumflex" unicode="&#xee;" horiz-adv-x="277" 
d="M177 -3h-168v663h168v-663zM159 576v11l-13 -1q-15 -1 -15 13q2 6 14 29q-3 0 -14.5 -5.5t-15.5 -5.5t-7 4q0 4 2 11.5t2 11.5q0 5 -3 8q-4 -2 -8 -17t-11 -15q-3 0 -14.5 8.5t-13.5 9.5v-10q0 -4 2.5 -10.5t2.5 -10.5q0 -16 -15 -21q-20 -7 -23 -12q8 -2 31 -4
q10 -15 11 -18q0 -3 -8.5 -15.5t-7.5 -21.5h8q7 10 19 30h6q3 -10 10 -30q10 33 18 33q4 0 11 -7l10 -10l6 6q-1 3 -7.5 11t-6.5 11q0 19 30 17zM157 466v11l-4 3q-9 -5 -24 -7v2q0 2 -1.5 5.5t-1.5 5.5q-1 4 0 11q2 8 2 11l-1 7q-24 -21 -28 -21q-6 0 -23 28q-5 -1 -5 -7
q0 -4 3 -11.5t3 -11.5q0 -6 -5 -10q-11 4 -34 9q8 -15 24 -24v-22q-10 -5 -29 -15q3 -2 3 -8q36 9 29 9q7 0 9 -6v-10q0 -4 1 -11.5t1 -11.5q2 1 20 25q3 0 9.5 2.5t10.5 2.5t12 -7.5t12 -8.5l3 6q-12 17 -12 23t7 24q8 3 19 7zM159 310q0 2 -14 12.5t-14 27.5q0 8 26 31
q-3 3 -11 6q-19 -23 -29 -23q-13 0 -19 32q-2 -2 -12 -28l-19 -13q-5 0 -14.5 2.5t-14.5 2.5q4 -6 21 -23v-8q-9 -5 -25 -10l2 -11q21 5 23 5q5 0 7 -6q-5 -10 -21 -28l5 -6q21 21 30 21q14 0 32 -30q7 37 8 38q19 4 39 8zM159 187v9q-9 2 -26 7v8q10 8 21 25h-5
q-4 0 -11 -2.5t-10 -2.5q-7 0 -11 6q9 16 14 34q-4 2 -11 2q-14 -32 -20 -32q-6 8 -21 23q-1 -3 -2.5 -18t-9.5 -15q-4 0 -10.5 6t-10.5 6q-5 0 -8 -3q21 -21 21 -25q0 -2 -1.5 -6t-1.5 -6q-9 -6 -25 -19q4 -2 8 -2q3 0 8 1t8 1q6 0 11 -5q-10 -8 -23 -26q3 -2 11 -5l23 23
q8 -1 10 -15l3 -20q3 2 11 20q7 15 14 15q4 0 13.5 -9.5t13.5 -9.5q5 0 7 3v8q-20 12 -20 21l1 4l1 -1h28zM157 89q-3 1 -8 5q-2 -2 -4 -2q-23 0 -23 13q0 4 7 12t7 11q0 5 -3 6q-9 -7 -26 -21q-2 1 -6 4v14q-7 -5 -20 -16q-1 1 -15 10q-10 7 -15 7q-1 0 -4 -1
q12 -29 12 -33q0 -2 -1 -4q-17 5 -23 6q-4 0 -6 -7l21 -14q-8 -6 -21 -21h19q9 0 13 -7q-16 -32 -16 -28q0 -5 3 -5q2 1 14 13t13 12q11 0 18.5 -13t13.5 -17q1 12 3 24.5t13 12.5q3 0 19 -9q2 3 8 11q-2 1 -12 6.5t-9 9.5v1q10 6 28 20zM90 741l-118 -42l-18 25l135 81h1v0
l1 -1l134 -80l-18 -25z" />
    <glyph glyph-name="idieresis" unicode="&#xef;" horiz-adv-x="277" 
d="M177 -3h-168v663h168v-663zM159 576v11l-13 -1q-15 -1 -15 13q2 6 14 29q-3 0 -14.5 -5.5t-15.5 -5.5t-7 4q0 4 2 11.5t2 11.5q0 5 -3 8q-4 -2 -8 -17t-11 -15q-3 0 -14.5 8.5t-13.5 9.5v-10q0 -4 2.5 -10.5t2.5 -10.5q0 -16 -15 -21q-20 -7 -23 -12q8 -2 31 -4
q10 -15 11 -18q0 -3 -8.5 -15.5t-7.5 -21.5h8q7 10 19 30h6q3 -10 10 -30q10 33 18 33q4 0 11 -7l10 -10l6 6q-1 3 -7.5 11t-6.5 11q0 19 30 17zM157 466v11l-4 3q-9 -5 -24 -7v2q0 2 -1.5 5.5t-1.5 5.5q-1 4 0 11q2 8 2 11l-1 7q-24 -21 -28 -21q-6 0 -23 28q-5 -1 -5 -7
q0 -4 3 -11.5t3 -11.5q0 -6 -5 -10q-11 4 -34 9q8 -15 24 -24v-22q-10 -5 -29 -15q3 -2 3 -8q36 9 29 9q7 0 9 -6v-10q0 -4 1 -11.5t1 -11.5q2 1 20 25q3 0 9.5 2.5t10.5 2.5t12 -7.5t12 -8.5l3 6q-12 17 -12 23t7 24q8 3 19 7zM159 310q0 2 -14 12.5t-14 27.5q0 8 26 31
q-3 3 -11 6q-19 -23 -29 -23q-13 0 -19 32q-2 -2 -12 -28l-19 -13q-5 0 -14.5 2.5t-14.5 2.5q4 -6 21 -23v-8q-9 -5 -25 -10l2 -11q21 5 23 5q5 0 7 -6q-5 -10 -21 -28l5 -6q21 21 30 21q14 0 32 -30q7 37 8 38q19 4 39 8zM159 187v9q-9 2 -26 7v8q10 8 21 25h-5
q-4 0 -11 -2.5t-10 -2.5q-7 0 -11 6q9 16 14 34q-4 2 -11 2q-14 -32 -20 -32q-6 8 -21 23q-1 -3 -2.5 -18t-9.5 -15q-4 0 -10.5 6t-10.5 6q-5 0 -8 -3q21 -21 21 -25q0 -2 -1.5 -6t-1.5 -6q-9 -6 -25 -19q4 -2 8 -2q3 0 8 1t8 1q6 0 11 -5q-10 -8 -23 -26q3 -2 11 -5l23 23
q8 -1 10 -15l3 -20q3 2 11 20q7 15 14 15q4 0 13.5 -9.5t13.5 -9.5q5 0 7 3v8q-20 12 -20 21l1 4l1 -1h28zM157 89q-3 1 -8 5q-2 -2 -4 -2q-23 0 -23 13q0 4 7 12t7 11q0 5 -3 6q-9 -7 -26 -21q-2 1 -6 4v14q-7 -5 -20 -16q-1 1 -15 10q-10 7 -15 7q-1 0 -4 -1
q12 -29 12 -33q0 -2 -1 -4q-17 5 -23 6q-4 0 -6 -7l21 -14q-8 -6 -21 -21h19q9 0 13 -7q-16 -32 -16 -28q0 -5 3 -5q2 1 14 13t13 12q11 0 18.5 -13t13.5 -17q1 12 3 24.5t13 12.5q3 0 19 -9q2 3 8 11q-2 1 -12 6.5t-9 9.5v1q10 6 28 20zM122 752q0 18 13 31t32 13t32 -13
t13 -31q0 -19 -13 -32t-32 -13t-32 13t-13 32zM-28 752q0 18 13 31t32 13t32 -13t13 -31q0 -19 -13 -32t-32 -13t-32 13t-13 32z" />
    <glyph glyph-name="ntilde" unicode="&#xf1;" horiz-adv-x="537" 
d="M437 2h-162l-99 248h-2v-249h-168v664l166 -1l101 -260v258h164v-660zM420 584v9q3 -1 -18 -1q-9 0 -9 12q0 1 5.5 11.5t5.5 19.5q-23 -12 -32 -12l-2 2l-1 3q0 3 2 9t2 9q0 8 -10 10q-2 -17 -2 -19q-3 -11 -11 -14q-8 8 -26 21v-6q0 -5 3 -14t3 -12q0 -9 -15 -19
l-24 -12q3 -6 14 -6q16 -1 17 -1q11 -14 11 -18q0 -3 -19 -34l11 -3q7 10 19 30h5q2 -3 11 -30q3 3 7 21q3 14 13 16l19 -18q3 1 8 5q-16 16 -16 22q0 12 29 19zM420 473l-2 11q-8 -1 -21 -7q-10 8 -10 17q0 3 1.5 10t1.5 10t-1 7q-3 -2 -11.5 -11t-15.5 -9q-9 0 -12 9
q-5 13 -6 16h-9q0 -4 7 -31q-6 -6 -10 -6q-5 0 -16 3t-16 3q8 -9 24 -21v-23q-8 -5 -26 -11l3 -11h9q4 0 10 4.5t10 4.5q5 0 9 -8q-1 -6 -1 -13q0 -13 2 -21l7 3q13 27 32 27q4 0 12.5 -5t10.5 -6q-6 19 -6 31q0 25 24 27zM425 320q-8 6 -25 18q0 3 -2.5 9t-2.5 10
q3 5 23 31l-5 4q-32 -20 -33 -21q-8 0 -13 12q-7 17 -8 18q-10 -40 -27 -40q-2 0 -29 7v-8q19 -20 20 -22q0 -6 -18 -12v-8l5 -5q9 4 15 4q3 -1 8 -8l-21 -23q0 -3 5 -8q3 1 15.5 11t15.5 10q13 0 18 -10q11 -16 12 -18q3 15 4 31q8 10 21 12q17 2 22 6zM170 532l-4 2l-2 -4
v-4h1q5 0 5 6zM161 562q-2 1 -11 1q-4 0 -24 20q14 9 19 19q-11 -2 -32 6q17 17 20 31q-4 3 -11 3q-7 -8 -21 -26h-2q-7 0 -17 13.5t-15 16.5v-19q0 -12 -14 -20l-21 12l-3 -6q7 -8 19 -23q-3 -5 -15 -10.5t-13 -11.5q35 -4 35 -13q0 -4 -7 -12.5t-7 -11.5t5 -7q24 21 28 21
l2 -2l-1 -2q0 -7 3 -12h11q0 12 11 16q9 -9 26 -19v5q1 5 -3.5 15.5t-4.5 15.5l1 4q11 -2 27 -8zM244 435q-11 4 -23 11v16q7 7 14 8v9l-3 3l-15 -7q-9 0 -10 13q1 -13 1 19q0 3 -1 7q-23 -23 -26 -23q-2 0 -4 1q-1 1 0 1q-2 22 -10 31q-3 -5 -3 -11q0 -4 1.5 -11t1.5 -10
q0 -8 -8 -8q-5 0 -25 7v-11q13 -14 13 -22q0 -10 -16 -36q26 7 23 7q3 0 18 -14l1 -6q0 -4 -1 -12t-1 -12q0 -6 3 -10q6 7 8 21t4 19h6q13 -14 19 -23q0 4 -1 12.5t-1 12.5q0 16 10 16q-4 0 23 -6zM296 314q-26 26 -26 43q0 3 6 7t6 7q0 4 -6 9q-8 -4 -14 -12
q-11 1 -16.5 18t-11.5 19q-3 -32 -18 -32q-4 0 -12 9.5t-10 9.5q-5 0 -7 -4q6 -16 18 -26q-2 -9 -15 -11q-19 -3 -22 -3q10 -5 30 -14q2 -7 10 -20q-18 -18 -19 -21q0 -6 5 -6h6q16 19 19 19q7 0 15 -15t12 -17q2 9 4 28q14 13 20 13q3 0 10 -1t10 -1zM430 195v8
q-11 1 -30 7v9q20 15 20 25v1q-33 -6 -26 -6q-5 0 -8 3q4 11 8 34q-22 -28 -37 -28q-5 0 -8.5 11t-4.5 12q0 -11 -3 -33q-4 -8 -10 -23q-13 5 -22 6q-4 6 -13 17q2 11 2 20q0 6 -1 11q-8 -9 -24 -26h-1q-4 0 -11 12.5t-8 13.5l-6 -3v-12q0 -3 3 -7t3 -7q-2 -4 -7 -6
q-9 6 -26 21q-3 -3 -8 -5q1 -3 12 -15.5t11 -15.5q0 -24 -20 -25q1 -4 5 -11h21q13 -8 14 -30q1 -29 3 -35q2 16 16 48q24 8 22 8q2 0 13 -9.5t17 -9.5q4 0 7 4q-1 0 -13.5 13t-12.5 16q0 7 10 12.5t18 5.5q4 0 7 -6q-7 -14 -11 -26q5 2 14 7q11 -6 11 -18q1 -15 3 -19
q3 2 10 20q5 14 15 14q3 0 21 -18h8l3 6q-6 12 -21 21v6l2 2q11 -2 19 -2t14 2zM147 344v8l-25 -4q-6 0 -7 7q7 9 21 26q-3 2 -8 6q-25 -21 -27 -21q-30 0 -30 39q0 12 10 12q6 0 11 -9q7 -13 8 -14q1 4 3 21q2 13 10 16q4 -2 10 -7q0 5 -2 15t-2 15q0 6 5.5 13t6.5 10
q-4 0 -10 1l-6 1q6 9 16 29q-5 3 -8 3l-22 -20l-7 2q0 12 -5 30q-7 -3 -11.5 -18.5t-13.5 -15.5q-4 0 -14 9t-13 9q-6 0 -6 -5l1 -5q7 -7 20 -21l-6 -6q-8 1 -23 5l-3 -13q8 -2 24 -4l4 -5q-4 -8 -21 -25v-8q3 0 13 4.5t15 4.5q4 0 7 -4v-6q-14 -19 -14 -27q0 -5 3 -7h10
q1 4 4 7l1 -27q-9 -11 -21 -12q-19 -2 -23 -4l3 -7q27 -14 27 -33q0 -3 -9.5 -17.5t-10.5 -17.5h8q24 23 26 23q11 0 21 -33q16 42 29 42q-8 0 29 -5l-10 12q-11 12 -11 15q0 6 8 10zM425 96q-10 1 -22 3.5t-12 11.5q2 2 16 22q-3 3 -5 8q-3 -1 -14.5 -11t-14.5 -10
q-5 0 -3 2v14h-14v-1q0 -11 -8 -15l-26 19q-5 0 -5 -3l6 -14q5 -14 5 -19q0 -1 -1 -4l-1 1q-33 11 -44 11q2 -8 37 -27l-21 -18l9 -3q8 1 13 1q6 0 13 -5q-20 -26 -21 -28q0 -6 5 -6l6 1q17 23 24 23q11 0 16 -9l10 -18l6 -1l-1 14q-2 23 15 23q-4 0 23 -9l2 6q-9 7 -21 22
q10 6 28 19zM150 233q-3 3 -10 3q-4 0 -11 -3.5t-11 -3.5q-8 0 -9 17q-1 22 -2 23q-5 -9 -19 -25q-16 -5 -20 -5q-3 0 -10.5 7t-11.5 7q-5 0 -5 -4q14 -27 14 -25q0 -12 -9 -24q-7 -3 -19 -8v-8l5 -6q14 7 18 7q12 0 12 -10q0 -4 -1.5 -12t-1.5 -12l1 -7q24 23 31 23
q5 0 15 -28l11 3q-9 18 -9 26t10 8q-4 0 29 -6q-8 9 -15.5 18.5t-7.5 24.5q0 3 24 15zM159 86q-1 0 -25 4q-10 2 -19 20q12 21 18 35l-6 3l-25 -32q-4 0 -8.5 14.5t-5.5 15.5q-10 -33 -16 -33q-4 0 -10.5 7t-10.5 7q-3 0 -8 -5q7 -12 16 -21q-2 -6 -8 -15q-9 -1 -22 -5v-9
l13 1q15 1 15 -12q0 -3 -5.5 -14t-5.5 -17q30 14 33 14l1 -2l-4 -30l8 -3q3 11 12 33h6q7 -7 23 -19l3 6q0 4 -4.5 12.5t-4.5 12.5q0 12 40 32zM166 744q-27 2 -36.5 -1.5t-29.5 -23.5l-12 10q1 25 36 46q30 18 52 18q20 0 42 -12t42 -12q34 0 32 0q18 4 37 26q2 3 8.5 -4
t5.5 -10q-8 -28 -37 -47q-25 -17 -48 -17q-22 0 -47 12.5t-45 14.5z" />
    </font>
</defs>
</svg>
