<?xml version="1.0" standalone="no"?>
<!DOCTYPE svg PUBLIC "-//W3C//DTD SVG 1.1//EN" "http://www.w3.org/Graphics/SVG/1.1/DTD/svg11.dtd" >
<svg>
<metadata>
Created by FontForge 20120731 at Tue Apr 16 16:30:37 2019
 By www-data
Generated by Fontographer 4.1.4
</metadata>
<defs>
<font id="AdastraBlack" horiz-adv-x="500" >
  <font-face 
    font-family="Adastra Black"
    font-weight="400"
    font-stretch="normal"
    units-per-em="1000"
    panose-1="0 0 4 0 0 0 0 0 0 0"
    ascent="800"
    descent="-200"
    x-height="368"
    cap-height="683"
    bbox="-153 -280 1158 862"
    underline-thickness="20"
    underline-position="-123"
    unicode-range="U+0020-F002"
  />
<missing-glyph 
d="M63 0v800h375v-800h-375zM125 63h250v675h-250v-675z" />
    <glyph glyph-name=".notdef" 
d="M63 0v800h375v-800h-375zM125 63h250v675h-250v-675z" />
    <glyph glyph-name=".null" horiz-adv-x="0" 
 />
    <glyph glyph-name="nonmarkingreturn" horiz-adv-x="161" 
 />
    <glyph glyph-name="space" unicode=" " horiz-adv-x="161" 
 />
    <glyph glyph-name="exclam" unicode="!" horiz-adv-x="245" 
d="M121 158q-7 -1 -96 -20q15 155 53 466q3 14 -6 34q4 3 83 34q76 31 76 34q-36 -183 -110 -548zM123 51q0 -26 -17.5 -41t-37.5 -15q-29 0 -44 23q-12 17 -12 37q0 18 16 37t36 19q24 0 41.5 -19t17.5 -41z" />
    <glyph glyph-name="quotedbl" unicode="&#x22;" horiz-adv-x="345" 
d="M188 629q-22 -245 -19 -245t68 29l74 271q0 -3 -123 -55zM28 629q-22 -245 -19 -245t68 29l74 271q0 -3 -123 -55z" />
    <glyph glyph-name="numbersign" unicode="#" horiz-adv-x="446" 
d="M266 436h-88l-34 -219h97q14 126 25 219zM42 482h80q10 79 16 122q3 14 -6 34q16 9 83 32l-29 -188h86q10 79 16 122q3 14 -6 34q16 9 83 32l-29 -188h88l-8 -46h-88l-34 -219h99l-9 -46h-97l-26 -167l-43 -9l18 176h-99l-26 -167l-43 -9l18 176h-84l9 46h80
q14 126 25 219h-82z" />
    <glyph glyph-name="dollar" unicode="$" horiz-adv-x="591" 
d="M543 554q-95 104 -170 99q-19 -75 -41 -226q91 -50 133 -95q52 -55 52 -121q0 -89 -70 -150.5t-168 -61.5q-13 0 -26 1q-4 -7 -5 -22q-3 -20 -4 -24q-19 -10 -33 -3q0 4 5 21.5t4 24.5q-119 -13 -228 112q-4 4 7 35q8 25 17 50q35 -61 94 -110q64 -53 116 -57
q-2 0 22 122t24 125q-110 60 -136 84q-54 47 -54 118q0 50 35 101q39 58 106 85q62 25 119 25l6 43l36 6q-6 -38 -6 -49q68 -5 155 -54q10 -58 10 -79zM338 660q-53 -5 -92 -29q-51 -29 -51 -77q0 -34 29.5 -65.5t76.5 -42.5zM396 135q0 81 -94 123q-46 -227 -46 -231h43
q37 0 67 34.5t30 73.5z" />
    <glyph glyph-name="percent" unicode="%" horiz-adv-x="741" 
d="M559 -5q-16 -4 -44 -3q-57 3 -95 52q-42 55 -38 146q6 104 66 165q53 54 114 50q51 -2 90 -48q43 -53 43 -134q0 -71 -35 -137q-39 -76 -101 -91zM601 242q7 136 -43 138q-40 2 -65 -102q-17 -70 -21 -144q-6 -116 44 -118q39 -2 63 88q18 65 22 138zM177 220
q-16 -4 -44 -3q-57 3 -94 52q-43 55 -39 146q6 104 67 165q52 54 114 51q50 -3 89 -49q43 -53 43 -134q0 -70 -34 -137q-40 -75 -102 -91zM219 467q7 136 -43 138q-40 2 -65 -102q-17 -70 -21 -144q-6 -116 44 -118q39 -2 64 88q17 65 21 138zM502 621l-378 -626l49 11
l413 629z" />
    <glyph glyph-name="ampersand" unicode="&#x26;" horiz-adv-x="625" 
d="M336 459q-18 0 -29 21q5 6 5 9q15 -12 29 -12q27 0 27 23q0 24 -25 38q-21 12 -47 12q-37 0 -70 -21q-37 -26 -37 -64q0 -17 16 -46q-3 -3 -14 0q-67 12 -67 89q0 31 2 36q3 12 27 47q37 56 126 56q53 0 88 -26q37 -29 37 -81q0 -33 -16 -55q-18 -26 -52 -26zM599 456
q0 -136 -191 -146q-12 -1 -36 -9q-1 -2 2 -5q81 -28 81 -122q0 -86 -65 -136q-57 -42 -138 -42q-106 0 -175.5 61.5t-69.5 156.5q0 67 40 126q47 70 118 70q17 0 32 -10q-51 7 -79 -37q-24 -36 -24 -84q0 -74 60 -121q52 -41 117 -41q45 0 81 22q46 28 46 81q0 64 -55 64
q-32 0 -32 -30q0 -14 15 -21q-28 -2 -44 21q-13 20 -13 47q0 70 76 99q70 17 141 34q76 20 76 65q0 38 -35 50h17q22 0 40 -36q15 -31 15 -57z" />
    <glyph glyph-name="quotesingle" unicode="'" horiz-adv-x="190" 
d="M32 635q-26 -271 -23 -271t68 29l78 297q0 -3 -123 -55z" />
    <glyph glyph-name="parenleft" unicode="(" horiz-adv-x="346" 
d="M243 -19q-121 11 -192 131q-57 97 -57 207q0 135 84 242q98 125 254 119l-3 -24q-96 0 -151 -205q-39 -145 -39 -253q0 -73 19 -121q27 -70 88 -70q-5 0 -4 -7q2 -6 4 -13q-2 -3 -3 -6z" />
    <glyph glyph-name="parenright" unicode=")" horiz-adv-x="346" 
d="M84 680q120 -10 191 -130q57 -97 57 -207q0 -135 -84 -243q-98 -124 -254 -119l3 25q96 0 151 205q39 145 39 253q0 73 -18 121q-27 70 -89 70q5 0 4 7q-2 6 -3 12q1 3 3 6z" />
    <glyph glyph-name="asterisk" unicode="*" horiz-adv-x="420" 
d="M65 417q-31 23 -65 47q4 1 149 41q-36 26 -91 65q9 77 8 80q3 -3 110 -109q4 44 11 112q35 15 73 33q-1 -5 -39 -151q40 19 102 47q31 -23 65 -47q-4 -1 -150 -41q37 -25 92 -65q-10 -77 -8 -80q-3 4 -111 110q-4 -45 -10 -112q-36 -15 -74 -33q2 4 40 150
q-40 -19 -102 -47z" />
    <glyph glyph-name="plus" unicode="+" horiz-adv-x="593" 
d="M530 250q-10 16 -32 16q-59 -1 -179 -1l-26 -176q-2 -18 12 -30h-137q9 9 19 28q15 79 31 178q-24 0 -89 1h-89q-22 0 -32 -9q5 28 17 122q6 -6 22 -10h187l27 184q2 10 -7 23h123q-11 -9 -13 -24q-14 -79 -29 -183l177 1q16 5 37 13q-5 -42 -19 -133z" />
    <glyph glyph-name="comma" unicode="," horiz-adv-x="218" 
d="M110 45q-1 -61 -45 -94q-11 -9 -71 -35q2 6 26 31q21 22 23 52l-19 17.5t-19 31.5q0 21 15.5 34.5t38.5 13.5q24 0 37.5 -16t13.5 -35z" />
    <glyph glyph-name="hyphen" unicode="-" horiz-adv-x="356" 
d="M226 152h-121q-19 0 -61 -16t-40 -16q35 46 100 139h116q25 0 30 1q13 3 30 17l38 29q-39 -86 -92 -154z" />
    <glyph glyph-name="hyphen" unicode="&#x2010;" horiz-adv-x="356" 
d="M226 152h-121q-19 0 -61 -16t-40 -16q35 46 100 139h116q25 0 30 1q13 3 30 17l38 29q-39 -86 -92 -154z" />
    <glyph glyph-name="period" unicode="." horiz-adv-x="208" 
d="M114 51q0 -21 -16 -38t-35 -17q-22 0 -38.5 16t-16.5 37q0 20 16.5 36.5t38.5 16.5q17 0 34 -16.5t17 -34.5z" />
    <glyph glyph-name="slash" unicode="/" horiz-adv-x="495" 
d="M429 687l-447 -730l49 12l481 732z" />
    <glyph glyph-name="zero" unicode="0" horiz-adv-x="584" 
d="M536 334q0 -119 -75 -223q-86 -119 -215 -119q-120 0 -190 111q-56 90 -56 197q0 120 75 220q85 112 214 112q117 0 188 -107q59 -89 59 -191zM408 463q0 46 -21 88q-29 56 -82 56q-90 0 -140 -187q-34 -128 -34 -230q0 -173 105 -173q90 0 139 207q33 138 33 239z" />
    <glyph glyph-name="one" unicode="1" horiz-adv-x="309" 
d="M40 -1q8 24 21 48q8 15 13 53l46 338q-1 16 -15 16q-10 0 -30 -9q-27 -12 -28 -12h-4q0 2 3 5v3q147 135 225 193h16l-81 -539q-6 -34 -6 -56q0 -17 4 -27q2 -6 4 -11q-133 -2 -168 -2z" />
    <glyph glyph-name="two" unicode="2" horiz-adv-x="482" 
d="M441 471q0 -46 -107 -210q-76 -115 -153 -231q49 0 125 1q12 1 84 17q-10 -20 -31 -58q-16 4 -35 11h-330l176 252q134 197 134 231q0 37 -35 58q-28 17 -61 17q-58 0 -130 -75v16q0 60 72 103q61 36 114 36q73 0 125 -50.5t52 -117.5z" />
    <glyph glyph-name="three" unicode="3" horiz-adv-x="476" 
d="M433 499q0 -55 -34 -86t-106 -50q136 -59 136 -163q0 -95 -76 -154q-67 -51 -150 -51q-63 0 -113 30q-65 40 -88 119q61 -81 138 -81q70 0 113 57q36 49 36 114q0 51 -38.5 88.5t-101.5 41.5q62 1 101 28q46 31 46 90q0 42 -27 67t-65 25q-59 0 -96 -57q10 57 68 92
q49 30 106 30q53 0 101 -40q50 -44 50 -100z" />
    <glyph glyph-name="four" unicode="4" horiz-adv-x="473" 
d="M175 1q34 43 50 205l-223 1q69 92 132 165q149 175 236 230v0l64 38l-61 -393q23 1 31 1q12 0 37 14q-14 -35 -30 -61q-3 2 -25 2q-22 1 -23 -1q-20 -99 -20 -142q0 -15 -3 -24t-3 -10q0 -4 14 -26q-60 -1 -176 1zM267 478q-152 -150 -193 -225q35 0 158 -1z" />
    <glyph glyph-name="five" unicode="5" horiz-adv-x="491" 
d="M450 635q-7 -49 -91 -49h-57q-24 -81 -59 -205q96 6 153 -51q51 -53 51 -136q0 -101 -76 -156q-63 -46 -153 -46q-67 0 -123 29q-67 33 -88 95q35 -37 56 -48q27 -14 74 -14q69 0 118 46t49 116q0 146 -133 146v2q-23 0 -81 -2l89 264h83q-2 0 129 0q30 0 59 9z" />
    <glyph glyph-name="six" unicode="6" horiz-adv-x="528" 
d="M506 597q-15 1 -32 1q-27 0 -53 -3.5t-19 -3.5q-39 0 -91.5 -33t-64.5 -65q104 -13 169 -81.5t65 -161.5q0 -87 -59 -167q-68 -94 -170 -94q-113 0 -182 86q-61 77 -61 180q0 153 113.5 264.5t266.5 111.5q49 0 72 -8zM348 288q0 43 -27 102q-35 79 -89 79
q-34 0 -65 -129q-24 -102 -24 -138q0 -46 16 -102q24 -86 71 -86q59 0 93 107q25 80 25 167z" />
    <glyph glyph-name="seven" unicode="7" horiz-adv-x="427" 
d="M423 631l-250 -575q-8 -20 -8 -27q0 9 8 -29l-178 -1q24 26 142 291q107 241 133 312h-142q-42 0 -61 -5q-28 -7 -71 -35q5 13 39 79q24 -11 32 -11q-6 0 182 1q112 1 174 0z" />
    <glyph glyph-name="eight" unicode="8" horiz-adv-x="512" 
d="M468 499q0 -86 -110 -132q48 -49 67 -79q29 -47 29 -97q0 -90 -68 -145q-63 -50 -156 -50q-82 0 -147 40q-77 47 -77 123q0 60 40 109t99 67q-61 58 -61 134q0 78 67 125q59 43 141 43q69 0 119 -33q57 -38 57 -105zM408 500q0 48 -32.5 81t-79.5 33q-40 0 -69 -27.5
t-29 -66.5q0 -30 56 -85q53 -53 76 -52q29 2 55 46q23 40 23 71zM340 140q0 46 -43 86q-13 12 -82 58l-47 32q-38 0 -73 -58q-32 -52 -32 -93q0 -60 44 -104t104 -44q48 0 88.5 37.5t40.5 85.5z" />
    <glyph glyph-name="nine" unicode="9" horiz-adv-x="551" 
d="M8 24q15 -2 32 -2q27 0 53 3.5t19 3.5q39 0 91.5 33.5t64.5 65.5q-104 12 -169 80.5t-65 161.5q0 87 59 168q68 93 170 93q113 0 182 -86q61 -77 61 -180q0 -153 -113.5 -264.5t-266.5 -111.5q-49 0 -72 8q-23 14 -46 27zM166 332q0 -42 27 -101q35 -79 89 -79
q34 0 65 128q24 102 24 138q0 46 -16 102q-24 87 -71 87q-59 0 -93 -107q-25 -81 -25 -168z" />
    <glyph glyph-name="colon" unicode=":" horiz-adv-x="208" 
d="M153 321q0 -21 -16 -38t-35 -17q-23 0 -39.5 16t-16.5 37q0 20 16.5 36.5t39.5 16.5q16 0 33.5 -16.5t17.5 -34.5zM114 51q0 -21 -16 -38t-35 -17q-22 0 -38.5 16t-16.5 37q0 20 16.5 36.5t38.5 16.5q17 0 34 -16.5t17 -34.5z" />
    <glyph glyph-name="semicolon" unicode=";" horiz-adv-x="218" 
d="M151 313q0 -21 -14.5 -36t-34.5 -15q-21 0 -36.5 15.5t-15.5 35.5q0 21 16 36t37 15t36 -17q12 -15 12 -34zM110 45q-1 -61 -45 -94q-11 -9 -71 -35q2 6 26 31q21 22 23 52l-19 17.5t-19 31.5q0 21 15.5 34.5t38.5 13.5q24 0 37.5 -16t13.5 -35z" />
    <glyph glyph-name="less" unicode="&#x3c;" horiz-adv-x="555" 
d="M303 688q39 0 84 -23q51 -26 51 -60q0 -9 -5 -16q-5 38 -57 57q-38 15 -79 15q-2 0 -11 -1t-13 -1q-38 0 -76.5 -37t-35.5 -77q17 -5 35 -10q22 -6 33 -27q1 -2 1 -14q0 -32 -30 -32q-25 0 -37 24q-9 20 -18 41q-58 -12 -88 -74q-23 -48 -23 -104q0 -72 18 -109
q25 -50 96 -73q6 17 24 48q14 16 34 16q26 0 26 -30q0 -46 -69 -50q0 -1 -1 -3t-1 -6q0 -26 27.5 -59.5t59.5 -44.5q22 -8 53 -8q46 0 70 10q42 16 71 67v-24l-10 -17q-25 -41 -78 -58q-23 -8 -58 -8q-56 0 -101.5 48t-43.5 99q-2 3 -6 5q-139 40 -139 199q0 79 49 133
q37 41 93 57q2 69 50 110q44 37 105 37zM176 529q-15 2 -15 -9q0 -15 10.5 -30.5t28.5 -15.5q21 0 21 18q0 37 -45 37zM205 220q-15 0 -28.5 -17.5t-13.5 -33.5q0 -9 12 -9q14 0 29 9q19 13 19 31q0 20 -18 20z" />
    <glyph glyph-name="equal" unicode="=" horiz-adv-x="481" 
d="M22 260h390l-20 -63h-390zM52 390h390l-20 -63h-390z" />
    <glyph glyph-name="greater" unicode="&#x3e;" horiz-adv-x="555" 
d="M145 0q-38 0 -83 23q-52 27 -52 60q0 10 5 17q5 -38 57 -58q38 -14 79 -14q2 0 11.5 1t12.5 1q38 -1 76.5 36.5t36.5 77.5q-18 5 -35 9q-23 6 -34 28q-1 1 -1 13q0 33 30 33q25 0 37 -24q9 -21 18 -41q58 12 88 74q23 47 23 104q0 72 -18 108q-25 51 -96 74
q-6 -17 -24 -49q-14 -16 -34 -16q-26 0 -26 30q0 46 69 51q0 1 1 3t1 5q0 27 -27 60.5t-59 44.5q-23 7 -53 7q-47 0 -71 -9q-42 -17 -71 -67v24l11 17q24 40 77 58q23 7 58 7q56 0 102 -47.5t43 -98.5q3 -3 6 -5q139 -40 139 -200q0 -79 -48 -132q-38 -42 -93 -57
q-2 -69 -51 -110q-44 -38 -105 -38zM272 160q15 -2 15 9q0 15 -9 29q-12 17 -30 17q-21 0 -21 -18q0 -37 45 -37zM244 469q15 0 28 17t13 34q0 9 -11 9q-14 0 -30 -10q-19 -12 -19 -30q0 -20 19 -20z" />
    <glyph glyph-name="question" unicode="?" horiz-adv-x="334" 
d="M300 554q0 -73 -47 -146q-9 -12 -88 -111q-47 -58 -47 -95q0 -41 30 -41h17q13 -1 17 -1q-26 -27 -70 -27q-48 0 -75 40q-22 32 -22 73q0 57 76 152t76 150q0 39 -22 63t-57 24q-49 0 -75 -53q4 52 47 81q37 25 86 25q67 0 110.5 -36.5t43.5 -97.5zM140 44q0 -25 -21 -42
q-17 -14 -37 -14q-24 0 -41 19t-17 40q0 23 19 39.5t39 16.5q24 0 41 -20t17 -39z" />
    <glyph glyph-name="at" unicode="@" horiz-adv-x="25" 
 />
    <glyph glyph-name="A" unicode="A" horiz-adv-x="799" 
d="M773 131q0 -55 -42 -94.5t-97 -39.5q-57 0 -89 39q-29 35 -29 93q0 45 26 188l-223 -1q-21 -67 -41 -134q-27 -87 -61 -128q-46 -57 -122 -57q-37 0 -68.5 27.5t-31.5 63.5q0 34 34 34q57 0 57 -70q0 -18 -5 -35q16 -5 20 -5q75 0 123 147l86 288q63 165 166 197
q-24 24 -103 24q-115 0 -195 -95q-75 -90 -75 -208q0 -63 18.5 -96.5t72.5 -63.5q-3 -1 -3 -4t-2 -3q-55 0 -96 67q-37 60 -37 118q0 117 91.5 208.5t208.5 96.5h30q132 0 165 -21q29 6 55 6q56 0 83 -30q-50 12 -69 12q-14 0 -38 -3q130 -78 130 -189q0 -59 -25 -173
t-25 -173q0 -52 40 -52q46 0 60 66h11zM570 511q0 118 -72 118q-61 0 -115 -114q-37 -77 -58 -170h222q23 97 23 166z" />
    <glyph glyph-name="B" unicode="B" horiz-adv-x="767" 
d="M699 139q0 -72 -77 -112q-62 -32 -141 -32q-110 0 -179 49q-75 -49 -162 -49q-52 0 -91 23q-47 28 -47 76q0 13 8.5 27.5t20.5 14.5q25 0 38 -25q11 -19 11 -47q0 -21 -7 -37q5 -9 20 -9q82 0 115 131q24 121 49 242q40 131 143 131q71 0 80 -60q-19 16 -31 16
q-29 0 -74 -184q-50 -207 -66 -231q6 -16 49 -28q35 -9 60 -9q62 0 103 40t41 103q0 37 -14 56q-10 13 -47 36q-17 -4 -28 -4q-7 0 -32 7v6q66 15 103 60.5t37 113.5q0 72 -76 112q-62 33 -141 33q-228 0 -228 -175q0 -13 3 -39t3 -38q-32 40 -32 99q0 121 96 191
q86 62 212 62q113 0 191 -53q89 -61 89 -169q0 -102 -143 -182q64 -4 104 -43.5t40 -102.5z" />
    <glyph glyph-name="C" unicode="C" horiz-adv-x="643" 
d="M634 501q0 -111 -76 -191t-187 -80q-25 0 -82 20q46 -3 53 -3q107 0 174 83q63 78 63 188q0 70 -41 106.5t-112 36.5q-123 0 -208 -124q-76 -112 -76 -241q0 -104 57 -170q61 -71 163 -71q109 0 169 118l7 -7q0 -74 -92 -128q-80 -47 -159 -47q-130 0 -208 87
q-76 84 -76 214q0 176 119 286q115 107 293 107q91 0 152 -45q67 -51 67 -139z" />
    <glyph glyph-name="D" unicode="D" horiz-adv-x="811" 
d="M472 469q0 -10 -10 -14q-1 24 -20 24q-25 0 -41 -73q-24 -106 -38 -135q-34 -73 -101 -73q-64 0 -93 72q3 2 10 -8t18 -10q8 0 18 4q16 5 28 79q15 92 34 131q35 68 107 68q31 0 59.5 -18t28.5 -47zM758 356q0 -154 -106 -260.5t-261 -106.5q-64 0 -129 30
q-51 26 -102 53q-57 30 -102 30q-22 0 -34 -17l-1 -12q19 7 23 7q21 0 40 -14t19 -34q0 -12 -12.5 -21t-24.5 -9q-28 0 -47 25t-19 53q0 61 55 89q43 22 110 22q49 0 175.5 -68t186.5 -68q132 0 132 191q0 144 -83 240q-88 100 -230 100q-98 0 -171 -48q-83 -56 -83 -149
q0 -33 14 -71q-39 30 -39 110q0 120 114 197q101 68 227 68q148 0 248 -95t100 -242z" />
    <glyph glyph-name="E" unicode="E" horiz-adv-x="547" 
d="M508 532q0 -35 -19.5 -69t-50.5 -48q10 17 20.5 36t10.5 37q0 35 -31.5 61t-67.5 26q-42 0 -74.5 -29.5t-32.5 -69.5q0 -19 4 -29q42 -3 56 -8q31 -11 31 -42q0 -19 -25 -34q-21 -12 -44 -12q-33 0 -70.5 24.5t-32.5 24.5q-13 0 -37 -28.5t-29 -43.5q-10 -31 -10 -56
q0 -78 54 -126q51 -46 130 -46q61 0 111 30q59 35 59 92q0 6 -5 13q-37 -3 -31 -3q-23 0 -39.5 12.5t-16.5 34.5q0 33 38 33q39 0 60 -37q18 -31 18 -73q0 -57 -35 -106q-74 -106 -211 -106q-103 0 -169 59q-69 62 -69 164q0 144 169 211q-28 41 -28 88q0 78 59 128
q56 48 135 48q74 0 123.5 -42t49.5 -114zM328 409q-7 5 -14 11.5t-12 6.5l-29 -1q-2 -6 -2 -12q0 -36 34 -36q24 0 23 18v13z" />
    <glyph glyph-name="F" unicode="F" horiz-adv-x="562" 
d="M613 681q0 -61 -44.5 -97.5t-107.5 -36.5q-34 0 -103.5 7.5t-103.5 7.5q-76 0 -126 -39q-55 -42 -55 -115q0 -68 69 -68v-2q0 -5 3 -8q-12 -4 -27 -4q-8 0 -33 5q-33 7 -53 51q-17 38 -17 76q0 100 75 166q72 64 173 64q11 0 23 -1l249 -22h20q42 0 52 32q6 -5 6 -16z
M542 320q-35 -52 -100 -52q-9 0 -28 2q-16 1 -23 0q-1 0 -3 -17l1 2q-24 -126 -68 -184q-58 -74 -173 -74q-59 0 -100 21q-53 27 -53 80q0 42 30 42q25 0 38 -25q11 -20 11 -48q0 -22 -7 -31q16 -15 41 -15q71 0 107 93q15 38 34 152q-11 7 -49 7q-17 0 -42 -15h-13
q26 46 55 85l9 -1q-4 -13 -11 -28q4 -4 14 -4q23 0 41 2q28 102 52 140q43 70 121 70q39 0 52 -9q10 -6 20 -22t9 -27l-9 -6q-5 17 -7 20q-5 5 -19 5q-40 0 -60 -89q-9 -39 -12 -89l89 -1q16 0 44 21z" />
    <glyph glyph-name="G" unicode="G" horiz-adv-x="646" 
d="M217 -149q-89 0 -150 32q-77 40 -77 120q0 30 12 53q15 28 42 28q35 0 35 -41q0 -49 -64 -83q7 -38 59 -57q40 -16 86 -16q188 0 264 239q28 89 28 121q-1 2 -2 1q-89 -164 -240 -164q-92 0 -149 63t-57 155q0 174 134 285q126 106 303 106q170 0 170 -113q0 -42 -46 -83
t-89 -41q-26 0 -50 13q-28 16 -28 40q0 33 41 33q22 0 43.5 -14t30.5 -35q53 22 53 88q0 91 -128 91q-120 0 -212 -114q-86 -108 -86 -231q0 -70 40.5 -113.5t109.5 -43.5q79 0 127 75q29 48 55 147q114 -3 145 0q-2 -20 -17 -99q-43 -224 -100 -310q-88 -132 -283 -132z
" />
    <glyph glyph-name="H" unicode="H" horiz-adv-x="926" 
d="M735 -13q-167 0 -167 204q0 85 23 163l-167 1l-7 -21q-32 -176 -83 -245q-70 -95 -228 -95q-45 0 -80 22q-41 25 -41 68q0 15 8 28.5t22 13.5q20 0 32 -21t12 -42q0 -11 -5 -45q7 -6 25 -6q53 0 93 36.5t46 89.5q-63 2 -111 71q-43 62 -43 128q0 143 73 239
q81 105 220 105h127l-5 -15q-4 -12 -21 -103l-32 -177h168q50 195 71 294l152 1l-70 -295h96q-5 0 39 6q-12 -35 -60 -41h-80q-28 -70 -28 -171q0 -52 15 -77q19 -34 68 -34q69 0 78 97l11 3v-18v-19q0 -61 -45 -103t-106 -42zM331 655q-112 -20 -160 -84q-68 -93 -68 -241
q0 -55 29 -112q34 -67 83 -64h9q46 161 46 199v1l-29 1q-7 0 -52 -24l-6 6q29 50 50 76q9 -19 8 -21l14 -3.5t15 -2.5q3 0 7 3q12 54 54 266z" />
    <glyph glyph-name="I" unicode="I" horiz-adv-x="539" 
d="M187 -7q-74 0 -128 26q-69 34 -69 99q0 50 36 50q43 0 43 -52q0 -43 -25 -66q3 -6 28 -16q22 -9 31 -9q84 0 147 76q54 65 74 155q30 136 85 407q-2 2 -5 2q-24 0 -54 -9q-84 -26 -134.5 -99.5t-50.5 -162.5q0 -65 28 -101t90 -58l3 -6q-1 -2 -5 -2q-13 0 -43 12
q-123 48 -123 171q0 111 90 192t202 81h148q-6 -44 -23 -131q-17 -92 -33 -185q-22 -119 -52 -190q-41 -96 -111 -143q-25 -17 -70.5 -29t-78.5 -12z" />
    <glyph glyph-name="J" unicode="J" horiz-adv-x="591" 
d="M150 -129q-76 0 -114 21q-51 28 -51 98q0 27 13 47q14 25 39 25q15 0 24.5 -11.5t9.5 -26.5q0 -46 -61 -79q7 -17 40 -29q28 -10 50 -10q46 0 80 8q59 15 110 85q46 62 60 128q-87 21 -142 86.5t-55 154.5q0 120 83 215q87 97 206 97q59 0 172 1q-22 -103 -64 -312
q-31 -161 -31 -163q-21 -94 -52 -157q-39 -80 -135 -130q-89 -48 -182 -48zM468 659l-7 1q-111 0 -186 -108q-66 -97 -66 -213q0 -108 99 -171q29 -19 44 -19q3 0 5 3z" />
    <glyph glyph-name="K" unicode="K" horiz-adv-x="826" 
d="M834 637q-14 21 -35 21q-26 0 -37 -54q-5 -37 -9 -74q-9 -60 -33 -177q-10 -34 -49.5 -62t-75.5 -28q-13 0 -18 -3v-10q-2 -58 26 -108q34 -59 88 -59q85 0 93 115q1 -4 4 -4.5t3 -4.5q0 -86 -45 -141q-48 -59 -130 -59q-94 0 -137 95q-27 59 -36 173q-24 0 -32 12
q-3 4 -5 -5q-60 -278 -262 -278q-46 0 -90 20q-55 26 -55 67q0 49 30 49q20 0 33 -21t13 -42q0 -7 -1.5 -21.5t-1.5 -22.5q15 -11 36 -11q44 0 75 44q5 8 43 83q-3 3 -10 8q-15 7 -44 24q-82 60 -82 184q0 190 131 290q59 45 111 45q8 0 73 -2q44 -1 73 1l-62 -377
q4 -14 28 -22q19 -7 37 -7q76 0 99 47q18 35 32.5 143t36.5 151q36 70 116 70q60 0 75 -37zM330 657q-3 0 -11 -1t-10 -1q-11 0 -37 -14q-69 -39 -108 -134q-35 -83 -35 -173q0 -152 100 -183q55 132 101 506z" />
    <glyph glyph-name="L" unicode="L" horiz-adv-x="675" 
d="M665 497q0 -75 -50 -137q-58 -70 -157 -83q-2 1 -8 6q73 5 121 90q40 71 40 142q0 64 -38 107q-41 46 -105 46q-112 0 -156 -115q-27 -108 -54 -215q-36 -115 -126 -115q-62 0 -73 67q6 4 10 4q-2 -17 16 -17q13 0 19 13q9 20 23 96q11 43 29 130q10 62 89 115
q71 48 127 49q12 0 40 5t31 5q93 0 153 -46q69 -52 69 -147zM611 122q0 -68 -67 -108q-53 -32 -112 -32q-67 0 -196 57.5t-174 57.5q-16 0 -33 -7q-21 -9 -21 -23v-18q3 -3 8 -1q28 13 44 13q52 0 52 -39q0 -36 -41 -36q-43 0 -64 31q-17 25 -17 62q0 62 51 97q42 29 96 29
q62 0 198.5 -66.5t187.5 -66.5q56 0 74 38v10q-6 6 -9 6q-4 0 -8.5 -2t-9.5 -2q-20 0 -43 16.5t-23 37.5q0 13 14.5 24.5t26.5 11.5q33 0 52 -36q14 -27 14 -54z" />
    <glyph glyph-name="M" unicode="M" horiz-adv-x="1008" 
d="M987 86q-14 -55 -62 -81q-34 -19 -73 -19q-57 0 -90 40q-30 37 -30 91q0 41 43 226.5t43 206.5q0 7 -2 7q-4 0 -11 -14q-65 -122 -130 -245q-84 -159 -153 -305v-4l-3 -1l-1 -2v2q-47 -6 -87 2q-12 108 -23 216q-17 141 -40 248q-7 33 -22 60q-2 0 -5 -3
q-24 -106 -35 -147q-23 -89 -47 -154l-30 -86q-24 -62 -51 -96q-38 -45 -86 -45q-32 0 -64 26.5t-32 60.5q0 13 10.5 25.5t23.5 12.5q54 0 49 -102l6 -6q17 -2 23 1q55 28 82 95q18 58 37 115q10 23 43 153q38 150 38 196q0 32 -77 36q-38 0 -67 -24q-32 -26 -32 -66
q0 -37 30 -66t67 -29q6 0 13 1q-10 -6 -25 -6q-54 0 -88 39q-31 36 -31 83q0 64 52 109.5t120 45.5h54q38 -5 77 -31q43 -29 74 -93q24 -49 32 -96q10 -54 16.5 -107t12.5 -107q8 -65 18 -98l294 528q12 -7 51 -15.5t63 -8.5q9 0 14 1l-104 -523q3 -68 54 -68q24 0 52 25
q5 -4 9 -4z" />
    <glyph glyph-name="N" unicode="N" horiz-adv-x="765" 
d="M819 674q-49 -17 -75 -146q-54 -270 -75 -492q-1 -9 12 -35h-162l-165 454q-12 33 -27 45q-3 -11 -37 -187q-27 -142 -64 -214q-54 -102 -143 -102q-27 0 -50 11q-29 14 -29 41q0 15 11.5 26.5t25.5 11.5q55 0 77 -72l10 6q16 8 46 51q27 38 32 54q19 25 51 204
q31 170 31 222q-34 31 -87 31q-43 0 -70 -23t-27 -65q0 -51 65 -91l-9 -4q-11 -4 -37 19q-47 41 -47 103q0 76 58 123q52 42 123 42q115 0 181 -93q37 -53 74 -140q10 -26 53 -142q26 -79 81 -230q6 105 39 299q52 315 114 309z" />
    <glyph glyph-name="O" unicode="O" horiz-adv-x="646" 
d="M600 398q0 -148 -99 -270q-107 -130 -257 -130q-126 0 -197 95q-61 83 -61 199q0 166 107.5 278t276.5 112q120 0 152 -73h-13q-25 48 -97 48q-137 0 -215 -122q-64 -98 -64 -220q0 -97 49 -160q55 -73 156 -73q169 0 220 219q-4 3 0 91q-6 61 -40 102q-37 44 -90 44
q-25 0 -53 -15.5t-38 -39.5q-11 -30 -13 -63q-5 -1 -8 -1q0 3 -2 13t-2 15q0 61 40 98q37 35 95 35q82 0 121 -60q32 -48 32 -122z" />
    <glyph glyph-name="P" unicode="P" horiz-adv-x="737" 
d="M698 422q0 -121 -86 -202q-81 -78 -195 -78q-4 0 -29 1.5t-29 1.5q-20 0 -22 -6q-32 -85 -88 -118q-41 -23 -106 -23q-47 0 -84 13q-60 23 -60 76q0 41 34 41t43 -43q3 -30 5 -60q1 -2 5 -6q32 -1 40 4q50 32 72 104q12 56 24 111t38 176q9 42 52 73q40 30 79 30
q24 0 47 -14q28 -17 34 -47v-13q-20 21 -31 21q-25 0 -37 -40q-16 -54 -38 -149q-19 -88 -19 -96v-10q13 -6 35 -6q94 0 145 83q41 65 41 145q0 94 -73 144q-59 42 -141 42q-92 0 -155 -52q-70 -57 -70 -150q0 -35 4 -49q3 -6 13.5 -21.5t10.5 -20.5v-13q-52 57 -52 139
q0 123 99 201q90 71 208 71q115 0 197 -69q89 -74 89 -191z" />
    <glyph glyph-name="Q" unicode="Q" horiz-adv-x="724" 
d="M677 408q0 -150 -81 -258q-93 -124 -268 -150q-1 -1 -5 -4q143 -34 204 -34q42 0 76 22q45 28 45 80q0 13 -3 28l14 -36q1 -4 1 -24q0 -63 -43 -116q-46 -58 -117 -65q-8 -1 -65 -1q-84 0 -194.5 22.5t-140.5 22.5q-62 0 -62 -25q0 -10 11 -23h-13q-25 32 -25 62
q0 55 62 82q45 18 98 17q1 2 3.5 2.5t4.5 2.5q-175 82 -175 277q0 101 54 202q0 -4 3 -7q42 96 153 149q91 44 190 44q128 0 203 -78q70 -74 70 -192zM618 413q0 79 -12 117q-20 63 -84 101q-14 8 -48 16q-30 6 -39 6q-87 0 -161 -65q-78 -68 -107 -178q-23 -89 -23 -97
q0 -281 204 -281q128 0 204 128q66 109 66 253z" />
    <glyph glyph-name="R" unicode="R" horiz-adv-x="747" 
d="M709 419q0 -79 -47 -131q-31 -35 -87 -60q-46 -21 -46 -23q0 -3 3.5 -17t3.5 -20q6 -48 48 -85q19 -18 50 -18q55 0 59 69q2 -1 5 -2t3 -7q0 -58 -47 -95q-41 -31 -91 -31q-78 0 -119 54q-36 47 -48 142q-1 1 -5 6h-9q-38 -205 -228 -205q-48 0 -89 20q-53 26 -53 73
q0 42 30 42q13 0 29 -14.5t20 -32.5q0 -18 2 -58q7 -9 23 -9q42 0 75 43q28 39 37 94q10 41 25 125q14 99 35 145q40 92 125 92q47 0 71 -43l-6 -23q5 24 -22 24q-24 0 -36 -57q-5 -23 -14 -70q-13 -62 -23 -124q10 -9 29 -12q32 -4 33 -4v-2q33 6 36 8q63 13 96 63
q28 42 28 92q0 101 -79 156q-66 47 -160 47q-80 0 -147 -44q-79 -53 -79 -140q0 -40 35 -82q-26 17 -41 58q-14 36 -14 73q0 70 41 130q46 66 126 94q34 12 113 12q129 0 211 -57q98 -66 98 -196z" />
    <glyph glyph-name="S" unicode="S" horiz-adv-x="516" 
d="M459 204q0 -61 -45 -121q-60 -80 -200 -80q-65 0 -130 33q-87 43 -87 119q0 19 11 37q12 22 33 22q19 0 31 -18q9 -15 9 -32q0 -19 -9 -39q-2 -4 -14 -17.5t-12 -18.5q0 -26 59 -45q44 -14 69 -14q59 0 102 30q51 34 51 97q0 59 -64 107q-59 42 -119 84q-63 57 -63 138
q0 101 98 160q48 29 136 29q50 0 89 -23q48 -28 48 -79q0 -50 -37 -50q-40 0 -40 46q0 18 10 36q9 13 18 27q-14 26 -69 26q-50 0 -87.5 -37t-37.5 -84q0 -59 65 -106q60 -42 120 -83q65 -59 65 -144z" />
    <glyph glyph-name="T" unicode="T" horiz-adv-x="475" 
d="M600 638q1 -12 -8 -34q-16 -44 -57 -59q-24 -8 -73 -8q-4 0 -117.5 12t-118.5 12q-57 0 -105 -25q-61 -32 -61 -91q0 -30 18 -50q20 -24 58 -27q-65 -7 -99 36q-29 35 -29 89q0 182 244 182q53 0 174 -15.5t112 -15.5q26 0 43 11q6 8 19 24v-41zM513 442l-8 -20
q3 24 -22 24q-35 0 -57 -113q-5 -25 -28 -131q-9 -45 -38 -105q-22 -45 -93 -69q-55 -18 -112 -18q-45 0 -88 19q-59 26 -59 78q0 14 10.5 24t24.5 10q47 0 47 -63q0 -48 -2 -45q15 -10 38 -10q86 0 123 121l52 224q38 120 130 120q65 0 82 -46z" />
    <glyph glyph-name="U" unicode="U" horiz-adv-x="687" 
d="M661 132q-9 -29 -18 -57q-12 -33 -34 -50q-29 -21 -81 -24q-55 -4 -85 44q-24 38 -24 92q0 30 15 123q-117 -263 -266 -263q-60 0 -96 46q-35 43 -34 109l80 421q4 13 4 23q0 18 -21 29q-15 8 -24 8q-13 0 -24 -19q-14 -27 -29 -54q-4 1 -15 4q-2 11 23 58q30 58 118 58
q42 0 72.5 -42.5t26.5 -85.5l-79 -402q11 -66 74 -66q94 0 170 177q39 92 58 182q21 80 60 237h68h66q-36 -139 -71 -277q-48 -193 -48 -260q0 -30 5 -42q9 -21 39 -21q26 0 40 26l18 46q14 -3 18 -3z" />
    <glyph glyph-name="V" unicode="V" horiz-adv-x="588" 
d="M550 445q0 -166 -99 -298q-108 -144 -266 -144q-179 0 -179 149q0 45 31 172q18 73 36 145q20 101 20 106q0 16 -10 28.5t-23 12.5q-14 0 -26.5 -11.5t-23.5 -22.5v15l9 18q32 67 101 67q27 0 45 -8q57 -27 63 -117l-87 -419q4 -97 97 -97q39 0 105 43q73 48 115 180
q33 105 33 203q0 175 -108 195q-3 -16 -11 -48q-8 -22 -26 -36t-35 -14t-29 14t-12 31q0 37 45 56q31 14 60 14q46 0 88 -25q51 -30 72 -84q15 -39 15 -125z" />
    <glyph glyph-name="W" unicode="W" horiz-adv-x="985" 
d="M945 374q0 -165 -113 -274q-107 -104 -250 -104q-74 0 -109 21q-61 37 -57 143q-1 -2 -5 0q-25 -67 -47 -97q-49 -67 -125 -67q-58 0 -88 49q-24 40 -24 100q0 26 5 49q-75 15 -110 98q-27 67 -22 154q4 82 80.5 158.5t161.5 76.5h132l-107 -541q5 -53 46 -53q26 0 45 24
q12 15 30 53q29 61 47 140q15 64 30 127q-2 0 144 0q0 -3 -7 -33q-57 -235 -57 -260q0 -46 27.5 -76.5t72.5 -30.5q96 0 144 112q33 78 33 168q0 118 -54 195q-64 91 -185 91q-125 0 -157 -97q0 -14 -2 -39q-5 -1 -8 -1q-8 23 -8 38q0 48 26 84q76 106 221 106
q140 0 219 -95q71 -87 71 -219zM227 664q-21 -3 -51 -17q-44 -21 -80 -79q-31 -50 -39 -92q-6 -33 -6 -80q0 -159 71 -178l15 -4q35 158 78 378q12 61 12 72z" />
    <glyph glyph-name="X" unicode="X" horiz-adv-x="707" 
d="M681 640q0 -23 -28 -37q-24 -12 -49 -12q-9 0 -28 7.5t-24 13.5q-9 -4 -22 -24q-24 -39 -56 -101.5t-32 -69.5q0 -29 36 -161q8 -31 16 -63q13 -41 32 -76q10 -19 33 -32t41 -13q60 0 75 77l11 -4q2 -57 -26 -98q-24 -34 -52 -38q-4 0 -36 -6q-28 -5 -33 -5
q-80 0 -134 63q-45 53 -66 143q-2 14 -8 31q-65 -117 -104 -164q-62 -73 -128 -73q-35 0 -64 29t-29 62q0 19 10.5 34.5t26.5 15.5q45 0 45 -70q0 -38 -8 -51q1 -2 16 -2q102 0 203 214q20 42 20 55q0 12 -18 114q-21 115 -36 158q-6 17 -20 38q-20 30 -41 37h-30
q-20 0 -49 -58h-9q7 24 24 64q32 52 109 51q78 -1 116 -51q22 -29 58 -136q2 0 5 -24t4 -23l72 130q62 99 116 99q24 0 42.5 -13t18.5 -31z" />
    <glyph glyph-name="Y" unicode="Y" horiz-adv-x="614" 
d="M661 630q-4 -5 -6 -4q-9 14 -19 14q-17 0 -29 -34q-17 -47 -48 -292q-26 -212 -88 -311q-92 -145 -293 -145q-74 0 -137 34q-79 44 -79 121q0 24 14 52q18 38 46 38q12 0 23.5 -15t11.5 -24q0 -34 -34.5 -55t-34.5 -23q0 -29 53 -59q46 -26 84 -30q11 -2 22 -2
q99 0 176 105q69 96 89 231l-3 16q-96 -166 -196 -166q-40 0 -72 25q-40 29 -48 82q-1 6 -1 52q0 123 21 353q-6 51 -36 51q-7 0 -15 -3q-11 -4 -26 -17q-18 -17 -18 -31q-4 2 -10 2q-1 17 21 43q35 44 87 44q92 0 129 -85q8 -20 8 -68l-28 -284q0 -41 14.5 -60t54.5 -19
q52 0 88 66q32 58 49 169q22 138 34 178q16 51 50 79t74 28q56 0 72 -56z" />
    <glyph glyph-name="Z" unicode="Z" horiz-adv-x="663" 
d="M625 629q0 -117 -207 -114l-92 -158l199 -1q28 0 48.5 19.5t26.5 47.5h7q-7 -55 -34 -79q-23 -20 -72 -25q16 0 -195 0l-77 -124q64 -28 129 -55q85 -36 128 -36t75 26.5t32 67.5q0 10 -9 34t-15 31q46 -27 46 -96q0 -79 -58 -128q-54 -48 -134 -48q-61 0 -135 36
q-85 42 -124 49q-57 -85 -111 -85q-23 0 -38 15.5t-15 37.5q0 60 74 112q70 49 131 43q22 35 72 122h-34q-8 0 -46 -20q17 32 54 95l17 -2l-17 -34l45 1q24 39 49 79q28 46 41 83q-20 15 -83 30q-59 14 -89 14q-55 0 -96 -32q-44 -35 -44 -89q0 -63 63 -102q-44 13 -71.5 53
t-27.5 88q0 98 69 150q62 48 162 48q72 0 193 -42q47 49 103 49q60 0 60 -61zM600 650q0 23 -33 23q-41 0 -72 -38q30 -12 53 -12q52 0 52 27zM136 82q-3 1 -11 2q-13 2 -36 2q-16 0 -42 -16t-26 -33q0 -10 11 -19t21 -9q21 0 48.5 25.5t34.5 47.5z" />
    <glyph glyph-name="bracketleft" unicode="[" horiz-adv-x="368" 
d="M316 724l-5 -29h-92q-25 -146 -110 -716h98l-12 -32h-103q-69 -1 -103 -1q11 11 25 36q26 142 111 712q2 13 -10 30h201z" />
    <glyph glyph-name="backslash" unicode="\" horiz-adv-x="1066" 
d="M353 184l2 9l6 -2q16 -43 67 -67q44 -21 94 -21q53 0 96 15q55 20 71 61q5 0 6 5l1 -10q0 -7 -18 -30q-49 -64 -141 -64q-137 0 -184 104zM5 377q0 99 74 154q66 50 169 50q61 0 180 -39q170 -56 185 -60q107 -30 192 -30q66 0 126 36q69 40 69 102q0 -1 -4 15
q-20 73 -108 73q-60 0 -97 -43q-2 3 -2 7q0 21 44 35q34 11 61 11q49 0 82 -28t33 -76q0 -78 -94 -117q-70 -30 -160 -30q-54 0 -136 16q-48 10 -198 66q-121 46 -202 46q-73 0 -130 -39q-65 -45 -65 -114q0 -158 143 -212q28 -10 113 -10q3 4 3 33.5t20 62.5q23 37 51 37
q35 0 35 -43q0 -30 -29 -58q-25 -24 -57 -34q-5 -2 -9 -6q2 -18 18 -51q57 -121 209 -121q84 0 147 43q71 47 81 125q-37 12 -63 36q-31 28 -31 64t38 36q30 0 53 -37q19 -34 19 -70q0 -8 -1 -15q13 -8 43 -8q71 0 133 46q67 49 67 118q0 38 -24.5 61.5t-63.5 23.5
q-1 0 -7 3q1 5 10 5q40 0 71 -29.5t31 -68.5q0 -62 -52.5 -111.5t-115.5 -55.5q-19 -2 -44 -2q-8 0 -23.5 2.5t-23.5 2.5q-17 -73 -67 -124q-69 -70 -182 -70q-82 0 -145.5 48.5t-80.5 128.5q-2 11 -8 19q-13 -5 -68 -5q-24 0 -73 17q-61 22 -98.5 71t-37.5 113zM125 424
q0 39 47 64q38 21 81 21q45 0 95 -14q103 -35 207 -70q122 -39 214 -39q48 0 77 17h5l2 -7q-60 -31 -126 -25q-46 2 -136 15q-30 7 -174 61q-118 45 -166 45q-114 0 -118 -71l-11 -2q-2 1 0 2q3 1 3 3zM135 606q0 7 17 18t26 14q35 11 75 11q56 0 131 -19q28 -6 129 -36
l148 -50q97 -32 147 -32q60 0 90 41h6q2 0 2 -5q0 -20 -47 -36q-39 -13 -64 -13q-21 0 -105 18q-60 13 -196 57q-62 21 -124 41q-73 22 -129 22q-76 0 -98 -36h-6q-2 0 -2 5zM292 208q0 -2 1 -7.5t1 -7.5q4 3 23 10q24 9 44 32.5t20 47.5q0 23 -15 30q-6 2 -11 2
q-25 0 -45 -39q-18 -35 -18 -68zM666 275q0 -30 26 -55t57 -30q4 8 4 20q0 26 -17 59q-20 37 -43 37q-27 0 -27 -31z" />
    <glyph glyph-name="bracketright" unicode="]" horiz-adv-x="368" 
d="M-11 -54l6 29h91q25 146 110 716h-97l11 32h207q-12 -11 -26 -35q-26 -141 -111 -712q-2 -13 10 -30h-201z" />
    <glyph glyph-name="asciicircum" unicode="^" horiz-adv-x="486" 
d="M264 841l144 -114l-24 -18l-130 81l-161 -81l-17 18z" />
    <glyph glyph-name="underscore" unicode="_" horiz-adv-x="674" 
d="M-1 -100h676l-1 -61h-675v61z" />
    <glyph glyph-name="grave" unicode="`" horiz-adv-x="302" 
d="M235 706l8 16l-165 105q-23 14 -37 11q-10 -3 -15.5 -13t-3.5 -21q4 -16 27 -25z" />
    <glyph glyph-name="a" unicode="a" horiz-adv-x="461" 
d="M258 -1v25q-49 -23 -99 -23q-57 0 -99 26q-52 34 -52 97q0 66 64 104q51 30 110 30q53 0 105 -39q2 4 2 21q0 32 -22.5 56.5t-56.5 24.5q-35 0 -67 -45q18 95 139 95q70 0 105 -43q33 -39 33 -105q0 -26 -13 -99t-13 -97q0 -23 8 -28q-90 -1 -144 0zM282 179q0 20 -19 31
q-15 9 -35 9q-40 0 -64 -34q-19 -28 -19 -63q0 -33 17 -58q21 -32 59 -32q22 0 39 16q6 23 14 75q8 49 8 56z" />
    <glyph glyph-name="b" unicode="b" horiz-adv-x="504" 
d="M-1 1q6 3 11 6q12 9 13 21q31 204 99 624q-1 10 -14 30h161q-13 -4 -21 -42q-5 -30 -10 -59q-37 -212 -37 -249q0 1 7 5q51 32 108 32q65 0 106 -55q34 -46 34 -103q0 -91 -73 -154q-67 -58 -152 -58q-231 2 -232 2zM323 191q0 43 -20 77q-26 44 -75 44q-19 0 -33 -12
l-48 -276h31q58 0 101.5 50t43.5 117z" />
    <glyph glyph-name="c" unicode="c" horiz-adv-x="411" 
d="M367 272q-31 41 -54 57q-22 13 -51 13q-60 0 -98 -60q-32 -50 -32 -100q0 -52 31 -90q34 -42 89 -42q52 0 103 49q-19 -56 -76 -83q-42 -20 -87 -20q-84 0 -137 49t-53 130q0 97 85 153q70 45 158 46q34 1 69.5 -13t52.5 -34v-55z" />
    <glyph glyph-name="d" unicode="d" horiz-adv-x="458" 
d="M490 675q-8 -8 -18 -31q-30 -182 -90 -616q-2 -8 9 -29h-167q-83 0 -145 43q-75 53 -75 149q0 81 52 131.5t127 50.5q63 0 111 -40q18 109 49 313q0 6 -4 14q-6 12 -7 15h158zM289 307q-22 17 -51 17q-59 0 -87 -62q-19 -42 -19 -94q0 -142 117 -142q16 94 40 281z" />
    <glyph glyph-name="e" unicode="e" horiz-adv-x="449" 
d="M396 163q-2 0 -132 -1q-131 0 -132 1q-1 -7 -1 -13q0 -44 50 -74q40 -24 77 -24q39 0 72 15q12 6 58 37q-20 -58 -84 -86q-50 -22 -113 -22q-81 0 -135 49q-57 52 -57 134q0 90 75 146q66 49 150 49t133 -53q43 -48 43 -120q0 -19 -4 -38zM277 274q0 72 -49 72
q-36 0 -66 -55q-26 -46 -26 -74l-4 -26q2 -1 124 0q21 71 21 83z" />
    <glyph glyph-name="f" unicode="f" horiz-adv-x="241" 
d="M360 636q0 -16 -13 -28q3 23 -8.5 36.5t-30.5 13.5q-49 -1 -69 -72l-14 -82q-6 -21 -16 -109h26q22 0 39 7q-3 -49 -68 -42q-19 -94 -47 -269q-11 -106 -39 -155q-38 -70 -120 -70q-94 0 -118 84l24 -18q23 -15 40 -15q56 0 71 107q25 174 54 340q-38 0 -36 0
q-19 -2 -30 -14q6 55 73 48q6 47 11 87q14 94 27 132q17 48 68 74q39 20 71 20q105 0 105 -75z" />
    <glyph glyph-name="g" unicode="g" horiz-adv-x="496" 
d="M490 369q-14 -8 -31 -40l-43 -325q-20 -78 -89 -120q-63 -39 -156 -40q-45 -1 -83 17q-45 22 -43 61q2 21 33 35q26 10 52 10q47 0 74 -17h-10q-10 1 -18 1q-74 0 -74 -36q0 -42 73 -47q54 -5 83 44q18 32 39 120q-68 -36 -123 -36q-74 0 -125 55q-48 51 -48 119
q0 42 16 77q57 130 219 130q54 0 100 -37q3 20 1 28q46 0 98 1h55zM334 294q0 18 -25.5 34.5t-44.5 16.5q-64 0 -98 -69q-25 -50 -25 -107q0 -47 23 -81q27 -42 77 -42q14 0 37.5 7.5t24.5 13.5q9 47 20 138q11 81 11 89z" />
    <glyph glyph-name="h" unicode="h" horiz-adv-x="455" 
d="M411 245q0 -43 -30 -215q-3 -20 13 -29l-166 -1q9 10 20 27q41 252 41 245q0 24 -16.5 38.5t-34.5 14.5q-12 0 -29 -11t-20 -25q-16 -67 -40 -259q0 -19 22 -30h-175q18 14 21 32q34 186 93 614q-4 21 -13 30l163 -1q-19 -18 -22 -32q-14 -105 -43 -307q15 11 41 27
q25 8 54 8q57 0 89 -35.5t32 -90.5z" />
    <glyph glyph-name="i" unicode="i" horiz-adv-x="235" 
d="M195 489q0 -22 -15.5 -38t-36.5 -16q-24 0 -40 18t-16 38q0 19 16.5 35.5t37.5 16.5q25 0 41 -19q13 -16 13 -35zM204 370q-9 -9 -11 -12q-4 -6 -6 -15q-18 -105 -46 -315q-4 -18 9 -28h-161q15 11 17 24l48 318q4 13 -6 27h78q48 1 78 1z" />
    <glyph glyph-name="j" unicode="j" horiz-adv-x="270" 
d="M251 369q-14 -9 -22 -38q-11 -43 -25 -144q-16 -123 -21 -148q-36 -203 -220 -203q-30 0 -65 13q-51 19 -51 57q0 32 31 50q25 15 59 15q37 0 61 -21q-5 1 -13 1q-28 0 -53 -11q-31 -14 -31 -40q0 -18 16 -28t35 -10q50 0 77 85q11 52 23 105q10 28 40 275q3 27 -11 42
h170zM244 491q0 -23 -17 -38t-40 -15t-39.5 16.5t-15.5 39.5q0 22 16.5 37t38.5 15q24 0 41 -16t16 -39z" />
    <glyph glyph-name="k" unicode="k" horiz-adv-x="463" 
d="M-7 -1q10 10 21 31q57 337 97 605q4 26 -8 41h161q-18 -10 -26 -37q0 -2 -68 -436q8 6 19 13l80 74q49 46 64 78h75l-187 -158q6 -3 16 -14l84 4l102 -176q4 -11 35 -25l-107 1v-1h-85q12 11 5 35q-22 37 -83 147q-4 0 -11.5 -4.5t-8.5 -10.5q-4 -32 -20 -127
q-4 -20 11 -40h-166z" />
    <glyph glyph-name="l" unicode="l" horiz-adv-x="250" 
d="M-5 -1q11 12 25 37q30 159 97 609q1 13 -10 30h161q-14 -12 -17 -30q-6 -32 -92 -606q-4 -23 15 -40h-179z" />
    <glyph glyph-name="m" unicode="m" horiz-adv-x="703" 
d="M198 368l-4 -34q113 41 117 41q47 0 91 -58q6 1 14 9l13 14q14 11 46 22.5t50 11.5q63 0 98 -43q32 -39 27 -90q-9 -68 -24 -212q1 -10 12 -29h-176q6 4 11 9q11 11 14 23q35 192 35 240q0 53 -41 53q-53 0 -62 -57q-35 -216 -32 -239q5 -15 10 -29h-167q8 10 19 31
q11 55 26 155q14 92 14 100q0 41 -43 41q-51 0 -64.5 -70.5t-32.5 -224.5q-1 -12 4.5 -19t10.5 -13h-172q6 4 11 9q11 11 13 25l44 302q0 8 -12 32h150z" />
    <glyph glyph-name="n" unicode="n" horiz-adv-x="458" 
d="M-8 0q6 4 11 9q11 11 13 25l41 290q0 15 -10 42q68 0 151 1l-4 -33q13 11 28 19q36 20 76 21q50 2 76 -21q13 -11 37 -52q8 -15 3 -78q-3 -47 -16 -124q-11 -69 -11 -70q5 -15 10 -29h-167q8 10 19 31q11 55 26 155q14 92 14 100q0 41 -43 41q-51 0 -64.5 -70.5
t-32.5 -224.5q-1 -12 4.5 -19t10.5 -13h-172z" />
    <glyph glyph-name="o" unicode="o" horiz-adv-x="484" 
d="M438 190q-3 -63 -51 -117q-51 -59 -125 -73q-23 -5 -63 -5q-81 0 -139 43q-65 48 -65 131q0 94 82 153q71 51 159 51q78 0 138 -46q69 -53 64 -137zM302 226q0 124 -71 124q-57 0 -85 -96q-19 -65 -19 -132q0 -105 72 -105q55 0 83 83q20 59 20 126z" />
    <glyph glyph-name="p" unicode="p" horiz-adv-x="489" 
d="M194 370l-5 -31q46 38 111 38q66 0 107 -44t41 -104q0 -108 -72 -170q-66 -55 -166 -55h-67l-18 -118q-2 -5 11 -30l-164 -1q18 17 20 32q31 193 61 422q6 43 -5 61q149 0 146 0zM309 225q0 36 -13 63q-19 41 -59 41q-43 0 -48 -26q-13 -93 -42 -273q6 0 19 1h17
q63 0 98 73q28 56 28 121z" />
    <glyph glyph-name="q" unicode="q" horiz-adv-x="449" 
d="M205 -151q9 8 22 32q9 39 20 127q-6 -1 -28 -9q-11 -4 -36 -4q-80 0 -131.5 54.5t-51.5 131.5q0 79 63 136q59 54 135 54q57 0 100 -35q3 14 6 33h145q-3 -4 -16 -15q-8 -8 -9 -18q-24 -167 -64 -450q-2 -14 7 -37h-162zM292 295q0 14 -19 25t-33 12q-55 1 -85 -69
q-20 -49 -20 -96q0 -40 18 -81q25 -61 73 -61q7 0 16 5.5t10 10.5q11 57 27 157q13 89 13 97z" />
    <glyph glyph-name="r" unicode="r" horiz-adv-x="380" 
d="M2 -1q6 9 16 13q6 3 8 16q17 93 45 313q1 10 -6 18q-4 5 -9 10h152l-11 -57q53 62 104 62q66 0 66 -60q0 -25 -35 -53.5t-63 -26.5q29 22 29 49q0 37 -38 35q-21 -1 -44.5 -22t-27.5 -42q-8 -41 -33 -224q1 -7 3 -14q4 -13 12 -18q-43 0 -90 1h-78z" />
    <glyph glyph-name="s" unicode="s" horiz-adv-x="359" 
d="M330 125q0 -74 -67 -107q-46 -24 -109 -24q-85 0 -154 39v68q65 -78 161 -78q80 0 80 50q0 29 -58 45q-94 25 -108 32q-58 28 -58 89q0 74 61 109q46 25 112 25q60 0 82 -10q10 -5 40 -16l11 -70q-59 71 -135 71q-72 0 -72 -52q0 -18 29 -32q23 -12 41 -13q17 -6 49 -17
q95 -24 95 -109z" />
    <glyph glyph-name="t" unicode="t" horiz-adv-x="286" 
d="M42 93q0 11 37 269q-68 0 -39 1q-22 -1 -34 -13q7 55 74 49q10 45 27 148h56v0l79 -1l-30 -150q16 -1 24 -1q23 0 40 7q-3 -48 -68 -43q-4 -2 -21 -134t-17 -152q0 -30 20 -30q11 0 16.5 6.5t11.5 14.5q6 -6 6 -10q-7 -61 -91 -61q-91 0 -91 100z" />
    <glyph glyph-name="u" unicode="u" horiz-adv-x="460" 
d="M224 -1l4 35q-17 -12 -46 -28q-33 -12 -58 -12q-71 0 -113 73q-6 12 -6 43q0 47 15 141q15 89 15 88q-5 15 -10 29h167q-8 -10 -19 -31q-11 -55 -26 -155q-14 -92 -14 -100q0 -41 43 -41q51 0 64.5 70.5t32.5 224.5q1 12 -4.5 19t-10.5 13q71 1 172 0q-6 -4 -11 -9
q-11 -11 -13 -25l-41 -290q0 -16 5 -26l10 -20q-52 1 -156 1z" />
    <glyph glyph-name="v" unicode="v" horiz-adv-x="441" 
d="M409 212q0 -52 -31 -103q-32 -55 -87 -86t-133 -31q-55 0 -104 32q-55 37 -58 95l32 211q-2 11 -10 37l145 1q0 -4 -1 -16t-1 -16q14 13 61 33q21 4 41 4q65 0 105.5 -44t40.5 -117zM270 230q0 31 -14 59q-18 35 -52 35q-24 0 -23 1q-12 -3 -23 -18q-7 -8 -20 -96
q-14 -91 -14 -137q0 -54 43 -54q57 0 85 91q18 59 18 119z" />
    <glyph glyph-name="w" unicode="w" horiz-adv-x="691" 
d="M252 66l-15 -22q-20 -31 -40 -36q-55 -14 -73 -14q-71 0 -113 73q-6 12 -6 44q0 47 15 141q15 90 15 89q-2 16 -10 28h59v1l108 -1q-8 -9 -19 -30q-11 -54 -26 -156q-14 -93 -14 -101q0 -41 43 -41q22 0 41.5 28t18.5 50l32 211q-3 12 -14 38h71h-1q27 1 57 -1
q34 -3 28 -3q0 -3 -4 -13.5t-4 -14.5q9 9 18 15q23 15 43.5 19.5t39.5 4.5q66 0 106.5 -45t40.5 -118q0 -52 -31 -103q-32 -55 -87 -86t-133 -31q-40 0 -80 19q-44 21 -66 55zM510 230q0 31 -14 59q-18 35 -52 35q-24 0 -23 1q-12 -3 -23 -18q1 2 1 -2q0 -7 -17.5 -105.5
t-17.5 -125.5q0 -54 43 -54q57 0 85 91q18 59 18 119z" />
    <glyph glyph-name="x" unicode="x" horiz-adv-x="409" 
d="M395 370q-26 -10 -84 -67.5t-58 -74.5q0 -6 29 -83.5t43 -109.5q8 -17 9 -18q4 -7 18 -16h-185q0 6 6 31q-13 47 -29 97q-25 -27 -50 -53q-32 -37 -32 -58q0 -10 7 -17h-92q12 0 40 26q12 10 63.5 69t51.5 65q0 3 -26 67q-30 70 -37.5 96t-34.5 46h188q-8 -10 -8 -28
q0 -28 27 -82q83 74 61 109z" />
    <glyph glyph-name="y" unicode="y" horiz-adv-x="412" 
d="M397 367q-11 -11 -26 -20q-6 -3 -17 -26q-1 -2 -69 -180q-50 -130 -98 -195q-67 -90 -150 -90q-32 0 -59 16q-32 19 -32 48q0 22 26 37q23 12 47 12q28 0 55 -20q-6 0 -18.5 1.5t-18.5 1.5q-56 0 -56 -41q0 -30 41 -30q59 0 59 80q0 25 -6 81q-14 95 -38 284
q-2 15 -27 42l95 -2v1h74q-6 -8 -4 -41q3 -39 35 -288q13 25 109 283q3 6 3 13q0 5 -14 33h89z" />
    <glyph glyph-name="z" unicode="z" horiz-adv-x="432" 
d="M405 370l-225 -339q3 -1 49 -1q76 0 138 14l23 9q-7 -12 -45 -69q1 -1 -1 -1l1 1q-26 17 -50 17h-297l225 337q-11 6 -122 0q-27 -1 -79 -14q13 23 34 60q12 -14 40 -14h309z" />
    <glyph glyph-name="braceleft" unicode="{" horiz-adv-x="511" 
d="M358 728q-96 -5 -146 -186q-29 -107 -29 -208q0 -73 15 -166q-1 -2 -33.5 7t-40.5 13q-13 35 -16 153q-1 16 2 45q6 56 11 82q12 53 37 92q-31 -1 -54 -96q-20 -78 -20 -136q0 -8 12 -138q-20 7 -42 4q-1 -14 0 -16q9 -5 44 -8l16 -58l-60 7l-8 -19h12l70 -12
q15 -54 31 -100q39 -112 75 -169q9 1 16 6q-15 23 -48 104q-30 76 -38 106q-2 9 -16 49q22 -6 38 -12q38 -13 40 -22q34 -116 137 -330l15 3q0 1 -34 78q-83 193 -84 212l-8 25q2 1 6.5 -4t11 -5t37.5 -28q25 -21 36 -33q8 -18 32 -41q7 7 5 14q-9 41 -134 125l-14 60
q46 -31 129 -90q5 1 5 9q0 27 -136 107q-19 58 -18 182q1 113 28 218q41 160 122 160q21 0 40 -25q0 1 2 4t2 8q0 14 -20 23q-15 6 -28 6zM156 156l50 -18l11 -55l-23 13q-8 -1 -52 13q-4 19 -12 53q4 3 26 -6z" />
    <glyph glyph-name="bar" unicode="|" horiz-adv-x="1066" 
d="M676 489l-2 -9l-6 2q-15 43 -66 67q-44 21 -95 21q-53 0 -96 -16q-55 -20 -70 -60q-6 0 -6 -5l-2 10q0 6 18 30q49 63 141 63q137 0 184 -103zM1024 296q0 -99 -74 -155q-66 -49 -169 -49q-61 0 -180 39q-170 55 -185 59q-107 30 -192 30q-66 0 -126 -35
q-69 -41 -69 -102q0 1 4 -15q20 -73 109 -73q59 0 96 42q3 -2 3 -6q0 -21 -44 -36q-35 -10 -61 -10q-49 0 -82.5 27.5t-33.5 76.5q0 77 94 117q70 30 160 30q54 0 136 -17q48 -9 198 -66q121 -46 202 -46q73 0 131 40q64 44 64 114q0 157 -142 211q-29 11 -114 11
q-3 -4 -3 -34t-20 -62q-22 -37 -51 -37q-35 0 -35 43q0 29 29 57q26 25 57 35q6 2 10 6q-3 18 -19 51q-56 120 -209 120q-83 0 -147 -42q-70 -47 -81 -126q38 -11 63 -35q31 -29 31 -64q0 -37 -38 -37q-30 0 -52 38q-20 34 -20 69q0 9 1 16q-12 7 -43 7q-71 0 -132 -45
q-68 -50 -68 -118q0 -39 25 -62t63 -23q2 0 8 -3q-2 -6 -11 -6q-40 0 -71 29.5t-31 69.5q0 61 54 112q51 49 114 55q19 1 44 1q8 0 24 -2.5t24 -2.5q16 74 66 125q69 70 182 70q83 0 146.5 -48.5t79.5 -128.5q3 -12 8 -20q13 6 68 6q24 0 74 -18q60 -21 97.5 -70t37.5 -113z
M904 248q0 -39 -46 -64q-39 -20 -82 -20q-45 0 -94 14q-104 35 -208 69q-122 40 -214 40q-48 0 -76 -17h-6l-2 6q61 31 126 26q46 -2 136 -15q31 -7 174 -62q118 -44 166 -44q114 0 119 71l11 2q1 -2 -1.5 -2.5t-2.5 -3.5zM894 66q0 -6 -16.5 -17.5t-26.5 -14.5
q-35 -10 -74 -10q-57 0 -132 18q-27 7 -129 37l-148 50q-97 31 -147 31q-59 0 -90 -41h-6q-2 0 -2 6q0 19 47 35q39 14 64 14q21 0 105 -18q61 -14 196 -58q62 -20 124 -41q73 -21 129 -21q76 0 98 35h6q2 0 2 -5zM737 464v8q-1 5 -2 7q-4 -2 -23 -9q-24 -10 -43 -32
q-20 -25 -20 -49q0 -22 14 -29q6 -3 12 -3q24 0 44 39q18 36 18 68zM364 398q0 29 -26.5 54.5t-57.5 30.5q-3 -8 -3 -21q0 -26 17 -58q19 -37 42 -37q28 0 28 31z" />
    <glyph glyph-name="braceright" unicode="}" horiz-adv-x="511" 
d="M94 728q96 -5 146 -186q29 -107 29 -208q0 -73 -15 -166q1 -2 35 8q31 8 39 12q13 35 16 153q1 16 -2 45q-6 56 -11 82q-12 53 -37 92q31 -1 54 -96q20 -78 20 -136q0 -8 -12 -138q20 7 42 4q1 -14 0 -16q-9 -5 -44 -8l-16 -58l60 7l8 -19h-12l-70 -12q-15 -54 -31 -100
q-39 -112 -75 -169q-9 1 -16 6q15 23 48 104q30 76 38 106q2 9 16 49q-22 -6 -38 -12q-38 -13 -40 -22q-34 -116 -137 -330l-15 3q0 1 34 78q84 193 84 212l8 25q-2 1 -6.5 -4t-9.5 -5q-8 0 -39 -28q-25 -21 -36 -33q-8 -18 -32 -41q-7 7 -5 14q9 41 134 125l14 60
q-46 -31 -129 -90q-5 1 -5 9q0 27 136 107q19 58 18 182q-1 113 -28 218q-41 160 -122 160q-21 0 -40 -25q0 1 -2 4t-2 8q0 14 20 23q16 6 28 6zM296 156l-50 -18l-11 -55l23 13q8 -1 52 13q4 19 12 53q-3 3 -26 -6z" />
    <glyph glyph-name="asciitilde" unicode="~" horiz-adv-x="497" 
d="M375 830h19q-8 -99 -74 -99q-28 0 -120 38q-15 6 -44 6q-21 0 -26 -7q-11 -10 -26 -42l-18 6q7 97 76 97q27 0 93 -25q53 -21 66 -21q25 0 33 10l12 14q8 11 9 23z" />
    <glyph glyph-name="Adieresis" unicode="&#xc4;" horiz-adv-x="818" 
d="M773 126q0 -56 -42 -92.5t-97 -36.5q-57 0 -89 39q-29 35 -29 93q0 43 12 107q10 53 20 107h-219q-22 -70 -44 -141q-30 -95 -65 -141q-49 -64 -125 -64q-37 0 -68.5 27.5t-31.5 63.5q0 34 34 34q57 0 57 -70q0 -18 -5 -35l20 -5q75 0 123 147l86 288q63 166 166 197
q-23 24 -103 24q-116 0 -195 -95q-75 -90 -75 -208q0 -64 19 -97.5t72 -62.5q-3 -1 -7.5 -4.5t-7.5 -3.5q-59 7 -94 72q-29 54 -29 114q0 116 92 209t208 96q146 3 204 -22q8 1 15 1q17 2 32 2q65 0 86 -23q-32 7 -71 7q2 0 -29 -3q61 -45 86 -78q33 -46 33 -109
q0 -59 -25 -173.5t-25 -172.5q0 -52 40 -52q46 0 60 63zM570 484q0 37 -20 87q-23 60 -54 60q-59 0 -108 -102q-33 -68 -53 -157l218 1q17 69 17 111zM454 805q19 0 32 -13.5t13 -32.5t-13.5 -32t-32.5 -13t-32 13.5t-13 32.5t13.5 32t32.5 13zM614 805q19 0 32.5 -13.5
t13.5 -32.5t-13.5 -32t-32.5 -13t-32 13.5t-13 32.5t13.5 32t31.5 13z" />
    <glyph glyph-name="Aring" unicode="&#xc5;" horiz-adv-x="818" 
d="M773 126q0 -56 -42 -92.5t-97 -36.5q-57 0 -89 39q-29 35 -29 93q0 43 12 107q10 53 20 107h-219q-22 -70 -44 -141q-30 -95 -65 -141q-49 -64 -125 -64q-37 0 -68.5 27.5t-31.5 63.5q0 34 34 34q57 0 57 -70q0 -18 -5 -35l20 -5q75 0 123 147l86 288q63 166 166 197
q-23 24 -103 24q-116 0 -195 -95q-75 -90 -75 -208q0 -64 19 -97.5t72 -62.5q-3 -1 -7.5 -4.5t-7.5 -3.5q-59 7 -94 72q-29 54 -29 114q0 116 92 209t208 96q146 3 204 -22q8 1 15 1q17 2 32 2q65 0 86 -23q-32 7 -71 7q2 0 -29 -3q61 -45 86 -78q33 -46 33 -109
q0 -59 -25 -173.5t-25 -172.5q0 -52 40 -52q46 0 60 63zM570 484q0 37 -20 87q-23 60 -54 60q-59 0 -108 -102q-33 -68 -53 -157l218 1q17 69 17 111zM524 862q32 0 55.5 -19.5t23.5 -50.5q0 -36 -25.5 -58.5t-62.5 -22.5q-33 0 -55.5 20t-22.5 52q0 35 25.5 57t61.5 22z
M523 840q-22 0 -34.5 -17.5t-12.5 -40.5q0 -49 40 -49q23 0 35.5 18t12.5 41q0 48 -41 48z" />
    <glyph glyph-name="Ccedilla" unicode="&#xc7;" horiz-adv-x="602" 
d="M257 -8l-15 -46q12 1 21 1q28 0 49.5 -15t21.5 -42q0 -38 -41 -58q-32 -15 -75 -15q-23 0 -51 6l4 27q21 -4 35 -4q64 0 64 43q0 31 -42 31q-11 0 -26 -3l24 79q-104 20 -163.5 101t-59.5 195q0 177 120 287q115 106 292 106q91 0 152 -45q67 -51 67 -139
q0 -112 -76 -191.5t-187 -79.5q-21 0 -82 20l38 -2q112 -7 184 76q68 78 68 194q0 70 -42 108q-40 35 -111 35q-123 0 -208 -124q-76 -112 -76 -241q0 -104 57 -170q61 -71 163 -71q109 0 169 118l7 -7q0 -73 -92 -128q-80 -47 -159 -47q-15 0 -30 1z" />
    <glyph glyph-name="Eacute" unicode="&#xc9;" horiz-adv-x="528" 
d="M508 532q0 -36 -19.5 -69.5t-50.5 -47.5q10 17 20.5 36t10.5 37q0 36 -31.5 61.5t-67.5 25.5q-54 0 -83 -38.5t-28 -91.5l9 -6l17 3q25 0 45 -11q24 -13 24 -36q0 -22 -25 -34q-19 -10 -44 -10q-59 0 -103 49q-31 -2 -56 -58q-21 -48 -21 -84q0 -65 67 -113
q61 -43 127 -43q65 0 113 33q54 37 54 98l-3 3q-4 0 -18 -2t-21 -2q-23 0 -39.5 12.5t-16.5 34.5q0 15 11.5 24t26.5 9q39 0 60 -37q18 -31 18 -73q0 -94 -78 -155q-72 -57 -168 -57q-103 0 -169 59q-69 62 -69 164q0 146 164 211q0 14 -5.5 40.5t-5.5 39.5q0 84 62 133
q56 44 141 44q58 0 105 -45.5t47 -103.5zM333 391v12q-22 14 -33 14h-19q-1 -1 -1 -3q0 -11 12.5 -19.5t24.5 -8.5q11 0 16 5zM299 706l-8 16l165 105q23 14 38 11q10 -3 15.5 -13t2.5 -21q-4 -16 -26 -25z" />
    <glyph glyph-name="Ntilde" unicode="&#xd1;" horiz-adv-x="764" 
d="M819 666q-36 -10 -53 -60q-7 -20 -15 -73q-27 -167 -82 -503q-1 -4 10 -40q0 1 -37 1q4 0 -39 -4q-34 -2 -40 1l-1 2h-44q-34 102 -164 457q-12 33 -27 45q-3 -11 -37 -187q-27 -142 -64 -214q-54 -102 -143 -102q-27 0 -50 11q-29 14 -29 41q0 15 11.5 26.5t25.5 11.5
q55 0 77 -72l14 6q18 0 45 46q21 36 29 59q19 25 51 204q31 170 31 222q-34 31 -87 31q-43 0 -70 -23t-27 -65q0 -51 65 -91h-16q-13 0 -30 15q-47 41 -47 103q0 76 58 123q52 42 123 42q116 0 183 -94q38 -53 73 -140q3 -9 52 -141q25 -73 80 -218l23 145q20 136 40 273
q35 180 86 171zM655 810h19q-8 -99 -74 -99q-28 0 -120 38q-15 6 -44 6q-21 0 -26 -7q-11 -10 -26 -42l-18 6q7 97 76 97q27 0 93 -25q53 -21 66 -21q25 0 33 10l12 14q8 11 9 23z" />
    <glyph glyph-name="Odieresis" unicode="&#xd6;" horiz-adv-x="622" 
d="M610 398q0 -148 -99 -270q-107 -130 -257 -130q-126 0 -197 95q-61 83 -61 199q0 166 107.5 278t276.5 112q120 0 152 -73h-13q-25 48 -97 48q-137 0 -215 -122q-64 -98 -64 -220q0 -97 49 -160q55 -73 156 -73q169 0 220 219q-4 3 0 91q-6 61 -40 102q-37 44 -90 44
q-25 0 -53 -15.5t-38 -39.5q-11 -30 -13 -63q-5 -1 -8 -1q0 3 -2 13t-2 15q0 61 40 98q37 35 95 35q82 0 121 -60q32 -48 32 -122zM294 805q19 0 32 -13.5t13 -32.5t-13.5 -32t-32.5 -13t-32 13.5t-13 32.5t13.5 32t32.5 13zM454 805q19 0 32.5 -13.5t13.5 -32.5t-13.5 -32
t-32.5 -13t-32 13.5t-13 32.5t13.5 32t31.5 13z" />
    <glyph glyph-name="Udieresis" unicode="&#xdc;" horiz-adv-x="703" 
d="M16 560v-3v3zM653 139q0 -47 -38 -92q-41 -48 -92 -48q-56 0 -85 46q-24 38 -24 91q0 4 7 50.5t7 50.5v12q-4 4 -6 1q-38 -96 -104 -165q-77 -79 -157 -79q-60 0 -94.5 40t-33.5 104l79 422q2 4 2 9q0 9 -7 21q-10 18 -11 21q-4 -3 -6 -2q-9 6 -19 6q-20 0 -37.5 -23
t-17.5 -44v-3q1 3 0 3l-12 7q0 4 13.5 28t14.5 27q21 57 113 57q42 0 72.5 -43t26.5 -86l-80 -402q12 -66 75 -66q94 0 170 177q39 93 58 183q19 76 55 229l137 1l-6 -27q0 2 -55.5 -231t-55.5 -273q0 -30 5 -41q9 -21 39 -21q42 0 58 71q6 1 9 1v-12zM294 805
q19 0 32 -13.5t13 -32.5t-13.5 -32t-32.5 -13t-32 13.5t-13 32.5t13.5 32t32.5 13zM454 805q19 0 32.5 -13.5t13.5 -32.5t-13.5 -32t-32.5 -13t-32 13.5t-13 32.5t13.5 32t31.5 13z" />
    <glyph glyph-name="aacute" unicode="&#xe1;" horiz-adv-x="468" 
d="M413 223q0 -26 -13 -99t-13 -97q0 -23 8 -28h-62v-1l-82 1v25q-49 -23 -99 -23q-57 0 -99 26q-52 34 -52 97q0 66 64 104q51 30 110 30q53 0 105 -39q2 4 2 21q0 32 -22.5 56.5t-56.5 24.5q-35 0 -67 -45q18 95 139 95q69 0 105 -43q33 -39 33 -105zM275 179q0 20 -19 31
q-15 9 -35 9q-40 0 -64 -34q-19 -28 -19 -63q0 -33 17 -58q21 -32 59 -32q22 0 39 16q6 23 14 75q8 49 8 56zM189 396l-8 16l165 105q23 14 38 11q10 -3 15.5 -13t2.5 -21q-4 -16 -26 -25z" />
    <glyph glyph-name="agrave" unicode="&#xe0;" horiz-adv-x="468" 
d="M413 223q0 -26 -13 -99t-13 -97q0 -23 8 -28h-59v-1l-85 1v25q-49 -23 -99 -23q-57 0 -99 26q-52 34 -52 97q0 66 64 104q51 30 110 30q53 0 105 -39q2 4 2 21q0 32 -22.5 56.5t-56.5 24.5q-35 0 -67 -45q18 95 139 95q69 0 105 -43q33 -39 33 -105zM275 179q0 20 -19 31
q-15 9 -35 9q-40 0 -64 -34q-19 -28 -19 -63q0 -33 17 -58q21 -32 59 -32q22 0 39 16q6 23 14 75q8 49 8 56zM375 396l8 16l-165 105q-23 14 -37 11q-10 -3 -15.5 -13t-3.5 -21q4 -16 27 -25z" />
    <glyph glyph-name="acircumflex" unicode="&#xe2;" horiz-adv-x="468" 
d="M413 223q0 -26 -13 -99t-13 -97q0 -23 8 -28h-56v-1l-88 1v25q-49 -23 -99 -23q-57 0 -99 26q-52 34 -52 97q0 66 64 104q51 30 110 30q53 0 105 -39q2 4 2 21q0 32 -22.5 56.5t-56.5 24.5q-35 0 -67 -45q18 95 139 95q69 0 105 -43q33 -39 33 -105zM275 179q0 20 -19 31
q-15 9 -35 9q-40 0 -64 -34q-19 -28 -19 -63q0 -33 17 -58q21 -32 59 -32q22 0 39 16q6 23 14 75q8 49 8 56zM301 501l122 -97l-20 -15l-111 69l-137 -69l-14 15z" />
    <glyph glyph-name="adieresis" unicode="&#xe4;" horiz-adv-x="468" 
d="M413 223q0 -26 -13 -99t-13 -97q0 -23 8 -28h-144v25q-49 -23 -99 -23q-57 0 -99 26q-52 34 -52 97q0 66 64 104q51 30 110 30q53 0 105 -39q2 4 2 21q0 32 -22.5 56.5t-56.5 24.5q-35 0 -67 -45q18 95 139 95q69 0 105 -43q33 -39 33 -105zM275 179q0 20 -19 31
q-15 9 -35 9q-40 0 -64 -34q-19 -28 -19 -63q0 -33 17 -58q21 -32 59 -32q22 0 39 16q6 23 14 75q8 49 8 56zM188 492q18 0 30.5 -12.5t12.5 -30.5t-12.5 -30t-30.5 -12t-30 12.5t-12 30.5t12.5 30t29.5 12zM340 492q17 0 29.5 -12.5t12.5 -30.5t-12.5 -30t-30.5 -12
t-30 12.5t-12 30.5q0 17 12.5 29.5t30.5 12.5z" />
    <glyph glyph-name="atilde" unicode="&#xe3;" horiz-adv-x="468" 
d="M413 223q0 -26 -13 -99t-13 -97q0 -23 8 -28h-59v-1l-85 1v25q-49 -23 -99 -23q-57 0 -99 26q-52 34 -52 97q0 66 64 104q51 30 110 30q53 0 105 -39q2 4 2 21q0 32 -22.5 56.5t-56.5 24.5q-35 0 -67 -45q18 95 139 95q69 0 105 -43q33 -39 33 -105zM275 179q0 20 -19 31
q-15 9 -35 9q-40 0 -64 -34q-19 -28 -19 -63q0 -33 17 -58q21 -32 59 -32q22 0 39 16q6 23 14 75q8 49 8 56zM395 492h16q-7 -84 -63 -84q-24 0 -102 33q-13 5 -37 5q-18 0 -22 -6q-9 -9 -22 -36l-16 5q6 82 65 82q23 0 78 -21q45 -18 57 -18q21 0 28.5 8t17.5 32z" />
    <glyph glyph-name="aring" unicode="&#xe5;" horiz-adv-x="468" 
d="M413 223q0 -26 -13 -99t-13 -97q0 -23 8 -28h-62v-1l-82 1v25q-49 -23 -99 -23q-57 0 -99 26q-52 34 -52 97q0 66 64 104q51 30 110 30q53 0 105 -39q2 4 2 21q0 32 -22.5 56.5t-56.5 24.5q-35 0 -67 -45q18 95 139 95q69 0 105 -43q33 -39 33 -105zM350 471
q0 -31 -21.5 -49.5t-52.5 -18.5q-28 0 -47.5 16.5t-19.5 43.5q0 30 22 48.5t52 18.5q28 0 47.5 -16t19.5 -43zM317 471q0 41 -35 41q-40 0 -40 -49q0 -42 35 -42q19 0 29.5 15t10.5 35zM275 179q0 20 -19 31q-15 9 -35 9q-40 0 -64 -34q-19 -28 -19 -63q0 -33 17 -58
q21 -32 59 -32q22 0 39 16q6 23 14 75q8 49 8 56z" />
    <glyph glyph-name="ccedilla" unicode="&#xe7;" horiz-adv-x="404" 
d="M184 -4l-11 -35q11 1 18 1q24 0 42.5 -13t18.5 -36q0 -32 -35 -49q-28 -13 -64 -13q-19 0 -44 6l4 22q18 -3 29 -3q55 0 55 37q0 26 -36 26q-9 0 -22 -2l19 61q-71 10 -113.5 57.5t-42.5 119.5q0 97 85 153q70 45 158 46q34 1 69.5 -13t52.5 -34v-55q-31 41 -54 57
q-22 13 -51 13q-60 0 -98 -60q-32 -50 -32 -100q0 -52 31 -90q34 -42 89 -42q52 0 103 49q-19 -56 -76 -83q-42 -21 -87 -20h-8z" />
    <glyph glyph-name="eacute" unicode="&#xe9;" horiz-adv-x="446" 
d="M396 163h-57v-1l-207 1q-1 -7 -1 -13q0 -44 50 -74q40 -24 77 -24q39 0 72 15q12 6 58 37q-20 -58 -84 -86q-50 -22 -113 -22q-81 0 -135 49q-57 52 -57 134q0 90 75 146q66 49 150 49t133 -53q43 -48 43 -120q0 -19 -4 -38zM277 274q0 72 -49 72q-36 0 -66 -55
q-26 -45 -26 -74l-4 -26q2 -1 124 0q21 71 21 83zM129 406l-8 16l165 105q23 14 38 11q10 -3 15.5 -13t2.5 -21q-4 -16 -26 -25z" />
    <glyph glyph-name="egrave" unicode="&#xe8;" horiz-adv-x="446" 
d="M396 163h-264q-1 -7 -1 -13q0 -44 50 -74q40 -24 77 -24q39 0 72 15q12 6 58 37q-20 -58 -84 -86q-50 -22 -113 -22q-81 0 -135 49q-57 52 -57 134q0 90 75 146q66 49 150 49t133 -53q43 -48 43 -120q0 -19 -4 -38zM277 274q0 72 -49 72q-36 0 -66 -55q-26 -45 -26 -74
l-4 -26q2 -1 124 0q21 71 21 83zM345 396l8 16l-165 105q-23 14 -37 11q-10 -3 -15.5 -13t-3.5 -21q4 -16 27 -25z" />
    <glyph glyph-name="ecircumflex" unicode="&#xea;" horiz-adv-x="446" 
d="M396 163h-264q-1 -7 -1 -13q0 -44 50 -74q40 -24 77 -24q39 0 72 15q12 6 58 37q-20 -58 -84 -86q-50 -22 -113 -22q-81 0 -135 49q-57 52 -57 134q0 90 75 146q66 49 150 49t133 -53q43 -48 43 -120q0 -19 -4 -38zM277 274q0 72 -49 72q-36 0 -66 -55q-26 -45 -26 -74
l-4 -26q2 -1 124 0q21 71 21 83zM261 501l122 -97l-20 -15l-111 69l-137 -69l-14 15z" />
    <glyph glyph-name="edieresis" unicode="&#xeb;" horiz-adv-x="446" 
d="M396 163h-51v-1l-213 1q-1 -7 -1 -13q0 -44 50 -74q40 -24 77 -24q39 0 72 15q12 6 58 37q-20 -58 -84 -86q-50 -22 -113 -22q-81 0 -135 49q-57 52 -57 134q0 90 75 146q66 49 150 49t133 -53q43 -48 43 -120q0 -19 -4 -38zM277 274q0 72 -49 72q-36 0 -66 -55
q-26 -45 -26 -74l-4 -26q2 -1 124 0q21 71 21 83zM158 492q18 0 30.5 -12.5t12.5 -30.5t-12.5 -30t-30.5 -12t-30 12.5t-12 30.5t12.5 30t29.5 12zM310 492q17 0 29.5 -12.5t12.5 -30.5t-12.5 -30t-30.5 -12t-30 12.5t-12 30.5q0 17 12.5 29.5t30.5 12.5z" />
    <glyph glyph-name="iacute" unicode="&#xed;" horiz-adv-x="234" 
d="M-11 0q15 11 17 24l48 318q4 13 -6 27q98 -2 156 -2q-6 -5 -10.5 -10t-6.5 -14q-18 -105 -46 -315q-4 -18 9 -28h-161zM49 406l-8 16l165 105q23 14 38 11q10 -3 15.5 -13t2.5 -21q-4 -16 -26 -25z" />
    <glyph glyph-name="igrave" unicode="&#xec;" horiz-adv-x="234" 
d="M245 396l8 16l-165 105q-23 14 -37 11q-10 -3 -15.5 -13t-3.5 -21q4 -16 27 -25zM-11 0q15 11 17 24l48 318q4 13 -4 25q67 -1 94 -1q41 1 60 1q-6 -5 -10.5 -10t-6.5 -14q-18 -105 -46 -315q-4 -18 9 -28h-161z" />
    <glyph glyph-name="icircumflex" unicode="&#xee;" horiz-adv-x="234" 
d="M151 501l122 -97l-20 -15l-111 69l-137 -69l-14 15zM-11 0q15 11 17 24l48 318q4 13 -4 25q67 -1 94 -1q41 1 60 1q-6 -5 -10.5 -10t-6.5 -14q-18 -105 -46 -315q-4 -18 9 -28h-161z" />
    <glyph glyph-name="idieresis" unicode="&#xef;" horiz-adv-x="234" 
d="M68 492q18 0 30.5 -12.5t12.5 -30.5t-12.5 -30t-30.5 -12t-30 12.5t-12 30.5t12.5 30t29.5 12zM200 492q17 0 29.5 -12.5t12.5 -30.5t-12.5 -30t-30.5 -12t-30 12.5t-12 30.5q0 17 12.5 29.5t30.5 12.5zM-11 0q15 11 17 24l48 318q4 13 -4 25q67 -1 94 -1q41 1 60 1
q-6 -5 -10.5 -10t-6.5 -14q-18 -105 -46 -315q-4 -18 9 -28h-161z" />
    <glyph glyph-name="ntilde" unicode="&#xf1;" horiz-adv-x="473" 
d="M-8 0q6 4 11 9q11 11 13 25l41 290q0 16 -5 25.5t-9 18.5q117 -1 155 -1l-4 -33q17 12 46 28q33 12 58 12q71 0 113 -73q8 -15 3 -78q-3 -47 -16 -124q-11 -69 -11 -70q5 -15 10 -29h-167q8 10 19 31q11 55 26 155q14 92 14 100q0 41 -43 41q-51 0 -64.5 -70.5
t-32.5 -224.5q-1 -12 4.5 -19t10.5 -13h-172zM355 492h16q-7 -84 -63 -84q-24 0 -102 33q-13 5 -37 5q-18 0 -22 -6q-9 -9 -22 -36l-16 5q6 82 65 82q23 0 78 -21q45 -18 57 -18q21 0 28.5 8t17.5 32z" />
    <glyph glyph-name="oacute" unicode="&#xf3;" horiz-adv-x="489" 
d="M438 190q-3 -63 -51 -117q-51 -59 -125 -73q-23 -5 -63 -5q-81 0 -139 43q-65 48 -65 131q0 94 82 153q71 51 159 51q78 0 138 -46q69 -53 64 -137zM302 226q0 124 -71 124q-57 0 -85 -96q-19 -65 -19 -132q0 -105 72 -105q55 0 83 83q20 59 20 126zM149 406l-8 16
l165 105q23 14 38 11q10 -3 15.5 -13t2.5 -21q-4 -16 -26 -25z" />
    <glyph glyph-name="ograve" unicode="&#xf2;" horiz-adv-x="489" 
d="M438 190q-3 -63 -51 -117q-51 -59 -125 -73q-23 -5 -63 -5q-81 0 -139 43q-65 48 -65 131q0 94 82 153q71 51 159 51q78 0 138 -46q69 -53 64 -137zM302 226q0 124 -71 124q-57 0 -85 -96q-19 -65 -19 -132q0 -105 72 -105q55 0 83 83q20 59 20 126zM345 396l8 16
l-165 105q-23 14 -37 11q-10 -3 -15.5 -13t-3.5 -21q4 -16 27 -25z" />
    <glyph glyph-name="ocircumflex" unicode="&#xf4;" horiz-adv-x="489" 
d="M438 190q-3 -63 -51 -117q-51 -59 -125 -73q-23 -5 -63 -5q-81 0 -139 43q-65 48 -65 131q0 94 82 153q71 51 159 51q78 0 138 -46q69 -53 64 -137zM302 226q0 124 -71 124q-57 0 -85 -96q-19 -65 -19 -132q0 -105 72 -105q55 0 83 83q20 59 20 126zM261 501l122 -97
l-20 -15l-111 69l-137 -69l-14 15z" />
    <glyph glyph-name="odieresis" unicode="&#xf6;" horiz-adv-x="489" 
d="M438 190q-3 -63 -51 -117q-51 -59 -125 -73q-23 -5 -63 -5q-81 0 -139 43q-65 48 -65 131q0 94 82 153q71 51 159 51q78 0 138 -46q69 -53 64 -137zM302 226q0 124 -71 124q-57 0 -85 -96q-19 -65 -19 -132q0 -105 72 -105q55 0 83 83q20 59 20 126zM168 492
q18 0 30.5 -12.5t12.5 -30.5t-12.5 -30t-30.5 -12t-30 12.5t-12 30.5t12.5 30t29.5 12zM320 492q17 0 29.5 -12.5t12.5 -30.5t-12.5 -30t-30.5 -12t-30 12.5t-12 30.5q0 17 12.5 29.5t30.5 12.5z" />
    <glyph glyph-name="otilde" unicode="&#xf5;" horiz-adv-x="489" 
d="M438 190q-3 -63 -51 -117q-51 -59 -125 -73q-23 -5 -63 -5q-81 0 -139 43q-65 48 -65 131q0 94 82 153q71 51 159 51q78 0 138 -46q69 -53 64 -137zM302 226q0 124 -71 124q-57 0 -85 -96q-19 -65 -19 -132q0 -105 72 -105q55 0 83 83q20 59 20 126zM345 492h16
q-7 -84 -63 -84q-24 0 -102 33q-13 5 -37 5q-18 0 -22 -6q-9 -9 -22 -36l-16 5q6 82 65 82q23 0 78 -21q45 -18 57 -18q21 0 28.5 8t17.5 32z" />
    <glyph glyph-name="uacute" unicode="&#xfa;" horiz-adv-x="452" 
d="M430 368q-6 -4 -11 -9q-11 -11 -13 -25l-41 -290q0 -16 5 -26l10 -20q-78 0 -156 1l4 35q-17 -12 -46 -28q-33 -12 -58 -12q-71 0 -113 73q-6 12 -6 43q0 47 15 141q15 89 15 88q-5 15 -10 29q61 -1 167 0q-8 -10 -19 -31q-11 -55 -26 -155q-14 -92 -14 -100
q0 -41 43 -41q51 0 64.5 70.5t32.5 224.5q1 12 -4.5 19t-10.5 13h172zM139 406l-8 16l165 105q23 14 38 11q10 -3 15.5 -13t2.5 -21q-4 -16 -26 -25z" />
    <glyph glyph-name="ugrave" unicode="&#xf9;" horiz-adv-x="452" 
d="M335 396l8 16l-165 105q-23 14 -37 11q-10 -3 -15.5 -13t-3.5 -21q4 -16 27 -25zM430 368q-6 -4 -11 -9q-11 -11 -13 -25l-41 -290q0 -16 5 -26l10 -20q-78 0 -156 1l4 35q-17 -12 -46 -28q-33 -12 -58 -12q-71 0 -113 73q-6 12 -6 43q0 47 15 141q15 89 15 88
q-5 15 -10 29q61 -1 167 0q-8 -10 -19 -31q-11 -55 -26 -155q-14 -92 -14 -100q0 -41 43 -41q51 0 64.5 70.5t32.5 224.5q1 12 -4.5 19t-10.5 13h172z" />
    <glyph glyph-name="ucircumflex" unicode="&#xfb;" horiz-adv-x="452" 
d="M251 501l122 -97l-20 -15l-111 69l-137 -69l-14 15zM430 368q-6 -4 -11 -9q-11 -11 -13 -25l-41 -290q0 -16 5 -26l10 -20q-78 0 -156 1l4 35q-17 -12 -46 -28q-33 -12 -58 -12q-71 0 -113 73q-6 12 -6 43q0 47 15 141q15 89 15 88q-5 15 -10 29q61 -1 167 0
q-8 -10 -19 -31q-11 -55 -26 -155q-14 -92 -14 -100q0 -41 43 -41q51 0 64.5 70.5t32.5 224.5q1 12 -4.5 19t-10.5 13h172z" />
    <glyph glyph-name="udieresis" unicode="&#xfc;" horiz-adv-x="452" 
d="M148 492q18 0 30.5 -12.5t12.5 -30.5t-12.5 -30t-30.5 -12t-30 12.5t-12 30.5t12.5 30t29.5 12zM300 492q17 0 29.5 -12.5t12.5 -30.5t-12.5 -30t-30.5 -12t-30 12.5t-12 30.5q0 17 12.5 29.5t30.5 12.5zM430 368q-6 -4 -11 -9q-11 -11 -13 -25l-41 -290q0 -16 5 -26
l10 -20q-78 0 -156 1l4 35q-17 -12 -46 -28q-33 -12 -58 -12q-71 0 -113 73q-6 12 -6 43q0 47 15 141q15 89 15 88q-5 15 -10 29q61 -1 167 0q-8 -10 -19 -31q-11 -55 -26 -155q-14 -92 -14 -100q0 -41 43 -41q51 0 64.5 70.5t32.5 224.5q1 12 -4.5 19t-10.5 13h172z" />
    <glyph glyph-name="dagger" unicode="&#x2020;" horiz-adv-x="8" 
 />
    <glyph glyph-name="degree" unicode="&#xb0;" horiz-adv-x="306" 
d="M163 636q38 1 65.5 -26.5t27.5 -66.5t-27.5 -65.5t-66.5 -26.5q-38 0 -65 27.5t-27 64.5q0 39 27 66t66 27zM163 610q-28 0 -47.5 -19.5t-19.5 -47.5q0 -27 19.5 -46.5t46.5 -19.5q29 0 48.5 19t19.5 47q0 29 -19.5 48t-47.5 19z" />
    <glyph glyph-name="cent" unicode="&#xa2;" horiz-adv-x="452" 
d="M269 625h47l-13 -71h2q34 1 69.5 -13t52.5 -34v-55q-31 41 -54 57q-22 13 -51 13q-60 0 -98 -60q-32 -50 -32 -100q0 -52 31 -90q34 -42 89 -42q52 0 103 49q-19 -56 -76 -83q-42 -20 -87 -20h-8l-14 -68h-45l14 73q-64 15 -101.5 61t-35.5 113q2 78 65 133q53 46 130 61
z" />
    <glyph glyph-name="sterling" unicode="&#xa3;" horiz-adv-x="599" 
d="M554 123q0 -61 -61 -97q-48 -29 -101 -29q-61 0 -177.5 51.5t-156.5 51.5q-14 0 -30 -6q-19 -8 -19 -21v-16q3 -3 8 -1q24 12 39 12q47 0 47 -36q0 -32 -37 -32q-38 0 -58 28q-15 23 -15 56q0 56 46 88q38 26 87 26q56 0 179 -60t169 -60q29 0 47 12q15 11 15 23
q0 8 -7 12h-20q-17 0 -31.5 13.5t-14.5 32.5q0 12 13.5 22.5t24.5 10.5q27 0 42 -28q11 -22 11 -53zM504 477q0 18 11.5 30t26.5 12h3q0 11 -2 16q-31 77 -122 77q-65 0 -102 -39q-29 -31 -47 -95q-13 -57 -26 -115h174l-8 -30h-173q-32 -119 -118 -119q-56 0 -66 60
q6 4 9 4q-1 -16 15 -16q11 0 17 12q10 22 16 59h-86l9 30h82q10 38 26 115q9 56 80 104q64 43 115 44q10 0 35.5 4.5t27.5 4.5q80 0 133 -36q63 -42 55 -116q2 -20 -12 -33.5t-35 -13.5q-16 0 -27 12t-11 29z" />
    <glyph glyph-name="section" unicode="&#xa7;" horiz-adv-x="465" 
d="M358 146l-1 -6q13 -29 13 -58q0 -76 -60 -127q-56 -48 -133 -48q-64 0 -115 27q-61 34 -61 93q0 27 16.5 48.5t43.5 21.5q25 0 43.5 -13t18.5 -37q0 -23 -15 -35q-24 -20 -27 -25q10 -47 100 -47q47 0 82 25q39 27 39 71q0 51 -66 91q-61 35 -123 71q-66 50 -66 125
q0 92 79 148q2 4 0 19q-3 19 -3 22q0 66 48.5 111t114.5 45q51 0 98 -21q60 -27 60 -71q0 -27 -16.5 -45.5t-42.5 -18.5q-20 0 -38 13t-18 32q0 10 10.5 24.5t12.5 19.5l-11 22q-27 16 -56 16q-41 0 -69.5 -30.5t-28.5 -71.5q0 -48 57 -93q54 -38 107 -77q57 -49 57 -108
q0 -55 -50 -113zM135 447q-30 -33 -30 -72q0 -47 45 -88q27 -24 95.5 -62t90.5 -59l6 -1q24 25 24 50q0 34 -47 69t-95 69q-59 45 -82 92z" />
    <glyph glyph-name="bullet" unicode="&#x2022;" horiz-adv-x="667" 
d="M336 478q57 0 97 -41.5t40 -97.5q0 -58 -40.5 -98.5t-98.5 -40.5q-57 0 -97.5 40.5t-40.5 97.5q0 59 41 99.5t99 40.5z" />
    <glyph glyph-name="paragraph" unicode="&#xb6;" horiz-adv-x="14" 
 />
    <glyph glyph-name="germandbls" unicode="&#xdf;" horiz-adv-x="634" 
d="M-5 0q13 10 28 33q18 120 46 274q32 168 47 270q11 70 139 94q55 10 54 10t74 -10q56 -7 100 -45q50 -42 50 -97q0 -120 -140 -156q70 -30 100 -63q33 -37 36 -100q6 -101 -42 -160t-126 -55h-11q-12 -1 -23 -1q-114 0 -130 61q18 -13 46 -13q54 0 97 42q50 50 50 132
q0 149 -120 157q58 1 96 38t38 98q0 14 6 43.5t6 42.5q0 51 -79 57q-49 3 -84 -76q-5 -13 -28 -92q-8 -30 -34 -207q-22 -155 -31 -235q-4 -28 12 -41h-113v0z" />
    <glyph glyph-name="registered" unicode="&#xae;" horiz-adv-x="425" 
d="M182 327q-73 0 -124.5 52.5t-51.5 126.5q0 73 51.5 124.5t124.5 51.5t124 -52t51 -126q0 -73 -51.5 -125t-123.5 -52zM182 648q-61 1 -101 -41t-40 -103q0 -59 42 -101.5t99 -42.5t98.5 42.5t41.5 101.5q0 60 -41.5 101t-98.5 43zM217 427l-48 75h-23v-75h-28v168h70
q10 4 29 -2q33 -10 33 -41q0 -41 -48 -50l49 -75h-34zM188 573h-44v-39h49q14 0 20 2q10 5 10 21t-35 16z" />
    <glyph glyph-name="copyright" unicode="&#xa9;" horiz-adv-x="814" 
d="M366 -11q-145 0 -246 101.5t-101 247.5t101 248t246 102t246.5 -102t101.5 -248q0 -145 -101.5 -247t-246.5 -102zM366 635q-120 0 -207.5 -86.5t-87.5 -210.5q0 -123 87.5 -209.5t207.5 -86.5t207.5 86.5t87.5 209.5q0 124 -87.5 210.5t-207.5 86.5zM484 407
q-26 81 -108 81q-65 0 -102.5 -42.5t-37.5 -106.5q0 -59 33 -100q38 -47 105 -47q86 0 111 79h53q-36 -132 -163 -132q-88 0 -140 57t-52 145q0 85 53.5 143t139.5 58q58 0 103 -35t60 -100h-55z" />
    <glyph glyph-name="trademark" unicode="&#x2122;" horiz-adv-x="492" 
d="M382 472v161l-64 -161h-21l-60 156v-156h-33v201h50l54 -137l55 137h51v-201h-32zM98 639v-167h-33v167h-66v34h163v-34h-64z" />
    <glyph glyph-name="acute" unicode="&#xb4;" 
d="M149 706l-8 16l165 105q23 14 38 11q10 -3 15.5 -13t2.5 -21q-4 -16 -26 -25z" />
    <glyph glyph-name="dieresis" unicode="&#xa8;" horiz-adv-x="622" 
d="M229 823q23 0 38.5 -15.5t15.5 -38.5q0 -22 -15.5 -37.5t-38.5 -15.5q-22 0 -37.5 16t-15.5 38t16 37.5t37 15.5zM419 823q22 0 37.5 -15.5t15.5 -38.5q0 -22 -15.5 -37.5t-38.5 -15.5q-22 0 -37.5 16t-15.5 38t16 37.5t38 15.5z" />
    <glyph glyph-name="AE" unicode="&#xc6;" horiz-adv-x="1175" 
d="M983 391v12q-22 14 -33 14h-19q-1 -1 -1 -3q0 -11 12.5 -19.5t24.5 -8.5q11 0 16 5zM657 -3h-155l54 346h-227q-22 -70 -44 -141q-30 -95 -65 -141q-49 -64 -125 -64q-37 0 -68.5 27.5t-31.5 63.5q0 34 34 34q57 0 57 -70q0 -18 -5 -35l20 -5q75 0 123 147l86 288
q63 166 166 197q-23 24 -103 24q-116 0 -195 -95q-75 -90 -75 -208q0 -64 19 -97.5t72 -62.5q-3 -1 -7.5 -4.5t-7.5 -3.5q-59 7 -94 72q-29 54 -29 114q0 116 92 209t208 96q146 3 204 -22q8 1 15 1q17 2 32 2q65 0 86 -23q-32 7 -71 7q2 0 -29 -3q61 -44 84 -72
q36 -43 36 -96q0 -9 -1 -19l-12 -111q40 43 114 72q0 14 -5.5 40.5t-5.5 39.5q0 84 62 133q56 44 141 44q58 0 105 -45.5t47 -103.5q0 -36 -19.5 -69.5t-50.5 -47.5q10 17 20.5 36t10.5 37q0 36 -31.5 61.5t-67.5 25.5q-54 0 -83 -38.5t-28 -91.5l9 -6l17 3q25 0 45 -11
q24 -13 24 -36q0 -22 -25 -34q-19 -10 -44 -10q-59 0 -103 49q-31 -2 -56 -58q-21 -48 -21 -84q0 -65 67 -113q61 -43 127 -43q65 0 113 33q54 37 54 98l-3 3q-4 0 -18 -2t-21 -2q-23 0 -39.5 12.5t-16.5 34.5q0 15 11.5 24t26.5 9q39 0 60 -37q18 -31 18 -73
q0 -94 -78 -155q-72 -57 -168 -57q-72 0 -128.5 30.5t-85.5 85.5q-8 -42 -17 -109zM570 484q0 37 -20 87q-23 60 -54 60q-59 0 -108 -102q-33 -68 -53 -157l230 -2q5 19 5 114z" />
    <glyph glyph-name="Oslash" unicode="&#xd8;" horiz-adv-x="622" 
d="M175 181l243 354q-55 -13 -71 -52q-11 -30 -13 -63q-5 -1 -8 -1q0 3 -2 13t-2 15q0 59 37 95q34 35 89 38l42 61q-26 16 -68 16q-137 0 -215 -122q-64 -98 -64 -220q0 -76 32 -134zM446 538l-258 -378q55 -78 160 -78q169 0 220 219q-4 3 0 91q-5 58 -38.5 100t-83.5 46z
M543 719h27l-56 -83q12 -12 18 -27h-13q-5 10 -12 17l-32 -47q72 -6 107 -65q28 -47 28 -116q0 -148 -99 -270q-107 -130 -257 -130q-85 0 -146 45l-57 -83h-27l66 97q-94 85 -94 235q0 166 107.5 278t276.5 112q73 0 117 -31z" />
    <glyph glyph-name="yen" unicode="&#xa5;" horiz-adv-x="704" 
d="M273 1h-97q18 12 19 22l10 72h-85l7 37h84l6 42h-87l7 37h85l2 11q8 28 2 34q-13 61 -26 121q-23 101 -41 135q-10 19 -33 32t-41 13q-60 0 -75 -77q-9 31 -3 51q-1 26 39 61q37 33 64 36q36 4 42 4q128 0 185 -273q4 -28 12 -59q112 336 217 336q35 0 71 -32t36 -65
q0 -18 -10.5 -33.5t-26.5 -15.5q-52 0 -52 60q0 23 8 42q-14 16 -18 16q-62 0 -115 -115q-33 -83 -65 -165q-6 -12 -19 -45t-18 -60l-2 -12h85l-5 -37h-86l-7 -42h88l-5 -37h-88q-5 -35 -9 -71q-2 -15 11 -25h-66v2z" />
    <glyph glyph-name="mu" unicode="&#xb5;" horiz-adv-x="684" 
d="M-1 261l119 69q1 5 13 69q11 40 30 124q10 62 86 111q68 45 125 46q12 0 40 5t31 5q93 0 153 -46q69 -52 69 -147q0 -75 -50 -137q-58 -70 -157 -83q-2 1 -8 6q73 5 121 90q40 71 40 142q0 64 -38 107q-41 46 -105 46q-92 0 -140 -82q-30 -50 -59 -178l151 88l3 -41
l-165 -93q-30 -125 -76 -162q50 -11 178 -74q113 -54 163 -54q72 0 72 39q0 15 -7 15q-4 0 -8.5 -2t-9.5 -2q-20 0 -43 16.5t-23 37.5q0 39 41 36q33 -3 54 -36q16 -27 16 -51q0 -68 -69 -110q-55 -33 -114 -33q-67 0 -196 57.5t-174 57.5q-16 0 -33 -7q-21 -9 -21 -23v-18
q3 -3 8 -1q28 13 44 13q52 0 52 -39q0 -36 -41 -36q-43 0 -64 31q-17 25 -17 62q0 75 72 109q27 36 37 76q4 8 9 23l-103 -62z" />
    <glyph glyph-name="mu" unicode="&#x3bc;" horiz-adv-x="684" 
d="M-1 261l119 69q1 5 13 69q11 40 30 124q10 62 86 111q68 45 125 46q12 0 40 5t31 5q93 0 153 -46q69 -52 69 -147q0 -75 -50 -137q-58 -70 -157 -83q-2 1 -8 6q73 5 121 90q40 71 40 142q0 64 -38 107q-41 46 -105 46q-92 0 -140 -82q-30 -50 -59 -178l151 88l3 -41
l-165 -93q-30 -125 -76 -162q50 -11 178 -74q113 -54 163 -54q72 0 72 39q0 15 -7 15q-4 0 -8.5 -2t-9.5 -2q-20 0 -43 16.5t-23 37.5q0 39 41 36q33 -3 54 -36q16 -27 16 -51q0 -68 -69 -110q-55 -33 -114 -33q-67 0 -196 57.5t-174 57.5q-16 0 -33 -7q-21 -9 -21 -23v-18
q3 -3 8 -1q28 13 44 13q52 0 52 -39q0 -36 -41 -36q-43 0 -64 31q-17 25 -17 62q0 75 72 109q27 36 37 76q4 8 9 23l-103 -62z" />
    <glyph glyph-name="ordfeminine" unicode="&#xaa;" horiz-adv-x="645" 
d="M625 629q0 -59 -57 -90q-44 -24 -96 -24q-7 0 -53 2l-89 -161h195q25 0 45 17q24 18 30 50v-30q0 -16 -15 -37q-12 -17 -20 -23q-22 -14 -41 -16q-46 -4 -56 -4q-8 0 -161 1q-29 -48 -72 -116q21 -10 94 -40q36 -17 73 -34q45 -20 84 -20q42 0 73 24q34 28 34 70
q0 11 -7.5 33.5t-16.5 31.5q47 -28 47 -101q0 -82 -61 -129q-54 -42 -132 -42q-63 0 -137 37q-86 41 -122 48q-57 -85 -111 -85q-27 0 -42 19q-11 15 -11 34q0 65 78 116q69 45 123 39q26 38 72 115h-38q-13 0 -38 -13l57 91q3 -1 9 -6q-3 -3 -12 -26q37 0 45 1
q10 17 90 162q-21 13 -81.5 28.5t-90.5 15.5q-77 0 -115 -52q-25 -34 -25 -69q0 -63 63 -102q-48 14 -75 59q-24 38 -24 82q0 34 16 72.5t38 57.5q44 37 79 52q40 16 98 16q39 0 95 -12q15 -3 56 -17q37 -13 42 -13q-3 0 33 24.5t70 24.5q60 0 60 -61zM600 650q0 23 -33 23
q-41 0 -72 -38q30 -12 53 -12q52 0 52 27zM136 82q4 0 -8.5 2t-38.5 2q-68 -19 -68 -49q0 -7 9.5 -17.5t22.5 -10.5q19 0 47 24t36 49zM360 709l-144 115l24 17l130 -81l161 81l17 -17z" />
    <glyph glyph-name="ordmasculine" unicode="&#xba;" horiz-adv-x="432" 
d="M-2 1l225 333h-26q-133 0 -153 -5l-22 -5q13 23 34 60q11 -14 40 -14h309l-225 -339h49q81 0 138 13l23 9q-7 -12 -45 -69q1 -1 -1 -1l1 1q-26 17 -50 17h-297zM225 406l-107 86l17 13l98 -61l121 61l12 -13z" />
    <glyph glyph-name="ae" unicode="&#xe6;" horiz-adv-x="801" 
d="M756 163h-64v0h-200q-1 -7 -1 -13q0 -44 50 -74q40 -24 77 -24q39 0 72 15q12 6 58 37q-20 -58 -84 -86q-50 -22 -113 -22q-105 0 -160 77q-5 -34 -8 -72l-58 -2v2l-74 -2v25q-49 -23 -99 -23q-57 0 -99 26q-52 34 -52 97q0 66 64 104q51 30 110 30q53 0 105 -39
q2 4 2 21q0 32 -22.5 56.5t-56.5 24.5q-35 0 -67 -45q18 95 139 95q94 0 125 -77q68 80 184 80q84 0 133 -53q43 -48 43 -120q0 -19 -4 -38zM275 179q0 20 -19 31q-15 9 -35 9q-40 0 -64 -34q-19 -28 -19 -63q0 -33 17 -58q21 -32 59 -32q22 0 39 16q6 23 14 75q8 49 8 56z
M637 274q0 72 -49 72q-36 0 -66 -55q-26 -45 -26 -74l-4 -26q2 -1 124 0q21 71 21 83z" />
    <glyph glyph-name="oslash" unicode="&#xf8;" horiz-adv-x="489" 
d="M128 97l154 224q-18 29 -51 29q-57 0 -85 -96q-19 -65 -19 -132q0 -14 1 -25zM293 297l-159 -231q16 -49 65 -49q55 0 83 83q20 59 20 126q0 43 -9 71zM348 415h27l-44 -63q113 -50 107 -162q-3 -63 -51 -117q-51 -59 -125 -73q-23 -5 -63 -5q-54 0 -100 20l-34 -49h-27
l41 59q-84 49 -84 144q0 94 82 153q71 51 159 51q37 0 74 -13z" />
    <glyph glyph-name="questiondown" unicode="&#xbf;" horiz-adv-x="280" 
d="M13 -58q0 72 47 145q8 13 88 111q47 59 47 96q0 41 -30 41h-18q-13 1 -16 1q25 27 69 27q48 0 75 -40q23 -32 23 -73q0 -58 -76.5 -152.5t-76.5 -150.5q0 -38 22.5 -62t57.5 -24q49 0 75 53q-4 -52 -48 -81q-37 -25 -85 -25q-68 0 -111 36t-43 98zM173 452q0 25 19 40.5
t39 15.5q24 0 40.5 -19t16.5 -41q0 -23 -18.5 -39t-38.5 -16q-24 0 -41 20t-17 39z" />
    <glyph glyph-name="exclamdown" unicode="&#xa1;" horiz-adv-x="216" 
d="M12 -195q36 183 110 548q32 6 96 21q-15 -156 -54 -467q-2 -14 6 -34q-3 -2 -78 -34t-80 -34zM119 460q0 26 19 42q16 14 37 14q28 0 44 -23q12 -17 12 -37q0 -18 -16.5 -36.5t-35.5 -18.5q-24 0 -42 18.5t-18 40.5z" />
    <glyph glyph-name="logicalnot" unicode="&#xac;" horiz-adv-x="17" 
 />
    <glyph glyph-name="florin" unicode="&#x192;" horiz-adv-x="20" 
 />
    <glyph glyph-name="guillemotleft" unicode="&#xab;" horiz-adv-x="381" 
d="M200 425h28l-115 -188l42 -186h-27l-80 186zM309 425h27l-90 -188l18 -186h-28l-54 186z" />
    <glyph glyph-name="guillemotright" unicode="&#xbb;" horiz-adv-x="381" 
d="M155 51h-28l115 188l-42 186h27l79 -186zM46 51h-28l90 188l-17 186h27l55 -186z" />
    <glyph glyph-name="ellipsis" unicode="&#x2026;" horiz-adv-x="754" 
d="M434 51q0 -21 -16 -38t-35 -17q-22 0 -38.5 16t-16.5 37q0 20 16.5 36.5t38.5 16.5q17 0 34 -16.5t17 -34.5zM694 51q0 -21 -16 -38t-35 -17q-22 0 -38.5 16t-16.5 37q0 20 16.5 36.5t38.5 16.5q17 0 34 -16.5t17 -34.5zM174 51q0 -21 -16 -38t-35 -17q-22 0 -38.5 16
t-16.5 37q0 20 16.5 36.5t38.5 16.5q17 0 34 -16.5t17 -34.5z" />
    <glyph glyph-name="nonbreakingspace" unicode="&#xa0;" horiz-adv-x="150" 
 />
    <glyph glyph-name="Agrave" unicode="&#xc0;" horiz-adv-x="818" 
d="M773 126q0 -56 -42 -92.5t-97 -36.5q-57 0 -89 39q-29 35 -29 93q0 43 12 107q10 53 20 107h-219q-22 -70 -44 -141q-30 -95 -65 -141q-49 -64 -125 -64q-37 0 -68.5 27.5t-31.5 63.5q0 34 34 34q57 0 57 -70q0 -18 -5 -35l20 -5q75 0 123 147l86 288q63 166 166 197
q-23 24 -103 24q-116 0 -195 -95q-75 -90 -75 -208q0 -64 19 -97.5t72 -62.5q-3 -1 -7.5 -4.5t-7.5 -3.5q-59 7 -94 72q-29 54 -29 114q0 116 92 209t208 96q146 3 204 -22q8 1 15 1q17 2 32 2q65 0 86 -23q-32 7 -71 7q2 0 -29 -3q61 -45 86 -78q33 -46 33 -109
q0 -59 -25 -173.5t-25 -172.5q0 -52 40 -52q46 0 60 63zM570 484q0 37 -20 87q-23 60 -54 60q-59 0 -108 -102q-33 -68 -53 -157l218 1q17 69 17 111zM635 706l8 16l-165 105q-23 14 -37 11q-10 -3 -15.5 -13t-3.5 -21q4 -16 27 -25z" />
    <glyph glyph-name="Atilde" unicode="&#xc3;" horiz-adv-x="818" 
d="M773 126q0 -56 -42 -92.5t-97 -36.5q-57 0 -89 39q-29 35 -29 93q0 43 12 107q10 53 20 107h-219q-22 -70 -44 -141q-30 -95 -65 -141q-49 -64 -125 -64q-37 0 -68.5 27.5t-31.5 63.5q0 34 34 34q57 0 57 -70q0 -18 -5 -35l20 -5q75 0 123 147l86 288q63 166 166 197
q-23 24 -103 24q-116 0 -195 -95q-75 -90 -75 -208q0 -64 19 -97.5t72 -62.5q-3 -1 -7.5 -4.5t-7.5 -3.5q-59 7 -94 72q-29 54 -29 114q0 116 92 209t208 96q146 3 204 -22q8 1 15 1q17 2 32 2q65 0 86 -23q-32 7 -71 7q2 0 -29 -3q61 -45 86 -78q33 -46 33 -109
q0 -59 -25 -173.5t-25 -172.5q0 -52 40 -52q46 0 60 63zM570 484q0 37 -20 87q-23 60 -54 60q-59 0 -108 -102q-33 -68 -53 -157l218 1q17 69 17 111zM655 830h19q-8 -99 -74 -99q-28 0 -120 38q-15 6 -44 6q-21 0 -26 -7q-11 -10 -26 -42l-18 6q7 97 76 97q27 0 93 -25
q53 -21 66 -21q25 0 33 10l12 14q8 11 9 23z" />
    <glyph glyph-name="Otilde" unicode="&#xd5;" horiz-adv-x="622" 
d="M610 398q0 -148 -99 -270q-107 -130 -257 -130q-126 0 -197 95q-61 83 -61 199q0 166 107.5 278t276.5 112q120 0 152 -73h-13q-25 48 -97 48q-137 0 -215 -122q-64 -98 -64 -220q0 -97 49 -160q55 -73 156 -73q169 0 220 219q-4 3 0 91q-6 61 -40 102q-37 44 -90 44
q-25 0 -53 -15.5t-38 -39.5q-11 -30 -13 -63q-5 -1 -8 -1q0 3 -2 13t-2 15q0 61 40 98q37 35 95 35q82 0 121 -60q32 -48 32 -122zM505 830h19q-8 -99 -74 -99q-28 0 -120 38q-15 6 -44 6q-21 0 -26 -7q-11 -10 -26 -42l-18 6q7 97 76 97q27 0 93 -25q53 -21 66 -21
q25 0 33 10l12 14q8 11 9 23z" />
    <glyph glyph-name="OE" unicode="&#x152;" horiz-adv-x="1079" 
d="M1058 532q0 -36 -19.5 -69.5t-50.5 -47.5q10 17 20.5 36t10.5 37q0 36 -31.5 61.5t-67.5 25.5q-54 0 -83 -38.5t-28 -91.5l9 -6l17 3q25 0 45 -11q24 -13 24 -36q0 -22 -25 -34q-19 -10 -44 -10q-59 0 -103 49q-31 -2 -56 -58q-21 -48 -21 -84q0 -65 67 -113
q61 -43 127 -43q65 0 113 33q54 37 54 98l-3 3q-4 0 -18 -2t-21 -2q-23 0 -39.5 12.5t-16.5 34.5q0 15 11.5 24t26.5 9q39 0 60 -37q18 -31 18 -73q0 -94 -78 -155q-72 -57 -168 -57t-162 53t-75 144q-49 -85 -123 -135q-81 -54 -174 -54q-126 0 -197 95q-61 83 -61 199
q0 166 107.5 278t276.5 112q120 0 152 -73h-13q-25 48 -97 48q-137 0 -215 -122q-64 -98 -64 -220q0 -97 49 -160q55 -73 156 -73q145 0 204 163q4 31 15 56q-3 4 1 91q-6 61 -40 102q-37 44 -90 44q-25 0 -53 -15.5t-38 -39.5q-11 -30 -13 -63q-5 -1 -8 -1q0 3 -2 13t-2 15
q0 61 40 98q37 35 95 35q82 0 121 -60q32 -48 32 -122q0 -19 -2 -38q38 37 106 64q0 14 -5.5 40.5t-5.5 39.5q0 84 62 133q56 44 141 44q58 0 105 -45.5t47 -103.5zM883 391v12q-22 14 -33 14h-19q-1 -1 -1 -3q0 -11 12.5 -19.5t24.5 -8.5q11 0 16 5z" />
    <glyph glyph-name="oe" unicode="&#x153;" horiz-adv-x="835" 
d="M786 163h-54v0h-210q-1 -7 -1 -13q0 -44 50 -74q40 -24 77 -24q39 0 72 15q12 6 58 37q-20 -58 -84 -86q-50 -22 -113 -22q-58 0 -105 27t-70 75q-52 -80 -144 -98q-23 -5 -63 -5q-81 0 -139 43q-65 48 -65 131q0 94 82 153q71 51 159 51q53 0 102 -24q54 -26 80 -72
q31 46 88 73q52 24 108 24q84 0 133 -53q43 -48 43 -120q0 -19 -4 -38zM385 199q0 30 -17 68q-21 43 -51 57q34 -44 34 -127q0 -34 -16 -80q-18 -50 -45 -78q42 16 70 68q25 46 25 92zM302 226q0 124 -71 124q-57 0 -85 -96q-19 -65 -19 -132q0 -105 72 -105q55 0 83 83
q20 59 20 126zM667 274q0 72 -49 72q-36 0 -66 -55q-26 -45 -26 -74l-4 -26q2 -1 124 0q21 71 21 83z" />
    <glyph glyph-name="endash" unicode="&#x2013;" horiz-adv-x="458" 
d="M2 260h390v-63h-390v63z" />
    <glyph glyph-name="emdash" unicode="&#x2014;" horiz-adv-x="928" 
d="M2 260h860v-63h-860v63z" />
    <glyph glyph-name="quotedblleft" unicode="&#x201c;" horiz-adv-x="297" 
d="M64 547q1 61 45 94q11 9 71 35q-2 -6 -27 -32q-21 -21 -22 -51l19 -17.5t19 -31.5q0 -21 -15.5 -34.5t-38.5 -13.5q-24 0 -39 17q-12 14 -12 34zM194 547q1 61 45 94q11 9 71 35q-2 -6 -27 -32q-21 -21 -22 -51l19 -17.5t19 -31.5q0 -21 -15.5 -34.5t-38.5 -13.5
q-24 0 -39 17q-12 14 -12 34z" />
    <glyph glyph-name="quotedblright" unicode="&#x201d;" horiz-adv-x="280" 
d="M300 625q-1 -61 -45 -94q-11 -9 -71 -35q2 6 26 31q21 22 23 52l-19 17.5t-19 31.5q0 21 15.5 34.5t38.5 13.5q24 0 37.5 -16t13.5 -35zM170 625q-1 -61 -45 -94q-11 -9 -71 -35q2 6 26 31q21 22 23 52l-19 17.5t-19 31.5q0 21 15.5 34.5t38.5 13.5q24 0 37.5 -16
t13.5 -35z" />
    <glyph glyph-name="quoteleft" unicode="&#x2018;" horiz-adv-x="103" 
d="M-6 547q1 61 45 94q11 9 71 35q-2 -6 -27 -32q-21 -21 -22 -51l19 -17.5t19 -31.5q0 -21 -15.5 -34.5t-38.5 -13.5q-24 0 -39 17q-12 14 -12 34z" />
    <glyph glyph-name="quoteright" unicode="&#x2019;" horiz-adv-x="103" 
d="M110 625q-1 -61 -45 -94q-11 -9 -71 -35q2 6 26 31q21 22 23 52l-19 17.5t-19 31.5q0 21 15.5 34.5t38.5 13.5q24 0 37.5 -16t13.5 -35z" />
    <glyph glyph-name="divide" unicode="&#xf7;" horiz-adv-x="20" 
 />
    <glyph glyph-name="ydieresis" unicode="&#xff;" horiz-adv-x="407" 
d="M397 367q-11 -11 -26 -20q-6 -3 -17 -26q-1 -2 -69 -180q-50 -130 -98 -195q-67 -90 -150 -90q-32 0 -59 16q-32 19 -32 48q0 22 26 37q23 12 47 12q28 0 55 -20q-6 0 -18.5 1.5t-18.5 1.5q-56 0 -56 -41q0 -30 41 -30q59 0 59 80q0 46 -6 81q-15 85 -38 284
q-2 14 -11 22.5t-19 17.5q56 0 172 1q-6 -8 -4 -41q3 -39 35 -288q13 25 109 283q3 6 3 13q0 5 -14 33h89zM124 505q19 0 32 -13.5t13 -32.5q0 -18 -16.5 -30t-36.5 -12q-38 0 -38 43q0 19 13.5 32t32.5 13zM284 505q19 0 32.5 -13.5t13.5 -32.5t-13.5 -32t-32.5 -13
t-32 13.5t-13 32.5t13.5 32t31.5 13z" />
    <glyph glyph-name="Ydieresis" unicode="&#x178;" horiz-adv-x="623" 
d="M668 630q-7 -4 -9 -3q-8 13 -16 13q-17 0 -29 -34q-17 -46 -48 -292q-26 -211 -89 -310q-91 -144 -292 -144q-76 0 -140 34q-83 42 -83 119q0 24 14 52q18 38 46 38q12 0 23.5 -15t11.5 -24q0 -34 -35.5 -57.5t-35.5 -25.5q0 -16 29 -43q26 -25 39 -28q63 -18 62 -18
q124 0 204 103q71 91 92 236l-3 16q-96 -166 -196 -166q-40 0 -72 25q-40 29 -48 82q-1 6 -1 52q0 10 15 188q14 165 11 165q2 25 -17.5 37t-44.5 7q-13 -4 -36 -50q6 24 9 51q35 44 87 44q92 0 129 -85q8 -20 8 -68l-28 -284q0 -41 14.5 -60t54.5 -19q41 0 84 77
q32 60 55 164q30 143 39 172q16 51 50 79t74 28q56 0 72 -56zM269 823q23 0 38.5 -15.5t15.5 -38.5q0 -22 -15.5 -37.5t-38.5 -15.5q-22 0 -37.5 16t-15.5 38t16 37.5t37 15.5zM459 823q22 0 37.5 -15.5t15.5 -38.5q0 -22 -15.5 -37.5t-38.5 -15.5q-22 0 -37.5 16t-15.5 38
t16 37.5t38 15.5z" />
    <glyph glyph-name="currency" unicode="&#xa4;" horiz-adv-x="26" 
 />
    <glyph glyph-name="guilsinglleft" unicode="&#x2039;" horiz-adv-x="274" 
d="M200 425h28l-115 -188l42 -186h-27l-80 186z" />
    <glyph glyph-name="guilsinglright" unicode="&#x203a;" horiz-adv-x="240" 
d="M36 51h-28l115 188l-42 186h27l80 -186z" />
    <glyph glyph-name="daggerdbl" unicode="&#x2021;" horiz-adv-x="237" 
 />
    <glyph glyph-name="periodcentered" unicode="&#xb7;" horiz-adv-x="586" 
d="M293 328q29 0 49.5 -20t20.5 -49t-20.5 -49.5t-49.5 -20.5t-49 20.5t-20 49.5t20 49t49 20z" />
    <glyph glyph-name="periodcentered" unicode="&#x2219;" horiz-adv-x="586" 
d="M293 328q29 0 49.5 -20t20.5 -49t-20.5 -49.5t-49.5 -20.5t-49 20.5t-20 49.5t20 49t49 20z" />
    <glyph glyph-name="quotesinglbase" unicode="&#x201a;" horiz-adv-x="176" 
d="M110 45q-1 -61 -45 -94q-11 -9 -71 -35q2 6 26 31q21 22 23 52l-19 17.5t-19 31.5q0 21 15.5 34.5t38.5 13.5q24 0 37.5 -16t13.5 -35z" />
    <glyph glyph-name="quotedblbase" unicode="&#x201e;" horiz-adv-x="316" 
d="M250 45q-1 -61 -45 -94q-11 -9 -71 -35q2 6 26 31q21 22 23 52l-19 17.5t-19 31.5q0 21 15.5 34.5t38.5 13.5q24 0 37.5 -16t13.5 -35zM110 45q-1 -61 -45 -94q-11 -9 -71 -35q2 6 26 31q21 22 23 52l-19 17.5t-19 31.5q0 21 15.5 34.5t38.5 13.5q24 0 37.5 -16t13.5 -35
z" />
    <glyph glyph-name="perthousand" unicode="&#x2030;" horiz-adv-x="17" 
 />
    <glyph glyph-name="Acircumflex" unicode="&#xc2;" horiz-adv-x="818" 
d="M773 126q0 -56 -42 -92.5t-97 -36.5q-57 0 -89 39q-29 35 -29 93q0 43 12 107q10 53 20 107h-219q-22 -70 -44 -141q-30 -95 -65 -141q-49 -64 -125 -64q-37 0 -68.5 27.5t-31.5 63.5q0 34 34 34q57 0 57 -70q0 -18 -5 -35l20 -5q75 0 123 147l86 288q63 166 166 197
q-23 24 -103 24q-116 0 -195 -95q-75 -90 -75 -208q0 -64 19 -97.5t72 -62.5q-3 -1 -7.5 -4.5t-7.5 -3.5q-59 7 -94 72q-29 54 -29 114q0 116 92 209t208 96q146 3 204 -22q8 1 15 1q17 2 32 2q65 0 86 -23q-32 7 -71 7q2 0 -29 -3q61 -45 86 -78q33 -46 33 -109
q0 -59 -25 -173.5t-25 -172.5q0 -52 40 -52q46 0 60 63zM570 484q0 37 -20 87q-23 60 -54 60q-59 0 -108 -102q-33 -68 -53 -157l218 1q17 69 17 111zM534 841l144 -114l-24 -18l-130 81l-161 -81l-17 18z" />
    <glyph glyph-name="Ecircumflex" unicode="&#xca;" horiz-adv-x="528" 
d="M508 532q0 -36 -19.5 -69.5t-50.5 -47.5q10 17 20.5 36t10.5 37q0 36 -31.5 61.5t-67.5 25.5q-54 0 -83 -38.5t-28 -91.5l9 -6l17 3q25 0 45 -11q24 -13 24 -36q0 -22 -25 -34q-19 -10 -44 -10q-59 0 -103 49q-31 -2 -56 -58q-21 -48 -21 -84q0 -65 67 -113
q61 -43 127 -43q65 0 113 33q54 37 54 98l-3 3q-4 0 -18 -2t-21 -2q-23 0 -39.5 12.5t-16.5 34.5q0 15 11.5 24t26.5 9q39 0 60 -37q18 -31 18 -73q0 -94 -78 -155q-72 -57 -168 -57q-103 0 -169 59q-69 62 -69 164q0 146 164 211q0 14 -5.5 40.5t-5.5 39.5q0 84 62 133
q56 44 141 44q58 0 105 -45.5t47 -103.5zM333 391v12q-22 14 -33 14h-19q-1 -1 -1 -3q0 -11 12.5 -19.5t24.5 -8.5q11 0 16 5zM374 821l144 -114l-24 -18l-130 81l-161 -81l-17 18z" />
    <glyph glyph-name="Aacute" unicode="&#xc1;" horiz-adv-x="818" 
d="M773 126q0 -56 -42 -92.5t-97 -36.5q-57 0 -89 39q-29 35 -29 93q0 43 12 107q10 53 20 107h-219q-22 -70 -44 -141q-30 -95 -65 -141q-49 -64 -125 -64q-37 0 -68.5 27.5t-31.5 63.5q0 34 34 34q57 0 57 -70q0 -18 -5 -35l20 -5q75 0 123 147l86 288q63 166 166 197
q-23 24 -103 24q-116 0 -195 -95q-75 -90 -75 -208q0 -64 19 -97.5t72 -62.5q-3 -1 -7.5 -4.5t-7.5 -3.5q-59 7 -94 72q-29 54 -29 114q0 116 92 209t208 96q146 3 204 -22q8 1 15 1q17 2 32 2q65 0 86 -23q-32 7 -71 7q2 0 -29 -3q61 -45 86 -78q33 -46 33 -109
q0 -59 -25 -173.5t-25 -172.5q0 -52 40 -52q46 0 60 63zM570 484q0 37 -20 87q-23 60 -54 60q-59 0 -108 -102q-33 -68 -53 -157l218 1q17 69 17 111zM419 706l-8 16l165 105q23 14 38 11q10 -3 15.5 -13t2.5 -21q-4 -16 -26 -25z" />
    <glyph glyph-name="Edieresis" unicode="&#xcb;" horiz-adv-x="528" 
d="M508 532q0 -36 -19.5 -69.5t-50.5 -47.5q10 17 20.5 36t10.5 37q0 36 -31.5 61.5t-67.5 25.5q-54 0 -83 -38.5t-28 -91.5l9 -6l17 3q25 0 45 -11q24 -13 24 -36q0 -22 -25 -34q-19 -10 -44 -10q-59 0 -103 49q-31 -2 -56 -58q-21 -48 -21 -84q0 -73 67 -118
q57 -38 127 -38q65 0 113 33q54 37 54 98l-3 3q-4 0 -18 -2t-21 -2q-23 0 -39.5 12.5t-16.5 34.5q0 15 11.5 24t26.5 9q39 0 60 -37q18 -31 18 -73q0 -94 -78 -155q-72 -57 -168 -57q-103 0 -169 59q-69 62 -69 164q0 146 164 211q0 14 -5.5 40.5t-5.5 39.5q0 84 62 133
q56 44 141 44q58 0 105 -45.5t47 -103.5zM333 391v12q-22 14 -33 14h-19q-1 -1 -1 -3q0 -11 12.5 -19.5t24.5 -8.5q11 0 16 5zM294 805q19 0 32 -13.5t13 -32.5t-13.5 -32t-32.5 -13t-32 13.5t-13 32.5t13.5 32t32.5 13zM454 805q19 0 32.5 -13.5t13.5 -32.5t-13.5 -32
t-32.5 -13t-32 13.5t-13 32.5t13.5 32t31.5 13z" />
    <glyph glyph-name="Egrave" unicode="&#xc8;" horiz-adv-x="528" 
d="M508 532q0 -36 -19.5 -69.5t-50.5 -47.5q10 17 20.5 36t10.5 37q0 36 -31.5 61.5t-67.5 25.5q-54 0 -83 -38.5t-28 -91.5l9 -6l17 3q25 0 45 -11q24 -13 24 -36q0 -22 -25 -34q-19 -10 -44 -10q-59 0 -103 49q-31 -2 -56 -58q-21 -48 -21 -84q0 -65 67 -113
q61 -43 127 -43q65 0 113 33q54 37 54 98l-3 3q-4 0 -18 -2t-21 -2q-23 0 -39.5 12.5t-16.5 34.5q0 15 11.5 24t26.5 9q39 0 60 -37q18 -31 18 -73q0 -94 -78 -155q-72 -57 -168 -57q-103 0 -169 59q-69 62 -69 164q0 146 164 211q0 14 -5.5 40.5t-5.5 39.5q0 84 62 133
q56 44 141 44q58 0 105 -45.5t47 -103.5zM333 391v12q-22 14 -33 14h-19q-1 -1 -1 -3q0 -11 12.5 -19.5t24.5 -8.5q11 0 16 5zM495 706l8 16l-165 105q-23 14 -37 11q-10 -3 -15.5 -13t-3.5 -21q4 -16 27 -25z" />
    <glyph glyph-name="Iacute" unicode="&#xcd;" horiz-adv-x="536" 
d="M527 538l-54 -278q-43 -169 -138 -230q-24 -16 -68 -28t-78 -12q-68 0 -120 23q-73 32 -73 100q0 49 35 49q42 0 42 -51q0 -13 -8.5 -35t-19.5 -32q4 -10 20 -15q24 -8 41 -8q74 0 135.5 65t81.5 162q29 133 83 399q-2 2 -7 0q-8 -2 -12 -2q-22 0 -38 -6
q-90 -28 -139 -108q-42 -68 -42 -148q0 -56 20 -89q26 -43 95 -67q0 -6 -9 -6q-12 0 -35 10q-121 48 -121 167q0 96 73.5 173.5t184.5 88.5q2 1 13 3.5t16 2.5h144q-3 -50 -22 -128zM379 706l-8 16l165 105q23 14 38 11q10 -3 15.5 -13t2.5 -21q-4 -16 -26 -25z" />
    <glyph glyph-name="Icircumflex" unicode="&#xce;" horiz-adv-x="536" 
d="M527 538l-54 -278q-43 -169 -138 -230q-24 -16 -68 -28t-78 -12q-68 0 -120 23q-73 32 -73 100q0 49 35 49q42 0 42 -51q0 -13 -8.5 -35t-19.5 -32q4 -10 20 -15q24 -8 41 -8q74 0 135.5 65t81.5 162q29 133 83 399q-2 2 -7 0q-8 -2 -12 -2q-22 0 -38 -6
q-90 -28 -139 -108q-42 -68 -42 -148q0 -56 20 -89q26 -43 95 -67q0 -6 -9 -6q-12 0 -35 10q-121 48 -121 167q0 96 73.5 173.5t184.5 88.5q2 1 13 3.5t16 2.5h144q-3 -50 -22 -128zM434 841l144 -114l-24 -18l-130 81l-161 -81l-17 18z" />
    <glyph glyph-name="Idieresis" unicode="&#xcf;" horiz-adv-x="536" 
d="M527 538l-54 -278q-43 -169 -138 -230q-24 -16 -68 -28t-78 -12q-68 0 -120 23q-73 32 -73 100q0 49 35 49q42 0 42 -51q0 -13 -8.5 -35t-19.5 -32q4 -10 20 -15q24 -8 41 -8q74 0 135.5 65t81.5 162q29 133 83 399q-2 2 -7 0q-8 -2 -12 -2q-22 0 -38 -6
q-90 -28 -139 -108q-42 -68 -42 -148q0 -56 20 -89q26 -43 95 -67q0 -6 -9 -6q-12 0 -35 10q-121 48 -121 167q0 96 73.5 173.5t184.5 88.5q2 1 13 3.5t16 2.5h144q-3 -50 -22 -128zM374 805q19 0 32 -13.5t13 -32.5t-13.5 -32t-32.5 -13t-32 13.5t-13 32.5t13.5 32t32.5 13
zM534 805q19 0 32.5 -13.5t13.5 -32.5t-13.5 -32t-32.5 -13t-32 13.5t-13 32.5t13.5 32t31.5 13z" />
    <glyph glyph-name="Igrave" unicode="&#xcc;" horiz-adv-x="536" 
d="M527 538l-54 -278q-43 -169 -138 -230q-24 -16 -68 -28t-78 -12q-68 0 -120 23q-73 32 -73 100q0 49 35 49q42 0 42 -51q0 -13 -8.5 -35t-19.5 -32q4 -10 20 -15q24 -8 41 -8q74 0 135.5 65t81.5 162q29 133 83 399q-2 2 -7 0q-8 -2 -12 -2q-22 0 -38 -6
q-90 -28 -139 -108q-42 -68 -42 -148q0 -56 20 -89q26 -43 95 -67q0 -6 -9 -6q-12 0 -35 10q-121 48 -121 167q0 96 73.5 173.5t184.5 88.5q2 1 13 3.5t16 2.5h144q-3 -50 -22 -128zM535 706l8 16l-165 105q-23 14 -37 11q-10 -3 -15.5 -13t-3.5 -21q4 -16 27 -25z" />
    <glyph glyph-name="Oacute" unicode="&#xd3;" horiz-adv-x="622" 
d="M610 398q0 -148 -99 -270q-107 -130 -257 -130q-126 0 -197 95q-61 83 -61 199q0 166 107.5 278t276.5 112q120 0 152 -73h-13q-25 48 -97 48q-137 0 -215 -122q-64 -98 -64 -220q0 -97 49 -160q55 -73 156 -73q169 0 220 219q-4 3 0 91q-6 61 -40 102q-37 44 -90 44
q-25 0 -53 -15.5t-38 -39.5q-11 -30 -13 -63q-5 -1 -8 -1q0 3 -2 13t-2 15q0 61 40 98q37 35 95 35q82 0 121 -60q32 -48 32 -122zM319 706l-8 16l165 105q23 14 38 11q10 -3 15.5 -13t2.5 -21q-4 -16 -26 -25z" />
    <glyph glyph-name="Ocircumflex" unicode="&#xd4;" horiz-adv-x="622" 
d="M610 398q0 -148 -99 -270q-107 -130 -257 -130q-126 0 -197 95q-61 83 -61 199q0 166 107.5 278t276.5 112q120 0 152 -73h-13q-25 48 -97 48q-137 0 -215 -122q-64 -98 -64 -220q0 -97 49 -160q55 -73 156 -73q169 0 220 219q-4 3 0 91q-6 61 -40 102q-37 44 -90 44
q-25 0 -53 -15.5t-38 -39.5q-11 -30 -13 -63q-5 -1 -8 -1q0 3 -2 13t-2 15q0 61 40 98q37 35 95 35q82 0 121 -60q32 -48 32 -122zM424 841l144 -114l-24 -18l-130 81l-161 -81l-17 18z" />
    <glyph glyph-name="Ograve" unicode="&#xd2;" horiz-adv-x="622" 
d="M610 398q0 -148 -99 -270q-107 -130 -257 -130q-126 0 -197 95q-61 83 -61 199q0 166 107.5 278t276.5 112q120 0 152 -73h-13q-25 48 -97 48q-137 0 -215 -122q-64 -98 -64 -220q0 -97 49 -160q55 -73 156 -73q169 0 220 219q-4 3 0 91q-6 61 -40 102q-37 44 -90 44
q-25 0 -53 -15.5t-38 -39.5q-11 -30 -13 -63q-5 -1 -8 -1q0 3 -2 13t-2 15q0 61 40 98q37 35 95 35q82 0 121 -60q32 -48 32 -122zM535 706l8 16l-165 105q-23 14 -37 11q-10 -3 -15.5 -13t-3.5 -21q4 -16 27 -25z" />
    <glyph glyph-name="Uacute" unicode="&#xda;" horiz-adv-x="703" 
d="M289 706l-8 16l165 105q23 14 38 11q10 -3 15.5 -13t2.5 -21q-4 -16 -26 -25zM653 139q0 -47 -38 -92q-41 -48 -92 -48q-56 0 -85 46q-24 38 -24 91q0 4 7 50.5t7 50.5v12q-4 4 -6 1q-38 -96 -104 -165q-77 -79 -157 -79q-60 0 -94.5 40t-33.5 104l79 422q2 4 2 9
q0 9 -7 21q-10 18 -11 21q-4 -3 -6 -2q-9 6 -19 6q-20 0 -37.5 -23t-17.5 -44v-3q1 3 0 3l-12 7q0 4 13.5 28t14.5 27q21 57 113 57q42 0 72.5 -43t26.5 -86l-80 -402q12 -66 75 -66q94 0 170 177q39 93 58 183q19 76 55 229l137 1l-6 -27q0 2 -55.5 -231t-55.5 -273
q0 -30 5 -41q9 -21 39 -21q42 0 58 71q6 1 9 1v-12z" />
    <glyph glyph-name="Ucircumflex" unicode="&#xdb;" horiz-adv-x="703" 
d="M404 841l144 -114l-24 -18l-130 81l-161 -81l-17 18zM653 139q0 -47 -38 -92q-41 -48 -92 -48q-56 0 -85 46q-24 38 -24 91q0 4 7 50.5t7 50.5v12q-4 4 -6 1q-38 -96 -104 -165q-77 -79 -157 -79q-60 0 -94.5 40t-33.5 104l79 422q2 4 2 9q0 9 -7 21q-10 18 -11 21
q-4 -3 -6 -2q-9 6 -19 6q-20 0 -37.5 -23t-17.5 -44v-3q1 3 0 3l-12 7q0 4 13.5 28t14.5 27q21 57 113 57q42 0 72.5 -43t26.5 -86l-80 -402q12 -66 75 -66q94 0 170 177q39 93 58 183q19 76 55 229l137 1l-6 -27q0 2 -55.5 -231t-55.5 -273q0 -30 5 -41q9 -21 39 -21
q42 0 58 71q6 1 9 1v-12z" />
    <glyph glyph-name="Ugrave" unicode="&#xd9;" horiz-adv-x="703" 
d="M485 706l8 16l-165 105q-23 14 -37 11q-10 -3 -15.5 -13t-3.5 -21q4 -16 27 -25zM653 139q0 -47 -38 -92q-41 -48 -92 -48q-56 0 -85 46q-24 38 -24 91q0 4 7 50.5t7 50.5v12q-4 4 -6 1q-38 -96 -104 -165q-77 -79 -157 -79q-60 0 -94.5 40t-33.5 104l79 422q2 4 2 9
q0 9 -7 21q-10 18 -11 21q-4 -3 -6 -2q-9 6 -19 6q-20 0 -37.5 -23t-17.5 -44v-3q1 3 0 3l-12 7q0 4 13.5 28t14.5 27q21 57 113 57q42 0 72.5 -43t26.5 -86l-80 -402q12 -66 75 -66q94 0 170 177q39 93 58 183q19 76 55 229l137 1l-6 -27q0 2 -55.5 -231t-55.5 -273
q0 -30 5 -41q9 -21 39 -21q42 0 58 71q6 1 9 1v-12z" />
    <glyph glyph-name="circumflex" unicode="&#x2c6;" horiz-adv-x="498" 
d="M264 841l144 -114l-24 -18l-130 81l-161 -81l-17 18z" />
    <glyph glyph-name="tilde" unicode="&#x2dc;" horiz-adv-x="497" 
d="M365 830h19q-8 -99 -74 -99q-28 0 -120 38q-15 6 -44 6q-21 0 -26 -7q-11 -10 -26 -42l-18 6q7 97 76 97q27 0 93 -25q53 -21 66 -21q25 0 33 10l12 14q8 11 9 23z" />
    <glyph glyph-name="macron" unicode="&#xaf;" 
d="M396 802v-53h-292v53h292z" />
    <glyph glyph-name="macron" unicode="&#x2c9;" 
d="M396 802v-53h-292v53h292z" />
    <glyph glyph-name="cedilla" unicode="&#xb8;" 
d="M262 7l-20 -61q12 1 21 1q28 0 49.5 -15t21.5 -42q0 -38 -41 -58q-32 -15 -75 -15q-23 0 -51 6l4 27q21 -4 35 -4q64 0 64 43q0 31 -42 31q-11 0 -26 -3l27 90h33z" />
    <glyph glyph-name="notequal" unicode="&#x2260;" horiz-adv-x="14" 
 />
    <glyph glyph-name="partialdiff" unicode="&#x2202;" horiz-adv-x="293" 
d="M223 338l70 35l-6 -45l-71 -35l-37 -254q-4 -23 15 -40h-179q11 12 25 37q17 90 34 198l-73 -35l6 41l74 36q11 66 56 369q1 13 -10 30h161q-14 -12 -17 -30q-21 -123 -48 -307z" />
    <glyph glyph-name="summation" unicode="&#x2211;" 
d="M459 204q0 -61 -45 -121q-60 -80 -200 -80q-65 0 -130 33q-87 43 -87 119q0 19 11 37q12 22 33 22q19 0 31 -18q9 -15 9 -32q0 -19 -9 -39q-2 -4 -14 -17.5t-12 -18.5q0 -26 59 -45q44 -14 69 -14q59 0 102 30q51 34 51 97q0 59 -64 107q-59 42 -119 84q-63 57 -63 138
q0 101 98 160q48 29 136 29q50 0 89 -23q48 -28 48 -79q0 -50 -37 -50q-40 0 -40 46q0 18 10 36q9 13 18 27q-14 26 -69 26q-50 0 -87.5 -37t-37.5 -84q0 -59 65 -106q60 -42 120 -83q65 -59 65 -144zM290 709l-144 115l24 17l130 -81l161 81l17 -17z" />
    <glyph glyph-name="product" unicode="&#x220f;" horiz-adv-x="359" 
d="M330 125q0 -74 -67 -107q-46 -24 -109 -24q-85 0 -154 39v68q65 -78 161 -78q80 0 80 50q0 29 -58 45q-94 25 -108 32q-58 28 -58 89q0 74 61 109q46 25 112 25q60 0 82 -10q10 -5 40 -16l11 -70q-59 71 -135 71q-72 0 -72 -52q0 -18 29 -31q22 -10 41 -11q18 -7 51 -18
q93 -23 93 -111zM185 406l-107 86l17 13l98 -61l121 61l12 -13z" />
    <glyph glyph-name="pi" unicode="&#x3c0;" horiz-adv-x="617" 
d="M668 632q-6 -4 -9 -3q-7 12 -15 12q-17 0 -30 -34q-17 -46 -47 -291q-26 -211 -89 -310q-92 -144 -293 -144q-75 0 -140 33q-83 43 -83 119q0 24 14 53q18 37 46 37q13 0 24 -14.5t11 -24.5q0 -33 -38.5 -57.5t-38.5 -26.5q0 -16 33 -46q30 -27 43 -30q39 -12 61 -12
q124 0 204 104q70 90 91 235l-2 16q-97 -165 -197 -165q-39 0 -72 24q-39 29 -48 83q-1 5 -1 51q0 11 16 190q15 168 12 168q-3 43 -46 43q-10 0 -20 -3q-19 -7 -38 -43q-2 21 5 33t8 11q35 44 88 44q92 0 128 -86q9 -20 9 -67l-28 -285q0 -41 13 -58q15 -21 55 -21
q53 0 89 66q32 59 52 169q26 142 38 178q16 51 50 79t73 28q57 0 72 -55zM269 706l-8 16l165 105q23 14 38 11q10 -3 15.5 -13t2.5 -21q-4 -16 -26 -25z" />
    <glyph glyph-name="integral" unicode="&#x222b;" horiz-adv-x="412" 
d="M397 367q-11 -11 -26 -20q-6 -3 -17 -26q-1 -2 -69 -180q-50 -130 -98 -195q-67 -90 -150 -90q-32 0 -59 16q-32 19 -32 48q0 22 26 37q23 12 47 12q28 0 55 -20q-6 0 -18.5 1.5t-18.5 1.5q-56 0 -56 -41q0 -30 41 -30q59 0 59 80q0 46 -6 81q-15 85 -38 284
q-2 14 -10 23t-17 18h169q-6 -8 -4 -41q3 -39 35 -288q13 25 109 283q3 6 3 13q0 5 -14 33h89zM109 406l-8 16l165 105q23 14 38 11q10 -3 15.5 -13t2.5 -21q-4 -16 -26 -25z" />
    <glyph glyph-name="Omega" unicode="&#x3a9;" horiz-adv-x="615" 
d="M32 430h46q39 114 135.5 183t226.5 69q120 0 152 -73l-20 -9q-28 53 -101 53q-103 0 -171 -70q-57 -57 -82 -153l207 1l-20 -54h-197q-5 -30 -5 -59l203 -1l-19 -53l-180 -1q11 -83 56 -134q51 -59 138 -59q51 0 124 43q4 3 4.5 -8.5t3.5 -8.5q-98 -98 -219 -98
q-117 0 -188 84q-61 73 -69 182l-72 -1l20 55l52 -1q1 31 7 60h-52z" />
    <glyph glyph-name="Omega" unicode="&#x2126;" horiz-adv-x="615" 
d="M32 430h46q39 114 135.5 183t226.5 69q120 0 152 -73l-20 -9q-28 53 -101 53q-103 0 -171 -70q-57 -57 -82 -153l207 1l-20 -54h-197q-5 -30 -5 -59l203 -1l-19 -53l-180 -1q11 -83 56 -134q51 -59 138 -59q51 0 124 43q4 3 4.5 -8.5t3.5 -8.5q-98 -98 -219 -98
q-117 0 -188 84q-61 73 -69 182l-72 -1l20 55l52 -1q1 31 7 60h-52z" />
    <glyph glyph-name="radical" unicode="&#x221a;" horiz-adv-x="20" 
 />
    <glyph glyph-name="approxequal" unicode="&#x2248;" horiz-adv-x="23" 
 />
    <glyph glyph-name="approxequal" unicode="&#x22f2;" horiz-adv-x="23" 
 />
    <glyph glyph-name="Delta" unicode="&#x394;" horiz-adv-x="17" 
 />
    <glyph glyph-name="Delta" unicode="&#x2206;" horiz-adv-x="17" 
 />
    <glyph glyph-name="lozenge" unicode="&#x25ca;" horiz-adv-x="17" 
 />
    <glyph glyph-name="fraction" unicode="&#x2044;" horiz-adv-x="20" 
 />
    <glyph glyph-name="fi" unicode="&#xf001;" horiz-adv-x="17" 
 />
    <glyph glyph-name="fl" unicode="&#xf002;" horiz-adv-x="17" 
 />
    <glyph glyph-name="apple" unicode="&#xf000;" horiz-adv-x="237" 
 />
    <glyph glyph-name="dotlessi" unicode="&#x131;" horiz-adv-x="234" 
d="M-11 0q15 11 17 24l48 318q2 8 -9 25h159q-6 -5 -10.5 -10t-6.5 -14q-18 -105 -46 -315q-4 -18 9 -28h-161z" />
    <glyph glyph-name="breve" unicode="&#x2d8;" 
d="M331 813h23q-8 -104 -113 -104q-106 0 -116 104h24q4 -22 19 -35q30 -27 72 -27q32 0 59 18.5t32 43.5z" />
    <glyph glyph-name="dotaccent" unicode="&#x2d9;" 
d="M249 838q25 0 42 -17t17 -42t-17 -42t-42 -17t-42 18t-17 42q0 25 17.5 41.5t41.5 16.5z" />
    <glyph glyph-name="ring" unicode="&#x2da;" horiz-adv-x="560" 
d="M294 862q32 0 55.5 -19.5t23.5 -50.5q0 -36 -25.5 -58.5t-62.5 -22.5q-33 0 -55.5 20t-22.5 52q0 35 25.5 57t61.5 22zM293 840q-22 0 -34.5 -17.5t-12.5 -40.5q0 -49 40 -49q23 0 35.5 18t12.5 41q0 48 -41 48z" />
    <glyph glyph-name="hungarumlaut" unicode="&#x2dd;" 
d="M149 719l-10 9l90 115q14 18 28 18q21 0 21 -24q0 -12 -14 -24zM252 719l-10 9l90 115q14 18 28 18q21 0 21 -24q0 -12 -15 -24z" />
    <glyph glyph-name="ogonek" unicode="&#x2db;" horiz-adv-x="565" 
d="M297 0h35q-63 -36 -63 -87q0 -30 21 -47t51 -17q22 0 46 13l11 -23q-39 -23 -83 -23q-43 0 -73 19q-36 23 -36 63q0 64 91 102z" />
    <glyph glyph-name="caron" unicode="&#x2c7;" horiz-adv-x="606" 
d="M270 709l-144 115l24 17l130 -81l161 81l17 -17z" />
    </font>
</defs>
</svg>
