<?xml version="1.0" standalone="no"?>
<!DOCTYPE svg PUBLIC "-//W3C//DTD SVG 1.1//EN" "http://www.w3.org/Graphics/SVG/1.1/DTD/svg11.dtd" >
<svg>
<metadata>
Created by FontForge 20120731 at Tue Apr 16 16:32:30 2019
 By www-data
Generated by Fontographer 4.1.4
</metadata>
<defs>
<font id="AdastraRoyal" horiz-adv-x="237" >
  <font-face 
    font-family="Adastra Royal"
    font-weight="400"
    font-stretch="normal"
    units-per-em="1000"
    panose-1="0 0 4 0 0 0 0 0 0 0"
    ascent="800"
    descent="-200"
    x-height="368"
    cap-height="666"
    bbox="-153 -195 1314 862"
    underline-thickness="20"
    underline-position="-123"
    unicode-range="U+0020-F002"
  />
<missing-glyph horiz-adv-x="500" 
d="M63 0v800h375v-800h-375zM125 63h250v675h-250v-675z" />
    <glyph glyph-name=".notdef" horiz-adv-x="500" 
d="M63 0v800h375v-800h-375zM125 63h250v675h-250v-675z" />
    <glyph glyph-name=".null" horiz-adv-x="0" 
 />
    <glyph glyph-name="glyph2" 
 />
    <glyph glyph-name="space" unicode=" " 
 />
    <glyph glyph-name="exclam" unicode="!" horiz-adv-x="216" 
d="M121 158l-33 -3l79 521q23 12 64 30q-36 -183 -110 -548zM139 665l-82 -519l-32 -8q15 155 53 466q3 14 -6 34q19 11 67 27zM123 51q0 -26 -17.5 -41t-37.5 -15q-29 0 -44 23q-12 17 -12 37q0 18 16 37t36 19q24 0 41.5 -19t17.5 -41z" />
    <glyph glyph-name="quotedbl" unicode="&#x22;" horiz-adv-x="290" 
d="M188 609q-22 -245 -19 -245t68 29l74 271q0 -3 -123 -55zM28 609q-22 -245 -19 -245t68 29l74 271q0 -3 -123 -55z" />
    <glyph glyph-name="numbersign" unicode="#" horiz-adv-x="433" 
d="M266 436h-88l-34 -219h97q14 126 25 219zM42 482h80q10 79 16 122q3 14 -6 34q16 9 83 32l-29 -188h86q10 79 16 122q3 14 -6 34q16 9 83 32l-29 -188h88l-8 -46h-88l-34 -219h99l-9 -46h-97l-26 -167l-43 -9l18 176h-99l-26 -167l-43 -9l18 176h-84l9 46h80
q14 126 25 219h-82z" />
    <glyph glyph-name="dollar" unicode="$" horiz-adv-x="559" 
d="M543 554q-95 104 -170 99q-19 -75 -41 -226q91 -50 133 -95q52 -55 52 -121q0 -89 -70 -150.5t-168 -61.5q-13 0 -26 1q-4 -7 -5 -22q-3 -20 -4 -24q-19 -10 -33 -3q0 4 5 21.5t4 24.5q-119 -13 -228 112q-4 4 7 35q8 25 17 50q35 -61 94 -110q64 -53 116 -57
q-2 0 22 122t24 125q-110 60 -136 84q-54 47 -54 118q0 50 35 101q39 58 106 85q62 25 119 25l6 43l36 6q-6 -38 -6 -49q68 -5 155 -54q10 -58 10 -79zM338 660q-53 -5 -92 -29q-51 -29 -51 -77q0 -34 29.5 -65.5t76.5 -42.5zM469 179q0 81 -83 136q-76 41 -153 82
q-83 50 -83 119q0 22 10 60q-34 -34 -34 -80q0 -75 83 -122q78 -39 156 -77q84 -53 84 -139q0 -17 -4 -44q24 40 24 65zM396 135q0 81 -94 123q-46 -227 -46 -231h43q37 0 67 34.5t30 73.5z" />
    <glyph glyph-name="percent" unicode="%" horiz-adv-x="738" 
d="M559 -5q-16 -4 -44 -3q-57 3 -95 52q-42 55 -38 146q6 104 66 165q53 54 114 50q51 -2 90 -48q43 -53 43 -134q0 -71 -35 -137q-39 -76 -101 -91zM657 209q2 34 -8 75q-12 49 -32 65q21 -49 16 -141q-2 -37 -16 -87q-15 -54 -36 -84q31 16 53 72q20 50 23 100zM601 242
q7 136 -43 138q-40 2 -65 -102q-17 -70 -21 -144q-6 -116 44 -118q39 -2 63 88q18 65 22 138zM486 348q-64 -62 -69 -165q-2 -36 7 -74q10 -44 28 -62q-14 57 -10 133q2 51 10 81t34 87zM177 220q-16 -4 -44 -3q-57 3 -94 52q-43 55 -39 146q6 104 67 165q52 54 114 51
q50 -3 89 -49q43 -53 43 -134q0 -70 -34 -137q-40 -75 -102 -91zM275 435q2 33 -8 74q-12 49 -32 65q21 -49 16 -141q-2 -37 -16 -87q-15 -54 -35 -84q30 16 52 72q20 50 23 101zM219 467q7 136 -43 138q-40 2 -65 -102q-17 -70 -21 -144q-6 -116 44 -118q39 -2 64 88
q17 65 21 138zM104 573q-63 -62 -69 -165q-2 -36 7 -74q10 -43 28 -62q-14 57 -10 133q2 51 10 81t34 87zM502 621l-378 -626l49 11l413 629z" />
    <glyph glyph-name="ampersand" unicode="&#x26;" horiz-adv-x="595" 
d="M336 459q-18 0 -29 21q5 6 5 9q15 -12 29 -12q27 0 27 23q0 24 -25 38q-21 12 -47 12q-37 0 -70 -21q-37 -26 -37 -64q0 -17 16 -46q-3 -3 -14 0q-67 12 -67 89q0 31 2 36q3 12 27 47q37 56 126 56q53 0 88 -26q37 -29 37 -81q0 -33 -16 -55q-18 -26 -52 -26zM599 456
q0 -136 -191 -146q-12 -1 -36 -9q-1 -2 2 -5q81 -28 81 -122q0 -86 -65 -136q-57 -42 -138 -42q-106 0 -175.5 61.5t-69.5 156.5q0 67 40 126q47 70 118 70q17 0 32 -10q-51 7 -79 -37q-24 -36 -24 -84q0 -74 60 -121q52 -41 117 -41q45 0 81 22q46 28 46 81q0 64 -55 64
q-32 0 -32 -30q0 -14 15 -21q-28 -2 -44 21q-13 20 -13 47q0 70 76 99q70 17 141 34q76 20 76 65q0 38 -35 50h17q22 0 40 -36q15 -31 15 -57zM379 552q-2 14 -25 35q-28 26 -59 26q-136 0 -136 -118q0 -17 6 -28q21 117 125 117q48 0 85 -35zM568 444q-50 -45 -112 -56
t-88 -22q-56 -23 -66 -66q25 27 56 39q9 3 50 12q86 19 93 22q55 21 67 71zM423 174q-58 -106 -180 -106q-80 0 -132 58.5t-52 140.5q0 20 4 40q-26 -30 -20 -91q8 -85 69 -133q56 -44 137 -44q61 0 111 32q61 38 63 103z" />
    <glyph glyph-name="quotesingle" unicode="'" horiz-adv-x="144" 
d="M32 635q-26 -271 -23 -271t68 29l78 297q0 -3 -123 -55z" />
    <glyph glyph-name="parenleft" unicode="(" horiz-adv-x="310" 
d="M243 -19q-121 11 -192 131q-57 97 -57 207q0 135 84 242q98 125 254 119l-3 -24q-96 0 -151 -205q-39 -145 -39 -253q0 -73 19 -121q27 -70 88 -70q-5 0 -4 -7q2 -6 4 -13q-2 -3 -3 -6zM209 627q-79 -56 -120 -144q-40 -82 -40 -176q0 -120 62 -217q-28 108 -28 187
q0 83 32 167q26 70 94 183z" />
    <glyph glyph-name="parenright" unicode=")" horiz-adv-x="376" 
d="M84 680q120 -10 191 -130q57 -97 57 -207q0 -135 -84 -243q-98 -124 -254 -119l3 25q96 0 151 205q39 145 39 253q0 73 -18 121q-27 70 -89 70q5 0 4 7q-2 6 -3 12q1 3 3 6zM117 35q79 56 121 143q39 83 39 177q0 120 -62 217q28 -108 28 -187q0 -83 -32 -167
q-26 -70 -94 -183z" />
    <glyph glyph-name="asterisk" unicode="*" horiz-adv-x="370" 
d="M65 417q-31 23 -65 47q4 1 149 41q-36 26 -91 65q9 77 8 80q3 -3 110 -109q4 44 11 112q35 15 73 33q-1 -5 -39 -151q40 19 102 47q31 -23 65 -47q-4 -1 -150 -41q37 -25 92 -65q-10 -77 -8 -80q-3 4 -111 110q-4 -45 -10 -112q-36 -15 -74 -33q2 4 40 150
q-40 -19 -102 -47z" />
    <glyph glyph-name="plus" unicode="+" horiz-adv-x="573" 
d="M262 303h23l4 25h-23zM539 302l-9 -52q-10 16 -32 16q-59 -1 -179 -1l-26 -176q-2 -18 12 -30h-58l32 206h-23l-32 -206h-56q9 9 19 28q15 79 31 178q-24 0 -89 1h-89q-22 0 -32 -9l8 47l208 -1l4 25l-214 -2l11 53q6 -6 22 -10h187l27 184q2 10 -7 23h51l-32 -207h22
l32 207h50q-11 -9 -13 -24q-14 -78 -29 -183l177 1q16 5 37 13l-9 -56l-211 1l-4 -25z" />
    <glyph glyph-name="comma" unicode="," horiz-adv-x="176" 
d="M110 45q-1 -61 -45 -94q-11 -9 -71 -35q2 6 26 31q21 22 23 52l-19 17.5t-19 31.5q0 21 15.5 34.5t38.5 13.5q24 0 37.5 -16t13.5 -35z" />
    <glyph glyph-name="hyphen" unicode="-" horiz-adv-x="338" 
d="M292 270q-28 -40 -26 -40h-187l37 57h116q26 1 53 12q32 13 42 34q-14 -27 -35 -63zM261 207q-14 -28 -35 -55h-121q-19 0 -61 -16t-40 -16q29 43 63 87h194z" />
    <glyph glyph-name="hyphen" unicode="&#x2010;" horiz-adv-x="338" 
d="M292 270q-28 -40 -26 -40h-187l37 57h116q26 1 53 12q32 13 42 34q-14 -27 -35 -63zM261 207q-14 -28 -35 -55h-121q-19 0 -61 -16t-40 -16q29 43 63 87h194z" />
    <glyph glyph-name="period" unicode="." horiz-adv-x="181" 
d="M114 51q0 -21 -16 -38t-35 -17q-22 0 -38.5 16t-16.5 37q0 20 16.5 36.5t38.5 16.5q17 0 34 -16.5t17 -34.5z" />
    <glyph glyph-name="slash" unicode="/" horiz-adv-x="478" 
d="M429 687l-447 -730l49 12l481 732z" />
    <glyph glyph-name="zero" unicode="0" horiz-adv-x="583" 
d="M536 334q0 -119 -75 -223q-86 -119 -215 -119q-120 0 -190 111q-56 90 -56 197q0 120 75 220q85 112 214 112q117 0 188 -107q59 -89 59 -191zM476 360q0 47 -12 96t-30 69q15 -61 15 -167q0 -60 -24 -141q-22 -76 -53 -135q104 112 104 278zM408 463q0 46 -21 88
q-29 56 -82 56q-90 0 -140 -187q-34 -128 -34 -230q0 -173 105 -173q90 0 139 207q33 138 33 239zM173 557q-119 -111 -119 -280q0 -91 47 -173q-24 94 -24 162q0 131 96 291z" />
    <glyph glyph-name="one" unicode="1" horiz-adv-x="286" 
d="M206 95q-6 -34 -6 -56q0 -17 4 -27q2 -6 4 -11l-71 -1q19 141 38 281q26 189 49 308q2 11 47 45h16zM197 569l-86 -570h-71q8 24 21 48q8 15 13 53l46 338q-1 16 -15 16q-10 0 -30 -9q-27 -12 -28 -12h-4q0 2 3 5v3q76 69 151 128z" />
    <glyph glyph-name="two" unicode="2" horiz-adv-x="443" 
d="M441 471q0 -46 -107 -210q-76 -115 -153 -231h97h32q6 1 80 18q-10 -20 -31 -58q-16 4 -35 11h-231l154 230q144 218 144 250q0 51 -41 88.5t-93 33.5q-15 1 -43 -5q145 -19 145 -120q0 -34 -144 -257q-146 -226 -146 -228l-75 8l176 252q134 197 134 231q0 37 -35 58
q-28 17 -61 17q-58 0 -130 -75v16q-1 60 72 103q61 36 114 36q73 0 125 -50.5t52 -117.5z" />
    <glyph glyph-name="three" unicode="3" horiz-adv-x="476" 
d="M433 499q0 -55 -34 -86t-106 -50q136 -59 136 -163q0 -95 -76 -154q-67 -51 -150 -51q-63 0 -113 30q-65 40 -88 119q61 -81 138 -81q70 0 113 57q36 49 36 114q0 51 -38.5 88.5t-101.5 41.5q62 1 101 28q46 31 46 90q0 42 -27 67t-65 25q-59 0 -96 -57q10 57 68 92
q49 30 106 30q53 0 101 -40q50 -44 50 -100zM380 505q-6 40 -33.5 70t-60.5 32q-32 2 -45 -5q53 -7 85 -42q28 -30 28 -65q0 -39 -33 -86q29 7 47 43q15 31 12 53zM372 209q0 36 -20.5 69.5t-51.5 46.5q21 -18 35 -58q12 -32 12 -55q0 -64 -44 -114q-46 -53 -126 -66
q1 0 7 -2.5t11 -2.5q73 0 125 55t52 127z" />
    <glyph glyph-name="four" unicode="4" horiz-adv-x="478" 
d="M441 262q-14 -35 -30 -61q-3 2 -25 2q-22 1 -23 -1q-20 -99 -20 -142q0 -15 -3 -24t-3 -10q0 -4 14 -26h-78l94 599l67 41l-61 -393q23 1 31 1q12 0 37 14zM246 1h-71q34 43 50 205l-223 1q66 86 124 154q140 165 213 218q6 31 -93 -578zM267 478q-152 -150 -193 -225
q35 0 158 -1z" />
    <glyph glyph-name="five" unicode="5" horiz-adv-x="489" 
d="M232 625l-85 -263q-11 2 -57 0l89 264q51 0 53 -1zM450 635q-7 -49 -91 -49h-57q-24 -81 -59 -205q96 6 153 -51q51 -53 51 -136q0 -101 -76 -156q-63 -46 -153 -46q-67 0 -123 29q-67 33 -88 95q35 -37 56 -48q27 -14 74 -14q69 0 118 46t49 116q0 146 -133 146l86 264
h134q30 0 59 9zM399 194q0 41 -21 80q-23 44 -57 51q16 -16 30.5 -56t14.5 -70q0 -59 -43 -105t-115 -69q83 -2 139 53q52 51 52 116z" />
    <glyph glyph-name="six" unicode="6" horiz-adv-x="529" 
d="M506 597q-15 1 -32 1q-27 0 -53 -3.5t-19 -3.5q-39 0 -91.5 -33t-64.5 -65q104 -13 169 -81.5t65 -161.5q0 -87 -59 -167q-68 -94 -170 -94q-113 0 -182 86q-61 77 -61 180q0 153 113.5 264.5t266.5 111.5q49 0 72 -8zM423 258q1 44 -22 93q-21 46 -41 57q36 -59 31 -158
q-3 -65 -13 -101q-16 -55 -57 -106q98 73 102 215zM278 580q-106 -38 -165 -139q-52 -90 -52 -199q0 -44 21 -101q25 -63 57 -81q-50 108 -50 181q0 83 48 177q54 108 141 162zM348 288q0 43 -27 102q-35 79 -89 79q-34 0 -65 -129q-24 -102 -24 -138q0 -46 16 -102
q24 -86 71 -86q59 0 93 107q25 80 25 167z" />
    <glyph glyph-name="seven" unicode="7" horiz-adv-x="402" 
d="M431 629q-89 -200 -250 -572q-8 -20 -8 -27q0 9 8 -29h-88l279 628h59zM63 1h-69q24 25 143 290q108 241 133 311h-142q-42 0 -61 -5q-28 -7 -71 -35q5 13 39 79q12 -5 32 -11h279q-16 -28 -283 -629z" />
    <glyph glyph-name="eight" unicode="8" horiz-adv-x="505" 
d="M468 499q0 -86 -110 -132q48 -49 67 -79q29 -47 29 -97q0 -90 -68 -145q-63 -50 -156 -50q-82 0 -147 40q-77 47 -77 123q0 60 40 109t99 67q-61 58 -61 134q0 78 67 125q59 43 141 43q69 0 119 -33q57 -38 57 -105zM408 500q0 48 -32.5 81t-79.5 33q-40 0 -69 -27.5
t-29 -66.5q0 -30 56 -85q53 -53 76 -52q29 2 55 46q23 40 23 71zM410 172q0 71 -68 128l-126 88q-68 52 -68 111q0 7 1.5 21t1.5 20q-21 -31 -21 -63q0 -51 69 -105q63 -47 127 -94q68 -60 68 -125q0 -14 -3 -29q1 8 10 26t9 22zM340 140q0 46 -43 86q-13 12 -82 58l-47 32
q-38 0 -73 -58q-32 -52 -32 -93q0 -60 44 -104t104 -44q48 0 88.5 37.5t40.5 85.5z" />
    <glyph glyph-name="nine" unicode="9" horiz-adv-x="530" 
d="M8 24q15 -2 32 -2q27 0 53 3.5t19 3.5q39 0 91.5 33.5t64.5 65.5q-104 12 -169 80.5t-65 161.5q0 87 59 168q68 93 170 93q113 0 182 -86q61 -77 61 -180q0 -153 -113.5 -264.5t-266.5 -111.5q-49 0 -72 8q-23 14 -46 27zM91 362q-1 -43 22 -93q21 -46 41 -56
q-36 58 -31 157q3 65 13 101q16 55 57 107q-98 -74 -102 -216zM236 40q106 38 165 139q52 90 52 199q0 44 -21 101q-25 63 -57 82q50 -109 50 -182q0 -82 -48 -177q-54 -107 -141 -162zM166 332q0 -42 27 -101q35 -79 89 -79q34 0 65 128q24 102 24 138q0 46 -16 102
q-24 87 -71 87q-59 0 -93 -107q-25 -81 -25 -168z" />
    <glyph glyph-name="colon" unicode=":" horiz-adv-x="179" 
d="M153 321q0 -21 -16 -38t-35 -17q-23 0 -39.5 16t-16.5 37q0 20 16.5 36.5t39.5 16.5q16 0 33.5 -16.5t17.5 -34.5zM114 51q0 -21 -16 -38t-35 -17q-22 0 -38.5 16t-16.5 37q0 20 16.5 36.5t38.5 16.5q17 0 34 -16.5t17 -34.5z" />
    <glyph glyph-name="semicolon" unicode=";" horiz-adv-x="176" 
d="M151 313q0 -21 -14.5 -36t-34.5 -15q-21 0 -36.5 15.5t-15.5 35.5q0 21 16 36t37 15t36 -17q12 -15 12 -34zM110 45q-1 -61 -45 -94q-11 -9 -71 -35q2 6 26 31q21 22 23 52l-19 17.5t-19 31.5q0 21 15.5 34.5t38.5 13.5q24 0 37.5 -16t13.5 -35z" />
    <glyph glyph-name="less" unicode="&#x3c;" horiz-adv-x="1356" 
d="M1314 13q-14 -10 -31 -10q-69 0 -159 25.5t-151 61.5q-64 38 -150 110q-72 60 -143 120q-158 123 -295 163q-79 22 -133 22q-28 0 -63 -5q35 -13 71 -27q41 -16 67 -34q50 -34 114 -99q52 -55 105 -109q84 -81 157 -138q64 -50 140 -50q29 0 68 20t38 20q5 0 11 -5.5
t6 -11.5q0 -7 -22 -24q-47 -36 -108 -36q-55 0 -97 21q-98 47 -200 142l-180 184q-123 112 -216 112q-27 0 -38 -4q-2 -1 -10.5 -6t-13.5 -5t-11.5 6t-6.5 11q0 16 93 68q34 19 109.5 43.5t116.5 30.5q48 7 118 7q170 0 293 -78q127 -82 186 -237q16 -43 40 -176
q4 -21 89 -42q71 -17 107 -18l17 -1q18 0 28 4q4 2 12 38t24 36q5 0 11.5 -5.5t6.5 -11.5v-112zM981 142v14q0 23 -36 105q-62 141 -193.5 229.5t-284.5 88.5q-48 0 -115 -12q-73 -13 -110 -31q205 -9 425 -161q48 -33 126 -97q89 -72 124 -98q32 -24 64 -38z" />
    <glyph glyph-name="equal" unicode="=" horiz-adv-x="446" 
d="M22 260h390l-20 -63h-390zM52 390h390l-20 -63h-390z" />
    <glyph glyph-name="greater" unicode="&#x3e;" horiz-adv-x="1310" 
d="M23 12q13 -10 31 -10q68 0 158.5 25.5t153 62.5t148.5 109q72 60 143 120q158 123 295 163q79 22 132 22q28 0 64 -5q-36 -13 -71 -27q-41 -16 -67 -34q-50 -34 -114 -99q-53 -55 -105 -109q-84 -81 -157 -138q-64 -50 -140 -50q-29 0 -68 20t-38 20q-6 0 -11.5 -5.5
t-5.5 -11.5q0 -7 22 -24q47 -36 107 -36q56 0 98 21q98 47 199 142q91 92 181 184q123 112 216 112q27 0 38 -4q2 -1 10 -6t14 -5q5 0 11.5 6t6.5 11q0 16 -93 68q-34 19 -109.5 43.5t-116.5 30.5q-48 7 -119 7q-169 0 -292 -78q-127 -82 -186 -237q-16 -43 -40 -176
q-4 -21 -89 -42q-71 -17 -108 -18l-16 -1q-18 0 -28 4q-4 2 -12 38t-24 36q-6 0 -12 -5.5t-6 -11.5v-112zM356 141v14q0 23 36 105q62 141 193.5 229.5t284.5 88.5q48 0 115 -12q73 -13 110 -31q-205 -9 -426 -161q-48 -33 -125 -97q-89 -72 -123 -97t-65 -39z" />
    <glyph glyph-name="question" unicode="?" horiz-adv-x="280" 
d="M300 554q0 -73 -47 -146q-9 -12 -88 -111q-47 -58 -47 -95q0 -41 30 -41h17q13 -1 17 -1q-26 -27 -70 -27q-48 0 -75 40q-22 32 -22 73q0 57 76 152t76 150q0 39 -22 63t-57 24q-49 0 -75 -53q4 52 47 81q37 25 86 25q67 0 110.5 -36.5t43.5 -97.5zM140 44q0 -25 -21 -42
q-17 -14 -37 -14q-24 0 -41 19t-17 40q0 23 19 39.5t39 16.5q24 0 41 -20t17 -39zM237 577q-5 17 -27 44q-27 31 -48 31h-12q67 -33 67 -109q0 -54 -45 -113q-41 -47 -81 -95q-43 -54 -41 -97q1 -15 12 -35q14 -24 32 -30q-19 50 -19 53q0 43 44 98q40 49 80 97
q43 60 43 114q0 21 -5 42z" />
    <glyph glyph-name="A" unicode="A" horiz-adv-x="818" 
d="M773 126q0 -56 -42 -92.5t-97 -36.5q-57 0 -89 39q-29 35 -29 93q0 43 12 107q10 53 20 107h-219q-22 -70 -44 -141q-30 -95 -65 -141q-49 -64 -125 -64q-37 0 -68.5 27.5t-31.5 63.5q0 34 34 34q57 0 57 -70q0 -18 -5 -35l20 -5q75 0 123 147l86 288q63 166 166 197
q-23 24 -103 24q-116 0 -195 -95q-75 -90 -75 -208q0 -64 19 -97.5t72 -62.5q-3 -1 -7.5 -4.5t-7.5 -3.5q-59 7 -94 72q-29 54 -29 114q0 116 92 209t208 96q146 3 204 -22q8 1 15 1q17 2 32 2q65 0 86 -23q-32 7 -71 7q2 0 -29 -3q61 -45 86 -78q33 -46 33 -109
q0 -59 -25 -173.5t-25 -172.5q0 -52 40 -52q46 0 60 63zM570 484q0 37 -20 87q-23 60 -54 60q-59 0 -108 -102q-33 -68 -53 -157l218 1q17 69 17 111zM652 461q1 7 1 14q0 38 -23 79t-53 56q51 -62 51 -131q0 -9 -1 -18l-32 -172q-20 -113 -20 -168q0 -26 18 -55t43 -29
q8 0 12 1q-21 10 -35.5 32.5t-14.5 46.5q0 50 21 170q17 87 33 174z" />
    <glyph glyph-name="B" unicode="B" horiz-adv-x="755" 
d="M699 139q0 -72 -74 -110q-59 -32 -138 -32q-57 0 -96 12q-28 8 -89 38q-76 -50 -154 -50q-52 0 -94 22q-52 27 -52 75q0 13 8.5 27.5t20.5 14.5q49 0 49 -72q0 -22 -7 -37q6 -9 20 -9q82 0 115 131q24 121 49 242q40 131 143 131q70 0 80 -60q-19 16 -31 16
q-30 0 -73 -181q-48 -206 -67 -234q5 -16 49 -27q36 -10 60 -10q62 0 103 40t41 103q0 37 -17 57q-10 14 -49 39l-18 -7l-37 12q67 15 103.5 60.5t36.5 113.5q0 72 -76 112q-62 33 -141 33q-103 0 -164 -47q-66 -52 -66 -152q0 -24 14 -50q-35 44 -35 105q0 114 98 183
q87 61 207 61q112 0 191 -55q89 -63 89 -171q0 -61 -45 -108q-30 -32 -98 -70q64 -4 104 -43t40 -103zM644 459q0 90 -70 145q-65 50 -158 50q-46 0 -98 -13q-60 -15 -87 -40q63 31 146 31q103 0 168 -46q74 -52 74 -152q0 -47 -24 -87q49 35 49 112zM648 152q0 39 -23.5 66
t-62.5 36q49 -55 49 -102q0 -77 -76 -124q48 12 78 43q35 35 35 81zM380 482q-30 -10 -48 -35t-34 -109q-27 -143 -31 -156q-23 -94 -58 -145q54 21 82 114q8 26 38 181q21 110 51 150z" />
    <glyph glyph-name="C" unicode="C" horiz-adv-x="602" 
d="M634 501q0 -112 -76 -191.5t-187 -79.5q-21 0 -82 20l38 -2q112 -7 184 76q68 78 68 194q0 70 -42 108q-40 35 -111 35q-123 0 -208 -124q-76 -112 -76 -241q0 -104 57 -170q61 -71 163 -71q109 0 169 118l7 -7q0 -73 -92 -128q-80 -47 -159 -47q-130 0 -208 87
q-76 83 -76 214q0 177 120 287q115 106 292 106q91 0 152 -45q67 -51 67 -139zM322 25q-110 20 -169 91t-59 182q0 161 146 325q-80 -39 -135 -140q-51 -95 -51 -188q0 -124 73 -198t195 -72z" />
    <glyph glyph-name="D" unicode="D" horiz-adv-x="803" 
d="M472 469q0 -10 -10 -14q-1 24 -20 24q-25 0 -41 -73q-24 -106 -38 -135q-34 -73 -101 -73t-87 60q11 -14 25 -14q24 0 40 75q23 108 38 140q35 75 106 75q31 0 59.5 -18t28.5 -47zM715 331q0 137 -94.5 230t-231.5 93q-34 0 -89 -13q-62 -16 -81 -34q69 26 145 26
q170 0 259 -118q80 -107 76 -280q16 64 16 96zM393 497q-45 -14 -68 -66q-11 -24 -30 -104q-16 -67 -37 -93q42 15 66 86q14 55 28 111q5 17 18 35q21 28 23 31zM447 32q-46 9 -163 66q-103 50 -161 50q-24 0 -39 -8q57 -3 168 -58q107 -52 171 -52q12 0 24 2zM758 356
q0 -155 -102.5 -258.5t-258.5 -103.5q-66 0 -132 28l-104 52q-57 28 -103 28q-24 0 -39 -21l4 -8l23 7q21 0 40 -14t19 -34q0 -12 -12.5 -21t-24.5 -9q-28 0 -47 25t-19 53q0 61 55 89q43 22 110 22q46 0 175 -68t187 -68q132 0 132 191q0 144 -83 240q-88 100 -230 100
q-99 0 -171 -48q-83 -56 -83 -149q0 -32 14 -71q-39 29 -39 110q0 119 114 197q101 68 227 68q148 0 248 -95t100 -242z" />
    <glyph glyph-name="E" unicode="E" horiz-adv-x="528" 
d="M508 532q0 -36 -19.5 -69.5t-50.5 -47.5q10 17 20.5 36t10.5 37q0 36 -31.5 61.5t-67.5 25.5q-54 0 -83 -38.5t-28 -91.5l9 -6l17 3q25 0 45 -11q24 -13 24 -36q0 -22 -25 -34q-19 -10 -44 -10q-59 0 -103 49q-31 -2 -56 -58q-21 -48 -21 -84q0 -65 67 -113
q61 -43 127 -43q65 0 113 33q54 37 54 98l-3 3q-4 0 -18 -2t-21 -2q-23 0 -39.5 12.5t-16.5 34.5q0 15 11.5 24t26.5 9q39 0 60 -37q18 -31 18 -73q0 -94 -78 -155q-72 -57 -168 -57q-103 0 -169 59q-69 62 -69 164q0 146 164 211q0 14 -5.5 40.5t-5.5 39.5q0 84 62 133
q56 44 141 44q58 0 105 -45.5t47 -103.5zM472 556q-8 32 -50 58q-38 24 -73 24q-59 0 -106 -45.5t-47 -103.5q0 -19 9 -44q11 -29 26 -36q-12 30 -12 61q0 59 40 103t98 44q69 0 115 -61zM333 391v12q-22 14 -33 14h-19q-1 -1 -1 -3q0 -11 12.5 -19.5t24.5 -8.5q11 0 16 5z
M383 80q-66 -27 -117 -27q-63 0 -124 43q-67 46 -67 106q0 5 -4.5 20t-4.5 24q0 7 10 73q-12 -15 -21.5 -44.5t-9.5 -49.5q0 -80 65 -135t146 -55q70 0 127 45z" />
    <glyph glyph-name="F" unicode="F" horiz-adv-x="567" 
d="M607 665q0 -64 -50 -100q-42 -32 -99 -32l-203 14q-69 0 -118 -34q-59 -41 -59 -116q0 -68 62 -68q2 -3 8 -9h-47q-15 0 -37 19q-18 18 -24 31q-15 35 -15 76q0 65 36 121q39 60 109 88q39 15 116 15l244 -21q33 0 39 1q25 6 32 30q6 -5 6 -15zM537 311q-26 -39 -71 -45
q-37 -4 -74 -7q-1 -4 -5 -12q-25 -134 -76 -192q-55 -62 -160 -62q-55 0 -95 20q-55 26 -55 80q0 41 29 41q47 0 47 -76q0 -26 -6 -35q14 -12 38 -12q75 0 113 112q9 25 28 135q-8 5 -32 5q-34 0 -57 -13h-13q25 45 54 83l4 -5q-1 -5 -9 -21q4 -5 32 -5h25q27 97 49 134
q43 73 117 73q31 0 50 -12q25 -17 24 -32v-19q-7 22 -13 25q2 -1 -12 -1q-29 0 -53 -76q-19 -60 -19 -89q0 -4 6 -10h83q16 0 42 21q3 -1 9 -5zM558 609q-18 -2 -53 -2l-233 17q-79 0 -135 -34q-73 -46 -82 -144q55 154 207 154l205 -18q23 0 51.5 9t39.5 18zM400 473
q-28 -9 -37 -25q-30 -48 -47 -137q-26 -140 -28 -149q-23 -83 -70 -129q64 31 90 112q5 15 32 162q20 105 60 166z" />
    <glyph glyph-name="G" unicode="G" horiz-adv-x="617" 
d="M599 359q0 2 -15 -77q-30 -161 -59 -228q-18 -41 -27 -57q-20 -35 -47 -62q-88 -85 -242 -85q-80 0 -138 26q-85 38 -85 123q0 29 12 51q14 28 41 28q35 0 35 -41q0 -47 -63 -81v-10q0 -6 31 -33q13 -11 50 -20q34 -8 61 -8q185 0 258 233q27 87 27 113q0 6 -1 8
q-88 -161 -235 -161q-92 0 -148 64q-54 60 -54 149q0 176 136 282q122 95 290 95q-13 0 70 -6q36 -3 68 -43q29 -36 29 -65q0 -47 -52 -82q-43 -30 -78 -30q-25 0 -48 12q-29 16 -29 41q0 31 40 31q19 0 42.5 -17t32.5 -39h9q7 0 29 28q12 14 12 51q0 103 -134 103
q-126 0 -211 -121q-73 -105 -73 -215q0 -71 41 -112.5t107 -41.5q146 0 174 206q1 5 16 3q29 -2 48 0q-16 -90 -33 -179q-21 -112 -60 -177q-52 -89 -153 -133q0 -1 3 -4q112 32 169 120q42 64 64 182q16 95 33 191q56 0 55 -1zM295 132q-19 -2 -46 -2q-81 0 -126 52
q-42 49 -42 132q0 149 122 271q-70 -36 -114 -137q-36 -83 -36 -151q0 -59 25 -106q30 -55 88 -74q96 -1 129 15z" />
    <glyph glyph-name="H" unicode="H" horiz-adv-x="920" 
d="M877 117q0 -11 -8 -31q-40 -93 -139 -93q-89 0 -132 75q-33 56 -33 134q0 46 21 148h-171q-14 -102 -49 -176q-83 -176 -253 -177q-42 0 -76 19q-43 25 -43 69q0 13 7.5 27.5t21.5 14.5t23 -9q18 -18 20 -46q1 -12 -5 -52q7 -6 33 -6q47 0 87 37.5t45 86.5
q-155 52 -155 195q0 95 61 194q73 116 184 140q41 9 76 9q1 -2 0 -8q-2 -9 -2 -12q0 -17 -41 -209q-22 -109 -43 -218q-35 -136 -98 -188q-1 0 -1 -1l1 -1h5q12 0 36 23q46 45 69 117q6 17 27 118q24 111 76 379h55l-55 -300h168l70 300h58q-96 -355 -96 -489q0 -60 23 -100
q31 -55 96 -55q12 0 25 5q-1 1 -6 4q-57 8 -86 53q-24 38 -24 94q0 128 97 488h58q-10 -31 -64 -297h90q15 3 43 8q-14 -40 -64 -40h-75q-25 -141 -25 -168q0 -50 13 -74q19 -34 68 -34q71 0 79 93l8 4v-51zM330 629v20h-15q-20 0 -69 -38q-42 -32 -55 -50
q-82 -113 -82 -235q0 -56 24 -99q29 -53 87 -69q8 -2 12 1q5 17 40 191h-37l-47 -23l49 80l3 -25l40 2z" />
    <glyph glyph-name="I" unicode="I" horiz-adv-x="536" 
d="M527 538l-54 -278q-43 -169 -138 -230q-24 -16 -68 -28t-78 -12q-68 0 -120 23q-73 32 -73 100q0 49 35 49q42 0 42 -51q0 -13 -8.5 -35t-19.5 -32q4 -10 20 -15q24 -8 41 -8q74 0 135.5 65t81.5 162q29 133 83 399q-2 2 -7 0q-8 -2 -12 -2q-22 0 -38 -6
q-90 -28 -139 -108q-42 -68 -42 -148q0 -56 20 -89q26 -43 95 -67q0 -6 -9 -6q-12 0 -35 10q-121 48 -121 167q0 96 73.5 173.5t184.5 88.5q2 1 13 3.5t16 2.5h60v-23q1 -7 -64 -322q-47 -229 -163 -291h-1q0 -1 1 -1.5t5 -0.5q31 0 89 61q52 56 59 82q11 35 33 117
q14 75 43 223q9 50 27 155h55q-3 -50 -22 -128z" />
    <glyph glyph-name="J" unicode="J" horiz-adv-x="554" 
d="M581 668l-28 -130l-58 -284q-28 -134 -62 -207q-29 -64 -98 -114q-64 -46 -123 -54q-53 -8 -71 -8q-65 0 -106 23q-54 31 -54 96q0 25 12 45q14 25 39 25q34 0 34 -37q0 -44 -60 -78q-2 -10 17 -21q30 -18 57 -18q14 0 62 11q59 14 115 85q50 63 62 122q-1 2 -6 5
q-88 21 -137 89q-43 60 -43 136q0 78 39 156q48 97 131 126q25 10 81 26q23 4 25 4h81q4 0 4 -8q0 -21 -29 -134q-31 -159 -62 -319q-45 -189 -140 -259q-1 -2 2 -5q65 38 95 87q40 64 61 146q4 17 29 144q20 104 73 348zM435 645q0 2 -8 2t-10 1q-31 0 -69 -16
q-87 -37 -131 -126q-35 -70 -35 -148q0 -115 58 -171q23 -23 49 -35q17 -8 27 -8q5 0 10 5z" />
    <glyph glyph-name="K" unicode="K" horiz-adv-x="835" 
d="M829 636q-9 21 -23 21q-27 0 -42 -59q-3 -9 -11 -68q-18 -119 -33 -177q-10 -40 -52 -64q-38 -22 -78 -20q-2 0 -9 -5q-4 -55 20 -110q31 -71 90 -71q85 0 93 115q7 -99 -37.5 -154t-130.5 -55q-55 0 -96 38.5t-58 112.5q-7 32 -15 116q-13 16 -33 21q-5 0 -8 -13
q-26 -141 -90 -208t-173 -67h-19q-37 0 -75 22q-49 27 -49 70q0 41 29 41q16 0 28.5 -15.5t16.5 -36.5q-1 -20 -2 -56q12 -10 36 -10q44 0 76 45q4 6 42 82q-5 5 -10 8q-70 27 -102 95q-24 50 -24 113q0 82 36 160q43 95 123 133q74 35 91 35h47q4 -5 4 -14q0 12 -17 -99
q-20 -132 -24 -152q-15 -94 -32 -161q-19 -78 -39 -121q-24 -55 -68 -106v-4q14 7 37 27q28 23 34 37q55 111 92 296l50 300h53l-61 -374q3 -14 24 -26t39 -12q5 0 10 1.5t6 1.5l14 -94q13 -65 39 -100q35 -46 96 -46q44 0 60 16q1 2 -3 5q-19 -7 -39 -7q-134 0 -134 233
q23 10 25 11q17 10 24 25q20 41 35.5 152t36.5 153q35 69 116 69q19 0 39 -7q25 -8 25 -23v-20zM757 659q-7 4 -16 0q-40 -24 -58 -91q-2 -9 -24 -134q-16 -87 -43 -135q25 7 32 18q27 42 43 146q19 118 35 156q10 24 31 40zM330 633v24q-4 0 -9 4q-95 -26 -149 -140
q-43 -92 -43 -187q0 -152 100 -183q21 50 37 122q12 58 23 116q12 54 27 151q14 87 14 93z" />
    <glyph glyph-name="L" unicode="L" horiz-adv-x="669" 
d="M665 497q0 -75 -50 -137q-58 -70 -157 -83q-2 1 -8 6q73 5 121 90q40 71 40 142q0 64 -38 107q-41 46 -105 46q-112 0 -156 -115q-27 -108 -54 -215q-36 -115 -126 -115q-62 0 -73 67q6 4 10 4q-2 -17 16 -17q13 0 19 13q9 20 23 96q11 43 29 130q10 62 89 115
q71 48 127 49q12 0 40 5t31 5q92 0 153 -46q69 -52 69 -147zM611 122q0 -68 -67 -108q-53 -32 -112 -32q-67 0 -196 57.5t-174 57.5q-16 0 -33 -7q-21 -9 -21 -23v-18q3 -3 8 -1q28 13 44 13q52 0 52 -39q0 -36 -41 -36q-43 0 -64 31q-17 25 -17 62q0 62 51 97q42 29 96 29
q62 0 198.5 -66.5t187.5 -66.5q56 0 74 38v10q-6 6 -9 6q-4 0 -8.5 -2t-9.5 -2q-20 0 -43 16.5t-23 37.5q0 13 14.5 24.5t26.5 11.5q33 0 52 -36q14 -27 14 -54zM299 628q-51 -24 -75 -86q-4 -10 -23 -91q-13 -56 -43 -161q-5 -12 -28 -34h13q13 6 29 18q25 43 55 179
q27 121 72 175zM525 34q-8 2 -34 2q-56 0 -192.5 61t-186.5 61q-15 0 -41 -10t-30 -22q29 7 51 7q60 0 186 -57.5t179 -57.5q19 0 68 16z" />
    <glyph glyph-name="M" unicode="M" horiz-adv-x="1022" 
d="M977 90q-14 -55 -56 -83q-33 -21 -69 -21q-57 0 -90 40q-30 37 -30 91q0 41 43 226.5t43 206.5q0 7 -2 7q-4 0 -11 -14q-66 -124 -132 -247q-85 -162 -155 -310q-14 103 -44 310q-7 59 -15 119q-18 101 -56 159q-51 80 -138 80q-25 0 -54 -17l6 -5q10 4 30 4
q71 0 110 -44q54 -62 76 -184q15 -86 34 -245q17 -142 17 -153v-20q-24 -6 -53 0q-12 108 -23 216q-17 141 -40 248q-7 33 -22 60q-2 0 -5 -3q-24 -106 -35 -147q-23 -89 -47 -154q-43 -117 -52 -134q-47 -87 -114 -87q-33 0 -65 24t-32 57q0 13 10.5 25.5t23.5 12.5
q54 0 49 -102l6 -6q17 -2 23 1q55 28 82 95q18 58 37 115q10 23 43 153q38 150 38 196q0 32 -77 36q-38 0 -67 -24q-32 -26 -32 -66q0 -37 30 -66t67 -29q6 0 13 1q-10 -6 -25 -6q-54 0 -84 37q-26 32 -26 80q0 52 22 64q-4 3 -7 3q48 92 163 92h46q31 -4 71.5 -31t70.5 -94
q21 -48 30 -99q5 -20 12 -61q3 -16 7 -50q7 -51 13 -102q8 -60 19 -94l294 528q21 -12 49 -19l-108 -527q-4 -29 15 -65q21 -39 52 -39h31q0 -2 7 5q-52 17 -67 44q-9 16 -9 59q0 45 26 160l83 360q22 -7 49 -1l-104 -523q3 -68 54 -68q24 0 52 25q-4 0 -1 0z" />
    <glyph glyph-name="N" unicode="N" horiz-adv-x="764" 
d="M819 666q-36 -10 -53 -60q-7 -20 -15 -73q-27 -167 -82 -503q-1 -4 10 -40q-15 -4 -33 -4q-25 0 -35 5q-18 52 -56 158q-30 97 -61 194q-43 133 -93 200q-69 92 -166 92q-62 0 -88 -25q55 7 74 7q82 0 143 -69q46 -53 84 -152q26 -76 51 -151q27 -83 86 -255h-67
q-34 102 -164 457q-12 33 -27 45q-3 -11 -37 -187q-27 -142 -64 -214q-54 -102 -143 -102q-27 0 -50 11q-29 14 -29 41q0 15 11.5 26.5t25.5 11.5q55 0 77 -72l14 6q18 0 45 46q21 36 29 59q19 25 51 204q31 170 31 222q-34 31 -87 31q-43 0 -70 -23t-27 -65q0 -51 65 -91
h-16q-12 -1 -30 15q-47 41 -47 103q0 76 58 123q52 42 123 42q116 0 183 -94q38 -53 73 -140q3 -9 52 -141q25 -73 80 -218l23 145q20 136 40 273q35 180 86 171z" />
    <glyph glyph-name="O" unicode="O" horiz-adv-x="622" 
d="M610 398q0 -148 -99 -270q-107 -130 -257 -130q-126 0 -197 95q-61 83 -61 199q0 166 107.5 278t276.5 112q120 0 152 -73h-13q-25 48 -97 48q-137 0 -215 -122q-64 -98 -64 -220q0 -97 49 -160q55 -73 156 -73q169 0 220 219q-4 3 0 91q-6 61 -40 102q-37 44 -90 44
q-25 0 -53 -15.5t-38 -39.5q-11 -30 -13 -63q-5 -1 -8 -1q0 3 -2 13t-2 15q0 61 40 98q37 35 95 35q82 0 121 -60q32 -48 32 -122zM86 301q0 205 183 340q-109 -48 -168 -159q-48 -89 -48 -181q0 -103 53 -177q64 -90 179 -90q22 0 57 9q-138 9 -203 88q-53 65 -53 170z" />
    <glyph glyph-name="P" unicode="P" horiz-adv-x="697" 
d="M699 423q0 -122 -86 -203q-82 -78 -196 -78q-4 0 -29 1.5t-29 1.5q-20 0 -22 -6q-32 -85 -88 -118q-41 -23 -106 -23q-47 0 -84 13q-60 23 -60 76q0 41 34 41t43 -43q3 -30 5 -60q1 -2 5 -6q32 -1 40 4q50 32 72 104q12 56 24 111t38 176q9 42 52 73q40 30 79 30
q24 0 47 -14q28 -17 34 -47v-13q-20 21 -31 21q-25 0 -37 -40q-16 -54 -38 -149q-19 -88 -19 -96v-10q13 -6 35 -6q94 0 145 83q41 65 41 145q0 94 -73 144q-59 42 -141 42q-92 0 -155 -52q-70 -57 -70 -150q0 -35 4 -49q3 -6 13.5 -21.5t10.5 -20.5v-13q-52 57 -52 139
q0 123 99 201q90 71 208 71q115 0 198 -69q89 -74 89 -190zM648 417q0 106 -81 168q-72 55 -169 55q-72 0 -128 -31q68 17 114 17q106 0 171 -59q69 -62 69 -173q0 -78 -56 -157q80 73 80 180zM378 478q-27 -12 -41 -28q-22 -26 -53.5 -193t-71.5 -213q51 34 75 120
q16 81 31 162q21 100 60 152z" />
    <glyph glyph-name="Q" unicode="Q" horiz-adv-x="726" 
d="M677 408q0 -150 -81 -258q-93 -124 -268 -150q-1 -1 -5 -4q143 -34 204 -34q42 0 76 22q45 28 45 80q0 13 -3 28l14 -36q1 -4 1 -24q0 -63 -43 -116q-46 -58 -117 -65q-8 -1 -65 -1q-84 0 -194.5 22.5t-140.5 22.5q-62 0 -62 -25q0 -10 11 -23h-13q-25 32 -25 62
q0 55 62 82q45 18 98 17q1 2 3.5 2.5t4.5 2.5q-175 82 -175 277q0 101 54 202q0 -4 3 -7q42 96 153 149q91 44 190 44q128 0 203 -78q70 -74 70 -192zM618 413q0 75 -14 114q-20 61 -82 104q-26 18 -100 18q-86 0 -156 -64t-99 -175q-23 -89 -23 -97q0 -281 204 -281
q128 0 204 128q66 109 66 253zM235 600q-83 -42 -132 -139q-43 -85 -43 -169q0 -69 29 -134q37 -82 104 -106q-52 38 -81 114q-24 63 -24 124q0 79 37 161q40 90 110 149zM572 -74q-45 -11 -82 -10l-335 50q-56 -5 -81 -27q18 2 65 2l322 -49q72 0 111 34z" />
    <glyph glyph-name="R" unicode="R" horiz-adv-x="746" 
d="M702 423q0 -108 -87 -168q-16 -11 -45 -23q-34 -14 -45 -20q-5 -3 -5 -5q0 -48 29 -92q32 -49 77 -49q55 0 58 69q1 -2 5.5 -4.5t4.5 -5.5q0 -55 -41.5 -90.5t-96.5 -35.5q-82 0 -122 56q-32 44 -44 133q-1 3 -7 6q-6 2 -9 0q-36 -197 -228 -197q-51 0 -92 21
q-51 27 -51 72q0 42 30 42q34 0 45 -39q5 -19 6 -66l23 -9q79 0 111 129q24 120 49 240q39 130 137 130q29 0 49 -13.5t20 -37.5q0 -7 -1 -14q1 10 -8 17.5t-21 5.5q-24 -4 -46 -113q-11 -69 -23 -138q11 -9 30 -12l32 -4q2 -68 36 -119q39 -58 101 -58l3 5q-58 15 -83 65
q-14 27 -28 106q34 18 69 36q62 43 62 126q0 96 -73 152q-67 51 -166 51q-85 0 -152 -48q-73 -53 -73 -135q0 -41 34 -83q-27 18 -42 59q-13 35 -13 72q0 100 77 168q72 63 176 68q139 6 229 -48q109 -65 109 -202zM654 412q0 106 -82 167q-74 55 -183 55q-157 0 -223 -104
q78 82 201 82q117 0 190 -58q80 -62 80 -175q0 -24 -17 -71q34 40 34 104zM388 477q-50 -21 -74 -110q-17 -87 -33 -173q-21 -105 -58 -147l2 -3q45 18 72 107q6 18 39 177q23 108 52 149z" />
    <glyph glyph-name="S" unicode="S" horiz-adv-x="501" 
d="M459 204q0 -61 -45 -121q-60 -80 -200 -80q-65 0 -130 33q-87 43 -87 119q0 19 11 37q12 22 33 22q19 0 31 -18q9 -15 9 -32q0 -19 -9 -39q-2 -4 -14 -17.5t-12 -18.5q0 -26 59 -45q44 -14 69 -14q59 0 102 30q51 34 51 97q0 59 -64 107q-59 42 -119 84q-63 57 -63 138
q0 101 98 160q48 29 136 29q50 0 89 -23q48 -28 48 -79q0 -50 -37 -50q-40 0 -40 46q0 18 10 36q9 13 18 27q-14 26 -69 26q-50 0 -87.5 -37t-37.5 -84q0 -59 65 -106q60 -42 120 -83q65 -59 65 -144zM403 199q0 62 -55 111l-110 76q-65 47 -79 101q-6 21 -6 25q0 42 31 97
q-51 -41 -51 -112t64 -122q60 -40 121 -79q64 -50 64 -118q0 -23 -13 -56.5t-28 -52.5q30 23 47 64q15 35 15 66z" />
    <glyph glyph-name="T" unicode="T" horiz-adv-x="560" 
d="M600 638q0 -53 -44 -81q-40 -26 -94 -20l-236 24q-55 6 -108 -27q-58 -35 -58 -89q0 -33 21.5 -53.5t54.5 -23.5l-17 -1q-53 -3 -83 36q-28 36 -28 90q0 99 77 145q62 37 167 37q49 0 144.5 -15.5t141.5 -15.5q26 0 37 9q13 13 25 26v-41zM511 441l-6 -19q2 24 -22 24
q-35 0 -57 -113q-26 -133 -35 -164q-25 -79 -73 -115q-57 -44 -163 -44q-52 0 -95 22q-52 27 -52 75q0 14 10 24t25 10q50 0 50 -68q0 -20 -5 -40q20 -10 38 -10q87 0 123 121l52 224q38 120 130 120q62 0 80 -47zM564 616q-21 -10 -50 -10q-46 0 -139.5 14t-139.5 14
q-169 0 -198 -142q31 62 73.5 88t112.5 26q50 0 132 -11q67 -8 133 -17q24 -2 45 7q25 10 31 31zM438 459q-22 1 -34 -7q-35 -22 -69 -150l-42 -172q-14 -42 -61 -86q59 8 90 98l44 178q27 107 72 139z" />
    <glyph glyph-name="U" unicode="U" horiz-adv-x="703" 
d="M653 139q0 -47 -38 -92q-41 -48 -92 -48q-56 0 -85 46q-24 38 -24 91q0 5 7 51t7 50v12q-4 4 -6 1q-38 -96 -104 -165q-77 -79 -157 -79q-60 0 -94.5 40t-33.5 104l79 422q2 4 2 9q0 9 -7 21q-10 18 -11 21q-4 -3 -6 -2q-9 6 -18 6q-21 0 -39 -24.5t-17 -45.5v29
q0 5 6 17q9 17 10 19q21 57 113 57q42 0 72.5 -43t26.5 -86l-80 -402q12 -66 75 -66q94 0 170 177q39 93 58 183q19 76 55 229h51v-15q0 3 -55 -228t-55 -288q0 -103 74 -103q10 0 12 3q-2 9 -17 16q-19 8 -27 20q-15 23 -15 72q0 45 26 151q31 124 86 369h51v-23
q0 2 -55.5 -231t-55.5 -273q0 -30 5 -41q9 -21 39 -21q42 0 58 71q6 1 9 1v-12zM192 562q2 24 -18 56q-23 35 -51 32q11 -13 26 -36q14 -27 12 -60l-76 -407q-7 -24 15 -57q6 -9 29.5 -25.5t30.5 -16.5h25q-26 9 -49 39.5t-23 53.5q0 7 3 12z" />
    <glyph glyph-name="V" unicode="V" horiz-adv-x="588" 
d="M550 445q0 -103 -44 -203q-52 -118 -151 -190q-5 0 -13 -2q-2 -4 -7 -12q-63 -35 -150 -35q-179 0 -179 149q0 45 31 172q18 73 36 145q20 101 20 106q0 16 -10 28.5t-23 12.5q-14 0 -26.5 -11.5t-23.5 -22.5v15l9 18q32 67 101 67q27 0 45 -8q57 -27 63 -117l-87 -419
q4 -97 97 -97q39 0 105 43q73 48 115 180q33 105 33 203q0 175 -108 195q-3 -16 -11 -48q-8 -22 -26 -36t-35 -14t-29 14t-12 31q0 37 45 56q31 14 60 14q46 0 88 -25q51 -30 72 -84q15 -39 15 -125zM172 571q0 34 -8 48q-7 11 -20 19.5t-19 8.5h-22q17 -18 26 -30
q17 -25 19 -47l-90 -425q0 -33 22 -65q24 -36 58 -42q-53 51 -53 100q0 7 1 13z" />
    <glyph glyph-name="W" unicode="W" horiz-adv-x="973" 
d="M945 368q0 -165 -113 -274q-107 -104 -250 -104q-62 0 -107 29q-58 38 -61 117q-1 3 -4 9q-4 -4 -9 -10q-22 -61 -66 -102q-47 -43 -96 -43q-59 0 -89 50q-25 41 -25 102q0 24 4 46q-129 82 -129 220q0 -7 8 58q7 57 67 121t103 64q3 0 7 -4q2 2 2 13q7 2 30 7q19 4 24 4
h47q0 -2 2 -5.5t2 -4.5l-105 -541q-2 -6 -2 -11q0 -57 53 -70l33 2q-35 12 -52 40q-15 24 -11 50l106 544h43q12 -4 12 -18l-102 -523q5 -53 46 -53q26 0 45 24q12 15 30 53q29 61 47 140q15 64 30 127q16 3 62 0v-30q0 2 -29.5 -114t-29.5 -136q0 -71 62 -112q13 -3 15 -2
q-56 61 -56 119q0 26 18 100q4 13 33 121q6 28 12 57q16 -3 52 -3q0 -1 2 -4t2 -8q0 4 -6 -21q-57 -235 -57 -260q0 -46 27.5 -76.5t72.5 -30.5q96 0 144 112q33 78 33 168q0 118 -54 195q-64 91 -185 91q-125 0 -157 -97q0 -14 -2 -39q-5 -1 -8 -1q-8 23 -8 38q0 48 26 84
q76 106 221 106q140 0 219 -95q71 -87 71 -219zM896 362q0 171 -124 243q-65 38 -132 38q-33 0 -78 -12q9 2 50 2q124 0 196 -98q64 -85 64 -204q0 -77 -35 -176q59 87 59 207zM212 535v10h-6v-10h6zM221 647q-3 0 -12 -3.5t-14 -3.5q-6 0 -6 7q-4 -7 -16 -17
q-43 -21 -78 -74q-30 -45 -38 -86q-11 -62 -11 -100q0 -20 16 -93q2 -9 27.5 -37.5t32.5 -27.5h15q45 202 78 374q7 32 6 61z" />
    <glyph glyph-name="X" unicode="X" horiz-adv-x="712" 
d="M681 640q0 -23 -28 -37q-24 -12 -49 -12q-9 0 -28 7.5t-24 13.5q-9 -4 -22 -24q-24 -39 -56 -101.5t-32 -69.5q0 -29 36 -161q8 -30 15 -60q12 -38 30 -73q10 -19 35 -33q22 -12 40 -12q60 0 75 77v-51q1 -27 -32.5 -59.5t-59.5 -35.5q-37 -5 -44 -5q-148 0 -195 205
q-3 6 -7 9q-68 -107 -104 -146q-63 -68 -128 -68q-35 0 -64 29t-29 63q0 18 10.5 33.5t26.5 15.5q45 0 45 -70q0 -38 -8 -51q1 -2 15 -2q64 0 126 87q29 42 74 137q20 42 20 50q0 11 -18 108q-21 110 -36 153q-6 17 -20 38q-20 30 -41 37q-4 1 -18 1q-50 0 -62 -56
q1 16 3 32q3 22 15 42q-1 -4 3 -8q14 46 104 46q77 0 119 -60q25 -35 63 -147q4 0 6 3q69 105 76 114q66 83 120 83q48 0 48 -42zM558 45q-71 18 -106 98q-10 22 -33 113q-33 138 -53 235q-7 22 -17 63q-6 30 -35 64q-34 39 -67 39h-15q0 -3 3 -9q30 -11 57.5 -46.5
t35.5 -72.5q18 -77 53 -228q21 -97 29 -122q26 -81 64 -114q26 -22 67 -22q10 0 17 2z" />
    <glyph glyph-name="Y" unicode="Y" horiz-adv-x="623" 
d="M668 630q-7 -4 -9 -3q-8 13 -16 13q-17 0 -29 -34q-17 -46 -48 -292q-26 -211 -89 -310q-91 -144 -292 -144q-76 0 -140 34q-83 42 -83 119q0 24 14 52q18 38 46 38q12 0 23.5 -15t11.5 -24q0 -34 -39 -58t-39 -26q0 -17 33 -46q30 -27 43 -31q40 -11 61 -11
q124 0 204 103q71 91 92 236l-3 16q-96 -166 -196 -166q-40 0 -72 25q-40 29 -48 82q-1 6 -1 52q0 55 13 150t13 139q0 33 -5 64q2 2 7 3.5t7 3.5q-1 0 -16 3q-9 18 -27 25q-27 10 -29 12q-20 -7 -39 -46q-1 7 11 39q0 -7 6 -7q4 4 -4 12q35 44 87 44q92 0 129 -85
q8 -20 8 -68l-28 -284q0 -41 14.5 -60t54.5 -19q52 0 88 66q33 59 53 169q26 142 37 178q16 51 50 79t74 28q56 0 72 -56zM598 657h-17q-12 -9 -28 -25q-35 -70 -48 -160q-25 -175 -29 -195q-12 -64 -24 -127q-16 -75 -45 -125q-38 -66 -109 -115q62 18 105 74q59 77 90 244
q17 124 35 248q14 76 35 134q10 26 35 47zM54 644v13h-6v-13h6zM257 133q-59 17 -75 46q-9 16 -9 61l24 298q0 56 -15 82q-3 5 -24 19.5t-26 13.5h-15q41 -34 50 -59q6 -14 6 -59l-28 -304q0 -40 19 -71q25 -36 68 -36q9 0 25 9z" />
    <glyph glyph-name="Z" unicode="Z" horiz-adv-x="664" 
d="M625 629q0 -59 -57 -90q-44 -24 -96 -24q-7 0 -53 2l-89 -161h195q25 0 45 17q24 18 30 50v-30q0 -16 -15 -37q-12 -17 -20 -23q-18 -12 -37 -14l-56 -5h-165q-29 -48 -72 -116q21 -10 94 -40q36 -17 73 -34q45 -20 84 -20q42 0 73 24q34 28 34 70q0 11 -7.5 33.5
t-16.5 31.5q47 -28 47 -101q0 -82 -61 -129q-54 -42 -132 -42q-63 0 -137 37q-86 41 -122 48q-57 -85 -111 -85q-27 0 -42 19q-11 15 -11 34q0 65 78 116q69 45 123 39q26 38 72 115h-38q-13 0 -38 -13l57 91q3 -1 9 -6q-3 -8 -11 -24q3 -6 44 -1q10 17 90 162
q-21 13 -81.5 28.5t-90.5 15.5q-77 0 -115 -52q-25 -34 -25 -69q0 -63 63 -102q-48 14 -75 59q-24 38 -24 82q0 34 16 72.5t38 57.5q44 37 79 52q40 16 98 16q39 0 95 -12q15 -3 56 -17q37 -13 42 -13q-3 0 33 24.5t70 24.5q60 0 60 -61zM600 650q0 23 -33 23q-41 0 -72 -38
q30 -12 53 -12q52 0 52 27zM584 595q-35 -14 -77 -14q-38 0 -131.5 28.5t-142.5 28.5q-80 0 -112 -34q-46 -47 -44 -72q41 47 73 64t73 17q43 0 143.5 -28t133.5 -28q21 0 47 9q33 11 37 29zM542 75q-41 -17 -80 -17q-49 0 -147.5 47.5t-153.5 47.5q-20 0 -49 -10t-42 -21
q42 6 72 6q51 0 153 -47.5t153 -47.5q63 0 94 42zM136 82q4 0 -8.5 2t-38.5 2q-68 -19 -68 -49q0 -7 9.5 -17.5t22.5 -10.5q19 0 47 24t36 49z" />
    <glyph glyph-name="bracketleft" unicode="[" horiz-adv-x="333" 
d="M182 724l-120 -778h-73q11 11 25 36q26 142 111 712q2 13 -10 30h67zM356 724l-5 -29h-92q-25 -146 -110 -716h98l-12 -32h-72q-45 -1 -72 -1l120 778h145z" />
    <glyph glyph-name="backslash" unicode="\" horiz-adv-x="929" 
d="M33 94q0 -7 5 -12q31 15 82 96t55 118q6 60 6 72q0 14 -6 46q-10 52 -10 135q0 20 18 43q23 33 26 39q-147 -46 -147 -184q0 -34 19.5 -99t19.5 -99q0 -35 -21.5 -83.5t-46.5 -71.5zM68 73q0 -4 8 -4q14 0 65 32q46 28 62 43q134 122 183 290q30 101 78 101
q25 0 43 -49.5t49 -49.5q22 0 43.5 21t18.5 43q-48 -13 -43 -13q-17 0 -35 26q-28 40 -36 48q-27 26 -66 26q-46 0 -89 -34.5t-61 -79.5q-10 -25 -20 -68q-13 -58 -17 -70q-18 -62 -51 -123q-39 -72 -80 -102q-4 -3 -31 -17q-13 -6 -21 -20zM24 -2q1 1 5 1q9 0 29 -1t30 -1
q1 2 1 5q0 21 -15.5 36.5t-35.5 15.5q-7 0 -14 -2v-54zM88 58q8 -8 37 -8q35 0 93 12.5t94 26.5q68 28 203 160q126 124 173 133q34 6 46 6q-12 35 -80 35q-49 0 -113 -33q-60 -31 -95 -71q-61 -71 -123 -142q-83 -85 -150 -100q-46 -9 -60 -9q-19 0 -25 -10zM101 39
q17 -14 85 -27q60 -11 93 -11q119 0 233 44q57 27 113 54q76 34 116 34q67 0 67 -46q0 -41 -45 -41q-23 0 -47 20l-17 -14q6 -20 35 -34q26 -13 49 -13q43 0 74.5 31t31.5 75q0 55 -49 88q-42 28 -101 28q-79 0 -176 -51q-83 -48 -167 -95q-100 -51 -184 -51q-21 0 -56 4z
" />
    <glyph glyph-name="bracketright" unicode="]" horiz-adv-x="333" 
d="M163 -54l120 777h73q-11 -11 -25 -35q-26 -141 -111 -712q-2 -13 10 -30h-67zM-11 -54l6 29h91q25 146 110 716h-97l11 32h144l-120 -777h-145z" />
    <glyph glyph-name="asciicircum" unicode="^" horiz-adv-x="434" 
d="M91 439l-45 15l152 243h31l159 -243l-45 -15l-128 201z" />
    <glyph glyph-name="underscore" unicode="_" horiz-adv-x="630" 
d="M-1 -100h676l-1 -61h-675v61z" />
    <glyph glyph-name="grave" unicode="`" horiz-adv-x="500" 
d="M355 706l8 16l-165 105q-23 14 -37 11q-10 -3 -15.5 -13t-3.5 -21q4 -16 27 -25z" />
    <glyph glyph-name="a" unicode="a" horiz-adv-x="468" 
d="M413 223q0 -26 -13 -99t-13 -97q0 -23 8 -28h-70q13 78 30 227q2 34 -13 63q-19 37 -59 52q-5 3 -11 0q34 -23 51 -62q14 -32 12 -64l-30 -216h-54v25q-49 -23 -99 -23q-57 0 -99 26q-52 34 -52 97q0 66 64 104q51 30 110 30q53 0 105 -39q2 4 2 21q0 32 -22.5 56.5
t-56.5 24.5q-35 0 -67 -45q18 95 139 95q69 0 105 -43q33 -39 33 -105zM275 179q0 20 -19 31q-15 9 -35 9q-40 0 -64 -34q-19 -28 -19 -63q0 -33 17 -58q21 -32 59 -32q22 0 39 16q6 23 14 75q8 49 8 56zM140 222q-43 -12 -66 -43q-21 -27 -21 -57q0 -29 19 -54
q23 -31 66 -38q-39 32 -50 48t-10 43q3 58 62 101z" />
    <glyph glyph-name="b" unicode="b" horiz-adv-x="485" 
d="M456 211q0 -91 -73 -153q-67 -59 -152 -59h-134l112 678h60q-13 -4 -21 -42q-5 -30 -10 -59q-37 -212 -37 -244q0 1 7 5q51 32 108 32q65 0 106 -55q34 -46 34 -103zM175 678l-107 -678l-69 -1q7 3 11 8q12 9 13 21q59 385 99 619q-1 10 -14 30q67 0 67 1zM402 213
q0 52 -28 89q-31 39 -78 39q-14 0 -29 -4q107 -26 103 -131q-4 -108 -93 -177q48 8 87 70q38 59 38 114zM323 191q0 43 -20 77q-26 44 -75 44q-19 0 -33 -12q-15 -86 -48 -278h30q59 0 102.5 50.5t43.5 118.5z" />
    <glyph glyph-name="c" unicode="c" horiz-adv-x="404" 
d="M367 272q-31 41 -54 57q-22 13 -51 13q-60 0 -98 -60q-32 -50 -32 -100q0 -52 31 -90q34 -42 89 -42q52 0 103 49q-19 -56 -76 -83q-42 -20 -87 -20q-84 0 -137 49t-53 130q0 97 85 153q70 45 158 46q34 1 69.5 -13t52.5 -34v-55zM188 30q-51 24 -80 62.5t-29 80.5
q0 84 69 148q-45 -19 -74 -68q-24 -42 -24 -80q0 -50 34 -90q39 -43 104 -53z" />
    <glyph glyph-name="d" unicode="d" horiz-adv-x="479" 
d="M490 675q-8 -8 -18 -31q-30 -182 -90 -616q-2 -8 9 -29h-33.5h-32.5l102 676h63zM303 -1h-79q-83 0 -145 43q-75 53 -75 149q0 81 52 131.5t127 50.5q63 0 111 -40q18 109 49 313q0 6 -4 14q-6 12 -7 15h70q-4 -35 -99 -676zM289 307q-22 17 -51 17q-59 0 -87 -62
q-19 -42 -19 -94q0 -142 117 -142q16 94 40 281zM189 345q-64 -7 -104 -61q-35 -46 -35 -96q0 -38 22 -76q26 -45 72 -65q-63 60 -63 135q0 54 30.5 101t77.5 62z" />
    <glyph glyph-name="e" unicode="e" horiz-adv-x="446" 
d="M396 163h-64q8 21 8 68q0 68 -39 97q-1 -4 4 -16q9 -17 9 -20q6 -18 6 -48q0 -54 -16 -81h-172q-1 -7 -1 -13q0 -44 50 -74q40 -24 77 -24q39 0 72 15q12 6 58 37q-20 -58 -84 -86q-50 -22 -113 -22q-81 0 -135 49q-57 52 -57 134q0 90 75 146q66 49 150 49t133 -53
q43 -48 43 -120q0 -19 -4 -38zM277 274q0 72 -49 72q-36 0 -66 -55q-26 -45 -26 -74l-4 -26q2 -1 124 0q21 71 21 83zM215 26q-75 19 -111 66q-32 42 -29 96q2 45 13 70t49 74q-40 -24 -67 -70q-24 -41 -24 -74q0 -68 42 -114q47 -53 127 -48z" />
    <glyph glyph-name="f" unicode="f" horiz-adv-x="322" 
d="M360 636q0 -16 -13 -28q3 23 -8.5 36.5t-30.5 13.5q-49 -1 -69 -72l-14 -82q-6 -21 -16 -109h26q22 0 39 7q-3 -49 -68 -42q-19 -94 -47 -269q-11 -106 -39 -155q-38 -70 -120 -70q-94 0 -118 84l24 -18q23 -15 40 -15q56 0 71 107q25 174 54 340q-38 0 -36 0
q-19 -2 -30 -14q6 55 73 48q6 47 11 87q14 94 27 132q17 48 68 74q39 20 71 20q105 0 105 -75zM161 591q-32 -192 -87 -523q-4 -30 -18 -89q-20 -57 -72 -86q38 1 71 34q30 29 34 57q36 216 90 549q3 26 16 77q17 43 70 72q-38 -6 -67 -30q-32 -26 -37 -61z" />
    <glyph glyph-name="g" unicode="g" horiz-adv-x="506" 
d="M490 369q-14 -8 -31 -40l-43 -325q-20 -78 -89 -120q-63 -39 -156 -40q-45 -1 -83 17q-45 22 -43 61q2 21 33 35q26 10 52 10q47 0 74 -17h-10q-10 1 -18 1q-74 0 -74 -36q0 -42 73 -47q54 -5 83 44q18 32 39 120q-68 -36 -123 -36q-74 0 -125 55q-48 51 -48 119
q0 42 16 77q57 130 219 130q54 0 100 -37q3 20 1 28h57l-43 -325q-14 -95 -71 -152l4 -4q46 38 66 73q17 31 27 85q11 60 39 323zM334 294q0 18 -25.5 34.5t-44.5 16.5q-64 0 -98 -69q-25 -50 -25 -107q0 -47 23 -81q27 -42 77 -42q14 0 37.5 7.5t24.5 13.5q9 47 20 138
q11 81 11 89zM199 26q-55 21 -85 66q-26 40 -26 87q0 85 98 165q-132 -55 -132 -173q0 -61 41.5 -101.5t103.5 -43.5z" />
    <glyph glyph-name="h" unicode="h" horiz-adv-x="467" 
d="M411 245q0 -43 -30 -215q-2 -13 3.5 -19t9.5 -11l-69 -1l37 253q1 5 1 12q0 27 -22.5 54.5t-46.5 27.5q-5 0 -9 -2q22 -10 37 -35t15 -46q0 -5 -1 -10l-37 -253h-71q18 18 20 27q41 252 41 245q0 24 -16.5 38.5t-34.5 14.5q-12 0 -29 -11t-20 -25q-16 -67 -40 -259
q0 -19 22 -30h-82l107 675h64q-19 -18 -22 -32q-14 -105 -43 -307q15 11 41 27q25 8 54 8q57 0 89 -35.5t32 -90.5zM167 675l-109 -675h-62q18 14 21 32q34 186 93 614q-4 21 -13 30z" />
    <glyph glyph-name="i" unicode="i" horiz-adv-x="234" 
d="M195 489q0 -22 -15.5 -38t-36.5 -16q-24 0 -40 18t-16 38q0 19 16.5 35.5t37.5 16.5q25 0 41 -19q13 -16 13 -35zM204 367q-6 -5 -10.5 -10t-6.5 -14q-18 -105 -46 -315q-4 -18 9 -28h-66l52 367h68zM112 369l-55 -369h-68q14 10 17 24l48 318q4 13 -6 27h64z" />
    <glyph glyph-name="j" unicode="j" horiz-adv-x="269" 
d="M244 491q0 -23 -17 -38t-40 -15t-39.5 16.5t-15.5 39.5q0 22 16.5 37t38.5 15q24 0 41 -16t16 -39zM251 369q-14 -9 -22 -38q-11 -43 -25 -144q-16 -123 -21 -148q-36 -203 -220 -203q-30 0 -65 13q-51 19 -51 57q0 32 31 50q25 15 59 15q37 0 61 -21q-5 1 -13 1
q-28 0 -53 -11q-31 -14 -31 -40q0 -18 16 -28t35 -10q50 0 77 85q11 52 23 105q10 28 40 275q3 27 -11 42l73 -1q-56 -346 -54 -346q-2 -25 -9 -49q-17 -56 -56 -94l4 -2q47 43 55 53q26 33 36 85q15 76 53 352z" />
    <glyph glyph-name="k" unicode="k" horiz-adv-x="457" 
d="M408 368l-187 -158q6 -3 16 -14q39 -64 114 -197h-85q12 11 5 35q-22 37 -83 147q-4 0 -11.5 -4.5t-8.5 -10.5q-4 -32 -20 -127q-4 -20 11 -40l-69 2l104 673l70 1q-18 -11 -26 -36q0 -2 -68 -436q8 6 19 13l80 74q49 46 64 78h75zM458 -1h-78q-37 63 -120 201h61
l102 -176q4 -11 35 -25zM167 674l-104 -676q-46 1 -70 1q10 10 21 31q57 337 97 605q4 25 -8 40z" />
    <glyph glyph-name="l" unicode="l" horiz-adv-x="258" 
d="M268 675q-14 -12 -17 -30q-6 -32 -92 -606q-4 -23 15 -40h-76l105 676h65zM174 675l-106 -676h-73q11 12 25 37q30 159 97 609q1 13 -10 30h67z" />
    <glyph glyph-name="m" unicode="m" horiz-adv-x="704" 
d="M650 241q-9 -68 -24 -212q1 -10 12 -29h-71l37 267q0 27 -20 51.5t-56 27.5l26 -22q21 -19 21 -53q0 -10 -2 -21l-35 -250h-76q6 4 11 9q11 11 14 23q35 192 35 240q0 53 -41 53q-53 0 -62 -57q-35 -214 -32 -239q5 -15 10 -29h-70l40 264q4 25 -18 55.5t-50 28.5
q41 -36 41 -78q0 -6 -1 -11l-42 -259h-67q8 10 19 31q11 55 26 155q14 92 14 100q0 41 -43 41q-51 0 -64.5 -70.5t-32.5 -224.5q-1 -12 4.5 -19t10.5 -13h-75l53 368h56l-4 -34q17 12 46 28q33 12 58 12q61 0 104 -57q6 1 14 9l13 14q14 11 46 22.5t50 11.5q63 0 98 -43
q32 -39 27 -90zM114 368l-51 -368h-71q6 4 11 9q11 11 13 25l44 302q0 8 -12 32h66z" />
    <glyph glyph-name="n" unicode="n" horiz-adv-x="473" 
d="M387 29q5 -15 10 -29h-70l41 263q2 33 -19 60t-50 25q52 -46 44 -89l-42 -259h-71q8 10 19 31q11 55 26 155q14 92 14 100q0 41 -43 41q-51 0 -64.5 -70.5t-32.5 -224.5q-1 -12 4.5 -19t10.5 -13h-75l53 367h56l-4 -33q17 12 46 28q33 12 58 12q71 0 113 -73q8 -15 3 -78
q-3 -47 -16 -124q-11 -69 -11 -70zM118 368l-53 -367l-73 -1q6 4 11 9q11 11 13 25l41 290q0 16 -5 25.5t-9 18.5h75z" />
    <glyph glyph-name="o" unicode="o" horiz-adv-x="489" 
d="M438 190q-3 -63 -51 -117q-51 -59 -125 -73q-23 -5 -63 -5q-81 0 -139 43q-65 48 -65 131q0 94 82 153q71 51 159 51q78 0 138 -46q69 -53 64 -137zM385 199q0 30 -17 68q-21 43 -51 57q34 -44 34 -127q0 -34 -16 -80q-18 -50 -45 -78q42 16 70 68q25 46 25 92zM302 226
q0 124 -71 124q-57 0 -85 -96q-19 -65 -19 -132q0 -105 72 -105q55 0 83 83q20 59 20 126zM130 317q-85 -60 -85 -154q0 -32 15 -66q18 -39 45 -55q-20 40 -24 66q-1 9 -1 54q0 49 11 81q9 24 39 74z" />
    <glyph glyph-name="p" unicode="p" horiz-adv-x="494" 
d="M448 229q0 -108 -72 -170q-66 -55 -166 -55h-67l-18 -118q-2 -5 11 -30l-73 -1l76 514l55 1l-5 -31q46 38 111 38q66 0 107 -44t41 -104zM115 370l-76 -516l-67 1q18 17 20 32q31 193 61 422q6 43 -5 61h67zM399 224q0 44 -26 79q-30 41 -82 46q47 -25 63 -64
q10 -24 10 -66q0 -92 -86 -177q57 16 92 81q29 54 29 101zM309 225q0 36 -13 63q-19 41 -59 41q-43 0 -48 -26q-13 -93 -42 -273q6 0 19 1h17q63 0 98 73q28 56 28 121z" />
    <glyph glyph-name="q" unicode="q" horiz-adv-x="468" 
d="M449 369q-3 -4 -16 -15q-8 -8 -9 -18q-24 -167 -64 -450q-2 -14 7 -37h-65l77 520h70zM276 -151h-71q9 8 22 32q9 39 20 127q-6 -1 -28 -9q-11 -4 -36 -4q-80 0 -131.5 54.5t-51.5 131.5q0 79 63 136q59 54 135 54q57 0 100 -35q1 7 2 15q4 15 4 18h50zM292 295
q0 14 -19 25t-33 12q-55 1 -85 -69q-20 -49 -20 -96q0 -40 18 -81q25 -61 73 -61q7 0 16 5.5t10 10.5q11 57 27 157q13 89 13 97zM146 329q-48 -23 -75 -76q-22 -42 -22 -80q0 -41 24 -81q26 -44 62 -55q-53 56 -53 131q0 91 64 161z" />
    <glyph glyph-name="r" unicode="r" horiz-adv-x="377" 
d="M357 312q0 -25 -30.5 -52.5t-57.5 -25.5q29 22 29 49q0 37 -38 35q-21 -1 -44.5 -22t-27.5 -42q-8 -41 -33 -224q1 -7 3 -14q4 -13 12 -18h-68l51 371h55l-11 -57q53 62 104 62q56 0 56 -62zM75 4q-3 -5 -73 -5q6 9 16 13q6 3 8 16q17 93 45 313q1 10 -6 18q-4 5 -9 10
h70z" />
    <glyph glyph-name="s" unicode="s" horiz-adv-x="383" 
d="M330 125q0 -74 -67 -107q-46 -24 -109 -24q-85 0 -154 39v68q65 -78 161 -78q80 0 80 50q0 29 -58 45q-94 25 -108 32q-58 28 -58 89q0 74 61 109q46 25 112 25q60 0 82 -10q10 -5 40 -16l11 -70q-59 71 -135 71q-72 0 -72 -52q0 -18 29 -31q22 -10 41 -11q18 -7 51 -18
q93 -23 93 -111zM295 110q0 58 -59 79q-53 14 -107 28q-58 20 -57 78q-13 -20 -13 -33q0 -49 58 -69q53 -15 107 -30q57 -24 58 -83q13 23 13 30z" />
    <glyph glyph-name="t" unicode="t" horiz-adv-x="280" 
d="M42 93q0 -100 91 -100q84 0 91 61q0 4 -6 10q-6 -8 -11.5 -14.5t-16.5 -6.5q-20 0 -20 30q0 20 17 152t21 134q65 -5 68 43q-17 -7 -40 -7q-8 0 -22 4l28 147h-53l-72 -453q-7 -39 32 -69l-19 4q-44 20 -38 65l71 454h-56q-9 -46 -27 -148q-67 6 -74 -49q12 12 34 13
q-29 -1 39 -1q-37 -258 -37 -269z" />
    <glyph glyph-name="u" unicode="u" horiz-adv-x="452" 
d="M35 339q-5 15 -10 29h73l-41 -263q-2 -33 17.5 -60t48.5 -25q-50 45 -42 89l41 259h70q-8 -10 -19 -31q-11 -55 -26 -155q-14 -92 -14 -100q0 -41 43 -41q51 0 64.5 70.5t32.5 224.5q1 12 -4.5 19t-10.5 13h71l-50 -369h-55l4 35q-17 -12 -46 -28q-33 -12 -58 -12
q-71 0 -113 73q-6 12 -6 43q0 47 15 141q15 89 15 88zM305 -2l52 369l73 1q-6 -4 -11 -9q-11 -11 -13 -25l-41 -290q0 -16 5 -26l10 -20h-75z" />
    <glyph glyph-name="v" unicode="v" horiz-adv-x="459" 
d="M409 212q0 -52 -31 -103q-32 -55 -87 -86t-133 -31q-55 0 -104 32q-55 37 -58 95l32 211q-2 11 -10 37h64l-35 -250q0 -24 12 -46q14 -26 33 -23q-20 24 -20 64l37 256q-1 0 54 0q-2 -16 -24 -145q-15 -90 -15 -149q0 -54 43 -54q57 0 85 91q18 59 18 119q0 37 -11 69
q-17 47 -50 47q-5 0 -5 4t4.5 12.5t4.5 9.5h-1q-1 0 -3 -2q21 4 42 4q68 0 113 -45t45 -117zM359 208q0 41 -25 81q-30 47 -74 52q67 -48 67 -138q0 -86 -62 -154q47 28 73 81q21 41 21 78z" />
    <glyph glyph-name="w" unicode="w" horiz-adv-x="699" 
d="M400 367q7 0 -8 2q-11 2 -40 0l-37 -257q1 -45 17 -64q-19 -3 -33 23q-12 22 -12 46l38 252h-71q6 -11 14 -39l-32 -211q1 -22 -18.5 -50t-41.5 -28q-43 0 -43 41q0 8 14 101q15 102 26 156q2 11 19 30h-69l-40 -260q-7 -47 40 -89q-30 -2 -52.5 26t-17.5 60l40 263h-68
q4 -8 10 -28q0 1 -15 -89q-15 -94 -15 -141q0 -32 6 -44q42 -73 113 -73q18 0 73 14q20 5 55 58q22 -34 66 -55q40 -19 80 -19q78 0 133 31t87 86q31 51 31 103q0 73 -40.5 118t-106.5 45q-19 0 -40 -4q-5 -1 -5 -4l3 -7q3 -5 -2 -8q41 -36 50 -70q2 -9 2 -52
q0 -60 -18 -119q-28 -91 -85 -91q-43 0 -43 54q0 93 36 293zM599 208q0 41 -25 81q-30 47 -74 52q67 -48 67 -138q0 -86 -62 -154q47 28 73 81q21 41 21 78z" />
    <glyph glyph-name="x" unicode="x" horiz-adv-x="426" 
d="M395 370q-26 -10 -84 -67.5t-58 -74.5q0 -6 29 -83.5t43 -109.5q8 -17 9 -18q4 -7 18 -16h-74l-139 369h83q-10 -10 -10 -26q0 -10 4 -20q5 -25 25 -64q83 74 61 109zM256 1h-89q0 6 6 31q-13 47 -29 97q-25 -27 -50 -53q-32 -37 -32 -58q0 -10 7 -17h-92q10 -1 40 26
q12 10 63.5 69t51.5 65q0 3 -26 67q-30 70 -37.5 96t-34.5 46l79 -1z" />
    <glyph glyph-name="y" unicode="y" horiz-adv-x="407" 
d="M397 367q-11 -11 -26 -20q-6 -3 -17 -26q-1 -2 -69 -180q-50 -130 -98 -195q-67 -90 -150 -90q-32 0 -59 16q-32 19 -32 48q0 22 26 37q23 12 47 12q28 0 55 -20q-6 0 -18.5 1.5t-18.5 1.5q-56 0 -56 -41q0 -30 41 -30q59 0 59 80q0 46 -6 81q-15 85 -38 284
q-2 15 -27 42h73l52 -367q4 -30 -9 -82q18 12 26 40q7 24 4 48l-46 358l69 2q-6 -8 -4 -41q3 -39 35 -288q13 25 109 283q3 6 3 13q0 5 -14 33h89z" />
    <glyph glyph-name="z" unicode="z" horiz-adv-x="440" 
d="M405 370l-225 -339q3 -1 49 -1q76 0 138 14l23 9q-7 -12 -46 -70q-5 4 -10 7q-23 11 -39 11h-199l243 367zM307 369l-241 -368h-68l225 337h-26q-116 0 -153 -9l-22 -5q13 23 34 60q10 -12 40 -14z" />
    <glyph glyph-name="braceleft" unicode="{" horiz-adv-x="1086" 
d="M43 466q0 -34 27 -60.5t57 -26.5q3 0 22.5 6t22.5 6q2 0 14.5 -3.5t15.5 -3.5t13 4.5t13 4.5q7 0 11 -7.5t3 -9.5q-7 -15 -7 -30q0 -36 44 -71q17 -13 31 -18.5t28 -9.5q-3 -19 3 -41q9 -30 43 -46q28 -13 54 -9q-160 -118 -242 -171q2 4 3 8q84 61 242 160
q-5 -89 49 -145q51 -53 126 -53q39 0 70 20q37 24 48 70h6q137 -71 180 -71q10 0 16 3v10q-150 38 -275 157q-29 23 -89 75q-24 24 -198 215l-43 41q24 -10 82 -55.5t80 -69.5q205 -228 348 -313q26 -15 28 -15h11q4 1 4 9q-24 14 -74 49q-23 19 -67 58q-37 31 -159 161
q-106 112 -179 162q-106 74 -209 74q-34 0 -59 -16q-28 -18 -28 -47q0 -3 5 -7h8q2 52 66 52q16 0 50 -13q92 -35 182 -154q20 -29 61 -80q29 -48 140 -131q30 -22 60.5 -44.5t30.5 -47.5q0 -37 -37 -55q-27 -14 -62 -14q-45 0 -85 27q-45 30 -62 83q-9 25 -9 35q0 3 6 25
t6 25q0 9 -10 9q-3 0 -18.5 -3.5t-18.5 -3.5q-25 0 -43 17t-18 41q0 14 14 40q-3 1 -33.5 1t-54.5 19.5t-24 48.5q0 19 11 36q14 22 37 22q11 0 23 -11q16 -16 17 -16q3 0 3 5q0 18 -16 30.5t-32 12.5q-2 0 -17 -4.5t-18 -4.5q-5 0 -38 29q-3 0 -12 -11.5t-20 -11.5
q-3 0 -14 6t-14 6q-2 0 -13 -9t-16 -11q-1 -1 -18 -1q-25 0 -44 23q-17 20 -17 40q0 47 30 63q10 1 20 3q17 4 17 10q0 2 -9 18t-9 20q0 17 21 26q17 8 37 8q16 0 67 -31q14 -9 25 -26t16 -21q4 3 10.5 19t19.5 16q15 0 27 -21.5t10 -31.5h9q18 31 23 36q14 17 36 17
q24 0 44.5 -19.5t22.5 -48.5q0 -5 -2 -17.5t-2 -17.5h10q2 0 14 6.5t15 6.5q11 0 23 -7q22 -14 27 -38l8 -37q13 4 16 26q5 27 33.5 55t59.5 37q17 5 40 5q63 0 105.5 -39.5t42.5 -103.5q0 -61 -41 -112q5 -8 10 -8q-1 0 23 10t43 10q47 0 80 -42q30 -37 30 -77
q0 -37 -23 -68q-26 -35 -68 -40q-2 -1 -9 0q-8 1 -10 1q-9 0 -25 8q-11 5 -23 10q-3 -3 -3 -8q0 -15 33 -24q24 -7 37 -7q44 0 76 22q38 27 50 77q4 17 4 21q0 55 -40.5 102.5t-95.5 47.5l-42 -4q-1 1 -1 7q0 -1 9 28t9 60q0 68 -53 115q-50 44 -114 44q6 0 -24 -4
q-46 -6 -73.5 -30.5t-30 -24.5t-8.5 -11t-9 -11t-11 11t-10.5 11t-20 5.5t-19.5 5.5q-3 0 -6.5 -1t-6.5 -1q-5 0 -11 25q-6 32 -18 48q-20 25 -59 25q-27 0 -59 -27q-35 25 -48 25q-12 0 -38 -14l-18 15q-46 38 -96 38q-75 0 -75 -62q0 -9 2 -20q1 -3 -9 -10t-13 -12
q-24 -29 -24 -68z" />
    <glyph glyph-name="bar" unicode="|" horiz-adv-x="929" 
d="M880 94q0 -7 -5 -12q-31 15 -82 96t-55 118q-6 60 -6 72q0 14 6 46q10 52 10 135q0 20 -18 43q-24 33 -27 39q148 -46 148 -184q0 -34 -19.5 -99t-19.5 -99q0 -35 21 -83.5t47 -71.5zM844 73q1 -4 -8 -4q-13 0 -64 32q-46 28 -62 43q-134 122 -183 290q-30 101 -78 101
q-26 0 -43.5 -49.5t-48.5 -49.5q-22 0 -43.5 21t-18.5 43q48 -13 43 -13q17 0 35 26q28 40 36 48q26 26 65 26q47 0 91 -35q41 -34 59 -79q10 -25 20 -68q14 -58 18 -70q18 -62 51 -123q39 -72 80 -102q4 -3 31 -17q13 -6 20 -20zM889 -2q-2 1 -5 1q-10 0 -29.5 -1t-29.5 -1
q-2 2 -2 5q0 21 16 36.5t36 15.5q6 0 14 -2v-54zM825 58q-9 -8 -37 -8q-36 0 -93.5 12.5t-93.5 26.5q-68 28 -203 160q-127 124 -173 133q-34 6 -46 6q12 35 80 35q49 0 112 -33q60 -31 95 -71q62 -71 123 -142q84 -85 151 -100q46 -9 60 -9q19 0 25 -10zM812 39
q-17 -14 -86 -27q-60 -11 -92 -11q-119 0 -233 44l-114 54q-76 34 -115 34q-68 0 -68 -46q0 -41 45 -41q24 0 47 20l18 -14q-6 -20 -33.5 -33.5t-50.5 -13.5q-43 0 -74.5 31t-31.5 75q0 55 49 88q42 28 101 28q78 0 176 -51q83 -48 166 -95q100 -51 185 -51q21 0 56 4z" />
    <glyph glyph-name="braceright" unicode="}" horiz-adv-x="1086" 
d="M1056 466q0 -34 -27.5 -60.5t-57.5 -26.5q-3 0 -22.5 6t-22.5 6q-2 0 -14 -3.5t-16 -3.5q-2 0 -12.5 4.5t-13.5 4.5q-6 0 -10.5 -7.5t-3.5 -9.5q7 -15 7 -30q0 -36 -44 -71q-17 -13 -31 -18.5t-28 -9.5q3 -19 -3 -41q-9 -30 -42 -46q-29 -13 -54 -9l-4 -3
q5 -89 -47.5 -143.5t-126.5 -54.5q-40 0 -71 20q-36 24 -48 70h-6q-137 -71 -180 -71q-9 0 -16 3v10q150 38 275 157q30 23 90 75q23 24 198 215l42 41q-24 -10 -82 -55.5t-80 -69.5q-205 -228 -348 -313q-25 -15 -28 -15h-11q-3 1 -3 9q23 14 73 49q23 19 67 58
q37 31 160 161q105 112 178 162q107 74 209 74q34 0 60.5 -17t26.5 -46q0 -3 -5 -7h-8q-2 52 -66 52q-16 0 -50 -13q-91 -35 -181 -154q-20 -29 -62 -80q-29 -48 -140 -131q-29 -22 -60 -44.5t-31 -47.5q0 -37 38 -55q27 -14 61 -14q45 0 85 27q45 30 62 83q9 25 9 35
q0 3 -6 25t-6 25q0 9 11 9q3 0 18 -3.5t18 -3.5q26 0 43.5 17t17.5 41q0 14 -14 40q3 1 34 1t55 19.5t24 48.5q0 19 -12 36q-14 22 -36 22q-12 0 -23 -11q-17 -16 -18 -16q-3 0 -3 5q0 18 16.5 30.5t31.5 12.5q3 0 18 -4.5t18 -4.5q4 0 37 29q3 0 12.5 -11.5t20.5 -11.5
q2 0 13 6t14 6q2 0 13 -9t16 -11q1 -1 18 -1q26 0 44 23q17 20 17 40q0 47 -29 63q-11 1 -21 3q-17 4 -17 10q0 2 9.5 18t9.5 20q0 17 -22 26q-17 8 -37 8q-16 0 -67 -31q-14 -9 -25 -26t-15 -21q-4 3 -11 19t-19 16q-16 0 -28 -21.5t-10 -31.5h-9q-18 31 -23 36
q-14 17 -36 17q-24 0 -44.5 -19.5t-22.5 -48.5q0 -5 2 -17.5t2 -17.5h-10q-2 0 -14 6.5t-15 6.5q-11 0 -23 -7q-22 -14 -27 -38l-8 -37q-12 4 -16 26q-5 27 -33.5 55t-58.5 37q-18 5 -41 5q-63 0 -105.5 -39.5t-42.5 -103.5q0 -61 41 -112q-5 -8 -10 -8q1 0 -23 10t-42 10
q-48 0 -81 -42q-29 -37 -29 -77q0 -37 23 -68q26 -35 67 -40q2 -1 9 0q8 1 11 1q8 0 25 8l22 10q3 -3 3 -8q0 -15 -33 -24q-23 -7 -37 -7q-43 0 -76 22q-38 27 -50 77q-3 17 -3 21q0 55 40.5 102.5t94.5 47.5l42 -4q1 1 1 7q0 -1 -9 28t-9 60q0 68 53 115q50 44 114 44
q-6 0 25 -4q45 -6 73 -30.5t30 -24.5t8 -11t10 -11q2 0 10 11t10.5 11t20 5.5t20.5 5.5q2 0 5.5 -1t6.5 -1q6 0 11 25q7 32 19 48q19 25 58 25q28 0 59 -27q35 25 48 25q12 0 38 -14q1 0 19 15q46 38 95 38q75 0 75 -62q0 -9 -2 -20q0 -3 9.5 -10t13.5 -12q24 -29 24 -68z
" />
    <glyph glyph-name="asciitilde" unicode="~" horiz-adv-x="444" 
d="M22 600l-8 40q58 52 113 52q30 0 90.5 -24.5t91.5 -24.5q47 0 103 54l8 -38q-56 -63 -124 -63q-31 0 -96 25t-88 25q-40 0 -90 -46z" />
    <glyph glyph-name="Adieresis" unicode="&#xc4;" horiz-adv-x="818" 
d="M773 126q0 -56 -42 -92.5t-97 -36.5q-57 0 -89 39q-29 35 -29 93q0 43 12 107q10 53 20 107h-219q-22 -70 -44 -141q-30 -95 -65 -141q-49 -64 -125 -64q-37 0 -68.5 27.5t-31.5 63.5q0 34 34 34q57 0 57 -70q0 -18 -5 -35l20 -5q75 0 123 147l86 288q63 166 166 197
q-23 24 -103 24q-116 0 -195 -95q-75 -90 -75 -208q0 -64 19 -97.5t72 -62.5q-3 -1 -7.5 -4.5t-7.5 -3.5q-59 7 -94 72q-29 54 -29 114q0 116 92 209t208 96q146 3 204 -22q8 1 15 1q17 2 32 2q65 0 86 -23q-32 7 -71 7q2 0 -29 -3q61 -45 86 -78q33 -46 33 -109
q0 -59 -25 -173.5t-25 -172.5q0 -52 40 -52q46 0 60 63zM570 484q0 37 -20 87q-23 60 -54 60q-59 0 -108 -102q-33 -68 -53 -157l218 1q17 69 17 111zM652 461q1 7 1 14q0 38 -23 79t-53 56q51 -62 51 -131q0 -9 -1 -18l-32 -172q-20 -113 -20 -168q0 -26 18 -55t43 -29
q8 0 12 1q-21 10 -35.5 32.5t-14.5 46.5q0 50 21 170q17 87 33 174zM454 805q19 0 32 -13.5t13 -32.5t-13.5 -32t-32.5 -13t-32 13.5t-13 32.5t13.5 32t32.5 13zM614 805q19 0 32.5 -13.5t13.5 -32.5t-13.5 -32t-32.5 -13t-32 13.5t-13 32.5t13.5 32t31.5 13z" />
    <glyph glyph-name="Aring" unicode="&#xc5;" horiz-adv-x="818" 
d="M773 126q0 -56 -42 -92.5t-97 -36.5q-57 0 -89 39q-29 35 -29 93q0 43 12 107q10 53 20 107h-219q-22 -70 -44 -141q-30 -95 -65 -141q-49 -64 -125 -64q-37 0 -68.5 27.5t-31.5 63.5q0 34 34 34q57 0 57 -70q0 -18 -5 -35l20 -5q75 0 123 147l86 288q63 166 166 197
q-23 24 -103 24q-116 0 -195 -95q-75 -90 -75 -208q0 -64 19 -97.5t72 -62.5q-3 -1 -7.5 -4.5t-7.5 -3.5q-59 7 -94 72q-29 54 -29 114q0 116 92 209t208 96q146 3 204 -22q8 1 15 1q17 2 32 2q65 0 86 -23q-32 7 -71 7q2 0 -29 -3q61 -45 86 -78q33 -46 33 -109
q0 -59 -25 -173.5t-25 -172.5q0 -52 40 -52q46 0 60 63zM570 484q0 37 -20 87q-23 60 -54 60q-59 0 -108 -102q-33 -68 -53 -157l218 1q17 69 17 111zM652 461q1 7 1 14q0 38 -23 79t-53 56q51 -62 51 -131q0 -9 -1 -18l-32 -172q-20 -113 -20 -168q0 -26 18 -55t43 -29
q8 0 12 1q-21 10 -35.5 32.5t-14.5 46.5q0 50 21 170q17 87 33 174zM524 862q32 0 55.5 -19.5t23.5 -50.5q0 -36 -25.5 -58.5t-62.5 -22.5q-33 0 -55.5 20t-22.5 52q0 35 25.5 57t61.5 22zM523 840q-22 0 -34.5 -17.5t-12.5 -40.5q0 -49 40 -49q23 0 35.5 18t12.5 41
q0 48 -41 48z" />
    <glyph glyph-name="Ccedilla" unicode="&#xc7;" horiz-adv-x="602" 
d="M322 25q-110 20 -169 91t-59 182q0 161 146 325q-80 -39 -135 -140q-51 -95 -51 -188q0 -124 73 -198t195 -72zM257 -8l-15 -46q12 1 21 1q28 0 49.5 -15t21.5 -42q0 -38 -41 -58q-32 -15 -75 -15q-23 0 -51 6l4 27q21 -4 35 -4q64 0 64 43q0 31 -42 31q-11 0 -26 -3
l24 79q-104 20 -163.5 101t-59.5 195q0 177 120 287q115 106 292 106q91 0 152 -45q67 -51 67 -139q0 -112 -76 -191.5t-187 -79.5q-21 0 -82 20l38 -2q112 -7 184 76q68 78 68 194q0 70 -42 108q-40 35 -111 35q-123 0 -208 -124q-76 -112 -76 -241q0 -104 57 -170
q61 -71 163 -71q109 0 169 118l7 -7q0 -73 -92 -128q-80 -47 -159 -47q-15 0 -30 1z" />
    <glyph glyph-name="Eacute" unicode="&#xc9;" horiz-adv-x="528" 
d="M508 532q0 -36 -19.5 -69.5t-50.5 -47.5q10 17 20.5 36t10.5 37q0 36 -31.5 61.5t-67.5 25.5q-54 0 -83 -38.5t-28 -91.5l9 -6l17 3q25 0 45 -11q24 -13 24 -36q0 -22 -25 -34q-19 -10 -44 -10q-59 0 -103 49q-31 -2 -56 -58q-21 -48 -21 -84q0 -65 67 -113
q61 -43 127 -43q65 0 113 33q54 37 54 98l-3 3q-4 0 -18 -2t-21 -2q-23 0 -39.5 12.5t-16.5 34.5q0 15 11.5 24t26.5 9q39 0 60 -37q18 -31 18 -73q0 -94 -78 -155q-72 -57 -168 -57q-103 0 -169 59q-69 62 -69 164q0 146 164 211q0 14 -5.5 40.5t-5.5 39.5q0 84 62 133
q56 44 141 44q58 0 105 -45.5t47 -103.5zM472 556q-8 32 -50 58q-38 24 -73 24q-59 0 -106 -45.5t-47 -103.5q0 -19 9 -44q11 -29 26 -36q-12 30 -12 61q0 59 40 103t98 44q69 0 115 -61zM333 391v12q-22 14 -33 14h-19q-1 -1 -1 -3q0 -11 12.5 -19.5t24.5 -8.5q11 0 16 5z
M383 80q-66 -27 -117 -27q-63 0 -124 43q-67 46 -67 106q0 5 -4.5 20t-4.5 24q0 7 10 73q-12 -15 -21.5 -44.5t-9.5 -49.5q0 -80 65 -135t146 -55q70 0 127 45zM299 706l-8 16l165 105q23 14 38 11q10 -3 15.5 -13t2.5 -21q-4 -16 -26 -25z" />
    <glyph glyph-name="Ntilde" unicode="&#xd1;" horiz-adv-x="764" 
d="M819 666q-36 -10 -53 -60q-7 -20 -15 -73q-27 -167 -82 -503q-1 -4 10 -40q-15 -4 -33 -4q-25 0 -35 5q-18 52 -56 158q-30 97 -61 194q-43 133 -93 200q-69 92 -166 92q-62 0 -88 -25q55 7 74 7q82 0 143 -69q46 -53 84 -152q26 -76 51 -151q27 -83 86 -255h-67
q-34 102 -164 457q-12 33 -27 45q-3 -11 -37 -187q-27 -142 -64 -214q-54 -102 -143 -102q-27 0 -50 11q-29 14 -29 41q0 15 11.5 26.5t25.5 11.5q55 0 77 -72l14 6q18 0 45 46q21 36 29 59q19 25 51 204q31 170 31 222q-34 31 -87 31q-43 0 -70 -23t-27 -65q0 -51 65 -91
h-16q-12 -1 -30 15q-47 41 -47 103q0 76 58 123q52 42 123 42q116 0 183 -94q38 -53 73 -140q3 -9 52 -141q25 -73 80 -218l23 145q20 136 40 273q35 180 86 171zM655 810h19q-8 -99 -74 -99q-28 0 -120 38q-15 6 -44 6q-21 0 -26 -7q-11 -10 -26 -42l-18 6q7 97 76 97
q27 0 93 -25q53 -21 66 -21q25 0 33 10l12 14q8 11 9 23z" />
    <glyph glyph-name="Odieresis" unicode="&#xd6;" horiz-adv-x="622" 
d="M610 398q0 -148 -99 -270q-107 -130 -257 -130q-126 0 -197 95q-61 83 -61 199q0 166 107.5 278t276.5 112q120 0 152 -73h-13q-25 48 -97 48q-137 0 -215 -122q-64 -98 -64 -220q0 -97 49 -160q55 -73 156 -73q169 0 220 219q-4 3 0 91q-6 61 -40 102q-37 44 -90 44
q-25 0 -53 -15.5t-38 -39.5q-11 -30 -13 -63q-5 -1 -8 -1q0 3 -2 13t-2 15q0 61 40 98q37 35 95 35q82 0 121 -60q32 -48 32 -122zM86 301q0 205 183 340q-109 -48 -168 -159q-48 -89 -48 -181q0 -103 53 -177q64 -90 179 -90q22 0 57 9q-138 9 -203 88q-53 65 -53 170z
M294 805q19 0 32 -13.5t13 -32.5t-13.5 -32t-32.5 -13t-32 13.5t-13 32.5t13.5 32t32.5 13zM454 805q19 0 32.5 -13.5t13.5 -32.5t-13.5 -32t-32.5 -13t-32 13.5t-13 32.5t13.5 32t31.5 13z" />
    <glyph glyph-name="Udieresis" unicode="&#xdc;" horiz-adv-x="703" 
d="M653 139q0 -47 -38 -92q-41 -48 -92 -48q-56 0 -85 46q-24 38 -24 91q0 5 7 51t7 50v12q-4 4 -6 1q-38 -96 -104 -165q-77 -79 -157 -79q-60 0 -94.5 40t-33.5 104l79 422q2 4 2 9q0 9 -7 21q-10 18 -11 21q-4 -3 -6 -2q-9 6 -18 6q-21 0 -39 -24.5t-17 -45.5v29
q0 5 6 17q9 17 10 19q21 57 113 57q42 0 72.5 -43t26.5 -86l-80 -402q12 -66 75 -66q94 0 170 177q39 93 58 183q19 76 55 229h51v-15q0 3 -55 -228t-55 -288q0 -103 74 -103q10 0 12 3q-2 9 -17 16q-19 8 -27 20q-15 23 -15 72q0 45 26 151q31 124 86 369h51v-23
q0 2 -55.5 -231t-55.5 -273q0 -30 5 -41q9 -21 39 -21q42 0 58 71q6 1 9 1v-12zM192 562q2 24 -18 56q-23 35 -51 32q11 -13 26 -36q14 -27 12 -60l-76 -407q-7 -24 15 -57q6 -9 29.5 -25.5t30.5 -16.5h25q-26 9 -49 39.5t-23 53.5q0 7 3 12zM294 805q19 0 32 -13.5
t13 -32.5t-13.5 -32t-32.5 -13t-32 13.5t-13 32.5t13.5 32t32.5 13zM454 805q19 0 32.5 -13.5t13.5 -32.5t-13.5 -32t-32.5 -13t-32 13.5t-13 32.5t13.5 32t31.5 13z" />
    <glyph glyph-name="aacute" unicode="&#xe1;" horiz-adv-x="468" 
d="M413 223q0 -26 -13 -99t-13 -97q0 -23 8 -28h-70q13 78 30 227q2 34 -13 63q-19 37 -59 52q-5 3 -11 0q34 -23 51 -62q14 -32 12 -64l-30 -216h-54v25q-49 -23 -99 -23q-57 0 -99 26q-52 34 -52 97q0 66 64 104q51 30 110 30q53 0 105 -39q2 4 2 21q0 32 -22.5 56.5
t-56.5 24.5q-35 0 -67 -45q18 95 139 95q69 0 105 -43q33 -39 33 -105zM275 179q0 20 -19 31q-15 9 -35 9q-40 0 -64 -34q-19 -28 -19 -63q0 -33 17 -58q21 -32 59 -32q22 0 39 16q6 23 14 75q8 49 8 56zM140 222q-43 -12 -66 -43q-21 -27 -21 -57q0 -29 19 -54
q23 -31 66 -38q-39 32 -50 48t-10 43q3 58 62 101zM189 396l-8 16l165 105q23 14 38 11q10 -3 15.5 -13t2.5 -21q-4 -16 -26 -25z" />
    <glyph glyph-name="agrave" unicode="&#xe0;" horiz-adv-x="468" 
d="M413 223q0 -26 -13 -99t-13 -97q0 -23 8 -28h-70q13 78 30 227q2 34 -13 63q-19 37 -59 52q-5 3 -11 0q34 -23 51 -62q14 -32 12 -64l-30 -216h-54v25q-49 -23 -99 -23q-57 0 -99 26q-52 34 -52 97q0 66 64 104q51 30 110 30q53 0 105 -39q2 4 2 21q0 32 -22.5 56.5
t-56.5 24.5q-35 0 -67 -45q18 95 139 95q69 0 105 -43q33 -39 33 -105zM275 179q0 20 -19 31q-15 9 -35 9q-40 0 -64 -34q-19 -28 -19 -63q0 -33 17 -58q21 -32 59 -32q22 0 39 16q6 23 14 75q8 49 8 56zM140 222q-43 -12 -66 -43q-21 -27 -21 -57q0 -29 19 -54
q23 -31 66 -38q-39 32 -50 48t-10 43q3 58 62 101zM375 396l8 16l-165 105q-23 14 -37 11q-10 -3 -15.5 -13t-3.5 -21q4 -16 27 -25z" />
    <glyph glyph-name="acircumflex" unicode="&#xe2;" horiz-adv-x="468" 
d="M413 223q0 -26 -13 -99t-13 -97q0 -23 8 -28h-70q13 78 30 227q2 34 -13 63q-19 37 -59 52q-5 3 -11 0q34 -23 51 -62q14 -32 12 -64l-30 -216h-54v25q-49 -23 -99 -23q-57 0 -99 26q-52 34 -52 97q0 66 64 104q51 30 110 30q53 0 105 -39q2 4 2 21q0 32 -22.5 56.5
t-56.5 24.5q-35 0 -67 -45q18 95 139 95q69 0 105 -43q33 -39 33 -105zM275 179q0 20 -19 31q-15 9 -35 9q-40 0 -64 -34q-19 -28 -19 -63q0 -33 17 -58q21 -32 59 -32q22 0 39 16q6 23 14 75q8 49 8 56zM140 222q-43 -12 -66 -43q-21 -27 -21 -57q0 -29 19 -54
q23 -31 66 -38q-39 32 -50 48t-10 43q3 58 62 101zM301 501l122 -97l-20 -15l-111 69l-137 -69l-14 15z" />
    <glyph glyph-name="adieresis" unicode="&#xe4;" horiz-adv-x="468" 
d="M413 223q0 -26 -13 -99t-13 -97q0 -23 8 -28h-70q13 78 30 227q2 34 -13 63q-19 37 -59 52q-5 3 -11 0q34 -23 51 -62q14 -32 12 -64l-30 -216h-54v25q-49 -23 -99 -23q-57 0 -99 26q-52 34 -52 97q0 66 64 104q51 30 110 30q53 0 105 -39q2 4 2 21q0 32 -22.5 56.5
t-56.5 24.5q-35 0 -67 -45q18 95 139 95q69 0 105 -43q33 -39 33 -105zM275 179q0 20 -19 31q-15 9 -35 9q-40 0 -64 -34q-19 -28 -19 -63q0 -33 17 -58q21 -32 59 -32q22 0 39 16q6 23 14 75q8 49 8 56zM140 222q-43 -12 -66 -43q-21 -27 -21 -57q0 -29 19 -54
q23 -31 66 -38q-39 32 -50 48t-10 43q3 58 62 101zM188 492q18 0 30.5 -12.5t12.5 -30.5t-12.5 -30t-30.5 -12t-30 12.5t-12 30.5t12.5 30t29.5 12zM340 492q17 0 29.5 -12.5t12.5 -30.5t-12.5 -30t-30.5 -12t-30 12.5t-12 30.5q0 17 12.5 29.5t30.5 12.5z" />
    <glyph glyph-name="atilde" unicode="&#xe3;" horiz-adv-x="468" 
d="M413 223q0 -26 -13 -99t-13 -97q0 -23 8 -28h-70q13 78 30 227q2 34 -13 63q-19 37 -59 52q-5 3 -11 0q34 -23 51 -62q14 -32 12 -64l-30 -216h-54v25q-49 -23 -99 -23q-57 0 -99 26q-52 34 -52 97q0 66 64 104q51 30 110 30q53 0 105 -39q2 4 2 21q0 32 -22.5 56.5
t-56.5 24.5q-35 0 -67 -45q18 95 139 95q69 0 105 -43q33 -39 33 -105zM275 179q0 20 -19 31q-15 9 -35 9q-40 0 -64 -34q-19 -28 -19 -63q0 -33 17 -58q21 -32 59 -32q22 0 39 16q6 23 14 75q8 49 8 56zM140 222q-43 -12 -66 -43q-21 -27 -21 -57q0 -29 19 -54
q23 -31 66 -38q-39 32 -50 48t-10 43q3 58 62 101zM395 492h16q-7 -84 -63 -84q-24 0 -102 33q-13 5 -37 5q-18 0 -22 -6q-9 -9 -22 -36l-16 5q6 82 65 82q23 0 78 -21q45 -18 57 -18q21 0 28.5 8t17.5 32z" />
    <glyph glyph-name="aring" unicode="&#xe5;" horiz-adv-x="468" 
d="M413 223q0 -26 -13 -99t-13 -97q0 -23 8 -28h-70q13 78 30 227q2 34 -13 63q-19 37 -59 52q-5 3 -11 0q34 -23 51 -62q14 -32 12 -64l-30 -216h-54v25q-49 -23 -99 -23q-57 0 -99 26q-52 34 -52 97q0 66 64 104q51 30 110 30q53 0 105 -39q2 4 2 21q0 32 -22.5 56.5
t-56.5 24.5q-35 0 -67 -45q18 95 139 95q69 0 105 -43q33 -39 33 -105zM275 179q0 20 -19 31q-15 9 -35 9q-40 0 -64 -34q-19 -28 -19 -63q0 -33 17 -58q21 -32 59 -32q22 0 39 16q6 23 14 75q8 49 8 56zM140 222q-43 -12 -66 -43q-21 -27 -21 -57q0 -29 19 -54
q23 -31 66 -38q-39 32 -50 48t-10 43q3 58 62 101zM283 530q28 0 47.5 -16t19.5 -43q0 -31 -21.5 -49.5t-52.5 -18.5q-28 0 -47.5 16.5t-19.5 43.5q0 30 22 48.5t52 18.5zM282 512q-40 0 -40 -49q0 -42 35 -42q19 0 29.5 15t10.5 35q0 41 -35 41z" />
    <glyph glyph-name="ccedilla" unicode="&#xe7;" horiz-adv-x="404" 
d="M188 30q-51 24 -80 62.5t-29 80.5q0 84 69 148q-45 -19 -74 -68q-24 -42 -24 -80q0 -50 34 -90q39 -43 104 -53zM184 -4l-11 -35q11 1 18 1q24 0 42.5 -13t18.5 -36q0 -32 -35 -49q-28 -13 -64 -13q-19 0 -44 6l4 22q18 -3 29 -3q55 0 55 37q0 26 -36 26q-9 0 -22 -2
l19 61q-71 10 -113.5 57.5t-42.5 119.5q0 97 85 153q70 45 158 46q34 1 69.5 -13t52.5 -34v-55q-31 41 -54 57q-22 13 -51 13q-60 0 -98 -60q-32 -50 -32 -100q0 -52 31 -90q34 -42 89 -42q52 0 103 49q-19 -56 -76 -83q-42 -21 -87 -20h-8z" />
    <glyph glyph-name="eacute" unicode="&#xe9;" horiz-adv-x="446" 
d="M396 163h-64q8 21 8 68q0 68 -39 97q-1 -4 4 -16q9 -17 9 -20q6 -18 6 -48q0 -54 -16 -81h-172q-1 -7 -1 -13q0 -44 50 -74q40 -24 77 -24q39 0 72 15q12 6 58 37q-20 -58 -84 -86q-50 -22 -113 -22q-81 0 -135 49q-57 52 -57 134q0 90 75 146q66 49 150 49t133 -53
q43 -48 43 -120q0 -19 -4 -38zM277 274q0 72 -49 72q-36 0 -66 -55q-26 -45 -26 -74l-4 -26q2 -1 124 0q21 71 21 83zM215 26q-75 19 -111 66q-32 42 -29 96q2 45 13 70t49 74q-40 -24 -67 -70q-24 -41 -24 -74q0 -68 42 -114q47 -53 127 -48zM129 406l-8 16l165 105
q23 14 38 11q10 -3 15.5 -13t2.5 -21q-4 -16 -26 -25z" />
    <glyph glyph-name="egrave" unicode="&#xe8;" horiz-adv-x="446" 
d="M396 163h-64q8 21 8 68q0 68 -39 97q-1 -4 4 -16q9 -17 9 -20q6 -18 6 -48q0 -54 -16 -81h-172q-1 -7 -1 -13q0 -44 50 -74q40 -24 77 -24q39 0 72 15q12 6 58 37q-20 -58 -84 -86q-50 -22 -113 -22q-81 0 -135 49q-57 52 -57 134q0 90 75 146q66 49 150 49t133 -53
q43 -48 43 -120q0 -19 -4 -38zM277 274q0 72 -49 72q-36 0 -66 -55q-26 -45 -26 -74l-4 -26q2 -1 124 0q21 71 21 83zM215 26q-75 19 -111 66q-32 42 -29 96q2 45 13 70t49 74q-40 -24 -67 -70q-24 -41 -24 -74q0 -68 42 -114q47 -53 127 -48zM345 396l8 16l-165 105
q-23 14 -37 11q-10 -3 -15.5 -13t-3.5 -21q4 -16 27 -25z" />
    <glyph glyph-name="ecircumflex" unicode="&#xea;" horiz-adv-x="446" 
d="M396 163h-64q8 21 8 68q0 68 -39 97q-1 -4 4 -16q9 -17 9 -20q6 -18 6 -48q0 -54 -16 -81h-172q-1 -7 -1 -13q0 -44 50 -74q40 -24 77 -24q39 0 72 15q12 6 58 37q-20 -58 -84 -86q-50 -22 -113 -22q-81 0 -135 49q-57 52 -57 134q0 90 75 146q66 49 150 49t133 -53
q43 -48 43 -120q0 -19 -4 -38zM277 274q0 72 -49 72q-36 0 -66 -55q-26 -46 -26 -74l-4 -26q2 -1 124 0q21 71 21 83zM215 26q-75 19 -111 66q-32 42 -29 96q2 45 13 70t49 74q-40 -24 -67 -70q-24 -41 -24 -74q0 -68 42 -114q47 -53 127 -48zM261 501l122 -97l-20 -15
l-111 69l-137 -69l-14 15z" />
    <glyph glyph-name="edieresis" unicode="&#xeb;" horiz-adv-x="446" 
d="M396 163h-64q8 21 8 68q0 68 -39 97q-1 -4 4 -16q9 -17 9 -20q6 -18 6 -48q0 -54 -16 -81h-172q-1 -7 -1 -13q0 -44 50 -74q40 -24 77 -24q39 0 72 15q12 6 58 37q-20 -58 -84 -86q-50 -22 -113 -22q-81 0 -135 49q-57 52 -57 134q0 90 75 146q66 49 150 49t133 -53
q43 -48 43 -120q0 -19 -4 -38zM277 274q0 72 -49 72q-36 0 -66 -55q-26 -45 -26 -74l-4 -26q2 -1 124 0q21 71 21 83zM215 26q-75 19 -111 66q-32 42 -29 96q2 45 13 70t49 74q-40 -24 -67 -70q-24 -41 -24 -74q0 -68 42 -114q47 -53 127 -48zM158 492q18 0 30.5 -12.5
t12.5 -30.5t-12.5 -30t-30.5 -12t-30 12.5t-12 30.5t12.5 30t29.5 12zM310 492q17 0 29.5 -12.5t12.5 -30.5t-12.5 -30t-30.5 -12t-30 12.5t-12 30.5q0 17 12.5 29.5t30.5 12.5z" />
    <glyph glyph-name="iacute" unicode="&#xed;" horiz-adv-x="234" 
d="M204 367q-6 -5 -10.5 -10t-6.5 -14q-18 -105 -46 -315q-4 -18 9 -28h-66l52 367h68zM112 369l-55 -369h-68q14 10 17 24l48 318q4 13 -6 27h64zM49 406l-8 16l165 105q23 14 38 11q10 -3 15.5 -13t2.5 -21q-4 -16 -26 -25z" />
    <glyph glyph-name="igrave" unicode="&#xec;" horiz-adv-x="234" 
d="M204 367q-6 -5 -10.5 -10t-6.5 -14q-18 -105 -46 -315q-4 -18 9 -28h-66l52 367h68zM112 369l-55 -369h-68q14 10 17 24l48 318q4 13 -6 27h64zM245 396l8 16l-165 105q-23 14 -37 11q-10 -3 -15.5 -13t-3.5 -21q4 -16 27 -25z" />
    <glyph glyph-name="icircumflex" unicode="&#xee;" horiz-adv-x="234" 
d="M204 367q-6 -5 -10.5 -10t-6.5 -14q-18 -105 -46 -315q-4 -18 9 -28h-66l52 367h68zM112 369l-55 -369h-68q14 10 17 24l48 318q4 13 -6 27h64zM151 501l122 -97l-20 -15l-111 69l-137 -69l-14 15z" />
    <glyph glyph-name="idieresis" unicode="&#xef;" horiz-adv-x="234" 
d="M204 367q-6 -5 -10.5 -10t-6.5 -14q-18 -105 -46 -315q-4 -18 9 -28h-66l52 367h68zM112 369l-55 -369h-68q14 10 17 24l48 318q4 13 -6 27h64zM68 492q18 0 30.5 -12.5t12.5 -30.5t-12.5 -30t-30.5 -12t-30 12.5t-12 30.5t12.5 30t29.5 12zM200 492q17 0 29.5 -12.5
t12.5 -30.5t-12.5 -30t-30.5 -12t-30 12.5t-12 30.5q0 17 12.5 29.5t30.5 12.5z" />
    <glyph glyph-name="ntilde" unicode="&#xf1;" horiz-adv-x="473" 
d="M387 29q5 -15 10 -29h-70l41 263q2 33 -19 60t-50 25q52 -46 44 -89l-42 -259h-71q8 10 19 31q11 55 26 155q14 92 14 100q0 41 -43 41q-51 0 -64.5 -70.5t-32.5 -224.5q-1 -12 4.5 -19t10.5 -13h-75l53 367h56l-4 -33q17 12 46 28q33 12 58 12q71 0 113 -73q8 -15 3 -78
q-3 -47 -16 -124q-11 -69 -11 -70zM118 368l-53 -367l-73 -1q6 4 11 9q11 11 13 25l41 290q0 16 -5 25.5t-9 18.5h75zM355 492h16q-7 -84 -63 -84q-24 0 -102 33q-13 5 -37 5q-18 0 -22 -6q-9 -9 -22 -36l-16 5q6 82 65 82q23 0 78 -21q45 -18 57 -18q21 0 28.5 8t17.5 32z
" />
    <glyph glyph-name="oacute" unicode="&#xf3;" horiz-adv-x="489" 
d="M438 190q-3 -63 -51 -117q-51 -59 -125 -73q-23 -5 -63 -5q-81 0 -139 43q-65 48 -65 131q0 94 82 153q71 51 159 51q78 0 138 -46q69 -53 64 -137zM385 199q0 30 -17 68q-21 43 -51 57q34 -44 34 -127q0 -34 -16 -80q-18 -50 -45 -78q42 16 70 68q25 46 25 92zM302 226
q0 124 -71 124q-57 0 -85 -96q-19 -65 -19 -132q0 -105 72 -105q55 0 83 83q20 59 20 126zM130 317q-85 -60 -85 -154q0 -32 15 -66q18 -39 45 -55q-20 40 -24 66q-1 9 -1 54q0 49 11 81q9 24 39 74zM149 406l-8 16l165 105q23 14 38 11q10 -3 15.5 -13t2.5 -21
q-4 -16 -26 -25z" />
    <glyph glyph-name="ograve" unicode="&#xf2;" horiz-adv-x="489" 
d="M438 190q-3 -63 -51 -117q-51 -59 -125 -73q-23 -5 -63 -5q-81 0 -139 43q-65 48 -65 131q0 94 82 153q71 51 159 51q78 0 138 -46q69 -53 64 -137zM385 199q0 30 -17 68q-21 43 -51 57q34 -44 34 -127q0 -34 -16 -80q-18 -50 -45 -78q42 16 70 68q25 46 25 92zM302 226
q0 124 -71 124q-57 0 -85 -96q-19 -65 -19 -132q0 -105 72 -105q55 0 83 83q20 59 20 126zM130 317q-85 -60 -85 -154q0 -32 15 -66q18 -39 45 -55q-20 40 -24 66q-1 9 -1 54q0 49 11 81q9 24 39 74zM345 396l8 16l-165 105q-23 14 -37 11q-10 -3 -15.5 -13t-3.5 -21
q4 -16 27 -25z" />
    <glyph glyph-name="ocircumflex" unicode="&#xf4;" horiz-adv-x="489" 
d="M438 190q-3 -63 -51 -117q-51 -59 -125 -73q-23 -5 -63 -5q-81 0 -139 43q-65 48 -65 131q0 94 82 153q71 51 159 51q78 0 138 -46q69 -53 64 -137zM385 199q0 30 -17 68q-21 43 -51 57q34 -44 34 -127q0 -34 -16 -80q-18 -50 -45 -78q42 16 70 68q25 46 25 92zM302 226
q0 124 -71 124q-57 0 -85 -96q-19 -65 -19 -132q0 -105 72 -105q55 0 83 83q20 59 20 126zM130 317q-85 -60 -85 -154q0 -32 15 -66q18 -39 45 -55q-20 40 -24 66q-1 9 -1 54q0 49 11 81q9 24 39 74zM261 501l122 -97l-20 -15l-111 69l-137 -69l-14 15z" />
    <glyph glyph-name="odieresis" unicode="&#xf6;" horiz-adv-x="489" 
d="M438 190q-3 -63 -51 -117q-51 -59 -125 -73q-23 -5 -63 -5q-81 0 -139 43q-65 48 -65 131q0 94 82 153q71 51 159 51q78 0 138 -46q69 -53 64 -137zM385 199q0 30 -17 68q-21 43 -51 57q34 -44 34 -127q0 -34 -16 -80q-18 -50 -45 -78q42 16 70 68q25 46 25 92zM302 226
q0 124 -71 124q-57 0 -85 -96q-19 -65 -19 -132q0 -105 72 -105q55 0 83 83q20 59 20 126zM130 317q-85 -60 -85 -154q0 -32 15 -66q18 -39 45 -55q-20 40 -24 66q-1 9 -1 54q0 49 11 81q9 24 39 74zM168 492q18 0 30.5 -12.5t12.5 -30.5t-12.5 -30t-30.5 -12t-30 12.5
t-12 30.5t12.5 30t29.5 12zM320 492q17 0 29.5 -12.5t12.5 -30.5t-12.5 -30t-30.5 -12t-30 12.5t-12 30.5q0 17 12.5 29.5t30.5 12.5z" />
    <glyph glyph-name="otilde" unicode="&#xf5;" horiz-adv-x="489" 
d="M438 190q-3 -63 -51 -117q-51 -59 -125 -73q-23 -5 -63 -5q-81 0 -139 43q-65 48 -65 131q0 94 82 153q71 51 159 51q78 0 138 -46q69 -53 64 -137zM385 199q0 30 -17 68q-21 43 -51 57q34 -44 34 -127q0 -34 -16 -80q-18 -50 -45 -78q42 16 70 68q25 46 25 92zM302 226
q0 124 -71 124q-57 0 -85 -96q-19 -65 -19 -132q0 -105 72 -105q55 0 83 83q20 59 20 126zM130 317q-85 -60 -85 -154q0 -32 15 -66q18 -39 45 -55q-20 40 -24 66q-1 9 -1 54q0 49 11 81q9 24 39 74zM345 492h16q-7 -84 -63 -84q-24 0 -102 33q-13 5 -37 5q-18 0 -22 -6
q-9 -9 -22 -36l-16 5q6 82 65 82q23 0 78 -21q45 -18 57 -18q21 0 28.5 8t17.5 32z" />
    <glyph glyph-name="uacute" unicode="&#xfa;" horiz-adv-x="452" 
d="M35 339q-5 15 -10 29h73l-41 -263q-2 -33 17.5 -60t48.5 -25q-50 45 -42 89l41 259h70q-8 -10 -19 -31q-11 -55 -26 -155q-14 -92 -14 -100q0 -41 43 -41q51 0 64.5 70.5t32.5 224.5q1 12 -4.5 19t-10.5 13h71l-50 -369h-55l4 35q-17 -12 -46 -28q-33 -12 -58 -12
q-71 0 -113 73q-6 12 -6 43q0 47 15 141q15 89 15 88zM305 -2l52 369l73 1q-6 -4 -11 -9q-11 -11 -13 -25l-41 -290q0 -16 5 -26l10 -20h-75zM139 406l-8 16l165 105q23 14 38 11q10 -3 15.5 -13t2.5 -21q-4 -16 -26 -25z" />
    <glyph glyph-name="ugrave" unicode="&#xf9;" horiz-adv-x="452" 
d="M35 339q-5 15 -10 29h73l-41 -263q-2 -33 17.5 -60t48.5 -25q-50 45 -42 89l41 259h70q-8 -10 -19 -31q-11 -55 -26 -155q-14 -92 -14 -100q0 -41 43 -41q51 0 64.5 70.5t32.5 224.5q1 12 -4.5 19t-10.5 13h71l-50 -369h-55l4 35q-17 -12 -46 -28q-33 -12 -58 -12
q-71 0 -113 73q-6 12 -6 43q0 47 15 141q15 89 15 88zM305 -2l52 369l73 1q-6 -4 -11 -9q-11 -11 -13 -25l-41 -290q0 -16 5 -26l10 -20h-75zM335 396l8 16l-165 105q-23 14 -37 11q-10 -3 -15.5 -13t-3.5 -21q4 -16 27 -25z" />
    <glyph glyph-name="ucircumflex" unicode="&#xfb;" horiz-adv-x="452" 
d="M35 339q-5 15 -10 29h73l-41 -263q-2 -33 17.5 -60t48.5 -25q-50 45 -42 89l41 259h70q-8 -10 -19 -31q-11 -55 -26 -155q-14 -92 -14 -100q0 -41 43 -41q51 0 64.5 70.5t32.5 224.5q1 12 -4.5 19t-10.5 13h71l-50 -369h-55l4 35q-17 -12 -46 -28q-33 -12 -58 -12
q-71 0 -113 73q-6 12 -6 43q0 47 15 141q15 89 15 88zM305 -2l52 369l73 1q-6 -4 -11 -9q-11 -11 -13 -25l-41 -290q0 -16 5 -26l10 -20h-75zM251 501l122 -97l-20 -15l-111 69l-137 -69l-14 15z" />
    <glyph glyph-name="udieresis" unicode="&#xfc;" horiz-adv-x="452" 
d="M35 339q-5 15 -10 29h73l-41 -263q-2 -33 17.5 -60t48.5 -25q-50 45 -42 89l41 259h70q-8 -10 -19 -31q-11 -55 -26 -155q-14 -92 -14 -100q0 -41 43 -41q51 0 64.5 70.5t32.5 224.5q1 12 -4.5 19t-10.5 13h71l-50 -369h-55l4 35q-17 -12 -46 -28q-33 -12 -58 -12
q-71 0 -113 73q-6 12 -6 43q0 47 15 141q15 89 15 88zM305 -2l52 369l73 1q-6 -4 -11 -9q-11 -11 -13 -25l-41 -290q0 -16 5 -26l10 -20h-75zM148 492q18 0 30.5 -12.5t12.5 -30.5t-12.5 -30t-30.5 -12t-30 12.5t-12 30.5t12.5 30t29.5 12zM300 492q17 0 29.5 -12.5
t12.5 -30.5t-12.5 -30t-30.5 -12t-30 12.5t-12 30.5q0 17 12.5 29.5t30.5 12.5z" />
    <glyph glyph-name="dagger" unicode="&#x2020;" horiz-adv-x="8" 
 />
    <glyph glyph-name="degree" unicode="&#xb0;" horiz-adv-x="306" 
d="M163 636q38 1 65.5 -26.5t27.5 -66.5t-27.5 -65.5t-66.5 -26.5q-38 0 -65 27.5t-27 64.5q0 39 27 66t66 27zM163 610q-28 0 -47.5 -19.5t-19.5 -47.5q0 -27 19.5 -46.5t46.5 -19.5q29 0 48.5 19t19.5 47q0 29 -19.5 48t-47.5 19z" />
    <glyph glyph-name="cent" unicode="&#xa2;" horiz-adv-x="452" 
d="M248 210q-51 24 -80 62.5t-29 80.5q0 84 69 148q-45 -19 -74 -68q-24 -42 -24 -80q0 -50 34 -90q39 -43 104 -53zM269 625h47l-13 -71h2q34 1 69.5 -13t52.5 -34v-55q-31 41 -54 57q-22 13 -51 13q-60 0 -98 -60q-32 -50 -32 -100q0 -52 31 -90q34 -42 89 -42
q52 0 103 49q-19 -56 -76 -83q-42 -20 -87 -20h-8l-14 -68h-45l14 73q-64 15 -101.5 61t-35.5 113q2 78 65 133q53 46 130 61z" />
    <glyph glyph-name="sterling" unicode="&#xa3;" horiz-adv-x="599" 
d="M554 123q0 -61 -61 -97q-48 -29 -101 -29q-61 0 -177.5 51.5t-156.5 51.5q-14 0 -30 -6q-19 -8 -19 -21v-16q3 -3 8 -1q24 12 39 12q47 0 47 -36q0 -32 -37 -32q-38 0 -58 28q-15 23 -15 56q0 56 46 88q38 26 87 26q56 0 179 -60t169 -60q29 0 47 12q15 11 15 23
q0 8 -7 12h-20q-17 0 -31.5 13.5t-14.5 32.5q0 12 13.5 22.5t24.5 10.5q27 0 42 -28q11 -22 11 -53zM476 44q-8 1 -31 1q-50 0 -173.5 55t-168.5 55q-14 0 -36 -8q-25 -10 -28 -20q26 6 46 6q54 0 167.5 -52t161.5 -52q18 0 62 15zM271 579q-45 -21 -69 -80q-7 -17 -23 -85
q-9 -48 -35 -140q-4 -10 -25 -30q25 -7 38 16q22 39 50 161q24 110 64 158zM504 477q0 18 11.5 30t26.5 12h3q0 11 -2 16q-31 77 -122 77q-65 0 -102 -39q-29 -31 -47 -95q-13 -57 -26 -115h174l-8 -30h-173q-32 -119 -118 -119q-56 0 -66 60q6 4 9 4q-1 -16 15 -16
q11 0 17 12q10 22 16 59h-86l9 30h82q10 38 26 115q9 56 80 104q64 43 115 44q10 0 35.5 4.5t27.5 4.5q80 0 133 -36q63 -42 55 -116q2 -20 -12 -33.5t-35 -13.5q-16 0 -27 12t-11 29z" />
    <glyph glyph-name="section" unicode="&#xa7;" horiz-adv-x="465" 
d="M358 146l-1 -6q13 -29 13 -58q0 -76 -60 -127q-56 -48 -133 -48q-64 0 -115 27q-61 34 -61 93q0 27 16.5 48.5t43.5 21.5q25 0 43.5 -13t18.5 -37q0 -23 -15 -35q-24 -20 -27 -25q10 -47 100 -47q47 0 82 25q39 27 39 71q0 51 -66 91q-61 35 -123 71q-66 50 -66 125
q0 92 79 148q2 4 0 19q-3 19 -3 22q0 66 48.5 111t114.5 45q51 0 98 -21q60 -27 60 -71q0 -27 -16.5 -45.5t-42.5 -18.5q-20 0 -38 13t-18 32q0 10 10.5 24.5t12.5 19.5l-11 22q-27 16 -56 16q-41 0 -69.5 -30.5t-28.5 -71.5q0 -48 57 -93q54 -38 107 -77q57 -49 57 -108
q0 -55 -50 -113zM135 447q-30 -33 -30 -72q0 -47 45 -88q27 -24 95.5 -62t90.5 -59l6 -1q24 25 24 50q0 34 -47 69t-95 69q-59 45 -82 92z" />
    <glyph glyph-name="bullet" unicode="&#x2022;" horiz-adv-x="667" 
d="M336 478q57 0 97 -41.5t40 -97.5q0 -58 -40.5 -98.5t-98.5 -40.5q-57 0 -97.5 40.5t-40.5 97.5q0 59 41 99.5t99 40.5z" />
    <glyph glyph-name="paragraph" unicode="&#xb6;" horiz-adv-x="14" 
 />
    <glyph glyph-name="germandbls" unicode="&#xdf;" horiz-adv-x="634" 
d="M-5 0q13 10 28 33q17 121 46 274q32 170 47 270q11 70 139 94q55 10 79 10t99 -10q56 -7 100 -45q50 -42 50 -97q0 -120 -140 -156q70 -30 100 -63q33 -37 36 -100q6 -97 -68 -161q-67 -58 -150 -54h-8q-9 -1 -16 -1q-74 0 -90 61q18 -13 46 -13q54 0 97 42q50 50 50 132
q0 14 -1 28q-7 63 -20 87q-22 39 -80 43q107 2 107 138q0 11 4 36t4 36q0 69 -119 64q-49 -1 -82 -77q-7 -15 -28 -87q-8 -30 -34 -207q-23 -159 -31 -235q-4 -24 14 -40h-76q82 530 97 568q10 26 17 37q14 20 43 35q-82 -13 -94 -91q-22 -132 -67 -403q-10 -66 -24 -147z
M531 524q-8 53 -16 71q-15 32 -54 39q39 -27 39 -86q0 -10 -1.5 -21.5t-1.5 -10.5q0 -38 -30 -94q35 4 53 44q15 33 11 58zM522 219q0 36 -20.5 69.5t-51.5 46.5q21 -18 35 -58q12 -32 12 -55q0 -69 -39 -124q-44 -64 -121 -76q1 0 7 -2.5t11 -2.5q71 0 120 65q47 61 47 137
z" />
    <glyph glyph-name="registered" unicode="&#xae;" horiz-adv-x="425" 
d="M182 327q-73 0 -124.5 52.5t-51.5 126.5q0 73 51.5 124.5t124.5 51.5t124 -52t51 -126q0 -73 -51.5 -125t-123.5 -52zM182 648q-61 1 -101 -41t-40 -103q0 -59 42 -101.5t99 -42.5t98.5 42.5t41.5 101.5q0 60 -41.5 101t-98.5 43zM217 427l-48 75h-23v-75h-28v168h70
q10 4 29 -2q33 -10 33 -41q0 -41 -48 -50l49 -75h-34zM188 573h-44v-39h49q14 0 20 2q10 5 10 21t-35 16z" />
    <glyph glyph-name="copyright" unicode="&#xa9;" horiz-adv-x="814" 
d="M366 -11q-145 0 -246 101.5t-101 247.5t101 248t246 102t246.5 -102t101.5 -248q0 -145 -101.5 -247t-246.5 -102zM366 635q-120 0 -207.5 -86.5t-87.5 -210.5q0 -123 87.5 -209.5t207.5 -86.5t207.5 86.5t87.5 209.5q0 124 -87.5 210.5t-207.5 86.5zM484 407
q-26 81 -108 81q-65 0 -102.5 -42.5t-37.5 -106.5q0 -59 33 -100q38 -47 105 -47q86 0 111 79h53q-36 -132 -163 -132q-88 0 -140 57t-52 145q0 85 53.5 143t139.5 58q58 0 103 -35t60 -100h-55z" />
    <glyph glyph-name="trademark" unicode="&#x2122;" horiz-adv-x="492" 
d="M382 472v161l-64 -161h-21l-60 156v-156h-33v201h50l54 -137l55 137h51v-201h-32zM98 639v-167h-33v167h-66v34h163v-34h-64z" />
    <glyph glyph-name="acute" unicode="&#xb4;" horiz-adv-x="500" 
d="M149 706l-8 16l165 105q23 14 38 11q10 -3 15.5 -13t2.5 -21q-4 -16 -26 -25z" />
    <glyph glyph-name="dieresis" unicode="&#xa8;" horiz-adv-x="622" 
d="M229 823q23 0 38.5 -15.5t15.5 -38.5q0 -22 -15.5 -37.5t-38.5 -15.5q-22 0 -37.5 16t-15.5 38t16 37.5t37 15.5zM419 823q22 0 37.5 -15.5t15.5 -38.5q0 -22 -15.5 -37.5t-38.5 -15.5q-22 0 -37.5 16t-15.5 38t16 37.5t38 15.5z" />
    <glyph glyph-name="AE" unicode="&#xc6;" horiz-adv-x="1175" 
d="M1122 556q-8 32 -50 58q-38 24 -73 24q-59 0 -106 -45.5t-47 -103.5q0 -19 9 -44q11 -29 26 -36q-12 30 -12 61q0 59 40 103t98 44q69 0 115 -61zM983 391v12q-22 14 -33 14h-19q-1 -1 -1 -3q0 -11 12.5 -19.5t24.5 -8.5q11 0 16 5zM1033 80q-66 -27 -117 -27
q-63 0 -124 43q-67 46 -67 106q0 5 -4.5 20t-4.5 24q0 7 10 73q-12 -15 -21.5 -44.5t-9.5 -49.5q0 -80 65 -135t146 -55q70 0 127 45zM657 -3h-155l54 346h-227q-22 -70 -44 -141q-30 -95 -65 -141q-49 -64 -125 -64q-37 0 -68.5 27.5t-31.5 63.5q0 34 34 34q57 0 57 -70
q0 -18 -5 -35l20 -5q75 0 123 147l86 288q63 166 166 197q-23 24 -103 24q-116 0 -195 -95q-75 -90 -75 -208q0 -64 19 -97.5t72 -62.5q-3 -1 -7.5 -4.5t-7.5 -3.5q-59 7 -94 72q-29 54 -29 114q0 116 92 209t208 96q146 3 204 -22q8 1 15 1q17 2 32 2q65 0 86 -23
q-32 7 -71 7q2 0 -29 -3q61 -44 84 -72q36 -43 36 -96q0 -9 -1 -19l-12 -111q40 43 114 72q0 14 -5.5 40.5t-5.5 39.5q0 84 62 133q56 44 141 44q58 0 105 -45.5t47 -103.5q0 -36 -19.5 -69.5t-50.5 -47.5q10 17 20.5 36t10.5 37q0 36 -31.5 61.5t-67.5 25.5
q-54 0 -83 -38.5t-28 -91.5l9 -6l17 3q25 0 45 -11q24 -13 24 -36q0 -22 -25 -34q-19 -10 -44 -10q-59 0 -103 49q-31 -2 -56 -58q-21 -48 -21 -84q0 -65 67 -113q61 -43 127 -43q65 0 113 33q54 37 54 98l-3 3q-4 0 -18 -2t-21 -2q-23 0 -39.5 12.5t-16.5 34.5
q0 15 11.5 24t26.5 9q39 0 60 -37q18 -31 18 -73q0 -94 -78 -155q-72 -57 -168 -57q-72 0 -128.5 30.5t-85.5 85.5q-8 -42 -17 -109zM570 484q0 37 -20 87q-23 60 -54 60q-59 0 -108 -102q-33 -68 -53 -157l230 -2q5 19 5 114zM657 460q4 39 -21 86t-59 64q51 -62 51 -131
q0 -9 -1 -18q-14 -88 -43 -336l-16 -85l31 -4l16 97q17 115 42 327z" />
    <glyph glyph-name="Oslash" unicode="&#xd8;" horiz-adv-x="622" 
d="M175 181l243 354q-55 -13 -71 -52q-11 -30 -13 -63q-5 -1 -8 -1q0 3 -2 13t-2 15q0 59 37 95q34 35 89 38l42 61q-26 16 -68 16q-137 0 -215 -122q-64 -98 -64 -220q0 -76 32 -134zM122 104l18 26q-54 65 -54 171q0 205 183 340q-109 -48 -168 -159q-48 -89 -48 -181
q0 -120 69 -197zM156 113l-20 -28q56 -51 149 -51q22 0 57 9q-121 8 -186 70zM446 538l-258 -378q55 -78 160 -78q169 0 220 219q-4 3 0 91q-5 58 -38.5 100t-83.5 46zM543 719h27l-56 -83q12 -12 18 -27h-13q-5 10 -12 17l-32 -47q72 -6 107 -65q28 -47 28 -116
q0 -148 -99 -270q-107 -130 -257 -130q-85 0 -146 45l-57 -83h-27l66 97q-94 85 -94 235q0 166 107.5 278t276.5 112q73 0 117 -31z" />
    <glyph glyph-name="plusminus" unicode="&#xb1;" horiz-adv-x="8" 
 />
    <glyph glyph-name="yen" unicode="&#xa5;" horiz-adv-x="628" 
d="M304 262q-40 249 -106 306q-28 24 -59 24q-8 0 -14 -2q53 -7 93 -94q28 -62 48 -158q15 -74 14 -79l-37 -260h-65q15 11 17 24l10 72h-85l7 37h84l6 42h-87l7 37h85l2 11q8 28 2 34q-13 61 -26 121q-23 101 -41 135q-10 19 -33 32t-41 13q-60 0 -75 -77q-9 31 -3 51
q-1 26 39 61q37 33 64 36q36 4 42 4q128 0 185 -273q4 -28 12 -59q40 120 90 208q72 124 137 124q35 0 66 -29.5t31 -63.5q0 -18 -10.5 -33.5t-26.5 -15.5q-52 0 -52 60q0 23 8 42q-14 16 -18 16q-62 0 -115 -115q-33 -83 -65 -165q-6 -12 -19 -45t-18 -60l-2 -12h85l-5 -37
h-86l-7 -42h88l-5 -37h-88q-5 -35 -9 -71q-2 -15 11 -25h-66q4 45 31 263z" />
    <glyph glyph-name="mu" unicode="&#xb5;" horiz-adv-x="669" 
d="M299 628q-51 -24 -75 -86q-4 -10 -23 -91q-13 -56 -43 -161q-25 -66 -57 -97h13q14 0 37 36l22 40q25 44 54 181q27 124 72 178zM525 34q-8 2 -34 2q-56 0 -192.5 61t-186.5 61q-15 0 -41 -10t-30 -22q29 7 51 7q60 0 186 -57.5t179 -57.5q19 0 68 16zM-1 261l119 69
q1 5 13 69q11 40 30 124q10 62 86 111q68 45 125 46q12 0 40 5t31 5q93 0 153 -46q69 -52 69 -147q0 -75 -50 -137q-58 -70 -157 -83q-2 1 -8 6q73 5 121 90q40 71 40 142q0 64 -38 107q-41 46 -105 46q-92 0 -140 -82q-30 -50 -59 -178l151 88l3 -41l-165 -93
q-30 -125 -76 -162q50 -11 178 -74q113 -54 163 -54q56 0 74 38v10q-6 6 -9 6q-4 0 -8.5 -2t-9.5 -2q-20 0 -43 16.5t-23 37.5q0 13 14.5 24.5t26.5 11.5q33 0 52 -36q14 -27 14 -54q0 -68 -67 -108q-53 -32 -112 -32q-67 0 -196 57.5t-174 57.5q-16 0 -33 -7
q-21 -9 -21 -23v-18q3 -3 8 -1q28 13 44 13q52 0 52 -39q0 -36 -41 -36q-43 0 -64 31q-17 25 -17 62q0 75 72 109q27 36 37 76q4 8 9 23l-103 -62z" />
    <glyph glyph-name="mu" unicode="&#x3bc;" horiz-adv-x="669" 
d="M299 628q-51 -24 -75 -86q-4 -10 -23 -91q-13 -56 -43 -161q-25 -66 -57 -97h13q14 0 37 36l22 40q25 44 54 181q27 124 72 178zM525 34q-8 2 -34 2q-56 0 -192.5 61t-186.5 61q-15 0 -41 -10t-30 -22q29 7 51 7q60 0 186 -57.5t179 -57.5q19 0 68 16zM-1 261l119 69
q1 5 13 69q11 40 30 124q10 62 86 111q68 45 125 46q12 0 40 5t31 5q93 0 153 -46q69 -52 69 -147q0 -75 -50 -137q-58 -70 -157 -83q-2 1 -8 6q73 5 121 90q40 71 40 142q0 64 -38 107q-41 46 -105 46q-92 0 -140 -82q-30 -50 -59 -178l151 88l3 -41l-165 -93
q-30 -125 -76 -162q50 -11 178 -74q113 -54 163 -54q56 0 74 38v10q-6 6 -9 6q-4 0 -8.5 -2t-9.5 -2q-20 0 -43 16.5t-23 37.5q0 13 14.5 24.5t26.5 11.5q33 0 52 -36q14 -27 14 -54q0 -68 -67 -108q-53 -32 -112 -32q-67 0 -196 57.5t-174 57.5q-16 0 -33 -7
q-21 -9 -21 -23v-18q3 -3 8 -1q28 13 44 13q52 0 52 -39q0 -36 -41 -36q-43 0 -64 31q-17 25 -17 62q0 75 72 109q27 36 37 76q4 8 9 23l-103 -62z" />
    <glyph glyph-name="ordfeminine" unicode="&#xaa;" horiz-adv-x="664" 
d="M625 629q0 -59 -57 -90q-44 -24 -96 -24q-7 0 -53 2l-89 -161h195q25 0 45 17q24 18 30 50v-30q0 -16 -15 -37q-12 -17 -20 -23q-18 -12 -37 -14l-56 -5h-165q-29 -48 -72 -116q21 -10 94 -40q36 -17 73 -34q45 -20 84 -20q42 0 74.5 25.5t32.5 68.5q0 11 -7.5 33.5
t-16.5 31.5q47 -28 47 -101q0 -82 -61 -129q-54 -42 -132 -42q-63 0 -137 37q-86 41 -122 48q-57 -85 -111 -85q-27 0 -42 19q-11 15 -11 34q0 65 78 116q69 45 123 39q26 38 72 115h-38q-13 0 -38 -13l57 91q3 -1 9 -6q-3 -8 -11 -24q3 -6 44 -1q10 17 90 162
q-21 13 -81.5 28.5t-90.5 15.5q-77 0 -115 -52q-25 -34 -25 -69q0 -63 63 -102q-48 14 -75 59q-24 38 -24 82q0 34 16 72.5t38 57.5q44 37 79 52q40 16 98 16q39 0 95 -12q15 -3 56 -17q37 -13 42 -13q-3 0 33 24.5t70 24.5q60 0 60 -61zM600 650q0 23 -33 23q-41 0 -72 -38
q30 -12 53 -12q52 0 52 27zM584 595q-35 -14 -77 -14q-38 0 -131.5 28.5t-142.5 28.5q-80 0 -112 -34q-46 -47 -44 -72q41 47 73 64t73 17q43 0 143.5 -28t133.5 -28q21 0 47 9q33 11 37 29zM542 75q-41 -17 -80 -17q-49 0 -147.5 47.5t-153.5 47.5q-20 0 -49 -10t-42 -21
q42 6 72 6q51 0 153 -47.5t153 -47.5q63 0 94 42zM136 82q4 0 -8.5 2t-38.5 2q-68 -19 -68 -49q0 -7 9.5 -17.5t22.5 -10.5q19 0 47 24t36 49zM330 709l-144 115l24 17l130 -81l161 81l17 -17z" />
    <glyph glyph-name="ordmasculine" unicode="&#xba;" horiz-adv-x="440" 
d="M405 370l-225 -339q3 -1 49 -1q76 0 138 14l23 9q-7 -12 -46 -70q-5 4 -10 7q-23 11 -39 11h-199l243 367zM307 369l-241 -368h-68l225 337h-26q-116 0 -153 -9l-22 -5q13 23 34 60q10 -12 40 -14zM233 409l-122 97l20 15l111 -68l137 68l14 -15z" />
    <glyph glyph-name="ae" unicode="&#xe6;" horiz-adv-x="801" 
d="M275 179q0 20 -19 31q-15 9 -35 9q-40 0 -64 -34q-19 -28 -19 -63q0 -33 17 -58q21 -32 59 -32q22 0 39 16q6 23 14 75q8 49 8 56zM140 222q-43 -12 -66 -43q-21 -27 -21 -57q0 -29 19 -54q23 -31 66 -38q-39 32 -50 48t-10 43q3 58 62 101zM756 163h-64q8 21 8 68
q0 68 -39 97q-1 -4 4 -16q9 -17 9 -20q6 -18 6 -48q0 -54 -16 -81h-172q-1 -7 -1 -13q0 -44 50 -74q40 -24 77 -24q39 0 72 15q12 6 58 37q-20 -58 -84 -86q-50 -22 -113 -22q-105 0 -160 77q-5 -34 -8 -72l-58 -2q13 78 30 227q2 34 -13 63q-19 37 -59 52q-5 3 -11 0
q35 -23 52 -62q15 -34 11 -64l-30 -216h-54v25q-49 -23 -99 -23q-57 0 -99 26q-52 34 -52 97q0 66 64 104q51 30 110 30q53 0 105 -39q2 4 2 21q0 32 -22.5 56.5t-56.5 24.5q-35 0 -67 -45q18 95 139 95q94 0 125 -77q68 80 184 80q84 0 133 -53q43 -48 43 -120
q0 -19 -4 -38zM637 274q0 72 -49 72q-36 0 -66 -55q-26 -45 -26 -74l-4 -26q2 -1 124 0q21 71 21 83zM575 26q-75 19 -111 66q-32 42 -29 96q2 45 13 70t49 74q-61 -36 -84 -108v-1q0 -19 -6 -55q7 -62 47 -101q47 -46 121 -41z" />
    <glyph glyph-name="oslash" unicode="&#xf8;" horiz-adv-x="489" 
d="M385 199q0 30 -17 68q-21 43 -51 57q34 -44 34 -127q0 -34 -16 -80q-18 -50 -45 -78q42 16 70 68q25 46 25 92zM128 97l154 224q-18 29 -51 29q-57 0 -85 -96q-19 -65 -19 -132q0 -14 1 -25zM95 49l4 6q-15 33 -18 56q-1 8 -1 51q0 49 11 81q9 24 39 74q-85 -60 -85 -154
q0 -28 13 -60q14 -36 37 -54zM293 297l-159 -231q16 -49 65 -49q55 0 83 83q20 59 20 126q0 43 -9 71zM348 415h27l-44 -63q113 -50 107 -162q-3 -63 -51 -117q-51 -59 -125 -73q-23 -5 -63 -5q-54 0 -100 20l-34 -49h-27l41 59q-84 49 -84 144q0 94 82 153q71 51 159 51
q37 0 74 -13z" />
    <glyph glyph-name="questiondown" unicode="&#xbf;" horiz-adv-x="280" 
d="M13 -58q0 72 47 145q8 13 88 111q47 59 47 96q0 41 -30 41h-18q-13 1 -16 1q25 27 69 27q48 0 75 -40q23 -32 23 -73q0 -58 -76.5 -152.5t-76.5 -150.5q0 -38 22.5 -62t57.5 -24q49 0 75 53q-4 -52 -48 -81q-37 -25 -85 -25q-68 0 -111 36t-43 98zM173 452q0 25 19 40.5
t39 15.5q24 0 40.5 -19t16.5 -41q0 -23 -18.5 -39t-38.5 -16q-24 0 -41 20t-17 39zM103 -125q27 -32 48 -31h12q-67 33 -67 109q0 54 45 113q40 47 81 95q43 54 41 97q-1 15 -13 35q-13 24 -31 29q18 -49 18 -53q0 -43 -43 -98q-40 -48 -80 -97q-44 -59 -44 -114
q0 -20 5.5 -39.5t27.5 -45.5z" />
    <glyph glyph-name="exclamdown" unicode="&#xa1;" horiz-adv-x="216" 
d="M122 353l32 3l-78 -521q-23 -11 -64 -30q36 183 110 548zM104 -154l82 519l32 9q-15 -156 -54 -467q-2 -14 6 -34q-18 -11 -66 -27zM119 460q0 26 19 42q16 14 37 14q28 0 44 -23q12 -17 12 -37q0 -18 -16.5 -36.5t-35.5 -18.5q-24 0 -42 18.5t-18 40.5z" />
    <glyph glyph-name="logicalnot" unicode="&#xac;" horiz-adv-x="17" 
 />
    <glyph glyph-name="florin" unicode="&#x192;" horiz-adv-x="20" 
 />
    <glyph glyph-name="guillemotleft" unicode="&#xab;" horiz-adv-x="381" 
d="M200 425h28l-115 -188l42 -186h-27l-80 186zM309 425h27l-90 -188l18 -186h-28l-54 186z" />
    <glyph glyph-name="guillemotright" unicode="&#xbb;" horiz-adv-x="381" 
d="M155 51h-28l115 188l-42 186h27l79 -186zM46 51h-28l90 188l-17 186h27l55 -186z" />
    <glyph glyph-name="ellipsis" unicode="&#x2026;" horiz-adv-x="754" 
d="M434 51q0 -21 -16 -38t-35 -17q-22 0 -38.5 16t-16.5 37q0 20 16.5 36.5t38.5 16.5q17 0 34 -16.5t17 -34.5zM694 51q0 -21 -16 -38t-35 -17q-22 0 -38.5 16t-16.5 37q0 20 16.5 36.5t38.5 16.5q17 0 34 -16.5t17 -34.5zM174 51q0 -21 -16 -38t-35 -17q-22 0 -38.5 16
t-16.5 37q0 20 16.5 36.5t38.5 16.5q17 0 34 -16.5t17 -34.5z" />
    <glyph glyph-name="nonbreakingspace" unicode="&#xa0;" 
 />
    <glyph glyph-name="Agrave" unicode="&#xc0;" horiz-adv-x="818" 
d="M773 126q0 -56 -42 -92.5t-97 -36.5q-57 0 -89 39q-29 35 -29 93q0 43 12 107q10 53 20 107h-219q-22 -70 -44 -141q-30 -95 -65 -141q-49 -64 -125 -64q-37 0 -68.5 27.5t-31.5 63.5q0 34 34 34q57 0 57 -70q0 -18 -5 -35l20 -5q75 0 123 147l86 288q63 166 166 197
q-23 24 -103 24q-116 0 -195 -95q-75 -90 -75 -208q0 -64 19 -97.5t72 -62.5q-3 -1 -7.5 -4.5t-7.5 -3.5q-59 7 -94 72q-29 54 -29 114q0 116 92 209t208 96q146 3 204 -22q8 1 15 1q17 2 32 2q65 0 86 -23q-32 7 -71 7q2 0 -29 -3q61 -45 86 -78q33 -46 33 -109
q0 -59 -25 -173.5t-25 -172.5q0 -52 40 -52q46 0 60 63zM570 484q0 37 -20 87q-23 60 -54 60q-59 0 -108 -102q-33 -68 -53 -157l218 1q17 69 17 111zM652 461q1 7 1 14q0 38 -23 79t-53 56q51 -62 51 -131q0 -9 -1 -18l-32 -172q-20 -113 -20 -168q0 -26 18 -55t43 -29
q8 0 12 1q-21 10 -35.5 32.5t-14.5 46.5q0 50 21 170q17 87 33 174zM635 706l8 16l-165 105q-23 14 -37 11q-10 -3 -15.5 -13t-3.5 -21q4 -16 27 -25z" />
    <glyph glyph-name="Atilde" unicode="&#xc3;" horiz-adv-x="818" 
d="M773 126q0 -56 -42 -92.5t-97 -36.5q-57 0 -89 39q-29 35 -29 93q0 43 12 107q10 53 20 107h-219q-22 -70 -44 -141q-30 -95 -65 -141q-49 -64 -125 -64q-37 0 -68.5 27.5t-31.5 63.5q0 34 34 34q57 0 57 -70q0 -18 -5 -35l20 -5q75 0 123 147l86 288q63 166 166 197
q-23 24 -103 24q-116 0 -195 -95q-75 -90 -75 -208q0 -64 19 -97.5t72 -62.5q-3 -1 -7.5 -4.5t-7.5 -3.5q-59 7 -94 72q-29 54 -29 114q0 116 92 209t208 96q146 3 204 -22q8 1 15 1q17 2 32 2q65 0 86 -23q-32 7 -71 7q2 0 -29 -3q61 -45 86 -78q33 -46 33 -109
q0 -59 -25 -173.5t-25 -172.5q0 -52 40 -52q46 0 60 63zM570 484q0 37 -20 87q-23 60 -54 60q-59 0 -108 -102q-33 -68 -53 -157l218 1q17 69 17 111zM652 461q1 7 1 14q0 38 -23 79t-53 56q51 -62 51 -131q0 -9 -1 -18l-32 -172q-20 -113 -20 -168q0 -26 18 -55t43 -29
q8 0 12 1q-21 10 -35.5 32.5t-14.5 46.5q0 50 21 170q17 87 33 174zM655 830h19q-8 -99 -74 -99q-28 0 -120 38q-15 6 -44 6q-21 0 -26 -7q-11 -10 -26 -42l-18 6q7 97 76 97q27 0 93 -25q53 -21 66 -21q25 0 33 10l12 14q8 11 9 23z" />
    <glyph glyph-name="Otilde" unicode="&#xd5;" horiz-adv-x="622" 
d="M610 398q0 -148 -99 -270q-107 -130 -257 -130q-126 0 -197 95q-61 83 -61 199q0 166 107.5 278t276.5 112q120 0 152 -73h-13q-25 48 -97 48q-137 0 -215 -122q-64 -98 -64 -220q0 -97 49 -160q55 -73 156 -73q169 0 220 219q-4 3 0 91q-6 61 -40 102q-37 44 -90 44
q-25 0 -53 -15.5t-38 -39.5q-11 -30 -13 -63q-5 -1 -8 -1q0 3 -2 13t-2 15q0 61 40 98q37 35 95 35q82 0 121 -60q32 -48 32 -122zM86 301q0 205 183 340q-109 -48 -168 -159q-48 -89 -48 -181q0 -103 53 -177q64 -90 179 -90q22 0 57 9q-138 9 -203 88q-53 65 -53 170z
M505 830h19q-8 -99 -74 -99q-28 0 -120 38q-15 6 -44 6q-21 0 -26 -7q-11 -10 -26 -42l-18 6q7 97 76 97q27 0 93 -25q53 -21 66 -21q25 0 33 10l12 14q8 11 9 23z" />
    <glyph glyph-name="OE" unicode="&#x152;" horiz-adv-x="1079" 
d="M86 301q0 205 183 340q-109 -48 -168 -159q-48 -89 -48 -181q0 -103 53 -177q64 -90 179 -90q22 0 57 9q-138 9 -203 88q-53 65 -53 170zM1058 532q0 -36 -19.5 -69.5t-50.5 -47.5q10 17 20.5 36t10.5 37q0 36 -31.5 61.5t-67.5 25.5q-54 0 -83 -38.5t-28 -91.5l9 -6
l17 3q25 0 45 -11q24 -13 24 -36q0 -22 -25 -34q-19 -10 -44 -10q-59 0 -103 49q-31 -2 -56 -58q-21 -48 -21 -84q0 -65 67 -113q61 -43 127 -43q65 0 113 33q54 37 54 98l-3 3q-4 0 -18 -2t-21 -2q-23 0 -39.5 12.5t-16.5 34.5q0 15 11.5 24t26.5 9q39 0 60 -37
q18 -31 18 -73q0 -94 -78 -155q-72 -57 -168 -57t-162 53t-75 144q-49 -85 -123 -135q-81 -54 -174 -54q-126 0 -197 95q-61 83 -61 199q0 166 107.5 278t276.5 112q120 0 152 -73h-13q-25 48 -97 48q-137 0 -215 -122q-64 -98 -64 -220q0 -97 49 -160q55 -73 156 -73
q145 0 204 163q4 31 15 56q-3 4 1 91q-6 61 -40 102q-37 44 -90 44q-25 0 -53 -15.5t-38 -39.5q-11 -30 -13 -63q-5 -1 -8 -1q0 3 -2 13t-2 15q0 61 40 98q37 35 95 35q82 0 121 -60q32 -48 32 -122q0 -19 -2 -38q38 37 106 64q0 14 -5.5 40.5t-5.5 39.5q0 84 62 133
q56 44 141 44q58 0 105 -45.5t47 -103.5zM1022 556q-8 32 -50 58q-38 24 -73 24q-59 0 -106 -45.5t-47 -103.5q0 -19 9 -44q11 -29 26 -36q-12 30 -12 61q0 59 40 103t98 44q69 0 115 -61zM883 391v12q-22 14 -33 14h-19q-1 -1 -1 -3q0 -11 12.5 -19.5t24.5 -8.5q11 0 16 5z
M933 80q-66 -27 -117 -27q-63 0 -124 43q-67 46 -67 106q0 5 -4.5 20t-4.5 24q0 7 10 73q-12 -15 -21.5 -44.5t-9.5 -49.5q0 -80 65 -135t146 -55q70 0 127 45z" />
    <glyph glyph-name="oe" unicode="&#x153;" horiz-adv-x="835" 
d="M385 199q0 30 -17 68q-21 43 -51 57q34 -44 34 -127q0 -34 -16 -80q-18 -50 -45 -78q42 16 70 68q25 46 25 92zM302 226q0 124 -71 124q-57 0 -85 -96q-19 -65 -19 -132q0 -105 72 -105q55 0 83 83q20 59 20 126zM130 317q-85 -60 -85 -154q0 -32 15 -66q18 -39 45 -55
q-20 40 -24 66q-1 9 -1 54q0 49 11 81q9 24 39 74zM786 163h-64q8 21 8 68q0 68 -39 97q-1 -4 4 -16q9 -17 9 -20q6 -18 6 -48q0 -54 -16 -81h-172q-1 -7 -1 -13q0 -44 50 -74q40 -24 77 -24q39 0 72 15q12 6 58 37q-20 -58 -84 -86q-50 -22 -113 -22q-58 0 -105 27t-70 75
q-52 -80 -144 -98q-23 -5 -63 -5q-81 0 -139 43q-65 48 -65 131q0 94 82 153q71 51 159 51q53 0 102 -24q54 -26 80 -72q31 46 88 73q52 24 108 24q84 0 133 -53q43 -48 43 -120q0 -19 -4 -38zM667 274q0 72 -49 72q-36 0 -66 -55q-26 -45 -26 -74l-4 -26q2 -1 124 0
q21 71 21 83zM605 26q-75 19 -111 66q-32 42 -29 96q2 45 13 70t49 74q-72 -42 -89 -124q1 -18 -1 -34q4 -64 45 -105q47 -48 123 -43z" />
    <glyph glyph-name="endash" unicode="&#x2013;" horiz-adv-x="458" 
d="M2 260h390v-63h-390v63z" />
    <glyph glyph-name="emdash" unicode="&#x2014;" horiz-adv-x="928" 
d="M2 260h860v-63h-860v63z" />
    <glyph glyph-name="quotedblleft" unicode="&#x201c;" horiz-adv-x="297" 
d="M64 547q1 61 45 94q11 9 71 35q-2 -6 -27 -32q-21 -21 -22 -51l19 -17.5t19 -31.5q0 -21 -15.5 -34.5t-38.5 -13.5q-24 0 -39 17q-12 14 -12 34zM194 547q1 61 45 94q11 9 71 35q-2 -6 -27 -32q-21 -21 -22 -51l19 -17.5t19 -31.5q0 -21 -15.5 -34.5t-38.5 -13.5
q-24 0 -39 17q-12 14 -12 34z" />
    <glyph glyph-name="quotedblright" unicode="&#x201d;" horiz-adv-x="280" 
d="M300 625q-1 -61 -45 -94q-11 -9 -71 -35q2 6 26 31q21 22 23 52l-19 17.5t-19 31.5q0 21 15.5 34.5t38.5 13.5q24 0 37.5 -16t13.5 -35zM170 625q-1 -61 -45 -94q-11 -9 -71 -35q2 6 26 31q21 22 23 52l-19 17.5t-19 31.5q0 21 15.5 34.5t38.5 13.5q24 0 37.5 -16
t13.5 -35z" />
    <glyph glyph-name="quoteleft" unicode="&#x2018;" horiz-adv-x="103" 
d="M-6 547q1 61 45 94q11 9 71 35q-2 -6 -27 -32q-21 -21 -22 -51l19 -17.5t19 -31.5q0 -21 -15.5 -34.5t-38.5 -13.5q-24 0 -39 17q-12 14 -12 34z" />
    <glyph glyph-name="quoteright" unicode="&#x2019;" horiz-adv-x="103" 
d="M110 625q-1 -61 -45 -94q-11 -9 -71 -35q2 6 26 31q21 22 23 52l-19 17.5t-19 31.5q0 21 15.5 34.5t38.5 13.5q24 0 37.5 -16t13.5 -35z" />
    <glyph glyph-name="divide" unicode="&#xf7;" horiz-adv-x="20" 
 />
    <glyph glyph-name="ydieresis" unicode="&#xff;" horiz-adv-x="407" 
d="M397 367q-11 -11 -26 -20q-6 -3 -17 -26q-1 -2 -69 -180q-50 -130 -98 -195q-67 -90 -150 -90q-32 0 -59 16q-32 19 -32 48q0 22 26 37q23 12 47 12q28 0 55 -20q-6 0 -18.5 1.5t-18.5 1.5q-56 0 -56 -41q0 -30 41 -30q59 0 59 80q0 46 -6 81q-15 85 -38 284
q-2 15 -27 42l75 -1l50 -366q4 -30 -9 -82q18 12 26 40q7 25 4 48l-51 360h74q-6 -8 -4 -41q3 -39 35 -288q13 25 109 283q3 6 3 13q0 5 -14 33h89zM124 505q19 0 32 -13.5t13 -32.5t-13.5 -32t-32.5 -13t-32 13.5t-13 32.5t13.5 32t32.5 13zM284 505q19 0 32.5 -13.5
t13.5 -32.5t-13.5 -32t-32.5 -13t-32 13.5t-13 32.5t13.5 32t31.5 13z" />
    <glyph glyph-name="Ydieresis" unicode="&#x178;" horiz-adv-x="623" 
d="M668 630q-7 -4 -9 -3q-8 13 -16 13q-17 0 -29 -34q-17 -46 -48 -292q-26 -211 -89 -310q-91 -144 -292 -144q-76 0 -140 34q-83 42 -83 119q0 24 14 52q18 38 46 38q12 0 23.5 -15t11.5 -24q0 -34 -39 -58t-39 -26q0 -17 33 -46q30 -27 43 -31q40 -11 61 -11
q124 0 204 103q71 91 92 236l-3 16q-96 -166 -196 -166q-40 0 -72 25q-40 29 -48 82q-1 6 -1 52q0 55 13 150t13 139q0 33 -5 64q2 2 7 3.5t7 3.5q-1 0 -16 3q-17 36 -41 36q-6 0 -14 -2q-23 -8 -40 -43q8 20 13 44q35 44 87 44q92 0 129 -85q8 -20 8 -68l-28 -284
q0 -41 14.5 -60t54.5 -19q52 0 88 66q33 59 53 169q26 142 37 178q16 51 50 79t74 28q56 0 72 -56zM598 657h-17q-12 -9 -28 -25q-35 -70 -48 -160q-25 -175 -29 -195q-12 -64 -24 -127q-16 -75 -45 -125q-38 -66 -109 -115q62 18 105 74q59 77 90 244q17 124 35 248
q14 76 35 134q10 26 35 47zM257 133q-59 17 -75 46q-9 16 -9 61l24 298q0 56 -15 82q-3 5 -24 19.5t-26 13.5h-15q41 -34 50 -59q6 -14 6 -59l-28 -304q0 -40 19 -71q25 -36 68 -36q9 0 25 9zM269 823q23 0 38.5 -15.5t15.5 -38.5q0 -22 -15.5 -37.5t-38.5 -15.5
q-22 0 -37.5 16t-15.5 38t16 37.5t37 15.5zM459 823q22 0 37.5 -15.5t15.5 -38.5q0 -22 -15.5 -37.5t-38.5 -15.5q-22 0 -37.5 16t-15.5 38t16 37.5t38 15.5z" />
    <glyph glyph-name="currency" unicode="&#xa4;" horiz-adv-x="26" 
 />
    <glyph glyph-name="guilsinglleft" unicode="&#x2039;" horiz-adv-x="274" 
d="M200 425h28l-115 -188l42 -186h-27l-80 186z" />
    <glyph glyph-name="guilsinglright" unicode="&#x203a;" horiz-adv-x="240" 
d="M36 51h-28l115 188l-42 186h27l80 -186z" />
    <glyph glyph-name="daggerdbl" unicode="&#x2021;" 
 />
    <glyph glyph-name="periodcentered" unicode="&#xb7;" horiz-adv-x="586" 
d="M293 328q29 0 49.5 -20t20.5 -49t-20.5 -49.5t-49.5 -20.5t-49 20.5t-20 49.5t20 49t49 20z" />
    <glyph glyph-name="periodcentered" unicode="&#x2219;" horiz-adv-x="586" 
d="M293 328q29 0 49.5 -20t20.5 -49t-20.5 -49.5t-49.5 -20.5t-49 20.5t-20 49.5t20 49t49 20z" />
    <glyph glyph-name="quotesinglbase" unicode="&#x201a;" horiz-adv-x="176" 
d="M110 45q-1 -61 -45 -94q-11 -9 -71 -35q2 6 26 31q21 22 23 52l-19 17.5t-19 31.5q0 21 15.5 34.5t38.5 13.5q24 0 37.5 -16t13.5 -35z" />
    <glyph glyph-name="quotedblbase" unicode="&#x201e;" horiz-adv-x="316" 
d="M250 45q-1 -61 -45 -94q-11 -9 -71 -35q2 6 26 31q21 22 23 52l-19 17.5t-19 31.5q0 21 15.5 34.5t38.5 13.5q24 0 37.5 -16t13.5 -35zM110 45q-1 -61 -45 -94q-11 -9 -71 -35q2 6 26 31q21 22 23 52l-19 17.5t-19 31.5q0 21 15.5 34.5t38.5 13.5q24 0 37.5 -16t13.5 -35
z" />
    <glyph glyph-name="perthousand" unicode="&#x2030;" horiz-adv-x="17" 
 />
    <glyph glyph-name="Acircumflex" unicode="&#xc2;" horiz-adv-x="818" 
d="M773 126q0 -56 -42 -92.5t-97 -36.5q-57 0 -89 39q-29 35 -29 93q0 43 12 107q10 53 20 107h-219q-22 -70 -44 -141q-30 -95 -65 -141q-49 -64 -125 -64q-37 0 -68.5 27.5t-31.5 63.5q0 34 34 34q57 0 57 -70q0 -18 -5 -35l20 -5q75 0 123 147l86 288q63 166 166 197
q-23 24 -103 24q-116 0 -195 -95q-75 -90 -75 -208q0 -64 19 -97.5t72 -62.5q-3 -1 -7.5 -4.5t-7.5 -3.5q-59 7 -94 72q-29 54 -29 114q0 116 92 209t208 96q146 3 204 -22q8 1 15 1q17 2 32 2q65 0 86 -23q-32 7 -71 7q2 0 -29 -3q61 -45 86 -78q33 -46 33 -109
q0 -59 -25 -173.5t-25 -172.5q0 -52 40 -52q46 0 60 63zM570 484q0 37 -20 87q-23 60 -54 60q-59 0 -108 -102q-33 -68 -53 -157l218 1q17 69 17 111zM652 461q1 7 1 14q0 38 -23 79t-53 56q51 -62 51 -131q0 -9 -1 -18l-32 -172q-20 -113 -20 -168q0 -26 18 -55t43 -29
q8 0 12 1q-21 10 -35.5 32.5t-14.5 46.5q0 50 21 170q17 87 33 174zM534 841l144 -114l-24 -18l-130 81l-161 -81l-17 18z" />
    <glyph glyph-name="Ecircumflex" unicode="&#xca;" horiz-adv-x="528" 
d="M508 532q0 -36 -19.5 -69.5t-50.5 -47.5q10 17 20.5 36t10.5 37q0 36 -31.5 61.5t-67.5 25.5q-54 0 -83 -38.5t-28 -91.5l9 -6l17 3q25 0 45 -11q24 -13 24 -36q0 -22 -25 -34q-19 -10 -44 -10q-59 0 -103 49q-31 -2 -56 -58q-21 -48 -21 -84q0 -65 67 -113
q61 -43 127 -43q65 0 113 33q54 37 54 98l-3 3q-4 0 -18 -2t-21 -2q-23 0 -39.5 12.5t-16.5 34.5q0 15 11.5 24t26.5 9q39 0 60 -37q18 -31 18 -73q0 -94 -78 -155q-72 -57 -168 -57q-103 0 -169 59q-69 62 -69 164q0 146 164 211q0 14 -5.5 40.5t-5.5 39.5q0 84 62 133
q56 44 141 44q58 0 105 -45.5t47 -103.5zM472 556q-8 32 -50 58q-38 24 -73 24q-59 0 -106 -45.5t-47 -103.5q0 -19 9 -44q11 -29 26 -36q-12 30 -12 61q0 59 40 103t98 44q69 0 115 -61zM333 391v12q-22 14 -33 14h-19q-1 -1 -1 -3q0 -11 12.5 -19.5t24.5 -8.5q11 0 16 5z
M383 80q-66 -27 -117 -27q-63 0 -124 43q-67 46 -67 106q0 5 -4.5 20t-4.5 24q0 7 10 73q-12 -15 -21.5 -44.5t-9.5 -49.5q0 -80 65 -135t146 -55q70 0 127 45zM374 821l144 -114l-24 -18l-130 81l-161 -81l-17 18z" />
    <glyph glyph-name="Aacute" unicode="&#xc1;" horiz-adv-x="818" 
d="M773 126q0 -56 -42 -92.5t-97 -36.5q-57 0 -89 39q-29 35 -29 93q0 43 12 107q10 53 20 107h-219q-22 -70 -44 -141q-30 -95 -65 -141q-49 -64 -125 -64q-37 0 -68.5 27.5t-31.5 63.5q0 34 34 34q57 0 57 -70q0 -18 -5 -35l20 -5q75 0 123 147l86 288q63 166 166 197
q-23 24 -103 24q-116 0 -195 -95q-75 -90 -75 -208q0 -64 19 -97.5t72 -62.5q-3 -1 -7.5 -4.5t-7.5 -3.5q-59 7 -94 72q-29 54 -29 114q0 116 92 209t208 96q146 3 204 -22q8 1 15 1q17 2 32 2q65 0 86 -23q-32 7 -71 7q2 0 -29 -3q61 -45 86 -78q33 -46 33 -109
q0 -59 -25 -173.5t-25 -172.5q0 -52 40 -52q46 0 60 63zM570 484q0 37 -20 87q-23 60 -54 60q-59 0 -108 -102q-33 -68 -53 -157l218 1q17 69 17 111zM652 461q1 7 1 14q0 38 -23 79t-53 56q51 -62 51 -131q0 -9 -1 -18l-32 -172q-20 -113 -20 -168q0 -26 18 -55t43 -29
q8 0 12 1q-21 10 -35.5 32.5t-14.5 46.5q0 50 21 170q17 87 33 174zM419 706l-8 16l165 105q23 14 38 11q10 -3 15.5 -13t2.5 -21q-4 -16 -26 -25z" />
    <glyph glyph-name="Edieresis" unicode="&#xcb;" horiz-adv-x="528" 
d="M508 532q0 -36 -19.5 -69.5t-50.5 -47.5q10 17 20.5 36t10.5 37q0 36 -31.5 61.5t-67.5 25.5q-54 0 -83 -38.5t-28 -91.5l9 -6l17 3q25 0 45 -11q24 -13 24 -36q0 -22 -25 -34q-19 -10 -44 -10q-59 0 -103 49q-31 -2 -56 -58q-21 -48 -21 -84q0 -65 67 -113
q61 -43 127 -43q65 0 113 33q54 37 54 98l-3 3q-4 0 -18 -2t-21 -2q-23 0 -39.5 12.5t-16.5 34.5q0 15 11.5 24t26.5 9q39 0 60 -37q18 -31 18 -73q0 -94 -78 -155q-72 -57 -168 -57q-103 0 -169 59q-69 62 -69 164q0 146 164 211q0 14 -5.5 40.5t-5.5 39.5q0 84 62 133
q56 44 141 44q58 0 105 -45.5t47 -103.5zM472 556q-8 32 -50 58q-38 24 -73 24q-59 0 -106 -45.5t-47 -103.5q0 -19 9 -44q11 -29 26 -36q-12 30 -12 61q0 59 40 103t98 44q69 0 115 -61zM333 391v12q-22 14 -33 14h-19q-1 -1 -1 -3q0 -11 12.5 -19.5t24.5 -8.5q11 0 16 5z
M383 80q-66 -27 -117 -27q-63 0 -124 43q-67 46 -67 106q0 5 -4.5 20t-4.5 24q0 7 10 73q-12 -15 -21.5 -44.5t-9.5 -49.5q0 -80 65 -135t146 -55q70 0 127 45zM294 805q19 0 32 -13.5t13 -32.5t-13.5 -32t-32.5 -13t-32 13.5t-13 32.5t13.5 32t32.5 13zM454 805
q19 0 32.5 -13.5t13.5 -32.5t-13.5 -32t-32.5 -13t-32 13.5t-13 32.5t13.5 32t31.5 13z" />
    <glyph glyph-name="Egrave" unicode="&#xc8;" horiz-adv-x="528" 
d="M508 532q0 -36 -19.5 -69.5t-50.5 -47.5q10 17 20.5 36t10.5 37q0 36 -31.5 61.5t-67.5 25.5q-54 0 -83 -38.5t-28 -91.5l9 -6l17 3q25 0 45 -11q24 -13 24 -36q0 -22 -25 -34q-19 -10 -44 -10q-59 0 -103 49q-31 -2 -56 -58q-21 -48 -21 -84q0 -65 67 -113
q61 -43 127 -43q65 0 113 33q54 37 54 98l-3 3q-4 0 -18 -2t-21 -2q-23 0 -39.5 12.5t-16.5 34.5q0 15 11.5 24t26.5 9q39 0 60 -37q18 -31 18 -73q0 -94 -78 -155q-72 -57 -168 -57q-103 0 -169 59q-69 62 -69 164q0 146 164 211q0 14 -5.5 40.5t-5.5 39.5q0 84 62 133
q56 44 141 44q58 0 105 -45.5t47 -103.5zM472 556q-8 32 -50 58q-38 24 -73 24q-59 0 -106 -45.5t-47 -103.5q0 -19 9 -44q11 -29 26 -36q-12 30 -12 61q0 59 40 103t98 44q69 0 115 -61zM333 391v12q-22 14 -33 14h-19q-1 -1 -1 -3q0 -11 12.5 -19.5t24.5 -8.5q11 0 16 5z
M383 80q-66 -27 -117 -27q-63 0 -124 43q-67 46 -67 106q0 5 -4.5 20t-4.5 24q0 7 10 73q-12 -15 -21.5 -44.5t-9.5 -49.5q0 -80 65 -135t146 -55q70 0 127 45zM495 706l8 16l-165 105q-23 14 -37 11q-10 -3 -15.5 -13t-3.5 -21q4 -16 27 -25z" />
    <glyph glyph-name="Iacute" unicode="&#xcd;" horiz-adv-x="536" 
d="M527 538l-54 -278q-43 -169 -138 -230q-24 -16 -68 -28t-78 -12q-68 0 -120 23q-73 32 -73 100q0 49 35 49q42 0 42 -51q0 -13 -8.5 -35t-19.5 -32q4 -10 20 -15q24 -8 41 -8q74 0 135.5 65t81.5 162q29 133 83 399q-2 2 -7 0q-8 -2 -12 -2q-22 0 -38 -6
q-90 -28 -139 -108q-42 -68 -42 -148q0 -56 20 -89q26 -43 95 -67q0 -6 -9 -6q-12 0 -35 10q-121 48 -121 167q0 96 73.5 173.5t184.5 88.5q2 1 13 3.5t16 2.5h60v-23q1 -7 -64 -322q-47 -229 -163 -291h-1q0 -1 1 -1.5t5 -0.5q31 0 89 61q52 56 59 82q11 35 33 117
q14 75 43 223q9 50 27 155h55q-3 -50 -22 -128zM379 706l-8 16l165 105q23 14 38 11q10 -3 15.5 -13t2.5 -21q-4 -16 -26 -25z" />
    <glyph glyph-name="Icircumflex" unicode="&#xce;" horiz-adv-x="536" 
d="M527 538l-54 -278q-43 -169 -138 -230q-24 -16 -68 -28t-78 -12q-68 0 -120 23q-73 32 -73 100q0 49 35 49q42 0 42 -51q0 -13 -8.5 -35t-19.5 -32q4 -10 20 -15q24 -8 41 -8q74 0 135.5 65t81.5 162q29 133 83 399q-2 2 -7 0q-8 -2 -12 -2q-22 0 -38 -6
q-90 -28 -139 -108q-42 -68 -42 -148q0 -56 20 -89q26 -43 95 -67q0 -6 -9 -6q-12 0 -35 10q-121 48 -121 167q0 96 73.5 173.5t184.5 88.5q2 1 13 3.5t16 2.5h60v-23q1 -7 -64 -322q-47 -229 -163 -291h-1q0 -1 1 -1.5t5 -0.5q31 0 89 61q52 56 59 82q11 35 33 117
q14 75 43 223q9 50 27 155h55q-3 -50 -22 -128zM434 841l144 -114l-24 -18l-130 81l-161 -81l-17 18z" />
    <glyph glyph-name="Idieresis" unicode="&#xcf;" horiz-adv-x="536" 
d="M527 538l-54 -278q-43 -169 -138 -230q-24 -16 -68 -28t-78 -12q-68 0 -120 23q-73 32 -73 100q0 49 35 49q42 0 42 -51q0 -13 -8.5 -35t-19.5 -32q4 -10 20 -15q24 -8 41 -8q74 0 135.5 65t81.5 162q29 133 83 399q-2 2 -7 0q-8 -2 -12 -2q-22 0 -38 -6
q-90 -28 -139 -108q-42 -68 -42 -148q0 -56 20 -89q26 -43 95 -67q0 -6 -9 -6q-12 0 -35 10q-121 48 -121 167q0 96 73.5 173.5t184.5 88.5q2 1 13 3.5t16 2.5h60v-23q1 -7 -64 -322q-47 -229 -163 -291h-1q0 -1 1 -1.5t5 -0.5q31 0 89 61q52 56 59 82q11 35 33 117
q14 75 43 223q9 50 27 155h55q-3 -50 -22 -128zM374 805q19 0 32 -13.5t13 -32.5t-13.5 -32t-32.5 -13t-32 13.5t-13 32.5t13.5 32t32.5 13zM534 805q19 0 32.5 -13.5t13.5 -32.5t-13.5 -32t-32.5 -13t-32 13.5t-13 32.5t13.5 32t31.5 13z" />
    <glyph glyph-name="Igrave" unicode="&#xcc;" horiz-adv-x="536" 
d="M527 538l-54 -278q-43 -169 -138 -230q-24 -16 -68 -28t-78 -12q-68 0 -120 23q-73 32 -73 100q0 49 35 49q42 0 42 -51q0 -13 -8.5 -35t-19.5 -32q4 -10 20 -15q24 -8 41 -8q74 0 135.5 65t81.5 162q29 133 83 399q-2 2 -7 0q-8 -2 -12 -2q-22 0 -38 -6
q-90 -28 -139 -108q-42 -68 -42 -148q0 -56 20 -89q26 -43 95 -67q0 -6 -9 -6q-12 0 -35 10q-121 48 -121 167q0 96 73.5 173.5t184.5 88.5q2 1 13 3.5t16 2.5h60v-23q1 -7 -64 -322q-47 -229 -163 -291h-1q0 -1 1 -1.5t5 -0.5q31 0 89 61q52 56 59 82q11 35 33 117
q14 75 43 223q9 50 27 155h55q-3 -50 -22 -128zM535 706l8 16l-165 105q-23 14 -37 11q-10 -3 -15.5 -13t-3.5 -21q4 -16 27 -25z" />
    <glyph glyph-name="Oacute" unicode="&#xd3;" horiz-adv-x="622" 
d="M610 398q0 -148 -99 -270q-107 -130 -257 -130q-126 0 -197 95q-61 83 -61 199q0 166 107.5 278t276.5 112q120 0 152 -73h-13q-25 48 -97 48q-137 0 -215 -122q-64 -98 -64 -220q0 -97 49 -160q55 -73 156 -73q169 0 220 219q-4 3 0 91q-6 61 -40 102q-37 44 -90 44
q-25 0 -53 -15.5t-38 -39.5q-11 -30 -13 -63q-5 -1 -8 -1q0 3 -2 13t-2 15q0 61 40 98q37 35 95 35q82 0 121 -60q32 -48 32 -122zM86 301q0 205 183 340q-109 -48 -168 -159q-48 -89 -48 -181q0 -103 53 -177q64 -90 179 -90q22 0 57 9q-138 9 -203 88q-53 65 -53 170z
M319 706l-8 16l165 105q23 14 38 11q10 -3 15.5 -13t2.5 -21q-4 -16 -26 -25z" />
    <glyph glyph-name="Ocircumflex" unicode="&#xd4;" horiz-adv-x="622" 
d="M610 398q0 -148 -99 -270q-107 -130 -257 -130q-126 0 -197 95q-61 83 -61 199q0 166 107.5 278t276.5 112q120 0 152 -73h-13q-25 48 -97 48q-137 0 -215 -122q-64 -98 -64 -220q0 -97 49 -160q55 -73 156 -73q169 0 220 219q-4 3 0 91q-6 61 -40 102q-37 44 -90 44
q-25 0 -53 -15.5t-38 -39.5q-11 -30 -13 -63q-5 -1 -8 -1q0 3 -2 13t-2 15q0 61 40 98q37 35 95 35q82 0 121 -60q32 -48 32 -122zM86 301q0 205 183 340q-109 -48 -168 -159q-48 -89 -48 -181q0 -103 53 -177q64 -90 179 -90q22 0 57 9q-138 9 -203 88q-53 65 -53 170z
M424 841l144 -114l-24 -18l-130 81l-161 -81l-17 18z" />
    <glyph glyph-name="Ograve" unicode="&#xd2;" horiz-adv-x="622" 
d="M610 398q0 -148 -99 -270q-107 -130 -257 -130q-126 0 -197 95q-61 83 -61 199q0 166 107.5 278t276.5 112q120 0 152 -73h-13q-25 48 -97 48q-137 0 -215 -122q-64 -98 -64 -220q0 -97 49 -160q55 -73 156 -73q169 0 220 219q-4 3 0 91q-6 61 -40 102q-37 44 -90 44
q-25 0 -53 -15.5t-38 -39.5q-11 -30 -13 -63q-5 -1 -8 -1q0 3 -2 13t-2 15q0 61 40 98q37 35 95 35q82 0 121 -60q32 -48 32 -122zM86 301q0 205 183 340q-109 -48 -168 -159q-48 -89 -48 -181q0 -103 53 -177q64 -90 179 -90q22 0 57 9q-138 9 -203 88q-53 65 -53 170z
M535 706l8 16l-165 105q-23 14 -37 11q-10 -3 -15.5 -13t-3.5 -21q4 -16 27 -25z" />
    <glyph glyph-name="Uacute" unicode="&#xda;" horiz-adv-x="703" 
d="M653 139q0 -47 -38 -92q-41 -48 -92 -48q-56 0 -85 46q-24 38 -24 91q0 5 7 51t7 50v12q-4 4 -6 1q-38 -96 -104 -165q-77 -79 -157 -79q-60 0 -94.5 40t-33.5 104l79 422q3 7 3 12q0 -1 -12 29q-5 3 -13.5 8.5t-17.5 5.5q-21 0 -39 -24.5t-17 -45.5v29q0 5 6 17
q9 17 10 19q21 57 113 57q42 0 72.5 -43t26.5 -86l-80 -402q12 -66 75 -66q94 0 170 177q39 93 58 183q19 76 55 229h51v-15q0 3 -55 -228t-55 -288q0 -103 74 -103q10 0 12 3q-2 9 -17 16q-19 8 -27 20q-15 23 -15 72q0 45 26 151q31 124 86 369h51v-23q0 2 -55.5 -231
t-55.5 -273q0 -30 5 -41q9 -21 39 -21q42 0 58 71q6 1 9 1v-12zM192 562q2 24 -18 56q-23 35 -51 32q11 -13 26 -36q14 -27 12 -60l-76 -407q-7 -24 15 -57q6 -9 29.5 -25.5t30.5 -16.5h25q-26 9 -49 39.5t-23 53.5q0 7 3 12zM289 706l-8 16l165 105q23 14 38 11
q10 -3 15.5 -13t2.5 -21q-4 -16 -26 -25z" />
    <glyph glyph-name="Ucircumflex" unicode="&#xdb;" horiz-adv-x="703" 
d="M653 139q0 -47 -38 -92q-41 -48 -92 -48q-56 0 -85 46q-24 38 -24 91q0 5 7 51t7 50v12q-4 4 -6 1q-38 -96 -104 -165q-77 -79 -157 -79q-60 0 -94.5 40t-33.5 104l79 422q2 4 2 9q0 9 -7 21q-10 18 -11 21q-4 -3 -6 -2q-9 6 -18 6q-21 0 -39 -24.5t-17 -45.5v29
q0 5 6 17q9 17 10 19q21 57 113 57q42 0 72.5 -43t26.5 -86l-80 -402q12 -66 75 -66q94 0 170 177q39 93 58 183q19 76 55 229h51v-15q0 3 -55 -228t-55 -288q0 -103 74 -103q10 0 12 3q-2 9 -17 16q-19 8 -27 20q-15 23 -15 72q0 45 26 151q31 124 86 369h51v-23
q0 2 -55.5 -231t-55.5 -273q0 -30 5 -41q9 -21 39 -21q42 0 58 71q6 1 9 1v-12zM192 562q2 24 -18 56q-23 35 -51 32q11 -13 26 -36q14 -27 12 -60l-76 -407q-7 -24 15 -57q6 -9 29.5 -25.5t30.5 -16.5h25q-26 9 -49 39.5t-23 53.5q0 7 3 12zM404 841l144 -114l-24 -18
l-130 81l-161 -81l-17 18z" />
    <glyph glyph-name="Ugrave" unicode="&#xd9;" horiz-adv-x="703" 
d="M653 139q0 -47 -38 -92q-41 -48 -92 -48q-56 0 -85 46q-24 38 -24 91q0 5 7 51t7 50v12q-4 4 -6 1q-38 -96 -104 -165q-77 -79 -157 -79q-60 0 -94.5 40t-33.5 104l79 422q2 4 2 9q0 9 -7 21q-10 18 -11 21q-4 -3 -6 -2q-9 6 -18 6q-21 0 -39 -24.5t-17 -45.5v29
q0 5 6 17q9 17 10 19q21 57 113 57q42 0 72.5 -43t26.5 -86l-80 -402q12 -66 75 -66q94 0 170 177q39 93 58 183q19 76 55 229h51v-15q0 3 -55 -228t-55 -288q0 -103 74 -103q10 0 12 3q-2 9 -17 16q-19 8 -27 20q-15 23 -15 72q0 45 26 151q31 124 86 369h51v-23
q0 2 -55.5 -231t-55.5 -273q0 -30 5 -41q9 -21 39 -21q42 0 58 71q6 1 9 1v-12zM192 562q2 24 -18 56q-23 35 -51 32q11 -13 26 -36q14 -27 12 -60l-76 -407q-7 -24 15 -57q6 -9 29.5 -25.5t30.5 -16.5h25q-26 9 -49 39.5t-23 53.5q0 7 3 12zM485 706l8 16l-165 105
q-23 14 -37 11q-10 -3 -15.5 -13t-3.5 -21q4 -16 27 -25z" />
    <glyph glyph-name="circumflex" unicode="&#x2c6;" horiz-adv-x="645" 
d="M324 841l144 -114l-24 -18l-130 81l-161 -81l-17 18z" />
    <glyph glyph-name="tilde" unicode="&#x2dc;" horiz-adv-x="497" 
d="M405 830h19q-8 -99 -74 -99q-28 0 -120 38q-15 6 -44 6q-21 0 -26 -7q-11 -10 -26 -42l-18 6q7 97 76 97q27 0 93 -25q53 -21 66 -21q25 0 33 10l12 14q8 11 9 23z" />
    <glyph glyph-name="macron" unicode="&#xaf;" horiz-adv-x="500" 
d="M396 802v-53h-292v53h292z" />
    <glyph glyph-name="macron" unicode="&#x2c9;" horiz-adv-x="500" 
d="M396 802v-53h-292v53h292z" />
    <glyph glyph-name="cedilla" unicode="&#xb8;" horiz-adv-x="500" 
d="M262 7l-20 -61q12 1 21 1q28 0 49.5 -15t21.5 -42q0 -38 -41 -58q-32 -15 -75 -15q-23 0 -51 6l4 27q21 -4 35 -4q64 0 64 43q0 31 -42 31q-11 0 -26 -3l27 90h33z" />
    <glyph glyph-name="Scaron" unicode="&#x160;" 
 />
    <glyph glyph-name="scaron" unicode="&#x161;" 
 />
    <glyph glyph-name="brokenbar" unicode="&#xa6;" 
 />
    <glyph glyph-name="Eth" unicode="&#xd0;" 
 />
    <glyph glyph-name="eth" unicode="&#xf0;" 
 />
    <glyph glyph-name="Yacute" unicode="&#xdd;" 
 />
    <glyph glyph-name="yacute" unicode="&#xfd;" 
 />
    <glyph glyph-name="Thorn" unicode="&#xde;" 
 />
    <glyph glyph-name="thorn" unicode="&#xfe;" 
 />
    <glyph glyph-name="minus" unicode="&#xad;" 
 />
    <glyph glyph-name="minus" unicode="&#x2212;" 
 />
    <glyph glyph-name="multiply" unicode="&#xd7;" 
 />
    <glyph glyph-name="onesuperior" unicode="&#xb9;" 
 />
    <glyph glyph-name="twosuperior" unicode="&#xb2;" 
 />
    <glyph glyph-name="threesuperior" unicode="&#xb3;" 
 />
    <glyph glyph-name="onehalf" unicode="&#xbd;" 
 />
    <glyph glyph-name="onequarter" unicode="&#xbc;" 
 />
    <glyph glyph-name="threequarters" unicode="&#xbe;" 
 />
    <glyph glyph-name="Lslash" unicode="&#x141;" 
 />
    <glyph glyph-name="lslash" unicode="&#x142;" 
 />
    <glyph glyph-name="HT" 
 />
    <glyph glyph-name="LF" 
 />
    <glyph glyph-name="nonmarkingreturn" 
 />
    <glyph glyph-name="Zcaron" unicode="&#x17d;" 
 />
    <glyph glyph-name="zcaron" unicode="&#x17e;" 
 />
    <glyph glyph-name="DLE" 
 />
    <glyph glyph-name="DC1" 
 />
    <glyph glyph-name="DC2" 
 />
    <glyph glyph-name="DC3" 
 />
    <glyph glyph-name="DC4" 
 />
    <glyph glyph-name="RS" 
 />
    <glyph glyph-name="US" 
 />
    <glyph glyph-name="notequal" unicode="&#x2260;" horiz-adv-x="14" 
 />
    <glyph glyph-name="infinity" unicode="&#x221e;" horiz-adv-x="14" 
 />
    <glyph glyph-name="lessequal" unicode="&#x2264;" horiz-adv-x="11" 
 />
    <glyph glyph-name="greaterequal" unicode="&#x2265;" horiz-adv-x="17" 
 />
    <glyph glyph-name="partialdiff" unicode="&#x2202;" horiz-adv-x="309" 
d="M194 675l-106 -676h-73q11 12 25 37q17 90 34 198l-73 -35l6 41l74 36q11 66 56 369q1 13 -10 30h67zM223 338l70 35l-6 -45l-71 -35l-37 -254q-4 -23 15 -40h-76l105 676h65q-14 -12 -17 -30q-21 -123 -48 -307z" />
    <glyph glyph-name="summation" unicode="&#x2211;" horiz-adv-x="501" 
d="M459 204q0 -61 -45 -121q-60 -80 -200 -80q-65 0 -130 33q-87 43 -87 119q0 19 11 37q12 22 33 22q19 0 31 -18q9 -15 9 -32q0 -19 -9 -39q-2 -4 -14 -17.5t-12 -18.5q0 -26 59 -45q44 -14 69 -14q59 0 102 30q51 34 51 97q0 59 -64 107q-59 42 -119 84q-63 57 -63 138
q0 101 98 160q48 29 136 29q50 0 89 -23q48 -28 48 -79q0 -50 -37 -50q-40 0 -40 46q0 18 10 36q9 13 18 27q-14 26 -69 26q-50 0 -87.5 -37t-37.5 -84q0 -59 65 -106q60 -42 120 -83q65 -59 65 -144zM403 199q0 62 -55 111l-110 76q-65 47 -79 101q-6 21 -6 25q0 42 31 97
q-51 -41 -51 -112t64 -122q60 -40 121 -79q64 -50 64 -118q0 -23 -13 -56.5t-28 -52.5q30 23 47 64q15 35 15 66zM290 709l-144 115l24 17l130 -81l161 81l17 -17z" />
    <glyph glyph-name="product" unicode="&#x220f;" horiz-adv-x="383" 
d="M330 125q0 -74 -67 -107q-46 -24 -109 -24q-85 0 -154 39v68q65 -78 161 -78q80 0 80 50q0 29 -58 45q-94 25 -108 32q-58 28 -58 89q0 74 61 109q46 25 112 25q60 0 82 -10q10 -5 40 -16l11 -70q-59 71 -135 71q-72 0 -72 -52q0 -18 29 -31q22 -10 41 -11q18 -7 51 -18
q93 -23 93 -111zM295 110q0 58 -59 79q-53 14 -107 28q-58 20 -57 78q-13 -20 -13 -33q0 -49 58 -69q53 -15 107 -30q57 -24 58 -83q13 23 13 30zM193 409l-122 97l20 15l111 -68l137 68l14 -15z" />
    <glyph glyph-name="pi" unicode="&#x3c0;" horiz-adv-x="623" 
d="M668 630q-7 -4 -9 -3q-8 13 -16 13q-17 0 -29 -34q-17 -46 -48 -292q-26 -211 -89 -310q-91 -144 -292 -144q-76 0 -140 34q-83 42 -83 119q0 24 14 52q18 38 46 38q12 0 23.5 -15t11.5 -24q0 -34 -39 -58t-39 -26q0 -17 33 -46q30 -27 43 -31q40 -11 61 -11
q124 0 204 103q71 91 92 236l-3 16q-96 -166 -196 -166q-40 0 -72 25q-40 29 -48 82q-1 6 -1 52q0 55 13 150t13 139q0 33 -5 64q2 2 7 3.5t7 3.5q-1 0 -16 3q-9 18 -27 25q-27 10 -29 12q-20 -7 -39 -46q-1 7 11 39q0 -7 6 -7q4 4 -4 12q35 44 87 44q92 0 129 -85
q8 -20 8 -68l-28 -284q0 -41 14.5 -60t54.5 -19q52 0 88 66q33 59 53 169q26 142 37 178q16 51 50 79t74 28q56 0 72 -56zM598 657h-17q-12 -9 -28 -25q-35 -70 -48 -160q-25 -175 -29 -195q-12 -64 -24 -127q-16 -75 -45 -125q-38 -66 -109 -115q62 18 105 74q59 77 90 244
q17 124 35 248q14 76 35 134q10 26 35 47zM54 644v13h-6v-13h6zM257 133q-59 17 -75 46q-9 16 -9 61l24 298q0 56 -15 82q-3 5 -24 19.5t-26 13.5h-15q41 -34 50 -59q6 -14 6 -59l-28 -304q0 -40 19 -71q25 -36 68 -36q9 0 25 9zM279 696l-8 16l165 105q23 14 38 11
q10 -3 15.5 -13t2.5 -21q-4 -16 -26 -25z" />
    <glyph glyph-name="integral" unicode="&#x222b;" horiz-adv-x="407" 
d="M397 367q-11 -11 -26 -20q-6 -3 -17 -26q-1 -2 -69 -180q-50 -130 -98 -195q-67 -90 -150 -90q-32 0 -59 16q-32 19 -32 48q0 22 26 37q23 12 47 12q28 0 55 -20q-6 0 -18.5 1.5t-18.5 1.5q-56 0 -56 -41q0 -30 41 -30q59 0 59 80q0 46 -6 81q-15 85 -38 284
q-2 15 -27 42l75 -1l50 -366q4 -30 -9 -82q18 12 26 40q7 25 4 48l-51 360h74q-6 -8 -4 -41q3 -39 35 -288q13 25 109 283q3 6 3 13q0 5 -14 33h89zM99 406l-8 16l165 105q23 14 38 11q10 -3 15.5 -13t2.5 -21q-4 -16 -26 -25z" />
    <glyph glyph-name="Omega" unicode="&#x3a9;" horiz-adv-x="553" 
d="M389 42q-130 9 -193 88q-52 66 -52 171q0 206 169 331q-97 -43 -152 -152q-46 -89 -46 -179q0 -102 53 -176q63 -89 177 -89q22 0 44 6zM32 430h46q39 114 135.5 183t226.5 69q120 0 152 -73l-20 -9q-28 53 -101 53q-103 0 -171 -70q-57 -57 -82 -153l207 1l-20 -54h-197
q-5 -30 -5 -59l203 -1l-19 -53l-180 -1q11 -83 56 -134q51 -59 138 -59q51 0 124 43q4 3 4.5 -8.5t3.5 -8.5q-98 -98 -219 -98q-117 0 -188 84q-61 73 -69 182l-72 -1l20 55l52 -1q1 31 7 60h-52z" />
    <glyph glyph-name="Omega" unicode="&#x2126;" horiz-adv-x="553" 
d="M389 42q-130 9 -193 88q-52 66 -52 171q0 206 169 331q-97 -43 -152 -152q-46 -89 -46 -179q0 -102 53 -176q63 -89 177 -89q22 0 44 6zM32 430h46q39 114 135.5 183t226.5 69q120 0 152 -73l-20 -9q-28 53 -101 53q-103 0 -171 -70q-57 -57 -82 -153l207 1l-20 -54h-197
q-5 -30 -5 -59l203 -1l-19 -53l-180 -1q11 -83 56 -134q51 -59 138 -59q51 0 124 43q4 3 4.5 -8.5t3.5 -8.5q-98 -98 -219 -98q-117 0 -188 84q-61 73 -69 182l-72 -1l20 55l52 -1q1 31 7 60h-52z" />
    <glyph glyph-name="radical" unicode="&#x221a;" horiz-adv-x="20" 
 />
    <glyph glyph-name="approxequal" unicode="&#x2248;" horiz-adv-x="23" 
 />
    <glyph glyph-name="approxequal" unicode="&#x22f2;" horiz-adv-x="23" 
 />
    <glyph glyph-name="Delta" unicode="&#x394;" horiz-adv-x="17" 
 />
    <glyph glyph-name="Delta" unicode="&#x2206;" horiz-adv-x="17" 
 />
    <glyph glyph-name="lozenge" unicode="&#x25ca;" horiz-adv-x="17" 
 />
    <glyph glyph-name="fraction" unicode="&#x2044;" horiz-adv-x="20" 
 />
    <glyph glyph-name="fi" unicode="&#xf001;" horiz-adv-x="17" 
 />
    <glyph glyph-name="fl" unicode="&#xf002;" horiz-adv-x="17" 
 />
    <glyph glyph-name="apple" unicode="&#xf000;" 
 />
    <glyph glyph-name="dotlessi" unicode="&#x131;" horiz-adv-x="234" 
d="M204 367q-6 -5 -10.5 -10t-6.5 -14q-18 -105 -46 -315q-4 -18 9 -28h-66l52 367h68zM112 369l-55 -369h-68q14 10 17 24l48 318q4 13 -6 27h64z" />
    <glyph glyph-name="breve" unicode="&#x2d8;" horiz-adv-x="500" 
d="M331 813h23q-8 -104 -113 -104q-106 0 -116 104h24q11 -62 91 -62t91 62z" />
    <glyph glyph-name="dotaccent" unicode="&#x2d9;" horiz-adv-x="500" 
d="M249 838q25 0 42 -17t17 -42t-17 -42t-42 -17t-42 18t-17 42q0 25 17.5 41.5t41.5 16.5z" />
    <glyph glyph-name="ring" unicode="&#x2da;" horiz-adv-x="560" 
d="M294 862q32 0 55.5 -19.5t23.5 -50.5q0 -36 -25.5 -58.5t-62.5 -22.5q-33 0 -55.5 20t-22.5 52q0 35 25.5 57t61.5 22zM293 840q-22 0 -34.5 -17.5t-12.5 -40.5q0 -49 40 -49q23 0 35.5 18t12.5 41q0 48 -41 48z" />
    <glyph glyph-name="hungarumlaut" unicode="&#x2dd;" horiz-adv-x="500" 
d="M179 719l-10 9l90 115q14 18 28 18q21 0 21 -24q0 -12 -14 -24zM282 719l-10 9l90 115q14 18 28 18q21 0 21 -24q0 -12 -15 -24z" />
    <glyph glyph-name="ogonek" unicode="&#x2db;" horiz-adv-x="565" 
d="M297 0h35q-63 -36 -63 -87q0 -30 21 -47t51 -17q22 0 46 13l11 -23q-39 -23 -83 -23q-43 0 -73 19q-36 23 -36 63q0 64 91 102z" />
    <glyph glyph-name="caron" unicode="&#x2c7;" horiz-adv-x="606" 
d="M290 709l-144 115l24 17l130 -81l161 81l17 -17z" />
    </font>
</defs>
</svg>
