<?xml version="1.0" standalone="no"?>
<!DOCTYPE svg PUBLIC "-//W3C//DTD SVG 1.1//EN" "http://www.w3.org/Graphics/SVG/1.1/DTD/svg11.dtd" >
<svg>
<metadata>
Created by FontForge 20120731 at Tue Apr 16 16:34:27 2019
 By www-data
Digitized by Dan X. Solo. Software (c) 2000 by Dover Publications, Inc., New York.
</metadata>
<defs>
<font id="Allegro" horiz-adv-x="236" >
  <font-face 
    font-family="Allegro"
    font-weight="400"
    font-stretch="normal"
    units-per-em="1000"
    panose-1="0 0 4 0 0 0 0 0 0 0"
    ascent="800"
    descent="-200"
    x-height="482"
    cap-height="678"
    bbox="-31 -227.037 859 851"
    underline-thickness="20"
    underline-position="-123"
    unicode-range="U+0020-F002"
  />
<missing-glyph horiz-adv-x="500" 
d="M63 0v800h375v-800h-375zM125 63h250v675h-250v-675z" />
    <glyph glyph-name=".notdef" horiz-adv-x="500" 
d="M63 0v800h375v-800h-375zM125 63h250v675h-250v-675z" />
    <glyph glyph-name="glyph1" horiz-adv-x="0" 
 />
    <glyph glyph-name="glyph2" 
 />
    <glyph glyph-name="space" unicode=" " 
 />
    <glyph glyph-name="exclam" unicode="!" horiz-adv-x="231" 
d="M208 614q0 -43 -25 -150q-19 -81 -31 -114q-16 -55 -52 -155l-7 2q-5 2 -7 -2q-11 23 -24.5 131t-13.5 185q0 68 11 101q22 71 91 71q31 0 47 -25q11 -19 11 -44zM156 94q0 -42 -20 -71q-23 -34 -63 -34q-57 0 -57 69q0 37 16 65q21 36 65 36q25 0 42 -21t17 -44z" />
    <glyph glyph-name="quotedbl" unicode="&#x22;" horiz-adv-x="281" 
d="M198 427q-6 12 -12 71q-6 56 -6 98q0 35 6 53q12 41 52 41q36 0 36 -42q0 -31 -22 -109q-21 -74 -38 -112h-16zM68 427q-6 12 -12 71q-6 56 -6 98q0 35 6 53q12 41 52 41q36 0 36 -42q0 -31 -22 -109q-21 -74 -38 -112h-16z" />
    <glyph glyph-name="numbersign" unicode="#" horiz-adv-x="453" 
d="M184 232h98l8 150h-99zM390 123h-85l-8 -122h-32l9 122h-99l-8 -122h-32l9 122h-81q1 33 11 109h78l8 150h-83q2 33 12 108h80l6 100h32l-7 -100h99l6 100h32l-7 -100l84 1l-10 -109h-83l-7 -150l85 1z" />
    <glyph glyph-name="dollar" unicode="$" horiz-adv-x="331" 
d="M159 411l10 129q-22 -7 -40 -19t-18 -20q0 -3 48 -90zM157 173l-9 -130q18 2 40.5 13t22.5 23zM173 592h16l-3 -34q12 1 26 1q8 3 16 3q24 0 39 -20t15 -47q0 -9 -1 -17q-5 -25 -10 -33q-9 -13 -28 -10q-43 6 -43 46q0 10 3 24q0 14 9 39q-12 2 -27 0l-12 -159
q55 -99 81 -148q18 -35 18 -72q0 -93 -91 -130q-8 -3 -34 -6l-4 -45h-16l4 45q-3 0 -8 1.5t-7 1.5q-46 0 -81.5 32.5t-35.5 75.5q0 26 15.5 43t41.5 17q28 0 47 -27q15 -22 15 -45q0 -46 -36 -69q5 -9 50 -16l11 154q-57 102 -89 165q-11 22 -11 49q0 47 31 86q35 43 96 58z
" />
    <glyph glyph-name="percent" unicode="%" horiz-adv-x="552" 
d="M504 252q0 -256 -145 -256q-29 0 -49 20t-23 51q-2 25 -3 60q7 90 22 131q26 69 89 81l-33 -322q-1 -10 8 -10q26 0 27 15l35 302q1 9 -21 9q-2 0 -1 3q2 4 1 6q3 5 16 5q26 0 38 -11q19 0 30 -34q9 -25 9 -50zM387 590h25l-270 -592h-25zM254 502q0 -256 -145 -256
q-29 0 -49 20t-23 51q-2 25 -3 60q7 90 22 131q26 69 89 81l-33 -322q-1 -10 8 -10q26 0 27 15l35 302q1 9 -21 9q-2 0 -1 3q2 4 1 6q3 5 16 5q26 0 38 -11q19 0 30 -34q9 -25 9 -50z" />
    <glyph glyph-name="ampersand" unicode="&#x26;" horiz-adv-x="551" 
d="M495 97q0 -9 -53 -50q-74 -58 -125 -58q-25 0 -29 4q-14 12 -21 16q-1 1 -15 35q-65 -58 -122 -58q-62 0 -93 76q-21 54 -21 115q0 68 41 118q28 35 99 82l7 -18q-2 -3 -22 -15q-11 -7 -11 -19q0 -21 28 -144q34 -144 36 -157q56 31 53 46q-18 74 -52 238
q-36 173 -36 189q0 66 46 120q50 58 121 58q46 0 74 -28t28 -71q0 -38 -26 -69q-23 -26 -83 -65q14 -85 53 -281q61 71 61 80q0 -2 -15.5 36.5t-15.5 58.5q0 22 13 55q16 40 40 53q12 0 23 -34q8 -27 8 -44q0 -61 -28 -117q-18 -36 -52 -75q-28 -32 -28 -36q0 -18 21 -100
q87 52 87 79q9 -8 9 -20zM407 573q0 85 -84 85q-26 0 -19 1q-12 -2 -25 -13q8 -55 35 -184q93 47 93 111z" />
    <glyph glyph-name="quotesingle" unicode="'" horiz-adv-x="165" 
d="M68 427q-6 12 -12 71q-6 56 -6 98q0 35 6 53q12 41 52 41q36 0 36 -42q0 -31 -22 -109q-21 -74 -38 -112h-16z" />
    <glyph glyph-name="parenleft" unicode="(" horiz-adv-x="239" 
d="M249 681q-61 0 -71 -35l-44 -625q-2 -6 -2 -12q0 -24 36 -24q8 0 23 5.5t19 5.5q1 -1 1 -2q0 -3 -2 -6q-1 -2 1 -6q-4 -6 -50 -13q-41 -7 -57 -7q-66 0 -85 62q-10 31 -10 117q0 187 27 351q34 207 221 207q-3 -3 -3 -10.5t-4 -7.5z" />
    <glyph glyph-name="parenright" unicode=")" horiz-adv-x="309" 
d="M15 -20q61 0 71 35l44 625q2 6 2 11q0 25 -36 25q-8 0 -23 -5.5t-19 -5.5q-2 0 -2 2q0 3 3 6q1 2 -1 5q4 7 50 14q41 7 57 7q66 0 85 -63q10 -31 10 -116q0 -187 -27 -352q-34 -206 -221 -206q3 3 3 10.5t4 7.5z" />
    <glyph glyph-name="asterisk" unicode="*" horiz-adv-x="354" 
d="M168 538q-6 38 -6 79q0 56 35 56q22 0 22 -25q0 -35 -28 -112q73 58 105 58q11 0 20.5 -7.5t9.5 -18.5q0 -30 -125 -53q107 -42 107 -76q0 -27 -22 -27q-27 0 -98 84q6 -38 6 -79q0 -56 -35 -56q-22 0 -22 25q0 34 28 112q-73 -58 -105 -58q-11 0 -20.5 7.5t-9.5 18.5
q0 30 125 53q-107 42 -107 76q0 27 23 27q26 0 97 -84z" />
    <glyph glyph-name="plus" unicode="+" horiz-adv-x="482" 
d="M213 105v187h-188v54h188v187h53v-187h188v-54h-188v-187h-53z" />
    <glyph glyph-name="comma" unicode="," horiz-adv-x="209" 
d="M151 84q0 -50 -28 -105q-27 -50 -67 -86q-13 7 -13 13q0 3 19 25q12 13 23 27q7 13 23 42l2 12q-39 -23 -52 -23q-27 0 -43 23q-15 20 -15 48q0 41 21 71q23 35 63 35q67 0 67 -82z" />
    <glyph glyph-name="hyphen" unicode="-" horiz-adv-x="230" 
d="M185 176h-189l10 94l188 -1z" />
    <glyph glyph-name="hyphen" unicode="&#x2010;" horiz-adv-x="230" 
d="M185 176h-189l10 94l188 -1z" />
    <glyph glyph-name="period" unicode="." horiz-adv-x="215" 
d="M159 94q0 -32 -19 -67q-23 -44 -60 -44q-30 0 -49.5 20.5t-19.5 52.5q0 47 21 80q23 37 63 37q30 0 49 -31q15 -24 15 -48z" />
    <glyph glyph-name="slash" unicode="/" horiz-adv-x="275" 
d="M270 618h25l-291 -654h-25z" />
    <glyph glyph-name="zero" unicode="0" horiz-adv-x="420" 
d="M366 426q0 -178 -37 -277q-57 -150 -203 -150q-52 0 -85 26t-37 76q3 7 1 61q-1 59 -1 65q10 147 35 212q41 112 146 131l-55 -537q-1 -15 12 -15q24 0 31 2q13 5 16 23l58 502q1 14 -13 16q-2 1 -27 1q-2 0 -1 3q3 6 1 9q7 6 38 6q56 0 91 -50q30 -45 30 -104z" />
    <glyph glyph-name="one" unicode="1" horiz-adv-x="360" 
d="M310 17v-16h-253v17h56l41 522q-35 -28 -104 -79q-4 5 -4 10q0 2 123 119h119l-37 -573h59z" />
    <glyph glyph-name="two" unicode="2" horiz-adv-x="420" 
d="M351 454q0 -93 -80 -179q-70 -74 -188 -131l-17 14l32 14q20 10 27 23q25 43 37 97q61 262 61 273q0 10 -7 10q-3 0 -8.5 -2t-6.5 -2q-42 0 -46 -12.5t-3 -19.5q2 -13 2 -25q0 -56 -31 -99q-27 -37 -70 -56h-11q-10 15 -10 58q0 73 53 122.5t131 49.5q61 0 98 -39t37 -96
zM371 178q-17 -59 -43 -177h-323v14q0 6 31 112q152 -3 296 0q4 14 9 26q11 27 22 33z" />
    <glyph glyph-name="three" unicode="3" horiz-adv-x="424" 
d="M363 469q0 -98 -112 -160q107 -39 107 -139q0 -73 -61.5 -125t-136.5 -52q-28 0 -37 11q7 5 37 5q14 0 20 37t12 116q5 75 12 115l-22 12q-11 0 -43 -9v13q8 9 32 13.5t32 13.5l26 248l-15 6q-27 0 -44 -9l1 -20q1 -44 -27 -93q-31 -54 -72 -54l-8 1l-4 10
q0 86 43.5 134.5t130.5 47.5q58 -1 93.5 -33t35.5 -89zM139 87q0 -31 -16.5 -53t-46.5 -22q-35 0 -60 34q-22 30 -22 67q0 29 20 50.5t49 21.5q33 0 56 -33q20 -30 20 -65z" />
    <glyph glyph-name="four" unicode="4" horiz-adv-x="427" 
d="M376 150l-3 -17h-65l-7 -114h63l-3 -18h-260l3 19h60l9 113h-174l225 457h113l-29 -438zM199 492l-166 -340h143z" />
    <glyph glyph-name="five" unicode="5" horiz-adv-x="412" 
d="M363 245q0 -86 -47 -162q-57 -91 -146 -91q-29 0 -31 3l9 13l27 3q12 2 14 23q32 265 32 331v16q-2 6 -15 6q-66 0 -135 -117q-5 -3 -11 -3l33 324h266l-14 -117h-244l-19 -157q33 42 48 55q41 33 96 33q137 0 137 -160zM152 69q0 -66 -72 -66q-41 0 -63 47
q-16 33 -16 61q0 31 17.5 50.5t47.5 19.5q42 0 66 -43q20 -34 20 -69z" />
    <glyph glyph-name="six" unicode="6" horiz-adv-x="421" 
d="M374 503q0 -27 -17 -47t-44 -20q-35 0 -56.5 31t-21.5 67q0 28 16 45.5t44 17.5q31 0 55 -31t24 -63zM374 247q0 -94 -53 -169q-58 -82 -147 -82q-91 0 -132 92q-30 66 -30 172q0 301 224 330l-3 -15q-14 -2 -38 -13q0 -1 -44 -538q11 -10 28 -10q19 0 33 7
q27 256 27 318l-9 3l-32 -21l-8 8q7 19 34 30q22 9 45 9q43 0 74 -39t31 -82z" />
    <glyph glyph-name="seven" unicode="7" horiz-adv-x="356" 
d="M361 591q-69 -121 -110 -280q-27 -101 -54 -278q-1 -9 -2 -32h-172q20 52 61 146q27 53 101 186q63 112 63 117.5t7 17.5h-179q-27 0 -35 -49h-15q0 17 6 94.5t6 76.5z" />
    <glyph glyph-name="eight" unicode="8" horiz-adv-x="429" 
d="M227 284q0 4 -10 15q-17 5 -51 0q-7 -95 -24 -282q9 -2 41 -2q13 0 20 11q7 47 16 153q8 95 8 105zM366 198q0 -88 -62.5 -143.5t-152.5 -55.5q-65 0 -107.5 44.5t-42.5 109.5q0 51 26 93t71 62l-50 46q-18 22 -18 67q0 153 156 172l-20 -254q-1 -9 10 -15l6 -3
q6 -3 12 -3q16 0 32 13q5 4 12 115q5 96 6 130q-7 4 -40 1l3 16q8 4 23 4q136 0 136 -115q0 -95 -93 -154q49 -20 71 -49t22 -81z" />
    <glyph glyph-name="nine" unicode="9" horiz-adv-x="418" 
d="M366 382q0 -92 -30 -194q-37 -126 -97 -161q-48 -28 -62 -28h-36l-7 16h30q25 0 40 11q0 1 5 79q6 87 8 128q-58 -11 -80 -11q-49 0 -76 36q-26 33 -26 84q0 240 150 251l-28 -338l17 -10q46 0 49 24q9 83 20 307q-12 4 -36 7v13l33 1q126 4 126 -215zM153 86
q0 -27 -19.5 -50.5t-46.5 -23.5q-36 0 -61 35q-22 32 -22 69q0 77 68 77q35 0 59 -37q22 -33 22 -70z" />
    <glyph glyph-name="colon" unicode=":" horiz-adv-x="221" 
d="M172 403q0 -26 -5 -44t-28 -38.5t-43 -20.5q-31 0 -48 27q-14 22 -14 55q0 35 18 65q23 37 59 37q61 0 61 -81zM159 94q0 -32 -19 -67q-23 -44 -60 -44q-30 0 -49.5 20.5t-19.5 52.5q0 47 21 80q23 37 63 37q30 0 49 -31q15 -24 15 -48z" />
    <glyph glyph-name="semicolon" unicode=";" horiz-adv-x="212" 
d="M171 408q0 -38 -22 -71q-24 -37 -60 -37q-31 0 -49 24q-17 21 -17 53q0 39 24.5 74.5t60.5 35.5q31 0 47 -23.5t16 -55.5zM151 84q0 -50 -28 -105q-26 -50 -67 -86q-13 5 -13 13q0 1 33.5 42t33.5 64q-39 -23 -52 -23q-27 0 -43 23q-15 20 -15 48q0 41 21 71q23 35 63 35
q67 0 67 -82z" />
    <glyph glyph-name="less" unicode="&#x3c;" horiz-adv-x="395" 
d="M49 262l270 171l25 -34l-212 -135l209 -134l-22 -38z" />
    <glyph glyph-name="equal" unicode="=" horiz-adv-x="465" 
d="M23 213h413v-35h-413v35zM23 333h413v-35h-413v35z" />
    <glyph glyph-name="greater" unicode="&#x3e;" horiz-adv-x="373" 
d="M344 262l-270 -170l-25 34l213 135l-210 134l22 38z" />
    <glyph glyph-name="question" unicode="?" horiz-adv-x="285" 
d="M275 572q0 -55 -41 -125q-1 -1 -78 -112q-41 -60 -41 -92q0 -23 13 -32q10 -7 43 -12q-5 -13 -10 -13q-67 0 -67 57q15 161 31 322q3 38 4 90q-38 -16 -58 -39q-15 -17 -33 -55q-1 -1 -2 -1q-3 0 -9 7q-1 37 47.5 77t91.5 40q48 0 78.5 -32.5t30.5 -79.5zM196 86
q0 -38 -23.5 -67.5t-58.5 -29.5q-31 0 -47 24q-12 19 -12 45q0 39 18 68q21 33 59 33q29 0 46.5 -21.5t17.5 -51.5z" />
    <glyph glyph-name="at" unicode="@" horiz-adv-x="16" 
 />
    <glyph glyph-name="A" unicode="A" horiz-adv-x="590" 
d="M545 14l-3 -13q21 0 -70 0h-129h-70q4 4 1 8t2 4h52q34 216 29 223l-102 -1q-34 -72 -68 -145q-53 -95 -112 -95q-44 0 -75 32.5t-31 76.5q0 32 26.5 55.5t59.5 23.5t53 -24.5t20 -57.5q0 -40 -25 -60l-30 -20l18 -2q47 -3 117 143q50 104 114 292q36 111 73 222h6
q-9 0 132 9l-51 -672zM391 581q-2 1 -5 1q-4 0 -7 -1q-10 -21 -64 -183q-50 -149 -52 -147q2 2 94 0q1 0 34 330z" />
    <glyph glyph-name="B" unicode="B" horiz-adv-x="557" 
d="M515 544q0 -106 -124 -159q3 -7 34.5 -24.5t47.5 -43.5q25 -41 25 -113q0 -88 -48 -148q-52 -63 -139 -64q-61 -1 -75 9v16q24 -12 62 -12q17 0 17 5q0 1 -1 2l32 340q0 5 -4 12t-9 7q-10 0 -29 -5.5t-28 -5.5q0 6 -1 14q22 2 68 17q5 7 13 117q9 119 11 132q5 25 -40 28
l-22 1q-38 3 -45 -15q0 -1 -4 -54l-47 -601q-71 0 -213 -1l3 14h60l62 646q-36 -11 -62 -12l-1 16q118 22 232 22q225 0 225 -140z" />
    <glyph glyph-name="C" unicode="C" horiz-adv-x="394" 
d="M393 597q0 -41 -19 -73q-23 -39 -60 -39q-67 0 -67 96q0 32 25.5 66.5t55.5 34.5q65 0 65 -85zM357 74q-46 -33 -106 -56q-66 -26 -116 -26h-35q-41 0 -67 51q-22 42 -22 87q0 101 20 227q24 157 64 213q22 31 72 61t89 39l-5 -15q-13 -7 -39 -20q-4 -71 -27 -303
q-19 -189 -19 -304q0 -13 12 -13q30 0 89 27q46 24 91 47z" />
    <glyph glyph-name="D" unicode="D" horiz-adv-x="537" 
d="M483 416q0 -135 -33 -251q-47 -167 -144 -167h-23h-52q-1 2 3 15h46l58 637q-44 18 -78 18l-62 -669l-198 -1l-1 16l49 -1l65 655q-43 -8 -64 -9l-1 9l4 6q62 11 164 14q125 5 194 -64q73 -71 73 -208z" />
    <glyph glyph-name="E" unicode="E" horiz-adv-x="446" 
d="M411 604q0 -39 -21 -71q-25 -36 -62 -36q-23 0 -44.5 27t-21.5 52q0 43 17 73q20 36 57 36q35 0 55 -23.5t20 -57.5zM405 174q-18 -90 -97 -140q-74 -47 -177 -45q-142 2 -137 111q6 129 43 183q29 41 102 63q-57 19 -74.5 43.5t-17.5 81.5q0 111 78 171q52 40 145 40
q10 0 0 -14l-44 -6q-35 -270 -35 -307q46 21 87 16l-3 -15q-37 -4 -45 -6q-26 -6 -42 -18q4 0 -17 -164t-20 -164q88 0 116 29q16 17 33.5 59.5t30.5 56.5q23 27 64 27z" />
    <glyph glyph-name="F" unicode="F" horiz-adv-x="453" 
d="M447 675q-9 -37 -23 -119h-340q-10 -15 -12 -37q-2 -26 -4 -34h-19q-7 16 20 102q19 59 40.5 74t83.5 15q87 0 254 -1zM406 337h-64l-17 -224q-13 -70 -80 -100q-44 -21 -91 -19l-41 1l7 12q4 3 22 5q15 2 27 24q7 82 27 303h-59v16h63l3 66q4 59 56 87q22 12 98 29
q-4 -56 -15 -185h64v-15zM133 88q0 -36 -20 -59.5t-54 -23.5q-32 0 -50 31q-15 25 -15 58q0 25 12 48q16 31 46 33q40 3 60.5 -21.5t20.5 -65.5z" />
    <glyph glyph-name="G" unicode="G" horiz-adv-x="460" 
d="M404 605q0 -39 -22 -74q-26 -43 -70 -43q-25 0 -44 23t-19 51q0 42 25 77q28 39 69 39q61 0 61 -73zM416 368q-5 -100 -10 -201q-11 -137 -49 -208q-51 -95 -158 -95q-120 0 -153 29l10 14q53 -28 129 -28q40 0 53 16q7 65 15 130q11 106 11 146q0 15 -1 22
q-36 -87 -62 -126q-49 -72 -111 -79q-86 -8 -86 144q0 2 5 48q3 38 0 47q26 190 56 272q62 168 190 171v-14q-31 -5 -50 -18l-52 -593q50 44 84 144q28 81 35 163h12q60 -1 132 16z" />
    <glyph glyph-name="H" unicode="H" horiz-adv-x="534" 
d="M534 674l-4 -12h-54l-48 -649h59l-2 -13h-243l2 12h40l28 353h-104l-23 -347h40v-17l-237 -1l2 14h56l47 646h-61l2 16l240 -2l-1 -12h-44l-19 -275l104 -1l17 276h-38l3 12h238z" />
    <glyph glyph-name="I" unicode="I" horiz-adv-x="301" 
d="M297 659h-58l-45 -644h61l-3 -17h-253l4 16h47l52 645h-63l3 19h257z" />
    <glyph glyph-name="J" unicode="J" horiz-adv-x="435" 
d="M392 664q-13 -204 -51 -634q-5 -21 -14 -54q-41 -101 -160 -101q-29 0 -48 8q0 2 6 6t6 6q38 -6 57 -4q11 104 65 766q-37 -5 -67 -5q5 4 1.5 10t0.5 6q157 16 169 16h20q14 -3 15 -20zM143 -33q0 -23 -14 -46q-16 -27 -39 -27q-36 0 -66 41q-27 38 -27 76
q0 26 15.5 46.5t43.5 21.5q41 2 67 -44q20 -35 20 -68z" />
    <glyph glyph-name="K" unicode="K" horiz-adv-x="532" 
d="M510 610q0 -45 -32.5 -80.5t-77.5 -35.5q-46 0 -63 78q-21 -23 -47 -108q-33 -106 -38 -118q115 19 131 19q22 0 39 -17t17 -39q0 -52 -10 -134q-9 -66 -17 -133q17 4 68 46l3 -13q-24 -25 -73 -52q-53 -28 -84 -28q-57 0 -57 49q0 46 12.5 137.5t12.5 136.5q0 18 -13 18
q-4 0 -33 -6q-18 -80 -75 -195q-71 -143 -125 -143q-34 0 -34 56q0 102 24 299q26 205 28 300q-5 4 -15 4q-7 0 -20.5 -3t-18.5 -4l-5 5l1 6q20 8 82 18.5t87 10.5q21 0 29 -6t8 -27q0 -89 -17 -235q-20 -186 -23 -236q11 24 61 179q48 146 85 218q56 106 114 106
q33 0 54.5 -20t21.5 -53z" />
    <glyph glyph-name="L" unicode="L" horiz-adv-x="460" 
d="M425 610q0 -38 -20 -64t-53 -26q-20 0 -39 24t-20 47q-2 36 11 62q18 35 56 35q34 0 52 -28q13 -21 13 -50zM297 683l-4 -16q-21 0 -45 -9l-11 -229q-3 -62 -5 -82q-5 -40 -18 -80q-10 -30 -54 -70q-47 -41 -80 -46l-27 -2q17 14 20 45q0 4 5.5 48t5.5 48l11 215
q4 78 54 126q10 9 53 27t57 18zM408 128q-23 -127 -101 -127h-304v21q0 2 9 42q10 48 14 66h342q20 0 25 12q4 20 7 40h16q0 -10 -8 -54z" />
    <glyph glyph-name="M" unicode="M" horiz-adv-x="880" 
d="M825 52q-14 -13 -51 -30q-80 -37 -127 -37q-28 0 -37 25q-4 12 -4 45l42 549l-233 -610q-10 3 -13 0l-36 615q-1 0 -2.5 3.5t-2.5 3.5q-4 -27 -10 -57q-15 -66 -45 -216q-23 -129 -65 -265q-32 -105 -142 -105q-47 0 -73 26.5t-26 66.5q0 37 28 60q24 20 57 20
q36 0 66 -27t30 -61q0 -11 -4 -21q-1 -6 3 -15q24 12 48 91q25 83 54 220q18 78 54 238q16 75 16 69q0 5 1 11v8q-3 2 -8 2q-6 0 -23.5 -5.5t-28.5 -6.5l-3 16q5 5 75 13l94 10q26 4 27 -18q0 -27 12 -181q12 -149 12 -193q50 127 140 364q81 8 145 28l-46 -643
q0 -11 14 -11q4 0 24 12q27 16 35 20q3 -5 3 -14z" />
    <glyph glyph-name="N" unicode="N" horiz-adv-x="685" 
d="M685 676v-16l-59 -1q-8 -157 -28 -454q-5 -66 -14 -206q-36 3 -133 0q-89 296 -137 449q-34 109 -45 135q-1 3 -3 5q-7 -101 -14 -186q-17 -204 -31 -297q-9 -54 -37 -86q-32 -37 -83 -36q-45 2 -72.5 33.5t-27.5 75.5q0 36 23 55t58 19q23 0 45.5 -24.5t24.5 -49.5
q4 -53 3 -63q1 -2 4 -6q26 24 40 98q13 67 38 371l13 157l-64 -11l-2 14l180 34q23 0 29 -21q20 -68 178 -575l37 569l-59 1v15z" />
    <glyph glyph-name="O" unicode="O" horiz-adv-x="487" 
d="M436 520q0 -157 -27 -322q-16 -94 -95 -153q-75 -56 -173 -56q-10 0 -29.5 1t-28.5 1q-59 0 -74 60q-6 22 -6 107q0 121 32 321q19 118 102 167q43 26 51 26q5 0 9 -2l-48 -650q-1 -14 12 -14q45 0 84 28l44 636q-4 6 -13 6q-8 0 -23 -5.5t-19 -5.5q-2 0 -2 2q0 3 3 6
q1 2 -1 5q4 7 50 14q41 7 57 7q66 0 85 -63q10 -30 10 -116z" />
    <glyph glyph-name="P" unicode="P" horiz-adv-x="524" 
d="M504 561q0 -87 -33 -157q-37 -80 -107 -116q-30 -15 -45 -15h-70v16q12 -3 23 -3q35 0 31 0q22 3 26 8t6 29q7 76 15 152q9 90 9 153q-8 11 -14 11q-14 0 -62 -82q-44 -76 -52 -102q-5 -15 -9 -61q-11 -130 -28 -379l23 1l43 -1l1 -14h-269l5 14h51l50 611q1 1 1 9
q0 14 -14 14q-8 0 -21 -4l-21 -7l-5 12q0 1 2.5 5t85 24t96.5 20q22 0 22 -37q0 -28 -6.5 -84.5t-6.5 -84.5q11 18 32 62q19 41 35 62q30 43 55 59q30 18 79 18q39 0 58 -50q14 -37 14 -83z" />
    <glyph glyph-name="Q" unicode="Q" horiz-adv-x="489" 
d="M408 -73q0 -70 -62 -70q-4 0 -13 5.5t-14 6.5q-17 4 -34 38q-15 31 -15 52q0 23 17.5 43t44.5 20q36 0 58 -35q18 -29 18 -60zM436 520q0 -157 -27 -322q-16 -94 -95 -153q-75 -56 -173 -56q-10 0 -29.5 1t-28.5 1q-59 0 -74 60q-6 22 -6 107q0 121 32 321
q19 118 102 167q43 26 51 26q5 0 9 -2l-48 -650q-1 -14 12 -14q45 0 84 28l44 636q-4 6 -13 6q-8 0 -23 -5.5t-19 -5.5q-2 0 -2 2q0 3 3 6q1 2 -1 5q4 7 50 14q41 7 57 7q66 0 85 -63q10 -30 10 -116z" />
    <glyph glyph-name="R" unicode="R" horiz-adv-x="580" 
d="M527 72q-105 -75 -173 -75q-46 0 -46 56l24 271q-10 0 -34 -7q-27 -8 -36 -10q0 14 2 16q24 4 71 26q9 106 21 318q-23 6 -63 6q-6 0 -35 -6l-47 -652q6 -2 25.5 0.5t31.5 -0.5l-3 -14h-255q2 5 0 10q-2 4 -1 4h54q3 -1 56 621l1 24q-25 -1 -64 -7q-1 2 1.5 7.5t2.5 6.5
q14 8 115 15l120 8q48 6 102 -15q59 -22 80 -62q20 -36 20 -87q0 -120 -98 -168q-10 -4 -23 -10q8 -4 20 -11q28 -12 48 -35q26 -29 24 -60q-2 -35 -13 -110q-10 -69 -10 -81q0 -6 1 -6q6 0 78 45q3 -3 3 -18z" />
    <glyph glyph-name="S" unicode="S" horiz-adv-x="413" 
d="M370 565q0 -27 -17.5 -47.5t-43.5 -20.5q-46 0 -73 47q-21 37 -21 75q0 61 50 61q43 0 75 -40q30 -36 30 -75zM238 8q-34 -13 -87 -13q-60 0 -106.5 43.5t-46.5 99.5q0 32 20.5 54.5t52.5 22.5q37 0 67 -42q26 -36 26 -66q0 -59 -44 -87q4 -9 64 -9q20 0 52 15
q36 17 36 32q0 1 -74 129q-85 148 -129 237q-15 30 -15 66q0 59 36 109.5t91 63.5l7 -13q-47 -21 -47 -44q0 -3 65 -122q86 -157 121 -222q24 -47 24 -95q0 -114 -113 -159z" />
    <glyph glyph-name="T" unicode="T" horiz-adv-x="408" 
d="M394 673q-18 -73 -26 -128l-312 1q-26 0 -32 -15q-6 -21 -11 -42q-3 1 -11 -2q-6 -2 -6 2q0 97 40 141t131 44zM366 93q0 -59 -65 -88q-46 -21 -100 -21q-55 0 -103 35q-57 41 -62 107q-1 22 -1 49q0 141 28 216q18 48 59 86.5t89 48.5q0 -1 -37 -478q-3 -36 9 -43
q6 -4 45 -4q30 0 39 10q-10 11 -20 21q-16 16 -16 42q0 32 26 59t53 27q26 0 41 -21.5t15 -45.5z" />
    <glyph glyph-name="U" unicode="U" horiz-adv-x="501" 
d="M447 29q1 0 -62 -19.5t-81 -19.5q-38 0 -51 15q-10 11 -10 40l21 235q0 7 4 50q-35 -98 -70 -168q-84 -169 -153 -172q-40 -1 -40 52l45 581q0 11 -4 12q10 -2 -11 -2q-4 0 -16 -4t-20 -6q4 14 1 17q17 8 79 25q66 19 84 19q24 0 24 -45l-31 -497q5 0 14 7
q114 228 114 343q0 26 6 72q6 53 7 73q45 12 136 48l-48 -660q20 7 62 20v-16z" />
    <glyph glyph-name="V" unicode="V" horiz-adv-x="474" 
d="M443 510q0 -37 -19 -111q-64 -253 -208 -369q-50 -40 -83 -40q-29 0 -36 34q-2 21 -4 43l-38 569q-1 0 -2.5 1.5t-5.5 1.5q-1 0 -40 -17q-1 4 -5 12q12 8 76 29.5t78 21.5q32 0 34 -21q6 -57 9 -125q14 -292 29 -460q8 -8 11 -8q9 3 26 23q77 94 110 189q50 143 50 196
l2 40l-6 6q-23 -21 -28 -24q-14 -9 -32 -9q-40 0 -60 43q-15 31 -15 68q0 28 24 54.5t53 26.5q80 0 80 -174z" />
    <glyph glyph-name="W" unicode="W" horiz-adv-x="748" 
d="M721 564q0 -85 -28 -167q-38 -112 -116 -239q-23 -37 -71 -91q-68 -77 -100 -77q-17 0 -21 21q-12 103 -27 215q-2 0 -7 -12t-5 -13q-29 -58 -47 -89t-59 -73q-51 -51 -77 -51q-11 0 -18.5 12t-6.5 22q-5 42 -96 617q-15 -6 -43 -18q-4 4 -4 12q24 10 78 29q67 24 81 24
q22 0 26 -4l3 -12q16 -87 40 -273q36 -280 37 -286q1 -11 7 -11q5 0 12 8q16 21 39 67q32 63 32 92q-14 113 -53 379q-16 -6 -57 -25l-2 8q2 11 64.5 34t91.5 23q30 0 33 -14q20 -107 42 -279q27 -213 38 -280q9 -9 14 -5q8 6 29 39q101 156 139 286q14 49 14 77q1 8 -2 22
q-25 -38 -62 -38q-38 0 -63 40q-20 32 -20 62q0 28 21 57q24 33 54 33q50 0 74 -50q16 -33 16 -72z" />
    <glyph glyph-name="X" unicode="X" horiz-adv-x="641" 
d="M602 644q0 -63 -83 -97q-12 -3 -34 -12q-12 -6 -65 -134q2 -20 48 -170q43 -142 55 -172q4 -12 18 -12l48 19q2 -7 2 -12q0 -1 -1 -4q-129 -64 -161 -64q-19 0 -26.5 8t-12.5 28q-13 48 -63 213q-116 -245 -211 -246l-23 -1q-33 0 -60.5 24.5t-27.5 58.5q0 42 22 70
q27 32 77 32q30 0 49.5 -21.5t19.5 -50.5q0 -48 -36 -86q2 -1 5 -1q14 0 37 20q18 18 28 34q30 49 60 99q48 81 48 91q0 9 -51.5 180.5t-59.5 191.5q-3 5 -15 5t-44 -12q-1 8 -5 11q7 7 82 34q28 9 91 17q2 0 16 -3q6 -1 11 -14q7 -25 20 -74q23 -81 52 -172q54 131 105 208
q19 28 33.5 36.5t51.5 15.5v-38z" />
    <glyph glyph-name="Y" unicode="Y" horiz-adv-x="508" 
d="M472 658q0 -3 -21 -228q-15 -142 -39 -427q-8 -108 -205 -146l6 16q12 1 21 3q22 5 29 16q2 3 17 217q15 207 16 238q-3 -1 -12 -26q-5 -14 -10 -29q-38 -89 -45 -104q-22 -45 -55 -88q-79 -99 -116 -99q-30 0 -30 25l53 613q0 12 -1 13q-1 5 -11 5q-4 0 -19 -6.5
t-33 -5.5l-4 8q-2 5 1 6q110 33 158 33q26 0 37.5 -7.5t11.5 -31.5l-36 -471q1 -1 1 -9t5 -8q8 0 28 47l24 58q75 162 76 393q80 -4 153 26v-31zM221 -72q0 -30 -26.5 -56.5t-53.5 -26.5t-50 17q-26 19 -26 46q0 37 25 59t62 22q32 0 52 -21q17 -18 17 -40z" />
    <glyph glyph-name="Z" unicode="Z" horiz-adv-x="495" 
d="M197 642q0 -34 -23 -71q-27 -45 -65 -45q-21 0 -35 16t-14 36q0 35 20 69q27 45 73 45q20 0 32 -15t12 -35zM95 357h75q75 156 125 276q6 10 6 16q0 8 -9 8h-79q-2 3 -2 5q0 3 2 8l257 -1l-148 -312h77l-7 -14h-77l-151 -319q2 -3 7 -9h99q31 0 35 8q-3 10 -3 22
q0 43 30 82.5t69 39.5q21 0 36 -26q11 -20 11 -35q0 -41 -28 -77q-31 -39 -70 -39q-25 0 -38 11h-314l165 342h-77z" />
    <glyph glyph-name="bracketleft" unicode="[" horiz-adv-x="177" 
d="M187 700h-58l-55 -735h61l-3 -17h-136l57 769q-11 -3 136 1z" />
    <glyph glyph-name="backslash" unicode="\" horiz-adv-x="322" 
d="M4 618h-25l291 -654h25z" />
    <glyph glyph-name="bracketright" unicode="]" 
d="M-2 -34h58l55 736h-60l2 16h136l-56 -769q11 3 -137 -1z" />
    <glyph glyph-name="asciicircum" unicode="^" horiz-adv-x="501" 
d="M248 759l-135 -35l-4 21l150 78v-2l1 2l121 -81l-9 -20z" />
    <glyph glyph-name="underscore" unicode="_" horiz-adv-x="436" 
d="M-3 -86h439v-44h-439v44z" />
    <glyph glyph-name="grave" unicode="`" horiz-adv-x="590" 
d="M386 716q-65 56 -152 122q-7 3 -15 3q-22 0 -39 -29q-3 -6 -3 -12q0 -20 22 -37h1q-1 0 -3 2q92 -30 183 -60z" />
    <glyph glyph-name="a" unicode="a" horiz-adv-x="408" 
d="M171 430q0 -32 -22 -68q-25 -40 -55 -40q-25 0 -39 20q-14 17 -14 43q0 41 20 74q23 39 62 39q48 0 48 -68zM378 52q-24 -27 -67 -43q-35 -12 -62 -12q-40 0 -40 45l6 72q-7 1 -13 -11q-9 -17 -9 -18l-44 -50q-47 -42 -100 -42q-49 0 -49 71q0 93 52 153t144 60
q1 -3 1 -11q0 -5 -2 -2q-9 0 -24 -2q-8 -1 -12 -7q-16 -118 -16 -185q2 -2 12 4q16 9 38 40.5t23 45t15 182.5q6 83 5 85q-5 13 -14 13q-6 0 -29 -16l-3 9q8 18 50 33q37 13 62 13q60 0 56 -53l-34 -382q3 -6 10 -6q16 0 44 29v-15z" />
    <glyph glyph-name="b" unicode="b" horiz-adv-x="403" 
d="M366 367q0 -26 -9 -90q-17 -121 -70 -184q-33 -40 -92.5 -68t-111.5 -28q-23 0 -41 9q-22 11 -22 32q0 7 1 19l32 428q2 45 8 136q-4 8 -12 8q-3 0 -43 -21l-1 16q7 2 67 30q44 20 68 20q16 0 30 -12t13 -28l-47 -593q-1 -12 6 -14h18q12 0 26.5 13t16.5 25q5 32 8 83
q5 81 5 83q2 17 11 86q8 57 8 82q0 13 -3 20v0q0 3 -5 2q-3 0 -27 -23l-7 8q64 67 112 67q61 0 61 -106z" />
    <glyph glyph-name="c" unicode="c" horiz-adv-x="358" 
d="M327 428q0 -36 -21 -67q-23 -35 -56 -35q-20 0 -33 25q-12 21 -12 43q0 35 17 66q20 38 52 38q53 0 53 -70zM317 119q-68 -65 -100 -85q-58 -37 -124 -37q-53 0 -73 40q-13 27 -13 87q0 14 6 77.5t9 69.5q7 77 59 132q49 53 126 73l-2 -17q-22 0 -28 -17q-7 -20 -23 -199
q-16 -175 -16 -213q5 -8 13 -8q21 0 79 45q45 33 75 63q5 -7 12 -11z" />
    <glyph glyph-name="d" unicode="d" horiz-adv-x="397" 
d="M359 39q-6 -2 -64 -26q-40 -16 -66 -16q-39 0 -39 53q0 29 4 65q-27 -29 -55 -58q-56 -57 -91 -57q-56 0 -51 94q8 145 24.5 220.5t73.5 118.5q45 33 83 41l21 5l1 -14l-22 -3q-15 -1 -19 -14q-6 -18 -20 -176q-13 -149 -13 -183q0 -9 8 -9q11 0 62 63q21 258 40 481
q-3 4 -15 4q-10 0 -32 -11q-3 7 -1 17q102 40 128 40q16 0 29 -10.5t11 -24.5l-49 -583q7 -16 16 -16q4 0 36 16q1 -2 1 -5q0 -5 -1 -12z" />
    <glyph glyph-name="e" unicode="e" horiz-adv-x="384" 
d="M353 373q0 -19 -3 -31q-24 -93 -198 -145q-16 -118 -16 -172q0 -6 5 -14.5t11 -8.5q24 0 43 18q8 21 17 41q17 42 30 56q42 46 94 45v-14q0 -23 -37.5 -69.5t-61.5 -58.5q-63 -33 -127 -33q-100 0 -100 76q0 79 6 127q15 113 18 123q16 67 61 107q21 18 62 31q29 7 57 15
l-2 -14q-11 -5 -22 -9q-15 -8 -16 -22q-4 -35 -23 -206l62 22l24 230q11 6 24 6q34 0 63 -32t29 -68z" />
    <glyph glyph-name="f" unicode="f" horiz-adv-x="248" 
d="M158 502q-52 4 -53 81q0 34 15 59q18 29 47 29q28 0 44.5 -24t16.5 -56q0 -34 -18 -61q-21 -31 -52 -28zM223 400q-14 -3 -52 0q-15 -134 -35 -404l-52 2q-40 0 -64 -11l31 416h-45l2 15q36 -2 45 0q6 59 13 118q5 44 18 45q5 -8 1 -18q-5 -14 -5 -29q0 -28 20 -66
q33 -61 125 -54z" />
    <glyph glyph-name="g" unicode="g" horiz-adv-x="408" 
d="M368 483l-58 -508q-4 -33 -58.5 -71t-93.5 -38q-15 -2 -25 11q-12 -5 -27 -11q-96 0 -96 59q0 22 17.5 36.5t40.5 15.5q35 2 57 -16q25 -21 25 -64l8 -15h13q20 -1 20 56q0 27 12.5 122t12.5 112q-31 -53 -63 -107q-46 -63 -100 -63q-46 0 -46 84q0 167 35 256
q53 137 174 132q4 -8 0 -15q-23 -10 -25 -10q-23 0 -31 -96q-2 -28 -14 -110q-10 -66 -10 -109q0 -29 19 -34q37 58 51 103q12 37 23 113l21 156q39 0 118 11z" />
    <glyph glyph-name="h" unicode="h" horiz-adv-x="409" 
d="M387 52q-14 -23 -66 -44q-48 -18 -80 -18q-51 0 -44 52l20 128q14 88 13 107q9 64 -2 72q-27 -9 -59 -159q-29 -132 -30 -194q-70 11 -123 0l51 635l-6 2q-22 -12 -37 -16l-7 8q14 12 69 33q48 18 73 24q17 4 28 -10t11 -32q0 -6 -1.5 -11t-17 -179.5t-14.5 -174.5v-33
q18 82 60 151q49 82 100 82q19 0 30.5 -14.5t8.5 -33.5l-42 -362q-3 -29 13 -29q12 0 27 12q20 15 25 17v-13z" />
    <glyph glyph-name="i" unicode="i" horiz-adv-x="215" 
d="M199 598q0 -31 -21 -55t-50 -21q-53 5 -60 65q-4 34 19.5 61.5t54.5 22.5q26 -4 41.5 -25t15.5 -48zM191 47q-7 -10 -55.5 -29.5t-68.5 -19.5q-19 0 -27 4t-9 5q-17 21 -17 46l32 357q0 15 -1 16q-2 6 -15 6q-3 0 -17.5 -7.5t-18.5 -8.5l1 13q101 52 136 52q41 0 41 -30
l-32 -382q-1 -19 -2 -17q1 -8 11 -8q7 0 44 22q-1 -5 -2 -19z" />
    <glyph glyph-name="j" unicode="j" horiz-adv-x="228" 
d="M208 609q4 -31 -16 -59.5t-49 -28.5q-27 0 -45 22t-18 49q0 30 20 55.5t47 25.5q25 0 41.5 -19t19.5 -45zM186 440q0 -29 -20 -253q-19 -220 -21 -222q-4 -45 -57 -71q-46 -24 -112 -27v12q9 1 18 1q18 2 23 17q5 74 19 224q9 98 27 290q0 24 0 22q-1 3 -12 4
q-8 -4 -42 -14q0 13 1 15q7 6 56 25q54 21 69 21q22 0 36.5 -12.5t14.5 -31.5z" />
    <glyph glyph-name="k" unicode="k" horiz-adv-x="406" 
d="M375 32q-94 -39 -135 -39q-45 0 -45 46l28 214q0 9 -11 9q-13 0 -33.5 -13t-21.5 -20q-8 -80 -23 -232q-50 6 -56 6q-2 0 -24 -3t-39 -3l56 631q0 8 -12 8q2 0 -42 -14q-2 7 2 17q11 5 58 19q53 16 68 16q16 0 31 -8q18 -11 18 -30q-11 -119 -34 -383q25 14 62 38
q0 68 4 92q6 48 30 83q15 24 54 24q19 0 32 -7q31 -18 31 -69q0 -82 -66 -82q-25 0 -57 44q-13 -11 -11 -81q2 -2 18.5 3t19.5 5q69 0 69 -42l-27 -201q-2 0 0 -16t21 -14q10 5 35 15q2 -9 0 -13z" />
    <glyph glyph-name="l" unicode="l" horiz-adv-x="226" 
d="M204 45q-94 -48 -145 -48q-40 0 -40 40l43 571q0 19 -11 19q-5 0 -48 -14l2 17q93 48 142 48q31 0 37 -14q1 -4 1 -35l-39 -539q-1 -6 -2 -11q-2 -10 -2 -16q0 -24 20 -20q7 2 42 17v-15z" />
    <glyph glyph-name="m" unicode="m" horiz-adv-x="632" 
d="M600 39q-72 -47 -132 -47q-56 0 -52 42l29 303q2 14 -4 14q-5 0 -13 -12q-66 -114 -83 -195q-12 -54 -15 -147l-57 4l-54 -6l29 335q2 21 -6 21q-5 0 -11 -10q-65 -111 -77 -197q-2 -18 -13 -148l-65 6l-53 -6l32 443q-6 -1 -48 -19l1 13q100 53 135 53q38 0 34 -40
l-23 -233q56 127 74 159q63 111 119 111q22 0 22 -29q0 -2 -16 -202q1 -4 -2 -22.5t-3 -20.5t1 -5q108 279 193 279q31 0 29 -25l-35 -416q-2 -15 11 -15q3 0 26.5 11.5t26.5 12.5v-12z" />
    <glyph glyph-name="n" unicode="n" horiz-adv-x="429" 
d="M273 -8q65 0 133 44v15l-46 -22q-23 0 -13 32q2 0 29 382q2 40 -22 40q-56 0 -119 -111q-18 -32 -74 -159l23 233q4 40 -34 40q-34 0 -139 -55l-3 -16l38 14q18 -5 14 -27q-2 -9 -30 -402q52 12 118 0q11 134 19 172q15 68 67 164q7 14 15 15q5 -6 4 -27l-23 -282
q-4 -50 43 -50z" />
    <glyph glyph-name="o" unicode="o" horiz-adv-x="396" 
d="M362 323q0 -124 -51 -214q-62 -111 -176 -111q-48 0 -83 21q-41 24 -43.5 67t-2.5 88q0 41 9 85q17 83 46 125q33 48 106 81l-40 -400q-2 -21 -2 -23q0 -25 25 -25q38 0 48 37q4 35 8 69q9 63 18 228q1 11 4 47q3 29 3 46q0 24 -19 24q-8 0 -16 -4l-8 -4q-2 0 -2 4
q0 3 1 8q28 14 71 14q104 0 104 -163z" />
    <glyph glyph-name="p" unicode="p" horiz-adv-x="425" 
d="M381 347q0 -104 -32 -202q-45 -135 -128 -147q-20 -1 -39 1.5t-14 2.5q1 4 4 10q14 -3 21 -3q17 0 19 17q30 230 33 356q1 5 1 9q0 11 -10 11q-59 -66 -73 -241l-22 -288q-48 5 -88 1q-28 -2 -22 -2l-18 -6l48 562q1 19 -11 19q-10 0 -46 -27q-2 0 0 5q1 5 -1 7
q3 15 59 36t85 21q30 0 36 -21q1 -6 -1 -48l-8 -94q16 37 47 84q50 76 91 76t59 -59q10 -35 10 -80z" />
    <glyph glyph-name="q" unicode="q" horiz-adv-x="396" 
d="M361 482l-55 -613l-43 3q-26 -4 -88 -16q6 89 28 290q-63 -154 -137 -154q-37 0 -55 38q-16 33 -11 71q5 65 22 196q12 73 53 122q47 56 114 54l11 -1v-12q-21 -5 -29 -22q-6 -52 -17 -161q-2 -15 -11 -99q-8 -61 -8 -98q0 -3 5 -6t7 1q46 76 64 176q8 48 19 188
q1 19 -1 26q-4 2 28 2t104 15z" />
    <glyph glyph-name="r" unicode="r" horiz-adv-x="352" 
d="M331 487q0 -40 -21 -81q-25 -48 -59 -48q-22 0 -36.5 19t-14.5 41q0 30 17 68q24 51 63 51q19 0 35 -16t16 -34zM181 446l-42 -445l-27 2q-57 9 -107 -6q0 -10 49 425q0 27 -10 27q-9 0 -22 -7.5t-23 -4.5v10q78 41 136 41q46 0 46 -42z" />
    <glyph glyph-name="s" unicode="s" horiz-adv-x="334" 
d="M313 417q0 -57 -50 -57q-31 0 -55 36q-21 32 -21 61q0 22 14.5 38t38.5 16q28 0 52 -36q21 -32 21 -58zM291 137q0 -28 -8 -47q-18 -43 -69 -71q-45 -25 -88 -25q-53 0 -92 39.5t-39 90.5q0 56 47 56q43 0 68 -60q11 -25 11 -53q0 -16 -6 -51q10 -5 16 -5q15 0 41 6
q31 8 34 18q-7 56 -93 164q-82 104 -82 153q0 29 20 66t42 45q11 6 21 12q23 12 48 12q5 0 6 -3.5t2 -7.5q-25 0 -52 -16q-1 -12 1 -18q11 -37 96 -150q76 -100 76 -155z" />
    <glyph glyph-name="t" unicode="t" horiz-adv-x="244" 
d="M240 444l-1 -16l-64 1l-27 -358q-3 -27 -3 -23q0 -16 17 -16q4 0 20 10q20 12 26 14q1 -2 5 -13q-18 -16 -67 -33.5t-73 -17.5q-52 0 -52 48l32 387l-51 1l2 16h53l11 136h23q63 0 94 9l-10 -144z" />
    <glyph glyph-name="u" unicode="u" horiz-adv-x="425" 
d="M383 41q1 -1 -41 -20.5t-48.5 -19.5t-24 -5t-26.5 -5q-10 0 -19 4q-15 8 -17 28q0 1 1 32q3 28 11 104q-49 -81 -71 -109q-46 -56 -89 -56q-27 0 -33 13q-4 7 -4 33l32 382q2 6 2 11q0 11 -13 9q-13 -8 -41 -24q3 12 0 15q19 20 60.5 34.5t80.5 14.5q34 0 34 -36
q0 -9 -3 -22l-20 -287q-2 -31 10 -31q3 0 7.5 7t17.5 26t32 63q12 47 18 160q2 52 4 105q6 -1 23 -2t22 -1q16 0 84 14l-33 -410v-17q0 -13 15 -12q10 6 29 18q-3 -16 0 -16z" />
    <glyph glyph-name="v" unicode="v" horiz-adv-x="384" 
d="M346 337q0 -91 -31 -172q-41 -110 -123 -146q-67 -29 -85 -29q-4 0 -23.5 -1t-23.5 -1q-21 0 -33 18q-10 14 -10 32l39 393q0 17 -13 17q-4 0 -19 -6.5t-25 -8.5l-4 8q72 44 131 44q54 0 54 -52l-40 -392q4 -18 22 -15q49 6 98 68q60 76 69 214q3 13 -2 41q-6 -8 -19 -22
q-16 -17 -37 -17q-13 0 -26 7.5t-26 34t-13 44.5q0 36 15 62q17 30 52 30q73 0 73 -151z" />
    <glyph glyph-name="w" unicode="w" horiz-adv-x="588" 
d="M270 -12q-18 0 -31 16t-12 34l12 116l-78 -100q-56 -69 -97 -69q-20 0 -31 15t-9 36l39 385q2 19 -17 19q-18 0 -42 -17q-3 0 -3 5q0 19 64 40q60 19 79 15q45 -8 42 -41l-29 -301q-3 -39 7 -39q14 0 76 79q8 94 26 284l119 9l-28 -388q-1 -7 0 -16q1 -10 1 -15
q0 -27 12 -27q48 0 100 66q33 42 53 108q18 62 18 120q0 5 -4 27q-31 -39 -56 -39q-27 0 -47 31q-18 27 -18 55q0 36 15 62q18 30 52 30q73 0 73 -146q0 -156 -65 -248q-75 -106 -221 -106z" />
    <glyph glyph-name="x" unicode="x" horiz-adv-x="411" 
d="M393 409q0 -21 -15.5 -38t-36.5 -17q-33 0 -55 37q-19 32 -16 60q7 51 49 51q32 0 55 -36q19 -30 19 -57zM371 50l-66 -32q-46 -21 -73 -21q-33 0 -39 18q-12 30 -30 109q-60 -130 -113 -130q-63 0 -63 61q0 32 21 60t52 28q41 0 52 -57q6 1 24 28.5t18 37.5
q0 15 -74 263q-3 10 -15 10q-3 0 -21 -9q-22 -10 -25 -11q-1 6 -5 14q33 19 66 37q49 25 75 25q15 0 23 -8q16 -16 29 -71q15 -64 31 -89q8 10 20 32q12 26 19 36q12 -12 12 -16l-47 -85l73 -237q26 6 53 25z" />
    <glyph glyph-name="y" unicode="y" horiz-adv-x="419" 
d="M366 456q0 -41 -6 -113q-8 -92 -9 -113q-6 -76 -17 -233q-4 -48 -76 -80q-53 -23 -117 -29l-31 -3q-2 7 0 15q14 0 33 4q26 6 33 7q21 15 25.5 36t8.5 68q8 102 8 127q0 4 2.5 18t1.5 21l-20 -40q-87 -141 -141 -141q-39 0 -35 49l32 375q1 15 -11 15q-15 0 -44 -17
q1 0 1 8q0 3 -3 4q6 12 61 31q52 17 71 17q51 0 48 -43l-23 -284q-1 -6 -1 -10q0 -10 8 -10q6 0 11 3q35 41 49 95q1 42 11 130q9 82 9 108q9 -3 23 -3q60 0 100 14q0 -4 -1 -13t-1 -13z" />
    <glyph glyph-name="z" unicode="z" horiz-adv-x="387" 
d="M141 445q0 -34 -29.5 -71t-60.5 -35q-35 2 -35 54q0 32 22.5 61.5t58.5 33.5q16 2 30 -13.5t14 -29.5zM346 105q0 -53 -36 -80q-31 -25 -83 -25h-224l194 457q-23 6 -40 3v14q154 7 175 -3l-195 -456h75q34 0 34 11q-17 20 -17 55q0 31 21.5 57t52.5 26q43 -1 43 -59z
" />
    <glyph glyph-name="braceleft" unicode="{" horiz-adv-x="295" 
d="M284 697q-66 -7 -65 -57l-12 -200q-14 -38 -57.5 -65t-92.5 -29q111 -29 131 -119l-12 -201q-1 -5 -1 -9q0 -40 57 -56l-3 -16h-72q-33 4 -40 16l-20 50l16 203q-13 93 -88 132q79 29 106 115l13 185q10 22 20 45q16 23 52 24q17 -1 70 0z" />
    <glyph glyph-name="bar" unicode="|" 
d="M98 717h50v-759h-50v759z" />
    <glyph glyph-name="braceright" unicode="}" horiz-adv-x="295" 
d="M28 -37q66 7 64 57l13 200q13 38 57 65t93 29q-112 29 -132 119l13 201q1 4 1 9q0 40 -57 55l3 17h72q33 -4 40 -16q10 -25 19 -50l-15 -203q13 -93 87 -132q-78 -29 -105 -115l-14 -185q-9 -22 -19 -45q-16 -23 -53 -24q-17 1 -70 0z" />
    <glyph glyph-name="asciitilde" unicode="~" horiz-adv-x="519" 
d="M190 786q-36 -5 -67 -48l-13 6q15 46 33 66q24 28 64 28q21 0 67.5 -23.5t69.5 -23.5q58 8 82 40l14 -2q-30 -91 -110 -91q-21 0 -74.5 24.5t-65.5 23.5z" />
    <glyph glyph-name="Adieresis" unicode="&#xc4;" horiz-adv-x="590" 
d="M545 14l-3 -13q21 0 -70 0h-129h-70q4 4 1 8t2 4h52q34 216 29 223l-102 -1q-34 -72 -68 -145q-53 -95 -112 -95q-44 0 -75 32.5t-31 76.5q0 32 26.5 55.5t59.5 23.5t53 -24.5t20 -57.5q0 -40 -25 -60l-30 -20l18 -2q47 -3 117 143q50 104 114 292q36 111 73 222h6
q-9 0 132 9l-51 -672zM391 581q-2 1 -5 1q-4 0 -7 -1q-10 -21 -64 -183q-50 -149 -52 -147q2 2 94 0q1 0 34 330zM350 768q2 19 17.5 32.5t34.5 13.5q18 0 29.5 -13.5t8.5 -32.5q-3 -18 -18 -31.5t-34 -13.5q-18 0 -29.5 13.5t-8.5 31.5zM511 768q3 19 18 32.5t34 13.5
t30 -13.5t9 -32.5q-3 -18 -18 -31.5t-34 -13.5t-30 13.5t-9 31.5z" />
    <glyph glyph-name="Aring" unicode="&#xc5;" horiz-adv-x="590" 
d="M545 14l-3 -13q21 0 -70 0h-129h-70q4 4 1 8t2 4h52q34 216 29 223l-102 -1q-34 -72 -68 -145q-53 -95 -112 -95q-44 0 -75 32.5t-31 76.5q0 32 26.5 55.5t59.5 23.5t53 -24.5t20 -57.5q0 -40 -25 -60l-30 -20l18 -2q47 -3 117 143q50 104 114 292q36 111 73 222h6
q-9 0 132 9l-51 -672zM391 581q-2 1 -5 1q-4 0 -7 -1q-10 -21 -64 -183q-50 -149 -52 -147q2 2 94 0q1 0 34 330zM465 842q27 0 46 -19t19 -46t-19 -46t-46 -19t-46 19t-19 46t19 46t46 19zM465 812q-15 0 -25 -10t-10 -25q0 -14 10 -24.5t25 -10.5q14 0 24.5 10.5
t10.5 24.5q0 15 -10.5 25t-24.5 10z" />
    <glyph glyph-name="Ccedilla" unicode="&#xc7;" horiz-adv-x="394" 
d="M393 597q0 -41 -19 -73q-23 -39 -60 -39q-67 0 -67 96q0 32 25.5 66.5t55.5 34.5q65 0 65 -85zM126 -8q-10 -28 -11 -41q5 3 19 2q23 -2 24 -2q38 0 38 -65q0 -35 -18.5 -53.5t-31.5 -23.5q-16 -7 -49 -7q-17 0 -32 10t-19 20q-8 19 -8 32q13 -8 25 -15q6 -3 28 -6
q15 -2 26.5 11t11.5 32q0 36 -21 36q-6 0 -18 -2t-15 -2q-2 1 -2 4q0 6 33 70h-6q-41 1 -67 51q-22 42 -22 87q0 101 20 227q24 157 64 213q22 31 72 61t89 39l-5 -15q-13 -7 -39 -20q-4 -71 -27 -303q-19 -189 -19 -304q0 -13 12 -13q30 0 89 27q46 24 91 47l-1 -15
q-46 -33 -106 -56q-66 -26 -116 -26h-9z" />
    <glyph glyph-name="Eacute" unicode="&#xc9;" horiz-adv-x="446" 
d="M411 604q0 -39 -21 -71q-25 -36 -62 -36q-23 0 -44.5 27t-21.5 52q0 43 17 73q20 36 57 36q35 0 55 -23.5t20 -57.5zM405 174q-18 -90 -97 -140q-74 -47 -177 -45q-142 2 -137 111q6 129 43 183q29 41 102 63q-57 19 -74.5 43.5t-17.5 81.5q0 111 78 171q52 40 145 40
q10 0 0 -14l-44 -6q-35 -270 -35 -307q46 21 87 16l-3 -15q-37 -4 -45 -6q-26 -6 -42 -18q4 0 -17 -164t-20 -164q88 0 116 29q16 17 33.5 59.5t30.5 56.5q23 27 64 27zM186 716q64 56 151 122q9 4 17 4q16 0 27 -12t11 -28q0 -12 -6 -24t-5 -12q-95 -30 -190 -61z" />
    <glyph glyph-name="Ntilde" unicode="&#xd1;" horiz-adv-x="685" 
d="M685 676v-16l-59 -1q-8 -157 -28 -454q-5 -66 -14 -206q-36 3 -133 0q-89 296 -137 449q-34 109 -45 135q-1 3 -3 5q-7 -101 -14 -186q-17 -204 -31 -297q-9 -54 -37 -86q-32 -37 -83 -36q-45 2 -72.5 33.5t-27.5 75.5q0 36 23 55t58 19q23 0 45.5 -24.5t24.5 -49.5
q4 -53 3 -63q1 -2 4 -6q26 24 40 98q13 67 38 371l13 157l-64 -11l-2 14l180 34q23 0 29 -21q20 -68 178 -575l37 569l-59 1v15zM360 786q-36 -5 -67 -48l-13 6q15 46 33 66q24 28 64 28q21 0 67.5 -23.5t69.5 -23.5q43 6 72 45l14 -2q-31 -96 -100 -96q-21 0 -74.5 24.5
t-65.5 23.5z" />
    <glyph glyph-name="Odieresis" unicode="&#xd6;" horiz-adv-x="487" 
d="M436 520q0 -157 -27 -322q-16 -94 -95 -153q-75 -56 -173 -56q-10 0 -29.5 1t-28.5 1q-59 0 -74 60q-6 22 -6 107q0 121 32 321q19 118 102 167q43 26 51 26q5 0 9 -2l-48 -650q-1 -14 12 -14q45 0 84 28l44 636q-4 6 -13 6q-8 0 -23 -5.5t-19 -5.5q-2 0 -2 2q0 3 3 6
q1 2 -1 5q4 7 50 14q41 7 57 7q66 0 85 -63q10 -30 10 -116zM150 768q2 19 17.5 32.5t34.5 13.5q18 0 29.5 -13.5t8.5 -32.5q-3 -18 -18 -31.5t-34 -13.5q-18 0 -29.5 13.5t-8.5 31.5zM311 768q3 19 18 32.5t34 13.5t30 -13.5t9 -32.5q-3 -18 -18 -31.5t-34 -13.5t-30 13.5
t-9 31.5z" />
    <glyph glyph-name="Udieresis" unicode="&#xdc;" horiz-adv-x="501" 
d="M447 29q1 0 -62 -19.5t-81 -19.5q-38 0 -51 15q-10 11 -10 40l21 235q0 7 4 50q-35 -98 -70 -168q-84 -169 -153 -172q-40 -1 -40 52l45 581q0 11 -4 12q10 -2 -11 -2q-4 0 -16 -4t-20 -6q4 14 1 17q17 8 79 25q66 19 84 19q24 0 24 -45l-31 -497q5 0 14 7
q114 228 114 343q0 26 6 72q6 53 7 73q45 12 136 48l-48 -660q20 7 62 20v-16zM110 768q2 19 17.5 32.5t34.5 13.5q18 0 29.5 -13.5t8.5 -32.5q-3 -18 -18 -31.5t-34 -13.5q-18 0 -29.5 13.5t-8.5 31.5zM271 768q3 19 18 32.5t34 13.5t30 -13.5t9 -32.5q-3 -18 -18 -31.5
t-34 -13.5t-30 13.5t-9 31.5z" />
    <glyph glyph-name="aacute" unicode="&#xe1;" horiz-adv-x="408" 
d="M171 430q0 -32 -22 -68q-25 -40 -55 -40q-25 0 -39 20q-14 17 -14 43q0 41 20 74q23 39 62 39q48 0 48 -68zM378 52q-24 -27 -67 -43q-35 -12 -62 -12q-40 0 -40 45l6 72q-7 1 -13 -11q-9 -17 -9 -18l-44 -50q-47 -42 -100 -42q-49 0 -49 71q0 93 52 153t144 60
q1 -3 1 -11q0 -5 -2 -2q-9 0 -24 -2q-8 -1 -12 -7q-16 -118 -16 -185q2 -2 12 4q16 9 38 40.5t23 45t15 182.5q6 83 5 85q-5 13 -14 13q-6 0 -29 -16l-3 9q8 18 50 33q37 13 62 13q60 0 56 -53l-34 -382q3 -6 10 -6q16 0 44 29v-15zM141 534q55 48 129 104q7 3 14 3
q14 0 23.5 -10t9.5 -24q0 -9 -5.5 -19.5t-4.5 -10.5q-81 -26 -161 -52z" />
    <glyph glyph-name="agrave" unicode="&#xe0;" horiz-adv-x="408" 
d="M171 430q0 -32 -22 -68q-25 -40 -55 -40q-25 0 -39 20q-14 17 -14 43q0 41 20 74q23 39 62 39q48 0 48 -68zM378 52q-24 -27 -67 -43q-35 -12 -62 -12q-40 0 -40 45l6 72q-7 1 -13 -11q-9 -17 -9 -18l-44 -50q-47 -42 -100 -42q-49 0 -49 71q0 93 52 153t144 60
q1 -3 1 -11q0 -5 -2 -2q-9 0 -24 -2q-8 -1 -12 -7q-16 -118 -16 -185q2 -2 12 4q16 9 38 40.5t23 45t15 182.5q6 83 5 85q-5 13 -14 13q-6 0 -29 -16l-3 9q8 18 50 33q37 13 62 13q60 0 56 -53l-34 -382q3 -6 10 -6q16 0 44 29v-15zM310 524q-54 48 -129 104q-6 3 -12 3
q-12 0 -24 -12t-12 -23q0 -17 19 -32v0q0 1 -2 2q78 -25 155 -51z" />
    <glyph glyph-name="acircumflex" unicode="&#xe2;" horiz-adv-x="408" 
d="M171 430q0 -32 -22 -68q-25 -40 -55 -40q-25 0 -39 20q-14 17 -14 43q0 41 20 74q23 39 62 39q48 0 48 -68zM378 52q-24 -27 -67 -43q-35 -12 -62 -12q-40 0 -40 45l6 72q-7 1 -13 -11q-9 -17 -9 -18l-44 -50q-47 -42 -100 -42q-49 0 -49 71q0 93 52 153t144 60
q1 -3 1 -11q0 -5 -2 -2q-9 0 -24 -2q-8 -1 -12 -7q-16 -118 -16 -185q2 -2 12 4q16 9 38 40.5t23 45t15 182.5q6 83 5 85q-5 13 -14 13q-6 0 -29 -16l-3 9q8 18 50 33q37 13 62 13q60 0 56 -53l-34 -382q3 -6 10 -6q16 0 44 29v-15zM217 561l-114 -29l-4 17l128 66v-1v1
l103 -68l-7 -18z" />
    <glyph glyph-name="adieresis" unicode="&#xe4;" horiz-adv-x="408" 
d="M171 430q0 -32 -22 -68q-25 -40 -55 -40q-25 0 -39 20q-14 17 -14 43q0 41 20 74q23 39 62 39q48 0 48 -68zM378 52q-24 -27 -67 -43q-35 -12 -62 -12q-40 0 -40 45l6 72q-7 1 -13 -11q-9 -17 -9 -18l-44 -50q-47 -42 -100 -42q-49 0 -49 71q0 93 52 153t144 60
q1 -3 1 -11q0 -5 -2 -2q-9 0 -24 -2q-8 -1 -12 -7q-16 -118 -16 -185q2 -2 12 4q16 9 38 40.5t23 45t15 182.5q6 83 5 85q-5 13 -14 13q-6 0 -29 -16l-3 9q8 18 50 33q37 13 62 13q60 0 56 -53l-34 -382q3 -6 10 -6q16 0 44 29v-15zM126 552q3 16 15.5 27t28.5 11t25.5 -11
t7.5 -27t-15 -27.5t-29 -11.5t-25.5 11.5t-7.5 27.5zM264 552q2 16 15 27t29 11q15 0 25 -11t7 -27q-2 -16 -15 -27.5t-29 -11.5q-15 0 -25 11.5t-7 27.5z" />
    <glyph glyph-name="atilde" unicode="&#xe3;" horiz-adv-x="408" 
d="M171 430q0 -32 -22 -68q-25 -40 -55 -40q-25 0 -39 20q-14 17 -14 43q0 41 20 74q23 39 62 39q48 0 48 -68zM378 52q-24 -27 -67 -43q-35 -12 -62 -12q-40 0 -40 45l6 72q-7 1 -13 -11q-9 -17 -9 -18l-44 -50q-47 -42 -100 -42q-49 0 -49 71q0 93 52 153t144 60
q1 -3 1 -11q0 -5 -2 -2q-9 0 -24 -2q-8 -1 -12 -7q-16 -118 -16 -185q2 -2 12 4q16 9 38 40.5t23 45t15 182.5q6 83 5 85q-5 13 -14 13q-6 0 -29 -16l-3 9q8 18 50 33q37 13 62 13q60 0 56 -53l-34 -382q3 -6 10 -6q16 0 44 29v-15zM155 575q-31 -5 -57 -40l-11 5
q26 79 83 79q18 0 57 -20t59 -20q37 5 61 38l12 -1q-27 -81 -85 -81q-18 0 -63 20.5t-56 19.5z" />
    <glyph glyph-name="aring" unicode="&#xe5;" horiz-adv-x="408" 
d="M171 430q0 -32 -22 -68q-25 -40 -55 -40q-25 0 -39 20q-14 17 -14 43q0 41 20 74q23 39 62 39q48 0 48 -68zM378 52q-24 -27 -67 -43q-35 -12 -62 -12q-40 0 -40 45l6 72q-7 1 -13 -11q-9 -17 -9 -18l-44 -50q-47 -42 -100 -42q-49 0 -49 71q0 93 52 153t144 60
q1 -3 1 -11q0 -5 -2 -2q-9 0 -24 -2q-8 -1 -12 -7q-16 -118 -16 -185q2 -2 12 4q16 9 38 40.5t23 45t15 182.5q6 83 5 85q-5 13 -14 13q-6 0 -29 -16l-3 9q8 18 50 33q37 13 62 13q60 0 56 -53l-34 -382q3 -6 10 -6q16 0 44 29v-15zM223 648q27 0 46 -19t19 -46t-19 -46
t-46 -19t-46 19t-19 46t19 46t46 19zM223 618q-14 0 -24.5 -10t-10.5 -25t10.5 -25t24.5 -10q15 0 25 10t10 25t-10 25t-25 10z" />
    <glyph glyph-name="ccedilla" unicode="&#xe7;" horiz-adv-x="358" 
d="M327 428q0 -36 -21 -67q-23 -35 -56 -35q-20 0 -33 25q-12 21 -12 43q0 35 17 66q20 38 52 38q53 0 53 -70zM119 -2q-10 -26 -11 -37h37q19 0 31 -19q9 -15 9 -32q0 -24 -21 -44q-27 -27 -70 -27q-36 -1 -44 21q-7 16 -7 26q9 -5 18 -11q1 0 21 -2q14 -2 26 7.5t12 24.5
q0 24 -24 24q-5 0 -15.5 -1.5t-11.5 -1.5q-2 0 -2 1t4 9t4 12q0 -1 23 49h-5q-53 -1 -73 39q-13 28 -13 88q0 14 6 77.5t9 69.5q7 77 59 132q49 53 126 73l-2 -17q-22 0 -28 -17q-7 -20 -23 -199q-16 -175 -16 -213q5 -8 13 -8q21 0 79 45q45 33 75 63q5 -7 12 -11
q-63 -59 -91 -79q-52 -36 -107 -42z" />
    <glyph glyph-name="eacute" unicode="&#xe9;" horiz-adv-x="384" 
d="M353 373q0 -19 -3 -31q-24 -93 -198 -145q-16 -118 -16 -172q0 -6 5 -14.5t11 -8.5q24 0 43 18q8 21 17 41q17 42 30 56q42 46 94 45v-14q0 -23 -37.5 -69.5t-61.5 -58.5q-63 -33 -127 -33q-100 0 -100 76q0 79 6 127q15 113 18 123q16 67 61 107q21 18 62 31q29 7 57 15
l-2 -14q-11 -5 -22 -9q-15 -8 -16 -22q-4 -35 -23 -206l62 22l24 230q11 6 24 6q34 0 63 -32t29 -68zM131 504q55 48 129 104q7 3 14 3q14 0 23.5 -10t9.5 -24q0 -9 -5.5 -19.5t-4.5 -10.5q-81 -26 -161 -52z" />
    <glyph glyph-name="egrave" unicode="&#xe8;" horiz-adv-x="384" 
d="M353 373q0 -19 -3 -31q-24 -93 -198 -145q-16 -118 -16 -172q0 -6 5 -14.5t11 -8.5q24 0 43 18q8 21 17 41q17 42 30 56q42 46 94 45v-14q0 -23 -37.5 -69.5t-61.5 -58.5q-63 -33 -127 -33q-100 0 -100 76q0 79 6 127q15 113 18 123q16 67 61 107q21 18 62 31q29 7 57 15
l-2 -14q-11 -5 -22 -9q-15 -8 -16 -22q-4 -35 -23 -206l62 22l24 230q11 6 24 6q34 0 63 -32t29 -68zM310 524q-54 48 -129 104q-6 3 -12 3q-12 0 -24 -12t-12 -23q0 -17 19 -32v0q0 1 -2 2q78 -25 155 -51z" />
    <glyph glyph-name="ecircumflex" unicode="&#xea;" horiz-adv-x="384" 
d="M353 373q0 -19 -3 -31q-24 -93 -198 -145q-16 -118 -16 -172q0 -6 5 -14.5t11 -8.5q24 0 43 18q8 21 17 41q17 42 30 56q42 46 94 45v-14q0 -23 -37.5 -69.5t-61.5 -58.5q-63 -33 -127 -33q-100 0 -100 76q0 79 6 127q15 113 18 123q16 67 61 107q21 18 62 31q29 7 57 15
l-2 -14q-11 -5 -22 -9q-15 -8 -16 -22q-4 -35 -23 -206l62 22l24 230q11 6 24 6q34 0 63 -32t29 -68zM237 541l-114 -29l-4 17l128 66v-1v1l103 -68l-7 -18z" />
    <glyph glyph-name="edieresis" unicode="&#xeb;" horiz-adv-x="384" 
d="M353 373q0 -19 -3 -31q-24 -93 -198 -145q-16 -118 -16 -172q0 -6 5 -14.5t11 -8.5q24 0 43 18q8 21 17 41q17 42 30 56q42 46 94 45v-14q0 -23 -37.5 -69.5t-61.5 -58.5q-63 -33 -127 -33q-100 0 -100 76q0 79 6 127q15 113 18 123q16 67 61 107q21 18 62 31q29 7 57 15
l-2 -14q-11 -5 -22 -9q-15 -8 -16 -22q-4 -35 -23 -206l62 22l24 230q11 6 24 6q34 0 63 -32t29 -68zM126 552q3 16 15.5 27t28.5 11t25.5 -11t7.5 -27t-15 -27.5t-29 -11.5t-25.5 11.5t-7.5 27.5zM264 552q2 16 15 27t29 11q15 0 25 -11t7 -27q-2 -16 -15 -27.5t-29 -11.5
q-15 0 -25 11.5t-7 27.5z" />
    <glyph glyph-name="iacute" unicode="&#xed;" horiz-adv-x="215" 
d="M191 47q-7 -10 -55.5 -29.5t-68.5 -19.5q-19 0 -27 4t-9 5q-17 21 -17 46l32 357q0 15 -1 16q-2 6 -15 6q-3 0 -17.5 -7.5t-18.5 -8.5l1 13q101 52 136 52q41 0 41 -30l-32 -382q-1 -19 -2 -17q1 -8 11 -8q7 0 44 22q-1 -5 -2 -19zM11 534q55 48 129 104q7 3 14 3
q14 0 23.5 -10t9.5 -24q0 -9 -5.5 -19.5t-4.5 -10.5q-81 -26 -161 -52z" />
    <glyph glyph-name="igrave" unicode="&#xec;" horiz-adv-x="215" 
d="M191 47q-7 -10 -55.5 -29.5t-68.5 -19.5q-19 0 -27 4t-9 5q-17 21 -17 46l32 357q0 15 -1 16q-2 6 -15 6q-3 0 -17.5 -7.5t-18.5 -8.5l1 13q101 52 136 52q41 0 41 -30l-32 -382q-1 -19 -2 -17q1 -8 11 -8q7 0 44 22q-1 -5 -2 -19zM200 524q-54 48 -129 104q-6 3 -12 3
q-12 0 -24 -12t-12 -23q0 -17 19 -32v0q0 1 -2 2q78 -25 155 -51z" />
    <glyph glyph-name="icircumflex" unicode="&#xee;" horiz-adv-x="215" 
d="M191 47q-7 -10 -55.5 -29.5t-68.5 -19.5q-19 0 -27 4t-9 5q-17 21 -17 46l32 357q0 15 -1 16q-2 6 -15 6q-3 0 -17.5 -7.5t-18.5 -8.5l1 13q101 52 136 52q41 0 41 -30l-32 -382q-1 -19 -2 -17q1 -8 11 -8q7 0 44 22q-1 -5 -2 -19zM107 541l-114 -29l-4 17l128 66v-1v1
l103 -68l-7 -18z" />
    <glyph glyph-name="idieresis" unicode="&#xef;" horiz-adv-x="215" 
d="M191 47q-7 -10 -55.5 -29.5t-68.5 -19.5q-19 0 -27 4t-9 5q-17 21 -17 46l32 357q0 15 -1 16q-2 6 -15 6q-3 0 -17.5 -7.5t-18.5 -8.5l1 13q101 52 136 52q41 0 41 -30l-32 -382q-1 -19 -2 -17q1 -8 11 -8q7 0 44 22q-1 -5 -2 -19zM6 552q3 16 15.5 27t28.5 11t25.5 -11
t7.5 -27t-15 -27.5t-29 -11.5t-25.5 11.5t-7.5 27.5zM144 552q2 16 15 27t29 11q15 0 25 -11t7 -27q-2 -16 -15 -27.5t-29 -11.5q-15 0 -25 11.5t-7 27.5z" />
    <glyph glyph-name="ntilde" unicode="&#xf1;" horiz-adv-x="429" 
d="M273 -8q65 0 133 44v15l-46 -22q-23 0 -13 32q2 0 29 382q2 40 -22 40q-56 0 -119 -111q-18 -32 -74 -159l23 233q4 40 -34 40q-34 0 -139 -55l-3 -16l38 14q18 -5 14 -27q-2 -9 -30 -402q52 12 118 0q11 134 19 172q15 68 67 164q7 14 15 15q5 -6 4 -27l-23 -282
q-4 -50 43 -50zM155 565q-31 -5 -57 -40l-11 5q26 79 83 79q18 0 57 -20t59 -20q37 5 61 38l12 -1q-27 -81 -85 -81q-18 0 -63 20.5t-56 19.5z" />
    <glyph glyph-name="oacute" unicode="&#xf3;" horiz-adv-x="396" 
d="M362 323q0 -124 -51 -214q-62 -111 -176 -111q-48 0 -83 21q-41 24 -43.5 67t-2.5 88q0 41 9 85q17 83 46 125q33 48 106 81l-40 -400q-2 -21 -2 -23q0 -25 25 -25q38 0 48 37q4 35 8 69q9 63 18 228q1 11 4 47q3 29 3 46q0 24 -19 24q-8 0 -16 -4l-8 -4q-2 0 -2 4
q0 3 1 8q28 14 71 14q104 0 104 -163zM151 534q55 48 129 104q7 3 14 3q14 0 23.5 -10t9.5 -24q0 -9 -5.5 -19.5t-4.5 -10.5q-81 -26 -161 -52z" />
    <glyph glyph-name="ograve" unicode="&#xf2;" horiz-adv-x="396" 
d="M362 323q0 -124 -51 -214q-62 -111 -176 -111q-48 0 -83 21q-41 24 -43.5 67t-2.5 88q0 41 9 85q17 83 46 125q33 48 106 81l-40 -400q-2 -21 -2 -23q0 -25 25 -25q38 0 48 37q4 35 8 69q9 63 18 228q1 11 4 47q3 29 3 46q0 24 -19 24q-8 0 -16 -4l-8 -4q-2 0 -2 4
q0 3 1 8q28 14 71 14q104 0 104 -163zM320 524q-54 48 -129 104q-6 3 -12 3q-12 0 -24 -12t-12 -23q0 -17 19 -32v0q0 1 -2 2q78 -25 155 -51z" />
    <glyph glyph-name="ocircumflex" unicode="&#xf4;" horiz-adv-x="396" 
d="M362 323q0 -124 -51 -214q-62 -111 -176 -111q-48 0 -83 21q-41 24 -43.5 67t-2.5 88q0 41 9 85q17 83 46 125q33 48 106 81l-40 -400q-2 -21 -2 -23q0 -25 25 -25q38 0 48 37q4 35 8 69q9 63 18 228q1 11 4 47q3 29 3 46q0 24 -19 24q-8 0 -16 -4l-8 -4q-2 0 -2 4
q0 3 1 8q28 14 71 14q104 0 104 -163zM237 541l-114 -29l-4 17l128 66v-1v1l103 -68l-7 -18z" />
    <glyph glyph-name="odieresis" unicode="&#xf6;" horiz-adv-x="396" 
d="M362 323q0 -124 -51 -214q-62 -111 -176 -111q-48 0 -83 21q-41 24 -43.5 67t-2.5 88q0 41 9 85q17 83 46 125q33 48 106 81l-40 -400q-2 -21 -2 -23q0 -25 25 -25q38 0 48 37q4 35 8 69q9 63 18 228q1 11 4 47q3 29 3 46q0 24 -19 24q-8 0 -16 -4l-8 -4q-2 0 -2 4
q0 3 1 8q28 14 71 14q104 0 104 -163zM126 552q3 16 15.5 27t28.5 11t25.5 -11t7.5 -27t-15 -27.5t-29 -11.5t-25.5 11.5t-7.5 27.5zM264 552q2 16 15 27t29 11q15 0 25 -11t7 -27q-2 -16 -15 -27.5t-29 -11.5q-15 0 -25 11.5t-7 27.5z" />
    <glyph glyph-name="otilde" unicode="&#xf5;" horiz-adv-x="396" 
d="M362 323q0 -124 -51 -214q-62 -111 -176 -111q-48 0 -83 21q-41 24 -43.5 67t-2.5 88q0 41 9 85q17 83 46 125q33 48 106 81l-40 -400q-2 -21 -2 -23q0 -25 25 -25q38 0 48 37q4 35 8 69q9 63 18 228q1 11 4 47q3 29 3 46q0 24 -19 24q-8 0 -16 -4l-8 -4q-2 0 -2 4
q0 3 1 8q28 14 71 14q104 0 104 -163zM155 565q-31 -5 -57 -40l-11 5q26 79 83 79q18 0 57 -20t59 -20q37 5 61 38l12 -1q-27 -81 -85 -81q-18 0 -63 20.5t-56 19.5z" />
    <glyph glyph-name="uacute" unicode="&#xfa;" horiz-adv-x="425" 
d="M383 41q1 -1 -41 -20.5t-48.5 -19.5t-24 -5t-26.5 -5q-10 0 -19 4q-15 8 -17 28q0 1 1 32q3 28 11 104q-49 -81 -71 -109q-46 -56 -89 -56q-27 0 -33 13q-4 7 -4 33l32 382q2 6 2 11q0 11 -13 9q-13 -8 -41 -24q3 12 0 15q19 20 60.5 34.5t80.5 14.5q34 0 34 -36
q0 -9 -3 -22l-20 -287q-2 -31 10 -31q3 0 7.5 7t17.5 26t32 63q12 47 18 160q2 52 4 105q6 -1 23 -2t22 -1q16 0 84 14l-33 -410v-17q0 -13 15 -12q10 6 29 18q-3 -16 0 -16zM141 534q55 48 129 104q7 3 14 3q14 0 23.5 -10t9.5 -24q0 -9 -5.5 -19.5t-4.5 -10.5
q-81 -26 -161 -52z" />
    <glyph glyph-name="ugrave" unicode="&#xf9;" horiz-adv-x="425" 
d="M383 41q1 -1 -41 -20.5t-48.5 -19.5t-24 -5t-26.5 -5q-10 0 -19 4q-15 8 -17 28q0 1 1 32q3 28 11 104q-49 -81 -71 -109q-46 -56 -89 -56q-27 0 -33 13q-4 7 -4 33l32 382q2 6 2 11q0 11 -13 9q-13 -8 -41 -24q3 12 0 15q19 20 60.5 34.5t80.5 14.5q34 0 34 -36
q0 -9 -3 -22l-20 -287q-2 -31 10 -31q3 0 7.5 7t17.5 26t32 63q12 47 18 160q2 52 4 105q6 -1 23 -2t22 -1q16 0 84 14l-33 -410v-17q0 -13 15 -12q10 6 29 18q-3 -16 0 -16zM290 524q-54 48 -129 104q-6 3 -12 3q-12 0 -24 -12t-12 -23q0 -17 19 -32v0q0 1 -2 2
q78 -25 155 -51z" />
    <glyph glyph-name="ucircumflex" unicode="&#xfb;" horiz-adv-x="425" 
d="M383 41q1 -1 -41 -20.5t-48.5 -19.5t-24 -5t-26.5 -5q-10 0 -19 4q-15 8 -17 28q0 1 1 32q3 28 11 104q-49 -81 -71 -109q-46 -56 -89 -56q-27 0 -33 13q-4 7 -4 33l32 382q2 6 2 11q0 11 -13 9q-13 -8 -41 -24q3 12 0 15q19 20 60.5 34.5t80.5 14.5q34 0 34 -36
q0 -9 -3 -22l-20 -287q-2 -31 10 -31q3 0 7.5 7t17.5 26t32 63q12 47 18 160q2 52 4 105q6 -1 23 -2t22 -1q16 0 84 14l-33 -410v-17q0 -13 15 -12q10 6 29 18q-3 -16 0 -16zM207 541l-114 -29l-4 17l128 66v-1v1l103 -68l-7 -18z" />
    <glyph glyph-name="udieresis" unicode="&#xfc;" horiz-adv-x="425" 
d="M383 41q1 -1 -41 -20.5t-48.5 -19.5t-24 -5t-26.5 -5q-10 0 -19 4q-15 8 -17 28q0 1 1 32q3 28 11 104q-49 -81 -71 -109q-46 -56 -89 -56q-27 0 -33 13q-4 7 -4 33l32 382q2 6 2 11q0 11 -13 9q-13 -8 -41 -24q3 12 0 15q19 20 60.5 34.5t80.5 14.5q34 0 34 -36
q0 -9 -3 -22l-20 -287q-2 -31 10 -31q3 0 7.5 7t17.5 26t32 63q12 47 18 160q2 52 4 105q6 -1 23 -2t22 -1q16 0 84 14l-33 -410v-17q0 -13 15 -12q10 6 29 18q-3 -16 0 -16zM116 552q3 16 15.5 27t28.5 11t25.5 -11t7.5 -27t-15 -27.5t-29 -11.5t-25.5 11.5t-7.5 27.5z
M254 552q2 16 15 27t29 11q15 0 25 -11t7 -27q-2 -16 -15 -27.5t-29 -11.5q-15 0 -25 11.5t-7 27.5z" />
    <glyph glyph-name="dagger" unicode="&#x2020;" horiz-adv-x="5" 
 />
    <glyph glyph-name="degree" unicode="&#xb0;" horiz-adv-x="322" 
d="M163 689q45 0 77 -32.5t32 -77.5q0 -46 -32 -78.5t-77 -32.5t-77 32.5t-32 78.5q0 45 32 77.5t77 32.5zM163 659q-33 0 -56 -23.5t-23 -56.5q0 -34 23 -57.5t56 -23.5q32 0 55.5 23.5t23.5 57.5q0 33 -23.5 56.5t-55.5 23.5z" />
    <glyph glyph-name="cent" unicode="&#xa2;" horiz-adv-x="298" 
d="M135 189l22 333q-17 -8 -35 -18l-22 -296q-5 -25 18 -25q6 0 17 6zM162 584l16 2l-3 -41q6 2 11.5 5t40.5 3q41 0 41 -57q0 -62 -46 -62q-31 0 -31 42q0 44 16 62q-21 -6 -33 -10l-22 -329q43 29 90 75q2 -3 9 -9q-66 -62 -101 -82l-3 -53l-16 -2l3 47q-7 -3 -14 -5
q-15 -4 -42 -4q-68 0 -68 97q0 19 3 62q4 51 8 58q4 22 9 44q8 32 27 54q24 30 70 46l32 12z" />
    <glyph glyph-name="sterling" unicode="&#xa3;" horiz-adv-x="397" 
d="M369 535q0 -33 -17 -56t-46 -23q-18 0 -35 21t-18 41q-2 32 11 55q15 30 49 30q30 0 45 -24q11 -18 11 -44zM350 114q-21 -115 -84 -114l-274 1q12 35 26 112h301q18 0 22 10q4 18 7 36l7 2q-1 -14 -5 -47zM10 352h63l7 91q4 69 47 111q9 8 42 23t45 15l43 7l-4 -14
q-18 0 -39 -8l-17 -225h80l-11 -51h-67q-4 -34 -15 -68q-9 -27 -49 -63t-69 -39l-24 -2q16 12 18 40q0 4 5 43.5t5 41.5l3 47h-73z" />
    <glyph glyph-name="section" unicode="&#xa7;" horiz-adv-x="5" 
 />
    <glyph glyph-name="bullet" unicode="&#x2022;" horiz-adv-x="443" 
d="M84 282q0 56 39 95t95 39q55 0 94 -39t39 -95q0 -55 -39 -94t-94 -39q-56 0 -95 39t-39 94z" />
    <glyph glyph-name="paragraph" unicode="&#xb6;" horiz-adv-x="5" 
 />
    <glyph glyph-name="germandbls" unicode="&#xdf;" horiz-adv-x="497" 
d="M65 565q26 132 217 132q31 0 65 -4q43 -5 77 -45t32 -86q-5 -98 -17 -122q-15 -27 -78 -46q39 -13 55.5 -28t23.5 -45q9 -40 9 -84q0 -142 -74 -199q-51 -40 -160 -40q-10 0 0 15q52 -2 63 32q31 294 31 332h-85l4 19h84q-4 0 12 112q16 117 16 113q0 56 -59 56
q-35 0 -50 -15q-29 -30 -40 -94q-9 -74 -18 -149l1 -1q0 -3 -40 -417h-125z" />
    <glyph glyph-name="registered" unicode="&#xae;" horiz-adv-x="425" 
d="M182 322q-75 0 -128 54t-53 130q0 75 53 128t128 53t127.5 -53.5t52.5 -129.5q0 -75 -52.5 -128.5t-127.5 -53.5zM182 643q-58 1 -97 -39.5t-39 -99.5q0 -57 40.5 -98t95.5 -41t95 41t40 98t-40 97t-95 42zM187 600q11 4 32 -2q36 -11 36 -46q0 -45 -44 -54l49 -76h-45
l-49 75h-15v-75h-38v178h74zM188 568h-39v-29h44q25 0 25 18q0 11 -30 11z" />
    <glyph glyph-name="copyright" unicode="&#xa9;" horiz-adv-x="814" 
d="M366 -21q-149 0 -253 104.5t-104 254.5t104 255t253 105t253.5 -105t104.5 -255t-104.5 -254.5t-253.5 -104.5zM366 625q-116 0 -200.5 -84t-84.5 -203t84.5 -202.5t200.5 -83.5t200.5 83.5t84.5 202.5t-84.5 203t-200.5 84zM477 397q-23 81 -101 81q-60 0 -95 -39
t-35 -100q0 -55 31 -94q35 -43 97 -43q83 0 103 79h74q-17 -75 -63.5 -113.5t-112.5 -38.5q-92 0 -147 60t-55 152q0 89 56 150t147 61q65 0 112 -39q50 -42 63 -116h-74z" />
    <glyph glyph-name="trademark" unicode="&#x2122;" horiz-adv-x="492" 
d="M377 607l-56 -140h-27l-52 134v-134h-43v211h58l51 -129l52 129h59v-211h-42v140zM103 634v-167h-43v167h-66v44h173v-44h-64z" />
    <glyph glyph-name="acute" unicode="&#xb4;" horiz-adv-x="590" 
d="M186 716q64 56 151 122q9 4 17 4q16 0 27 -12t11 -28q0 -12 -6 -24t-5 -12q-95 -30 -190 -61z" />
    <glyph glyph-name="dieresis" unicode="&#xa8;" horiz-adv-x="431" 
d="M78 788q3 23 20.5 38.5t39.5 15.5t35.5 -15.5t10.5 -38.5q-3 -22 -21 -37.5t-40 -15.5t-35.5 15.5t-9.5 37.5zM268 788q3 23 20.5 38.5t39.5 15.5t35.5 -15.5t10.5 -38.5q-3 -22 -21 -37.5t-40 -15.5t-35.5 15.5t-9.5 37.5z" />
    <glyph glyph-name="AE" unicode="&#xc6;" horiz-adv-x="837" 
d="M444 581q-2 2 -4 2q-5 0 -8 -1q-60 -161 -130 -331q7 2 94 0q1 0 48 330zM555 384h139v-20h-142l-30 -256h204q19 0 24.5 24.5t9.5 49.5h16q0 -10 -8 -54q-23 -127 -101 -127h-99v0h-266q4 4 0 9q-2 3 3 3h52q39 213 35 220h-95q-35 -73 -70 -145q-55 -94 -124 -93
q-44 2 -73.5 34t-27.5 75q2 33 29.5 56.5t60.5 23.5q32 0 51 -25t18 -58q-2 -40 -27 -60l-32 -20l18 -2q47 -3 122 144q53 105 124 295l82 222q124 4 246 0l-12 -21h-95zM830 604q0 -38 -22 -70q-24 -37 -61 -37q-24 0 -45 27.5t-21 52.5q0 42 16 72q21 37 58 37
q34 0 54.5 -23.5t20.5 -58.5z" />
    <glyph glyph-name="Oslash" unicode="&#xd8;" horiz-adv-x="488" 
d="M274 448l-112 -251l-13 -177q-1 -14 12 -14q45 0 84 28zM370 725h26l-15 -34q37 -18 49 -73q6 -30 6 -98q0 -157 -27 -322q-16 -94 -95 -153q-75 -56 -173 -56q-38 0 -69 3l-24 -53h-26l26 59q-35 15 -43 68q-2 17 -2 92q0 121 32 321q19 118 102 167q54 32 60 30
l-30 -408l111 251l11 151q-1 3 -7 6q-14 1 -30 -5t-18 -6t-1 4q3 6 1 9q4 7 42 14t62 7q10 0 19 -1z" />
    <glyph glyph-name="plusminus" unicode="&#xb1;" horiz-adv-x="5" 
 />
    <glyph glyph-name="yen" unicode="&#xa5;" horiz-adv-x="519" 
d="M60 271h113l4 43l-75 247q-2 5 -13 5t-40 -11q-1 8 -5 10q7 7 75 30q24 9 82 16q1 0 13 -3q6 -1 11 -13l18 -66q16 -69 48 -190q46 112 112 212q18 26 34.5 36.5t48.5 16.5v-34q0 -57 -74 -87q-9 -3 -28 -11q-9 -5 -85 -158q0 -8 -3 -43h110l-2 -20h-110l-4 -52h112
l-2 -20h-112q-10 -117 -20 -180h-124l19 180h-109l1 20h110l6 52h-113z" />
    <glyph glyph-name="uni00B5" unicode="&#xb5;" horiz-adv-x="460" 
d="M425 610q0 -38 -20 -64t-53 -26q-20 0 -39 24t-20 47q-2 36 11 62q18 35 56 35q34 0 52 -28q13 -21 13 -50zM408 128q-23 -127 -101 -127h-304v21q0 2 9 42q10 47 14 66h342q20 0 25 12q4 20 7 40h16q0 -10 -8 -54zM31 280l54 25l10 200q4 78 54 126q10 9 53 27t57 18
l38 7l-4 -16q-21 0 -45 -9l-11 -229l-3 -54l110 52l-6 -31l-106 -50q-5 -40 -18 -79q-10 -31 -54 -71q-47 -42 -80 -45l-27 -2q17 14 20 45q0 -1 10 82l-58 -27z" />
    <glyph glyph-name="uni00B5" unicode="&#x3bc;" horiz-adv-x="460" 
d="M425 610q0 -38 -20 -64t-53 -26q-20 0 -39 24t-20 47q-2 36 11 62q18 35 56 35q34 0 52 -28q13 -21 13 -50zM408 128q-23 -127 -101 -127h-304v21q0 2 9 42q10 47 14 66h342q20 0 25 12q4 20 7 40h16q0 -10 -8 -54zM31 280l54 25l10 200q4 78 54 126q10 9 53 27t57 18
l38 7l-4 -16q-21 0 -45 -9l-11 -229l-3 -54l110 52l-6 -31l-106 -50q-5 -40 -18 -79q-10 -31 -54 -71q-47 -42 -80 -45l-27 -2q17 14 20 45q0 -1 10 82l-58 -27z" />
    <glyph glyph-name="ordfeminine" unicode="&#xaa;" horiz-adv-x="495" 
d="M197 642q0 -34 -23 -71q-27 -45 -65 -45q-21 0 -35 16t-14 36q0 35 20 69q27 45 73 45q20 0 32 -15t12 -35zM95 357h75q75 156 125 276q6 10 6 16q0 8 -9 8h-79q-2 3 -2 5q0 3 2 8l257 -1l-148 -312h77l-7 -14h-77l-151 -319q2 -3 7 -9h99q31 0 35 8q-3 10 -3 22
q0 43 30 82.5t69 39.5q21 0 36 -26q11 -20 11 -35q0 -41 -28 -77q-31 -39 -70 -39q-25 0 -38 11h-314l165 342h-77zM312 775l135 35l4 -20l-150 -78v1l-1 -1l-121 80l9 21z" />
    <glyph glyph-name="ordmasculine" unicode="&#xba;" horiz-adv-x="387" 
d="M141 445q0 -34 -29.5 -71t-60.5 -35q-35 2 -35 54q0 32 22.5 61.5t58.5 33.5q16 2 30 -13.5t14 -29.5zM346 105q0 -53 -36 -80q-31 -25 -83 -25h-224l194 457q-23 6 -40 3v14q154 7 175 -3l-195 -456h75q34 0 34 11q-17 20 -17 55q0 31 21.5 57t52.5 26q43 -1 43 -59z
M189 567l113 30l4 -17l-123 -64v1l-1 -1l-103 63l8 14z" />
    <glyph glyph-name="ae" unicode="&#xe6;" horiz-adv-x="580" 
d="M171 430q0 -32 -22 -68q-25 -40 -55 -40q-25 0 -39 20q-14 17 -14 43q0 41 20 74q23 39 62 39q48 0 48 -68zM553 373q0 -19 -3 -31q-24 -93 -198 -145q-16 -118 -16 -172q0 -5 5 -11t10 -6q30 0 44 12q8 21 17 41q17 42 30 56q42 46 94 45v-14q0 -23 -37.5 -69.5
t-61.5 -58.5q-59 -31 -126 -31q-31 0 -63 15q-42 20 -37 51q-1 17 -1 58q-5 -2 -10 -14t-7 -14l-44 -50q-47 -42 -100 -42q-49 0 -49 71q0 93 52 153t144 60q1 -3 1 -11q0 -3 -4 1q0 -1 2 -3q-9 0 -24 -2q-8 -1 -12 -7q-16 -118 -16 -185q2 -2 12 4q32 19 57 72q4 40 13 121
q4 34 14 160q-6 13 -15 13q-7 0 -31 -16l-3 9q8 18 50 33q37 13 62 13q44 0 53 -29q23 11 59 26l-2 -14q-35 -16 -38 -41q-4 -35 -23 -206l62 22l24 240q10 5 22 5q34 0 64 -36t30 -73z" />
    <glyph glyph-name="oslash" unicode="&#xf8;" horiz-adv-x="396" 
d="M220 273l-87 -153l-6 -55q-2 -21 -2 -23q0 -25 25 -25q38 0 48 37q4 35 8 69q9 60 14 150zM328 499h22l-23 -40q35 -38 35 -136q0 -124 -51 -214q-62 -111 -176 -111q-35 0 -65 12l-18 -31h-22l23 39q-42 24 -45 69q-2 42 -2 87q0 41 9 85q17 83 46 125q33 48 106 81
l-30 -299l85 149l2 36q1 11 4 47q3 29 3 46q0 24 -19 24q-8 0 -16 -4l-8 -4q-2 0 -2 4q0 3 1 8q28 14 71 14q32 0 54 -15z" />
    <glyph glyph-name="questiondown" unicode="&#xbf;" horiz-adv-x="288" 
d="M27 -90q0 56 42 125q0 2 77 113q42 60 42 92q0 23 -12 31t-44 13q4 13 10 13q66 0 66 -57q-15 -161 -30 -323q-4 -37 -5 -90q39 17 59 40q14 16 32 55q1 1 2 1q4 0 9 -7q1 -37 -47.5 -77t-90.5 -40q-49 0 -79.5 32t-30.5 79zM107 397q0 38 23.5 67.5t58.5 29.5
q30 0 46 -24q13 -19 13 -45q0 -40 -19 -68q-21 -34 -58 -34q-30 0 -47 22t-17 52z" />
    <glyph glyph-name="exclamdown" unicode="&#xa1;" horiz-adv-x="229" 
d="M-6 -132q0 44 26 150q19 82 30 114q17 56 53 156l7 -2q5 -2 7 1q11 -22 24 -130t13 -186q0 -67 -10 -101q-23 -71 -91 -71q-32 0 -47 25q-12 19 -12 44zM46 389q0 41 20 71q24 33 63 33q58 0 58 -68q0 -38 -16 -65q-22 -37 -65 -37q-25 0 -42.5 21t-17.5 45z" />
    <glyph glyph-name="logicalnot" unicode="&#xac;" horiz-adv-x="5" 
 />
    <glyph glyph-name="florin" unicode="&#x192;" horiz-adv-x="5" 
 />
    <glyph glyph-name="guillemotleft" unicode="&#xab;" horiz-adv-x="461" 
d="M305 235q39 -64 47 -176l-35 -4q-18 52 -35 105q-21 45 -71 89q49 25 90 75l70 96l26 -24q-27 -107 -92 -161zM141 238q39 -64 47 -176l-36 -4q-27 79 -42 105q-24 44 -77 90q51 27 97 75q23 25 77 96l25 -25q-26 -107 -91 -161z" />
    <glyph glyph-name="guillemotright" unicode="&#xbb;" horiz-adv-x="461" 
d="M139 243q-39 64 -47 176l36 5q17 -53 35 -105q20 -46 71 -89q-50 -26 -91 -76l-70 -96l-25 24q26 107 91 161zM304 240q-39 64 -48 176l36 4q27 -78 42 -105q24 -44 77 -90q-51 -26 -96 -74q-23 -25 -77 -96l-26 24q26 107 92 161z" />
    <glyph glyph-name="ellipsis" unicode="&#x2026;" horiz-adv-x="918" 
d="M559 104q0 -32 -19 -67q-23 -44 -60 -44q-30 0 -49.5 20.5t-19.5 52.5q0 47 21 80q23 37 63 37q30 0 49 -31q15 -24 15 -48zM859 104q0 -32 -19 -67q-23 -44 -60 -44q-30 0 -49.5 20.5t-19.5 52.5q0 47 21 80q23 37 63 37q30 0 49 -31q15 -24 15 -48zM259 104
q0 -32 -19 -67q-23 -44 -60 -44q-30 0 -49.5 20.5t-19.5 52.5q0 47 21 80q23 37 63 37q30 0 49 -31q15 -24 15 -48z" />
    <glyph glyph-name="uni00A0" unicode="&#xa0;" horiz-adv-x="1008" 
 />
    <glyph glyph-name="Agrave" unicode="&#xc0;" horiz-adv-x="590" 
d="M545 14l-3 -13q21 0 -70 0h-129h-70q4 4 1 8t2 4h52q34 216 29 223l-102 -1q-34 -72 -68 -145q-53 -95 -112 -95q-44 0 -75 32.5t-31 76.5q0 32 26.5 55.5t59.5 23.5t53 -24.5t20 -57.5q0 -40 -25 -60l-30 -20l18 -2q47 -3 117 143q50 104 114 292q36 111 73 222h6
q-9 0 132 9l-51 -672zM391 581q-2 1 -5 1q-4 0 -7 -1q-10 -21 -64 -183q-50 -149 -52 -147q2 2 94 0q1 0 34 330zM566 716q-65 56 -152 122q-7 3 -15 3q-22 0 -39 -29q-3 -6 -3 -12q0 -20 22 -37h1q-1 0 -3 2q92 -30 183 -60z" />
    <glyph glyph-name="Atilde" unicode="&#xc3;" horiz-adv-x="590" 
d="M545 14l-3 -13q21 0 -70 0h-129h-70q4 4 1 8t2 4h52q34 216 29 223l-102 -1q-34 -72 -68 -145q-53 -95 -112 -95q-44 0 -75 32.5t-31 76.5q0 32 26.5 55.5t59.5 23.5t53 -24.5t20 -57.5q0 -40 -25 -60l-30 -20l18 -2q47 -3 117 143q50 104 114 292q36 111 73 222h6
q-9 0 132 9l-51 -672zM391 581q-2 1 -5 1q-4 0 -7 -1q-10 -21 -64 -183q-50 -149 -52 -147q2 2 94 0q1 0 34 330zM380 776q-36 -5 -67 -48l-13 6q15 46 33 66q24 28 64 28q21 0 67.5 -23.5t69.5 -23.5q43 6 72 45l14 -2q-31 -96 -100 -96q-21 0 -74.5 24.5t-65.5 23.5z" />
    <glyph glyph-name="Otilde" unicode="&#xd5;" horiz-adv-x="487" 
d="M436 520q0 -157 -27 -322q-16 -94 -95 -153q-75 -56 -173 -56q-10 0 -29.5 1t-28.5 1q-59 0 -74 60q-6 22 -6 107q0 121 32 321q19 118 102 167q43 26 51 26q5 0 9 -2l-48 -650q-1 -14 12 -14q45 0 84 28l44 636q-4 6 -13 6q-8 0 -23 -5.5t-19 -5.5q-2 0 -2 2q0 3 3 6
q1 2 -1 5q4 7 50 14q41 7 57 7q66 0 85 -63q10 -30 10 -116zM180 776q-36 -5 -67 -48l-13 6q15 46 33 66q24 28 64 28q21 0 67.5 -23.5t69.5 -23.5q43 6 72 45l14 -2q-31 -96 -100 -96q-21 0 -74.5 24.5t-65.5 23.5z" />
    <glyph glyph-name="OE" unicode="&#x152;" horiz-adv-x="694" 
d="M552 659h-95q-6 -93 -21 -279l128 4v-20l-130 -4q-3 -57 -18 -171q-3 -14 -12 -28.5t-17 -28.5l-20 -23l229 -1q19 0 24.5 24.5t9.5 49.5h16q0 -10 -8 -54q-23 -127 -101 -127h-99v0l-185 -1q-3 0 -3 3q-53 -20 -109 -19q-10 0 -29.5 1.5t-29.5 2.5q-76 1 -76 107
q0 -5 2 61q5 120 44 320q23 118 107 165q45 25 52 25q5 0 9 -2l-70 -649q-2 -14 11 -14q45 -1 85 26l66 635q-3 6 -13 6q-8 0 -23 -5t-19 -5q-1 1 -1 3t2 5q1 2 -1 6q11 15 98 15q44 0 60 -10q44 0 145 -1zM700 604q0 -38 -22 -70q-24 -37 -61 -37q-24 0 -45 27.5t-21 52.5
q0 42 16 72q21 37 58 37q34 0 54.5 -23.5t20.5 -58.5z" />
    <glyph glyph-name="oe" unicode="&#x153;" horiz-adv-x="582" 
d="M361 317q0 -46 -9 -92l61 22l24 230q11 6 24 6q34 0 63 -32t29 -68q0 -19 -3 -31q-24 -93 -198 -145q-16 -118 -16 -172q0 -6 5 -14.5t11 -8.5q24 0 43 18q8 21 17 41q17 42 30 56q42 46 94 45v-14q0 -23 -37.5 -69.5t-61.5 -58.5q-67 -35 -122 -35q-57 0 -86 27
q-42 -24 -94 -24q-48 0 -83 21q-41 24 -43.5 67t-2.5 88q0 41 9 85q17 83 46 125q33 48 106 81l-40 -400q-2 -21 -2 -23q0 -25 25 -25q38 0 48 37q4 35 8 69q9 63 18 228q1 11 4 47q3 29 3 46q0 24 -19 24q-8 0 -16 -4l-8 -4q-2 0 -2 4q0 3 1 8q28 14 71 14q49 0 74 -34
q32 9 82 24l-2 -14q-11 -5 -22 -9q-15 -8 -16 -22q-2 -23 -13 -114z" />
    <glyph glyph-name="endash" unicode="&#x2013;" horiz-adv-x="410" 
d="M395 176h-389l10 94l388 -1z" />
    <glyph glyph-name="emdash" unicode="&#x2014;" horiz-adv-x="816" 
d="M6 176l10 94l758 -1l-9 -93h-759z" />
    <glyph glyph-name="quotedblleft" unicode="&#x201c;" horiz-adv-x="331" 
d="M335 534q0 -75 -75 -75q-30 0 -46 25q-14 22 -14 52q0 50 57 147q2 3 10 1t7 -6q-16 -21 -27 -49q-8 -21 -16 -43q34 20 49 20q25 0 41 -26q14 -22 14 -46zM175 534q0 -75 -75 -75q-30 0 -46 25q-14 22 -14 52q0 50 57 147q2 3 10 1t7 -6q-16 -21 -27 -49q-8 -21 -16 -43
q34 20 49 20q25 0 41 -26q14 -22 14 -46z" />
    <glyph glyph-name="quotedblright" unicode="&#x201d;" horiz-adv-x="310" 
d="M-28 608q0 75 75 75q29 0 46 -25q14 -22 14 -52q0 -50 -57 -147q-3 -4 -11 -1q-8 2 -6 6q16 21 27 49q8 21 16 43q-34 -20 -49 -20q-26 0 -42 26q-13 22 -13 46zM132 608q0 75 75 75q29 0 46 -25q14 -22 14 -52q0 -50 -57 -147q-3 -4 -11 -1q-8 2 -6 6q16 21 27 49
q8 21 16 43q-34 -20 -49 -20q-26 0 -42 26q-13 22 -13 46z" />
    <glyph glyph-name="quoteleft" unicode="&#x2018;" horiz-adv-x="177" 
d="M175 534q0 -75 -75 -75q-30 0 -46 25q-14 22 -14 52q0 50 57 147q2 3 10 1t7 -6q-16 -21 -27 -49q-8 -21 -16 -43q34 20 49 20q25 0 41 -26q14 -22 14 -46z" />
    <glyph glyph-name="quoteright" unicode="&#x2019;" horiz-adv-x="108" 
d="M-31 608q0 75 75 75q29 0 46 -25q14 -22 14 -52q0 -50 -57 -147q-3 -4 -10 -1q-8 2 -7 6q16 21 27 49q8 21 16 43q-34 -20 -49 -20q-26 0 -41 26q-14 22 -14 46z" />
    <glyph glyph-name="divide" unicode="&#xf7;" horiz-adv-x="5" 
 />
    <glyph glyph-name="ydieresis" unicode="&#xff;" horiz-adv-x="419" 
d="M366 456q0 -41 -6 -113q-8 -92 -9 -113q-6 -76 -17 -233q-4 -48 -76 -80q-53 -23 -117 -29l-31 -3q-2 7 0 15q20 0 52 13q36 15 40 33q4 22 8 69q8 102 8 127q0 5 4 17t2 19q0 -1 -22 -37q-87 -141 -141 -141q-39 0 -35 49l32 375q1 15 -11 15q-15 0 -44 -17q1 0 1 8
q0 3 -3 4q6 12 61 31q52 17 71 17q51 0 48 -43l-23 -284q-1 -6 -1 -10q0 -10 8 -10q6 0 11 3q35 41 49 95q1 42 11 130q9 82 9 108q9 -3 23 -3q60 0 100 14q0 -4 -1 -13t-1 -13zM106 552q3 16 15.5 27t28.5 11t25.5 -11t7.5 -27t-15 -27.5t-29 -11.5t-25.5 11.5t-7.5 27.5z
M244 552q2 16 15 27t29 11q15 0 25 -11t7 -27q-2 -16 -15 -27.5t-29 -11.5q-15 0 -25 11.5t-7 27.5z" />
    <glyph glyph-name="Ydieresis" unicode="&#x178;" horiz-adv-x="508" 
d="M472 658q0 -3 -21 -228q-15 -142 -39 -427q-8 -108 -205 -146l6 16q12 1 21 3q22 5 29 16q2 3 17 217q15 207 16 238q-3 -1 -12 -26q-5 -14 -10 -29q-38 -89 -45 -104q-22 -45 -55 -88q-79 -99 -116 -99q-30 0 -30 25l53 613q0 12 -1 13q-1 5 -11 5q-4 0 -19 -6.5
t-33 -5.5l-4 8q-2 5 1 6q110 33 158 33q26 0 37.5 -7.5t11.5 -31.5l-36 -471q1 -1 1 -9t5 -8q8 0 28 47l24 58q75 162 76 393q80 -4 153 26v-31zM221 -72q0 -30 -26.5 -56.5t-53.5 -26.5t-50 17q-26 19 -26 46q0 37 25 59t62 22q32 0 52 -21q17 -18 17 -40zM140 768
q2 19 17.5 32.5t34.5 13.5q18 0 29.5 -13.5t8.5 -32.5q-3 -18 -18 -31.5t-34 -13.5q-18 0 -29.5 13.5t-8.5 31.5zM301 768q3 19 18 32.5t34 13.5t30 -13.5t9 -32.5q-3 -18 -18 -31.5t-34 -13.5t-30 13.5t-9 31.5z" />
    <glyph glyph-name="currency" unicode="&#xa4;" horiz-adv-x="5" 
 />
    <glyph glyph-name="guilsinglleft" unicode="&#x2039;" horiz-adv-x="461" 
d="M141 238q39 -64 47 -176l-36 -4q-26 79 -41 105q-25 44 -78 90q52 27 97 75q23 25 77 96l25 -25q-26 -107 -91 -161z" />
    <glyph glyph-name="guilsinglright" unicode="&#x203a;" horiz-adv-x="461" 
d="M140 243q-39 64 -48 176l36 5q27 -79 42 -106q24 -44 77 -90q-51 -26 -97 -74q-23 -25 -77 -96l-25 24q26 107 92 161z" />
    <glyph glyph-name="daggerdbl" unicode="&#x2021;" horiz-adv-x="5" 
 />
    <glyph glyph-name="periodcentered" unicode="&#xb7;" horiz-adv-x="225" 
d="M41 322q0 29 20.5 50t49.5 21t50 -21t21 -50t-21 -49.5t-50 -20.5t-49.5 20.5t-20.5 49.5z" />
    <glyph glyph-name="periodcentered" unicode="&#x2219;" horiz-adv-x="225" 
d="M41 322q0 29 20.5 50t49.5 21t50 -21t21 -50t-21 -49.5t-50 -20.5t-49.5 20.5t-20.5 49.5z" />
    <glyph glyph-name="quotesinglbase" unicode="&#x201a;" horiz-adv-x="185" 
d="M0 68q0 75 75 75q29 0 44.5 -23.5t15.5 -53.5q0 -50 -57 -147q-3 -4 -11 -1q-8 2 -6 6q16 21 27 49q8 21 16 43q-34 -20 -49 -20q-26 0 -42 26q-13 22 -13 46z" />
    <glyph glyph-name="quotedblbase" unicode="&#x201e;" horiz-adv-x="366" 
d="M0 68q0 75 75 75q29 0 44.5 -23.5t15.5 -53.5q0 -50 -57 -147q-3 -4 -11 -1q-8 2 -6 6q16 21 27 49q8 21 16 43q-34 -20 -49 -20q-26 0 -42 26q-13 22 -13 46zM160 68q0 75 75 75q29 0 44.5 -23.5t15.5 -53.5q0 -50 -57 -147q-3 -4 -11 -1q-8 2 -6 6q16 21 27 49
q8 21 16 43q-34 -20 -49 -20q-26 0 -42 26q-13 22 -13 46z" />
    <glyph glyph-name="perthousand" unicode="&#x2030;" horiz-adv-x="19" 
 />
    <glyph glyph-name="Acircumflex" unicode="&#xc2;" horiz-adv-x="590" 
d="M545 14l-3 -13q21 0 -70 0h-129h-70q4 4 1 8t2 4h52q34 216 29 223l-102 -1q-34 -72 -68 -145q-53 -95 -112 -95q-44 0 -75 32.5t-31 76.5q0 32 26.5 55.5t59.5 23.5t53 -24.5t20 -57.5q0 -40 -25 -60l-30 -20l18 -2q47 -3 117 143q50 104 114 292q36 111 73 222h6
q-9 0 132 9l-51 -672zM391 581q-2 1 -5 1q-4 0 -7 -1q-10 -21 -64 -183q-50 -149 -52 -147q2 2 94 0q1 0 34 330zM448 759l-135 -35l-4 21l150 78v-2l1 2l121 -81l-9 -20z" />
    <glyph glyph-name="Ecircumflex" unicode="&#xca;" horiz-adv-x="446" 
d="M411 604q0 -39 -21 -71q-25 -36 -62 -36q-23 0 -44.5 27t-21.5 52q0 43 17 73q20 36 57 36q35 0 55 -23.5t20 -57.5zM405 174q-18 -90 -97 -140q-74 -47 -177 -45q-142 2 -137 111q6 129 43 183q29 41 102 63q-57 19 -74.5 43.5t-17.5 81.5q0 111 78 171q52 40 145 40
q10 0 0 -14l-44 -6q-35 -270 -35 -307q46 21 87 16l-3 -15q-37 -4 -45 -6q-26 -6 -42 -18q4 0 -17 -164t-20 -164q88 0 116 29q16 17 33.5 59.5t30.5 56.5q23 27 64 27zM268 759l-135 -35l-4 21l150 78v-2l1 2l121 -81l-9 -20z" />
    <glyph glyph-name="Aacute" unicode="&#xc1;" horiz-adv-x="590" 
d="M545 14l-3 -13q21 0 -70 0h-129h-70q4 4 1 8t2 4h52q34 216 29 223l-102 -1q-34 -72 -68 -145q-53 -95 -112 -95q-44 0 -75 32.5t-31 76.5q0 32 26.5 55.5t59.5 23.5t53 -24.5t20 -57.5q0 -40 -25 -60l-30 -20l18 -2q47 -3 117 143q50 104 114 292q36 111 73 222h6
q-9 0 132 9l-51 -672zM391 581q-2 1 -5 1q-4 0 -7 -1q-10 -21 -64 -183q-50 -149 -52 -147q2 2 94 0q1 0 34 330zM356 716q64 56 151 122q9 4 17 4q16 0 27 -12t11 -28q0 -12 -6 -24t-5 -12q-95 -30 -190 -61z" />
    <glyph glyph-name="Edieresis" unicode="&#xcb;" horiz-adv-x="446" 
d="M411 604q0 -39 -21 -71q-25 -36 -62 -36q-23 0 -44.5 27t-21.5 52q0 43 17 73q20 36 57 36q35 0 55 -23.5t20 -57.5zM405 174q-18 -90 -97 -140q-74 -47 -177 -45q-142 2 -137 111q6 129 43 183q29 41 102 63q-57 19 -74.5 43.5t-17.5 81.5q0 111 78 171q52 40 145 40
q10 0 0 -14l-44 -6q-35 -270 -35 -307q46 21 87 16l-3 -15q-37 -4 -45 -6q-26 -6 -42 -18q4 0 -17 -164t-20 -164q88 0 116 29q16 17 33.5 59.5t30.5 56.5q23 27 64 27zM140 768q2 19 17.5 32.5t34.5 13.5q18 0 29.5 -13.5t8.5 -32.5q-3 -18 -18 -31.5t-34 -13.5
q-18 0 -29.5 13.5t-8.5 31.5zM301 768q3 19 18 32.5t34 13.5t30 -13.5t9 -32.5q-3 -18 -18 -31.5t-34 -13.5t-30 13.5t-9 31.5z" />
    <glyph glyph-name="Egrave" unicode="&#xc8;" horiz-adv-x="446" 
d="M411 604q0 -39 -21 -71q-25 -36 -62 -36q-23 0 -44.5 27t-21.5 52q0 43 17 73q20 36 57 36q35 0 55 -23.5t20 -57.5zM405 174q-18 -90 -97 -140q-74 -47 -177 -45q-142 2 -137 111q6 129 43 183q29 41 102 63q-57 19 -74.5 43.5t-17.5 81.5q0 111 78 171q52 40 145 40
q10 0 0 -14l-44 -6q-35 -270 -35 -307q46 21 87 16l-3 -15q-37 -4 -45 -6q-26 -6 -42 -18q4 0 -17 -164t-20 -164q88 0 116 29q16 17 33.5 59.5t30.5 56.5q23 27 64 27zM356 716q-61 55 -145 121q-9 4 -19 4q-16 0 -29.5 -10.5t-13.5 -26.5q0 -12 9 -24l9 -12q6 -3 183 -63z
" />
    <glyph glyph-name="Iacute" unicode="&#xcd;" horiz-adv-x="301" 
d="M297 659h-58l-45 -644h61l-3 -17h-253l4 16h47l52 645h-63l3 19h257zM86 716q64 56 151 122q9 4 17 4q16 0 27 -12t11 -28q0 -12 -6 -24t-5 -12q-95 -30 -190 -61z" />
    <glyph glyph-name="Icircumflex" unicode="&#xce;" horiz-adv-x="301" 
d="M297 659h-58l-45 -644h61l-3 -17h-253l4 16h47l52 645h-63l3 19h257zM178 759l-135 -35l-4 21l150 78v-2l1 2l121 -81l-9 -20z" />
    <glyph glyph-name="Idieresis" unicode="&#xcf;" horiz-adv-x="301" 
d="M297 659h-58l-45 -644h61l-3 -17h-253l4 16h47l52 645h-63l3 19h257zM50 768q2 19 17.5 32.5t34.5 13.5q18 0 29.5 -13.5t8.5 -32.5q-3 -18 -18 -31.5t-34 -13.5q-18 0 -29.5 13.5t-8.5 31.5zM211 768q3 19 18 32.5t34 13.5t30 -13.5t9 -32.5q-3 -18 -18 -31.5t-34 -13.5
t-30 13.5t-9 31.5z" />
    <glyph glyph-name="Igrave" unicode="&#xcc;" horiz-adv-x="301" 
d="M297 659h-58l-45 -644h61l-3 -17h-253l4 16h47l52 645h-63l3 19h257zM266 716q-65 56 -152 122q-7 3 -15 3q-22 0 -39 -29q-3 -6 -3 -12q0 -20 22 -37h1q-1 0 -3 2q92 -30 183 -60z" />
    <glyph glyph-name="Oacute" unicode="&#xd3;" horiz-adv-x="487" 
d="M436 520q0 -157 -27 -322q-16 -94 -95 -153q-75 -56 -173 -56q-10 0 -29.5 1t-28.5 1q-59 0 -74 60q-6 22 -6 107q0 121 32 321q19 118 102 167q43 26 51 26q5 0 9 -2l-48 -650q-1 -14 12 -14q45 0 84 28l44 636q-4 6 -13 6q-8 0 -23 -5.5t-19 -5.5q-2 0 -2 2q0 3 3 6
q1 2 -1 5q4 7 50 14q41 7 57 7q66 0 85 -63q10 -30 10 -116zM186 716q64 56 151 122q9 4 17 4q16 0 27 -12t11 -28q0 -12 -6 -24t-5 -12q-95 -30 -190 -61z" />
    <glyph glyph-name="Ocircumflex" unicode="&#xd4;" horiz-adv-x="487" 
d="M436 520q0 -157 -27 -322q-16 -94 -95 -153q-75 -56 -173 -56q-10 0 -29.5 1t-28.5 1q-59 0 -74 60q-6 22 -6 107q0 121 32 321q19 118 102 167q43 26 51 26q5 0 9 -2l-48 -650q-1 -14 12 -14q45 0 84 28l44 636q-4 6 -13 6q-8 0 -23 -5.5t-19 -5.5q-2 0 -2 2q0 3 3 6
q1 2 -1 5q4 7 50 14q41 7 57 7q66 0 85 -63q10 -30 10 -116zM268 759l-135 -35l-4 21l150 78v-2l1 2l121 -81l-9 -20z" />
    <glyph glyph-name="Ograve" unicode="&#xd2;" horiz-adv-x="487" 
d="M436 520q0 -157 -27 -322q-16 -94 -95 -153q-75 -56 -173 -56q-10 0 -29.5 1t-28.5 1q-59 0 -74 60q-6 22 -6 107q0 121 32 321q19 118 102 167q43 26 51 26q5 0 9 -2l-48 -650q-1 -14 12 -14q45 0 84 28l44 636q-4 6 -13 6q-8 0 -23 -5.5t-19 -5.5q-2 0 -2 2q0 3 3 6
q1 2 -1 5q4 7 50 14q41 7 57 7q66 0 85 -63q10 -30 10 -116zM376 726q-65 56 -152 122q-7 3 -15 3q-22 0 -39 -29q-3 -6 -3 -12q0 -20 22 -37h1q-1 0 -3 2q92 -30 183 -60z" />
    <glyph glyph-name="Uacute" unicode="&#xda;" horiz-adv-x="501" 
d="M447 29q1 0 -62 -19.5t-81 -19.5q-38 0 -51 15q-10 11 -10 40l21 235q0 7 4 50q-35 -98 -70 -168q-84 -169 -153 -172q-40 -1 -40 52l45 581q0 11 -4 12q10 -2 -11 -2q-4 0 -16 -4t-20 -6q4 14 1 17q17 8 79 25q66 19 84 19q24 0 24 -45l-31 -497q5 0 14 7
q114 228 114 343q0 26 6 72q6 53 7 73q45 12 136 48l-48 -660q20 7 62 20v-16zM146 716q64 56 151 122q9 4 17 4q16 0 27 -12t11 -28q0 -12 -6 -24t-5 -12q-95 -30 -190 -61z" />
    <glyph glyph-name="Ucircumflex" unicode="&#xdb;" horiz-adv-x="501" 
d="M447 29q1 0 -62 -19.5t-81 -19.5q-38 0 -51 15q-10 11 -10 40l21 235q0 7 4 50q-35 -98 -70 -168q-84 -169 -153 -172q-40 -1 -40 52l45 581q0 11 -4 12q10 -2 -11 -2q-4 0 -16 -4t-20 -6q4 14 1 17q17 8 79 25q66 19 84 19q24 0 24 -45l-31 -497q5 0 14 7
q114 228 114 343q0 26 6 72q6 53 7 73q45 12 136 48l-48 -660q20 7 62 20v-16zM248 759l-135 -35l-4 21l150 78v-2l1 2l121 -81l-9 -20z" />
    <glyph glyph-name="Ugrave" unicode="&#xd9;" horiz-adv-x="501" 
d="M447 29q1 0 -62 -19.5t-81 -19.5q-38 0 -51 15q-10 11 -10 40l21 235q0 7 4 50q-35 -98 -70 -168q-84 -169 -153 -172q-40 -1 -40 52l45 581q0 11 -4 12q10 -2 -11 -2q-4 0 -16 -4t-20 -6q4 14 1 17q17 8 79 25q66 19 84 19q24 0 24 -45l-31 -497q5 0 14 7
q114 228 114 343q0 26 6 72q6 53 7 73q45 12 136 48l-48 -660q20 7 62 20v-16zM336 716q-65 56 -152 122q-7 3 -15 3q-22 0 -39 -29q-3 -6 -3 -12q0 -20 22 -37h1q-1 0 -3 2q92 -30 183 -60z" />
    <glyph glyph-name="circumflex" unicode="&#x2c6;" horiz-adv-x="490" 
d="M248 759l-135 -35l-4 21l150 78v-2l1 2l121 -81l-9 -20z" />
    <glyph glyph-name="tilde" unicode="&#x2dc;" horiz-adv-x="535" 
d="M190 786q-36 -5 -67 -48l-13 6q15 46 33 66q24 28 64 28q21 0 67.5 -23.5t69.5 -23.5q58 8 82 40l14 -2q-30 -91 -110 -91q-21 0 -74.5 24.5t-65.5 23.5z" />
    <glyph glyph-name="macron" unicode="&#xaf;" horiz-adv-x="406" 
d="M78 807h258v-61h-258v61z" />
    <glyph glyph-name="macron" unicode="&#x2c9;" horiz-adv-x="406" 
d="M78 807h258v-61h-258v61z" />
    <glyph glyph-name="cedilla" unicode="&#xb8;" horiz-adv-x="368" 
d="M162 -17l23 -4q-3 -4 -11 -26q-9 -25 -10 -36q5 3 19 2q23 -2 24 -2q23 0 36 -22q11 -18 11 -38q0 -27 -24 -52q-19 -18 -33 -24q-17 -7 -50 -8q-42 -1 -52 25q-7 19 -7 31q10 -6 21 -13q1 0 24 -3q16 -2 30.5 9t14.5 29q0 28 -28 28q-6 0 -18.5 -1.5t-14.5 -1.5
q-1 0 -2 1q0 2 5 11t5 13.5t15 33.5q17 33 22 48z" />
    <glyph glyph-name="Scaron" unicode="&#x160;" 
 />
    <glyph glyph-name="scaron" unicode="&#x161;" 
 />
    <glyph glyph-name="brokenbar" unicode="&#xa6;" 
 />
    <glyph glyph-name="Eth" unicode="&#xd0;" 
 />
    <glyph glyph-name="eth" unicode="&#xf0;" 
 />
    <glyph glyph-name="Yacute" unicode="&#xdd;" 
 />
    <glyph glyph-name="yacute" unicode="&#xfd;" 
 />
    <glyph glyph-name="Thorn" unicode="&#xde;" 
 />
    <glyph glyph-name="thorn" unicode="&#xfe;" 
 />
    <glyph glyph-name="uni00AD" unicode="&#xad;" 
 />
    <glyph glyph-name="uni00AD" unicode="&#x2212;" 
 />
    <glyph glyph-name="multiply" unicode="&#xd7;" 
 />
    <glyph glyph-name="uni00B9" unicode="&#xb9;" 
 />
    <glyph glyph-name="uni00B2" unicode="&#xb2;" 
 />
    <glyph glyph-name="uni00B3" unicode="&#xb3;" 
 />
    <glyph glyph-name="onehalf" unicode="&#xbd;" 
 />
    <glyph glyph-name="onequarter" unicode="&#xbc;" 
 />
    <glyph glyph-name="threequarters" unicode="&#xbe;" 
 />
    <glyph glyph-name="Lslash" unicode="&#x141;" 
 />
    <glyph glyph-name="lslash" unicode="&#x142;" 
 />
    <glyph glyph-name="glyph220" 
 />
    <glyph glyph-name="glyph221" 
 />
    <glyph glyph-name="glyph222" 
 />
    <glyph glyph-name="Zcaron" unicode="&#x17d;" 
 />
    <glyph glyph-name="zcaron" unicode="&#x17e;" 
 />
    <glyph glyph-name="glyph225" 
 />
    <glyph glyph-name="glyph226" 
 />
    <glyph glyph-name="glyph227" 
 />
    <glyph glyph-name="glyph228" 
 />
    <glyph glyph-name="glyph229" 
 />
    <glyph glyph-name="glyph230" 
 />
    <glyph glyph-name="glyph231" 
 />
    <glyph glyph-name="glyph232" horiz-adv-x="1002" 
 />
    <glyph glyph-name="notequal" unicode="&#x2260;" 
 />
    <glyph glyph-name="infinity" unicode="&#x221e;" horiz-adv-x="5" 
 />
    <glyph glyph-name="lessequal" unicode="&#x2264;" horiz-adv-x="5" 
 />
    <glyph glyph-name="greaterequal" unicode="&#x2265;" horiz-adv-x="5" 
 />
    <glyph glyph-name="partialdiff" unicode="&#x2202;" horiz-adv-x="253" 
d="M224 45q-94 -48 -145 -48q-40 0 -40 40l43 571q0 26 -11 26q-4 0 -24 -10t-24 -11l2 17q93 48 142 48q31 0 37 -14q1 -4 1 -35l-39 -539q-1 -6 -2 -11q-2 -10 -2 -16q0 -24 20 -20q7 2 42 17v-15zM11 280l239 113l-6 -32l-239 -112z" />
    <glyph glyph-name="summation" unicode="&#x2211;" horiz-adv-x="413" 
d="M370 565q0 -27 -17.5 -47.5t-43.5 -20.5q-46 0 -73 47q-21 37 -21 75q0 61 50 61q43 0 75 -40q30 -36 30 -75zM238 8q-34 -13 -87 -13q-60 0 -106.5 43.5t-46.5 99.5q0 32 20.5 54.5t52.5 22.5q37 0 67 -42q26 -36 26 -66q0 -59 -44 -87q4 -9 64 -9q20 0 52 15
q36 17 36 32q0 1 -74 129q-85 148 -129 237q-15 30 -15 66q0 59 36 109.5t91 63.5l7 -13q-47 -21 -47 -44q0 -3 65 -122q86 -157 121 -222q24 -47 24 -95q0 -114 -113 -159zM242 775l135 35l4 -20l-150 -78v1l-1 -1l-121 80l9 21z" />
    <glyph glyph-name="product" unicode="&#x220f;" horiz-adv-x="334" 
d="M313 417q0 -57 -50 -57q-31 0 -55 36q-21 32 -21 61q0 22 14.5 38t38.5 16q28 0 52 -36q21 -32 21 -58zM291 137q0 -28 -8 -47q-18 -43 -69 -71q-45 -25 -88 -25q-53 0 -92 39.5t-39 90.5q0 56 47 56q43 0 68 -60q11 -25 11 -53q0 -16 -6 -51q10 -5 16 -5q15 0 41 6
q31 8 34 18q-7 56 -93 164q-82 104 -82 153q0 29 20 66t42 45q11 6 21 12q23 12 48 12q5 0 6 -3.5t2 -7.5q-25 0 -52 -16q-1 -12 1 -18q11 -37 96 -150q76 -100 76 -155zM189 587l116 23l3 -17l-125 -57v1l-1 -1l-102 56l7 17z" />
    <glyph glyph-name="pi" unicode="&#x3c0;" horiz-adv-x="508" 
d="M472 658q0 -3 -21 -228q-15 -142 -39 -427q-8 -108 -205 -146l6 16q12 1 21 3q22 5 29 16q2 3 17 217q15 207 16 238q-3 -1 -12 -26q-5 -14 -10 -29q-38 -89 -45 -104q-22 -45 -55 -88q-79 -99 -116 -99q-30 0 -30 25l53 613q0 12 -1 13q-1 5 -11 5q-4 0 -19 -6.5
t-33 -5.5l-4 8q-2 5 1 6q110 33 158 33q26 0 37.5 -7.5t11.5 -31.5l-36 -471q1 -1 1 -9t5 -8q8 0 28 47l24 58q75 162 76 393q80 -4 153 26v-31zM221 -72q0 -30 -26.5 -56.5t-53.5 -26.5t-50 17q-26 19 -26 46q0 37 25 59t62 22q32 0 52 -21q17 -18 17 -40zM186 716
q64 56 151 122q9 4 17 4q16 0 27 -12t11 -28q0 -12 -6 -24t-5 -12q-95 -30 -190 -61z" />
    <glyph glyph-name="integral" unicode="&#x222b;" horiz-adv-x="419" 
d="M366 456q0 -41 -6 -113q-8 -92 -9 -113q-6 -76 -17 -233q-4 -48 -76 -80q-53 -23 -117 -29l-31 -3q-2 7 0 15q14 0 33 4q26 6 33 7q21 15 25.5 36t8.5 68q8 102 8 127q0 4 2.5 18t1.5 21l-20 -40q-87 -141 -141 -141q-39 0 -35 49l32 375q1 15 -11 15q-15 0 -44 -17
q1 0 1 8q0 3 -3 4q6 12 61 31q52 17 71 17q51 0 48 -43l-23 -284q-1 -6 -1 -10q0 -10 8 -10q6 0 11 3q35 41 49 95q1 42 11 130q9 82 9 108q9 -3 23 -3q60 0 100 14q0 -4 -1 -13t-1 -13zM106 516q64 56 151 122q9 4 17 4q16 0 27 -12t11 -28q0 -12 -6 -24t-5 -12
q-95 -30 -190 -61z" />
    <glyph glyph-name="Omega" unicode="&#x3a9;" horiz-adv-x="410" 
d="M390 537q0 -36 -17 -66q-21 -35 -55 -35q-60 0 -60 87q0 28 23 59.5t51 31.5q58 0 58 -77zM27 367h44q16 84 38 126q20 37 73 71q46 30 84 39l-4 -14q-12 -5 -35 -18q-4 -73 -18 -204h114l-3 -17h-112l-4 -37h110l-3 -17h-109q-17 -167 -17 -271q0 -12 11 -12q27 0 80 25
l82 42l-1 -13q-41 -30 -95 -51q-60 -23 -104 -23h-32q-36 0 -60 45q-20 38 -20 79q0 79 13 179h-44l3 17h44q3 20 6 37h-44z" />
    <glyph glyph-name="Omega" unicode="&#x2126;" horiz-adv-x="410" 
d="M390 537q0 -36 -17 -66q-21 -35 -55 -35q-60 0 -60 87q0 28 23 59.5t51 31.5q58 0 58 -77zM27 367h44q16 84 38 126q20 37 73 71q46 30 84 39l-4 -14q-12 -5 -35 -18q-4 -73 -18 -204h114l-3 -17h-112l-4 -37h110l-3 -17h-109q-17 -167 -17 -271q0 -12 11 -12q27 0 80 25
l82 42l-1 -13q-41 -30 -95 -51q-60 -23 -104 -23h-32q-36 0 -60 45q-20 38 -20 79q0 79 13 179h-44l3 17h44q3 20 6 37h-44z" />
    <glyph glyph-name="radical" unicode="&#x221a;" horiz-adv-x="5" 
 />
    <glyph glyph-name="approxequal" unicode="&#x2248;" horiz-adv-x="5" 
 />
    <glyph glyph-name="approxequal" unicode="&#x22f2;" horiz-adv-x="5" 
 />
    <glyph glyph-name="Delta" unicode="&#x394;" horiz-adv-x="5" 
 />
    <glyph glyph-name="Delta" unicode="&#x2206;" horiz-adv-x="5" 
 />
    <glyph glyph-name="lozenge" unicode="&#x25ca;" horiz-adv-x="5" 
 />
    <glyph glyph-name="fraction" unicode="&#x2044;" horiz-adv-x="5" 
 />
    <glyph glyph-name="uniF001" unicode="&#xf001;" horiz-adv-x="5" 
 />
    <glyph glyph-name="uniF002" unicode="&#xf002;" horiz-adv-x="5" 
 />
    <glyph glyph-name="uniF000" unicode="&#xf000;" horiz-adv-x="19" 
 />
    <glyph glyph-name="dotlessi" unicode="&#x131;" horiz-adv-x="215" 
d="M191 47q-7 -10 -55.5 -29.5t-68.5 -19.5q-19 0 -27 4t-9 5q-17 21 -17 46l32 357q0 15 -1 16q-2 6 -15 6q-3 0 -17.5 -7.5t-18.5 -8.5l1 13q101 52 136 52q41 0 41 -30l-32 -382q-1 -19 -2 -17q1 -8 11 -8q7 0 44 22q-1 -5 -2 -19z" />
    <glyph glyph-name="breve" unicode="&#x2d8;" horiz-adv-x="422" 
d="M334 824q0 -38 -40 -61q-36 -20 -83 -20t-83 20q-40 23 -40 61h40q0 -14 20 -26q25 -15 63 -15t63 15q20 12 20 26h40z" />
    <glyph glyph-name="dotaccent" unicode="&#x2d9;" horiz-adv-x="421" 
d="M156 779q0 23 16 38.5t38 15.5q23 0 39 -15.5t16 -38.5q0 -22 -16 -38t-39 -16q-22 0 -38 16t-16 38z" />
    <glyph glyph-name="ring" unicode="&#x2da;" horiz-adv-x="403" 
d="M205 842q27 0 46 -19t19 -46t-19 -46t-46 -19t-46 19t-19 46t19 46t46 19zM205 812q-15 0 -25 -10t-10 -25q0 -14 10 -24.5t25 -10.5q14 0 24.5 10.5t10.5 24.5q0 15 -10.5 25t-24.5 10z" />
    <glyph glyph-name="hungarumlaut" unicode="&#x2dd;" horiz-adv-x="485" 
d="M314 823l-57 -106h43l90 106h-76zM205 823l-57 -106h43l90 106h-76z" />
    <glyph glyph-name="ogonek" unicode="&#x2db;" horiz-adv-x="329" 
d="M187 16l24 -6q-39 -23 -56 -43q-29 -34 -29 -82q0 -24 15 -39.5t30 -15.5q14 0 31 16q14 16 28 31l10 -27q-32 -35 -40 -42q-23 -18 -51 -18q-30 0 -53 19q-28 23 -28 64q0 71 36 105q25 24 83 38z" />
    <glyph glyph-name="caron" unicode="&#x2c7;" horiz-adv-x="501" 
d="M242 785l135 35l4 -20l-150 -78v1l-1 -1l-121 80l9 21z" />
    </font>
</defs>
</svg>
