<?xml version="1.0" standalone="no"?>
<!DOCTYPE svg PUBLIC "-//W3C//DTD SVG 1.1//EN" "http://www.w3.org/Graphics/SVG/1.1/DTD/svg11.dtd" >
<svg>
<metadata>
Created by FontForge 20120731 at Tue Apr 16 16:39:28 2019
 By www-data
Digitized by Dan X. Solo. Software (c) 2000 by Dover Publications, Inc., New York.
</metadata>
<defs>
<font id="Castile" horiz-adv-x="4" >
  <font-face 
    font-family="Castile"
    font-weight="400"
    font-stretch="normal"
    units-per-em="1000"
    panose-1="0 0 4 0 0 0 0 0 0 0"
    ascent="800"
    descent="-200"
    x-height="452"
    cap-height="704"
    bbox="-64 -252 940 876"
    underline-thickness="20"
    underline-position="-123"
    unicode-range="U+0020-F002"
  />
<missing-glyph horiz-adv-x="500" 
d="M63 0v800h375v-800h-375zM125 63h250v675h-250v-675z" />
    <glyph glyph-name=".notdef" horiz-adv-x="500" 
d="M63 0v800h375v-800h-375zM125 63h250v675h-250v-675z" />
    <glyph glyph-name="glyph1" horiz-adv-x="0" 
 />
    <glyph glyph-name="glyph2" horiz-adv-x="225" 
 />
    <glyph glyph-name="space" unicode=" " horiz-adv-x="225" 
 />
    <glyph glyph-name="exclam" unicode="!" horiz-adv-x="389" 
d="M272 711q2 -1 38.5 -9.5t122.5 -45.5q-159 -221 -216 -474l-76 -15q25 138 49 276q33 156 82 268zM64 18q0 40 45 64q36 19 83 19q20 0 26 -5.5t6 -20.5q0 -11 -5 -30t-5 -27q0 -9 5 -22t5 -28q-10 -18 -40 -18q-120 0 -120 68z" />
    <glyph glyph-name="quotedbl" unicode="&#x22;" horiz-adv-x="333" 
d="M79 416l45 256h106l-75 -256h-76zM228 416l45 256h106l-78 -256h-73z" />
    <glyph glyph-name="numbersign" unicode="#" horiz-adv-x="556" 
d="M561 415h-87l-44 -162h80l-14 -86h-88l-43 -167h-84l42 167h-106l-43 -167h-84l43 167h-89l14 86h96l44 162h-89l14 86h97l47 170h83l-46 -170h107l47 170h83l-46 -170h80zM283 415l-44 -162h106l44 162h-106z" />
    <glyph glyph-name="dollar" unicode="$" horiz-adv-x="389" 
d="M169 123l-40 -81h-25l30 89q-42 13 -104 53l54 108q34 -22 84 -43q56 -24 85 -24q35 0 35 28q0 10 -48 42q-64 43 -90 66q-48 44 -48 83t49 100q56 69 110 69q11 0 22 -2l16 67h58l-36 -76q52 -16 118 -60l-57 -90q-35 20 -71 40q-45 23 -77 23q-25 0 -40 -22
q11 -18 101 -86q75 -57 75 -98q0 -51 -44 -115q-52 -75 -118 -75q-20 0 -39 4z" />
    <glyph glyph-name="percent" unicode="%" horiz-adv-x="986" 
d="M287 639l40 -32q26 10 52 21q36 15 55 15q42 0 42 -96q0 -121 -97 -228q-87 -96 -163 -96q-42 0 -83 47.5t-40 99.5q1 69 62 152.5t132 116.5zM212 310l21 -17q127 64 127 224q0 32 -16 73q-50 2 -94 -89q-41 -83 -41 -156q0 -19 3 -35zM704 658l-346 -721l-40 20
l321 732zM737 399l40 -32q26 10 52 21q36 15 55 15q42 0 42 -96q0 -121 -97 -228q-87 -96 -163 -96q-42 0 -83 47.5t-40 99.5q1 69 62 152.5t132 116.5zM662 70l21 -17q127 64 127 224q0 32 -16 73q-50 2 -94 -89q-41 -83 -41 -156q0 -19 3 -35z" />
    <glyph glyph-name="ampersand" unicode="&#x26;" horiz-adv-x="667" 
d="M345 599l-19 -7q-7 -33 -7 -70q0 -45 14 -91q61 36 78 101q-22 39 -66 67zM494 404l126 29q-21 -125 -176 -271q51 -86 137 -153q-12 -5 -79 -32q-34 -14 -46 -14q-33 0 -112 113q-104 -81 -160 -81q-60 0 -107 66q-41 57 -41 105q0 73 63 129q23 21 121 81
q-13 40 -13 110q0 79 56 130q53 49 130 49q50 0 88 -35t38 -85q0 -38 -49 -76q-35 -28 -127 -76q27 -111 74 -193q78 80 78 179q0 18 -1 25zM230 341q-70 -55 -70 -117q0 -49 28 -85q31 -41 83 -41q23 0 51 17q-72 135 -92 226z" />
    <glyph glyph-name="quotesingle" unicode="'" horiz-adv-x="274" 
d="M79 416l45 256h106l-75 -256h-76z" />
    <glyph glyph-name="parenleft" unicode="(" horiz-adv-x="451" 
d="M254 -48l-75 21q-77 147 -77 333q0 207 137 336q66 62 97 62q18 0 57 -19q26 -14 52 -27q-134 -75 -195 -183q-58 -104 -58 -255q0 -124 62 -268z" />
    <glyph glyph-name="parenright" unicode=")" horiz-adv-x="451" 
d="M223 704l75 -21q77 -147 77 -333q0 -207 -137 -336q-65 -62 -97 -62q-18 0 -57 19q-26 14 -52 27q134 75 195 183q58 104 58 255q0 124 -62 268z" />
    <glyph glyph-name="asterisk" unicode="*" horiz-adv-x="469" 
d="M247 547l-84 47l32 84l80 -102l-2 97l89 14l-48 -120l83 50l56 -70l-128 -18l85 -47l-32 -84l-80 102l1 -97l-88 -14l48 120l-83 -50l-57 70z" />
    <glyph glyph-name="plus" unicode="+" horiz-adv-x="600" 
d="M356 283v-186h-86v186h-186v86h186v186h86v-186h186v-86h-186z" />
    <glyph glyph-name="comma" unicode="," horiz-adv-x="278" 
d="M53 -151q-11 0 -90 -11q59 63 82 153q10 57 19 114q126 -19 126 -45q0 -46 -42 -116q-45 -74 -95 -95z" />
    <glyph glyph-name="hyphen" unicode="-" horiz-adv-x="333" 
d="M289 164l-234 -40l-15 73l219 88z" />
    <glyph glyph-name="hyphen" unicode="&#x2010;" horiz-adv-x="333" 
d="M289 164l-234 -40l-15 73l219 88z" />
    <glyph glyph-name="period" unicode="." horiz-adv-x="278" 
d="M20 57q0 41 45 65q37 19 83 19q21 0 26.5 -5.5t5.5 -21.5q0 -10 -5 -29t-5 -28v-44q-6 -24 -34 -24q-116 0 -116 68z" />
    <glyph glyph-name="slash" unicode="/" horiz-adv-x="382" 
d="M404 658l-346 -721l-60 20l321 732z" />
    <glyph glyph-name="zero" unicode="0" horiz-adv-x="556" 
d="M207 87l44 -41q80 89 130.5 200.5t50.5 202.5q0 83 -27 173l-25 -3q-95 -82 -142 -246q-32 -114 -32 -218q0 -5 1 -32q1 -22 0 -36zM337 704l51 -39q2 1 61 17q50 14 62 14q22 0 42 -64q21 -68 21 -154q0 -93 -55 -211q-35 -74 -121 -180q-104 -127 -160 -127
q-39 0 -78 43q-90 98 -90 194q0 152 71 294q75 151 196 213z" />
    <glyph glyph-name="one" unicode="1" horiz-adv-x="556" 
d="M324 -52l-109 56q51 147 85 332q28 147 28 201v59h-11l-86 -43l-19 63q82 28 245 88l21 -27v-44q0 -106 -49 -322q-48 -210 -105 -363z" />
    <glyph glyph-name="two" unicode="2" horiz-adv-x="556" 
d="M442 539l-23 36h-34q-37 0 -95 -25q-54 -24 -96 -55l-53 111q100 60 102 62q73 37 129 36q68 -1 136 -102q44 -65 44 -136q0 -90 -153 -214q-98 -80 -235 -156v-2q73 19 178 21q64 2 142 -13l-40 -134q-100 24 -158 24q-79 0 -173 -24l-45 137q99 42 222 183
q127 144 152 251z" />
    <glyph glyph-name="three" unicode="3" horiz-adv-x="556" 
d="M191 256l-18 54q229 124 252 247l-19 25q-64 -1 -123 -23q-53 -24 -106 -47l-46 105q54 33 123 58q78 29 130 29q68 0 117 -72q37 -54 37 -108q0 -37 -42 -75q-46 -40 -180 -120l2 -2q33 6 76 6q41 0 79.5 -54.5t38.5 -105.5q0 -66 -72 -139q-143 -146 -299 -146
q-52 0 -81.5 23.5t-29.5 65.5q0 32 25 32q13 0 64.5 -21.5t105.5 -21.5q25 0 81 82.5t56 116.5q0 29 -41 75q-24 27 -58 27q-19 0 -72 -11z" />
    <glyph glyph-name="four" unicode="4" horiz-adv-x="556" 
d="M382 445l128 -74q0 -120 -38 -234q17 -1 50 -5l-44 -113q-17 2 -47 4q-17 -44 -58 -139l-81 -14q30 87 46 158q-99 -3 -248 -29q-32 61 -32 93q0 31 96 279q102 263 141.5 285t186.5 48q-131 -182 -269 -516l-95 -88l2 -2q78 27 243 41q21 110 21 206q0 16 -1 49.5
t-1 50.5z" />
    <glyph glyph-name="five" unicode="5" horiz-adv-x="556" 
d="M155 258l-44 56q82 184 130 369q79 21 134 21q70 0 213 -37l-54 -120q-101 35 -158 35h-66q-57 -89 -99 -201q66 26 156 26q39 0 58 -6q27 -9 46 -35q27 -37 34 -56q5 -15 5 -47q0 -136 -130 -244q-121 -101 -253 -101q-54 0 -70 18q-27 30 -27 68q0 35 22 35
q11 0 78 -25.5t71 -25.5q39 0 96 82q61 88 61 166q0 25 -17 41q-21 4 -45 4q-69 0 -141 -23z" />
    <glyph glyph-name="six" unicode="6" horiz-adv-x="556" 
d="M398 354l-35 38q-62 -13 -110 -81q-47 -64 -47 -129q0 -32 23 -105q5 -17 7 -21q6 -10 16 -12q145 148 146 310zM528 647v-3q-134 -19 -225 -110t-104 -220l2 -2q37 64 93 114q70 62 132 62q35 0 76.5 -42.5t41.5 -84.5q0 -108 -66 -210q-51 -80 -130 -140
q-67 -51 -96 -51q-35 0 -93 49q-64 55 -89 119q-8 21 -8 56q0 127 62 256q60 125 163 222q74 70 100 70q23 0 71 -35q68 -49 70 -50z" />
    <glyph glyph-name="seven" unicode="7" horiz-adv-x="556" 
d="M289 -76l-145 54q52 159 142 316q92 161 204 283l-2 2q-112 -32 -220 -32q-66 0 -126 10l36 136q102 -19 174 -21q107 -2 186 24h62l-32 -102q-140 -259 -154 -290q-85 -182 -125 -380z" />
    <glyph glyph-name="eight" unicode="8" horiz-adv-x="556" 
d="M513 225q0 -39 -32 -98q-38 -69 -97 -113q-74 -54 -164 -54q-36 0 -53 4q-20 5 -45 24q-20 15 -39 56q-23 49 -23 96q0 61 57 115q35 33 110 77q-39 26 -71 68t-32 73q0 49 19 97t46 75q57 59 207 59q33 0 42 -5q13 -7 20 -35q5 2 47 18q31 12 46 12q23 0 23 -32
q0 -126 -180 -282q72 -52 95.5 -82t23.5 -73zM401 122l15 42q-35 51 -141 140q-97 -57 -97 -115q0 -36 50 -112q5 -7 35 -5q46 2 70 11q20 8 68 39zM234 535q0 -16 49 -66t70 -58q88 74 97 179q-8 1 -32 5q-20 3 -28 3q-61 0 -108.5 -18.5t-47.5 -44.5z" />
    <glyph glyph-name="nine" unicode="9" horiz-adv-x="556" 
d="M329 714l61 -49q7 2 63 23q45 16 63 16q40 0 40 -204q0 -154 -59 -288q-45 -102 -150 -211q-99 -104 -138 -103q-27 1 -135 88q141 35 238 127q110 105 114 240l-2 2q-23 -48 -92 -105q-74 -60 -121 -60q-44 0 -88 53t-44 98q0 64 98 198q82 113 152 175zM225 328l44 -40
q147 69 147 215q0 42 -13 112l-20 13q-120 -110 -158 -300z" />
    <glyph glyph-name="colon" unicode=":" horiz-adv-x="278" 
d="M20 57q0 41 45 65q37 19 83 19q21 0 26.5 -5.5t5.5 -21.5q0 -10 -5 -29t-5 -28v-44q-6 -24 -34 -24q-116 0 -116 68zM88 357q0 40 45 64q36 19 83 19q20 0 26 -5.5t6 -21.5q0 -10 -5 -29t-5 -27q0 -41 -1 -45q-5 -24 -33 -24q-116 0 -116 69z" />
    <glyph glyph-name="semicolon" unicode=";" horiz-adv-x="278" 
d="M88 357q0 40 45 64q36 19 83 19q20 0 26 -5.5t6 -21.5q0 -10 -5 -29t-5 -27q0 -41 -1 -45q-5 -24 -33 -24q-116 0 -116 69zM33 -151q-11 0 -90 -11q59 63 82 153q10 57 19 114q126 -19 126 -45q0 -46 -42 -116q-45 -74 -95 -95z" />
    <glyph glyph-name="less" unicode="&#x3c;" horiz-adv-x="583" 
d="M30 220l17 76l506 193l-20 -86l-386 -152l318 -153l-19 -79z" />
    <glyph glyph-name="equal" unicode="=" horiz-adv-x="556" 
d="M496 300h-444l16 62h444zM471 160h-444l15 62h444z" />
    <glyph glyph-name="greater" unicode="&#x3e;" horiz-adv-x="583" 
d="M553 287l-18 -75l-505 -193l19 85l387 153l-319 152l19 80z" />
    <glyph glyph-name="question" unicode="?" horiz-adv-x="444" 
d="M222 160l-54 34q55 177 120 248q-36 74 -155 171q36 35 72 69q20 18 29 18q20 0 102 -95q86 -100 86 -142q0 -27 -19.5 -66t-42.5 -52q-46 -28 -72 -59q-37 -44 -66 -126zM58 18q0 40 45 64q36 19 83 19q20 0 26 -5.5t6 -21.5q0 -10 -5 -29t-5 -27q0 -30 22 -64
q-32 -2 -45 -2q-127 0 -127 66z" />
    <glyph glyph-name="at" unicode="@" horiz-adv-x="36" 
 />
    <glyph glyph-name="A" unicode="A" horiz-adv-x="611" 
d="M551 0l-133 -40q-27 86 -46 248q-51 21 -94 21h-25q-17 -1 -26 -1q-73 -135 -130 -210q-47 -62 -66 -62q-37 0 -37 89q0 64 27 102.5t125 110.5q26 19 100 155q85 158 90 245q11 3 171 46q-17 -102 -17 -237q0 -295 61 -467zM368 289v69q0 3 12 221h-7
q-58 -188 -121 -296q32 8 62 8q18 0 54 -2z" />
    <glyph glyph-name="B" unicode="B" horiz-adv-x="619" 
d="M154 669l154 39q-2 -31 -33 -176l2 -2q43 57 85 113q55 65 102 65q38 0 85 -36.5t47 -73.5q0 -161 -198 -239l3 -2q50 11 88 11q44 0 72.5 -26t28.5 -68q0 -116 -106 -207t-252 -91q-113 0 -172 41q-46 33 -46 78q12 16 50.5 106.5t56.5 146.5q22 68 28 133q5 52 5 188z
M278 298l-1 65q127 9 181 198q-4 28 -46 37q-102 -63 -162 -228q-30 -84 -67 -273q31 -17 61 -34q47 -24 64 -24q35 0 82 78q45 75 45 123q0 11 -17 56q-38 11 -47 11q-13 0 -27 -4q-17 -5 -66 -5z" />
    <glyph glyph-name="C" unicode="C" horiz-adv-x="556" 
d="M620 600l-83 -96q-38 38 -87 73q-52 37 -77 41q-58 -41 -111 -189q-48 -137 -48 -224q0 -25 36 -76q43 -61 89 -61q45 -1 155 76l26 -39q-165 -145 -263 -145q-71 0 -130 78.5t-59 170.5q0 97 44 208q48 123 128 199q93 88 207 88q71 0 173 -104z" />
    <glyph glyph-name="D" unicode="D" horiz-adv-x="611" 
d="M316 629h-2q-43 -295 -142 -501q75 -62 128 -62q44 0 95 59q56 66 56 146q0 132 -135 358zM288 659l140 45q82 -146 107 -204q50 -116 50 -217q0 -109 -55 -192q-41 -62 -107 -101q-49 -30 -72 -30q-38 0 -138 79q-71 -79 -111 -79q-22 0 -53.5 42t-34.5 68q0 2 35 95
q45 118 76 225q47 162 66 314h2z" />
    <glyph glyph-name="E" unicode="E" horiz-adv-x="500" 
d="M487 410l-58 -122q-56 14 -111 14q-62 0 -100 -8q-11 -34 -33 -138l-72 -67l2 -2q89 24 226 24q50 0 120 -9l-45 -132q-87 20 -185 20q-57 0 -127 -7q-73 -7 -90 -15q21 64 44 141q20 132 33 197q22 112 51 196q27 18 99 71v2q-84 -14 -130 -23l53 113q159 39 291 39
q67 0 125 -8l-49 -128q-90 15 -148 15q-12 0 -33.5 -1.5t-32.5 -1.5q-47 -104 -86 -229l2 -2q15 17 42 49q132 12 161 12h51z" />
    <glyph glyph-name="F" unicode="F" horiz-adv-x="500" 
d="M137 550l41 106q154 48 301 48q47 0 115 -9l-44 -128q-79 16 -172 16q-47 0 -59 -4q-61 -136 -89 -273l2 -2l49 54q111 21 165 21h51l-58 -125q-52 13 -110 13q-89 0 -107 -7q-20 -103 -20 -198q0 -20 4 -58l-158 -47q6 95 45 275t74 277l85 60l-2 2q-27 -3 -113 -21z
" />
    <glyph glyph-name="G" unicode="G" horiz-adv-x="611" 
d="M616 585l-85 -83q-84 83 -164 116q-106 -90 -171 -416q0 -23 26 -69q30 -50 56 -52q32 -1 89 49q67 60 83 140q-52 -7 -91 -7q-47 0 -67 11l53 110q52 -13 100 -13q90 0 189 33l-11 -69q-75 -43 -135 -57l61 -37q-59 -85 -71 -256l-127 -36q12 90 45 147l-2 2
q-134 -130 -201 -130q-47 0 -97 85q-46 79 -46 134q0 61 30 159q27 90 57 144q68 122 144 172q64 42 151 42q45 0 101 -40q47 -33 83 -79z" />
    <glyph glyph-name="H" unicode="H" horiz-adv-x="667" 
d="M196 659l154 37q-8 -118 -47 -331q86 44 188 66q24 77 76 228l164 45q-66 -131 -116 -293q-51 -166 -51 -258q0 -136 2 -153l-148 -40q0 207 43 370q-94 0 -174 -35q-16 -75 -61 -189q-59 -146 -97 -146q-23 0 -47 47q-24 44 -24 77q0 35 35 99q28 51 59 88q11 14 25 99
q19 117 19 289z" />
    <glyph glyph-name="I" unicode="I" horiz-adv-x="333" 
d="M173 -40l-121 32q115 389 115 597q0 11 -2 35t-2 36l153 44q0 -10 1.5 -29.5t1.5 -29.5q0 -159 -45 -348q-29 -121 -101 -337z" />
    <glyph glyph-name="J" unicode="J" horiz-adv-x="389" 
d="M89 554l33 126l2 2q52 -2 81 -2q72 0 138.5 12t70.5 12h57q-63 -195 -127 -390q-79 -231 -151 -376q54 -5 107 -23l-17 -40q-36 13 -62 13q-42 0 -67 -15q-24 -31 -49 -62q-48 -57 -81 -57t-56 31q-20 28 -20 63q0 36 42.5 62t101.5 28q135 305 159 575q30 25 93 71l-2 2
q-145 -33 -253 -32z" />
    <glyph glyph-name="K" unicode="K" horiz-adv-x="611" 
d="M183 665l145 39q-6 -123 -57 -301l3 -3q62 86 125 172q99 128 145 128q30 0 118 -97q-83 -44 -155 -145l-41 21q5 29 27 60l-2 2q-30 -13 -65 -44q-30 -27 -60 -53q-5 -52 67 -197q74 -149 138 -206l-98 -89q-177 221 -177 346q0 16 7 40q9 30 21 38l-5 12
q-43 -25 -81 -137q-27 -97 -54.5 -194t-51.5 -97q-26 0 -60 44.5t-34 71.5q0 58 39 122q52 85 71 145q37 122 35 322z" />
    <glyph glyph-name="L" unicode="L" horiz-adv-x="500" 
d="M30 -32l46 119q51 343 139 562q8 2 189 55h2q-96 -158 -155 -368q-23 -90 -45 -181l-72 -68l2 -2q84 32 218 32q37 0 116 -11q-25 -56 -48 -138h-2q-82 24 -145 24q-67 0 -243 -24h-2z" />
    <glyph glyph-name="M" unicode="M" horiz-adv-x="778" 
d="M238 663l164 41q-26 -131 -26 -274q0 -67 5 -134q9 -111 28 -111q15 0 54 53q45 63 86 156q52 118 84 257q6 28 10 35q9 18 27 18q31 0 67.5 -48t36.5 -83q0 -2 -18 -42q-20 -48 -32 -110q-18 -93 -18 -220q0 -106 17 -199l-133 -34q-16 68 -16 146q0 102 42 322l-2 2
q-41 -130 -148 -304t-143 -174q-25 0 -43 106q-16 102 -16 238q0 38 2 98q2 76 2 97l-2 2q-39 -176 -71 -278q-48 -150 -113 -259l-106 48q253 333 262 651z" />
    <glyph glyph-name="N" unicode="N" horiz-adv-x="667" 
d="M529 -23l-108 -29q-142 252 -171 587h-2q-34 -314 -163 -589l-110 52q218 359 231 662l161 44q-3 -42 -3 -82q0 -141 57 -328q49 -157 78 -190q19 50 39 131q24 98 24 148q0 10 -21 70.5t-21 109.5q0 57 63 104q50 37 77 37q32 0 32 -37q0 -58 -45 -255
q-50 -222 -118 -435z" />
    <glyph glyph-name="O" unicode="O" horiz-adv-x="611" 
d="M330 704l81 -46q2 0 64 19t70 19q20 0 44 -56q29 -67 29 -159q0 -128 -75 -259q-63 -109 -157 -189q-87 -73 -137 -73q-46 0 -114 87q-73 93 -73 173q0 136 76.5 277t191.5 207zM424 632h-15q-201 -165 -201 -479q0 -37 56 -119q204 205 204 395q0 84 -44 203z" />
    <glyph glyph-name="P" unicode="P" horiz-adv-x="556" 
d="M187 661l150 43q-10 -36 -22 -102q-13 -74 -20 -102l2 -2q34 79 86.5 140.5t89.5 61.5q50 0 93.5 -40t43.5 -82q0 -129 -89 -233q-84 -98 -175 -98q-19 0 -37 23t-18 50q0 24 25 27q9 1 37 -9q35 -12 38 -13q77 85 85 226l-43 31q-91 -48 -148 -203q-27 -73 -64 -248
q-24 -111 -39 -145q-11 -26 -31 -26q-29 0 -62 54q-31 51 -31 84q0 38 43 123l46 88q23 79 31 136q12 87 9 216z" />
    <glyph glyph-name="Q" unicode="Q" horiz-adv-x="611" 
d="M522 -23l15 -44q-168 -133 -352 -133q-67 0 -121 21q-6 2 -28 61t-22 80q0 6 6 6q10 0 48 -14q47 -17 85 -25q63 -13 134 -13q121 0 235 61zM330 704l81 -46q2 0 64 19t70 19q20 0 44 -56q29 -67 29 -159q0 -128 -75 -259q-63 -109 -157 -189q-87 -73 -137 -73
q-46 0 -114 87q-73 93 -73 173q0 136 76 275q77 143 192 209zM424 632h-15q-201 -165 -201 -479q0 -37 56 -120q204 206 204 396q0 84 -44 203z" />
    <glyph glyph-name="R" unicode="R" horiz-adv-x="611" 
d="M184 663l150 41q-4 -50 -31 -182l2 -2q27 60 75 115q60 69 110 69q46 0 89 -50t43 -97q0 -88 -68 -146q-40 -34 -152 -87q8 -42 67.5 -137.5t105.5 -137.5l-117 -89q-65 79 -121 198q-52 109 -52 152q0 12 10 18q50 25 100 51q43 25 61 57q20 37 20 103q0 30 -40 51
q-74 -51 -116 -124q-32 -56 -54 -144q-18 -79 -36 -159q-33 -135 -42 -162q-14 -41 -31 -41q-31 0 -69 46t-38 83q0 26 39 112q32 68 61 120q34 61 34 342z" />
    <glyph glyph-name="S" unicode="S" horiz-adv-x="500" 
d="M-14 44l64 119q128 -86 205 -86q71 0 114 80q-54 64 -130 122q-86 66 -98 78q-38 39 -38 89q0 79 78 166q81 92 166 92q112 0 228 -81l-68 -113q-81 45 -100 54q-67 32 -106 32q-38 0 -58 -18q-11 -9 -36 -51q22 -48 92 -104l114 -90q56 -52 56 -101q0 -85 -82 -176
q-87 -96 -186 -96q-59 0 -135 36q-56 26 -80 48z" />
    <glyph glyph-name="T" unicode="T" horiz-adv-x="444" 
d="M88 568l47 122q74 -26 155 -26t155.5 13t66.5 13h22l-39 -115q-89 -28 -180 -32v-2l55 -30q-35 -97 -57 -218q-20 -112 -20 -194q0 -52 8 -96l-160 -43q4 269 111 581q-73 0 -164 27z" />
    <glyph glyph-name="U" unicode="U" horiz-adv-x="667" 
d="M164 659l155 45q-2 -123 -28 -236q-27 -116 -90 -277q31 -75 66 -98q72 45 121 131.5t91 240.5q46 170 63 207q15 32 41 32q37 0 68 -53q25 -45 25 -77q0 -50 -94 -205q-12 -19 -20 -72.5t-8 -105.5q0 -130 22 -196l-144 -35q-8 25 -8 84q0 94 18 182l-2 2
q-23 -68 -105 -165q-87 -103 -135 -103q-42 0 -90 69q-46 66 -46 111q0 23 27 120q35 127 49 191q26 122 24 208z" />
    <glyph glyph-name="V" unicode="V" horiz-adv-x="556" 
d="M157 658l179 46q-58 -126 -98 -285q-44 -174 -44 -301q0 -1 17 -23q72 54 156 168q82 111 112 193q-17 96 -17 137q0 49 64 97q55 42 83 42q19 0 24 -5.5t5 -24.5q0 -33 -46 -153q-50 -126 -103 -222q-94 -169 -186 -278q-82 -97 -117 -97q-23 0 -69 64q-55 75 -55 153
q0 98 29 245q28 141 66 244z" />
    <glyph glyph-name="W" unicode="W" horiz-adv-x="833" 
d="M157 661l161 43q-64 -177 -89 -265q-47 -165 -47 -270q0 -16 13 -33q1 -1 26 -28q117 128 177 318q26 96 51 192q16 30 76 57q57 25 100 25q6 0 14.5 -7.5t8.5 -17.5q0 -30 -25 -78q-36 -70 -73 -140q-31 -63 -31 -244q0 -44 3 -84q79 68 159 189q69 105 69 129
q0 11 -8.5 67t-8.5 84q0 42 62 89q57 43 94 43q8 0 14 -9.5t6 -19.5q0 -45 -37 -133q-25 -63 -108 -234q-40 -82 -130 -218q-106 -160 -138 -160q-24 0 -63.5 51.5t-39.5 83.5q0 120 19 241l-2 2q-10 -59 -93 -211q-88 -163 -127 -163q-29 0 -79 71q-55 77 -55 141
q0 70 39 244q32 146 62 245z" />
    <glyph glyph-name="X" unicode="X" horiz-adv-x="556" 
d="M148 664l145 40q-3 -37 -3 -86q0 -110 16 -179q95 135 148 190.5t88 55.5q29 0 53 -25q27 -28 27 -70q0 -22 -22 -67q-18 -38 -37 -75l-42 21q13 46 23 73q-32 -8 -71 -43q-17 -16 -144 -145q20 -102 111 -364q-36 -11 -109 -30q-68 131 -106 271q-104 -123 -219 -357
l-56 26q96 226 242 418q-44 159 -44 346z" />
    <glyph glyph-name="Y" unicode="Y" horiz-adv-x="556" 
d="M249 49l-89 16q-49 224 -49 391q0 113 23 207l156 41q-29 -150 -29 -399q0 -20 4 -85q6 -81 7 -106l16 -6q129 243 203 616l121 -74q-113 -373 -327 -682q45 -4 113 -22l-15 -43q-36 7 -55 9q-32 4 -85 6q-89 -120 -151 -120q-24 0 -44 35q-18 31 -18 61q0 47 72 71
q46 11 92 23q17 7 32 27q11 17 23 34z" />
    <glyph glyph-name="Z" unicode="Z" horiz-adv-x="444" 
d="M412 104l-46 -130q-19 1 -63 8q-40 7 -63 7q-123 0 -187 -29l-53 110q-10 20 -8 33q1 6 80 87q101 104 161 175q98 116 134 197q-115 -25 -181 -25q-73 0 -84 13l39 133q81 -19 156 -19q100 0 211 32h28l-22 -110q-1 -3 -39 -39q-58 -54 -127 -135q-105 -124 -237 -313
l2 -2q50 23 179 23q32 0 120 -16z" />
    <glyph glyph-name="bracketleft" unicode="[" horiz-adv-x="556" 
d="M377 764l-13 -64h-63l-186 -721h102l-13 -64h-193l160 849h206z" />
    <glyph glyph-name="backslash" unicode="\" horiz-adv-x="382" 
d="M-2 658l346 -721l60 20l-322 732z" />
    <glyph glyph-name="bracketright" unicode="]" horiz-adv-x="556" 
d="M11 -85l13 64h63l185 721h-101l13 64h193l-160 -849h-206z" />
    <glyph glyph-name="asciicircum" unicode="^" horiz-adv-x="611" 
d="M432 774l-158 -50l-5 33l176 92v-1l1 1l142 -95l-17 -33z" />
    <glyph glyph-name="underscore" unicode="_" horiz-adv-x="525" 
d="M530 -138h-530v50h530v-50z" />
    <glyph glyph-name="grave" unicode="`" horiz-adv-x="481" 
d="M124 781l216 -61l13 42l-199 104z" />
    <glyph glyph-name="a" unicode="a" horiz-adv-x="500" 
d="M142 97l25 -28q27 13 73 67q36 43 52 71q11 87 34 156l-10 6q-125 -82 -174 -272zM267 453l83 -58q5 10 26.5 28t30.5 18q23 0 46 -32q21 -28 21 -45q0 -28 -35 -94t-35 -89q0 -122 38 -187l-114 -35q-26 54 -30 156h-7q-37 -52 -80 -95q-62 -61 -100 -61q-32 0 -73.5 53
t-41.5 89q0 74 92 188q86 105 179 164z" />
    <glyph glyph-name="b" unicode="b" horiz-adv-x="500" 
d="M185 256l-1 2l3 -2q22 50 91 121q73 76 111 76q29 0 59.5 -35t30.5 -74q0 -67 -49.5 -162t-120.5 -161q-80 -73 -155 -73q-47 0 -92 58q-41 54 -41 97q0 26 36 85q10 16 38 179q31 177 74 278q12 29 75 58t102 29q19 0 19 -17l-37 -66q-45 -80 -77 -159
q-47 -117 -66 -234zM333 300l-20 15q-59 -31 -116 -116q-51 -77 -46 -102q3 -12 23 -36t33 -33q104 104 126 272z" />
    <glyph glyph-name="c" unicode="c" horiz-adv-x="444" 
d="M289 387l-42 -9q-19 -28 -55 -131.5t-36 -127.5q0 -9 20 -37.5t28 -28.5q36 0 179 95l-6 -48q-2 -18 -4 -22q-5 -10 -25 -24q-44 -30 -107 -61q-76 -38 -107 -38q-36 0 -78 51t-42 89q0 71 49 176q44 96 76 120q82 62 185 62q58 0 73 -27q16 -30 33 -148l-121 -27z" />
    <glyph glyph-name="d" unicode="d" horiz-adv-x="500" 
d="M329 368l-7 5q-126 -91 -180 -274q18 -18 34 -27q75 57 130 150q5 74 23 146zM435 -12l-125 -28q-12 49 -12 100q0 33 5 61l-2 2q-125 -163 -181 -163q-40 0 -83 55q-41 52 -41 90q0 57 85 166q87 113 185 174l73 -41q26 90 53 181q46 147 76 147q22 0 53 -52.5t31 -91.5
q0 -14 -36 -78q-44 -79 -66 -142q-36 -101 -36 -207q0 -77 21 -173z" />
    <glyph glyph-name="e" unicode="e" horiz-adv-x="444" 
d="M316 453q53 0 73 -21.5t20 -79.5q0 -62 -13 -88q-17 -32 -72 -53q-51 -20 -178 -46q3 -62 54 -110q98 28 177 90l-3 -49q-1 -23 -20 -39q-14 -11 -82 -50q-38 -21 -83 -36q-38 -12 -53 -12q-42 0 -84 48.5t-42 91.5q0 44 17 93q11 34 53 128q27 59 86 95q63 38 150 38z
M279 384l-50 -7q-31 -55 -67 -152q69 9 93 32.5t24 76.5v50z" />
    <glyph glyph-name="f" unicode="f" horiz-adv-x="333" 
d="M347 351h-102q-73 -173 -73 -319q0 -31 6 -93.5t6 -87.5q0 -40 -46 -74q-39 -29 -65 -29q-31 0 -31 78q0 74 26 222t26 222q0 15 -1 45t-1 45q0 27 8 37q12 13 50 19q41 120 87 208q55 108 89 108q22 0 50 -40.5t28 -71.5q0 -16 -24 -42q-44 -48 -54 -61
q-35 -47 -55 -104h90z" />
    <glyph glyph-name="g" unicode="g" horiz-adv-x="500" 
d="M270 444l75 -47l135 47q-9 -243 -121 -472q23 4 68 12l3 -49q-32 -7 -121 -36q-26 -53 -62 -95q-48 -56 -89 -56q-24 0 -46.5 26t-22.5 52q0 92 164 131q44 77 50 167l-2 2q-17 -42 -82 -102q-69 -65 -108 -65q-32 0 -71.5 50t-39.5 94q0 74 93 186q87 104 177 155z
M146 95l29 -29q74 50 122.5 130.5t52.5 167.5l-17 7q-72 -39 -122 -118q-46 -71 -65 -158z" />
    <glyph glyph-name="h" unicode="h" horiz-adv-x="500" 
d="M390 -4l-145 -36q17 184 86 350l-25 23q-132 -63 -158 -273q-6 -50 -10 -63q-10 -37 -34 -37q-31 0 -64.5 40.5t-33.5 72.5q0 28 26 68q29 44 34 93q8 77 39 208q35 151 65 206q12 22 80.5 53t97.5 31q15 0 15 -13q0 -6 -27 -48q-37 -58 -68 -128q-49 -110 -92 -259l2 -2
q29 50 95 106q73 61 118 61q27 0 50 -31q19 -25 19 -37q0 -17 -27 -123q-31 -120 -43 -262z" />
    <glyph glyph-name="i" unicode="i" horiz-adv-x="278" 
d="M109 410l141 35q-88 -192 -98 -450l-136 -35q21 254 93 450zM140 573q0 28 43 57q39 26 68 26q23 0 23 -33v-24q0 -24 24 -65q-44 -11 -73 -11q-85 0 -85 50z" />
    <glyph glyph-name="j" unicode="j" horiz-adv-x="278" 
d="M104 395l131 38q-15 -194 -99 -445q-80 -240 -120 -240q-25 0 -54 51q-26 48 -26 81q0 30 30 75q51 78 85 148q42 88 53 292zM134 573q0 28 43 57q39 26 68 26q23 0 23 -33v-24q0 -24 24 -66q-44 -11 -73 -11q-85 0 -85 51z" />
    <glyph glyph-name="k" unicode="k" horiz-adv-x="500" 
d="M284 256l10 -18q15 25 56 66v10q-106 -11 -151 -76q-36 -52 -49 -169q-8 -70 -17.5 -89.5t-31.5 -19.5q-31 0 -63 47q-30 43 -30 75q0 20 22 48q26 34 35 72q21 112 43 224q38 186 73 232q22 29 90 54q57 20 80 20q12 0 12 -11q0 -13 -30 -67q-43 -80 -70 -141
q-48 -109 -82 -237l2 -2q23 47 96 104q76 61 120 61q46 0 94 -140q-89 0 -177 -98q72 -113 141 -182l-88 -83q-41 34 -89 97q-56 74 -56 112t60 111z" />
    <glyph glyph-name="l" unicode="l" horiz-adv-x="278" 
d="M181 -7l-125 -33q-6 20 -6 100q0 113 28 256q20 103 34 142q25 76 51 152q44 122 67 122q22 0 52.5 -47t30.5 -85q0 -28 -37 -89q-47 -79 -67 -136q-37 -103 -37 -236q0 -97 9 -146z" />
    <glyph glyph-name="m" unicode="m" horiz-adv-x="722" 
d="M203 453v-76q0 -12 -8 -76l2 -2q19 43 94 98q71 52 100 52q15 0 36.5 -21t21.5 -38q0 -5 -10 -75l2 -2q34 47 91 92q61 48 94 48q20 0 44.5 -33.5t22.5 -52.5q-17 -62 -35 -124q-31 -117 -35 -247l-146 -37q10 185 84 346l-17 26q-57 -7 -103 -90q-40 -72 -50 -154
q-9 -74 -19.5 -99t-31.5 -25q-33 0 -64 42t-31 76q0 20 34 77q39 66 55 145l-17 26q-42 -3 -83 -53q-53 -65 -67 -183q-10 -82 -26 -112q-11 -22 -34 -22q-22 0 -56.5 44.5t-34.5 67.5q0 31 31.5 83t31.5 96q0 138 -2 167z" />
    <glyph glyph-name="n" unicode="n" horiz-adv-x="500" 
d="M70 416l132 36q1 -10 1 -30q0 -61 -21 -127l2 -2q25 49 98 104t120 55q9 0 38 -30t29 -45q0 -11 -17 -63q-23 -67 -35 -123q-20 -92 -26 -194l-142 -38q9 98 31 196q25 110 52 149l-27 28q-45 -14 -90 -81q-38 -57 -43 -92q-19 -132 -37 -172q-12 -28 -37 -28
q-30 0 -61 46q-29 42 -29 76q0 15 17 40q22 34 31 59q17 45 17 109q0 85 -3 127z" />
    <glyph glyph-name="o" unicode="o" horiz-adv-x="444" 
d="M223 453l34 -36q29 10 57 21q41 15 57 15q51 0 51 -117q0 -93 -57 -187q-48 -80 -120 -137q-67 -53 -107 -53q-41 0 -81.5 54t-40.5 104q0 97 63 197t144 139zM148 63l19 -12q55 42 89 102q36 65 36 130q0 44 -18 98h-18q-49 -49 -80 -133q-30 -79 -30 -149q0 -6 1 -17.5
t1 -18.5z" />
    <glyph glyph-name="p" unicode="p" horiz-adv-x="500" 
d="M76 411l136 33q0 -34 -5 -84q-8 -69 -9 -82l2 -2q39 59 85 107q66 69 108 69q20 0 47 -31q32 -37 32 -82q0 -99 -56 -193q-46 -75 -115 -130q-60 -49 -91 -49q-16 0 -29 16.5t-13 37.5q0 22 16 32q20 13 76 16q64 128 72 235l-21 24q-59 -43 -100 -128q-31 -62 -60 -166
q-23 -82 -45 -165q-10 -35 -21 -70q-19 -51 -39 -51q-29 0 -60 54q-28 49 -28 83q0 18 22 67q43 92 70 161q19 47 24 125q2 41 2 173z" />
    <glyph glyph-name="q" unicode="q" horiz-adv-x="500" 
d="M280 444l83 -49q15 39 47 117l107 29q-84 -229 -124 -409q-31 -136 -31 -210q0 -29 8 -44q11 -20 49 -46q-18 -23 -50 -50q-39 -34 -56 -34q-25 0 -53 32q-32 35 -32 79q0 70 36 216h-2q-31 -37 -62 -73q-41 -43 -74 -43q-32 0 -76 55q-42 52 -42 85q0 74 90 190.5
t182 154.5zM154 105l32 -33q75 63 104 112q13 43 60 175l-20 11q-119 -73 -176 -265z" />
    <glyph glyph-name="r" unicode="r" horiz-adv-x="333" 
d="M60 421l122 32q0 -7 1 -20v-19q0 -60 -14 -138l2 -2q84 171 138 171q22 0 49 -32q-13 -29 -52 -142l-77 13q-53 -41 -69 -141q-29 -184 -60 -184q-30 0 -62 43q-30 39 -30 65q0 36 29.5 85t29.5 99q0 62 -3 112z" />
    <glyph glyph-name="s" unicode="s" horiz-adv-x="389" 
d="M-10 24l54 108q34 -22 84 -43q56 -24 85 -24q35 0 35 28q0 10 -48 42q-64 43 -90 66q-48 44 -48 83t50 100q55 69 109 69q73 0 178 -71l-57 -90q-35 20 -71 40q-45 23 -77 23q-25 0 -40 -22q11 -18 101 -86q75 -57 75 -98q0 -51 -44 -115q-52 -75 -118 -75q-77 0 -178 65
z" />
    <glyph glyph-name="t" unicode="t" horiz-adv-x="333" 
d="M44 342l16 62l66 4l40 102l114 30l-43 -138l116 7l-17 -64h-115q-41 -171 -41 -234q0 -23 2 -40l24 -20q41 9 85 28q-6 -40 -14.5 -51.5t-45.5 -34.5q-57 -34 -99 -33q-34 0 -61 45q-25 40 -25 79q0 50 22 133q18 64 36 127z" />
    <glyph glyph-name="u" unicode="u" horiz-adv-x="500" 
d="M156 104l29 -31q129 85 151 268q13 108 44 108q26 0 62 -40.5t36 -74.5q0 -23 -18 -54q-24 -44 -31 -64q-16 -46 -12 -105q2 -39 15 -122l-127 -34q-8 30 -8 83q0 4 3 67l-2 2q-36 -44 -93 -91q-72 -57 -112 -57q-25 0 -48 26t-23 50q0 13 17 66q22 69 34 123
q20 91 26 191l144 38q-15 -186 -87 -349z" />
    <glyph glyph-name="v" unicode="v" horiz-adv-x="444" 
d="M90 411l152 42q-75 -131 -90 -327l16 -21q60 52 115 135q50 76 50 102q0 -4 -10.5 26.5t-10.5 65.5q0 47 54 93q46 39 69 39q27 0 27 -38q0 -80 -69 -224q-60 -126 -139 -235t-109 -109q-23 0 -68 57.5t-45 94.5q0 96 58 299z" />
    <glyph glyph-name="w" unicode="w" horiz-adv-x="667" 
d="M104 419l139 34q-32 -64 -57 -164q-28 -106 -28 -177l17 -20q109 87 109 111q0 139 40 196q17 23 54 38.5t70 15.5q30 0 30 -38q0 -44 -39 -99l-42 -54q-3 -10 -3 -25q0 -68 25 -127q33 21 92 108t58 111q-7 19 -15 38q-14 39 -14 81q3 32 53 74q47 40 71 40q26 0 26 -27
q0 -93 -63 -237q-56 -130 -133 -234t-118 -104q-24 0 -56 70q-31 67 -28 98h-2q-13 -32 -71 -98q-62 -70 -86 -70q-23 0 -57 42q-38 49 -38 100q0 75 20 167q19 88 46 150z" />
    <glyph glyph-name="x" unicode="x" horiz-adv-x="389" 
d="M66 418l116 40q-3 -61 8 -165q123 140 146 140t47.5 -27.5t24.5 -54.5q0 -36 -74 -147l-32 13q17 43 22 79l-15 12q-25 -15 -96 -91q22 -96 83 -229l-113 -36q-33 58 -57 160q-73 -93 -135 -220l-29 44q76 169 140 247q-13 41 -25 117.5t-11 117.5z" />
    <glyph glyph-name="y" unicode="y" horiz-adv-x="500" 
d="M86 413l143 39q-15 -161 -83 -348l28 -25q142 83 162 337l140 36q-36 -290 -133 -478q36 10 68 14l10 -47q-89 -19 -127 -42q-78 -151 -153 -151q-32 0 -52 30q-17 27 -17 62q0 64 164 121q17 49 46 146l-2 2q-121 -150 -203 -150q-27 0 -48 26.5t-21 54.5q0 9 16 57
q21 62 34 120q20 91 28 196z" />
    <glyph glyph-name="z" unicode="z" horiz-adv-x="389" 
d="M68 331l32 112q40 -10 110 -10q74 0 187 20l-22 -100q-69 -55 -268 -269l2 -2q40 11 89 11q30 0 124 -12l-37 -111q-41 7 -106 7q-50 0 -146 -18l-41 115q69 61 151.5 147.5t88.5 104.5q-42 -9 -81 -9q-56 0 -83 14z" />
    <glyph glyph-name="braceleft" unicode="{" horiz-adv-x="416" 
d="M407 764l-12 -59h-49q-49 -12 -46 -46l-52 -203q-10 -25 -24 -43q-35 -43 -88 -49q66 -19 66 -79q0 -20 -6 -30q-1 3 -58 -225q-3 -13 -3 -23q0 -46 38 -41l57 -1l-11 -53h-89q-78 18 -78 72q0 14 8 46q15 72 49 244q8 45 -64 97q45 11 67 35q16 17 27 51l46 224
q24 42 48.5 58.5t75.5 23.5z" />
    <glyph glyph-name="bar" unicode="|" horiz-adv-x="382" 
d="M154 717h79v-751h-79v751z" />
    <glyph glyph-name="braceright" unicode="}" horiz-adv-x="416" 
d="M5 -88l12 58h49q49 12 46 46l52 204q9 24 24 42q34 43 88 49q-66 20 -66 79q0 21 5 30q1 -2 59 225q3 13 3 24q0 45 -38 40h-58l12 55h89q78 -19 78 -73q0 -14 -9 -46q-14 -72 -48 -244q-8 -45 64 -97q-45 -10 -68 -35q-15 -16 -26 -50l-46 -224q-24 -42 -48.5 -58.5
t-76.5 -23.5z" />
    <glyph glyph-name="asciitilde" unicode="~" horiz-adv-x="519" 
d="M190 786q-36 -5 -67 -48l-26 7q30 93 110 93q21 0 67.5 -23.5t69.5 -23.5q51 7 80 47l26 -7q-13 -41 -44 -66q-34 -27 -76 -27q-21 0 -74.5 24.5t-65.5 23.5z" />
    <glyph glyph-name="Adieresis" unicode="&#xc4;" horiz-adv-x="611" 
d="M551 0l-133 -40q-27 86 -46 248q-51 21 -94 21h-25q-17 -1 -26 -1q-73 -135 -130 -210q-47 -62 -66 -62q-37 0 -37 89q0 64 27 102.5t125 110.5q26 19 100 155q85 158 90 245q11 3 171 46q-17 -102 -17 -237q0 -295 61 -467zM368 289v69q0 3 12 221h-7
q-58 -188 -121 -296q32 8 62 8q18 0 54 -2zM288 788q3 23 20.5 38.5t39.5 15.5t35.5 -15.5t10.5 -38.5q-3 -22 -21 -37.5t-40 -15.5t-35.5 15.5t-9.5 37.5zM478 788q3 23 20.5 38.5t39.5 15.5t35.5 -15.5t10.5 -38.5q-3 -22 -21 -37.5t-40 -15.5t-35.5 15.5t-9.5 37.5z" />
    <glyph glyph-name="Aring" unicode="&#xc5;" horiz-adv-x="611" 
d="M551 0l-133 -40q-27 86 -46 248q-51 21 -94 21h-25q-17 -1 -26 -1q-73 -135 -130 -210q-47 -62 -66 -62q-37 0 -37 89q0 64 27 102.5t125 110.5q26 19 100 155q85 158 90 245q11 3 171 46q-17 -102 -17 -237q0 -295 61 -467zM368 289v69q0 3 12 221h-7
q-58 -188 -121 -296q32 8 62 8q18 0 54 -2zM425 842q27 0 46 -19t19 -46t-19 -46t-46 -19t-46 19t-19 46t19 46t46 19zM425 812q-15 0 -25 -10t-10 -25q0 -14 10 -24.5t25 -10.5q14 0 24.5 10.5t10.5 24.5q0 15 -10.5 25t-24.5 10z" />
    <glyph glyph-name="Ccedilla" unicode="&#xc7;" horiz-adv-x="556" 
d="M266 -40q-11 -30 -12 -43q5 3 19 2q23 -2 24 -2q23 0 36 -22q11 -18 11 -38q0 -27 -24 -52q-19 -18 -33 -24q-17 -7 -50 -8q-48 -1 -56 14q-3 5 -3 42q10 -6 21 -13q1 0 24 -3q16 -2 30.5 9t14.5 29q0 28 -28 28q-6 0 -18.5 -5.5t-13.5 -5.5q-13 0 -13 17q0 15 12 39
q11 20 22 39q-64 17 -112.5 90.5t-48.5 155.5q0 97 44 208q48 123 128 199q93 88 207 88q71 0 173 -104l-83 -96q-38 38 -87 73q-52 37 -77 41q-58 -41 -111 -189q-48 -137 -48 -224q0 -25 36 -76q43 -61 89 -61q45 -1 155 76l26 -39q-156 -137 -254 -145z" />
    <glyph glyph-name="Eacute" unicode="&#xc9;" horiz-adv-x="500" 
d="M487 410l-58 -122q-56 14 -111 14q-62 0 -100 -8q-11 -34 -33 -138l-72 -67l2 -2q89 24 226 24q50 0 120 -9l-45 -132q-87 20 -185 20q-57 0 -127 -7q-73 -7 -90 -15q21 64 44 141q20 132 33 197q22 112 51 196q27 18 99 71v2q-84 -14 -130 -23l53 113q159 39 291 39
q67 0 125 -8l-49 -128q-90 15 -148 15q-12 0 -33.5 -1.5t-32.5 -1.5q-47 -104 -86 -229l2 -2q15 17 42 49q132 12 161 12h51zM508 781l-216 -61l-14 42l199 104z" />
    <glyph glyph-name="Ntilde" unicode="&#xd1;" horiz-adv-x="667" 
d="M529 -23l-108 -29q-142 252 -171 587h-2q-34 -314 -163 -589l-110 52q218 359 231 662l161 44q-3 -42 -3 -82q0 -141 57 -328q49 -157 78 -190q19 50 39 131q24 98 24 148q0 10 -21 70.5t-21 109.5q0 58 63 109q51 42 77 42q32 0 32 -37q0 -59 -45 -260
q-51 -229 -118 -440zM390 786q-36 -5 -67 -48l-26 7q30 93 110 93q21 0 67.5 -23.5t69.5 -23.5q51 7 80 47l26 -7q-13 -41 -44 -66q-34 -27 -76 -27q-21 0 -74.5 24.5t-65.5 23.5z" />
    <glyph glyph-name="Odieresis" unicode="&#xd6;" horiz-adv-x="611" 
d="M330 704l81 -46q2 0 64 19t70 19q20 0 44 -56q29 -67 29 -159q0 -128 -75 -259q-63 -109 -157 -189q-87 -73 -137 -73q-46 0 -114 87q-73 93 -73 173q0 136 76.5 277t191.5 207zM424 632h-15q-201 -165 -201 -479q0 -37 56 -119q204 205 204 395q0 84 -44 203zM298 788
q3 23 20.5 38.5t39.5 15.5t35.5 -15.5t10.5 -38.5q-3 -22 -21 -37.5t-40 -15.5t-35.5 15.5t-9.5 37.5zM488 788q3 23 20.5 38.5t39.5 15.5t35.5 -15.5t10.5 -38.5q-3 -22 -21 -37.5t-40 -15.5t-35.5 15.5t-9.5 37.5z" />
    <glyph glyph-name="Udieresis" unicode="&#xdc;" horiz-adv-x="667" 
d="M164 659l155 45q-2 -123 -28 -236q-27 -116 -90 -277q31 -75 66 -98q72 45 121 131.5t91 240.5q46 170 63 207q15 32 41 32q37 0 68 -53q25 -45 25 -77q0 -50 -94 -205q-12 -19 -20 -72.5t-8 -105.5q0 -130 22 -196l-144 -35q-8 25 -8 84q0 94 18 182l-2 2
q-23 -68 -105 -165q-87 -103 -135 -103q-42 0 -90 69q-46 66 -46 111q0 23 27 120q35 127 49 191q26 122 24 208zM278 788q3 23 20.5 38.5t39.5 15.5t35.5 -15.5t10.5 -38.5q-3 -22 -21 -37.5t-40 -15.5t-35.5 15.5t-9.5 37.5zM468 788q3 23 20.5 38.5t39.5 15.5t35.5 -15.5
t10.5 -38.5q-3 -22 -21 -37.5t-40 -15.5t-35.5 15.5t-9.5 37.5z" />
    <glyph glyph-name="aacute" unicode="&#xe1;" horiz-adv-x="500" 
d="M142 97l25 -28q27 13 73 67q36 43 52 71q11 87 34 156l-10 6q-125 -82 -174 -272zM267 453l83 -58q5 10 26.5 28t30.5 18q23 0 46 -32q21 -28 21 -45q0 -28 -35 -94t-35 -89q0 -122 38 -187l-114 -35q-26 54 -30 156h-7q-37 -52 -80 -95q-62 -61 -100 -61q-32 0 -73.5 53
t-41.5 89q0 74 92 188q86 105 179 164zM476 532l-194 -55l-12 38l179 94z" />
    <glyph glyph-name="agrave" unicode="&#xe0;" horiz-adv-x="500" 
d="M142 97l25 -28q27 13 73 67q36 43 52 71q11 87 34 156l-10 6q-125 -82 -174 -272zM267 453l83 -58q5 10 26.5 28t30.5 18q23 0 46 -32q21 -28 21 -45q0 -28 -35 -94t-35 -89q0 -122 38 -187l-114 -35q-26 54 -30 156h-7q-37 -52 -80 -95q-62 -61 -100 -61q-32 0 -73.5 53
t-41.5 89q0 74 92 188q86 105 179 164zM260 532l195 -55l12 38l-179 94z" />
    <glyph glyph-name="acircumflex" unicode="&#xe2;" horiz-adv-x="500" 
d="M142 97l25 -28q27 13 73 67q36 43 52 71q11 87 34 156l-10 6q-125 -82 -174 -272zM267 453l83 -58q5 10 26.5 28t30.5 18q23 0 46 -32q21 -28 21 -45q0 -28 -35 -94t-35 -89q0 -122 38 -187l-114 -35q-26 54 -30 156h-7q-37 -52 -80 -95q-62 -61 -100 -61q-32 0 -73.5 53
t-41.5 89q0 74 92 188q86 105 179 164zM371 516l-134 -43l-4 28l149 78l1 -1v1l121 -80l-14 -28z" />
    <glyph glyph-name="adieresis" unicode="&#xe4;" horiz-adv-x="500" 
d="M142 97l25 -28q27 13 73 67q36 43 52 71q11 87 34 156l-10 6q-125 -82 -174 -272zM267 453l83 -58q5 10 26.5 28t30.5 18q23 0 46 -32q21 -28 21 -45q0 -28 -35 -94t-35 -89q0 -122 38 -187l-114 -35q-26 54 -30 156h-7q-37 -52 -80 -95q-62 -61 -100 -61q-32 0 -73.5 53
t-41.5 89q0 74 92 188q86 105 179 164zM241 538q3 20 19 34t36 14t32 -14t9 -34q-3 -19 -19 -33t-36 -14t-32 14t-9 33zM394 538q3 20 19 34t36 14t32 -14t9 -34q-3 -19 -19 -33t-36 -14t-32 14t-9 33z" />
    <glyph glyph-name="atilde" unicode="&#xe3;" horiz-adv-x="500" 
d="M142 97l25 -28q27 13 73 67q36 43 52 71q11 87 34 156l-10 6q-125 -82 -174 -272zM267 453l83 -58q5 10 26.5 28t30.5 18q23 0 46 -32q21 -28 21 -45q0 -28 -35 -94t-35 -89q0 -122 38 -187l-114 -35q-26 54 -30 156h-7q-37 -52 -80 -95q-62 -61 -100 -61q-32 0 -73.5 53
t-41.5 89q0 74 92 188q86 105 179 164zM293 526q-31 -4 -58 -40l-22 6q26 78 94 78q18 0 57.5 -20t59.5 -20q42 6 67 40l23 -6q-26 -78 -103 -78q-17 0 -62.5 21t-55.5 19z" />
    <glyph glyph-name="aring" unicode="&#xe5;" horiz-adv-x="500" 
d="M142 97l25 -28q27 13 73 67q36 43 52 71q11 87 34 156l-10 6q-125 -82 -174 -272zM267 453l83 -58q5 10 26.5 28t30.5 18q23 0 46 -32q21 -28 21 -45q0 -28 -35 -94t-35 -89q0 -122 38 -187l-114 -35q-26 54 -30 156h-7q-37 -52 -80 -95q-62 -61 -100 -61q-32 0 -73.5 53
t-41.5 89q0 74 92 188q86 105 179 164zM365 602q27 0 46 -19t19 -46t-19 -46t-46 -19t-46 19t-19 46t19 46t46 19zM365 572q-15 0 -25 -10t-10 -25q0 -14 10 -24.5t25 -10.5q14 0 24.5 10.5t10.5 24.5q0 15 -10.5 25t-24.5 10z" />
    <glyph glyph-name="ccedilla" unicode="&#xe7;" horiz-adv-x="444" 
d="M145 -44q-9 -24 -10 -35h36q20 0 31 -19q10 -15 10 -32q0 -23 -21 -44q-27 -27 -71 -27q-40 -1 -47 11q-3 5 -3 36q9 -5 18 -11q1 0 21 -2q13 -2 25.5 7.5t12.5 24.5q0 24 -24 24q-5 0 -15.5 -4.5t-11.5 -4.5q-11 0 -11 14q0 12 10 32l18 34q-34 14 -66.5 58.5
t-32.5 76.5q0 71 49 176q44 96 76 120q82 62 185 62q58 0 73 -27q16 -30 33 -148l-121 -27l-20 136l-42 -9q-19 -28 -55 -131.5t-36 -127.5q0 -9 20 -37.5t28 -28.5q36 0 179 95l-6 -48q-2 -18 -4 -22q-5 -10 -25 -24q-40 -27 -98 -57q-70 -35 -105 -41z" />
    <glyph glyph-name="eacute" unicode="&#xe9;" horiz-adv-x="444" 
d="M316 453q53 0 73 -21.5t20 -79.5q0 -62 -13 -88q-17 -32 -72 -53q-51 -20 -178 -46q3 -62 54 -110q98 28 177 90l-3 -49q-1 -23 -20 -39q-14 -11 -82 -50q-38 -21 -83 -36q-38 -12 -53 -12q-42 0 -84 48.5t-42 91.5q0 44 17 93q11 34 53 128q27 59 86 95q63 38 150 38z
M279 384l-50 -7q-31 -55 -67 -152q69 9 93 32.5t24 76.5v50zM396 532l-194 -55l-12 38l179 94z" />
    <glyph glyph-name="egrave" unicode="&#xe8;" horiz-adv-x="444" 
d="M316 453q53 0 73 -21.5t20 -79.5q0 -62 -13 -88q-17 -32 -72 -53q-51 -20 -178 -46q3 -62 54 -110q98 28 177 90l-3 -49q-1 -23 -20 -39q-14 -11 -82 -50q-38 -21 -83 -36q-38 -12 -53 -12q-42 0 -84 48.5t-42 91.5q0 44 17 93q11 34 53 128q27 59 86 95q63 38 150 38z
M279 384l-50 -7q-31 -55 -67 -152q69 9 93 32.5t24 76.5v50zM200 532l195 -55l12 38l-179 94z" />
    <glyph glyph-name="ecircumflex" unicode="&#xea;" horiz-adv-x="444" 
d="M316 453q53 0 73 -21.5t20 -79.5q0 -62 -13 -88q-17 -32 -72 -53q-51 -20 -178 -46q3 -62 54 -110q98 28 177 90l-3 -49q-1 -23 -20 -39q-14 -11 -82 -50q-38 -21 -83 -36q-38 -12 -53 -12q-42 0 -84 48.5t-42 91.5q0 44 17 93q11 34 53 128q27 59 86 95q63 38 150 38z
M279 384l-50 -7q-31 -55 -67 -152q69 9 93 32.5t24 76.5v50zM291 516l-134 -43l-4 28l149 78l1 -1v1l121 -80l-14 -28z" />
    <glyph glyph-name="edieresis" unicode="&#xeb;" horiz-adv-x="444" 
d="M316 453q53 0 73 -21.5t20 -79.5q0 -62 -13 -88q-17 -32 -72 -53q-51 -20 -178 -46q3 -62 54 -110q98 28 177 90l-3 -49q-1 -23 -20 -39q-14 -11 -82 -50q-38 -21 -83 -36q-38 -12 -53 -12q-42 0 -84 48.5t-42 91.5q0 44 17 93q11 34 53 128q27 59 86 95q63 38 150 38z
M279 384l-50 -7q-31 -55 -67 -152q69 9 93 32.5t24 76.5v50zM181 538q3 20 19 34t36 14t32 -14t9 -34q-3 -19 -19 -33t-36 -14t-32 14t-9 33zM334 538q3 20 19 34t36 14t32 -14t9 -34q-3 -19 -19 -33t-36 -14t-32 14t-9 33z" />
    <glyph glyph-name="iacute" unicode="&#xed;" horiz-adv-x="278" 
d="M109 410l141 35q-88 -192 -98 -450l-136 -35q21 254 93 450zM296 532l-194 -55l-12 38l179 94z" />
    <glyph glyph-name="igrave" unicode="&#xec;" horiz-adv-x="278" 
d="M109 410l141 35q-88 -192 -98 -450l-136 -35q21 254 93 450zM90 532l195 -55l12 38l-179 94z" />
    <glyph glyph-name="icircumflex" unicode="&#xee;" horiz-adv-x="278" 
d="M109 410l141 35q-88 -192 -98 -450l-136 -35q21 254 93 450zM191 516l-134 -43l-4 28l149 78l1 -1v1l121 -80l-14 -28z" />
    <glyph glyph-name="idieresis" unicode="&#xef;" horiz-adv-x="278" 
d="M109 410l141 35q-88 -192 -98 -450l-136 -35q21 254 93 450zM71 538q3 20 19 34t36 14t32 -14t9 -34q-3 -19 -19 -33t-36 -14t-32 14t-9 33zM224 538q3 20 19 34t36 14t32 -14t9 -34q-3 -19 -19 -33t-36 -14t-32 14t-9 33z" />
    <glyph glyph-name="ntilde" unicode="&#xf1;" horiz-adv-x="500" 
d="M70 416l132 36q1 -10 1 -30q0 -61 -21 -127l2 -2q25 49 98 104t120 55q9 0 38 -30t29 -45q0 -11 -17 -63q-23 -67 -35 -123q-20 -92 -26 -194l-142 -38q9 98 31 196q25 110 52 149l-27 28q-45 -14 -90 -81q-38 -57 -43 -92q-19 -132 -37 -172q-12 -28 -37 -28
q-30 0 -61 46q-29 42 -29 76q0 15 17 40q22 34 31 59q17 45 17 109q0 85 -3 127zM213 536q-31 -4 -58 -40l-22 6q26 78 94 78q18 0 57.5 -20t59.5 -20q42 6 67 40l23 -6q-26 -78 -103 -78q-17 0 -62.5 21t-55.5 19z" />
    <glyph glyph-name="oacute" unicode="&#xf3;" horiz-adv-x="444" 
d="M223 453l34 -36q29 10 57 21q41 15 57 15q51 0 51 -117q0 -93 -57 -187q-48 -80 -120 -137q-67 -53 -107 -53q-41 0 -81.5 54t-40.5 104q0 97 63 197t144 139zM148 63l19 -12q55 42 89 102q36 65 36 130q0 44 -18 98h-18q-49 -49 -80 -133q-30 -79 -30 -149q0 -6 1 -17.5
t1 -18.5zM406 532l-194 -55l-12 38l179 94z" />
    <glyph glyph-name="ograve" unicode="&#xf2;" horiz-adv-x="444" 
d="M223 453l34 -36q29 10 57 21q41 15 57 15q51 0 51 -117q0 -93 -57 -187q-48 -80 -120 -137q-67 -53 -107 -53q-41 0 -81.5 54t-40.5 104q0 97 63 197t144 139zM148 63l19 -12q55 42 89 102q36 65 36 130q0 44 -18 98h-18q-49 -49 -80 -133q-30 -79 -30 -149q0 -6 1 -17.5
t1 -18.5zM220 532l195 -55l12 38l-179 94z" />
    <glyph glyph-name="ocircumflex" unicode="&#xf4;" horiz-adv-x="444" 
d="M223 453l34 -36q29 10 57 21q41 15 57 15q51 0 51 -117q0 -93 -57 -187q-48 -80 -120 -137q-67 -53 -107 -53q-41 0 -81.5 54t-40.5 104q0 97 63 197t144 139zM148 63l19 -12q55 42 89 102q36 65 36 130q0 44 -18 98h-18q-49 -49 -80 -133q-30 -79 -30 -149q0 -6 1 -17.5
t1 -18.5zM291 516l-134 -43l-4 28l149 78l1 -1v1l121 -80l-14 -28z" />
    <glyph glyph-name="odieresis" unicode="&#xf6;" horiz-adv-x="444" 
d="M223 453l34 -36q29 10 57 21q41 15 57 15q51 0 51 -117q0 -93 -57 -187q-48 -80 -120 -137q-67 -53 -107 -53q-41 0 -81.5 54t-40.5 104q0 97 63 197t144 139zM148 63l19 -12q55 42 89 102q36 65 36 130q0 44 -18 98h-18q-49 -49 -80 -133q-30 -79 -30 -149q0 -6 1 -17.5
t1 -18.5zM191 538q3 20 19 34t36 14t32 -14t9 -34q-3 -19 -19 -33t-36 -14t-32 14t-9 33zM344 538q3 20 19 34t36 14t32 -14t9 -34q-3 -19 -19 -33t-36 -14t-32 14t-9 33z" />
    <glyph glyph-name="otilde" unicode="&#xf5;" horiz-adv-x="444" 
d="M223 453l34 -36q29 10 57 21q41 15 57 15q51 0 51 -117q0 -93 -57 -187q-48 -80 -120 -137q-67 -53 -107 -53q-41 0 -81.5 54t-40.5 104q0 97 63 197t144 139zM148 63l19 -12q55 42 89 102q36 65 36 130q0 44 -18 98h-18q-49 -49 -80 -133q-30 -79 -30 -149q0 -6 1 -17.5
t1 -18.5zM223 526q-31 -4 -58 -40l-22 6q26 78 94 78q18 0 57.5 -20t59.5 -20q42 6 67 40l23 -6q-26 -78 -103 -78q-17 0 -62.5 21t-55.5 19z" />
    <glyph glyph-name="uacute" unicode="&#xfa;" horiz-adv-x="500" 
d="M156 104l29 -31q129 85 151 268q13 108 44 108q26 0 62 -40.5t36 -74.5q0 -23 -18 -54q-24 -44 -31 -64q-16 -46 -12 -105q2 -39 15 -122l-127 -34q-8 30 -8 83q0 4 3 67l-2 2q-36 -44 -93 -91q-72 -57 -112 -57q-25 0 -48 26t-23 50q0 13 17 66q22 69 34 123
q20 91 26 191l144 38q-15 -186 -87 -349zM396 532l-194 -55l-12 38l179 94z" />
    <glyph glyph-name="ugrave" unicode="&#xf9;" horiz-adv-x="500" 
d="M156 104l29 -31q129 85 151 268q13 108 44 108q26 0 62 -40.5t36 -74.5q0 -23 -18 -54q-24 -44 -31 -64q-16 -46 -12 -105q2 -39 15 -122l-127 -34q-8 30 -8 83q0 4 3 67l-2 2q-36 -44 -93 -91q-72 -57 -112 -57q-25 0 -48 26t-23 50q0 13 17 66q22 69 34 123
q20 91 26 191l144 38q-15 -186 -87 -349zM210 532l195 -55l12 38l-179 94z" />
    <glyph glyph-name="ucircumflex" unicode="&#xfb;" horiz-adv-x="500" 
d="M156 104l29 -31q129 85 151 268q13 108 44 108q26 0 62 -40.5t36 -74.5q0 -23 -18 -54q-24 -44 -31 -64q-16 -46 -12 -105q2 -39 15 -122l-127 -34q-8 30 -8 83q0 4 3 67l-2 2q-36 -44 -93 -91q-72 -57 -112 -57q-25 0 -48 26t-23 50q0 13 17 66q22 69 34 123
q20 91 26 191l144 38q-15 -186 -87 -349zM291 516l-134 -43l-4 28l149 78l1 -1v1l121 -80l-14 -28z" />
    <glyph glyph-name="udieresis" unicode="&#xfc;" horiz-adv-x="500" 
d="M156 104l29 -31q129 85 151 268q13 108 44 108q26 0 62 -40.5t36 -74.5q0 -23 -18 -54q-24 -44 -31 -64q-16 -46 -12 -105q2 -39 15 -122l-127 -34q-8 30 -8 83q0 4 3 67l-2 2q-36 -44 -93 -91q-72 -57 -112 -57q-25 0 -48 26t-23 50q0 13 17 66q22 69 34 123
q20 91 26 191l144 38q-15 -186 -87 -349zM181 538q3 20 19 34t36 14t32 -14t9 -34q-3 -19 -19 -33t-36 -14t-32 14t-9 33zM334 538q3 20 19 34t36 14t32 -14t9 -34q-3 -19 -19 -33t-36 -14t-32 14t-9 33z" />
    <glyph glyph-name="dagger" unicode="&#x2020;" 
 />
    <glyph glyph-name="degree" unicode="&#xb0;" horiz-adv-x="412" 
d="M226 431q-55 0 -94.5 39.5t-39.5 94.5q0 56 39.5 95t94.5 39q56 0 95 -39t39 -95q0 -55 -39 -94.5t-95 -39.5zM226 644q-32 0 -55.5 -23t-23.5 -56t23.5 -56t55.5 -23q33 0 56 23t23 56t-23 56t-56 23z" />
    <glyph glyph-name="cent" unicode="&#xa2;" horiz-adv-x="444" 
d="M162 108l-33 -66h-25l22 67q-34 12 -68 57.5t-34 78.5q0 71 49 176q44 96 76 120q54 40 131 56l19 81h58l-36 -76q7 1 13 1q58 0 73 -27q16 -30 33 -148l-121 -27l-20 136l-42 -9q-19 -28 -55 -131.5t-36 -127.5q0 -9 20 -37.5t28 -28.5q36 0 179 95l-6 -48
q-2 -18 -4 -22q-5 -10 -25 -24q-38 -26 -94 -54q-66 -34 -102 -42z" />
    <glyph glyph-name="sterling" unicode="&#xa3;" horiz-adv-x="570" 
d="M80 378h50q-8 39 -7 68q4 79 85 166q86 92 171 92q112 0 224 -81l-73 -113q-79 45 -97 54q-66 32 -105 32q-38 0 -59 -18q-11 -9 -38 -51q35 -87 42 -149h141l-13 -70h-125q0 -22 -2 -63q-31 -62 -64.5 -89.5t-68.5 -54.5l2 -2q86 32 219 32q67 0 146 -11
q-28 -57 -55 -139h-2q-80 24 -173 24q-67 0 -245 -24h-2l52 120q68 76 68 154q0 24 -6 53h-78z" />
    <glyph glyph-name="section" unicode="&#xa7;" horiz-adv-x="14" 
 />
    <glyph glyph-name="bullet" unicode="&#x2022;" horiz-adv-x="443" 
d="M84 282q0 56 39 95t95 39q55 0 94 -39t39 -95q0 -55 -39 -94t-94 -39q-56 0 -95 39t-39 94z" />
    <glyph glyph-name="paragraph" unicode="&#xb6;" horiz-adv-x="8" 
 />
    <glyph glyph-name="germandbls" unicode="&#xdf;" horiz-adv-x="562" 
d="M146 9l-122 -29q-12 53 -10 86q6 98 35 222q22 88 35 121l32 98q27 77 47 92l58 28q38 24 98 39q55 14 102 14q55 0 91 -62q27 -47 24 -94q-2 -31 -38 -64q-39 -35 -150 -103l1 -2q10 2 30 0q26 -3 35 -3q33 0 59.5 -43t24.5 -86q-4 -68 -69 -134q-70 -72 -120 -93
q-33 -14 -94 -14q-4 18 -2 39q2 22 8 23q60 11 96 77q27 49 29 95q0 2 3.5 16t3.5 24q0 19 -10 32q-3 4 -10 21q-2 4 -12.5 4t-16.5 4t-17 1l-11 47q60 34 92 75.5t49 112.5l-19 32q-44 -1 -68.5 -9.5t-55.5 -33.5l-70 -136q-48 -111 -58 -271q-5 -84 0 -126z" />
    <glyph glyph-name="registered" unicode="&#xae;" horiz-adv-x="425" 
d="M182 322q-75 0 -128 54t-53 130q0 75 53 128t128 53t127.5 -53.5t52.5 -129.5q0 -75 -52.5 -128.5t-127.5 -53.5zM182 643q-58 1 -97 -39.5t-39 -99.5q0 -57 40.5 -98t95.5 -41t95 41t40 98t-40 97t-95 42zM187 600q11 4 32 -2q36 -11 36 -46q0 -45 -44 -54l49 -76h-45
l-49 75h-15v-75h-38v178h74zM188 568h-39v-29h44q25 0 25 18q0 11 -30 11z" />
    <glyph glyph-name="copyright" unicode="&#xa9;" horiz-adv-x="814" 
d="M366 -21q-149 0 -253 104.5t-104 254.5t104 255t253 105t253.5 -105t104.5 -255t-104.5 -254.5t-253.5 -104.5zM366 625q-116 0 -200.5 -84t-84.5 -203t84.5 -202.5t200.5 -83.5t200.5 83.5t84.5 202.5t-84.5 203t-200.5 84zM477 397q-23 81 -101 81q-60 0 -95 -39
t-35 -100q0 -55 31 -94q35 -43 97 -43q83 0 103 79h74q-17 -75 -63.5 -113.5t-112.5 -38.5q-92 0 -147 60t-55 152q0 89 56 150t147 61q65 0 112 -39q50 -42 63 -116h-74z" />
    <glyph glyph-name="trademark" unicode="&#x2122;" horiz-adv-x="492" 
d="M377 607l-56 -140h-27l-52 134v-134h-43v211h58l51 -129l52 129h59v-211h-42v140zM103 634v-167h-43v167h-66v44h173v-44h-64z" />
    <glyph glyph-name="acute" unicode="&#xb4;" horiz-adv-x="348" 
d="M288 781l-216 -61l-14 42l199 104z" />
    <glyph glyph-name="dieresis" unicode="&#xa8;" horiz-adv-x="490" 
d="M78 788q3 23 20.5 38.5t39.5 15.5t35.5 -15.5t10.5 -38.5q-3 -22 -21 -37.5t-40 -15.5t-35.5 15.5t-9.5 37.5zM268 788q3 23 20.5 38.5t39.5 15.5t35.5 -15.5t10.5 -38.5q-3 -22 -21 -37.5t-40 -15.5t-35.5 15.5t-9.5 37.5z" />
    <glyph glyph-name="AE" unicode="&#xc6;" horiz-adv-x="866" 
d="M434 406q8 29 25 87q6 29 8 62q-5 0 -18 -1q-20 -55 -83 -133q-78 -97 -97 -129q12 3 23 1q17 -2 22 -2q-13 0 83 -5l24 82q5 13 13 38zM807 410l-58 -122q-56 14 -111 14q-62 0 -100 -8q-11 -34 -33 -138l-72 -67l2 -2q89 24 226 24q50 0 120 -9l-45 -132
q-87 20 -185 20q-57 0 -127 -7q-73 -7 -90 -15q21 64 44 141q5 33 16 100q-55 20 -116 20h-26q-17 -1 -25 -1q-73 -135 -130 -210q-47 -62 -66 -62q-37 0 -37 89q0 64 27 102.5t125 110.5q44 33 137 147q124 151 129 236q88 22 176 43q94 20 187 20q67 0 125 -8l-49 -128
q-90 15 -148 15q-12 0 -33.5 -1.5t-32.5 -1.5q-47 -104 -86 -229l2 -2q15 17 42 49q132 12 161 12h51z" />
    <glyph glyph-name="Oslash" unicode="&#xd8;" horiz-adv-x="611" 
d="M213 121l220 486q-3 10 -9 25h-15q-201 -165 -201 -479q0 -18 5 -32zM455 537l-224 -453q12 -20 33 -50q204 205 204 395q0 55 -13 108zM561 750l-28 -56q9 2 12 2q20 0 44 -56q29 -67 29 -159q0 -128 -75 -259q-63 -109 -157 -189q-87 -73 -137 -73q-24 0 -63 33
l-27 -54l-24 9l29 65q-42 43 -70 97q-32 60 -32 110q0 136 76.5 277t191.5 207l81 -46q2 0 52 16l43 95q0 3 55 -19z" />
    <glyph glyph-name="plusminus" unicode="&#xb1;" 
 />
    <glyph glyph-name="yen" unicode="&#xa5;" horiz-adv-x="556" 
d="M118 662l145 40q-1 -14 1 -42q2 -34 2 -46q0 -52 11 -101l20 -76q116 164 245 248l71 -65l-94 -76q-48 -60 -192 -207q-2 -9 -9 -30h128l-14 -52h-129l-21 -68h138l-13 -52h-141l-43 -141h1q-2 -7 -4 -10q1 1 3 10l-136 -22l49 163h-102l12 52h106l21 68h-114l13 52h117
l4 24q-75 212 -75 331z" />
    <glyph glyph-name="uni00B5" unicode="&#xb5;" horiz-adv-x="500" 
d="M45 246l65 37q43 211 105 366q8 2 189 55h2q-89 -146 -146 -337l120 67l-10 -57l-128 -72q-16 -73 -36 -150l-72 -68l2 -2q84 32 218 32q37 0 116 -11q-25 -56 -48 -138h-2q-82 24 -145 24q-67 0 -243 -24h-2l46 119q11 73 23 137l-64 -36z" />
    <glyph glyph-name="uni00B5" unicode="&#x3bc;" horiz-adv-x="500" 
d="M45 246l65 37q43 211 105 366q8 2 189 55h2q-89 -146 -146 -337l120 67l-10 -57l-128 -72q-16 -73 -36 -150l-72 -68l2 -2q84 32 218 32q37 0 116 -11q-25 -56 -48 -138h-2q-82 24 -145 24q-67 0 -243 -24h-2l46 119q11 73 23 137l-64 -36z" />
    <glyph glyph-name="ordfeminine" unicode="&#xaa;" horiz-adv-x="444" 
d="M412 104l-46 -130q-19 1 -63 8q-40 7 -63 7q-123 0 -187 -29l-53 110q-10 20 -8 33q1 6 80 87q101 104 161 175q98 116 134 197q-115 -25 -181 -25q-73 0 -84 13l39 133q81 -19 156 -19q100 0 211 32h28l-22 -110q-1 -3 -39 -39q-58 -54 -127 -135q-105 -124 -237 -313
l2 -2q50 23 179 23q32 0 120 -16zM335 786l159 50l4 -33l-176 -92v1l-1 -1l-142 95l17 33z" />
    <glyph glyph-name="ordmasculine" unicode="&#xba;" horiz-adv-x="389" 
d="M68 331l32 112q40 -10 110 -10q74 0 187 20l-22 -100q-69 -55 -268 -269l2 -2q40 11 89 11q30 0 124 -12l-37 -111q-41 7 -106 7q-50 0 -146 -18l-41 115q69 61 151.5 147.5t88.5 104.5q-42 -9 -81 -9q-56 0 -83 14zM256 544l127 40l3 -27l-140 -73l-1 1v-1l-114 75
l13 27z" />
    <glyph glyph-name="ae" unicode="&#xe6;" horiz-adv-x="705" 
d="M350 339l-34 30q-125 -82 -174 -272l25 -28q21 10 72 66t53 73q6 42 23 72t35 59zM576 453q53 0 73 -21.5t20 -79.5q0 -62 -13 -88q-17 -32 -72 -53q-51 -20 -178 -46q3 -62 54 -110q98 28 177 90l-3 -49q-1 -23 -20 -39q-14 -11 -82 -50q-38 -21 -83 -36
q-38 -12 -53 -12q-39 0 -79 43t-46 86q-102 -129 -160 -129q-32 0 -73.5 53t-41.5 89q0 74 92 188q86 105 179 164l83 -49q5 12 39 46q19 -7 51 -28q59 31 136 31zM539 384l-50 -7q-18 -23 -42 -58q-14 -25 -17 -51q-4 -32 -8 -43q69 9 93 32.5t24 76.5v50zM292 206v2v-1v-1
z" />
    <glyph glyph-name="oslash" unicode="&#xf8;" horiz-adv-x="444" 
d="M223 453l34 -36q8 2 36 13l37 93l54 -19l-32 -54q14 3 19 3q51 0 51 -117q0 -93 -57 -187q-48 -80 -120 -137q-67 -53 -107 -53q-16 0 -21 3l-25 -44l-24 18l20 44q-29 24 -50.5 63.5t-21.5 73.5q0 97 63 197t144 139zM148 63l19 -12q55 42 89 102q36 65 36 130
q0 44 -18 98h-18q-49 -49 -80 -133q-30 -79 -30 -149q0 -6 1 -17.5t1 -18.5z" />
    <glyph glyph-name="questiondown" unicode="&#xbf;" horiz-adv-x="444" 
d="M248 292l54 -34q-55 -177 -120 -248q36 -74 155 -171q-36 -35 -72 -69q-20 -18 -29 -18q-20 0 -102 95q-86 100 -86 142q0 27 19.5 66t42.5 52q46 28 72 59q37 44 66 126zM412 434q0 -40 -44 -64q-37 -19 -84 -19q-20 0 -26 5.5t-6 21.5q0 10 5 29t5 27q0 30 -22 64
q32 2 45 2q127 0 127 -66z" />
    <glyph glyph-name="exclamdown" unicode="&#xa1;" horiz-adv-x="389" 
d="M145 -250q-2 0 -37 9q-38 9 -124 45q159 221 216 474l76 16q-25 -139 -49 -277q-33 -156 -82 -267zM353 443q0 -41 -44 -65q-37 -19 -84 -19q-20 0 -26 5.5t-6 21.5q0 10 5 29.5t5 27.5q0 9 -5 22t-5 27q10 19 40 19q120 0 120 -68z" />
    <glyph glyph-name="logicalnot" unicode="&#xac;" 
 />
    <glyph glyph-name="florin" unicode="&#x192;" 
 />
    <glyph glyph-name="guillemotleft" unicode="&#xab;" horiz-adv-x="461" 
d="M305 235q33 -64 32 -176l-37 -4q-12 52 -25 105q-17 45 -63 89q51 25 96 75q40 48 79 96l23 -24q-35 -107 -105 -161zM140 238q34 -64 32 -176l-36 -4q-20 79 -32 105q-21 44 -70 90q54 27 104 75q25 25 85 96l23 -25q-35 -107 -106 -161z" />
    <glyph glyph-name="guillemotright" unicode="&#xbb;" horiz-adv-x="461" 
d="M140 243q-34 64 -32 176l36 5q13 -53 26 -105q16 -46 63 -89q-52 -26 -97 -76q-39 -48 -79 -96l-23 24q36 107 106 161zM304 240q-33 64 -32 176l36 4q20 -78 33 -105q20 -44 69 -90q-54 -26 -103 -74q-25 -25 -85 -96l-24 24q36 107 106 161z" />
    <glyph glyph-name="ellipsis" unicode="&#x2026;" horiz-adv-x="892" 
d="M380 57q0 41 45 65q37 19 83 19q21 0 26.5 -5.5t5.5 -21.5q0 -10 -5 -29t-5 -28v-44q-6 -24 -34 -24q-116 0 -116 68zM680 57q0 41 45 65q37 19 83 19q21 0 26.5 -5.5t5.5 -21.5q0 -10 -5 -29t-5 -28v-44q-6 -24 -34 -24q-116 0 -116 68zM80 57q0 41 45 65q37 19 83 19
q21 0 26.5 -5.5t5.5 -21.5q0 -10 -5 -29t-5 -28v-44q-6 -24 -34 -24q-116 0 -116 68z" />
    <glyph glyph-name="uni00A0" unicode="&#xa0;" horiz-adv-x="1254" 
 />
    <glyph glyph-name="Agrave" unicode="&#xc0;" horiz-adv-x="611" 
d="M551 0l-133 -40q-27 86 -46 248q-51 21 -94 21h-25q-17 -1 -26 -1q-73 -135 -130 -210q-47 -62 -66 -62q-37 0 -37 89q0 64 27 102.5t125 110.5q26 19 100 155q85 158 90 245q11 3 171 46q-17 -102 -17 -237q0 -295 61 -467zM368 289v69q0 3 12 221h-7
q-58 -188 -121 -296q32 8 62 8q18 0 54 -2zM334 781l216 -61l13 42l-199 104z" />
    <glyph glyph-name="Atilde" unicode="&#xc3;" horiz-adv-x="611" 
d="M551 0l-133 -40q-27 86 -46 248q-51 21 -94 21h-25q-17 -1 -26 -1q-73 -135 -130 -210q-47 -62 -66 -62q-37 0 -37 89q0 64 27 102.5t125 110.5q26 19 100 155q85 158 90 245q11 3 171 46q-17 -102 -17 -237q0 -295 61 -467zM368 289v69q0 3 12 221h-7
q-58 -188 -121 -296q32 8 62 8q18 0 54 -2zM350 786q-36 -5 -67 -48l-26 7q30 93 110 93q21 0 67.5 -23.5t69.5 -23.5q51 7 80 47l26 -7q-13 -41 -44 -66q-34 -27 -76 -27q-21 0 -74.5 24.5t-65.5 23.5z" />
    <glyph glyph-name="Otilde" unicode="&#xd5;" horiz-adv-x="611" 
d="M330 704l81 -46q2 0 64 19t70 19q20 0 44 -56q29 -67 29 -159q0 -128 -75 -259q-63 -109 -157 -189q-87 -73 -137 -73q-46 0 -114 87q-73 93 -73 173q0 136 76.5 277t191.5 207zM424 632h-15q-201 -165 -201 -479q0 -37 56 -119q204 205 204 395q0 84 -44 203zM380 786
q-36 -5 -67 -48l-26 7q30 93 110 93q21 0 67.5 -23.5t69.5 -23.5q51 7 80 47l26 -7q-13 -41 -44 -66q-34 -27 -76 -27q-21 0 -74.5 24.5t-65.5 23.5z" />
    <glyph glyph-name="OE" unicode="&#x152;" horiz-adv-x="910" 
d="M414 632h-15q-201 -165 -201 -479q0 -37 56 -119q204 205 204 395q0 84 -44 203zM847 410l-58 -122q-56 14 -111 14q-62 0 -100 -8q-2 -36 -21 -85l-22 -54l-62 -66l2 -2q89 24 226 24q50 0 120 -9l-45 -132q-87 20 -185 20q-57 0 -127 -7q-73 -7 -90 -15q11 38 28 88
q-102 -96 -163 -96q-46 0 -115 87q-72 93 -72 173q0 136 76.5 277t191.5 207l81 -46q2 0 64 19t70 19q11 0 26 -22q142 30 254 30q67 0 125 -8l-49 -128q-90 15 -148 15q-12 0 -75.5 -3t-74.5 -3q17 -45 17 -103q0 -62 -19 -123l2 -2q15 17 42 49q132 12 161 12h51z" />
    <glyph glyph-name="oe" unicode="&#x153;" horiz-adv-x="682" 
d="M519 384l-50 -7q-90 -94 -80 -158q70 8 100 35t30 80v50zM223 453l34 -36q33 16 92 39q9 1 16 1q30 0 45 -40q62 36 146 36q53 0 73 -21.5t20 -79.5q0 -62 -13 -88q-17 -32 -72 -53q-51 -20 -178 -46q3 -62 54 -110q98 28 177 90l-3 -49q-1 -23 -20 -39q-14 -11 -82 -50
q-38 -21 -83 -36q-38 -12 -53 -12q-57 0 -104 76q-83 -76 -134 -76q-41 0 -81.5 54t-40.5 104q0 97 63 197t144 139zM148 63l19 -12q55 42 89 102q3 17 10 32q16 30 20 40q6 46 6 58q0 44 -18 98h-18q-49 -49 -80 -133q-30 -79 -30 -149q0 -6 1 -17.5t1 -18.5z" />
    <glyph glyph-name="endash" unicode="&#x2013;" horiz-adv-x="545" 
d="M62 311h412l-22 -89h-411z" />
    <glyph glyph-name="emdash" unicode="&#x2014;" horiz-adv-x="929" 
d="M62 311h812l-22 -89h-811z" />
    <glyph glyph-name="quotedblleft" unicode="&#x201c;" horiz-adv-x="473" 
d="M410 664q11 0 90 11q-59 -64 -82 -153q-9 -57 -19 -114q-126 19 -126 45q0 46 42 116q46 74 95 95zM220 664q11 0 90 11q-59 -64 -82 -153q-9 -57 -19 -114q-126 19 -126 45q0 46 42 116q46 74 95 95z" />
    <glyph glyph-name="quotedblright" unicode="&#x201d;" horiz-adv-x="473" 
d="M173 419q-11 0 -90 -11q59 63 82 153q10 57 19 114q126 -19 126 -45q0 -46 -42 -116q-45 -74 -95 -95zM363 419q-11 0 -90 -11q59 63 82 153q10 57 19 114q126 -19 126 -45q0 -46 -42 -116q-45 -74 -95 -95z" />
    <glyph glyph-name="quoteleft" unicode="&#x2018;" horiz-adv-x="283" 
d="M220 664q11 0 90 11q-59 -64 -82 -153q-9 -57 -19 -114q-126 19 -126 45q0 46 42 116q46 74 95 95z" />
    <glyph glyph-name="quoteright" unicode="&#x2019;" horiz-adv-x="286" 
d="M173 419q-11 0 -90 -11q59 63 82 153q10 57 19 114q126 -19 126 -45q0 -46 -42 -116q-45 -74 -95 -95z" />
    <glyph glyph-name="divide" unicode="&#xf7;" 
 />
    <glyph glyph-name="ydieresis" unicode="&#xff;" horiz-adv-x="500" 
d="M86 413l143 39q-15 -161 -83 -348l28 -25q142 83 162 337l140 36q-36 -290 -133 -478q36 10 68 14l10 -47q-89 -19 -127 -42q-78 -151 -153 -151q-32 0 -52 30q-17 27 -17 62q0 64 164 121q17 49 46 146l-2 2q-121 -150 -203 -150q-27 0 -48 26.5t-21 54.5q0 9 16 57
q21 62 34 120q20 91 28 196zM171 538q3 20 19 34t36 14t32 -14t9 -34q-3 -19 -19 -33t-36 -14t-32 14t-9 33zM324 538q3 20 19 34t36 14t32 -14t9 -34q-3 -19 -19 -33t-36 -14t-32 14t-9 33z" />
    <glyph glyph-name="Ydieresis" unicode="&#x178;" horiz-adv-x="556" 
d="M249 49l-89 16q-49 224 -49 391q0 125 17 197l156 41q-23 -122 -23 -389q0 -20 4 -85q6 -81 7 -106l16 -6q132 249 202 599l119 -68q-110 -361 -324 -671q45 -4 113 -22l-15 -43q-36 7 -55 9q-32 4 -85 6q-89 -120 -151 -120q-24 0 -44 35q-18 31 -18 61q0 47 72 71
q46 11 92 23q17 7 32 27q11 17 23 34zM228 788q3 23 20.5 38.5t39.5 15.5t35.5 -15.5t10.5 -38.5q-3 -22 -21 -37.5t-40 -15.5t-35.5 15.5t-9.5 37.5zM418 788q3 23 20.5 38.5t39.5 15.5t35.5 -15.5t10.5 -38.5q-3 -22 -21 -37.5t-40 -15.5t-35.5 15.5t-9.5 37.5z" />
    <glyph glyph-name="currency" unicode="&#xa4;" 
 />
    <glyph glyph-name="guilsinglleft" unicode="&#x2039;" horiz-adv-x="461" 
d="M140 238q34 -64 32 -176l-36 -4q-20 79 -32 105q-21 44 -70 90q54 27 104 75q25 25 85 96l23 -25q-35 -107 -106 -161z" />
    <glyph glyph-name="guilsinglright" unicode="&#x203a;" horiz-adv-x="461" 
d="M140 243q-34 64 -32 176l36 5q20 -79 32 -106q21 -44 70 -90q-54 -26 -103 -74q-26 -25 -86 -96l-23 24q36 107 106 161z" />
    <glyph glyph-name="daggerdbl" unicode="&#x2021;" horiz-adv-x="210" 
 />
    <glyph glyph-name="periodcentered" unicode="&#xb7;" horiz-adv-x="297" 
d="M68 277q0 40 45 64q36 19 83 19q20 0 26 -5.5t6 -21.5q0 -10 -5 -29t-5 -27q0 -41 -1 -45q-5 -24 -33 -24q-116 0 -116 69z" />
    <glyph glyph-name="periodcentered" unicode="&#x2219;" horiz-adv-x="297" 
d="M68 277q0 40 45 64q36 19 83 19q20 0 26 -5.5t6 -21.5q0 -10 -5 -29t-5 -27q0 -41 -1 -45q-5 -24 -33 -24q-116 0 -116 69z" />
    <glyph glyph-name="quotesinglbase" unicode="&#x201a;" horiz-adv-x="261" 
d="M63 -121q-11 0 -90 -11q59 63 82 153q10 57 19 114q126 -19 126 -45q0 -46 -42 -116q-45 -74 -95 -95z" />
    <glyph glyph-name="quotedblbase" unicode="&#x201e;" horiz-adv-x="457" 
d="M63 -121q-11 0 -90 -11q59 63 82 153q10 57 19 114q126 -19 126 -45q0 -46 -42 -116q-45 -74 -95 -95zM253 -121q-11 0 -90 -11q59 63 82 153q10 57 19 114q126 -19 126 -45q0 -46 -42 -116q-45 -74 -95 -95z" />
    <glyph glyph-name="perthousand" unicode="&#x2030;" horiz-adv-x="14" 
 />
    <glyph glyph-name="Acircumflex" unicode="&#xc2;" horiz-adv-x="611" 
d="M551 0l-133 -40q-27 86 -46 248q-51 21 -94 21h-25q-17 -1 -26 -1q-73 -135 -130 -210q-47 -62 -66 -62q-37 0 -37 89q0 64 27 102.5t125 110.5q26 19 100 155q85 158 90 245q11 3 171 46q-17 -102 -17 -237q0 -295 61 -467zM368 289v69q0 3 12 221h-7
q-58 -188 -121 -296q32 8 62 8q18 0 54 -2zM432 774l-158 -50l-5 33l176 92v-1l1 1l142 -95l-17 -33z" />
    <glyph glyph-name="Ecircumflex" unicode="&#xca;" horiz-adv-x="500" 
d="M487 410l-58 -122q-56 14 -111 14q-62 0 -100 -8q-11 -34 -33 -138l-72 -67l2 -2q89 24 226 24q50 0 120 -9l-45 -132q-87 20 -185 20q-57 0 -127 -7q-73 -7 -90 -15q21 64 44 141q20 132 33 197q22 112 51 196q27 18 99 71v2q-84 -14 -130 -23l53 113q159 39 291 39
q67 0 125 -8l-49 -128q-90 15 -148 15q-12 0 -33.5 -1.5t-32.5 -1.5q-47 -104 -86 -229l2 -2q15 17 42 49q132 12 161 12h51zM402 774l-158 -50l-5 33l176 92v-1l1 1l142 -95l-17 -33z" />
    <glyph glyph-name="Aacute" unicode="&#xc1;" horiz-adv-x="611" 
d="M551 0l-133 -40q-27 86 -46 248q-51 21 -94 21h-25q-17 -1 -26 -1q-73 -135 -130 -210q-47 -62 -66 -62q-37 0 -37 89q0 64 27 102.5t125 110.5q26 19 100 155q85 158 90 245q11 3 171 46q-17 -102 -17 -237q0 -295 61 -467zM368 289v69q0 3 12 221h-7
q-58 -188 -121 -296q32 8 62 8q18 0 54 -2zM528 781l-216 -61l-14 42l199 104z" />
    <glyph glyph-name="Edieresis" unicode="&#xcb;" horiz-adv-x="500" 
d="M487 410l-58 -122q-56 14 -111 14q-62 0 -100 -8q-11 -34 -33 -138l-72 -67l2 -2q89 24 226 24q50 0 120 -9l-45 -132q-87 20 -185 20q-57 0 -127 -7q-73 -7 -90 -15q21 64 44 141q20 132 33 197q22 112 51 196q27 18 99 71v2q-84 -14 -130 -23l53 113q159 39 291 39
q67 0 125 -8l-49 -128q-90 15 -148 15q-12 0 -33.5 -1.5t-32.5 -1.5q-47 -104 -86 -229l2 -2q15 17 42 49q132 12 161 12h51zM238 788q3 23 20.5 38.5t39.5 15.5t35.5 -15.5t10.5 -38.5q-3 -22 -21 -37.5t-40 -15.5t-35.5 15.5t-9.5 37.5zM428 788q3 23 20.5 38.5t39.5 15.5
t35.5 -15.5t10.5 -38.5q-3 -22 -21 -37.5t-40 -15.5t-35.5 15.5t-9.5 37.5z" />
    <glyph glyph-name="Egrave" unicode="&#xc8;" horiz-adv-x="500" 
d="M487 410l-58 -122q-56 14 -111 14q-62 0 -100 -8q-11 -34 -33 -138l-72 -67l2 -2q89 24 226 24q50 0 120 -9l-45 -132q-87 20 -185 20q-57 0 -127 -7q-73 -7 -90 -15q21 64 44 141q20 132 33 197q22 112 51 196q27 18 99 71v2q-84 -14 -130 -23l53 113q159 39 291 39
q67 0 125 -8l-49 -128q-90 15 -148 15q-12 0 -33.5 -1.5t-32.5 -1.5q-47 -104 -86 -229l2 -2q15 17 42 49q132 12 161 12h51zM264 791l216 -61l13 42l-199 104z" />
    <glyph glyph-name="Iacute" unicode="&#xcd;" horiz-adv-x="333" 
d="M173 -40l-121 32q115 389 115 597q0 11 -2 35t-2 36l153 44q0 -10 1.5 -29.5t1.5 -29.5q0 -159 -45 -348q-29 -121 -101 -337zM368 781l-216 -61l-14 42l199 104z" />
    <glyph glyph-name="Icircumflex" unicode="&#xce;" horiz-adv-x="333" 
d="M173 -40l-121 32q115 389 115 597q0 11 -2 35t-2 36l153 44q0 -10 1.5 -29.5t1.5 -29.5q0 -159 -45 -348q-29 -121 -101 -337zM262 774l-158 -50l-5 33l176 92v-1l1 1l142 -95l-17 -33z" />
    <glyph glyph-name="Idieresis" unicode="&#xcf;" horiz-adv-x="333" 
d="M173 -40l-121 32q115 389 115 597q0 11 -2 35t-2 36l153 44q0 -10 1.5 -29.5t1.5 -29.5q0 -159 -45 -348q-29 -121 -101 -337zM118 788q3 23 20.5 38.5t39.5 15.5t35.5 -15.5t10.5 -38.5q-3 -22 -21 -37.5t-40 -15.5t-35.5 15.5t-9.5 37.5zM288 788q3 23 20.5 38.5
t39.5 15.5t35.5 -15.5t10.5 -38.5q-3 -22 -21 -37.5t-40 -15.5t-35.5 15.5t-9.5 37.5z" />
    <glyph glyph-name="Igrave" unicode="&#xcc;" horiz-adv-x="333" 
d="M173 -40l-121 32q115 389 115 597q0 11 -2 35t-2 36l153 44q0 -10 1.5 -29.5t1.5 -29.5q0 -159 -45 -348q-29 -121 -101 -337zM144 781l216 -61l13 42l-199 104z" />
    <glyph glyph-name="Oacute" unicode="&#xd3;" horiz-adv-x="611" 
d="M330 704l81 -46q2 0 64 19t70 19q20 0 44 -56q29 -67 29 -159q0 -128 -75 -259q-63 -109 -157 -189q-87 -73 -137 -73q-46 0 -114 87q-73 93 -73 173q0 136 76.5 277t191.5 207zM424 632h-15q-201 -165 -201 -479q0 -37 56 -119q204 205 204 395q0 84 -44 203zM598 781
l-216 -61l-14 42l199 104z" />
    <glyph glyph-name="Ocircumflex" unicode="&#xd4;" horiz-adv-x="611" 
d="M330 704l81 -46q2 0 64 19t70 19q20 0 44 -56q29 -67 29 -159q0 -128 -75 -259q-63 -109 -157 -189q-87 -73 -137 -73q-46 0 -114 87q-73 93 -73 173q0 136 76.5 277t191.5 207zM424 632h-15q-201 -165 -201 -479q0 -37 56 -119q204 205 204 395q0 84 -44 203zM452 774
l-158 -50l-5 33l176 92v-1l1 1l142 -95l-17 -33z" />
    <glyph glyph-name="Ograve" unicode="&#xd2;" horiz-adv-x="611" 
d="M330 704l81 -46q2 0 64 19t70 19q20 0 44 -56q29 -67 29 -159q0 -128 -75 -259q-63 -109 -157 -189q-87 -73 -137 -73q-46 0 -114 87q-73 93 -73 173q0 136 76.5 277t191.5 207zM424 632h-15q-201 -165 -201 -479q0 -37 56 -119q204 205 204 395q0 84 -44 203zM344 781
l216 -61l13 42l-199 104z" />
    <glyph glyph-name="Uacute" unicode="&#xda;" horiz-adv-x="611" 
d="M558 781l-216 -61l-14 42l199 104zM164 659l150 24q-2 -123 -26 -227t-87 -265q31 -75 66 -98q72 45 121 131.5t91 240.5q46 170 63 207q15 32 41 32q37 0 68 -53q25 -45 25 -77q0 -50 -94 -205q-12 -19 -20 -72.5t-8 -105.5q0 -130 22 -196l-144 -35q-8 25 -8 84
q0 94 18 182l-2 2q-23 -68 -105 -165q-87 -103 -135 -103q-42 0 -90 69q-46 66 -46 111q0 23 27 120q35 127 49 191q26 122 24 208z" />
    <glyph glyph-name="Ucircumflex" unicode="&#xdb;" horiz-adv-x="667" 
d="M164 659l155 45q-2 -123 -28 -236q-27 -116 -90 -277q31 -75 66 -98q72 45 121 131.5t91 240.5q31 113 49 161q16 44 30 55q7 6 28 6q38 0 66 -45q24 -37 24 -68q0 -50 -94 -205q-12 -19 -20 -72.5t-8 -105.5q0 -130 22 -196l-144 -35q-8 25 -8 84q0 94 18 182l-2 2
q-23 -68 -105 -165q-87 -103 -135 -103q-42 0 -90 69q-46 66 -46 111q0 23 27 120q35 127 49 191q26 122 24 208zM422 774l-158 -50l-5 33l176 92v-1l1 1l142 -95l-17 -33z" />
    <glyph glyph-name="Ugrave" unicode="&#xd9;" horiz-adv-x="667" 
d="M164 659l155 45q-2 -123 -28 -236q-27 -116 -90 -277q31 -75 66 -98q72 45 121 131.5t91 240.5q46 170 63 207q15 32 41 32q37 0 68 -53q25 -45 25 -77q0 -50 -94 -205q-12 -19 -20 -72.5t-8 -105.5q0 -130 22 -196l-144 -35q-8 25 -8 84q0 94 18 182l-2 2
q-23 -68 -105 -165q-87 -103 -135 -103q-42 0 -90 69q-46 66 -46 111q0 23 27 120q35 127 49 191q26 122 24 208zM334 781l216 -61l13 42l-199 104z" />
    <glyph glyph-name="circumflex" unicode="&#x2c6;" horiz-adv-x="611" 
d="M432 774l-158 -50l-5 33l176 92v-1l1 1l142 -95l-17 -33z" />
    <glyph glyph-name="tilde" unicode="&#x2dc;" horiz-adv-x="519" 
d="M190 786q-36 -5 -67 -48l-26 7q30 93 110 93q21 0 67.5 -23.5t69.5 -23.5q51 7 80 47l26 -7q-13 -41 -44 -66q-34 -27 -76 -27q-21 0 -74.5 24.5t-65.5 23.5z" />
    <glyph glyph-name="macron" unicode="&#xaf;" horiz-adv-x="464" 
d="M78 807h298v-61h-298v61z" />
    <glyph glyph-name="macron" unicode="&#x2c9;" horiz-adv-x="464" 
d="M78 807h298v-61h-298v61z" />
    <glyph glyph-name="cedilla" unicode="&#xb8;" horiz-adv-x="556" 
d="M235 -21h40q-3 -4 -11 -26q-9 -25 -10 -36q5 3 19 2q23 -2 24 -2q23 0 36 -22q11 -18 11 -38q0 -27 -24 -52q-19 -18 -33 -24q-17 -7 -50 -8q-48 -1 -56 14q-3 5 -3 42q10 -6 21 -13q1 0 24 -3q16 -2 30.5 9t14.5 29q0 28 -28 28q-6 0 -18.5 -5.5t-13.5 -5.5
q-13 0 -13 17q0 16 17 48q20 37 23 46z" />
    <glyph glyph-name="Scaron" unicode="&#x160;" 
 />
    <glyph glyph-name="scaron" unicode="&#x161;" 
 />
    <glyph glyph-name="brokenbar" unicode="&#xa6;" 
 />
    <glyph glyph-name="Eth" unicode="&#xd0;" 
 />
    <glyph glyph-name="eth" unicode="&#xf0;" 
 />
    <glyph glyph-name="Yacute" unicode="&#xdd;" 
 />
    <glyph glyph-name="yacute" unicode="&#xfd;" 
 />
    <glyph glyph-name="Thorn" unicode="&#xde;" 
 />
    <glyph glyph-name="thorn" unicode="&#xfe;" 
 />
    <glyph glyph-name="uni00AD" unicode="&#xad;" 
 />
    <glyph glyph-name="uni00AD" unicode="&#x2212;" 
 />
    <glyph glyph-name="multiply" unicode="&#xd7;" 
 />
    <glyph glyph-name="uni00B9" unicode="&#xb9;" 
 />
    <glyph glyph-name="uni00B2" unicode="&#xb2;" 
 />
    <glyph glyph-name="uni00B3" unicode="&#xb3;" 
 />
    <glyph glyph-name="onehalf" unicode="&#xbd;" 
 />
    <glyph glyph-name="onequarter" unicode="&#xbc;" 
 />
    <glyph glyph-name="threequarters" unicode="&#xbe;" 
 />
    <glyph glyph-name="Lslash" unicode="&#x141;" 
 />
    <glyph glyph-name="lslash" unicode="&#x142;" 
 />
    <glyph glyph-name="glyph220" 
 />
    <glyph glyph-name="glyph221" 
 />
    <glyph glyph-name="glyph222" 
 />
    <glyph glyph-name="Zcaron" unicode="&#x17d;" 
 />
    <glyph glyph-name="zcaron" unicode="&#x17e;" 
 />
    <glyph glyph-name="glyph225" 
 />
    <glyph glyph-name="glyph226" 
 />
    <glyph glyph-name="glyph227" 
 />
    <glyph glyph-name="glyph228" 
 />
    <glyph glyph-name="glyph229" 
 />
    <glyph glyph-name="glyph230" 
 />
    <glyph glyph-name="glyph231" 
 />
    <glyph glyph-name="glyph232" horiz-adv-x="1002" 
 />
    <glyph glyph-name="notequal" unicode="&#x2260;" horiz-adv-x="11" 
 />
    <glyph glyph-name="infinity" unicode="&#x221e;" 
 />
    <glyph glyph-name="lessequal" unicode="&#x2264;" 
 />
    <glyph glyph-name="greaterequal" unicode="&#x2265;" 
 />
    <glyph glyph-name="partialdiff" unicode="&#x2202;" horiz-adv-x="278" 
d="M22 231l45 25q22 140 45 202q25 76 51 152q44 122 67 122q22 0 52.5 -47t30.5 -85q0 -28 -45 -102q-53 -89 -74 -170l93 52l-10 -58l-95 -54q-10 -60 -10 -129q0 -97 9 -146l-125 -33q-6 20 -6 100q0 64 9 139l-47 -26z" />
    <glyph glyph-name="summation" unicode="&#x2211;" horiz-adv-x="500" 
d="M-14 44l64 119q128 -86 205 -86q71 0 114 80q-54 64 -130 122q-86 66 -98 78q-38 39 -38 89q0 79 78 166q81 92 166 92q112 0 228 -81l-68 -113q-81 45 -100 54q-67 32 -106 32q-38 0 -58 -18q-11 -9 -36 -51q22 -48 92 -104l114 -90q56 -52 56 -101q0 -85 -82 -176
q-87 -96 -186 -96q-59 0 -135 36q-56 26 -80 48zM425 796l159 50l4 -33l-176 -92v1l-1 -1l-142 95l17 33z" />
    <glyph glyph-name="product" unicode="&#x220f;" horiz-adv-x="389" 
d="M-10 24l54 108q34 -22 84 -43q56 -24 85 -24q35 0 35 28q0 10 -48 42q-64 43 -90 66q-48 44 -48 83t50 100q55 69 109 69q73 0 178 -71l-57 -90q-35 20 -71 40q-45 23 -77 23q-25 0 -40 -22q11 -18 101 -86q75 -57 75 -98q0 -51 -44 -115q-52 -75 -118 -75q-77 0 -178 65
zM296 544l127 40l3 -27l-140 -73l-1 1v-1l-114 75l13 27z" />
    <glyph glyph-name="pi" unicode="&#x3c0;" horiz-adv-x="556" 
d="M249 49l-89 16q-49 224 -49 391q0 85 25 186l151 36q-26 -136 -26 -373q0 -20 4 -85q6 -81 7 -106l16 -6q129 243 203 616l121 -74q-113 -373 -327 -682q45 -4 113 -22l-15 -43q-36 7 -55 9q-32 4 -85 6q-89 -120 -151 -120q-24 0 -44 35q-18 31 -18 61q0 47 72 71
q46 11 92 23q17 7 32 27q11 17 23 34zM488 781l-216 -61l-14 42l199 104z" />
    <glyph glyph-name="integral" unicode="&#x222b;" horiz-adv-x="500" 
d="M86 413l143 39q-15 -161 -83 -348l28 -25q142 83 162 337l140 36q-36 -290 -133 -478q36 10 68 14l10 -47q-89 -19 -127 -42q-78 -151 -153 -151q-32 0 -52 30q-17 27 -17 62q0 64 164 121q17 49 46 146l-2 2q-121 -150 -203 -150q-27 0 -48 26.5t-21 54.5q0 9 16 57
q21 62 34 120q20 91 28 196zM396 532l-194 -55l-12 38l179 94z" />
    <glyph glyph-name="Omega" unicode="&#x3a9;" horiz-adv-x="615" 
d="M74 454h84q51 110 126 175q88 75 193 75q71 0 173 -104l-83 -96q-38 38 -87 73q-52 37 -77 41q-52 -37 -101 -164h181l-15 -57h-186q-10 -32 -18 -63h189l-15 -57h-187q-7 -43 -7 -72q0 -25 36 -76q43 -61 89 -61q45 -1 155 76l26 -39q-165 -145 -263 -145
q-71 0 -130 78.5t-59 170.5q0 32 5 68h-74l15 57h71q8 32 19 63h-75z" />
    <glyph glyph-name="Omega" unicode="&#x2126;" horiz-adv-x="615" 
d="M74 454h84q51 110 126 175q88 75 193 75q71 0 173 -104l-83 -96q-38 38 -87 73q-52 37 -77 41q-52 -37 -101 -164h181l-15 -57h-186q-10 -32 -18 -63h189l-15 -57h-187q-7 -43 -7 -72q0 -25 36 -76q43 -61 89 -61q45 -1 155 76l26 -39q-165 -145 -263 -145
q-71 0 -130 78.5t-59 170.5q0 32 5 68h-74l15 57h71q8 32 19 63h-75z" />
    <glyph glyph-name="radical" unicode="&#x221a;" horiz-adv-x="875" 
d="M37 332l129 48l33 -247q17 -51 42 -47q141 103 314 282q204 210 252 330l43 -32q-14 -47 -139 -220q-141 -194 -271 -327q-166 -167 -254 -167q-44 0 -79 96q-18 59 -37 119z" />
    <glyph glyph-name="approxequal" unicode="&#x2248;" 
 />
    <glyph glyph-name="approxequal" unicode="&#x22f2;" 
 />
    <glyph glyph-name="Delta" unicode="&#x394;" 
 />
    <glyph glyph-name="Delta" unicode="&#x2206;" 
 />
    <glyph glyph-name="lozenge" unicode="&#x25ca;" 
 />
    <glyph glyph-name="fraction" unicode="&#x2044;" 
 />
    <glyph glyph-name="uniF001" unicode="&#xf001;" 
 />
    <glyph glyph-name="uniF002" unicode="&#xf002;" 
 />
    <glyph glyph-name="uniF000" unicode="&#xf000;" horiz-adv-x="20" 
 />
    <glyph glyph-name="dotlessi" unicode="&#x131;" horiz-adv-x="278" 
d="M109 410l141 35q-88 -192 -98 -450l-136 -35q21 254 93 450z" />
    <glyph glyph-name="breve" unicode="&#x2d8;" horiz-adv-x="543" 
d="M394 824q0 -38 -40 -61q-36 -20 -83 -20t-83 20q-40 23 -40 61h40q0 -14 20 -26q25 -15 63 -15t63 15q20 12 20 26h40z" />
    <glyph glyph-name="dotaccent" unicode="&#x2d9;" horiz-adv-x="421" 
d="M156 779q0 23 16 38.5t38 15.5q23 0 39 -15.5t16 -38.5q0 -22 -16 -38t-39 -16q-22 0 -38 16t-16 38z" />
    <glyph glyph-name="ring" unicode="&#x2da;" horiz-adv-x="403" 
d="M205 842q27 0 46 -19t19 -46t-19 -46t-46 -19t-46 19t-19 46t19 46t46 19zM205 812q-15 0 -25 -10t-10 -25q0 -14 10 -24.5t25 -10.5q14 0 24.5 10.5t10.5 24.5q0 15 -10.5 25t-24.5 10z" />
    <glyph glyph-name="hungarumlaut" unicode="&#x2dd;" horiz-adv-x="485" 
d="M314 823l-57 -106h43l90 106h-76zM205 823l-57 -106h43l90 106h-76z" />
    <glyph glyph-name="ogonek" unicode="&#x2db;" horiz-adv-x="329" 
d="M187 16l24 -6q-39 -23 -56 -43q-29 -34 -29 -82q0 -24 15 -39.5t30 -15.5q14 0 31 16q14 16 28 31l10 -27q-32 -35 -40 -42q-23 -18 -51 -18q-30 0 -53 19q-28 23 -28 64q0 71 36 105q25 24 83 38z" />
    <glyph glyph-name="caron" unicode="&#x2c7;" horiz-adv-x="611" 
d="M425 796l159 50l4 -33l-176 -92v1l-1 -1l-142 95l17 33z" />
    </font>
</defs>
</svg>
