<?xml version="1.0" standalone="no"?>
<!DOCTYPE svg PUBLIC "-//W3C//DTD SVG 1.1//EN" "http://www.w3.org/Graphics/SVG/1.1/DTD/svg11.dtd" >
<svg>
<metadata>
Created by FontForge 20120731 at Tue Apr 16 16:45:01 2019
 By www-data
Digitized by Dan X. Solo. Software (c) 2000 by Dover Publications, Inc., New York.
</metadata>
<defs>
<font id="Elite" horiz-adv-x="20" >
  <font-face 
    font-family="Elite"
    font-weight="400"
    font-stretch="normal"
    units-per-em="1000"
    panose-1="0 0 4 0 0 0 0 0 0 0"
    ascent="800"
    descent="-200"
    x-height="408"
    cap-height="686"
    bbox="-131 -255 1308 871"
    underline-thickness="20"
    underline-position="-123"
    unicode-range="U+0020-F002"
  />
<missing-glyph horiz-adv-x="500" 
d="M63 0v800h375v-800h-375zM125 63h250v675h-250v-675z" />
    <glyph glyph-name=".notdef" horiz-adv-x="500" 
d="M63 0v800h375v-800h-375zM125 63h250v675h-250v-675z" />
    <glyph glyph-name=".null" horiz-adv-x="0" 
 />
    <glyph glyph-name="glyph2" horiz-adv-x="203" 
 />
    <glyph glyph-name="space" unicode=" " horiz-adv-x="203" 
 />
    <glyph glyph-name="exclam" unicode="!" horiz-adv-x="281" 
d="M170 675l113 -2l-160 -515h-73zM82 107q47 0 47 -43q0 -27 -24 -47.5t-52 -20.5q-47 0 -47 43q0 27 24 48t52 20z" />
    <glyph glyph-name="quotedbl" unicode="&#x22;" horiz-adv-x="340" 
d="M275 676l85 1l-79 -260h-66zM145 676l85 1l-79 -260h-66z" />
    <glyph glyph-name="numbersign" unicode="#" horiz-adv-x="522" 
d="M357 467h-127l-67 -225h128zM99 530h77l44 147h71l-43 -147h128l44 147h71l-43 -147h76l-20 -63h-74l-67 -225h89l-20 -63h-87l-54 -181h-73l54 181h-127l-54 -181h-73l54 181h-65l20 63h64l66 225h-78z" />
    <glyph glyph-name="dollar" unicode="$" horiz-adv-x="543" 
d="M257 156l-32 -105h-78l31 104q-108 5 -165 38q5 28 26 76q85 -38 185 -38q48 0 96 13q69 18 69 52q0 27 -80 31q-118 6 -148 14q-80 21 -80 91q0 72 71 113q55 33 143 43l27 89h78l-26 -86q101 0 154 -18l-32 -75q-12 2 -60 11q-37 6 -61 6q-49 0 -104 -11
q-78 -17 -78 -48q0 -37 78 -43q140 -11 146 -12q79 -19 79 -86q0 -79 -81 -121q-61 -31 -158 -38z" />
    <glyph glyph-name="percent" unicode="%" horiz-adv-x="928" 
d="M741 673l-460 -675h-73l461 675h72zM212 271q-60 2 -99 50q-37 45 -35 106q2 91 73 170t163 79q65 0 101.5 -42t36.5 -107q0 -103 -68 -179q-72 -80 -172 -77zM309 609q-54 0 -100 -69q-43 -64 -43 -126q0 -73 62 -75q57 -2 100 68q38 63 38 129q0 73 -57 73zM642 1
q-60 2 -99 50q-37 45 -35 106q2 91 73 170t163 79q65 0 101.5 -42t36.5 -107q0 -103 -68 -179q-72 -80 -172 -77zM739 339q-54 0 -100 -69q-43 -64 -43 -126q0 -73 62 -75q57 -2 100 68q38 63 38 129q0 73 -57 73z" />
    <glyph glyph-name="ampersand" unicode="&#x26;" horiz-adv-x="676" 
d="M509 136q40 -32 118 -57q-13 -26 -35 -75q-37 10 -80 32q-62 33 -72 37q-126 -77 -238 -77q-88 0 -142 34q-65 42 -65 125q0 128 218 209q-10 41 -10 55q0 105 62 170.5t167 65.5q63 0 104 -30q47 -35 47 -95q0 -79 -91 -143q-68 -49 -155 -72q15 -66 101 -137
q49 30 132 169l66 -26q-6 -32 -52.5 -98t-74.5 -87zM486 533q0 24 -18 37.5t-43 13.5q-55 0 -89.5 -42.5t-34.5 -99.5q0 -39 4 -52q56 12 113 50q68 46 68 93zM365 130q-64 52 -121 146q-54 -4 -95 -39.5t-41 -79.5q0 -35 38 -55q32 -17 70 -17q39 0 80 11q49 12 69 34z" />
    <glyph glyph-name="quotesingle" unicode="'" horiz-adv-x="228" 
d="M145 676l85 1l-79 -260h-66z" />
    <glyph glyph-name="parenleft" unicode="(" horiz-adv-x="359" 
d="M133 226q0 120 86 256q95 150 206 150l25 76q-194 -7 -318 -157q-111 -134 -115 -303q-2 -104 60 -188q65 -88 162 -92q27 73 27 76q-65 2 -101 58q-32 50 -32 124z" />
    <glyph glyph-name="parenright" unicode=")" horiz-adv-x="375" 
d="M328 439q0 -121 -81 -251q-90 -145 -201 -145l-29 -75q172 0 302 148q122 138 125 301q2 107 -55 193q-62 93 -157 97q-27 -73 -27 -76q64 -2 96 -63q27 -52 27 -129z" />
    <glyph glyph-name="asterisk" unicode="*" horiz-adv-x="472" 
d="M283 678l74 1l-33 -112l92 28l37 -64l-114 -27l71 -66l-37 -64l-80 85l-22 -94h-74l34 112l-92 -28l-38 64l114 27l-70 65l36 65l81 -85z" />
    <glyph glyph-name="plus" unicode="+" horiz-adv-x="575" 
d="M308 561l78 -1l-52 -185l185 1l-22 -79h-184l-52 -185l-78 1l51 185l-184 2l22 78l184 -2z" />
    <glyph glyph-name="comma" unicode="," horiz-adv-x="193" 
d="M62 129h100l-109 -181h-67z" />
    <glyph glyph-name="hyphen" unicode="-" horiz-adv-x="269" 
d="M36 273h175l-25 -75h-175z" />
    <glyph glyph-name="hyphen" unicode="&#x2010;" horiz-adv-x="269" 
d="M36 273h175l-25 -75h-175z" />
    <glyph glyph-name="period" unicode="." horiz-adv-x="196" 
d="M82 107q47 0 47 -43q0 -27 -24 -47.5t-52 -20.5q-47 0 -47 43q0 27 24 48t52 20z" />
    <glyph glyph-name="slash" unicode="/" horiz-adv-x="278" 
d="M200 677h71l-200 -679h-73z" />
    <glyph glyph-name="zero" unicode="0" horiz-adv-x="655" 
d="M229 -12q-98 4 -161 81t-61 179q3 158 125 292q126 139 282 139q107 0 168 -69.5t61 -179.5q0 -178 -119 -310q-123 -138 -295 -132zM405 602q-112 0 -201 -135q-81 -122 -81 -241q0 -70 33 -112q35 -45 102 -47q117 -4 200 135q72 120 72 245q0 156 -125 155z" />
    <glyph glyph-name="one" unicode="1" horiz-adv-x="481" 
d="M263 6h-108l131 497q-35 -29 -111 -74q-5 -3 -78 -39l-33 55q53 32 73 46q33 24 103 80q43 37 105 96h96q-51 -145 -178 -661z" />
    <glyph glyph-name="two" unicode="2" horiz-adv-x="654" 
d="M313 170q-4 -2 -148 -57v-10q21 -13 73 -21q49 -9 93 -9q103 0 241 49q-3 -23 -12 -55q-10 -35 -17 -38q-12 -6 -82 -23q-80 -20 -116 -20h-88q-31 0 -139 23q-112 23 -112 33q0 7 14 89q141 48 267 116q236 127 236 240q0 49 -41 76q-33 22 -77 22q-124 0 -244 -119
l-51 53q35 47 117 97q109 68 206 68q84 0 146 -48q67 -52 67 -136q0 -193 -333 -330z" />
    <glyph glyph-name="three" unicode="3" horiz-adv-x="654" 
d="M442 354q21 -11 55 -29q67 -39 67 -107q0 -92 -111 -168q-103 -69 -202 -69q-179 0 -251 49l32 72q131 -35 191 -35q69 0 135 34q80 42 80 106q0 52 -71 76q-53 17 -133 17q-24 0 -44 -1l21 72q98 10 170 34q117 39 117 106q0 42 -40 65q-32 17 -75 17q-46 0 -110 -15.5
t-108 -36.5q-11 36 -11 73q117 70 258 70q81 0 140 -35q69 -41 69 -115q0 -58 -58 -110q-49 -44 -121 -70z" />
    <glyph glyph-name="four" unicode="4" horiz-adv-x="654" 
d="M593 161q-34 -13 -114 -14l-37 -140q-85 -4 -103 -4l36 132q-12 0 -116 -1q-71 -1 -114 0q-60 2 -102 7q-14 32 -36 94q167 166 391 432h128q-206 -257 -379 -426l5 -17q38 -2 88 -2q33 0 84.5 1t65.5 1l70 206h96q-19 -61 -55 -187q7 -7 62 -1q21 2 54 6z" />
    <glyph glyph-name="five" unicode="5" horiz-adv-x="659" 
d="M625 592q-37 -22 -158 -28q-85 -4 -165 -1q-3 1 -11 2q-12 2 -18 0q-12 -39 -34 -132q22 1 61 5t58 4q86 0 151 -45q73 -51 70 -132q-5 -130 -145 -206q-117 -64 -261 -64q-90 0 -166 25q20 62 26 80q70 -22 150 -22q97 0 172 39q94 50 98 142q2 56 -55 82
q-42 20 -102 20q-87 0 -199 -23l94 326q65 -9 128 -9q137 0 148 1q82 3 181 21z" />
    <glyph glyph-name="six" unicode="6" horiz-adv-x="653" 
d="M178 414q93 44 187 44q81 0 139 -58t58 -139q0 -114 -96 -198q-92 -81 -206 -81q-106 0 -173 69.5t-67 175.5q0 201 181 336q157 117 373 140q5 -27 18 -81q-308 -45 -414 -208zM341 376q-80 0 -140 -48q-65 -52 -65 -132q0 -58 41 -92.5t101 -34.5q74 0 130 57.5
t56 131.5q0 53 -34.5 85.5t-88.5 32.5z" />
    <glyph glyph-name="seven" unicode="7" horiz-adv-x="628" 
d="M389 345q75 3 123 10l-36 -67q-101 -11 -137 -9q-96 -128 -101 -134q-56 -78 -88 -141h-123q86 135 187 276q-109 3 -156 13l32 62q76 -8 171 -10q109 145 199 236q-97 -15 -225 -15q-103 0 -169 10l26 88q62 -10 175 -10q137 0 283 13l47 -80q-103 -110 -208 -242z" />
    <glyph glyph-name="eight" unicode="8" horiz-adv-x="665" 
d="M468 352q113 -88 113 -175q0 -92 -116 -146q-91 -42 -198 -42q-102 0 -173 33q-91 43 -91 129q0 84 73 139q50 39 157 75q-18 14 -48 37q-62 49 -62 111q0 95 103 140q76 33 186 33q89 0 149 -42q69 -49 69 -134q0 -56 -53 -99q-35 -28 -109 -59zM389 613q-46 0 -94 -23
q-60 -28 -60 -71q0 -31 53.5 -76t83.5 -45q2 0 38 10q115 32 115 114q0 45 -49 71q-39 20 -87 20zM327 309q-54 0 -131 -45q-86 -51 -86 -108q0 -48 66 -71q47 -16 103 -16q69 0 117 20q69 30 69 96q0 36 -51 80t-87 44z" />
    <glyph glyph-name="nine" unicode="9" horiz-adv-x="631" 
d="M-26 -35q-9 55 -6 71q100 3 214 48q154 61 212 164q-70 -28 -112 -35q-17 -2 -51 -2q-82 0 -145 55t-63 137q0 120 104 206q99 81 221 81q102 0 168 -62t66 -162q0 -142 -98 -262q-89 -109 -233 -175q-139 -63 -277 -64zM352 609q-83 0 -142.5 -58t-59.5 -140
q0 -56 31.5 -87.5t87.5 -31.5q77 0 138 50q67 55 71 138q3 54 -38 93q-39 36 -88 36z" />
    <glyph glyph-name="colon" unicode=":" horiz-adv-x="196" 
d="M172 407q47 0 47 -43q0 -27 -24 -47.5t-52 -20.5q-47 0 -47 43q0 27 24 48t52 20zM82 107q47 0 47 -43q0 -27 -24 -47.5t-52 -20.5q-47 0 -47 43q0 27 24 48t52 20z" />
    <glyph glyph-name="semicolon" unicode=";" horiz-adv-x="259" 
d="M46 133h100l-109 -182h-67zM152 411q46 -1 46 -43q0 -28 -24 -48.5t-51 -20.5q-47 1 -47 43q0 28 24 48.5t52 20.5z" />
    <glyph glyph-name="less" unicode="&#x3c;" horiz-adv-x="831" 
d="M806 400q-7 -30 -111 -144q7 -40 14 -81q11 -59 11 -87q0 -12 -2 -19q-7 -27 -29.5 -43t-50.5 -16q-27 0 -89 26q-44 19 -89 38q-45 -20 -91 -40q-65 -28 -95 -28q-41 0 -61 37q-16 30 -16 75q0 -1 11 114q-40 42 -79 84q-51 59 -51 97q0 41 43 61q24 12 89 24
q61 11 79 22q42 87 57 110q44 66 92 66q9 0 18 -2q33 -8 84 -87.5t59 -80.5q48 -4 140 -20q31 -7 50.5 -30.5t19.5 -53.5q0 -11 -3 -22z" />
    <glyph glyph-name="equal" unicode="=" horiz-adv-x="525" 
d="M28 186h422l-19 -53h-422zM56 292h422l-19 -53h-422z" />
    <glyph glyph-name="greater" unicode="&#x3e;" horiz-adv-x="831" 
d="M779 491q0 -31 -73 -167l40 -90q27 -64 27 -86q0 -34 -25.5 -56.5t-59.5 -22.5q-31 0 -83 9q-41 6 -83 13q-43 -34 -87 -67q-61 -46 -90 -46q-43 0 -68 38q-18 28 -27 83q-6 42 -11 84q-53 34 -105 68q-67 49 -67 91q0 36 37 62q19 13 77 39q50 22 67 39q21 101 32 130
q32 79 88 79q34 0 102.5 -64.5t76.5 -63.5q36 5 71 9q43 6 70 6q38 0 64.5 -25t26.5 -62z" />
    <glyph glyph-name="question" unicode="?" horiz-adv-x="612" 
d="M281 108q46 -1 46 -43q0 -28 -23.5 -48.5t-51.5 -20.5q-47 0 -47 43q0 27 24 48t52 21zM505 484q0 49 -42 76q-33 21 -77 21q-124 0 -244 -119l-51 54q35 46 117 97q109 68 206 68q85 0 146 -48q67 -53 67 -136q0 -78 -44 -134q-36 -46 -120 -97q-32 -15 -65 -30
q-32 -19 -58 -75q-2 -5 -13 -5q-5 0 -22 1.5t-28 1.5q-13 0 -24 -1q12 78 81 134q171 111 171 192z" />
    <glyph glyph-name="at" unicode="@" horiz-adv-x="22" 
 />
    <glyph glyph-name="A" unicode="A" horiz-adv-x="880" 
d="M852 39q-20 -20 -58 -33t-67 -13q-106 0 -106 151q0 88 26 220q41 207 42 218q-105 -141 -238 -303h162q-5 -17 -22 -74h-194q-4 0 -80 -91q-92 -109 -168 -169q-114 -91 -209 -91q-13 0 -25 1q-11 64 -11 88q0 4 1 4q3 0 10 -1.5t11 -1.5q116 0 335 258h-255q9 18 64 77
l252 1l323 394h118q37 1 52 0q-78 -279 -88 -520l-1 -12q-2 -58 38 -58q38 0 88 40q1 -33 0 -85z" />
    <glyph glyph-name="B" unicode="B" horiz-adv-x="703" 
d="M639 497q0 -70 -51 -126q-44 -49 -116 -75q70 0 114 -53t44 -126q0 -151 -184 -232q-142 -62 -316 -62q-31 0 -91 -2q7 38 20 83h15q155 0 272 38q172 54 172 174q0 68 -87 98q-60 22 -144 22q-18 0 -92 -7l-66 -221l-105 -14l149 541q30 3 107 17q-59 -205 -59 -231v-6
h14q95 -2 186 41q111 52 111 138q0 55 -71 79q-47 16 -116 16q-116 0 -337 -44q11 32 34 95q29 5 86 16q119 21 217 21q116 0 191 -33q103 -46 103 -147z" />
    <glyph glyph-name="C" unicode="C" horiz-adv-x="727" 
d="M699 521q0 -78 -37 -132q-34 -1 -101 -5q34 61 34 105q0 51 -34 79q-31 25 -84 25q-103 0 -234.5 -126t-131.5 -229q0 -84 67 -127q56 -37 147 -37q69 0 165 30q5 2 159 57v-92q-49 -27 -162.5 -57t-165.5 -30q-126 0 -214 51q-107 63 -107 180q0 114 78 226
q73 105 187 172q118 68 231 68q80 0 137 -38q66 -43 66 -120z" />
    <glyph glyph-name="D" unicode="D" horiz-adv-x="801" 
d="M780 407q0 -125 -98 -227q-85 -88 -225 -141q-130 -49 -251 -49q-53 0 -97 -1l137 556l103 14l-114 -472q142 -2 279 87q152 100 152 235q0 91 -92 144q-77 45 -174 45q-84 0 -205 -20q-126 -21 -199 -49q11 47 13 92q68 24 188 44t192 20q157 0 262 -59
q129 -73 129 -219z" />
    <glyph glyph-name="E" unicode="E" horiz-adv-x="661" 
d="M673 604l-97 -1q-103 -1 -222 -36q-156 -47 -151 -120q3 -50 55 -74q38 -18 92 -18q17 0 116 12q92 10 103 8q-7 -29 -23 -81q-73 -8 -145 -16q-123 -16 -194 -44q-96 -37 -96 -93q0 -48 64 -70q44 -15 105 -15q84 0 332 83l-13 -93q-28 -15 -163 -45q-131 -28 -166 -28
q-100 0 -174 33q-98 43 -98 130q0 114 203 179q-105 55 -105 126q0 112 167 184q135 59 266 59q21 0 77 5q50 4 98 3q-2 -12 -15 -47.5t-16 -40.5z" />
    <glyph glyph-name="F" unicode="F" horiz-adv-x="623" 
d="M654 679q-7 -30 -23 -85q-67 9 -194 9q-202 0 -451 -57q-1 3 12.5 46.5t16.5 49.5q99 34 380 42q83 2 259 -5zM572 223h-100q-24 -111 -69 -190q-107 -191 -300 -191q-15 0 -47 8v69q20 -2 38 -2q141 0 228 154q36 65 58 155h-349l25 77h339l70 271h89l-65 -269h93
q1 -5 -10 -82z" />
    <glyph glyph-name="G" unicode="G" horiz-adv-x="763" 
d="M770 678q-9 -35 -28 -93q-33 4 -76 4q-193 0 -353 -69q-208 -91 -208 -260q0 -68 48.5 -112.5t115.5 -44.5q117 0 212 93q60 58 141 193q5 1 101 0q-52 -244 -97 -356q-57 -143 -145 -203q-94 -63 -254 -57q-44 2 -97 14q10 24 22 81q58 -15 85 -15q262 0 337 326
q-63 -78 -139 -124q-88 -54 -175 -54q-96 0 -177 59q-89 65 -89 159q0 227 215 355q181 107 424 107q21 0 137 -3z" />
    <glyph glyph-name="H" unicode="H" horiz-adv-x="920" 
d="M897 24q-44 -41 -150 -41q-93 0 -93 93q0 13 5 35q6 33 7 36q23 158 115 502l107 -2q-43 -159 -78 -307l-30 -118q-17 -75 -17 -119q0 -35 32 -35q48 0 110 33zM652 228q-93 -19 -183 -23q-17 -69 -55 -204l-108 -1l18 60q12 44 37 141q-56 -2 -82 -2q-110 0 -191 52
q-94 60 -94 165q0 126 98 204q91 72 221 72q86 0 148 -42q71 -48 71 -130q0 -49 -16 -118l-28 -116q63 0 180 23zM425 500q0 50 -36 81.5t-86 31.5q-79 0 -142 -57.5t-63 -134.5q0 -75 56 -104q63 -33 207 -33h18q46 158 46 216z" />
    <glyph glyph-name="I" unicode="I" horiz-adv-x="629" 
d="M594 398q-20 -84 -64 -236q-41 -119 -128 -180q-76 -53 -168 -53q-60 0 -82 21q0 12 -6 75q28 -17 91 -19q49 -1 96 33q40 29 62 67q30 51 71 215q20 81 71 276l-155 -28q-113 -28 -162 -48q-130 -55 -130 -133q0 -96 155 -96q28 0 52 4q9 -35 9 -72q-15 -7 -73 -9
q-55 -1 -83 3q-75 13 -121 53.5t-46 99.5q0 82 69 148q64 61 169 91q232 68 445 76q-9 -28 -72 -288z" />
    <glyph glyph-name="J" unicode="J" horiz-adv-x="588" 
d="M627 690q-49 -200 -155 -595q-68 -233 -200 -293q-59 -27 -124 -24q-8 1 -48 2q7 36 19 81q28 -8 77 0q75 13 121 104q25 48 53 155q22 81 82 293q51 180 51 184q0 1 -4 1q-20 0 -95 -16t-115 -28q-67 -20 -117 -54q-63 -44 -63 -94q0 -39 38.5 -65t87.5 -26h85
q-9 -31 -24 -70q-50 -4 -117.5 4.5t-115.5 48.5q-52 43 -52 100q0 208 450 278q17 3 87 9q76 7 79 5z" />
    <glyph glyph-name="K" unicode="K" horiz-adv-x="712" 
d="M681 54q-17 -16 -50 -37l-20 -11q-33 -20 -75 -20q-49 0 -118 54q-44 34 -122.5 115t-106.5 104q-3 0 -8 -3l-68 -252l-118 -8l180 672l114 8l-95 -357l15 10q133 90 284 219q129 110 147 136l62 -65q-5 -7 -16 -20q-95 -113 -370 -311q76 -74 211 -190q22 -17 47 -17
q18 0 34.5 6t31.5 11t41 34q1 -69 0 -78z" />
    <glyph glyph-name="L" unicode="L" horiz-adv-x="887" 
d="M500 225h-32l-9 71q13 2 36 5q89 6 191 69q116 73 116 153q0 45 -55 75q-46 25 -90 25q-55 0 -100 -18q-28 -12 -72.5 -43.5t-78.5 -107.5q-17 -39 -44 -129q-12 -50 -24 -99q-15 -61 -36 -95q4 -1 13 -5q33 -10 104 -42q66 -30 105 -40q24 -7 71 -7q25 0 47.5 8.5
t44.5 16.5q41 14 144 71l-8 -81q-24 -19 -66 -49q-15 -9 -42 -25q-57 -30 -115 -32q-14 -1 -70 1q-130 20 -279 104q-35 -30 -54 -38q-40 -18 -103 -18q-41 0 -71 14q-33 17 -33 44q0 14 9 29q51 68 167 68h28.5h23.5q5 24 23 102q48 195 76 255q63 132 192 174
q85 29 148 29q145 0 205 -86q36 -52 36 -101q0 -141 -151 -226q-116 -66 -247 -72z" />
    <glyph glyph-name="M" unicode="M" horiz-adv-x="1098" 
d="M1065 19q-27 -10 -56 -20t-71 -8q-48 2 -79 59q-25 48 -25 98q0 76 33 207q26 104 52 207q-55 -100 -109 -200q-88 -159 -153 -243q-92 -119 -157 -119q-58 0 -80 56q-12 31 -15 103q-4 84 14 192q17 87 33 173h-4q-117 -257 -194 -372q-157 -236 -311 -233l-24 75
q116 35 219 161q76 94 159 261q62 129 124 257h162q-15 -43 -44 -231t-29 -235q0 -41 2 -54q4 -20 20 -29q33 2 176 243l176 310h169q-55 -201 -64 -244q-41 -176 -41 -297q0 -63 41 -63q29 0 86 35z" />
    <glyph glyph-name="N" unicode="N" horiz-adv-x="982" 
d="M941 29q-43 -26 -49 -29q-25 -9 -81 -9q-86 0 -86 84q0 23 6 52l86 378q0 49 -38 49q-22 0 -48 -17q-38 -25 -94 -93q-45 -56 -78 -111q-6 -10 -72 -105q-39 -55 -54 -101q-3 -9 -32 -124q-2 -8 -108 -3q7 34 20 99q14 59 28 143q11 67 22 133q17 95 17 102
q0 58 -28.5 94t-80.5 36q-8 0 -38 -7q-37 -7 -98 -43l-96 -58q-5 11 -24 40q-17 26 -17 27q84 67 190 107q51 20 99 20q92 0 144 -59q47 -54 47 -139q0 -12 -1 -25q-5 -53 -19 -139q40 75 82 133q100 141 191 175q35 12 66 12q22 0 49 -6q43 -11 64 -55q16 -37 11 -74
q-7 -54 -42 -195q-41 -161 -45.5 -183.5t-4.5 -30.5q0 -26 29 -30q26 -5 92 34z" />
    <glyph glyph-name="O" unicode="O" horiz-adv-x="778" 
d="M729 399q0 -161 -114 -281q-124 -130 -319 -130q-122 0 -204 69q-87 74 -87 196q0 137 121 252q81 76 170 111q-56 4 -176 -43q9 27 16 47q16 47 25 50q85 28 216 28q103 0 183 -37q104 -48 146 -152q23 -57 23 -110zM620 387q0 62 -28 110q-41 74 -108 101
q-51 22 -147 24q23 -52 23 -56q0 -2 -63 -45q-76 -52 -119 -104q-63 -76 -63 -155q0 -82 62 -133q58 -47 141 -47q120 0 211 91.5t91 213.5z" />
    <glyph glyph-name="P" unicode="P" horiz-adv-x="755" 
d="M478 211q-114 -41 -228 -46l-63 -213h-121l170 620q9 -2 65 -1q52 1 52 0l-86 -314q115 4 220 58q129 67 129 170q0 67 -78 93q-54 18 -160 18h-53q-31 -1 -45 -1q-134 2 -280 -29l31 89q46 13 176 21q125 8 231 6q84 -1 154 -25q91 -30 122 -88q20 -37 20 -82
q0 -93 -66.5 -162t-189.5 -114z" />
    <glyph glyph-name="Q" unicode="Q" horiz-adv-x="774" 
d="M289 74q48 -6 93 -6q128 0 294 52l-9 -74q-34 -21 -148 -39q-99 -15 -160 -15q-272 0 -370 35q7 30 30 87q202 1 376 73q227 93 227 259q0 78 -65 120q-55 36 -138 36q-94 0 -183 -50q-104 -57 -104 -143q0 -134 190 -134q28 0 76 3v-66q-74 -10 -104 -10q-103 0 -179 41
q-93 52 -93 148q0 132 149 218q128 74 271 74q118 0 199 -50q96 -60 96 -171q0 -148 -156 -261q-124 -90 -292 -127z" />
    <glyph glyph-name="R" unicode="R" horiz-adv-x="705" 
d="M668 56q-75 -71 -146 -71q-63 0 -173 116q-4 4 -145 172l-76 -273h-106l150 567h109l-62 -235q97 -1 202 34q135 46 135 124q0 98 -243 106q-140 4 -318 -42l17 86q47 11 95 21q117 20 235 19q124 -2 208 -34q119 -47 119 -148q0 -164 -321 -229q52 -58 103 -116
q77 -79 120 -79q27 0 106 34z" />
    <glyph glyph-name="S" unicode="S" horiz-adv-x="734" 
d="M763 656q-9 -29 -33 -83q-106 17 -174 17q-101 0 -205 -29q-145 -40 -145 -113q0 -52 123 -63q218 -19 230 -22q124 -28 124 -124q0 -121 -142 -191q-118 -58 -268 -58q-123 0 -285 54l21 76q57 -13 104 -24q113 -24 158 -25q87 -2 181 37q111 45 111 115q0 41 -122 50
q-185 15 -227 26q-122 34 -122 133q0 137 182 202q129 46 297 46q87 0 192 -24z" />
    <glyph glyph-name="T" unicode="T" horiz-adv-x="837" 
d="M744 565q-104 -53 -224 -190q-139 -156 -139 -265q0 -33 33 -53q28 -17 57 -17q63 0 144 37q60 27 108 61q-2 -20 -11 -73q-16 -12 -50 -35q-114 -74 -236 -74q-158 0 -158 156q0 122 132 271q116 131 260 211q36 -12 84 -29zM454 616q-115 0 -211 -28
q-142 -42 -142 -131q0 -98 165 -98q3 0 17 1t19 1q-4 -18 -12 -58q-55 -11 -63 -11q-61 0 -106 11q-57 14 -92 62q-31 44 -31 96q0 131 163 192q113 41 250 39q251 -4 420 -34q-18 -69 -19 -69q-189 27 -358 27z" />
    <glyph glyph-name="U" unicode="U" horiz-adv-x="726" 
d="M692 128q-1 -28 -15 -78q-13 -23 -65 -40q-44 -16 -75 -16q-44 0 -70 24q-32 28 -28 84q11 59 36 188q-152 -298 -338 -298q-124 0 -124 118q0 42 17 88q90 248 107 356q12 75 -139 78l18 67q25 1 37 1q72 0 122 -26q69 -35 69 -112q0 -76 -59 -243t-59 -181
q0 -16 19 -30q15 -12 23 -12q15 0 41 9t37 17q84 62 173 208q21 36 131 243q9 17 48 91h99q-148 -517 -148 -556q0 -13 10.5 -22.5t24.5 -9.5q34 0 59 17t49 35z" />
    <glyph glyph-name="V" unicode="V" horiz-adv-x="909" 
d="M886 659q-4 -49 -59 -153q-47 -88 -66 -107q14 -11 19 -14q9 -5 25 -10q-8 -18 -28 -64q-25 6 -30 10q-12 11 -23 18q-10 -28 -110 -172q-105 -149 -131 -167h-127l-17 245q-10 143 -25 214q-32 157 -100 152q-33 -3 -103 -47q-44 -29 -89 -58l-7 -5l-25 64l48 46
q48 43 104 71q60 30 104 30q82 0 129 -75q34 -54 49 -151q7 -60 13 -120q5 -32 14 -263q16 6 110.5 138t96.5 157q0 1 -7.5 19t-7.5 40q0 51 57 122q49 62 103 98q17 10 43 12q20 1 29 -4q13 -7 11 -26z" />
    <glyph glyph-name="W" unicode="W" horiz-adv-x="932" 
d="M580 -14q-105 0 -105 189q0 39 7 113l3 42q-56 -121 -233 -330l-106 2q53 223 53 461q0 75 -22 111q-29 46 -101 46q-29 0 -90 -26l19 81q57 27 116 27q96 0 144 -70q42 -59 42 -160q0 -147 -34 -317q73 66 170 245q82 150 82 163h87q-27 -116 -27 -347q0 -74 16 -104
q59 3 168 247q88 198 117 312h94q-17 -90 -82 -246q-73 -179 -150 -295q-95 -144 -168 -144z" />
    <glyph glyph-name="X" unicode="X" horiz-adv-x="949" 
d="M662 278q35 -110 39 -118q34 -72 87 -72q48 0 139 49v-73q-118 -78 -178 -78q-68 0 -120 74q-40 59 -57 138q-71 -88 -164 -151q-111 -74 -204 -74q-85 0 -145 52q-64 55 -64 138q0 134 139 209q113 61 259 61h17v-75h-9q-98 1 -188 -49q-107 -58 -107 -151
q0 -46 27 -73.5t73 -27.5q70 0 185 92q95 77 152 154q-39 124 -120 370l110 -1l96 -296q51 43 150.5 156t131.5 168l87 -28q-174 -234 -336 -394z" />
    <glyph glyph-name="Y" unicode="Y" horiz-adv-x="748" 
d="M598 156l122 28l-18 -79l-127 -32q-81 -153 -174 -231q-116 -97 -268 -97q-74 0 -124 27q-63 34 -63 102q0 107 217 185q143 52 312 74q34 99 38 112q20 66 27 115q-37 -44 -75 -87q-46 -52 -86 -77q-53 -34 -108 -34q-78 0 -121 111q-31 82 -43 229q-6 96 -11 193l109 2
l6 -126q8 -125 26 -200q24 -104 65 -104q72 0 190 165q91 128 140 239h99q-22 -104 -64 -258q-34 -128 -69 -257zM459 55q-162 -34 -231 -56q-169 -55 -169 -122q0 -28 30 -42q23 -12 53 -12q189 0 317 232z" />
    <glyph glyph-name="Z" unicode="Z" horiz-adv-x="794" 
d="M767 307h-125q-135 -102 -175 -126q-98 -60 -218 -87q39 -21 233 -21q118 0 252 74l-18 -88q-146 -74 -291 -74q-124 0 -435 35l21 76q300 59 478 208h-262l31 65q309 0 298 0q78 32 78 148q0 97 -182 97q-169 0 -333 -42l27 83q135 49 332 49q111 0 184 -35
q97 -46 97 -146q0 -52 -85 -152h118z" />
    <glyph glyph-name="bracketleft" unicode="[" horiz-adv-x="332" 
d="M229 768h150l-19 -63h-77l-195 -736h84l-18 -60q-29 0 -79 1h-75z" />
    <glyph glyph-name="backslash" unicode="\" horiz-adv-x="831" 
d="M806 400q-7 -30 -111 -144q7 -40 14 -81q11 -59 11 -87q0 -12 -2 -19q-7 -27 -29.5 -43t-50.5 -16q-27 0 -89 26q-44 19 -89 38q-45 -20 -91 -40q-65 -28 -95 -28q-41 0 -61 37q-16 30 -16 75q0 -1 11 114q-40 42 -79 84q-51 59 -51 97q0 41 43 61q24 12 89 24
q61 11 79 22q42 87 57 110q44 66 92 66q9 0 18 -2q33 -8 84 -87.5t59 -80.5q48 -4 140 -20q31 -7 50.5 -30.5t19.5 -53.5q0 -11 -3 -22zM740 403q1 5 1 11q0 39 -38 44l-139 20q-43 65 -55 83q-45 62 -61 66q-32 8 -72 -58q-25 -48 -50 -97q-50 -10 -99 -21q-74 -18 -79 -39
q-6 -23 46 -82l72 -78q1 -14 -4 -54q-6 -45 -6 -64q0 -53 32 -61q21 -5 85 26q68 33 86 33q5 0 9 -1l139 -54q5 -2 12 -2q34 0 41 29q5 22 -23 172q36 38 57 63q42 48 46 64z" />
    <glyph glyph-name="bracketright" unicode="]" horiz-adv-x="332" 
d="M140 -91h-150l19 63h77l195 736h-84l18 60h79q50 -1 75 -1z" />
    <glyph glyph-name="asciicircum" unicode="^" horiz-adv-x="661" 
d="M487 765l-129 -54l-34 37l168 79h7l134 -66l-38 -38z" />
    <glyph glyph-name="underscore" unicode="_" horiz-adv-x="557" 
d="M0 -93h557v-63h-557v63z" />
    <glyph glyph-name="grave" unicode="`" horiz-adv-x="469" 
d="M396 738l-177 96q-53 -72 -53 -69l202 -65z" />
    <glyph glyph-name="a" unicode="a" horiz-adv-x="609" 
d="M578 41q-29 -15 -57 -30q-46 -22 -82 -22q-71 0 -71 72q0 15 2 34q-105 -102 -212 -102q-66 0 -108 35q-46 38 -46 105q0 113 110 202q106 84 222 78q88 -5 111 -14q1 0 3 1l-1 5q1 3 5 3q-3 0 101 0l-81 -306q-2 -7 -2 -12q0 -15 16 -15q29 0 104 44zM428 323
q-19 11 -93 11q-65 0 -139 -56q-82 -62 -82 -134q0 -30 21.5 -49.5t51.5 -19.5q56 0 120 60q58 53 90 119q12 24 31 69z" />
    <glyph glyph-name="b" unicode="b" horiz-adv-x="540" 
d="M498 253q0 -120 -101 -194q-97 -71 -237 -67q-61 2 -106 34q-51 37 -51 95q0 53 58 268q39 142 79 284h107l-83 -314q39 25 57 33q48 19 114 19q76 0 119.5 -41t43.5 -117zM391 231q0 44 -22 72.5t-65 28.5q-66 0 -130 -60.5t-64 -126.5q0 -35 25 -57.5t61 -22.5
q44 0 100 37q52 36 75 76q20 35 20 53z" />
    <glyph glyph-name="c" unicode="c" horiz-adv-x="510" 
d="M482 303q0 -31 -13 -52q-98 -2 -100 0q6 18 6 36q0 58 -60 58q-68 0 -136 -57q-71 -59 -71 -126q0 -45 40 -67q31 -17 80 -17q100 1 222 51l-19 -75q-124 -67 -241 -61q-82 0 -133 36q-59 42 -59 127q0 120 114 198q97 66 207 68q163 3 163 -119z" />
    <glyph glyph-name="d" unicode="d" horiz-adv-x="615" 
d="M474 107q0 -30 25 -30q43 0 89 25q-3 -17 -9.5 -42.5t-6.5 -28.5q-36 -36 -118 -35q-52 1 -68 32q-11 22 -8 79q-40 -49 -102 -81q-65 -33 -127 -33q-65 0 -109 40.5t-44 104.5q0 118 118 200q106 74 228 74q54 0 94 -10l76 271h110q-148 -479 -148 -566zM417 327
q-12 7 -41 7q-87 0 -172 -51q-99 -58 -99 -140q0 -68 75 -68q61 0 135 72q69 67 86 130q5 15 16 50z" />
    <glyph glyph-name="e" unicode="e" horiz-adv-x="537" 
d="M503 312q0 -83 -140 -131q-94 -32 -212 -39l-37 -3q-5 -35 30 -55q29 -16 73 -16q128 0 257 71q-5 -30 -21 -88q-114 -62 -234 -62q-92 0 -151 41q-66 46 -66 134q0 114 121 187q104 63 225 63q62 0 102 -20q53 -27 53 -82zM387 305q0 38 -69 38q-54 0 -123 -43
q-74 -47 -77 -96l31 1q58 4 137 29q101 32 101 71z" />
    <glyph glyph-name="f" unicode="f" horiz-adv-x="437" 
d="M387 348l-158 2q-5 -6 0 -7q61 -18 104 -93q41 -70 39 -137q-3 -112 -98 -219q-98 -111 -206 -110q-82 0 -79 96q1 59 60 253q29 91 58 183q-12 8 -40.5 20t-37.5 14q0 1 21 57h82q9 34 79 264h105l-72 -264h164q-5 -16 -21 -59zM279 113q3 37 -17 83q-23 52 -62 72
l-110 -375q1 -5 3 -11t14 -6q6 0 14 1q59 13 109 94q44 74 49 142z" />
    <glyph glyph-name="g" unicode="g" horiz-adv-x="580" 
d="M152 -203q-65 0 -107 31q-47 34 -44 96q1 7 4 20q35 1 105 0l-5 -27q1 -44 63 -44q118 0 199 227q-32 -37 -87 -69q-60 -34 -104 -34q-72 0 -119.5 40.5t-46.5 103.5q2 115 116 197q108 76 239 76q46 0 92 -23l5 16h99q-35 -131 -69 -261q-49 -161 -116 -242
q-88 -107 -224 -107zM438 323q-30 15 -70 15q-72 0 -143 -42q-36 -21 -66 -62q-33 -46 -33 -83q0 -31 17.5 -51.5t48.5 -20.5q123 0 246 244z" />
    <glyph glyph-name="h" unicode="h" horiz-adv-x="600" 
d="M545 19q-89 -35 -136 -35q-74 1 -71 76q2 40 31 117q33 89 39 122q2 6 -6 13t-16 7q-62 1 -170 -129q-93 -113 -126 -192l-90 1l193 670l109 -1l-117 -411q148 153 251 152q37 0 61 -19q28 -21 24 -57q-5 -38 -32 -117q-34 -97 -42 -128q-2 -9 7.5 -18t18.5 -9
q21 0 45 11q45 21 52 23q-12 -46 -25 -76z" />
    <glyph glyph-name="i" unicode="i" horiz-adv-x="269" 
d="M245 538q-1 -27 -26 -46t-54 -20q-17 0 -36 16.5t-19 32.5q1 27 27.5 47.5t54.5 20.5q23 0 38.5 -14t14.5 -37zM91 -4q-42 0 -65.5 19.5t-22.5 60.5q1 28 93 333l104 -1q-38 -134 -80 -291q-6 -37 23 -37q7 0 14 3q32 9 95 47q-1 -24 -17 -79q-26 -16 -50 -27
q-57 -28 -94 -28z" />
    <glyph glyph-name="j" unicode="j" horiz-adv-x="252" 
d="M272 543q-1 -32 -30 -51q-24 -17 -50 -17q-20 0 -37.5 15t-16.5 36q1 27 29 48t52 21q23 0 38.5 -14.5t14.5 -37.5zM233 406l-101 -1q-66 -217 -132 -459q-9 -30 -28 -37q-6 -2 -29 -2q-6 0 -49 3l-25 -80l132 -4q42 0 65 29q18 22 35 84z" />
    <glyph glyph-name="k" unicode="k" horiz-adv-x="534" 
d="M509 377q-80 -55 -241 -162q17 -33 65 -80q53 -54 80 -54q35 0 74 28l-25 -92q-37 -24 -93 -25q-43 0 -112 77q-46 56 -93 111l-50 -178l-115 -4l191 677l113 -2l-123 -421l245 171z" />
    <glyph glyph-name="l" unicode="l" horiz-adv-x="460" 
d="M421 597q0 10 -7 21q-10 14 -24 14q-51 0 -137 -116q-76 -103 -97 -171q-5 -15 -27 -71q-11 -26 -15 -68q95 52 184 153q93 106 117 196q6 24 6 42zM515 593q0 -61 -38 -136q-33 -65 -82 -116q-122 -129 -200 -174q-36 -19 -73 -41q-5 -33 29 -49q26 -13 61 -13
q39 0 106 22t100 46q-2 -16 -13 -52q-9 -32 -12 -35q-46 -58 -213 -58q-84 0 -131 51t-47 136q0 98 60.5 222.5t150.5 207.5q101 93 202 93q45 0 72.5 -29t27.5 -75z" />
    <glyph glyph-name="m" unicode="m" horiz-adv-x="850" 
d="M811 28q-77 -48 -136 -48q-67 0 -67 71q0 22 24 103q26 88 31 139q-7 21 -26 24q-52 -1 -144 -133q-68 -99 -108 -185h-94l76 291q1 22 -18 22q-46 -1 -152 -130.5t-106 -182.5v0h-100l113 407h100q-11 -39 -22 -79q-14 -47 -17 -80q22 39 98 100q81 66 119 66
q95 0 95 -80q0 -20 -12 -52q-13 -39 -15 -52q82 101 104 121q67 63 141 63q73 0 73 -66q0 -9 -2 -18q-9 -64 -32 -156q-13 -50 -26 -99q-3 -12 6 -14t20 -3q10 -1 84 36z" />
    <glyph glyph-name="n" unicode="n" horiz-adv-x="594" 
d="M544 27q-82 -37 -118 -37q-87 0 -87 74q0 38 35.5 117.5t35.5 116.5q0 33 -29 29q-115 -36 -191 -143q-48 -68 -89 -184h-99l117 406h102q-14 -43 -41 -129q126 140 257 140q34 0 60.5 -23.5t26.5 -57.5q0 -40 -33.5 -120.5t-33.5 -118.5q0 -23 20 -23q23 0 81 22
q-2 -27 -14 -69z" />
    <glyph glyph-name="o" unicode="o" horiz-adv-x="537" 
d="M504 251q0 -116 -101 -193q-92 -71 -212 -71q-72 0 -131 41q-66 47 -66 116q0 119 97 201q93 78 213 78q88 0 141 -41q59 -46 59 -131zM392 258q0 41 -26.5 66.5t-68.5 25.5q-74 0 -131 -56.5t-57 -130.5q0 -47 26.5 -75t72.5 -28q75 0 130 63q54 60 54 135z" />
    <glyph glyph-name="p" unicode="p" horiz-adv-x="601" 
d="M552 275q0 -118 -105 -205q-96 -81 -206 -81q-85 0 -125 22l-51 -174h-104q45 177 152 569l104 -1q-25 -72 -19 -78q41 42 99 67q52 23 98 23q66 0 111.5 -40t45.5 -102zM444 259q0 33 -22.5 51.5t-56.5 18.5q-59 0 -126 -57t-85.5 -120t-18.5 -62q0 -6 39 -14
q35 -7 47 -7q57 0 134 52q89 62 89 138z" />
    <glyph glyph-name="q" unicode="q" horiz-adv-x="551" 
d="M543 412l-162 -579l-106 1q26 85 76 254h-4q-69 -60 -83 -69q-43 -26 -105 -25q-69 0 -115 41t-45 108q3 126 109 204q96 70 226 69q52 -1 100 -21l12 15zM418 326q-24 16 -73 16q-76 1 -153 -54q-83 -59 -84 -132q-1 -35 20.5 -57t56.5 -22q72 -1 152 88t81 161z" />
    <glyph glyph-name="r" unicode="r" horiz-adv-x="500" 
d="M440 311q-22 -22 -97 -63q-85 -47 -115 -70q-55 -42 -55 -80q0 -30 65 -30q47 0 112 22q53 20 107 40l-8 -42q-6 -27 -17 -36q-26 -23 -103.5 -46t-117.5 -23q-61 0 -103 20q-56 26 -56 79q0 52 50 96q34 29 109 68q81 43 102 59q-134 -8 -174 3l-36 -46q-56 0 -78 2
q30 42 44 68q-2 15 -9 40q5 55 49.5 97t98.5 42q20 0 25 -37q5 -30 -45 -91q21 -9 61 -9q19 0 214 11q-2 -13 -12 -43t-11 -31z" />
    <glyph glyph-name="s" unicode="s" horiz-adv-x="543" 
d="M483 332q-13 1 -60 10q-37 7 -61 7q-49 0 -104 -12q-79 -16 -79 -47q0 -37 79 -43q140 -11 146 -13q79 -18 79 -86q0 -90 -105 -131q-75 -29 -182 -29q-130 0 -196 39q5 27 26 75q85 -38 185 -38q48 0 96 13q69 18 69 52q0 28 -80 32q-119 6 -148 14q-80 21 -80 91
q0 86 100 127q74 31 174 31q120 0 173 -18z" />
    <glyph glyph-name="t" unicode="t" horiz-adv-x="388" 
d="M355 345q-89 1 -148 0l-58 -245q0 -24 30 -24q37 0 85 16q41 14 81 29q-4 -20 -12 -74q-116 -55 -185 -55q-47 0 -77.5 24.5t-30.5 66.5q0 8 1 16q7 53 65 246h-97l12 62h97l58 192l102 -1l-53 -191l147 -1z" />
    <glyph glyph-name="u" unicode="u" horiz-adv-x="581" 
d="M409 -8q-29 0 -55 20t-26 48q0 17 15 79l13 50q-47 -73 -113 -130q-82 -70 -149 -70q-42 0 -68 29t-26 68q0 11 3 22q32 114 84 300q70 0 112 -1q-25 -77 -49 -154q-38 -119 -38 -139q0 -32 28 -32q55 0 154 136q67 92 119 190h101q-5 -20 -43 -151q-29 -102 -37 -155
q-2 -10 7.5 -18.5t17.5 -7.5q39 5 102 42q-5 -28 -17 -80q-4 -17 -61 -33q-49 -13 -74 -13z" />
    <glyph glyph-name="v" unicode="v" horiz-adv-x="518" 
d="M504 392l-311 -393h-74l-90 409h103l61 -283l227 300z" />
    <glyph glyph-name="w" unicode="w" horiz-adv-x="659" 
d="M420 -1h-80l-23 226q-31 -52 -93 -133t-78 -93h-81l-22 409h106l10 -258q30 29 91 120l90 138h67l21 -246q37 38 96 124q55 78 91 141l76 -31q-48 -95 -130 -216q-85 -125 -141 -181z" />
    <glyph glyph-name="x" unicode="x" horiz-adv-x="531" 
d="M347 -16q-31 -2 -72 47l-64 80q-53 -42 -106 -83.5t-71 -49.5q-21 17 -47 73q97 70 177 142q-82 143 -88 215h112l8 -33q8 -29 56 -117q53 37 182 174l72 -51q-26 -38 -114 -123q-45 -42 -90 -85q-7 -7 28.5 -49.5t48.5 -42.5l21 3q28 5 106 59l-21 -98q-3 -12 -61.5 -36
t-76.5 -25z" />
    <glyph glyph-name="y" unicode="y" horiz-adv-x="513" 
d="M156 -199h-100l29 77l30 -1q151 -1 222 262q-63 -75 -96 -101q-60 -46 -129 -46q-51 0 -84.5 35.5t-33.5 85.5q0 54 78 295h106q-1 -4 -48 -152q-33 -104 -33 -137q0 -32 36 -32q71 0 173 128q84 105 119 193h97q-33 -126 -67 -251q-47 -162 -105 -245
q-79 -111 -194 -111z" />
    <glyph glyph-name="z" unicode="z" horiz-adv-x="559" 
d="M536 363q0 -51 -78 -111q-58 -43 -165 -95q-71 -34 -143 -67q15 -15 49 -15q11 0 28.5 2t21.5 2q99 0 237 46q-1 -6 -16 -47q-7 -20 -14 -39q-31 -19 -121 -37q-82 -16 -127 -16q-119 0 -205 48q0 10 10.5 45t14.5 39q13 12 194 101q157 79 157 112q0 17 -47 17
q-86 0 -229 -17q11 31 21 64q170 29 209 29q83 0 119 -5q84 -13 84 -56z" />
    <glyph glyph-name="braceleft" unicode="{" horiz-adv-x="1360" 
d="M784 612q-28 0 -181 -72.5t-198 -72.5q-13 0 -18 6q-20 -3 -55 -1l-3 13h-239q22 -84 17 -119q-5 -33 -3 -103q3 -116 3 -108q0 -4 -7 -52t-7 -64q4 -3 31 -8.5t36 -5.5l177 16l-1 7t-1 13v11q14 16 57 6q4 5 4 18v67q3 3 14 3q4 0 46 -12q50 -14 69 -18q96 -22 134 -21
q1 -1 3 0l2 2v-4q0 -5 -1.5 -7t-1.5 -7q0 -38 68 -38q16 0 27 3q7 -4 18 -8q4 -1 9 -1q32 0 69 41q2 2 4 2q3 0 12.5 -8.5t15.5 -6.5q56 19 94 75q3 6 19 5q22 -2 25 -2q66 11 80 29q27 38 27 58q0 25 -13 44.5t-40 19.5q-8 0 -16 -1q3 11 3 25q0 56 -35 103q20 -6 23 -3
q35 1 51 12q14 -16 76 -16q60 0 77 9q38 20 53 99q-32 13 -41 16q-29 7 -90 11q-45 8 -126 21q-206 24 -267 24zM1182 546q41 2 70 -4q19 -5 37 -10q-1 0 -1 -7t-8.5 -10.5t-18.5 -3.5q-20 0 -43.5 10.5t-35.5 24.5zM922 452q40 0 54 -5q30 -13 49.5 -41t19.5 -57
q0 -5 -1 -21t-1 -17l-89 6l-4 35q26 10 34 21q-8 0 -26.5 -4.5t-27.5 -3.5q-7 1 -40 25q-37 27 -37 39q0 23 69 23zM1102 286q5 -8 5 -40q0 -25 -17 -46q-19 -2 -73 -3l7 35q0 4 -7 35q20 7 40 13q31 9 45 6zM846 410q5 0 39 -26q42 -32 54 -40v-24q-32 0 -53 5.5t-19 5.5
q3 4 12 12t12 11q-8 0 -22 -4.5t-21 -3.5q-32 6 -39 32l20 24q8 8 17 8zM853 443q-20 -24 -27 -30q-17 -18 -27 -19q5 19 18.5 35t27.5 16q4 0 8 -2zM790 590l227 -24q0 -21 3 -26q4 5 13 26q18 -3 90 -11q50 -6 45 -7q35 -50 88 -50q10 0 20 2q-10 -35 -31 -42
q-6 -2 -43 -2q-40 0 -90 9q-1 13 -5 30q-5 -14 -15 -30q-6 -1 -21 -5t-18 -4q-2 0 -96 12q0 23 -8 28q-2 -13 -8 -28q-22 0 -65.5 -4t-44.5 -4q-13 0 -41 22q1 -5 9.5 -17t8.5 -17t-11 -21q-8 -12 -15 -24q-16 -26 -19 -57q-28 8 -56 17q-32 11 -55 28q-3 -3 -2 -5
q25 -25 51 -36q31 -12 88 -25q49 -10 59 -10l173 -17q21 2 55 3q14 -2 14 -3q-31 5 -89 -24q9 -24 9 -45q0 -20 -9 -39q8 -4 30 -5h32q7 0 11 -1q-20 -6 -89 -6l-91 1q-82 0 -111 -7q-14 -3 -73 -21q-37 -12 -58 -12q-62 0 -136 21q-60 16 -119 33q-4 36 -2 103v149
q67 6 219 74q13 6 27 12q21 8 86 40q39 19 63 19zM785 368h12q26 -22 46 -33h-36q-4 -1 -26 11q0 5 2 12.5t2 9.5zM952 149q-16 -29 -65 -50q2 20 28 38q23 16 37 12zM848 160h94q-19 -7 -45 -19l-10 -18q-10 -18 -15 -18q-10 0 -19.5 16t-9.5 26q0 5 2.5 8.5t2.5 4.5z
M819 160q10 0 16 -6q-3 -11 -4 -29q-14 -6 -37 -17q-6 -5 -11 -18.5t-7 -16.5q-12 13 -12 34q0 31 12.5 42t42.5 11zM842 107q-23 -31 -53 -40q3 42 45 42q5 0 8 -2zM761 147q-5 -28 -5 -53q-43 10 -57 8q-18 -12 -21 -9l1 25q0 5 12 8q7 2 14 3q28 7 56 18zM703 93
q10 -2 53 -10q-5 -9 -24 -9q-13 0 -40 6q3 3 11 13zM328 452h51v-343q-6 0 -21 -2t-20 -2q-11 23 -10 98v249zM896 284q5 -47 -1 -95q18 24 18 46q0 11 -17 49zM767 458q-18 3 -57.5 -12.5t-46.5 -30.5l41 -3q10 0 24 3q-2 2 -11.5 8t-11.5 8q21 12 62 27zM880 272
q-10 -21 -3 -58l9 -2q-9 26 0 60h-6zM866 289q-16 -37 -16 -45q0 -29 22 -50q-10 21 -10 49q0 11 4 46z" />
    <glyph glyph-name="bar" unicode="|" horiz-adv-x="831" 
d="M779 491q0 -31 -73 -167l40 -90q27 -64 27 -86q0 -34 -25.5 -56.5t-59.5 -22.5q-31 0 -83 9q-41 6 -83 13q-43 -34 -87 -67q-61 -46 -90 -46q-43 0 -68 38q-18 28 -27 83q-6 42 -11 84q-53 34 -105 68q-67 49 -67 91q0 36 37 62q19 13 77 39q50 22 67 39q21 101 32 130
q32 79 88 79q34 0 102.5 -64.5t76.5 -63.5q36 5 71 9q43 6 70 6q38 0 64.5 -25t26.5 -62zM712 475q0 20 -14.5 34t-33.5 11l-140 -14q-127 116 -149 116q-33 0 -56 -74q-13 -53 -25 -105q-46 -22 -91 -45q-67 -35 -67 -57q0 -23 64 -68q44 -29 89 -58q5 -13 10 -63t14 -72
q13 -34 41 -34q21 0 81.5 51t78.5 49l148 -19q16 -2 30.5 10.5t14.5 29.5q0 22 -64 160q69 123 69 148z" />
    <glyph glyph-name="braceright" unicode="}" horiz-adv-x="1363" 
d="M603 612q29 0 181.5 -72.5t198.5 -72.5q13 0 18 6q20 -3 55 -1l3 13h239q-22 -84 -17 -119q4 -33 3 -103q-3 -116 -3 -108q0 -4 7 -52t7 -64q-4 -3 -31 -8.5t-36 -5.5l-178 16l1.5 7t1.5 13v11q-14 16 -57 6q-5 5 -4 18v67q-3 3 -14 3q-4 0 -46 -12q-50 -14 -69 -18
q-96 -22 -134 -21q-1 -1 -3 0l-2 2v-4q0 -5 1.5 -7t1.5 -7q0 -38 -68 -38q-16 0 -27 3q-7 -4 -18 -8q-5 -1 -10 -1q-31 0 -68 41q-2 2 -4 2q-3 0 -12.5 -8.5t-15.5 -6.5q-57 19 -94 75q-3 6 -19 5q-22 -2 -26 -2q-66 11 -79 29q-27 38 -27 58q0 25 13 44.5t40 19.5
q8 0 16 -1q-3 11 -3 25q0 56 35 103q-20 -6 -23 -3q-35 1 -51 12q-14 -16 -76 -16q-60 0 -77 9q-38 20 -53 99q32 13 40 16q30 7 91 11q45 8 126 21q206 24 266 24zM205 546q-40 2 -70 -4l-36 -10q1 0 1 -7t10 -11q7 -3 17 -3q20 0 43.5 10.5t34.5 24.5zM466 452
q-41 0 -54 -5q-30 -13 -50 -41t-20 -57q0 -5 1.5 -21t1.5 -17l89 6l4 35q-26 10 -34 21q8 0 26 -4.5t28 -3.5q7 1 40 25q37 27 37 39q0 23 -69 23zM286 286q-6 -8 -6 -40q0 -25 18 -46q19 -2 73 -3l-7 35q0 4 7 35q-20 7 -40 13q-31 9 -45 6zM542 410q-5 0 -39 -26
q-42 -32 -54 -40v-24q32 0 53 5.5t19 5.5q-4 4 -12.5 12t-11.5 11q8 0 22 -4.5t21 -3.5q32 6 39 32l-20 24q-8 8 -17 8zM535 443q20 -24 26 -30q18 -18 28 -19q-5 19 -18.5 35t-27.5 16q-4 0 -8 -2zM598 590l-228 -24q0 -21 -2 -26q-5 5 -13 26q-19 -3 -90 -11
q-50 -6 -45 -7q-35 -50 -88 -50q-10 0 -20 2q10 -35 31 -42q5 -2 43 -2q40 0 90 9q1 13 4 30q6 -14 15 -30q7 -1 21.5 -5t18.5 -4q2 0 96 12q0 23 8 28q2 -13 8 -28q22 0 65.5 -4t44.5 -4q12 0 41 22q-1 -5 -10 -17t-9 -17t11 -21l16 -24q16 -26 19 -57q28 8 56 17
q32 11 54 28q4 -3 2 -5q-24 -25 -50 -36q-31 -12 -89 -25q-48 -10 -58 -10l-173 -17q-21 2 -55 3q-14 -2 -14 -3q31 5 89 -24q-9 -24 -9 -45q0 -20 9 -39q-8 -4 -30 -5h-32q-7 0 -11 -1q20 -6 89 -6l91 1q82 0 111 -7q14 -3 73 -21q37 -12 58 -12q61 0 136 21q59 16 119 33
q4 36 2 103v149q-67 6 -219 74q-13 6 -27 12q-21 8 -86 40q-39 19 -63 19zM603 368h-12q-26 -22 -46 -33h36q4 -1 26 11q0 5 -2 12.5t-2 9.5zM436 149q15 -29 65 -50q-2 20 -27 37t-38 13zM540 160h-94q19 -7 45 -19l10 -18q10 -18 14 -18q10 0 20 16t10 26q0 5 -2.5 8.5
t-2.5 4.5zM569 160q-10 0 -16 -6q3 -11 4 -29q14 -6 37 -17q6 -5 11 -18.5t7 -16.5q12 13 12 34q0 31 -12.5 42t-42.5 11zM546 107q22 -31 53 -40q-3 42 -45 42q-6 0 -8 -2zM627 147q5 -28 5 -53q43 10 57 8q18 -12 21 -9l-1 25q0 5 -12 8q-7 2 -14 3q-28 7 -56 18zM685 93
q-11 -2 -53 -10q5 -9 24 -9q13 0 40 6q-3 3 -11 13zM1060 452h-51v-343q6 0 21 -2t19 -2q12 23 11 98v249zM492 284q-5 -47 0 -95q-17 24 -17 46q0 11 17 49zM621 458q18 3 57.5 -12.5t46.5 -30.5l-41 -3q-10 0 -24 3q2 2 11.5 8t10.5 8q-20 12 -61 27zM508 272
q10 -21 3 -58l-9 -2q9 26 0 60h6zM522 289q16 -37 16 -45q0 -29 -22 -50q10 21 10 49q0 11 -4 46z" />
    <glyph glyph-name="asciitilde" unicode="~" horiz-adv-x="982" 
d="M226 734l-44 41q25 28 46.5 38.5t58.5 15.5q9 1 18 1q35 0 78 -21t59 -19q36 -3 58 33l39 -39q-17 -27 -49.5 -41.5t-59.5 -12.5q-33 -3 -74 17.5t-59 20.5q-32 0 -71 -34z" />
    <glyph glyph-name="Adieresis" unicode="&#xc4;" horiz-adv-x="880" 
d="M852 39q-20 -20 -58 -33t-67 -13q-106 0 -106 151q0 88 26 220q41 207 42 218q-105 -141 -238 -303h162q-5 -17 -22 -74h-194q-4 0 -80 -91q-92 -109 -168 -169q-114 -91 -209 -91q-13 0 -25 1q-11 64 -11 88q0 4 1 4q3 0 10 -1.5t11 -1.5q116 0 335 258h-255q9 18 64 77
l252 1l323 394h118q37 1 52 0q-78 -279 -88 -520l-1 -12q-2 -58 38 -58q38 0 88 40q1 -33 0 -85zM850 820q41 0 41 -37q0 -24 -21 -42t-45 -18q-41 1 -41 38q0 23 21 41t45 18zM670 820q41 0 41 -37q0 -24 -21 -42t-45 -18q-41 1 -41 38q0 23 21 41t45 18z" />
    <glyph glyph-name="Aring" unicode="&#xc5;" horiz-adv-x="880" 
d="M852 39q-20 -20 -58 -33t-67 -13q-106 0 -106 151q0 88 26 220q41 207 42 218q-105 -141 -238 -303h162q-5 -17 -22 -74h-194q-4 0 -80 -91q-92 -109 -168 -169q-114 -91 -209 -91q-13 0 -25 1q-11 64 -11 88q0 4 1 4q3 0 10 -1.5t11 -1.5q116 0 335 258h-255q9 18 64 77
l252 1l323 394h118q37 1 52 0q-78 -279 -88 -520l-1 -12q-2 -58 38 -58q38 0 88 40q1 -33 0 -85zM767 871q29 0 48 -18.5t19 -45.5q0 -37 -31 -66t-68 -29q-30 0 -49 18.5t-19 46.5q0 37 31 65.5t69 28.5zM767 831q-25 0 -42.5 -18t-17.5 -37q0 -24 28 -24q24 0 41.5 18.5
t17.5 37.5q0 23 -27 23z" />
    <glyph glyph-name="Ccedilla" unicode="&#xc7;" horiz-adv-x="727" 
d="M400 -118q0 -28 -33 -57.5t-55 -29.5q-16 0 -47.5 -9.5t-46.5 -9.5q-6 0 -6 44q37 6 71 18q57 20 57 44q0 32 -78 32q6 21 21 69q-116 9 -192 60q-91 62 -91 170q0 114 78 226q73 105 187 172q118 68 231 68q80 0 137 -38q66 -43 66 -120q0 -78 -37 -132q-34 -1 -101 -5
q34 61 34 105q0 51 -34 79q-31 25 -84 25q-103 0 -234.5 -126t-131.5 -229q0 -84 67 -127q56 -37 147 -37q69 0 165 30q5 2 159 57v-92q-46 -25 -150 -53.5t-163 -33.5l-15 -31q52 -16 53 -17q26 -14 26 -52z" />
    <glyph glyph-name="Eacute" unicode="&#xc9;" horiz-adv-x="661" 
d="M673 604l-97 -1q-103 -1 -222 -36q-156 -47 -151 -120q3 -50 55 -74q38 -18 92 -18q17 0 116 12q92 10 103 8q-7 -29 -23 -81q-73 -8 -145 -16q-123 -16 -194 -44q-96 -37 -96 -93q0 -48 64 -70q44 -15 105 -15q84 0 332 83l-13 -93q-28 -15 -163 -45q-131 -28 -166 -28
q-100 0 -174 33q-98 43 -98 130q0 114 203 179q-105 55 -105 126q0 112 167 184q135 59 266 59q21 0 77 5q50 4 98 3q-2 -12 -15 -47.5t-16 -40.5zM335 738l177 96q53 -72 53 -69l-202 -65z" />
    <glyph glyph-name="Ntilde" unicode="&#xd1;" horiz-adv-x="982" 
d="M941 29q-43 -26 -49 -29q-25 -9 -81 -9q-86 0 -86 84q0 23 6 52l86 378q0 49 -38 49q-22 0 -48 -17q-38 -25 -94 -93q-45 -56 -78 -111q-6 -10 -72 -105q-39 -55 -54 -101q-3 -9 -32 -124q-2 -8 -108 -3q7 34 20 99q14 59 28 143q11 67 22 133q17 95 17 102
q0 58 -28.5 94t-80.5 36q-8 0 -38 -7q-37 -7 -98 -43l-96 -58q-5 11 -24 40q-17 26 -17 27q84 67 190 107q51 20 99 20q92 0 144 -59q47 -54 47 -139q0 -12 -1 -25q-5 -53 -19 -139q40 75 82 133q100 141 191 175q35 12 66 12q22 0 49 -6q43 -11 64 -55q16 -37 11 -74
q-7 -54 -42 -195q-41 -161 -45.5 -183.5t-4.5 -30.5q0 -26 29 -30q26 -5 92 34zM486 734l-44 41q25 28 46.5 38.5t58.5 15.5q9 1 18 1q35 0 78 -21t59 -19q36 -3 58 33l39 -39q-17 -27 -49.5 -41.5t-59.5 -12.5q-33 -3 -74 17.5t-59 20.5q-32 0 -71 -34z" />
    <glyph glyph-name="Odieresis" unicode="&#xd6;" horiz-adv-x="778" 
d="M729 399q0 -161 -114 -281q-124 -130 -319 -130q-122 0 -204 69q-87 74 -87 196q0 137 121 252q81 76 170 111q-56 4 -176 -43q9 27 16 47q16 47 25 50q85 28 216 28q103 0 183 -37q104 -48 146 -152q23 -57 23 -110zM620 387q0 62 -28 110q-41 74 -108 101
q-51 22 -147 24q23 -52 23 -56q0 -2 -63 -45q-76 -52 -119 -104q-63 -76 -63 -155q0 -82 62 -133q58 -47 141 -47q120 0 211 91.5t91 213.5zM520 830q41 0 41 -37q0 -24 -21 -42t-45 -18q-41 1 -41 38q0 23 21 41t45 18zM340 830q41 0 41 -37q0 -24 -21 -42t-45 -18
q-41 1 -41 38q0 23 21 41t45 18z" />
    <glyph glyph-name="Udieresis" unicode="&#xdc;" horiz-adv-x="726" 
d="M692 128q-1 -28 -15 -78q-13 -23 -65 -40q-44 -16 -75 -16q-44 0 -70 24q-32 28 -28 84q11 59 36 188q-152 -298 -338 -298q-124 0 -124 118q0 42 17 88q90 248 107 356q12 75 -139 78l18 67q25 1 37 1q72 0 122 -26q69 -35 69 -112q0 -76 -59 -243t-59 -181
q0 -16 19 -30q15 -12 23 -12q15 0 41 9t37 17q84 62 173 208q21 36 131 243q9 17 48 91h99q-148 -517 -148 -556q0 -13 10.5 -22.5t24.5 -9.5q34 0 59 17t49 35zM520 830q41 0 41 -37q0 -24 -21 -42t-45 -18q-41 1 -41 38q0 23 21 41t45 18zM330 830q41 0 41 -37
q0 -24 -21 -42t-45 -18q-41 1 -41 38q0 23 21 41t45 18z" />
    <glyph glyph-name="aacute" unicode="&#xe1;" horiz-adv-x="609" 
d="M578 41q-29 -15 -57 -30q-46 -22 -82 -22q-71 0 -71 72q0 15 2 34q-105 -102 -212 -102q-66 0 -108 35q-46 38 -46 105q0 113 110 202q106 84 222 78q88 -5 111 -14q1 0 3 1l-1 5q1 3 5 3q-3 0 101 0l-81 -306q-2 -7 -2 -12q0 -15 16 -15q29 0 104 44zM428 323
q-19 11 -93 11q-65 0 -139 -56q-82 -62 -82 -134q0 -30 21.5 -49.5t51.5 -19.5q56 0 120 60q58 53 90 119q12 24 31 69zM315 508l160 131q53 -72 53 -69l-185 -100z" />
    <glyph glyph-name="agrave" unicode="&#xe0;" horiz-adv-x="609" 
d="M578 41q-29 -15 -57 -30q-46 -22 -82 -22q-71 0 -71 72q0 15 2 34q-105 -102 -212 -102q-66 0 -108 35q-46 38 -46 105q0 113 110 202q106 84 222 78q88 -5 111 -14q1 0 3 1l-1 5q1 3 5 3q-3 0 101 0l-81 -306q-2 -7 -2 -12q0 -15 16 -15q29 0 104 44zM428 323
q-19 11 -93 11q-65 0 -139 -56q-82 -62 -82 -134q0 -30 21.5 -49.5t51.5 -19.5q56 0 120 60q58 53 90 119q12 24 31 69zM493 505l-177 95q-53 -71 -53 -68l202 -65z" />
    <glyph glyph-name="acircumflex" unicode="&#xe2;" horiz-adv-x="609" 
d="M578 41q-29 -15 -57 -30q-46 -22 -82 -22q-71 0 -71 72q0 15 2 34q-105 -102 -212 -102q-66 0 -108 35q-46 38 -46 105q0 113 110 202q106 84 222 78q88 -5 111 -14q1 0 3 1l-1 5q1 3 5 3q-3 0 101 0l-81 -306q-2 -7 -2 -12q0 -15 16 -15q29 0 104 44zM428 323
q-19 11 -93 11q-65 0 -139 -56q-82 -62 -82 -134q0 -30 21.5 -49.5t51.5 -19.5q56 0 120 60q58 53 90 119q12 24 31 69zM397 505l-119 -44l-25 31l149 75h7l134 -66l-38 -38z" />
    <glyph glyph-name="adieresis" unicode="&#xe4;" horiz-adv-x="609" 
d="M578 41q-29 -15 -57 -30q-46 -22 -82 -22q-71 0 -71 72q0 15 2 34q-105 -102 -212 -102q-66 0 -108 35q-46 38 -46 105q0 113 110 202q106 84 222 78q88 -5 111 -14q1 0 3 1l-1 5q1 3 5 3q-3 0 101 0l-81 -306q-2 -7 -2 -12q0 -15 16 -15q29 0 104 44zM428 323
q-19 11 -93 11q-65 0 -139 -56q-82 -62 -82 -134q0 -30 21.5 -49.5t51.5 -19.5q56 0 120 60q58 53 90 119q12 24 31 69zM480 580q41 0 41 -37q0 -24 -21 -42t-45 -18q-41 1 -41 38q0 23 21 41t45 18zM300 580q41 0 41 -37q0 -24 -21 -42t-45 -18q-41 1 -41 38q0 23 21 41
t45 18z" />
    <glyph glyph-name="atilde" unicode="&#xe3;" horiz-adv-x="609" 
d="M578 41q-29 -15 -57 -30q-46 -22 -82 -22q-71 0 -71 72q0 15 2 34q-105 -102 -212 -102q-66 0 -108 35q-46 38 -46 105q0 113 110 202q106 84 222 78q88 -5 111 -14q1 0 3 1l-1 5q1 3 5 3q-3 0 101 0l-81 -306q-2 -7 -2 -12q0 -15 16 -15q29 0 104 44zM428 323
q-19 11 -93 11q-65 0 -139 -56q-82 -62 -82 -134q0 -30 21.5 -49.5t51.5 -19.5q56 0 120 60q58 53 90 119q12 24 31 69zM236 474l-44 41q25 28 46.5 38.5t58.5 15.5q9 1 18 1q35 0 78 -21t59 -19q36 -3 58 33l39 -39q-17 -27 -49.5 -41.5t-59.5 -12.5q-33 -3 -74 17.5
t-59 20.5q-32 0 -71 -34z" />
    <glyph glyph-name="aring" unicode="&#xe5;" horiz-adv-x="609" 
d="M578 41q-29 -15 -57 -30q-46 -22 -82 -22q-71 0 -71 72q0 15 2 34q-105 -102 -212 -102q-66 0 -108 35q-46 38 -46 105q0 113 110 202q106 84 222 78q88 -5 111 -14q1 0 3 1l-1 5q1 3 5 3q-3 0 101 0l-81 -306q-2 -7 -2 -12q0 -15 16 -15q29 0 104 44zM428 323
q-19 11 -93 11q-65 0 -139 -56q-82 -62 -82 -134q0 -30 21.5 -49.5t51.5 -19.5q56 0 120 60q58 53 90 119q12 24 31 69zM407 621q29 0 48 -18.5t19 -45.5q0 -37 -31 -66t-68 -29q-30 0 -49 18.5t-19 46.5q0 37 31 65.5t69 28.5zM407 581q-25 0 -42.5 -18t-17.5 -37
q0 -24 28 -24q24 0 41.5 18.5t17.5 37.5q0 23 -27 23z" />
    <glyph glyph-name="ccedilla" unicode="&#xe7;" horiz-adv-x="510" 
d="M482 303q0 -31 -13 -52q-98 -2 -100 0q6 18 6 36q0 58 -60 58q-68 0 -136 -57q-71 -59 -71 -126q0 -45 40 -67q31 -17 80 -17q100 1 222 51l-19 -75q-106 -57 -209 -61l-13 -40q44 -14 45 -14q22 -12 22 -45q0 -23 -28 -48.5t-47 -25.5q-13 0 -40 -8t-40 -8q-5 0 -5 37
q109 19 109 53q0 27 -67 27q3 25 18 72q-77 3 -124 40q-54 42 -54 123q0 120 114 198q97 66 207 68q163 3 163 -119z" />
    <glyph glyph-name="eacute" unicode="&#xe9;" horiz-adv-x="537" 
d="M503 312q0 -83 -140 -131q-94 -32 -212 -39l-37 -3q-5 -35 30 -55q29 -16 73 -16q128 0 257 71q-5 -30 -21 -88q-114 -62 -234 -62q-92 0 -151 41q-66 46 -66 134q0 114 121 187q104 63 225 63q62 0 102 -20q53 -27 53 -82zM387 305q0 38 -69 38q-54 0 -123 -43
q-74 -47 -77 -96l31 1q58 4 137 29q101 32 101 71zM255 508l160 131q53 -72 53 -69l-185 -100z" />
    <glyph glyph-name="egrave" unicode="&#xe8;" horiz-adv-x="537" 
d="M503 312q0 -83 -140 -131q-94 -32 -212 -39l-37 -3q-5 -35 30 -55q29 -16 73 -16q128 0 257 71q-5 -30 -21 -88q-114 -62 -234 -62q-92 0 -151 41q-66 46 -66 134q0 114 121 187q104 63 225 63q62 0 102 -20q53 -27 53 -82zM387 305q0 38 -69 38q-54 0 -123 -43
q-74 -47 -77 -96l31 1q58 4 137 29q101 32 101 71zM453 505l-177 95q-53 -71 -53 -68l202 -65z" />
    <glyph glyph-name="ecircumflex" unicode="&#xea;" horiz-adv-x="537" 
d="M503 312q0 -83 -140 -131q-94 -32 -212 -39l-37 -3q-5 -35 30 -55q29 -16 73 -16q128 0 257 71q-5 -30 -21 -88q-114 -62 -234 -62q-92 0 -151 41q-66 46 -66 134q0 114 121 187q104 63 225 63q62 0 102 -20q53 -27 53 -82zM387 305q0 38 -69 38q-54 0 -123 -43
q-74 -47 -77 -96l31 1q58 4 137 29q101 32 101 71zM347 505l-119 -44l-25 31l149 75h7l134 -66l-38 -38z" />
    <glyph glyph-name="edieresis" unicode="&#xeb;" horiz-adv-x="537" 
d="M503 312q0 -83 -140 -131q-94 -32 -212 -39l-37 -3q-5 -35 30 -55q29 -16 73 -16q128 0 257 71q-5 -30 -21 -88q-114 -62 -234 -62q-92 0 -151 41q-66 46 -66 134q0 114 121 187q104 63 225 63q62 0 102 -20q53 -27 53 -82zM387 305q0 38 -69 38q-54 0 -123 -43
q-74 -47 -77 -96l31 1q58 4 137 29q101 32 101 71zM480 580q41 0 41 -37q0 -24 -21 -42t-45 -18q-41 1 -41 38q0 23 21 41t45 18zM300 580q41 0 41 -37q0 -24 -21 -42t-45 -18q-41 1 -41 38q0 23 21 41t45 18z" />
    <glyph glyph-name="iacute" unicode="&#xed;" horiz-adv-x="269" 
d="M91 -4q-42 0 -65.5 19.5t-22.5 60.5q1 28 93 333l104 -1q-38 -134 -80 -291q-6 -37 23 -37q7 0 14 3q32 9 95 47q-1 -24 -17 -79q-26 -16 -50 -27q-57 -28 -94 -28zM75 508l160 131q53 -72 53 -69l-185 -100z" />
    <glyph glyph-name="igrave" unicode="&#xec;" horiz-adv-x="269" 
d="M91 -4q-42 0 -65.5 19.5t-22.5 60.5q1 28 93 333l104 -1q-38 -134 -80 -291q-6 -37 23 -37q7 0 14 3q32 9 95 47q-1 -24 -17 -79q-26 -16 -50 -27q-57 -28 -94 -28zM283 505l-177 95q-53 -71 -53 -68l202 -65z" />
    <glyph glyph-name="icircumflex" unicode="&#xee;" horiz-adv-x="269" 
d="M91 -4q-42 0 -65.5 19.5t-22.5 60.5q1 28 93 333l104 -1q-38 -134 -80 -291q-6 -37 23 -37q7 0 14 3q32 9 95 47q-1 -24 -17 -79q-26 -16 -50 -27q-57 -28 -94 -28zM177 505l-119 -44l-25 31l149 75h7l134 -66l-38 -38z" />
    <glyph glyph-name="idieresis" unicode="&#xef;" horiz-adv-x="269" 
d="M91 -4q-42 0 -65.5 19.5t-22.5 60.5q1 28 93 333l104 -1q-38 -134 -80 -291q-6 -37 23 -37q7 0 14 3q32 9 95 47q-1 -24 -17 -79q-26 -16 -50 -27q-57 -28 -94 -28zM270 580q41 0 41 -37q0 -24 -21 -42t-45 -18q-41 1 -41 38q0 23 21 41t45 18zM120 580q41 0 41 -37
q0 -24 -21 -42t-45 -18q-41 1 -41 38q0 23 21 41t45 18z" />
    <glyph glyph-name="ntilde" unicode="&#xf1;" horiz-adv-x="594" 
d="M544 27q-82 -37 -118 -37q-87 0 -87 74q0 38 35.5 117.5t35.5 116.5q0 33 -29 29q-115 -36 -191 -143q-48 -68 -89 -184h-99l117 406h102q-14 -43 -41 -129q126 140 257 140q34 0 60.5 -23.5t26.5 -57.5q0 -40 -33.5 -120.5t-33.5 -118.5q0 -23 20 -23q23 0 81 22
q-2 -27 -14 -69zM206 474l-44 41q25 28 46.5 38.5t58.5 15.5q9 1 18 1q35 0 78 -21t59 -19q36 -3 58 33l39 -39q-17 -27 -49.5 -41.5t-59.5 -12.5q-33 -3 -74 17.5t-59 20.5q-32 0 -71 -34z" />
    <glyph glyph-name="oacute" unicode="&#xf3;" horiz-adv-x="537" 
d="M504 251q0 -116 -101 -193q-92 -71 -212 -71q-72 0 -131 41q-66 47 -66 116q0 119 97 201q93 78 213 78q88 0 141 -41q59 -46 59 -131zM392 258q0 41 -26.5 66.5t-68.5 25.5q-74 0 -131 -56.5t-57 -130.5q0 -47 26.5 -75t72.5 -28q75 0 130 63q54 60 54 135zM265 508
l160 131q53 -72 53 -69l-185 -100z" />
    <glyph glyph-name="ograve" unicode="&#xf2;" horiz-adv-x="537" 
d="M504 251q0 -116 -101 -193q-92 -71 -212 -71q-72 0 -131 41q-66 47 -66 116q0 119 97 201q93 78 213 78q88 0 141 -41q59 -46 59 -131zM392 258q0 41 -26.5 66.5t-68.5 25.5q-74 0 -131 -56.5t-57 -130.5q0 -47 26.5 -75t72.5 -28q75 0 130 63q54 60 54 135zM453 505
l-177 95q-53 -71 -53 -68l202 -65z" />
    <glyph glyph-name="ocircumflex" unicode="&#xf4;" horiz-adv-x="537" 
d="M504 251q0 -116 -101 -193q-92 -71 -212 -71q-72 0 -131 41q-66 47 -66 116q0 119 97 201q93 78 213 78q88 0 141 -41q59 -46 59 -131zM392 258q0 41 -26.5 66.5t-68.5 25.5q-74 0 -131 -56.5t-57 -130.5q0 -47 26.5 -75t72.5 -28q75 0 130 63q54 60 54 135zM327 505
l-119 -44l-25 31l149 75h7l134 -66l-38 -38z" />
    <glyph glyph-name="odieresis" unicode="&#xf6;" horiz-adv-x="537" 
d="M504 251q0 -116 -101 -193q-92 -71 -212 -71q-72 0 -131 41q-66 47 -66 116q0 119 97 201q93 78 213 78q88 0 141 -41q59 -46 59 -131zM392 258q0 41 -26.5 66.5t-68.5 25.5q-74 0 -131 -56.5t-57 -130.5q0 -47 26.5 -75t72.5 -28q75 0 130 63q54 60 54 135zM460 580
q41 0 41 -37q0 -24 -21 -42t-45 -18q-41 1 -41 38q0 23 21 41t45 18zM280 580q41 0 41 -37q0 -24 -21 -42t-45 -18q-41 1 -41 38q0 23 21 41t45 18z" />
    <glyph glyph-name="otilde" unicode="&#xf5;" horiz-adv-x="537" 
d="M504 251q0 -116 -101 -193q-92 -71 -212 -71q-72 0 -131 41q-66 47 -66 116q0 119 97 201q93 78 213 78q88 0 141 -41q59 -46 59 -131zM392 258q0 41 -26.5 66.5t-68.5 25.5q-74 0 -131 -56.5t-57 -130.5q0 -47 26.5 -75t72.5 -28q75 0 130 63q54 60 54 135zM196 474
l-44 41q25 28 46.5 38.5t58.5 15.5q9 1 18 1q35 0 78 -21t59 -19q36 -3 58 33l39 -39q-17 -27 -49.5 -41.5t-59.5 -12.5q-33 -3 -74 17.5t-59 20.5q-32 0 -71 -34z" />
    <glyph glyph-name="uacute" unicode="&#xfa;" horiz-adv-x="581" 
d="M409 -8q-29 0 -55 20t-26 48q0 17 15 79l13 50q-47 -73 -113 -130q-82 -70 -149 -70q-42 0 -68 29t-26 68q0 11 3 22q32 114 84 300q70 0 112 -1q-25 -77 -49 -154q-38 -119 -38 -139q0 -32 28 -32q55 0 154 136q67 92 119 190h101q-5 -20 -43 -151q-29 -102 -37 -155
q-2 -10 7.5 -18.5t17.5 -7.5q39 5 102 42q-5 -28 -17 -80q-4 -17 -61 -33q-49 -13 -74 -13zM235 508l160 131q53 -72 53 -69l-185 -100z" />
    <glyph glyph-name="ugrave" unicode="&#xf9;" horiz-adv-x="581" 
d="M409 -8q-29 0 -55 20t-26 48q0 17 15 79l13 50q-47 -73 -113 -130q-82 -70 -149 -70q-42 0 -68 29t-26 68q0 11 3 22q32 114 84 300q70 0 112 -1q-25 -77 -49 -154q-38 -119 -38 -139q0 -32 28 -32q55 0 154 136q67 92 119 190h101q-5 -20 -43 -151q-29 -102 -37 -155
q-2 -10 7.5 -18.5t17.5 -7.5q39 5 102 42q-5 -28 -17 -80q-4 -17 -61 -33q-49 -13 -74 -13zM433 505l-177 95q-53 -71 -53 -68l202 -65z" />
    <glyph glyph-name="ucircumflex" unicode="&#xfb;" horiz-adv-x="581" 
d="M409 -8q-29 0 -55 20t-26 48q0 17 15 79l13 50q-47 -73 -113 -130q-82 -70 -149 -70q-42 0 -68 29t-26 68q0 11 3 22q32 114 84 300q70 0 112 -1q-25 -77 -49 -154q-38 -119 -38 -139q0 -32 28 -32q55 0 154 136q67 92 119 190h101q-5 -20 -43 -151q-29 -102 -37 -155
q-2 -10 7.5 -18.5t17.5 -7.5q39 5 102 42q-5 -28 -17 -80q-4 -17 -61 -33q-49 -13 -74 -13zM327 505l-119 -44l-25 31l149 75h7l134 -66l-38 -38z" />
    <glyph glyph-name="udieresis" unicode="&#xfc;" horiz-adv-x="581" 
d="M409 -8q-29 0 -55 20t-26 48q0 17 15 79l13 50q-47 -73 -113 -130q-82 -70 -149 -70q-42 0 -68 29t-26 68q0 11 3 22q32 114 84 300q70 0 112 -1q-25 -77 -49 -154q-38 -119 -38 -139q0 -32 28 -32q55 0 154 136q67 92 119 190h101q-5 -20 -43 -151q-29 -102 -37 -155
q-2 -10 7.5 -18.5t17.5 -7.5q39 5 102 42q-5 -28 -17 -80q-4 -17 -61 -33q-49 -13 -74 -13zM420 580q41 0 41 -37q0 -24 -21 -42t-45 -18q-41 1 -41 38q0 23 21 41t45 18zM240 580q41 0 41 -37q0 -24 -21 -42t-45 -18q-41 1 -41 38q0 23 21 41t45 18z" />
    <glyph glyph-name="dagger" unicode="&#x2020;" horiz-adv-x="468" 
d="M109 570h117l24 105l113 -2l-30 -103h116l-24 -84h-117q-82 -276 -124 -390q-19 -49 -37 -98l-53 3l113 485h-122z" />
    <glyph glyph-name="degree" unicode="&#xb0;" horiz-adv-x="450" 
d="M279 698q57 0 96.5 -39.5t39.5 -96.5q0 -56 -39.5 -96t-96.5 -40q-56 0 -96 40t-40 96q0 57 40 96.5t96 39.5zM279 648q-35 0 -60.5 -25t-25.5 -61q0 -35 25.5 -60.5t60.5 -25.5q36 0 61 25.5t25 60.5q0 36 -25 61t-61 25z" />
    <glyph glyph-name="cent" unicode="&#xa2;" horiz-adv-x="510" 
d="M339 637h78l-20 -67q134 -8 134 -119q0 -31 -13 -52q-98 -2 -101 0q6 19 6 36q0 58 -59 58q-68 0 -138 -58t-70 -124q0 -46 40 -67q32 -18 80 -17q101 0 222 51l-18 -75q-97 -53 -193 -61l-23 -83h-78l23 83q-162 15 -162 162q0 106 90 180q76 63 181 81z" />
    <glyph glyph-name="sterling" unicode="&#xa3;" horiz-adv-x="847" 
d="M162 362h136q18 96 75 175q64 89 153 118q76 26 133 26q128 0 176 -70q15 -22 15 -53q0 -71 -55 -110l-94 2q18 14 31 27q33 30 40 51q2 9 2 16q0 32 -43 50q-31 12 -72 15q-52 3 -144 -46q-74 -40 -120 -201h226l-28 -70h-214q-14 -79 -37 -112l-44 -56q12 -4 27 -11
l82 -28q51 -17 94 -21q30 -3 54 -3q52 0 114 20q35 12 117 54l-6 -71q-49 -30 -136 -73q-27 -10 -69 -10q8 0 -71 2q-97 15 -127 22q-64 15 -108 40q-16 -14 -50 -36q-39 -17 -88 -17q-35 0 -62 12q-30 14 -30 38q0 11 7 23q34 46 77 56q14 3 81 3q43 0 80 168h-151z" />
    <glyph glyph-name="section" unicode="&#xa7;" 
 />
    <glyph glyph-name="bullet" unicode="&#x2022;" horiz-adv-x="472" 
d="M103 301q0 60 42 102t101 42q60 0 102 -42t42 -102q0 -59 -42 -101t-102 -42q-59 0 -101 42t-42 101z" />
    <glyph glyph-name="paragraph" unicode="&#xb6;" 
 />
    <glyph glyph-name="germandbls" unicode="&#xdf;" horiz-adv-x="584" 
d="M193 467q-1 -24 -166 -578l-101 -1l172 618q29 104 119 146q68 32 186 32q83 0 145 -35q73 -41 73 -115q0 -58 -58 -110q-49 -44 -121 -70q21 -11 55 -29q67 -39 67 -107q0 -92 -111 -168q-103 -69 -202 -69q-23 0 -37.5 -1.5l-14.5 -1.5q-4 0 -42 13l28 88
q23 -12 55 -12q68 0 131 42q67 44 67 98q0 94 -181 94q-21 0 -41 -2l21 73q91 9 157 33q104 39 104 106q0 43 -38 67q-32 20 -73 20q-76 0 -120 -26q-51 -31 -74 -105z" />
    <glyph glyph-name="registered" unicode="&#xae;" horiz-adv-x="560" 
d="M339 512q0 -43 -48 -55q22 -13 29.5 -26t10.5 -41q-1 -23 1 -56h-44q1 14 -3 61q-7 45 -52 43l-29 -1v-103h-43v246q8 1 75 1h47q17 -3 36.5 -19.5t19.5 -49.5zM294 509q0 25 -10 33t-46 6q-11 1 -34 1v-78h30q60 0 60 38zM248 244q-89 0 -152 63t-63 153q0 89 63 152
t152 63h1q89 0 151 -63t62 -152q0 -90 -62 -153t-152 -63zM248 650h-1q-75 0 -127.5 -56t-52.5 -135t52.5 -134.5t128.5 -55.5t129 55t53 135q0 79 -53 135t-129 56z" />
    <glyph glyph-name="copyright" unicode="&#xa9;" horiz-adv-x="795" 
d="M362 -6q-140 0 -236.5 99t-96.5 240t93 239t232 98h1q139 0 238 -99t99 -238q0 -142 -95.5 -240.5t-234.5 -98.5zM354 639h-1q-121 0 -203 -89.5t-82 -217.5t85.5 -217.5t208.5 -89.5t208.5 89.5t85.5 217.5q0 127 -89.5 217t-212.5 90zM367 135q-93 0 -146 55t-53 140
q0 90 63 148q60 54 146 54q76 0 113 -24l-11 -40q-46 21 -102 21q-72 0 -113 -41.5t-41 -113.5q0 -68 43 -112t111 -44q63 0 107 22l11 -35q-52 -30 -128 -30z" />
    <glyph glyph-name="trademark" unicode="&#x2122;" horiz-adv-x="618" 
d="M518 419h-40l-15 219l-45 -213l-52 -1l-62 214l-9 -219h-46l18 255h68l53 -191l44 191h69zM135 635v-214h-49v214h-74v37h199v-37h-76z" />
    <glyph glyph-name="acute" unicode="&#xb4;" horiz-adv-x="463" 
d="M185 738l177 96q53 -72 53 -69l-202 -65z" />
    <glyph glyph-name="dieresis" unicode="&#xa8;" horiz-adv-x="431" 
d="M320 800q41 0 41 -37q0 -24 -21 -42t-45 -18q-41 1 -41 38q0 23 21 41t45 18zM140 800q41 0 41 -37q0 -24 -21 -42t-45 -18q-41 1 -41 38q0 23 21 41t45 18z" />
    <glyph glyph-name="AE" unicode="&#xc6;" horiz-adv-x="1212" 
d="M669 525q9 19 20 57q-105 -141 -238 -303l149 4q-3 -13 -33.5 -39t-34.5 -38l-135 -1q1 0 1 -2q0 -18 -70 -102q-83 -98 -172 -162q-118 -85 -216 -85q-13 0 -25 1q-11 64 -11 88q0 4 1 4q3 0 10 -1.5t11 -1.5q116 0 335 258h-255q9 18 64 77l252 1l323 394h118
q37 1 52 0q-15 -28 -28 -64q68 35 157 56q79 18 140 18q21 0 77 4q50 4 98 3q-3 -12 -15.5 -47.5t-15.5 -39.5l-98 -1q-103 -1 -221 -37q-156 -47 -151 -119q3 -50 55 -74q38 -18 92 -18q17 0 116 11q92 11 103 9q-7 -29 -24 -81q-72 -8 -145 -16q-122 -17 -193 -44
q-96 -37 -96 -93q0 -49 64 -70q44 -15 105 -15q84 0 331 82l-12 -92q-28 -16 -163 -45q-131 -28 -166 -28q-121 0 -178 22q-94 36 -94 141q0 115 184 179q0 2 -1 11q-85 50 -85 115q0 59 18 84z" />
    <glyph glyph-name="Oslash" unicode="&#xd8;" horiz-adv-x="789" 
d="M155 150l368 427q-59 42 -186 45q23 -52 23 -56q0 -2 -63 -45q-76 -52 -119 -104q-63 -76 -63 -155q0 -66 40 -112zM563 539l-364 -426q53 -31 119 -31q120 0 211 91.5t91 213.5q0 62 -28 110q-13 24 -29 42zM673 667q-7 -8 -43 -50q50 -43 76 -108q23 -57 23 -110
q0 -161 -114 -281q-124 -130 -319 -130q-94 0 -167 43l-66 -77l-43 38l63 73q-78 73 -78 188q0 137 121 252q81 76 170 111q-56 4 -176 -43q9 27 16 47q16 47 25 50q85 28 216 28q121 0 208 -49l51 59q40 -38 37 -41z" />
    <glyph glyph-name="plusminus" unicode="&#xb1;" 
 />
    <glyph glyph-name="yen" unicode="&#xa5;" horiz-adv-x="722" 
d="M106 292h155q-54 169 -128 381l110 -1l96 -296q51 43 150.5 156t131.5 168l87 -28q-158 -212 -326 -380h146l-19 -53h-148l-13 -53h152l-19 -53h-146l-32 -129h-113l34 129h-165l19 53h160l15 53h-166z" />
    <glyph glyph-name="mu" unicode="&#xb5;" horiz-adv-x="887" 
d="M98 276l159 42q15 59 21 80q32 112 76 172q57 79 155 111q85 29 148 29q145 0 205 -86q36 -52 36 -101q0 -111 -97 -190q-20 15 -39 30q-40 33 -36 36q76 61 76 124q0 45 -55 75q-46 25 -90 25q-55 0 -100 -18q-28 -12 -72 -43q-65 -46 -116 -215l194 51l-15 -81
l-203 -52q-8 -35 -17 -70t-26 -64q4 -1 13 -5q33 -10 104 -42q66 -30 105 -40q24 -7 71 -7q25 0 47.5 8.5t44.5 16.5q41 14 144 71l-8 -81q-24 -19 -66 -49q-15 -9 -42 -25q-57 -30 -115 -32q-14 -1 -70 1q-130 20 -279 104q-35 -30 -54 -38q-40 -18 -103 -18q-41 0 -71 14
q-33 17 -33 44q0 14 9 29q51 68 167 68h28.5h23.5q4 19 19 87l-161 -42z" />
    <glyph glyph-name="mu" unicode="&#x3bc;" horiz-adv-x="887" 
d="M98 276l159 42q15 59 21 80q32 112 76 172q57 79 155 111q85 29 148 29q145 0 205 -86q36 -52 36 -101q0 -111 -97 -190q-20 15 -39 30q-40 33 -36 36q76 61 76 124q0 45 -55 75q-46 25 -90 25q-55 0 -100 -18q-28 -12 -72 -43q-65 -46 -116 -215l194 51l-15 -81
l-203 -52q-8 -35 -17 -70t-26 -64q4 -1 13 -5q33 -10 104 -42q66 -30 105 -40q24 -7 71 -7q25 0 47.5 8.5t44.5 16.5q41 14 144 71l-8 -81q-24 -19 -66 -49q-15 -9 -42 -25q-57 -30 -115 -32q-14 -1 -70 1q-130 20 -279 104q-35 -30 -54 -38q-40 -18 -103 -18q-41 0 -71 14
q-33 17 -33 44q0 14 9 29q51 68 167 68h28.5h23.5q4 19 19 87l-161 -42z" />
    <glyph glyph-name="ordfeminine" unicode="&#xaa;" horiz-adv-x="794" 
d="M767 307h-125q-135 -102 -175 -126q-98 -60 -218 -87q39 -21 233 -21q118 0 252 74l-18 -88q-146 -74 -291 -74q-124 0 -435 35l21 76q300 59 478 208h-262l31 65q309 0 298 0q78 32 78 148q0 97 -182 97q-169 0 -333 -42l27 83q135 49 332 49q111 0 184 -35
q97 -46 97 -146q0 -52 -85 -152h118zM450 793l130 54l33 -37l-166 -74h-7l-136 61l39 38z" />
    <glyph glyph-name="ordmasculine" unicode="&#xba;" horiz-adv-x="559" 
d="M536 363q0 -51 -78 -111q-58 -43 -165 -95q-71 -34 -143 -67q15 -15 49 -15q11 0 28.5 2t21.5 2q99 0 237 46q-1 -6 -16 -47q-7 -20 -14 -39q-31 -19 -121 -37q-82 -16 -127 -16q-119 0 -205 48q0 10 10.5 45t14.5 39q13 12 194 101q157 79 157 112q0 17 -47 17
q-86 0 -229 -17q11 31 21 64q170 29 209 29q83 0 119 -5q84 -13 84 -56zM360 533l130 54l33 -37l-168 -79h-6l-135 66l39 38z" />
    <glyph glyph-name="ae" unicode="&#xe6;" horiz-adv-x="926" 
d="M883 312q0 -83 -140 -131q-94 -32 -212 -39l-37 -3q-5 -35 30 -55q29 -16 73 -16q128 0 257 71q-5 -30 -21 -88q-114 -62 -234 -62q-78 0 -118 16q-55 23 -84 85q-46 -51 -121 -77q-60 -20 -118 -20q-66 0 -108 35q-46 38 -46 105q0 113 110 202q106 84 222 78
q65 -3 109 -22q3 -2 3.5 7.5t5.5 9.5q-3 0 101 0l-9 -34q90 40 182 40q62 0 102 -20q53 -27 53 -82zM767 305q0 38 -69 38q-43 0 -101 -31q-61 -32 -86 -72l-10 -36l28 1q58 4 137 29q101 32 101 71zM438 316q-30 18 -103 18q-65 0 -139 -56q-82 -62 -82 -134
q0 -30 21.5 -49.5t51.5 -19.5q58 0 127 52q66 50 96 112q8 15 28 77z" />
    <glyph glyph-name="oslash" unicode="&#xf8;" horiz-adv-x="559" 
d="M478 436q-22 -24 -43 -47q69 -46 69 -138q0 -116 -101 -193q-92 -71 -212 -71q-43 0 -85 17l-43 -50l-43 38l34 40q-60 46 -60 112q0 119 97 201q93 78 213 78q43 0 78 -10l46 57zM325 347q-13 3 -28 3q-74 0 -137 -59.5t-63 -132.5q0 -22 6 -31.5t14 -18.5zM401 260
q0 30 -24 60l-216 -251q18 -9 47 -9q75 0 134 63t59 137z" />
    <glyph glyph-name="questiondown" unicode="&#xbf;" horiz-adv-x="612" 
d="M368 370q-47 0 -47 43q0 27 24 48t52 20q47 0 47 -43q0 -27 -24 -47.5t-52 -20.5zM144 -6q0 -50 41 -76q34 -22 78 -22q124 0 244 119l50 -54q-34 -46 -116 -97q-109 -68 -207 -68q-84 0 -145 48q-68 53 -68 137q0 77 45 134q36 45 120 97q32 15 64.5 31.5t58.5 73.5
q2 4 13 4q4 0 21.5 -1.5t28.5 -1.5q13 0 24 2q-12 -79 -81 -135q-171 -110 -171 -191z" />
    <glyph glyph-name="exclamdown" unicode="&#xa1;" horiz-adv-x="334" 
d="M128 -199l-122 -4l160 516h73zM207 363q-46 1 -46 43q0 27 23.5 48t51.5 21q47 -1 47 -43q0 -28 -24 -48.5t-52 -20.5z" />
    <glyph glyph-name="logicalnot" unicode="&#xac;" 
 />
    <glyph glyph-name="florin" unicode="&#x192;" 
 />
    <glyph glyph-name="guillemotleft" unicode="&#xab;" horiz-adv-x="334" 
d="M142 238v91l125 147v-103l-79 -89l79 -91v-104zM2 238v91l125 147v-103l-79 -89l79 -91v-104z" />
    <glyph glyph-name="guillemotright" unicode="&#xbb;" horiz-adv-x="334" 
d="M127 328v-91l-125 -148v104l79 88l-79 92v103zM267 328v-91l-125 -148v104l79 88l-79 92v103z" />
    <glyph glyph-name="ellipsis" unicode="&#x2026;" horiz-adv-x="619" 
d="M302 107q47 0 47 -43q0 -27 -24 -47.5t-52 -20.5q-47 0 -47 43q0 27 24 48t52 20zM522 107q47 0 47 -43q0 -27 -24 -47.5t-52 -20.5q-47 0 -47 43q0 27 24 48t52 20zM82 107q47 0 47 -43q0 -27 -24 -47.5t-52 -20.5q-47 0 -47 43q0 27 24 48t52 20z" />
    <glyph glyph-name="nonbreakingspace" unicode="&#xa0;" horiz-adv-x="1002" 
 />
    <glyph glyph-name="Agrave" unicode="&#xc0;" horiz-adv-x="880" 
d="M852 39q-20 -20 -58 -33t-67 -13q-106 0 -106 151q0 88 26 220q41 207 42 218q-105 -141 -238 -303h162q-5 -17 -22 -74h-194q-4 0 -80 -91q-92 -109 -168 -169q-114 -91 -209 -91q-13 0 -25 1q-11 64 -11 88q0 4 1 4q3 0 10 -1.5t11 -1.5q116 0 335 258h-255q9 18 64 77
l252 1l323 394h118q37 1 52 0q-78 -279 -88 -520l-1 -12q-2 -58 38 -58q38 0 88 40q1 -33 0 -85zM836 738l-177 96q-53 -72 -53 -69l202 -65z" />
    <glyph glyph-name="Atilde" unicode="&#xc3;" horiz-adv-x="880" 
d="M852 39q-20 -20 -58 -33t-67 -13q-106 0 -106 151q0 88 26 220q41 207 42 218q-105 -141 -238 -303h162q-5 -17 -22 -74h-194q-4 0 -80 -91q-92 -109 -168 -169q-114 -91 -209 -91q-13 0 -25 1q-11 64 -11 88q0 4 1 4q3 0 10 -1.5t11 -1.5q116 0 335 258h-255q9 18 64 77
l252 1l323 394h118q37 1 52 0q-78 -279 -88 -520l-1 -12q-2 -58 38 -58q38 0 88 40q1 -33 0 -85zM586 734l-44 41q25 28 46.5 38.5t58.5 15.5q9 1 18 1q35 0 78 -21t59 -19q36 -3 58 33l39 -39q-17 -27 -49.5 -41.5t-59.5 -12.5q-33 -3 -74 17.5t-59 20.5q-32 0 -71 -34z
" />
    <glyph glyph-name="Otilde" unicode="&#xd5;" horiz-adv-x="778" 
d="M729 399q0 -161 -114 -281q-124 -130 -319 -130q-122 0 -204 69q-87 74 -87 196q0 137 121 252q81 76 170 111q-56 4 -176 -43q9 27 16 47q16 47 25 50q85 28 216 28q103 0 183 -37q104 -48 146 -152q23 -57 23 -110zM620 387q0 62 -28 110q-41 74 -108 101
q-51 22 -147 24q23 -52 23 -56q0 -2 -63 -45q-76 -52 -119 -104q-63 -76 -63 -155q0 -82 62 -133q58 -47 141 -47q120 0 211 91.5t91 213.5zM300 737l-44 40q25 29 46.5 39.5t58.5 15.5q9 1 18 1q35 0 78 -21t59 -19q36 -3 58 33l39 -39q-17 -27 -49.5 -41.5t-59.5 -12.5
q-33 -3 -74 17.5t-59 20.5q-32 0 -71 -34z" />
    <glyph glyph-name="OE" unicode="&#x152;" horiz-adv-x="1070" 
d="M475 37q-100 -49 -179 -49q-122 0 -204 69q-87 74 -87 196q0 137 121 252q81 76 170 111q-56 4 -176 -43q9 27 16 47q16 47 25 50q85 28 216 28q174 0 269 -96q69 39 164 62q84 20 149 20q21 0 77 5q50 4 98 3q-2 -12 -15 -47.5t-16 -40.5l-97 -1q-103 -1 -222 -36
q-156 -47 -151 -120q3 -50 55 -74q38 -18 92 -18q17 0 116 12q92 10 103 8q-7 -29 -23 -81q-73 -8 -145 -16q-123 -16 -194 -44q-96 -37 -96 -93q0 -48 64 -70q44 -15 105 -15q84 0 332 83l-13 -93q-28 -15 -163 -45q-131 -28 -166 -28q-150 0 -225 64zM564 538
q-39 48 -99 67q-46 15 -128 17q23 -52 23 -56q0 -2 -63 -45q-76 -52 -119 -104q-63 -76 -63 -155q0 -82 62 -133q58 -47 141 -47q58 0 113 24q-3 15 -3 30q0 108 181 172q2 9 4 17q-87 51 -87 116q0 52 38 97z" />
    <glyph glyph-name="oe" unicode="&#x153;" horiz-adv-x="921" 
d="M412 65q-94 -78 -221 -78q-72 0 -131 41q-66 47 -66 116q0 119 97 201q93 78 213 78q131 0 179 -85q108 76 245 76q62 0 102 -20q53 -27 53 -82q0 -83 -140 -131q-94 -32 -212 -39l-37 -3q-5 -35 30 -55q29 -16 73 -16q128 0 257 71q-5 -30 -21 -88q-114 -62 -234 -62
q-131 0 -187 76zM502 223q-1 -10 -3 -19l30 1q58 4 137 29q101 32 101 71q0 38 -69 38q-48 0 -111 -36q-68 -39 -85 -84zM392 258q0 41 -26.5 66.5t-68.5 25.5q-74 0 -131 -56.5t-57 -130.5q0 -47 26.5 -75t72.5 -28q75 0 130 63q54 60 54 135z" />
    <glyph glyph-name="endash" unicode="&#x2013;" horiz-adv-x="503" 
d="M36 273h405l-25 -75h-405z" />
    <glyph glyph-name="emdash" unicode="&#x2014;" horiz-adv-x="884" 
d="M824 273l-25 -75h-788l25 75h788z" />
    <glyph glyph-name="quotedblleft" unicode="&#x201c;" horiz-adv-x="375" 
d="M177 456h-100l125 218h66zM317 456h-100l125 218h66z" />
    <glyph glyph-name="quotedblright" unicode="&#x201d;" horiz-adv-x="362" 
d="M308 674h100l-125 -218h-66zM168 674h100l-125 -218h-66z" />
    <glyph glyph-name="quoteleft" unicode="&#x2018;" horiz-adv-x="231" 
d="M187 456h-100l125 218h66z" />
    <glyph glyph-name="quoteright" unicode="&#x2019;" horiz-adv-x="231" 
d="M178 674h100l-125 -218h-66z" />
    <glyph glyph-name="divide" unicode="&#xf7;" 
 />
    <glyph glyph-name="ydieresis" unicode="&#xff;" horiz-adv-x="513" 
d="M156 -199h-100l29 77l30 -1q151 -1 222 262q-63 -75 -96 -101q-59 -46 -129 -46q-51 0 -84.5 35.5t-33.5 85.5q0 54 78 295h106q-1 -4 -48 -152q-33 -104 -33 -137q0 -32 36 -32q71 0 173 128q84 105 119 193h97q-33 -126 -67 -251q-47 -162 -105 -245
q-79 -111 -194 -111zM417 579q41 -1 41 -38q0 -24 -21 -42t-45 -17q-40 0 -40 37q0 24 20.5 42t44.5 18zM237 579q41 -1 41 -38q0 -24 -21 -42t-45 -17q-40 0 -40 37q0 24 20.5 42t44.5 18z" />
    <glyph glyph-name="Ydieresis" unicode="&#x178;" horiz-adv-x="748" 
d="M598 156l122 28l-18 -79l-127 -32q-81 -153 -174 -231q-116 -97 -268 -97q-74 0 -124 27q-63 34 -63 102q0 107 217 185q143 52 312 74q34 99 38 112q20 66 27 115q-37 -44 -75 -87q-46 -52 -86 -77q-53 -34 -108 -34q-78 0 -121 111q-31 82 -43 229q-6 96 -11 193l109 2
l6 -126q8 -125 26 -200q24 -104 65 -104q72 0 190 165q91 128 140 239h99q-22 -104 -64 -258q-34 -128 -69 -257zM459 55q-162 -34 -231 -56q-169 -55 -169 -122q0 -28 30 -42q23 -12 53 -12q189 0 317 232zM540 800q41 0 41 -37q0 -24 -21 -42t-45 -18q-41 1 -41 38
q0 23 21 41t45 18zM350 800q41 0 41 -37q0 -24 -21 -42t-45 -18q-41 1 -41 38q0 23 21 41t45 18z" />
    <glyph glyph-name="currency" unicode="&#xa4;" 
 />
    <glyph glyph-name="guilsinglleft" unicode="&#x2039;" horiz-adv-x="195" 
d="M2 238v91l125 147v-103l-79 -89l79 -91v-104z" />
    <glyph glyph-name="guilsinglright" unicode="&#x203a;" horiz-adv-x="195" 
d="M127 328v-91l-125 -148v104l79 88l-79 92v103z" />
    <glyph glyph-name="daggerdbl" unicode="&#x2021;" 
 />
    <glyph glyph-name="periodcentered" unicode="&#xb7;" horiz-adv-x="350" 
d="M64 270q0 27 19 46.5t47 19.5q27 0 46 -19.5t19 -46.5t-19 -46.5t-46 -19.5q-28 0 -47 19.5t-19 46.5z" />
    <glyph glyph-name="periodcentered" unicode="&#x2219;" horiz-adv-x="350" 
d="M64 270q0 27 19 46.5t47 19.5q27 0 46 -19.5t19 -46.5t-19 -46.5t-46 -19.5q-28 0 -47 19.5t-19 46.5z" />
    <glyph glyph-name="quotesinglbase" unicode="&#x201a;" horiz-adv-x="243" 
d="M68 254h100l-125 -218h-66z" />
    <glyph glyph-name="quotedblbase" unicode="&#x201e;" horiz-adv-x="359" 
d="M188 254h100l-125 -218h-66zM48 254h100l-125 -218h-66z" />
    <glyph glyph-name="perthousand" unicode="&#x2030;" 
 />
    <glyph glyph-name="Acircumflex" unicode="&#xc2;" horiz-adv-x="880" 
d="M852 39q-20 -20 -58 -33t-67 -13q-106 0 -106 151q0 88 26 220q41 207 42 218q-105 -141 -238 -303h162q-5 -17 -22 -74h-194q-4 0 -80 -91q-92 -109 -168 -169q-114 -91 -209 -91q-13 0 -25 1q-11 64 -11 88q0 4 1 4q3 0 10 -1.5t11 -1.5q116 0 335 258h-255q9 18 64 77
l252 1l323 394h118q37 1 52 0q-78 -279 -88 -520l-1 -12q-2 -58 38 -58q38 0 88 40q1 -33 0 -85zM727 765l-129 -54l-34 37l168 79h7l134 -66l-38 -38z" />
    <glyph glyph-name="Ecircumflex" unicode="&#xca;" horiz-adv-x="661" 
d="M673 604l-97 -1q-103 -1 -222 -36q-156 -47 -151 -120q3 -50 55 -74q38 -18 92 -18q17 0 116 12q92 10 103 8q-7 -29 -23 -81q-73 -8 -145 -16q-123 -16 -194 -44q-96 -37 -96 -93q0 -48 64 -70q44 -15 105 -15q84 0 332 83l-13 -93q-28 -15 -163 -45q-131 -28 -166 -28
q-100 0 -174 33q-98 43 -98 130q0 114 203 179q-105 55 -105 126q0 112 167 184q135 59 266 59q21 0 77 5q50 4 98 3q-2 -12 -15 -47.5t-16 -40.5zM487 765l-129 -54l-34 37l168 79h7l134 -66l-38 -38z" />
    <glyph glyph-name="Aacute" unicode="&#xc1;" horiz-adv-x="880" 
d="M852 39q-20 -20 -58 -33t-67 -13q-106 0 -106 151q0 88 26 220q41 207 42 218q-105 -141 -238 -303h162q-5 -17 -22 -74h-194q-4 0 -80 -91q-92 -109 -168 -169q-114 -91 -209 -91q-13 0 -25 1q-11 64 -11 88q0 4 1 4q3 0 10 -1.5t11 -1.5q116 0 335 258h-255q9 18 64 77
l252 1l323 394h118q37 1 52 0q-78 -279 -88 -520l-1 -12q-2 -58 38 -58q38 0 88 40q1 -33 0 -85zM595 738l177 96q53 -72 53 -69l-202 -65z" />
    <glyph glyph-name="Edieresis" unicode="&#xcb;" horiz-adv-x="661" 
d="M673 604l-97 -1q-103 -1 -222 -36q-156 -47 -151 -120q3 -50 55 -74q38 -18 92 -18q17 0 116 12q92 10 103 8q-7 -29 -23 -81q-73 -8 -145 -16q-123 -16 -194 -44q-96 -37 -96 -93q0 -48 64 -70q44 -15 105 -15q84 0 332 83l-13 -93q-28 -15 -163 -45q-131 -28 -166 -28
q-100 0 -174 33q-98 43 -98 130q0 114 203 179q-105 55 -105 126q0 112 167 184q135 59 266 59q21 0 77 5q50 4 98 3q-2 -12 -15 -47.5t-16 -40.5zM590 830q41 0 41 -37q0 -24 -21 -42t-45 -18q-41 1 -41 38q0 23 21 41t45 18zM410 830q41 0 41 -37q0 -24 -21 -42t-45 -18
q-41 1 -41 38q0 23 21 41t45 18z" />
    <glyph glyph-name="Egrave" unicode="&#xc8;" horiz-adv-x="661" 
d="M673 604l-97 -1q-103 -1 -222 -36q-156 -47 -151 -120q3 -50 55 -74q38 -18 92 -18q17 0 116 12q92 10 103 8q-7 -29 -23 -81q-73 -8 -145 -16q-123 -16 -194 -44q-96 -37 -96 -93q0 -48 64 -70q44 -15 105 -15q84 0 332 83l-13 -93q-28 -15 -163 -45q-131 -28 -166 -28
q-100 0 -174 33q-98 43 -98 130q0 114 203 179q-105 55 -105 126q0 112 167 184q135 59 266 59q21 0 77 5q50 4 98 3q-2 -12 -15 -47.5t-16 -40.5zM556 748l-177 96q-53 -72 -53 -69l202 -65z" />
    <glyph glyph-name="Iacute" unicode="&#xcd;" horiz-adv-x="629" 
d="M594 398q-20 -84 -64 -236q-41 -119 -128 -180q-76 -53 -168 -53q-60 0 -82 21q0 12 -6 75q28 -17 91 -19q49 -1 96 33q40 29 62 67q30 51 71 215q20 81 71 276l-155 -28q-113 -28 -162 -48q-130 -55 -130 -133q0 -96 155 -96q28 0 52 4q9 -35 9 -72q-15 -7 -73 -9
q-55 -1 -83 3q-75 13 -121 53.5t-46 99.5q0 82 69 148q64 61 169 91q232 68 445 76q-9 -28 -72 -288zM335 738l177 96q53 -72 53 -69l-202 -65z" />
    <glyph glyph-name="Icircumflex" unicode="&#xce;" horiz-adv-x="629" 
d="M594 398q-20 -84 -64 -236q-41 -119 -128 -180q-76 -53 -168 -53q-60 0 -82 21q0 12 -6 75q28 -17 91 -19q49 -1 96 33q40 29 62 67q30 51 71 215q20 81 71 276l-155 -28q-113 -28 -162 -48q-130 -55 -130 -133q0 -96 155 -96q28 0 52 4q9 -35 9 -72q-15 -7 -73 -9
q-55 -1 -83 3q-75 13 -121 53.5t-46 99.5q0 82 69 148q64 61 169 91q232 68 445 76q-9 -28 -72 -288zM487 765l-129 -54l-34 37l168 79h7l134 -66l-38 -38z" />
    <glyph glyph-name="Idieresis" unicode="&#xcf;" horiz-adv-x="629" 
d="M594 398q-20 -84 -64 -236q-41 -119 -128 -180q-76 -53 -168 -53q-60 0 -82 21q0 12 -6 75q28 -17 91 -19q49 -1 96 33q40 29 62 67q30 51 71 215q20 81 71 276l-155 -28q-113 -28 -162 -48q-130 -55 -130 -133q0 -96 155 -96q28 0 52 4q9 -35 9 -72q-15 -7 -73 -9
q-55 -1 -83 3q-75 13 -121 53.5t-46 99.5q0 82 69 148q64 61 169 91q232 68 445 76q-9 -28 -72 -288zM540 820q41 0 41 -37q0 -24 -21 -42t-45 -18q-41 1 -41 38q0 23 21 41t45 18zM360 820q41 0 41 -37q0 -24 -21 -42t-45 -18q-41 1 -41 38q0 23 21 41t45 18z" />
    <glyph glyph-name="Igrave" unicode="&#xcc;" horiz-adv-x="629" 
d="M594 398q-20 -84 -64 -236q-41 -119 -128 -180q-76 -53 -168 -53q-60 0 -82 21q0 12 -6 75q28 -17 91 -19q49 -1 96 33q40 29 62 67q30 51 71 215q20 81 71 276l-155 -28q-113 -28 -162 -48q-130 -55 -130 -133q0 -96 155 -96q28 0 52 4q9 -35 9 -72q-15 -7 -73 -9
q-55 -1 -83 3q-75 13 -121 53.5t-46 99.5q0 82 69 148q64 61 169 91q232 68 445 76q-9 -28 -72 -288zM506 738l-177 96q-53 -72 -53 -69l202 -65z" />
    <glyph glyph-name="Oacute" unicode="&#xd3;" horiz-adv-x="778" 
d="M729 399q0 -161 -114 -281q-124 -130 -319 -130q-122 0 -204 69q-87 74 -87 196q0 137 121 252q81 76 170 111q-56 4 -176 -43q9 27 16 47q16 47 25 50q85 28 216 28q103 0 183 -37q104 -48 146 -152q23 -57 23 -110zM620 387q0 62 -28 110q-41 74 -108 101
q-51 22 -147 24q23 -52 23 -56q0 -2 -63 -45q-76 -52 -119 -104q-63 -76 -63 -155q0 -82 62 -133q58 -47 141 -47q120 0 211 91.5t91 213.5zM345 758l177 96q53 -72 53 -69l-202 -65z" />
    <glyph glyph-name="Ocircumflex" unicode="&#xd4;" horiz-adv-x="778" 
d="M729 399q0 -161 -114 -281q-124 -130 -319 -130q-122 0 -204 69q-87 74 -87 196q0 137 121 252q81 76 170 111q-56 4 -176 -43q9 27 16 47q16 47 25 50q85 28 216 28q103 0 183 -37q104 -48 146 -152q23 -57 23 -110zM620 387q0 62 -28 110q-41 74 -108 101
q-51 22 -147 24q23 -52 23 -56q0 -2 -63 -45q-76 -52 -119 -104q-63 -76 -63 -155q0 -82 62 -133q58 -47 141 -47q120 0 211 91.5t91 213.5zM427 775l-129 -54l-34 37l168 79h7l134 -66l-38 -38z" />
    <glyph glyph-name="Ograve" unicode="&#xd2;" horiz-adv-x="778" 
d="M729 399q0 -161 -114 -281q-124 -130 -319 -130q-122 0 -204 69q-87 74 -87 196q0 137 121 252q81 76 170 111q-56 4 -176 -43q9 27 16 47q16 47 25 50q85 28 216 28q103 0 183 -37q104 -48 146 -152q23 -57 23 -110zM620 387q0 62 -28 110q-41 74 -108 101
q-51 22 -147 24q23 -52 23 -56q0 -2 -63 -45q-76 -52 -119 -104q-63 -76 -63 -155q0 -82 62 -133q58 -47 141 -47q120 0 211 91.5t91 213.5zM566 748l-177 96q-53 -72 -53 -69l202 -65z" />
    <glyph glyph-name="Uacute" unicode="&#xda;" horiz-adv-x="726" 
d="M692 128q-1 -28 -15 -78q-13 -23 -65 -40q-44 -16 -75 -16q-44 0 -70 24q-32 28 -28 84q11 59 36 188q-152 -298 -338 -298q-124 0 -124 118q0 42 17 88q90 248 107 356q12 75 -139 78l18 67q25 1 37 1q72 0 122 -26q69 -35 69 -112q0 -76 -59 -243t-59 -181
q0 -16 19 -30q15 -12 23 -12q15 0 41 9t37 17q84 62 173 208q21 36 131 243q9 17 48 91h99q-148 -517 -148 -556q0 -13 10.5 -22.5t24.5 -9.5q34 0 59 17t49 35zM295 738l177 96q53 -72 53 -69l-202 -65z" />
    <glyph glyph-name="Ucircumflex" unicode="&#xdb;" horiz-adv-x="726" 
d="M692 128q-1 -28 -15 -78q-13 -23 -65 -40q-44 -16 -75 -16q-44 0 -70 24q-32 28 -28 84q11 59 36 188q-152 -298 -338 -298q-124 0 -124 118q0 42 17 88q90 248 107 356q12 75 -139 78l18 67q25 1 37 1q72 0 122 -26q69 -35 69 -112q0 -76 -59 -243t-59 -181
q0 -16 19 -30q15 -12 23 -12q15 0 41 9t37 17q84 62 173 208q21 36 131 243q9 17 48 91h99q-148 -517 -148 -556q0 -13 10.5 -22.5t24.5 -9.5q34 0 59 17t49 35zM407 765l-129 -54l-34 37l168 79h7l134 -66l-38 -38z" />
    <glyph glyph-name="Ugrave" unicode="&#xd9;" horiz-adv-x="726" 
d="M692 128q-1 -28 -15 -78q-13 -23 -65 -40q-44 -16 -75 -16q-44 0 -70 24q-32 28 -28 84q11 59 36 188q-152 -298 -338 -298q-124 0 -124 118q0 42 17 88q90 248 107 356q12 75 -139 78l18 70q25 -2 37 -2q72 0 122 -26q69 -35 69 -112q0 -76 -59 -243t-59 -181
q0 -16 19 -30q15 -12 23 -12q15 0 41 9t37 17q84 62 173 208q21 36 131 243q9 17 48 91h99q-148 -517 -148 -556q0 -13 10.5 -22.5t24.5 -9.5q34 0 59 17t49 35zM526 738l-177 96q-53 -72 -53 -69l202 -65z" />
    <glyph glyph-name="circumflex" unicode="&#x2c6;" horiz-adv-x="661" 
d="M327 765l-129 -54l-34 37l168 79h7l134 -66l-38 -38z" />
    <glyph glyph-name="tilde" unicode="&#x2dc;" horiz-adv-x="717" 
d="M226 734l-44 41q25 28 46.5 38.5t58.5 15.5q9 1 18 1q35 0 78 -21t59 -19q36 -3 58 33l39 -39q-17 -27 -49.5 -41.5t-59.5 -12.5q-33 -3 -74 17.5t-59 20.5q-32 0 -71 -34z" />
    <glyph glyph-name="macron" unicode="&#xaf;" horiz-adv-x="543" 
d="M143 827h282l-20 -79h-282z" />
    <glyph glyph-name="macron" unicode="&#x2c9;" horiz-adv-x="543" 
d="M143 827h282l-20 -79h-282z" />
    <glyph glyph-name="cedilla" unicode="&#xb8;" horiz-adv-x="727" 
d="M282 -86q78 0 78 -32q0 -24 -57 -44q-34 -12 -71 -18q0 -44 6 -44q15 0 46.5 9.5t47.5 9.5q22 0 55 29.5t33 57.5q0 38 -26 52q-1 1 -53 17l31 66q-4 -1 -18 1q-17 3 -23 3q-9 0 -12 -4q-10 -14 -37 -103z" />
    <glyph glyph-name="Scaron" unicode="&#x160;" 
 />
    <glyph glyph-name="scaron" unicode="&#x161;" 
 />
    <glyph glyph-name="brokenbar" unicode="&#xa6;" 
 />
    <glyph glyph-name="Eth" unicode="&#xd0;" 
 />
    <glyph glyph-name="eth" unicode="&#xf0;" 
 />
    <glyph glyph-name="Yacute" unicode="&#xdd;" 
 />
    <glyph glyph-name="yacute" unicode="&#xfd;" 
 />
    <glyph glyph-name="Thorn" unicode="&#xde;" 
 />
    <glyph glyph-name="thorn" unicode="&#xfe;" 
 />
    <glyph glyph-name="minus" unicode="&#xad;" 
 />
    <glyph glyph-name="minus" unicode="&#x2212;" 
 />
    <glyph glyph-name="multiply" unicode="&#xd7;" 
 />
    <glyph glyph-name="onesuperior" unicode="&#xb9;" 
 />
    <glyph glyph-name="twosuperior" unicode="&#xb2;" 
 />
    <glyph glyph-name="threesuperior" unicode="&#xb3;" 
 />
    <glyph glyph-name="onehalf" unicode="&#xbd;" 
 />
    <glyph glyph-name="onequarter" unicode="&#xbc;" 
 />
    <glyph glyph-name="threequarters" unicode="&#xbe;" 
 />
    <glyph glyph-name="Lslash" unicode="&#x141;" 
 />
    <glyph glyph-name="lslash" unicode="&#x142;" 
 />
    <glyph glyph-name="HT" 
 />
    <glyph glyph-name="LF" 
 />
    <glyph glyph-name="nonmarkingreturn" 
 />
    <glyph glyph-name="Zcaron" unicode="&#x17d;" 
 />
    <glyph glyph-name="zcaron" unicode="&#x17e;" 
 />
    <glyph glyph-name="DLE" 
 />
    <glyph glyph-name="DC1" 
 />
    <glyph glyph-name="DC2" 
 />
    <glyph glyph-name="DC3" 
 />
    <glyph glyph-name="DC4" 
 />
    <glyph glyph-name="RS" 
 />
    <glyph glyph-name="US" 
 />
    <glyph glyph-name="notequal" unicode="&#x2260;" 
 />
    <glyph glyph-name="infinity" unicode="&#x221e;" 
 />
    <glyph glyph-name="lessequal" unicode="&#x2264;" 
 />
    <glyph glyph-name="greaterequal" unicode="&#x2265;" 
 />
    <glyph glyph-name="partialdiff" unicode="&#x2202;" horiz-adv-x="560" 
d="M335 334l-136 -35q-14 -33 -16 -39q-6 -20 -9 -54q81 44 161 128zM232 384l182 47q46 67 61 124q6 24 6 42q0 10 -7 21q-10 14 -24 14q-44 0 -117 -90q-62 -76 -101 -158zM36 333l65 17q57 139 154 237q110 110 220 110q45 0 72.5 -29t27.5 -75q0 -58 -35 -129l37 9
l-16 -81l-79 -20q-13 -17 -27 -31q-122 -129 -200 -174q-36 -19 -73 -41q-5 -33 29 -49q26 -13 61 -13q39 0 106 22t100 46q-2 -16 -13 -52q-9 -32 -12 -35q-46 -58 -213 -58q-84 0 -131 51t-47 136q0 42 12 93l-60 -16z" />
    <glyph glyph-name="summation" unicode="&#x2211;" horiz-adv-x="734" 
d="M763 656q-9 -29 -33 -83q-106 17 -174 17q-101 0 -205 -29q-145 -40 -145 -113q0 -52 123 -63q218 -19 230 -22q124 -28 124 -124q0 -121 -142 -191q-118 -58 -268 -58q-123 0 -285 54l21 76q57 -13 104 -24q113 -24 158 -25q87 -2 181 37q111 45 111 115q0 41 -122 50
q-185 15 -227 26q-122 34 -122 133q0 137 182 202q129 46 297 46q87 0 192 -24zM500 773l130 54l33 -37l-168 -79h-6l-135 66l39 38z" />
    <glyph glyph-name="product" unicode="&#x220f;" horiz-adv-x="543" 
d="M483 332q-13 1 -60 10q-37 7 -61 7q-49 0 -104 -12q-79 -16 -79 -47q0 -37 79 -43q140 -11 146 -13q79 -18 79 -86q0 -90 -105 -131q-75 -29 -182 -29q-130 0 -196 39q5 27 26 75q85 -38 185 -38q48 0 96 13q69 18 69 52q0 28 -80 32q-119 6 -148 14q-80 21 -80 91
q0 86 100 127q74 31 174 31q120 0 173 -18zM360 533l130 54l33 -37l-168 -79h-6l-135 66l39 38z" />
    <glyph glyph-name="pi" unicode="&#x3c0;" horiz-adv-x="748" 
d="M598 156l122 28l-18 -79l-127 -32q-81 -153 -174 -231q-116 -97 -268 -97q-74 0 -124 27q-63 34 -63 102q0 107 217 185q143 52 312 74q34 99 38 112q20 66 27 115q-37 -44 -75 -87q-46 -52 -86 -77q-53 -34 -108 -34q-78 0 -121 111q-31 82 -43 229q-6 96 -11 193l109 2
l6 -126q8 -125 26 -200q24 -104 65 -104q72 0 190 165q91 128 140 239h99q-22 -104 -64 -258q-34 -128 -69 -257zM459 55q-162 -34 -231 -56q-169 -55 -169 -122q0 -28 30 -42q23 -12 53 -12q189 0 317 232zM335 738l177 96q53 -72 53 -69l-202 -65z" />
    <glyph glyph-name="integral" unicode="&#x222b;" horiz-adv-x="513" 
d="M156 -199h-100l29 77l30 -1q151 -1 222 262q-63 -75 -96 -101q-59 -46 -129 -46q-51 0 -84.5 35.5t-33.5 85.5q0 54 78 295h106q-1 -4 -48 -152q-33 -104 -33 -137q0 -32 36 -32q71 0 173 128q84 105 119 193h97q-33 -126 -67 -251q-47 -162 -105 -245
q-79 -111 -194 -111zM215 488l177 96q53 -72 53 -69l-202 -65z" />
    <glyph glyph-name="Omega" unicode="&#x3a9;" horiz-adv-x="835" 
d="M415 69q68 0 161 29q21 6 156 55l-22 -91q-48 -26 -147.5 -50.5t-151.5 -24.5q-125 0 -212 51q-104 61 -104 175q0 1 5 37h-103l18 57h94q11 35 29 73h-96l23 60h105q72 106 186 170t230 64q79 0 134 -37q64 -42 64 -116q0 -33 -8 -48h-94q5 13 6 21t1 16q0 44 -38 68
q-33 20 -84 20q-61 0 -135.5 -42.5t-139.5 -115.5h229l-23 -60h-247q-24 -35 -40 -73h260l-18 -57h-254q-2 -11 -2 -22q0 -80 71 -123q59 -36 147 -36z" />
    <glyph glyph-name="Omega" unicode="&#x2126;" horiz-adv-x="835" 
d="M415 69q68 0 161 29q21 6 156 55l-22 -91q-48 -26 -147.5 -50.5t-151.5 -24.5q-125 0 -212 51q-104 61 -104 175q0 1 5 37h-103l18 57h94q11 35 29 73h-96l23 60h105q72 106 186 170t230 64q79 0 134 -37q64 -42 64 -116q0 -33 -8 -48h-94q5 13 6 21t1 16q0 44 -38 68
q-33 20 -84 20q-61 0 -135.5 -42.5t-139.5 -115.5h229l-23 -60h-247q-24 -35 -40 -73h260l-18 -57h-254q-2 -11 -2 -22q0 -80 71 -123q59 -36 147 -36z" />
    <glyph glyph-name="radical" unicode="&#x221a;" 
 />
    <glyph glyph-name="approxequal" unicode="&#x2248;" 
 />
    <glyph glyph-name="approxequal" unicode="&#x22f2;" 
 />
    <glyph glyph-name="Delta" unicode="&#x394;" 
 />
    <glyph glyph-name="Delta" unicode="&#x2206;" 
 />
    <glyph glyph-name="lozenge" unicode="&#x25ca;" 
 />
    <glyph glyph-name="fraction" unicode="&#x2044;" 
 />
    <glyph glyph-name="fi" unicode="&#xf001;" 
 />
    <glyph glyph-name="fl" unicode="&#xf002;" 
 />
    <glyph glyph-name="apple" unicode="&#xf000;" 
 />
    <glyph glyph-name="dotlessi" unicode="&#x131;" horiz-adv-x="269" 
d="M91 -4q-42 0 -65.5 19.5t-22.5 60.5q1 28 93 333l104 -1q-38 -134 -80 -291q-6 -37 23 -37q7 0 14 3q32 9 95 47q-1 -24 -17 -79q-26 -16 -50 -27q-57 -28 -94 -28z" />
    <glyph glyph-name="breve" unicode="&#x2d8;" horiz-adv-x="588" 
d="M261 703q-63 0 -113 27q-57 31 -64 81h75q28 -38 102 -38t102 38h75q-7 -50 -64 -81q-50 -27 -113 -27z" />
    <glyph glyph-name="dotaccent" unicode="&#x2d9;" horiz-adv-x="466" 
d="M264 860q25 0 41 -16t16 -39q0 -32 -26 -56.5t-58 -24.5q-25 0 -41 16t-16 39q0 32 26 56.5t58 24.5z" />
    <glyph glyph-name="ring" unicode="&#x2da;" horiz-adv-x="390" 
d="M267 871q29 0 48 -18.5t19 -45.5q0 -37 -31 -66t-68 -29q-30 0 -49 18.5t-19 46.5q0 37 31 65.5t69 28.5zM267 831q-25 0 -42.5 -18t-17.5 -37q0 -24 28 -24q24 0 41.5 18.5t17.5 37.5q0 23 -27 23z" />
    <glyph glyph-name="hungarumlaut" unicode="&#x2dd;" horiz-adv-x="488" 
d="M248 728l74 122q57 -25 56 -24l-99 -111zM143 725l74 122q57 -25 56 -24l-100 -111z" />
    <glyph glyph-name="ogonek" unicode="&#x2db;" horiz-adv-x="565" 
d="M297 0h50q-78 -45 -78 -87q0 -30 21 -47t51 -17q22 0 46 13l11 -23q-39 -23 -83 -23q-54 0 -85 20q-34 23 -34 62q0 60 101 102z" />
    <glyph glyph-name="caron" unicode="&#x2c7;" horiz-adv-x="661" 
d="M470 773l130 54l33 -37l-168 -79h-6l-135 66l39 38z" />
    </font>
</defs>
</svg>
