<?xml version="1.0" standalone="no"?>
<!DOCTYPE svg PUBLIC "-//W3C//DTD SVG 1.1//EN" "http://www.w3.org/Graphics/SVG/1.1/DTD/svg11.dtd" >
<svg>
<metadata>
Created by FontForge 20120731 at Tue Apr 16 16:46:49 2019
 By www-data
Digitized by Dan X. Solo. Software (c) 2000 by Dover Publications, Inc., New York.
</metadata>
<defs>
<font id="ElviraBoldItalic" horiz-adv-x="20" >
  <font-face 
    font-family="Elvira"
    font-weight="700"
    font-style="italic"
    font-stretch="normal"
    units-per-em="1000"
    panose-1="0 0 7 0 0 0 0 0 0 0"
    ascent="800"
    descent="-200"
    x-height="439"
    cap-height="658"
    bbox="-45 -209 1187 875"
    underline-thickness="20"
    underline-position="-123"
    slope="-11"
    unicode-range="U+0020-F000"
  />
<missing-glyph horiz-adv-x="500" 
d="M63 0v800h375v-800h-375zM125 63h250v675h-250v-675z" />
    <glyph glyph-name=".notdef" horiz-adv-x="500" 
d="M63 0v800h375v-800h-375zM125 63h250v675h-250v-675z" />
    <glyph glyph-name="glyph1" horiz-adv-x="0" 
 />
    <glyph glyph-name="glyph2" horiz-adv-x="243" 
 />
    <glyph glyph-name="space" unicode=" " horiz-adv-x="243" 
 />
    <glyph glyph-name="exclam" unicode="!" horiz-adv-x="405" 
d="M432 629q-37 -74 -69 -212q-28 -119 -58 -159q-47 -62 -158 -62q-85 0 -85 29q0 5 24 43q26 42 32 72q8 36 38 148q26 100 26 103q0 14 -12 14q-34 0 -53 -29.5t-33 -29.5q-24 0 -24 32q0 35 43 56q29 9 57 18l245 2q24 0 27 -25zM267 86q0 -50 -48 -74q-34 -17 -78 -17
q-39 0 -75 18q-47 24 -47 69q0 48 47 72q35 18 83 18t79 -18q39 -23 39 -68z" />
    <glyph glyph-name="quotedbl" unicode="&#x22;" horiz-adv-x="368" 
d="M446 641q-12 -23 -30 -94q-15 -62 -34 -88q-29 -38 -83 -38q-42 0 -42 15q0 1 13 25.5t15 31.5q15 58 28 103q11 33 10 53h108q14 1 15 -8zM286 641q-12 -24 -29 -92q-14 -60 -32 -84q-27 -37 -82 -37q3 0 -16 -1q-13 -1 -20 1q-10 2 -10 8q0 1 13 25.5t15 31.5
q15 58 28 103q11 33 10 53h108q14 1 15 -8z" />
    <glyph glyph-name="numbersign" unicode="#" horiz-adv-x="627" 
d="M232 219h93l60 205h-92zM497 219l-29 -95h-72l-37 -128h-45q-53 -1 -53 0l37 128h-94l-37 -128h-45q-53 -1 -53 0l37 128h-82l29 95h80l60 205h-77l29 95h76l39 133h101l-40 -133h92l39 133h101l-40 -133h76l-29 -95h-75l-61 -205h73z" />
    <glyph glyph-name="dollar" unicode="$" horiz-adv-x="602" 
d="M647 635q-3 -48 -16 -104q-20 -90 -49 -90q-15 0 -18 29q-4 51 -5 58q-9 35 -41 48q-9 -10 -30 -63.5t-21 -62.5q0 -7 42 -33q52 -32 78 -63q43 -50 43 -117q0 -132 -131 -189q-81 -34 -239 -44q-5 -5 -25 -50q-17 -37 -30 -37q-25 0 -25 23q0 4 8 29.5t10 37.5
q-87 28 -125 62q-46 39 -46 102q0 49 31.5 78t80.5 29q34 0 59 -18q28 -21 28 -53q0 -18 -13.5 -33.5t-25.5 -15.5q-23 0 -23 13q0 5 3.5 16.5t3.5 16.5q0 17 -34 17q-26 0 -41 -20q-12 -16 -12 -36q0 -43 44 -72q37 -24 75 -24q20 0 58 98q36 89 36 106q0 10 -42 29
q-52 25 -76 49q-42 41 -42 102q0 91 93 147q77 46 161 46q21 8 53 8q25 0 34 -8q12 27 23 53q19 43 33 43q21 0 21 -26q0 -5 -10.5 -37.5t-10.5 -37.5q0 -9 20 -20q12 -7 24 -13q5 2 18 22t28 20q5 0 23 -15zM452 563l8 23q-9 1 -17 1q-65 0 -65 -64q0 -33 34 -50
q15 16 40 90zM385 174q0 19 -13 38.5t-28 22.5q-50 -104 -56 -154q37 -2 67 28t30 65z" />
    <glyph glyph-name="percent" unicode="%" horiz-adv-x="665" 
d="M651 614q0 -6 -182 -244t-283 -364q-14 10 -33 31l229 315q-8 -2 -52 -27q-30 -17 -68 -17q-70 0 -107.5 37.5t-37.5 105.5q0 86 59 141q56 51 137 51q133 0 133 -150q0 -28 -4 -62l172 216q37 -19 37 -33zM680 162q0 -85 -58 -130q-49 -38 -120 -38q-142 0 -142 129
q0 84 54.5 138t144.5 54q121 0 121 -153zM393 493q0 37 -11 57q-9 17 -36 36q-45 -4 -69 -49q-19 -35 -19 -80q0 -19 8 -41q14 -38 45 -38q41 0 64 47q18 35 18 68zM630 169q0 75 -38 89q-48 -2 -75 -52q-22 -40 -22 -90q0 -23 14 -42q15 -22 36 -22q42 0 67 44q18 35 18 73
z" />
    <glyph glyph-name="ampersand" unicode="&#x26;" horiz-adv-x="788" 
d="M820 60q0 -48 -67 -69q-36 -11 -75 -11q-61 0 -106 15q-30 10 -56 28q-21 16 -25 16q2 0 -59 -22t-118 -22q-91 0 -166 50q-92 59 -92 161q0 106 103 167q59 35 195 70q-6 97 67 163q65 58 151 58q62 0 109 -31q56 -37 56 -102q0 -55 -43 -92q-26 -21 -99 -56
q21 -89 62 -159q26 17 35 47q4 15 6 51q1 29 9 39q14 16 26 16q20 0 31.5 -19.5t11.5 -41.5q0 -38 -24 -79q-16 -27 -46 -60q-24 -27 -24 -30q0 -18 22.5 -45.5t44.5 -27.5q4 0 24 8t25 8q9 0 15.5 -11.5t6.5 -18.5zM674 523q0 17 -15.5 34t-33.5 17q-30 0 -46 -33
q-11 -24 -11 -48q0 -21 8 -45h21q20 0 48.5 25.5t28.5 49.5zM457 87v17l-99 269q-36 -1 -56 -40q-14 -28 -14 -56q0 -59 27 -117q38 -82 107 -82q9 0 35 9z" />
    <glyph glyph-name="quotesingle" unicode="'" horiz-adv-x="294" 
d="M286 641q-12 -24 -29 -92q-14 -60 -32 -84q-27 -37 -82 -37q3 0 -16 -1q-13 -1 -20 1q-10 2 -10 8q0 1 13 25.5t15 31.5q15 58 28 103q11 33 10 53h108q14 1 15 -8z" />
    <glyph glyph-name="parenleft" unicode="(" horiz-adv-x="550" 
d="M602 672q0 -9 -11 -20t-17 -11q-8 0 -24 11.5t-33 11.5q-68 0 -132 -151q-47 -112 -87 -288q-31 -139 -31 -171q0 -79 51 -79q4 0 20 4t21 4q22 0 22 -21q0 -23 -30 -38q-24 -12 -51 -12q-121 0 -188 112q-54 88 -54 197q0 91 42 206q49 133 130 216q99 100 224 100
q35 0 81 -14q67 -20 67 -57z" />
    <glyph glyph-name="parenright" unicode=")" horiz-adv-x="516" 
d="M492 414q0 -95 -37 -205q-44 -130 -121 -209q-93 -96 -217 -96q-27 0 -67 14q-57 20 -57 53q0 7 8 17t15 10q5 0 27.5 -9t27.5 -9q67 0 120 150q38 109 65 284q20 128 20 165q0 45 -4 62q-11 42 -49 42q-5 0 -23 -6t-22 -6q-20 0 -20 24q0 47 84 47q131 0 198 -119
q52 -91 52 -209z" />
    <glyph glyph-name="asterisk" unicode="*" horiz-adv-x="327" 
d="M179 643q21 -26 55 -77q7 28 13 49q5 16 5 26h54q7 1 7 -4q-12 -32 -41 -86q21 6 48 12q6 0 29 10l27 -47q3 -6 0 -8q-6 -1 -49 -6q-31 -3 -47 -2q16 -15 35 -34q3 -6 23 -21l-27 -47q-3 -6 -8 -4q-21 27 -54 79q-7 -29 -14 -51q-5 -16 -5 -26h-54q-7 -1 -7 4
q12 32 39 86q-20 -6 -45 -12q-7 0 -29 -10l-27 47q-4 6 0 8q9 1 48 6q30 5 46 3q-16 15 -33 34q-4 5 -23 20l27 47q3 6 7 4z" />
    <glyph glyph-name="plus" unicode="+" horiz-adv-x="616" 
d="M573 270h-213l-53 -204h-117l53 204h-192l25 106h195l54 210h117l-54 -210h209z" />
    <glyph glyph-name="comma" unicode="," horiz-adv-x="270" 
d="M242 81q0 -44 -34 -90q-29 -39 -87 -70q-73 -39 -114 -39q-16 0 -19 14q-4 18 36 35q47 20 56 47q5 13 -32 39t-34 59q5 42 42 65q34 20 81 17q40 -2 72.5 -24.5t32.5 -52.5z" />
    <glyph glyph-name="hyphen" unicode="-" horiz-adv-x="322" 
d="M322 339q-55 -70 -70 -145q-41 -6 -41 38q0 12 3 21q-28 -1 -57 2q-34 3 -33 3q-21 0 -42 -10t-13 -10q-2 0 -14 -2q-7 -1 -10 2q23 57 48 79.5t69 22.5q1 0 28 -2t53 -2q39 -1 79 3z" />
    <glyph glyph-name="hyphen" unicode="&#x2010;" horiz-adv-x="322" 
d="M322 339q-55 -70 -70 -145q-41 -6 -41 38q0 12 3 21q-28 -1 -57 2q-34 3 -33 3q-21 0 -42 -10t-13 -10q-2 0 -14 -2q-7 -1 -10 2q23 57 48 79.5t69 22.5q1 0 28 -2t53 -2q39 -1 79 3z" />
    <glyph glyph-name="period" unicode="." horiz-adv-x="273" 
d="M245 73q-2 -40 -38 -63q-32 -22 -76 -23q-49 0 -84 24q-39 27 -38 69q2 39 36 62t78 24q49 0 84 -24q39 -27 38 -69z" />
    <glyph glyph-name="slash" unicode="/" horiz-adv-x="472" 
d="M469 674l-368 -691q-24 0 -47 -1q-55 0 -55 1l364 691h106z" />
    <glyph glyph-name="zero" unicode="0" horiz-adv-x="728" 
d="M743 347q0 -168 -124 -265q-109 -86 -263 -86q-127 0 -200 61q-81 67 -81 199q0 184 132 297q124 107 305 107q58 0 116 -28q77 -37 77 -103q0 -2 -17 -56q31 -19 42 -41q13 -27 13 -85zM679 345q0 24 -22 112q-15 0 -22 -4q-12 3 -23 6q-17 5 -17 21q0 6 17 24t17 23
q0 12 -27 25q-22 11 -30 11q-94 0 -161 -129q-53 -102 -53 -176q0 -48 18 -93q29 -72 92 -72h17q78 0 141 101q53 86 53 151z" />
    <glyph glyph-name="one" unicode="1" horiz-adv-x="547" 
d="M547 630q0 16 -26 -44q-27 -64 -40 -124q-47 -219 -106 -403q6 -7 26 -7q27 0 52 17t31 17q13 0 22.5 -10t9.5 -22q0 -32 -42 -49q-33 -13 -72 -13q-5 0 -110.5 9t-111.5 9l-48 -8q-35 -6 -58 -4q-22 2 -37 12q70 89 100 169q16 42 40.5 156.5t60.5 211.5q-4 11 -17 11
q-47 0 -71 -26q-10 -12 -26 -47q-10 -26 -25 -26q-16 0 -28.5 13.5t-12.5 27.5q0 24 27 59.5t60 43.5q27 6 182 27q161 22 189 22q18 0 24.5 -3t6.5 -19z" />
    <glyph glyph-name="two" unicode="2" horiz-adv-x="726" 
d="M735 463q0 -89 -93 -152q-64 -43 -194 -84q-147 -47 -167 -57q242 -41 295 -41q38 0 59 32t34 32q27 0 27 -32q0 -67 -68 -122.5t-144 -50.5l-296 47q-18 -2 -57.5 -20.5t-46.5 -18.5q-19 0 -26 14q-2 11 -2 23q0 75 104 157q96 65 193 131q103 74 103 132q0 47 -41 77
q-37 28 -81 28q-58 0 -103 -27q-57 -33 -57 -96q0 -14 15.5 -27t29.5 -13q4 0 14 10.5t16 10.5q8 0 17.5 -8t9.5 -15q0 -15 -13.5 -36.5t-26.5 -21.5h-22q-30 0 -65 31.5t-35 60.5q0 128 117 186q85 43 213 43q110 0 183 -32q108 -49 108 -161z" />
    <glyph glyph-name="three" unicode="3" horiz-adv-x="716" 
d="M696 279q0 -157 -152 -233q-107 -54 -246 -54q-89 0 -163 32q-103 45 -103 135q0 50 34 82q32 29 80 29q34 0 59 -19q28 -22 28 -58q0 -19 -10.5 -33t-25.5 -14q-17 0 -17 12q0 4 2.5 14.5t2.5 15.5q0 23 -42 23q-55 0 -55 -56q0 -53 53 -76q35 -14 82 -14q75 0 136 42
q72 49 72 131q0 39 -22 68q-25 33 -66 33q-5 0 -31.5 -6.5t-30.5 -6.5q-26 0 -26 24q0 11 90 80q99 77 107 86q-33 2 -118.5 13t-87.5 11q-38 0 -62 -17q-15 -11 -30 -33q-12 -18 -19 -18q-22 0 -22 32q0 79 98 124q71 32 134 32l214 -25q6 0 50.5 10.5t50.5 10.5
q23 0 23 -21q0 -13 -92 -84q-57 -42 -113 -85q92 -3 155 -54.5t63 -132.5z" />
    <glyph glyph-name="four" unicode="4" horiz-adv-x="691" 
d="M708 263q0 -47 -39 -54q-67 -11 -73 -14q-38 -24 -38 -113v-17q7 -7 12 -7t36 21.5t35 21.5q13 0 22.5 -10t9.5 -23q0 -42 -52 -60q-31 -10 -68 -10l-167 8q-5 0 -70.5 -6.5t-70.5 -6.5q-30 0 -30 26q0 3 24 30q31 33 48 61q27 44 31 86q-6 7 -39 7q-5 0 -105 -12.5
t-105 -12.5q-13 0 -24 14q-10 11 -10 16q0 1 101.5 179t104.5 204q-4 11 -30 11q-30 0 -55 -17t-33 -17q-13 0 -22.5 9.5t-9.5 22.5q0 62 152 62l188 -9q6 0 56 4.5t56 4.5q5 0 9 -6q7 -10 9 -12q-1 -64 -146 -193q-59 -52 -231 -184q1 -4 35 -4q4 0 43 2q44 2 65 3
q1 73 126 166q121 91 201 91q36 0 36 -26q0 -3 -22 -35q-26 -37 -41 -73q-22 -53 -22 -108q0 -15 2.5 -17.5t12.5 -2.5q5 0 31 17.5t31 17.5q25 0 26 -35z" />
    <glyph glyph-name="five" unicode="5" horiz-adv-x="686" 
d="M688 257q0 -147 -151 -214q-102 -45 -239 -45q-94 0 -160 22q-110 39 -110 134q0 45 34 81.5t83 36.5q39 0 68 -23t29 -56q0 -12 -9 -31q-11 -23 -24 -23h-26q-3 4 -1 27t-3 33q-7 17 -34 17q-24 0 -40 -24q-13 -19 -13 -36q0 -49 47 -73q34 -17 75 -17q78 0 141 55
q67 58 67 140q0 62 -48 93q-37 25 -85 25q-50 0 -95 -23.5t-51 -23.5q-25 0 -25 30q0 18 44 149q43 127 55 151q108 -13 222 -13q92 0 145 11q50 10 46 10h40q0 -1 2.5 -7t2.5 -12q0 -85 -151 -120q-81 -19 -166 -19q-5 0 -56.5 4t-57.5 4q-19 0 -29 -32l-12 -50q26 3 98 19
q57 12 95 12q102 0 184 -44q108 -58 108 -168z" />
    <glyph glyph-name="six" unicode="6" horiz-adv-x="710" 
d="M735 279q0 -141 -132 -225q-108 -69 -232 -69q-119 0 -206 60q-103 72 -103 198q0 208 154 316q127 90 320 90q39 0 103 -13q87 -19 87 -48q0 -28 -38 -28q-5 0 -58.5 4t-58.5 4q-120 0 -191 -136q-56 -105 -56 -211q0 -60 25 -103q33 -57 98 -57q83 0 127 67
q34 53 34 126q0 32 -40 59q-35 23 -62 23q-39 0 -65 -27.5t-36 -27.5q-15 0 -30 14q-4 75 56 120q52 40 122 40q78 0 130 -51.5t52 -124.5z" />
    <glyph glyph-name="seven" unicode="7" horiz-adv-x="676" 
d="M746 619q0 -28 -65 -136q-94 -154 -122 -209q-66 -130 -66 -210q0 -28 8 -50q5 -14 -43 -14h-268q-28 0 -40 13q-5 119 152 270q93 91 275 215q-11 4 -25 4q-12 0 -37 -4t-37 -4q-6 0 -104 15t-104 15q-48 0 -80 -32q-16 -15 -40 -59q-18 -32 -32 -32q-27 0 -27 32
q0 23 44 116q47 98 65 98q17 0 23.5 -11t13.5 -23q35 13 69 26q40 12 100 12q5 0 108.5 -13t108.5 -13t49 13t49 13q10 0 17.5 -12.5t7.5 -19.5z" />
    <glyph glyph-name="eight" unicode="8" horiz-adv-x="693" 
d="M688 237q0 -145 -136 -207q-90 -40 -221 -40q-99 0 -177 29q-126 47 -126 154q0 114 140 149q-22 27 -45 53q-23 32 -23 73q0 109 128 165q93 41 196 41q83 0 149 -26q98 -37 98 -118q0 -31 -27 -63q-28 -35 -70 -46q34 -32 69 -64q45 -50 45 -100zM604 512q0 39 -52 59
q-38 15 -86 15q-31 0 -56 -13q-31 -16 -31 -44q0 -24 48 -59.5t73 -35.5q4 0 12 19t24 19q5 0 13 -2.5t12 -2.5q18 0 30.5 13.5t12.5 31.5zM405 157q0 41 -85 87l-100 46q-9 -20 -43 -33q-46 -17 -54 -23q-27 -18 -27 -54q0 -57 60 -91q50 -28 107 -28q42 0 83 19
q59 27 59 77z" />
    <glyph glyph-name="nine" unicode="9" horiz-adv-x="707" 
d="M743 374q0 -204 -161 -307q-128 -82 -310 -82q-49 0 -103 10q-90 16 -90 49q0 17 19 25q11 5 19 5q6 0 45 -4t44 -4q125 0 203 125q64 104 64 219q0 66 -22 109q-29 58 -92 58q-69 0 -116 -60q-41 -53 -41 -111q0 -43 24 -75q28 -37 75 -37q31 0 54 15q14 9 30 29
q13 15 18 15q15 0 25 -18q7 -13 7 -24q0 -58 -70 -98q-57 -33 -110 -33q-79 0 -127.5 47t-48.5 122q0 143 124 228q104 72 232 72q129 0 214 -68q94 -76 94 -207z" />
    <glyph glyph-name="colon" unicode=":" horiz-adv-x="310" 
d="M305 353q-2 -40 -38 -63q-32 -22 -76 -23q-49 0 -84 24q-39 27 -38 69q2 39 36 62t78 24q49 0 84 -24q39 -27 38 -69zM245 73q-2 -40 -38 -63q-32 -22 -76 -23q-49 0 -84 24q-39 27 -38 69q2 39 36 62t78 24q49 0 84 -24q39 -27 38 -69z" />
    <glyph glyph-name="semicolon" unicode=";" horiz-adv-x="270" 
d="M252 81q0 -44 -34 -90q-29 -39 -87 -70q-73 -39 -114 -39q-16 0 -19 14q-4 18 36 35q47 20 56 47q5 13 -32 39t-34 59q5 42 42 65q34 20 81 17q40 -2 72.5 -24.5t32.5 -52.5zM305 353q-2 -40 -38 -63q-32 -22 -76 -23q-49 0 -84 24q-39 27 -38 69q2 39 36 62t78 24
q49 0 84 -24q39 -27 38 -69z" />
    <glyph glyph-name="less" unicode="&#x3c;" horiz-adv-x="720" 
d="M601 450q-2 28 -23.5 46.5t-49.5 16.5q-28 -3 -46.5 -24t-16.5 -49q2 -29 23.5 -47t49.5 -16t46.5 23.5t16.5 49.5zM417 544q-3 28 -24 46.5t-50 16.5q-28 -2 -46 -23.5t-16 -49.5t23.5 -46.5t49.5 -16.5t46.5 23.5t16.5 49.5zM612 237q-2 28 -23.5 46.5t-49.5 16.5
q-28 -3 -46.5 -24t-15.5 -50q2 -28 23.5 -46t49.5 -16t46 23.5t16 49.5zM436 343q-2 32 -27 53.5t-57 18.5q-33 -2 -54 -27t-19 -58q3 -32 27.5 -53.5t57.5 -18.5t54 27.5t18 57.5zM242 444q-2 28 -23.5 46t-49.5 16t-46 -23.5t-16 -49.5t23.5 -46.5t49.5 -15.5
q28 2 46.5 23.5t15.5 49.5zM418 138q-2 28 -23.5 46.5t-49.5 16.5q-28 -3 -46 -24t-16 -49q2 -29 23.5 -47t49.5 -16t46.5 23.5t15.5 49.5zM255 249q-3 28 -24 46.5t-50 16.5q-28 -2 -46 -23.5t-16 -49.5t23.5 -46.5t49.5 -16.5t46.5 23.5t16.5 49.5z" />
    <glyph glyph-name="equal" unicode="=" horiz-adv-x="569" 
d="M62 275h501l-20 -86h-501zM102 435h501l-20 -86h-501z" />
    <glyph glyph-name="greater" unicode="&#x3e;" horiz-adv-x="576" 
d="M504 405q-1 16 -14 27t-30 10q-16 -1 -27 -14t-10 -30t14 -28t30 -9q17 1 28 14t9 30zM394 461q-2 17 -14.5 28t-29.5 9q-17 -1 -28 -14t-10 -29q2 -17 14.5 -28t29.5 -10t28 14t10 30zM511 277q-1 17 -14 27.5t-30 9.5t-28 -14t-9 -30q1 -17 14 -28t30 -9q17 1 27.5 14
t9.5 30zM406 340q-2 20 -17 32.5t-34 10.5q-20 -1 -32.5 -16t-11.5 -34q2 -20 17 -32.5t34 -11.5q20 2 32.5 16.5t11.5 34.5zM289 401q-1 16 -14 27t-30 10q-16 -1 -27 -14t-10 -30t14 -28t30 -9q17 1 28 14t9 30zM395 217q-1 17 -14 28t-30 10q-17 -2 -28 -14.5t-9 -29.5
q1 -17 14 -28t29 -10q17 2 28 14.5t10 29.5zM297 284q-2 17 -14.5 28t-29.5 9q-17 -1 -28 -14t-10 -29q2 -17 14.5 -28t29.5 -10t28 14t10 30z" />
    <glyph glyph-name="question" unicode="?" horiz-adv-x="534" 
d="M587 485q0 -66 -51 -106q-28 -22 -119 -60t-137 -75q4 -27 4 -28q0 -28 -28 -28q-20 0 -35 25q-12 20 -12 34q0 29 35 73q34 39 67 79q35 48 35 90q0 38 -25.5 61.5t-60.5 23.5q-28 0 -55 -15q-36 -19 -36 -50q0 -21 18 -31.5t18 -21.5q0 -28 -32 -28q-29 0 -43 27
q-12 21 -12 50q0 80 93 121q68 30 143 30q83 0 149 -38q84 -47 84 -133zM343 80q0 -41 -41 -67q-33 -22 -72 -22t-76 16q-55 23 -55 73q0 46 47 70q35 18 78 18t76 -19q43 -25 43 -69z" />
    <glyph glyph-name="A" unicode="A" horiz-adv-x="762" 
d="M457 405q0 71 -39 118q-43 52 -118 52q-47 0 -95 -24q-63 -32 -63 -87q0 -21 17.5 -38t38.5 -17q33 0 76 52.5t58 52.5q7 0 15 -7.5t8 -17.5q0 -8 -52 -82q-56 -78 -63 -99q-4 -11 17 -11l26 2q31 0 45 -1t12 -1q77 0 97 17.5t20 90.5zM219 247l-53 -102q-19 -38 -46 -82
q4 -14 57 -14q23 0 43 13t26 13t16.5 -10.5t10.5 -16.5q0 -24 -26 -41q-22 -15 -49 -15q-8 0 -15 2q-37 10 -70 10q-8 0 -86 -8q-6 -1 -18 6t-12 12q0 10 38 48q79 79 115 185q-6 2 -15 2q-27 0 -53.5 -27.5t-36.5 -27.5q-9 0 -18.5 10.5t-9.5 19.5q0 50 47 67
q44 8 89.5 17.5t45.5 45.5q0 2 -24 9q-29 8 -31 9q-55 23 -55 88q0 98 103 151q83 42 192 42q134 0 215 -54q95 -64 95 -191q0 -117 -70 -347l14 -4q19 0 38 16.5t30 16.5q8 0 16 -9.5t8 -17.5q0 -32 -37 -49q-30 -14 -65 -13q1 0 -46 -2q-53 -2 -93 -2q-126 0 -126 20
q0 30 36 112q34 78 30 116l2 2h-1h-211z" />
    <glyph glyph-name="B" unicode="B" horiz-adv-x="833" 
d="M819 215q0 -117 -127 -176q-90 -41 -196 -41l-252 11l-90 -7q-2 0 -40 -2.5t-40 -2.5q-37 0 -37 23q0 5 37 43.5t41 45.5q14 32 42 146q26 105 26 116q0 7 -7 7q-2 0 -24.5 -4.5t-24.5 -4.5q-44 0 -74 30t-30 73q0 129 183 170q76 17 224 17q99 0 206 -33
q167 -51 167 -157q0 -73 -94 -117q110 -38 110 -137zM565 451q0 81 -121 120q-78 24 -159 24q-62 0 -122 -22q-88 -33 -88 -98q0 -24 15 -39.5t39 -15.5q22 0 61 32q54 44 85 60q62 32 141 32q87 0 87 -35q0 -9 -20 -30t-22 -26q-27 -67 -46 -140q-15 -66 -31 -132
q-11 -40 -30 -119q16 -5 34 -5q76 0 126 48.5t50 124.5q0 27 -12 48q-14 25 -39 25h-60q-8 0 -14 8.5t-6 15.5q0 14 34 28q50 21 64 31q34 25 34 65z" />
    <glyph glyph-name="C" unicode="C" horiz-adv-x="711" 
d="M722 621q0 -41 -38 -128q-41 -98 -75 -98q-11 0 -21 9.5t-10 20.5q0 6 21 32t21 53q0 36 -32 56q-27 16 -66 16q-111 0 -182 -112q-61 -98 -61 -216q0 -75 44 -123.5t119 -48.5q63 0 112 33q57 38 57 98q0 25 -14 43.5t-38 18.5q-40 0 -40 -27q0 -7 2 -19.5t2 -18.5
q0 -17 -24 -17q-20 0 -31.5 15.5t-11.5 35.5q0 39 30.5 64t70.5 25q50 0 83 -37t33 -89q0 -110 -121 -175q-98 -52 -214 -52q-141 0 -226 71q-91 76 -91 218q0 189 132 295q124 98 322 93q40 -1 89 -16q57 -16 79 -39q8 1 20.5 22.5t28.5 21.5q7 0 18.5 -9t11.5 -16z" />
    <glyph glyph-name="D" unicode="D" horiz-adv-x="826" 
d="M814 341q0 -142 -98 -238q-104 -101 -271 -102h-102l-193 8l-82 -9q-39 0 -39 24q0 1 37 53.5t44 81.5q9 38 35 131q21 80 21 82q0 8 -9 7q-2 0 -20 -2.5t-20 -2.5q-45 0 -74.5 28t-29.5 72q0 110 142 155q82 26 192 26q178 0 295 -54q172 -79 172 -260zM570 341
q0 131 -85 195q-72 55 -200 55q-62 0 -124 -20q-97 -32 -97 -98q0 -50 52 -50q30 0 66 30q54 46 73 56q54 31 127 31q93 0 93 -37q0 -6 -23 -32q-26 -29 -33 -52q-1 -2 -37 -141l-26 -108q-15 -61 -33 -108q8 -4 26 -4q108 0 170 99q51 81 51 184z" />
    <glyph glyph-name="E" unicode="E" horiz-adv-x="674" 
d="M676 622q0 -5 -25 -83.5t-31 -87.5q-16 -26 -38 -26q-31 0 -31 31q0 8 18 29t18 37q0 33 -37 52q-29 14 -56 14q-39 0 -79 -32q-44 -35 -44 -80q0 -41 37 -56q8 -3 70 -12q38 -6 38 -27q0 -25 -14 -25q-103 -2 -163 -40q-66 -44 -66 -130q0 -122 147 -122q55 0 102 20
q69 30 69 92q0 22 -14.5 40t-38.5 18q-28 0 -37 -17q-2 -5 -6 -31q-2 -16 -14 -16q-15 0 -25 13.5t-10 29.5q0 36 29 59q26 20 59 20q47 0 78 -31.5t31 -77.5q0 -192 -316 -192q-112 0 -188 32q-117 49 -117 165q0 60 38 112q41 59 111 81q0 4 -11 12q-15 10 -21 18
q-18 24 -18 63q0 97 99 148q77 38 173 38q20 0 36 -2q70 -10 127 -31q50 -18 49 -18q5 0 19.5 18t26.5 18q10 0 17.5 -7.5t7.5 -15.5z" />
    <glyph glyph-name="F" unicode="F" horiz-adv-x="675" 
d="M748 635q-59 -117 -59 -147q0 -61 -26 -61q-57 0 -57 89q0 14 1 35t1 27q0 4 -10 7q-30 8 -105 8q-41 0 -65 -36q-19 -26 -31 -80q-9 -43 -17 -87l-3 -15q32 20 79 20q12 0 34.5 -1.5t33.5 -1.5q15 0 33 7.5t24 7.5q17 0 17 -26q0 -35 -28.5 -56.5t-64.5 -21.5
q-15 0 -45.5 6.5t-45.5 6.5q-44 0 -74 -104q-16 -73 -32 -145q25 -8 59 -8q26 0 52 14.5t31 14.5q10 0 20 -12.5t10 -23.5q0 -30 -42 -44q-29 -9 -68 -9q16 0 -192 9q-4 0 -50 -6.5t-73 -6.5q-49 0 -49 20q0 2 38.5 54.5t45.5 74.5q25 80 53 215q35 171 47 217l-12 7
q-28 0 -58 -23.5t-30 -49.5q0 -10 11 -24.5t11 -24.5q0 -27 -29 -27q-25 0 -39 25q-11 20 -11 47q0 149 271 149q52 0 154 -5.5t153 -5.5l113 12z" />
    <glyph glyph-name="G" unicode="G" horiz-adv-x="737" 
d="M744 333q0 -12 -19 -29q-25 -22 -28 -28q-31 -48 -60 -188q-24 -116 -82 -163q-85 -71 -296 -71q-80 0 -139 25q-80 34 -80 103q0 32 21 60.5t52 28.5q20 0 36.5 -14.5t16.5 -33.5q0 -21 -29 -26t-29 -31q0 -23 38 -38q31 -13 59 -13q86 0 133 52q31 35 66 129l-7 6
q-52 -28 -138 -28q-109 0 -172 50q-69 55 -69 162q0 184 135 286q122 92 312 92q58 0 133.5 -29.5t68.5 -29.5q8 0 19.5 17.5t29.5 17.5q16 0 26 -25q-18 -55 -37 -110q-32 -83 -52 -83q-29 0 -29 28q0 9 8.5 32t8.5 32q0 36 -34 60q-30 21 -68 21q-119 0 -201 -115
q-74 -105 -74 -229q0 -103 85 -103q55 0 79 51q2 5 28 98l-16 6q-12 0 -31.5 -11t-29.5 -11q-8 0 -16.5 9.5t-8.5 17.5q0 48 91 47h13q-4 0 42 1.5t85 1.5q159 0 159 -25z" />
    <glyph glyph-name="H" unicode="H" horiz-adv-x="846" 
d="M871 629q-51 -65 -80 -179q-21 -103 -42 -205q-25 -122 -65 -190l17 -7q18 0 46.5 16t36.5 16q7 0 17 -10t10 -18q0 -33 -40 -48q-32 -12 -70 -9q-79 0 -158 1q-124 3 -124 27q0 9 13 27q28 40 55 142q21 78 32 153q-8 5 -22 5q-85 0 -107 -7q-16 -74 -32 -149
q-23 -99 -51 -135l12 -5q18 0 36.5 16.5t28.5 16.5t17 -10.5t7 -20.5q0 -34 -40 -49q-31 -11 -70 -8q-51 3 -242 3q-7 0 -15 7.5t-8 14.5q0 10 26 47q30 40 34 54q12 33 32 111q24 88 25 105l-11 10q-42 0 -54 -25q-6 -13 -6 -57q0 -13 -11 -23.5t-25 -10.5q-39 0 -39 53
q0 87 157 125q20 60 57 181l-24 7q-33 0 -57.5 -17.5t-31.5 -17.5t-20 11.5t-13 17.5q0 35 47 52q37 14 76 11q48 -4 268 -4q8 0 19 -7t11 -15q-39 -61 -55 -102.5t-28 -114.5l37 -6l77 2q19 0 22 36q10 114 70 164q56 47 172 47q82 0 83 -29z" />
    <glyph glyph-name="I" unicode="I" horiz-adv-x="435" 
d="M202 594l-24 7q-33 0 -57.5 -17.5t-31.5 -17.5t-20 11.5t-13 17.5q0 35 47 52q37 14 76 11q161 -12 268 -4q8 1 19 -6.5t12 -15.5q-75 -116 -104 -288q-16 -75 -32 -149q-23 -100 -51 -136l12 -5q18 0 36.5 16.5t28.5 16.5t17 -10.5t7 -20.5q0 -34 -40 -49
q-31 -11 -69 -8q-52 3 -243 3q-7 0 -15 7.5t-8 14.5q0 10 28 48.5t33 52.5q11 33 32 111q23 88 24 105q25 97 68 253z" />
    <glyph glyph-name="J" unicode="J" horiz-adv-x="626" 
d="M675 629h-1q-9 0 -34 -53q-22 -48 -28 -73q-27 -117 -51 -230q-33 -156 -94 -217q-70 -71 -223 -71q-94 0 -163 38q-84 47 -84 134q0 57 37.5 99.5t93.5 42.5q34 0 61 -14q33 -18 33 -49q0 -34 -27 -34q1 0 -20 20.5t-43 20.5q-37 0 -56 -24t-19 -62q0 -90 103 -90
q125 0 166 216q5 36 20 105q8 25 26 101q14 64 30 100q-17 11 -91 11q-49 0 -68 -19q-4 -4 -20 -34q-9 -19 -33 -19q-10 0 -19 13t-9 23q0 49 57 73q46 19 100 15q204 -15 234 -15q16 0 49.5 7.5t50.5 7.5q26 0 22 -23z" />
    <glyph glyph-name="K" unicode="K" horiz-adv-x="846" 
d="M885 557q0 -30 -23.5 -52.5t-51.5 -22.5q-16 0 -35 11q-22 11 -23 23q-2 25 19 25q4 0 13.5 -1t13.5 -1q34 0 34 26q0 23 -25 37q-21 12 -46 12q-35 0 -74.5 -16.5t-97.5 -73.5q-50 -49 -50 -55q22 -21 45 -41q38 -38 67 -91q38 -72 62 -174q3 -15 15.5 -27.5t24.5 -12.5
q5 0 22 13t21 13q16 0 26 -15t10 -28q0 -59 -71 -89q-48 -19 -97 -19q-81 0 -124 32q-38 27 -64 91l-50 144q-10 21 -23 27q-33 -13 -54 -92q-30 -118 -38 -135q10 -10 23 -10q32 0 53 19t35 19q11 0 17.5 -11t6.5 -19q0 -64 -151 -64q-137 13 -236 -3q-43 0 -43 20
q0 2 16 23q21 24 33 55q33 84 68 249q36 173 62 245q-7 7 -29 7q-29 0 -49 -19t-30 -19q-11 0 -18.5 9t-7.5 19q0 34 51 54q40 14 83 14q5 0 57.5 -3t57.5 -3h97q3 0 22.5 4t26.5 4q35 0 35 -23q0 -1 -18 -20q-22 -23 -35 -46q-25 -43 -48 -173q146 153 180 182
q106 91 195 91q51 0 85.5 -31t34.5 -78z" />
    <glyph glyph-name="L" unicode="L" horiz-adv-x="723" 
d="M720 617q0 -43 -23 -114q-26 -82 -56 -90q-31 9 -31 30q0 4 13 27t13 45q0 29 -23.5 48t-54.5 19q-58 0 -98 -60q-34 -51 -39 -115l-1 -1q-48 -228 -105 -344l21 -11h136q93 0 136 42q17 24 35 49v24q0 17 -18.5 32t-36.5 15q-15 0 -28 -9.5t-13 -25.5q0 -7 19 -28v-5
q0 -7 -10 -13.5t-17 -6.5q-21 0 -35 21q-12 18 -13 39q11 81 105 81q48 0 75.5 -32.5t27.5 -82.5q0 -77 -78 -120q-64 -37 -147 -37h-102q-38 0 -114 7.5t-112 7.5q-58 0 -102 -13q-10 -3 -18 4.5t-8 18.5q29 42 45 65q47 68 55 92q28 112 55 224q32 125 89 180
q75 72 227 68q62 -2 104 -13q28 -8 46 -21q15 -11 16 -11q13 0 16 23l24 17q8 -1 16.5 -9.5t8.5 -16.5z" />
    <glyph glyph-name="M" unicode="M" horiz-adv-x="1055" 
d="M1081 642q0 3 -19 -21q-22 -28 -36 -85q-26 -105 -57 -260q-17 -88 -55 -211q9 -10 22 -10q24 0 45.5 15.5t31.5 15.5q26 0 26 -23q0 -29 -39 -48q-29 -13 -51 -13h-336q0 2 -2 7t-2 10q0 -2 22 30q27 38 46 80q26 59 36 119q5 36 33 147q27 106 27 108v14
q-89 -55 -169 -193q-27 -47 -108 -223q-50 -107 -76 -107q-42 0 -49 141q-11 202 -27 260q-38 140 -154 140q-44 0 -78 -25q-37 -27 -37 -68q0 -23 18 -43t43 -20q36 0 68 40t54 40q23 0 23 -21q0 -4 -13 -31q-17 -32 -20 -42q-13 -32 -38 -143q-21 -96 -55 -164
q28 -10 61 -10q25 0 42 15t21 15q25 0 25 -30q0 -50 -90 -50h-141q-32 0 -32 17q0 1 37 49.5t45 69.5q11 28 51 189l-10 10q-13 -7 -30 -7q-47 0 -81 39q-31 36 -31 79q0 110 111 173q86 48 180 48q109 0 180 -56q82 -65 99 -192q96 136 194 197.5t211 61.5q21 0 49 -8
q35 -10 35 -26z" />
    <glyph glyph-name="N" unicode="N" horiz-adv-x="745" 
d="M829 632q-2 -5 -30.5 -14t-39.5 -40q-34 -95 -72.5 -270.5t-50.5 -293.5q-11 -8 -36 -8q-121 0 -173 138q-36 128 -73 257q-51 138 -171 138q-47 0 -79 -24q-38 -28 -38 -77q0 -59 56 -59q32 0 72 42t57 42q25 0 25 -21q0 1 -17 -37q-20 -43 -31 -78q-24 -76 -34 -147
q-22 -71 -40 -114q30 -11 73 -11q27 0 37.5 11.5t19.5 11.5q26 0 26 -30q0 -46 -78 -46q-5 0 -50.5 3.5t-50.5 3.5q-4 0 -36.5 -3.5t-37.5 -3.5q-28 0 -28 26l24 21q30 26 54 75q36 71 59 188l-4 22q-5 0 -19.5 -2t-18.5 -2q-58 0 -90 44q-25 36 -25 81q0 111 104 173
q81 48 173 48q140 0 219.5 -80.5t123.5 -262.5q22 50 45.5 153t38.5 136q25 58 68 58q23 0 36 -15t12 -33z" />
    <glyph glyph-name="O" unicode="O" horiz-adv-x="755" 
d="M728 332q0 -179 -131 -272q-108 -77 -269 -77q-143 0 -224 75q-85 77 -85 221q0 185 146 298q129 100 304 100q86 0 151 -35q89 -46 89 -139q0 -42 -23 -73q-26 -35 -71 -35q-25 0 -49 15q-29 18 -29 46q0 12 9 21t16 9q11 0 20.5 -17t27.5 -17q42 0 42 48q0 78 -105 78
q-124 0 -203 -121q-66 -101 -66 -211q0 -73 37 -123q43 -56 118 -56q101 0 171 86q67 83 67 194q0 23 -3 46q-3 17 22 17q18 0 29 -31q9 -25 9 -47z" />
    <glyph glyph-name="P" unicode="P" horiz-adv-x="873" 
d="M831 416q0 -115 -86 -177q-72 -53 -178 -53q-127 0 -156 85q-10 -16 -28 -92q-19 -83 -36 -120q8 -10 48 -10q33 0 64.5 16.5t35.5 16.5q29 0 29 -27q0 -61 -140 -61l-160 7q-4 0 -83.5 -7.5t-84.5 -7.5q-28 0 -28 22q0 5 41 47t47 52q7 14 29 95q24 88 24 115
q0 13 -11 13q-5 0 -22.5 -3.5t-22.5 -3.5q-53 0 -84 38q-27 33 -27 77q0 131 175 187q107 35 236 35q418 0 418 -244zM587 399q0 100 -93 146q-68 33 -166 33q-80 0 -153 -23q-117 -37 -117 -119q0 -24 16.5 -42.5t42.5 -18.5q27 0 61 43q48 60 76 80q59 43 146 43
q91 0 91 -35q0 -10 -18 -27q-23 -21 -35 -50q-20 -48 -24 -132q15 15 31 15q14 0 22 -22.5t33 -22.5q44 0 69 52q18 39 18 80z" />
    <glyph glyph-name="Q" unicode="Q" horiz-adv-x="774" 
d="M722 -15q0 -34 -32 -57q-27 -21 -55 -21q-55 0 -128 118q-110 -33 -177 -33q-131 0 -215 68q-94 76 -94 215q0 180 138 289q123 97 293 97q86 0 150 -28q96 -43 96 -138q0 -50 -30 -80q41 -25 41 -98q0 -74 -30 -132q-18 -37 -55 -75q-29 -30 -29 -39q0 -19 26.5 -40
t43.5 -21q4 0 15 4t16 4q26 0 26 -33zM654 328q0 6 -3 22t-3 24q0 12 5 20q-17 -2 -31 -6.5t-17 -4.5q-24 0 -47 15q-26 17 -26 45q0 33 26 33q13 0 18.5 -14.5t23.5 -14.5q35 0 35 42q0 37 -34 57q-27 15 -64 15q-116 0 -194 -119q-66 -100 -66 -201q0 -66 37 -111
q42 -49 110 -49q13 0 56 12q-15 58 -74 58q-5 0 -14 -2t-14 -2q-20 0 -20 24q0 39 70 39q34 0 63 -16q26 -14 72 -54q41 28 67 87q24 53 24 101z" />
    <glyph glyph-name="R" unicode="R" horiz-adv-x="879" 
d="M840 60q0 -37 -68 -54q-38 -9 -76 -9q-229 0 -238 227q-1 11 -31.5 34.5t-30.5 38.5q0 22 26 22q5 0 37 -5.5t37 -5.5q43 0 67 29q22 25 22 65q0 106 -128 152q-77 27 -175 27q-71 0 -133 -19q-108 -32 -108 -108q0 -20 19 -36q16 -14 31 -14q23 0 67 37q61 53 89 70
q62 37 131 37q26 0 56 -9q40 -12 40 -32q0 -10 -17 -23q-23 -18 -36.5 -46t-33.5 -132q-5 -31 -69 -247q6 -6 19 -6q19 0 38.5 18.5t33.5 18.5q12 0 28 -16q-1 -77 -120 -77l-152 11q-5 0 -59.5 -5.5t-58.5 -5.5q-28 0 -28 22q0 4 25.5 32.5t32.5 40.5q23 44 42 123l30 142
q1 6 -8 6q-4 0 -23.5 -5.5t-24.5 -5.5q-49 0 -76 31q-24 27 -24 69q0 123 168 174q98 29 230 29q143 0 253 -32q190 -57 190 -196q0 -58 -41 -105q-46 -52 -123 -68q45 -30 67 -91t43 -77q17 0 34 -1q26 -1 26 -25z" />
    <glyph glyph-name="S" unicode="S" horiz-adv-x="693" 
d="M668 625q4 -15 -21 -100.5t-38 -90.5l-39 19l-2 10q13 21 13 52q0 39 -36 61q-31 19 -72 19q-34 0 -61 -16q-32 -19 -32 -51q0 -34 66 -75q100 -62 122 -82q66 -60 66 -142q0 -134 -120 -194q-91 -46 -241 -46q-103 0 -176 35q-96 45 -96 137q0 49 34 85.5t83 36.5
q33 0 61.5 -21.5t28.5 -53.5q0 -16 -13 -34t-28 -18q-22 0 -22 19q0 10 6 26q-8 24 -36 24q-24 0 -41 -17t-17 -42q0 -59 61 -89q46 -23 112 -23q55 0 97 25q50 30 50 82q0 53 -65 99q-61 39 -121 79q-65 52 -65 119q0 103 98 156q78 43 191 44q53 0 102 -12q35 -9 62 -24
q24 -12 19 -12q6 3 21 24q11 16 26 17q6 -2 19 -9z" />
    <glyph glyph-name="T" unicode="T" horiz-adv-x="696" 
d="M796 642q-3 -17 -20 -40q-20 -26 -28 -47q-14 -38 -14 -101q0 -23 -27 -23q-46 0 -59 32q-7 32 -15 64l9 63q0 8 -22 8q-67 0 -75 -14q-19 -32 -63 -245q-48 -235 -64 -281l3 -8l32 -5q28 0 58 16t39 16q27 0 27 -26q0 -32 -44 -47q-31 -12 -71 -12q-28 0 -86.5 7
t-87.5 7q-14 0 -26 -1l-139 -12q-7 0 -16 7t-10 14q12 22 54 68q36 40 49 78q24 69 50 216.5t51 217.5q-1 8 -21 10q-64 7 -130 -24q-75 -35 -75 -97q0 -17 11.5 -31t28.5 -14l24 9q12 17 21 17q8 0 14 -9t6 -17q0 -24 -21.5 -39.5t-46.5 -15.5q-40 0 -66.5 29t-26.5 69
q0 101 105 146q74 31 190 31q39 0 115 -5.5t114 -5.5q141 0 231 14z" />
    <glyph glyph-name="U" unicode="U" horiz-adv-x="788" 
d="M767 568q-31 -57 -69 -244q-48 -232 -57 -266q6 -12 22 -14q-1 0 18 0q30 0 71 26q6 4 7 4q23 0 23 -23q0 -52 -95 -52h-277q-5 0 -12 6.5t-7 10.5t11.5 23t0.5 34q-72 -51 -109 -66.5t-89 -15.5q-78 0 -123 47t-45 125q0 105 42 224q38 106 100 199q-6 19 -26 19
q-35 0 -64 -29q-5 -5 -17 -20l-6 -7q-29 0 -29 27q0 43 55 61q37 12 80 10l150 -7q5 -1 47 2t46 3q10 0 17 -7t7 -10l-1 -1l-5 -10q-41 -74 -75 -149q-84 -184 -84 -278q0 -27 34 -47q26 -17 42 -17q67 0 106 109q9 38 28 117q14 61 29 122t46 119q28 54 161 54
q83 0 102 -23q-15 -12 -30 -25t-25 -31z" />
    <glyph glyph-name="V" unicode="V" horiz-adv-x="764" 
d="M760 526q0 -72 -75 -154q-74 -70 -148 -139q-62 -61 -149 -155q-71 -78 -79 -83q-38 0 -40 4q-44 114 -129 342q-20 58 -20 111q0 42 30 138q-11 12 -37 12q-30 0 -45 -17q-6 -5 -19 -31q-9 -17 -21 -17q-26 0 -26 29q0 84 179 84q4 0 53 -4.5t54 -4.5t51.5 5.5t50.5 5.5
q10 0 19 -7.5t9 -14.5l-14 -17q-17 -19 -28 -44q-14 -36 -14 -80q0 -72 26 -131q41 -90 52 -130q1 0 3.5 -2t8.5 -2q4 0 64 59q74 72 97 92q92 79 92 147q0 36 -27 63.5t-64 27.5q-21 0 -34 -15.5t-13 -39.5q0 -29 24 -29q8 0 26 8q13 -8 13 -21q0 -16 -18 -27.5t-32 -11.5
q-32 0 -54 30q-19 26 -19 54q0 47 42 76q37 26 83 26q62 0 98 -45q30 -39 30 -92z" />
    <glyph glyph-name="W" unicode="W" horiz-adv-x="1028" 
d="M1042 537q0 -60 -146 -265q-135 -190 -222 -271q-16 -16 -28 -16q-4 0 -9 2t-6 2q-12 0 -53 139l-50 170q-61 -67 -122 -135q-73 -85 -104 -146l-43 -23l-34 17q-95 287 -95 412q0 77 45 173l-36 8q-35 0 -60.5 -25.5t-34.5 -25.5q-23 -1 -25 23q32 67 108 77
q32 4 151 -8q100 -10 155 10q18 2 26 -16q-37 -34 -60.5 -88t-23.5 -104q0 -43 35 -184q63 65 122 167q50 91 100 181q10 18 35 19q18 -3 25 -13q40 -123 115 -375q184 222 184 315q0 24 -21.5 39.5t-52.5 15.5q-14 0 -28.5 -10.5t-15.5 -23.5q2 -9 5 -17l14 -8l19 7l14 -18
q-1 -13 -16.5 -24.5t-29.5 -11.5q-26 0 -46 21.5t-20 47.5q0 38 30 61.5t69 23.5q55 0 92.5 -34t37.5 -89z" />
    <glyph glyph-name="X" unicode="X" horiz-adv-x="838" 
d="M798 616q-43 -36 -140 -124q-107 -102 -107 -138q0 -67 35 -153q44 -105 103 -105q18 0 35 13.5t17 31.5q0 20 -30 30l-33 -15q-11 2 -11 19q0 16 15.5 28t32.5 12q34 0 57.5 -26.5t23.5 -62.5q0 -72 -71 -105q-54 -24 -138 -24q-152 0 -214 108q-12 23 -24 71.5
t-23 70.5q-5 9 -14 9q-87 -83 -178 -187q4 -1 42 -7q21 -3 35 -3q18 0 40 12t31 12q26 0 26 -26q0 -22 -31.5 -40t-54.5 -14q-55 9 -101 7q-6 0 -87 -7q-10 -1 -20 8t-10 20q0 4 149.5 139.5t149.5 169.5q0 56 -33 129q-39 86 -90 86q-16 0 -29 -8q-16 -10 -16 -27
q0 -13 9 -19.5t18 -12.5q3 -2 3 -5q0 -5 -11 -14.5t-16 -9.5q-26 0 -43.5 22t-17.5 49q0 68 69 105q56 29 134 29q131 0 176 -69q11 -17 33.5 -70t47.5 -88l151 155q-6 1 -24 7q-12 4 -18 4q-24 0 -43 -15l-7 -5q-9 -7 -16 -8l-24 23q1 26 28 40q23 13 53 13q97 0 93 0
q72 -4 72 -22q0 -1 -4 -13z" />
    <glyph glyph-name="Y" unicode="Y" horiz-adv-x="721" 
d="M754 626q0 4 -89 -101q-123 -144 -172 -200q-174 -196 -250 -256q19 -5 40 -11t76 -6q31 0 46.5 20.5t21.5 20.5q14 0 23.5 -13t9.5 -28q0 -34 -42 -49q-25 -10 -56 -10q-4 0 -80.5 5.5t-80.5 5.5q-5 0 -44 -3.5t-43 -3.5q-26 0 -26 24q0 12 85 68t85 73q0 4 -19.5 31
t-23.5 37q-21 44 -36 133q-16 94 -27 121q-20 53 -64 53q-36 0 -36 -25q0 -28 25 -28q5 0 11 2q0 -2 2 -6.5t2 -10.5q0 -14 -12 -22.5t-26 -8.5q-27 0 -49 28q-19 24 -19 44q0 65 59 107q53 38 115 38q130 0 184 -65q47 -57 89 -240l207 229q-14 12 -74 13q-33 0 -48.5 -18
t-19.5 -18q-12 0 -21.5 11.5t-9.5 23.5q0 35 36 51q22 9 49 9l44 -5t64 -5q8 0 37 3q25 3 39 2q18 -1 18 -20z" />
    <glyph glyph-name="Z" unicode="Z" horiz-adv-x="804" 
d="M800 638l-98 -115q-101 -117 -112 -156q6 -7 15 -7q21 0 50.5 17t35.5 17q27 0 27 -26q0 -37 -80 -52q-41 -4 -82 -9q-39 -49 -164 -237q1 -6 50.5 -15t67.5 -9q208 0 208 97q0 41 -47 41q-36 0 -36 -20q0 -5 2 -13t2 -9v-17q-8 -8 -21 -8t-26 15t-13 24q0 41 33 65
q27 20 63 20q40 0 67.5 -29t27.5 -69q0 -94 -101 -129q-60 -20 -146 -17q-331 12 -366 11q-60 -7 -93 -7q-32 0 -32 13q0 4 4 7q96 90 228 286v14q-6 6 -9 6q-40 0 -69.5 -34t-39.5 -34q-13 0 -20.5 12t-7.5 26q0 47 89 66q50 8 99 17q7 5 70 95q66 94 91 120q-4 9 -23 9
q-104 0 -169 -39q-42 -24 -75 -72q-27 -39 -37 -39t-18 9t-8 19q0 18 51 100t65 82q5 0 19 -13t18 -13q-5 0 47 11t92 11l240 -11q5 0 51.5 5.5t51.5 5.5q28 0 28 -22z" />
    <glyph glyph-name="bracketleft" unicode="[" horiz-adv-x="432" 
d="M468 700q0 -7 -13 -18.5t-20 -11.5q-2 0 -35 -1q-28 -2 -59 0q-28 -53 -58 -161q-27 -94 -39 -164q-23 -99 -47 -197q-37 -148 -65 -185l12 -4q18 0 42 -3t34 -3t17 -10.5t7 -21.5q0 -24 -48 -24q10 0 -73 6q-51 4 -142 4q-7 0 -15 7.5t-8 14.5q0 10 27.5 48.5t32.5 52.5
q13 37 47 159q38 136 39 153q34 124 79 279q11 33 14 76q0 17 12 25.5t30 7.5q92 4 108 0q9 0 32 2t36 2q53 0 53 -33z" />
    <glyph glyph-name="backslash" unicode="\" horiz-adv-x="802" 
d="M737 70q0 -31 -22 -53.5t-54 -22.5h-508q-31 0 -53.5 22.5t-22.5 53.5v509q0 31 22.5 53t53.5 22h508q32 0 54 -22t22 -53v-509zM711 70v509q0 20 -14.5 34.5t-35.5 14.5h-508q-20 0 -35 -14.5t-15 -34.5v-509q0 -20 15 -34.5t35 -14.5h508q21 0 35.5 14.5t14.5 34.5z
M689 70q0 -28 -28 -28h-508q-28 0 -28 28v509q0 27 28 27h508q28 0 28 -27v-509zM628 389l-153 22l-68 138l-68 -138l-153 -22l110 -108l-26 -152l137 72l136 -72l-26 152z" />
    <glyph glyph-name="bracketright" unicode="]" horiz-adv-x="432" 
d="M-42 -71q0 7 13 18.5t20 11.5q2 0 35 2q28 1 59 0q28 52 58 160q27 94 39 165q23 98 47 197q37 148 66 184l-13 5q-18 0 -42 3t-34 3t-17 10.5t-7 20.5q0 24 48 24q-10 0 73 -6q51 -4 142 -4q7 0 15 -7.5t8 -14.5q0 -10 -26 -46q-29 -40 -34 -55q-12 -36 -47 -158
q-38 -137 -39 -154q-34 -123 -79 -279q-11 -32 -14 -76q0 -17 -12 -25t-30 -7q-92 -5 -108 -1q-9 0 -32 -2t-36 -2q-53 0 -53 33z" />
    <glyph glyph-name="asciicircum" unicode="^" horiz-adv-x="762" 
d="M235 696q-2 12 17 28q77 43 161 89q22 9 38 0q49 -39 114 -90q9 -8 9 -17q0 -10 -10.5 -17.5t-19.5 -3.5q-41 20 -132 56q-22 -6 -157 -56q-17 -6 -20 11z" />
    <glyph glyph-name="underscore" unicode="_" horiz-adv-x="538" 
d="M3 -95h535v-55h-535v55z" />
    <glyph glyph-name="grave" unicode="`" horiz-adv-x="543" 
d="M468 709q0 10 -17 19q-49 24 -140 67q-13 18 -43 18q-17 0 -30 -13t-13 -31q0 -31 43 -41q59 -8 171 -34q9 -3 19 1.5t10 13.5z" />
    <glyph glyph-name="a" unicode="a" horiz-adv-x="718" 
d="M755 413q0 -11 -16 -24q-20 -16 -22 -21q-39 -68 -50 -162l-2 -1q-9 -23 -19 -71q-11 -54 -18 -74l15 -9q20 0 40 14t30 14q11 0 19.5 -8.5t8.5 -19.5q0 -26 -32 -42q-26 -13 -56 -13q-23 0 -68.5 6t-68.5 6q-22 0 -92 -10q-9 -1 -17.5 4.5t-8.5 14.5l9 28l-7 4
q-92 -56 -164 -56q-80 0 -127 36q-53 39 -53 116q0 130 84.5 212t213.5 82q77 0 134 -54q77 56 185 56q82 0 82 -28zM463 291q0 57 -49 57q-53 0 -92 -72q-34 -62 -34 -119q0 -3 1.5 -10t1.5 -10l1 -1q3 -17 18 -28t32 -11q56 0 92 72q29 60 29 122z" />
    <glyph glyph-name="b" unicode="b" horiz-adv-x="726" 
d="M715 271q0 -139 -110 -214q-89 -62 -208 -62l-209 12q-74 4 -144 -12q-34 0 -34 22q0 3 27.5 40t32.5 53q22 70 44 194l70 288q-9 12 -21 12q-22 0 -44 -17.5t-32 -17.5q-31 0 -31 29q0 31 44 50q32 14 61 14q3 0 62 -4t64 -4q4 0 49.5 4t50.5 4q16 0 26 -23l-53 -258
q45 31 69 42q48 22 104 22q80 0 131 -48t51 -126zM486 278q0 62 -58 62q-76 0 -112 -130q-16 -76 -31 -152h36q71 0 123 88q42 73 42 132z" />
    <glyph glyph-name="c" unicode="c" horiz-adv-x="581" 
d="M580 398q0 -18 -30 -82q-31 -67 -45 -67q-23 0 -26 34q-4 56 -6 64q-13 34 -59 34q-63 0 -107 -77q-37 -63 -37 -115q0 -111 109 -111q42 0 81 20q24 11 54 35q23 19 29 19q24 0 22 -25q-5 -59 -101 -101q-83 -36 -163 -36q-283 0 -283 189q0 135 117 206q91 54 209 54
q76 0 130.5 -15.5t47.5 -15.5q3 0 15 7.5t18 7.5q25 0 25 -25z" />
    <glyph glyph-name="d" unicode="d" horiz-adv-x="736" 
d="M724 622l-139 -571q5 -6 17 -6q5 0 36 11.5t36 11.5q10 0 18.5 -8t8.5 -17q0 -52 -112 -52q-4 0 -66 5.5t-68 5.5q-4 0 -34.5 -4t-35.5 -4q-33 0 -33 6q0 1 3 10.5t3 17.5q0 12 -4 25q-24 -22 -79 -44t-85 -22q-83 0 -135 45.5t-52 124.5q0 123 87 205q82 78 196 78
q38 0 64 -8q30 -10 89 -42q19 65 61 199q-6 14 -28 14q-4 0 -36 -13.5t-37 -13.5q-12 0 -21.5 8.5t-9.5 20.5q0 29 50 43q31 9 60 9q5 0 64 -4t64 -4t44 4t43 4q12 0 22.5 -9t10.5 -19q0 -4 -2 -7zM418 289q0 20 -15 39t-37 19q-55 0 -93 -81q-29 -62 -29 -103q0 -64 56 -64
q54 0 90 78q28 62 28 112z" />
    <glyph glyph-name="e" unicode="e" horiz-adv-x="655" 
d="M640 289q0 -29 -277 -106q-76 -20 -76 -28q0 -31 41 -53q35 -18 69 -18q59 0 103 26t88 53q23 -5 23 -24q0 -64 -135 -110q-108 -38 -189 -38q-109 0 -177 42q-80 51 -80 153q0 134 117 203q96 55 241 55q84 0 132 -24q54 -29 87 -100q33 -8 33 -31zM416 348q0 42 -34 42
q-43 0 -77 -59q-30 -52 -30 -99q0 -15 11 -15h5q49 11 72 25q33 20 44 58q9 34 9 48z" />
    <glyph glyph-name="f" unicode="f" horiz-adv-x="428" 
d="M454 552q0 -27 -15 -49q-17 -26 -42 -26l-25 8l-16 25q1 6 8 17.5t7 19.5v7l-17 11q-27 0 -27 -37q0 -5 8 -47t10 -48l11 -5q14 0 32 13t27 13l15 -6l14 -26q-11 -34 -39 -44q-31 -6 -61 -13q-7 -16 -67 -303l9 -4q15 0 38.5 15.5t35.5 15.5q13 0 21.5 -10.5t8.5 -23.5
q0 -58 -141 -58q-32 0 -73.5 3.5l-41.5 3.5q-15 0 -45 -4.5t-44 -4.5q-29 0 -29 28q0 15 20 36q24 27 27 33q14 31 34 130l27 133l-16 11q-21 0 -40.5 -14t-27.5 -14q-10 0 -19 9t-9 20q0 33 43 47q19 7 68 12l9 5v37q0 82 54.5 134.5t137.5 52.5q48 0 87 -26q43 -30 43 -77
z" />
    <glyph glyph-name="g" unicode="g" horiz-adv-x="684" 
d="M712 419q0 -6 -26.5 -46t-27.5 -44q-7 -43 -25 -124l-28 -134q-18 -82 -47 -126q-41 -60 -119 -81q-47 -13 -175 -13q-96 0 -144 9q-106 20 -106 82q0 19 15 30t28 11q-3 0 14 -19q19 -22 47 -36q39 -19 92 -19q59 0 103 27q61 39 58 119q-36 -19 -73 -37
q-51 -24 -104 -24q-82 0 -129 52q-43 47 -43 123q0 120 81.5 199.5t199.5 79.5q89 0 147 -54q58 58 186 58q76 0 76 -33zM429 279q0 72 -53 72q-55 0 -93 -85q-29 -65 -29 -111q0 -23 16.5 -37.5t39.5 -14.5q55 0 91 72q28 57 28 104z" />
    <glyph glyph-name="h" unicode="h" horiz-adv-x="716" 
d="M704 284q0 -55 -27 -111l-56 -100l-4 -7l7 -3q9 0 23 11t23 11t19 -9.5t10 -18.5q0 -55 -99 -55q-23 0 -57 3t-39 3q-18 0 -55.5 -4.5t-56.5 -4.5q-31 0 -36 24q-37 -22 -82 -22q-13 0 -45 2.5t-52 2.5t-58.5 -4.5t-57.5 -4.5q-33 0 -32 26q34 52 37 58q20 33 26 63
q27 109 70 326q1 11 17 65q15 51 15 57l-16 5q-19 0 -39.5 -11t-30.5 -11q-29 0 -29 33q29 52 99 49l137 -8q5 0 29.5 2.5t39.5 2.5q49 0 44 -30q-17 -93 -50 -235l6 -5q94 60 160 60q72 0 116 -44t44 -116zM481 277q0 54 -46 54q-58 0 -96 -108q-24 -79 -49 -159l7 -5
q6 0 19 10t22 10q17 0 24.5 -15t8.5 -15q10 0 51 73q36 66 44 88q15 42 15 67z" />
    <glyph glyph-name="i" unicode="i" horiz-adv-x="398" 
d="M406 559q0 -7 -12 -27q-28 -48 -111 -48q-114 0 -114 92q0 36 44 58q37 18 77 18q38 0 70 -14q40 -18 44 -51l2 -1v-27zM398 54q0 -54 -131 -54q-27 0 -60 2.5l-33 2.5q-44 0 -128 -10q-9 -1 -16.5 5t-7.5 14q0 3 24.5 47t29.5 56q14 46 30 124q21 100 27 125
q3 13 -12 13q-17 0 -34 -14.5t-29 -14.5q-28 0 -28 28q0 59 146 59q26 0 59 -2q18 -1 35 -2q15 -1 43 2t42 3q26 0 33 -20q-33 -51 -53 -150l-32 -160q-1 -3 -8.5 -24t-7.5 -22q0 -9 15 -9q22 0 39.5 16.5t28.5 16.5q28 0 28 -32z" />
    <glyph glyph-name="j" unicode="j" horiz-adv-x="346" 
d="M402 576q0 -47 -43 -71q-31 -17 -69 -17q-41 0 -72 17q-40 23 -40 66q0 42 40 65q31 18 74 18q38 0 71 -18q39 -22 39 -60zM387 416q0 1 -18.5 -31t-25.5 -62q-31 -132 -61 -265q-18 -69 -55 -136t-155 -67q-38 0 -68 10q-49 16 -49 54q0 13 8 24.5t21 11.5q4 0 16 -11.5
t16 -11.5q19 0 54 148.5t70 296.5q-12 7 -19 7q-14 0 -37 -13.5t-21 -13.5q-10 0 -18.5 8t-8.5 17q0 29 39 44q30 12 65 12q99 -14 213 0q34 0 34 -22z" />
    <glyph glyph-name="k" unicode="k" horiz-adv-x="718" 
d="M705 323q0 -58 -57 -92q-38 -22 -115 -39q27 -11 57 -62q12 -37 14 -40q7 -14 20 -14q4 0 17.5 12t19.5 12q21 0 21 -27q0 -44 -56 -68q-40 -17 -77 -17q-70 0 -115 34q-55 43 -59 130q0 5 -20.5 29.5t-20.5 31.5q0 26 29 26q5 0 28.5 -4t27.5 -4q26 0 48 15.5t22 42.5
q0 21 -16 33.5t-38 12.5q-88 0 -121 -157q-13 -61 -37 -122q5 -7 15 -7q5 0 23.5 13.5t22.5 13.5q27 0 27 -28q0 -29 -38 -45q-28 -11 -52 -11q-5 0 -64 5.5t-64 5.5q-4 0 -47.5 -4t-48.5 -4q-29 0 -29 22q0 4 17 31q20 32 24 43q32 77 80 308q6 33 27 112q18 68 18 73
q0 14 -7 17h-12q-20 0 -42 -17.5t-30 -17.5q-25 0 -25 29q0 31 40 48q28 12 57 12l131 -11q4 0 42 3.5t43 3.5q32 0 31 -25l-51 -245q3 0 64 31q53 27 108 27q56 0 103 -23q65 -32 65 -93z" />
    <glyph glyph-name="l" unicode="l" horiz-adv-x="392" 
d="M381 627q0 -40 -100 -452q-14 -42 -30 -115l15 -5q27 0 41.5 16t23.5 16q11 0 19.5 -8.5t8.5 -18.5q0 -32 -39 -48q-31 -12 -67 -10l-132 8q-16 0 -47.5 -6t-46.5 -6q-26 0 -26 25q0 15 21 45.5t24 40.5q27 88 57 238q38 186 51 240q2 4 -7 7.5t-14 3.5q-24 0 -44.5 -15
t-29.5 -15q-10 0 -17 8.5t-7 18.5q0 55 107 55q16 0 40 -1.5t29 -1.5h59l76 9q13 1 24 -7.5t11 -21.5z" />
    <glyph glyph-name="m" unicode="m" horiz-adv-x="1094" 
d="M957 0q-20 0 -59.5 3.5t-59.5 3.5q-18 0 -35 -2q-38 -5 -37 -5q-21 0 -21 13q0 18 52 126t52 174q0 17 -16 30t-33 13q-41 0 -64 -31q-15 -20 -28.5 -66.5t-40.5 -103.5q-24 -49 -48 -99q6 -4 16 -4q9 0 26 11t27 11q14 0 14 -26q0 -24 -42 -37q-30 -9 -62 -9
q-169 0 -128 -1q-96 2 -96 21q0 -3 54.5 106t54.5 165q0 41 -51 49q-49 7 -85 -51q-26 -42 -46 -122q-12 -50 -24 -99q-8 -25 7 -25q9 0 27.5 11t29.5 11q14 0 14 -23q0 -49 -221 -49h-53q-31 1 -36 1q-26 0 -26 19q0 10 13 28q39 54 67 165l40 180q-11 7 -23 7
q-15 0 -38 -17.5t-34 -17.5l-21 14q3 70 97 70q257 0 253 -28l-5 -23q101 60 212 60q53 0 130 -72q56 38 89 53q49 23 101 23q76 0 123 -38q51 -42 51 -117q0 -52 -31 -122q-26 -58 -53 -116l10 -1q11 0 31.5 8t31.5 8q10 0 10 -17q0 -62 -116 -62z" />
    <glyph glyph-name="n" unicode="n" horiz-adv-x="724" 
d="M696 280q0 -70 -37 -131q-16 -22 -32 -45q-23 -33 -23 -46q0 -14 10 -14q6 0 25.5 14t29.5 14q22 0 22 -28q0 -20 -24.5 -34.5t-45.5 -14.5q-24 0 -60 3q-49 5 -59 6h-47q-11 0 -33.5 -3.5t-34.5 -3.5q-32 0 -32 18q0 5 3 13l40 60q80 121 80 186q0 23 -18 40.5t-41 17.5
q-36 0 -67 -34.5t-36 -71.5q-8 -28 -21 -81q-5 -23 -11 -46q-7 -27 -18 -45q6 -7 14 -7t24.5 11.5t24.5 11.5q19 0 19 -25q0 -21 -24.5 -35t-47.5 -14h-35l-40 4q-32 3 -68 3h-29q-12 0 -33.5 -4.5t-32.5 -4.5q-30 0 -30 24q0 4 9 15q20 26 39 65q14 29 39 155q1 9 18 66
q13 49 13 60q0 7 -23 7q-13 0 -34.5 -15t-28.5 -15q-19 0 -19 36q0 44 100 44q20 0 59.5 -2.5t59.5 -2.5h32q12 1 40 4q25 3 39 3q5 0 12 -7t7 -12q0 -3 -2.5 -9.5t-2.5 -9.5q0 -4 3 -7q34 17 69 33q41 19 73 19h31q49 0 95.5 -38.5t55.5 -86.5q4 -19 4 -40z" />
    <glyph glyph-name="o" unicode="o" horiz-adv-x="615" 
d="M622 221q0 -63 -43 -117q-68 -82 -201 -105q-35 -6 -51 -6q-130 0 -198 32q-98 45 -98 160q0 37 14 77q25 71 86 115q84 62 204 62q28 0 55 -1q11 -2 33 -5q41 -5 59 -11q34 -10 50 -32q9 -11 9 -14q0 -5 -4.5 -9t-4.5 -9q3 -3 12 -9q29 -20 38 -28q21 -18 28 -35
q12 -30 12 -65zM466 268q-4 0 -14 -4.5t-17 -4.5q-27 0 -27 33q0 52 84 68q-12 8 -54 8q-65 0 -115.5 -60t-50.5 -125v-30q0 -10 5 -26q21 -71 100 -71q44 0 78 25t49 66q13 37 13 62q0 11 -2 19q-3 14 -18.5 27t-30.5 13z" />
    <glyph glyph-name="p" unicode="p" horiz-adv-x="679" 
d="M691 259q0 -100 -81.5 -181.5t-179.5 -81.5q-52 0 -83 14q-20 9 -70 48q-36 -118 -36 -159l25 -7q21 0 43 17t30 18l20 -30q0 -53 -116 -53q-30 0 -79 4t-58 4q-12 0 -35.5 -5.5t-35.5 -5.5q-23 0 -22 25v4q18 21 58 232q45 242 53 268l-19 6q-32 0 -67 -33
q-11 0 -18.5 11.5t-7.5 22.5q0 57 225 57q22 0 52.5 -1t34.5 -1q12 0 15 -16q3 -13 0 -26l4 -9q80 62 165 62q183 0 183 -184zM467 286q0 21 -17.5 41.5t-38.5 20.5q-51 0 -85 -70q-29 -57 -29 -114q0 -65 52 -65t88 70q30 60 30 117z" />
    <glyph glyph-name="q" unicode="q" horiz-adv-x="673" 
d="M736 405q0 -4 -30 -42t-32 -46q-34 -115 -65 -242q-25 -104 -49 -174q10 -11 27 -11q28 0 47.5 19.5t28.5 19.5q30 0 30 -29q0 -33 -55 -51q-38 -13 -72 -13l-144 12q-5 0 -38.5 -4t-38.5 -4q-27 0 -27 23q0 6 55 170l-3 16q-18 -6 -77 -34q-32 -15 -90 -15
q-82 0 -129.5 44t-47.5 123q0 123 86 202q83 75 200 75q55 0 93 -16q24 -10 44 -30q17 -16 21 -16q-2 0 17 15.5t49 25.5q43 14 102 14q98 0 98 -32zM439 283q0 64 -53 64q-52 0 -93 -78q-33 -63 -33 -107q0 -26 11 -44q15 -25 45 -25q50 0 90 78q33 65 33 112z" />
    <glyph glyph-name="r" unicode="r" horiz-adv-x="532" 
d="M543 298q0 -36 -38.5 -67.5t-75.5 -31.5q-34 0 -61 22t-27 55q0 11 6 25t16 14q5 0 17.5 -4t19.5 -4q50 0 50 31q0 19 -17 32.5t-36 13.5q-30 0 -58.5 -23.5t-34.5 -53.5q-5 -20 -38 -130q-28 -89 -28 -122l62 -7q20 0 45 19.5t38 19.5q14 0 14 -29q0 -64 -99 -64
q-48 0 -145.5 2t-146.5 2q-17 0 -17 17q0 -6 56 150t58 210l-12 6q-22 0 -44 -12t-26 -12q-25 0 -25 29q0 47 100 47q26 0 66 -3t48 -3q32 0 95 6t95 6q143 0 143 -141z" />
    <glyph glyph-name="s" unicode="s" horiz-adv-x="514" 
d="M541 405q0 -18 -15 -69q-21 -69 -51 -80q39 -53 39 -93q0 -104 -110 -146q-69 -27 -171 -27q-222 0 -222 117q0 35 23.5 56.5t54.5 21.5q20 0 33.5 -16t13.5 -31q0 -25 -21.5 -27.5t-21.5 -19.5q0 -24 50 -36q29 -7 53 -7q30 0 54 12q30 15 30 41q0 22 -56 47
q-83 37 -103 51q-56 38 -56 93q0 84 101 126q69 28 141 28q57 0 115.5 -23.5t52.5 -23.5q10 0 17.5 16t21.5 16q27 0 27 -26zM455 281q-9 44 -56 79q-41 32 -72 32q-19 0 -43 -17v-26q24 -19 81 -39q45 -14 90 -29z" />
    <glyph glyph-name="t" unicode="t" horiz-adv-x="408" 
d="M427 413q0 -36 -98 -51q-6 -14 -32 -120t-26 -118q0 -22 20 -22t50 25t43 25q20 0 20 -25q0 -43 -95 -93q-87 -45 -135 -45h-45q-95 0 -95 85q0 42 34 143t34 150l-6 7l-33 -19q-8 -19 -26 -19q-13 0 -22.5 8.5t-9.5 20.5q0 32 27 48q17 10 53 16q32 5 36 11q2 2 20 71
t21 82l-15 4q-13 0 -32 -18t-31 -18q-11 0 -19 9.5t-8 21.5q0 28 31 46q27 14 58 14q4 0 47 1.5t76 1.5q123 0 148 -20l1 -8q0 -7 -22.5 -42t-32 -73t-18.5 -76l11 -8q28 17 47 17q24 0 24 -32z" />
    <glyph glyph-name="u" unicode="u" horiz-adv-x="695" 
d="M580 62l19 -5q15 0 37.5 15t33.5 15q26 0 26 -21q0 -66 -114 -66q-26 0 -69 4t-53 4q-13 0 -39 -4.5t-39 -4.5q-33 0 -33 26q0 11 7 29l-2 1q-65 -36 -89 -45q-42 -15 -100 -15q-141 0 -141 142q0 55 31 126q10 22 61 117l-13 5q-13 0 -35.5 -17.5t-32.5 -17.5
q-12 0 -12 26q0 60 106 60q18 0 47.5 -2t36.5 -2q21 0 62 3t61 3q27 0 27 -20q0 -11 -28 -59q-36 -64 -51 -99q-27 -63 -27 -109q0 -49 38 -49q66 0 91 89q21 82 43 165q38 89 135 89h93q15 0 29.5 -8t14.5 -22q0 -10 -16 -22l-24 -18q-25 -26 -81 -313z" />
    <glyph glyph-name="v" unicode="v" horiz-adv-x="559" 
d="M610 354q0 -40 -44.5 -101t-96.5 -95q-14 -9 -116 -93q-89 -72 -100 -72q-40 0 -92 138q-46 123 -46 164q0 23 15 85q-6 7 -11 7q-9 0 -29 -16t-24 -16q-9 0 -19 10t-10 20q0 52 99 52q4 0 58 -3.5t59 -3.5q4 0 35.5 1.5t36.5 1.5q18 0 22 -1q9 -4 9 -20q0 -6 -7.5 -27
t-7.5 -49q0 -41 17.5 -82.5t35.5 -81.5q60 34 107 82q54 57 54 101q0 43 -37 43q-32 0 -32 -19q0 -6 3.5 -18.5t3.5 -17.5q0 -15 -21 -15q-19 0 -32 21q-9 16 -9 30q0 34 33 52q25 14 52 14q43 0 70 -28q24 -26 24 -63z" />
    <glyph glyph-name="w" unicode="w" horiz-adv-x="793" 
d="M828 362q0 -62 -67 -143q-60 -65 -172 -203q-20 -29 -36 -29q-8 0 -12 1q-11 2 -23 25l-16 34q-21 33 -59 101q-5 13 -11 26.5t-17 17.5l-2 1q-6 0 -54 -51q-25 -25 -76 -77q-27 -29 -40 -51q-15 -27 -36 -27q-25 0 -32 34q-5 30 -25 73q-26 57 -31 71q-30 83 -30 148
q0 10 4 30.5t4 31.5v6q-6 5 -13 5q-11 0 -28.5 -18.5t-27.5 -18.5q-21 0 -21 30t36 45q27 12 62 12q26 0 76.5 -3.5t76.5 -3.5q10 0 29 3t29 3q22 0 22 -14q0 -7 -14.5 -35.5t-14.5 -47.5v-28q0 -14 6 -35q8 -31 8 -33q7 -34 15 -34q3 0 6 1q12 4 49 56q29 40 44 67
q23 40 39 79q12 28 38 28q21 0 37 -35l22 -52q31 -53 60 -110q6 -10 15 -31q6 -19 7 -19q12 0 51 44q32 35 47 57q26 38 26 66q0 15 -9 29.5t-24 14.5q-25 0 -25 -33q0 -4 1.5 -10t1.5 -9q0 -9 -13 -9q-20 0 -33 14t-13 33q0 27 26 44q23 15 50 15q38 0 62.5 -24.5
t24.5 -61.5z" />
    <glyph glyph-name="x" unicode="x" horiz-adv-x="647" 
d="M668 411q-16 -10 -99 -90q-95 -92 -95 -114q0 -26 29 -75q31 -53 57 -53q19 0 28 11q1 2 16 31h17q17 -16 17 -35q0 -53 -70 -76q-42 -13 -92 -13q-88 0 -143 43q-36 29 -60 81q-21 43 -25 43q-9 0 -61 -44q-48 -41 -64 -59q14 -10 37 -10q21 0 41 14t21 14
q9 0 17.5 -8.5t8.5 -15.5q0 -51 -82 -51q-5 0 -61.5 -1t-61.5 -1q-33 0 -33 24q0 18 109 98.5t109 106.5q0 27 -26 75q-29 53 -58 53q-13 0 -30.5 -11t-17.5 -26q0 -7 6.5 -14t14.5 -7q5 0 11.5 4t12.5 4q9 -9 9 -22q0 -29 -39 -29q-29 0 -44 22q-14 19 -14 48q0 64 65 92
q43 17 104 17q79 0 125 -29q58 -37 102 -138q18 13 51 51q42 48 56 62q-8 14 -26 14q-34 0 -49 -31q-10 -2 -21 11q-9 10 -9 16q0 26 36 39q23 8 45 8q-4 0 34.5 -3.5t101.5 -4.5v-21z" />
    <glyph glyph-name="y" unicode="y" horiz-adv-x="656" 
d="M717 411q0 -6 -39 -56q-49 -61 -54 -69q-16 -23 -105 -184q-67 -120 -125 -175q-81 -79 -184 -79q-51 0 -94 26q-54 31 -54 88q0 37 28 61q24 20 54 20q29 0 49.5 -17.5t20.5 -42.5q0 -13 -18 -29q-5 4 -24 28q-8 11 -25 11q-16 0 -27.5 -11t-11.5 -24q0 -31 39 -50
q28 -13 53 -13q37 0 79 13q56 17 56 44q0 5 -15 29q-18 30 -23 40q-44 91 -77 250q-7 33 -27 57q-24 27 -53 27q-22 0 -36.5 -10.5t-14.5 -28.5q0 -27 25 -27q5 0 14.5 4t13.5 4q9 -8 9 -20q0 -35 -41 -35q-34 0 -53 29q-15 23 -15 51q0 67 63 98q44 22 104 22
q123 0 181 -68q48 -57 92 -221q21 14 49 67q52 99 88 158q-10 10 -31 10q-24 0 -40 -12t-22 -12q-9 0 -16.5 12t-7.5 16q0 21 24 33q19 10 43 10q-9 0 28 -2t107 -2q13 -5 13 -20z" />
    <glyph glyph-name="z" unicode="z" horiz-adv-x="623" 
d="M585 411l-281 -347q3 -14 28 -17h38q153 0 153 65q0 12 -10 20.5t-18 8.5q-11 0 -16.5 -13.5t-2.5 -24.5q-10 -9 -16 -9q-15 0 -24 21q-7 14 -7 22q0 23 24 38q21 13 40 13q36 0 57 -25q19 -21 19 -49q0 -71 -75 -100q-45 -17 -110 -17q6 0 -65 4q-78 4 -157 6
q-44 -3 -98 -6h-55q-5 5 -5 13q0 7 284 362q-7 12 -14 14h-23q-58 0 -98 -34q-21 -17 -52 -62q-23 -33 -39 -33q-23 0 -23 23q0 16 28 85q30 75 46 75q5 0 16.5 -13.5t16.5 -13.5l54 11.5t61 11.5l199 -11q5 0 45.5 2t44.5 2q30 0 35 -22z" />
    <glyph glyph-name="braceleft" unicode="{" horiz-adv-x="552" 
d="M445 320q35 -24 35 -66q0 -31 -20 -54t-53 -26q-23 -2 -44 9q-4 -32 -27 -50t-52 -18t-50 17q-24 18 -29 50h-2q-43 -4 -70.5 20t-27.5 59q0 31 23 55q-29 24 -29 60q0 32 22.5 57t55.5 25q14 0 28 -5q5 30 29 48q21 16 49 16q65 0 78 -63q17 8 34 8q32 0 55 -25t23 -58
q0 -35 -28 -59zM455 386q-2 26 -20 41.5t-42 15.5q-19 0 -34 -10l-14 -10v20q-2 25 -20.5 41t-42.5 16q-59 0 -61 -75q-29 16 -47 14q-26 -2 -41.5 -20t-15.5 -42q0 -35 30 -53l11 -6q-36 -29 -34 -62q3 -31 25 -45t53 -11q6 0 20 -7q9 -31 21 -44q16 -19 46 -17
q25 2 42 21.5t15 45.5l-2 21q36 -30 61 -28q26 2 41.5 20t15.5 42q0 41 -38 57l-18 7q52 28 49 68zM434 385q1 -17 -9.5 -30t-27.5 -14q-17 -2 -30 9t-14 28q-2 17 9 30t28 14t30 -10t14 -27zM324 441q1 -17 -10 -30t-28 -14t-29.5 10t-14.5 28q-1 16 10 29t28 14
q17 2 29.5 -9t14.5 -28zM441 257q1 -17 -10 -30t-27 -14q-17 -2 -30 9t-14 28q-2 17 9 30t28 14q17 2 30 -9t14 -28zM219 381q1 -17 -9.5 -30t-27.5 -14q-17 -2 -30 9t-14 28q-2 17 9 30t28 14t30 -10t14 -27zM325 197q1 -17 -10 -29.5t-28 -14.5q-17 -1 -29.5 10t-14.5 28
q-1 17 10 29.5t28 14.5q17 1 29.5 -10t14.5 -28zM226 264q2 -17 -9 -30t-28 -14t-30 10t-14 28q-1 16 10 29t28 14q16 2 29 -9t14 -28zM293 257q-24 -2 -43 14t-21 41q-2 24 14 43t41 20q24 2 43 -14t21 -40q1 -25 -14.5 -43.5t-40.5 -20.5z" />
    <glyph glyph-name="bar" unicode="|" horiz-adv-x="626" 
d="M535 172q0 -19 -13 -32.5t-32 -13.5h-305q-19 0 -32.5 13.5t-13.5 32.5v305q0 19 13.5 32t32.5 13h305q19 0 32 -13t13 -32v-305zM520 172v305q0 30 -30 30h-305q-30 0 -30 -30v-305q0 -30 30 -30h305q30 0 30 30zM507 172q0 -17 -17 -17h-305q-17 0 -17 17v305
q0 17 17 17h305q17 0 17 -17v-305zM470 363l-92 13l-41 83l-41 -83l-92 -13l67 -65l-16 -91l82 43l82 -43l-16 91z" />
    <glyph glyph-name="braceright" unicode="}" horiz-adv-x="720" 
d="M618 343q59 -40 59 -111q0 -50 -33 -89t-89 -44q-39 -3 -73 15q-7 -54 -47 -85q-36 -28 -85 -28q-48 0 -83 28q-40 30 -48 84l-3 -1q-72 -7 -120 35q-43 39 -43 97q0 52 37 92q-48 39 -48 99q0 54 37.5 95.5t92.5 41.5q23 0 46 -8q10 51 49 80q35 27 82 27q46 0 82.5 -27
t47.5 -78q28 13 56 13q55 0 93 -41.5t38 -95.5q0 -59 -48 -99zM636 453q-4 42 -34 68.5t-70 26.5q-31 0 -57 -18l-22 -15l-2 32q-2 42 -34 70q-30 25 -69 25q-42 0 -70 -29q-31 -34 -33 -96q-48 27 -78 24q-44 -3 -69.5 -33.5t-25.5 -69.5q0 -58 50 -88l19 -11
q-61 -48 -57 -103q4 -51 44 -76q35 -22 85 -18q10 1 34 -10q16 -53 34 -75q28 -31 78 -27q42 3 70 35.5t24 75.5l-2 35q33 -28 45 -35q26 -14 56 -12q44 4 71 35q24 29 24 69q0 68 -64 94l-29 12q43 23 60 43q25 29 22 71zM601 450q2 -28 -16.5 -49.5t-46.5 -23.5t-49.5 16
t-23.5 47q-2 28 16.5 49t46.5 24q28 2 49.5 -16.5t23.5 -46.5zM417 544q2 -28 -16.5 -49.5t-46.5 -23.5t-49.5 16.5t-23.5 46.5t16 49.5t46 23.5q29 2 50 -16.5t24 -46.5zM612 237q2 -28 -16 -49.5t-46 -23.5t-49.5 16t-23.5 46q-3 29 15.5 50t46.5 24q28 2 49.5 -16.5
t23.5 -46.5zM242 444q3 -28 -15.5 -49.5t-46.5 -23.5q-28 -3 -49.5 15.5t-23.5 46.5t16 49.5t46 23.5t49.5 -16t23.5 -46zM418 138q3 -28 -15.5 -49.5t-46.5 -23.5t-49.5 16t-23.5 47q-2 28 16 49t46 24q28 2 49.5 -16.5t23.5 -46.5zM255 249q2 -28 -16.5 -49.5t-46.5 -23.5
t-49.5 16.5t-23.5 46.5t16 49.5t46 23.5q29 2 50 -16.5t24 -46.5zM366 238q-41 -3 -72 23.5t-35 67.5q-3 41 23.5 72t67.5 34t72 -23.5t34 -67.5q4 -41 -23 -72t-67 -34z" />
    <glyph glyph-name="asciitilde" unicode="~" horiz-adv-x="513" 
d="M161 747q-19 0 -53 -15.5t-50 -16.5q-7 6 -7 13q0 23 50 53q47 28 73 28q24 0 71.5 -15t72.5 -15q18 0 61 16.5t42 16.5q10 0 10 -9q0 -25 -44.5 -57t-71.5 -32q-26 0 -77 16.5t-77 16.5z" />
    <glyph glyph-name="Adieresis" unicode="&#xc4;" horiz-adv-x="762" 
d="M457 405q0 71 -39 118q-43 52 -118 52q-47 0 -95 -24q-63 -32 -63 -87q0 -21 17.5 -38t38.5 -17q33 0 76 52.5t58 52.5q7 0 15 -7.5t8 -17.5q0 -8 -52 -82q-56 -78 -63 -99q-4 -11 17 -11l26 2q31 0 45 -1t12 -1q77 0 97 17.5t20 90.5zM168 144q-20 -39 -47 -82
q4 -14 57 -14q23 0 43 12.5t26 12.5t16.5 -10t10.5 -16q0 -25 -24 -40.5t-51 -15.5q-8 0 -15 2q-37 9 -70 9q-8 0 -86 -7q-6 -1 -18 6t-12 12q0 9 38 47q80 80 115 185q-6 3 -15 3q-27 0 -53.5 -27.5t-36.5 -27.5q-9 0 -18.5 10.5t-9.5 18.5q0 51 48 67q43 9 88.5 18.5
t45.5 45.5q0 2 -24 9q-28 8 -31 9q-55 23 -55 87q0 98 103 151q83 43 192 43q134 0 215 -54q95 -64 95 -192q0 -116 -70 -346l15 -5q18 0 37 16.5t31 16.5q7 0 15 -9.5t8 -16.5q0 -32 -36 -50q-31 -14 -66 -12q1 0 -46 -2q-53 -2 -93 -2q-126 0 -126 20q0 30 36 112
q34 78 30 115l2 3h-1h-211q0 -1 -52 -102zM608 757q0 -28 -32 -44q-26 -14 -57 -14q-51 0 -51 35q0 28 40 45q29 12 54 12q19 0 32.5 -10t13.5 -24zM404 757q0 -28 -32 -44q-26 -14 -57 -14q-51 0 -51 35q0 28 40 45q29 12 54 12q19 0 32.5 -10t13.5 -24z" />
    <glyph glyph-name="Aring" unicode="&#xc5;" horiz-adv-x="762" 
d="M457 405q0 71 -39 118q-43 52 -118 52q-47 0 -95 -24q-63 -32 -63 -87q0 -21 17.5 -38t38.5 -17q33 0 76 52.5t58 52.5q7 0 15 -7.5t8 -17.5q0 -8 -52 -82q-56 -78 -63 -99q-4 -11 17 -11l26 2q31 0 45 -1t12 -1q77 0 97 17.5t20 90.5zM219 247l-53 -102q-19 -38 -46 -82
q4 -14 57 -14q23 0 43 13t26 13t16.5 -10.5t10.5 -16.5q0 -24 -26 -41q-22 -15 -49 -15q-8 0 -15 2q-37 10 -70 10q-8 0 -86 -8q-6 -1 -18 6t-12 12q0 10 38 48q79 79 115 185q-6 2 -15 2q-27 0 -53.5 -27.5t-36.5 -27.5q-9 0 -18.5 10.5t-9.5 19.5q0 50 47 67
q44 8 89.5 17.5t45.5 45.5q0 2 -24 9q-29 8 -31 9q-55 23 -55 88q0 98 103 151q83 42 192 42q134 0 215 -54q95 -64 95 -191q0 -117 -70 -347l14 -4q19 0 38 16.5t30 16.5q8 0 16 -9.5t8 -17.5q0 -32 -37 -49q-30 -14 -65 -13q1 0 -46 -2q-53 -2 -93 -2q-126 0 -126 20
q0 30 36 112q34 78 30 116l2 2h-1h-211zM460 855q35 0 61 -23.5t26 -58.5q0 -34 -26 -57.5t-61 -23.5t-60.5 23.5t-25.5 57.5q0 35 25.5 58.5t60.5 23.5zM460 805q-16 0 -26 -9.5t-10 -22.5q0 -12 10 -21.5t26 -9.5t26.5 9.5t10.5 21.5q0 13 -10.5 22.5t-26.5 9.5z" />
    <glyph glyph-name="Ccedilla" unicode="&#xc7;" horiz-adv-x="711" 
d="M304 -45l8 36q-131 6 -208 77q-83 76 -83 211q0 189 132 295q124 98 322 93q40 -1 89 -16q57 -16 79 -39q8 1 20.5 22.5t28.5 21.5q7 0 18.5 -9t11.5 -16q0 -41 -38 -128q-41 -98 -75 -98q-11 0 -21 9.5t-10 20.5q0 6 21 32t21 53q0 36 -32 56q-27 16 -66 16
q-111 0 -182 -112q-61 -98 -61 -216q0 -75 44 -123.5t119 -48.5q63 0 112 33q57 38 57 98q0 25 -14 43.5t-38 18.5q-40 0 -40 -27q0 -7 2 -19.5t2 -18.5q0 -17 -24 -17q-20 0 -31.5 15.5t-11.5 35.5q0 39 30.5 64t70.5 25q50 0 83 -37t33 -89q0 -106 -112 -170
q-90 -51 -205 -57l-7 -26q-2 -7 -4 -15q17 3 39 -3.5t22 -34.5q0 -49 -46 -90q-30 -27 -77 -24q-13 0 -30 1q-26 7 -33 14q-15 13 -15 24q0 12 13 27q9 3 14 2l14 -12q14 -12 33 -9q20 2 28.5 8t7.5 6q20 20 20 38q0 33 -43 32q5 9 12 27z" />
    <glyph glyph-name="Eacute" unicode="&#xc9;" horiz-adv-x="674" 
d="M676 622q0 -5 -25 -83.5t-31 -87.5q-16 -26 -38 -26q-31 0 -31 31q0 8 18 29t18 37q0 33 -37 52q-29 14 -56 14q-39 0 -79 -32q-44 -35 -44 -80q0 -41 37 -56q8 -3 70 -12q38 -6 38 -27q0 -25 -14 -25q-103 -2 -163 -40q-66 -44 -66 -130q0 -122 147 -122q55 0 102 20
q69 30 69 92q0 22 -14.5 40t-38.5 18q-28 0 -37 -17q-2 -5 -6 -31q-2 -16 -14 -16q-15 0 -25 13.5t-10 29.5q0 36 29 59q26 20 59 20q47 0 78 -31.5t31 -77.5q0 -192 -316 -192q-112 0 -188 32q-117 49 -117 165q0 60 38 112q41 59 111 81q0 4 -11 12q-15 10 -21 18
q-18 24 -18 63q0 97 99 148q77 38 173 38q20 0 36 -2q70 -10 127 -31q50 -18 49 -18q5 0 19.5 18t26.5 18q10 0 17.5 -7.5t7.5 -15.5zM322 709q0 10 16 19q49 24 141 67q12 18 42 18q18 0 30.5 -13t12.5 -31q0 -31 -43 -41q-58 -8 -171 -34q-8 -3 -18 1.5t-10 13.5z" />
    <glyph glyph-name="Ntilde" unicode="&#xd1;" horiz-adv-x="745" 
d="M829 632q-2 -5 -30.5 -14t-39.5 -40q-34 -95 -72.5 -270.5t-50.5 -293.5q-11 -8 -36 -8q-121 0 -173 138q-36 128 -73 257q-51 138 -171 138q-47 0 -79 -24q-38 -28 -38 -77q0 -59 56 -59q32 0 72 42t57 42q25 0 25 -21q0 1 -17 -37q-20 -43 -31 -78q-24 -76 -34 -147
q-22 -71 -40 -114q30 -11 73 -11q27 0 37.5 11.5t19.5 11.5q26 0 26 -30q0 -46 -78 -46q-5 0 -50.5 3.5t-50.5 3.5q-4 0 -36.5 -3.5t-37.5 -3.5q-28 0 -28 26l24 21q30 26 54 75q36 71 59 188l-4 22q-5 0 -19.5 -2t-18.5 -2q-58 0 -90 44q-25 36 -25 81q0 111 104 173
q81 48 173 48q140 0 219.5 -80.5t123.5 -262.5q22 50 45.5 153t38.5 136q25 58 68 58q23 0 36 -15t12 -33zM401 747q-19 0 -53 -15.5t-50 -16.5q-7 6 -7 13q0 23 50 53q47 28 73 28q24 0 71.5 -15t72.5 -15q18 0 61 16.5t42 16.5q10 0 10 -9q0 -25 -44.5 -57t-71.5 -32
q-26 0 -77 16.5t-77 16.5z" />
    <glyph glyph-name="Odieresis" unicode="&#xd6;" horiz-adv-x="755" 
d="M728 332q0 -179 -131 -272q-108 -77 -269 -77q-143 0 -224 75q-85 77 -85 221q0 185 146 298q129 100 304 100q86 0 151 -35q89 -46 89 -139q0 -42 -23 -73q-26 -35 -71 -35q-25 0 -49 15q-29 18 -29 46q0 12 9 21t16 9q11 0 20.5 -17t27.5 -17q42 0 42 48q0 78 -105 78
q-124 0 -203 -121q-66 -101 -66 -211q0 -73 37 -123q43 -56 118 -56q101 0 171 86q67 83 67 194q0 23 -3 46q-3 17 22 17q18 0 29 -31q9 -25 9 -47zM618 767q0 -28 -32 -44q-26 -14 -57 -14q-51 0 -51 35q0 28 40 45q29 12 54 12q19 0 32.5 -10t13.5 -24zM414 767
q0 -28 -32 -44q-26 -14 -57 -14q-51 0 -51 35q0 28 40 45q29 12 54 12q19 0 32.5 -10t13.5 -24z" />
    <glyph glyph-name="Udieresis" unicode="&#xdc;" horiz-adv-x="788" 
d="M767 568q-31 -57 -69 -244q-48 -232 -57 -266q6 -12 22 -14q-1 0 18 0q30 0 71 26q6 4 7 4q23 0 23 -23q0 -52 -95 -52h-277q-5 0 -12 6.5t-7 10.5t11.5 23t0.5 34q-72 -51 -109 -66.5t-89 -15.5q-78 0 -123 47t-45 125q0 105 42 224q38 106 100 199q-6 19 -26 19
q-35 0 -64 -29q-5 -5 -17 -20l-6 -7q-29 0 -29 27q0 43 55 61q37 12 80 10l150 -7q5 -1 47 2t46 3q10 0 17 -7t7 -10l-1 -1l-5 -10q-41 -74 -75 -149q-84 -184 -84 -278q0 -27 34 -47q26 -17 42 -17q67 0 106 109q9 38 28 117q14 61 29 122t46 119q28 54 161 54
q83 0 102 -23q-15 -12 -30 -25t-25 -31zM638 757q0 -28 -32 -44q-26 -14 -57 -14q-51 0 -51 35q0 28 40 45q29 12 54 12q19 0 32.5 -10t13.5 -24zM434 757q0 -28 -32 -44q-26 -14 -57 -14q-51 0 -51 35q0 28 40 45q29 12 54 12q19 0 32.5 -10t13.5 -24z" />
    <glyph glyph-name="aacute" unicode="&#xe1;" horiz-adv-x="718" 
d="M755 413q0 -11 -16 -24q-20 -16 -22 -21q-39 -68 -50 -162l-2 -1q-9 -23 -19 -71q-11 -54 -18 -74l15 -9q20 0 40 14t30 14q11 0 19.5 -8.5t8.5 -19.5q0 -26 -32 -42q-26 -13 -56 -13q-23 0 -68.5 6t-68.5 6q-22 0 -92 -10q-9 -1 -17.5 4.5t-8.5 14.5l9 28l-7 4
q-92 -56 -164 -56q-80 0 -127 36q-53 39 -53 116q0 130 84.5 212t213.5 82q77 0 134 -54q77 56 185 56q82 0 82 -28zM463 291q0 57 -49 57q-53 0 -92 -72q-34 -62 -34 -119q0 -3 1.5 -10t1.5 -10l1 -1q3 -17 18 -28t32 -11q56 0 92 72q29 60 29 122zM375 499q0 10 16 20
q50 24 141 67q13 17 42 17q18 0 31 -12.5t13 -30.5q0 -31 -44 -41q-58 -9 -170 -35q-9 -2 -19 2t-10 13z" />
    <glyph glyph-name="agrave" unicode="&#xe0;" horiz-adv-x="718" 
d="M755 413q0 -11 -16 -24q-20 -16 -22 -21q-39 -68 -50 -162l-2 -1q-9 -23 -19 -71q-11 -54 -18 -74l15 -9q20 0 40 14t30 14q11 0 19.5 -8.5t8.5 -19.5q0 -26 -32 -42q-26 -13 -56 -13q-23 0 -68.5 6t-68.5 6q-22 0 -92 -10q-9 -1 -17.5 4.5t-8.5 14.5l9 28l-7 4
q-92 -56 -164 -56q-80 0 -127 36q-53 39 -53 116q0 130 84.5 212t213.5 82q77 0 134 -54q77 56 185 56q82 0 82 -28zM463 291q0 57 -49 57q-53 0 -92 -72q-34 -62 -34 -119q0 -3 1.5 -10t1.5 -10l1 -1q3 -17 18 -28t32 -11q56 0 92 72q29 60 29 122zM579 489q0 10 -16 20
q-49 24 -141 67q-12 17 -42 17q-18 0 -30.5 -12.5t-12.5 -30.5q0 -31 43 -41q58 -9 171 -35q8 -2 18 2t10 13z" />
    <glyph glyph-name="acircumflex" unicode="&#xe2;" horiz-adv-x="718" 
d="M755 413q0 -11 -16 -24q-20 -16 -22 -21q-39 -68 -50 -162l-2 -1q-9 -23 -19 -71q-11 -54 -18 -74l15 -9q20 0 40 14t30 14q11 0 19.5 -8.5t8.5 -19.5q0 -26 -32 -42q-26 -13 -56 -13q-23 0 -68.5 6t-68.5 6q-22 0 -92 -10q-9 -1 -17.5 4.5t-8.5 14.5l9 28l-7 4
q-92 -56 -164 -56q-80 0 -127 36q-53 39 -53 116q0 130 84.5 212t213.5 82q77 0 134 -54q77 56 185 56q82 0 82 -28zM463 291q0 57 -49 57q-53 0 -92 -72q-34 -62 -34 -119q0 -3 1.5 -10t1.5 -10l1 -1q3 -17 18 -28t32 -11q56 0 92 72q29 60 29 122zM315 496q-2 12 17 28
q77 43 161 89q22 9 38 0q49 -39 114 -90q9 -8 9 -17q0 -10 -10.5 -17.5t-19.5 -3.5q-41 20 -132 56q-22 -6 -157 -56q-17 -6 -20 11z" />
    <glyph glyph-name="adieresis" unicode="&#xe4;" horiz-adv-x="718" 
d="M755 413q0 -11 -16 -24q-20 -16 -22 -21q-39 -68 -50 -162l-2 -1q-9 -23 -19 -71q-11 -54 -18 -74l15 -9q20 0 40 14t30 14q11 0 19.5 -8.5t8.5 -19.5q0 -26 -32 -42q-26 -13 -56 -13q-23 0 -68.5 6t-68.5 6q-22 0 -92 -10q-9 -1 -17.5 4.5t-8.5 14.5l9 28l-7 4
q-92 -56 -164 -56q-80 0 -127 36q-53 39 -53 116q0 130 84.5 212t213.5 82q77 0 134 -54q77 56 185 56q82 0 82 -28zM463 291q0 57 -49 57q-53 0 -92 -72q-34 -62 -34 -119q0 -3 1.5 -10t1.5 -10l1 -1q3 -17 18 -28t32 -11q56 0 92 72q29 60 29 122zM658 537q0 -28 -32 -44
q-26 -14 -57 -14q-51 0 -51 35q0 28 40 45q29 12 54 12q19 0 32.5 -10t13.5 -24zM454 537q0 -28 -32 -44q-26 -14 -57 -14q-51 0 -51 35q0 28 40 45q29 12 54 12q19 0 32.5 -10t13.5 -24z" />
    <glyph glyph-name="atilde" unicode="&#xe3;" horiz-adv-x="718" 
d="M755 413q0 -11 -16 -24q-20 -16 -22 -21q-39 -68 -50 -162l-2 -1q-9 -23 -19 -71q-11 -54 -18 -74l15 -9q20 0 40 14t30 14q11 0 19.5 -8.5t8.5 -19.5q0 -26 -32 -42q-26 -13 -56 -13q-23 0 -68.5 6t-68.5 6q-22 0 -92 -10q-9 -1 -17.5 4.5t-8.5 14.5l9 28l-7 4
q-92 -56 -164 -56q-80 0 -127 36q-53 39 -53 116q0 130 84.5 212t213.5 82q77 0 134 -54q77 56 185 56q82 0 82 -28zM463 291q0 57 -49 57q-53 0 -92 -72q-34 -62 -34 -119q0 -3 1.5 -10t1.5 -10l1 -1q3 -17 18 -28t32 -11q56 0 92 72q29 60 29 122zM401 517
q-19 0 -53 -15.5t-50 -16.5q-7 6 -7 13q0 23 50 53q47 28 73 28q24 0 71.5 -15t72.5 -15q18 0 61 16.5t42 16.5q10 0 10 -9q0 -25 -44.5 -57t-71.5 -32q-26 0 -77 16.5t-77 16.5z" />
    <glyph glyph-name="aring" unicode="&#xe5;" horiz-adv-x="718" 
d="M755 413q0 -11 -16 -24q-20 -16 -22 -21q-39 -68 -50 -162l-2 -1q-9 -23 -19 -71q-11 -54 -18 -74l15 -9q20 0 40 14t30 14q11 0 19.5 -8.5t8.5 -19.5q0 -26 -32 -42q-26 -13 -56 -13q-23 0 -68.5 6t-68.5 6q-22 0 -92 -10q-9 -1 -17.5 4.5t-8.5 14.5l9 28l-7 4
q-92 -56 -164 -56q-80 0 -127 36q-53 39 -53 116q0 130 84.5 212t213.5 82q77 0 134 -54q77 56 185 56q82 0 82 -28zM463 291q0 57 -49 57q-53 0 -92 -72q-34 -62 -34 -119q0 -3 1.5 -10t1.5 -10l1 -1q3 -17 18 -28t32 -11q56 0 92 72q29 60 29 122zM500 645q35 0 61 -23.5
t26 -58.5q0 -34 -26 -57.5t-61 -23.5t-60.5 23.5t-25.5 57.5q0 35 25.5 58.5t60.5 23.5zM500 595q-16 0 -26 -9.5t-10 -22.5q0 -12 10 -21.5t26 -9.5t26.5 9.5t10.5 21.5q0 13 -10.5 22.5t-26.5 9.5z" />
    <glyph glyph-name="ccedilla" unicode="&#xe7;" horiz-adv-x="581" 
d="M235 -38l7 30q-224 19 -224 187q0 135 117 206q91 54 209 54q76 0 130.5 -15.5t47.5 -15.5q3 0 15 7.5t18 7.5q25 0 25 -25q0 -18 -30 -82q-31 -67 -45 -67q-23 0 -26 34q-4 56 -6 64q-13 34 -59 34q-63 0 -107 -77q-37 -63 -37 -115q0 -111 109 -111q42 0 81 20
q24 11 54 35q23 19 29 19q24 0 22 -25q-5 -59 -101 -101q-83 -36 -163 -36h-23l-6 -20q-1 -6 -3 -12q14 1 32.5 -4t18.5 -28q0 -41 -39 -76q-25 -22 -64 -20q-10 0 -25 2q-21 5 -27 11q-12 11 -12 21q0 9 10 21q7 3 12 2q6 -5 11 -10q12 -10 28 -8q17 3 24 8t6 5
q16 16 16 31q0 27 -35 27q4 7 10 22z" />
    <glyph glyph-name="eacute" unicode="&#xe9;" horiz-adv-x="657" 
d="M305 499q0 10 16 20q50 24 141 67q13 17 42 17q18 0 31 -12.5t13 -30.5q0 -31 -44 -41q-58 -9 -170 -35q-9 -2 -19 2t-10 13zM640 289q0 -29 -277 -106q-76 -20 -76 -28q0 -31 41 -53q35 -18 69 -18q59 0 103 26t88 53q23 -5 23 -24q0 -64 -135 -110q-108 -38 -189 -38
q-109 0 -177 42q-80 51 -80 153q0 134 117 203q96 55 241 55q84 0 132 -24q54 -29 87 -100q33 -8 33 -31zM416 348q0 42 -34 42q-43 0 -77 -59q-30 -52 -30 -99q0 -15 11 -15h5q49 11 72 25q33 20 44 58q9 34 9 48z" />
    <glyph glyph-name="egrave" unicode="&#xe8;" horiz-adv-x="666" 
d="M519 489q0 10 -16 20q-49 24 -141 67q-12 17 -42 17q-18 0 -30.5 -12.5t-12.5 -30.5q0 -31 43 -41q58 -9 171 -35q8 -2 18 2t10 13zM640 289q0 -29 -277 -106q-76 -20 -76 -28q0 -31 41 -53q35 -18 69 -18q59 0 103 26t88 53q23 -5 23 -24q0 -64 -135 -110
q-108 -38 -189 -38q-109 0 -177 42q-80 51 -80 153q0 134 117 203q96 55 241 55q84 0 132 -24q54 -29 87 -100q33 -8 33 -31zM416 348q0 42 -34 42q-43 0 -77 -59q-30 -52 -30 -99q0 -15 11 -15h5q49 11 72 25q33 20 44 58q9 34 9 48z" />
    <glyph glyph-name="ecircumflex" unicode="&#xea;" horiz-adv-x="655" 
d="M640 289q0 -29 -277 -106q-76 -20 -76 -28q0 -31 41 -53q35 -18 69 -18q59 0 103 26t88 53q23 -5 23 -24q0 -64 -135 -110q-108 -38 -189 -38q-109 0 -177 42q-80 51 -80 153q0 134 117 203q96 55 241 55q84 0 132 -24q54 -29 87 -100q33 -8 33 -31zM416 348q0 42 -34 42
q-43 0 -77 -59q-30 -52 -30 -99q0 -15 11 -15h5q49 11 72 25q33 20 44 58q9 34 9 48zM235 496q-2 12 17 28q77 43 161 89q22 9 38 0q49 -39 114 -90q9 -8 9 -17q0 -10 -10.5 -17.5t-19.5 -3.5q-41 20 -132 56q-22 -6 -157 -56q-17 -6 -20 11z" />
    <glyph glyph-name="edieresis" unicode="&#xeb;" horiz-adv-x="660" 
d="M598 537q0 -28 -32 -44q-26 -14 -57 -14q-51 0 -51 35q0 28 40 45q29 12 54 12q19 0 32.5 -10t13.5 -24zM394 537q0 -28 -32 -44q-26 -14 -57 -14q-51 0 -51 35q0 28 40 45q29 12 54 12q19 0 32.5 -10t13.5 -24zM640 289q0 -29 -277 -106q-76 -20 -76 -28q0 -31 41 -53
q35 -18 69 -18q59 0 103 26t88 53q23 -5 23 -24q0 -64 -135 -110q-108 -38 -189 -38q-109 0 -177 42q-80 51 -80 153q0 134 117 203q96 55 241 55q84 0 132 -24q54 -29 87 -100q33 -8 33 -31zM416 348q0 42 -34 42q-43 0 -77 -59q-30 -52 -30 -99q0 -15 11 -15h5
q49 11 72 25q33 20 44 58q9 34 9 48z" />
    <glyph glyph-name="iacute" unicode="&#xed;" horiz-adv-x="398" 
d="M398 54q0 -54 -131 -54q-27 0 -60 2.5l-33 2.5q-44 0 -128 -10q-9 -1 -16.5 5t-7.5 14q0 3 24.5 47t29.5 56q14 46 30 124q21 100 27 125q3 13 -12 13q-17 0 -34 -14.5t-29 -14.5q-28 0 -28 28q0 59 146 59q26 0 59 -2q18 -1 35 -2q15 -1 43 2t42 3q26 0 33 -20
q-33 -51 -53 -150l-32 -160q-1 -3 -8.5 -24t-7.5 -22q0 -9 15 -9q22 0 39.5 16.5t28.5 16.5q28 0 28 -32zM135 499q0 10 16 20q50 24 141 67q13 17 42 17q18 0 31 -12.5t13 -30.5q0 -31 -44 -41q-58 -9 -170 -35q-9 -2 -19 2t-10 13z" />
    <glyph glyph-name="igrave" unicode="&#xec;" horiz-adv-x="398" 
d="M398 54q0 -54 -131 -54q-27 0 -60 2.5l-33 2.5q-44 0 -128 -10q-9 -1 -16.5 5t-7.5 14q0 3 24.5 47t29.5 56q14 46 30 124q21 100 27 125q3 13 -12 13q-17 0 -34 -14.5t-29 -14.5q-28 0 -28 28q0 59 146 59q26 0 59 -2q18 -1 35 -2q15 -1 43 2t42 3q26 0 33 -20
q-33 -51 -53 -150l-32 -160q-1 -3 -8.5 -24t-7.5 -22q0 -9 15 -9q22 0 39.5 16.5t28.5 16.5q28 0 28 -32zM359 489q0 10 -16 20q-49 24 -141 67q-12 17 -42 17q-18 0 -30.5 -12.5t-12.5 -30.5q0 -31 43 -41q58 -9 171 -35q8 -2 18 2t10 13z" />
    <glyph glyph-name="icircumflex" unicode="&#xee;" horiz-adv-x="398" 
d="M398 54q0 -54 -131 -54q-27 0 -60 2.5l-33 2.5q-44 0 -128 -10q-9 -1 -16.5 5t-7.5 14q0 3 24.5 47t29.5 56q14 46 30 124q21 100 27 125q3 13 -12 13q-17 0 -34 -14.5t-29 -14.5q-28 0 -28 28q0 59 146 59q26 0 59 -2q18 -1 35 -2q15 -1 43 2t42 3q26 0 33 -20
q-33 -51 -53 -150l-32 -160q-1 -3 -8.5 -24t-7.5 -22q0 -9 15 -9q22 0 39.5 16.5t28.5 16.5q28 0 28 -32zM85 496q-2 12 17 28q77 43 161 89q22 9 38 0q49 -39 114 -90q9 -8 9 -17q0 -10 -10.5 -17.5t-19.5 -3.5q-41 20 -132 56q-22 -6 -157 -56q-17 -6 -20 11z" />
    <glyph glyph-name="idieresis" unicode="&#xef;" horiz-adv-x="398" 
d="M398 54q0 -54 -131 -54q-27 0 -60 2.5l-33 2.5q-44 0 -128 -10q-9 -1 -16.5 5t-7.5 14q0 3 24.5 47t29.5 56q14 46 30 124q21 100 27 125q3 13 -12 13q-17 0 -34 -14.5t-29 -14.5q-28 0 -28 28q0 59 146 59q26 0 59 -2q18 -1 35 -2q15 -1 43 2t42 3q26 0 33 -20
q-33 -51 -53 -150l-32 -160q-1 -3 -8.5 -24t-7.5 -22q0 -9 15 -9q22 0 39.5 16.5t28.5 16.5q28 0 28 -32zM418 537q0 -28 -32 -44q-26 -14 -57 -14q-51 0 -51 35q0 28 40 45q29 12 54 12q19 0 32.5 -10t13.5 -24zM214 537q0 -28 -32 -44q-26 -14 -57 -14q-51 0 -51 35
q0 28 40 45q29 12 54 12q19 0 32.5 -10t13.5 -24z" />
    <glyph glyph-name="ntilde" unicode="&#xf1;" horiz-adv-x="724" 
d="M696 280q0 -53 -24 -104q-13 -27 -44 -71q-24 -34 -24 -47l10 -14q9 0 26.5 14t28.5 14q22 0 22 -28q0 -20 -24.5 -34.5t-45.5 -14.5q-23 0 -60 3q-46 5 -59 6q-21 1 -57 -3q-41 -4 -58 -4q-32 0 -32 18q0 8 32 57q41 63 59 99q32 62 32 103q0 23 -18 40.5t-41 17.5
q-53 0 -83 -56q-18 -34 -37 -116t-33 -106l14 -7q9 0 24 11.5t25 11.5q6 0 12.5 -9.5t6.5 -15.5q0 -49 -116 -49q-30 0 -75.5 3.5t-52.5 3.5q-11 0 -33 -4.5t-33 -4.5q-30 0 -30 24q17 26 48 80q6 13 38 141.5t32 139.5l-23 7q-13 0 -33.5 -15t-29.5 -15q-7 0 -14 15
q-5 12 -5 21q0 47 220 47q29 0 67 -1h43l19 -19l-5 -19l3 -7l82 38q36 14 91 14q64 0 109.5 -50.5t45.5 -114.5zM331 517q-19 0 -52 -15.5t-51 -16.5q-7 6 -7 13q0 23 50 53q47 28 73 28q24 0 71.5 -15t72.5 -15q19 0 61.5 16.5t41.5 16.5q10 0 10 -9q0 -25 -44.5 -57
t-71.5 -32q-26 0 -77 16.5t-77 16.5z" />
    <glyph glyph-name="oacute" unicode="&#xf3;" horiz-adv-x="615" 
d="M622 221q0 -63 -43 -117q-68 -82 -201 -105q-35 -6 -51 -6q-130 0 -198 32q-98 45 -98 160q0 37 14 77q25 71 86 115q84 62 204 62q28 0 55 -1q11 -2 33 -5q41 -5 59 -11q34 -10 50 -32q9 -11 9 -14q0 -5 -4.5 -9t-4.5 -9q3 -3 12 -9q29 -20 38 -28q21 -18 28 -35
q12 -30 12 -65zM466 268q-4 0 -14 -4.5t-17 -4.5q-27 0 -27 33q0 52 84 68q-12 8 -54 8q-65 0 -115.5 -60t-50.5 -125v-30q0 -10 5 -26q21 -71 100 -71q44 0 78 25t49 66q13 37 13 62q0 11 -2 19q-3 14 -18.5 27t-30.5 13zM265 499q0 10 16 20q50 24 141 67q13 17 42 17
q18 0 31 -12.5t13 -30.5q0 -31 -44 -41q-58 -9 -170 -35q-9 -2 -19 2t-10 13z" />
    <glyph glyph-name="ograve" unicode="&#xf2;" horiz-adv-x="615" 
d="M622 221q0 -63 -43 -117q-68 -82 -201 -105q-35 -6 -51 -6q-130 0 -198 32q-98 45 -98 160q0 37 14 77q25 71 86 115q84 62 204 62q28 0 55 -1q11 -2 33 -5q41 -5 59 -11q34 -10 50 -32q9 -11 9 -14q0 -5 -4.5 -9t-4.5 -9q3 -3 12 -9q29 -20 38 -28q21 -18 28 -35
q12 -30 12 -65zM466 268q-4 0 -14 -4.5t-17 -4.5q-27 0 -27 33q0 52 84 68q-12 8 -54 8q-65 0 -115.5 -60t-50.5 -125v-30q0 -10 5 -26q21 -71 100 -71q44 0 78 25t49 66q13 37 13 62q0 11 -2 19q-3 14 -18.5 27t-30.5 13zM509 489q0 10 -16 20q-49 24 -141 67
q-12 17 -42 17q-18 0 -30.5 -12.5t-12.5 -30.5q0 -31 43 -41q58 -9 171 -35q8 -2 18 2t10 13z" />
    <glyph glyph-name="ocircumflex" unicode="&#xf4;" horiz-adv-x="615" 
d="M622 221q0 -63 -43 -117q-68 -82 -201 -105q-35 -6 -51 -6q-130 0 -198 32q-98 45 -98 160q0 37 14 77q25 71 86 115q84 62 204 62q28 0 55 -1q11 -2 33 -5q41 -5 59 -11q34 -10 50 -32q9 -11 9 -14q0 -5 -4.5 -9t-4.5 -9q3 -3 12 -9q29 -20 38 -28q21 -18 28 -35
q12 -30 12 -65zM466 268q-4 0 -14 -4.5t-17 -4.5q-27 0 -27 33q0 52 84 68q-12 8 -54 8q-65 0 -115.5 -60t-50.5 -125v-30q0 -10 5 -26q21 -71 100 -71q44 0 78 25t49 66q13 37 13 62q0 11 -2 19q-3 14 -18.5 27t-30.5 13zM205 496q-2 12 17 28q77 43 161 89q22 9 38 0
q49 -39 114 -90q9 -8 9 -17q0 -10 -10.5 -17.5t-19.5 -3.5q-41 20 -132 56q-22 -6 -157 -56q-17 -6 -20 11z" />
    <glyph glyph-name="odieresis" unicode="&#xf6;" horiz-adv-x="615" 
d="M622 221q0 -63 -43 -117q-68 -82 -201 -105q-35 -6 -51 -6q-130 0 -198 32q-98 45 -98 160q0 37 14 77q25 71 86 115q84 62 204 62q28 0 55 -1q11 -2 33 -5q41 -5 59 -11q34 -10 50 -32q9 -11 9 -14q0 -5 -4.5 -9t-4.5 -9q3 -3 12 -9q29 -20 38 -28q21 -18 28 -35
q12 -30 12 -65zM466 268q-4 0 -14 -4.5t-17 -4.5q-27 0 -27 33q0 52 84 68q-12 8 -54 8q-65 0 -115.5 -60t-50.5 -125v-30q0 -10 5 -26q21 -71 100 -71q44 0 78 25t49 66q13 37 13 62q0 11 -2 19q-3 14 -18.5 27t-30.5 13zM558 537q0 -28 -32 -44q-26 -14 -57 -14
q-51 0 -51 35q0 28 40 45q29 12 54 12q19 0 32.5 -10t13.5 -24zM354 537q0 -28 -32 -44q-26 -14 -57 -14q-51 0 -51 35q0 28 40 45q29 12 54 12q19 0 32.5 -10t13.5 -24z" />
    <glyph glyph-name="otilde" unicode="&#xf5;" horiz-adv-x="615" 
d="M622 221q0 -63 -43 -117q-68 -82 -201 -105q-35 -6 -51 -6q-130 0 -198 32q-98 45 -98 160q0 37 14 77q25 71 86 115q84 62 204 62q28 0 55 -1q11 -2 33 -5q41 -5 59 -11q34 -10 50 -32q9 -11 9 -14q0 -5 -4.5 -9t-4.5 -9q3 -3 12 -9q29 -20 38 -28q21 -18 28 -35
q12 -30 12 -65zM466 268q-4 0 -14 -4.5t-17 -4.5q-27 0 -27 33q0 52 84 68q-12 8 -54 8q-65 0 -115.5 -60t-50.5 -125v-30q0 -10 5 -26q21 -71 100 -71q44 0 78 25t49 66q13 37 13 62q0 11 -2 19q-3 14 -18.5 27t-30.5 13zM311 517q-19 0 -53 -15.5t-50 -16.5q-7 6 -7 13
q0 23 50 53q47 28 73 28q24 0 71.5 -15t72.5 -15q18 0 61 16.5t42 16.5q10 0 10 -9q0 -25 -44.5 -57t-71.5 -32q-26 0 -77 16.5t-77 16.5z" />
    <glyph glyph-name="uacute" unicode="&#xfa;" horiz-adv-x="695" 
d="M580 62l19 -5q15 0 37.5 15t33.5 15q26 0 26 -21q0 -66 -114 -66q-26 0 -69 4t-53 4q-13 0 -39 -4.5t-39 -4.5q-33 0 -33 26q0 11 7 29l-2 1q-65 -36 -89 -45q-42 -15 -100 -15q-141 0 -141 142q0 55 31 126q10 22 61 117l-13 5q-13 0 -35.5 -17.5t-32.5 -17.5
q-12 0 -12 26q0 60 106 60q18 0 47.5 -2t36.5 -2q21 0 62 3t61 3q27 0 27 -20q0 -11 -28 -59q-36 -64 -51 -99q-27 -63 -27 -109q0 -49 38 -49q66 0 91 89q21 82 43 165q38 89 135 89h93q15 0 29.5 -8t14.5 -22q0 -10 -16 -22l-24 -18q-25 -26 -81 -313zM275 499q0 10 16 20
q50 24 141 67q13 17 42 17q18 0 31 -12.5t13 -30.5q0 -31 -44 -41q-58 -9 -170 -35q-9 -2 -19 2t-10 13z" />
    <glyph glyph-name="ugrave" unicode="&#xf9;" horiz-adv-x="695" 
d="M580 62l19 -5q15 0 37.5 15t33.5 15q26 0 26 -21q0 -66 -114 -66q-26 0 -69 4t-53 4q-13 0 -39 -4.5t-39 -4.5q-33 0 -33 26q0 11 7 29l-2 1q-65 -36 -89 -45q-42 -15 -100 -15q-141 0 -141 142q0 55 31 126q10 22 61 117l-13 5q-13 0 -35.5 -17.5t-32.5 -17.5
q-12 0 -12 26q0 60 106 60q18 0 47.5 -2t36.5 -2q21 0 62 3t61 3q27 0 27 -20q0 -11 -28 -59q-36 -64 -51 -99q-27 -63 -27 -109q0 -49 38 -49q66 0 91 89q21 82 43 165q38 89 135 89h93q15 0 29.5 -8t14.5 -22q0 -10 -16 -22l-24 -18q-25 -26 -81 -313zM509 489
q0 10 -16 20q-49 24 -141 67q-12 17 -42 17q-18 0 -30.5 -12.5t-12.5 -30.5q0 -31 43 -41q58 -9 171 -35q8 -2 18 2t10 13z" />
    <glyph glyph-name="ucircumflex" unicode="&#xfb;" horiz-adv-x="695" 
d="M580 62l19 -5q15 0 37.5 15t33.5 15q26 0 26 -21q0 -66 -114 -66q-26 0 -69 4t-53 4q-13 0 -39 -4.5t-39 -4.5q-33 0 -33 26q0 11 7 29l-2 1q-65 -36 -89 -45q-42 -15 -100 -15q-141 0 -141 142q0 55 31 126q10 22 61 117l-13 5q-13 0 -35.5 -17.5t-32.5 -17.5
q-12 0 -12 26q0 60 106 60q18 0 47.5 -2t36.5 -2q21 0 62 3t61 3q27 0 27 -20q0 -11 -28 -59q-36 -64 -51 -99q-27 -63 -27 -109q0 -49 38 -49q66 0 91 89q21 82 43 165q38 89 135 89h93q15 0 29.5 -8t14.5 -22q0 -10 -16 -22l-24 -18q-25 -26 -81 -313zM225 496
q-2 12 17 28q77 43 161 89q22 9 38 0q49 -39 114 -90q9 -8 9 -17q0 -10 -10.5 -17.5t-19.5 -3.5q-41 20 -132 56q-22 -6 -157 -56q-17 -6 -20 11z" />
    <glyph glyph-name="udieresis" unicode="&#xfc;" horiz-adv-x="695" 
d="M580 62l19 -5q15 0 37.5 15t33.5 15q26 0 26 -21q0 -66 -114 -66q-26 0 -69 4t-53 4q-13 0 -39 -4.5t-39 -4.5q-33 0 -33 26q0 11 7 29l-2 1q-65 -36 -89 -45q-42 -15 -100 -15q-141 0 -141 142q0 55 31 126q10 22 61 117l-13 5q-13 0 -35.5 -17.5t-32.5 -17.5
q-12 0 -12 26q0 60 106 60q18 0 47.5 -2t36.5 -2q21 0 62 3t61 3q27 0 27 -20q0 -11 -28 -59q-36 -64 -51 -99q-27 -63 -27 -109q0 -49 38 -49q66 0 91 89q21 82 43 165q38 89 135 89h93q15 0 29.5 -8t14.5 -22q0 -10 -16 -22l-24 -18q-25 -26 -81 -313zM558 537
q0 -28 -32 -44q-26 -14 -57 -14q-51 0 -51 35q0 28 40 45q29 12 54 12q19 0 32.5 -10t13.5 -24zM354 537q0 -28 -32 -44q-26 -14 -57 -14q-51 0 -51 35q0 28 40 45q29 12 54 12q19 0 32.5 -10t13.5 -24z" />
    <glyph glyph-name="degree" unicode="&#xb0;" horiz-adv-x="345" 
d="M146 685q58 0 98.5 -41t40.5 -98q0 -58 -40.5 -98.5t-98.5 -40.5q-57 0 -98 40.5t-41 98.5q0 57 41 98t98 41zM146 635q-37 0 -63 -26.5t-26 -62.5q0 -37 26 -63t63 -26t63 26t26 63q0 36 -26 62.5t-63 26.5z" />
    <glyph glyph-name="cent" unicode="&#xa2;" horiz-adv-x="603" 
d="M612 625q0 -13 -27.5 -67t-50.5 -88q-38 0 -51 54q-5 23 -4 55q-27 -82 -93 -248q11 -11 43 -11q74 0 124 64l36 -11q-26 -73 -116 -111q-57 -24 -120 -29q-6 -6 -18 -47q-11 -36 -23 -36q-3 0 -11.5 2.5t-13.5 2.5q-6 0 -11 -2q-1 3 -1 6q0 6 12.5 31.5t15.5 46.5
l-86 14q-61 12 -93 43q-44 41 -44 119q0 123 113 191q86 51 186 51q14 0 59 -6q15 36 40 83q7 -3 30 -2q20 1 21 -5q-26 -79 -26 -84q0 -14 37 -14q9 0 23 6.5t21 7.5q2 -2 15 -3.5t13 -12.5zM419 584q-53 -7 -84 -74q-22 -49 -22 -95q0 -28 25 -64q30 81 81 233z" />
    <glyph glyph-name="sterling" unicode="&#xa3;" horiz-adv-x="732" 
d="M704 614q0 -34 -24 -109q-29 -87 -57 -87q-12 0 -22.5 8.5t-10.5 19.5q0 9 14.5 37.5t14.5 37.5q0 30 -29 48q-24 15 -50 15q-77 -2 -114 -111q-16 -46 -22 -109h206l-13 -46h-200q-52 -158 -92 -254q54 -12 122 -12q58 0 109 16q83 27 83 87q0 53 -50 53q-39 0 -39 -19
q0 -7 8.5 -25t8.5 -25q-9 -9 -28 -9q-43 0 -43 53q0 42 29 64q25 18 64 18q50 0 84 -37q30 -33 30 -73q0 -56 -65 -109q-61 -51 -115 -51q-106 -10 -219 7q-65 11 -144 11q-77 0 -133 -11v40q106 85 141 276q-11 6 -33 3q-35 -4 -39 -4q-14 0 -24 4q3 14 7 27q5 17 14 20
q4 1 10 1q10 0 34 -4t33 -4q5 0 9 1q46 291 310 291q59 0 75 -3q45 -7 87 -40q8 -1 15 9.5t15 21.5q10 8 19 7q16 -2 15 -2q9 -10 9 -32z" />
    <glyph glyph-name="section" unicode="&#xa7;" 
 />
    <glyph glyph-name="bullet" unicode="&#x2022;" horiz-adv-x="386" 
d="M25 377q0 61 43.5 104.5t105.5 43.5q61 0 104.5 -43.5t43.5 -104.5q0 -62 -43.5 -105.5t-104.5 -43.5q-62 0 -105.5 43.5t-43.5 105.5z" />
    <glyph glyph-name="paragraph" unicode="&#xb6;" 
 />
    <glyph glyph-name="germandbls" unicode="&#xdf;" horiz-adv-x="802" 
d="M305 553q-18 -18 -18 -36q0 -24 18 -84q2 -7 2 -74q-2 -8 -20 -91q-20 -94 -44 -206l8 -4q14 1 35 16t32 15q23 0 23 -39q0 -54 -114 -54q-19 0 -56.5 4t-56.5 4q-13 0 -39.5 -4.5t-39.5 -4.5q-27 0 -27 28q0 15 17 36q22 26 25 33q15 32 32 130l14 174q9 114 40 170
q42 78 137 85q73 6 113 6q43 0 264 -22q7 -1 44.5 10t46.5 11q21 0 21 -21q0 -13 -83 -83l-102 -86q82 -3 139.5 -64t57.5 -143q0 -90 -36 -177q-43 -107 -129 -185q-98 -90 -203 -90l-36 -1q-78 0 -138 26q-80 35 -80 106q0 23 25 23q15 0 28 -23q18 -33 27 -42
q23 -23 64 -23q7 0 21 1t21 1q49 0 109 96q44 70 67 139q21 63 21 108q0 41 -20 77q-23 44 -59 44q-10 0 -28.5 -6.5t-27.5 -6.5q-23 0 -23 24q0 11 79 79q90 77 98 87q-34 2 -102.5 23.5t-106.5 21.5q-21 0 -40 -8z" />
    <glyph glyph-name="registered" unicode="&#xae;" horiz-adv-x="425" 
d="M182 322q-75 0 -128 54t-53 130q0 75 53 128t128 53t127.5 -53.5t52.5 -129.5q0 -75 -52.5 -128.5t-127.5 -53.5zM182 643q-58 1 -97 -39.5t-39 -99.5q0 -57 40.5 -98t95.5 -41t95 41t40 98t-40 97t-95 42zM187 600q11 4 32 -2q36 -11 36 -46q0 -45 -44 -54l49 -76h-45
l-49 75h-15v-75h-38v178h74zM188 568h-39v-29h44q25 0 25 18q0 11 -30 11z" />
    <glyph glyph-name="copyright" unicode="&#xa9;" horiz-adv-x="814" 
d="M366 -21q-149 0 -253 104.5t-104 254.5t104 255t253 105t253.5 -105t104.5 -255t-104.5 -254.5t-253.5 -104.5zM366 625q-116 0 -200.5 -84t-84.5 -203t84.5 -202.5t200.5 -83.5t200.5 83.5t84.5 202.5t-84.5 203t-200.5 84zM477 397q-23 81 -101 81q-60 0 -95 -39
t-35 -100q0 -55 31 -94q35 -43 97 -43q83 0 103 79h74q-17 -75 -63.5 -113.5t-112.5 -38.5q-92 0 -147 60t-55 152q0 89 56 150t147 61q65 0 112 -39q50 -42 63 -116h-74z" />
    <glyph glyph-name="trademark" unicode="&#x2122;" horiz-adv-x="492" 
d="M377 607l-56 -140h-27l-52 134v-134h-43v211h58l51 -129l52 129h59v-211h-42v140zM103 634v-167h-43v167h-66v44h173v-44h-64z" />
    <glyph glyph-name="acute" unicode="&#xb4;" horiz-adv-x="761" 
d="M272 709q0 10 16 19q49 24 141 67q12 18 42 18q18 0 30.5 -13t12.5 -31q0 -31 -43 -41q-58 -8 -171 -34q-8 -3 -18 1.5t-10 13.5z" />
    <glyph glyph-name="dieresis" unicode="&#xa8;" horiz-adv-x="499" 
d="M428 787q0 -28 -32 -44q-26 -14 -57 -14q-51 0 -51 35q0 28 40 45q29 12 54 12q19 0 32.5 -10t13.5 -24zM224 787q0 -28 -32 -44q-26 -14 -57 -14q-51 0 -51 35q0 28 40 45q29 12 54 12q19 0 32.5 -10t13.5 -24z" />
    <glyph glyph-name="AE" unicode="&#xc6;" horiz-adv-x="1009" 
d="M429 309q9 11 18 21q10 20 10 75q0 71 -39 118q-43 52 -118 52q-47 0 -95 -24q-63 -32 -63 -87q0 -21 17.5 -38t38.5 -17q33 0 76 52.5t58 52.5q7 0 15 -7.5t8 -17.5q0 -8 -52 -82q-56 -78 -63 -99q-4 -11 17 -11l26 2q31 0 45 -1t12 -1q69 0 89 12zM1041 624
q0 -5 -25 -83.5t-31 -87.5q-16 -26 -38 -26q-31 0 -31 31q0 9 18 29.5t18 36.5q0 33 -38 52q-28 14 -55 14q-40 0 -79 -31q-44 -36 -44 -81q0 -41 37 -55q8 -3 70 -13q37 -6 37 -26q0 -25 -13 -25q-131 -3 -189 -54q-48 -52 -48 -115q0 -27 9 -52q13 -34 61 -55
q41 -16 85 -16q55 0 101 20q69 29 69 92q0 21 -13 38q-16 19 -39 19q-28 0 -37 -17q-2 -4 -6 -30q-2 -17 -14 -17q-15 0 -25 14t-10 29q0 37 29 59q25 20 58 20q48 0 78.5 -31t30.5 -78q0 -191 -315 -191q-33 0 -88 8q-64 -3 -192 0q-20 3 -28 9t-8 23q0 7 2 16
q18 88 44 199l-91 -2l-111 -1q-18 -34 -54 -101q-19 -38 -46 -82q4 -14 57 -14q23 0 43 13t26 13t16.5 -10.5t10.5 -16.5q0 -24 -26 -41q-22 -15 -49 -15q-8 0 -15 2q-37 10 -70 10q-8 0 -86 -8q-6 -1 -18 6t-12 12q0 10 38 48q79 79 115 185q-6 2 -15 2q-27 0 -53.5 -27.5
t-36.5 -27.5q-9 0 -18.5 10.5t-9.5 19.5q0 50 47 67q44 8 89.5 17.5t45.5 45.5q0 2 -24 9q-29 8 -31 9q-55 23 -55 88q0 98 103 151q83 42 192 42q110 0 186 -37q79 47 188 47q20 0 36 -2q69 -10 126 -31q51 -19 50 -19q4 0 19 18.5t27 18.5q10 0 17.5 -7.5t7.5 -16.5z" />
    <glyph glyph-name="Oslash" unicode="&#xd8;" horiz-adv-x="755" 
d="M288 180l262 398h-3q-124 1 -203 -121q-66 -101 -66 -211q0 -34 10 -66zM637 709h71l-57 -86q58 -45 58 -120q0 -42 -23 -73q-26 -35 -71 -35q-30 0 -34 1q-16 5 -30 32q-2 3 -2 7q0 11 10.5 23.5t16.5 12.5q10 0 13 -9.5t21 -9.5q42 0 42 48q0 45 -39 64l-295 -444
q42 -53 115 -53q101 0 171 86q67 83 67 194q0 23 -3 46q-3 17 22 17q18 0 29 -31q9 -25 9 -47q0 -179 -131 -272q-108 -77 -269 -77q-50 0 -93 10l-34 -50h-71l46 69q-157 68 -157 267q0 185 146 298q129 100 304 100q70 0 131 -25z" />
    <glyph glyph-name="plusminus" unicode="&#xb1;" 
 />
    <glyph glyph-name="yen" unicode="&#xa5;" horiz-adv-x="838" 
d="M656 207q13 -1 13 -18q0 -16 -10.5 -30.5t-22.5 -10.5h-130q-18 -62 -39 -89q2 -1 -9 -12.5t-9 -11.5q31 0 49 -15l-9 -19q6 -5 -30 -3q-51 4 -242 4q-7 0 -15 7.5t-8 14.5q0 10 27.5 48.5t32.5 52.5q3 8 7 23h-115q-18 2 -18 20q0 15 11 28t27 11h111q11 39 18 71h-129
q-18 2 -18 20q0 15 11 28t27 11h122q2 9 2 13q0 53 -36 124q-43 81 -94 81q-16 0 -29 -8q-16 -10 -16 -27q0 -13 9 -19.5t18 -12.5q3 -2 3 -5q0 -5 -11 -14.5t-16 -9.5q-26 0 -43.5 22t-17.5 49q0 68 69 105q56 29 134 29q131 0 176 -69q11 -17 33.5 -70t47.5 -88l151 155
q-6 1 -24 7q-12 4 -18 4q-24 0 -43 -15l-7 -5q-9 -7 -16 -8l-24 23q1 26 28 40q23 13 53 13q97 0 93 0q72 -4 72 -22q0 -1 -4 -13q-43 -36 -140 -124q-107 -103 -107 -138q-2 -8 -5 -17h130q13 -1 13 -18q0 -16 -10.5 -30.5t-22.5 -10.5h-122q-4 -23 -14 -71h136z" />
    <glyph glyph-name="mu" unicode="&#xb5;" horiz-adv-x="723" 
d="M720 617q0 -43 -23 -114q-26 -82 -56 -90q-31 9 -31 30q0 4 13 27t13 45q0 29 -23.5 48t-54.5 19q-58 0 -98 -60q-34 -51 -39 -115l-1 -1q-9 -41 -15 -66l158 48l-19 -62l-153 -47q-31 -125 -76 -217l21 -11h136q93 0 136 42q17 24 35 49v24q0 17 -18.5 32t-36.5 15
q-15 0 -28 -9.5t-13 -25.5q0 -7 19 -28v-5q0 -7 -10 -13.5t-17 -6.5q-21 0 -35 21q-12 18 -13 39q11 81 105 81q48 0 75.5 -32.5t27.5 -82.5q0 -77 -78 -120q-64 -37 -147 -37h-102q-38 0 -114 7.5t-112 7.5q-58 0 -102 -13q-10 -3 -18 4.5t-8 18.5q29 42 45 65q47 68 55 92
q4 11 7 22l-88 -27l9 59l95 29q44 183 47 192q32 99 92 144q74 57 209 53q62 -2 104 -13q28 -8 46 -21q15 -11 16 -11q13 0 16 23l24 17q8 -1 16.5 -9.5t8.5 -16.5z" />
    <glyph glyph-name="mu" unicode="&#x3bc;" horiz-adv-x="723" 
d="M720 617q0 -43 -23 -114q-26 -82 -56 -90q-31 9 -31 30q0 4 13 27t13 45q0 29 -23.5 48t-54.5 19q-58 0 -98 -60q-34 -51 -39 -115l-1 -1q-9 -41 -15 -66l158 48l-19 -62l-153 -47q-31 -125 -76 -217l21 -11h136q93 0 136 42q17 24 35 49v24q0 17 -18.5 32t-36.5 15
q-15 0 -28 -9.5t-13 -25.5q0 -7 19 -28v-5q0 -7 -10 -13.5t-17 -6.5q-21 0 -35 21q-12 18 -13 39q11 81 105 81q48 0 75.5 -32.5t27.5 -82.5q0 -77 -78 -120q-64 -37 -147 -37h-102q-38 0 -114 7.5t-112 7.5q-58 0 -102 -13q-10 -3 -18 4.5t-8 18.5q29 42 45 65q47 68 55 92
q4 11 7 22l-88 -27l9 59l95 29q44 183 47 192q32 99 92 144q74 57 209 53q62 -2 104 -13q28 -8 46 -21q15 -11 16 -11q13 0 16 23l24 17q8 -1 16.5 -9.5t8.5 -16.5z" />
    <glyph glyph-name="ordfeminine" unicode="&#xaa;" horiz-adv-x="804" 
d="M800 638l-98 -115q-101 -117 -112 -156q6 -7 15 -7q21 0 50.5 17t35.5 17q27 0 27 -26q0 -37 -80 -52q-41 -4 -82 -9q-39 -49 -164 -237q1 -6 50.5 -15t67.5 -9q208 0 208 97q0 41 -47 41q-36 0 -36 -20q0 -5 2 -13t2 -9v-17q-8 -8 -21 -8t-26 15t-13 24q0 41 33 65
q27 20 63 20q40 0 67.5 -29t27.5 -69q0 -94 -101 -129q-60 -20 -146 -17q-331 12 -366 11q-60 -7 -93 -7q-32 0 -32 13q0 4 4 7q96 90 228 286v14q-6 6 -9 6q-40 0 -69.5 -34t-39.5 -34q-13 0 -20.5 12t-7.5 26q0 47 89 66q50 8 99 17q7 5 70 95q66 94 91 120q-4 9 -23 9
q-104 0 -169 -39q-42 -24 -75 -72q-27 -39 -37 -39t-18 9t-8 19q0 18 51 100t65 82q5 0 19 -13t18 -13q-5 0 47 11t92 11l240 -11q5 0 51.5 5.5t51.5 5.5q28 0 28 -22zM712 808q3 -11 -16 -26q-72 -40 -151 -84q-21 -9 -36 0q-46 37 -107 85q-8 8 -8 16q0 9 9.5 16.5
t17.5 3.5q39 -19 124 -53q22 6 148 53q16 6 19 -11z" />
    <glyph glyph-name="ordmasculine" unicode="&#xba;" horiz-adv-x="623" 
d="M585 411l-281 -347q3 -14 28 -17h38q153 0 153 65q0 12 -10 20.5t-18 8.5q-11 0 -16.5 -13.5t-2.5 -24.5q-10 -9 -16 -9q-15 0 -24 21q-7 14 -7 22q0 23 24 38q21 13 40 13q36 0 57 -25q19 -21 19 -49q0 -71 -75 -100q-45 -17 -110 -17q6 0 -65 4q-78 4 -157 6
q-44 -3 -98 -6h-55q-5 5 -5 13q0 7 284 362q-7 12 -14 14h-23q-58 0 -98 -34q-21 -17 -52 -62q-23 -33 -39 -33q-23 0 -23 23q0 16 28 85q30 75 46 75q5 0 16.5 -13.5t16.5 -13.5l54 11.5t61 11.5l199 -11q5 0 45.5 2t44.5 2q30 0 35 -22zM542 588q3 -11 -16 -26
q-72 -40 -151 -84q-21 -9 -36 0q-46 37 -107 85q-8 8 -8 16q0 9 9.5 16.5t17.5 3.5q39 -19 124 -53q22 6 148 53q16 6 19 -11z" />
    <glyph glyph-name="ae" unicode="&#xe6;" horiz-adv-x="1061" 
d="M443 291q0 57 -49 57q-53 0 -92 -72q-34 -61 -34 -119q0 -24 15 -42t39 -18q56 0 92 73q29 59 29 121zM1040 289q0 -19 -156 -70q-98 -32 -197 -64q0 -32 41 -53q34 -18 69 -18q56 0 101 26t90 53q23 -9 23 -24q0 -64 -134 -110q-109 -38 -190 -38q-29 0 -69 15
q-45 18 -52 39q-9 0 -18 -47h-177l16 47l-7 4q-91 -56 -164 -56q-79 0 -126 36q-54 40 -54 116q0 129 84 211.5t214 82.5q77 0 134 -54l12 49h151q-3 -2 -3 -9q0 -1 -3 -8q-2 -6 0 -8q43 35 163 35q83 0 131 -25q56 -29 88 -99q33 -7 33 -31zM816 348q0 42 -34 42
q-44 0 -78 -59q-29 -52 -29 -99q0 -15 11 -15h5q95 11 116 83q9 32 9 48z" />
    <glyph glyph-name="oslash" unicode="&#xf8;" horiz-adv-x="615" 
d="M274 132l157 236q-75 -3 -120 -74q-39 -62 -39 -141q0 -11 2 -21zM420 264l-120 -177q31 -31 77 -31q61 0 100.5 46t39.5 107q0 22 -14.5 40.5t-36.5 18.5q-5 0 -15 -4.5t-16 -4.5q-9 0 -15 5zM504 477h61l-49 -73q16 -12 25 -28l-9 -18q33 -27 66 -53q24 -28 24 -84
q0 -99 -100 -167q-90 -61 -195 -61q-50 0 -88 4l-38 -54l-50 3l39 59q-159 34 -159 180q0 117 97 188q87 66 207 66q89 0 134 -13z" />
    <glyph glyph-name="questiondown" unicode="&#xbf;" horiz-adv-x="534" 
d="M39 -38q0 67 50 107q28 22 119 60t137 74q-4 27 -4 28q0 29 28 29q20 0 35 -25q12 -20 12 -34q0 -30 -34.5 -71.5t-67.5 -80.5q-35 -49 -35 -91q0 -38 25.5 -61t60.5 -23q28 0 55 15q36 19 36 50q0 21 -18 31t-18 22q0 27 32 27q29 0 43 -26q12 -21 12 -50
q0 -80 -93 -122q-68 -30 -143 -30q-82 0 -149 38q-83 48 -83 133zM283 368q0 41 40 67q33 21 72 21t76 -15q56 -24 56 -73q0 -47 -48 -71q-35 -18 -78 -18t-76 20q-42 24 -42 69z" />
    <glyph glyph-name="exclamdown" unicode="&#xa1;" horiz-adv-x="405" 
d="M-11 -180q37 74 69 212q28 119 58 159q48 62 159 62q84 0 84 -30q0 -4 -23 -42q-26 -42 -33 -72q-8 -36 -38 -148q-26 -100 -26 -104q0 -13 12 -13q34 0 53.5 29.5t33.5 29.5q23 0 23 -32q0 -35 -43 -56q-28 -9 -57 -19l-244 -1q-25 0 -28 25zM154 363q0 50 49 74
q34 17 77 17q40 0 75 -18q47 -24 47 -69q0 -48 -46 -72q-35 -18 -83 -18q-49 0 -80 18q-39 22 -39 68z" />
    <glyph glyph-name="logicalnot" unicode="&#xac;" 
 />
    <glyph glyph-name="florin" unicode="&#x192;" 
 />
    <glyph glyph-name="guillemotleft" unicode="&#xab;" horiz-adv-x="387" 
d="M359 428q5 2 10 2q10 0 13.5 -9t5.5 -9q-6 -2 -119 -143q35 -163 37 -165q-1 1 -7.5 -6t-14.5 -7q-6 0 -13 5q-30 18 -92 155q-17 12 -11 28q2 17 24 24q130 115 167 125zM197 428q5 2 10 2q10 0 13.5 -9t5.5 -9q-6 -2 -119 -143q35 -163 37 -165q-1 1 -7.5 -6t-14.5 -7
q-6 0 -13 5q-30 18 -92 155q-17 12 -11 28q2 17 24 24q130 115 167 125z" />
    <glyph glyph-name="guillemotright" unicode="&#xbb;" horiz-adv-x="387" 
d="M35 93q-6 -2 -11 -2q-10 0 -13.5 9.5t-4.5 8.5q5 2 118 143q-34 163 -37 165q1 -1 8 6t14 7q6 0 14 -5q29 -18 92 -155q17 -12 11 -28q-3 -16 -25 -24q-130 -115 -166 -125zM197 93q-6 -2 -11 -2q-10 0 -13.5 9.5t-4.5 8.5q5 2 118 143q-34 163 -37 165q1 -1 8 6t14 7
q6 0 14 -5q29 -18 92 -155q17 -12 11 -28q-3 -16 -25 -24q-130 -115 -166 -125z" />
    <glyph glyph-name="ellipsis" unicode="&#x2026;" horiz-adv-x="1163" 
d="M1095 73q-2 -40 -36 -62.5t-78 -23.5q-49 0 -84 24q-39 27 -38 69q2 39 37 63q32 22 77 23q49 0 84 -24q39 -27 38 -69zM695 73q-2 -40 -36 -62.5t-78 -23.5q-49 0 -84 24q-39 27 -38 69q2 39 37 63q32 22 77 23q49 0 84 -24q39 -27 38 -69zM295 73q-2 -40 -36 -62.5
t-78 -23.5q-49 0 -84 24q-39 27 -38 69q2 39 37 63q32 22 77 23q49 0 84 -24q39 -27 38 -69z" />
    <glyph glyph-name="nonbreakingspace" unicode="&#xa0;" 
 />
    <glyph glyph-name="Agrave" unicode="&#xc0;" horiz-adv-x="762" 
d="M457 405q0 71 -39 118q-43 52 -118 52q-47 0 -95 -24q-63 -32 -63 -87q0 -21 17.5 -38t38.5 -17q33 0 76 52.5t58 52.5q7 0 15 -7.5t8 -17.5q0 -8 -52 -82q-56 -78 -63 -99q-4 -11 17 -11l26 2q31 0 45 -1t12 -1q77 0 97 17.5t20 90.5zM166 145q-19 -38 -46 -82
q4 -14 57 -14q23 0 43 13t26 13t16.5 -10.5t10.5 -16.5q0 -24 -26 -41q-22 -15 -49 -15q-8 0 -15 2q-37 10 -70 10q-8 0 -86 -8q-6 -1 -18 6t-12 12q0 10 38 48q34 34 63 84q8 14 52 101q-6 2 -15 2q-27 0 -53.5 -27.5t-36.5 -27.5q-9 0 -18.5 10.5t-9.5 19.5q0 50 47 67
q44 8 89.5 17.5t45.5 45.5q0 2 -24 9q-29 8 -31 9q-55 23 -55 88q0 98 103 151q83 42 192 42q134 0 215 -54q95 -64 95 -191q0 -117 -70 -347l14 -4q19 0 38 16.5t30 16.5q8 0 16 -9.5t8 -17.5q0 -32 -37 -49q-30 -14 -65 -13q1 0 -46 -2q-53 -2 -93 -2q-126 0 -126 20
q0 30 36 112q34 78 30 116l2 2h-1h-99l-108 -1q-20 -34 -57 -101zM528 709q0 10 -17 19q-49 24 -140 67q-13 18 -43 18q-17 0 -30 -13t-13 -31q0 -31 43 -41q59 -8 171 -34q9 -3 19 1.5t10 13.5z" />
    <glyph glyph-name="Atilde" unicode="&#xc3;" horiz-adv-x="762" 
d="M457 405q0 71 -39 118q-43 52 -118 52q-47 0 -95 -24q-63 -32 -63 -87q0 -21 17.5 -38t38.5 -17q33 0 76 52.5t58 52.5q7 0 15 -7.5t8 -17.5q0 -8 -52 -82q-56 -78 -63 -99q-4 -11 17 -11l26 2q31 0 45 -1t12 -1q77 0 97 17.5t20 90.5zM219 247l-53 -102q-19 -38 -46 -82
q4 -14 57 -14q23 0 43 13t26 13t16.5 -10.5t10.5 -16.5q0 -24 -26 -41q-22 -15 -49 -15q-8 0 -15 2q-37 10 -70 10q-8 0 -86 -8q-6 -1 -18 6t-12 12q0 10 38 48q79 79 115 185q-6 2 -15 2q-27 0 -53.5 -27.5t-36.5 -27.5q-9 0 -18.5 10.5t-9.5 19.5q0 50 47 67
q44 8 89.5 17.5t45.5 45.5q0 2 -24 9q-29 8 -31 9q-55 23 -55 88q0 98 103 151q83 42 192 42q134 0 215 -54q95 -64 95 -191q0 -117 -70 -347l14 -4q19 0 38 16.5t30 16.5q8 0 16 -9.5t8 -17.5q0 -32 -37 -49q-30 -14 -65 -13q1 0 -46 -2q-53 -2 -93 -2q-126 0 -126 20
q0 30 36 112q34 78 30 116l2 2h-1h-211zM351 747q-19 0 -53 -15.5t-50 -16.5q-7 6 -7 13q0 23 50 53q47 28 73 28q24 0 71.5 -15t72.5 -15q18 0 61 16.5t42 16.5q10 0 10 -9q0 -25 -44.5 -57t-71.5 -32q-26 0 -77 16.5t-77 16.5z" />
    <glyph glyph-name="Otilde" unicode="&#xd5;" horiz-adv-x="755" 
d="M728 332q0 -179 -131 -272q-108 -77 -269 -77q-143 0 -224 75q-85 77 -85 221q0 185 146 298q129 100 304 100q86 0 151 -35q89 -46 89 -139q0 -42 -23 -73q-26 -35 -71 -35q-25 0 -49 15q-29 18 -29 46q0 12 9 21t16 9q11 0 20.5 -17t27.5 -17q42 0 42 48q0 78 -105 78
q-124 0 -203 -121q-66 -101 -66 -211q0 -73 37 -123q43 -56 118 -56q101 0 171 86q67 83 67 194q0 23 -3 46q-3 17 22 17q18 0 29 -31q9 -25 9 -47zM391 747q-19 0 -53 -15.5t-50 -16.5q-7 6 -7 13q0 23 50 53q47 28 73 28q24 0 71.5 -15t72.5 -15q18 0 61 16.5t42 16.5
q10 0 10 -9q0 -25 -44.5 -57t-71.5 -32q-26 0 -77 16.5t-77 16.5z" />
    <glyph glyph-name="OE" unicode="&#x152;" horiz-adv-x="1194" 
d="M554 106q-21 37 -21 86q0 59 30 111q35 60 98 84q4 1 7 6q-1 3 0 6q-6 4 -9 7q-20 -11 -44 -11q-25 0 -49 15q-29 18 -29 46q0 12 9 21t16 9q11 0 20.5 -17t27.5 -17q13 0 23 6q-2 11 -2 20q0 32 11 59q-23 41 -95 41q-124 0 -203 -121q-66 -101 -66 -211q0 -73 37 -123
q43 -56 118 -56q66 0 121 39zM1187 626q0 -5 -25.5 -83.5t-30.5 -87.5q-17 -26 -39 -26q-30 0 -30 31q0 8 18 29t18 37q0 33 -38 52q-28 14 -56 14q-39 0 -79 -32q-44 -35 -44 -80q0 -41 38 -56q7 -2 70 -12q37 -6 37 -27q0 -25 -13 -25q-104 -2 -163 -40q-67 -44 -67 -130
q0 -122 147 -122q55 0 102 20q69 30 69 92q0 22 -14.5 40t-38.5 18q-28 0 -36 -17q-3 -5 -6 -31q-2 -16 -15 -16q-15 0 -25 13.5t-10 29.5q0 36 29 59q26 20 59 20q47 0 78 -31t31 -78q0 -192 -315 -192q-163 0 -243 64q-108 -76 -267 -76q-143 0 -224 75q-85 77 -85 221
q0 185 146 298q129 100 304 100q58 0 111 -18q68 -22 101 -67q79 73 223 73q20 0 35 -3q70 -10 127 -31q50 -18 49 -18q5 0 20 18.5t27 18.5q9 0 17 -8t8 -16z" />
    <glyph glyph-name="oe" unicode="&#x153;" horiz-adv-x="1126" 
d="M515 209q0 59 -49 59q-5 0 -15 -4.5t-16 -4.5q-27 0 -27 33q0 52 84 68q-12 8 -54 8q-78 0 -125 -72q-41 -63 -41 -143q0 -42 31.5 -69.5t73.5 -27.5q62 0 100 45t38 108zM1120 289q0 -19 -155 -70l-198 -64q0 -32 41 -53q34 -18 69 -18q56 0 101 26t90 53q23 -9 23 -24
q0 -64 -134 -110q-109 -38 -190 -38q-156 0 -221 81q-40 -34 -102.5 -56.5t-116.5 -22.5q-130 0 -198 32q-98 45 -98 160q0 117 99 190q91 67 211 67q167 0 200 -66l-9 -18l31 -22q93 108 305 108q83 0 131 -25q56 -29 88 -99q33 -7 33 -31zM896 348q0 42 -34 42
q-44 0 -78 -59q-29 -52 -29 -99q0 -15 11 -15h5q95 11 116 83q9 32 9 48z" />
    <glyph glyph-name="endash" unicode="&#x2013;" horiz-adv-x="611" 
d="M549 294q-8 -31 -36 -67q-43 -54 -102 -54h-408q19 85 65 109q25 13 97 12h384z" />
    <glyph glyph-name="emdash" unicode="&#x2014;" horiz-adv-x="998" 
d="M989 294q-8 -31 -36 -67q-43 -54 -102 -54h-848q19 85 65 109q25 13 97 12h824z" />
    <glyph glyph-name="quotedblleft" unicode="&#x201c;" horiz-adv-x="509" 
d="M-2 489q0 37 29 76q25 33 74 60q62 33 97 33q13 0 16 -12q4 -15 -31 -30q-39 -17 -47 -39q-4 -12 27.5 -34t28.5 -50q-4 -36 -34.5 -54.5t-69.5 -15.5q-34 2 -62 21t-28 45zM236 489q0 37 29 76q25 33 74 60q62 33 97 33q13 0 16 -12q4 -15 -31 -30q-39 -17 -47 -39
q-4 -12 27.5 -34t28.5 -50q-4 -36 -34.5 -54t-69.5 -16q-34 2 -62 21t-28 45z" />
    <glyph glyph-name="quotedblright" unicode="&#x201d;" horiz-adv-x="509" 
d="M452 592q0 -37 -29 -76q-24 -34 -74 -60q-62 -33 -97 -33q-13 0 -16 11q-3 16 31 30q40 18 47 40q4 11 -26 33q-33 23 -30 51q4 36 36 55q29 17 69 15q34 -2 61.5 -21t27.5 -45zM214 592q0 -37 -29 -76q-24 -34 -74 -60q-62 -33 -97 -33q-13 0 -16 11q-3 16 31 30
q40 18 47 40q4 11 -26 33q-33 23 -30 51q4 36 36 55q29 17 69 15q34 -2 61.5 -21t27.5 -45z" />
    <glyph glyph-name="quoteleft" unicode="&#x2018;" horiz-adv-x="264" 
d="M-2 489q0 37 29 76q25 33 74 60q62 33 97 33q13 0 16 -12q4 -15 -31 -30q-39 -17 -47 -39q-4 -12 27.5 -34t28.5 -50q-4 -36 -34.5 -54.5t-69.5 -15.5q-34 2 -62 21t-28 45z" />
    <glyph glyph-name="quoteright" unicode="&#x2019;" horiz-adv-x="264" 
d="M214 592q0 -37 -29 -76q-24 -34 -74 -60q-62 -33 -97 -33q-13 0 -16 11q-3 16 31 30q40 18 47 40q4 11 -26 33q-33 23 -30 51q4 36 36 55q29 17 69 15q34 -2 61.5 -21t27.5 -45z" />
    <glyph glyph-name="ydieresis" unicode="&#xff;" horiz-adv-x="656" 
d="M717 411q0 -6 -39 -56q-49 -61 -54 -69q-16 -23 -105 -184q-67 -120 -125 -175q-81 -79 -184 -79q-51 0 -94 26q-54 31 -54 88q0 37 28 61q24 20 54 20q29 0 49.5 -17.5t20.5 -42.5q0 -13 -18 -29q-5 4 -24 28q-8 11 -25 11q-16 0 -27.5 -11t-11.5 -24q0 -31 39 -50
q28 -13 53 -13q37 0 79 13q56 17 56 44q0 5 -15 29q-18 30 -23 40q-44 91 -77 250q-7 33 -27 57q-24 27 -53 27q-22 0 -36.5 -10.5t-14.5 -28.5q0 -27 25 -27q5 0 14.5 4t13.5 4q9 -8 9 -20q0 -35 -41 -35q-34 0 -53 29q-15 23 -15 51q0 67 63 98q44 22 104 22
q123 0 181 -68q48 -57 92 -221q21 14 49 67q52 99 88 158q-10 10 -31 10q-24 0 -40 -12t-22 -12q-9 0 -16.5 12t-7.5 16q0 21 24 33q19 10 43 10q-9 0 28 -2t107 -2q13 -5 13 -20zM588 547q0 -28 -32 -44q-26 -14 -57 -14q-51 0 -51 35q0 28 40 45q29 12 54 12
q19 0 32.5 -10t13.5 -24zM384 547q0 -28 -32 -44q-26 -14 -57 -14q-51 0 -51 35q0 28 40 45q29 12 54 12q19 0 32.5 -10t13.5 -24z" />
    <glyph glyph-name="Ydieresis" unicode="&#x178;" horiz-adv-x="761" 
d="M754 626q0 4 -89 -101q-123 -144 -172 -200q-174 -196 -250 -256q19 -5 40 -11t76 -6q31 0 46.5 20.5t21.5 20.5q14 0 23.5 -13t9.5 -28q0 -34 -42 -49q-25 -10 -56 -10q-4 0 -80.5 5.5t-80.5 5.5q-5 0 -44 -3.5t-43 -3.5q-26 0 -26 24q0 12 85 68t85 73q0 4 -19.5 31
t-23.5 37q-21 44 -36 133q-16 94 -27 121q-20 53 -64 53q-36 0 -36 -25q0 -28 25 -28q5 0 11 2q0 -2 2 -6.5t2 -10.5q0 -14 -12 -22.5t-26 -8.5q-27 0 -49 28q-19 24 -19 44q0 65 59 107q53 38 115 38q130 0 184 -65q47 -57 89 -240l207 229q-14 12 -74 13q-33 0 -48.5 -18
t-19.5 -18q-12 0 -21.5 11.5t-9.5 23.5q0 35 36 51q22 9 49 9l44 -5t64 -5q8 0 37 3q25 3 39 2q18 -1 18 -20zM588 757q0 -28 -32 -44q-26 -14 -57 -14q-51 0 -51 35q0 28 40 45q29 12 54 12q19 0 32.5 -10t13.5 -24zM384 757q0 -28 -32 -44q-26 -14 -57 -14q-51 0 -51 35
q0 28 40 45q29 12 54 12q19 0 32.5 -10t13.5 -24z" />
    <glyph glyph-name="guilsinglleft" unicode="&#x2039;" horiz-adv-x="265" 
d="M237 428q5 2 10 2q10 0 13.5 -9t5.5 -9q-6 -2 -119 -143q35 -163 37 -165q-1 1 -7.5 -6t-14.5 -7q-6 0 -13 5q-30 18 -92 155q-17 12 -11 28q2 17 24 24q130 115 167 125z" />
    <glyph glyph-name="guilsinglright" unicode="&#x203a;" horiz-adv-x="265" 
d="M75 93q-6 -2 -11 -2q-10 0 -13.5 9.5t-4.5 8.5q5 2 118 143q-34 163 -37 165q1 -1 8 6t14 7q6 0 14 -5q29 -18 92 -155q17 -12 11 -28q-3 -16 -25 -24q-130 -115 -166 -125z" />
    <glyph glyph-name="periodcentered" unicode="&#xb7;" horiz-adv-x="303" 
d="M81 269q0 23 17.5 39t42.5 16t43 -16t18 -39t-18 -39.5t-43 -16.5t-42.5 16.5t-17.5 39.5z" />
    <glyph glyph-name="periodcentered" unicode="&#x2219;" horiz-adv-x="303" 
d="M81 269q0 23 17.5 39t42.5 16t43 -16t18 -39t-18 -39.5t-43 -16.5t-42.5 16.5t-17.5 39.5z" />
    <glyph glyph-name="quotesinglbase" unicode="&#x201a;" horiz-adv-x="270" 
d="M242 81q0 -44 -34 -90q-29 -39 -87 -70q-73 -39 -114 -39q-16 0 -19 14q-4 18 36 35q47 20 56 47q5 13 -32 39t-34 59q5 42 42 65q34 20 81 17q40 -2 72.5 -24.5t32.5 -52.5z" />
    <glyph glyph-name="quotedblbase" unicode="&#x201e;" horiz-adv-x="565" 
d="M522 81q0 -44 -34 -90q-29 -39 -87 -70q-73 -39 -114 -39q-16 0 -19 14q-4 18 36 35q47 20 56 47q5 13 -32 39t-34 59q5 42 42 65q34 20 81 17q40 -2 72.5 -24.5t32.5 -52.5zM242 81q0 -44 -34 -90q-29 -39 -87 -70q-73 -39 -114 -39q-16 0 -19 14q-4 18 36 35
q47 20 56 47q5 13 -32 39t-34 59q5 42 42 65q34 20 81 17q40 -2 72.5 -24.5t32.5 -52.5z" />
    <glyph glyph-name="perthousand" unicode="&#x2030;" 
 />
    <glyph glyph-name="Acircumflex" unicode="&#xc2;" horiz-adv-x="762" 
d="M457 405q0 71 -39 118q-43 52 -118 52q-47 0 -95 -24q-63 -32 -63 -87q0 -21 17.5 -38t38.5 -17q33 0 76 52.5t58 52.5q7 0 15 -7.5t8 -17.5q0 -8 -52 -82q-56 -78 -63 -99q-4 -11 17 -11l26 2q31 0 45 -1t12 -1q77 0 97 17.5t20 90.5zM166 145q-19 -38 -46 -82
q4 -14 57 -14q23 0 43 13t26 13t16.5 -10.5t10.5 -16.5q0 -24 -26 -41q-22 -15 -49 -15q-8 0 -15 2q-37 10 -70 10q-8 0 -86 -8q-6 -1 -18 6t-12 12q0 10 38 48q79 79 115 185q-6 2 -15 2q-27 0 -53.5 -27.5t-36.5 -27.5q-9 0 -18.5 10.5t-9.5 19.5q0 50 47 67
q44 8 89.5 17.5t45.5 45.5q0 2 -24 9q-29 8 -31 9q-55 23 -55 88q0 98 103 151q83 42 192 42q134 0 215 -54q95 -64 95 -191q0 -117 -70 -347l14 -4q19 0 38 16.5t30 16.5q8 0 16 -9.5t8 -17.5q0 -32 -37 -49q-30 -14 -65 -13q1 0 -46 -2q-53 -2 -93 -2q-126 0 -126 20
q0 30 36 112q34 78 30 116l2 2h-1h-99l-111 -1q-18 -34 -54 -101zM235 696q-2 12 17 28q77 43 161 89q22 9 38 0q49 -39 114 -90q9 -8 9 -17q0 -10 -10.5 -17.5t-19.5 -3.5q-41 20 -132 56q-22 -6 -157 -56q-17 -6 -20 11z" />
    <glyph glyph-name="Ecircumflex" unicode="&#xca;" horiz-adv-x="674" 
d="M676 622q0 -5 -25 -83.5t-31 -87.5q-16 -26 -38 -26q-31 0 -31 31q0 8 18 29t18 37q0 33 -37 52q-29 14 -56 14q-39 0 -79 -32q-44 -35 -44 -80q0 -41 37 -56q8 -3 70 -12q38 -6 38 -27q0 -25 -14 -25q-103 -2 -163 -40q-66 -44 -66 -130q0 -122 147 -122q55 0 102 20
q69 30 69 92q0 22 -14.5 40t-38.5 18q-28 0 -37 -17q-2 -5 -6 -31q-2 -16 -14 -16q-15 0 -25 13.5t-10 29.5q0 36 29 59q26 20 59 20q47 0 78 -31.5t31 -77.5q0 -192 -316 -192q-112 0 -188 32q-117 49 -117 165q0 60 38 112q41 59 111 81q0 4 -11 12q-15 10 -21 18
q-18 24 -18 63q0 97 99 148q77 38 173 38q20 0 36 -2q70 -10 127 -31q50 -18 49 -18q5 0 19.5 18t26.5 18q10 0 17.5 -7.5t7.5 -15.5zM235 696q-2 12 17 28q77 43 161 89q22 9 38 0q49 -39 114 -90q9 -8 9 -17q0 -10 -10.5 -17.5t-19.5 -3.5q-41 20 -132 56q-22 -6 -157 -56
q-17 -6 -20 11z" />
    <glyph glyph-name="Aacute" unicode="&#xc1;" horiz-adv-x="762" 
d="M457 405q0 71 -39 118q-43 52 -118 52q-47 0 -95 -24q-63 -32 -63 -87q0 -21 17.5 -38t38.5 -17q33 0 76 52.5t58 52.5q7 0 15 -7.5t8 -17.5q0 -8 -52 -82q-56 -78 -63 -99q-4 -11 17 -11l26 2q31 0 45 -1t12 -1q77 0 97 17.5t20 90.5zM219 247l-53 -102q-19 -38 -46 -82
q4 -14 57 -14q23 0 43 13t26 13t16.5 -10.5t10.5 -16.5q0 -24 -26 -41q-22 -15 -49 -15q-8 0 -15 2q-37 10 -70 10q-8 0 -86 -8q-6 -1 -18 6t-12 12q0 10 38 48q79 79 115 185q-6 2 -15 2q-27 0 -53.5 -27.5t-36.5 -27.5q-9 0 -18.5 10.5t-9.5 19.5q0 50 47 67
q44 8 89.5 17.5t45.5 45.5q0 2 -24 9q-29 8 -31 9q-55 23 -55 88q0 98 103 151q83 42 192 42q134 0 215 -54q95 -64 95 -191q0 -117 -70 -347l14 -4q19 0 38 16.5t30 16.5q8 0 16 -9.5t8 -17.5q0 -32 -37 -49q-30 -14 -65 -13q1 0 -46 -2q-53 -2 -93 -2q-126 0 -126 20
q0 30 36 112q34 78 30 116l2 2h-1h-211zM292 709q0 10 16 19q49 24 141 67q12 18 42 18q18 0 30.5 -13t12.5 -31q0 -31 -43 -41q-58 -8 -171 -34q-8 -3 -18 1.5t-10 13.5z" />
    <glyph glyph-name="Edieresis" unicode="&#xcb;" horiz-adv-x="674" 
d="M676 622q0 -5 -25 -83.5t-31 -87.5q-16 -26 -38 -26q-31 0 -31 31q0 8 18 29t18 37q0 33 -37 52q-29 14 -56 14q-39 0 -79 -32q-44 -35 -44 -80q0 -41 37 -56q8 -3 70 -12q38 -6 38 -27q0 -25 -14 -25q-103 -2 -163 -40q-66 -44 -66 -130q0 -122 147 -122q55 0 102 20
q69 30 69 92q0 22 -14.5 40t-38.5 18q-28 0 -37 -17q-2 -5 -6 -31q-2 -16 -14 -16q-15 0 -25 13.5t-10 29.5q0 36 29 59q26 20 59 20q47 0 78 -31.5t31 -77.5q0 -192 -316 -192q-112 0 -188 32q-117 49 -117 165q0 60 38 112q41 59 111 81q0 4 -11 12q-15 10 -21 18
q-18 24 -18 63q0 97 99 148q77 38 173 38q20 0 36 -2q70 -10 127 -31q50 -18 49 -18q5 0 19.5 18t26.5 18q10 0 17.5 -7.5t7.5 -15.5zM608 757q0 -28 -32 -44q-26 -14 -57 -14q-51 0 -51 35q0 28 40 45q29 12 54 12q19 0 32.5 -10t13.5 -24zM404 757q0 -28 -32 -44
q-26 -14 -57 -14q-51 0 -51 35q0 28 40 45q29 12 54 12q19 0 32.5 -10t13.5 -24z" />
    <glyph glyph-name="Egrave" unicode="&#xc8;" horiz-adv-x="674" 
d="M676 622q0 -5 -25 -83.5t-31 -87.5q-16 -26 -38 -26q-31 0 -31 31q0 8 18 29t18 37q0 33 -37 52q-29 14 -56 14q-39 0 -79 -32q-44 -35 -44 -80q0 -41 37 -56q8 -3 70 -12q38 -6 38 -27q0 -25 -14 -25q-103 -2 -163 -40q-66 -44 -66 -130q0 -122 147 -122q55 0 102 20
q69 30 69 92q0 22 -14.5 40t-38.5 18q-28 0 -37 -17q-2 -5 -6 -31q-2 -16 -14 -16q-15 0 -25 13.5t-10 29.5q0 36 29 59q26 20 59 20q47 0 78 -31.5t31 -77.5q0 -192 -316 -192q-112 0 -188 32q-117 49 -117 165q0 60 38 112q41 59 111 81q0 4 -11 12q-15 10 -21 18
q-18 24 -18 63q0 97 99 148q77 38 173 38q20 0 36 -2q70 -10 127 -31q50 -18 49 -18q5 0 19.5 18t26.5 18q10 0 17.5 -7.5t7.5 -15.5zM528 709q0 10 -17 19q-49 24 -140 67q-13 18 -43 18q-17 0 -30 -13t-13 -31q0 -31 43 -41q59 -8 171 -34q9 -3 19 1.5t10 13.5z" />
    <glyph glyph-name="Iacute" unicode="&#xcd;" horiz-adv-x="435" 
d="M202 594l-24 7q-33 0 -57.5 -17.5t-31.5 -17.5t-20 11.5t-13 17.5q0 35 47 52q37 14 76 11q161 -12 268 -4q8 1 19 -6.5t12 -15.5q-75 -116 -104 -288q-16 -75 -32 -149q-23 -100 -51 -136l12 -5q18 0 36.5 16.5t28.5 16.5t17 -10.5t7 -20.5q0 -34 -40 -49
q-31 -11 -69 -8q-52 3 -243 3q-7 0 -15 7.5t-8 14.5q0 10 28 48.5t33 52.5q11 33 32 111q23 88 24 105q25 97 68 253zM222 709q0 10 16 19q49 24 141 67q12 18 42 18q18 0 30.5 -13t12.5 -31q0 -31 -43 -41q-58 -8 -171 -34q-8 -3 -18 1.5t-10 13.5z" />
    <glyph glyph-name="Icircumflex" unicode="&#xce;" horiz-adv-x="435" 
d="M202 594l-24 7q-33 0 -57.5 -17.5t-31.5 -17.5t-20 11.5t-13 17.5q0 35 47 52q37 14 76 11q161 -12 268 -4q8 1 19 -6.5t12 -15.5q-75 -116 -104 -288q-16 -75 -32 -149q-23 -100 -51 -136l12 -5q18 0 36.5 16.5t28.5 16.5t17 -10.5t7 -20.5q0 -34 -40 -49
q-31 -11 -69 -8q-52 3 -243 3q-7 0 -15 7.5t-8 14.5q0 10 28 48.5t33 52.5q11 33 32 111q23 88 24 105q25 97 68 253zM135 696q-2 12 17 28q77 43 161 89q22 9 38 0q49 -39 114 -90q9 -8 9 -17q0 -10 -10.5 -17.5t-19.5 -3.5q-41 20 -132 56q-22 -6 -157 -56q-17 -6 -20 11z
" />
    <glyph glyph-name="Idieresis" unicode="&#xcf;" horiz-adv-x="435" 
d="M202 594l-24 7q-33 0 -57.5 -17.5t-31.5 -17.5t-20 11.5t-13 17.5q0 35 47 52q37 14 76 11q161 -12 268 -4q8 1 19 -6.5t12 -15.5q-75 -116 -104 -288q-16 -75 -32 -149q-23 -100 -51 -136l12 -5q18 0 36.5 16.5t28.5 16.5t17 -10.5t7 -20.5q0 -34 -40 -49
q-31 -11 -69 -8q-52 3 -243 3q-7 0 -15 7.5t-8 14.5q0 10 28 48.5t33 52.5q11 33 32 111q23 88 24 105q25 97 68 253zM508 757q0 -28 -32 -44q-26 -14 -57 -14q-51 0 -51 35q0 28 40 45q29 12 54 12q19 0 32.5 -10t13.5 -24zM304 757q0 -28 -32 -44q-26 -14 -57 -14
q-51 0 -51 35q0 28 40 45q29 12 54 12q19 0 32.5 -10t13.5 -24z" />
    <glyph glyph-name="Igrave" unicode="&#xcc;" horiz-adv-x="435" 
d="M202 594l-24 7q-33 0 -57.5 -17.5t-31.5 -17.5t-20 11.5t-13 17.5q0 35 47 52q37 14 76 11q161 -12 268 -4q8 1 19 -6.5t12 -15.5q-75 -116 -104 -288q-16 -75 -32 -149q-23 -100 -51 -136l12 -5q18 0 36.5 16.5t28.5 16.5t17 -10.5t7 -20.5q0 -34 -40 -49
q-31 -11 -69 -8q-52 3 -243 3q-7 0 -15 7.5t-8 14.5q0 10 28 48.5t33 52.5q11 33 32 111q23 88 24 105q25 97 68 253zM438 709q0 10 -17 19q-49 24 -140 67q-13 18 -43 18q-17 0 -30 -13t-13 -31q0 -31 43 -41q59 -8 171 -34q9 -3 19 1.5t10 13.5z" />
    <glyph glyph-name="Oacute" unicode="&#xd3;" horiz-adv-x="755" 
d="M728 332q0 -179 -131 -272q-108 -77 -269 -77q-143 0 -224 75q-85 77 -85 221q0 185 146 298q129 100 304 100q86 0 151 -35q89 -46 89 -139q0 -42 -23 -73q-26 -35 -71 -35q-25 0 -49 15q-29 18 -29 46q0 12 9 21t16 9q11 0 20.5 -17t27.5 -17q42 0 42 48q0 78 -105 78
q-124 0 -203 -121q-66 -101 -66 -211q0 -73 37 -123q43 -56 118 -56q101 0 171 86q67 83 67 194q0 23 -3 46q-3 17 22 17q18 0 29 -31q9 -25 9 -47zM312 709q0 10 16 19q49 24 141 67q12 18 42 18q18 0 30.5 -13t12.5 -31q0 -31 -43 -41q-58 -8 -171 -34q-8 -3 -18 1.5
t-10 13.5z" />
    <glyph glyph-name="Ocircumflex" unicode="&#xd4;" horiz-adv-x="755" 
d="M728 332q0 -179 -131 -272q-108 -77 -269 -77q-143 0 -224 75q-85 77 -85 221q0 185 146 298q129 100 304 100q86 0 151 -35q89 -46 89 -139q0 -42 -23 -73q-26 -35 -71 -35q-25 0 -49 15q-29 18 -29 46q0 12 9 21t16 9q11 0 20.5 -17t27.5 -17q42 0 42 48q0 78 -105 78
q-124 0 -203 -121q-66 -101 -66 -211q0 -73 37 -123q43 -56 118 -56q101 0 171 86q67 83 67 194q0 23 -3 46q-3 17 22 17q18 0 29 -31q9 -25 9 -47zM315 696q-2 12 17 28q77 43 161 89q22 9 38 0q49 -39 114 -90q9 -8 9 -17q0 -10 -10.5 -17.5t-19.5 -3.5q-41 20 -132 56
q-22 -6 -157 -56q-17 -6 -20 11z" />
    <glyph glyph-name="Ograve" unicode="&#xd2;" horiz-adv-x="755" 
d="M728 332q0 -179 -131 -272q-108 -77 -269 -77q-143 0 -224 75q-85 77 -85 221q0 185 146 298q129 100 304 100q86 0 151 -35q89 -46 89 -139q0 -42 -23 -73q-26 -35 -71 -35q-25 0 -49 15q-29 18 -29 46q0 12 9 21t16 9q11 0 20.5 -17t27.5 -17q42 0 42 48q0 78 -105 78
q-124 0 -203 -121q-66 -101 -66 -211q0 -73 37 -123q43 -56 118 -56q101 0 171 86q67 83 67 194q0 23 -3 46q-3 17 22 17q18 0 29 -31q9 -25 9 -47zM628 719q0 10 -17 19q-49 24 -140 67q-13 18 -43 18q-17 0 -30 -13t-13 -31q0 -31 43 -41q59 -8 171 -34q9 -3 19 1.5
t10 13.5z" />
    <glyph glyph-name="Uacute" unicode="&#xda;" horiz-adv-x="788" 
d="M767 568q-31 -57 -69 -244q-48 -232 -57 -266q6 -12 22 -14q-1 0 18 0q30 0 71 26q6 4 7 4q23 0 23 -23q0 -52 -95 -52h-277q-5 0 -12 6.5t-7 10.5t11.5 23t0.5 34q-72 -51 -109 -66.5t-89 -15.5q-78 0 -123 47t-45 125q0 105 42 224q38 106 100 199q-6 19 -26 19
q-35 0 -64 -29q-5 -5 -17 -20l-6 -7q-29 0 -29 27q0 43 55 61q37 12 80 10l150 -7q5 -1 47 2t46 3q10 0 17 -7t7 -10l-1 -1l-5 -10q-41 -74 -75 -149q-84 -184 -84 -278q0 -27 34 -47q26 -17 42 -17q67 0 106 109q9 38 28 117q14 61 29 122t46 119q28 54 161 54
q83 0 102 -23q-15 -12 -30 -25t-25 -31zM372 709q0 10 16 19q49 24 141 67q12 18 42 18q18 0 30.5 -13t12.5 -31q0 -31 -43 -41q-58 -8 -171 -34q-8 -3 -18 1.5t-10 13.5z" />
    <glyph glyph-name="Ucircumflex" unicode="&#xdb;" horiz-adv-x="788" 
d="M767 568q-31 -57 -69 -244q-48 -232 -57 -266q6 -12 22 -14q-1 0 18 0q30 0 71 26q6 4 7 4q23 0 23 -23q0 -52 -95 -52h-277q-5 0 -12 6.5t-7 10.5t11.5 23t0.5 34q-72 -51 -109 -66.5t-89 -15.5q-78 0 -123 47t-45 125q0 105 42 224q38 106 100 199q-6 19 -26 19
q-35 0 -64 -29q-5 -5 -17 -20l-6 -7q-29 0 -29 27q0 43 55 61q37 12 80 10l150 -7q5 -1 47 2t46 3q10 0 17 -7t7 -10l-1 -1l-5 -10q-41 -74 -75 -149q-84 -184 -84 -278q0 -27 34 -47q26 -17 42 -17q67 0 106 109q9 38 28 117q14 61 29 122t46 119q28 54 161 54
q83 0 102 -23q-15 -12 -30 -25t-25 -31zM315 696q-2 12 17 28q77 43 161 89q22 9 38 0q49 -39 114 -90q9 -8 9 -17q0 -10 -10.5 -17.5t-19.5 -3.5q-41 20 -132 56q-22 -6 -157 -56q-17 -6 -20 11z" />
    <glyph glyph-name="Ugrave" unicode="&#xd9;" horiz-adv-x="788" 
d="M767 568q-31 -57 -69 -244q-48 -232 -57 -266q6 -12 22 -14q-1 0 18 0q30 0 71 26q6 4 7 4q23 0 23 -23q0 -52 -95 -52h-277q-5 0 -12 6.5t-7 10.5t11.5 23t0.5 34q-72 -51 -109 -66.5t-89 -15.5q-78 0 -123 47t-45 125q0 105 42 224q38 106 100 199q-6 19 -26 19
q-35 0 -64 -29q-5 -5 -17 -20l-6 -7q-29 0 -29 27q0 43 55 61q37 12 80 10l150 -7q5 -1 47 2t46 3q10 0 17 -7t7 -10l-1 -1l-5 -10q-41 -74 -75 -149q-84 -184 -84 -278q0 -27 34 -47q26 -17 42 -17q67 0 106 109q9 38 28 117q14 61 29 122t46 119q28 54 161 54
q83 0 102 -23q-15 -12 -30 -25t-25 -31zM608 709q0 10 -17 19q-49 24 -140 67q-13 18 -43 18q-17 0 -30 -13t-13 -31q0 -31 43 -41q59 -8 171 -34q9 -3 19 1.5t10 13.5z" />
    <glyph glyph-name="circumflex" unicode="&#x2c6;" horiz-adv-x="762" 
d="M235 696q-2 12 17 28q77 43 161 89q22 9 38 0q49 -39 114 -90q9 -8 9 -17q0 -10 -10.5 -17.5t-19.5 -3.5q-41 20 -132 56q-22 -6 -157 -56q-17 -6 -20 11z" />
    <glyph glyph-name="tilde" unicode="&#x2dc;" horiz-adv-x="513" 
d="M161 747q-19 0 -53 -15.5t-50 -16.5q-7 6 -7 13q0 23 50 53q47 28 73 28q24 0 71.5 -15t72.5 -15q18 0 61 16.5t42 16.5q10 0 10 -9q0 -25 -44.5 -57t-71.5 -32q-26 0 -77 16.5t-77 16.5z" />
    <glyph glyph-name="macron" unicode="&#xaf;" horiz-adv-x="359" 
d="M25 814h279q21 0 21 -21v-13q0 -21 -21 -21h-279q-21 0 -21 21v13q0 21 21 21z" />
    <glyph glyph-name="macron" unicode="&#x2c9;" horiz-adv-x="359" 
d="M25 814h279q21 0 21 -21v-13q0 -21 -21 -21h-279q-21 0 -21 21v13q0 21 21 21z" />
    <glyph glyph-name="cedilla" unicode="&#xb8;" horiz-adv-x="212" 
d="M95 -28l8 33q3 15 18 14h6q15 -1 12 -16l-7 -23q-1 -6 -3 -12q14 1 32.5 -4t18.5 -28q0 -41 -39 -76q-25 -22 -64 -20q-10 0 -25 2q-21 5 -27 11q-12 11 -12 21q0 9 10 21q7 3 12 2q6 -5 11 -10q12 -10 28 -8q17 3 24 8t6 5q16 16 16 31q0 27 -35 27q4 7 10 22z" />
    <glyph glyph-name="Scaron" unicode="&#x160;" 
 />
    <glyph glyph-name="scaron" unicode="&#x161;" 
 />
    <glyph glyph-name="brokenbar" unicode="&#xa6;" 
 />
    <glyph glyph-name="Eth" unicode="&#xd0;" 
 />
    <glyph glyph-name="eth" unicode="&#xf0;" 
 />
    <glyph glyph-name="Yacute" unicode="&#xdd;" 
 />
    <glyph glyph-name="yacute" unicode="&#xfd;" 
 />
    <glyph glyph-name="Thorn" unicode="&#xde;" 
 />
    <glyph glyph-name="thorn" unicode="&#xfe;" 
 />
    <glyph glyph-name="minus" unicode="&#xad;" 
 />
    <glyph glyph-name="minus" unicode="&#x2212;" 
 />
    <glyph glyph-name="multiply" unicode="&#xd7;" 
 />
    <glyph glyph-name="onesuperior" unicode="&#xb9;" 
 />
    <glyph glyph-name="twosuperior" unicode="&#xb2;" 
 />
    <glyph glyph-name="threesuperior" unicode="&#xb3;" 
 />
    <glyph glyph-name="onehalf" unicode="&#xbd;" 
 />
    <glyph glyph-name="onequarter" unicode="&#xbc;" 
 />
    <glyph glyph-name="threequarters" unicode="&#xbe;" 
 />
    <glyph glyph-name=".null" 
 />
    <glyph glyph-name="Lslash" unicode="&#x141;" 
 />
    <glyph glyph-name="lslash" unicode="&#x142;" 
 />
    <glyph glyph-name="HT" 
 />
    <glyph glyph-name="LF" 
 />
    <glyph glyph-name="nonmarkingreturn" 
 />
    <glyph glyph-name="Zcaron" unicode="&#x17d;" 
 />
    <glyph glyph-name="zcaron" unicode="&#x17e;" 
 />
    <glyph glyph-name="DLE" 
 />
    <glyph glyph-name="DC1" 
 />
    <glyph glyph-name="DC2" 
 />
    <glyph glyph-name="DC3" 
 />
    <glyph glyph-name="DC4" 
 />
    <glyph glyph-name="RS" 
 />
    <glyph glyph-name="US" 
 />
    <glyph glyph-name="notequal" unicode="&#x2260;" 
 />
    <glyph glyph-name="infinity" unicode="&#x221e;" 
 />
    <glyph glyph-name="lessequal" unicode="&#x2264;" 
 />
    <glyph glyph-name="greaterequal" unicode="&#x2265;" 
 />
    <glyph glyph-name="partialdiff" unicode="&#x2202;" horiz-adv-x="392" 
d="M27 246l69 20q21 108 68 321q2 4 -7 7.5t-14 3.5q-24 0 -44.5 -15t-29.5 -15q-10 0 -17 8.5t-7 18.5q0 55 107 55q16 0 40 -1.5t29 -1.5h59l76 9q13 1 24 -7.5t11 -21.5q0 -21 -63 -293l80 23l-19 -62l-75 -23l-23 -97q-14 -42 -30 -115l15 -5q27 0 41.5 16t23.5 16
q11 0 19.5 -8.5t8.5 -18.5q0 -32 -39 -48q-31 -12 -67 -10l-132 8q-16 0 -47.5 -6t-46.5 -6q-26 0 -26 25q0 15 21 45.5t24 40.5q13 43 25 93l-72 -21z" />
    <glyph glyph-name="summation" unicode="&#x2211;" horiz-adv-x="693" 
d="M668 625q4 -15 -21 -100.5t-38 -90.5l-39 19l-2 10q13 21 13 52q0 39 -36 61q-31 19 -72 19q-34 0 -61 -16q-32 -19 -32 -51q0 -34 66 -75q100 -62 122 -82q66 -60 66 -142q0 -134 -120 -194q-91 -46 -241 -46q-103 0 -176 35q-96 45 -96 137q0 49 34 85.5t83 36.5
q33 0 61.5 -21.5t28.5 -53.5q0 -16 -13 -34t-28 -18q-22 0 -22 19q0 10 6 26q-8 24 -36 24q-24 0 -41 -17t-17 -42q0 -59 61 -89q46 -23 112 -23q55 0 97 25q50 30 50 82q0 53 -65 99q-61 39 -121 79q-65 52 -65 119q0 103 98 156q78 43 191 44q53 0 102 -12q35 -9 62 -24
q24 -12 19 -12q6 3 21 24q11 16 26 17q6 -2 19 -9zM622 808q3 -11 -16 -26q-72 -40 -151 -84q-21 -9 -36 0q-46 37 -107 85q-8 8 -8 16q0 9 9.5 16.5t17.5 3.5q39 -19 124 -53q22 6 148 53q16 6 19 -11z" />
    <glyph glyph-name="product" unicode="&#x220f;" horiz-adv-x="514" 
d="M541 405q0 -18 -15 -69q-21 -69 -51 -80q39 -53 39 -93q0 -104 -110 -146q-69 -27 -171 -27q-222 0 -222 117q0 35 23.5 56.5t54.5 21.5q20 0 33.5 -16t13.5 -31q0 -25 -21.5 -27.5t-21.5 -19.5q0 -24 50 -36q29 -7 53 -7q30 0 54 12q30 15 30 41q0 22 -56 47
q-83 37 -103 51q-56 38 -56 93q0 84 101 126q69 28 141 28q57 0 115.5 -23.5t52.5 -23.5q10 0 17.5 16t21.5 16q27 0 27 -26zM455 281q-9 44 -56 79q-41 32 -72 32q-19 0 -43 -17v-26q24 -19 81 -39q45 -14 90 -29zM512 588q3 -11 -16 -26q-72 -40 -151 -84q-21 -9 -36 0
q-46 37 -107 85q-8 8 -8 16q0 9 9.5 16.5t17.5 3.5q39 -19 124 -53q22 6 148 53q16 6 19 -11z" />
    <glyph glyph-name="pi" unicode="&#x3c0;" horiz-adv-x="761" 
d="M754 626q0 4 -89 -101q-123 -144 -172 -200q-174 -196 -250 -256q19 -5 40 -11t76 -6q31 0 46.5 20.5t21.5 20.5q14 0 23.5 -13t9.5 -28q0 -34 -42 -49q-25 -10 -56 -10q-4 0 -80.5 5.5t-80.5 5.5q-5 0 -44 -3.5t-43 -3.5q-26 0 -26 24q0 12 85 68t85 73q0 4 -19.5 31
t-23.5 37q-21 44 -36 133q-16 94 -27 121q-20 53 -64 53q-36 0 -36 -25q0 -28 25 -28q5 0 11 2q0 -2 2 -6.5t2 -10.5q0 -14 -12 -22.5t-26 -8.5q-27 0 -49 28q-19 24 -19 44q0 65 59 107q53 38 115 38q130 0 184 -65q47 -57 89 -240l207 229q-14 12 -74 13q-33 0 -48.5 -18
t-19.5 -18q-12 0 -21.5 11.5t-9.5 23.5q0 35 36 51q22 9 49 9l44 -5t64 -5q8 0 37 3q25 3 39 2q18 -1 18 -20zM272 709q0 10 16 19q49 24 141 67q12 18 42 18q18 0 30.5 -13t12.5 -31q0 -31 -43 -41q-58 -8 -171 -34q-8 -3 -18 1.5t-10 13.5z" />
    <glyph glyph-name="integral" unicode="&#x222b;" horiz-adv-x="656" 
d="M717 411q0 -6 -39 -56q-49 -61 -54 -69q-16 -23 -105 -184q-67 -120 -125 -175q-81 -79 -184 -79q-51 0 -94 26q-54 31 -54 88q0 37 28 61q24 20 54 20q29 0 49.5 -17.5t20.5 -42.5q0 -13 -18 -29q-5 4 -24 28q-8 11 -25 11q-16 0 -27.5 -11t-11.5 -24q0 -31 39 -50
q28 -13 53 -13q37 0 79 13q56 17 56 44q0 5 -15 29q-18 30 -23 40q-44 91 -77 250q-7 33 -27 57q-24 27 -53 27q-22 0 -36.5 -10.5t-14.5 -28.5q0 -27 25 -27q5 0 14.5 4t13.5 4q9 -8 9 -20q0 -35 -41 -35q-34 0 -53 29q-15 23 -15 51q0 67 63 98q44 22 104 22
q123 0 181 -68q48 -57 92 -221q21 14 49 67q52 99 88 158q-10 10 -31 10q-24 0 -40 -12t-22 -12q-9 0 -16.5 12t-7.5 16q0 21 24 33q19 10 43 10q-9 0 28 -2t107 -2q13 -5 13 -20zM322 509q0 10 16 19q49 24 141 67q12 18 42 18q18 0 30.5 -13t12.5 -31q0 -31 -43 -41
q-58 -8 -171 -34q-8 -3 -18 1.5t-10 13.5z" />
    <glyph glyph-name="Omega" unicode="&#x3a9;" horiz-adv-x="768" 
d="M647 578q-135 0 -215 -141h254q13 -1 13 -18q0 -16 -10.5 -30.5t-22.5 -10.5h-261q-14 -35 -20 -71h281q13 -1 13 -18q0 -16 -10.5 -30.5t-22.5 -10.5h-268v-2q0 -73 37 -123q43 -56 118 -56q37 0 112 36q7 6 14 6q12 0 20 -13t8 -30q0 -29 -21 -40q-164 -43 -238 -43
q-135 0 -215 67q-84 70 -93 198h-64q-18 2 -18 20q0 15 11 28t27 11h44q2 37 11 71h-55q-18 2 -18 20q0 15 11 28t27 11h56q51 113 170 176q110 58 239 56q110 -2 185 -33q72 -29 72 -68q0 -15 -13 -29q-4 -6 -8 -13q-8 -11 -18 -11q-9 0 -20 9q-35 55 -79 55q-5 0 -16 -1
h-17z" />
    <glyph glyph-name="Omega" unicode="&#x2126;" horiz-adv-x="768" 
d="M647 578q-135 0 -215 -141h254q13 -1 13 -18q0 -16 -10.5 -30.5t-22.5 -10.5h-261q-14 -35 -20 -71h281q13 -1 13 -18q0 -16 -10.5 -30.5t-22.5 -10.5h-268v-2q0 -73 37 -123q43 -56 118 -56q37 0 112 36q7 6 14 6q12 0 20 -13t8 -30q0 -29 -21 -40q-164 -43 -238 -43
q-135 0 -215 67q-84 70 -93 198h-64q-18 2 -18 20q0 15 11 28t27 11h44q2 37 11 71h-55q-18 2 -18 20q0 15 11 28t27 11h56q51 113 170 176q110 58 239 56q110 -2 185 -33q72 -29 72 -68q0 -15 -13 -29q-4 -6 -8 -13q-8 -11 -18 -11q-9 0 -20 9q-35 55 -79 55q-5 0 -16 -1
h-17z" />
    <glyph glyph-name="radical" unicode="&#x221a;" 
 />
    <glyph glyph-name="approxequal" unicode="&#x2248;" 
 />
    <glyph glyph-name="approxequal" unicode="&#x22f2;" 
 />
    <glyph glyph-name="Delta" unicode="&#x394;" 
 />
    <glyph glyph-name="Delta" unicode="&#x2206;" 
 />
    <glyph glyph-name="fraction" unicode="&#x2044;" horiz-adv-x="32" 
 />
    <glyph glyph-name="apple" unicode="&#xf000;" 
 />
    <glyph glyph-name="dotlessi" unicode="&#x131;" horiz-adv-x="712" 
d="M728 644q0 3 -28.5 -52t-45.5 -130q-26 -138 -52 -275q-35 -160 -101 -237q-88 -100 -255 -100q-96 0 -161 37q-81 46 -81 135q0 61 38.5 105.5t98.5 44.5q35 0 65 -20q34 -22 34 -55q0 -16 -19 -37h-17q-13 52 -59 52q-35 0 -58 -24t-23 -58q0 -46 35 -73q31 -25 78 -25
q132 0 178 244q20 108 40 215q27 129 59 206q-29 13 -75 13q-42 0 -71 -19q-16 -11 -35 -36q-14 -19 -23 -19q-12 0 -22 10.5t-10 22.5q0 51 57 76q46 20 102 18l184 -8q24 -1 70.5 5.5t68.5 6.5q28 0 28 -23z" />
    <glyph glyph-name="breve" unicode="&#x2d8;" horiz-adv-x="377" 
d="M32 825q7 15 20 10l42 -30q30 -22 63 -22q13 0 26 2q13 -2 25 -2q33 0 62 22q38 29 39 30q14 5 21 -10q4 -9 -13 -34q-19 -29 -50 -49q-40 -24 -88 -24q-47 0 -86 24q-31 20 -49 49q-16 25 -12 34z" />
    <glyph glyph-name="dotaccent" unicode="&#x2d9;" horiz-adv-x="192" 
d="M28 766q0 25 18 42t44 17t44 -17t18 -42q0 -24 -18 -41.5t-44 -17.5t-44 17.5t-18 41.5z" />
    <glyph glyph-name="ring" unicode="&#x2da;" horiz-adv-x="266" 
d="M100 875q35 0 61 -23.5t26 -58.5q0 -34 -26 -57.5t-61 -23.5t-60.5 23.5t-25.5 57.5q0 35 25.5 58.5t60.5 23.5zM100 825q-16 0 -26 -9.5t-10 -22.5q0 -12 10 -21.5t26 -9.5t26.5 9.5t10.5 21.5q0 13 -10.5 22.5t-26.5 9.5z" />
    <glyph glyph-name="hungarumlaut" unicode="&#x2dd;" horiz-adv-x="259" 
d="M118 707q-9 3 -3 20q16 35 46 100q-1 12 20 30q4 4 9 4q9 0 22.5 -12t13.5 -20q0 -2 -12 -19q-28 -31 -77 -96q-7 -11 -19 -7zM18 707q-9 3 -3 20q16 35 46 100q-1 15 15 29q8 7 19 7q30 0 30 -27q0 -12 -11 -26q-28 -31 -77 -96q-7 -11 -19 -7z" />
    <glyph glyph-name="ogonek" unicode="&#x2db;" horiz-adv-x="264" 
d="M245 -81q-5 -38 -70 -68q-18 -8 -55 -15h-36q-56 0 -56 33q0 41 41 89t81 55q24 4 34 4h1q1 -1 13.5 -2t21.5 -9q-55 -20 -76 -57l-14 -38q-1 0 2.5 -8t23.5 -12q18 -4 46 9.5t27 13.5z" />
    <glyph glyph-name="caron" unicode="&#x2c7;" horiz-adv-x="506" 
d="M472 808q3 -11 -16 -26q-72 -40 -151 -84q-21 -9 -36 0q-46 37 -107 85q-8 8 -8 16q0 9 9.5 16.5t17.5 3.5q39 -19 124 -53q22 6 148 53q16 6 19 -11z" />
    </font>
</defs>
</svg>
