<?xml version="1.0" standalone="no"?>
<!DOCTYPE svg PUBLIC "-//W3C//DTD SVG 1.1//EN" "http://www.w3.org/Graphics/SVG/1.1/DTD/svg11.dtd" >
<svg>
<metadata>
Created by FontForge 20120731 at Tue Apr 16 16:48:38 2019
 By www-data
Generated by Fontographer 4.1.4
</metadata>
<defs>
<font id="Fleet" horiz-adv-x="20" >
  <font-face 
    font-family="Fleet "
    font-weight="400"
    font-stretch="normal"
    units-per-em="1000"
    panose-1="0 0 4 0 0 0 0 0 0 0"
    ascent="800"
    descent="-200"
    x-height="398"
    cap-height="670"
    bbox="-239 -295 1081 867"
    underline-thickness="20"
    underline-position="-123"
    unicode-range="U+0020-F002"
  />
<missing-glyph horiz-adv-x="500" 
d="M63 0v800h375v-800h-375zM125 63h250v675h-250v-675z" />
    <glyph glyph-name=".notdef" horiz-adv-x="500" 
d="M63 0v800h375v-800h-375zM125 63h250v675h-250v-675z" />
    <glyph glyph-name="glyph1" horiz-adv-x="0" 
 />
    <glyph glyph-name="glyph2" horiz-adv-x="208" 
 />
    <glyph glyph-name="space" unicode=" " horiz-adv-x="208" 
 />
    <glyph glyph-name="exclam" unicode="!" horiz-adv-x="448" 
d="M454 668l-194 -425l-112 1l103 424h203zM180 182q35 -1 57.5 -24.5t22.5 -57.5q0 -45 -35 -79t-81 -32q-35 1 -57.5 24t-22.5 57q0 45 35.5 79t80.5 33z" />
    <glyph glyph-name="quotedbl" unicode="&#x22;" horiz-adv-x="528" 
d="M529 666l-105 -272l-96 1l64 271h137zM329 666l-105 -272l-96 1l64 271h137z" />
    <glyph glyph-name="numbersign" unicode="#" horiz-adv-x="619" 
d="M618 532l-41 -113l-79 -1l-55 -151h83l-41 -111h-90l-59 -156l-99 -1l61 156l-117 -1l-62 -156h-98l62 155h-76l39 116l82 -1l53 145l-88 -1l40 117h89l52 137h87l-51 -137h135l55 140l90 -1l-46 -138zM401 415l-125 1l-51 -149h122z" />
    <glyph glyph-name="dollar" unicode="$" horiz-adv-x="675" 
d="M644 586q-7 -60 -29 -121h-141q5 11 16 46q-3 1 -3 4t2.5 8t2.5 7q0 5 -11 5q-6 0 -14 -1q9 1 -62 1q-96 0 -97 -58q-1 -36 58 -87q55 -47 110 -93q60 -59 60 -111q0 -100 -104 -150q-74 -35 -160 -35h-7l-32 -90h-79l34 89h-196q19 47 54 133h260q25 0 46 8q29 11 29 32
q0 19 -58 67q-81 67 -106 94q-57 62 -55 118q3 117 105 176q80 47 166 40l28 86h83l-31 -85q9 -1 57 0q30 0 52 -19q27 -24 22 -64z" />
    <glyph glyph-name="percent" unicode="%" horiz-adv-x="1044" 
d="M762 688l-354 -717h-85l352 717h87zM983 298q0 -105 -62 -195q-69 -101 -169 -101q-140 0 -140 161q0 110 64 194q70 91 176 91q60 0 97 -46q34 -43 34 -104zM859 262q0 66 -42 66q-36 0 -65 -56q-26 -49 -26 -89q0 -64 47 -64q38 0 64 54q22 45 22 89zM483 528
q0 -105 -62 -195q-69 -101 -169 -101q-140 0 -140 161q0 110 64 194q70 91 176 91q60 0 97 -46q34 -43 34 -104zM359 492q0 66 -42 66q-36 0 -65 -56q-26 -49 -26 -89q0 -64 47 -64q38 0 64 54q22 45 22 89z" />
    <glyph glyph-name="ampersand" unicode="&#x26;" horiz-adv-x="762" 
d="M681 216q-55 -2 -88 -1q-12 -41 -31 -69l-38 -44q-7 -8 71 -100h-169q-10 14 -16 14q4 0 -55.5 -17.5t-116.5 -17.5q-174 0 -201 147q-2 11 -2 23q0 56 44.5 114.5t123.5 105.5q-31 51 -31 100q0 77 58.5 139t139.5 62q57 0 93 -29q40 -32 40 -90q0 -103 -143 -220
q32 -53 76 -119q44 28 61 119h227zM395 541q0 11 -10.5 23.5t-22.5 11.5q-26 -3 -41.5 -28.5t-15.5 -53.5q0 -51 14 -59q17 12 45 49q31 41 31 57zM333 125q-27 42 -77 124q-29 -12 -50.5 -38t-21.5 -49q0 -31 26 -48q23 -14 58 -14q48 0 65 25z" />
    <glyph glyph-name="quotesingle" unicode="'" horiz-adv-x="335" 
d="M339 666l-115 -273l-96 2l74 271h137z" />
    <glyph glyph-name="parenleft" unicode="(" horiz-adv-x="367" 
d="M370 735q-164 -277 -164 -565q0 -25 1 -49q3 -79 39 -225h-88q-47 96 -62 142q-33 97 -29 186q7 118 68 268q57 142 135 243h100z" />
    <glyph glyph-name="parenright" unicode=")" horiz-adv-x="370" 
d="M57 -104q164 277 164 566q0 24 -1 49q-3 79 -39 224h88q47 -96 62 -142q33 -96 29 -186q-7 -118 -68 -267q-57 -142 -135 -244h-100z" />
    <glyph glyph-name="asterisk" unicode="*" horiz-adv-x="530" 
d="M398 635q0 -2 -26 -51q-24 -45 -30 -55l122 52q13 0 23 -12t10 -26q0 -42 -96 -42h-30q-20 1 -22 1q30 -21 61 -42q44 -34 44 -51q0 -14 -9 -26t-23 -12q-24 0 -55 45q-6 9 -38 67q-3 -43 -7 -86q-9 -57 -42 -57q-34 0 -34 43q0 3 26 52q25 45 31 55q-118 -51 -120 -51
q-14 0 -24 10t-10 24q0 46 91 46q13 0 32.5 -1t23.5 -2q-31 22 -61 43q-44 34 -44 50q0 15 8.5 27t22.5 12q25 0 55 -45q6 -9 38 -67q4 43 7 86q10 57 43 57t33 -44z" />
    <glyph glyph-name="plus" unicode="+" horiz-adv-x="637" 
d="M606 391l-40 -97h-201l-85 -210h-108l84 210h-183l40 97h184l80 212h108l-81 -212h202z" />
    <glyph glyph-name="comma" unicode="," horiz-adv-x="282" 
d="M199 17q-16 -42 -65 -79q-33 -23 -66 -45l-27 26q32 18 66 69q-19 2 -35 11q-45 26 -45 80q0 26 13 49q28 48 82 48q24 0 45 -12q47 -28 47 -82q0 -32 -15 -65z" />
    <glyph glyph-name="hyphen" unicode="-" horiz-adv-x="405" 
d="M352 265l-45 -130h-254l46 130h253z" />
    <glyph glyph-name="hyphen" unicode="&#x2010;" horiz-adv-x="405" 
d="M352 265l-45 -130h-254l46 130h253z" />
    <glyph glyph-name="period" unicode="." horiz-adv-x="295" 
d="M34 92q0 41 28.5 69.5t69.5 28.5t69.5 -28.5t28.5 -69.5t-28.5 -69.5t-69.5 -28.5t-69.5 28.5t-28.5 69.5z" />
    <glyph glyph-name="slash" unicode="/" horiz-adv-x="377" 
d="M430 686l-348 -706h-83l347 706h84z" />
    <glyph glyph-name="zero" unicode="0" horiz-adv-x="613" 
d="M576 477q0 -90 -45 -201q-49 -118 -123 -193q-85 -86 -179 -86q-101 0 -145 54q-39 49 -39 152q0 151 98 301q109 167 251 167q85 0 135 -55q47 -53 47 -139zM447 487q0 82 -47 82q-79 0 -153 -151q-65 -134 -65 -227q0 -63 50 -63q74 0 148 143q67 130 67 216z" />
    <glyph glyph-name="one" unicode="1" horiz-adv-x="355" 
d="M160 4h-130l204 546l-61 2l45 108h196z" />
    <glyph glyph-name="two" unicode="2" horiz-adv-x="626" 
d="M577 398q-47 -59 -151 -140q-50 -38 -109 -82l-32 -24q-14 -10 -28 -23h227l-41 -129l-433 2l50 131q63 45 171 132q96 78 168 141q69 61 76 74q11 11 11 31q0 26 -20 26h-238l48 126h250q48 0 82 -27t34 -74q0 -83 -65 -164z" />
    <glyph glyph-name="three" unicode="3" horiz-adv-x="597" 
d="M578 424q-38 -53 -105 -87q15 -26 24 -47.5t15 -47.5q0 -90 -71 -158q-66 -63 -159 -77h-279l51 125q11 -1 85 -1q112 0 139 8q87 26 87 97q0 18 -10 37t-26 19h-216l39 106h220q56 0 89 63q5 11 5 26q0 51 -39 51h-209l53 125h234q50 0 82 -34t32 -85q0 -62 -41 -120z
" />
    <glyph glyph-name="four" unicode="4" horiz-adv-x="603" 
d="M494 301h67l-43 -117l-71 1l-69 -180h-139l72 179h-269l76 203l303 276h207zM200 301h146l81 223z" />
    <glyph glyph-name="five" unicode="5" horiz-adv-x="565" 
d="M536 539h-200l-50 -131q62 0 79 -1q141 -8 141 -113q0 -144 -101 -221q-91 -69 -240 -69l-162 1l48 124q147 -1 195.5 3.5t71.5 41.5q26 41 26 70q0 60 -76 61l-151 1l129 354h342z" />
    <glyph glyph-name="six" unicode="6" horiz-adv-x="594" 
d="M553 539q-12 1 -48 0q-45 -1 -50 0q-149 8 -203 -126q72 22 116 22q72 0 119 -33q52 -37 52 -105q0 -133 -87 -216.5t-219 -83.5q-206 0 -206 175q0 79 48 193q52 123 128 203q89 95 183 95h218zM300 330q-54 0 -90 -41.5t-36 -95.5q0 -32 21 -53t52 -21q58 0 95 46
q35 42 35 100q0 40 -20 54q-17 11 -57 11z" />
    <glyph glyph-name="seven" unicode="7" horiz-adv-x="587" 
d="M180 5h-161q42 63 348 534l-227 1l50 123h430z" />
    <glyph glyph-name="eight" unicode="8" horiz-adv-x="597" 
d="M613 514q0 -84 -140 -157q64 -37 64 -131q0 -104 -95 -171q-86 -59 -196 -59q-77 0 -143 39q-77 45 -77 114q0 89 52 141q46 46 145 71q-62 65 -62 128q0 88 81 139q69 43 165 43q206 0 206 -157zM386 213q0 38 -26.5 58t-64.5 20q-41 0 -77 -27q-40 -30 -40 -70
q0 -37 26 -57.5t63 -20.5q44 0 79 25q40 28 40 72zM383 559q-32 0 -53.5 -23.5t-21.5 -55.5q0 -27 17.5 -44.5t44.5 -17.5q38 0 66 24.5t28 60.5q0 56 -81 56z" />
    <glyph glyph-name="nine" unicode="9" horiz-adv-x="594" 
d="M248 -3h-219l52 124q33 1 98 1q148 -9 202 125q-71 -21 -115 -21q-72 0 -119 33q-53 37 -53 105q0 132 87 215.5t220 83.5q206 0 206 -175q0 -78 -49 -192q-52 -124 -127 -204q-90 -95 -183 -95zM386 542q-57 0 -93.5 -44.5t-36.5 -102.5q0 -40 21 -54q16 -10 56 -10
q54 0 90 41t36 96q0 31 -20.5 52.5t-52.5 21.5z" />
    <glyph glyph-name="colon" unicode=":" horiz-adv-x="333" 
d="M34 92q0 41 28.5 69.5t69.5 28.5t69.5 -28.5t28.5 -69.5t-28.5 -69.5t-69.5 -28.5t-69.5 28.5t-28.5 69.5zM114 322q0 41 28.5 69.5t69.5 28.5t69.5 -28.5t28.5 -69.5t-28.5 -69.5t-69.5 -28.5t-69.5 28.5t-28.5 69.5z" />
    <glyph glyph-name="semicolon" unicode=";" horiz-adv-x="333" 
d="M114 322q0 41 28.5 69.5t69.5 28.5t69.5 -28.5t28.5 -69.5t-28.5 -69.5t-69.5 -28.5t-69.5 28.5t-28.5 69.5zM199 17q-16 -42 -65 -79q-33 -23 -66 -45l-27 26q32 18 66 69q-19 2 -35 11q-45 26 -45 80q0 26 13 49q28 48 82 48q24 0 45 -12q47 -28 47 -82q0 -32 -15 -65z
" />
    <glyph glyph-name="less" unicode="&#x3c;" horiz-adv-x="468" 
d="M468 493l-40 -116l-255 -92l177 -98l-37 -102l-258 157l40 102zM7972 103z" />
    <glyph glyph-name="equal" unicode="=" horiz-adv-x="520" 
d="M418 209h-367l22 59h367zM468 349h-367l22 59h367z" />
    <glyph glyph-name="greater" unicode="&#x3e;" horiz-adv-x="468" 
d="M-5 85l40 116l255 92l-177 98l38 102l257 -157l-39 -102z" />
    <glyph glyph-name="question" unicode="?" horiz-adv-x="571" 
d="M309 245h-157q26 96 89 147q13 11 101 58q49 26 49 66q0 14 -16 24t-31 10q-28 0 -50.5 -22.5t-30.5 -51.5h-177q23 86 113 144q85 55 178 55q75 0 128 -24q71 -32 71 -98q0 -88 -76 -150q-26 -20 -150 -88q-20 -10 -41 -70zM214 190q32 0 53.5 -20t21.5 -53
q0 -47 -40 -85t-88 -38q-33 0 -54.5 20t-21.5 52q0 48 40.5 86t88.5 38z" />
    <glyph glyph-name="at" unicode="@" horiz-adv-x="624" 
d="M196 0v665h214v-665h-214zM370 625h-134v-585h134v585z" />
    <glyph glyph-name="A" unicode="A" horiz-adv-x="799" 
d="M677 -1v118h136q-31 -111 -136 -118zM491 -2l1 181h-199l-133 -181h-162l126 183h-64l46 123h108l259 366h166v-672h-148zM493 507l-120 -202h120v202z" />
    <glyph glyph-name="B" unicode="B" horiz-adv-x="686" 
d="M486 323q40 -37 52 -61q8 -18 8 -45q0 -37 -16 -81t-64 -81q-44 -33 -89 -45q-24 -6 -74 -11q-19 -2 -94 -2h-209l214 549h-153l50 124l81 -1h73q158 1 153 1q24 -1 71 -6q68 -10 110.5 -55.5t40.5 -102.5q-5 -121 -154 -183zM690 91q-70 -92 -187 -93h-38q96 53 115 121
q132 0 122 0zM397 546h-44l-65 -153h43q89 0 119 20q12 7 27 30q19 27 19 47q0 60 -99 56zM311 283h-58l-67 -163q93 -2 121 1q92 12 98 82q4 45 -34 66q-25 14 -60 14z" />
    <glyph glyph-name="C" unicode="C" horiz-adv-x="606" 
d="M482 513v-2q6 26 -7 33q-7 4 -32 4q-157 0 -242 -215q-31 -78 -31 -125q0 -68 55 -83q17 -5 84 -5h315q-37 -44 -134 -81q-104 -40 -207 -41h-91q-166 20 -166 194q0 114 75 249q83 148 200 201q70 32 188 32q151 0 151 -67q0 -36 -57 -142q-13 1 -125 0l10 18
q13 24 14 30z" />
    <glyph glyph-name="D" unicode="D" horiz-adv-x="690" 
d="M281 -2h-281l218 549l-16 -1h-131l55 124h309q104 0 162 -68q54 -63 54 -171q0 -161 -104 -293q-111 -140 -266 -140zM459 -2q85 42 130 122h43h73q-29 -72 -99 -100q-52 -20 -147 -22zM418 546h-57q-51 -120 -174 -428q27 4 47 3l36 -1q110 0 182 115q62 100 62 214
q0 39 -28.5 68t-67.5 29z" />
    <glyph glyph-name="E" unicode="E" horiz-adv-x="567" 
d="M23 270l47 113h82l113 287l356 1l-37 -125h-218l-66 -161h223l-42 -115h-228l-59 -148l386 -2q-52 -53 -86 -74q-61 -39 -157 -47h-214q-33 0 -60 26.5t-27 62.5q0 22 13 43q21 43 61 139h-87z" />
    <glyph glyph-name="F" unicode="F" horiz-adv-x="612" 
d="M102 270h-86l47 113h82l113 287l366 1l-36 -125h-229l-66 -164h224l-43 -112h-228q-59 -152 -109 -272h-145zM390 -2h-87q12 31 50 121h268q-21 -34 -83 -73q-77 -48 -148 -48z" />
    <glyph glyph-name="G" unicode="G" horiz-adv-x="776" 
d="M486 513v-1l1 13q0 23 -40 23q-108 0 -194 -116q-80 -108 -80 -221q0 -92 89 -92q95 0 138 27q53 33 64 123h-113l41 108h338l-43 -108h-77q-49 -143 -126 -206q-83 -68 -227 -68q-111 0 -166 42q-62 47 -62 156q0 196 136 338.5t328 142.5q150 0 150 -67q0 -35 -56 -142
q-15 1 -125 0q16 28 24 48zM503 -4q82 47 125 124h160q-29 -63 -124 -97q-76 -27 -161 -27z" />
    <glyph glyph-name="H" unicode="H" horiz-adv-x="722" 
d="M572 -2q6 0 -21 1q-13 1 -20 0q4 19 52 120q94 2 159 1q-34 -52 -82 -87t-88 -35zM469 -2h-145l109 282h-176q-37 -102 -111 -282h-146l109 282h-113l48 112h107l115 278h147l-114 -278l168 1l116 277h146z" />
    <glyph glyph-name="I" unicode="I" horiz-adv-x="511" 
d="M562 547h-95q-164 -425 -161 -425q7 0 1 -1q-6 0 2 0q11 -1 61 -1h151q-38 -65 -86 -93.5t-124 -28.5h-308q7 30 43 122h109l167 427h-105l48 123h348z" />
    <glyph glyph-name="J" unicode="J" horiz-adv-x="682" 
d="M742 547l-110 1q-46 -141 -123 -363q-41 -110 -128 -158q-59 -33 -158 -33q-89 0 -102 1q-56 5 -88.5 33.5t-32.5 63.5q0 12 4 23q12 43 41 113h146q-1 -2 -16 -31q-11 -22 -10 -32q0 -27 22 -43q17 -12 36 -12q42 0 59 5q29 8 49 34.5t42 78.5q48 118 114 320h-145
l48 122h391q-35 -123 -39 -123zM533 108q142 3 178 2q-33 -47 -92 -81q-55 -31 -99 -31h-16q-18 1 -31 1h-11h-13q33 28 56 61q18 27 28 48z" />
    <glyph glyph-name="K" unicode="K" horiz-adv-x="654" 
d="M410 344q5 -22 59 -188q8 -22 43 -36h173q-78 -76 -95 -87q-53 -39 -124 -39q-83 0 -110 62l-62 191l-104 -84l-56 -165h-139l199 516q-1 8 -2.5 21.5t-15.5 12.5q-4 0 -13 -1h-85l46 122l150 1q30 1 51.5 -20.5t21.5 -56.5q0 -16 -6 -34q-11 -37 -79 -189l326 302
q132 0 177 -1z" />
    <glyph glyph-name="L" unicode="L" horiz-adv-x="570" 
d="M271 -3h-270l48 128q30 -2 67 3q0 6 217 543q62 3 144 -3l-218 -548h333q-101 -123 -321 -123z" />
    <glyph glyph-name="M" unicode="M" horiz-adv-x="995" 
d="M781 -6q-49 0 -83 21q-41 26 -41 73q0 53 116 311q32 86 32 97q0 15 -10.5 30t-27.5 15q-57 0 -108 -72q-23 -34 -39 -73l-161 -397l-141 1q19 53 165 399q27 66 27 79q0 63 -39 66q-61 -2 -117 -74q-31 -39 -44 -71q-63 -157 -162 -399h-144q207 510 207 515
q0 27 -60 29q-19 1 -52 -1q-36 -3 -45 -3q19 43 55 130q51 2 157 -1q97 -9 113 -62q15 13 77 54q29 19 88 19q37 0 68.5 -25.5t36.5 -61.5q99 82 215 82q42 0 69 -29.5t27 -72.5q0 -30 -44 -177l-87 -237q-2 -7 -2 -12q0 -19 29 -19l165 1q-136 -135 -240 -135z" />
    <glyph glyph-name="N" unicode="N" horiz-adv-x="693" 
d="M200 530q0 22 -26 19h-128q7 23 25 61q22 45 28 61l200 -1q39 0 54 -24q5 -7 13 -38l49 34q56 39 141 39q39 0 69.5 -30t30.5 -74q0 -8 -1 -16q-4 -29 -69 -205l-70 -188q-2 -6 -2 -10q0 -14 11.5 -24.5t26.5 -10.5h164q-145 -128 -240 -128q-46 0 -79 19q-42 24 -42 72
q0 34 70 206q36 86 76 183q4 15 4 27q0 24 -14 36t-28 12q-67 0 -111 -49q-30 -33 -60 -110q-52 -130 -161 -393h-136q58 139 116 277q89 216 89 255z" />
    <glyph glyph-name="O" unicode="O" horiz-adv-x="696" 
d="M228 -15q-96 0 -150 62q-51 58 -51 157q0 104 57.5 219t148.5 189q99 82 204 82q89 0 139 -58t50 -148q0 -104 -54 -221q-56 -120 -142 -196q-97 -86 -202 -86zM436 -2q39 22 58 38q32 25 63 74h55h104q-27 -47 -121 -79q-77 -27 -159 -33zM408 565q-89 0 -171 -135
q-74 -121 -74 -214q0 -37 19 -66q23 -33 60 -33q91 0 173 137q75 122 75 217q0 37 -22 65.5t-60 28.5z" />
    <glyph glyph-name="P" unicode="P" horiz-adv-x="690" 
d="M397 266q-21 0 -137 -1l-114 -267h-146q146 364 218 548l-174 1l54 123h336q255 0 255 -172q0 -129 -98 -188q-75 -44 -194 -44zM354 -1q12 23 45 121h309q-48 -54 -121 -88t-143 -34q7 0 -50 1h-40zM365 547q-17 -47 -62 -165h84q79 0 96 4q60 18 60 93q0 47 -45 61
q-20 7 -65 7h-68z" />
    <glyph glyph-name="Q" unicode="Q" horiz-adv-x="709" 
d="M442 -2q44 26 69.5 51t55.5 73q-3 0 160 0q-30 -67 -133 -100q-74 -24 -152 -24zM363 18l49 -99l-104 -54l-72 122q-98 2 -151 65q-48 58 -48 154t54 209q57 119 145 195q100 85 211 85q93 0 144 -63q45 -56 45 -143q0 -117 -72 -254q-81 -153 -201 -217zM418 567
q-65 0 -127 -73q-51 -59 -86 -149q-32 -81 -32 -127q0 -29 14 -57q22 -42 65 -42q91 0 174 138q74 123 74 216q0 34 -19 61q-22 33 -63 33z" />
    <glyph glyph-name="R" unicode="R" horiz-adv-x="715" 
d="M531 -8q-125 0 -167 103q-22 52 -49 172h-66l-104 -269h-145q145 364 217 548l-173 1l54 123l355 -1q236 0 236 -171q0 -104 -71 -167q-64 -59 -162 -61q2 -20 16 -54q23 -56 23 -57q14 -40 85 -40q178 0 163 0q-83 -127 -212 -127zM410 548h-45l-76 -166h86q66 -2 101 4
q66 13 66 93q0 47 -45 62q-21 7 -87 7z" />
    <glyph glyph-name="S" unicode="S" horiz-adv-x="698" 
d="M498 -2q-10 1 -33 1q75 46 111 121h144q-103 -119 -222 -122zM502 531q5 17 -20 17q-6 0 -13 -1q-31 2 -92 0q-77 -8 -79 -66q-1 -33 38 -72q17 -18 81 -70q116 -94 116 -157q0 -98 -103 -148q-74 -35 -161 -35l-267 -1q18 42 50 122h252q85 0 85 48q0 20 -39 54
q-25 21 -78 66q-111 95 -109 168q4 122 97 174q69 38 198 41q43 -1 117 -1q28 1 49 -17q25 -21 20 -58q-6 -61 -28 -118h-128q5 18 14 54z" />
    <glyph glyph-name="T" unicode="T" horiz-adv-x="532" 
d="M572 544h-186l-227 -546h-151l213 546h-196l52 126h552zM360 -2q-80 -2 -134 -2l53 123h289q-110 -119 -208 -121z" />
    <glyph glyph-name="U" unicode="U" horiz-adv-x="703" 
d="M530 -10h-52q-68 0 -92 74q-102 -76 -219 -76q-61 0 -103 43.5t-38 104.5q1 20 66 187l75 195q-4 29 -29 29h-66q19 47 46 119q11 1 25 1h158q14 0 25 -18t11 -30q0 -32 -78 -237l-56 -145q-26 -70 -28 -83q-7 -49 44 -49q84 0 148 87q40 53 66 131q23 66 129 348
q79 3 143 -1l-189 -517l2 -18q4 -16 31 -16q58 -1 182 -1q-43 -41 -85 -82q-57 -46 -116 -46z" />
    <glyph glyph-name="V" unicode="V" horiz-adv-x="673" 
d="M560 362q-38 -67 -134 -218q-106 -154 -176 -154h-17q-13 1 -17 1q-62 0 -80 9q-32 16 -32 58q0 11 2 24l74 424q-4 39 -36 42h-12h-121l48 122h211q23 0 40 -15q22 -20 20 -57q-5 -89 -34 -237q-27 -133 -53 -266q77 113 148 235q141 238 203 341l152 -1
q-123 -216 -186 -308zM377 -4q78 68 110 125h207q-70 -71 -142 -100q-75 -31 -175 -25z" />
    <glyph glyph-name="W" unicode="W" horiz-adv-x="996" 
d="M993 88q-83 -89 -180 -89h-75q59 50 95 114q4 9 7 17h183zM704 264q7 28 140 405h134q-123 -396 -147 -450q-44 -97 -99 -158q-65 -72 -130 -72q-4 0 -30 -1.5t-30 -1.5q-105 0 -148 75q-41 -32 -92 -53.5t-86 -21.5h-26q-52 0 -93.5 36t-41.5 84q0 44 71 219
q34 78 71 181q2 6 2 11q0 18 -27 21l-136 -1l55 133h200q28 0 48.5 -18t20.5 -51q0 -41 -72 -229q-52 -135 -82 -203q-3 -6 -3 -12q0 -17 16 -32.5t27 -15.5q93 0 150 111q14 29 20 43l141 406h133q-48 -132 -97 -264q-79 -219 -80 -236q-1 -21 15 -37t37 -16q45 0 79 41
q26 31 60 108v-1z" />
    <glyph glyph-name="X" unicode="X" horiz-adv-x="770" 
d="M500 326q8 -41 15 -74q18 -78 30 -103q6 -28 41 -28q-10 0 110 1q81 0 107 -1q-27 -46 -83 -84q-77 -50 -167 -46q-85 4 -128 113q-23 56 -28 123l-226 -229l-167 -2l347 366q-8 47 -34 139q-2 47 -55 47h-161l51 122h208q18 0 36.5 -16t27.5 -42q15 -50 40 -152l196 210
h166z" />
    <glyph glyph-name="Y" unicode="Y" horiz-adv-x="738" 
d="M592 1h-45l50 121h164q-94 -121 -169 -121zM361 -285l-140 1l144 350q-15 -7 -84 -49q-44 -27 -63 -27q-3 0 -21.5 -1.5t-22.5 -1.5q-50 0 -86 27q-40 31 -40 84q0 30 34 116l50 118q14 35 65 157q0 50 -41 53h-11h-117q18 43 56 126q178 2 260 1q38 -10 38 -47
q0 -26 -89 -238t-89 -236q0 -39 42 -39q82 0 164 126q57 88 83 172q1 3 108 261h142z" />
    <glyph glyph-name="Z" unicode="Z" horiz-adv-x="590" 
d="M633 547q-289 -296 -406 -427h393q-63 -58 -108 -84q-67 -38 -139 -38h-370l50 126l402 423h-249l49 123h193h222z" />
    <glyph glyph-name="bracketleft" unicode="[" horiz-adv-x="533" 
d="M533 799l-20 -76h-112l-317 -783h116l-37 -77h-206l369 936h207z" />
    <glyph glyph-name="backslash" unicode="\" horiz-adv-x="377" 
d="M-1 686l347 -706h84l-348 706h-83z" />
    <glyph glyph-name="bracketright" unicode="]" horiz-adv-x="547" 
d="M-43 -138l20 77h112l317 782h-116l37 78h206l-369 -937h-207z" />
    <glyph glyph-name="asciicircum" unicode="^" horiz-adv-x="343" 
d="M313 802q-19 -88 -92 -88q-21 0 -60 17t-59 17q-27 0 -43 -33h-35q10 37 32 62q26 29 60 29q20 0 59.5 -18.5t58.5 -18.5q32 0 45 33h34z" />
    <glyph glyph-name="underscore" unicode="_" horiz-adv-x="531" 
d="M531 -143h-531v46h531v-46z" />
    <glyph glyph-name="grave" unicode="`" horiz-adv-x="405" 
d="M353 721l-15 -23l-311 74l116 64z" />
    <glyph glyph-name="a" unicode="a" horiz-adv-x="560" 
d="M583 106q-43 -59 -83 -84q-46 -29 -106 -29q-38 0 -64.5 21.5t-34.5 54.5q-25 -35 -71 -56t-91 -21q-53 0 -81 35t-28 89q0 100 72 192q77 98 173 98q41 0 55 -4q28 -8 63 -39l16 36h128l-109 -293h161zM335 262q0 17 -13.5 29.5t-29.5 12.5q-45 0 -85 -55
q-36 -51 -36 -99q0 -39 29 -39q52 0 93.5 49t41.5 102z" />
    <glyph glyph-name="b" unicode="b" horiz-adv-x="550" 
d="M168 -5q-53 0 -95 27q-48 31 -48 81q0 31 97 273l120 292h125l-114 -298q69 37 102 37q48 0 77.5 -28.5t29.5 -75.5q0 -126 -84.5 -217t-209.5 -91zM316 258q0 44 -32 44q-44 0 -86.5 -57t-37.5 -110q3 -33 28 -33q50 0 90 54q38 50 38 102zM380 3q-2 0 -31 -1.5
t-40 -1.5q92 42 126 109h135q-44 -106 -190 -106z" />
    <glyph glyph-name="c" unicode="c" horiz-adv-x="467" 
d="M489 106q-83 -113 -248 -113q-84 0 -139 25q-74 33 -74 104q0 97 64 183q71 95 171 95l168 -1l-49 -119q-15 0 -45 1q-72 5 -119 -28.5t-47 -96.5q0 -50 107 -50h211z" />
    <glyph glyph-name="d" unicode="d" horiz-adv-x="547" 
d="M605 669l-200 -564h163q-36 -61 -68 -83q-37 -26 -97 -26q-66 0 -94 65q-48 -63 -137 -63q-142 0 -142 137q0 84 58 173q64 99 142 99q47 0 71.5 -8t65.5 -35l114 304zM267 297q-43 0 -75 -53q-29 -46 -29 -93q0 -18 10.5 -33t28.5 -15q46 0 83 42.5t37 89.5q0 26 -15 44
t-40 18z" />
    <glyph glyph-name="e" unicode="e" horiz-adv-x="459" 
d="M478 106q-65 -59 -119 -86q-66 -32 -141 -32q-77 0 -128 29q-62 35 -62 106q0 96 81 187.5t178 98.5q56 5 93.5 -18t37.5 -64q0 -67 -40 -108q-31 -33 -94 -56q-56 -16 -112 -33q-21 -7 -12 -24h318zM300 302q0 23 -19 23q-32 0 -68 -38t-36 -74q0 -7 5 -7q35 0 76.5 31
t41.5 65z" />
    <glyph glyph-name="f" unicode="f" horiz-adv-x="392" 
d="M413 104l-54 -62q-30 -31 -72 -41q2 -101 -51 -182q-61 -93 -159 -91q-55 1 -88.5 40t-33.5 95q0 31 12 62l282 743h125l-221 -565zM199 -28q0 54 -69 46q-57 -110 -57 -162q0 -33 26 -34q28 -1 53 33q30 41 36 55q11 24 11 62z" />
    <glyph glyph-name="g" unicode="g" horiz-adv-x="592" 
d="M537 399l-201 -526q-14 -36 -41 -59q-30 -25 -66 -25l-221 1l43 117h157q15 33 44 106l3 6q-49 -29 -115 -29q-50 1 -82.5 43t-30.5 96q2 89 76 182q79 99 166 98q58 0 76 -5t40 -26l15 21h137zM347 263q1 51 -33 51q-52 1 -99 -57q-44 -54 -46 -109q-1 -43 44 -44
q54 0 95 54q38 49 39 105zM614 113q-68 -113 -148 -113h-45q-5 4 41 113q147 3 152 0z" />
    <glyph glyph-name="h" unicode="h" horiz-adv-x="570" 
d="M591 106q-4 -5 -32 -44q-15 -23 -37 -35q-57 -31 -106 -31q-42 -1 -72 14q-39 20 -39 57q0 28 21 93q2 6 27 76q12 34 12 44q0 9 -9.5 16.5t-16.5 7.5q-69 -1 -137 -125q-26 -46 -56 -124l-21 -54l-126 -1l266 668l127 1l-122 -319q60 56 135 56q99 1 101 -73
q0 -23 -9 -49l-60 -178h154z" />
    <glyph glyph-name="i" unicode="i" horiz-adv-x="315" 
d="M328 518q-3 -30 -26 -51.5t-54 -21.5q-30 0 -50 21.5t-18 51.5q3 30 26 52t53 22t50.5 -21.5t18.5 -52.5zM338 106q-8 -8 -35 -47q-18 -27 -42 -40q-45 -23 -114 -23q-62 0 -84 19q-37 33 -33 88q0 9 20 58l94 238h145l-125 -293h174z" />
    <glyph glyph-name="j" unicode="j" horiz-adv-x="335" 
d="M321 520q-2 -32 -25.5 -54t-55.5 -22t-52.5 22t-18.5 54t26 53.5t55 21.5q32 0 52.5 -21.5t18.5 -53.5zM273 401l-204 -538q-12 -31 -45.5 -55.5t-66.5 -24.5l-196 -1l48 114h134l201 505h129zM354 105q-67 -112 -163 -112q-7 0 -30 -1l41 113q147 3 152 0z" />
    <glyph glyph-name="k" unicode="k" horiz-adv-x="589" 
d="M606 106q-26 -64 -106 -94q-43 -15 -116 -15q-78 1 -89 22l-70 126q-10 19 -22 27l-76 -170l-132 2l255 662l135 -1l-134 -368l154 101h175l-244 -176l59 -104q8 -11 13 -11z" />
    <glyph glyph-name="l" unicode="l" horiz-adv-x="305" 
d="M150 107h175q-40 -80 -108 -104q-19 -7 -32 -9q-9 -1 -28 1q-25 1 -43 1q-99 0 -99 73q0 8 1 17l227 582l126 1z" />
    <glyph glyph-name="m" unicode="m" horiz-adv-x="846" 
d="M865 107q-107 -111 -196 -114q-31 -1 -63.5 20.5t-32.5 47.5q0 8 3 16q50 108 69 180q2 7 2 15q0 30 -24 30q-72 0 -139 -120q-28 -50 -80 -182l-143 1l109 268q-3 29 -24 29q-83 0 -145 -113q-18 -33 -74 -185h-137l160 402h128l-27 -58q79 62 161 62q43 0 62.5 -9
t46.5 -44q85 56 171 56q108 0 108 -69q0 -35 -34 -116q-25 -59 -49 -117h148z" />
    <glyph glyph-name="n" unicode="n" horiz-adv-x="560" 
d="M577 103q-57 -108 -193 -108q-38 0 -72 20q-37 22 -39 52q-2 32 27 87q35 68 42 99q3 11 -4.5 27t-19.5 16q-41 0 -76.5 -31.5t-54.5 -81.5q-2 -6 -74 -183h-129l162 399h124l-19 -52q80 59 159 59q82 0 86 -71q1 -27 -35 -123q-20 -54 -40 -109h156z" />
    <glyph glyph-name="o" unicode="o" horiz-adv-x="528" 
d="M543 106q-58 -112 -184 -112q-65 0 -92 22q-46 -26 -108 -26q-128 0 -128 132q0 107 66 193q72 95 175 95q66 0 111 -33q51 -37 51 -100q0 -84 -59 -171h168zM308 253q0 54 -40 54q-43 0 -81 -53q-35 -49 -35 -94q0 -60 47 -60q43 0 78 56q31 51 31 97z" />
    <glyph glyph-name="p" unicode="p" horiz-adv-x="560" 
d="M574 103q-48 -57 -81 -79q-44 -29 -103 -27q-135 2 -142 -1q-4 -2 -43 7q-44 11 -69 27l-135 -325h-130l317 780h126l-35 -107q55 33 113 33q44 0 75.5 -31.5t31.5 -75.5q0 -138 -109 -201h184zM350 258q0 30 -12.5 41.5t-42.5 11.5q-38 0 -71 -63q-30 -56 -30 -98
q0 -10 10.5 -21.5t22.5 -11.5q51 0 87 43.5t36 97.5z" />
    <glyph glyph-name="q" unicode="q" horiz-adv-x="599" 
d="M530 395l-262 -684h-125l116 320q-52 -41 -129 -41q-91 0 -98 96q-8 109 72 212q83 107 189 107q46 0 68 -8q7 -3 42 -25l13 23h114zM340 251q-2 21 -18 33.5t-38 12.5q-39 0 -78.5 -50t-39.5 -94q0 -9 2 -17q4 -14 8 -18q9 -10 34 -11q53 -4 93.5 42.5t36.5 101.5z
M614 106q-66 -110 -148 -110h-45q-5 4 41 110q147 3 152 0z" />
    <glyph glyph-name="r" unicode="r" horiz-adv-x="539" 
d="M563 100q-98 -110 -226 -110q-120 0 -120 72q0 31 47 122q52 99 57 127l-94 -15q-15 -30 -43 -107q-25 -69 -42 -99q-27 -47 -63 -58q-77 -30 -113 -36q42 40 96 144q46 89 71 164q-8 43 -8 78q0 133 112 133q16 0 25 -26q6 -19 6 -39q0 -12 -8 -32l-14 -30q63 15 142 15
q30 0 49.5 -18.5t19.5 -47.5q0 -47 -36 -123q-30 -57 -59 -114h201z" />
    <glyph glyph-name="s" unicode="s" horiz-adv-x="517" 
d="M256 483h145q-21 -56 -21 -143q0 -23 14 -68.5t14 -67.5q0 -61 -50 -101h180q-71 -102 -160 -102l-275 1l53 109h27q38 1 63 24.5t25 61.5q0 17 -9 58t-9 66q0 13 2 26q-20 -32 -102 -183q-62 -113 -84 -136q-70 -27 -103 -32q72 94 153 238q69 124 137 249z" />
    <glyph glyph-name="t" unicode="t" horiz-adv-x="376" 
d="M397 104q-27 -37 -52 -55q-42 -29 -73 -40q-38 -14 -96 -13q-68 1 -105 25q-42 27 -41 64q0 9 8 29l71 189h-80l31 96h86l62 152h125l-60 -153h116l-36 -97l-118 1l-74 -198h236z" />
    <glyph glyph-name="u" unicode="u" horiz-adv-x="586" 
d="M603 105q-46 -56 -81 -80q-48 -32 -106 -32q-83 0 -106 52q-56 -56 -167 -55q-121 2 -121 50v20q3 25 60 166q55 135 75 173h140l-107 -274q-2 -5 -2 -9q0 -18 42 -16q47 1 92 68q33 48 65 132l36 98l145 1l-125 -294h160z" />
    <glyph glyph-name="v" unicode="v" horiz-adv-x="478" 
d="M484 399l-244 -364q-30 -44 -109 -44q-35 0 -62 9q-40 12 -40 38q0 69 12 180q16 154 17 181h127l-21 -286q66 87 195 286h125zM498 107q-30 -51 -85 -80q-49 -27 -97 -27q-54 0 -61 -1q15 16 47 63q30 43 30 46q-1 0 -1 -1q162 3 167 0z" />
    <glyph glyph-name="w" unicode="w" horiz-adv-x="779" 
d="M793 104q-39 -58 -76 -82q-40 -26 -97 -26q-40 0 -52 13q-18 19 -26 21q-65 -36 -108 -36q-77 0 -124 44q-42 -34 -95 -41q-18 -3 -90 -3q-33 0 -65 32.5t-32 72.5q0 11 3 22q5 19 108 277l132 2l-98 -257q-2 -14 16 -28.5t28 -14.5q32 0 69 43q27 61 97 255h127
l-98 -247q-5 -11 -5 -19q0 -29 50 -29q17 0 39 18.5t29 36.5l93 240l127 1l-119 -295h167z" />
    <glyph glyph-name="x" unicode="x" horiz-adv-x="561" 
d="M584 106q-18 -14 -55 -51q-26 -27 -48.5 -36.5t-43.5 -19.5q-11 -4 -42 -5q-78 -2 -116 36q-14 14 -43 73l-96 -102h-158l205 213l-104 184h142l62 -109l95 109h161l-211 -214l51 -79z" />
    <glyph glyph-name="y" unicode="y" horiz-adv-x="580" 
d="M527 398l-227 -532q-14 -33 -41 -59q-31 -31 -63 -31l-280 1l45 113h180q6 -3 22 2q22 7 33 29q23 42 55 120q-90 -47 -136 -47q-38 0 -69.5 15.5t-31.5 48.5q0 7 3 14l128 326h141l-111 -265q-7 -15 32 -15q19 0 55 19q8 6 16 16q19 22 36 57q27 65 81 188h132zM604 107
q-64 -107 -148 -107h-45l41 107q147 3 152 0z" />
    <glyph glyph-name="z" unicode="z" horiz-adv-x="547" 
d="M571 105q-26 -27 -72 -67q-60 -40 -134 -39l-371 1l51 106q69 42 248 180h-192l48 113h386l-47 -102l-251 -192h334z" />
    <glyph glyph-name="braceleft" unicode="{" horiz-adv-x="512" 
d="M516 755l-32 -74l-70 1q-23 -4 -37 -27l-84 -240q-7 -19 -41 -35q-16 -8 -57 -20q19 -6 40 -35q15 -20 3 -52l-99 -269l4 -12l83 -1l-33 -71l-161 -1q-34 0 -43.5 25.5t-2.5 45.5q12 33 118 312q10 28 0 40q-4 5 -38 38l4 3q23 3 55 11q22 10 31 36l101 261q12 31 44 50
q23 13 66 13z" />
    <glyph glyph-name="bar" unicode="|" horiz-adv-x="503" 
d="M301 -89h-108v818h108v-818z" />
    <glyph glyph-name="braceright" unicode="}" horiz-adv-x="512" 
d="M-14 -81l32 74l70 -1q24 4 38 27l84 240q7 19 41 35q16 8 56 20q-18 6 -39 35q-15 20 -4 52l99 269l-4 12h-84l34 72l161 -1q36 0 45 -24.5t1 -44.5q-12 -33 -117 -312q-11 -28 -1 -40q4 -5 38 -38l-3 -3q-23 -3 -55 -11q-22 -10 -32 -36l-100 -261q-13 -31 -45 -50
q-24 -14 -65 -14h-150z" />
    <glyph glyph-name="asciitilde" unicode="~" horiz-adv-x="363" 
d="M313 802q-8 -37 -33 -63q-28 -27 -65 -27q-20 0 -56.5 18t-56.5 18q-27 0 -43 -33h-35q10 37 32 62q26 29 60 29q20 0 59.5 -18.5t58.5 -18.5q32 0 45 33h34z" />
    <glyph glyph-name="Adieresis" unicode="&#xc4;" horiz-adv-x="799" 
d="M677 -1v118h136q-31 -111 -136 -118zM491 -2l1 181h-199l-133 -181h-162l126 183h-64l46 123h108l259 366h166v-672h-148zM493 507l-120 -202h120v202zM582 770q0 22 15.5 37t37.5 15t37.5 -15t15.5 -37q0 -21 -15.5 -36t-37.5 -15t-37.5 15t-15.5 36zM406 770
q0 22 15.5 37t37.5 15t37.5 -15t15.5 -37q0 -21 -15.5 -36t-37.5 -15t-37.5 15t-15.5 36z" />
    <glyph glyph-name="Aring" unicode="&#xc5;" horiz-adv-x="799" 
d="M677 -1v118h136q-31 -111 -136 -118zM491 -2l1 181h-199l-133 -181h-162l126 183h-64l46 123h108l259 366h166v-672h-148zM493 507l-120 -202h120v202zM560 841q33 0 59 -19.5t26 -50.5t-26 -50.5t-59 -19.5t-58.5 19.5t-25.5 50.5t25.5 50.5t58.5 19.5zM560 801
q-20 0 -32 -9.5t-12 -20.5q0 -10 12 -20t32 -10t32.5 10t12.5 20q0 11 -12.5 20.5t-32.5 9.5z" />
    <glyph glyph-name="Ccedilla" unicode="&#xc7;" horiz-adv-x="606" 
d="M351 -112q0 -16 -14 -32.5t-35 -23.5q-38 -13 -77 -13q-61 8 -81 19q-8 5 -15 10l19 31q14 -5 29 -10q10 -3 34 -3q33 0 36 14q0 -1 4 22q3 15 -3 19q-11 8 -24 8q-6 0 -17 -2t-16 -2l30 73h-29q-166 20 -166 194q0 114 75 249q83 148 200 201q70 32 188 32
q151 0 151 -67q0 -36 -57 -142q-13 1 -125 0l10 18q13 24 14 30v-2q6 26 -7 33q-7 4 -32 4q-157 0 -242 -215q-31 -78 -31 -125q0 -68 55 -83q17 -5 84 -5h315q-37 -44 -134 -81q-104 -40 -207 -41h-23l-15 -41q11 2 18 2q34 0 60 -18q28 -21 28 -53z" />
    <glyph glyph-name="Eacute" unicode="&#xc9;" horiz-adv-x="567" 
d="M23 270l47 113h82l113 287h356l-37 -124h-218l-66 -161h223l-42 -115h-228l-59 -148l386 -2q-52 -53 -86 -74q-61 -39 -157 -47h-214q-33 0 -60 26.5t-27 62.5q0 22 13 43q21 43 61 139h-87zM337 732l10 -25l218 52l-29 74z" />
    <glyph glyph-name="Ntilde" unicode="&#xd1;" horiz-adv-x="693" 
d="M200 530q0 22 -26 19h-128q7 23 25 61q22 45 28 61l200 -1q50 0 63 -46q1 0 2 -16q1 -12 5 -12q5 0 24 17q27 23 32 26q58 42 131 42q39 0 69.5 -30t30.5 -74q0 -8 -1 -16q-4 -29 -69 -205l-70 -188q-2 -6 -2 -10q0 -14 11.5 -24.5t26.5 -10.5h164q-145 -128 -240 -128
q-46 0 -79 19q-42 24 -42 72q0 34 70 206q36 86 76 183q4 15 4 27q0 24 -14 36t-28 12q-67 0 -111 -49q-30 -33 -60 -110q-52 -130 -161 -393h-136q58 139 116 277q89 216 89 255zM588 807q-21 -97 -102 -97q-22 0 -65.5 18.5t-65.5 18.5q-12 0 -26.5 -12t-20.5 -24h-39
q11 40 36 67q28 32 66 32q22 0 65.5 -20t64.5 -20q35 0 49 37h38z" />
    <glyph glyph-name="Odieresis" unicode="&#xd6;" horiz-adv-x="696" 
d="M228 -15q-96 0 -150 62q-51 58 -51 157q0 104 57.5 219t148.5 189q99 82 204 82q89 0 139 -58t50 -148q0 -104 -54 -221q-56 -120 -142 -196q-97 -86 -202 -86zM436 -2q39 22 58 38q32 25 63 74h55h104q-27 -47 -121 -79q-77 -27 -159 -33zM408 565q-89 0 -171 -135
q-74 -121 -74 -214q0 -37 19 -66q23 -33 60 -33q91 0 173 137q75 122 75 217q0 37 -22 65.5t-60 28.5zM492 770q0 22 15.5 37t37.5 15t37.5 -15t15.5 -37q0 -21 -15.5 -36t-37.5 -15t-37.5 15t-15.5 36zM316 770q0 22 15.5 37t37.5 15t37.5 -15t15.5 -37q0 -21 -15.5 -36
t-37.5 -15t-37.5 15t-15.5 36z" />
    <glyph glyph-name="Udieresis" unicode="&#xdc;" horiz-adv-x="703" 
d="M530 -10h-52q-68 0 -92 74q-102 -76 -219 -76q-61 0 -103 43.5t-38 104.5q1 20 66 187l75 195q-4 29 -29 29h-96q3 18 46 121h213q14 0 25 -18.5t11 -30.5q0 -32 -78 -237l-56 -145q-26 -70 -28 -83q-7 -49 44 -49q84 0 148 87q40 53 66 131q23 66 129 348q79 3 143 -1
l-189 -517l2 -18q4 -16 31 -16q58 -1 182 -1q-43 -41 -85 -82q-57 -46 -116 -46zM482 770q0 22 15.5 37t37.5 15t37.5 -15t15.5 -37q0 -21 -15.5 -36t-37.5 -15t-37.5 15t-15.5 36zM306 770q0 22 15.5 37t37.5 15t37.5 -15t15.5 -37q0 -21 -15.5 -36t-37.5 -15t-37.5 15
t-15.5 36z" />
    <glyph glyph-name="aacute" unicode="&#xe1;" horiz-adv-x="560" 
d="M583 106q-43 -59 -83 -84q-46 -29 -106 -29q-38 0 -64.5 21.5t-34.5 54.5q-25 -35 -71 -56t-91 -21q-53 0 -81 35t-28 89q0 100 72 192q77 98 173 98q41 0 55 -4q28 -8 63 -39l16 36h128l-109 -293h161zM335 262q0 17 -13.5 29.5t-29.5 12.5q-45 0 -85 -55
q-36 -51 -36 -99q0 -39 29 -39q52 0 93.5 49t41.5 102zM267 462l10 -25l218 52l-29 74z" />
    <glyph glyph-name="agrave" unicode="&#xe0;" horiz-adv-x="560" 
d="M583 106q-43 -59 -83 -84q-46 -29 -106 -29q-38 0 -64.5 21.5t-34.5 54.5q-25 -35 -71 -56t-91 -21q-53 0 -81 35t-28 89q0 100 72 192q77 98 173 98q41 0 55 -4q28 -8 63 -39l16 36h128l-109 -293h161zM335 262q0 17 -13.5 29.5t-29.5 12.5q-45 0 -85 -55
q-36 -51 -36 -99q0 -39 29 -39q52 0 93.5 49t41.5 102zM486 448l-13 -20l-280 66l104 58z" />
    <glyph glyph-name="acircumflex" unicode="&#xe2;" horiz-adv-x="560" 
d="M583 106q-43 -59 -83 -84q-46 -29 -106 -29q-38 0 -64.5 21.5t-34.5 54.5q-25 -35 -71 -56t-91 -21q-53 0 -81 35t-28 89q0 100 72 192q77 98 173 98q41 0 55 -4q28 -8 63 -39l16 36h128l-109 -293h161zM335 262q0 17 -13.5 29.5t-29.5 12.5q-45 0 -85 -55
q-36 -51 -36 -99q0 -39 29 -39q52 0 93.5 49t41.5 102zM494 438l-38 -1l-86 49l-108 -54l-44 1l126 102h56z" />
    <glyph glyph-name="adieresis" unicode="&#xe4;" horiz-adv-x="560" 
d="M583 106q-43 -59 -83 -84q-46 -29 -106 -29q-38 0 -64.5 21.5t-34.5 54.5q-25 -35 -71 -56t-91 -21q-53 0 -81 35t-28 89q0 100 72 192q77 98 173 98q41 0 55 -4q28 -8 63 -39l16 36h128l-109 -293h161zM335 262q0 17 -13.5 29.5t-29.5 12.5q-45 0 -85 -55
q-36 -51 -36 -99q0 -39 29 -39q52 0 93.5 49t41.5 102zM412 500q0 22 15.5 37t37.5 15t37.5 -15t15.5 -37q0 -21 -15.5 -36t-37.5 -15t-37.5 15t-15.5 36zM236 500q0 22 15.5 37t37.5 15t37.5 -15t15.5 -37q0 -21 -15.5 -36t-37.5 -15t-37.5 15t-15.5 36z" />
    <glyph glyph-name="atilde" unicode="&#xe3;" horiz-adv-x="560" 
d="M583 106q-43 -59 -83 -84q-46 -29 -106 -29q-38 0 -64.5 21.5t-34.5 54.5q-25 -35 -71 -56t-91 -21q-53 0 -81 35t-28 89q0 100 72 192q77 98 173 98q41 0 55 -4q28 -8 63 -39l16 36h128l-109 -293h161zM335 262q0 17 -13.5 29.5t-29.5 12.5q-45 0 -85 -55
q-36 -51 -36 -99q0 -39 29 -39q52 0 93.5 49t41.5 102zM503 542q-19 -88 -92 -88q-21 0 -60 17t-59 17q-27 0 -43 -33h-35q10 37 32 62q26 29 60 29q20 0 59.5 -18.5t58.5 -18.5q32 0 45 33h34z" />
    <glyph glyph-name="aring" unicode="&#xe5;" horiz-adv-x="560" 
d="M583 106q-43 -59 -83 -84q-46 -29 -106 -29q-38 0 -64.5 21.5t-34.5 54.5q-25 -35 -71 -56t-91 -21q-53 0 -81 35t-28 89q0 100 72 192q77 98 173 98q41 0 55 -4q28 -8 63 -39l16 36h128l-109 -293h161zM335 262q0 17 -13.5 29.5t-29.5 12.5q-45 0 -85 -55
q-36 -51 -36 -99q0 -39 29 -39q52 0 93.5 49t41.5 102zM350 581q33 0 59 -19.5t26 -50.5t-26 -50.5t-59 -19.5t-58.5 19.5t-25.5 50.5t25.5 50.5t58.5 19.5zM350 541q-20 0 -32 -9.5t-12 -20.5q0 -10 12 -20t32 -10t32.5 10t12.5 20q0 11 -12.5 20.5t-32.5 9.5z" />
    <glyph glyph-name="ccedilla" unicode="&#xe7;" horiz-adv-x="467" 
d="M341 -112q0 -31 -43 -45q-65 -22 -82 -22q-61 8 -82 18l-16 10l20 31q14 -5 28 -11q11 -3 34 -3q7 0 24.5 10.5t19.5 17.5q0 23 -6 27q-11 8 -25 8q-5 0 -16 -2t-17 -2l29 69q-181 12 -181 128q0 97 64 183q71 95 171 95l168 -1l-49 -119q-15 0 -45 1q-72 5 -119 -28.5
t-47 -96.5q0 -50 107 -50h211q-81 -111 -241 -113l-13 -35q11 2 18 2q34 0 61 -19.5t27 -52.5z" />
    <glyph glyph-name="eacute" unicode="&#xe9;" horiz-adv-x="459" 
d="M478 106q-65 -59 -119 -86q-66 -32 -141 -32q-77 0 -128 29q-62 35 -62 106q0 96 81 187.5t178 98.5q56 5 93.5 -18t37.5 -64q0 -67 -40 -108q-31 -33 -94 -56q-56 -16 -112 -33q-21 -7 -12 -24h318zM300 302q0 23 -19 23q-32 0 -68 -38t-36 -74q0 -7 5 -7q35 0 76.5 31
t41.5 65zM207 462l10 -25l218 52l-29 74z" />
    <glyph glyph-name="egrave" unicode="&#xe8;" horiz-adv-x="459" 
d="M478 106q-65 -59 -119 -86q-66 -32 -141 -32q-77 0 -128 29q-62 35 -62 106q0 96 81 187.5t178 98.5q56 5 93.5 -18t37.5 -64q0 -67 -40 -108q-31 -33 -94 -56q-56 -16 -112 -33q-21 -7 -12 -24h318zM300 302q0 23 -19 23q-32 0 -68 -38t-36 -74q0 -7 5 -7q35 0 76.5 31
t41.5 65zM466 448l-13 -20l-280 66l104 58z" />
    <glyph glyph-name="ecircumflex" unicode="&#xea;" horiz-adv-x="459" 
d="M478 106q-65 -59 -119 -86q-66 -32 -141 -32q-77 0 -128 29q-62 35 -62 106q0 96 81 187.5t178 98.5q56 5 93.5 -18t37.5 -64q0 -67 -40 -108q-31 -33 -94 -56q-56 -16 -112 -33q-21 -7 -12 -24h318zM300 302q0 23 -19 23q-32 0 -68 -38t-36 -74q0 -7 5 -7q35 0 76.5 31
t41.5 65zM444 438l-38 -1l-86 49l-108 -54l-44 1l126 102h56z" />
    <glyph glyph-name="edieresis" unicode="&#xeb;" horiz-adv-x="459" 
d="M478 106q-65 -59 -119 -86q-66 -32 -141 -32q-77 0 -128 29q-62 35 -62 106q0 96 81 187.5t178 98.5q56 5 93.5 -18t37.5 -64q0 -67 -40 -108q-31 -33 -94 -56q-56 -16 -112 -33q-21 -7 -12 -24h318zM300 302q0 23 -19 23q-32 0 -68 -38t-36 -74q0 -7 5 -7q35 0 76.5 31
t41.5 65zM382 500q0 22 15.5 37t37.5 15t37.5 -15t15.5 -37q0 -21 -15.5 -36t-37.5 -15t-37.5 15t-15.5 36zM206 500q0 22 15.5 37t37.5 15t37.5 -15t15.5 -37q0 -21 -15.5 -36t-37.5 -15t-37.5 15t-15.5 36z" />
    <glyph glyph-name="iacute" unicode="&#xed;" horiz-adv-x="315" 
d="M338 106q-8 -8 -35 -47q-18 -27 -42 -40q-45 -23 -114 -23q-62 0 -84 19q-37 33 -33 88q0 9 20 58l94 238h145l-125 -293h174zM117 462l10 -25l218 52l-29 74z" />
    <glyph glyph-name="igrave" unicode="&#xec;" horiz-adv-x="315" 
d="M338 106q-8 -8 -35 -47q-18 -27 -42 -40q-45 -23 -114 -23q-62 0 -84 19q-37 33 -33 88q0 9 20 58l94 238h145l-125 -293h174zM376 448l-13 -20l-280 66l104 58z" />
    <glyph glyph-name="icircumflex" unicode="&#xee;" horiz-adv-x="315" 
d="M338 106q-8 -8 -35 -47q-18 -27 -42 -40q-45 -23 -114 -23q-62 0 -84 19q-37 33 -33 88q0 9 20 58l94 238h145l-125 -293h174zM364 438l-38 -1l-86 49l-108 -54l-44 1l126 102h56z" />
    <glyph glyph-name="idieresis" unicode="&#xef;" horiz-adv-x="315" 
d="M338 106q-8 -8 -35 -47q-18 -27 -42 -40q-45 -23 -114 -23q-62 0 -84 19q-37 33 -33 88q0 9 20 58l94 238h145l-125 -293h174zM282 500q0 22 15.5 37t37.5 15t37.5 -15t15.5 -37q0 -21 -15.5 -36t-37.5 -15t-37.5 15t-15.5 36zM106 500q0 22 15.5 37t37.5 15t37.5 -15
t15.5 -37q0 -21 -15.5 -36t-37.5 -15t-37.5 15t-15.5 36z" />
    <glyph glyph-name="ntilde" unicode="&#xf1;" horiz-adv-x="560" 
d="M577 103q-57 -108 -193 -108q-38 0 -72 20q-37 22 -39 52q-2 32 27 87q35 68 42 99q3 11 -4.5 27t-19.5 16q-41 0 -76.5 -31.5t-54.5 -81.5q-2 -6 -74 -183h-129l162 399h124l-19 -52q80 59 159 59q82 0 86 -71q1 -27 -35 -123q-20 -54 -40 -109h156zM483 542
q-19 -88 -92 -88q-21 0 -60 17t-59 17q-27 0 -43 -33h-35q10 37 32 62q26 29 60 29q20 0 59.5 -18.5t58.5 -18.5q32 0 45 33h34z" />
    <glyph glyph-name="oacute" unicode="&#xf3;" horiz-adv-x="528" 
d="M543 106q-58 -112 -184 -112q-65 0 -92 22q-46 -26 -108 -26q-128 0 -128 132q0 107 66 193q72 95 175 95q66 0 111 -33q51 -37 51 -100q0 -84 -59 -171h168zM308 253q0 54 -40 54q-43 0 -81 -53q-35 -49 -35 -94q0 -60 47 -60q43 0 78 56q31 51 31 97zM177 462l10 -25
l218 52l-29 74z" />
    <glyph glyph-name="ograve" unicode="&#xf2;" horiz-adv-x="528" 
d="M543 106q-58 -112 -184 -112q-65 0 -92 22q-46 -26 -108 -26q-128 0 -128 132q0 107 66 193q72 95 175 95q66 0 111 -33q51 -37 51 -100q0 -84 -59 -171h168zM308 253q0 54 -40 54q-43 0 -81 -53q-35 -49 -35 -94q0 -60 47 -60q43 0 78 56q31 51 31 97zM456 448l-13 -20
l-280 66l104 58z" />
    <glyph glyph-name="ocircumflex" unicode="&#xf4;" horiz-adv-x="528" 
d="M543 106q-58 -112 -184 -112q-65 0 -92 22q-46 -26 -108 -26q-128 0 -128 132q0 107 66 193q72 95 175 95q66 0 111 -33q51 -37 51 -100q0 -84 -59 -171h168zM308 253q0 54 -40 54q-43 0 -81 -53q-35 -49 -35 -94q0 -60 47 -60q43 0 78 56q31 51 31 97zM424 438l-38 -1
l-86 49l-108 -54l-44 1l126 102h56z" />
    <glyph glyph-name="odieresis" unicode="&#xf6;" horiz-adv-x="528" 
d="M543 106q-58 -112 -184 -112q-65 0 -92 22q-46 -26 -108 -26q-128 0 -128 132q0 107 66 193q72 95 175 95q66 0 111 -33q51 -37 51 -100q0 -84 -59 -171h168zM308 253q0 54 -40 54q-43 0 -81 -53q-35 -49 -35 -94q0 -60 47 -60q43 0 78 56q31 51 31 97zM342 500
q0 22 15.5 37t37.5 15t37.5 -15t15.5 -37q0 -21 -15.5 -36t-37.5 -15t-37.5 15t-15.5 36zM166 500q0 22 15.5 37t37.5 15t37.5 -15t15.5 -37q0 -21 -15.5 -36t-37.5 -15t-37.5 15t-15.5 36z" />
    <glyph glyph-name="otilde" unicode="&#xf5;" horiz-adv-x="528" 
d="M543 106q-58 -112 -184 -112q-65 0 -92 22q-46 -26 -108 -26q-128 0 -128 132q0 107 66 193q72 95 175 95q66 0 111 -33q51 -37 51 -100q0 -84 -59 -171h168zM308 253q0 54 -40 54q-43 0 -81 -53q-35 -49 -35 -94q0 -60 47 -60q43 0 78 56q31 51 31 97zM453 542
q-19 -88 -92 -88q-21 0 -60 17t-59 17q-27 0 -43 -33h-35q10 37 32 62q26 29 60 29q20 0 59.5 -18.5t58.5 -18.5q32 0 45 33h34z" />
    <glyph glyph-name="uacute" unicode="&#xfa;" horiz-adv-x="586" 
d="M603 105q-46 -56 -81 -80q-48 -32 -106 -32q-83 0 -106 52q-56 -56 -167 -55q-121 2 -121 50v20q3 25 60 166q55 135 75 173h140l-107 -274q-2 -5 -2 -9q0 -18 42 -16q47 1 92 68q33 48 65 132l36 98l145 1l-125 -294h160zM267 462l10 -25l218 52l-29 74z" />
    <glyph glyph-name="ugrave" unicode="&#xf9;" horiz-adv-x="586" 
d="M603 105q-46 -56 -81 -80q-48 -32 -106 -32q-83 0 -106 52q-56 -56 -167 -55q-121 2 -121 50v20q3 25 60 166q55 135 75 173h140l-107 -274q-2 -5 -2 -9q0 -18 42 -16q47 1 92 68q33 48 65 132l36 98l145 1l-125 -294h160zM506 448l-13 -20l-280 66l104 58z" />
    <glyph glyph-name="ucircumflex" unicode="&#xfb;" horiz-adv-x="586" 
d="M603 105q-46 -56 -81 -80q-48 -32 -106 -32q-83 0 -106 52q-56 -56 -167 -55q-121 2 -121 50v20q3 25 60 166q55 135 75 173h140l-107 -274q-2 -5 -2 -9q0 -18 42 -16q47 1 92 68q33 48 65 132l36 98l145 1l-125 -294h160zM494 438l-38 -1l-86 49l-108 -52l-44 -1
l126 102h56z" />
    <glyph glyph-name="udieresis" unicode="&#xfc;" horiz-adv-x="586" 
d="M603 105q-46 -56 -81 -80q-48 -32 -106 -32q-83 0 -106 52q-56 -56 -167 -55q-121 2 -121 50v20q3 25 60 166q55 135 75 173h140l-107 -274q-2 -5 -2 -9q0 -18 42 -16q47 1 92 68q33 48 65 132l36 98l145 1l-125 -294h160zM402 500q0 22 15.5 37t37.5 15t37.5 -15
t15.5 -37q0 -21 -15.5 -36t-37.5 -15t-37.5 15t-15.5 36zM226 500q0 22 15.5 37t37.5 15t37.5 -15t15.5 -37q0 -21 -15.5 -36t-37.5 -15t-37.5 15t-15.5 36z" />
    <glyph glyph-name="dagger" unicode="&#x2020;" horiz-adv-x="532" 
d="M539 410l-46 -114h-132l-179 -440h-143l178 440h-133l46 115h135l66 168h143l-68 -169h133z" />
    <glyph glyph-name="degree" unicode="&#xb0;" horiz-adv-x="231" 
d="M315 446q0 -38 -25.5 -63t-63.5 -25q-37 0 -63.5 25.5t-26.5 62.5q0 38 26 64t64 26q37 0 63 -26t26 -64zM278 444q0 23 -15 38.5t-37 15.5t-38 -16t-16 -38t15.5 -37t38.5 -15q22 0 37 15t15 37z" />
    <glyph glyph-name="cent" unicode="&#xa2;" horiz-adv-x="502" 
d="M356 668h61l-42 -108l86 -1l-49 -119q-15 0 -45 1q-72 5 -119 -28.5t-47 -96.5q0 -50 107 -50h211q-83 -113 -248 -113q-10 0 -21 1l-43 -110h-61l45 116q-133 25 -133 122t64 183q71 95 171 95h21z" />
    <glyph glyph-name="sterling" unicode="&#xa3;" horiz-adv-x="633" 
d="M326 375l89 1l-36 -95l-92 -1l-70 -168h379q-50 -61 -120 -87q-66 -25 -138 -25l-380 -1l56 117h59l74 164l-59 1l42 94l57 1l35 93q37 121 114 169q57 35 148 35q22 0 61 -2t55 -2q31 0 58 -29t27 -73q0 -8 -1 -17q-5 -33 -9 -44q-8 -20 -17 -40h-136q22 34 22 55
q0 23 -29 23q-4 0 -22 1t-31 1q-89 0 -101 -64z" />
    <glyph glyph-name="section" unicode="&#xa7;" horiz-adv-x="624" 
d="M196 0v665h214v-665h-214zM370 625h-134v-585h134v585z" />
    <glyph glyph-name="bullet" unicode="&#x2022;" horiz-adv-x="334" 
d="M263 289q0 -44 -30.5 -75t-74.5 -31q-43 0 -73.5 31.5t-30.5 74.5t30 73.5t74 30.5t74.5 -30t30.5 -74z" />
    <glyph glyph-name="paragraph" unicode="&#xb6;" horiz-adv-x="624" 
d="M196 0v665h214v-665h-214zM370 625h-134v-585h134v585z" />
    <glyph glyph-name="germandbls" unicode="&#xdf;" horiz-adv-x="645" 
d="M531 167q0 -27 -20 -57h172q-126 -119 -182 -119h-246l35 112q40 0 49 2q14 3 41 23q13 29 13 52q0 41 -24 96.5t-24 68.5q0 25 24 49t47 48q27 33 33 77l-15 34l-27 7q-46 0 -75 -73l-307 -781h-135l325 835q28 71 85.5 109.5t134.5 38.5q71 0 117 -36q51 -39 51 -108
q0 -60 -29 -108q-21 -35 -74 -85l-5 -19q0 -27 18 -82.5t18 -83.5z" />
    <glyph glyph-name="registered" unicode="&#xae;" horiz-adv-x="560" 
d="M339 512q0 -43 -48 -55q22 -13 29.5 -26t10.5 -41q-1 -23 1 -56h-44q1 14 -3 61q-7 45 -52 43l-29 -1v-103h-43v246q8 1 75 1h47q17 -3 36.5 -19.5t19.5 -49.5zM294 509q0 25 -10 33t-46 6q-11 1 -34 1v-78h30q60 0 60 38zM248 244q-89 0 -152 63t-63 153q0 89 63 152
t152 63h1q89 0 151 -63t62 -152q0 -90 -62 -153t-152 -63zM248 650h-1q-75 0 -127.5 -56t-52.5 -135t52.5 -134.5t128.5 -55.5t129 55t53 135q0 79 -53 135t-129 56z" />
    <glyph glyph-name="copyright" unicode="&#xa9;" horiz-adv-x="795" 
d="M362 -6q-140 0 -236.5 99t-96.5 240t93 239t232 98h1q139 0 238 -99t99 -238q0 -142 -95.5 -240.5t-234.5 -98.5zM354 639h-1q-121 0 -203 -89.5t-82 -217.5t85.5 -217.5t208.5 -89.5t208.5 89.5t85.5 217.5q0 127 -89.5 217t-212.5 90zM367 135q-93 0 -146 55t-53 140
q0 90 63 148q60 54 146 54q76 0 113 -24l-11 -40q-46 21 -102 21q-72 0 -113 -41.5t-41 -113.5q0 -68 43 -112t111 -44q63 0 107 22l11 -35q-52 -30 -128 -30z" />
    <glyph glyph-name="trademark" unicode="&#x2122;" horiz-adv-x="618" 
d="M518 419h-40l-15 219l-45 -213l-52 -1l-62 214l-9 -219h-46l18 255h68l53 -191l44 191h69zM135 635v-214h-49v214h-74v37h199v-37h-76z" />
    <glyph glyph-name="acute" unicode="&#xb4;" horiz-adv-x="483" 
d="M137 732l10 -25l218 52l-29 74z" />
    <glyph glyph-name="dieresis" unicode="&#xa8;" horiz-adv-x="430" 
d="M252 770q0 22 15.5 37t37.5 15t37.5 -15t15.5 -37q0 -21 -15.5 -36t-37.5 -15t-37.5 15t-15.5 36zM76 770q0 22 15.5 37t37.5 15t37.5 -15t15.5 -37q0 -21 -15.5 -36t-37.5 -15t-37.5 15t-15.5 36z" />
    <glyph glyph-name="AE" unicode="&#xc6;" horiz-adv-x="1046" 
d="M1081 668l-33 -126h-209l-52 -151h216l-50 -118h-221l-51 -160h387q-139 -113 -246 -113h-355l77 180h-193l-189 -180h-165l168 165l8 15h-53l101 133h111l399 355h350zM661 466l-156 -148h94z" />
    <glyph glyph-name="Oslash" unicode="&#xd8;" horiz-adv-x="696" 
d="M436 -2q39 22 58 38q32 25 63 74h55h104q-27 -47 -121 -79q-77 -27 -159 -33zM196 135l207 430q-88 -5 -168 -138q-72 -120 -72 -211q0 -51 33 -81zM449 554l-210 -437h3q91 -2 173 135q75 124 75 219q0 57 -41 83zM489 743h51l-30 -62q56 -21 86 -72.5t30 -120.5
q0 -104 -54 -221q-56 -120 -142 -196q-97 -86 -202 -86q-27 0 -51 5l-23 -48h-52l31 63q-106 51 -106 199q0 104 57.5 219t148.5 189q99 82 204 82q14 0 27 -2z" />
    <glyph glyph-name="plusminus" unicode="&#xb1;" horiz-adv-x="624" 
d="M196 0v665h214v-665h-214zM370 625h-134v-585h134v585z" />
    <glyph glyph-name="yen" unicode="&#xa5;" horiz-adv-x="637" 
d="M116 5q14 23 45 95h-124l31 65h120l28 66h-130l31 65h127l12 29q1 4 -13 70q-15 72 -26 100q-1 44 -50 44h-120l52 124h163q18 0 36.5 -16t27.5 -43q15 -48 38 -143l188 202h168l-315 -336l-12 -31h142l-25 -65h-143l-26 -66h149l-25 -65h-150q-38 -98 -38 -100
q0 3 -82 4z" />
    <glyph glyph-name="mu" unicode="&#xb5;" horiz-adv-x="570" 
d="M72 267l119 52l142 352q72 4 147 -2l-111 -273l161 70l-30 -61l-154 -67l-87 -218h333q-101 -123 -321 -123h-270l48 128q30 -2 67 3q0 3 52 132l-126 -54z" />
    <glyph glyph-name="mu" unicode="&#x3bc;" horiz-adv-x="570" 
d="M72 267l119 52l142 352q72 4 147 -2l-111 -273l161 70l-30 -61l-154 -67l-87 -218h333q-101 -123 -321 -123h-270l48 128q30 -2 67 3q0 3 52 132l-126 -54z" />
    <glyph glyph-name="ordfeminine" unicode="&#xaa;" horiz-adv-x="590" 
d="M633 547q-289 -296 -406 -427h393q-63 -58 -108 -84q-67 -38 -139 -38h-370l50 126l402 423h-249l49 123h193h222zM370 805l42 1l59 -46l92 52l49 -1l-122 -107h-46z" />
    <glyph glyph-name="ordmasculine" unicode="&#xba;" horiz-adv-x="547" 
d="M571 105q-26 -27 -72 -67q-60 -40 -134 -39l-371 1l51 106q69 42 248 180h-192l48 114l386 -1l-47 -102l-251 -192h334zM240 535l42 1l59 -46l92 52l49 -1l-122 -107h-46z" />
    <glyph glyph-name="ae" unicode="&#xe6;" horiz-adv-x="727" 
d="M758 106q-65 -59 -108 -80q-53 -27 -129 -27h-244q3 13 18 70q-25 -35 -71 -56t-91 -21q-53 0 -81 35t-28 89q0 100 72 192q77 98 173 98q41 0 55 -4q28 -8 63 -39l16 36h54q8 2 110 10q56 5 93.5 -18t37.5 -64q0 -67 -40 -108q-31 -33 -94 -55l-112 -34q-21 -6 -12 -24
h318zM580 302q0 23 -19 23q-32 0 -68 -38t-36 -74q0 -7 5 -7q35 0 76.5 31t41.5 65zM335 262q0 17 -13.5 29.5t-29.5 12.5q-45 0 -85 -55q-36 -51 -36 -99q0 -39 29 -39q52 0 93.5 49t41.5 102z" />
    <glyph glyph-name="oslash" unicode="&#xf8;" horiz-adv-x="528" 
d="M543 106q-58 -112 -184 -112q-65 0 -92 22q-46 -26 -108 -26q-9 0 -18 1l-24 -49h-35l27 55q-78 26 -78 125q0 107 66 193q72 95 175 95q17 0 34 -3l21 43h35l-24 -51q96 -31 96 -122q0 -84 -59 -171h168zM257 306q-40 -7 -72.5 -55.5t-32.5 -90.5q0 -30 13 -46zM308 253
q0 35 -18 48l-96 -201h5q43 0 78 56q31 51 31 97z" />
    <glyph glyph-name="questiondown" unicode="&#xbf;" horiz-adv-x="571" 
d="M353 233h156q-25 -95 -88 -146q-14 -11 -102 -58q-49 -26 -49 -66q0 -14 16 -24t31 -10q28 0 52 24q22 21 29 50h177q-23 -86 -113 -144q-85 -55 -178 -55q-75 0 -128 24q-71 32 -71 98q0 88 77 149q25 21 150 89q19 10 41 69zM448 289q-33 0 -54.5 20t-21.5 52
q0 48 40.5 86t87.5 38q33 0 54.5 -20t21.5 -53q0 -47 -40 -85t-88 -38z" />
    <glyph glyph-name="exclamdown" unicode="&#xa1;" horiz-adv-x="448" 
d="M54 -195l195 425l112 -1l-103 -424h-204zM328 291q-35 1 -57.5 24.5t-22.5 57.5q0 45 35.5 79t80.5 32q35 -1 57.5 -24t22.5 -57q0 -45 -35.5 -79t-80.5 -33z" />
    <glyph glyph-name="logicalnot" unicode="&#xac;" horiz-adv-x="624" 
d="M196 0v665h214v-665h-214zM370 625h-134v-585h134v585z" />
    <glyph glyph-name="florin" unicode="&#x192;" horiz-adv-x="624" 
d="M196 0v665h214v-665h-214zM370 625h-134v-585h134v585z" />
    <glyph glyph-name="guillemotleft" unicode="&#xab;" horiz-adv-x="410" 
d="M410 362l-24 -98l-102 -56l71 -68l-25 -84l-117 118l14 83zM207 355l-23 -94l-97 -51l66 -75l-21 -83l-119 122l15 76z" />
    <glyph glyph-name="guillemotright" unicode="&#xbb;" horiz-adv-x="410" 
d="M401 235l-20 -77l-179 -106l28 104l96 49l-69 67l20 86zM200 237l-21 -78l-177 -103l28 99l96 53l-70 68l23 86z" />
    <glyph glyph-name="ellipsis" unicode="&#x2026;" horiz-adv-x="953" 
d="M906 163l-24 -163h-167l25 163h166zM556 163l-23 -163h-167l24 163h166zM214 163l-23 -163h-167l25 163h165z" />
    <glyph glyph-name="nonbreakingspace" unicode="&#xa0;" horiz-adv-x="212" 
 />
    <glyph glyph-name="Agrave" unicode="&#xc0;" horiz-adv-x="799" 
d="M677 -1v118h136q-31 -111 -136 -118zM491 -2l1 181h-199l-133 -181h-162l126 183h-64l46 123h108l259 366h166v-672h-148zM493 507l-120 -202h120v202zM653 721l-15 -23l-311 74l116 64z" />
    <glyph glyph-name="Atilde" unicode="&#xc3;" horiz-adv-x="799" 
d="M677 -1v118h136q-31 -111 -136 -118zM491 -2l1 181h-199l-133 -181h-162l126 183h-64l46 123h108l259 366h166v-672h-148zM493 507l-120 -202h120v202zM693 802q-19 -88 -92 -88q-21 0 -60 17t-59 17q-27 0 -43 -33h-35q10 37 32 62q26 29 60 29q20 0 59.5 -18.5
t58.5 -18.5q32 0 45 33h34z" />
    <glyph glyph-name="Otilde" unicode="&#xd5;" horiz-adv-x="696" 
d="M228 -15q-96 0 -150 62q-51 58 -51 157q0 104 57.5 219t148.5 189q99 82 204 82q89 0 139 -58t50 -148q0 -104 -54 -221q-56 -120 -142 -196q-97 -86 -202 -86zM436 -2q39 22 58 38q32 25 63 74h55h104q-27 -47 -121 -79q-77 -27 -159 -33zM408 565q-89 0 -171 -135
q-74 -121 -74 -214q0 -37 19 -66q23 -33 60 -33q91 0 173 137q75 122 75 217q0 37 -22 65.5t-60 28.5zM623 802q-19 -88 -92 -88q-21 0 -60 17t-59 17q-27 0 -43 -33h-35q10 37 32 62q26 29 60 29q20 0 59.5 -18.5t58.5 -18.5q32 0 45 33h34z" />
    <glyph glyph-name="OE" unicode="&#x152;" horiz-adv-x="891" 
d="M228 -15q-96 0 -150 62q-51 58 -51 157q0 104 57.5 219t148.5 189q99 82 204 82q91 0 143 -63l15 39l356 1l-37 -125h-218l-66 -161h223l-42 -115h-228l-59 -148h386l-39 -39q-23 -22 -44 -35q-64 -41 -160 -49h-214q-41 0 -69 37q-76 -51 -156 -51zM408 565
q-89 0 -171 -135q-74 -121 -74 -214q0 -37 19 -66q23 -33 60 -33q91 0 173 137q75 122 75 217q0 37 -22 65.5t-60 28.5z" />
    <glyph glyph-name="oe" unicode="&#x153;" horiz-adv-x="716" 
d="M308 253q0 54 -40 54q-43 0 -81 -53q-35 -49 -35 -94q0 -60 47 -60q43 0 78 56q31 51 31 97zM738 106q-65 -59 -119 -86q-66 -32 -141 -32q-100 0 -152 46q-65 -44 -167 -44q-128 0 -128 132q0 107 66 193q72 95 175 95q94 0 139 -60q66 54 136 59q56 5 93.5 -18
t37.5 -64q0 -67 -40 -108q-31 -33 -94 -55l-112 -34q-21 -6 -12 -24h318zM560 302q0 23 -19 23q-32 0 -68 -38t-36 -74q0 -7 5 -7q35 0 76.5 31t41.5 65z" />
    <glyph glyph-name="endash" unicode="&#x2013;" horiz-adv-x="549" 
d="M537 122h-528v111h528v-111z" />
    <glyph glyph-name="emdash" unicode="&#x2014;" horiz-adv-x="887" 
d="M867 122h-858v111h858v-111z" />
    <glyph glyph-name="quotedblleft" unicode="&#x201c;" horiz-adv-x="600" 
d="M160 539q15 42 65 80q33 23 66 45l26 -26q-32 -18 -65 -69q18 -2 35 -12q45 -26 45 -79q0 -26 -13 -49q-28 -48 -83 -48q-24 0 -44 12q-48 27 -48 82q0 31 16 64zM380 539q15 42 65 80q33 23 66 45l26 -26q-32 -18 -65 -69q18 -2 35 -12q45 -26 45 -79q0 -26 -13 -49
q-28 -48 -83 -48q-24 0 -44 12q-48 27 -48 82q0 31 16 64z" />
    <glyph glyph-name="quotedblright" unicode="&#x201d;" horiz-adv-x="600" 
d="M553 517q-15 -42 -65 -79q-33 -23 -66 -45l-26 26q31 18 65 69q-19 2 -35 11q-45 26 -45 80q0 26 13 49q28 48 82 48q24 0 45 -12q48 -28 48 -82q0 -32 -16 -65zM333 517q-15 -42 -65 -79q-33 -23 -66 -45l-26 26q31 18 65 69q-19 2 -35 11q-45 26 -45 80q0 26 13 49
q28 48 82 48q24 0 45 -12q48 -28 48 -82q0 -32 -16 -65z" />
    <glyph glyph-name="quoteleft" unicode="&#x2018;" horiz-adv-x="385" 
d="M160 539q15 42 65 80q33 23 66 45l26 -26q-32 -18 -65 -69q18 -2 35 -12q45 -26 45 -79q0 -26 -13 -49q-28 -48 -83 -48q-24 0 -44 12q-48 27 -48 82q0 31 16 64z" />
    <glyph glyph-name="quoteright" unicode="&#x2019;" horiz-adv-x="193" 
d="M289 517q-16 -42 -65 -79q-33 -23 -66 -45l-27 26q32 18 66 69q-19 2 -35 11q-45 26 -45 80q0 26 13 49q28 48 82 48q24 0 45 -12q47 -28 47 -82q0 -32 -15 -65z" />
    <glyph glyph-name="divide" unicode="&#xf7;" horiz-adv-x="624" 
d="M196 0v665h214v-665h-214zM370 625h-134v-585h134v585z" />
    <glyph glyph-name="ydieresis" unicode="&#xff;" horiz-adv-x="580" 
d="M527 398l-227 -532q-14 -33 -41 -59q-31 -31 -63 -31l-280 1l45 113h180q6 -3 22 2q22 7 33 29q23 42 55 120q-90 -47 -136 -47q-38 0 -69.5 15.5t-31.5 48.5q0 7 3 14l128 326h141l-111 -265q-7 -15 32 -15q19 0 55 19q8 6 16 16q19 22 36 57q27 65 81 188h132zM604 107
q-64 -107 -148 -107h-45l41 107q147 3 152 0zM392 490q0 22 15.5 37t37.5 15t37.5 -15t15.5 -37q0 -21 -15.5 -36t-37.5 -15t-37.5 15t-15.5 36zM216 490q0 22 15.5 37t37.5 15t37.5 -15t15.5 -37q0 -21 -15.5 -36t-37.5 -15t-37.5 15t-15.5 36z" />
    <glyph glyph-name="Ydieresis" unicode="&#x178;" horiz-adv-x="738" 
d="M592 1h-45l50 121h164q-94 -121 -169 -121zM361 -285l-140 1l144 350q-15 -7 -84 -49q-44 -27 -63 -27q-3 0 -21.5 -1.5t-22.5 -1.5q-50 0 -86 27q-40 31 -40 84q0 30 34 116l50 118q16 42 65 163q0 50 -41 53h-11h-137q18 43 56 126q189 2 280 1q38 -10 38 -47
q0 -29 -63 -184q-43 -103 -87 -206q-28 -72 -28 -90q0 -39 42 -39q82 0 164 126q57 88 83 172q8 26 108 267h142zM512 770q0 22 15.5 37t37.5 15t37.5 -15t15.5 -37q0 -21 -15.5 -36t-37.5 -15t-37.5 15t-15.5 36zM336 770q0 22 15.5 37t37.5 15t37.5 -15t15.5 -37
q0 -21 -15.5 -36t-37.5 -15t-37.5 15t-15.5 36z" />
    <glyph glyph-name="currency" unicode="&#xa4;" horiz-adv-x="620" 
d="M272 301q-46 0 -88 -66q-38 -59 -38 -108q0 -33 32 -33q34 0 74 53q33 43 46 84q8 22 8 37q0 33 -34 33zM448 330h218q-52 -61 -98 -80q-42 -19 -123 -19q-28 -109 -93 -175q-74 -74 -180 -74q-56 0 -104 25q-58 31 -58 82q0 13 4 26q21 75 213 554l128 -1l-118 -290
q46 38 104 38q90 0 107 -86z" />
    <glyph glyph-name="guilsinglleft" unicode="&#x2039;" horiz-adv-x="227" 
d="M207 355l-23 -94l-97 -51l66 -75l-21 -83l-119 122l15 76z" />
    <glyph glyph-name="guilsinglright" unicode="&#x203a;" horiz-adv-x="223" 
d="M200 237l-21 -78l-177 -103l28 99l96 53l-70 68l23 86z" />
    <glyph glyph-name="daggerdbl" unicode="&#x2021;" horiz-adv-x="624" 
d="M196 0v665h214v-665h-214zM370 625h-134v-585h134v585z" />
    <glyph glyph-name="periodcentered" unicode="&#xb7;" horiz-adv-x="300" 
d="M97 267q0 29 20.5 49.5t49.5 20.5q30 0 50.5 -20.5t20.5 -49.5t-20.5 -50t-50.5 -21q-29 0 -49.5 21t-20.5 50z" />
    <glyph glyph-name="periodcentered" unicode="&#x2219;" horiz-adv-x="300" 
d="M97 267q0 29 20.5 49.5t49.5 20.5q30 0 50.5 -20.5t20.5 -49.5t-20.5 -50t-50.5 -21q-29 0 -49.5 21t-20.5 50z" />
    <glyph glyph-name="quotesinglbase" unicode="&#x201a;" horiz-adv-x="282" 
d="M199 17q-16 -42 -65 -79q-33 -23 -66 -45l-27 26q32 18 66 69q-19 2 -35 11q-45 26 -45 80q0 26 13 49q28 48 82 48q24 0 45 -12q47 -28 47 -82q0 -32 -15 -65z" />
    <glyph glyph-name="quotedblbase" unicode="&#x201e;" horiz-adv-x="483" 
d="M399 27q-16 -42 -65 -79q-33 -23 -66 -45l-27 26q32 18 66 69q-19 2 -35 11q-45 26 -45 80q0 26 13 49q28 48 82 48q24 0 45 -12q47 -28 47 -82q0 -32 -15 -65zM179 27q-16 -42 -65 -79q-33 -23 -66 -45l-27 26q32 18 66 69q-19 2 -35 11q-45 26 -45 80q0 26 13 49
q28 48 82 48q24 0 45 -12q47 -28 47 -82q0 -32 -15 -65z" />
    <glyph glyph-name="perthousand" unicode="&#x2030;" horiz-adv-x="624" 
d="M196 0v665h214v-665h-214zM370 625h-134v-585h134v585z" />
    <glyph glyph-name="Acircumflex" unicode="&#xc2;" horiz-adv-x="799" 
d="M677 -1v118h136q-31 -111 -136 -118zM491 -2l1 181h-199l-133 -181h-162l126 183h-64l46 123h108l259 366h166v-672h-148zM493 507l-120 -202h120v202zM699 703l-41 -1l-97 54l-119 -59l-50 1l141 113h62z" />
    <glyph glyph-name="Ecircumflex" unicode="&#xca;" horiz-adv-x="567" 
d="M23 270l47 113h82l113 287l356 -2l-37 -122h-218l-66 -161h223l-42 -115h-228l-59 -149l386 -1q-52 -53 -86 -74q-61 -39 -157 -47h-214q-33 0 -60 26.5t-27 62.5q0 22 13 43q21 43 61 139h-87zM599 703l-41 -1l-97 54l-119 -59l-50 1l141 113h62z" />
    <glyph glyph-name="Aacute" unicode="&#xc1;" horiz-adv-x="799" 
d="M677 -1v118h136q-31 -111 -136 -118zM491 -2l1 181h-199l-133 -181h-162l126 183h-64l46 123h108l259 366h166v-672h-148zM493 507l-120 -202h120v202zM457 732l10 -25l218 52l-29 74z" />
    <glyph glyph-name="Edieresis" unicode="&#xcb;" horiz-adv-x="567" 
d="M23 270l47 113h82l113 287h356l-37 -124h-218l-66 -161h223l-42 -115h-228l-59 -148l386 -2q-52 -53 -86 -74q-61 -39 -157 -47h-214q-33 0 -60 26.5t-27 62.5q0 22 13 43q21 43 61 139h-87zM492 770q0 22 15.5 37t37.5 15t37.5 -15t15.5 -37q0 -21 -15.5 -36t-37.5 -15
t-37.5 15t-15.5 36zM316 770q0 22 15.5 37t37.5 15t37.5 -15t15.5 -37q0 -21 -15.5 -36t-37.5 -15t-37.5 15t-15.5 36z" />
    <glyph glyph-name="Egrave" unicode="&#xc8;" horiz-adv-x="567" 
d="M23 270l47 113h82l113 287h356l-37 -124h-218l-66 -161h223l-42 -115h-228l-59 -149l386 -1q-52 -53 -86 -74q-61 -39 -157 -47h-214q-33 0 -60 26.5t-27 62.5q0 22 13 43q21 43 61 139h-87zM593 721l-15 -23l-311 74l116 64z" />
    <glyph glyph-name="Iacute" unicode="&#xcd;" horiz-adv-x="511" 
d="M562 547h-95l-161 -426l215 -1q-38 -65 -86 -93.5t-124 -28.5h-308q7 30 43 122h109l167 427h-105l48 123h348zM337 732l10 -25l218 52l-29 74z" />
    <glyph glyph-name="Icircumflex" unicode="&#xce;" horiz-adv-x="511" 
d="M562 547h-95q-164 -425 -161 -425q7 0 1 -1q-6 0 2 0q11 -1 61 -1h151q-38 -65 -86 -93.5t-124 -28.5h-308q7 30 43 122h109l167 427h-105l48 123h348zM599 703l-41 -1l-97 54l-119 -59l-50 1l141 113h62z" />
    <glyph glyph-name="Idieresis" unicode="&#xcf;" horiz-adv-x="511" 
d="M562 547h-95q-164 -425 -161 -425q7 0 1 -1q-6 0 2 0q11 -1 61 -1h151q-38 -65 -86 -93.5t-124 -28.5h-308q7 30 43 122h109l167 427h-105l48 123h348zM482 770q0 22 15.5 37t37.5 15t37.5 -15t15.5 -37q0 -21 -15.5 -36t-37.5 -15t-37.5 15t-15.5 36zM306 770
q0 22 15.5 37t37.5 15t37.5 -15t15.5 -37q0 -21 -15.5 -36t-37.5 -15t-37.5 15t-15.5 36z" />
    <glyph glyph-name="Igrave" unicode="&#xcc;" horiz-adv-x="511" 
d="M562 547h-95q-164 -425 -161 -425q7 0 1 -1q-6 0 2 0q11 -1 61 -1h151q-38 -65 -86 -93.5t-124 -28.5h-308q7 30 43 122h109l167 427h-105l48 123h348zM603 721l-15 -23l-311 74l116 64z" />
    <glyph glyph-name="Oacute" unicode="&#xd3;" horiz-adv-x="696" 
d="M228 -15q-96 0 -150 62q-51 58 -51 157q0 104 57.5 219t148.5 189q99 82 204 82q89 0 139 -58t50 -148q0 -104 -54 -221q-56 -120 -142 -196q-97 -86 -202 -86zM436 -2q39 22 58 38q32 25 63 74h55h104q-27 -47 -121 -79q-77 -27 -159 -33zM408 565q-89 0 -171 -135
q-74 -121 -74 -214q0 -37 19 -66q23 -33 60 -33q91 0 173 137q75 122 75 217q0 37 -22 65.5t-60 28.5zM337 732l10 -25l218 52l-29 74z" />
    <glyph glyph-name="Ocircumflex" unicode="&#xd4;" horiz-adv-x="696" 
d="M228 -15q-96 0 -150 62q-51 58 -51 157q0 104 57.5 219t148.5 189q99 82 204 82q89 0 139 -58t50 -148q0 -104 -54 -221q-56 -120 -142 -196q-97 -86 -202 -86zM436 -2q39 22 58 38q32 25 63 74h55h104q-27 -47 -121 -79q-77 -27 -159 -33zM408 565q-89 0 -171 -135
q-74 -121 -74 -214q0 -37 19 -66q23 -33 60 -33q91 0 173 137q75 122 75 217q0 37 -22 65.5t-60 28.5zM589 703l-41 -1l-97 54l-119 -59l-50 1l141 113h62z" />
    <glyph glyph-name="Ograve" unicode="&#xd2;" horiz-adv-x="696" 
d="M228 -15q-96 0 -150 62q-51 58 -51 157q0 104 57.5 219t148.5 189q99 82 204 82q89 0 139 -58t50 -148q0 -104 -54 -221q-56 -120 -142 -196q-97 -86 -202 -86zM436 -2q39 22 58 38q32 25 63 74h55h104q-27 -47 -121 -79q-77 -27 -159 -33zM408 565q-89 0 -171 -135
q-74 -121 -74 -214q0 -37 19 -66q23 -33 60 -33q91 0 173 137q75 122 75 217q0 37 -22 65.5t-60 28.5zM633 721l-15 -23l-311 74l116 64z" />
    <glyph glyph-name="Uacute" unicode="&#xda;" horiz-adv-x="703" 
d="M530 -10h-52q-68 0 -92 74q-102 -76 -219 -76q-61 0 -103 43.5t-38 104.5q1 20 66 187l75 195q-4 29 -29 29h-96q19 47 46 119q11 1 25 1h188q14 0 25 -18t11 -30q0 -32 -78 -237l-56 -145q-26 -70 -28 -83q-7 -49 44 -49q84 0 148 87q40 53 66 131q23 66 129 348
q79 3 143 -1l-189 -517l2 -18q4 -16 31 -16q58 -1 182 -1q-43 -41 -85 -82q-57 -46 -116 -46zM317 732l10 -25l218 52l-29 74z" />
    <glyph glyph-name="Ucircumflex" unicode="&#xdb;" horiz-adv-x="703" 
d="M530 -10h-52q-68 0 -92 74q-102 -76 -219 -76q-61 0 -103 43.5t-38 104.5q1 20 66 187l75 195q-4 29 -29 29h-96q19 47 46 119q11 1 25 1h188q14 0 25 -18t11 -30q0 -32 -78 -237l-56 -145q-26 -70 -28 -83q-7 -49 44 -49q84 0 148 87q40 53 66 131q23 66 129 348
q79 3 143 -1l-189 -517l2 -18q4 -16 31 -16q58 -1 182 -1q-43 -41 -85 -82q-57 -46 -116 -46zM599 703l-41 -1l-97 54l-119 -59l-50 1l141 113h62z" />
    <glyph glyph-name="Ugrave" unicode="&#xd9;" horiz-adv-x="703" 
d="M530 -10h-52q-68 0 -92 74q-102 -76 -219 -76q-61 0 -103 43.5t-38 104.5q1 20 66 187l75 195q-4 29 -29 29h-96q19 47 46 119q11 1 25 1h188q14 0 25 -18t11 -30q0 -32 -78 -237l-56 -145q-26 -70 -28 -83q-7 -49 44 -49q84 0 148 87q40 53 66 131q23 66 129 348
q79 3 143 -1l-189 -517l2 -18q4 -16 31 -16q58 -1 182 -1q-43 -41 -85 -82q-57 -46 -116 -46zM563 721l-15 -23l-311 74l116 64z" />
    <glyph glyph-name="circumflex" unicode="&#x2c6;" horiz-adv-x="381" 
d="M339 703l-41 -1l-97 54l-119 -59l-50 1l141 113h62z" />
    <glyph glyph-name="tilde" unicode="&#x2dc;" horiz-adv-x="343" 
d="M313 802q-19 -88 -92 -88q-21 0 -60 17t-59 17q-27 0 -43 -33h-35q10 37 32 62q26 29 60 29q20 0 59.5 -18.5t58.5 -18.5q32 0 45 33h34z" />
    <glyph glyph-name="macron" unicode="&#xaf;" horiz-adv-x="420" 
d="M348 611h-280l5 64h280z" />
    <glyph glyph-name="macron" unicode="&#x2c9;" horiz-adv-x="420" 
d="M348 611h-280l5 64h280z" />
    <glyph glyph-name="cedilla" unicode="&#xb8;" horiz-adv-x="274" 
d="M242 -109q0 -15 -15 -31.5t-37 -23.5q-34 -12 -74 -12q-61 8 -81 18l-16 10l19 31q15 -5 29 -10q10 -3 34 -3q7 0 24.5 10.5t18.5 16.5q0 23 -5 27q-11 8 -25 8q-6 0 -17 -2t-16 -1l32 78h39l-17 -46q12 2 18 2q34 0 60 -18q29 -21 29 -54z" />
    <glyph glyph-name="Scaron" unicode="&#x160;" 
 />
    <glyph glyph-name="scaron" unicode="&#x161;" 
 />
    <glyph glyph-name="brokenbar" unicode="&#xa6;" 
 />
    <glyph glyph-name="Eth" unicode="&#xd0;" 
 />
    <glyph glyph-name="eth" unicode="&#xf0;" 
 />
    <glyph glyph-name="Yacute" unicode="&#xdd;" 
 />
    <glyph glyph-name="yacute" unicode="&#xfd;" 
 />
    <glyph glyph-name="Thorn" unicode="&#xde;" 
 />
    <glyph glyph-name="thorn" unicode="&#xfe;" 
 />
    <glyph glyph-name="minus" unicode="&#xad;" 
 />
    <glyph glyph-name="minus" unicode="&#x2212;" 
 />
    <glyph glyph-name="multiply" unicode="&#xd7;" 
 />
    <glyph glyph-name="onesuperior" unicode="&#xb9;" 
 />
    <glyph glyph-name="twosuperior" unicode="&#xb2;" 
 />
    <glyph glyph-name="threesuperior" unicode="&#xb3;" 
 />
    <glyph glyph-name="onehalf" unicode="&#xbd;" 
 />
    <glyph glyph-name="onequarter" unicode="&#xbc;" 
 />
    <glyph glyph-name="threequarters" unicode="&#xbe;" 
 />
    <glyph glyph-name=".null" horiz-adv-x="1000" 
 />
    <glyph glyph-name="Lslash" unicode="&#x141;" 
 />
    <glyph glyph-name="lslash" unicode="&#x142;" 
 />
    <glyph glyph-name="HT" 
 />
    <glyph glyph-name="LF" 
 />
    <glyph glyph-name="nonmarkingreturn" 
 />
    <glyph glyph-name="Zcaron" unicode="&#x17d;" 
 />
    <glyph glyph-name="zcaron" unicode="&#x17e;" 
 />
    <glyph glyph-name="DLE" 
 />
    <glyph glyph-name="DC1" 
 />
    <glyph glyph-name="DC2" 
 />
    <glyph glyph-name="DC3" 
 />
    <glyph glyph-name="DC4" 
 />
    <glyph glyph-name="RS" 
 />
    <glyph glyph-name="US" 
 />
    <glyph glyph-name="DEL" horiz-adv-x="1000" 
 />
    <glyph glyph-name="notequal" unicode="&#x2260;" horiz-adv-x="624" 
d="M196 0v665h214v-665h-214zM370 625h-134v-585h134v585z" />
    <glyph glyph-name="infinity" unicode="&#x221e;" horiz-adv-x="624" 
d="M196 0v665h214v-665h-214zM370 625h-134v-585h134v585z" />
    <glyph glyph-name="lessequal" unicode="&#x2264;" horiz-adv-x="624" 
d="M196 0v665h214v-665h-214zM370 625h-134v-585h134v585z" />
    <glyph glyph-name="greaterequal" unicode="&#x2265;" horiz-adv-x="624" 
d="M196 0v665h214v-665h-214zM370 625h-134v-585h134v585z" />
    <glyph glyph-name="partialdiff" unicode="&#x2202;" horiz-adv-x="305" 
d="M40 257l51 22l152 389l126 1l-127 -325l98 42l-30 -61l-91 -39l-69 -179h175q-40 -80 -108 -104q-19 -7 -32 -9q-9 -1 -28 1q-25 1 -43 1q-99 0 -99 73q0 8 1 17l52 135l-58 -25z" />
    <glyph glyph-name="summation" unicode="&#x2211;" horiz-adv-x="698" 
d="M498 -2q-10 1 -33 1q75 46 111 121h144q-103 -119 -222 -122zM502 531q5 17 -20 17q-6 0 -13 -1q-31 2 -92 0q-77 -8 -79 -66q-1 -33 38 -72q17 -18 81 -70q116 -94 116 -157q0 -98 -103 -148q-74 -35 -161 -35l-267 -1q18 42 50 122h252q85 0 85 48q0 20 -39 54
q-25 21 -78 66q-111 95 -109 168q4 122 97 174q69 38 198 41q43 -1 117 -1q28 1 49 -17q25 -21 20 -58q-6 -61 -28 -118h-128q5 18 14 54zM390 805l42 1l59 -46l92 52l49 -1l-122 -107h-46z" />
    <glyph glyph-name="product" unicode="&#x220f;" horiz-adv-x="517" 
d="M256 483h145q-21 -56 -21 -143q0 -23 14 -68.5t14 -67.5q0 -61 -50 -101h180q-71 -102 -160 -102l-275 1l53 109h27q38 1 63 24.5t25 61.5q0 17 -9 58t-9 66q0 13 2 26q-20 -32 -102 -183q-62 -113 -84 -136q-70 -27 -103 -32q72 94 153 238q69 124 137 249zM240 635
l42 1l59 -46l92 52l49 -1l-122 -107h-46z" />
    <glyph glyph-name="pi" unicode="&#x3c0;" horiz-adv-x="738" 
d="M592 1h-45l50 121h164q-94 -121 -169 -121zM361 -285l-140 1l144 350q-15 -7 -84 -49q-44 -27 -63 -27q-3 0 -21.5 -1.5t-22.5 -1.5q-50 0 -86 27q-40 31 -40 84q0 30 34 116l50 118q16 42 65 163q0 50 -41 53h-11h-137q18 38 56 116q189 2 280 1q38 -10 38 -47
q0 -22 -89 -234t-89 -236q0 -39 42 -39q82 0 164 126q57 88 83 172q47 112 108 257h142zM337 732l-2 -29l230 56l36 108z" />
    <glyph glyph-name="integral" unicode="&#x222b;" horiz-adv-x="580" 
d="M527 398l-227 -532q-14 -33 -41 -59q-31 -31 -63 -31l-280 1l45 113h180q6 -3 22 2q22 7 33 29q23 42 55 120q-90 -47 -136 -47q-38 0 -69.5 15.5t-31.5 48.5q0 7 3 14l128 326h141l-111 -265q-7 -15 32 -15q19 0 55 19q8 6 16 16q19 22 36 57q27 65 81 188h132zM604 107
q-64 -107 -148 -107h-45l41 107q147 3 152 0zM247 472l10 -25l218 52l-29 74z" />
    <glyph glyph-name="Omega" unicode="&#x3a9;" horiz-adv-x="771" 
d="M693 493q-10 1 -143 0l2 4q3 6 3 10q5 23 -6 29q-5 3 -29 3q-108 0 -181 -99h166l-25 -65h-178q-7 -17 -14 -33q-1 -4 -4 -6l-1 -1q-6 -5 -11 -22h193l-25 -65h-182l-2 -32q-2 -21 -1 -27q7 -50 54 -59q16 -3 42 -2q43 2 41 2l309 -1q-34 -44 -130 -82q-104 -40 -207 -42
h-88q-169 20 -169 194q0 5 3 21q2 8 4 28h-99l23 65h89q10 20 28 62h-100l23 65h109q82 144 194 195q68 32 184 32q148 0 148 -68q0 -23 -6.5 -59t-13.5 -47z" />
    <glyph glyph-name="Omega" unicode="&#x2126;" horiz-adv-x="771" 
d="M693 493q-10 1 -143 0l2 4q3 6 3 10q5 23 -6 29q-5 3 -29 3q-108 0 -181 -99h166l-25 -65h-178q-7 -17 -14 -33q-1 -4 -4 -6l-1 -1q-6 -5 -11 -22h193l-25 -65h-182l-2 -32q-2 -21 -1 -27q7 -50 54 -59q16 -3 42 -2q43 2 41 2l309 -1q-34 -44 -130 -82q-104 -40 -207 -42
h-88q-169 20 -169 194q0 5 3 21q2 8 4 28h-99l23 65h89q10 20 28 62h-100l23 65h109q82 144 194 195q68 32 184 32q148 0 148 -68q0 -23 -6.5 -59t-13.5 -47z" />
    <glyph glyph-name="radical" unicode="&#x221a;" horiz-adv-x="624" 
d="M196 0v665h214v-665h-214zM370 625h-134v-585h134v585z" />
    <glyph glyph-name="approxequal" unicode="&#x2248;" horiz-adv-x="624" 
d="M196 0v665h214v-665h-214zM370 625h-134v-585h134v585z" />
    <glyph glyph-name="approxequal" unicode="&#x22f2;" horiz-adv-x="624" 
d="M196 0v665h214v-665h-214zM370 625h-134v-585h134v585z" />
    <glyph glyph-name="Delta" unicode="&#x394;" horiz-adv-x="624" 
d="M196 0v665h214v-665h-214zM370 625h-134v-585h134v585z" />
    <glyph glyph-name="Delta" unicode="&#x2206;" horiz-adv-x="624" 
d="M196 0v665h214v-665h-214zM370 625h-134v-585h134v585z" />
    <glyph glyph-name="lozenge" unicode="&#x25ca;" horiz-adv-x="494" 
d="M283 269q-11 28 -43 28q-38 0 -69 -51q-27 -46 -27 -87q0 -55 43 -55q32 0 62 39q23 32 34 70h-27zM407 331h219q-41 -65 -74.5 -86.5t-89.5 -21.5q-18 0 -47 2q-13 -90 -83 -164q-75 -80 -162 -80q-71 0 -113 40.5t-42 110.5q0 108 67 193q71 91 175 91q114 0 150 -85z
" />
    <glyph glyph-name="fraction" unicode="&#x2044;" horiz-adv-x="820" 
d="M409 -22q-43 0 -75 13q-40 17 -46 48q-89 -57 -161 -57q-109 0 -109 92q0 57 44 172q32 77 63 153h135q-30 -66 -60 -133q-47 -109 -47 -147q0 -9 7 -18t16 -9q29 0 54 16q29 19 38 52q26 52 59 140q18 49 36 99h135l-52 -126q-46 -119 -46 -150q0 -30 42 -30t101 154
q-9 33 -9 42q0 40 23 83q28 49 66 49q54 0 54 -42q0 -17 -10 -54h180q-30 -72 -93 -89q-26 -7 -129 -7q-44 -119 -73 -163q-58 -88 -143 -88z" />
    <glyph glyph-name="fi" unicode="&#xf001;" horiz-adv-x="624" 
d="M196 0v665h214v-665h-214zM370 625h-134v-585h134v585z" />
    <glyph glyph-name="fl" unicode="&#xf002;" horiz-adv-x="624" 
d="M196 0v665h214v-665h-214zM370 625h-134v-585h134v585z" />
    <glyph glyph-name="apple" unicode="&#xf000;" horiz-adv-x="624" 
d="M196 0v665h214v-665h-214zM370 625h-134v-585h134v585z" />
    <glyph glyph-name="dotlessi" unicode="&#x131;" horiz-adv-x="315" 
d="M338 106q-8 -8 -35 -47q-18 -27 -42 -40q-45 -23 -114 -23q-62 0 -84 19q-37 33 -33 88q0 9 20 58l94 238h145l-125 -293h174z" />
    <glyph glyph-name="breve" unicode="&#x2d8;" horiz-adv-x="356" 
d="M44 830q70 -47 134 -47q61 0 146 47q-13 -53 -53 -88t-93 -40q-44 5 -82.5 40t-51.5 88z" />
    <glyph glyph-name="dotaccent" unicode="&#x2d9;" horiz-adv-x="488" 
d="M192 755q0 23 18.5 39.5t45.5 16.5t45.5 -16.5t18.5 -39.5q0 -24 -18.5 -40.5t-45.5 -16.5t-45.5 16.5t-18.5 40.5z" />
    <glyph glyph-name="ring" unicode="&#x2da;" horiz-adv-x="354" 
d="M180 831q33 0 59 -19.5t26 -50.5t-26 -50.5t-59 -19.5t-58.5 19.5t-25.5 50.5t25.5 50.5t58.5 19.5zM180 791q-20 0 -32 -9.5t-12 -20.5q0 -10 12 -20t32 -10t32.5 10t12.5 20q0 11 -12.5 20.5t-32.5 9.5z" />
    <glyph glyph-name="hungarumlaut" unicode="&#x2dd;" horiz-adv-x="411" 
d="M266 820q0 -1 -30.5 -57.5t-30.5 -58.5q0 -1 11 0.5t15 -0.5q6 -3 96 116q-61 3 -61 0zM156 820q0 -1 -30.5 -57.5t-30.5 -58.5q0 -1 11 0.5t15 -0.5q6 -3 96 116q-61 3 -61 0z" />
    <glyph glyph-name="ogonek" unicode="&#x2db;" horiz-adv-x="181" 
d="M170 -142q-16 -19 -62 -19q-40 0 -65.5 24t-25.5 64q0 14 4 26q10 27 48 49.5t70 22.5q11 0 19 -3l-11 -30q-3 1 -8 1q-37 0 -52 -42q-5 -14 -5 -28q0 -35 21 -42q26 -10 27 -10q10 0 16 8z" />
    <glyph glyph-name="caron" unicode="&#x2c7;" horiz-adv-x="274" 
d="M40 805l42 1l59 -46l92 52l49 -1l-122 -107h-46z" />
    </font>
</defs>
</svg>
