<?xml version="1.0" standalone="no"?>
<!DOCTYPE svg PUBLIC "-//W3C//DTD SVG 1.1//EN" "http://www.w3.org/Graphics/SVG/1.1/DTD/svg11.dtd" >
<svg>
<metadata>
Created by FontForge 20120731 at Tue Apr 16 16:54:27 2019
 By www-data
Digitized by Dan X. Solo. Software (c) 2000 by Dover Publications, Inc., New York.
</metadata>
<defs>
<font id="Gaston" horiz-adv-x="338" >
  <font-face 
    font-family="Gaston"
    font-weight="400"
    font-stretch="normal"
    units-per-em="1000"
    panose-1="0 0 4 0 0 0 0 0 0 0"
    ascent="800"
    descent="-200"
    x-height="401"
    cap-height="677"
    bbox="-156 -352 1567 875"
    underline-thickness="20"
    underline-position="-123"
    unicode-range="U+0020-F000"
  />
<missing-glyph horiz-adv-x="500" 
d="M63 0v800h375v-800h-375zM125 63h250v675h-250v-675z" />
    <glyph glyph-name=".notdef" horiz-adv-x="500" 
d="M63 0v800h375v-800h-375zM125 63h250v675h-250v-675z" />
    <glyph glyph-name=".null" horiz-adv-x="0" 
 />
    <glyph glyph-name="nonmarkingreturn" horiz-adv-x="219" 
 />
    <glyph glyph-name="space" unicode=" " horiz-adv-x="219" 
 />
    <glyph glyph-name="exclam" unicode="!" horiz-adv-x="403" 
d="M504 547q0 -42 -57 -115q-14 -17 -73 -73q-43 -39 -110 -107q-15 -28 -52 -78h-18q-3 3 -3 10q0 10 9 23q7 8 14 17q23 31 42 77q15 30 38 91q18 60 57 119q55 83 112 83q41 0 41 -47zM191 92q0 -33 -28 -64t-64 -31q-45 0 -45 41q0 38 30 66.5t64 28.5q43 0 43 -41z" />
    <glyph glyph-name="quotedbl" unicode="&#x22;" horiz-adv-x="692" 
d="M577 672h98l-157 -226h-43zM427 672h98l-157 -226h-43z" />
    <glyph glyph-name="numbersign" unicode="#" horiz-adv-x="703" 
d="M463 396h-119l-96 -143h119zM242 497h89l57 83q5 9 10.5 17.5t15.5 8.5h19q10 0 23.5 -7t13.5 -15q0 -2 -1 -4l-56 -83h118l57 83q5 9 10.5 17.5t15.5 8.5h19q10 0 23.5 -7t13.5 -15q0 -2 -1 -4l-56 -83h66q15 0 15 -13q0 -6 -4 -13l-29 -49q-15 -26 -41 -26h-76
l-96 -143h82q15 0 15 -13q0 -6 -4 -13l-28 -49q-15 -26 -41 -26h-92l-85 -125q-5 -9 -11 -17.5t-15 -8.5h-29q-9 0 -18.5 6.5t-9.5 13.5q0 3 2 6l85 125h-119l-85 -125q-5 -9 -11 -17.5t-15 -8.5h-29q-9 0 -18.5 6.5t-9.5 13.5q0 3 2 6l85 125h-64q-15 0 -15 13q0 6 4 13
l28 49q15 26 41 26h74l96 143h-79q-15 0 -15 13q0 6 4 13l28 49q15 26 41 26z" />
    <glyph glyph-name="dollar" unicode="$" horiz-adv-x="524" 
d="M272 161q-17 -29 -40 -68l-29 3l39 74q-80 32 -80 114q0 43 30.5 78t74.5 35q14 0 31 -6q22 -8 22 -20q0 -2 -5 -12t-5 -13q0 -13 11.5 -22t23.5 -9q17 0 32 13.5t15 31.5q0 16 -18 38q-30 38 -30.5 39t-11.5 17q-8 11 -8 27q0 30 22 54.5t52 31.5q19 5 42 5h13l17 32
l33 -3l-19 -35q52 -19 52 -71q0 -26 -18 -46.5t-45 -20.5q-31 0 -31 15q0 1 3 7.5t3 7.5q0 19 -21 19q-10 0 -19 -8t-9 -19q0 -9 30 -30q41 -27 57 -44q30 -31 30 -68q0 -54 -34 -92t-89 -52q-32 -8 -70 -8q-27 0 -51 5z" />
    <glyph glyph-name="percent" unicode="%" horiz-adv-x="806" 
d="M585 528q0 -56 -50 -141q-40 -70 -73 -101q-15 -15 -48 -40q-62 -33 -95 -33q-14 0 -40 8q-12 4 -25.5 22t-14.5 30q-1 6 -1 31q0 77 58 158q55 76 137 120q36 20 80 20q72 0 72 -74zM512 516q0 27 -27 27q-28 0 -59.5 -39.5t-31.5 -63.5q0 -31 31 -31q27 0 57 37t30 70z
M765 626h16q10 0 19 -6.5t9 -13.5q0 -3 -2 -6l-380 -596q-16 -26 -26 -26h-16q-10 0 -19 6t-9 14q0 3 2 6l380 596q16 26 26 26zM915 308q0 -56 -50 -141q-40 -70 -73 -101q-15 -15 -48 -40q-62 -33 -95 -33q-14 0 -40 8q-12 4 -25.5 22t-14.5 30q-1 6 -1 31q0 77 58 158
q55 76 137 120q36 20 80 20q72 0 72 -74zM842 296q0 27 -27 27q-28 0 -59.5 -39.5t-31.5 -63.5q0 -31 31 -31q27 0 57 37t30 70z" />
    <glyph glyph-name="ampersand" unicode="&#x26;" horiz-adv-x="979" 
d="M1006 455q0 -67 -61 -120q-56 -49 -149 -49q-3 0 -56 4t-57 4q-18 0 -28 -10q7 -8 18 -26q12 -22 12 -50q0 -39 -27 -85q-41 -71 -121 -107q-67 -30 -142 -30q-96 0 -162 46q-76 53 -76 148q0 110 92 177q53 38 176 59q0 3 -15 31q-1 2 -1 22q0 64 70 97q52 25 113 25
q54 0 88 -20q42 -25 42 -75q0 -32 -22 -54t-52 -22q-14 0 -30 8q-19 10 -19 22v9q27 17 27 29q0 14 -18 23q-14 8 -25 8q-3 0 -33 -9q-20 -6 -35 -28.5t-15 -40.5t16 -45q-6 0 -19 -2.5t-17 -2.5q-47 -4 -78 -36.5t-31 -71.5q0 -33 29 -56q26 -21 57 -21t59.5 20.5
t28.5 51.5q0 27 -37 38q27 23 108 27q47 2 89 16t73.5 53t31.5 81q0 21 -1 25t-9 17.5t-8 16.5q0 8 12 14q30 14 36 15.5t36 1.5q57 0 93.5 -35.5t36.5 -92.5z" />
    <glyph glyph-name="quotesingle" unicode="'" horiz-adv-x="552" 
d="M427 672h98l-157 -226h-43z" />
    <glyph glyph-name="parenleft" unicode="(" horiz-adv-x="411" 
d="M711 660q-190 -84 -347 -293q-170 -225 -170 -406q0 -8 4 -33.5t6 -29.5q-33 27 -54 92q-18 56 -18 109q0 26 16 100q0 2 16 51q24 77 92 162q71 89 151 138q110 67 174 82q4 2 13 6q88 23 104 22h13z" />
    <glyph glyph-name="parenright" unicode=")" horiz-adv-x="415" 
d="M428 492q0 -62 -25 -136q-37 -107 -121 -205q-145 -170 -367 -227q-43 -11 -71 -15q8 9 22 15q157 64 320 281q167 224 167 387q0 27 -7 56q0 2 -3 7.5t-3 9.5v9q41 -19 66 -81q22 -52 22 -101z" />
    <glyph glyph-name="asterisk" unicode="*" horiz-adv-x="684" 
d="M491 678l-74 1l34 -112l-92 28l-37 -64l113 -27l-70 -66l37 -64l80 85l22 -94h74l-34 112l92 -28l38 64l-114 27l70 65l-37 65l-80 -85z" />
    <glyph glyph-name="plus" unicode="+" horiz-adv-x="680" 
d="M617 248h-193l-118 -175h-86l118 175h-179l52 67h172l108 160h86l-109 -160h195z" />
    <glyph glyph-name="comma" unicode="," horiz-adv-x="273" 
d="M241 81q0 -40 -55 -96q-49 -49 -81 -58q26 26 42 53l13 21q-5 5 -17 4q-16 -1 -19 1q-20 8 -20 39q0 29 28 58.5t59 29.5q50 0 50 -52z" />
    <glyph glyph-name="hyphen" unicode="-" horiz-adv-x="399" 
d="M218 274q-34 0 -57 -34q-9 -13 -29 -62l18 7q3 1 32 1q16 0 46.5 -4t46.5 -4q48 0 66 28q10 16 20 68q-3 0 -10.5 -2t-9.5 -2q-11 0 -32 -2.5t-32 -2.5q-9 0 -29 4.5t-30 4.5z" />
    <glyph glyph-name="hyphen" unicode="&#x2010;" horiz-adv-x="399" 
d="M218 274q-34 0 -57 -34q-9 -13 -29 -62l18 7q3 1 32 1q16 0 46.5 -4t46.5 -4q48 0 66 28q10 16 20 68q-3 0 -10.5 -2t-9.5 -2q-11 0 -32 -2.5t-32 -2.5q-9 0 -29 4.5t-30 4.5z" />
    <glyph glyph-name="period" unicode="." horiz-adv-x="229" 
d="M188 92q0 -37 -31.5 -66t-63.5 -29q-45 0 -45 39q0 38 35 69q31 28 63 28q18 0 30 -12.5t12 -28.5z" />
    <glyph glyph-name="slash" unicode="/" horiz-adv-x="516" 
d="M475 696h53l-478 -725h-53z" />
    <glyph glyph-name="zero" unicode="0" horiz-adv-x="569" 
d="M604 467q0 -114 -79 -245q-77 -127 -181 -191q-29 -18 -58 -26q-35 -9 -66 -9q-80 0 -126.5 47.5t-46.5 121.5q0 102 77 223q73 118 173 183q46 31 102 42q34 7 63 7q3 0 23.5 -3t28.5 -4q29 -1 57 -34.5t32 -65.5q1 -8 1 -46zM490 461q0 62 -55 62q-16 0 -19 -2
q-11 -3 -27 -11q-58 -34 -86 -94q-11 -22 -17 -42q-7 -24 -7 -27q0 -24 19 -40t43 -16q53 0 101 56t48 114z" />
    <glyph glyph-name="one" unicode="1" horiz-adv-x="372" 
d="M531 581q0 -22 -48 -78q-19 -22 -56 -66q-49 -60 -106 -154q-5 -8 -48 -95q-36 -74 -61 -105q-7 -12 -26 -36q-54 -53 -112 -53q-81 0 -81 72q0 54 45 112q42 45 83 89l72 64q50 47 50 74q0 22 -28 22q-4 0 -10 -1.5t-10 -1.5q-39 0 -39 24q0 9 9 24t23 18q80 17 82 18
q56 14 98 36q32 21 63 41q41 26 64 26q14 0 25 -8.5t11 -21.5z" />
    <glyph glyph-name="two" unicode="2" horiz-adv-x="621" 
d="M664 473q0 -87 -84 -142q-52 -35 -178 -74q-35 -15 -35 -28q0 -20 38 -29q23 -6 43 -6q29 0 52.5 9.5t30.5 9.5q4 0 6 -1.5t5 -1.5v-23q0 1 -24 -53t-66 -92q-46 -42 -97 -49q-4 -1 -17.5 -4.5t-17.5 -3.5q-46 0 -129.5 26.5t-118.5 26.5q-23 0 -33 -3q-13 -8 -37 -22
q-4 7 -4 21q0 60 44 123q38 56 101 88q42 21 120 40q88 22 119 34q45 18 80 54q41 41 41 81q0 20 -16.5 34t-33.5 14q-19 0 -41 -14q-25 -16 -25 -37t24 -32q6 -35 -41 -60q-38 -21 -71 -21t-64 24q-29 21 -29 71q0 39 29 84q32 51 114 80q53 19 117 19q198 0 198 -143z" />
    <glyph glyph-name="three" unicode="3" horiz-adv-x="594" 
d="M664 483q0 -118 -143 -160q-9 -2 -15 -9q9 -10 23 -30q24 -43 24 -75q0 -3 -2.5 -10.5t-2.5 -11.5q-4 -56 -55.5 -112t-115.5 -72q-46 -12 -101 -12q-98 0 -161 46q-68 50 -68 137q0 63 43.5 112.5t106.5 49.5q20 0 44 -9q31 -11 31 -28q0 -2 -7 -17t-7 -19
q0 -19 16.5 -31.5t33.5 -12.5q24 0 45.5 19.5t21.5 44.5q0 27 -22 40q-18 11 -43 10q7 31 61 48l96 28q50 22 50 70q0 40 -46 40q-42 0 -56 -30q-6 -12 3 -41q-10 -18 -38 -30.5t-56 -12.5q-38 0 -65.5 21t-27.5 55q0 16 14 45.5t29 41.5q70 59 189 59q75 0 128 -26
q73 -38 73 -118z" />
    <glyph glyph-name="four" unicode="4" horiz-adv-x="595" 
d="M653 556q0 -25 -65.5 -106.5t-65.5 -93.5q0 -7 18 -13q23 -9 32 -17q17 -16 17 -45q0 -27 -15 -59q-4 -8 -17 -27q-9 -14 -19 -25q-31 -32 -46 -32q-4 0 -22.5 3t-22.5 3q-42 0 -61 -18q-12 -12 -24 -48q-14 -42 -30 -66q-8 -13 -45 -20q-29 -7 -52 -7q-30 0 -57 10
q-36 12 -36 35q0 11 20 45l18 26q14 22 12 33q-1 0 -7.5 5t-11.5 5h-79q-7 0 -24 11.5t-19 14.5q-6 10 -6 31q0 50 59 114q31 34 114 103q52 40 155 126q54 49 83 59q20 8 77 8q120 0 120 -55zM447 454q0 18 -19 18q-1 0 -33 -13q-9 -3 -49 -35q-49 -38 -49 -54
q0 -18 43 -18q30 0 37 4q12 6 41 45t29 53z" />
    <glyph glyph-name="five" unicode="5" horiz-adv-x="529" 
d="M648 593q0 -33 -39 -84t-68 -56q-4 -3 -14 -7q-28 -3 -48 -3l-111 6q-34 0 -46 -7q-18 -11 -22 -45q4 -3 10 -9q35 -2 103 -10q34 -7 61.5 -33t35.5 -59q7 -26 7 -48q0 -16 -13.5 -54t-24.5 -58q-83 -140 -252 -140q-81 0 -138 43q-62 46 -62 123q0 54 33 95q36 46 89 46
q6 0 25 -7q-3 -8 -3 -16q0 -22 25 -35q19 -9 40 -9q23 0 43 11q26 15 26 43q0 38 -59 38q-3 0 -20 -1.5t-21 -1.5q-44 0 -44 36q0 11 44 77q28 42 57 83q17 27 54 70q35 29 95 29l119 -5h47q8 1 29 6q17 5 21 5t9.5 -2t8.5 -2q0 -2 1.5 -8.5t1.5 -10.5z" />
    <glyph glyph-name="six" unicode="6" horiz-adv-x="500" 
d="M615 515q0 -44 -39 -76q-35 -29 -75 -29q-12 0 -36 6q0 6 2.5 18t2.5 15q0 36 -47 36q-32 0 -66 -27t-48 -58q2 -7 11 -7q3 0 24 1.5t25 1.5q58 0 97.5 -37t39.5 -91q0 -39 -18.5 -87t-49.5 -85q-90 -107 -216 -107q-83 0 -134.5 46.5t-51.5 130.5q0 96 68 203
q66 103 166 171q107 73 207 73q49 0 88 -21q50 -27 50 -77zM350 286q0 32 -33 32q-25 0 -46 -22.5t-21 -46.5q0 -11 10.5 -21.5t25.5 -10.5q23 0 43.5 21.5t20.5 47.5z" />
    <glyph glyph-name="seven" unicode="7" horiz-adv-x="533" 
d="M683 585q0 -11 -16.5 -41.5t-68.5 -71.5q-74 -42 -147 -83q-122 -73 -122 -119q0 -36 41 -36q3 0 12 1.5t13 1.5q21 0 21 -15q0 -37 -32 -91q-29 -50 -62 -77q-82 -68 -163 -68q-8 0 -34 5q-31 6 -43 13q-62 35 -62 108q0 75 78 140q49 40 153 90q95 46 107 60q1 2 19 15
q13 9 13 18q0 19 -55 19q-27 0 -77 -9q-6 -1 -29 -8.5t-27 -7.5q-23 0 -23 22q0 27 44.5 83.5t70.5 62.5q4 2 11 6q40 7 76 7l214 -22q4 0 37.5 5.5t36.5 5.5q14 0 14 -14z" />
    <glyph glyph-name="eight" unicode="8" horiz-adv-x="605" 
d="M661 492q0 -100 -125 -140v-7q30 -33 38 -56q4 -12 4 -45q0 -31 -2 -38t-23 -57q-13 -32 -53 -70q-37 -34 -71 -52q-66 -35 -149 -35h-14q-87 0 -150 42q-73 50 -73 136q0 76 62 137q60 58 147 71v16q-8 6 -15.5 24.5t-7.5 32.5q0 29 20 64q23 40 54 55q52 25 83 33
q37 10 90 10q185 0 185 -121zM508 493q0 36 -40 36q-28 0 -51 -25.5t-23 -45.5q0 -29 44 -29q24 0 47 19t23 45zM408 297q0 35 -43 35q-28 0 -53 -18q-30 -20 -30 -52q0 -33 48 -33q29 0 53.5 19t24.5 49z" />
    <glyph glyph-name="nine" unicode="9" horiz-adv-x="568" 
d="M612 460q0 -126 -96 -267q-87 -128 -178 -171q-17 -6 -55 -18q-22 -8 -64 -8q-78 0 -127 35q-56 40 -56 118q0 55 35.5 97.5t90.5 42.5q15 0 31 -9q-4 -29 20 -45q21 -13 51 -13q28 0 57 17q36 21 54 57v8q-4 4 -8 4q-3 0 -20.5 -8.5t-25.5 -10.5q-15 -3 -39 -3
q-52 0 -86.5 34t-34.5 84q0 52 33 104q73 118 239 118q91 0 135 -39t44 -127zM453 498q0 15 -13 24t-27 9q-26 0 -50 -27.5t-24 -51.5q0 -38 39 -38q17 0 32 9q12 8 27.5 32t15.5 43z" />
    <glyph glyph-name="colon" unicode=":" horiz-adv-x="354" 
d="M334 302q0 -35 -32.5 -65.5t-63.5 -30.5q-41 0 -41 42q0 36 30 65t62 29q45 0 45 -40zM186 91q0 -37 -29 -65.5t-60 -28.5q-45 0 -45 41q0 34 28 63.5t61 29.5q17 0 31 -12t14 -28z" />
    <glyph glyph-name="semicolon" unicode=";" horiz-adv-x="349" 
d="M331 310q0 -32 -31 -64t-60 -32q-46 0 -46 44q0 33 28.5 62.5t64.5 29.5q44 0 44 -40zM186 88q0 -37 -36 -79.5t-74 -53.5q10 12 30 38v10q-35 4 -42 8q-14 8 -14 35q0 32 26 61t61 29q49 0 49 -48z" />
    <glyph glyph-name="less" unicode="&#x3c;" horiz-adv-x="589" 
d="M13 126q0 -18 36 -33q31 -13 52 -13q33 0 97.5 20t97.5 20q54 0 54 -46q0 -51 -21 -76l7 -4q33 6 63 1v3q0 5 -8.5 29t-8.5 37q0 56 53 95q76 56 98 91q53 82 53 242q0 71 -17 120q-25 71 -82 71q-26 0 -67 -28q-31 -22 -63 -43v-4l4 -3h10q57 1 57 -56q0 -33 -26 -65
q-5 -6 -49 -50q-47 -46 -103 -131q-65 -98 -95 -133q-39 -46 -92 -46q-15 0 -37 3zM478 604q0 25 22 25q19 0 19 -22q0 -21 -20 -21q-6 0 -13.5 5.5t-7.5 12.5z" />
    <glyph glyph-name="equal" unicode="=" horiz-adv-x="715" 
d="M152 227h424l-30 -51h-424zM223 343h425l-30 -51h-425z" />
    <glyph glyph-name="greater" unicode="&#x3e;" horiz-adv-x="892" 
d="M896 126q0 -18 -36 -33q-31 -13 -51 -13q-34 0 -98.5 20t-97.5 20q-54 0 -54 -46q0 -51 21 -76l-7 -4q-33 6 -63 1v3q1 5 9 29t8 37q0 56 -53 95q-75 56 -98 91q-53 82 -53 242q0 71 17 120q25 71 82 71q26 0 67 -28q32 -22 63 -43v-4l-4 -3h-9q-58 1 -58 -56
q0 -33 26 -65q5 -6 50.5 -51t101.5 -130q66 -98 95 -133q39 -46 92 -46q15 0 38 3zM431 604q0 25 -22 25q-19 0 -19 -22q0 -21 20 -21q7 0 14 5.5t7 12.5z" />
    <glyph glyph-name="question" unicode="?" horiz-adv-x="597" 
d="M668 493q0 -22 -17.5 -53t-40 -48t-74.5 -41q-35 -12 -69 -23q-64 -27 -64 -55q0 -25 26 -25q0 -10 -4 -15q-24 -38 -66 -59q-37 -19 -75 -19q-82 0 -82 65q0 32 31 62.5t79 44.5q4 2 11 6l76 22q66 21 104 47q52 36 52 81q0 27 -17.5 43.5t-46.5 16.5q-28 0 -53 -17.5
t-25 -42.5q0 -18 13 -25q7 -4 33 -10q-29 -63 -99 -63q-35 0 -55 20.5t-20 53.5q0 72 92 110q66 27 141 27q57 0 98 -21q52 -27 52 -82zM274 89q0 -36 -31.5 -64t-66.5 -28q-49 0 -49 39q0 34 32.5 64.5t66.5 30.5q48 0 48 -42z" />
    <glyph glyph-name="at" unicode="@" horiz-adv-x="9" 
 />
    <glyph glyph-name="A" unicode="A" horiz-adv-x="794" 
d="M1116 604q-71 -94 -142 -187q-90 -132 -90 -203q0 -38 30 -38q21 0 49 16q-5 -59 -54 -125q-54 -71 -109 -71q-62 0 -62 73q0 38 24.5 96.5t24.5 57.5q0 8 -18 8q-50 0 -119 -63q-116 -107 -131 -118q-88 -63 -185 -63q-62 0 -104 17q-54 23 -91.5 78.5t-37.5 113.5
q0 97 76 165q73 66 171 66q43 0 89 -21q50 -23 69 -57q-17 -10 -33 -19.5t-16 -37.5q0 -30 28 -48q23 -15 55 -15q39 0 83 22q49 26 136 117q96 100 96 144q0 41 -54 41q-35 0 -68 -23q-36 -26 -36 -60q0 -20 13.5 -34t33.5 -14l1 -5q-44 -55 -114 -55q-61 0 -105 36
q-47 38 -47 97q0 91 87 139q71 41 169 41q89 0 201 -35q38 -13 75.5 -25.5t72.5 -12.5q15 0 32 2zM950 496q-21 1 -68 -56q-30 -38 -60 -77q-14 -13 -41 -38h57q56 74 112 171z" />
    <glyph glyph-name="B" unicode="B" horiz-adv-x="759" 
d="M1064 610q0 -27 -18.5 -48t-46.5 -21q-47 0 -47 44q0 3 2 9.5t2 9.5q0 28 -35 28q-44 0 -44 -21l15 -19q19 -22 29 -44q16 -33 16 -64q0 -42 -27 -77.5t-68 -46.5q-11 -4 -57 -10l-9 -5q2 -4 20 -22q52 -50 52 -133q0 -73 -43 -128t-114 -65q-3 -1 -9.5 -2.5t-10.5 -1.5
q-38 0 -72 18q-37 20 -53 53q-3 7 -9 36q-1 6 -8 6q-3 0 -11 -6q-101 -117 -238 -117q-86 0 -141 46q-60 50 -60 133t60.5 142t142.5 59q69 0 112 -56q-6 -7 -11.5 -14t-5.5 -18q0 -15 15 -26t31 -11q67 0 145 107q26 34 78 104q16 23 52 69l61 69q0 18 -73 18
q-48 0 -89 -19q-52 -25 -52 -67q0 -17 13.5 -27.5t30.5 -10.5q7 0 14 2v-26q0 -16 -29 -52t-46 -44q-48 -22 -74 -22q-49 0 -77.5 30.5t-28.5 79.5q0 38 24 79q39 69 132 108q81 34 171 34q42 0 100 -15q52 -13 48 -13q4 0 51 21.5t89 21.5q38 0 67 -18q34 -22 34 -57z
M841 505q0 15 -8.5 33.5t-21.5 18.5q-14 0 -56 -63.5t-42 -80.5q0 -1 -3.5 -6t-2.5 -6l36 3q4 0 37 13q26 11 43.5 35.5t17.5 52.5zM747 263q0 22 -21 50t-43 28q-9 0 -33.5 -41.5t-24.5 -50.5q0 -6 3 -6q4 0 13.5 2.5t14.5 2.5q6 0 14 -17t29 -17q18 0 33 15.5t15 33.5z
" />
    <glyph glyph-name="C" unicode="C" horiz-adv-x="726" 
d="M978 546q0 -81 -71 -157t-151 -76q-42 0 -69 19q-31 22 -31 63q0 42 41 98q43 60 83 53q12 -24 19 -24q47 0 47 40q0 18 -14 32t-31 14q-85 0 -168 -114q-78 -108 -78 -198q0 -49 34.5 -78.5t84.5 -29.5q81 0 153 53h13l3 -12q0 -69 -112.5 -154.5t-186.5 -85.5
q-86 0 -138.5 52t-52.5 139q0 93 51 176v6l-6 2q-63 -40 -80 -49q-47 -23 -90 -23q-53 0 -91 33t-38 85q0 68 46 111.5t114 43.5q24 0 56 -20q-22 -18 -22 -37q0 -27 24 -45q21 -15 49 -15q58 0 139 58q142 103 152 109q100 58 204 58q50 0 83.5 -38t33.5 -89z" />
    <glyph glyph-name="D" unicode="D" horiz-adv-x="818" 
d="M1110 597q0 -30 -20.5 -53t-49.5 -23q-31 0 -41 21q-3 6 -11 46q-12 19 -25 19q-19 0 -45 -10q-31 -12 -31 -27q0 2 20 -43q27 -60 27 -152q0 -86 -35 -174q-38 -96 -101 -144q-71 -54 -129 -54q-46 0 -78.5 25t-34.5 71l-3 4h-7q-105 -112 -230 -112q-94 0 -156 48
q-69 52 -69 142q0 89 57.5 150.5t145.5 61.5q86 0 120 -52q-24 -23 -24 -39q0 -54 53 -54q47 0 102 38q45 32 81 77q151 190 151 191q0 14 -33 23q-26 8 -45 8q-37 0 -66 -20q-34 -23 -34 -58q0 -19 13.5 -33t31.5 -10q3 -3 3 -10q0 -20 -29 -50t-51 -39q-31 -13 -61 -13
q-50 0 -80.5 30.5t-30.5 80.5q0 96 88 156q77 54 178 54q78 0 128 -25q2 -1 29 -18q23 -14 26 -14q-7 0 53 32t108 32q45 0 73 -19q32 -22 32 -64zM851 422q0 51 -27 98q-27 -38 -76 -127q-46 -85 -76 -124q4 1 22 6q15 4 23 4q1 -1 1 -2q-4 -20 -4 -17q0 -22 31 -22
q47 0 79 71q27 59 27 113z" />
    <glyph glyph-name="E" unicode="E" horiz-adv-x="592" 
d="M857 578q0 -43 -42 -65q-30 -15 -66 -15q-47 0 -115.5 29.5t-70.5 29.5q-18 0 -18 -34q0 -28 33 -50.5t33 -32.5v-12q-1 -2 -14 -17h-74q-45 0 -89 -28q-51 -31 -51 -75q0 -30 22 -48q19 -15 47 -15q30 0 53 17q27 21 27 54q0 11 -3 22q6 8 23 14.5t29 6.5q50 0 79 -44
q22 -34 22 -76q0 -123 -118 -195q-96 -58 -206 -58q-89 0 -160 41q-92 54 -92 153q0 115 95 181q65 46 176 68q95 19 95 20q0 -1 -23.5 22t-23.5 56q0 20 7 36q11 23 12 28q-9 6 -24 6q-26 0 -44.5 -19.5t-18.5 -44.5q0 -33 44 -51q0 -18 -41 -33q-35 -13 -57 -13
q-48 0 -80 24q-39 28 -39 80q0 66 71 102q52 26 109 26q37 0 86 -13t46 -13l22 10q26 12 56 19q43 11 95 11q59 0 112 -20q76 -28 76 -84zM678 583v13q-21 17 -54 17q-47 0 -53 -18q48 -22 79 -22q14 0 28 10z" />
    <glyph glyph-name="F" unicode="F" horiz-adv-x="556" 
d="M963 625q0 -41 -40 -57q-21 -8 -81 -13q-50 -5 -61 -17q-94 -103 -94 -139q0 -14 36 -19q26 -5 38 -3q-7 -25 -42.5 -35.5t-69.5 -20.5q-1 -1 -42 -83q-28 -58 -52 -89q-64 -86 -130 -121q-59 -32 -140 -32q-83 0 -137 46q-58 49 -58 130q0 78 55.5 135.5t132.5 57.5
q15 0 43 -8q32 -9 36 -18q-22 -12 -22 -34q0 -41 60 -41q24 0 76 24q58 28 58 53q0 9 -30 9q-38 0 -92 -36q-6 6 -6 22q0 45 43 74q36 25 74 25q8 0 43 -6l35 -6q79 82 138 148q-35 11 -69 22q-38 11 -80 11q-37 0 -65 -13q-35 -17 -35 -50q0 -27 32 -37
q-10 -26 -53.5 -53.5t-75.5 -27.5h-15q-45 0 -81 28t-36 72q0 84 96 131q74 37 156 37q54 0 173.5 -34t161.5 -34q35 0 53.5 19.5t33.5 19.5q33 0 33 -37z" />
    <glyph glyph-name="G" unicode="G" horiz-adv-x="726" 
d="M976 558q0 -81 -65 -157q-68 -80 -148 -80q-41 0 -70 22q-32 25 -32 65q0 42 27.5 80t66.5 54q17 -27 38 -27q17 0 29.5 13.5t12.5 30.5q0 40 -51 40q-85 0 -157 -91q-67 -86 -67 -173q0 -86 79 -86q31 0 92.5 21t86.5 21q22 0 22 -13q-72 -80 -110 -157
q-85 -170 -133 -227q-94 -109 -228 -109q-98 0 -166 53q-73 58 -73 153q0 65 44.5 115.5t108.5 50.5q44 0 70 -25q-6 -20 -6 -38q0 -47 38 -74q34 -24 83 -24q20 0 43 6q27 6 76 49t47 68q-2 -1 -62 -37q-36 -21 -71 -21q-60 0 -97.5 44t-37.5 106q0 63 40 143l-7 4
q-52 -40 -80 -55q-48 -27 -92 -27q-55 0 -90.5 32.5t-35.5 87.5q0 64 48 112.5t113 48.5q42 0 72 -24q-11 -10 -21.5 -20t-10.5 -28q0 -42 62 -42q59 0 137 61q144 113 147 115q97 62 199 62q56 0 92.5 -34t36.5 -89z" />
    <glyph glyph-name="H" unicode="H" horiz-adv-x="848" 
d="M1254 612q0 -39 -34.5 -70.5t-74.5 -31.5q-37 0 -54 22t-31 22q-54 0 -125 -107q-48 -73 -83 -158q-23 -56 -23 -73q0 -37 30 -37q3 0 15 4.5t16 4.5q11 0 11 -16q0 -48 -53 -109.5t-100 -61.5q-72 0 -72 87q0 40 26 101q22 49 45 97q-8 3 -27 2q-32 -2 -28 -2
q-33 0 -84 -79q-68 -106 -113 -146q-88 -79 -211 -79q-88 0 -141 57.5t-53 146.5q0 85 63.5 152.5t148.5 67.5q16 0 49 -10q38 -12 38 -24q0 2 -7.5 -7.5t-7.5 -24.5q0 -48 66 -48q56 0 103 40q24 20 92 104q85 105 147 157v9q-21 12 -48 12q-60 0 -101 -16q-58 -23 -58 -73
q0 -42 44 -38v-11q0 -11 -29 -40q-24 -24 -39 -34q-27 -18 -64 -18q-47 0 -84.5 32t-37.5 78q0 99 116 152q91 42 205 42q144 0 232 -44q-147 -122 -218 -271q12 -5 91 3q11 1 25 21q9 15 19 30q192 251 340 251q31 0 55 -18t24 -48z" />
    <glyph glyph-name="I" unicode="I" horiz-adv-x="497" 
d="M824 641q-35 -29 -90 -85q-38 -50 -119 -225q-76 -163 -138 -233q-95 -108 -225 -108q-81 0 -131.5 51t-50.5 126q0 93 62.5 161.5t156.5 68.5q43 0 70 -17q-9 -10 -16.5 -19t-7.5 -26q0 -49 60 -49q37 0 80 29q40 28 69 70q40 58 80.5 115.5t92.5 105.5q-7 13 -41 13
q-39 0 -79 -20q-50 -25 -50 -63q0 -15 9 -25.5t23 -8.5v-11q1 -31 -49 -61q-44 -26 -74 -26q-38 0 -62 31q-21 27 -21 61q0 95 106 144q79 37 172 37q80 0 173 -36z" />
    <glyph glyph-name="J" unicode="J" horiz-adv-x="574" 
d="M935 666q-105 -70 -209 -287q-139 -293 -174 -344q-114 -166 -276 -166q-98 0 -162 54q-68 58 -68 158q0 91 67 155t155 64q55 0 92 -29q-4 -15 -12.5 -17t-8.5 -25q0 -28 24 -43q19 -12 44 -12q67 0 129 70q26 30 90 131q121 192 193 257q-5 12 -51 12q-60 0 -118 -30
q-74 -38 -74 -103q0 -51 56 -49v-15q0 -37 -42.5 -69t-82.5 -32q-50 0 -79 36q-26 33 -26 84q0 121 133 188q100 51 209 51q44 0 100 -11q61 -11 91 -28z" />
    <glyph glyph-name="K" unicode="K" horiz-adv-x="830" 
d="M1184 615q0 -47 -45 -89.5t-97 -54.5q-5 36 -37 36q-16 0 -74 -40q-33 -23 -65 -46q-14 -7 -69 -23q-9 -3 -9 -9q27 -41 27 -71v-63q0 -41 2 -52q8 -36 40 -36q3 0 14.5 3t17.5 4q0 -1 2.5 -5t2.5 -7q0 -56 -63 -111q-59 -51 -109 -51q-43 0 -68 27t-25 71q0 50 48 135
t48 109q0 37 -21 37q-10 0 -69 -103q-71 -126 -138 -192q-103 -103 -222 -103q-87 0 -142 56t-55 137q0 96 63 158t156 62q54 0 76 -18q-5 -9 -9 -18q-8 -17 -8 -23q0 -25 27 -41q21 -11 38 -11q66 0 137 77q58 69 115 139q32 30 101 96q-16 16 -65 16q-46 0 -88 -22
q-50 -27 -50 -70q0 -19 13 -31.5l13 -12.5q0 -33 -46 -62q-42 -27 -79 -27q-44 0 -74 28.5t-30 72.5q0 99 124 151q90 38 192 38q129 0 218 -42q-29 -23 -93 -92q-79 -85 -79 -109q0 -8 18 -8q62 0 128 66q56 62 111 124q66 66 125 66q31 0 51.5 -19.5t20.5 -46.5z" />
    <glyph glyph-name="L" unicode="L" horiz-adv-x="583" 
d="M871 590q0 -73 -70 -138q-50 -46 -142 -92q-59 -28 -117 -56q-7 -4 -39 -58q-39 -66 -60 -93q-4 -5 -25 -27q-17 -19 -17 -22t34 -33q149 -126 254 -126q25 0 44 7q16 7 31 13q6 -12 6 -23q0 -71 -61 -122q-57 -47 -126 -47q-92 0 -167 63q-47 40 -96 116q-40 63 -49 63
q-2 0 -29 -4t-30 -4q-53 0 -93 29q-44 32 -44 82q0 49 36 80t83 31q42 0 89.5 -27.5t40.5 -27.5q12 0 41 50l36 64q-96 27 -137 55q-69 45 -69 121q0 67 56 110q49 37 107 37q89 0 107 -60q-43 1 -69 -27q-22 -26 -22 -60q0 -29 21.5 -52t49.5 -23q13 0 56 74q53 92 99 137
q75 74 170 74q101 0 101 -84z" />
    <glyph glyph-name="M" unicode="M" horiz-adv-x="882" 
d="M1237 586q0 -46 -31 -84t-75 -38q-17 0 -37.5 15.5t-29.5 15.5q-47 0 -109 -111q-57 -103 -57 -155q0 -42 32 -42q3 0 21 7.5t22 7.5q2 0 2 -1t-3.5 -7t-3.5 -9q0 -52 -50 -118q-53 -68 -102 -68q-29 0 -45 21.5t-16 50.5q0 48 30 111q18 39 63.5 112.5t59.5 104.5
q0 2 -6 2q-26 0 -146 -180.5t-144 -180.5q-22 0 -22 24q0 19 27 62l40 60q53 85 79 189l-2 18h-4q-4 0 -6 -4q-18 -35 -56 -106q-179 -306 -380 -306q-82 0 -138 50.5t-56 130.5q0 100 72 169t173 69q27 0 59 -12q38 -15 45 -36q-21 -15 -21 -25q0 -68 70 -68q66 0 136.5 62
t70.5 127q0 39 -31 39q-14 0 -24 -11t-10 -25q0 -8 5 -16.5l5 -8.5q0 -21 -37 -39q-32 -16 -57 -16q-48 0 -80 36.5t-32 85.5q0 80 75 140q70 55 153 55q70 0 110 -42t40 -113q0 -96 -37 -183l3 -12q26 26 107 129q75 96 124 139q74 65 142 65q37 0 59.5 -22t22.5 -59z" />
    <glyph glyph-name="N" unicode="N" horiz-adv-x="807" 
d="M1253 609q0 -46 -49.5 -103t-94.5 -57q-21 0 -29.5 18t-26.5 18q-56 0 -147 -121q-87 -116 -87 -175q0 -30 25.5 -38t25.5 -25q0 -42 -48 -87t-90 -45q-80 0 -80 109q0 14 70.5 158t70.5 172l-3 28q-6 0 -9 -6q-16 -39 -53 -116q-75 -140 -173 -237q-129 -125 -254 -125
q-88 0 -148 53q-63 55 -63 142q0 95 71.5 164t167.5 69q28 0 67 -11t60 -26q-2 -4 -19 -22q-10 -11 -10 -30q0 -56 76 -56q68 0 152 75t84 142q0 40 -37 40q-54 0 -54 -34q0 -5 -1 -14q-1 -6 0 -10q1 -5 5 -11q1 -2 10.5 -7.5t9.5 -8.5q0 -25 -35 -45q-31 -18 -59 -18
q-52 0 -83.5 35t-31.5 87q0 87 70 141q64 50 153 50q75 0 125 -38q54 -41 54 -114q0 -48 -56 -173.5t-56 -136.5l9 -26q3 2 15.5 32.5t54.5 102.5q194 340 354 340q67 0 67 -60z" />
    <glyph glyph-name="O" unicode="O" horiz-adv-x="706" 
d="M937 581q0 -94 -70 -235q-73 -147 -176 -246q-117 -113 -228 -113q-78 0 -119 43t-41 117q0 41 9 70q18 55 21 68q-54 -35 -59 -37q-47 -26 -89 -26q-48 0 -78 30t-30 76q0 58 49 105t108 47q10 0 25 -6q-14 -25 -14 -39q0 -50 64 -50q46 0 107 49l104 90q62 48 110 48
h20q-62 -62 -104 -131q-51 -83 -51 -147q0 -72 69 -72q57 0 113 62t56 119q0 17 -9 29q-11 16 -31 16q-25 0 -45 -19q0 2 -5 3t-5 4q0 73 62 153q69 88 150 88q39 0 63 -29.5t24 -66.5z" />
    <glyph glyph-name="P" unicode="P" horiz-adv-x="681" 
d="M1008 611q0 -23 -16 -40.5t-39 -17.5q-31 0 -38.5 32.5t-42.5 32.5q-39 0 -39 -18q0 6 20.5 -37.5t20.5 -89.5q0 -81 -47 -143q-53 -69 -137 -69q-39 0 -59 11t-29 11q-73 -136 -130 -197q-92 -99 -203 -99q-78 0 -132.5 51.5t-54.5 129.5q0 82 59 141t137 59q16 0 46 -8
q38 -10 38 -23q0 -2 -7.5 -12.5t-7.5 -18.5q0 -16 14.5 -28t28.5 -12q40 0 84 35q27 20 54 54q45 55 189 238q0 21 -70 21q-34 0 -61 -16q-35 -21 -35 -59q0 -29 34 -33v-15q0 -46 -57 -89q-52 -39 -93 -39q-45 0 -73 35q-25 31 -25 70q0 103 114 164q89 47 179 47
q48 0 84 -9q23 -6 44 -18q17 -9 20 -9q72 43 133 43q37 0 65 -18q32 -21 32 -57zM782 505q0 9 -5 25q-7 21 -16 21q-12 0 -46.5 -53.5t-34.5 -62.5q0 -13 24 -13q33 0 55.5 24.5t22.5 58.5z" />
    <glyph glyph-name="Q" unicode="Q" horiz-adv-x="498" 
d="M710 548q0 -133 -122 -305t-242 -197q40 -30 81 -61q57 -37 97 -37q39 0 61 31q18 -13 18 -48q0 -59 -49 -93q-41 -29 -96 -29q-68 0 -126 52q-42 48 -85 96q-46 52 -88 52q-44 0 -57 -39q-11 11 -11 25q0 44 46 64q-49 60 -49 128q0 111 90 225q97 123 218 135
q-49 -46 -89 -114q-46 -79 -46 -135q0 -35 21 -56.5t53 -21.5q64 0 118 65q51 61 51 121q0 19 -10 35q-13 20 -34 20q-18 0 -30 -7q-27 -17 -30 -18q-3 4 -3 12q0 76 66 150q70 79 149 79q98 0 98 -129z" />
    <glyph glyph-name="R" unicode="R" horiz-adv-x="760" 
d="M1048 624q0 -22 -17.5 -36.5t-35.5 -14.5q-36 0 -43.5 32.5t-35.5 32.5q-38 0 -38 -17q0 4 19.5 -29.5t19.5 -73.5q0 -67 -49 -113t-129 -58q17 -51 17 -65v-77q0 -9 8.5 -15.5t15.5 -6.5q10 0 33 9q9 -3 9 -12q0 -55 -57 -117.5t-110 -62.5q-33 0 -52.5 23t-19.5 52
q0 44 48.5 130t48.5 110q0 11 -5.5 23.5t-14.5 12.5q-6 0 -54 -94q-57 -112 -115 -173q-87 -94 -188 -94q-90 0 -149 57t-59 144t62 150t147 63q23 0 51 -9q35 -12 40 -31q-24 -10 -24 -35q0 -23 18 -35t40 -12q47 0 104 60q13 13 68 85q19 26 51 66q2 2 111 121
q0 19 -64 19q-36 0 -68 -13q-46 -19 -46 -56q0 -32 39 -33q-5 -54 -51.5 -96.5t-99.5 -42.5q-41 0 -69 29.5t-28 66.5q0 101 110 160q88 46 191 46q70 0 112.5 -17t43.5 -17l41 17t84 17q36 0 61 -17q29 -20 29 -53zM827 524q0 11 -7 30q-9 24 -21 24q-15 0 -59 -72
q-38 -62 -50 -91q8 -8 24 -8q44 0 78.5 35t34.5 82z" />
    <glyph glyph-name="S" unicode="S" horiz-adv-x="556" 
d="M854 587q0 -39 -28 -65.5t-60 -26.5q-23 0 -41 15t-18 33q0 21 18.5 32.5t18.5 21.5q0 22 -33 22q-53 0 -77 -60q-17 -39 -17 -88l17 -184q0 -136 -84 -225t-220 -89q-99 0 -170 53q-79 59 -79 154q0 89 59.5 154t147.5 65q34 0 68 -15q-29 -28 -29 -48q0 -46 51 -46
q66 0 104 100q64 172 73 187q62 100 188 100q47 0 76 -20q35 -23 35 -70z" />
    <glyph glyph-name="T" unicode="T" horiz-adv-x="540" 
d="M993 633q0 -33 -34 -51q-26 -14 -59 -14q-2 0 -25.5 -2t-26.5 -2q-87 2 -157 -147q-123 -260 -134 -277q-102 -150 -264 -150q-86 0 -145 50q-64 53 -64 143q0 78 54.5 137.5t131.5 59.5q24 0 30 -1q12 -3 37 -19q0 -6 -9.5 -13.5t-9.5 -29.5q0 -54 73 -54t147 78
q62 78 124 155q32 39 54 56.5t33 31.5q-5 10 -37 17q-27 6 -53 6q-49 0 -84 -25q-38 -27 -38 -70q0 -40 49 -55q-48 -84 -136 -84q-51 0 -88 29q-42 32 -42 87q0 101 105 153q78 38 169 38q65 0 156.5 -25.5t115.5 -25.5q34 0 57 18t36 18q34 0 34 -32z" />
    <glyph glyph-name="U" unicode="U" horiz-adv-x="563" 
d="M827 595q0 -27 -62 -110q-58 -76 -115 -153q-62 -90 -62 -136q0 -35 29 -35q6 0 16.5 1t15.5 1q3 -6 3 -11q0 -48 -55.5 -108t-102.5 -60q-51 0 -51 64q0 22 6 49l-2 2q-5 0 -35 -29q-36 -36 -64 -55q-46 -29 -91 -29q-88 0 -88 88q0 70 76 172l140 170q76 93 76 143
q0 45 -49 45q-36 0 -71.5 -33t-35.5 -69q0 -39 38 -39q6 0 12 2v-11q0 -7 -22 -44t-29 -45q-60 -65 -124 -65q-43 0 -67.5 24.5t-24.5 67.5q0 64 53 136q108 145 295 145q53 0 86 -21q39 -25 39 -76q0 -47 -34 -102q-33 -45 -65 -89q-35 -47 -35 -76q0 -28 29 -28
q52 0 114 92q51 86 103 172q60 92 110 92q44 0 44 -42z" />
    <glyph glyph-name="V" unicode="V" horiz-adv-x="607" 
d="M834 601q0 -94 -82.5 -240t-193.5 -248q-124 -115 -223 -115q-55 0 -90 29.5t-35 84.5q0 67 64 168q20 30 120 162q64 86 64 115q0 44 -58 44q-40 0 -71 -23q-36 -26 -36 -69q0 -46 58 -59q-22 -48 -67 -76q-40 -24 -82 -24q-50 0 -86 31.5t-36 81.5q0 121 135 181
q95 43 207 43q110 0 201 -51l-122 -182q-69 -102 -69 -151q0 -53 56 -53q58 0 117 80q54 75 54 129q0 37 -25 37q-8 0 -34 -14q-1 56 48 122q54 74 120 74q33 0 51 -25q15 -20 15 -52z" />
    <glyph glyph-name="W" unicode="W" horiz-adv-x="779" 
d="M974 563q0 -94 -71 -233q-69 -134 -163 -230q-102 -104 -180 -104q-45 0 -63 28q-12 17 -15 52q-2 28 -7 28l-30 -29q-36 -35 -69 -55q-48 -29 -92 -29t-68 34q-20 28 -20 64q0 68 71 164q66 79 131 158q71 86 71 128q0 46 -58 46q-39 0 -71.5 -28.5t-32.5 -65.5
q0 -20 17.5 -35.5t41.5 -14.5q-51 -91 -150 -91q-51 0 -86.5 32.5t-35.5 83.5q0 110 122 166q89 41 197 41q32 0 114 -16q107 -22 107 -48q0 -9 -97 -136.5t-97 -161.5q0 -25 26 -25l232 253q34 0 34 -30q0 -21 -53.5 -92t-53.5 -104q0 -49 39 -49q52 0 103 74q47 68 47 119
q0 39 -31 39q-12 0 -26 -9q3 32 14 56q34 75 80 100q21 12 31 15q3 1 24 1q52 0 64 -33q4 -11 4 -63z" />
    <glyph glyph-name="X" unicode="X" horiz-adv-x="763" 
d="M1065 583q0 -51 -38 -95q-40 -47 -92 -47q-31 0 -43 8q-22 14 -30 62q-63 2 -128 -87q-61 -83 -61 -148q0 -29 17.5 -48.5t46.5 -19.5q3 0 26 3.5t28 3.5q41 0 41 -41q0 -69 -63.5 -126t-124.5 -57q-108 0 -108 143q0 19 3 40q-91 -98 -147 -136q-71 -47 -149 -47
q-86 0 -137 56q-49 53 -49 137q0 86 64.5 149t146.5 63q59 0 87 -31q-12 -10 -23 -21q-12 -14 -12 -37q0 -31 29 -49q23 -13 49 -13q73 0 140 74q65 71 65 140q0 22 -12 39.5t-34 17.5q-20 0 -38 -15t-18 -38t23 -40q-3 -7 -18.5 -13t-25.5 -6q-44 0 -72 36q-26 32 -26 73
q0 78 61 129q57 48 133 48q37 0 43 -2q10 -3 21 -7q30 -9 52 -41q20 -28 24 -58q2 -12 0 -31q-3 -23 -3 -27q0 -9 3 -13q50 71 111 117q71 54 134 54q48 0 76 -27.5t28 -71.5z" />
    <glyph glyph-name="Y" unicode="Y" horiz-adv-x="586" 
d="M888 605q0 -51 -105 -183q-111 -137 -178 -291q-73 -170 -138 -242q-89 -99 -220 -99q-97 0 -166 52q-75 57 -75 152q0 69 48 115q45 44 107 44q49 0 64 -19q-8 -10 -15.5 -20.5t-7.5 -32.5q0 -48 47 -72q34 -18 76 -18q56 0 102 34q51 38 72 103q-30 -23 -59 -47
q-47 -35 -92 -35q-42 0 -65 25t-23 66q0 60 65 154l120 156q65 87 65 130q0 17 -16 28q-12 8 -26 8q-36 0 -72.5 -32.5t-36.5 -67.5q0 -17 11 -27t25 -10q3 0 9.5 1t10.5 1q-20 -67 -70 -115q-52 -51 -110 -51q-44 0 -72 26t-28 70q0 119 128 205q112 77 224 77
q125 0 125 -99q0 -57 -64.5 -152t-64.5 -126q0 -23 27 -23q53 0 114 94q50 87 101 174q60 94 110 94q22 0 37.5 -13.5t15.5 -33.5z" />
    <glyph glyph-name="Z" unicode="Z" horiz-adv-x="597" 
d="M864 649q-62 -83 -145 -151q-42 -36 -173.5 -129t-230.5 -175q29 -19 121 -19q107 0 108 79q37 -7 59 -44q20 -32 20 -72q0 -76 -59 -125q-54 -46 -126 -46q-55 0 -169.5 34.5t-164.5 34.5q-62 0 -110 -39q28 90 140 174q100 64 199 129q63 43 150.5 116.5t134.5 125.5
q-21 24 -110 24q-31 0 -53 -13q-31 -17 -31 -54q0 -14 3.5 -19.5t23.5 -16.5q-17 -35 -58 -56q-36 -18 -72 -18q-49 0 -86 32t-37 82q0 94 92 141q68 36 154 36q69 0 176 -24t143 -24q31 0 52 3q29 5 49 14z" />
    <glyph glyph-name="bracketleft" unicode="[" horiz-adv-x="533" 
d="M533 799l-20 -76h-112l-317 -783h116l-37 -77h-206l369 936h207z" />
    <glyph glyph-name="backslash" unicode="\" horiz-adv-x="562" 
d="M202 350q0 -22 115 -66q128 -50 141 -61q23 -21 51 -58l4 6l-9 43v64q0 91 77 117l12 5l-16 3q-23 0 -62.5 -12t-59.5 -12q-39 0 -63.5 29.5t-24.5 67.5q0 12 2 23q-38 -16 -46 -16q-19 0 -32 10h-6q-3 -1 -1 -7q85 -64 85 -115q0 -26 -16.5 -42t-41.5 -16t-55 12.5
t-48 29.5h-5zM472 262q17 0 17 -15t-15 -15q-16 0 -16 15t14 15z" />
    <glyph glyph-name="bracketright" unicode="]" horiz-adv-x="533" 
d="M-43 -137l20 77h112l317 782h-116l37 77h206l-369 -936h-207z" />
    <glyph glyph-name="asciicircum" unicode="^" horiz-adv-x="762" 
d="M235 696l186 124q71 -48 160 -118l-12 -9l-157 48l-163 -54z" />
    <glyph glyph-name="underscore" unicode="_" horiz-adv-x="510" 
d="M-3 -88h513v-48h-513v48z" />
    <glyph glyph-name="grave" unicode="`" horiz-adv-x="512" 
d="M381 717q-59 37 -184 106l-61 -62q13 -4 236 -65q6 8 9 21z" />
    <glyph glyph-name="a" unicode="a" 
d="M536 282q-53 -83 -107 -166q-81 -117 -136 -117q-42 0 -42 52q0 13 3 28l-2 7q-31 -29 -62 -57q-43 -36 -71 -36t-46 26q-16 22 -16 51q0 -3 7 34q18 89 105 188q95 108 178 108q30 0 38 -10l6 -14q5 -10 10 -10l17 15.5t34 15.5q29 0 29 -19q0 -17 -49 -66.5t-49 -70.5
q0 -28 19 -36q8 -3 30 -3q25 0 56 31q24 24 48 49zM334 324q-9 9 -20 9q-27 0 -62 -39.5t-35 -65.5q0 -8 6.5 -16t14.5 -8q24 0 61 43t37 69q0 4 -2 8z" />
    <glyph glyph-name="b" unicode="b" 
d="M474 595q0 -22 -64 -93q-69 -77 -77 -99l3 -14q33 17 53 17q51 0 51 -63q0 -94 -95 -219q-99 -131 -189 -131q-34 0 -54.5 25t-20.5 59q0 55 56 142q52 72 103 145q56 79 56 115q0 8 -4.5 21.5t-4.5 21.5q0 22 70 58q67 33 93 33q24 0 24 -18zM362 332q-9 9 -20 9
q-33 0 -66.5 -44t-31.5 -77v-7q13 -12 25 -12q32 0 63 44t31 77q0 6 -1 10z" />
    <glyph glyph-name="c" unicode="c" horiz-adv-x="295" 
d="M456 279q-16 -17 -31 -44q-48 -91 -106 -152q-80 -87 -156 -87q-35 0 -55.5 23.5t-20.5 59.5q0 90 93 205q96 119 184 119q18 0 36 -12.5t18 -31.5q0 -27 -25.5 -56t-52.5 -29q-22 0 -28 14q-3 6 -5 32q-1 10 -5 10q-13 0 -38.5 -35t-25.5 -50q0 -30 10 -41.5t40 -11.5
q87 0 168 87z" />
    <glyph glyph-name="d" unicode="d" horiz-adv-x="362" 
d="M636 592q0 -29 -113.5 -173t-113.5 -190q0 -31 29 -31q34 0 70 42q27 32 55 64l-96 -180q-75 -125 -134 -125q-51 0 -51 55q0 14 3 30l-1 2q-4 0 -51 -43.5t-85 -43.5q-59 0 -59 73q0 88 89 206q94 125 180 125q21 0 29 -12q14 -21 15 -22q14 6 34 47t20 58q0 7 -7 21.5
t-7 21.5q0 28 70 63q65 33 97 33q27 0 27 -21zM350 317q0 8 -7.5 14.5t-15.5 6.5q-24 0 -58 -42t-34 -67t22 -25q27 0 60 43t33 70z" />
    <glyph glyph-name="e" unicode="e" horiz-adv-x="266" 
d="M473 279q-59 -84 -118 -167q-89 -110 -167 -110q-37 0 -59 24.5t-22 62.5q0 84 76.5 185.5t157.5 123.5q28 8 29 8q27 0 46 -16.5t19 -42.5q0 -19 -17 -43.5t-34 -31.5q-39 -8 -77 -16q-54 -13 -54 -35q0 -31 54 -31q74 0 166 89zM354 331q0 6 -4 15q-2 0 -7.5 2t-8.5 2
q-13 0 -40 -20t-27 -32q0 -7 3 -7h12q9 0 36 9.5t31.5 16t4.5 14.5z" />
    <glyph glyph-name="f" unicode="f" horiz-adv-x="612" 
d="M1028 588q0 -35 -27 -62.5t-63 -27.5q-21 0 -39 13t-34 13q-54 2 -106 -116q42 4 52 1q-10 -66 -40 -66q-4 0 -14.5 2t-16.5 2q-18 0 -28 -17q-8 -21 -25 -62q-52 -125 -104 -249q-50 -119 -108 -206q-43 -64 -118 -112q-78 -48 -142 -48q-24 0 -86 18q-38 11 -65 59
q-24 42 -24 81q0 9 9 35q20 54 54 68l36 16q8 3 29 3q27 0 34 -5q3 -2 9.5 -20t15.5 -18q3 0 15.5 -1.5t15.5 -1.5q72 0 160 100q63 71 136 199q42 74 83 148q-6 10 -18 10h-8q-5 -1 -7 -1q-8 0 -13 5v9q0 9 15.5 30t20.5 22q3 0 25 -2q16 -2 25 6q26 39 78 115q33 47 88 83
q60 39 108 39q35 0 56 -16.5t21 -45.5z" />
    <glyph glyph-name="g" unicode="g" horiz-adv-x="517" 
d="M723 378q0 -16 -17 -34.5t-35 -37.5q-20 -22 -28 -35q-50 -90 -125 -260q-156 -350 -367 -350q-3 0 -14.5 1.5t-16.5 1.5t-31 11q-36 15 -59.5 48t-23.5 68q0 54 38.5 98t93.5 44q18 0 32 -10q6 -56 73 -56q43 0 92 26q33 18 71 68q10 13 60 88v8l-5 4q-47 -38 -56 -44
q-31 -21 -54 -21q-29 0 -45 24q-12 19 -12 41q0 52 50 139q38 65 71 103q32 35 75 64q49 33 85 38q3 0 9.5 2.5t9.5 2.5q17 0 27 -15l12 -22h8q32 37 52 37q14 0 22 -11t8 -21zM577 317q0 4 -8 12.5t-15 8.5q-17 0 -47 -24q-14 -11 -32 -40t-18 -44q0 -5 5 -14q7 -12 18 -12
q27 0 62 43t35 70z" />
    <glyph glyph-name="h" unicode="h" horiz-adv-x="369" 
d="M564 290q-44 -102 -96 -176q-85 -121 -164 -121q-55 0 -55 55q0 39 32 94q25 36 49 72q44 66 44 84q0 11 -9 17t-15 6q-35 0 -88 -87l-56 -106q-19 -39 -38 -79q-35 -59 -74 -59q-45 0 -45 48q0 37 38 93q27 38 55 75q11 18 36 56q108 158 108 192q0 3 -11.5 29t-11.5 30
q0 33 77 74q69 37 99 37q18 0 18 -16q0 -17 -26 -53.5t-25 -40.5l-82 -126l-1 -19q1 0 2.5 -1t6.5 -1q4 0 6 3.5t3 3.5q20 14 41 28q20 11 50 11q48 0 48 -42q0 -24 -34 -78t-34 -70q0 -22 28 -22q30 0 71 33q35 29 53 56z" />
    <glyph glyph-name="i" unicode="i" horiz-adv-x="197" 
d="M407 497q0 -28 -34 -48q-28 -16 -54 -16q-46 0 -46 37q0 28 29 47q26 16 54 16q18 0 34.5 -10.5t16.5 -25.5zM371 255q-116 -208 -207 -252q-3 -3 -6 -5q-5 -5 -9 -5t-14.5 -1.5t-14.5 -1.5q-26 0 -42 20t-16 44q0 40 35 97q18 28 69 90q39 49 43 65t3 22l-7 25q0 1 3 13
q40 32 94 32q31 0 31 -17q0 -11 -50 -71t-50 -86q0 -28 31 -28q3 0 10 4q16 -3 48.5 16.5t48.5 38.5z" />
    <glyph glyph-name="j" unicode="j" horiz-adv-x="594" 
d="M842 494q0 -30 -31 -46q-23 -12 -48 -12q-53 0 -53 35q0 31 29 47q23 12 55 12q48 0 48 -36zM770 368q-39 -28 -99 -129l-88 -154q-53 -90 -107 -180q-62 -100 -122 -165q-34 -38 -87 -61.5t-101 -23.5q-66 0 -109.5 38.5t-43.5 99.5q0 52 37.5 92t89.5 40q9 0 18 -1
q5 -3 5 -10l2 -11q15 -42 72 -42q82 0 164 93q29 32 133 186q42 61 59 91q30 51 42 92q0 3 -2 10t-2 13q0 9 16 18.5t50 24.5q27 7 45 7q9 0 28 -7v-21z" />
    <glyph glyph-name="k" unicode="k" horiz-adv-x="344" 
d="M511 257l-52 -96q-42 -75 -81 -116q-54 -56 -106 -56q-54 0 -54 50q0 30 34 88q34 55 32 74q-12 11 -21 11q-31 0 -59 -50l-30 -67q-10 -25 -35 -74q-20 -32 -56 -32q-21 0 -33 14t-12 29q0 28 18 56q28 44 78 110q72 95 83 110q19 26 42 65q15 24 30 49q23 40 23 61
q0 11 -8.5 24.5t-8.5 16.5q0 19 50 47q36 21 51 25q51 16 67 16q13 0 26 -12q2 -22 -40 -70q-33 -37 -65 -74q-15 -24 -49 -75v-7q-3 -2 4 -2q1 0 34.5 15.5t61.5 15.5q54 0 54 -49q0 -48 -56 -81q-47 -28 -99 -30l-1 -2t-1 -7q0 -4 12 -18.5t22 -20.5t33 -6q56 0 112 68z
M397 323q0 3 -1.5 10.5t-1.5 10.5q-3 0 -8.5 1.5t-9.5 1.5q-19 0 -40 -16q-36 -26 -36 -37q0 -10 22 -10q13 0 40 10q35 13 35 29z" />
    <glyph glyph-name="l" unicode="l" horiz-adv-x="193" 
d="M483 616q4 -20 -14 -53l-32 -52q-50 -66 -99 -132q-97 -133 -97 -164q0 -28 33 -28q26 0 60 30l56 56l-108 -172q-87 -129 -163 -129q-29 0 -47.5 21t-18.5 49q0 49 63 141l116 158q63 88 63 128q0 19 -6 30.5t-6 21.5q0 33 76 71q67 34 96 34q13 0 28 -10z" />
    <glyph glyph-name="m" unicode="m" horiz-adv-x="568" 
d="M734 264q-77 -127 -101 -158q-89 -116 -167 -116q-53 0 -53 54q0 43 41 103q39 55 79 110q17 26 17 36q0 19 -15 19q-36 0 -104 -94q-51 -70 -68 -108q-56 -120 -95 -120q-18 0 -32 13t-14 30q0 23 25 62q3 6 80 107q54 70 53 93v4q-13 13 -23 13q-3 0 -7 -3.5t-7 -4.5
q-27 -10 -61 -54q-1 -2 -41 -62q-7 -10 -22 -30q-24 -46 -48 -93q-46 -75 -91 -75q-40 0 -40 45q0 35 47 100q12 16 70 86q55 66 70 102q3 20 11 59q56 43 105 38q10 -4 10 -17q0 -11 -6 -26q2 -2 7 -2q2 0 35.5 22.5t61.5 22.5q31 0 35 -13.5t4 -23.5q0 -5 -1 -10t-1 -6
q0 -5 7 -10q82 63 125 63q55 0 55 -48q0 -31 -40 -84t-40 -70q0 -25 31 -25q39 0 108 71z" />
    <glyph glyph-name="n" unicode="n" horiz-adv-x="395" 
d="M571 267q-51 -82 -103 -163q-89 -123 -165 -123q-27 0 -42 18t-15 43q0 42 38 99q13 19 71 89q38 47 38 64q0 21 -26 21q-22 0 -50 -29q-20 -22 -39 -44q-31 -32 -72 -111q-46 -89 -72 -122q-19 -25 -55 -25q-45 0 -45 45q0 42 49 102q40 45 115 139q13 18 35 53
q4 20 11 59q39 29 84 29q24 0 24 -13q0 -5 -3.5 -14t-3.5 -12q0 -6 9 -6q-1 0 36 22.5t74 22.5q54 0 54 -45q0 -27 -43.5 -78t-43.5 -71q0 -24 27 -24q33 0 67 30z" />
    <glyph glyph-name="o" unicode="o" horiz-adv-x="347" 
d="M484 332q0 -62 -55 -158q-44 -77 -81 -111q-17 -17 -54 -45q-68 -37 -106 -37q-15 0 -43 10q-13 4 -28.5 24t-16.5 33q-1 7 -1 34q0 87 64 176q62 84 152 134q41 22 90 22q79 0 79 -82zM403 318q0 12 -9 21t-21 9q-31 0 -66 -44t-35 -71q0 -14 10 -24t24 -10
q30 0 63.5 41.5t33.5 77.5z" />
    <glyph glyph-name="p" unicode="p" horiz-adv-x="693" 
d="M901 469q0 -30 -33 -47q-29 -14 -45 -9q-10 11 -10 21q-19 14 -30 14q-43 0 -78 -55q0 -6 4 -6t23 5.5t23 5.5q27 0 41 -22q12 -18 12 -41q0 -86 -83 -219q-89 -143 -169 -143q-27 0 -40 18q-7 10 -21 50h-8q-58 -99 -117 -198q-65 -109 -117 -143q-10 -9 -32 -25
q-52 -27 -101 -27q-54 0 -88 32.5t-34 81.5q0 50 45.5 97t97.5 47q8 0 27 -7q5 -37 42 -37q40 0 91 53q32 40 66 81t135 202q94 151 155 218q94 102 178 102q25 0 44 -11q22 -14 22 -38zM714 300q0 31 -25 31q-28 0 -60 -50q-30 -45 -30 -65q0 -23 27 -23q16 0 27 7
q20 12 40.5 45.5t20.5 54.5z" />
    <glyph glyph-name="q" unicode="q" horiz-adv-x="361" 
d="M541 376q0 -19 -19 -38q-64 -64 -145 -193q-97 -153 -97 -228q0 -31 17 -39q8 -5 42 -6q29 0 29 -25q0 -9 -14 -46q-20 -53 -70 -100q-57 -53 -111 -53q-75 0 -75 79q0 49 54 143q6 10 96 157q-5 5 -7 5q2 0 -37 -26.5t-72 -26.5q-57 0 -57 70t58 158q50 78 128 146
q59 51 116 51q49 0 61 -50h10q23 31 27 34q11 10 32 10q34 0 34 -22zM371 312q0 22 -26 22t-61.5 -39t-35.5 -67q0 -23 23 -23q30 0 65 39.5t35 67.5z" />
    <glyph glyph-name="r" unicode="r" horiz-adv-x="330" 
d="M500 263q-49 -83 -99 -167q-80 -117 -157 -117q-24 0 -39.5 18t-15.5 44q0 45 63 130q68 93 74 123q-1 2 -5 6q-2 1 -6.5 2.5t-8.5 1.5q-24 0 -47 -35q-13 -22 -25 -43q-42 -68 -85 -136q-77 -111 -138 -111q-25 0 -25 25q0 33 50 106t69 76q57 10 82 52q15 19 42 57
q15 26 31 52q21 34 33 41q5 4 17 9q17 1 119 1q18 0 29 -12q0 -21 -51 -90t-51 -87q0 -25 33 -25q43 0 111 79z" />
    <glyph glyph-name="s" unicode="s" horiz-adv-x="335" 
d="M497 360q0 -17 -19 -30q-15 -11 -28 -11q-19 0 -20.5 12t-19.5 12q-19 0 -24 -23q-1 -5 -2 -35q0 -4 2 -15t2 -14v-109q0 -3 -4 -12.5t-4 -13.5q-1 -30 -41.5 -80t-65.5 -51l-12 -8q-3 0 -22 -1.5t-22 -1.5q-30 0 -45 7q-10 4 -28 25t-21 21q-2 0 -35 -28t-54 -28
q-33 0 -33 34q0 32 37.5 95t63.5 75q20 2 55 14q38 26 91 87q59 67 84 87q48 39 99 39q66 0 66 -47zM315 253q0 13 -3 19h-11q-43 -43 -56 -84q10 -10 22 -10q22 0 36 26q12 23 12 49z" />
    <glyph glyph-name="t" unicode="t" horiz-adv-x="247" 
d="M441 486q0 -12 -30.5 -45.5t-30.5 -40.5q0 -13 24 -15l34 -2v-13q0 -12 -42 -54h-79q-9 0 -17 -9q-24 -28 -40 -57q-18 -34 -18 -47q0 -25 38 -25q42 0 90 39q11 9 63 61q-58 -89 -117 -178q-92 -121 -181 -121q-28 0 -48 15q-24 19 -24 51q0 43 50 117q1 3 74 100
q28 37 28 42q0 10 -12 13q-17 4 -20 6v9q0 7 16 27.5t22 22.5t30 5q19 1 27 9q2 2 30 51q21 39 47 43q68 10 83 4q0 -1 1.5 -2.5t1.5 -5.5z" />
    <glyph glyph-name="u" unicode="u" horiz-adv-x="360" 
d="M544 275q-25 -42 -78 -136q-15 -30 -62 -84q-59 -70 -88 -70q-3 0 -9 -1.5t-10 -1.5q-3 0 -7.5 3t-8.5 3q-20 0 -28 27q-3 17 -7 34q-30 -22 -59 -44q-36 -23 -70 -23q-60 0 -60 60q0 53 67 144q45 60 90 121q6 10 6 25q0 2 -2 10.5t-2 12.5q6 11 21 19q54 27 81 27
q20 0 20 -20q0 -11 -51 -76t-51 -86q0 -20 20 -20q29 0 67 52q18 29 37 59q17 23 23 36q9 20 35 37.5t44 17.5q13 0 22.5 -8t9.5 -18q0 -17 -45.5 -74.5t-45.5 -81.5q0 -29 28 -29q24 0 63 31q36 29 50 54z" />
    <glyph glyph-name="v" unicode="v" horiz-adv-x="322" 
d="M494 372q0 -41 -68 -147q-152 -236 -274 -236q-32 0 -50 21t-18 48q0 50 34 107q10 17 65 91q37 50 41 77q1 9 -7 36q6 6 19 18q10 7 40.5 17.5t43.5 10.5q12 0 25 -9q1 -4 1 -8q0 -22 -48 -86t-48 -90q0 -27 33 -27q32 0 63.5 36.5t31.5 68.5q0 24 -21 26v10
q0 8 16.5 28t29.5 29q26 19 54 19q37 0 37 -40z" />
    <glyph glyph-name="w" unicode="w" horiz-adv-x="504" 
d="M648 360q0 -63 -92 -190l-109 -135q-16 -20 -51 -35q-31 -14 -54 -14q-18 0 -34 10q-20 12 -21 34q0 -8 2 22q1 12 -8 21q-65 -54 -70 -58q-45 -31 -79 -31q-6 0 -23 7t-25 14q-11 10 -11 25l-1 4.5t-1 8.5q0 45 39 105q38 51 75 102q13 17 25 34q16 22 16 36
q0 3 -6 17.5t-6 17.5q0 31 81 52q9 2 29 2q32 0 32 -21q0 -13 -52 -82t-52 -87q0 -15 18 -15l182 175q12 0 26 -9q1 -4 1 -8q0 -22 -36 -69t-36 -65q0 -30 33 -30q31 0 61 37q28 34 28 59q0 3 -6 14.5t-12 14.5q10 44 40 67q24 19 52 19q31 0 40 -16q5 -10 5 -33z" />
    <glyph glyph-name="x" unicode="x" horiz-adv-x="431" 
d="M613 275q-16 -16 -69.5 -103t-92.5 -128q-61 -63 -120 -63q-37 0 -50 19.5t-11 64.5q-2 2 -8 2q-1 0 -43.5 -40.5t-54.5 -40.5q-3 0 -22 -2.5t-22 -2.5q-27 0 -50 17.5t-23 47.5q0 41 24 84q8 14 44 48q47 43 73 43h13q3 -24 13 -29h19q33 0 58 32q23 29 23 57
q0 39 -35 39q-16 0 -30 -8l-22 -13q11 37 48 72q41 38 80 38q46 0 46 -58q0 -14 -3 -26q2 -2 6 -2q1 0 24 23q27 27 51 43q36 23 67 23q23 0 40 -16.5t17 -35.5q0 -2 -7 -24q-4 -14 -28.5 -36t-37.5 -22h-31q3 13 -6.5 21.5t-20.5 8.5q-27 0 -49 -30.5t-22 -55.5
q0 -42 53 -42q39 0 86 34q11 7 73 61z" />
    <glyph glyph-name="y" unicode="y" horiz-adv-x="605" 
d="M785 384q0 -25 -32 -64l-34 -40q-35 -46 -94 -132q-34 -62 -101 -185t-111 -179q-78 -100 -165 -123q-1 0 -9 -4t-12 -4q4 0 -16.5 1.5t-63.5 1.5q-53 6 -90 46.5t-37 90.5q0 32 16 67q9 20 29 36q13 10 35.5 22t28.5 12h71q6 0 31 -16q0 -2 -3 -10.5t-3 -12.5
q0 -41 60 -41q63 0 126 79q37 56 73 112q-4 5 -9 5q-3 0 -14 -10q-13 -13 -17 -16q-52 -34 -79 -34q-53 0 -53 60q0 42 26 89q17 28 62.5 85t65.5 90q4 7 2 23q-3 20 -3 24q3 20 48 37q38 15 61 15q20 0 29 -12q6 -17 -50 -85q-60 -72 -60 -95q0 -16 4 -19t20 -3q35 0 82 55
q30 35 45 63q6 11 9 44q2 23 39 38q30 11 56 11q37 0 37 -22z" />
    <glyph glyph-name="z" unicode="z" horiz-adv-x="324" 
d="M529 396q0 -28 -122 -97t-122 -94t85 -25q35 0 74 31q27 24 55 49q-20 -23 -78 -113q-50 -78 -88 -112q-55 -51 -118 -51q-3 0 -63 10t-65 10q-17 0 -22 -2q-17 -8 -29 -12q-4 7 -4 19q0 47 57 112q49 56 99 84q139 78 139 89q0 20 -42 20q-38 0 -63 -15q-3 -1 -7 3t-4 9
q0 18 17 39q11 10 22 21q32 38 98 38l129 -12q19 0 48 6q4 0 4 -7z" />
    <glyph glyph-name="braceleft" unicode="{" horiz-adv-x="542" 
d="M204 -6q86 0 151 57q23 20 95 111q51 66 96 78q-6 19 -26.5 32.5t-42.5 13.5q-48 0 -110 -51t-112 -51q-22 0 -42 12q-24 15 -24 35q0 19 39 23q54 5 72 15q39 22 39 85q0 56 -37.5 89t-93.5 33q-96 0 -156 -87q-53 -77 -53 -178q0 -98 53 -156q55 -61 152 -61z" />
    <glyph glyph-name="bar" unicode="|" horiz-adv-x="562" 
d="M593 350q0 -22 -115 -66q-129 -50 -142 -61q-23 -21 -50 -58l-5 6l9 43v64q0 91 -77 117l-11 5l16 3q22 0 61.5 -12t60.5 -12q38 0 63 29.5t25 67.5q0 12 -3 23q39 -16 47 -16q18 0 31 10h6q3 -1 2 -7q-86 -64 -86 -115q0 -26 16.5 -42t42.5 -16q24 0 54.5 12.5
t47.5 29.5h5zM322 262q-16 0 -16 -15t14 -15q17 0 17 15t-15 15z" />
    <glyph glyph-name="braceright" unicode="}" horiz-adv-x="560" 
d="M341 -6q-86 0 -151 57q-22 20 -94 111q-52 66 -97 78q6 19 27 32.5t42 13.5q49 0 111 -51t111 -51q22 0 44.5 13.5t22.5 33.5q0 19 -39 23q-54 5 -72 15q-39 22 -39 85q0 56 37.5 89t93.5 33q96 0 156 -87q52 -77 52 -178q0 -98 -52 -156q-55 -61 -153 -61z" />
    <glyph glyph-name="asciitilde" unicode="~" horiz-adv-x="502" 
d="M321 709q-35 0 -75 17.5t-76 17.5q-32 0 -93 -31q11 30 43.5 60.5t60.5 30.5q46 0 88 -14.5t77 -14.5q25 0 84 27q0 -32 -38 -62.5t-71 -30.5z" />
    <glyph glyph-name="Adieresis" unicode="&#xc4;" horiz-adv-x="794" 
d="M1116 604q-71 -94 -142 -187q-90 -132 -90 -203q0 -38 30 -38q21 0 49 16q-5 -59 -54 -125q-54 -71 -109 -71q-62 0 -62 73q0 38 24.5 96.5t24.5 57.5q0 8 -18 8q-50 0 -119 -63q-116 -107 -131 -118q-88 -63 -185 -63q-62 0 -104 17q-54 23 -91.5 78.5t-37.5 113.5
q0 97 76 165q73 66 171 66q43 0 89 -21q50 -23 69 -57q-17 -10 -33 -19.5t-16 -37.5q0 -30 28 -48q23 -15 55 -15q39 0 83 22q49 26 136 117q96 100 96 144q0 41 -54 41q-35 0 -68 -23q-36 -26 -36 -60q0 -20 13.5 -34t33.5 -14l1 -5q-44 -55 -114 -55q-61 0 -105 36
q-47 38 -47 97q0 91 87 139q71 41 169 41q89 0 201 -35q38 -13 75.5 -25.5t72.5 -12.5q15 0 32 2zM950 496q-21 1 -68 -56q-30 -38 -60 -77q-14 -13 -41 -38h57q56 74 112 171zM1128 787q0 -28 -32 -44q-26 -14 -57 -14q-51 0 -51 35q0 28 40 45q29 12 54 12q19 0 32.5 -10
t13.5 -24zM924 787q0 -28 -32 -44q-26 -14 -57 -14q-51 0 -51 35q0 28 40 45q29 12 54 12q19 0 32.5 -10t13.5 -24z" />
    <glyph glyph-name="Aring" unicode="&#xc5;" horiz-adv-x="794" 
d="M1116 604q-71 -94 -142 -187q-90 -132 -90 -203q0 -38 30 -38q21 0 49 16q-5 -59 -54 -125q-54 -71 -109 -71q-62 0 -62 73q0 38 24.5 96.5t24.5 57.5q0 8 -18 8q-50 0 -119 -63q-116 -107 -131 -118q-88 -63 -185 -63q-62 0 -104 17q-54 23 -91.5 78.5t-37.5 113.5
q0 97 76 165q73 66 171 66q43 0 89 -21q50 -23 69 -57q-17 -10 -33 -19.5t-16 -37.5q0 -30 28 -48q23 -15 55 -15q39 0 83 22q49 26 136 117q96 100 96 144q0 41 -54 41q-35 0 -68 -23q-36 -26 -36 -60q0 -20 13.5 -34t33.5 -14l1 -5q-44 -55 -114 -55q-61 0 -105 36
q-47 38 -47 97q0 91 87 139q71 41 169 41q89 0 201 -35q38 -13 75.5 -25.5t72.5 -12.5q15 0 32 2zM950 496q-21 1 -68 -56q-30 -38 -60 -77q-14 -13 -41 -38h57q56 74 112 171zM933 860q35 0 61 -23.5t26 -58.5t-26 -58.5t-61 -23.5t-61 23.5t-26 58.5t26 58.5t61 23.5z
M933 810q-16 0 -26.5 -9.5t-10.5 -22.5q0 -12 10.5 -22t26.5 -10t26.5 10t10.5 22q0 13 -10.5 22.5t-26.5 9.5z" />
    <glyph glyph-name="Ccedilla" unicode="&#xc7;" horiz-adv-x="726" 
d="M570 -8q-12 -27 -15 -37q60 -10 55 -61q-4 -35 -46 -55q-35 -16 -79 -16q-57 0 -68 34q17 28 22 28l10.5 -9t22.5 -9q27 0 39.5 8t12.5 36q0 27 -35 27q7 16 29 52q-75 8 -120 59t-45 131q0 93 51 176v6l-6 2q-63 -40 -80 -49q-47 -23 -90 -23q-53 0 -91 33t-38 85
q0 68 46 111.5t114 43.5q24 0 56 -20q-22 -18 -22 -37q0 -27 24 -45q21 -15 49 -15q58 0 139 58q142 103 152 109q100 58 204 58q50 0 83.5 -38t33.5 -89q0 -81 -71 -157t-151 -76q-42 0 -69 19q-31 22 -31 63q0 42 41 98q43 60 83 53q12 -24 19 -24q47 0 47 40q0 18 -14 32
t-31 14q-85 0 -168 -114q-78 -108 -78 -198q0 -49 34.5 -78.5t84.5 -29.5q81 0 153 53h13l3 -12q0 -63 -98 -144q-93 -76 -175 -93z" />
    <glyph glyph-name="Eacute" unicode="&#xc9;" horiz-adv-x="592" 
d="M857 578q0 -43 -42 -65q-30 -15 -66 -15q-47 0 -115.5 29.5t-70.5 29.5q-18 0 -18 -34q0 -28 33 -50.5t33 -32.5v-12q-1 -2 -14 -17h-74q-45 0 -89 -28q-51 -31 -51 -75q0 -30 22 -48q19 -15 47 -15q30 0 53 17q27 21 27 54q0 11 -3 22q6 8 23 14.5t29 6.5q50 0 79 -44
q22 -34 22 -76q0 -123 -118 -195q-96 -58 -206 -58q-89 0 -160 41q-92 54 -92 153q0 115 95 181q65 46 176 68q95 19 95 20q0 -1 -23.5 22t-23.5 56q0 20 7 36q11 23 12 28q-9 6 -24 6q-26 0 -44.5 -19.5t-18.5 -44.5q0 -33 44 -51q0 -18 -41 -33q-35 -13 -57 -13
q-48 0 -80 24q-39 28 -39 80q0 66 71 102q52 26 109 26q37 0 86 -13t46 -13l22 10q26 12 56 19q43 11 95 11q59 0 112 -20q76 -28 76 -84zM689 587v14q-21 17 -55 17q-47 0 -53 -18q49 -22 79 -22q15 0 29 9zM489 717q60 37 185 106l61 -62q-13 -4 -236 -65q-6 8 -10 21z
" />
    <glyph glyph-name="Ntilde" unicode="&#xd1;" horiz-adv-x="807" 
d="M1253 609q0 -46 -49.5 -103t-94.5 -57q-21 0 -29.5 18t-26.5 18q-56 0 -147 -121q-87 -116 -87 -175q0 -30 25.5 -38t25.5 -25q0 -42 -48 -87t-90 -45q-80 0 -80 109q0 14 70.5 158t70.5 172l-3 28q-6 0 -9 -6q-16 -39 -53 -116q-75 -140 -173 -237q-129 -125 -254 -125
q-88 0 -148 53q-63 55 -63 142q0 95 71.5 164t167.5 69q28 0 67 -11t60 -26q-2 -4 -19 -22q-10 -11 -10 -30q0 -56 76 -56q68 0 152 75t84 142q0 40 -37 40q-54 0 -54 -34q0 -5 -1 -14q-1 -6 0 -10q1 -5 5 -11q1 -2 10.5 -7.5t9.5 -8.5q0 -25 -35 -45q-31 -18 -59 -18
q-52 0 -83.5 35t-31.5 87q0 87 70 141q64 50 153 50q75 0 125 -38q54 -41 54 -114q0 -48 -56 -173.5t-56 -136.5l9 -26q3 2 15.5 32.5t54.5 102.5q194 340 354 340q67 0 67 -60zM991 709q-35 0 -75 17.5t-76 17.5q-32 0 -93 -31q11 30 43.5 60.5t60.5 30.5q46 0 88 -14.5
t77 -14.5q25 0 84 27q0 -32 -38 -62.5t-71 -30.5z" />
    <glyph glyph-name="Odieresis" unicode="&#xd6;" horiz-adv-x="706" 
d="M937 581q0 -94 -70 -235q-73 -147 -176 -246q-117 -113 -228 -113q-78 0 -119 43t-41 117q0 41 9 70q18 55 21 68q-54 -35 -59 -37q-47 -26 -89 -26q-48 0 -78 30t-30 76q0 58 49 105t108 47q10 0 25 -6q-14 -25 -14 -39q0 -50 64 -50q46 0 107 49l104 90q62 48 110 48
h20q-62 -62 -104 -131q-51 -83 -51 -147q0 -72 69 -72q57 0 113 62t56 119q0 17 -9 29q-11 16 -31 16q-25 0 -45 -19q0 2 -5 3t-5 4q0 73 62 153q69 88 150 88q39 0 63 -29.5t24 -66.5zM928 787q0 -28 -32 -44q-26 -14 -57 -14q-51 0 -51 35q0 28 40 45q29 12 54 12
q19 0 32.5 -10t13.5 -24zM724 787q0 -28 -32 -44q-26 -14 -57 -14q-51 0 -51 35q0 28 40 45q29 12 54 12q19 0 32.5 -10t13.5 -24z" />
    <glyph glyph-name="Udieresis" unicode="&#xdc;" horiz-adv-x="563" 
d="M827 595q0 -27 -62 -110q-58 -76 -115 -153q-62 -90 -62 -136q0 -35 29 -35q6 0 16.5 1t15.5 1q3 -6 3 -11q0 -48 -55.5 -108t-102.5 -60q-51 0 -51 64q0 22 6 49l-2 2q-5 0 -35 -29q-36 -36 -64 -55q-46 -29 -91 -29q-88 0 -88 88q0 70 76 172l140 170q76 93 76 143
q0 45 -49 45q-36 0 -71.5 -33t-35.5 -69q0 -39 38 -39q6 0 12 2v-11q0 -7 -22 -44t-29 -45q-60 -65 -124 -65q-43 0 -67.5 24.5t-24.5 67.5q0 64 53 136q108 145 295 145q53 0 86 -21q39 -25 39 -76q0 -47 -34 -103q-33 -44 -65 -88q-35 -47 -35 -76q0 -28 29 -28
q52 0 114 92q51 86 103 172q60 92 110 92q44 0 44 -42zM848 767q0 -28 -32 -44q-26 -14 -57 -14q-51 0 -51 35q0 28 40 45q29 12 54 12q19 0 32.5 -10t13.5 -24zM644 767q0 -28 -32 -44q-26 -14 -57 -14q-51 0 -51 35q0 28 40 45q29 12 54 12q19 0 32.5 -10t13.5 -24z" />
    <glyph glyph-name="aacute" unicode="&#xe1;" 
d="M536 282q-53 -83 -107 -166q-81 -117 -136 -117q-42 0 -42 52q0 13 3 28l-2 7q-31 -29 -62 -57q-43 -36 -71 -36t-46 26q-16 22 -16 51q0 -3 7 34q18 89 105 188q95 108 178 108q30 0 38 -10l6 -14q5 -10 10 -10l17 15.5t34 15.5q29 0 29 -19q0 -17 -49 -66.5t-49 -70.5
q0 -28 19 -36q8 -3 30 -3q25 0 56 31q24 24 48 49zM334 324q-9 9 -20 9q-27 0 -62 -39.5t-35 -65.5q0 -8 6.5 -16t14.5 -8q24 0 61 43t37 69q0 4 -2 8zM314 456q48 29 147 84l49 -49q-10 -4 -188 -52q-5 6 -8 17z" />
    <glyph glyph-name="agrave" unicode="&#xe0;" 
d="M543 282q-53 -83 -107 -166q-81 -117 -136 -117q-42 0 -42 52q0 13 3 28l-2 7q-31 -29 -62 -57q-43 -36 -71 -36t-46 26q-16 22 -16 51q0 -3 7 34q18 89 105 188q95 108 178 108q30 0 38 -10l6 -14q5 -10 10 -10l17 15.5t35 15.5q28 0 28 -19q0 -17 -48.5 -66.5
t-48.5 -70.5q0 -28 19 -36q7 -3 30 -3q24 0 55 31q24 24 48 49zM341 324q-9 9 -20 9q-26 0 -61.5 -39.5t-35.5 -65.5q0 -8 6.5 -16t14.5 -8q24 0 61 43t37 69q0 4 -2 8zM514 436q-48 29 -148 84l-49 -49q11 -4 189 -52q5 6 8 17z" />
    <glyph glyph-name="acircumflex" unicode="&#xe2;" 
d="M536 282q-53 -83 -107 -166q-81 -117 -136 -117q-42 0 -42 52q0 13 3 28l-2 7q-31 -29 -62 -57q-43 -36 -71 -36t-46 26q-16 22 -16 51q0 -3 7 34q18 89 105 188q95 108 178 108q30 0 38 -10l6 -14q5 -10 10 -10l17 15.5t34 15.5q29 0 29 -19q0 -17 -49 -66.5t-49 -70.5
q0 -28 19 -36q8 -3 30 -3q25 0 56 31q24 24 48 49zM334 324q-9 9 -20 9q-27 0 -62 -39.5t-35 -65.5q0 -8 6.5 -16t14.5 -8q24 0 61 43t37 69q0 4 -2 8zM260 427l148 100q57 -39 128 -94l-9 -8l-125 39l-131 -43z" />
    <glyph glyph-name="adieresis" unicode="&#xe4;" 
d="M536 282q-53 -83 -107 -166q-81 -117 -136 -117q-42 0 -42 52q0 13 3 28l-2 7q-31 -29 -62 -57q-43 -36 -71 -36t-46 26q-16 22 -16 51q0 -3 7 34q18 89 105 188q95 108 178 108q30 0 38 -10l6 -14q5 -10 10 -10l17 15.5t34 15.5q29 0 29 -19q0 -17 -49 -66.5t-49 -70.5
q0 -28 19 -36q8 -3 30 -3q25 0 56 31q24 24 48 49zM334 324q-9 9 -20 9q-27 0 -62 -39.5t-35 -65.5q0 -8 6.5 -16t14.5 -8q24 0 61 43t37 69q0 4 -2 8zM574 484q0 -22 -26 -35q-20 -10 -45 -10q-41 0 -41 28q0 22 31 35q24 10 44 10q37 0 37 -28zM410 484q0 -22 -25 -35
q-21 -10 -46 -10q-40 0 -40 28q0 22 31 35q23 10 44 10q36 0 36 -28z" />
    <glyph glyph-name="atilde" unicode="&#xe3;" 
d="M536 282q-53 -83 -107 -166q-81 -117 -136 -117q-42 0 -42 52q0 13 3 28l-2 7q-31 -29 -62 -57q-43 -36 -71 -36t-46 26q-16 22 -16 51q0 -3 7 34q18 89 105 188q95 108 178 108q30 0 38 -10l6 -14q5 -10 10 -10l17 15.5t34 15.5q29 0 29 -19q0 -17 -49 -66.5t-49 -70.5
q0 -28 19 -36q8 -3 30 -3q25 0 56 31q24 24 48 49zM334 324q-9 9 -20 9q-27 0 -62 -39.5t-35 -65.5q0 -8 6.5 -16t14.5 -8q24 0 61 43t37 69q0 4 -2 8zM488 459q-28 0 -60.5 13.5t-60.5 13.5q-26 0 -75 -24q9 23 35 48t49 25q36 0 70 -12t61 -12q21 0 67 22q0 -25 -30 -49.5
t-56 -24.5z" />
    <glyph glyph-name="aring" unicode="&#xe5;" 
d="M536 282q-53 -83 -107 -166q-81 -117 -136 -117q-42 0 -42 52q0 13 3 28l-2 7q-31 -29 -62 -57q-43 -36 -71 -36t-46 26q-16 22 -16 51q0 -3 7 34q18 89 105 188q95 108 178 108q30 0 38 -10l6 -14q5 -10 10 -10l17 15.5t34 15.5q29 0 29 -19q0 -17 -49 -66.5t-49 -70.5
q0 -28 19 -36q8 -3 30 -3q25 0 56 31q24 24 48 49zM334 324q-9 9 -20 9q-27 0 -62 -39.5t-35 -65.5q0 -8 6.5 -16t14.5 -8q24 0 61 43t37 69q0 4 -2 8zM413 564q28 0 48.5 -19t20.5 -47t-20.5 -46.5t-48.5 -18.5t-48.5 18.5t-20.5 46.5t20.5 47t48.5 19zM413 524
q-29 0 -29 -26q0 -25 29 -25t29 25q0 26 -29 26z" />
    <glyph glyph-name="ccedilla" unicode="&#xe7;" horiz-adv-x="295" 
d="M179 -4q-10 -21 -13 -29q49 -7 45 -48q-4 -28 -37 -44q-28 -13 -64 -13q-45 0 -54 27q14 23 18 23l8 -7.5t18 -7.5q42 0 42 35q0 22 -28 22q6 14 27 47q-47 19 -47 78q0 90 93 205q96 119 184 119q18 0 36 -12.5t18 -31.5q0 -27 -25.5 -56t-52.5 -29q-22 0 -28 14
q-3 6 -5 32q0 10 -5 10q-13 0 -38 -35t-25 -50q0 -30 9.5 -41.5t39.5 -11.5q87 0 168 86q-16 -16 -30 -43q-48 -88 -103 -148q-78 -86 -151 -91z" />
    <glyph glyph-name="eacute" unicode="&#xe9;" horiz-adv-x="266" 
d="M473 279q-59 -84 -118 -167q-89 -110 -167 -110q-37 0 -59 24.5t-22 62.5q0 84 76.5 185.5t157.5 123.5q28 8 29 8q27 0 46 -16.5t19 -42.5q0 -19 -17 -43.5t-34 -31.5q-39 -8 -77 -16q-54 -13 -54 -35q0 -31 54 -31q74 0 166 89zM354 331q0 6 -4 15q-2 0 -7.5 2t-8.5 2
q-13 0 -40 -20t-27 -32q0 -7 3 -7h12q9 0 36 9.5t31.5 16t4.5 14.5zM314 456q48 29 147 84l49 -49q-10 -4 -188 -52q-5 6 -8 17z" />
    <glyph glyph-name="egrave" unicode="&#xe8;" horiz-adv-x="266" 
d="M473 279q-59 -84 -118 -167q-89 -110 -167 -110q-37 0 -59 24.5t-22 62.5q0 84 76.5 185.5t157.5 123.5q28 8 29 8q27 0 46 -16.5t19 -42.5q0 -19 -17 -43.5t-34 -31.5q-39 -8 -77 -16q-54 -13 -54 -35q0 -31 54 -31q74 0 166 89zM354 331q0 6 -4 15q-2 0 -7.5 2t-8.5 2
q-13 0 -40 -20t-27 -32q0 -7 3 -7h12q9 0 36 9.5t31.5 16t4.5 14.5zM507 436q-48 29 -148 84l-49 -49q11 -4 189 -52q5 6 8 17z" />
    <glyph glyph-name="ecircumflex" unicode="&#xea;" horiz-adv-x="266" 
d="M473 279q-59 -84 -118 -167q-89 -110 -167 -110q-37 0 -59 24.5t-22 62.5q0 84 76.5 185.5t157.5 123.5q28 8 29 8q27 0 46 -16.5t19 -42.5q0 -19 -17 -43.5t-34 -31.5q-39 -8 -77 -16q-54 -13 -54 -35q0 -31 54 -31q74 0 166 89zM354 331q0 6 -4 15q-2 0 -7.5 2t-8.5 2
q-13 0 -40 -20t-27 -32q0 -7 3 -7h12q9 0 36 9.5t31.5 16t4.5 14.5zM260 427l148 100q57 -39 128 -94l-9 -8l-125 39l-131 -43z" />
    <glyph glyph-name="edieresis" unicode="&#xeb;" horiz-adv-x="266" 
d="M473 279q-59 -84 -118 -167q-89 -110 -167 -110q-37 0 -59 24.5t-22 62.5q0 84 76.5 185.5t157.5 123.5q28 8 29 8q27 0 46 -16.5t19 -42.5q0 -19 -17 -43.5t-34 -31.5q-39 -8 -77 -16q-54 -13 -54 -35q0 -31 54 -31q74 0 166 89zM354 331q0 6 -4 15q-2 0 -7.5 2t-8.5 2
q-13 0 -40 -20t-27 -32q0 -7 3 -7h12q9 0 36 9.5t31.5 16t4.5 14.5zM564 484q0 -22 -26 -35q-20 -10 -45 -10q-41 0 -41 28q0 22 31 35q24 10 44 10q37 0 37 -28zM400 484q0 -22 -25 -35q-21 -10 -46 -10q-40 0 -40 28q0 22 31 35q23 10 44 10q36 0 36 -28z" />
    <glyph glyph-name="iacute" unicode="&#xed;" horiz-adv-x="197" 
d="M371 255q-116 -208 -207 -252q-3 -3 -6 -5q-5 -5 -9 -5t-14.5 -1.5t-14.5 -1.5q-26 0 -42 20t-16 44q0 40 35 97q18 28 69 90q39 49 43 65t3 22l-7 25q0 1 3 13q40 32 94 32q31 0 31 -17q0 -11 -50 -71t-50 -86q0 -28 31 -28q3 0 10 4q16 -3 48.5 16.5t48.5 38.5z
M244 456q48 29 147 84l49 -49q-10 -4 -188 -52q-5 6 -8 17z" />
    <glyph glyph-name="igrave" unicode="&#xec;" horiz-adv-x="197" 
d="M371 255q-116 -208 -207 -252q-3 -3 -6 -5q-5 -5 -9 -5t-14.5 -1.5t-14.5 -1.5q-26 0 -42 20t-16 44q0 40 35 97q18 28 69 90q39 49 43 65t3 22l-7 25q0 1 3 13q40 32 94 32q31 0 31 -17q0 -11 -50 -71t-50 -86q0 -28 31 -28q3 0 10 4q16 -3 48.5 16.5t48.5 38.5z
M417 436q-48 29 -148 84l-49 -49q11 -4 189 -52q5 6 8 17z" />
    <glyph glyph-name="icircumflex" unicode="&#xee;" horiz-adv-x="197" 
d="M371 255q-116 -208 -207 -252q-3 -3 -6 -5q-5 -5 -9 -5t-14.5 -1.5t-14.5 -1.5q-26 0 -42 20t-16 44q0 40 35 97q18 28 69 90q39 49 43 65t3 22l-7 25q0 1 3 13q40 32 94 32q31 0 31 -17q0 -11 -50 -71t-50 -86q0 -28 31 -28q3 0 10 4q16 -3 48.5 16.5t48.5 38.5z
M180 427l148 100q57 -39 128 -94l-9 -8l-125 39l-131 -43z" />
    <glyph glyph-name="idieresis" unicode="&#xef;" horiz-adv-x="197" 
d="M371 255q-116 -208 -207 -252q-3 -3 -6 -5q-5 -5 -9 -5t-14.5 -1.5t-14.5 -1.5q-26 0 -42 20t-16 44q0 40 35 97q18 28 69 90q39 49 43 65t3 22l-7 25q0 1 3 13q40 32 94 32q31 0 31 -17q0 -11 -50 -71t-50 -86q0 -28 31 -28q3 0 10 4q16 -3 48.5 16.5t48.5 38.5z
M474 484q0 -22 -26 -35q-20 -10 -45 -10q-41 0 -41 28q0 22 31 35q24 10 44 10q37 0 37 -28zM310 484q0 -22 -25 -35q-21 -10 -46 -10q-40 0 -40 28q0 22 31 35q23 10 44 10q36 0 36 -28z" />
    <glyph glyph-name="ntilde" unicode="&#xf1;" horiz-adv-x="395" 
d="M571 267q-51 -82 -103 -163q-89 -123 -165 -123q-27 0 -42 18t-15 43q0 42 38 99q13 19 71 89q38 47 38 64q0 21 -26 21q-22 0 -50 -29q-20 -22 -39 -44q-31 -32 -72 -111q-46 -89 -72 -122q-19 -25 -55 -25q-45 0 -45 45q0 42 49 102q40 45 115 139q13 18 35 53
q4 20 11 59q39 29 84 29q24 0 24 -13q0 -5 -3.5 -14t-3.5 -12q0 -6 9 -6q-1 0 36 22.5t74 22.5q54 0 54 -45q0 -27 -43.5 -78t-43.5 -71q0 -24 27 -24q33 0 67 30zM488 459q-28 0 -60.5 13.5t-60.5 13.5q-26 0 -75 -24q9 23 35 48t49 25q36 0 70 -12t61 -12q21 0 67 22
q0 -25 -30 -49.5t-56 -24.5z" />
    <glyph glyph-name="oacute" unicode="&#xf3;" horiz-adv-x="347" 
d="M484 332q0 -62 -55 -158q-44 -77 -81 -111q-17 -17 -54 -45q-68 -37 -106 -37q-15 0 -43 10q-13 4 -28.5 24t-16.5 33q-1 7 -1 34q0 87 64 176q62 84 152 134q41 22 90 22q79 0 79 -82zM403 318q0 12 -9 21t-21 9q-31 0 -66 -44t-35 -71q0 -14 10 -24t24 -10
q30 0 63.5 41.5t33.5 77.5zM314 456q48 29 147 84l49 -49q-10 -4 -188 -52q-5 6 -8 17z" />
    <glyph glyph-name="ograve" unicode="&#xf2;" horiz-adv-x="347" 
d="M484 332q0 -62 -55 -158q-44 -77 -81 -111q-17 -17 -54 -45q-68 -37 -106 -37q-15 0 -43 10q-13 4 -28.5 24t-16.5 33q-1 7 -1 34q0 87 64 176q62 84 152 134q41 22 90 22q79 0 79 -82zM403 318q0 12 -9 21t-21 9q-31 0 -66 -44t-35 -71q0 -14 10 -24t24 -10
q30 0 63.5 41.5t33.5 77.5zM507 436q-48 29 -148 84l-49 -49q11 -4 189 -52q5 6 8 17z" />
    <glyph glyph-name="ocircumflex" unicode="&#xf4;" horiz-adv-x="347" 
d="M484 332q0 -62 -55 -158q-44 -77 -81 -111q-17 -17 -54 -45q-68 -37 -106 -37q-15 0 -43 10q-13 4 -28.5 24t-16.5 33q-1 7 -1 34q0 87 64 176q62 84 152 134q41 22 90 22q79 0 79 -82zM403 318q0 12 -9 21t-21 9q-31 0 -66 -44t-35 -71q0 -14 10 -24t24 -10
q30 0 63.5 41.5t33.5 77.5zM260 427l148 100q57 -39 128 -94l-9 -8l-125 39l-131 -43z" />
    <glyph glyph-name="odieresis" unicode="&#xf6;" horiz-adv-x="347" 
d="M484 332q0 -62 -55 -158q-44 -77 -81 -111q-17 -17 -54 -45q-68 -37 -106 -37q-15 0 -43 10q-13 4 -28.5 24t-16.5 33q-1 7 -1 34q0 87 64 176q62 84 152 134q41 22 90 22q79 0 79 -82zM403 318q0 12 -9 21t-21 9q-31 0 -66 -44t-35 -71q0 -14 10 -24t24 -10
q30 0 63.5 41.5t33.5 77.5zM574 484q0 -22 -26 -35q-20 -10 -45 -10q-41 0 -41 28q0 22 31 35q24 10 44 10q37 0 37 -28zM410 484q0 -22 -25 -35q-21 -10 -46 -10q-40 0 -40 28q0 22 31 35q23 10 44 10q36 0 36 -28z" />
    <glyph glyph-name="otilde" unicode="&#xf5;" horiz-adv-x="347" 
d="M484 332q0 -62 -55 -158q-44 -77 -81 -111q-17 -17 -54 -45q-68 -37 -106 -37q-15 0 -43 10q-13 4 -28.5 24t-16.5 33q-1 7 -1 34q0 87 64 176q62 84 152 134q41 22 90 22q79 0 79 -82zM403 318q0 12 -9 21t-21 9q-31 0 -66 -44t-35 -71q0 -14 10 -24t24 -10
q30 0 63.5 41.5t33.5 77.5zM488 459q-28 0 -60.5 13.5t-60.5 13.5q-26 0 -75 -24q9 23 35 48t49 25q36 0 70 -12t61 -12q21 0 67 22q0 -25 -30 -49.5t-56 -24.5z" />
    <glyph glyph-name="uacute" unicode="&#xfa;" horiz-adv-x="360" 
d="M544 275q-25 -42 -78 -136q-15 -30 -62 -84q-59 -70 -88 -70q-3 0 -9 -1.5t-10 -1.5q-3 0 -7.5 3t-8.5 3q-20 0 -28 27q-3 17 -7 34q-30 -22 -59 -44q-36 -23 -70 -23q-60 0 -60 60q0 53 67 144q45 60 90 121q6 10 6 25q0 2 -2 10.5t-2 12.5q6 11 21 19q54 27 81 27
q20 0 20 -20q0 -11 -51 -76t-51 -86q0 -20 20 -20q29 0 67 52q18 29 37 59q17 23 23 36q9 20 35 37.5t44 17.5q13 0 22.5 -8t9.5 -18q0 -17 -45.5 -74.5t-45.5 -81.5q0 -29 28 -29q24 0 63 31q36 29 50 54zM314 456q48 29 147 84l49 -49q-10 -4 -188 -52q-5 6 -8 17z" />
    <glyph glyph-name="ugrave" unicode="&#xf9;" horiz-adv-x="360" 
d="M544 275q-25 -42 -78 -136q-15 -30 -62 -84q-59 -70 -88 -70q-3 0 -9 -1.5t-10 -1.5q-3 0 -7.5 3t-8.5 3q-20 0 -28 27q-3 17 -7 34q-30 -22 -59 -44q-36 -23 -70 -23q-60 0 -60 60q0 53 67 144q45 60 90 121q6 10 6 25q0 2 -2 10.5t-2 12.5q6 11 21 19q54 27 81 27
q20 0 20 -20q0 -11 -51 -76t-51 -86q0 -20 20 -20q29 0 67 52q18 29 37 59q17 23 23 36q9 20 35 37.5t44 17.5q13 0 22.5 -8t9.5 -18q0 -17 -45.5 -74.5t-45.5 -81.5q0 -29 28 -29q24 0 63 31q36 29 50 54zM497 436q-48 29 -148 84l-49 -49q11 -4 189 -52q5 6 8 17z" />
    <glyph glyph-name="ucircumflex" unicode="&#xfb;" horiz-adv-x="360" 
d="M544 275q-25 -42 -78 -136q-15 -30 -62 -84q-59 -70 -88 -70q-3 0 -9 -1.5t-10 -1.5q-3 0 -7.5 3t-8.5 3q-20 0 -28 27q-3 17 -7 34q-30 -22 -59 -44q-36 -23 -70 -23q-60 0 -60 60q0 53 67 144q45 60 90 121q6 10 6 25q0 2 -2 10.5t-2 12.5q6 11 21 19q54 27 81 27
q20 0 20 -20q0 -11 -51 -76t-51 -86q0 -20 20 -20q29 0 67 52q18 29 37 59q17 23 23 36q9 20 35 37.5t44 17.5q13 0 22.5 -8t9.5 -18q0 -17 -45.5 -74.5t-45.5 -81.5q0 -29 28 -29q24 0 63 31q36 29 50 54zM260 427l148 100q57 -39 128 -94l-9 -8l-125 39l-131 -43z" />
    <glyph glyph-name="udieresis" unicode="&#xfc;" horiz-adv-x="360" 
d="M544 275q-25 -42 -78 -136q-15 -30 -62 -84q-59 -70 -88 -70q-3 0 -9 -1.5t-10 -1.5q-3 0 -7.5 3t-8.5 3q-20 0 -28 27q-3 17 -7 34q-30 -22 -59 -44q-36 -23 -70 -23q-60 0 -60 60q0 53 67 144q45 60 90 121q6 10 6 25q0 2 -2 10.5t-2 12.5q6 11 21 19q54 27 81 27
q20 0 20 -20q0 -11 -51 -76t-51 -86q0 -20 20 -20q29 0 67 52q18 29 37 59q17 23 23 36q9 20 35 37.5t44 17.5q13 0 22.5 -8t9.5 -18q0 -17 -45.5 -74.5t-45.5 -81.5q0 -29 28 -29q24 0 63 31q36 29 50 54zM554 484q0 -22 -26 -35q-20 -10 -45 -10q-41 0 -41 28q0 22 31 35
q24 10 44 10q37 0 37 -28zM390 484q0 -22 -25 -35q-21 -10 -46 -10q-40 0 -40 28q0 22 31 35q23 10 44 10q36 0 36 -28z" />
    <glyph glyph-name="dagger" unicode="&#x2020;" horiz-adv-x="16" 
 />
    <glyph glyph-name="degree" unicode="&#xb0;" horiz-adv-x="653" 
d="M494 629q48 0 82 -34t34 -82t-34 -81.5t-82 -33.5t-82 33.5t-34 81.5t34 82t82 34zM494 579q-27 0 -46.5 -19.5t-19.5 -46.5t19.5 -46t46.5 -19t46.5 19t19.5 46t-19.5 46.5t-46.5 19.5z" />
    <glyph glyph-name="cent" unicode="&#xa2;" horiz-adv-x="298" 
d="M375 450l-1 10q0 10 -5 10q-12 0 -38 -31q-21 -27 -30 -45t-9 -30q0 -21 20 -23zM475 375q-7 -7 -22 -43q-18 -43 -19 -46q-42 -78 -77 -108q-49 -43 -127 -42h-3l-25 -43h-33l29 50q-44 19 -44 76q0 89 93.5 205.5t180.5 118.5l35 61h33l-39 -68q28 -13 28 -37
q0 -27 -25.5 -56t-52.5 -29q-11 0 -18 3l-52 -89h11q38 0 65 14q31 17 62 33z" />
    <glyph glyph-name="sterling" unicode="&#xa3;" horiz-adv-x="658" 
d="M711 523q0 -41 -31 -72.5t-71 -31.5q-12 0 -31 8q-23 8 -26 19q12 16 12 26q0 25 -31 25q-35 0 -85 -60q-47 -56 -43 -75q12 -7 33 -7h18h27q0 -1 1.5 -3.5t1.5 -6.5q0 -13 -24 -45q-20 -28 -24 -30q-13 -7 -29 -7q-3 0 -12 1.5t-13 1.5q-20 0 -41 -6q-9 -3 -27.5 -28.5
t-18.5 -34.5q0 -4 7 -12h91q4 1 55.5 -5t54.5 -6q74 0 101 45q10 -9 10 -35q0 -58 -38.5 -114t-95.5 -75q-26 -10 -92 -10q-42 0 -120 10q-33 6 -66 13q-57 11 -90 11q-54 0 -90 -25h-13v12q0 20 40 78q26 38 78 86q56 52 79 81q0 4 -7 9q-10 0 -51 7l-1.5 2.5t-1.5 6.5
q0 16 26 45q22 26 28 27.5t72 4.5q11 0 28 29q9 17 58 85q12 15 33 42q38 47 95.5 74.5t113.5 27.5q110 0 110 -88z" />
    <glyph glyph-name="section" unicode="&#xa7;" horiz-adv-x="861" 
d="M831 139q0 -33 -10 -70q-4 -16 -23 -46q-21 -34 -32 -34l-24 16q-46 29 -141 29q-58 0 -172.5 -24t-173.5 -24q-162 0 -162 117q0 91 84 195q88 109 177 109q24 0 41.5 -15.5t17.5 -39.5q0 -36 -31 -64.5t-67 -28.5q-82 0 -82 -37q0 -13 14 -22t28 -9q11 0 51 16
q76 36 151 71q83 39 163 39q87 0 139 -46t52 -132zM331 333q0 15 -19 15q-13 0 -39 -18t-26 -29v-9h18q17 0 41.5 12.5t24.5 28.5z" />
    <glyph glyph-name="bullet" unicode="&#x2022;" horiz-adv-x="540" 
d="M236 276q0 53 37.5 91t91.5 38q53 0 91 -38t38 -91q0 -54 -38 -92t-91 -38q-54 0 -91.5 38t-37.5 92z" />
    <glyph glyph-name="paragraph" unicode="&#xb6;" horiz-adv-x="541" 
d="M629 361q0 -20 -31 -60q-26 -35 -45.5 -49.5t-61.5 -35.5q-17 0 -47 -11q-8 -6 -43 -69q-32 -59 -97 -105t-118 -46q-23 0 -39 7q-24 9 -39.5 34t-15.5 54q0 99 97 214q103 121 209 121q81 0 81 -86q0 -11 -1 -23q-1 -14 29 -14q35 0 62 28q49 47 53 50q7 -7 7 -9z
M384 332v10q-13 7 -19 7q-34 0 -69 -46q-31 -42 -31 -67q0 -33 36 -33q21 0 37 13q8 5 18 18q0 23 2 60q7 24 26 38z" />
    <glyph glyph-name="germandbls" unicode="&#xdf;" horiz-adv-x="536" 
d="M672 476q-12 -125 -135 -158q12 -27 24 -53q15 -36 12 -61q-9 -100 -75 -162q-58 -55 -125 -54q-132 3 -132 129q0 13 1 28q6 61 45 99q35 34 78 33q11 0 25.5 -7t14.5 -16q0 -3 -3 -7q-17 -20 -19 -37q-2 -24 39 -25q16 0 32.5 28.5t19.5 54.5q2 25 -13.5 44t-32.5 19
q6 43 43 56q31 8 63 16q33 14 33 61q7 84 -59 84q-15 0 -34 -4q-59 -14 -183 -213q-83 -143 -166 -285q-67 -44 -90 -44q-10 0 -10 9q0 3 2 7q79 135 141 236q149 243 189 281q97 90 176 89q140 -3 140 -126q0 -11 -1 -22z" />
    <glyph glyph-name="registered" unicode="&#xae;" horiz-adv-x="425" 
d="M182 322q-75 0 -128 54t-53 130q0 75 53 128t128 53t127.5 -53.5t52.5 -129.5q0 -75 -52.5 -128.5t-127.5 -53.5zM182 643q-58 1 -97 -39.5t-39 -99.5q0 -57 40.5 -98t95.5 -41t95 41t40 98t-40 97t-95 42zM187 600q11 4 32 -2q36 -11 36 -46q0 -45 -44 -54l49 -76h-45
l-49 75h-15v-75h-38v178h74zM188 568h-39v-29h44q25 0 25 18q0 11 -30 11z" />
    <glyph glyph-name="copyright" unicode="&#xa9;" horiz-adv-x="814" 
d="M366 -21q-149 0 -253 104.5t-104 254.5t104 255t253 105t253.5 -105t104.5 -255t-104.5 -254.5t-253.5 -104.5zM366 625q-116 0 -200.5 -84t-84.5 -203t84.5 -202.5t200.5 -83.5t200.5 83.5t84.5 202.5t-84.5 203t-200.5 84zM477 397q-23 81 -101 81q-60 0 -95 -39
t-35 -100q0 -55 31 -94q35 -43 97 -43q83 0 103 79h74q-17 -75 -63.5 -113.5t-112.5 -38.5q-92 0 -147 60t-55 152q0 89 56 150t147 61q65 0 112 -39q50 -42 63 -116h-74z" />
    <glyph glyph-name="trademark" unicode="&#x2122;" horiz-adv-x="492" 
d="M377 607l-56 -140h-27l-52 134v-134h-43v211h58l51 -129l52 129h59v-211h-42v140zM103 634v-167h-43v167h-66v44h173v-44h-64z" />
    <glyph glyph-name="acute" unicode="&#xb4;" horiz-adv-x="502" 
d="M139 717q60 37 185 106l61 -62q-13 -4 -236 -65q-6 8 -10 21z" />
    <glyph glyph-name="dieresis" unicode="&#xa8;" horiz-adv-x="502" 
d="M428 787q0 -28 -32 -44q-26 -14 -57 -14q-51 0 -51 35q0 28 40 45q29 12 54 12q19 0 32.5 -10t13.5 -24zM224 787q0 -28 -32 -44q-26 -14 -57 -14q-51 0 -51 35q0 28 40 45q29 12 54 12q19 0 32.5 -10t13.5 -24z" />
    <glyph glyph-name="AE" unicode="&#xc6;" horiz-adv-x="1299" 
d="M1418 585v13q-21 17 -54 17q-47 0 -53 -18q48 -22 79 -22q14 0 28 10zM1099 607q-20 -28 -58 -98q-44 -80 -69 -119q60 29 144 45q66 12 66 14q0 -1 -23.5 22t-23.5 56q0 20 7 36q11 23 12 28q-4 2 28 26.5t31 24.5t21.5 11t51.5 18q41 11 93 11q59 0 112 -20
q76 -28 76 -84q0 -43 -42 -65q-30 -15 -66 -15q-47 0 -115.5 29.5t-70.5 29.5q-18 0 -18 -34q0 -28 33 -50.5t33 -32.5v-12q-1 -2 -14 -17h-74q-45 0 -89 -28q-51 -31 -51 -75q0 -30 22 -48q19 -15 47 -15q30 0 53 17q27 21 27 54q0 11 -3 22q6 8 23 14.5t29 6.5
q50 0 79 -44q22 -34 22 -76q0 -123 -118 -195q-96 -58 -206 -58q-107 0 -181 55q-52 57 -52 129q0 35 14 67q0 2 -8 2q-12 0 -42 -4l-30 -4q-50 0 -119 -63q-116 -107 -131 -118q-88 -63 -185 -63q-62 0 -104 17q-54 23 -91.5 78.5t-37.5 113.5q0 97 76 165q73 66 171 66
q43 0 89 -21q50 -23 69 -57q-17 -10 -33 -19.5t-16 -37.5q0 -30 28 -48q23 -15 55 -15q39 0 83 22q49 26 136 117q96 100 96 144q0 41 -54 41q-35 0 -68 -23q-36 -26 -36 -60q0 -20 13.5 -34t33.5 -14l1 -5q-44 -55 -114 -55q-61 0 -105 36q-47 38 -47 97q0 91 87 139
q71 41 169 41q89 0 201 -35q34 -13 68 -25q30 -11 61 -11q15 0 34 3zM950 496q-21 1 -68 -56q-30 -38 -60 -77q-14 -13 -41 -38l93 14q26 61 37 82q16 34 39 75z" />
    <glyph glyph-name="Oslash" unicode="&#xd8;" horiz-adv-x="706" 
d="M686 447l-145 -222q10 -3 23 -3q57 0 113 62t56 119q0 17 -9 29q-11 16 -31 16q-3 0 -7 -1zM837 734h35l-38 -58q8 1 16 1q39 0 63 -29.5t24 -66.5q0 -94 -70 -235q-73 -147 -176 -246q-117 -113 -228 -113q-39 0 -70 11l-46 -71h-36l56 85q-64 41 -64 135q0 41 9 70
q18 55 21 68q-54 -35 -59 -37q-47 -26 -89 -26q-48 0 -78 30t-30 76q0 58 49 105t108 47q10 0 25 -6q-14 -25 -14 -39q0 -50 64 -50q46 0 107 49q52 45 104 89q62 49 110 49h20q-62 -62 -104 -131q-51 -83 -51 -147q0 -39 19 -56l127 195q-3 1 -3 3q0 57 44 126
q46 74 109 102z" />
    <glyph glyph-name="plusminus" unicode="&#xb1;" horiz-adv-x="23" 
 />
    <glyph glyph-name="yen" unicode="&#xa5;" horiz-adv-x="763" 
d="M285 268h129q11 21 18 34q21 39 21 87q0 22 -12 39.5t-34 17.5q-20 0 -38 -15t-18 -38t23 -40q-3 -7 -18.5 -13t-25.5 -6q-44 0 -72 36q-26 32 -26 73q0 78 61 129q57 48 133 48q37 0 43 -2q10 -3 21 -7q30 -9 52 -41q20 -28 24 -58q2 -12 0 -31q-3 -23 -3 -27
q0 -9 3 -13q50 71 111 117q71 54 134 54q48 0 76 -27.5t28 -71.5q0 -51 -38 -95q-40 -47 -92 -47q-31 0 -43 8q-22 14 -30 62q-42 1 -92 -53q-42 -46 -78 -120h117l-20 -47h-119q-2 -8 -8 -23l-14 -30h121l-20 -47h-122l-56 -123h-133q13 28 56 123h-124l20 47h126
q14 29 25 53h-126z" />
    <glyph glyph-name="mu" unicode="&#xb5;" horiz-adv-x="583" 
d="M871 590q0 -107 -93 -150q-62 -29 -146 -24q-8 0 -59 -74l185 37v-56l-229 -44q-34 -51 -86 -126q-4 -5 -25 -27q-17 -19 -17 -22t34 -33q149 -126 254 -126q25 0 44 7q16 7 31 13q6 -12 6 -23q0 -71 -61 -122q-57 -47 -126 -47q-92 0 -167 63q-47 40 -96 116
q-40 63 -49 63q-2 0 -29 -4t-30 -4q-53 0 -93 29q-44 32 -44 82q0 49 36 80t83 31q42 0 89.5 -27.5t40.5 -27.5q14 0 56 76l-118 -23l12 56l138 27q42 78 73 127q-137 26 -137 116q0 48 39 78q34 25 75 25q62 0 75 -41q-30 0 -47 -18.5t-17 -43.5q0 -17 16.5 -34.5
t35.5 -20.5q125 176 245 176q101 0 101 -84z" />
    <glyph glyph-name="mu" unicode="&#x3bc;" horiz-adv-x="583" 
d="M871 590q0 -107 -93 -150q-62 -29 -146 -24q-8 0 -59 -74l185 37v-56l-229 -44q-34 -51 -86 -126q-4 -5 -25 -27q-17 -19 -17 -22t34 -33q149 -126 254 -126q25 0 44 7q16 7 31 13q6 -12 6 -23q0 -71 -61 -122q-57 -47 -126 -47q-92 0 -167 63q-47 40 -96 116
q-40 63 -49 63q-2 0 -29 -4t-30 -4q-53 0 -93 29q-44 32 -44 82q0 49 36 80t83 31q42 0 89.5 -27.5t40.5 -27.5q14 0 56 76l-118 -23l12 56l138 27q42 78 73 127q-137 26 -137 116q0 48 39 78q34 25 75 25q62 0 75 -41q-30 0 -47 -18.5t-17 -43.5q0 -17 16.5 -34.5
t35.5 -20.5q125 176 245 176q101 0 101 -84z" />
    <glyph glyph-name="ordfeminine" unicode="&#xaa;" horiz-adv-x="597" 
d="M864 649q-62 -83 -145 -151q-42 -36 -173.5 -129t-230.5 -175q29 -19 121 -19q107 0 108 79q37 -7 59 -44q20 -32 20 -72q0 -76 -59 -125q-54 -46 -126 -46q-55 0 -169.5 34.5t-164.5 34.5q-62 0 -110 -39q28 90 140 174q100 64 199 129q63 43 150.5 116.5t134.5 125.5
q-21 24 -110 24q-31 0 -53 -13q-31 -17 -31 -54q0 -14 3.5 -19.5t23.5 -16.5q-17 -35 -58 -56q-36 -18 -72 -18q-49 0 -86 32t-37 82q0 94 92 141q68 36 154 36q69 0 176 -24t143 -24q31 0 52 3q29 5 49 14zM821 812l-186 -125q-71 48 -160 118l12 9l156 -48l164 54z" />
    <glyph glyph-name="ordmasculine" unicode="&#xba;" horiz-adv-x="324" 
d="M529 396q0 -28 -122 -97t-122 -94t85 -25q35 0 74 31q27 24 55 49q-20 -23 -78 -113q-50 -78 -88 -112q-55 -51 -118 -51q-3 0 -63 10t-65 10q-17 0 -22 -2q-17 -8 -29 -12q-4 7 -4 19q0 47 57 112q49 56 99 84q139 78 139 89q0 20 -42 20q-38 0 -63 -15q-3 -1 -7 3t-4 9
q0 18 17 39q11 10 22 21q32 38 98 38l129 -12q19 0 48 6q4 0 4 -7zM596 530l-148 -99q-57 38 -128 94l9 7l125 -38l131 43z" />
    <glyph glyph-name="ae" unicode="&#xe6;" horiz-adv-x="405" 
d="M334 324q-9 9 -20 9q-27 0 -62 -39.5t-35 -65.5q0 -8 6.5 -16t14.5 -8q24 0 61 43t37 69q0 4 -2 8zM613 279l-108 -168q-79 -110 -156 -110q-6 0 -24 14.5t-21 15.5q-4 -42 -44 -42q-31 0 -33 21q-1 4 22 55q-2 8 -2 16q-49 -46 -60 -55q-41 -33 -68 -33q-28 0 -46 26
q-16 22 -16 51q0 -3 7 34q18 89 105 188q95 108 178 108q30 0 38 -10l3.5 -7.5t7.5 -7.5q1 0 8 13.5t25 13.5q20 0 23 -15q15 7 29 11q28 8 29 8q27 0 46 -16.5t19 -42.5q0 -19 -17 -43.5t-34 -31.5q-39 -8 -77 -16q-54 -13 -54 -35q0 -31 54 -31q74 0 166 89zM494 331
q0 6 -4 15q-2 0 -7.5 2t-8.5 2q-18 0 -50 -28q-6 -9 -17 -26q-1 -9 1 -16l14 11q31 8 68 26q4 6 4 14z" />
    <glyph glyph-name="oslash" unicode="&#xf8;" horiz-adv-x="347" 
d="M281 210l88 138q-31 -3 -64 -46t-33 -69q0 -13 9 -23zM397 335l-88 -136q30 3 62 43.5t32 75.5q0 8 -6 17zM435 449h35l-27 -43q41 -18 41 -74q0 -62 -55 -158q-44 -77 -81 -111q-17 -17 -54 -45q-68 -37 -106 -37q-5 0 -17 3l-24 -37h-36l30 45q-13 7 -26.5 25.5
t-14.5 30.5q-1 7 -1 34q0 87 64 176q62 84 152 134q41 22 90 22h7z" />
    <glyph glyph-name="questiondown" unicode="&#xbf;" horiz-adv-x="597" 
d="M-13 -90q0 23 17 53.5t41 48.5q21 16 74 40q34 12 69 23q64 27 64 56q0 24 -26 24q0 10 3 15q25 38 67 59q37 19 75 19q82 0 82 -65q0 -32 -31.5 -62.5t-79.5 -43.5q-4 -3 -11 -7q-37 -11 -75 -21q-66 -22 -104 -48q-53 -35 -53 -80q0 -27 18 -44t47 -17q27 0 52 17.5
t25 43.5q0 17 -12 24q-7 5 -33 10q28 63 99 63q35 0 55 -20.5t20 -52.5q0 -73 -92 -111q-66 -27 -141 -27q-57 0 -98 21q-52 28 -52 82zM380 314q0 36 31.5 64t66.5 28q50 0 50 -38q0 -35 -33 -65t-66 -30q-49 0 -49 41z" />
    <glyph glyph-name="exclamdown" unicode="&#xa1;" horiz-adv-x="403" 
d="M-66 -146q0 42 58 115q13 17 72 72q44 40 111 108q15 28 52 78h17q4 -4 4 -11q0 -10 -8.5 -20.5t-15.5 -18.5q-22 -31 -41 -78q-15 -30 -39 -90q-18 -61 -56 -119q-55 -83 -112 -83q-42 0 -42 47zM248 309q0 33 28 64t64 31q44 0 44 -42q0 -37 -29.5 -66t-64.5 -29
q-42 0 -42 42z" />
    <glyph glyph-name="logicalnot" unicode="&#xac;" horiz-adv-x="12" 
 />
    <glyph glyph-name="florin" unicode="&#x192;" horiz-adv-x="14" 
 />
    <glyph glyph-name="guillemotleft" unicode="&#xab;" horiz-adv-x="483" 
d="M441 67l-6 -10q-29 41 -80 88l-90 80q33 30 65 59q52 52 95 112l10 -12l-72 -157q41 -81 78 -160zM286 67l-7 -10q-35 49 -168 168q33 30 66 59q54 52 98 112l6 -12l-72 -157q41 -81 77 -160z" />
    <glyph glyph-name="guillemotright" unicode="&#xbb;" horiz-adv-x="483" 
d="M111 386l6 10q29 -41 79 -88l90 -80q-32 -29 -64 -59q-53 -52 -95 -112l-11 12l73 157q-41 81 -78 160zM265 386l8 10q34 -49 168 -168q-33 -29 -66 -59q-54 -52 -98 -112l-7 12l73 157q-41 81 -78 160z" />
    <glyph glyph-name="ellipsis" unicode="&#x2026;" horiz-adv-x="834" 
d="M518 92q0 -37 -31.5 -66t-63.5 -29q-45 0 -45 39q0 38 35 69q31 28 63 28q18 0 30 -12.5t12 -28.5zM818 92q0 -37 -31.5 -66t-63.5 -29q-45 0 -45 39q0 38 35 69q31 28 63 28q18 0 30 -12.5t12 -28.5zM218 92q0 -37 -31.5 -66t-63.5 -29q-45 0 -45 39q0 38 35 69
q31 28 63 28q18 0 30 -12.5t12 -28.5z" />
    <glyph glyph-name="nonbreakingspace" unicode="&#xa0;" horiz-adv-x="1216" 
 />
    <glyph glyph-name="Agrave" unicode="&#xc0;" horiz-adv-x="794" 
d="M1116 604q-71 -94 -142 -187q-90 -132 -90 -203q0 -38 30 -38q21 0 49 16q-5 -59 -54 -125q-54 -71 -109 -71q-62 0 -62 73q0 38 24.5 96.5t24.5 57.5q0 8 -18 8q-50 0 -119 -63q-116 -107 -131 -118q-88 -63 -185 -63q-62 0 -104 17q-54 23 -91.5 78.5t-37.5 113.5
q0 97 76 165q73 66 171 66q43 0 89 -21q50 -23 69 -57q-17 -10 -33 -19.5t-16 -37.5q0 -30 28 -48q23 -15 55 -15q39 0 83 22q49 26 136 117q96 100 96 144q0 41 -54 41q-35 0 -68 -23q-36 -26 -36 -60q0 -20 13.5 -34t33.5 -14l1 -5q-44 -55 -114 -55q-61 0 -105 36
q-47 38 -47 97q0 91 87 139q71 41 169 41q89 0 201 -35q38 -13 75.5 -25.5t72.5 -12.5q15 0 32 2zM950 496q-21 1 -68 -56q-30 -38 -60 -77q-14 -13 -41 -38h57q56 74 112 171zM1011 717q-59 37 -184 106l-61 -62q13 -4 236 -65q6 8 9 21z" />
    <glyph glyph-name="Atilde" unicode="&#xc3;" horiz-adv-x="794" 
d="M1116 604q-71 -94 -142 -187q-90 -132 -90 -203q0 -38 30 -38q21 0 49 16q-5 -59 -54 -125q-54 -71 -109 -71q-62 0 -62 73q0 38 24.5 96.5t24.5 57.5q0 8 -18 8q-50 0 -119 -63q-116 -107 -131 -118q-88 -63 -185 -63q-62 0 -104 17q-54 23 -91.5 78.5t-37.5 113.5
q0 97 76 165q73 66 171 66q43 0 89 -21q50 -23 69 -57q-17 -10 -33 -19.5t-16 -37.5q0 -30 28 -48q23 -15 55 -15q39 0 83 22q49 26 136 117q96 100 96 144q0 41 -54 41q-35 0 -68 -23q-36 -26 -36 -60q0 -20 13.5 -34t33.5 -14l1 -5q-44 -55 -114 -55q-61 0 -105 36
q-47 38 -47 97q0 91 87 139q71 41 169 41q89 0 201 -35q38 -13 75.5 -25.5t72.5 -12.5q15 0 32 2zM950 496q-21 1 -68 -56q-30 -38 -60 -77q-14 -13 -41 -38h57q56 74 112 171zM991 709q-35 0 -75 17.5t-76 17.5q-32 0 -93 -31q11 30 43.5 60.5t60.5 30.5q46 0 88 -14.5
t77 -14.5q25 0 84 27q0 -32 -38 -62.5t-71 -30.5z" />
    <glyph glyph-name="Otilde" unicode="&#xd5;" horiz-adv-x="706" 
d="M937 581q0 -94 -70 -235q-73 -147 -176 -246q-117 -113 -228 -113q-78 0 -119 43t-41 117q0 41 9 70q18 55 21 68q-54 -35 -59 -37q-47 -26 -89 -26q-48 0 -78 30t-30 76q0 58 49 105t108 47q10 0 25 -6q-14 -25 -14 -39q0 -50 64 -50q46 0 107 49l104 90q62 48 110 48
h20q-62 -62 -104 -131q-51 -83 -51 -147q0 -72 69 -72q57 0 113 62t56 119q0 17 -9 29q-11 16 -31 16q-25 0 -45 -19q0 2 -5 3t-5 4q0 73 62 153q69 88 150 88q39 0 63 -29.5t24 -66.5zM871 709q-35 0 -75 17.5t-76 17.5q-32 0 -93 -31q11 30 43.5 60.5t60.5 30.5
q46 0 88 -14.5t77 -14.5q25 0 84 27q0 -32 -38 -62.5t-71 -30.5z" />
    <glyph glyph-name="OE" unicode="&#x152;" horiz-adv-x="1144" 
d="M1241 585l4 7q-28 23 -59 23q-47 0 -53 -18q49 -22 79 -22q15 0 29 10zM937 581q0 -64 -36 -158q30 7 86 17q35 6 35 9l-23 22.5t-24 55.5q-1 55 36 91q26 25 34 25l22 10q27 12 57 19q43 10 95 10q59 0 112 -20q76 -28 76 -84q0 -43 -42 -65q-30 -15 -66 -15
q-47 0 -115.5 29.5t-70.5 29.5q-18 0 -18 -34q0 -28 33 -50.5t33 -32.5v-12q-1 -2 -14 -17h-74q-45 0 -89 -28q-51 -31 -51 -75q0 -30 22 -48q19 -15 47 -15q30 0 53 17q27 21 27 54q0 11 -3 22q6 8 23 14.5t29 6.5q50 0 79 -44q22 -34 22 -76q0 -123 -118 -195
q-96 -58 -206 -58q-62 0 -121 23q-73 28 -106 81q-112 -103 -218 -103q-78 0 -119 43t-41 117q0 41 9 70q18 55 21 68q-54 -35 -59 -37q-47 -26 -89 -26q-48 0 -78 30t-30 76q0 58 49 105t108 47q10 0 25 -6q-14 -25 -14 -39q0 -50 64 -50q46 0 107 49q52 45 104 89
q62 49 110 49h20q-62 -62 -104 -131q-51 -83 -51 -147q0 -72 69 -72q65 0 126 77q5 8 11 16q32 48 32 88q0 17 -9 29q-11 16 -31 16q-25 0 -45 -19q0 2 -5 3t-5 4q0 73 62 153q69 88 150 88q39 0 63 -29.5t24 -66.5z" />
    <glyph glyph-name="oe" unicode="&#x153;" horiz-adv-x="482" 
d="M403 318q0 12 -9 21t-21 9q-31 0 -66 -44t-35 -71q0 -14 10 -24t24 -10q30 0 63.5 41.5t33.5 77.5zM687 275q-59 -83 -118 -167q-89 -110 -167 -110q-53 0 -73 46q-27 -24 -66 -43q-43 -20 -75 -20q-15 0 -43 10q-13 4 -28.5 24t-16.5 33q-1 7 -1 34q0 87 64 176
q62 84 152 134q41 22 90 22q64 0 76 -58q38 29 74 38q28 8 29 8q27 0 46 -16.5t19 -42.5q0 -19 -17 -43.5t-34 -31.5q-39 -8 -77 -16q-54 -12 -54 -35q0 -31 54 -31q74 0 166 89zM568 328q0 6 -4 15q-2 0 -7.5 1.5t-8.5 1.5q-13 0 -40 -20t-27 -32q0 -7 3 -7h12q9 0 36 9.5
t31.5 16t4.5 15.5z" />
    <glyph glyph-name="endash" unicode="&#x2013;" horiz-adv-x="656" 
d="M460 147q-57 0 -115.5 16t-116.5 16t-131 -33q18 42 68 83q55 44 102 44q74 0 127.5 -14.5t108.5 -14.5q7 0 55 10.5t59 15.5q0 -48 -56 -88q-52 -35 -101 -35z" />
    <glyph glyph-name="emdash" unicode="&#x2014;" horiz-adv-x="1000" 
d="M998 258q-49 -55 -95 -79q-63 -32 -154 -32q-90 0 -214.5 16t-217.5 16q-91 0 -207 -33q28 42 108 83q87 44 162 44q117 0 233.5 -14.5t204.5 -14.5q10 0 86.5 10.5t93.5 15.5v-12z" />
    <glyph glyph-name="quotedblleft" unicode="&#x201c;" horiz-adv-x="186" 
d="M25 510q0 44 44.5 91t87.5 54q-13 -14 -26 -27q-23 -25 -21 -34q12 -3 37 -10q14 -5 14 -30q0 -28 -28 -59t-60 -31q-48 0 -48 46zM185 510q0 44 44.5 91t87.5 54q-13 -14 -26 -27q-23 -25 -21 -34q12 -3 37 -10q14 -5 14 -30q0 -28 -28 -59t-60 -31q-48 0 -48 46z" />
    <glyph glyph-name="quotedblright" unicode="&#x201d;" horiz-adv-x="186" 
d="M617 610q0 -44 -44.5 -91.5t-88.5 -54.5l26 28q23 24 21 33q-12 3 -37 11q-14 5 -14 30q0 27 28.5 58t59.5 31q49 0 49 -45zM457 610q0 -44 -44.5 -91.5t-88.5 -54.5l26 28q23 24 21 33q-12 3 -37 11q-14 5 -14 30q0 27 28.5 58t59.5 31q49 0 49 -45z" />
    <glyph glyph-name="quoteleft" unicode="&#x2018;" horiz-adv-x="495" 
d="M491 567q0 -35 -30.5 -61.5t-59.5 -26.5q-45 0 -50 46q-3 41 47 89q42 42 73 50q3 -5 2 -7q-26 -17 -39 -43q5 -10 12 -10q4 0 4 1.5t3 1.5q38 0 38 -40z" />
    <glyph glyph-name="quoteright" unicode="&#x2019;" horiz-adv-x="186" 
d="M481 610q0 -44 -44.5 -91.5t-87.5 -54.5l26 28q23 24 21 33q-12 3 -37 11q-14 5 -14 30q0 27 28 58t60 31q48 0 48 -45z" />
    <glyph glyph-name="divide" unicode="&#xf7;" horiz-adv-x="17" 
 />
    <glyph glyph-name="ydieresis" unicode="&#xff;" horiz-adv-x="605" 
d="M785 384q0 -25 -32 -64l-34 -40q-35 -46 -94 -132q-34 -62 -101 -185t-111 -179q-78 -100 -165 -123q-1 0 -9 -4t-12 -4q4 0 -16.5 1.5t-63.5 1.5q-53 6 -90 46.5t-37 90.5q0 32 16 67q9 20 29 36q13 10 35.5 22t28.5 12h71q6 0 31 -16q0 -2 -3 -10.5t-3 -12.5
q0 -41 60 -41q63 0 126 79q37 56 73 112q-4 5 -9 5q-3 0 -14 -10q-13 -13 -17 -16q-52 -34 -79 -34q-53 0 -53 60q0 42 26 89q17 28 62.5 85t65.5 90q4 7 2 23q-3 20 -3 24q3 20 48 37q38 15 61 15q20 0 29 -12q6 -17 -50 -85q-60 -72 -60 -95q0 -16 4 -19t20 -3q35 0 82 55
q30 35 45 63q6 11 9 44q2 23 39 38q30 11 56 11q37 0 37 -22zM849 511q0 -22 -25 -35q-21 -10 -46 -10q-40 0 -40 28q0 22 31 35q23 10 44 10q36 0 36 -28zM686 511q0 -22 -25 -35q-21 -10 -46 -10q-40 0 -40 28q0 22 31 35q23 10 43 10q37 0 37 -28z" />
    <glyph glyph-name="Ydieresis" unicode="&#x178;" horiz-adv-x="586" 
d="M888 605q0 -51 -105 -183q-111 -137 -178 -291q-73 -170 -138 -242q-89 -99 -220 -99q-97 0 -166 52q-75 57 -75 152q0 69 48 115q45 44 107 44q49 0 64 -19q-8 -10 -15.5 -20.5t-7.5 -32.5q0 -48 47 -72q34 -18 76 -18q56 0 102 34q51 38 72 103q-30 -23 -59 -47
q-47 -35 -92 -35q-42 0 -65 25t-23 66q0 60 65 154l120 156q65 87 65 130q0 17 -16 28q-12 8 -26 8q-36 0 -72.5 -32.5t-36.5 -67.5q0 -17 11 -27t25 -10q3 0 9.5 1t10.5 1q-20 -67 -70 -115q-52 -51 -110 -51q-44 0 -72 26t-28 70q0 119 128 205q112 77 224 77
q125 0 125 -99q0 -57 -64.5 -152t-64.5 -126q0 -23 27 -23q53 0 114 94q50 87 101 174q60 94 110 94q22 0 37.5 -13.5t15.5 -33.5zM878 787q0 -28 -32 -44q-26 -14 -57 -14q-51 0 -51 35q0 28 40 45q29 12 54 12q19 0 32.5 -10t13.5 -24zM674 787q0 -28 -32 -44
q-26 -14 -57 -14q-51 0 -51 35q0 28 40 45q29 12 54 12q19 0 32.5 -10t13.5 -24z" />
    <glyph glyph-name="currency" unicode="&#xa4;" horiz-adv-x="9" 
 />
    <glyph glyph-name="guilsinglleft" unicode="&#x2039;" horiz-adv-x="334" 
d="M286 67l-7 -10q-35 49 -168 168q33 30 66 59q54 52 98 112l6 -12l-72 -157q41 -81 77 -160z" />
    <glyph glyph-name="guilsinglright" unicode="&#x203a;" horiz-adv-x="483" 
d="M251 386l8 10q34 -49 167 -168q-32 -29 -65 -59q-54 -52 -98 -112l-7 12l73 157q-41 81 -78 160z" />
    <glyph glyph-name="periodcentered" unicode="&#xb7;" horiz-adv-x="409" 
d="M222 274q0 23 16.5 39.5t40.5 16.5q23 0 39.5 -16.5t16.5 -39.5t-16.5 -39.5t-39.5 -16.5q-24 0 -40.5 16.5t-16.5 39.5z" />
    <glyph glyph-name="periodcentered" unicode="&#x2219;" horiz-adv-x="409" 
d="M222 274q0 23 16.5 39.5t40.5 16.5q23 0 39.5 -16.5t16.5 -39.5t-16.5 -39.5t-39.5 -16.5q-24 0 -40.5 16.5t-16.5 39.5z" />
    <glyph glyph-name="quotesinglbase" unicode="&#x201a;" horiz-adv-x="231" 
d="M191 81q0 -40 -55 -96q-49 -49 -80 -58q25 26 42 53l13 21q-5 5 -19 4t-18 1q-19 8 -19 39q0 29 27.5 58.5t59.5 29.5q49 0 49 -52z" />
    <glyph glyph-name="quotedblbase" unicode="&#x201e;" horiz-adv-x="389" 
d="M351 81q0 -40 -55 -96q-49 -49 -80 -58q25 26 42 53l13 21q-5 5 -19 4t-18 1q-19 8 -19 39q0 29 27.5 58.5t59.5 29.5q49 0 49 -52zM191 81q0 -40 -55 -96q-49 -49 -80 -58q25 26 42 53l13 21q-5 5 -19 4t-18 1q-19 8 -19 39q0 29 27.5 58.5t59.5 29.5q49 0 49 -52z" />
    <glyph glyph-name="perthousand" unicode="&#x2030;" horiz-adv-x="12" 
 />
    <glyph glyph-name="Acircumflex" unicode="&#xc2;" horiz-adv-x="794" 
d="M1116 604q-71 -94 -142 -187q-90 -132 -90 -203q0 -38 30 -38q21 0 49 16q-5 -59 -54 -125q-54 -71 -109 -71q-62 0 -62 73q0 38 24.5 96.5t24.5 57.5q0 8 -18 8q-50 0 -119 -63q-116 -107 -131 -118q-88 -63 -185 -63q-62 0 -104 17q-54 23 -91.5 78.5t-37.5 113.5
q0 97 76 165q73 66 171 66q43 0 89 -21q50 -23 69 -57q-17 -10 -33 -19.5t-16 -37.5q0 -30 28 -48q23 -15 55 -15q39 0 83 22q49 26 136 117q96 100 96 144q0 41 -54 41q-35 0 -68 -23q-36 -26 -36 -60q0 -20 13.5 -34t33.5 -14l1 -5q-44 -55 -114 -55q-61 0 -105 36
q-47 38 -47 97q0 91 87 139q71 41 169 41q89 0 201 -35q38 -13 75.5 -25.5t72.5 -12.5q15 0 32 2zM950 496q-21 1 -68 -56q-30 -38 -60 -77q-14 -13 -41 -38h57q56 74 112 171zM722 694l185 125q71 -49 160 -118l-12 -9l-156 47l-163 -53z" />
    <glyph glyph-name="Ecircumflex" unicode="&#xca;" horiz-adv-x="592" 
d="M857 578q0 -43 -42 -65q-30 -15 -66 -15q-47 0 -115.5 29.5t-70.5 29.5q-18 0 -18 -34q0 -28 33 -50.5t33 -32.5v-12q-1 -2 -14 -17h-74q-45 0 -89 -28q-51 -31 -51 -75q0 -30 22 -48q19 -15 47 -15q30 0 53 17q27 21 27 54q0 11 -3 22q6 8 23 14.5t29 6.5q50 0 79 -44
q22 -34 22 -76q0 -123 -118 -195q-96 -58 -206 -58q-89 0 -160 41q-92 54 -92 153q0 115 95 181q65 46 176 68q95 19 95 20q0 -1 -23.5 22t-23.5 56q0 20 7 36q11 23 12 28q-9 6 -24 6q-26 0 -44.5 -19.5t-18.5 -44.5q0 -33 44 -51q0 -18 -41 -33q-35 -13 -57 -13
q-48 0 -80 24q-39 28 -39 80q0 66 71 102q52 26 109 26q37 0 86 -13t46 -13l22 10q26 12 56 19q43 11 95 11q59 0 112 -20q76 -28 76 -84zM687 592l1 8q-21 17 -54 17q-47 0 -53 -19q48 -21 79 -21q6 0 27 15zM422 704l185 125q71 -49 160 -118l-12 -9l-156 47l-163 -53z
" />
    <glyph glyph-name="Aacute" unicode="&#xc1;" horiz-adv-x="794" 
d="M1109 604q-71 -94 -142 -187q-90 -132 -90 -203q0 -38 30 -38q21 0 49 16q-5 -59 -54 -125q-54 -71 -109 -71q-62 0 -62 73q0 38 24.5 96.5t24.5 57.5q0 8 -18 8q-50 0 -119 -63q-116 -107 -131 -118q-88 -63 -185 -63q-62 0 -104 17q-54 23 -91.5 78.5t-37.5 113.5
q0 97 76 165q73 66 171 66q43 0 89 -21q50 -23 69 -57q-17 -10 -33 -19.5t-16 -37.5q0 -30 28 -48q23 -15 55 -15q39 0 83 22q49 26 136 117q96 100 96 144q0 41 -54 41q-35 0 -68 -23q-36 -26 -36 -60q0 -20 13.5 -34t33.5 -14v-5q-43 -55 -113 -55q-61 0 -105 36
q-47 38 -47 97q0 91 87 139q71 41 169 41q89 0 201 -35q38 -13 75.5 -25.5t72.5 -12.5q15 0 32 2zM943 496q-21 1 -68 -56q-30 -38 -60 -77q-14 -13 -41 -38h57q56 74 112 171zM782 717q60 37 185 106l61 -62q-13 -4 -236 -65q-6 8 -10 21z" />
    <glyph glyph-name="Edieresis" unicode="&#xcb;" horiz-adv-x="592" 
d="M857 578q0 -43 -42 -65q-30 -15 -66 -15q-47 0 -115.5 29.5t-70.5 29.5q-18 0 -18 -34q0 -28 33 -50.5t33 -32.5v-12q-1 -2 -14 -17h-74q-45 0 -89 -28q-51 -31 -51 -75q0 -30 22 -48q19 -15 47 -15q30 0 53 17q27 21 27 54q0 11 -3 22q6 8 23 14.5t29 6.5q50 0 79 -44
q22 -34 22 -76q0 -123 -118 -195q-96 -58 -206 -58q-89 0 -160 41q-92 54 -92 153q0 115 95 181q65 46 176 68q95 19 95 20q0 -1 -23.5 22t-23.5 56q0 20 7 36q11 23 12 28q-9 6 -24 6q-26 0 -44.5 -19.5t-18.5 -44.5q0 -33 44 -51q0 -18 -41 -33q-35 -13 -57 -13
q-48 0 -80 24q-39 28 -39 80q0 66 71 102q52 26 109 26q37 0 86 -13t46 -13l22 10q26 12 56 19q43 11 95 11q59 0 112 -20q76 -28 76 -84zM696 585v14q-21 17 -54 17q-47 0 -53 -18q49 -22 79 -22q15 0 28 9zM808 787q0 -28 -32 -44q-26 -14 -57 -14q-51 0 -51 35
q0 28 40 45q29 12 54 12q19 0 32.5 -10t13.5 -24zM604 787q0 -28 -32 -44q-26 -14 -57 -14q-51 0 -51 35q0 28 40 45q29 12 54 12q19 0 32.5 -10t13.5 -24z" />
    <glyph glyph-name="Egrave" unicode="&#xc8;" horiz-adv-x="592" 
d="M857 578q0 -43 -42 -65q-30 -15 -66 -15q-47 0 -115.5 29.5t-70.5 29.5q-18 0 -18 -34q0 -28 33 -50.5t33 -32.5v-12q-1 -2 -14 -17h-74q-45 0 -89 -28q-51 -31 -51 -75q0 -30 22 -48q19 -15 47 -15q30 0 53 17q27 21 27 54q0 11 -3 22q6 8 23 14.5t29 6.5q50 0 79 -44
q22 -34 22 -76q0 -123 -118 -195q-96 -58 -206 -58q-89 0 -160 41q-92 54 -92 153q0 115 95 181q65 46 176 68q95 19 95 20q0 -1 -23.5 22t-23.5 56q0 20 7 36q11 23 12 28q-9 6 -24 6q-26 0 -44.5 -19.5t-18.5 -44.5q0 -33 44 -51q0 -18 -41 -33q-35 -13 -57 -13
q-48 0 -80 24q-39 28 -39 80q0 66 71 102q52 26 109 26q37 0 86 -13t46 -13l22 10q26 12 56 19q43 11 95 11q59 0 112 -20q76 -28 76 -84zM690 592v13q-21 17 -54 17q-47 0 -53 -18q48 -22 79 -22q14 0 28 10zM761 717q-59 37 -184 106l-61 -62q13 -4 236 -65q6 8 9 21z" />
    <glyph glyph-name="Iacute" unicode="&#xcd;" horiz-adv-x="497" 
d="M824 641q-35 -29 -90 -85q-38 -50 -119 -225q-76 -163 -138 -233q-95 -108 -225 -108q-81 0 -131.5 51t-50.5 126q0 93 62.5 161.5t156.5 68.5q43 0 70 -17q-9 -10 -16.5 -19t-7.5 -26q0 -49 60 -49q37 0 80 29q40 28 69 70q40 58 80.5 115.5t92.5 105.5q-7 13 -41 13
q-39 0 -79 -20q-50 -25 -50 -63q0 -15 9 -25.5t23 -8.5v-11q1 -31 -49 -61q-44 -26 -74 -26q-38 0 -62 31q-21 27 -21 61q0 95 106 144q79 37 172 37q80 0 173 -36zM569 717q60 37 185 106l61 -62q-13 -4 -236 -65q-6 8 -10 21z" />
    <glyph glyph-name="Icircumflex" unicode="&#xce;" horiz-adv-x="497" 
d="M824 641q-35 -29 -90 -85q-38 -50 -119 -225q-76 -163 -138 -233q-95 -108 -225 -108q-81 0 -131.5 51t-50.5 126q0 93 62.5 161.5t156.5 68.5q43 0 70 -17q-9 -10 -16.5 -19t-7.5 -26q0 -49 60 -49q37 0 80 29q40 28 69 70q40 58 80.5 115.5t92.5 105.5q-7 13 -41 13
q-39 0 -79 -20q-50 -25 -50 -63q0 -15 9 -25.5t23 -8.5v-11q1 -31 -49 -61q-44 -26 -74 -26q-38 0 -62 31q-21 27 -21 61q0 95 106 144q79 37 172 37q80 0 173 -36zM522 694l185 125q71 -49 160 -118l-12 -9l-156 47l-163 -53z" />
    <glyph glyph-name="Idieresis" unicode="&#xcf;" horiz-adv-x="497" 
d="M824 641q-35 -29 -90 -85q-38 -50 -119 -225q-76 -163 -138 -233q-95 -108 -225 -108q-81 0 -131.5 51t-50.5 126q0 93 62.5 161.5t156.5 68.5q43 0 70 -17q-9 -10 -16.5 -19t-7.5 -26q0 -49 60 -49q37 0 80 29q40 28 69 70q40 58 80.5 115.5t92.5 105.5q-7 13 -41 13
q-39 0 -79 -20q-50 -25 -50 -63q0 -15 9 -25.5t23 -8.5v-11q1 -31 -49 -61q-44 -26 -74 -26q-38 0 -62 31q-21 27 -21 61q0 95 106 144q79 37 172 37q80 0 173 -36zM868 787q0 -28 -32 -44q-26 -14 -57 -14q-51 0 -51 35q0 28 40 45q29 12 54 12q19 0 32.5 -10t13.5 -24z
M664 787q0 -28 -32 -44q-26 -14 -57 -14q-51 0 -51 35q0 28 40 45q29 12 54 12q19 0 32.5 -10t13.5 -24z" />
    <glyph glyph-name="Igrave" unicode="&#xcc;" horiz-adv-x="497" 
d="M824 641q-35 -29 -90 -85q-38 -50 -119 -225q-76 -163 -138 -233q-95 -108 -225 -108q-81 0 -131.5 51t-50.5 126q0 93 62.5 161.5t156.5 68.5q43 0 70 -17q-9 -10 -16.5 -19t-7.5 -26q0 -49 60 -49q37 0 80 29q40 28 69 70q40 58 80.5 115.5t92.5 105.5q-7 13 -41 13
q-39 0 -79 -20q-50 -25 -50 -63q0 -15 9 -25.5t23 -8.5v-11q1 -31 -49 -61q-44 -26 -74 -26q-38 0 -62 31q-21 27 -21 61q0 95 106 144q79 37 172 37q80 0 173 -36zM801 717q-59 37 -184 106l-61 -62q13 -4 236 -65q6 8 9 21z" />
    <glyph glyph-name="Oacute" unicode="&#xd3;" horiz-adv-x="706" 
d="M937 581q0 -94 -70 -235q-73 -147 -176 -246q-117 -113 -228 -113q-78 0 -119 43t-41 117q0 41 9 70q18 55 21 68q-54 -35 -59 -37q-47 -26 -89 -26q-48 0 -78 30t-30 76q0 58 49 105t108 47q10 0 25 -6q-14 -25 -14 -39q0 -50 64 -50q46 0 107 49l104 90q62 48 110 48
h20q-62 -62 -104 -131q-51 -83 -51 -147q0 -72 69 -72q57 0 113 62t56 119q0 17 -9 29q-11 16 -31 16q-25 0 -45 -19q0 2 -5 3t-5 4q0 73 62 153q69 88 150 88q39 0 63 -29.5t24 -66.5zM649 717q60 37 185 106l61 -62q-13 -4 -236 -65q-6 8 -10 21z" />
    <glyph glyph-name="Ocircumflex" unicode="&#xd4;" horiz-adv-x="706" 
d="M937 581q0 -94 -70 -235q-73 -147 -176 -246q-117 -113 -228 -113q-78 0 -119 43t-41 117q0 41 9 70q18 55 21 68q-54 -35 -59 -37q-47 -26 -89 -26q-48 0 -78 30t-30 76q0 58 49 105t108 47q10 0 25 -6q-14 -25 -14 -39q0 -50 64 -50q46 0 107 49l104 90q62 48 110 48
h20q-62 -62 -104 -131q-51 -83 -51 -147q0 -72 69 -72q57 0 113 62t56 119q0 17 -9 29q-11 16 -31 16q-25 0 -45 -19q0 2 -5 3t-5 4q0 73 62 153q69 88 150 88q39 0 63 -29.5t24 -66.5zM612 694l185 125q71 -49 160 -118l-12 -9l-156 47l-163 -53z" />
    <glyph glyph-name="Ograve" unicode="&#xd2;" horiz-adv-x="706" 
d="M937 581q0 -94 -70 -235q-73 -147 -176 -246q-117 -113 -228 -113q-78 0 -119 43t-41 117q0 41 9 70q18 55 21 68q-54 -35 -59 -37q-47 -26 -89 -26q-48 0 -78 30t-30 76q0 58 49 105t108 47q10 0 25 -6q-14 -25 -14 -39q0 -50 64 -50q46 0 107 49l104 90q62 48 110 48
h20q-62 -62 -104 -131q-51 -83 -51 -147q0 -72 69 -72q57 0 113 62t56 119q0 17 -9 29q-11 16 -31 16q-25 0 -45 -19q0 2 -5 3t-5 4q0 73 62 153q69 88 150 88q39 0 63 -29.5t24 -66.5zM901 717q-59 37 -184 106l-61 -62q13 -4 236 -65q6 8 9 21z" />
    <glyph glyph-name="Uacute" unicode="&#xda;" horiz-adv-x="563" 
d="M827 595q0 -27 -62 -110q-58 -76 -115 -153q-62 -90 -62 -136q0 -35 29 -35q6 0 16.5 1t15.5 1q3 -6 3 -11q0 -48 -55.5 -108t-102.5 -60q-51 0 -51 64q0 22 6 49l-2 2q-5 0 -35 -29q-36 -36 -64 -55q-46 -29 -91 -29q-88 0 -88 88q0 70 76 172l140 170q76 93 76 143
q0 45 -49 45q-36 0 -71.5 -33t-35.5 -69q0 -39 38 -39q6 0 12 2v-11q0 -7 -22 -44t-29 -45q-60 -65 -124 -65q-43 0 -67.5 24.5t-24.5 67.5q0 64 53 136q108 145 295 145q53 0 86 -21q39 -25 39 -76q0 -47 -34 -103q-33 -44 -65 -88q-35 -47 -35 -76q0 -28 29 -28
q52 0 114 92q51 86 103 172q60 92 110 92q44 0 44 -42zM589 717q60 37 185 106l61 -62q-13 -4 -236 -65q-6 8 -10 21z" />
    <glyph glyph-name="Ucircumflex" unicode="&#xdb;" horiz-adv-x="563" 
d="M827 595q0 -27 -62 -110q-58 -76 -115 -153q-62 -90 -62 -136q0 -35 29 -35q6 0 16.5 1t15.5 1q3 -6 3 -11q0 -48 -55.5 -108t-102.5 -60q-51 0 -51 64q0 22 6 49l-2 2q-5 0 -35 -29q-36 -36 -64 -55q-46 -29 -91 -29q-88 0 -88 88q0 70 76 172l140 170q76 93 76 143
q0 45 -49 45q-36 0 -71.5 -33t-35.5 -69q0 -39 38 -39q6 0 12 2v-11q0 -7 -22 -44t-29 -45q-60 -65 -124 -65q-43 0 -67.5 24.5t-24.5 67.5q0 64 53 136q108 145 295 145q53 0 86 -21q39 -25 39 -76q0 -47 -34 -103q-33 -44 -65 -88q-35 -47 -35 -76q0 -28 29 -28
q52 0 114 92q51 86 103 172q60 92 110 92q44 0 44 -42zM462 694l185 125q71 -49 160 -118l-12 -9l-156 47l-163 -53z" />
    <glyph glyph-name="Ugrave" unicode="&#xd9;" horiz-adv-x="563" 
d="M827 595q0 -27 -62 -110q-58 -76 -115 -153q-62 -90 -62 -136q0 -35 29 -35q6 0 16.5 1t15.5 1q3 -6 3 -11q0 -48 -55.5 -108t-102.5 -60q-51 0 -51 64q0 22 6 49l-2 2q-5 0 -35 -29q-36 -36 -64 -55q-46 -29 -91 -29q-88 0 -88 88q0 70 76 172l140 170q76 93 76 143
q0 45 -49 45q-36 0 -71.5 -33t-35.5 -69q0 -39 38 -39q6 0 12 2v-11q0 -7 -22 -44t-29 -45q-60 -65 -124 -65q-43 0 -67.5 24.5t-24.5 67.5q0 64 53 136q108 145 295 145q53 0 86 -21q39 -25 39 -76q0 -47 -34 -103q-33 -44 -65 -88q-35 -47 -35 -76q0 -28 29 -28
q52 0 114 92q51 86 103 172q60 92 110 92q44 0 44 -42zM781 717q-59 37 -184 106l-61 -62q13 -4 236 -65q6 8 9 21z" />
    <glyph glyph-name="circumflex" unicode="&#x2c6;" horiz-adv-x="503" 
d="M85 696l186 124q71 -48 160 -118l-12 -9l-157 48l-163 -54z" />
    <glyph glyph-name="tilde" unicode="&#x2dc;" horiz-adv-x="503" 
d="M311 709q-35 0 -75 17.5t-76 17.5q-32 0 -93 -31q11 30 43.5 60.5t60.5 30.5q46 0 88 -14.5t77 -14.5q25 0 84 27q0 -32 -38 -62.5t-71 -30.5z" />
    <glyph glyph-name="macron" unicode="&#xaf;" horiz-adv-x="503" 
d="M99 791h305v-54h-305v54z" />
    <glyph glyph-name="macron" unicode="&#x2c9;" horiz-adv-x="503" 
d="M99 791h305v-54h-305v54z" />
    <glyph glyph-name="cedilla" unicode="&#xb8;" horiz-adv-x="505" 
d="M252 13h48q-13 -28 -27 -63l-1 5q63 -10 58 -61q-4 -35 -46 -55q-35 -16 -79 -16q-57 0 -68 34q17 28 22 28l10.5 -9t22.5 -9q27 0 39.5 8t12.5 36q0 27 -35 27q10 22 43 75z" />
    <glyph glyph-name="notequal" unicode="&#x2260;" horiz-adv-x="17" 
 />
    <glyph glyph-name="infinity" unicode="&#x221e;" horiz-adv-x="9" 
 />
    <glyph glyph-name="lessequal" unicode="&#x2264;" horiz-adv-x="20" 
 />
    <glyph glyph-name="greaterequal" unicode="&#x2265;" horiz-adv-x="20" 
 />
    <glyph glyph-name="partialdiff" unicode="&#x2202;" horiz-adv-x="193" 
d="M186 351l62 13q47 70 47 105q0 19 -6 30.5t-6 21.5q0 33 76 71q67 34 96 34q13 0 28 -10q4 -20 -14 -53l-32 -52q-24 -31 -96 -127l95 20l-54 -68l-88 -19q-53 -79 -53 -102q0 -28 33 -28q26 0 60 30l56 56l-108 -172q-87 -129 -163 -129q-29 0 -47.5 21t-18.5 49
q0 44 48 118q21 33 99 137l-64 -14z" />
    <glyph glyph-name="summation" unicode="&#x2211;" horiz-adv-x="556" 
d="M854 587q0 -39 -28 -65.5t-60 -26.5q-23 0 -41 15t-18 33q0 21 18.5 32.5t18.5 21.5q0 22 -33 22q-53 0 -77 -60q-17 -39 -17 -88l17 -184q0 -136 -84 -225t-220 -89q-99 0 -170 53q-79 59 -79 154q0 89 59.5 154t147.5 65q34 0 68 -15q-29 -28 -29 -48q0 -46 51 -46
q66 0 104 100q64 172 73 187q62 100 188 100q47 0 76 -20q35 -23 35 -70zM881 812l-186 -125q-71 48 -160 118l12 9l156 -48l164 54z" />
    <glyph glyph-name="product" unicode="&#x220f;" horiz-adv-x="335" 
d="M497 360q0 -17 -19 -30q-15 -11 -28 -11q-19 0 -20.5 12t-19.5 12q-19 0 -24 -23q-1 -5 -2 -35q0 -4 2 -15t2 -14v-109q0 -3 -4 -12.5t-4 -13.5q-1 -30 -41.5 -80t-65.5 -51l-12 -8q-3 0 -22 -1.5t-22 -1.5q-30 0 -45 7q-10 4 -28 25t-21 21q-2 0 -35 -28t-54 -28
q-33 0 -33 34q0 32 37.5 95t63.5 75q20 2 55 14q38 26 91 87q59 66 84 87q48 39 99 39q66 0 66 -47zM315 253q0 13 -3 19h-11q-43 -43 -56 -84q10 -10 22 -10q22 0 36 26q12 23 12 49zM596 530l-148 -99q-57 38 -128 94l9 7l125 -38l131 43z" />
    <glyph glyph-name="pi" unicode="&#x3c0;" horiz-adv-x="586" 
d="M888 605q0 -51 -105 -183q-111 -137 -178 -291q-73 -170 -138 -242q-89 -99 -220 -99q-97 0 -166 52q-75 57 -75 152q0 69 48 115q45 44 107 44q49 0 64 -19q-8 -10 -15.5 -20.5t-7.5 -32.5q0 -48 47 -72q34 -18 76 -18q56 0 102 34q51 38 72 103q-30 -23 -59 -47
q-47 -35 -92 -35q-42 0 -65 25t-23 66q0 60 65 154l120 156q65 87 65 130q0 17 -16 28q-12 8 -26 8q-36 0 -72.5 -32.5t-36.5 -67.5q0 -17 11 -27t25 -10q3 0 9.5 1t10.5 1q-20 -67 -70 -115q-52 -51 -110 -51q-44 0 -72 26t-28 70q0 119 128 205q112 77 224 77
q125 0 125 -99q0 -57 -64.5 -152t-64.5 -126q0 -23 27 -23q53 0 114 94q50 87 101 174q60 94 110 94q22 0 37.5 -13.5t15.5 -33.5zM579 717q60 37 185 106l61 -62q-13 -4 -236 -65q-6 8 -10 21z" />
    <glyph glyph-name="integral" unicode="&#x222b;" horiz-adv-x="605" 
d="M785 384q0 -25 -32 -64l-34 -40q-35 -46 -94 -132q-34 -62 -101 -185t-111 -179q-78 -100 -165 -123q-1 0 -9 -4t-12 -4q4 0 -16.5 1.5t-63.5 1.5q-53 6 -90 46.5t-37 90.5q0 32 16 67q9 20 29 36q13 10 35.5 22t28.5 12h71q6 0 31 -16q0 -2 -3 -10.5t-3 -12.5
q0 -41 60 -41q63 0 126 79q37 56 73 112q-4 5 -9 5q-3 0 -14 -10q-13 -13 -17 -16q-52 -34 -79 -34q-53 0 -53 60q0 42 26 89q17 28 62.5 85t65.5 90q4 7 2 23q-3 20 -3 24q3 20 48 37q38 15 61 15q20 0 29 -12q6 -17 -50 -85q-60 -72 -60 -95q0 -16 4 -19t20 -3q35 0 82 55
q30 35 45 63q6 11 9 44q2 23 39 38q30 11 56 11q37 0 37 -22zM614 456q48 35 148 97l48 -62q-10 -4 -188 -52q-5 6 -8 17z" />
    <glyph glyph-name="Omega" unicode="&#x3a9;" horiz-adv-x="726" 
d="M287 470h76q156 200 388 203q55 1 87 -22q29 -21 29 -54q0 -21 -12 -41q-15 -25 -55 -46q-35 -19 -55 -19q-8 0 -8 4q1 3 2 5q13 23 13 44q0 28 -24 48q-19 16 -37 16q-97 0 -184 -138h139l-20 -37h-141q-16 -32 -26 -63h147l-20 -37h-137q-4 -20 -4 -37
q0 -49 34.5 -78.5t84.5 -29.5q81 0 153 53h13l3 -12q0 -69 -112.5 -154.5t-186.5 -85.5q-86 0 -138.5 52t-52.5 139t34 153h-50l20 37h50q18 33 38 63h-68z" />
    <glyph glyph-name="Omega" unicode="&#x2126;" horiz-adv-x="726" 
d="M287 470h76q156 200 388 203q55 1 87 -22q29 -21 29 -54q0 -21 -12 -41q-15 -25 -55 -46q-35 -19 -55 -19q-8 0 -8 4q1 3 2 5q13 23 13 44q0 28 -24 48q-19 16 -37 16q-97 0 -184 -138h139l-20 -37h-141q-16 -32 -26 -63h147l-20 -37h-137q-4 -20 -4 -37
q0 -49 34.5 -78.5t84.5 -29.5q81 0 153 53h13l3 -12q0 -69 -112.5 -154.5t-186.5 -85.5q-86 0 -138.5 52t-52.5 139t34 153h-50l20 37h50q18 33 38 63h-68z" />
    <glyph glyph-name="radical" unicode="&#x221a;" horiz-adv-x="12" 
 />
    <glyph glyph-name="approxequal" unicode="&#x2248;" horiz-adv-x="14" 
 />
    <glyph glyph-name="approxequal" unicode="&#x22f2;" horiz-adv-x="14" 
 />
    <glyph glyph-name="Delta" unicode="&#x394;" horiz-adv-x="14" 
 />
    <glyph glyph-name="Delta" unicode="&#x2206;" horiz-adv-x="14" 
 />
    <glyph glyph-name="lozenge" unicode="&#x25ca;" horiz-adv-x="17" 
 />
    <glyph glyph-name="fraction" unicode="&#x2044;" horiz-adv-x="9" 
 />
    <glyph glyph-name="apple" unicode="&#xf000;" horiz-adv-x="17" 
 />
    <glyph glyph-name="dotlessi" unicode="&#x131;" horiz-adv-x="197" 
d="M371 255q-116 -208 -207 -252q-3 -3 -6 -5q-5 -5 -9 -5t-14.5 -1.5t-14.5 -1.5q-26 0 -42 20t-16 44q0 40 35 97q18 28 69 90q39 49 43 65t3 22l-7 25q0 1 3 13q40 32 94 32q31 0 31 -17q0 -11 -50 -71t-50 -86q0 -28 31 -28q3 0 10 4q16 -3 48.5 16.5t48.5 38.5z" />
    <glyph glyph-name="breve" unicode="&#x2d8;" horiz-adv-x="503" 
d="M92 825l20 10q17 -15 36 -26q46 -26 94 -28q69 0 127 54l21 -10q-52 -107 -151 -107q-98 0 -147 107z" />
    <glyph glyph-name="dotaccent" unicode="&#x2d9;" horiz-adv-x="503" 
d="M188 766q0 25 18 42t44 17t44 -17t18 -42q0 -24 -18 -41.5t-44 -17.5t-44 17.5t-18 41.5z" />
    <glyph glyph-name="ring" unicode="&#x2da;" horiz-adv-x="503" 
d="M250 875q35 0 61 -23.5t26 -58.5q0 -34 -26 -57.5t-61 -23.5t-60.5 23.5t-25.5 57.5q0 35 25.5 58.5t60.5 23.5zM250 825q-16 0 -26 -9.5t-10 -22.5q0 -12 10 -21.5t26 -9.5t26.5 9.5t10.5 21.5q0 13 -10.5 22.5t-26.5 9.5z" />
    <glyph glyph-name="hungarumlaut" unicode="&#x2dd;" horiz-adv-x="502" 
d="M234 733l79 134l64 -25q-48 -47 -118 -128q-22 6 -25 19zM124 733l79 134l64 -25q-48 -47 -118 -128q-22 6 -25 19z" />
    <glyph glyph-name="ogonek" unicode="&#x2db;" horiz-adv-x="502" 
d="M355 -91q-5 -38 -70 -68q-18 -8 -55 -15h-36q-56 0 -56 33q0 41 41 94t81 60q24 4 34 4h1q1 -1 13.5 -2t21.5 -9q-54 -20 -76 -62q-7 -22 -14 -43q-1 0 2.5 -8t23.5 -12q18 -4 46 9.5t27 13.5z" />
    <glyph glyph-name="caron" unicode="&#x2c7;" horiz-adv-x="505" 
d="M431 812l-186 -125q-71 48 -160 118l12 9l156 -48l164 54z" />
    </font>
</defs>
</svg>
