<?xml version="1.0" standalone="no"?>
<!DOCTYPE svg PUBLIC "-//W3C//DTD SVG 1.1//EN" "http://www.w3.org/Graphics/SVG/1.1/DTD/svg11.dtd" >
<svg>
<metadata>
Created by FontForge 20120731 at Tue Apr 16 16:57:10 2019
 By www-data
Digitized by Dan X.Solo. Software (c) 2000 by Dover Publications, Inc., New York.
</metadata>
<defs>
<font id="LilyAnn" horiz-adv-x="20" >
  <font-face 
    font-family="Lily Ann"
    font-weight="400"
    font-stretch="normal"
    units-per-em="1000"
    panose-1="0 0 4 0 0 0 0 0 0 0"
    ascent="800"
    descent="-200"
    x-height="330"
    cap-height="686"
    bbox="-37 -233 1202 845"
    underline-thickness="20"
    underline-position="-123"
    unicode-range="U+0020-F002"
  />
<missing-glyph horiz-adv-x="500" 
d="M63 0v800h375v-800h-375zM125 63h250v675h-250v-675z" />
    <glyph glyph-name=".notdef" horiz-adv-x="500" 
d="M63 0v800h375v-800h-375zM125 63h250v675h-250v-675z" />
    <glyph glyph-name=".null" horiz-adv-x="0" 
 />
    <glyph glyph-name="nonmarkingreturn" horiz-adv-x="216" 
 />
    <glyph glyph-name="space" unicode=" " horiz-adv-x="216" 
 />
    <glyph glyph-name="exclam" unicode="!" horiz-adv-x="355" 
d="M301 614q0 -78 -70 -217q-74 -147 -139 -173q0 25 2 79q3 51 3 78q0 128 -40 281q10 0 32 -2t33 -2q38 0 179 28v-72zM206 101q0 -51 -36 -78q-32 -24 -86 -24q-33 0 -60.5 30t-27.5 63q0 48 28.5 78t76.5 30q43 0 74 -28.5t31 -70.5z" />
    <glyph glyph-name="quotedbl" unicode="&#x22;" horiz-adv-x="392" 
d="M196 778q0 -48 -63 -139q-68 -99 -128 -117q71 168 64 277q70 -2 127 0v-21zM366 778q0 -48 -63 -139q-68 -99 -128 -117q71 168 64 277h127v-21z" />
    <glyph glyph-name="numbersign" unicode="#" horiz-adv-x="418" 
d="M252 318h-90l-29 -112h90zM52 416h58l13 104h61l-14 -104h90l13 104h61l-14 -104h66l-16 -98h-58l-29 -112h65l-17 -98h-58l-14 -110h-60l14 110h-90l-14 -110h-60l14 110h-63l15 98h58l29 112h-68z" />
    <glyph glyph-name="dollar" unicode="$" horiz-adv-x="406" 
d="M351 455q0 -17 -13.5 -28.5t-23.5 -11.5q-31 0 -47 44.5t-52 44.5q-31 0 -31 -26q0 -24 42 -45q64 -32 77 -42q42 -34 42 -89q0 -34 -21 -64q-25 -38 -70 -44h-66l-13 -113h-32l13 113h-27q-40 0 -73 10q-56 18 -56 59q0 5 10 18q12 17 28 23q35 -4 46 -29
q6 -22 13.5 -44.5t40.5 -22.5q22 0 37.5 11.5t15.5 29.5q0 22 -45 43q-70 34 -82 43q-44 31 -44 77q0 53 42 84q36 27 83 27h8.5h22.5l10 103h32l-11 -103h41q27 0 60 -16q43 -21 43 -52z" />
    <glyph glyph-name="percent" unicode="%" horiz-adv-x="713" 
d="M667 195q0 -87 -48 -144q-52 -62 -140 -62q-66 0 -102 42q-33 39 -32 101q3 93 63 145q53 46 134 48q125 2 125 -130zM427 524l-180 -534q-2 0 -14 1h-18l160 468q-18 -15 -57 -41q-21 -107 -62 -150.5t-122 -43.5q-68 0 -104 38q-33 35 -33 93q0 110 75 160
q57 37 143 33q93 -3 103 -115q9 5 50 52q33 38 59 39zM304 433l-6 34q1 11 -10.5 27t-19.5 15q-13 0 -13 -25q0 -6 2 -13q6 -31 47 -38zM652 196q-1 34 -15 64q-21 44 -61 44q-48 0 -75 -82q-19 -56 -19 -98q0 -106 54 -106q50 0 86 68q32 59 30 110zM304 417q-9 -2 -18 -2
q-34 0 -58 17.5t-22 47.5q1 10 2.5 21.5t16.5 29.5q-98 -35 -98 -183q0 -35 15 -66q18 -39 48 -35q80 9 114 170z" />
    <glyph glyph-name="ampersand" unicode="&#x26;" horiz-adv-x="760" 
d="M729 436q-5 -117 -146 -129h-50q-1 0 3 -28q5 -35 5 -61q0 -115 -100 -175q-78 -48 -182 -48q-110 0 -178 46q-79 54 -79 159q0 118 114 192q-28 43 -35 59q-12 27 -12 60q0 65 47 109t109 44q53 0 92 -29q43 -33 43 -85q0 -51 -33 -82q-29 -27 -71 -27q-49 0 -79 28.5
t-30 74.5q0 27 8 46q11 24 21 48q-56 -28 -75 -62q-14 -24 -14 -66q0 -34 14 -59q8 -15 37 -48q34 8 59 8q8 0 15 -1q69 -12 69 -37q0 -7 -6 -14q-17 -17 -42 -17q-39 0 -71 17.5t-33 17.5q-19 -1 -35 -32q-14 -27 -14 -47q0 -74 95 -107q60 -20 141 -20q55 0 111 20
q81 29 81 84q0 11 -3 23q-13 18 -81 18h-43q-33 -6 -33 -35q0 -14 20 -45q-5 2 -7 -0.5t-2 -4.5q-7 -1 -23 26q-22 34 -23 80q-1 70 50 104q42 27 107 27q7 0 80.5 -8.5t78.5 -8.5q16 0 35 8q26 10 26 27q0 15 -22 25q-15 8 -23 8q-18 0 -23 3q5 9 24 9q44 0 66 -34
q18 -27 17 -61zM262 370q-4 5 -10 12t-14 6q-46 12 -85 2q15 -22 84 -31q10 -2 25 11z" />
    <glyph glyph-name="quotesingle" unicode="'" horiz-adv-x="237" 
d="M196 778q0 -48 -63 -139q-68 -99 -128 -117q71 168 64 277q29 -1 127 0v-21z" />
    <glyph glyph-name="parenleft" unicode="(" horiz-adv-x="374" 
d="M325 689q-132 -240 -132 -593q0 -169 46 -261q-115 66 -175 184q-52 101 -52 214q0 297 313 456z" />
    <glyph glyph-name="parenright" unicode=")" horiz-adv-x="374" 
d="M325 290q0 -296 -313 -455q131 240 131 593q0 136 -45 261q114 -66 175 -184q52 -101 52 -215z" />
    <glyph glyph-name="asterisk" unicode="*" horiz-adv-x="508" 
d="M227 553l-26 168l105 3l-25 -166l151 80l36 -102l-167 -28l119 -112l-82 -72l-77 150l-80 -153l-84 60l118 120l-167 30l29 98z" />
    <glyph glyph-name="plus" unicode="+" horiz-adv-x="515" 
d="M26 290l13 96h171l25 177h95l-24 -177h177l-13 -96l-174 2l-28 -179h-95l28 179z" />
    <glyph glyph-name="comma" unicode="," horiz-adv-x="227" 
d="M190 87q5 -60 -44 -128q-54 -75 -134 -93l-7 14q115 45 136 128q-8 2 -22 -4t-17 -6q-37 -2 -66.5 26t-32.5 63q-2 36 23 65.5t60 30.5q52 2 80 -32q22 -26 24 -64z" />
    <glyph glyph-name="hyphen" unicode="-" horiz-adv-x="342" 
d="M267 121h-257l12 114h254z" />
    <glyph glyph-name="hyphen" unicode="&#x2010;" horiz-adv-x="342" 
d="M267 121h-257l12 114h254z" />
    <glyph glyph-name="period" unicode="." horiz-adv-x="271" 
d="M8 84q0 36 26 62t63 26q36 0 62 -26t26 -62q0 -37 -26 -62.5t-62 -25.5q-37 0 -63 25.5t-26 62.5z" />
    <glyph glyph-name="slash" unicode="/" horiz-adv-x="573" 
d="M-37 -233l484 940h96l-483 -940h-97z" />
    <glyph glyph-name="zero" unicode="0" horiz-adv-x="565" 
d="M594 435q-3 -54 -26 -79q-11 -13 -48 -31q-20 -137 -63 -207q-77 -125 -244 -118q-108 4 -164 70q-50 60 -50 161q0 151 93 230q84 71 230 72q105 0 155 -49q34 -33 41 -90q5 -48 4 -48q44 9 57 95q15 1 15 -6zM501 338l-2 51q0 14 -9 39q-12 33 -30 30q-15 -2 -24 -19
q-7 -13 -7 -25q0 -76 50 -76h22zM499 321q-16 -4 -33 -4q-47 0 -80 26q-37 28 -38 75q-2 32 18 57l30 32q-90 6 -135 -115q-32 -90 -32 -207q0 -154 68 -155q88 -1 149 108q51 91 53 183z" />
    <glyph glyph-name="one" unicode="1" horiz-adv-x="470" 
d="M444 31q3 -5 -2 -14q-32 -22 -99 -22q-61 0 -121.5 9t-94.5 9q-16 0 -115 -10q-1 4 4 12q9 4 48 8q33 3 39 16q49 105 51 379q-9 10 -35 10q-8 0 -35 -2q-21 -2 -31 -1q2 8 5 17q168 6 322 92h16q-14 -87 -27 -173q-24 -159 -24 -210l-3 -121q2 -15 27 -15q31 0 75 16z
" />
    <glyph glyph-name="two" unicode="2" horiz-adv-x="594" 
d="M244 20q-83 20 -136 20q-24 0 -45 -4q-6 -2 -37 -22q-23 -15 -27 -13q2 29 19 67q16 35 33 55q37 44 105 82t88 61q37 43 37 127q0 42 -29 78q-32 41 -79 41q-23 0 -39 -9q62 -6 85 -34q18 -21 18 -67q0 -47 -27 -76.5t-72 -29.5t-73 34q-23 29 -23 65q0 86 76 119
q53 23 160 23h47q30 -1 43 -1q68 0 109 -35q45 -39 45 -107q0 -101 -109 -149q-17 -8 -211 -59q-121 -31 -139 -89q40 32 105 51q58 16 110 16q38 0 124 -13t97 -13q56 0 47 58q2 2 8 0q8 -3 9 -3q0 -83 -49 -140q-50 -60 -131 -60q-12 0 -26 2t-113 25z" />
    <glyph glyph-name="three" unicode="3" horiz-adv-x="582" 
d="M529 134q0 -74 -70 -113q-51 -29 -111 -29q-3 0 -33 4t-35 4q-4 0 -50 -4.5t-51 -4.5q-182 0 -182 112q0 47 28 74t71 27q46 0 74.5 -27t28.5 -74q0 -66 -48 -88q3 -4 26 -4q55 0 84 60q21 45 21 98q0 60 -18 67q0 -1 -31 -7.5t-49 -6.5q-30 0 -59 11q-36 14 -36 39
q0 39 72 39q77 0 110 -28q48 52 48 111q0 42 -10 63q-14 31 -58 46l-23 -1q44 -37 44 -83q0 -39 -24 -63t-62 -24t-66 24.5t-28 63.5q0 58 53 86q39 21 93 21q117 0 175 -19q105 -33 105 -130q0 -77 -70 -117q81 -41 81 -127zM253 256q-28 37 -102 37q-35 0 -42 -22
q21 -28 55 -30q72 -5 89 15z" />
    <glyph glyph-name="four" unicode="4" horiz-adv-x="605" 
d="M585 238q-1 -5 3 -12q-29 -22 -105 -46l-17 -154q7 -14 17 -14q6 0 23 6q23 7 40 11l3 -13q-38 -20 -63 -23q-2 -1 -45 -1q-5 0 -87.5 7t-87.5 7q-85 0 -111 -12l-7 13q14 6 28 10q33 11 62 11q13 17 19 64l10 88q-24 10 -84 32q-73 -74 -133 -74q-23 0 -39 15t-16 34
q0 49 92 58q41 4 89 -12q32 33 51 93q17 53 17 104q0 22 -2 27q-44 -70 -108 -70q-41 0 -74 27q-36 29 -36 74q0 40 33 72.5t76 34.5q69 2 103 -56q27 -44 27 -106q0 -47 -15 -101q-18 -63 -49 -104q3 -7 70 -26q8 93 28 277q54 3 90 8q72 10 124 28l-26 -311h11q20 0 89 34
zM160 217q-36 8 -64 8q-77 0 -77 -41q0 -24 36 -24q52 0 105 57z" />
    <glyph glyph-name="five" unicode="5" horiz-adv-x="536" 
d="M522 560q-10 -92 -109 -154q-86 -54 -175 -54q-8 0 -101 11q-33 -54 -30 -57q17 11 73.5 22t105.5 11q76 0 127 -41t51 -112q0 -108 -103 -159q-74 -36 -174 -36q-189 0 -189 127q0 38 34 67q31 26 65 26q41 0 70 -29.5t29 -67.5q0 -26 -21 -54.5t-56 -44.5q2 -2 21 -2
q59 0 89 53q24 42 24 98q0 52 -25 85q-30 39 -88 39q-39 0 -59 -29t-30 -29q-20 0 -20 18q25 15 71 98q51 94 51 153q0 14 -3 24q27 -19 71 -24q15 -2 71 -2q151 0 230 63z" />
    <glyph glyph-name="six" unicode="6" horiz-adv-x="570" 
d="M509 248q0 -77 -53 -159q-62 -96 -148 -97q-61 -1 -90 10q-20 -8 -72 -10q-65 5 -104 76q-31 58 -31 122q0 139 111 253q117 122 283 124l8 -9q-69 -9 -129.5 -80.5t-65.5 -142.5q75 81 144 81q70 0 112 -58q35 -48 35 -110zM361 115q0 46 -23 116q-31 99 -84 99
q-44 0 -44 -69q0 -41 27 -128q36 -116 85 -116q39 0 39 98zM-274 212z" />
    <glyph glyph-name="seven" unicode="7" horiz-adv-x="542" 
d="M517 520q-65 -86 -94 -133q-46 -76 -66 -149q25 0 59 6q19 3 37 6q-4 -19 -24 -19q-52 -10 -75 -8q-35 -166 -32 -199q15 -7 45 -7q32 0 65 5q1 -4 1 -12q-33 -14 -110 -14l-197 15q-15 3 -137 -14v10q14 7 29 12q34 12 64 14q15 59 44 175q-23 2 -71 -14q4 12 15 18
q15 8 40 11q21 2 22 3q50 100 88 151q43 58 110 108q-9 4 -59.5 12t-70.5 8q-40 0 -75 -13q31 -19 42 -36.5t11 -49.5q0 -45 -26 -74t-69 -29q-40 0 -66 25.5t-26 61.5q0 75 81 110q55 23 127 23l181 -19q73 0 137 16z" />
    <glyph glyph-name="eight" unicode="8" horiz-adv-x="517" 
d="M468 203q-3 -100 -105 -161q-81 -50 -165 -50q-69 0 -121 25q-72 33 -72 103q0 42 31 76.5t86 52.5q-30 40 -34 49q-12 23 -12 56q0 84 72 132q59 38 138 41q57 1 100 -23q54 -31 54 -88q0 -46 -42 -87q72 -44 70 -126zM376 430q0 27 -23 52.5t-58 25.5q-26 0 -45 -13
q-22 -15 -22 -43q0 -24 47 -56q43 -30 64 -30q10 0 23.5 23t13.5 41zM295 104q0 47 -54 91q-50 42 -92 42q-21 0 -37 -50q-12 -37 -12 -52q0 -44 20 -77q25 -44 78 -44q97 0 97 90z" />
    <glyph glyph-name="nine" unicode="9" horiz-adv-x="564" 
d="M509 330q0 -161 -130.5 -268t-313.5 -108l-44 5q76 9 154 69q86 65 94 138q-62 -50 -124 -50q-72 0 -106 54q-28 43 -28 110q0 154 101 212q71 40 209 37q86 -3 140 -69q48 -58 48 -130zM311 346q0 38 -12 83q-21 74 -64 74q-31 0 -49 -66q-13 -49 -13 -95q0 -48 16 -92
q21 -60 58 -60q39 0 55 69q9 40 9 87z" />
    <glyph glyph-name="colon" unicode=":" horiz-adv-x="260" 
d="M6 84q0 31 19.5 55t49.5 31q-45 25 -45 76q0 37 25.5 62.5t61.5 25.5t62 -25.5t26 -62.5q0 -30 -19 -54t-49 -31q46 -25 46 -77q0 -37 -26 -62.5t-62 -25.5q-37 0 -63 25.5t-26 62.5z" />
    <glyph glyph-name="semicolon" unicode=";" horiz-adv-x="263" 
d="M186 78q4 -57 -42 -121q-51 -72 -127 -89l-6 14q108 42 129 122q-8 1 -20 -4q-15 -6 -18 -6q-35 -2 -63 24.5t-30 59.5q-2 31 17 57t48 33q-46 26 -46 78q0 37 26.5 63.5t63.5 26.5t63.5 -26.5t26.5 -63.5q0 -31 -19.5 -55.5t-49.5 -31.5q43 -23 47 -81z" />
    <glyph glyph-name="less" unicode="&#x3c;" horiz-adv-x="1090" 
d="M1042 293q0 -101 -71 -171t-171 -70q-51 0 -99 27q-20 11 -78 56q-48 37 -84 51q-8 10 -8 18q0 14 19 14q21 0 66 -32q69 -50 87 -61q56 -32 106 -32q69 0 125.5 54.5t56.5 123.5t-42 117q-9 11 -77 65q-42 33 -42 66q0 40 46 40q71 0 122 -101q44 -85 44 -165zM861 346
q0 -64 -50 -98q-42 -30 -109 -30q-55 0 -172 62q-101 56 -201 112q-107 58 -144 52q59 -38 118 -75q78 -50 116 -93q52 -59 52 -126q0 -46 -31.5 -70.5t-79.5 -24.5q-126 0 -236 142q-102 131 -109 265l-4 70l-3 38q49 -24 189 -24q38 0 113.5 7.5t112.5 7.5q438 0 438 -215
zM740 381q0 79 -106 117q-76 27 -173 27q-50 0 -150 -6t-150 -6q-28 0 -112 12q-7 -10 -7 -39q0 -102 78 -218q85 -126 181 -126q34 0 54 22t20 55q0 60 -70 120q-49 42 -129 81l-70 32l3 5l29 8q87 0 212 -57q101 -47 201 -95q20 -7 54.5 -10t48.5 -6q52 20 60 26
q26 18 26 58z" />
    <glyph glyph-name="equal" unicode="=" horiz-adv-x="463" 
d="M410 282l-390 -1l12 94h387zM400 122l-390 -1l12 94h387z" />
    <glyph glyph-name="greater" unicode="&#x3e;" horiz-adv-x="1090" 
d="M8 293q0 -101 70.5 -171t171.5 -70q51 0 98 27q20 11 78 56q48 37 84 51q9 10 9 18q0 14 -20 14q-21 0 -66 -32q-68 -50 -86 -61q-57 -32 -106 -32q-69 0 -126 54.5t-57 123.5t42 117q10 11 78 65q42 33 42 66q0 40 -47 40q-71 0 -122 -101q-43 -85 -43 -165zM189 346
q0 -64 49 -98q43 -30 110 -30q54 0 172 62l200 112q108 58 144 52q-59 -38 -117 -75q-78 -50 -116 -93q-53 -59 -53 -126q0 -46 34 -72q29 -23 77 -23q127 0 236 142q102 131 110 265l4 70l3 38q-49 -24 -190 -24q-37 0 -112.5 7.5t-113.5 7.5q-437 0 -437 -215zM309 381
q0 79 107 117q75 27 172 27q50 0 150 -6t150 -6q28 0 112 12q7 -10 7 -39q0 -102 -78 -218q-85 -126 -181 -126q-33 0 -53 22t-20 55q0 60 69 120q49 42 129 81q35 16 71 32l-3 5l-30 8q-87 0 -211 -57q-101 -47 -202 -95q-20 -7 -52 -10q-37 -3 -51 -6q-51 20 -60 26
q-26 18 -26 58z" />
    <glyph glyph-name="question" unicode="?" horiz-adv-x="457" 
d="M413 536q0 -96 -74 -142q-20 -13 -137 -52q-74 -24 -74 -68q0 -18 22 -32q18 -11 29 -11q30 0 51 26l28 42l15 -4q-11 -50 -47 -72q-21 -13 -40 -13q-28 0 -56 22t-26 51q1 25 49.5 108t48.5 147q0 98 -83 98q-60 0 -79 -48q17 3 33 3q89 0 89 -83q0 -30 -18 -56
q-23 -33 -59 -33q-39 0 -65 31t-26 72q0 156 229 156q16 0 56 -2q62 -2 100 -48q34 -41 34 -92zM287 103q0 -48 -30.5 -78.5t-73.5 -30.5q-46 0 -76.5 28.5t-30.5 71.5q0 41 31.5 71t78.5 30q48 0 76 -28q25 -26 25 -64z" />
    <glyph glyph-name="A" unicode="A" horiz-adv-x="952" 
d="M941 306q0 -36 -29.5 -62.5t-65.5 -22.5q-12 -85 -12 -99q0 -88 41 -88q12 0 23.5 12t23.5 24l4 -11q-22 -39 -53 -52q-19 -9 -56 -10q-22 -1 -59 10q-42 -10 -49 -10q-33 0 -52 31q-16 26 -16 56t4 67q7 57 8 68q-10 -2 -21 -2q-50 0 -68 38q-39 -50 -100 -43
q-9 -51 -19 -102q-13 -54 -40 -79q-33 -31 -96 -31h-150q-54 0 -94 25q-46 30 -46 82q0 40 27.5 67t67.5 27q44 0 73.5 -28t29.5 -71q0 -14 -16.5 -36.5t-29.5 -32.5q9 -1 16 -1q50 0 68 67q3 12 14 106q-32 4 -60.5 29t-28.5 55q0 46 30 74.5t82 24.5q16 163 54 219
q53 78 199 78q49 0 151 -8t153 -8q48 0 80 4q-36 -58 -47 -143q-8 -75 -16 -149q75 2 75 -75zM697 606q2 28 -23 43q-20 12 -49 12q-109 0 -133 -192q-2 -33 -11 -83q62 0 84 -39q28 44 83 44q14 0 28 -3zM849 327q-11 -17 -11 -40q0 -33 42 -33q21 0 35 17t14 37
q0 63 -66 63q-56 0 -107 -73q-49 79 -105 79q-29 0 -55 -17q-29 -20 -29 -50q0 -60 61 -60q21 0 35 13.5t14 35.5q0 11 -4 22q3 2 7 2q25 0 43 -31t16 -75q46 110 110 110zM485 374q-64 0 -118 -82q-19 41 -34 56q-22 23 -61 23q-28 0 -51 -19.5t-23 -47.5q0 -21 15.5 -39
t36.5 -18q17 0 29.5 11.5t12.5 28.5q0 12 -11 31q6 2 13 2q25 0 43 -30q11 -17 28 -62q11 36 38 66t52 30q7 0 8 -3q-13 -20 -13 -33q0 -20 14.5 -32.5t33.5 -12.5q28 0 45.5 18t17.5 46q0 30 -23 48.5t-53 18.5z" />
    <glyph glyph-name="B" unicode="B" horiz-adv-x="905" 
d="M861 522q0 -61 -32 -110t-87 -72q96 -46 96 -154q0 -95 -66 -147q-60 -46 -158 -46q-60 0 -123 20q-68 23 -108 61q-35 -50 -99 -69q-45 -12 -122 -12q-167 0 -167 104q0 37 28 60.5t66 23.5q37 0 64 -25t27 -62q0 -34 -36 -75q99 25 117 183q-37 4 -61 25q-27 23 -27 58
q0 42 33.5 70.5t74.5 25.5v11q1 56 -12 98q-20 60 -64 60q-51 0 -51 -75v-23q1 -16 1 -20q-2 4 -16 2q-3 39 -3 44q0 80 59.5 139.5t140.5 59.5q49 0 90 -52q32 -41 48 -97q67 149 221 149q71 0 118 -41q48 -44 48 -114zM700 443q0 40 -32 68.5t-72 28.5q-60 0 -92 -36.5
t-32 -97.5q0 -35 -1 -29q18 1 41.5 -16.5t31.5 -35.5q37 9 75.5 18.5t56.5 28.5q24 24 24 71zM639 188q0 33 -21 67q-24 39 -54 40l-14 1q2 -37 -21.5 -64.5t-60.5 -27.5q-2 0 -7 1h-8q-3 0 -6 -6q-8 -14 -23 -56q-12 -36 -26 -54q41 -35 94 -35q58 0 102.5 38t44.5 96z
M460 364q-56 0 -104 -68q-36 70 -86 70q-29 0 -55.5 -22.5t-26.5 -51.5q0 -21 13.5 -35t35.5 -14q42 0 42 39q0 10 -12 28q5 5 11 5q49 0 73 -79q47 81 89 81q8 0 12 -6q-12 -14 -12 -29q0 -17 13.5 -28t29.5 -11q22 0 36.5 17t14.5 39q0 27 -23.5 46t-50.5 19z" />
    <glyph glyph-name="C" unicode="C" horiz-adv-x="740" 
d="M709 570q0 -79 -55 -154q-51 -69 -126 -109q-21 -10 -82 -30q-11 -14 -23 -29q-23 -27 -50 -26q0 -3 -1.5 -9.5t-1.5 -9.5q0 -76 26 -124q32 -62 101 -62q88 0 151 127l12 -8q-23 -53 -49 -81q-30 -34 -79 -50q-26 -9 -32 -9h-148q-101 0 -149 57q-42 49 -55 156
q-52 25 -66 55q-37 9 -60.5 40t-23.5 71q0 118 115 159q37 13 47 13q4 0 9 -14q-72 -19 -107 -47q-47 -38 -47 -104q0 -34 15 -60q17 -31 49 -35v6q-2 46 42 69q22 9 45 17q10 29 33 87q92 212 245 212q16 0 49 -7t49 -7q11 0 35 8.5t35 8.5q97 0 97 -111zM592 572
q0 27 -8 49q-11 30 -32 30q-50 0 -103 -114q-42 -89 -55 -161q23 -1 39 -28q14 -23 16 -49q58 22 102 118q41 86 41 155zM370 367q-28 0 -61 -24q-28 -22 -47 -50q-32 71 -95 71q-28 0 -50.5 -17.5t-22.5 -46.5q0 -17 18 -33.5t35 -16.5q37 0 37 38q0 5 -1 15t-1 14v5l17 -1
q17 -2 35.5 -38t16.5 -73q47 110 98 110q4 0 9 -5q-13 -13 -13 -25q0 -17 14 -27t30 -10q47 0 47 51q0 27 -19 45t-47 18z" />
    <glyph glyph-name="D" unicode="D" horiz-adv-x="920" 
d="M904 304q0 -64 -79 -76q-43 -98 -74 -139q-52 -71 -125 -88q-18 -4 -61 -4q-67 0 -132.5 16.5t-97.5 16.5q-22 0 -76.5 -18t-97.5 -18q-16 0 -34 2q-41 5 -69 23q16 5 28 11q30 15 41.5 36t23.5 67.5t12 69.5q-70 28 -70 89q0 77 95 91q18 82 92 166q82 93 156 83l33 -6
q-37 -50 -51 -124q-5 -30 -12 -125q57 -12 61 -75q1 -29 -18 -53q-23 -28 -64 -32l-34 -80q-28 -66 -60 -95q7 0 26 4t21 4q19 1 58 -8.5t40 -9.5q21 0 28 2q21 6 53.5 38t44.5 58q18 36 28 89q-64 32 -64 81q0 30 29 57t66 34q0 54 -3 74q-4 27 -19 70q-20 56 -82 94
q-59 35 -121 35q-114 0 -233 -93q-130 -101 -130 -222q0 -4 10 -50.5t10 -50.5q0 -37 -18 -37q-39 0 -39 83q0 164 139 280q129 109 289 111q143 1 232 -32q63 -23 118 -94.5t63 -133.5q3 -22 6 -43q61 -24 61 -78zM763 352q-17 -11 -49 -53l-24 42q-16 25 -35 30
q-14 4 -32 4q-24 0 -48 -19q-27 -22 -27 -52q0 -16 11 -30q13 -17 38 -17q42 0 42 37q0 17 -7 26q12 5 32 -4q6 -3 31 -49q5 -9 10 -26q19 30 25 37q15 20 31.5 33t34.5 15q5 1 14 -2q-4 -16 -4 -30q0 -41 37 -41q48 0 48 57q0 28 -19.5 43.5t-48.5 15.5q-32 0 -60 -17z
M387 367q-61 0 -114 -72q-20 72 -87 72q-31 0 -52.5 -18.5t-21.5 -48.5q0 -16 13 -33q15 -20 37 -20q41 0 41 38l-7 28v2q29 1 45 -19q13 -17 23 -62q16 28 42 54q32 32 55 32q8 0 14 -4q-11 -16 -11 -28q0 -13 12 -25.5t28 -12.5q20 0 33.5 16.5t13.5 37.5q0 26 -18 44.5
t-46 18.5z" />
    <glyph glyph-name="E" unicode="E" horiz-adv-x="661" 
d="M622 577q0 -24 -15 -43t-38 -19q-21 0 -35.5 14t-14.5 35q0 48 47 48q11 0 19 -3q-27 32 -68 32q-68 0 -108 -34q-45 -36 -45 -102q0 -27 12 -45q12 2 35 2q141 0 141 -68q0 -67 -127 -67q-74 0 -110 8q-12 -11 -7 -17q25 -6 41 -34q15 -24 15 -49q0 -22 -18.5 -45.5
t-39.5 -30.5q24 -107 166 -107q17 0 30 9q-91 20 -91 102q0 39 29.5 68t68.5 29q37 0 63.5 -29t26.5 -66q0 -85 -87 -132q-71 -37 -164 -37q-73 0 -138 21q-77 26 -114 75q-5 8 -26 51q-20 13 -39 26q-35 26 -35 73q0 36 25.5 57.5t57.5 21.5q7 0 13 -1q2 -1 6.5 9t11.5 16
q48 48 87 64q-47 43 -47 101q0 91 99 135q75 34 179 34q62 0 119 -22q75 -29 75 -80zM535 393q0 23 -40 38q-32 11 -61 11q-8 0 -24 -1h-25q8 -24 49 -48.5t68 -24.5q33 0 33 25zM283 305q-56 0 -88 -41q-5 -7 -16 -23q-31 64 -102 64q-28 0 -47 -18.5t-19 -46.5
q0 -22 15.5 -38.5t38.5 -16.5q41 0 41 56q0 9 -1 18h16q19 0 59 -67q11 30 34.5 51.5t47.5 21.5q9 0 13 -6q-16 -16 -16 -32q0 -35 42 -35q48 0 48 48q0 30 -19 47.5t-47 17.5z" />
    <glyph glyph-name="F" unicode="F" horiz-adv-x="708" 
d="M703 636q0 -78 -101 -100q13 -9 23.5 -31t10.5 -39q0 -20 -18 -45q-23 17 -47 35q-29 21 -50 25q-22 -10 -28 -65q-3 -44 -5 -87q83 -3 83 -93q0 -26 -25 -46.5t-52 -20.5q-14 0 -23 6v-33q0 -123 -76 -208q-79 -88 -202 -88q-7 0 -20 -1h-19q-62 0 -106 15
q-64 21 -65 70q-2 61 69 117q55 43 138 73q71 27 89 22l2 22q-35 3 -58 23q-28 22 -28 58q0 39 31 62q28 21 68 23q3 9 8 49q3 27 20 48q39 48 118 68q-104 27 -301 27q-109 0 -109 -66q0 -24 14 -48q17 -27 39 -27q4 0 33 18.5t34 18.5q16 0 28 -11t12 -26q0 -20 -20.5 -32
t-41.5 -12q-50 0 -84.5 39t-34.5 91q0 112 73 170q67 52 182 52q60 0 175 -25t175 -25q34 0 67 30q22 -20 22 -33zM278 120q-47 -4 -82.5 -50t-35.5 -95q0 -31 14 -64q17 -40 44 -40q40 0 60 249zM485 316q-43 0 -66 -19q-11 -9 -41 -52q-37 70 -90 70q-29 0 -51 -15
q-25 -18 -25 -48q0 -21 15.5 -37.5t36.5 -16.5q43 0 43 47q0 10 -4 20q25 -4 44 -28q20 -27 22 -65q44 101 96 101q4 0 9 -1q-11 -18 -11 -36q0 -17 12 -29t29 -12t35 15.5t18 33.5q0 32 -20 52t-52 20z" />
    <glyph glyph-name="G" unicode="G" horiz-adv-x="798" 
d="M784 312q-54 -33 -64 -119l-8 -142q-14 -101 -151 -145q-94 -31 -226 -31q-245 0 -245 129q0 47 35 75q32 27 80 27q47 0 83.5 -30.5t36.5 -76.5q0 -27 -16 -53t-40 -38q25 -13 47 -13q88 0 131 40q35 33 47 103q4 21 12 139q-65 -33 -86 -40q-40 -14 -95 -14
q-77 0 -135 37q-66 43 -68 116q-3 -1 -6 -1q-26 0 -46.5 24t-18.5 53q-60 43 -60 98q0 59 42 89q37 26 96 26l4 -16q-8 1 -15 1q-47 0 -77.5 -26.5t-30.5 -72.5q0 -29 11 -47q9 -13 34 -34q5 24 33 41.5t45 13.5q11 96 95.5 173.5t181.5 77.5q14 0 40.5 -3.5t40.5 -3.5
q18 0 55.5 8.5t56.5 8.5q70 0 116 -27q58 -33 58 -97q0 -104 -114 -182q-103 -69 -213 -69q-26 0 -36 4q-25 -28 -58 -32v-14q0 -36 26 -64t62 -28q34 0 64 39q49 64 58 72q44 39 113 39q73 0 105 -15zM589 579q0 73 -62 73q-84 0 -147 -173q-15 -42 -15 -54q24 -8 42 -28
q20 -23 16 -45q60 30 110 95q56 71 56 132zM338 414q-40 0 -66 -17q-21 -14 -42 -49q-33 61 -93 61q-30 0 -51 -16.5t-21 -46.5q0 -21 15.5 -37.5t36.5 -16.5q17 0 29.5 13t12.5 29q0 5 -6 29h16q14 0 33 -22.5t31 -48.5q18 40 38 57t53 17h4l-1 -2l-4 -8q-7 -11 -7 -17
q0 -16 15.5 -28t30.5 -12q18 0 33 18.5t15 36.5q0 25 -23.5 42.5t-48.5 17.5z" />
    <glyph glyph-name="H" unicode="H" horiz-adv-x="867" 
d="M857 595q-1 -60 -31 -106q-21 -34 -58 -62q-24 -15 -47 -30q1 -1 1 -3t-2.5 -6.5t-2.5 -6.5q0 -1 2 -2q35 -6 57 -30q19 -23 19 -51q0 -35 -30 -62t-65 -22q-10 -43 -10 -96q0 -84 41 -84q12 0 23.5 11.5t23.5 24.5l4 -11q-22 -39 -53 -53q-19 -8 -56 -10q-22 0 -59 11
q-42 -11 -49 -11q-33 0 -56 29q-21 26 -21 54l13 128q-10 5 -18 10q-20 13 -26 27q-15 -19 -37 -26q-11 -3 -21 -5q-7 -9 -15 -44q-10 -41 -17 -56q-22 -48 -61 -81q-45 -39 -92 -39h-115q-87 0 -87 76q0 42 28 88q31 50 86 87q-21 40 -14 70q7 32 37.5 52.5t62.5 16.5
q19 121 38 253v21q2 0 -58 0q-59 0 -106 -43.5t-47 -100.5q0 -34 23 -53q2 -2 43 -26q23 -13 23 -32q0 -10 -11 -25t-22 -15q-39 0 -61 56q-15 39 -15 70q0 95 65 145q55 41 140 41q3 0 67.5 -3t69.5 -3q7 0 110 6q2 -3 5 -8q-32 -49 -58 -296q13 -5 37 -26q6 15 26 22
q1 1 35 10q5 41 8 63q6 38 14 61q43 122 109 156q39 20 144 20q35 0 53 -31q14 -23 13 -50zM843 595q0 8 -7 26q-8 24 -19 26q-46 -5 -68 -89q-3 -10 -24 -141q44 11 83 76q35 59 35 102zM188 177v37q-19 -2 -34.5 7t-17.5 8q-46 -19 -79 -80q-28 -49 -28 -78q0 -58 41 -58
q44 0 84 70q34 60 34 94zM715 364q-61 0 -110 -73q-33 70 -83 70q-28 0 -46 -18t-18 -48q0 -16 12 -32q15 -21 39 -21q13 0 28.5 11t15.5 28q0 4 -3.5 14t-2.5 15q17 -3 32 -27t21 -53q17 41 48 67q27 23 49 23q6 0 9 -1q-18 -14 -18 -36q0 -15 16.5 -28t31.5 -13
q19 0 33 18t14 36q0 30 -19 49t-49 19zM371 310q-8 -11 -8 -22q0 -16 12 -27.5t29 -11.5q22 0 37 20q13 17 13 38q0 22 -19 38t-43 16q-32 0 -56 -26q-31 -35 -41 -41q-34 74 -85 74q-41 0 -63 -21.5t-22 -52.5q0 -25 18 -39q15 -12 34 -12q12 0 29.5 11.5t17.5 28.5
q0 4 -6 18q-4 9 -5 13l14 3q33 -7 69 -82q10 25 33 50t37 25h5z" />
    <glyph glyph-name="I" unicode="I" horiz-adv-x="680" 
d="M668 299q0 -84 -96 -93q-55 -123 -86 -158q-45 -49 -136 -55q-23 -2 -49.5 5t-19.5 7q-4 0 -42.5 -6t-42.5 -6q-77 0 -131 36q-66 42 -66 120q0 68 49 106q43 33 104 33q54 0 98 -22q-7 -10 -7 -14q-37 19 -86 19q-61 0 -97 -30q-40 -32 -40 -94t46 -97q40 -30 96 -30
q151 0 207 177q-39 18 -50 26q-33 27 -32 70q3 76 107 93q12 44 12 70q0 96 -69 96q-43 0 -66 -28q-21 -24 -21 -63q0 -32 13.5 -54.5t13.5 -32.5q0 -11 -10.5 -23t-19.5 -12q-18 0 -29 22q-9 19 -9 40q0 91 82 185q87 99 185 100q137 -6 137 -139q0 -30 -8 -90
q-8 -56 -7 -77q70 -21 70 -81zM587 361q-60 0 -110 -79q-34 84 -87 84q-29 0 -56 -23t-27 -49q0 -52 50 -52q13 0 28.5 12.5t15.5 28.5q0 -9 -7 33l17 -8q45 -14 56 -79q17 23 49 61q24 27 49 27q8 0 11 -3q-16 -18 -12 -47q14 -26 40 -26q22 0 36 19q12 16 12 38
q0 25 -18 44t-47 19z" />
    <glyph glyph-name="J" unicode="J" horiz-adv-x="603" 
d="M592 296q-4 -81 -100 -90q-27 -211 -103 -295q-70 -77 -214 -77q-67 0 -120 23q-78 34 -78 105q0 47 28.5 78t71.5 31q44 0 72 -30.5t28 -71.5q0 -70 -78 -105q12 -7 32 -7q58 0 98 85q29 60 46 159q7 46 13 92q-84 38 -82 103q1 46 48 71q39 20 61 13q11 50 11 76
q0 96 -69 96q-43 0 -66 -28q-21 -24 -21 -63q0 -32 13.5 -54.5t13.5 -32.5q0 -11 -10.5 -23t-19.5 -12q-18 0 -29 22q-9 19 -9 40q0 91 82 185q87 99 185 100q137 -6 137 -139q0 -30 -8 -90q-8 -56 -7 -77q78 -14 74 -84zM507 361q-60 0 -110 -79q-33 82 -82 80
q-37 -2 -61.5 -20.5t-24.5 -45.5q0 -35 14 -46q9 -8 36 -8q13 0 27.5 12.5t14.5 28.5q0 3 -5 17q-1 3 -3 10l18 -2q13 -4 35 -36.5t24 -46.5q13 19 41 54q37 40 52 40q7 0 13 -5q-18 -20 -12 -47q14 -26 40 -26q22 0 36 19q12 16 12 38q0 25 -18 44t-47 19z" />
    <glyph glyph-name="K" unicode="K" horiz-adv-x="761" 
d="M791 579q0 -47 -29 -81t-73 -34q-93 0 -93 108q0 15 2 31q-39 -48 -58.5 -139.5t-60.5 -137.5l48 -4q47 -5 73 -21q38 -23 36 -65q0 -26 -6 -86q-6 -56 -6 -86q0 -50 31 -43q9 3 50 34q-1 -4 3.5 -4t3.5 -2q-35 -48 -102 -48l-20.5 -1t-39.5 -2q-27 0 -53 2q-38 3 -52 21
t-14 55q16 178 16 160q0 8 -1 7q-33 -26 -76 -24q-49 -117 -110 -171t-148 -54q-78 0 -113 45q37 4 48 9q60 30 119 176q-71 15 -71 83q0 78 100 79q13 56 13 90q0 90 -55 90q-33 0 -47 -31q-8 -16 -17 -65q-7 4 -12 2q-3 -1 -3 0q-3 92 71 154q65 55 141 55q66 0 99 -44
q27 -37 27 -95q0 -94 -28 -156q33 -8 39 -10q26 -11 40 -37q26 17 51 106q31 114 52 152q42 78 114 80q42 2 76.5 -28.5t34.5 -69.5zM386 371q-24 0 -61 -26q-32 -23 -50 -47q-32 73 -91 73q-28 0 -50.5 -19t-22.5 -47q0 -19 13.5 -34t37.5 -15q13 0 28.5 10t15.5 27
q0 4 -6 18q-1 3 -4 10q41 2 59 -52q3 -8 10 -30q10 11 27 32q44 49 75 49q5 0 5 -1q-10 -15 -10 -29q0 -18 14 -29.5t30 -11.5q18 0 36 16t18 40q0 27 -23.5 46.5t-50.5 19.5z" />
    <glyph glyph-name="L" unicode="L" horiz-adv-x="715" 
d="M694 577q0 -35 -21 -62q-23 -30 -62 -30q-36 0 -61 26t-25 59q0 27 17 52q-4 2 -8 2q-27 0 -39 -61q-7 -37 -7 -79v-105q52 -20 52 -69q0 -61 -79 -84q-4 -11 -9 -22q-11 -26 -29 -44q46 -29 91 -57q83 -51 104 -51q27 0 61 37l14 -11q-65 -78 -135 -160q-17 -11 -46 -11
q-38 0 -88 32q-23 15 -80 60q-40 33 -52 33q10 0 -48 -17t-132 -17q-41 0 -73 13q-45 19 -45 56q0 70 117 104q82 24 124 21q3 4 12 30q-72 22 -72 77q0 81 82 87q5 144 95 222q80 70 200 70q55 0 92 -19q50 -26 50 -82zM201 105q-25 25 -101 25q-25 0 -53 -13
q-36 -18 -36 -46q0 -47 60 -47q32 0 69 20q45 23 61 61zM442 329q-6 -15 -4 -37q3 -35 37 -35q18 0 35 15t17 37q0 27 -19 43t-46 16q-54 0 -107 -69q-35 69 -91 69q-28 0 -49 -16q-23 -19 -23 -48q0 -18 13.5 -34t35.5 -16q13 0 27 11q18 14 18 34q0 -1 -9 26h12
q19 0 38 -37q14 -30 19 -56q40 94 96 97z" />
    <glyph glyph-name="M" unicode="M" horiz-adv-x="933" 
d="M917 660q-61 -88 -103 -283q32 0 58 -25t26 -58q0 -31 -24 -57t-55 -26q-10 0 -20 4q-7 -25 -7 -94q0 -83 41 -83q17 0 37 32q2 -2 11 -5q-8 -36 -66 -60q-48 -20 -93 -20q-76 0 -104 22.5t-28 94.5q0 -8 3 111q-19 12 -22 14q-10 8 -16 20q-23 -37 -43 -31
q-40 -225 -182 -225q-16 0 -40 10q33 59 33 131q0 45 -15 81q-18 -7 -29 -6q-34 -222 -171 -222q-50 0 -78.5 28t-28.5 78q0 45 31.5 74t77.5 29q44 0 69 -32t25 -78q0 -17 -4 -35q27 29 41 75q8 25 18 85q-49 28 -49 83q0 73 84 89q4 128 76 210q76 87 202 87q18 0 18 -10
q0 -2 -18.5 -34.5t-21.5 -38.5q-31 -80 -31 -145v-40q46 111 122 183q90 85 198 85q58 0 78 -18zM681 596q-26 -7 -91 -102.5t-65 -123.5q0 -2 4.5 -4t25.5 -24q24 31 65 32q3 73 61 222zM808 362q-35 0 -61 -18q-16 -11 -44 -45q-29 59 -82 59q-26 0 -44.5 -15.5
t-18.5 -41.5q0 -21 13.5 -36t33.5 -15q42 0 42 39q0 14 -4 24l1 1q15 -8 33 -29q20 -24 24 -44q46 84 94 84q-2 0 7 -7q-8 -24 -8 -39q0 -18 14 -29.5t32 -11.5q20 0 32 21q11 18 11 37q0 28 -23 47t-52 19zM494 358q-63 0 -98 -66q-40 72 -95 72q-27 0 -50.5 -19.5
t-23.5 -47.5q0 -20 15.5 -37t36.5 -17q18 0 31.5 13t13.5 31q0 8 -8 28h11q18 -2 40 -30t31 -59q11 35 30.5 61.5t39.5 26.5q6 0 8 -1q-6 -12 -6 -24q0 -42 41 -42q21 0 33 19q11 16 11 36q0 24 -19 40t-42 16z" />
    <glyph glyph-name="N" unicode="N" horiz-adv-x="840" 
d="M820 293q-2 -52 -55 -77q-28 -13 -47 -11q-10 -57 -21 -122q-2 -40 -2 -32q0 -19 14 -19q24 0 45 29l-1 -15q-1 -23 -44 -37q-32 -10 -51 -10h-108q-58 0 -53 74l24 132q-47 2 -71 43q-61 -39 -82 -38l-36 -187l51 -1l-2 -23h-308q2 5 4 22h55q16 88 35 181
q-39 -1 -63 26q-20 25 -18 56q5 88 109 92q12 47 15 110q2 22 2 27q0 57 -49 57q-63 0 -104 -118q-27 -78 -32 -141q-7 -107 47 -174q-8 -14 -27 -41q-50 51 -42 182q8 129 66 242q82 157 222 157q70 0 99 -40q23 -32 23 -100q0 -27 -5 -82q59 112 116 165q66 60 150 60
q56 0 80 -24.5t20 -81.5l-26 -175q0 -7 -4 -24q75 -13 74 -82zM576 547q3 54 -25 54q-35 0 -92 -99q-47 -80 -62 -129q36 -4 60 -39q35 46 90 40zM721 316q-13 -16 -14 -38q-2 -20 11 -29t31 -8q50 4 53 53q2 27 -16.5 46t-48.5 19q-56 0 -112 -73q-38 73 -91 73
q-28 0 -51.5 -19.5t-25.5 -46.5q-1 -17 9 -32q13 -21 38 -21q44 0 47 41q0 7 -7 20l-1 2l5 5q23 -2 57 -46q4 -9 15 -27q59 83 98 81h3zM366 316q-13 -16 -14 -38q-1 -20 12 -29t31 -8q50 4 53 53q1 27 -17.5 46t-48.5 19q-55 0 -112 -73q-38 73 -91 73q-28 0 -51.5 -19.5
t-25.5 -46.5q-1 -17 9 -32q13 -21 39 -21q44 0 46 41q1 7 -7 20v2l5 5q22 -2 57 -46q5 -7 17 -22q56 78 95 76h3z" />
    <glyph glyph-name="O" unicode="O" horiz-adv-x="885" 
d="M861 304q0 -38 -24 -62.5t-61 -22.5q-28 -95 -42 -122q-31 -62 -91 -88q-38 -16 -61 -14l-158 13q-28 0 -86.5 -7t-86.5 -7q-182 0 -183 220q-30 6 -48 30t-18 56q0 37 29 60q25 20 64 24q19 138 58 201q57 92 176 92q25 0 74.5 -3.5t74.5 -3.5q23 0 68.5 4t68.5 4
q189 0 189 -217q0 -4 -10 -76q26 -7 46.5 -31t20.5 -50zM593 526q0 60 -19 88q-24 35 -82 35q-97 0 -138 -93q-26 -57 -35 -178q27 -6 44.5 -27t17.5 -47q0 -35 -24 -60t-60 -27q-1 -40 -1 -58q0 -73 25 -100.5t98 -27.5q66 0 105 64q30 50 38 124q-35 2 -60 26t-25 59
q0 40 37 64q32 22 65 17q1 15 9 70q5 44 5 71zM758 326q-12 -16 -12 -39q0 -37 45 -37q49 0 49 54q0 29 -20 46.5t-49 17.5q-55 0 -107 -72q-43 73 -93 73q-27 0 -51.5 -19.5t-24.5 -47.5q0 -21 15 -36.5t36 -15.5q44 0 44 41q0 7 -9 21l4 3q25 -2 79 -66q50 77 91 77h3z
M281 322q-12 -16 -12 -38q0 -37 40 -37q24 0 39 15t15 39q0 28 -20.5 46t-48.5 18q-56 0 -107 -73q-43 73 -96 73q-27 0 -50 -19t-23 -47q0 -21 15 -36.5t36 -15.5q44 0 44 40q0 7 -9 22l5 5q22 -2 58 -44q6 -7 20 -24q50 77 91 77q1 0 3 -1z" />
    <glyph glyph-name="P" unicode="P" horiz-adv-x="732" 
d="M688 367q0 -121 -77 -211q-81 -94 -199 -94q-76 0 -126 24q-2 -10 -4 -21q-3 -22 -3 -58q0 -83 53 -89q-4 -16 -30 -29q-21 -10 -33 -10q-24 0 -50 14q-33 19 -49 53q-19 -24 -64 -45.5t-80 -21.5q-11 0 -18.5 5.5t-4.5 13.5q72 52 87 137q8 72 16 145q-33 -2 -62 27.5
t-29 61.5q0 39 32 62q28 21 67 21q5 76 68 140q60 62 138 80q-29 20 -78 20q-73 0 -132 -39q-66 -44 -66 -111q0 -18 10 -38.5t12 -40.5q-9 -16 -33 -15q-21 1 -21 49q0 134 144 216q115 65 236 65q136 0 219 -94q77 -88 77 -217zM475 325q0 60 -24 132q-35 101 -94 101
q-18 0 -26 -63q-16 -140 -17 -147q79 -9 79 -76q0 -35 -29 -62t-64 -22q-4 -26 -11 -76q16 -13 43 -13q80 0 118 95q25 62 25 131zM311 334q-61 0 -113 -73q-42 73 -90 73q-28 0 -50.5 -19t-22.5 -47q0 -21 16 -38.5t37 -17.5q18 0 32 12.5t14 31.5q0 7 -10 26q0 2 2 4
q16 0 35 -27q11 -17 34 -50q56 85 98 85q8 1 6 1q1 -1 1 -3q-13 -14 -15 -31q-3 -20 9.5 -31.5t30.5 -11.5q24 0 39.5 14t15.5 38q0 29 -20.5 46.5t-48.5 17.5z" />
    <glyph glyph-name="Q" unicode="Q" horiz-adv-x="876" 
d="M854 301q0 -75 -77 -87q-27 -91 -42 -120q-32 -59 -92 -85q-38 -16 -61 -14q-8 0 -74 7l7 -2q33 -15 65 -31q47 -20 72 -20q30 0 53 33l15 -4q-30 -56 -81.5 -94t-99.5 -38q-34 0 -125.5 35t-111.5 35q-18 0 -65 -27q2 20 27 55t53 53l11 2q-13 -1 -78 -1q-100 0 -144 60
q-37 51 -38 156q-30 6 -48.5 30.5t-18.5 56.5q0 37 29 60q26 19 65 23q19 138 58 201q57 92 176 92q25 0 74.5 -3.5t74.5 -3.5q23 0 68.5 4t68.5 4q189 0 189 -217q0 -39 -6 -85q56 -8 56 -75zM593 526q0 60 -19 88q-24 35 -82 35q-97 0 -138 -93q-26 -57 -35 -178
q57 -28 57 -73q0 -36 -21.5 -61t-57.5 -27q-1 -40 -1 -58q0 -73 25 -100.5t98 -27.5q66 0 105 64q30 50 38 124q-36 2 -61 23.5t-25 55.5q0 36 35 60q32 23 73 24q9 121 9 144zM756 321q-12 -16 -12 -39q0 -37 45 -37q49 0 49 54q0 29 -20 47t-49 18q-55 0 -107 -73
q-42 73 -93 73q-27 0 -51.5 -19t-24.5 -47q0 -21 15 -37t36 -16q44 0 44 41q0 7 -9 21l4 3q25 -2 79 -65q50 76 91 76h3zM278 323q-12 -17 -12 -39q0 -37 40 -37q24 0 39 15t15 39q0 28 -20.5 46t-48.5 18q-56 0 -107 -73q-43 73 -96 73q-28 0 -50.5 -19t-22.5 -47
q0 -21 15 -36.5t36 -15.5q44 0 44 40q0 7 -9 23l5 4q15 -1 35 -25q11 -16 36 -48q53 82 98 82h3z" />
    <glyph glyph-name="R" unicode="R" horiz-adv-x="830" 
d="M797 89q-12 -33 -41.5 -60t-62.5 -32q-11 -1 -39 -1q-107 0 -166 62q-43 46 -82 162q-26 -5 -36 -2q-32 -120 -82 -168q-58 -55 -173 -55q-106 0 -125 73l12 7q9 -13 19.5 -26.5t26.5 -13.5q35 0 69 72q27 58 33 106q-73 22 -73 78q0 41 31 68q28 24 68 28q4 20 4 96
q0 69 -39 69q-28 0 -39 -18q-3 -5 -13 -42q-2 1 -7.5 1t-5.5 3q0 69 64.5 126t134.5 57q112 0 140 -138q89 140 209 140q68 0 108 -41.5t40 -109.5q0 -74 -57 -143q-49 -60 -123 -97q31 -67 61 -133q47 -97 87 -97q27 0 47 35zM582 460q0 38 -23 68t-60 30q-44 0 -66 -32
q-17 -23 -24 -70q-4 -38 -9 -76q52 -19 58 -58q52 7 88 46.5t36 91.5zM361 326q-12 -16 -12 -39q0 -36 40 -36q24 0 39 14.5t15 38.5q0 28 -20.5 46t-48.5 18q-56 0 -107 -72q-43 72 -96 72q-28 0 -50.5 -19t-22.5 -47q0 -20 15 -36t36 -16q44 0 44 41q0 7 -9 22l5 6
q19 5 57 -44q6 -8 21 -26q50 77 91 77h3z" />
    <glyph glyph-name="S" unicode="S" horiz-adv-x="604" 
d="M579 547q0 -40 -24 -63.5t-64 -23.5q-43 0 -69.5 25.5t-26.5 68.5q0 76 73 96q-25 12 -62 12q-38 0 -70 -24.5t-32 -60.5q0 -35 14 -61q9 -19 37 -49q31 6 30 6q34 0 54.5 -24.5t20.5 -60.5q0 -18 -8 -37q68 -107 68 -179q0 -178 -175 -178q-31 0 -56 3q-5 1 -20.5 5
t-23.5 4q-13 0 -39.5 -3.5t-39.5 -3.5q-167 0 -167 118q0 46 25.5 76.5t70.5 30.5t76 -31.5t31 -77.5q0 -41 -41 -90q3 -3 16 -3q44 0 74.5 35t30.5 79q0 59 -30 90q-17 -11 -37 -11q-32 0 -59 23t-27 55q0 44 19 64q-61 72 -59 153q2 118 107 154q55 19 197 19
q72 0 124 -31q62 -37 62 -105zM387 458q-80 0 -80 -93q0 -10 1 -19q-39 19 -85 19q-80 0 -80 -72q0 -23 16 -39.5t39 -16.5q20 0 33 15t13 34q0 18 -10 28l-3 3q-2 1 -3 3q2 9 22 10q31 1 53 -11q16 -9 28 -18l-1 -1q-1 1 0.5 1t6.5 1q-5 8 -5 37q0 71 33 71q3 0 4 -1
q-3 -7 -3 -14q0 -14 10.5 -24.5t24.5 -10.5q40 0 40 44q0 23 -15.5 38.5t-38.5 15.5z" />
    <glyph glyph-name="T" unicode="T" horiz-adv-x="709" 
d="M697 584q0 -72 -68 -122q-60 -45 -124 -45q-28 0 -67 10q-53 12 -62 14q-34 -43 -37 -99q31 -2 55 -23t24 -50q0 -76 -84 -92q25 -85 64.5 -123t108.5 -38q20 0 35 8q-55 5 -88 35t-33 79q0 44 28.5 77.5t72.5 33.5q56 0 84 -43q21 -33 21 -80q0 -39 -26 -75
q-30 -43 -79 -54q-43 -10 -136 -2q-33 1 -93 14q-35 -13 -79 -11q-55 0 -87 73q-21 50 -25 109q-61 17 -61 78q0 38 29 63q27 22 66 24q39 82 117 131q-17 16 -66.5 31.5t-82.5 15.5q-42 0 -65.5 -30t-23.5 -72q0 -12 2 -24h-16q0 10 -1 32v25q0 99 68 164t166 65
q48 0 94 -17q30 -10 64 -31q28 -16 32 -16q-8 0 49.5 23.5t115.5 23.5q108 0 108 -82zM677 593q0 19 -13 35t-32 15q-36 -3 -75.5 -25.5t-45.5 -42.5q17 -13 54 -22q28 -7 39 -7q17 0 41 10q32 14 32 37zM321 285q-12 -17 -12 -39q0 -37 40 -37q24 0 39.5 15t15.5 39
q0 28 -21 46t-49 18q-56 0 -107 -73q-42 73 -96 73q-27 0 -49.5 -19t-22.5 -47q0 -21 14.5 -36.5t35.5 -15.5q44 0 44 40q0 8 -9 23l6 5q19 5 57 -43q6 -8 20 -26q50 77 91 77h3z" />
    <glyph glyph-name="U" unicode="U" horiz-adv-x="764" 
d="M748 671q-37 -71 -53 -140q-9 -58 -24 -155q68 -17 67 -78q-1 -33 -27.5 -58.5t-55.5 -25.5h-11l-17 -117l2 -42q3 -25 18 -25q9 0 20 16l16 24q2 -1 5 0l5 1q2 0 1 -4q-13 -72 -81 -72q-12 0 -33.5 2.5t-29.5 2.5q-60 -4 -65 -4q-32 0 -45 12t-13 47q0 34 14 106
q-90 -114 -131 -141t-126 -27q-67 0 -91.5 19.5t-24.5 69.5q0 30 12 121q-71 20 -70 81q1 42 31 67q27 23 71 23q23 126 24 159q1 22 -11 38t-32 15q-66 -4 -66 -80q0 -42 18 -94l-18 -2q-17 61 -17 102q0 174 231 170q104 -1 102 -105q-10 -69 -28 -203q46 -8 62 -46
q30 56 95 48l40 217q13 81 92 81q5 0 42 2q34 2 55 1q31 -1 47 -6zM444 207q-57 11 -67 54q-30 -46 -89 -49q-3 -7 -10.5 -48.5t-7.5 -47.5q-2 -64 29 -64t90 74q47 60 55 81zM645 321q-13 -16 -13 -39q-1 -36 39 -36q24 0 39.5 14.5t16.5 38.5q1 28 -19.5 46t-48.5 18
q-56 0 -109 -72q-40 72 -94 72q-27 0 -50 -19t-24 -47q-1 -20 13.5 -36t35.5 -16q36 0 44 31q4 17 -6 31l-1 1l6 6q19 5 55 -44q6 -8 20 -26q52 77 93 77h3zM288 318q-17 -18 -12 -40q7 -35 39 -35q24 0 39.5 14.5t16.5 38.5q1 28 -19.5 46t-48.5 18q-56 0 -109 -72
q-40 72 -94 72q-27 0 -50 -19t-24 -47q-1 -20 13.5 -36t35.5 -16q44 0 45 41q0 7 -8 22l5 6q20 5 56 -44q6 -8 20 -26q52 77 93 77h2z" />
    <glyph glyph-name="V" unicode="V" horiz-adv-x="653" 
d="M611 472q0 -73 -30 -175q-36 -127 -97 -205q-78 -99 -181 -99q-4 0 -77 10t-78 10q-48 0 -87 -18q-2 2 -5.5 3.5t-5.5 2.5q17 24 45 213q-83 3 -83 79q0 34 25 57.5t72 24.5q11 48 11 80q0 44 -3 58q-8 43 -37 43q-31 0 -56 -47q-21 -39 -21 -63l-12 3q-1 70 66 148
q74 88 165 88q54 0 83 -39q27 -34 27 -89q0 -7 -10 -80q-11 -78 -16 -102q80 -7 80 -78q0 -55 -45 -76q-6 -3 -23.5 -3.5t-26.5 -3.5q-2 -29 -12 -90q-8 -56 -8 -59q0 -49 39 -49q91 0 164 104q63 90 63 166q0 77 -48 107q-44 21 -89 42q-48 33 -48 119q0 54 36 89t93 35
q130 0 130 -206zM289 319q-12 -16 -12 -39q0 -36 40 -36q24 0 39 14.5t15 38.5q0 28 -20.5 46t-48.5 18q-56 0 -107 -72q-43 72 -96 72q-28 0 -50.5 -19t-22.5 -47q0 -20 15 -36t36 -16q44 0 44 41q0 7 -9 22l5 6q19 5 57 -44q6 -8 21 -26q50 77 91 77h3z" />
    <glyph glyph-name="W" unicode="W" horiz-adv-x="948" 
d="M930 472q0 -153 -78 -302q-93 -177 -230 -177q-26 0 -79 8t-79 8q-36 0 -63 -4q-3 -1 -14.5 -4t-15.5 -3h-2q22 33 48 211q-41 2 -59 39q-13 -27 -29 -35.5t-48 -8.5q-6 -15 -14 -78q-10 -71 -15 -89q-11 -41 -50 -41q5 0 -30 6q-39 7 -70 7q-18 0 -37 -4q-22 -6 -27 -7
h-2v0h2q18 10 27 83q8 42 18 128q-83 27 -83 89q0 36 26 59t63 23q1 0 18 -2q26 135 26 167q0 46 -33 46q-39 0 -59 -25.5t-20 -62.5q0 -23 7 -46q6 -18 13 -36l-18 -2l-12 36q-7 23 -8 51q-3 89 53 134q51 41 143 41q14 0 29 -1q51 -3 81 -31t29 -75v-5q0 -12 -3 -27
q36 59 92 100q60 43 114 43q53 0 83 -38q27 -34 27 -90q0 -67 -25 -177q39 1 65 -19q29 -23 29 -61q0 -39 -19 -58q-11 -11 -43 -24q-19 -9 -48 -2q-1 -18 -11 -78q-9 -54 -9 -73q0 -49 39 -49q84 0 157 95q70 89 70 175q0 77 -48 107q-44 21 -89 42q-48 33 -48 119
q0 55 36.5 89.5t92.5 34.5q130 0 130 -206zM444 475q0 81 -45 81q-44 0 -63 -44l-18 -68l1 1q-6 -35 -11 -72l30 -14q12 -7 18 -22q19 38 75 41q0 16 6.5 48t6.5 49zM614 314q-8 -15 -8 -34q0 -41 44 -41q25 0 41 16t16 42q0 30 -21.5 49.5t-49.5 19.5q-55 0 -102 -68
q-44 66 -102 66q-28 0 -51 -20.5t-23 -50.5q0 -54 49 -57q20 -1 35.5 11t15.5 35q0 9 -7 21l1 2q19 4 60 -44q7 -8 22 -28q47 76 80 81zM262 307q-10 -15 -7 -35q8 -39 42 -41q25 -1 41.5 15t17.5 42q1 30 -19.5 50t-49.5 21q-57 2 -107 -64q-38 70 -89 71
q-29 1 -52.5 -18.5t-24.5 -49.5q-1 -22 14 -40t37 -19q47 -2 49 44q0 9 -7 22l2 1q13 2 36 -30q11 -15 33 -46q47 71 84 77z" />
    <glyph glyph-name="X" unicode="X" horiz-adv-x="902" 
d="M853 573q0 -44 -24 -76q-28 -37 -77 -37q-45 0 -75 29.5t-30 75.5q0 15 21 78q-66 -36 -91 -117q-9 -30 -22 -137q87 -15 87 -88q0 -25 -15 -46q-21 -30 -65 -32v-26q0 -52 22 -106q30 -75 85 -75q5 0 23.5 4.5t22.5 6.5q-92 20 -92 106q0 43 28 73t70 30q45 0 70 -28.5
t25 -71.5q0 -85 -82 -120q-54 -24 -135 -24q-89 0 -143 29q-78 41 -106 147q-48 -93 -93 -133q-51 -46 -120 -46q-59 0 -96.5 33t-37.5 89q0 54 35 87q32 31 80 31q53 0 88 -37q31 -34 31 -79q0 -33 -10 -53q-13 -23 -14 -35q47 25 87 86q34 54 41 98q-35 6 -57.5 29.5
t-21.5 55.5q2 73 77 83l-8 102q-7 71 -30 107q-31 49 -96 49q-21 0 -55 -21l66 -10q58 -19 58 -92q0 -39 -24 -70q-27 -33 -69 -33q-50 0 -78 40q-22 32 -22 72q0 164 263 159q70 -2 124 -49t80 -129q14 78 66 128t123 50q46 0 79 -27q37 -30 37 -80zM555 370
q-57 0 -110 -75q-30 38 -41 47q-23 20 -59 20q-26 0 -45 -16q-22 -19 -22 -50q0 -20 11 -36q15 -20 43 -20q42 0 42 42q0 7 -2 20q-2 7 0 14h5q15 0 39 -31t28 -55q11 40 46 70q30 26 50 26q4 0 6 -2l-13 -32q0 -14 14 -29t29 -15q22 0 36 20q13 17 13 36q0 27 -21 46.5
t-49 19.5z" />
    <glyph glyph-name="Y" unicode="Y" horiz-adv-x="732" 
d="M733 299q0 -78 -103 -89q-9 -213 -106 -304q-84 -79 -251 -79q-4 0 -20 1.5t-20 1.5q-39 0 -74 23q-40 26 -40 64q0 37 28 59q24 19 55 19q41 0 68.5 -24t27.5 -62t-24 -57q1 -1 21 -1q65 0 99 85q21 53 25 118l5 36q-54 -51 -146 -51q-61 0 -105 27q-51 32 -51 90
q0 21 7 45q-95 21 -95 95q0 38 33 61t81 22q12 71 12 122q0 33 -14 57q-18 33 -53 34q-69 2 -72 -145q-15 -4 -15 1q-2 16 -2 31q0 102 81 158q63 45 136 45q137 0 137 -149q0 -3 -6.5 -79.5t-6.5 -81.5q0 4 15.5 -6t27.5 -24q24 33 69 33l24 228q-4 70 85 75q4 0 27 -3.5
t26 -3.5q15 0 44.5 3.5t44.5 3.5q-34 -34 -40 -95q-6 -68 -20 -202q40 -8 64 -34q21 -23 21 -48zM433 221q-19 3 -32 21q-11 14 -12 12q-19 -24 -42 -35q-19 -8 -19 -7.5t-5.5 -37.5t-5.5 -47q0 -53 33 -53q37 0 63 45q22 36 21 66zM635 320q-16 -18 -11 -40q8 -35 39 -35
q23 0 37.5 15t14.5 38q0 28 -20 46t-47 18q-54 0 -103 -72q-40 72 -92 72q-26 0 -48 -19t-22 -46q0 -21 14.5 -37t34.5 -16q43 0 43 41q0 7 -9 22l5 6q13 3 34 -23q13 -19 38 -53q52 83 90 83h2zM303 318q-16 -18 -11 -40q8 -35 39 -35q23 0 37.5 14.5t14.5 38.5
q0 28 -19.5 46t-46.5 18q-54 0 -103 -72q-41 72 -92 72q-27 0 -48.5 -19t-21.5 -47q0 -20 14 -36t35 -16q42 0 42 41q0 7 -9 22l6 6q18 5 54 -44q6 -7 20 -26q48 77 87 77h2z" />
    <glyph glyph-name="Z" unicode="Z" horiz-adv-x="789" 
d="M761 601q0 -51 -53 -75q-36 -16 -78 -16q-21 0 -55 7q-25 -38 -43 -136q27 -8 43 -32q13 -20 13 -41q0 -35 -41 -71q-15 -13 -60 -22q-21 -47 -70 -141q81 -47 149 -54q-34 35 -34 85q0 45 36 74q33 27 73 27q44 0 75 -30t31 -72q0 -56 -46 -87q-38 -25 -91 -27
q-49 -2 -107 19q-32 12 -100 46q-41 -63 -152 -63q-3 0 -38.5 5t-43.5 5q-4 0 -36.5 -3.5t-36.5 -3.5q-99 0 -104 73q-3 48 44 71q35 18 88 18q12 0 23 -2q44 -4 90 -19q16 28 41 79q-24 5 -43 24q-25 25 -25 60q0 34 25.5 60t62.5 26q14 0 29 -4q22 51 45 102q28 61 56 102
q-34 32 -81 54q-50 25 -77 20q18 -27 22.5 -38.5t4.5 -36.5q0 -53 -35.5 -85.5t-79.5 -32.5t-72.5 27.5t-28.5 68.5q0 62 55 94q43 25 102 25q54 0 103 -20q29 -12 65 -37q29 -20 35 -20l27 20q32 24 66 37q50 20 104 20q44 0 78 -16q45 -22 45 -64zM744 599q0 42 -42 42
q-35 0 -73.5 -37t-45.5 -73q16 -4 40 -4q41 0 72 11q49 19 49 61zM226 115q-24 10 -76 19q-9 1 -22 1q-42 0 -73 -14q-41 -18 -41 -53q0 -49 74 -49q44 0 74 19q34 21 64 77zM512 370q-73 0 -119 -65q-17 40 -41 54q-18 11 -50 11q-28 0 -51.5 -19t-23.5 -46q0 -56 56 -56
q45 0 49 42q1 11 -9 40q33 -10 49 -65q2 -9 10 -39q11 35 44.5 65.5t60.5 30.5h4q-8 -9 -14 -18.5t-3 -22.5q9 -31 49 -31q22 0 36 20q12 17 12 39q0 21 -20.5 40.5t-38.5 19.5z" />
    <glyph glyph-name="bracketleft" unicode="[" horiz-adv-x="210" 
d="M152 734v-56h-72v-692h72v-58h-127v805z" />
    <glyph glyph-name="backslash" unicode="\" horiz-adv-x="650" 
d="M-3 517q0 -12 3 -34q55 56 131 93q83 40 155 40q126 0 219 -82q98 -86 98 -213q0 -184 -177 -297q-16 1 -16 33q0 34 23 72q37 60 43 73q23 54 23 127q0 33 -14 78q-17 57 -41 58l-11 -16q1 -40 -26 -132q-16 -53 -32 -107q-2 1 -4 -30q-1 -16 1 -44q3 -32 3 -44l-2 -7
q-26 64 -26 162q0 29 2.5 86.5t2.5 85.5q0 34 -42.5 74.5t-75.5 40.5q-13 0 -38 -64q-22 -60 -22 -78q0 -38 38 -90t77 -103q46 -68 60 -134l-2 -2q-59 70 -118 141q-78 86 -156 86q-12 0 -12 -15q0 -11 32 -103q26 -74 91 -97l128 -32q13 -5 53 -34q36 -26 49 -26
q2 0 40 16q93 40 149 143q53 97 47 197q-10 154 -127 242q-101 77 -235 77q-114 0 -210 -56q-84 -49 -81 -85z" />
    <glyph glyph-name="bracketright" unicode="]" horiz-adv-x="210" 
d="M25 -72v55h72v693h-72v57l127 1v-805z" />
    <glyph glyph-name="asciicircum" unicode="^" horiz-adv-x="500" 
d="M436 712l-25 -13q-75 31 -151 77q-77 -46 -152 -77l-25 13q41 38 83 76q53 47 94 47q40 0 93 -47q42 -38 83 -76z" />
    <glyph glyph-name="underscore" unicode="_" horiz-adv-x="420" 
d="M-1 -92h421v-51h-421v51z" />
    <glyph glyph-name="grave" unicode="`" horiz-adv-x="661" 
d="M524 729q-53 15 -120 65q-32 24 -48 28t-30.5 -4t-18.5 -23q-10 -38 35 -56q38 -14 98 -24q29 -5 76 -11z" />
    <glyph glyph-name="a" unicode="a" horiz-adv-x="527" 
d="M501 63q-18 -67 -95 -67q-66 0 -84 5q-47 13 -49 63q-58 -69 -131 -69q-65 0 -104 42q-36 39 -36 98q0 84 58 143q57 56 133 56q33 0 56 -14q18 -11 48 -44q3 13 13 49h168l-39 -246q-2 -7 -2 -13q0 -23 28 -23q12 0 21 20h15zM289 228q0 19 -13 43q-15 29 -39 29
q-30 0 -51 -90q-15 -66 -15 -96q0 -26 11 -45q13 -22 38 -22q34 0 55 82q14 58 14 99z" />
    <glyph glyph-name="b" unicode="b" horiz-adv-x="411" 
d="M369 219q0 -82 -37 -144q-47 -78 -136 -76q-13 4 -82 8q-18 -4 -57 -7q-22 0 -39 32q-14 26 -18 53q1 0 -2 119q10 91 21 182q20 130 68 201q64 95 181 95q40 0 64 -23.5t24 -56.5q0 -64 -47 -134.5t-131 -129.5q-10 -7 -16 -91q-5 -62 -5 -108q0 -36 14 -72
q20 -51 58 -51q19 0 39 22t20 39q0 20 -25 44q-43 41 -48 47q-25 32 -25 71q0 43 25.5 70.5t62.5 27.5q44 0 71 -49q20 -37 20 -69zM339 602q0 11 -11 28q-12 21 -26 21q-49 0 -90 -129q-32 -101 -32 -146q0 -10 2 -12q64 45 110.5 114.5t46.5 123.5z" />
    <glyph glyph-name="c" unicode="c" horiz-adv-x="393" 
d="M364 251q0 -29 -19 -51.5t-49 -22.5q-26 0 -48 18.5t-22 47.5q-1 40 19 65q-2 3 -17 0q-50 -35 -50 -170q0 -120 71 -120q33 0 54 18q2 2 24 27q2 0 4 -2.5t4 -3.5q-13 -34 -63 -52q-38 -13 -85 -13q-50 0 -98 10q-44 9 -69 53q-21 38 -21 86q0 120 72 160q51 28 180 28
q112 0 113 -78z" />
    <glyph glyph-name="d" unicode="d" horiz-adv-x="546" 
d="M515 56q0 -31 -50 -48q-33 -12 -55 -12h-59q-38 0 -54 19q-12 15 -18 56q-39 -48 -82 -66q-31 -12 -79 -12q-57 0 -90 51q-27 42 -27 97q0 83 54.5 137t139.5 56q84 2 104 -50l40 263q3 12 -2 24.5t-19 12.5q-5 0 -18 -11.5t-15 -22.5q-3 -3 -8 0q-4 3 -7 2q20 60 66 92
q41 28 94 28q49 0 68.5 -20t19.5 -67l-64 -513q-2 -7 -2 -13q0 -25 22 -26q14 0 22 12q5 9 10 19q1 -1 5 -2t4 -6zM291 204q0 26 -6 52q-11 44 -36 44q-34 0 -55 -79q-14 -56 -14 -93q0 -82 31 -82q37 0 62 72q18 54 18 86z" />
    <glyph glyph-name="e" unicode="e" horiz-adv-x="406" 
d="M379 225q0 -69 -71 -97q-19 -7 -128 -26q-1 -7 -1 -14q0 -72 68 -72q56 0 83 47l10 -3q-23 -64 -130 -64q-77 0 -116 1q-46 1 -72 49q-21 39 -21 89q0 110 58 156q51 41 162 41q90 0 114 -11q44 -19 44 -96zM281 252q0 17 -6 35q-8 24 -22 24q-35 0 -57 -73
q-16 -55 -16 -102q-1 -8 0 -8q45 1 73 39t28 85z" />
    <glyph glyph-name="f" unicode="f" horiz-adv-x="347" 
d="M338 326l-15 -112l-106 -2l-30 -261q0 -36 8 -65q10 -35 10 -44q-25 1 -61.5 30t-48.5 56q-22 -23 -44 -47q-26 -22 -76 -35q24 24 40 105q11 83 28 251q-10 48 -44 70q37 12 60 66q6 70 25 220q4 26 34 58q26 27 53 41q52 26 107 26q36 0 67 -17q39 -21 39 -59
q-1 -25 -17.5 -42t-40.5 -17q-30 0 -48 23q-7 8 -19 36q-4 7 -10 7q-9 0 -21 -17q9 -15 17 -29q13 -26 10 -42q2 -2 -25 -203z" />
    <glyph glyph-name="g" unicode="g" horiz-adv-x="489" 
d="M478 325l-50 -322q-20 -91 -70 -129q-59 -45 -187 -45q-51 0 -88 15q-51 21 -51 64q0 27 25 46q21 15 45 15q36 0 59.5 -26t23.5 -69q0 -9 -2 -18q50 13 72 90q6 19 20 117q-58 -68 -133 -68q-65 0 -104 42q-36 39 -36 98q0 84 58 143q57 56 133 56q33 0 56 -14
q18 -11 48 -44q3 13 13 49h168zM289 228q0 19 -13 43q-15 29 -39 29q-30 0 -51 -90q-15 -66 -15 -96q0 -26 11 -45q13 -22 38 -22q34 0 55 82q14 58 14 99z" />
    <glyph glyph-name="h" unicode="h" horiz-adv-x="535" 
d="M518 52q-10 -25 -46 -44q-29 -15 -50 -15l-38 8l-36 -8q-57 0 -57 73q0 4 9 68.5t9 68.5q0 40 -25 40q-41 0 -60 -85q-4 -26 -9 -84l-5 -48q5 -13 43 -16v-13q-83 8 -130 8q-7 0 -130 -6l6 11q17 2 41 11q55 436 56 436q29 100 90 150q72 59 199 59q70 0 70 -85
q0 -76 -61 -145q-42 -47 -147 -121q-4 -26 -12 -89q67 105 169 105q86 0 84 -83l-24 -185q-2 -7 1 -17q3 -13 13 -13q11 0 29 22q7 0 11 -3zM437 583q0 63 -45 63q-52 0 -89 -78q-27 -56 -43 -146q-13 -71 -11 -86q98 65 141 119q47 60 47 128z" />
    <glyph glyph-name="i" unicode="i" horiz-adv-x="283" 
d="M261 491q0 -46 -31 -77t-74 -31q-41 0 -71 28.5t-30 67.5q0 48 31 79.5t82 31.5q38 0 67 -33q26 -31 26 -66zM55 221q0 30 -17 32q-10 1 -16 -8q-7 -13 -11 -15q-3 3 -11 4q11 41 57 71q43 28 84 28q36 0 60 -18q29 -21 29 -60l-24 -191q-2 -6 2 -18.5t14 -12.5
q11 0 29 22q7 0 11 -3q-10 -25 -46 -44q-29 -15 -50 -15l-38 8l-36 -8q-57 0 -57 73z" />
    <glyph glyph-name="j" unicode="j" horiz-adv-x="259" 
d="M267 491q0 -44 -31 -74.5t-74 -30.5q-47 0 -75.5 29t-28.5 71q0 45 31 76t75 31q47 0 75 -28.5t28 -73.5zM215 -21q-24 -75 -88.5 -117t-145.5 -42q-11 0 -16 5q45 29 67 97q16 97 39 296q1 5 1 10q0 22 -21 25q-10 1 -16 -8q-8 -13 -11 -15q-3 3 -11 4q11 41 55 71
t84 30q36 0 62 -19q31 -22 31 -62q0 -27 -11 -138q-12 -116 -19 -137z" />
    <glyph glyph-name="k" unicode="k" horiz-adv-x="588" 
d="M421 351q95 0 95 -97q0 -72 -78 -114q4 -9 48 -48q48 -43 62 -43q8 0 15 5.5t20 9.5q-17 -43 -24 -50q-16 -13 -69 -13l-43 6l-52 -6q-44 0 -73 33q-48 54 -100 85q-13 -93 -12 -93q5 -13 43 -16v-13q-83 8 -130 8q-7 0 -130 -6l6 11q17 3 43 14q53 433 54 433
q29 100 90 150q72 59 199 59q70 0 70 -85q0 -76 -61 -145q-42 -47 -147 -121q-2 -10 -8 -58q58 51 89 68q44 26 93 26zM330 213q0 44 -39 44q-42 0 -58 -39q-9 -60 -9 -70q0 -5 10.5 -8.5l10.5 -3.5q34 3 59.5 23.5t25.5 53.5zM437 583q0 63 -45 63q-52 0 -89 -78
q-27 -56 -43 -146q-13 -71 -11 -86q98 65 141 119q47 60 47 128z" />
    <glyph glyph-name="l" unicode="l" horiz-adv-x="268" 
d="M59 525l-4 54q-4 12 -39 47q1 0 14 1.5t17 1.5q32 1 55 -25q18 -25 36 -51q62 130 141 130q18 0 28 -5q-23 -16 -41 -47t-23 -56q-66 -331 -66 -511q-2 -6 1.5 -17.5t13.5 -11.5q11 0 29 22q7 0 11 -3q-10 -25 -46 -44q-29 -15 -50 -15l-37 6l-37 -6q-57 0 -57 73z" />
    <glyph glyph-name="m" unicode="m" horiz-adv-x="774" 
d="M48 210q0 33 -17 33q-5 0 -16 -10q-17 -13 -18 -14q13 56 60 87q38 25 83 25t66.5 -24t21.5 -85q52 63 79 83q36 26 81 26q90 0 92 -105q75 106 150 106q37 0 64 -22q32 -26 33 -74l-19 -170q-3 -8 -1 -18q2 -11 11 -11q6 0 23 20q7 0 11 -3q-10 -25 -46 -44
q-29 -15 -50 -15l-37 6l-37 -6q-56 0 -56 73l20 135q-5 36 -18 36q-34 0 -56 -81q-14 -56 -15 -91l-1 -40q6 -11 18 -14l18 -2l-3 -13q-115 7 -244 -1l1 12q8 3 17.5 6t11.5 15q22 146 22 182q0 31 -15 31q-43 0 -64 -94q-15 -68 -13 -122q6 -12 13.5 -14t14.5 -4l-4 -10
q-100 7 -238 -2l2 12q8 3 17 5q14 4 15 19z" />
    <glyph glyph-name="n" unicode="n" horiz-adv-x="555" 
d="M168 331q90 0 92 -105q75 106 150 106q37 0 64 -22q32 -26 33 -74l-19 -170q-3 -8 -1 -18q2 -11 11 -11q6 0 23 20q7 0 11 -3q-10 -25 -46 -44q-29 -15 -50 -15l-37 6l-37 -6q-56 0 -56 73l20 135q-5 38 -18 36q-42 -4 -60 -83q-10 -44 -11 -89l-1 -40q6 -11 18 -14
l18 -2l-3 -13q-115 7 -244 -1l1 12q8 3 17.5 6t11.5 15q22 146 22 182q0 31 -15 31q-32 0 -49 -34q-1 -1 -7.5 4.5t-4.5 5.5q51 62 83 84q38 28 84 28z" />
    <glyph glyph-name="o" unicode="o" horiz-adv-x="517" 
d="M493 185q0 -63 -46 -122q-51 -66 -119 -66q2 0 -27 -1q-26 -1 -43 0q-25 1 -35 5q-15 -6 -69 -7q-23 1 -46 1q-47 10 -75 42.5t-28 74.5q0 85 40 144q49 73 142 73q68 1 89 -5q24 5 62 5q28 1 55 1q50 -5 79 -63q21 -44 21 -82zM322 221q1 6 1 15q0 25 -11 44
q-15 24 -42 24q-43 0 -74 -87q-27 -77 -21 -113q4 -25 7 -49q10 -34 45 -34q43 0 71 91q12 54 24 109z" />
    <glyph glyph-name="p" unicode="p" horiz-adv-x="567" 
d="M522 191q0 -100 -78 -156q-64 -46 -152 -46q-31 0 -48 9q-5 2 -25 19q-4 -1 -36 -184q-75 -1 -179 1q35 190 72 386q4 10 2 23q-3 16 -13 16q-3 0 -7 -2q-23 -7 -33 -37q-1 0 -7.5 1.5t-4.5 6.5q43 101 172 101q61 0 69 -58q48 57 115 60q61 2 105 -34q48 -39 48 -106z
M347 185q3 35 -8 61q-12 31 -37 29q-43 -4 -65 -94q-14 -60 -14 -115q0 -47 33 -47q40 0 65 54q21 45 26 112z" />
    <glyph glyph-name="q" unicode="q" horiz-adv-x="503" 
d="M483 326l-78 -489l-173 1l39 221q-51 -66 -123 -66q-63 0 -104 39t-41 100q0 79 50 137.5t131 62.5q38 2 60 -7q30 -13 54 -51q2 -1 7 52h178zM293 204q0 29 -13 60q-17 37 -41 37q-35 0 -57 -59q-18 -51 -18 -106q0 -94 39 -97q50 2 74 69q16 45 16 96z" />
    <glyph glyph-name="r" unicode="r" horiz-adv-x="458" 
d="M294 291q28 45 77 38q26 -3 44.5 -27t18.5 -57q0 -40 -25 -75q-27 -40 -66 -35q-27 4 -44 29t-17 60q-42 -41 -45 -157l-1 -40q6 -11 18 -14l18 -2l-3 -13q-86 5 -124 5q-25 0 -120 -6l1 12q8 3 17.5 6t11.5 15q22 146 22 182q0 31 -15 31q-32 0 -49 -34q-1 -1 -7.5 4.5
t-4.5 5.5q51 62 83 84q38 28 84 28q90 0 92 -105q17 45 34 65z" />
    <glyph glyph-name="s" unicode="s" horiz-adv-x="395" 
d="M351 255q0 -17 -13.5 -28.5t-23.5 -11.5q-31 0 -47 44.5t-52 44.5q-31 0 -31 -26q0 -24 42 -44q64 -29 77 -40q42 -32 42 -87q0 -33 -24 -65q-28 -38 -73 -44q-27 -3 -46 -1q-14 3 -29 5q-28 -8 -47 -6q-38 0 -72 12q-54 19 -54 60q0 42 38 41q35 -4 46 -28l12 -44
q10 -23 42 -23q53 0 53 40q0 22 -45 42q-70 32 -82 40q-44 30 -44 76q0 53 44 86q37 28 83 28q2 0 38 -4q0 3 20 5q21 2 40 -1q106 -21 106 -71z" />
    <glyph glyph-name="t" unicode="t" horiz-adv-x="319" 
d="M308 326q-1 -37 -13 -119h-113l-21 -156q0 -36 28 -36q41 0 69 49q3 -4 11 -5q-9 -33 -51 -53q-37 -17 -81 -17q-56 0 -94 24q-46 31 -46 89l36 292q0 58 -22 85l27 -5q15 -2 38 -17q28 -17 38 -38q48 99 180 124q0 -2 -14.5 -14.5t-12.5 -14.5q-23 -25 -42 -63
q-29 -55 -29 -103l-2 -22h114z" />
    <glyph glyph-name="u" unicode="u" horiz-adv-x="520" 
d="M489 56q-1 -3 3 -3.5t2 -2.5q-12 -25 -40 -40q-21 -10 -33 -10l-16 1.5t-28 1.5q-13 0 -30 -1.5l-17 -1.5q-52 0 -58 66q-48 -67 -104 -67q-6 0 -17.5 2t-18.5 2q-6 0 -16.5 -1.5t-14.5 -1.5q-35 0 -48 9q-18 13 -18 50q0 4 10 84.5t10 85.5q0 34 -22 32q-8 0 -15 -9.5
t-14 -17.5q-7 0 -12 4q18 40 62 68.5t83 28.5q35 0 60 -19q29 -22 28 -63l-23 -192q0 -25 18 -25q62 0 88 289h169l-32 -269q-1 -11 1 -16q4 -10 15 -7q7 0 28 23z" />
    <glyph glyph-name="v" unicode="v" horiz-adv-x="431" 
d="M146 -5q103 0 176 67.5t73 168.5t-89 101q-36 0 -58 -29q-18 -24 -19 -50q-1 -50 26 -72q8 -6 52 -23q28 -11 28 -33q0 -33 -39 -65q-36 -28 -66 -28q-36 0 -36 41q0 4 9.5 87.5t9.5 87.5q0 37 -21 61t-61 24q-37 0 -74 -21q-46 -26 -61 -70q3 1 4.5 -3t3.5 -2
q22 29 31 29q14 0 10 -42l-17 -163q-2 -24 33.5 -45t84.5 -21z" />
    <glyph glyph-name="w" unicode="w" horiz-adv-x="680" 
d="M278 48q-9 -9 -41 -20q-13 -1 -24.5 9t-11.5 27l23 186q0 83 -95 83q-37 0 -74 -21q-44 -26 -59 -70q3 1 5.5 -2t4.5 -2q9 16 26 32q14 3 17 -7q2 -8 -1 -36l-14 -151q0 -45 45 -66q31 -15 76 -15q69 0 130 37q-4 0 33 -18.5t78 -18.5q103 0 176 67.5t73 168.5t-89 101
q-36 0 -58 -29q-18 -24 -19 -50q-1 -50 26 -72q8 -6 52 -23q28 -11 28 -33q0 -33 -39 -65q-36 -28 -66 -28q-36 0 -36 41q0 4 9.5 87.5t9.5 87.5q0 37 -21 61t-61 24q-37 0 -74 -21q-46 -26 -61 -70q3 1 4.5 -3t3.5 -2q22 29 31 29q14 0 10 -42z" />
    <glyph glyph-name="x" unicode="x" horiz-adv-x="549" 
d="M525 238q0 -76 -87 -76q-32 0 -51 24.5t-19 63.5q0 17 3 34q-10 -7 -26.5 -26.5t-16.5 -28.5q0 -14 61 -105q62 -94 79 -94q15 0 27 40q5 1 12 0q8 -2 7 -7q-10 -46 -45 -60q-16 -7 -48 -7q2 0 -19.5 3t-47.5 3q-16 -2 -55 -6q-24 -1 -50 32q-19 26 -37 52
q-41 -51 -62 -67q-27 -20 -61 -20q-33 0 -60 22q-30 24 -30 60q0 33 24 57t55 24q37 0 62.5 -27t24.5 -72q35 29 35 42q0 12 -52 89q-53 82 -70 82q-28 0 -32 -38l-18 3q0 31 28 58.5t65 31.5q4 0 21 -3t20 -3q4 0 26.5 3t26.5 3q46 0 98 -76q52 85 134 85q39 0 61 -34
q17 -27 17 -62z" />
    <glyph glyph-name="y" unicode="y" horiz-adv-x="524" 
d="M189 -147q10 42 10 43q0 30 -24 52t-54 22q-28 0 -52 -16q-27 -19 -27 -48q0 -77 146 -77h11q221 0 258 183l40 313h-169q-8 -83 -19 -143q-27 -143 -69 -146q-16 -1 -16 34l21 183q1 41 -28 63q-25 19 -60 19q-39 0 -83 -28.5t-62 -68.5q4 -4 16 -4q1 2 11 17
q6 10 14 10q22 2 22 -32q0 -5 -9 -76.5t-9 -75.5q0 -40 31 -62q26 -19 65 -19q56 0 79 9q30 12 61 55q-5 -98 -17 -133q-23 -65 -87 -74z" />
    <glyph glyph-name="z" unicode="z" horiz-adv-x="510" 
d="M491 278q0 -22 -27 -39q-23 -15 -40 -15q-28 0 -38 5l-97 -163q22 -16 52 -34q-6 22 -6 41q0 37 21.5 57.5t57.5 20.5q74 0 74 -74q0 -37 -26 -59.5t-60 -22.5t-81.5 27.5t-43.5 27.5l-20 -14q-23 -16 -46 -26q-35 -14 -70 -14q-55 0 -76 5q-56 11 -60 51q-2 22 18.5 42
t44 26t55.5 1q50 80 50 81q28 42 59 72q-9 12 -35 12q-21 0 -50.5 -34t-62.5 -34q-49 0 -49 45q0 34 32 54q26 16 53 15q45 -1 126 -44q-1 0 31 20t67 24q42 6 63 -1q25 -7 49 -13q35 -13 35 -40zM474 278q0 22 -20 24q-23 2 -60 -56q17 -11 42 -5q12 1 25 14.5t13 22.5z
M112 103q-13 4 -38 0q-15 1 -33.5 -18t-18.5 -33q0 -22 22 -22q21 0 44 29q19 24 24 44z" />
    <glyph glyph-name="braceleft" unicode="{" horiz-adv-x="380" 
d="M33 283v18q70 6 70 81q0 29 -8.5 85t-8.5 85q0 158 210 153l34 -1v-28q-61 3 -83 -7q-34 -16 -34 -70q0 -31 11 -91.5t11 -91.5q0 -108 -114 -122v-3q112 -12 112 -124q0 -32 -11 -95.5t-11 -95.5q0 -57 34 -73q20 -10 85 -9l4 -36h-34q-106 -1 -147 14q-69 27 -69 113
q0 36 6 108t6 108q0 77 -63 82z" />
    <glyph glyph-name="bar" unicode="|" horiz-adv-x="650" 
d="M650 517q0 -12 -3 -34q-55 56 -131 93q-83 40 -156 40q-125 0 -218 -82q-98 -86 -98 -213q0 -184 177 -297q16 1 16 33q0 34 -23 72q-37 60 -43 73q-23 54 -23 127q0 33 13 78q18 57 42 58l11 -16q-1 -40 26 -132q16 -53 32 -107q2 1 4 -30q0 -16 -2 -44q-2 -32 -2 -44
l2 -7q26 64 26 162q0 29 -2.5 86.5t-2.5 85.5q0 34 42.5 74.5t75.5 40.5q13 0 37 -64q23 -60 23 -78q0 -38 -38.5 -90t-76.5 -103q-46 -68 -60 -134l2 -2q59 70 117 141q79 86 157 86q12 0 12 -15q0 -11 -33 -103q-26 -74 -90 -97l-128 -32q-13 -5 -53 -34q-36 -26 -49 -26
q-2 0 -40 16q-93 40 -149 143q-53 97 -47 197q10 154 127 242q101 77 235 77q114 0 210 -56q84 -49 81 -85z" />
    <glyph glyph-name="braceright" unicode="}" horiz-adv-x="380" 
d="M334 283v18q-70 6 -70 81q0 29 8.5 85t8.5 85q0 158 -210 153l-34 -1v-28q61 3 83 -7q34 -16 34 -70q0 -31 -11 -91.5t-11 -91.5q0 -108 114 -122v-3q-112 -12 -112 -124q0 -32 11 -95.5t11 -95.5q0 -57 -33 -73q-21 -10 -86 -9l-4 -36h34q106 -1 147 14q69 27 69 113
q0 36 -5.5 108t-5.5 108q0 77 62 82z" />
    <glyph glyph-name="asciitilde" unicode="~" horiz-adv-x="840" 
d="M265 720l44 39q49 43 94 43q23 0 48 -4q4 0 60 -12q64 -14 92 -14q22 0 39 11q10 6 28 21l27 -9l-37 -33q-31 -27 -47 -36q-25 -14 -57 -14t-133 22q-38 9 -57 9q-32 0 -71 -33z" />
    <glyph glyph-name="Adieresis" unicode="&#xc4;" horiz-adv-x="952" 
d="M941 306q0 -36 -29.5 -62.5t-65.5 -22.5q-12 -85 -12 -99q0 -88 41 -88q12 0 23.5 12t23.5 24l4 -11q-22 -39 -53 -52q-19 -9 -56 -10q-22 -1 -59 10q-42 -10 -49 -10q-33 0 -52 31q-16 26 -16 56t4 67q7 57 8 68q-10 -2 -21 -2q-50 0 -68 38q-39 -50 -100 -43
q-9 -51 -19 -102q-13 -54 -40 -79q-33 -31 -96 -31h-150q-54 0 -94 25q-46 30 -46 82q0 40 27.5 67t67.5 27q44 0 73.5 -28t29.5 -71q0 -14 -16.5 -36.5t-29.5 -32.5q9 -1 16 -1q50 0 68 67q3 12 14 106q-32 4 -60.5 29t-28.5 55q0 46 30 74.5t82 24.5q16 163 54 219
q53 78 199 78q49 0 151 -8t153 -8q48 0 80 4q-36 -58 -47 -143q-8 -75 -16 -149q75 2 75 -75zM697 606q2 28 -23 43q-20 12 -49 12q-109 0 -133 -192q-2 -33 -11 -83q62 0 84 -39q28 44 83 44q14 0 28 -3zM849 327q-11 -17 -11 -40q0 -33 42 -33q21 0 35 17t14 37
q0 63 -66 63q-56 0 -107 -73q-49 79 -105 79q-29 0 -55 -17q-29 -20 -29 -50q0 -60 61 -60q21 0 35 13.5t14 35.5q0 11 -4 22q3 2 7 2q25 0 43 -31t16 -75q46 110 110 110zM485 374q-64 0 -118 -82q-19 41 -34 56q-22 23 -61 23q-28 0 -51 -19.5t-23 -47.5q0 -21 15.5 -39
t36.5 -18q17 0 29.5 11.5t12.5 28.5q0 12 -11 31q6 2 13 2q25 0 43 -30q11 -17 28 -62q11 36 38 66t52 30q7 0 8 -3q-13 -20 -13 -33q0 -20 14.5 -32.5t33.5 -12.5q28 0 45.5 18t17.5 46q0 30 -23 48.5t-53 18.5zM695 765q0 20 14 34t34 14t34.5 -14t14.5 -34t-14.5 -34.5
t-34.5 -14.5t-34 14.5t-14 34.5zM527 765q0 20 14 34t34 14t34 -14t14 -34t-14 -34.5t-34 -14.5t-34 14.5t-14 34.5z" />
    <glyph glyph-name="Aring" unicode="&#xc5;" horiz-adv-x="952" 
d="M941 306q0 -36 -29.5 -62.5t-65.5 -22.5q-12 -85 -12 -99q0 -88 41 -88q12 0 23.5 12t23.5 24l4 -11q-22 -39 -53 -52q-19 -9 -56 -10q-22 -1 -59 10q-42 -10 -49 -10q-33 0 -52 31q-16 26 -16 56t4 67q7 57 8 68q-10 -2 -21 -2q-50 0 -68 38q-39 -50 -100 -43
q-9 -51 -19 -102q-13 -54 -40 -79q-33 -31 -96 -31h-150q-54 0 -94 25q-46 30 -46 82q0 40 27.5 67t67.5 27q44 0 73.5 -28t29.5 -71q0 -14 -16.5 -36.5t-29.5 -32.5q9 -1 16 -1q50 0 68 67q3 12 14 106q-32 4 -60.5 29t-28.5 55q0 46 30 74.5t82 24.5q16 163 54 219
q53 78 199 78q49 0 151 -8t153 -8q48 0 80 4q-36 -58 -47 -143q-8 -75 -16 -149q75 2 75 -75zM697 606q2 28 -23 43q-20 12 -49 12q-109 0 -133 -192q-2 -33 -11 -83q62 0 84 -39q28 44 83 44q14 0 28 -3zM929 308q0 63 -66 63q-56 0 -107 -73q-49 79 -105 79q-29 0 -55 -17
q-29 -20 -29 -50q0 -60 61 -60q21 0 35 13.5t14 35.5q0 11 -4 22q3 2 7 2q25 0 43 -31t16 -75q46 110 110 110q-11 -17 -11 -40q0 -33 42 -33q21 0 35 17t14 37zM561 307q0 30 -23 48.5t-53 18.5q-64 0 -118 -82q-19 41 -34 56q-22 23 -61 23q-28 0 -51 -19.5t-23 -47.5
q0 -21 15.5 -39t36.5 -18q17 0 29.5 11.5t12.5 28.5q0 12 -11 31q6 2 13 2q25 0 43 -30q11 -17 28 -62q11 36 38 66t52 30q7 0 8 -3q-13 -20 -13 -33q0 -20 14.5 -32.5t33.5 -12.5q28 0 45.5 18t17.5 46zM670 708q-29 0 -50.5 20t-21.5 49q0 28 21.5 48t50.5 20
q30 0 51.5 -20t21.5 -48q0 -29 -21.5 -49t-51.5 -20zM670 815q-18 0 -30 -11.5t-12 -26.5q0 -16 12 -27.5t30 -11.5q19 0 31 11.5t12 27.5q0 15 -12 26.5t-31 11.5z" />
    <glyph glyph-name="Ccedilla" unicode="&#xc7;" horiz-adv-x="740" 
d="M592 572q0 27 -8 49q-11 30 -32 30q-50 0 -103 -114q-42 -89 -55 -161q23 -1 39 -28q14 -23 16 -49q58 22 102 118q41 86 41 155zM370 367q-28 0 -61 -24q-28 -22 -47 -50q-32 71 -95 71q-28 0 -50.5 -17.5t-22.5 -46.5q0 -17 18 -33.5t35 -16.5q37 0 37 38q0 5 -1 15
t-1 14v5l17 -1q17 -2 35.5 -38t16.5 -73q47 110 98 110q4 0 9 -5q-13 -13 -13 -25q0 -17 14 -27t30 -10q47 0 47 51q0 27 -19 45t-47 18zM388 -4q-5 -10 -22 -34q-10 -2 52 -2q34 0 34 -33q0 -36 -44 -61q-37 -21 -76 -21q-19 0 -34 10t-15 27q0 30 32 30q4 0 22.5 -19.5
t47.5 -16.5q7 1 16 10t9 16q0 18 -26 30q-20 9 -41 9l-17 7q12 5 19 22q11 23 13 26h-6q-101 0 -149 57q-42 49 -55 156q-52 25 -66 55q-37 9 -60.5 40t-23.5 71q0 118 115 159q37 13 47 13q4 0 9 -14q-72 -19 -107 -47q-47 -38 -47 -104q0 -34 15 -60q17 -31 49 -35v6
q-2 46 42 69q22 9 45 17q10 29 33 87q92 212 245 212q16 0 49 -7t49 -7q11 0 35 8.5t35 8.5q97 0 97 -111q0 -79 -55 -154q-51 -69 -126 -109q-21 -10 -82 -30q-11 -14 -23 -29q-23 -27 -50 -26q0 -3 -1.5 -9.5t-1.5 -9.5q0 -76 26 -124q32 -62 101 -62q88 0 151 127l12 -8
q-23 -53 -49 -81q-30 -34 -79 -50q-26 -9 -32 -9h-112z" />
    <glyph glyph-name="Eacute" unicode="&#xc9;" horiz-adv-x="661" 
d="M622 577q0 -24 -15 -43t-38 -19q-21 0 -35.5 14t-14.5 35q0 48 47 48q11 0 19 -3q-27 32 -68 32q-68 0 -108 -34q-45 -36 -45 -102q0 -27 12 -45q12 2 35 2q141 0 141 -68q0 -67 -127 -67q-74 0 -110 8q-12 -11 -7 -17q25 -6 41 -34q15 -24 15 -49q0 -22 -18.5 -45.5
t-39.5 -30.5q24 -107 166 -107q17 0 30 9q-91 20 -91 102q0 39 29.5 68t68.5 29q37 0 63.5 -29t26.5 -66q0 -85 -87 -132q-71 -37 -164 -37q-73 0 -138 21q-77 26 -114 75q-5 8 -26 51q-20 13 -39 26q-35 26 -35 73q0 36 25.5 57.5t57.5 21.5q7 0 13 -1q2 -1 6.5 9t11.5 16
q48 48 87 64q-47 43 -47 101q0 91 94 135q72 34 174 34q63 0 124 -22q80 -29 80 -80zM535 393q0 23 -40 38q-32 11 -61 11q-8 0 -24 -1h-25q8 -24 49 -48.5t68 -24.5q33 0 33 25zM283 305q-56 0 -88 -41q-5 -7 -16 -23q-31 64 -102 64q-28 0 -47 -18.5t-19 -46.5
q0 -22 15.5 -38.5t38.5 -16.5q41 0 41 56q0 9 -1 18h16q19 0 59 -67q11 30 34.5 51.5t47.5 21.5q9 0 13 -6q-16 -16 -16 -32q0 -35 42 -35q48 0 48 48q0 30 -19 47.5t-47 17.5zM330 729q53 15 120 65q32 24 48 28t31 -4t18 -23q10 -38 -35 -56q-38 -14 -98 -24
q-29 -5 -76 -11z" />
    <glyph glyph-name="Ntilde" unicode="&#xd1;" horiz-adv-x="840" 
d="M820 293q-2 -52 -55 -77q-28 -13 -47 -11q-10 -57 -21 -122q-2 -40 -2 -32q0 -19 14 -19q24 0 45 29l-1 -15q-1 -23 -44 -37q-32 -10 -51 -10h-108q-58 0 -53 74l24 132q-47 2 -71 43q-61 -39 -82 -38l-36 -187l51 -1l-2 -23h-308q2 5 4 22h55q16 88 35 181
q-39 -1 -63 26q-20 25 -18 56q5 88 109 92q12 47 15 110q2 22 2 27q0 57 -49 57q-63 0 -104 -118q-27 -78 -32 -141q-7 -107 47 -174q-8 -14 -27 -41q-50 51 -42 182q8 129 66 242q82 157 222 157q70 0 99 -40q23 -32 23 -100q0 -27 -5 -82q59 112 116 165q66 60 150 60
q56 0 80 -24.5t20 -81.5l-26 -175q0 -7 -4 -24q75 -13 74 -82zM576 547q3 54 -25 54q-35 0 -92 -99q-47 -80 -62 -129q36 -4 60 -39q35 46 90 40zM721 316q-13 -16 -14 -38q-2 -20 11 -29t31 -8q50 4 53 53q2 27 -16.5 46t-48.5 19q-56 0 -112 -73q-38 73 -91 73
q-28 0 -51.5 -19.5t-25.5 -46.5q-1 -17 9 -32q13 -21 38 -21q44 0 47 41q0 7 -7 20l-1 2l5 5q23 -2 57 -46q4 -9 15 -27q59 83 98 81h3zM366 316q-13 -16 -14 -38q-1 -20 12 -29t31 -8q50 4 53 53q1 27 -17.5 46t-48.5 19q-55 0 -112 -73q-38 73 -91 73q-28 0 -51.5 -19.5
t-25.5 -46.5q-1 -17 9 -32q13 -21 39 -21q44 0 46 41q1 7 -7 20v2l5 5q22 -2 57 -46q5 -7 17 -22q56 78 95 76h3zM265 720l44 39q49 43 94 43q23 0 48 -4q4 0 60 -12q64 -14 92 -14q22 0 39 11q10 6 28 21l27 -9l-37 -33q-31 -27 -47 -36q-25 -14 -57 -14t-133 22
q-38 9 -57 9q-32 0 -71 -33z" />
    <glyph glyph-name="Odieresis" unicode="&#xd6;" horiz-adv-x="885" 
d="M861 304q0 -38 -24 -62.5t-61 -22.5q-28 -95 -42 -122q-31 -62 -91 -88q-38 -16 -61 -14l-158 13q-28 0 -86.5 -7t-86.5 -7q-182 0 -183 220q-30 6 -48 30t-18 56q0 37 29 60q25 20 64 24q19 138 58 201q57 92 176 92q25 0 74.5 -3.5t74.5 -3.5q23 0 68.5 4t68.5 4
q189 0 189 -217q0 -4 -10 -76q26 -7 46.5 -31t20.5 -50zM593 526q0 60 -19 88q-24 35 -82 35q-97 0 -138 -93q-26 -57 -35 -178q27 -6 44.5 -27t17.5 -47q0 -35 -24 -60t-60 -27q-1 -40 -1 -58q0 -73 25 -100.5t98 -27.5q66 0 105 64q30 50 38 124q-35 2 -60 26t-25 59
q0 40 37 64q32 22 65 17q1 15 9 70q5 44 5 71zM758 326q-12 -16 -12 -39q0 -37 45 -37q49 0 49 54q0 29 -20 46.5t-49 17.5q-55 0 -107 -72q-43 73 -93 73q-27 0 -51.5 -19.5t-24.5 -47.5q0 -21 15 -36.5t36 -15.5q44 0 44 41q0 7 -9 21l4 3q25 -2 79 -66q50 77 91 77h3z
M281 322q-12 -16 -12 -38q0 -37 40 -37q24 0 39 15t15 39q0 28 -20.5 46t-48.5 18q-56 0 -107 -73q-43 73 -96 73q-27 0 -50 -19t-23 -47q0 -21 15 -36.5t36 -15.5q44 0 44 40q0 7 -9 22l5 5q22 -2 58 -44q6 -7 20 -24q50 77 91 77q1 0 3 -1zM525 765q0 20 14 34t34 14
t34.5 -14t14.5 -34t-14.5 -34.5t-34.5 -14.5t-34 14.5t-14 34.5zM357 765q0 20 14 34t34 14t34 -14t14 -34t-14 -34.5t-34 -14.5t-34 14.5t-14 34.5z" />
    <glyph glyph-name="Udieresis" unicode="&#xdc;" horiz-adv-x="764" 
d="M748 671q-37 -71 -53 -140q-9 -58 -24 -155q68 -17 67 -78q-1 -33 -27.5 -58.5t-55.5 -25.5h-11l-17 -117l2 -42q3 -25 18 -25q9 0 20 16l16 24q2 -1 5 0l5 1q2 0 1 -4q-13 -72 -81 -72q-12 0 -33.5 2.5t-29.5 2.5q-60 -4 -65 -4q-32 0 -45 12t-13 47q0 34 14 106
q-90 -114 -131 -141t-126 -27q-67 0 -91.5 19.5t-24.5 69.5q0 30 12 121q-71 20 -70 81q1 42 31 67q27 23 71 23q23 126 24 159q1 22 -11 38t-32 15q-66 -4 -66 -80q0 -42 18 -94l-18 -2q-17 61 -17 102q0 174 231 170q104 -1 102 -105q-10 -69 -28 -203q46 -8 62 -46
q30 56 95 48l40 217q13 81 92 81q5 0 42 2q34 2 55 1q31 -1 47 -6zM444 207q-57 11 -67 54q-30 -46 -89 -49q-3 -7 -10.5 -48.5t-7.5 -47.5q-2 -64 29 -64t90 74q47 60 55 81zM645 321q-13 -16 -13 -39q-1 -36 39 -36q24 0 39.5 14.5t16.5 38.5q1 28 -19.5 46t-48.5 18
q-56 0 -109 -72q-40 72 -94 72q-27 0 -50 -19t-24 -47q-1 -20 13.5 -36t35.5 -16q36 0 44 31q4 17 -6 31l-1 1l6 6q19 5 55 -44q6 -8 20 -26q52 77 93 77h3zM288 318q-17 -18 -12 -40q7 -35 39 -35q24 0 39.5 14.5t16.5 38.5q1 28 -19.5 46t-48.5 18q-56 0 -109 -72
q-40 72 -94 72q-27 0 -50 -19t-24 -47q-1 -20 13.5 -36t35.5 -16q44 0 45 41q0 7 -8 22l5 6q20 5 56 -44q6 -8 20 -26q52 77 93 77h2zM465 765q0 20 14 34t34 14t34.5 -14t14.5 -34t-14.5 -34.5t-34.5 -14.5t-34 14.5t-14 34.5zM297 765q0 20 14 34t34 14t34 -14t14 -34
t-14 -34.5t-34 -14.5t-34 14.5t-14 34.5z" />
    <glyph glyph-name="aacute" unicode="&#xe1;" horiz-adv-x="527" 
d="M501 63q-18 -67 -95 -67q-66 0 -84 5q-47 13 -49 63q-58 -69 -131 -69q-65 0 -104 42q-36 39 -36 98q0 84 58 143q57 56 133 56q33 0 56 -14q18 -11 48 -44q3 13 13 49h168l-39 -246q-2 -7 -2 -13q0 -23 28 -23q12 0 21 20h15zM289 228q0 19 -13 43q-15 29 -39 29
q-30 0 -51 -90q-15 -66 -15 -96q0 -26 11 -45q13 -22 38 -22q34 0 55 82q14 58 14 99zM190 389q53 15 120 65q32 24 48 28t31 -4t18 -23q10 -38 -35 -56q-38 -14 -98 -24q-29 -5 -76 -11z" />
    <glyph glyph-name="agrave" unicode="&#xe0;" horiz-adv-x="527" 
d="M501 63q-18 -67 -95 -67q-66 0 -84 5q-47 13 -49 63q-58 -69 -131 -69q-65 0 -104 42q-36 39 -36 98q0 84 58 143q57 56 133 56q33 0 56 -14q18 -11 48 -44q3 13 13 49h168l-39 -246q-2 -7 -2 -13q0 -23 28 -23q12 0 21 20h15zM289 228q0 19 -13 43q-15 29 -39 29
q-30 0 -51 -90q-15 -66 -15 -96q0 -26 11 -45q13 -22 38 -22q34 0 55 82q14 58 14 99zM404 389q-53 15 -120 65q-32 24 -48 28t-30.5 -4t-18.5 -23q-10 -38 35 -56q38 -14 98 -24q29 -5 76 -11z" />
    <glyph glyph-name="acircumflex" unicode="&#xe2;" horiz-adv-x="527" 
d="M501 63q-18 -67 -95 -67q-66 0 -84 5q-47 13 -49 63q-58 -69 -131 -69q-65 0 -104 42q-36 39 -36 98q0 84 58 143q57 56 133 56q33 0 56 -14q18 -11 48 -44q3 13 13 49h168l-39 -246q-2 -7 -2 -13q0 -23 28 -23q12 0 21 20h15zM289 228q0 19 -13 43q-15 29 -39 29
q-30 0 -51 -90q-15 -66 -15 -96q0 -26 11 -45q13 -22 38 -22q34 0 55 82q14 58 14 99zM431 373l-20 -11q-60 25 -121 62q-62 -37 -122 -62l-20 11q33 30 67 61q42 37 75 37q32 0 75 -37q33 -31 66 -61z" />
    <glyph glyph-name="adieresis" unicode="&#xe4;" horiz-adv-x="527" 
d="M501 63q-18 -67 -95 -67q-66 0 -84 5q-47 13 -49 63q-58 -69 -131 -69q-65 0 -104 42q-36 39 -36 98q0 84 58 143q57 56 133 56q33 0 56 -14q18 -11 48 -44q3 13 13 49h168l-39 -246q-2 -7 -2 -13q0 -23 28 -23q12 0 21 20h15zM289 228q0 19 -13 43q-15 29 -39 29
q-30 0 -51 -90q-15 -66 -15 -96q0 -26 11 -45q13 -22 38 -22q34 0 55 82q14 58 14 99zM325 425q0 20 14 34t34 14t34.5 -14t14.5 -34t-14.5 -34.5t-34.5 -14.5t-34 14.5t-14 34.5zM167 425q0 20 14 34t34 14t34 -14t14 -34t-14 -34.5t-34 -14.5t-34 14.5t-14 34.5z" />
    <glyph glyph-name="atilde" unicode="&#xe3;" horiz-adv-x="527" 
d="M501 63q-18 -67 -95 -67q-66 0 -84 5q-47 13 -49 63q-58 -69 -131 -69q-65 0 -104 42q-36 39 -36 98q0 84 58 143q57 56 133 56q33 0 56 -14q18 -11 48 -44q3 13 13 49h168l-39 -246q-2 -7 -2 -13q0 -23 28 -23q12 0 21 20h15zM289 228q0 19 -13 43q-15 29 -39 29
q-30 0 -51 -90q-15 -66 -15 -96q0 -26 11 -45q13 -22 38 -22q34 0 55 82q14 58 14 99zM109 377q47 42 49 44q30 22 61 22q27 0 79.5 -12t79.5 -12q23 0 54 25l21 -7q-46 -41 -50 -44q-30 -22 -62 -22q-26 0 -76.5 12.5t-75.5 12.5t-57 -27z" />
    <glyph glyph-name="aring" unicode="&#xe5;" horiz-adv-x="527" 
d="M501 63q-18 -67 -95 -67q-66 0 -84 5q-47 13 -49 63q-58 -69 -131 -69q-65 0 -104 42q-36 39 -36 98q0 84 58 143q57 56 133 56q33 0 56 -14q18 -11 48 -44q3 13 13 49h168l-39 -246q-2 -7 -2 -13q0 -23 28 -23q12 0 21 20h15zM289 228q0 19 -13 43q-15 29 -39 29
q-30 0 -51 -90q-15 -66 -15 -96q0 -26 11 -45q13 -22 38 -22q34 0 55 82q14 58 14 99zM300 378q-29 0 -50.5 20t-21.5 49q0 28 21.5 48t50.5 20q30 0 51.5 -20t21.5 -48q0 -29 -21.5 -49t-51.5 -20zM300 485q-18 0 -30 -11.5t-12 -26.5q0 -16 12 -27.5t30 -11.5
q19 0 31 11.5t12 27.5q0 15 -12 26.5t-31 11.5z" />
    <glyph glyph-name="ccedilla" unicode="&#xe7;" horiz-adv-x="393" 
d="M184 -8q-4 -9 -18 -30q-10 -2 52 -2q34 0 34 -33q0 -36 -44 -61q-37 -21 -76 -21q-19 0 -34 10t-15 27q0 30 32 30q4 0 22.5 -19.5t47.5 -16.5q7 1 16 10t9 16q0 18 -26 30q-20 9 -41 9l-17 7q12 5 23 20q8 12 17 25q-44 2 -77 9q-44 9 -69 53q-21 38 -21 86
q0 120 72 160q51 28 180 28q112 0 113 -78q0 -29 -19 -51.5t-49 -22.5q-26 0 -48 18.5t-22 47.5q-1 40 19 65q-2 3 -17 0q-50 -35 -50 -170q0 -120 71 -120q33 0 54 18q2 2 24 27q2 0 4 -2.5t4 -3.5q-13 -35 -63 -52q-38 -13 -85 -13h-3z" />
    <glyph glyph-name="eacute" unicode="&#xe9;" horiz-adv-x="406" 
d="M379 225q0 -69 -71 -97q-19 -7 -128 -26q-1 -7 -1 -14q0 -72 68 -72q56 0 83 47l10 -3q-23 -64 -130 -64q-77 0 -116 1q-46 1 -72 49q-21 39 -21 89q0 110 58 156q51 41 162 41q90 0 114 -11q44 -19 44 -96zM281 252q0 17 -6 35q-8 24 -22 24q-35 0 -57 -73
q-16 -55 -16 -102q-1 -8 0 -8q45 1 73 39t28 85zM120 389q53 15 120 65q32 24 48 28t31 -4t18 -23q10 -38 -35 -56q-38 -14 -98 -24q-29 -5 -76 -11z" />
    <glyph glyph-name="egrave" unicode="&#xe8;" horiz-adv-x="406" 
d="M379 225q0 -69 -71 -97q-19 -7 -128 -26q-1 -7 -1 -14q0 -72 68 -72q56 0 83 47l10 -3q-23 -64 -130 -64q-77 0 -116 1q-46 1 -72 49q-21 39 -21 89q0 110 58 156q51 41 162 41q90 0 114 -11q44 -19 44 -96zM281 252q0 17 -6 35q-8 24 -22 24q-35 0 -57 -73
q-16 -55 -16 -102q-1 -8 0 -8q45 1 73 39t28 85zM324 389q-53 15 -120 65q-32 24 -48 28t-30.5 -4t-18.5 -23q-10 -38 35 -56q38 -14 98 -24q29 -5 76 -11z" />
    <glyph glyph-name="ecircumflex" unicode="&#xea;" horiz-adv-x="406" 
d="M379 225q0 -69 -71 -97q-19 -7 -128 -26q-1 -7 -1 -14q0 -72 68 -72q56 0 83 47l10 -3q-23 -64 -130 -64q-77 0 -116 1q-46 1 -72 49q-21 39 -21 89q0 110 58 156q51 41 162 41q90 0 114 -11q44 -19 44 -96zM281 252q0 17 -6 35q-8 24 -22 24q-35 0 -57 -73
q-16 -55 -16 -102q-1 -8 0 -8q45 1 73 39t28 85zM361 373l-20 -11q-60 25 -121 62q-62 -37 -122 -62l-20 11q33 30 67 61q42 37 75 37q32 0 75 -37q33 -31 66 -61z" />
    <glyph glyph-name="edieresis" unicode="&#xeb;" horiz-adv-x="406" 
d="M379 225q0 -69 -71 -97q-19 -7 -128 -26q-1 -7 -1 -14q0 -72 68 -72q56 0 83 47l10 -3q-23 -64 -130 -64q-77 0 -116 1q-46 1 -72 49q-21 39 -21 89q0 110 58 156q51 41 162 41q90 0 114 -11q44 -19 44 -96zM281 252q0 17 -6 35q-8 24 -22 24q-35 0 -57 -73
q-16 -55 -16 -102q-1 -8 0 -8q45 1 73 39t28 85zM245 425q0 20 14 34t34 14t34.5 -14t14.5 -34t-14.5 -34.5t-34.5 -14.5t-34 14.5t-14 34.5zM87 425q0 20 14 34t34 14t34 -14t14 -34t-14 -34.5t-34 -14.5t-34 14.5t-14 34.5z" />
    <glyph glyph-name="iacute" unicode="&#xed;" horiz-adv-x="283" 
d="M55 221q0 30 -17 32q-10 1 -16 -8q-7 -13 -11 -15q-3 3 -11 4q11 41 57 71q43 28 84 28q36 0 60 -18q29 -21 29 -60l-24 -191q-2 -6 2 -18.5t14 -12.5q11 0 29 22q7 0 11 -3q-10 -25 -46 -44q-29 -15 -50 -15l-38 8l-36 -8q-57 0 -57 73zM40 389q53 15 120 65
q32 24 48 28t31 -4t18 -23q10 -38 -35 -56q-38 -14 -98 -24q-29 -5 -76 -11z" />
    <glyph glyph-name="igrave" unicode="&#xec;" horiz-adv-x="283" 
d="M55 221q0 30 -17 32q-10 1 -16 -8q-7 -13 -11 -15q-3 3 -11 4q11 41 57 71q43 28 84 28q36 0 60 -18q29 -21 29 -60l-24 -191q-2 -6 2 -18.5t14 -12.5q11 0 29 22q7 0 11 -3q-10 -25 -46 -44q-29 -15 -50 -15l-38 8l-36 -8q-57 0 -57 73zM264 389q-53 15 -120 65
q-32 24 -48 28t-30.5 -4t-18.5 -23q-10 -38 35 -56q38 -14 98 -24q29 -5 76 -11z" />
    <glyph glyph-name="icircumflex" unicode="&#xee;" horiz-adv-x="283" 
d="M55 221q0 30 -17 32q-10 1 -16 -8q-7 -13 -11 -15q-3 3 -11 4q11 41 57 71q43 28 84 28q36 0 60 -18q29 -21 29 -60l-24 -191q-2 -6 2 -18.5t14 -12.5q11 0 29 22q7 0 11 -3q-10 -25 -46 -44q-29 -15 -50 -15l-38 8l-36 -8q-57 0 -57 73zM271 373l-20 -11q-60 25 -121 62
q-62 -37 -122 -62l-20 11q33 30 67 61q42 37 75 37q32 0 75 -37q33 -31 66 -61z" />
    <glyph glyph-name="idieresis" unicode="&#xef;" horiz-adv-x="283" 
d="M55 221q0 30 -17 32q-10 1 -16 -8q-7 -13 -11 -15q-3 3 -11 4q11 41 57 71q43 28 84 28q36 0 60 -18q29 -21 29 -60l-24 -191q-2 -6 2 -18.5t14 -12.5q11 0 29 22q7 0 11 -3q-10 -25 -46 -44q-29 -15 -50 -15l-38 8l-36 -8q-57 0 -57 73zM185 425q0 20 14 34t34 14
t34.5 -14t14.5 -34t-14.5 -34.5t-34.5 -14.5t-34 14.5t-14 34.5zM27 425q0 20 14 34t34 14t34 -14t14 -34t-14 -34.5t-34 -14.5t-34 14.5t-14 34.5z" />
    <glyph glyph-name="ntilde" unicode="&#xf1;" horiz-adv-x="555" 
d="M168 331q90 0 92 -105q75 106 150 106q37 0 64 -22q32 -26 33 -74l-19 -170q-3 -8 -1 -18q2 -11 11 -11q6 0 23 20q7 0 11 -3q-10 -25 -46 -44q-29 -15 -50 -15l-37 6l-37 -6q-56 0 -56 73l20 135q-5 38 -18 36q-42 -4 -60 -83q-10 -44 -11 -89l-1 -40q6 -11 18 -14
l18 -2l-3 -13q-115 7 -244 -1l1 12q8 3 17.5 6t11.5 15q22 146 22 182q0 31 -15 31q-32 0 -49 -34q-1 -1 -7.5 4.5t-4.5 5.5q51 62 83 84q38 28 84 28zM109 377q47 42 49 44q30 22 61 22q27 0 79.5 -12t79.5 -12q23 0 54 25l21 -7q-46 -41 -50 -44q-30 -22 -62 -22
q-26 0 -76.5 12.5t-75.5 12.5t-57 -27z" />
    <glyph glyph-name="oacute" unicode="&#xf3;" horiz-adv-x="517" 
d="M493 185q0 -63 -46 -122q-51 -66 -119 -66q2 0 -27 -1q-26 -1 -43 0q-25 1 -35 5q-15 -6 -69 -7q-23 1 -46 1q-47 10 -75 42.5t-28 74.5q0 85 40 144q49 73 142 73q68 1 89 -5q24 5 62 5q28 1 55 1q50 -5 79 -63q21 -44 21 -82zM322 221q1 6 1 15q0 25 -11 44
q-15 24 -42 24q-43 0 -74 -87q-27 -77 -21 -113q4 -25 7 -49q10 -34 45 -34q43 0 71 91q12 54 24 109zM170 389q53 15 120 65q32 24 48 28t31 -4t18 -23q10 -38 -35 -56q-38 -14 -98 -24q-29 -5 -76 -11z" />
    <glyph glyph-name="ograve" unicode="&#xf2;" horiz-adv-x="517" 
d="M493 185q0 -63 -46 -122q-51 -66 -119 -66q2 0 -27 -1q-26 -1 -43 0q-25 1 -35 5q-15 -6 -69 -7q-23 1 -46 1q-47 10 -75 42.5t-28 74.5q0 85 40 144q49 73 142 73q68 1 89 -5q24 5 62 5q28 1 55 1q50 -5 79 -63q21 -44 21 -82zM322 221q1 6 1 15q0 25 -11 44
q-15 24 -42 24q-43 0 -74 -87q-27 -77 -21 -113q4 -25 7 -49q10 -34 45 -34q43 0 71 91q12 54 24 109zM384 389q-53 15 -120 65q-32 24 -48 28t-30.5 -4t-18.5 -23q-10 -38 35 -56q38 -14 98 -24q29 -5 76 -11z" />
    <glyph glyph-name="ocircumflex" unicode="&#xf4;" horiz-adv-x="517" 
d="M493 185q0 -63 -46 -122q-51 -66 -119 -66q2 0 -27 -1q-26 -1 -43 0q-25 1 -35 5q-15 -6 -69 -7q-23 1 -46 1q-47 10 -75 42.5t-28 74.5q0 85 40 144q49 73 142 73q68 1 89 -5q24 5 62 5q28 1 55 1q50 -5 79 -63q21 -44 21 -82zM322 221q1 6 1 15q0 25 -11 44
q-15 24 -42 24q-43 0 -74 -87q-27 -77 -21 -113q4 -25 7 -49q10 -34 45 -34q43 0 71 91q12 54 24 109zM411 373l-20 -11q-60 25 -121 62q-62 -37 -122 -62l-20 11q33 30 67 61q42 37 75 37q32 0 75 -37q33 -31 66 -61z" />
    <glyph glyph-name="odieresis" unicode="&#xf6;" horiz-adv-x="517" 
d="M493 185q0 -63 -46 -122q-51 -66 -119 -66q2 0 -27 -1q-26 -1 -43 0q-25 1 -35 5q-15 -6 -69 -7q-23 1 -46 1q-47 10 -75 42.5t-28 74.5q0 85 40 144q49 73 142 73q68 1 89 -5q24 5 62 5q28 1 55 1q50 -5 79 -63q21 -44 21 -82zM322 221q1 6 1 15q0 25 -11 44
q-15 24 -42 24q-43 0 -74 -87q-27 -77 -21 -113q4 -25 7 -49q10 -34 45 -34q43 0 71 91q12 54 24 109zM315 425q0 20 14 34t34 14t34.5 -14t14.5 -34t-14.5 -34.5t-34.5 -14.5t-34 14.5t-14 34.5zM157 425q0 20 14 34t34 14t34 -14t14 -34t-14 -34.5t-34 -14.5t-34 14.5
t-14 34.5z" />
    <glyph glyph-name="otilde" unicode="&#xf5;" horiz-adv-x="517" 
d="M493 185q0 -63 -46 -122q-51 -66 -119 -66q2 0 -27 -1q-26 -1 -43 0q-25 1 -35 5q-15 -6 -69 -7q-23 1 -46 1q-47 10 -75 42.5t-28 74.5q0 85 40 144q49 73 142 73q68 1 89 -5q24 5 62 5q28 1 55 1q50 -5 79 -63q21 -44 21 -82zM322 221q1 6 1 15q0 25 -11 44
q-15 24 -42 24q-43 0 -74 -87q-27 -77 -21 -113q4 -25 7 -49q10 -34 45 -34q43 0 71 91q12 54 24 109zM99 377q47 42 49 44q30 22 61 22q27 0 79.5 -12t79.5 -12q23 0 54 25l21 -7q-46 -41 -50 -44q-30 -22 -62 -22q-26 0 -76.5 12.5t-75.5 12.5t-57 -27z" />
    <glyph glyph-name="uacute" unicode="&#xfa;" horiz-adv-x="520" 
d="M489 56q-1 -3 3 -3.5t2 -2.5q-12 -25 -40 -40q-21 -10 -33 -10l-16 1.5t-28 1.5q-13 0 -30 -1.5l-17 -1.5q-52 0 -58 66q-48 -67 -104 -67q-6 0 -17.5 2t-18.5 2q-6 0 -16.5 -1.5t-14.5 -1.5q-35 0 -48 9q-18 13 -18 50q0 4 10 84.5t10 85.5q0 34 -22 32q-8 0 -15 -9.5
t-14 -17.5q-7 0 -12 4q18 40 62 68.5t83 28.5q35 0 60 -19q29 -22 28 -63l-23 -192q0 -25 18 -25q62 0 88 289h169l-32 -269q-1 -11 1 -16q4 -10 15 -7q7 0 28 23zM170 389q53 15 120 65q32 24 48 28t31 -4t18 -23q10 -38 -35 -56q-38 -14 -98 -24q-29 -5 -76 -11z" />
    <glyph glyph-name="ugrave" unicode="&#xf9;" horiz-adv-x="520" 
d="M489 56q-1 -3 3 -3.5t2 -2.5q-12 -25 -40 -40q-21 -10 -33 -10l-16 1.5t-28 1.5q-13 0 -30 -1.5l-17 -1.5q-52 0 -58 66q-48 -67 -104 -67q-6 0 -17.5 2t-18.5 2q-6 0 -16.5 -1.5t-14.5 -1.5q-35 0 -48 9q-18 13 -18 50q0 4 10 84.5t10 85.5q0 34 -22 32q-8 0 -15 -9.5
t-14 -17.5q-7 0 -12 4q18 40 62 68.5t83 28.5q35 0 60 -19q29 -22 28 -63l-23 -192q0 -25 18 -25q62 0 88 289h169l-32 -269q-1 -11 1 -16q4 -10 15 -7q7 0 28 23zM384 389q-53 15 -120 65q-32 24 -48 28t-30.5 -4t-18.5 -23q-10 -38 35 -56q38 -14 98 -24q29 -5 76 -11z
" />
    <glyph glyph-name="ucircumflex" unicode="&#xfb;" horiz-adv-x="520" 
d="M489 56q-1 -3 3 -3.5t2 -2.5q-12 -25 -40 -40q-21 -10 -33 -10l-16 1.5t-28 1.5q-13 0 -30 -1.5l-17 -1.5q-52 0 -58 66q-48 -67 -104 -67q-6 0 -17.5 2t-18.5 2q-6 0 -16.5 -1.5t-14.5 -1.5q-35 0 -48 9q-18 13 -18 50q0 4 10 84.5t10 85.5q0 34 -22 32q-8 0 -15 -9.5
t-14 -17.5q-7 0 -12 4q18 40 62 68.5t83 28.5q35 0 60 -19q29 -22 28 -63l-23 -192q0 -25 18 -25q62 0 88 289h169l-32 -269q-1 -11 1 -16q4 -10 15 -7q7 0 28 23zM411 373l-20 -11q-60 25 -121 62q-62 -37 -122 -62l-20 11q33 30 67 61q42 37 75 37q32 0 75 -37
q33 -31 66 -61z" />
    <glyph glyph-name="udieresis" unicode="&#xfc;" horiz-adv-x="520" 
d="M489 56q-1 -3 3 -3.5t2 -2.5q-12 -25 -40 -40q-21 -10 -33 -10l-16 1.5t-28 1.5q-13 0 -30 -1.5l-17 -1.5q-52 0 -58 66q-48 -67 -104 -67q-6 0 -17.5 2t-18.5 2q-6 0 -16.5 -1.5t-14.5 -1.5q-35 0 -48 9q-18 13 -18 50q0 4 10 84.5t10 85.5q0 34 -22 32q-8 0 -15 -9.5
t-14 -17.5q-7 0 -12 4q18 40 62 68.5t83 28.5q35 0 60 -19q29 -22 28 -63l-23 -192q0 -25 18 -25q62 0 88 289h169l-32 -269q-1 -11 1 -16q4 -10 15 -7q7 0 28 23zM295 425q0 20 14 34t34 14t34.5 -14t14.5 -34t-14.5 -34.5t-34.5 -14.5t-34 14.5t-14 34.5zM137 425
q0 20 14 34t34 14t34 -14t14 -34t-14 -34.5t-34 -14.5t-34 14.5t-14 34.5z" />
    <glyph glyph-name="dagger" unicode="&#x2020;" horiz-adv-x="495" 
d="M412 280l-112 -1q-23 -194 -23 -241q0 -75 33 -142q-57 13 -76 23q-39 19 -59 62q-31 -81 -151 -81q35 30 59 109q18 62 23 125l10 146h-113l10 139h118q10 51 10 90q0 44 -15 75q-16 35 -18 48q35 -1 71 -29.5t51 -62.5q29 37 66 62q45 31 84 29q-45 -50 -57 -98
q-5 -18 -11 -111l113 2z" />
    <glyph glyph-name="degree" unicode="&#xb0;" horiz-adv-x="522" 
d="M262 676q61 0 102.5 -41t41.5 -102q0 -60 -43 -103t-103 -43t-102 42.5t-42 102.5q0 70 50 111q40 33 96 33zM261 597q-28 0 -47 -18.5t-19 -45.5q0 -28 18.5 -47.5t45.5 -19.5q29 0 48.5 19.5t19.5 47.5q0 27 -20 45.5t-46 18.5z" />
    <glyph glyph-name="cent" unicode="&#xa2;" horiz-adv-x="393" 
d="M186 616h32l-10 -97h43q113 0 113 -78q0 -29 -19 -51.5t-49 -22.5q-27 0 -48.5 19.5t-21.5 46.5q0 34 24 64q-2 0 -5.5 1.5t-6.5 1.5q-33 0 -49 -70q-11 -48 -11 -102q0 -120 71 -120q28 0 45 12q10 7 33 33l8 -6q-14 -36 -68 -53q-41 -13 -90 -12l-10 -107h-32l12 107
q-74 7 -109 40q-39 36 -39 109q0 94 43 137q40 42 134 49z" />
    <glyph glyph-name="sterling" unicode="&#xa3;" horiz-adv-x="622" 
d="M69 246h58q-19 30 -51 92q-2 4 -2 31q0 64 54 113q51 46 113 46q6 0 26 -4.5t27 -4.5t55.5 3.5t55.5 3.5q63 0 101 -42q36 -37 36 -89q0 -103 -91 -103q-47 0 -74 35q-23 31 -23 70q0 34 26 60q30 31 82 32q-19 14 -46 14q-56 0 -108 -51q-46 -46 -48 -84
q-4 -75 -27 -122h135l-8 -26h-140l-3 -5q2 -3 -42 -43q-50 -46 -56 -53q45 15 89 30q38 11 74 11q7 0 108.5 -14t108.5 -14q39 0 48 19q9 25 18 49l7 -5q4 -3 4 -12q0 -77 -54 -139q-58 -66 -143 -66q-6 0 -134 25.5t-134 25.5q-46 0 -54 -13q-11 -19 -34 -26v24
q0 27 111 172q6 10 6 21q0 7 -4 13h-74z" />
    <glyph glyph-name="section" unicode="&#xa7;" 
 />
    <glyph glyph-name="bullet" unicode="&#x2022;" horiz-adv-x="374" 
d="M19 243q0 55 39 93.5t94 38.5t94 -38.5t39 -93.5t-39 -94t-94 -39t-94 39t-39 94z" />
    <glyph glyph-name="paragraph" unicode="&#xb6;" 
 />
    <glyph glyph-name="germandbls" unicode="&#xdf;" horiz-adv-x="513" 
d="M182 584q3 -19 19 -38q9 -9 18 -17l-55 -459q1 -23 3 -43q6 -47 18 -69q-23 1 -51.5 26t-37.5 51q-28 -32 -50.5 -46t-64.5 -27q58 46 58 233q0 42 -36 70q45 19 54 124q13 142 28 179q37 93 152 98q38 1 55 1q83 0 122 -30q54 -42 51 -149q-2 -92 -28 -139
q-29 -53 -98 -67q73 -19 97 -69q22 -45 17 -146q-6 -139 -100 -201q-65 -42 -162 -42q-29 0 -52 3q-17 2 -56 13l2 16q5 0 27 -3q43 -10 101 39q73 62 81 178q7 103 7 109q0 43 -17 60t-68 18q1 19 7 41q2 2 8 2h5.5h6.5q74 0 83 176q1 23 5 62q3 33 3 46q0 31 -15 44
t-58 15q-34 2 -50.5 -12.5t-28.5 -46.5z" />
    <glyph glyph-name="registered" unicode="&#xae;" horiz-adv-x="432" 
d="M212 322q-75 0 -128 54t-53 130q0 75 53 128t128 53t127.5 -53.5t52.5 -129.5q0 -75 -52.5 -128.5t-127.5 -53.5zM212 643q-58 1 -97 -39.5t-39 -99.5q0 -57 40.5 -98t95.5 -41t95 41t40 98t-40 97t-95 42zM217 600q11 4 32 -2q36 -11 36 -46q0 -45 -44 -54l49 -76h-45
l-49 75h-15v-75h-38v178h74zM218 568h-39v-29h44q25 0 25 18q0 11 -30 11z" />
    <glyph glyph-name="copyright" unicode="&#xa9;" horiz-adv-x="814" 
d="M396 -21q-149 0 -253 104.5t-104 254.5t104 255t253 105t253.5 -105t104.5 -255t-104.5 -254.5t-253.5 -104.5zM396 625q-116 0 -200.5 -84t-84.5 -203t84.5 -202.5t200.5 -83.5t200.5 83.5t84.5 202.5t-84.5 203t-200.5 84zM507 397q-23 81 -101 81q-60 0 -95 -39
t-35 -100q0 -55 31 -94q35 -43 97 -43q83 0 103 79h74q-17 -75 -63.5 -113.5t-112.5 -38.5q-92 0 -147 60t-55 152q0 89 56 150t147 61q65 0 112 -39q50 -42 63 -116h-74z" />
    <glyph glyph-name="trademark" unicode="&#x2122;" horiz-adv-x="492" 
d="M407 607l-56 -140h-27l-52 134v-134h-43v211h58l51 -129l52 129h59v-211h-42v140zM133 634v-167h-43v167h-65v44h172v-44h-64z" />
    <glyph glyph-name="acute" unicode="&#xb4;" horiz-adv-x="661" 
d="M330 729q53 15 120 65q32 24 48 28t31 -4t18 -23q10 -38 -35 -56q-38 -14 -98 -24q-29 -5 -76 -11z" />
    <glyph glyph-name="dieresis" unicode="&#xa8;" horiz-adv-x="661" 
d="M465 765q0 20 14 34t34 14t34.5 -14t14.5 -34t-14.5 -34.5t-34.5 -14.5t-34 14.5t-14 34.5zM317 765q0 20 14 34t34 14t34 -14t14 -34t-14 -34.5t-34 -14.5t-34 14.5t-14 34.5z" />
    <glyph glyph-name="AE" unicode="&#xc6;" horiz-adv-x="1201" 
d="M1202 577q0 -24 -15 -43t-38 -19q-21 0 -35.5 14t-14.5 35q0 48 47 48q11 0 19 -3q-27 32 -68 32q-74 0 -118 -26q-54 -31 -54 -95q0 -26 1.5 -31.5t15.5 -26.5q-3 0 49 0q141 0 141 -68q0 -67 -127 -67q-19 0 -35 12q-23 16 -28 18q8 -11 8 -54q0 -25 -21 -46.5
t-48 -31.5q-10 -44 5 -66q24 -107 166 -107q17 0 30 9q-91 20 -91 102q0 39 29.5 68t68.5 29q37 0 63.5 -29t26.5 -66q0 -85 -87 -132q-71 -37 -164 -37q-36 0 -71 5q-13 -3 -40 -4q-58 -3 -115 66t-57 137q0 9 1 18q-7 -1 -14 -1q-50 0 -68 38q-39 -50 -100 -43
q-9 -51 -19 -102q-13 -54 -40 -79q-33 -31 -96 -31h-150q-54 0 -94 25q-46 30 -46 82q0 40 27.5 67t67.5 27q44 0 73.5 -28t29.5 -71q0 -14 -16.5 -36.5t-29.5 -32.5q9 -1 16 -1q50 0 68 67q3 12 14 106q-31 4 -60 33.5t-29 60.5q0 44 29.5 68.5t82.5 20.5q15 155 60 211
q56 71 205 71q20 0 55.5 2.5t50.5 2.5q81 0 124 -67q-1 1 38 27q48 32 98 37q60 7 85 7q62 0 119 -22q75 -29 75 -80zM1115 393q0 23 -40 38q-32 11 -61 11q-8 0 -32 -4.5t-32 -4.5q8 -23 58 -45q45 -20 74 -20q33 0 33 25zM745 587q4 28 -40 45q-35 14 -69 14
q-122 0 -144 -177q-2 -33 -11 -83q62 0 84 -39q13 20 43 36t59 16q20 0 36 -8l71 42q-29 38 -38 96zM933 309q0 69 -63 69q-53 0 -110 -80q-48 80 -104 80q-30 0 -55 -18q-29 -20 -29 -49q0 -60 60 -60q22 0 36 13.5t14 35.5q0 11 -5 22q3 1 7 1q25 0 43 -30.5t16 -74.5
q46 109 111 110q-12 -18 -12 -41q0 -32 43 -32q20 0 34 17t14 37zM561 307q0 30 -23 48.5t-53 18.5q-64 0 -118 -82q-19 41 -34 56q-22 23 -61 23q-28 0 -51 -19.5t-23 -47.5q0 -21 15.5 -39t36.5 -18q17 0 29.5 11.5t12.5 28.5q0 12 -11 31q6 2 13 2q25 0 43 -30
q11 -17 28 -62q11 36 38 66t52 30q7 0 8 -3q-13 -20 -13 -33q0 -20 14.5 -32.5t33.5 -12.5q28 0 45.5 18t17.5 46z" />
    <glyph glyph-name="Oslash" unicode="&#xd8;" horiz-adv-x="885" 
d="M758 326q-12 -16 -12 -39q0 -37 45 -37q49 0 49 54q0 29 -20 46.5t-49 17.5q-55 0 -107 -72q-43 73 -93 73q-27 0 -51.5 -19.5t-24.5 -47.5q0 -21 15 -36.5t36 -15.5q44 0 44 41q0 7 -9 21l4 3q25 -2 79 -66q50 77 91 77h3zM281 322q-12 -16 -12 -38q0 -37 40 -37
q24 0 39 15t15 39q0 28 -20.5 46t-48.5 18q-56 0 -107 -73q-43 73 -96 73q-27 0 -50 -19t-23 -47q0 -21 15 -36.5t36 -15.5q44 0 44 40q0 7 -9 22l5 5q22 -2 58 -44q6 -7 20 -24q50 77 91 77q1 0 3 -1zM303 92l270 524q-24 33 -81 33q-97 0 -138 -93q-26 -57 -35 -178
q27 -6 44.5 -27t17.5 -47q0 -35 -24 -60t-60 -27q-1 -40 -1 -58q0 -43 7 -67zM588 581l-266 -524q26 -26 97 -26q66 0 105 64q30 50 38 124q-35 2 -60 26t-25 59q0 40 37 64q32 22 65 17q1 15 9 70q5 44 5 71q0 33 -5 55zM637 740h32l-32 -63q167 -13 167 -216q0 -4 -10 -76
q26 -7 46.5 -31t20.5 -50q0 -38 -24 -62.5t-61 -22.5q-28 -95 -42 -122q-31 -62 -91 -88q-38 -16 -61 -14l-158 13q-26 0 -67 -5q-61 -7 -67 -8l-37 -72h-37l36 71h-1q-182 0 -183 220q-30 6 -48 30t-18 56q0 37 29 60q25 20 64 24q19 138 58 201q57 92 176 92
q25 0 74.5 -3.5t74.5 -3.5q23 0 65.5 4t61.5 4z" />
    <glyph glyph-name="plusminus" unicode="&#xb1;" 
 />
    <glyph glyph-name="yen" unicode="&#xa5;" horiz-adv-x="641" 
d="M144 254h85l7 43q2 18 2 38q0 65 -23 108q-30 57 -92 57q-16 0 -43 -17q26 -4 51 -8q46 -15 46 -71q0 -31 -20.5 -56t-52.5 -25q-39 0 -61 31q-17 25 -17 56q0 129 205 124q55 -1 97 -37.5t62 -100.5q11 61 51.5 100t95.5 39q37 0 63 -21q28 -24 28 -63q0 -34 -19 -59
q-22 -29 -60 -29q-35 0 -58.5 23t-23.5 59q0 12 17 61q-51 -28 -71 -92q-7 -22 -17 -106q0 -4 -7 -54h102l-3 -31h-103l-6 -47h104l-2 -31h-106q-9 -71 -9 -91q-2 -4 1 -13t10 -9q9 0 23 17q6 0 9 -3q-8 -19 -36 -34q-23 -12 -39 -12l-44 5l-45 -5q-45 0 -45 57l13 88h-84
l6 31h83l7 47h-89z" />
    <glyph glyph-name="mu" unicode="&#xb5;" horiz-adv-x="591" 
d="M183 76q-20 20 -79 20q-20 0 -41 -11q-29 -13 -29 -35q0 -37 47 -37q25 0 54 15q35 19 48 48zM115 204l105 35q2 55 6 56q4 112 74 174q62 54 156 54q111 0 111 -79q0 -27 -16 -48q-19 -23 -49 -23q-28 0 -47.5 20t-19.5 46q0 21 13 41q-3 1 -6 1q-36 0 -36 -109v-71
l126 41v-44l-130 -43v-18q0 -47 -18 -80l-28 -38q35 -22 71 -45q65 -39 81 -39q21 0 47 29l11 -9q-50 -61 -105 -125q-13 -8 -36 -8q-39 0 -101.5 48.5t-70.5 48.5q8 0 -37 -13t-103 -13q-33 0 -59 11q-33 14 -33 43q0 54 91 81q64 19 97 16q2 3 9 24q1 2 2 26l-105 -34v44z
" />
    <glyph glyph-name="mu" unicode="&#x3bc;" horiz-adv-x="591" 
d="M183 76q-20 20 -79 20q-20 0 -41 -11q-29 -13 -29 -35q0 -37 47 -37q25 0 54 15q35 19 48 48zM115 204l105 35q2 55 6 56q4 112 74 174q62 54 156 54q111 0 111 -79q0 -27 -16 -48q-19 -23 -49 -23q-28 0 -47.5 20t-19.5 46q0 21 13 41q-3 1 -6 1q-36 0 -36 -109v-71
l126 41v-44l-130 -43v-18q0 -47 -18 -80l-28 -38q35 -22 71 -45q65 -39 81 -39q21 0 47 29l11 -9q-50 -61 -105 -125q-13 -8 -36 -8q-39 0 -101.5 48.5t-70.5 48.5q8 0 -37 -13t-103 -13q-33 0 -59 11q-33 14 -33 43q0 54 91 81q64 19 97 16q2 3 9 24q1 2 2 26l-105 -34v44z
" />
    <glyph glyph-name="ordfeminine" unicode="&#xaa;" horiz-adv-x="789" 
d="M761 601q0 -51 -53 -75q-36 -16 -78 -16q-21 0 -55 7q-25 -38 -43 -136q27 -8 43 -32q13 -20 13 -41q0 -35 -41 -71q-15 -13 -60 -22q-21 -47 -70 -141q81 -47 149 -54q-34 35 -34 85q0 45 36 74q33 27 73 27q44 0 75 -30t31 -72q0 -56 -46 -87q-38 -25 -91 -27
q-49 -2 -107 19q-32 12 -100 46q-41 -63 -152 -63q-3 0 -38.5 5t-43.5 5q-4 0 -36.5 -3.5t-36.5 -3.5q-99 0 -104 73q-3 48 44 71q35 18 88 18q12 0 23 -2q44 -4 90 -19q16 28 41 79q-24 5 -43 24q-25 25 -25 60q0 34 25.5 60t62.5 26q14 0 29 -4q22 51 45 102q28 61 56 102
q-34 32 -81 54q-50 25 -77 20q18 -27 22.5 -38.5t4.5 -36.5q0 -53 -35.5 -85.5t-79.5 -32.5t-72.5 27.5t-28.5 68.5q0 62 55 94q43 25 102 25q54 0 103 -20q29 -12 65 -37q29 -20 35 -20l27 20q32 24 66 37q50 20 104 20q44 0 78 -16q45 -22 45 -64zM744 599q0 42 -42 42
q-35 0 -73.5 -37t-45.5 -73q16 -4 40 -4q41 0 72 11q49 19 49 61zM226 115q-24 10 -76 19q-9 1 -22 1q-42 0 -73 -14q-41 -18 -41 -53q0 -49 74 -49q44 0 74 19q34 21 64 77zM512 370q-73 0 -119 -65q-17 40 -41 54q-18 11 -50 11q-28 0 -51.5 -19t-23.5 -46q0 -56 56 -56
q45 0 49 42q1 11 -9 40q33 -10 49 -65q2 -9 10 -39q11 35 44.5 65.5t60.5 30.5h4q-8 -9 -14 -18.5t-3 -22.5q9 -31 49 -31q22 0 36 20q12 17 12 39q0 21 -20.5 40.5t-38.5 19.5zM303 822l25 13q73 -31 147 -75q56 33 156 75l25 -13q-41 -38 -83 -77q-53 -46 -94 -46
q-40 0 -93 47q-42 38 -83 76z" />
    <glyph glyph-name="ordmasculine" unicode="&#xba;" horiz-adv-x="510" 
d="M491 278q0 -22 -27 -39q-23 -15 -40 -15q-28 0 -38 5l-97 -163q22 -16 52 -34q-6 22 -6 41q0 37 21.5 57.5t57.5 20.5q74 0 74 -74q0 -37 -26 -59.5t-60 -22.5t-81.5 27.5t-43.5 27.5l-20 -14q-23 -16 -46 -26q-35 -14 -70 -14q-55 0 -76 5q-56 11 -60 51q-2 22 18.5 42
t44 26t55.5 1q50 80 50 81q28 42 59 72q-9 12 -35 12q-21 0 -50.5 -34t-62.5 -34q-49 0 -49 45q0 34 32 54q26 16 53 15q45 -1 126 -44q-1 0 31 20t67 24q42 6 63 -1q25 -7 49 -13q35 -13 35 -40zM474 278q0 22 -20 24q-23 2 -60 -56q17 -11 42 -5q12 1 25 14.5t13 22.5z
M112 103q-13 4 -38 0q-15 1 -33.5 -18t-18.5 -33q0 -22 22 -22q21 0 44 29q19 24 24 44zM143 492l25 13q73 -31 147 -75q56 33 156 75l25 -13q-41 -38 -83 -77q-53 -46 -94 -46q-40 0 -93 47q-42 38 -83 76z" />
    <glyph glyph-name="ae" unicode="&#xe6;" horiz-adv-x="672" 
d="M462 222l-14 -70q0 -2 1 -8.5t1 -7.5q-1 -8 0 -8q45 1 73 39t28 85q0 17 -6 35q-8 24 -22 24q-39 0 -61 -89zM344 -2q-68 11 -71 66q-58 -69 -131 -69q-65 0 -104 42q-36 39 -36 98q0 84 58 143q57 56 133 56q33 0 56 -14q18 -11 48 -44q3 13 13 49l118 1q29 6 63 6
q90 0 114 -11q44 -19 44 -96q0 -69 -71 -97q-19 -7 -128 -26q-1 -7 -1 -14q0 -72 68 -72q56 0 83 47l10 -3q-23 -64 -130 -64q-77 0 -116 1q-7 -1 -20 1zM289 228q0 19 -13 43q-15 29 -39 29q-30 0 -51 -90q-15 -66 -15 -96q0 -26 11 -45q13 -22 38 -22q34 0 55 82
q14 58 14 99z" />
    <glyph glyph-name="oslash" unicode="&#xf8;" horiz-adv-x="517" 
d="M317 270l-124 -237q12 -12 34 -12q43 0 71 91q12 54 24 109q5 23 -5 49zM182 55l123 234q-13 15 -35 15q-43 0 -74 -87q-27 -77 -21 -113q1 -16 7 -49zM131 -42l19 36q-22 1 -42 1q-47 10 -75 42.5t-28 74.5q0 85 40 144q50 73 142 73q72 0 89 -5q20 4 51 5l26 49l20 1
l-25 -50q16 0 45 1q50 -5 79 -63q21 -44 21 -82q0 -63 -46 -122q-51 -66 -119 -66q2 0 -27 -1q-26 -1 -43 0q-25 1 -35 5q-12 -5 -50 -6l-20 -40z" />
    <glyph glyph-name="questiondown" unicode="&#xbf;" horiz-adv-x="457" 
d="M-6 -64q0 96 74 142q20 13 137 52q74 24 74 68q0 18 -22 32q-18 11 -29 11q-30 0 -52 -26q-13 -21 -27 -42l-16 4q11 50 48 72q21 13 40 13q29 0 55 -17q30 -19 29 -47q-1 -25 -48 -106t-47 -145q0 -111 78 -111q23 0 34 4q23 10 41 43q-118 -9 -118 81q0 30 18 56
q22 33 59 33q39 0 65 -31t26 -72q0 -156 -230 -156q-16 0 -56 2q-61 2 -99 48q-34 41 -34 92zM121 376q0 47 29 72q26 24 70 24q46 0 78 -26t32 -68q0 -40 -30 -67.5t-77 -27.5q-48 0 -75 27t-27 66z" />
    <glyph glyph-name="exclamdown" unicode="&#xa1;" horiz-adv-x="355" 
d="M-4 -149q0 78 70 217q74 147 140 172q0 -24 -2.5 -77t-2.5 -79q0 -129 40 -281q-11 0 -32.5 2t-32.5 2q-38 0 -180 -28v72zM92 364q0 51 36 78q32 24 86 24q33 0 60 -30.5t27 -63.5q0 -48 -28 -77.5t-76 -29.5q-43 0 -74 28.5t-31 70.5z" />
    <glyph glyph-name="logicalnot" unicode="&#xac;" 
 />
    <glyph glyph-name="florin" unicode="&#x192;" 
 />
    <glyph glyph-name="guillemotleft" unicode="&#xab;" horiz-adv-x="572" 
d="M511 67l-25 -18q-97 96 -225 176q58 39 210 182l33 -23l-104 -157q58 -81 111 -160zM291 67l-25 -18q-98 96 -225 176q58 39 209 182l34 -23l-104 -157q58 -81 111 -160z" />
    <glyph glyph-name="guillemotright" unicode="&#xbb;" horiz-adv-x="572" 
d="M69 388l25 19q98 -96 225 -177q-58 -39 -210 -181l-33 22l104 157q-58 81 -111 160zM289 388l25 19q98 -96 226 -177q-59 -39 -210 -181l-33 22l104 157q-59 81 -112 160z" />
    <glyph glyph-name="ellipsis" unicode="&#x2026;" horiz-adv-x="882" 
d="M348 84q0 36 26 62t63 26q36 0 62 -26t26 -62q0 -37 -26 -62.5t-62 -25.5q-37 0 -63 25.5t-26 62.5zM648 84q0 36 26 62t63 26q36 0 62 -26t26 -62q0 -37 -26 -62.5t-62 -25.5q-37 0 -63 25.5t-26 62.5zM48 84q0 36 26 62t63 26q36 0 62 -26t26 -62q0 -37 -26 -62.5
t-62 -25.5q-37 0 -63 25.5t-26 62.5z" />
    <glyph glyph-name="nonbreakingspace" unicode="&#xa0;" horiz-adv-x="999" 
 />
    <glyph glyph-name="Agrave" unicode="&#xc0;" horiz-adv-x="952" 
d="M941 306q0 -36 -29.5 -62.5t-65.5 -22.5q-12 -85 -12 -99q0 -88 41 -88q12 0 23.5 12t23.5 24l4 -11q-22 -39 -53 -52q-19 -9 -56 -10q-22 -1 -59 10q-42 -10 -49 -10q-33 0 -52 31q-16 26 -16 56t4 67q7 57 8 68q-10 -2 -21 -2q-50 0 -68 38q-39 -50 -100 -43
q-9 -51 -19 -102q-13 -54 -40 -79q-33 -31 -96 -31h-150q-54 0 -94 25q-46 30 -46 82q0 40 27.5 67t67.5 27q44 0 73.5 -28t29.5 -71q0 -14 -16.5 -36.5t-29.5 -32.5q9 -1 16 -1q50 0 68 67q3 12 14 106q-32 4 -60.5 29t-28.5 55q0 46 30 74.5t82 24.5q16 163 54 219
q53 78 199 78q49 0 151 -8t153 -8q48 0 80 4q-36 -58 -47 -143q-8 -75 -16 -149q75 2 75 -75zM697 606q2 28 -23 43q-20 12 -49 12q-109 0 -133 -192q-2 -33 -11 -83q62 0 84 -39q28 44 83 44q14 0 28 -3zM849 327q-11 -17 -11 -40q0 -33 42 -33q21 0 35 17t14 37
q0 63 -66 63q-56 0 -107 -73q-49 79 -105 79q-29 0 -55 -17q-29 -20 -29 -50q0 -60 61 -60q21 0 35 13.5t14 35.5q0 11 -4 22q3 2 7 2q25 0 43 -31t16 -75q46 110 110 110zM485 374q-64 0 -118 -82q-19 41 -34 56q-22 23 -61 23q-28 0 -51 -19.5t-23 -47.5q0 -21 15.5 -39
t36.5 -18q17 0 29.5 11.5t12.5 28.5q0 12 -11 31q6 2 13 2q25 0 43 -30q11 -17 28 -62q11 36 38 66t52 30q7 0 8 -3q-13 -20 -13 -33q0 -20 14.5 -32.5t33.5 -12.5q28 0 45.5 18t17.5 46q0 30 -23 48.5t-53 18.5zM764 729q-53 15 -120 65q-32 24 -48 28t-30.5 -4t-18.5 -23
q-10 -38 35 -56q38 -14 98 -24q29 -5 76 -11z" />
    <glyph glyph-name="Atilde" unicode="&#xc3;" horiz-adv-x="952" 
d="M941 306q0 -36 -29.5 -62.5t-65.5 -22.5q-12 -85 -12 -99q0 -88 41 -88q12 0 23.5 12t23.5 24l4 -11q-22 -39 -53 -52q-19 -9 -56 -10q-22 -1 -59 10q-42 -10 -49 -10q-33 0 -52 31q-16 26 -16 56t4 67q7 57 8 68q-10 -2 -21 -2q-50 0 -68 38q-39 -50 -100 -43
q-9 -51 -19 -102q-13 -54 -40 -79q-33 -31 -96 -31h-150q-54 0 -94 25q-46 30 -46 82q0 40 27.5 67t67.5 27q44 0 73.5 -28t29.5 -71q0 -14 -16.5 -36.5t-29.5 -32.5q9 -1 16 -1q50 0 68 67q3 12 14 106q-32 4 -60.5 29t-28.5 55q0 46 30 74.5t82 24.5q16 163 54 219
q53 78 199 78q49 0 151 -8t153 -8q48 0 80 4q-36 -58 -47 -143q-8 -75 -16 -149q75 2 75 -75zM697 606q2 28 -23 43q-20 12 -49 12q-109 0 -133 -192q-2 -33 -11 -83q62 0 84 -39q28 44 83 44q14 0 28 -3zM849 327q-11 -17 -11 -40q0 -33 42 -33q21 0 35 17t14 37
q0 63 -66 63q-56 0 -107 -73q-49 79 -105 79q-29 0 -55 -17q-29 -20 -29 -50q0 -60 61 -60q21 0 35 13.5t14 35.5q0 11 -4 22q3 2 7 2q25 0 43 -31t16 -75q46 110 110 110zM485 374q-64 0 -118 -82q-19 41 -34 56q-22 23 -61 23q-28 0 -51 -19.5t-23 -47.5q0 -21 15.5 -39
t36.5 -18q17 0 29.5 11.5t12.5 28.5q0 12 -11 31q6 2 13 2q25 0 43 -30q11 -17 28 -62q11 36 38 66t52 30q7 0 8 -3q-13 -20 -13 -33q0 -20 14.5 -32.5t33.5 -12.5q28 0 45.5 18t17.5 46q0 30 -23 48.5t-53 18.5zM455 730l44 39q49 43 94 43q23 0 48 -4q4 0 60 -12
q64 -14 92 -14q22 0 39 11q10 6 28 21l27 -9l-37 -33q-31 -27 -47 -36q-25 -14 -57 -14t-133 22q-38 9 -57 9q-32 0 -71 -33z" />
    <glyph glyph-name="Otilde" unicode="&#xd5;" horiz-adv-x="885" 
d="M861 304q0 -38 -24 -62.5t-61 -22.5q-28 -95 -42 -122q-31 -62 -91 -88q-38 -16 -61 -14l-158 13q-28 0 -86.5 -7t-86.5 -7q-182 0 -183 220q-30 6 -48 30t-18 56q0 37 29 60q25 20 64 24q19 138 58 201q57 92 176 92q25 0 74.5 -3.5t74.5 -3.5q23 0 68.5 4t68.5 4
q189 0 189 -217q0 -4 -10 -76q26 -7 46.5 -31t20.5 -50zM593 526q0 60 -19 88q-24 35 -82 35q-97 0 -138 -93q-26 -57 -35 -178q27 -6 44.5 -27t17.5 -47q0 -35 -24 -60t-60 -27q-1 -40 -1 -58q0 -73 25 -100.5t98 -27.5q66 0 105 64q30 50 38 124q-35 2 -60 26t-25 59
q0 40 37 64q32 22 65 17q1 15 9 70q5 44 5 71zM758 326q-12 -16 -12 -39q0 -37 45 -37q49 0 49 54q0 29 -20 46.5t-49 17.5q-55 0 -107 -72q-43 73 -93 73q-27 0 -51.5 -19.5t-24.5 -47.5q0 -21 15 -36.5t36 -15.5q44 0 44 41q0 7 -9 21l4 3q25 -2 79 -66q50 77 91 77h3z
M281 322q-12 -16 -12 -38q0 -37 40 -37q24 0 39 15t15 39q0 28 -20.5 46t-48.5 18q-56 0 -107 -73q-43 73 -96 73q-27 0 -50 -19t-23 -47q0 -21 15 -36.5t36 -15.5q44 0 44 40q0 7 -9 22l5 5q22 -2 58 -44q6 -7 20 -24q50 77 91 77q1 0 3 -1zM265 720l44 39q49 43 94 43
q23 0 48 -4q4 0 60 -12q64 -14 92 -14q22 0 39 11q10 6 28 21l27 -9l-37 -33q-31 -27 -47 -36q-25 -14 -57 -14t-133 22q-38 9 -57 9q-32 0 -71 -33z" />
    <glyph glyph-name="OE" unicode="&#x152;" horiz-adv-x="1122" 
d="M1122 577q0 -24 -15 -43t-38 -19q-21 0 -35.5 14t-14.5 35q0 48 47 48q11 0 19 -3q-27 32 -68 32q-69 0 -113 -34q-50 -37 -50 -102q0 -35 8 -47q27 4 39 4q151 0 151 -68q0 -67 -127 -67q-18 0 -35 9q-21 11 -32 13q5 -22 5 -40q0 -42 -30 -66q-14 -11 -47 -22
q-4 -36 3 -65q17 -67 73 -90q36 -14 110 -14q17 0 30 9q-91 20 -91 102q0 39 29.5 68t68.5 29q37 0 63.5 -29t26.5 -66q0 -85 -87 -132q-71 -37 -164 -37q-106 0 -175 29q-14 -9 -30 -16q-38 -16 -61 -14l-158 13q-28 0 -86.5 -7t-86.5 -7q-182 0 -183 220q-30 6 -48 30
t-18 56q0 37 29 60q25 20 64 24q19 138 58 201q57 92 176 92q25 0 74.5 -3.5t74.5 -3.5q23 0 68.5 4t68.5 4q50 0 86 -19q48 -25 56 -76q72 96 171 96q62 0 119 -22q75 -29 75 -80zM1035 393q0 23 -40 38q-32 11 -61 11q-8 0 -34 -2.5t-34 -2.5q22 -60 136 -69q12 -1 22.5 6
t10.5 19zM842 307q0 29 -20.5 47t-49.5 18q-55 0 -107 -73q-42 73 -92 73q-28 0 -51 -18q-25 -21 -25 -48q0 -21 14.5 -37t35.5 -16q44 0 44 41q0 7 -8 21l3 3q18 -1 44 -30q17 -22 35 -44q56 85 91 85h3q-12 -16 -12 -39q0 -37 46 -37q49 0 49 54zM593 526q0 60 -19 88
q-24 35 -82 35q-97 0 -138 -93q-26 -57 -35 -178q27 -6 44.5 -27t17.5 -47q0 -35 -24 -60t-60 -27q-1 -40 -1 -58q0 -73 25 -100.5t98 -27.5q64 0 103 61q30 49 40 122l-1 5q-34 3 -59 27t-25 58q0 40 37 64q32 22 65 17q1 15 9 70q5 44 5 71zM363 301q0 28 -20.5 46
t-48.5 18q-56 0 -107 -73q-43 73 -96 73q-27 0 -50 -19t-23 -47q0 -21 15 -36.5t36 -15.5q44 0 44 40q0 7 -9 22l5 5q22 -2 58 -44q6 -7 20 -24q50 77 91 77q1 0 3 -1q-12 -16 -12 -38q0 -37 40 -37q24 0 39 15t15 39z" />
    <glyph glyph-name="oe" unicode="&#x153;" horiz-adv-x="712" 
d="M591 252q0 17 -6 35q-8 24 -22 24q-35 0 -57 -73q-16 -55 -16 -102q-1 -8 0 -8q45 1 73 39t28 85zM393 39q-51 -42 -65 -42q2 0 -27 -1q-26 -1 -43 0q-25 1 -35 5q-15 -6 -69 -7q-23 1 -46 1q-47 10 -75 42.5t-28 74.5q0 85 40 144q50 73 142 73q72 0 89 -5q23 5 53 2
q40 -3 47 -3.5t21 -11.5q18 -14 19 -14q31 35 115 35q90 0 114 -11q44 -19 44 -96q0 -69 -71 -97q-19 -7 -128 -26q-1 -7 -1 -14q0 -72 68 -72q56 0 83 47l10 -3q-23 -64 -130 -64q-83 0 -110 11q-10 4 -17 32zM323 236q0 25 -11 44q-15 24 -42 24q-43 0 -74 -87
q-27 -77 -21 -113q4 -25 7 -49q10 -34 45 -34q58 0 87 156q9 53 9 59z" />
    <glyph glyph-name="endash" unicode="&#x2013;" horiz-adv-x="564" 
d="M10 111l12 125l505 1l-10 -126h-507z" />
    <glyph glyph-name="emdash" unicode="&#x2014;" horiz-adv-x="976" 
d="M0 111l12 125l915 1l-10 -126h-917z" />
    <glyph glyph-name="quotedblleft" unicode="&#x201c;" horiz-adv-x="505" 
d="M480 667q-65 -23 -98 -45q-75 -50 -78 -119q28 21 32.5 23t28.5 2q47 0 72 -34q22 -29 22 -70q0 -96 -88 -115q-50 -1 -80 35q-27 30 -27 68q0 212 186 264zM240 667q-65 -23 -98 -45q-75 -50 -78 -119q28 21 32.5 23t28.5 2q47 0 72 -34q22 -29 22 -70q0 -96 -88 -115
q-49 -1 -79 35q-25 29 -28 68q-13 208 186 264z" />
    <glyph glyph-name="quotedblright" unicode="&#x201d;" horiz-adv-x="505" 
d="M24 318q64 24 98 46q75 49 78 118q-29 -21 -33 -22.5t-28 -1.5q-47 0 -73 34q-21 28 -21 70q0 96 88 114q49 1 80 -35q26 -30 26 -68q0 -212 -185 -264zM264 318q64 24 98 46q75 49 78 118q-29 -21 -33 -22.5t-28 -1.5q-47 0 -73 34q-21 28 -21 70q0 96 88 114
q49 1 79 -35q25 -29 27 -68q14 -208 -185 -264z" />
    <glyph glyph-name="quoteleft" unicode="&#x2018;" horiz-adv-x="219" 
d="M36 443q-4 59 45 127q54 75 134 93l6 -14q-114 -45 -136 -128q9 -2 23 4t17 6q37 2 66.5 -26t31.5 -63q3 -36 -22 -65.5t-60 -30.5q-52 -2 -80 32q-22 26 -25 65z" />
    <glyph glyph-name="quoteright" unicode="&#x2019;" horiz-adv-x="225" 
d="M230 567q5 -60 -44 -128q-54 -75 -134 -93l-7 14q115 45 136 128q-8 2 -22 -4t-17 -6q-37 -2 -66.5 26t-32.5 63q-2 36 23 65.5t60 30.5q52 2 80 -32q22 -26 24 -64z" />
    <glyph glyph-name="divide" unicode="&#xf7;" 
 />
    <glyph glyph-name="ydieresis" unicode="&#xff;" horiz-adv-x="524" 
d="M189 -147q10 42 10 43q0 30 -24 52t-54 22q-28 0 -52 -16q-27 -19 -27 -48q0 -77 146 -77h11q221 0 258 183l40 313h-169q-8 -83 -19 -143q-27 -143 -69 -146q-16 -1 -16 34l21 183q1 41 -28 63q-25 19 -60 19q-39 0 -83 -28.5t-62 -68.5q4 -4 16 -4q1 2 11 17
q6 10 14 10q22 2 22 -32q0 -5 -9 -76.5t-9 -75.5q0 -40 31 -62q26 -19 65 -19q56 0 79 9q30 12 61 55q-5 -98 -17 -133q-23 -65 -87 -74zM315 425q0 20 14 34t34 14t34.5 -14t14.5 -34t-14.5 -34.5t-34.5 -14.5t-34 14.5t-14 34.5zM157 425q0 20 14 34t34 14t34 -14t14 -34
t-14 -34.5t-34 -14.5t-34 14.5t-14 34.5z" />
    <glyph glyph-name="Ydieresis" unicode="&#x178;" horiz-adv-x="732" 
d="M733 299q0 -78 -103 -89q-9 -213 -106 -304q-84 -79 -251 -79q-4 0 -20 1.5t-20 1.5q-39 0 -74 23q-40 26 -40 64q0 37 28 59q24 19 55 19q41 0 68.5 -24t27.5 -62t-24 -57q1 -1 21 -1q65 0 99 85q21 53 25 118l5 36q-54 -51 -146 -51q-61 0 -105 27q-51 32 -51 90
q0 21 7 45q-95 21 -95 95q0 38 33 61t81 22q12 71 12 122q0 33 -14 57q-18 33 -53 34q-69 2 -72 -145q-15 -4 -15 1q-2 16 -2 31q0 102 81 158q63 45 136 45q137 0 137 -149q0 -3 -6.5 -79.5t-6.5 -81.5q0 4 15.5 -6t27.5 -24q24 33 69 33l24 228q-4 70 85 75q4 0 27 -3.5
t26 -3.5q15 0 44.5 3.5t44.5 3.5q-34 -34 -40 -95q-6 -68 -20 -202q40 -8 64 -34q21 -23 21 -48zM433 221q-19 3 -32 21q-11 14 -12 12q-19 -24 -42 -35q-19 -8 -19 -7.5t-5.5 -37.5t-5.5 -47q0 -53 33 -53q37 0 63 45q22 36 21 66zM635 320q-16 -18 -11 -40q8 -35 39 -35
q23 0 37.5 15t14.5 38q0 28 -20 46t-47 18q-54 0 -103 -72q-40 72 -92 72q-26 0 -48 -19t-22 -46q0 -21 14.5 -37t34.5 -16q43 0 43 41q0 7 -9 22l5 6q13 3 34 -23q13 -19 38 -53q52 83 90 83h2zM303 318q-16 -18 -11 -40q8 -35 39 -35q23 0 37.5 14.5t14.5 38.5
q0 28 -19.5 46t-46.5 18q-54 0 -103 -72q-41 72 -92 72q-27 0 -48.5 -19t-21.5 -47q0 -20 14 -36t35 -16q42 0 42 41q0 7 -9 22l6 6q18 5 54 -44q6 -7 20 -26q48 77 87 77h2zM455 765q0 20 14 34t34 14t34.5 -14t14.5 -34t-14.5 -34.5t-34.5 -14.5t-34 14.5t-14 34.5z
M287 765q0 20 14 34t34 14t34 -14t14 -34t-14 -34.5t-34 -14.5t-34 14.5t-14 34.5z" />
    <glyph glyph-name="currency" unicode="&#xa4;" 
 />
    <glyph glyph-name="guilsinglleft" unicode="&#x2039;" horiz-adv-x="500" 
d="M436 712l-25 -13q-75 31 -151 77q-77 -46 -152 -77l-25 13q41 38 83 76q53 47 94 47q40 0 93 -47q42 -38 83 -76z" />
    <glyph glyph-name="guilsinglright" unicode="&#x203a;" horiz-adv-x="840" 
d="M265 720l44 39q49 43 94 43q23 0 48 -4q4 0 60 -12q64 -14 92 -14q22 0 39 11q10 6 28 21l27 -9l-37 -33q-31 -27 -47 -36q-25 -14 -57 -14t-133 22q-38 9 -57 9q-32 0 -71 -33z" />
    <glyph glyph-name="daggerdbl" unicode="&#x2021;" 
 />
    <glyph glyph-name="periodcentered" unicode="&#xb7;" 
 />
    <glyph glyph-name="periodcentered" unicode="&#x2219;" 
 />
    <glyph glyph-name="quotesinglbase" unicode="&#x201a;" horiz-adv-x="225" 
d="M230 97q5 -60 -44 -128q-54 -75 -134 -93l-7 14q115 45 136 128q-8 2 -22 -4t-17 -6q-37 -2 -66.5 26t-32.5 63q-2 36 23 65.5t60 30.5q52 2 80 -32q22 -26 24 -64z" />
    <glyph glyph-name="quotedblbase" unicode="&#x201e;" horiz-adv-x="505" 
d="M24 -142q64 24 98 46q75 49 78 118q-29 -21 -33 -22.5t-28 -1.5q-47 0 -73 34q-21 28 -21 70q0 96 88 114q49 1 80 -35q26 -30 26 -68q0 -212 -185 -264zM264 -142q64 24 98 46q75 49 78 118q-29 -21 -33 -22.5t-28 -1.5q-47 0 -73 34q-21 28 -21 70q0 96 88 114
q49 1 79 -35q25 -29 27 -68q14 -208 -185 -264z" />
    <glyph glyph-name="perthousand" unicode="&#x2030;" 
 />
    <glyph glyph-name="Acircumflex" unicode="&#xc2;" horiz-adv-x="952" 
d="M941 306q0 -36 -29.5 -62.5t-65.5 -22.5q-12 -85 -12 -99q0 -88 41 -88q12 0 23.5 12t23.5 24l4 -11q-22 -39 -53 -52q-19 -9 -56 -10q-22 -1 -59 10q-42 -10 -49 -10q-33 0 -52 31q-16 26 -16 56t4 67q7 57 8 68q-10 -2 -21 -2q-50 0 -68 38q-39 -50 -100 -43
q-9 -51 -19 -102q-13 -54 -40 -79q-33 -31 -96 -31h-150q-54 0 -94 25q-46 30 -46 82q0 40 27.5 67t67.5 27q44 0 73.5 -28t29.5 -71q0 -14 -16.5 -36.5t-29.5 -32.5q9 -1 16 -1q50 0 68 67q3 12 14 106q-32 4 -60.5 29t-28.5 55q0 46 30 74.5t82 24.5q16 163 54 219
q53 78 199 78q49 0 151 -8t153 -8q48 0 80 4q-36 -58 -47 -143q-8 -75 -16 -149q75 2 75 -75zM697 606q2 28 -23 43q-20 12 -49 12q-109 0 -133 -192q-2 -33 -11 -83q62 0 84 -39q28 44 83 44q14 0 28 -3zM849 327q-11 -17 -11 -40q0 -33 42 -33q21 0 35 17t14 37
q0 63 -66 63q-56 0 -107 -73q-49 79 -105 79q-29 0 -55 -17q-29 -20 -29 -50q0 -60 61 -60q21 0 35 13.5t14 35.5q0 11 -4 22q3 2 7 2q25 0 43 -31t16 -75q46 110 110 110zM485 374q-64 0 -118 -82q-19 41 -34 56q-22 23 -61 23q-28 0 -51 -19.5t-23 -47.5q0 -21 15.5 -39
t36.5 -18q17 0 29.5 11.5t12.5 28.5q0 12 -11 31q6 2 13 2q25 0 43 -30q11 -17 28 -62q11 36 38 66t52 30q7 0 8 -3q-13 -20 -13 -33q0 -20 14.5 -32.5t33.5 -12.5q28 0 45.5 18t17.5 46q0 30 -23 48.5t-53 18.5zM846 712l-25 -13q-75 31 -151 77q-27 -16 -153 -69l-25 13
q35 25 92 74q36 41 86 41q40 0 93 -47q42 -38 83 -76z" />
    <glyph glyph-name="Ecircumflex" unicode="&#xca;" horiz-adv-x="662" 
d="M622 577q0 -24 -15 -43t-38 -19q-21 0 -35.5 14t-14.5 35q0 48 47 48q11 0 19 -3q-27 32 -68 32q-68 0 -108 -34q-45 -36 -45 -102q0 -27 12 -45q12 2 35 2q141 0 141 -68q0 -67 -127 -67q-74 0 -110 8q-12 -11 -7 -17q25 -6 41 -34q15 -24 15 -49q0 -22 -18.5 -45.5
t-39.5 -30.5q24 -107 166 -107q17 0 30 9q-91 20 -91 102q0 39 29.5 68t68.5 29q37 0 63.5 -29t26.5 -66q0 -85 -87 -132q-71 -37 -164 -37q-73 0 -138 21q-77 26 -114 75q-5 8 -26 51q-20 13 -39 26q-35 26 -35 73q0 36 25.5 57.5t57.5 21.5q7 0 13 -1q2 -1 6.5 9t11.5 16
q48 48 87 64q-47 43 -47 101q0 91 99 135q75 34 179 34q62 0 119 -22q75 -29 75 -80zM535 393q0 23 -40 38q-32 11 -61 11q-8 0 -24 -1h-25q8 -24 49 -48.5t68 -24.5q33 0 33 25zM283 305q-56 0 -88 -41q-5 -7 -16 -23q-31 64 -102 64q-28 0 -47 -18.5t-19 -46.5
q0 -22 15.5 -38.5t38.5 -16.5q41 0 41 56q0 9 -1 18h16q19 0 59 -67q11 30 34.5 51.5t47.5 21.5q9 0 13 -6q-16 -16 -16 -32q0 -35 42 -35q48 0 48 48q0 30 -19 47.5t-47 17.5zM596 702l-25 -13q-75 31 -151 77q-77 -46 -152 -77l-25 13q41 38 83 76q53 47 94 47
q40 0 93 -47q42 -38 83 -76z" />
    <glyph glyph-name="Aacute" unicode="&#xc1;" horiz-adv-x="952" 
d="M941 306q0 -36 -29.5 -62.5t-65.5 -22.5q-12 -85 -12 -99q0 -88 41 -88q12 0 23.5 12t23.5 24l4 -11q-22 -39 -53 -52q-19 -9 -56 -10q-22 -1 -59 10q-42 -10 -49 -10q-33 0 -52 31q-16 26 -16 56t4 67q7 57 8 68q-10 -2 -21 -2q-50 0 -68 38q-39 -50 -100 -43
q-9 -51 -19 -102q-13 -54 -40 -79q-33 -31 -96 -31h-150q-54 0 -94 25q-46 30 -46 82q0 40 27.5 67t67.5 27q44 0 73.5 -28t29.5 -71q0 -14 -16.5 -36.5t-29.5 -32.5q9 -1 16 -1q50 0 68 67q3 12 14 106q-32 4 -60.5 29t-28.5 55q0 46 30 74.5t82 24.5q16 163 54 219
q53 78 199 78q49 0 151 -8t153 -8q48 0 80 4q-36 -58 -47 -143q-8 -75 -16 -149q75 2 75 -75zM697 606q2 28 -23 43q-20 12 -49 12q-109 0 -133 -192q-2 -33 -11 -83q62 0 84 -39q28 44 83 44q14 0 28 -3zM849 327q-11 -17 -11 -40q0 -33 42 -33q21 0 35 17t14 37
q0 63 -66 63q-56 0 -107 -73q-49 79 -105 79q-29 0 -55 -17q-29 -20 -29 -50q0 -60 61 -60q21 0 35 13.5t14 35.5q0 11 -4 22q3 2 7 2q25 0 43 -31t16 -75q46 110 110 110zM485 374q-64 0 -118 -82q-19 41 -34 56q-22 23 -61 23q-28 0 -51 -19.5t-23 -47.5q0 -21 15.5 -39
t36.5 -18q17 0 29.5 11.5t12.5 28.5q0 12 -11 31q6 2 13 2q25 0 43 -30q11 -17 28 -62q11 36 38 66t52 30q7 0 8 -3q-13 -20 -13 -33q0 -20 14.5 -32.5t33.5 -12.5q28 0 45.5 18t17.5 46q0 30 -23 48.5t-53 18.5zM590 729q53 15 120 65q32 24 48 28t31 -4t18 -23
q10 -38 -35 -56q-38 -14 -98 -24q-29 -5 -76 -11z" />
    <glyph glyph-name="Edieresis" unicode="&#xcb;" horiz-adv-x="661" 
d="M622 577q0 -24 -15 -43t-38 -19q-21 0 -35.5 14t-14.5 35q0 48 47 48q11 0 19 -3q-27 32 -68 32q-68 0 -108 -34q-45 -36 -45 -102q0 -27 12 -45q12 2 35 2q141 0 141 -68q0 -67 -127 -67q-74 0 -110 8q-12 -11 -7 -17q25 -6 41 -34q15 -24 15 -49q0 -22 -18.5 -45.5
t-39.5 -30.5q24 -107 166 -107q17 0 30 9q-91 20 -91 102q0 39 29.5 68t68.5 29q37 0 63.5 -29t26.5 -66q0 -85 -87 -132q-71 -37 -164 -37q-73 0 -138 21q-77 26 -114 75q-5 8 -26 51q-20 13 -39 26q-35 26 -35 73q0 36 25.5 57.5t57.5 21.5q7 0 13 -1q2 -1 6.5 9t11.5 16
q48 48 87 64q-47 43 -47 101q0 91 99 135q75 34 179 34q62 0 119 -22q75 -29 75 -80zM535 393q0 23 -40 38q-32 11 -61 11q-8 0 -24 -1h-25q8 -24 49 -48.5t68 -24.5q33 0 33 25zM283 305q-56 0 -88 -41q-5 -7 -16 -23q-31 64 -102 64q-28 0 -47 -18.5t-19 -46.5
q0 -22 15.5 -38.5t38.5 -16.5q41 0 41 56q0 9 -1 18h16q19 0 59 -67q11 30 34.5 51.5t47.5 21.5q9 0 13 -6q-16 -16 -16 -32q0 -35 42 -35q48 0 48 48q0 30 -19 47.5t-47 17.5zM465 765q0 20 14 34t34 14t34.5 -14t14.5 -34t-14.5 -34.5t-34.5 -14.5t-34 14.5t-14 34.5z
M317 765q0 20 14 34t34 14t34 -14t14 -34t-14 -34.5t-34 -14.5t-34 14.5t-14 34.5z" />
    <glyph glyph-name="Egrave" unicode="&#xc8;" horiz-adv-x="661" 
d="M622 577q0 -24 -15 -43t-38 -19q-21 0 -35.5 14t-14.5 35q0 48 47 48q11 0 19 -3q-27 32 -68 32q-68 0 -108 -34q-45 -36 -45 -102q0 -27 12 -45q12 2 35 2q141 0 141 -68q0 -67 -127 -67q-74 0 -110 8q-12 -11 -7 -17q25 -6 41 -34q15 -24 15 -49q0 -22 -18.5 -45.5
t-39.5 -30.5q24 -107 166 -107q17 0 30 9q-91 20 -91 102q0 39 29.5 68t68.5 29q37 0 63.5 -29t26.5 -66q0 -85 -87 -132q-71 -37 -164 -37q-73 0 -138 21q-77 26 -114 75q-5 8 -26 51q-20 13 -39 26q-35 26 -35 73q0 36 25.5 57.5t57.5 21.5q7 0 13 -1q2 -1 6.5 9t11.5 16
q48 48 87 64q-47 43 -47 101q0 91 99 135q75 34 179 34q62 0 119 -22q75 -29 75 -80zM535 393q0 23 -40 38q-32 11 -61 11q-8 0 -24 -1h-25q8 -24 49 -48.5t68 -24.5q33 0 33 25zM283 305q-56 0 -88 -41q-5 -7 -16 -23q-31 64 -102 64q-28 0 -47 -18.5t-19 -46.5
q0 -22 15.5 -38.5t38.5 -16.5q41 0 41 56q0 9 -1 18h16q19 0 59 -67q11 30 34.5 51.5t47.5 21.5q9 0 13 -6q-16 -16 -16 -32q0 -35 42 -35q48 0 48 48q0 30 -19 47.5t-47 17.5zM524 729q-53 15 -120 65q-32 24 -48 28t-30.5 -4t-18.5 -23q-10 -38 35 -56q38 -14 98 -24
q29 -5 76 -11z" />
    <glyph glyph-name="Iacute" unicode="&#xcd;" horiz-adv-x="680" 
d="M668 299q0 -84 -96 -93q-55 -123 -86 -158q-45 -49 -136 -55q-23 -2 -49.5 5t-19.5 7q-4 0 -42.5 -6t-42.5 -6q-77 0 -131 36q-66 42 -66 120q0 68 49 106q43 33 104 33q54 0 98 -22q-7 -10 -7 -14q-37 19 -86 19q-61 0 -97 -30q-40 -32 -40 -94t46 -97q40 -30 96 -30
q151 0 207 177q-39 18 -50 26q-33 27 -32 70q3 76 107 93q12 44 12 70q0 96 -69 96q-43 0 -66 -28q-21 -24 -21 -63q0 -32 13.5 -54.5t13.5 -32.5q0 -11 -10.5 -23t-19.5 -12q-18 0 -29 22q-9 19 -9 40q0 91 82 185q87 99 185 100q137 -6 137 -139q0 -30 -8 -90
q-8 -56 -7 -77q70 -21 70 -81zM587 361q-60 0 -110 -79q-34 84 -87 84q-29 0 -56 -23t-27 -49q0 -52 50 -52q13 0 28.5 12.5t15.5 28.5q0 -9 -7 33l17 -8q45 -14 56 -79q17 23 49 61q24 27 49 27q8 0 11 -3q-16 -18 -12 -47q14 -26 40 -26q22 0 36 19q12 16 12 38
q0 25 -18 44t-47 19zM370 729q53 15 120 65q32 24 48 28t31 -4t18 -23q10 -38 -35 -56q-38 -14 -98 -24q-29 -5 -76 -11z" />
    <glyph glyph-name="Icircumflex" unicode="&#xce;" horiz-adv-x="680" 
d="M668 299q0 -84 -96 -93q-55 -123 -86 -158q-45 -49 -136 -55q-23 -2 -49.5 5t-19.5 7q-4 0 -42.5 -6t-42.5 -6q-77 0 -131 36q-66 42 -66 120q0 68 49 106q43 33 104 33q54 0 98 -22q-7 -10 -7 -14q-37 19 -86 19q-61 0 -97 -30q-40 -32 -40 -94t46 -97q40 -30 96 -30
q151 0 207 177q-39 18 -50 26q-33 27 -32 70q3 76 107 93q12 44 12 70q0 96 -69 96q-43 0 -66 -28q-21 -24 -21 -63q0 -32 13.5 -54.5t13.5 -32.5q0 -11 -10.5 -23t-19.5 -12q-18 0 -29 22q-9 19 -9 40q0 91 82 185q87 99 185 100q137 -6 137 -139q0 -30 -8 -90
q-8 -56 -7 -77q70 -21 70 -81zM587 361q-60 0 -110 -79q-34 84 -87 84q-29 0 -56 -23t-27 -49q0 -52 50 -52q13 0 28.5 12.5t15.5 28.5q0 -9 -7 33l17 -8q45 -14 56 -79q17 23 49 61q24 27 49 27q8 0 11 -3q-16 -18 -12 -47q14 -26 40 -26q22 0 36 19q12 16 12 38
q0 25 -18 44t-47 19zM656 712l-25 -13q-75 31 -151 77q-77 -46 -152 -77l-25 13q41 38 83 76q53 47 94 47q40 0 93 -47q42 -38 83 -76z" />
    <glyph glyph-name="Idieresis" unicode="&#xcf;" horiz-adv-x="680" 
d="M668 299q0 -84 -96 -93q-55 -123 -86 -158q-45 -49 -136 -55q-23 -2 -49.5 5t-19.5 7q-4 0 -42.5 -6t-42.5 -6q-77 0 -131 36q-66 42 -66 120q0 68 49 106q43 33 104 33q54 0 98 -22q-7 -10 -7 -14q-37 19 -86 19q-61 0 -97 -30q-40 -32 -40 -94t46 -97q40 -30 96 -30
q151 0 207 177q-39 18 -50 26q-33 27 -32 70q3 76 107 93q12 44 12 70q0 96 -69 96q-43 0 -66 -28q-21 -24 -21 -63q0 -32 13.5 -54.5t13.5 -32.5q0 -11 -10.5 -23t-19.5 -12q-18 0 -29 22q-9 19 -9 40q0 91 82 185q87 99 185 100q137 -6 137 -139q0 -30 -8 -90
q-8 -56 -7 -77q70 -21 70 -81zM587 361q-60 0 -110 -79q-34 84 -87 84q-29 0 -56 -23t-27 -49q0 -52 50 -52q13 0 28.5 12.5t15.5 28.5q0 -9 -7 33l17 -8q45 -14 56 -79q17 23 49 61q24 27 49 27q8 0 11 -3q-16 -18 -12 -47q14 -26 40 -26q22 0 36 19q12 16 12 38
q0 25 -18 44t-47 19zM505 765q0 20 14 34t34 14t34.5 -14t14.5 -34t-14.5 -34.5t-34.5 -14.5t-34 14.5t-14 34.5zM337 765q0 20 14 34t34 14t34 -14t14 -34t-14 -34.5t-34 -14.5t-34 14.5t-14 34.5z" />
    <glyph glyph-name="Igrave" unicode="&#xcc;" horiz-adv-x="680" 
d="M668 299q0 -84 -96 -93q-55 -123 -86 -158q-45 -49 -136 -55q-23 -2 -49.5 5t-19.5 7q-4 0 -42.5 -6t-42.5 -6q-77 0 -131 36q-66 42 -66 120q0 68 49 106q43 33 104 33q54 0 98 -22q-7 -10 -7 -14q-37 19 -86 19q-61 0 -97 -30q-40 -32 -40 -94t46 -97q40 -30 96 -30
q151 0 207 177q-39 18 -50 26q-33 27 -32 70q3 76 107 93q12 44 12 70q0 96 -69 96q-43 0 -66 -28q-21 -24 -21 -63q0 -32 13.5 -54.5t13.5 -32.5q0 -11 -10.5 -23t-19.5 -12q-18 0 -29 22q-9 19 -9 40q0 91 82 185q87 99 185 100q137 -6 137 -139q0 -30 -8 -90
q-8 -56 -7 -77q70 -21 70 -81zM587 361q-60 0 -110 -79q-34 84 -87 84q-29 0 -56 -23t-27 -49q0 -52 50 -52q13 0 28.5 12.5t15.5 28.5q0 -9 -7 33l17 -8q45 -14 56 -79q17 23 49 61q24 27 49 27q8 0 11 -3q-16 -18 -12 -47q14 -26 40 -26q22 0 36 19q12 16 12 38
q0 25 -18 44t-47 19zM594 729q-53 15 -120 65q-32 24 -48 28t-30.5 -4t-18.5 -23q-10 -38 35 -56q38 -14 98 -24q29 -5 76 -11z" />
    <glyph glyph-name="Oacute" unicode="&#xd3;" horiz-adv-x="885" 
d="M861 304q0 -38 -24 -62.5t-61 -22.5q-28 -95 -42 -122q-31 -62 -91 -88q-38 -16 -61 -14l-158 13q-28 0 -86.5 -7t-86.5 -7q-182 0 -183 220q-30 6 -48 30t-18 56q0 37 29 60q25 20 64 24q19 138 58 201q57 92 176 92q25 0 74.5 -3.5t74.5 -3.5q23 0 68.5 4t68.5 4
q189 0 189 -217q0 -4 -10 -76q26 -7 46.5 -31t20.5 -50zM593 526q0 60 -19 88q-24 35 -82 35q-97 0 -138 -93q-26 -57 -35 -178q27 -6 44.5 -27t17.5 -47q0 -35 -24 -60t-60 -27q-1 -40 -1 -58q0 -73 25 -100.5t98 -27.5q66 0 105 64q30 50 38 124q-35 2 -60 26t-25 59
q0 40 37 64q32 22 65 17q1 15 9 70q5 44 5 71zM758 326q-12 -16 -12 -39q0 -37 45 -37q49 0 49 54q0 29 -20 46.5t-49 17.5q-55 0 -107 -72q-43 73 -93 73q-27 0 -51.5 -19.5t-24.5 -47.5q0 -21 15 -36.5t36 -15.5q44 0 44 41q0 7 -9 21l4 3q25 -2 79 -66q50 77 91 77h3z
M281 322q-12 -16 -12 -38q0 -37 40 -37q24 0 39 15t15 39q0 28 -20.5 46t-48.5 18q-56 0 -107 -73q-43 73 -96 73q-27 0 -50 -19t-23 -47q0 -21 15 -36.5t36 -15.5q44 0 44 40q0 7 -9 22l5 5q22 -2 58 -44q6 -7 20 -24q50 77 91 77q1 0 3 -1zM390 729q53 15 120 65
q32 24 48 28t31 -4t18 -23q10 -38 -35 -56q-38 -14 -98 -24q-29 -5 -76 -11z" />
    <glyph glyph-name="Ocircumflex" unicode="&#xd4;" horiz-adv-x="885" 
d="M861 304q0 -38 -24 -62.5t-61 -22.5q-28 -95 -42 -122q-31 -62 -91 -88q-38 -16 -61 -14l-158 13q-28 0 -86.5 -7t-86.5 -7q-182 0 -183 220q-30 6 -48 30t-18 56q0 37 29 60q25 20 64 24q19 138 58 201q57 92 176 92q25 0 74.5 -3.5t74.5 -3.5q23 0 68.5 4t68.5 4
q189 0 189 -217q0 -4 -10 -76q26 -7 46.5 -31t20.5 -50zM593 526q0 60 -19 88q-24 35 -82 35q-97 0 -138 -93q-26 -57 -35 -178q27 -6 44.5 -27t17.5 -47q0 -35 -24 -60t-60 -27q-1 -40 -1 -58q0 -73 25 -100.5t98 -27.5q66 0 105 64q30 50 38 124q-35 2 -60 26t-25 59
q0 40 37 64q32 22 65 17q1 15 9 70q5 44 5 71zM758 326q-12 -16 -12 -39q0 -37 45 -37q49 0 49 54q0 29 -20 46.5t-49 17.5q-55 0 -107 -72q-43 73 -93 73q-27 0 -51.5 -19.5t-24.5 -47.5q0 -21 15 -36.5t36 -15.5q44 0 44 41q0 7 -9 21l4 3q25 -2 79 -66q50 77 91 77h3z
M281 322q-12 -16 -12 -38q0 -37 40 -37q24 0 39 15t15 39q0 28 -20.5 46t-48.5 18q-56 0 -107 -73q-43 73 -96 73q-27 0 -50 -19t-23 -47q0 -21 15 -36.5t36 -15.5q44 0 44 40q0 7 -9 22l5 5q22 -2 58 -44q6 -7 20 -24q50 77 91 77q1 0 3 -1zM656 712l-25 -13
q-75 31 -151 77q-77 -46 -152 -77l-25 13q41 38 83 76q53 47 94 47q40 0 93 -47q42 -38 83 -76z" />
    <glyph glyph-name="Ograve" unicode="&#xd2;" horiz-adv-x="885" 
d="M861 304q0 -38 -24 -62.5t-61 -22.5q-28 -95 -42 -122q-31 -62 -91 -88q-38 -16 -61 -14l-158 13q-28 0 -86.5 -7t-86.5 -7q-182 0 -183 220q-30 6 -48 30t-18 56q0 37 29 60q25 20 64 24q19 138 58 201q57 92 176 92q25 0 74.5 -3.5t74.5 -3.5q23 0 68.5 4t68.5 4
q189 0 189 -217q0 -4 -10 -76q26 -7 46.5 -31t20.5 -50zM593 526q0 60 -19 88q-24 35 -82 35q-97 0 -138 -93q-26 -57 -35 -178q27 -6 44.5 -27t17.5 -47q0 -35 -24 -60t-60 -27q-1 -40 -1 -58q0 -73 25 -100.5t98 -27.5q66 0 105 64q30 50 38 124q-35 2 -60 26t-25 59
q0 40 37 64q32 22 65 17q1 15 9 70q5 44 5 71zM758 326q-12 -16 -12 -39q0 -37 45 -37q49 0 49 54q0 29 -20 46.5t-49 17.5q-55 0 -107 -72q-43 73 -93 73q-27 0 -51.5 -19.5t-24.5 -47.5q0 -21 15 -36.5t36 -15.5q44 0 44 41q0 7 -9 21l4 3q25 -2 79 -66q50 77 91 77h3z
M281 322q-12 -16 -12 -38q0 -37 40 -37q24 0 39 15t15 39q0 28 -20.5 46t-48.5 18q-56 0 -107 -73q-43 73 -96 73q-27 0 -50 -19t-23 -47q0 -21 15 -36.5t36 -15.5q44 0 44 40q0 7 -9 22l5 5q22 -2 58 -44q6 -7 20 -24q50 77 91 77q1 0 3 -1zM584 729q-53 15 -120 65
q-32 24 -48 28t-30.5 -4t-18.5 -23q-10 -38 35 -56q38 -14 98 -24q29 -5 76 -11z" />
    <glyph glyph-name="Uacute" unicode="&#xda;" horiz-adv-x="764" 
d="M748 671q-37 -71 -53 -140q-9 -58 -24 -155q68 -17 67 -78q-1 -33 -27.5 -58.5t-55.5 -25.5h-11l-17 -117l2 -42q3 -25 18 -25q9 0 20 16l16 24q2 -1 5 0l5 1q2 0 1 -4q-13 -72 -81 -72q-12 0 -33.5 2.5t-29.5 2.5q-60 -4 -65 -4q-32 0 -45 12t-13 47q0 34 14 106
q-90 -114 -131 -141t-126 -27q-67 0 -91.5 19.5t-24.5 69.5q0 30 12 121q-71 20 -70 81q1 42 31 67q27 23 71 23q23 126 24 159q1 22 -11 38t-32 15q-66 -4 -66 -80q0 -42 18 -94l-18 -2q-17 61 -17 102q0 174 231 170q104 -1 102 -105q-10 -69 -28 -203q46 -8 62 -46
q30 56 95 48l40 217q13 81 92 81q5 0 42 2q34 2 55 1q31 -1 47 -6zM444 207q-57 11 -67 54q-30 -46 -89 -49q-3 -7 -10.5 -48.5t-7.5 -47.5q-2 -64 29 -64t90 74q47 60 55 81zM645 321q-13 -16 -13 -39q-1 -36 39 -36q24 0 39.5 14.5t16.5 38.5q1 28 -19.5 46t-48.5 18
q-56 0 -109 -72q-40 72 -94 72q-27 0 -50 -19t-24 -47q-1 -20 13.5 -36t35.5 -16q36 0 44 31q4 17 -6 31l-1 1l6 6q19 5 55 -44q6 -8 20 -26q52 77 93 77h3zM288 318q-17 -18 -12 -40q7 -35 39 -35q24 0 39.5 14.5t16.5 38.5q1 28 -19.5 46t-48.5 18q-56 0 -109 -72
q-40 72 -94 72q-27 0 -50 -19t-24 -47q-1 -20 13.5 -36t35.5 -16q44 0 45 41q0 7 -8 22l5 6q20 5 56 -44q6 -8 20 -26q52 77 93 77h2zM330 729q53 15 120 65q32 24 48 28t31 -4t18 -23q10 -38 -35 -56q-38 -14 -98 -24q-29 -5 -76 -11z" />
    <glyph glyph-name="Ucircumflex" unicode="&#xdb;" horiz-adv-x="764" 
d="M748 671q-37 -71 -53 -140q-9 -58 -24 -155q68 -17 67 -78q-1 -33 -27.5 -58.5t-55.5 -25.5h-11l-17 -117l2 -42q3 -25 18 -25q9 0 20 16l16 24q2 -1 5 0l5 1q2 0 1 -4q-13 -72 -81 -72q-12 0 -33.5 2.5t-29.5 2.5q-60 -4 -65 -4q-32 0 -45 12t-13 47q0 34 14 106
q-90 -114 -131 -141t-126 -27q-67 0 -91.5 19.5t-24.5 69.5q0 30 12 121q-71 20 -70 81q1 42 31 67q27 23 71 23q23 126 24 159q1 22 -11 38t-32 15q-66 -4 -66 -80q0 -42 18 -94l-18 -2q-17 61 -17 102q0 174 231 170q104 -1 102 -105q-10 -69 -28 -203q46 -8 62 -46
q30 56 95 48l40 217q13 81 92 81q5 0 42 2q34 2 55 1q31 -1 47 -6zM444 207q-57 11 -67 54q-30 -46 -89 -49q-3 -7 -10.5 -48.5t-7.5 -47.5q-2 -64 29 -64t90 74q47 60 55 81zM645 321q-13 -16 -13 -39q-1 -36 39 -36q24 0 39.5 14.5t16.5 38.5q1 28 -19.5 46t-48.5 18
q-56 0 -109 -72q-40 72 -94 72q-27 0 -50 -19t-24 -47q-1 -20 13.5 -36t35.5 -16q36 0 44 31q4 17 -6 31l-1 1l6 6q19 5 55 -44q6 -8 20 -26q52 77 93 77h3zM288 318q-17 -18 -12 -40q7 -35 39 -35q24 0 39.5 14.5t16.5 38.5q1 28 -19.5 46t-48.5 18q-56 0 -109 -72
q-40 72 -94 72q-27 0 -50 -19t-24 -47q-1 -20 13.5 -36t35.5 -16q44 0 45 41q0 7 -8 22l5 6q20 5 56 -44q6 -8 20 -26q52 77 93 77h2zM606 712l-25 -13q-75 31 -151 77q-77 -46 -152 -77l-25 13q41 38 83 76q53 47 94 47q40 0 93 -47q42 -38 83 -76z" />
    <glyph glyph-name="Ugrave" unicode="&#xd9;" horiz-adv-x="764" 
d="M748 671q-37 -71 -53 -140q-9 -58 -24 -155q68 -17 67 -78q-1 -33 -27.5 -58.5t-55.5 -25.5h-11l-17 -117l2 -42q3 -25 18 -25q9 0 20 16l16 24q2 -1 5 0l5 1q2 0 1 -4q-13 -72 -81 -72q-12 0 -33.5 2.5t-29.5 2.5q-60 -4 -65 -4q-32 0 -45 12t-13 47q0 34 14 106
q-90 -114 -131 -141t-126 -27q-67 0 -91.5 19.5t-24.5 69.5q0 30 12 121q-71 20 -70 81q1 42 31 67q27 23 71 23q23 126 24 159q1 22 -11 38t-32 15q-66 -4 -66 -80q0 -42 18 -94l-18 -2q-17 61 -17 102q0 174 231 170q104 -1 102 -105q-10 -69 -28 -203q46 -8 62 -46
q30 56 95 48l40 217q13 81 92 81q5 0 42 2q34 2 55 1q31 -1 47 -6zM444 207q-57 11 -67 54q-30 -46 -89 -49q-3 -7 -10.5 -48.5t-7.5 -47.5q-2 -64 29 -64t90 74q47 60 55 81zM645 321q-13 -16 -13 -39q-1 -36 39 -36q24 0 39.5 14.5t16.5 38.5q1 28 -19.5 46t-48.5 18
q-56 0 -109 -72q-40 72 -94 72q-27 0 -50 -19t-24 -47q-1 -20 13.5 -36t35.5 -16q36 0 44 31q4 17 -6 31l-1 1l6 6q19 5 55 -44q6 -8 20 -26q52 77 93 77h3zM288 318q-17 -18 -12 -40q7 -35 39 -35q24 0 39.5 14.5t16.5 38.5q1 28 -19.5 46t-48.5 18q-56 0 -109 -72
q-40 72 -94 72q-27 0 -50 -19t-24 -47q-1 -20 13.5 -36t35.5 -16q44 0 45 41q0 7 -8 22l5 6q20 5 56 -44q6 -8 20 -26q52 77 93 77h2zM524 729q-53 15 -120 65q-32 24 -48 28t-30.5 -4t-18.5 -23q-10 -38 35 -56q38 -14 98 -24q29 -5 76 -11z" />
    <glyph glyph-name="circumflex" unicode="&#x2c6;" horiz-adv-x="500" 
d="M436 712l-25 -13q-75 31 -151 77q-77 -46 -152 -77l-25 13q41 38 83 76q53 47 94 47q40 0 93 -47q42 -38 83 -76z" />
    <glyph glyph-name="tilde" unicode="&#x2dc;" horiz-adv-x="840" 
d="M265 720l44 39q49 43 94 43q23 0 48 -4q4 0 60 -12q64 -14 92 -14q22 0 39 11q10 6 28 21l27 -9l-37 -33q-31 -27 -47 -36q-25 -14 -57 -14t-133 22q-38 9 -57 9q-32 0 -71 -33z" />
    <glyph glyph-name="macron" unicode="&#xaf;" horiz-adv-x="403" 
d="M362 780l1 -58l-298 -1l1 59h296z" />
    <glyph glyph-name="macron" unicode="&#x2c9;" horiz-adv-x="403" 
d="M362 780l1 -58l-298 -1l1 59h296z" />
    <glyph glyph-name="cedilla" unicode="&#xb8;" horiz-adv-x="740" 
d="M361 -4h49q-8 -6 -10.5 -23.5t-10.5 -25.5q19 3 31 3q18 0 30.5 -11.5t12.5 -29.5q0 -46 -54 -77q-47 -26 -96 -26q-23 0 -42 12.5t-19 33.5q0 38 40 38q8 0 15 -12q10 -15 18 -20q15 -10 42 -7q22 3 22 26q0 42 -75 42l-8 16q15 7 30 27q20 29 25 34z" />
    <glyph glyph-name="brokenbar" unicode="&#xa6;" 
 />
    <glyph glyph-name="minus" unicode="&#xad;" 
 />
    <glyph glyph-name="minus" unicode="&#x2212;" 
 />
    <glyph glyph-name="multiply" unicode="&#xd7;" 
 />
    <glyph glyph-name="onesuperior" unicode="&#xb9;" horiz-adv-x="16" 
 />
    <glyph glyph-name="twosuperior" unicode="&#xb2;" 
 />
    <glyph glyph-name="threesuperior" unicode="&#xb3;" 
 />
    <glyph glyph-name="onehalf" unicode="&#xbd;" 
 />
    <glyph glyph-name="onequarter" unicode="&#xbc;" 
 />
    <glyph glyph-name="threequarters" unicode="&#xbe;" 
 />
    <glyph glyph-name="DLE" 
 />
    <glyph glyph-name="DC1" 
 />
    <glyph glyph-name="DC2" 
 />
    <glyph glyph-name="DC3" 
 />
    <glyph glyph-name="DC4" 
 />
    <glyph glyph-name="RS" 
 />
    <glyph glyph-name="US" 
 />
    <glyph glyph-name="notequal" unicode="&#x2260;" 
 />
    <glyph glyph-name="infinity" unicode="&#x221e;" 
 />
    <glyph glyph-name="lessequal" unicode="&#x2264;" 
 />
    <glyph glyph-name="greaterequal" unicode="&#x2265;" 
 />
    <glyph glyph-name="partialdiff" unicode="&#x2202;" horiz-adv-x="289" 
d="M-4 279l45 15l28 231l-4 54q-4 12 -39 47q1 0 14 1.5t17 1.5q32 1 55 -25q18 -25 36 -51q62 130 141 130q18 0 28 -5q-23 -16 -41 -47t-23 -56q-14 -70 -36 -222l66 22l-3 -57l-71 -25l-3 -16q-19 -148 -19 -213q-2 -6 1.5 -17.5t13.5 -11.5q11 0 29 22q7 0 11 -3
q-10 -25 -46 -44q-29 -15 -50 -15l-37 6l-37 -6q-57 0 -57 73l19 164l-47 -17z" />
    <glyph glyph-name="summation" unicode="&#x2211;" horiz-adv-x="604" 
d="M579 547q0 -40 -24 -63.5t-64 -23.5q-43 0 -69.5 25.5t-26.5 68.5q0 76 73 96q-25 12 -62 12q-38 0 -70 -24.5t-32 -60.5q0 -35 14 -61q9 -19 37 -49q31 6 30 6q34 0 54.5 -24.5t20.5 -60.5q0 -18 -8 -37q68 -107 68 -179q0 -178 -175 -178q-31 0 -56 3q-5 1 -20.5 5
t-23.5 4q-13 0 -39.5 -3.5t-39.5 -3.5q-167 0 -167 118q0 46 25.5 76.5t70.5 30.5t76 -31.5t31 -77.5q0 -41 -41 -90q3 -3 16 -3q44 0 74.5 35t30.5 79q0 59 -30 90q-17 -11 -37 -11q-32 0 -59 23t-27 55q0 44 19 64q-61 72 -59 153q2 118 107 154q55 19 197 19
q72 0 124 -31q62 -37 62 -105zM387 458q-80 0 -80 -93q0 -10 1 -19q-39 19 -85 19q-80 0 -80 -72q0 -23 16 -39.5t39 -16.5q20 0 33 15t13 34q0 18 -10 28l-3 3q-2 1 -3 3q2 9 22 10q31 1 53 -11q16 -9 28 -18l-1 -1q-1 1 0.5 1t6.5 1q-5 8 -5 37q0 71 33 71q3 0 4 -1
q-3 -7 -3 -14q0 -14 10.5 -24.5t24.5 -10.5q40 0 40 44q0 23 -15.5 38.5t-38.5 15.5zM218 811l20 10q60 -25 121 -61q62 36 122 61l20 -10q-33 -31 -67 -61q-42 -38 -75 -38q-32 0 -74 38q-34 30 -67 61z" />
    <glyph glyph-name="product" unicode="&#x220f;" horiz-adv-x="395" 
d="M351 255q0 -17 -13.5 -28.5t-23.5 -11.5q-31 0 -47 44.5t-52 44.5q-31 0 -31 -26q0 -24 42 -44q64 -29 77 -40q42 -32 42 -87q0 -33 -24 -65q-28 -38 -73 -44q-27 -3 -46 -1q-14 3 -29 5q-28 -8 -47 -6q-38 0 -72 12q-54 19 -54 60q0 42 38 41q35 -4 46 -28l12 -44
q10 -23 42 -23q53 0 53 40q0 22 -45 42q-70 32 -82 40q-44 30 -44 76q0 53 44 86q37 28 83 28q2 0 38 -4q0 3 20 5q21 2 40 -1q106 -21 106 -71zM78 461l20 10q60 -25 121 -61q62 36 122 61l20 -10q-33 -31 -67 -61q-42 -38 -75 -38q-32 0 -74 38q-34 30 -67 61z" />
    <glyph glyph-name="pi" unicode="&#x3c0;" horiz-adv-x="732" 
d="M733 299q0 -78 -103 -89q-9 -213 -106 -304q-84 -79 -251 -79q-4 0 -20 1.5t-20 1.5q-39 0 -74 23q-40 26 -40 64q0 37 28 59q24 19 55 19q41 0 68.5 -24t27.5 -62t-24 -57q1 -1 21 -1q65 0 99 85q21 53 25 118l5 36q-54 -51 -146 -51q-61 0 -105 27q-51 32 -51 90
q0 21 7 45q-95 21 -95 95q0 38 33 61t81 22q12 71 12 122q0 33 -14 57q-18 33 -53 34q-69 2 -72 -145q-15 -4 -15 1q-2 16 -2 31q0 102 81 158q63 45 136 45q137 0 137 -149q0 -3 -6.5 -79.5t-6.5 -81.5q0 4 15.5 -6t27.5 -24q24 33 69 33l24 228q-4 70 85 75q4 0 27 -3.5
t26 -3.5q15 0 44.5 3.5t44.5 3.5q-34 -34 -40 -95q-6 -68 -20 -202q40 -8 64 -34q21 -23 21 -48zM433 221q-19 3 -32 21q-11 14 -12 12q-19 -24 -42 -35q-19 -8 -19 -7.5t-5.5 -37.5t-5.5 -47q0 -53 33 -53q37 0 63 45q22 36 21 66zM635 320q-16 -18 -11 -40q8 -35 39 -35
q23 0 37.5 15t14.5 38q0 28 -20 46t-47 18q-54 0 -103 -72q-40 72 -92 72q-26 0 -48 -19t-22 -46q0 -21 14.5 -37t34.5 -16q43 0 43 41q0 7 -9 22l5 6q13 3 34 -23q13 -19 38 -53q52 83 90 83h2zM303 318q-16 -18 -11 -40q8 -35 39 -35q23 0 37.5 14.5t14.5 38.5
q0 28 -19.5 46t-46.5 18q-54 0 -103 -72q-41 72 -92 72q-27 0 -48.5 -19t-21.5 -47q0 -20 14 -36t35 -16q42 0 42 41q0 7 -9 22l6 6q18 5 54 -44q6 -7 20 -26q48 77 87 77h2zM330 729q53 15 120 65q32 24 48 28t31 -4t18 -23q10 -38 -35 -56q-38 -14 -98 -24q-29 -5 -76 -11
z" />
    <glyph glyph-name="integral" unicode="&#x222b;" horiz-adv-x="524" 
d="M189 -147q10 42 10 43q0 30 -24 52t-54 22q-28 0 -52 -16q-27 -19 -27 -48q0 -77 146 -77h11q221 0 258 183l40 313h-169q-8 -83 -19 -143q-27 -143 -69 -146q-16 -1 -16 34l21 183q1 41 -28 63q-25 19 -60 19q-39 0 -83 -28.5t-62 -68.5q4 -4 16 -4q1 2 11 17
q6 10 14 10q22 2 22 -32q0 -5 -9 -76.5t-9 -75.5q0 -40 31 -62q26 -19 65 -19q56 0 79 9q30 12 61 55q-5 -98 -17 -133q-23 -65 -87 -74zM200 399q53 15 120 65q32 24 48 28t31 -4t18 -23q10 -38 -35 -56q-38 -14 -98 -24q-29 -5 -76 -11z" />
    <glyph glyph-name="Omega" unicode="&#x3a9;" horiz-adv-x="640" 
d="M29 344h58q17 83 50 125q44 53 125 53q19 0 58 -2.5t58 -2.5q17 0 52.5 3t53.5 3q73 0 113 -47q34 -39 28 -79q-78 1 -157 0q2 9 2 18q0 85 -81 85q-108 0 -130 -156h153l-10 -46h-148l-1 -9q-1 -1 -6 -35h155l-10 -46h-151q-3 -23 -4 -45q-2 -31 -2 -45q0 -57 20 -78.5
t77 -21.5q82 0 107 117q1 6 80.5 3t82.5 3q-20 -69 -29 -84q-19 -36 -66 -56q-30 -13 -49 -11l-122 10q-22 0 -67.5 -5.5t-68.5 -5.5q-141 0 -142 172q-1 1 6 47h-55l10 46h53q7 38 7 39l1 5h-61z" />
    <glyph glyph-name="Omega" unicode="&#x2126;" horiz-adv-x="640" 
d="M29 344h58q17 83 50 125q44 53 125 53q19 0 58 -2.5t58 -2.5q17 0 52.5 3t53.5 3q73 0 113 -47q34 -39 28 -79q-78 1 -157 0q2 9 2 18q0 85 -81 85q-108 0 -130 -156h153l-10 -46h-148l-1 -9q-1 -1 -6 -35h155l-10 -46h-151q-3 -23 -4 -45q-2 -31 -2 -45q0 -57 20 -78.5
t77 -21.5q82 0 107 117q1 6 80.5 3t82.5 3q-20 -69 -29 -84q-19 -36 -66 -56q-30 -13 -49 -11l-122 10q-22 0 -67.5 -5.5t-68.5 -5.5q-141 0 -142 172q-1 1 6 47h-55l10 46h53q7 38 7 39l1 5h-61z" />
    <glyph glyph-name="radical" unicode="&#x221a;" 
 />
    <glyph glyph-name="approxequal" unicode="&#x2248;" 
 />
    <glyph glyph-name="approxequal" unicode="&#x22f2;" 
 />
    <glyph glyph-name="Delta" unicode="&#x394;" 
 />
    <glyph glyph-name="Delta" unicode="&#x2206;" 
 />
    <glyph glyph-name="lozenge" unicode="&#x25ca;" 
 />
    <glyph glyph-name="fraction" unicode="&#x2044;" horiz-adv-x="15" 
 />
    <glyph glyph-name="fi" unicode="&#xf001;" 
 />
    <glyph glyph-name="fl" unicode="&#xf002;" 
 />
    <glyph glyph-name="apple" unicode="&#xf000;" 
 />
    <glyph glyph-name="dotlessi" unicode="&#x131;" horiz-adv-x="283" 
d="M55 221q0 30 -17 32q-10 1 -16 -8q-7 -13 -11 -15q-3 3 -11 4q11 41 57 71q43 28 84 28q36 0 60 -18q29 -21 29 -60l-24 -191q-2 -6 2 -18.5t14 -12.5q11 0 29 22q7 0 11 -3q-10 -25 -46 -44q-29 -15 -50 -15l-38 8l-36 -8q-57 0 -57 73z" />
    <glyph glyph-name="breve" unicode="&#x2d8;" horiz-adv-x="308" 
d="M52 806h22q27 -37 89 -37q61 0 87 37h23q-6 -45 -41 -71q-29 -22 -68 -22q-41 0 -74 26.5t-38 66.5z" />
    <glyph glyph-name="dotaccent" unicode="&#x2d9;" horiz-adv-x="285" 
d="M95 756q0 22 16.5 37.5t39.5 15.5t39.5 -15.5t16.5 -37.5t-16.5 -37.5t-39.5 -15.5t-39.5 15.5t-16.5 37.5z" />
    <glyph glyph-name="ring" unicode="&#x2da;" horiz-adv-x="469" 
d="M340 708q-29 0 -50.5 20t-21.5 49q0 28 21.5 48t50.5 20q30 0 51.5 -20t21.5 -48q0 -29 -21.5 -49t-51.5 -20zM340 815q-18 0 -30 -11.5t-12 -26.5q0 -16 12 -27.5t30 -11.5q19 0 31 11.5t12 27.5q0 15 -12 26.5t-31 11.5z" />
    <glyph glyph-name="hungarumlaut" unicode="&#x2dd;" horiz-adv-x="375" 
d="M103 698l-16 11q14 16 24 34q12 30 38 78q9 13 26 13q23 0 23 -22q0 -20 -18 -41q-23 -27 -77 -73zM200 698l-17 11q12 14 24 34q12 30 38 78q9 13 26 13q23 0 23 -22q0 -34 -94 -114z" />
    <glyph glyph-name="ogonek" unicode="&#x2db;" horiz-adv-x="500" 
d="M278 0h56q-87 -74 -87 -125q0 -35 35 -35q13 0 48 13l8 -39q-51 -28 -102 -28q-33 0 -55 16q-25 18 -25 51t32 68q23 26 90 79z" />
    <glyph glyph-name="caron" unicode="&#x2c7;" horiz-adv-x="500" 
d="M83 822l25 13q75 -32 151 -77q77 45 152 77l25 -13q-41 -38 -83 -77q-53 -46 -94 -46q-40 0 -93 47q-42 38 -83 76z" />
    </font>
</defs>
</svg>
