<?xml version="1.0" standalone="no"?>
<!DOCTYPE svg PUBLIC "-//W3C//DTD SVG 1.1//EN" "http://www.w3.org/Graphics/SVG/1.1/DTD/svg11.dtd" >
<svg>
<metadata>
Created by FontForge 20120731 at Tue Apr 16 17:00:12 2019
 By www-data
Digitized by Dan X. Solo. Software (c) 2000 by Dover Publications, Inc., New York.
</metadata>
<defs>
<font id="NoveltyScript" horiz-adv-x="20" >
  <font-face 
    font-family="Novelty Script"
    font-weight="400"
    font-stretch="normal"
    units-per-em="1000"
    panose-1="0 0 4 0 0 0 0 0 0 0"
    ascent="800"
    descent="-200"
    x-height="348"
    cap-height="685"
    bbox="-82 -322 1149 823"
    underline-thickness="20"
    underline-position="-123"
    unicode-range="U+0020-F002"
  />
<missing-glyph horiz-adv-x="500" 
d="M63 0v800h375v-800h-375zM125 63h250v675h-250v-675z" />
    <glyph glyph-name=".notdef" horiz-adv-x="500" 
d="M63 0v800h375v-800h-375zM125 63h250v675h-250v-675z" />
    <glyph glyph-name="glyph1" horiz-adv-x="0" 
 />
    <glyph glyph-name="glyph2" horiz-adv-x="238" 
 />
    <glyph glyph-name="space" unicode=" " horiz-adv-x="238" 
 />
    <glyph glyph-name="exclam" unicode="!" horiz-adv-x="270" 
d="M240 672q-89 -140 -131 -291q-11 -35 -26 -104q-2 -24 -5 -49q-5 -30 -15 -38h-15q0 -2 0 71q0 81 16 212q11 83 32 167q22 4 76 19q48 14 51 13h17zM124 111q0 -25 -18.5 -47t-43.5 -22q-24 0 -38 16t-14 39q0 28 23 51t50 23q41 0 41 -60z" />
    <glyph glyph-name="quotedbl" unicode="&#x22;" horiz-adv-x="270" 
d="M272 672q-44 -70 -66 -146q-5 -17 -12 -52q-2 -19 -11 -43h-7q0 -1 0 35q0 41 8 106q6 42 16 83q11 3 38 10q24 7 26 7h8zM172 672q-44 -70 -66 -146q-5 -17 -12 -52q-2 -19 -11 -43h-7q0 -1 0 35q0 41 8 106q6 42 16 83q11 3 38 10q24 7 26 7h8z" />
    <glyph glyph-name="numbersign" unicode="#" horiz-adv-x="448" 
d="M289 419h-87l-64 -196h88zM112 471h76l34 106h32l-35 -106h87l34 106h34l-35 -106h87l-20 -52h-84l-64 -196h86l-20 -52h-83l-41 -127h-32l41 127h-88l-41 -127h-32l42 127h-83l23 52h77l64 196h-82z" />
    <glyph glyph-name="dollar" unicode="$" horiz-adv-x="417" 
d="M383 212q0 -150 -190 -183q-12 -53 -14 -109q-19 -9 -56 -27q10 36 31 133q-4 6 -47 21q-49 17 -72 31q-37 22 -38 48q102 86 118 85l4 -1q-16 -41 -16 -55q0 -46 53 -82l10 12q9 59 24 176q-119 56 -119 147q0 63 44.5 110.5t107.5 57.5q4 3 10.5 38.5t11.5 44.5h28
q-13 -57 -13 -75q82 -16 123 -45q-27 -28 -79 -86q-23 60 -51 60l1 -2l-23 -133q54 -32 95 -71q57 -53 57 -95zM224 518l-42 3q-21 0 -45.5 -25.5t-24.5 -47.5q0 -25 30 -46q26 -20 53 -20q8 0 11 4q1 16 11 61q8 38 8 61q0 6 -1 10zM315 160q0 66 -96 97l-23 -156v-34h37
q30 0 56 31.5t26 61.5z" />
    <glyph glyph-name="percent" unicode="%" horiz-adv-x="524" 
d="M405 42q-24 -9 -33 -9h-6q-20 0 -44.5 18t-35.5 41q-13 30 -13 67q0 74 41 132q45 63 108 63q22 0 63 -16q-14 -24 -28 -57q-27 23 -56 23q-35 0 -56 -35q-16 -28 -16 -61q0 -37 21 -68t52 -31q28 0 43 29q11 22 11 54q0 18 -10 38q-13 25 -36 25q-5 0 -12 -3l-4 4
q-6 5 -6 12q0 18 24 18q37 0 59 -36q18 -28 18 -60q0 -41 -19 -82q-24 -51 -65 -66zM175 282q-24 -9 -33 -9h-6q-20 0 -44.5 18t-35.5 41q-13 30 -13 67q0 73 44 131q47 63 112 63q17 0 56 -15q-14 -24 -28 -57q-27 23 -56 23q-35 0 -56 -35q-16 -28 -16 -61q0 -37 21 -68
t52 -31q28 0 43 29q11 22 11 54q0 18 -10 38q-13 25 -36 25q-5 0 -12 -3l-4 4q-6 5 -6 12q0 18 24 18q37 0 59 -36q18 -28 18 -60q0 -41 -19 -82q-24 -51 -65 -66zM382 577h32l-254 -533h-32z" />
    <glyph glyph-name="ampersand" unicode="&#x26;" horiz-adv-x="426" 
d="M503 278q-26 -25 -87 -39q-50 -11 -97 -11l-22 -6l-20 -118q-17 -82 -59 -82q-34 0 -34 43q0 32 10 78q9 38 17 76l5 4l-8 13q-69 15 -131 67q-70 60 -70 124q0 40 30.5 65.5t71.5 25.5q141 0 141 -193q0 -30 -4 -63q10 -7 29 -9q15 15 41 77t50 89q39 44 100 44l8 -4
q-12 -27 -30 -83q-10 3 -20 3q-39 0 -74 -39q-30 -33 -40 -76l11 -7q76 10 119 61q21 -14 63 -40zM226 313q0 77 -27 117q-23 33 -47 33q-35 0 -35 -48q0 -81 98 -142l8 7q0 6 1.5 17t1.5 16zM268 224q-3 0 -8 2t-8 2q-10 0 -12 -4q-5 -9 -17.5 -69.5t-12.5 -71.5
q0 -16 4 -29h14q9 10 25 81q15 68 15 89z" />
    <glyph glyph-name="quotesingle" unicode="'" horiz-adv-x="270" 
d="M172 672q-44 -70 -66 -146q-5 -17 -12 -52q-2 -19 -11 -43h-7q0 -1 0 35q0 41 8 106q6 42 16 83q11 3 38 10q24 7 26 7h8z" />
    <glyph glyph-name="parenleft" unicode="(" horiz-adv-x="443" 
d="M155 -5h-6h-6q-74 0 -112 59q-35 53 -35 145q0 164 88 322q93 169 206 169q49 0 63 -7l20 -12q-18 -31 -28 -53q-28 23 -84 23q-72 0 -132 -117q-58 -113 -58 -233q0 -82 32 -129q35 -54 105 -54q-8 -3 -28.5 -58t-24.5 -55z" />
    <glyph glyph-name="parenright" unicode=")" horiz-adv-x="443" 
d="M221 690h5q75 0 113 -59q34 -53 34 -145q0 -164 -87 -323q-94 -168 -207 -168q-48 0 -63 6q-10 6 -20 13q25 40 55 111q28 -23 84 -23q71 0 128 120q55 114 55 236q0 83 -31 129q-34 51 -101 42q8 3 16.5 31.5t12.5 28.5t6 1z" />
    <glyph glyph-name="asterisk" unicode="*" horiz-adv-x="422" 
d="M183 665q0 53 18 122q4 1 25 8q16 5 26 4h11q-38 -60 -48 -136q43 25 114 45q17 -17 47 -56h-26q-72 1 -121 -18q43 -25 96 -77q-6 -23 -26 -69q-42 81 -89 119q0 -52 -18 -122l-30 -7q-18 -5 -31 -4h-11q48 76 58 136q-43 -26 -114 -45q-17 17 -47 56h34q62 -2 113 18
q-43 24 -96 76q6 24 26 69q42 -80 89 -119z" />
    <glyph glyph-name="plus" unicode="+" horiz-adv-x="457" 
d="M178 502h52v-173h173v-52h-173v-172h-52v172h-173v52h173v173z" />
    <glyph glyph-name="comma" unicode="," horiz-adv-x="270" 
d="M177 133q0 -55 -37.5 -118t-99.5 -114q-2 -1 -14 -1v12q53 49 53 152q0 12 -1 23q0 2 -2.5 9t-2.5 11v13q34 10 97 42q7 -22 7 -29z" />
    <glyph glyph-name="hyphen" unicode="-" horiz-adv-x="270" 
d="M202 208h-182l8 35h182zM181 139h-178l9 36l181 -1z" />
    <glyph glyph-name="hyphen" unicode="&#x2010;" horiz-adv-x="270" 
d="M202 208h-182l8 35h182zM181 139h-178l9 36l181 -1z" />
    <glyph glyph-name="period" unicode="." horiz-adv-x="162" 
d="M109 118q0 -33 -19.5 -54.5t-48.5 -21.5q-42 0 -42 49q0 23 19 47q23 27 52 27q39 0 39 -47z" />
    <glyph glyph-name="slash" unicode="/" horiz-adv-x="302" 
d="M252 577h32l-254 -533h-32z" />
    <glyph glyph-name="zero" unicode="0" horiz-adv-x="443" 
d="M364 298q0 -72 -34 -143q-40 -88 -110 -114q-41 -15 -55 -15h-10q-34 0 -75 30.5t-58 67.5q-24 52 -24 117q0 128 78 231q82 108 192 108q30 0 82 -21q-18 -30 -36 -73q-39 32 -96 32q-72 0 -113 -70q-33 -55 -33 -118q0 -71 40 -130q44 -64 108 -64q60 0 90 64
q21 46 21 101q0 43 -16 85q-24 61 -70 61q-14 0 -19 -3q-8 8 -8 13q0 19 31 19q61 0 92 -69q23 -50 23 -109z" />
    <glyph glyph-name="one" unicode="1" horiz-adv-x="401" 
d="M309 578q-127 -198 -127 -375q0 -92 27 -145q-72 -6 -167 -47v21q0 150 180 448l-2 5q-120 -76 -200 -97l-8 4v12l8 10q64 8 151 68q45 32 133 107z" />
    <glyph glyph-name="two" unicode="2" horiz-adv-x="460" 
d="M413 176l-40 -72q-23 -43 -34 -76q-94 53 -169 53q-99 0 -166 -43l-5 10q23 43 100 119q115 113 126 125q61 69 61 111q0 35 -25 58.5t-60 23.5q-45 0 -75.5 -29t-30.5 -74q-26 13 -26 58q0 72 62 116q55 39 130 39q56 0 99 -44.5t43 -100.5q0 -72 -68 -139
q-40 -39 -146 -109q-100 -66 -133 -103v-12l108 40q63 21 112 21l84 -14l41 50z" />
    <glyph glyph-name="three" unicode="3" horiz-adv-x="481" 
d="M408 211q0 -83 -82 -133q-70 -44 -159 -44q-47 0 -98 19q-65 25 -65 65l4 11q33 19 110 92q-6 -23 -6 -45q0 -45 24 -75q26 -33 70 -33q41 0 68 30.5t27 72.5q0 71 -42 100q-34 22 -106 22q-7 0 -19 5v8q0 7 39 22q49 20 72 39q39 30 39 73q0 31 -21 51.5t-52 20.5
q-39 0 -73 -28t-42 -66q-16 13 -16 44q0 56 56 99q52 41 110 41q55 0 99 -30q49 -33 49 -85q0 -79 -117 -144q36 -17 73 -33q58 -33 58 -99z" />
    <glyph glyph-name="four" unicode="4" horiz-adv-x="471" 
d="M402 536q-38 -55 -73 -139q-35 -87 -44 -151l6 -7q37 -2 111 -31q1 -18 -18 -50l-42 30q-26 17 -49 17q-15 0 -15 -34q0 -110 44 -179q-19 -15 -74 -37q-49 -20 -74 -47h-19l3 5q0 10 -1.5 31t-1.5 32q0 69 43 226l-8 6q-35 0 -91 -13q-61 -14 -85 -30h-12v15
q47 46 83.5 124.5t36.5 140.5q0 64 -27 106q51 19 152 61l5 -17q0 -144 -180 -370v-14q18 5 71 10q44 5 70 18q82 195 173 309h16v-12z" />
    <glyph glyph-name="five" unicode="5" horiz-adv-x="471" 
d="M383 593q0 -3 -10 -19q-12 -21 -13 -21q-5 -11 -21 -68h-11q-5 0 -12.5 5.5t-11.5 6.5q-41 11 -71 11q-32 0 -86 -13q-4 3 -4 12q0 13 6.5 36.5t13.5 33.5l38 8q26 7 30 17q2 -7 13 -7q17 0 49.5 5t48.5 5h33q8 -6 8 -12zM386 253q0 -93 -73.5 -157.5t-168.5 -64.5
q-51 0 -92 22q-46 26 -63 70q75 49 128 91q-14 -35 -14 -60q0 -32 25.5 -57.5t57.5 -25.5q46 0 76.5 33.5t30.5 79.5q0 56 -40.5 100t-94.5 44q-48 0 -118 -46v14l28 94q5 16 42 201h19v-28l-37 -183l6 -5q19 12 59.5 24.5t63.5 12.5q70 0 117.5 -45t47.5 -114z" />
    <glyph glyph-name="six" unicode="6" horiz-adv-x="459" 
d="M409 673q0 -10 -7 -15q-135 -50 -218 -157q-79 -100 -79 -201q0 -62 38 -113q43 -57 108 -57q43 0 75 25.5t32 66.5q0 25 -16.5 45.5t-43.5 20.5q-22 0 -40 -14t-18 -37q0 -10 4 -21q-6 -2 -9 -1q-20 25 -88 64q4 39 44 61q30 16 63 16q36 0 61 -14q78 -46 78 -130
t-62 -139q-57 -50 -135 -50q-95 0 -148 69q-46 60 -46 146q0 149 127 275q48 47 106 88q14 9 68 38q65 34 79 34h27z" />
    <glyph glyph-name="seven" unicode="7" horiz-adv-x="443" 
d="M391 565q0 6 -15 -52q-26 -100 -76 -187q-38 -62 -75 -125q-34 -67 -34 -144q0 -71 32 -100v-11q-84 -1 -184 -72v60q0 11 15 81q26 119 155 260q65 70 115 168q22 42 29 79q2 3 -5 3q-3 0 -44 -25q-46 -28 -66 -36q-56 -24 -115 -24q-3 0 -29.5 5t-30.5 5q-6 0 -11 -5
q-7 -31 -24 -90q-7 -3 -21 -8l36 236q90 -62 169 -62q110 0 167 55h12v-11z" />
    <glyph glyph-name="eight" unicode="8" horiz-adv-x="443" 
d="M370 457q2 -4 2 -10q0 -8 -6 -24q-7 -19 -8 -23q-1 -7 -1 -40q-12 7 -34 18q-30 11 -54 11q-15 0 -37 -7q-26 -8 -36 -18q0 -3 5 -7q89 -27 123 -54q43 -35 43 -99q0 -78 -62 -130q-58 -48 -135 -48q-69 0 -117 43.5t-48 107.5q0 46 28 90q19 30 53 62q29 27 29 29
q0 3 -12 19t-16 26q-8 16 -8 42q0 63 62 101q48 30 100 30q33 0 56 -7q20 -8 41 -17q-20 -20 -40 -41q-30 -31 -35 -48q-12 10 -37 28q-23 14 -41 14q-28 0 -50.5 -19.5t-22.5 -48.5q0 -13 9 -33q12 -25 26 -25l4 2q11 12 82.5 44t97.5 32h39zM254 220q0 23 -19 50
q-22 31 -56 48q-4 2 -19 12q-12 7 -16 7q-24 0 -63.5 -59t-39.5 -93q0 -38 29 -61t68 -23q45 0 80.5 34t35.5 85z" />
    <glyph glyph-name="nine" unicode="9" horiz-adv-x="443" 
d="M382 356q0 -137 -110 -276q-106 -134 -264 -209l-5 4v12q114 63 194.5 178.5t80.5 218.5q0 62 -31 113q-40 63 -111 63q-37 0 -67 -23t-30 -61q0 -30 18.5 -49t44.5 -19q19 0 32 13.5t12 34.5q29 -25 87 -69q-4 -21 -41 -40q-33 -17 -56 -17q-22 0 -49.5 12t-40.5 25
q-43 44 -43 105q0 80 56 139t135 59q93 0 145 -72q43 -60 43 -142z" />
    <glyph glyph-name="colon" unicode=":" horiz-adv-x="270" 
d="M131 301q0 -30 -16 -53q-18 -26 -45 -26q-20 0 -33 16.5t-13 33.5q0 22 21 49t47 27q17 0 29 -20q10 -16 10 -27zM109 118q0 -33 -19.5 -54.5t-48.5 -21.5q-42 0 -42 49q0 23 19 47q23 27 52 27q39 0 39 -47z" />
    <glyph glyph-name="semicolon" unicode=";" horiz-adv-x="270" 
d="M170 310q0 -33 -15 -56q-18 -29 -52 -29q-20 0 -32 13.5t-12 30.5q0 22 22 50.5t49 28.5q14 0 27 -13t13 -25zM154 141q0 -117 -143 -250h-11q-4 0 -4 7q0 3 16 29q19 30 24 41q18 39 18 90q0 32 -7 59q32 12 103 45q0 -3 2 -10t2 -11z" />
    <glyph glyph-name="less" unicode="&#x3c;" horiz-adv-x="548" 
d="M490 665q-52 -127 -52 -265q0 -129 38 -198l-4 -3q-35 53 -44 131l-3 1l-115 -88q50 -4 92 -24q55 -26 55 -67q0 -105 -196 -115q-30 -2 -83 10l-4 4l7 3q36 -6 51 -6q70 0 124 15q82 22 82 69q0 40 -123 40q-88 0 -185 -76q-93 -74 -122 -159l-6 6q34 77 34 178
q0 31 -14.5 87t-14.5 81h6q12 -25 26 -78l5 -1q102 70 132 96q79 71 79 130q0 32 -17 55q-20 26 -50 26q-49 0 -84 -56q-30 -50 -30 -103q0 -6 9 -39q-14 10 -16 13q-4 7 -6 30q-5 62 57 141t125 79q42 0 42 -73q0 -62 -52 -160q54 43 109 86q68 55 91 97q11 20 25 68t28 71
zM426 431l1 12q-45 -38 -339 -262q-32 -25 -36 -34q-3 -5 -3 -47q88 76 267 228l64 48q46 37 46 55z" />
    <glyph glyph-name="equal" unicode="=" horiz-adv-x="460" 
d="M17 231h384l-10 -35h-384zM37 321h384l-10 -35h-384z" />
    <glyph glyph-name="greater" unicode="&#x3e;" horiz-adv-x="548" 
d="M2 665q52 -127 52 -265q0 -129 -38 -198l4 -3q35 53 44 131l3 1l115 -88q-50 -4 -92 -24q-55 -26 -55 -67q0 -105 196 -115q30 -2 83 10l3 4l-6 3q-36 -6 -51 -6q-70 0 -124 15q-83 22 -83 69q0 40 124 40q88 0 183 -75t124 -160l6 6q-35 77 -35 178q0 31 15 87t15 81h-6
q-12 -25 -26 -78l-5 -1q-102 70 -132 96q-79 71 -79 130q0 32 18 56.5t48 24.5q50 0 84 -56q31 -50 31 -103q0 -6 -9 -39q14 10 16 13q4 7 6 30q5 62 -57 141t-125 79q-42 0 -42 -73q0 -62 52 -160q-55 43 -109 86q-69 55 -92 97q-10 20 -24 68t-28 71zM65 431v12
q45 -38 339 -262q32 -25 36 -34q2 -5 2 -47q-87 76 -267 228q-32 24 -63 48q-47 37 -47 55z" />
    <glyph glyph-name="question" unicode="?" horiz-adv-x="368" 
d="M324 569q0 -71 -59 -127q-1 -2 -113 -85q-63 -47 -70 -93q5 -17 9 -40v-15q-1 0 -4.5 -1.5t-8.5 -1.5q-22 0 -22 60q0 33 24 68q17 26 62 71q22 22 41 54q25 40 25 67q0 33 -23.5 55t-52.5 22q-30 0 -54 -20q-25 -23 -21 -54q-1 -2 -5 -8q-5 2 -13 12.5t-8 17.5
q0 68 55 104q45 30 114 30q3 0 8 -2.5t8 -2.5q26 -3 53 -20q31 -20 45 -48q10 -22 10 -43zM116 119q0 -24 -13 -48q-18 -32 -48 -32q-25 0 -38 20q-11 16 -11 38q0 26 20.5 51.5t50.5 25.5q39 0 39 -55z" />
    <glyph glyph-name="at" unicode="@" horiz-adv-x="14" 
 />
    <glyph glyph-name="A" unicode="A" horiz-adv-x="889" 
d="M889 174q-28 -28 -53 -49q-61 -50 -100 -56l40 -67q-103 6 -200 -15q-2 26 -9 79q-102 19 -150 56q-126 -136 -264 -136q-108 0 -157 71l119 151q27 -75 125 -75q38 0 113 37q-97 80 -97 189q0 63 40 105.5t103 42.5q45 0 90 -42t52 -86q38 59 75 118q57 86 102 132
q61 63 112 65q28 -7 26 -25q-73 -129 -105 -208q-50 -124 -50 -226t29 -146q76 20 159 111v-26zM832 669q0 8 -8 9q6 -1 -14 -1q-34 0 -147.5 -155t-108.5 -188l25 -183l5 14q27 138 96 266q38 70 152 238zM490 310q-40 75 -111 71q-27 -2 -47.5 -29.5t-20.5 -54.5
q0 -30 20.5 -62t47.5 -49q40 26 64 54q18 20 47 70zM561 89q-14 68 -35 148q-3 16 -11 33q-15 -37 -40 -72l-40 -58q55 -38 126 -51z" />
    <glyph glyph-name="B" unicode="B" horiz-adv-x="862" 
d="M822 138q0 -148 -122 -252q-117 -98 -267 -98q-74 0 -131 26q-75 35 -75 101q0 21 9 36q11 20 29 20q14 0 14 -9q0 -5 -7.5 -21.5t-7.5 -25.5q3 -63 98 -63q113 0 208 95.5t95 207.5q0 66 -10 106q-7 28 -20 45l-16 18q-20 -8 -39 -14q-47 -14 -83 -16q-20 -39 -39 -79
q-46 -89 -108 -142q-89 -75 -205 -75q-47 0 -93 15q-52 17 -79 48q42 48 117 145q14 -17 48.5 -33t65.5 -16q120 0 231 135q-37 5 -51.5 14.5t-14.5 29.5q0 44 115 56q45 87 67 254l13 -8q0 -86 -41 -248q28 1 61 -12t35 -13q26 0 58 55.5t32 111.5q0 132 -193 132
q-70 0 -147 -54q-80 -57 -80 -118q0 -58 34 -92q-44 -41 -135 -117q-31 44 -31 124q0 137 138 218q117 69 262 69q80 0 150 -40q84 -48 86 -122q1 -67 -38 -113q-30 -34 -97 -68q51 -16 94 -55q70 -63 70 -158zM599 346q-12 12 -42 16q-19 1 -38 3q-15 -45 -15 -46
q88 10 95 27zM477 365q-21 -1 -37 -4q-38 -8 -44 -25q-2 -15 30.5 -22.5t32.5 -2.5q-1 1 -6 3q15 29 24 51z" />
    <glyph glyph-name="C" unicode="C" horiz-adv-x="703" 
d="M665 144q-1 -99 -70.5 -167t-167.5 -68t-177.5 78.5t-88.5 177.5q-5 100 15 169q-17 -2 -35 -2q-115 0 -152 48q60 70 108 137q15 -41 34 -57q26 -24 87 -36q47 72 173 168q139 105 213 105q21 0 26 -7.5t5 -24.5q0 -80 -83 -158q-60 -55 -157 -105q-46 -21 -92 -41
q-8 -49 -8 -65q0 -93 43 -157q49 -73 137 -73q49 0 90.5 32t41.5 80q0 27 -18 52.5t-44 25.5q-43 0 -43 -37q0 -8 3 -17l-96 -55q-22 44 -22 61q0 49 46 77q39 23 92 23q58 0 99.5 -49.5t40.5 -114.5zM607 653q0 17 -13 17q-25 0 -86 -37q-46 -29 -80 -56q-30 -25 -64 -70
q-36 -49 -46 -83l39 7q64 12 154 87q96 79 96 135z" />
    <glyph glyph-name="D" unicode="D" horiz-adv-x="927" 
d="M279 101q-18 -28 -93 -45q-58 -13 -108 -13q-59 0 -59 22q0 30 58 47q45 14 85 14q68 0 117 -25zM927 178q-38 -67 -122 -67q-10 0 -66 12q-148 -133 -268 -133q-59 0 -96 22q-23 14 -72 67q-64 -33 -105 -44q-49 -14 -113 -14q-31 0 -57 8q-35 12 -35 36q0 59 85 93
q75 30 183 30q61 0 113 -11q19 22 19 65q0 28 -27.5 75.5t-27.5 76.5q1 52 46 125q33 50 67 100q-45 -46 -91 -91q-55 -52 -101 -77q-59 -33 -122 -33q-62 0 -87 29q44 52 117 144q34 -44 83 -44q55 0 107 34q18 11 85 69q51 43 89 56l7 -8q-45 -50 -74 -111
q-34 -70 -34 -128q0 -30 20.5 -82t20.5 -81q0 -58 -65 -126q22 -9 88 -62q54 -43 87 -43q27 0 68 24q37 23 56 47q-73 36 -113 81q-84 92 -84 244q0 77 38 153q46 93 117 93q91 0 145 -93q46 -78 46 -177q0 -75 -25 -152q-27 -83 -73 -135q-6 0 19.5 -7.5t44.5 -7.5
q22 0 53.5 19.5t53.5 47.5v-24zM763 303q0 72 -36 139q-42 78 -109 78q-69 0 -69 -92q0 -91 46 -162.5t129 -108.5q39 68 39 146z" />
    <glyph glyph-name="E" unicode="E" horiz-adv-x="526" 
d="M529 184q-28 -38 -79 -99q-52 -50 -111.5 -77.5t-105.5 -27.5q-84 0 -154 49q-82 58 -82 149q0 67 34 118.5t115 97.5q-8 17 -23 49q-8 18 -8 46q0 69 49 120.5t131 70.5q35 8 98 8q16 0 55 -8q51 -12 51 -27q0 -5 -25 -55q-34 -68 -40 -81q-64 47 -135 47
q-57 0 -93.5 -29.5t-36.5 -78.5q0 -44 18 -44q11 0 38.5 13t64.5 13q48 0 48 -33q0 -29 -33 -47q-26 -13 -50 -13q-5 0 -31 6.5t-30 6.5q-14 0 -35 -33q-9 -14 -17 -41q-7 -22 -7 -30q0 -77 57 -119q48 -37 117 -37q54 0 107 29q30 17 110 78q3 -4 3 -21zM314 402q0 5 -8 13
h-24q-18 0 -62 -35q12 -12 38 -12q56 0 56 34z" />
    <glyph glyph-name="F" unicode="F" horiz-adv-x="734" 
d="M679 506q-21 60 -69 99q-51 43 -111 43q-78 0 -135 -49q-59 -52 -59 -128q0 -45 37 -77q-39 -40 -109 -123q-30 16 -48 60q-15 38 -15 76q0 129 128 209q111 69 248 69q128 0 187 -8q-16 -39 -32 -77q-17 -44 -22 -94zM661 240q-42 69 -117 65l-17.5 -34t-24.5 -50
q-39 -95 -129.5 -160.5t-192.5 -69.5q-72 -4 -129 20q-39 17 -53 36q25 26 45 51q50 61 68 107q41 -56 120 -56q75 0 151.5 45.5t105.5 112.5q-44 -12 -66.5 -26t-53.5 -50l-14 5q33 94 164 138q12 33 22 68q24 83 35 158l15 -7q1 -67 -28 -210q52 20 147 19
q-27 -51 -34.5 -77.5t-13.5 -84.5z" />
    <glyph glyph-name="G" unicode="G" horiz-adv-x="694" 
d="M656 640q0 -110 -79 -200q-66 -77 -177 -129q0 -28 36 -40q20 -6 41 -6q76 0 154 91q2 0 9 -42t7 -61q0 -158 -111 -309q-66 -89 -162.5 -137.5t-206.5 -48.5q-152 0 -216 84q96 67 145 162q22 -104 167 -104q125 0 238 110q117 114 117 249q0 18 -2 35q-15 -22 -53 -73
q-29 -38 -73 -59q-40 -20 -77 -20q-50 0 -95 36q-50 40 -60 101q-52 -19 -108 -19q-31 0 -77 14q-50 14 -61 28q13 27 52 81.5t53 82.5q23 -29 45 -58q51 -56 100 -50q4 53 41 116q57 98 176 169q87 51 140 51q37 0 37 -54zM629 646q0 22 -17 22q-41 0 -107 -63
q-61 -59 -78 -100q-33 -82 -33 -126q0 -8 1 -12q81 22 157.5 110t76.5 169z" />
    <glyph glyph-name="H" unicode="H" horiz-adv-x="865" 
d="M865 177q-18 -35 -68 -67q-46 -30 -80 -35q9 -23 26 -53q-45 -4 -89 -7q-62 -6 -95 -22q-8 21 -8 43q1 27 -1 36q-34 13 -68 27q-38 15 -64 36q-139 -138 -278 -134q-62 1 -109 20q-42 18 -55 42q85 95 121 157q52 -58 120 -58q67 0 132 49q-7 9 -14 17q-14 26 -10 54
q4 27 25 46.5t48 19.5q29 0 38.5 -8.5t11.5 -8.5q24 0 73 121q43 107 50 150l-5 5q-168 -219 -297 -219q-95 0 -116 46q40 43 120 123q24 -48 64 -48q83 0 151 60q31 27 109 126l4 -29q0 -65 -37 -195q-32 -111 -66 -191q39 -55 61 -140q21 134 75 263q79 190 202 290l1 -9
q0 -10 -39 -87q-46 -93 -71 -168q-38 -117 -38 -226q1 -61 20 -105q46 8 88.5 37t67.5 70q5 -19 0 -28zM545 105q-14 56 -68 115q-16 -20 -44 -61q17 -17 55.5 -35.5t56.5 -18.5zM407 273q-5 6 -19 14q-13 3 -23 -8t-10 -21q0 -5 6 -16t11 -11q16 16 35 42z" />
    <glyph glyph-name="I" unicode="I" horiz-adv-x="548" 
d="M588 619q0 -225 -107 -410q-126 -218 -334 -218q-128 0 -152 47q38 61 116 163q41 -45 121 -45q78 0 148 48.5t98 122.5q-62 39 -179 39q-97 0 -206 -37q14 30 40 77q35 63 44 63q118 0 276 -98q-24 41 -24 95q0 61 29 116q33 61 93 100q6 3 13 3q16 0 20 -15.5t4 -50.5z
M558 656q-62 -47 -82 -100q-17 -41 -16 -116q1 -58 34 -94q22 39 42 100q26 84 26 155q0 29 -4 55z" />
    <glyph glyph-name="J" unicode="J" horiz-adv-x="548" 
d="M182 214q-40 0 -91 -14l-88 -24q30 62 49 120q91 -6 152 -23q57 -16 141 -58q-48 86 -48 184q0 69 30 153q39 107 107 159q10 6 19 6q22 0 33 -60q8 -40 8 -78q0 -239 -64 -426q93 11 120 61v-31q-20 -30 -55 -38q-66 -16 -68 -17l-42 -184q-30 -122 -68 -170
q-39 -7 -141 -39.5t-154 -55.5q-4 -1 -7 -1q-24 0 -53 53q-26 50 -26 79q0 116 93 197q68 59 185 97q66 18 132 35q5 5 23 41q-30 25 -90 32q-19 2 -97 2zM459 647q0 31 -14 31q-7 0 -15 -9q-109 -116 -109 -281q0 -104 42 -181l12 -4q84 227 84 444zM338 114l-85 -26
q-114 -40 -188 -101q-98 -81 -98 -179q0 -27 13 -57q16 -37 40 -37q57 0 132 93q53 65 118 181z" />
    <glyph glyph-name="K" unicode="K" horiz-adv-x="934" 
d="M934 170q-45 -65 -100 -113q-75 -65 -133 -65q-49 0 -78.5 32t-29.5 82q0 42 10 108q10 54 19 108q5 32 -2 60q-37 -22 -64 -16q-36 -106 -90 -183q-130 -183 -326 -183q-39 0 -90 15q-60 17 -79 40q55 68 66 82q37 48 59 86q11 -23 43.5 -41t59.5 -18q95 0 182 60
q76 53 133 142q-39 7 -35 34q0 34 71 43q4 0 27.5 88.5t27.5 117.5l-22 -37q-86 -107 -117 -133q-73 -63 -162 -63q-73 0 -127 51q28 20 65 60l60 64q12 -26 40 -42t58 -16q71 0 132 58q36 34 91 117v-18q1 -47 -15 -123q-23 -100 -26 -122q14 -4 27 -9q19 -6 23 -20
q24 17 88 99q78 100 108 132q61 64 91 57q-26 -84 -28 -150q-91 -19 -243 -164q10 -76 30 -130q47 -130 133 -130q49 0 121 64q9 -16 2 -24zM613 406q-12 12 -35 17q-2 -4 -13 -35l24 2q25 3 24 16zM545 421q-22 -3 -29 -8q-2 -2 -9 -13q2 -4 5 -8t18 -4q16 33 15 33z" />
    <glyph glyph-name="L" unicode="L" horiz-adv-x="688" 
d="M688 179q-54 -17 -101 -90.5t-63 -170.5q-54 75 -78 100q-58 60 -113 66q-122 -91 -255 -86q-31 1 -56.5 14t-25.5 28q0 62 162 107q133 38 216 35q13 22 13.5 24t0.5 20q0 9 -18 29q-23 26 -33 44q-19 32 -20 71q-67 -32 -127 -32q-90 0 -172 64q41 8 75 50q29 40 59 80
q14 -43 48 -77q38 -38 78 -38q17 0 33 7q5 94 109 191q95 88 188 107q21 3 26 1q5 -3 8 -19q-31 -112 -70 -172q-50 -75 -140 -117q8 -17 26 -32t24 -25q10 -18 10 -55q0 -54 -64 -124q65 -9 98 -26q26 -15 53 -30q36 43 36 44q27 24 73 35v-23zM603 676h-19
q-43 0 -111.5 -68.5t-72.5 -113.5q-2 -17 12 -44q28 9 46 24.5t30 21.5q21 9 69 77t48 95q0 5 -2 8zM292 97q-29 9 -77 9q-34 0 -99 -17q-79 -20 -79 -42q0 -9 16 -15q13 -5 24 -5q45 0 113 20q75 22 102 50z" />
    <glyph glyph-name="M" unicode="M" horiz-adv-x="992" 
d="M995 180q-96 -200 -217 -200q-72 0 -107 77q-26 57 -26 140q0 138 199 448q-170 -165 -254 -425q-35 -109 -50 -228l-5 -9q-21 14 -33 80q-10 52 -10 91q0 67 25.5 197t26.5 195q0 16 -3 16t-11 -7q-24 -208 -124 -369q-124 -199 -308 -199q-30 0 -66 8q-50 10 -52 28
q84 104 117 186q32 -38 48 -48q23 -14 64 -14q149 0 235 204q60 141 76 332h12q42 -105 42 -224q0 -65 -29 -187t-29 -187l5 -6q46 200 110 330q95 195 246 285l14 -9v-11q-143 -216 -143 -387q0 -64 28 -111q34 -56 94 -56q42 0 122 81q6 -1 6 -9q0 -5 -3 -12z" />
    <glyph glyph-name="N" unicode="N" horiz-adv-x="754" 
d="M848 555q-9 -29 -10 -71q-2 -54 -5 -70q-170 -22 -170 -351q0 -12 9 -44q8 -28 5 -42l-9 -4q-106 114 -106 228q0 15 2 30l48 308q2 16 -4 43t-16 36q-5 -9 -5 -39q0 -116 -66 -253q-68 -140 -171 -231q-115 -101 -234 -101q-55 0 -72 3q-53 9 -85 44q73 103 114 185
q38 -75 133 -75q168 0 273 190q86 156 89 342h12q66 -63 66 -212q0 -48 -22 -139.5t-22 -133.5q0 -112 29 -140l8 3q-6 154 50 311q65 182 182 248z" />
    <glyph glyph-name="O" unicode="O" horiz-adv-x="611" 
d="M588 366q0 -144 -92 -256q-97 -120 -237 -120q-108 0 -184 84q-74 80 -74 189q0 112 60 221q65 118 163 157q12 7 34 18q63 31 115 31q66 0 85 -11l-7 -13l-27 4q-125 0 -213 -94t-88 -220q0 -107 57.5 -168t166.5 -61q80 0 140 58.5t60 137.5q0 57 -36 107
q-39 55 -94 55q-46 0 -49 -44q-35 55 -94 123q3 22 53 41q43 17 73 17q93 0 145 -85q43 -71 43 -171z" />
    <glyph glyph-name="P" unicode="P" horiz-adv-x="680" 
d="M677 495q0 -74 -54.5 -127t-131.5 -58q-13 -15 -32 -79q-38 -126 -155 -188q-99 -53 -240 -53q-19 0 -75 24q-59 26 -60 40q46 60 105 162q40 -36 57 -46q38 -23 92 -23q65 0 152 53q94 57 96 116q-51 41 -51 89q0 36 30 69.5t65 33.5q-22 -13 -45 -48t-23 -58
q0 -31 30 -60q48 133 113 305q-32 23 -72 23q-81 0 -149 -56q-72 -58 -72 -137q0 -25 12 -45q1 -2 29 -37q-23 -27 -46 -68q-19 -37 -37 -74q-51 17 -86.5 66.5t-35.5 104.5q0 103 92 189q89 84 195 88q123 4 184 -31q38 30 51 26v-12q-13 -9 -27 -26q37 -30 62 -73
q27 -47 27 -90zM621 504q0 33 -15 69q-16 40 -41 55q-71 -204 -69 -293h14q41 0 78 67q33 59 33 102z" />
    <glyph glyph-name="Q" unicode="Q" horiz-adv-x="721" 
d="M710 177q-3 -83 -60 -169q-63 -97 -142 -97q-43 0 -97 36q-29 19 -82 66q-41 36 -50 36q-31 0 -102 -23t-110 -23q-69 0 -69 33q0 31 75 49q55 13 102 13l107 -13q62 -8 151 111q87 116 87 193q0 90 -56 154q-59 67 -148 67q-68 0 -122.5 -49t-54.5 -116q0 -39 28 -71.5
t66 -32.5q20 0 38.5 14t18.5 34q0 10 -16 24t-26 14q21 32 69 95q40 -14 65.5 -46t25.5 -73q0 -58 -44 -101t-102 -43q-68 0 -115 46.5t-47 114.5q0 117 102 192q93 67 213 67q99 0 169 -52q77 -58 77 -155q0 -121 -101 -237q-87 -99 -211 -159l3 -7q112 -23 143 -23
q147 0 206 140zM237 62q-11 13 -57 13q-112 0 -152 -30l3 -19q4 0 11.5 -1.5t11.5 -1.5q79 0 183 39z" />
    <glyph glyph-name="R" unicode="R" horiz-adv-x="885" 
d="M884 179q-25 -54 -51 -109q-37 -71 -73 -109q-47 -50 -101 -50q-46 0 -72 47q-21 39 -21 90q0 41 16.5 121.5t16.5 120.5l-16 2q-36 0 -86 -76q-68 -103 -110 -140q-87 -76 -214 -76q-115 0 -182 54q32 51 93 156q71 -59 163 -59q57 0 128 39t95 87q-4 9 -24.5 18
t-20.5 25q0 45 99 55q28 47 37 120q5 41 5 128l16 7q5 -27 5 -64q0 -42 -10 -99q-9 -48 -18 -97q18 -8 56 -38q40 3 82 77q39 68 39 113q0 66 -55 104q-48 34 -115 34q-80 0 -155 -59q-78 -62 -78 -140q0 -36 32 -69q-57 -40 -116 -123q-64 49 -64 141q0 121 118 206
q107 77 233 77q93 0 169 -39q94 -49 94 -134q0 -70 -54 -128q-44 -49 -117 -82q18 -74 35 -147q27 -91 91 -91q32 0 74 54q28 40 57 80zM589 320q-9 13 -31 28q-6 -2 -10.5 -16t-4.5 -22q0 -3 1 -5q12 2 25 5q19 4 20 10zM513 351q-4 0 -8 4l-32 -8q-22 -7 -22 -24
q0 -7 9.5 -12.5t18.5 -5.5q11 0 22 18q9 15 12 28z" />
    <glyph glyph-name="S" unicode="S" horiz-adv-x="574" 
d="M566 646q0 -74 -131 -195q0 -12 29 -45q37 -44 51 -69q28 -46 28 -89q0 -79 -87 -172l-9 -2q-59 -30 -118 -59q-65 -29 -131 -29q-82 0 -143 47q-67 51 -67 131q0 64 48 104q45 37 110 37q21 0 60 -15q44 -18 45 -34q-34 -40 -97 -122q-13 49 -54 49q-24 0 -41.5 -17
t-17.5 -42q0 -45 50 -72q42 -23 89 -23q109 0 167 99q48 81 48 198q0 16 -1.5 45.5t-1.5 42.5l-5 6q-123 -69 -203 -69q-25 0 -71 17q-52 20 -52 39l7 11q25 9 56 44l46 56q34 -28 67 -57q25 -16 94 -16q19 0 49 15q3 2 22 58q20 64 46 99q39 52 95 52q8 0 15.5 -7.5
t7.5 -15.5zM520 615q0 13 -4 18h-18q-24 -15 -47 -55t-23 -68q0 -10 5 -15q31 18 57 51q30 38 30 69z" />
    <glyph glyph-name="T" unicode="T" horiz-adv-x="565" 
d="M693 656q-16 -45 -46 -133q-42 60 -75 83q-43 31 -109 31q-71 0 -124 -52.5t-53 -123.5q0 -34 33 -77q-69 -66 -100 -112h-11q-53 46 -53 125q0 148 123 220q101 59 266 59q25 0 51 -1q26 -6 82 -12zM562 568q0 -201 -99 -373q-116 -202 -300 -202q-36 0 -95 17
q-70 21 -71 46q30 46 90 141q48 -46 122 -46q126 0 213 101q74 86 102 219q6 43 26 123q12 -17 12 -26z" />
    <glyph glyph-name="U" unicode="U" horiz-adv-x="769" 
d="M769 177q0 -50 -66.5 -115t-119.5 -65q-69 0 -101 65q-25 51 -22 126l-5 3q-59 -92 -90 -125q-65 -72 -128 -72q-62 0 -104 54q-39 50 -39 114q0 97 56 185q19 28 116 141q72 83 94 150l-10 6q-86 -59 -134 -81q-76 -35 -151 -33q-29 1 -61 19l-14 16q-1 2 -1 4
q0 14 45 56q55 52 58 56q29 -74 113 -74q44 0 87 23q12 7 76 50l15 -20q-11 -58 -84 -208q-62 -129 -62 -215q0 -40 19 -65q22 -28 61 -28q88 0 147 139q37 107 74 213q18 41 59 104q52 77 75 77q18 0 18 -38q0 -72 -46 -170q-43 -91 -97 -148l-4 -37q0 -61 25 -107
q31 -56 87 -56q28 0 64 29q32 25 50 53v-26zM667 622q0 9 -12 15q-27 -12 -71 -120q-41 -102 -41 -140q0 -10 7 -13q36 31 76.5 120.5t40.5 137.5z" />
    <glyph glyph-name="V" unicode="V" horiz-adv-x="665" 
d="M673 358q0 -15 -18 -16q-26 -1 -29 -2l-66 -150q-43 -91 -96 -136q-69 -60 -171 -60q-83 0 -136.5 53t-53.5 137q0 89 59 180q23 36 116 144q69 81 82 130l-5 2q-71 -56 -117 -81q-71 -39 -136 -39q-69 0 -112 32q52 66 102 138q4 -34 39 -56q32 -20 69 -20q77 0 178 69
h11l4 -14q0 -16 -40 -91q-52 -101 -73 -152q-40 -97 -40 -162q0 -61 42.5 -100.5t103.5 -39.5q84 0 142 70q53 65 58 152q-75 57 -97 87q-36 49 -36 127q0 40 21 81q25 49 61 49q31 0 66 -53q32 -50 32 -84q4 -14 4 -45q0 12 -8 -141l25 -3l19 6v-12zM590 396q0 29 -17 67
q-20 44 -45 44q-8 0 -16.5 -7t-8.5 -15q0 -14 4.5 -27.5t29.5 -45.5q27 -35 38 -35h11q0 3 2 9t2 10z" />
    <glyph glyph-name="W" unicode="W" horiz-adv-x="733" 
d="M805 534q-16 -54 -16 -95q0 -6 -5 -15q-8 -5 -17 -10q-22 -17 -43 -41q-28 -31 -44 -62q-33 -63 -50 -150q-9 -48 -21 -156q-61 21 -102 286q-178 -195 -305 -283h-12l-4 8q55 58 93 141q40 89 40 164q0 209 -126 209q-31 0 -51 -16q-16 -12 -34 -43q-19 14 -54.5 53
t-57.5 55q35 52 102 83q63 28 130 28q91 0 148 -62t57 -154q0 -86 -28 -155q-14 -36 -54 -102q-34 -56 -42 -91q44 28 111.5 99.5t87.5 114.5q14 91 36 216q6 26 36 71q34 50 54 50q11 0 19 -22q6 -18 6 -31q0 -60 -34 -132q-18 -39 -69 -118q1 -22 25.5 -68.5t42.5 -61.5
q9 8 41 98q36 105 63 153q43 77 86 68zM596 534q0 7 -5 16.5t-12 9.5q-14 0 -25 -49q-8 -39 -8 -64q0 -19 6 -30q14 9 30 55q14 42 14 62z" />
    <glyph glyph-name="X" unicode="X" horiz-adv-x="751" 
d="M761 180q-24 -89 -106 -143q-70 -46 -138 -46q-93 0 -143 131q-37 97 -33 181q-116 -136 -142 -174q-80 -113 -80 -193q0 -13 2 -24q-49 -24 -118 -61v18q0 100 334 481q1 44 3 81q5 89 15 133l15 70q-75 -72 -120 -101q-76 -51 -146 -51q-37 0 -44 2q-22 3 -38 21
q65 72 95 129q25 -27 39 -33q11 -4 50 -4q57 0 107 31q44 33 89 66q-15 -163 -15 -168q0 -23 6 -58.5t6 -58.5q110 117 146 149q95 86 189 124q-22 -65 -24 -85l-4 -96q-21 6 -43 6q-114 0 -259 -141q13 -36 27 -72q30 -69 73 -108q59 -54 140 -47q38 3 63 19q16 10 47 44
q8 -18 7 -22z" />
    <glyph glyph-name="Y" unicode="Y" horiz-adv-x="737" 
d="M737 171q0 -3 -29 -44q-34 -50 -53 -91q-29 -63 -29 -118q0 -47 27 -96q-38 -32 -76 -63q-52 -47 -58 -73l-11 4q-48 85 -48 240q0 105 34 270q-47 -63 -94 -127q-61 -72 -134 -72q-63 0 -105 52q-39 49 -39 114q0 78 45 169q28 55 100 158t97 152l-9 15
q-77 -72 -121 -101q-75 -48 -147 -48q-51 0 -98 21v15q37 28 77 110q42 -53 99 -53t128 41.5t77 41.5l10 -4l4 -16q0 -36 -61.5 -194.5t-61.5 -220.5q0 -106 100 -106q80 0 143 125q10 20 96 247q55 146 108 175l4 -11q-152 -287 -152 -559q0 -129 31 -189q28 67 56 135
q34 74 90 133v-32z" />
    <glyph glyph-name="Z" unicode="Z" horiz-adv-x="585" 
d="M585 179l-52 -48q-28 -24 -60 -36q-9 -193 -133 -345q-36 -3 -123 -31q-81 -27 -111 -27q-71 0 -126 40q-62 43 -62 111q0 104 81 158q59 39 178 59l180 28q16 28 16 59q0 126 -51 129q-89 -66 -156 -66q-56 0 -56 21q0 54 73 79q50 16 120 16q32 0 65 62q32 57 32 94
q0 44 -31 70t-76 26q-43 0 -78 -36.5t-29 -79.5q-43 41 -132 121q93 115 264 115q72 0 123.5 -51t51.5 -122q0 -59 -40 -121q-37 -58 -90 -90q15 -22 48 -55q31 -29 42 -48q18 -32 20 -78l5 -6q29 6 59 31q3 3 48 49v-28zM290 299q-12 3 -36 3q-37 0 -68 -13
q-37 -15 -40 -42q-1 -10 30 -10q23 0 63.5 21t50.5 41zM354 55q-33 6 -29 6q-117 0 -221 -55q-126 -66 -126 -171q0 -45 33.5 -79t77.5 -34q73 0 265 333z" />
    <glyph glyph-name="bracketleft" unicode="[" horiz-adv-x="561" 
d="M515 438q0 -31 -64 -88q-42 -38 -104 -38q-63 0 -63 57q0 45 35 76.5t80 31.5q22 0 58 -13l58 -20v-6zM316 526q0 -20 -19 -64q-20 -48 -36 -48q-1 0 -9 5t-9 6q-11 0 -33 5q-28 13 -45 41t-17 59q0 50 29 85q4 4 69 61q24 -34 47 -69t23 -81zM239 315q0 -9 -16.5 -17.5
t-26.5 -8.5q-156 0 -178 146q-4 20 -12 62q24 -15 80 -32q60 -17 84 -30q42 -23 57 -62q1 -12 6 -40q0 -1 3 -9t3 -9zM502 3l-13 -7q-8 0 -59 35q-61 43 -109 65q-76 35 -147 35q-67 0 -99 -44q12 -24 53 -44t70 -20q57 0 95 23h9v-6q-46 -26 -47 -26q-26 -12 -51 -12
q-39 0 -90 23q-61 26 -62 61q-1 14 41 48.5t105 34.5q-10 0 111 -10q-15 37 -31 74q-17 45 -17 67q0 17 10 17q-7 0 38 -99q54 -120 193 -215z" />
    <glyph glyph-name="backslash" unicode="\" horiz-adv-x="176" 
d="M176 175q-66 -100 -156 -161q-47 -33 -82 -44l22 39q52 22 99 65.5t117 131.5v-31z" />
    <glyph glyph-name="bracketright" unicode="]" horiz-adv-x="561" 
d="M6 438q0 -31 63 -88q42 -38 104 -38q63 0 63 57q0 45 -34.5 76.5t-80.5 31.5q-21 0 -58 -13q-29 -10 -57 -20v-6zM205 526q0 -20 18 -64q21 -48 37 -48q1 0 8.5 5t9.5 6q10 0 33 5q27 13 44.5 41t17.5 59q0 50 -30 85q-4 4 -68 61q-25 -34 -47.5 -69t-22.5 -81zM282 315
q0 -9 16 -17.5t26 -8.5q156 0 178 146q5 20 13 62q-24 -15 -80 -32q-61 -17 -84 -30q-42 -23 -57 -62q-1 -12 -6 -40q0 -1 -3 -9t-3 -9zM19 3l13 -7q8 0 58 35q62 43 110 65q76 35 147 35q66 0 99 -44q-13 -24 -54 -44t-69 -20q-58 0 -96 23h-8v-6l46 -26q26 -12 51 -12
q40 0 91 23q60 26 62 61q1 14 -41.5 48.5t-105.5 34.5q10 0 -111 -10q16 37 31 74q18 45 18 67q0 17 -10 17q6 0 -39 -99q-54 -120 -192 -215z" />
    <glyph glyph-name="asciicircum" unicode="^" horiz-adv-x="331" 
d="M172 747l-133 -45l-12 14l160 94h1v0l3 -3l112 -89l-20 -14z" />
    <glyph glyph-name="underscore" unicode="_" horiz-adv-x="475" 
d="M-1 -109h476v-37h-476v37z" />
    <glyph glyph-name="grave" unicode="`" horiz-adv-x="247" 
d="M203 713l-138 93l-51 -45l173 -63z" />
    <glyph glyph-name="a" unicode="a" horiz-adv-x="487" 
d="M488 179q-23 -47 -68 -90q-51 -48 -91 -48q-41 0 -58 30q-12 33 -23 66q-43 -53 -54 -63q-34 -33 -72 -33q-44 0 -73 42q-27 39 -27 87q0 14 3 27l2 11q-7 -5 -30 -28q1 7 0 27q42 61 102 101q68 45 136 45q23 0 74 -15q-36 -54 -51 -85q-20 30 -22 32q-22 21 -61 21
q-35 0 -60 -25t-25 -59q0 -43 23 -68q24 -28 68 -27q34 1 65 46q17 24 51 93q29 61 47 80h15q4 0 4 -8q-50 -71 -50 -128q0 -31 19 -53.5t49 -22.5t61.5 21.5t45.5 49.5v-26z" />
    <glyph glyph-name="b" unicode="b" horiz-adv-x="416" 
d="M417 180q-23 -35 -75 -35q-11 0 -20 4l-6 -11q-46 -107 -121 -107q-118 0 -133 221q-25 -29 -62 -74v26q20 31 65 95q22 67 44 123q52 135 96 193q18 12 34 24q38 29 59 52q4 -21 4 -48q0 -133 -178 -316l-4 -34q0 -63 29 -113q35 -60 94 -60q29 0 51 31q-39 15 -66 44
q-35 37 -35 81q0 27 14.5 48.5t40.5 21.5q80 0 80 -140q0 -19 -2 -37l16 -2q41 0 75 37v-24zM229 562q0 5 -1.5 15t-1.5 14q-6 9 -12 0q-58 -108 -89 -224q32 19 69 90q35 68 35 105zM299 177v22q0 11 -18.5 34t-29.5 23q-15 0 -15 -15q0 -20 22 -40q19 -16 41 -24z" />
    <glyph glyph-name="c" unicode="c" horiz-adv-x="366" 
d="M366 180q-105 -140 -212 -140q-63 0 -96 45q-28 39 -28 104q0 2 2 11t1 13q-9 -6 -33 -35v24l32 44q46 61 92.5 86t119.5 25q35 0 54 -5q2 3 -44 -89q-35 53 -85 53q-34 0 -56.5 -26t-22.5 -60q0 -107 135 -104q62 1 141 79v-25z" />
    <glyph glyph-name="d" unicode="d" horiz-adv-x="504" 
d="M505 180q-6 -28 -40 -76q-45 -63 -85 -63q-78 0 -85 116q-21 -48 -37 -68q-41 -51 -104 -51q-120 0 -120 157v21q-11 -12 -34 -37v24q79 153 240 153q24 0 58 -15q-24 -53 -34 -81q-2 1 -38 36q-22 20 -49 20q-33 0 -52 -24.5t-19 -58.5q0 -41 26 -70t67 -29
q27 0 54 20.5t34 47.5q9 34 35 221q19 135 62 214q23 5 73 31q45 22 47 21l3 -2q-70 -87 -117 -192q-55 -121 -55 -215q0 -52 18 -89q23 -47 70 -47q35 0 82 61v-25z" />
    <glyph glyph-name="e" unicode="e" horiz-adv-x="346" 
d="M346 206v-26q0 -27 -64 -81q-71 -60 -130 -60q-61 0 -94 35q-29 33 -29 87q0 26 7 55q-23 -11 -36 -37v24q0 26 71 84q79 64 144 63q22 0 37 -13t15 -34q0 -77 -153 -124q13 -63 76 -63q101 0 156 90zM167 313q-27 0 -45 -36q-15 -29 -15 -59q0 -13 2 -19q29 4 57 28.5
t28 52.5q0 33 -27 33z" />
    <glyph glyph-name="f" unicode="f" horiz-adv-x="272" 
d="M-2 180v23q24 29 52 75q22 125 67 210q49 95 142 174q10 -9 10 -50q0 -169 -198 -365q-3 -17 -6 -48l-3 -91q35 83 98 125l-1 -18q-2 -52 44 -52q40 0 68 42v-22q-1 -22 -38.5 -45.5t-69.5 -21.5q-10 1 -31.5 7t-31.5 6q-17 0 -29 -42q-10 -33 -10 -57q0 -50 18 -101
q20 -58 55 -86q-74 -48 -111 -129q-17 30 -23 166q-4 87 19 221l24 122q-13 -13 -45 -43zM170 537q-20 -25 -51 -106q-29 -72 -34 -99l-8 -43q44 37 77 111.5t29 131.5q-1 11 -5 11q-3 0 -8 -6z" />
    <glyph glyph-name="g" unicode="g" horiz-adv-x="443" 
d="M0 179v25q1 25 72 83q79 64 141 69q18 1 45 -4q31 -7 42 -7q-15 -14 -25 -45q-5 -17 -10 -33q-43 52 -92 52q-34 0 -58.5 -26.5t-24.5 -61.5q0 -44 25 -76q27 -35 73 -35q82 1 107 84q14 72 28 143h8l-11 -292q32 25 70 72t53 79q1 -4 0 -27q-2 -36 -125 -158
q0 -45 -3 -83q-5 -92 -20 -136q-85 -37 -147 -81l-12 28q-9 23 -8 41q7 100 123 208q13 49 34 143q-46 -56 -60 -68q-39 -36 -84 -36q-59 0 -88 53q-24 45 -20 106l1 12q1 18 3 18q-20 -11 -37 -47zM159 -245q15 9 41 39q29 57 45 170q-34 -28 -64.5 -83.5t-30.5 -91.5
q0 -7 9 -34z" />
    <glyph glyph-name="h" unicode="h" horiz-adv-x="501" 
d="M315 37q-65 0 -65 70q0 47 63 118q68 77 72 96q-1 12 -11 12q-60 0 -120 -76q-47 -72 -95 -143q-56 -77 -106 -77q-42 0 -42 20q0 3 22 43q125 224 141 426q-52 -188 -173 -348v24q84 141 124 241.5t64 230.5l20 -2q0 -68 -7 -206q-7 -159 -15 -198l-7 -35
q113 119 202 117q23 0 23 -23q0 -11 -31 -69t-31 -85q0 -23 15.5 -39.5t39.5 -16.5q47 0 103 86v-22q-80 -144 -186 -144z" />
    <glyph glyph-name="i" unicode="i" horiz-adv-x="274" 
d="M213 472q-17 0 -28.5 10.5t-11.5 27.5q0 26 21 47t47 21q31 0 31 -43q0 -24 -18 -43.5t-41 -19.5zM113 38q-40 -4 -64 26q-22 27 -22 70q0 9 2.5 26t2.5 25t12 41q-12 -16 -45 -47l1 22q5 5 68 81q53 64 72 70q5 0 8.5 -3t1.5 -9q-5 -14 -32 -52q-20 -29 -20 -66
q0 -93 70 -93q37 0 66 26q15 14 40 51q1 -2 0 -25q-12 -26 -58 -74q-59 -65 -103 -69z" />
    <glyph glyph-name="j" unicode="j" horiz-adv-x="245" 
d="M245 182q-43 -70 -112 -117q-5 -67 -9 -134q-6 -76 -15 -125q-61 -33 -127 -97l-8 5q-9 24 -12 70q-5 105 109 260q8 11 22 114q14 100 13 122q0 16 -1 48q-43 -93 -105 -151l-1 26q70 82 108 161q3 9 10 9q8 0 10 -10q19 -125 5 -271q37 25 113 115v-25zM61 -12
q-35 -36 -58 -101t-20 -122q5 -8 12 -8t13 15q26 69 48 182q2 2 4.5 17t0.5 17zM125 474q-16 -1 -28 9t-13 27q-2 26 18 48t46 23q31 2 33 -41q1 -23 -15.5 -44t-40.5 -22z" />
    <glyph glyph-name="k" unicode="k" horiz-adv-x="483" 
d="M484 180q0 -37 -53 -90.5t-96 -53.5q-91 0 -88 152q1 33 -8 74q-16 70 -51 70q-4 0 -15 -79q-5 -42 -11 -85q-11 -49 -23 -99q-13 -31 -63 -31q-70 0 -60 26q26 53 73 160q6 16 31 110q27 104 27 123q0 1 4 32q3 27 1 29q-7 -24 -16 -52q-25 -78 -64 -164
q-44 -97 -72 -126v26q23 44 68 142q27 65 78 219q14 51 15 112q2 3 3 9q0 3 2 3t11 -5q5 -23 11 -99q4 -65 4 -79l-3 -149q49 37 142 63q90 25 153 22q-21 -35 -27 -62q-8 -31 -13 -41q-60 32 -125 32q-48 0 -93 -21q23 -9 38 -28q23 -27 36 -64q18 -52 26 -66
q28 -52 66 -52q50 0 92 66v-24z" />
    <glyph glyph-name="l" unicode="l" horiz-adv-x="322" 
d="M322 179q-20 -31 -42 -62t-47 -48q-49 -33 -83 -33q-105 0 -109 167q-3 3 2 27q-20 -33 -43 -53l1 26q21 27 60 98l42 120q31 84 86 172q18 10 51 31q12 9 51 51q16 -42 16 -51q0 -93 -90 -207q-66 -84 -108 -108q-5 -26 -5 -49q0 -53 21 -74q15 -19 26 -26
q22 -13 60 -12q59 2 111 60v-29zM220 539q0 19 0 18q-1 1 -4 9q-3 5 -6 5t-8 -7q-13 -11 -48 -89q-36 -83 -36 -108q0 -7 -6 -25q43 34 73 84q35 59 35 113z" />
    <glyph glyph-name="m" unicode="m" horiz-adv-x="726" 
d="M725 179q-112 -139 -169 -139q-33 0 -55.5 20.5t-22.5 45.5q0 49 49 112q65 84 69 93q-3 13 -12 13q-6 0 -28 -15q-70 -49 -124 -123q-30 -39 -59 -79q-52 -68 -68 -68q-14 0 -16 1.5t-5 12.5q24 16 47 60t26 79q2 29 -13.5 44.5t-41.5 15.5q-34 0 -97.5 -106.5
t-90.5 -106.5q-16 0 -16 11q0 3 13.5 21t16.5 25q27 55 27 86q0 78 -58 78q-42 0 -98 -84q-4 22 -2 29q11 39 63 91q57 57 101 57q48 0 69 -39q10 -19 16 -60q8 13 32 44q44 53 84 53q81 0 84 -102q54 53 80 73q40 31 72 31q33 0 31 -37q-1 -10 -36 -67t-35 -79
q0 -20 15 -34t30 -14q31 0 122 83v-26z" />
    <glyph glyph-name="n" unicode="n" horiz-adv-x="535" 
d="M408 353q33 0 31 -37q-1 -10 -36 -67t-35 -79q0 -20 15 -34t30 -14q31 0 122 83v-26q-112 -139 -169 -139q-33 0 -55.5 20.5t-22.5 45.5q0 49 49 112q65 84 69 93q-3 13 -12 13q-6 0 -28 -15q-70 -49 -124 -123q-30 -39 -59 -79q-52 -68 -68 -68q-17 0 -17 11
q0 3 13.5 21t16.5 25q27 55 27 86q0 78 -58 78q-42 0 -98 -84q-1 24 0 29q11 39 67 91q60 57 104 57q70 0 86 -104q53 53 80 74q40 30 72 30z" />
    <glyph glyph-name="o" unicode="o" horiz-adv-x="390" 
d="M390 181q-19 -19 -26 -24q-19 -13 -45 -15q-15 0 -31 7q-6 -13 -32 -41q-22 -25 -32 -32q-43 -34 -96 -34q-89 0 -102 106q-5 36 4 61q-6 -3 -31 -32v25q23 39 105 103q30 23 81 48l5.5 -2t5.5 -7q0 -6 -22 -21q-27 -18 -40 -35q-22 -29 -22 -70q0 -36 23 -64
q25 -32 62 -32q32 0 64 34q-33 19 -49 43q-21 33 -21 65q0 26 14 51q16 30 41 30q62 0 62 -107q0 -55 -11 -68q6 -6 28 -6q20 0 36 12q7 4 29 27v-22zM279 197q-6 50 -43 50q-6 0 -7 -3q-1 -2 0 -7q1 -7 1 -10q0 -14 29 -41q7 -7 12 -7q6 0 8 18z" />
    <glyph glyph-name="p" unicode="p" horiz-adv-x="506" 
d="M507 178q0 -36 -67 -88q-70 -56 -130 -51q-11 1 -24 7.5t-21 6.5q-9 0 -30 -5t-31 -5q-34 0 -63 22q-33 24 -33 57q0 26 22.5 43.5t49.5 17.5q43 0 73 -24l50 -50q11 4 22 25.5t11 34.5q0 33 -25.5 59t-57.5 26q-34 0 -61 -22l-18 48q-11 28 -29 42q6 10 44 21
q34 10 50 10q64 0 107.5 -35t43.5 -96q0 -34 -19.5 -70.5t-47.5 -60.5q16 -10 25 -10q43 0 93 45q42 38 66 83v-31zM232 582q-3 -13 -42 -100q-36 -82 -45 -124q-18 -68 -35 -136q-20 -82 -17 -150q3 -63 25 -119q26 -54 51 -109q-87 -42 -136 -106q-14 45 -14 130
q0 130 40 301q24 101 35 128l6 13q-24 -26 -99 -134l-3 26q0 13 34 58q22 28 44 57q32 48 72 134q51 109 67 139zM242 76l-24 24q-22 21 -45 21q-16 0 -16 -15q0 -13 16 -24t46 -11q15 0 23 5z" />
    <glyph glyph-name="q" unicode="q" horiz-adv-x="425" 
d="M425 183q0 -9 -35 -55q-46 -60 -66 -96q-36 -61 -36 -106q0 -32 9.5 -51.5t20.5 -40.5q-26 -7 -62 -40.5t-55 -65.5q-15 20 -15 72q0 53 17 149q17 101 37 156q-55 -68 -112 -68q-53 0 -81 35q-25 31 -25 78q0 44 20 79q-22 -15 -44 -51q0 24 2 26q112 142 234 142
q36 0 66 -10l-11 -17l-18 -38q-19 -41 -23 -59q-1 4 -4 11q-12 60 -75 60q-35 0 -57.5 -22.5t-22.5 -54.5q0 -36 22 -63t57 -27q36 0 67 32.5t48 83.5q15 36 46 111q3 2 7 2q11 0 11 -11q0 -3 -2 -6q-18 -47 -48 -138q-18 -64 -26 -118q-5 -82 2 -103q1 0 5 10.5t8 18.5
q31 58 139 198v-23z" />
    <glyph glyph-name="r" unicode="r" horiz-adv-x="323" 
d="M323 179q1 -14 -20 -44q-67 -95 -155 -95q-84 0 -84 76q0 43 25 84q18 29 77 96l6 13q-6 6 -14 4q-15 -7 -29 -14q-28 -12 -45 -12q-7 0 -12 2q-14 -34 -33 -63q-18 -25 -37 -50q-4 2 -2 27q13 20 25 41q18 29 23 50q-28 11 -35 32q40 14 66 51q11 -12 20 -21
q23 -23 38 -24q12 -2 32 7.5t21 9.5q8 0 13.5 -7t5.5 -14q0 -10 -26.5 -62.5t-26.5 -81.5q0 -27 16.5 -42.5t40.5 -15.5q55 0 101 60l9 20v-27z" />
    <glyph glyph-name="s" unicode="s" horiz-adv-x="340" 
d="M339 179q-6 -17 -41 -64q-42 -45 -99 -65q-38 -13 -88 -13q-32 0 -65 18q-37 20 -41 46q32 15 93 47q14 -19 40 -19q25 0 40.5 16.5t15.5 38.5q0 8 -6.5 25.5t-15.5 20.5q-27 -19 -62 -19q-28 0 -54 20q-17 -21 -56 -51v23q23 19 43 58l41 20q7 -1 10 -9l5 -17
q10 -19 35 -19q12 0 27 12q-21 29 -21 63q0 17 9 34q12 21 32 21t30.5 -17t10.5 -38q0 -20 -22 -60q56 -47 56 -88q0 -26 -3 -32q-7 -16 -15 -32q28 8 66 53q7 8 35 53v-26zM188 300l-8 8q-3 2 -10 -2q-2 -2 -2 -13q0 -18 17 -23q12 12 3 30z" />
    <glyph glyph-name="t" unicode="t" horiz-adv-x="310" 
d="M311 181q0 -41 -50.5 -92.5t-92.5 -51.5q-92 0 -92 149q0 31 5 58t13 71q-15 -26 -49 -74q-39 -53 -45 -63q-1 6 -1 27q41 60 57 85q39 65 55 116l-50 -10l5 20l53 10l69 162q21 1 65.5 19t46.5 18q2 -1 2 -2q-26 -26 -76 -110q-22 -37 -43 -74q58 22 125 21
q-17 -26 -20 -31q-9 -16 -11 -31q-15 6 -30 12.5t-34 6.5q-16 0 -42 -4q-20 -21 -37.5 -73t-17.5 -89q0 -118 88 -118q65 0 107 72v-24z" />
    <glyph glyph-name="u" unicode="u" horiz-adv-x="444" 
d="M444 181q0 -34 -52 -89t-94 -55q-39 0 -56 30q-4 7 -24 66q-10 -16 -30 -44q-38 -51 -94 -51q-30 0 -54 25.5t-24 55.5q0 18 8 48q10 38 12 47q-5 -6 -36 -35v25q18 21 51 64q18 26 36 51q24 31 35 32q7 -8 7 -14t-22 -46t-22 -78q0 -22 12 -44q16 -28 44 -31
q20 -2 49 13q25 20 65 89q1 2 56 104q3 5 6 5q11 0 11 -19q0 1 -20 -43.5t-20 -87.5q0 -33 17 -56q20 -26 51 -21q34 5 57 33q15 24 31 49v-23z" />
    <glyph glyph-name="v" unicode="v" horiz-adv-x="373" 
d="M373 180q-41 -35 -66 -35q-25 -7 -36 5q-59 -101 -135 -111q-41 0 -52 6q-35 16 -35 82q0 43 44 107.5t44 74.5q0 13 -12 13q-9 0 -17 -7q-52 -47 -69 -71q-27 -37 -39 -66q-1 5 -1 26q0 33 50 88t84 55q33 0 33 -34q0 -3 -19.5 -60.5t-19.5 -66.5q0 -24 17 -41t40 -17
q24 0 39 9q8 6 24 26q-21 15 -23 18q-11 13 -24 48q-6 16 -6 57q0 79 44 79q3 0 15 -5q22 -13 31 -53q9 -35 9 -62q0 -29 -11 -70q16 -12 35 -7q24 8 37 20l19 19q1 -8 0 -27zM263 215l-2 26q0 7 -9 20.5t-17 13.5q-12 0 -12 -22q0 -9 12 -31q13 -26 26 -32z" />
    <glyph glyph-name="w" unicode="w" horiz-adv-x="576" 
d="M576 181q-35 -48 -74 -48q-14 0 -31 4q-11 -18 -26 -42q-45 -57 -104 -57q-39 0 -66 26q-18 17 -43 61q-63 -87 -124 -87q-80 0 -80 112q0 32 7 61q-5 -3 -23 -21l-13 -11l1 24q5 5 66 77q54 64 64 68q6 2 10.5 -2.5t2.5 -11.5q-33 -58 -34 -59q-17 -35 -17 -65
q0 -82 79 -82q37 0 64 57q19 53 39 105q21 57 43 57q13 0 10 -15q-29 -50 -29 -91q0 -117 82 -119q37 -1 64 25q-75 52 -75 123q0 23 15.5 49.5t37.5 27.5q60 2 60 -127q0 -35 -4 -60q8 -6 29 -6q38 0 69 50v-23zM458 167q4 38 2 51q0 12 -11.5 25t-27.5 13q-17 -1 -17 -22
q0 -19 27 -46q13 -10 27 -21z" />
    <glyph glyph-name="x" unicode="x" horiz-adv-x="403" 
d="M403 181q-100 -144 -191 -143q-30 1 -67 35q-34 31 -47 64q-22 -40 -22 -96q-14 -3 -37 -21l-16 -16q-3 6 -2 12q1 11 1 14q20 67 70 131q-7 10 -11 53t-2 69q-33 -60 -79 -105q1 -2 1 25q49 60 91 159q5 -53 24 -107q9 -21 18 -43q113 132 190 183l-7 -29q-2 -11 -3 -93
l-10 1q-86 5 -154 -81q32 -64 91 -61q58 4 99 26q7 4 63 46v-23z" />
    <glyph glyph-name="y" unicode="y" horiz-adv-x="430" 
d="M430 178q0 -12 -40 -61q-56 -69 -74 -96q-39 -59 -39 -95q0 -26 37 -80q-71 -44 -113 -101q-19 53 -16 113q6 127 29 201l29 77q-84 -92 -135 -92q-33 0 -58 27.5t-25 61.5q0 30 22 83q-5 -3 -45 -38v25q55 48 115 148q6 5 11 5q10 0 6 -19q-13 -26 -27 -53
q-11 -23 -11 -59q0 -78 75 -78q47 0 91 79q30 61 60 123q8 4 12 4q9 0 7 -17q-82 -208 -82 -306q0 -32 3 -40q44 53 88 105q53 65 80 111v-28z" />
    <glyph glyph-name="z" unicode="z" horiz-adv-x="360" 
d="M360 182q0 -7 -53 -65q-58 -64 -65 -76q-78 39 -126 39q-42 0 -84 -39q-14 -7 -25 -1q20 56 106 123q98 77 121 111q-5 0 -50.5 -11t-77.5 -11q-14 0 -27 2q-14 2 -42 -30q-19 -22 -37 -44v26l116 154q42 -42 103 -42q24 0 56.5 17.5t30.5 17.5q5 0 5 -8q0 -33 -52 -85
q-30 -29 -153 -131q65 19 99 19q30 0 87 -15q30 28 68 72v-23z" />
    <glyph glyph-name="braceleft" unicode="{" horiz-adv-x="1101" 
d="M-2 301q0 -66 112 -101q79 -25 157 -25q86 0 180 28q60 19 133 53q61 28 67 28q18 0 68 -52q47 -49 54 -69q17 -46 19 -91h16q1 4 1 11q0 12 -5.5 36t-5.5 25q0 34 -46 87q-36 40 -74 67q34 18 106 82q77 67 103 104q9 -9 9 -27q0 -33 -62 -90q-10 -10 -79 -66l104 -70
q40 -35 40 -93q0 -9 5.5 -30.5t8.5 -24.5q6 3 8 24q3 30 4 35q24 98 131 172l11 10q-131 65 -166 194q-10 -19 -101 -105q-105 -98 -141 -98q2 0 -52 27q-64 31 -131 52q-95 31 -189 38q-79 6 -174 -27q-111 -40 -111 -104zM72 323q0 47 65 68q45 14 107 14
q84 0 197.5 -34.5t175.5 -81.5q-146 -80 -324 -80q-60 0 -125 22q-96 31 -96 92z" />
    <glyph glyph-name="bar" unicode="|" horiz-adv-x="319" 
d="M285 322q-52 26 -91.5 74t-53.5 103q-15 -54 -54.5 -103t-91.5 -74q117 -77 143 -201q29 133 148 201z" />
    <glyph glyph-name="braceright" unicode="}" horiz-adv-x="1101" 
d="M1063 301q0 -66 -112 -101q-79 -25 -157 -25q-86 0 -180 28q-60 19 -134 53q-60 28 -66 28q-19 0 -67.5 -50.5t-54.5 -70.5q-17 -46 -19 -91h-16q-2 4 -2 11q0 12 5.5 36t5.5 25q0 34 47 87q36 40 74 67q-34 18 -107 82q-76 67 -102 104q-9 -9 -9 -27q0 -33 61 -90
q11 -10 79 -66q-51 -35 -103 -70q-40 -35 -40 -93q0 -9 -5.5 -30.5t-8.5 -24.5q-6 3 -8 24q-3 30 -4 35q-25 98 -132 172l-10 10q131 65 166 194q10 -19 101 -105q105 -98 141 -98q-2 0 52 27q64 31 131 52q95 31 189 38q79 6 173 -27q112 -40 112 -104zM989 323
q0 47 -65 68q-45 14 -107 14q-84 0 -196 -34q-116 -35 -178 -82q146 -80 325 -80q60 0 125 22q96 31 96 92z" />
    <glyph glyph-name="asciitilde" unicode="~" horiz-adv-x="333" 
d="M69 739q-20 -8 -30 -25l-11 11q15 25 25 36q16 19 34 23t32 4q21 0 47 -13q40 -14 59 -14q11 0 24 2q18 8 23 10q14 8 19 15l10 -13q-14 -24 -23 -35q-18 -21 -38 -25q-42 -11 -78 7q-51 19 -73 19q-10 0 -20 -2z" />
    <glyph glyph-name="Adieresis" unicode="&#xc4;" horiz-adv-x="888" 
d="M831 753q0 17 12.5 29t29.5 12t29 -12t12 -29t-12 -29t-29 -12t-29.5 12t-12.5 29zM671 753q0 17 12.5 29t29.5 12t29 -12t12 -29t-12 -29t-29 -12t-29.5 12t-12.5 29zM889 174q-28 -28 -53 -49q-61 -50 -100 -56l40 -67q-103 6 -200 -15q-2 26 -9 79q-102 19 -150 56
q-126 -136 -264 -136q-108 0 -157 71l119 151q27 -75 125 -75q38 0 113 37q-97 80 -97 189q0 63 40 105.5t103 42.5q45 0 90 -42t52 -86q38 59 75 118q57 86 102 132q61 63 112 65q28 -7 26 -25q-73 -129 -105 -208q-50 -124 -50 -226t29 -146q76 20 159 111v-26zM832 669
q0 8 -8 9q6 -1 -14 -1q-34 0 -147.5 -155t-108.5 -188l25 -183l5 14q27 138 96 266q38 70 152 238zM490 310q-40 75 -111 71q-27 -2 -47.5 -29.5t-20.5 -54.5q0 -30 20.5 -62t47.5 -49q40 26 64 54q18 20 47 70zM561 89q-14 68 -35 148q-3 16 -11 33q-15 -37 -40 -72
l-40 -58q55 -38 126 -51z" />
    <glyph glyph-name="Aring" unicode="&#xc5;" horiz-adv-x="896" 
d="M815 719q-21 0 -36.5 15t-15.5 37q0 21 15.5 36.5t36.5 15.5q22 0 37.5 -15.5t15.5 -36.5q0 -22 -15.5 -37t-37.5 -15zM815 798q-27 0 -27 -27t27 -27q28 0 28 27t-28 27zM889 174q-28 -28 -53 -49q-61 -50 -100 -56l40 -67q-103 6 -200 -15q-2 26 -9 79q-102 19 -150 56
q-126 -136 -264 -136q-108 0 -157 71l119 151q27 -75 125 -75q38 0 113 37q-97 80 -97 189q0 63 40 105.5t103 42.5q45 0 90 -42t52 -86q38 59 75 118q57 86 102 132q61 63 112 65q28 -7 26 -25q-73 -129 -105 -208q-50 -124 -50 -226t29 -146q76 20 159 111v-26zM832 669
q0 8 -8 9q6 -1 -14 -1q-34 0 -147.5 -155t-108.5 -188l25 -183l5 14q27 138 96 266q38 70 152 238zM490 310q-40 75 -111 71q-27 -2 -47.5 -29.5t-20.5 -54.5q0 -30 20.5 -62t47.5 -49q40 26 64 54q18 20 47 70zM561 89q-14 68 -35 148q-3 16 -11 33q-15 -37 -40 -72
l-40 -58q55 -38 126 -51z" />
    <glyph glyph-name="Ccedilla" unicode="&#xc7;" horiz-adv-x="717" 
d="M607 663q0 17 -13 17q-25 0 -86 -37q-46 -29 -80 -56q-30 -25 -64 -70q-36 -49 -46 -83l39 7q64 12 154 87q96 79 96 135zM429 -210q-12 -6 -30 -6q-31 0 -39 9q-9 13 -24 33l23 17q13 -21 32 -21q30 0 39 37q3 6 3 11q0 15 -22 15q-13 0 -31 -6l17 55
q-90 15 -159.5 84.5t-76.5 156.5q-7 95 15 169q-17 -2 -35 -2q-115 0 -152 48q60 70 108 137q15 -41 34 -57q26 -24 87 -36q47 72 173 168q139 105 213 105q21 0 26 -7.5t5 -24.5q0 -80 -83 -158q-60 -55 -157 -105q-46 -21 -92 -41q-8 -49 -8 -65q0 -93 38 -152
q44 -68 132 -68q51 0 94 26q48 30 48 76q0 27 -18 52.5t-44 25.5q-43 0 -43 -37q0 -8 3 -17l-96 -55q-17 34 -16 63q4 105 131 105q58 0 100 -53t41 -118q-1 -98 -66 -160.5t-164 -62.5h-3l-6 -23q22 4 40 -13.5t15 -38.5q-2 -24 -9 -34q-10 -14 -43 -32z" />
    <glyph glyph-name="Eacute" unicode="&#xc9;" horiz-adv-x="530" 
d="M264 716l140 90l51 -45l-174 -63zM532 178q-28 -38 -79 -99q-53 -50 -114 -78q-57 -27 -103 -27q-84 0 -154 49q-82 57 -82 148q0 68 34 119t114 98q-8 17 -22 49q-8 18 -8 46q0 68 49 120t131 71q35 8 98 8q16 0 54 -8q52 -12 52 -27q0 -5 -25 -55q-34 -68 -40 -82
q-65 47 -135 47q-57 0 -93.5 -29t-36.5 -78q0 -44 18 -44q11 0 38.5 13t63.5 13q48 0 48 -33q0 -29 -33 -47q-25 -14 -49 -14q-5 0 -31 7t-30 7q-14 0 -35 -33q-9 -15 -16.5 -39.5t-7.5 -32.5q0 -76 56 -118q49 -37 118 -37q54 0 107 29q30 17 110 77q3 -3 3 -20zM317 396
q0 5 -8 13h-24q-18 0 -63 -35q13 -12 39 -12q56 0 56 34z" />
    <glyph glyph-name="Ntilde" unicode="&#xd1;" horiz-adv-x="765" 
d="M835 395q-100 -13 -143 -138q-29 -86 -29 -214q0 -12 9 -44q8 -28 5 -42l-9 -4q-106 114 -106 228q0 15 2 30l48 308q2 16 -4 43t-16 36q-5 -9 -5 -39q0 -116 -66 -253q-68 -140 -171 -231q-115 -101 -234 -101q-55 0 -72 3q-53 9 -85 44q73 103 114 185q38 -75 133 -75
q168 0 273 190q86 156 89 342h12q66 -63 66 -212q0 -48 -22 -139.5t-22 -133.5q0 -112 29 -140l8 3q-6 154 50 311q65 182 182 248q-23 -66 -29 -86q-9 -34 -9 -74q0 -19 2 -45zM659 719q-20 -8 -30 -25l-11 11q15 25 25 36q16 19 34 23t32 4q21 0 47 -13q40 -14 59 -14
q11 0 24 2q18 8 23 10q14 8 19 15l10 -13q-14 -24 -23 -35q-18 -21 -38 -25q-42 -11 -78 7q-51 19 -73 19q-10 0 -20 -2z" />
    <glyph glyph-name="Odieresis" unicode="&#xd6;" horiz-adv-x="610" 
d="M588 356q0 -144 -92 -256q-97 -120 -237 -120q-108 0 -184 84q-74 80 -74 189q0 112 60 221q65 118 163 157q12 7 34 18q63 31 115 31q66 0 85 -11l-7 -13l-27 4q-125 0 -213 -94t-88 -220q0 -107 57.5 -168t166.5 -61q80 0 140 58.5t60 137.5q0 57 -36 107
q-39 55 -94 55q-46 0 -49 -44q-35 55 -94 123q3 22 53 41q43 17 73 17q93 0 145 -85q43 -71 43 -171zM431 753q0 17 12.5 29t29.5 12t29 -12t12 -29t-12 -29t-29 -12t-29.5 12t-12.5 29zM271 753q0 17 12.5 29t29.5 12t29 -12t12 -29t-12 -29t-29 -12t-29.5 12t-12.5 29z
" />
    <glyph glyph-name="Udieresis" unicode="&#xdc;" horiz-adv-x="769" 
d="M571 753q0 17 12.5 29t29.5 12t29 -12t12 -29t-12 -29t-29 -12t-29.5 12t-12.5 29zM411 753q0 17 12.5 29t29.5 12t29 -12t12 -29t-12 -29t-29 -12t-29.5 12t-12.5 29zM769 177q0 -50 -66.5 -115t-119.5 -65q-69 0 -101 65q-25 51 -22 126l-5 3q-59 -92 -90 -125
q-65 -72 -128 -72q-62 0 -104 54q-39 50 -39 114q0 97 56 185q19 28 116 141q72 83 94 150l-10 6q-86 -59 -134 -81q-76 -35 -151 -33q-29 1 -61 19l-14 16q-1 2 -1 4q0 14 45 56q55 52 58 56q29 -74 113 -74q44 0 87 23q12 7 76 50l15 -20q-11 -58 -84 -208
q-62 -129 -62 -215q0 -40 19 -65q22 -28 61 -28q88 0 147 139q37 107 74 213q18 41 59 104q52 77 75 77q18 0 18 -38q0 -72 -46 -170q-43 -91 -97 -148l-4 -37q0 -61 25 -107q31 -56 87 -56q28 0 64 29q32 25 50 53v-26zM667 622q0 9 -12 15q-27 -12 -71 -120
q-41 -102 -41 -140q0 -10 7 -13q36 31 76.5 120.5t40.5 137.5z" />
    <glyph glyph-name="aacute" unicode="&#xe1;" horiz-adv-x="490" 
d="M490 179q-24 -47 -68 -90q-51 -48 -91 -48q-41 0 -58 30l-24 66q-42 -53 -53 -63q-35 -33 -73 -33q-43 0 -72 42q-27 39 -27 87q0 14 3 27l1 11q-7 -5 -29 -28q1 7 0 27q42 61 102 101q68 45 135 45q24 0 75 -15q-36 -54 -51 -85q-20 30 -23 32q-22 21 -60 21
q-35 0 -60 -25t-25 -59q0 -43 23 -68q24 -28 68 -27q33 1 65 46q17 24 50 93q30 61 48 80h15q4 0 4 -8q-51 -71 -51 -128q0 -31 19 -53.5t49 -22.5q31 0 62 21.5t46 49.5v-26zM204 396l140 90l51 -45l-174 -63z" />
    <glyph glyph-name="agrave" unicode="&#xe0;" horiz-adv-x="490" 
d="M490 179q-24 -48 -68 -91q-51 -50 -91 -50q-41 0 -58 32q-12 34 -24 67q-42 -53 -53 -63q-35 -33 -73 -33q-50 0 -76 38q-23 33 -23 83q0 28 7 52l-32 -34q1 7 0 27q42 61 102 101q68 44 135 44q43 0 75 -14q-36 -54 -51 -85q-20 30 -23 32q-22 21 -60 21q-35 0 -60 -25
t-25 -59q0 -43 23 -68q24 -28 68 -27q33 1 65 46q17 24 50 93q30 61 48 80q19 -9 19 -8q-51 -71 -51 -128q0 -31 19 -53.5t49 -22.5q31 0 62 21.5t46 49.5v-26zM363 403l-138 93l-51 -45l173 -63z" />
    <glyph glyph-name="acircumflex" unicode="&#xe2;" horiz-adv-x="490" 
d="M490 179q-24 -47 -68 -90q-51 -48 -91 -48q-41 0 -58 30l-24 66q-42 -53 -53 -63q-35 -33 -73 -33q-43 0 -72 42q-27 39 -27 87q0 14 3 27l1 11q-7 -5 -29 -28q1 7 0 27q42 61 102 101q68 45 135 45q24 0 75 -15q-36 -54 -51 -85q-20 30 -23 32q-22 21 -60 21
q-35 0 -60 -25t-25 -59q0 -43 23 -68q24 -28 68 -27q33 1 65 46q17 24 50 93q30 61 48 80h15q4 0 4 -8q-51 -71 -51 -128q0 -31 19 -53.5t49 -22.5q31 0 62 21.5t46 49.5v-26zM292 427l-133 -45l-12 14l160 94h1v0l3 -3l112 -89l-20 -14z" />
    <glyph glyph-name="adieresis" unicode="&#xe4;" horiz-adv-x="490" 
d="M490 179q-24 -47 -68 -90q-51 -48 -91 -48q-41 0 -58 30l-24 66q-42 -53 -53 -63q-35 -33 -73 -33q-43 0 -72 42q-27 39 -27 87q0 14 3 27l1 11q-7 -5 -29 -28q1 7 0 27q42 61 102 101q68 45 135 45q24 0 75 -15q-36 -54 -51 -85q-20 30 -23 32q-22 21 -60 21
q-35 0 -60 -25t-25 -59q0 -43 23 -68q24 -28 68 -27q33 1 65 46q17 24 50 93q30 61 48 80h15q4 0 4 -8q-51 -71 -51 -128q0 -31 19 -53.5t49 -22.5q31 0 62 21.5t46 49.5v-26zM311 433q0 17 12.5 29t29.5 12t29 -12t12 -29t-12 -29t-29 -12t-29.5 12t-12.5 29zM181 433
q0 17 12.5 29t29.5 12t29 -12t12 -29t-12 -29t-29 -12t-29.5 12t-12.5 29z" />
    <glyph glyph-name="atilde" unicode="&#xe3;" horiz-adv-x="490" 
d="M490 179q-24 -47 -68 -90q-51 -48 -91 -48q-41 0 -58 30l-24 66q-42 -53 -53 -63q-35 -33 -73 -33q-43 0 -72 42q-27 39 -27 87q0 14 3 27l1 11q-7 -5 -29 -28q1 7 0 27q42 61 102 101q68 45 135 45q24 0 75 -15q-36 -54 -51 -85q-20 30 -23 32q-22 21 -60 21
q-35 0 -60 -25t-25 -59q0 -43 23 -68q24 -28 68 -27q33 1 65 46q17 24 50 93q30 61 48 80h15q4 0 4 -8q-51 -71 -51 -128q0 -31 19 -53.5t49 -22.5q31 0 62 21.5t46 49.5v-26zM179 419q-20 -8 -30 -25l-11 11q15 25 25 36q16 19 34 23t32 4q21 0 47 -13q40 -14 59 -14
q11 0 24 2q18 8 23 10q14 8 19 15l10 -13q-14 -24 -23 -35q-18 -21 -38 -25q-42 -11 -78 7q-51 19 -73 19q-10 0 -20 -2z" />
    <glyph glyph-name="aring" unicode="&#xe5;" horiz-adv-x="490" 
d="M490 179q-24 -47 -68 -90q-51 -48 -91 -48q-41 0 -58 30l-24 66q-42 -53 -53 -63q-35 -33 -73 -33q-43 0 -72 42q-27 39 -27 87q0 14 3 27l1 11q-7 -5 -29 -28q1 7 0 27q42 61 102 101q68 45 135 45q24 0 75 -15q-36 -54 -51 -85q-20 30 -23 32q-22 21 -60 21
q-35 0 -60 -25t-25 -59q0 -43 23 -68q24 -28 68 -27q33 1 65 46q17 24 50 93q30 61 48 80h15q4 0 4 -8q-51 -71 -51 -128q0 -31 19 -53.5t49 -22.5q31 0 62 21.5t46 49.5v-26zM295 389q-21 0 -36.5 15t-15.5 37q0 21 15.5 36.5t36.5 15.5q22 0 37.5 -15.5t15.5 -36.5
q0 -22 -15.5 -37t-37.5 -15zM295 468q-27 0 -27 -27t27 -27q28 0 28 27t-28 27z" />
    <glyph glyph-name="ccedilla" unicode="&#xe7;" horiz-adv-x="366" 
d="M163 -62q-11 -6 -28 -4q-16 1 -20 6q-7 9 -17 23l16 12q9 -15 22 -15q21 0 28 26q2 4 2 8q0 10 -16 10q-8 0 -21 -4l12 41q-57 4 -86 48q-25 39 -25 100q0 2 2 11t1 13q-9 -6 -33 -35v24l32 44q46 61 92.5 86t119.5 25q35 0 54 -5l-2 -4q-2 -3 -42 -85q-35 53 -85 53
q-34 0 -56.5 -26t-22.5 -60q0 -107 135 -104q62 1 141 79v-25q-99 -132 -200 -139l-6 -20q16 2 28.5 -10.5t11.5 -26.5q-2 -17 -7 -24q-7 -10 -30 -22z" />
    <glyph glyph-name="eacute" unicode="&#xe9;" horiz-adv-x="346" 
d="M346 206v-26q0 -27 -64 -81q-71 -60 -130 -60q-61 0 -94 35q-29 33 -29 87q0 26 7 55q-23 -11 -36 -37v24q0 26 71 84q79 64 144 63q22 0 37 -13t15 -34q0 -77 -153 -124q13 -63 76 -63q101 0 156 90zM167 313q-27 0 -45 -36q-15 -29 -15 -59q0 -13 2 -19q29 4 57 28.5
t28 52.5q0 33 -27 33zM134 396l140 90l51 -45l-174 -63z" />
    <glyph glyph-name="egrave" unicode="&#xe8;" horiz-adv-x="346" 
d="M346 206v-26q0 -27 -64 -81q-71 -60 -130 -60q-61 0 -94 35q-29 33 -29 87q0 26 7 55q-23 -11 -36 -37v24q0 26 71 84q79 64 144 63q22 0 37 -13t15 -34q0 -77 -153 -124q13 -63 76 -63q101 0 156 90zM167 313q-27 0 -45 -36q-15 -29 -15 -59q0 -13 2 -19q29 4 57 28.5
t28 52.5q0 33 -27 33zM323 403l-138 93l-51 -45l173 -63z" />
    <glyph glyph-name="ecircumflex" unicode="&#xea;" horiz-adv-x="346" 
d="M346 206v-26q0 -27 -64 -81q-71 -60 -130 -60q-61 0 -94 35q-29 33 -29 87q0 26 7 55q-23 -11 -36 -37v24q0 26 71 84q79 64 144 63q22 0 37 -13t15 -34q0 -77 -153 -124q13 -63 76 -63q101 0 156 90zM167 313q-27 0 -45 -36q-15 -29 -15 -59q0 -13 2 -19q29 4 57 28.5
t28 52.5q0 33 -27 33zM222 427l-133 -45l-12 14l160 94h1v0l3 -3l112 -89l-20 -14z" />
    <glyph glyph-name="edieresis" unicode="&#xeb;" horiz-adv-x="346" 
d="M346 206v-26q0 -27 -64 -81q-71 -60 -130 -60q-61 0 -94 35q-29 33 -29 87q0 26 7 55q-23 -11 -36 -37v24q0 26 71 84q79 64 144 63q22 0 37 -13t15 -34q0 -77 -153 -124q13 -63 76 -63q101 0 156 90zM167 313q-27 0 -45 -36q-15 -29 -15 -59q0 -13 2 -19q29 4 57 28.5
t28 52.5q0 33 -27 33zM281 443q0 17 12.5 29t29.5 12t29 -12t12 -29t-12 -29t-29 -12t-29.5 12t-12.5 29zM151 443q0 17 12.5 29t29.5 12t29 -12t12 -29t-12 -29t-29 -12t-29.5 12t-12.5 29z" />
    <glyph glyph-name="iacute" unicode="&#xed;" horiz-adv-x="274" 
d="M113 38q-40 -4 -64 26q-22 27 -22 70q0 9 2.5 26t2.5 25t12 41q-12 -16 -45 -47l1 22q5 5 68 81q53 64 72 70q5 0 8.5 -3t1.5 -9q-5 -14 -32 -52q-20 -29 -20 -66q0 -93 70 -93q37 0 66 26q15 14 40 51q1 -2 0 -25q-12 -26 -58 -74q-59 -65 -103 -69zM74 396l140 90
l51 -45l-174 -63z" />
    <glyph glyph-name="igrave" unicode="&#xec;" horiz-adv-x="274" 
d="M113 38q-40 -4 -64 26q-22 27 -22 70q0 9 2.5 26t2.5 25t12 41q-12 -16 -45 -47l1 22q5 5 68 81q53 64 72 70q5 0 8.5 -3t1.5 -9q-5 -14 -32 -52q-20 -29 -20 -66q0 -93 70 -93q37 0 66 26q15 14 40 51q1 -2 0 -25q-12 -26 -58 -74q-59 -65 -103 -69zM293 403l-138 93
l-51 -45l173 -63z" />
    <glyph glyph-name="icircumflex" unicode="&#xee;" horiz-adv-x="274" 
d="M113 38q-40 -4 -64 26q-22 27 -22 70q0 9 2.5 26t2.5 25t12 41q-12 -16 -45 -47l1 22q5 5 68 81q53 64 72 70q5 0 8.5 -3t1.5 -9q-5 -14 -32 -52q-20 -29 -20 -66q0 -93 70 -93q37 0 66 26q15 14 40 51q1 -2 0 -25q-12 -26 -58 -74q-59 -65 -103 -69zM162 427l-133 -45
l-12 14l160 94h1v0l3 -3l112 -89l-20 -14z" />
    <glyph glyph-name="idieresis" unicode="&#xef;" horiz-adv-x="274" 
d="M113 38q-40 -4 -64 26q-22 27 -22 70q0 9 2.5 26t2.5 25t12 41q-12 -16 -45 -47l1 22q5 5 68 81q53 64 72 70q5 0 8.5 -3t1.5 -9q-5 -14 -32 -52q-20 -29 -20 -66q0 -93 70 -93q37 0 66 26q15 14 40 51q1 -2 0 -25q-12 -26 -58 -74q-59 -65 -103 -69zM201 433
q0 17 12.5 29t29.5 12t29 -12t12 -29t-12 -29t-29 -12t-29.5 12t-12.5 29zM71 433q0 17 12.5 29t29.5 12t29 -12t12 -29t-12 -29t-29 -12t-29.5 12t-12.5 29z" />
    <glyph glyph-name="ntilde" unicode="&#xf1;" horiz-adv-x="535" 
d="M408 353q33 0 31 -37q-1 -10 -36 -67t-35 -79q0 -20 15 -34t30 -14q31 0 122 83v-26q-112 -139 -169 -139q-33 0 -55.5 20.5t-22.5 45.5q0 49 49 112q65 84 69 93q-3 13 -12 13q-6 0 -28 -15q-70 -49 -124 -123q-30 -39 -59 -79q-52 -68 -68 -68q-17 0 -17 11
q0 3 13.5 21t16.5 25q27 55 27 86q0 78 -58 78q-42 0 -98 -84q-1 24 0 29q11 39 67 91q60 57 104 57q70 0 86 -104q53 53 80 74q40 30 72 30zM179 419q-20 -8 -30 -25l-11 11q15 25 25 36q16 19 34 23t32 4q21 0 47 -13q40 -14 59 -14q11 0 24 2q18 8 23 10q14 8 19 15
l10 -13q-14 -24 -23 -35q-18 -21 -38 -25q-42 -11 -78 7q-51 19 -73 19q-10 0 -20 -2z" />
    <glyph glyph-name="oacute" unicode="&#xf3;" horiz-adv-x="390" 
d="M390 181q-19 -19 -26 -24q-19 -13 -45 -15q-15 0 -31 7q-6 -13 -32 -41q-22 -25 -32 -32q-43 -34 -96 -34q-89 0 -102 106q-5 36 4 61q-6 -3 -31 -32v25q23 39 105 103q30 23 81 48l5.5 -2t5.5 -7q0 -6 -22 -21q-27 -18 -40 -35q-22 -29 -22 -70q0 -36 23 -64
q25 -32 62 -32q32 0 64 34q-33 19 -49 43q-21 33 -21 65q0 26 14 51q16 30 41 30q62 0 62 -107q0 -55 -11 -68q6 -6 28 -6q20 0 36 12q7 4 29 27v-22zM279 197q-6 50 -43 50q-6 0 -7 -3q-1 -2 0 -7q1 -7 1 -10q0 -14 29 -41q7 -7 12 -7q6 0 8 18zM144 396l140 90l51 -45
l-174 -63z" />
    <glyph glyph-name="ograve" unicode="&#xf2;" horiz-adv-x="390" 
d="M390 181q-19 -19 -26 -24q-19 -13 -45 -15q-15 0 -31 7q-6 -13 -32 -41q-22 -25 -32 -32q-43 -34 -96 -34q-89 0 -102 106q-5 36 4 61q-6 -3 -31 -32v25q23 39 105 103q30 23 81 48l5.5 -2t5.5 -7q0 -6 -22 -21q-27 -18 -40 -35q-22 -29 -22 -70q0 -36 23 -64
q25 -32 62 -32q32 0 64 34q-33 19 -49 43q-21 33 -21 65q0 26 14 51q16 30 41 30q62 0 62 -107q0 -55 -11 -68q6 -6 28 -6q20 0 36 12q7 4 29 27v-22zM279 197q-6 50 -43 50q-6 0 -7 -3q-1 -2 0 -7q1 -7 1 -10q0 -14 29 -41q7 -7 12 -7q6 0 8 18zM343 403l-138 93l-51 -45
l173 -63z" />
    <glyph glyph-name="ocircumflex" unicode="&#xf4;" horiz-adv-x="390" 
d="M390 181q-19 -19 -26 -24q-19 -13 -45 -15q-15 0 -31 7q-6 -13 -32 -41q-22 -25 -32 -32q-43 -34 -96 -34q-89 0 -102 106q-5 36 4 61q-6 -3 -31 -32v25q23 39 105 103q30 23 81 48l5.5 -2t5.5 -7q0 -6 -22 -21q-27 -18 -40 -35q-22 -29 -22 -70q0 -36 23 -64
q25 -32 62 -32q32 0 64 34q-33 19 -49 43q-21 33 -21 65q0 26 14 51q16 30 41 30q62 0 62 -107q0 -55 -11 -68q6 -6 28 -6q20 0 36 12q7 4 29 27v-22zM279 197q-6 50 -43 50q-6 0 -7 -3q-1 -2 0 -7q1 -7 1 -10q0 -14 29 -41q7 -7 12 -7q6 0 8 18zM222 427l-133 -45l-12 14
l160 94h1v0l3 -3l112 -89l-20 -14z" />
    <glyph glyph-name="odieresis" unicode="&#xf6;" horiz-adv-x="390" 
d="M390 181q-19 -19 -26 -24q-19 -13 -45 -15q-15 0 -31 7q-6 -13 -32 -41q-22 -25 -32 -32q-43 -34 -96 -34q-89 0 -102 106q-5 36 4 61q-6 -3 -31 -32v25q23 39 105 103q30 23 81 48l5.5 -2t5.5 -7q0 -6 -22 -21q-27 -18 -40 -35q-22 -29 -22 -70q0 -36 23 -64
q25 -32 62 -32q32 0 64 34q-33 19 -49 43q-21 33 -21 65q0 26 14 51q16 30 41 30q62 0 62 -107q0 -55 -11 -68q6 -6 28 -6q20 0 36 12q7 4 29 27v-22zM279 197q-6 50 -43 50q-6 0 -7 -3q-1 -2 0 -7q1 -7 1 -10q0 -14 29 -41q7 -7 12 -7q6 0 8 18zM271 433q0 17 12.5 29
t29.5 12t29 -12t12 -29t-12 -29t-29 -12t-29.5 12t-12.5 29zM141 433q0 17 12.5 29t29.5 12t29 -12t12 -29t-12 -29t-29 -12t-29.5 12t-12.5 29z" />
    <glyph glyph-name="otilde" unicode="&#xf5;" horiz-adv-x="390" 
d="M390 181q-19 -19 -26 -24q-19 -13 -45 -15q-15 0 -31 7q-6 -13 -32 -41q-22 -25 -32 -32q-43 -34 -96 -34q-89 0 -102 106q-5 36 4 61q-6 -3 -31 -32v25q23 39 105 103q30 23 81 48l5.5 -2t5.5 -7q0 -6 -22 -21q-27 -18 -40 -35q-22 -29 -22 -70q0 -36 23 -64
q25 -32 62 -32q32 0 64 34q-33 19 -49 43q-21 33 -21 65q0 26 14 51q16 30 41 30q62 0 62 -107q0 -55 -11 -68q6 -6 28 -6q20 0 36 12q7 4 29 27v-22zM279 197q-6 50 -43 50q-6 0 -7 -3q-1 -2 0 -7q1 -7 1 -10q0 -14 29 -41q7 -7 12 -7q6 0 8 18zM149 419q-20 -8 -30 -25
l-11 11q15 25 25 36q16 19 34 23t32 4q21 0 47 -13q40 -14 59 -14q11 0 24 2q18 8 23 10q14 8 19 15l10 -13q-14 -24 -23 -35q-18 -21 -38 -25q-42 -11 -78 7q-51 19 -73 19q-10 0 -20 -2z" />
    <glyph glyph-name="uacute" unicode="&#xfa;" horiz-adv-x="444" 
d="M444 181q0 -34 -52 -89t-94 -55q-39 0 -56 30q-4 7 -24 66q-10 -16 -30 -44q-38 -51 -94 -51q-30 0 -54 25.5t-24 55.5q0 18 8 48q10 38 12 47q-5 -6 -36 -35v25q18 21 51 64q18 26 36 51q24 31 35 32q7 -8 7 -14t-22 -46t-22 -78q0 -22 12 -44q16 -28 44 -31
q20 -2 49 13q25 20 65 89q1 2 56 104q3 5 6 5q11 0 11 -19q0 1 -20 -43.5t-20 -87.5q0 -33 17 -56q20 -26 51 -21q34 5 57 33q15 24 31 49v-23zM134 396l140 90l51 -45l-174 -63z" />
    <glyph glyph-name="ugrave" unicode="&#xf9;" horiz-adv-x="444" 
d="M444 181q0 -34 -52 -89t-94 -55q-39 0 -56 30q-4 7 -24 66q-10 -16 -30 -44q-38 -51 -94 -51q-30 0 -54 25.5t-24 55.5q0 18 8 48q10 38 12 47q-5 -6 -36 -35v25q18 21 51 64q18 26 36 51q24 31 35 32q7 -8 7 -14t-22 -46t-22 -78q0 -22 12 -44q16 -28 44 -31
q20 -2 49 13q25 20 65 89q1 2 56 104q3 5 6 5q11 0 11 -19q0 1 -20 -43.5t-20 -87.5q0 -33 17 -56q20 -26 51 -21q34 5 57 33q15 24 31 49v-23zM323 403l-138 93l-51 -45l173 -63z" />
    <glyph glyph-name="ucircumflex" unicode="&#xfb;" horiz-adv-x="444" 
d="M444 181q0 -34 -52 -89t-94 -55q-39 0 -56 30q-4 7 -24 66q-10 -16 -30 -44q-38 -51 -94 -51q-30 0 -54 25.5t-24 55.5q0 18 8 48q10 38 12 47q-5 -6 -36 -35v25q18 21 51 64q18 26 36 51q24 31 35 32q7 -8 7 -14t-22 -46t-22 -78q0 -22 12 -44q16 -28 44 -31
q20 -2 49 13q25 20 65 89q1 2 56 104q3 5 6 5q11 0 11 -19q0 1 -20 -43.5t-20 -87.5q0 -33 17 -56q20 -26 51 -21q34 5 57 33q15 24 31 49v-23zM242 427l-133 -45l-12 14l160 94h1v0l3 -3l112 -89l-20 -14z" />
    <glyph glyph-name="udieresis" unicode="&#xfc;" horiz-adv-x="444" 
d="M444 181q0 -34 -52 -89t-94 -55q-39 0 -56 30q-4 7 -24 66q-10 -16 -30 -44q-38 -51 -94 -51q-30 0 -54 25.5t-24 55.5q0 18 8 48q10 38 12 47q-5 -6 -36 -35v25q18 21 51 64q18 26 36 51q24 31 35 32q7 -8 7 -14t-22 -46t-22 -78q0 -22 12 -44q16 -28 44 -31
q20 -2 49 13q25 20 65 89q1 2 56 104q3 5 6 5q11 0 11 -19q0 1 -20 -43.5t-20 -87.5q0 -33 17 -56q20 -26 51 -21q34 5 57 33q15 24 31 49v-23zM261 433q0 17 12.5 29t29.5 12t29 -12t12 -29t-12 -29t-29 -12t-29.5 12t-12.5 29zM131 433q0 17 12.5 29t29.5 12t29 -12
t12 -29t-12 -29t-29 -12t-29.5 12t-12.5 29z" />
    <glyph glyph-name="dagger" unicode="&#x2020;" horiz-adv-x="800" 
d="M791 180q1 -6 -24 -35q-70 -81 -132 -99q-15 -4 -26 -4q-59 0 -59 72q0 28 -1 26q2 9 18 42q0 1 7.5 6t7.5 9q0 14 41 61t41 62q0 11 -5 13q1 -1 -9 -1q-36 0 -95 -62q-51 -54 -65 -87q-16 -37 -47 -105q-17 -33 -70 -33q-25 0 -53 11v10q0 3 12 22q15 23 19 30
q42 81 80 197q4 13 12 52t8 44v9l-6 5q-7 1 -13 -15q-98 -259 -231 -348q-15 -10 -52 -10q-87 0 -87 119l5 47.5t5 72.5q-23 -37 -70 -108q-7 4 -7 17q0 9 52 103q31 55 63 110q-14 13 -37 15q-38 5 -43.5 8t-5.5 8q0 10 10 17.5t13 7.5q4 0 35.5 -6t35.5 -6q11 0 14 3
q9 10 30 59q0 1 12 42q8 25 20 36q17 14 57 26q54 15 67 21q-109 -114 -145 -192q4 -2 23 -2q34 0 136 19q89 16 101 20q1 1 7 11q11 38 26 108q2 26 8 78h11q6 -32 9 -88q5 -80 5 -88q1 -3 5 -9q54 11 152 24q87 11 96 11h23q4 0 4 -8q0 -6 -42.5 -62.5t-48.5 -56.5
q-3 0 -22 7t-26 8q-75 12 -133 10q-6 -6 -8 -20q-5 -62 -14 -187q32 36 91 91q54 40 93 40q13 0 27 -13q1 -28 -25 -83t-26 -80q0 -22 19 -36q14 -11 29 -11q14 0 33 13q26 18 65 63v-31zM415 428h-45q-1 0 -70 -6q-72 -6 -107 -6q-46 0 -38 1q-11 -8 -23.5 -57.5
t-12.5 -76.5q0 -45 18 -79q23 -44 70 -44q53 0 101 58q35 42 69 118z" />
    <glyph glyph-name="degree" unicode="&#xb0;" horiz-adv-x="244" 
d="M119 685q38 0 65.5 -27.5t27.5 -65.5q0 -39 -27.5 -66t-65.5 -27q-39 0 -66 27t-27 66q0 38 27 65.5t66 27.5zM119 655q-26 0 -44.5 -18.5t-18.5 -44.5t18.5 -44.5t44.5 -18.5t44.5 18.5t18.5 44.5t-18.5 44.5t-44.5 18.5z" />
    <glyph glyph-name="cent" unicode="&#xa2;" horiz-adv-x="366" 
d="M155 195l19 181h-5q-34 0 -56.5 -26t-22.5 -60q0 -72 65 -95zM184 470h26l-6 -55q19 2 40 2q35 0 54 -5l-2 -4q-2 -3 -42 -85q-21 32 -55 46l-18 -180q20 -4 44 -3q56 1 74 23v-24q-16 -22 -35 -38q-44 -40 -92 -46l-6 -52h-26l6 51q-60 3 -90 48q-26 38 -26 101
q0 24 4 37q10 19 21 39q18 30 42 49q33 26 81 37z" />
    <glyph glyph-name="sterling" unicode="&#xa3;" horiz-adv-x="446" 
d="M407 144q-11 -18 -56 -122q-35 28 -73 38q-29 7 -83 7q-44 0 -112.5 -19.5t-83.5 -19.5l-3 4v15q39 14 96.5 78.5t57.5 102.5q0 11 -70 87q-40 1 -55 0v32q34 -1 52 0q-3 13 -3 31q0 88 51 157q68 92 200 92q16 0 38.5 -7t30.5 -17l-79 -124q0 37 -22 62t-58 25
q-32 0 -56 -27q-27 -28 -24 -65q1 -35 32 -64q43 -41 56 -63q23 -3 70 0v-32q-45 1 -66 0q-27 -59 -55 -118q-25 -46 -90 -103l5 -5q59 22 118.5 42t112.5 20q33 0 69 -7z" />
    <glyph glyph-name="section" unicode="&#xa7;" 
 />
    <glyph glyph-name="bullet" unicode="&#x2022;" horiz-adv-x="358" 
d="M1 350q0 60 43 103.5t104 43.5t104 -43.5t43 -103.5q0 -61 -43 -104t-104 -43t-104 43t-43 104z" />
    <glyph glyph-name="paragraph" unicode="&#xb6;" horiz-adv-x="667" 
d="M564 -182h-75v864h-106v-864h-76v512q-101 0 -175 53q-83 59 -83 156q0 62 33 114.5t90.5 78.5t175.5 26h296v-76h-80v-864z" />
    <glyph glyph-name="germandbls" unicode="&#xdf;" horiz-adv-x="510" 
d="M170 537q-20 -25 -51 -106q-29 -72 -34 -99l-8 -43q44 37 77 111.5t29 131.5q-1 11 -5 11q-3 0 -8 -6zM459 154q-3 -89 -63 -133q-47 -35 -116 -35q-34 0 -70 21q-48 27 -48 71q0 6 37 54l46 60q-4 -26 -4 -50q0 -50 17 -83q19 -36 50 -36q30 0 49.5 34t19.5 80
q0 74 -34 90q-12 6 -80 6l-7 4v8q0 8 31 17q38 11 56 27q30 25 30 72q0 34 -2 40q-5 16 -30 16q-59 0 -146 -112q-68 -88 -118 -192q1 -28 -3 -56t-4 -31q0 -141 63 -192q-63 -42 -101 -124q-17 30 -23 166q-4 87 19 221l24 122q-13 -13 -55 -43v23q16 15 28 28q29 30 30 41
q24 246 204 401q19 -19 19 -61q0 -169 -198 -365l-5 -88q40 109 136 210q90 96 138 96q95 -2 95 -96q0 -47 -26 -63t-53 -32q4 -5 32.5 -17t42.5 -28q21 -26 19 -71z" />
    <glyph glyph-name="registered" unicode="&#xae;" horiz-adv-x="359" 
d="M134 419h-31v198h63q61 0 61 -53q0 -40 -39 -56q10 -7 55 -89h-36l-27 52q-17 31 -22 31h-24v-83zM134 526h22q38 0 38 36q0 31 -34 31h-26v-67zM165 358q-67 0 -114 47t-47 114q0 66 47 113t114 47q66 0 113 -47t47 -113q0 -67 -47 -114t-113 -47zM165 382q56 0 96 40
t40 97q0 56 -40 96t-96 40q-57 0 -97 -40t-40 -96q0 -57 40 -97t97 -40z" />
    <glyph glyph-name="copyright" unicode="&#xa9;" horiz-adv-x="747" 
d="M485 206v-58q-67 -31 -117 -31q-92 0 -154 66.5t-62 159.5q0 90 60.5 153.5t150.5 63.5q41 0 122 -29v-58q-75 35 -111 35q-69 0 -110 -48.5t-41 -118.5q0 -71 43 -119.5t113 -48.5q27 0 106 33zM346 -7q-143 0 -244 101.5t-101 243.5q0 143 101 244.5t244 101.5
t244 -101.5t101 -244.5q0 -142 -101.5 -243.5t-243.5 -101.5zM346 46q121 0 207 85.5t86 206.5q0 122 -86 208t-207 86q-122 0 -207.5 -86t-85.5 -208q0 -121 85.5 -206.5t207.5 -85.5z" />
    <glyph glyph-name="trademark" unicode="&#x2122;" horiz-adv-x="503" 
d="M80 445v194h-74v33h185v-33h-73v-194h-38zM270 445h-34v227h36l64 -149l59 149h36v-227h-35v145l-45 -113h-35l-46 111v-143z" />
    <glyph glyph-name="acute" unicode="&#xb4;" horiz-adv-x="250" 
d="M24 716l140 90l51 -45l-174 -63z" />
    <glyph glyph-name="dieresis" unicode="&#xa8;" horiz-adv-x="304" 
d="M181 743q0 17 12.5 29t29.5 12t29 -12t12 -29t-12 -29t-29 -12t-29.5 12t-12.5 29zM21 743q0 17 12.5 29t29.5 12t29 -12t12 -29t-12 -29t-29 -12t-29.5 12t-12.5 29z" />
    <glyph glyph-name="AE" unicode="&#xc6;" horiz-adv-x="1177" 
d="M582 -6q-4 23 -12 72q-102 19 -150 56q-126 -136 -264 -136q-108 0 -157 71l119 151q27 -75 125 -75q38 0 113 37q-97 80 -97 189q0 63 40 105.5t103 42.5q45 0 90 -42t52 -86q93 174 227 290q48 28 74 28q23 0 23 -23l-3 -26q-1 17 22 19.5t47 6.5t92 4q16 0 55 -8
q51 -12 51 -27q0 -5 -25 -55q-34 -68 -40 -81q-65 47 -135 47q-57 0 -93.5 -29.5t-36.5 -78.5q0 -44 20 -44q11 0 38.5 12t64.5 12q45 0 45 -31q0 -29 -32 -47q-26 -13 -50 -13q-5 0 -31 6.5t-30 6.5q-14 0 -35 -33q-9 -14 -17 -41q-7 -22 -7 -30q0 -77 57 -119
q48 -37 117 -37q118 0 174 60q6 9 12 19q10 17 17 16q4 -5 4 -15q0 -33 -68 -97q-106 -101 -215 -101q-66 0 -129 34q-67 22 -86 64l-32 -8q35 -61 37 -61q-29 -1 -74 -5zM947 392q0 5 -8 13h-24q-18 0 -63 -35q19 -17 38 -17t38 10.5t19 28.5zM822 650q0 13 -18 13
q-34 0 -144.5 -148.5t-102.5 -180.5q45 -135 54 -241q9 0 14 6q13 13 14 13q-9 27 -9 56q0 67 34 118.5t114 97.5q-8 17 -22 49q-8 18 -8 46q0 70 52 123q9 29 22 48zM493 310q-40 75 -111 71q-27 -2 -47.5 -29.5t-20.5 -54.5q0 -30 20.5 -62t47.5 -49q40 26 64 54
q17 20 47 70zM566 95q-8 45 -16 91q-18 82 -32 84q-15 -37 -40 -72l-40 -58q44 -30 128 -45z" />
    <glyph glyph-name="Oslash" unicode="&#xd8;" horiz-adv-x="614" 
d="M423 475l-179 -340q45 -18 103 -18q80 0 140 58.5t60 137.5q0 55 -34 105q-37 54 -90 57zM513 706h32l-61 -116q52 -31 79 -101q25 -61 25 -133q0 -144 -92 -256q-97 -120 -237 -120q-46 0 -88 17l-27 -52h-32q7 13 34 59q-65 35 -105 103.5t-40 145.5q0 112 60 221
q65 118 163 157q29 16 59.5 32.5t89.5 16.5q66 0 85 -11l-7 -13q-17 2 -33 2q-121 0 -208 -94t-87 -218q0 -142 96 -198l172 329q-13 -5 -26 -9q-18 -6 -18 -18q-20 32 -73 104q3 22 53 41q43 17 73 17q31 0 58 -10z" />
    <glyph glyph-name="plusminus" unicode="&#xb1;" 
 />
    <glyph glyph-name="yen" unicode="&#xa5;" horiz-adv-x="772" 
d="M511 231l-10 -35h-168l-49 -162h-123q52 44 98 162h-142l10 35h144q10 28 17 55h-151l10 35h150q5 19 6 29q8 72 32 214l15 70q-75 -72 -120 -101q-76 -51 -146 -51q-37 0 -44 2q-22 3 -38 21q65 72 95 129q25 -27 39 -33q11 -4 50 -4q57 0 107 31q44 33 89 66
q-15 -163 -15 -168q0 -23 6 -58.5t6 -58.5q110 117 146 149q95 86 189 124q-22 -65 -24 -85l-4 -96q-21 6 -43 6q-114 0 -259 -141l-14 -45h161l-10 -35h-161l-17 -55h168z" />
    <glyph glyph-name="uni00B5" unicode="&#xb5;" horiz-adv-x="675" 
d="M603 666h-19q-43 0 -111.5 -68.5t-72.5 -113.5q-2 -17 12 -44q28 9 46 24.5t30 21.5q21 9 69 77t48 95q0 5 -2 8zM292 87q-29 9 -77 9q-34 0 -99 -17q-79 -20 -79 -42q0 -9 16 -15q13 -5 24 -5q45 0 113 20q75 22 102 50zM148 218l185 77q-15 30 -16 65q-67 -32 -127 -32
q-90 0 -172 64q41 8 75 50q29 40 59 80q14 -43 48 -77q38 -38 78 -38q17 0 33 7q5 95 109 191q96 89 188 107q14 3 19 3q12 0 15 -21q-31 -112 -70 -172q-50 -75 -140 -117q8 -16 23 -29q18 -16 22 -20l169 70v-35l-157 -65q3 -14 3 -33q0 -54 -64 -124q65 -9 98 -26
q26 -15 53 -30q56 67 89 89l5 -27q-60 -68 -84 -105q-51 -77 -65 -162q-54 75 -78 100q-58 60 -113 66q-122 -91 -255 -86q-31 1 -56.5 14t-25.5 28q0 62 162 107q133 38 216 35q13 22 13.5 24t0.5 20q0 8 -12 22.5t-25 28.5l-203 -85v36z" />
    <glyph glyph-name="uni00B5" unicode="&#x3bc;" horiz-adv-x="675" 
d="M603 666h-19q-43 0 -111.5 -68.5t-72.5 -113.5q-2 -17 12 -44q28 9 46 24.5t30 21.5q21 9 69 77t48 95q0 5 -2 8zM292 87q-29 9 -77 9q-34 0 -99 -17q-79 -20 -79 -42q0 -9 16 -15q13 -5 24 -5q45 0 113 20q75 22 102 50zM148 218l185 77q-15 30 -16 65q-67 -32 -127 -32
q-90 0 -172 64q41 8 75 50q29 40 59 80q14 -43 48 -77q38 -38 78 -38q17 0 33 7q5 95 109 191q96 89 188 107q14 3 19 3q12 0 15 -21q-31 -112 -70 -172q-50 -75 -140 -117q8 -16 23 -29q18 -16 22 -20l169 70v-35l-157 -65q3 -14 3 -33q0 -54 -64 -124q65 -9 98 -26
q26 -15 53 -30q56 67 89 89l5 -27q-60 -68 -84 -105q-51 -77 -65 -162q-54 75 -78 100q-58 60 -113 66q-122 -91 -255 -86q-31 1 -56.5 14t-25.5 28q0 62 162 107q133 38 216 35q13 22 13.5 24t0.5 20q0 8 -12 22.5t-25 28.5l-203 -85v36z" />
    <glyph glyph-name="ordfeminine" unicode="&#xaa;" horiz-adv-x="596" 
d="M596 178q-64 -60 -123 -83q-9 -193 -133 -345q-36 -3 -123 -31q-81 -27 -111 -27q-71 0 -126 40q-62 43 -62 111q0 104 81 158q59 39 178 59l180 28q16 28 16 59q0 126 -51 129q-89 -66 -156 -66q-18 0 -36 9q-22 10 -22 26q0 55 77 73q37 8 118 8q32 0 65 62
q32 57 32 94q0 44 -31 70t-76 26q-43 0 -78 -36.5t-29 -79.5q-43 41 -132 121q90 111 264 111q73 0 124 -49t51 -120q0 -59 -40 -121q-37 -58 -90 -90q15 -22 48 -55q31 -29 42 -48q18 -32 20 -78l5 -6q45 9 118 83v-32zM290 299q-23 7 -33 7q-23 0 -58 -10q-40 -12 -52 -27
v-22q0 -10 29 -10q23 0 63.5 21t50.5 41zM350 56l-25 5q-117 0 -221 -55q-126 -66 -126 -171q0 -45 33.5 -79t77.5 -34q49 0 145 142q35 52 116 192zM348 775l132 45l13 -14l-160 -94h-1v0l-3 3l-112 89l20 14z" />
    <glyph glyph-name="ordmasculine" unicode="&#xba;" horiz-adv-x="360" 
d="M360 182q0 -7 -53 -65q-58 -64 -65 -76q-78 39 -126 39q-42 0 -84 -39q-14 -7 -25 -1q20 56 106 123q98 77 121 111q-5 0 -50.5 -11t-77.5 -11q-14 0 -27 2q-14 2 -42 -30q-19 -22 -37 -44v26l116 154q42 -42 103 -42q24 0 56.5 17.5t30.5 17.5q5 0 5 -8q0 -33 -52 -85
q-30 -29 -153 -131q65 19 99 19q30 0 87 -15q30 28 68 72v-23zM219 434l113 38l10 -12l-136 -80v0h-1l-2 3l-95 75l16 12z" />
    <glyph glyph-name="ae" unicode="&#xe6;" horiz-adv-x="597" 
d="M596 206v-26q0 -27 -64 -81q-71 -60 -130 -60q-8 0 -20.5 -2t-21.5 -2q-50 2 -76 41q-19 30 -19 69q-83 -104 -142 -104q-46 0 -75 40q-25 36 -25 85q0 21 6 39q-15 -10 -30 -25q1 7 0 27q42 62 102 101q68 45 135 45q25 0 75 -15q-36 -54 -51 -85q-20 30 -23 32
q-22 21 -60 21q-35 0 -60 -25t-25 -59q0 -43 23 -68q24 -28 68 -27q33 1 65 46q17 24 50 93q30 61 48 80q4 0 11 3t8 3q4 0 4 -5q-8 -16 -23 -44q40 48 119 47q22 0 37 -13t15 -34q0 -77 -153 -124q13 -63 76 -63q101 0 156 90zM417 313q-27 0 -45 -36q-15 -29 -15 -59
q0 -13 2 -19q29 4 57 28.5t28 52.5q0 33 -27 33z" />
    <glyph glyph-name="oslash" unicode="&#xf8;" horiz-adv-x="391" 
d="M279 197q-6 50 -43 50q-8 0 -7 -7q3 -17 3 -14q0 -15 27 -40q7 -7 12 -7q6 0 8 18zM201 222l-49 -85q20 -15 45 -15q32 0 64 34q-33 19 -49 43q-6 10 -11 23zM270 393h28l-30 -53q40 -20 40 -102q0 -55 -11 -68q6 -6 28 -6q20 0 36 12q7 4 29 27v-22q-19 -19 -26 -24
q-19 -13 -45 -15q-15 0 -31 7q-6 -13 -32 -41q-22 -25 -32 -32q-43 -34 -96 -34q-15 0 -29 4l-25 -45h-29l31 55q-42 25 -50 92q-5 36 4 61q-6 -3 -31 -32v25q23 39 105 103q30 23 81 48l5.5 -2t5.5 -7q0 -6 -22 -21q-27 -18 -40 -35q-22 -29 -22 -70q0 -34 21 -62l58 100
q-2 20 -2 16q0 24 14.5 47t38.5 26z" />
    <glyph glyph-name="questiondown" unicode="&#xbf;" horiz-adv-x="368" 
d="M6 155q0 71 59 128q2 1 113 84q63 48 70 93q-4 17 -8 40v15q1 0 4 1.5t8 1.5q22 0 22 -60q0 -33 -23 -68q-18 -26 -63 -71q-22 -22 -41 -54q-24 -40 -24 -67q0 -33 23.5 -55t51.5 -22q31 0 55.5 21.5t19.5 52.5q1 2 5 8q6 -2 13.5 -12t7.5 -18q0 -68 -54 -104
q-46 -30 -115 -30q-3 0 -8 2.5t-7 2.5q-27 3 -54 21q-30 19 -44 47q-11 22 -11 43zM214 605q0 24 13 48q18 32 49 32q24 0 36 -18t12 -40q0 -26 -19 -50q-22 -27 -52 -27q-39 0 -39 55z" />
    <glyph glyph-name="exclamdown" unicode="&#xa1;" horiz-adv-x="270" 
d="M10 42q89 141 132 292q10 34 25 104q3 24 5 48q6 31 16 38h14q0 2 0 -71q0 -81 -16 -211q-11 -84 -32 -167q-22 -4 -76 -20q-48 -13 -51 -13h-17zM127 603q0 25 18 47t43 22q24 0 38 -16t14 -39q0 -28 -23 -51t-49 -23q-41 0 -41 60z" />
    <glyph glyph-name="logicalnot" unicode="&#xac;" horiz-adv-x="577" 
d="M581 179q0 -26 -60.5 -83t-91.5 -57q-88 0 -88 132q0 28 5 56q-59 -97 -74 -116q-52 -66 -106 -66q-37 0 -62 35q-23 31 -24 69l-2 60q-1 50 8 70q-28 -37 -41 -53q-26 -30 -47 -47l-4 22q50 42 77 92l44 96l18 36q-62 -16 -110 -48v11q0 -1 13 43q49 12 105 26
q31 59 73 135q8 2 54 18q41 16 44 15q-32 -38 -65 -77q-40 -48 -59 -82l74 15q30 3 160 8q18 39 58 116q67 30 84 26q-71 -92 -83 -140q28 -2 83 -6v-6q0 -15 -9.5 -45.5t-9.5 -46.5h-5q-10 0 -45 15q-38 17 -50 20q-40 -57 -66 -173q-1 -8 -1 -15q0 -77 92 -77
q28 0 61 15.5t50 36.5v-30zM398 424q-48 16 -177 16q-29 0 -40 -7q-24 -30 -43 -78q-20 -52 -20 -91q0 -42 22 -73q25 -34 66 -34q77 0 130 100q17 34 62 167z" />
    <glyph glyph-name="florin" unicode="&#x192;" horiz-adv-x="1009" 
d="M937 406q0 -102 -59 -220q-74 -147 -186 -147q-61 0 -82 53q-12 29 -16 110q-131 -160 -215 -160q-38 0 -62 26t-24 62q0 40 38 91q4 5 80 94v9q-5 5 -11 5q-7 0 -47 -26q-34 -23 -78 -83q-1 -2 -57 -85q-32 -47 -82 -86h-14q-4 0 -4 8q0 1 19 29.5t24 40.5q14 31 14 57
q0 72 -60 72q-32 0 -67 -30q-25 -23 -50 -47l-6 22q59 78 92 107q50 43 101 43q67 0 81 -105q109 109 147 109q27 0 27 -21q0 -6 -25.5 -60t-25.5 -82q0 -51 56 -51q53 0 108 55q48 50 96 101q62 54 134 54q12 0 45 -7q39 -9 39 -18q0 -4 -26 -42q-31 -47 -40 -63
q-5 23 -33 46.5t-52 23.5q-31 0 -50 -23.5t-19 -51.5q0 -29 31 -53.5t57 -24.5q87 0 134 97q33 70 33 145q0 105 -79 161q-65 46 -158 46q-64 0 -113 -26q-55 -29 -64 -79q0 -6 -7 -6q-3 0 -17.5 1.5t-18.5 1.5q-66 0 -151 -43l-7 3q2 6 27 61q46 100 163 147q84 33 183 33
q136 0 210 -81q67 -73 67 -193z" />
    <glyph glyph-name="guillemotleft" unicode="&#xab;" horiz-adv-x="319" 
d="M259 413l-68 -156l65 -144l-6 -12l-131 156l133 167zM139 413l-68 -156l65 -144l-6 -12l-131 156l133 167z" />
    <glyph glyph-name="guillemotright" unicode="&#xbb;" horiz-adv-x="319" 
d="M19 413l57 -156l-55 -144l5 -12l111 156l-113 167zM121 413l57 -156l-55 -144l5 -12l111 156l-113 167z" />
    <glyph glyph-name="ellipsis" unicode="&#x2026;" horiz-adv-x="622" 
d="M349 118q0 -33 -19.5 -54.5t-48.5 -21.5q-42 0 -42 49q0 23 19 47q23 27 52 27q39 0 39 -47zM569 118q0 -33 -19.5 -54.5t-48.5 -21.5q-42 0 -42 49q0 23 19 47q23 27 52 27q39 0 39 -47zM129 118q0 -33 -19.5 -54.5t-48.5 -21.5q-42 0 -42 49q0 23 19 47q23 27 52 27
q39 0 39 -47z" />
    <glyph glyph-name="uni00A0" unicode="&#xa0;" horiz-adv-x="1023" 
 />
    <glyph glyph-name="Agrave" unicode="&#xc0;" horiz-adv-x="889" 
d="M903 713l-138 93l-51 -45l173 -63zM889 174q-28 -28 -53 -49q-61 -50 -100 -56l40 -67q-103 6 -200 -15q-2 26 -9 79q-102 19 -150 56q-126 -136 -264 -136q-108 0 -157 71l119 151q27 -75 125 -75q38 0 113 37q-97 80 -97 189q0 63 40 105.5t103 42.5q45 0 90 -42
t52 -86q38 59 75 118q57 86 102 132q61 63 112 65q28 -7 26 -25q-73 -129 -105 -208q-50 -124 -50 -226t29 -146q76 20 159 111v-26zM832 669q0 8 -8 9q6 -1 -14 -1q-34 0 -147.5 -155t-108.5 -188l25 -183l5 14q27 138 96 266q38 70 152 238zM490 310q-40 75 -111 71
q-27 -2 -47.5 -29.5t-20.5 -54.5q0 -30 20.5 -62t47.5 -49q40 26 64 54q18 20 47 70zM561 89q-14 68 -35 148q-3 16 -11 33q-15 -37 -40 -72l-40 -58q55 -38 126 -51z" />
    <glyph glyph-name="Atilde" unicode="&#xc3;" horiz-adv-x="889" 
d="M697 753q-22 -9 -34 -29l-11 12q15 24 25 35q16 19 34 23t32 4q21 0 47 -12q40 -15 59 -15q11 0 24 2q18 8 23 11q14 7 19 15l10 -14q-28 -46 -69 -56q-31 -7 -65 9q-45 17 -72 17q-11 0 -22 -2zM889 174q-28 -28 -53 -49q-61 -50 -100 -56l40 -67q-103 6 -200 -15
q-2 26 -9 79q-102 19 -150 56q-126 -136 -264 -136q-108 0 -157 71l119 151q27 -75 125 -75q38 0 113 37q-97 80 -97 189q0 63 40 105.5t103 42.5q45 0 90 -42t52 -86q38 59 75 118q57 86 102 132q61 63 112 65q28 -7 26 -25q-73 -129 -105 -208q-50 -124 -50 -226t29 -146
q76 20 159 111v-26zM832 669q0 8 -8 9q6 -1 -14 -1q-34 0 -147.5 -155t-108.5 -188l25 -183l5 14q27 138 96 266q38 70 152 238zM490 310q-40 75 -111 71q-27 -2 -47.5 -29.5t-20.5 -54.5q0 -30 20.5 -62t47.5 -49q40 26 64 54q18 20 47 70zM561 89q-14 68 -35 148
q-3 16 -11 33q-15 -37 -40 -72l-40 -58q55 -38 126 -51z" />
    <glyph glyph-name="Otilde" unicode="&#xd5;" horiz-adv-x="615" 
d="M588 356q0 -144 -92 -256q-97 -120 -237 -120q-108 0 -184 84q-74 80 -74 189q0 112 60 221q65 118 163 157q12 7 34 18q63 31 115 31q66 0 85 -11l-7 -13l-27 4q-125 0 -213 -94t-88 -220q0 -107 57.5 -168t166.5 -61q80 0 140 58.5t60 137.5q0 57 -36 107
q-39 55 -94 55q-46 0 -49 -44q-35 55 -94 123q3 22 53 41q43 17 73 17q93 0 145 -85q43 -71 43 -171zM309 739q-20 -8 -30 -25l-11 11q15 25 25 36q16 19 34 23t32 4q21 0 47 -13q40 -14 59 -14q11 0 24 2q18 8 23 10q14 8 19 15l10 -13q-14 -24 -23 -35q-18 -21 -38 -25
q-42 -11 -78 7q-51 19 -73 19q-10 0 -20 -2z" />
    <glyph glyph-name="OE" unicode="&#x152;" horiz-adv-x="956" 
d="M452 42q-103 -62 -193 -62q-108 0 -184 84q-74 80 -74 189q0 112 60 221q65 118 163 157q12 7 34 18q63 31 115 31q66 0 85 -11l-7 -13l-27 4q-125 0 -213 -94t-88 -220q0 -107 57.5 -168t166.5 -61q21 0 55 11q-5 19 -5 40q0 123 147 212q-16 40 -51.5 67.5t-75.5 27.5
q-46 0 -49 -44q-35 55 -94 123q3 22 53 41q42 15 73 17q92 4 132 -58q44 89 163 116q35 8 98 8q16 0 55 -8q51 -12 51 -27q0 -5 -25 -55q-34 -68 -40 -81q-64 47 -135 47q-57 0 -93.5 -29.5t-36.5 -78.5v-6l5 -28q5 -10 15 -10q11 0 39 12t64 12q46 0 46 -31q0 -29 -33 -47
q-26 -13 -50 -13q-5 0 -31 6.5t-30 6.5q-14 0 -35 -33q-9 -14 -17 -41q-7 -22 -7 -30q0 -77 57 -119q48 -37 117 -37q48 0 95 16q53 18 81 48q5 9 11 17q9 15 16 14q4 -5 4 -15q0 -33 -68 -97q-106 -101 -215 -101q-107 0 -181 72zM714 392q0 5 -8 13h-24q-18 0 -62 -35
q12 -12 38 -12q56 0 56 34z" />
    <glyph glyph-name="oe" unicode="&#x153;" horiz-adv-x="587" 
d="M272 177q1 4 6 26l-3 17q4 1 -7 18.5t-36 15.5q-7 0 -6 -10q4 -19 4 -17q0 -8 16.5 -28t25.5 -22zM586 206v-26q0 -27 -64 -81q-71 -60 -130 -60q-100 0 -120 87q-29 -36 -48 -50q-43 -34 -96 -34q-89 0 -102 106q-5 36 4 61q-6 -3 -31 -32v25q23 39 105 103q30 23 81 48
l5.5 -2t5.5 -7q0 -6 -22 -21q-27 -18 -40 -35q-22 -29 -22 -70q0 -36 23 -64q25 -32 62 -32q32 0 64 34q-33 19 -49 43q-21 33 -21 65q0 26 14 51q16 30 41 30q44 0 57 -64q57 70 152 69q22 0 37 -13t15 -34q0 -44 -57 -85q-44 -31 -97 -47q11 -55 77 -55q101 0 156 90z
M407 313q-27 0 -45 -36q-15 -30 -15 -60q0 -17 3 -26q29 4 56.5 32t27.5 57q0 33 -27 33z" />
    <glyph glyph-name="endash" unicode="&#x2013;" horiz-adv-x="426" 
d="M17 231h384l-10 -35h-384z" />
    <glyph glyph-name="emdash" unicode="&#x2014;" horiz-adv-x="778" 
d="M761 231l-10 -35h-744l10 35h744z" />
    <glyph glyph-name="quotedblleft" unicode="&#x201c;" horiz-adv-x="277" 
d="M30 452q0 38 18 86q18 52 45 81q44 48 54 47h14q-1 -2 -31 -46q-18 -25 -27 -63q-3 -14 -3 -29t13 -62q-25 -13 -79 -39q-4 8 -4 25zM135 449q0 49 29.5 111.5t74.5 99.5v-17q0 -3 -10 -16q-11 -16 -13 -22q-17 -42 -17 -74q0 -6 16 -72q-31 -8 -77 -32q0 3 -1.5 10.5
t-1.5 11.5z" />
    <glyph glyph-name="quotedblright" unicode="&#x201d;" horiz-adv-x="277" 
d="M257 641q0 -38 -21 -86q-21 -51 -53 -81q-52 -48 -63 -47h-17q1 3 37 46q20 26 31 63q4 15 4 30t-15 62q29 13 93 38q4 -8 4 -25zM134 644q0 -49 -34 -110q-36 -64 -88 -101v17q-1 3 11 17.5t16 21.5q19 42 19 73q0 7 -18 72q37 8 90 32q0 -3 2 -10.5t2 -11.5z" />
    <glyph glyph-name="quoteleft" unicode="&#x2018;" horiz-adv-x="0" 
d="M2 447q0 60 29 120q32 66 90 105h12q3 0 3 -7q0 -4 -12 -18q-15 -19 -17 -21q-30 -44 -30 -100q0 -27 10 -57q-38 -16 -82 -39q0 1 -1.5 7t-1.5 10z" />
    <glyph glyph-name="quoteright" unicode="&#x2019;" horiz-adv-x="204" 
d="M148 655q0 -60 -35 -119q-38 -66 -105 -106h-14q-4 0 -4 8q0 4 13 18q19 18 21 21q35 43 35 100q0 26 -12 57q46 15 97 38l2 -6t2 -11z" />
    <glyph glyph-name="divide" unicode="&#xf7;" 
 />
    <glyph glyph-name="ydieresis" unicode="&#xff;" horiz-adv-x="430" 
d="M430 178q0 -12 -40 -61q-56 -69 -74 -96q-39 -59 -39 -95q0 -26 37 -80q-71 -44 -113 -101q-19 53 -16 113q6 127 29 201l29 77q-84 -92 -135 -92q-33 0 -58 27.5t-25 61.5q0 30 22 83q-5 -3 -45 -38v25q55 48 115 148q6 5 11 5q10 0 6 -19q-13 -26 -27 -53
q-11 -23 -11 -59q0 -78 75 -78q47 0 91 79q30 61 60 123q8 4 12 4q9 0 7 -17q-82 -208 -82 -306q0 -32 3 -40q44 53 88 105q53 65 80 111v-28zM271 433q0 17 12.5 29t29.5 12t29 -12t12 -29t-12 -29t-29 -12t-29.5 12t-12.5 29zM111 433q0 17 12.5 29t29.5 12t29 -12t12 -29
t-12 -29t-29 -12t-29.5 12t-12.5 29z" />
    <glyph glyph-name="Ydieresis" unicode="&#x178;" horiz-adv-x="733" 
d="M732 183q0 -2 -27 -47q-33 -53 -51 -97q-28 -66 -28 -121q0 -47 27 -96q-38 -32 -76 -63q-52 -47 -58 -73l-11 4q-48 85 -48 240q0 105 34 270q-47 -63 -94 -127q-61 -72 -134 -72q-63 0 -105 52q-39 49 -39 114q0 78 45 169q28 55 100 158t97 152l-9 15
q-77 -72 -121 -101q-75 -48 -147 -48q-51 0 -98 21q21 29 41 58q13 18 36 67q42 -53 99 -53t128 41.5t77 41.5l10 -4l4 -16q0 -36 -61.5 -194.5t-61.5 -220.5q0 -106 100 -106q80 0 143 125q10 20 96 247q55 146 108 175l4 -11q-152 -287 -152 -559q0 -129 31 -189
q17 26 57 131q31 82 85 140q-1 1 -1 -23zM581 753q0 17 12.5 29t29.5 12t29 -12t12 -29t-12 -29t-29 -12t-29.5 12t-12.5 29zM421 753q0 17 12.5 29t29.5 12t29 -12t12 -29t-12 -29t-29 -12t-29.5 12t-12.5 29z" />
    <glyph glyph-name="currency" unicode="&#xa4;" horiz-adv-x="374" 
d="M343 352q0 -49 -70 -130q0 -4 15 -21q17 -21 22 -29q20 -34 20 -72q0 -84 -73 -141q-66 -52 -140 -52q-41 0 -79 19q-53 26 -53 75q0 38 18 69q22 40 65 40q27 0 49.5 -15.5t22.5 -43.5q0 -13 -10 -32q-12 -23 -28 -23q-3 0 -11 4.5t-12 4.5q-24 0 -24 -25q0 -38 47 -38
q29 0 57 26t37 58q14 48 14 101q0 32 -3 47q-6 5 -7 5q-3 0 -14 -5.5t-15 -5.5q-30 -4 -37 -4q-35 0 -68 23.5t-33 56.5q0 12 7 16q1 1 26 9q20 11 61 31l7 -1q-16 -26 -16 -48q0 -19 17.5 -32.5t33.5 -13.5q26 0 37 18q3 17 11 53q6 27 39 64q37 42 65 42q22 0 22 -30z
M305 327q0 6 -5 11q-6 -4 -23 -23q-19 -23 -19 -36v-17q8 1 27.5 29.5t19.5 35.5z" />
    <glyph glyph-name="guilsinglleft" unicode="&#x2039;" horiz-adv-x="184" 
d="M139 413l-68 -156l65 -144l-6 -12l-131 156l133 167z" />
    <glyph glyph-name="guilsinglright" unicode="&#x203a;" horiz-adv-x="184" 
d="M10 413l57 -156l-55 -144l5 -12l111 156l-113 167z" />
    <glyph glyph-name="daggerdbl" unicode="&#x2021;" horiz-adv-x="15" 
 />
    <glyph glyph-name="periodcentered" unicode="&#xb7;" horiz-adv-x="18" 
 />
    <glyph glyph-name="periodcentered" unicode="&#x2219;" horiz-adv-x="18" 
 />
    <glyph glyph-name="quotesinglbase" unicode="&#x201a;" horiz-adv-x="270" 
d="M177 133q0 -55 -37.5 -118t-99.5 -114q-2 -1 -14 -1v12q53 49 53 152q0 12 -1 23q0 2 -2.5 9t-2.5 11v13q34 10 97 42q7 -22 7 -29z" />
    <glyph glyph-name="quotedblbase" unicode="&#x201e;" horiz-adv-x="351" 
d="M317 133q0 -55 -37.5 -118t-99.5 -114q-2 -1 -14 -1v12q53 49 53 152q0 12 -1 23q0 2 -2.5 9t-2.5 11v13q34 10 97 42q7 -22 7 -29zM177 133q0 -55 -37.5 -118t-99.5 -114q-2 -1 -14 -1v12q53 49 53 152q0 12 -1 23q0 2 -2.5 9t-2.5 11v13q34 10 97 42q7 -22 7 -29z" />
    <glyph glyph-name="perthousand" unicode="&#x2030;" 
 />
    <glyph glyph-name="Acircumflex" unicode="&#xc2;" horiz-adv-x="896" 
d="M802 747l-133 -45l-12 14l160 94h1v0l115 -92l-20 -14zM889 174q-28 -28 -53 -49q-61 -50 -100 -56l40 -67q-103 6 -200 -15q-2 26 -9 79q-102 19 -150 56q-126 -136 -264 -136q-108 0 -157 71l119 151q27 -75 125 -75q38 0 113 37q-97 80 -97 189q0 63 40 105.5
t103 42.5q45 0 90 -42t52 -86q38 59 75 118q57 86 102 132q61 63 112 65q28 -7 26 -25q-73 -129 -105 -208q-50 -124 -50 -226t29 -146q76 20 159 111v-26zM832 669q0 8 -8 9q6 -1 -14 -1q-34 0 -147.5 -155t-108.5 -188l25 -183l5 14q27 138 96 266q38 70 152 238zM490 310
q-40 75 -111 71q-27 -2 -47.5 -29.5t-20.5 -54.5q0 -30 20.5 -62t47.5 -49q40 26 64 54q18 20 47 70zM561 89q-14 68 -35 148q-3 16 -11 33q-15 -37 -40 -72l-40 -58q55 -38 126 -51z" />
    <glyph glyph-name="Ecircumflex" unicode="&#xca;" horiz-adv-x="530" 
d="M382 747l-133 -45l-12 14l160 94h1v0l115 -92l-20 -14zM532 178q-28 -38 -79 -99q-53 -50 -114 -78q-57 -27 -103 -27q-84 0 -154 49q-82 57 -82 148q0 68 34 119t114 98q-8 17 -22 49q-8 18 -8 46q0 68 49 120t131 71q35 8 98 8q16 0 54 -8q52 -12 52 -27q0 -5 -25 -55
q-34 -68 -40 -82q-65 47 -135 47q-57 0 -93.5 -29t-36.5 -78q0 -44 18 -44q11 0 38.5 13t63.5 13q48 0 48 -33q0 -29 -33 -47q-25 -14 -49 -14q-5 0 -31 7t-30 7q-14 0 -35 -33q-9 -15 -16.5 -39.5t-7.5 -32.5q0 -76 56 -118q49 -37 118 -37q54 0 107 29q30 17 110 77
q3 -3 3 -20zM317 396q0 5 -8 13h-24q-18 0 -63 -35q13 -12 39 -12q56 0 56 34z" />
    <glyph glyph-name="Aacute" unicode="&#xc1;" horiz-adv-x="890" 
d="M748 714l136 92l51 -45l-174 -63zM889 174q-28 -28 -53 -49q-61 -50 -100 -56l40 -67q-103 6 -200 -15q-2 26 -9 79q-102 19 -150 56q-126 -136 -264 -136q-108 0 -157 71l119 151q27 -75 125 -75q38 0 113 37q-97 80 -97 189q0 63 40 105.5t103 42.5q45 0 90 -42t52 -86
q38 59 75 118q57 86 102 132q61 63 112 65q28 -7 26 -25q-73 -129 -105 -208q-50 -124 -50 -226t29 -146q76 20 159 111v-26zM832 669q0 8 -8 9q6 -1 -14 -1q-34 0 -147.5 -155t-108.5 -188l25 -183l5 14q27 138 96 266q38 70 152 238zM490 310q-40 75 -111 71
q-27 -2 -47.5 -29.5t-20.5 -54.5q0 -30 20.5 -62t47.5 -49q40 26 64 54q18 20 47 70zM561 89q-14 68 -35 148q-3 16 -11 33q-15 -37 -40 -72l-40 -58q55 -38 126 -51z" />
    <glyph glyph-name="Edieresis" unicode="&#xcb;" horiz-adv-x="533" 
d="M431 753q0 17 12.5 29t29.5 12t29 -12t12 -29t-12 -29t-29 -12t-29.5 12t-12.5 29zM271 753q0 17 12.5 29t29.5 12t29 -12t12 -29t-12 -29t-29 -12t-29.5 12t-12.5 29zM532 178q-28 -38 -79 -99q-53 -50 -114 -78q-57 -27 -103 -27q-84 0 -154 49q-82 57 -82 148
q0 68 34 119t114 98q-8 17 -22 49q-8 18 -8 46q0 68 49 120t131 71q35 8 98 8q16 0 54 -8q52 -12 52 -27q0 -5 -25 -55q-34 -68 -40 -82q-65 47 -135 47q-57 0 -93.5 -29t-36.5 -78q0 -44 18 -44q11 0 38.5 13t63.5 13q48 0 48 -33q0 -29 -33 -47q-25 -14 -49 -14
q-5 0 -31 7t-30 7q-14 0 -35 -33q-9 -15 -16.5 -39.5t-7.5 -32.5q0 -76 56 -118q49 -37 118 -37q54 0 107 29q30 17 110 77q3 -3 3 -20zM317 396q0 5 -8 13h-24q-18 0 -63 -35q13 -12 39 -12q56 0 56 34z" />
    <glyph glyph-name="Egrave" unicode="&#xc8;" horiz-adv-x="530" 
d="M503 713l-138 93l-51 -45l173 -63zM532 178q-28 -38 -79 -99q-53 -50 -114 -78q-57 -27 -103 -27q-84 0 -154 49q-82 57 -82 148q0 68 34 119t114 98q-8 17 -22 49q-8 18 -8 46q0 68 49 120t131 71q35 8 98 8q16 0 54 -8q52 -12 52 -27q0 -5 -25 -55q-34 -68 -40 -82
q-65 47 -135 47q-57 0 -93.5 -29t-36.5 -78q0 -44 18 -44q11 0 38.5 13t63.5 13q48 0 48 -33q0 -29 -33 -47q-25 -14 -49 -14q-5 0 -31 7t-30 7q-14 0 -35 -33q-9 -15 -16.5 -39.5t-7.5 -32.5q0 -76 56 -118q49 -37 118 -37q54 0 107 29q30 17 110 77q3 -3 3 -20zM317 396
q0 5 -8 13h-24q-18 0 -63 -35q13 -12 39 -12q56 0 56 34z" />
    <glyph glyph-name="Iacute" unicode="&#xcd;" horiz-adv-x="551" 
d="M448 714l136 92l51 -45l-174 -63zM588 619q0 -225 -107 -410q-126 -218 -334 -218q-128 0 -152 47q38 61 116 163q41 -45 121 -45q78 0 148 48.5t98 122.5q-62 39 -179 39q-97 0 -206 -37q14 30 40 77q35 63 44 63q118 0 276 -98q-24 41 -24 95q0 61 29 116q33 61 93 100
q6 3 13 3q16 0 20 -15.5t4 -50.5zM558 656q-62 -47 -82 -100q-17 -41 -16 -116q1 -58 34 -94q22 39 42 100q26 84 26 155q0 29 -4 55z" />
    <glyph glyph-name="Icircumflex" unicode="&#xce;" horiz-adv-x="548" 
d="M588 619q0 -225 -107 -410q-126 -218 -334 -218q-128 0 -152 47q38 61 116 163q41 -45 121 -45q78 0 148 48.5t98 122.5q-62 39 -179 39q-97 0 -206 -37q14 30 40 77q35 63 44 63q118 0 276 -98q-24 41 -24 95q0 61 29 116q33 61 93 100q6 3 13 3q16 0 20 -15.5t4 -50.5z
M558 656q-62 -47 -82 -100q-17 -41 -16 -116q1 -58 34 -94q22 39 42 100q26 84 26 155q0 29 -4 55zM532 747l-133 -45l-12 14l160 94h1v0l115 -92l-20 -14z" />
    <glyph glyph-name="Idieresis" unicode="&#xcf;" horiz-adv-x="548" 
d="M588 619q0 -225 -107 -410q-126 -218 -334 -218q-52 0 -67 3q-48 8 -85 44q38 61 116 163q41 -45 121 -45q78 0 148 48.5t98 122.5q-62 39 -179 39q-97 0 -206 -37q14 30 40 77q35 63 44 63q118 0 276 -98q-24 41 -24 95q0 61 29 116q33 61 93 100q6 3 13 3
q16 0 20 -15.5t4 -50.5zM558 656q-62 -47 -82 -100q-17 -41 -16 -116q1 -58 34 -94q22 39 42 100q26 84 26 155q0 29 -4 55zM561 753q0 17 12.5 29t29.5 12t29 -12t12 -29t-12 -29t-29 -12t-29.5 12t-12.5 29zM401 753q0 17 12.5 29t29.5 12t29 -12t12 -29t-12 -29t-29 -12
t-29.5 12t-12.5 29z" />
    <glyph glyph-name="Igrave" unicode="&#xcc;" horiz-adv-x="548" 
d="M588 619q0 -225 -107 -410q-126 -218 -334 -218q-128 0 -152 47q38 61 116 163q41 -45 121 -45q78 0 148 48.5t98 122.5q-62 39 -179 39q-97 0 -206 -37q14 30 40 77q35 63 44 63q118 0 276 -98q-24 41 -24 95q0 61 29 116q33 61 93 100q6 3 13 3q16 0 20 -15.5t4 -50.5z
M558 656q-62 -47 -82 -100q-17 -41 -16 -116q1 -58 34 -94q22 39 42 100q26 84 26 155q0 29 -4 55zM603 713l-138 93l-51 -45l173 -63z" />
    <glyph glyph-name="Oacute" unicode="&#xd3;" horiz-adv-x="610" 
d="M588 356q0 -144 -92 -256q-97 -120 -237 -120q-108 0 -184 84q-74 80 -74 189q0 112 60 221q65 118 163 157q12 7 34 18q63 31 115 31q66 0 85 -11l-7 -13l-27 4q-125 0 -213 -94t-88 -220q0 -107 57.5 -168t166.5 -61q80 0 140 58.5t60 137.5q0 57 -36 107
q-39 55 -94 55q-46 0 -49 -44q-35 55 -94 123q3 22 53 41q43 17 73 17q93 0 145 -85q43 -71 43 -171zM298 714l136 92l51 -45l-174 -63z" />
    <glyph glyph-name="Ocircumflex" unicode="&#xd4;" horiz-adv-x="611" 
d="M588 356q0 -144 -92 -256q-97 -120 -237 -120q-108 0 -184 84q-74 80 -74 189q0 112 60 221q65 118 163 157q12 7 34 18q63 31 115 31q66 0 85 -11l-7 -13l-27 4q-125 0 -213 -94t-88 -220q0 -107 57.5 -168t166.5 -61q80 0 140 58.5t60 137.5q0 57 -36 107
q-39 55 -94 55q-46 0 -49 -44q-35 55 -94 123q3 22 53 41q43 17 73 17q93 0 145 -85q43 -71 43 -171zM392 747l-133 -45l-12 14l160 94h1v0l115 -92l-20 -14z" />
    <glyph glyph-name="Ograve" unicode="&#xd2;" horiz-adv-x="610" 
d="M588 356q0 -144 -92 -256q-97 -120 -237 -120q-108 0 -184 84q-74 80 -74 189q0 112 60 221q65 118 163 157q12 7 34 18q63 31 115 31q66 0 85 -11l-7 -13l-27 4q-125 0 -213 -94t-88 -220q0 -107 57.5 -168t166.5 -61q80 0 140 58.5t60 137.5q0 57 -36 107
q-39 55 -94 55q-46 0 -49 -44q-35 55 -94 123q3 22 53 41q43 17 73 17q93 0 145 -85q43 -71 43 -171zM503 713l-138 93l-51 -45l173 -63z" />
    <glyph glyph-name="Uacute" unicode="&#xda;" horiz-adv-x="772" 
d="M448 714l136 92l51 -45l-174 -63zM769 177q0 -50 -66.5 -115t-119.5 -65q-69 0 -101 65q-25 51 -22 126l-5 3q-59 -92 -90 -125q-65 -72 -128 -72q-62 0 -104 54q-39 50 -39 114q0 97 56 185q19 28 116 141q72 83 94 150l-10 6q-86 -59 -134 -81q-76 -35 -151 -33
q-29 1 -61 19l-14 16q-1 2 -1 4q0 14 45 56q55 52 58 56q29 -74 113 -74q44 0 87 23q12 7 76 50l15 -20q-11 -58 -84 -208q-62 -129 -62 -215q0 -40 19 -65q22 -28 61 -28q88 0 147 139q37 107 74 213q18 41 59 104q52 77 75 77q18 0 18 -38q0 -72 -46 -170
q-43 -91 -97 -148l-4 -37q0 -61 25 -107q31 -56 87 -56q28 0 64 29q32 25 50 53v-26zM667 622q0 9 -12 15q-27 -12 -71 -120q-41 -102 -41 -140q0 -10 7 -13q36 31 76.5 120.5t40.5 137.5z" />
    <glyph glyph-name="Ucircumflex" unicode="&#xdb;" horiz-adv-x="766" 
d="M522 747l-133 -45l-12 14l160 94h1v0l115 -92l-20 -14zM769 177q0 -50 -66.5 -115t-119.5 -65q-69 0 -101 65q-25 51 -22 126l-5 3q-59 -92 -90 -125q-65 -72 -128 -72q-62 0 -104 54q-39 50 -39 114q0 97 56 185q19 28 116 141q72 83 94 150l-10 6q-86 -59 -134 -81
q-76 -35 -151 -33q-29 1 -61 19l-14 16q-1 2 -1 4q0 14 45 56q55 52 58 56q29 -74 113 -74q44 0 87 23q12 7 76 50l15 -20q-11 -58 -84 -208q-62 -129 -62 -215q0 -40 19 -65q22 -28 61 -28q88 0 147 139q37 107 74 213q18 41 59 104q52 77 75 77q18 0 18 -38
q0 -72 -46 -170q-43 -91 -97 -148l-4 -37q0 -61 25 -107q31 -56 87 -56q28 0 64 29q32 25 50 53v-26zM667 622q0 9 -12 15q-27 -12 -71 -120q-41 -102 -41 -140q0 -10 7 -13q36 31 76.5 120.5t40.5 137.5z" />
    <glyph glyph-name="Ugrave" unicode="&#xd9;" horiz-adv-x="766" 
d="M603 713l-138 93l-51 -45l173 -63zM769 177q0 -50 -66.5 -115t-119.5 -65q-69 0 -101 65q-25 51 -22 126l-5 3q-59 -92 -90 -125q-65 -72 -128 -72q-62 0 -104 54q-39 50 -39 114q0 97 56 185q19 28 116 141q72 83 94 150l-10 6q-86 -59 -134 -81q-76 -35 -151 -33
q-29 1 -61 19l-14 16q-1 2 -1 4q0 14 45 56q55 52 58 56q29 -74 113 -74q44 0 87 23q12 7 76 50l15 -20q-11 -58 -84 -208q-62 -129 -62 -215q0 -40 19 -65q22 -28 61 -28q88 0 147 139q37 107 74 213q18 41 59 104q52 77 75 77q18 0 18 -38q0 -72 -46 -170
q-43 -91 -97 -148l-4 -37q0 -61 25 -107q31 -56 87 -56q28 0 64 29q32 25 50 53v-26zM667 622q0 9 -12 15q-27 -12 -71 -120q-41 -102 -41 -140q0 -10 7 -13q36 31 76.5 120.5t40.5 137.5z" />
    <glyph glyph-name="circumflex" unicode="&#x2c6;" horiz-adv-x="354" 
d="M182 747l-133 -45l-12 14l160 94h1v0l3 -3l112 -89l-20 -14z" />
    <glyph glyph-name="tilde" unicode="&#x2dc;" horiz-adv-x="372" 
d="M89 719q-20 -8 -30 -25l-11 11q15 25 25 36q16 19 34 23t32 4q21 0 47 -13q40 -14 59 -14q11 0 24 2q18 8 23 10q14 8 19 15l10 -13q-14 -24 -23 -35q-18 -21 -38 -25q-42 -11 -78 7q-51 19 -73 19q-10 0 -20 -2z" />
    <glyph glyph-name="macron" unicode="&#xaf;" horiz-adv-x="270" 
d="M21 780h224v-54h-224v54z" />
    <glyph glyph-name="macron" unicode="&#x2c9;" horiz-adv-x="270" 
d="M21 780h224v-54h-224v54z" />
    <glyph glyph-name="cedilla" unicode="&#xb8;" horiz-adv-x="204" 
d="M109 -210q-12 -6 -30 -6q-31 0 -39 9q-9 13 -24 33l23 17q13 -21 32 -21q30 0 39 37q3 6 3 11q0 15 -22 15q-13 0 -31 -6l19 62h36l-9 -33q22 4 40 -13.5t15 -38.5q-2 -24 -9 -34q-10 -14 -43 -32z" />
    <glyph glyph-name="Scaron" unicode="&#x160;" 
 />
    <glyph glyph-name="scaron" unicode="&#x161;" 
 />
    <glyph glyph-name="brokenbar" unicode="&#xa6;" 
 />
    <glyph glyph-name="Eth" unicode="&#xd0;" 
 />
    <glyph glyph-name="eth" unicode="&#xf0;" 
 />
    <glyph glyph-name="Yacute" unicode="&#xdd;" 
 />
    <glyph glyph-name="yacute" unicode="&#xfd;" 
 />
    <glyph glyph-name="Thorn" unicode="&#xde;" 
 />
    <glyph glyph-name="thorn" unicode="&#xfe;" 
 />
    <glyph glyph-name="uni00AD" unicode="&#xad;" 
 />
    <glyph glyph-name="uni00AD" unicode="&#x2212;" 
 />
    <glyph glyph-name="multiply" unicode="&#xd7;" 
 />
    <glyph glyph-name="uni00B9" unicode="&#xb9;" 
 />
    <glyph glyph-name="uni00B2" unicode="&#xb2;" 
 />
    <glyph glyph-name="uni00B3" unicode="&#xb3;" 
 />
    <glyph glyph-name="onehalf" unicode="&#xbd;" 
 />
    <glyph glyph-name="onequarter" unicode="&#xbc;" 
 />
    <glyph glyph-name="threequarters" unicode="&#xbe;" 
 />
    <glyph glyph-name="glyph218" 
 />
    <glyph glyph-name="Lslash" unicode="&#x141;" 
 />
    <glyph glyph-name="lslash" unicode="&#x142;" 
 />
    <glyph glyph-name="glyph221" 
 />
    <glyph glyph-name="glyph222" 
 />
    <glyph glyph-name="glyph223" 
 />
    <glyph glyph-name="Zcaron" unicode="&#x17d;" 
 />
    <glyph glyph-name="zcaron" unicode="&#x17e;" 
 />
    <glyph glyph-name="glyph226" 
 />
    <glyph glyph-name="glyph227" 
 />
    <glyph glyph-name="glyph228" 
 />
    <glyph glyph-name="glyph229" 
 />
    <glyph glyph-name="glyph230" 
 />
    <glyph glyph-name="glyph231" 
 />
    <glyph glyph-name="glyph232" 
 />
    <glyph glyph-name="notequal" unicode="&#x2260;" horiz-adv-x="39" 
 />
    <glyph glyph-name="infinity" unicode="&#x221e;" 
 />
    <glyph glyph-name="lessequal" unicode="&#x2264;" 
 />
    <glyph glyph-name="greaterequal" unicode="&#x2265;" 
 />
    <glyph glyph-name="partialdiff" unicode="&#x2202;" horiz-adv-x="322" 
d="M322 179q-20 -31 -42 -62t-47 -48q-49 -33 -83 -33q-105 0 -109 167q-3 3 2 27q-20 -33 -43 -53l1 26q15 19 50 76l-54 -23v36l72 30q19 56 39 112q30 77 81 159q18 10 51 31q12 9 51 51q16 -42 16 -51q0 -119 -136 -260l118 50v-36l-181 -75q-4 -23 -4 -43q0 -53 21 -74
q15 -19 26 -26q22 -13 60 -12q59 2 111 60v-29zM220 539q0 19 0 18q-1 1 -4 9q-3 5 -6 5t-8 -7q-13 -11 -48 -89q-36 -83 -36 -108q0 -7 -6 -25q43 34 73 84q35 59 35 113z" />
    <glyph glyph-name="summation" unicode="&#x2211;" horiz-adv-x="593" 
d="M566 646q0 -74 -131 -195q0 -12 29 -45q37 -44 51 -69q28 -46 28 -89q0 -120 -117 -196q-103 -66 -228 -66q-82 0 -143 47q-67 51 -67 131q0 64 48 104q45 37 110 37q21 0 60 -15q44 -18 45 -34q-34 -40 -97 -122q-13 49 -54 49q-24 0 -41.5 -17t-17.5 -42q0 -45 50 -72
q42 -23 89 -23q109 0 167 99q48 81 48 198q0 16 -1.5 45.5t-1.5 42.5l-5 6q-123 -69 -203 -69q-25 0 -71 17q-52 20 -52 39l7 11q25 9 56 44l46 56q34 -28 67 -57q25 -16 94 -16q19 0 49 15q3 2 22 58q20 64 46 99q39 52 95 52q8 0 15.5 -7.5t7.5 -15.5zM520 615q0 13 -4 18
h-18q-24 -15 -47 -55t-23 -68q0 -10 5 -15q31 18 57 51q30 38 30 69zM468 765l132 45l13 -14l-160 -94h-1v0l-3 3l-112 89l20 14z" />
    <glyph glyph-name="product" unicode="&#x220f;" horiz-adv-x="340" 
d="M339 179q-6 -17 -41 -64q-42 -45 -99 -65q-38 -13 -88 -13q-32 0 -65 18q-37 20 -41 46q32 15 93 47q14 -19 40 -19q25 0 40.5 16.5t15.5 38.5q0 8 -6.5 25.5t-15.5 20.5q-27 -19 -62 -19q-28 0 -54 20q-17 -21 -56 -51v23q23 19 43 58l41 20q7 -1 10 -9l5 -17
q10 -19 35 -19q12 0 27 12q-21 29 -21 63q0 17 9 34q12 21 32 21t30.5 -17t10.5 -38q0 -20 -22 -60q56 -47 56 -88q0 -26 -3 -32q-7 -16 -15 -32q28 8 66 53q7 8 35 53v-26zM188 300l-8 8q-3 2 -10 -2q-2 -2 -2 -13q0 -18 17 -23q12 12 3 30zM209 434l113 38l10 -12
l-136 -80v0h-1l-2 3l-95 75l16 12z" />
    <glyph glyph-name="pi" unicode="&#x3c0;" horiz-adv-x="740" 
d="M746 185q0 -3 -31 -48q-37 -54 -58 -98q-31 -66 -31 -121q0 -47 27 -96q-38 -32 -76 -63q-52 -47 -58 -73l-11 4q-48 85 -48 240q0 105 34 270q-47 -63 -94 -127q-61 -72 -134 -72q-63 0 -105 52q-39 49 -39 114q0 78 45 169q28 55 100 158t97 152l-9 15
q-77 -72 -121 -101q-75 -48 -147 -48q-51 0 -98 21v15q37 28 77 110q42 -53 99 -53t128 41.5t77 41.5l10 -4l4 -16q0 -36 -61.5 -194.5t-61.5 -220.5q0 -106 100 -106q80 0 143 125q10 20 96 247q55 146 108 175l4 -11q-152 -287 -152 -559q0 -129 31 -189q20 31 34 77
q16 50 31 78q28 51 86 115q4 -10 4 -20zM449 715l140 90l51 -45l-173 -63z" />
    <glyph glyph-name="integral" unicode="&#x222b;" horiz-adv-x="430" 
d="M430 178q0 -12 -40 -61q-56 -69 -74 -96q-39 -59 -39 -95q0 -26 37 -80q-71 -44 -113 -101q-19 53 -16 113q6 127 29 201l29 77q-84 -92 -135 -92q-33 0 -58 27.5t-25 61.5q0 30 22 83q-5 -3 -45 -38v25q55 48 115 148q6 5 11 5q10 0 6 -19q-13 -26 -27 -53
q-11 -23 -11 -59q0 -78 75 -78q47 0 91 79q30 61 60 123q8 4 12 4q9 0 7 -17q-82 -208 -82 -306q0 -32 3 -40q44 53 88 105q53 65 80 111v-28zM164 406l140 90l51 -45l-174 -63z" />
    <glyph glyph-name="Omega" unicode="&#x3a9;" horiz-adv-x="584" 
d="M3 345h54q3 24 9 48h-64l11 32h62q64 198 270 245q35 8 98 8q16 0 55 -8q51 -12 51 -27q0 -5 -25 -55q-34 -68 -40 -81q-64 47 -135 47q-62 0 -112 -38q-45 -34 -69 -91h208l-13 -32h-206q-7 -24 -8 -48h217l-13 -32h-204q5 -75 55 -122q56 -53 155 -53t153 41q6 7 11 14
q10 11 17 10q4 -4 4 -15q0 -24 -46 -67q-92 -88 -210 -88q-82 0 -155 54q-84 61 -84 153q0 53 2 72l-61 1z" />
    <glyph glyph-name="Omega" unicode="&#x2126;" horiz-adv-x="584" 
d="M3 345h54q3 24 9 48h-64l11 32h62q64 198 270 245q35 8 98 8q16 0 55 -8q51 -12 51 -27q0 -5 -25 -55q-34 -68 -40 -81q-64 47 -135 47q-62 0 -112 -38q-45 -34 -69 -91h208l-13 -32h-206q-7 -24 -8 -48h217l-13 -32h-204q5 -75 55 -122q56 -53 155 -53t153 41q6 7 11 14
q10 11 17 10q4 -4 4 -15q0 -24 -46 -67q-92 -88 -210 -88q-82 0 -155 54q-84 61 -84 153q0 53 2 72l-61 1z" />
    <glyph glyph-name="radical" unicode="&#x221a;" horiz-adv-x="910" 
d="M880 323q0 -37 -12 -105l-16 -92q-23 -169 -130 -284q-109 -119 -254 -119q-220 0 -232 163q18 7 86 26q54 16 87 34h12q-3 -2 -9.5 -19t-6.5 -24q0 -23 21 -46t47 -30.5t54 -7.5q96 0 196.5 107t99.5 206q-75 -99 -144 -99q-47 0 -73.5 34t-26.5 82q0 16 3 32q2 6 -1 11
q-91 -99 -104 -110q-53 -46 -107 -46q-38 0 -64 23.5t-26 59.5q0 44 41 99q19 27 80 92q4 4 4 14q-5 5 -13 5q-29 0 -88 -57q-48 -48 -65 -76q-59 -102 -122 -151h-14q-4 5 -4 10l31.5 47.5t31.5 76.5q0 26 -19 50t-46 24q-21 0 -52 -26t-43 -56q-9 4 -4 27q0 25 69.5 89
t96.5 64q61 0 83 -105q97 105 156 105q9 0 19.5 -9.5t10.5 -17.5q0 -11 -30 -59.5t-30 -82.5q0 -57 59 -57q47 0 102 55q49 50 99 101q63 55 130 55q25 0 78 -11v-11q0 -4 -15 -36q-20 -42 -24 -52q-26 62 -88 62q-30 0 -55 -25t-25 -53q0 -38 31 -60q26 -19 60 -19
q16 0 41 12q45 21 66 59q16 29 22 75q4 37 7 74h12q7 -18 7 -28z" />
    <glyph glyph-name="approxequal" unicode="&#x2248;" horiz-adv-x="1019" 
d="M1026 183q0 -38 -74.5 -91t-120.5 -53q-35 0 -55 23.5t-20 58.5q0 37 24 80q14 25 46 65q25 32 25 39l-12 13q-70 -1 -125 -107q-36 -79 -72 -159q-34 -13 -79 -13q-18 0 -61 7q4 10 61 96q46 69 46 103l-5 2q-112 -86 -198 -86q-40 0 -52 14q11 11 35 32l34 -12
q32 0 37 12l12 -3q25 0 83.5 37.5t70.5 59.5q27 52 27 124q0 20 -3 62.5t-3 64.5q0 34 33 61q30 23 59 45q44 -46 44 -106q0 -98 -88 -206q-6 -59 -7 -48l2 -72q108 119 162 119l29 -9q-1 -24 -17 -68.5t-16 -69.5q0 -55 54 -55q78 0 120 60zM786 -128q-13 -40 -99 -68
q-70 -23 -126 -23q-152 0 -254 92q-106 95 -106 245q0 89 52 203l-17 9l-77 -6q-34 0 -95 21q-71 25 -72 51q27 18 71 56q50 44 69 59q7 -45 52 -76q41 -28 89 -28q12 0 76 63q85 85 128 120q82 66 136 71l14 -18q0 -72 -59 -136q-42 -45 -124 -93q-55 -32 -109 -64
q-27 -80 -27 -149q0 -99 65 -181q69 -89 165 -89q65 0 112 62q57 -59 64 -66q40 -38 72 -55zM719 454q0 29 -14 63q-15 39 -38 49v-10q0 -11 6.5 -33t7.5 -32q8 -100 8 -106h11q19 44 19 69zM599 617q0 8 -10 16q-64 -30 -128 -89.5t-96 -119.5l2 -5q66 14 126 61.5
t92 107.5z" />
    <glyph glyph-name="approxequal" unicode="&#x22f2;" horiz-adv-x="1019" 
d="M1026 183q0 -38 -74.5 -91t-120.5 -53q-35 0 -55 23.5t-20 58.5q0 37 24 80q14 25 46 65q25 32 25 39l-12 13q-70 -1 -125 -107q-36 -79 -72 -159q-34 -13 -79 -13q-18 0 -61 7q4 10 61 96q46 69 46 103l-5 2q-112 -86 -198 -86q-40 0 -52 14q11 11 35 32l34 -12
q32 0 37 12l12 -3q25 0 83.5 37.5t70.5 59.5q27 52 27 124q0 20 -3 62.5t-3 64.5q0 34 33 61q30 23 59 45q44 -46 44 -106q0 -98 -88 -206q-6 -59 -7 -48l2 -72q108 119 162 119l29 -9q-1 -24 -17 -68.5t-16 -69.5q0 -55 54 -55q78 0 120 60zM786 -128q-13 -40 -99 -68
q-70 -23 -126 -23q-152 0 -254 92q-106 95 -106 245q0 89 52 203l-17 9l-77 -6q-34 0 -95 21q-71 25 -72 51q27 18 71 56q50 44 69 59q7 -45 52 -76q41 -28 89 -28q12 0 76 63q85 85 128 120q82 66 136 71l14 -18q0 -72 -59 -136q-42 -45 -124 -93q-55 -32 -109 -64
q-27 -80 -27 -149q0 -99 65 -181q69 -89 165 -89q65 0 112 62q57 -59 64 -66q40 -38 72 -55zM719 454q0 29 -14 63q-15 39 -38 49v-10q0 -11 6.5 -33t7.5 -32q8 -100 8 -106h11q19 44 19 69zM599 617q0 8 -10 16q-64 -30 -128 -89.5t-96 -119.5l2 -5q66 14 126 61.5
t92 107.5z" />
    <glyph glyph-name="Delta" unicode="&#x394;" horiz-adv-x="777" 
d="M783 190q0 -35 -54 -35q-39 0 -56 13l-12 -3q-20 -48 -59 -81q-44 -36 -92 -36q-117 0 -117 145l-1 8q-36 -30 -48 -39q-28 -20 -53 -28l-4 3v21q34 18 139 115q88 81 119 81q19 0 26 -3l-6 -11q-40 -16 -66 -49q-29 -35 -29 -76q0 -37 26.5 -64t62.5 -27q20 0 48.5 17.5
t28.5 35.5q-64 51 -64 115q0 19 9 37q11 22 29 22q42 0 56 -59q6 -26 7 -91v-7q2 0 13 -7.5t13 -7.5q66 0 78 22zM734 -23q0 -102 -93 -166q-83 -58 -189 -58q-132 0 -211.5 84.5t-79.5 216.5q0 72 35 199q-30 -12 -89 -12q-47 0 -86 20q-52 27 -58 83q27 16 54 33
q44 26 51 23q5 -45 37.5 -74.5t78.5 -29.5l28 8q133 282 263 366l8 -37q0 -95 -78 -199q-45 -59 -152 -159q-9 -102 -9 -101q0 -124 58 -202q66 -87 185 -87q83 0 145 50q66 53 63 134l14 -4q25 -32 25 -88zM648 224q0 9 -13 26t-22 19q-11 -8 -11 -14q0 -11 16 -29.5
t27 -21.5q0 3 1.5 9.5t1.5 10.5zM403 543q0 6 -7 11h-10q-35 -34 -78 -112q-47 -84 -46 -124q43 14 93 97q48 80 48 128z" />
    <glyph glyph-name="Delta" unicode="&#x2206;" horiz-adv-x="777" 
d="M783 190q0 -35 -54 -35q-39 0 -56 13l-12 -3q-20 -48 -59 -81q-44 -36 -92 -36q-117 0 -117 145l-1 8q-36 -30 -48 -39q-28 -20 -53 -28l-4 3v21q34 18 139 115q88 81 119 81q19 0 26 -3l-6 -11q-40 -16 -66 -49q-29 -35 -29 -76q0 -37 26.5 -64t62.5 -27q20 0 48.5 17.5
t28.5 35.5q-64 51 -64 115q0 19 9 37q11 22 29 22q42 0 56 -59q6 -26 7 -91v-7q2 0 13 -7.5t13 -7.5q66 0 78 22zM734 -23q0 -102 -93 -166q-83 -58 -189 -58q-132 0 -211.5 84.5t-79.5 216.5q0 72 35 199q-30 -12 -89 -12q-47 0 -86 20q-52 27 -58 83q27 16 54 33
q44 26 51 23q5 -45 37.5 -74.5t78.5 -29.5l28 8q133 282 263 366l8 -37q0 -95 -78 -199q-45 -59 -152 -159q-9 -102 -9 -101q0 -124 58 -202q66 -87 185 -87q83 0 145 50q66 53 63 134l14 -4q25 -32 25 -88zM648 224q0 9 -13 26t-22 19q-11 -8 -11 -14q0 -11 16 -29.5
t27 -21.5q0 3 1.5 9.5t1.5 10.5zM403 543q0 6 -7 11h-10q-35 -34 -78 -112q-47 -84 -46 -124q43 14 93 97q48 80 48 128z" />
    <glyph glyph-name="lozenge" unicode="&#x25ca;" horiz-adv-x="16" 
 />
    <glyph glyph-name="fraction" unicode="&#x2044;" horiz-adv-x="314" 
d="M125 41q-36 0 -65 18q-33 20 -33 55q0 26 29 59q26 31 24 34q-8 5 -17 10q-14 11 -13 29l-12 -8q-9 -13 -23 -34t-19 -30l-2 18q0 15 36 59q34 41 52 55q40 30 89 30q29 0 74 -15q-27 -28 -50 -63q-40 28 -64 28q-19 0 -36.5 -12t-17.5 -31q0 -29 29 -29q5 0 14 1t13 1
l-2 -2q-28 -16 -28 -49q0 -51 83 -51q41 0 67 16q5 3 52 44l1 -6q0 -37 -70 -84q-67 -43 -111 -43z" />
    <glyph glyph-name="uniF001" unicode="&#xf001;" 
 />
    <glyph glyph-name="uniF002" unicode="&#xf002;" 
 />
    <glyph glyph-name="uniF000" unicode="&#xf000;" horiz-adv-x="19" 
 />
    <glyph glyph-name="dotlessi" unicode="&#x131;" horiz-adv-x="274" 
d="M113 38q-40 -4 -64 26q-22 27 -22 70q0 9 2.5 26t2.5 25t12 41q-12 -16 -45 -47l1 22q5 5 68 81q53 64 72 70q5 0 8.5 -3t1.5 -9q-5 -14 -32 -52q-20 -29 -20 -66q0 -93 70 -93q37 0 66 26q15 14 40 51q1 -2 0 -25q-12 -26 -58 -74q-59 -65 -103 -69z" />
    <glyph glyph-name="breve" unicode="&#x2d8;" horiz-adv-x="224" 
d="M213 783q0 -31 -29.5 -52t-66.5 -21t-68 21t-31 52h30q0 -12 19 -21t50 -9q66 0 66 30h30z" />
    <glyph glyph-name="dotaccent" unicode="&#x2d9;" horiz-adv-x="149" 
d="M36 754q0 18 12.5 30t29.5 12t29.5 -12t12.5 -30q0 -17 -12.5 -29t-29.5 -12t-29.5 12t-12.5 29z" />
    <glyph glyph-name="ring" unicode="&#x2da;" horiz-adv-x="222" 
d="M105 699q-21 0 -36.5 15t-15.5 37q0 21 15.5 36.5t36.5 15.5q22 0 37.5 -15.5t15.5 -36.5q0 -22 -15.5 -37t-37.5 -15zM105 778q-27 0 -27 -27t27 -27q28 0 28 27t-28 27z" />
    <glyph glyph-name="hungarumlaut" unicode="&#x2dd;" horiz-adv-x="273" 
d="M214 811q0 -71 -70 -113h-7q-2 0 -2 4q0 -1 17.5 20t17.5 49q0 14 -6 29q23 8 48 19l1 -3t1 -5zM134 811q0 -71 -70 -113h-7q-2 0 -2 4q0 -1 17.5 20t17.5 49q0 14 -6 29q23 8 48 19l1 -3t1 -5z" />
    <glyph glyph-name="ogonek" unicode="&#x2db;" horiz-adv-x="329" 
d="M187 16l24 -6q-39 -23 -56 -43q-29 -34 -29 -82q0 -24 15 -39.5t30 -15.5q14 0 31 16q14 16 28 31l10 -27q-32 -35 -40 -42q-23 -18 -51 -18q-30 0 -53 19q-28 23 -28 64q0 71 36 105q25 24 83 38z" />
    <glyph glyph-name="caron" unicode="&#x2c7;" horiz-adv-x="354" 
d="M168 765l132 45l13 -14l-160 -94h-1v0l-3 3l-112 89l20 14z" />
    </font>
</defs>
</svg>
