<?xml version="1.0" standalone="no"?>
<!DOCTYPE svg PUBLIC "-//W3C//DTD SVG 1.1//EN" "http://www.w3.org/Graphics/SVG/1.1/DTD/svg11.dtd" >
<svg>
<metadata>
Created by FontForge 20120731 at Tue Apr 16 17:05:01 2019
 By www-data
Digitized by Dan X. Solo. Software (c) 2000 by Dover Publications, Inc., New York.
</metadata>
<defs>
<font id="Tambo" horiz-adv-x="20" >
  <font-face 
    font-family="Tambo"
    font-weight="400"
    font-stretch="normal"
    units-per-em="1000"
    panose-1="0 0 4 0 0 0 0 0 0 0"
    ascent="800"
    descent="-200"
    x-height="417"
    cap-height="674"
    bbox="-79 -246 1935 877"
    underline-thickness="20"
    underline-position="-123"
    unicode-range="U+0020-F002"
  />
<missing-glyph horiz-adv-x="500" 
d="M63 0v800h375v-800h-375zM125 63h250v675h-250v-675z" />
    <glyph glyph-name=".notdef" horiz-adv-x="500" 
d="M63 0v800h375v-800h-375zM125 63h250v675h-250v-675z" />
    <glyph glyph-name=".null" horiz-adv-x="0" 
 />
    <glyph glyph-name="nonmarkingreturn" horiz-adv-x="285" 
 />
    <glyph glyph-name="space" unicode=" " horiz-adv-x="285" 
 />
    <glyph glyph-name="exclam" unicode="!" horiz-adv-x="493" 
d="M484 640q0 -65 -70 -173q-65 -100 -150 -179q-88 -82 -136 -82q-18 0 -28 12l120 286q80 179 133 179q7 0 52 -10q51 -10 73 -13q0 -1 3 -6.5t3 -13.5zM235 100q0 -44 -70 -80q-56 -29 -84 -29q-25 0 -50 15q-30 19 -30 46q0 45 69 78q57 26 101 26q29 0 46.5 -16.5
t17.5 -39.5z" />
    <glyph glyph-name="quotedbl" unicode="&#x22;" horiz-adv-x="431" 
d="M380 642q0 -56 -64.5 -147.5t-102.5 -91.5q-9 0 -14 7q13 26 41 157q21 98 48 98q-9 0 89 -12q0 -1 1.5 -4t1.5 -7zM180 642q0 -56 -64.5 -147.5t-102.5 -91.5q-9 0 -14 7q13 26 41 157q21 98 48 98q-9 0 89 -12q0 -1 1.5 -4t1.5 -7z" />
    <glyph glyph-name="numbersign" unicode="#" horiz-adv-x="732" 
d="M438 400l-112 -1q-26 -64 -56 -126h137zM80 474h104q58 209 115 209q7 0 31 -5q29 -5 59 -8q0 -2 4 -7.5t4 -13.5q0 -55 -42 -174l103 1q57 207 114 207q7 0 31 -5q29 -5 59 -8q0 -2 4 -7.5t4 -13.5q0 -55 -41 -172l80 1q8 0 13 -4.5t4 -10.5l-8 -47q-2 -15 -22 -15h-96
q-26 -65 -57 -128h114q20 0 17 -15l-8 -46q-2 -15 -22 -15h-140q-106 -196 -163 -196q-11 0 -20 8q31 49 67 188h-157q-106 -196 -163 -196q-11 0 -20 8q31 49 67 188h-100q-19 0 -17 15l8 46q2 15 22 15h106l30 125l-97 -1q-8 0 -13 4.5t-4 10.5l8 46q2 15 22 16z" />
    <glyph glyph-name="dollar" unicode="$" horiz-adv-x="962" 
d="M918 605q0 -54 -86 -99q-71 -37 -108 -37q-55 0 -55 45q0 -4 10 58q-21 4 -47 -11q-22 -54 -71 -147q92 -34 183 -69q158 -67 158 -137q0 -98 -238 -160q-122 -31 -270 -46q-13 -1 -29 -33q-13 -27 -25 -53q-3 -5 -8 -5q-4 0 -14 3.5t-15 3.5t-8 -2q6 21 17 44
q15 29 18 36q-10 10 -134 10q-119 23 -149 45q-40 29 -40 114q0 96 66 96q115 0 140 -22q14 -25 27 -49q29 -33 141 -50q14 23 28 60q12 29 24 59q-119 27 -238 53q-130 38 -130 128q0 135 272 198q114 26 272 35l49 87l52 2q-2 -20 -36 -92q46 2 59 2q185 0 185 -67z
M555 548q-138 -30 -174 -90q38 -8 119 -32q17 26 31 63q12 30 24 59zM699 170q-36 31 -100 51q-56 14 -111 27l-49 -111l122 3q16 -1 138 30z" />
    <glyph glyph-name="percent" unicode="%" horiz-adv-x="1070" 
d="M721 -17q-178 0 -178 147q0 118 117 192q93 58 184 58q71 0 115 -37q52 -44 52 -132q0 -113 -126 -180q-91 -48 -164 -48zM514 220q-197 -234 -283 -234q-23 0 -40 15q146 219 284 394q223 284 300 284q41 0 54 -6t13 -18q0 -8 -6 -17l-138 -186q-104 -138 -184 -232z
M175 283q-178 0 -178 147q0 118 117 192q93 58 184 58q71 0 115 -37q52 -44 52 -132q0 -113 -126 -180q-91 -48 -164 -48zM835 284q-38 0 -90 -60t-52 -116v-30q1 -20 6 -20q17 0 88 57q79 63 79 104q0 65 -31 65zM289 584q-38 0 -90 -60t-52 -116v-30q1 -20 6 -20
q17 0 88 57q79 63 79 104q0 65 -31 65z" />
    <glyph glyph-name="ampersand" unicode="&#x26;" horiz-adv-x="1131" 
d="M1113 52q-53 -42 -96 -55q-32 -10 -84 -10q-72 0 -134 14q-35 7 -84 25q-39 14 -54 14q-2 0 -55 -14q-63 -16 -120 -25q-86 -14 -166 -14q-94 0 -178 21q-142 34 -142 112q0 65 63 117q42 35 130 76q92 43 109 56q-8 36 -8 67q0 125 121 182q87 41 219 41q76 0 160 -60
q-1 -102 -266 -232q14 -33 86 -115q88 -100 135 -100q8 0 41.5 30t51.5 53q-5 14 -48 20q-60 10 -73 15q-39 13 -39 45q0 45 102 65q59 12 114 12q59 0 87 -9q49 -15 49 -58q0 -103 -197 -213q27 -21 83 -34q51 -11 101 -11q43 0 92 15v-30zM623 567q-26 28 -66 28
q-61 0 -61 -104q0 -15 9 -45q38 11 76 45q46 40 42 76zM560 91q-121 60 -215 189q-25 -5 -64 -24q-62 -30 -62 -61q0 -57 125 -89q88 -23 154 -23q37 0 62 8z" />
    <glyph glyph-name="quotesingle" unicode="'" horiz-adv-x="214" 
d="M180 642q0 -56 -64.5 -147.5t-102.5 -91.5q-9 0 -14 7q13 26 41 157q21 98 48 98q-9 0 89 -12q0 -1 1.5 -4t1.5 -7z" />
    <glyph glyph-name="parenleft" unicode="(" horiz-adv-x="429" 
d="M132 86q0 -49 15 -91q22 -64 70 -78v-41q-15 -16 -39 -16q-79 0 -142 114q-51 93 -51 154q0 106 155 317q130 177 221 250l55 -16q-86 -92 -183 -290q-101 -205 -101 -303z" />
    <glyph glyph-name="parenright" unicode=")" horiz-adv-x="340" 
d="M21 -114h-49q28 82 65 177q49 126 53 136q50 137 50 239q0 69 -17 112q-24 62 -102 150h88q42 0 87 -61q35 -46 66 -117q26 -60 26 -76q0 -175 -267 -560z" />
    <glyph glyph-name="asterisk" unicode="*" horiz-adv-x="339" 
d="M298 523q-35 -21 -112 -6q65 -59 65 -72q0 -2 -2 -5q-11 -14 -30 -39q-1 0 -6 2q-36 20 -62 94q-13 -60 -14 -63q-9 -30 -20 -30q5 0 -49 7l-1 2t-1 4q0 41 50 100q-70 -22 -82 -22t-15 6q-7 17 -19 45q1 1 2 2.5t3 2.5q35 21 112 7q-64 58 -64 71q0 3 1 5q11 14 30 39
q1 0 6 -2q36 -20 62 -94q13 60 14 63q9 30 21 30q-5 0 48 -7l1 -2t1 -4q0 -41 -50 -100q70 22 82 22t15 -6q7 -17 19 -45q-1 -2 -5 -5z" />
    <glyph glyph-name="plus" unicode="+" horiz-adv-x="565" 
d="M361 538q0 -64 -30 -170h178q28 0 28 -34q0 1 -6 -44q-4 -28 -32 -28h-204q-34 -88 -68 -138q-65 -99 -113 -39q28 59 55 177h-154q-28 0 -28 35q0 -2 6 43q4 28 32 28h168q50 213 111 213q18 0 37.5 -13t19.5 -30z" />
    <glyph glyph-name="comma" unicode="," horiz-adv-x="313" 
d="M256 79q0 -72 -107 -133q-88 -51 -141 -51q-32 0 -51 30q68 29 123 63q-9 7 -51 23q-24 8 -24 36q0 44 70 72q52 21 93 21q88 0 88 -61z" />
    <glyph glyph-name="hyphen" unicode="-" horiz-adv-x="508" 
d="M457 295q-8 -33 -34 -69q-42 -56 -101 -56l-319 3q19 85 65 109q25 13 97 12z" />
    <glyph glyph-name="hyphen" unicode="&#x2010;" horiz-adv-x="508" 
d="M457 295q-8 -33 -34 -69q-42 -56 -101 -56l-319 3q19 85 65 109q25 13 97 12z" />
    <glyph glyph-name="period" unicode="." horiz-adv-x="299" 
d="M233 94q0 -53 -64 -79q-42 -17 -85 -17q-33 0 -57 13q-28 16 -28 46q0 47 66 75q49 21 91 21q33 0 55 -17t22 -42z" />
    <glyph glyph-name="slash" unicode="/" horiz-adv-x="468" 
d="M455 677q0 -68 -97 -249q-91 -170 -199 -313q-116 -153 -162 -153q-9 0 -15 7q162 340 201 415q160 308 209 308q63 0 63 -15z" />
    <glyph glyph-name="zero" unicode="0" horiz-adv-x="933" 
d="M902 371q0 -128 -125 -223q-96 -73 -251 -117q-121 -35 -195 -35q-331 0 -331 227q0 133 115 235q94 84 247 135q131 43 234 43q132 0 211 -56q95 -68 95 -209zM700 384q0 56 -22 99q-31 59 -97 59q-111 0 -238 -121q-129 -124 -129 -239q0 -34 10 -69q18 -62 58 -62
q30 0 132 55q112 61 189 129q97 86 97 149z" />
    <glyph glyph-name="one" unicode="1" horiz-adv-x="588" 
d="M557 632q0 -6 -78 -235q-92 -270 -120 -359q-7 -21 -32.5 -33.5t-50.5 -12.5q-28 0 -70 14q-53 17 -58 41l125 361q-18 31 -39 38q-8 3 -34 3q-53 0 -142 -45q-4 1 -9 12.5t-10 11.5l14 46q9 29 25 38q12 8 72 24q67 18 92 29q30 12 140 65q90 43 99 43q19 0 47.5 -14.5
t28.5 -26.5z" />
    <glyph glyph-name="two" unicode="2" horiz-adv-x="844" 
d="M806 568q0 -101 -109 -188q-77 -61 -224 -124l-180 -76q7 -9 38 -9q-54 1 43.5 1t192.5 13q66 8 130 23l53 12h28q-27 -138 -151 -182q-68 -25 -222 -25q-104 4 -181 8q-182 9 -196 16q7 45 48 132q9 6 153 72.5t220 123.5q111 85 111 170q0 36 -36 55q-26 14 -51 14
q-87 0 -123 -51q-25 -48 -49 -95q-36 -51 -120 -51q-24 0 -44 12q-25 15 -25 40q0 69 111 126q84 43 216 72q105 23 151 23q216 0 216 -112z" />
    <glyph glyph-name="three" unicode="3" horiz-adv-x="870" 
d="M411 22h-26v10h26v-10zM327 22v0v0v0zM280 19v0v0v0zM794 563q0 -70 -118 -131q-72 -32 -144 -63l136 -28q121 -33 121 -93q0 -92 -126 -156q-92 -46 -241 -72q-100 -18 -150 -18q-78 0 -152 18q-124 29 -124 94q0 58 78 111q67 45 108 45q60 0 60 -57q0 -37 -17 -60
q-10 -14 -37.5 -34t-38.5 -36q64 -15 96 -15q63 0 154 38q127 54 127 140q0 74 -223 74v25q71 39 142 79q114 63 114 81q0 34 -117 28q-114 0 -193 -19q-48 -11 -95 -34q-37 -18 -52 -18h-23q15 132 124 173q63 23 217 23q374 0 374 -95z" />
    <glyph glyph-name="four" unicode="4" horiz-adv-x="958" 
d="M921 313q-37 -108 -87 -138q-33 -20 -123 -20q-6 0 -16.5 3t-16.5 3q-17 0 -50 -71l-36 -82l-120 16q-35 6 -36 20q1 3 8 66q6 45 9 45l-272 -5q-178 0 -178 63q0 35 47 82q24 24 85 71q167 128 372 214q186 78 362 106l25 -8l-164 -365q49 -8 191 0zM620 548
q-143 -72 -210 -113q-124 -75 -152 -131l246 -6q24 43 59 122q45 104 57 128z" />
    <glyph glyph-name="five" unicode="5" horiz-adv-x="933" 
d="M884 633q-4 -101 -102 -128q-38 -11 -165 -11q-6 0 -80 3t-82 3q-50 0 -71 -32q-15 -22 -20 -78q155 28 187 28q81 0 152 -28q110 -42 110 -133q0 -144 -239 -215q-152 -45 -285 -45q-96 0 -165 18q-114 30 -114 102t71 104q48 22 115 22q115 0 115 -52q0 -51 -99 -94
q6 -12 37 -21q28 -8 53 -8q61 0 151 40q114 52 114 124q0 83 -158 83q-12 0 -25 -1h-13q-4 0 -95 -5q-98 -6 -145 -7q3 6 100 215q60 130 71 130l391 -22q100 0 191 8z" />
    <glyph glyph-name="six" unicode="6" horiz-adv-x="882" 
d="M366 35l-21 -10v8l18 10zM819 598q0 66 -183 66q-122 0 -263 -50q-166 -58 -267 -160q-123 -124 -123 -290q0 -85 86 -128q67 -34 166 -34q66 0 175 29q146 39 237 106q118 87 118 210q0 65 -85 95q-55 19 -120 19q-89 0 -158 -23q-92 -32 -117 -101q30 11 80 22
q45 10 58 10q36 0 66 -24t30 -64q0 -75 -88 -141q-81 -63 -154 -63q-9 0 -16 2q-37 50 -37 112q0 129 117 267q114 133 239 163q0 -29 36 -55q40 -28 100 -28q34 0 65 14q38 17 38 46zM101 38v0v0v0z" />
    <glyph glyph-name="seven" unicode="7" horiz-adv-x="832" 
d="M744 584q0 51 -172 72q-95 13 -194 13q-120 0 -200 -17q-150 -31 -135 -112q3 -18 -17 -52.5t-20 -37.5q0 -8 4.5 -11t9.5 -5q169 98 367 98q88 0 79 0v-25q-1 -8 -5.5 -14.5t-7.5 -11.5q-20 -40 -28 -54q-50 -92 -66 -92q12 0 -50.5 3t-153.5 2q-63 -95 -58 -117l147 -8
q19 -1 25 -13q-7 -9 -80 -93q-52 -60 -67 -89q29 0 89.5 -6.5t62.5 -6.5q29 0 37 8q32 27 115 111q72 73 87 82q20 11 66 5t65 4q25 12 47 48q18 31 36 63q-41 4 -114 11q36 56 73 111q58 94 58 134z" />
    <glyph glyph-name="eight" unicode="8" horiz-adv-x="933" 
d="M864 557q0 -75 -77 -124q-40 -26 -158 -68q21 -21 68 -53t63 -50q27 -30 27 -66q0 -105 -200 -156q-125 -33 -234 -33q-6 0 -32.5 -2.5t-33.5 -2.5q-281 0 -281 137q0 68 56 117q42 36 120 64q54 17 108 35q-2 13 -47.5 54.5t-45.5 81.5q0 92 177 145q129 38 241 38
q115 0 167 -16q82 -26 82 -101zM656 565q0 43 -63 43q-26 0 -66 -7q-33 -6 -103 -45q8 -62 76 -106q156 70 156 115zM563 147q0 22 -56.5 69.5t-77.5 47.5t-106 -49q-93 -54 -93 -85q0 -35 76 -52q46 -11 85 -11q38 0 92 16q80 23 80 64z" />
    <glyph glyph-name="nine" unicode="9" horiz-adv-x="933" 
d="M829 496q0 -163 -129 -285q-104 -99 -275 -156q-142 -48 -257 -48q-64 0 -75 2q-35 4 -66 16q-14 6 -29 22q-1 25 13 57q7 10 16 16q21 13 56 13q73 0 127 -35q8 -13 32 -42q122 32 236 176q110 139 110 245q0 26 -13 67q-16 54 -39 54q-55 0 -144 -64
q-104 -74 -104 -152q0 -40 79 -85l155 31q-18 -27 -62 -78q-16 -14 -60 -23q-86 -17 -164 -17q-73 0 -122 19q-72 28 -72 95q0 119 115 205q89 66 234 105q112 29 189 29q249 0 249 -167z" />
    <glyph glyph-name="colon" unicode=":" horiz-adv-x="289" 
d="M264 276q0 -49 -60 -73q-39 -15 -81 -15q-83 0 -83 56q0 44 53 69q41 19 88 19q83 0 83 -56zM210 90q0 -48 -60 -75q-42 -19 -78 -19q-34 0 -57 18.5t-23 45.5q0 37 60 64q47 21 81 21q26 0 50 -13q27 -17 27 -42z" />
    <glyph glyph-name="semicolon" unicode=";" horiz-adv-x="360" 
d="M303 284q0 -53 -64 -79q-42 -17 -85 -17q-33 0 -57 13q-28 16 -28 46q0 47 66 75q49 21 91 21q33 0 55 -17t22 -42zM256 79q0 -72 -107 -133q-88 -51 -141 -51q-32 0 -51 30q68 29 123 63q-9 7 -51 23q-24 8 -24 36q0 44 70 72q52 21 93 21q88 0 88 -61z" />
    <glyph glyph-name="less" unicode="&#x3c;" horiz-adv-x="397" 
d="M81 649q0 -15 10 -21q3 -2 22 -6q26 -6 26 -100q0 -45 -20.5 -132t-20.5 -130q0 4 9 -47v47q0 53 28.5 158.5t28.5 159.5q0 98 -53 98q-11 0 -20.5 -8t-9.5 -19zM5 520q0 -1 15 -26.5t15 -41.5q0 -21 -10 -63t-10 -64q0 -94 74 -202q80 -117 168 -117q12 0 38.5 -5.5
t39.5 -5.5l40 1q13 -1 13 13q0 18 -13 18q-81 6 -129 46q-53 45 -53 124q0 57 43 107l80 84q44 53 44 119q0 25 -23.5 66.5t-46.5 42.5l-6 -6q19 -30 19 -56q0 -40 -35 -94q-33 -49 -66 -97q-36 -63 -36 -125q0 -75 26 -120q31 -56 111 -90v-1l-6 -1q-66 -4 -113 76
q-40 70 -40 143q0 57 31 121q8 17 58 99q31 51 31 78q0 14 -11.5 41.5t-9.5 45.5q2 16 2 31q0 95 -65 95q-4 0 -12 -6t-8 -10q0 -9 15 -22q21 -16 28 -27q15 -22 15 -54q0 -62 -48.5 -186t-48.5 -190q0 -140 100 -225l-2 -1q-40 0 -92 88q-50 85 -45 128l18 145q5 40 -19 81
q-28 49 -74 50z" />
    <glyph glyph-name="equal" unicode="=" horiz-adv-x="642" 
d="M587 385q-4 -15 -34 -93l-480 1q11 54 44 75q24 16 71 17h399zM535 217q-6 -26 -33 -53q-40 -39 -100 -39h-394l37 92h490z" />
    <glyph glyph-name="greater" unicode="&#x3e;" horiz-adv-x="397" 
d="M299 649q0 -15 -10 -21q-4 -2 -22 -6q-26 -6 -26 -100q0 -45 20.5 -132t20.5 -130q0 4 -9 -47v47q0 53 -28.5 158.5t-28.5 159.5q0 98 53 98q11 0 20.5 -8t9.5 -19zM375 520q0 -1 -15 -26.5t-15 -41.5q0 -21 9.5 -63t9.5 -64q0 -94 -74 -202q-80 -117 -167 -117
q-12 0 -38.5 -5.5t-39.5 -5.5l-40 1q-14 -1 -14 13q0 18 14 18q81 6 128 46q54 45 54 124q0 57 -43 107q-41 42 -81 84q-43 53 -43 119q0 25 23.5 66.5t45.5 42.5l7 -6q-19 -30 -19 -56q0 -40 35 -94q33 -49 66 -97q36 -63 36 -125q0 -75 -26 -120q-32 -56 -111 -90v-1l6 -1
q66 -4 113 76q40 70 40 143q0 57 -31 121q-9 17 -58 99q-32 51 -32 78q0 14 12 41.5t10 45.5q-3 16 -3 31q0 95 66 95q4 0 12 -6t8 -10q0 -9 -15 -22q-21 -16 -28 -27q-15 -22 -15 -54q0 -62 48 -186t48 -190q0 -140 -99 -225l2 -1q40 0 92 88q50 85 45 128l-19 145
q-5 40 19 81q28 49 75 50z" />
    <glyph glyph-name="question" unicode="?" horiz-adv-x="510" 
d="M495 536q0 -38 -49 -82q-24 -23 -107 -80q-74 -51 -105 -84q6 -15 48 -26q32 -8 59 -8q39 0 95 4q-25 -41 -66 -57q-52 -22 -160 -22q-67 0 -118 16q-82 24 -82 80q0 60 106 136q70 47 140 93q-24 14 -55 17q2 0 -52 0l-165 -10q32 68 117 118q78 46 139 46q72 0 152 -32
q103 -41 103 -109zM247 109q3 -10 3 -19q0 -42 -53 -68q-40 -21 -86 -24q-61 -5 -95 10q0 2 -7 11t-7 16q0 51 48 76q38 20 93 20q68 0 104 -22z" />
    <glyph glyph-name="at" unicode="@" horiz-adv-x="22" 
 />
    <glyph glyph-name="A" unicode="A" horiz-adv-x="1180" 
d="M1210 608q0 3 -109.5 -170.5t-109.5 -217.5q0 -59 139 -59q12 0 44 2q-19 -25 -150 -93q-146 -75 -210 -75q-89 0 -89 64q0 36 51 148q-11 13 -41 13l-23.5 3t-41.5 3q-38 0 -59 -13q-84 -65 -169 -131q-162 -112 -269 -112q-5 0 -16.5 -1t-17.5 -1q-35 0 -72 24
q-17 11 -50 101.5t-33 126.5q0 26 24 45q21 17 55 22l327 -7q6 -2 15 -2q46 0 168 72q72 44 231 152q150 102 201 131q-34 -62 -127 -162q-76 -78 -153 -156q6 -3 23 -3q15 0 43 3q16 1 32 3q69 103 137 205q112 162 153 162q33 0 65 -26.5t32 -50.5z" />
    <glyph glyph-name="B" unicode="B" horiz-adv-x="1104" 
d="M1076 256q0 -101 -168 -171q-123 -51 -321 -80q-135 -20 -198 -20q-72 0 -138 16q-95 24 -95 71q0 32 86 153q90 128 132 127h32q-14 -31 -46 -78q-15 -22 -15 -54q0 -102 248 -102q74 0 144 17q119 30 119 95q0 48 -130 48q-15 0 -31 -1t-15 -1t-81.5 -2t-125.5 -2
q30 51 135 83q93 28 187 56q102 41 133 113q-12 8 -41 8q-201 0 -484 -128q-301 -136 -421 -301q-10 26 -10 61q0 236 150 330q77 48 273 108q233 70 393 70q24 0 45 -1q118 -10 149 -17q94 -22 94 -76q0 -48 -41 -109q-39 -57 -97 -99q5 -6 43 -21q43 -16 63 -32
q32 -25 32 -61z" />
    <glyph glyph-name="C" unicode="C" horiz-adv-x="924" 
d="M905 651q0 -105 -91 -150q-56 -27 -186 -41q-121 -13 -148 -32q-40 -29 -167 -194q99 -29 199 -29q96 0 205 20q89 17 178 35q-95 -139 -270 -213q-148 -62 -305 -62q-105 0 -178 18q-136 34 -136 125q0 65 81 154q47 53 154 142q-20 15 -60 15q-14 0 -43 -2.5t-43 -2.5
q-15 0 -27 2q15 22 32 45.5t37 22.5q30 -2 58 -2q130 0 241 46l176 86q106 46 224 46q-3 0 31 -3q24 -1 38 2v-28z" />
    <glyph glyph-name="D" unicode="D" horiz-adv-x="1164" 
d="M1150 442q0 -166 -144 -277q-113 -87 -302 -132q-141 -33 -264 -33q-84 0 -142 16q-98 28 -98 96q0 56 95 181l140 174q-3 3 -23 3q-100 0 -200 -48q-80 -37 -226 -141v37q-1 9 48.5 124t150.5 166q74 36 200 47q100 7 200 15q5 1 18 14.5t22 17.5q41 23 91 23
q13 0 25 -12q-10 -20 -31 -41q117 -18 223 -54q217 -73 217 -176zM1088 373q0 40 -189 75q-148 27 -206 27q-79 0 -124 -2q-22 -22 -80 -112q-65 -100 -65 -126q0 -56 177 -56q19 0 130 23q143 31 233 67q124 50 124 104z" />
    <glyph glyph-name="E" unicode="E" horiz-adv-x="1098" 
d="M1085 635q0 -52 -42 -76q-31 -18 -76 -18q-6 0 -111 15t-111 15q-33 0 -92 -33q-65 -36 -65 -66q0 -40 93 -66q52 -10 104 -21q3 -4 0 -17q-2 -14 -9 -15l-216 -54q-168 -45 -253 -91q92 -19 107 -21q65 -10 164 -10q96 0 304 31q177 27 200 35q-69 -134 -320 -201
q-183 -49 -378 -49q-138 0 -234 25q-156 41 -156 141q0 91 94 148q65 39 186 65q134 28 135 29q-6 10 -40 34q-26 18 -26 47q0 68 152 120q113 38 293 63q132 19 182 19q52 0 68 -3q47 -10 47 -46z" />
    <glyph glyph-name="F" unicode="F" horiz-adv-x="883" 
d="M874 683q-47 -99 -117 -156q-73 -58 -158 -58h-162q-14 -20 -75 -135q14 -8 153 -8q186 0 353 14q-14 -86 -215 -121q-123 -22 -291 -22q-42 0 -63 6l-68 -116q-60 -100 -77 -100q-42 0 -71 20q-34 24 -34 68q0 77 149 421q-31 13 -62 25q-58 25 -91 52q-47 38 -47 78v38
h22q-1 0 58 -8q70 -9 151 -15q117 -8 250 -8q171 0 264 13q90 12 93 12h38z" />
    <glyph glyph-name="G" unicode="G" horiz-adv-x="1098" 
d="M1075 610q0 -38 -39 -60q-33 -19 -74 -20q-134 -14 -201 -14q-8 0 -47.5 2t-48.5 2q-40 0 -202 -128.5t-177 -169.5q95 -19 159 -19q203 0 394 97l70 40q57 32 66 32q18 0 54 -46.5t36 -63.5q0 -53 -101 -167q-65 -73 -146 -145q-23 -23 -72 -58q-98 -52 -171 -72
q-81 -22 -184 -22q-88 0 -151 14q-104 23 -104 78q0 29 19 50.5t47 21.5q60 0 132 -25q91 -32 85 -78q113 13 229 113q111 95 156 206q-123 -51 -247 -101q-165 -67 -249 -67q-19 0 -57.5 -5t-57.5 -5q-69 0 -130 43q-69 48 -69 116q0 99 181 229q153 110 396 206
q266 105 430 105q33 0 53.5 -27.5t20.5 -61.5z" />
    <glyph glyph-name="H" unicode="H" horiz-adv-x="1129" 
d="M1129 350q-5 -36 -22 -69q-19 -38 -46 -51q-12 -5 -35.5 -6t-45.5 -1q-16 -20 -55 -92q-36 -67 -64 -97q-42 -45 -95 -45q-56 0 -86 21l100 202q-11 12 -26 12q-1 0 -14 -1q-16 -2 -43 -2q-39 -2 -105 -2q-37 -59 -75 -119q-78 -115 -115 -115q-45 0 -151 54t-185 119
q-92 75 -92 124q0 13 7 23q31 29 222 29l213 -5q40 0 69 148q16 96 33 192q28 -3 56 -5q54 -7 86 -22q44 -21 44 -56q0 -27 -32 -129q-27 -89 -36 -107v-21h168q38 0 83 141q26 92 52 185q46 3 109 -13q77 -20 77 -54q0 -51 -91 -246q8 -8 17 -8q23 0 78 16zM402 208l-11 11
l-110 -12q-71 -11 -71 -55q0 -30 32 -45q24 -12 59 -12q50 0 65 27z" />
    <glyph glyph-name="I" unicode="I" horiz-adv-x="854" 
d="M875 593q0 -48 -54 -146q-36 -62 -71 -124q25 -6 114 1q0 -26 -63 -98q-13 -1 -40.5 3.5t-39.5 4.5q-23 0 -34 -11q-151 -151 -227 -194q-70 -40 -172 -40q-103 0 -192 58q-103 66 -103 168q0 56 40 76q27 14 83 14h365q51 0 102 104q33 77 67 153v17h-122
q-64 0 -208 -49q-136 -45 -192 -80q13 51 26 101q22 67 61 88q50 26 228 33q61 2 266 2q166 0 166 -81zM472 218q-68 0 -110 -1q-29 0 -45 -1t-17 -1q-5 0 -211 12q99 -80 220 -80q152 0 163 71z" />
    <glyph glyph-name="J" unicode="J" horiz-adv-x="775" 
d="M789 571q0 -65 -45 -160q-38 -75 -75 -150q13 -5 105 -4q-6 -21 -13 -34q-14 -25 -36 -36q-5 -2 -63 -5q-52 -3 -71 -21q-272 -262 -475 -262q-57 0 -97 16q-59 25 -59 79q0 99 111 166q84 51 220 78q106 20 164 16q119 170 166 298q-10 12 -19 12q-13 0 -116 -40
t-114 -40q4 7 17 54q10 37 23 54q19 24 135 50q104 23 151 23q91 0 91 -94zM372 147h-55q-69 0 -122 -77q-43 -65 -43 -116q0 -18 16 -36q101 92 204 229z" />
    <glyph glyph-name="K" unicode="K" horiz-adv-x="940" 
d="M932 614q0 -16 -26 -68q-30 -59 -53 -59q-4 0 -16.5 10t-18.5 10q-14 0 -143 -85q-106 -69 -178 -119q50 -68 101 -135q55 -72 96 -104q55 -41 116 -41q48 0 62 8q22 12 57 18l3 -20q-62 -55 -133 -93q-80 -42 -135 -42q-61 0 -140 75q-51 49 -119 141q-56 76 -62 76
q-24 0 -139.5 -98.5t-128.5 -98.5q-14 0 -50 30t-36 45q0 5 127 231.5t127 280.5q0 35 -31 46t-60 20q5 10 39 20q28 7 37 7q66 0 132 -10q113 -18 113 -59q0 -23 -93 -169q-112 -175 -119 -188q141 110 282 221q270 205 330 205q27 0 43 -16t16 -39z" />
    <glyph glyph-name="L" unicode="L" horiz-adv-x="813" 
d="M797 222q0 -57 -62 -132q-65 -81 -128 -81h-81l-276 48q-8 1 -37 -29q-38 -41 -64 -59q-46 -32 -95 -32q-8 0 -36 11t-31 14q22 102 71 169q63 84 152 84q5 0 20 -2.5t21 -2.5q9 0 35 46t27 56q-7 4 -88 10.5t-122 27.5q-63 30 -63 98v25q174 -28 239 -28q89 0 140 61
q23 27 61 113q27 60 56 60t95 -48q70 -50 70 -81q0 -32 -41 -71q-25 -23 -89.5 -67.5t-87.5 -66.5q-37 -35 -74 -69q-48 -48 -58 -72l278 -32q6 0 22 2.5t23 3.5q39 3 116 61q7 -7 7 -17z" />
    <glyph glyph-name="M" unicode="M" horiz-adv-x="1224" 
d="M1225 194q-11 -54 -122 -128q-107 -72 -167 -72q-69 0 -128 25q-76 33 -76 92q0 23 10.5 70t9.5 72q-9 -6 -165 -142q-123 -108 -163 -108q-41 0 -88 40l-9 20q8 78 8 101l-3 50q-20 -16 -47 -51q-31 -41 -44 -54q-111 -115 -172 -115q-26 0 -60 16q92 98 167 194
q18 27 55 81q141 199 198 316q8 16 27 47q9 7 15 7q19 0 52 -18q37 -19 37 -35q0 -44 -14.5 -131t-14.5 -131q0 -59 41 -59q15 0 28 6q37 16 130 86q90 67 120 100q92 99 147 134q82 52 189 52q17 0 35 -1q-207 -250 -264 -456q35 -26 123 -26q22 0 70.5 9.5t74.5 8.5z" />
    <glyph glyph-name="N" unicode="N" horiz-adv-x="990" 
d="M967 489q0 -51 -35 -168q-41 -141 -99 -232q-73 -116 -155 -116q-13 0 -142 156q-167 202 -179 216l-120 -184q-113 -164 -164 -164q-29 0 -64 21q28 89 127 284q91 182 91 183q0 38 -79 73q-68 30 -97 28q11 23 107.5 50t164.5 27q79 0 220 -215q84 -135 167 -270
q100 220 100 321q0 56 -15 77q-25 34 -117 65q24 13 100 13q153 0 189 -41v-124z" />
    <glyph glyph-name="O" unicode="O" horiz-adv-x="1095" 
d="M1085 426q0 -136 -150 -243q-116 -84 -301 -138q-147 -43 -228 -43q-96 0 -220 41q-189 62 -189 180q0 141 198 259q151 89 388 151q188 50 266 50q28 0 46 -7q25 -10 72 -45l-166 -44q-108 -29 -177 -70q45 2 129 14q73 10 126 10q94 0 137 -16q69 -26 69 -99zM805 343
q0 52 -67 82q-50 23 -99 23q-134 0 -257 -74q-147 -87 -194 -239q52 -10 73 -10q45 0 160 20q155 28 253 69q131 56 131 129z" />
    <glyph glyph-name="P" unicode="P" horiz-adv-x="886" 
d="M871 448q0 -139 -139 -218q-108 -61 -231 -61q-199 0 -218 43q28 2 109 26q121 35 197 82q105 64 105 143q0 45 -28 60q-16 8 -53 8q-95 0 -116 -11q-11 -6 -201 -268q-185 -255 -207 -255q-24 0 -76 40q61 210 265 447q-121 -11 -263 -85q-7 7 -7 17q0 22 46 97
q44 72 54 75q77 27 211 44q123 17 218 17q142 0 210 -25q124 -44 124 -176z" />
    <glyph glyph-name="Q" unicode="Q" horiz-adv-x="1104" 
d="M1102 82q-6 -38 -107 -81q-91 -38 -137 -38q-61 0 -188.5 73.5t-193.5 73.5q-10 0 -56 -15t-52 -22q14 -12 61 -16q43 -3 56 -27q0 -5 -6.5 -11.5t-13 -6.5t-25.5 -5t-25 -5q-118 0 -238 47q-172 66 -172 191q0 114 144 204q202 127 403 176q157 39 367 39q64 0 106 -51
q39 -46 39 -106q0 -89 -77 -192q-83 -110 -193 -144q135 -86 226 -86q40 0 82 2zM863 453q0 39 -26 72q-32 40 -87 40q-46 0 -174 -63q-142 -70 -239 -153q-121 -101 -121 -183q0 -20 18 -46q20 -30 46 -30q9 0 141 83.5t172 83.5q20 0 63 -22t45 -22q51 0 110 108
q52 94 52 132z" />
    <glyph glyph-name="R" unicode="R" horiz-adv-x="949" 
d="M947 17q-44 -31 -114 -58q-41 -16 -84 -16q-37 0 -55 12q-38 24 -100 99l-96 122q-38 50 -116 149q-51 -83 -102 -167q-92 -146 -121 -146q-16 0 -53 11t-40 15q26 83 52 167q34 106 76 171q56 87 140 130q-163 -28 -320 -122q-7 7 -7 17q0 131 114 197q88 51 247 65
q62 5 232 5q108 0 183 -15q155 -33 155 -124q0 -71 -49 -118q-38 -37 -114 -64q-63 -20 -126 -39q20 -21 73.5 -101t88.5 -115q55 -53 110 -53q10 0 21 2q0 -3 2.5 -12t2.5 -12zM722 524q0 12 -18 36.5t-33 24.5q-101 0 -138 -31t-73 -94q-31 -54 -61 -108q21 -12 59 -12
q75 0 158 42q106 55 106 142z" />
    <glyph glyph-name="S" unicode="S" horiz-adv-x="986" 
d="M962 646q0 -59 -70 -103q-59 -37 -109 -37q-36 0 -56 12q-2 2 -9 10q0 16 -5 47q-144 -29 -236 -124q128 -42 257 -83q213 -76 213 -151q0 -81 -148 -138q-108 -42 -282 -66q-120 -16 -175 -16q-148 0 -236 21q-22 5 -50 69q-43 100 -45 103q-1 4 15 18q94 -21 188 -41
q138 -26 231 -23q30 0 88 3q115 12 203 29q-75 59 -253 95q-137 25 -274 51q-129 33 -129 96q0 83 187 153q142 53 364 91q177 31 242 31q89 0 89 -47z" />
    <glyph glyph-name="T" unicode="T" horiz-adv-x="876" 
d="M863 222q0 -26 -121 -88q-104 -53 -165 -72q-32 -11 -98 -29q-35 -10 -93 -25q-65 -16 -157 -16q-74 0 -128 26q-76 36 -76 111q0 53 62 128q39 48 125 126q82 76 98 96q-6 3 -35 3q-1 0 -66 -7q-32 -3 -95 -25q-88 -31 -120 -39q40 85 62 120q44 71 103 110q25 17 89 17
q6 0 81 -4.5t81 -4.5l433 -31q-47 -96 -90 -116t-94 -20h-194q-82 -83 -115 -126q-65 -80 -65 -126t71 -46q21 0 42 4l460 53q0 -1 2.5 -6.5t2.5 -12.5z" />
    <glyph glyph-name="U" unicode="U" horiz-adv-x="1107" 
d="M1098 172q-24 -67 -172 -119q-128 -45 -224 -45q-105 0 -105 65q0 2 48 164q-230 -149 -250 -161q-140 -78 -248 -78q-78 0 -113.5 35.5t-35.5 112.5q0 67 36 138q20 41 82 133t92 153q-27 22 -82 30l-93 13q33 52 240 52q168 0 168 -41q0 -14 -104.5 -180.5
t-104.5 -197.5q0 -21 17 -21q2 0 12 2q57 0 137 30q39 15 132 59q127 59 244 145q15 11 92 114q67 90 92 90q33 0 77 -44q39 -40 39 -59l-199 -353q6 -28 59 -35q10 -1 78 -1h36q33 -1 50 -1z" />
    <glyph glyph-name="V" unicode="V" horiz-adv-x="842" 
d="M825 492q0 -132 -133 -256q-110 -102 -277 -174q-149 -64 -235 -64q-66 0 -113 27q-65 37 -65 114q0 57 92 237q56 104 113 208q-19 18 -64 22q-78 6 -82 7q25 30 94 38q32 4 112 4q94 0 173 -6q-29 -37 -103 -169q-92 -164 -92 -214q0 -63 20 -63q66 0 182.5 61
t197.5 141q93 90 87 160l-3 23q-19 -3 -40 -23q-29 -27 -40 -34q-29 -17 -70 -17q-32 0 -32 37q0 39 46 89t86 50q61 0 108 -82q38 -66 38 -116z" />
    <glyph glyph-name="W" unicode="W" horiz-adv-x="1172" 
d="M1189 543q0 -117 -74 -244t-187 -209q-123 -87 -248 -87q-158 0 -172 161q-98 -62 -196 -123q-96 -53 -182 -53q-110 0 -110 134q0 61 95 232q65 110 129 221q-19 19 -59 19q-7 0 -21 -1h-23q-22 0 -38 5q15 57 273 57q45 0 62 -4q31 -9 45 -37l-215 -371q36 1 156 97
q49 39 209 177q110 95 123 95q22 0 58 -18q26 -13 53 -27q4 -39 -54 -113q-39 -49 -110 -118q-59 -59 -59 -60q0 -49 73 -49q49 0 140 48q96 52 162 119q77 78 77 147q0 59 -57 91q-48 26 -115 26q-17 0 -31 -2q8 38 84 38q212 0 212 -151z" />
    <glyph glyph-name="X" unicode="X" horiz-adv-x="897" 
d="M893 636q-46 -45 -163 -136q-120 -92 -180 -149q68 -87 136 -173q98 -116 174 -116q32 0 47 5q2 -2 5.5 -8.5t5.5 -8.5q-25 -20 -122 -43t-154 -23q-59 0 -132 96l-110 162q-19 -10 -81 -79q-67 -73 -67 -94q0 -35 74 -75l92 -42q-11 -12 -42 -12q-78 0 -207 33
q-165 43 -165 100t130 170q84 67 167 133q-106 183 -229 251q8 35 95 50q47 8 101 8q50 0 111 -81q46 -64 91 -129q108 65 216 129q88 49 186 49q7 0 12 -6t9 -11z" />
    <glyph glyph-name="Y" unicode="Y" horiz-adv-x="823" 
d="M843 607q0 -188 -219 -494q3 -3 15 -3q4 0 60 10q61 11 85 13q-17 -44 -69 -67q-28 -13 -97 -28q-59 -12 -78 -27q-125 -98 -219 -133q-82 -31 -191 -31q-6 0 -80 1v45q0 33 77 73q42 21 153 63q91 34 106 47q24 22 99 142.5t108 193.5q-62 -63 -184 -163
q-156 -127 -206 -133q-89 -11 -85 -11q-48 0 -90 36.5t-42 85.5q0 59 126 277q124 215 152 215q24 0 67 -49q40 -46 40 -61q0 -23 -93 -174q-50 -81 -101 -163q138 18 304 150q149 120 261 282q40 0 73 -37q28 -32 28 -60z" />
    <glyph glyph-name="Z" unicode="Z" horiz-adv-x="908" 
d="M888 238q-4 -16 -20 -56q-155 -173 -427 -173q-34 0 -70 3l-154 -4q-70 0 -133 26q-86 37 -86 108q0 86 277 228q173 81 346 161q-2 2 -8 6q-18 2 -55 2q-220 0 -309 -22q-43 -8 -85 -16q-38 -11 -121 -65q-11 10 -11 22q0 16 15 71q18 68 40 101q14 21 88 33
q102 17 183 17q124 0 287 -26q229 -35 229 -96q0 -37 -232 -185q-149 -94 -299 -187q10 -3 66 -3q5 0 55 3q55 4 77 5q54 2 167 20q137 22 180 27z" />
    <glyph glyph-name="bracketleft" unicode="[" horiz-adv-x="1000" 
d="M1 346q0 -156 131 -254q118 -88 279 -88h530q21 0 21 29l-19 26q-115 1 -188 36l-6 -3q-2 0 -63 47t-91 47q-37 0 -81 -31q-78 -53 -83 -56q-56 -31 -123 -31q-112 0 -193.5 84.5t-81.5 197.5q0 49 23 88q27 45 73 45q40 0 58 -70q28 -108 41 -131q41 -70 137 -70
q97 0 157 73q55 68 55 167q0 81 -57.5 145.5t-137.5 64.5q-37 0 -82 -25q-52 -27 -52 -60l22 -36q9 13 30.5 23t37.5 10q36 0 64 -31.5t28 -68.5q0 -46 -32 -80.5t-77 -34.5q-63 0 -63 51q0 9 2 30t2 31q0 40 -32 61q-27 18 -69 18q-70 0 -118 -70q-42 -61 -42 -134z" />
    <glyph glyph-name="backslash" unicode="\" horiz-adv-x="479" 
d="M420 662l-2 -32q-11 12 -28 12q-19 0 -31 -23q-11 -19 -11 -39q0 -50 35 -158.5t34 -165.5q-9 -256 -2 -453q-65 -2 -65 79q0 14 22 127.5t22 185.5q0 82 -43 182q-18 41 -81 156q-44 79 -44 109q0 42 31.5 71t74.5 29q26 0 58 -27.5t30 -52.5zM354 109q0 -53 -21 -124
q-27 -92 -65 -92q-23 0 -36.5 20t-13.5 44l8 22l6 -2q49 0 77 77q22 59 22 117q0 104 -50 190q-60 103 -156 103q-50 0 -67 -49h-5q-10 0 -28.5 25.5t-18.5 38.5q0 40 30.5 69.5t71.5 29.5q93 0 174 -154q72 -136 72 -242v-73zM277 160q0 -51 -19 -98q-25 -60 -67 -60
q-33 0 -33 23q0 20 14 20l11.5 -5t16.5 -5q22 0 32 29q8 21 8 47q0 40 -22 73q-25 38 -63 38q-12 0 -26 -6q-17 -6 -20 -15q-11 4 -20 24.5t-9 33.5q0 33 25.5 57t58.5 24q56 0 88 -65q25 -52 25 -115z" />
    <glyph glyph-name="bracketright" unicode="]" horiz-adv-x="1000" 
d="M962 346q0 -156 -131 -254q-119 -88 -280 -88h-529q-21 0 -21 29l18 26q116 1 189 36l6 -3q1 0 62.5 47t91.5 47q37 0 81 -31q77 -53 83 -56q56 -31 123 -31q112 0 193 84.5t81 197.5q0 49 -23 88q-27 45 -72 45q-41 0 -59 -70q-27 -108 -41 -131q-40 -70 -137 -70
q-96 0 -156 73q-55 68 -55 167q0 81 57.5 145.5t137.5 64.5q37 0 82 -25q52 -27 52 -60l-22 -36q-9 13 -30.5 23t-37.5 10q-37 0 -64.5 -31.5t-27.5 -68.5q0 -46 32 -80.5t77 -34.5q63 0 63 51q0 9 -2 30t-2 31q0 40 32 61q27 18 68 18q71 0 119 -70q42 -61 42 -134z" />
    <glyph glyph-name="asciicircum" unicode="^" horiz-adv-x="478" 
d="M31 703q-2 14 23 33q96 52 201 108q27 11 44 1q53 -45 123 -103q8 -9 8 -18q0 -12 -13.5 -22t-23.5 -5q-45 22 -148 62q-27 -7 -192 -69q-20 -7 -22 13z" />
    <glyph glyph-name="underscore" unicode="_" horiz-adv-x="625" 
d="M-4 -99h632v-67h-632v67z" />
    <glyph glyph-name="grave" unicode="`" horiz-adv-x="357" 
d="M299 721q0 12 -20 23q-57 28 -165 79q-15 20 -50 20q-21 0 -36 -15t-15 -36q0 -36 51 -48q69 -10 201 -41q10 -3 22 2.5t12 15.5z" />
    <glyph glyph-name="a" unicode="a" horiz-adv-x="864" 
d="M827 114q-10 -15 -88 -62q-87 -53 -121 -53q-33 0 -39 59q-1 32 -2 65q-127 -75 -195 -101q-88 -33 -191 -33q-73 0 -125 32q-62 38 -62 110q0 38 30 71q23 26 78 61q262 166 557 166q112 0 128 -60q-143 -6 -287 -59q-164 -61 -278 -167q5 -9 30 -17q20 -5 30 -5
q67 0 176 47q72 31 168 87q82 47 83 47q36 0 79 -17q-22 -25 -31 -70q-8 -39 -15 -77q4 -11 16 -13q0 1 27 1q9 0 32 -12z" />
    <glyph glyph-name="b" unicode="b" horiz-adv-x="612" 
d="M565 315q0 -122 -140 -221q-125 -90 -237 -90q-78 0 -127 30q-62 38 -62 119q0 63 100 195q87 115 199 219t148 104q13 0 55.5 -46t42.5 -57q0 -39 -128 -137l-138 -102q-53 -80 -77 -165q7 -8 23 -8q122 0 255 98q-14 0 -52.5 -3.5t-43.5 -3.5q-28 0 -38 6q-13 8 -13 34
q0 76 154 76q41 0 51 -3q28 -9 28 -45z" />
    <glyph glyph-name="c" unicode="c" horiz-adv-x="738" 
d="M693 236q-58 -165 -174 -215q-64 -27 -214 -27q-111 0 -172 18q-131 38 -131 151q0 86 132 152q100 51 259 83q122 26 177 26q52 0 71 -5q48 -10 48 -48q0 -45 -37 -58q-15 -6 -54 -6q-62 0 -110.5 23t-53.5 23q-39 0 -92 -55q-40 -42 -79 -106q-34 -55 -34 -68
q11 -1 34 -4q107 -5 272 51q99 34 158 65z" />
    <glyph glyph-name="d" unicode="d" horiz-adv-x="884" 
d="M856 565q0 -46 -55 -141q-38 -66 -102 -152q-55 -75 -55 -73q0 -36 60 -58q41 -16 64 -16q28 0 67 20q-4 -35 -61 -87q-60 -55 -103 -55q-6 0 -8 1h-9q-39 0 -100.5 38t-58.5 38q-3 0 -44 -20q-48 -23 -91 -36q-66 -20 -130 -20q-85 0 -150 38q-82 48 -82 134
q0 134 205 205q157 54 352 54q35 0 63 -2q22 29 42 62q49 80 87 171q60 -20 84.5 -41.5t24.5 -59.5zM568 352q-177 -50 -221 -67q-141 -58 -182 -144h37q80 0 213 77.5t153 133.5z" />
    <glyph glyph-name="e" unicode="e" horiz-adv-x="788" 
d="M757 231q-23 -149 -160 -203q-86 -34 -245 -34q-96 0 -198 40q-143 56 -143 157q0 96 131 163q97 50 254 79q111 21 165 21q177 0 177 -61q0 -69 -109 -117q-83 -35 -213 -55q-101 -14 -139 -11q-16 -19 -24 -62q12 -12 66 -12q102 0 247 31.5t191 63.5zM652 376
q-13 7 -37 7q-56 0 -136.5 -31.5t-129.5 -72.5l38 -7q121 23 151 32q89 26 114 72z" />
    <glyph glyph-name="f" unicode="f" horiz-adv-x="632" 
d="M621 646q0 -35 -33.5 -70.5t-62.5 -35.5q-21 0 -33 14.5t-12 33.5q0 33 29.5 70.5t66.5 37.5q20 0 32.5 -15t12.5 -35zM624 430q-3 -121 -159 -121q-13 0 -45 1q5 -12 38 -41q22 -20 22 -65q0 -47 -88 -134q-76 -74 -176 -140.5t-133 -66.5q-48 0 -48 81q0 76 45 197
q33 89 77 169q-112 0 -135 -9l4 28q0 49 35 70q26 14 77 16h71l64 104q48 76 89 117q56 55 106 55l28 2q-53 -65 -53 -105q0 -32 7 -43q13 -15 25 -30q-14 -28 -64 -103h158zM369 259q0 17 -2 21q-5 14 -27 22q-89 -109 -228 -388q72 28 166 161q91 128 91 184z" />
    <glyph glyph-name="g" unicode="g" horiz-adv-x="789" 
d="M743 245q-37 -106 -68 -164q-46 -86 -86 -127q-31 -30 -81 -65q-60 -41 -100 -50q-71 -17 -153 -17q-67 0 -140 15q-110 21 -110 64q0 73 89 73q21 0 75 -15q63 -18 62 -33q4 -18 -13 -45q2 -3 17 -3q29 0 59 21q64 43 116 96q62 64 79 116q-10 -3 -118 -48
q-85 -35 -135 -42q-43 -7 -59 -7q-70 0 -120 27q-62 34 -62 100q0 100 146 179q109 59 282 98q132 31 186 31q129 0 129 -27v-28q-318 -52 -501 -217q10 -14 74 -21q5 0 20 -5l308 126q28 -5 87 -20q5 0 17 -12z" />
    <glyph glyph-name="h" unicode="h" horiz-adv-x="812" 
d="M785 65q-84 -38 -167.5 -54.5t-137.5 -16.5q-58 0 -58 38q0 23 33 70q39 54 48 80q-68 -7 -218 -79l-210 -104q-63 74 -63 86q0 16 80 163q87 160 164 274q97 144 133 144q37 0 66 -10q1 -1 61 -27q14 -7 27 -21l-296 -388q91 39 364 166q30 14 99 18l75 -21
q-30 -58 -53 -106q-54 -117 -63 -169q16 -15 46 -15q5 0 31 1q20 1 34 0q0 -1 2.5 -12t2.5 -17z" />
    <glyph glyph-name="i" unicode="i" horiz-adv-x="474" 
d="M457 578q0 -41 -67 -74q-53 -25 -80 -25q-25 0 -42.5 14t-17.5 34q0 41 57 70q45 24 82 24q24 0 43 -10q25 -12 25 -33zM436 160q-6 -50 -57 -85q-19 -14 -85 -44q-42 -19 -137 -36q-8 -1 -44 -1q-111 0 -111 66q0 49 85 183q15 23 101 148q16 22 33 25q11 2 44 2
q41 0 99 -10q2 0 5.5 -9t5.5 -11q-12 -39 -63 -116q-61 -93 -78 -128q4 0 20 -3t21 -3q36 0 83 6q44 6 46 6z" />
    <glyph glyph-name="j" unicode="j" horiz-adv-x="368" 
d="M330 372q-28 -177 -114 -334q-114 -207 -272 -231l-23 7q53 62 133 243q84 194 84 278q0 27 -49 46l-56 18q0 15 11 22q8 2 31 2q22 0 76 -9l94 -12q67 -12 85 -30zM357 578q0 -41 -67 -74q-53 -25 -80 -25q-25 0 -42.5 14t-17.5 34q0 41 57 70q45 24 82 24q24 0 43 -10
q25 -12 25 -33z" />
    <glyph glyph-name="k" unicode="k" horiz-adv-x="828" 
d="M793 41l-94 -54q-61 -33 -95 -37q-2 0 -16 -3t-22 -3q-34 0 -59 16q-53 35 -216 176l-232 -147q-16 7 -35 36t-19 47q0 15 140.5 282.5t143.5 311.5h21q22 0 140 -77q-10 -68 -103 -202q-128 -184 -150 -227q290 173 447 241q39 18 94 18q40 0 40 -38q0 -8 -17 -49
q-26 -61 -31 -72q-5 1 -16.5 9t-18.5 8q-18 0 -100 -17q-49 -10 -115 -47q29 -43 82 -80q22 -15 94 -57q28 -16 82 -16q40 0 55 4v-23z" />
    <glyph glyph-name="l" unicode="l" horiz-adv-x="482" 
d="M450 218q-41 -98 -111 -162q-77 -71 -161 -71q-75 0 -132 70q-51 63 -51 128q0 48 55 167q59 127 129 216q85 107 152 107q26 0 53 -44q25 -40 25 -64q0 -46 -66 -126q-61 -67 -121 -135q-66 -73 -66 -100q0 -22 37 -32q22 -7 45 -7q66 0 212 53z" />
    <glyph glyph-name="m" unicode="m" horiz-adv-x="1069" 
d="M1057 384q0 -24 -59.5 -199t-60.5 -192q-19 -6 -54 -6q-60 0 -107 44q-4 32 14 72.5t36 81.5q-2 2 -6 0q-5 -4 -11 -4q-33 0 -196 -98.5t-158 -99.5q-42 2 -72 24q-38 28 -39 29q3 35 22 73q32 67 34 70q-72 -15 -151 -65q-52 -32 -112 -83q-49 -41 -52 -41
q-27 0 -60 32.5t-33 60.5q0 29 65 181q72 168 114 168q29 0 66 -16q47 -19 47 -47q0 -5 -20 -55q-22 -56 -29 -83q86 57 172 115q125 76 201 76q33 0 62 -21q5 -24 -14 -79q-19 -51 -37 -101q170 125 203 144q88 52 178 52q37 0 41 -1q16 -5 16 -32z" />
    <glyph glyph-name="n" unicode="n" horiz-adv-x="816" 
d="M796 349q0 -6 -80.5 -164t-80.5 -194q-25 -6 -62 -6q-124 0 -124 45q0 26 23 73q16 32 33 65q-3 3 -13 3q-72 0 -414 -176q-21 0 -50 46q-26 41 -26 52q0 20 82 167q88 157 122 157q36 0 133 -31q-27 -67 -74 -161q204 104 243 120q123 52 225 52q22 0 42.5 -14.5
t20.5 -33.5z" />
    <glyph glyph-name="o" unicode="o" horiz-adv-x="784" 
d="M745 156q0 -97 -186 -145q-124 -31 -246 -31q-97 0 -182 25q-130 37 -130 116q0 106 120 189q95 67 247 108q124 34 203 34q93 0 103 -44q-117 -27 -212 -81q-124 -69 -180 -168q18 -16 73 -13q77 0 138 13q111 25 111 87q0 26 -10 47q-15 26 -30 51q12 18 27 18
q54 0 109 -96q45 -80 45 -110z" />
    <glyph glyph-name="p" unicode="p" horiz-adv-x="779" 
d="M754 354q0 -82 -131 -250q30 -1 73 12l37 -7q-76 -64 -165 -107q-97 -47 -166 -47q-41 0 -69 14q-37 19 -37 56q0 7 8 25q10 23 12 28q10 3 61 3q42 0 149 67q117 73 117 123q0 18 -14 21q2 0 -16 0q-138 0 -630 -503q-13 5 -25.5 41t-12.5 57q0 51 102 241.5t102 214.5
q0 9 -7 10q-57 29 -100 29q-2 0 -16 2q-9 1 -15 -2q0 16 -6 28q24 12 118 12q157 0 223 -21q-25 -47 -71 -150l184 108q137 73 212 73q33 0 58 -23t25 -55z" />
    <glyph glyph-name="q" unicode="q" horiz-adv-x="852" 
d="M833 224q-138 -221 -215 -393q-10 -26 -21 -51.5t-41 -25.5q-5 0 -37 2.5t-38 2.5q-24 0 -50 26q1 51 47 136q68 125 79 153q-262 -109 -398 -109q-160 0 -160 90q0 95 133 185q97 65 251 121q108 39 140 44q112 17 140 17q52 0 87 -7q14 -2 32 -19t25 -33
q-195 -47 -272 -78q-148 -59 -260 -172q4 -7 38 -7q84 0 193 45q76 32 162 85q75 45 74 45q26 0 75 -40q2 -3 7.5 -9t8.5 -8z" />
    <glyph glyph-name="r" unicode="r" horiz-adv-x="528" 
d="M512 416q-9 -13 -26 -51q-19 -42 -19 -53q0 -6 15 -31.5t15 -31.5q0 -22 -46 -42q-38 -16 -57 -16q-73 0 -73 68q0 38 36 99q40 69 82 69q15 0 73 -11zM326 369q0 -17 -37 -114q-43 -109 -85 -184q-54 -96 -89 -96q-22 0 -76 27q-8 4 -23.5 19t-15.5 20l141 296
q-2 2 -10 22q-8 7 -39 8q-29 1 -43 -3l-4 27q19 26 163 26q57 0 72 -3q46 -9 46 -45z" />
    <glyph glyph-name="s" unicode="s" horiz-adv-x="746" 
d="M723 337h-109q-48 0 -83 -7q-97 -19 -149 -66q83 -32 166 -65q125 -52 125 -88q0 -73 -151 -117q-103 -29 -163 -29h-79q2 0 -71 3q-111 5 -177 33q-13 40 -33 140q107 -42 205 -64q51 -12 143 -12q79 0 105 8l-212 86q-170 74 -170 135q0 134 451 134q79 0 150 -23
q19 -5 52 -19v-49z" />
    <glyph glyph-name="t" unicode="t" horiz-adv-x="590" 
d="M568 167q0 -44 -94 -91q-69 -35 -177 -66q-88 -26 -104 -26q-66 0 -108 30q-48 36 -48 104q0 78 44 157l10 18q-54 5 -88 1v23q0 25 42 58t60 33q10 0 46 1q111 153 173 153q6 0 12 -1h119l-109 -152q64 1 182 0q-51 -116 -159 -116h-76q-36 -62 -76 -145q45 -18 83 -18
q98 0 256 54q12 -12 12 -17z" />
    <glyph glyph-name="u" unicode="u" horiz-adv-x="846" 
d="M788 132q0 -38 -155 -97q-135 -51 -156 -51q-39 0 -39 39q0 7 10 50q9 38 6 57q-250 -146 -360 -146q-39 0 -70 16q-39 19 -39 55q0 35 82.5 160.5t82.5 155.5q0 5 -34 54q16 17 34 17q35 0 214 -50q-17 -34 -56 -97q-49 -78 -64 -105q56 8 164 67q68 37 174 106
q85 54 90 54q32 0 92 -34q0 -17 -56 -119.5t-56 -113.5q0 -20 24 -20q61 0 106 19q0 -1 3 -5.5t3 -11.5z" />
    <glyph glyph-name="v" unicode="v" horiz-adv-x="723" 
d="M701 366q0 -111 -119 -208q-94 -76 -240 -130q-121 -44 -181 -44q-166 0 -166 102q0 45 56 150.5t56 154.5q0 24 -10 44q3 4 5 8t10 4q9 0 76.5 -18.5t110.5 -32.5q0 -56 -29 -120q-20 -46 -70 -129q2 -2 17 -2q66 0 210 81q154 87 175 158q-14 -2 -51.5 -15t-43.5 -13
q-46 0 -49 23q-1 49 31 74q28 23 73 23q50 0 87 -21q52 -29 52 -89z" />
    <glyph glyph-name="w" unicode="w" horiz-adv-x="1066" 
d="M1025 291q0 -99 -84 -176q-67 -62 -176 -99q-90 -32 -157 -32q-166 0 -210 93q-100 -52 -148 -69q-67 -24 -139 -24q-53 0 -78 14q-36 19 -36 69q0 27 70.5 171t66.5 179q42 -11 84 -23q55 -17 90 -40q-2 -34 -27 -79q-58 -104 -60 -108q3 -3 12 -3q50 0 226.5 119.5
t185.5 119.5q20 0 46.5 -19t26.5 -34q0 -28 -69 -97q-39 -36 -77 -72q9 -26 61 -26q58 0 170 46q141 59 141 132q0 33 -24 48l-66 34l75 2q43 0 73 -53q23 -42 23 -73z" />
    <glyph glyph-name="x" unicode="x" horiz-adv-x="739" 
d="M707 58q-176 -69 -236 -69q-55 0 -91 33q-15 14 -89 108q-99 -73 -95 -153q19 -13 48 -13q0 -24 -7 -33.5t-31 -9.5q-32 0 -119 24q-100 27 -100 51q0 48 110 129q66 45 133 91q-29 59 -85 108q-66 57 -126 57q-9 0 -17 -2q5 49 162 49q72 0 81 -1q27 -4 53 -30
q19 -18 81 -96q52 32 103 65q96 59 118 59q43 0 80 -30q-32 -32 -105 -76q-110 -67 -135 -85q90 -162 216 -162q21 0 45 5q6 -7 6 -19z" />
    <glyph glyph-name="y" unicode="y" horiz-adv-x="670" 
d="M637 339q-103 -261 -112 -281q-63 -133 -138 -192q-90 -72 -234 -72q-2 0 -57 3t-81 3q0 2 -3 11t-3 11q11 6 29 6q97 0 220 113q120 110 163 229q-78 -51 -157 -101q-135 -85 -199 -85q-78 0 -73 91q1 29 62 180q53 129 76 177q8 2 18 2q37 0 83.5 -17.5t54.5 -39.5
q-18 -42 -37 -84q-22 -51 -24 -85l334 181q29 -10 78 -50z" />
    <glyph glyph-name="z" unicode="z" horiz-adv-x="713" 
d="M659 392q-3 -87 -134 -176q-102 -62 -203 -123q37 -15 68 -15q38 0 115 8t152 26q4 -15 -24 -40q-8 -7 -53.5 -41t-122.5 -45q-43 -6 -132 -6q-87 0 -182 11q-157 19 -157 58q0 45 226 157q179 87 286 124q0 6 -12 9q-7 2 -15 3q-27 3 -61 -2q-30 -5 -61 -11
q-70 -10 -204 -48q-34 -16 -110 -39q1 3 33 81q19 49 42 74q20 22 72 29l84 6q21 1 180 1q51 0 166 -16q18 -3 27 -6q18 -6 20 -19z" />
    <glyph glyph-name="braceleft" unicode="{" horiz-adv-x="1260" 
d="M-2 546q0 -71 46 -122t117 -51q95 0 173 78q60 72 120 145q72 78 152 78q74 0 130 -59t56 -133q0 -84 -64.5 -232t-63.5 -237q-1 3 -12 20q-8 12 -6 43q2 41 27 134q23 89 23 136q0 85 -37 146q-44 71 -124 71q-41 0 -72 -29.5t-31 -70.5q0 -36 22.5 -61.5t56.5 -25.5
q12 37 44 37q67 0 67 -130q0 -25 -2.5 -64t-2.5 -47v-112q0 -54 42.5 -93.5t97.5 -39.5q12 0 39 8.5t32 8.5h7q-57 -48 -123 -48q-128 0 -169 115q-23 106 -46 213q-35 115 -147 115q-58 0 -100.5 -43t-42.5 -102q0 -47 26 -80q28 -37 73 -37q40 11 49 30q-8 19 -8 40
q0 10 12.5 21t23.5 11q42 0 66 -84q33 -115 64 -155q65 -84 208 -84q137 0 189 127q35 118 71 235q53 127 192 127q13 0 21.5 12.5t8.5 26.5q4 27 -27 30l-110 2q-89 1 -123 -36q-26 -29 -26 -95q0 -17 2 -58.5t2 -64.5q0 -68 -35 -126q-42 -66 -105 -66q-79 0 -79 88
q0 50 36 130q34 73 67 146q36 90 36 165q0 136 -84 214t-220 78q-85 0 -161 -48q-41 -26 -106 -89q-49 -48 -69 -48q-13 0 -23.5 11t-10.5 25q0 17 19 30q-38 30 -65 30q-59 0 -93 -50q-30 -43 -30 -106z" />
    <glyph glyph-name="bar" unicode="|" horiz-adv-x="479" 
d="M7 662l2 -32q11 12 28 12q18 0 31 -23q10 -19 10 -39q0 -50 -35 -158.5t-33 -165.5q8 -256 2 -453q64 -2 64 79q0 14 -22 127.5t-22 185.5q0 82 44 182q17 41 81 156q43 79 43 109q0 42 -31.5 71t-73.5 29q-27 0 -58.5 -27.5t-29.5 -52.5zM73 109q0 -53 21 -124
q26 -92 64 -92q23 0 37 20t14 44l-9 22l-6 -2q-48 0 -77 77q-21 59 -21 117q0 104 50 190q59 103 155 103q51 0 67 -49h6q10 0 28 25.5t18 38.5q0 40 -30.5 69.5t-70.5 29.5q-94 0 -175 -154q-71 -136 -71 -242v-73zM150 160q0 -51 19 -98q24 -60 67 -60q32 0 32 23
q0 20 -14 20l-11.5 -5t-16.5 -5q-21 0 -32 29q-8 21 -8 47q0 40 22 73q25 38 64 38q11 0 27 -6t19 -15q10 4 19.5 24.5t9.5 33.5q0 33 -26 57t-59 24q-55 0 -87 -65q-25 -52 -25 -115z" />
    <glyph glyph-name="braceright" unicode="}" horiz-adv-x="1260" 
d="M1204 546q0 -71 -46 -122t-117 -51q-95 0 -173 78q-60 72 -120 145q-72 78 -152 78q-74 0 -130 -59t-56 -133q0 -84 64.5 -232t63.5 -237q1 3 12 20q8 12 6 43q-2 41 -27 134q-23 89 -23 136q0 85 37 146q44 71 124 71q41 0 72 -29.5t31 -70.5q0 -36 -22.5 -61.5
t-56.5 -25.5q-12 37 -44 37q-67 0 -67 -130q0 -25 2.5 -64t2.5 -47v-112q0 -54 -42.5 -93.5t-97.5 -39.5q-12 0 -39 8.5t-32 8.5h-7q57 -48 123 -48q128 0 169 115q23 106 46 213q35 115 147 115q58 0 100.5 -43t42.5 -102q0 -47 -26 -80q-28 -37 -73 -37q-40 11 -49 30
q8 19 8 40q0 10 -12.5 21t-23.5 11q-42 0 -66 -84q-33 -115 -64 -155q-65 -84 -208 -84q-137 0 -189 127q-35 118 -71 235q-53 127 -192 127q-13 0 -21.5 12.5t-8.5 26.5q-4 27 27 30l110 2q89 1 123 -36q26 -29 26 -95q0 -17 -2 -58.5t-2 -64.5q0 -68 35 -126
q42 -66 105 -66q79 0 79 88q0 50 -36 130q-34 73 -67 146q-36 90 -36 165q0 136 84 214t220 78q85 0 161 -48q41 -26 106 -89q49 -48 69 -48q13 0 23.5 11t10.5 25q0 17 -19 30q38 30 65 30q59 0 93 -50q30 -43 30 -106z" />
    <glyph glyph-name="asciitilde" unicode="~" horiz-adv-x="990" 
d="M599 705q-53 0 -93 30q-37 27 -51 27q-16 0 -43 -15l-40 -26q-8 -4 -16 -4q-15 0 -25.5 11.5t-10.5 25.5q0 19 19 25q13 11 26 23q8 5 41 21q38 10 50 10q19 0 57 -20q23 -12 45 -25q15 -8 33 -8q14 0 46 4q36 15 54 32q12 12 29 12q16 0 28.5 -10t12.5 -23
q0 -11 -11 -21q-17 -17 -52 -38q-40 -25 -60.5 -28t-38.5 -3z" />
    <glyph glyph-name="Adieresis" unicode="&#xc4;" horiz-adv-x="1180" 
d="M1210 608q0 3 -109.5 -170.5t-109.5 -217.5q0 -59 139 -59q12 0 44 2q-19 -25 -150 -93q-146 -75 -210 -75q-89 0 -89 64q0 36 51 148q-11 13 -41 13l-23.5 3t-41.5 3q-38 0 -59 -13q-84 -65 -169 -131q-162 -112 -269 -112q-5 0 -16.5 -1t-17.5 -1q-35 0 -72 24
q-17 11 -50 101.5t-33 126.5q0 26 24 45q21 17 55 22l327 -7q6 -2 15 -2q46 0 168 72q72 44 231 152q150 102 201 131q-34 -62 -127 -162q-76 -78 -153 -156q6 -3 23 -3q15 0 43 3q16 1 32 3q69 103 137 205q112 162 153 162q33 0 65 -26.5t32 -50.5zM1318 788
q0 -32 -37 -51q-30 -16 -67 -16q-60 0 -60 41q0 33 46 53q34 15 64 15q23 0 38.5 -12t15.5 -30zM1078 788q0 -32 -37 -51q-30 -16 -67 -16q-60 0 -60 41q0 33 46 53q34 15 64 15q23 0 38.5 -12t15.5 -30z" />
    <glyph glyph-name="Aring" unicode="&#xc5;" horiz-adv-x="1180" 
d="M1210 608q0 3 -109.5 -170.5t-109.5 -217.5q0 -59 139 -59q12 0 44 2q-19 -25 -150 -93q-146 -75 -210 -75q-89 0 -89 64q0 36 51 148q-11 13 -41 13l-23.5 3t-41.5 3q-38 0 -59 -13q-84 -65 -169 -131q-162 -112 -269 -112q-5 0 -16.5 -1t-17.5 -1q-35 0 -72 24
q-17 11 -50 101.5t-33 126.5q0 26 24 45q21 17 55 22l327 -7q6 -2 15 -2q46 0 168 72q72 44 231 152q150 102 201 131q-34 -62 -127 -162q-76 -78 -153 -156q6 -3 23 -3q15 0 43 3q16 1 32 3q69 103 137 205q112 162 153 162q33 0 65 -26.5t32 -50.5zM1141 877
q36 0 61.5 -23.5t25.5 -58.5t-25.5 -58.5t-61.5 -23.5q-35 0 -60.5 23.5t-25.5 58.5t25.5 58.5t60.5 23.5zM1141 827q-16 0 -26 -9.5t-10 -22.5q0 -12 10 -22t26 -10t26.5 10t10.5 22q0 13 -10.5 22.5t-26.5 9.5z" />
    <glyph glyph-name="Ccedilla" unicode="&#xc7;" horiz-adv-x="924" 
d="M415 -58q28 -7 28 -39q0 -47 -51 -93q-21 -19 -67 -32q-40 -12 -59 -11q-15 1 -36 2q-31 8 -40 17q-17 16 -17 29q0 14 15 32q10 4 17 3q8 -8 16 -15q17 -14 39 -11q26 3 36 10t9 7q23 24 23 45q0 40 -51 39q6 10 14 32l7 28q-106 2 -177 24q-115 36 -115 119
q0 65 81 154q47 53 154 142q-20 15 -60 15q-14 0 -43 -2.5t-43 -2.5q-15 0 -27 2q15 22 32 45.5t37 22.5q30 -2 58 -2q130 0 241 46l176 86q106 46 224 46q-3 0 31 -3q24 -1 38 2v-28q0 -105 -91 -150q-56 -27 -186 -41q-121 -13 -148 -32q-40 -29 -167 -194q99 -29 199 -29
q96 0 205 20q89 17 178 35q-91 -132 -254 -206q-139 -62 -291 -68l-5 -18q-2 -8 -5 -17q15 4 29 4q17 0 31 -6q8 -3 15 -7z" />
    <glyph glyph-name="Eacute" unicode="&#xc9;" horiz-adv-x="1098" 
d="M1085 635q0 -52 -42 -76q-31 -18 -76 -18q-6 0 -111 15t-111 15q-33 0 -92 -33q-65 -36 -65 -66q0 -40 93 -66q52 -10 104 -21q3 -4 0 -17q-2 -14 -9 -15l-216 -54q-168 -45 -253 -91q92 -19 107 -21q65 -10 164 -10q96 0 304 31q177 27 200 35q-69 -134 -320 -201
q-183 -49 -378 -49q-138 0 -234 25q-156 41 -156 141q0 91 94 148q65 39 186 65q134 28 135 29q-6 10 -40 34q-26 18 -26 47q0 68 152 120q113 38 293 63q132 19 182 19q52 0 68 -3q47 -10 47 -46zM633 721q0 12 19 23q58 28 166 79q15 20 50 20q21 0 36 -15t15 -36
q0 -36 -51 -48q-69 -10 -201 -41q-10 -3 -22 2.5t-12 15.5z" />
    <glyph glyph-name="Ntilde" unicode="&#xd1;" horiz-adv-x="990" 
d="M967 489q0 -51 -35 -168q-41 -141 -99 -232q-73 -116 -155 -116q-13 0 -142 156q-167 202 -179 216l-120 -184q-113 -164 -164 -164q-29 0 -64 21q28 89 127 284q91 182 91 183q0 38 -79 73q-68 30 -97 28q11 23 107.5 50t164.5 27q79 0 220 -215q84 -135 167 -270
q100 220 100 321q0 56 -15 77q-25 34 -117 65q24 13 100 13q153 0 189 -41v-124zM599 705q-53 0 -93 30q-37 27 -51 27q-16 0 -43 -15l-40 -26q-8 -4 -16 -4q-15 0 -25.5 11.5t-10.5 25.5q0 19 19 25q13 11 26 23q8 5 41 21q38 10 50 10q19 0 57 -20q23 -12 45 -25
q15 -8 33 -8q14 0 46 4q36 15 54 32q12 12 29 12q16 0 28.5 -10t12.5 -23q0 -11 -11 -21q-17 -17 -52 -38q-40 -25 -60.5 -28t-38.5 -3z" />
    <glyph glyph-name="Odieresis" unicode="&#xd6;" horiz-adv-x="1095" 
d="M1085 426q0 -136 -150 -243q-116 -84 -301 -138q-147 -43 -228 -43q-96 0 -220 41q-189 62 -189 180q0 141 198 259q151 89 388 151q188 50 266 50q28 0 46 -7q25 -10 72 -45l-166 -44q-108 -29 -177 -70q45 2 129 14q73 10 126 10q94 0 137 -16q69 -26 69 -99zM805 343
q0 52 -66 82q-51 23 -100 23q-134 0 -257 -74q-147 -87 -194 -239q52 -10 73 -10q45 0 160 20q155 28 253 69q131 56 131 129zM1068 788q0 -32 -37 -51q-30 -16 -67 -16q-60 0 -60 41q0 33 46 53q34 15 64 15q23 0 38.5 -12t15.5 -30zM828 788q0 -32 -37 -51
q-30 -16 -67 -16q-60 0 -60 41q0 33 46 53q34 15 64 15q23 0 38.5 -12t15.5 -30z" />
    <glyph glyph-name="Udieresis" unicode="&#xdc;" horiz-adv-x="1107" 
d="M1098 172q-24 -67 -172 -119q-128 -45 -224 -45q-105 0 -105 65q0 2 48 164q-230 -149 -250 -161q-140 -78 -248 -78q-78 0 -113.5 35.5t-35.5 112.5q0 67 36 138q20 41 82 133t92 153q-27 22 -82 30l-93 13q33 52 240 52q168 0 168 -41q0 -14 -104.5 -180.5
t-104.5 -197.5q0 -21 17 -21q2 0 12 2q57 0 137 30q39 15 132 59q127 59 244 145q15 11 92 114q67 90 92 90q33 0 77 -44q39 -40 39 -59l-199 -353q6 -28 59 -35q10 -1 78 -1h36q33 -1 50 -1zM918 788q0 -32 -37 -51q-30 -16 -67 -16q-60 0 -60 41q0 33 46 53q34 15 64 15
q23 0 38.5 -12t15.5 -30zM678 788q0 -32 -37 -51q-30 -16 -67 -16q-60 0 -60 41q0 33 46 53q34 15 64 15q23 0 38.5 -12t15.5 -30z" />
    <glyph glyph-name="aacute" unicode="&#xe1;" horiz-adv-x="864" 
d="M827 114q-10 -15 -88 -62q-87 -53 -121 -53q-33 0 -39 59q-1 32 -2 65q-127 -75 -195 -101q-88 -33 -191 -33q-73 0 -125 32q-62 38 -62 110q0 38 30 71q23 26 78 61q262 166 557 166q112 0 128 -60q-143 -6 -287 -59q-164 -61 -278 -167q5 -9 30 -17q20 -5 30 -5
q67 0 176 47q72 31 168 87q82 47 83 47q36 0 79 -17q-22 -25 -31 -70q-8 -39 -15 -77q4 -11 16 -13q0 1 27 1q9 0 32 -12zM513 481q0 12 19 23q58 28 166 79q15 20 50 20q21 0 36 -15t15 -36q0 -36 -51 -48q-69 -10 -201 -41q-10 -3 -22 2.5t-12 15.5z" />
    <glyph glyph-name="agrave" unicode="&#xe0;" horiz-adv-x="864" 
d="M827 114q-10 -15 -88 -62q-87 -53 -121 -53q-33 0 -39 59q-1 32 -2 65q-127 -75 -195 -101q-88 -33 -191 -33q-73 0 -125 32q-62 38 -62 110q0 38 30 71q23 26 78 61q262 166 557 166q112 0 128 -60q-143 -6 -287 -59q-164 -61 -278 -167q5 -9 30 -17q20 -5 30 -5
q67 0 176 47q72 31 168 87q82 47 83 47q36 0 79 -17q-22 -25 -31 -70q-8 -39 -15 -77q4 -11 16 -13q0 1 27 1q9 0 32 -12zM726 489q0 11 -19 23q-58 28 -166 78q-15 21 -50 21q-21 0 -36 -15t-15 -36q0 -36 51 -48q69 -10 201 -41q10 -3 22 2t12 16z" />
    <glyph glyph-name="acircumflex" unicode="&#xe2;" horiz-adv-x="864" 
d="M827 114q-10 -15 -88 -62q-87 -53 -121 -53q-33 0 -39 59q-1 32 -2 65q-127 -75 -195 -101q-88 -33 -191 -33q-73 0 -125 32q-62 38 -62 110q0 38 30 71q23 26 78 61q262 166 557 166q112 0 128 -60q-143 -6 -287 -59q-164 -61 -278 -167q5 -9 30 -17q20 -5 30 -5
q67 0 176 47q72 31 168 87q82 47 83 47q36 0 79 -17q-22 -25 -31 -70q-8 -39 -15 -77q4 -11 16 -13q0 1 27 1q9 0 32 -12zM441 463q-2 14 23 33q96 52 201 108q27 11 44 1q53 -45 123 -103q8 -9 8 -18q0 -12 -13.5 -22t-23.5 -5q-45 22 -148 62q-27 -7 -192 -69
q-20 -7 -22 13z" />
    <glyph glyph-name="adieresis" unicode="&#xe4;" horiz-adv-x="864" 
d="M827 114q-10 -15 -88 -62q-87 -53 -121 -53q-33 0 -39 59q-1 32 -2 65q-127 -75 -195 -101q-88 -33 -191 -33q-73 0 -125 32q-62 38 -62 110q0 38 30 71q23 26 78 61q262 166 557 166q112 0 128 -60q-143 -6 -287 -59q-164 -61 -278 -167q5 -9 30 -17q20 -5 30 -5
q67 0 176 47q72 31 168 87q82 47 83 47q36 0 79 -17q-22 -25 -31 -70q-8 -39 -15 -77q4 -11 16 -13q0 1 27 1q9 0 32 -12zM828 538q0 -32 -37 -51q-30 -16 -67 -16q-60 0 -60 41q0 33 46 53q34 15 64 15q23 0 38.5 -12t15.5 -30zM588 538q0 -32 -37 -51q-30 -16 -67 -16
q-60 0 -60 41q0 33 46 53q34 15 64 15q23 0 38.5 -12t15.5 -30z" />
    <glyph glyph-name="atilde" unicode="&#xe3;" horiz-adv-x="864" 
d="M827 114q-10 -15 -88 -62q-87 -53 -121 -53q-33 0 -39 59q-1 32 -2 65q-127 -75 -195 -101q-88 -33 -191 -33q-73 0 -125 32q-62 38 -62 110q0 38 30 71q23 26 78 61q262 166 557 166q112 0 128 -60q-143 -6 -287 -59q-164 -61 -278 -167q5 -9 30 -17q20 -5 30 -5
q67 0 176 47q72 31 168 87q82 47 83 47q36 0 79 -17q-22 -25 -31 -70q-8 -39 -15 -77q4 -11 16 -13q0 1 27 1q9 0 32 -12zM699 485q-53 0 -93 30q-37 27 -51 27q-16 0 -43 -15l-40 -26q-8 -4 -16 -4q-15 0 -25.5 11.5t-10.5 25.5q0 19 19 25q13 11 26 23q8 5 41 21
q38 10 50 10q19 0 57 -20q23 -12 45 -25q15 -8 33 -8q14 0 46 4q36 15 54 32q12 12 29 12q16 0 28.5 -10t12.5 -23q0 -11 -11 -21q-17 -17 -52 -38q-40 -25 -60.5 -28t-38.5 -3z" />
    <glyph glyph-name="aring" unicode="&#xe5;" horiz-adv-x="864" 
d="M827 114q-10 -15 -88 -62q-87 -53 -121 -53q-33 0 -39 59q-1 32 -2 65q-127 -75 -195 -101q-88 -33 -191 -33q-73 0 -125 32q-62 38 -62 110q0 38 30 71q23 26 78 61q262 166 557 166q112 0 128 -60q-143 -6 -287 -59q-164 -61 -278 -167q5 -9 30 -17q20 -5 30 -5
q67 0 176 47q72 31 168 87q82 47 83 47q36 0 79 -17q-22 -25 -31 -70q-8 -39 -15 -77q4 -11 16 -13q0 1 27 1q9 0 32 -12zM591 637q36 0 61.5 -23.5t25.5 -58.5t-25.5 -58.5t-61.5 -23.5q-35 0 -60.5 23.5t-25.5 58.5t25.5 58.5t60.5 23.5zM591 587q-16 0 -26 -9.5
t-10 -22.5q0 -12 10 -22t26 -10t26.5 10t10.5 22q0 13 -10.5 22.5t-26.5 9.5z" />
    <glyph glyph-name="ccedilla" unicode="&#xe7;" horiz-adv-x="738" 
d="M693 236q-56 -160 -167 -212q-66 -30 -207 -30l-4 -16q-2 -8 -5 -17q15 4 29 4q16 0 30 -6q8 -4 15 -7q21 -7 21 -31q0 -37 -46 -78q-21 -18 -67 -32q-39 -11 -59 -10q-15 0 -36 2q-31 8 -40 16q-17 16 -17 30t15 31q10 4 17 3q8 -7 17 -15q16 -14 39 -11q25 3 35 10.5
t9 7.5q24 24 24 39q0 22 -49 21q6 10 14 32l6 27q-265 5 -265 169q0 86 132 152q100 51 259 83q122 26 177 26q52 0 71 -5q48 -10 48 -48q0 -45 -37 -58q-15 -6 -54 -6q-62 0 -110.5 23t-53.5 23q-39 0 -92 -55q-40 -42 -79 -106q-34 -55 -34 -68q11 -1 34 -4q107 -5 272 51
q99 34 158 65z" />
    <glyph glyph-name="eacute" unicode="&#xe9;" horiz-adv-x="788" 
d="M757 231q-23 -149 -160 -203q-86 -34 -245 -34q-96 0 -198 40q-143 56 -143 157q0 96 131 163q97 50 254 79q111 21 165 21q177 0 177 -61q0 -69 -109 -117q-83 -35 -213 -55q-101 -14 -139 -11q-16 -19 -24 -62q12 -12 66 -12q102 0 247 31.5t191 63.5zM652 376
q-13 7 -37 7q-56 0 -136.5 -31.5t-129.5 -72.5l38 -7q121 23 151 32q89 26 114 72zM383 491q0 12 19 23q58 28 166 79q15 20 50 20q21 0 36 -15t15 -36q0 -36 -51 -48q-69 -10 -201 -41q-10 -3 -22 2.5t-12 15.5z" />
    <glyph glyph-name="egrave" unicode="&#xe8;" horiz-adv-x="788" 
d="M757 231q-23 -149 -160 -203q-86 -34 -245 -34q-96 0 -198 40q-143 56 -143 157q0 96 131 163q97 50 254 79q111 21 165 21q177 0 177 -61q0 -69 -109 -117q-83 -35 -213 -55q-101 -14 -139 -11q-16 -19 -24 -62q12 -12 66 -12q102 0 247 31.5t191 63.5zM652 376
q-13 7 -37 7q-56 0 -136.5 -31.5t-129.5 -72.5l38 -7q121 23 151 32q89 26 114 72zM696 499q0 11 -19 23q-58 28 -166 78q-15 21 -50 21q-21 0 -36 -15t-15 -36q0 -36 51 -48q69 -10 201 -41q10 -3 22 2t12 16z" />
    <glyph glyph-name="ecircumflex" unicode="&#xea;" horiz-adv-x="788" 
d="M757 231q-23 -149 -160 -203q-86 -34 -245 -34q-96 0 -198 40q-143 56 -143 157q0 96 131 163q97 50 254 79q111 21 165 21q177 0 177 -61q0 -69 -109 -117q-83 -35 -213 -55q-101 -14 -139 -11q-16 -19 -24 -62q12 -12 66 -12q102 0 247 31.5t191 63.5zM652 376
q-13 7 -37 7q-56 0 -136.5 -31.5t-129.5 -72.5l38 -7q121 23 151 32q89 26 114 72zM316 493q-1 14 24 33q96 52 201 108q27 11 44 1q52 -45 123 -103q8 -9 8 -18q0 -12 -13.5 -22t-24.5 -5q-45 22 -148 63q-27 -8 -191 -70q-21 -7 -23 13z" />
    <glyph glyph-name="edieresis" unicode="&#xeb;" horiz-adv-x="788" 
d="M757 221q-23 -149 -160 -203q-86 -34 -245 -34q-96 0 -198 40q-143 56 -143 157q0 96 131 163q97 50 254 79q111 21 165 21q177 0 177 -61q0 -69 -109 -117q-83 -35 -213 -55q-101 -14 -139 -11q-16 -19 -24 -62q12 -12 66 -12q102 0 247 31.5t191 63.5zM652 366
q-13 7 -37 7q-56 0 -136.5 -31.5t-129.5 -72.5l38 -7q121 23 151 32q89 26 114 72zM768 538q0 -32 -37 -51q-30 -16 -67 -16q-60 0 -60 41q0 33 46 53q34 15 64 15q23 0 38.5 -12t15.5 -30zM528 538q0 -32 -37 -51q-30 -16 -67 -16q-60 0 -60 41q0 33 46 53q34 15 64 15
q23 0 38.5 -12t15.5 -30z" />
    <glyph glyph-name="iacute" unicode="&#xed;" horiz-adv-x="474" 
d="M436 160q-6 -50 -57 -85q-19 -14 -85 -44q-42 -19 -137 -36q-8 -1 -44 -1q-111 0 -111 66q0 49 85 183q15 23 101 148q16 22 33 25q11 2 44 2q41 0 99 -10q2 0 5.5 -9t5.5 -11q-12 -39 -63 -116q-61 -93 -78 -128q4 0 20 -3t21 -3q36 0 83 6q44 6 46 6zM183 481
q0 12 19 23q58 28 166 79q15 20 50 20q21 0 36 -15t15 -36q0 -36 -51 -48q-69 -10 -201 -41q-10 -3 -22 2.5t-12 15.5z" />
    <glyph glyph-name="igrave" unicode="&#xec;" horiz-adv-x="474" 
d="M436 160q-6 -50 -57 -85q-19 -14 -85 -44q-42 -19 -137 -36q-8 -1 -44 -1q-111 0 -111 66q0 49 85 183q15 23 101 148q16 22 33 25q11 2 44 2q41 0 99 -10q2 0 5.5 -9t5.5 -11q-12 -39 -63 -116q-61 -93 -78 -128q4 0 20 -3t21 -3q36 0 83 6q44 6 46 6zM476 479
q0 11 -19 23q-58 28 -166 78q-15 21 -50 21q-21 0 -36 -15t-15 -36q0 -36 51 -48q69 -10 201 -41q10 -3 22 2t12 16z" />
    <glyph glyph-name="icircumflex" unicode="&#xee;" horiz-adv-x="474" 
d="M436 160q-6 -50 -57 -85q-19 -14 -85 -44q-42 -19 -137 -36q-8 -1 -44 -1q-111 0 -111 66q0 49 85 183q15 23 101 148q16 22 33 25q11 2 44 2q41 0 99 -10q2 0 5.5 -9t5.5 -11q-12 -39 -63 -116q-61 -93 -78 -128q4 0 20 -3t21 -3q36 0 83 6q44 6 46 6zM116 473
q-1 14 24 33q96 52 201 108q27 11 44 1q52 -45 123 -103q8 -9 8 -18q0 -12 -13.5 -22t-24.5 -5q-45 22 -148 63q-27 -8 -191 -70q-21 -7 -23 13z" />
    <glyph glyph-name="idieresis" unicode="&#xef;" horiz-adv-x="474" 
d="M436 160q-6 -50 -57 -85q-19 -14 -85 -44q-42 -19 -137 -36q-8 -1 -44 -1q-111 0 -111 66q0 49 85 183q15 23 101 148q16 22 33 25q2 1 47 1q72 0 96 -9q2 0 5.5 -9t5.5 -11q-12 -39 -63 -116q-61 -93 -78 -128q4 0 20 -3t21 -3q36 0 83 6q44 6 46 6zM528 538
q0 -32 -37 -51q-30 -16 -67 -16q-60 0 -60 41q0 33 46 53q34 15 64 15q23 0 38.5 -12t15.5 -30zM288 538q0 -32 -37 -51q-30 -16 -67 -16q-60 0 -60 41q0 33 46 53q34 15 64 15q23 0 38.5 -12t15.5 -30z" />
    <glyph glyph-name="ntilde" unicode="&#xf1;" horiz-adv-x="816" 
d="M796 349q0 -6 -80.5 -164t-80.5 -194q-25 -6 -62 -6q-124 0 -124 45q0 26 23 73q16 32 33 65q-3 3 -13 3q-72 0 -414 -176q-21 0 -50 46q-26 41 -26 52q0 19 83 163q87 154 121 161q14 3 28 3q30 0 61 -14l44 -20q-27 -67 -74 -161q204 104 243 120q123 52 225 52
q22 0 42.5 -14.5t20.5 -33.5zM569 485q-53 0 -93 30q-37 27 -51 27q-16 0 -43 -15l-40 -26q-8 -4 -16 -4q-15 0 -25.5 11.5t-10.5 25.5q0 19 19 25q13 11 26 23q8 5 41 21q38 10 50 10q19 0 57 -20q23 -12 45 -25q15 -8 33 -8q14 0 46 4q36 15 54 32q12 12 29 12
q16 0 28.5 -10t12.5 -23q0 -11 -11 -21q-17 -17 -52 -38q-40 -25 -60.5 -28t-38.5 -3z" />
    <glyph glyph-name="oacute" unicode="&#xf3;" horiz-adv-x="784" 
d="M745 156q0 -97 -186 -145q-124 -31 -246 -31q-97 0 -182 25q-130 37 -130 116q0 106 120 189q95 67 247 108q124 34 203 34q93 0 103 -44q-117 -27 -212 -81q-124 -69 -180 -168q18 -16 73 -13q77 0 138 13q111 25 111 87q0 26 -10 47q-15 26 -30 51q12 18 27 18
q54 0 109 -96q45 -80 45 -110zM393 491q0 12 19 23q58 28 166 79q15 20 50 20q21 0 36 -15t15 -36q0 -36 -51 -48q-69 -10 -201 -41q-10 -3 -22 2.5t-12 15.5z" />
    <glyph glyph-name="ograve" unicode="&#xf2;" horiz-adv-x="784" 
d="M745 156q0 -97 -186 -145q-124 -31 -246 -31q-97 0 -182 25q-130 37 -130 116q0 106 120 189q95 67 247 108q124 34 203 34q93 0 103 -44q-117 -27 -212 -81q-124 -69 -180 -168q18 -16 73 -13q77 0 138 13q111 25 111 87q0 26 -10 47q-15 26 -30 51q12 18 27 18
q54 0 109 -96q45 -80 45 -110zM716 499q0 11 -19 23q-58 28 -166 78q-15 21 -50 21q-21 0 -36 -15t-15 -36q0 -36 51 -48q69 -10 201 -41q10 -3 22 2t12 16z" />
    <glyph glyph-name="ocircumflex" unicode="&#xf4;" horiz-adv-x="784" 
d="M745 156q0 -97 -186 -145q-124 -31 -246 -31q-97 0 -182 25q-130 37 -130 116q0 106 120 189q95 67 247 108q124 34 203 34q93 0 103 -44q-117 -27 -212 -81q-124 -69 -180 -168q18 -16 73 -13q77 0 138 13q111 25 111 87q0 26 -10 47q-15 26 -30 51q12 18 27 18
q54 0 109 -96q45 -80 45 -110zM316 493q-1 14 24 33q96 52 201 108q27 11 44 1q52 -45 123 -103q8 -9 8 -18q0 -12 -13.5 -22t-24.5 -5q-45 22 -148 63q-27 -8 -191 -70q-21 -7 -23 13z" />
    <glyph glyph-name="odieresis" unicode="&#xf6;" horiz-adv-x="784" 
d="M745 156q0 -97 -186 -145q-124 -31 -246 -31q-97 0 -182 25q-130 37 -130 116q0 106 120 189q95 66 246 108q124 34 203 34q94 0 104 -44q-117 -27 -212 -81q-124 -69 -180 -168q18 -16 73 -13q77 0 138 13q111 25 111 87q0 26 -10 47q-15 26 -30 51q12 18 27 18
q54 0 109 -96q45 -80 45 -110zM738 548q0 -32 -37 -51q-30 -16 -67 -16q-60 0 -60 41q0 33 46 53q34 15 64 15q23 0 38.5 -12t15.5 -30zM498 548q0 -32 -37 -51q-30 -16 -67 -16q-60 0 -60 41q0 33 46 53q34 15 64 15q23 0 38.5 -12t15.5 -30z" />
    <glyph glyph-name="otilde" unicode="&#xf5;" horiz-adv-x="784" 
d="M745 156q0 -97 -186 -145q-124 -31 -246 -31q-97 0 -182 25q-130 37 -130 116q0 106 120 189q95 67 247 108q124 34 203 34q93 0 103 -44q-117 -27 -212 -81q-124 -69 -180 -168q18 -16 73 -13q77 0 138 13q111 25 111 87q0 26 -10 47q-15 26 -30 51q12 18 27 18
q54 0 109 -96q45 -80 45 -110zM609 485q-53 0 -93 30q-37 27 -51 27q-16 0 -43 -15l-40 -26q-8 -4 -16 -4q-15 0 -25.5 11.5t-10.5 25.5q0 19 19 25q13 11 26 23q8 5 41 21q38 10 50 10q19 0 57 -20q23 -12 45 -25q15 -8 33 -8q14 0 46 4q36 15 54 32q12 12 29 12
q16 0 28.5 -10t12.5 -23q0 -11 -11 -21q-17 -17 -52 -38q-40 -25 -60.5 -28t-38.5 -3z" />
    <glyph glyph-name="uacute" unicode="&#xfa;" horiz-adv-x="846" 
d="M788 132q0 -38 -155 -97q-135 -51 -156 -51q-39 0 -39 39q0 7 10 50q9 38 6 57q-250 -146 -360 -146q-39 0 -70 16q-39 19 -39 55q0 35 82.5 160.5t82.5 155.5q0 5 -34 54q16 17 34 17q35 0 214 -50q-17 -34 -56 -97q-49 -78 -64 -105q56 8 164 67q68 37 174 106
q85 54 90 54q32 0 92 -34q0 -17 -56 -119.5t-56 -113.5q0 -20 24 -20q61 0 106 19q0 -1 3 -5.5t3 -11.5zM383 471q0 12 19 23q58 28 166 79q15 20 50 20q21 0 36 -15t15 -36q0 -36 -51 -48q-69 -10 -201 -41q-10 -3 -22 2.5t-12 15.5z" />
    <glyph glyph-name="ugrave" unicode="&#xf9;" horiz-adv-x="846" 
d="M788 132q0 -38 -155 -97q-135 -51 -156 -51q-39 0 -39 39q0 7 10 50q9 38 6 57q-250 -146 -360 -146q-39 0 -70 16q-39 19 -39 55q0 35 82.5 160.5t82.5 155.5q0 5 -34 54q16 17 34 17q35 0 214 -50q-17 -34 -56 -97q-49 -78 -64 -105q56 8 164 67q68 37 174 106
q85 54 90 54q32 0 92 -34q0 -17 -56 -119.5t-56 -113.5q0 -20 24 -20q61 0 106 19q0 -1 3 -5.5t3 -11.5zM616 479q0 11 -19 23q-58 28 -166 78q-15 21 -50 21q-21 0 -36 -15t-15 -36q0 -36 51 -48q69 -10 201 -41q10 -3 22 2t12 16z" />
    <glyph glyph-name="ucircumflex" unicode="&#xfb;" horiz-adv-x="846" 
d="M788 132q0 -38 -155 -97q-135 -51 -156 -51q-39 0 -39 39q0 7 10 50q9 38 6 57q-250 -146 -360 -146q-39 0 -70 16q-39 19 -39 55q0 35 82.5 160.5t82.5 155.5q0 5 -34 54q16 17 34 17q35 0 214 -50q-17 -34 -56 -97q-49 -78 -64 -105q56 8 164 67q68 37 174 106
q85 54 90 54q32 0 92 -34q0 -17 -56 -119.5t-56 -113.5q0 -20 24 -20q61 0 106 19q0 -1 3 -5.5t3 -11.5zM316 493q-1 14 24 33q96 52 201 108q27 11 44 1q52 -45 123 -103q8 -9 8 -18q0 -12 -13.5 -22t-24.5 -5q-45 22 -148 63q-27 -8 -191 -70q-21 -7 -23 13z" />
    <glyph glyph-name="udieresis" unicode="&#xfc;" horiz-adv-x="846" 
d="M788 132q0 -38 -155 -97q-135 -51 -156 -51q-39 0 -39 39q0 7 10 50q9 38 6 57q-250 -146 -360 -146q-39 0 -70 16q-39 19 -39 55q0 35 82.5 160.5t82.5 155.5q0 5 -34 54q6 6 11 11.5t13 5.5q59 0 125 -14t99 -36q-17 -34 -56 -97q-49 -78 -64 -105q77 11 251 119
q84 54 167 107q45 2 67 -10q17 -11 35 -23q0 -17 -56 -119.5t-56 -113.5q0 -20 24 -20q61 0 106 19q0 -1 3 -5.5t3 -11.5zM708 538q0 -32 -37 -51q-30 -16 -67 -16q-60 0 -60 41q0 33 46 53q34 15 64 15q23 0 38.5 -12t15.5 -30zM468 538q0 -32 -37 -51q-30 -16 -67 -16
q-60 0 -60 41q0 33 46 53q34 15 64 15q23 0 38.5 -12t15.5 -30z" />
    <glyph glyph-name="dagger" unicode="&#x2020;" 
 />
    <glyph glyph-name="degree" unicode="&#xb0;" horiz-adv-x="331" 
d="M143 695q57 0 97.5 -40.5t40.5 -97.5t-40.5 -97t-97.5 -40t-97 40t-40 97t40 97.5t97 40.5zM143 645q-36 0 -61.5 -26t-25.5 -62t25.5 -61.5t61.5 -25.5t62 25.5t26 61.5t-26 62t-62 26z" />
    <glyph glyph-name="cent" unicode="&#xa2;" horiz-adv-x="776" 
d="M719 532q0 -64 -95 -64q-7 0 -43 15q-41 17 -64 22q-20 -39 -49 -112q-34 -85 -47 -111q2 -2 6 -2q20 0 204 67q8 2 83 35l-10 -35q-10 -40 -63 -105q-49 -61 -67 -66q-76 -19 -218 -43l-44 -105l-61 -2q15 40 48 108q-149 4 -204 25q-100 38 -100 157q0 109 202 193
q143 60 301 81q3 1 34 76l61 4l-38 -79q164 3 164 -59zM463 508q-45 1 -132.5 -90t-100.5 -157q68 0 124 14z" />
    <glyph glyph-name="sterling" unicode="&#xa3;" horiz-adv-x="788" 
d="M758 600q0 -52 -76 -85q-55 -24 -94 -24q-6 0 -32 8t-32 8q-8 0 -35 -36.5t-40 -62.5q3 -3 175 -3q2 -4 2 -11q0 -45 -66 -109q-8 -8 -58 -8q-6 0 -50 3t-51 3q-27 0 -49 -2q-45 -57 -79 -124v-24q14 3 34 3q14 0 34 -1t23 -1q-1 0 61 3q121 6 217 51q18 9 35 18
q25 12 38 12q7 0 11 -4q-16 -47 -31 -94q-21 -55 -50.5 -81t-80.5 -30q-120 -9 -187 -9q-115 0 -200 10q-176 21 -176 78q0 25 42 100q27 45 54 91q-50 8 -106 5l34 66q25 44 53 53q8 3 20 3q10 0 29.5 -2.5t28.5 -2.5q21 0 33 10q169 156 208 185q47 34 139 68q35 13 83 13
q44 0 86 -17q53 -22 53 -60z" />
    <glyph glyph-name="section" unicode="&#xa7;" horiz-adv-x="1131" 
 />
    <glyph glyph-name="bullet" unicode="&#x2022;" horiz-adv-x="437" 
d="M31 324q0 71 50.5 122t122.5 51q71 0 122 -51t51 -122q0 -72 -51 -122.5t-122 -50.5q-72 0 -122.5 50.5t-50.5 122.5z" />
    <glyph glyph-name="paragraph" unicode="&#xb6;" 
 />
    <glyph glyph-name="germandbls" unicode="&#xdf;" horiz-adv-x="957" 
d="M79 -87q-41 -53 -68 -53q-24 0 -24 23q0 76 57 229q45 119 89 200q-114 0 -141 -11l-1 28q-2 48 35 69q27 15 80 16q37 1 73 1l64 104q48 76 89 117q56 55 106 55l28 2q-53 -65 -53 -105q0 -31 10 -44q14 -15 27 -31q-31 -33 -87 -107q-66 -106 -166 -280
q-91 -159 -118 -213zM931 590q-8 -76 -97 -144q-54 -36 -108 -71l92 -30q81 -36 74 -101q-10 -102 -167 -177q-114 -54 -292 -89q-124 -24 -169 -25q-101 -1 -101 27q0 15 25.5 29.5t48.5 14.5q30 1 130 23q132 30 218 71q117 55 123 121q6 57 -68 75q-28 6 -80 6l3 28
q54 43 108 87q87 70 89 90q4 38 -78 64q-35 6 -63 6q-30 0 -55 -7q-17 -5 -33 -9q-15 -16 -42 -32q-23 0 -33 9.5t-8 27.5q4 38 36 65q26 39 69 50q27 7 100 8q81 1 154 -16q131 -29 124 -101z" />
    <glyph glyph-name="registered" unicode="&#xae;" horiz-adv-x="425" 
d="M182 322q-75 0 -128 54t-53 130q0 75 53 128t128 53t127.5 -53.5t52.5 -129.5q0 -75 -52.5 -128.5t-127.5 -53.5zM182 643q-58 1 -97 -39.5t-39 -99.5q0 -57 40.5 -98t95.5 -41t95 41t40 98t-40 97t-95 42zM187 600q11 4 32 -2q36 -11 36 -46q0 -45 -44 -54l49 -76h-45
l-49 75h-15v-75h-38v178h74zM188 568h-39v-29h44q25 0 25 18q0 11 -30 11z" />
    <glyph glyph-name="copyright" unicode="&#xa9;" horiz-adv-x="814" 
d="M366 -21q-149 0 -253 104.5t-104 254.5t104 255t253 105t253.5 -105t104.5 -255t-104.5 -254.5t-253.5 -104.5zM366 625q-116 0 -200.5 -84t-84.5 -203t84.5 -202.5t200.5 -83.5t200.5 83.5t84.5 202.5t-84.5 203t-200.5 84zM477 397q-23 81 -101 81q-60 0 -95 -39
t-35 -100q0 -55 31 -94q35 -43 97 -43q83 0 103 79h74q-17 -75 -63.5 -113.5t-112.5 -38.5q-92 0 -147 60t-55 152q0 89 56 150t147 61q65 0 112 -39q50 -42 63 -116h-74z" />
    <glyph glyph-name="trademark" unicode="&#x2122;" horiz-adv-x="492" 
d="M377 607l-56 -140h-27l-52 134v-134h-43v211h58l51 -129l52 129h59v-211h-42v140zM103 634v-167h-43v167h-66v44h173v-44h-64z" />
    <glyph glyph-name="acute" unicode="&#xb4;" horiz-adv-x="357" 
d="M13 721q0 12 19 23q58 28 166 79q15 20 50 20q21 0 36 -15t15 -36q0 -36 -51 -48q-69 -10 -201 -41q-10 -3 -22 2.5t-12 15.5z" />
    <glyph glyph-name="dieresis" unicode="&#xa8;" horiz-adv-x="499" 
d="M458 788q0 -32 -37 -51q-30 -16 -67 -16q-60 0 -60 41q0 33 46 53q34 15 64 15q23 0 38.5 -12t15.5 -30zM218 788q0 -32 -37 -51q-30 -16 -67 -16q-60 0 -60 41q0 33 46 53q34 15 64 15q23 0 38.5 -12t15.5 -30z" />
    <glyph glyph-name="AE" unicode="&#xc6;" horiz-adv-x="1993" 
d="M1210 608q0 -2 -56 -88q-68 -104 -105 -167q48 14 128 29q69 13 82 19q-6 10 -40 34q-26 18 -26 47q0 68 152 120q113 38 293 63q132 19 182 19q52 0 68 -3q47 -10 47 -46q0 -52 -42 -76q-31 -18 -76 -18q-6 0 -111 15t-111 15q-33 0 -92 -33q-65 -36 -65 -66
q0 -40 93 -66q52 -10 104 -21q3 -4 0 -17q-2 -14 -9 -15l-216 -54q-168 -45 -253 -91q92 -19 107 -21q65 -10 164 -10q96 0 304 31q177 27 200 35q-69 -134 -320 -201q-183 -49 -378 -49q-171 0 -267 39q-76 -33 -108 -33q-89 0 -89 63q0 51 42 144q-11 13 -41 13
q2 0 -31.5 3.5t-58.5 3.5q-50 0 -70 -13q-84 -65 -169 -131q-162 -112 -269 -112q-5 0 -16.5 -1t-17.5 -1q-35 0 -72 24q-17 11 -50 101.5t-33 126.5q0 26 24 45q21 17 55 22l327 -7q6 -2 15 -2q46 0 168 72q72 44 231 152q150 102 201 131q-34 -62 -127 -162
q-76 -78 -153 -156q11 -6 134 2q14 18 72 121q62 113 97 164q56 83 85 83q33 0 65 -26.5t32 -50.5z" />
    <glyph glyph-name="Oslash" unicode="&#xd8;" horiz-adv-x="1146" 
d="M686 524q30 28 57 52q-97 -26 -156 -60q41 1 99 8zM292 127q131 145 312 319q-130 -10 -240 -83q-132 -86 -176 -228q52 -10 73 -10q9 0 31 2zM719 433q-171 -180 -278 -284q364 68 364 194q0 60 -86 90zM975 702q-18 -17 -45 -45q16 -10 37 -26q-29 -9 -82 -21l-67 -71
q32 2 61 2q94 0 137 -16q69 -26 69 -99q0 -136 -150 -243q-116 -84 -301 -138q-147 -43 -228 -43q-38 0 -111 13q-98 -82 -135 -82q-11 0 -16 7q15 31 68 95q-215 62 -215 188q0 141 198 259q151 89 388 151q188 50 266 50h17q37 28 47 28q64 -1 64 -6q-1 -2 -2 -3z" />
    <glyph glyph-name="plusminus" unicode="&#xb1;" 
 />
    <glyph glyph-name="yen" unicode="&#xa5;" horiz-adv-x="808" 
d="M88 319h144l4 22q-133 230 -234 286q8 35 95 50q47 8 101 8q50 0 111 -81q46 -64 91 -129q108 65 216 129q88 49 186 49q7 0 12 -6t9 -11q-46 -45 -163 -136q-120 -92 -180 -149l-5 -32h126q9 0 16 -6.5t5 -14.5l-6 -24q-5 -21 -21 -21h-131l-10 -54h137q9 0 16 -6.5
t5 -14.5l-5 -22q-4 -23 -21 -23h-143q-24 -133 -29 -137q-13 -9 -65 -9h-92q-9 0 -36 1.5t-30 1.5t-8.5 12t-5.5 15q3 21 21 116l-120 1q-9 0 -16 6.5t-5 14.5l7 27q4 17 14 17h132l10 55h-132q-9 0 -16 6t-5 15l6 26q4 18 15 18z" />
    <glyph glyph-name="mu" unicode="&#xb5;" horiz-adv-x="813" 
d="M137 330l209 44l68 130q50 175 122 175q34 0 98 -27q72 -31 72 -61q0 -54 -135 -170l141 30q8 2 14.5 -5t6.5 -16v-29q0 -17 -21 -21l-248 -53q-47 -43 -66 -63q-39 -39 -47 -60l278 -32q6 0 22 2.5t23 3.5q39 3 116 61q7 -7 7 -17q0 -57 -62 -132q-65 -81 -128 -81h-81
l-276 48q-8 1 -37 -29q-38 -41 -64 -59q-46 -32 -95 -32q-8 0 -36 11t-31 14q22 102 71 169q63 84 152 84q5 0 20 -2.5t21 -2.5q12 0 53 84l-167 -36q-8 -1 -14.5 5.5t-6.5 15.5v30q0 16 21 21z" />
    <glyph glyph-name="mu" unicode="&#x3bc;" horiz-adv-x="813" 
d="M137 330l209 44l68 130q50 175 122 175q34 0 98 -27q72 -31 72 -61q0 -54 -135 -170l141 30q8 2 14.5 -5t6.5 -16v-29q0 -17 -21 -21l-248 -53q-47 -43 -66 -63q-39 -39 -47 -60l278 -32q6 0 22 2.5t23 3.5q39 3 116 61q7 -7 7 -17q0 -57 -62 -132q-65 -81 -128 -81h-81
l-276 48q-8 1 -37 -29q-38 -41 -64 -59q-46 -32 -95 -32q-8 0 -36 11t-31 14q22 102 71 169q63 84 152 84q5 0 20 -2.5t21 -2.5q12 0 53 84l-167 -36q-8 -1 -14.5 5.5t-6.5 15.5v30q0 16 21 21z" />
    <glyph glyph-name="ordfeminine" unicode="&#xaa;" horiz-adv-x="908" 
d="M888 238q-4 -16 -20 -56q-155 -173 -427 -173q-34 0 -70 3l-154 -4q-70 0 -133 26q-86 37 -86 108q0 86 277 228q173 81 346 161q-2 2 -8 6q-18 2 -55 2q-220 0 -309 -22q-43 -8 -85 -16q-38 -11 -121 -65q-11 10 -11 22q0 16 15 71q18 68 40 101q14 21 88 33
q102 17 183 17q124 0 287 -26q229 -35 229 -96q0 -37 -232 -185q-149 -94 -299 -187q10 -3 66 -3q5 0 55 3q55 4 77 5q54 2 167 20q137 22 180 27zM666 833q0 -12 -13 -25q-77 -50 -162 -104q-12 -6 -28 -4q-18 3 -16 4q-1 -1 -73 47q-83 55 -90 59q-16 12 -16 25
q0 10 9.5 16.5t19.5 2.5q54 -23 173 -66q24 8 167 66q10 5 19.5 -2.5t9.5 -18.5z" />
    <glyph glyph-name="ordmasculine" unicode="&#xba;" horiz-adv-x="713" 
d="M659 392q-3 -87 -134 -176q-102 -62 -203 -123q37 -15 68 -15q38 0 115 8t152 26q4 -15 -24 -40q-8 -7 -53.5 -41t-122.5 -45q-43 -6 -132 -6q-87 0 -182 11q-157 19 -157 58q0 45 226 157q179 87 286 124q0 6 -12 9q-7 2 -15 3q-27 3 -61 -2q-30 -5 -61 -11
q-70 -10 -204 -48q-34 -16 -110 -39q1 3 33 81q19 49 42 74q20 22 72 29l84 6q21 1 180 1q51 0 166 -16q18 -3 27 -6q18 -6 20 -19zM636 603q0 -12 -13 -25q-77 -50 -162 -104q-12 -6 -28 -4q-18 3 -16 4q-1 -1 -73 47q-83 55 -90 59q-16 12 -16 25q0 10 9.5 16.5t19.5 2.5
q54 -23 173 -66q24 8 167 66q10 5 19.5 -2.5t9.5 -18.5z" />
    <glyph glyph-name="ae" unicode="&#xe6;" horiz-adv-x="1371" 
d="M1313 223q-24 -149 -161 -203q-86 -34 -245 -34q-135 0 -229 40q-52 -28 -102 -28q-28 0 -28 43q0 20 7 53q6 30 6 32q-132 -79 -193 -103q-86 -34 -187 -34q-73 0 -125 32q-62 38 -62 110q0 38 30 71q23 26 78 61q139 88 264 128q106 35 233 43q36 2 41 2q83 0 96 -51
q-265 -11 -514 -242q5 -9 30 -17q20 -5 30 -5q102 0 302 109q47 109 276 172q158 43 257 43q177 0 177 -60q0 -69 -110 -117q-82 -36 -212 -55q-101 -15 -140 -12q-16 -19 -23 -61q11 -13 65 -13q103 0 247.5 32t191.5 64zM1238 376q-13 7 -38 7q-55 0 -136 -31.5
t-129 -72.5l38 -7q121 23 150 32q89 26 115 72z" />
    <glyph glyph-name="oslash" unicode="&#xf8;" horiz-adv-x="808" 
d="M389 147q205 12 205 99q0 32 -29 80q-104 -107 -176 -179zM554 386q-249 -50 -317 -230q10 -18 28 -18q9 0 23 4.5t17 4.5q139 138 249 239zM735 156q0 -97 -186 -145q-124 -31 -246 -31q-39 0 -85 5q-96 -83 -123 -83q-5 0 -8 3q12 24 72 90q-168 35 -168 126
q0 106 120 189q95 67 247 108q124 34 203 34q44 0 64 -6q42 35 49 35q41 -2 37 -6q-16 -15 -53 -53q4 -6 6 -14q-12 -3 -25 -6l-41 -43q49 -13 97 -103q40 -74 40 -100z" />
    <glyph glyph-name="questiondown" unicode="&#xbf;" horiz-adv-x="510" 
d="M-16 -61q0 38 49 82q25 23 107 80q75 51 105 84q-6 16 -47 26q-33 8 -59 8q-39 0 -96 -4q26 41 66 57q52 22 160 22q68 0 119 -16q81 -24 81 -80q0 -60 -105 -136q-70 -47 -140 -93q24 -14 55 -17q-2 0 52 0l164 10q-31 -68 -117 -118q-78 -46 -138 -46q-72 0 -152 32
q-104 41 -104 109zM233 366q-3 10 -3 19q0 42 53 68q40 21 85 24q62 5 95 -10q0 -2 7 -11t7 -16q0 -51 -48 -76q-37 -20 -93 -20q-67 0 -103 22z" />
    <glyph glyph-name="exclamdown" unicode="&#xa1;" horiz-adv-x="493" 
d="M1 -166q0 65 70 173q65 100 149 178q89 82 137 82q18 0 28 -12q-60 -143 -120 -285q-80 -179 -134 -179q-6 0 -51 9q-51 10 -73 13q0 2 -3 7.5t-3 13.5zM249 373q0 44 71 81q56 29 84 29q25 0 50 -16q30 -18 30 -46q0 -45 -70 -77q-56 -27 -101 -27q-28 0 -46 17t-18 39z
" />
    <glyph glyph-name="logicalnot" unicode="&#xac;" 
 />
    <glyph glyph-name="florin" unicode="&#x192;" 
 />
    <glyph glyph-name="guillemotleft" unicode="&#xab;" horiz-adv-x="532" 
d="M354 311l82 -180q6 -13 -5 -21l-12 -9q-13 -11 -21 -2l-178 203q-7 7 -7 14q0 10 17 25l218 190q15 13 22 2l3 -7q9 -17 4 -24zM144 311l82 -180q6 -13 -5 -21l-12 -9q-13 -11 -21 -2l-178 203q-7 7 -7 14q0 10 17 25l218 190q15 13 22 2l3 -7q9 -17 4 -24z" />
    <glyph glyph-name="guillemotright" unicode="&#xbb;" horiz-adv-x="532" 
d="M126 321l-81 180q-6 13 4 21l13 9q13 11 21 2l178 -203q6 -7 6 -14q0 -10 -17 -25l-218 -190q-15 -13 -21 -2l-3 7q-9 17 -5 24zM336 321l-81 180q-6 13 4 21l13 9q13 11 21 2l178 -203q6 -7 6 -14q0 -10 -17 -25l-218 -190q-15 -13 -21 -2l-3 7q-9 17 -5 24z" />
    <glyph glyph-name="ellipsis" unicode="&#x2026;" horiz-adv-x="1106" 
d="M256 93q0 -52 -64 -78q-43 -18 -85 -18q-34 0 -57 14q-28 16 -28 45q0 47 65 75q49 21 92 21q32 0 54.5 -17t22.5 -42zM256 93q0 -52 -64 -78q-43 -18 -85 -18q-34 0 -57 14q-28 16 -28 45q0 47 65 75q49 21 92 21q32 0 54.5 -17t22.5 -42zM256 93q0 -52 -64 -78
q-43 -18 -85 -18q-34 0 -57 14q-28 16 -28 45q0 47 65 75q49 21 92 21q32 0 54.5 -17t22.5 -42zM656 93q0 -52 -64 -78q-43 -18 -85 -18q-34 0 -57 14q-28 16 -28 45q0 47 65 75q49 21 92 21q32 0 54.5 -17t22.5 -42zM656 93q0 -52 -64 -78q-43 -18 -85 -18q-34 0 -57 14
q-28 16 -28 45q0 47 65 75q49 21 92 21q32 0 54.5 -17t22.5 -42zM656 93q0 -52 -64 -78q-43 -18 -85 -18q-34 0 -57 14q-28 16 -28 45q0 47 65 75q49 21 92 21q32 0 54.5 -17t22.5 -42zM1056 93q0 -52 -64 -78q-43 -18 -85 -18q-34 0 -57 14q-28 16 -28 45q0 47 65 75
q49 21 92 21q32 0 54.5 -17t22.5 -42zM1056 93q0 -52 -64 -78q-43 -18 -85 -18q-34 0 -57 14q-28 16 -28 45q0 47 65 75q49 21 92 21q32 0 54.5 -17t22.5 -42zM1056 93q0 -52 -64 -78q-43 -18 -85 -18q-34 0 -57 14q-28 16 -28 45q0 47 65 75q49 21 92 21q32 0 54.5 -17
t22.5 -42z" />
    <glyph glyph-name="nonbreakingspace" unicode="&#xa0;" horiz-adv-x="285" 
 />
    <glyph glyph-name="Agrave" unicode="&#xc0;" horiz-adv-x="1180" 
d="M1210 608q0 3 -109.5 -170.5t-109.5 -217.5q0 -59 139 -59q12 0 44 2q-19 -25 -150 -93q-146 -75 -210 -75q-89 0 -89 64q0 36 51 148q-11 13 -41 13l-23.5 3t-41.5 3q-38 0 -59 -13q-84 -65 -169 -131q-162 -112 -269 -112q-5 0 -16.5 -1t-17.5 -1q-35 0 -72 24
q-17 11 -50 101.5t-33 126.5q0 26 24 45q21 17 55 22l327 -7q6 -2 15 -2q46 0 168 72q72 44 231 152q150 102 201 131q-34 -62 -127 -162q-76 -78 -153 -156q6 -3 23 -3q15 0 43 3q16 1 32 3q69 103 137 205q112 162 153 162q33 0 65 -26.5t32 -50.5zM1200 725q0 11 -20 23
q-58 28 -166 78q-14 21 -49 21q-21 0 -36 -15t-15 -36q0 -36 51 -48q68 -10 201 -41q10 -3 22 2t12 16z" />
    <glyph glyph-name="Atilde" unicode="&#xc3;" horiz-adv-x="1180" 
d="M1210 608q0 3 -109.5 -170.5t-109.5 -217.5q0 -59 139 -59q12 0 44 2q-19 -25 -150 -93q-146 -75 -210 -75q-89 0 -89 64q0 36 51 148q-11 13 -41 13l-23.5 3t-41.5 3q-38 0 -59 -13q-84 -65 -169 -131q-162 -112 -269 -112q-5 0 -16.5 -1t-17.5 -1q-35 0 -72 24
q-17 11 -50 101.5t-33 126.5q0 26 24 45q21 17 55 22l327 -7q6 -2 15 -2q46 0 168 72q72 44 231 152q150 102 201 131q-34 -62 -127 -162q-76 -78 -153 -156q6 -3 23 -3q15 0 43 3q16 1 32 3q69 103 137 205q112 162 153 162q33 0 65 -26.5t32 -50.5zM1129 715q-53 0 -93 30
q-37 27 -51 27q-16 0 -43 -15l-40 -26q-8 -4 -16 -4q-15 0 -25.5 11.5t-10.5 25.5q0 19 19 25q13 11 26 23q8 5 41 21q38 10 50 10q19 0 57 -20q23 -12 45 -25q15 -8 33 -8q14 0 46 4q36 15 54 32q12 12 29 12q16 0 28.5 -10t12.5 -23q0 -11 -11 -21q-17 -17 -52 -38
q-40 -25 -60.5 -28t-38.5 -3z" />
    <glyph glyph-name="Otilde" unicode="&#xd5;" horiz-adv-x="1095" 
d="M1085 426q0 -136 -150 -243q-116 -84 -301 -138q-147 -43 -228 -43q-96 0 -220 41q-189 62 -189 180q0 141 198 259q151 89 388 151q188 50 266 50q28 0 46 -7q25 -10 72 -45l-166 -44q-108 -29 -177 -70q45 2 129 14q73 10 126 10q94 0 137 -16q69 -26 69 -99zM805 343
q0 52 -66 82q-51 23 -100 23q-134 0 -257 -74q-147 -87 -194 -239q52 -10 73 -10q45 0 160 20q155 28 253 69q131 56 131 129zM819 715q-53 0 -93 30q-37 27 -51 27q-16 0 -43 -15l-40 -26q-8 -4 -16 -4q-15 0 -25.5 11.5t-10.5 25.5q0 19 19 25q13 11 26 23q8 5 41 21
q38 10 50 10q19 0 57 -20q23 -12 45 -25q15 -8 33 -8q14 0 46 4q36 15 54 32q12 12 29 12q16 0 28.5 -10t12.5 -23q0 -11 -11 -21q-17 -17 -52 -38q-40 -25 -60.5 -28t-38.5 -3z" />
    <glyph glyph-name="OE" unicode="&#x152;" horiz-adv-x="1889" 
d="M805 343q0 52 -66 82q-51 23 -100 23q-134 0 -257 -74q-147 -87 -194 -239q52 -10 73 -10q45 0 160 20q155 28 253 69q131 56 131 129zM1815 635q0 -52 -42 -76q-31 -18 -76 -18q-6 0 -111 15t-111 15q-33 0 -92 -33q-65 -36 -65 -66q0 -40 93 -66q52 -10 104 -21
q3 -4 0 -17q-2 -14 -9 -15l-216 -54q-168 -45 -253 -91q92 -19 107 -21q65 -10 164 -10q96 0 304 31q177 27 200 35q-69 -134 -320 -201q-183 -49 -378 -49q-283 0 -363 94q-94 -41 -203 -65q-89 -20 -142 -20q-96 0 -220 41q-189 62 -189 180q0 141 198 259q151 89 388 151
q188 50 266 50q28 0 46 -7q25 -10 72 -45l-166 -44q-108 -29 -177 -70q47 2 127 18q72 14 124 14q152 0 152 -143q0 -15 -1 -30q47 8 113 25q-6 10 -40 34q-26 18 -26 47q0 68 152 120q113 38 293 63q132 19 182 19q52 0 68 -3q47 -10 47 -46z" />
    <glyph glyph-name="oe" unicode="&#x153;" horiz-adv-x="1344" 
d="M1303 231q-24 -149 -160 -208q-91 -39 -245 -39q-38 0 -105 18q-77 20 -134 51q-71 -39 -198 -59q-89 -14 -158 -14q-97 0 -182 25q-130 37 -130 116q0 106 120 189q95 67 247 108q124 34 203 34q93 0 103 -44q-117 -27 -212 -81q-124 -69 -180 -168q18 -16 73 -13
q146 0 212 41v4q35 24 35 62q0 12 -3 26q-2 8 -35 65q12 18 27 18q31 0 64 -33q93 63 271 99q126 26 191 26q177 0 177 -61q0 -88 -165 -141q-129 -42 -250 -42q-27 0 -37 3q-27 -32 -33 -65q12 -12 66 -12q102 0 247 31.5t191 63.5zM1198 376q-13 7 -38 7q-66 0 -152 -27
q-102 -32 -139 -79l64 -5q121 23 150 32q89 26 115 72z" />
    <glyph glyph-name="endash" unicode="&#x2013;" horiz-adv-x="611" 
d="M549 294q-8 -31 -36 -67q-43 -54 -102 -54h-408q19 85 65 109q25 13 97 12h384z" />
    <glyph glyph-name="emdash" unicode="&#x2014;" horiz-adv-x="998" 
d="M989 294q-8 -31 -36 -67q-43 -54 -102 -54h-848q19 85 65 109q25 13 97 12h824z" />
    <glyph glyph-name="quotedblleft" unicode="&#x201c;" horiz-adv-x="641" 
d="M6 504q0 73 108 129q85 44 137 44q20 0 28 -3q12 -5 30 -24q-4 -2 -71 -26q-44 -16 -72 -42q8 -5 33.5 -8.5t35.5 -8.5q16 -10 16 -32q0 -44 -71 -71q-51 -19 -92 -19q-82 0 -82 61zM306 504q0 73 108 129q85 44 137 44q20 0 28 -3q12 -5 30 -24q-4 -2 -71 -26
q-44 -16 -72 -42q8 -5 33.5 -8.5t35.5 -8.5q16 -10 16 -32q0 -44 -71 -71q-51 -19 -92 -19q-82 0 -82 61z" />
    <glyph glyph-name="quotedblright" unicode="&#x201d;" horiz-adv-x="641" 
d="M589 616q0 -73 -107 -129q-86 -44 -138 -44q-20 0 -28 3q-12 5 -30 24q4 2 71 26q44 16 73 42q-9 5 -34.5 8.5t-35.5 8.5q-16 9 -16 32q0 44 71 71q51 19 92 19q82 0 82 -61zM289 616q0 -73 -107 -129q-86 -44 -138 -44q-20 0 -28 3q-12 5 -30 24q4 2 71 26q44 16 73 42
q-9 5 -34.5 8.5t-35.5 8.5q-16 9 -16 32q0 44 71 71q51 19 92 19q82 0 82 -61z" />
    <glyph glyph-name="quoteleft" unicode="&#x2018;" horiz-adv-x="342" 
d="M-14 504q0 73 108 129q85 44 137 44q20 0 28 -3q12 -5 30 -24q-4 -2 -71 -26q-44 -16 -72 -42q8 -5 33.5 -8.5t35.5 -8.5q16 -10 16 -32q0 -44 -71 -71q-51 -19 -92 -19q-82 0 -82 61z" />
    <glyph glyph-name="quoteright" unicode="&#x2019;" horiz-adv-x="342" 
d="M289 616q0 -73 -107 -129q-86 -44 -138 -44q-20 0 -28 3q-12 5 -30 24q4 2 71 26q44 16 73 42q-9 5 -34.5 8.5t-35.5 8.5q-16 9 -16 32q0 44 71 71q51 19 92 19q82 0 82 -61z" />
    <glyph glyph-name="divide" unicode="&#xf7;" 
 />
    <glyph glyph-name="ydieresis" unicode="&#xff;" horiz-adv-x="670" 
d="M637 339q-103 -261 -112 -281q-63 -133 -138 -192q-90 -72 -234 -72q-2 0 -57 3t-81 3q0 2 -3 11t-3 11q11 6 29 6q97 0 220 113q120 110 163 229q-78 -51 -157 -101q-135 -85 -199 -85q-78 0 -73 91q1 29 62 180q53 129 76 177q8 2 18 2q37 0 83.5 -17.5t54.5 -39.5
q-18 -42 -37 -84q-22 -51 -24 -85l334 181q29 -10 78 -50zM618 528q0 -32 -37 -51q-30 -16 -67 -16q-60 0 -60 41q0 33 46 53q34 15 64 15q23 0 38.5 -12t15.5 -30zM378 528q0 -32 -37 -51q-30 -16 -67 -16q-60 0 -60 41q0 33 46 53q34 15 64 15q23 0 38.5 -12t15.5 -30z
" />
    <glyph glyph-name="Ydieresis" unicode="&#x178;" horiz-adv-x="830" 
d="M843 607q0 -188 -219 -494q3 -3 15 -3q4 0 60 10q61 11 85 13q-17 -44 -69 -67q-28 -13 -97 -28q-59 -12 -78 -27q-125 -98 -219 -133q-82 -31 -191 -31q-6 0 -80 1v45q0 33 77 73q42 21 153 63q91 34 106 47q24 22 99 142.5t108 193.5q-62 -63 -184 -163
q-156 -127 -206 -133q-89 -11 -85 -11q-48 0 -90 36.5t-42 85.5q0 59 126 277q124 215 152 215q24 0 67 -49q40 -46 40 -61q0 -23 -93 -174q-50 -81 -101 -163q138 18 304 150q149 120 261 282q40 0 73 -37q28 -32 28 -60zM758 788q0 -32 -37 -51q-30 -16 -67 -16
q-60 0 -60 41q0 33 46 53q34 15 64 15q23 0 38.5 -12t15.5 -30zM518 788q0 -32 -37 -51q-30 -16 -67 -16q-60 0 -60 41q0 33 46 53q34 15 64 15q23 0 38.5 -12t15.5 -30z" />
    <glyph glyph-name="currency" unicode="&#xa4;" 
 />
    <glyph glyph-name="guilsinglleft" unicode="&#x2039;" horiz-adv-x="322" 
d="M144 311l82 -180q6 -13 -5 -21l-12 -9q-13 -11 -21 -2l-178 203q-7 7 -7 14q0 10 17 25l218 190q15 13 22 2l3 -7q9 -17 4 -24z" />
    <glyph glyph-name="guilsinglright" unicode="&#x203a;" horiz-adv-x="322" 
d="M133 321l-82 180q-6 13 5 21l12 9q13 11 21 2l178 -203q7 -7 7 -14q0 -10 -17 -25l-218 -190q-15 -13 -22 -2l-3 7q-9 17 -4 24z" />
    <glyph glyph-name="daggerdbl" unicode="&#x2021;" 
 />
    <glyph glyph-name="periodcentered" unicode="&#xb7;" horiz-adv-x="289" 
d="M264 276q0 -49 -60 -73q-39 -15 -81 -15q-83 0 -83 56q0 44 53 69q41 19 88 19q83 0 83 -56z" />
    <glyph glyph-name="periodcentered" unicode="&#x2219;" horiz-adv-x="289" 
d="M264 276q0 -49 -60 -73q-39 -15 -81 -15q-83 0 -83 56q0 44 53 69q41 19 88 19q83 0 83 -56z" />
    <glyph glyph-name="quotesinglbase" unicode="&#x201a;" horiz-adv-x="313" 
d="M256 79q0 -72 -107 -133q-88 -51 -141 -51q-32 0 -51 30q68 29 123 63q-9 7 -51 23q-24 8 -24 36q0 44 70 72q52 21 93 21q88 0 88 -61z" />
    <glyph glyph-name="quotedblbase" unicode="&#x201e;" horiz-adv-x="613" 
d="M556 79q0 -72 -107 -133q-88 -51 -141 -51q-32 0 -51 30q68 29 123 63q-9 7 -51 23q-24 8 -24 36q0 44 70 72q52 21 93 21q88 0 88 -61zM256 79q0 -72 -107 -133q-88 -51 -141 -51q-32 0 -51 30q68 29 123 63q-9 7 -51 23q-24 8 -24 36q0 44 70 72q52 21 93 21
q88 0 88 -61z" />
    <glyph glyph-name="perthousand" unicode="&#x2030;" 
 />
    <glyph glyph-name="Acircumflex" unicode="&#xc2;" horiz-adv-x="1180" 
d="M1210 608q0 3 -109.5 -170.5t-109.5 -217.5q0 -59 139 -59q12 0 44 2q-19 -25 -150 -93q-146 -75 -210 -75q-89 0 -89 64q0 36 51 148q-11 13 -41 13l-23.5 3t-41.5 3q-38 0 -59 -13q-84 -65 -169 -131q-162 -112 -269 -112q-5 0 -16.5 -1t-17.5 -1q-35 0 -72 24
q-17 11 -50 101.5t-33 126.5q0 26 24 45q21 17 55 22q84 -26 180 -26q80 0 147 19q6 -2 15 -2q46 0 168 72q72 44 231 152q150 102 201 131q-34 -62 -127 -162q-76 -78 -153 -156q6 -3 23 -3q15 0 43 3q16 1 32 3q69 103 137 205q112 162 153 162q33 0 65 -26.5t32 -50.5z
M881 703q-2 14 23 33q96 52 201 108q27 11 44 1q53 -45 123 -103q8 -9 8 -18q0 -12 -13.5 -22t-23.5 -5q-45 22 -148 62q-27 -7 -192 -69q-20 -7 -22 13z" />
    <glyph glyph-name="Ecircumflex" unicode="&#xca;" horiz-adv-x="1098" 
d="M1085 635q0 -52 -42 -76q-31 -18 -76 -18q-6 0 -111 15t-111 15q-33 0 -92 -33q-65 -36 -65 -66q0 -40 93 -66q52 -10 104 -21q3 -4 0 -17q-2 -14 -9 -15l-216 -54q-168 -45 -253 -91q92 -19 107 -21q65 -10 164 -10q96 0 304 31q177 27 200 35q-69 -134 -320 -201
q-183 -49 -378 -49q-138 0 -234 25q-156 41 -156 141q0 91 94 148q65 39 186 65q134 28 135 29q-6 10 -40 34q-26 18 -26 47q0 68 152 120q113 38 293 63q132 19 182 19q52 0 68 -3q47 -10 47 -46zM651 713q-2 14 23 33q96 52 201 108q27 11 44 1q53 -45 123 -103
q8 -9 8 -18q0 -12 -13.5 -22t-23.5 -5q-45 22 -148 62q-27 -7 -192 -69q-20 -7 -22 13z" />
    <glyph glyph-name="Aacute" unicode="&#xc1;" horiz-adv-x="1180" 
d="M1210 608q0 3 -109.5 -170.5t-109.5 -217.5q0 -59 139 -59q12 0 44 2q-19 -25 -150 -93q-146 -75 -210 -75q-89 0 -89 64q0 36 51 148q-11 13 -41 13l-23.5 3t-41.5 3q-38 0 -59 -13q-84 -65 -169 -131q-162 -112 -269 -112q-5 0 -16.5 -1t-17.5 -1q-35 0 -72 24
q-17 11 -50 101.5t-33 126.5q0 26 24 45q21 17 55 22l327 -7q6 -2 15 -2q46 0 168 72q72 44 231 152q150 102 201 131q-34 -62 -127 -162q-76 -78 -153 -156q6 -3 23 -3q15 0 43 3q16 1 32 3q69 103 137 205q112 162 153 162q33 0 65 -26.5t32 -50.5zM943 721q0 12 19 23
q58 28 166 79q15 20 50 20q21 0 36 -15t15 -36q0 -36 -51 -48q-69 -10 -201 -41q-10 -3 -22 2.5t-12 15.5z" />
    <glyph glyph-name="Edieresis" unicode="&#xcb;" horiz-adv-x="1098" 
d="M1085 635q0 -52 -42 -76q-31 -18 -76 -18q-6 0 -111 15t-111 15q-33 0 -92 -33q-65 -36 -65 -66q0 -40 93 -66q52 -10 104 -21q3 -4 0 -17q-2 -14 -9 -15l-216 -54q-168 -45 -253 -91q92 -19 107 -21q65 -10 164 -10q96 0 304 31q177 27 200 35q-69 -134 -320 -201
q-183 -49 -378 -49q-138 0 -234 25q-156 41 -156 141q0 91 94 148q65 39 186 65q134 28 135 29q-6 10 -40 34q-26 18 -26 47q0 68 152 120q113 38 293 63q132 19 182 19q52 0 68 -3q47 -10 47 -46zM1008 788q0 -32 -37 -51q-30 -16 -67 -16q-60 0 -60 41q0 33 46 53
q34 15 64 15q23 0 38.5 -12t15.5 -30zM768 788q0 -32 -37 -51q-30 -16 -67 -16q-60 0 -60 41q0 33 46 53q34 15 64 15q23 0 38.5 -12t15.5 -30z" />
    <glyph glyph-name="Egrave" unicode="&#xc8;" horiz-adv-x="1098" 
d="M1085 635q0 -52 -42 -76q-31 -18 -76 -18q-6 0 -111 15t-111 15q-33 0 -92 -33q-65 -36 -65 -66q0 -40 93 -66q52 -10 104 -21q3 -4 0 -17q-2 -14 -9 -15l-216 -54q-168 -45 -253 -91q92 -19 107 -21q65 -10 164 -10q96 0 304 31q177 27 200 35q-69 -134 -320 -201
q-183 -49 -378 -49q-138 0 -234 25q-156 41 -156 141q0 91 94 148q65 39 186 65q134 28 135 29q-6 10 -40 34q-26 18 -26 47q0 68 152 120q113 38 293 63q132 19 182 19q52 0 68 -3q47 -10 47 -46zM930 725q0 11 -20 23q-58 28 -166 78q-14 21 -49 21q-21 0 -36 -15t-15 -36
q0 -36 51 -48q68 -10 201 -41q10 -3 22 2t12 16z" />
    <glyph glyph-name="Iacute" unicode="&#xcd;" horiz-adv-x="854" 
d="M875 593q0 -48 -54 -146q-36 -62 -71 -124q25 -6 114 1q0 -26 -63 -98q-13 -1 -40.5 3.5t-39.5 4.5q-23 0 -34 -11q-151 -151 -227 -194q-70 -40 -172 -40q-103 0 -192 58q-103 66 -103 168q0 56 40 76q27 14 83 14h365q51 0 102 104q33 77 67 153v17h-122
q-64 0 -208 -49q-136 -45 -192 -80q13 51 26 101q22 67 61 88q50 26 228 33q61 2 266 2q166 0 166 -81zM472 218q-68 0 -110 -1q-29 0 -45 -1t-17 -1q-5 0 -211 12q99 -80 220 -80q152 0 163 71zM483 721q0 12 19 23q58 28 166 79q15 20 50 20q21 0 36 -15t15 -36
q0 -36 -51 -48q-69 -10 -201 -41q-10 -3 -22 2.5t-12 15.5z" />
    <glyph glyph-name="Icircumflex" unicode="&#xce;" horiz-adv-x="854" 
d="M875 593q0 -48 -54 -146q-36 -62 -71 -124q25 -6 114 1q0 -26 -63 -98q-13 -1 -40.5 3.5t-39.5 4.5q-23 0 -34 -11q-151 -151 -227 -194q-70 -40 -172 -40q-103 0 -192 58q-103 66 -103 168q0 56 40 76q27 14 83 14h365q51 0 102 104q33 77 67 153v17h-122
q-64 0 -208 -49q-136 -45 -192 -80q13 51 26 101q22 67 61 88q50 26 228 33q61 2 266 2q166 0 166 -81zM472 218q-68 0 -110 -1q-29 0 -45 -1t-17 -1q-5 0 -211 12q99 -80 220 -80q152 0 163 71zM381 713q-2 14 23 33q96 52 201 108q27 11 44 1q53 -45 123 -103q8 -9 8 -18
q0 -12 -13.5 -22t-23.5 -5q-45 22 -148 62q-27 -7 -192 -69q-20 -7 -22 13z" />
    <glyph glyph-name="Idieresis" unicode="&#xcf;" horiz-adv-x="854" 
d="M875 593q0 -48 -54 -146q-36 -62 -71 -124q25 -6 114 1q0 -26 -63 -98q-13 -1 -40.5 3.5t-39.5 4.5q-23 0 -34 -11q-151 -151 -227 -194q-70 -40 -172 -40q-103 0 -192 58q-103 66 -103 168q0 56 40 76q27 14 83 14h365q51 0 102 104q33 77 67 153v17h-122
q-64 0 -208 -49q-136 -45 -192 -80q13 51 26 101q22 67 61 88q50 26 228 33q61 2 266 2q166 0 166 -81zM472 218q-68 0 -110 -1q-29 0 -45 -1t-17 -1q-5 0 -211 12q99 -80 220 -80q152 0 163 71zM738 788q0 -32 -37 -51q-30 -16 -67 -16q-60 0 -60 41q0 33 46 53
q34 15 64 15q23 0 38.5 -12t15.5 -30zM498 788q0 -32 -37 -51q-30 -16 -67 -16q-60 0 -60 41q0 33 46 53q34 15 64 15q23 0 38.5 -12t15.5 -30z" />
    <glyph glyph-name="Igrave" unicode="&#xcc;" horiz-adv-x="854" 
d="M875 593q0 -48 -54 -146q-36 -62 -71 -124q25 -6 114 1q0 -26 -63 -98q-13 -1 -40.5 3.5t-39.5 4.5q-23 0 -34 -11q-151 -151 -227 -194q-70 -40 -172 -40q-103 0 -192 58q-103 66 -103 168q0 56 40 76q27 14 83 14h365q51 0 102 104q33 77 67 153v17h-122
q-64 0 -208 -49q-136 -45 -192 -80q13 51 26 101q22 67 61 88q50 26 228 33q61 2 266 2q166 0 166 -81zM472 218q-68 0 -110 -1q-29 0 -45 -1t-17 -1q-5 0 -211 12q99 -80 220 -80q152 0 163 71zM740 725q0 11 -20 23q-58 28 -166 78q-14 21 -49 21q-21 0 -36 -15t-15 -36
q0 -36 51 -48q68 -10 201 -41q10 -3 22 2t12 16z" />
    <glyph glyph-name="Oacute" unicode="&#xd3;" horiz-adv-x="1095" 
d="M1085 426q0 -136 -150 -243q-116 -84 -301 -138q-147 -43 -228 -43q-96 0 -220 41q-189 62 -189 180q0 141 198 259q151 89 388 151q188 50 266 50q28 0 46 -7q25 -10 72 -45l-166 -44q-108 -29 -177 -70q45 2 129 14q73 10 126 10q94 0 137 -16q69 -26 69 -99zM805 343
q0 52 -66 82q-51 23 -100 23q-134 0 -257 -74q-147 -87 -194 -239q52 -10 73 -10q45 0 160 20q155 28 253 69q131 56 131 129zM513 721q0 12 19 23q58 28 166 79q15 20 50 20q21 0 36 -15t15 -36q0 -36 -51 -48q-69 -10 -201 -41q-10 -3 -22 2.5t-12 15.5z" />
    <glyph glyph-name="Ocircumflex" unicode="&#xd4;" horiz-adv-x="1095" 
d="M1085 426q0 -136 -150 -243q-116 -84 -301 -138q-147 -43 -228 -43q-96 0 -220 41q-189 62 -189 180q0 141 198 259q151 89 388 151q188 50 266 50q28 0 46 -7q25 -10 72 -45l-166 -44q-108 -29 -177 -70q45 2 129 14q73 10 126 10q94 0 137 -16q69 -26 69 -99zM805 343
q0 52 -66 82q-51 23 -100 23q-134 0 -257 -74q-147 -87 -194 -239q52 -10 73 -10q45 0 160 20q155 28 253 69q131 56 131 129zM601 703q-2 14 23 33q96 52 201 108q27 11 44 1q53 -45 123 -103q8 -9 8 -18q0 -12 -13.5 -22t-23.5 -5q-45 22 -148 62q-27 -7 -192 -69
q-20 -7 -22 13z" />
    <glyph glyph-name="Ograve" unicode="&#xd2;" horiz-adv-x="1095" 
d="M1085 426q0 -136 -150 -243q-116 -84 -301 -138q-147 -43 -228 -43q-96 0 -220 41q-189 62 -189 180q0 141 198 259q151 89 388 151q188 50 266 50q28 0 46 -7q25 -10 72 -45l-166 -44q-108 -29 -177 -70q45 2 129 14q73 10 126 10q94 0 137 -16q69 -26 69 -99zM805 343
q0 52 -66 82q-51 23 -100 23q-134 0 -257 -74q-147 -87 -194 -239q52 -10 73 -10q45 0 160 20q155 28 253 69q131 56 131 129zM970 725q0 11 -20 23q-58 28 -166 78q-14 21 -49 21q-21 0 -36 -15t-15 -36q0 -36 51 -48q68 -10 201 -41q10 -3 22 2t12 16z" />
    <glyph glyph-name="Uacute" unicode="&#xda;" horiz-adv-x="1107" 
d="M1098 172q-24 -67 -172 -119q-128 -45 -224 -45q-105 0 -105 65q0 2 48 164q-230 -149 -250 -161q-140 -78 -248 -78q-78 0 -113.5 35.5t-35.5 112.5q0 67 36 138q20 41 82 133t92 153q-27 22 -82 30l-93 13q33 52 240 52q168 0 168 -41q0 -14 -104.5 -180.5
t-104.5 -197.5q0 -21 17 -21q2 0 12 2q57 0 137 30q39 15 132 59q127 59 244 145q15 11 92 114q67 90 92 90q33 0 77 -44q39 -40 39 -59l-199 -353q6 -28 59 -35q10 -1 78 -1h36q33 -1 50 -1zM573 711q0 12 19 23q58 28 166 79q15 20 50 20q21 0 36 -15t15 -36
q0 -36 -51 -48q-69 -10 -201 -41q-10 -3 -22 2.5t-12 15.5z" />
    <glyph glyph-name="Ucircumflex" unicode="&#xdb;" horiz-adv-x="1107" 
d="M1098 172q-24 -67 -172 -119q-128 -45 -224 -45q-105 0 -105 65q0 2 48 164q-230 -149 -250 -161q-140 -78 -248 -78q-78 0 -113.5 35.5t-35.5 112.5q0 67 36 138q20 41 82 133t92 153q-27 22 -82 30l-93 13q33 52 240 52q168 0 168 -41q0 -14 -104.5 -180.5
t-104.5 -197.5q0 -21 17 -21q2 0 12 2q57 0 137 30q39 15 132 59q127 59 244 145q15 11 92 114q67 90 92 90q33 0 77 -44q39 -40 39 -59l-199 -353q6 -28 59 -35q10 -1 78 -1h36q33 -1 50 -1zM511 693q-2 14 23 33q96 52 201 108q27 11 44 1q53 -45 123 -103q8 -9 8 -18
q0 -12 -13.5 -22t-23.5 -5q-45 22 -148 62q-27 -7 -192 -69q-20 -7 -22 13z" />
    <glyph glyph-name="Ugrave" unicode="&#xd9;" horiz-adv-x="1107" 
d="M1098 172q-24 -67 -172 -119q-128 -45 -224 -45q-105 0 -105 65q0 2 48 164q-230 -149 -250 -161q-140 -78 -248 -78q-78 0 -113.5 35.5t-35.5 112.5q0 67 36 138q20 41 82 133t92 153q-27 22 -82 30l-93 13q33 52 240 52q168 0 168 -41q0 -14 -104.5 -180.5
t-104.5 -197.5q0 -21 17 -21q2 0 12 2q57 0 137 30q39 15 132 59q127 59 244 145q15 11 92 114q67 90 92 90q33 0 77 -44q39 -40 39 -59l-199 -353q6 -28 59 -35q10 -1 78 -1h36q33 -1 50 -1zM800 715q0 11 -20 23q-58 28 -166 78q-14 21 -49 21q-21 0 -36 -15t-15 -36
q0 -36 51 -48q68 -10 201 -41q10 -3 22 2t12 16z" />
    <glyph glyph-name="circumflex" unicode="&#x2c6;" horiz-adv-x="521" 
d="M48 725q0 12 13 25q77 50 161 104q23 11 45 0q69 -45 162 -106q17 -12 17 -25q0 -10 -9.5 -16.5t-19.5 -2.5q-54 23 -173 66q-24 -8 -167 -66q-10 -5 -19.5 2.5t-9.5 18.5z" />
    <glyph glyph-name="tilde" unicode="&#x2dc;" horiz-adv-x="513" 
d="M299 705q-53 0 -93 30q-37 27 -51 27q-16 0 -43 -15l-40 -26q-8 -4 -16 -4q-15 0 -25.5 11.5t-10.5 25.5q0 19 19 25q13 11 26 23q8 5 41 21q38 10 50 10q19 0 57 -20q23 -12 45 -25q15 -8 33 -8q14 0 46 4q36 15 54 32q12 12 29 12q16 0 28.5 -10t12.5 -23
q0 -11 -11 -21q-17 -17 -52 -38q-40 -25 -60.5 -28t-38.5 -3z" />
    <glyph glyph-name="macron" unicode="&#xaf;" horiz-adv-x="359" 
d="M25 814h279q21 0 21 -21v-13q0 -21 -21 -21h-279q-21 0 -21 21v13q0 21 21 21z" />
    <glyph glyph-name="macron" unicode="&#x2c9;" horiz-adv-x="359" 
d="M25 814h279q21 0 21 -21v-13q0 -21 -21 -21h-279q-21 0 -21 21v13q0 21 21 21z" />
    <glyph glyph-name="cedilla" unicode="&#xb8;" horiz-adv-x="212" 
d="M95 -28l8 33q3 15 18 14h6q15 -1 12 -16l-7 -23q-1 -6 -3 -12q14 1 32.5 -4t18.5 -28q0 -41 -39 -76q-25 -22 -64 -20q-10 0 -25 2q-21 5 -27 11q-12 11 -12 21q0 9 10 21q7 3 12 2q6 -5 11 -10q12 -10 28 -8q17 3 24 8t6 5q16 16 16 31q0 27 -35 27q4 7 10 22z" />
    <glyph glyph-name="brokenbar" unicode="&#xa6;" 
 />
    <glyph glyph-name="minus" unicode="&#xad;" 
 />
    <glyph glyph-name="minus" unicode="&#x2212;" 
 />
    <glyph glyph-name="multiply" unicode="&#xd7;" 
 />
    <glyph glyph-name="onesuperior" unicode="&#xb9;" 
 />
    <glyph glyph-name="twosuperior" unicode="&#xb2;" 
 />
    <glyph glyph-name="threesuperior" unicode="&#xb3;" 
 />
    <glyph glyph-name="onehalf" unicode="&#xbd;" 
 />
    <glyph glyph-name="onequarter" unicode="&#xbc;" 
 />
    <glyph glyph-name="threequarters" unicode="&#xbe;" 
 />
    <glyph glyph-name="DLE" 
 />
    <glyph glyph-name="DC1" 
 />
    <glyph glyph-name="DC2" 
 />
    <glyph glyph-name="DC3" 
 />
    <glyph glyph-name="DC4" 
 />
    <glyph glyph-name="RS" 
 />
    <glyph glyph-name="US" 
 />
    <glyph glyph-name="notequal" unicode="&#x2260;" 
 />
    <glyph glyph-name="infinity" unicode="&#x221e;" 
 />
    <glyph glyph-name="lessequal" unicode="&#x2264;" 
 />
    <glyph glyph-name="greaterequal" unicode="&#x2265;" 
 />
    <glyph glyph-name="partialdiff" unicode="&#x2202;" horiz-adv-x="545" 
d="M19 324l83 20q83 124 178 216q112 108 179 108q27 0 54 -44q24 -39 24 -64q0 -49 -107 -136l99 24q8 2 14.5 -5t6.5 -16v-29q0 -16 -21 -21l-239 -59q-94 -71 -94 -100q0 -20 28 -32q24 -10 47 -10q42 0 139 27q66 19 132 37q-39 -93 -143 -174t-191 -81q-75 0 -132 70
q-51 63 -51 128q0 25 27 77l-33 -8q-8 -2 -14.5 5t-6.5 16v30q0 16 21 21z" />
    <glyph glyph-name="summation" unicode="&#x2211;" horiz-adv-x="986" 
d="M962 646q0 -59 -70 -103q-59 -37 -109 -37q-36 0 -56 12q-2 2 -9 10q0 16 -5 47q-144 -29 -236 -124q128 -42 257 -83q213 -76 213 -151q0 -81 -148 -138q-108 -42 -282 -66q-120 -16 -175 -16q-148 0 -236 21q-22 5 -50 69q-43 100 -45 103q-1 4 15 18q94 -21 188 -41
q138 -26 231 -23q30 0 88 3q115 12 203 29q-75 59 -253 95q-137 25 -274 51q-129 33 -129 96q0 83 187 153q142 53 364 91q177 31 242 31q89 0 89 -47zM796 833q0 -12 -13 -25q-77 -50 -162 -104q-12 -6 -28 -4q-18 3 -16 4q-1 -1 -73 47q-83 55 -90 59q-16 12 -16 25
q0 10 9.5 16.5t19.5 2.5q54 -23 173 -66q24 8 167 66q10 5 19.5 -2.5t9.5 -18.5z" />
    <glyph glyph-name="product" unicode="&#x220f;" horiz-adv-x="746" 
d="M723 337h-109q-48 0 -83 -7q-97 -19 -149 -66q83 -32 166 -65q125 -52 125 -88q0 -73 -151 -117q-103 -29 -163 -29h-79q2 0 -71 3q-111 5 -177 33q-13 40 -33 140q107 -42 205 -64q51 -12 143 -12q79 0 105 8l-212 86q-170 74 -170 135q0 134 451 134q79 0 150 -23
q19 -5 52 -19v-49zM666 603q0 -12 -13 -25q-77 -50 -162 -104q-12 -6 -28 -4q-18 3 -16 4q-1 -1 -73 47q-83 55 -90 59q-16 12 -16 25q0 10 9.5 16.5t19.5 2.5q54 -23 173 -66q24 8 167 66q10 5 19.5 -2.5t9.5 -18.5z" />
    <glyph glyph-name="pi" unicode="&#x3c0;" horiz-adv-x="823" 
d="M843 607q0 -188 -219 -494q3 -3 15 -3q4 0 60 10q61 11 85 13q-17 -44 -69 -67q-28 -13 -97 -28q-59 -12 -78 -27q-125 -98 -219 -133q-82 -31 -191 -31q-6 0 -80 1v45q0 33 77 73q42 21 153 63q91 34 106 47q24 22 99 142.5t108 193.5q-62 -63 -184 -163
q-156 -127 -206 -133q-89 -11 -85 -11q-48 0 -90 36.5t-42 85.5q0 59 126 277q124 215 152 215q24 0 67 -49q40 -46 40 -61q0 -23 -93 -174q-50 -81 -101 -163q138 18 304 150q149 120 261 282q40 0 73 -37q28 -32 28 -60zM423 721q0 12 19 23q58 28 166 79q15 20 50 20
q21 0 36 -15t15 -36q0 -36 -51 -48q-69 -10 -201 -41q-10 -3 -22 2.5t-12 15.5z" />
    <glyph glyph-name="integral" unicode="&#x222b;" horiz-adv-x="673" 
d="M637 339q-103 -261 -112 -281q-63 -133 -138 -192q-90 -72 -234 -72q-2 0 -57 3t-81 3q0 2 -3 11t-3 11q11 6 29 6q97 0 220 113q120 110 163 229q-78 -51 -157 -101q-135 -85 -199 -85q-78 0 -73 91q1 29 62 180q53 129 76 177q8 2 18 2q37 0 83.5 -17.5t54.5 -39.5
q-18 -42 -37 -84q-22 -51 -24 -85l334 181q26 -3 46 -19q16 -16 32 -31zM273 451q0 12 19 23q58 28 166 79q15 20 50 20q21 0 36 -15t15 -36q0 -36 -51 -48q-69 -10 -201 -41q-10 -3 -22 2.5t-12 15.5z" />
    <glyph glyph-name="Omega" unicode="&#x3a9;" horiz-adv-x="1104" 
d="M134 473h92q188 110 377 152q148 34 346 34q142 0 142 -109q-5 -38 -63.5 -71.5t-106.5 -33.5q-18 0 -29 6q0 40 -25 73q-32 41 -87 41q-62 0 -230 -92h141q21 0 11 -21l-8 -17q-10 -21 -31 -21h-210q-46 -31 -82 -61h232q21 0 12 -21l-8 -17q-12 -25 -28 -25l-272 2
q-61 -69 -61 -126q0 -18 29 -47.5t56 -29.5q60 0 134 21q121 35 165 109q100 -66 100 -127q0 -32 -33 -58q-53 -42 -256 -42q-113 0 -236 52q-170 70 -170 196q0 27 9 53l-49 1q-21 0 -11 21l8 17q10 21 31 21h53q24 32 60 61l-56 -2q-8 0 -9 9t3 19l8 17q8 16 52 16z" />
    <glyph glyph-name="Omega" unicode="&#x2126;" horiz-adv-x="1104" 
d="M134 473h92q188 110 377 152q148 34 346 34q142 0 142 -109q-5 -38 -63.5 -71.5t-106.5 -33.5q-18 0 -29 6q0 40 -25 73q-32 41 -87 41q-62 0 -230 -92h141q21 0 11 -21l-8 -17q-10 -21 -31 -21h-210q-46 -31 -82 -61h232q21 0 12 -21l-8 -17q-12 -25 -28 -25l-272 2
q-61 -69 -61 -126q0 -18 29 -47.5t56 -29.5q60 0 134 21q121 35 165 109q100 -66 100 -127q0 -32 -33 -58q-53 -42 -256 -42q-113 0 -236 52q-170 70 -170 196q0 27 9 53l-49 1q-21 0 -11 21l8 17q10 21 31 21h53q24 32 60 61l-56 -2q-8 0 -9 9t3 19l8 17q8 16 52 16z" />
    <glyph glyph-name="radical" unicode="&#x221a;" 
 />
    <glyph glyph-name="approxequal" unicode="&#x2248;" 
 />
    <glyph glyph-name="approxequal" unicode="&#x22f2;" 
 />
    <glyph glyph-name="Delta" unicode="&#x394;" 
 />
    <glyph glyph-name="Delta" unicode="&#x2206;" 
 />
    <glyph glyph-name="lozenge" unicode="&#x25ca;" 
 />
    <glyph glyph-name="fraction" unicode="&#x2044;" 
 />
    <glyph glyph-name="fi" unicode="&#xf001;" 
 />
    <glyph glyph-name="fl" unicode="&#xf002;" 
 />
    <glyph glyph-name="apple" unicode="&#xf000;" 
 />
    <glyph glyph-name="dotlessi" unicode="&#x131;" horiz-adv-x="474" 
d="M436 160q-6 -50 -57 -85q-19 -14 -85 -44q-42 -19 -137 -36q-8 -1 -44 -1q-111 0 -111 66q0 49 85 183q15 23 101 148q16 22 33 25q11 2 44 2q41 0 99 -10q2 0 5.5 -9t5.5 -11q-12 -39 -63 -116q-61 -93 -78 -128q4 0 20 -3t21 -3q36 0 83 6q44 6 46 6z" />
    <glyph glyph-name="breve" unicode="&#x2d8;" horiz-adv-x="377" 
d="M32 825q7 15 20 10l42 -30q30 -22 63 -22q13 0 26 2q13 -2 25 -2q33 0 62 22q38 29 39 30q14 5 21 -10q4 -9 -13 -34q-19 -29 -50 -49q-40 -24 -88 -24q-47 0 -86 24q-31 20 -49 49q-16 25 -12 34z" />
    <glyph glyph-name="dotaccent" unicode="&#x2d9;" horiz-adv-x="192" 
d="M28 766q0 25 18 42t44 17t44 -17t18 -42q0 -24 -18 -41.5t-44 -17.5t-44 17.5t-18 41.5z" />
    <glyph glyph-name="ring" unicode="&#x2da;" horiz-adv-x="266" 
d="M100 875q35 0 61 -23.5t26 -58.5q0 -34 -26 -57.5t-61 -23.5t-60.5 23.5t-25.5 57.5q0 35 25.5 58.5t60.5 23.5zM100 825q-16 0 -26 -9.5t-10 -22.5q0 -12 10 -21.5t26 -9.5t26.5 9.5t10.5 21.5q0 13 -10.5 22.5t-26.5 9.5z" />
    <glyph glyph-name="hungarumlaut" unicode="&#x2dd;" horiz-adv-x="259" 
d="M118 707q-9 3 -3 20q16 35 46 100q-1 12 20 30q4 4 9 4q9 0 22.5 -12t13.5 -20q0 -2 -12 -19q-28 -31 -77 -96q-7 -11 -19 -7zM18 707q-9 3 -3 20q16 35 46 100q-1 15 15 29q8 7 19 7q30 0 30 -27q0 -12 -11 -26q-28 -31 -77 -96q-7 -11 -19 -7z" />
    <glyph glyph-name="ogonek" unicode="&#x2db;" horiz-adv-x="264" 
d="M245 -81q-5 -38 -70 -68q-18 -8 -55 -15h-36q-56 0 -56 33q0 41 41 89t81 55q24 4 34 4h1q1 -1 13.5 -2t21.5 -9q-55 -20 -76 -57l-14 -38q-1 0 2.5 -8t23.5 -12q18 -4 46 9.5t27 13.5z" />
    <glyph glyph-name="caron" unicode="&#x2c7;" horiz-adv-x="521" 
d="M446 833q0 -12 -13 -25q-77 -50 -162 -104q-23 -11 -44 0q-70 45 -163 106q-16 12 -16 25q0 10 9.5 16.5t19.5 2.5q54 -23 173 -66q24 8 167 66q10 5 19.5 -2.5t9.5 -18.5z" />
    </font>
</defs>
</svg>
