<svg xmlns="http://www.w3.org/2000/svg" width="880" height="827" version="1.0" viewBox="0 0 439.774 413.626">
  <path style="marker:none" color="#000" fill="#c6ecff" overflow="visible" d="M.004.004h439.77v413.622H.004z"/>
  <path style="marker:none" d="M39.625 0s-.015.07 1.23.98c1.501 1.098 2.682 2.651 3.938 3.876 1.153 1.124 2.353 2.695 3.156 4 .73 1.185 2.18 1.818 2.531 3.187.325 1.265.587 2.327 1.094 3.563.461 1.124.532 1.53 1.719 1.53 1.087 0 1.516-.189 2.406-.405.778-.19 1.538-.438 2.406-.438 1.078 0 1.281.652 1.282 1.656 0 1.065 2.087.969 2.968.969 1.27 0 2.192.136 3.407.531 1.124.366 2.39.167 3.5.438.865.21 1.623.712 2.406 1.094.486.237 1.16 2.521 1.437 3.062.555 1.082 1.098 1.838 1.813 3 1.05 1.707 2.435 1.786 2.875 3.5.155.606.74 2.469 1.125 2.969.29.378 1.286.281 1.812.281h1.563c.35 0 2.266-1.17 2.687-1.375.923-.45 1.21-1.225 2.031-1.625 1.021-.498 1.536-1.046 2.532-1.531.822-.4 2.39-.143 3.187-.531.88-.43 1.6-.594 2.563-.594 1.017 0 1.47.274 2.125.594.88.429 1.797 1.13 2.687 1.78.786.575 2.5 1.311 3.407 1.532 1.504.367 2.94 1.424 4.25 2.063.188.091.373.158.562.25 1.126.549 2.003 1.023 2.813 1.812.633.618 1.078-.1 1.53-.687.655-.85-.028-2 1.126-2.75.646-.42 2.545-.28 3.125-.563.874-.426 3.067.722 3.781 1 .602.235 2.732 2.554 3.344 2.063.88.525 1.758 1.178 2.344 1.75.963.94 1.965 2.452 2.843 3.593.946 1.23 2.088 2.292 2.969 3.438.165.214.265.457.406.687.804 1.307 1.82 1.826 2.125 3.313.262 1.274 1.209 2.756 1.719 4 .461 1.124 1.011 1.992 1.438 3.031.315.768.925 1.875 1.406 2.344.3.293.707 1.959.969 2.469.357.696.523 1.593.843 2.218.365.711.358 1.545.563 2.344.07.276.4.577.469.688.19.746 0 1.822 0 2.593 0 1.015-.252 1.648-.625 2.375-.277.54-1.033.896-1.407 1.625-.38.742-.724.964-1.375 1.282-.78.38-1.065.896-1.875 1.093-.745.182-1.757 0-2.531 0-.754 0-1.214-.441-1.719-.687-.786-.383-.372-.844-1.5-.844-.698 0-1.031.616-1.031 1.25v2.219c0 .852.842.512 1.563.687.674.165 1.747.125 2.406.125.95 0 1.594-.041 2.406-.437.805-.393 1.1-.762 1.281-1.469.184-.716 1.193-1.262 1.657-1.375.69-.168.9-.55 1.593-.719.26-.063 1.052-.952 1.407-1.125.777-.379 1.423-.937 1.968-1.468.467-.456.846-1.284 1.157-1.688.352-.458 1.342-.25 1.968-.25.923 0 1.03.245 1.563.938.568.738.722 1.314 1.687.843.66-.322 1.15-.85 1.969-1.25 1.023-.498 1.437-.708 1.438-1.812 0-.957.113-1.113.843-1.469.698-.34 1.396-.296 1.969-.156.803.195 1.25 1.126 1.563 1.531.896 1.165 2.081 1.896 3.25 2.75.933.683 1.835 1.72 2.687 2.344.848.62 1.556 1.351 2.125 1.906.576.562 1.395 1.034 1.563 1.688.154.6 0 1.439 0 2.062 0 .995-.253 1.169-.844 1.938-.43.558-1.045.952-1.563 1.625-.736.957-1.336 1.488-2.562 1.687-1.096.178-1.909.276-2.813.938-.668.488-.622.74-1.562.968-.667.163-1.305.814-1.688 1.094-.564.413-1.159.852-1.718 1.125a8.178 8.178 0 00-2.125 1.5c-.64.624-.97.924-.97 1.813 0 .687 1.854.406 2.407.406.657 0 2.02-1.003 2.656-1.375.841-.492 2.02-1.097 2.594-1.656.58-.565 1.83-.94 2.531-1.282.945-.46 2.098-.191 2.969-.531.94-.367 1.362-.734 2.406-.937 1.791-.35 3.244-.844 5.25-.844h4.219c.957 0 1.518-.471 2.406-.688 1.568-.382 3.815-1.05 5.063-1.781.514-.3.965-1.193 1.312-1.531.573-.56 1.18-.406 1.969-.406.94 0 2.125.296 2.125 1.093 0 .516.982 1.648 1.125 2.344.184.896 1.58 2.15 1.969 2.906.333.65.424 1.477.875 2.063.497.647.414 1.112.844 1.531.68.885.712 1.187.968 2.188.194.753.994 1.396 1.563 1.812.175.128.156 2.224.156 2.469 0 .78 1.207 1.032 1.688 1.656.571.744.548.782 1.156 1.375.52.506.655 1.731.812 2.344.242.943.594 1.44.594 2.469 0 1.046-.474 1.71-1.156 2.375-.62.603-1.224.77-1.844 1.375-.53.517-.996 1.072-1.562 1.625-.476.463-.25 1.497-.25 2.218 0 1.067-.505 1.548-.844 2.375-.695 1.695-1.016 1.62 1.094 2.032 1.292.252 2.612.262 3.843.562.825.201 1.379 1.333 1.844 1.938.349.453 1.316.695 1.813.937.627.306 1.307 1.13 1.718 1.531.55.536 1.932.282 2.688.282.863 0 1.66-.099 2.375.25.2.097.532 1.853.594 2.093.195.76 1.068 1.062 1.437 1.782.213.414.793 1.031.969 1.375.66 1.288 1.79 1.627 2.812 2.375 1.002.732 2.353 1.627 3 2.468.451.587.638 1.216 1.25 1.813.549.534 1.335.912 1.969 1.375.73.534 1.582.656 2.563.656 1.004 0 1.274-.523 2.125-.937.945-.461 1.49-.96 2.406-1.407.807-.393 1.296-.818 1.844-1.218.746-.546 1.638-1.17 1.968-1.813.311-.606.966-.792 1.563-.937.89-.217 1.964-.04 2.531.375.556.406.872.651 1.594 1.093.47.319.924.67 1.375 1 .89.652 1.607 1.625 2.281 2.5.872 1.134 1.935 2.28 2.813 3.563.722 1.056 1.525 2.026 2.187 2.906.662.88.926 1.445 1.188 2.313.333 1.177.312 1.911.312 2.78 0 1.046.281 1.837.281 2.907 0 1.01.282 1.958.282 3 0 .93-.049 1.936.125 2.781.303 1.479.502 2.954.875 4.407.398 1.552 1.235 3.132 1.968 4.562.527 1.027.941 1.896 1.563 2.906.512.832.808 2.216.969 3.157.104.612 1.12 1.788 1.562 2.218.357.348.548 1.96.719 2.625.22.857.82 1.264 1.562 1.625.61.298 1.078.914 1.25 1.25.19.369.996.604 1.282.813.474.924.32 1.654.718 2.625.367.892.688 1.072.688 2.219 0 1.126.794 1.957 1.281 2.906.5.975 1.122 1.395 1.563 2.469.078.19.155.347.25.53.43.84.222 1.945.468 2.907.218.848 0 1.995 0 2.875v13.813c0 .98.653 1.765 1.094 2.625.596 1.161 1.837 2.37 2.563 3.312.537.699 1.026 1.766 1.687 2.625.87 1.13 2.028 2.36 2.844 3.156.588.574.507 1.46 1.125 2.063.54.526.562 1.662.562 2.375v9.906c0 .653-1.231.666-1.531 1.25-.084.164 0 .347 0 .531-.332.649-.542 1.608-1 2.5-.257.502-1.316.837-1.844 1.094-1.001.488-.715 1.25-2.125 1.25-1.294 0-2.371-.045-3.25-.687a11.923 11.923 0 01-1.281-1.094c-.249-.243-2.155 0-2.531 0-.482 0-1.395 1.682-1.688 2.062-.462.6-.966.95-1.312 1.625-.243.474-1.812 1.257-2.375 1.532-.578.281-1.248.333-1.719.562-.417.203-1.203 1.493-1.531 1.813-.525.512-.844.703-.844 1.468 0 1.154-.035 1.764.406 2.625.208.405 1.467.883 1.844 1.25.437.426 1.66.473 2.125.813.497.363.446 1.85.563 2.531.117.688 0 1.456 0 2.156 0 .848-.5 1.726-1 2.375-.445.578-.804 1.194-1.407 1.782-.315.307-.883 2.583-.968 2.75-.268.521-.755 1.053-1 1.53-.385.75-.747.794-1 1.782-.187.725-.627 1.639-.844 2.063-.387.753-.944 1.672-1.156 2.5-.194.753-.695.988-.97 1.656-.306.748-.8 1.283-1 2.062-.17.668-.977.969-1.687.969-.592 0-1.529.542-2.125.688-.645.157-1.395.125-2.125.125h-.281c-.623 0-1.279 2.296-1.531 2.625-.57.74-.718 1.296-.875 2.062-.164.797 0 1.812 0 2.625 0 .938.156 1.72.156 2.625 0 .938.406 1.6.406 2.594v4.844c0 1.465.132 2.817.407 4.156.204.998.454 1.378 1.156 2.062.292.285 1.455.654 1.844.938.555.406.657.848 1.25 1.281.639.468 1.55 1.04 2.28 1.219.618.15 1.486 0 2.126 0 .86 0 1.76.063 2.531-.125.344-.084 1.038-.995 1.563-1.25.735-.359 1.613 0 2.406 0 .849 0 1.445.15 1.969.406.744.363 1.377 1.516 2.125 2.063.512.374 1.662.161 2.28.312 1.009.246 1.503-.08 2.126-.687.833-.813 2.665-.773 3.531-1.407.333-.243.649-1.589.844-1.906.319-.519.969-1.31.969-1.937 0-.56.724-1.478.875-2.063.23-.898.798-1.713 1-2.5.157-.615.25-1.122.25-1.937 0-1.282.468-2.323.468-3.563 0-1.278.99-2.385 1.657-3.469.637-1.036.707-1.654 1.437-2.187 1.201-.879 2.564-1.61 3.781-2.5 1.28-.936.57-1.394 1.25-2.719.722-1.408 2.044-2.348 2.313-3.656.25-1.218 3.638-1.682 4.25-2.875.138-.27 2.424-.312 2.812-.406.887-.217 2.206-.906 2.688-1.375 1.016-.991 2.171-.378 2.531-1.782.283-1.101.517-1.403 1.563-2.218.325-.254.697-.515.875-.688.235-.184.451-.347.687-.531.597-.466.875-1.849.875-2.5 0-1.052.475-1.713.688-2.75.144-.706 0-1.653 0-2.375v-2.594c0-.837-.446-1.31-.688-1.781-.298-.581-.412-1.23-.594-1.938-.167-.654-.148-1.544-.281-2.062-.195-.76-.273-1.811-.562-2.375-.515-1.004-.282-2.545-.282-3.844v-.687c0-1.126.157-2.415.157-3.594 0-1.125.143-1.85.406-2.875.237-.926.693-.989 1.25-1.531.675-.658.454-.96.875-1.782.343-.668 2.957-1.122 3.687-1.656.924-.675 1.663-1.417 2.375-1.937.813-.594 1.507-1.328 2.438-1.782.21-.103.374-.3.562-.437.565-.413 1.003-1.102 1.719-1.625.8-.585 1.477-1.145 2.219-1.688.734-.537 1.566-1.044 2.281-1.218 1.031-.252 1.674-.844 2.688-.844 1.337 0 1.98.299 3.125.969.708.414 2.39.234 3.093.406 1.336.325 2.287 1 3.813 1 .892 0 1.673-.107 2.406.25.807.393 1.511.648 2.375.437.675-.164.54-1.364 1.031-1.843a5.244 5.244 0 001.094-1.47c.431-.84.256-3.943 1.25-4.718.75-.586 1.594.893 1.594-.125 0-.8.032-1.357-.25-1.906-.503-.98-.882-1.888-1.719-2.5-.98-.717-1.654-1.421-2.531-2.063-1.187-.867-1.229-2.794-1.719-3.75-.33-.644.281-1.573.281-2.218 0-.585.969-.593.969-1.625 0-.814 1.264-2.06 1.438-2.907 0-.308-1.175-1.52-1.282-1.625-.537-.523-.85-1.315-1.25-2.093-.287-.56-.281-1.399-.281-2.063 0-.873.581-1.195.844-2.219.252-.984.26-1.554.844-2.312.609-.792 1.377-1.139 1.562-2.219.125-.731.11-1.514.25-2.062.197-.767.277-1.424-.25-1.938-.653-.637-1.21-1.134-2.281-1.656-.815-.397-2.443.683-2.938-.281-.285-.557-.992-2.24-1.718-2.594-.601-.293-1.153-1.007-1.563-1.406-.595-.58-1.152-.697-1.687-1.22-1.124-1.095-2.262-1.684-3.813-2.062-.867-.211-1.262-.64-2-1-1.147-.56-2.12-1.07-3.094-1.781-.539-.394-1.009-.954-1.687-1.219-.36-.14-1.076-1.903-1.125-2.093-.188-.734-1.201-1.924-1.438-2.5-.224-.877-1.757.468-2.656.687-1.015.247-2.515 0-3.562 0h-3.125c-.658 0-1.53-1.188-2.25-1.469-.886-.345-1.684-.695-2.125-1.125-.532-.518-.773-1.16-1.25-1.781-.507-.659-.956-1.639-1.313-2.219-.453-.736-.406-1.76-.406-2.625 0-.564-.748-1.698-1-2.312-.296-.721-.406-1.417-.406-2.219v-2.375c0-.853.268-1.364.562-1.937.378-.738 1.08-1.28 1.563-1.907.33-.429 1.54-1.104 2.125-1.531.699-.511 1.202-1.186 1.812-1.781.629-.613.984-.967 1.563-1.531.612-.598.718-.974.718-1.782 0-.668.157-1.55.157-2.312v-3.219c0-1.136-.563-1.768-.563-2.875 0-1.53.394-2.536.688-3.969.124-.608.563-1.184 1.062-1.656.006.01.026.022.031.031.94-.458 1.984-1.647 2.438-2.531.811-1.582 1.525-3.433 2.812-4.688.921-.898 1.422-1.835 2.125-2.75.12-.156.367-.43.469-.562.74-.961 1.038-2.92 1.656-4.125.513-1 1.325-3.153 1.563-4.313.197-.964 1.347-2.67 2.156-3.593.08-.033.173-.173.375-.407.92-.897 1.525-2.43 2.687-3.28 1.314-.961 3.017-2.249 4.563-2.626.561-.137 1.172-1.06 1.656-1.531.819-.798 1.444-1.082 2-1.625.843-.822 2.981-1.104 4.094-1.375 1.338-.326 1.826.13 2.969.687.812.397 1.89.744 2.687.938.691.168 1.27 1.094 1.719 1.531.722.704.924 1.28 1.406 2.219.47.915-.047 1.883-.594 2.594-.4.52-.206 1.343-.093 1.781.15.588 1.262.42 1.812.687 1.02.498 1.037-.026 1.563 1 .341.666 1.365.787 1.969 1.375.237.232.322.098.562.157.238.231 2.378.148 2.844.375 1.148.56 2.062 1.615 3.094 2.218 1.04.61 1.605.707 2.562 1.407.83.607 1.673.925 2.531 1.343 1.076.525 2.482.438 3.688.438 1.35 0 2.538-.064 3.812-.313 1.105-.215 2.55 0 3.688 0h3.094c1.55 0 3.707.573 5.125 1.125 1.078.421 2.455.83 3.53 1.25.621.242 1.226.919 1.407 1.625.053.206 1.201 1.616 1.531 1.938.538.524.875 1.175.875 1.969 0 1.026-.034 1.48.532 2.031.53.517 1.161.853 1.875 1.375.68.498 1.39 1.093 1.968 1.375.384.187.125 2.228.125 2.625 0 .819.438 1.59.438 2.5 0 .892-.03 1.18-.688 1.5-.632.308-1.437.644-1.437 1.656 0 .456 1.585.406 1.969.406 0 1.444 1.03 2.336 1.03 3.75v2.313c0 .555.854 1.512 1.095 1.687 1.005.735 2.637 1.106 3.562 1.782.344.252.712 1.275 1.125 1.812.46.598.71.835 1.406 1.344.8.585 1.702 1.06 2.282 1.812.761.99 1.095 1.375 2.375 1.375h3.28c1.086 0 1.281.07 2.126.688 1.312.96 1.358.864 1.687 2.469.227 1.106 1.157 1 2.125 1 .899 0 1.693-.704 2.125-1.125.257-.25.282-1.624.282-2.094v-2.313c0-.777-.025-1.633.125-2.218.353-1.38.811-2.621 1.375-3.719.308-.601.891-1.63.75-1.906-.264-.514-.157-1.505-.157-2.219 0-1.422 1.256-2.622 1.719-3.75.339-.826 1.085-1.542 1.969-2.188 1.011-.739 1.812-1.849 1.812-3.03v-2.345c0-1.105.157-2.117-.406-3.03-.713-1.16-.688-1.687-1.812-2.345-.559-.326-.306-3.309-.532-3.75-.495-.965-1.625-1.481-1.625-2.78 0-1.174-1.142-1.744-1.562-2.563-.526-1.026-2.003-.883-2.5-2.094-.405-.988-.878-1.46-1.438-2.188-.727-.945-2.15-1.739-3.125-2.5-.658-.513-1.069-1.172-1.687-1.625-1.588-1.16-2.512-3.484-3.906-4.843-1.06-1.034-3.628-.478-4.438-1.532-.831-1.08-1.447-2.22-2.406-3.156-.142-.138-.265-.268-.406-.406a21.15 21.15 0 00-2.282-1.906c-.726-.532-1.228-1.09-1.687-1.688-.577-.75-.34-1.88-.563-2.75-.202-.79-.68-1.629-1.156-2.094-.63-.613-.616-1.203-1.406-1.78-.704-.515-1.002-1.166-1.625-1.47-.578-.281-1.747-1.1-2.125-1.468-.588-.573-1.071.176-1.625-.094-.857-.418-2.048-.113-2.969-.562-.457-.223-1.302-.125-1.969-.125-.294 0-.877-1.381-.968-1.5-1.424 0-2.733-.523-3.97-1.125-.72-.352-1.444-1.59-2-2.313-.43-.56-1.491-1.11-2.25-1.406-.918-.359-1.915-.75-2.812-.969-1.133-.276-1.959-.937-3.156-.937-.749 0-1.683-.794-2.531-1-1.314-.32-2.489-1.684-3.563-2.47-1.095-.8-2.139-1.222-3-2.062-.793-.773-1.061-1.205-1.812-1.937-.747-.728-2.003-.627-2.813-1.219-.845-.618-1.215-1.037-1.812-1.812-.558-.725-1.333-1.72-1.813-2.188-.5-.488-1.433-.795-2-1.531-.37-.48-1.17-.84-1.718-1.375-.796-.776-.956-1.224-1.688-1.938-.594-.58-2.02-.988-2.812-1.375-.665-.324-1.287-.828-1.72-1.25-.623-.608-1.347-.84-2.124-1.218-1.206-.588-2.44-1.205-3.688-1.813-.824-.402-1.927-.627-2.687-.812-.992-.242-1.898.103-2.688-.282-.888-.433-1.954-.581-2.812-1-.573-.28-1.035-.67-1.438-1.062-.582-.568-1.125-1.043-1.656-1.25-.579-.226-1.48-.162-1.969-.281-.414-.101-1.01 0-1.437 0-3.032-.74-5.257-3.248-8.313-3.844-2.772-.54-5.406-2.767-8.031-3.406-2.166-.528-4.313-2.105-6.406-3.125-1.982-.966-3.278-1.764-4.969-3-1.312-.96-3.658-1.172-4.656-2.47-1.041-1.353-3.415-2.65-4.813-3.468-1.593-.932-3.395-1.485-5.093-2.312-1.084-.528-2.162-1.228-3.407-1.532-1.312-.32-3.038-1.853-4.093-2.625-1.443-1.055-2.93-1.693-4.375-2.75-.878-.641-1.702-.906-2.125-1.937-.524-1.277-1-2.698-1-4.125 0-.882-.157-1.865-.157-2.781 0-1.267.294-1.591 1.282-2.313 1.091-.798 3.181-1.97 4.14-2.672M190.262 250.7c-.71 0-.723.188-1.125.625-.237.258-.106 1.174-.188 1.532-.161.7.294.752.75 1 .494.268.912.397 1.406.53.445.122 1.108-.018 1.5-.124.598-.163.563-.894.563-1.406 0-.631-.25-.785-.563-1.125-.292-.319-.468-.515-.937-.72-.272-.221-.83-.312-1.406-.312zm7.343 4.844a3.376 3.376 0 00-.531.094c-.524.127-1.014.88-1.25 1.187-.316.411-.49.45-.687 1.219-.147.57 0 1.404 0 2 0 .698.343 1.3.343 1.969 0 .706.751 1.164 1.125 1.437.748.547.993.817 1.375 1.563.235.458.295 1.1.438 1.656.116.454.592.881.906 1.187.325.318 1.108.213 1.469.125.586-.142 1.031-.418 1.031-1.093 0-.748.126-1.222-.469-1.657-.402-.293-.684-.817-1-1.125-.477-.465-.812-.39-.812-1.093 0-.649.075-1.096.219-1.657.153-.598.634-.925 1.03-1.312.445-.433.47-.664.47-1.438 0-.61-.544-.958-.907-1.312-.489-.477-.857-.806-1.375-1.438-.274-.266-.82-.357-1.375-.312zm39.344 19.719a2.182 2.182 0 00-.656.156c-2.273.886-6.219 1.923-8.156 3.813-.302.294-.605.58-.907.875-.554.54-2.547 2.343-3.312 2.343h-4.844c-1.006 0-1.363-3.22-1.812-2.343-.12.234-1.016 1.942-1.782 2.937-.81 1.053-1.105 2.537-2.125 3.531-.658.642-2.204 2.063-3.031 2.063-1.832 0-2.645-.21-4.219-.594-.265-.065-3.915.014-4.218-.281-.35-.34-1.756-3.25-2.125-3.25h-3.907c-2.187 0-4.498.669-6.625 1.187-1.54.376-5.879 1.735-6.656 3.25-.763 1.488-1.382 2.533-2.406 3.532-1.204 1.174-4.952 2.343-6.938 2.343-1.923 0-3.926-.014-5.75.875-1.921.937-4.34.437-5.718 1.782-1.305 1.272-2.041 1.156-4.22 1.156-2.117 0-1.529-1.469-3.03-1.469h-5.125c-1.505 0-3.653.359-5.125 0-1.379-.336-1.916-.77-3.625-1.187-1.422-.347-3.929-.55-4.813.312-1.031 1.006-1.628.914-3.344 1.75-1.09.531-2.168 1.781-3.593 1.781h-4.532c-1.35 0-3.082.242-4.218-.312-.5-.244-2.403-1.316-3.032-1.469-1.027-.25-2.43-.941-3.312-1.156-2.01-.49-2.348-1.042-3.031-2.375-.417-.812-.648-2.166-1.188-3.219-.108-.211-.832-3.604-2.125-2.344-.52.507-1.25 2.032-2.406 2.032-1.045 0-3.489.43-4.219-.282-.664-.647-1.923-1.06-2.438-2.062-.523-1.02-.593-2.111-.593-3.813 0-1.719-.062-2.83-1.5-3.531-1.278-.623-1.836-.591-3.625.281-.726.354-2.719 1.453-2.719 2.375 0 2.08-1.275 1.509-2.719 1.157-1.055-.258-.724-2.657-1.812-2.657-2.036 0-2.9.1-3.907 2.063-.517 1.009-1.812 1.976-1.812 2.969 0 .698.45 3.966 0 4.406-1.269 1.237-.952 1.201-2.719 2.062-1.36.663-1.322 2.031-3.031 2.032-.717 0-4.05.44-4.5 0-.36-.351-3.332-.898-3.625-1.47-.487-.948-.951-2.379-1.812-3.218-.462-.45-2.461-1.93-2.72-2.937-.29-1.13-1.999-3.572-2.124-4.125-.403.49.006 1.188-.281 1.75-.694 1.35-2.109 2.92-3.344 4.125-.917.893-1.135 1.683-2.688 2.062-1.363.332-4.734.19-5.437.875-.955.93-1.403 1.53-2.125 2.938-.68 1.327.767 3.773-.594 4.437-.196.764-.09 1.07-.906 1.469-1.224.596-.906 1.885-.906 3.219 0 2.203-1.121 1.098-2.72 2.656-1.066 1.04.594 3.324.595 5.281 0 1.976.14 3.448.906 5.313.574 1.4.382 5.347 1.531 6.187 1.186.867 2.99 1.608 4.5 2.344 1.066.52 1.499 1.147 2.438 2.062.737.72 1.778 3.234 3 3.532 1.382.336 2.971.28 4.53.28h10.251c2 0 3.365.028 4.843 1.47.08.077 2.956 2.58 3.313 3.53.602 1.605 3.516 1.782 5.125 1.782 3.172 0 3.752.187 5.344 1.969.33.37.48.483.781.875 1.022 1.328 1.752 1.92 2.844 2.719 1.24.906 2.049 2.257 3.406 3.25 1.693 1.238 2.534 2.504 3.937 3.53 1.102.806 1.941 2.187 3 3.22 1.116 1.087 1.453 1.187 3.626 1.187 2.132 0 3.22 1.286 4.812 2.063 1.41.687 2.911 1.061 3.938 2.062 1.532 1.494 3.152 3.062 4.53 4.406.819.798 1.45 2.19 2.407 2.657 1.617.788 3.013.155 4.813.593 1.523.372 2.695 1.134 3.937 2.344.342.334 2.118 2.656 2.719 2.656 1.609 0 3.203-1.187 4.812-1.187 1.71 0 3.416-.594 5.125-.594 1.597 0 3.595 1.477 5.157 1.781 1.062.207 3.14.699 4.218 1.75.942.918 1.765 1.452 3 2.657 1.016.99 1.946 1.878 3.032 2.937.872.85 1.725 2.282 2.718 3.25 1.084 1.057 2.1 2.048 3 3.219.662.86 1.263 2.177 1.813 3.25.464.905 1.356 1.938 2.125 2.937.482.627.923 2.97 1.5 3.532.839.817 1.61 1.75 3.625 1.75 1.768 0 2.781.626 4.219 1.187.918.358 2.046 1.16 3.312 1.469 1.166.284 2.75.83 3.625 1.469.458.335 2.078 2.343 3.031 2.343 1.744 0 3.558-1.156 4.532-1.156h4.812c1.406 0 3.605.48 4.531 1.156 1.29.944 3.925 1.79 5.125 2.375 1.507.735 1.484 1.156 3.313 1.157 1.303 0 3.486-1.767 1.5-3.22-1.048-.766-1.813-1.354-1.813-3.25 0-1.78-.127-3.566.313-5.28.322-1.257 3.031-3.851 3.031-4.125 0-1.912-.083-2.887 1.188-4.125 1.172-1.144 1.351-4.074 2.718-4.407 1.704-.415 4.192-.472 4.844-2.062.496-1.208.594-2.682.594-4.406 0-2.084-.487-2.105-1.219-3.532-.655-1.277-.016-3.268-1.187-4.125-.723-.528-4.532-2.265-4.532-3.531 0-3.324 4.219-4.758 4.219-6.187 0-1.782-3.533-.574-3.906-2.032-.55-2.144-2.247-.414-3.938-2.062-1.431-1.396-1.812-3.323-1.812-5.313v-4.687c0-1.687-.127-4.506 0-5 .585-2.28 1.235-2.702 2.125-4.438.557-1.087 1.16-2.903 2.094-3.812 1.282-1.25 1.53-2.59 1.53-4.125 0-2.014 1.167-2.188 1.5-3.813.197-.956.232-4.936.907-5.593.827-.807 1.481-2.24 1.813-3.532.569-2.22 2.263-5.149 3.906-6.75 1.103-1.075 1.7-2.403 2.406-4.125.793-1.932 2.665-2.847 3.625-4.718.681-1.33 1.296-2.509 2.125-4.125.807-1.573 1.282-3.273 2.125-4.094.854-.833 1.807-2.106 2.688-3.25.978-1.273 1.53-2.157 1.53-4.125 0-2.692 2.449-.472 3-2.625.51-1.985-.593-1.432-.593-3.531 0-1.423-.362-3.181-1.75-3.094z" color="#000" fill="#e0e0e0" stroke="#0978ab" stroke-width=".5" stroke-opacity=".941" overflow="visible"/>
  <path d="M254.955 151.908a2.098 2.098 0 11-4.195 0 2.098 2.098 0 014.195 0z" fill="none" stroke="red" stroke-width=".851"/>
  <g color="#000">
    <path style="marker:none" d="M136.421 51.95c.01.02.023.041.031.062.462 1.124 1.012 1.992 1.438 3.031.315.768.925 1.875 1.406 2.344.3.293.707 1.959.969 2.469.357.696.523 1.593.844 2.218.364.711.357 1.545.562 2.344.07.276.4.577.469.688.191.746 0 1.822 0 2.593 0 1.015-.252 1.648-.625 2.375-.277.54-1.032.896-1.406 1.625-.38.742-.725.964-1.375 1.282-.78.38-1.066.896-1.875 1.093-.746.182-1.758 0-2.532 0-.754 0-1.214-.441-1.718-.687-.786-.383-.373-.844-1.5-.844-.698 0-1.032.616-1.032 1.25v2.219c0 .852.842.512 1.563.687.674.165 1.748.125 2.406.125.95 0 1.594-.041 2.406-.437.805-.393 1.1-.762 1.282-1.469.183-.716 1.192-1.262 1.656-1.375.69-.168.901-.55 1.594-.719.259-.063 1.052-.952 1.406-1.125.778-.379 1.423-.937 1.969-1.468.466-.456.845-1.284 1.156-1.688.353-.458 1.343-.25 1.969-.25.922 0 1.03.245 1.562.938.568.738.722 1.314 1.688.843.66-.322 1.149-.85 1.968-1.25 1.023-.498 1.438-.708 1.438-1.812 0-.598.07-.877.281-1.094-.13-.317-.292-.646-.469-1-1.693-3.386-3.805-5.868-6.25-8.312-2.929-2.93-3.636-3.019-8.312-4.188-.965-.241-1.973-.383-2.969-.469z" fill="#bebada" overflow="visible"/>
    <path style="marker:none" d="M317.47 103.467c1.88-2.224 2.514-3.129 3.67-4.018 1.314-.96 3.016-2.248 4.562-2.625.562-.137 1.173-1.06 1.657-1.531.818-.798 1.443-1.082 2-1.625.842-.822 2.98-1.104 4.093-1.375a3.22 3.22 0 01.938-.094c1.101-1.832 2.219-3.864 2.219-5.062 0-2.6.75-8.488-.688-10.406-1.195-1.594-3.963-7.529-6.969-9.032-1.725-.862-3.397-1.256-5.468-1.218-1.243.022-2.632.207-4.25.53-3.5.7-7.232.23-9.719 2.095-2.488 1.865-6.25 3.716-6.25 7.625 0 5.272 1.365 6.762 2.094 10.406-.23 2.609.761 5.826 2.357 9.196" fill="#b5ad96" overflow="visible"/>
    <path style="marker:none" d="M316.977 103.838c-2.056-.49-6.106-2.648-8.163-4.19-3.573-2.68-10.108-.95-13.862-.011-3.814.953-5.226 4.674-6.968 9.031-1.4 3.499-1.375 7.217-1.375 11.125 0 2.403 4.794 4.491 6.937 5.563 2.738 1.369 6.741.63 9.719 1.375.22.054.44.118.656.156.2-.441.532-.865.906-1.219.006.01.027.022.032.031.939-.458 1.984-1.647 2.437-2.531.812-1.582 1.526-3.433 2.813-4.688.92-.898 1.421-1.835 2.125-2.75.12-.156.367-.43.468-.562.74-.961 1.038-2.92 1.657-4.125.235-.46.535-1.167.812-1.906-.209-.148 2.01-5.136 1.806-5.299z" fill="#bebada" overflow="visible"/>
    <path style="marker:none" d="M382.109 78.856c-3.395 1.337-6.609 3.253-10.094 4.125-4.336 1.084-9.344 5.015-13.188 6.937-3.884 1.942-7.048 4.93-11.125 6.969-1.635.818-3.496 1.19-5.28 1.5.014.68-.378 1.35-.782 1.875-.4.52-.206 1.343-.094 1.781.151.588 1.262.42 1.813.688 1.02.497 1.036-.026 1.562 1 .342.665 1.365.786 1.969 1.375.237.231.322.097.563.156.237.231 2.378.148 2.843.375 1.149.56 2.063 1.615 3.094 2.219 1.04.608 1.605.706 2.563 1.406.83.607 1.673.925 2.53 1.344 1.077.524 2.483.437 3.688.437 1.351 0 2.539-.064 3.813-.312 1.105-.216 2.549 0 3.687 0h3.094c1.55 0 3.707.572 5.125 1.125 1.079.42 2.455.83 3.531 1.25.62.241 1.225.918 1.407 1.625.052.205 1.2 1.615 1.53 1.937.538.524.876 1.176.876 1.969 0 1.026-.034 1.48.531 2.031.53.517 1.162.854 1.875 1.375.68.498 1.39 1.093 1.969 1.375.384.187.125 2.228.125 2.625 0 .819.437 1.59.437 2.5 0 .892-.03 1.18-.687 1.5-.633.308-1.438.644-1.438 1.656 0 .456 1.586.407 1.969.407 0 1.443 1.031 2.335 1.031 3.75v2.312c0 .555.854 1.512 1.094 1.688.527.385 1.227.656 1.906.937.058-.056.133-.101.188-.156 2.706-2.706 4.743-5.376 6.969-8.344 2.505-3.34 3.877-9.321 4.843-13.187.98-3.92.688-8.287.688-12.5 0-1.641.085-3.18.187-4.688-1.294-1.238-2.165-3.197-3.406-4.406-1.06-1.034-3.627-.478-4.437-1.531-.832-1.08-1.447-2.221-2.407-3.157-.141-.138-.265-.268-.406-.406a21.15 21.15 0 00-2.281-1.906c-.727-.532-1.228-1.09-1.688-1.688-.576-.75-.34-1.88-.562-2.75-.203-.79-.68-1.629-1.156-2.093-.63-.614-.617-1.204-1.407-1.782-.703-.514-1.001-1.165-1.625-1.468-.577-.282-1.746-1.1-2.125-1.47-.587-.572-1.07.177-1.625-.093-.488-.238-1.093-.27-1.687-.312z" fill="#eacd85" overflow="visible"/>
    <path style="marker:none" d="M199.296 86.012c-1.885.035-3.973.786-5.469 1.531.09.216.204.412.344.594.498.647.414 1.112.844 1.531.68.885.712 1.187.969 2.188.193.753.993 1.396 1.562 1.812.175.128.156 2.224.156 2.469 0 .78 1.208 1.032 1.688 1.656.572.744.548.782 1.156 1.375.52.506.656 1.731.813 2.344.241.943.593 1.44.593 2.469 0 1.046-.474 1.71-1.156 2.375-.62.603-1.224.77-1.844 1.375-.53.517-.996 1.072-1.562 1.625-.476.463-.25 1.497-.25 2.218 0 1.067-.504 1.548-.844 2.375-.14.34-.25.566-.344.782.564-.168 1.098-.337 1.75-.5 2.8-.7 5.758-1.832 7.657-2.782 2.78-1.39 3.348-5.08 4.156-8.312.749-2.995-.194-7.776-.688-9.75-.876-3.506-4.4-4.4-6.25-6.25-.85-.85-2.013-1.15-3.28-1.125z" fill="#b5ad96" overflow="visible"/>
    <path style="marker:none" d="M212.296 115.637c-3.046 0-5.338 1.88-7.531 3.75.034.015.094.016.125.031.628.306 1.308 1.13 1.719 1.531.55.536 1.931.281 2.687.281.864 0 1.66-.098 2.375.25.2.098.532 1.854.594 2.094.195.76 1.068 1.061 1.437 1.781.213.415.793 1.032.97 1.375.66 1.289 1.79 1.628 2.812 2.375 1.001.733 2.353 1.628 3 2.47.45.585.638 1.215 1.25 1.812.548.534 1.335.911 1.968 1.375.73.534 1.582.656 2.563.656 1.004 0 1.274-.523 2.125-.938 3.594-1.947 7.566-4.46 6.553-6.08-.972-3.889-12.704-6.097-14.303-9.295-1.579-3.157-4.25-3.468-8.344-3.468z" fill="#bebada" overflow="visible"/>
    <path style="marker:none" d="M297.783 161.378c0 .441-.969-3.12-3.192 1.067-2.612 4.92-.47 8.03.719 10.406 1.447 2.894 10.641 9.22 12.142 12.223 1.583 3.166 4.157 6.138 4.157 9.032 0 3.19.027 7.538-1.407 10.406-.665 1.33-.47 5.345-2.75 7.625-2.61 2.61-6.48 6.023-8.343 9.75-1.024 2.048-6.256 4.21-6.938 6.937-.82 3.28-.719 6.778-.719 10.407 0 2.562-1.148 8.829 0 11.125 1.232 2.463.892 9.33-.901 11.381-1.074 1.228-8.153 1.556-8.58 5.152-.353 2.977-1.043 3.331.676 5.035 1.798 1.782 4.022 1.526 6.17.951 2.971-.795 2.604.681 7.013-2.651 1.934-1.463 1.311-2.435 3.756-4.214.613-.446 1.367-1.972 1.366-2.623 0-1.052.475-1.713.688-2.75.145-.706 0-1.653 0-2.375v-2.594c0-.837-.446-1.31-.688-1.781-.298-.581-.412-1.23-.593-1.938-.168-.654-.149-1.544-.282-2.062-.194-.76-.273-1.811-.562-2.375-.515-1.004-.281-2.545-.281-3.844v-.687c0-1.126.156-2.415.156-3.594 0-1.125.143-1.85.406-2.875.238-.926.694-.989 1.25-1.531.675-.658.454-.96.875-1.782.343-.668 2.957-1.122 3.688-1.656.923-.675 1.663-1.417 2.375-1.937.812-.594 1.507-1.328 2.437-1.782.211-.103.374-.3.563-.437.564-.413 1.003-1.102 1.718-1.625.8-.585 1.477-1.145 2.22-1.688.734-.537 1.566-1.044 2.28-1.218 1.032-.252 1.674-.844 2.688-.844 1.337 0 1.98.299 3.125.969.708.414 2.39.234 3.094.406 1.335.325 2.286 1 3.812 1 .892 0 1.674-.107 2.406.25.808.393 1.512.648 2.375.437.676-.164.54-1.364 1.032-1.843a5.244 5.244 0 001.093-1.47c.431-.84.256-3.943 1.25-4.718.751-.586 1.594.893 1.594-.125 0-.8.032-1.357-.25-1.906-.502-.98-.881-1.888-1.719-2.5-.98-.717-1.653-1.421-2.53-2.063-1.187-.867-1.23-2.794-1.72-3.75-.33-.644.282-1.573.282-2.218 0-.585.969-.593.968-1.625 0-.814 1.264-2.06 1.438-2.907 0-.308-1.175-1.52-1.281-1.625-.537-.523-.85-1.315-1.25-2.093-.287-.56-.281-1.399-.282-2.063 0-.873.582-1.195.844-2.219.253-.984.26-1.554.844-2.312.61-.792 1.378-1.139 1.562-2.219.125-.731.11-1.514.25-2.062.197-.767.277-1.424-.25-1.938-.653-.637-1.21-1.134-2.28-1.656-.815-.397-2.444.683-2.938-.281-.285-.557-.992-2.24-1.719-2.594-.601-.293-1.153-1.007-1.563-1.406-.595-.58-1.152-.697-1.687-1.22-1.123-1.095-2.262-1.684-3.813-2.062-.866-.211-1.262-.64-2-1-1.147-.56-2.12-1.07-3.093-1.781-.54-.394-1.01-.954-1.688-1.219-.36-.14-1.076-1.903-1.125-2.093-.188-.734-1.2-1.924-1.437-2.5-.225-.877-1.758.468-2.657.687-1.015.247-2.515 0-3.562 0h-3.125c-.658 0-1.22-.834-1.94-1.115-.42-.164-1.827.263-4.167-3.8z" fill="#b5ad96" overflow="visible"/>
    <path style="marker:none" d="M269.859 206.668c-.666.032-1.329.152-2 .313v1.25c0 .98.653 1.765 1.093 2.625.596 1.161 1.838 2.37 2.563 3.312.538.699 1.026 1.766 1.687 2.625.87 1.13 2.028 2.36 2.844 3.156.589.574.508 1.46 1.125 2.063.54.526.563 1.662.563 2.375v9.906c0 .572-.939.66-1.375 1.063 1.618.191 3.152.406 5.375.406 4.04 0 5.422-7.097 6.25-10.406 1.263-5.052-1.51-8.58-3.469-12.5-2.33-4.661-5.023-4.389-9.719-5.563-1.802-.45-3.382-.699-4.937-.625z" fill="#b5ad96" overflow="visible"/>
    <path style="marker:none" d="M253.515 269.668l-.094.188c-.386.753-.944 1.672-1.156 2.5-.193.753-.695.988-.969 1.656-.307.748-.8 1.283-1 2.062-.171.668-.978.969-1.687.969-.593 0-1.53.542-2.125.688-.646.157-1.395.125-2.125.125h-.281c-.624 0-1.279 2.296-1.532 2.625-.57.74-.718 1.296-.875 2.062-.163.797 0 1.812 0 2.625 0 .938.157 1.72.157 2.625 0 .938.406 1.6.406 2.594v4.844c0 1.465.131 2.817.406 4.156.205.998.454 1.378 1.156 2.062.293.285 1.455.654 1.844.938.555.406.658.848 1.25 1.281.045.033.11.06.156.094.575-.475 1.08-.952 1.375-1.344 2.156-2.875 4.157-2.724 4.157-7.625 0-3.363 1.28-6.463 2.093-9.719.813-3.25 0-7.772 0-11.125 0-1.635-.45-3.05-1.156-4.281zm-16.563 5.594a2.182 2.182 0 00-.656.156c-2.272.886-6.218 1.923-8.156 3.813-.302.294-.605.58-.906.875-.555.54-2.548 2.343-3.313 2.343h-4.844c-1.005 0-1.362-3.22-1.812-2.343-.12.234-1.016 1.942-1.781 2.937-.81 1.053-1.105 2.537-2.125 3.531-.658.642-2.205 2.063-3.032 2.063-1.832 0-2.645-.21-4.218-.594-.265-.065-3.916.014-4.219-.281-.349-.34-1.756-3.25-2.125-3.25h-3.906c-2.187 0-4.499.669-6.625 1.187-1.54.376-5.88 1.735-6.657 3.25-.762 1.488-1.382 2.533-2.406 3.532-1.204 1.174-4.952 2.343-6.937 2.343-1.923 0-3.926-.014-5.75.875-1.922.937-4.34.437-5.719 1.782-1.305 1.272-2.04 1.156-4.219 1.156-2.118 0-1.53-1.469-3.031-1.469h-5.125c-1.504 0-3.652.359-5.125 0-1.378-.336-1.915-.77-3.625-1.187-1.422-.347-3.928-.55-4.813.312-1.031 1.006-1.627.914-3.343 1.75-1.09.531-2.169 1.781-3.594 1.781h-4.531c-1.35 0-3.082.242-4.219-.312-.5-.244-2.402-1.316-3.031-1.469-.01-.002-.023.002-.031 0-.61 3.588 2.246 5.84 3.562 7.156 2.537 2.537 3.737 3.275 6.938 4.875 2.064 1.033 8.11.688 10.406.688 3.327 0 7.365 2.013 10.437 2.781 3.25.812 7.741 0 11.094 0 4.24 0 7.822-.687 11.813-.687 3.748 0 7.152-.72 11.125-.72 2.825 0 5.635 2.198 6.937 3.5 2.653 2.654 4.606 4.486 5.563 8.313.847 3.39 1.375 6.64 1.375 10.438v10.406c0 3.682 2.033 5.473 3.468 8.344 1.526 3.052 3.15 4.524 4.875 6.25 2.985 2.985 4.745 2.576 8.313 3.469.541.135 1.157.224 1.781.312 1.226-1.311 2.813-2.187 2.813-3.062 0-1.782-3.533-.574-3.907-2.032-.55-2.144-2.246-.414-3.937-2.062-1.432-1.396-1.813-3.323-1.813-5.313v-4.687c0-1.687-.127-4.506 0-5 .585-2.28 1.235-2.702 2.125-4.438.558-1.087 1.161-2.903 2.094-3.812 1.282-1.25 1.531-2.59 1.531-4.125 0-2.014 1.167-2.188 1.5-3.813.196-.956.232-4.936.907-5.593.826-.807 1.48-2.24 1.812-3.532.57-2.22 2.264-5.149 3.906-6.75 1.103-1.075 1.7-2.403 2.407-4.125.792-1.932 2.665-2.847 3.625-4.718.681-1.33 1.295-2.509 2.125-4.125.806-1.573 1.282-3.273 2.125-4.094.853-.833 1.807-2.106 2.687-3.25.979-1.273 1.531-2.157 1.531-4.125 0-2.692 2.448-.472 3-2.625.51-1.985-.593-1.432-.593-3.531 0-1.423-.362-3.181-1.75-3.094z" fill="#bebada" overflow="visible"/>
    <path style="marker:none" d="M275.22 275.387c-3.724 0-4.55 5.47-6.674 7.594-2.764 2.764-3.294 6.957-4.156 10.406-.81 3.238-.688 6.82-.688 10.437 0 1.047.345 1.87.907 2.532.712.052 1.168-.244 1.687-.75.833-.813 2.666-.773 3.531-1.407.333-.243.65-1.589.844-1.906.32-.519.969-1.31.969-1.937 0-.56.725-1.478.875-2.063.23-.898.798-1.713 1-2.5.158-.615.25-1.122.25-1.937 0-1.282.469-2.323.469-3.563 0-1.278.99-2.385 1.656-3.469.638-1.036.708-1.654 1.437-2.187 1.202-.879 2.565-1.61 3.782-2.5.416-.304.116-3.51.227-3.759-2.472-2.854-2.849-.302-6.116-2.991z" fill="#cea980" overflow="visible"/>
    <path style="marker:none" d="M72.421 326.2c-1.158.006-2.419.166-3.875.53-2.682.671-7.383 1.03-9.719 2.782-1.37 1.028-2.747 2.046-3.875 3.219.883.05 1.81.03 2.72.03H67.92c2.001 0 3.365.028 4.844 1.47.08.077 2.955 2.58 3.312 3.53.603 1.605 3.516 1.782 5.125 1.782 3.172 0 3.753.187 5.344 1.969.33.37.48.483.781.875 1.022 1.328 1.753 1.92 2.844 2.718 1.24.907 2.05 2.258 3.406 3.25 1.694 1.239 2.534 2.505 3.938 3.532 1.101.805 1.94 2.186 3 3.218 1.116 1.088 1.453 1.188 3.625 1.188 2.133 0 3.22 1.286 4.812 2.062 1.411.688 2.911 1.062 3.938 2.063 1.532 1.494 3.152 3.062 4.531 4.406.818.798 1.45 2.19 2.406 2.656 1.618.789 3.013.156 4.813.594 1.524.372 2.696 1.134 3.937 2.344.343.334 2.118 2.656 2.72 2.656 1.608 0 3.203-1.187 4.812-1.187 1.71 0 3.415-.594 5.125-.594 1.597 0 3.595 1.477 5.156 1.781 1.062.207 3.14.699 4.219 1.75.941.918 1.764 1.452 3 2.656 1.016.991 1.945 1.88 3.031 2.938.872.85 1.726 2.282 2.719 3.25 1.084 1.057 2.1 2.048 3 3.219.662.86 1.262 2.177 1.812 3.25.464.905 1.356 1.938 2.125 2.937.482.627.924 2.97 1.5 3.531.84.818 1.61 1.75 3.625 1.75 1.768 0 2.782.627 4.219 1.188.919.358 2.046 1.16 3.312 1.469 1.167.284 2.751.83 3.625 1.468.459.336 2.079 2.344 3.032 2.344 1.743 0 3.557-1.156 4.531-1.156h4.812c1.406 0 3.606.48 4.532 1.156 1.29.944 3.925 1.79 5.125 2.375 1.506.735 1.484 1.156 3.312 1.156 1.303 0 3.486-1.766 1.5-3.218-1.048-.767-1.812-1.355-1.812-3.25 0-1.781-.127-3.567.312-5.282.322-1.256 3.031-3.85 3.031-4.125 0-1.911-.082-2.886 1.188-4.125 1.173-1.143 1.352-4.073 2.719-4.406 1.704-.415 4.191-.472 4.843-2.062.496-1.209.594-2.682.594-4.407 0-2.083-.487-2.104-1.219-3.53-.654-1.278-.016-3.27-1.187-4.126-.643-.47-3.738-1.892-4.406-3.094-2.72.747-5.741 1.657-8.125 1.657-3.124 0-7.228.611-10.407 1.406-3.282.82-7.005.858-10.437 0-3.315-.829-6.998-.554-10.406-1.406-3.872-.968-7.879-1.767-11.813-2.75-3.516-.88-5.77-1.87-9.031-3.5-2.775-1.388-5.869-2.4-8.313-4.844-1.208-1.208-2.859-3.129-6.968-4.156-3.818-.955-6.456-3.888-10.407-4.875-3.742-.936-7.215-2.561-10.406-4.157-3.102-1.55-5.966-4.796-9.031-5.562-4.202-1.05-6.457-3.88-10.438-4.875-3.623-.906-8.294-.682-11.093-2.781-2.342-1.757-5.774-1.84-9.032-3.469-1.601-.801-3.226-1.23-5.156-1.219z" fill="#eacd85" overflow="visible"/>
  </g>
  <path d="M234.465 129.501a2.465 2.465 0 11-4.93 0 2.465 2.465 0 014.93 0zm-19.375-9.312a2.465 2.465 0 11-4.93 0 2.465 2.465 0 014.93 0zm-9.685-19.899a2.465 2.465 0 11-4.93 0 2.465 2.465 0 014.93 0zm-66.91-25.28a2.465 2.465 0 11-4.93 0 2.465 2.465 0 014.93 0zm6.717-4.95a2.465 2.465 0 11-4.93 0 2.465 2.465 0 014.93 0zm9.286-3.873a2.465 2.465 0 11-4.93 0 2.465 2.465 0 014.93 0zm-8.365-2.413a2.465 2.465 0 11-4.93 0 2.465 2.465 0 014.93 0zm2.35-5.999a2.465 2.465 0 11-4.93 0 2.465 2.465 0 014.93 0zM257.59 5.751a2.465 2.465 0 11-4.93 0 2.465 2.465 0 014.93 0zm90.5 92.875a2.465 2.465 0 11-4.93 0 2.465 2.465 0 014.93 0zm-38.75 20.313a2.465 2.465 0 11-4.93 0 2.465 2.465 0 014.93 0zm-3.562 5.375a2.465 2.465 0 11-4.93 0 2.465 2.465 0 014.93 0zm-6.947 39.041a2.465 2.465 0 11-4.93 0 2.465 2.465 0 014.93 0zm3.757 3.668a2.465 2.465 0 11-4.93 0 2.465 2.465 0 014.93 0zm31.245 28.814a2.465 2.465 0 11-4.93 0 2.465 2.465 0 014.93 0zm3.801 17.103a2.465 2.465 0 11-4.93 0 2.465 2.465 0 014.93 0zm-57.169 68.124a2.465 2.465 0 11-4.93 0 2.465 2.465 0 014.93 0zm-33.827 9.879a2.465 2.465 0 11-4.93 0 2.465 2.465 0 014.93 0zm1.458-10.385a2.465 2.465 0 11-4.93 0 2.465 2.465 0 014.93 0zm15.38-20.286a2.465 2.465 0 11-4.93 0 2.465 2.465 0 014.93 0zm11.802-48.396a2.465 2.465 0 11-4.93 0 2.465 2.465 0 014.93 0zM171.64 393.65a2.465 2.465 0 11-4.93 0 2.465 2.465 0 014.93 0zm49.1-14.54a2.465 2.465 0 11-4.93 0 2.465 2.465 0 014.93 0zm-12.904-24.218a2.465 2.465 0 11-4.93 0 2.465 2.465 0 014.93 0zm29.692-72.516a2.465 2.465 0 11-4.93 0 2.465 2.465 0 014.93 0zm-58.813 14a2.465 2.465 0 11-4.93 0 2.465 2.465 0 014.93 0zm-50.658 5.438a2.465 2.465 0 11-4.93 0 2.465 2.465 0 014.93 0z" fill="none" stroke="red"/>
  <text x="336.656" y="158.695" font-size="12" font-weight="400" text-anchor="middle" font-family="Liberation Sans" transform="translate(-.753 -35.635)">
    <tspan x="336.656" y="158.695">Ἠράκλεια</tspan>
  </text>
  <text x="294.965" y="130.3" font-size="12" font-weight="400" text-anchor="middle" font-family="Liberation Sans" transform="translate(-.753 -35.635)">
    <tspan x="294.965" y="130.3">Μεταπόντιον</tspan>
  </text>
  <text x="378.071" y="137.993" font-size="12" font-weight="400" text-anchor="middle" font-family="Liberation Sans" transform="translate(-.753 -35.635)">
    <tspan x="378.071" y="137.993">Τάρας</tspan>
  </text>
  <text x="359.301" y="252.223" font-size="12" font-weight="400" text-anchor="middle" font-family="Liberation Sans" transform="translate(-.753 -35.635)">
    <tspan x="359.301" y="252.223">Κρώτον</tspan>
  </text>
  <text x="355.868" y="235.195" font-size="12" font-weight="400" text-anchor="middle" font-family="Liberation Sans" transform="translate(-.753 -35.635)">
    <tspan x="355.868" y="235.195">Πετήλια</tspan>
  </text>
  <text x="236.021" y="190.935" font-size="12" font-weight="400" text-anchor="middle" font-family="Liberation Sans" transform="translate(-.753 -35.635)">
    <tspan x="236.021" y="190.935">Λαῦς</tspan>
  </text>
  <text x="168.231" y="139.696" font-size="12" font-weight="400" text-anchor="middle" font-family="Liberation Sans" transform="translate(-.753 -35.635)">
    <tspan x="168.231" y="139.696">Ποσειδωνία</tspan>
  </text>
  <text x="318.845" y="195.387" font-size="12" font-weight="400" text-anchor="middle" font-family="Liberation Sans" transform="translate(-.753 -35.635)">
    <tspan x="318.845" y="195.387">Σύβαρις</tspan>
  </text>
  <text x="300.322" y="215.188" font-size="12" font-weight="400" text-anchor="middle" font-family="Liberation Sans" transform="translate(-.753 -35.635)">
    <tspan x="300.322" y="215.188">Θούριοι</tspan>
  </text>
  <text x="318.417" y="170.138" font-size="12" font-weight="400" text-anchor="middle" font-family="Liberation Sans" transform="translate(-.753 -35.635)">
    <tspan x="318.417" y="170.138">Σῖρις</tspan>
  </text>
  <text x="212.911" y="150.537" font-size="12" font-weight="400" text-anchor="middle" font-family="Liberation Sans" transform="translate(-.753 -35.635)">
    <tspan x="212.911" y="150.537">Ἐλέα</tspan>
  </text>
  <text x="168.709" y="94.701" font-size="12" font-weight="400" text-anchor="middle" font-family="Liberation Sans" transform="translate(-.753 -35.635)">
    <tspan x="168.709" y="94.701">Καπύη</tspan>
  </text>
  <text x="232.752" y="382.521" font-size="12" font-weight="400" text-anchor="middle" font-family="Liberation Sans" transform="translate(-.753 -35.635)">
    <tspan x="232.752" y="382.521">Κατάνη</tspan>
  </text>
  <text x="120.463" y="103.216" font-size="12" font-weight="400" text-anchor="middle" font-family="Liberation Sans" transform="translate(-.753 -35.635)">
    <tspan x="120.463" y="103.216">Κῦμη</tspan>
  </text>
  <text x="112.595" y="122.386" font-size="12" font-weight="400" text-anchor="middle" font-family="Liberation Sans" transform="translate(-.753 -35.635)">
    <tspan x="112.595" y="122.386">Πιθηκούσαι</tspan>
  </text>
  <text x="235.469" y="395.511" font-size="12" font-weight="400" text-anchor="middle" font-family="Liberation Sans" transform="translate(-.753 -35.635)">
    <tspan x="235.469" y="395.511">Λεοντίνοι</tspan>
  </text>
  <text x="211.895" y="321.152" font-size="12" font-weight="400" text-anchor="middle" font-family="Liberation Sans" transform="translate(-.753 -35.635)">
    <tspan x="211.895" y="321.152">Ζάγκλη</tspan><tspan x="211.895" y="330.478" font-size="8">(Μεσσήνη)</tspan>
  </text>
  <text x="271.675" y="331.596" font-size="12" font-weight="400" text-anchor="middle" font-family="Liberation Sans" transform="translate(-.753 -35.635)">
    <tspan x="271.675" y="331.596">Ρῆγιον</tspan>
  </text>
  <text x="180.473" y="106.992" font-size="12" font-weight="400" text-anchor="middle" font-family="Liberation Sans" transform="translate(-.753 -35.635)">
    <tspan x="180.473" y="106.992">Νεάπολις</tspan>
  </text>
  <text style="text-indent:0;text-align:center;text-transform:none;block-progression:tb;marker:none" x="176.409" y="118.897" font-size="12" font-weight="400" text-anchor="middle" color="#000" overflow="visible" font-family="Liberation Sans" transform="translate(-.753 -35.635)">
    <tspan x="176.409" y="118.897">Δικαιάρχεια</tspan>
  </text>
  <text x="176.673" y="345.584" font-size="12" font-weight="400" text-anchor="middle" font-family="Liberation Sans" transform="translate(-.753 -35.635)">
    <tspan x="176.673" y="345.584">Καλάκτα</tspan>
  </text>
  <text x="126.346" y="331.737" font-size="12" font-weight="400" text-anchor="middle" font-family="Liberation Sans" transform="translate(-.753 -35.635)">
    <tspan x="126.346" y="331.737">Ἰμέρα</tspan>
  </text>
  <text x="222.43" y="354.181" font-size="12" font-weight="400" text-anchor="middle" font-family="Liberation Sans" transform="translate(-.753 -35.635)">
    <tspan x="222.43" y="354.181">Νάξος</tspan><tspan x="222.43" y="363.507" font-size="8">(Ταυρομένιον)</tspan>
  </text>
  <text x="296.887" y="320.856" font-size="12" font-weight="400" text-anchor="middle" font-family="Liberation Sans" transform="translate(-.753 -35.635)">
    <tspan x="296.887" y="320.856">Λοκροί</tspan>
  </text>
  <text x="261.151" y="290.332" font-size="12" font-weight="400" text-anchor="middle" font-family="Liberation Sans" transform="translate(-.753 -35.635)">
    <tspan x="261.151" y="290.332">Μέδμα</tspan>
  </text>
  <text x="253.474" y="310.311" font-size="12" font-weight="400" text-anchor="middle" font-family="Liberation Sans" transform="translate(-.753 -35.635)">
    <tspan x="253.474" y="310.311">Σκύλλαιον</tspan>
  </text>
  <text x="317.208" y="308.744" font-size="12" font-weight="400" text-anchor="middle" font-family="Liberation Sans" transform="translate(-.753 -35.635)">
    <tspan x="317.208" y="308.744">Καυλωνία</tspan>
  </text>
  <text x="243.774" y="160.142" font-size="12" font-weight="400" text-anchor="middle" font-family="Liberation Sans" transform="translate(-.753 -35.635)">
    <tspan x="243.774" y="160.142">Πιξοῦς</tspan>
  </text>
  <text x="256.434" y="55.178" font-size="12" font-weight="400" text-anchor="middle" font-family="Liberation Sans" transform="translate(-.753 -35.635)">
    <tspan x="256.434" y="55.178">Σιποῦς</tspan>
  </text>
  <text x="248.532" y="417.942" font-size="12" font-weight="400" text-anchor="middle" font-family="Liberation Sans" transform="translate(-.753 -35.635)">
    <tspan x="248.532" y="417.942">Συρακούσαι</tspan>
  </text>
  <text x="391.814" y="180.21" font-size="12" font-weight="400" text-anchor="middle" font-family="Liberation Sans" transform="translate(-.753 -35.635)">
    <tspan x="391.814" y="180.21">Καλλίπολις</tspan>
  </text>
  <text x="329.694" y="277.525" font-size="12" font-weight="400" text-anchor="middle" font-family="Liberation Sans" transform="translate(-.753 -35.635)">
    <tspan x="329.694" y="277.525">Σκυλλάκιον</tspan>
  </text>
  <text x="251.656" y="251.697" font-size="12" font-weight="400" text-anchor="middle" font-family="Liberation Sans" transform="translate(-.753 -35.635)">
    <tspan x="251.656" y="251.697">Τέρινα</tspan>
  </text>
  <text style="text-indent:0;text-align:start;text-transform:none;block-progression:tb;marker:none" x="128.8" y="372.897" font-size="16" font-weight="400" color="#000" fill="#646464" overflow="visible" font-family="Liberation Sans" transform="translate(-.753 -35.635)">
    <tspan x="128.8" y="372.897" style="text-indent:0;text-align:start;text-transform:none;block-progression:tb;marker:none" overflow="visible">Σικελία</tspan>
  </text>
  <text style="text-indent:0;text-align:start;text-transform:none;block-progression:tb;marker:none" x="270.463" y="238.632" font-size="16" font-weight="400" color="#000" fill="#646464" overflow="visible" font-family="Liberation Sans" transform="translate(-.753 -35.635)">
    <tspan x="270.463" y="238.632" style="text-indent:0;text-align:start;text-transform:none;block-progression:tb;marker:none" overflow="visible">Λευκανία</tspan>
  </text>
  <text style="text-indent:0;text-align:start;text-transform:none;block-progression:tb;marker:none" x="134.916" y="75.188" font-size="16" font-weight="400" color="#000" fill="#646464" overflow="visible" font-family="Liberation Sans" transform="translate(-.753 -35.635)">
    <tspan x="134.916" y="75.188" style="text-indent:0;text-align:start;text-transform:none;block-progression:tb;marker:none" overflow="visible">Καμπανία</tspan>
  </text>
  <text style="text-indent:0;text-align:start;text-transform:none;block-progression:tb;marker:none" x="284.661" y="97.685" font-size="16" font-weight="400" color="#000" fill="#646464" overflow="visible" font-family="Liberation Sans" transform="translate(-.753 -35.635)">
    <tspan x="284.661" y="97.685" style="text-indent:0;text-align:start;text-transform:none;block-progression:tb;marker:none" overflow="visible">Ἀπουλία</tspan>
  </text>
  <path d="M393.965 130.251a2.465 2.465 0 11-4.93 0 2.465 2.465 0 014.93 0zm-73-31.062a2.465 2.465 0 11-4.93 0 2.465 2.465 0 014.93 0zm-20.406 136.125a2.465 2.465 0 11-4.93 0 2.465 2.465 0 014.93 0zm-10.219 34.187a2.465 2.465 0 11-4.93 0 2.465 2.465 0 014.93 0zm-81.92 74.491a2.465 2.465 0 11-4.93 0 2.465 2.465 0 014.93 0zm15.67-38.491a2.465 2.465 0 11-4.93 0 2.465 2.465 0 014.93 0zm-68.515 68.695a2.465 2.465 0 11-4.93 0 2.465 2.465 0 014.93 0zm30.82-2.08a2.465 2.465 0 11-4.93 0 2.465 2.465 0 014.93 0z" fill="none" stroke="red"/>
  <text x="201.688" y="433.222" font-size="12" font-weight="400" text-anchor="middle" font-family="Liberation Sans" transform="translate(-.753 -35.635)">
    <tspan x="201.688" y="433.222">Καμάρινα</tspan>
  </text>
  <text x="183.483" y="402.915" font-size="12" font-weight="400" text-anchor="middle" font-family="Liberation Sans" transform="translate(-.753 -35.635)">
    <tspan x="183.483" y="402.915">Κασμέναι</tspan>
  </text>
  <text x="154.934" y="422.627" font-size="12" font-weight="400" text-anchor="middle" font-family="Liberation Sans" transform="translate(-.753 -35.635)">
    <tspan x="154.934" y="422.627">Γέλα</tspan>
  </text>
  <text x="46.598" y="384.038" font-size="12" font-weight="400" text-anchor="middle" font-family="Liberation Sans" transform="translate(-.753 -35.635)">
    <tspan x="46.598" y="384.038">Ἠράκλεια Μινώα</tspan>
  </text>
  <path d="M95.602 345.184a2.465 2.465 0 11-4.93 0 2.465 2.465 0 014.93 0zm-27.268-14.739a2.465 2.465 0 11-4.93 0 2.465 2.465 0 014.93 0z" fill="none" stroke="red"/>
  <text x="66.383" y="361.315" font-size="12" font-weight="400" text-anchor="middle" font-family="Liberation Sans" transform="translate(-.753 -35.635)">
    <tspan x="66.383" y="361.315">Σελινούντας</tspan>
  </text>
  <path d="M129.459 365.82a2.465 2.465 0 11-4.93 0 2.465 2.465 0 014.93 0z" fill="none" stroke="red"/>
  <text x="100.593" y="404.116" font-size="12" font-weight="400" text-anchor="middle" font-family="Liberation Sans" transform="translate(-.753 -35.635)">
    <tspan x="100.593" y="404.116">Ἄκραγας</tspan>
  </text>
  <rect y="185.855" x="8.701" height="69.455" width="168.96" rx="0" ry="0" fill="#fff" fill-opacity=".706" fill-rule="evenodd" stroke="red" stroke-width=".694" stroke-linecap="round" stroke-opacity=".706"/>
  <rect width="21.12" height="12.31" x="15.441" y="211.696" rx="58.378" ry=".268" fill="#eacd85" stroke="#999" stroke-width=".5"/>
  <text style="text-align:start" x="42.127" y="221.355" font-size="9" font-weight="400" font-family="Liberation Sans">
    <tspan x="42.127" y="221.355" style="text-align:start">Δωρική</tspan>
  </text>
  <text style="text-align:start" x="14.127" y="201.105" font-size="10" font-weight="400" font-family="Liberation Sans">
    <tspan x="14.127" y="201.105" style="text-align:start" font-style="oblique">Διάλεκτοι της Μεγάλης Ελλάδος</tspan>
  </text>
  <rect width="21.12" height="12.31" x="75.67" y="211.51" rx="58.378" ry=".268" fill="#cea980" stroke="#999" stroke-width=".5"/>
  <text style="text-align:start" x="102.127" y="221.355" font-size="9" font-weight="400" font-family="Liberation Sans">
    <tspan x="102.127" y="221.355" style="text-align:start">Βορειοδυτικά ελλ.</tspan>
  </text>
  <rect width="21.12" height="12.31" x="15.442" y="234.2" rx="58.378" ry=".268" fill="#bebada" stroke="#999" stroke-width=".5"/>
  <text style="text-align:start" x="42.127" y="243.855" font-size="9" font-weight="400" font-family="Liberation Sans">
    <tspan x="42.127" y="243.855">Ἰωνική</tspan>
  </text>
  <rect width="21.12" height="12.31" x="75.758" y="234.2" rx="58.378" ry=".268" fill="#b5ad96" stroke="#999" stroke-width=".5"/>
  <text style="text-align:start" x="102.127" y="244.105" font-size="9" font-weight="400" font-family="Liberation Sans">
    <tspan x="102.127" y="244.105">Ἀχαϊκή</tspan>
  </text>
  <text style="text-indent:0;text-align:center;line-height:121.00000381%;text-transform:none;block-progression:tb;marker:none;-inkscape-font-specification:Liberation Serif Bold" x="364.243" y="342.915" font-size="14" font-style="italic" font-weight="700" text-anchor="middle" color="#000" fill="#0978ab" overflow="visible" font-family="Liberation Serif">
    <tspan x="364.243" y="342.915" style="text-indent:0;text-align:center;line-height:121.00000381%;text-transform:none;block-progression:tb;marker:none;-inkscape-font-specification:Liberation Serif Bold" overflow="visible">Ιόνιο πέλαγος</tspan>
  </text>
  <text style="text-indent:0;text-align:center;line-height:121.00000381%;text-transform:none;block-progression:tb;marker:none;-inkscape-font-specification:Liberation Serif Bold" x="374.243" y="23.415" font-size="14" font-style="italic" font-weight="700" text-anchor="middle" color="#000" fill="#0978ab" overflow="visible" font-family="Liberation Serif">
    <tspan x="374.243" y="23.415" style="text-indent:0;text-align:center;line-height:121.00000381%;text-transform:none;block-progression:tb;marker:none;-inkscape-font-specification:Liberation Serif Bold" overflow="visible">Αδριατική θάλασσα</tspan>
  </text>
  <text style="text-indent:0;text-align:center;line-height:121.00000381%;text-transform:none;block-progression:tb;marker:none;-inkscape-font-specification:Liberation Serif Bold" x="103.012" y="147.671" font-size="14" font-style="italic" font-weight="700" text-anchor="middle" color="#000" fill="#0978ab" overflow="visible" font-family="Liberation Serif">
    <tspan x="103.012" y="147.671" style="text-indent:0;text-align:center;line-height:121.00000381%;text-transform:none;block-progression:tb;marker:none;-inkscape-font-specification:Liberation Serif Bold" overflow="visible">Τυρρηνική θάλασσα</tspan>
  </text>
</svg>
