<?xml version="1.0" standalone="no"?>
<!DOCTYPE svg PUBLIC "-//W3C//DTD SVG 1.1//EN" "http://www.w3.org/Graphics/SVG/1.1/DTD/svg11.dtd" >
<svg>
<metadata>
Created by FontForge 20120731 at Tue Apr 16 13:46:43 2019
 By www-data
Digitized by Dan X. Solo. Software (c) 1999 by Dover Publications, Inc., New York.
</metadata>
<defs>
<font id="AmapolaNormal" horiz-adv-x="18" >
  <font-face 
    font-family="Amapola"
    font-weight="400"
    font-stretch="normal"
    units-per-em="1000"
    panose-1="0 0 4 0 0 0 0 0 0 0"
    ascent="800"
    descent="-200"
    x-height="330"
    cap-height="681"
    bbox="-94 -312 1350 853"
    underline-thickness="45"
    underline-position="-128"
    unicode-range="U+0020-F002"
  />
<missing-glyph horiz-adv-x="500" 
d="M63 0v720h375v-720h-375zM125 63h250v595h-250v-595z" />
    <glyph glyph-name=".notdef" horiz-adv-x="500" 
d="M63 0v720h375v-720h-375zM125 63h250v595h-250v-595z" />
    <glyph glyph-name=".null" horiz-adv-x="0" 
 />
    <glyph glyph-name="glyph2" horiz-adv-x="180" 
 />
    <glyph glyph-name="space" unicode=" " horiz-adv-x="180" 
 />
    <glyph glyph-name="exclam" unicode="!" horiz-adv-x="324" 
d="M171 119q-3 -3 -5 -3q-3 0 -4 5l157 544h69zM144 -2q-37 0 -37 36q0 16 10.5 26.5t26.5 10.5q15 0 25.5 -11t10.5 -26t-10.5 -25.5t-25.5 -10.5z" />
    <glyph glyph-name="quotedbl" unicode="&#x22;" horiz-adv-x="312" 
d="M376 602l-74 -195h-9l20 196q7 67 44 66q27 -1 27 -31q0 -15 -8 -36zM256 602l-74 -195h-9l20 196q7 67 44 66q27 -1 27 -31q0 -15 -8 -36z" />
    <glyph glyph-name="numbersign" unicode="#" horiz-adv-x="572" 
d="M520 337h-112l-38 -120h121l-15 -43h-122l-56 -176h-35l57 176h-110l-57 -176h-35l56 176h-118l16 43h117l39 120h-127l15 43h128l55 177h36l-56 -177h110l56 177h35l-56 -177h112zM263 337l-39 -120h110l39 120h-110z" />
    <glyph glyph-name="dollar" unicode="$" horiz-adv-x="436" 
d="M397 513q-53 31 -76 38l-60 -216q56 -60 72 -82q39 -54 39 -99q0 -75 -68 -119q-59 -38 -138 -39l-14 -52l-20 5l13 49q-61 11 -126 51l16 20q74 -48 115 -55l76 276q-54 57 -71 81q-27 38 -27 71q0 62 60 98q52 31 117 29l15 51l21 -4l-15 -50q38 -11 81 -37zM176 455
q0 -20 20 -45q13 -15 49 -58l57 202q-52 4 -87 -21q-39 -27 -39 -78zM243 273l-73 -262q62 -1 106.5 35.5t44.5 96.5q0 48 -78 130z" />
    <glyph glyph-name="percent" unicode="%" horiz-adv-x="665" 
d="M475 -3q-42 0 -69 38q-25 34 -25 77q0 76 36 145q43 82 111 82q44 0 68 -36q21 -31 21 -78q0 -74 -35 -144q-42 -84 -107 -84zM168 -56h-36l373 638l20 -5zM155 227q-42 0 -69 38q-25 34 -25 77q0 76 36 145q43 82 111 82q44 0 68 -36q21 -31 21 -78q0 -74 -35 -144
q-42 -84 -107 -84zM540 319q-54 0 -90 -91q-29 -72 -29 -135q0 -81 58 -81q53 0 89 91q29 73 29 136q0 80 -57 80zM220 549q-54 0 -90 -91q-29 -72 -29 -135q0 -81 58 -81q53 0 89 91q29 73 29 136q0 80 -57 80z" />
    <glyph glyph-name="ampersand" unicode="&#x26;" horiz-adv-x="744" 
d="M507 285q-5 -41 -22 -94q84 -114 105 -183l-2 -2q-51 2 -161 96q-96 -103 -203 -103q-58 0 -98 37.5t-40 95.5q0 71 53 119q50 46 122 52q-32 62 -32 117q0 77 49.5 126t126.5 49q41 0 72 -10l-11 -28q-37 19 -75 19q-56 0 -85 -43q-25 -36 -25 -95q0 -67 31 -136
q85 -22 162 -100q16 46 16 91q0 -8 1 18v19l164 1q61 0 85 34l2 1v-2q-13 -51 -60 -69q-31 -12 -96 -12q-27 0 -79 2zM477 175q-19 -34 -37 -58q55 -55 104 -80q0 59 -67 138zM326 270q34 -79 102 -143q26 28 40 61q-64 68 -142 82zM271 278q-55 -4 -90 -45t-35 -97
q0 -50 29 -81t79 -31q88 0 161 87q-89 81 -144 167z" />
    <glyph glyph-name="quotesingle" unicode="'" horiz-adv-x="209" 
d="M256 602l-74 -195h-9l20 196q7 67 44 66q27 -1 27 -31q0 -15 -8 -36z" />
    <glyph glyph-name="parenleft" unicode="(" horiz-adv-x="341" 
d="M372 709q-193 -364 -193 -684q0 -109 22 -177v-4l-6 -3l-2 2q-51 130 -51 295q0 259 222 575h2l6 -3v-1z" />
    <glyph glyph-name="parenright" unicode=")" horiz-adv-x="294" 
d="M20 -158l-2 -1l-6 3l1 2q193 386 193 683q0 107 -23 178v4l6 2l2 -1q52 -131 52 -296q0 -259 -223 -574z" />
    <glyph glyph-name="asterisk" unicode="*" horiz-adv-x="287" 
d="M225 468q-13 0 -67 48q-16 14 -24 20q0 -19 11.5 -51.5t11.5 -47.5q0 -23 -24 -23q-22 0 -22 23q0 15 11 47.5t11 50.5q-14 -7 -45 -42q-24 -28 -42 -28q-21 0 -21 23q0 21 76 38q23 5 33 10q-14 6 -33 10q-74 14 -74 34q0 30 23 31q11 1 60 -52q13 -13 24 -21
q-2 15 -6 29q-17 58 -17 70q0 25 25 25q21 0 21 -24q0 -9 -18 -70q-4 -13 -6 -30q9 6 23 20q52 53 61 53q10 0 16 -9t5 -19q-2 -14 -73 -35q-21 -6 -31 -12q13 -6 32 -10q43 -8 47 -8q32 -9 32 -24q0 -26 -20 -26z" />
    <glyph glyph-name="plus" unicode="+" horiz-adv-x="604" 
d="M345 262v-217h-35v217h-196v38h196v218h35v-218h196v-38h-196z" />
    <glyph glyph-name="comma" unicode="," horiz-adv-x="218" 
d="M39 -95l4 17q74 45 74 83q0 22 -22 22q-1 -1 -19 -10l-5 23l10 24q8 20 34 20q41 0 41 -46q0 -67 -117 -133z" />
    <glyph glyph-name="hyphen" unicode="-" horiz-adv-x="371" 
d="M319 176h-200l14 47h197z" />
    <glyph glyph-name="hyphen" unicode="&#x2010;" horiz-adv-x="371" 
d="M319 176h-200l14 47h197z" />
    <glyph glyph-name="period" unicode="." horiz-adv-x="217" 
d="M141 0q-13 0 -32 9q-22 10 -22 22q0 6 10 28t14 22q6 0 44 -26q4 -3 4 -9q0 -46 -18 -46z" />
    <glyph glyph-name="slash" unicode="/" horiz-adv-x="543" 
d="M128 -56h-36l417 752h26z" />
    <glyph glyph-name="zero" unicode="0" horiz-adv-x="405" 
d="M287 77q-57 -79 -126 -79q-68 0 -105 69q-30 55 -30 129q0 61 21 135q26 90 73 159q64 92 139 92q67 0 97 -71q21 -51 21 -129q0 -179 -90 -305zM264 568q-93 0 -154 -238q-24 -93 -24 -180q0 -53 16 -89q21 -49 67 -49q66 0 117 127q54 135 54 283q0 146 -76 146z" />
    <glyph glyph-name="one" unicode="1" horiz-adv-x="301" 
d="M116 25q-1 -5 -4 -12q-3 -3 -10 -4l-37 -3q-6 0 -7 5q0 2 2 9l139 485q-72 -86 -128 -132h-2l-5 7l1 4q49 47 68 67q38 40 60 76q14 24 16 26q12 16 22 17l27 3q5 0 5 -3q0 -4 -2 -11z" />
    <glyph glyph-name="two" unicode="2" horiz-adv-x="402" 
d="M132 106q120 -59 143 -59q43 0 88 72h1l5 -3l1 -2q-61 -117 -116 -117q-22 0 -79 24q-27 12 -81 35l-52 -56h-2l-8 7l1 4l59 97q3 5 10 5q8 0 14 -2q202 240 202 371q0 71 -59 71q-50 0 -85 -55q-28 -45 -34 -101l-2 -3h-9l-2 4q7 70 42 121q42 60 107 60q47 0 76.5 -32
t29.5 -80q0 -62 -102 -191q-18 -23 -148 -170z" />
    <glyph glyph-name="three" unicode="3" horiz-adv-x="402" 
d="M195 331q67 0 109 -26q51 -32 51 -94q0 -80 -81 -157q-59 -56 -137 -56q-58 0 -90 22v3l3 5l3 1q32 -15 69 -15q97 0 150 115q22 49 22 95q0 39 -22.5 64t-61.5 25q-20 0 -62 -13l-4 2l-3 7l2 3q169 84 169 186q0 56 -49 56q-57 0 -109 -89h-3l-6 5l-1 4q61 107 141 107
q38 0 61.5 -23t23.5 -61q0 -95 -175 -166z" />
    <glyph glyph-name="four" unicode="4" horiz-adv-x="402" 
d="M325 216h25l4 -3l-2 -9l-3 -4l-28 -1l-41 -174q-2 -6 -9 -13l-47 -11q-5 -1 -5 3q-1 2 2 13l47 180l-225 -7l-2 6l2 6q145 214 199 339q10 18 21 21l58 14q6 1 6 -9q0 -15 -63 -103q-73 -102 -199 -256l208 5l32 127q3 11 12 12l34 5q4 1 5 -2q2 -3 0 -11z" />
    <glyph glyph-name="five" unicode="5" horiz-adv-x="402" 
d="M228 493q-35 0 -59 1l-59 -201q59 50 118 50q53 0 83.5 -33.5t30.5 -86.5q0 -95 -83 -170q-73 -66 -163 -66q-37 0 -58 10l-1 4l3 6l3 1q25 -9 54 -9q57 0 111 49q77 70 77 175q0 41 -19 69q-22 31 -61 31q-26 0 -52 -16q-4 -2 -43 -33q-10 -8 -15 -8q-3 0 -5 3
q-1 4 2 14l74 252q4 15 22 15l149 3q25 0 44 18l1 -1q-8 -50 -45 -65q-29 -12 -109 -12z" />
    <glyph glyph-name="six" unicode="6" horiz-adv-x="402" 
d="M184 -2q-63 0 -98 48q-30 42 -30 108q0 112 80 241q65 104 166 196h3l7 -8l-2 -6q-86 -91 -140 -207q-60 -127 -60 -241q0 -43 16 -74q20 -40 59 -40q59 0 94 85q27 67 27 135q0 79 -48 79q-42 0 -71 -62q-22 -47 -27 -98l-2 -4h-6l-3 4q3 65 32 119q36 68 94 68
q41 0 65 -39q20 -34 20 -77q0 -78 -48 -148q-54 -79 -128 -79z" />
    <glyph glyph-name="seven" unicode="7" horiz-adv-x="402" 
d="M214 253q-57 -97 -119 -226q-8 -17 -18 -18l-54 -6q-5 0 -6 5q0 15 83 137q96 142 259 358q-115 4 -146 4q-34 0 -51 -8q-21 -11 -32 -40q-2 -2 -4 -11l-1 -4q-3 -8 -13 -8q-3 0 -3 5q0 24 30 83q15 30 42 39q18 6 75 6q78 0 135 -8l11 10h3l4 -5v-5q-31 -55 -97 -154
q-69 -104 -98 -154z" />
    <glyph glyph-name="eight" unicode="8" horiz-adv-x="402" 
d="M264 290q49 -81 49 -145q0 -62 -42 -104.5t-104 -42.5q-55 0 -91.5 34t-36.5 89q0 86 134 219q-38 61 -38 117q0 53 33.5 88t86.5 35q49 0 76 -29.5t27 -78.5q0 -69 -94 -182zM260 565q-35 0 -56 -26t-21 -62q0 -46 73 -171q73 82 73 171q0 37 -16 60q-18 28 -53 28z
M181 325q-105 -103 -105 -201q0 -46 21 -76q23 -35 67 -35q45 0 73 37q25 33 25 80q0 58 -81 195z" />
    <glyph glyph-name="nine" unicode="9" horiz-adv-x="402" 
d="M114 -15h-1l-6 8l2 4q186 171 186 423q0 144 -76 144q-58 0 -97 -71q-34 -61 -34 -124q0 -100 66 -100q75 0 98 140l1 2l8 -1l1 -3q-8 -65 -36 -119q-37 -72 -92 -72q-41 0 -65 37q-20 32 -20 76q0 92 67 181q53 70 114 70t95 -64q28 -51 28 -118q0 -95 -78.5 -232
t-160.5 -181z" />
    <glyph glyph-name="colon" unicode=":" horiz-adv-x="244" 
d="M137 -13q-13 0 -32 9q-22 10 -22 22q0 6 10 28t14 22q6 0 44 -26q4 -3 4 -9q0 -46 -18 -46zM215 253q-13 0 -32 9q-22 10 -22 22q0 6 10 28t14 22q21 0 44 -16q4 -3 4 -9q0 -56 -18 -56z" />
    <glyph glyph-name="semicolon" unicode=";" horiz-adv-x="243" 
d="M53 -93l4 17q74 46 74 83q0 22 -22 22q-4 0 -7.5 -6t-6.5 -7l-9 9l10 42q9 19 34 19q40 0 40 -45q0 -68 -117 -134zM211 250q-13 0 -32 9q-22 10 -22 22q0 6 10 28t14 22q6 0 44 -26q4 -3 4 -9q0 -46 -18 -46z" />
    <glyph glyph-name="less" unicode="&#x3c;" horiz-adv-x="682" 
d="M120 280v36l413 229v-47l-352 -200l352 -199v-47z" />
    <glyph glyph-name="equal" unicode="=" horiz-adv-x="791" 
d="M170 316l11 42h512l-11 -42h-512zM134 178l11 42h511l-11 -42h-511z" />
    <glyph glyph-name="greater" unicode="&#x3e;" horiz-adv-x="682" 
d="M147 52v47l352 199l-352 200v47l413 -229v-36z" />
    <glyph glyph-name="question" unicode="?" horiz-adv-x="417" 
d="M224 240q-37 -53 -53 -110q-6 -4 -9 -4q-4 0 -4 6q11 45 59 144q24 45 71.5 137t47.5 137q0 37 -24.5 63.5t-61.5 26.5q-51 0 -89 -60q-28 -44 -41 -106l-2 -2l-9 1l-1 2q12 74 48 124q44 63 111 63q51 0 90.5 -37.5t39.5 -88.5q0 -59 -68 -154q-36 -47 -105 -142z
M164 -2q-37 0 -37 36q0 16 10.5 26.5t26.5 10.5q15 0 25.5 -11t10.5 -26t-10.5 -25.5t-25.5 -10.5z" />
    <glyph glyph-name="at" unicode="@" horiz-adv-x="716" 
d="M450 91q-47 0 -47 70q0 24 7 55q-33 -64 -42 -77q-32 -44 -70 -41q-48 4 -78.5 43t-30.5 88q0 73 51 142q55 75 126 75q25 0 40 -13q21 -18 35 -67l18 61l58 8q-19 -54 -44 -136l-21 -69q-14 -46 -14 -68q0 -50 29 -50q60 0 107 82q41 71 41 130q0 105 -69.5 181
t-173.5 76q-128 0 -206 -98q-72 -90 -72 -222q0 -133 73 -222q78 -96 208 -96q139 0 220 143h26q-36 -75 -104 -122t-149 -47q-135 0 -228 110q-88 105 -88 243t92.5 238t229.5 100q115 0 198 -84.5t83 -199.5q0 -86 -59 -157q-62 -76 -146 -76zM366 423q-53 0 -90 -86
q-30 -69 -30 -126q0 -29 17 -58q20 -34 52 -34q28 0 70 101q40 93 40 131q0 29 -15.5 50.5t-43.5 21.5z" />
    <glyph glyph-name="A" unicode="A" horiz-adv-x="867" 
d="M888 550q-62 -164 -113 -312q63 -83 63 -179q0 -69 -11 -69t-42 29q-59 54 -59 147q0 38 12 82q-36 33 -89 70q-51 -82 -89 -127q41 -2 81 1l3 -2l1 -8l-3 -2q-35 -7 -96 -5q-155 -171 -318 -171q-62 0 -116 25q-68 31 -68 87q0 40 33 62q27 18 70 18q71 0 135 -39l1 -5
l-3 -6l-3 -1q-61 30 -103 30q-79 0 -79 -68q0 -44 49 -69q39 -19 88 -19q111 0 247 157q-145 17 -220 77q-54 43 -54 99q0 52 47 80q39 22 95 22q131 0 268 -89q62 102 132 186q109 130 175 130q9 0 9 -9t-43 -122zM783 546q-27 -41 -124 -213q50 -38 82 -65q77 275 141 375
q-44 -15 -99 -97zM770 213q-11 -45 -11 -85q0 -72 42 -105q15 36 15 74q0 62 -46 116zM375 435q-52 0 -89 -21q-45 -25 -45 -73q0 -72 94 -114q65 -28 155 -36q37 38 116 159q-130 85 -231 85z" />
    <glyph glyph-name="B" unicode="B" horiz-adv-x="866" 
d="M672 372q159 -3 159 -150q0 -97 -77 -181q-60 -65 -136 -65q-35 0 -56 20.5t-21 55.5q0 54 47 98q40 37 97 54l4 -1l1 -7l-1 -3q-43 -21 -73 -63t-30 -88q0 -21 11.5 -36t31.5 -15q40 0 81 53q64 83 64 189q0 109 -118 122q-109 -112 -163 -139l-1 1q38 133 155 151
q135 149 135 219q0 53 -58 53q-83 0 -207 -137q1 -122 -95 -315q-71 -142 -140 -190l-2 1q-3 12 -3 23q0 122 50 252.5t133 215.5q-7 83 -66 130q-55 44 -141 44q-81 0 -137 -38q-64 -44 -64 -122q0 -57 40 -88q37 -28 95 -28q66 0 150 42l5 -2l3 -7l-2 -5q-81 -48 -176 -48
q-69 0 -113 33q-50 37 -50 104q0 89 89 137q73 40 169 40q91 0 156 -33q78 -41 97 -121q161 156 250 156q33 0 54.5 -19t21.5 -52q0 -71 -169 -241zM329 149q0 -31 8 -57q119 121 127 378q-135 -138 -135 -321z" />
    <glyph glyph-name="C" unicode="C" horiz-adv-x="716" 
d="M834 232q-11 -23 -76 -110q-44 -58 -112 -92q-74 -37 -149 -37q-105 0 -159 71q-49 64 -49 172q0 49 13 106q-271 10 -271 152q0 77 84 115q64 28 151 28q101 0 197 -32q102 96 179 96q41 0 65 -24.5t24 -65.5q0 -95 -117 -179q5 -146 -178 -209l-3 2l-2 7l2 3
q166 63 164 187q-99 -60 -228 -79q-16 -58 -16 -124q0 -90 43 -144q47 -59 134 -59q95 0 178 76q57 52 121 157q0 -5 3 -11zM633 685q-65 0 -138 -91q92 -46 115 -126q83 82 83 151q0 29 -16 47.5t-44 18.5zM486 581q-66 -94 -111 -220q130 20 223 92q-18 84 -112 128z
M283 620q-76 0 -133 -29q-71 -36 -71 -105q0 -73 83 -105q57 -22 144 -23q43 132 145 235q-76 27 -168 27z" />
    <glyph glyph-name="D" unicode="D" horiz-adv-x="795" 
d="M696 72q-45 -48 -80 -61q-24 -9 -78 -9q-75 0 -188 56q-62 -56 -165 -56q-82 0 -135 27v4q53 70 162 70q56 0 118 -20q17 19 48 90q-132 30 -218 91q-113 80 -113 194q0 93 75 149q68 51 164 51q111 0 240 -65q76 106 187 115l3 -2v-7l-4 -4q-101 -24 -146 -125
q194 -154 194 -327q0 -101 -64 -171zM561 552q-21 -53 -38 -117q85 -68 85 -145q0 -62 -43 -95q-39 -30 -103 -30q-7 0 -35 2q-25 -44 -64 -96q74 -34 135 -34q101 0 159 65t58 167q0 84 -43 160q-40 71 -111 123zM516 418q-42 -162 -81 -235q27 -2 35 -2q54 0 88.5 28.5
t34.5 80.5q0 71 -77 128zM305 638q-91 0 -147.5 -54.5t-56.5 -145.5q0 -99 96 -169q73 -54 187 -82q29 64 85 264q-81 40 -157 40q-58 0 -110 -23l-4 1l-2 7l1 4q53 28 121 28q75 0 157 -42q20 66 42 112q-111 60 -212 60zM234 83q-77 0 -124 -54q31 -14 64 -14q86 0 142 55
q-41 13 -82 13z" />
    <glyph glyph-name="E" unicode="E" horiz-adv-x="691" 
d="M480 443q37 -33 104 -47l2 -4v-8l-2 -2q-115 -17 -199 -74q-105 -71 -105 -174q0 -63 44 -96q39 -29 104 -29q67 0 123 34q66 39 66 102q0 34 -22.5 53t-57.5 19q-62 0 -163 -79h-2l-4 6l1 4q116 98 203 98q39 0 67.5 -21.5t28.5 -59.5q0 -75 -98 -129q-84 -46 -166 -46
q-78 0 -130 34q-61 40 -61 114q0 107 122 178q89 52 217 74q-78 7 -124 39q-107 -31 -195 -31q-86 0 -146 28q-80 37 -80 113q0 71 72 108q57 30 135 30q80 0 175 -29l2 -3l-1 -6l-4 -1q-87 25 -158 25q-70 0 -113 -29q-51 -34 -51 -100q0 -121 181 -121q79 0 174 28
q-32 30 -32 76q0 70 86 125q64 41 154 41q93 0 93 -66q0 -93 -240 -174zM612 669q-64 0 -114 -43q-51 -46 -51 -109q0 -38 24 -63q205 67 205 154q0 61 -64 61z" />
    <glyph glyph-name="F" unicode="F" horiz-adv-x="513" 
d="M570 662l-10 -11q-13 -15 -25 -18q-7 -2 -30 -2q-47 0 -142 7.5t-142 7.5q-69 0 -114 -31q-52 -35 -52 -101q0 -51 32 -82t83 -31q61 0 140 48h4l4 -8l-3 -6q-73 -48 -145 -48q-59 0 -94 35t-35 94q0 95 94 140q70 33 177 33q35 0 105.5 -3t105.5 -3q39 0 69 15q3 0 3 -4
t-25 -32zM455 292q-48 -174 -162 -257q-49 -36 -86 -36q-26 0 -42 16t-16 42q0 69 111 156l4 1l4 -5l-2 -4q-80 -71 -80 -109q0 -51 60 -51q116 0 161 249q-53 2 -67 3q-41 4 -67 11l2 6q70 0 138 3q18 91 29 140q26 116 41 123q19 12 53 27q1 -1 -2 -7.5t-3 -7.5
q0 -7 -68 -269q27 3 78 8h1q0 -40 -69 -40q-10 0 -18 1z" />
    <glyph glyph-name="G" unicode="G" horiz-adv-x="885" 
d="M733 370q-105 -79 -186 -111q-54 -21 -176 -47q-5 -23 -5 -57q0 -59 30 -95t88 -36q136 0 356 247h1q-26 -241 -76 -369q-34 -87 -108 -152q-26 -23 -39 -23q-12 0 -12 40q0 90 65 178l2 1l5 -3v-4q-36 -64 -36 -110q0 -29 13 -59q49 29 76 133q21 81 45 280
q-193 -182 -322 -182q-77 0 -117 64q-35 56 -30 136q-47 -7 -90 -7q-82 0 -140 32q-72 39 -72 115q0 75 70 113q57 32 138 32q84 0 201 -35q70 92 161 154q108 74 206 74q104 0 104 -95q0 -101 -152 -214zM757 658q-70 0 -162 -85q-65 -59 -124 -142q37 -14 72 -30l2 -6
l-4 -7h-3q-32 15 -78 30q-57 -82 -85 -190q268 57 398 216q58 71 58 135q0 79 -74 79zM246 464q-74 0 -127 -28q-65 -36 -65 -104q0 -64 56 -97q46 -26 115 -26q34 0 84 7q14 102 94 222q-92 26 -157 26z" />
    <glyph glyph-name="H" unicode="H" horiz-adv-x="850" 
d="M981 233q-28 -48 -66 -102q-96 -136 -181 -136q-59 0 -91 55q-25 45 -25 109q0 88 38 190q-82 -27 -138 -37q-61 -173 -178 -256q-81 -58 -134 -58q-9 0 -9 5q0 37 62 124q89 126 204 188q12 62 12 116q0 221 -202 221q-84 0 -145 -41q-71 -47 -71 -127q0 -91 83 -135
q65 -35 164 -35l4 -3v-9l-2 -4q-116 0 -195 37q-106 50 -106 153q0 92 89 142q73 40 173 40q121 0 192 -57q78 -62 78 -180q0 -46 -14 -104q81 15 144 44q72 147 161 244q67 73 91 73q6 0 6 -10q0 -21 -16 -67q-56 -161 -186 -231q-53 -168 -53 -263q0 -103 73 -103
q86 0 238 240v-23zM729 406q132 72 127 213q-80 -69 -127 -213zM268 38q114 18 190 255q-142 -71 -190 -255z" />
    <glyph glyph-name="I" unicode="I" horiz-adv-x="572" 
d="M552 266q-38 -112 -99 -182q-111 -128 -234 -128q-93 0 -93 73q0 43 39 76q35 28 81 36l2 -2l1 -5l-1 -4q-77 -27 -77 -83q0 -32 23 -50t56 -18q96 0 170 106q100 142 100 350q0 66 -19 118q-35 -79 -104 -125t-155 -46q-15 0 -25 1q-45 -63 -79 -138l-4 -2l-6 3l-1 4
q22 62 74 137q-59 7 -101 39q-48 37 -48 93q0 83 100 127q78 35 171 35q118 0 188 -61q74 -64 74 -180q0 -78 -33 -174zM309 664q-76 0 -136 -32q-73 -39 -73 -109q0 -90 114 -118q147 160 286 149q-46 110 -191 110zM233 403q75 -5 130 26q59 34 83 102q-105 -13 -213 -128
z" />
    <glyph glyph-name="J" unicode="J" horiz-adv-x="523" 
d="M502 571q34 -57 34 -142q0 -82 -33 -183q-49 -150 -159 -304q-130 -183 -253 -218l-2 3q3 147 191 280h3l3 -5l-1 -4q-139 -112 -139 -207q0 -8 1 -16q96 48 182 187q70 113 109 242.5t39 248.5q0 39 -11 85q-113 -103 -258 -123q-52 -78 -72 -165l-2 -3l-7 1l-2 5
q13 77 63 160q-66 -2 -110 18q-56 27 -56 87q0 79 90 125q72 37 159 37q133 0 200 -68q44 17 60 17q7 0 15 -3l2 -4q-7 -17 -46 -51zM220 436q175 23 246 152q-161 -35 -246 -152zM270 664q-76 0 -132 -30q-69 -37 -69 -107q0 -100 130 -95q77 113 239 169q-54 63 -168 63z
" />
    <glyph glyph-name="K" unicode="K" horiz-adv-x="783" 
d="M835 136q-97 -135 -155 -135q-33 0 -57 30q-17 22 -46 88l-38 94q-33 79 -67 79q-21 0 -67 -30v0q4 45 69 131q47 63 99 115q86 86 172 139q63 39 77 39q5 0 5 -9q0 -41 -13 -63q-4 -7 -50 -25q-211 -83 -330 -288q40 22 62 22q57 0 97 -99q13 -38 41 -112q33 -83 69 -83
q55 0 202 239q3 -4 3 -9q0 -22 -73 -123zM296 125q-79 -107 -171 -137l-1 1q25 183 242 389q26 129 26 170q0 126 -167 126q-70 0 -117 -24q-62 -31 -62 -94q0 -48 38 -72q32 -21 83 -21q38 0 95 12l5 -2l2 -8l-3 -3q-57 -17 -113 -17q-60 0 -101 25q-49 29 -49 85
q0 71 79 107q60 27 141 27q227 0 227 -175q0 -79 -52 -203q-47 -112 -102 -186zM189 41q123 67 173 310q-150 -124 -173 -310z" />
    <glyph glyph-name="L" unicode="L" horiz-adv-x="844" 
d="M536 314q-47 -148 -109 -233q150 -63 281 -63q90 0 90 54q0 32 -28 49q-23 14 -57 14q-42 0 -78 -18l-3 1l-2 5l2 4q36 22 82 22q42 0 69.5 -21t27.5 -61q0 -49 -39 -74q-33 -22 -85 -22q-101 0 -272 95q-60 -60 -143 -60q-78 0 -145 48v2q77 56 167 56q55 0 109 -22
q22 30 72 206q-96 -23 -195 -23q-106 0 -174 26q-100 39 -100 128t97 132q71 31 174 31q92 0 180 -17l3 -4l-1 -7l-3 -3q-109 17 -173 17q-88 0 -151 -31q-82 -39 -82 -118q0 -78 91 -113q63 -25 156 -25q77 0 184 25q33 144 82 237q77 146 184 146q85 0 85 -88
q0 -92 -107 -182q-80 -67 -189 -113zM755 683q-124 0 -214 -350q74 25 146 93q42 39 77 89q46 65 46 105q0 63 -55 63zM316 97q-55 0 -109 -61q23 -16 56 -16q85 0 131 55q-38 22 -78 22z" />
    <glyph glyph-name="M" unicode="M" horiz-adv-x="920" 
d="M1000 167q-65 -100 -99 -135q-45 -47 -81 -47q-41 0 -63 35q-19 30 -19 73q0 78 75 302q10 28 29 85q21 64 21 83q0 26 -18 26q-40 0 -132 -145q-56 -88 -104.5 -182t-96.5 -234q-4 -11 -7 -15q-4 -7 -13 -8l-32 -3q-10 -1 -11 3q-1 5 2 17l119 443q22 82 22 108
q0 24 -23 24q-34 0 -108 -108q-46 -66 -85 -138q-99 -181 -132 -320q-7 -21 -22 -23l-33 -4q-9 -1 -10 5q-1 4 3 18l119 430q13 47 13 80q0 53 -29 84.5t-81 31.5q-63 0 -105.5 -40t-42.5 -103q0 -41 22 -68q24 -30 64 -30q22 0 52 11l3 -1l1 -4l-1 -3q-35 -18 -74 -18
q-48 0 -76.5 27t-28.5 75q0 61 49 108q61 59 140 59q65 0 109.5 -41.5t44.5 -105.5q0 -54 -33 -167l-41 -141l5 -2q198 418 302 418q48 0 48 -66q0 -14 -15 -75l-78 -318q67 142 135 254q120 198 184 198q21 0 33.5 -17t12.5 -39q0 -28 -58 -205q-70 -213 -70 -280
q0 -73 46 -73q57 0 205 247q3 -8 2 -20q-17 -33 -39 -66z" />
    <glyph glyph-name="N" unicode="N" horiz-adv-x="875" 
d="M1001 236q-14 -34 -46 -82q-64 -97 -100 -130q-45 -42 -97 -42q-39 0 -65 33q-23 30 -23 70q0 61 24 140q15 45 44 137q60 192 60 227q0 37 -35 37q-73 0 -230 -282q-94 -169 -122 -264q-3 -14 -11 -41t-24 -29l-33 -5q-8 5 -6 14l102 418q13 53 13 87q0 139 -167 139
q-85 0 -147 -35q-74 -43 -74 -122q0 -56 43 -87q38 -28 96 -28q57 0 123 32l4 -1l2 -5l-2 -6q-63 -38 -141 -38q-67 0 -113 33q-53 38 -53 102q0 87 90 133q71 36 167 36q95 0 153 -32q74 -40 74 -127q0 -55 -33 -178l-41 -153q95 183 145 262q126 200 201 200
q34 0 53.5 -20.5t19.5 -54.5q0 -32 -34 -137q-16 -47 -46 -140q-52 -164 -52 -225q0 -29 12 -49q15 -24 42 -24q72 0 229 258q0 -9 -2 -21z" />
    <glyph glyph-name="O" unicode="O" horiz-adv-x="739" 
d="M779 154q-62 -79 -116 -116q-57 -39 -118 -39q-38 0 -74 18q-44 -20 -89 -20q-93 0 -151 65q-54 61 -58 156q-160 62 -160 173q0 82 80 126q65 35 154 35q24 0 55 -3q126 145 258 145q58 0 94.5 -33t36.5 -91q0 -16 -4 -36q35 -41 35 -119q0 -109 -68 -221t-164 -168
q28 -14 57 -14q78 0 167 88q48 48 123 153q2 -5 -3 -21q-23 -37 -55 -78zM623 552q-68 0 -138 -126q-50 -90 -75 -184q97 38 166 113.5t96 175.5q-19 21 -49 21zM560 678q-106 0 -200 -134q39 -10 54 -16l2 -3l-2 -5l-3 -1q-21 4 -60 10q-93 -137 -122 -306q34 -8 58 -8
q31 0 72 8q14 114 77 209q90 136 176 136q29 0 64 -22q2 21 2 24q0 49 -34 78.5t-84 29.5zM684 520q-69 -215 -277 -295q-4 -32 -4 -56q0 -95 70 -136q75 39 131 126q95 147 95 303q0 31 -15 58zM247 535q-80 0 -133 -36q-62 -41 -62 -117q0 -97 120 -144q20 163 117 294
q-31 3 -42 3zM358 209q-30 -7 -79 -7q-30 0 -52 5q-5 -84 35 -138q44 -59 126 -59q31 0 67 16q-97 60 -97 183z" />
    <glyph glyph-name="P" unicode="P" horiz-adv-x="662" 
d="M432 199q-79 -210 -233 -210q-44 0 -83 21q-46 26 -46 66q0 36 41 54q30 13 72 13q12 0 26 -1l2 -2v-5l-3 -3q-93 -5 -93 -64q0 -32 30 -51q25 -17 59 -17q68 0 115 71q27 41 58 132q-34 5 -68 14l-1 3l2 6l3 1q37 -7 70 -8q13 35 24 76q-66 -10 -118 -10q-104 0 -177 37
q-94 47 -94 141q0 56 45 108q93 108 296 108q112 0 208 -32q11 9 29 18l7 -2l5 -4l-1 -3q-9 -8 -18 -18q131 -66 131 -188q0 -117 -88 -185q-79 -62 -200 -66zM574 621q-32 -41 -46 -92q75 -37 75 -100q0 -85 -134 -120q-9 -29 -30 -93q105 2 171.5 62.5t66.5 163.5
q0 116 -103 179zM522 512l-48 -182q41 12 68 39q31 31 31 70q0 50 -51 73zM363 662q-107 0 -190 -44q-101 -55 -101 -154q0 -84 76 -127q61 -35 152 -35q53 0 111 12q48 167 71 214q-40 8 -74 8q-97 0 -188 -42l-5 2l-1 6l3 5q89 44 196 44q27 0 76 -7q21 38 60 86
q-73 32 -186 32z" />
    <glyph glyph-name="Q" unicode="Q" horiz-adv-x="742" 
d="M872 -225q-46 -39 -95 -39t-85.5 41t-65.5 117q-26 70 -60 144q-66 -41 -125 -41q-95 0 -151 77q-51 68 -51 167q0 29 4 67q-83 4 -138 29q-78 35 -78 105q0 74 85 107q59 23 146 23q47 0 113 -10q131 129 236 129q101 0 101 -91q0 -21 -13 -54q78 -38 78 -149
q0 -174 -173 -330q18 -35 44 -104q27 -73 43 -105q27 -54 47 -76q26 -28 61 -28q26 0 71 30h3l3 -5v-4zM475 368q120 45 196 167q-8 1 -15 1q-94 0 -181 -168zM614 675q-106 0 -196 -127q-61 -87 -107 -220q65 6 121 25q97 200 223 200q7 0 27 -3q11 32 11 50q0 35 -22 55
t-57 20zM687 531q-79 -127 -220 -183q-55 -135 -55 -229q0 -29 10 -60q39 66 88 66q42 0 78 -44q62 70 101 161q42 97 42 184q0 83 -44 105zM261 557q-68 0 -121 -23q-71 -31 -71 -90q0 -61 62 -93q50 -26 117 -26q31 121 112 223q-61 9 -99 9zM495 97q-38 0 -66 -46l-3 -3
l-7 -2l-4 2q-25 31 -25 125q0 74 34 163q-72 -19 -117 -24q-13 -57 -13 -102q0 -80 35 -135q41 -64 117 -64q55 0 109 44q-27 42 -60 42z" />
    <glyph glyph-name="R" unicode="R" horiz-adv-x="885" 
d="M1024 176q-63 -89 -104 -130q-46 -45 -83 -45q-33 0 -53 25q-14 17 -26 55q-4 12 -18 59q-35 114 -58 138l-61 -23q-21 -8 -30 -9v1l12 31q13 34 65 34q14 0 33 -5q69 44 118 100q65 73 65 136q0 32 -21 51.5t-53 19.5q-67 0 -188 -121q2 -105 -103 -316
q-60 -120 -126 -183h-3q-8 10 -8 56q0 215 191 421q-12 98 -76.5 150t-164.5 52q-80 0 -138 -37q-67 -43 -67 -119q0 -60 41 -95q38 -32 100 -32q99 0 233 77l4 -1l2 -4l-1 -6q-136 -85 -264 -85q-70 0 -115 34q-50 37 -50 105q0 92 89 140q71 39 171 39q103 0 178 -38
q93 -47 105 -139q152 143 235 143q37 0 58.5 -21.5t21.5 -58.5q0 -123 -221 -277q47 -45 78 -159q6 -23 24 -82q15 -33 40 -33q32 0 121 115q31 41 84 117v-20q-15 -28 -37 -60zM430 130q0 -31 7 -61q119 154 134 379q-141 -143 -141 -318z" />
    <glyph glyph-name="S" unicode="S" horiz-adv-x="523" 
d="M431 522q-13 0 -30 2l-3 2v6l2 4q50 0 84 15q46 21 46 65q0 62 -84 62q-58 0 -103 -35q-49 -38 -49 -94q0 -54 61 -122l80 -89q57 -63 57 -131q0 -71 -62 -130q-85 -80 -211 -80q-67 0 -113 23q-60 30 -60 91q0 132 268 128l4 -3l1 -8l-3 -4q-209 0 -209 -122
q0 -46 41 -70q33 -20 82 -20q79 0 141 46q68 51 68 127q0 62 -56 123l-77 84q-65 71 -65 135q0 78 76 127q67 42 149 42q47 0 77 -16q40 -21 40 -63q0 -48 -55 -74q-43 -21 -97 -21z" />
    <glyph glyph-name="T" unicode="T" horiz-adv-x="666" 
d="M738 646q-103 -80 -244 -80q-69 0 -200 37q-31 9 -92 27q-64 18 -92 18q-41 0 -64.5 -28.5t-23.5 -70.5q0 -76 78 -113q59 -29 144 -29q30 0 76 5q15 25 31 50q20 30 39 41l77 44q-30 -40 -85 -124q71 10 142 33l3 -1l2 -9l-3 -4q-57 -23 -156 -39q-79 -147 -79 -260
q0 -64 30 -106q33 -47 95 -47q77 0 139 81q50 66 50 140q0 69 -51 69q-50 0 -95 -52q-35 -42 -56 -98l-3 -2l-5 1l-2 4q18 60 57 105q47 54 102 54q40 0 61 -28t21 -69q0 -97 -92 -174q-54 -45 -125 -45q-81 0 -129 62q-43 56 -43 140q0 108 67 218q-41 -4 -69 -4
q-92 0 -156 32q-81 41 -81 125q0 65 43 105t109 40q48 0 178 -39q169 -51 232 -51q78 0 162 53h4l4 -5v-6z" />
    <glyph glyph-name="U" unicode="U" horiz-adv-x="885" 
d="M975 151q-114 -157 -177 -157q-69 0 -69 105q0 36 13 106q-141 -207 -266 -207q-37 0 -59.5 21.5t-22.5 58.5q0 32 18 92l77 257q17 57 17 92q0 81 -67 124q-57 36 -143 36q-77 0 -128 -30q-63 -36 -63 -108t69 -109q55 -31 133 -31q23 0 48 3l3 -2l1 -6l-2 -5
q-25 -4 -64 -4q-92 0 -157 37q-81 45 -81 130q0 77 67 116q56 32 138 32q126 0 219 -60q83 -53 83 -135q0 -31 -30 -129l-70 -228q-13 -42 -13 -72q0 -24 18.5 -39.5t43.5 -15.5q96 0 239 220q80 335 178 427h3q2 -9 2 -17q0 -56 -28 -143q-35 -108 -97 -209
q-35 -143 -35 -205q0 -79 43 -79q51 0 211 241q2 -9 -1 -25q-27 -49 -51 -82z" />
    <glyph glyph-name="V" unicode="V" horiz-adv-x="701" 
d="M804 586q-33 -148 -98 -268q-107 -198 -265 -342l-4 3l37 464q2 25 2 61q0 167 -205 167q-82 0 -136 -33q-66 -40 -66 -116q0 -70 63 -106q51 -28 127 -28q24 0 64 6l4 -1l1 -9l-2 -4q-37 -8 -80 -8q-90 0 -150 33q-75 41 -75 124q0 84 81 125q63 32 156 32
q128 0 194 -45q77 -53 77 -175q0 -45 -4 -91l-15 -171q-2 -22 -18 -157q274 296 260 602l60 53l4 -1q2 -10 2 -19q0 -34 -14 -96z" />
    <glyph glyph-name="W" unicode="W" horiz-adv-x="869" 
d="M869 342q-103 -229 -222 -353h-4q-25 80 -25 224q0 127 8 261q-131 -341 -295 -483l-3 2q-4 21 -4 32q0 84 21.5 250.5t21.5 249.5q0 140 -133 140q-64 0 -111 -36q-52 -40 -52 -102q0 -55 42 -86q37 -28 94 -28q16 0 39 3l2 -2l1 -8l-3 -3q-22 -6 -46 -6q-74 0 -121 33
q-53 37 -53 108q0 75 60 113q50 31 130 31q209 0 209 -161q0 -46 -18 -184q-21 -163 -26 -273q148 168 251 463l2 48q2 41 11 44l40 13q9 2 9 -11q0 61 -7 -23q-6 -76 -13 -200q-7 -128 -7 -173q0 -109 14 -172q208 260 208 533q0 7 -1 22t-1 22q0 11 14 21l37 27q3 2 6 2
q10 0 10 -28q0 -121 -85 -310z" />
    <glyph glyph-name="X" unicode="X" horiz-adv-x="876" 
d="M984 238q-22 -39 -42 -68q-56 -81 -97 -118q-66 -59 -137 -59q-82 0 -124 73q-35 60 -35 148q0 165 85 316q102 182 204 182q39 0 60.5 -28t21.5 -68q0 -119 -183 -271h-5l-3 4v5q56 60 98 133q51 89 51 154q0 53 -40 53q-60 0 -121 -91q-50 -75 -82 -184
q-38 -130 -38 -229q0 -69 26 -116q33 -57 97 -57q74 0 156 92q41 45 110 153q2 -9 -2 -24zM470 149q-100 -155 -242 -155q-76 0 -122 36l-1 6l3 5l3 1q59 -32 112 -32q158 0 235 212q30 85 30 170q0 120 -65 195q-68 79 -186 79q-73 0 -128 -34q-63 -41 -63 -110
q0 -55 39 -87q36 -29 93 -29q72 0 181 52l4 -2l2 -5l-1 -6q-111 -60 -207 -60q-68 0 -112 32q-49 35 -49 101q0 85 82 129q67 36 159 36q141 0 224 -75q85 -78 85 -218q0 -124 -76 -241z" />
    <glyph glyph-name="Y" unicode="Y" horiz-adv-x="875" 
d="M831 273q-58 -277 -121 -395q-74 -137 -199 -157l-3 2q-6 15 -6 35q0 85 89 155h5l4 -4l-1 -4q-55 -50 -55 -113q0 -22 6 -42q85 23 136 148q26 66 53 205l83 430q-137 -281 -214 -391q-90 -130 -164 -130q-43 0 -65 30q-20 27 -20 71q0 30 14 79l69 240q12 42 12 73
q0 75 -60 116q-52 35 -131 35q-69 0 -123 -32q-65 -38 -65 -103q0 -57 49 -88q42 -27 102 -27q39 0 78 14l5 -1l1 -7l-1 -5q-52 -21 -109 -21q-71 0 -119 32q-56 37 -56 105q0 81 80 121q61 30 151 30q97 0 168 -41q87 -49 87 -139q0 -29 -20 -98l-53 -183q-21 -73 -21 -113
q0 -61 47 -61q88 0 237 287l70 135q40 80 62 138q8 22 20 25l43 10q5 1 7 -2t0 -12z" />
    <glyph glyph-name="Z" unicode="Z" horiz-adv-x="771" 
d="M645 -28q-66 0 -167 83q-49 43 -147 128q-155 -144 -270 -183h-4l-4 2v4q18 100 67 167q61 83 152 83q40 0 87 -23q134 158 301 456l-90 -65q-100 -1 -208 5l-134 7q-143 0 -143 -116q0 -52 30.5 -85t82.5 -33q62 0 138 61l5 1l4 -6l-1 -5q-78 -65 -150 -65q-60 0 -95 40
q-33 37 -33 98q0 86 66 130q56 38 147 38q40 0 121 -5.5t121 -5.5q129 0 170 53l3 1l7 -4l1 -3q-139 -263 -330 -507q40 -28 121 -106q65 -64 97 -87q45 -33 79 -33t53 22.5t19 57.5q0 68 -61 114q-49 36 -125 51l-3 5l2 5l4 2q213 -31 213 -160q0 -52 -37 -87t-89 -35z
M238 219q-135 0 -135 -182q111 52 213 157q-36 25 -78 25z" />
    <glyph glyph-name="bracketleft" unicode="[" horiz-adv-x="386" 
d="M456 690h-88l-249 -833h79l-3 -18h-139l267 872h140z" />
    <glyph glyph-name="backslash" unicode="\" horiz-adv-x="279" 
d="M-73 6l2 2q22 22 55 63q69 85 121 179q-8 10 -8 30q0 24 14.5 45t37.5 25v-1q-11 -21 -11 -31q0 -27 29 -27q26 0 107 34l1 -1q-100 -230 -100 -265q0 -31 26 -31t75 63q37 47 124 179q3 -21 -25 -64q-6 -9 -23 -33q-69 -102 -96 -132q-41 -45 -77 -45q-56 0 -56 59
q0 71 100 232q-65 -45 -94 -45q-7 0 -15 3q-9 -28 -48 -84q-71 -102 -124 -163z" />
    <glyph glyph-name="bracketright" unicode="]" horiz-adv-x="334" 
d="M-87 -140h88l249 833h-79l3 18h139l-267 -872h-140z" />
    <glyph glyph-name="asciicircum" unicode="^" horiz-adv-x="479" 
d="M392 385l-71 79l-136 -80l-10 10l137 115h30l61 -117z" />
    <glyph glyph-name="underscore" unicode="_" horiz-adv-x="475" 
d="M28 -213v33h474v-33h-474z" />
    <glyph glyph-name="grave" unicode="`" horiz-adv-x="345" 
d="M296 378l-88 58q-15 10 -19 24q-6 21 17 28q14 4 32 -18l65 -82z" />
    <glyph glyph-name="a" unicode="a" horiz-adv-x="345" 
d="M418 182q-44 -69 -62 -94q-47 -65 -78 -81q-14 -7 -26 -7q-38 0 -38 46q0 24 24 107l-5 2q-74 -154 -125 -154q-64 0 -64 100q0 92 80 177q53 57 118 57q57 0 73 -24q0 -5 -18 -77l-37 -148q-5 -20 -5 -34q0 -22 18 -22q44 0 173 218v-14q-16 -33 -28 -52zM238 318
q-40 0 -86 -76q-61 -101 -61 -169q0 -45 28 -45q39 0 97 120q32 68 62 153q-16 17 -40 17z" />
    <glyph glyph-name="b" unicode="b" horiz-adv-x="343" 
d="M454 233q-11 -21 -23 -40q-86 -138 -131 -138q-24 0 -42 25q-52 -79 -109 -79q-47 0 -71 43q-18 34 -18 86q0 157 124 396q60 115 111 156h3q8 -12 8 -47q0 -133 -54 -256q-42 -99 -137 -225l-1 -32q0 -95 54 -95q45 0 84 72q-13 25 -13 64q0 103 57 166h1q12 -21 12 -50
q0 -103 -40 -179q13 -31 32 -31q43 0 156 184q0 -7 -3 -20zM252 606q-85 -117 -135 -419q145 185 145 348q0 35 -10 71z" />
    <glyph glyph-name="c" unicode="c" horiz-adv-x="318" 
d="M396 189q-124 -195 -254 -195q-50 0 -79.5 34.5t-29.5 85.5q0 75 57 146q65 81 135 81q30 0 50.5 -16t20.5 -46q0 -24 -15.5 -40.5t-39.5 -16.5q-15 0 -23 11q32 21 32 53q0 38 -31 38q-36 0 -70 -49q-25 -36 -40 -81q-17 -50 -17 -89q0 -87 74 -87q121 0 254 228
q0 -6 -1 -14q-7 -19 -23 -43z" />
    <glyph glyph-name="d" unicode="d" horiz-adv-x="352" 
d="M457 233q-8 -16 -50 -78q-58 -86 -87 -116q-38 -40 -71 -40q-41 0 -41 43q0 32 20 98l-4 2q-73 -142 -129 -142q-37 0 -57 31q-16 26 -16 66q0 92 72 172q64 71 128 71q20 0 50 -14l65 277q1 5 4 15q3 4 10 5l34 5q7 1 7 -4q1 -4 -1 -12l-128 -518q-7 -28 -7 -39
q0 -29 17 -29q38 0 185 224v-7l-1 -7v-3zM228 322q-31 0 -74 -57q-79 -105 -79 -190q0 -49 34 -49q45 0 99 117q35 76 57 155q-15 24 -37 24z" />
    <glyph glyph-name="e" unicode="e" horiz-adv-x="316" 
d="M380 171q-118 -177 -242 -177q-50 0 -78 36q-25 32 -25 84q0 73 54 147q58 80 129 80q30 0 50.5 -18t20.5 -47q0 -58 -74 -110q-54 -39 -125 -62q0 -87 70 -87q127 0 256 234q1 -7 0 -19q-18 -34 -36 -61zM209 322q-48 0 -84 -80q-26 -57 -35 -120q61 15 103 56
q48 46 48 105q0 39 -32 39z" />
    <glyph glyph-name="f" unicode="f" horiz-adv-x="238" 
d="M327 181q-41 -61 -73 -89q-48 -43 -103 -43q-33 0 -66 23q30 -96 30 -152q0 -131 -87 -196h-3q-11 18 -11 103q0 91 40 257q-50 28 -50 36q0 4 4 8l13 20q2 4 5 5q5 0 9 -4l28 -18q92 450 182 556h1q17 -25 17 -106q0 -202 -136 -358q-8 -65 -25 -120q32 -26 70 -26
q56 0 111 64q25 30 75 112q0 -8 -1 -19q-9 -22 -30 -53zM215 610q-25 -66 -45 -173l-35 -179q99 115 99 246q0 51 -19 106zM83 23q-60 -164 -52 -253q69 57 69 156q0 42 -17 97z" />
    <glyph glyph-name="g" unicode="g" horiz-adv-x="358" 
d="M438 191q-119 -167 -204 -229q-38 -183 -168 -242l-3 1q-5 11 -5 28q0 118 131 209q5 69 48 196l-4 2q-79 -155 -144 -155q-34 0 -53 33q-15 27 -15 64q0 86 69 161.5t154 75.5q79 0 79 -26q0 -9 -31 -124l-54 -201q101 76 230 268q0 -7 -1 -18q-17 -26 -29 -43zM240 319
q-39 0 -90 -66q-78 -101 -78 -178q0 -46 33 -46q44 0 106 117q36 69 68 154q-15 19 -39 19zM94 -211q0 -4 4 -32q75 43 92 181q-96 -64 -96 -149z" />
    <glyph glyph-name="h" unicode="h" horiz-adv-x="404" 
d="M443 141q-104 -139 -149 -139q-48 0 -48 58q0 24 31 120l21 65q8 25 8 39q0 22 -18 22q-43 0 -132 -149q-1 -2 -40 -76q-34 -65 -40 -67l-34 -8q-7 -1 -8 4q0 5 3 17l51 206q32 130 76 242q66 168 130 209h2q19 -25 19 -71q0 -144 -163 -334l-42 -167q138 226 199 226
q22 0 35.5 -16t13.5 -38q0 -14 -21 -82l-30 -97q-10 -32 -10 -48q0 -20 21 -20q54 0 189 214v-19q-24 -37 -64 -91zM259 627q-50 -64 -98 -313q110 126 110 249q0 38 -12 64z" />
    <glyph glyph-name="i" unicode="i" horiz-adv-x="204" 
d="M180 424q-12 0 -31 8.5t-19 19.5q0 6 9 25.5t13 19.5q6 0 40 -23q4 -3 4 -9q0 -41 -16 -41zM265 162q-110 -160 -183 -160q-50 0 -50 57q0 18 13 62l57 193q4 13 16 16l33 7q4 1 6 -1q2 -3 0 -9l-61 -207q-15 -51 -15 -64q0 -31 25 -31q63 0 204 223q0 -7 -1 -17
q-16 -28 -44 -69z" />
    <glyph glyph-name="j" unicode="j" horiz-adv-x="199" 
d="M187 421q-12 0 -30 8q-21 9 -21 20q0 6 9.5 26t12.5 20q4 0 11 -6l7 -5q10 -5 22 -13q4 -3 4 -8q0 -42 -15 -42zM-6 -273q-10 23 -10 64q0 149 50 213q4 53 21 121l47 188q1 6 6 14q2 3 7 4l35 7q9 2 9 -8q-1 -2 -2 -6l-99 -364q98 69 254 291q0 -7 -1 -17
q-20 -33 -45 -67q-132 -176 -212 -230l-40 -149q-12 -45 -20 -61z" />
    <glyph glyph-name="k" unicode="k" horiz-adv-x="417" 
d="M482 184q-119 -179 -183 -179q-32 0 -62 49q-34 56 -34 82q0 9 16 17q115 55 115 110q0 37 -37 37q-58 0 -156 -171q-15 -26 -47 -102q-5 -12 -20 -16l-31 -8q-6 -1 -7 2q-3 4 0 14l80 310q75 290 180 357h3q18 -18 18 -67q0 -149 -161 -338l-43 -173q130 233 218 233
q24 0 39.5 -15.5t15.5 -39.5q0 -66 -139 -135q30 -110 73 -110q59 0 192 209q0 -7 -1 -16q-9 -20 -29 -50zM263 634q-31 -31 -53 -110q-12 -42 -46 -208q112 129 112 237q0 41 -13 81z" />
    <glyph glyph-name="l" unicode="l" horiz-adv-x="251" 
d="M370 231q-21 -38 -51 -84q-98 -148 -176 -148q-79 0 -79 118q0 58 31 199q25 113 79 234q47 106 86 136h4q14 -16 14 -69q0 -206 -151 -416q-10 -51 -10 -83q0 -87 47 -87q72 0 207 217q0 -7 -1 -17zM225 611q-74 -157 -95 -381q104 149 104 283q0 37 -9 98z" />
    <glyph glyph-name="m" unicode="m" horiz-adv-x="592" 
d="M647 157q-63 -92 -93 -121q-39 -38 -78 -38q-20 0 -32.5 15.5t-12.5 35.5q0 32 29 127l32 107q0 21 -21 21q-43 0 -143 -184q-10 -21 -29 -61q-25 -52 -33 -53l-32 -6q-7 -1 -8 2q0 5 2 13l59 236q7 28 7 35q0 20 -18 20q-40 0 -133 -174q-16 -29 -43 -92
q-13 -31 -19 -32l-39 -8q-5 -1 -6 3t2 14l82 294q3 12 12 14l36 8q5 1 7 -2t1 -8l-63 -223q51 99 77 138q64 99 111 99q45 0 45 -44q0 -30 -46 -193q131 235 197 235q44 0 44 -53q0 -23 -16 -75q-13 -39 -25 -77q-17 -56 -17 -73q0 -25 23 -25q45 0 186 219q0 -7 -1 -16
q-20 -43 -44 -78z" />
    <glyph glyph-name="n" unicode="n" horiz-adv-x="404" 
d="M505 229q-25 -44 -62 -96q-94 -134 -149 -134q-23 0 -36.5 17t-13.5 41q0 18 39 147q22 73 22 81q0 17 -17 17q-36 0 -129 -142q-51 -78 -69 -131q-4 -11 -7 -15t-12 -6l-33 -7q-6 -1 -8 1q-2 4 0 13q0 2 1 4l80 284q6 21 19 24l31 8q7 2 9 0t2 -4q0 -3 -2 -6l-66 -231
q144 243 208 243q21 0 34 -15.5t13 -36.5q0 -25 -23 -97q-37 -116 -37 -134q0 -19 20 -19q45 0 188 216q1 -9 -2 -22z" />
    <glyph glyph-name="o" unicode="o" horiz-adv-x="371" 
d="M474 233q-14 -26 -35 -57q-91 -134 -139 -134q-18 0 -34 19q-63 -68 -124 -68q-53 0 -82 34t-29 88q0 76 60 149q63 77 137 77q47 0 74 -40q24 -34 24 -83q0 -55 -34 -119q5 -24 25 -24q45 0 160 175q-1 -7 -3 -17zM223 325q-34 0 -69 -45q-25 -33 -42 -75
q-22 -56 -22 -108q0 -87 61 -87q46 0 98 84q-7 16 -7 37q0 58 43 123q-12 71 -62 71z" />
    <glyph glyph-name="p" unicode="p" horiz-adv-x="384" 
d="M496 235q-19 -44 -47 -83q-48 -68 -83 -100q-57 -52 -115 -52q-25 0 -57 13q-38 16 -38 38q0 6 22 18l27 15q100 65 100 156q0 53 -44 53q-54 0 -130 -139q-76 -365 -118 -438h-1q-12 47 -12 114q0 135 71 270q15 97 28 170q10 55 26 58l37 8q4 1 6 -1q2 -3 0 -10
l-29 -126q94 139 158 139q67 0 67 -82q0 -107 -144 -194q18 -32 54 -32q89 0 224 226q0 -8 -2 -21zM14 -159q0 -28 9 -56q25 51 40 264q-49 -86 -49 -208z" />
    <glyph glyph-name="q" unicode="q" horiz-adv-x="355" 
d="M416 171q-54 -76 -80 -104q-35 -37 -63 -37q-13 0 -23 5q6 -166 -134 -315h-1q-2 14 -2 29q0 94 105 385l-5 2q-71 -136 -127 -136q-36 0 -54 33q-15 27 -15 66q0 74 60 148q72 88 156 88q79 0 79 -25q0 -6 -36 -137l-32 -116q13 -10 27 -10q38 0 105 87q23 31 80 119
v-19q-16 -29 -40 -63zM232 318q-41 0 -80 -48q-86 -106 -86 -196q0 -47 34 -47q64 0 170 275q-15 16 -38 16zM121 -244q117 107 114 281q-106 -217 -114 -281z" />
    <glyph glyph-name="r" unicode="r" horiz-adv-x="295" 
d="M342 148q-46 -69 -72 -96q-53 -56 -101 -56q-56 0 -56 59q0 71 100 232q-65 -45 -94 -45q-31 0 -31 32q0 25 14 48.5t37 27.5v-1q-11 -21 -11 -31q0 -27 29 -27q26 0 107 34l1 -1q-100 -230 -100 -265q0 -30 26 -31q36 -2 82 52q30 35 118 170v-18q-22 -45 -49 -84z" />
    <glyph glyph-name="s" unicode="s" horiz-adv-x="321" 
d="M374 144q-39 -58 -75 -85q-43 -33 -104 -40q-44 -23 -83 -23q-31 0 -55 11q-31 14 -31 41q0 41 49 41q11 0 22 -4v-1q-18 -13 -18 -35q0 -35 51 -35q31 0 55 17t24 47q0 33 -56 79q-33 27 -47 43q-18 21 -18 43q0 44 46 73q40 24 87 24q61 0 61 -42q0 -19 -21 -33
q-17 -11 -38 -13l-1 2q16 16 16 37q0 31 -40 31q-24 0 -43 -13.5t-19 -36.5q0 -28 46 -64q8 -6 29 -23q45 -38 45 -78q0 -28 -30 -62q94 16 198 202v-15q-21 -44 -50 -88z" />
    <glyph glyph-name="t" unicode="t" horiz-adv-x="215" 
d="M273 157q-108 -160 -179 -160q-57 0 -57 60q0 20 20 96l38 144h-51l-1 4l3 12l3 4h52l38 128q6 19 15 21l32 8q6 1 7 -1q2 -3 -1 -11l-37 -145h47l-5 -20h-47l-54 -201q-7 -26 -7 -44q0 -27 24 -27q70 0 202 220q1 -5 1 -16q-1 -10 -43 -72z" />
    <glyph glyph-name="u" unicode="u" horiz-adv-x="400" 
d="M456 145q-97 -148 -166 -148q-45 0 -45 55q0 33 51 184q-147 -239 -214 -239q-43 0 -43 50q0 23 11 59l63 204q3 11 4 11q2 4 10 6l37 8q5 1 6 0q2 -2 1 -8q0 -2 -1 -4l-71 -227q-8 -26 -8 -44q0 -23 19 -23q29 0 97 94q43 59 78 119l22 48q17 36 27 38l34 8q4 0 7 -7
q-1 -2 -2 -6l-70 -225q-8 -26 -8 -44q0 -25 23 -25q50 0 187 223v-16q-19 -45 -49 -91z" />
    <glyph glyph-name="v" unicode="v" horiz-adv-x="384" 
d="M271 89q-60 -96 -118 -96q-64 0 -64 125q0 52 13 166q2 15 4 32q2 8 13 11l34 8q10 2 10 -10q0 -34 -10 -104t-10 -105q0 -84 38 -84q40 0 81 81q-6 28 -6 46q0 48 30 98q26 44 68 77l5 -2q4 -8 4 -16q0 -93 -77 -205q8 -39 36 -39q26 0 64 46q32 38 96 139v-25
q-14 -31 -45 -78q-69 -104 -119 -104q-29 0 -47 39z" />
    <glyph glyph-name="w" unicode="w" horiz-adv-x="592" 
d="M691 231q-49 -111 -113 -159q-25 -19 -47 -19q-38 0 -53 52q-92 -110 -147 -110t-55 71q0 27 30 153q-118 -222 -191 -222q-49 0 -49 64q0 26 9 62l48 192q3 11 11 12l37 6q6 1 7 -1q0 -2 -2 -10l-51 -199q-10 -39 -10 -59q0 -35 27 -35q52 0 138 172q10 23 29 69
q22 53 36 56l35 7q5 1 5 -2q1 -2 -2 -13l-46 -173q-12 -45 -12 -78q0 -44 32 -44q43 0 118 100q-3 34 -3 44q0 108 65 165l3 -1q8 -12 8 -45q0 -72 -57 -164q4 -50 41 -53q33 -2 71 43q27 32 89 136q0 -7 -1 -17z" />
    <glyph glyph-name="x" unicode="x" horiz-adv-x="391" 
d="M487 233l-1 -1l-3 -6q-18 -36 -44 -73q-109 -156 -173 -156q-58 0 -108 125l-74 -102q-45 -62 -71 -62t-26 33q0 40 34 66q-2 -11 -2 -18q0 -27 23 -27q19 0 45 36l64 88l-75 180q-4 9 5 11l33 6q8 1 12 -9l56 -135l73 98q35 47 66 47q16 0 25.5 -14.5t9.5 -31.5
q0 -34 -24.5 -71t-55.5 -55l-1 1q47 57 47 101q0 29 -26 29q-22 0 -72 -69l-35 -48l34 -79q28 -65 62 -65q60 0 202 216v-7l-1 -6q0 -1 1 -2z" />
    <glyph glyph-name="y" unicode="y" horiz-adv-x="410" 
d="M453 158q-115 -155 -183 -207q-45 -186 -165 -235h-4q-5 19 -5 39q0 106 134 211q5 48 59 246q-117 -209 -201 -209q-44 0 -44 54q0 17 12 57l59 197q3 11 16 13l34 5q4 1 4 -1q1 -2 -1 -8l-64 -224q-6 -21 -6 -42t20 -21q51 0 148 168q21 36 47 93q14 30 22 31l37 5
q4 1 5 -2q-5 -16 -31 -94q-37 -114 -70 -258q114 102 227 268v-12q-19 -32 -50 -74zM130 -210q0 -15 8 -39q72 42 91 193q-99 -74 -99 -154z" />
    <glyph glyph-name="z" unicode="z" horiz-adv-x="317" 
d="M411 234q-21 -46 -61 -104q-94 -136 -155 -136q-13 0 -51 10q-50 13 -84 18q-17 -25 -31 -25q-5 0 -5 1q0 5 2 8l29 62q6 12 22 9l167 185q-69 19 -97 19q-35 0 -54 -50q-3 -1 -5 -1q-3 0 -3 2q0 6 10.5 25.5t11.5 25.5q3 18 7 36q7 22 23 22q6 0 51 -10q50 -11 99 -19
l10 14q11 15 20 15t9 -2q0 -6 -16 -24l-217 -242q49 -14 85 -23q31 -8 46 -8q34 0 79 52q43 49 110 155q0 -7 -2 -15z" />
    <glyph glyph-name="braceleft" unicode="{" horiz-adv-x="401" 
d="M401 714q-88 -5 -120 -55q-22 -34 -46 -119q-26 -90 -45 -125q-34 -61 -91 -74q46 -26 46 -68q0 -48 -39 -141t-39 -141q0 -51 87 -65l-2 -9q-13 2 -30 1l-29 -2q-29 0 -48 20.5t-19 49.5q0 51 43 154.5t43 153.5q0 37 -45 51q11 4 37 16q45 24 75 124q42 142 52 162
q40 80 121 80q9 0 26 -1.5t26 -1.5z" />
    <glyph glyph-name="bar" unicode="|" horiz-adv-x="498" 
d="M459 -169v838h23v-838h-23z" />
    <glyph glyph-name="braceright" unicode="}" horiz-adv-x="401" 
d="M39 -81q88 5 120 55q20 31 46.5 124.5t47.5 134.5q35 67 91 79q-45 26 -45 68q0 47 37 136t37 136q0 51 -87 65l2 9q12 -2 29 -1l30 2q29 0 48 -20t19 -49q0 -51 -41 -150t-41 -149q0 -37 45 -50q-11 -4 -37 -17q-46 -24 -76 -129q-42 -146 -54 -171q-41 -86 -122 -86
q-28 0 -52 4z" />
    <glyph glyph-name="asciitilde" unicode="~" horiz-adv-x="404" 
d="M322 706q-20 1 -57.5 17t-51.5 17q-45 3 -56 -34l-16 1q25 77 86 73q15 -1 53 -17t60 -17q40 -3 53 36l15 -1q-25 -79 -86 -75z" />
    <glyph glyph-name="Adieresis" unicode="&#xc4;" horiz-adv-x="900" 
d="M921 550q-62 -164 -113 -312q62 -83 62 -179q0 -69 -11 -69q-10 0 -41 29q-59 54 -59 147q0 38 11 82q-35 33 -88 70q-51 -82 -89 -127q41 -2 81 1l3 -2l1 -8l-3 -2q-36 -7 -96 -5q-155 -171 -318 -171q-62 0 -116 25q-68 31 -68 87q0 40 33 62q27 18 70 18q71 0 134 -39
l2 -5l-3 -6l-3 -1q-62 30 -103 30q-79 0 -79 -68q0 -44 49 -68q39 -20 87 -20q111 0 248 157q-100 11 -172 46q-102 49 -102 130q0 53 47 80q38 22 95 22q131 0 268 -89q62 103 132 186q108 130 175 130q9 0 9 -9t-43 -122zM816 546q-30 -46 -125 -213q50 -38 82 -65
q78 275 142 375q-45 -15 -99 -97zM803 213q-11 -45 -11 -85q0 -72 41 -105q15 36 15 74q0 62 -45 116zM408 435q-52 0 -89 -21q-45 -25 -45 -73q0 -73 94 -114q65 -28 155 -36q37 38 116 159q-130 85 -231 85zM973 730q0 17 11 29t27 12t27 -12t11 -29t-11 -29.5t-27 -12.5
t-27 12.5t-11 29.5zM811 730q0 17 11 29t28 12q16 0 27 -12t11 -29t-11 -29.5t-27 -12.5t-27.5 12.5t-11.5 29.5z" />
    <glyph glyph-name="Aring" unicode="&#xc5;" horiz-adv-x="900" 
d="M921 550q-62 -164 -113 -312q62 -83 62 -179q0 -69 -11 -69q-10 0 -41 29q-59 54 -59 147q0 38 11 82q-35 33 -88 70q-51 -82 -89 -127q41 -2 81 1l3 -2l1 -8l-3 -2q-36 -7 -96 -5q-155 -171 -318 -171q-62 0 -116 25q-68 31 -68 87q0 40 33 62q27 18 70 18q71 0 134 -39
l2 -5l-3 -6l-3 -1q-62 30 -103 30q-79 0 -79 -68q0 -44 49 -68q39 -20 87 -20q111 0 248 157q-100 11 -172 46q-102 49 -102 130q0 53 47 80q38 22 95 22q131 0 268 -89q62 103 132 186q108 130 175 130q9 0 9 -9t-43 -122zM816 546q-30 -46 -125 -213q50 -38 82 -65
q78 275 142 375q-45 -15 -99 -97zM803 213q-11 -45 -11 -85q0 -72 41 -105q15 36 15 74q0 62 -45 116zM408 435q-52 0 -89 -21q-45 -25 -45 -73q0 -73 94 -114q65 -28 155 -36q37 38 116 159q-130 85 -231 85zM921 721q-27 0 -45 19.5t-18 46.5t18 46.5t45 19.5t45 -19.5
t18 -46.5t-18 -46.5t-45 -19.5zM921 833q-19 0 -31.5 -13.5t-12.5 -32.5t12.5 -32.5t31.5 -13.5t31.5 13.5t12.5 32.5t-12.5 32.5t-31.5 13.5z" />
    <glyph glyph-name="Ccedilla" unicode="&#xc7;" horiz-adv-x="711" 
d="M633 685q-65 0 -138 -91q92 -46 115 -126q83 82 83 151q0 29 -16 47.5t-44 18.5zM486 581q-66 -94 -111 -220q130 20 223 92q-18 84 -112 128zM283 620q-76 0 -133 -29q-71 -36 -71 -105q0 -73 83 -105q57 -22 144 -23q43 132 145 235q-76 27 -168 27zM512 -189
q-63 0 -101 30l7 15q44 -23 78 -23q56 0 56 46q0 43 -55 43q-13 0 -29 -3l30 79q-96 5 -154 74q-55 66 -55 164q0 49 13 106q-271 10 -271 152q0 77 84 115q64 28 151 28q101 0 197 -32q102 96 179 96q41 0 65 -24.5t24 -65.5q0 -95 -117 -179q5 -146 -178 -209l-3 2l-2 7
l2 3q166 63 164 187q-99 -60 -228 -79q-16 -58 -16 -124q0 -90 43 -144q47 -59 134 -59q95 0 178 76q57 52 121 157q0 -8 -1 -20q-22 -45 -70 -107q-52 -66 -105 -94q-56 -30 -137 -30l-22 -56q19 3 35 3q68 0 68 -56q0 -33 -26 -55.5t-59 -22.5z" />
    <glyph glyph-name="Eacute" unicode="&#xc9;" horiz-adv-x="699" 
d="M480 443q37 -33 104 -47l2 -4v-8l-2 -2q-115 -17 -199 -74q-105 -71 -105 -174q0 -63 44 -96q39 -29 104 -29q67 0 123 34q66 39 66 102q0 34 -22.5 53t-57.5 19q-62 0 -163 -79h-2l-4 6l1 4q116 98 203 98q39 0 67.5 -21.5t28.5 -59.5q0 -75 -98 -129q-84 -46 -166 -46
q-78 0 -130 34q-61 40 -61 114q0 107 122 178q89 52 217 74q-78 7 -124 39q-107 -31 -195 -31q-86 0 -146 28q-80 37 -80 113q0 71 72 108q57 30 135 30q80 0 175 -29l2 -3l-1 -6l-4 -1q-87 25 -158 25q-70 0 -113 -29q-51 -34 -51 -100q0 -121 181 -121q79 0 174 28
q-32 30 -32 76q0 70 86 125q64 41 154 41q93 0 93 -66q0 -93 -240 -174zM612 669q-64 0 -114 -43q-51 -46 -51 -109q0 -38 24 -63q205 67 205 154q0 61 -64 61zM642 756l-88 -58l-7 10l65 82q18 22 33 18q23 -7 17 -28q-4 -13 -20 -24z" />
    <glyph glyph-name="Ntilde" unicode="&#xd1;" horiz-adv-x="890" 
d="M758 -18q-39 0 -64 33q-24 30 -24 70q0 71 44 209q23 70 67 210q17 56 17 85q0 37 -35 37q-69 0 -203 -233q-118 -206 -149 -313q-4 -15 -15 -51q-5 -15 -22 -20q-3 -1 -31 -4q-8 4 -6 14l102 418q13 53 13 87q0 139 -167 139q-83 0 -146 -36q-75 -43 -75 -121
q0 -56 43 -87q38 -28 96 -28q57 0 123 32l4 -1l2 -5l-2 -6q-63 -38 -141 -38q-67 0 -114 33q-52 37 -52 102q0 87 90 133q71 36 167 36q94 0 153 -32q74 -40 74 -127q0 -64 -28 -168q-5 -18 -46 -163q95 184 145 263q126 199 201 199q34 0 53.5 -20.5t19.5 -54.5
q0 -27 -23 -99q-22 -68 -65.5 -204.5t-43.5 -198.5q0 -28 13 -49q15 -24 41 -24q50 0 131 108q35 46 98 150q0 -30 -48 -103q-53 -82 -81 -111q-57 -61 -116 -61zM587 740q-40 0 -50 -34l-16 1q24 73 81 73q19 0 60.5 -17t63.5 -17q35 0 47 36l15 -1q-24 -75 -81 -75
q-21 0 -61 17t-59 17z" />
    <glyph glyph-name="Odieresis" unicode="&#xd6;" horiz-adv-x="727" 
d="M769 154q-60 -73 -101 -105q-65 -50 -133 -50q-38 0 -74 18q-44 -20 -89 -20q-93 0 -151 65q-54 61 -58 156q-160 62 -160 173q0 82 80 126q65 35 154 35q24 0 55 -3q126 145 258 145q58 0 94.5 -33t36.5 -91q0 -16 -4 -36q35 -41 35 -119q0 -109 -68 -221t-164 -168
q28 -14 57 -14q78 0 167 88q48 48 123 153q6 -21 -58 -99zM613 552q-68 0 -138 -126q-50 -90 -75 -184q97 38 166 113.5t96 175.5q-19 21 -49 21zM550 678q-106 0 -200 -134q39 -10 54 -16l2 -3l-2 -5l-3 -1q-21 4 -60 10q-93 -137 -122 -306q34 -8 58 -8q31 0 72 8
q14 114 77 209q90 136 176 136q29 0 64 -22q2 21 2 24q0 49 -34 78.5t-84 29.5zM674 520q-69 -215 -277 -295q-4 -32 -4 -56q0 -95 70 -136q75 39 131 126q95 147 95 303q0 31 -15 58zM237 535q-80 0 -133 -36q-62 -41 -62 -117q0 -97 120 -144q20 163 117 294q-31 3 -42 3z
M348 209q-30 -7 -79 -7q-30 0 -52 5q-5 -84 35 -138q44 -59 126 -59q31 0 67 16q-97 60 -97 183zM603 760q0 17 11 29t27 12t27 -12t11 -29t-11 -29.5t-27 -12.5t-27 12.5t-11 29.5zM441 760q0 17 11 29t28 12q16 0 27 -12t11 -29t-11 -29.5t-27 -12.5t-27.5 12.5
t-11.5 29.5z" />
    <glyph glyph-name="Udieresis" unicode="&#xdc;" horiz-adv-x="899" 
d="M960 151q-114 -157 -176 -157q-70 0 -70 105q0 36 13 106q-141 -207 -266 -207q-37 0 -59.5 21.5t-22.5 58.5q0 32 18 92l77 257q17 57 17 92q0 81 -67 124q-57 36 -143 36q-77 0 -128 -30q-63 -36 -63 -108t69 -109q55 -31 133 -31q23 0 48 3l3 -2l1 -6l-2 -5
q-25 -4 -64 -4q-92 0 -157 37q-81 45 -81 130q0 77 67 116q56 32 138 32q126 0 219 -60q83 -53 83 -135q0 -31 -30 -129l-70 -228q-12 -39 -12 -72q0 -24 18 -39.5t43 -15.5q96 0 239 220q81 335 178 427h3q2 -9 2 -17q0 -56 -28 -143q-35 -108 -97 -209q-34 -143 -34 -205
q0 -79 43 -79q50 0 210 241q2 -9 -1 -25q-27 -49 -51 -82zM775 706q-17 0 -28.5 13.5t-11.5 30.5t11.5 30t28.5 13t28.5 -12.5t11.5 -30.5t-11.5 -31t-28.5 -13zM615 706q-17 0 -28.5 13.5t-11.5 30.5t11.5 30t28.5 13t28.5 -12.5t11.5 -30.5t-11.5 -31t-28.5 -13z" />
    <glyph glyph-name="aacute" unicode="&#xe1;" horiz-adv-x="345" 
d="M418 182q-44 -69 -62 -94q-47 -65 -78 -81q-14 -7 -26 -7q-38 0 -38 46q0 24 24 107l-5 2q-74 -154 -125 -154q-64 0 -64 100q0 92 80 177q53 57 118 57q57 0 73 -24q0 -5 -18 -77l-37 -148q-5 -20 -5 -34q0 -22 18 -22q44 0 173 218v-14q-16 -33 -28 -52zM238 318
q-40 0 -86 -76q-61 -101 -61 -169q0 -45 28 -45q39 0 97 120q32 68 62 153q-16 17 -40 17zM312 436l-88 -58l-7 10l65 82q18 22 33 18q23 -7 17 -28q-4 -13 -20 -24z" />
    <glyph glyph-name="agrave" unicode="&#xe0;" horiz-adv-x="345" 
d="M418 182q-44 -69 -62 -94q-47 -65 -78 -81q-14 -7 -26 -7q-38 0 -38 46q0 24 24 107l-5 2q-74 -154 -125 -154q-64 0 -64 100q0 92 80 177q53 57 118 57q57 0 73 -24q0 -5 -18 -77l-37 -148q-5 -20 -5 -34q0 -22 18 -22q44 0 173 218v-14q-16 -33 -28 -52zM238 318
q-40 0 -86 -76q-61 -101 -61 -169q0 -45 28 -45q39 0 97 120q32 68 62 153q-16 17 -40 17zM296 378l-88 58q-15 10 -19 24q-6 21 17 28q14 4 32 -18l65 -82z" />
    <glyph glyph-name="acircumflex" unicode="&#xe2;" horiz-adv-x="345" 
d="M418 182q-44 -69 -62 -94q-47 -65 -78 -81q-14 -7 -26 -7q-38 0 -38 46q0 24 24 107l-5 2q-74 -154 -125 -154q-64 0 -64 100q0 92 80 177q53 57 118 57q57 0 73 -24q0 -5 -18 -77l-37 -148q-5 -20 -5 -34q0 -22 18 -22q44 0 173 218v-14q-16 -33 -28 -52zM238 318
q-40 0 -86 -76q-61 -101 -61 -169q0 -45 28 -45q39 0 97 120q32 68 62 153q-16 17 -40 17zM337 364l-60 58l-117 -59l-8 8l117 90h25l52 -92z" />
    <glyph glyph-name="adieresis" unicode="&#xe4;" horiz-adv-x="345" 
d="M418 182q-44 -69 -62 -94q-47 -65 -78 -81q-14 -7 -26 -7q-38 0 -38 46q0 24 24 107l-5 2q-74 -154 -125 -154q-64 0 -64 100q0 92 80 177q53 57 118 57q57 0 73 -24q0 -5 -18 -77l-37 -148q-5 -20 -5 -34q0 -22 18 -22q44 0 173 218v-14q-16 -33 -28 -52zM238 318
q-40 0 -86 -76q-61 -101 -61 -169q0 -45 28 -45q39 0 97 120q32 68 62 153q-16 17 -40 17zM286 413q0 16 10.5 27t26.5 11t26 -11t10 -27t-10 -27t-26 -11t-26.5 11t-10.5 27zM156 413q0 16 10.5 27t26.5 11t26 -11t10 -27t-10 -27t-26 -11t-26.5 11t-10.5 27z" />
    <glyph glyph-name="atilde" unicode="&#xe3;" horiz-adv-x="345" 
d="M418 182q-44 -69 -62 -94q-47 -65 -78 -81q-14 -7 -26 -7q-38 0 -38 46q0 24 24 107l-5 2q-74 -154 -125 -154q-64 0 -64 100q0 92 80 177q53 57 118 57q57 0 73 -24q0 -5 -18 -77l-37 -148q-5 -20 -5 -34q0 -22 18 -22q44 0 173 218v-14q-16 -33 -28 -52zM238 318
q-40 0 -86 -76q-61 -101 -61 -169q0 -45 28 -45q39 0 97 120q32 68 62 153q-16 17 -40 17zM302 386q-20 1 -49.5 17t-39.5 17q-45 3 -56 -34l-16 1q25 77 86 73q12 -1 41.5 -17t51.5 -17q40 -3 53 36l15 -1q-25 -79 -86 -75z" />
    <glyph glyph-name="aring" unicode="&#xe5;" horiz-adv-x="345" 
d="M418 182q-44 -69 -62 -94q-47 -65 -78 -81q-14 -7 -26 -7q-38 0 -38 46q0 24 24 107l-5 2q-74 -154 -125 -154q-64 0 -64 100q0 92 80 177q53 57 118 57q57 0 73 -24q0 -5 -18 -77l-37 -148q-5 -20 -5 -34q0 -22 18 -22q44 0 173 218v-14q-16 -33 -28 -52zM238 318
q-40 0 -86 -76q-61 -101 -61 -169q0 -45 28 -45q39 0 97 120q32 68 62 153q-16 17 -40 17zM281 381q-27 0 -45 19.5t-18 46.5t18 46.5t45 19.5t45 -19.5t18 -46.5t-18 -46.5t-45 -19.5zM281 493q-19 0 -31.5 -13.5t-12.5 -32.5t12.5 -32.5t31.5 -13.5t31.5 13.5t12.5 32.5
t-12.5 32.5t-31.5 13.5z" />
    <glyph glyph-name="ccedilla" unicode="&#xe7;" horiz-adv-x="318" 
d="M150 -149q-50 0 -80 23l5 12q35 -18 63 -18q44 0 44 37q0 34 -44 34q-10 0 -23 -2l22 57q-48 2 -77 38q-27 33 -27 82q0 75 57 146q65 81 135 81q30 0 50.5 -16t20.5 -46q0 -24 -15.5 -40.5t-39.5 -16.5q-15 0 -23 11q32 21 32 53q0 38 -31 38q-36 0 -70 -49
q-25 -36 -40 -81q-17 -50 -17 -89q0 -87 74 -87q121 0 254 228q0 -6 -1 -14q-7 -18 -23 -43q-118 -186 -244 -195l-16 -39q15 3 28 3q54 0 54 -45q0 -27 -20.5 -44.5t-47.5 -17.5z" />
    <glyph glyph-name="eacute" unicode="&#xe9;" horiz-adv-x="316" 
d="M380 171q-118 -177 -242 -177q-50 0 -78 36q-25 32 -25 84q0 73 54 147q58 80 129 80q30 0 50.5 -18t20.5 -47q0 -58 -74 -110q-54 -39 -125 -62q0 -87 70 -87q127 0 256 234q1 -7 0 -19q-18 -34 -36 -61zM209 322q-48 0 -84 -80q-26 -57 -35 -120q61 15 103 56
q48 46 48 105q0 39 -32 39zM312 436l-88 -58l-7 10l65 82q18 22 33 18q23 -7 17 -28q-4 -13 -20 -24z" />
    <glyph glyph-name="egrave" unicode="&#xe8;" horiz-adv-x="316" 
d="M380 171q-118 -177 -242 -177q-50 0 -78 36q-25 32 -25 84q0 73 54 147q58 80 129 80q30 0 50.5 -18t20.5 -47q0 -58 -74 -110q-54 -39 -125 -62q0 -87 70 -87q127 0 256 234q1 -7 0 -19q-18 -34 -36 -61zM209 322q-48 0 -84 -80q-26 -57 -35 -120q61 15 103 56
q48 46 48 105q0 39 -32 39zM296 378l-88 58q-15 10 -19 24q-6 21 17 28q14 4 32 -18l65 -82z" />
    <glyph glyph-name="ecircumflex" unicode="&#xea;" horiz-adv-x="316" 
d="M380 171q-118 -177 -242 -177q-50 0 -78 36q-25 32 -25 84q0 73 54 147q58 80 129 80q30 0 50.5 -18t20.5 -47q0 -58 -74 -110q-54 -39 -125 -62q0 -87 70 -87q127 0 256 234q1 -7 0 -19q-18 -34 -36 -61zM209 322q-48 0 -84 -80q-26 -57 -35 -120q61 15 103 56
q48 46 48 105q0 39 -32 39zM337 364l-60 58l-117 -59l-8 8l117 90h25l52 -92z" />
    <glyph glyph-name="edieresis" unicode="&#xeb;" horiz-adv-x="316" 
d="M380 171q-118 -177 -242 -177q-50 0 -78 36q-25 32 -25 84q0 73 54 147q58 80 129 80q30 0 50.5 -18t20.5 -47q0 -58 -74 -110q-54 -39 -125 -62q0 -87 70 -87q127 0 256 234q1 -7 0 -19q-18 -34 -36 -61zM209 322q-48 0 -84 -80q-26 -57 -35 -120q61 15 103 56
q48 46 48 105q0 39 -32 39zM276 413q0 16 10.5 27t26.5 11t26 -11t10 -27t-10 -27t-26 -11t-26.5 11t-10.5 27zM146 413q0 16 10.5 27t26.5 11t26 -11t10 -27t-10 -27t-26 -11t-26.5 11t-10.5 27z" />
    <glyph glyph-name="iacute" unicode="&#xed;" horiz-adv-x="203" 
d="M265 162q-110 -160 -183 -160q-50 0 -50 57q0 18 13 62l57 193q4 13 16 16l33 7q4 1 6 -1q2 -3 0 -9l-61 -207q-15 -51 -15 -64q0 -31 25 -31q63 0 204 223q0 -7 -1 -17q-16 -28 -44 -69zM212 436l-88 -58l-7 10l65 82q18 22 33 18q23 -7 17 -28q-4 -13 -20 -24z" />
    <glyph glyph-name="igrave" unicode="&#xec;" horiz-adv-x="203" 
d="M265 162q-110 -160 -183 -160q-50 0 -50 57q0 18 13 62l57 193q4 13 16 16l33 7q4 1 6 -1q2 -3 0 -9l-61 -207q-15 -51 -15 -64q0 -31 25 -31q63 0 204 223q0 -7 -1 -17q-16 -28 -44 -69zM206 378l-88 58q-15 10 -19 24q-6 21 17 28q14 4 32 -18l65 -82z" />
    <glyph glyph-name="icircumflex" unicode="&#xee;" horiz-adv-x="203" 
d="M265 162q-110 -160 -183 -160q-50 0 -50 57q0 18 13 62l57 193q4 13 16 16l33 7q4 1 6 -1q2 -3 0 -9l-61 -207q-15 -51 -15 -64q0 -31 25 -31q63 0 204 223q0 -7 -1 -17q-16 -28 -44 -69zM237 364l-60 58l-117 -59l-8 8l117 90h25l52 -92z" />
    <glyph glyph-name="idieresis" unicode="&#xef;" horiz-adv-x="203" 
d="M265 162q-110 -160 -183 -160q-50 0 -50 57q0 18 13 62l57 193q4 13 16 16l33 7q4 1 6 -1q2 -3 0 -9l-61 -207q-15 -51 -15 -64q0 -31 25 -31q63 0 204 223q0 -7 -1 -17q-16 -28 -44 -69zM186 413q0 16 10.5 27t26.5 11t26 -11t10 -27t-10 -27t-26 -11t-26.5 11t-10.5 27
zM76 413q0 16 10.5 27t26.5 11t26 -11t10 -27t-10 -27t-26 -11t-26.5 11t-10.5 27z" />
    <glyph glyph-name="ntilde" unicode="&#xf1;" horiz-adv-x="404" 
d="M505 229q-25 -44 -62 -96q-94 -134 -149 -134q-23 0 -36.5 17t-13.5 41q0 18 39 147q22 73 22 81q0 17 -17 17q-36 0 -129 -142q-51 -78 -69 -131q-4 -11 -7 -15t-12 -6l-33 -7q-6 -1 -8 1q-2 4 0 13q0 2 1 4l80 284q6 21 19 24l31 8q7 2 9 0t2 -4q0 -3 -2 -6l-66 -231
q144 243 208 243q21 0 34 -15.5t13 -36.5q0 -25 -23 -97q-37 -116 -37 -134q0 -19 20 -19q45 0 188 216q1 -9 -2 -22zM302 386q-20 1 -49.5 17t-39.5 17q-45 3 -56 -34l-16 1q25 77 86 73q12 -1 41.5 -17t51.5 -17q40 -3 53 36l15 -1q-25 -79 -86 -75z" />
    <glyph glyph-name="oacute" unicode="&#xf3;" horiz-adv-x="371" 
d="M474 233q-14 -26 -35 -57q-91 -134 -139 -134q-18 0 -34 19q-63 -68 -124 -68q-53 0 -82 34t-29 88q0 76 60 149q63 77 137 77q47 0 74 -40q24 -34 24 -83q0 -55 -34 -119q5 -24 25 -24q45 0 160 175q-1 -7 -3 -17zM223 325q-34 0 -69 -45q-25 -33 -42 -75
q-22 -56 -22 -108q0 -87 61 -87q46 0 98 84q-7 16 -7 37q0 58 43 123q-12 71 -62 71zM312 436l-88 -58l-7 10l65 82q18 22 33 18q23 -7 17 -28q-4 -13 -20 -24z" />
    <glyph glyph-name="ograve" unicode="&#xf2;" horiz-adv-x="371" 
d="M474 233q-14 -26 -35 -57q-91 -134 -139 -134q-18 0 -34 19q-63 -68 -124 -68q-53 0 -82 34t-29 88q0 76 60 149q63 77 137 77q47 0 74 -40q24 -34 24 -83q0 -55 -34 -119q5 -24 25 -24q45 0 160 175q-1 -7 -3 -17zM223 325q-34 0 -69 -45q-25 -33 -42 -75
q-22 -56 -22 -108q0 -87 61 -87q46 0 98 84q-7 16 -7 37q0 58 43 123q-12 71 -62 71zM296 378l-88 58q-15 10 -19 24q-6 21 17 28q14 4 32 -18l65 -82z" />
    <glyph glyph-name="ocircumflex" unicode="&#xf4;" horiz-adv-x="371" 
d="M474 233q-14 -26 -35 -57q-91 -134 -139 -134q-18 0 -34 19q-63 -68 -124 -68q-53 0 -82 34t-29 88q0 76 60 149q63 77 137 77q47 0 74 -40q24 -34 24 -83q0 -55 -34 -119q5 -24 25 -24q45 0 160 175q-1 -7 -3 -17zM223 325q-34 0 -69 -45q-25 -33 -42 -75
q-22 -56 -22 -108q0 -87 61 -87q46 0 98 84q-7 16 -7 37q0 58 43 123q-12 71 -62 71zM327 364l-60 58l-117 -59l-8 8l117 90h25l52 -92z" />
    <glyph glyph-name="odieresis" unicode="&#xf6;" horiz-adv-x="371" 
d="M474 233q-14 -26 -35 -57q-91 -134 -139 -134q-18 0 -34 19q-63 -68 -124 -68q-53 0 -82 34t-29 88q0 76 60 149q63 77 137 77q47 0 74 -40q24 -34 24 -83q0 -55 -34 -119q5 -24 25 -24q45 0 160 175q-1 -7 -3 -17zM223 325q-34 0 -69 -45q-25 -33 -42 -75
q-22 -56 -22 -108q0 -87 61 -87q46 0 98 84q-7 16 -7 37q0 58 43 123q-12 71 -62 71zM286 413q0 16 10.5 27t26.5 11t26 -11t10 -27t-10 -27t-26 -11t-26.5 11t-10.5 27zM156 413q0 16 10.5 27t26.5 11t26 -11t10 -27t-10 -27t-26 -11t-26.5 11t-10.5 27z" />
    <glyph glyph-name="otilde" unicode="&#xf5;" horiz-adv-x="371" 
d="M474 233q-14 -26 -35 -57q-91 -134 -139 -134q-18 0 -34 19q-63 -68 -124 -68q-53 0 -82 34t-29 88q0 76 60 149q63 77 137 77q47 0 74 -40q24 -34 24 -83q0 -55 -34 -119q5 -24 25 -24q45 0 160 175q-1 -7 -3 -17zM223 325q-34 0 -69 -45q-25 -33 -42 -75
q-22 -56 -22 -108q0 -87 61 -87q46 0 98 84q-7 16 -7 37q0 58 43 123q-12 71 -62 71zM302 386q-20 1 -49.5 17t-39.5 17q-45 3 -56 -34l-16 1q25 77 86 73q12 -1 41.5 -17t51.5 -17q40 -3 53 36l15 -1q-25 -79 -86 -75z" />
    <glyph glyph-name="uacute" unicode="&#xfa;" horiz-adv-x="400" 
d="M456 145q-97 -148 -166 -148q-45 0 -45 55q0 33 51 184q-147 -239 -214 -239q-43 0 -43 50q0 23 11 59l63 204q3 11 4 11q2 4 10 6l37 8q5 1 6 0q2 -2 1 -8q0 -2 -1 -4l-71 -227q-8 -26 -8 -44q0 -23 19 -23q29 0 97 94q43 59 78 119l22 48q17 36 27 38l34 8q4 0 7 -7
q-1 -2 -2 -6l-70 -225q-8 -26 -8 -44q0 -25 23 -25q50 0 187 223v-16q-19 -45 -49 -91zM312 436l-88 -58l-7 10l65 82q18 22 33 18q23 -7 17 -28q-4 -13 -20 -24z" />
    <glyph glyph-name="ugrave" unicode="&#xf9;" horiz-adv-x="400" 
d="M456 145q-97 -148 -166 -148q-45 0 -45 55q0 33 51 184q-147 -239 -214 -239q-43 0 -43 50q0 23 11 59l63 204q3 11 4 11q2 4 10 6l37 8q5 1 6 0q2 -2 1 -8q0 -2 -1 -4l-71 -227q-8 -26 -8 -44q0 -23 19 -23q29 0 97 94q43 59 78 119l22 48q17 36 27 38l34 8q4 0 7 -7
q-1 -2 -2 -6l-70 -225q-8 -26 -8 -44q0 -25 23 -25q50 0 187 223v-16q-19 -45 -49 -91zM296 378l-88 58q-15 10 -19 24q-6 21 17 28q14 4 32 -18l65 -82z" />
    <glyph glyph-name="ucircumflex" unicode="&#xfb;" horiz-adv-x="400" 
d="M456 145q-97 -148 -166 -148q-45 0 -45 55q0 33 51 184q-147 -239 -214 -239q-43 0 -43 50q0 23 11 59l63 204q3 11 4 11q2 4 10 6l37 8q5 1 6 0q2 -2 1 -8q0 -2 -1 -4l-71 -227q-8 -26 -8 -44q0 -23 19 -23q29 0 97 94q43 59 78 119l22 48q17 36 27 38l34 8q4 0 7 -7
q-1 -2 -2 -6l-70 -225q-8 -26 -8 -44q0 -25 23 -25q50 0 187 223v-16q-19 -45 -49 -91zM347 364l-60 58l-117 -59l-8 8l117 90h25l52 -92z" />
    <glyph glyph-name="udieresis" unicode="&#xfc;" horiz-adv-x="400" 
d="M456 145q-97 -148 -166 -148q-45 0 -45 55q0 33 51 184q-147 -239 -214 -239q-43 0 -43 50q0 23 11 59l63 204q3 11 4 11q2 4 10 6l37 8q5 1 6 0q2 -2 1 -8q0 -2 -1 -4l-71 -227q-8 -26 -8 -44q0 -23 19 -23q29 0 97 94q43 59 78 119l22 48q17 36 27 38l34 8q4 0 7 -7
q-1 -2 -2 -6l-70 -225q-8 -26 -8 -44q0 -25 23 -25q50 0 187 223v-16q-19 -45 -49 -91zM286 413q0 16 10.5 27t26.5 11t26 -11t10 -27t-10 -27t-26 -11t-26.5 11t-10.5 27zM156 413q0 16 10.5 27t26.5 11t26 -11t10 -27t-10 -27t-26 -11t-26.5 11t-10.5 27z" />
    <glyph glyph-name="dagger" unicode="&#x2020;" horiz-adv-x="19" 
 />
    <glyph glyph-name="degree" unicode="&#xb0;" horiz-adv-x="575" 
d="M388 354q-46 0 -76.5 33t-30.5 79t30.5 79t76.5 33t76.5 -33t30.5 -79t-30.5 -79t-76.5 -33zM388 548q-33 0 -55 -24.5t-22 -57.5q0 -34 22 -58t55 -24t55 24t22 58q0 33 -22 57.5t-55 24.5z" />
    <glyph glyph-name="cent" unicode="&#xa2;" horiz-adv-x="318" 
d="M150 191l100 293q-33 -6 -73 -58q-37 -47 -47 -84q-8 -30 -8 -85q0 -35 28 -66zM294 551l-17 -51q59 -7 59 -61q0 -24 -15.5 -40.5t-39.5 -16.5q-13 0 -19 9q38 24 38 48q0 12 -9 25.5t-20 17.5l-101 -297q15 -7 36 -7q26 0 98 42l5 -13q-93 -53 -127 -53q-12 0 -22 2
l-21 -63l-19 7l21 62q-68 27 -68 112q0 72 56.5 146.5t126.5 80.5l19 56z" />
    <glyph glyph-name="sterling" unicode="&#xa3;" horiz-adv-x="647" 
d="M171 73q-47 0 -93 -53q20 -13 48 -13q72 0 111 47q-32 19 -66 19zM218 289h97q29 104 68 175q65 119 154 119q72 0 72 -75q0 -52 -129 -177q-4 -4 -7 -5q-1 1 -1 3q0 5 5 18q37 35 70 78q44 59 44 92q0 54 -48 54q-76 0 -123 -123q-38 -98 -54 -158h111l-2 -27h-114
q-6 -24 -39 -103q-39 -95 -54 -103q121 -52 236 -52q76 0 76 47q0 53 -72 53q-35 0 -67 -15h-1l-2 5l2 3q29 19 69 19q35 0 58.5 -18t23.5 -52q0 -41 -33 -63q-29 -19 -72 -19q-86 0 -231 81q-51 -51 -122 -51q-66 0 -123 41v2q65 47 142 47q29 0 92 -19l64 197h-93z" />
    <glyph glyph-name="section" unicode="&#xa7;" horiz-adv-x="22" 
 />
    <glyph glyph-name="bullet" unicode="&#x2022;" horiz-adv-x="486" 
d="M242 232q0 38 27 65t65 27t65 -27t27 -65t-27 -65t-65 -27t-65 27t-27 65z" />
    <glyph glyph-name="paragraph" unicode="&#xb6;" horiz-adv-x="621" 
d="M325 -81v22q25 0 36 4q21 7 21 35v350h-27q-137 0 -137 170q0 86 31 126q36 44 119 44h205v-22q-11 -1 -31 -6q-16 -8 -16 -33v-629q0 -15 3 -21q7 -15 44 -18v-22h-248zM382 648q-49 1 -66 -38q-10 -23 -10 -75v-73q0 -113 62 -113h14v299zM489 648h-71v-707h71v707z
" />
    <glyph glyph-name="germandbls" unicode="&#xdf;" horiz-adv-x="445" 
d="M321 54q18 28 18 77q0 39 -18 80l-18 30q-12 11 -36 35q-38 41 -38 71q0 32 36 65q0 1 62 49q34 36 34 90q0 45 -5 62q-11 36 -48 35q-38 -1 -72 -95q-15 -42 -64 -225l-105 -392h-2q-8 10 -25 71q9 40 30 122l68 266q28 108 71 186t87 86l22 4q37 7 62 -49
q22 -47 20 -86q-3 -53 -37 -80q-11 -8 -61 -34q-33 -17 -33 -42q0 -36 25 -63q17 -16 50 -49q45 -44 41 -136q-2 -43 -41 -85q33 8 52 17q32 15 54 41q55 67 92 167q5 -18 -2 -40q-23 -68 -75 -129q-66 -77 -133 -69q-40 -35 -101 -35q-30 0 -54 11q-32 14 -32 40
q0 20 23.5 35.5t44.5 15.5q22 0 44 -12q23 -16 31 -21q20 -11 33 -14zM193 52q0 -18 20 -28q17 -8 36 -8q42 0 64 26q-16 2 -48 19l-30 16q-42 5 -42 -25z" />
    <glyph glyph-name="registered" unicode="&#xae;" horiz-adv-x="374" 
d="M180 662q61 0 105 -44.5t44 -106.5q0 -63 -44 -106.5t-107 -43.5q-62 0 -106 44t-44 106q0 64 44 107.5t108 43.5zM177 643q-54 0 -92 -39t-38 -93t38.5 -93t92.5 -39q55 0 93 38.5t38 93.5t-38.5 93.5t-93.5 38.5zM156 513v-65h25v-16h-82v16h26v140q-1 1 -5 1
q-4 -1 -10.5 -1.5t-10.5 -0.5v17h83q64 0 64 -44q0 -31 -41 -42q18 -10 27 -49q2 -5 5 -14q2 -3 4 -3q7 0 7 23h15v-5q0 -41 -31 -41q-26 0 -31 33t-9 39q-8 12 -36 12zM156 529h22q34 0 34 30q0 29 -25 29h-31v-59z" />
    <glyph glyph-name="copyright" unicode="&#xa9;" horiz-adv-x="706" 
d="M338 -3q-138 0 -235.5 97.5t-97.5 235.5q0 142 98 238.5t240 96.5q136 0 232.5 -98.5t96.5 -235.5q0 -139 -97.5 -236.5t-236.5 -97.5zM335 633q-123 0 -209 -89t-86 -213q0 -126 86.5 -214t212.5 -88q125 0 212 88t87 213q0 128 -87.5 215.5t-215.5 87.5zM338 137
q-80 0 -130 57q-47 54 -47 135q0 78 50 138.5t127 60.5q42 0 92 -33l20 30h22v-156h-23q-17 67 -31 90q-26 43 -80 43q-106 0 -106 -176q0 -162 112 -162q94 0 116 115l27 -4q-21 -138 -149 -138z" />
    <glyph glyph-name="trademark" unicode="&#x2122;" horiz-adv-x="598" 
d="M512 630v-204l37 -1v-18h-109v18q8 0 35 1v196l-76 -214h-11l-82 214v-142q0 -29 5 -39q8 -15 33 -16v-18h-96v18q33 1 36 25q1 7 1 30v149h-36v20h88l66 -175l63 175h82l1 -19q-30 1 -37 0zM191 555q0 16 -5 46q-12 30 -45 30q-14 0 -14 -11v-196q20 1 28 1q8 -1 11 -1
v-17h-116v17h39v16q-1 5 -1 17v163q0 11 -13 11q-48 0 -49 -55q0 -9 -1 -21h-17v94h200v-94h-17z" />
    <glyph glyph-name="acute" unicode="&#xb4;" horiz-adv-x="333" 
d="M222 436l-88 -58l-7 10l65 82q18 22 33 18q23 -7 17 -28q-4 -13 -20 -24z" />
    <glyph glyph-name="dieresis" unicode="&#xa8;" horiz-adv-x="400" 
d="M286 413q0 16 10.5 27t26.5 11t26 -11t10 -27t-10 -27t-26 -11t-26.5 11t-10.5 27zM156 413q0 16 10.5 27t26.5 11t26 -11t10 -27t-10 -27t-26 -11t-26.5 11t-10.5 27z" />
    <glyph glyph-name="AE" unicode="&#xc6;" horiz-adv-x="1322" 
d="M1242 669q-64 0 -114 -43q-51 -46 -51 -109q0 -38 24 -63q205 67 205 154q0 61 -64 61zM921 550q-62 -164 -113 -312q24 -32 38 -65q22 91 135 152q85 45 201 65q-78 7 -124 39l-158 -47l14 21q35 9 135 38q-32 30 -32 76q0 70 86 125q64 41 154 41q93 0 93 -66
q0 -93 -240 -174q37 -33 104 -47l2 -4v-8l-2 -2q-115 -17 -199 -74q-105 -71 -105 -174q0 -63 44 -96q39 -29 104 -29q67 0 123 34q66 39 66 102q0 34 -22.5 53t-57.5 19q-62 0 -163 -79h-2l-4 6l1 4q116 98 203 98q39 0 67.5 -21.5t28.5 -59.5q0 -75 -98 -129
q-84 -46 -166 -46q-113 0 -164 65q0 -65 -11 -65q-10 0 -41 29q-59 54 -59 147q0 38 11 82q-35 33 -88 70q-51 -82 -89 -127q41 -2 81 1l3 -2l1 -8l-3 -2q-36 -7 -96 -5q-155 -171 -318 -171q-62 0 -116 25q-68 31 -68 87q0 40 33 62q27 18 70 18q71 0 134 -39l2 -5l-3 -6
l-3 -1q-62 30 -103 30q-79 0 -79 -68q0 -44 49 -68q39 -20 87 -20q111 0 248 157q-100 11 -172 46q-102 49 -102 130q0 53 47 80q38 22 95 22q131 0 268 -89q62 103 132 186q108 130 175 130q9 0 9 -9t-43 -122zM816 546q-30 -46 -125 -213q50 -38 82 -65q78 275 142 375
q-45 -15 -99 -97zM803 213q-11 -45 -11 -85q0 -72 41 -105q15 36 15 74v1q-5 17 -5 40v4q-10 36 -40 71zM408 435q-52 0 -89 -21q-45 -25 -45 -73q0 -73 94 -114q65 -28 155 -36q37 38 116 159q-130 85 -231 85z" />
    <glyph glyph-name="Oslash" unicode="&#xd8;" horiz-adv-x="807" 
d="M907 253q2 -4 -2 -18q-18 -32 -56 -81q-122 -155 -234 -155q-38 0 -74 18q-44 -20 -89 -20q-99 0 -159 75q-29 -28 -84 -81l-6 -6q-5 -4 -9 -5v20q-2 -1 -5 0l6 5q8 7 87 84q-36 54 -39 129q-160 62 -160 173q0 82 80 126q65 35 154 35q24 0 55 -3q126 145 258 145
q58 0 94.5 -33t36.5 -91v-7l109 108l14 -14l-126 -124q34 -42 34 -118q0 -109 -68 -221t-164 -168q28 -14 57 -14q78 0 167 88q48 48 123 153zM736 510l-50 -49l-12 16l61 61q-17 14 -42 14q-58 0 -122 -101q-43 -70 -72 -152q-12 -34 -19 -57q192 74 256 268zM748 570
q0 49 -34 78.5t-84 29.5q-106 0 -200 -134q39 -10 54 -16l2 -3l-2 -5l-3 -1q-21 4 -60 10q-93 -137 -122 -306q34 -8 58 -8q30 0 72 7l2 14q15 106 75 196q90 136 176 136q28 0 62 -21l2 1q2 19 2 22zM769 462q0 31 -15 58q-69 -215 -277 -295q-4 -32 -4 -56q0 -95 70 -136
q75 39 131 126q95 147 95 303zM359 532q-31 3 -42 3q-80 0 -133 -36q-62 -41 -62 -117q0 -97 120 -144q20 163 117 294zM525 26q-95 59 -96 177q-32 -3 -80 -3q-13 0 -44 7q-1 -22 -1 -40q0 -35 5 -52l38 38l12 -16l-42 -42q42 -85 141 -85q31 0 67 16zM359 137z" />
    <glyph glyph-name="plusminus" unicode="&#xb1;" horiz-adv-x="20" 
 />
    <glyph glyph-name="yen" unicode="&#xa5;" horiz-adv-x="417" 
d="M352 175l-9 -19h-87l-48 -156h-47l48 156h-78l7 19h77l12 41h-76l7 19h73q-10 33 -99 328h60l81 -290l179 290h32q3 0 -203 -328h91l-9 -19h-89l-12 -41h90z" />
    <glyph glyph-name="mu" unicode="&#xb5;" horiz-adv-x="821" 
d="M729 649q-75 0 -127 -117q-19 -45 -55 -180q61 20 129 74q109 86 109 164q0 59 -56 59zM309 83q-54 0 -107 -61q23 -15 55 -15q82 0 128 54q-38 22 -76 22zM285 183l169 46q20 56 29 87q-133 -32 -209 -32q-115 0 -167 13q-102 27 -102 108q0 87 95 128q70 31 170 31
q90 0 176 -17l3 -4l-1 -7l-3 -2q-107 16 -169 16q-87 0 -148 -29q-80 -39 -80 -116q0 -70 93 -93q47 -12 148 -12q53 0 201 34q32 142 70 213q65 122 170 122q83 0 83 -86q0 -137 -270 -249q-14 -43 -33 -90l145 39l-3 -22l-153 -44q-42 -95 -82 -150q146 -62 274 -62
q88 0 88 53q0 31 -27 47q-22 14 -55 14q-41 0 -77 -17h-2l-2 6l2 4q34 21 80 21q40 0 67 -20.5t27 -59.5q0 -48 -38 -73q-33 -21 -83 -21q-98 0 -266 93q-59 -58 -139 -58q-77 0 -142 46v3q75 54 163 54q54 0 106 -22q15 22 33 75q0 1 19 52q-160 -44 -160 -41v22z" />
    <glyph glyph-name="mu" unicode="&#x3bc;" horiz-adv-x="821" 
d="M729 649q-75 0 -127 -117q-19 -45 -55 -180q61 20 129 74q109 86 109 164q0 59 -56 59zM309 83q-54 0 -107 -61q23 -15 55 -15q82 0 128 54q-38 22 -76 22zM285 183l169 46q20 56 29 87q-133 -32 -209 -32q-115 0 -167 13q-102 27 -102 108q0 87 95 128q70 31 170 31
q90 0 176 -17l3 -4l-1 -7l-3 -2q-107 16 -169 16q-87 0 -148 -29q-80 -39 -80 -116q0 -70 93 -93q47 -12 148 -12q53 0 201 34q32 142 70 213q65 122 170 122q83 0 83 -86q0 -137 -270 -249q-14 -43 -33 -90l145 39l-3 -22l-153 -44q-42 -95 -82 -150q146 -62 274 -62
q88 0 88 53q0 31 -27 47q-22 14 -55 14q-41 0 -77 -17h-2l-2 6l2 4q34 21 80 21q40 0 67 -20.5t27 -59.5q0 -48 -38 -73q-33 -21 -83 -21q-98 0 -266 93q-59 -58 -139 -58q-77 0 -142 46v3q75 54 163 54q54 0 106 -22q15 22 33 75q0 1 19 52q-160 -44 -160 -41v22z" />
    <glyph glyph-name="ordfeminine" unicode="&#xaa;" horiz-adv-x="800" 
d="M644 -28q-66 0 -167 83q-49 43 -147 128q-155 -144 -270 -183h-4l-4 2v4q18 100 67 167q61 83 152 83q40 0 87 -23q134 158 301 456l-90 -65q-100 -1 -208 5l-134 7q-142 0 -142 -116q0 -52 30 -85t82 -33q62 0 139 61l4 1l4 -6l-1 -5q-78 -65 -150 -65q-60 0 -95 40
q-33 37 -33 98q0 86 66 130q56 38 147 38q40 0 121 -5.5t121 -5.5q129 0 170 53l3 1l7 -4l1 -3q-139 -263 -330 -507q40 -28 121 -106q65 -64 97 -87q45 -33 79 -33t53 22.5t19 57.5q0 68 -61 114q-49 36 -125 51l-3 5l2 5l4 2q213 -31 213 -160q0 -52 -37 -87t-89 -35z
M237 219q-135 0 -135 -182q111 52 213 157q-36 25 -78 25zM382 820l90 -59l116 60l8 -8l-116 -90h-26l-82 91z" />
    <glyph glyph-name="ordmasculine" unicode="&#xba;" horiz-adv-x="317" 
d="M411 234q-21 -46 -61 -104q-94 -136 -155 -136q-13 0 -51 10q-50 13 -84 18q-17 -25 -31 -25q-5 0 -5 1q0 5 2 8l29 62q6 12 22 9l167 185q-69 19 -97 19q-35 0 -54 -50q-3 -1 -5 -1q-3 0 -3 2q0 6 10.5 25.5t11.5 25.5q3 18 7 36q7 22 23 22q6 0 51 -10q50 -11 99 -19
l10 14q11 15 20 15t9 -2q0 -6 -16 -24l-217 -242q49 -14 85 -23q31 -8 46 -8q34 0 79 52q43 49 110 155q0 -7 -2 -15zM162 460l60 -59l116 60l8 -8l-116 -90h-26l-52 91z" />
    <glyph glyph-name="ae" unicode="&#xe6;" horiz-adv-x="510" 
d="M402 322q-50 0 -90 -78q-30 -60 -39 -122q62 15 108 56q53 47 53 105q0 39 -32 39zM218 125q-63 -124 -110 -124q-64 0 -64 100q0 92 80 177q54 58 104 58q7 0 14 -1q4 -1 74 -5q0 -6 -3 -27q50 38 98 38q30 0 50.5 -18t20.5 -47q0 -56 -80 -110q-57 -38 -129 -62
q0 -87 70 -87q127 0 256 234q1 -7 0 -19q-18 -34 -36 -61q-118 -177 -242 -177q-50 0 -78 36q-25 32 -25 84v11zM230 128q-2 3 -2 -4q1 1 2 4zM238 318q-40 0 -86 -76q-61 -101 -61 -169q0 -45 28 -45q40 0 105 135q10 39 34 77q14 34 27 71q-7 7 -47 7z" />
    <glyph glyph-name="oslash" unicode="&#xf8;" horiz-adv-x="371" 
d="M275 237l-181 -173q11 -54 57 -54t98 84q-7 16 -7 37q0 50 33 106zM91 89l190 182q-15 54 -58 54q-34 0 -69 -45q-25 -33 -42 -75q-22 -56 -22 -108q0 -4 1 -8zM9 3q0 8 37 44q-15 29 -15 68q0 76 60 149q63 77 137 77q50 0 78 -46l46 43l14 -15l-50 -47q10 -26 10 -58
q0 -55 -34 -119q5 -24 25 -24q45 0 160 175q-1 -7 -3 -17q-14 -26 -35 -57q-91 -134 -139 -134q-18 0 -34 19q-63 -68 -124 -68q-53 0 -84 37l-17 -18l-11 -11l-2 -3q-1 3 1 5h-20z" />
    <glyph glyph-name="questiondown" unicode="&#xbf;" horiz-adv-x="296" 
d="M201 109q37 53 53 111q6 4 9 4q4 0 5 -6q-12 -46 -60 -144q-24 -45 -71 -136q-48 -94 -48 -138q0 -37 24.5 -64t61.5 -27q51 0 89 61q29 45 42 106l1 2l9 -1l1 -3q-13 -73 -48 -124q-45 -62 -111 -62q-51 0 -90.5 37.5t-39.5 88.5q0 59 68 154q36 46 105 141zM262 352
q15 0 25.5 -11t10.5 -26t-10.5 -25.5t-25.5 -10.5q-37 0 -37 36q0 16 10.5 26.5t26.5 10.5z" />
    <glyph glyph-name="exclamdown" unicode="&#xa1;" horiz-adv-x="203" 
d="M174 245q3 2 5 2q3 0 4 -5l-137 -514l-69 1zM201 365q15 0 26 -10.5t11 -25.5t-11 -26t-26 -11t-25.5 11t-10.5 26t10.5 25.5t25.5 10.5z" />
    <glyph glyph-name="logicalnot" unicode="&#xac;" horiz-adv-x="20" 
 />
    <glyph glyph-name="florin" unicode="&#x192;" horiz-adv-x="16" 
 />
    <glyph glyph-name="guillemotleft" unicode="&#xab;" horiz-adv-x="460" 
d="M416 324l-166 -146l118 -156q6 6 6 9t-64 141q112 136 112 139t-6 13zM286 324l-166 -146l118 -156q6 6 6 9t-64 141q112 136 112 139t-6 13z" />
    <glyph glyph-name="guillemotright" unicode="&#xbb;" horiz-adv-x="460" 
d="M126 22l166 146l-118 156q-6 -6 -6 -9t63 -141q-111 -137 -111 -140t6 -12zM256 22l166 146l-118 156q-6 -6 -6 -9t63 -141q-111 -137 -111 -140t6 -12z" />
    <glyph glyph-name="ellipsis" unicode="&#x2026;" horiz-adv-x="540" 
d="M301 0q-13 0 -32 9q-22 10 -22 22q0 6 10 28t14 22q6 0 44 -26q4 -3 4 -9q0 -46 -18 -46zM461 0q-13 0 -32 9q-22 10 -22 22q0 6 10 28t14 22q6 0 44 -26q4 -3 4 -9q0 -46 -18 -46zM141 0q-13 0 -32 9q-22 10 -22 22q0 6 10 28t14 22q6 0 44 -26q4 -3 4 -9q0 -46 -18 -46
z" />
    <glyph glyph-name="nonbreakingspace" unicode="&#xa0;" horiz-adv-x="180" 
 />
    <glyph glyph-name="Agrave" unicode="&#xc0;" horiz-adv-x="907" 
d="M921 550q-62 -164 -113 -312q62 -83 62 -179q0 -69 -11 -69q-10 0 -41 29q-59 54 -59 147q0 38 11 82q-35 33 -88 70q-51 -82 -89 -127q41 -2 81 1l3 -2l1 -8l-3 -2q-36 -7 -96 -5q-155 -171 -318 -171q-62 0 -116 25q-68 31 -68 87q0 40 33 62q27 18 70 18q71 0 134 -39
l2 -5l-3 -6l-3 -1q-62 30 -103 30q-79 0 -79 -68q0 -44 49 -68q39 -20 87 -20q111 0 248 157q-100 11 -172 46q-102 49 -102 130q0 53 47 80q38 22 95 22q131 0 268 -89q62 103 132 186q108 130 175 130q9 0 9 -9t-43 -122zM816 546q-30 -46 -125 -213q50 -38 82 -65
q78 275 142 375q-45 -15 -99 -97zM803 213q-11 -45 -11 -85q0 -72 41 -105q15 36 15 74q0 62 -45 116zM408 435q-52 0 -89 -21q-45 -25 -45 -73q0 -73 94 -114q65 -28 155 -36q37 38 116 159q-130 85 -231 85zM996 708l-88 58q-15 10 -19 24q-6 21 17 28q14 4 32 -18l65 -82
z" />
    <glyph glyph-name="Atilde" unicode="&#xc3;" horiz-adv-x="900" 
d="M921 550q-62 -164 -113 -312q62 -83 62 -179q0 -69 -11 -69q-10 0 -41 29q-59 54 -59 147q0 38 11 82q-35 33 -88 70q-51 -82 -89 -127q41 -2 81 1l3 -2l1 -8l-3 -2q-36 -7 -96 -5q-155 -171 -318 -171q-62 0 -116 25q-68 31 -68 87q0 40 33 62q27 18 70 18q71 0 134 -39
l2 -5l-3 -6l-3 -1q-62 30 -103 30q-79 0 -79 -68q0 -44 49 -68q39 -20 87 -20q111 0 248 157q-100 11 -172 46q-102 49 -102 130q0 53 47 80q38 22 95 22q131 0 268 -89q62 103 132 186q108 130 175 130q9 0 9 -9t-43 -122zM816 546q-30 -46 -125 -213q50 -38 82 -65
q78 275 142 375q-45 -15 -99 -97zM803 213q-11 -45 -11 -85q0 -72 41 -105q15 36 15 74q0 62 -45 116zM408 435q-52 0 -89 -21q-45 -25 -45 -73q0 -73 94 -114q65 -28 155 -36q37 38 116 159q-130 85 -231 85zM972 706q-19 1 -65 18q-11 7 -44 16q-45 3 -56 -34l-16 1
q25 77 86 73q12 -1 23 -6q16 -8 23 -10q23 -8 67 -18q40 -3 53 36l15 -1q-25 -79 -86 -75z" />
    <glyph glyph-name="Otilde" unicode="&#xd5;" horiz-adv-x="729" 
d="M769 154q-62 -79 -116 -116q-57 -39 -118 -39q-38 0 -74 18q-44 -20 -89 -20q-93 0 -151 65q-54 61 -58 156q-160 62 -160 173q0 82 80 126q65 35 154 35q24 0 55 -3q126 145 258 145q58 0 94.5 -33t36.5 -91q0 -16 -4 -36q35 -41 35 -119q0 -109 -68 -221t-164 -168
q28 -14 57 -14q78 0 167 88q48 48 123 153q2 -5 -3 -21q-23 -37 -55 -78zM613 552q-68 0 -138 -126q-50 -90 -75 -184q97 38 166 113.5t96 175.5q-19 21 -49 21zM550 678q-106 0 -200 -134q39 -10 54 -16l2 -3l-2 -5l-3 -1q-21 4 -60 10q-93 -137 -122 -306q34 -8 58 -8
q31 0 72 8q14 114 77 209q90 136 176 136q29 0 64 -22q2 21 2 24q0 49 -34 78.5t-84 29.5zM674 520q-69 -215 -277 -295q-4 -32 -4 -56q0 -95 70 -136q75 39 131 126q95 147 95 303q0 31 -15 58zM237 535q-80 0 -133 -36q-62 -41 -62 -117q0 -97 120 -144q20 163 117 294
q-31 3 -42 3zM348 209q-30 -7 -79 -7q-30 0 -52 5q-5 -84 35 -138q44 -59 126 -59q31 0 67 16q-97 60 -97 183zM642 716q-19 1 -65 18q-11 7 -44 16q-45 3 -56 -34l-16 1q25 77 86 73q12 -1 23 -6q16 -8 23 -10q23 -8 67 -18q40 -3 53 36l15 -1q-25 -79 -86 -75z" />
    <glyph glyph-name="OE" unicode="&#x152;" horiz-adv-x="1118" 
d="M472 481q72 87 140 87q29 0 64 -22q2 21 2 24q0 49 -34 78.5t-84 29.5q-106 0 -200 -134q27 -13 68 -30q21 -19 44 -33zM461 467q-26 19 -53 37t-61 22q-88 -130 -118 -303q34 -8 58 -8q31 0 72 8q14 114 77 209q9 14 25 35zM613 133q-53 -67 -123 -107q18 -9 57 -14
l-2 -13q-25 3 -74 18q-44 -20 -89 -20q-93 0 -151 65q-54 61 -58 156q-160 62 -160 173q0 82 80 126q65 35 154 35q24 0 55 -3q126 145 258 145q58 0 94.5 -33t36.5 -91q0 -16 -4 -36q32 -38 35 -107q50 6 102 21q-37 35 -37 69q0 70 86 125q64 41 154 41q93 0 93 -66
q0 -93 -240 -174q37 -33 104 -47l2 -4v-8l-2 -2q-115 -17 -199 -74q-105 -71 -105 -174q0 -63 44 -96q39 -29 104 -29q67 0 123 34q66 39 66 102q0 34 -22.5 53t-57.5 19q-62 0 -163 -79h-2l-4 6l1 4q116 98 203 98q39 0 67.5 -21.5t28.5 -59.5q0 -75 -98 -129
q-84 -46 -166 -46q-76 0 -128 33q-61 38 -63 110zM722 407q-1 -55 -22 -115q91 70 252 98q-78 7 -124 39q-58 -17 -106 -22zM1076 608q0 61 -64 61t-114 -43q-51 -46 -51 -109q0 -38 24 -63q205 67 205 154zM496 446q-54 -84 -86 -204q129 50 205 163q-56 8 -119 41z
M672 531q-19 21 -49 21q-53 0 -117 -91q54 -28 120 -39q30 51 46 109zM629 403q-78 -123 -222 -178q-4 -32 -4 -56q0 -95 70 -136q83 42 148 154q8 27 26 51q38 83 49 166q-1 0 -46 -1h-21zM699 462q0 31 -15 58q-18 -54 -44 -99q29 0 58 3q1 19 1 38zM289 532q-31 3 -42 3
q-80 0 -133 -36q-62 -41 -62 -117q0 -97 120 -144q20 163 117 294zM455 26q-97 60 -97 183q-30 -7 -79 -7q-30 0 -52 5q-5 -84 35 -138q44 -59 126 -59q31 0 67 16z" />
    <glyph glyph-name="oe" unicode="&#x153;" horiz-adv-x="524" 
d="M308 177q0 -15 -4 -44q60 16 101 56q46 46 46 104q0 39 -32 39q-39 0 -74 -61q-24 -43 -37 -94zM261 54q-59 -61 -119 -61q-53 0 -82 34t-29 88q0 76 60 149q63 77 137 77q57 0 82 -57q55 67 118 67q30 0 50.5 -18t20.5 -47q0 -58 -74 -110q-54 -39 -125 -62
q0 -87 70 -87q127 0 256 234q1 -7 0 -19q-18 -34 -36 -61q-118 -177 -242 -177q-60 0 -87 50zM223 325q-34 0 -69 -45q-25 -33 -42 -75q-22 -56 -22 -108q0 -87 61 -87q46 0 97 83q-1 3 -1 7q-3 6 -3 37q0 55 41 117q-12 71 -62 71z" />
    <glyph glyph-name="endash" unicode="&#x2013;" horiz-adv-x="521" 
d="M120 182h400l17 44h-400z" />
    <glyph glyph-name="emdash" unicode="&#x2014;" horiz-adv-x="944" 
d="M120 182l17 44h800l-17 -44h-800z" />
    <glyph glyph-name="quotedblleft" unicode="&#x201c;" horiz-adv-x="442" 
d="M340 666l-3 -17q-75 -46 -75 -83q0 -22 23 -22q4 0 7.5 6t6.5 7l9 -8l-10 -43q-9 -19 -34 -19q-41 0 -41 46q0 67 117 133zM470 666l-3 -17q-75 -46 -75 -83q0 -22 23 -22q4 0 7.5 6t6.5 7l9 -8l-10 -43q-9 -19 -34 -19q-41 0 -41 46q0 67 117 133z" />
    <glyph glyph-name="quotedblright" unicode="&#x201d;" horiz-adv-x="453" 
d="M333 487l4 17q74 46 74 83q0 22 -22 22q-4 0 -7.5 -6t-6.5 -7l-9 9l10 42q9 19 34 19q40 0 40 -45q0 -68 -117 -134zM203 487l4 17q74 46 74 83q0 22 -22 22q-4 0 -7.5 -6t-6.5 -7l-9 9l10 42q9 19 34 19q40 0 40 -45q0 -68 -117 -134z" />
    <glyph glyph-name="quoteleft" unicode="&#x2018;" horiz-adv-x="243" 
d="M190 666l-3 -17q-75 -46 -75 -83q0 -22 23 -22q4 0 7.5 6t6.5 7l9 -8l-10 -43q-9 -19 -34 -19q-41 0 -41 46q0 67 117 133z" />
    <glyph glyph-name="quoteright" unicode="&#x2019;" horiz-adv-x="202" 
d="M120 487l4 17q74 46 74 83q0 22 -22 22q-4 0 -7.5 -6t-6.5 -7l-9 9l10 42q9 19 34 19q40 0 40 -45q0 -68 -117 -134z" />
    <glyph glyph-name="divide" unicode="&#xf7;" horiz-adv-x="13" 
 />
    <glyph glyph-name="ydieresis" unicode="&#xff;" horiz-adv-x="410" 
d="M453 158q-115 -155 -183 -207q-45 -186 -165 -235h-4q-5 19 -5 39q0 106 134 211q5 48 59 246q-117 -209 -201 -209q-44 0 -44 54q0 17 12 57l59 197q3 11 16 13l34 5q4 1 4 -1q1 -2 -1 -8l-64 -224q-6 -21 -6 -42t20 -21q51 0 148 168q21 36 47 93q14 30 22 31l37 5
q4 1 5 -2q-5 -16 -31 -94q-37 -114 -70 -258q114 102 227 268v-12q-19 -32 -50 -74zM130 -210q0 -15 8 -39q72 42 91 193q-99 -74 -99 -154zM286 413q0 16 10.5 27t26.5 11t26 -11t10 -27t-10 -27t-26 -11t-26.5 11t-10.5 27zM156 413q0 16 10.5 27t26.5 11t26 -11t10 -27
t-10 -27t-26 -11t-26.5 11t-10.5 27z" />
    <glyph glyph-name="Ydieresis" unicode="&#x178;" horiz-adv-x="881" 
d="M831 273q-58 -277 -121 -395q-74 -137 -199 -157l-3 2q-6 15 -6 35q0 85 89 155h5l4 -4l-1 -4q-55 -50 -55 -113q0 -22 6 -42q85 23 136 148q26 66 53 205l83 430q-137 -281 -214 -391q-90 -130 -164 -130q-43 0 -65 30q-20 27 -20 71q0 30 14 79l69 240q12 42 12 73
q0 75 -60 116q-52 35 -131 35q-69 0 -123 -32q-65 -38 -65 -103q0 -57 49 -88q42 -27 102 -27q39 0 78 14l5 -1l1 -7l-1 -5q-52 -21 -109 -21q-71 0 -119 32q-56 37 -56 105q0 81 80 121q61 30 151 30q97 0 168 -41q87 -49 87 -139q0 -29 -20 -98l-53 -183q-21 -73 -21 -113
q0 -61 47 -61q88 0 237 287l70 135q40 80 62 138q8 22 20 25l43 10q5 1 7 -2t0 -12zM710 720q0 19 13 33.5t32 14.5q20 0 32.5 -14t12.5 -34t-13 -34.5t-32 -14.5t-32 15t-13 34zM520 720q0 19 13 33.5t32 14.5q20 0 32.5 -14t12.5 -34t-13 -34.5t-32 -14.5t-32 15t-13 34z
" />
    <glyph glyph-name="currency" unicode="&#xa4;" horiz-adv-x="13" 
 />
    <glyph glyph-name="guilsinglleft" unicode="&#x2039;" horiz-adv-x="330" 
d="M286 324l-166 -146l118 -156q6 6 6 9t-64 141q112 136 112 139t-6 13z" />
    <glyph glyph-name="guilsinglright" unicode="&#x203a;" horiz-adv-x="323" 
d="M126 22l166 146l-118 156q-6 -6 -6 -9t63 -141q-111 -137 -111 -140t6 -12z" />
    <glyph glyph-name="daggerdbl" unicode="&#x2021;" horiz-adv-x="478" 
 />
    <glyph glyph-name="periodcentered" unicode="&#xb7;" horiz-adv-x="305" 
d="M148 200q0 21 15.5 36t36.5 15q22 0 37.5 -14.5t15.5 -36.5t-15.5 -36.5t-37.5 -14.5q-21 0 -36.5 15t-15.5 36z" />
    <glyph glyph-name="periodcentered" unicode="&#x2219;" horiz-adv-x="305" 
d="M148 200q0 21 15.5 36t36.5 15q22 0 37.5 -14.5t15.5 -36.5t-15.5 -36.5t-37.5 -14.5q-21 0 -36.5 15t-15.5 36z" />
    <glyph glyph-name="quotesinglbase" unicode="&#x201a;" horiz-adv-x="243" 
d="M53 -93l4 17q74 46 74 83q0 22 -22 22q-4 0 -7.5 -6t-6.5 -7l-9 9l10 42q9 19 34 19q40 0 40 -45q0 -68 -117 -134z" />
    <glyph glyph-name="quotedblbase" unicode="&#x201e;" horiz-adv-x="353" 
d="M193 -93l4 17q74 46 74 83q0 22 -22 22q-4 0 -7.5 -6t-6.5 -7l-9 9l10 42q9 19 34 19q40 0 40 -45q0 -68 -117 -134zM53 -93l4 17q74 46 74 83q0 22 -22 22q-4 0 -7.5 -6t-6.5 -7l-9 9l10 42q9 19 34 19q40 0 40 -45q0 -68 -117 -134z" />
    <glyph glyph-name="perthousand" unicode="&#x2030;" horiz-adv-x="17" 
 />
    <glyph glyph-name="Acircumflex" unicode="&#xc2;" horiz-adv-x="901" 
d="M921 550q-62 -164 -113 -312q62 -83 62 -179q0 -69 -11 -69q-10 0 -41 29q-59 54 -59 147q0 38 11 82q-35 33 -88 70q-51 -82 -89 -127q41 -2 81 1l3 -2l1 -8l-3 -2q-36 -7 -96 -5q-155 -171 -318 -171q-62 0 -116 25q-68 31 -68 87q0 40 33 62q27 18 70 18q71 0 134 -39
l2 -5l-3 -6l-3 -1q-62 30 -103 30q-79 0 -79 -68q0 -44 49 -68q39 -20 87 -20q111 0 248 157q-100 11 -172 46q-102 49 -102 130q0 53 47 80q38 22 95 22q131 0 268 -89q62 103 132 186q108 130 175 130q9 0 9 -9t-43 -122zM816 546q-30 -46 -125 -213q50 -38 82 -65
q78 275 142 375q-45 -15 -99 -97zM803 213q-11 -45 -11 -85q0 -72 41 -105q15 36 15 74q0 62 -45 116zM408 435q-52 0 -89 -21q-45 -25 -45 -73q0 -73 94 -114q65 -28 155 -36q37 38 116 159q-130 85 -231 85zM1027 704l-60 58l-117 -59l-8 8l117 90h25l52 -92z" />
    <glyph glyph-name="Ecircumflex" unicode="&#xca;" horiz-adv-x="686" 
d="M470 443q37 -33 104 -47l2 -4v-8l-2 -2q-115 -17 -199 -74q-105 -71 -105 -174q0 -63 44 -96q39 -29 104 -29q67 0 123 34q66 39 66 102q0 34 -22.5 53t-57.5 19q-62 0 -163 -79h-2l-4 6l1 4q116 98 203 98q39 0 67.5 -21.5t28.5 -59.5q0 -75 -98 -129q-84 -46 -166 -46
q-78 0 -130 34q-61 40 -61 114q0 107 122 178q89 52 217 74q-78 7 -124 39q-107 -31 -195 -31q-86 0 -146 28q-80 37 -80 113q0 71 72 108q57 30 135 30q80 0 175 -29l2 -3l-1 -6l-4 -1q-87 25 -158 25q-70 0 -113 -29q-51 -34 -51 -100q0 -121 181 -121q79 0 174 28
q-32 30 -32 76q0 70 86 125q64 41 154 41q93 0 93 -66q0 -93 -240 -174zM602 669q-64 0 -114 -43q-51 -46 -51 -109q0 -38 24 -63q205 67 205 154q0 61 -64 61zM717 704l-60 58l-117 -59l-8 8l117 90h25l52 -92z" />
    <glyph glyph-name="Aacute" unicode="&#xc1;" horiz-adv-x="901" 
d="M921 550q-62 -164 -113 -312q62 -83 62 -179q0 -69 -11 -69q-10 0 -41 29q-59 54 -59 147q0 38 11 82q-35 33 -88 70q-51 -82 -89 -127q41 -2 81 1l3 -2l1 -8l-3 -2q-36 -7 -96 -5q-155 -171 -318 -171q-62 0 -116 25q-68 31 -68 87q0 40 33 62q27 18 70 18q71 0 134 -39
l2 -5l-3 -6l-3 -1q-62 30 -103 30q-79 0 -79 -68q0 -44 49 -68q39 -20 87 -20q111 0 248 157q-100 11 -172 46q-102 49 -102 130q0 53 47 80q38 22 95 22q131 0 268 -89q62 103 132 186q108 130 175 130q9 0 9 -9t-43 -122zM816 546q-30 -46 -125 -213q50 -38 82 -65
q78 275 142 375q-45 -15 -99 -97zM803 213q-11 -45 -11 -85q0 -72 41 -105q15 36 15 74q0 62 -45 116zM408 435q-52 0 -89 -21q-45 -25 -45 -73q0 -73 94 -114q65 -28 155 -36q37 38 116 159q-130 85 -231 85zM995 764l-88 -58l-7 10l65 82q18 22 33 18q22 -6 16 -28
q-3 -14 -19 -24z" />
    <glyph glyph-name="Edieresis" unicode="&#xcb;" horiz-adv-x="686" 
d="M710 617q0 -93 -240 -174q37 -33 104 -47l2 -4v-8l-2 -2q-115 -17 -199 -74q-105 -71 -105 -174q0 -63 44 -96q39 -29 104 -29q67 0 123 34q66 39 66 102q0 34 -22.5 53t-57.5 19q-62 0 -163 -79h-2l-4 6l1 4q116 98 203 98q39 0 67.5 -21.5t28.5 -59.5q0 -75 -98 -129
q-84 -46 -166 -46q-78 0 -130 34q-61 40 -61 114q0 107 122 178q89 52 217 74q-78 7 -124 39q-107 -31 -195 -31q-86 0 -146 28q-80 37 -80 113q0 71 72 108q57 30 135 30q80 0 175 -29l2 -3l-1 -6l-4 -1q-87 25 -158 25q-70 0 -113 -29q-51 -34 -51 -100q0 -121 181 -121
q79 0 174 28q-32 30 -32 76q0 70 86 125q64 41 154 41q93 0 93 -66zM666 608q0 61 -64 61t-114 -43q-51 -46 -51 -109q0 -38 24 -63q205 67 205 154zM675 716q-17 0 -28.5 13.5t-11.5 30.5t11.5 30t28.5 13t28.5 -12.5t11.5 -30.5t-11.5 -31t-28.5 -13zM515 716
q-17 0 -28.5 13.5t-11.5 30.5t11.5 30t28.5 13t28.5 -12.5t11.5 -30.5t-11.5 -31t-28.5 -13z" />
    <glyph glyph-name="Egrave" unicode="&#xc8;" horiz-adv-x="696" 
d="M470 443q37 -33 104 -47l2 -4v-8l-2 -2q-115 -17 -199 -74q-105 -71 -105 -174q0 -63 44 -96q39 -29 104 -29q67 0 123 34q66 39 66 102q0 34 -22.5 53t-57.5 19q-62 0 -163 -79h-2l-4 6l1 4q116 98 203 98q39 0 67.5 -21.5t28.5 -59.5q0 -75 -98 -129q-84 -46 -166 -46
q-78 0 -130 34q-61 40 -61 114q0 107 122 178q89 52 217 74q-78 7 -124 39q-107 -31 -195 -31q-86 0 -146 28q-80 37 -80 113q0 71 72 108q57 30 135 30q80 0 175 -29l2 -3l-1 -6l-4 -1q-87 25 -158 25q-70 0 -113 -29q-51 -34 -51 -100q0 -121 181 -121q79 0 174 28
q-32 30 -32 76q0 70 86 125q64 41 154 41q93 0 93 -66q0 -93 -240 -174zM602 669q-64 0 -114 -43q-51 -46 -51 -109q0 -38 24 -63q205 67 205 154q0 61 -64 61zM636 708l-88 58q-15 10 -19 24q-6 21 17 28q14 4 32 -18l65 -82z" />
    <glyph glyph-name="Iacute" unicode="&#xcd;" horiz-adv-x="569" 
d="M552 266q-38 -112 -99 -182q-111 -128 -234 -128q-93 0 -93 73q0 43 39 76q35 28 81 36l2 -2l1 -5l-1 -4q-77 -27 -77 -83q0 -32 23 -50t56 -18q96 0 170 106q100 142 100 350q0 66 -19 118q-35 -79 -104 -125t-155 -46q-15 0 -25 1q-45 -63 -79 -138l-4 -2l-6 3l-1 4
q22 62 74 137q-59 7 -101 39q-48 37 -48 93q0 83 100 127q78 35 171 35q118 0 188 -61q74 -64 74 -180q0 -78 -33 -174zM309 664q-76 0 -136 -32q-73 -39 -73 -109q0 -90 114 -118q147 160 286 149q-46 110 -191 110zM233 403q75 -5 130 26q59 34 83 102q-105 -13 -213 -128
zM422 756l-88 -58l-7 10l65 82q18 22 33 18q23 -7 17 -28q-4 -13 -20 -24z" />
    <glyph glyph-name="Icircumflex" unicode="&#xce;" horiz-adv-x="573" 
d="M552 266q-38 -112 -99 -182q-111 -128 -234 -128q-93 0 -93 73q0 43 39 76q35 28 81 36l2 -2l1 -5l-1 -4q-77 -27 -77 -83q0 -32 23 -50t56 -18q96 0 170 106q100 142 100 350q0 66 -19 118q-35 -79 -104 -125t-155 -46q-15 0 -25 1q-45 -63 -79 -138l-4 -2l-6 3l-1 4
q22 62 74 137q-59 7 -101 39q-48 37 -48 93q0 83 100 127q78 35 171 35q118 0 188 -61q74 -64 74 -180q0 -78 -33 -174zM309 664q-76 0 -136 -32q-73 -39 -73 -109q0 -90 114 -118q147 160 286 149q-46 110 -191 110zM233 403q75 -5 130 26q59 34 83 102q-105 -13 -213 -128
zM427 704l-60 58l-117 -59l-8 8l117 90h25l52 -92z" />
    <glyph glyph-name="Idieresis" unicode="&#xcf;" horiz-adv-x="573" 
d="M552 266q-38 -112 -99 -182q-111 -128 -234 -128q-93 0 -93 73q0 43 39 76q35 28 81 36l2 -2l1 -5l-1 -4q-77 -27 -77 -83q0 -32 23 -50t56 -18q96 0 170 106q100 142 100 350q0 66 -19 118q-35 -79 -104 -125t-155 -46q-15 0 -25 1q-45 -63 -79 -138l-4 -2l-6 3l-1 4
q22 62 74 137q-59 7 -101 39q-48 37 -48 93q0 83 100 127q78 35 171 35q118 0 188 -61q74 -64 74 -180q0 -78 -33 -174zM309 664q-76 0 -136 -32q-73 -39 -73 -109q0 -90 114 -118q147 160 286 149q-46 110 -191 110zM233 403q75 -5 130 26q59 34 83 102q-105 -13 -213 -128
zM455 716q-17 0 -28.5 13.5t-11.5 30.5t11.5 30t28.5 13t28.5 -12.5t11.5 -30.5t-11.5 -31t-28.5 -13zM295 716q-17 0 -28.5 13.5t-11.5 30.5t11.5 30t28.5 13t28.5 -12.5t11.5 -30.5t-11.5 -31t-28.5 -13z" />
    <glyph glyph-name="Igrave" unicode="&#xcc;" horiz-adv-x="569" 
d="M552 266q-38 -112 -99 -182q-111 -128 -234 -128q-93 0 -93 73q0 43 39 76q35 28 81 36l2 -2l1 -5l-1 -4q-77 -27 -77 -83q0 -32 23 -50t56 -18q96 0 170 106q100 142 100 350q0 66 -19 118q-35 -79 -104 -125t-155 -46q-15 0 -25 1q-45 -63 -79 -138l-4 -2l-6 3l-1 4
q22 62 74 137q-59 7 -101 39q-48 37 -48 93q0 83 100 127q78 35 171 35q118 0 188 -61q74 -64 74 -180q0 -78 -33 -174zM309 664q-76 0 -136 -32q-73 -39 -73 -109q0 -90 114 -118q147 160 286 149q-46 110 -191 110zM233 403q75 -5 130 26q59 34 83 102q-105 -13 -213 -128
zM436 708l-88 58q-15 10 -19 24q-6 21 17 28q14 4 32 -18l65 -82z" />
    <glyph glyph-name="Oacute" unicode="&#xd3;" horiz-adv-x="726" 
d="M769 154q-60 -73 -101 -105q-65 -50 -133 -50q-38 0 -74 18q-44 -20 -89 -20q-93 0 -151 65q-54 61 -58 156q-160 62 -160 173q0 82 80 126q65 35 154 35q24 0 55 -3q126 145 258 145q58 0 94.5 -33t36.5 -91q0 -16 -4 -36q35 -41 35 -119q0 -109 -68 -221t-164 -168
q28 -14 57 -14q78 0 167 88q48 48 123 153q6 -21 -58 -99zM613 552q-68 0 -138 -126q-50 -90 -75 -184q97 38 166 113.5t96 175.5q-19 21 -49 21zM550 678q-106 0 -200 -134q39 -10 54 -16l2 -3l-2 -5l-3 -1q-21 4 -60 10q-93 -137 -122 -306q34 -8 58 -8q31 0 72 8
q14 114 77 209q90 136 176 136q29 0 64 -22q2 21 2 24q0 49 -34 78.5t-84 29.5zM674 520q-69 -215 -277 -295q-4 -32 -4 -56q0 -95 70 -136q75 39 131 126q95 147 95 303q0 31 -15 58zM237 535q-80 0 -133 -36q-62 -41 -62 -117q0 -97 120 -144q20 163 117 294q-31 3 -42 3z
M348 209q-30 -7 -79 -7q-30 0 -52 5q-5 -84 35 -138q44 -59 126 -59q31 0 67 16q-97 60 -97 183zM642 776l-88 -58l-7 10l65 82q18 22 33 18q23 -7 17 -28q-4 -13 -20 -24z" />
    <glyph glyph-name="Ocircumflex" unicode="&#xd4;" horiz-adv-x="730" 
d="M769 154q-60 -73 -101 -105q-65 -50 -133 -50q-38 0 -74 18q-44 -20 -89 -20q-93 0 -151 65q-54 61 -58 156q-160 62 -160 173q0 82 80 126q65 35 154 35q24 0 55 -3q126 145 258 145q58 0 94.5 -33t36.5 -91q0 -16 -4 -36q35 -41 35 -119q0 -109 -68 -221t-164 -168
q28 -14 57 -14q78 0 167 88q48 48 123 153q6 -21 -58 -99zM613 552q-68 0 -138 -126q-50 -90 -75 -184q97 38 166 113.5t96 175.5q-19 21 -49 21zM550 678q-106 0 -200 -134q39 -10 54 -16l2 -3l-2 -5l-3 -1q-21 4 -60 10q-93 -137 -122 -306q34 -8 58 -8q31 0 72 8
q14 114 77 209q90 136 176 136q29 0 64 -22q2 21 2 24q0 49 -34 78.5t-84 29.5zM674 520q-69 -215 -277 -295q-4 -32 -4 -56q0 -95 70 -136q75 39 131 126q95 147 95 303q0 31 -15 58zM237 535q-80 0 -133 -36q-62 -41 -62 -117q0 -97 120 -144q20 163 117 294q-31 3 -42 3z
M348 209q-30 -7 -79 -7q-30 0 -52 5q-5 -84 35 -138q44 -59 126 -59q31 0 67 16q-97 60 -97 183zM647 704l-60 58l-117 -59l-8 8l117 90h25l52 -92z" />
    <glyph glyph-name="Ograve" unicode="&#xd2;" horiz-adv-x="726" 
d="M769 154q-60 -73 -101 -105q-65 -50 -133 -50q-38 0 -74 18q-44 -20 -89 -20q-93 0 -151 65q-54 61 -58 156q-160 62 -160 173q0 82 80 126q65 35 154 35q24 0 55 -3q126 145 258 145q58 0 94.5 -33t36.5 -91q0 -16 -4 -36q35 -41 35 -119q0 -109 -68 -221t-164 -168
q28 -14 57 -14q78 0 167 88q48 48 123 153q6 -21 -58 -99zM613 552q-68 0 -138 -126q-50 -90 -75 -184q97 38 166 113.5t96 175.5q-19 21 -49 21zM550 678q-106 0 -200 -134q39 -10 54 -16l2 -3l-2 -5l-3 -1q-21 4 -60 10q-93 -137 -122 -306q34 -8 58 -8q31 0 72 8
q14 114 77 209q90 136 176 136q29 0 64 -22q2 21 2 24q0 49 -34 78.5t-84 29.5zM674 520q-69 -215 -277 -295q-4 -32 -4 -56q0 -95 70 -136q75 39 131 126q95 147 95 303q0 31 -15 58zM237 535q-80 0 -133 -36q-62 -41 -62 -117q0 -97 120 -144q20 163 117 294q-31 3 -42 3z
M348 209q-30 -7 -79 -7q-30 0 -52 5q-5 -84 35 -138q44 -59 126 -59q31 0 67 16q-97 60 -97 183zM646 708l-88 58q-15 10 -19 24q-6 21 17 28q14 4 32 -18l65 -82z" />
    <glyph glyph-name="Uacute" unicode="&#xda;" horiz-adv-x="898" 
d="M784 -6q-70 0 -70 105q0 36 13 106q-141 -207 -266 -207q-36 0 -59 22t-23 58q0 32 18 92l77 257q17 57 17 92q0 82 -67 124q-57 36 -143 36q-77 0 -128 -30q-63 -36 -63 -108q0 -71 69 -109q56 -31 133 -31q23 0 48 3l3 -2l1 -6l-2 -5q-25 -4 -64 -4q-91 0 -157 37
q-81 46 -81 130q0 77 67 116q55 32 138 32q105 0 193 -45q109 -56 109 -150q0 -31 -30 -129l-70 -228q-12 -39 -12 -72q0 -24 18 -39.5t43 -15.5q85 0 210 177q28 40 29 43q6 24 23 86q72 262 155 341h3q2 -9 2 -17q0 -114 -85 -281q-15 -24 -40 -71q-12 -27 -23 -101
q-11 -69 -11 -104q0 -79 43 -79q50 0 210 241q1 -3 1 -7q0 -8 -2 -18q-41 -75 -97 -143q-79 -96 -130 -96zM674 698l-7 10l65 82q14 18 27 18q23 0 23 -23q0 -16 -20 -29z" />
    <glyph glyph-name="Ucircumflex" unicode="&#xdb;" horiz-adv-x="898" 
d="M960 151q-114 -157 -176 -157q-70 0 -70 105q0 36 13 106q-141 -207 -266 -207q-37 0 -59.5 21.5t-22.5 58.5q0 32 18 92l77 257q17 57 17 92q0 81 -67 124q-57 36 -143 36q-77 0 -128 -30q-63 -36 -63 -108t69 -109q55 -31 133 -31q23 0 48 3l3 -2l1 -6l-2 -5
q-25 -4 -64 -4q-92 0 -157 37q-81 45 -81 130q0 77 67 116q56 32 138 32q126 0 219 -60q83 -53 83 -135q0 -31 -30 -129l-70 -228q-12 -39 -12 -72q0 -24 18 -39.5t43 -15.5q96 0 239 220q81 335 178 427h3q2 -9 2 -17q0 -56 -28 -143q-35 -108 -97 -209q-34 -143 -34 -205
q0 -79 43 -79q50 0 210 241q2 -9 -1 -25q-27 -49 -51 -82zM787 704l-60 58l-117 -59l-8 8l117 90h25l52 -92z" />
    <glyph glyph-name="Ugrave" unicode="&#xd9;" horiz-adv-x="898" 
d="M960 151q-114 -157 -176 -157q-70 0 -70 105q0 36 13 106q-141 -207 -266 -207q-37 0 -59.5 21.5t-22.5 58.5q0 32 18 92l77 257q17 57 17 92q0 81 -67 124q-57 36 -143 36q-77 0 -128 -30q-63 -36 -63 -108t69 -109q55 -31 133 -31q23 0 48 3l3 -2l1 -6l-2 -5
q-25 -4 -64 -4q-92 0 -157 37q-81 45 -81 130q0 77 67 116q56 32 138 32q126 0 219 -60q83 -53 83 -135q0 -31 -30 -129l-70 -228q-12 -39 -12 -72q0 -24 18 -39.5t43 -15.5q96 0 239 220q81 335 178 427h3q2 -9 2 -17q0 -56 -28 -143q-35 -108 -97 -209q-34 -143 -34 -205
q0 -79 43 -79q50 0 210 241q2 -9 -1 -25q-27 -49 -51 -82zM716 688l-88 58q-15 10 -19 24q-6 21 17 28q14 4 32 -18l65 -82z" />
    <glyph glyph-name="circumflex" unicode="&#x2c6;" horiz-adv-x="345" 
d="M337 364l-60 58l-117 -59l-8 8l117 90h25l52 -92z" />
    <glyph glyph-name="tilde" unicode="&#x2dc;" horiz-adv-x="371" 
d="M302 386q-20 1 -49.5 17t-39.5 17q-45 3 -56 -34l-16 1q25 77 86 73q12 -1 41.5 -17t51.5 -17q40 -3 53 36l15 -1q-25 -79 -86 -75z" />
    <glyph glyph-name="macron" unicode="&#xaf;" horiz-adv-x="481" 
d="M391 416h-191l13 42h192z" />
    <glyph glyph-name="macron" unicode="&#x2c9;" horiz-adv-x="481" 
d="M391 416h-191l13 42h192z" />
    <glyph glyph-name="cedilla" unicode="&#xb8;" horiz-adv-x="465" 
d="M162 -189q-63 0 -101 30l7 15q44 -23 78 -23q56 0 56 46q0 43 -55 43q-13 0 -29 -3l33 87h18l-25 -64q19 3 35 3q68 0 68 -56q0 -33 -26 -55.5t-59 -22.5z" />
    <glyph glyph-name="Scaron" unicode="&#x160;" 
 />
    <glyph glyph-name="scaron" unicode="&#x161;" 
 />
    <glyph glyph-name="brokenbar" unicode="&#xa6;" 
 />
    <glyph glyph-name="Eth" unicode="&#xd0;" horiz-adv-x="287" 
 />
    <glyph glyph-name="eth" unicode="&#xf0;" 
 />
    <glyph glyph-name="Yacute" unicode="&#xdd;" 
 />
    <glyph glyph-name="Thorn" unicode="&#xde;" 
 />
    <glyph glyph-name="thorn" unicode="&#xfe;" 
 />
    <glyph glyph-name="minus" unicode="&#xad;" 
 />
    <glyph glyph-name="minus" unicode="&#x2212;" 
 />
    <glyph glyph-name="onesuperior" unicode="&#xb9;" 
 />
    <glyph glyph-name="twosuperior" unicode="&#xb2;" 
 />
    <glyph glyph-name="threesuperior" unicode="&#xb3;" 
 />
    <glyph glyph-name="onehalf" unicode="&#xbd;" 
 />
    <glyph glyph-name="onequarter" unicode="&#xbc;" 
 />
    <glyph glyph-name="threequarters" unicode="&#xbe;" 
 />
    <glyph glyph-name="Lslash" unicode="&#x141;" 
 />
    <glyph glyph-name="lslash" unicode="&#x142;" 
 />
    <glyph glyph-name="HT" horiz-adv-x="180" 
 />
    <glyph glyph-name="LF" 
 />
    <glyph glyph-name="nonmarkingreturn" horiz-adv-x="180" 
 />
    <glyph glyph-name="Zcaron" unicode="&#x17d;" 
 />
    <glyph glyph-name="zcaron" unicode="&#x17e;" 
 />
    <glyph glyph-name="DLE" 
 />
    <glyph glyph-name="DC1" 
 />
    <glyph glyph-name="DC2" 
 />
    <glyph glyph-name="DC3" 
 />
    <glyph glyph-name="DC4" 
 />
    <glyph glyph-name="RS" 
 />
    <glyph glyph-name="US" 
 />
    <glyph glyph-name="notequal" unicode="&#x2260;" horiz-adv-x="32" 
 />
    <glyph glyph-name="infinity" unicode="&#x221e;" horiz-adv-x="20" 
 />
    <glyph glyph-name="lessequal" unicode="&#x2264;" horiz-adv-x="20" 
 />
    <glyph glyph-name="greaterequal" unicode="&#x2265;" horiz-adv-x="20" 
 />
    <glyph glyph-name="partialdiff" unicode="&#x2202;" horiz-adv-x="251" 
d="M225 611q-74 -157 -95 -381q104 149 104 283q0 37 -9 98zM5 132q11 2 61 16q17 199 108 402q47 106 86 136h4q14 -16 14 -69q0 -206 -151 -416q-4 -20 -6 -38l115 32l1 -19q-27 -8 -111 -32l-7 -2q-2 -14 -2 -24q0 -87 47 -87q72 0 207 217q0 -7 -1 -17q-21 -38 -51 -84
q-98 -148 -176 -148q-79 0 -79 118v10q-53 -15 -59 -15v20z" />
    <glyph glyph-name="summation" unicode="&#x2211;" horiz-adv-x="533" 
d="M431 502q-13 0 -30 2l-3 2v6l2 4q50 0 84 15q46 21 46 65q0 62 -84 62q-58 0 -103 -35q-49 -38 -49 -94q0 -54 61 -122l80 -89q57 -63 57 -131q0 -71 -62 -130q-85 -80 -211 -80q-67 0 -113 23q-60 30 -60 91q0 132 268 128l4 -3l1 -8l-3 -4q-209 0 -209 -122
q0 -46 41 -70q33 -20 82 -20q79 0 141 46q68 51 68 127q0 62 -56 123l-77 84q-65 71 -65 135q0 78 76 127q67 42 149 42q47 0 77 -16q40 -21 40 -63q0 -48 -55 -75q-43 -20 -97 -20zM402 800l70 -59l116 60l8 -8l-116 -90h-26l-62 91z" />
    <glyph glyph-name="product" unicode="&#x220f;" horiz-adv-x="321" 
d="M374 144q-39 -58 -75 -85q-43 -33 -104 -40q-44 -23 -83 -23q-31 0 -55 11q-31 14 -31 41q0 41 49 41q11 0 22 -4v-1q-18 -13 -18 -35q0 -35 51 -35q31 0 55 17t24 47q0 33 -56 79q-33 27 -47 43q-18 21 -18 43q0 44 46 73q40 24 87 24q61 0 61 -42q0 -19 -21 -33
q-17 -11 -38 -13l-1 2q16 16 16 37q0 31 -40 31q-24 0 -43 -13.5t-19 -36.5q0 -28 46 -64q8 -6 29 -23q45 -38 45 -78q0 -28 -30 -62q94 16 198 202l-2 -21q-14 -31 -48 -82zM175 453l51 -50l99 50l7 -7l-99 -76h-22l-44 78z" />
    <glyph glyph-name="pi" unicode="&#x3c0;" horiz-adv-x="890" 
d="M851 273q-58 -277 -121 -395q-74 -137 -199 -157l-3 2q-6 15 -6 35q0 85 89 155h5l4 -4l-1 -4q-55 -50 -55 -113q0 -22 6 -42q85 23 136 148q26 66 53 205l83 430q-137 -281 -214 -391q-90 -130 -164 -130q-43 0 -65 30q-20 27 -20 71q0 30 14 79l69 240q12 42 12 73
q0 75 -60 116q-52 35 -131 35q-69 0 -123 -32q-65 -38 -65 -103q0 -57 49 -88q42 -27 102 -27q39 0 78 14l5 -1l1 -7l-1 -5q-52 -21 -109 -21q-71 0 -119 32q-56 37 -56 105q0 81 80 121q61 30 151 30q97 0 168 -41q87 -49 87 -139q0 -29 -20 -98l-53 -183q-21 -73 -21 -113
q0 -61 47 -61q88 0 237 287l70 135q40 80 62 138q8 22 20 25l43 10q5 1 7 -2t0 -12zM732 736l-110 -72l-9 13l81 102q18 23 33 23t24 -11t5 -25q-4 -17 -24 -30z" />
    <glyph glyph-name="integral" unicode="&#x222b;" horiz-adv-x="410" 
d="M453 158q-115 -155 -183 -207q-45 -186 -165 -235h-4q-5 19 -5 39q0 106 134 211q5 48 59 246q-117 -209 -201 -209q-44 0 -44 54q0 17 12 57l59 197q3 11 16 13l34 5q4 1 4 -1q1 -2 -1 -8l-64 -224q-6 -21 -6 -42t20 -21q51 0 148 168q21 36 47 93q14 30 22 31l37 5
q4 1 5 -2q-5 -16 -31 -94q-37 -114 -70 -258q114 102 227 268v-12q-19 -32 -50 -74zM130 -210q0 -15 8 -39q72 42 91 193q-99 -74 -99 -154zM322 436l-88 -58l-7 10l65 82q18 22 33 18q23 -7 17 -28q-4 -13 -20 -24z" />
    <glyph glyph-name="Omega" unicode="&#x3a9;" horiz-adv-x="709" 
d="M440 289l-14 -22h-157q-18 -65 -18 -117q0 -135 110 -134q51 1 107.5 32.5t84.5 74.5q-2 -3 12 -10.5t10 -10.5q-106 -105 -220 -106q-78 -1 -123 52q-42 49 -42 128q0 44 14 91h-60l6 23h61q8 22 19 44h-61l7 23h66q48 83 123 140q86 64 172 64q100 1 143 -81
q2 -3 -15.5 -13t-16.5 -13q-13 39 -45 63t-72 24q-147 -2 -230 -185h164l-10 -22h-164q-8 -21 -14 -42l-1 -2z" />
    <glyph glyph-name="Omega" unicode="&#x2126;" horiz-adv-x="709" 
d="M440 289l-14 -22h-157q-18 -65 -18 -117q0 -135 110 -134q51 1 107.5 32.5t84.5 74.5q-2 -3 12 -10.5t10 -10.5q-106 -105 -220 -106q-78 -1 -123 52q-42 49 -42 128q0 44 14 91h-60l6 23h61q8 22 19 44h-61l7 23h66q48 83 123 140q86 64 172 64q100 1 143 -81
q2 -3 -15.5 -13t-16.5 -13q-13 39 -45 63t-72 24q-147 -2 -230 -185h164l-10 -22h-164q-8 -21 -14 -42l-1 -2z" />
    <glyph glyph-name="radical" unicode="&#x221a;" horiz-adv-x="20" 
 />
    <glyph glyph-name="approxequal" unicode="&#x2248;" horiz-adv-x="20" 
 />
    <glyph glyph-name="approxequal" unicode="&#x22f2;" horiz-adv-x="20" 
 />
    <glyph glyph-name="Delta" unicode="&#x394;" horiz-adv-x="20" 
 />
    <glyph glyph-name="Delta" unicode="&#x2206;" horiz-adv-x="20" 
 />
    <glyph glyph-name="fraction" unicode="&#x2044;" horiz-adv-x="13" 
 />
    <glyph glyph-name="fi" unicode="&#xf001;" horiz-adv-x="442" 
d="M215 610q-16 -43 -36 -144q-25 -130 -44 -208q99 115 99 246q0 51 -19 106zM83 23q-52 -144 -52 -232v-21q69 57 69 156q0 42 -17 97zM322 2q-50 0 -50 57q0 20 13 62v2q-62 -74 -134 -74q-33 0 -66 23q30 -96 30 -152q0 -131 -87 -196h-3q-11 19 -11 103q0 91 40 257
q-50 27 -50 36q0 4 9 17.5t13 15.5q4 -1 37 -22q91 449 182 556h1q17 -26 17 -106q0 -202 -136 -358q-8 -65 -25 -120q32 -26 70 -26q62 0 124 80l46 157q7 23 53 23q3 0 3 -5q0 -2 -1 -5l-61 -207q-15 -51 -15 -64q0 -31 25 -31q63 0 204 223l-1 -17q-132 -229 -227 -229z
M420 424q-13 0 -30 8q-20 9 -20 20q0 5 9.5 25t12.5 20q5 0 24.5 -13.5t19.5 -18.5q0 -41 -16 -41z" />
    <glyph glyph-name="fl" unicode="&#xf002;" horiz-adv-x="497" 
d="M215 610q-25 -66 -45 -173l-35 -179q99 115 99 246q0 51 -19 106zM83 23q-60 -164 -52 -253q69 57 69 156q0 42 -17 97zM610 231q-21 -38 -51 -84q-98 -148 -176 -148q-79 0 -79 118q0 14 2 33q-75 -101 -155 -101q-33 0 -66 23q30 -96 30 -152q0 -131 -87 -196h-3
q-11 18 -11 103q0 91 40 257q-50 28 -50 36q0 4 4 8l13 20q2 4 5 5q5 0 9 -4l28 -18q92 450 182 556h1q17 -25 17 -106q0 -202 -136 -358q-8 -65 -25 -120q32 -26 70 -26q67 0 137 100q9 63 26 139q25 113 79 234q47 106 86 136h4q14 -16 14 -69q0 -206 -151 -416
q-10 -51 -10 -83q0 -87 47 -87q72 0 207 217q0 -7 -1 -17zM465 611q-74 -157 -95 -381q104 149 104 283q0 37 -9 98z" />
    <glyph glyph-name="apple" unicode="&#xf000;" horiz-adv-x="16" 
 />
    <glyph glyph-name="dotlessi" unicode="&#x131;" horiz-adv-x="203" 
d="M265 162q-110 -160 -183 -160q-50 0 -50 57q0 18 13 62l57 193q4 13 16 16l33 7q4 1 6 -1q2 -3 0 -9l-61 -207q-15 -51 -15 -64q0 -31 25 -31q63 0 204 223q0 -7 -1 -17q-16 -28 -44 -69z" />
    <glyph glyph-name="breve" unicode="&#x2d8;" horiz-adv-x="483" 
d="M298 391q-80 0 -85 112h15q11 -61 77 -61q40 0 66 15q23 12 51 46h16q-30 -53 -55 -77q-37 -35 -85 -35z" />
    <glyph glyph-name="dotaccent" unicode="&#x2d9;" horiz-adv-x="481" 
d="M291 385q-19 0 -31.5 14t-12.5 33t12.5 33t31.5 14t31 -14t12 -33t-12.5 -33t-30.5 -14z" />
    <glyph glyph-name="ring" unicode="&#x2da;" horiz-adv-x="482" 
d="M351 381q-27 0 -45 19.5t-18 46.5t18 46.5t45 19.5t45 -19.5t18 -46.5t-18 -46.5t-45 -19.5zM351 493q-19 0 -31.5 -13.5t-12.5 -32.5t12.5 -32.5t31.5 -13.5t31.5 13.5t12.5 32.5t-12.5 32.5t-31.5 13.5z" />
    <glyph glyph-name="hungarumlaut" unicode="&#x2dd;" horiz-adv-x="333" 
d="M322 456l-88 -58l-7 10l65 82q18 22 33 18q23 -7 17 -28q-4 -13 -20 -24zM202 456l-88 -58l-7 10l65 82q18 22 33 18q23 -7 17 -28q-4 -13 -20 -24z" />
    <glyph glyph-name="ogonek" unicode="&#x2db;" horiz-adv-x="371" 
d="M131 -188q-29 0 -46.5 23.5t-17.5 52.5q0 30 23 56q20 22 73 57h9q-33 -26 -45 -45q-17 -26 -17 -61q0 -58 44 -58q34 0 55 34l6 -4q-28 -55 -84 -55z" />
    <glyph glyph-name="caron" unicode="&#x2c7;" horiz-adv-x="345" 
d="M162 460l60 -59l116 60l8 -8l-116 -90h-26l-52 91z" />
    <glyph glyph-name="glyph252" horiz-adv-x="208" 
 />
    </font>
</defs>
</svg>
