<?xml version="1.0" standalone="no"?>
<!DOCTYPE svg PUBLIC "-//W3C//DTD SVG 1.1//EN" "http://www.w3.org/Graphics/SVG/1.1/DTD/svg11.dtd" >
<svg>
<metadata>
Created by FontForge 20120731 at Tue Apr 16 13:59:45 2019
 By www-data
Digitized by Dan X. Solo. Software (c) 1999 by Dover Publications, Inc., New York.
</metadata>
<defs>
<font id="CommercialScript" horiz-adv-x="20" >
  <font-face 
    font-family="Commercial Script"
    font-weight="400"
    font-stretch="normal"
    units-per-em="1000"
    panose-1="0 0 4 0 0 0 0 0 0 0"
    ascent="800"
    descent="-200"
    x-height="340"
    cap-height="694"
    bbox="-303 -368 1556 851"
    underline-thickness="20"
    underline-position="-123"
    unicode-range="U+0020-F002"
  />
<missing-glyph horiz-adv-x="500" 
d="M63 0v847h375v-847h-375zM125 63h250v722h-250v-722z" />
    <glyph glyph-name=".notdef" horiz-adv-x="500" 
d="M63 0v847h375v-847h-375zM125 63h250v722h-250v-722z" />
    <glyph glyph-name="glyph1" horiz-adv-x="0" 
 />
    <glyph glyph-name="glyph2" horiz-adv-x="196" 
 />
    <glyph glyph-name="space" unicode=" " horiz-adv-x="196" 
 />
    <glyph glyph-name="exclam" unicode="!" horiz-adv-x="320" 
d="M417 507q-12 -18 -56 -67q-87 -97 -169 -232l-14 8q77 125 114 254q6 22 15 53q26 80 81 80q20 0 33.5 -13.5t13.5 -33.5q0 -22 -18 -49zM89 -4q-22 0 -35.5 16t-13.5 39q0 32 24 56.5t56 24.5q21 0 34 -15.5t13 -36.5q0 -31 -23.5 -57.5t-54.5 -26.5z" />
    <glyph glyph-name="quotedbl" unicode="&#x22;" horiz-adv-x="333" 
d="M259 559q-36 -40 -95 -126l-14 5q33 61 57 143q30 103 80 100q26 -1 26 -23q0 -39 -54 -99zM149 559q-36 -40 -95 -126l-14 5q33 61 57 143q30 103 80 100q26 -1 26 -23q0 -39 -54 -99z" />
    <glyph glyph-name="numbersign" unicode="#" horiz-adv-x="519" 
d="M428 366h77l-24 -40l-77 1l-70 -137h73l-24 -46h-73l-90 -161h-25l86 161h-102l-86 -159h-28l87 162l-77 -1l25 43l75 -1l76 139h-77l21 40l76 -1l90 165h28l-92 -165h103l88 164l25 -1zM278 326l-75 -138l101 1l74 138z" />
    <glyph glyph-name="dollar" unicode="$" horiz-adv-x="508" 
d="M432 474q44 -35 44 -82q0 -27 -15.5 -48t-41.5 -21q-33 0 -33 41q0 21 21 39.5t25 27.5q-4 15 -11 24l-101 -180q58 -58 58 -118q0 -77 -71 -126q-65 -45 -144 -40l-93 -168h-25l94 169q-23 3 -49 13l-100 -180h-24l104 191q-56 36 -56 95q0 33 17.5 58.5t49.5 25.5
q42 0 42 -45q0 -24 -22 -40q-9 -6 -42 -21l-6 -14q7 -26 28 -42l113 205q-44 52 -44 101q0 72 61 118q55 42 130 44l59 108l24 -2l-59 -107q25 -4 48 -14l66 121l26 -2zM355 483l-88 -158q14 -12 37 -35l99 179q-22 11 -48 14zM231 394q0 -24 21 -53l78 141q-42 -4 -69 -25
q-30 -24 -30 -63zM263 170l-90 -161q121 4 121 97q0 31 -31 64zM210 221l-110 -199q21 -10 49 -11l98 175q-13 13 -37 35z" />
    <glyph glyph-name="percent" unicode="%" horiz-adv-x="452" 
d="M220 312q-50 -74 -93 -74q-29 0 -46 28q-13 25 -13 56q0 52 49.5 109t100.5 57q49 0 49 -61q0 -45 -47 -115zM127 0l-37 -5l278 500l37 5zM385 69q-50 -75 -93 -75q-30 0 -47 29q-13 23 -13 56q0 53 49.5 109t101.5 56q23 0 36 -18t13 -42q0 -45 -47 -115zM216 471
q-30 0 -70 -84q-36 -76 -36 -114q0 -18 17 -18q39 0 78 78q35 70 35 115q0 23 -24 23zM383 227q-33 0 -73 -84q-36 -75 -36 -115q0 -17 15 -17q42 0 81 77q35 68 35 117q0 22 -22 22z" />
    <glyph glyph-name="ampersand" unicode="&#x26;" horiz-adv-x="644" 
d="M627 477q-41 -67 -156 -101q-16 -26 -58 -128q-46 -112 -45 -172q70 60 138 200q10 20 19 35q14 22 33 22q27 1 30 -30q2 -15 -6.5 -29t-23.5 -14q-12 -1 -22 10q-4 4 -8 4q-1 -1 -9 -16q-61 -109 -103 -159q-15 -18 -46 -44q16 -47 46 -47q42 1 85 74l14 -9
q-45 -80 -96 -80q-74 -2 -98 37q-66 -43 -131 -43q-33 -1 -71 7q-47 9 -64 24q-41 39 -41 99q0 79 74 147q60 55 147 85q51 18 134 38q58 87 136 144q66 48 104 48q32 0 35 -36q4 -31 -17 -66zM609 563q-40 -1 -128 -165q97 33 132 101q14 27 12 49q-2 15 -16 15zM288 325
q-2 -1 -15 -12q-52 -43 -68 -58q-34 -34 -55 -72q-30 -54 -30 -104q0 -43 24 -61q19 -15 46 -15q48 0 117 49q-27 46 -27 95q0 55 40 141q4 15 32 69q-40 -13 -64 -32z" />
    <glyph glyph-name="quotesingle" unicode="'" horiz-adv-x="192" 
d="M142 559q-30 -40 -75 -126l-15 5q25 64 36 142q14 104 65 101q29 -1 29 -29q0 -40 -40 -93z" />
    <glyph glyph-name="parenleft" unicode="(" horiz-adv-x="280" 
d="M323 516q-67 -78 -108 -141q-186 -281 -193 -493l-16 3q2 82 11 128q66 376 326 592q109 90 249 181l11 -14q-141 -93 -280 -256z" />
    <glyph glyph-name="parenright" unicode=")" horiz-adv-x="279" 
d="M481 654q-66 -378 -327 -593q-109 -90 -247 -179l-13 12q141 93 281 257q67 79 108 141q186 281 193 494l16 -5q-2 -81 -11 -127z" />
    <glyph glyph-name="asterisk" unicode="*" horiz-adv-x="504" 
d="M389 532q-76 -15 -95 -20q15 -9 62.5 -24t47.5 -40q0 -22 -21 -39.5t-43 -15.5q-23 1 -42.5 41.5t-30.5 54.5l-5 -11q-9 -22 -12 -59t-9 -50q-8 -19 -27 -33t-38 -12q-28 1 -28 30q0 19 36 67q26 34 52 67q-38 -25 -77 -50q-56 -36 -74 -34q-29 1 -29 28q0 8 5 19
q16 33 79 45q71 15 95 20q-16 10 -62.5 25t-46.5 39q0 22 22 40.5t44 16.5q22 -1 40.5 -42.5t29.5 -54.5l5 10q9 21 11 58t9 51q22 48 66 45q29 -1 29 -30q0 -19 -37 -67q-26 -33 -52 -67q39 25 77 49q57 36 74 35q29 -1 29 -28q0 -49 -84 -64z" />
    <glyph glyph-name="plus" unicode="+" horiz-adv-x="492" 
d="M285 211v-163h-64v163h-163v64h163v163h64v-163h163v-64h-163z" />
    <glyph glyph-name="comma" unicode="," horiz-adv-x="258" 
d="M-82 -165l-7 16q72 36 99 57q54 41 54 86q0 10 -5.5 29t-5.5 29q0 29 18 52t47 23q22 0 37 -15.5t15 -37.5q0 -63 -97 -141q-70 -57 -155 -98z" />
    <glyph glyph-name="hyphen" unicode="-" horiz-adv-x="320" 
d="M263 189l-213 -1l11 34h214z" />
    <glyph glyph-name="hyphen" unicode="&#x2010;" horiz-adv-x="320" 
d="M263 189l-213 -1l11 34h214z" />
    <glyph glyph-name="period" unicode="." horiz-adv-x="258" 
d="M105 -10q-22 0 -37 17t-15 40q0 28 19 50t47 22q22 0 37 -17t15 -39q0 -29 -18.5 -51t-47.5 -22z" />
    <glyph glyph-name="slash" unicode="/" horiz-adv-x="515" 
d="M33 -42l-27 10l480 728l26 -19z" />
    <glyph glyph-name="zero" unicode="0" horiz-adv-x="445" 
d="M238 58q-78 -74 -140 -71q-61 2 -93 63q-28 51 -25 116q4 131 136 242q120 101 214 97q45 -1 70 -47q20 -38 18 -87q-1 -67 -65 -169q-54 -86 -115 -144zM325 489q-58 2 -126 -105q-28 -45 -82 -158q-63 -135 -65 -181q-1 -41 48 -43q63 -2 130 81q50 62 94 160
q46 107 49 178q2 66 -48 68z" />
    <glyph glyph-name="one" unicode="1" horiz-adv-x="351" 
d="M211 44q-6 -14 -22 -44q-46 1 -139 0q23 37 114 165q75 105 189 271q-166 -162 -349 -289l-9 14q80 54 191 150q126 108 208 187l13 -9q-47 -144 -196 -445z" />
    <glyph glyph-name="two" unicode="2" horiz-adv-x="432" 
d="M339 252q-44 -33 -159 -85q-108 -50 -140 -78q-8 -7 -19 -20q54 42 113 42q32 0 87.5 -23.5l55.5 -23.5q25 0 62 62l15 -9q-67 -119 -156 -119q-33 0 -77 32.5t-60 32.5q-43 0 -82 -65l-16 6q30 67 68 100q10 9 127 90q66 46 107 103q50 69 50 138q0 45 -39 45
q-55 0 -115 -59.5t-60 -114.5q0 -25 20 -25q26 0 58 37q25 29 41 62l15 -7q-18 -38 -46 -69q-36 -39 -69 -39q-36 0 -36 41q0 69 70.5 132t140.5 63q52 0 86.5 -33.5t34.5 -85.5q0 -72 -77 -130z" />
    <glyph glyph-name="three" unicode="3" horiz-adv-x="453" 
d="M268 258q86 -31 86 -93q0 -74 -72 -124q-65 -45 -142 -45q-60 0 -101 28q-47 33 -47 90q0 28 15.5 48.5t42.5 20.5q20 0 33.5 -12.5t13.5 -32.5q0 -32 -36 -48q-30 -14 -30 -24q0 -19 27 -33q23 -12 45 -12q48 0 102 74q52 71 52 123q0 10 -7.5 22t-16.5 10
q-35 -10 -45 -10q-20 0 -20 17q0 21 24 21q12 0 44 -10q30 7 48 22q27 21 54.5 72.5t27.5 84.5q0 40 -50 40q-49 0 -99 -34q-54 -37 -54 -84q0 -34 32 -34q49 0 75 86l15 -3q-30 -100 -89 -100q-50 0 -50 51q0 55 59 97q54 38 112 38q50 0 87 -28q40 -31 40 -80
q0 -106 -176 -138z" />
    <glyph glyph-name="four" unicode="4" horiz-adv-x="479" 
d="M307 145q12 -2 19 -2q31 0 66 38l11 -11q-35 -44 -82 -44q-8 0 -22 2q-27 -63 -48 -125q-70 -3 -136 -8q42 72 95 153q-60 31 -108 31q-16 0 -41 -19.5t-41 -19.5q-14 0 -14 11q0 15 25 28q20 10 39 12q129 166 194 331l143 11q-140 -202 -305 -339q8 1 14 1
q41 0 104 -33q114 159 261 275q-86 -104 -174 -292z" />
    <glyph glyph-name="five" unicode="5" horiz-adv-x="453" 
d="M315 394q-40 0 -97 18l-70 -128q38 15 76 15q60 0 102 -34q46 -36 46 -94q0 -80 -76 -130q-66 -44 -150 -44q-53 0 -91 26q-43 28 -43 79q0 61 52 61q47 0 47 -45q0 -26 -29 -42q-25 -13 -25 -22q0 -17 23.5 -27t43.5 -10q54 0 107 85q49 78 49 138q0 42 -62 42
q-31 0 -82 -21q-18 -33 -30 -33q-11 0 -11 11q0 16 27 34q43 74 121 227q71 -24 124 -24q54 0 111 26q-48 -108 -163 -108z" />
    <glyph glyph-name="six" unicode="6" horiz-adv-x="449" 
d="M402 345q-18 0 -31.5 13t-13.5 31q0 20 20.5 38.5t20.5 26.5q0 27 -43 27q-101 0 -211 -249q56 50 107 50q42 0 71.5 -26.5t29.5 -67.5q0 -77 -72 -136q-68 -56 -147 -56q-59 0 -94 42q-33 39 -33 99q0 119 115.5 240t233.5 121q40 0 69.5 -26t29.5 -66q0 -25 -14 -43
t-38 -18zM232 263q-54 0 -106 -81q-48 -74 -48 -132q0 -16 13.5 -26t30.5 -10q49 0 99 81q48 77 48 129q0 16 -10.5 27.5t-26.5 11.5z" />
    <glyph glyph-name="seven" unicode="7" horiz-adv-x="382" 
d="M316 356q-71 -107 -126 -210q-81 -153 -81 -219q0 -16 8 -46q-26 -10 -40 -10q-33 0 -53.5 25t-20.5 59q0 92 245 370q34 38 107 118q-31 -23 -38 -27q-43 -25 -77 -25q-24 0 -61.5 16.5t-43.5 16.5q-27 0 -42 -46q-18 -49 -34 -49q-13 0 -13 14q0 10 22.5 45.5
t65.5 123.5l16 -5l-31 -66q61 53 99 53q19 0 57.5 -17t53.5 -17q29 0 82 49l12 -11q-69 -85 -107 -142z" />
    <glyph glyph-name="eight" unicode="8" horiz-adv-x="444" 
d="M313 272q57 -58 57 -114q0 -74 -67 -120q-59 -42 -136 -42q-62 0 -107 28q-54 33 -54 91q0 55 60 95q45 30 111 45q-35 49 -35 91q0 66 58 112q55 43 123 43q49 0 83 -27.5t34 -75.5q0 -78 -127 -126zM319 484q-40 0 -69 -18q-33 -22 -33 -59q0 -31 33 -67l50 -54
q95 41 95 139q0 59 -76 59zM247 175q-20 22 -59 66q-122 -43 -122 -144q0 -84 100 -84q46 0 80 18q42 22 42 64q0 32 -41 80z" />
    <glyph glyph-name="nine" unicode="9" horiz-adv-x="474" 
d="M293 89q-106 -90 -202 -90q-41 0 -70 25t-29 65q0 26 13.5 45t38.5 19q18 0 32 -13t14 -31q0 -20 -21 -40t-21 -26q0 -27 45 -27q64 0 133 100q44 64 78 148q-55 -50 -107 -50q-43 0 -71.5 26.5t-28.5 69.5q0 76 76 135q72 56 150 56q60 0 91 -43q29 -38 29 -100
q0 -142 -150 -269zM325 482q-47 0 -98 -83q-47 -77 -47 -126q0 -39 34 -39q55 0 107 76q49 71 49 129q0 43 -45 43z" />
    <glyph glyph-name="colon" unicode=":" horiz-adv-x="258" 
d="M188 241q-23 0 -37.5 16t-14.5 39q0 28 19 48.5t47 20.5q22 0 37 -16t15 -39q0 -28 -19 -48.5t-47 -20.5zM77 -4q-23 0 -37.5 16t-14.5 39q0 28 19 49t47 21q22 0 37 -16.5t15 -38.5q0 -28 -19 -49t-47 -21z" />
    <glyph glyph-name="semicolon" unicode=";" horiz-adv-x="258" 
d="M198 239q-23 0 -38 15.5t-15 38.5q0 28 19.5 49t47.5 21q22 0 37 -16.5t15 -38.5q0 -28 -19 -48.5t-47 -20.5zM47 -63q-71 -56 -152 -93l-9 13q70 36 98 57q55 41 55 83q0 10 -5.5 28.5t-5.5 28.5q0 28 18 50t46 22q22 0 37.5 -14.5t15.5 -36.5q0 -61 -98 -138z" />
    <glyph glyph-name="less" unicode="&#x3c;" horiz-adv-x="251" 
d="M38 191q62 -91 125 -186l-16 -12q-9 5 -140 203q83 64 219 168l13 -18z" />
    <glyph glyph-name="equal" unicode="=" horiz-adv-x="426" 
d="M383 189h-316l14 28h314zM363 109h-316l14 28h314z" />
    <glyph glyph-name="greater" unicode="&#x3e;" horiz-adv-x="248" 
d="M20 -8l-13 17l201 156q-37 59 -116 174l-3 4q-2 3 -4 5v2l-2 1l15 12q8 -4 141 -204q-105 -82 -219 -167z" />
    <glyph glyph-name="question" unicode="?" horiz-adv-x="441" 
d="M381 404q-46 -23 -137 -71q-72 -39 -72 -90q0 -39 36 -39q40 0 55 64l16 -3q-15 -78 -70 -78q-24 0 -39 16t-15 40q0 40 46 90q2 2 78 72q47 43 70 106q11 30 11 55q0 48 -46 48q-52 0 -105 -48.5t-53 -100.5q0 -34 27 -34q32 0 60 46q19 34 30 76l17 -3q-12 -49 -36 -87
q-32 -50 -71 -50q-20 0 -32.5 14.5t-12.5 35.5q0 64 61.5 117t126.5 53q52 0 91.5 -32t39.5 -83q0 -65 -76 -114zM144 2q-25 0 -41.5 17.5t-16.5 43.5q0 29 20 52t49 23q25 0 40.5 -18.5t15.5 -43.5q0 -28 -19.5 -51t-47.5 -23z" />
    <glyph glyph-name="at" unicode="@" horiz-adv-x="682" 
d="M451 121q-46 0 -46 56q0 10 1 22q-24 -39 -36 -51q-25 -25 -56 -22q-42 2 -71.5 31t-29.5 70q0 62 50 114.5t112 52.5q46 0 67 -54l13 39l62 7q-20 -44 -43 -107q-30 -85 -30 -102q0 -34 22 -34q52 0 93 60q36 52 36 96q0 83 -68 137q-62 52 -147 52q-106 0 -176 -65.5
t-70 -171.5q0 -105 71.5 -169.5t177.5 -64.5q123 0 196 107h31q-36 -65 -98.5 -100t-134.5 -35q-115 0 -201 77.5t-86 191.5q0 113 91 187q85 70 201 70q96 0 173 -59q83 -63 83 -157q0 -72 -57.5 -125t-129.5 -53zM375 370q-45 0 -78 -64q-26 -51 -26 -92q0 -25 16.5 -45
t40.5 -20q21 0 59 69.5t38 100.5q0 22 -14 36.5t-36 14.5z" />
    <glyph glyph-name="A" unicode="A" horiz-adv-x="830" 
d="M778 364q-41 -83 -146 -328q104 13 185 121l15 -9q-47 -61 -91 -90q-52 -34 -119 -40l-12 -22l-122 2l25 43q-75 30 -132 97q-130 -150 -251 -150q-52 0 -89 34t-37 86q0 38 22.5 66.5t60.5 28.5q19 0 37 -16.5t18 -35.5q0 -31 -31 -47q-29 -10 -57 -20q-9 -10 -9 -21
q0 -26 29 -43q26 -14 56 -14q120 0 240 145q-43 71 -43 134q0 44 21 75q24 36 68 36q62 0 106 -64q115 138 196 209q128 114 251 145q-101 -136 -191 -322zM531 317q28 -53 28 -129q0 -32 -8 -77q162 261 173 277q102 157 192 265q-104 -46 -210 -146q-72 -67 -175 -190z
M454 347q-39 0 -67 -39q-26 -35 -26 -76q0 -28 21 -66q13 14 127 153q-27 28 -55 28zM519 302q-81 -94 -127 -150q56 -68 127 -95q23 69 23 138q0 64 -23 107z" />
    <glyph glyph-name="B" unicode="B" horiz-adv-x="769" 
d="M635 363q44 -19 72 -57t28 -85q0 -82 -74 -155t-155 -73q-28 0 -47 19.5t-19 48.5q0 91 102 149l7 -16q-93 -51 -93 -129q4 -14 21 -35q4 -3 16 -10q51 1 102 107q47 95 47 157q0 38 -32 69q-36 -15 -61 -16l-20 16q14 23 44 23q15 0 37 -6q47 20 79 88q30 62 30 119
q0 45 -28 71q-58 -34 -100 -104q-32 -52 -62 -137l-48 -138q-48 -131 -109 -192q-84 -83 -226 -83q-64 0 -106 33q-47 36 -47 98q0 38 21 65q23 31 61 31q23 0 40.5 -15t16.5 -39l-11 -31q-14 -12 -40 -22q-32 -13 -41 -17q-4 -10 -7 -20q0 -29 38 -46q31 -14 66 -14
q94 0 163 124q45 90 139 269q93 165 234 247q-46 21 -122 21q-138 0 -275 -73q-161 -86 -161 -209q0 -29 16 -49.5t44 -20.5q76 0 147 96q68 92 68 174l15 3q5 -43 5 -61q0 -96 -52 -163q-57 -74 -151 -74q-46 0 -77 24q-34 27 -34 72q0 134 169 223q143 74 290 74
q71 0 146 -22q31 13 68 23l3 -15q-28 -9 -49 -17q83 -41 83 -117q0 -101 -171 -183z" />
    <glyph glyph-name="C" unicode="C" horiz-adv-x="548" 
d="M277 324q-39 -77 -53 -114q-25 -66 -25 -123q0 -81 84 -81q78 0 146 61t68 138q0 27 -15 48t-40 21q-96 0 -126 -179l-15 -2q-5 28 -5 61q0 57 37 98.5t95 41.5q36 0 60.5 -25.5t25.5 -62.5q3 -92 -73 -158q-72 -61 -160 -61q-76 0 -128 53t-52 130q0 68 46 156
q-151 32 -151 159q0 93 84 151q75 52 171 52q29 0 75 -6l-3 -18q-44 7 -64 7q-81 0 -148 -73.5t-67 -154.5q0 -79 110 -102q67 115 190 221q144 126 252 126q32 0 54 -23.5t22 -56.5q0 -109 -148 -195q-116 -67 -247 -89zM595 671q-105 0 -308 -329q233 51 328 225
q20 36 20 64q0 40 -40 40z" />
    <glyph glyph-name="D" unicode="D" horiz-adv-x="674" 
d="M587 591q66 -93 66 -213q0 -142 -68 -256q-81 -135 -215 -135q-34 0 -124 42q-79 -28 -137 -28q-46 0 -81 11q-49 17 -49 53q0 52 90 52q70 0 162 -41q55 68 155 264q87 174 172 253q-72 79 -190 79q-128 0 -223 -103q-91 -99 -91 -229q0 -85 82 -85q101 0 161 116
q51 100 46 214h17q2 -38 2 -44q0 -103 -60 -197q-68 -106 -166 -106q-63 0 -102 45.5t-39 108.5q0 126 130 216q117 83 248 83q121 0 198 -85q49 37 85 52l5 -16q-44 -19 -74 -51zM574 574q-34 -55 -60 -138q-22 -73 -43 -145q-52 -163 -182 -240q64 -41 91 -41
q114 0 191 133q65 114 65 240q0 100 -62 191zM43 97q-46 0 -46 -33q0 -25 45 -38q31 -9 64 -9q45 0 94 32q-103 48 -157 48z" />
    <glyph glyph-name="E" unicode="E" horiz-adv-x="471" 
d="M464 439q-28 0 -44.5 22t-16.5 50q0 59 75 105l10 -10q-58 -51 -58 -111q0 -16 11 -27.5t26 -11.5q37 0 63 41q24 36 24 77q0 42 -25.5 71.5t-66.5 29.5q-67 0 -118 -65q-48 -60 -48 -130q0 -26 11 -55q11 2 23 2q72 0 89 -42l-11 -18l-26 -6q-35 0 -102 36
q-80 -29 -128.5 -106.5t-48.5 -165.5q0 -109 110 -109q82 0 146.5 56.5t64.5 136.5q0 26 -15 45.5t-39 19.5q-54 0 -91 -67q-32 -55 -35 -119l-15 -2q-10 31 -10 54q0 60 39.5 107t99.5 47q37 0 60.5 -25t23.5 -62q0 -86 -71.5 -148t-158.5 -62q-85 0 -147 53
q-66 56 -66 140q0 95 84 159q69 53 171 70q-48 50 -48 110q0 78 72 126q64 42 145 42q148 0 148 -124q0 -48 -28 -89q-32 -45 -79 -45zM338 408q-8 0 -19 -2q29 -28 57 -28q17 0 17 8q0 22 -55 22z" />
    <glyph glyph-name="F" unicode="F" horiz-adv-x="613" 
d="M648 592q-45 0 -126 37t-125 37q-104 0 -202 -83q-103 -86 -103 -187q0 -30 18 -54t46 -24q56 0 113 89q52 83 52 146q0 24 -10 54l15 5q28 -71 28 -127q0 -75 -54 -130t-128 -55q-43 0 -70.5 26t-27.5 69q0 129 134 219q121 82 255 82q39 0 115.5 -15.5t115.5 -15.5
t72 27l12 -8q-60 -92 -130 -92zM555 308q-3 -76 -31 -124q-34 -6 -78 -18q32 48 63 125l-46 -10q-40 -124 -125 -200q-94 -85 -218 -85q-62 0 -106 31q-51 35 -51 95q0 36 23.5 66.5t59.5 30.5q23 0 41 -15.5t18 -38.5q0 -27 -27 -44q-10 -7 -50 -22q-12 -5 -16 -10l-6 -18
q0 -26 36 -42q29 -13 62 -13q79 0 143 93q27 40 84 163q-86 -15 -154 -84l-11 12q77 78 173 91q102 209 229 294l10 -12q-40 -32 -71 -127q-5 -15 -39 -147q23 5 49 12q19 48 27 63q22 38 49 38l17 -7l7 -18q-1 -32 -62 -79zM589 396q-20 0 -31 -64q41 33 41 53q0 11 -10 11
z" />
    <glyph glyph-name="G" unicode="G" horiz-adv-x="557" 
d="M231 290q16 -50 78 -50q110 0 245 131l12 -12q-42 -44 -67 -114q-21 -63 -43 -125q-27 -63 -74 -93q-60 -37 -169 -37q-66 0 -111 31q-51 36 -51 103q0 36 23 63.5t59 27.5q24 0 40.5 -15.5t16.5 -39.5q0 -28 -31 -44q-2 -1 -54 -21l-9 -21q15 -60 110 -60q58 0 119 73
q18 22 85 126q24 37 40 57q-82 -47 -140 -47q-64 0 -111 62q-41 -3 -49 -3q-67 0 -115.5 53t-48.5 121q0 90 76 154q64 54 162 78l3 -15q-80 -19 -136 -96.5t-56 -160.5q0 -52 33 -84t85 -32q9 0 35 2q-20 41 -20 86q0 119 101 212q99 90 219 90q35 0 59.5 -20.5t24.5 -55.5
q0 -102 -122 -205q-106 -90 -219 -119zM502 670q-72 0 -172 -143q-96 -136 -99 -220q100 21 206 120q113 106 113 199q0 19 -14.5 31.5t-33.5 12.5z" />
    <glyph glyph-name="H" unicode="H" horiz-adv-x="782" 
d="M715 354q-52 -113 -73 -165q-43 -106 -51 -171l16 -13q65 1 180 152l14 -9q-125 -160 -197 -160q-41 0 -63 40q-16 31 -16 74q0 83 62 211l-89 -31q-42 -127 -125 -206q-94 -89 -219 -89q-60 0 -103 32q-47 35 -47 94q0 37 20 65q23 32 60 32q50 0 59 -52l-15 -38
q-14 -9 -39 -17q-28 -9 -38 -15l-10 -22q0 -29 39 -47q32 -14 68 -14q75 0 137 86q26 36 82 151q-81 -35 -160 -102l-11 12q84 75 179 111q78 157 160 262q-57 -49 -88 -71q-58 -41 -99 -49l-31 12l-12 32q0 30 23 62q33 48 37 56l-2 5l-7 1q-48 -11 -104 -69
q-28 -28 -84 -100l-14 9q135 177 210 178l35 -15l14 -37q0 -26 -21 -59q-3 -6 -36 -52l4 -4q68 31 149 97q68 57 136 115l9 -12q-55 -57 -93 -152q-9 -21 -57 -169l96 32q65 115 150 212q119 136 204 136q64 0 64 -71q0 -130 -303 -258zM955 667q-66 0 -139 -114
q-37 -58 -91 -176q74 31 115 59q54 37 93 92q54 75 54 112q0 27 -32 27z" />
    <glyph glyph-name="I" unicode="I" horiz-adv-x="567" 
d="M543 421q-2 -4 -55 -183q120 51 120 177q0 17 -2 35l16 2q6 -35 6 -48q0 -64 -45 -117q-40 -47 -103 -71q-49 -101 -131 -159q-87 -62 -195 -62q-60 0 -103 32q-47 35 -47 94q0 37 23 67.5t60 30.5q23 0 40 -15.5t17 -38.5q0 -27 -18 -40q-10 -8 -38 -16t-40 -17l-6 -20
q13 -58 102 -58q71 0 125 66q27 34 74 128q-59 16 -94.5 58t-35.5 102q0 147 195 244q161 79 328 82l2 -17q-109 -2 -195 -256zM512 635q-86 -38 -164 -136q-82 -104 -82 -192q0 -61 84 -84q100 207 125 249q82 134 190 200q-97 -13 -153 -37z" />
    <glyph glyph-name="J" unicode="J" horiz-adv-x="525" 
d="M533 435q-37 -75 -79 -181l-52 -134q41 -4 67.5 -30t26.5 -67q0 -63 -62 -106q-49 -34 -121 -48v17q65 12 110 44q56 39 56 94q0 34 -25 56t-60 23q-71 -130 -183 -243q-141 -142 -253 -142q-39 0 -63 32q-23 29 -23 69q0 114 146 204q114 71 250 96q133 244 170 301
q118 183 230 246q-151 -13 -296 -115q-163 -114 -163 -248l15 -39q24 -14 41 -14q20 0 48 15l6 -15q-30 -17 -54 -17q-44 0 -69 37q-20 33 -20 78q0 172 209 264q158 70 360 75v-17q-98 0 -212 -235zM-97 -217q0 -48 57 -48q70 0 172 151q42 61 126 215q-113 -18 -229 -112
q-126 -103 -126 -206z" />
    <glyph glyph-name="K" unicode="K" horiz-adv-x="775" 
d="M807 542q-52 -77 -81 -110q-48 -56 -104 -88q44 -42 44 -114q0 -35 -8 -89q-10 -74 -11 -89l8 -13q38 3 123 128l14 -9q-112 -156 -185 -156q-32 0 -52 25t-20 57q0 41 35 113t35 112q0 11 -8 25q-17 -8 -41 -13l-20 17l12 19l26 7q13 0 33 -9q40 21 79 82q29 51 57 101
q41 67 85 101q59 47 145 54v-16q-52 -5 -94 -44q-28 -26 -72 -91zM483 249q-49 -119 -113 -177q-81 -74 -210 -74q-63 0 -106 28q-50 32 -50 93q0 38 22 68.5t60 30.5q22 0 38.5 -16t16.5 -38q0 -31 -33 -48q-4 -2 -59 -23l-8 -20q14 -57 111 -57q65 0 122 66q41 49 86 144
q30 69 61 137q38 75 114 172q-136 -120 -185 -120q-14 0 -33 12l-12 30q0 29 23 61q34 48 37 55l-10 7q-60 -7 -184 -167l-12 12q138 174 206 174q18 0 32.5 -13.5t14.5 -31.5q0 -29 -22 -62q-30 -45 -34 -55l5 -3q50 15 150 101q84 73 136 133l13 -12q-57 -67 -104 -195
q-37 -106 -73 -212z" />
    <glyph glyph-name="L" unicode="L" horiz-adv-x="618" 
d="M458 282q-28 -76 -59 -123q-36 -54 -95 -99q74 -38 120 -38q86 0 193 145l14 -9q-53 -71 -94 -104q-61 -50 -125 -50q-45 0 -131 41q-84 -48 -163 -48q-40 0 -74 15q-45 19 -45 55q0 31 33 49q26 15 58 15q61 0 151 -40q38 70 80 165q-86 2 -141 50.5t-55 134.5
q0 106 109 182q99 70 209 70q26 0 72 -14l-5 -15q-43 12 -70 12q-107 0 -184.5 -83.5t-77.5 -191.5q0 -124 131 -124q13 0 20 1q186 414 344 417q83 3 83 -84q0 -83 -111 -192q-93 -91 -187 -137zM671 680q-77 0 -139 -154q-14 -37 -68 -222q91 48 167 142q85 104 85 193
q0 41 -45 41zM91 115q-26 0 -49 -12q-26 -14 -26 -36q0 -26 36 -41q29 -11 63 -11q77 0 116 59q-86 41 -140 41z" />
    <glyph glyph-name="M" unicode="M" horiz-adv-x="972" 
d="M1017 494q-53 -96 -117 -237q-78 -171 -89 -237l10 -12q45 12 151 149l14 -9q-118 -161 -176 -161q-36 0 -54 39q-14 29 -14 67q0 180 339 556q-72 -47 -154 -144q-68 -80 -149 -202q-69 -106 -137 -211q-20 -30 -48 -61q-40 -43 -60 -43q-23 0 -36 36q-9 27 -9 55
q0 113 110 296q53 88 186 268q-59 -45 -156 -170q-70 -95 -141 -189q-107 -140 -180 -208q-99 -92 -173 -92q-53 0 -90 31q-40 33 -40 85q0 39 21 70q24 35 63 34l39 -14l16 -38l-14 -35q-1 -1 -57 -23q-34 -15 -34 -34q0 -27 34 -43q27 -12 60 -12q68 0 177 107
q77 76 189 223q74 97 147 194q97 118 163 155l20 -17q-27 -74 -144 -316q-93 -194 -124 -323q60 63 130 170q58 90 116 181q165 247 301 302l12 -13q-13 -38 -47 -89q-47 -70 -55 -85z" />
    <glyph glyph-name="N" unicode="N" horiz-adv-x="771" 
d="M972 527q4 1 -40 1q-46 0 -151 -173q-29 -48 -120 -217l-9 -94q-45 -23 -121 -59q8 97 32 298q27 187 77 277q20 36 53 79q-70 -57 -121 -127q-26 -36 -86 -142l-38 -69q-66 -114 -117 -179q-109 -140 -214 -140q-53 0 -88.5 32t-35.5 85q0 39 26.5 71t65.5 32
q23 0 40 -16t17 -39q0 -45 -55 -52q-36 -5 -40 -6q-21 -7 -21 -29q0 -28 32 -43q27 -12 60 -12q60 0 119 48q50 41 150 198q70 112 139 225q90 133 176 193q17 11 27 15q12 1 12 -10q-1 -1 -2 -5l-14 -44q-16 -50 -19 -64q-10 -69 -21 -188q-13 -140 -19 -190q37 69 127 221
q114 178 178 178q29 0 29 -27q0 -24 -28 -28z" />
    <glyph glyph-name="O" unicode="O" horiz-adv-x="512" 
d="M585 543l-16 7q14 31 14 50q0 33 -24 52.5t-58 19.5q-93 0 -196 -122q-89 -105 -155 -259q-62 -146 -62 -235q0 -52 57 -52q80 0 171 97q81 85 140 209q58 121 58 198q0 46 -42 46q-63 0 -142 -118q-58 -88 -94 -181q-31 -82 -41 -163l-16 2q5 46 15 85q27 110 101 235
q94 156 178 156q68 0 68 -91q0 -79 -64 -198t-152 -202q-97 -93 -179 -93q-70 0 -108 62q-31 51 -31 124q0 107 79 232q76 120 189 201q120 85 228 85q39 0 69 -24t30 -64q0 -22 -17 -59z" />
    <glyph glyph-name="P" unicode="P" horiz-adv-x="600" 
d="M510 299q-101 -312 -353 -312q-64 0 -107 29q-51 34 -51 95q0 38 22 66q25 32 62 32q24 0 41.5 -15.5t17.5 -39.5q0 -28 -25 -42q-4 -2 -48 -18q-29 -11 -29 -31q0 -28 35 -44q30 -13 63 -13q110 0 206 199q13 30 38 85q-58 -8 -111 -47l-9 13q54 44 128 51
q53 115 106 186q68 91 156 143q-48 33 -131 33q-123 0 -254 -77q-148 -87 -148 -200q0 -30 16.5 -50.5t44.5 -20.5q78 0 148 98q63 90 68 178h13q6 -35 6 -64q0 -95 -52 -164q-57 -75 -150 -75q-48 0 -78 23q-33 27 -33 74q0 123 155 215q136 81 267 81q94 0 151 -38
q31 18 74 30l3 -15q-34 -10 -61 -25q72 -56 72 -133q0 -90 -86 -147q-66 -44 -167 -60zM664 624q-62 -45 -98 -140q-3 -8 -50 -166q75 20 123 92q45 68 45 150q0 33 -20 64z" />
    <glyph glyph-name="Q" unicode="Q" horiz-adv-x="597" 
d="M323 84q103 -37 144 -37q47 0 125 110l15 -9q-117 -162 -228 -162q-47 0 -136 48q-82 -47 -152 -47q-32 0 -56 14q-29 17 -29 48q0 41 44 64q36 20 79 20q61 0 162 -36q89 85 164 221q84 151 84 255q0 91 -73 91q-116 0 -231 -107t-115 -222q0 -34 19 -56.5t52 -22.5
q69 0 135 111q61 102 61 180q0 9 -3 37l16 2q17 -61 17 -112q0 -93 -67 -166.5t-160 -73.5q-43 0 -67 30q-20 28 -20 72q0 123 123 236q121 110 245 110q77 0 126 -48t49 -125q0 -110 -114 -242q-87 -101 -209 -183zM82 97q-24 0 -41.5 -13t-17.5 -35q0 -44 74 -44
q56 0 126 39q-91 53 -141 53z" />
    <glyph glyph-name="R" unicode="R" horiz-adv-x="783" 
d="M633 332q42 -46 42 -108q0 -34 -18 -98t-18 -98q0 -11 7 -11q37 0 136 140l15 -9q-113 -163 -189 -163q-36 0 -58 26q-21 23 -21 60q0 34 24 88q20 43 40 85q12 30 12 51q0 24 -7 31q-24 -2 -33 -2q-26 0 -26 16q0 20 29 20q21 0 49 -15q60 19 98 78t38 125q0 54 -49 88
q-77 -38 -123 -139q-13 -28 -62 -181q-45 -144 -127 -228q-98 -101 -237 -101q-65 0 -107 29q-49 33 -49 97q0 37 23.5 66.5t60.5 29.5q24 0 41 -15.5t17 -39.5q0 -29 -24 -43q-4 -2 -49 -16q-29 -10 -29 -32q0 -28 39 -45q32 -13 67 -13q78 0 141 86q28 40 83 155
q57 122 95 186q85 142 222 214q-48 19 -110 19q-144 0 -291 -80q-171 -93 -171 -223q0 -31 16.5 -50.5t46.5 -19.5q76 0 141 101q57 90 65 177l15 2q5 -43 5 -68q0 -96 -50 -163q-55 -73 -149 -73q-46 0 -75 23q-32 27 -32 72q0 54 40 114q63 93 193 151q121 53 242 53
q65 0 142 -21q37 13 70 23l3 -15q-26 -10 -50 -17q109 -48 109 -133q0 -124 -213 -186z" />
    <glyph glyph-name="S" unicode="S" horiz-adv-x="617" 
d="M501 276q-44 -127 -125 -202q-94 -87 -219 -87q-61 0 -104 29q-50 34 -50 93q0 37 23 68.5t60 31.5q23 0 40.5 -16.5t17.5 -39.5q0 -41 -53 -55q-25 -7 -31 -10q-15 -9 -15 -26q0 -26 34 -42q29 -13 61 -13q82 0 142 84q26 37 79 156q-9 -1 -18 -1q-77 0 -126.5 55
t-49.5 133q0 106 109 182q99 70 209 70q30 0 73 -10l-2 -16q-42 9 -70 9q-108 0 -188 -88q-77 -84 -77 -194q0 -57 33.5 -87.5t91.5 -30.5q-4 0 23 1q188 416 354 416q35 0 57 -25.5t22 -60.5q0 -85 -112 -191q-90 -85 -189 -133zM721 669q-78 0 -143 -150q-28 -63 -71 -216
q71 34 103 62q48 42 98 122q55 89 55 142q0 40 -42 40z" />
    <glyph glyph-name="T" unicode="T" horiz-adv-x="558" 
d="M689 587q-42 0 -128 39t-133 39q-96 0 -196 -85q-104 -88 -104 -181q0 -31 18.5 -55t47.5 -24q58 0 115 89q52 82 52 146q0 11 -6 39l14 5q25 -58 25 -106q0 -79 -51 -135.5t-129 -56.5q-45 0 -73.5 26t-28.5 71q0 110 127 208q112 87 262 87q39 0 116 -16t116 -16
q49 0 72 26l12 -9q-41 -91 -128 -91zM513 322q-57 -193 -184 -273q-99 -63 -181 -63q-60 0 -104 37q-49 40 -49 100q0 38 22 65q24 31 61 31q23 0 41 -15.5t18 -39.5q0 -28 -25 -42q-5 -3 -47 -17q-29 -11 -29 -30q0 -28 38 -50q34 -20 64 -20q68 0 126 71q35 45 76 133
q15 32 41 88q100 201 226 282l9 -14q-40 -35 -67 -113z" />
    <glyph glyph-name="U" unicode="U" horiz-adv-x="710" 
d="M538 16q0 -7 7 -7q55 0 166 148l13 -9q-115 -159 -188 -159q-31 0 -48 26q-13 21 -13 53q0 34 16 76q-114 -157 -187 -157q-41 0 -63 41q-17 33 -17 76q0 58 37 130q25 48 82 128q62 87 80 120q37 64 37 110q0 36 -36 55q-29 16 -70 16q-113 0 -228.5 -111t-115.5 -223
q0 -32 18.5 -54.5t49.5 -22.5q64 0 131 116q61 107 61 180q0 8 -4 34l16 2q18 -61 18 -111q0 -92 -58 -163q-61 -76 -152 -76q-43 0 -70.5 26t-27.5 69q0 119 123 235q120 115 240 115q75 0 123.5 -44t48.5 -119q0 -73 -80 -195q-63 -94 -127 -187q-37 -65 -37 -106
q0 -23 22 -23q73 0 194 179q40 59 86 140q26 47 53 94q46 78 117 182q53 6 110 8q-86 -137 -186 -308q-141 -245 -141 -284z" />
    <glyph glyph-name="V" unicode="V" horiz-adv-x="545" 
d="M422 219q-107 -129 -222 -200q-22 -14 -60 -30l-9 9q18 31 46 96q8 29 19 87q23 133 58.5 210.5t115.5 168.5q-139 -116 -184 -116q-49 0 -49 47q0 24 23 59q18 28 37 56q-1 5 -8 5q-60 0 -188 -170l-13 10q131 177 206 177q48 0 48 -49q0 -25 -21 -60l-34 -56q0 -2 6 -2
q27 0 140 91q79 64 143 124l11 -11q-50 -69 -83 -156q-11 -30 -52 -167q-58 -194 -174 -316q88 52 181 159q48 54 149 190t157 193q88 91 173 117l2 -16q-82 -26 -164 -111q-55 -58 -135 -173q-92 -133 -119 -166z" />
    <glyph glyph-name="W" unicode="W" horiz-adv-x="799" 
d="M668 151q-13 -26 -46 -91q-38 -75 -48 -75q-27 0 -42 54q-10 39 -10 76q0 108 88 255q77 115 155 230q-165 -211 -264 -316q-157 -167 -315 -263q-53 -33 -64 -33q-17 0 -16 15q6 12 21 28q139 152 202 250q107 163 107 295q0 91 -88 91q-109 0 -220.5 -105.5
t-111.5 -213.5q0 -37 19.5 -62.5t54.5 -25.5q65 0 132 113q63 104 63 178q0 13 -3 39l14 3q19 -61 19 -110q0 -94 -57 -165q-61 -77 -153 -77q-49 0 -77.5 29t-28.5 78q0 121 123 231q119 107 242 107q77 0 126.5 -43.5t49.5 -119.5q0 -132 -152 -292q-64 -68 -227 -203
q217 129 453 411q53 66 105 133q84 105 98 113q6 1 10 -2.5t3 -9.5q-62 -155 -124 -311q-74 -186 -111 -315q87 173 157 271q101 144 219 221l9 -14q-87 -53 -178 -168q-78 -97 -134 -206z" />
    <glyph glyph-name="X" unicode="X" horiz-adv-x="649" 
d="M828 529q-18 0 -30.5 12.5t-12.5 30.5t12 30q19 20 22 24q-1 8 -17 8q-67 0 -153 -119q-73 -101 -132 -244q-56 -137 -56 -204q0 -57 32 -57q53 0 159 147l13 -9q-111 -156 -171 -156q-51 0 -51 78q0 73 33 160q-77 -101 -165 -164q-108 -78 -210 -78q-47 0 -81 25
q-38 28 -38 74q0 37 23.5 65t60.5 28q24 0 41 -15t17 -39q0 -21 -16 -35.5t-37 -14.5q-17 0 -32 13q-24 22 -27 24q-13 -1 -13 -27q0 -39 34 -61q29 -19 72 -19q81 0 179 112q86 98 151 238q63 136 63 215q0 96 -91 96q-108 0 -214.5 -110.5t-106.5 -218.5q0 -33 20 -58.5
t51 -25.5q67 0 131 113q60 103 60 179q0 10 -4 42l16 3q18 -70 18 -116q0 -96 -56 -166q-60 -75 -154 -75q-44 0 -71.5 30.5t-27.5 74.5q0 115 111 230t226 115q80 0 129 -57q47 -53 47 -134q0 -25 -9 -60q133 219 231 219q31 0 54.5 -17.5t23.5 -48.5q0 -23 -15.5 -40
t-38.5 -17z" />
    <glyph glyph-name="Y" unicode="Y" horiz-adv-x="572" 
d="M636 494l-76 -232q-49 -133 -132 -201q-93 -76 -204 -76q-66 0 -111 29q-53 34 -53 97q0 39 23.5 67.5t61.5 28.5q58 0 58 -55q0 -29 -24 -43q-5 -3 -48 -18q-29 -10 -29 -31q0 -26 40 -43q33 -13 67 -13q58 0 102.5 38.5t181.5 327.5q-105 -141 -181 -141q-32 0 -54 29
q-19 26 -19 59q0 48 36 114q33 54 66 107q37 58 37 87q0 41 -77 41q-93 0 -187 -88.5t-94 -180.5q0 -54 43 -54t94 69q41 57 61 113q7 20 11 64l15 -2l1 -31q3 -78 -43 -150q-52 -80 -129 -80q-70 0 -70 69q0 99 98 193.5t198 94.5q58 0 98 -33q44 -35 44 -93
q0 -48 -37 -114q-7 -12 -67 -106q-36 -57 -36 -81q0 -10 17 -10q51 0 142 108q58 77 117 155t130 139l12 -12q-49 -58 -83 -142z" />
    <glyph glyph-name="Z" unicode="Z" horiz-adv-x="539" 
d="M572 484q-115 -168 -198 -239q68 -47 68 -126q0 -16 -5 -40q67 23 112 84l13 -10q-30 -41 -57 -60t-73 -33q-15 -43 -29 -70q-52 -94 -164 -190q-126 -109 -217 -109q-83 0 -83 92q0 178 364 268q38 81 38 137q0 10 -6 28q-76 -50 -147 -50q-46 0 -46 36t46 59
q37 20 76 20q44 0 90 -23q51 41 105 107q14 17 91 119q-58 6 -156 69q-93 61 -153 61q-70 0 -112 -68q-36 -58 -36 -134q0 -31 4 -63l-22 -3q-6 36 -6 64q0 113 75.5 194t188.5 81q119 0 202 -116q12 -17 41 -47q98 164 154 164q23 0 23 -24q0 -54 -64 -113
q-60 -55 -117 -65zM726 669q-35 0 -132 -152l11 -1q31 -1 80 53t49 88q0 12 -8 12zM263 264q-32 0 -56 -11q-31 -13 -31 -38q0 -27 30 -27q40 0 121 50q-24 26 -64 26zM-34 -226q0 -27 16 -45.5t43 -18.5q57 0 151 128q68 91 119 193q-119 -28 -209 -85q-120 -76 -120 -172z
" />
    <glyph glyph-name="bracketleft" unicode="[" horiz-adv-x="306" 
d="M616 804h-106l-555 -940h99l-11 -21h-144l580 981h151z" />
    <glyph glyph-name="backslash" unicode="\" horiz-adv-x="1230" 
d="M13 182q3 64 112 100q86 29 165 25q35 -2 154 -25q89 36 164 48l3 3q-1 11 -13 34.5t-21 24.5q-10 0 -85 -21t-115 -19q-70 4 -68 42q2 30 33 37q26 5 51 9q-47 30 -46 53q1 9 14 21q17 5 24 5q30 -1 66 -22l2 1q-37 43 -36 68l4 12q8 14 23 13q30 -1 69 -58l1 5
q-3 20 -4 60q1 16 11 33t24 17q20 -1 33 -41q3 -11 12 -57q15 29 30 57q22 38 47 36q30 -1 28 -40q0 -9 -16 -55v-3l46 32q31 19 50 18q30 -2 28 -27q-2 -39 -61 -82l8 -1q15 2 46 3q59 -3 57 -36q-2 -45 -114 -57q-41 -4 -136 -3q9 -19 29 -58q11 1 42 4q26 3 41 2
q10 -1 30 2t27 3q91 3 126 1q104 -5 189 -41q119 -49 114 -134q-3 -59 -68 -93q-58 -31 -134 -31q-26 0 -50 4q-20 7 -48 8h-4q-135 -129 -320 -129q-71 0 -136 22q-48 16 -74 40q-23 21 -51 69q-51 -2 -86 -2q-75 1 -137 26q-83 34 -80 97zM91 197q-2 -47 61 -72
q44 -18 103 -21q21 -1 51 0q3 5 4 11q12 78 83 133l-2 3q-24 9 -75 20t-76 12q-55 3 -95 -14q-51 -22 -54 -72zM388 119l1 -7l8 -1q32 -1 90.5 25t77.5 51l-111 44q-23 -11 -44 -47.5t-22 -64.5zM403 69q18 -44 82 -71q53 -23 109 -26q66 -3 154 21q102 28 131 72
q-22 7 -65 21q-38 14 -113 47t-110 46q-13 -5 -38.5 -33t-66.5 -44.5t-83 -32.5zM497 263l99 -38q7 5 14 27.5t8 32.5q0 -5 -2 22l-8 1q-12 0 -55 -18t-56 -27zM394 401q11 -19 37 -20q16 -1 51.5 5.5t46.5 13.5q-33 8 -101 17q-33 2 -34 -16zM422 463q0 -9 40 -25
q37 -15 50 -16h12q-27 22 -40 30q-27 17 -46 18q-16 1 -16 -7zM471 512q-1 -19 66 -69q-7 22 -22 46q-19 30 -35 31q-9 0 -9 -8zM534 535q-1 -13 10 -46t19 -45q3 14 6 42q1 16 -4 45q-6 35 -16 35q-6 0 -10.5 -12t-4.5 -19zM617 219q17 -11 150.5 -61.5t145.5 -51.5
q5 0 17.5 20.5t17.5 19.5q7 0 7 -9q-1 -6 -20 -36q28 -11 79 -23q41 -2 71 15q34 21 37 62q3 72 -109 122q-87 37 -173 42q-158 8 -205 -9l-1 -20q-1 -35 -17 -71zM586 452l1 -5q17 16 36 49q22 37 23 55q1 19 -10 20q-20 1 -35 -50q-7 -35 -15 -69zM608 416q23 -3 68 -7
q18 -1 53 7q43 11 43 24q1 6 -13.5 11t-21.5 6q-29 1 -66 -14q-32 -13 -63 -27zM608 439q59 22 78 32q51 28 52 59q-4 7 -13 7q-25 2 -67 -36q-38 -35 -50 -62z" />
    <glyph glyph-name="bracketright" unicode="]" horiz-adv-x="309" 
d="M-1 -157h-149l12 20h106l555 940h-99l11 21h145z" />
    <glyph glyph-name="asciicircum" unicode="^" horiz-adv-x="489" 
d="M482 683q-46 29 -76 84q-101 -61 -178 -79v10q101 56 185 133h17q12 -76 66 -136z" />
    <glyph glyph-name="underscore" unicode="_" horiz-adv-x="673" 
d="M-5 -131v22h683v-22h-683z" />
    <glyph glyph-name="grave" unicode="`" horiz-adv-x="213" 
d="M264 366l-116 70q-19 12 -19 31q0 29 28 29q15 0 38 -24l107 -106h-38z" />
    <glyph glyph-name="a" unicode="a" horiz-adv-x="465" 
d="M435 103q-81 -109 -143 -109q-29 0 -45 20t-16 49q0 17 9 50q-85 -119 -147 -119q-40 0 -65 33q-22 29 -22 69q0 33 14 72q-5 -7 -15 -22l-14 10q135 191 256 191q72 0 79 -58l24 39l116 18q-169 -291 -169 -325q0 -5 8 -5q33 0 85 58q15 18 67 88l15 -10
q-12 -16 -37 -49zM273 322q-37 0 -116 -121.5t-79 -167.5q0 -17 23 -17q71 0 180 199q29 52 29 69q0 16 -11 27t-26 11z" />
    <glyph glyph-name="b" unicode="b" horiz-adv-x="369" 
d="M95 30q0 -11 16 -11q51 0 129 81q-28 24 -28 63q0 48 32 113q38 74 82 74q33 0 33 -45q0 -87 -93 -201q7 -2 14 -2q34 0 84 65l15 -10q-55 -72 -99 -72q-13 0 -26 6q-86 -92 -153 -92q-35 0 -55.5 22.5t-20.5 57.5q0 66 87 211q-35 -45 -107 -139l-14 10q44 61 135 174
q19 22 53 67q1 1 45 75q40 67 113 184l108 9q-350 -561 -350 -640zM300 262q-27 0 -49 -39q-19 -34 -19 -65q0 -29 19 -46q70 85 70 124q0 26 -21 26z" />
    <glyph glyph-name="c" unicode="c" horiz-adv-x="330" 
d="M113 -7q-48 0 -77.5 34t-29.5 83q0 24 10 52l-11 -16l-14 10q131 190 255 190q38 0 62 -17q29 -20 29 -56q0 -52 -47 -52q-18 0 -30 12.5t-12 30.5q0 26 22 38q19 10 19 12q0 13 -22 13q-45 0 -113 -122q-63 -114 -63 -166q0 -23 33 -23q97 0 201 146l14 -10
q-108 -159 -226 -159z" />
    <glyph glyph-name="d" unicode="d" horiz-adv-x="455" 
d="M434 300q-142 -239 -142 -273q0 -8 8 -8q29 0 82 59q17 19 68 88l14 -10q-59 -80 -76 -98q-56 -60 -104 -60q-27 0 -43 19.5t-16 46.5q0 19 11 48q-37 -46 -58 -66q-50 -48 -99 -48q-37 0 -60 27t-23 65q0 32 18 73l-9 -13l-14 10q135 190 250 190q64 0 75 -70l181 303
l114 5q-82 -129 -177 -288zM300 265q0 60 -38 60q-33 0 -114.5 -122.5t-81.5 -165.5q0 -17 17 -17q56 0 125 89q31 41 92 143v13z" />
    <glyph glyph-name="e" unicode="e" horiz-adv-x="336" 
d="M120 -6q-51 0 -81.5 32.5t-30.5 83.5q0 26 10 55q-5 -8 -13 -19l-14 10q139 191 268 191q85 0 85 -72q0 -65 -88 -113q-62 -34 -142 -50q-18 -32 -18 -45q0 -51 35 -51q93 0 200 146l14 -10q-115 -158 -225 -158zM271 329q-39 0 -90 -83q-30 -48 -59 -116q34 8 57 19
q40 19 76 64q40 49 40 88q0 28 -24 28z" />
    <glyph glyph-name="f" unicode="f" horiz-adv-x="270" 
d="M492 546q-38 -78 -128 -162q-55 -51 -158 -130q-66 -148 -112 -237q47 12 93 54q29 26 78 91l14 -10q-52 -69 -85 -98q-53 -47 -109 -56q-68 -155 -174 -309l-108 -7q95 149 201 352q-18 18 -18 40q0 20 13 37t33 17q6 0 17 -5q46 96 89 168q-71 -57 -133 -145l-14 10
q77 107 162 168q187 336 305 336q23 0 38.5 -14.5t15.5 -36.5q0 -23 -20 -63zM455 643q-26 0 -61 -33q-48 -44 -175 -324q128 94 209 237q44 76 44 105q0 15 -17 15z" />
    <glyph glyph-name="g" unicode="g" horiz-adv-x="445" 
d="M369 49q-52 -47 -109 -56q-75 -153 -114 -207q-91 -126 -188 -126q-36 0 -60 24.5t-24 60.5q0 71 111 145q56 38 171 90l34 74q-58 -65 -109 -65q-35 0 -57 32q-18 28 -18 65q0 33 16 78l-17 -23l-14 10q133 189 248 189q59 0 66 -61l27 49l112 10q-114 -198 -175 -326
q77 19 171 145l14 -10q-54 -70 -85 -98zM257 320q-41 0 -112 -127q-68 -121 -68 -169q0 -15 14 -15q52 0 126 108q72 104 72 158q0 45 -32 45zM79 -77q-54 -32 -107 -90q-63 -68 -63 -117q0 -39 43 -39q63 0 131 145l63 135q-42 -19 -67 -34z" />
    <glyph glyph-name="h" unicode="h" horiz-adv-x="493" 
d="M425 58q-55 -59 -103 -59q-63 0 -63 76q0 48 33 106q15 26 61 87q33 43 33 54q0 5 -6 5q-39 0 -155 -138q-66 -78 -142 -184l-120 -6q104 174 226 387q-68 -85 -184 -235l-14 10q41 55 81 106l116 146q16 20 58 73l96 175l111 6q-42 -78 -173 -300q-88 -149 -147 -259
q189 242 252 242q27 0 42 -25q14 -21 14 -50q0 -47 -32 -106q-18 -34 -58 -88q-31 -43 -31 -51q0 -9 18 -9q48 0 150 146l14 -10q-61 -82 -77 -99z" />
    <glyph glyph-name="i" unicode="i" horiz-adv-x="253" 
d="M281 442q-20 0 -32.5 13.5t-12.5 33.5q0 26 19.5 48.5t45.5 22.5q45 0 45 -49q0 -27 -19 -48t-46 -21zM186 56q-56 -60 -102 -60q-30 0 -46 22t-16 53q0 47 107 230q-47 -47 -124 -153l-14 9q83 115 154 183h116l-99 -164q-73 -123 -73 -152q0 -7 9 -7q31 0 82 58
q14 15 68 88l14 -9q-56 -77 -76 -98z" />
    <glyph glyph-name="j" unicode="j" horiz-adv-x="272" 
d="M283 440q-20 0 -32.5 13.5t-12.5 33.5q0 27 18.5 48.5t45.5 21.5q47 0 47 -48q0 -28 -19 -48.5t-47 -20.5zM195 52q-53 -48 -109 -56q-148 -333 -296 -333q-26 0 -42 18.5t-16 45.5q0 77 97 163q69 62 161 110q45 94 150 292q-75 -60 -135 -147l-14 9q84 125 170 181
l110 2q-93 -160 -175 -322q48 11 93 54q29 27 78 91l14 -9q-50 -67 -86 -99zM-212 -209q-29 -51 -29 -77q0 -33 29 -33q41 0 110 127q10 18 80 164q-124 -62 -190 -181z" />
    <glyph glyph-name="k" unicode="k" horiz-adv-x="455" 
d="M84 9l-114 -8l219 386q-68 -86 -184 -236l-14 10q29 40 81 106l116 146q16 20 58 73q5 10 105 185l107 -2q-95 -157 -374 -660zM385 55q-54 -56 -111 -56q-73 0 -73 58q0 28 25 78.5t25 57.5q0 5 -4 12q-31 -13 -43 -13q-13 0 -13 9q0 21 57 22q8 1 24 15l58 66
q41 46 70 46q22 0 39.5 -16t17.5 -38q0 -18 -13 -31.5t-31 -13.5q-16 0 -27 11t-11 27t9 25q12 13 13 16q0 2 -4 2q-16 0 -58 -49q-45 -52 -64 -65q53 -26 53 -72q0 -24 -17 -68.5t-17 -48.5q0 -8 10 -8q30 0 82 58q17 19 68 88l14 -10q-69 -92 -79 -102z" />
    <glyph glyph-name="l" unicode="l" horiz-adv-x="245" 
d="M245 334q-161 -276 -161 -308q0 -5 7 -5q31 0 82 58q11 13 67 88l15 -10q-65 -85 -76 -97q-56 -61 -102 -61q-29 0 -44 23q-14 19 -14 49q0 52 112 244q-72 -88 -126 -164l-14 10q33 47 164 210q11 13 37 47q5 6 38 64q61 105 111 180l105 8z" />
    <glyph glyph-name="m" unicode="m" horiz-adv-x="738" 
d="M571 -6q-60 0 -60 78q0 49 30 108q18 35 55 86q30 41 30 51q0 7 -10 7q-45 0 -144 -134q-68 -91 -122 -185l-123 -7q50 78 93 160q62 117 62 153q0 7 -5 7q-52 0 -257 -311l-124 -8q174 270 174 318q0 5 -3 6q-33 0 -162 -177l-14 10q137 189 194 189q54 0 54 -66
q0 -44 -31 -106l-20 -35q55 76 73 97q89 108 139 108q56 0 56 -71q0 -46 -44 -135q145 206 213 206q29 0 45 -22.5t16 -52.5q0 -43 -31 -103q-18 -34 -54 -89q-28 -43 -28 -52q0 -8 10 -8q33 0 81 58q6 7 69 88l14 -10q-33 -53 -76 -97q-59 -61 -100 -61z" />
    <glyph glyph-name="n" unicode="n" horiz-adv-x="526" 
d="M459 54q-55 -60 -104 -60q-66 0 -66 81q0 46 32 104q16 28 59 84q32 41 32 52q0 8 -11 8q-40 0 -147 -132q-61 -75 -133 -182l-127 -15q177 268 177 321q0 7 -5 7q-33 0 -161 -176l-14 10q63 87 86 113q67 76 109 76q53 0 53 -63q0 -42 -32 -108q-3 -6 -29 -54
q60 81 87 113q95 112 145 112q59 0 59 -73q0 -49 -32 -108q-13 -24 -57 -87q-29 -42 -29 -53q0 -9 14 -9q37 0 87 57q5 6 69 90l14 -10q-40 -51 -76 -98z" />
    <glyph glyph-name="o" unicode="o" horiz-adv-x="352" 
d="M305 86q-38 -38 -71 -38q-9 0 -18 1q-60 -55 -109 -55q-47 0 -74 36q-25 33 -25 81q0 24 13 59q-8 -11 -16 -24l-14 10q130 189 255 189q84 0 84 -89q0 -80 -100 -191q5 -1 7 -1q26 0 59 36q17 20 51 62l14 -10q-40 -51 -56 -66zM264 326q-46 0 -111 -122
q-61 -114 -61 -169q0 -22 21 -22q41 0 85 45q-4 9 -4 15q0 15 10.5 23.5t24.5 5.5q68 111 68 173q0 51 -33 51z" />
    <glyph glyph-name="p" unicode="p" horiz-adv-x="481" 
d="M310 -6q-63 0 -63 76q0 47 33 106q16 28 60 86q32 41 32 53q0 8 -8 8q-34 0 -191 -176q-21 -23 -70 -80q-22 -37 -62 -109l-123 -219l-111 -5l379 644q-68 -85 -181 -232l-14 10q41 56 128 162.5t127 162.5l56 96h88l-244 -434l78 89q75 81 107 100q22 13 41 13
q26 0 41 -23.5t15 -50.5q0 -45 -33 -105q-15 -28 -59 -89q-31 -44 -31 -56q0 -7 13 -7q38 0 86 58q15 18 70 90l13 -10q-99 -158 -177 -158z" />
    <glyph glyph-name="q" unicode="q" horiz-adv-x="428" 
d="M276 24q36 10 77 50q8 9 70 83l14 -10q-76 -111 -156 -140q16 -43 16 -74q0 -76 -55 -166q-62 -102 -132 -102q-63 0 -63 74q0 52 55 155l78 144q-55 -49 -97 -49q-37 0 -59 33q-18 28 -18 67q0 30 16 76l-17 -24l-14 10q129 189 253 189q61 0 69 -61l32 54h106
q-68 -115 -175 -309zM262 321q-41 0 -114 -128q-69 -122 -69 -169q0 -15 12 -15q73 0 160 156q45 80 45 111q0 45 -34 45zM264 4q-151 -281 -151 -308q0 -12 12 -12q9 0 30 15q53 36 89 103t36 131q0 30 -16 71z" />
    <glyph glyph-name="r" unicode="r" horiz-adv-x="324" 
d="M160 -4q-31 0 -49 22t-18 54q0 53 52 140t52 93q0 9 -21 20q-11 6 -28 15l-143 -193l-14 10l144 193q-8 10 -8 21q0 15 10.5 29t25.5 14t15 -16t-19 -44q23 -11 69.5 -35t46.5 -59q0 -27 -53.5 -125t-53.5 -110q0 -7 7 -7q34 0 81 58q16 19 67 87l14 -10
q-101 -157 -177 -157z" />
    <glyph glyph-name="s" unicode="s" horiz-adv-x="292" 
d="M218 51q-58 -55 -123 -55q-43 0 -75 23q-35 26 -35 68q0 22 11.5 38.5t32.5 16.5q18 0 30.5 -12.5t12.5 -30.5q0 -25 -29 -41q-18 -11 -18 -15q0 -18 25 -18q24 0 46 34q59 92 59 198q-1 12 -8 83l-142 -192l-14 9l157 210q6 60 43 60q13 0 13 -10q0 -3 -21 -23
q-17 -17 -17 -35q0 -21 36.5 -91.5t36.5 -115.5q0 -31 -13 -67q28 30 66 87l15 -10q-55 -79 -89 -111z" />
    <glyph glyph-name="t" unicode="t" horiz-adv-x="254" 
d="M203 427q14 24 43 74q43 74 70 111l104 9l-87 -143h84v-19h-97q-231 -399 -231 -431q0 -8 13 -8q31 0 82 58q14 15 68 88l14 -9q-62 -83 -75 -97q-56 -62 -100 -62q-29 0 -47 20.5t-18 49.5q0 52 55 151q18 32 59 102q-51 -64 -132 -170l-14 9q37 50 209 267z" />
    <glyph glyph-name="u" unicode="u" horiz-adv-x="486" 
d="M419 55q-57 -61 -103 -61q-29 0 -45.5 20t-16.5 50q0 37 63 166q-55 -82 -83 -117q-93 -118 -147 -118q-28 0 -44 20.5t-16 48.5q0 59 102 235q-51 -52 -124 -153l-14 10q79 108 153 182l120 8q-169 -284 -169 -322q0 -8 6 -8q41 0 149 148q17 23 118 175l122 7l-95 -170
q-71 -129 -71 -154q0 -6 8 -6q30 0 81 58q12 14 68 88l15 -10q-57 -75 -77 -97z" />
    <glyph glyph-name="v" unicode="v" horiz-adv-x="417" 
d="M328 82q-13 0 -26 4q-86 -92 -150 -92q-40 0 -61.5 26.5t-21.5 66.5q0 41 28 98q18 37 50 85q28 42 28 48q0 5 -5 5q-35 0 -165 -177l-14 10q67 92 86 113q67 76 109 76q52 0 52 -70q0 -56 -51.5 -146.5t-51.5 -101.5q0 -14 22 -14q48 0 130 83q-28 25 -28 66
q0 49 34 111q38 71 82 71q34 0 34 -42q0 -84 -95 -202q7 -1 15 -1q36 0 84 63l13 -10q-52 -70 -98 -70zM364 263q-31 0 -58.5 -38.5t-27.5 -71.5q0 -26 21 -45q79 96 79 139q0 16 -14 16z" />
    <glyph glyph-name="w" unicode="w" horiz-adv-x="601" 
d="M516 86q-12 0 -26 5q-43 -46 -64 -62q-44 -34 -84 -34q-35 0 -58 29q-20 26 -20 62q0 42 23 95q5 12 20 41l-79 -112q-87 -109 -139 -109q-28 0 -44 21t-16 50q0 43 43 128q13 26 57 100q-50 -50 -124 -153l-14 9q47 61 74 95q44 53 80 87l123 8q-47 -71 -102 -166
q-74 -128 -74 -153q0 -7 9 -7q64 0 262 318l124 8q-44 -67 -96 -165q-66 -124 -66 -155q0 -13 17 -13q56 0 134 87q-21 25 -21 63q0 50 32 115q38 76 81 76q34 0 34 -47q0 -73 -101 -202q9 -2 17 -2q34 0 78 59l13 -9q-49 -67 -93 -67zM554 270q-30 0 -56 -45
q-23 -39 -23 -73q0 -22 12 -38q80 100 80 140q0 16 -13 16z" />
    <glyph glyph-name="x" unicode="x" horiz-adv-x="400" 
d="M380 254q-39 0 -39 45q0 8 -4 8q-8 0 -41.5 -50t-36.5 -64q-2 -30 -11 -86q-15 -61 -15 -74q0 -17 12 -17q30 0 80 56q12 14 70 90l14 -10q-25 -34 -76 -98q-51 -60 -101 -60q-69 0 -85 126q-64 -126 -119 -126q-22 0 -36.5 15.5t-14.5 37.5q0 46 45 46q27 0 38 -25
q8 -20 13 -20q18 0 73 107q6 49 10 67q2 9 12 45q7 26 7 45q0 10 -8 10q-33 0 -162 -176l-14 10q62 85 87 113q67 76 109 76q59 0 71 -114q62 114 116 114q21 0 34.5 -13.5t13.5 -34.5q0 -43 -42 -43z" />
    <glyph glyph-name="y" unicode="y" horiz-adv-x="497" 
d="M421 49q-52 -47 -110 -56q-23 -45 -70 -134q-110 -199 -242 -199q-35 0 -57.5 23.5t-22.5 58.5q0 77 110 147q47 30 175 87l102 208q-57 -79 -73 -99q-78 -96 -125 -96q-27 0 -43 25q-14 21 -14 50q0 82 97 203q34 41 34 46q0 6 -9 6q-37 0 -168 -178l-14 10
q137 189 192 189q25 0 39 -21.5t14 -47.5q0 -47 -34 -108q-15 -28 -62 -94q-32 -46 -32 -55q0 -6 7 -6q43 0 142 136q63 86 120 184l117 9q-100 -173 -173 -325q48 11 93 53q32 29 78 92l14 -10q-55 -71 -85 -98zM79 -111q-58 -42 -96 -102q-30 -46 -30 -77q0 -33 43 -33
q24 0 45 17q32 25 88 129q6 10 64 131q-76 -37 -114 -65z" />
    <glyph glyph-name="z" unicode="z" horiz-adv-x="390" 
d="M293 186q-46 -67 -91 -105q31 -15 48 -49q74 41 135 125l14 -10q-66 -90 -142 -131q10 -26 10 -47q0 -97 -99 -203t-195 -106q-32 0 -52 19t-20 50q0 75 117 167q51 40 176 114q7 18 7 29q0 16 -13 29q-58 -47 -98 -47q-31 0 -31 24q0 23 33 36q26 10 54 10q20 0 38 -5
q39 33 83 95q-33 -9 -55 -9q-76 0 -76 62q0 19 16 51l15 31v2q-33 0 -162 -177l-14 10q62 86 87 114q66 75 110 75q47 0 47 -49q0 -25 -23 -61l-20 -34q1 -7 22 -7q29 0 66 12q82 140 115 140q17 0 17 -19q0 -62 -119 -136zM31 -127q-107 -92 -107 -154q0 -39 33 -39
q46 0 134 133q68 102 97 172q-86 -51 -157 -112z" />
    <glyph glyph-name="braceleft" unicode="{" horiz-adv-x="1621" 
d="M1556 492q-4 -12 -9 -24.5t-17 -20.5q-51 -31 -235 -46q-132 -12 -262 -12q37 -24 43 -29q26 -21 26 -42q0 -32 -45 -44l-2 -2l34 -32q18 -19 18 -43q0 -18 -19 -26.5t-37 -15.5q32 -36 32 -66q0 -66 -101 -93q-62 -17 -154 -17q-143 0 -237 41q-12 8 -39 21
q-20 -32 -45 -46l-2 1q17 15 43 48q-40 29 -40 56q0 19 18 19q27 0 28 -64q74 -45 174 -53l34 1q70 2 133 21q90 28 90 79q0 43 -36 59v3q22 0 39.5 12.5t17.5 34.5q0 26 -17.5 37t-36.5 21l1 2q22 3 36 21t14 40q0 26 -25 45.5t-52 20.5v3l6 2q26 -3 63 -3q431 0 465 68
q-2 28 -164 44q-115 11 -223 11q-347 0 -511 -86q-107 -56 -163 -210q4 -8 10.5 -51t6.5 -55q0 -66 -35 -66q-28 0 -28 51q0 34 34 125l-23 69q-24 -46 -51 -107q8 -23 8 -98q0 -108 -42 -108q-28 0 -28 27q0 57 49 176q-15 61 -33 124q-26 -52 -72 -158q11 -29 11 -108
q0 -93 -36 -93q-15 0 -23.5 16t-8.5 32q0 49 48 161q-9 49 -31 121q-61 -138 -61 -143q8 -83 8 -97q0 -128 -48 -128q-13 0 -21 21q-7 17 -7 33q0 60 52 177q-8 39 -31 113l-2 -1q-12 -32 -16 -51l-2 -2l-14 -54q-9 -34 -9 -54q0 -6 2.5 -20.5t1.5 -21.5v-9l-7 -1
q-2 16 -2 24q0 118 38 230q-13 66 -13 104q0 31 11 71q15 52 37 52q16 0 16 -49q0 -71 -29 -177q4 -24 31 -126q6 7 34 61t28 60q0 -2 -5.5 25.5t-5.5 92.5q0 106 32 106q30 0 30 -49q0 -53 -25 -125l-12 -33l26 -135h1q26 48 73 146q-9 39 -9 60q0 153 43 153q24 0 24 -50
q0 -30 -20.5 -81.5t-20.5 -59.5t12 -66t15 -64l52 97q-8 32 -8 64q0 108 44 108q16 0 20 -21q-10 -66 -43 -141q5 -30 21 -76q120 233 264 282q31 10 175 33q78 13 196 13q141 0 292 -16q224 -23 233 -69zM386 381l-8 8q-13 0 -13 -16q0 -1 8 -36q6 15 13 44zM294 417
q0 24 -14 24q-10 0 -10 -17q0 -25 11 -60q13 38 13 53zM549 58q0 10 -6 27.5t-12 17.5q-2 0 -5.5 -2.5t-3.5 -5.5q0 -9 27 -37zM403 170q0 8 -10 43q-9 -28 -9 -37q0 -22 11 -22h3zM182 407q0 21 -13 21q-11 0 -14.5 -10t-6.5 -19l14 -71q6 8 13 38t7 41zM72 399
q0 31 -14 31q-17 -10 -22 -35q3 -21 11 -63q4 5 14.5 32.5t10.5 34.5zM304 174l-3 -2q-20 -37 -20 -63q0 -24 14 -24q7 0 12.5 9t5.5 15q0 2 -9 65zM190 145q-7 -10 -15.5 -32t-8.5 -32q0 -25 14 -25q17 0 17 31q0 1 -7 58zM93 51l-9 76q-30 -55 -30 -71q0 -39 19 -39l9 3
q13 17 11 31z" />
    <glyph glyph-name="bar" unicode="|" horiz-adv-x="1230" 
d="M1201 396q-3 -64 -111 -100q-87 -29 -166 -25q-35 2 -154 25q-89 -36 -164 -48l-3 -3q1 -11 13.5 -34.5t20.5 -24.5q10 0 85 21t115 19q70 -4 68 -42q-2 -30 -33 -37q-25 -5 -51 -9q47 -30 46 -53q0 -9 -14 -21q-17 -5 -24 -5q-29 2 -66 22l-2 -1q38 -43 36 -68l-3 -12
q-9 -14 -24 -13q-30 1 -69 58v-4q2 -20 3 -61q-1 -16 -11 -33t-24 -16q-20 1 -32 40q-4 11 -13 57q-15 -29 -30 -57q-22 -38 -47 -36q-30 1 -28 40q1 9 17 55l-1 3q-22 -16 -45 -32q-32 -19 -50 -18q-30 2 -29 27q2 39 61 82l-7 1q-16 -2 -47 -3q-58 3 -57 36q3 45 114 57
q41 4 137 3q-10 19 -30 58q-11 -1 -39.5 -4t-43.5 -2q-10 1 -28 -2q-21 -3 -29 -3q-91 -3 -126 -1q-104 5 -189 41q-118 49 -114 134q3 59 68 94q58 30 134 30q27 0 50 -4q20 -7 48 -8h4q135 129 321 129q70 0 135 -22q48 -16 75 -40q22 -21 50 -69q52 2 87 2q74 -1 136 -26
q84 -34 80 -97zM1123 381q2 47 -61 72q-44 18 -103 21q-20 1 -50 0q-3 -5 -4 -11q-13 -78 -84 -133l2 -3q24 -9 75 -20t76 -12q55 -3 95 14q51 22 54 72zM826 459v7l-9 1q-31 1 -90 -25t-78 -51l111 -44q24 11 44.5 47.5t21.5 64.5zM812 509q-19 44 -83 71q-53 23 -109 26
q-65 3 -154 -21q-101 -28 -131 -72l66 -21q37 -14 112 -47t111 -46q12 5 37.5 33t65.5 46q42 15 85 31zM717 315l-99 38q-6 -5 -13.5 -27t-8.5 -33q1 6 3 -22l7 -1q12 0 55 18t56 27zM820 177q-11 19 -37 20q-16 1 -50 -5q-37 -7 -48 -14q34 -7 101 -17q33 -2 34 16z
M792 115q1 9 -40 25q-37 15 -50 16l-12 1q28 -23 41 -31q26 -17 46 -18q15 -1 15 7zM743 66q1 19 -65 69q6 -22 21 -46q19 -30 35 -31q9 0 9 8zM681 43q0 13 -11 46t-19 45q-3 -14 -6 -42q-1 -16 4 -44q6 -36 17 -36q5 0 9.5 12t5.5 19zM597 360q-16 10 -150 60.5t-146 51.5
q-5 0 -17 -20.5t-18 -19.5q-7 0 -6 9q0 6 19 36q-28 11 -79 23q-41 2 -70 -15q-35 -21 -37 -62q-4 -72 109 -122q86 -37 173 -42q157 -8 204 9l1 20q1 35 17 72zM628 126l-1 5q-16 -16 -36 -49q-22 -37 -23 -55q-1 -19 10 -20q20 -1 35 50q8 35 15 69zM606 162q-23 3 -68 7
q-18 1 -53 -7q-42 -11 -43 -24q0 -6 14 -11t22 -6q29 -1 66 14q31 13 62 27zM606 139q-59 -22 -78 -32q-50 -28 -51 -59q3 -7 13 -7q24 -1 66 37q38 35 50 61z" />
    <glyph glyph-name="braceright" unicode="}" horiz-adv-x="1621" 
d="M-1 492q30 -75 236 -99q93 -10 287 -10q-21 -13 -43 -26q-26 -19 -26 -39q0 -32 45 -44l3 -2q-18 -16 -35 -32q-17 -19 -17 -43q0 -18 20 -28q17 -7 35 -14q-31 -36 -31 -66q0 -66 100 -93q63 -17 155 -17q142 0 236 41q13 8 39 21q21 -32 46 -46l2 1q-17 15 -43 48
q39 29 39 56q0 19 -17 19q-28 0 -29 -64q-73 -45 -173 -53q-1 0 -35 1q-70 2 -133 21q-90 28 -90 79q0 43 37 59v3q-23 0 -40.5 12.5t-17.5 34.5q0 26 18 37t36 21l-1 2q-22 3 -36 21t-14 40q0 26 25 45.5t53 20.5v3l-6 2q-26 -3 -64 -3q-431 0 -464 68q1 28 163 44
q115 11 223 11q347 0 511 -86q53 -28 98 -96q9 -12 66 -114q-4 -8 -10.5 -51t-6.5 -55q0 -66 34 -66q28 0 28 51q0 34 -33 125l22 69q25 -46 51 -107q-8 -23 -8 -98q0 -108 42 -108q28 0 28 27q0 57 -48 176q14 61 33 124q25 -52 71 -158q-11 -29 -11 -108q0 -93 37 -93
q15 0 23 16t8 32q0 49 -47 161q9 49 31 121q61 -138 60 -143q-7 -83 -7 -97q0 -128 48 -128q13 0 21 21q6 17 6 33q0 60 -52 177q8 39 32 113l1 -1q13 -32 16 -51l2 -2q20 -89 20 -111q0 -43 -1 -39l1 -9l6 -1q2 16 2 24q0 118 -38 230q14 66 14 104q0 31 -12 71
q-14 52 -37 52q-16 0 -16 -49q0 -71 30 -177q-5 -24 -31 -126q-7 7 -34.5 61t-27.5 60q0 -2 5.5 25.5t5.5 92.5q0 106 -32 106q-30 0 -30 -49q0 -53 25 -125l11 -33l-26 -135h-1q-25 48 -72 146q8 39 8 60q0 153 -42 153q-24 0 -24 -50q0 -30 20 -81.5t20 -59.5t-11.5 -66
t-15.5 -64l-52 97q8 32 8 64q0 108 -44 108q-16 0 -20 -21q10 -66 43 -141q-5 -30 -20 -76q-121 233 -264 282q-32 10 -175 33q-78 13 -196 13q-142 0 -293 -16q-224 -23 -233 -69zM1169 381l8 8q14 0 14 -16q0 -1 -8 -36q-7 15 -14 44zM1261 417q0 24 14 24q11 0 11 -17
q0 -25 -11 -60q-14 38 -14 53zM1007 58q0 10 5.5 27.5t12.5 17.5q2 0 7 -2q2 -3 2 -6q0 -9 -27 -37zM1152 170q0 8 10 43q9 -28 9 -37q0 -22 -11 -22h-2zM1373 407q0 21 14 21q10 0 14 -10t7 -19l-15 -71q-5 8 -12.5 38t-7.5 41zM1483 399q0 31 15 31q17 -10 22 -35
q-3 -21 -12 -63q-4 5 -14.5 32.5t-10.5 34.5zM1252 174l3 -2q20 -37 20 -63q0 -24 -15 -24q-6 0 -12 9t-6 15q0 2 10 65zM1366 145q6 -10 14.5 -32t8.5 -32q0 -25 -14 -25q-17 0 -17 31q0 1 8 58zM1462 51l10 76q29 -55 29 -71q0 -39 -18 -39l-9 3q-14 17 -12 31z" />
    <glyph glyph-name="asciitilde" unicode="~" horiz-adv-x="285" 
d="M202 702q-17 0 -58 23.5t-52 23.5q-42 0 -57 -28l-14 15q31 66 72 66q18 0 58.5 -23.5t51.5 -23.5q44 0 61 32l10 -20q-31 -65 -72 -65z" />
    <glyph glyph-name="Adieresis" unicode="&#xc4;" horiz-adv-x="830" 
d="M1027 722q-20 0 -34 14t-14 34q0 21 14 35t35 14q20 0 34 -14.5t14 -34.5t-14.5 -34t-34.5 -14zM878 722q-20 0 -34 14t-14 34q0 21 14 35t35 14q20 0 34 -14.5t14 -34.5t-14.5 -34t-34.5 -14zM774 355q-41 -85 -142 -319q104 13 185 121l15 -9q-49 -63 -92 -91
q-50 -33 -118 -39l-12 -22l-122 2l25 43q-75 30 -132 97q-130 -150 -251 -150q-52 0 -89 34t-37 86q0 38 23 66.5t60 28.5q19 0 37 -16.5t18 -35.5q0 -33 -33 -48q-27 -9 -55 -19q-9 -10 -9 -21q0 -27 30 -43q26 -14 55 -14q120 0 240 145q-43 71 -43 134q0 45 21 76
q25 35 68 35q62 0 106 -64q113 136 192 207q127 114 255 147q-101 -137 -195 -331zM709 510q-73 -68 -178 -193q28 -53 28 -129q0 -31 -8 -77l172 275q96 150 193 267q-102 -46 -207 -143zM454 347q-39 0 -68 -39q-25 -35 -25 -76q0 -28 21 -66q20 23 127 153q-27 28 -55 28
zM519 302q-82 -94 -127 -150q56 -68 127 -95q23 69 23 138q0 64 -23 107z" />
    <glyph glyph-name="Aring" unicode="&#xc5;" horiz-adv-x="830" 
d="M908 699q-28 0 -46.5 19.5t-18.5 47.5t18.5 48t46.5 20t47.5 -20t19.5 -48t-19.5 -47.5t-47.5 -19.5zM774 355q-41 -85 -142 -319q104 13 185 121l15 -9q-49 -63 -92 -91q-50 -33 -118 -39l-12 -22l-122 2l25 43q-75 30 -132 97q-130 -150 -251 -150q-52 0 -89 34t-37 86
q0 38 23 66.5t60 28.5q19 0 37 -16.5t18 -35.5q0 -33 -33 -48q-27 -9 -55 -19q-9 -10 -9 -21q0 -27 30 -43q26 -14 55 -14q120 0 240 145q-43 71 -43 134q0 45 21 76q25 35 68 35q62 0 106 -64q113 136 192 207q127 114 255 147q-101 -137 -195 -331zM908 807
q-17 0 -27.5 -12t-10.5 -29q0 -16 11 -28t27 -12q17 0 28.5 11.5t11.5 28.5t-11.5 29t-28.5 12zM709 510q-73 -68 -178 -193q28 -53 28 -129q0 -31 -8 -77l172 275q96 150 193 267q-102 -46 -207 -143zM454 347q-39 0 -68 -39q-25 -35 -25 -76q0 -28 21 -66q20 23 127 153
q-27 28 -55 28zM519 302q-82 -94 -127 -150q56 -68 127 -95q23 69 23 138q0 64 -23 107z" />
    <glyph glyph-name="Ccedilla" unicode="&#xc7;" horiz-adv-x="548" 
d="M277 324q-40 -78 -53 -114q-25 -66 -25 -123q0 -81 84 -81q78 0 146 61t68 138q0 27 -14 46q-15 23 -41 23q-96 0 -126 -179l-15 -2q-7 40 -7 57q0 58 38 101t96 43q36 0 61.5 -26t25.5 -62q0 -85 -73.5 -151.5t-159.5 -66.5q-18 0 -37 5q-6 -16 -18 -43q15 5 35 6
q54 5 54 -46q0 -29 -36 -47q-30 -16 -66 -16q-19 0 -41 9l10 20q11 -9 20 -9q20 0 46.5 19.5t26.5 37.5q0 12 -19 12q-28 0 -61 -13q11 26 33 73q-68 21 -103 89q-27 54 -22 104l3 27q3 40 40 110q-151 32 -151 159q0 93 84 151q74 52 171 52q29 0 75 -6l-3 -18q-44 7 -64 7
q-81 0 -148 -73.5t-67 -154.5q0 -79 110 -102q67 115 190 222q144 125 252 125q32 0 54 -23.5t22 -56.5q0 -108 -148 -195q-116 -68 -247 -89zM595 671q-104 0 -308 -329q233 51 328 225q23 41 23 66q0 17 -13 27.5t-30 10.5z" />
    <glyph glyph-name="Eacute" unicode="&#xc9;" horiz-adv-x="471" 
d="M511 777l-115 -70h-40l109 106q23 24 37 24q29 0 29 -29q0 -19 -20 -31zM464 439q-28 0 -44.5 21.5t-16.5 50.5q0 59 75 105l10 -10q-58 -51 -58 -111q0 -16 10.5 -27.5t26.5 -11.5q38 0 64 41q23 37 23 77q0 42 -25.5 71.5t-66.5 29.5q-68 0 -119 -65q-47 -60 -47 -130
q0 -26 11 -55q11 2 23 2q72 0 89 -42l-11 -18l-26 -6q-35 0 -102 36q-80 -29 -128.5 -107t-48.5 -165q0 -109 110 -109q82 0 146.5 56t64.5 137q0 26 -14.5 45.5t-39.5 19.5q-55 0 -92 -68q-31 -56 -34 -118l-15 -2q-10 31 -10 54q0 60 40 107t99 47q37 0 60.5 -25t23.5 -62
q0 -86 -71.5 -148t-158.5 -62q-85 0 -147 53q-66 56 -66 140q0 94 83 158q70 54 172 71q-48 50 -48 110q0 78 72 126q63 42 145 42q64 0 103 -29q45 -33 45 -95q0 -49 -29 -89q-31 -45 -78 -45zM371 403q-16 5 -33 5q-8 0 -19 -2q29 -28 57 -28q17 0 17 8q0 10 -22 17z" />
    <glyph glyph-name="Ntilde" unicode="&#xd1;" horiz-adv-x="771" 
d="M924 705q-17 -1 -59 20t-53 21q-42 -3 -56 -31l-14 14q28 67 69 69q17 1 59.5 -20t52.5 -21q43 3 60 36l10 -20q-28 -66 -69 -68zM971 527q-5 1 -39 1q-22 0 -43 -21q-60 -57 -228 -369l-9 -94q-44 -23 -121 -59q23 240 32 296q28 190 77 279q20 35 53 80
q-70 -58 -121 -128q-35 -48 -126 -210q-78 -139 -131 -202q-98 -118 -198 -118q-53 0 -88.5 32.5t-35.5 84.5q0 40 26.5 71.5t65.5 31.5q24 0 40.5 -15.5t16.5 -39.5q0 -39 -33 -48q-26 -4 -52 -7q-31 -9 -31 -32q0 -28 33 -43q27 -12 59 -12q61 0 119 48q52 43 150 198
q18 29 129 207q83 134 186 211q21 16 28 16q11 0 11 -11q0 -2 -6 -14q-21 -49 -29 -99q-9 -67 -23 -197l-18 -182l79 138q26 45 28 49q79 132 137 184q32 29 62 29q29 0 29 -27q0 -24 -29 -29v1z" />
    <glyph glyph-name="Odieresis" unicode="&#xd6;" horiz-adv-x="548" 
d="M577 722q-20 0 -34 14t-14 34q0 21 14 35t35 14q20 0 34 -14.5t14 -34.5t-14.5 -34t-34.5 -14zM428 722q-20 0 -34 14t-14 34q0 21 14 35t35 14q20 0 34 -14.5t14 -34.5t-14.5 -34t-34.5 -14zM585 543l-16 7q14 32 14 50q0 34 -24 53t-58 19q-169 0 -329 -338
q-84 -179 -84 -278q0 -52 57 -52q155 0 302 294q67 133 67 210q0 46 -42 46q-63 0 -142 -119q-113 -168 -135 -343l-16 2q5 47 15 85q27 109 101 233q95 158 178 158q68 0 68 -91t-75 -217q-64 -110 -144 -185q-96 -91 -176 -91q-70 0 -108 61q-31 51 -31 125q0 204 219 390
q148 126 274 126q41 0 71.5 -23t30.5 -63q0 -22 -17 -59z" />
    <glyph glyph-name="Udieresis" unicode="&#xdc;" horiz-adv-x="710" 
d="M757 712q-20 0 -34 14t-14 34q0 21 14 35t35 14q20 0 34 -14.5t14 -34.5t-14.5 -34t-34.5 -14zM608 712q-20 0 -34 14t-14 34q0 21 14 35t35 14q20 0 34 -14.5t14 -34.5t-14.5 -34t-34.5 -14zM677 295q-139 -242 -139 -279q0 -7 7 -7q55 0 166 148l13 -9
q-115 -159 -188 -159q-61 0 -61 79q0 33 17 78q-48 -65 -69 -87q-67 -72 -119 -72q-41 0 -63 40q-17 33 -17 77q0 77 61 172q38 55 113 166q62 92 62 150q0 37 -37 56q-28 15 -69 15q-113 0 -228.5 -111t-115.5 -223q0 -32 18.5 -54.5t49.5 -22.5q63 0 130 117
q62 108 62 179q0 8 -4 34l16 2q18 -61 18 -111q0 -93 -58 -164q-61 -75 -152 -75q-44 0 -71 25.5t-27 69.5q0 87 81 187q131 163 282 163q75 0 123.5 -44.5t48.5 -118.5q0 -76 -61 -165q-35 -50 -104 -153q-79 -122 -79 -170q0 -23 22 -23q89 0 238 252l95 161
q46 78 117 182q53 6 110 8q-90 -143 -188 -313z" />
    <glyph glyph-name="aacute" unicode="&#xe1;" horiz-adv-x="458" 
d="M411 437l-115 -70h-40l109 106q23 24 37 24q29 0 29 -29q0 -19 -20 -31zM395 54q-51 -60 -103 -60q-28 0 -44.5 20t-16.5 49q0 15 9 50q-85 -119 -147 -119q-40 0 -64 32q-23 29 -23 70q0 32 14 72q-6 -9 -15 -22l-14 10q135 191 256 191q72 0 79 -58l24 39l116 18
q-169 -291 -169 -325q0 -5 8 -5q33 0 84 57q14 16 68 89l15 -10q-25 -34 -77 -98zM273 322q-37 0 -118 -126q-77 -120 -77 -163q0 -17 23 -17q70 0 180 199q29 52 29 69q0 16 -10.5 27t-26.5 11z" />
    <glyph glyph-name="agrave" unicode="&#xe0;" horiz-adv-x="457" 
d="M364 366l-116 70q-19 12 -19 31q0 29 28 29q15 0 38 -24l107 -106h-38zM395 54q-51 -60 -103 -60q-28 0 -44.5 20t-16.5 49q0 15 9 50q-85 -119 -147 -119q-40 0 -64 32q-23 29 -23 70q0 32 14 72q-6 -9 -15 -22l-14 10q135 191 256 191q72 0 79 -58l24 39l116 18
q-169 -291 -169 -325q0 -5 8 -5q33 0 84 57q14 16 68 89l15 -10q-25 -34 -77 -98zM273 322q-37 0 -118 -126q-77 -120 -77 -163q0 -17 23 -17q70 0 180 199q29 52 29 69q0 16 -10.5 27t-26.5 11z" />
    <glyph glyph-name="acircumflex" unicode="&#xe2;" horiz-adv-x="458" 
d="M418 367q-51 31 -66 56q-55 -32 -138 -52v10q81 44 149 106h14q9 -61 53 -110zM395 54q-51 -60 -103 -60q-28 0 -44.5 20t-16.5 49q0 15 9 50q-85 -119 -147 -119q-40 0 -64 32q-23 29 -23 70q0 32 14 72q-6 -9 -15 -22l-14 10q135 191 256 191q72 0 79 -58l24 39l116 18
q-169 -291 -169 -325q0 -5 8 -5q33 0 84 57q14 16 68 89l15 -10q-25 -34 -77 -98zM273 322q-37 0 -118 -126q-77 -120 -77 -163q0 -17 23 -17q70 0 180 199q29 52 29 69q0 16 -10.5 27t-26.5 11z" />
    <glyph glyph-name="adieresis" unicode="&#xe4;" horiz-adv-x="458" 
d="M412 391q-17 0 -28 11t-11 28t11.5 28.5t28.5 11.5t28 -11.5t11 -28.5t-11.5 -28t-28.5 -11zM293 391q-17 0 -28 11t-11 28t11.5 28.5t28.5 11.5q16 0 27.5 -12t11.5 -28q0 -17 -11.5 -28t-28.5 -11zM395 54q-51 -60 -103 -60q-28 0 -44.5 20t-16.5 49q0 15 9 50
q-85 -119 -147 -119q-40 0 -64 32q-23 29 -23 70q0 32 14 72q-6 -9 -15 -22l-14 10q135 191 256 191q72 0 79 -58l24 39l116 18q-169 -291 -169 -325q0 -5 8 -5q33 0 84 57q14 16 68 89l15 -10q-25 -34 -77 -98zM273 322q-37 0 -118 -126q-77 -120 -77 -163q0 -17 23 -17
q70 0 180 199q29 52 29 69q0 16 -10.5 27t-26.5 11z" />
    <glyph glyph-name="atilde" unicode="&#xe3;" horiz-adv-x="458" 
d="M371 372q-14 0 -47 18.5t-41 18.5q-33 0 -45 -23l-13 13q26 54 59 54q14 0 47 -19t41 -19q35 0 49 25l9 -16q-26 -52 -59 -52zM395 54q-51 -60 -103 -60q-28 0 -44.5 20t-16.5 49q0 15 9 50q-85 -119 -147 -119q-40 0 -64 32q-23 29 -23 70q0 32 14 72q-6 -9 -15 -22
l-14 10q135 191 256 191q72 0 79 -58l24 39l116 18q-169 -291 -169 -325q0 -5 8 -5q33 0 84 57q14 16 68 89l15 -10q-25 -34 -77 -98zM273 322q-37 0 -118 -126q-77 -120 -77 -163q0 -17 23 -17q70 0 180 199q29 52 29 69q0 16 -10.5 27t-26.5 11z" />
    <glyph glyph-name="aring" unicode="&#xe5;" horiz-adv-x="458" 
d="M348 369q-28 0 -46.5 19.5t-18.5 47.5t18.5 48t46.5 20t47.5 -20t19.5 -48t-19.5 -47.5t-47.5 -19.5zM395 54q-51 -60 -103 -60q-28 0 -44.5 20t-16.5 49q0 15 9 50q-85 -119 -147 -119q-40 0 -64 32q-23 29 -23 70q0 32 14 72q-6 -9 -15 -22l-14 10q135 191 256 191
q72 0 79 -58l24 39l116 18q-169 -291 -169 -325q0 -5 8 -5q33 0 84 57q14 16 68 89l15 -10q-25 -34 -77 -98zM348 477q-17 0 -27.5 -12t-10.5 -29q0 -16 11 -28t27 -12q17 0 28.5 11.5t11.5 28.5t-11.5 29t-28.5 12zM273 322q-37 0 -118 -126q-77 -120 -77 -163
q0 -17 23 -17q70 0 180 199q29 52 29 69q0 16 -10.5 27t-26.5 11z" />
    <glyph glyph-name="ccedilla" unicode="&#xe7;" horiz-adv-x="330" 
d="M113 -7q-5 0 -9 1q-5 -12 -14 -33q4 2 34 6q49 8 49 -39q0 -24 -31 -50q-26 -21 -68 -21q-19 0 -41 9l10 20q11 -9 20 -9q27 0 50 30q13 16 13 27q0 12 -19 12q-17 0 -53 -13q11 22 34 64q-38 8 -60 40t-22 73q0 24 10 52l-11 -16l-14 10q126 181 255 190q37 2 58 -12
q33 -23 33 -61q0 -52 -47 -52q-18 0 -30 12.5t-12 30.5q0 26 22 38q19 10 19 12q0 13 -22 13q-45 0 -113 -122q-63 -114 -63 -166q0 -23 33 -23q97 0 201 146l14 -10q-108 -159 -226 -159z" />
    <glyph glyph-name="eacute" unicode="&#xe9;" horiz-adv-x="336" 
d="M331 437l-115 -70h-40l109 106q23 24 37 24q29 0 29 -29q0 -19 -20 -31zM120 -6q-51 0 -81.5 32.5t-30.5 83.5q0 26 10 55q-5 -8 -13 -19l-14 10q139 191 268 191q85 0 85 -72q0 -65 -88 -113q-62 -34 -141 -50q-17 -52 -17 -73q0 -23 33 -23q93 0 200 146l14 -10
q-115 -158 -225 -158zM271 329q-39 0 -90 -83q-30 -48 -59 -116q34 8 57 19q40 19 76 64q40 49 40 88q0 28 -24 28z" />
    <glyph glyph-name="egrave" unicode="&#xe8;" horiz-adv-x="336" 
d="M294 366l-116 70q-19 12 -19 31q0 29 28 29q15 0 38 -24l107 -106h-38zM120 -6q-51 0 -81.5 32.5t-30.5 83.5q0 26 10 55q-5 -8 -13 -19l-14 10q139 191 268 191q85 0 85 -72q0 -65 -88 -113q-62 -34 -141 -50q-17 -52 -17 -73q0 -23 33 -23q93 0 200 146l14 -10
q-115 -158 -225 -158zM271 329q-39 0 -90 -83q-30 -48 -59 -116q34 8 57 19q40 19 76 64q40 49 40 88q0 28 -24 28z" />
    <glyph glyph-name="ecircumflex" unicode="&#xea;" horiz-adv-x="336" 
d="M358 367q-51 31 -66 56q-55 -32 -138 -52v10q81 44 149 106h14q9 -61 53 -110zM120 -6q-51 0 -81.5 32.5t-30.5 83.5q0 26 10 55q-5 -8 -13 -19l-14 10q139 191 268 191q85 0 85 -72q0 -65 -88 -113q-62 -34 -141 -50q-17 -52 -17 -73q0 -23 33 -23q93 0 200 146l14 -10
q-115 -158 -225 -158zM271 329q-39 0 -90 -83q-30 -48 -59 -116q34 8 57 19q40 19 76 64q40 49 40 88q0 28 -24 28z" />
    <glyph glyph-name="edieresis" unicode="&#xeb;" horiz-adv-x="336" 
d="M362 391q-17 0 -28 11t-11 28t11.5 28.5t28.5 11.5t28 -11.5t11 -28.5t-11.5 -28t-28.5 -11zM243 391q-17 0 -28 11t-11 28t11.5 28.5t28.5 11.5q16 0 27.5 -12t11.5 -28q0 -17 -11.5 -28t-28.5 -11zM120 -6q-51 0 -81.5 32.5t-30.5 83.5q0 26 10 55q-5 -8 -13 -19
l-14 10q139 191 268 191q85 0 85 -72q0 -65 -88 -113q-62 -34 -141 -50q-17 -52 -17 -73q0 -23 33 -23q93 0 200 146l14 -10q-115 -158 -225 -158zM271 329q-39 0 -90 -83q-30 -48 -59 -116q34 8 57 19q40 19 76 64q40 49 40 88q0 28 -24 28z" />
    <glyph glyph-name="iacute" unicode="&#xed;" horiz-adv-x="253" 
d="M311 437l-115 -70h-40l109 106q23 24 37 24q29 0 29 -29q0 -19 -20 -31zM186 56q-56 -60 -102 -60q-30 0 -46 22t-16 53q0 47 107 230q-47 -47 -124 -153l-14 9q83 115 154 183h116l-99 -164q-73 -123 -73 -152q0 -7 9 -7q31 0 82 58q14 15 68 88l14 -9q-56 -77 -76 -98z
" />
    <glyph glyph-name="igrave" unicode="&#xec;" horiz-adv-x="253" 
d="M264 366l-116 70q-19 12 -19 31q0 29 28 29q15 0 38 -24l107 -106h-38zM186 56q-56 -60 -102 -60q-30 0 -46 22t-16 53q0 47 107 230q-47 -47 -124 -153l-14 9q83 115 154 183h116l-99 -164q-73 -123 -73 -152q0 -7 9 -7q31 0 82 58q14 15 68 88l14 -9q-56 -77 -76 -98z
" />
    <glyph glyph-name="icircumflex" unicode="&#xee;" horiz-adv-x="253" 
d="M308 367q-51 31 -66 56q-55 -32 -138 -52v10q81 44 149 106h14q9 -61 53 -110zM186 56q-56 -60 -102 -60q-30 0 -46 22t-16 53q0 47 107 230q-47 -47 -124 -153l-14 9q83 115 154 183h116l-99 -164q-73 -123 -73 -152q0 -7 9 -7q31 0 82 58q14 15 68 88l14 -9
q-56 -77 -76 -98z" />
    <glyph glyph-name="idieresis" unicode="&#xef;" horiz-adv-x="253" 
d="M292 391q-17 0 -28 11t-11 28t11.5 28.5t28.5 11.5t28 -11.5t11 -28.5t-11.5 -28t-28.5 -11zM173 391q-17 0 -28 11t-11 28t11.5 28.5t28.5 11.5q16 0 27.5 -12t11.5 -28q0 -17 -11.5 -28t-28.5 -11zM186 56q-56 -60 -102 -60q-30 0 -46 22t-16 53q0 47 107 230
q-47 -47 -124 -153l-14 9q83 115 154 183h116l-99 -164q-73 -123 -73 -152q0 -7 9 -7q31 0 82 58q14 15 68 88l14 -9q-56 -77 -76 -98z" />
    <glyph glyph-name="ntilde" unicode="&#xf1;" horiz-adv-x="526" 
d="M371 382q-14 0 -47 18.5t-41 18.5q-33 0 -45 -23l-13 13q26 54 59 54q14 0 47 -19t41 -19q35 0 49 25l9 -16q-26 -52 -59 -52zM459 54q-55 -60 -104 -60q-66 0 -66 81q0 46 32 104q16 28 59 84q32 41 32 52q0 8 -11 8q-40 0 -147 -132q-61 -75 -133 -182l-127 -15
q177 268 177 321q0 7 -5 7q-33 0 -161 -176l-14 10q63 87 86 113q67 76 109 76q53 0 53 -63q0 -42 -32 -108q-3 -6 -29 -54q60 81 87 113q95 112 145 112q59 0 59 -73q0 -49 -32 -108q-13 -24 -57 -87q-29 -42 -29 -53q0 -9 14 -9q37 0 87 57q5 6 69 90l14 -10
q-40 -51 -76 -98z" />
    <glyph glyph-name="oacute" unicode="&#xf3;" horiz-adv-x="352" 
d="M351 437l-115 -70h-40l109 106q23 24 37 24q29 0 29 -29q0 -19 -20 -31zM305 86q-38 -38 -71 -38q-9 0 -18 1q-60 -55 -109 -55q-47 0 -74 36q-25 33 -25 81q0 24 13 59q-8 -11 -16 -24l-14 10q130 189 255 189q84 0 84 -89q0 -80 -100 -191q5 -1 7 -1q26 0 59 36
q17 20 51 62l14 -10q-40 -51 -56 -66zM264 326q-46 0 -111 -122q-61 -114 -61 -169q0 -22 21 -22q41 0 85 45q-4 9 -4 15q0 15 10.5 23.5t24.5 5.5q68 111 68 173q0 51 -33 51z" />
    <glyph glyph-name="ograve" unicode="&#xf2;" horiz-adv-x="352" 
d="M294 366l-116 70q-19 12 -19 31q0 29 28 29q15 0 38 -24l107 -106h-38zM305 86q-38 -38 -71 -38q-9 0 -18 1q-60 -55 -109 -55q-47 0 -74 36q-25 33 -25 81q0 24 13 59q-8 -11 -16 -24l-14 10q130 189 255 189q84 0 84 -89q0 -80 -100 -191q5 -1 7 -1q26 0 59 36
q17 20 51 62l14 -10q-40 -51 -56 -66zM264 326q-46 0 -111 -122q-61 -114 -61 -169q0 -22 21 -22q41 0 85 45q-4 9 -4 15q0 15 10.5 23.5t24.5 5.5q68 111 68 173q0 51 -33 51z" />
    <glyph glyph-name="ocircumflex" unicode="&#xf4;" horiz-adv-x="350" 
d="M338 367q-51 31 -66 56q-55 -32 -138 -52v10q81 44 149 106h14q9 -61 53 -110zM305 86q-38 -38 -71 -38q-9 0 -18 1q-60 -55 -109 -55q-47 0 -74 36q-25 33 -25 81q0 24 13 59q-8 -11 -16 -24l-14 10q130 189 255 189q84 0 84 -89q0 -80 -100 -191q5 -1 7 -1q26 0 59 36
q17 20 51 62l14 -10q-40 -51 -56 -66zM264 326q-46 0 -111 -122q-61 -114 -61 -169q0 -22 21 -22q41 0 85 45q-4 9 -4 15q0 15 10.5 23.5t24.5 5.5q68 111 68 173q0 51 -33 51z" />
    <glyph glyph-name="odieresis" unicode="&#xf6;" horiz-adv-x="352" 
d="M352 391q-17 0 -28 11t-11 28t11.5 28.5t28.5 11.5t28 -11.5t11 -28.5t-11.5 -28t-28.5 -11zM233 391q-17 0 -28 11t-11 28t11.5 28.5t28.5 11.5q16 0 27.5 -12t11.5 -28q0 -17 -11.5 -28t-28.5 -11zM305 86q-38 -38 -71 -38q-9 0 -18 1q-60 -55 -109 -55q-47 0 -74 36
q-25 33 -25 81q0 24 13 59q-8 -11 -16 -24l-14 10q130 189 255 189q84 0 84 -89q0 -80 -100 -191q5 -1 7 -1q26 0 59 36q17 20 51 62l14 -10q-40 -51 -56 -66zM264 326q-46 0 -111 -122q-61 -114 -61 -169q0 -22 21 -22q41 0 85 45q-4 9 -4 15q0 15 10.5 23.5t24.5 5.5
q68 111 68 173q0 51 -33 51z" />
    <glyph glyph-name="otilde" unicode="&#xf5;" horiz-adv-x="352" 
d="M321 362q-14 0 -47 18.5t-41 18.5q-33 0 -45 -23l-13 13q26 54 59 54q14 0 47 -19t41 -19q35 0 49 25l9 -16q-26 -52 -59 -52zM305 86q-38 -38 -71 -38q-9 0 -18 1q-60 -55 -109 -55q-47 0 -74 36q-25 33 -25 81q0 24 13 59q-8 -11 -16 -24l-14 10q130 189 255 189
q84 0 84 -89q0 -80 -100 -191q5 -1 7 -1q26 0 59 36q17 20 51 62l14 -10q-40 -51 -56 -66zM264 326q-46 0 -111 -122q-61 -114 -61 -169q0 -22 21 -22q41 0 85 45q-4 9 -4 15q0 15 10.5 23.5t24.5 5.5q68 111 68 173q0 51 -33 51z" />
    <glyph glyph-name="uacute" unicode="&#xfa;" horiz-adv-x="486" 
d="M421 437l-115 -70h-40l109 106q23 24 37 24q29 0 29 -29q0 -19 -20 -31zM419 55q-57 -61 -103 -61q-29 0 -45.5 20t-16.5 50q0 37 63 166q-55 -82 -83 -117q-93 -118 -147 -118q-28 0 -44 20.5t-16 48.5q0 59 102 235q-51 -52 -124 -153l-14 10q79 108 153 182l120 8
q-169 -284 -169 -322q0 -8 6 -8q41 0 149 148q17 23 118 175l122 7l-95 -170q-71 -129 -71 -154q0 -6 8 -6q29 0 81 58q17 19 68 88l15 -10q-57 -75 -77 -97z" />
    <glyph glyph-name="ugrave" unicode="&#xf9;" horiz-adv-x="486" 
d="M394 366l-116 70q-19 12 -19 31q0 29 28 29q15 0 38 -24l107 -106h-38zM419 55q-57 -61 -103 -61q-29 0 -45.5 20t-16.5 50q0 37 63 166q-55 -82 -83 -117q-93 -118 -147 -118q-28 0 -44 20.5t-16 48.5q0 59 102 235q-51 -52 -124 -153l-14 10q79 108 153 182l120 8
q-169 -284 -169 -322q0 -8 6 -8q41 0 149 148q17 23 118 175l122 7l-95 -170q-71 -129 -71 -154q0 -6 8 -6q29 0 81 58q17 19 68 88l15 -10q-57 -75 -77 -97z" />
    <glyph glyph-name="ucircumflex" unicode="&#xfb;" horiz-adv-x="486" 
d="M418 367q-51 31 -66 56q-55 -32 -138 -52v10q81 44 149 106h14q9 -61 53 -110zM419 55q-57 -61 -103 -61q-29 0 -45.5 20t-16.5 50q0 37 63 166q-55 -82 -83 -117q-93 -118 -147 -118q-28 0 -44 20.5t-16 48.5q0 59 102 235q-51 -52 -124 -153l-14 10q79 108 153 182
l120 8q-169 -284 -169 -322q0 -8 6 -8q41 0 149 148q17 23 118 175l122 7l-95 -170q-71 -129 -71 -154q0 -6 8 -6q29 0 81 58q17 19 68 88l15 -10q-57 -75 -77 -97z" />
    <glyph glyph-name="udieresis" unicode="&#xfc;" horiz-adv-x="486" 
d="M392 391q-17 0 -28 11t-11 28t11.5 28.5t28.5 11.5t28 -11.5t11 -28.5t-11.5 -28t-28.5 -11zM273 391q-17 0 -28 11t-11 28t11.5 28.5t28.5 11.5q16 0 27.5 -12t11.5 -28q0 -17 -11.5 -28t-28.5 -11zM419 55q-57 -61 -103 -61q-29 0 -45.5 20t-16.5 50q0 37 63 166
q-55 -82 -83 -117q-93 -118 -147 -118q-28 0 -44 20.5t-16 48.5q0 59 102 235q-51 -52 -124 -153l-14 10q79 108 153 182l120 8q-169 -284 -169 -322q0 -8 6 -8q41 0 149 148q17 23 118 175l122 7l-95 -170q-71 -129 -71 -154q0 -6 8 -6q29 0 81 58q17 19 68 88l15 -10
q-57 -75 -77 -97z" />
    <glyph glyph-name="dagger" unicode="&#x2020;" horiz-adv-x="326" 
d="M380 436q-11 0 -34.5 14.5t-38.5 16.5q-58 -93 -60 -146q-64 -70 -135 -174q-35 -52 -112 -178l-32 2q47 76 110 181q53 95 79 174q62 52 119 141q-17 -1 -55.5 -14t-49.5 -12q-22 0 -22 21q0 24 23.5 47.5t47.5 23.5q10 0 34.5 -15.5t41.5 -16.5q26 43 41 90q3 12 18 46
q29 47 67 45q23 0 23 -19q0 -24 -62 -93q-38 -41 -56 -70q18 1 56 14t52 13q21 0 21 -20q0 -24 -26 -48t-50 -23z" />
    <glyph glyph-name="degree" unicode="&#xb0;" horiz-adv-x="167" 
d="M79 543q-29 0 -48 20.5t-19 49.5t20 49t49 20t48 -20.5t19 -49.5q0 -30 -19.5 -49.5t-49.5 -19.5zM79 651q-16 0 -26 -11.5t-10 -27.5q0 -15 10.5 -26t25.5 -11q37 0 37 37q0 39 -37 39z" />
    <glyph glyph-name="cent" unicode="&#xa2;" horiz-adv-x="307" 
d="M286 351q-33 0 -33 34q0 21 16 30t16 10q0 10 -17 10q-34 0 -89 -98q-51 -92 -51 -132q0 -17 26 -17q46 0 71 18q15 11 48 57l21 2q-17 -25 -28 -39q-19 -23 -33 -34q-32 -23 -83 -23q-25 -39 -25.5 -44t-9.5 -2q-3 1 -16 6q9 18 24 43q-31 8 -47.5 34t-15.5 59
q1 68 62 127.5t129 59.5q3 0 6 -1q25 48 29 48h27q-15 -24 -32 -52q44 -13 44 -55q0 -41 -39 -41z" />
    <glyph glyph-name="sterling" unicode="&#xa3;" horiz-adv-x="748" 
d="M628 286q-46 0 -76 30t-28 76h12q-1 -38 23 -60.5t61 -22.5q36 0 63 26.5t27 62.5q0 46 -29.5 75t-75.5 29q-41 0 -74 -31q-26 -22 -52 -68q-20 -36 -40 -73q-12 -24 -39 -72l101 -1l-17 -30l-99 -2q-73 -128 -162 -192q67 -30 119 -30q135 0 178 37q22 19 40 49t18 52
q0 30 -35 30q-48 0 -88 -69l-13 13q16 30 43 53q32 27 61 27q30 0 57 -21t27 -50q0 -43 -32.5 -81.5t-75.5 -53.5q-35 -12 -85 -12q-74 0 -116 8q-47 9 -113 38q-55 -36 -118 -36q-92 0 -92 49q0 41 70 41q67 0 117 -25q25 31 48 84q20 45 39 90h-117l17 32l108 -2
q71 140 132 193q82 73 218 73q130 0 130 -119q0 -51 -40.5 -84t-91.5 -33zM68 60q-45 0 -45 -25q0 -33 68 -33q25 0 41 9q7 4 34 24q-70 25 -98 25z" />
    <glyph glyph-name="bullet" unicode="&#x2022;" horiz-adv-x="272" 
d="M142 218q-37 0 -62 25t-25 62t25.5 62.5t62.5 25.5t62 -25.5t25 -62.5t-25.5 -62t-62.5 -25z" />
    <glyph glyph-name="paragraph" unicode="&#xb6;" horiz-adv-x="398" 
d="M107 -110v39q33 0 41 3q16 6 16 28v342h-19q-146 0 -146 178q0 90 34 132q38 47 125 47h214v-39q-29 -1 -36 -5q-11 -6 -11 -26v-599q0 -42 2 -47q5 -11 45 -14v-39h-265zM164 620q-38 -1 -51 -33q-8 -22 -8 -72v-73q0 -104 53 -104h6v282zM271 620h-54v-691h54v691z" />
    <glyph glyph-name="germandbls" unicode="&#xdf;" horiz-adv-x="584" 
d="M493 186q-46 -67 -91 -105q31 -15 48 -49q74 41 135 125l14 -10q-66 -90 -142 -131q10 -26 10 -47q0 -97 -99 -203t-195 -106q-32 0 -51.5 19t-19.5 50q0 75 116 167q51 40 176 114q7 18 7 29q0 16 -13 29q-58 -47 -98 -47q-31 0 -31 24q0 23 33 36q26 10 54 10
q20 0 38 -5q38 33 82 93q-14 -7 -24 -7q-76 0 -76 62q0 19 16 51l15 31v2q-22 0 -65 -71q-18 -31 -55 -93q-56 -72 -83 -98q-52 -49 -108 -59q-59 -107 -143 -213q-121 -152 -192 -152q-23 0 -38.5 14.5t-15.5 36.5q0 23 20 63q38 77 128 161q50 47 158 128q-17 17 -17 39
q0 20 13 37t33 17q6 0 17 -5q46 96 89 168q-71 -57 -133 -145l-14 10q77 107 162 168q187 336 305 336q23 0 38.5 -14.5t15.5 -36.5q0 -23 -20 -63q-38 -78 -128 -162q-55 -51 -158 -130q-66 -148 -112 -237q46 12 93 56q29 27 76 90q22 36 66 106.5t89 70.5q47 0 47 -49
q0 -25 -23 -61l-20 -34q1 -7 22 -7q13 0 18 3q10 7 18 9q82 140 115 140q17 0 17 -19q0 -62 -119 -136zM455 643q-26 0 -61 -33q-48 -44 -175 -324q128 94 209 237q44 76 44 105q0 15 -17 15zM231 -127q-106 -92 -106 -154q0 -39 32 -39q46 0 134 133q68 102 97 172
q-86 -51 -157 -112zM-218 -231q-45 -78 -45 -105q0 -15 17 -15q27 0 62 33q51 47 177 324q-131 -96 -211 -237z" />
    <glyph glyph-name="registered" unicode="&#xae;" horiz-adv-x="374" 
d="M178 359q-63 0 -107.5 44.5t-44.5 107.5q0 65 44.5 109t109.5 44q62 0 106.5 -45.5t44.5 -107.5q0 -64 -44.5 -108t-108.5 -44zM177 641q-53 0 -90.5 -38t-37.5 -92t37.5 -92t91.5 -38t91.5 38t37.5 92q0 55 -37.5 92.5t-92.5 37.5zM232 427q-28 0 -33 33.5t-8 38.5
q-7 12 -33 12v-61h25v-20h-86v20h26v137q-2 0 -7 -1h-6q-7 -1 -13 -1v21h85q66 0 66 -46q0 -30 -38 -43q16 -14 24 -48v1q2 -5 5 -14q1 -2 2 -2q5 0 5 23h19v-7q0 -43 -33 -43zM187 586h-29v-55h20q32 0 32 28q0 27 -23 27z" />
    <glyph glyph-name="copyright" unicode="&#xa9;" horiz-adv-x="706" 
d="M338 -12q-141 0 -241.5 100.5t-100.5 241.5q0 146 100.5 245t246.5 99q140 0 239 -101.5t99 -241.5q0 -142 -100.5 -242.5t-242.5 -100.5zM335 625q-120 0 -203 -87t-83 -207q0 -122 84 -207.5t206 -85.5q121 0 206 85.5t85 206.5q0 124 -85.5 209.5t-209.5 85.5z
M338 129q-84 0 -136 59q-49 56 -49 141q0 82 50 143q54 65 135 65q43 0 89 -30l19 27h35v-173h-39q-17 69 -29 90q-24 43 -75 43q-97 0 -97 -168q0 -153 103 -153q89 0 109 116l43 -7q-20 -153 -158 -153z" />
    <glyph glyph-name="trademark" unicode="&#x2122;" horiz-adv-x="598" 
d="M517 626v-196h36v-27h-118v27h36v166l-70 -193h-16l-74 194v-117q0 -29 4 -38q7 -12 34 -12v-27h-106v27q28 0 33 9.5t5 40.5v144h-36v29h95l63 -166l60 166h89l2 -27h-37zM187 550q0 20 -5 49q-12 28 -41 28q-9 0 -9 -7v-191h38v-26h-124v26h39q-1 31 -1 191q0 7 -9 7
q-30 0 -43 -33q0 -13 -3 -44h-25v103h208l1 -103h-26z" />
    <glyph glyph-name="acute" unicode="&#xb4;" horiz-adv-x="471" 
d="M311 437l-115 -70h-40l109 106q23 24 37 24q29 0 29 -29q0 -19 -20 -31z" />
    <glyph glyph-name="dieresis" unicode="&#xa8;" horiz-adv-x="471" 
d="M382 391q-17 0 -28 11t-11 28t11.5 28.5t28.5 11.5t28 -11.5t11 -28.5t-11.5 -28t-28.5 -11zM263 391q-17 0 -28 11t-11 28t11.5 28.5t28.5 11.5q16 0 27.5 -12t11.5 -28q0 -17 -11.5 -28t-28.5 -11z" />
    <glyph glyph-name="AE" unicode="&#xc6;" horiz-adv-x="1104" 
d="M1112 433q-28 0 -44.5 21.5t-16.5 50.5q0 59 75 105l10 -10q-58 -51 -58 -111q0 -16 10.5 -27.5t26.5 -11.5q38 0 64 41q23 37 23 77q0 41 -26 71t-66 30q-68 0 -121.5 -54t-53.5 -122q0 -26 20 -74q16 3 33 3q66 0 81 -37q-10 -19 -14 -23q-8 -7 -25 -7q-35 0 -102 36
q-83 -29 -140 -99q-59 -74 -59 -158q0 -55 28.5 -89.5t82.5 -34.5q82 0 145 55q67 57 67 138q0 26 -14.5 45.5t-39.5 19.5q-55 0 -92 -68q-31 -56 -34 -118l-16 -2q-3 15 -3 57q0 61 35 104q38 47 98 47q37 0 60.5 -25t23.5 -62q0 -86 -73.5 -149t-160.5 -63
q-57 0 -107.5 28.5t-77.5 77.5q-15 -40 -41 -99l-122 2l26 39q-72 30 -133 101q-130 -150 -251 -150q-52 0 -89 34t-37 86q0 38 23 66.5t60 28.5q19 0 37 -16.5t18 -35.5q0 -33 -33 -48q-27 -9 -55 -19q-9 -10 -9 -21q0 -27 30 -43q26 -14 55 -14q120 0 240 145
q-43 71 -43 134q0 45 21 76q25 35 68 35q62 0 106 -64q113 136 192 207q127 114 252 146q-6 -16 -13 -29q66 35 118 35q65 0 103 -29q44 -32 44 -95q0 -49 -28 -90q-31 -44 -78 -44zM986 402q-4 0 -8 1l-3 1q28 -26 55 -26q17 0 17 8q0 16 -61 16zM854 517q-45 -72 -83 -145
q61 30 131 41q-46 48 -48 104zM709 510q-73 -68 -178 -193q28 -53 28 -129q0 -31 -8 -77l172 275q96 150 193 267q-102 -46 -207 -143zM454 347q-39 0 -68 -39q-25 -35 -25 -76q0 -28 21 -66q20 23 127 153q-27 28 -55 28zM519 302q-82 -94 -127 -150q56 -68 127 -95
q20 62 20 139q0 67 -20 106z" />
    <glyph glyph-name="Oslash" unicode="&#xd8;" horiz-adv-x="548" 
d="M601 601q0 -22 -16 -58l-16 7q8 18 11 30l-49 -50q10 -22 10 -51q0 -91 -75 -217q-64 -110 -144 -185q-96 -91 -176 -91q-60 0 -97 46l-41 -43l-17 15l46 47q-30 50 -30 121q0 204 219 390q148 126 274 126q76 0 97 -57l47 48l16 -16zM472 554q-63 0 -142 -119
q-65 -97 -93 -177l269 278q-11 18 -34 18zM501 672q-81 0 -172 -91q-72 -73 -145 -220.5t-91 -252.5l116 121q44 121 107 216q84 125 157 125q29 0 46 -20l62 65q-5 27 -28 42t-52 15zM513 512l-293 -303q-18 -58 -25 -117l-16 2q6 52 15 88l-106 -110v-16q0 -52 57 -52
q155 0 302 294q67 133 67 210q0 2 -1 4z" />
    <glyph glyph-name="yen" unicode="&#xa5;" horiz-adv-x="612" 
d="M631 402q-33 0 -33 32q0 14 9 23q14 15 15 18q0 5 -11 5q-47 0 -211 -244h83l-15 -26h-86l-14 -20h89l-15 -25h-92l-93 -166l-166 -5q72 37 132 128q10 16 27 42h-88l14 26h89q6 6 14 22h-84l14 24h82q76 119 76 189q0 68 -82 68q-41 0 -78 -25q-40 -26 -46 -64
q17 -2 17 -27q0 -30 -29 -30q-20 0 -25 13q-2 6 -2 28q0 5 6 23q17 48 63 75q43 26 95 26q61 0 99 -40t38 -101q0 -45 -1 -54q115 186 195 186q23 0 39 -17.5t16 -40.5q0 -17 -12 -30t-29 -13z" />
    <glyph glyph-name="mu" unicode="&#xb5;" horiz-adv-x="618" 
d="M643 419q-93 -92 -185 -137q-4 -9 -7 -18l120 47v-38q-33 -12 -135 -51q-49 -98 -132 -161q74 -39 120 -39q86 0 193 145l14 -9q-54 -72 -94 -105q-61 -49 -125 -49q-44 0 -131 41q-84 -48 -163 -48q-41 0 -75 15q-44 19 -44 55q0 30 32 48q26 16 59 16q61 0 152 -41
q18 26 44 69q-43 -16 -95 -33q7 13 15 42l90 35q10 21 26 58l-27 -1q-71 -5 -122 54q-48 55 -48 127q0 105 110 182q100 70 208 70q25 0 72 -14l-5 -15q-43 12 -70 12q-107 0 -184.5 -83.5t-77.5 -191.5q0 -124 131 -124q13 0 20 1q188 418 344 418q35 0 59 -25t24 -60
q0 -83 -113 -192zM671 680q-84 0 -141 -161q-12 -35 -66 -215q87 46 163 138q89 107 89 197q0 41 -45 41zM91 115q-25 0 -48 -12q-27 -13 -27 -36q0 -26 36 -41q30 -11 63 -11q77 0 116 59q-86 41 -140 41z" />
    <glyph glyph-name="mu" unicode="&#x3bc;" horiz-adv-x="618" 
d="M643 419q-93 -92 -185 -137q-4 -9 -7 -18l120 47v-38q-33 -12 -135 -51q-49 -98 -132 -161q74 -39 120 -39q86 0 193 145l14 -9q-54 -72 -94 -105q-61 -49 -125 -49q-44 0 -131 41q-84 -48 -163 -48q-41 0 -75 15q-44 19 -44 55q0 30 32 48q26 16 59 16q61 0 152 -41
q18 26 44 69q-43 -16 -95 -33q7 13 15 42l90 35q10 21 26 58l-27 -1q-71 -5 -122 54q-48 55 -48 127q0 105 110 182q100 70 208 70q25 0 72 -14l-5 -15q-43 12 -70 12q-107 0 -184.5 -83.5t-77.5 -191.5q0 -124 131 -124q13 0 20 1q188 418 344 418q35 0 59 -25t24 -60
q0 -83 -113 -192zM671 680q-84 0 -141 -161q-12 -35 -66 -215q87 46 163 138q89 107 89 197q0 41 -45 41zM91 115q-25 0 -48 -12q-27 -13 -27 -36q0 -26 36 -41q30 -11 63 -11q77 0 116 59q-86 41 -140 41z" />
    <glyph glyph-name="ordfeminine" unicode="&#xaa;" horiz-adv-x="539" 
d="M476 703h-16q-9 66 -58 119l13 11q41 -25 67 -74q89 54 158 70v-10q-89 -49 -164 -116zM620 502q-24 -12 -57 -18q-114 -167 -197 -239q68 -47 68 -126q0 -16 -5 -40q67 22 111 84l14 -10q-32 -43 -58 -61t-72 -32q-16 -44 -30 -70q-50 -92 -163 -189
q-127 -110 -218 -110q-83 0 -83 92q0 178 365 268q38 81 38 137q0 8 -7 28q-76 -50 -147 -50q-45 0 -45 36q0 35 44 59q38 20 77 20q45 0 91 -23q62 50 106 107q30 40 89 119q-39 3 -62 13q-14 5 -34 18l-101 64q-63 35 -112 35q-69 0 -111 -68q-36 -59 -36 -134
q0 -31 4 -63l-23 -3q-5 36 -5 64q0 114 75 194.5t188 80.5q121 0 203 -116q17 -24 20 -27q8 -11 21 -20q29 49 64 93q56 71 89 71q24 0 24 -24q0 -37 -46 -91q-41 -49 -79 -69zM717 669q-34 0 -132 -152h11q32 0 81 53.5t49 86.5q0 12 -9 12zM254 264q-30 0 -54 -10
q-32 -14 -32 -39q0 -27 29 -27q40 0 122 50q-24 26 -65 26zM-13 -142q-30 -45 -30 -84q0 -27 16 -45.5t43 -18.5q59 0 156 134q68 93 115 187q-220 -50 -300 -173z" />
    <glyph glyph-name="ordmasculine" unicode="&#xba;" horiz-adv-x="390" 
d="M290 368h-14q-9 61 -54 109l13 10q37 -23 61 -66q81 48 143 64v-11q-81 -45 -149 -106zM293 186q-46 -67 -91 -105q31 -15 48 -49q74 41 135 125l14 -10q-66 -90 -142 -131q10 -26 10 -47q0 -97 -99 -203t-195 -106q-32 0 -52 19t-20 50q0 75 117 167q51 40 176 114
q7 18 7 29q0 16 -13 29q-58 -47 -98 -47q-31 0 -31 24q0 23 33 36q26 10 54 10q20 0 38 -5q39 33 83 95q-33 -9 -55 -9q-76 0 -76 62q0 19 16 51l15 31v2q-33 0 -162 -177l-14 10q62 86 87 114q66 75 110 75q47 0 47 -49q0 -25 -23 -61l-20 -34q1 -7 22 -7q29 0 66 12
q82 140 115 140q17 0 17 -19q0 -62 -119 -136zM31 -127q-107 -92 -107 -154q0 -39 33 -39q46 0 134 133q68 102 97 172q-86 -51 -157 -112z" />
    <glyph glyph-name="ae" unicode="&#xe6;" horiz-adv-x="484" 
d="M270 -6q-59 0 -91 43q-57 -43 -132 -43q-86 0 -83 72q3 84 89 125q37 17 139 38q17 52 17 73q0 27 -25 24q-43 -7 -52 -11q-2 -1 -21 -22q8 -7 8 -27q0 -29 -30 -29q-29 0 -29 29q0 7 3 13q51 69 125 69q63 0 90 -43q57 42 131 42q86 0 84 -72q0 -65 -107 -120
q-86 -45 -151 -48q-3 -20 -1 -32q4 -16 4 -22q0 -14 14.5 -25.5t28.5 -11.5q93 0 200 146l15 -10q-115 -158 -226 -158zM421 329q-67 0 -124 -79q-46 -62 -57 -120q37 9 97 27q38 17 73 61t35 83q0 28 -24 28zM127 192q-38 -18 -75 -64q-40 -49 -40 -88q0 -27 24 -27
q37 0 89 82q32 51 60 115q-36 -8 -58 -18z" />
    <glyph glyph-name="oslash" unicode="&#xf8;" horiz-adv-x="352" 
d="M325 291q5 -16 5 -35q0 -80 -100 -191q5 -1 7 -1q26 0 59 36q17 20 51 62l14 -10q-40 -51 -56 -66q-38 -38 -71 -38q-9 0 -18 1q-60 -55 -109 -55q-41 0 -66 26l-33 -31l-17 15l35 34q-18 30 -18 73q0 24 13 59q-8 -11 -16 -24l-14 10q130 189 255 189q47 0 69 -32l33 33
l17 -17zM264 326q-34 0 -83 -75q-39 -59 -66 -129l179 172q-7 32 -30 32zM99 77q-7 -27 -7 -42q0 -22 21 -22q41 0 85 45q-4 9 -4 15q0 15 10.5 23.5t24.5 5.5q62 101 67 162z" />
    <glyph glyph-name="questiondown" unicode="&#xbf;" horiz-adv-x="474" 
d="M367 286q-25 0 -40 18t-15 43q0 28 19 52t47 24q26 0 42.5 -18.5t16.5 -44.5q0 -29 -20.5 -51.5t-49.5 -22.5zM196 -209q-51 0 -89 31q-41 33 -41 83q0 65 75 114q46 23 137 71q73 39 73 90q0 40 -37 40q-40 0 -55 -65l-16 3q15 80 71 80q24 0 39 -17t15 -41
q0 -40 -49 -91q-15 -16 -76 -71q-46 -41 -70 -106q-10 -30 -10 -55q0 -48 46 -48q52 0 105 49t53 100q0 34 -28 34q-32 0 -59 -46q-20 -33 -31 -75l-17 2q12 49 36 86q32 52 71 52q46 0 46 -51q0 -64 -64 -117q-60 -52 -125 -52z" />
    <glyph glyph-name="exclamdown" unicode="&#xa1;" horiz-adv-x="394" 
d="M313 287q-24 0 -39 18t-15 42q0 29 19 52t47 23q25 0 41.5 -19t16.5 -44q0 -30 -20 -51t-50 -21zM192 -53q-2 -22 -7 -53q-17 -82 -69 -82q-23 0 -38 15.5t-15 38.5q0 28 19 60q2 4 37 50q73 98 134 233l16 -7q-60 -127 -77 -255z" />
    <glyph glyph-name="logicalnot" unicode="&#xac;" 
 />
    <glyph glyph-name="florin" unicode="&#x192;" 
 />
    <glyph glyph-name="guillemotleft" unicode="&#xab;" horiz-adv-x="282" 
d="M175 190q1 -7 8 -29q10 -32 32 -98l-11 -21l-73 154l148 110q5 -22 -2 -22q-2 -3 -12 -12l-38 -35q-44 -41 -52 -47zM65 190q1 -7 8 -29q10 -32 32 -98l-11 -21l-73 154l148 110q5 -22 -2 -22q-2 -3 -12 -12l-38 -35q-44 -41 -52 -47z" />
    <glyph glyph-name="guillemotright" unicode="&#xbb;" horiz-adv-x="282" 
d="M238 161q-2 6 -9 29q-10 32 -32 97l11 21l73 -154l-148 -110q-5 23 2 23q9 8 52 48t51 46zM128 161q-2 6 -9 29q-10 32 -32 97l11 21l73 -154l-148 -110q-5 23 2 23q9 8 52 48t51 46z" />
    <glyph glyph-name="ellipsis" unicode="&#x2026;" horiz-adv-x="616" 
d="M521 -6q-35 0 -35 38q0 19 15 35.5t34 16.5q37 0 37 -39q0 -19 -16 -35t-35 -16zM301 -6q-35 0 -35 38q0 19 15 35.5t34 16.5q37 0 37 -39q0 -19 -16 -35t-35 -16zM71 -6q-35 0 -35 38q0 19 15 35.5t34 16.5q37 0 37 -39q0 -19 -16 -35t-35 -16z" />
    <glyph glyph-name="nonbreakingspace" unicode="&#xa0;" horiz-adv-x="192" 
 />
    <glyph glyph-name="Agrave" unicode="&#xc0;" horiz-adv-x="830" 
d="M928 706l-116 70q-19 12 -19 31q0 29 28 29q15 0 38 -24l107 -106h-38zM774 355q-41 -85 -142 -319q104 13 185 121l15 -9q-49 -63 -92 -91q-50 -33 -118 -39l-12 -22l-122 2l25 43q-75 30 -132 97q-130 -150 -251 -150q-52 0 -89 34t-37 86q0 38 23 66.5t60 28.5
q19 0 37 -16.5t18 -35.5q0 -33 -33 -48q-27 -9 -55 -19q-9 -10 -9 -21q0 -27 30 -43q26 -14 55 -14q120 0 240 145q-43 71 -43 134q0 45 21 76q25 35 68 35q62 0 106 -64q113 136 192 207q127 114 255 147q-101 -137 -195 -331zM709 510q-73 -68 -178 -193q28 -53 28 -129
q0 -31 -8 -77l172 275q96 150 193 267q-102 -46 -207 -143zM454 347q-39 0 -68 -39q-25 -35 -25 -76q0 -28 21 -66q20 23 127 153q-27 28 -55 28zM519 302q-82 -94 -127 -150q56 -68 127 -95q23 69 23 138q0 64 -23 107z" />
    <glyph glyph-name="Atilde" unicode="&#xc3;" horiz-adv-x="830" 
d="M994 705q-17 -1 -59 20t-53 21q-42 -3 -56 -31l-14 14q28 67 69 69q17 1 59.5 -20t52.5 -21q43 3 60 36l10 -20q-28 -66 -69 -68zM774 355q-41 -85 -142 -319q104 13 185 121l15 -9q-49 -63 -92 -91q-50 -33 -118 -39l-12 -22l-122 2l25 43q-75 30 -132 97
q-130 -150 -251 -150q-52 0 -89 34t-37 86q0 38 23 66.5t60 28.5q19 0 37 -16.5t18 -35.5q0 -33 -33 -48q-27 -9 -55 -19q-9 -10 -9 -21q0 -27 30 -43q26 -14 55 -14q120 0 240 145q-43 71 -43 134q0 45 21 76q25 35 68 35q62 0 106 -64q113 136 192 207q127 114 255 147
q-101 -137 -195 -331zM709 510q-73 -68 -178 -193q28 -53 28 -129q0 -31 -8 -77l172 275q96 150 193 267q-102 -46 -207 -143zM454 347q-39 0 -68 -39q-25 -35 -25 -76q0 -28 21 -66q20 23 127 153q-27 28 -55 28zM519 302q-82 -94 -127 -150q56 -68 127 -95q23 69 23 138
q0 64 -23 107z" />
    <glyph glyph-name="Otilde" unicode="&#xd5;" horiz-adv-x="548" 
d="M564 705q-17 -1 -59 20t-53 21q-42 -3 -56 -31l-14 14q28 67 69 69q17 1 59.5 -20t52.5 -21q43 3 60 36l10 -20q-28 -66 -69 -68zM585 543l-16 7q14 32 14 50q0 34 -24 53t-58 19q-169 0 -329 -338q-84 -179 -84 -278q0 -52 57 -52q155 0 302 294q67 133 67 210
q0 46 -42 46q-63 0 -142 -119q-113 -168 -135 -343l-16 2q5 47 15 85q27 109 101 233q95 158 178 158q68 0 68 -91t-75 -217q-64 -110 -144 -185q-96 -91 -176 -91q-70 0 -108 61q-31 51 -31 125q0 204 219 390q148 126 274 126q41 0 71.5 -23t30.5 -63q0 -22 -17 -59z" />
    <glyph glyph-name="OE" unicode="&#x152;" horiz-adv-x="883" 
d="M874 439q-28 0 -44.5 21.5t-16.5 50.5q0 59 75 105l10 -10q-58 -51 -58 -111q0 -16 10.5 -27.5t26.5 -11.5q38 0 64 41q23 37 23 77q0 42 -25.5 71.5t-66.5 29.5q-68 0 -119 -65q-47 -60 -47 -130q0 -26 11 -55q11 2 23 2q72 0 89 -42l-11 -18l-26 -6q-35 0 -102 36
q-80 -29 -128.5 -107t-48.5 -165q0 -109 110 -109q82 0 146.5 56t64.5 137q0 26 -14.5 45.5t-39.5 19.5q-55 0 -92 -68q-31 -56 -34 -118l-15 -2q-10 31 -10 54q0 60 40 107t99 47q37 0 60.5 -25t23.5 -62q0 -86 -71.5 -148t-158.5 -62q-80 0 -142 49q-65 52 -70 130
q-55 -73 -115 -123q-82 -67 -149 -67q-70 0 -108 61q-31 51 -31 125q0 204 219 390q148 126 274 126q41 0 71.5 -23t30.5 -63q0 -22 -17 -59l-16 7q14 32 14 50q0 34 -24 53t-58 19q-169 0 -329 -338q-84 -179 -84 -278q0 -52 57 -52q136 0 271 235q10 39 37 72
q61 125 61 197q0 46 -42 46q-63 0 -142 -119q-113 -168 -135 -343l-16 2q6 49 18 96q25 103 100 227q93 153 176 153q68 0 68 -91q0 -49 -25 -114q64 40 148 54q-48 50 -48 110q0 78 72 126q63 42 145 42q64 0 103 -29q45 -33 45 -95q0 -49 -29 -89q-31 -45 -78 -45z
M781 403q-16 5 -33 5q-8 0 -19 -2q29 -28 57 -28q17 0 17 8q0 10 -22 17z" />
    <glyph glyph-name="oe" unicode="&#x153;" horiz-adv-x="582" 
d="M370 -8q-41 0 -71 24t-38 65q-64 -93 -148 -93q-47 0 -77 39q-28 36 -28 84q0 24 12 57q-7 -10 -15 -22l-14 10q130 189 255 189q41 0 57.5 -19.5t16.5 -61.5q0 -14 -2 -28q35 45 90.5 76t109.5 31q76 0 76 -68q0 -65 -93 -113q-63 -33 -146 -50q-7 -25 -7 -73
q0 -25 33 -25q92 0 200 148l14 -10q-116 -160 -225 -160zM518 322q-39 0 -93 -74q-44 -60 -64 -115q23 5 64 18q38 19 77 63q43 50 43 87q0 21 -27 21zM264 326q-58 0 -120 -107q-59 -101 -54 -163q2 -12 16 -30.5t25 -18.5q80 17 126 104q40 74 40 164q0 51 -33 51z" />
    <glyph glyph-name="endash" unicode="&#x2013;" horiz-adv-x="361" 
d="M342 166l-7 -12l-9 -5h-301l-7 7l2 6l7 11l8 5h302l7 -7z" />
    <glyph glyph-name="emdash" unicode="&#x2014;" horiz-adv-x="683" 
d="M642 166l-7 -12l-9 -5h-601l-7 7l2 6l7 11l8 5l609 -7z" />
    <glyph glyph-name="quotedblleft" unicode="&#x201c;" horiz-adv-x="330" 
d="M259 521q0 -10 5.5 -29t5.5 -29q0 -29 -19 -51.5t-47 -22.5q-21 0 -36 15t-15 37q0 63 96 141q70 57 155 98l7 -16q-69 -34 -96 -55q-56 -43 -56 -88zM103 524q0 -10 5.5 -29t5.5 -29q0 -29 -19 -51.5t-47 -22.5q-21 0 -36.5 15t-15.5 37q0 64 96 141q68 55 154 98l9 -15
q-67 -34 -96 -56q-56 -43 -56 -88z" />
    <glyph glyph-name="quotedblright" unicode="&#x201d;" horiz-adv-x="258" 
d="M328 387l-7 16q70 36 96 56q57 43 57 88q0 10 -5.5 29t-5.5 29q0 29 18.5 51.5t46.5 22.5q21 0 36.5 -15.5t15.5 -37.5q0 -63 -97 -141q-70 -57 -155 -98zM172 390l-7 16q70 36 96 56q57 43 57 88q0 10 -5.5 29t-5.5 29q0 29 18.5 51.5t46.5 22.5q21 0 36.5 -15.5
t15.5 -37.5q0 -63 -97 -141q-70 -57 -155 -98z" />
    <glyph glyph-name="quoteleft" unicode="&#x2018;" horiz-adv-x="258" 
d="M256 610q-53 -42 -53 -86q0 -10 5.5 -29t5.5 -29q0 -29 -19 -51.5t-47 -22.5q-22 0 -36.5 15t-14.5 37q0 64 95 141q68 56 154 98l9 -15q-71 -36 -99 -58z" />
    <glyph glyph-name="quoteright" unicode="&#x2019;" horiz-adv-x="199" 
d="M132 390l-7 16q72 37 99 58q54 41 54 86q0 9 -5.5 28.5t-5.5 29.5q0 29 18.5 51.5t46.5 22.5q22 0 37 -15.5t15 -37.5q0 -63 -97 -141q-70 -57 -155 -98z" />
    <glyph glyph-name="divide" unicode="&#xf7;" 
 />
    <glyph glyph-name="ydieresis" unicode="&#xff;" horiz-adv-x="497" 
d="M427 402q-20 0 -34 14t-14 34q0 21 14 35t35 14q20 0 34 -14.5t14 -34.5t-14.5 -34t-34.5 -14zM278 402q-20 0 -34 14t-14 34q0 21 14 35t35 14q20 0 34 -14.5t14 -34.5t-14.5 -34t-34.5 -14zM421 49q-52 -47 -110 -56q-23 -45 -70 -134q-110 -199 -242 -199
q-35 0 -57.5 23.5t-22.5 58.5q0 77 110 147q47 30 175 87l102 208q-57 -79 -73 -99q-78 -96 -125 -96q-27 0 -43 25q-14 21 -14 50q0 82 97 203q34 41 34 46q0 6 -9 6q-37 0 -168 -178l-14 10q137 189 192 189q25 0 39 -21.5t14 -47.5q0 -47 -34 -108q-15 -28 -62 -94
q-32 -46 -32 -55q0 -6 7 -6q43 0 142 136q63 86 120 184l117 9q-100 -173 -173 -325q48 11 93 53q32 29 78 92l14 -10q-55 -71 -85 -98zM79 -111q-58 -42 -96 -102q-30 -46 -30 -77q0 -33 43 -33q24 0 45 17q32 25 88 129q6 10 64 131q-76 -37 -114 -65z" />
    <glyph glyph-name="Ydieresis" unicode="&#x178;" horiz-adv-x="572" 
d="M617 712q-20 0 -34 14t-14 34q0 21 14 35t35 14q20 0 34 -14.5t14 -34.5t-14.5 -34t-34.5 -14zM468 712q-20 0 -34 14t-14 34q0 21 14 35t35 14q20 0 34 -14.5t14 -34.5t-14.5 -34t-34.5 -14zM612 435q-19 -67 -61 -199q-36 -104 -123 -175q-93 -76 -204 -76
q-66 0 -111 29q-53 34 -53 97q0 39 23.5 67.5t61.5 28.5q58 0 58 -55q0 -32 -30 -46q-16 -6 -48 -17q-23 -9 -23 -29q0 -26 40 -43q34 -13 67 -13q59 0 101 37q37 33 106 171q18 36 77 158q-39 -51 -65 -77q-64 -64 -116 -64q-32 0 -52.5 27.5t-20.5 60.5q0 48 36 116
q6 9 67 108q36 57 36 84q0 41 -77 41q-93 0 -187 -88.5t-94 -180.5q0 -54 43 -54t93 69q42 58 62 113q6 19 11 64l15 -2l2 -31q0 -80 -46 -151q-51 -79 -127 -79q-70 0 -70 69q0 99 98 193.5t198 94.5q59 0 99 -33q43 -36 43 -93q0 -47 -37 -115q-5 -9 -68 -108
q-35 -55 -35 -78q0 -10 17 -10q55 0 140 106q40 52 118 156q59 78 131 140l12 -12q-69 -81 -107 -201z" />
    <glyph glyph-name="currency" unicode="&#xa4;" 
 />
    <glyph glyph-name="guilsinglleft" unicode="&#x2039;" horiz-adv-x="233" 
d="M85 190q1 -7 8 -29q10 -32 32 -98l-11 -21l-73 154l148 110q5 -22 -2 -22q-2 -3 -12 -12l-38 -35q-44 -41 -52 -47z" />
    <glyph glyph-name="guilsinglright" unicode="&#x203a;" horiz-adv-x="233" 
d="M148 161q-2 6 -9 29q-10 32 -32 97l11 21l73 -154l-148 -110q-5 23 2 23q9 8 52 48t51 46z" />
    <glyph glyph-name="daggerdbl" unicode="&#x2021;" horiz-adv-x="33" 
 />
    <glyph glyph-name="periodcentered" unicode="&#xb7;" horiz-adv-x="224" 
d="M100 103q-23 0 -39 16.5t-16 39.5t16 40t39 17q24 0 40.5 -16.5t16.5 -40.5t-16.5 -40t-40.5 -16z" />
    <glyph glyph-name="periodcentered" unicode="&#x2219;" horiz-adv-x="224" 
d="M100 103q-23 0 -39 16.5t-16 39.5t16 40t39 17q24 0 40.5 -16.5t16.5 -40.5t-16.5 -40t-40.5 -16z" />
    <glyph glyph-name="quotesinglbase" unicode="&#x201a;" horiz-adv-x="258" 
d="M-82 -165l-7 16q72 36 99 57q54 41 54 86q0 10 -5.5 29t-5.5 29q0 29 18 52t47 23q22 0 37 -15.5t15 -37.5q0 -63 -97 -141q-70 -57 -155 -98z" />
    <glyph glyph-name="quotedblbase" unicode="&#x201e;" horiz-adv-x="377" 
d="M228 -68q-71 -58 -153 -98l-9 15q70 35 99 58q55 42 55 86q0 10 -5.5 29t-5.5 29q0 29 18 52t46 23q22 0 37 -15.5t15 -37.5q0 -62 -97 -141zM-82 -165l-7 16q72 36 99 57q54 41 54 86q0 10 -5.5 29t-5.5 29q0 29 18 52t47 23q22 0 37 -15.5t15 -37.5q0 -63 -97 -141
q-70 -57 -155 -98z" />
    <glyph glyph-name="perthousand" unicode="&#x2030;" 
 />
    <glyph glyph-name="Acircumflex" unicode="&#xc2;" horiz-adv-x="830" 
d="M1022 683q-46 29 -76 84q-101 -61 -178 -79v10q101 56 185 133h17q12 -76 66 -136zM774 355q-41 -85 -142 -319q104 13 185 121l15 -9q-49 -63 -92 -91q-50 -33 -118 -39l-12 -22l-122 2l25 43q-75 30 -132 97q-130 -150 -251 -150q-52 0 -89 34t-37 86q0 38 23 66.5
t60 28.5q19 0 37 -16.5t18 -35.5q0 -33 -33 -48q-27 -9 -55 -19q-9 -10 -9 -21q0 -27 30 -43q26 -14 55 -14q120 0 240 145q-43 71 -43 134q0 45 21 76q25 35 68 35q62 0 106 -64q113 136 192 207q127 114 255 147q-101 -137 -195 -331zM709 510q-73 -68 -178 -193
q28 -53 28 -129q0 -31 -8 -77l172 275q96 150 193 267q-102 -46 -207 -143zM454 347q-39 0 -68 -39q-25 -35 -25 -76q0 -28 21 -66q20 23 127 153q-27 28 -55 28zM519 302q-82 -94 -127 -150q56 -68 127 -95q23 69 23 138q0 64 -23 107z" />
    <glyph glyph-name="Ecircumflex" unicode="&#xca;" horiz-adv-x="471" 
d="M542 703q-46 29 -76 84q-101 -61 -178 -79v10q101 56 185 133h17q12 -76 66 -136zM464 439q-28 0 -44.5 21.5t-16.5 50.5q0 59 75 105l10 -10q-58 -51 -58 -111q0 -16 10.5 -27.5t26.5 -11.5q38 0 64 41q23 37 23 77q0 42 -25.5 71.5t-66.5 29.5q-68 0 -119 -65
q-47 -60 -47 -130q0 -26 11 -55q11 2 23 2q72 0 89 -42l-11 -18l-26 -6q-35 0 -102 36q-80 -29 -128.5 -107t-48.5 -165q0 -109 110 -109q82 0 146.5 56t64.5 137q0 26 -14.5 45.5t-39.5 19.5q-55 0 -92 -68q-31 -56 -34 -118l-15 -2q-10 31 -10 54q0 60 40 107t99 47
q37 0 60.5 -25t23.5 -62q0 -86 -71.5 -148t-158.5 -62q-85 0 -147 53q-66 56 -66 140q0 94 83 158q70 54 172 71q-48 50 -48 110q0 78 72 126q63 42 145 42q64 0 103 -29q45 -33 45 -95q0 -49 -29 -89q-31 -45 -78 -45zM371 403q-16 5 -33 5q-8 0 -19 -2q29 -28 57 -28
q17 0 17 8q0 10 -22 17z" />
    <glyph glyph-name="Aacute" unicode="&#xc1;" horiz-adv-x="830" 
d="M1011 777l-115 -70h-40l109 106q23 24 37 24q29 0 29 -29q0 -19 -20 -31zM774 355q-41 -85 -142 -319q104 13 185 121l15 -9q-49 -63 -92 -91q-50 -33 -118 -39l-12 -22l-122 2l25 43q-75 30 -132 97q-130 -150 -251 -150q-52 0 -89 34t-37 86q0 38 23 66.5t60 28.5
q19 0 37 -16.5t18 -35.5q0 -33 -33 -48q-27 -9 -55 -19q-9 -10 -9 -21q0 -27 30 -43q26 -14 55 -14q120 0 240 145q-43 71 -43 134q0 45 21 76q25 35 68 35q62 0 106 -64q113 136 192 207q127 114 255 147q-101 -137 -195 -331zM709 510q-73 -68 -178 -193q28 -53 28 -129
q0 -31 -8 -77l172 275q96 150 193 267q-102 -46 -207 -143zM454 347q-39 0 -68 -39q-25 -35 -25 -76q0 -28 21 -66q20 23 127 153q-27 28 -55 28zM519 302q-82 -94 -127 -150q56 -68 127 -95q23 69 23 138q0 64 -23 107z" />
    <glyph glyph-name="Edieresis" unicode="&#xcb;" horiz-adv-x="471" 
d="M537 732q-20 0 -34 14t-14 34q0 21 14 35t35 14q20 0 34 -14.5t14 -34.5t-14.5 -34t-34.5 -14zM388 732q-20 0 -34 14t-14 34q0 21 14 35t35 14q20 0 34 -14.5t14 -34.5t-14.5 -34t-34.5 -14zM464 439q-28 0 -44.5 21.5t-16.5 50.5q0 59 75 105l10 -10q-58 -51 -58 -111
q0 -16 10.5 -27.5t26.5 -11.5q38 0 64 41q23 37 23 77q0 42 -25.5 71.5t-66.5 29.5q-68 0 -119 -65q-47 -60 -47 -130q0 -26 11 -55q11 2 23 2q72 0 89 -42l-11 -18l-26 -6q-35 0 -102 36q-80 -29 -128.5 -107t-48.5 -165q0 -109 110 -109q82 0 146.5 56t64.5 137
q0 26 -14.5 45.5t-39.5 19.5q-55 0 -92 -68q-31 -56 -34 -118l-15 -2q-10 31 -10 54q0 60 40 107t99 47q37 0 60.5 -25t23.5 -62q0 -86 -71.5 -148t-158.5 -62q-85 0 -147 53q-66 56 -66 140q0 94 83 158q70 54 172 71q-48 50 -48 110q0 78 72 126q63 42 145 42
q64 0 103 -29q45 -33 45 -95q0 -49 -29 -89q-31 -45 -78 -45zM371 403q-16 5 -33 5q-8 0 -19 -2q29 -28 57 -28q17 0 17 8q0 10 -22 17z" />
    <glyph glyph-name="Egrave" unicode="&#xc8;" horiz-adv-x="471" 
d="M478 706l-116 70q-19 12 -19 31q0 29 28 29q15 0 38 -24l107 -106h-38zM464 439q-28 0 -44.5 21.5t-16.5 50.5q0 59 75 105l10 -10q-58 -51 -58 -111q0 -16 10.5 -27.5t26.5 -11.5q38 0 64 41q23 37 23 77q0 42 -25.5 71.5t-66.5 29.5q-68 0 -119 -65q-47 -60 -47 -130
q0 -26 11 -55q11 2 23 2q72 0 89 -42l-11 -18l-26 -6q-35 0 -102 36q-80 -29 -128.5 -107t-48.5 -165q0 -109 110 -109q82 0 146.5 56t64.5 137q0 26 -14.5 45.5t-39.5 19.5q-55 0 -92 -68q-31 -56 -34 -118l-15 -2q-10 31 -10 54q0 60 40 107t99 47q37 0 60.5 -25t23.5 -62
q0 -86 -71.5 -148t-158.5 -62q-85 0 -147 53q-66 56 -66 140q0 94 83 158q70 54 172 71q-48 50 -48 110q0 78 72 126q63 42 145 42q64 0 103 -29q45 -33 45 -95q0 -49 -29 -89q-31 -45 -78 -45zM371 403q-16 5 -33 5q-8 0 -19 -2q29 -28 57 -28q17 0 17 8q0 10 -22 17z" />
    <glyph glyph-name="Iacute" unicode="&#xcd;" horiz-adv-x="567" 
d="M721 777l-115 -70h-40l109 106q23 24 37 24q29 0 29 -29q0 -19 -20 -31zM614 585q-41 -68 -78 -190l-48 -157q121 51 121 179q0 14 -3 33l16 2q6 -35 6 -48q0 -64 -44 -116q-41 -48 -104 -72q-49 -101 -131 -159q-87 -62 -195 -62q-61 0 -103 32q-47 35 -47 94
q0 38 22 66q24 32 61 32q24 0 40.5 -15.5t16.5 -38.5q0 -28 -20 -42q-10 -7 -37.5 -15t-38.5 -16l-6 -20q13 -58 102 -58q71 0 125 66q26 32 74 128q-60 16 -95 58t-35 102q0 147 197 244q162 79 326 82l2 -17q-70 -1 -124 -92zM512 635q-85 -37 -163 -136
q-83 -105 -83 -192q0 -61 84 -84l83 173q45 92 100 159q59 72 132 117q-98 -14 -153 -37z" />
    <glyph glyph-name="Icircumflex" unicode="&#xce;" horiz-adv-x="567" 
d="M762 693q-46 29 -76 84q-101 -61 -178 -79v10q101 56 185 133h17q12 -76 66 -136zM614 585q-41 -68 -78 -190l-48 -157q121 51 121 179q0 14 -3 33l16 2q6 -35 6 -48q0 -64 -44 -116q-41 -48 -104 -72q-49 -101 -131 -159q-87 -62 -195 -62q-61 0 -103 32q-47 35 -47 94
q0 38 22 66q24 32 61 32q24 0 40.5 -15.5t16.5 -38.5q0 -28 -20 -42q-10 -7 -37.5 -15t-38.5 -16l-6 -20q13 -58 102 -58q71 0 125 66q26 32 74 128q-60 16 -95 58t-35 102q0 147 197 244q162 79 326 82l2 -17q-70 -1 -124 -92zM512 635q-85 -37 -163 -136
q-83 -105 -83 -192q0 -61 84 -84l83 173q45 92 100 159q59 72 132 117q-98 -14 -153 -37z" />
    <glyph glyph-name="Idieresis" unicode="&#xcf;" horiz-adv-x="567" 
d="M737 722q-20 0 -34 14t-14 34q0 21 14 35t35 14q20 0 34 -14.5t14 -34.5t-14.5 -34t-34.5 -14zM588 722q-20 0 -34 14t-14 34q0 21 14 35t35 14q20 0 34 -14.5t14 -34.5t-14.5 -34t-34.5 -14zM614 585q-41 -68 -78 -190l-48 -157q121 51 121 179q0 14 -3 33l16 2
q6 -35 6 -48q0 -64 -44 -116q-41 -48 -104 -72q-49 -101 -131 -159q-87 -62 -195 -62q-61 0 -103 32q-47 35 -47 94q0 38 22 66q24 32 61 32q24 0 40.5 -15.5t16.5 -38.5q0 -28 -20 -42q-10 -7 -37.5 -15t-38.5 -16l-6 -20q13 -58 102 -58q71 0 125 66q26 32 74 128
q-60 16 -95 58t-35 102q0 147 197 244q162 79 326 82l2 -17q-70 -1 -124 -92zM512 635q-85 -37 -163 -136q-83 -105 -83 -192q0 -61 84 -84l83 173q45 92 100 159q59 72 132 117q-98 -14 -153 -37z" />
    <glyph glyph-name="Igrave" unicode="&#xcc;" horiz-adv-x="567" 
d="M668 706l-116 70q-19 12 -19 31q0 29 28 29q15 0 38 -24l107 -106h-38zM614 585q-41 -68 -78 -190l-48 -157q121 51 121 179q0 14 -3 33l16 2q6 -35 6 -48q0 -64 -44 -116q-41 -48 -104 -72q-49 -101 -131 -159q-87 -62 -195 -62q-61 0 -103 32q-47 35 -47 94q0 38 22 66
q24 32 61 32q24 0 40.5 -15.5t16.5 -38.5q0 -28 -20 -42q-10 -7 -37.5 -15t-38.5 -16l-6 -20q13 -58 102 -58q71 0 125 66q26 32 74 128q-60 16 -95 58t-35 102q0 147 197 244q162 79 326 82l2 -17q-70 -1 -124 -92zM512 635q-85 -37 -163 -136q-83 -105 -83 -192
q0 -61 84 -84l83 173q45 92 100 159q59 72 132 117q-98 -14 -153 -37z" />
    <glyph glyph-name="Oacute" unicode="&#xd3;" horiz-adv-x="548" 
d="M581 777l-115 -70h-40l109 106q23 24 37 24q29 0 29 -29q0 -19 -20 -31zM585 543l-16 7q14 32 14 50q0 34 -24 53t-58 19q-169 0 -329 -338q-84 -179 -84 -278q0 -52 57 -52q155 0 302 294q67 133 67 210q0 46 -42 46q-63 0 -142 -119q-113 -168 -135 -343l-16 2
q5 47 15 85q27 109 101 233q95 158 178 158q68 0 68 -91t-75 -217q-64 -110 -144 -185q-96 -91 -176 -91q-70 0 -108 61q-31 51 -31 125q0 204 219 390q148 126 274 126q41 0 71.5 -23t30.5 -63q0 -22 -17 -59z" />
    <glyph glyph-name="Ocircumflex" unicode="&#xd4;" horiz-adv-x="548" 
d="M632 683q-46 29 -76 84q-101 -61 -178 -79v10q101 56 185 133h17q12 -76 66 -136zM585 543l-16 7q14 32 14 50q0 34 -24 53t-58 19q-169 0 -329 -338q-84 -179 -84 -278q0 -52 57 -52q155 0 302 294q67 133 67 210q0 46 -42 46q-63 0 -142 -119q-113 -168 -135 -343
l-16 2q5 47 15 85q27 109 101 233q95 158 178 158q68 0 68 -91t-75 -217q-64 -110 -144 -185q-96 -91 -176 -91q-70 0 -108 61q-31 51 -31 125q0 204 219 390q148 126 274 126q41 0 71.5 -23t30.5 -63q0 -22 -17 -59z" />
    <glyph glyph-name="Ograve" unicode="&#xd2;" horiz-adv-x="548" 
d="M548 706l-116 70q-19 12 -19 31q0 29 28 29q15 0 38 -24l107 -106h-38zM585 543l-16 7q14 32 14 50q0 34 -24 53t-58 19q-169 0 -329 -338q-84 -179 -84 -278q0 -52 57 -52q155 0 302 294q67 133 67 210q0 46 -42 46q-63 0 -142 -119q-113 -168 -135 -343l-16 2
q5 47 15 85q27 109 101 233q95 158 178 158q68 0 68 -91t-75 -217q-64 -110 -144 -185q-96 -91 -176 -91q-70 0 -108 61q-31 51 -31 125q0 204 219 390q148 126 274 126q41 0 71.5 -23t30.5 -63q0 -22 -17 -59z" />
    <glyph glyph-name="Uacute" unicode="&#xda;" horiz-adv-x="710" 
d="M721 777l-115 -70h-40l109 106q23 24 37 24q29 0 29 -29q0 -19 -20 -31zM677 295q-139 -242 -139 -279q0 -7 7 -7q55 0 166 148l13 -9q-115 -159 -188 -159q-61 0 -61 79q0 33 17 78q-48 -65 -69 -87q-67 -72 -119 -72q-41 0 -63 40q-17 33 -17 77q0 77 61 172
q38 55 113 166q62 92 62 150q0 37 -37 56q-28 15 -69 15q-113 0 -228.5 -111t-115.5 -223q0 -32 18.5 -54.5t49.5 -22.5q63 0 130 117q62 108 62 179q0 8 -4 34l16 2q18 -61 18 -111q0 -93 -58 -164q-61 -75 -152 -75q-44 0 -71 25.5t-27 69.5q0 87 81 187q131 163 282 163
q75 0 123.5 -44.5t48.5 -118.5q0 -76 -61 -165q-35 -50 -104 -153q-79 -122 -79 -170q0 -23 22 -23q89 0 238 252l95 161q46 78 117 182q53 6 110 8q-90 -143 -188 -313z" />
    <glyph glyph-name="Ucircumflex" unicode="&#xdb;" horiz-adv-x="710" 
d="M802 673q-46 29 -76 84q-101 -61 -178 -79v10q101 56 185 133h17q12 -76 66 -136zM677 295q-139 -242 -139 -279q0 -7 7 -7q55 0 166 148l13 -9q-115 -159 -188 -159q-61 0 -61 79q0 33 17 78q-48 -65 -69 -87q-67 -72 -119 -72q-41 0 -63 40q-17 33 -17 77q0 77 61 172
q38 55 113 166q62 92 62 150q0 37 -37 56q-28 15 -69 15q-113 0 -228.5 -111t-115.5 -223q0 -32 18.5 -54.5t49.5 -22.5q63 0 130 117q62 108 62 179q0 8 -4 34l16 2q18 -61 18 -111q0 -93 -58 -164q-61 -75 -152 -75q-44 0 -71 25.5t-27 69.5q0 87 81 187q131 163 282 163
q75 0 123.5 -44.5t48.5 -118.5q0 -76 -61 -165q-35 -50 -104 -153q-79 -122 -79 -170q0 -23 22 -23q89 0 238 252l95 161q46 78 117 182q53 6 110 8q-90 -143 -188 -313z" />
    <glyph glyph-name="Ugrave" unicode="&#xd9;" horiz-adv-x="710" 
d="M698 706l-116 70q-19 12 -19 31q0 29 28 29q15 0 38 -24l107 -106h-38zM677 295q-139 -242 -139 -279q0 -7 7 -7q55 0 166 148l13 -9q-115 -159 -188 -159q-61 0 -61 79q0 33 17 78q-48 -65 -69 -87q-67 -72 -119 -72q-41 0 -63 40q-17 33 -17 77q0 77 61 172
q38 55 113 166q62 92 62 150q0 37 -37 56q-28 15 -69 15q-113 0 -228.5 -111t-115.5 -223q0 -32 18.5 -54.5t49.5 -22.5q63 0 130 117q62 108 62 179q0 8 -4 34l16 2q18 -61 18 -111q0 -93 -58 -164q-61 -75 -152 -75q-44 0 -71 25.5t-27 69.5q0 87 81 187q131 163 282 163
q75 0 123.5 -44.5t48.5 -118.5q0 -76 -61 -165q-35 -50 -104 -153q-79 -122 -79 -170q0 -23 22 -23q89 0 238 252l95 161q46 78 117 182q53 6 110 8q-90 -143 -188 -313z" />
    <glyph glyph-name="circumflex" unicode="&#x2c6;" horiz-adv-x="303" 
d="M288 367q-51 31 -66 56q-55 -32 -138 -52v10q81 44 149 106h14q9 -61 53 -110z" />
    <glyph glyph-name="tilde" unicode="&#x2dc;" horiz-adv-x="429" 
d="M341 372q-14 0 -47 18.5t-41 18.5q-33 0 -45 -23l-13 13q26 54 59 54q14 0 47 -19t41 -19q35 0 49 25l9 -16q-26 -52 -59 -52z" />
    <glyph glyph-name="macron" unicode="&#xaf;" horiz-adv-x="500" 
d="M403 366h-225l13 26h223z" />
    <glyph glyph-name="macron" unicode="&#x2c9;" horiz-adv-x="500" 
d="M403 366h-225l13 26h223z" />
    <glyph glyph-name="cedilla" unicode="&#xb8;" horiz-adv-x="406" 
d="M166 -188q-34 0 -61 17l15 25q15 -16 38 -16q31 0 62.5 27.5t31.5 58.5q0 27 -25 27q-9 0 -22.5 -18t-21.5 -18q-12 0 -12 13q0 18 37 36l38 51l25 -15l-38 -35q47 -5 47 -52q0 -41 -36 -71t-78 -30z" />
    <glyph glyph-name="Scaron" unicode="&#x160;" 
 />
    <glyph glyph-name="scaron" unicode="&#x161;" 
 />
    <glyph glyph-name="brokenbar" unicode="&#xa6;" 
 />
    <glyph glyph-name="Eth" unicode="&#xd0;" horiz-adv-x="50" 
 />
    <glyph glyph-name="eth" unicode="&#xf0;" 
 />
    <glyph glyph-name="Yacute" unicode="&#xdd;" 
 />
    <glyph glyph-name="Thorn" unicode="&#xde;" 
 />
    <glyph glyph-name="thorn" unicode="&#xfe;" 
 />
    <glyph glyph-name="minus" unicode="&#xad;" 
 />
    <glyph glyph-name="minus" unicode="&#x2212;" 
 />
    <glyph glyph-name="onesuperior" unicode="&#xb9;" 
 />
    <glyph glyph-name="twosuperior" unicode="&#xb2;" 
 />
    <glyph glyph-name="threesuperior" unicode="&#xb3;" 
 />
    <glyph glyph-name="onehalf" unicode="&#xbd;" 
 />
    <glyph glyph-name="onequarter" unicode="&#xbc;" 
 />
    <glyph glyph-name="threequarters" unicode="&#xbe;" 
 />
    <glyph glyph-name=".null" horiz-adv-x="999" 
 />
    <glyph glyph-name="Lslash" unicode="&#x141;" 
 />
    <glyph glyph-name="lslash" unicode="&#x142;" 
 />
    <glyph glyph-name="HT" horiz-adv-x="192" 
 />
    <glyph glyph-name="LF" 
 />
    <glyph glyph-name="nonmarkingreturn" horiz-adv-x="192" 
 />
    <glyph glyph-name="Zcaron" unicode="&#x17d;" 
 />
    <glyph glyph-name="zcaron" unicode="&#x17e;" 
 />
    <glyph glyph-name="DLE" 
 />
    <glyph glyph-name="DC1" 
 />
    <glyph glyph-name="DC2" 
 />
    <glyph glyph-name="DC3" 
 />
    <glyph glyph-name="DC4" 
 />
    <glyph glyph-name="RS" 
 />
    <glyph glyph-name="US" 
 />
    <glyph glyph-name="lessequal" unicode="&#x2264;" horiz-adv-x="190" 
d="M6 138l-14 11l120 172l11 -14zM-92 -135l-7 16q72 36 99 57q54 41 54 86q0 10 -5.5 29t-5.5 29q0 29 18 52t47 23q22 0 37 -15.5t15 -37.5q0 -63 -97 -141q-70 -57 -155 -98z" />
    <glyph glyph-name="greaterequal" unicode="&#x2265;" horiz-adv-x="190" 
d="M5 138l-14 11l119 171l13 -13zM65 -10q-22 0 -37 17t-15 40q0 28 19 50t47 22q22 0 37 -17t15 -39q0 -29 -18.5 -51t-47.5 -22z" />
    <glyph glyph-name="partialdiff" unicode="&#x2202;" horiz-adv-x="278" 
d="M302 431q80 39 90 41q0 -8 -19 -56l-112 -54q-177 -302 -177 -336q0 -5 7 -5q32 0 103 59q58 48 86 87l15 -10q-40 -52 -98 -99q-73 -59 -120 -59q-29 0 -44 23q-14 19 -14 49q0 53 99 223l-7 -4q-58 -72 -106 -139l-14 10q34 48 86 113q-67 -31 -74 -31q0 5 7 24t7 21
q22 13 122 63q18 22 53 67q5 6 38 64q61 105 111 180l106 8z" />
    <glyph glyph-name="summation" unicode="&#x2211;" horiz-adv-x="617" 
d="M596 703h-16q-9 66 -58 119l13 11q41 -25 67 -74q89 54 158 70v-10q-89 -49 -164 -116zM731 455q-93 -113 -230 -179q-44 -127 -126 -203q-93 -86 -218 -86q-62 0 -105 30q-49 33 -49 92q0 38 22 67q24 33 61 33q24 0 41 -16t17 -40q0 -34 -29 -47l-44 -14
q-26 -11 -26 -30q0 -26 34 -42q30 -13 61 -13q83 0 143 85q22 31 78 155q-9 -1 -18 -1q-77 0 -126.5 55t-49.5 133q0 104 110 182q99 70 208 70q30 0 73 -10l-2 -16q-42 9 -70 9q-108 0 -188 -88q-77 -84 -77 -194q0 -57 33.5 -87.5t91.5 -30.5h11q9 1 12 1q188 416 354 416
q35 0 57 -25.5t22 -60.5q0 -59 -71 -145zM721 669q-79 0 -144 -150q-22 -52 -69 -216q71 35 102 62q48 43 97 122q56 90 56 142q0 40 -42 40z" />
    <glyph glyph-name="product" unicode="&#x220f;" horiz-adv-x="292" 
d="M200 468h-14q-9 61 -54 109l13 10q37 -23 61 -66q81 48 143 64v-11q-81 -45 -149 -106zM218 51q-58 -55 -123 -55q-43 0 -75 23q-35 26 -35 68q0 22 11.5 38.5t32.5 16.5q18 0 30.5 -12.5t12.5 -30.5q0 -25 -29 -41q-18 -11 -18 -15q0 -18 25 -18q24 0 46 34
q59 92 59 198q-1 12 -8 83l-142 -192l-14 9l157 210q6 60 43 60q13 0 13 -10q0 -3 -21 -23q-17 -17 -17 -35q0 -21 36.5 -91.5t36.5 -115.5q0 -31 -13 -67q28 30 66 87l15 -10q-55 -79 -89 -111z" />
    <glyph glyph-name="pi" unicode="&#x3c0;" horiz-adv-x="572" 
d="M621 757l-115 -70h-40l109 106q23 24 37 24q29 0 29 -29q0 -19 -20 -31zM612 435q-19 -67 -61 -199q-36 -104 -123 -175q-93 -76 -204 -76q-66 0 -111 29q-53 34 -53 97q0 39 23.5 67.5t61.5 28.5q58 0 58 -55q0 -32 -30 -46q-16 -6 -48 -17q-23 -9 -23 -29q0 -26 40 -43
q34 -13 67 -13q59 0 101 37q37 33 106 171q18 36 77 158q-39 -51 -65 -77q-64 -64 -116 -64q-32 0 -52.5 27.5t-20.5 60.5q0 48 36 116q6 9 67 108q36 57 36 84q0 41 -77 41q-93 0 -187 -88.5t-94 -180.5q0 -54 43 -54t93 69q42 58 62 113q6 19 11 64l15 -2l2 -31
q0 -80 -46 -151q-51 -79 -127 -79q-70 0 -70 69q0 99 98 193.5t198 94.5q59 0 99 -33q43 -36 43 -93q0 -47 -37 -115q-5 -9 -68 -108q-35 -55 -35 -78q0 -10 17 -10q55 0 140 106q40 52 118 156q59 78 131 140l12 -12q-69 -81 -107 -201z" />
    <glyph glyph-name="integral" unicode="&#x222b;" horiz-adv-x="497" 
d="M401 447l-115 -70h-40l109 106q23 24 37 24q29 0 29 -29q0 -19 -20 -31zM421 49q-52 -47 -110 -56q-23 -45 -70 -134q-110 -199 -242 -199q-35 0 -57.5 23.5t-22.5 58.5q0 77 110 147q47 30 175 87l102 208q-57 -79 -73 -99q-78 -96 -125 -96q-27 0 -43 25q-14 21 -14 50
q0 82 97 203q34 41 34 46q0 6 -9 6q-37 0 -168 -178l-14 10q137 189 192 189q25 0 39 -21.5t14 -47.5q0 -47 -34 -108q-15 -28 -62 -94q-32 -46 -32 -55q0 -6 7 -6q43 0 142 136q63 86 120 184l117 9q-100 -173 -173 -325q48 11 93 53q32 29 78 92l14 -10q-55 -71 -85 -98z
M79 -111q-58 -42 -96 -102q-30 -46 -30 -77q0 -33 43 -33q24 0 45 17q32 25 88 129q6 10 64 131q-76 -37 -114 -65z" />
    <glyph glyph-name="Omega" unicode="&#x3a9;" horiz-adv-x="528" 
d="M444 324q-16 0 -30.5 18.5t-14.5 35.5q0 40 53 53l8 -8q-32 -29 -32 -61q0 -20 18 -20q21 0 34 22q13 19 13 41q0 29 -13 53q-14 29 -41 29q-74 0 -172 -161h93l-10 -23h-95l-23 -41h106l-9 -25q-56 1 -109 1q-45 -98 -45 -148q0 -37 21.5 -61.5t58.5 -24.5q47 0 85.5 44
t38.5 91q0 22 -25 26q-17 2 -28 -23t-11 -51q0 -9 1 -18l-10 -2q-12 25 -12 47q0 24 17 43t41 19q30 0 47 -21.5t15 -51.5q-2 -48 -59 -86q-52 -35 -103 -35q-64 0 -106 45t-42 110q0 46 16 98h-32h-18q0 6 6 23h52q8 20 18 40h-52q-5 1 -3 5q0 3 7 19h61q43 74 108 122
q72 53 152 56q50 3 81 -19q36 -25 33 -74q-1 -35 -27.5 -61t-61.5 -26z" />
    <glyph glyph-name="Omega" unicode="&#x2126;" horiz-adv-x="528" 
d="M444 324q-16 0 -30.5 18.5t-14.5 35.5q0 40 53 53l8 -8q-32 -29 -32 -61q0 -20 18 -20q21 0 34 22q13 19 13 41q0 29 -13 53q-14 29 -41 29q-74 0 -172 -161h93l-10 -23h-95l-23 -41h106l-9 -25q-56 1 -109 1q-45 -98 -45 -148q0 -37 21.5 -61.5t58.5 -24.5q47 0 85.5 44
t38.5 91q0 22 -25 26q-17 2 -28 -23t-11 -51q0 -9 1 -18l-10 -2q-12 25 -12 47q0 24 17 43t41 19q30 0 47 -21.5t15 -51.5q-2 -48 -59 -86q-52 -35 -103 -35q-64 0 -106 45t-42 110q0 46 16 98h-32h-18q0 6 6 23h52q8 20 18 40h-52q-5 1 -3 5q0 3 7 19h61q43 74 108 122
q72 53 152 56q50 3 81 -19q36 -25 33 -74q-1 -35 -27.5 -61t-61.5 -26z" />
    <glyph glyph-name="radical" unicode="&#x221a;" 
 />
    <glyph glyph-name="approxequal" unicode="&#x2248;" 
 />
    <glyph glyph-name="approxequal" unicode="&#x22f2;" 
 />
    <glyph glyph-name="Delta" unicode="&#x394;" 
 />
    <glyph glyph-name="Delta" unicode="&#x2206;" 
 />
    <glyph glyph-name="lozenge" unicode="&#x25ca;" 
 />
    <glyph glyph-name="fraction" unicode="&#x2044;" 
 />
    <glyph glyph-name="fi" unicode="&#xf001;" horiz-adv-x="521" 
d="M551 444q-20 0 -32.5 13.5t-12.5 33.5q0 26 19.5 48.5t45.5 22.5q45 0 45 -49q0 -27 -19 -48t-46 -21zM456 58q-56 -60 -102 -60q-30 0 -46 22t-16 53q0 47 107 230q-47 -47 -124 -153v0q-52 -67 -82 -95q-52 -48 -108 -57q-68 -155 -174 -309l-108 -7q95 149 201 352
q-18 18 -18 40q0 20 13 37t33 17q6 0 17 -5q46 96 89 168q-71 -57 -133 -145l-14 10q77 107 162 168q187 336 305 336q23 0 38.5 -14.5t15.5 -36.5q0 -23 -20 -63q-38 -78 -128 -162q-55 -51 -158 -130q-66 -148 -112 -237q48 12 94 55q33 30 76 90q89 122 151 180h116
l-99 -164q-73 -123 -73 -152q0 -7 9 -7q31 0 82 58q14 15 68 88l14 -9q-56 -77 -76 -98zM455 643q-26 0 -61 -33q-48 -44 -175 -324q128 94 209 237q44 76 44 105q0 15 -17 15z" />
    <glyph glyph-name="fl" unicode="&#xf002;" horiz-adv-x="513" 
d="M520 335q-161 -276 -161 -308q0 -5 7 -5q31 0 82 58q11 13 67 88l15 -10q-65 -85 -76 -97q-56 -60 -102 -60q-29 0 -44 22q-14 19 -14 49q0 51 110 240q-44 -56 -128 -166q-102 -134 -191 -148q-68 -155 -174 -309l-108 -7q95 149 201 352q-18 18 -18 40q0 20 13 37
t33 17q6 0 17 -5q46 96 89 168q-71 -57 -133 -145l-14 10q77 107 162 168q187 336 305 336q23 0 38.5 -14.5t15.5 -36.5q0 -23 -20 -63q-38 -78 -128 -162q-55 -51 -158 -130q-63 -140 -113 -237q84 19 169 138q49 69 168 217q11 13 37 47q5 6 38 64q61 105 111 180l105 8z
M455 643q-26 0 -61 -33q-48 -44 -175 -324q128 94 209 237q44 76 44 105q0 15 -17 15z" />
    <glyph glyph-name="dotlessi" unicode="&#x131;" horiz-adv-x="253" 
d="M186 56q-56 -60 -102 -60q-30 0 -46 22t-16 53q0 47 107 230q-47 -47 -124 -153l-14 9q83 115 154 183h116l-99 -164q-73 -123 -73 -152q0 -7 9 -7q31 0 82 58q14 15 68 88l14 -9q-56 -77 -76 -98z" />
    <glyph glyph-name="breve" unicode="&#x2d8;" horiz-adv-x="437" 
d="M411 385q-30 -38 -93 -38q-30 0 -56 11q-32 15 -32 42q0 34 25 34q3 0 13 1q13 3 21 0q-4 -6 -14 -19q-1 -2 -1 -4q0 -20 18 -31t39 -11q30 0 48 15t19 43q25 0 25 -15q0 -13 -12 -28z" />
    <glyph glyph-name="dotaccent" unicode="&#x2d9;" horiz-adv-x="319" 
d="M268 399q-19 0 -32 14t-13 33q0 20 13 34t32 14q20 0 33.5 -14t13.5 -34t-13.5 -33.5t-33.5 -13.5z" />
    <glyph glyph-name="ring" unicode="&#x2da;" horiz-adv-x="344" 
d="M278 379q-28 0 -46.5 19.5t-18.5 47.5t18.5 48t46.5 20t47.5 -20t19.5 -48t-19.5 -47.5t-47.5 -19.5zM278 487q-17 0 -27.5 -12t-10.5 -29q0 -16 11 -28t27 -12q17 0 28.5 11.5t11.5 28.5t-11.5 29t-28.5 12z" />
    <glyph glyph-name="hungarumlaut" unicode="&#x2dd;" horiz-adv-x="500" 
d="M444 404q-45 -38 -102 -59q-14 -6 -29 -12q-7 0 -7 7q0 4 4 8l112 100q4 4 23 4q15 0 15 -16q0 -19 -16 -32zM300 384q-13 -8 -51 -29q-43 -22 -50 -22q-8 0 -8 8q0 3 6 9l114 101q11 10 22 10q16 0 16 -21q0 -23 -49 -56z" />
    <glyph glyph-name="ogonek" unicode="&#x2db;" horiz-adv-x="500" 
d="M308 -11q-39 -40 -45 -47q-47 -55 -47 -99q0 -9 4 -9q21 0 73 66l14 -10q-55 -76 -96 -76q-31 0 -31 42q0 38 45 86q36 37 79 62h19z" />
    <glyph glyph-name="caron" unicode="&#x2c7;" horiz-adv-x="340" 
d="M190 368h-14q-9 61 -54 109l13 10q51 -31 65 -56q56 32 139 54v-11q-81 -45 -149 -106z" />
    </font>
</defs>
</svg>
