<?xml version="1.0" standalone="no"?>
<!DOCTYPE svg PUBLIC "-//W3C//DTD SVG 1.1//EN" "http://www.w3.org/Graphics/SVG/1.1/DTD/svg11.dtd" >
<svg>
<metadata>
Created by FontForge 20120731 at Tue Apr 16 14:02:02 2019
 By www-data
Digitized by Dan X. Solo. Software (c) 1999 by Dpver Publishing, Inc., New York.
</metadata>
<defs>
<font id="Elegance" horiz-adv-x="0" >
  <font-face 
    font-family="Elegance"
    font-weight="400"
    font-stretch="normal"
    units-per-em="1000"
    panose-1="0 0 4 0 0 0 0 0 0 0"
    ascent="800"
    descent="-200"
    x-height="199"
    cap-height="693"
    bbox="-64 -542 2033 872"
    underline-thickness="20"
    underline-position="-123"
    unicode-range="U+0020-F000"
  />
<missing-glyph horiz-adv-x="500" 
d="M63 0v872h375v-872h-375zM125 63h250v747h-250v-747z" />
    <glyph glyph-name=".notdef" horiz-adv-x="500" 
d="M63 0v872h375v-872h-375zM125 63h250v747h-250v-747z" />
    <glyph glyph-name=".null" 
 />
    <glyph glyph-name="glyph2" horiz-adv-x="251" 
 />
    <glyph glyph-name="space" unicode=" " horiz-adv-x="251" 
 />
    <glyph glyph-name="exclam" unicode="!" horiz-adv-x="180" 
d="M193 545q0 -22 -13 -59q-9 -25 -46 -181q-19 -79 -21 -122v-37q-3 -20 -23 -20q-19 0 -30 11v43q0 71 32 221q37 173 72 173q29 0 29 -29zM85 94q29 0 29 -35q0 -20 -12 -40q-13 -23 -31 -23q-37 0 -37 38q0 23 14.5 41.5t36.5 18.5z" />
    <glyph glyph-name="quotedbl" unicode="&#x22;" horiz-adv-x="190" 
d="M202 530q2 -8 2 -17q0 -49 -62 -169q-5 -9 -22 -9q-27 0 -27 25q0 11 10 35q7 16 15 37l10 68q11 38 52 38q14 0 22 -8zM36 358q-19 0 -19 18q0 12 13 39t13 41q0 4 -1 13t-1 13q0 11 11 16q-2 5 -2 9q0 12 12.5 20t25.5 8q25 0 25 -23q0 -24 -15 -68.5t-29 -69.5
q-3 -5 -14.5 -10.5t-18.5 -5.5z" />
    <glyph glyph-name="numbersign" unicode="#" horiz-adv-x="304" 
d="M103 213l60 4l26 118l-63 -5zM22 209q2 0 44 2l23 116l-41 -3q-17 -1 -17 17t17 18q9 0 48 3l16 78q3 14 17 14q21 0 17 -22l-13 -67l64 5l16 70q3 13 17 13q22 0 17 -21l-13 -59l27 2q19 1 19 -17q0 -16 -17 -17l-37 -3l-27 -119l50 3q19 1 19 -17q0 -16 -17 -17l-60 -4
l-22 -98q-3 -13 -17 -13q-22 0 -17 21l20 88l-60 -4l-21 -108q-3 -14 -17 -14q-21 0 -17 22l19 98l-37 -2q-17 -1 -17 17t17 18z" />
    <glyph glyph-name="dollar" unicode="$" horiz-adv-x="371" 
d="M357 375v-10q0 -25 -21 -25q-14 0 -40.5 11t-40.5 11q-28 0 -34 -66q39 -7 75 -29q46 -28 46 -62q0 -38 -41 -56q-22 -10 -79 -18q-47 -7 -54 -16q-3 -3 -17 -62q-12 -48 -30 -48q-17 0 -17 21q0 16 7.5 47t7.5 47q-24 4 -72 13.5t-48 38.5l2 12h5q17 0 57 -8
q37 -8 57 -6l13 1q13 31 30 96q-104 32 -104 72q0 27 31 42q18 9 63 16.5t61 16.5q2 18 12 48q13 39 22 39q24 0 24 -20q0 -11 -7.5 -34.5t-7.5 -35.5v-6q34 -9 100 -30zM192 357h-14q-40 0 -68 -18q31 -30 66 -29q5 16 16 47zM300 218q-8 17 -30.5 28t-42.5 11
q-28 0 -36 -31l-6 -54h6q30 0 62 11q39 13 47 35z" />
    <glyph glyph-name="percent" unicode="%" horiz-adv-x="607" 
d="M318 357q9 -21 7 -41q-5 -51 -55 -82q-46 -29 -99 -25q-54 4 -96 38q-46 39 -41 90q5 46 61 80q52 30 101 27h1q61 -6 107 -57q10 3 14 3l6 1q65 18 189 50h1q3 1 5 1l45 -4q1 0 2.5 -1t1.5 -2q-1 -2 -4 -5h-2q-218 -202 -447 -429q-7 -7 -14 -7q-21 0 -21 21q0 8 7 14
q94 84 204 192q53 55 160 165l-119 -27q-4 -1 -14 -2zM419 -25q-56 4 -96 32q-48 34 -43 86q5 53 57 86q48 29 103 25t95 -39q44 -39 38 -93q-5 -52 -55 -78q-43 -23 -99 -19zM175 393q5 -13 5 -16q-3 -1 -6 2q1 2 2 2q3 0 11 -8q14 -6 34 -6q15 0 33 3q-49 31 -74 33l-1 -1
q-4 -5 -3 -10zM436 164q-39 3 -73 -16q-40 -21 -43 -58q-3 -34 34 -56q29 -16 68 -19q38 -3 69 10q38 16 42 50q4 37 -29 63q-30 23 -68 26zM143 397q-65 -23 -69 -63q-3 -34 33 -60q32 -22 68 -25q35 -3 69 16q38 21 41 54q1 12 -5 25l-7 -2q-2 -1 -4 -1q-30 -14 -60 -14
q-66 0 -69 61q-1 4 3 9z" />
    <glyph glyph-name="ampersand" unicode="&#x26;" horiz-adv-x="705" 
d="M651 175q-23 -4 -81 -15q12 -17 12 -35q0 -62 -107 -105q-87 -35 -164 -35q-91 0 -179 43q-107 52 -107 130q0 44 60 76q30 16 99 37q-25 19 -50.5 38.5t-25.5 53.5q0 44 131 72q99 21 172 21q81 0 132 -8q98 -15 98 -56q0 -30 -71 -68q-65 -35 -100 -35q-27 0 -28 43
q44 16 142 55q-58 18 -114 18h-149q-142 0 -142 -46q0 -26 34 -46q25 -15 57 -21q24 1 69 0q34 -6 47 -11l1 -10q-1 -16 -45 -28q-20 -5 -107 -18q-75 -11 -107 -22q-52 -18 -52 -48q0 -49 90 -84q73 -28 128 -28q59 0 127 15q99 22 99 64l-1 6q-15 15 -35 15
q-14 0 -39.5 -9t-39.5 -9q-32 0 -32 26t43 34q36 3 69 7q18 2 103 22q65 15 104 15q8 0 8 -20q0 -23 -49 -34z" />
    <glyph glyph-name="quotesingle" unicode="'" horiz-adv-x="107" 
d="M115 489q0 10 -9 -33l-15 -71q-15 -49 -44 -49q-15 0 -35 13q12 30 28 92q5 36 7 43q8 23 27 31q5 2 8 2q9 0 21 -9.5t12 -18.5z" />
    <glyph glyph-name="parenleft" unicode="(" horiz-adv-x="209" 
d="M180 625q6 12 21 12q23 0 23 -22q0 4 -3 4q-9 0 -45 -49q-31 -41 -41 -59q-30 -52 -47 -140q-15 -76 -15 -148q0 -22 11 -63t12 -60l1 1q12 -24 36 -73q28 -58 28 -68q0 -20 -24 -20q-32 0 -72 130q-35 115 -35 166q0 179 65 299q27 51 85 90z" />
    <glyph glyph-name="parenright" unicode=")" horiz-adv-x="228" 
d="M114 659q56 -44 82 -162q19 -85 19 -176q0 -86 -42.5 -187.5t-102.5 -163.5q-7 -7 -16 -7q-23 0 -23 23q0 9 7 16q54 55 93 148.5t39 170.5q0 90 -17 166q-23 101 -67 136q-9 7 -9 18q0 23 23 23q8 0 14 -5z" />
    <glyph glyph-name="asterisk" unicode="*" horiz-adv-x="188" 
d="M89 443q-14 17 -44 48q-7 4 -7 11q0 12 12 12q7 0 51 -48l19 69q2 8 11 8q13 0 13 -9q0 -3 -1.5 -7t-19.5 -72l62 23q16 6 16 -11q0 -8 -8 -11l-63 -24q17 -19 53 -60q3 -3 3 -8q0 -12 -12 -12q-5 0 -9 4l-53 60l-21 -81q-2 -9 -12 -9q-16 0 -12 15l21 76q-22 -8 -37 -13
l-6 -2q-3 -1 -6 -1q-12 0 -12 12t11 13.5t51 16.5z" />
    <glyph glyph-name="plus" unicode="+" horiz-adv-x="338" 
d="M48 261h120l10 124q1 17 17 17q18 0 17 -19l-9 -122h142q17 0 17 -18q0 -17 -17 -17h-145l-13 -168q-1 -17 -18 -17t-17 17q0 2 13 168h-117q-17 0 -17 17q0 18 17 18z" />
    <glyph glyph-name="comma" unicode="," horiz-adv-x="175" 
d="M128 71q0 -31 -27 -77q-15 -24 -44 -72q-4 -1 -7 -1q-14 0 -31 28q2 7 13 33q9 22 9 31q0 6 -5.5 18t-5.5 18q0 20 14.5 45.5t33.5 25.5q20 0 35 -14.5t15 -34.5z" />
    <glyph glyph-name="hyphen" unicode="-" horiz-adv-x="330" 
d="M264 157q-51 -4 -85 -9q-10 -1 -68 -19q-43 -13 -69 -13q-17 0 -17 10q0 7 6 22.5t7 20.5q155 39 222 39q5 0 14.5 -1.5t14.5 -1.5q2 -4 2 -8q0 -28 -27 -40z" />
    <glyph glyph-name="hyphen" unicode="&#x2010;" horiz-adv-x="330" 
d="M264 157q-51 -4 -85 -9q-10 -1 -68 -19q-43 -13 -69 -13q-17 0 -17 10q0 7 6 22.5t7 20.5q155 39 222 39q5 0 14.5 -1.5t14.5 -1.5q2 -4 2 -8q0 -28 -27 -40z" />
    <glyph glyph-name="period" unicode="." horiz-adv-x="174" 
d="M75 10q-38 0 -38 47q0 61 46 61q36 0 36 -45q0 -22 -11 -41q-13 -22 -33 -22z" />
    <glyph glyph-name="slash" unicode="/" horiz-adv-x="300" 
d="M42 -30q-23 0 -23 21q0 42 80 222q92 207 105 261q12 50 39 121q36 96 55 96q23 0 23 -23q-13 -33 -71 -194q-15 -43 -56 -154q-17 -40 -58 -144q-13 -39 -40 -115q-33 -91 -54 -91z" />
    <glyph glyph-name="zero" unicode="0" horiz-adv-x="802" 
d="M799 346q0 -167 -238 -264q-184 -75 -383 -75q-71 0 -117 25q-58 32 -58 98q0 11 7 26q54 119 280 208q198 78 355 78q49 0 96 -23q58 -28 58 -73zM740 323q0 29 -22 45.5t-52 16.5t-85 -16q-61 -18 -85 -20l-17 17l-13 1q-37 3 -144 -40.5t-180 -93.5q-88 -60 -88 -108
q0 -38 53 -56q37 -13 85 -13q75 0 198 31t212 78q138 72 138 158z" />
    <glyph glyph-name="one" unicode="1" horiz-adv-x="544" 
d="M379 407q0 -8 -4 -23.5t-4 -24.5t-4 -111q-2 -51 -2 -113l-2 -5l1 -8q0 -8 -3 -12q0 -14 3 -41.5t3 -41.5q0 -65 -35 -65q-9 0 -21 5.5t-12 13.5v68q0 172 20 349h-3q-23 0 -103 -41.5t-103 -41.5q-11 0 -19 9.5t-8 20.5q0 15 117 69.5t145 54.5q21 0 34 -17v-45z" />
    <glyph glyph-name="two" unicode="2" horiz-adv-x="703" 
d="M696 38l-13 -21q-89 -28 -217 -25l-38 1q-41 1 -180 3l-134 -2q-109 3 -109 32q0 16 148 83q215 97 273 127q147 77 147 118q0 50 -79 50q-89 0 -178 -27q-94 -29 -159 -81q-37 1 -37 24q0 44 143 92q124 42 187 42q181 0 181 -99q0 -77 -194 -176q-88 -43 -265 -128
q102 -6 249 -6q42 0 124.5 12t122.5 12q22 0 28 -31z" />
    <glyph glyph-name="three" unicode="3" horiz-adv-x="720" 
d="M690 387q0 -36 -112 -77q-49 -17 -146 -51q39 -19 116 -60q73 -42 73 -95q0 -65 -92 -94q-63 -20 -147 -20q-82 0 -185 28q-120 33 -164 81l-1 15q-1 12 6 24l25 5q62 -46 146 -72.5t164 -26.5h74q31 0 66 13q41 16 50 40q-25 62 -113 94q-49 15 -148 46l-5 33
q41 19 154 52q99 29 151 58q-10 14 -77 14h-121q-44 0 -131 -15t-131 -15q-13 0 -20 23l19 29q146 30 267 30h92q85 0 111 -4q79 -12 79 -55z" />
    <glyph glyph-name="four" unicode="4" horiz-adv-x="723" 
d="M520 156v-133q-18 -20 -32 -20q-31 0 -31 71q0 10 5.5 30.5t5.5 30.5l-6 15q-7 5 -29 6q-13 0 -36.5 -1.5t-34.5 -1.5q-53 0 -159.5 2.5t-159.5 2.5q-6 0 -16.5 6.5t-10.5 11.5v20q30 25 226 129l251 132q9 6 18 6q28 0 28 -42q0 -22 -8 -66.5t-8 -66.5v-61q0 -15 49 -15
q26 0 74 5l50 5q-1 -1 4.5 -12t5.5 -19q0 -16 -21 -20q-14 -1 -85 -7q-78 -6 -80 -8zM475 347q-4 3 -2 9t3 10q0 7 -5 12q-101 -55 -300 -168q55 -6 76 -6q10 0 30 3t30 3h102q30 0 39 3q19 7 19 30v18q-1 27 -1 23q0 32 9 63z" />
    <glyph glyph-name="five" unicode="5" horiz-adv-x="756" 
d="M732 408q0 -26 -43 -26q-311 0 -398 -7q1 -36 3 -54q5 -41 15 -46q44 -17 145 -31q98 -13 146 -34q77 -33 77 -93q0 -69 -191 -110q-143 -31 -252 -31q-56 0 -127 9q-97 12 -97 35v32q54 46 273 46q43 0 43 -23q0 -13 -25 -31l-146 -6l17 -8h108q71 0 170 22
q116 26 160 62l3 21q-63 41 -165 64q-41 9 -176 30l-25 28q-7 37 -13 73q-8 44 -8 74q0 35 48 35q59 0 175.5 -4.5t175.5 -4.5q10 0 36 3q22 3 35 2q11 -1 23.5 -9t12.5 -18z" />
    <glyph glyph-name="six" unicode="6" horiz-adv-x="802" 
d="M792 502q5 -12 5 -23l-10 -16q-92 -27 -275 -82q-152 -48 -261 -118q155 31 236 31q211 0 211 -103q0 -99 -207 -159q-155 -45 -290 -45q-71 0 -121 17q-75 25 -75 81q0 57 35 102q63 81 342 202q274 119 382 119zM502 243q-83 0 -247 -42q-193 -49 -193 -100
q0 -7 10 -20t11 -17q33 -20 98 -20q103 0 256 35q200 46 200 111q0 53 -135 53z" />
    <glyph glyph-name="seven" unicode="7" horiz-adv-x="610" 
d="M567 408q0 -13 -99 -120q-106 -114 -119 -133l4 -5q16 -5 40 -5q12 0 36 1.5t36 1.5q43 0 43 -24q0 -31 -76 -31q-16 0 -46.5 2t-46.5 2q-15 0 -21.5 -3t-98.5 -108q-75 -86 -94 -86q-6 0 -13 8t-7 14q0 16 54 82q63 77 70 88q-5 14 -5 27q0 21 16 26q16 2 32 5
q70 73 203 224q-5 10 -153 10h-212q-11 0 -26 -27t-27 -27q-9 0 -22 19q0 31 18.5 57.5t48.5 26.5l351 -3q9 0 26 1t25 1q63 0 63 -24z" />
    <glyph glyph-name="eight" unicode="8" horiz-adv-x="709" 
d="M676 354q0 -44 -56 -77q-48 -21 -96 -41l88 -44q47 -32 47 -79q0 -75 -195 -105q-111 -17 -253 -17q-94 0 -118 6q-67 17 -67 79q0 47 53 78q35 21 109 40q78 20 108 36q-22 11 -67 33t-45 50l9 34q43 35 166 78t178 43q17 0 33 -13q2 -19 30 -31q49 -21 50 -22
q26 -17 26 -48zM618 341q-8 38 -82 38q-111 0 -125 -1q-68 -5 -119 -30q-14 -5 -29 -10q-20 -9 -20 -18q0 -22 73 -43q60 -17 94 -17q46 0 111.5 25t96.5 56zM403 203q-46 0 -182 -48q-146 -52 -146 -85q0 -15 51 -23q33 -5 69 -5h150q48 0 144 24q114 28 114 58t-87 57
q-71 22 -113 22z" />
    <glyph glyph-name="nine" unicode="9" horiz-adv-x="802" 
d="M766 331q0 -102 -136 -213q-107 -87 -268 -157q-176 -77 -299 -77q-27 0 -27 20l6 25q259 61 325 86q184 69 269 191q-62 -22 -187 -63q-100 -32 -195 -32q-54 0 -93 21q-49 26 -49 75q0 98 199 175q167 65 287 65q88 0 121 -17q47 -24 47 -99zM711 372q-15 16 -42 20
q-13 2 -49 2q-96 0 -259 -52q-192 -61 -192 -132q0 -45 95 -45q125 0 245 46q134 51 202 140v21z" />
    <glyph glyph-name="colon" unicode=":" horiz-adv-x="155" 
d="M115 210q-38 0 -38 47q0 61 46 61q36 0 36 -45q0 -22 -11 -41q-13 -22 -33 -22zM76 -9q-38 0 -38 41q0 23 14 41t36 18q33 0 33 -34q0 -19 -13 -41q-14 -25 -32 -25z" />
    <glyph glyph-name="semicolon" unicode=";" horiz-adv-x="158" 
d="M159 296q0 -21 -15.5 -45t-35.5 -24q-31 0 -31 36q0 21 14.5 43t34.5 22q33 0 33 -32zM128 71q0 -31 -27 -77q-15 -24 -44 -72q-4 -1 -7 -1q-14 0 -31 28q2 7 13 33q9 22 9 31q0 6 -5.5 18t-5.5 18q0 20 14.5 45.5t33.5 25.5q20 0 35 -14.5t15 -34.5z" />
    <glyph glyph-name="less" unicode="&#x3c;" horiz-adv-x="329" 
d="M259 368l-77 -58q-41 -30 -118 -91q42 -31 244 -198q9 -7 9 -17q0 -23 -23 -23q-8 0 -14 6l-258 209q-18 6 -18 18q0 18 37 46q4 3 14 10q83 61 239 183q6 8 18 8q23 0 23 -22q0 -14 -76 -71z" />
    <glyph glyph-name="equal" unicode="=" horiz-adv-x="323" 
d="M103 309l202 -1q18 0 18 -17t-18 -17l-202 1q-18 0 -18 17t18 17zM94 235h196q17 0 17 -18q0 -17 -17 -17h-196q-17 0 -17 17q0 18 17 18z" />
    <glyph glyph-name="greater" unicode="&#x3e;" horiz-adv-x="351" 
d="M30 -18q-6 -4 -13 -4q-23 0 -23 24q0 11 10 18l281 193l-103 90q-125 110 -133 121q-4 6 -4 12q0 23 24 23q11 0 18 -11q4 -6 127 -113l145 -126z" />
    <glyph glyph-name="question" unicode="?" horiz-adv-x="460" 
d="M323 298q-65 -45 -82 -85q-9 -22 -19 -44q-14 -31 -27.5 -35.5t-26.5 -4.5q-18 0 -18 17q0 71 89 146q48 37 145 113q45 36 45 59q0 39 -46 57q-33 13 -79 13q-60 0 -114 -25q-34 -17 -103 -50q-28 -13 -49 -13q-24 0 -24 17q0 39 117 82q102 38 159 38q203 0 203 -106
q0 -51 -63 -104zM155 9q-35 0 -35 36q0 19 11 35t30 16q27 0 27 -32q0 -15 -9 -33q-11 -22 -24 -22z" />
    <glyph glyph-name="at" unicode="@" horiz-adv-x="788" 
d="M480 161q-57 0 -57 70q0 24 8 55q-38 -63 -53 -79q-37 -42 -81 -39q-54 4 -92.5 41t-38.5 90q0 80 66.5 148.5t145.5 68.5q38 0 59 -22q17 -17 31 -58l22 61l70 8q-21 -47 -53 -136l-25 -69q-17 -47 -17 -68q0 -50 35 -50q72 0 128 82q49 71 49 130q0 113 -91 187
q-85 70 -201 70q-143 0 -238 -89t-95 -231q0 -143 98 -232q94 -86 239 -86q168 0 265 143h31q-46 -79 -128.5 -124t-175.5 -45q-151 0 -263 100q-116 104 -116 253t121 247q113 91 265 91q128 0 228 -77q109 -83 109 -207q0 -93 -76 -163t-169 -70zM379 493q-65 0 -109 -86
q-35 -68 -35 -126q0 -36 23.5 -64t58.5 -28q32 0 83 99q49 93 49 133q0 30 -20 51t-50 21z" />
    <glyph glyph-name="A" unicode="A" horiz-adv-x="1277" 
d="M1232 87l-3 -2q1 -19 1 -34q0 -37 -8 -50l-17 -7l-21 11q-3 3 -4 105q-1 103 3 114q-55 77 -167 77q-19 0 -64 -2q-41 -1 -64 -1q-125 2 -255 -13q-170 -20 -243 -64q-27 -16 -193 -149q-156 -125 -167 -125q-9 0 -16.5 9.5t-7.5 19.5q0 7 11.5 31.5t16.5 30.5
q118 130 138 144q15 11 177 86q25 12 62 45q44 39 62 51q485 306 644 306q125 0 125 -263q0 -34 -5 -102.5t-5 -102.5l-1 1zM1185 353q0 42 -2 92l-4 93q-2 4 -2 26q0 4 -15 24q-11 14 -17 23q-35 16 -55 16q-61 0 -306 -130q-239 -127 -286 -179q3 -2 40 -2
q67 0 199.5 13.5t199.5 13.5q156 0 237 -34l9 8q2 11 2 36z" />
    <glyph glyph-name="B" unicode="B" horiz-adv-x="1428" 
d="M799 482l5 52q-72 -1 -262 -80q-243 -101 -347 -171q-138 -92 -138 -171q0 -91 173 -91q118 0 231 38q29 0 29 -21q0 -10 -6 -21q-105 -41 -285 -41q-72 0 -123 25q-67 33 -67 97q0 116 161 225q129 87 342 166q103 36 310 109l39 10q171 44 207 52q100 22 162 22
q120 0 120 -72q0 -53 -69 -100q-40 -27 -135.5 -66t-130.5 -64q3 -2 134 -12q80 -6 163 -35q29 -10 55 -34q34 -32 34 -69q0 -11 -3 -23q-30 -95 -305 -158q-214 -49 -374 -49q-25 0 -45 9q-26 12 -26 34q0 26 36 26q-3 0 38 -3q24 -1 26 3q21 151 51 413zM1341 235
q-20 98 -386 98q-12 0 -22.5 8.5t-10.5 20.5q0 27 101 72q62 26 186 82q102 49 96 95l-1 8q-8 20 -83 20q-58 0 -208 -39q-96 -25 -151 -51q-52 -346 -52 -480l20 -3q95 0 244 25q108 18 223 82q40 22 44 62z" />
    <glyph glyph-name="C" unicode="C" horiz-adv-x="1347" 
d="M1060 612q5 6 -14 11q-14 3 -24 3q-89 0 -319 -75q-249 -81 -423 -173q-213 -112 -227 -197l2 -1l7 -32q59 -54 181 -82q99 -23 201 -23h163q141 0 357 27q248 31 353 73q29 -4 30 -25q-31 -45 -350 -88q-274 -37 -388 -35q-227 4 -340 22q-260 42 -260 162q0 98 221 222
q182 102 445 188q246 80 347 80q33 0 56 -11q31 -14 31 -43q0 -56 -146 -138q-96 -54 -257 -114q-190 -70 -265 -65l-28 2l-21 31l5 18q48 42 206 73q221 43 271 59q145 46 186 131z" />
    <glyph glyph-name="D" unicode="D" horiz-adv-x="1862" 
d="M1832 287q0 -65 -94 -134q-79 -58 -156 -78q-399 -103 -712 -103q-192 0 -192 69q0 29 12 38q5 3 26 5.5t30 12.5q18 237 29 505q-35 18 -551 18q-163 0 -163 -63q0 -92 363 -205q92 -29 187 -57q3 -4 3 -11q0 -27 -17 -27q-66 0 -203 45q-151 49 -254 113
q-125 77 -125 146q0 108 249 106q41 0 236 -5q170 -4 236 -2l31 1q21 26 31 26q20 0 29.5 -15t15.5 -16q35 -9 97 -12q79 -4 99 -6q161 -18 317 -54q191 -44 304 -101q129 -64 167 -168q5 -14 5 -28zM840 601h-7q-6 -17 -17 -242q-11 -218 -11 -270q50 1 140 0l139 -1
q15 0 45.5 3.5t45.5 3.5q31 0 61 -38q143 21 221 39q121 27 211 72q33 16 70 56q41 45 41 76q0 5 -2 9q-70 141 -423 227q-265 65 -514 65z" />
    <glyph glyph-name="E" unicode="E" horiz-adv-x="1056" 
d="M1042 74q-67 -29 -309 -72q-237 -42 -319 -42q-74 0 -139 22q-89 30 -89 88q0 52 52 113q46 54 99 80q-29 10 -120.5 14t-131.5 16q-66 21 -66 69q0 26 12 55q24 57 200 136q147 66 339 122q182 53 245 53q17 0 27.5 -13t10.5 -30q0 -7 -6 -16q-80 -55 -165 -95
q-111 -52 -178 -52q-32 0 -32 17q0 11 16 50q-177 -50 -240 -77q-158 -67 -173 -156q82 -40 210 -40h121q19 8 69 8q25 0 72 18t71 18q25 0 25 -33q0 -15 -46 -24q-113 -22 -214 -71q-141 -68 -141 -148q0 -63 204 -63q91 0 265 25q47 13 143 29q30 2 87 24t79 22
q25 0 23 -32z" />
    <glyph glyph-name="F" unicode="F" horiz-adv-x="1090" 
d="M1089 140q0 -28 -145 -28q-93 0 -279 -4.5t-279 -4.5q-13 0 -13 -88q0 55 5 -110q3 -99 -6 -156q-14 -79 -53 -79q-35 0 -47 35q-6 18 -6 64q0 25 2.5 73.5t2.5 73.5q0 21 20 26q26 7 28 9q0 23 2 68t2 68q0 6 -4 16h-231q-31 0 -55 10q-31 14 -31 41q0 14 33 14t139 -9
q85 -7 140 -5l11 12v442q0 12 -42 68q-5 9 -6.5 20.5t-3.5 15.5q3 37 24 37t46 -32q22 -29 27 -53q11 -51 79 -86q38 -17 113.5 -52.5t218.5 -60.5q130 -23 229 -23q53 0 53 -28q0 -7 -8 -18q-14 -6 -36 -6q-155 0 -332 47q-190 51 -306 130q-5 -12 -4 -34l1 -31
q5 -14 4 -87q0 -7 -3 -141l-2 -99q0 -25 54 -25q103 0 309.5 9t309.5 9q11 0 25 -9t14 -19z" />
    <glyph glyph-name="G" unicode="G" horiz-adv-x="1296" 
d="M1281 655q2 -10 2 -21q0 -14 -7 -18q-36 -22 -179 -57.5t-183 -32.5q-20 12 -45 12q-28 0 -65 -15l-62 -26q-244 -94 -365 -153q-239 -116 -316 -214q-3 -4 -3 -10q0 -33 89 -51q63 -13 117 -13q52 0 139 13q189 28 520 145q35 11 106 33q83 27 90 43q24 56 27 60
q18 23 64 23q44 0 44 -35q0 -21 -25 -43l-41 -35q-6 -8 -20 -111q-13 -98 -13 -121q0 -185 -28 -265q-50 -142 -198 -142q-78 0 -164 50q-75 43 -135 110q-23 26 -23 35q0 8 10.5 16t19.5 8q4 0 54 -45q143 -129 235 -129q112 0 151 140q20 70 24 231q1 27 7 90q6 58 6 90v6
q-11 1 -263 -82q-267 -88 -320 -99q-156 -33 -302 -33q-78 0 -136 20q-84 29 -84 93q0 82 229 206q185 100 454 201q225 84 332 108q10 2 92 28q57 18 92 18q43 0 73 -28z" />
    <glyph glyph-name="H" unicode="H" horiz-adv-x="1112" 
d="M1079 195q0 -22 -44 -22h-20q-27 1 -20 1q-52 0 -50 -27l2 -27l-2 -145q-10 -13 -20 -13q-25 0 -25 66q0 42 -64 93q-62 48 -106 48q-14 0 -164 -8l-91 -5q-19 -4 -19 -35q0 -15 1.5 -45t1.5 -45q0 -27 -31 -27q-19 0 -19 60q0 12 1.5 36t1.5 20h-2q2 0 1 1l2 12
q0 23 -73 23q-21 0 -52 -2l-34 -2q-72 0 -135 9q-100 14 -100 45q0 13 20 29q13 0 39.5 1t39.5 1q8 0 23 -3t23 -3l237 -3q13 0 16 60v72q2 62 2 93q0 17 -17.5 43t-17.5 43q0 155 40 155q19 0 33 -15.5t14 -34.5q0 -95 -4 -205q-6 -166 -6 -206q10 -9 19 -9q4 0 7 2l390 -6
q2 -2 11 -4q9 -1 11 1q6 6 6 140l1 225q-1 55 2 92q20 22 38 22q16 0 16 -43q0 -34 -4.5 -103t-4.5 -103q0 -36 4 -43l-5 -11q0 -17 -2 -49.5t-2 -49.5v-48q5 -31 27 -31q13 0 38.5 2.5t38.5 2.5q27 -12 27 -25zM906 101v61q0 11 -19 11q-13 -2 -15 -2h-32q23 -14 53 -42z
" />
    <glyph glyph-name="I" unicode="I" horiz-adv-x="742" 
d="M731 88q0 -13 -17 -22q-11 -5 -135 -12q-119 -7 -145 -26q-31 -23 -101 -36q-58 -11 -110 -11q-107 0 -164 57q-2 7 -2 13q0 26 31 38q85 -1 177 1l177 4q9 0 14 4q94 78 123 356q-39 8 -39 58q0 16 2 47t2 47q0 28 20 57.5t47 29.5q23 0 39 -27v-36q0 -95 -35 -272
q-40 -203 -82 -250l5 -5h49q15 0 55 6q35 5 55 3q4 2 9 2q25 0 25 -26zM335 66q-25 4 -71 3q-60 -2 -72 -1q-6 0 -30 -9q6 -2 29 -13q18 -9 29 -9q19 0 58 12q25 8 57 17z" />
    <glyph glyph-name="J" unicode="J" horiz-adv-x="472" 
d="M385 287l-3 -6v-42q0 -64 -27 -226q-32 -192 -72 -312q-53 -158 -108 -158q-56 0 -109 101q-44 84 -54 154l7 2q-4 16 -4 32q0 57 76 129q66 62 130 87q3 2 8 2q6 0 20 -6l10 -25l-6 -11q-192 -106 -192 -187q0 -33 39 -126q41 -99 63 -99q45 0 109 274q57 243 57 318v49
l3 5q0 19 2.5 60t2.5 63v66v66q0 19 -6 30q-9 -3 -17 -3q-42 0 -42 103q0 10 1 29.5t1 29.5q0 19 16.5 32t35.5 13q33 0 49 -83q10 -53 10 -115v-246z" />
    <glyph glyph-name="K" unicode="K" horiz-adv-x="1008" 
d="M966 55q3 -5 3 -12q0 -8 -6 -17q-44 -20 -125 -34q-76 -14 -130 -14q-388 0 -641 164q-5 -6 -5 -26q0 -12 -1 -27q2 -7 2 -17q0 -15 -4 -36q-6 -32 -6 -37q-15 -13 -26 -13q-20 0 -20 49q0 30 6.5 90t6.5 90q0 65 9.5 195.5t9.5 195.5q0 19 5 40q7 28 20 28q12 0 27 -24
q-5 -24 -4 -52q1 -49 1 -53q-5 -81 -12 -180l-5 -68l6 -10q99 88 234 165q83 47 250 140q9 14 29 37q10 8 87.5 32t91.5 24q41 0 45 -45q-5 -10 -22 -17l-26 -11q-130 -24 -361 -158q-222 -129 -311 -226l-6 -30q54 -66 245 -120q167 -47 277 -47h107q42 0 116 16
q80 18 116 20z" />
    <glyph glyph-name="L" unicode="L" horiz-adv-x="960" 
d="M920 48l-5 -12q-74 -57 -115 -78q-61 -31 -135 -31q-61 0 -153 15l-152 24q-17 2 -88 18q-53 12 -87 12q-25 0 -66.5 -30.5t-55.5 -30.5q-17 0 -31 12.5t-14 29.5q0 38 61 59q72 24 86.5 49t44.5 76q25 45 31 82q13 81 15 223q1 3 3 8l1 188q3 14 17 37l18 1q60 3 60 -69
v-87q0 -51 -26 -113.5t-26 -71.5q0 -84 -23 -164q-26 -89 -73 -147q268 -73 460 -73q36 0 94 26q43 20 90 50q42 26 38 26q30 0 31 -29z" />
    <glyph glyph-name="M" unicode="M" horiz-adv-x="1392" 
d="M1278 465q0 -78 -1 -233l-2 -234q0 -16 -26 -16q-31 0 -31 51q0 11 2.5 34t2.5 35l-1 231q-10 43 -18 43q-5 0 -99 -87q-268 -248 -485 -248q-150 0 -258 102q-68 64 -133 189q-54 104 -70 105q-23 -21 -37 -147q-16 -148 -22 -167q-4 -29 -11 -86q-8 -63 -35 -63
q-8 0 -23 6q-5 13 -5 20l1 10q14 143 37 276q30 176 30 277q0 14 -4.5 42t-4.5 42q0 37 21 37q31 0 47 -41q78 -201 90 -227q146 -321 350 -321h40q138 0 308 128q149 112 232 250q16 26 52 88q12 10 27 10q19 0 26 -16v-90z" />
    <glyph glyph-name="N" unicode="N" horiz-adv-x="1232" 
d="M1060 384q-8 -136 -33 -235q-43 -171 -122 -166l-8 -4h-53q-63 0 -251 136q-144 104 -239 190q-2 2 -111 114q-68 70 -120 101q-30 -27 -26 -184l-5 -12q0 -111 -12 -158l-12 -93q-10 -72 -28 -72q-31 0 -31 21q0 46 15.5 136.5t15.5 136.5q0 33 5.5 100t5.5 100
q0 26 -7 76.5t-7 76.5q0 8 6.5 15.5t14.5 7.5q21 0 52 -35q14 -18 44 -52q143 -157 342 -327q267 -228 372 -228q15 0 29 5q37 13 56 53q37 78 55 293q15 172 23 220q-3 7 -3 14q0 24 19.5 46.5t43.5 22.5q38 0 38 -51q0 -232 -69 -248z" />
    <glyph glyph-name="O" unicode="O" horiz-adv-x="1336" 
d="M1281 359q0 -13 -17 -48q-77 -159 -301 -253q-194 -81 -398 -81q-197 0 -345 57q-207 80 -207 245q0 133 180 252q143 95 303 131q2 1 12 1q33 0 33 -26q0 -15 -34 -22q-43 -9 -57 -24q211 40 395 40q138 0 267 -50q169 -66 169 -180v-42zM868 585h-134q-169 0 -338 -67
q-192 -76 -270 -202q-17 -27 -17 -65q0 -131 171 -187q115 -38 281 -38q101 0 218.5 26.5t207.5 70.5t156 103q89 80 89 156q0 102 -138 159q-106 44 -226 44z" />
    <glyph glyph-name="P" unicode="P" horiz-adv-x="873" 
d="M671 291q3 -2 36 -9q23 -5 23 -19q0 -24 -49 -28q-4 -1 -66 -1q-39 0 -150 -35.5t-180 -35.5q-110 0 -121 78q9 31 199 31h72q17 0 33 -1h15q91 0 188 75q102 79 102 167q0 68 -99 101q-67 22 -155 22q-36 0 -108 -2l-50 -2q-34 -1 -157 -25q-133 -26 -137 -40
q-3 -10 -3 -61q0 -35 1 -96l1 -64q0 -65 -2.5 -196t-2.5 -196q-21 -19 -34 -19q-19 0 -19 47q0 71 4 214t4 214q0 38 -2.5 113t-2.5 113q0 216 19 216q1 0 12 10t17 10q16 0 16 -63q0 -30 -5.5 -89.5t-5.5 -89.5q0 -10 2 -10l23 7l183 36q102 19 185 19q151 0 225 -20
q137 -37 137 -145q0 -87 -46 -133q-10 -10 -102 -93z" />
    <glyph glyph-name="Q" unicode="Q" horiz-adv-x="1394" 
d="M1414 42l-7 -15q-135 -66 -263 -66q-92 0 -273.5 69t-254.5 69q-31 0 -93 -5t-93 -5q-152 0 -152 82q0 36 57 36q123 0 245 -39q40 -13 71 -13q22 0 84 18q150 43 268 117q163 102 163 216q0 68 -79 99q-58 23 -136 23q-133 0 -320 -48q-204 -53 -349 -133
q-172 -96 -220 -209q-4 -7 -4 -24q0 -22 11 -38q85 -126 464 -126q18 0 54.5 7t54.5 7q31 0 31 -31q0 -13 -40 -23q-32 -8 -50 -8h-181q-125 0 -243 51q-149 64 -149 171q0 123 191 237q156 93 395 159q210 58 333 58h51q99 0 163 -40q77 -49 77 -142q0 -129 -169 -240
q-111 -73 -286 -132q-1 -9 10 -13q277 -96 357 -96q52 0 128 24q95 30 124 35q30 -11 30 -32z" />
    <glyph glyph-name="R" unicode="R" horiz-adv-x="1513" 
d="M1522 93q0 -34 -110 -74q-97 -35 -143 -35q-81 0 -241 102q-129 82 -215 165q-37 35 -126 59q-85 23 -105 46q-4 -46 -8 -169q-4 -112 -10 -168q-4 -33 -21 -33q-14 0 -25 18q-10 15 -10 30q0 13 7 23v17q0 71 12.5 213.5t12.5 213.5q0 15 -6 22q-138 -41 -274 -110
q-197 -101 -197 -184q0 -25 30 -43q15 -9 55 -24q30 -11 30 -19q-8 -21 -38 -21q-42 0 -81 27q-44 29 -44 69q0 83 78 150q52 43 153 88q52 23 156 67q27 10 82 30q61 23 61 48q0 4 -2 8q9 9 18 9q7 0 19 -11t19 -11q17 0 50 11q50 17 51 17q121 32 144 37q84 18 147 18h92
q82 0 149 -22q95 -31 95 -97q0 -123 -195 -196q-120 -45 -296 -65q134 -113 206 -163q148 -103 226 -103q46 0 130.5 39.5t95.5 39.5q28 0 28 -19zM1064 636q-160 0 -367 -60q-24 -5 -72 -15.5t-48 -44.5q0 -11 4 -24q-2 -44 4 -55q12 8 27 8q32 0 90.5 -48t92.5 -48
q130 0 281 46q201 61 201 160q0 48 -86 68q-55 13 -127 13z" />
    <glyph glyph-name="S" unicode="S" horiz-adv-x="1144" 
d="M550 3q-27 0 -33 -25q-28 -16 -208 -16q-47 0 -114 1l-77 1q-37 0 -66 11q-39 15 -39 46q0 34 81 34q10 0 30 -1t30 -1q56 0 166.5 -1.5t166.5 -1.5q375 0 510 56l12 15q-33 43 -209 74q-102 17 -305 54q-155 32 -155 92q0 67 149 154q123 72 300 133q165 57 232 57
q14 0 15 -17l-5 -9q-24 -16 -99 -37q-97 -27 -108 -31q-174 -63 -242 -96q-160 -78 -189 -153q27 -38 91 -48q35 -5 106 -15q169 -27 265 -45q204 -39 204 -104q0 -37 -12 -47q-44 -38 -241 -62q-148 -18 -256 -18z" />
    <glyph glyph-name="T" unicode="T" horiz-adv-x="1016" 
d="M1009 628q-48 -20 -203 -24h-205q-10 0 -17 -12q-17 -30 -51 -198q-34 -164 -34 -208v-59q38 -86 140 -86q37 0 111 20.5t109 20.5q36 0 37 -35l-7 -11q-137 -49 -243 -49q-167 0 -199 106q-6 18 -6.5 53.5t-3.5 50.5q23 161 91 398q-7 8 -58 8h-88q-28 0 -63 -19
t-81 -19h-143q-21 0 -48 22t-27 42q0 31 68 31q72 0 215 -3t215 -3q26 0 34.5 20.5t24.5 20.5q19 0 27 -20t13 -20q31 1 169 6q102 4 168 4q37 0 53 -11q3 -8 2 -17v-9z" />
    <glyph glyph-name="U" unicode="U" horiz-adv-x="1264" 
d="M1157 690q31 -29 31 -69q0 -38 -32 -100q-44 -86 -49 -97q-2 -21 -9 -69q-29 -207 -32 -349q-14 -17 -33 -17q-11 0 -19.5 9t-8.5 20q2 54 17 158.5t17 156.5q-51 -45 -179 -151q-44 -35 -152 -90q-91 -47 -163 -69q-180 -55 -256 -55q-130 0 -195 80q-55 68 -62 195
q1 6 1 21v46q-36 24 -36 76q0 23 9 63q11 50 12 57q2 23 5 69q9 116 87 108q21 -2 21 -32l-7 -51q-3 -20 -37 -286v-89q0 -76 50 -137q52 -65 127 -65h49q-4 0 10 3q6 -1 18 -1q24 4 57 12q27 6 96 25q6 2 105 44q189 81 308 186l85 76q48 49 64 94q3 18 19 106
q17 95 29.5 111.5t36.5 16.5q11 0 16 -6z" />
    <glyph glyph-name="V" unicode="V" horiz-adv-x="1424" 
d="M1322 648q-6 -5 -6 -19q0 -12 5 -17q-11 -101 -31 -231q-13 -81 -27 -130q-33 -112 -79 -188q-2 -5 -12 -20l-2 -3q-46 -50 -92 -57q-4 0 -13 -3.5t-13 -3.5h-60q-4 0 -24 5q-23 6 -29 7q-33 5 -98 40q-121 65 -221 149q-78 65 -186 180q-62 66 -121 146t-84 102
q-3 4 -29 4q-32 1 -42 3q-42 2 -84 5q-61 7 -67 31q-1 8 -1 15q0 47 74 47q63 0 261 -54q74 -20 137 -20q20 0 57.5 8t55.5 8q9 0 27.5 1t27.5 1q15 0 48 -2l34 -2h96q99 0 103 -1q15 -2 18 -13q1 -6 1 -10q0 -29 -46 -29q-2 0 -44 4h-287q-31 0 -93 3t-93 3q-42 0 -72 -4
q-3 -5 -3 -9t3 -6q235 -310 502 -478q62 -39 94 -53q55 -25 105 -25q111 0 138 95q25 61 57 166q12 57 29 143q28 141 26 208q3 21 -1 36q-1 3 -1 6q0 10 11.5 17t22.5 7q26 0 26 -35q-1 -19 2 -27z" />
    <glyph glyph-name="W" unicode="W" horiz-adv-x="1624" 
d="M1571 609q0 -13 -20 -21q-1 -1 -32 -9q31 -58 31 -116q0 -99 -117 -220q-91 -93 -226 -175q-159 -95 -264 -95h-72q-161 0 -205 298q-1 34 -13 95q-74 -84 -226 -247q-157 -162 -268 -162q-46 0 -74 31t-28 78q0 56 11 146q15 126 17 146q-20 5 -41 11q-11 5 -11 46
q0 51 10 126q13 95 30 116q8 9 73 51h19q9 0 19 -23q-12 -47 -20 -131l-13 -132q-39 -264 -39 -352q0 -31 13 -42.5t44 -11.5q67 0 185 115q45 43 193 213q101 115 130 115q28 0 35 -73q0 -5 8 -97q8 -42 26 -125q33 -135 175 -135q105 0 252 84q127 74 214 164
q106 111 106 201q0 43 -27.5 72t-70.5 29q-17 0 -51 -5t-51 -5q-13 0 -39 1t-39 1q-49 0 -147.5 -6t-147.5 -6q-44 0 -46 1q-31 4 -31 24q0 17 16.5 32t33.5 15q4 0 7 -1q235 43 370 43q78 0 151 -32q20 -9 58 -7q44 2 58 0q34 -5 34 -25z" />
    <glyph glyph-name="X" unicode="X" horiz-adv-x="1480" 
d="M1463 105q-117 -69 -208 -69q-122 0 -256 45q-113 38 -244 109q-76 42 -229 127q-64 -38 -184 -154q-130 -125 -158 -183l11 -54q-18 -36 -55 -108q-40 -71 -85 -71q-20 0 -46 26v35q0 73 191 284q157 173 258 257q-84 58 -209 155q-161 125 -186 164l14 30
q13 0 197 -136q197 -146 238 -168q47 24 197 124q164 109 242 151q135 73 213 73q15 0 30.5 -8.5t12.5 -22.5q-70 -40 -218 -101q-158 -65 -225 -101q-121 -65 -192 -146q104 -83 309 -174q221 -98 335 -98q40 0 118 26.5t113 26.5q6 0 16 -16v-23z" />
    <glyph glyph-name="Y" unicode="Y" horiz-adv-x="1360" 
d="M1265 124q-4 -21 -61 -50q-34 -17 -190 -90q-86 -40 -127 -81q-31 -32 -88 -127q-82 -136 -124 -185q-79 -91 -161 -91q-16 0 -33.5 24t-17.5 41q0 78 98 173q56 55 187 148q108 77 119 101q15 33 74 139q49 88 67 144q-289 -225 -413 -225q-93 0 -174 63
q-67 52 -127 144q-33 53 -100 159q-8 12 -15 12q-4 0 -14.5 -5.5t-16.5 -5.5q-19 0 -75 150q-54 145 -54 175q0 53 29 53q21 0 109 -178q112 -225 186 -331q125 -179 236 -179q193 0 372 204q101 115 240 365l38 -1l10 -31q-44 -123 -132 -309l-143 -304q37 6 143 65
q102 57 131 58zM770 -170q-101 -68 -145 -108q-80 -74 -96 -148q77 33 141 108q43 51 100 148z" />
    <glyph glyph-name="Z" unicode="Z" horiz-adv-x="1257" 
d="M1287 102q0 -16 -30 -35l-59 -39q-60 -33 -121 -66q-65 -31 -135 -31q-101 0 -269 73q-72 32 -256 129q-46 24 -93 28q-4 1 -32 -20q-22 -16 -44 -33q-33 -23 -114 -83q-66 -51 -99 -51q-26 0 -28 32q-3 48 120 129q66 43 164 86q73 32 125 82q1 0 1 2q0 3 -5.5 14.5
t-5.5 17.5q0 19 45 22q37 3 62 10q2 1 4 -1q2 1 10 7q162 120 269 177q75 40 94 61q-2 3 -6 3l-352 -9q-101 -3 -136 2h-22h-43q-4 0 -15 2.5t-15 2.5h-81q-77 9 -77 42q0 8 4 17q31 31 108 31q18 0 33 -2l106 -2q29 0 78 -4q3 0 22 -28q7 -11 16 -11h51q13 0 40 1.5t40 1.5
h64q30 0 126 5q92 5 151 13q12 2 33 -10q10 -6 10 -22q0 -5 -3 -7q-61 -53 -198 -129q-141 -79 -200 -127q1 -8 14 -11l225 2q7 4 17 4q15 0 33 -10.5t18 -24.5q0 -20 -33 -20l-320 -4q-36 6 -105 -42q-54 -38 -84 -74q3 -3 133 -67q29 -14 115 -53q49 -23 148 -66
q81 -34 151 -34q66 0 125 35q15 9 105 59q8 3 50 33q28 20 44 20q11 0 19 -8.5t8 -19.5zM148 708q-8 -7 -13 -7q-7 0 -8 11q7 -1 21 -4z" />
    <glyph glyph-name="bracketleft" unicode="[" horiz-adv-x="196" 
d="M119 641q-11 1 -37 4q12 -156 12 -324q0 -110 -39 -315q67 -5 67 -28q0 -8 -7.5 -15.5t-15.5 -6.5l-98 10q48 248 48 355q0 231 -17 373q34 1 71 -1q55 -4 55 -29q0 -23 -39 -23z" />
    <glyph glyph-name="backslash" unicode="\" horiz-adv-x="1412" 
d="M1350 631q0 -19 -41 -35q-79 -31 -124 -42q-60 -14 -133 -14q-59 0 -174 22q-19 4 -89 33q-13 -1 -62.5 -45t-55.5 -58q43 19 73 23q13 2 62 0q171 -6 171 -148q0 -71 -45 -139l-84 -117q-46 -66 -46 -125q0 -18 21 -18q5 0 13.5 2.5t12.5 2.5q22 0 22 -15q0 -12 -13 -15
q-15 -17 -69 -17q-10 0 -59 3q-38 2 -124.5 39t-121.5 63q-55 41 -98 119q-46 81 -46 146q0 67 31 109q42 56 90 78q45 20 117 20q9 0 22 -5.5t15 -5.5q9 0 13 4q5 9 17 23q38 47 95 83q-291 55 -452 55q-47 0 -129 -31q-92 -35 -102 -71l-7 1q-2 0 -8 -6q-1 -2 -8 -2
q-15 0 -15 21q0 7 4 16q51 59 143 91q80 28 169 28q166 0 495 -73q74 28 143 37q53 7 146 7q53 0 128 -10q103 -14 103 -34zM1277 618q-17 20 -266 20q-19 0 -48 -5l-47 -8q-36 -5 -36 -10q0 -4 12 -8q55 -19 179 -19q131 0 206 30zM921 365q0 108 -170 108q-30 0 -59 -10
q-39 -13 -41 -36q-10 -18 -20 -18q-11 0 -8 17q-7 4 -16 16t-16 15q-14 6 -45 6q-52 0 -95.5 -44.5t-43.5 -96.5q0 -135 102 -241q26 -27 125 -70t135 -43q-14 42 -14 50q0 31 83 164t83 183z" />
    <glyph glyph-name="bracketright" unicode="]" horiz-adv-x="196" 
d="M40 8q13 0 37 -3q-12 156 -12 324q0 110 39 315q-68 4 -68 28q0 7 8 15t15 7l99 -10q-48 -248 -48 -355q0 -231 17 -374q-42 0 -71 2q-55 4 -55 29q0 23 39 22z" />
    <glyph glyph-name="asciicircum" unicode="^" horiz-adv-x="330" 
d="M167 376l-8 -6q-108 -81 -110 -81q-17 0 -17 17q0 18 17 18q-1 -1 -2 -1q-2 0 -3 1q3 2 64 51q51 41 60 41t57 -44l59 -54q0 -1 -1 -1q12 -3 12 -17q0 -17 -17 -17q-9 0 -52 39q-17 16 -52 48z" />
    <glyph glyph-name="underscore" unicode="_" horiz-adv-x="932" 
d="M1 -84h998v-46h-999z" />
    <glyph glyph-name="grave" unicode="`" horiz-adv-x="288" 
d="M273 278q-7 -16 -23 -10q-73 16 -114 37q-32 16 -101 67q-11 5 -11 18q0 22 17 22q3 0 7 -2l103 -65q60 -34 112 -44q16 -7 10 -23z" />
    <glyph glyph-name="a" unicode="a" horiz-adv-x="860" 
d="M865 57q-55 -35 -142.5 -60t-154.5 -25q-28 0 -68 35q-20 18 -60 53q-116 -37 -145 -44q-71 -17 -152 -17q-29 0 -82 12q-65 15 -65 33v33q49 52 260 109q195 53 285 53q49 0 49 -22q0 -60 -240 -60q-38 0 -162 -38q-130 -40 -131 -59q6 -4 32.5 -10t36.5 -6h88
q40 0 119 33t106 33q19 0 64.5 -46t74.5 -46q50 0 138 30q97 33 137 37z" />
    <glyph glyph-name="b" unicode="b" horiz-adv-x="544" 
d="M550 88l-2 -18q-35 -6 -80 -6q-25 0 -75 2.5t-75 2.5q-35 -49 -72.5 -69t-97.5 -20q-71 -1 -110.5 35t-37.5 106q3 109 62 313q71 246 142 247q18 0 29.5 -15.5t10.5 -34.5q-2 -81 -102 -297l-99 -215q-2 -52 28 -74q27 -20 80 -19q33 0 65 9q47 12 47 35v7
q-129 31 -128 84q1 19 31 20t68 -21q20 -13 62 -37q19 -11 112 -12q-14 0 -2 0q11 1 40 1h84h8zM197 620q-10 2 -19 -13q-39 -65 -70 -163q-29 -92 -40 -174q112 223 129 350z" />
    <glyph glyph-name="c" unicode="c" horiz-adv-x="785" 
d="M787 67q0 -36 -215 -56q-149 -14 -266 -14q-92 0 -172 14q-131 23 -131 73q0 71 267 112q187 29 337 29q10 0 30 -16t20 -26q0 -43 -183 -43q-7 0 -18.5 14.5t-20.5 14.5q-65 0 -206 -23q-176 -29 -176 -62q0 -12 33 -18q15 -1 43 -5q84 -17 215 -17q70 0 208 20.5
t207 20.5q28 0 28 -18z" />
    <glyph glyph-name="d" unicode="d" horiz-adv-x="1075" 
d="M1077 73l-6 -24q-159 -59 -245 -59q-144 0 -159 145l-7 60q-10 -2 -33 -26l-33 -34q-162 -128 -465 -128q-35 0 -78 22q-50 26 -50 57q0 69 279 114q194 31 345 34q33 38 54 143q11 61 34 185q17 93 34 103l33 -6q-6 -50 -22 -129l-26 -128q-1 2 -2 2q-1 -1 -1 -4
q0 -4 1 -4l2 2q-21 -130 -21 -208q0 -72 16 -105q23 -47 88 -47q47 0 129 23l128 35zM534 154q-6 4 -16 4h-10q-7 -1 -10 -1q-19 0 -33 12l-3 8q-15 5 -33 5q-69 0 -194 -32t-184 -66q3 -15 40 -25q31 -8 51 -8h76q65 0 166.5 32t149.5 71z" />
    <glyph glyph-name="e" unicode="e" horiz-adv-x="675" 
d="M278 -17h-114q-48 0 -101 25q-62 29 -62 71q0 73 179 121q138 37 247 37q27 0 56 -17t33 -42q-25 -60 -189 -85q-104 -16 -233 -16q-27 0 -48 -8q16 -19 55 -31q34 -11 64 -11h125q69 0 164 16t158 38q34 12 46 12q18 0 17 -27q-76 -35 -195 -59q-115 -24 -202 -24z
M450 188l-2 3q-6 6 -21 6h-38q-40 0 -160 -29q-136 -33 -159 -61q97 1 221 19q163 24 170 57q-7 1 -11 5z" />
    <glyph glyph-name="f" unicode="f" horiz-adv-x="489" 
d="M462 573q-16 1 -89 18q-53 12 -93 5q-18 -3 -35.5 -18t-19.5 -33q-20 -156 -67 -443q10 -3 26 -6q3 0 85 -1q56 5 177 6q5 -4 18 -13l3 -2l-28 -29q-8 -8 -145 -9q-116 -1 -140 1l-18 -114l-21 -144q-17 -111 -29 -136l-27 -8l-12 19l3 48l57 342q-17 -2 -35 -2
q-76 0 -79 26q-2 22 24 24q25 -1 95 1q2 16 20 162q6 49 27 184q8 43 18 84q16 63 42 97q5 7 37 15t81 5q38 -2 84 -14q64 -17 63 -40q0 -8 -7.5 -17t-14.5 -8z" />
    <glyph glyph-name="g" unicode="g" horiz-adv-x="885" 
d="M901 81l-8 -17q-63 -21 -126 -43q-73 -26 -121 -54q-18 -11 -41 -93q-29 -106 -47 -143q-36 -74 -87 -74q-71 0 -71 70q0 79 52 139q33 31 98 95q53 55 54 131q-240 -72 -394 -72q-218 0 -218 75q0 54 312 92q244 30 390 30q10 0 26 -8t16 -17q0 -40 -122 -40
q-43 0 -107 6l-68 5q-44 0 -105 -9q-81 -12 -104 -14q-38 -4 -100 -16q-81 -16 -82 -32q11 -10 42 -21.5t46 -11.5h105q79 0 198 28q114 26 191 60l27 -4q8 -13 8 -32q0 -16 -8 -46q-8 -33 -9 -47q14 4 113 45q80 33 108 33zM559 -102q-104 -82 -104 -156q0 -25 11 -48
q44 37 62 94q10 37 31 110z" />
    <glyph glyph-name="h" unicode="h" horiz-adv-x="805" 
d="M812 58q-158 -58 -243 -58q-59 0 -125 34q-31 16 -98 64q-47 34 -64 34q-38 0 -95 -36q-37 -23 -88 -65q-44 -36 -51 -36q-54 0 -54 74q0 58 33 195q36 149 84 261q56 131 106 131q24 0 41 -31q16 -26 16 -52q0 -76 -77 -197q-58 -92 -132 -172q-20 -34 -24 -75
q1 3 1 -65v-10q16 8 110 72q68 47 121 47q40 0 138.5 -66t153.5 -66q42 0 117 21q80 22 117 24zM210 601q-93 -116 -137 -330q153 204 153 291q0 26 -16 39z" />
    <glyph glyph-name="i" unicode="i" horiz-adv-x="413" 
d="M113 292q-43 0 -43 31q0 13 10.5 32.5t21.5 28.5q9 3 26 11q45 -3 45 -32q0 -18 -21.5 -44.5t-38.5 -26.5zM131 8q-129 0 -129 88q0 48 4 62q10 35 46 35q25 0 25 -23q0 -14 -8.5 -41.5t-8.5 -41.5q0 -29 78 -29q43 0 128 20t128 20q16 0 16 -19q0 -23 -125 -49
q-107 -22 -154 -22z" />
    <glyph glyph-name="j" unicode="j" horiz-adv-x="335" 
d="M204 389q26 0 26 -28q0 -18 -10.5 -40t-24.5 -33q-43 -6 -43 29q0 17 13 42q16 30 39 30zM326 73q-42 -26 -78 -49q-54 -35 -82 -66q-39 -43 -41 -96q-5 -18 -10 -46q-9 -34 -26 -133q-5 -37 -36 -37q-14 0 -25 8.5t-11 22.5q0 4 1 8v35q0 28 14 89.5t27 80.5
q28 42 37 100q5 36 14 107v2l-2 5q-28 -5 -68 -23q-11 -5 -19 -5q-11 0 -23 12q-2 8 3 20q76 50 110 50q27 0 40.5 -20.5t8.5 -47.5q-5 -15 -12 -42q-2 -16 -4 -41q39 32 89 69q37 27 67 27q15 0 30 -7q5 -18 -4 -23z" />
    <glyph glyph-name="k" unicode="k" horiz-adv-x="552" 
d="M559 52q-33 -23 -93 -45q-63 -23 -100 -23h-35q-9 0 -50 17q-18 7 -40 17q-17 11 -50 34q-39 27 -48 25q-13 -3 -36 -27q-11 -12 -33 -35q-27 -26 -47 -26q-19 0 -35 24q1 -1 2 40q2 157 71 389q5 12 9 36q7 40 10 48q9 30 27 30q12 0 28 -13q-22 -81 -64 -244
q-33 -133 -35 -249q21 19 63 56q0 1 -23 27q-15 17 -15 30q0 33 55 44q2 0 54 8q22 3 83 18q54 13 83 13q21 0 40 -10q23 -12 23 -31q0 -17 -33 -21q-24 -1 -47 -3q-26 -2 -46 -14q-9 0 -92 -59q0 2 2 0q16 -9 45 -28q17 -8 59 -30q33 -18 67 -18q42 0 179 56q8 2 17.5 -8.5
t9.5 -18.5q0 -6 -5 -9zM130 153q0 -9 21 -18q33 16 79 50q-100 -10 -100 -32z" />
    <glyph glyph-name="l" unicode="l" horiz-adv-x="317" 
d="M215 547q-1 -55 -20 -112q-5 -16 -49 -123q-15 -36 -49 -79t-41 -58q-18 -39 -12 -88q-4 -51 54 -51q25 0 59 11l64 21q20 8 40 15q27 10 40 10q15 0 19 -8q2 -22 -8 -33q-6 -5 -28.5 -13.5t-82.5 -27.5q-79 -21 -112 -21q-73 0 -87 70q-7 36 1 67q0 122 29 257
q31 145 84 243q4 10 18 19q6 2 12 5q44 3 60 -32q10 -23 9 -72zM100 462l-36 -148q-1 -7 -8 -84q40 58 74 154q36 101 36 165q0 41 -20 38q-13 0 -27 -45q-4 -17 -19 -80z" />
    <glyph glyph-name="m" unicode="m" horiz-adv-x="1127" 
d="M1127 88l6 -31l-9 -20q-175 -73 -271 -73q-41 0 -66 82q-11 39 -34 117h-3q-29 0 -151 -91t-141 -91q-37 0 -52 48q-4 13 -16 88q-8 48 -26 48q-28 0 -156.5 -86.5t-168.5 -86.5q-41 0 -41 61q0 124 37 124q21 0 21 -45q0 -12 -2.5 -36t-2.5 -35t6 -11q15 0 138.5 84
t168.5 84q27 0 53 -15q11 -26 20.5 -80.5t20.5 -80.5q30 15 95 66q69 54 103 75q59 36 102 36q30 0 49 -42q10 -22 27 -88q14 -56 26 -73l16 -1q45 -3 131 35t116 38h4z" />
    <glyph glyph-name="n" unicode="n" horiz-adv-x="790" 
d="M814 68q-29 -25 -115.5 -55t-126.5 -30q-47 0 -100 48q-25 23 -79 89q-39 48 -52 48q-33 0 -161 -79t-158 -79q-19 0 -23 32v47q0 117 32 117l24 -10l2 -13q0 -11 -4.5 -32.5t-4.5 -32.5v-43q5 2 148 84q106 61 145 61t79 -48q23 -30 71 -89q41 -48 83 -48q36 0 112.5 33
t101.5 33q26 0 26 -33z" />
    <glyph glyph-name="o" unicode="o" horiz-adv-x="930" 
d="M710 102q1 1 0 1v-1zM708 102zM710 102zM708 102h2l-2 1v-1zM960 93q-17 -17 -23 -22q-14 -12 -27 -16l-23 -2q-26 -2 -81 3q-63 6 -84 6q-34 0 -54 -6l-153 -48q-92 -28 -162 -28q-351 0 -349 84l1 38q131 143 622 143l67 -20l-4 -32l-163 2q-121 1 -249 -24
q-160 -32 -226 -89l21 -26q77 -26 244 -26q138 0 238 35l-66 40q-8 14 -8 23q0 21 37 28l34 3q40 4 85 -10q51 -15 71 -44v-2h2q0 1 1 2q21 0 63 1h64q82 0 122 -13z" />
    <glyph glyph-name="p" unicode="p" horiz-adv-x="877" 
d="M884 65l-18 -29q-153 -14 -252 -14q-38 0 -111.5 -16.5t-111.5 -16.5q-14 0 -32.5 11t-18.5 24q0 37 90 41q156 6 166 8q90 16 90 85q0 22 -70 22h-5q-120 0 -275 -127q-151 -125 -186 -243q-7 -49 -23 -148t-73 -108l-22 25v39q0 56 50.5 199.5t50.5 217.5q0 24 -3 63
l-15 2q-26 0 -113 -42l-9 43q21 10 62 29q34 15 66 15q63 0 63 -91q0 -15 -13 -112q7 6 131 124q81 77 140 111q82 47 172 47q120 0 120 -74q0 -18 -16 -41q-24 -34 -25 -37q12 -1 26 -1q23 0 69 4t69 4z" />
    <glyph glyph-name="q" unicode="q" horiz-adv-x="883" 
d="M885 32q-50 -46 -179 -165q-60 -56 -90 -162q-3 -9 -35 -186q-2 -35 -3 -40q-6 -21 -28 -21q-23 0 -36 22q-11 18 -11 42q0 63 69.5 286t69.5 320q0 23 -6 30.5t-28 7.5q-17 0 -50 -2.5t-50 -2.5q-65 0 -250 -36q-200 -39 -201 -66q41 -31 157 -31q71 0 205.5 47
t175.5 47l6 -1l13 -28q-116 -71 -246 -94q-91 -16 -262 -16q-34 0 -69 24q-38 27 -38 59q0 64 285 109q187 29 350 36l32 25l37 -16q-8 -56 -28 -169q-22 -120 -29 -168l118 106q91 81 118 82z" />
    <glyph glyph-name="r" unicode="r" horiz-adv-x="525" 
d="M535 97q0 -13 -14 -21t-28 -8q-65 0 -150 14q-106 17 -139 46q-14 13 -29 27q-19 17 -31 21q-16 -39 -49 -115q-41 -91 -62 -91q-10 0 -20.5 7t-10.5 17v109l4 6q0 8 -1 23t-1 23q0 62 27 62q13 0 28 -15v-64q-2 1 -3 -3l2 -6q10 8 37 90q25 75 46 75q13 0 26 -18.5
t14 -33.5q6 -57 96 -92q72 -28 141 -28q56 0 67 -1q50 -5 50 -24z" />
    <glyph glyph-name="s" unicode="s" horiz-adv-x="648" 
d="M650 82q-4 -21 -23 -28q-36 -14 -288 -39q-240 -24 -311 -24q-13 0 -24 7.5t-11 19.5q0 17 17.5 31.5t35.5 14.5q25 0 73.5 -4t73.5 -4q178 0 189 25q-53 13 -160 40q-126 34 -126 74q0 36 72 61q62 21 105 18l27 -2q15 -13 15 -19q0 -17 -68 -28q-77 -13 -91 -28
q10 -18 79 -32q110 -22 127 -27q71 -22 86 -56q9 1 79 11q47 7 79 7q29 0 44 -18z" />
    <glyph glyph-name="t" unicode="t" horiz-adv-x="454" 
d="M471 86q-12 -37 -143 -37q-35 0 -84 3l-53 2q-9 0 -30 -7q-8 -18 -13 -60q-1 -12 -10 -22.5t-20 -10.5q-14 0 -26 37l-16 50q-8 16 -43 28q-30 10 -29 26l7 18q10 3 22 3q11 0 31 -5.5t31 -5.5q19 0 23 33q8 69 37 200q34 153 55 185q3 4 10 4q10 0 26 -9l-2 -21
q-5 -50 -29 -141q-25 -95 -30 -141q-9 -28 -22 -85q-3 -23 15 -35l111 -1q49 5 148 9q20 0 34 -17z" />
    <glyph glyph-name="u" unicode="u" horiz-adv-x="814" 
d="M826 81q-5 -26 -115 -67q-103 -38 -143 -38q-101 0 -135 125q-13 49 -17 53q-45 -12 -108 -52q-89 -56 -107 -65q-64 -32 -123 -32q-77 0 -77 88v43q0 31 4 41q7 19 34 19q18 0 18 -25q0 -9 -3.5 -25.5t-3.5 -24.5v-40q0 -29 27 -29q51 0 128 45q60 37 119 73
q92 54 118 54q24 0 32 -51q13 -80 19 -95q21 -51 76 -51q41 0 127.5 36.5t99.5 36.5q21 0 30 -19z" />
    <glyph glyph-name="v" unicode="v" horiz-adv-x="731" 
d="M730 98q5 -8 5 -19l-6 -25q-11 -5 -25 -5q-37 0 -109.5 18t-109.5 18q-12 0 -75 -28q-80 -36 -129 -52q-83 -28 -148 -28q-62 0 -99 61q-32 52 -32 119v44q17 17 29 17q20 0 26 -51q8 -75 15 -94q18 -51 69 -51q39 0 142 32q112 35 121 59q-8 10 -67 37q-51 23 -51 46
q0 41 47 41q29 0 89 -25q66 -27 71 -50q0 -10 11 -27q23 -15 108 -27q66 -9 118 -10z" />
    <glyph glyph-name="w" unicode="w" horiz-adv-x="1023" 
d="M1026 77q-17 -12 -57 -12q-33 0 -93 10q-64 11 -93 13q-32 -105 -113 -105q-66 0 -156 66q-45 33 -133 117q-36 -18 -104 -63q-71 -48 -105 -65q-60 -31 -105 -31q-30 0 -51.5 18.5t-21.5 48.5v54q0 93 39 93q16 0 16 -40q0 -16 -4.5 -48t-4.5 -48q0 -34 29 -34
q41 0 169.5 83.5t147.5 83.5q26 0 73 -48l89 -91q57 -49 108 -49l26 3l30 26q17 17 17 35q0 12 -48 29q-72 26 -88 33q-48 22 -48 50q0 52 45 52q58 0 132 -58q82 -64 126 -73q34 -3 102 -10q78 -9 78 -31z" />
    <glyph glyph-name="x" unicode="x" horiz-adv-x="805" 
d="M810 91l-2 -25q-165 -78 -282 -78q-69 0 -135 31q-37 17 -95 58q-44 31 -58 31q-35 0 -113 -65q-68 -56 -97 -96q-11 -4 -22 -4q-22 0 -19 29q30 52 88 94l103 74q-11 17 -73.5 42.5t-62.5 37.5q0 25 17 25q28 0 104 -37t80 -37q27 0 185 66t205 66q12 0 25 -5
q18 -7 17 -16l-2 -24q-36 -30 -104 -51q-64 -20 -115 -20q-74 0 -150 -50v-10q63 -44 106 -64q65 -31 118 -31q44 0 134 34.5t126 34.5z" />
    <glyph glyph-name="y" unicode="y" horiz-adv-x="552" 
d="M231 -320q-18 0 -31 17.5t-13 36.5q0 -3 41 65q115 191 117 313l-140 -76q-76 -40 -155 -40q-28 0 -44 36q-12 26 -14 60q2 5 8 51q5 39 20 39q8 0 25 -13q-1 -10 -7 -39q-5 -24 -5 -39q0 -58 46 -58q50 0 109 33q37 21 100 69.5t95 63.5l22 -8l2 -9q0 -94 -61 -238l2 -7
q59 51 178 151l24 -3l5 -14q0 -7 -62 -62q-79 -70 -122 -116q-71 -76 -87 -135q-22 -78 -53 -78z" />
    <glyph glyph-name="z" unicode="z" horiz-adv-x="659" 
d="M415 -28q-39 0 -116.5 34.5t-115.5 34.5q-12 0 -45 -19t-49 -19q-24 0 -24 31q0 15 123.5 64t127.5 72q-10 9 -34 9q-79 0 -219 -75q-48 -26 -52 -26l-15 4v27q61 49 138 79q81 32 155 32q150 0 150 -23q0 -21 -83 -64q-101 -52 -107 -57l2 -8q110 -50 184 -50
q52 0 129 41.5t76 41.5l16 -4q9 -9 9 -14q0 -37 -107 -76q-96 -35 -143 -35z" />
    <glyph glyph-name="braceleft" unicode="{" horiz-adv-x="2061" 
d="M1995 535q0 -52 -54 -80q-28 -14 -100 -31q-113 -26 -241 -49q-16 -1 -45.5 -5.5t-29.5 -30.5q0 -8 4 -21.5t4 -20.5q0 -25 -32 -46t-32 -40q0 -12 6 -39.5t6 -39.5q0 -17 -21 -27.5l-23 -11.5q-7 -6 -8 -22t-11 -29q-38 -51 -169 -51q-56 0 -101 12q-51 13 -151.5 39.5
t-139.5 61.5q-6 -23 -6 -26q0 -63 -44 -63q-30 0 -59 56q-19 39 -29 81q-12 53 -12 102q0 74 22 151q9 31 9 34q0 20 -39 72.5t-57 52.5q-24 0 -42 -50q-14 -40 -14 -73q0 -2 31 -76q32 -77 38 -107q21 -107 21 -154q0 -24 -7 -47q-9 -32 -27 -32q-19 0 -40 31
q-17 24 -24 48q-23 74 -28 151q-2 29 -2 154q0 23 -44 90q-48 73 -78 71q-27 -2 -45 -139q26 -23 68 -142q47 -133 47 -217q0 -47 -30 -47q-18 0 -35 18q-70 73 -83 309q-1 25 -6 61q-9 30 -60 89q-54 62 -82 65q-62 6 -62 -121q0 -27 2 -67.5t2 -48t48 -31.5
q44 -35 67 -102q20 -57 20 -122q0 -15 -12 -32t-26 -17q-27 0 -75 95q-28 55 -49 165q0 8 -7 21q-9 8 -45 8q-7 0 -21 -2t-21 -2q-10 -2 -10 12q0 13 11 15q22 8 42 8q32 0 44 -8q0 2 -1 33q-2 38 -2 76v30q0 131 85 131q47 0 89 -51q3 -4 67 -87l4 6q11 67 17 84
q19 53 56 53q36 0 76 -50q19 -26 58 -78q7 22 21 65q21 60 58 60q33 0 72 -49q32 -40 45 -79q6 1 18 22q90 159 365 159q37 0 110.5 -2.5t110.5 -2.5q35 0 133 11q16 -1 43 0q20 1 24 -8v-18q0 -9 -12.5 -27.5t-14.5 -25.5h19q28 0 83 2.5t83 2.5q7 0 71 -3q36 -2 137 -11
q29 -4 47 -11q25 -11 25 -35zM1937 526q-3 21 -105 28q-83 6 -123 3l-414 -31q-29 -2 -87 -14q-33 -7 -42 -12q-5 -3 -32 -29q-8 -8 -19 -16q-6 2 -6 6.5t-1.5 4.5t-1.5 1q0 3 2 8t2 7q0 28 52 53q43 21 78 23l203 13q16 1 34 20t19 35q-51 -7 -94 -7t-129 3.5t-129 3.5
q-139 0 -245 -48q-75 -34 -122 -149q60 -102 79 -228q0 -24 7 -57q15 -25 126 -58q103 -31 146 -33q6 -5 39 -9q28 -4 42 -4q163 0 163 28q0 9 5 27t5 27q0 5 18.5 11.5t18.5 24.5q0 12 -1.5 35t-1.5 35q0 19 32 42.5t32 36.5q0 11 -5.5 31.5t-5.5 31.5q0 33 55 42
q27 4 82 12q103 17 273 56q51 17 51 46zM799 281q-22 70 -37 96q-4 -11 -10 -62q-7 -59 -6 -82q4 -69 29 -134q16 -26 29 -32q15 0 19 24q1 11 5 32q-6 20 -12 72q-5 49 -17 86zM641 144q0 30 -23.5 120.5t-38.5 110.5q-2 -11 -2 -28q0 -24 7 -70.5t7 -68.5q0 -25 15 -74
q16 -54 31 -65zM450 179q-34 120 -74 194q-1 -2 -1 -9q0 -44 11 -89q10 -79 40 -164q3 -12 14 -28t21 -16q3 4 3 17q0 46 -14 95zM246 98q-3 44 -12 71q-18 51 -30 70q-18 28 -58 52q4 -55 26 -120q28 -83 64 -104q11 9 10 31z" />
    <glyph glyph-name="bar" unicode="|" horiz-adv-x="1412" 
d="M19 631q0 -19 41 -35q79 -31 124 -42q60 -14 133 -14q60 0 174 22q19 4 89 33q12 -1 62 -45t57 -58q-42 19 -74 23q-13 2 -62 0q-171 -6 -171 -148q0 -71 45 -139q29 -39 85 -117q45 -64 45 -125q0 -18 -21 -18q-5 0 -13.5 2.5t-12.5 2.5q-22 0 -22 -15q0 -12 13 -15
q15 -17 69 -17q10 0 59 3q38 2 126 40q85 36 120 62q55 41 99.5 120.5t44.5 144.5q0 67 -31 109q-42 56 -88.5 77t-118.5 21q-9 0 -22 -5.5t-15 -5.5q-9 0 -13 4q-5 9 -17 23q-38 47 -95 83q291 55 452 55q47 0 129 -31q92 -35 102 -71l7 1q3 -1 8 -6q1 -2 8 -2q15 0 15 21
q0 7 -4 16q-51 59 -142 91q-81 28 -169 28q-167 0 -496 -73q-74 28 -142 37q-53 7 -147 7q-53 0 -128 -10q-103 -14 -103 -34zM92 618q17 20 266 20q19 0 48 -5l47 -8q36 -5 36 -10q0 -4 -12 -8q-55 -19 -179 -19q-131 0 -206 30zM448 365q0 108 170 108q30 0 59 -10
q39 -13 41 -36q10 -18 20 -18q11 0 8 17q7 4 16 16t16 15q14 6 46 6q51 0 94.5 -44.5t43.5 -96.5q0 -135 -102 -241q-26 -27 -125 -70t-135 -43q15 42 15 50q0 31 -83.5 164t-83.5 183z" />
    <glyph glyph-name="braceright" unicode="}" horiz-adv-x="2061" 
d="M11 535q0 -52 54 -80q28 -15 99 -31q111 -26 242 -49q23 -2 47 -5q27 -6 27 -31q0 -8 -3.5 -21.5t-3.5 -20.5q0 -25 32 -46t32 -40q0 -12 -6 -39.5t-6 -39.5q0 -17 20.5 -27.5t22.5 -12.5q8 -6 9 -21.5t11 -28.5q38 -51 169 -51q56 0 101 12l153 39q97 27 138 62
q5 -23 5 -26q0 -63 44 -63q31 0 59 55q18 37 29 82q13 55 13 102q0 74 -22 151q-9 31 -9 34q0 20 39 72.5t57 52.5q24 0 41 -50q14 -41 14 -73q0 -3 -30 -76q-32 -78 -38 -107q-22 -108 -22 -154q0 -24 7 -47q10 -32 28 -32q19 0 40 31q17 24 24 48q23 71 28 151q2 29 2 154
q0 23 44 90q48 73 77 71q27 -2 45 -139q-26 -24 -68 -142q-46 -130 -46 -217q0 -47 29 -47q19 0 36 18q70 73 83 309q2 34 6 61q8 30 61 91t80 63q63 6 63 -121q0 -18 -3 -67q-2 -33 -1 -49q0 -5 -48 -31q-88 -70 -88 -224q0 -16 12 -32.5t27 -16.5q27 0 75 95q28 54 49 165
q-1 8 6 21q9 8 46 8q7 0 20.5 -2t20.5 -2q11 -2 11 12q0 13 -12 15q-21 8 -41 8q-33 0 -45 -8q0 -4 2 32.5t2 76.5v30q0 131 -86 131q-43 0 -89 -51q-33 -44 -66 -87l-5 6q-11 66 -17 84q-18 53 -56 53q-37 0 -76 -50l-57 -78q-7 22 -22 65q-21 60 -58 60q-33 0 -72 -49
q-32 -40 -45 -79q-5 1 -17 22q-91 159 -366 159q-37 0 -110.5 -2.5t-110.5 -2.5q-34 0 -133 11q-14 -1 -42 0q-21 1 -24 -8v-18q0 -11 12.5 -29.5t13.5 -23.5h-18q-28 0 -83 2.5t-83 2.5q-7 0 -72 -3q-36 -2 -137 -11q-29 -4 -46 -11q-25 -11 -25 -35zM68 526q4 21 106 28
q83 6 123 3l414 -31q29 -2 87 -14q33 -7 41 -11.5t33 -29.5q10 -10 18 -16q7 2 7 6.5t2 4.5t0 6q-3 9 -3 10q0 28 -52 53q-43 21 -78 23l-204 13q-16 1 -34 20t-18 35q50 -7 93 -7t129 3.5t129 3.5q139 0 245 -48q76 -34 122 -149q-60 -102 -78 -228q-1 -24 -7 -57
q-15 -24 -127 -58q-104 -31 -145 -33q-6 -4 -39 -9q-29 -4 -42 -4q-163 0 -163 28q0 8 -5.5 26.5t-5.5 27.5q0 5 -18.5 11.5t-18.5 24.5q0 12 2 35t2 35q0 19 -32 42.5t-32 36.5q0 11 5.5 31.5t5.5 31.5q0 33 -55 42q-27 4 -82 12q-85 14 -197 38l-76 18q-51 17 -52 46z
M1206 281q21 66 37 96q5 -12 11 -62q7 -55 5 -82q-4 -71 -28 -134q-16 -26 -29 -32q-17 0 -24 56q6 21 12 74q5 49 16 84zM1365 144q0 30 23.5 120t37.5 111q3 -11 3 -28q0 -24 -7.5 -71t-7.5 -68q0 -27 -14 -74q-15 -53 -32 -65zM1555 179q33 116 75 194q1 -2 1 -9
q0 -39 -12 -89q-11 -83 -39 -164q-3 -12 -14 -28t-21 -16q-3 4 -3 17q0 49 13 95zM1760 98q3 44 12 71q19 54 29 70q17 26 58 52q-3 -51 -26 -120q-28 -84 -63 -104q-11 9 -10 31z" />
    <glyph glyph-name="asciitilde" unicode="~" horiz-adv-x="549" 
d="M75 335q47 55 125 72q31 -4 90 -30.5t87 -26.5q8 0 45 13q33 12 46 19q4 2 7 2q15 0 15 -15q0 -9 -8 -13q-85 -46 -105 -46q-35 0 -90 25q-62 27 -85 31q-43 -9 -57 -15q-27 -11 -48 -36q-4 -5 -11 -5q-15 0 -15 15q0 5 4 10z" />
    <glyph glyph-name="Adieresis" unicode="&#xc4;" horiz-adv-x="1277" 
d="M1232 87l-3 -2q1 -19 1 -34q0 -37 -8 -50l-17 -7l-21 11q-3 3 -4 105q-1 103 3 114q-55 77 -167 77q-19 0 -64 -2q-41 -1 -64 -1q-125 2 -255 -13q-170 -20 -243 -64q-27 -16 -193 -149q-156 -125 -167 -125q-9 0 -16.5 9.5t-7.5 19.5q0 7 11.5 31.5t16.5 30.5
q118 130 138 144q15 11 177 86q25 12 62 45q44 39 62 51q485 306 644 306q125 0 125 -263q0 -34 -5 -102.5t-5 -102.5l-1 1zM1185 353q0 42 -2 92l-4 93q-2 4 -2 26q0 4 -15 24q-11 14 -17 23q-35 16 -55 16q-61 0 -306 -130q-239 -127 -286 -179q3 -2 40 -2
q67 0 199.5 13.5t199.5 13.5q156 0 237 -34l9 8q2 11 2 36zM1050 765q0 15 12 24.5t27 9.5t27 -9.5t12 -24.5t-11.5 -25t-27.5 -10t-27.5 10t-11.5 25zM890 765q0 15 12 24.5t27 9.5t27 -9.5t12 -24.5t-11.5 -25t-27.5 -10t-27.5 10t-11.5 25z" />
    <glyph glyph-name="Aring" unicode="&#xc5;" horiz-adv-x="1277" 
d="M1232 87l-3 -2q1 -19 1 -34q0 -37 -8 -50l-17 -7l-21 11q-3 3 -4 105q-1 103 3 114q-55 77 -167 77q-19 0 -64 -2q-41 -1 -64 -1q-125 2 -255 -13q-170 -20 -243 -64q-27 -16 -193 -149q-156 -125 -167 -125q-9 0 -16.5 9.5t-7.5 19.5q0 7 11.5 31.5t16.5 30.5
q118 130 138 144q15 11 177 86q25 12 62 45q44 39 62 51q485 306 644 306q125 0 125 -263q0 -34 -5 -102.5t-5 -102.5l-1 1zM1185 353q0 42 -2 92l-4 93q-2 4 -2 26q0 4 -15 24q-11 14 -17 23q-35 16 -55 16q-61 0 -306 -130q-239 -127 -286 -179q3 -2 40 -2
q67 0 199.5 13.5t199.5 13.5q156 0 237 -34l9 8q2 11 2 36zM784 755l-3 3q16 12 80 51q69 42 77 42q9 0 74 -45q60 -42 75 -55l-3 -8h2l-1 -1l-1 10q16 -4 16 -22q0 -22 -22 -22q-8 0 -69 40q-56 37 -68 48l-4 3l-5 -3q-13 -11 -71 -45q-63 -37 -72 -37q-21 0 -21 19
q0 14 16 22z" />
    <glyph glyph-name="Ccedilla" unicode="&#xc7;" horiz-adv-x="1347" 
d="M1347 118q-28 -41 -286 -80q-205 -31 -385 -41q1 -6 -1.5 -16t-2.5 -13q20 -2 29 -9q15 -12 25 -17q26 -39 26 -48l-3 -11q0 -11 -9 -30h1q-12 -27 -45 -45t-64 -18q-35 0 -62 16q-33 19 -33 51q0 25 13 25q10 0 30 -34q37 -14 56 -14t41.5 11.5t22.5 28.5q0 23 -1 21
q-3 8 -9 19q-40 23 -69 25q0 4 3 11.5t3 11.5q0 22 4 33h-22q-226 4 -340 22q-260 42 -260 162q0 98 221 222q182 102 445 188q246 80 347 80q33 0 56 -11q31 -14 31 -43q0 -56 -146 -138q-96 -54 -257 -114q-190 -70 -265 -65l-28 2l-21 31l5 18q48 42 206 73
q221 43 271 59q145 46 186 131q5 6 -14 11q-14 3 -24 3q-89 0 -319 -75q-249 -81 -423 -173q-213 -112 -227 -197l2 -1l7 -32q59 -54 181 -82q99 -23 201 -23h163q141 0 357 27q248 31 353 73q29 -4 30 -25z" />
    <glyph glyph-name="Eacute" unicode="&#xc9;" horiz-adv-x="1056" 
d="M1043 89l-1 -15q-67 -29 -309 -72q-237 -42 -319 -42q-74 0 -139 22q-89 30 -89 88q0 52 52 113q46 54 99 80q-29 10 -120.5 14t-131.5 16q-66 21 -66 69q0 26 12 55q24 57 200 136q147 66 339 122q182 53 245 53q17 0 27.5 -13t10.5 -30q0 -7 -6 -16q-80 -55 -165 -95
q-111 -52 -178 -52q-32 0 -32 17q0 11 16 50q-177 -50 -240 -77q-158 -67 -173 -156q82 -40 210 -40h121q19 8 69 8q25 0 72 18t71 18q25 0 25 -33q0 -15 -46 -24q-113 -22 -214 -71q-141 -68 -141 -148q0 -63 204 -63q91 0 265 25q47 13 143 29q30 2 87 24t79 22
q25 0 23 -32zM297 676q-21 0 -21 21q0 14 14 20q178 35 350 141q4 1 9 1q21 0 21 -21q0 -13 -13 -19q-83 -58 -168 -91q-30 -11 -98 -31q-76 -21 -94 -21z" />
    <glyph glyph-name="Ntilde" unicode="&#xd1;" horiz-adv-x="1232" 
d="M1060 384q-8 -136 -33 -235q-43 -171 -122 -166l-8 -4h-53q-63 0 -251 136q-144 104 -239 190q-2 2 -111 114q-68 70 -120 101q-30 -27 -26 -184l-5 -12q0 -111 -12 -158l-12 -93q-10 -72 -28 -72q-31 0 -31 21q0 46 15.5 136.5t15.5 136.5q0 33 5.5 100t5.5 100
q0 26 -7 76.5t-7 76.5q0 8 6.5 15.5t14.5 7.5q21 0 52 -35q14 -18 44 -52q143 -157 342 -327q267 -228 372 -228q15 0 29 5q37 13 56 53q37 78 55 293q15 172 23 220q-3 7 -3 14q0 24 19.5 46.5t43.5 22.5q38 0 38 -51q0 -232 -69 -248zM478 810q21 0 98.5 -36.5
t136.5 -36.5q32 0 71 25.5t38 25.5q18 0 18 -18q0 -27 -52 -58q-48 -28 -78 -28q-59 0 -141 35t-91 35q-29 0 -73.5 -18.5l-44.5 -18.5q-18 0 -18 18q0 21 57 49q53 26 79 26z" />
    <glyph glyph-name="Odieresis" unicode="&#xd6;" horiz-adv-x="1336" 
d="M1281 359q0 -13 -17 -48q-77 -159 -301 -253q-194 -81 -398 -81q-197 0 -345 57q-207 80 -207 245q0 133 180 252q143 95 303 131q2 1 12 1q33 0 33 -26q0 -15 -34 -22q-43 -9 -57 -24q211 40 395 40q138 0 267 -50q169 -66 169 -180v-42zM868 585h-134q-169 0 -338 -67
q-192 -76 -270 -202q-17 -27 -17 -65q0 -131 171 -187q115 -38 281 -38q101 0 218.5 26.5t207.5 70.5t156 103q89 80 89 156q0 102 -138 159q-106 44 -226 44zM730 765q0 15 12 24.5t27 9.5t27 -9.5t12 -24.5t-11.5 -25t-27.5 -10t-27.5 10t-11.5 25zM530 765q0 15 12 24.5
t27 9.5t27 -9.5t12 -24.5t-11.5 -25t-27.5 -10t-27.5 10t-11.5 25z" />
    <glyph glyph-name="Udieresis" unicode="&#xdc;" horiz-adv-x="1264" 
d="M1157 690q31 -29 31 -69q0 -38 -32 -100q-44 -86 -49 -97q-2 -21 -9 -69q-29 -207 -32 -349q-14 -17 -33 -17q-11 0 -19.5 9t-8.5 20q2 54 17 158.5t17 156.5q-51 -45 -179 -151q-44 -35 -152 -90q-91 -47 -163 -69q-180 -55 -256 -55q-130 0 -195 80q-55 68 -62 195
q1 6 1 21v46q-36 24 -36 76q0 23 9 63q11 50 12 57q2 23 5 69q9 116 87 108q21 -2 21 -32l-7 -51q-3 -20 -37 -286v-89q0 -76 50 -137q52 -65 127 -65h49q-4 0 10 3q6 -1 18 -1q24 4 57 12q27 6 96 25q6 2 105 44q189 81 308 186l85 76q48 49 64 94q3 18 19 106
q17 95 29.5 111.5t36.5 16.5q11 0 16 -6zM660 765q0 15 12 24.5t27 9.5t27 -9.5t12 -24.5t-11.5 -25t-27.5 -10t-27.5 10t-11.5 25zM440 765q0 15 12 24.5t27 9.5t27 -9.5t12 -24.5t-11.5 -25t-27.5 -10t-27.5 10t-11.5 25z" />
    <glyph glyph-name="aacute" unicode="&#xe1;" horiz-adv-x="881" 
d="M875 57q-55 -35 -142.5 -60t-154.5 -25q-28 0 -68 35q-20 18 -60 53q-116 -37 -145 -44q-71 -17 -152 -17q-29 0 -82 12q-65 15 -65 33v33q49 52 260 109q195 53 285 53q49 0 49 -22q0 -60 -240 -60q-38 0 -162 -38q-130 -40 -131 -59q6 -4 32.5 -10t36.5 -6h88
q40 0 119 33t106 33q19 0 64.5 -46t74.5 -46q50 0 138 30q97 33 137 37zM252 248q-4 -1 -7 -1q-17 0 -17 18q0 11 11 16q135 27 265 109q4 2 8 2q17 0 17 -18q0 -11 -10 -16q-101 -73 -267 -110z" />
    <glyph glyph-name="agrave" unicode="&#xe0;" horiz-adv-x="881" 
d="M875 57q-55 -35 -142.5 -60t-154.5 -25q-28 0 -68 35q-20 18 -60 53q-116 -37 -145 -44q-71 -17 -152 -17q-29 0 -82 12q-65 15 -65 33v33q49 52 260 109q195 53 285 53q49 0 49 -22q0 -60 -240 -60q-38 0 -162 -38q-130 -40 -131 -59q6 -4 32.5 -10t36.5 -6h88
q40 0 119 33t106 33q19 0 64.5 -46t74.5 -46q50 0 138 30q97 33 137 37zM433 278q-7 -16 -23 -10q-73 16 -114 37q-32 16 -101 67q-11 5 -11 18q0 22 17 22q3 0 7 -2l103 -65q60 -34 112 -44q16 -7 10 -23z" />
    <glyph glyph-name="acircumflex" unicode="&#xe2;" horiz-adv-x="881" 
d="M875 57q-55 -35 -142.5 -60t-154.5 -25q-28 0 -68 35q-20 18 -60 53q-116 -37 -145 -44q-71 -17 -152 -17q-29 0 -82 12q-65 15 -65 33v33q49 52 260 109q195 53 285 53q49 0 49 -22q0 -60 -240 -60q-38 0 -162 -38q-130 -40 -131 -59q6 -4 32.5 -10t36.5 -6h88
q40 0 119 33t106 33q19 0 64.5 -46t74.5 -46q50 0 138 30q97 33 137 37zM277 346l-8 -6q-108 -81 -110 -81q-17 0 -17 17q0 18 17 18q-1 -1 -2 -1q-2 0 -3 1q3 2 64 51q51 41 60 41t57 -44l59 -54q0 -1 -1 -1q12 -3 12 -17q0 -17 -17 -17q-9 0 -52 39q-17 16 -52 48z" />
    <glyph glyph-name="adieresis" unicode="&#xe4;" horiz-adv-x="881" 
d="M875 57q-55 -35 -142.5 -60t-154.5 -25q-28 0 -68 35q-20 18 -60 53q-116 -37 -145 -44q-71 -17 -152 -17q-29 0 -82 12q-65 15 -65 33v33q49 52 260 109q195 53 285 53q49 0 49 -22q0 -60 -240 -60q-38 0 -162 -38q-130 -40 -131 -59q6 -4 32.5 -10t36.5 -6h88
q40 0 119 33t106 33q19 0 64.5 -46t74.5 -46q50 0 138 30q97 33 137 37zM469 295q-18 0 -31 11.5t-13 28.5t13.5 28t30.5 11t30.5 -11t13.5 -28t-13 -28.5t-31 -11.5zM309 295q-18 0 -31 11.5t-13 28.5t13.5 28t30.5 11t30.5 -11t13.5 -28t-13 -28.5t-31 -11.5z" />
    <glyph glyph-name="atilde" unicode="&#xe3;" horiz-adv-x="881" 
d="M875 57q-55 -35 -142.5 -60t-154.5 -25q-28 0 -68 35q-20 18 -60 53q-116 -37 -145 -44q-71 -17 -152 -17q-29 0 -82 12q-65 15 -65 33v33q49 52 260 109q195 53 285 53q49 0 49 -22q0 -60 -240 -60q-38 0 -162 -38q-130 -40 -131 -59q6 -4 32.5 -10t36.5 -6h88
q40 0 119 33t106 33q19 0 64.5 -46t74.5 -46q50 0 138 30q97 33 137 37zM145 315q47 55 125 72q31 -4 90 -30.5t87 -26.5q8 0 45 13q33 12 46 19q4 2 7 2q15 0 15 -15q0 -9 -8 -13q-85 -46 -105 -46q-35 0 -90 25q-62 27 -85 31q-43 -9 -57 -15q-27 -11 -48 -36
q-4 -5 -11 -5q-15 0 -15 15q0 5 4 10z" />
    <glyph glyph-name="aring" unicode="&#xe5;" horiz-adv-x="881" 
d="M875 57q-55 -35 -142.5 -60t-154.5 -25q-28 0 -68 35q-20 18 -60 53q-116 -37 -145 -44q-71 -17 -152 -17q-29 0 -82 12q-65 15 -65 33v33q49 52 260 109q195 53 285 53q49 0 49 -22q0 -60 -240 -60q-38 0 -162 -38q-130 -40 -131 -59q6 -4 32.5 -10t36.5 -6h88
q40 0 119 33t106 33q19 0 64.5 -46t74.5 -46q50 0 138 30q97 33 137 37zM349 431q33 0 56.5 -23.5t23.5 -56.5q0 -34 -23 -57.5t-57 -23.5t-57.5 23.5t-23.5 57.5t23.5 57t57.5 23zM349 401q-21 0 -36 -14.5t-15 -35.5t15 -36t36 -15t35.5 15t14.5 36q0 20 -15 35t-35 15z
" />
    <glyph glyph-name="ccedilla" unicode="&#xe7;" horiz-adv-x="797" 
d="M390 -30q18 -10 37 -19q18 -13 18 -37q0 -26 -14 -50q-17 -29 -41 -29h-18q-20 0 -36 17q-5 5 -23 32q-3 4 -3 9q0 15 15 15q8 0 12 -6q24 -35 37 -35h9l12 2q3 1 8.5 12t5.5 24q0 23 -20 32q-3 1 -10 4q-5 0 -25 1l11 57q-38 -2 -59 -2q-94 0 -165 11q-136 21 -138 76
q-2 70 266 112q187 29 338 29q10 0 30 -16t20 -26q0 -43 -183 -43q-7 0 -18.5 14.5t-20.5 14.5q-65 0 -206 -23q-176 -29 -176 -62q0 -12 33 -18q15 -1 43 -5q84 -17 215 -17q70 0 208 20.5t207 20.5q28 0 28 -18q0 -51 -393 -67q2 -4 1 -8z" />
    <glyph glyph-name="eacute" unicode="&#xe9;" horiz-adv-x="690" 
d="M685 66q-71 -34 -195 -57q-115 -22 -203 -22h-114q-52 0 -101 22q-61 27 -61 70q0 73 178 112q127 28 247 28q84 0 90 -41q-24 -60 -188 -85q-104 -16 -234 -16q-28 0 -48 -8q13 -19 55 -31q35 -11 64 -11l121 1q59 0 133 14l132 24q10 2 55 19q37 14 52 14q18 0 17 -33z
M471 181q-30 6 -34 6h-38q-43 0 -159 -24q-132 -27 -156 -53q89 -1 219 16q167 22 168 55zM205 249q-15 0 -15 16q0 9 10 13q41 8 135 63q83 48 137 48q15 0 15 -15q0 -9 -9 -13q-52 -38 -131 -73q-90 -39 -142 -39z" />
    <glyph glyph-name="egrave" unicode="&#xe8;" horiz-adv-x="690" 
d="M685 66q-71 -34 -195 -57q-115 -22 -203 -22h-114q-52 0 -101 22q-61 27 -61 70q0 73 178 112q127 28 247 28q84 0 90 -41q-24 -60 -188 -85q-104 -16 -234 -16q-28 0 -48 -8q13 -19 55 -31q34 -11 64 -11h125q60 0 136 15q45 9 134 27q12 2 50 17q33 13 48 13
q18 0 17 -33zM471 181q-30 6 -34 6h-38q-43 0 -159 -24q-132 -27 -156 -53q89 -1 219 16q167 22 168 55zM411 270q-61 10 -114 37q-28 14 -100 67q-10 4 -10 17q0 18 14 18q3 0 5 -1l104 -65q60 -34 112 -45q10 -4 10 -13q0 -16 -15 -16q-3 0 -6 1z" />
    <glyph glyph-name="ecircumflex" unicode="&#xea;" horiz-adv-x="690" 
d="M394 288q0 -1 -1 -1q12 -3 12 -17q0 -17 -17 -17q-9 0 -52 39q-17 16 -52 48l-7 6l-12 -8l-53 -43q-45 -36 -53 -36q-28 0 -28 17q0 6 11 6l12 12q3 2 64 51q51 41 60 41t57 -44zM688 64q-70 -33 -196 -57q-119 -23 -205 -23h-114q-51 0 -102 23q-63 28 -63 72
q0 75 181 115q126 28 247 28q87 0 92 -44q-23 -62 -191 -90q-112 -19 -235 -19q-3 0 -21 1q-13 1 -21 -2q12 -17 53 -29q35 -10 62 -10h125q57 0 135 13l134 24q15 3 51 20q33 16 48 16q21 0 20 -38zM458 184q-9 1 -14 1h-38q-39 0 -161 -27q-132 -29 -153 -52q75 -1 215 20
q167 25 168 54q-3 1 -17 4z" />
    <glyph glyph-name="edieresis" unicode="&#xeb;" horiz-adv-x="690" 
d="M685 66q-71 -34 -195 -57q-115 -22 -203 -22h-114q-52 0 -101 22q-61 27 -61 70q0 73 178 112q127 28 247 28q84 0 90 -41q-24 -60 -188 -85q-104 -16 -234 -16q-28 0 -48 -8q13 -19 55 -31q34 -11 64 -11h125q78 0 270 36q12 2 51 20q34 16 47 16q18 0 17 -33zM471 181
q-30 6 -34 6h-38q-43 0 -159 -24q-132 -27 -156 -53q89 -1 219 16q167 22 168 55zM419 288q-17 0 -29 10.5t-12 26.5t12.5 26.5t28.5 10.5t29 -10.5t13 -26.5t-12.5 -26.5t-29.5 -10.5zM259 288q-17 0 -29 10.5t-12 26.5t12.5 26.5t28.5 10.5t29 -10.5t13 -26.5t-12.5 -26.5
t-29.5 -10.5z" />
    <glyph glyph-name="iacute" unicode="&#xed;" horiz-adv-x="403" 
d="M405 79q0 -23 -123 -46q-106 -20 -151 -20q-124 0 -124 83q0 44 4 59q9 33 41 33q20 0 20 -18q0 -14 -8.5 -41.5t-8.5 -41.5q0 -34 83 -34q43 0 128 20t128 20q11 0 11 -14zM12 248q-4 -1 -7 -1q-17 0 -17 18q0 11 11 16q51 9 107 45q33 21 98 64q4 2 8 2q17 0 17 -18
q0 -11 -10 -16l-95 -69q-44 -26 -112 -41z" />
    <glyph glyph-name="igrave" unicode="&#xec;" horiz-adv-x="403" 
d="M405 79q0 -23 -123 -46q-106 -20 -151 -20q-124 0 -124 83q0 44 4 59q9 33 41 33q20 0 20 -18q0 -14 -8.5 -41.5t-8.5 -41.5q0 -34 83 -34q43 0 128 20t128 20q11 0 11 -14zM153 268q-7 -16 -23 -10q-43 9 -57.5 17t-43.5 39q-18 19 -44 38q-11 5 -11 18q0 22 17 22
q3 0 7 -2q9 -5 68 -57q40 -35 77 -42q16 -7 10 -23z" />
    <glyph glyph-name="icircumflex" unicode="&#xee;" horiz-adv-x="403" 
d="M394 93q11 0 11 -14q0 -23 -123 -46q-106 -20 -151 -20q-124 0 -124 83q0 44 4 59q9 33 41 33q20 0 20 -18q0 -14 -8.5 -41.5t-8.5 -41.5q0 -34 83 -34q43 0 128 20t128 20zM77 316l-8 -6q-68 -51 -80 -51q-17 0 -17 17q0 18 17 18q-1 -1 -2 -1q-2 0 -3 1q83 62 94 62
q9 0 42 -29l44 -39q0 -1 -1 -1q12 -3 12 -17q0 -17 -17 -17q-8 0 -74 57z" />
    <glyph glyph-name="idieresis" unicode="&#xef;" horiz-adv-x="403" 
d="M394 93q11 0 11 -14q0 -23 -123 -46q-106 -20 -151 -20q-124 0 -124 83q0 44 4 59q9 33 41 33q20 0 20 -18q0 -14 -8.5 -41.5t-8.5 -41.5q0 -34 83 -34q43 0 128 20t128 20zM90 335q0 15 12 24.5t27 9.5t27 -9.5t12 -24.5t-11.5 -25t-27.5 -10t-27.5 10t-11.5 25z
M-30 335q0 15 12 24.5t27 9.5t27 -9.5t12 -24.5t-11.5 -25t-27.5 -10t-27.5 10t-11.5 25z" />
    <glyph glyph-name="ntilde" unicode="&#xf1;" horiz-adv-x="820" 
d="M824 68q-29 -25 -115.5 -55t-126.5 -30q-47 0 -100 48q-25 23 -79 89q-39 48 -52 48q-33 0 -161 -79t-158 -79q-19 0 -23 32v47q0 117 32 117l24 -10l2 -13q0 -11 -4.5 -32.5t-4.5 -32.5v-43q5 2 148 84q106 61 145 61t79 -48q23 -30 71 -89q41 -48 83 -48q36 0 112.5 33
t101.5 33q26 0 26 -33zM115 315q47 55 125 72q31 -4 90 -30.5t87 -26.5q8 0 45 13q33 12 46 19q4 2 7 2q15 0 15 -15q0 -9 -8 -13q-85 -46 -105 -46q-35 0 -90 25q-62 27 -85 31q-43 -9 -57 -15q-27 -11 -48 -36q-4 -5 -11 -5q-15 0 -15 15q0 5 4 10z" />
    <glyph glyph-name="oacute" unicode="&#xf3;" horiz-adv-x="952" 
d="M708 102q1 1 2 0h-2zM960 93l-50 -38l-23 -2q-26 -2 -81 3q-63 6 -84 6q-34 0 -54 -6l-153 -48q-92 -28 -162 -28q-351 0 -349 84l1 38q131 143 622 143l67 -20l-4 -32l-163 2q-121 1 -249 -24q-160 -32 -226 -89l21 -26q77 -26 244 -26q138 0 238 35l-82 39q-6 9 -6 17
q0 30 51 35l34 3q40 4 85 -10q51 -15 71 -44l2 -2q0 1 1 2q21 0 63 1h64q82 0 122 -13zM710 102q1 1 0 1v-1zM710 102zM252 248q-4 -1 -7 -1q-17 0 -17 18q0 11 11 16q135 27 265 109q4 2 8 2q17 0 17 -18q0 -11 -10 -16q-101 -73 -267 -110z" />
    <glyph glyph-name="ograve" unicode="&#xf2;" horiz-adv-x="952" 
d="M708 102zM710 102zM960 93q-6 -34 -50 -38l-23 -2q-26 -2 -81 3q-63 6 -84 6q-34 0 -54 -6l-153 -48q-92 -28 -162 -28q-351 0 -349 84l1 38q129 141 619 141q42 0 72 -9q9 -8 9 -16q0 -10 -15 -25l-163 2q-121 1 -249 -24q-160 -32 -226 -89l21 -26q77 -26 244 -26
q138 0 238 35l-77 44q-5 12 -5 22q0 26 32 26q6 0 13 -1l34 3q40 4 85 -10q51 -15 71 -44q0 -2 2 -2q0 1 1 2q21 0 63 1h64q82 0 122 -13zM710 102q1 1 0 1v-1zM710 102zM473 278q-7 -16 -23 -10q-73 16 -114 37q-32 16 -101 67q-11 5 -11 18q0 22 17 22q3 0 7 -2l103 -65
q60 -34 112 -44q16 -7 10 -23z" />
    <glyph glyph-name="ocircumflex" unicode="&#xf4;" horiz-adv-x="952" 
d="M710 102q1 1 0 1v-1zM708 102zM710 102zM708 102h2l-2 1v-1zM960 93l-25 -35l-48 -5q-10 -1 -25 -1q-24 0 -71 5t-71 5q-32 0 -52 -6l-153 -48q-92 -28 -162 -28q-351 0 -349 84l1 38q131 143 622 143l67 -20l-4 -32l-163 2q-121 1 -249 -24q-160 -32 -226 -89l21 -26
q77 -26 244 -26q138 0 238 35l-82 39q-7 11 -7 21q0 35 52 31l34 3q40 4 85 -10q51 -15 71 -44v-2h2q0 1 1 2q21 0 63 1h64q82 0 122 -13zM367 376l-8 -6q-108 -81 -110 -81q-17 0 -17 17q0 18 17 18q-1 -1 -2 -1q-2 0 -3 1q3 2 64 51q51 41 60 41t57 -44l59 -54q0 -1 -1 -1
q12 -3 12 -17q0 -17 -17 -17q-9 0 -52 39q-17 16 -52 48z" />
    <glyph glyph-name="odieresis" unicode="&#xf6;" horiz-adv-x="952" 
d="M710 102q1 1 0 1v-1zM708 102zM710 102zM708 102h2l-2 1v-1zM960 93l-50 -38l-23 -2q-26 -2 -81 3q-63 6 -84 6q-34 0 -54 -6l-153 -48q-92 -28 -162 -28q-351 0 -349 84l1 38q131 143 622 143l67 -20l-4 -32l-163 2q-121 1 -249 -24q-160 -32 -226 -89l21 -26
q77 -26 244 -26q138 0 238 35l-82 39q-7 12 -7 21q0 34 52 31l34 3q40 4 85 -10q51 -15 71 -44v-2h2q0 1 1 2q21 0 63 1h64q82 0 122 -13zM430 335q0 15 12 24.5t27 9.5t27 -9.5t12 -24.5t-11.5 -25t-27.5 -10t-27.5 10t-11.5 25zM270 335q0 15 12 24.5t27 9.5t27 -9.5
t12 -24.5t-11.5 -25t-27.5 -10t-27.5 10t-11.5 25z" />
    <glyph glyph-name="otilde" unicode="&#xf5;" horiz-adv-x="952" 
d="M710 102q1 1 0 1v-1zM708 102zM710 102zM708 102h2l-2 1v-1zM960 93l-50 -38l-23 -2q-26 -2 -81 3q-63 6 -84 6q-34 0 -54 -6l-153 -48q-92 -28 -162 -28q-351 0 -349 84l1 38q131 143 622 143l67 -20l-4 -32l-163 2q-121 1 -249 -24q-160 -32 -226 -89l21 -26
q77 -26 244 -26q138 0 238 35l-82 39l45 52l34 3q40 4 85 -10q51 -15 71 -44v-2h2q0 1 1 2q21 0 63 1h64q82 0 122 -13zM175 335q47 55 125 72q31 -4 90 -30.5t87 -26.5q8 0 45 13q33 12 46 19q4 2 7 2q15 0 15 -15q0 -9 -8 -13q-85 -46 -105 -46q-35 0 -90 25
q-62 27 -85 31q-43 -9 -57 -15q-27 -11 -48 -36q-4 -5 -11 -5q-15 0 -15 15q0 5 4 10z" />
    <glyph glyph-name="uacute" unicode="&#xfa;" horiz-adv-x="837" 
d="M836 81q-5 -26 -115 -67q-103 -38 -143 -38q-101 0 -135 125q-13 49 -17 53q-45 -12 -108 -52q-89 -56 -107 -65q-64 -32 -123 -32q-77 0 -77 88v43q0 31 4 41q7 19 34 19q18 0 18 -25q0 -9 -3.5 -25.5t-3.5 -24.5v-40q0 -29 27 -29q51 0 128 45q60 37 119 73
q92 54 118 54q24 0 32 -51q13 -80 19 -95q21 -51 76 -51q41 0 127.5 36.5t99.5 36.5q21 0 30 -19zM252 248q-4 -1 -7 -1q-17 0 -17 18q0 11 11 16q135 27 265 109q4 2 8 2q17 0 17 -18q0 -11 -10 -16q-101 -73 -267 -110z" />
    <glyph glyph-name="ugrave" unicode="&#xf9;" horiz-adv-x="837" 
d="M836 81q-5 -26 -115 -67q-103 -38 -143 -38q-101 0 -135 125q-13 49 -17 53q-45 -12 -108 -52q-89 -56 -107 -65q-64 -32 -123 -32q-77 0 -77 88v43q0 31 4 41q7 19 34 19q18 0 18 -25q0 -9 -3.5 -25.5t-3.5 -24.5v-40q0 -29 27 -29q51 0 128 45q60 37 119 73
q92 54 118 54q24 0 32 -51q13 -80 19 -95q21 -51 76 -51q41 0 127.5 36.5t99.5 36.5q21 0 30 -19zM353 278q-7 -16 -23 -10q-73 16 -114 37q-32 16 -101 67q-11 5 -11 18q0 22 17 22q3 0 7 -2l103 -65q60 -34 112 -44q16 -7 10 -23z" />
    <glyph glyph-name="ucircumflex" unicode="&#xfb;" horiz-adv-x="837" 
d="M836 81q-5 -26 -115 -67q-103 -38 -143 -38q-101 0 -135 125q-13 49 -17 53q-45 -12 -108 -52q-89 -56 -107 -65q-64 -32 -123 -32q-77 0 -77 88v43q0 31 4 41q7 19 34 19q18 0 18 -25q0 -9 -3.5 -25.5t-3.5 -24.5v-40q0 -29 27 -29q51 0 128 45q60 37 119 73
q92 54 118 54q24 0 32 -51q13 -80 19 -95q21 -51 76 -51q41 0 127.5 36.5t99.5 36.5q21 0 30 -19zM247 346l-8 -6q-108 -81 -110 -81q-17 0 -17 17q0 18 17 18q-1 -1 -2 -1q-2 0 -3 1q3 2 64 51q51 41 60 41t57 -44l59 -54q0 -1 -1 -1q12 -3 12 -17q0 -17 -17 -17
q-9 0 -52 39q-17 16 -52 48z" />
    <glyph glyph-name="udieresis" unicode="&#xfc;" horiz-adv-x="837" 
d="M836 81q-5 -26 -115 -67q-103 -38 -143 -38q-101 0 -135 125q-13 49 -17 53q-45 -12 -108 -52q-89 -56 -107 -65q-64 -32 -123 -32q-77 0 -77 88v43q0 31 4 41q7 19 34 19q18 0 18 -25q0 -9 -3.5 -25.5t-3.5 -24.5v-40q0 -29 27 -29q51 0 128 45q60 37 119 73
q92 54 118 54q24 0 32 -51q13 -80 19 -95q21 -51 76 -51q41 0 127.5 36.5t99.5 36.5q21 0 30 -19zM310 335q0 15 12 24.5t27 9.5t27 -9.5t12 -24.5t-11.5 -25t-27.5 -10t-27.5 10t-11.5 25zM150 335q0 15 12 24.5t27 9.5t27 -9.5t12 -24.5t-11.5 -25t-27.5 -10t-27.5 10
t-11.5 25z" />
    <glyph glyph-name="dagger" unicode="&#x2020;" horiz-adv-x="280" 
d="M97 21v437h-77q-25 0 -25 25t25 25h77v147q0 25 25 25t25 -25v-147h77q25 0 25 -25t-25 -25h-77v-437q0 -25 -25 -25t-25 25z" />
    <glyph glyph-name="degree" unicode="&#xb0;" horiz-adv-x="262" 
d="M139 595q33 0 58 -22.5t25 -55.5q0 -34 -24.5 -56.5t-58.5 -22.5t-58.5 22.5t-24.5 56.5q0 33 25 55.5t58 22.5zM139 565q-21 0 -37 -14t-16 -34q0 -21 16 -35t37 -14t37 14t16 35q0 20 -16 34t-37 14z" />
    <glyph glyph-name="cent" unicode="&#xa2;" horiz-adv-x="542" 
d="M307 169v-83q0 -17 -19 -17t-19 14v84h-15q-70 0 -136 13q-97 19 -97 57q0 44 105 81q73 25 143 34v76q5 14 21 14q14 0 17 -15v-71q107 12 172 12q9 0 26 -14t17 -23q0 -21 -63 -31q-38 -6 -80 -6q-8 0 -15 9l-2 4q-7 8 -12 8q-40 0 -152 -25q-129 -29 -129 -53
q0 -5 24 -9q14 -2 29 -4q61 -12 160 -12q38 0 111 15.5t110 15.5q26 0 26 -19q0 -23 -79 -39q-60 -12 -143 -16z" />
    <glyph glyph-name="sterling" unicode="&#xa3;" horiz-adv-x="506" 
d="M306 -15q-73 0 -113 51q-35 -38 -113 -38q-38 0 -49.5 6t-32.5 38q16 57 105 57q22 0 52 -8v8q1 42 -21 83h-89q-17 1 -17 16q0 18 18 18q62 2 80 1q-18 38 -18 73q0 86 53 130q47 39 129 39q42 0 91 -24q58 -28 58 -65q0 -1 -5 -20l-23 -9l-17 10q-19 61 -105 61
q-39 0 -57 -11l-44 -36q-8 -2 -16.5 -26t-6.5 -33l21 -87h91q20 0 20 -17q0 -16 -20 -18q-68 -2 -83 -1q23 -87 21 -110l46 -30q34 -20 47 -20q47 0 78 21q35 23 39 24l17 -15q-10 -34 -56 -53q-37 -15 -80 -15zM89 65q-39 0 -39 -16q0 -21 39 -21q51 0 70 24q-49 13 -70 13
z" />
    <glyph glyph-name="section" unicode="&#xa7;" horiz-adv-x="586" 
d="M305 25q152 72 152 104q0 53 -120 64q-74 4 -222 15q-120 10 -120 58q0 53 120 110q74 35 166 59q-139 5 -158 7q-116 14 -116 58q0 61 200 139q180 70 272 72l17 -16l-8 -25q-23 -12 -138 -41q-123 -31 -177 -53q-88 -35 -89 -72q-3 -6 29 -9q15 -1 109 -6
q125 -6 189 -20q127 -28 127 -91q0 -80 -215 -138q202 -22 202 -95q0 -60 -151 -131q-141 -66 -220 -66q-51 0 -51 27q0 24 79 44q55 14 107 19l16 -12v-1zM412 416q-73 0 -208 -51q-143 -54 -147 -94q5 -22 164 -22q35 0 134 39.5t123 63.5q0 10 3 27q-5 15 -28 26t-41 11z
" />
    <glyph glyph-name="bullet" unicode="&#x2022;" horiz-adv-x="250" 
d="M86 282q0 23 10 43q12 25 33 25t33 -25q10 -20 10 -43t-10 -43q-12 -25 -33 -25t-33 25q-10 20 -10 43z" />
    <glyph glyph-name="paragraph" unicode="&#xb6;" horiz-adv-x="590" 
d="M458 -78v309q-5 -2 -79 -9v-303q-3 -19 -27 -19q-26 0 -26 19v301q-117 5 -209 60q-111 67 -111 175q0 112 122 175q99 50 222 50q56 0 108 -10v8q0 21 27 21q11 0 20.5 -5.5t6.5 -15.5v-756q0 -21 -30 -21q-28 0 -24 21zM462 620q-6 1 -79 11v-364q31 3 79 11v342z
M330 634q-93 -5 -168 -46q-95 -51 -95 -134t94 -139q77 -45 169 -51v370z" />
    <glyph glyph-name="germandbls" unicode="&#xdf;" horiz-adv-x="852" 
d="M840 237q0 -37 -107 -112q-73 -51 -141 -86q63 -36 111 -80q68 -63 68 -115q0 -67 -92 -119q-79 -45 -147 -45q-94 0 -235 28q-171 34 -214 81l-5 18q0 3 10 21q7 7 15 7q5 0 10 -2q58 -43 198 -73q122 -26 212 -26h74q26 0 66 38t50 65q-27 66 -88 122q-59 53 -129 79
q-12 4 -12 14q0 12 18 20q52 22 156 68q84 40 106 87q-5 7 -42 13q-26 4 -47 4h-121q-62 0 -178 -14q-122 -15 -178 -16l-22 -207q-12 -97 -46 -90q-13 -4 -18.5 5t-2.5 22v48q0 33 7.5 98t7.5 98q0 21 -30 21q-10 0 -29 -2t-29 -2q-29 0 -29 19q0 20 3.5 24.5t22.5 6.5
q14 0 42 1.5t42 1.5t22 78q3 32 7 92q21 136 67 225l26 7l24 30q36 10 81 10q41 0 88 -11q67 -16 67 -41q0 -10 -8 -20.5t-17 -10.5q-32 1 -100.5 8t-104.5 7q-15 0 -19 -18q0 -3 -2 -31q-6 -27 -16 -82q-14 -80 -29 -232q53 10 177 19q116 8 178 8h92q85 0 111 -4
q79 -12 79 -55z" />
    <glyph glyph-name="registered" unicode="&#xae;" horiz-adv-x="387" 
d="M173 673q67 0 115.5 -46t48.5 -113t-48.5 -112.5t-115.5 -45.5t-115 46t-48 112t48 112.5t115 46.5zM173 643q-55 0 -94 -37.5t-39 -91.5t39.5 -91t93.5 -37t94 37t40 91t-39.5 91.5t-94.5 37.5zM144 482v-52h-30l-1 177h87q19 0 33.5 -19.5t14.5 -39.5q0 -61 -57 -64
q8 -8 52 -54h-38q-14 19 -45 52q-3 3 -9 1t-7 -1zM198 581l-53 -1l-1 -70q16 -2 52 2q12 12 24 32q-1 31 -22 37z" />
    <glyph glyph-name="copyright" unicode="&#xa9;" horiz-adv-x="644" 
d="M333 -73q-117 0 -197.5 84.5t-80.5 202.5t80.5 202t197.5 84t197.5 -84t80.5 -202t-80.5 -202.5t-197.5 -84.5zM333 466q-103 0 -173.5 -74t-70.5 -178t70.5 -178.5t173.5 -74.5t173.5 74.5t70.5 178.5t-70.5 178t-173.5 74zM337 41q-68 0 -113 52t-45 121q0 68 44 119
t111 51q69 0 121 -57l-26 -26q-42 46 -95 46q-52 0 -85.5 -40t-33.5 -93t34 -93q36 -43 88 -43t93 52l27 -26q-51 -63 -120 -63z" />
    <glyph glyph-name="trademark" unicode="&#x2122;" horiz-adv-x="376" 
d="M219 618q-1 -27 -5 -80q-6 -63 -20 -63t-14 19q0 81 15 154q4 18 23 18q23 0 39 -72q20 73 42 73q18 0 20 -17l20 -160q2 -14 -13 -14q-22 0 -31 143l-38 -119zM81 634v-145q0 -14 -13 -14q-14 0 -14 14v145l-13 -1h-26q-15 2 -20 15q7 15 14 15l120 1q15 0 15 -13
q0 -16 -25 -18q18 1 -38 1z" />
    <glyph glyph-name="acute" unicode="&#xb4;" horiz-adv-x="356" 
d="M52 248q-4 -1 -7 -1q-17 0 -17 18q0 11 11 16q135 27 265 109q4 2 8 2q17 0 17 -18q0 -11 -10 -16q-101 -73 -267 -110z" />
    <glyph glyph-name="dieresis" unicode="&#xa8;" horiz-adv-x="310" 
d="M190 335q0 15 12 24.5t27 9.5t27 -9.5t12 -24.5t-11.5 -25t-27.5 -10t-27.5 10t-11.5 25zM30 335q0 15 12 24.5t27 9.5t27 -9.5t12 -24.5t-11.5 -25t-27.5 -10t-27.5 10t-11.5 25z" />
    <glyph glyph-name="AE" unicode="&#xc6;" horiz-adv-x="2067" 
d="M2033 89l-1 -15q-81 -35 -309 -75q-221 -39 -319 -39q-111 0 -182 41l-17 -7l-21 11q0 11 -4 32.5t-4 32.5q0 16 7 154q-54 77 -168 77q-303 0 -408 -16q-136 -21 -255 -95q-66 -41 -322 -243l-24 29q31 93 277 268q167 119 408 252q314 174 426 174q90 0 115 -134
q111 56 282 118q206 74 291 74l38 -43l-6 -16q-217 -147 -343 -147l-32 17l16 50q-130 -37 -221 -85q-138 -73 -152 -158q61 -30 170 -30q58 0 168.5 21.5t164.5 22.5l25 -33q-39 -23 -153 -58.5t-165 -66.5q-83 -50 -83 -118q0 -63 189 -63q106 0 298 48q199 49 291 52z
M1327 263q-23 8 -91 9q-4 -58 -4 -70l-1 1v-17q46 53 96 77zM1180 508q-1 39 -5 54q-7 25 -30 49q-26 13 -41 13q-63 0 -311 -127q-243 -124 -295 -179l52 2q57 2 193 13q126 10 194 10q18 -2 114 -12l-2 21q-5 51 40 95q23 23 91 61z" />
    <glyph glyph-name="Oslash" unicode="&#xd8;" horiz-adv-x="1336" 
d="M229 84l749 490q-59 11 -110 11h-134q-169 0 -338 -67q-192 -76 -270 -202q-17 -27 -17 -65q0 -109 120 -167zM1020 565l-758 -495q117 -44 299 -44q101 0 218.5 26.5t207.5 70.5t156 103q89 80 89 156q0 130 -212 183zM1185 673l-118 -77q214 -65 214 -195v-42
q0 -13 -17 -48q-77 -159 -301 -253q-194 -81 -398 -81t-354 60l-119 -78q-4 -2 -8 -2q-15 0 -15 15q0 8 7 13l103 67q-166 79 -166 227q0 133 180 252q143 95 303 131q2 1 12 1q33 0 33 -26q0 -15 -34 -22q-43 -9 -57 -24q211 40 395 40q85 0 183 -24l141 92q4 2 8 2
q15 0 15 -15q0 -8 -7 -13z" />
    <glyph glyph-name="plusminus" unicode="&#xb1;" horiz-adv-x="20" 
 />
    <glyph glyph-name="yen" unicode="&#xa5;" horiz-adv-x="579" 
d="M304 233l-30 -29v-21h69q25 0 30 -17q-3 -25 -27 -25h-72v-25h69q25 0 30 -17q-3 -25 -27 -25h-72v-69l-1 -17q-13 -11 -30 -11q-18 0 -24 18v24q0 20 -1 55q-72 0 -76 -2q-23 -1 -30 19q7 25 25 23l80 1q-1 14 -1 25q-70 0 -74 -1q-23 -1 -30 19q7 25 25 23l80 1
q0 21 2 42q-40 28 -114 99q-80 75 -100 108q-1 5 -1 9q0 18 22 23q8 0 36 -26q33 -31 97 -92t100 -82q30 20 64 57l57 63q79 85 129 86q13 0 24.5 -8t9.5 -21q-126 -73 -239 -207z" />
    <glyph glyph-name="mu" unicode="&#xb5;" horiz-adv-x="960" 
d="M100 252l152 97q3 44 4 117q1 3 3 8l1 188q3 14 17 37l18 1q60 3 60 -69v-87q0 -60 -19 -103q-9 -19 -28 -56l147 94q5 2 9 2q18 0 18 -23q0 -33 -24 -45l-157 -97q-13 -169 -94 -268q268 -73 460 -73q36 0 94 26q43 20 90 50q42 26 38 26q30 0 31 -29l-5 -12
q-74 -57 -115 -78q-61 -31 -135 -31q-61 0 -153 15l-152 24q-17 2 -88 18q-53 12 -87 12q-25 0 -66.5 -30.5t-55.5 -30.5q-17 0 -31 12.5t-14 29.5q0 38 61 59q72 24 86.5 49t44.5 76q26 46 31 82l6 39l-147 -91q-8 -5 -13 -5q-16 0 -16 26q0 36 29 40z" />
    <glyph glyph-name="mu" unicode="&#x3bc;" horiz-adv-x="960" 
d="M100 252l152 97q3 44 4 117q1 3 3 8l1 188q3 14 17 37l18 1q60 3 60 -69v-87q0 -60 -19 -103q-9 -19 -28 -56l147 94q5 2 9 2q18 0 18 -23q0 -33 -24 -45l-157 -97q-13 -169 -94 -268q268 -73 460 -73q36 0 94 26q43 20 90 50q42 26 38 26q30 0 31 -29l-5 -12
q-74 -57 -115 -78q-61 -31 -135 -31q-61 0 -153 15l-152 24q-17 2 -88 18q-53 12 -87 12q-25 0 -66.5 -30.5t-55.5 -30.5q-17 0 -31 12.5t-14 29.5q0 38 61 59q72 24 86.5 49t44.5 76q26 46 31 82l6 39l-147 -91q-8 -5 -13 -5q-16 0 -16 26q0 36 29 40z" />
    <glyph glyph-name="ordfeminine" unicode="&#xaa;" horiz-adv-x="1257" 
d="M1287 102q0 -16 -30 -35l-59 -39q-60 -33 -121 -66q-65 -31 -135 -31q-101 0 -269 73q-72 32 -256 129q-46 24 -93 28q-4 1 -32 -20q-22 -16 -44 -33q-33 -23 -114 -83q-66 -51 -99 -51q-26 0 -28 32q-3 48 120 129q66 43 164 86q73 32 125 82q1 0 1 2q0 3 -5.5 14.5
t-5.5 17.5q0 19 45 22q37 3 62 10q2 1 4 -1q2 1 10 7q162 120 269 177q75 40 94 61q-2 3 -6 3l-352 -9q-101 -3 -136 2h-22h-43q-4 0 -15 2.5t-15 2.5h-81q-77 9 -77 42q0 8 4 17q31 31 108 31q18 0 33 -2l106 -2q29 0 78 -4q3 0 22 -28q7 -11 16 -11h51q13 0 40 1.5t40 1.5
h64q30 0 126 5q92 5 151 13q12 2 33 -10q10 -6 10 -22q0 -5 -3 -7q-61 -53 -198 -129q-141 -79 -200 -127q1 -8 14 -11l225 2q7 4 17 4q15 0 33 -10.5t18 -24.5q0 -20 -33 -20l-320 -4q-36 6 -105 -42q-54 -38 -84 -74q3 -3 133 -67q29 -14 115 -53q49 -23 148 -66
q81 -34 151 -34q66 0 125 35q15 9 105 59q10 4 50 33q29 21 44 21q11 0 19 -9t8 -20zM148 708q-8 -7 -13 -7q-7 0 -8 11q7 -1 21 -4zM607 762l8 6q19 14 72 46q59 36 68 36q17 0 17 -18q0 -17 -17 -17q2 1 5 -1q-22 -16 -79 -51q-65 -40 -75 -40t-72 43q-53 37 -74 54
q0 1 1 1q-12 3 -12 17q-1 18 17 18q9 0 67 -40q55 -37 67 -48z" />
    <glyph glyph-name="ordmasculine" unicode="&#xba;" horiz-adv-x="665" 
d="M415 -28q-39 0 -116.5 34.5t-115.5 34.5q-12 0 -45 -19t-49 -19q-24 0 -24 31q0 15 123.5 64t127.5 72q-10 9 -34 9q-79 0 -219 -75q-48 -26 -52 -26l-15 4v27q61 49 138 79q81 32 155 32q150 0 150 -23q0 -21 -83 -64q-101 -52 -107 -57l2 -8q110 -50 184 -50
q52 0 129 41.5t76 41.5l16 -4q9 -9 9 -14q0 -37 -107 -76q-96 -35 -143 -35zM277 332l8 6q19 14 72 46q59 36 68 36q17 0 17 -18q0 -17 -17 -17q2 1 5 -1q-22 -16 -79 -51q-65 -40 -75 -40t-72 43q-53 37 -74 54q0 1 1 1q-12 3 -12 17q-1 18 17 18q9 0 67 -40q55 -37 67 -48
z" />
    <glyph glyph-name="ae" unicode="&#xe6;" horiz-adv-x="1171" 
d="M933 175l-26 4h-38q-50 0 -159 -21q-130 -25 -139 -52q66 -1 201 19q160 24 161 50zM543 157q-22 -3 -67 -4q-20 0 -59 2t-57 2q-38 0 -162 -38q-130 -40 -131 -59q6 -4 32.5 -10t36.5 -6h88q41 0 137 23q110 26 130 29q6 35 52 61zM497 47q-232 -48 -344 -48
q-27 0 -78 12q-63 15 -65 33l-4 33q48 51 260 99q189 43 285 43q49 0 49 -22q0 -10 -7 -17q123 42 323 42q87 0 92 -44q-23 -62 -191 -91q-114 -20 -235 -20q-20 0 -35 -6q22 -32 108 -32h125q55 0 137 17l135 28q11 2 49 16q32 12 47 12q21 0 20 -38q-70 -33 -196 -57
q-119 -23 -205 -23h-114q-125 0 -156 63z" />
    <glyph glyph-name="oslash" unicode="&#xf8;" horiz-adv-x="952" 
d="M710 102q1 1 0 1v-1zM710 102zM191 33l271 161q-119 -7 -224 -32q-129 -31 -186 -80l21 -26q51 -17 118 -23zM708 103zM592 111q-28 13 -102 -4l28 49l52 3q37 2 76 -12q43 -15 62 -42v-2h2l24 -4q61 -10 226 -6l-50 -38q-17 -2 -35 -2q-26 0 -76.5 4.5t-76.5 4.5
q-61 0 -208 -40.5t-239 -40.5q-50 0 -104 6l-112 -66l-19 24l83 48q-41 7 -76 25q-49 25 -45 57l3 27q63 68 195 101q93 23 221 30q119 7 126 11l86 52q70 42 79 42q13 0 13 -11q0 -15 -51 -45q-28 -17 -67 -37h20l67 -20l-4 -32l-167 2l-278 -165h72q128 0 308 63
q0 2 -15 10t-18 8z" />
    <glyph glyph-name="questiondown" unicode="&#xbf;" horiz-adv-x="507" 
d="M266 138q6 15 19 45q18 39 54 39q18 0 18 -16q0 -72 -88 -146q-49 -37 -146 -113q-45 -36 -45 -60q0 -38 46 -56q34 -14 79 -14q60 0 114 25q34 17 103 50q29 14 49 14q24 0 24 -17q0 -39 -117 -82q-104 -38 -159 -38q-203 0 -203 106q0 51 63 104q53 36 105 72
q69 51 84 87zM352 343q35 0 35 -36q0 -19 -11 -35.5t-30 -16.5q-27 0 -27 33q0 15 9 33q11 22 24 22z" />
    <glyph glyph-name="exclamdown" unicode="&#xa1;" horiz-adv-x="210" 
d="M34 -204q0 25 12 60t47 179q19 78 20 123v36q3 20 24 20q19 0 29 -11v-43q0 -70 -32 -220q-37 -174 -71 -174q-29 0 -29 30zM142 246q-29 0 -29 36q0 19 12.5 40.5t29.5 21.5q38 0 38 -38q0 -23 -14.5 -41.5t-36.5 -18.5z" />
    <glyph glyph-name="guillemotleft" unicode="&#xab;" horiz-adv-x="262" 
d="M197 224l-71 -92q-1 -3 69 -96q10 -13 21 -6q5 12 2 22q-4 12 -58 78l60 71q10 12 0 23q-6 5 -12 5t-11 -5zM97 224l-71 -92q-1 -3 69 -96q10 -13 21 -6q5 12 2 22q-4 12 -58 78l60 71q10 12 0 23q-6 5 -12 5t-11 -5z" />
    <glyph glyph-name="guillemotright" unicode="&#xbb;" horiz-adv-x="262" 
d="M65 224l71 -92q1 -3 -69 -96q-10 -13 -21 -6q-5 12 -2 22q4 12 58 78l-60 71q-10 12 0 23q6 5 12 5q5 0 11 -5zM165 224l71 -92q1 -3 -69 -96q-10 -13 -21 -6q-5 12 -2 22q4 12 58 78l-60 71q-10 12 0 23q6 5 12 5q5 0 11 -5z" />
    <glyph glyph-name="ellipsis" unicode="&#x2026;" horiz-adv-x="674" 
d="M575 10q-38 0 -38 47q0 61 46 61q36 0 36 -45q0 -22 -11 -41q-13 -22 -33 -22zM357 10q-38 0 -38 47q0 61 46 61q36 0 36 -45q0 -22 -11 -41q-13 -22 -33 -22zM145 10q-38 0 -38 47q0 61 46 61q36 0 36 -45q0 -22 -11 -41q-13 -22 -33 -22z" />
    <glyph glyph-name="nonbreakingspace" unicode="&#xa0;" horiz-adv-x="417" 
 />
    <glyph glyph-name="Agrave" unicode="&#xc0;" horiz-adv-x="1277" 
d="M1232 87l-3 -2q1 -19 1 -34q0 -37 -8 -50l-17 -7l-21 11q-3 3 -4 105q-1 103 3 114q-55 77 -167 77q-19 0 -64 -2q-41 -1 -64 -1q-125 2 -255 -13q-170 -20 -243 -64q-27 -16 -193 -149q-156 -125 -167 -125q-9 0 -16.5 9.5t-7.5 19.5q0 7 11.5 31.5t16.5 30.5
q118 130 138 144q15 11 177 86q25 12 62 45q44 39 62 51q485 306 644 306q125 0 125 -263q0 -34 -5 -102.5t-5 -102.5l-1 1zM1185 353q0 42 -2 92l-4 93q-2 4 -2 26q0 4 -15 24q-11 14 -17 23q-35 16 -55 16q-61 0 -306 -130q-239 -127 -286 -179q3 -2 40 -2
q67 0 199.5 13.5t199.5 13.5q156 0 237 -34l9 8q2 11 2 36zM709 813q50 -36 117 -53q45 -11 127 -20q90 -10 127 -18q5 -1 7 -1q16 0 16 16q0 11 -10 15q-59 10 -177 32q-110 23 -184 69q-3 1 -5 1q-10 0 -18 -9.5t-8 -19.5q0 -9 8 -12z" />
    <glyph glyph-name="Atilde" unicode="&#xc3;" horiz-adv-x="1277" 
d="M1232 87l-3 -2q1 -19 1 -34q0 -37 -8 -50l-17 -7l-21 11q-3 3 -4 105q-1 103 3 114q-55 77 -167 77q-19 0 -64 -2q-41 -1 -64 -1q-125 2 -255 -13q-170 -20 -243 -64q-27 -16 -193 -149q-156 -125 -167 -125q-9 0 -16.5 9.5t-7.5 19.5q0 7 11.5 31.5t16.5 30.5
q118 130 138 144q15 11 177 86q25 12 62 45q44 39 62 51q485 306 644 306q125 0 125 -263q0 -34 -5 -102.5t-5 -102.5l-1 1zM1185 353q0 42 -2 92l-4 93q-2 4 -2 26q0 4 -15 24q-11 14 -17 23q-35 16 -55 16q-61 0 -306 -130q-239 -127 -286 -179q3 -2 40 -2
q67 0 199.5 13.5t199.5 13.5q156 0 237 -34l9 8q2 11 2 36zM878 850q21 0 98.5 -36.5t136.5 -36.5q32 0 71 25.5t38 25.5q18 0 18 -18q0 -27 -52 -58q-48 -28 -78 -28q-59 0 -141 35t-91 35q-29 0 -73.5 -18.5l-44.5 -18.5q-18 0 -18 18q0 21 57 49q53 26 79 26z" />
    <glyph glyph-name="Otilde" unicode="&#xd5;" horiz-adv-x="1336" 
d="M1281 359q0 -13 -17 -48q-77 -159 -301 -253q-194 -81 -398 -81q-197 0 -345 57q-207 80 -207 245q0 133 180 252q143 95 303 131q2 1 12 1q33 0 33 -26q0 -15 -34 -22q-43 -9 -57 -24q211 40 395 40q138 0 267 -50q169 -66 169 -180v-42zM868 585h-134q-169 0 -338 -67
q-192 -76 -270 -202q-17 -27 -17 -65q0 -131 171 -187q115 -38 281 -38q101 0 218.5 26.5t207.5 70.5t156 103q89 80 89 156q0 102 -138 159q-106 44 -226 44zM578 840q21 0 98.5 -36.5t136.5 -36.5q32 0 71 25.5t38 25.5q18 0 18 -18q0 -27 -52 -58q-48 -28 -78 -28
q-59 0 -141 35t-91 35q-29 0 -73.5 -18.5l-44.5 -18.5q-18 0 -18 18q0 21 57 49q53 26 79 26z" />
    <glyph glyph-name="OE" unicode="&#x152;" horiz-adv-x="1959" 
d="M1903 89l-1 -15q-67 -29 -309 -72q-237 -42 -319 -42q-74 0 -139 22q-89 30 -89 88q0 14 4 30q-104 -59 -235 -91q-127 -32 -250 -32q-197 0 -345 57q-207 80 -207 245q0 133 180 252q143 95 303 131q2 1 12 1q33 0 33 -26q0 -15 -34 -22q-43 -9 -57 -24q211 40 395 40
q154 0 289 -60q151 63 319 111q161 46 222 46q17 0 27.5 -13t10.5 -30q0 -7 -6 -16q-80 -55 -165 -95q-111 -52 -178 -52q-32 0 -32 17q0 11 16 50q-59 -17 -181 -53q-216 -85 -232 -180q78 -39 210 -40q33 0 96.5 4t93.5 4q25 0 72 18t71 18q25 0 25 -33q0 -15 -46 -24
q-168 -32 -277 -107q-22 -22 -48 -42q-30 -35 -30 -70q0 -63 204 -63q91 0 265 25q47 13 143 29q30 2 87 24t79 22q25 0 23 -32zM1183 267q-63 5 -186 18.5t-123 78.5q0 24 18 67q11 27 58 54q21 12 119 57q-79 30 -165 38q-52 5 -170 5q-169 0 -338 -67q-192 -76 -270 -202
q-17 -27 -17 -65q0 -131 171 -187q115 -38 281 -38q167 0 335 59q191 67 287 182z" />
    <glyph glyph-name="oe" unicode="&#x153;" horiz-adv-x="1226" 
d="M550 66q-2 6 -2 13q0 40 53 70l-100 35q-34 12 -86 12q-82 0 -185 -31q-114 -34 -167 -83q-4 -5 -4 -10q0 -4 4 -8q99 -33 252 -33q71 0 235 35zM1228 64q-70 -33 -196 -57q-119 -23 -205 -23h-114q-75 0 -130 38q-94 -26 -109 -29q-56 -12 -123 -12q-350 0 -350 82
q-1 -2 -2 -2q-2 0 -3 1q1 2 3 4q1 0 2 -2v-1q1 1 2 4q44 105 222 148q104 25 222 25q106 -11 223 -62q138 44 306 44q87 0 92 -44q-23 -62 -190 -87q-105 -16 -234 -16q-28 0 -44 -7q12 -17 53 -29q35 -10 62 -10h125q56 0 137 17l135 28q11 2 49 16q32 12 47 12
q21 0 20 -38zM993 175l-26 4h-38q-39 0 -156 -22q-127 -24 -142 -40q71 -1 201 14q160 18 161 44zM635 117z" />
    <glyph glyph-name="endash" unicode="&#x2013;" horiz-adv-x="431" 
d="M427 211l-1 -49h-422v49h423z" />
    <glyph glyph-name="emdash" unicode="&#x2014;" horiz-adv-x="729" 
d="M727 211l-1 -49h-722v49h723z" />
    <glyph glyph-name="quotedblleft" unicode="&#x201c;" horiz-adv-x="270" 
d="M28 603q0 -49 62 -169q5 -9 22 -9q27 0 27 25q0 11 -10 35q-7 16 -15 37q-6 25 -15 69q-13 38 -47 37q-24 -1 -24 -25zM216 448q19 0 19 18q0 12 -13 39t-13 41q0 9 -3.5 25.5t-3.5 27t-12.5 18.5t-25.5 8q-25 0 -25 -23q0 -24 15 -68.5t29 -69.5q3 -5 14.5 -10.5
t18.5 -5.5z" />
    <glyph glyph-name="quotedblright" unicode="&#x201d;" horiz-adv-x="258" 
d="M225 613q0 -49 -62 -169q-5 -9 -22 -9q-27 0 -27 25q0 9 11.5 36.5t13.5 37t16 67.5q13 38 47 37q23 -1 23 -25zM38 458q-20 0 -20 18q0 12 13.5 39t13.5 41q0 9 3.5 25.5t3.5 25.5q0 13 12.5 20.5t25.5 7.5q25 0 25 -23q0 -21 -16 -68.5t-29 -69.5q-2 -5 -14 -10.5
t-18 -5.5z" />
    <glyph glyph-name="quoteleft" unicode="&#x2018;" horiz-adv-x="144" 
d="M21 589q0 10 9 -33l15 -71q15 -49 44 -49q15 0 35 13q-12 30 -28 92q-3 21 -6 43q-3 12 -14 22.5t-22 10.5q-9 0 -21 -9.5t-12 -18.5z" />
    <glyph glyph-name="quoteright" unicode="&#x2019;" horiz-adv-x="147" 
d="M115 589q0 10 -9 -33l-15 -71q-15 -49 -44 -49q-15 0 -35 13q12 30 28 92q5 36 7 43q8 23 27 31q5 2 8 2q9 0 21 -9.5t12 -18.5z" />
    <glyph glyph-name="divide" unicode="&#xf7;" horiz-adv-x="20" 
 />
    <glyph glyph-name="ydieresis" unicode="&#xff;" horiz-adv-x="543" 
d="M241 -320q-18 0 -31 17.5t-13 36.5q0 31 34 37l-2 8q39 37 83 158q43 117 43 175l-140 -76q-76 -40 -155 -40q-28 0 -44 36q-12 26 -14 60q2 5 8 51q5 39 20 39q8 0 25 -13q-1 -10 -7 -39q-5 -24 -5 -39q0 -58 46 -58q50 0 109 33q37 21 100 69.5t95 63.5l22 -8l2 -9
q0 -94 -61 -238l2 -7q59 51 178 151l24 -3l5 -14q0 -7 -62 -62q-79 -70 -122 -116q-71 -76 -87 -135q-22 -78 -53 -78zM290 227q-18 0 -31 11.5t-13 28.5t13 28t31 11t31 -11t13 -28t-13 -28.5t-31 -11.5zM150 227q-18 0 -31 11.5t-13 28.5t13 28t31 11t31 -11t13 -28
t-13 -28.5t-31 -11.5z" />
    <glyph glyph-name="Ydieresis" unicode="&#x178;" horiz-adv-x="1360" 
d="M1266 127q-4 -20 -61 -50q-26 -13 -190 -91q-88 -42 -127 -80q-30 -31 -88 -127q-82 -136 -124 -185q-79 -91 -161 -91q-16 0 -33.5 23.5t-17.5 40.5q0 79 98 174q54 52 187 147q108 77 119 101q15 33 74 140q48 87 67 143q-289 -225 -413 -225q-165 0 -301 207
q-33 53 -100 160q-7 11 -16 11q-4 0 -14 -5t-16 -5q-19 0 -75 150q-55 146 -55 175q0 53 30 53q21 0 109 -179q113 -229 185 -331q125 -178 237 -178q193 0 372 203q101 114 240 366l37 -2l11 -31q-48 -130 -132 -309l-143 -304q38 7 143 66q100 56 131 58zM771 -167
q-101 -69 -145 -109q-80 -74 -96 -148q78 34 141 108q42 49 100 149zM770 727q-18 0 -31 11.5t-13 28.5t13 28t31 11t31 -11t13 -28t-13 -28.5t-31 -11.5zM550 727q-18 0 -31 11.5t-13 28.5t13 28t31 11t31 -11t13 -28t-13 -28.5t-31 -11.5z" />
    <glyph glyph-name="currency" unicode="&#xa4;" horiz-adv-x="19" 
 />
    <glyph glyph-name="guilsinglleft" unicode="&#x2039;" horiz-adv-x="156" 
d="M97 224l-71 -92q-1 -3 69 -96q10 -13 21 -6q5 12 2 22q-4 12 -58 78l60 71q10 12 0 23q-6 5 -12 5t-11 -5z" />
    <glyph glyph-name="guilsinglright" unicode="&#x203a;" horiz-adv-x="156" 
d="M64 224l72 -92q2 -4 -70 -96q-6 -9 -13 -9q-4 0 -8 3q-3 8 -3 14q0 4 1 8q5 12 58 78l-60 71q-10 12 0 23q6 5 12 5q5 0 11 -5z" />
    <glyph glyph-name="daggerdbl" unicode="&#x2021;" horiz-adv-x="308" 
d="M28 150q-10 -2 -18 6t-8 18q0 24 37 25q19 0 67 1v260h-77q-25 0 -25 25t25 25h77v137q0 25 25 25t25 -25v-137h77q25 0 25 -25t-25 -25h-77v-260h70q23 0 23 -27q0 -26 -24 -26h-69v-124q0 -25 -25 -25t-25 25v125q-22 0 -51 -1z" />
    <glyph glyph-name="periodcentered" unicode="&#xb7;" horiz-adv-x="241" 
d="M86 168q0 17 12.5 28.5t30.5 11.5t30.5 -11.5t12.5 -28.5t-12.5 -28.5t-30.5 -11.5t-30.5 11.5t-12.5 28.5z" />
    <glyph glyph-name="periodcentered" unicode="&#x2219;" horiz-adv-x="241" 
d="M86 168q0 17 12.5 28.5t30.5 11.5t30.5 -11.5t12.5 -28.5t-12.5 -28.5t-30.5 -11.5t-30.5 11.5t-12.5 28.5z" />
    <glyph glyph-name="quotesinglbase" unicode="&#x201a;" horiz-adv-x="175" 
d="M128 71q0 -31 -27 -77q-15 -24 -44 -72q-4 -1 -7 -1q-14 0 -31 28q2 7 13 33q9 22 9 31q0 6 -5.5 18t-5.5 18q0 20 14.5 45.5t33.5 25.5q20 0 35 -14.5t15 -34.5z" />
    <glyph glyph-name="quotedblbase" unicode="&#x201e;" horiz-adv-x="299" 
d="M268 71q0 -31 -27 -77q-15 -24 -44 -72q-4 -1 -7 -1q-14 0 -31 28q2 7 13 33q9 22 9 31q0 6 -5.5 18t-5.5 18q0 20 14.5 45.5t33.5 25.5q20 0 35 -14.5t15 -34.5zM128 71q0 -31 -27 -77q-15 -24 -44 -72q-4 -1 -7 -1q-14 0 -31 28q2 7 13 33q9 22 9 31q0 6 -5.5 18
t-5.5 18q0 20 14.5 45.5t33.5 25.5q20 0 35 -14.5t15 -34.5z" />
    <glyph glyph-name="perthousand" unicode="&#x2030;" 
 />
    <glyph glyph-name="Acircumflex" unicode="&#xc2;" horiz-adv-x="1277" 
d="M1232 87l-3 -2q1 -19 1 -34q0 -37 -8 -50l-17 -7l-21 11q-3 3 -4 105q-1 103 3 114q-55 77 -167 77q-19 0 -64 -2q-41 -1 -64 -1q-125 2 -255 -13q-170 -20 -243 -64q-27 -16 -193 -149q-156 -125 -167 -125q-9 0 -16.5 9.5t-7.5 19.5q0 7 11.5 31.5t16.5 30.5
q118 130 138 144q15 11 177 86q25 12 62 45q44 39 62 51q485 306 644 306q125 0 125 -263q0 -34 -5 -102.5t-5 -102.5l-1 1zM1185 353q0 42 -2 92l-4 93q-2 4 -2 26q0 4 -15 24q-11 14 -17 23q-35 16 -55 16q-61 0 -306 -130q-239 -127 -286 -179q3 -2 40 -2
q67 0 199.5 13.5t199.5 13.5q156 0 237 -34l9 8q2 11 2 36zM784 755l-3 3q16 12 80 51q69 42 77 42q9 0 74 -45q60 -42 75 -55l-3 -8h2l-1 -1l-1 10q16 -4 16 -22q0 -22 -22 -22q-8 0 -69 40q-56 37 -68 48l-4 3l-5 -3q-13 -11 -71 -45q-63 -37 -72 -37q-21 0 -21 19
q0 14 16 22z" />
    <glyph glyph-name="Ecircumflex" unicode="&#xca;" horiz-adv-x="1056" 
d="M1043 89l-1 -15q-67 -29 -309 -72q-237 -42 -319 -42q-74 0 -139 22q-89 30 -89 88q0 52 52 113q46 54 99 80q-29 10 -120.5 14t-131.5 16q-66 21 -66 69q0 26 12 55q24 57 200 136q147 66 339 122q182 53 245 53q17 0 27.5 -13t10.5 -30q0 -7 -6 -16q-80 -55 -165 -95
q-111 -52 -178 -52q-32 0 -32 17q0 11 16 50q-177 -50 -240 -77q-158 -67 -173 -156q82 -40 210 -40h121q19 8 69 8q25 0 72 18t71 18q25 0 25 -33q0 -15 -46 -24q-113 -22 -214 -71q-141 -68 -141 -148q0 -63 204 -63q91 0 265 25q47 13 143 29q30 2 87 24t79 22
q25 0 23 -32zM284 755l-3 3q16 12 80 51q69 42 77 42q9 0 74 -45q60 -42 75 -55l-3 -8h2l-1 -1l-1 10q16 -4 16 -22q0 -22 -22 -22q-8 0 -69 40q-56 37 -68 48l-4 3l-5 -3q-13 -11 -71 -45q-63 -37 -72 -37q-21 0 -21 19q0 14 16 22z" />
    <glyph glyph-name="Aacute" unicode="&#xc1;" horiz-adv-x="1277" 
d="M1232 87l-3 -2q1 -19 1 -34q0 -37 -8 -50l-17 -7l-21 11q-3 3 -4 105q-1 103 3 114q-55 77 -167 77q-19 0 -64 -2q-41 -1 -64 -1q-125 2 -255 -13q-170 -20 -243 -64q-27 -16 -193 -149q-156 -125 -167 -125q-9 0 -16.5 9.5t-7.5 19.5q0 7 11.5 31.5t16.5 30.5
q118 130 138 144q15 11 177 86q25 12 62 45q44 39 62 51q485 306 644 306q125 0 125 -263q0 -34 -5 -102.5t-5 -102.5l-1 1zM1185 353q0 42 -2 92l-4 93q-2 4 -2 26q0 4 -15 24q-11 14 -17 23q-35 16 -55 16q-61 0 -306 -130q-239 -127 -286 -179q3 -2 40 -2
q67 0 199.5 13.5t199.5 13.5q156 0 237 -34l9 8q2 11 2 36zM869 667q-5 -2 -9 -2q-21 0 -21 22q0 14 14 19q178 35 350 142q4 1 9 1q21 0 21 -22q0 -13 -13 -18q-81 -58 -168 -91q-67 -26 -183 -51z" />
    <glyph glyph-name="Edieresis" unicode="&#xcb;" horiz-adv-x="1056" 
d="M1043 89l-1 -15q-67 -29 -309 -72q-237 -42 -319 -42q-74 0 -139 22q-89 30 -89 88q0 52 52 113q46 54 99 80q-29 10 -120.5 14t-131.5 16q-66 21 -66 69q0 26 12 55q24 57 200 136q147 66 339 122q182 53 245 53q17 0 27.5 -13t10.5 -30q0 -7 -6 -16q-80 -55 -165 -95
q-111 -52 -178 -52q-32 0 -32 17q0 11 16 50q-177 -50 -240 -77q-158 -67 -173 -156q82 -40 210 -40h121q19 8 69 8q25 0 72 18t71 18q25 0 25 -33q0 -15 -46 -24q-113 -22 -214 -71q-141 -68 -141 -148q0 -63 204 -63q91 0 265 25q47 13 143 29q30 2 87 24t79 22
q25 0 23 -32zM539 725q-18 0 -31 11.5t-13 28.5t13.5 28t30.5 11t30.5 -11t13.5 -28t-13 -28.5t-31 -11.5zM379 725q-18 0 -31 11.5t-13 28.5t13.5 28t30.5 11t30.5 -11t13.5 -28t-13 -28.5t-31 -11.5z" />
    <glyph glyph-name="Egrave" unicode="&#xc8;" horiz-adv-x="1056" 
d="M1043 89l-1 -15q-67 -29 -309 -72q-237 -42 -319 -42q-74 0 -139 22q-89 30 -89 88q0 52 52 113q46 54 99 80q-29 10 -120.5 14t-131.5 16q-66 21 -66 69q0 26 12 55q24 57 200 136q147 66 339 122q182 53 245 53q17 0 27.5 -13t10.5 -30q0 -7 -6 -16q-80 -55 -165 -95
q-111 -52 -178 -52q-32 0 -32 17q0 11 16 50q-177 -50 -240 -77q-158 -67 -173 -156q82 -40 210 -40h121q19 8 69 8q25 0 72 18t71 18q25 0 25 -33q0 -15 -46 -24q-113 -22 -214 -71q-141 -68 -141 -148q0 -63 204 -63q91 0 265 25q47 13 143 29q30 2 87 24t79 22
q25 0 23 -32zM578 715q-4 0 -9 2q-57 10 -172 31q-85 17 -160 71q-13 6 -13 19q0 21 21 21q5 0 9 -1q69 -43 161 -67q23 -6 169 -34q14 -6 14 -18q0 -24 -20 -24z" />
    <glyph glyph-name="Iacute" unicode="&#xcd;" horiz-adv-x="742" 
d="M731 88q0 -13 -17 -22q-11 -5 -135 -12q-119 -7 -145 -26q-31 -23 -101 -36q-58 -11 -110 -11q-107 0 -164 57q-2 7 -2 13q0 26 31 38q85 -1 177 1l177 4q9 0 14 4q94 78 123 356q-39 8 -39 58q0 16 2 47t2 47q0 28 20 57.5t47 29.5q23 0 39 -27v-36q0 -95 -35 -272
q-40 -203 -82 -250l5 -5h49q15 0 55 6q35 5 55 3q4 2 9 2q25 0 25 -26zM335 66q-25 4 -71 3q-60 -2 -72 -1q-6 0 -30 -9q6 -2 29 -13q18 -9 29 -9q19 0 58 12q25 8 57 17zM329 667q-5 -2 -9 -2q-21 0 -21 22q0 14 14 19q178 35 350 142q4 1 9 1q21 0 21 -22q0 -13 -13 -18
q-81 -58 -168 -91q-67 -26 -183 -51z" />
    <glyph glyph-name="Icircumflex" unicode="&#xce;" horiz-adv-x="742" 
d="M731 88q0 -13 -17 -22q-11 -5 -135 -12q-119 -7 -145 -26q-31 -23 -101 -36q-58 -11 -110 -11q-107 0 -164 57q-2 7 -2 13q0 26 31 38q85 -1 177 1l177 4q9 0 14 4q94 78 123 356q-39 8 -39 58q0 16 2 47t2 47q0 28 20 57.5t47 29.5q23 0 39 -27v-36q0 -95 -35 -272
q-40 -203 -82 -250l5 -5h49q15 0 55 6q35 5 55 3q4 2 9 2q25 0 25 -26zM335 66q-25 4 -71 3q-60 -2 -72 -1q-6 0 -30 -9q6 -2 29 -13q18 -9 29 -9q19 0 58 12q25 8 57 17zM424 755l-3 3q16 12 80 51q69 42 77 42q9 0 74 -45q60 -42 75 -55l-3 -8h2l-1 -1l-1 10q16 -4 16 -22
q0 -22 -22 -22q-8 0 -69 40q-56 37 -68 48l-4 3l-5 -3q-13 -11 -71 -45q-63 -37 -72 -37q-21 0 -21 19q0 14 16 22z" />
    <glyph glyph-name="Idieresis" unicode="&#xcf;" horiz-adv-x="742" 
d="M731 88q0 -13 -17 -22q-11 -5 -135 -12q-119 -7 -145 -26q-31 -23 -101 -36q-58 -11 -110 -11q-107 0 -164 57q-2 7 -2 13q0 26 31 38q85 -1 177 1l177 4q9 0 14 4q94 78 123 356q-39 8 -39 58q0 16 2 47t2 47q0 28 20 57.5t47 29.5q23 0 39 -27v-36q0 -95 -35 -272
q-40 -203 -82 -250l5 -5h49q15 0 55 6q35 5 55 3q4 2 9 2q25 0 25 -26zM335 66q-25 4 -71 3q-60 -2 -72 -1q-6 0 -30 -9q6 -2 29 -13q18 -9 29 -9q19 0 58 12q25 8 57 17zM609 725q-18 0 -31 11.5t-13 28.5t13.5 28t30.5 11t30.5 -11t13.5 -28t-13 -28.5t-31 -11.5zM449 725
q-18 0 -31 11.5t-13 28.5t13.5 28t30.5 11t30.5 -11t13.5 -28t-13 -28.5t-31 -11.5z" />
    <glyph glyph-name="Igrave" unicode="&#xcc;" horiz-adv-x="742" 
d="M731 88q0 -13 -17 -22q-11 -5 -135 -12q-119 -7 -145 -26q-31 -23 -101 -36q-58 -11 -110 -11q-107 0 -164 57q-2 7 -2 13q0 26 31 38q85 -1 177 1l177 4q9 0 14 4q94 78 123 356q-39 8 -39 58q0 16 2 47t2 47q0 28 20 57.5t47 29.5q23 0 39 -27v-36q0 -95 -35 -272
q-40 -203 -82 -250l5 -5h49q15 0 55 6q35 5 55 3q4 2 9 2q25 0 25 -26zM335 66q-25 4 -71 3q-60 -2 -72 -1q-6 0 -30 -9q6 -2 29 -13q18 -9 29 -9q19 0 58 12q25 8 57 17zM708 715q-4 0 -9 2q-127 27 -138 31q-47 16 -124 71q-13 6 -13 19q0 21 21 21q5 0 9 -1
q77 -48 134 -69q43 -16 126 -32q14 -6 14 -18q0 -24 -20 -24z" />
    <glyph glyph-name="Oacute" unicode="&#xd3;" horiz-adv-x="1336" 
d="M1281 359q0 -13 -17 -48q-77 -159 -301 -253q-194 -81 -398 -81q-197 0 -345 57q-207 80 -207 245q0 133 180 252q143 95 303 131q2 1 12 1q33 0 33 -26q0 -15 -34 -22q-43 -9 -57 -24q211 40 395 40q138 0 267 -50q169 -66 169 -180v-42zM1232 382q0 102 -138 159
q-106 44 -226 44h-134q-169 0 -338 -67q-192 -76 -270 -202q-17 -27 -17 -65q0 -131 171 -187q115 -38 281 -38q101 0 218.5 26.5t207.5 70.5t156 103q89 80 89 156zM609 667q-5 -2 -9 -2q-21 0 -21 22q0 14 14 19q178 35 350 142q4 1 9 1q21 0 21 -22q0 -13 -13 -18
q-81 -58 -168 -91q-67 -26 -183 -51z" />
    <glyph glyph-name="Ocircumflex" unicode="&#xd4;" horiz-adv-x="1336" 
d="M1281 359q0 -13 -17 -48q-77 -159 -301 -253q-194 -81 -398 -81q-197 0 -345 57q-207 80 -207 245q0 133 180 252q143 95 303 131q2 1 12 1q33 0 33 -26q0 -15 -34 -22q-43 -9 -57 -24q211 40 395 40q138 0 267 -50q169 -66 169 -180v-42zM1232 382q0 102 -138 159
q-106 44 -226 44h-134q-169 0 -338 -67q-192 -76 -270 -202q-17 -27 -17 -65q0 -131 171 -187q115 -38 281 -38q101 0 218.5 26.5t207.5 70.5t156 103q89 80 89 156zM544 755l-3 3q16 12 80 51q69 42 77 42q9 0 74 -45q60 -42 75 -55l-3 -8h2l-1 -1l-1 10q16 -4 16 -22
q0 -22 -22 -22q-8 0 -69 40q-56 37 -68 48l-4 3l-5 -3q-13 -11 -71 -45q-63 -37 -72 -37q-21 0 -21 19q0 14 16 22z" />
    <glyph glyph-name="Ograve" unicode="&#xd2;" horiz-adv-x="1336" 
d="M1281 359q0 -13 -17 -48q-77 -159 -301 -253q-194 -81 -398 -81q-197 0 -345 57q-207 80 -207 245q0 133 180 252q143 95 303 131q2 1 12 1q33 0 33 -26q0 -15 -34 -22q-43 -9 -57 -24q211 40 395 40q138 0 267 -50q169 -66 169 -180v-42zM1232 382q0 102 -138 159
q-106 44 -226 44h-134q-169 0 -338 -67q-192 -76 -270 -202q-17 -27 -17 -65q0 -131 171 -187q115 -38 281 -38q101 0 218.5 26.5t207.5 70.5t156 103q89 80 89 156zM798 675q-4 0 -9 2q-118 26 -184 51q-85 33 -168 91q-13 6 -13 19q0 21 21 21q5 0 9 -1q172 -106 350 -141
q14 -6 14 -18q0 -24 -20 -24z" />
    <glyph glyph-name="Uacute" unicode="&#xda;" horiz-adv-x="1264" 
d="M1157 690q31 -29 31 -69q0 -38 -32 -100q-44 -86 -49 -97q-2 -21 -9 -69q-29 -207 -32 -349q-14 -17 -33 -17q-11 0 -19.5 9t-8.5 20q2 54 17 158.5t17 156.5q-51 -45 -179 -151q-44 -35 -152 -90q-91 -47 -163 -69q-180 -55 -256 -55q-130 0 -195 80q-55 68 -62 195
q1 6 1 21v46q-36 24 -36 76q0 23 9 63q11 50 12 57q2 23 5 69q9 116 87 108q21 -2 21 -32l-7 -51q-3 -20 -37 -286v-89q0 -76 50 -137q52 -65 127 -65h49q-4 0 10 3q6 -1 18 -1q24 4 57 12q27 6 96 25q6 2 105 44q189 81 308 186l85 76q48 49 64 94q3 18 19 106
q17 95 29.5 111.5t36.5 16.5q11 0 16 -6zM469 667q-5 -2 -9 -2q-21 0 -21 22q0 14 14 19q178 35 350 142q4 1 9 1q21 0 21 -22q0 -13 -13 -18q-81 -58 -168 -91q-67 -26 -183 -51z" />
    <glyph glyph-name="Ucircumflex" unicode="&#xdb;" horiz-adv-x="1264" 
d="M1157 690q31 -29 31 -69q0 -38 -32 -100q-44 -86 -49 -97q-2 -21 -9 -69q-29 -207 -32 -349q-14 -17 -33 -17q-11 0 -19.5 9t-8.5 20q2 54 17 158.5t17 156.5q-51 -45 -179 -151q-44 -35 -152 -90q-91 -47 -163 -69q-180 -55 -256 -55q-130 0 -195 80q-55 68 -62 195
q1 6 1 21v46q-36 24 -36 76q0 23 9 63q11 50 12 57q2 23 5 69q9 116 87 108q21 -2 21 -32l-7 -51q-3 -20 -37 -286v-89q0 -76 50 -137q52 -65 127 -65h49q-4 0 10 3q6 -1 18 -1q24 4 57 12q27 6 96 25q6 2 105 44q189 81 308 186l85 76q48 49 64 94q3 18 19 106
q17 95 29.5 111.5t36.5 16.5q11 0 16 -6zM404 725l-3 3q15 11 89 51q78 42 88 42q11 0 85 -45q69 -42 84 -55l-3 -8h2l-1 -1l-1 10q16 -4 16 -22q0 -22 -22 -22q-11 0 -77.5 38t-79.5 50l-4 3l-5 -3q-13 -10 -83 -46t-80 -36q-21 0 -21 19q0 14 16 22z" />
    <glyph glyph-name="Ugrave" unicode="&#xd9;" horiz-adv-x="1264" 
d="M1157 690q31 -29 31 -69q0 -38 -32 -100q-44 -86 -49 -97q-2 -21 -9 -69q-29 -207 -32 -349q-14 -17 -33 -17q-11 0 -19.5 9t-8.5 20q2 54 17 158.5t17 156.5q-51 -45 -179 -151q-44 -35 -152 -90q-91 -47 -163 -69q-180 -55 -256 -55q-130 0 -195 80q-55 68 -62 195
q1 6 1 21v46q-36 24 -36 76q0 23 9 63q11 50 12 57q2 23 5 69q9 116 87 108q21 -2 21 -32l-7 -51q-3 -20 -37 -286v-89q0 -76 50 -137q52 -65 127 -65h49q-4 0 10 3q6 -1 18 -1q24 4 57 12q27 6 96 25q6 2 105 44q189 81 308 186l85 76q48 49 64 94q3 18 19 106
q17 95 29.5 111.5t36.5 16.5q11 0 16 -6zM798 675q-4 0 -9 2q-118 26 -184 51q-85 33 -168 91q-13 6 -13 19q0 21 21 21q5 0 9 -1q172 -106 350 -141q14 -6 14 -18q0 -24 -20 -24z" />
    <glyph glyph-name="circumflex" unicode="&#x2c6;" horiz-adv-x="367" 
d="M24 305l-3 3q16 12 80 51q69 42 77 42q9 0 74 -45q60 -42 75 -55l-3 -8h2l-1 -1l-1 10q16 -4 16 -22q0 -22 -22 -22q-8 0 -69 40q-56 37 -68 48l-4 3l-5 -3q-13 -11 -71 -45q-63 -37 -72 -37q-21 0 -21 19q0 14 16 22z" />
    <glyph glyph-name="tilde" unicode="&#x2dc;" horiz-adv-x="466" 
d="M327 285q-35 0 -90 25q-62 27 -85 31q-44 -9 -55 -14q-25 -10 -46 -35q-6 -7 -15 -7q-20 0 -20 20q0 7 5 13q48 57 129 74q29 -3 91 -31q58 -26 86 -26q10 0 43.5 12.5t44.5 19.5q5 2 10 2q20 0 20 -21q0 -12 -10 -17q-84 -46 -108 -46z" />
    <glyph glyph-name="macron" unicode="&#xaf;" horiz-adv-x="469" 
d="M94 294q-22 0 -22 22q0 23 22 23h231q22 0 22 -23q0 -22 -22 -22h-231z" />
    <glyph glyph-name="macron" unicode="&#x2c9;" horiz-adv-x="469" 
d="M94 294q-22 0 -22 22q0 23 22 23h231q22 0 22 -23q0 -22 -22 -22h-231z" />
    <glyph glyph-name="cedilla" unicode="&#xb8;" horiz-adv-x="266" 
d="M149 -35q24 -3 67 -23q26 -39 26 -48l-3 -11q0 -11 -9 -30h1q-12 -27 -45 -45t-64 -18q-35 0 -62 16q-33 19 -33 51q0 15 13 15q10 0 30 -34q42 -18 52 -18q19 0 48.5 18t29.5 36q0 23 -1 21q-3 8 -9 19q-29 14 -35 16q-15 5 -38 7v25q0 -2 -1 4t-2 16q-2 15 1 24h38z
" />
    <glyph glyph-name="Scaron" unicode="&#x160;" 
 />
    <glyph glyph-name="scaron" unicode="&#x161;" 
 />
    <glyph glyph-name="brokenbar" unicode="&#xa6;" 
 />
    <glyph glyph-name="Eth" unicode="&#xd0;" horiz-adv-x="100" 
d="M28 31q0 18 16 18q17 0 17 -18t-17 -18q-16 0 -16 18z" />
    <glyph glyph-name="eth" unicode="&#xf0;" 
 />
    <glyph glyph-name="Yacute" unicode="&#xdd;" 
 />
    <glyph glyph-name="Thorn" unicode="&#xde;" 
 />
    <glyph glyph-name="thorn" unicode="&#xfe;" 
 />
    <glyph glyph-name="minus" unicode="&#xad;" 
 />
    <glyph glyph-name="minus" unicode="&#x2212;" 
 />
    <glyph glyph-name="onesuperior" unicode="&#xb9;" 
 />
    <glyph glyph-name="twosuperior" unicode="&#xb2;" 
 />
    <glyph glyph-name="threesuperior" unicode="&#xb3;" 
 />
    <glyph glyph-name="onehalf" unicode="&#xbd;" 
 />
    <glyph glyph-name="onequarter" unicode="&#xbc;" 
 />
    <glyph glyph-name="threequarters" unicode="&#xbe;" 
 />
    <glyph glyph-name="Lslash" unicode="&#x141;" 
 />
    <glyph glyph-name="lslash" unicode="&#x142;" horiz-adv-x="3" 
 />
    <glyph glyph-name="HT" horiz-adv-x="251" 
 />
    <glyph glyph-name="LF" 
 />
    <glyph glyph-name="nonmarkingreturn" horiz-adv-x="251" 
 />
    <glyph glyph-name="Zcaron" unicode="&#x17d;" 
 />
    <glyph glyph-name="zcaron" unicode="&#x17e;" 
 />
    <glyph glyph-name="DLE" 
 />
    <glyph glyph-name="DC1" 
 />
    <glyph glyph-name="DC2" 
 />
    <glyph glyph-name="DC3" 
 />
    <glyph glyph-name="DC4" 
 />
    <glyph glyph-name="RS" 
 />
    <glyph glyph-name="US" 
 />
    <glyph glyph-name="notequal" unicode="&#x2260;" horiz-adv-x="1" 
 />
    <glyph glyph-name="infinity" unicode="&#x221e;" horiz-adv-x="20" 
 />
    <glyph glyph-name="lessequal" unicode="&#x2264;" horiz-adv-x="20" 
 />
    <glyph glyph-name="greaterequal" unicode="&#x2265;" horiz-adv-x="20" 
 />
    <glyph glyph-name="partialdiff" unicode="&#x2202;" horiz-adv-x="355" 
d="M232 558q0 -18 -40 -179l113 67q8 3 14 3q20 0 20 -19q0 -27 -26 -42l-140 -83l-2 -4q-11 -29 -37 -87q-11 -20 -30.5 -61.5t-16.5 -65.5q-4 -51 54 -51q25 0 59 11l64 21q20 8 40 15q27 10 40 10q15 0 19 -8q2 -22 -8 -33q-6 -5 -28.5 -13.5t-82.5 -27.5
q-79 -21 -112 -21q-74 0 -87 70q-6 33 1 67q0 48 5 102q-12 -7 -41 -24l-39 -22q-9 -7 -17 -7q-18 0 -18 25q1 34 33 40l90 52q30 204 100 334q1 -2 4 -2q8 0 20 18q51 4 51 -56q0 -12 -2 -30v1zM116 329l19 13q49 135 52 240q-28 -43 -45 -122q-2 -10 -26 -131zM99 251
q0 3 24 18l-29 -76z" />
    <glyph glyph-name="summation" unicode="&#x2211;" horiz-adv-x="1144" 
d="M550 3q-27 0 -33 -25q-28 -16 -208 -16q-47 0 -114 1l-77 1q-37 0 -66 11q-39 15 -39 46q0 34 81 34q10 0 30 -1t30 -1q56 0 166.5 -1.5t166.5 -1.5q375 0 510 56l12 15q-33 43 -209 74q-102 17 -305 54q-155 32 -155 92q0 67 149 154q123 72 300 133q165 57 232 57
q14 0 15 -17l-5 -9q-24 -16 -99 -37q-97 -27 -108 -31q-174 -63 -242 -96q-160 -78 -189 -153q27 -38 91 -48q35 -5 106 -15q169 -27 265 -45q204 -39 204 -104q0 -37 -12 -47q-44 -38 -241 -62q-148 -18 -256 -18zM707 742l8 6q19 14 72 46q59 36 68 36q17 0 17 -18
q0 -17 -17 -17q2 1 5 -1q-22 -16 -79 -51q-65 -40 -75 -40t-72 43q-53 37 -74 54q0 1 1 1q-12 3 -12 17q-1 18 17 18q9 0 67 -40q55 -37 67 -48z" />
    <glyph glyph-name="product" unicode="&#x220f;" horiz-adv-x="661" 
d="M660 82q-4 -21 -23 -28q-36 -14 -288 -39q-240 -24 -311 -24q-13 0 -24 7.5t-11 19.5q0 17 17.5 31.5t35.5 14.5q25 0 73.5 -4t73.5 -4q178 0 189 25q-53 13 -160 40q-126 34 -126 74q0 36 72 61q62 21 105 18l27 -2q15 -13 15 -19q0 -17 -68 -28q-77 -13 -91 -28
q10 -18 79 -32q110 -22 127 -27q71 -22 86 -56q9 1 79 11q47 7 79 7q29 0 44 -18zM297 372l8 6q19 14 72 46q59 36 68 36q17 0 17 -18q0 -17 -17 -17q2 1 5 -1q-22 -16 -79 -51q-65 -40 -75 -40t-72 43q-53 37 -74 54q0 1 1 1q-12 3 -12 17q-1 18 17 18q9 0 67 -40
q55 -37 67 -48z" />
    <glyph glyph-name="pi" unicode="&#x3c0;" horiz-adv-x="1360" 
d="M1265 124q-4 -21 -61 -50q-34 -17 -190 -90q-86 -40 -127 -81q-31 -32 -88 -127q-82 -136 -124 -185q-79 -91 -161 -91q-16 0 -33.5 24t-17.5 41q0 78 98 173q56 55 187 148q108 77 119 101q15 33 74 139q49 88 67 144q-289 -225 -413 -225q-93 0 -174 63
q-67 52 -127 144q-33 53 -100 159q-8 12 -15 12q-4 0 -14.5 -5.5t-16.5 -5.5q-19 0 -75 150q-54 145 -54 175q0 53 29 53q21 0 109 -178q112 -225 186 -331q125 -179 236 -179q193 0 372 204q101 115 240 365l38 -1l10 -31q-44 -123 -132 -309l-143 -304q37 6 143 65
q102 57 131 58zM770 -170q-101 -68 -145 -108q-80 -74 -96 -148q77 33 141 108q43 51 100 148zM854 823q-81 -58 -166 -90q-66 -25 -184 -51q-5 -1 -7 -1q-16 0 -16 16q0 11 10 15q179 35 351 141q3 2 7 2q16 0 16 -17q0 -10 -11 -15z" />
    <glyph glyph-name="integral" unicode="&#x222b;" horiz-adv-x="568" 
d="M241 -320q-18 0 -31 17.5t-13 36.5q0 -3 41 65q115 191 117 313l-140 -76q-76 -40 -155 -40q-28 0 -44 36q-12 26 -14 60q2 5 8 51q5 39 20 39q8 0 25 -13q-1 -10 -7 -39q-5 -24 -5 -39q0 -58 46 -58q50 0 109 33q37 21 100 69.5t95 63.5l22 -8l2 -9q0 -94 -61 -238l2 -7
q59 51 178 151l24 -3l5 -14q0 -7 -62 -62q-79 -70 -122 -116q-71 -76 -87 -135q-22 -78 -53 -78zM416 363q-105 -78 -266 -110q-2 -1 -5 -1q-12 0 -12 13q0 8 8 11q135 27 266 110q2 1 5 1q12 0 12 -13q0 -8 -8 -11z" />
    <glyph glyph-name="Omega" unicode="&#x3a9;" horiz-adv-x="770" 
d="M339 145h-170q39 -54 69 -65q79 -29 185 -29q146 0 266 52q24 -10 24 -36q0 -11 -5 -23q-192 -48 -293 -48q-93 0 -205 39q-68 24 -111 110h-75q-20 0 -20 25t20 25h58q-4 17 -4 34q0 8 1 16h-55q-20 0 -20 25t20 25h70l1 2q57 150 379 150q83 0 186 -12q38 -4 38 -26
q0 -14 -13 -27t-27 -12q-55 20 -185 20q-256 0 -324 -95h190q20 0 20 -25t-20 -25h-209q-1 -22 11 -50h198q20 0 20 -25t-20 -25z" />
    <glyph glyph-name="Omega" unicode="&#x2126;" horiz-adv-x="770" 
d="M339 145h-170q39 -54 69 -65q79 -29 185 -29q146 0 266 52q24 -10 24 -36q0 -11 -5 -23q-192 -48 -293 -48q-93 0 -205 39q-68 24 -111 110h-75q-20 0 -20 25t20 25h58q-4 17 -4 34q0 8 1 16h-55q-20 0 -20 25t20 25h70l1 2q57 150 379 150q83 0 186 -12q38 -4 38 -26
q0 -14 -13 -27t-27 -12q-55 20 -185 20q-256 0 -324 -95h190q20 0 20 -25t-20 -25h-209q-1 -22 11 -50h198q20 0 20 -25t-20 -25z" />
    <glyph glyph-name="lozenge" unicode="&#x25ca;" horiz-adv-x="20" 
 />
    <glyph glyph-name="fraction" unicode="&#x2044;" horiz-adv-x="14" 
 />
    <glyph glyph-name="apple" unicode="&#xf000;" horiz-adv-x="20" 
 />
    <glyph glyph-name="dotlessi" unicode="&#x131;" horiz-adv-x="403" 
d="M394 93q11 0 11 -14q0 -23 -123 -46q-106 -20 -151 -20q-124 0 -124 83q0 44 4 59q9 33 41 33q20 0 20 -18q0 -14 -8.5 -41.5t-8.5 -41.5q0 -34 83 -34q43 0 128 20t128 20z" />
    <glyph glyph-name="breve" unicode="&#x2d8;" horiz-adv-x="535" 
d="M96 372q-6 7 -6 15q0 23 23 23q10 0 17 -8q55 -64 132 -64q78 0 139 64q8 8 16 8q23 0 23 -23q0 -9 -7 -15q-74 -79 -172 -79q-96 0 -165 79z" />
    <glyph glyph-name="dotaccent" unicode="&#x2d9;" horiz-adv-x="339" 
d="M120 347q0 17 12.5 28.5t29.5 11.5t29 -11.5t12 -28.5t-12 -29t-29 -12t-29.5 12t-12.5 29z" />
    <glyph glyph-name="ring" unicode="&#x2da;" horiz-adv-x="372" 
d="M177 447q30 0 51.5 -21.5t21.5 -51.5t-21.5 -51t-51.5 -21t-51 21t-21 51t21 51.5t51 21.5zM177 417q-18 0 -30 -12.5t-12 -30.5t12 -30t30 -12t30.5 12t12.5 30t-12.5 30.5t-30.5 12.5z" />
    <glyph glyph-name="hungarumlaut" unicode="&#x2dd;" horiz-adv-x="262" 
d="M185 418l-63 -78l-1 2q-2 -3 -2 -19q0 -18 8 -18q4 0 10 6q2 3 91 87q-4 25 -24 25q-8 0 -19 -5zM85 418l-63 -78l-1 2q-2 -3 -2 -19q0 -18 8 -18q4 0 10 6q2 3 91 87q-4 25 -24 25q-8 0 -19 -5z" />
    <glyph glyph-name="ogonek" unicode="&#x2db;" horiz-adv-x="317" 
d="M120 0h88q-90 -1 -90 -67q0 -17 11.5 -30.5t28.5 -13.5q31 0 72 37l16 -22q-56 -56 -108 -56q-30 0 -50 19.5t-20 49.5q0 48 52 83z" />
    <glyph glyph-name="caron" unicode="&#x2c7;" horiz-adv-x="367" 
d="M324 353l3 -3q-20 -15 -80 -51q-68 -41 -77 -41t-74 44q-56 38 -75 55l3 8v-9q-16 4 -16 22q0 23 22 23q8 0 69 -41q30 -20 68 -48l4 -3l5 3q10 8 73 45.5t70 37.5q21 0 21 -20q0 -14 -16 -22z" />
  </font>
</defs>
</svg>
