<?xml version="1.0" standalone="no"?>
<!DOCTYPE svg PUBLIC "-//W3C//DTD SVG 1.1//EN" "http://www.w3.org/Graphics/SVG/1.1/DTD/svg11.dtd" >
<svg>
<metadata>
Created by FontForge 20120731 at Tue Apr 16 14:06:11 2019
 By www-data
Digitized by Dan X. Solo. Software (c) 1999 by Dover Publications, Inc., New York.
</metadata>
<defs>
<font id="EngrossingScript" horiz-adv-x="0" >
  <font-face 
    font-family="Engrossing Script"
    font-weight="400"
    font-stretch="normal"
    units-per-em="1000"
    panose-1="0 0 4 0 0 0 0 0 0 0"
    ascent="800"
    descent="-200"
    x-height="380"
    cap-height="715"
    bbox="-166 -267 875 887"
    underline-thickness="20"
    underline-position="-123"
    unicode-range="U+0020-F002"
  />
<missing-glyph horiz-adv-x="500" 
d="M63 0v887h375v-887h-375zM125 63h250v762h-250v-762z" />
    <glyph glyph-name=".notdef" horiz-adv-x="500" 
d="M63 0v887h375v-887h-375zM125 63h250v762h-250v-762z" />
    <glyph glyph-name=".null" 
 />
    <glyph glyph-name="glyph2" horiz-adv-x="148" 
 />
    <glyph glyph-name="space" unicode=" " horiz-adv-x="148" 
 />
    <glyph glyph-name="exclam" unicode="!" horiz-adv-x="203" 
d="M146 111l-3 -6h-4q-43 22 -65 163q-16 101 -16 185t14 157q25 129 84 129q34 0 38 -29q1 -23 -24 -71q-33 -62 -47 -109q-26 -84 -26 -184q0 -124 49 -235zM96 37q0 16 10 28t25 12t24.5 -12.5t9.5 -27.5q0 -16 -9.5 -28.5t-24.5 -12.5q-16 0 -25.5 12.5t-9.5 28.5z" />
    <glyph glyph-name="quotedbl" unicode="&#x22;" horiz-adv-x="117" 
d="M27 665q6 35 39 37q14 1 22 -9t5 -24q-2 -12 -11 -22l-34 -135l-18 -1l-1 134q-4 9 -2 20z" />
    <glyph glyph-name="numbersign" unicode="#" horiz-adv-x="317" 
d="M211 309h-79l-39 -147h80zM45 341h74l36 135l19 -5l-34 -130h79l36 135l19 -5l-34 -130h71l-9 -32h-70l-39 -147h75l-7 -33h-76l-35 -131l-19 5l33 126h-79l-35 -131l-19 5l33 126h-69l10 33h68l38 147h-74z" />
    <glyph glyph-name="dollar" unicode="$" horiz-adv-x="382" 
d="M230 18v-33h-25v33q-44 2 -77 24q-37 26 -37 68q0 41 34 63q29 19 72 19q-1 -11 0 -12v-5q-30 0 -50 -16q-23 -17 -23 -46q0 -36 28 -59.5t64 -23.5q46 0 78 23q37 26 37 70q0 37 -41 69q-32 25 -74 37q-46 13 -77 42q-36 34 -37 77q-2 46 27.5 78.5t75.5 36.5v35h25v-35
q101 -8 101 -76q0 -32 -27.5 -50.5t-61.5 -18.5l-2 16q64 0 64 51q0 67 -88 67q-39 0 -66.5 -22.5t-27.5 -60.5q0 -51 97 -86q12 -4 43 -16q93 -38 93 -122q0 -52 -36 -87.5t-89 -39.5z" />
    <glyph glyph-name="percent" unicode="%" horiz-adv-x="441" 
d="M407 107q-9 -110 -71 -110q-6 0 -14 2q-33 5 -53 59q-15 42 -15 69q1 52 16 94q23 62 69 60q37 -2 57 -58q15 -42 14 -69q-1 -13 -3 -47zM187 307q-9 -110 -71 -110q-6 0 -14 2q-33 5 -53 59q-15 42 -15 69q1 52 16 94q23 62 69 60q37 -2 57 -58q15 -42 14 -69
q-1 -13 -3 -47zM369 218q-1 14 -12.5 31t-24.5 17q-34 1 -42 -108q-4 -45 9 -101q3 -12 11 -27q10 -18 20 -18q39 -2 43 92q2 46 -4 114zM149 418q-1 14 -12.5 31t-24.5 17q-34 1 -42 -108q-4 -45 9 -101q3 -12 11 -27q10 -18 20 -18q39 -2 43 92q2 46 -4 114zM59 4l310 473
h29l-319 -476z" />
    <glyph glyph-name="ampersand" unicode="&#x26;" horiz-adv-x="527" 
d="M498 272q0 -26 -14 -30q-2 -1 -35 -1q-28 0 -49 -10q-27 -13 -27 -38q0 41 26.5 -52t26.5 -119q0 -56 -46 -113q-48 -61 -102 -61q-5 0 -15.5 -1.5t-15.5 -1.5q-67 0 -102 54q60 -39 83 -39q48 0 85 31q14 12 29.5 51.5t15.5 60.5q0 19 -7 56.5t-14 51.5q-20 -37 -65 -74
q-49 -40 -87 -40q-63 0 -99 34t-36 97q0 90 167 209q-38 102 -38 129q0 109 46 109q6 0 16 -10.5t10 -16.5q0 -18 -26.5 -53.5t-26.5 -49.5q0 -13 15 -47t25 -48q38 23 66 62q31 43 31 83q0 42 -20 73q-5 8 -22 20.5t-25 12.5q-21 0 -61.5 -13t-61.5 -13q-69 0 -84 74l9 13
q2 -2 14 -22q9 -16 26 -16q24 0 78 21t73 21q131 0 131 -150q0 -4 -7 -8q0 -39 -52 -94q-39 -41 -86 -73q35 -44 109 -127q14 18 45 53q28 30 59 30q8 0 23 -9t15 -16zM327 136q0 11 -39.5 92t-49.5 91q-4 5 -12 5q-43 -24 -75.5 -73.5t-32.5 -97.5q0 -40 24 -77
q26 -41 64 -41q5 1 32 5q23 3 56 38t33 58z" />
    <glyph glyph-name="quotesingle" unicode="'" horiz-adv-x="226" 
d="M127 665q6 35 39 37q14 1 22 -9t5 -24q-2 -12 -11 -22l-34 -135l-18 -1l-1 134q-4 9 -2 20zM27 665q6 35 39 37q14 1 22 -9t5 -24q-2 -12 -11 -22l-34 -135l-18 -1l-1 134q-4 9 -2 20z" />
    <glyph glyph-name="parenleft" unicode="(" horiz-adv-x="236" 
d="M171 695q-117 -180 -117 -350q0 -171 117 -341l-11 -9q-153 224 -153 357q0 82 52 185q25 49 101 167z" />
    <glyph glyph-name="parenright" unicode=")" horiz-adv-x="236" 
d="M7 695q116 -180 116 -350q0 -171 -116 -341l11 -9q153 224 153 357q0 83 -52 185q-22 44 -101 167z" />
    <glyph glyph-name="asterisk" unicode="*" horiz-adv-x="340" 
d="M161 552l60 -105l-22 -13l-61 105l-60 -105l-23 13l61 105h-121v26h121l-61 104l23 13l60 -104l61 104l22 -13l-60 -104h121v-26h-121z" />
    <glyph glyph-name="plus" unicode="+" horiz-adv-x="423" 
d="M188 122v163h-163v20h163v163h20v-163h163v-20h-163v-163h-20z" />
    <glyph glyph-name="comma" unicode="," horiz-adv-x="106" 
d="M85 18q0 -55 -28 -100q-20 -33 -31 -33q-5 0 -5 5q0 -21 17 21t17 59q0 10 -18 28t-18 32q0 13 8.5 24t21.5 11q36 0 36 -47z" />
    <glyph glyph-name="hyphen" unicode="-" horiz-adv-x="223" 
d="M201 242q0 -44 -28.5 -69.5t-73 -25.5t-57.5 -16q-7 -12 -14 -23q-6 1 -6 8q0 22 15.5 45t35.5 29q43 5 93 16q16 13 27 45h4q4 0 4 -9z" />
    <glyph glyph-name="hyphen" unicode="&#x2010;" horiz-adv-x="223" 
d="M201 242q0 -44 -28.5 -69.5t-73 -25.5t-57.5 -16q-7 -12 -14 -23q-6 1 -6 8q0 22 15.5 45t35.5 29q43 5 93 16q16 13 27 45h4q4 0 4 -9z" />
    <glyph glyph-name="period" unicode="." horiz-adv-x="122" 
d="M21 37q0 17 11.5 30t28.5 13t28.5 -13t11.5 -30t-11.5 -30t-28.5 -13t-28.5 12.5t-11.5 30.5z" />
    <glyph glyph-name="slash" unicode="/" horiz-adv-x="409" 
d="M2 -50l350 795h34q-37 -82 -172 -378l-194 -425z" />
    <glyph glyph-name="zero" unicode="0" horiz-adv-x="256" 
d="M256 260q0 -118 -10 -162q-23 -101 -100 -101q-9 0 -17 1q-54 7 -91 92q-28 63 -30 113q-4 84 18 155q32 104 106 104q57 0 95 -90q29 -68 29 -112zM207 174q0 47 -23 199q-4 24 -21 47q-21 26 -43 25q-58 -1 -64 -188q-2 -78 24 -170q6 -20 23 -45q21 -30 37 -30
q67 0 67 162z" />
    <glyph glyph-name="one" unicode="1" horiz-adv-x="270" 
d="M145 -3q-10 3 -10 22v343q0 7 -1.5 21.5t-1.5 21.5q-28 -26 -83 -83l-6 13l110 143q6 -2 15 -14.5t9 -18.5q0 -2 5.5 -16.5t5.5 -20.5v-290q0 -88 -5 -106q-6 -21 -38 -15z" />
    <glyph glyph-name="two" unicode="2" horiz-adv-x="337" 
d="M293 358q0 -114 -125 -224l-102 -86q54 -9 82 -25q8 -6 29 -28q18 -18 36 -18q46 0 75 75q-15 -133 -96 -133q-5 0 -13 3.5t-13 3.5q-21 0 -40 29q-18 43 -21 48q-16 25 -42 25q-23 0 -58 -35v15q90 67 150 142q80 100 80 185q0 39 -22 71.5t-60 32.5t-65 -36
q-25 -32 -25 -72q0 -25 13 -44q15 -22 39 -22q23 0 38 20q1 11 1 14q0 7 -4 11q-8 -8 -19 -8q-21 0 -21 23q0 10 9.5 22.5t19.5 12.5q36 0 36 -40q0 -25 -17.5 -45t-42.5 -20q-29 0 -46.5 24t-17.5 54q0 59 37.5 102t95.5 43q49 0 79 -35t30 -85z" />
    <glyph glyph-name="three" unicode="3" horiz-adv-x="349" 
d="M116 -187q-46 0 -78.5 32t-32.5 78q0 31 18 54.5t48 23.5q24 0 39.5 -15.5t15.5 -39.5q0 -13 -8 -26t-20 -13q-23 0 -28 13q-1 3 -1 33q0 20 -21 20q-32 0 -32 -53q0 -48 38 -75q33 -24 83 -24q55 0 88 73q26 58 26 122q0 153 -72 153q-15 0 -68 -35v10q61 50 81 81
q28 43 28 108q0 45 -23 73.5t-67 28.5q-35 0 -60.5 -31t-25.5 -67q0 -67 57 -67q26 0 33 33l-7 11q-12 -8 -23 -8q-25 0 -25 21q0 13 12 25t25 12q16 0 26.5 -15t10.5 -32q0 -27 -18 -42.5t-46 -15.5q-22 0 -39.5 23.5t-17.5 46.5q0 53 37 100t89 47q42 0 74.5 -34.5
t32.5 -77.5q0 -94 -81 -170q-3 -10 -3 -6q0 -2 1 -4q4 4 20 4q109 0 109 -151q0 -26 -2 -47q-5 -55 -58 -114q-55 -63 -108 -63h-27z" />
    <glyph glyph-name="four" unicode="4" horiz-adv-x="334" 
d="M322 52q0 -26 -25.5 -43.5t-52.5 -17.5q-10 0 -18 3q-1 -1 -1 -7q0 -35 15 -82q20 -61 46 -61q5 0 15 4t14 4q-2 -21 -21 -38t-41 -17q-69 0 -69 157q0 -3 1 43q-8 5 -28 16q-29 15 -54 15q-49 0 -84 -65h-8q102 146 102 355q0 16 -2.5 48.5t-2.5 48.5q0 59 38 59
q33 0 33 -57q0 -4 -2 -18l-4 -21q-10 -180 -112 -351q23 14 47 14q8 0 19 -3q33 -9 58 -18q17 134 81 239q9 7 10 7t1 -1q0 -2 -5 -11q-20 -35 -37 -122q-13 -68 -13 -86q0 -6 1 -19t1 -19h34q9 0 36.5 19t27.5 25z" />
    <glyph glyph-name="five" unicode="5" horiz-adv-x="290" 
d="M244 95q0 -100 -38 -183q-53 -115 -159 -115q-5 0 -16 3t-16 3q-40 0 -63 50q-16 35 -16 65q0 12 16.5 39.5t39.5 27.5q32 0 52 -18.5t20 -49.5q0 -9 -13 -19.5t-22 -10.5q-22 0 -22 22q0 3 1 10v10q0 25 -26 25q-31 0 -31 -43t26.5 -72.5t69.5 -29.5q73 0 110 57
q32 49 32 125q0 213 -99 213q-33 0 -46 -20q-7 -11 -22 -61h-8v12q0 16 4 45q5 33 6 46l10 174q0 38 -4 70q12 -7 41 -23q41 -20 75 -20q30 0 55.5 15.5t33.5 42.5q-18 -121 -120 -121q-33 0 -65 16q-8 -2 -8 -12q0 9 1 -17q1 -29 -10 -121v-39h4q8 8 32 27q28 21 56 21
q55 0 89 -46q30 -41 30 -98z" />
    <glyph glyph-name="six" unicode="6" horiz-adv-x="290" 
d="M245 302q0 -90 -31 -179q-45 -130 -131 -130q-49 0 -72 97q-16 67 -16 141q0 108 39 227q44 135 117 207q-52 -57 -81 -175q-24 -99 -24 -198q0 -84 11 -147q18 -105 64 -105q57 0 74 88q7 36 7 132q-3 31 -12 92q-13 72 -55 74q-37 1 -54 -59q-14 -49 -9 -96q-4 5 -8 19
q-2 54 17 109q26 75 76 75q88 0 88 -172z" />
    <glyph glyph-name="seven" unicode="7" horiz-adv-x="326" 
d="M296 470v-18q-120 -194 -120 -406q0 -22 14 -88q15 -70 25 -80q43 -44 43 -49q0 -16 -16.5 -27.5t-33.5 -11.5q-45 0 -67 64q-15 43 -15 83q0 70 38 227q42 168 77 207l-7 7q-53 -48 -114 -48q-26 0 -31 1q-9 3 -48 22l-31 -115l-16 2q18 28 29 116q10 79 7 138
q4 -52 44 -84.5t93 -32.5q39 0 76 28t53 65z" />
    <glyph glyph-name="eight" unicode="8" horiz-adv-x="325" 
d="M286 150q0 -70 -38 -115q-40 -48 -109 -48q-61 0 -101 49q-36 46 -38 109q-4 111 112 202l-60 79q-29 45 -30 93q-2 51 25 92t74 57q-66 -46 -66 -109q0 -46 32 -88l68 -74q59 52 62 107q2 36 -10 62q-15 32 -48 32q-44 0 -49 -58l-12 4q16 86 73 83q33 -2 58 -31t27 -63
q2 -53 -27 -93q-14 -19 -61 -59q58 -66 81 -105q37 -63 37 -126zM244 120q0 53 -122 210q-26 -33 -52 -65q-25 -37 -25 -91q0 -96 36 -138q26 -31 66 -31q43 0 71 37q26 34 26 78z" />
    <glyph glyph-name="nine" unicode="9" horiz-adv-x="290" 
d="M-5 166q0 89 31 179q45 130 131 130q49 0 72 -98q16 -67 16 -141q0 -109 -39 -227q-44 -133 -117 -206q52 57 81 175q24 98 24 198q0 84 -11 147q-18 105 -64 105q-57 0 -74 -89q-7 -36 -7 -132q3 -30 12 -91q12 -73 55 -75q37 -1 54 60q14 49 9 96q4 -5 8 -19
q2 -54 -17 -109q-26 -75 -76 -75q-88 0 -88 172z" />
    <glyph glyph-name="colon" unicode=":" horiz-adv-x="112" 
d="M20 329q0 17 11 29.5t27 12.5t27 -12.5t11 -29.5t-11 -29.5t-27 -12.5t-27 12.5t-11 29.5zM23 45q0 17 10 31t27 14t27.5 -13.5t10.5 -31.5q0 -17 -10.5 -31t-27.5 -14q-16 0 -26.5 14t-10.5 31z" />
    <glyph glyph-name="semicolon" unicode=";" horiz-adv-x="118" 
d="M19 330q0 15 9.5 26.5t23.5 11.5t23.5 -11.5t9.5 -26.5t-9 -27t-24 -12t-24 12t-9 27zM91 3q0 -18 -20.5 -66t-33.5 -48q-6 0 -6 6q0 -16 14 18t14 45q0 23 -17.5 43t-17.5 33q0 8 10 20t18 12q27 0 35 -20q4 -10 4 -43z" />
    <glyph glyph-name="less" unicode="&#x3c;" horiz-adv-x="192" 
d="M157 387l-133 -179l133 -175l-15 -12l-143 187l142 191z" />
    <glyph glyph-name="equal" unicode="=" horiz-adv-x="423" 
d="M25 205h346v-20h-346v20zM25 305h346v-20h-346v20z" />
    <glyph glyph-name="greater" unicode="&#x3e;" horiz-adv-x="192" 
d="M-1 387l133 -179l-133 -175l16 -12l142 187l-142 191z" />
    <glyph glyph-name="question" unicode="?" horiz-adv-x="378" 
d="M170 40q0 16 10.5 28t26.5 12t27 -12t11 -28q0 -17 -11 -29t-27 -12t-26.5 12.5t-10.5 28.5zM362 584q0 -94 -59 -163l-111 -99q-60 -54 -60 -114q0 -22 17.5 -37.5t39.5 -15.5q19 0 32 15t13 34q0 31 -38 43q-3 5 22 15q27 0 48 -20t21 -47q0 -30 -23 -54.5t-53 -24.5
q-45 1 -70.5 30t-25.5 74q1 57 48 114q30 33 87 100q46 57 46 120q0 96 -67 96q-10 0 -50 -16q-44 -18 -56 -20q-87 7 -87 80q0 24 9 24q3 -17 8 -21q11 -9 24 -21q11 -2 22 -2q26 0 74 21.5t75 21.5q49 0 83 -43q31 -40 31 -90z" />
    <glyph glyph-name="at" unicode="@" horiz-adv-x="788" 
d="M480 61q-57 0 -57 70q0 24 8 55q-38 -63 -53 -79q-37 -42 -81 -39q-54 4 -92.5 41t-38.5 90q0 80 66.5 148.5t145.5 68.5q38 0 59 -22q17 -17 31 -58l22 61l70 8q-21 -47 -53 -136l-25 -69q-17 -47 -17 -68q0 -50 35 -50q72 0 128 82q49 71 49 130q0 113 -91 187
q-85 70 -201 70q-143 0 -238 -89t-95 -231q0 -143 98 -232q94 -86 239 -86q168 0 265 143h31q-46 -79 -128.5 -124t-175.5 -45q-151 0 -263 100q-116 104 -116 253t121 247q113 91 265 91q128 0 228 -77q109 -83 109 -207q0 -93 -76 -163t-169 -70zM379 393q-65 0 -109 -86
q-35 -68 -35 -126q0 -36 23.5 -64t58.5 -28q32 0 83 99q49 93 49 133q0 30 -20 51t-50 21z" />
    <glyph glyph-name="A" unicode="A" horiz-adv-x="611" 
d="M532 -6q-36 -3 -77 68q-20 36 -61 137q-32 80 -48 90q-35 -8 -66 -8q-11 0 -21 1q-10 -37 -33 -111q-58 -179 -146 -179q-35 0 -58 30t-23 66q0 23 11.5 42.5t32.5 19.5q29 0 29 -40q0 -21 -16 -47.5t-16 -31.5q0 -26 45 -26q88 0 118 285q-106 11 -106 53q0 23 30 37
q24 12 49 12q23 0 43 -9q20 165 99 249q-16 4 -34 4q-23 0 -69.5 -8.5t-70.5 -8.5q-56 1 -81 31q-10 13 -26 59q32 -34 83 -34q33 0 96 16t96 16q130 0 151 -219q3 -47 10 -142q59 38 59 115q0 58 -40 86v1l1 1q83 0 83 -85q0 -46 -26 -80q-19 -25 -47 -39q-9 -5 -29 -13v2
q6 -74 18 -165q21 -157 43 -156q30 2 55 86q6 21 27 107l10 -4q-9 -58 -28 -116q-30 -89 -67 -92zM420 323l-25 165q-26 116 -65 139q-23 -18 -44 -128q-19 -98 -16 -135q47 -18 87 -62q21 5 63 21zM457 89q-13 72 -34 220q-31 -6 -58 -17q19 -23 49 -100q35 -90 43 -103z
M336 301q-23 22 -68 49q0 -11 -6 -53q11 -3 39 -2q31 1 35 6zM215 370q-9 6 -23 6q-45 0 -45 -34q0 -13 30 -28.5t31 -11.5q2 5 7 68z" />
    <glyph glyph-name="B" unicode="B" horiz-adv-x="685" 
d="M635 166q0 -81 -48.5 -133t-128.5 -52q-69 0 -96 60q-6 13 -21 96q-20 -76 -58 -111q-42 -38 -118 -38q-42 0 -73 24t-31 65q0 56 37 56q17 0 27.5 -13.5t10.5 -30.5q0 -35 -18 -55q1 -14 13 -24.5t26 -10.5q86 0 125 117q26 78 26 188q-102 11 -102 46q0 23 44 33
q29 7 62 6q-2 54 -5 90q-11 151 -88 151q-25 0 -67.5 -14t-60.5 -14q-15 0 -31 7q-97 42 -97 81v11q26 -37 75 -37q35 0 100.5 23t99.5 23q97 0 120 -124q5 -32 16 -96h1q16 80 56 143q52 81 120 81q36 0 56 -39q17 -32 17 -71q0 -124 -148 -237q159 -67 159 -201zM507 667
q-94 0 -136 -278q33 1 91 -17q37 23 66 91q27 63 27 111q0 93 -48 93zM446 359q-34 16 -75 18q-1 -12 -3 -52q1 -1 4 -1q12 0 37 12.5t37 22.5zM311 376q-5 1 -11 1q-16 0 -34 -7q-22 -8 -22 -22q0 -22 64 -32q1 0 1 -1v2q0 10 1 29.5t1 29.5zM558 156q0 142 -95 196
q-47 -33 -96 -44q-2 -37 -1 -60q0 -19 1 -38.5t1 -21.5q0 -192 94 -192q96 0 96 160z" />
    <glyph glyph-name="C" unicode="C" horiz-adv-x="532" 
d="M482 166q-2 -87 -60.5 -138t-146.5 -52q-274 -4 -274 365q0 147 72 254q82 121 221 121q75 0 121 -33q53 -38 53 -110q0 -62 -42.5 -110.5t-104.5 -52.5q-42 -2 -87 29q-50 35 -50 84q0 39 31 71.5t70 32.5q8 0 17 -2v-7q-80 -11 -80 -97q0 -42 28.5 -69t70.5 -27
q48 0 76 42q24 36 24 87q0 62 -31 103q-34 46 -94 46q-121 0 -177 -129q-41 -94 -41 -233q0 -124 39 -219q53 -129 160 -129q155 0 155 170q0 62 -37 106t-98 44q-38 0 -62 -35q-22 -31 -22 -70t23 -73q25 -38 62 -38q21 0 48 20l6 -8q-30 -31 -55 -31q-51 0 -85.5 34.5
t-34.5 85.5q0 52 37.5 90.5t89.5 40.5q80 3 130 -40.5t48 -122.5z" />
    <glyph glyph-name="D" unicode="D" horiz-adv-x="625" 
d="M579 359q0 -132 -57 -240q-70 -132 -189 -132q-64 0 -160 40q-72 -44 -113 -44q-24 0 -44 13t-20 36q0 50 86 53q54 2 107 -20q58 79 67 148q-107 0 -167 50q-66 55 -66 163q0 122 83 204t205 82q137 0 208 -113q60 -95 60 -240zM522 316q0 136 -55 226q-66 109 -194 109
q-101 0 -166 -63t-65 -163q0 -96 61 -150q58 -51 155 -49q16 56 16 124q0 147 -86 147q-35 0 -54 -35q-8 6 -8 21q0 36 29.5 61t65.5 25q62 0 90 -65q20 -47 20 -118q0 -111 -33 -157q49 6 88 65q37 55 37 107q0 84 -74 141q-3 4 4 9q84 -50 84 -152q0 -56 -42 -117
q-47 -68 -100 -64q-35 -82 -91 -154q88 -60 141 -60q91 0 140 119q37 90 37 193zM163 39q-12 9 -39.5 19.5t-41.5 10.5q-18 0 -33.5 -11t-15.5 -28q0 -31 35 -31q20 0 53.5 13t41.5 27z" />
    <glyph glyph-name="E" unicode="E" horiz-adv-x="483" 
d="M440 147q-2 -73 -55 -116q-49 -39 -124 -39q-114 1 -184 57q-76 62 -73 174q3 115 130 179q-90 71 -87 163q3 79 66 117q53 31 137 30q52 0 95 -31q49 -34 47 -84q-2 -41 -30.5 -62t-70.5 -20q-33 0 -58 21.5t-24 54.5q1 22 20 34t42 11q14 0 29 -7q-32 0 -46 -10
t-15 -41q-1 -20 15 -38t36 -18q32 -1 52 19.5t21 52.5q2 50 -31.5 78.5t-84.5 28.5q-58 1 -97 -39t-41 -99q-3 -85 48 -148q26 19 96 18q92 -1 91 -45q-1 -33 -56 -32q-30 0 -74 12q-49 13 -66 29q-68 -65 -73 -147q-6 -105 43 -170q53 -72 156 -73q53 -1 90 45q35 42 37 96
q2 47 -28.5 78.5t-77.5 32.5q-39 0 -63 -26t-25 -65q-1 -25 14.5 -44t39.5 -19q21 0 37.5 14t16.5 35t-13.5 34.5t-34.5 14.5v6q0 1 1 3q26 4 51.5 -18t24.5 -49q-1 -26 -29 -40q-22 -11 -52 -11q-35 0 -65 23.5t-29 57.5q2 44 43 71q36 23 83 23q56 0 99 -32q48 -36 46 -90
zM300 397q1 26 -55 26q-19 0 -44 -4q-35 -6 -37 -15q31 -17 46 -23q26 -11 50 -11q39 -1 40 27z" />
    <glyph glyph-name="F" unicode="F" horiz-adv-x="517" 
d="M614 686q0 -48 -51 -84q-46 -34 -96 -34q-47 0 -155 58t-172 58q-43 0 -78 -24q-39 -26 -39 -68l4 -15l17 7q39 0 39 -38q0 -34 -36 -34q-47 0 -47 62q0 69 73 105q58 29 134 29q56 0 160.5 -41t146.5 -41q49 0 72 34q8 12 28 43v-17zM478 397q0 -60 -46 -84
q40 -59 40 -123q0 -98 -68 -153q-62 -51 -163 -51q-71 0 -130 61.5t-59 132.5q0 51 43 90t94 36q55 -3 89 -31q38 -32 38 -85q0 -35 -30 -57t-66 -22q-27 0 -34 10l5 6l24 -5q34 0 54 26q17 22 17 58q0 34 -27 61t-61 27q-49 0 -78 -36.5t-29 -87.5q0 -71 45.5 -120
t116.5 -49q80 0 120 78q31 62 31 150q0 9 -9 34t-9 33q-8 -3 -20 -3q-38 0 -75 21q-42 25 -42 60q0 25 46 25q22 0 68 -28v4q-18 35 -18 67q0 46 16 77q20 40 62 40q27 0 27 -16q0 -20 -22.5 -23t-42.5 -4q-23 -8 -23 -42q0 -41 18 -80q9 -20 41 -70h5q39 29 39 71
q0 41 -35 72v6l5 2q17 -12 30 -35t13 -43zM390 310q-27 68 -66 68q-25 0 -25 -27q0 -18 26 -32q23 -13 42 -13q9 0 23 4z" />
    <glyph glyph-name="G" unicode="G" horiz-adv-x="476" 
d="M30 121q0 26 24 51.5t50 25.5q13 0 25 -8.5t12 -21.5q0 -23 -26 -36q-7 -4 -47 -16l-7 -19q0 -44 50 -73q42 -25 90 -25q77 0 119 49q40 46 40 124q0 23 -9 80q-10 61 -18 75q-50 -13 -76 -13q-97 0 -169 58q-78 62 -78 156q0 93 79 143q67 43 166 43q58 0 111 -33
q61 -37 61 -91q0 -71 -31.5 -96.5t-104.5 -25.5q-39 0 -70 24.5t-31 62.5q0 32 27 52q25 17 58 17q26 0 44.5 -15t18.5 -41q0 -18 -13 -33.5t-31 -15.5l-7 5q31 26 31 44q0 20 -13 33.5t-33 13.5q-24 0 -39.5 -16t-15.5 -40q0 -78 81 -78q91 0 91 105q0 56 -46 89
q-41 28 -100 28q-73 0 -115.5 -45.5t-42.5 -119.5q0 -93 44 -150q48 -63 139 -63q12 0 33 6.5t30 7.5q4 55 7 62q12 30 59 35l16 -22q-1 -43 -64 -81q5 -21 47 -77q36 -48 36 -100q0 -88 -75 -132q-62 -37 -156 -37q-69 0 -116 32q-55 37 -55 102zM388 402q0 11 -13 11
q-28 0 -28 -69q15 11 31 22q10 11 10 36z" />
    <glyph glyph-name="H" unicode="H" horiz-adv-x="706" 
d="M432 297q0 8 -26.5 37.5t-35.5 33.5l-6 -66q15 -5 68 -5zM501 165v136q-19 -5 -57 -11q27 -62 57 -125zM316 383q0 28 -27 28q-15 0 -28.5 -11t-13.5 -26q0 -14 27 -37.5t41 -22.5zM716 683q0 -28 -36 -28q-23 0 -57 16q-42 -18 -62 -81q-15 -47 -15 -105l1 -156
q36 11 60 42t24 68q0 59 -38 71l3 5q27 0 44.5 -22.5t17.5 -50.5q0 -39 -37 -75q-30 -30 -72 -47q0 -51 22 -148q26 -116 58 -116q14 0 42 58q9 18 35 75l7 -7q-12 -42 -49 -108q-44 -80 -72 -80q-34 0 -66 65q-19 39 -50 130q-27 81 -42 99q-68 0 -70 4q-10 -96 -60 -186
q-62 -111 -143 -111q-40 0 -70.5 25t-30.5 64q0 47 36 47q41 0 41 -31t-26 -68q0 -28 48 -28q88 0 125 112q19 57 30 184q-36 6 -66 25q-39 25 -39 55q0 47 58 47q27 0 47 -13q-2 72 -20 135q-26 91 -78 91q-26 0 -77 -11t-77 -11q-30 0 -62 23q-35 25 -34 53q31 -25 70 -25
q31 0 90.5 22.5t90.5 22.5q78 0 115 -59q30 -49 34 -131l3 -135q39 -35 71 -90l60 11q0 117 36 237q49 163 137 163q43 0 43 -27z" />
    <glyph glyph-name="I" unicode="I" horiz-adv-x="350" 
d="M124 643q-34 0 -34 -51q0 -57 47 -133q44 -72 95 -105q0 89 -19 169q-29 120 -89 120zM345 290l-1 -8l-65 28q-42 -322 -209 -322q-38 0 -65 22q-30 24 -30 61q0 54 38 54q37 0 37 -50q0 -8 -6 -24.5t-6 -24.5q0 -28 32 -28q89 0 132 126q30 88 30 202q-6 9 -40 45
q-116 124 -116 239q0 35 17 67q20 38 52 38q76 0 111 -122q25 -88 25 -214q0 -31 -1 -56z" />
    <glyph glyph-name="J" unicode="J" horiz-adv-x="359" 
d="M355 292v-8q-5 0 -72 23q-27 -523 -214 -523q-36 0 -66.5 24.5t-30.5 59.5q0 51 41 51q36 0 36 -37q0 -10 -8 -30.5t-8 -29.5q0 -8 11 -17t20 -9q98 0 139 207q29 147 23 335q-70 35 -114 114q-42 76 -42 157q0 37 20.5 65.5t56.5 28.5q79 0 116 -159q22 -96 22 -185
q0 -20 -1 -40q23 -10 71 -27zM205 505q-34 130 -83 130q-18 0 -29 -16t-11 -35q0 -53 46 -133q49 -85 95 -96q2 2 2 11q0 63 -20 139z" />
    <glyph glyph-name="K" unicode="K" horiz-adv-x="522" 
d="M320 355q-9 6 -26 15q2 -17 -1 -29v0q2 -2 4 -2q7 0 23 16zM236 332v11q0 6 -1 16.5t-1 16.5h-34q-21 -4 -21 -22q0 -27 31 -27q13 0 26 5zM607 -221v-9q-138 41 -185 158q-25 62 -40 249q-3 36 -16 95q-17 75 -35 75l-38 -18q-50 -338 -201 -338q-33 0 -64.5 34
t-31.5 67q0 18 11 31t28 13q15 0 25 -12t10 -27q0 -10 -8 -30t-8 -30v-13q18 -19 41 -19q138 0 142 317l-43 -8q-19 0 -35 8q-20 10 -20 27q0 41 69 41q12 0 27 -1q-9 74 -31 135q-34 94 -79 94q-21 0 -61.5 -9t-61.5 -9q-109 0 -108 85q30 -32 65 -32q31 0 88 26.5t88 26.5
q92 0 133 -124q30 -90 25 -202l34 -17q40 31 69 123q43 138 48 148q33 72 90 72q25 0 42 -18t17 -43q0 -41 -50 -53l-4 9q30 14 28 36q0 12 -10 16q-9 4 -15 -2l-85 -137q-83 -134 -114 -159q53 -47 89 -196q19 -82 61 -246q36 -122 114 -134z" />
    <glyph glyph-name="L" unicode="L" horiz-adv-x="447" 
d="M90 107q-21 0 -39 -15t-18 -36q0 -48 58 -48q27 0 55 13q1 1 47 27q-68 59 -103 59zM438 122l7 -5q-44 -72 -54 -83q-35 -39 -86 -39q-52 0 -101 41q-69 -39 -122 -39q-31 0 -54 12q-29 15 -29 43q0 36 42 56q33 16 73 16q57 0 117 -32q31 28 31 70q0 59 -62 116
q-26 24 -114 101q-62 65 -62 141q0 82 65 135q61 51 144 51q64 0 119 -35q63 -40 63 -101q0 -62 -48 -96q-41 -29 -106 -29q-39 0 -71 26t-32 64q0 39 24.5 61.5t63.5 22.5q27 0 47 -14q21 -17 21 -43q-1 -35 -59 -43v10q35 11 35 34q0 37 -43 37q-57 0 -57 -64
q0 -32 19.5 -51.5t51.5 -19.5q43 0 77 31.5t34 73.5q0 58 -44 90q-39 29 -99 29q-65 0 -108 -40t-43 -104q0 -72 60 -125q38 -30 112 -92q61 -54 61 -129q0 -52 -60 -121q55 -49 91 -49q45 0 96 93z" />
    <glyph glyph-name="M" unicode="M" horiz-adv-x="833" 
d="M772 688q-15 0 -38 -13q-26 -15 -25 -28q2 -35 42 -35q18 0 33 16.5t15 34.5q0 25 -27 25zM836 208q-1 -2 10 -2q-108 -214 -138 -214q-53 0 -78 126q-16 82 -16 172q0 158 55 310l-12 34q-10 27 -33 36q-65 13 -109 -149q-27 -100 -53 -319q-22 -189 -32 -206
q-5 1 -16 2q0 43 12 134q11 88 10 136q-4 137 -13 216q-20 164 -67 165q-46 0 -76 -254q-7 -58 -33 -314q-24 -122 -79 -270h-9l-2 9q0 63 28 190t27 193q-4 190 -8 238q-18 199 -79 199q-22 0 -70.5 -16t-74.5 -14q-54 3 -83 43q-14 26 -28 51q47 -37 62 -37q38 0 110.5 23
t110.5 23q86 0 107 -158q4 -29 11 -99q35 245 124 259q48 -3 67 -121q6 -37 21 -150q3 68 38 155q48 119 119 114q20 -2 36 -19l26 -34q40 57 101 54q11 0 19.5 -11t8.5 -22q-2 -39 -39 -65.5t-78 -26.5q-14 0 -27 4q-8 3 -18 -74q-8 -64 -8 -97q0 -93 13 -181
q18 -123 55 -167q3 -4 7 -4q16 0 52 60q43 72 49 78z" />
    <glyph glyph-name="N" unicode="N" horiz-adv-x="697" 
d="M710 190q-21 -40 -63 -118q-50 -88 -81 -88q-81 0 -100 243q-2 25 -2 41q0 85 27 221q23 113 21 115q-17 22 -26 31q-16 16 -35 21q-24 0 -37 -31q-6 -24 -15 -54q-37 -125 -86 -392q-48 -259 -88 -391h-16l5 18q47 169 47 429v135q0 70 -18 149q-25 109 -72 109
q-26 0 -77 -12.5t-77 -12.5q-87 0 -123 89l10 3q19 -30 76 -30q35 0 102.5 24.5t102.5 24.5q111 0 131 -197q3 -41 10 -123q14 63 45 187q36 127 107 127q25 0 47.5 -14.5t30.5 -37.5q18 17 35 34q23 19 61 22q16 1 30.5 -10.5t14.5 -26.5q0 -93 -112 -93q-19 0 -41 3
l-18 -135q-11 -82 -11 -136q0 -64 20 -145q26 -107 70 -107q15 0 47 51q16 26 49 78l5 5q2 -4 4 -6zM668 662q0 21 -28 21q-14 0 -40 -22t-27 -36q22 -14 49 -14q10 0 23 10t18 21t5 20z" />
    <glyph glyph-name="O" unicode="O" horiz-adv-x="509" 
d="M445 323q0 -124 -45 -217q-58 -119 -168 -119q-131 0 -199 134q-54 106 -54 250q0 125 67 230q76 119 195 119q81 0 134.5 -50t59.5 -130q2 -20 -8 -43l-12 -22q30 -81 30 -152zM400 378q0 53 -14 80q-26 -12 -37 -12q-40 0 -80 51l6 10q30 -33 57 -33q23 0 47 22
q-41 63 -82 63q-89 0 -119 -101q-17 -57 -17 -174q0 -42 15 -75q19 -42 56 -42q86 0 86 158q0 33 -4 60l10 3q10 -33 10 -67q0 -56 -23 -105q-29 -62 -79 -62q-58 0 -88 72q-23 55 -23 121q0 78 36 149q43 85 114 85q44 0 69 -16q14 -9 50 -50q6 21 6 39q0 66 -42 109
t-108 43q-106 0 -163 -156q-43 -117 -43 -245q0 -109 30 -189q43 -114 134 -114q107 0 159 143q37 101 37 233z" />
    <glyph glyph-name="P" unicode="P" horiz-adv-x="480" 
d="M568 607q0 -86 -51 -154q-39 -51 -124 -108q0 24 19.5 -23t20.5 -68q2 -36 -21 -61.5t-59 -25.5q-16 0 -30 12q7 4 20 4q58 0 58 84q0 64 -26 69q-5 2 -28 -9l-33 -16q-8 -51 -15 -86q-46 -240 -198 -240q-38 0 -68 26t-30 64q0 15 14 31t29 16q35 0 35 -41
q0 -7 -8.5 -26.5t-8.5 -26.5q0 -33 47 -33q113 0 139 217q0 3 8 87q-5 -3 -19 -3q-29 0 -52 10q-30 13 -30 39q0 11 10.5 25t21.5 18q28 11 67 6q0 58 -17 131q-27 116 -82 116q-19 0 -68 -16t-70 -16q-46 0 -77 19q-37 24 -32 67q21 -20 35 -25q9 -3 35 -3q29 0 102 24
t120 25q37 1 67 -47q23 -36 33 -81q3 -14 16 -89h2q56 217 160 217q88 0 88 -109zM495 597q0 28 -12 49q-14 25 -40 25q-60 0 -99 -136q-28 -97 -28 -150q21 -6 64 -30q7 -4 39 31q28 23 53 99q23 69 23 112zM363 347q-11 8 -48 20l-1 -41q30 8 49 21zM258 317q4 60 0 61
q-14 3 -22 3q-15 0 -36 -18q-3 -5 -3 -13q0 -7 3 -17q11 -16 33 -16h25z" />
    <glyph glyph-name="Q" unicode="Q" horiz-adv-x="572" 
d="M540 136q-70 -88 -104 -117q-67 -58 -139 -58q-65 0 -112 54h-11l-87 -13q-31 0 -58 12q-34 15 -34 42q0 53 107 53q54 0 137 -62q13 3 55 38q37 31 53 48q47 50 78 144q29 87 29 162q0 86 -39 161q-47 91 -125 91q-82 0 -124 -107q-31 -79 -31 -178q0 -78 13 -129
q22 -86 75 -86q62 0 88 100q16 62 16 150q0 119 -53 188q39 -17 68 -96q26 -70 26 -120q0 -79 -33 -146q-41 -84 -112 -84t-109 79q-29 61 -29 142q0 122 49 206q59 101 173 101q98 0 161 -90q56 -80 56 -182q0 -126 -66 -227.5t-181 -153.5q-23 -11 -32 -17q31 -43 107 -43
q49 0 104 58l84 94v-14zM171 28q-14 21 -49 45t-57 24q-12 0 -24.5 -10t-12.5 -21q0 -24 36 -37q27 -10 56 -10q20 0 51 9z" />
    <glyph glyph-name="R" unicode="R" horiz-adv-x="545" 
d="M634 -267q-62 2 -123 57q-57 52 -77 115q-17 54 -23.5 166.5t-22.5 165.5q-1 5 -6 19q-16 42 -26 42q-5 0 -24.5 -9.5t-27.5 -10.5q-14 -94 -61 -183q-62 -117 -142 -117q-41 0 -71 25t-30 65q0 18 14.5 35.5t32.5 17.5q14 0 22.5 -12t8.5 -27q0 -8 -8 -31.5t-8 -31.5
q0 -22 15 -27q4 -2 26 -2q86 0 126 129q13 42 27 154q-75 -2 -112 25q-7 7 -7 14t7 14q45 30 107 25q3 5 3 25q0 76 -16 150q-22 101 -61 104l-154 -29q-41 4 -72 25q-37 25 -49 65q9 -7 28 -21q9 -7 43 -7q31 0 96 22.5t93 22.5q85 0 122 -70q26 -49 34 -160
q65 234 174 234q36 0 59 -31.5t23 -69.5q0 -167 -207 -305q66 -67 94 -189q13 -69 43 -207q26 -109 94 -161q12 -9 36 -16zM501 583q0 82 -52 82q-54 0 -101 -139q-36 -107 -36 -149v-39q18 -3 31 -13l12 -11q12 0 46 39q27 31 32 40q47 79 51 88q17 40 17 102zM345 308
q-10 7 -36 18q0 -5 -3 -18q-1 -9 1 -13q15 4 38 13zM256 290l-2 48l-31 2q-9 1 -30 -10q-9 -7 -9 -15q0 -7 9 -17q21 -13 43 -13q15 0 20 5z" />
    <glyph glyph-name="S" unicode="S" horiz-adv-x="488" 
d="M439 181q0 -91 -66.5 -149.5t-158.5 -58.5q-117 0 -172 64q-35 40 -35 86q0 63 55 97q47 30 113 30q59 0 105 -23q58 -29 57 -83q-1 -48 -41 -72q-33 -20 -84 -20q-37 0 -64 17q-33 19 -33 54q0 26 22 41.5t49 15.5q22 0 36 -12q-66 7 -66 -49q0 -55 64 -55q34 0 54 27
q18 24 18 59q0 44 -44 68q-33 18 -69 18q-51 0 -87 -28q-38 -31 -38 -81q0 -61 48 -101t110 -40q79 0 133 39q61 43 61 119q0 63 -66 116q-41 33 -128 65q-83 30 -125 69q-60 55 -62 125q-3 81 51.5 135t135.5 54q62 0 112 -22q74 -33 74 -101q0 -56 -52 -87
q-40 -24 -87 -24q-49 0 -86 22q-45 27 -45 72q0 60 86 74q29 5 60 -9q35 -16 35 -44q0 -13 -13.5 -27t-26.5 -13l-23 5q24 8 32.5 13t8.5 20q0 20 -21 31.5t-42 11.5q-23 0 -41.5 -18.5t-18.5 -41.5q0 -40 25.5 -62t65.5 -22q46 0 76 25t30 70q0 60 -47 90q-39 25 -102 25
q-67 0 -113 -37q-49 -40 -49 -105q0 -49 43 -86q34 -29 95 -52q33 -11 98 -35q153 -61 153 -200z" />
    <glyph glyph-name="T" unicode="T" horiz-adv-x="540" 
d="M493 677q-10 -49 -46 -83.5t-85 -34.5q-50 0 -159.5 59.5t-173.5 59.5q-57 0 -96 -20q-50 -27 -47 -79q14 3 26 3q41 0 41 -40q0 -37 -40 -37q-47 0 -47 67q0 71 70 111q58 32 135 32q60 0 165.5 -48.5t146.5 -48.5q57 0 110 59zM401 215q0 -46 -34 -87t-80 -39l-3 3
q61 20 61 85q0 28 -42.5 94t-42.5 105q0 31 32 76t62 52q-42 -43 -42 -79q0 -32 44.5 -94t44.5 -116zM517 154h9q-3 -76 -83 -127q-75 -48 -157 -42q-92 7 -156 79t-64 165q0 99 72 193.5t168 118.5h14q-177 -75 -177 -276q0 -93 49 -162q54 -78 143 -78q62 0 113 34
q55 37 69 95z" />
    <glyph glyph-name="U" unicode="U" horiz-adv-x="621" 
d="M626 186l6 -4q-97 -185 -130 -185q-55 0 -75 109q-7 46 -20 137q-14 -49 -44 -146q-39 -114 -111 -114q-63 0 -87 84q-18 62 -14 112l24 300q4 51 -10 90q-19 53 -79 53q-19 0 -64 -12t-65 -12q-41 0 -73.5 23t-38.5 63q40 -29 70 -29q21 0 94.5 24t107.5 24
q64 0 103 -61q32 -50 32 -106q0 -68 -34.5 -212.5t-34.5 -215.5q0 -33 10 -60q17 -47 57 -47q70 0 104 112q8 26 27 92q8 32 18 112.5t15 113.5q9 56 38 142q45 134 126 134q24 0 45 -17q3 -5 3 -12q0 -8 -4 -19q-20 -12 -38 -12q-8 0 -32 8t-32 8q-18 0 -36 -47
q-31 -80 -31 -220q0 -145 35 -251q27 -81 54 -81q20 0 84 122z" />
    <glyph glyph-name="V" unicode="V" horiz-adv-x="490" 
d="M525 590q0 -64 -54 -156q-36 -61 -99 -139q-53 -65 -53 -72q2 -15 13 -74q9 -47 9 -76t-10 -51q-13 -29 -38 -29q-18 0 -35 31q-15 27 -15 48q0 44 35 124q1 8 -44 137q-39 112 -62 166q-28 66 -51 92q-35 39 -96 39q-17 0 -44.5 -8t-44.5 -8q-30 0 -61 26.5t-31 56.5
q44 -30 74 -30q24 0 67 20t70 20q96 0 174 -185q33 -78 85 -275q80 106 117 170q62 109 62 193q0 35 -17 63q-20 34 -52 34q-19 0 -35.5 -24.5t-16.5 -44.5q0 -44 40 -81q-26 1 -47.5 25t-21.5 50q0 34 26.5 59.5t60.5 25.5q46 0 72 -42q23 -36 23 -85zM315 50q0 32 -30 125
q-18 -31 -18 -98q0 -72 26 -72q22 0 22 45z" />
    <glyph glyph-name="W" unicode="W" horiz-adv-x="717" 
d="M800 581q-4 -64 -56 -154q-31 -54 -95 -138q-51 -67 -51 -75l10 -39q10 -40 10 -70q0 -113 -52 -115q-24 -1 -36 27q-9 20 -9 48q0 34 11 59q18 41 21 55l-98 243q-12 -28 -57 -115q-40 -78 -40 -81q0 -27 9 -76q10 -55 11 -77q2 -29 -6 -52q-10 -31 -35 -32
q-28 -1 -40 39q-7 23 -7 46q0 43 40 125q0 10 -46 121q-40 96 -56 131q-86 185 -123 185q-14 0 -44 -9.5t-44 -9.5q-114 0 -117 77q-2 0 19.5 -10.5t41.5 -10.5q23 0 73 16t73 16q76 2 131 -118l47 -102q22 -49 41 -127q18 -74 27 -106q4 4 93 183q2 5 -17 53
q-22 56 -21 112q1 30 10 54q17 43 51 43q25 0 40 -32q12 -26 12 -54q0 -37 -36 -129l106 -250q97 134 131 203q43 87 45 183q1 21 -15 50q-18 33 -37 33q-29 0 -45.5 -20.5t-16.5 -49.5q0 -21 11 -44q12 -26 29 -33l-7 -4q-31 -1 -49 32q-12 22 -12 45q0 38 24 63.5t62 25.5
q47 0 71 -46q21 -40 18 -89zM501 601q0 82 -34 82q-29 0 -29 -44q0 -46 39 -143q24 40 24 105zM593 47q0 30 -13 68l-16 46q-8 -11 -17.5 -51.5t-9.5 -58.5q0 -50 27 -50q29 0 29 46zM362 51q0 60 -24 131q-33 -85 -33 -114q0 -67 27 -67q30 0 30 50z" />
    <glyph glyph-name="X" unicode="X" horiz-adv-x="675" 
d="M668 173q3 1 5 1q3 0 3 -3q-17 -59 -44 -107q-38 -67 -77 -67q-83 0 -138 145q-18 47 -28 176q-8 2 -14 2q-5 0 -7 -2q0 -37 -18 -89q-28 -82 -38 -101q-23 -48 -66 -86q-56 -49 -101 -49q-33 0 -60.5 25.5t-27.5 58.5q0 20 10.5 38t29.5 18q30 0 30 -26q0 -11 -6 -34.5
t-6 -35.5q0 -32 40 -32q64 0 112 97.5t53 223.5q-31 3 -66 23q-45 26 -45 59q0 11 11 21.5t22 10.5q22 0 38 -14q18 -19 37 -38q3 2 2 5q-3 5 -3 9q0 62 -38 138q-43 87 -96 87h-111q-21 0 -44.5 20t-28.5 41q52 -13 45 -13q24 0 72 12t72 12q113 0 159 -158q27 -93 25 -209
l18 2q5 33 15 97q19 106 60 175q56 97 143 97q52 0 52 -34q0 -26 -36 -26q-18 0 -42.5 14t-33.5 14q-50 0 -89 -115q-32 -94 -30 -154l2 -58q2 -2 4 -2q8 0 25 20q21 25 21 56q0 32 -24 58q17 2 34 -16.5t17 -35.5q0 -52 -76 -94q2 -49 33 -138q44 -127 107 -127q32 0 58 41
q5 8 39 67zM320 341v26q0 5 -21.5 25.5t-28.5 23.5q-11 3 -19.5 -3.5t-8.5 -17.5q0 -18 30 -36q25 -14 48 -18z" />
    <glyph glyph-name="Y" unicode="Y" horiz-adv-x="583" 
d="M574 687q0 -30 -22 -47q-10 -8 -44 -21q-26 -10 -31 -21q-26 -56 -26 -104q0 -81 38.5 -242t38.5 -241q0 -30 -5 -56q-39 -205 -251 -205q-53 0 -102 34q-58 40 -58 100q0 20 13 40.5t31 20.5q19 0 29.5 -15.5t10.5 -35.5q0 -25 -16 -50t-16 -28q0 -22 47 -40
q37 -14 59 -14q30 0 67 9q70 17 94 116q10 41 16 164l-26 245q-12 -63 -21 -105q-41 -193 -140 -193q-46 0 -72.5 36t-26.5 105q0 22 3 46l36 311q0 131 -76 131q-22 0 -68 -12t-68 -12q-33 0 -69.5 24t-45.5 54v14q6 -6 23 -19q26 -19 62 -19q19 0 79.5 23t90.5 23
q31 0 59 -14q81 -40 81 -172q0 -64 -38 -201.5t-38 -182.5q0 -126 75 -126q57 0 96 107q11 29 29 109q12 54 19 139q8 104 29 186q40 159 113 159q6 0 13.5 -7t7.5 -13z" />
    <glyph glyph-name="Z" unicode="Z" horiz-adv-x="453" 
d="M397 171q0 -80 -77 -138l-144 -82q-78 -45 -78 -99q0 -23 15 -34h10q17 27 28 27l6 -2q45 4 45 -41q0 -19 -17 -31.5t-37 -12.5q-31 0 -50.5 25t-19.5 57q0 60 62 107q12 9 115 85q62 59 62 147q0 62 -26 100q-30 45 -89 45q-38 0 -79 -27q-45 -29 -45 -65l10 -19l32 19
l26 -31q0 -32 -38 -32q-21 0 -35.5 17.5t-14.5 38.5q0 42 70 106q43 38 128 117q69 68 69 137q0 24 -15 41t-38 13l-160 -28q-6 -1 -13 -1q-29 0 -62 22q-40 27 -34 63q50 -34 71 -34q5 0 14 2l180 40q49 0 85 -31t36 -79q0 -60 -79 -139q-24 -20 -128 -111l24 1
q83 3 137 -43.5t54 -129.5z" />
    <glyph glyph-name="bracketleft" unicode="[" horiz-adv-x="201" 
d="M108 707h-106q0 -771 1 -810h103v21h-54v767l54 -1z" />
    <glyph glyph-name="backslash" unicode="\" horiz-adv-x="458" 
d="M-9 205l32 98q14 50 19 100q2 18 16 32.5t32 14.5q9 0 16.5 -10.5t7.5 -19.5q0 -23 -26.5 -38.5t-26.5 -23.5q0 -16 20 -16q25 0 63 35.5t42 35.5q-16 -24 -39 -78q-37 -140 -37 -218q0 -74 27 -74q24 0 97 182q29 75 87 224l10 -3q-16 -26 -16 -51q0 -19 37.5 -96
t37.5 -120q0 -98 -43 -155q82 64 108 183h7q-10 -73 -60 -139q-57 -76 -124 -76q-23 0 -40.5 16t-17.5 39q0 49 43 49t43 -43q0 -29 -30 -29q-28 0 -28 22l2 14q9 -6 16 -6q12 0 12 14q0 19 -16 19q-31 0 -31 -40q0 -17 13.5 -31t30.5 -14q57 0 57 130q0 59 -33 233
q-133 -373 -192 -373q-50 0 -50 103q0 65 27 136q9 19 58 126q-44 -25 -61 -25q-19 0 -28 15q-24 -66 -54 -142h-8z" />
    <glyph glyph-name="bracketright" unicode="]" horiz-adv-x="201" 
d="M42 707h106v-810h-104v21h55v767l-55 -1z" />
    <glyph glyph-name="asciicircum" unicode="^" horiz-adv-x="262" 
d="M132 478zM140 519h-16l-96 -85l6 -9l98 53q27 -14 97 -53l7 9q-48 43 -96 85z" />
    <glyph glyph-name="underscore" unicode="_" horiz-adv-x="409" 
d="M-1 -76h410v-20h-410v20z" />
    <glyph glyph-name="grave" unicode="`" horiz-adv-x="192" 
d="M146 425l6 9l-88 88q-9 7 -24 4q-14 -2 -14 -17q-3 -3 0 -12q3 -11 8.5 -12.5t111.5 -59.5z" />
    <glyph glyph-name="a" unicode="a" horiz-adv-x="316" 
d="M325 207q-81 -213 -113 -213q-26 0 -36 16q-2 4 -12 39l-22 -32q-17 -25 -54 -25q-48 0 -72 66q-17 47 -17 106q0 70 26 137q34 88 91 88q48 0 81 -56q6 11 18 32t24 21q3 0 3 -5q-26 -33 -26 -73l-1 -216q0 -35 12 -48q15 10 45 75q36 78 42 88h11zM165 158
q0 215 -54 215q-61 0 -61 -136q0 -64 10 -116q16 -85 54 -85q51 0 51 122z" />
    <glyph glyph-name="b" unicode="b" horiz-adv-x="298" 
d="M312 206q-91 -210 -199 -210q-113 0 -113 226q0 162 15 273q29 211 104 211q24 0 38 -27q12 -21 12 -48q0 -61 -102 -253v-40q18 26 29 35q17 14 43 14q93 0 93 -162q0 -95 -36 -167l2 -12q47 46 104 160h10zM142 640q0 53 -22 53q-45 0 -52 -129q-1 -23 -3 -163
q27 50 50 117q27 78 27 122zM180 155q0 188 -71 188q-48 0 -48 -100v-41q0 -193 52 -193q67 0 67 146z" />
    <glyph glyph-name="c" unicode="c" horiz-adv-x="248" 
d="M103 -3q-53 0 -82 56q-24 46 -24 104q0 70 27 139q35 88 96 91q35 2 57 -16.5t21 -53.5q-1 -65 -54 -67q-20 -1 -34.5 11.5t-14.5 32.5q0 41 36 41q-3 -10 -3 -18q0 -20 19 -21q30 -1 30 32q0 19 -14.5 32t-33.5 13q-54 0 -71 -59q-9 -31 -9 -103q0 -45 18 -95
q24 -66 59 -65q67 1 124 154h10q-14 -61 -53 -125q-51 -83 -104 -83z" />
    <glyph glyph-name="d" unicode="d" horiz-adv-x="316" 
d="M164 170q-3 117 -4 121q-11 84 -55 84q-34 0 -47 -57l-10 -83q0 -195 61 -195q34 0 46 52q3 13 9 78zM108 386q23 1 42 -26q8 -15 15 -29v277q-2 17 5.5 25t24.5 8q20 0 26 -16q1 -8 3 -17v-521q-1 -6 -1 -10q0 -14 17 -17q10 0 41 66q13 27 38 82l9 -2
q-84 -214 -126 -214q-26 0 -40 69q-13 -22 -26 -43q-19 -24 -52 -23q-48 2 -70 79q-15 52 -15 121q0 68 22 120q29 69 87 71z" />
    <glyph glyph-name="e" unicode="e" horiz-adv-x="200" 
d="M209 205q-3 -50 -45 -125q-47 -84 -92 -84q-68 0 -74 136q-4 84 21 160q30 92 85 92q39 0 39 -57q0 -61 -94 -169q3 -37 14 -68q16 -44 43 -44q47 0 97 160zM122 335q0 38 -18 38q-32 0 -48 -62q-11 -43 -11 -91q0 -22 2 -48q75 82 75 163z" />
    <glyph glyph-name="f" unicode="f" horiz-adv-x="178" 
d="M194 205q-17 -32 -79 -113q-56 -73 -64 -93l-1 -183q0 -23 -25 -27q-25 0 -25 26l-1 693q0 50 14 103q26 100 87 96q20 -1 33 -20.5t13 -40.5q0 -63 -39 -157q-30 -73 -56 -109q-1 1 81 1v-23h-81v-326l61 82q60 81 66 91q2 -1 4 -1q4 1 9 3q2 -1 3 -2zM117 638
q0 53 -28 53q-14 0 -27 -39q-11 -34 -11 -54v-183q66 127 66 223z" />
    <glyph glyph-name="g" unicode="g" horiz-adv-x="296" 
d="M97 383q26 0 50 -20.5t34 -46.5q15 34 16 36q13 21 29 21l2 -9q-15 -15 -18 -27q-2 -8 -2 -32v-274q12 31 43 89l46 85h10q-99 -196 -99 -203q0 -83 -26 -141q-35 -78 -106 -78q-33 0 -57.5 22.5t-24.5 55.5q0 29 17.5 49.5t46.5 20.5q20 0 32.5 -14.5t12.5 -34.5
q0 -42 -33 -42q-28 0 -28 28l9 23q7 -18 19 -18q9 0 19 19q-7 28 -34 28q-19 0 -34.5 -15.5t-15.5 -34.5q0 -32 17 -53q18 -24 49 -24q90 0 90 151v109q0 1 -1 2q22 0 -17.5 -31.5t-55.5 -31.5q-90 0 -90 211q0 61 21 113q27 67 79 67zM94 367q-33 0 -47 -51
q-10 -33 -10 -77q0 -67 12 -122q19 -85 59 -85q53 0 53 163q0 55 -13 103q-19 69 -54 69z" />
    <glyph glyph-name="h" unicode="h" horiz-adv-x="284" 
d="M120 636q0 58 -26 58q-37 0 -43 -105v-199q69 163 69 246zM298 206q-87 -152 -130 -224q-106 -175 -128 -188l-7 7q58 46 91 179q27 108 27 206q0 167 -46 166q-41 -1 -52 -97q-2 -144 0 -221q1 -41 -24 -41q-27 0 -27 39v370q0 132 10 190q20 115 81 115q20 0 34.5 -20
t13.5 -41q-1 -53 -45.5 -162t-44.5 -151v-36q28 88 76 88q46 0 65 -68l10 -71q-7 -99 -17 -218l103 178h10z" />
    <glyph glyph-name="i" unicode="i" horiz-adv-x="148" 
d="M155 205q0 -7 -31 -79l-36 -84q-5 -15 -20.5 -31.5t-29.5 -16.5q-39 0 -39 48v310q-5 32 27 34q25 1 25 -33v-287q0 -31 14 -30q13 1 41 68q14 34 42 101h7zM-4 540q0 29 28 29t28 -29q0 -30 -28 -30t-28 30z" />
    <glyph glyph-name="j" unicode="j" horiz-adv-x="146" 
d="M55 543q0 -9 -9 -18t-18 -9q-10 0 -17.5 9t-7.5 19q0 25 27 25q25 0 25 -26zM-83 -206q0 72 85 160v398q0 34 26 34q28 0 28 -33l1 -309l91 162h11q-32 -57 -103 -188q2 -32 0 -83q-2 -58 -41 -114q-36 -52 -78 -52q-7 0 -13.5 9t-6.5 16zM1 -104v39q-71 -73 -71 -141
q2 -11 10 -11q15 0 44 35q17 21 17 78z" />
    <glyph glyph-name="k" unicode="k" horiz-adv-x="295" 
d="M119 644q0 52 -27 52q-20 0 -31 -59q-8 -43 -8 -76v-168q15 17 41 120q25 100 25 131zM138 313q0 17 -10 31t-26 14q-47 0 -47 -109q0 9 1 -26v-26q82 74 82 116zM305 204q-92 -211 -127 -211q-41 0 -41 74v33q0 82 -35 106q-49 0 -49 -45v-124q0 -27 -1 -29
q-4 -14 -26 -14q-21 0 -25 12q-1 3 -1 31v445q0 69 15 126q25 97 83 98q23 1 35 -21q11 -18 11 -42q0 -86 -63 -221q-2 -5 -14.5 -30.5t-12.5 -26.5v-37q31 56 78 56q24 0 39 -17t15 -41q0 -40 -94 -105q62 2 84 -45q11 -25 13 -87q1 -47 17 -47q7 0 44 73l45 89h10z" />
    <glyph glyph-name="l" unicode="l" horiz-adv-x="176" 
d="M69 -5q-69 0 -69 246q0 121 23 262q34 207 94 207q22 0 34 -19t12 -42q0 -70 -45 -172l-57 -123q-2 -6 -2 -101q0 -220 28 -220q12 0 50 78q28 57 43 99h7q0 -40 -43 -125q-46 -90 -75 -90zM136 637q0 61 -23 61q-28 0 -40 -90q-3 -20 -9 -114q-2 -30 -2 -117
q15 31 43 125q31 104 31 135z" />
    <glyph glyph-name="m" unicode="m" horiz-adv-x="457" 
d="M469 205q-74 -208 -125 -208q-40 0 -40 59l1 263q0 21 -10 21q-18 0 -31 -36q-50 -133 -57 -205v-80q0 -16 -29 -24q-26 3 -26 24v303q0 15 -13 15q-6 0 -11 -11q-4 -7 -7 -15q-20 -32 -41 -98q-19 -60 -26 -105q-1 -2 -1 -83q-3 -26 -29 -26q-28 0 -28 26v326
q0 33 24 33q29 0 29 -24q0 -5 -1 -11l-3 -200q8 55 41 133q42 101 81 102q24 1 32 -30q4 -15 7 -71q3 -58 -3 -137q11 44 36 133q34 105 85 105q28 0 34 -57q1 -13 1 -77l-1 -159q0 -48 20 -48q12 3 38 63l42 100z" />
    <glyph glyph-name="n" unicode="n" horiz-adv-x="308" 
d="M315 206q-1 -10 -41 -97t-47 -96q-13 -16 -35 -16q-41 0 -41 52v271q0 15 -4 17l-10 -1q-10 -1 -43 -87q-28 -72 -40 -108v-117q-1 -7 -1 -15q-6 -14 -29 -14q-8 0 -17 9t-9 17v329q0 32 28 32t28 -32v-179q10 32 70 176q15 36 42 37q38 1 38 -48l1 -276q0 -17 15 -17
q13 0 46 73l41 90h8z" />
    <glyph glyph-name="o" unicode="o" horiz-adv-x="290" 
d="M298 203q-22 -72 -74 -134q-63 -76 -128 -76q-50 0 -76 56q-21 43 -21 99q0 82 21 143q31 89 96 89q55 0 80 -66q18 -46 18 -112q0 -31 -9 -80q-10 -57 -24 -74q67 57 107 158zM175 118q0 71 -16 136q-23 95 -72 95q-53 0 -53 -116q0 -63 19 -127q27 -90 74 -90
q48 0 48 102z" />
    <glyph glyph-name="p" unicode="p" horiz-adv-x="295" 
d="M182 34q32 23 116 170q2 1 8 1q-32 -73 -72 -128q-60 -83 -111 -83q-37 0 -63 50v-222q0 -17 -26 -28q-9 3 -17 5q-17 8 -17 21v544q0 48 32 48q21 0 25 -16q1 -4 1 -32v-57q15 39 24 51q20 28 50 28q51 0 74 -65q16 -45 16 -108q0 -127 -40 -179zM179 156q0 57 -11 108
q-17 76 -53 76q-23 0 -39.5 -21t-16.5 -45v-112q0 -70 7 -98q15 -58 64 -58t49 150z" />
    <glyph glyph-name="q" unicode="q" horiz-adv-x="317" 
d="M329 204q-53 -107 -109 -217v-171q0 -32 -26 -32q-29 0 -29 32v238q-28 -61 -74 -61q-86 0 -91 200l6 57q20 137 110 137q42 0 80 -61q20 57 44 55q-18 -21 -18 -53v-307l95 183h12zM167 134q0 109 -3 141q-10 104 -50 104q-48 0 -61 -87q-4 -27 -4 -125q0 -40 15 -82
q19 -54 50 -54q53 0 53 103z" />
    <glyph glyph-name="r" unicode="r" horiz-adv-x="228" 
d="M174 73q-13 -30 -29 -30q-27 0 -27 74q0 77 37 218q10 39 39 78h-7q-12 -20 -46 -45q-37 -26 -58 -26q-14 0 -14 16q0 8 26.5 23t26.5 39q0 30 -24 30q-19 0 -33.5 -14t-14.5 -33q-1 -49 -21 -109q-8 -26 -29 -88h9q48 135 49 142q11 -13 28 -13q23 0 66 27
q-5 -11 -14 -25q-31 -49 -52 -117t-21 -125q0 -101 50 -103q38 -1 81 102q14 37 43 112h-9q-31 -77 -56 -133z" />
    <glyph glyph-name="s" unicode="s" horiz-adv-x="251" 
d="M92 367q32 -133 32 -241q0 -124 -57 -124q-17 0 -30 15t-13 33q0 38 29 38q18 0 18 -15q0 -16 -19 -16q-8 0 -11 5q-3 -7 -3 -13q0 -26 28 -26q11 0 18.5 11t7.5 22q0 16 -10.5 28t-26.5 12q-39 0 -41 -45q-1 -22 15 -39t38 -18q73 -4 131 71q46 58 68 141q-2 0 -4 1
q-5 -2 -6 -1q-16 -56 -46 -104q-36 -56 -79 -79q54 73 54 145q0 55 -35 127q-40 82 -43 100q-3 19 18 53q-8 4 -10 4l-114 -247l12 -1q19 53 79 163z" />
    <glyph glyph-name="t" unicode="t" horiz-adv-x="161" 
d="M170 206l-91 -191q-13 -28 -40 -28q-31 0 -38 26q-1 4 -1 27v461q0 16 21 44q12 13 23 27q4 2 9 -4l1 -188q42 -1 64 0v-20h-63v-61q0 -134 1 -233q1 -7 1 -13q3 -11 11 -11q13 0 26 32q5 13 34.5 70.5t33.5 61.5h8z" />
    <glyph glyph-name="u" unicode="u" horiz-adv-x="301" 
d="M313 206l-68 -153q-25 -56 -58 -56q-40 0 -40 56v176q-1 -3 -13 -45q-24 -86 -47 -145q-18 -45 -50 -45q-37 0 -37 46v314q0 30 26 30q14 0 22.5 -11.5t4.5 -15.5v-298q-2 -19 12 -19t27 43q19 59 56 180l2 87q1 33 26 33q11 0 20.5 -16t6.5 -16v-295q6 -13 15 -13
q7 0 14 7q4 4 71 156q2 1 10 0z" />
    <glyph glyph-name="v" unicode="v" horiz-adv-x="275" 
d="M283 207q-10 -67 -68 -137q-67 -80 -137 -75q-33 3 -55.5 26.5t-22.5 55.5l-1 276q0 36 29 36q26 0 26 -39v-263q0 -24 10 -49q13 -31 34 -31q37 0 55 75q12 50 12 104q0 49 -9 88q-15 62 -49 62q-8 0 -16 -3q0 20 12 38.5t30 18.5q69 0 69 -169q0 -114 -30 -165
q-15 -26 -18 -27q18 12 54 49q48 72 66 129q9 1 9 0z" />
    <glyph glyph-name="w" unicode="w" horiz-adv-x="420" 
d="M181 205q-4 15 -4 38q0 130 33 130q12 0 12 -29t-12 -73q-13 -48 -29 -66zM434 206q-27 -68 -79 -132q-67 -83 -127 -83q-88 0 -98 129q-12 -25 -36.5 -76t-54.5 -51q-15 0 -27 17.5t-12 33.5v313q0 33 25 33q27 0 27 -30v-288q0 -37 17 -37q8 0 32 48q21 42 26 59
q7 46 24 139q22 105 61 105q21 0 21 -44q0 -73 -52 -156v-22q0 -55 10 -94q16 -62 52 -62q38 0 56 81q12 53 12 115q0 133 -36 133q-6 0 -17 -6q-2 7 -2 15q0 44 32 44q60 0 60 -145q0 -101 -56 -217q34 19 75 80q36 52 55 98h12z" />
    <glyph glyph-name="x" unicode="x" horiz-adv-x="330" 
d="M72 58q0 -30 -26 -30q-11 0 -18 10q10 10 10 21q0 13 -13 13q-21 0 -21 -28q0 -43 44 -42q32 1 63 76q25 61 24 81q0 9 -25 75.5t-33 81.5q-6 12 -15 12q-11 0 -21 -24q-6 -17 -11 -34l-23 -64h-10q22 70 58 162q12 18 31 17q29 -2 37 -30t35 -95v0q10 46 31 79
q27 45 65 45q18 0 31.5 -13t13.5 -31q0 -43 -40 -43q-11 0 -20 9t-9 20q0 31 25 29q15 -1 15 -17q0 -11 -7 -15l-14 -8q2 -9 14 -9q27 0 27 33q0 35 -37 35q-33 0 -58 -47q-9 -17 -25 -63q-5 -15 -5 -20q0 -4 54 -147q17 -46 29 -46q13 1 29 46q5 16 55 109h8
q-5 -12 -31 -73q-34 -80 -57 -119q-12 -21 -34 -21q-16 0 -29 25q-7 20 -12 31q-14 35 -33 94q-3 -6 -14 -39q-37 -113 -87 -110q-47 -3 -47 48q0 20 12.5 34t32.5 14q31 0 31 -32z" />
    <glyph glyph-name="y" unicode="y" horiz-adv-x="307" 
d="M215 22q0 -85 -66 -160q-50 -56 -81 -65l-2 6q70 61 87 105q13 34 13 133v107v96l-48 -141q-39 -108 -70 -111q-41 -3 -41 57v307q0 28 25 28q28 0 28 -30v-268q0 -41 15 -39q13 2 26 43q1 4 36 102q25 70 29 84v79q0 27 25 29q24 -2 24 -29v-310q31 41 98 160q1 3 6 1
q5 -1 6 -1q-30 -53 -110 -183z" />
    <glyph glyph-name="z" unicode="z" horiz-adv-x="293" 
d="M133 387q24 0 30 -18q2 -15 4 -31q5 -20 17 -20q14 0 35 34q28 44 29 45q7 1 7 -7q0 -4 -111 -185q30 3 42.5 9.5t32.5 30.5l3 -4q0 -27 -36 -49q-27 -16 -61 -23l-56 -89q25 13 49 13q27 0 44 -29t25 -29q24 0 110 173h7q-19 -57 -58 -125q-52 -90 -89 -90
q-22 0 -50.5 35.5t-37.5 35.5q-12 0 -28.5 -37t-26.5 -37q-9 0 -9 10q0 -4 104 168q-50 -3 -58 -25l-7 3q-1 16 31.5 37.5t49.5 20.5l63 95q-34 -10 -31 -10q-23 0 -33 14q-4 6 -8 28q-3 14 -11 14q-13 0 -97 -140h-10q98 182 135 182z" />
    <glyph glyph-name="braceleft" unicode="{" horiz-adv-x="236" 
d="M72 256v-288q0 -55 28 -94q32 -44 85 -37q-5 3 -5 6t5 6q-51 21 -65 52q-8 18 -8 67v288q6 37 -76 91q83 78 77 115v289q0 50 7 66q14 32 66 53q-5 2 -5 5q0 4 5 7q-53 5 -85 -38q-28 -38 -28 -93v-289q4 -30 -17.5 -66.5t-49.5 -48.5q23 -16 47 -33q19 -19 19 -58z" />
    <glyph glyph-name="bar" unicode="|" horiz-adv-x="527" 
d="M278 847v-872h-10v872h10z" />
    <glyph glyph-name="braceright" unicode="}" horiz-adv-x="236" 
d="M120 256v-288q0 -55 -28 -94q-32 -44 -85 -37q5 3 5 6t-5 6q51 21 65 52q8 18 8 67v288q-6 37 76 91q-83 78 -77 115v289q0 48 -8 66q-14 32 -65 53q5 2 5 5q0 4 -5 7q53 5 85 -38q28 -38 28 -93v-289q-5 -30 17 -66.5t50 -48.5q-38 -25 -47 -36q-19 -21 -19 -55z" />
    <glyph glyph-name="asciitilde" unicode="~" horiz-adv-x="814" 
d="M648 817q-34 -62 -111 -62q-24 0 -54 10.5t-56 10.5q-23 0 -46 -19l-5 2q13 23 42.5 40.5t54.5 15.5q16 -2 52 -14t49 -12q28 0 67 33q8 -4 7 -5z" />
    <glyph glyph-name="Adieresis" unicode="&#xc4;" horiz-adv-x="611" 
d="M532 -6q-36 -3 -77 68q-20 36 -61 137q-32 80 -48 90q-35 -8 -66 -8q-11 0 -21 1q-10 -37 -33 -111q-58 -179 -146 -179q-35 0 -58 30t-23 66q0 23 11.5 42.5t32.5 19.5q29 0 29 -40q0 -21 -16 -47.5t-16 -31.5q0 -26 45 -26q88 0 118 285q-106 11 -106 53q0 23 30 37
q24 12 49 12q23 0 43 -9q20 165 99 249q-16 4 -34 4q-23 0 -69.5 -8.5t-70.5 -8.5q-56 1 -81 31q-10 13 -26 59q32 -34 83 -34q33 0 96 16t96 16q130 0 151 -219q3 -47 10 -142q59 38 59 115q0 58 -40 86v1l1 1q83 0 83 -85q0 -46 -26 -80q-19 -25 -47 -39q-9 -5 -29 -13v2
q6 -74 18 -165q21 -157 43 -156q30 2 55 86q6 21 27 107l10 -4q-9 -58 -28 -116q-30 -89 -67 -92zM420 323l-25 165q-26 116 -65 139q-23 -18 -44 -128q-19 -98 -16 -135q47 -18 87 -62q21 5 63 21zM457 89q-13 72 -34 220q-31 -6 -58 -17q19 -23 49 -100q35 -90 43 -103z
M336 301q-23 22 -68 49q0 -11 -6 -53q11 -3 39 -2q31 1 35 6zM215 370q-9 6 -23 6q-45 0 -45 -34q0 -13 30 -28.5t31 -11.5q2 5 7 68zM351 771q0 14 9.5 25t23.5 11t23.5 -11t9.5 -25q0 -36 -33 -36t-33 36zM221 771q0 14 9.5 25t23.5 11t23.5 -11t9.5 -25q0 -36 -33 -36
t-33 36z" />
    <glyph glyph-name="Aring" unicode="&#xc5;" horiz-adv-x="611" 
d="M532 -6q-36 -3 -77 68q-20 36 -61 137q-32 80 -48 90q-35 -8 -66 -8q-11 0 -21 1q-10 -37 -33 -111q-58 -179 -146 -179q-35 0 -58 30t-23 66q0 23 11.5 42.5t32.5 19.5q29 0 29 -40q0 -21 -16 -47.5t-16 -31.5q0 -26 45 -26q88 0 118 285q-106 11 -106 53q0 23 30 37
q24 12 49 12q23 0 43 -9q20 165 99 249q-16 4 -34 4q-23 0 -69.5 -8.5t-70.5 -8.5q-56 1 -81 31q-10 13 -26 59q32 -34 83 -34q33 0 96 16t96 16q130 0 151 -219q3 -47 10 -142q59 38 59 115q0 58 -40 86v1l1 1q83 0 83 -85q0 -46 -26 -80q-19 -25 -47 -39q-9 -5 -29 -13v2
q6 -74 18 -165q21 -157 43 -156q30 2 55 86q6 21 27 107l10 -4q-9 -58 -28 -116q-30 -89 -67 -92zM420 323l-25 165q-26 116 -65 139q-23 -18 -44 -128q-19 -98 -16 -135q47 -18 87 -62q21 5 63 21zM457 89q-13 72 -34 220q-31 -6 -58 -17q19 -23 49 -100q35 -90 43 -103z
M336 301q-23 22 -68 49q0 -11 -6 -53q11 -3 39 -2q31 1 35 6zM215 370q-9 6 -23 6q-45 0 -45 -34q0 -13 30 -28.5t31 -11.5q2 5 7 68zM315 731q-25 0 -43.5 18.5t-18.5 43.5q0 26 18 44t44 18t44 -18t18 -44t-18 -44t-44 -18zM315 833q-17 0 -28 -11.5t-11 -28.5
q0 -16 11.5 -27.5t27.5 -11.5q17 0 28.5 11t11.5 28t-11.5 28.5t-28.5 11.5z" />
    <glyph glyph-name="Ccedilla" unicode="&#xc7;" horiz-adv-x="532" 
d="M482 166q-2 -87 -60.5 -138t-147.5 -52l-4 -29q34 -4 56 -25.5t19 -55.5q-2 -32 -31.5 -52t-63.5 -20q-39 0 -68 26l15 16q11 -10 16 -11q19 -5 33 -5q55 0 55 50q0 21 -12.5 39.5t-32.5 18.5h-10l8 49q-253 11 -253 364q0 147 72 254q82 121 221 121q75 0 121 -33
q53 -38 53 -110q0 -62 -42.5 -110.5t-104.5 -52.5q-42 -2 -87 29q-50 35 -50 84q0 39 31 71.5t70 32.5q8 0 17 -2v-7q-80 -11 -80 -97q0 -42 28.5 -69t70.5 -27q48 0 76 42q24 36 24 87q0 62 -31 103q-34 46 -94 46q-121 0 -177 -129q-41 -94 -41 -233q0 -124 39 -219
q53 -129 160 -129q155 0 155 170q0 62 -37 106t-98 44q-38 0 -62 -35q-22 -31 -22 -70t23 -73q25 -38 62 -38q21 0 48 20l6 -8q-30 -31 -55 -31q-51 0 -85.5 34.5t-34.5 85.5q0 52 37.5 90.5t89.5 40.5q80 3 130 -40.5t48 -122.5z" />
    <glyph glyph-name="Eacute" unicode="&#xc9;" horiz-adv-x="485" 
d="M435 149q0 -74 -52 -114q-46 -36 -122 -36q-103 0 -180 58q-85 64 -85 165q0 115 124 180q-92 70 -92 161q0 79 63 118q51 32 135 32q51 0 96 -31q50 -34 50 -83q0 -83 -99 -83q-34 0 -59 21t-25 54q0 22 20 35q17 11 40 11q13 0 30 -8q-32 0 -46 -10t-14 -41
q0 -20 16.5 -37.5t36.5 -17.5q32 0 51.5 20t19.5 52q0 50 -34.5 78t-85.5 28q-59 0 -96 -40t-37 -99q0 -85 53 -147q25 18 96 18q92 0 92 -44q0 -33 -55 -33q-29 0 -75 12q-50 13 -67 29q-67 -67 -67 -148q0 -101 52 -168q57 -74 155 -74q52 0 89 46q33 43 33 97
q0 46 -31.5 78t-77.5 32q-38 0 -61.5 -26.5t-23.5 -65.5q0 -24 16 -43.5t39 -19.5q22 0 37.5 14t15.5 36q0 47 -50 48v7q0 1 2 2q26 6 52 -17t26 -49t-28 -40q-22 -11 -52 -11q-35 0 -66 23t-31 57q0 44 41 71q36 24 82 24q55 0 100 -32q49 -36 49 -89zM287 398q0 25 -56 25
q-19 0 -44 -4q-35 -6 -36 -16q62 -33 97 -33q39 0 39 28zM164 735l-6 9l88 88q9 7 24 4q14 -2 14 -17q3 -3 0 -12q-4 -11 -9 -12.5t-111 -59.5z" />
    <glyph glyph-name="Ntilde" unicode="&#xd1;" horiz-adv-x="651" 
d="M650 190q-21 -40 -63 -118q-50 -88 -81 -88q-81 0 -100 243q-2 25 -2 41q0 85 27 221q23 113 21 115q-17 22 -26 31q-16 16 -35 21q-24 0 -37 -31q-6 -24 -15 -54q-37 -125 -86 -392q-48 -259 -88 -391h-16l5 18q47 169 47 429v135q0 70 -18 149q-25 109 -72 109
q-26 0 -77 -12.5t-77 -12.5q-87 0 -123 89l10 3q19 -30 76 -30q35 0 102.5 24.5t102.5 24.5q111 0 131 -197q3 -41 10 -123q14 63 45 187q36 127 107 127q25 0 47.5 -14.5t30.5 -37.5q18 17 35 34q23 19 61 22q16 1 30.5 -10.5t14.5 -26.5q0 -93 -112 -93q-19 0 -41 3
l-18 -135q-11 -82 -11 -136q0 -64 20 -145q26 -107 70 -107q15 0 47 51q16 26 49 78l5 5q2 -4 4 -6zM608 662q0 21 -28 21q-14 0 -40 -22t-27 -36q19 -12 23 -14h26q10 0 23 10t18 21t5 20zM478 817q-34 -62 -111 -62q-24 0 -54 10.5t-56 10.5q-23 0 -46 -19l-5 2
q13 23 42.5 40.5t54.5 15.5q16 -2 52 -14t49 -12q28 0 67 33q8 -4 7 -5z" />
    <glyph glyph-name="Odieresis" unicode="&#xd6;" horiz-adv-x="526" 
d="M475 323q0 -124 -45 -217q-58 -119 -168 -119q-131 0 -199 134q-54 106 -54 250q0 125 67 230q76 119 195 119q81 0 134.5 -50t59.5 -130q2 -20 -8 -43l-12 -22q30 -81 30 -152zM430 378q0 53 -14 80q-26 -12 -37 -12q-40 0 -80 51l6 10q30 -33 57 -33q23 0 47 22
q-41 63 -82 63q-89 0 -119 -101q-17 -57 -17 -174q0 -42 15 -75q19 -42 56 -42q86 0 86 158q0 33 -4 60l10 3q10 -33 10 -67q0 -56 -23 -105q-29 -62 -79 -62q-58 0 -88 72q-23 55 -23 121q0 78 36 149q43 85 114 85q44 0 69 -16q14 -9 50 -50q6 21 6 39q0 66 -42 109
t-108 43q-106 0 -163 -156q-43 -117 -43 -245q0 -109 30 -189q43 -114 134 -114q107 0 159 143q37 101 37 233zM291 781q0 14 9.5 25t23.5 11t23.5 -11t9.5 -25q0 -36 -33 -36t-33 36zM161 781q0 14 9.5 25t23.5 11t23.5 -11t9.5 -25q0 -36 -33 -36t-33 36z" />
    <glyph glyph-name="Udieresis" unicode="&#xdc;" horiz-adv-x="675" 
d="M676 186l6 -4q-97 -185 -130 -185q-55 0 -75 109q-7 46 -20 137q-14 -49 -44 -146q-39 -114 -111 -114q-63 0 -87 84q-18 62 -14 112l24 300q4 51 -10 90q-19 53 -79 53q-19 0 -64 -12t-65 -12q-41 0 -73.5 23t-38.5 63q40 -29 70 -29q21 0 94.5 24t107.5 24
q64 0 103 -61q32 -50 32 -106q0 -68 -34.5 -212.5t-34.5 -215.5q0 -33 10 -60q17 -47 57 -47q70 0 104 112q8 26 27 92q8 32 18 112.5t15 113.5q9 56 38 142q45 134 126 134q24 0 45 -17q3 -5 3 -12q0 -8 -4 -19q-20 -12 -38 -12q-8 0 -32 8t-32 8q-18 0 -36 -47
q-31 -80 -31 -220q0 -145 35 -251q27 -81 54 -81q20 0 84 122zM411 771q0 14 9.5 25t23.5 11t23.5 -11t9.5 -25q0 -36 -33 -36t-33 36zM281 771q0 14 9.5 25t23.5 11t23.5 -11t9.5 -25q0 -36 -33 -36t-33 36z" />
    <glyph glyph-name="aacute" unicode="&#xe1;" horiz-adv-x="318" 
d="M325 207q-81 -213 -113 -213q-26 0 -36 16q-2 4 -12 39l-22 -32q-17 -25 -54 -25q-48 0 -72 66q-17 47 -17 106q0 70 26 137q34 88 91 88q48 0 81 -56q6 11 18 32t24 21q3 0 3 -5q-26 -33 -26 -73l-1 -216q0 -35 12 -48q15 10 45 75q36 78 42 88h11zM165 158
q0 215 -54 215q-61 0 -61 -136q0 -64 10 -116q16 -85 54 -85q51 0 51 122zM84 425l-6 9l88 88q9 7 24 4q14 -2 14 -17q3 -3 0 -12q-4 -11 -9 -12.5t-111 -59.5z" />
    <glyph glyph-name="agrave" unicode="&#xe0;" horiz-adv-x="318" 
d="M325 207q-81 -213 -113 -213q-26 0 -36 16q-2 4 -12 39l-22 -32q-17 -25 -54 -25q-48 0 -72 66q-17 47 -17 106q0 70 26 137q34 88 91 88q48 0 81 -56q6 11 18 32t24 21q3 0 3 -5q-26 -33 -26 -73l-1 -216q0 -35 12 -48q15 10 45 75q36 78 42 88h11zM165 158
q0 215 -54 215q-61 0 -61 -136q0 -64 10 -116q16 -85 54 -85q51 0 51 122zM176 425l6 9l-88 88q-9 7 -24 4q-14 -2 -14 -17q-3 -3 0 -12q3 -11 8.5 -12.5t111.5 -59.5z" />
    <glyph glyph-name="acircumflex" unicode="&#xe2;" horiz-adv-x="318" 
d="M325 207q-81 -213 -113 -213q-26 0 -36 16q-2 4 -12 39l-22 -32q-17 -25 -54 -25q-48 0 -72 66q-17 47 -17 106q0 70 26 137q34 88 91 88q48 0 81 -56q6 11 18 32t24 21q3 0 3 -5q-29 -35 -28 -79q0 6 -2 -216q0 -26 15 -42q15 10 45 75q36 78 42 88h11zM165 158
q0 215 -54 215q-61 0 -61 -136q0 -64 10 -116q16 -85 54 -85q51 0 51 122zM122 478zM130 519h-16l-96 -85l6 -9l98 53q27 -14 97 -53l7 9q-48 43 -96 85z" />
    <glyph glyph-name="adieresis" unicode="&#xe4;" horiz-adv-x="318" 
d="M325 207q-81 -213 -113 -213q-26 0 -36 16q-2 4 -12 39l-22 -32q-17 -25 -54 -25q-48 0 -72 66q-17 47 -17 106q0 70 26 137q34 88 91 88q48 0 81 -56q6 11 18 32t24 21q3 0 3 -5q-26 -33 -26 -73l-1 -216q0 -35 12 -48q15 10 45 75q36 78 42 88h11zM165 158
q0 215 -54 215q-61 0 -61 -136q0 -64 10 -116q16 -85 54 -85q51 0 51 122zM151 461q0 14 9.5 25t23.5 11t23.5 -11t9.5 -25q0 -36 -33 -36t-33 36zM41 461q0 14 9.5 25t23.5 11t23.5 -11t9.5 -25q0 -36 -33 -36t-33 36z" />
    <glyph glyph-name="atilde" unicode="&#xe3;" horiz-adv-x="318" 
d="M325 207q-81 -213 -113 -213q-26 0 -36 16q-2 4 -12 39l-22 -32q-17 -25 -54 -25q-48 0 -72 66q-17 47 -17 106q0 70 26 137q34 88 91 88q48 0 81 -56q6 11 18 32t24 21q3 0 3 -5q-26 -33 -26 -73l-1 -216q0 -35 12 -48q15 10 45 75q36 78 42 88h11zM165 158
q0 215 -54 215q-61 0 -61 -136q0 -64 10 -116q16 -85 54 -85q51 0 51 122zM241 497q-27 -62 -89 -62q-19 0 -43 10.5t-45 10.5q-16 0 -27 -9l-10 -10l-3 2q9 22 32.5 40.5t44.5 15.5q14 -2 43 -14t38 -12q5 0 11 2q17 4 42 31q7 -4 6 -5z" />
    <glyph glyph-name="aring" unicode="&#xe5;" horiz-adv-x="318" 
d="M325 207q-81 -213 -113 -213q-26 0 -36 16q-2 4 -12 39l-22 -32q-17 -25 -54 -25q-48 0 -72 66q-17 47 -17 106q0 70 26 137q34 88 91 88q48 0 81 -56q6 11 18 32t24 21q3 0 3 -5q-26 -33 -26 -73l-1 -216q0 -35 12 -48q15 10 45 75q36 78 42 88h11zM165 158
q0 215 -54 215q-61 0 -61 -136q0 -64 10 -116q16 -85 54 -85q51 0 51 122zM125 421q-25 0 -43.5 18.5t-18.5 43.5q0 26 18 44t44 18t44 -18t18 -44t-18 -44t-44 -18zM125 523q-17 0 -28 -11.5t-11 -28.5q0 -16 11.5 -27.5t27.5 -11.5q17 0 28.5 11t11.5 28t-11.5 28.5
t-28.5 11.5z" />
    <glyph glyph-name="ccedilla" unicode="&#xe7;" horiz-adv-x="246" 
d="M85 -2q-46 8 -71 61q-20 44 -20 97q0 73 26 139q35 87 97 91q34 2 56.5 -17t21.5 -53q-1 -64 -55 -68q-19 -1 -33.5 12.5t-14.5 32.5q0 41 36 41q-3 -10 -3 -18q0 -20 18 -21q30 -1 30 31q0 19 -14 32.5t-33 13.5q-54 0 -71 -59q-9 -31 -9 -103q0 -44 18 -95
q24 -66 59 -65q67 2 124 154h10q-14 -62 -52 -124q-49 -82 -102 -84l-5 -27q28 -3 45.5 -20.5t15.5 -44.5q-2 -26 -25.5 -42t-50.5 -16q-31 0 -54 21l12 13q8 -8 12 -9q15 -4 27 -4q43 0 43 41q0 17 -10 31t-26 14l-8 1z" />
    <glyph glyph-name="eacute" unicode="&#xe9;" horiz-adv-x="200" 
d="M209 205q-3 -50 -45 -125q-47 -84 -92 -84q-68 0 -74 136q-4 84 21 160q30 92 85 92q39 0 39 -57q0 -61 -94 -169q3 -37 14 -68q16 -44 43 -44q47 0 97 160zM122 335q0 38 -18 38q-32 0 -48 -62q-11 -43 -11 -91q0 -22 2 -48q75 82 75 163zM34 425l-6 9l88 88q9 7 24 4
q14 -2 14 -17q3 -3 0 -12q-4 -11 -9 -12.5t-111 -59.5z" />
    <glyph glyph-name="egrave" unicode="&#xe8;" horiz-adv-x="200" 
d="M209 205q-3 -50 -45 -125q-47 -84 -92 -84q-68 0 -74 136q-4 84 21 160q30 92 85 92q39 0 39 -57q0 -61 -94 -169q3 -37 14 -68q16 -44 43 -44q47 0 97 160zM122 335q0 38 -18 38q-32 0 -48 -62q-11 -43 -11 -91q0 -22 2 -48q75 82 75 163zM146 425l6 9l-88 88
q-9 7 -24 4q-14 -2 -14 -17q-3 -3 0 -12q3 -11 8.5 -12.5t111.5 -59.5z" />
    <glyph glyph-name="ecircumflex" unicode="&#xea;" horiz-adv-x="200" 
d="M209 205q-3 -50 -45 -125q-47 -84 -92 -84q-68 0 -74 136q-4 84 21 160q30 92 85 92q39 0 39 -57q0 -61 -94 -169q3 -37 14 -68q16 -44 43 -44q47 0 97 160zM122 335q0 38 -18 38q-32 0 -48 -62q-11 -43 -11 -91q0 -22 2 -48q75 82 75 163zM92 478zM100 519h-16l-96 -85
l6 -9l98 53q27 -14 97 -53l7 9q-48 43 -96 85z" />
    <glyph glyph-name="edieresis" unicode="&#xeb;" horiz-adv-x="200" 
d="M209 205q-3 -50 -45 -125q-47 -84 -92 -84q-68 0 -74 136q-4 84 21 160q30 92 85 92q39 0 39 -57q0 -61 -94 -169q3 -37 14 -68q16 -44 43 -44q47 0 97 160zM122 335q0 38 -18 38q-32 0 -48 -62q-11 -43 -11 -91q0 -22 2 -48q75 82 75 163zM121 461q0 14 9.5 25t23.5 11
t23.5 -11t9.5 -25q0 -36 -33 -36t-33 36zM11 461q0 14 9.5 25t23.5 11t23.5 -11t9.5 -25q0 -36 -33 -36t-33 36z" />
    <glyph glyph-name="iacute" unicode="&#xed;" horiz-adv-x="148" 
d="M155 205q0 -7 -31 -79l-36 -84q-5 -15 -20.5 -31.5t-29.5 -16.5q-39 0 -39 48v310q-5 32 27 34q25 1 25 -33v-287q0 -31 14 -30q13 1 41 68q14 34 42 101h7zM-36 425l-6 9l88 88q9 7 24 4q14 -2 14 -17q3 -3 0 -12q-4 -11 -9 -12.5t-111 -59.5z" />
    <glyph glyph-name="igrave" unicode="&#xec;" horiz-adv-x="148" 
d="M155 205q0 -7 -31 -79l-36 -84q-5 -15 -20.5 -31.5t-29.5 -16.5q-39 0 -39 48v310q-5 32 27 34q25 1 25 -33v-287q0 -31 14 -30q13 1 41 68q14 34 42 101h7zM86 425l6 9l-88 88q-9 7 -24 4q-14 -2 -15 -17q-2 -4 1 -13.5t8.5 -11t111.5 -59.5z" />
    <glyph glyph-name="icircumflex" unicode="&#xee;" horiz-adv-x="148" 
d="M155 205q0 -7 -31 -79l-36 -84q-5 -15 -20.5 -31.5t-29.5 -16.5q-39 0 -39 48v310q-5 32 27 34q25 1 25 -33v-287q0 -31 14 -30q13 1 41 68q14 34 42 101h7zM22 478zM30 519h-16l-96 -85l6 -9l98 53q27 -14 97 -53l7 9q-48 43 -96 85z" />
    <glyph glyph-name="idieresis" unicode="&#xef;" horiz-adv-x="148" 
d="M155 205q0 -7 -31 -79l-36 -84q-5 -15 -20.5 -31.5t-29.5 -16.5q-39 0 -39 48v310q-5 32 27 34q25 1 25 -33v-287q0 -31 14 -30q13 1 41 68q14 34 42 101h7zM41 461q0 14 9.5 25t23.5 11t23.5 -11t9.5 -25q0 -36 -33 -36t-33 36zM-59 461q0 14 9.5 25t23.5 11t23.5 -11
t9.5 -25q0 -36 -33 -36t-33 36z" />
    <glyph glyph-name="ntilde" unicode="&#xf1;" horiz-adv-x="308" 
d="M315 206q-1 -10 -41 -97t-47 -96q-13 -16 -35 -16q-41 0 -41 52v271q0 15 -4 17l-10 -1q-10 -1 -43 -87q-28 -72 -40 -108v-117q-1 -7 -1 -15q-6 -14 -29 -14q-8 0 -17 9t-9 17v329q0 32 28 32t28 -32v-179q10 32 70 176q15 36 42 37q38 1 38 -48l1 -276q0 -17 15 -17
q13 0 46 73l41 90h8zM221 497q-27 -62 -89 -62q-19 0 -43 10.5t-45 10.5q-16 0 -27 -9l-10 -10l-3 2q9 22 32.5 40.5t44.5 15.5q14 -2 43 -14t38 -12q5 0 11 2q17 4 42 31q7 -4 6 -5z" />
    <glyph glyph-name="oacute" unicode="&#xf3;" horiz-adv-x="290" 
d="M298 203q-22 -72 -74 -134q-63 -76 -128 -76q-50 0 -76 56q-21 43 -21 99q0 82 21 143q31 89 96 89q55 0 80 -66q18 -46 18 -112q0 -31 -9 -80q-10 -57 -24 -74q67 57 107 158zM175 118q0 71 -16 136q-23 95 -72 95q-53 0 -53 -116q0 -63 19 -127q27 -90 74 -90
q48 0 48 102zM74 425l-6 9l88 88q9 7 24 4q14 -2 14 -17q3 -3 0 -12q-4 -11 -9 -12.5t-111 -59.5z" />
    <glyph glyph-name="ograve" unicode="&#xf2;" horiz-adv-x="290" 
d="M298 203q-22 -72 -74 -134q-63 -76 -128 -76q-50 0 -76 56q-21 43 -21 99q0 82 21 143q31 89 96 89q55 0 80 -66q18 -46 18 -112q0 -31 -9 -80q-10 -57 -24 -74q67 57 107 158zM175 118q0 71 -16 136q-23 95 -72 95q-53 0 -53 -116q0 -63 19 -127q27 -90 74 -90
q48 0 48 102zM166 425l6 9l-88 88q-9 7 -24 4q-14 -2 -14 -17q-3 -3 0 -12q3 -11 8.5 -12.5t111.5 -59.5z" />
    <glyph glyph-name="ocircumflex" unicode="&#xf4;" horiz-adv-x="290" 
d="M298 203q-22 -72 -74 -134q-63 -76 -128 -76q-50 0 -76 56q-21 43 -21 99q0 82 21 143q31 89 96 89q55 0 80 -66q18 -46 18 -112q0 -31 -9 -80q-10 -57 -24 -74q67 57 107 158zM175 118q0 71 -16 136q-23 95 -72 95q-53 0 -53 -116q0 -63 19 -127q27 -90 74 -90
q48 0 48 102zM112 478zM120 519h-16l-96 -85l6 -9l98 53q27 -14 97 -53l7 9q-48 43 -96 85z" />
    <glyph glyph-name="odieresis" unicode="&#xf6;" horiz-adv-x="290" 
d="M298 203q-22 -72 -74 -134q-63 -76 -128 -76q-50 0 -76 56q-21 43 -21 99q0 82 21 143q31 89 96 89q55 0 80 -66q18 -46 18 -112q0 -31 -9 -80q-10 -57 -24 -74q67 57 107 158zM175 118q0 71 -16 136q-23 95 -72 95q-53 0 -53 -116q0 -63 19 -127q27 -90 74 -90
q48 0 48 102zM141 461q0 14 9.5 25t23.5 11t23.5 -11t9.5 -25q0 -36 -33 -36t-33 36zM31 461q0 14 9.5 25t23.5 11t23.5 -11t9.5 -25q0 -36 -33 -36t-33 36z" />
    <glyph glyph-name="otilde" unicode="&#xf5;" horiz-adv-x="290" 
d="M298 203q-22 -72 -74 -134q-63 -76 -128 -76q-50 0 -76 56q-21 43 -21 99q0 82 21 143q31 89 96 89q55 0 80 -66q18 -46 18 -112q0 -31 -9 -80q-10 -57 -24 -74q67 57 107 158zM175 118q0 71 -16 136q-23 95 -72 95q-53 0 -53 -116q0 -63 19 -127q27 -90 74 -90
q48 0 48 102zM221 497q-27 -62 -89 -62q-19 0 -43 10.5t-45 10.5q-16 0 -27 -9l-10 -10l-3 2q9 22 32.5 40.5t44.5 15.5q14 -2 43 -14t38 -12q5 0 11 2q17 4 42 31q7 -4 6 -5z" />
    <glyph glyph-name="uacute" unicode="&#xfa;" horiz-adv-x="301" 
d="M313 206l-68 -153q-25 -56 -58 -56q-40 0 -40 56v176q-1 -3 -13 -45q-24 -86 -47 -145q-18 -45 -50 -45q-37 0 -37 46v314q0 30 26 30q14 0 22.5 -11.5t4.5 -15.5v-298q-2 -19 12 -19t27 43q19 59 56 180l2 87q1 33 26 33q11 0 20.5 -16t6.5 -16v-295q6 -13 15 -13
q7 0 14 7q4 4 71 156q2 1 10 0zM54 425l-6 9l88 88q9 7 24 4q14 -2 14 -17q3 -3 0 -12q-4 -11 -9 -12.5t-111 -59.5z" />
    <glyph glyph-name="ugrave" unicode="&#xf9;" horiz-adv-x="301" 
d="M313 206l-68 -153q-25 -56 -58 -56q-40 0 -40 56v176q-1 -3 -13 -45q-24 -86 -47 -145q-18 -45 -50 -45q-37 0 -37 46v314q0 30 26 30q14 0 22.5 -11.5t4.5 -15.5v-298q-2 -19 12 -19t27 43q19 59 56 180l2 87q1 33 26 33q11 0 20.5 -16t6.5 -16v-295q6 -13 15 -13
q7 0 14 7q4 4 71 156q2 1 10 0zM156 425l6 9l-88 88q-9 7 -24 4q-14 -2 -14 -17q-3 -3 0 -12q3 -11 8.5 -12.5t111.5 -59.5z" />
    <glyph glyph-name="ucircumflex" unicode="&#xfb;" horiz-adv-x="301" 
d="M313 206l-68 -153q-25 -56 -58 -56q-40 0 -40 56v176q-1 -3 -13 -45q-24 -86 -47 -145q-18 -45 -50 -45q-37 0 -37 46v314q0 30 26 30q14 0 22.5 -11.5t4.5 -15.5v-298q-2 -19 12 -19t27 43q19 59 56 180l2 87q1 33 26 33q11 0 20.5 -16t6.5 -16v-295q6 -13 15 -13
q7 0 14 7q4 4 71 156q2 1 10 0zM92 478zM100 519h-16l-96 -85l6 -9l98 53q27 -14 97 -53l7 9q-48 43 -96 85z" />
    <glyph glyph-name="udieresis" unicode="&#xfc;" horiz-adv-x="301" 
d="M313 206l-68 -153q-25 -56 -58 -56q-40 0 -40 56v176q-1 -3 -13 -45q-24 -86 -47 -145q-18 -45 -50 -45q-37 0 -37 46v314q0 30 26 30q14 0 22.5 -11.5t4.5 -15.5v-298q-2 -19 12 -19t27 43q19 59 56 180l2 87q1 33 26 33q11 0 20.5 -16t6.5 -16v-295q6 -13 15 -13
q7 0 14 7q4 4 71 156q2 1 10 0zM121 461q0 14 9.5 25t23.5 11t23.5 -11t9.5 -25q0 -36 -33 -36t-33 36zM11 461q0 14 9.5 25t23.5 11t23.5 -11t9.5 -25q0 -36 -33 -36t-33 36z" />
    <glyph glyph-name="dagger" unicode="&#x2020;" horiz-adv-x="20" 
 />
    <glyph glyph-name="degree" unicode="&#xb0;" horiz-adv-x="20" 
 />
    <glyph glyph-name="cent" unicode="&#xa2;" horiz-adv-x="210" 
d="M99 60h-14v76h-1q-43 0 -66 45q-18 36 -18 83q0 54 18 105q23 66 67 77v37h14v-35q27 0 51 -16t26 -41q4 -59 -35 -61q-16 -1 -27.5 9.5t-11.5 26.5q0 32 29 32q-3 -7 -3 -14q0 -17 15 -17q17 -1 17 28q0 15 -19.5 28.5t-35.5 13.5q-11 0 -14 -1q-35 -7 -45 -52
q-5 -22 -5 -77q0 -36 15 -79q20 -56 48 -54q37 2 63 49l9 -6q-55 -75 -78 -81z" />
    <glyph glyph-name="sterling" unicode="&#xa3;" horiz-adv-x="367" 
d="M295 50q-34 -56 -82 -56q-36 0 -70 28q-48 -27 -85 -27q-61 0 -61 42q0 26 30 41q24 11 53 11q40 0 81 -22q20 20 20 47q0 46 -49 90h-88l-6 23l71 -1q-96 60 -95 138q1 59 45 96t104 37q47 0 86 -25q44 -29 44 -73q0 -45 -34 -69q-29 -21 -76 -21q-29 0 -52 19t-23 47
q0 60 64 60q19 0 35 -10.5t16 -28.5q0 -29 -47 -35v11q24 8 24 22q0 23 -27 23q-37 0 -37 -42q0 -47 47 -47q28 0 51.5 21.5t23.5 49.5q0 39 -28.5 60t-69.5 21q-44 0 -73 -27q-23 -21 -23 -79q29 -54 59 -82q58 -56 67 -66q78 0 70 1q3 -8 13 -23h-70q17 -30 17 -65
q0 -36 -41 -84q36 -32 61 -32q29 0 66 66l9 -7q-6 -9 -20 -32zM63 73q-14 0 -26 -10t-12 -24q0 -31 39 -31q23 0 67 26q-45 39 -68 39z" />
    <glyph glyph-name="section" unicode="&#xa7;" horiz-adv-x="211" 
d="M53 206q26 37 49 125.5t47 125.5l8 -3q-3 -14 -13 -45t-10 -50q0 -28 35.5 -113t35.5 -147q0 -60 -47 -129q-40 -59 -96 -102q-3 0 -6 5q12 14 30 37q24 37 42.5 105t18.5 114q0 13 -1 20l-28 182q-4 -4 -24 -61.5t-27 -63.5q-7 2 -14 0z" />
    <glyph glyph-name="bullet" unicode="&#x2022;" horiz-adv-x="308" 
d="M86 237q0 31 22 53t53 22t53 -22t22 -53t-22 -53t-53 -22t-53 22t-22 53z" />
    <glyph glyph-name="paragraph" unicode="&#xb6;" horiz-adv-x="274" 
 />
    <glyph glyph-name="germandbls" unicode="&#xdf;" horiz-adv-x="428" 
d="M434 208q-19 -57 -58 -125q-52 -90 -89 -90q-22 0 -50.5 35.5t-37.5 35.5q-12 0 -28.5 -37t-26.5 -37q-9 0 -9 10q0 -4 104 168q-50 -3 -58 -25l-7 3q-1 16 31.5 37.5t49.5 20.5l63 95q-34 -10 -31 -10q-35 0 -44 44q-3 14 -5 15q-1 0 -3 -3q-38 -54 -98 -156
q-49 -83 -88 -142l-1 -33q-7 -231 -91 -226q-20 1 -34 22q-13 18 -13 39q0 62 36 113q10 14 53 65v482q0 47 15 103q26 99 86 95q20 -1 30.5 -19.5t10.5 -40.5q0 -62 -37 -157q-30 -77 -53 -110q5 -1 81 -1v-23h-84q2 -177 1 -280q184 312 205 311q28 -2 38 -35.5t22 -33.5
q14 0 35 34q28 44 29 45q7 1 7 -7q0 -4 -111 -185q30 3 42.5 9.5t32.5 30.5l3 -4q0 -27 -36 -49q-27 -16 -61 -23l-56 -89q25 13 49 13q27 0 44 -29t25 -29q24 0 110 173h7zM124 645q0 16 -12 34l-18 9q-48 -6 -48 -99q0 -115 2 -171q35 78 39 87q14 37 27 92q10 43 10 48z
M5 -103l-3 112q-40 -71 -41 -73q-21 -43 -21 -79q0 -53 28 -53q15 0 27 39q11 34 10 54z" />
    <glyph glyph-name="registered" unicode="&#xae;" horiz-adv-x="456" 
d="M218 686q77 0 132 -53t55 -130q0 -75 -57 -129t-132 -54q-77 0 -129.5 53.5t-52.5 130.5q0 75 54 128.5t130 53.5zM54 504q0 -68 47.5 -116.5t114.5 -48.5t115.5 47t48.5 114q0 68 -47 117t-115 49t-116 -47.5t-48 -114.5zM185 497v-60q0 -21 6 -25t29 -4v-10h-106v10
q23 0 29 4t6 25v131q0 20 -6.5 24t-28.5 4v12h78q68 0 83 -4q32 -9 34 -47q1 -36 -28 -47q-24 -5 -47 -9q32 -9 44 -33q4 -8 11 -41q4 -19 14 -19q18 0 18 38h11q0 -55 -44 -55q-30 0 -37 28q-5 44 -7 50q-9 28 -34 28h-25zM263 557q0 35 -53 35q-17 0 -21 -3.5t-4 -19.5
v-58h21q57 0 57 46z" />
    <glyph glyph-name="copyright" unicode="&#xa9;" horiz-adv-x="771" 
d="M541 235q-72 -111 -180 -111q-83 0 -139 68q-53 64 -53 149q0 84 55 148q58 68 141 68q42 0 106 -32q12 -6 19 -6q24 0 25 32h18v-162h-16q-12 61 -45 101q-40 48 -97 48q-67 0 -100 -71q-25 -54 -25 -130t32 -127q38 -60 110 -60q70 0 136 93zM371 -9q-144 0 -243 102
t-99 246q0 142 102.5 242t245.5 100q144 0 242.5 -102t98.5 -246q0 -142 -102 -242t-245 -100zM377 653q-132 0 -225.5 -91.5t-93.5 -222.5q0 -132 91 -226t222 -94q132 0 226 91.5t94 222.5t-91.5 225.5t-222.5 94.5z" />
    <glyph glyph-name="trademark" unicode="&#x2122;" horiz-adv-x="494" 
d="M118 638v-167h-18v167h-65v19h147v-19h-64zM269 657l57 -149l59 149h39v-186h-17v167h-10l-66 -167h-11l-64 171h-9v-171h-18v186h40z" />
    <glyph glyph-name="acute" unicode="&#xb4;" horiz-adv-x="192" 
d="M34 425l-6 9l88 88q9 7 24 4q14 -2 14 -17q3 -3 0 -12q-4 -11 -9 -12.5t-111 -59.5z" />
    <glyph glyph-name="dieresis" unicode="&#xa8;" horiz-adv-x="267" 
d="M161 461q0 14 9.5 25t23.5 11t23.5 -11t9.5 -25q0 -36 -33 -36t-33 36zM31 461q0 14 9.5 25t23.5 11t23.5 -11t9.5 -25q0 -36 -33 -36t-33 36z" />
    <glyph glyph-name="AE" unicode="&#xc6;" horiz-adv-x="908" 
d="M727 398q0 25 -56 25q-19 0 -44 -4q-35 -6 -36 -16q62 -33 97 -33q39 0 39 28zM532 -2q-37 -3 -77 66q-19 33 -61 136q-32 79 -48 89q-35 -8 -66 -8q-11 0 -21 1q-10 -37 -33 -111q-58 -179 -146 -179q-35 0 -58 30t-23 66q0 23 11.5 42.5t32.5 19.5q29 0 29 -40
q0 -21 -16 -47.5t-16 -31.5q0 -26 45 -26q88 0 118 285q-106 11 -106 53q0 23 30 37q24 12 49 12q23 0 43 -9q20 165 99 249q-16 4 -34 4q-23 0 -69.5 -8.5t-70.5 -8.5q-56 1 -81 31q-10 13 -26 59q32 -34 83 -34q33 0 96.5 15.5t96.5 15.5q132 0 174 -356q28 28 73 52
q-85 65 -85 159q0 79 58 119q50 33 133 33q51 0 96 -31q50 -34 50 -83q0 -83 -99 -83q-34 0 -59 21t-25 54q0 22 20 35q17 11 40 11q13 0 30 -8q-32 0 -46 -10t-14 -41q0 -20 16.5 -37.5t36.5 -17.5q32 0 51.5 20t19.5 52q0 50 -34.5 78t-85.5 28q-59 0 -96 -40t-37 -99
q0 -85 53 -147q25 18 96 18q92 0 92 -44q0 -33 -55 -33q-29 0 -75 12q-50 13 -67 29q-67 -67 -67 -148q0 -101 52 -168q57 -74 155 -74q52 0 89 46q33 43 33 97q0 46 -31.5 78t-77.5 32q-38 0 -61.5 -26.5t-23.5 -65.5q0 -24 16 -43.5t39 -19.5q22 0 37.5 14t15.5 36
q0 47 -50 48v7q0 1 2 2q26 6 52 -17t26 -49t-28 -40q-22 -11 -52 -11q-35 0 -66 23t-31 57q0 44 41 71q36 24 82 24q55 0 100 -32q49 -36 49 -89q0 -74 -52 -114q-46 -36 -122 -36q-105 0 -183 61q5 -22 12 -24q30 -14 30 -26q0 -10 -28 -12zM420 323l-25 165
q-26 116 -65 139q-23 -18 -44 -128q-19 -98 -16 -135q47 -18 87 -62q21 5 63 21zM457 89l-14 82q-2 15 -6 37q-10 65 -14 101q-31 -6 -58 -17q19 -23 49 -100q35 -90 43 -103zM336 301q-23 22 -68 49q0 -11 -6 -53q11 -3 39 -2q31 1 35 6zM215 370q-9 6 -23 6q-45 0 -45 -34
q0 -13 30 -28.5t31 -11.5q2 5 7 68z" />
    <glyph glyph-name="Oslash" unicode="&#xd8;" horiz-adv-x="526" 
d="M318 474l-124 -227q15 -80 68 -80q86 0 86 158q0 33 -4 60l10 3q10 -33 10 -67q0 -56 -23 -105q-29 -62 -79 -62q-54 0 -84 63q-41 -75 -68 -123q43 -92 124 -92q107 0 159 143q37 101 37 233q0 53 -14 80q-26 -12 -37 -12q-32 0 -61 28zM360 550l-35 -63q16 -13 37 -13
q23 0 47 22q-25 39 -49 54zM406 633l-35 -63q9 -7 22 -22l27 -33q6 21 6 39q0 44 -20 79zM191 273l117 213q-5 4 -9 11l6 10q3 -3 9 -10l32 59q-9 3 -19 3q-89 0 -119 -101q-17 -57 -17 -174v-11zM102 111q26 47 68 124q-19 52 -19 112q0 76 42 149q49 85 121 85q28 0 43 -5
l40 71q-43 59 -121 59q-106 0 -163 -156q-43 -117 -43 -245q0 -112 32 -194zM47 8q-1 -2 -5 -1l4 6q6 8 40 69q-77 110 -77 289q0 125 67 230q76 119 195 119q83 0 137 -53l28 53l13 -8l-31 -56q42 -48 47 -116q2 -20 -8 -43l-12 -22q30 -81 30 -152q0 -124 -45 -217
q-58 -119 -168 -119q-102 0 -166 82q-12 -22 -37 -64l-4 -6q-3 -5 -8 -6v15z" />
    <glyph glyph-name="yen" unicode="&#xa5;" horiz-adv-x="337" 
d="M89 189h66q0 12 2 19q2 5 -23 81q-22 72 -30 90q-18 43 -27 53q-18 21 -52 21q-5 0 -13.5 -1.5t-13.5 -1.5q-21 0 -35 22q-11 19 -11 42q19 -13 46 -15q9 -1 20 4t21 5q56 2 100 -107q18 -44 47 -160q100 131 100 207q0 19 -9 36t-27 17q-9 0 -17.5 -13t-8.5 -23
q0 -24 32 -54q-22 1 -40.5 15t-18.5 35q0 23 17 39.5t40 16.5q29 0 47 -27q15 -24 15 -54q0 -65 -106 -196q-16 -20 -16 -23q1 -10 2 -28h72v-20h-72v-30h72v-20h-72l-1 -43q0 -18 -1 -75h-56q16 28 16 57v61h-65v20h65q0 5 -0.5 15t0.5 15h-65v20zM195 126z" />
    <glyph glyph-name="mu" unicode="&#xb5;" horiz-adv-x="447" 
d="M90 107q-21 0 -39 -15t-18 -36q0 -48 58 -48q27 0 55 13q1 1 47 27q-68 59 -103 59zM97 193q6 5 115 74q-41 35 -120 106q-68 64 -68 147q0 82 65 135q61 51 144 51q64 0 119 -35q63 -40 63 -101q0 -62 -48 -96q-41 -29 -106 -29q-39 0 -71 26t-32 64q0 39 24.5 61.5
t63.5 22.5q27 0 47 -14q21 -17 21 -43q-1 -35 -59 -43v10q35 11 35 34q0 37 -43 37q-57 0 -57 -64q0 -32 19.5 -51.5t51.5 -19.5q43 0 77 31.5t34 73.5q0 58 -44 90q-39 29 -99 29q-65 0 -108 -40t-43 -104q0 -54 36 -99q23 -28 79.5 -71.5t78.5 -69.5l87 54l16 -25l-86 -54
q22 -37 22 -81q0 -52 -60 -121q55 -49 91 -49q45 0 96 93l7 -5q-44 -72 -54 -83q-35 -39 -86 -39q-52 0 -101 41q-69 -39 -122 -39q-31 0 -54 12q-29 15 -29 43q0 36 42 56q33 16 73 16q57 0 117 -32q31 28 31 70q0 43 -30 82l-117 -75z" />
    <glyph glyph-name="mu" unicode="&#x3bc;" horiz-adv-x="447" 
d="M90 107q-21 0 -39 -15t-18 -36q0 -48 58 -48q27 0 55 13q1 1 47 27q-68 59 -103 59zM97 193q6 5 115 74q-41 35 -120 106q-68 64 -68 147q0 82 65 135q61 51 144 51q64 0 119 -35q63 -40 63 -101q0 -62 -48 -96q-41 -29 -106 -29q-39 0 -71 26t-32 64q0 39 24.5 61.5
t63.5 22.5q27 0 47 -14q21 -17 21 -43q-1 -35 -59 -43v10q35 11 35 34q0 37 -43 37q-57 0 -57 -64q0 -32 19.5 -51.5t51.5 -19.5q43 0 77 31.5t34 73.5q0 58 -44 90q-39 29 -99 29q-65 0 -108 -40t-43 -104q0 -54 36 -99q23 -28 79.5 -71.5t78.5 -69.5l87 54l16 -25l-86 -54
q22 -37 22 -81q0 -52 -60 -121q55 -49 91 -49q45 0 96 93l7 -5q-44 -72 -54 -83q-35 -39 -86 -39q-52 0 -101 41q-69 -39 -122 -39q-31 0 -54 12q-29 15 -29 43q0 36 42 56q33 16 73 16q57 0 117 -32q31 28 31 70q0 43 -30 82l-117 -75z" />
    <glyph glyph-name="ordfeminine" unicode="&#xaa;" horiz-adv-x="453" 
d="M397 171q0 -80 -77 -138l-144 -82q-78 -45 -78 -99q0 -23 15 -34h10q17 27 28 27l6 -2q45 4 45 -41q0 -19 -17 -31.5t-37 -12.5q-31 0 -50.5 25t-19.5 57q0 60 62 107q12 9 115 85q62 59 62 147q0 62 -26 100q-30 45 -89 45q-38 0 -79 -27q-45 -29 -45 -65l10 -19l32 19
l26 -31q0 -32 -38 -32q-21 0 -35.5 17.5t-14.5 38.5q0 42 70 106q43 38 128 117q69 68 69 137q0 24 -15 41t-38 13l-160 -28q-6 -1 -13 -1q-29 0 -62 22q-40 27 -34 63q50 -34 71 -34q5 0 14 2l180 40q49 0 85 -31t36 -79q0 -60 -79 -139q-24 -20 -128 -111l24 1
q83 3 137 -43.5t54 -129.5zM194 745h16l96 85l-6 9l-98 -53q-27 14 -97 53l-7 -9q48 -42 96 -85z" />
    <glyph glyph-name="ordmasculine" unicode="&#xba;" horiz-adv-x="293" 
d="M133 387q24 0 30 -18q2 -15 4 -31q5 -20 17 -20q14 0 35 34q28 44 29 45q7 1 7 -7q0 -4 -111 -185q30 3 42.5 9.5t32.5 30.5l3 -4q0 -27 -36 -49q-27 -16 -61 -23l-56 -89q25 13 49 13q27 0 44 -29t25 -29q24 0 110 173h7q-19 -57 -58 -125q-52 -90 -89 -90
q-22 0 -50.5 35.5t-37.5 35.5q-12 0 -28.5 -37t-26.5 -37q-9 0 -9 10q0 -4 104 168q-50 -3 -58 -25l-7 3q-1 16 31.5 37.5t49.5 20.5l63 95q-34 -10 -31 -10q-23 0 -33 14q-4 6 -8 28q-3 14 -11 14q-13 0 -97 -140h-10q98 182 135 182zM162 466zM154 425h16l96 85l-6 9
l-98 -53q-27 14 -97 53l-7 -9q48 -42 96 -85z" />
    <glyph glyph-name="ae" unicode="&#xe6;" horiz-adv-x="371" 
d="M175 61q-9 -14 -28 -40q-22 -29 -59 -29q-48 0 -72 66q-17 47 -17 106q0 70 26 137q34 87 91 88q28 -12 58 -24q11 -3 25 19q6 2 9 2t3 -2q-1 -9 -1 -19q0 -9 1 -19q27 38 61 38q39 0 39 -57q0 -61 -94 -169q3 -37 14 -68q16 -44 43 -44q47 0 97 160l6 -1
q-3 -50 -45 -125q-47 -84 -92 -84q-47 0 -65 65zM290 335q0 38 -18 38q-44 0 -57 -109v-92q75 83 75 163zM165 158q0 215 -54 215q-61 0 -61 -136q0 -64 10 -116q16 -85 54 -85q51 0 51 122z" />
    <glyph glyph-name="oslash" unicode="&#xf8;" horiz-adv-x="290" 
d="M159 257l-98 -175q26 -66 66 -66q48 0 48 102q0 75 -16 139zM55 101l98 176q-24 72 -66 72q-53 0 -53 -116q0 -66 21 -132zM1 3l22 40q-24 45 -24 105q0 82 21 143q31 89 96 89q45 0 70 -43l24 44l13 -7l-29 -53q20 -47 20 -119q0 -31 -9 -80q-10 -57 -24 -74
q67 57 107 158l10 -3q-22 -72 -74 -134q-63 -76 -128 -76q-39 0 -64 35l-18 -32z" />
    <glyph glyph-name="questiondown" unicode="&#xbf;" horiz-adv-x="377" 
d="M209 468q0 -17 -11 -29t-27 -12t-26.5 12.5t-10.5 28.5t10.5 28t26.5 12q17 0 27.5 -11.5t10.5 -28.5zM16 -77q0 95 60 164l111 99q59 53 59 113q0 23 -17 38t-40 15q-19 0 -32 -14.5t-13 -34.5q0 -30 38 -42q3 -6 -21 -15q-27 0 -48 19.5t-21 46.5q0 31 22 55.5t53 23.5
q98 -3 96 -103q-1 -58 -48 -115q-14 -17 -43 -50t-43 -50q-47 -57 -47 -119q0 -97 68 -97q11 0 51.5 17.5t54.5 18.5q37 -2 61.5 -22.5t24.5 -56.5q0 -25 -8 -25q-4 17 -8 22l-24 20q-12 3 -23 3q-26 0 -74 -22t-75 -22q-48 0 -82 43q-32 40 -32 90z" />
    <glyph glyph-name="exclamdown" unicode="&#xa1;" horiz-adv-x="238" 
d="M76 404l2 6l5 1q42 -23 65 -164q16 -98 16 -185q0 -77 -15 -152q-25 -124 -83 -124q-34 0 -38 29q-1 24 23 69q36 66 48 104q26 79 26 181q0 124 -49 235zM125 478q0 -15 -9.5 -27.5t-24.5 -12.5t-25 12t-10 28t9.5 28.5t25.5 12.5q15 0 24.5 -12.5t9.5 -28.5z" />
    <glyph glyph-name="logicalnot" unicode="&#xac;" horiz-adv-x="20" 
 />
    <glyph glyph-name="florin" unicode="&#x192;" horiz-adv-x="20" 
 />
    <glyph glyph-name="guillemotleft" unicode="&#xab;" horiz-adv-x="259" 
d="M206 344l7 -1q-4 -60 -59 -117q32 -42 42 -69q1 -2 20 -73h-10q-6 70 -91 143q37 28 45 37q31 33 46 80zM106 344l7 -1q-4 -60 -59 -117q32 -42 42 -69q1 -2 20 -73h-10q-6 70 -91 143q37 28 45 37q31 33 46 80z" />
    <glyph glyph-name="guillemotright" unicode="&#xbb;" horiz-adv-x="259" 
d="M44 344l-6 -1q4 -60 58 -117q-32 -42 -42 -69q-1 -2 -19 -73h9q7 70 91 143q-37 28 -45 37q-31 33 -46 80zM144 344l-6 -1q4 -60 58 -117q-32 -42 -42 -69q-1 -2 -19 -73h9q7 70 91 143q-37 28 -45 37q-31 33 -46 80z" />
    <glyph glyph-name="ellipsis" unicode="&#x2026;" horiz-adv-x="582" 
d="M251 37q0 17 11.5 30t28.5 13t28.5 -13t11.5 -30t-11.5 -30t-28.5 -13t-28.5 12.5t-11.5 30.5zM451 37q0 17 11.5 30t28.5 13t28.5 -13t11.5 -30t-11.5 -30t-28.5 -13t-28.5 12.5t-11.5 30.5zM51 37q0 17 11.5 30t28.5 13t28.5 -13t11.5 -30t-11.5 -30t-28.5 -13
t-28.5 12.5t-11.5 30.5z" />
    <glyph glyph-name="nonbreakingspace" unicode="&#xa0;" horiz-adv-x="161" 
 />
    <glyph glyph-name="Agrave" unicode="&#xc0;" horiz-adv-x="611" 
d="M532 -6q-36 -3 -77 68q-20 36 -61 137q-32 80 -48 90q-35 -8 -66 -8q-11 0 -21 1q-10 -37 -33 -111q-58 -179 -146 -179q-35 0 -58 30t-23 66q0 23 11.5 42.5t32.5 19.5q29 0 29 -40q0 -21 -16 -47.5t-16 -31.5q0 -26 45 -26q88 0 118 285q-106 11 -106 53q0 23 30 37
q24 12 49 12q23 0 43 -9q20 165 99 249q-16 4 -34 4q-23 0 -69.5 -8.5t-70.5 -8.5q-56 1 -81 31q-10 13 -26 59q32 -34 83 -34q31 0 92.5 14.5t92.5 14.5q102 0 140 -138q15 -54 28 -220q59 38 59 115q0 58 -40 86v1l1 1q83 0 83 -85q0 -46 -26 -80q-19 -25 -47 -39
q-9 -5 -29 -13v2q6 -74 18 -165q21 -157 43 -156q30 2 55 86q6 21 27 107l10 -4q-9 -58 -28 -116q-30 -89 -67 -92zM420 323l-25 165q-26 116 -65 139q-23 -18 -44 -128q-19 -98 -16 -135q47 -18 87 -62q21 5 63 21zM457 89q-13 72 -34 220q-31 -6 -58 -17q19 -23 49 -100
q35 -90 43 -103zM336 301q-23 22 -68 49q0 -11 -6 -53q11 -3 39 -2q31 1 35 6zM215 370q-9 6 -23 6q-45 0 -45 -34q0 -13 30 -28.5t31 -11.5q2 5 7 68zM376 725l6 9l-88 88q-9 7 -24 4q-14 -2 -14 -17q-3 -3 0 -12q3 -11 8.5 -12.5t111.5 -59.5z" />
    <glyph glyph-name="Atilde" unicode="&#xc3;" horiz-adv-x="611" 
d="M532 -6q-36 -3 -77 68q-20 36 -61 137q-32 80 -48 90q-35 -8 -66 -8q-11 0 -21 1q-10 -37 -33 -111q-58 -179 -146 -179q-35 0 -58 30t-23 66q0 23 11.5 42.5t32.5 19.5q29 0 29 -40q0 -21 -16 -47.5t-16 -31.5q0 -26 45 -26q88 0 118 285q-106 11 -106 53q0 23 30 37
q24 12 49 12q23 0 43 -9q20 165 99 249q-16 4 -34 4q-23 0 -69.5 -8.5t-70.5 -8.5q-56 1 -81 31q-10 13 -26 59q32 -34 83 -34q33 0 96 16t96 16q130 0 151 -219q3 -47 10 -142q59 38 59 115q0 58 -40 86v1l1 1q83 0 83 -85q0 -46 -26 -80q-19 -25 -47 -39q-9 -5 -29 -13v2
q6 -74 18 -165q21 -157 43 -156q30 2 55 86q6 21 27 107l10 -4q-9 -58 -28 -116q-30 -89 -67 -92zM420 323l-25 165q-26 116 -65 139q-23 -18 -44 -128q-19 -98 -16 -135q47 -18 87 -62q21 5 63 21zM457 89q-13 72 -34 220q-31 -6 -58 -17q19 -23 49 -100q35 -90 43 -103z
M336 301q-23 22 -68 49q0 -11 -6 -53q11 -3 39 -2q31 1 35 6zM215 370q-9 6 -23 6q-45 0 -45 -34q0 -13 30 -28.5t31 -11.5q2 5 7 68zM458 817q-34 -62 -111 -62q-24 0 -54 10.5t-56 10.5q-23 0 -46 -19l-5 2q13 23 42.5 40.5t54.5 15.5q16 -2 52 -14t49 -12q28 0 67 33
q8 -4 7 -5z" />
    <glyph glyph-name="Otilde" unicode="&#xd5;" horiz-adv-x="526" 
d="M475 323q0 -124 -45 -217q-58 -119 -168 -119q-131 0 -199 134q-54 106 -54 250q0 125 67 230q76 119 195 119q81 0 134.5 -50t59.5 -130q2 -20 -8 -43l-12 -22q30 -81 30 -152zM430 378q0 53 -14 80q-26 -12 -37 -12q-40 0 -80 51l6 10q30 -33 57 -33q23 0 47 22
q-41 63 -82 63q-89 0 -119 -101q-17 -57 -17 -174q0 -42 15 -75q19 -42 56 -42q86 0 86 158q0 33 -4 60l10 3q10 -33 10 -67q0 -56 -23 -105q-29 -62 -79 -62q-58 0 -88 72q-23 55 -23 121q0 78 36 149q43 85 114 85q44 0 69 -16q14 -9 50 -50q6 21 6 39q0 66 -42 109
t-108 43q-106 0 -163 -156q-43 -117 -43 -245q0 -109 30 -189q43 -114 134 -114q107 0 159 143q37 101 37 233zM398 817q-34 -62 -111 -62q-24 0 -54 10.5t-56 10.5q-23 0 -46 -19l-5 2q13 23 42.5 40.5t54.5 15.5q16 -2 52 -14t49 -12q28 0 67 33q8 -4 7 -5z" />
    <glyph glyph-name="OE" unicode="&#x152;" horiz-adv-x="896" 
d="M707 398q0 25 -56 25q-19 0 -44 -4q-35 -6 -36 -16q62 -33 97 -33q39 0 39 28zM437 122q-57 -135 -175 -135q-131 0 -199 134q-54 106 -54 250q0 125 67 230q76 119 195 119q81 0 134.5 -50t59.5 -130q2 -20 -8 -43l-12 -22q23 -62 28 -122q28 28 67 49q-39 30 -51 61
q-10 26 -12 85q-2 72 47 118.5t122 46.5q51 0 96 -31q50 -34 50 -83q0 -83 -99 -83q-34 0 -59 21t-25 54q0 22 20 35q17 11 40 11q13 0 30 -8q-32 0 -46 -10t-14 -41q0 -20 16.5 -37.5t36.5 -17.5q32 0 51.5 20t19.5 52q0 50 -34.5 78t-85.5 28q-57 0 -89.5 -42.5
t-32.5 -101.5q0 -54 6 -77q8 -32 36 -65q25 18 96 18q92 0 92 -44q0 -33 -55 -33q-29 0 -75 12q-50 13 -67 29q-67 -67 -67 -158q0 -101 52 -168q57 -74 155 -74q52 0 89 46q33 43 33 97q0 46 -31.5 78t-77.5 32q-38 0 -61.5 -26.5t-23.5 -65.5q0 -24 16 -43.5t39 -19.5
q22 0 37.5 14t15.5 36q0 47 -50 48v7q0 1 2 2q26 6 52 -17t26 -49t-28 -40q-22 -11 -52 -11q-35 0 -66 23t-31 57q0 44 41 71q36 24 82 24q55 0 100 -32q49 -36 49 -89q0 -74 -52 -114q-46 -36 -122 -36t-141 33q-70 36 -103 100zM430 378q0 53 -14 80q-26 -12 -37 -12
q-40 0 -80 51l6 10q30 -33 57 -33q23 0 47 22q-41 63 -82 63q-89 0 -119 -101q-17 -57 -17 -174q0 -42 15 -75q19 -42 56 -42q86 0 86 158q0 33 -4 60l10 3q10 -33 10 -67q0 -56 -23 -105q-29 -62 -79 -62q-58 0 -88 72q-23 55 -23 121q0 78 36 149q43 85 114 85
q44 0 69 -16q14 -9 50 -50q6 21 6 39q0 66 -42 109t-108 43q-106 0 -163 -156q-43 -117 -43 -245q0 -109 30 -189q43 -114 134 -114q107 0 159 143q37 101 37 233z" />
    <glyph glyph-name="oe" unicode="&#x153;" horiz-adv-x="383" 
d="M173 165q-15 187 -82 187q-57 0 -57 -119q0 -63 19 -127q27 -90 74 -90t47 87q0 12 -1 34q-1 20 0 28zM384 205q-3 -50 -45 -125q-47 -84 -92 -84q-39 0 -58 45q-20 -26 -38 -34q-2 -1 -42 -11q-51 -5 -83 67q-25 57 -25 117q0 73 22 127q29 74 91 74q60 0 85 -74
q31 79 79 79q40 0 40 -59q0 -61 -94 -169q3 -37 14 -68q16 -44 43 -44q47 0 97 160zM297 335q0 38 -18 38q-32 0 -48 -62q-11 -43 -11 -91q0 -22 2 -48q75 82 75 163z" />
    <glyph glyph-name="endash" unicode="&#x2013;" horiz-adv-x="296" 
d="M-1 205l223 -1q70 0 74 1v21h-294z" />
    <glyph glyph-name="emdash" unicode="&#x2014;" horiz-adv-x="596" 
d="M-1 205l3 21h594v-21h-597z" />
    <glyph glyph-name="quotedblleft" unicode="&#x201c;" horiz-adv-x="225" 
d="M76 487q9 0 9 6q0 -2 -15.5 19.5t-15.5 44.5q0 19 14.5 45.5t14.5 34.5q0 22 -20 22q-18 0 -29 -28q-9 -22 -9 -44q0 -43 25 -78q16 -22 26 -22zM166 487q9 0 9 6q0 -2 -15.5 19.5t-15.5 44.5q0 19 14.5 45.5t14.5 34.5q0 22 -20 22q-18 0 -29 -28q-9 -22 -9 -44
q0 -43 25 -78q16 -22 26 -22z" />
    <glyph glyph-name="quotedblright" unicode="&#x201d;" horiz-adv-x="240" 
d="M159 487q-10 0 -10 6q0 -2 16 19t16 45q0 19 -15 45.5t-15 34.5q0 22 20 22q18 0 29 -28q9 -22 9 -44q0 -25 -7 -46q-4 -13 -18 -32q-16 -22 -25 -22zM69 487q-10 0 -10 6q0 -2 16 19t16 45q0 19 -15 45.5t-15 34.5q0 22 20 22q18 0 29 -28q9 -22 9 -44q0 -25 -7 -46
q-4 -13 -18 -32q-16 -22 -25 -22z" />
    <glyph glyph-name="quoteleft" unicode="&#x2018;" horiz-adv-x="153" 
d="M74 487q9 0 9 6q0 -2 -15.5 19.5t-15.5 44.5q0 19 14.5 45.5t14.5 34.5q0 22 -20 22q-18 0 -29 -28q-9 -22 -9 -44q0 -43 25 -78q16 -22 26 -22z" />
    <glyph glyph-name="quoteright" unicode="&#x2019;" horiz-adv-x="127" 
d="M19 487q-10 0 -10 6q0 -2 16 19t16 45q0 19 -15 45.5t-15 34.5q0 22 20 22q18 0 29 -28q9 -22 9 -44q0 -25 -7 -46q-4 -13 -18 -32q-16 -22 -25 -22z" />
    <glyph glyph-name="divide" unicode="&#xf7;" horiz-adv-x="14" 
 />
    <glyph glyph-name="ydieresis" unicode="&#xff;" horiz-adv-x="307" 
d="M208 22q-1 -86 -66 -160q-49 -56 -81 -65l-3 6q71 61 88 105q13 34 13 133v107v96l-48 -141q-39 -108 -70 -111q-41 -3 -41 57v307q0 28 25 28q28 0 28 -30v-268q0 -41 15 -39q13 2 26 43q1 4 36 102q25 70 29 84v79q0 27 25 29q24 -2 24 -29v-310q31 41 98 160q1 3 6 1
l5 -1q-29 -53 -109 -183zM131 461q0 14 9.5 25t23.5 11t23.5 -11t9.5 -25q0 -36 -33 -36t-33 36zM1 461q0 14 9.5 25t23.5 11t23.5 -11t9.5 -25q0 -36 -33 -36t-33 36z" />
    <glyph glyph-name="Ydieresis" unicode="&#x178;" horiz-adv-x="724" 
d="M704 687q0 -30 -22 -47q-10 -8 -44 -21q-26 -10 -31 -21q-26 -56 -26 -104q0 -81 38.5 -242t38.5 -241q0 -30 -5 -56q-39 -205 -251 -205q-53 0 -102 34q-58 40 -58 100q0 20 13 40.5t31 20.5q19 0 29.5 -15.5t10.5 -35.5q0 -25 -16 -50t-16 -28q0 -22 47 -40
q37 -14 59 -14q30 0 67 9q70 17 94 116q10 41 16 164l-26 245q-12 -63 -21 -105q-41 -193 -140 -193q-46 0 -72.5 36t-26.5 105q0 22 3 46l36 311q0 131 -76 131q-22 0 -68 -12t-68 -12q-33 0 -69.5 24t-45.5 54v14q6 -6 23 -19q26 -19 62 -19q19 0 79.5 23t90.5 23
q31 0 59 -14q81 -40 81 -172q0 -64 -38 -201.5t-38 -182.5q0 -126 75 -126q57 0 96 107q11 29 29 109q12 54 19 139q8 104 29 186q40 159 113 159q6 0 13.5 -7t7.5 -13zM499 769q0 36 33 36q14 0 23.5 -11t9.5 -25t-9.5 -25t-23.5 -11q-33 0 -33 36zM369 769q0 36 33 36
q14 0 23.5 -11t9.5 -25t-9.5 -25t-23.5 -11q-33 0 -33 36z" />
    <glyph glyph-name="guilsinglleft" unicode="&#x2039;" horiz-adv-x="145" 
d="M106 344l7 -1q-4 -60 -59 -117q32 -42 42 -69q1 -2 20 -73h-10q-6 70 -91 143q37 28 45 37q31 33 46 80z" />
    <glyph glyph-name="guilsinglright" unicode="&#x203a;" horiz-adv-x="145" 
d="M36 344l-7 -1q4 -60 58 -117q-32 -42 -42 -69q-1 -2 -19 -73h10q6 70 90 143q-37 28 -45 37q-31 33 -45 80z" />
    <glyph glyph-name="daggerdbl" unicode="&#x2021;" horiz-adv-x="274" 
d="M283 203q-12 -39 -38 -87q-29 -55 -53 -78l-22 -22q-27 -21 -52 -20q-53 2 -80 63q-21 46 -21 107q0 75 17 132q26 85 84 85q63 0 63 -110q0 -13 -2 -33l-7 -4q-2 66 -5 81q-11 53 -49 53t-49 -70q-4 -25 -4 -99q0 -50 12 -92q17 -60 53 -60q71 0 71 141q0 107 -27 237
q-39 187 -110 187q-24 0 -45 -21q-1 6 -1 11q0 25 20.5 47t45.5 22q130 0 130 -402q0 -154 -20 -200q-11 -26 -12 -25q24 21 54 74q26 47 38 84q5 1 9 -1z" />
    <glyph glyph-name="periodcentered" unicode="&#xb7;" horiz-adv-x="210" 
d="M77 292q0 17 8.5 31.5t24.5 14.5t24.5 -14.5t8.5 -31.5t-8 -30q-9 -16 -25 -16t-25 16q-8 13 -8 30z" />
    <glyph glyph-name="periodcentered" unicode="&#x2219;" horiz-adv-x="210" 
d="M77 292q0 17 8.5 31.5t24.5 14.5t24.5 -14.5t8.5 -31.5t-8 -30q-9 -16 -25 -16t-25 16q-8 13 -8 30z" />
    <glyph glyph-name="quotesinglbase" unicode="&#x201a;" horiz-adv-x="98" 
d="M29 -83q-10 0 -10 6q0 -2 16 19t16 45q0 19 -15 45.5t-15 34.5q0 22 20 22q18 0 29 -28q9 -22 9 -44q0 -25 -7 -46q-4 -13 -18 -32q-16 -22 -25 -22z" />
    <glyph glyph-name="quotedblbase" unicode="&#x201e;" horiz-adv-x="189" 
d="M119 -73q-10 0 -10 6q0 -2 16 19t16 45q0 19 -15 45.5t-15 34.5q0 22 20 22q18 0 29 -28q9 -22 9 -44q0 -25 -7 -46q-4 -13 -18 -32q-16 -22 -25 -22zM29 -73q-10 0 -10 6q0 -2 16 19t16 45q0 19 -15 45.5t-15 34.5q0 22 20 22q18 0 29 -28q9 -22 9 -44q0 -25 -7 -46
q-4 -13 -18 -32q-16 -22 -25 -22z" />
    <glyph glyph-name="perthousand" unicode="&#x2030;" horiz-adv-x="17" 
 />
    <glyph glyph-name="Acircumflex" unicode="&#xc2;" horiz-adv-x="611" 
d="M532 -6q-36 -3 -77 68q-20 36 -61 137q-32 80 -48 90q-35 -8 -66 -8q-11 0 -21 1q-10 -37 -33 -111q-58 -179 -146 -179q-35 0 -58 30t-23 66q0 23 11.5 42.5t32.5 19.5q29 0 29 -40q0 -21 -16 -47.5t-16 -31.5q0 -26 45 -26q88 0 118 285q-106 11 -106 53q0 23 30 37
q24 12 49 12q23 0 43 -9q20 165 99 249q-16 4 -34 4q-23 0 -69.5 -8.5t-70.5 -8.5q-56 1 -81 31q-10 13 -26 59q32 -34 83 -34q33 0 96 16t96 16q130 0 151 -219q3 -47 10 -142q59 38 59 115q0 58 -40 86v1l1 1q83 0 83 -85q0 -46 -26 -80q-19 -25 -47 -39q-9 -5 -29 -13v2
q6 -74 18 -165q21 -157 43 -156q30 2 55 86q6 21 27 107l10 -4q-9 -58 -28 -116q-30 -89 -67 -92zM420 323l-25 165q-26 116 -65 139q-23 -18 -44 -128q-19 -98 -16 -135q47 -18 87 -62q21 5 63 21zM457 89q-13 72 -34 220q-31 -6 -58 -17q19 -23 49 -100q35 -90 43 -103z
M336 301q-23 22 -68 49q0 -11 -6 -53q11 -3 39 -2q31 1 35 6zM215 370q-9 6 -23 6q-45 0 -45 -34q0 -13 30 -28.5t31 -11.5q2 5 7 68zM330 819h-16l-96 -85l6 -9l98 53q27 -14 97 -53l7 9q-48 43 -96 85z" />
    <glyph glyph-name="Ecircumflex" unicode="&#xca;" horiz-adv-x="485" 
d="M435 149q0 -74 -52 -114q-46 -36 -122 -36q-103 0 -180 58q-85 64 -85 165q0 115 124 180q-92 70 -92 161q0 79 63 118q51 32 135 32q51 0 96 -31q50 -34 50 -83q0 -83 -99 -83q-34 0 -59 21t-25 54q0 22 20 35q17 11 40 11q13 0 30 -8q-32 0 -46 -10t-14 -41
q0 -20 16.5 -37.5t36.5 -17.5q32 0 51.5 20t19.5 52q0 50 -34.5 78t-85.5 28q-59 0 -96 -40t-37 -99q0 -85 53 -147q25 18 96 18q92 0 92 -44q0 -33 -55 -33q-29 0 -75 12q-50 13 -67 29q-67 -67 -67 -148q0 -101 52 -168q57 -74 155 -74q52 0 89 46q33 43 33 97
q0 46 -31.5 78t-77.5 32q-38 0 -61.5 -26.5t-23.5 -65.5q0 -24 16 -43.5t39 -19.5q22 0 37.5 14t15.5 36q0 47 -50 48v7q0 1 2 2q26 6 52 -17t26 -49t-28 -40q-22 -11 -52 -11q-35 0 -66 23t-31 57q0 44 41 71q36 24 82 24q55 0 100 -32q49 -36 49 -89zM287 398q0 25 -56 25
q-19 0 -44 -4q-35 -6 -36 -16q62 -33 97 -33q39 0 39 28zM132 478zM220 819h-16l-96 -85l6 -9l98 53q27 -14 97 -53l7 9q-48 43 -96 85z" />
    <glyph glyph-name="Aacute" unicode="&#xc1;" horiz-adv-x="611" 
d="M532 -6q-36 -3 -77 68q-20 36 -61 137q-32 80 -48 90q-35 -8 -66 -8q-11 0 -21 1q-10 -37 -33 -111q-58 -179 -146 -179q-35 0 -58 30t-23 66q0 23 11.5 42.5t32.5 19.5q29 0 29 -40q0 -21 -16 -47.5t-16 -31.5q0 -26 45 -26q88 0 118 285q-106 11 -106 53q0 23 30 37
q24 12 49 12q23 0 43 -9q20 165 99 249q-16 4 -34 4q-23 0 -69.5 -8.5t-70.5 -8.5q-56 1 -81 31q-10 13 -26 59q32 -34 83 -34q33 0 96 16t96 16q130 0 151 -219q3 -47 10 -142q59 38 59 115q0 58 -40 86v1l1 1q83 0 83 -85q0 -46 -26 -80q-19 -25 -47 -39q-9 -5 -29 -13v2
q6 -74 18 -165q21 -157 43 -156q30 2 55 86q6 21 27 107l10 -4q-9 -58 -28 -116q-30 -89 -67 -92zM420 323l-25 165q-26 116 -65 139q-23 -18 -44 -128q-19 -98 -16 -135q47 -18 87 -62q21 5 63 21zM457 89q-13 72 -34 220q-31 -6 -58 -17q19 -23 49 -100q35 -90 43 -103z
M336 301q-23 22 -68 49q0 -11 -6 -53q11 -3 39 -2q31 1 35 6zM215 370q-9 6 -23 6q-45 0 -45 -34q0 -13 30 -28.5t31 -11.5q2 5 7 68zM274 725l-6 9l88 88q9 7 24 4q14 -2 14 -17q3 -3 0 -12q-4 -11 -9 -12.5t-111 -59.5z" />
    <glyph glyph-name="Edieresis" unicode="&#xcb;" horiz-adv-x="485" 
d="M435 149q0 -74 -52 -114q-46 -36 -122 -36q-103 0 -180 58q-85 64 -85 165q0 115 124 180q-92 70 -92 161q0 79 63 118q51 32 135 32q51 0 96 -31q50 -34 50 -83q0 -83 -99 -83q-34 0 -59 21t-25 54q0 22 20 35q17 11 40 11q13 0 30 -8q-32 0 -46 -10t-14 -41
q0 -20 16.5 -37.5t36.5 -17.5q32 0 51.5 20t19.5 52q0 50 -34.5 78t-85.5 28q-59 0 -96 -40t-37 -99q0 -85 53 -147q25 18 96 18q92 0 92 -44q0 -33 -55 -33q-29 0 -75 12q-50 13 -67 29q-67 -67 -67 -148q0 -101 52 -168q57 -74 155 -74q52 0 89 46q33 43 33 97
q0 46 -31.5 78t-77.5 32q-38 0 -61.5 -26.5t-23.5 -65.5q0 -24 16 -43.5t39 -19.5q22 0 37.5 14t15.5 36q0 47 -50 48v7q0 1 2 2q26 6 52 -17t26 -49t-28 -40q-22 -11 -52 -11q-35 0 -66 23t-31 57q0 44 41 71q36 24 82 24q55 0 100 -32q49 -36 49 -89zM287 398q0 25 -56 25
q-19 0 -44 -4q-35 -6 -36 -16q62 -33 97 -33q39 0 39 28zM241 781q0 14 9.5 25t23.5 11t23.5 -11t9.5 -25q0 -36 -33 -36t-33 36zM111 781q0 14 9.5 25t23.5 11t23.5 -11t9.5 -25q0 -36 -33 -36t-33 36z" />
    <glyph glyph-name="Egrave" unicode="&#xc8;" horiz-adv-x="485" 
d="M435 149q0 -74 -52 -114q-46 -36 -122 -36q-103 0 -180 58q-85 64 -85 165q0 115 124 180q-92 70 -92 161q0 79 63 118q51 32 135 32q51 0 96 -31q50 -34 50 -83q0 -83 -99 -83q-34 0 -59 21t-25 54q0 22 20 35q17 11 40 11q13 0 30 -8q-32 0 -46 -10t-14 -41
q0 -20 16.5 -37.5t36.5 -17.5q32 0 51.5 20t19.5 52q0 50 -34.5 78t-85.5 28q-59 0 -96 -40t-37 -99q0 -85 53 -147q25 18 96 18q92 0 92 -44q0 -33 -55 -33q-29 0 -75 12q-50 13 -67 29q-67 -67 -67 -148q0 -101 52 -168q57 -74 155 -74q52 0 89 46q33 43 33 97
q0 46 -31.5 78t-77.5 32q-38 0 -61.5 -26.5t-23.5 -65.5q0 -24 16 -43.5t39 -19.5q22 0 37.5 14t15.5 36q0 47 -50 48v7q0 1 2 2q26 6 52 -17t26 -49t-28 -40q-22 -11 -52 -11q-35 0 -66 23t-31 57q0 44 41 71q36 24 82 24q55 0 100 -32q49 -36 49 -89zM287 398q0 25 -56 25
q-19 0 -44 -4q-35 -6 -36 -16q62 -33 97 -33q39 0 39 28zM266 725l6 9l-88 88q-9 7 -24 4q-14 -2 -14 -17q-3 -3 0 -12q3 -11 8.5 -12.5t111.5 -59.5z" />
    <glyph glyph-name="Iacute" unicode="&#xcd;" horiz-adv-x="350" 
d="M124 643q-34 0 -34 -51q0 -57 47 -133q44 -72 95 -105q0 89 -19 169q-29 120 -89 120zM345 290l-1 -8l-65 28q-42 -322 -209 -322q-38 0 -65 22q-30 24 -30 61q0 54 38 54q37 0 37 -50q0 -8 -6 -24.5t-6 -24.5q0 -28 32 -28q89 0 132 126q30 88 30 202q-6 9 -40 45
q-116 124 -116 239q0 35 17 67q20 38 52 38q76 0 111 -122q25 -88 25 -214q0 -31 -1 -56zM104 725l-6 9l88 88q9 7 24 4q14 -2 14 -17q3 -3 0 -12q-4 -11 -9 -12.5t-111 -59.5z" />
    <glyph glyph-name="Icircumflex" unicode="&#xce;" horiz-adv-x="350" 
d="M124 643q-34 0 -34 -51q0 -57 47 -133q44 -72 95 -105q0 89 -19 169q-29 120 -89 120zM345 290l-1 -8l-65 28q-42 -322 -209 -322q-38 0 -65 22q-30 24 -30 61q0 54 38 54q37 0 37 -50q0 -8 -6 -24.5t-6 -24.5q0 -28 32 -28q89 0 132 126q30 88 30 202q-6 9 -40 45
q-116 124 -116 239q0 35 17 67q20 38 52 38q76 0 111 -122q25 -88 25 -214q0 -31 -1 -56zM160 819h-16l-96 -85l6 -9l98 53q27 -14 97 -53l7 9q-48 43 -96 85z" />
    <glyph glyph-name="Idieresis" unicode="&#xcf;" horiz-adv-x="350" 
d="M124 643q-34 0 -34 -51q0 -57 47 -133q44 -72 95 -105q0 89 -19 169q-29 120 -89 120zM345 290l-1 -8l-65 28q-42 -322 -209 -322q-38 0 -65 22q-30 24 -30 61q0 54 38 54q37 0 37 -50q0 -8 -6 -24.5t-6 -24.5q0 -28 32 -28q89 0 132 126q30 88 30 202q-6 9 -40 45
q-116 124 -116 239q0 35 17 67q20 38 52 38q76 0 111 -122q25 -88 25 -214q0 -31 -1 -56zM181 781q0 14 9.5 25t23.5 11t23.5 -11t9.5 -25q0 -36 -33 -36t-33 36zM51 781q0 14 9.5 25t23.5 11t23.5 -11t9.5 -25q0 -36 -33 -36t-33 36z" />
    <glyph glyph-name="Igrave" unicode="&#xcc;" horiz-adv-x="350" 
d="M124 643q-34 0 -34 -51q0 -57 47 -133q44 -72 95 -105q0 89 -19 169q-29 120 -89 120zM345 290l-1 -8l-65 28q-42 -322 -209 -322q-38 0 -65 22q-30 24 -30 61q0 54 38 54q37 0 37 -50q0 -8 -6 -24.5t-6 -24.5q0 -28 32 -28q89 0 132 126q30 88 30 202q-6 9 -40 45
q-116 124 -116 239q0 35 17 67q20 38 52 38q76 0 111 -122q25 -88 25 -214q0 -31 -1 -56zM226 725l6 9l-88 88q-9 7 -24 4q-14 -2 -14 -17q-3 -3 0 -12q3 -11 8.5 -12.5t111.5 -59.5z" />
    <glyph glyph-name="Oacute" unicode="&#xd3;" horiz-adv-x="526" 
d="M475 323q0 -124 -45 -217q-58 -119 -168 -119q-131 0 -199 134q-54 106 -54 250q0 125 67 230q76 119 195 119q81 0 134.5 -50t59.5 -130q2 -20 -8 -43l-12 -22q30 -81 30 -152zM430 378q0 53 -14 80q-26 -12 -37 -12q-40 0 -80 51l6 10q30 -33 57 -33q23 0 47 22
q-41 63 -82 63q-89 0 -119 -101q-17 -57 -17 -174q0 -42 15 -75q19 -42 56 -42q86 0 86 158q0 33 -4 60l10 3q10 -33 10 -67q0 -56 -23 -105q-29 -62 -79 -62q-58 0 -88 72q-23 55 -23 121q0 78 36 149q43 85 114 85q44 0 69 -16q14 -9 50 -50q6 21 6 39q0 66 -42 109
t-108 43q-106 0 -163 -156q-43 -117 -43 -245q0 -109 30 -189q43 -114 134 -114q107 0 159 143q37 101 37 233zM204 735l-6 9l88 88q9 7 24 4q14 -2 14 -17q3 -3 0 -12q-4 -11 -9 -12.5t-111 -59.5z" />
    <glyph glyph-name="Ocircumflex" unicode="&#xd4;" horiz-adv-x="526" 
d="M475 323q0 -124 -45 -217q-58 -119 -168 -119q-131 0 -199 134q-54 106 -54 250q0 125 67 230q76 119 195 119q81 0 134.5 -50t59.5 -130q2 -20 -8 -43l-12 -22q30 -81 30 -152zM430 378q0 53 -14 80q-26 -12 -37 -12q-40 0 -80 51l6 10q30 -33 57 -33q23 0 47 22
q-41 63 -82 63q-89 0 -119 -101q-17 -57 -17 -174q0 -42 15 -75q19 -42 56 -42q86 0 86 158q0 33 -4 60l10 3q10 -33 10 -67q0 -56 -23 -105q-29 -62 -79 -62q-58 0 -88 72q-23 55 -23 121q0 78 36 149q43 85 114 85q44 0 69 -16q14 -9 50 -50q6 21 6 39q0 66 -42 109
t-108 43q-106 0 -163 -156q-43 -117 -43 -245q0 -109 30 -189q43 -114 134 -114q107 0 159 143q37 101 37 233zM270 819h-16l-96 -85l6 -9l98 53q27 -14 97 -53l7 9q-48 43 -96 85z" />
    <glyph glyph-name="Ograve" unicode="&#xd2;" horiz-adv-x="526" 
d="M475 323q0 -124 -45 -217q-58 -119 -168 -119q-131 0 -199 134q-54 106 -54 250q0 125 67 230q76 119 195 119q81 0 134.5 -50t59.5 -130q2 -20 -8 -43l-12 -22q30 -81 30 -152zM430 378q0 53 -14 80q-26 -12 -37 -12q-40 0 -80 51l6 10q30 -33 57 -33q23 0 47 22
q-41 63 -82 63q-89 0 -119 -101q-17 -57 -17 -174q0 -42 15 -75q19 -42 56 -42q86 0 86 158q0 33 -4 60l10 3q10 -33 10 -67q0 -56 -23 -105q-29 -62 -79 -62q-58 0 -88 72q-23 55 -23 121q0 78 36 149q43 85 114 85q44 0 69 -16q14 -9 50 -50q6 21 6 39q0 66 -42 109
t-108 43q-106 0 -163 -156q-43 -117 -43 -245q0 -109 30 -189q43 -114 134 -114q107 0 159 143q37 101 37 233zM316 735l6 9l-88 88q-9 7 -24 4q-14 -2 -14 -17q-3 -3 0 -12q3 -11 8.5 -12.5t111.5 -59.5z" />
    <glyph glyph-name="Uacute" unicode="&#xda;" horiz-adv-x="673" 
d="M676 186l6 -4q-97 -185 -130 -185q-55 0 -75 109q-7 46 -20 137q-14 -49 -44 -146q-39 -114 -111 -114q-63 0 -87 84q-18 62 -14 112l24 300q4 51 -10 90q-19 53 -79 53q-19 0 -64 -12t-65 -12q-41 0 -73.5 23t-38.5 63q40 -29 70 -29q21 0 94.5 24t107.5 24
q64 0 103 -61q32 -50 32 -106q0 -68 -34.5 -212.5t-34.5 -215.5q0 -33 10 -60q17 -47 57 -47q70 0 104 112q8 26 27 92q8 32 18 112.5t15 113.5q9 56 38 142q45 134 126 134q24 0 45 -17q3 -5 3 -12q0 -8 -4 -19q-20 -12 -38 -12q-8 0 -32 8t-32 8q-18 0 -36 -47
q-31 -80 -31 -220q0 -145 35 -251q27 -81 54 -81q20 0 84 122zM314 725l-6 9l88 88q9 7 24 4q14 -2 14 -17q3 -3 0 -12q-4 -11 -9 -12.5t-111 -59.5z" />
    <glyph glyph-name="Ucircumflex" unicode="&#xdb;" horiz-adv-x="673" 
d="M676 186l6 -4q-97 -185 -130 -185q-55 0 -75 109q-7 46 -20 137q-14 -49 -44 -146q-39 -114 -111 -114q-63 0 -87 84q-18 62 -14 112l24 300q4 51 -10 90q-19 53 -79 53q-19 0 -64 -12t-65 -12q-41 0 -73.5 23t-38.5 63q40 -29 70 -29q21 0 94.5 24t107.5 24
q64 0 103 -61q32 -50 32 -106q0 -68 -34.5 -212.5t-34.5 -215.5q0 -33 10 -60q17 -47 57 -47q70 0 104 112q8 26 27 92q8 32 18 112.5t15 113.5q9 56 38 142q45 134 126 134q24 0 45 -17q3 -5 3 -12q0 -8 -4 -19q-20 -12 -38 -12q-8 0 -32 8t-32 8q-18 0 -36 -47
q-31 -80 -31 -220q0 -145 35 -251q27 -81 54 -81q20 0 84 122zM392 778zM400 819h-16l-96 -85l6 -9l98 53q27 -14 97 -53l7 9q-48 43 -96 85z" />
    <glyph glyph-name="Ugrave" unicode="&#xd9;" horiz-adv-x="673" 
d="M676 186l6 -4q-97 -185 -130 -185q-55 0 -75 109q-7 46 -20 137q-14 -49 -44 -146q-39 -114 -111 -114q-63 0 -87 84q-18 62 -14 112l24 300q4 51 -10 90q-19 53 -79 53q-19 0 -64 -12t-65 -12q-41 0 -73.5 23t-38.5 63q40 -29 70 -29q21 0 94.5 24t107.5 24
q64 0 103 -61q32 -50 32 -106q0 -68 -34.5 -212.5t-34.5 -215.5q0 -33 10 -60q17 -47 57 -47q70 0 104 112q8 26 27 92q8 32 18 112.5t15 113.5q9 56 38 142q45 134 126 134q24 0 45 -17q3 -5 3 -12q0 -8 -4 -19q-20 -12 -38 -12q-8 0 -32 8t-32 8q-18 0 -36 -47
q-31 -80 -31 -220q0 -145 35 -251q27 -81 54 -81q20 0 84 122zM426 725l6 9l-88 88q-9 7 -24 4q-14 -2 -14 -17q-3 -3 0 -12q3 -11 8.5 -12.5t111.5 -59.5z" />
    <glyph glyph-name="circumflex" unicode="&#x2c6;" horiz-adv-x="262" 
d="M132 478zM140 519h-16l-96 -85l6 -9l98 53q27 -14 97 -53l7 9q-48 43 -96 85z" />
    <glyph glyph-name="tilde" unicode="&#x2dc;" horiz-adv-x="223" 
d="M221 527q-27 -62 -89 -62q-19 0 -43 10.5t-45 10.5q-16 0 -27 -9l-10 -10l-3 2q9 22 32.5 40.5t44.5 15.5q14 -2 43 -14t38 -12q5 0 11 2q17 4 42 31q7 -4 6 -5z" />
    <glyph glyph-name="macron" unicode="&#xaf;" horiz-adv-x="302" 
d="M79 469l2 19h146l-1 -19h-147z" />
    <glyph glyph-name="macron" unicode="&#x2c9;" horiz-adv-x="302" 
d="M79 469l2 19h146l-1 -19h-147z" />
    <glyph glyph-name="cedilla" unicode="&#xb8;" horiz-adv-x="223" 
d="M86 -62h10q20 0 32.5 -18.5t12.5 -39.5q0 -50 -55 -50q-14 0 -33 5q-5 1 -16 11l-15 -16q29 -26 68 -26q34 0 63.5 20t31.5 52q3 34 -19 55.5t-56 25.5l8 45h-24z" />
    <glyph glyph-name="Scaron" unicode="&#x160;" 
 />
    <glyph glyph-name="scaron" unicode="&#x161;" 
 />
    <glyph glyph-name="brokenbar" unicode="&#xa6;" 
 />
    <glyph glyph-name="Eth" unicode="&#xd0;" horiz-adv-x="45" 
 />
    <glyph glyph-name="eth" unicode="&#xf0;" 
 />
    <glyph glyph-name="Yacute" unicode="&#xdd;" 
 />
    <glyph glyph-name="Thorn" unicode="&#xde;" 
 />
    <glyph glyph-name="thorn" unicode="&#xfe;" 
 />
    <glyph glyph-name="minus" unicode="&#xad;" 
 />
    <glyph glyph-name="minus" unicode="&#x2212;" 
 />
    <glyph glyph-name="onesuperior" unicode="&#xb9;" 
 />
    <glyph glyph-name="twosuperior" unicode="&#xb2;" 
 />
    <glyph glyph-name="threesuperior" unicode="&#xb3;" 
 />
    <glyph glyph-name="onehalf" unicode="&#xbd;" 
 />
    <glyph glyph-name="onequarter" unicode="&#xbc;" 
 />
    <glyph glyph-name="threequarters" unicode="&#xbe;" 
 />
    <glyph glyph-name="Lslash" unicode="&#x141;" 
 />
    <glyph glyph-name="lslash" unicode="&#x142;" 
 />
    <glyph glyph-name="HT" horiz-adv-x="148" 
 />
    <glyph glyph-name="LF" 
 />
    <glyph glyph-name="nonmarkingreturn" horiz-adv-x="148" 
 />
    <glyph glyph-name="Zcaron" unicode="&#x17d;" 
 />
    <glyph glyph-name="zcaron" unicode="&#x17e;" 
 />
    <glyph glyph-name="DLE" 
 />
    <glyph glyph-name="DC1" 
 />
    <glyph glyph-name="DC2" 
 />
    <glyph glyph-name="DC3" 
 />
    <glyph glyph-name="DC4" 
 />
    <glyph glyph-name="RS" 
 />
    <glyph glyph-name="US" 
 />
    <glyph glyph-name="notequal" unicode="&#x2260;" horiz-adv-x="11" 
 />
    <glyph glyph-name="infinity" unicode="&#x221e;" horiz-adv-x="458" 
 />
    <glyph glyph-name="partialdiff" unicode="&#x2202;" horiz-adv-x="182" 
d="M136 637q0 61 -23 61q-28 0 -40 -90q-3 -20 -9 -114q-2 -30 -2 -117q15 31 43 125q31 104 31 135zM-48 222q5 3 48 32q3 133 26 265q33 191 91 191q22 0 34 -19t12 -42q0 -70 -45 -172l-57 -123q-1 -2 -2 -61l114 74v-32l-114 -73v-9q0 -220 28 -220q12 0 50 78
q28 57 43 99h7q0 -40 -43 -125q-46 -90 -75 -90q-68 0 -69 229l-48 -31v29z" />
    <glyph glyph-name="summation" unicode="&#x2211;" horiz-adv-x="488" 
d="M439 181q0 -91 -66.5 -149.5t-158.5 -58.5q-117 0 -172 64q-35 40 -35 86q0 63 55 97q47 30 113 30q59 0 105 -23q58 -29 57 -83q-1 -48 -41 -72q-33 -20 -84 -20q-37 0 -64 17q-33 19 -33 54q0 26 22 41.5t49 15.5q22 0 36 -12q-66 7 -66 -49q0 -55 64 -55q34 0 54 27
q18 24 18 59q0 44 -44 68q-33 18 -69 18q-51 0 -87 -28q-38 -31 -38 -81q0 -61 48 -101t110 -40q79 0 133 39q61 43 61 119q0 63 -66 116q-41 33 -128 65q-83 30 -125 69q-60 55 -62 125q-3 81 51.5 135t135.5 54q62 0 112 -22q74 -33 74 -101q0 -56 -52 -87
q-40 -24 -87 -24q-49 0 -86 22q-45 27 -45 72q0 60 86 74q29 5 60 -9q35 -16 35 -44q0 -13 -13.5 -27t-26.5 -13l-23 5q24 8 32.5 13t8.5 20q0 20 -21 31.5t-42 11.5q-23 0 -41.5 -18.5t-18.5 -41.5q0 -40 25.5 -62t65.5 -22q46 0 76 25t30 70q0 60 -47 90q-39 25 -102 25
q-67 0 -113 -37q-49 -40 -49 -105q0 -49 43 -86q34 -29 95 -52q33 -11 98 -35q153 -61 153 -200zM132 466zM214 745h16l96 85l-6 9l-98 -53q-27 14 -97 53l-7 -9q48 -42 96 -85z" />
    <glyph glyph-name="product" unicode="&#x220f;" horiz-adv-x="251" 
d="M92 367q32 -133 32 -241q0 -124 -57 -124q-17 0 -30 15t-13 33q0 38 29 38q18 0 18 -15q0 -16 -19 -16q-8 0 -11 5q-3 -7 -3 -13q0 -26 28 -26q11 0 18.5 11t7.5 22q0 16 -10.5 28t-26.5 12q-39 0 -41 -45q-1 -22 15 -39t38 -18q73 -4 131 71q46 58 68 141q-2 0 -4 1
q-5 -2 -6 -1q-16 -56 -46 -104q-36 -56 -79 -79q54 73 54 145q0 55 -35 127q-40 82 -43 100q-2 10 9 25h-15l-104 -215l12 -1q13 51 27 103q18 60 56 60zM109 446h15l97 85l-7 9l-97 -53q-27 14 -98 53l-6 -9q48 -43 96 -85z" />
    <glyph glyph-name="pi" unicode="&#x3c0;" horiz-adv-x="724" 
d="M704 687q0 -30 -22 -47q-10 -8 -44 -21q-26 -10 -31 -21q-26 -56 -26 -104q0 -81 38.5 -242t38.5 -241q0 -30 -5 -56q-39 -205 -251 -205q-53 0 -102 34q-58 40 -58 100q0 20 13 40.5t31 20.5q19 0 29.5 -15.5t10.5 -35.5q0 -25 -16 -50t-16 -28q0 -22 47 -40
q37 -14 59 -14q30 0 67 9q70 17 94 116q10 41 16 164l-26 245q-12 -63 -21 -105q-41 -193 -140 -193q-46 0 -72.5 36t-26.5 105q0 22 3 46l36 311q0 131 -76 131q-22 0 -68 -12t-68 -12q-33 0 -69.5 24t-45.5 54v14q6 -6 23 -19q26 -19 62 -19q19 0 79.5 23t90.5 23
q31 0 59 -14q81 -40 81 -172q0 -64 -38 -201.5t-38 -182.5q0 -126 75 -126q57 0 96 107q11 29 29 109q12 54 19 139q8 104 29 186q40 159 113 159q6 0 13.5 -7t7.5 -13zM394 725l-6 9l88 88q9 7 24 4q14 -2 14 -17q3 -3 0 -12q-4 -11 -9 -12.5t-111 -59.5z" />
    <glyph glyph-name="integral" unicode="&#x222b;" horiz-adv-x="307" 
d="M208 22q-1 -86 -66 -160q-49 -56 -81 -65l-3 6q71 61 88 105q13 34 13 133v107v96l-48 -141q-39 -108 -70 -111q-41 -3 -41 57v307q0 28 25 28q28 0 28 -30v-268q0 -41 15 -39q13 2 26 43q1 4 36 102q25 70 29 84v79q0 27 25 29q24 -2 24 -29v-310q31 41 98 160q1 3 6 1
l5 -1q-29 -53 -109 -183zM54 425l-6 9l88 88q9 7 24 4q14 -2 14 -17q3 -3 0 -12q-4 -11 -9 -12.5t-111 -59.5z" />
    <glyph glyph-name="Omega" unicode="&#x3a9;" horiz-adv-x="422" 
d="M3 307h47q16 84 63 136q54 58 135 58q52 0 87 -30.5t35 -82.5h-33q0 43 -23 73.5t-65 30.5q-124 0 -148 -185h145v-21h-148q-2 -23 -2 -47v-2h150v-21h-149q4 -85 32 -143q38 -78 107 -78q112 0 112 121h31q-2 -61 -42.5 -96t-102.5 -36q-182 -2 -191 232h-40v21h40v2
q0 24 3 47h-43v21z" />
    <glyph glyph-name="Omega" unicode="&#x2126;" horiz-adv-x="422" 
d="M3 307h47q16 84 63 136q54 58 135 58q52 0 87 -30.5t35 -82.5h-33q0 43 -23 73.5t-65 30.5q-124 0 -148 -185h145v-21h-148q-2 -23 -2 -47v-2h150v-21h-149q4 -85 32 -143q38 -78 107 -78q112 0 112 121h31q-2 -61 -42.5 -96t-102.5 -36q-182 -2 -191 232h-40v21h40v2
q0 24 3 47h-43v21z" />
    <glyph glyph-name="radical" unicode="&#x221a;" horiz-adv-x="20" 
 />
    <glyph glyph-name="approxequal" unicode="&#x2248;" horiz-adv-x="20" 
 />
    <glyph glyph-name="approxequal" unicode="&#x22f2;" horiz-adv-x="20" 
 />
    <glyph glyph-name="Delta" unicode="&#x394;" horiz-adv-x="20" 
 />
    <glyph glyph-name="Delta" unicode="&#x2206;" horiz-adv-x="20" 
 />
    <glyph glyph-name="lozenge" unicode="&#x25ca;" horiz-adv-x="184" 
d="M135 381l-51 -96l-50 97q47 95 49 94q3 0 52 -95z" />
    <glyph glyph-name="fi" unicode="&#xf001;" 
 />
    <glyph glyph-name="fl" unicode="&#xf002;" 
 />
    <glyph glyph-name="apple" unicode="&#xf000;" horiz-adv-x="14" 
 />
    <glyph glyph-name="dotlessi" unicode="&#x131;" horiz-adv-x="148" 
d="M155 205q0 -7 -31 -79l-36 -84q-5 -15 -20.5 -31.5t-29.5 -16.5q-39 0 -39 48v310q-5 32 27 34q25 1 25 -33v-287q0 -31 14 -30q13 1 41 68q14 34 42 101h7z" />
    <glyph glyph-name="breve" unicode="&#x2d8;" horiz-adv-x="296" 
d="M237 521q0 -33 -31 -51q-26 -16 -61 -16t-61 16q-32 18 -32 51h15q0 -45 79 -45q76 0 76 45h15z" />
    <glyph glyph-name="dotaccent" unicode="&#x2d9;" horiz-adv-x="186" 
d="M56 499q0 16 10.5 27t26.5 11t27 -11t11 -27t-11 -26.5t-27 -10.5q-15 0 -26 11t-11 26z" />
    <glyph glyph-name="ring" unicode="&#x2da;" horiz-adv-x="245" 
d="M125 441q-25 0 -43.5 18.5t-18.5 43.5q0 26 18 44t44 18t44 -18t18 -44t-18 -44t-44 -18zM125 543q-17 0 -28 -11.5t-11 -28.5q0 -16 11.5 -27.5t27.5 -11.5q17 0 28.5 11t11.5 28t-11.5 28.5t-28.5 11.5z" />
    <glyph glyph-name="hungarumlaut" unicode="&#x2dd;" horiz-adv-x="500" 
d="M389 347l114 101q10 9 20 9q12 0 12 -17q0 -21 -47 -53q-12 -8 -51 -29q-42 -22 -48 -22q-5 0 -5 5q1 2 5 6zM502 345l112 100q3 3 21 3q11 0 11 -12q0 -17 -14 -29q-45 -38 -101 -59q-2 -1 -28 -12q-4 0 -4 4q0 3 3 5z" />
    <glyph glyph-name="ogonek" unicode="&#x2db;" horiz-adv-x="500" 
d="M305 0h10l-9 -9q-39 -39 -46 -47q-11 -13 -22 -31q-26 -44 -26 -70q0 -12 8 -12q23 0 74 64l8 -6q-52 -71 -91 -71q-28 0 -28 38q0 37 45 83q35 37 77 61z" />
    <glyph glyph-name="caron" unicode="&#x2c7;" horiz-adv-x="201" 
d="M132 466zM124 425h16l96 85l-6 9l-98 -53q-27 14 -97 53l-7 -9q48 -42 96 -85z" />
    </font>
</defs>
</svg>
