<?xml version="1.0" standalone="no"?>
<!DOCTYPE svg PUBLIC "-//W3C//DTD SVG 1.1//EN" "http://www.w3.org/Graphics/SVG/1.1/DTD/svg11.dtd" >
<svg>
<metadata>
Created by FontForge 20120731 at Tue Apr 16 14:08:45 2019
 By www-data
Digitized by Dan X. Solo. Software (c) 1999 by Dover Publications, Inc., New York.
</metadata>
<defs>
<font id="Figaro" horiz-adv-x="20" >
  <font-face 
    font-family="Figaro"
    font-weight="400"
    font-stretch="normal"
    units-per-em="1000"
    panose-1="0 0 4 0 0 0 0 0 0 0"
    ascent="800"
    descent="-200"
    x-height="290"
    cap-height="708"
    bbox="-57.4615 -219 1419 856"
    underline-thickness="20"
    underline-position="-123"
    unicode-range="U+0020-F002"
  />
<missing-glyph horiz-adv-x="500" 
d="M63 0v856h375v-856h-375zM125 63h250v731h-250v-731z" />
    <glyph glyph-name=".notdef" horiz-adv-x="500" 
d="M63 0v856h375v-856h-375zM125 63h250v731h-250v-731z" />
    <glyph glyph-name=".null" horiz-adv-x="0" 
 />
    <glyph glyph-name="glyph2" horiz-adv-x="165" 
 />
    <glyph glyph-name="space" unicode=" " horiz-adv-x="165" 
 />
    <glyph glyph-name="exclam" unicode="!" horiz-adv-x="182" 
d="M142 94q-4 -11 -8 -38q-1 -9 -14 -18q-9 -8 -19 -15q-10 -10 -32 -28q-4 1 -4 12q0 13 7.5 40.5t14.5 37.5q4 6 29 20t37 18zM46 685q35 28 67 28q12 0 17 -6q21 -36 21 -102q0 -29 -5 -59q2 -5 -30 -222q-12 -81 1 -165q-4 -2 -7 -3q-18 138 -18 173l2 211q0 51 -48 145
z" />
    <glyph glyph-name="quotedbl" unicode="&#x22;" horiz-adv-x="226" 
d="M132 664q0 -6 -3 -20l-5 -18q-6 -43 -23 -58q-10 -14 -29 -40q-26 -35 -53 -41q-2 0 -2 4q0 20 19 56t19 30q0 58 14 78q9 13 57 29l6 -3v-17zM242 664q0 -6 -3 -20l-5 -18q-6 -43 -23 -58q-10 -14 -29 -40q-26 -35 -53 -41q-2 0 -2 4q0 20 19 56t19 30q0 58 14 78
q9 13 57 29l6 -3v-17z" />
    <glyph glyph-name="numbersign" unicode="#" horiz-adv-x="336" 
d="M92 168zM57 168zM167 168zM202 168zM195 340l-71 4q-6 -22 -9 -41l-21 -128q42 -3 73 -4q6 20 21 142q2 8 7 27zM26 372q5 4 21 4q23 1 33 2l13 -1q9 61 11 120h28q3 -57 -4 -122q42 -3 73 -4q11 63 13 126h28q3 -60 -6 -127q19 -1 31 0q28 2 38 11q-1 -3 -8 -35
q-8 -6 -42 -9l-24 1q-4 -11 -6 -25l-23 -143q22 -1 35 0q28 2 38 11q-1 -3 -8 -35q-8 -6 -42 -9l-31 2q-20 -76 -27 -135q-2 -3 -26 -3q-4 0 -4 11q0 29 23 128l-28 2l-47 2q-20 -72 -28 -140q-2 -3 -26 -3q-4 0 -4 11q0 30 24 134h-11q-34 0 -52 -6l8 32q5 4 21 4
q23 1 33 2l9 -1q9 29 19 126q3 12 10 42l-18 1q-29 2 -52 -6z" />
    <glyph glyph-name="dollar" unicode="$" horiz-adv-x="304" 
d="M130 435q-62 -12 -62 -51q0 -43 62 -86v137zM201 56q63 19 73 90q-5 35 -73 73v-163zM186 227q-13 7 -40 21v-196q12 -1 21 -1q10 0 19 2v174zM187 434q-18 4 -35 4q-3 0 -6 -1v-150q14 -5 40 -16zM187 529l14 1v-34q42 -12 70.5 -44t28.5 -74l-2 -15l-9 4q-26 45 -88 63
v-166q91 -45 115 -88q12 -22 10 -54q-9 -44 -45 -82q-38 -42 -80 -43v-40q-12 1 -14 0q0 5 -1 38q-10 -1 -20 0q-17 2 -20 2v-38q0 -2 -16 -2v41q-56 7 -89 56q-31 45 -31 103q0 32 29 32q15 0 43 -13.5t28 -26.5q0 -6 -12 -6q-25 6 -28 6h-22q-5 -1 -6 -12l-2 -17
q-6 -50 90 -66v204q-90 55 -90 131q0 37 27 68q26 28 63 39v32h16v-28q9 1 18 1q11 0 23 -2v30z" />
    <glyph glyph-name="percent" unicode="%" horiz-adv-x="419" 
d="M347 -1q-44 0 -70 40q-23 35 -23 81q0 128 83 128q25 0 45 -30v-9l-9 -5q-15 3 -22 3q-34 0 -54.5 -22.5t-20.5 -57.5q0 -84 70 -84q34 0 55 33q19 29 19 64q0 48 -18 80q-23 39 -67 39q-27 0 -54 -23h-9l-4 9q0 20 28 36q25 15 46 15q53 0 79 -48q21 -38 21 -95
q0 -60 -18 -100q-24 -54 -77 -54zM72 -13q-6 0 -23 17q73 68 146 203q100 185 123 219q-61 -32 -97 -44l1 -40q1 -57 -18 -94q-26 -49 -77 -49q-44 0 -70 40q-23 35 -23 81q0 43 13 76q-5 14 -5 27q0 31 24 52t56 21q71 0 95 -90q12 5 108 56q87 46 98 46h7l7 -17
q-89 -57 -120 -114q-37 -73 -113 -219q-91 -171 -132 -171zM104 457q-26 0 -38 -29q26 20 51 20q24 0 45 -30v-9l-9 -5q-19 3 -22 3q-27 0 -49 -16q26 -15 41 -15q16 0 70 20q-23 61 -89 61zM197 374q-51 -25 -70 -25q-31 0 -62 20q-9 -20 -9 -42q0 -84 70 -84q34 0 55 33
q19 29 19 64q0 16 -3 34z" />
    <glyph glyph-name="ampersand" unicode="&#x26;" horiz-adv-x="727" 
d="M158 547q18 66 71 104.5t122 38.5q48 0 81 -19q41 -23 41 -67q0 -43 -46 -96q-44 29 -131 29q-51 0 -99 -11q0 -7 -2 -19q-3 -15 -3 -19q-3 -26 19 -48q59 39 114 39q62 0 90 -57q-8 -59 -79 -59q-31 0 -66 13q-40 14 -57 35q-67 -89 -67 -172q0 -87 69 -142
q64 -52 152 -52q91 0 152 58q57 54 78 147q-45 -38 -103 -38q-35 0 -60 10q-36 14 -36 43q0 16 12 36q44 23 83 23q45 0 91 -30q71 39 118 39q69 0 76 -85q-39 46 -75 43q-21 -2 -82 -32q-11 -114 -88.5 -186t-192.5 -76q-112 -4 -185 61.5t-74 177.5q-1 40 26 96
q32 69 82 85q-34 29 -34 106q-60 -19 -135 -63q32 32 128 73q9 4 11.5 6t2.5 4q0 3 -4 4zM296 646q-64 -22 -95 -109q44 12 97 12q63 0 131 -17q4 19 4 35q0 82 -99 82q-21 0 -38 -3zM460 305q-17 -11 -17 -24q0 -8 6 -15q5 -13 33 -13q39 0 92 20l-26 23q-40 13 -59 13
q-14 0 -29 -4zM231 417l23 -19q51 -21 78 -21q28 0 56 19l2 27q-33 21 -75 21q-44 0 -84 -27z" />
    <glyph glyph-name="quotesingle" unicode="'" horiz-adv-x="124" 
d="M132 664q0 -6 -3 -20l-5 -18q-6 -43 -23 -58q-10 -14 -29 -40q-26 -35 -53 -41q-2 0 -2 4q0 20 19 56t19 30q0 58 14 78q9 13 57 29l6 -3v-17z" />
    <glyph glyph-name="parenleft" unicode="(" horiz-adv-x="134" 
d="M129 701q-132 -187 -130 -330q2 -122 31.5 -209t101.5 -184l10 3q-102 198 -100 384q2 150 101 333z" />
    <glyph glyph-name="parenright" unicode=")" horiz-adv-x="150" 
d="M31 701q132 -187 130 -330q-2 -122 -31.5 -209t-101.5 -184l-10 3q102 198 100 384q-2 150 -101 333z" />
    <glyph glyph-name="asterisk" unicode="*" horiz-adv-x="195" 
d="M196 681q14 -6 13 -25l-82 -49l80 -59q-2 -14 -18 -21l-73 63l5 -96q-8 -10 -22 -10q-7 0 -9 5l6 95l-67 -59q-9 0 -15 20l74 62l-68 54q8 20 17 24l62 -54l4 79q8 4 15 4q9 0 16 -6l-16 -83z" />
    <glyph glyph-name="plus" unicode="+" horiz-adv-x="460" 
d="M492 274q-8 -17 -53 -19q-109 -4 -160 -10q-4 -19 -4 -45q0 -18 3.5 -54t3.5 -54q0 -79 -72 -90q6 19 6 42q0 80 -59 146q-55 63 -135 82q11 10 99 11h106q-1 25 -1 47q0 76 13 125q13 1 41 0q-11 -38 -11 -56q0 -19 1.5 -56.5t1.5 -56.5q90 -6 131 -10q21 -2 89 -2z
M233 111q-2 51 -7 136q-34 3 -63 3t-52 -3q6 -13 80 -54q-2 -16 42 -82z" />
    <glyph glyph-name="comma" unicode="," horiz-adv-x="114" 
d="M122 94q0 -6 -3 -20l-5 -18q-6 -43 -23 -58q-10 -14 -29 -40q-26 -35 -53 -41q-2 0 -2 4q0 20 19 56t19 30q0 58 14 78q9 13 57 29l6 -3v-17z" />
    <glyph glyph-name="hyphen" unicode="-" horiz-adv-x="178" 
d="M15 171q12 22 22 19q29 5 61 5q31 0 66 -5q11 2 27 18q1 -6 1 -10q-1 -13 -7 -16l-12 -7q-7 -4 -29 -3q-22 2 -83 6z" />
    <glyph glyph-name="hyphen" unicode="&#x2010;" horiz-adv-x="178" 
d="M15 171q12 22 22 19q29 5 61 5q31 0 66 -5q11 2 27 18q1 -6 1 -10q-1 -13 -7 -16l-12 -7q-7 -4 -29 -3q-22 2 -83 6z" />
    <glyph glyph-name="period" unicode="." horiz-adv-x="105" 
d="M112 94q0 -6 -3 -20l-5 -18q-1 -9 -14 -18q-9 -8 -19 -15q-10 -10 -32 -28q-4 1 -4 12q0 58 14 78q9 13 57 29l6 -3v-17z" />
    <glyph glyph-name="slash" unicode="/" horiz-adv-x="299" 
d="M308 656q-42 -36 -90 -136q-18 -36 -33 -95q-8 -29 -23 -87q-6 -32 -18 -91q-19 -93 -29 -102q2 2 3 2t1 -1q0 -12 -44 -81.5t-50 -69.5q13 0 19 3q42 22 69 76l36 74q27 78 46 184q7 17 23 91q13 60 29 91q21 41 33 66q22 44 40 61z" />
    <glyph glyph-name="zero" unicode="0" horiz-adv-x="340" 
d="M306 266q0 -103 -25 -173q-37 -102 -119 -102q-68 0 -108 75q-33 62 -33 139q0 83 23 143q32 85 102 85q34 0 63 -49v-10l-7 -4l-33 6q-62 0 -98 -49q-31 -44 -31 -109q0 -68 26 -110q31 -53 94 -53q60 0 96 66q31 56 31 121q0 87 -29 149q-38 81 -114 81q-47 0 -90 -43
h-7l-3 8q0 32 40 59q36 25 70 25q84 0 123 -91q29 -67 29 -164z" />
    <glyph glyph-name="one" unicode="1" horiz-adv-x="327" 
d="M260 510q-27 -60 -27 -156q0 -55 10 -164.5t10 -164.5q0 -23 -40 -46.5t-64 -21.5v9q0 -51 22.5 71.5t22.5 150.5q0 175 21 236l-9 9l-65 -8q-12 0 -70 17l-4 6q9 6 30 7q31 2 32 3q28 5 65 26q27 16 59 34z" />
    <glyph glyph-name="two" unicode="2" horiz-adv-x="340" 
d="M321 112q-15 -62 -32 -86q-26 -37 -79 -37q-20 0 -58.5 13.5t-58.5 13.5q-22 0 -48 -15t-37 -14l-2 13q0 71 64 140l121 121q64 65 64 108q0 36 -25.5 59t-61.5 23q-107 0 -106 -143q-22 15 -22 82q0 58 33 91.5t91 33.5q56 0 90.5 -35t34.5 -91q0 -62 -58 -117
q-38 -33 -111 -99q-62 -58 -67 -121l5 -1q73 26 84 24l88 -15q48 0 68 28q7 11 20 32z" />
    <glyph glyph-name="three" unicode="3" horiz-adv-x="343" 
d="M313 162q0 -74 -36 -118q-39 -48 -111 -48q-55 0 -101 32q-51 36 -51 88l3 14l7 -1q27 -29 68 -49t78 -20q48 0 82 24q38 27 38 73q0 33 -23 70q-25 42 -56 42q-3 0 -34.5 -13.5t-52.5 -13.5q-50 0 -50 40q0 22 32 35q25 10 51 10q13 0 36 -6l36 -9q9 11 19 23q5 9 5 28
q0 41 -39 66q-34 22 -78 22q-74 0 -110 -52h-9l-3 7q28 54 51 75q33 30 86 30q54 0 96 -31q46 -34 46 -86q0 -43 -47 -94q15 -16 43 -50q24 -31 24 -88zM183 276q-12 6 -42 6q-22 0 -22 -15q13 -10 23 -10q29 0 41 19z" />
    <glyph glyph-name="four" unicode="4" horiz-adv-x="355" 
d="M335 104q0 -4 -35 -73l-11 -5q-17 7 -41 4l18 -204l-7 -17q-19 -11 -60 -28l-15 5q30 131 30 238q0 13 -15 13q-69 0 -104 -8q-46 -11 -99 -45l-4 7q13 40 26 61q35 57 64 203q25 127 27 215q44 32 81 46v-8l-15 -38q-17 -71 -52 -211q-29 -109 -78 -202l5 -4
q86 31 164 35q6 9 6 35q0 85 51 276l18 17l-43 -289q-5 -35 13 -35q17 0 76 25v-13z" />
    <glyph glyph-name="five" unicode="5" horiz-adv-x="355" 
d="M323 165q0 -78 -50 -127t-128 -49q-36 0 -86 29q-55 33 -55 65l3 12l7 3q59 -44 148 -44q136 0 136 107q0 55 -38 92.5t-93 37.5q-69 0 -111 -47l-30 31q28 72 28 139q0 14 -11.5 50t-10.5 42l64 -14q38 -8 64 -8q31 0 92 10q5 1 28 9.5t27 7.5l4 -8q-47 -79 -154 -79
q-38 0 -77 13l-5 -9q0 -8 1.5 -24.5t1.5 -24.5q0 -11 -5 -29q-7 -25 -7 -28l5 -1q56 27 101 27q70 0 113 -58q38 -53 38 -125z" />
    <glyph glyph-name="six" unicode="6" horiz-adv-x="355" 
d="M324 174q0 -73 -39 -126q-43 -59 -114 -59q-87 0 -132 91q-36 72 -36 166q0 106 41 176q51 86 149 86q38 0 78 -29q43 -32 43 -68l-7 -6q-49 24 -63 29q-34 11 -81 13q-51 2 -94 -42.5t-37 -94.5l4 -2q63 46 113 46q79 0 127 -50t48 -130zM300 172q0 59 -38.5 92
t-98.5 33q-36 0 -72 -16q-18 -8 -66 -37q-1 -76 36 -127q41 -57 115 -57q50 0 87 31.5t37 80.5z" />
    <glyph glyph-name="seven" unicode="7" horiz-adv-x="331" 
d="M314 499l-9 -14q-24 -37 -59 -151q-25 -81 -39 -158.5t-14 -298.5q-7 -5 -47 -22.5t-45 -17.5q-13 0 -13 13q0 24 45 195l14 53q33 125 45 154q2 7 44 108q36 87 36 97l-4 2q-42 -18 -102 -22q-48 -4 -69 -19q-31 -23 -60 -100q-8 3 -8 30q0 12 2.5 35.5t2.5 35.5
q0 44 -21 80v11h28q18 0 53 -7t53 -7h44q21 0 111 16l12 -5v-8z" />
    <glyph glyph-name="eight" unicode="8" horiz-adv-x="346" 
d="M311 125q0 -63 -50 -100q-44 -33 -110 -33q-51 0 -93 38t-42 88q0 69 36 109q16 18 95 70l-5 7q-104 45 -104 126q0 29 27 47q24 16 54 16q46 0 73 -37l-32 2q-28 2 -52 -16.5t-24 -46.5q0 -22 30.5 -51t52.5 -30q32 17 58 50q30 37 30 69q0 44 -38.5 75.5t-82.5 31.5
q-53 0 -78 -31h-11l-2 8q46 50 57 57q24 15 76 15q48 0 83 -42.5t35 -91.5q0 -65 -106 -152q4 -8 43.5 -39t51.5 -47q28 -39 28 -92zM275 158q0 41 -38 77q-18 17 -72 51q-6 0 -48 -29q-36 -25 -47 -35q-30 -28 -30 -71q0 -44 39 -70q34 -23 81 -23q50 0 82.5 25.5
t32.5 74.5z" />
    <glyph glyph-name="nine" unicode="9" horiz-adv-x="343" 
d="M323 445l-17 -35h-10q-68 52 -129 52q-59 0 -99 -43t-40 -102q0 -94 82 -94q49 0 74 37q17 25 29 77q13 57 24 78l19 -12l3 -19l-18 -115q-12 -74 -12 -115q0 -45 19.5 -133t19.5 -133q0 -14 -30 -32q-39 -24 -42 -28h-13v7q0 63 6 150t7 151q0 19 13 69q11 45 8 70
l-6 -4q-45 -104 -115 -104q-92 0 -92 133q0 81 46 142q50 68 128 68q80 0 145 -65z" />
    <glyph glyph-name="colon" unicode=":" horiz-adv-x="114" 
d="M122 274q0 -6 -3 -20l-5 -18q-1 -9 -14 -18q-9 -8 -19 -15q-5 -12 -22 -31q-2 0 -8 6.5t-6 8.5q0 14 7.5 41t14.5 37q11 16 49 29l6 -3v-17zM122 94q0 -6 -3 -20l-5 -18q-1 -9 -14 -18q-9 -8 -19 -15q-10 -10 -32 -28q-4 1 -4 12q0 58 14 78q9 13 57 29l6 -3v-17z" />
    <glyph glyph-name="semicolon" unicode=";" horiz-adv-x="133" 
d="M142 274q0 -6 -3 -20l-5 -18q-1 -9 -14 -18q-9 -8 -19 -15q-5 -12 -22 -31q-2 0 -8 6.5t-6 8.5q0 14 7.5 41t14.5 37q11 16 49 29l6 -3v-17zM142 94q0 -6 -3 -20l-5 -18q-6 -43 -23 -58q-10 -14 -29 -40q-26 -35 -53 -41q-2 0 -2 4q0 20 19 56t19 30q0 58 14 78
q9 13 57 29l6 -3v-17z" />
    <glyph glyph-name="less" unicode="&#x3c;" horiz-adv-x="270" 
d="M226 410q-29 -24 -215 -170q215 -184 215 -181v17l-148 167q145 144 145 147q0 20 3 20z" />
    <glyph glyph-name="equal" unicode="=" horiz-adv-x="290" 
d="M262 288q-3 -24 -21 -21q-6 1 -30 3q-14 3 -68 3h-75l-50 -5q15 27 26 25q25 3 76 2l111 -2q22 3 25 7q5 3 6 -3q1 -4 0 -9zM262 198q-3 -24 -21 -21q-6 1 -30 3q-13 3 -68 3h-73l-52 -5q15 27 26 25q25 3 76 2l111 -2q22 3 25 7q5 3 6 -3q1 -4 0 -9z" />
    <glyph glyph-name="greater" unicode="&#x3e;" horiz-adv-x="270" 
d="M11 410q-2 0 215 -170q-215 -184 -215 -181v17l149 167q-146 144 -146 147q0 20 -3 20z" />
    <glyph glyph-name="question" unicode="?" horiz-adv-x="325" 
d="M310 496q0 45 -31 75t-76 30q-130 0 -129 -184q-13 9 -21 49q-6 31 -6 57q0 73 39.5 117t111.5 44q150 0 150 -140q0 -69 -30 -124q-17 -30 -78 -103q-44 -52 -44 -101q0 -19 9 -54l-27 -17q1 10 1 18q0 15 -7 37.5t-7 30.5q0 27 51 86q94 110 94 179zM222 94
q0 -6 -3 -20l-5 -18q-1 -9 -14 -18q-9 -8 -19 -15q-10 -10 -32 -28q-4 1 -4 12q0 14 7.5 41t14.5 37q11 16 49 29l6 -3v-17z" />
    <glyph glyph-name="at" unicode="@" horiz-adv-x="716" 
d="M450 61q-47 0 -47 70q0 24 7 55q-33 -64 -42 -77q-32 -44 -70 -41q-48 4 -78.5 43t-30.5 88q0 73 51 142q55 75 126 75q25 0 40 -13q21 -18 35 -67l18 61l58 8q-19 -54 -44 -136l-21 -69q-14 -46 -14 -68q0 -50 29 -50q60 0 107 82q41 71 41 130q0 105 -69.5 181
t-173.5 76q-128 0 -206 -98q-72 -90 -72 -222q0 -133 73 -222q78 -96 208 -96q139 0 220 143h26q-36 -75 -104 -122t-149 -47q-135 0 -228 110q-88 105 -88 243t92.5 238t229.5 100q115 0 198 -84.5t83 -199.5q0 -86 -59 -157q-62 -76 -146 -76zM366 393q-53 0 -90 -86
q-30 -69 -30 -126q0 -29 17 -58q20 -34 52 -34q28 0 70 101q40 93 40 131q0 29 -15.5 50.5t-43.5 21.5z" />
    <glyph glyph-name="A" unicode="A" horiz-adv-x="588" 
d="M576 226q0 -34 -56 -145q-60 -118 -93 -118q-44 0 -73 81l-36 118q-13 -19 -31.5 -69.5t-37.5 -71.5q-27 -31 -75 -31q-84 0 -133 111q-39 88 -39 186v86q47 343 237 343q107 0 155 -111q36 -82 36 -204q0 -93 -40 -222l-5 18q0 27 11 79t11 79q0 118 -29 193
q-43 110 -142 110q-102 0 -157 -113q-43 -89 -43 -203v0v-2l1 -12l2 -58q2 -61 34 -114q39 -64 93 -64q65 0 110 134q37 111 37 220q0 23 -3 37l8 10l5 -5q20 -216 23 -236q29 -182 91 -182q47 0 135 172z" />
    <glyph glyph-name="B" unicode="B" horiz-adv-x="564" 
d="M544 243q0 -6 -24.5 -21t-25.5 -25q-13 -93 -39 -139q-40 -70 -119 -70q-56 0 -92 49q-32 45 -32 103q0 34 14 70q18 46 46 46q27 0 75 -16q55 -18 76 -21l9 8q-8 24 -34 57.5t-46 40.5q-5 1 -10 1q-11 0 -38 -10t-40 -10q-70 0 -70 58q0 57 94 57q29 0 62 -14l32 -14
q18 0 18 70q0 71 -38 116q-41 46 -111 46q-106 0 -181 -118q67 -93 67 -237q0 -44 -15 -139q-16 -100 -32 -134h-10q-65 84 -65 267q0 130 30 227l-41 41l5 10q23 -9 40 -23l50 82q65 106 156 106q82 0 136.5 -58.5t54.5 -140.5q0 -51 -39 -126q44 -37 60.5 -64t33.5 -85
q30 20 40 16zM331 342q-39 17 -50 17q-28 0 -28 -15q0 -17 34 -17q30 0 44 15zM450 151q0 18 -2 27h-12q-3 0 -22.5 -7t-30.5 -7q-41 0 -96 12q-32 7 -23 7q-13 0 -21 -25q-6 -20 -6 -37q0 -78 108 -78q105 0 105 108zM114 222q0 62 -11 127q-14 84 -41 118q-12 -82 -12 -93
q0 -193 44 -278l6 5q14 88 14 121z" />
    <glyph glyph-name="C" unicode="C" horiz-adv-x="570" 
d="M558 240q0 -18 -68 -89q-24 -166 -206 -166q-117 0 -181.5 64t-64.5 181q0 6 -6 6q-4 0 -14.5 -3.5t-14.5 -2.5v13q3 4 16.5 7t15.5 9q5 16 9 49.5t7 49.5q20 103 92 217q87 138 172 138q43 0 43 -60q0 -115 -96 -237q-86 -110 -198 -169q20 -86 78 -142q63 -61 148 -61
q126 0 169 81l-2 4q-77 -45 -145 -45q-58 0 -99 33.5t-41 90.5q0 50 55 87q50 33 103 33q51 0 81 -18.5t49.5 -62.5t29.5 -55q16 11 57 62l9 -11zM325 628l-5 17h-10q-16 0 -69 -46q-49 -42 -63 -62q-114 -159 -114 -250l4 -13q89 43 170 148q87 113 87 206zM468 178
q0 45 -37 73q-33 26 -80 26q-42 0 -94 -23q-64 -28 -64 -64q0 -52 111 -52q48 0 84 10q20 6 80 30z" />
    <glyph glyph-name="D" unicode="D" horiz-adv-x="514" 
d="M497 241q0 -21 -66 -69q-17 -70 -52 -121q-46 -65 -106 -65q-55 0 -81 41q-11 18 -30 86q-16 59 -42 81l-4 -6v-16q0 -49 -16 -107q-22 -76 -53 -76q-19 0 -29 32q-7 23 -7 48q0 107 79 188l2 25q0 217 -59 395l6 5q50 -16 67 -188q7 -71 10 -226q14 -4 42 -16
q37 -20 56 -67l26 -70q21 -42 52 -42q58 0 100 87l-9 6l-26 -2q-100 -8 -176 127q-61 109 -61 222q0 67 27 125q35 75 93 75q76 0 141 -140q53 -114 60 -214q-3 -50 -1 -142l7 -2q12 0 44 38zM413 313q0 98 -35 204q-45 135 -120 135q-37 0 -64 -83q-22 -67 -22 -116
q0 -102 56 -174q61 -78 161 -78l11 3q13 38 13 109zM86 184q0 9 -4 13q-49 -44 -49 -96q0 -21 11 -31q11 7 27 53q15 43 15 61z" />
    <glyph glyph-name="E" unicode="E" horiz-adv-x="534" 
d="M519 234q0 -11 -25 -40t-26 -36q-19 -108 -78 -144q-47 -29 -167 -29q-92 0 -155 54.5t-63 145.5q0 83 59 151q20 21 60 64q-40 19 -65.5 56.5t-25.5 80.5q0 88 66 135q57 41 149 41q41 0 106 -37q71 -40 77 -76l-10 -10q-75 58 -145 58q-72 0 -128 -25q-78 -35 -78 -106
q0 -31 48 -54q41 -20 77 -20q14 0 41 4.5t41 4.5q54 0 54 -40q0 -43 -85 -43q-9 0 -26 1t-25 1q-46 0 -99.5 -69.5t-50.5 -116.5q4 -73 96 -114q72 -32 152 -32q44 0 87 17q55 22 55 60l-1 11q-81 -51 -146 -51q-47 0 -98 23q-62 28 -62 69q0 52 59 76q43 18 104 18
q43 0 87 -24q18 -10 77 -51q21 20 61 61zM431 168q0 19 -35.5 41t-55.5 22q-42 0 -63 -5q-28 -7 -56 -28q-35 -27 -35 -47q0 -19 32 -34q28 -13 50 -13q29 0 91 20q72 23 72 44z" />
    <glyph glyph-name="F" unicode="F" horiz-adv-x="452" 
d="M408 566q-9 -10 -52 -10q-7 0 -23.5 5t-22.5 6q-29 4 -78 37q-45 31 -69 31q-43 0 -58 -45q-8 -40 -15 -80h-5q-16 26 -16 94q0 105 93 105q50 0 96 -30q16 -10 72 -59q43 -37 78 -46v-8zM438 237q0 -29 -43 -29q-41 0 -69 37q-16 21 -37 72l-6 2l-38 -2l-4 -7
q14 -29 25.5 -80.5t11.5 -85.5q0 -69 -30 -110q-34 -47 -100 -47q-70 0 -110 59q-35 51 -35 125q0 61 42 127q47 74 106 74q13 0 26 -4l14 7l-9 109q0 70 18 112q2 -64 5 -120q4 -77 28 -113q31 -4 53 -4q3 8 14 58.5t37 50.5q28 0 28 -50q0 -54 -49 -84q10 -45 22 -67
q20 -36 56 -36q26 0 41 19zM212 184q0 20 -6 75q-6 60 -13 67q-86 0 -125 -38t-39 -124q0 -40 25 -75q28 -39 67 -39q45 0 70 47q21 38 21 87z" />
    <glyph glyph-name="G" unicode="G" horiz-adv-x="584" 
d="M571 257q-1 -30 -86 -87q-1 -32 -9 -65q-14 -61 -90 -94q-61 -27 -133 -27q-252 0 -252 70q0 53 200 92q43 8 256 45q6 34 25 101l-4 17q-124 -111 -216 -111q-60 0 -107 38q-43 -38 -66 -57q-53 -44 -65 -46l-13 14q23 17 70 53q56 44 57 56q-48 82 -48 181q0 96 33 181
q44 114 124 114q52 0 52 -124q0 -164 -98 -310q12 -18 76 -18q69 0 121 22q32 14 71 43q32 24 44 26l5 -7l-31 -152l5 -4q18 2 73 57zM268 604q0 87 -31 87q-18 0 -45 -29q-68 -72 -68 -180q0 -36 16 -93q19 -68 44 -75q84 104 84 290zM448 148v9h-8q-18 0 -47 -9
q-34 -10 -47 -12q-54 -6 -161 -20q-124 -19 -135 -51q7 -13 49 -21q35 -7 57 -7q209 0 292 111z" />
    <glyph glyph-name="H" unicode="H" horiz-adv-x="692" 
d="M686 259q0 -29 -79 -29q-37 0 -98 7l-4 -6q9 -37 89 -245l-21 -3l-17 4q-82 88 -245 283l-7 -9v-21q0 -91 -28 -161q-39 -96 -114 -96q-38 0 -90 42t-52 79l6 14q45 -48 91 -48q78 0 113 90q25 64 25 157q0 59 -16 166q-18 122 -39 156q-26 32 -70 102l14 14
q21 -2 114 -80q40 -33 119 -101l-16 -4q-19 0 -54 12.5t-53 12.5l-4 -5q14 -41 29 -103q23 -96 25 -103q25 -21 77 -48q61 -32 80 -44l2 3l-1 54q-2 90 42 197q53 131 129 133l17 -24q-12 -40 -56 -65q-53 -30 -70 -56q-35 -53 -35 -170q0 -84 7 -84q-25 0 28.5 -16
t73.5 -17q12 -1 42 9t43 9zM524 73l-9 26q-11 29 -35 94q-4 27 -13 59q-10 13 -57 30l-66 24v-11q0 -6 78 -103l81 -101q9 -9 21 -18z" />
    <glyph glyph-name="I" unicode="I" horiz-adv-x="315" 
d="M302 253q-2 -16 -36 -30q-37 -15 -39 -18q-5 -8 -12.5 -79t-19.5 -98q-24 -52 -77 -52q-42 0 -66 32q-22 29 -22 72q0 63 28 95.5t89 44.5q52 9 60 17q0 13 2 39.5t2 39.5l-4 24q-69 39 -117 142q-43 95 -43 182q0 11 7 27.5t16 16.5q52 0 101 -146q31 -92 49 -195l10 -8
l5 2l21 -8l-2 -18q-16 0 -22 2l-9 -11q1 -30 9 -86q35 4 66 19zM198 388q-20 70 -46 137q-41 105 -70 111l-2 -30q0 -8 17.5 -64t22.5 -66q46 -86 76 -93zM200 186q0 6 -13 6q-4 0 -12.5 -3t-12.5 -3q-56 -6 -77 -17q-34 -18 -34 -67q0 -52 48 -52q61 0 93 112q8 28 8 24z
" />
    <glyph glyph-name="J" unicode="J" horiz-adv-x="324" 
d="M316 238q0 -17 -63 -53l1 -33q3 -99 -28 -209q-41 -146 -120 -146q-37 0 -60 37q-20 32 -20 72q0 106 52 176q30 40 136 122l8 8q3 28 3 47q0 57 -7 79q-181 84 -181 312q0 31 19 58l12 2q77 0 119 -139q17 -65 52 -194q4 -9 20 -10q-14 1 26 1q13 0 24 -12
q0 -18 -26 -19q-34 -2 -38 -5l7 -103l6 -2q40 25 55 20zM209 381v12q0 36 -48 150q-51 122 -81 122q-6 0 -13 -15t-7 -23q0 -73 42 -143q43 -73 107 -103zM221 155l-3 8q-67 -26 -112 -83q-48 -60 -48 -129q0 -26 7 -54q9 -37 28 -37q12 0 35 25q18 20 28 37q29 50 42 114
q7 40 23 119z" />
    <glyph glyph-name="K" unicode="K" horiz-adv-x="663" 
d="M653 234q-12 -65 -62 -147q-57 -94 -108 -94q-64 0 -96 85q-8 22 -39 174q-22 107 -58 137q-46 3 -57 8q-22 10 -22 49q0 10 36 10q42 0 61 -20q78 56 150 135q81 88 118 163l14 6l12 -11q-14 -70 -117 -180q-71 -77 -156 -146q28 -32 59 -118q40 -110 51 -133
q32 -66 73 -71q34 -5 76 72q19 35 57 106zM265 331q-51 -44 -51 -55q0 -8 2.5 -24t2.5 -24v-87q0 -151 -123 -151q-40 0 -66 39q-24 35 -24 76q0 65 46 113q40 42 107 61l8 11v60q0 -3 2 64q1 43 0 71q-2 37 -8 62l-87 -231q-9 -1 -9 16q0 18 43 149q48 145 54 171
q4 33 4 34q4 21 12 31h9l4 -5l-1 -29q-3 -81 5 -187l14 -186l5 -2l37 34h14v-11zM163 232q0 7 -4 10q-59 -18 -85 -37q-43 -31 -43 -85q0 -24 14 -46t37 -22q16 0 35 20q11 12 28.5 75t17.5 85z" />
    <glyph glyph-name="L" unicode="L" horiz-adv-x="537" 
d="M531 216q0 -50 -63 -139q-65 -93 -112 -93q-25 0 -84 44q-49 -40 -119 -40q-49 0 -94 25q-54 29 -54 74t44 68q35 19 84 19q76 0 138 -54h6q9 26 9 46q0 76 -63 190q-111 -71 -183 -71q-11 0 -11 18q0 20 73 45q87 30 106 47q-35 56 -35 150q0 60 22 107q27 62 80 62
q67 0 67 -116q0 -52 -29 -115.5t-67 -100.5q84 -107 84 -218q0 -15 -16 -76q32 -22 49 -22q38 0 94 65t55 104l5 5q14 -7 14 -24zM314 608q0 73 -29 73q-10 0 -28 -26q-13 -20 -20 -36q-20 -49 -20 -110q0 -14 6.5 -46t11.5 -44q31 29 55 87.5t24 101.5zM234 60
q-9 19 -64 44.5t-79 25.5q-20 0 -40 -10q-24 -12 -24 -29q0 -22 47 -36q35 -10 66 -10q33 0 94 15z" />
    <glyph glyph-name="M" unicode="M" horiz-adv-x="792" 
d="M784 208q0 -35 -41 -122q-44 -94 -74 -94q-74 0 -74 223q0 35 4 104t4 104q0 46 -4 65q-7 33 -32 56q-111 -82 -111 -428v-67q0 -14 1 -35v-21l-5 -8q-41 7 -47 20q-17 38 -17 208q0 61 2 129l2 64q1 46 -5 111q-8 85 -24 85q-36 0 -65 -139q-15 -72 -41 -270
q-7 -63 -14 -127q-18 -84 -71 -81l-1 9q0 42 12.5 124.5t12.5 124.5v147q0 64 -19 154q-25 120 -65 120q-8 0 -45 -20q-42 -23 -49 -25l-16 39q0 7 58.5 55.5t70.5 48.5q72 0 95 -222q6 -58 10 -261q23 199 32 245q35 178 96 178q59 0 60 -168v-89l4 -273q17 56 24.5 178.5
t25.5 181.5q30 100 92 100q64 0 64 -238q0 -32 -1 -96t-1 -96q0 -86 46 -125q23 0 58 71q24 48 40 94z" />
    <glyph glyph-name="N" unicode="N" horiz-adv-x="660" 
d="M655 246q0 -54 -45 -149q-49 -104 -96 -114q-83 21 -83 210q0 53 4 106l6 75q2 51 -19 136q-26 104 -61 104q-61 0 -103 -258q-9 -55 -47 -325l-43 -33h-22l-3 16q0 55 21 166t21 168q0 103 -12 180q-21 135 -73 135q-8 0 -34 -9.5t-39 -9.5q-14 0 -18 15q-1 2 -4 26
q109 72 128 72q50 0 71 -120q15 -84 15 -202q0 -34 -1 -54q-6 -123 -6 -142l3 6q14 29 29 153q17 144 38 206q35 104 102 104q90 0 90 -289q0 -49 -3 -112l-3 -66q0 -42 15 -99q20 -75 45 -75q67 51 114 187l10 5z" />
    <glyph glyph-name="O" unicode="O" horiz-adv-x="549" 
d="M535 233q-32 -27 -99 -75q-26 -73 -79 -121q-59 -53 -132 -53q-95 0 -157 70q-60 67 -60 163q0 17 9.5 50t9.5 49q0 18 -9.5 55t-9.5 56q0 107 53 191q62 98 163 98q113 0 180 -139q55 -114 55 -212q0 -14 -1 -28l-9 -113l6 -10q70 31 80 30v-11zM430 332q0 102 -50 193
q-59 108 -154 108q-83 0 -140 -77q-52 -71 -52 -156q0 -24 8 -50q7 5 29 37q18 26 35 26l4 -9q0 -8 -27.5 -43t-27.5 -40q0 -6 29 -34.5t39 -34.5q89 -53 213 -53q33 0 73 4q21 29 21 129zM379 141h-8q-12 0 -36.5 -5t-37.5 -5q-148 0 -257 141l-4 -19q0 -82 56 -134.5
t138 -52.5q37 0 86 21q55 24 63 54z" />
    <glyph glyph-name="P" unicode="P" horiz-adv-x="487" 
d="M478 244q3 -11 -52 -25q-48 -12 -68 -12q-37 0 -56 21q-42 -31 -101 -31q-20 0 -49 3l-7 -6q-2 -68 -16 -203l-20 -13q-57 1 -86 152q-19 97 -19 194q0 34 11 93t15 93q1 13 -21 30l12 28h8l15 -10q37 50 74 99q40 40 118 52q13 2 20 2q74 0 118 -75q37 -63 37 -142
q0 -113 -82 -236q13 -20 51 -20q7 0 44 7q43 8 45 8zM370 443q0 76 -42 131q-45 60 -119 60q-22 0 -49 -6q-17 -4 -55 -40.5t-38 -51.5q0 38 31 -51t33 -112l9 -6l41 5q35 0 69.5 -22t52.5 -53l8 -3q59 71 59 149zM256 260q-19 43 -109 60l-2 -32q0 -4 2 -15t1 -18
q4 -8 43 -8q52 0 65 13zM120 266q-1 3 -1 7q0 3 1 8v8q0 14 -8 19q-11 -1 -11 -17q0 -18 19 -25zM118 202q0 9 -20.5 36.5t-20.5 48.5q0 20 14.5 47.5t14.5 26.5q0 20 -21.5 66.5t-36.5 52.5l-8 -97q0 -176 60 -292q5 8 12 54q6 42 6 57z" />
    <glyph glyph-name="Q" unicode="Q" horiz-adv-x="537" 
d="M525 223q0 -17 -62 -120q-68 -114 -106 -114q-24 0 -59.5 25.5t-39.5 25.5q-73 -49 -131 -49q-45 0 -80 17q-44 21 -44 61q0 33 42 62q39 27 74 27q33 0 132 -26q98 168 98 328q0 28 -14 79l-57 73q-34 35 -96 35q-64 0 -103 -80q-32 -65 -32 -136q0 -37 14 -79
q18 -56 47 -56q33 0 51 58q12 40 12 85q0 85 -34 138l8 3q34 -23 56.5 -72.5t22.5 -92.5q0 -55 -23 -102q-28 -58 -78 -58q-52 0 -82 82q-22 61 -22 127q0 92 48 164q54 82 142 82q84 0 136 -117q41 -93 41 -192q0 -176 -78 -292q32 -30 63 -30q40 0 84 67q5 8 61 101h9v-24
zM188 78q-9 9 -40.5 19t-46.5 10q-19 0 -44 -11q-29 -12 -29 -28q0 -17 23 -26q17 -7 37 -7q22 0 56.5 13.5t43.5 29.5z" />
    <glyph glyph-name="R" unicode="R" horiz-adv-x="575" 
d="M565 236q-47 -64 -46 -75q-27 -37 -83 -109q-59 -73 -104 -73q-63 0 -100 99q-28 75 -28 152q0 131 22 178q61 -54 137 -54q50 0 89 41t39 91q0 72 -70 118q-61 40 -136 40q-73 0 -125 -40q-14 -11 -91 -98q21 -37 34 -120q11 -70 11 -128v-68q-11 -90 -15 -114
q-15 -92 -32 -93q-62 60 -62 248q0 126 38 275q3 12 -28 52q4 18 15 27q19 -19 30 -42q13 24 41 73q25 41 69 64q55 28 146 28t146 -59t55 -150q0 -89 -42 -151q-48 -72 -132 -72q-30 0 -95 33l-11 -45q0 -65 22 -122q29 -76 83 -76q53 0 94 40q19 19 59 82q33 53 62 69z
M93 224q0 55 -7 121q-10 95 -28 110q-17 -124 -17 -193q0 -100 26 -160l9 -3q17 54 17 125z" />
    <glyph glyph-name="S" unicode="S" horiz-adv-x="558" 
d="M546 230q0 -16 -36 -40l-37 -26q-37 -177 -196 -177h-76q-89 0 -144 63q-53 60 -53 151q0 32 13 56q16 31 45 31q54 0 164.5 -49t166.5 -49q10 0 20 1l2 5q0 62 -95 130q-59 39 -177 119q-95 66 -95 115q0 67 56 108q51 38 120 38q77 0 134 -42q64 -47 64 -121l-3 -23
l-13 7q-27 47 -85 77q-54 28 -111 28q-44 0 -80 -18q-45 -22 -45 -60q0 -45 83 -91q41 -21 122 -64q118 -68 150 -130q6 -11 17.5 -41t16.5 -30q16 0 61 41h8zM420 149q-5 4 -11 5q-4 0 -11.5 -1t-11.5 -1q-72 0 -225 37q-2 1 -45 17q-26 10 -47 10q-33 0 -33 -34v-32
q0 -54 65 -81q48 -20 111 -20q64 0 120 22q71 28 88 78z" />
    <glyph glyph-name="T" unicode="T" horiz-adv-x="476" 
d="M427 573q0 -15 -16 -15q-39 0 -110 40.5t-100 40.5q-80 0 -77 -118h-8q-20 54 -20 96q0 49 25 78.5t73 29.5q56 0 92 -25q18 -12 54 -55q31 -37 59 -50.5t28 -21.5zM460 253q0 -14 -64 -21q-34 -4 -79 -7q-5 -8 -3 -31l3 -33q0 -79 -38 -126q-42 -52 -119 -52
q-67 0 -111.5 42.5t-44.5 109.5q0 65 62 96q47 25 119 25q26 0 50 -4l11 6q-22 91 -22 184q0 23 1 46l5 89l13 -8q13 -99 23 -156q20 -114 38 -148q5 -10 50 -10q15 0 45.5 2t45.5 2h12zM246 202q0 24 -21 24q-46 0 -114 -21q-84 -26 -84 -61q0 -51 33 -78.5t85 -27.5
q53 0 80 59q21 45 21 105z" />
    <glyph glyph-name="U" unicode="U" horiz-adv-x="561" 
d="M553 238q-14 -46 -45 -137q-37 -104 -75 -104q-58 0 -77 147q-11 89 -6 185l7 125h-2q-6 -11 -8 -44q-10 -138 -35 -245q-43 -183 -116 -183q-52 0 -80 76q-24 64 -18 119l46 427q2 21 -7 45q-12 27 -32 27q-18 0 -49.5 -17t-48.5 -17l-5 34q16 11 48 33.5t47 22.5
q44 0 63 -42q16 -34 11 -80q-9 -85 -19 -171q-10 -100 -10 -171v-93q0 -26 11 -62q13 -43 31 -43q58 0 97 133q26 89 51 265q24 171 33 195l34 18l8 -3l1 -16q0 10 -10 -65t-17 -183q-4 -60 12 -178q20 -147 53 -147q18 0 56 73q8 15 46 93z" />
    <glyph glyph-name="V" unicode="V" horiz-adv-x="458" 
d="M454 249q0 -19 -40 -35q-31 -12 -56 -14q-18 -46 -55 -137q-41 -92 -103 -92q-138 0 -138 330q0 31 1 80q1 40 0 58q-6 145 -55 245v16q20 0 48 -59q24 -50 31 -79q20 -85 20 -213q0 -27 -1 -82t-1 -82q0 -44 10 -75q15 -47 48 -47q41 0 91 63q23 29 65 98
q-80 102 -80 288q0 51 11 113q13 75 36 105q52 -4 74 -142q13 -82 13 -183q0 -27 -3.5 -79.5t-3.5 -79.5q0 -13 6 -14q-5 1 19 1q8 0 59 17zM349 362q0 74 -14 157q-15 93 -41 151l-8 3q-13 -31 -15 -81q-1 -41 -1 -83q-1 -58 15 -125q18 -75 48 -114q4 8 10 44t6 48z" />
    <glyph glyph-name="W" unicode="W" horiz-adv-x="631" 
d="M617 233q0 -16 -37 -31q-43 -17 -48 -23q-15 -64 -42 -121q-39 -80 -83 -80q-58 0 -85 72q-17 45 -27 142q-10 92 -20 108q-11 -62 -38 -184q-31 -123 -118 -123q-54 0 -84 96q-25 78 -20 146q14 206 14 275q0 119 -28 194l16 16q33 -37 54.5 -112.5t16.5 -128.5
l-26 -281q-3 -35 12 -76q18 -49 49 -49q65 0 98 136q23 94 23 189q0 37 -9.5 109.5t-9.5 108.5l3 14q15 12 42 24l12 -8q11 -105 36 -316q32 -245 103 -245q23 0 53 41q28 38 30 63q-81 50 -81 200q0 145 81 324q26 -5 44 -129q13 -91 13 -154q0 -75 -23 -204l14 -2
q57 18 62 17zM523 393q1 69 -25 192l-8 7q-12 -28 -22 -90q-9 -56 -9 -93q0 -48 11 -98q16 -71 45 -77q7 33 8 79v80z" />
    <glyph glyph-name="X" unicode="X" horiz-adv-x="566" 
d="M555 242q-14 -62 -60 -150q-57 -109 -100 -109q-78 0 -123 219q-3 17 -24 123l-5 -2q-21 -70 -37 -119q-72 -219 -135 -219q-17 0 -39 13q-26 15 -22 30q77 38 126 114q26 40 72 148q27 63 27 91q0 12 -13 51q-15 48 -31 95q-21 61 -44 86q-32 35 -83 35q-17 0 -37 -4
l-12 35q0 12 35 28q32 15 47 15q75 0 132 -183q11 -36 32 -108q9 6 55 96q47 96 69 118q17 18 58.5 37t56.5 32h9l5 -19q0 -18 -17.5 -37t-35.5 -20q-44 -4 -115.5 -104t-71.5 -148q0 -42 40 -165q44 -136 76 -136t90 70q52 63 66 102z" />
    <glyph glyph-name="Y" unicode="Y" horiz-adv-x="511" 
d="M498 258q-33 -38 -112 -87q1 -15 7 -59q5 -37 5 -59v-76q-27 -190 -127 -190q-32 0 -51 34q-17 29 -17 63q0 93 34 172q39 90 111 132q-36 174 -36 356l-3 2q-5 -17 -23 -155q-16 -125 -42 -190q-37 -93 -104 -93q-69 0 -106 113q-26 80 -26 173q0 55 19 163t19 163l6 9
q14 -4 29 -23.5t15 -33.5q0 -53 -29.5 -156t-29.5 -156q0 -56 24 -105q30 -61 79 -61q72 0 104 142q15 85 49 256q26 121 77 121q6 0 11 -1l2 -11q-40 -106 -40 -212q0 -45 10 -148q12 -119 25 -135l117 61zM358 50v74q0 14 -4 25q-120 -80 -120 -243q0 -52 27 -52
q36 0 62 62q18 43 26 91q0 7 4.5 21.5t4.5 21.5z" />
    <glyph glyph-name="Z" unicode="Z" horiz-adv-x="490" 
d="M477 239q0 -58 -56 -152q-62 -104 -117 -95q-50 9 -101 18q-62 10 -100 10q-48 0 -89 -33h-8l-5 7q26 152 115 278q20 28 161 187q90 101 110 184l-4 1q-54 -30 -95 -30q-21 0 -62 6t-62 6q-81 0 -81 -83l15 -47l-11 -12q-19 1 -34 58q-12 44 -12 74q0 97 99 97
q30 0 87 -20t87 -20q65 0 108 28l15 -18q-59 -167 -194 -298q-43 -41 -109 -150q-72 -118 -70 -164l5 -2q73 33 97 31l122 -9q71 -5 115 51q17 21 60 116q14 -7 14 -19z" />
    <glyph glyph-name="bracketleft" unicode="[" horiz-adv-x="233" 
d="M159 731h-84v-796h80v-20h-120v836h124v-20z" />
    <glyph glyph-name="backslash" unicode="\" horiz-adv-x="108" 
d="M112 256q-12 -57 -46 -134q-38 -86 -72 -118q4 -12 8 -12q5 0 14 4q27 19 62 112q32 86 38 138z" />
    <glyph glyph-name="bracketright" unicode="]" horiz-adv-x="233" 
d="M57 731h84v-796h-80v-20h120v836h-124v-20z" />
    <glyph glyph-name="asciicircum" unicode="^" horiz-adv-x="209" 
d="M26 313l84 70l90 -70q2 -3 2 -4q-1 -1 -5 0l-52 20q-32 12 -35 13q-2 0 -37 -15q-39 -17 -45 -19q-2 1 -3 2q0 1 1 3z" />
    <glyph glyph-name="underscore" unicode="_" horiz-adv-x="788" 
d="M-1 163l805 -1v-23h-805v24z" />
    <glyph glyph-name="grave" unicode="`" horiz-adv-x="308" 
d="M254 314q4 2 3 7l-169 106q-11 1 -19.5 -9.5t-8.5 -21.5t10 -15z" />
    <glyph glyph-name="a" unicode="a" horiz-adv-x="282" 
d="M302 197q0 -40 -23 -114q-28 -88 -57 -88q-31 0 -44 73q-4 33 -13 98q-11 -14 -22 -60q-14 -55 -24 -74q-19 -35 -51 -35q-38 0 -55 78q-11 52 -11 112q0 52 8 60q18 17 53 31t61 14q28 0 65 -12q47 -15 47 -37q0 -6 -9 -25l-36 15q-3 -7 -3 -17q0 -152 36 -152
q18 0 46 66q19 46 29 86q0 -3 1.5 -9.5t1.5 -9.5zM163 245q-45 11 -53 11q-50 0 -70 -29q-16 -24 -16 -76q0 -95 46 -95q26 0 47 39q6 12 24 62q22 60 22 88z" />
    <glyph glyph-name="b" unicode="b" horiz-adv-x="211" 
d="M283 236q0 -23 -75 -69q-9 -36 -29.5 -106t-70.5 -70t-83 95q-25 72 -25 137q0 121 16 265q24 216 69 216q23 0 23 -71q0 -74 -43 -218l-44 -148q0 -60 19 -119q26 -81 73 -81q21 0 47.5 35t26.5 58q-20 11 -40 23q-20 16 -20 44q0 22 9 39q11 22 31 22q25 0 35 -34
l14 -49q17 0 67 41v-10zM81 617q0 14 -8 34h-8q-26 -42 -37 -165q-3 -33 -9 -166q22 39 43 145q19 96 19 152zM193 220q0 10 -6.5 23t-15.5 13q-7 0 -13.5 -13t-6.5 -22q0 -30 29 -30q13 0 13 29z" />
    <glyph glyph-name="c" unicode="c" horiz-adv-x="241" 
d="M259 240q-3 -44 -56 -141q-59 -108 -100 -108q-66 0 -89 79q-12 41 -12 132q0 51 29 72q25 17 78 17q29 0 52 -15q27 -17 27 -44q0 -15 -14 -42h-8q-5 24 -31.5 45t-51.5 21q-37 0 -50 -24q-10 -18 -10 -58q0 -119 85 -119q32 0 62 41q18 25 45 82q25 54 38 65z" />
    <glyph glyph-name="d" unicode="d" horiz-adv-x="306" 
d="M318 223q0 -47 -72 -218q-9 -21 -25 -16q-44 36 -44 101v3q0 38 -10 57q-24 -88 -27 -96q-23 -57 -63 -65q-75 22 -75 135v98q0 73 64 73q15 0 45 -16.5t30 -29.5q1 -4 1 -7q0 -17 -19 -13q-36 27 -57 27q-17 0 -28 -15.5t-11 -32.5q-3 -21 -3 -40q0 -18 3 -32
q0 -24 13 -47q15 -27 37 -27q38 0 63 78q19 60 19 109v180q0 84 -22 211l3 5q14 -12 36.5 -51t21.5 -54l-13 -201v-80q0 -40 10 -102q13 -82 32 -82q48 29 86 168q5 -8 5 -20z" />
    <glyph glyph-name="e" unicode="e" horiz-adv-x="236" 
d="M253 243q0 -28 -69 -136q-74 -115 -111 -115q-28 0 -48.5 26.5t-20.5 55.5q0 51 50 87v8q-29 16 -38 24q-14 15 -14 40q0 59 75 59q14 0 45.5 -23.5t31.5 -36.5q0 -5 -6.5 -11.5t-11.5 -7.5q-52 45 -80 45q-37 0 -37 -24q0 -40 83 -43q6 -5 9 -26q-23 -12 -47 -24
q-26 -16 -26 -45q0 -15 12.5 -33t26.5 -18q34 0 94 84q42 59 70 117h1z" />
    <glyph glyph-name="f" unicode="f" horiz-adv-x="195" 
d="M209 241q-1 -8 -20 -15q-15 -6 -26 -6q-21 0 -53.5 28.5t-38.5 28.5l-6 -3l-1 -8q-1 -54 31.5 -158.5t32.5 -157.5q0 -37 -11 -78q-15 -57 -40 -57q-33 0 -57 154q-19 121 -19 187v89q0 63 18 159q25 131 27 158q1 18 4 53q4 42 20 42q11 0 19 -37q6 -28 6 -48
q0 -44 -33 -138q-33 -90 -32 -100l22 3q28 0 68 -73q12 -22 48 -22q8 0 23 3t13 4zM106 -72v66q0 49 -30 139q-16 46 -49 139l-5 3q-5 -22 -5 -26q0 -181 59 -401h8q22 26 22 80z" />
    <glyph glyph-name="g" unicode="g" horiz-adv-x="274" 
d="M294 207q0 -20 -37 -83q-17 -29 -51 -86q14 -54 14 -106q0 -128 -60 -128q-21 0 -36 34q-13 28 -13 52q0 69 64 156q-4 12 -10 62q-2 13 -6 50l2 2h-4q-28 -85 -33 -96q-30 -69 -57 -69q-32 0 -51 56q-14 42 -14 82q0 79 15 109q22 44 93 44q28 0 67 -20q45 -22 45 -47
l-2 -18v-2q-16 13 -38 20l-1 -1l-1 -19q-2 -37 13 -123l3 -2q45 55 95 150zM160 234q-24 15 -60 15q-4 -1 -29 -8q-39 -11 -48 -39q-4 -12 -4 -63q0 -24 8 -47q11 -33 29 -33q27 0 64 74q27 54 40 101zM187 -49q0 8 -8 56q-17 -18 -34 -54t-17 -58q0 -50 23 -50q36 0 36 106
z" />
    <glyph glyph-name="h" unicode="h" horiz-adv-x="300" 
d="M322 222q0 -33 -40 -124q-43 -98 -71 -98q-29 0 -37 53q-3 20 -3 75q0 109 -42 109q-37 0 -54 -70q-11 -46 -11 -103q0 -44 -1 -46q-5 -16 -38 -20q-14 45 -20 302q-2 63 27 218q34 183 71 183q23 0 23 -85q0 -64 -48.5 -192.5t-48.5 -158.5q0 -92 15 -124q7 27 22 80
q22 70 70 70q34 0 50 -54q8 -29 15 -104q5 -59 16 -66q19 1 55 80q29 64 39 101q11 -6 11 -26zM99 617q0 29 -14 31q-16 -15 -39 -139q-21 -115 -21 -154q0 -14 3 -29l5 5q15 47 43 141q23 80 23 145z" />
    <glyph glyph-name="i" unicode="i" horiz-adv-x="194" 
d="M82 574q0 -6 -3 -20l-5 -18q-1 -9 -14 -18q-9 -8 -19 -15q-10 -10 -32 -28q-4 1 -4 12q0 14 7.5 41t14.5 37q11 16 49 29l6 -3v-17zM205 249q0 -16 -39 -107q-18 -43 -37 -86q-31 -63 -58 -63q-76 0 -76 244q0 26 6 67h5q14 0 14 -2q3 -42 11 -126q11 -98 44 -98
q25 0 66 79q17 34 53 103z" />
    <glyph glyph-name="j" unicode="j" horiz-adv-x="166" 
d="M178 237q-1 -19 -42 -64q-47 -52 -54 -66q56 -77 56 -166q0 -32 -23 -68q-26 -39 -56 -39q-33 0 -48 48q-11 33 -11 75q0 80 51 149q-51 76 -51 138q0 61 21 62l21 -13q0 -8 -6 -27t-6 -28q0 -61 36 -108h5l95 106zM104 -22q0 42 -38 104q-10 -6 -24 -31.5t-18 -41.5
q-7 -25 -7 -64q0 -17 12 -36t28 -19q23 0 36 34q11 27 11 54zM14 407l3 63q20 26 63 34q-15 -34 -11 -62q-21 -14 -55 -35z" />
    <glyph glyph-name="k" unicode="k" horiz-adv-x="317" 
d="M339 231q0 -38 -47 -134q-51 -105 -86 -105q-20 0 -51 49q-35 56 -62 67q-20 8 -20 19q1 4 8 23q48 6 85 30q47 30 47 72q0 18 -21 18q-55 0 -96.5 -41t-41.5 -95q0 -65 19 -120l-17 -15h-19q-11 0 -16 22q-16 68 -16 210q0 244 46 421q14 52 28 52q19 0 31 -45
q10 -36 10 -63q0 -70 -41 -198l-41 -130q0 -7 2.5 -20.5t2.5 -20.5l3 -4q39 44 59 59q36 27 77 27q64 0 64 -57q0 -72 -103 -131q9 -12 29 -31q24 -24 31 -24q30 0 131 187zM92 585q0 32 -10 56q-20 -8 -38 -129q-15 -98 -15 -146q0 -20 4 -36q23 36 42 124q17 80 17 131z
" />
    <glyph glyph-name="l" unicode="l" horiz-adv-x="200" 
d="M214 237q0 -34 -48 -136q-52 -110 -80 -110q-46 0 -69 132q-15 86 -15 165q0 77 22 223q28 186 63 186q37 0 37 -93q0 -61 -46.5 -190t-46.5 -145q0 -39 17 -107q20 -82 46 -82q22 0 63 73l2 3q27 49 45 96q10 -5 10 -15zM93 616q0 38 -13 38q-20 0 -40 -163
q-11 -91 -11 -146q0 -6 6 -16q19 35 39 141q19 99 19 146z" />
    <glyph glyph-name="m" unicode="m" horiz-adv-x="492" 
d="M509 247q-9 -45 -47 -145q-42 -110 -64 -110q-48 0 -48 107v22q0 5 1 11v7v24q-2 66 -35 66q-41 0 -61 -70q-13 -48 -13 -103q0 -26 3 -40q-8 -12 -48 -19l-6 11q5 15 5 97q0 45 -7.5 69t-32.5 58l-11 4q-35 0 -59 -110q-5 -23 -15 -68q-12 -50 -24 -61h-32q-7 24 -5 63
q1 35 3 56q1 18 1 11q0 19 -4.5 57.5t-4.5 57.5q0 23 14 38q5 -4 5 -13v-10q-1 -7 -1 -9q0 -22 12 -69.5t10 -73.5l8 -8q9 38 30 115q24 81 67 81q28 0 45 -34q10 -20 19 -59q6 -28 13 -43q18 56 29 79q26 55 55 55q56 0 63 -106q1 -22 5 -75q4 -36 23 -36q21 0 59 82
q29 61 44 111l7 -5z" />
    <glyph glyph-name="n" unicode="n" horiz-adv-x="330" 
d="M293 96q-44 -99 -74 -99q-4 0 -27 15q0 219 -41 219q-38 0 -59 -67q-8 -26 -22 -101q-8 -41 -13 -52q-1 -3 -14 -8.5t-18 -5.5q-11 0 -11 30q4 36 4 42q0 106 -14 161q-5 20 -5 28q0 10 6 22l8 -4q29 -53 37 -143l9 4q9 25 36 91q24 55 66 55q45 0 49 -99q0 -21 3 -71
q3 -34 18 -34q17 0 63 80q10 17 52 94q2 -10 4 -27q-12 -20 -30 -63z" />
    <glyph glyph-name="o" unicode="o" horiz-adv-x="258" 
d="M266 220q-7 0 -25 -4.5t-27 -4.5q-4 0 -33 7l-4 -8l15 -66q0 -50 -31 -98q-35 -55 -82 -55q-42 0 -67 70q-19 54 -19 105q0 62 10 89q17 45 69 45q17 0 36 -7q23 -9 23 -23q0 -9 -15 -20q-7 0 -24.5 7t-28.5 7q-35 0 -45 -32q-4 -13 -4 -61q0 -40 14 -75q18 -46 52 -46
t60.5 33t26.5 68q0 36 -36 95q0 35 22 35q9 0 29 -22t29 -25q24 -1 55 -2v-12z" />
    <glyph glyph-name="p" unicode="p" horiz-adv-x="356" 
d="M382 218q0 -8 -39.5 -15t-37.5 -23q1 -9 1 -50q0 -46 -20 -84q-24 -47 -66 -47q-36 0 -65 27.5t-29 63.5q0 33 58 58q71 31 82 44q-13 20 -41 32t-54 12q-17 0 -44 -10q-31 -12 -31 -25t8 -29q18 -102 18 -199q0 -56 -7 -104q-11 -77 -33 -77q-20 0 -35 72q-12 57 -12 94
v91q0 25 14 73.5t14 73.5q0 9 -25.5 22.5t-25.5 23.5l11 16l-2 -1l54 -24q51 61 116 61q44 0 89 -61q16 -21 18 -21q9 0 41.5 13.5t42.5 14.5v-22zM271 136q0 22 -2 25q-52 -26 -71 -39q-28 -19 -52 -50q16 -27 45 -27q31 0 55.5 30t24.5 61zM91 -9q0 152 -27 160
q-14 -75 -14 -165q0 -37 5 -79q7 -60 19 -60q14 0 14 100q0 7 1.5 22t1.5 22z" />
    <glyph glyph-name="q" unicode="q" horiz-adv-x="298" 
d="M319 217q0 -11 -27 -83q-31 -82 -35 -98q-28 -110 -28 -229l-13 -8q-26 6 -33 19q-6 10 -9 79q-3 62 -1 83l14 160l-7 -5q-30 -77 -38 -91q-32 -59 -68 -59q-44 0 -59 84q-7 40 -7 122q0 98 106 98q16 0 40 -8q30 -10 30 -21q0 -7 -7 -21t-13 -14q-2 0 -29 11t-44 11
q-64 0 -64 -85q0 -111 46 -111q45 0 75 72q12 35 37 104q2 7 44 22l2 -10q0 -14 -5 -37q-6 -27 -7 -36q-10 -89 -10 -169v-14q0 -32 4 -53q2 8 4 23q7 62 35 152q32 103 62 138q5 -12 5 -26z" />
    <glyph glyph-name="r" unicode="r" horiz-adv-x="286" 
d="M297 242q0 -11 -48 -114.5t-61 -123t-37 -19.5q-23 0 -41.5 27t-18.5 51v81q0 10 4 29t4 29q-23 7 -67 22q-40 15 -40 59q0 11 10 33.5t19 22.5q3 0 9.5 -8.5t6.5 -12.5q0 -35 -12 -47q3 -11 23 -19q17 -7 30 -7q35 0 50 10l11 -4q-18 -50 -18 -107q0 -80 33 -80
q35 0 84 83q33 57 54 116q5 -14 5 -21z" />
    <glyph glyph-name="s" unicode="s" horiz-adv-x="263" 
d="M282 231l-24 -47q-49 -95 -69 -124q-54 -76 -108 -76q-21 0 -51 15q-34 17 -34 35q0 8 9 15t17 7q5 0 23 -8.5t23 -8.5q20 0 41.5 12.5t21.5 30.5q0 44 -33 84q-8 10 -62 60q-33 31 -33 48q0 79 29 79q14 0 14 -20q0 -5 -11.5 -26.5t-11.5 -26.5q0 -7 17 -22
q46 -31 97 -73q13 -11 35 -56q8 -17 13 -23q42 64 97 149v-24z" />
    <glyph glyph-name="t" unicode="t" horiz-adv-x="197" 
d="M211 213q0 -9 -32.5 -92.5t-40.5 -96.5q-20 -32 -51 -32q-50 0 -72 91q-14 59 -14 130q0 51 19 160q12 69 12 112q0 6 -5 26q-4 16 -2 25h12q23 0 23 -85q0 -33 -11 -103q10 -5 45 -11t50 -6q8 0 22.5 3t22.5 3q-23 -42 -79 -42q-10 0 -30.5 5.5t-30.5 5.5q-6 0 -16 -30
t-10 -40v-62q0 -38 12 -71q16 -44 47 -44q45 0 86 91q13 31 38 92q5 -22 5 -29z" />
    <glyph glyph-name="u" unicode="u" horiz-adv-x="350" 
d="M374 220q-21 -46 -64 -138q-50 -101 -85 -101q-36 0 -42 85q-1 21 -3 107l-6 -2q-13 -34 -40 -101q-30 -67 -71 -67q-31 0 -47 57q-11 40 -11 85v132q1 2 4 2q1 0 10.5 -2.5t9.5 -1.5t-1 2q1 -16 1 -98q0 -35 8 -63q12 -40 36 -40q35 0 71 84q32 75 32 117q0 13 39 19
l14 -10q-16 -57 -16 -154q0 -18 11 -37t28 -19q24 0 65 74q35 63 44 98l7 5z" />
    <glyph glyph-name="v" unicode="v" horiz-adv-x="272" 
d="M292 240q-23 -16 -59 -14l-31 2v-13q0 -64 -25 -136q-32 -93 -78 -93q-34 0 -66 74q-28 65 -28 108q0 10 -1 30t-1 30q0 98 30 98q5 0 11.5 -6.5t6.5 -11.5q0 -1 -14 -28t-14 -49q0 -52 14 -101q20 -70 58 -70q33 0 58 49q21 41 21 79q0 39 -6 60q-1 4 -7.5 15t-6.5 15
q0 5 6.5 10.5t11.5 5.5l30 -21t49 -21q5 0 15 2.5t15 2.5q6 0 11 -5v-12z" />
    <glyph glyph-name="w" unicode="w" horiz-adv-x="390" 
d="M418 238q-18 -16 -38 -17q32 1 -42 2q-3 -12 -1 -34q3 -32 3 -35q0 -60 -15 -105q-22 -66 -67 -66q-63 0 -90 160q-7 -9 -17 -56q-10 -53 -17 -67q-16 -34 -47 -34q-57 0 -76 111q-9 53 -9 161q0 52 24 52q10 0 10 -16q0 -7 -6 -24.5t-6 -24.5q0 -63 9 -107
q15 -75 51 -75q43 0 56 81q6 39 6 111v15q4 6 13 6q8 0 21 -9.5t13 -17.5q0 -203 66 -203q29 0 46 56q12 40 12 81q0 7 -6 90l8 3q39 -27 67 -27q12 0 28 3l4 -3v-11z" />
    <glyph glyph-name="x" unicode="x" horiz-adv-x="335" 
d="M357 222q0 -21 -29.5 -104.5t-43 -107.5t-37.5 -24q-31 0 -59 60q-9 19 -37 88l-8 -7q-41 -141 -116 -141q-17 0 -17 13q0 11 6 27l10 7q22 0 65.5 55.5t43.5 78.5q0 19 -31 52.5t-49 33.5q-7 0 -21.5 -7t-19.5 -13q-9 12 -9 23l3 17q8 7 31.5 18.5t31.5 11.5
q29 0 51 -41q11 -21 32 -64q20 27 58 69q25 21 56 21l32 -13q-3 -9 -8 -27q-1 -5 -24 -5q-19 0 -57.5 -29t-38.5 -46q0 -16 29 -61.5t43 -45.5q23 0 60 77q7 15 44 102h4z" />
    <glyph glyph-name="y" unicode="y" horiz-adv-x="313" 
d="M336 245q-14 -30 -44 -88q-6 -9 -32 -46.5t-26 -44.5q0 -17 7.5 -50t7.5 -50q0 -59 -15 -109q-21 -71 -66 -71q-18 0 -28 29q-7 22 -7 45q0 103 75 223q-10 40 -23 83l-5 -1q-6 -33 -35 -92q-34 -69 -56 -69q-43 0 -61 81q-1 3 -14 118q-1 7 -6 26q-5 16 -5 26
q0 15 12 32q10 -15 33 -122q19 -92 47 -92q64 0 72 198q34 21 48 19v-55q0 -81 16 -126l96 148zM230 -34q0 9 -13 78q-20 -13 -41.5 -70.5t-21.5 -85.5q0 -9 7 -28t13 -21q56 46 56 127z" />
    <glyph glyph-name="z" unicode="z" horiz-adv-x="230" 
d="M247 231q-3 -21 -20 -59q-6 -6 -40 -41q-29 -30 -32 -41q18 -63 18 -87q0 -70 -17 -125q-25 -82 -75 -82q-55 0 -55 96q0 92 76 190q0 11 -48 25.5t-51 41.5q12 7 63 37q45 27 45 47q0 29 -40 29q-14 0 -34.5 -7.5t-27.5 -17.5l-6 11q0 20 31 34q25 12 48 12
q24 0 43.5 -13t19.5 -36q0 -53 -73 -88q4 -4 13 -10q9 -2 29 -11q16 -16 22 -16q7 0 38 27t37 37q5 7 9.5 28.5t8.5 25.5v12l5 6q5 -9 13 -25zM148 -42q0 20 -10 54q-11 39 -24 47q-26 -26 -46.5 -70.5t-20.5 -79.5q0 -24 10 -45q12 -27 33 -27q26 0 44 49q14 38 14 72z" />
    <glyph glyph-name="braceleft" unicode="{" horiz-adv-x="1319" 
d="M1258 347q-55 -7 -188 -15q5 0 -44 1h-31q0 -67 -97 -105q-6 -3 -20 -8q2 -7 2 -15q0 -41 -73 -88q1 -37 -49 -59q-39 -17 -81 -17q-91 0 -266.5 52t-266.5 52q-14 0 -109 -5q83 62 141 62q87 0 247.5 -72.5t247.5 -72.5q33 0 65 11q41 13 52 37q2 3 2 6
q-52 -18 -109 -18q-21 0 -47 8q-34 11 -37 27q-5 25 30 44q28 15 54 15q84 0 123 -54q58 29 58 67q0 4 -5 16q-58 -15 -137 -15q-42 0 -76 7q-56 12 -56 37q0 29 45 47q35 14 65 14q47 0 96 -19q54 -20 79 -54q97 33 97 84v12l-178 -6q-184 0 -228 41q6 31 81 54
q59 18 101 18q79 0 131 -22q10 -5 113 -66q267 0 372 37q34 12 34 20q0 34 -114 49q-69 9 -147 9q-60 0 -178 19q-138 22 -176 19l-12 -1q-74 -75 -192 -75q-72 0 -106 27l9 3q42 -18 98 -18q53 0 100 19q57 22 78 62q91 -3 169 23q95 32 111 92q-8 12 -37 21
q-41 0 -122 -16t-122 -16q-27 0 -164 6q-29 1 -55 1q-111 0 -174 -23q-105 -39 -170 -158l-7 9q27 95 143 162q103 60 202 60q46 0 137 -11.5t137 -11.5q28 0 83 8.5t83 8.5q37 0 64 -14q23 -12 23 -23q0 -67 -135 -116q133 -8 268 -25q223 -28 223 -93q0 -35 -155 -55z
M959 354q-67 42 -227 42q-147 0 -147 -29q0 -12 65 -20q54 -7 79 -6l200 4q10 0 36 1zM693 268q-94 0 -94 -24q0 -17 50 -25q36 -6 68 -6q82 0 132 15q-18 16 -74 29q-49 11 -82 11zM687 154q-77 0 -77 -21q0 -14 30 -21q22 -5 41 -6q46 -1 105 21q-23 27 -99 27z" />
    <glyph glyph-name="bar" unicode="|" horiz-adv-x="6" 
 />
    <glyph glyph-name="braceright" unicode="}" horiz-adv-x="1328" 
d="M196 347q55 -7 188 -15q-5 0 44 1h31q0 -67 97 -105q6 -3 20 -8q-2 -7 -2 -15q0 -41 73 -88q-1 -37 49 -59q39 -17 81 -17q91 0 266.5 52t266.5 52q14 0 109 -5q-83 62 -141 62q-87 0 -247.5 -72.5t-247.5 -72.5q-33 0 -65 11q-41 13 -52 37q-2 3 -2 6q52 -18 109 -18
q21 0 47 8q34 11 37 27q5 25 -30 44q-28 15 -54 15q-84 0 -123 -54q-58 29 -58 67q0 4 5 16q58 -15 137 -15q42 0 76 7q56 12 56 37q0 29 -45 47q-35 14 -65 14q-47 0 -96 -19q-54 -20 -79 -54q-97 33 -97 84v12l178 -6q184 0 228 41q-6 31 -81 54q-59 18 -101 18
q-79 0 -131 -22q-10 -5 -113 -66q-267 0 -372 37q-34 12 -34 20q0 34 114 49q69 9 147 9q60 0 178 19q138 22 176 19l12 -1q74 -75 192 -75q72 0 106 27l-9 3q-42 -18 -98 -18q-53 0 -100 19q-57 22 -78 62q-91 -3 -169 23q-95 32 -111 92q8 12 37 21q41 0 122 -16t122 -16
q27 0 164 6q29 1 55 1q111 0 174 -23q105 -39 170 -158l7 9q-27 95 -143 162q-103 60 -202 60q-46 0 -137 -11.5t-137 -11.5q-28 0 -83 8.5t-83 8.5q-37 0 -64 -14q-23 -12 -23 -23q0 -67 135 -116q-133 -8 -268 -25q-223 -28 -223 -93q0 -35 155 -55zM495 354q67 42 227 42
q147 0 147 -29q0 -12 -65 -20q-54 -7 -79 -6l-200 4q-10 0 -36 1zM761 268q94 0 94 -24q0 -17 -50 -25q-36 -6 -68 -6q-82 0 -132 15q18 16 74 29q49 11 82 11zM767 154q77 0 77 -21q0 -14 -30 -21q-22 -5 -41 -6q-46 -1 -105 21q23 27 99 27z" />
    <glyph glyph-name="asciitilde" unicode="~" horiz-adv-x="221" 
d="M188 371q-5 -10 -21 -21.5t-26 -11.5q-20 -1 -46.5 7t-37.5 8q-35 1 -50 -13l-4 5l25 27q12 13 29 13q12 0 39.5 -8.5t41.5 -8.5q35 0 47 8z" />
    <glyph glyph-name="Adieresis" unicode="&#xc4;" horiz-adv-x="549" 
d="M576 226q0 -34 -56 -145q-60 -118 -93 -118q-44 0 -73 81l-36 118q-13 -19 -31.5 -69.5t-37.5 -71.5q-27 -31 -75 -31q-84 0 -133 111q-39 88 -39 186v86q47 343 237 343q107 0 155 -111q36 -82 36 -204q0 -93 -40 -222l-5 18q0 27 11 79t11 79q0 118 -29 193
q-43 110 -142 110q-102 0 -157 -113q-43 -89 -43 -203v0v-2l1 -12l2 -58q2 -61 34 -114q39 -64 93 -64q65 0 110 134q37 111 37 220q0 23 -3 37l8 10l5 -5q20 -216 23 -236q29 -182 91 -182q47 0 135 172zM250 785q0 29 28 29q27 0 27 -29t-27 -29q-28 0 -28 29zM160 785
q0 29 28 29q27 0 27 -29t-27 -29q-28 0 -28 29z" />
    <glyph glyph-name="Aring" unicode="&#xc5;" horiz-adv-x="549" 
d="M576 226q0 -34 -56 -145q-60 -118 -93 -118q-44 0 -73 81l-36 118q-13 -19 -31.5 -69.5t-37.5 -71.5q-27 -31 -75 -31q-84 0 -133 111q-39 88 -39 186v86q47 343 237 343q107 0 155 -111q36 -82 36 -204q0 -93 -40 -222l-5 18q0 27 11 79t11 79q0 118 -29 193
q-43 110 -142 110q-102 0 -157 -113q-43 -89 -43 -203v0v-2l1 -12l2 -58q2 -61 34 -114q39 -64 93 -64q65 0 110 134q37 111 37 220q0 23 -3 37l8 10l5 -5q20 -216 23 -236q29 -182 91 -182q47 0 135 172zM237 856q22 0 37 -15t15 -37t-15 -37t-37 -15t-37 15t-15 37t15 37
t37 15zM237 836q-32 0 -32 -32t32 -32t32 32t-32 32z" />
    <glyph glyph-name="Ccedilla" unicode="&#xc7;" horiz-adv-x="522" 
d="M558 240q-6 -24 -68 -89q-11 -71 -65.5 -116.5t-127.5 -48.5h1l-6 -34q44 -13 44 -60q0 -25 -18 -41t-43 -16q-32 0 -51 33l13 13q11 -25 32 -25q14 0 24.5 10.5t10.5 24.5q0 5 -7 26q-6 8 -29 23l7 47q-115 0 -178 68q-61 65 -61 181q0 4 -5 4q-2 0 -28 -10v13q3 2 22 6
q13 3 10 10q-1 4 -1 10q0 30 24 118q34 123 86 206q75 120 171 120q43 0 43 -60q0 -116 -95 -237q-85 -108 -199 -169q20 -86 78 -142q63 -61 148 -61q126 0 169 81l-2 4q-76 -45 -145 -45q-58 0 -97 30q-43 32 -43 88q0 50 55 85q59 38 119 38q46 0 91 -35q53 -41 53 -98
q20 15 57 62zM325 628l-5 17h-10q-16 0 -69 -46q-45 -39 -63 -62q-38 -48 -73 -120q-41 -84 -41 -130l4 -13q91 44 171 148q86 111 86 206zM464 180q0 45 -33.5 71t-79.5 26q-43 0 -95 -23q-63 -28 -63 -64q0 -52 111 -52q43 0 82 12q20 6 78 30z" />
    <glyph glyph-name="Eacute" unicode="&#xc9;" horiz-adv-x="484" 
d="M519 234q0 -11 -25 -40t-26 -36q-19 -108 -78 -144q-47 -29 -167 -29q-92 0 -155 54.5t-63 145.5q0 83 59 151q20 21 60 64q-40 19 -65.5 56.5t-25.5 80.5q0 88 66 135q57 41 149 41q41 0 106 -37q71 -40 77 -76l-10 -10q-75 58 -145 58q-72 0 -128 -25q-78 -35 -78 -106
q0 -31 48 -54q41 -20 77 -20q14 0 41 4.5t41 4.5q54 0 54 -40q0 -43 -85 -43q-9 0 -26 1t-25 1q-46 0 -99.5 -69.5t-50.5 -116.5q4 -73 96 -114q72 -32 152 -32q44 0 87 17q55 22 55 60l-1 11q-81 -51 -146 -51q-47 0 -98 23q-62 28 -62 69q0 52 59 76q43 18 104 18
q43 0 87 -24q18 -10 77 -51q21 20 61 61zM431 168q0 19 -35.5 41t-55.5 22q-42 0 -63 -5q-28 -7 -56 -28q-35 -27 -35 -47q0 -19 32 -34q28 -13 50 -13q29 0 91 20q72 23 72 44zM144 734q-4 2 -3 7l164 88q9 1 16 -7t7 -18q0 -13 -11 -18z" />
    <glyph glyph-name="Ntilde" unicode="&#xd1;" horiz-adv-x="629" 
d="M658 250q0 -54 -45 -147q-50 -104 -97 -113q-84 20 -84 208q0 39 5 105q4 58 5 74q2 51 -19 135q-26 104 -61 104q-62 0 -104 -256q-16 -108 -48 -323l-42 -32h-23l-3 16q0 55 21 165t21 166q0 102 -12 178q-21 135 -74 135q-7 0 -33.5 -10t-39.5 -10q-14 0 -18 15
q-1 2 -4 26q110 71 129 71q50 0 72 -119q15 -81 15 -200q0 -33 -1 -53q-6 -122 -6 -142l3 6q13 26 28 152q16 139 39 205q35 103 103 103q90 0 90 -287q0 -49 -2 -111l-3 -65q0 -40 15 -99q19 -74 45 -74q68 51 114 185l11 5zM428 837q-6 -17 -29 -39.5t-40 -23.5
q-30 -2 -67 14q-40 17 -56 18q-51 2 -73 -27l-6 10q12 19 38 50q17 14 42 14q13 0 57 -21l-1 1q23 -16 62 -16q38 0 69 30z" />
    <glyph glyph-name="Odieresis" unicode="&#xd6;" horiz-adv-x="499" 
d="M535 233q-32 -27 -99 -75q-26 -73 -79 -121q-59 -53 -132 -53q-95 0 -157 70q-60 67 -60 163q0 17 9.5 50t9.5 49q0 18 -9.5 55t-9.5 56q0 107 53 191q62 98 163 98q113 0 180 -139q55 -114 55 -212q0 -14 -1 -28l-9 -113l6 -10q70 31 80 30v-11zM430 332q0 102 -50 193
q-59 108 -154 108q-83 0 -140 -77q-52 -71 -52 -156q0 -24 8 -50q7 5 29 37q18 26 35 26l4 -9q0 -8 -27.5 -43t-27.5 -40q0 -6 29 -34.5t39 -34.5q89 -53 213 -53q33 0 73 4q21 29 21 129zM379 141h-8q-12 0 -36.5 -5t-37.5 -5q-148 0 -257 141l-4 -19q0 -82 56 -134.5
t138 -52.5q37 0 86 21q55 24 63 54zM260 785q0 29 28 29q27 0 27 -29t-27 -29q-28 0 -28 29zM150 785q0 29 28 29q27 0 27 -29t-27 -29q-28 0 -28 29z" />
    <glyph glyph-name="Udieresis" unicode="&#xdc;" horiz-adv-x="527" 
d="M553 238q-14 -46 -45 -137q-37 -104 -75 -104q-58 0 -77 147q-11 89 -6 185l7 125h-2q-6 -11 -8 -44q-10 -138 -35 -245q-43 -183 -116 -183q-52 0 -80 76q-24 64 -18 119l46 427q2 21 -7 45q-12 27 -32 27q-18 0 -49.5 -17t-48.5 -17l-5 34q16 11 48 33.5t47 22.5
q44 0 63 -42q16 -34 11 -80q-9 -85 -19 -171q-10 -100 -10 -171v-93q0 -26 11 -62q13 -43 31 -43q58 0 97 133q26 89 51 265q24 171 33 195l34 18l8 -3l1 -16q0 10 -10 -65t-17 -183q-4 -60 12 -178q20 -147 53 -147q18 0 56 73q8 15 46 93zM280 795q0 29 28 29q27 0 27 -29
t-27 -29q-28 0 -28 29zM170 795q0 29 28 29q27 0 27 -29t-27 -29q-28 0 -28 29z" />
    <glyph glyph-name="aacute" unicode="&#xe1;" horiz-adv-x="282" 
d="M302 197q0 -40 -23 -114q-28 -88 -57 -88q-31 0 -44 73q-4 33 -13 98q-11 -14 -22 -60q-14 -55 -24 -74q-19 -35 -51 -35q-38 0 -55 78q-11 52 -11 112q0 52 8 60q18 17 53 31t61 14q28 0 65 -12q47 -15 47 -37q0 -6 -9 -25l-36 15q-3 -7 -3 -17q0 -152 36 -152
q18 0 46 66q19 46 29 86q0 -3 1.5 -9.5t1.5 -9.5zM163 245q-45 11 -53 11q-50 0 -70 -29q-16 -24 -16 -76q0 -95 46 -95q26 0 47 39q6 12 24 62q22 60 22 88zM56 324q-4 2 -3 7l124 78q9 1 16 -7t7 -18q0 -13 -11 -18z" />
    <glyph glyph-name="agrave" unicode="&#xe0;" horiz-adv-x="282" 
d="M302 197q0 -40 -23 -114q-28 -88 -57 -88q-31 0 -44 73q-4 33 -13 98q-11 -14 -22 -60q-14 -55 -24 -74q-19 -35 -51 -35q-38 0 -55 78q-11 52 -11 112q0 52 8 60q18 17 53 31t61 14q28 0 65 -12q47 -15 47 -37q0 -6 -9 -25l-36 15q-3 -7 -3 -17q0 -152 36 -152
q18 0 46 66q19 46 29 86q0 -3 1.5 -9.5t1.5 -9.5zM163 245q-45 11 -53 11q-50 0 -70 -29q-16 -24 -16 -76q0 -95 46 -95q26 0 47 39q6 12 24 62q22 60 22 88zM194 324q4 2 3 7l-124 78q-9 1 -16 -7t-7 -18q0 -13 11 -18z" />
    <glyph glyph-name="acircumflex" unicode="&#xe2;" horiz-adv-x="282" 
d="M26 313l84 70l90 -70q2 -3 2 -4q-1 -1 -5 0l-52 20q-32 12 -35 13q-2 0 -37 -15q-39 -17 -45 -19q-2 1 -3 2q0 1 1 3zM302 197q0 -40 -23 -114q-28 -88 -57 -88q-31 0 -44 73q-4 33 -13 98q-11 -14 -22 -60q-14 -55 -24 -74q-19 -35 -51 -35q-38 0 -55 78q-11 52 -11 112
q0 52 8 60q18 17 53 31t61 14q28 0 65 -12q47 -15 47 -37q0 -6 -9 -25l-36 15q-3 -7 -3 -17q0 -152 36 -152q18 0 46 66q19 46 29 86q0 -3 1.5 -9.5t1.5 -9.5zM163 245q-45 11 -53 11q-50 0 -70 -29q-16 -24 -16 -76q0 -95 46 -95q26 0 47 39q6 12 24 62q22 60 22 88z" />
    <glyph glyph-name="adieresis" unicode="&#xe4;" horiz-adv-x="282" 
d="M302 197q0 -40 -23 -114q-28 -88 -57 -88q-31 0 -44 73q-4 33 -13 98q-11 -14 -22 -60q-14 -55 -24 -74q-19 -35 -51 -35q-38 0 -55 78q-11 52 -11 112q0 52 8 60q18 17 53 31t61 14q28 0 65 -12q47 -15 47 -37q0 -6 -9 -25l-36 15q-3 -7 -3 -17q0 -152 36 -152
q18 0 46 66q19 46 29 86q0 -3 1.5 -9.5t1.5 -9.5zM163 245q-45 11 -53 11q-50 0 -70 -29q-16 -24 -16 -76q0 -95 46 -95q26 0 47 39q6 12 24 62q22 60 22 88zM130 365q0 29 28 29q27 0 27 -29t-27 -29q-28 0 -28 29zM40 365q0 29 28 29q27 0 27 -29t-27 -29q-28 0 -28 29z
" />
    <glyph glyph-name="atilde" unicode="&#xe3;" horiz-adv-x="282" 
d="M302 197q0 -40 -23 -114q-28 -88 -57 -88q-31 0 -44 73q-4 33 -13 98q-11 -14 -22 -60q-14 -55 -24 -74q-19 -35 -51 -35q-38 0 -55 78q-11 52 -11 112q0 52 8 60q18 17 53 31t61 14q28 0 65 -12q47 -15 47 -37q0 -6 -9 -25l-36 15q-3 -7 -3 -17q0 -152 36 -152
q18 0 46 66q19 46 29 86q0 -3 1.5 -9.5t1.5 -9.5zM163 245q-45 11 -53 11q-50 0 -70 -29q-16 -24 -16 -76q0 -95 46 -95q26 0 47 39q6 12 24 62q22 60 22 88zM188 371q-5 -10 -21 -21.5t-26 -11.5q-20 -1 -46.5 7t-37.5 8q-35 1 -50 -13l-4 5l25 27q12 13 29 13
q12 0 39.5 -8.5t41.5 -8.5q35 0 47 8z" />
    <glyph glyph-name="aring" unicode="&#xe5;" horiz-adv-x="282" 
d="M302 197q0 -40 -23 -114q-28 -88 -57 -88q-31 0 -44 73q-4 33 -13 98q-11 -14 -22 -60q-14 -55 -24 -74q-19 -35 -51 -35q-38 0 -55 78q-11 52 -11 112q0 52 8 60q18 17 53 31t61 14q28 0 65 -12q47 -15 47 -37q0 -6 -9 -25l-36 15q-3 -7 -3 -17q0 -152 36 -152
q18 0 46 66q19 46 29 86q0 -3 1.5 -9.5t1.5 -9.5zM163 245q-45 11 -53 11q-50 0 -70 -29q-16 -24 -16 -76q0 -95 46 -95q26 0 47 39q6 12 24 62q22 60 22 88zM117 426q22 0 37 -15t15 -37t-15 -37t-37 -15t-37 15t-15 37t15 37t37 15zM117 406q-32 0 -32 -32t32 -32t32 32
t-32 32z" />
    <glyph glyph-name="ccedilla" unicode="&#xe7;" horiz-adv-x="241" 
d="M259 240q-2 0 -6 3q-13 -11 -38 -65q-27 -57 -45 -82q-30 -41 -62 -41q-85 0 -85 119q0 40 10 58q13 24 50 24q25 0 51.5 -21t31.5 -45h8q14 27 14 42q0 27 -27 44q-23 15 -52 15q-53 0 -78 -17q-29 -21 -29 -72q0 -200 92 -211l-1 -37q6 -1 20 -11q1 -2 4.5 -7.5
t3.5 -10.5q0 -28 -27 -28q-16 0 -25 20l-10 -10q15 -26 39 -26q43 0 43 44q0 27 -34 38l12 24h-3q40 12 93 118q47 95 50 135z" />
    <glyph glyph-name="eacute" unicode="&#xe9;" horiz-adv-x="236" 
d="M253 243q0 -28 -69 -136q-74 -115 -111 -115q-28 0 -48.5 26.5t-20.5 55.5q0 51 50 87v8q-29 16 -38 24q-14 15 -14 40q0 59 75 59q14 0 45.5 -23.5t31.5 -36.5q0 -5 -6.5 -11.5t-11.5 -7.5q-52 45 -80 45q-37 0 -37 -24q0 -40 83 -43q6 -5 9 -26q-23 -12 -47 -24
q-26 -16 -26 -45q0 -15 12.5 -33t26.5 -18q34 0 94 84q42 59 70 117h1zM16 324q-4 2 -3 7l124 78q9 1 16 -7t7 -18q0 -13 -11 -18z" />
    <glyph glyph-name="egrave" unicode="&#xe8;" horiz-adv-x="236" 
d="M253 243q0 -28 -69 -136q-74 -115 -111 -115q-28 0 -48.5 26.5t-20.5 55.5q0 51 50 87v8q-29 16 -38 24q-14 15 -14 40q0 59 75 59q14 0 45.5 -23.5t31.5 -36.5q0 -5 -6.5 -11.5t-11.5 -7.5q-52 45 -80 45q-37 0 -37 -24q0 -40 83 -43q6 -5 9 -26q-23 -12 -47 -24
q-26 -16 -26 -45q0 -15 12.5 -33t26.5 -18q34 0 94 84q42 59 70 117h1zM154 324q4 2 3 7l-124 78q-9 1 -16 -7t-7 -18q0 -13 11 -18z" />
    <glyph glyph-name="ecircumflex" unicode="&#xea;" horiz-adv-x="236" 
d="M253 243q0 -28 -69 -136q-74 -115 -111 -115q-28 0 -48.5 26.5t-20.5 55.5q0 51 50 87v8q-29 16 -38 24q-14 15 -14 40q0 59 75 59q14 0 45.5 -23.5t31.5 -36.5q0 -5 -6.5 -11.5t-11.5 -7.5q-52 45 -80 45q-37 0 -37 -24q0 -40 83 -43q6 -5 9 -26q-23 -12 -47 -24
q-26 -16 -26 -45q0 -15 12.5 -33t26.5 -18q34 0 94 84q42 59 70 117h1zM-4 313l84 70l90 -70q2 -3 2 -4q-1 -1 -5 0l-52 20q-32 12 -35 13q-2 0 -37 -15q-39 -17 -45 -19q-2 1 -3 2q0 1 1 3z" />
    <glyph glyph-name="edieresis" unicode="&#xeb;" horiz-adv-x="236" 
d="M253 243q0 -28 -69 -136q-74 -115 -111 -115q-28 0 -48.5 26.5t-20.5 55.5q0 51 50 87v8q-29 16 -38 24q-14 15 -14 40q0 59 75 59q14 0 45.5 -23.5t31.5 -36.5q0 -5 -6.5 -11.5t-11.5 -7.5q-52 45 -80 45q-37 0 -37 -24q0 -40 83 -43q6 -5 9 -26q-23 -12 -47 -24
q-26 -16 -26 -45q0 -15 12.5 -33t26.5 -18q34 0 94 84q42 59 70 117h1zM110 365q0 29 28 29q27 0 27 -29t-27 -29q-28 0 -28 29zM20 365q0 29 28 29q27 0 27 -29t-27 -29q-28 0 -28 29z" />
    <glyph glyph-name="iacute" unicode="&#xed;" horiz-adv-x="210" 
d="M225 249q0 -16 -39 -107q-18 -43 -37 -86q-31 -63 -58 -63q-76 0 -76 244q0 26 6 67h5q14 0 14 -2q3 -42 11 -126q11 -98 44 -98q25 0 66 79q17 34 53 103zM-4 334q-4 2 -3 7l84 78q9 1 16 -7t7 -18q0 -13 -11 -18z" />
    <glyph glyph-name="igrave" unicode="&#xec;" horiz-adv-x="210" 
d="M225 249q0 -16 -39 -107q-18 -43 -37 -86q-31 -63 -58 -63q-76 0 -76 244q0 26 6 67h5q14 0 14 -2q3 -42 11 -126q11 -98 44 -98q25 0 66 79q17 34 53 103zM94 324q4 2 3 7l-94 98q-9 1 -16 -7t-7 -18q0 -13 11 -18z" />
    <glyph glyph-name="icircumflex" unicode="&#xee;" horiz-adv-x="210" 
d="M225 249q0 -16 -39 -107q-18 -43 -37 -86q-31 -63 -58 -63q-76 0 -76 244q0 26 6 67h5q14 0 14 -2q3 -42 11 -126q11 -98 44 -98q25 0 66 79q17 34 53 103zM-54 313l84 70l90 -70q2 -3 2 -4q-1 -1 -5 0l-52 20q-32 12 -35 13q-2 0 -37 -15q-39 -17 -45 -19q-2 1 -3 2
q0 1 1 3z" />
    <glyph glyph-name="idieresis" unicode="&#xef;" horiz-adv-x="210" 
d="M225 249q0 -16 -39 -107q-18 -43 -37 -86q-31 -63 -58 -63q-76 0 -76 244q0 26 6 67h5q14 0 14 -2q3 -42 11 -126q11 -98 44 -98q25 0 66 79q17 34 53 103zM-30 383q0 31 29 31q30 0 30 -31t-30 -31q-29 0 -29 31zM52 382q0 32 29 32t29 -32t-29 -32t-29 32z" />
    <glyph glyph-name="ntilde" unicode="&#xf1;" horiz-adv-x="332" 
d="M188 371q-5 -10 -21 -21.5t-26 -11.5q-20 -1 -46.5 7t-37.5 8q-35 1 -50 -13l-4 5l25 27q12 13 29 13q12 0 39.5 -8.5t41.5 -8.5q35 0 47 8zM353 226l-58 -132q-44 -99 -76 -99q-8 0 -16 5q-11 9 -14 10q0 218 -38 218q-42 0 -56 -60q-7 -38 -22 -113q-13 -60 -48 -60
q-13 0 -13 29q0 8 1.5 23t1.5 22q0 91 -7 131q-1 7 -7 29q-5 19 -5 29q0 12 8 25l11 -5q30 -54 38 -141l4 2l36 90q25 57 68 57q35 0 46 -53q3 -17 7 -99q2 -53 17 -53q16 0 61 79l54 99z" />
    <glyph glyph-name="oacute" unicode="&#xf3;" horiz-adv-x="258" 
d="M276 220q-7 0 -25 -4.5t-27 -4.5q-4 0 -33 7l-4 -8l15 -66q0 -50 -31 -98q-35 -55 -82 -55q-42 0 -67 70q-19 54 -19 105q0 62 10 89q17 45 69 45q17 0 36 -7q23 -9 23 -23q0 -9 -15 -20q-7 0 -24.5 7t-28.5 7q-35 0 -45 -32q-4 -13 -4 -61q0 -40 14 -75q18 -46 52 -46
t60.5 33t26.5 68q0 36 -36 95q0 35 22 35q11 0 36 -20q30 -23 38 -26q16 -1 39 -3v-12zM36 324q-4 2 -3 7l124 78q9 1 16 -7t7 -18q0 -13 -11 -18z" />
    <glyph glyph-name="ograve" unicode="&#xf2;" horiz-adv-x="258" 
d="M276 220q-7 0 -25 -4.5t-27 -4.5q-4 0 -33 7l-4 -8l15 -66q0 -50 -31 -98q-35 -55 -82 -55q-42 0 -67 70q-19 54 -19 105q0 62 10 89q17 45 69 45q17 0 36 -7q23 -9 23 -23q0 -9 -15 -20q-7 0 -24.5 7t-28.5 7q-35 0 -45 -32q-4 -13 -4 -61q0 -40 14 -75q18 -46 52 -46
t60.5 33t26.5 68q0 36 -36 95q0 35 22 35q11 0 36 -20q30 -23 38 -26q16 -1 39 -3v-12zM174 324q4 2 3 7l-124 78q-9 1 -16 -7t-7 -18q0 -13 11 -18z" />
    <glyph glyph-name="ocircumflex" unicode="&#xf4;" horiz-adv-x="258" 
d="M276 220q-7 0 -25 -4.5t-27 -4.5q-4 0 -33 7l-4 -8l15 -66q0 -50 -31 -98q-35 -55 -82 -55q-42 0 -67 70q-19 54 -19 105q0 62 10 89q17 45 69 45q17 0 36 -7q23 -9 23 -23q0 -9 -15 -20q-7 0 -24.5 7t-28.5 7q-35 0 -45 -32q-4 -13 -4 -61q0 -40 14 -75q18 -46 52 -46
t60.5 33t26.5 68q0 36 -36 95q0 35 22 35q11 0 36 -20q30 -23 38 -26q16 -1 39 -3v-12zM6 313l84 70l90 -70q2 -3 2 -4q-1 -1 -5 0l-52 20q-32 12 -35 13q-2 0 -37 -15q-39 -17 -45 -19q-2 1 -3 2q0 1 1 3z" />
    <glyph glyph-name="odieresis" unicode="&#xf6;" horiz-adv-x="258" 
d="M276 220q-7 0 -25 -4.5t-27 -4.5q-4 0 -33 7l-4 -8l15 -66q0 -50 -31 -98q-35 -55 -82 -55q-42 0 -67 70q-19 54 -19 105q0 62 10 89q17 45 69 45q17 0 36 -7q23 -9 23 -23q0 -9 -15 -20q-7 0 -24.5 7t-28.5 7q-35 0 -45 -32q-4 -13 -4 -61q0 -40 14 -75q18 -46 52 -46
t60.5 33t26.5 68q0 36 -36 95q0 35 22 35q11 0 36 -20q30 -23 38 -26q16 -1 39 -3v-12zM120 365q0 29 28 29q27 0 27 -29t-27 -29q-28 0 -28 29zM30 365q0 29 28 29q27 0 27 -29t-27 -29q-28 0 -28 29z" />
    <glyph glyph-name="otilde" unicode="&#xf5;" horiz-adv-x="258" 
d="M276 220q-7 0 -25 -4.5t-27 -4.5q-4 0 -33 7l-4 -8l15 -66q0 -50 -31 -98q-35 -55 -82 -55q-42 0 -67 70q-19 54 -19 105q0 62 10 89q17 45 69 45q17 0 36 -7q23 -9 23 -23q0 -9 -15 -20q-7 0 -24.5 7t-28.5 7q-35 0 -45 -32q-4 -13 -4 -61q0 -40 14 -75q18 -46 52 -46
t60.5 33t26.5 68q0 36 -36 95q0 35 22 35q11 0 36 -20q30 -23 38 -26q16 -1 39 -3v-12zM188 371q-5 -10 -21 -21.5t-26 -11.5q-20 -1 -46.5 7t-37.5 8q-35 1 -50 -13l-4 5l25 27q12 13 29 13q12 0 39.5 -8.5t41.5 -8.5q35 0 47 8z" />
    <glyph glyph-name="uacute" unicode="&#xfa;" horiz-adv-x="349" 
d="M374 220q-21 -46 -64 -138q-50 -101 -85 -101q-36 0 -42 85q-1 21 -3 107l-6 -2q-13 -34 -40 -101q-30 -67 -71 -67q-31 0 -47 57q-11 40 -11 85v132q1 2 4 2q1 0 10.5 -2.5t9.5 -1.5t-1 2q1 -16 1 -98q0 -35 8 -63q12 -40 36 -40q35 0 71 84q32 75 32 117q0 13 39 19
l14 -10q-16 -57 -16 -154q0 -18 11 -37t28 -19q24 0 65 74q35 63 44 98l7 5zM46 324q-4 2 -3 7l124 78q9 1 16 -7t7 -18q0 -13 -11 -18z" />
    <glyph glyph-name="ugrave" unicode="&#xf9;" horiz-adv-x="349" 
d="M374 220q-21 -46 -64 -138q-50 -101 -85 -101q-36 0 -42 85q-1 21 -3 107l-6 -2q-13 -34 -40 -101q-30 -67 -71 -67q-31 0 -47 57q-11 40 -11 85v132q1 2 4 2q1 0 10.5 -2.5t9.5 -1.5t-1 2q1 -16 1 -98q0 -35 8 -63q12 -40 36 -40q35 0 71 84q32 75 32 117q0 13 39 19
l14 -10q-16 -57 -16 -154q0 -18 11 -37t28 -19q24 0 65 74q35 63 44 98l7 5zM184 324q4 2 3 7l-124 78q-9 1 -16 -7t-7 -18q0 -13 11 -18z" />
    <glyph glyph-name="ucircumflex" unicode="&#xfb;" horiz-adv-x="350" 
d="M374 220q-21 -46 -64 -138q-50 -101 -85 -101q-36 0 -42 85q-1 21 -3 107l-6 -2q-13 -34 -40 -101q-30 -67 -71 -67q-31 0 -47 57q-11 40 -11 85v132q1 2 4 2q1 0 10.5 -2.5t9.5 -1.5t-1 2q1 -16 1 -98q0 -35 8 -63q12 -40 36 -40q35 0 71 84q32 75 32 117q0 13 39 19
l14 -10q-16 -57 -16 -154q0 -18 11 -37t28 -19q24 0 65 74q35 63 44 98l7 5zM26 318l84 70l90 -70q2 -3 2 -4q-1 -1 -5 0l-52 20q-32 12 -35 13q-2 0 -37 -15q-39 -17 -45 -19q-2 1 -3 2q0 1 1 3z" />
    <glyph glyph-name="udieresis" unicode="&#xfc;" horiz-adv-x="350" 
d="M374 220q-21 -46 -64 -138q-50 -101 -85 -101q-36 0 -42 85q-1 21 -3 107l-6 -2q-13 -34 -40 -101q-30 -67 -71 -67q-31 0 -47 57q-11 40 -11 85v132q1 2 4 2q1 0 10.5 -2.5t9.5 -1.5t-1 2q1 -16 1 -98q0 -35 8 -63q12 -40 36 -40q35 0 71 84q32 75 32 117q0 13 39 19
l14 -10q-16 -57 -16 -154q0 -18 11 -37t28 -19q24 0 65 74q35 63 44 98l7 5zM130 365q0 29 28 29q27 0 27 -29t-27 -29q-28 0 -28 29zM40 365q0 29 28 29q27 0 27 -29t-27 -29q-28 0 -28 29z" />
    <glyph glyph-name="dagger" unicode="&#x2020;" horiz-adv-x="108" 
 />
    <glyph glyph-name="degree" unicode="&#xb0;" horiz-adv-x="147" 
d="M86 609q30 0 51 -20t21 -50t-21 -50.5t-51 -20.5t-51 20.5t-21 50.5t21 50t51 20zM86 589q-21 0 -36.5 -14.5t-15.5 -35.5q0 -22 15 -36.5t37 -14.5t37 14.5t15 36.5q0 21 -15.5 35.5t-36.5 14.5z" />
    <glyph glyph-name="cent" unicode="&#xa2;" horiz-adv-x="241" 
d="M89 415q-3 1 -6 1q-37 0 -50 -24q-10 -18 -10 -58q0 -102 65 -117zM189 227q-54 -68 -81 -75v-51q0 -10 -10 -10t-10 10v51q-57 8 -76 84q-10 41 -10 126q0 83 87 88v37q0 10 10 10t10 -10v-36q29 0 52 -15q27 -17 27 -44q0 -15 -14 -42h-8q-9 40 -57 60l-1 -195
q22 0 70 32q5 5 10 5q8 0 8 -11q0 -8 -7 -14z" />
    <glyph glyph-name="sterling" unicode="&#xa3;" horiz-adv-x="397" 
d="M259 247h-65l40 -62q16 -31 16 -70q0 -6 -13 -25q-17 -25 -18 -26q21 -15 33 -15q25 0 62.5 43.5t37.5 69.5l3 4l9 -17q0 -33 -43 -94t-74 -61q-17 0 -57 30q-32 -27 -79 -27q-33 0 -63 17q-36 19 -36 49t29 46q23 13 56 13q51 0 93 -37h4q6 18 6 37q0 26 -31 66
q-25 30 -49 59h-71l-13 22l68 -1q-56 79 -56 135q0 39 32 72.5t73 37.5q57 5 93 -17q40 -24 40 -72q0 -14 -11 -14q-6 0 -16 5q0 34 -30 53.5t-69 17.5q-37 -3 -58.5 -28t-21.5 -61q0 -9 43 -61q53 -63 56 -68l77 1q3 -9 3 -18v-4zM165 45q-6 12 -42.5 29.5t-52.5 17.5
q-13 0 -27 -7q-17 -8 -17 -19q0 -15 31 -24q24 -7 45 -7q22 0 63 10z" />
    <glyph glyph-name="bullet" unicode="&#x2022;" horiz-adv-x="273" 
d="M149 332q0 30 21 51t51 21t51 -21t21 -51t-21 -51t-51 -21t-51 21t-21 51z" />
    <glyph glyph-name="paragraph" unicode="&#xb6;" horiz-adv-x="301" 
 />
    <glyph glyph-name="germandbls" unicode="&#xdf;" horiz-adv-x="254" 
d="M80 649l-19 -4q-27 -49 -30 -166q0 -1 -2 -159q39 69 56 117q27 76 27 150q0 29 -3 37q-6 15 -29 25zM276 245q-6 -28 -27 -72q-31 -33 -65 -81q18 -63 18 -88q0 -65 -18 -124q-25 -82 -74 -82q-55 0 -55 96q0 92 76 190q0 14 -26 32q-28 22 -35 41q39 30 43 34
q27 25 27 44q0 29 -40 29q-42 0 -69 -15l1 -206q4 -52 -14 -110q-15 -48 -28 -60q-5 -1 -9 -1q-8 0 -24.5 8.5t-13.5 14.5q22 13 47 77q21 56 21 71t-4 99q-3 70 -3 88v45l-1 72q0 345 72 357q21 4 43.5 -28.5t22.5 -86.5q0 -66 -26 -137q-17 -47 -48 -103.5t-34 -70.5
q28 18 78 18q24 0 43.5 -13t19.5 -36q0 -53 -73 -88l39 -24q21 -16 24 -16q6 0 35 28t36 38q7 23 23 55v12q4 3 7 3q6 0 11 -10zM177 -40q0 23 -7 54q-9 39 -21 47q-28 -27 -50 -69q-23 -46 -23 -81q0 -23 10 -41q12 -22 34 -22q26 0 43 44q14 36 14 68z" />
    <glyph glyph-name="registered" unicode="&#xae;" horiz-adv-x="431" 
d="M195 685q77 0 132 -53t55 -130q0 -79 -55 -132.5t-134 -50.5q-77 3 -129.5 55t-52.5 129q0 76 54 129t130 53zM34 504q0 -68 47.5 -116.5t114.5 -48.5t115.5 47t48.5 114q0 68 -49 114.5t-117 46.5t-114 -45t-46 -112zM165 497v-60q0 -21 6 -25t29 -4v-10h-106v10
q23 0 29 4t6 25v131q0 20 -6.5 24t-28.5 4v12h78q64 0 81 -5q32 -9 33 -47q1 -36 -27 -47q-22 -4 -45 -8q32 -9 44 -33q4 -8 11 -41q4 -19 14 -19q18 0 18 38h11q0 -54 -44 -54q-30 0 -37 27q-5 44 -7 50q-9 28 -34 28h-25zM243 557q0 35 -53 35q-17 0 -21 -3.5t-4 -19.5
v-58h21q57 0 57 46z" />
    <glyph glyph-name="copyright" unicode="&#xa9;" horiz-adv-x="771" 
d="M541 165q-72 -111 -180 -111q-83 0 -139 68q-53 64 -53 149q0 84 55 148q58 68 141 68q42 0 106 -32q12 -6 19 -6q24 0 25 32h18v-162h-16q-12 61 -45 101q-40 48 -97 48q-67 0 -100 -71q-25 -54 -25 -130t32 -127q38 -60 110 -60q70 0 136 93zM371 -79q-144 0 -243 102
t-99 246q0 142 102.5 242t245.5 100q144 0 242.5 -102t98.5 -246q0 -142 -102 -242t-245 -100zM377 583q-132 0 -225.5 -91.5t-93.5 -222.5q0 -132 91 -226t222 -94q132 0 226 91.5t94 222.5t-91.5 225.5t-222.5 94.5z" />
    <glyph glyph-name="trademark" unicode="&#x2122;" horiz-adv-x="494" 
d="M429 642v-196h-27v167h-2l-66 -167h-17l-65 167v-167h-28v196h46l56 -141l57 141h46zM187 642v-29h-64v-167h-28v167h-65v29h157z" />
    <glyph glyph-name="acute" unicode="&#xb4;" horiz-adv-x="206" 
d="M36 324q-4 2 -3 7l124 98q9 1 16 -7t7 -18q0 -13 -11 -18z" />
    <glyph glyph-name="dieresis" unicode="&#xa8;" horiz-adv-x="210" 
d="M130 365q0 29 28 29q27 0 27 -29t-27 -29q-28 0 -28 29zM40 365q0 29 28 29q27 0 27 -29t-27 -29q-28 0 -28 29z" />
    <glyph glyph-name="AE" unicode="&#xc6;" horiz-adv-x="879" 
d="M811 168q0 19 -38 41t-59 22q-70 0 -113 -33q-35 -27 -35 -47q0 -19 32 -34q28 -13 50 -13q29 0 91 20q72 23 72 44zM393 357q0 9 -1 28t-1 28q0 26 -16 86t-29 80t-37 20q-33 0 -58 -27q-62 -66 -79 -122q-10 -33 -26 -165q87 50 207 72q13 -1 40 0zM110 234
q-38 -39 -63 -114q-4 -12 -4 -32q0 -44 34 -51q39 -7 39 65q0 10 -1 30.5t-1 30.5q0 -10 -4 71zM445 455q0 -7 1.5 -23.5t1.5 -24.5l-3 -56q21 26 35 34q22 8 43 16q-56 28 -78 54zM498 336q13 -5 19 -15q15 -26 15 -24q0 -3 -12 -21q-14 14 -36 39l-3 1q-34 -45 -45 -98
v-59q16 -62 99 -95q63 -25 138 -25q44 0 87 17q55 22 55 60l-1 11q-18 -2 -67 -26.5t-79 -24.5q-47 0 -98 23q-62 28 -62 69q0 52 59 76q43 18 104 18q43 0 87 -24q18 -10 77 -51q21 20 61 61l3 -14q0 -11 -25 -40t-26 -36q-19 -108 -78 -144q-47 -29 -167 -29
q-101 0 -164 63v-23q-33 -30 -70 -30q-16 0 -25 9q38 213 47 323q-16 1 -41 0q-127 -23 -204 -75v-6q0 -26 10.5 -78t10.5 -78q0 -116 -102 -116q-26 0 -48 17q-26 20 -26 49q0 31 12 74q26 95 107 150q1 136 23 205q29 93 121 190q54 57 107 57q41 0 60 -102q27 50 89 77
q54 22 118 22q41 0 106 -37q71 -40 77 -76l-10 -10q-75 58 -145 58q-74 0 -133 -25q-83 -35 -83 -106q0 -31 53 -54q45 -20 82 -20q14 0 41 4.5t41 4.5q54 0 54 -40q0 -44 -85 -44q-16 0 -51 3q-38 3 -77 -35z" />
    <glyph glyph-name="Oslash" unicode="&#xd8;" horiz-adv-x="522" 
d="M141 175l-39 -65q54 -44 128 -44q37 0 86 21q55 24 63 54h-8q-12 0 -36.5 -5t-37.5 -5q-89 0 -156 44zM365 550l-193 -323q64 -28 164 -28q33 0 73 4q21 29 21 129q0 121 -65 218zM140 242l201 337q-50 54 -115 54q-82 0 -139 -77q-53 -71 -53 -156q0 -24 8 -50
q7 5 29 37q18 26 35 26l4 -9q0 -8 -27.5 -43t-27.5 -40q0 -6 29 -34.5t38.5 -34t17.5 -10.5zM77 136l35 60q-35 29 -72 76l-4 -19q0 -67 41 -117zM1 10l45 74q-38 60 -38 133q0 17 9.5 50t9.5 49q0 18 -9.5 55t-9.5 56q0 107 53 191q62 98 163 98q87 0 148 -85l53 88l30 -18
l-62 -103q66 -119 66 -231q0 -15 -1 -30l-9 -113l6 -10q70 31 80 30v-11q-32 -27 -99 -75q-26 -73 -79 -121q-59 -53 -132 -53q-94 0 -157 70l-37 -62z" />
    <glyph glyph-name="plusminus" unicode="&#xb1;" horiz-adv-x="25" 
 />
    <glyph glyph-name="yen" unicode="&#xa5;" horiz-adv-x="374" 
d="M333 441q-43 -32 -81 -87q-39 -58 -48 -107v-4l63 -1q16 -5 16 -16t-16 -17l-62 1v-24h62q15 -6 15 -15q0 -12 -17 -18h-61q-5 -151 -47 -151q-14 0 -30 11q-19 13 -15 26q41 21 52 114q-52 0 -57 -1q-15 7 -15 16q0 8 14 17q7 1 61 1q0 12 1 24q-56 0 -61 -1
q-15 7 -15 16q0 8 14 17q7 1 62 1v29q0 23 -45 135q-21 36 -62 36q-11 0 -25 -2q-22 3 -22 17q0 7 7 16t28.5 20t31.5 11q42 0 75 -77q5 -11 37 -113q6 8 29 57q27 57 48 80q29 32 80 48h10q5 -16 5 -18q0 -17 -32 -41z" />
    <glyph glyph-name="mu" unicode="&#xb5;" horiz-adv-x="499" 
d="M376 445l-127 -94q42 -59 56 -88q25 -51 25 -99q0 -20 -16 -76q37 -22 49 -22q39 0 94 64.5t55 104.5l5 5q14 -8 14 -24q0 -51 -62 -139q-66 -93 -113 -93q-26 0 -84 44q-49 -40 -119 -40q-49 0 -94 25q-54 29 -54 74t44 68q35 19 84 19q76 0 138 -54h6q9 25 9 46
q0 57 -22 97q-13 24 -50 62l-100 -74q-5 10 -14 30q38 31 90 70q-33 38 -47 69q-23 51 -23 122q0 65 56 118t121 53q156 0 156 -145v-24l-30 -25l-3 3q0 75 -24 110q-30 43 -101 43q-22 0 -55 -16t-43 -34q-27 -48 -27 -94q0 -67 59 -152l130 96zM234 60q-11 20 -64.5 45
t-78.5 25q-20 0 -40 -10q-24 -12 -24 -29q0 -22 47 -36q35 -10 66 -10q34 0 94 15z" />
    <glyph glyph-name="mu" unicode="&#x3bc;" horiz-adv-x="499" 
d="M376 445l-127 -94q42 -59 56 -88q25 -51 25 -99q0 -20 -16 -76q37 -22 49 -22q39 0 94 64.5t55 104.5l5 5q14 -8 14 -24q0 -51 -62 -139q-66 -93 -113 -93q-26 0 -84 44q-49 -40 -119 -40q-49 0 -94 25q-54 29 -54 74t44 68q35 19 84 19q76 0 138 -54h6q9 25 9 46
q0 57 -22 97q-13 24 -50 62l-100 -74q-5 10 -14 30q38 31 90 70q-33 38 -47 69q-23 51 -23 122q0 65 56 118t121 53q156 0 156 -145v-24l-30 -25l-3 3q0 75 -24 110q-30 43 -101 43q-22 0 -55 -16t-43 -34q-27 -48 -27 -94q0 -67 59 -152l130 96zM234 60q-11 20 -64.5 45
t-78.5 25q-20 0 -40 -10q-24 -12 -24 -29q0 -22 47 -36q35 -10 66 -10q34 0 94 15z" />
    <glyph glyph-name="ordfeminine" unicode="&#xaa;" horiz-adv-x="448" 
d="M477 239q0 -58 -56 -152q-62 -104 -117 -95q-50 9 -101 18q-62 10 -100 10q-48 0 -89 -33h-8l-5 7q26 152 115 278q20 28 161 187q90 101 110 184l-4 1q-54 -30 -95 -30q-21 0 -62 6t-62 6q-81 0 -81 -83l15 -47l-11 -12q-19 1 -34 58q-12 44 -12 74q0 97 99 97
q30 0 87 -20t87 -20q65 0 108 28l15 -18q-59 -167 -194 -298q-43 -41 -109 -150q-72 -118 -70 -164l5 -2q73 33 97 31l122 -9q71 -5 115 51q17 21 60 116q14 -7 14 -19zM330 793l-84 -70l-90 70q-3 3 -2 4t5 0l52 -20q32 -12 35 -13q5 2 33 14q36 16 49 20q1 -1 3 -2
q0 -1 -1 -3z" />
    <glyph glyph-name="ordmasculine" unicode="&#xba;" horiz-adv-x="230" 
d="M247 231q-3 -21 -20 -59q-6 -6 -40 -41q-29 -30 -32 -41q18 -63 18 -87q0 -70 -17 -125q-25 -82 -75 -82q-55 0 -55 96q0 92 76 190q0 11 -48 25.5t-51 41.5q12 7 63 37q45 27 45 47q0 29 -40 29q-14 0 -34.5 -7.5t-27.5 -17.5l-6 11q0 20 31 34q25 12 48 12
q24 0 43.5 -13t19.5 -36q0 -53 -73 -88q4 -4 13 -10q9 -2 29 -11q16 -16 22 -16q7 0 38 27.5t37 37.5q5 6 9.5 26t9.5 23l-1 16l5 6q5 -9 13 -25zM148 -42q0 20 -10 54q-11 39 -24 47q-26 -26 -46.5 -70.5t-20.5 -79.5q0 -24 10 -45q12 -27 33 -27q26 0 44 49q14 38 14 72z
M200 383l-84 -70l-90 70q-3 3 -2 4t5 0l52 -20q32 -12 35 -13q5 2 33 14q36 16 49 20q1 -1 3 -2q0 -1 -1 -3z" />
    <glyph glyph-name="ae" unicode="&#xe6;" horiz-adv-x="413" 
d="M189 191q1 -20 4 -66q17 24 45 45l-14 -1q-13 7 -35 22zM173 77q-11 57 -8 90q-10 -13 -24 -60q-7 -26 -27 -72q-21 -36 -53 -36q-59 0 -59 188q0 52 8 60q18 17 53 31t61 14q40 0 68 -13q32 13 55 13q14 0 45.5 -23.5t31.5 -36.5q0 -5 -6.5 -11.5t-11.5 -7.5
q-52 45 -80 45q-18 0 -24 -5.5t-12 -23.5q7 -36 82 -38q6 -5 9 -26q-23 -12 -47 -24q-26 -16 -26 -45q0 -15 12.5 -33t26.5 -18q34 0 94 84q42 59 70 117h1l11 -3q0 -28 -69 -136q-74 -115 -111 -115q-53 0 -69 80zM163 245q-45 11 -53 11q-50 0 -70 -29q-16 -24 -16 -76
q0 -95 46 -95q26 0 47 39q6 12 24 62q22 60 22 88z" />
    <glyph glyph-name="oslash" unicode="&#xf8;" horiz-adv-x="258" 
d="M163 208l-109 -140q15 -18 36 -18q34 0 60.5 33t26.5 68q0 29 -14 57zM-15 18q2 3 35 47q-17 52 -17 101q0 62 10 89q17 45 69 45q17 0 36 -7q23 -9 23 -23q0 -9 -15 -20q-7 0 -24.5 7t-28.5 7q-35 0 -45 -32q-4 -13 -4 -61q0 -45 16 -81l109 141q-8 13 -8 15q0 35 22 35
q7 0 19 -8l29 38l20 -15l-29 -38q24 -19 35 -23q16 -1 39 -3v-12q-7 0 -25 -4.5t-27 -4.5q-4 0 -33 7l-4 -8l15 -66q0 -50 -31 -98q-35 -55 -82 -55q-34 0 -58 47l-23 -31z" />
    <glyph glyph-name="questiondown" unicode="&#xbf;" horiz-adv-x="391" 
d="M85 -17q0 -45 31 -75t76 -30q130 0 129 185q27 -21 27 -107q0 -72 -40 -116.5t-111 -44.5q-150 0 -150 140q0 70 30 124q17 31 78 103q44 52 44 101q0 19 -9 54l27 17q-1 -9 -1 -18q0 -15 7 -37.5t7 -30.5q0 -27 -51 -86q-94 -110 -94 -179zM173 385q0 7 4 20t4 18
q2 9 13 18t20.5 17t31.5 26q4 -1 4 -12q0 -14 -7.5 -40.5t-14.5 -37.5q-11 -16 -49 -29l-6 3v17z" />
    <glyph glyph-name="exclamdown" unicode="&#xa1;" horiz-adv-x="204" 
d="M57 418q4 11 8 38q1 7 33 35q10 8 32 26q4 -1 4 -12q0 -12 -7 -39.5t-13 -36.5q-13 -20 -68 -40zM153 -173q-35 -28 -67 -28q-12 0 -17 6q-21 36 -21 102q0 29 5 59q-2 5 30 222q12 81 -1 165q4 3 7 3q18 -138 18 -173l-2 -211q0 -51 48 -145z" />
    <glyph glyph-name="logicalnot" unicode="&#xac;" horiz-adv-x="3" 
 />
    <glyph glyph-name="florin" unicode="&#x192;" 
 />
    <glyph glyph-name="guillemotleft" unicode="&#xab;" horiz-adv-x="316" 
d="M146 390q-18 -21 -135 -150l135 -161v17l-78 150q75 121 75 124q0 20 3 20zM266 390q-18 -21 -135 -150l135 -161v17l-78 150q75 121 75 124q0 20 3 20z" />
    <glyph glyph-name="guillemotright" unicode="&#xbb;" horiz-adv-x="316" 
d="M132 390q-3 0 134 -150l-134 -161v17l77 150q-75 121 -75 124q0 19 -2 20zM12 390q-3 0 134 -150l-134 -161v17l77 150q-75 121 -75 124q0 19 -2 20z" />
    <glyph glyph-name="ellipsis" unicode="&#x2026;" horiz-adv-x="579" 
d="M322 94q0 -6 -3 -20l-5 -18q-1 -9 -14 -18q-9 -8 -19 -15q-10 -10 -32 -28q-4 1 -4 12q0 58 14 78q9 13 57 29l6 -3v-17zM522 94q0 -6 -3 -20l-5 -18q-1 -9 -14 -18q-9 -8 -19 -15q-10 -10 -32 -28q-4 1 -4 12q0 58 14 78q9 13 57 29l6 -3v-17zM122 94q0 -6 -3 -20
l-5 -18q-1 -9 -14 -18q-9 -8 -19 -15q-10 -10 -32 -28q-4 1 -4 12q0 58 14 78q9 13 57 29l6 -3v-17z" />
    <glyph glyph-name="nonbreakingspace" unicode="&#xa0;" horiz-adv-x="165" 
 />
    <glyph glyph-name="Agrave" unicode="&#xc0;" horiz-adv-x="549" 
d="M576 226q0 -34 -56 -145q-60 -118 -93 -118q-44 0 -73 81l-36 118q-13 -19 -31.5 -69.5t-37.5 -71.5q-27 -31 -75 -31q-84 0 -133 111q-39 88 -39 186v86q47 343 237 343q107 0 155 -111q36 -82 36 -204q0 -93 -40 -222l-5 18q0 27 11 79t11 79q0 118 -29 193
q-43 110 -142 110q-102 0 -157 -113q-43 -89 -43 -203v0v-2l1 -12l2 -58q2 -61 34 -114q39 -64 93 -64q65 0 110 134q37 111 37 220q0 23 -3 37l8 10l5 -5q20 -216 23 -236q29 -182 91 -182q47 0 135 172zM324 734q4 2 3 7l-164 88q-9 1 -16 -7t-7 -18q0 -13 11 -18z" />
    <glyph glyph-name="Atilde" unicode="&#xc3;" horiz-adv-x="549" 
d="M576 226q0 -34 -56 -145q-60 -118 -93 -118q-44 0 -73 81l-36 118q-13 -19 -31.5 -69.5t-37.5 -71.5q-27 -31 -75 -31q-84 0 -133 111q-39 88 -39 186v86q47 343 237 343q107 0 155 -111q36 -82 36 -204q0 -93 -40 -222l-5 18q0 27 11 79t11 79q0 118 -29 193
q-43 110 -142 110q-102 0 -157 -113q-43 -89 -43 -203v0v-2l1 -12l2 -58q2 -61 34 -114q39 -64 93 -64q65 0 110 134q37 111 37 220q0 23 -3 37l8 10l5 -5q20 -216 23 -236q29 -182 91 -182q47 0 135 172z" />
    <glyph glyph-name="Otilde" unicode="&#xd5;" horiz-adv-x="499" 
d="M535 233q-32 -27 -99 -75q-26 -73 -79 -121q-59 -53 -132 -53q-95 0 -157 70q-60 67 -60 163q0 17 9.5 50t9.5 49q0 18 -9.5 55t-9.5 56q0 107 53 191q62 98 163 98q113 0 180 -139q55 -114 55 -212q0 -14 -1 -28l-9 -113l6 -10q70 31 80 30v-11zM430 332q0 102 -50 193
q-59 108 -154 108q-83 0 -140 -77q-52 -71 -52 -156q0 -24 8 -50q7 5 29 37q18 26 35 26l4 -9q0 -8 -27.5 -43t-27.5 -40q0 -6 29 -34.5t39 -34.5q89 -53 213 -53q33 0 73 4q21 29 21 129zM379 141h-8q-12 0 -36.5 -5t-37.5 -5q-148 0 -257 141l-4 -19q0 -82 56 -134.5
t138 -52.5q37 0 86 21q55 24 63 54zM368 837q-6 -17 -29 -39.5t-40 -23.5q-30 -2 -67 14q-40 17 -56 18q-51 2 -73 -27l-6 10q12 19 38 50q17 14 42 14q13 0 57 -21l-1 1q23 -16 62 -16q38 0 69 30z" />
    <glyph glyph-name="OE" unicode="&#x152;" horiz-adv-x="921" 
d="M430 332q0 102 -50 193q-59 108 -154 108q-82 0 -139 -77q-53 -71 -53 -156q0 -24 8 -50q7 5 29 37q18 26 35 26l4 -9q0 -8 -27.5 -43t-27.5 -40q0 -6 29 -34.5t39 -34.5q89 -53 213 -53q33 0 73 4q21 29 21 129zM379 141h-8q-12 0 -36.5 -5t-37.5 -5q-148 0 -257 141
l-4 -19q0 -82 56 -134.5t138 -52.5q37 0 86 21q55 24 63 54zM931 234q0 -11 -27.5 -40.5t-27.5 -37.5q-6 -104 -75 -142q-52 -29 -166 -29q-75 0 -131 36q-61 40 -80 109q-29 -64 -79 -103q-54 -43 -120 -43q-95 0 -157 70q-60 67 -60 163q0 17 9.5 50t9.5 49q0 18 -9.5 55
t-9.5 56q0 107 53 191q62 98 163 98q113 0 180 -139q54 -112 54 -240q0 -12 -1 -26q20 29 52 60q27 26 27 29q-40 19 -65.5 56.5t-25.5 80.5q0 88 66 135q57 41 149 41q41 0 106 -37q71 -40 77 -76l-10 -10q-75 58 -145 58q-72 0 -128 -25q-78 -35 -78 -106q0 -31 48 -54
q41 -20 77 -20q14 0 41 4.5t41 4.5q54 0 54 -40q0 -43 -85 -43q-9 0 -26 1t-25 1q-40 0 -90 -58q-45 -53 -56 -97q66 29 74 28v-11q-25 -21 -76 -60q10 -68 99 -105q69 -29 147 -29q41 0 80 16q50 20 60 56l1 16q-81 -51 -146 -51q-47 0 -98 23q-62 28 -62 69q0 51 64 77
q46 19 107 19q54 0 90 -19q26 -14 66 -55q21 18 61 58zM843 168q0 19 -35.5 41t-55.5 22q-42 0 -63 -5q-28 -7 -56 -28q-35 -27 -35 -47q0 -18 39 -32q31 -11 55 -11q32 0 86 17q65 20 65 43z" />
    <glyph glyph-name="oe" unicode="&#x153;" horiz-adv-x="411" 
d="M177 55q-37 -64 -88 -64q-42 0 -67 70q-19 54 -19 105q0 62 10 89q17 45 69 45q17 0 36 -7q23 -9 23 -23q0 -9 -15 -20q-7 0 -24.5 7t-28.5 7q-35 0 -45 -32q-4 -13 -4 -61q0 -40 14 -75q18 -46 52 -46t60.5 33t26.5 68q0 36 -36 95q0 24 14 24q11 0 19 -20q10 42 73 42
q14 0 45.5 -23.5t31.5 -36.5q0 -5 -6.5 -11.5t-11.5 -7.5q-52 45 -80 45q-37 0 -37 -24q0 -40 83 -43q6 -5 9 -26q-23 -12 -47 -24q-26 -16 -26 -45q0 -15 12.5 -33t26.5 -18q34 0 94 84q42 59 70 117h1l11 -3q0 -28 -69 -136q-74 -115 -111 -115q-24 0 -42 19t-24 44z
M192 188q10 -40 10 -44v-2q9 10 22 19v8q-12 6 -32 19z" />
    <glyph glyph-name="endash" unicode="&#x2013;" horiz-adv-x="325" 
d="M12 250h285q10 0 10 -11q0 -12 -10 -12h-285q-10 0 -10 12q0 11 10 11z" />
    <glyph glyph-name="emdash" unicode="&#x2014;" horiz-adv-x="613" 
d="M2 250h585q10 0 10 -11q0 -12 -10 -12h-585q-10 0 -10 12q0 11 10 11z" />
    <glyph glyph-name="quotedblleft" unicode="&#x201c;" horiz-adv-x="280" 
d="M134 664q0 -20 9.5 -51t21.5 -45q18 -24 35 -47q22 -28 47 -34l2 4q0 11 -16 44q-13 30 -22 42q0 55 -11 73t-60 34l-6 -3v-17zM24 664q0 -20 9.5 -51t21.5 -45q18 -24 35 -47q22 -28 47 -34l2 4q0 11 -16 44q-13 30 -22 42q0 55 -11 73t-60 34l-6 -3v-17z" />
    <glyph glyph-name="quotedblright" unicode="&#x201d;" horiz-adv-x="273" 
d="M132 664q0 -20 -9.5 -51t-21.5 -45q-18 -24 -35 -47q-22 -28 -47 -34l-2 4q0 11 16 44q13 30 22 42q0 55 11 73t60 34l6 -3v-17zM242 664q0 -20 -9.5 -51t-21.5 -45q-18 -24 -35 -47q-22 -28 -47 -34l-2 4q0 11 16 44q13 30 22 42q0 55 11 73t60 34l6 -3v-17z" />
    <glyph glyph-name="quoteleft" unicode="&#x2018;" horiz-adv-x="168" 
d="M16 664q0 -20 9.5 -51t21.5 -45q18 -24 35 -47q22 -28 47 -34l2 4q0 11 -16 44q-13 30 -22 42q0 55 -11 73t-60 34l-6 -3v-17z" />
    <glyph glyph-name="quoteright" unicode="&#x2019;" horiz-adv-x="124" 
d="M132 664q0 -20 -9.5 -51t-21.5 -45q-18 -24 -35 -47q-22 -28 -47 -34l-2 4q0 11 16 44q13 30 22 42q0 55 11 73t60 34l6 -3v-17z" />
    <glyph glyph-name="divide" unicode="&#xf7;" horiz-adv-x="45" 
 />
    <glyph glyph-name="ydieresis" unicode="&#xff;" horiz-adv-x="313" 
d="M336 245q-14 -30 -44 -88q-6 -9 -32 -46.5t-26 -44.5q0 -17 7.5 -50t7.5 -50q0 -59 -15 -109q-21 -71 -66 -71q-18 0 -28 29q-7 22 -7 45q0 103 75 223q-10 40 -23 83l-5 -1q-6 -33 -35 -92q-34 -69 -56 -69q-43 0 -61 81q-1 3 -14 118q-1 7 -6 26q-5 16 -5 26
q0 15 12 32q10 -15 33 -122q19 -92 47 -92q64 0 72 198q34 21 48 19v-55q0 -81 16 -126l96 148zM230 -34q0 9 -13 78q-20 -13 -41.5 -70.5t-21.5 -85.5q0 -9 7 -28t13 -21q56 46 56 127zM130 365q0 29 28 29q27 0 27 -29t-27 -29q-28 0 -28 29zM40 365q0 29 28 29
q27 0 27 -29t-27 -29q-28 0 -28 29z" />
    <glyph glyph-name="Ydieresis" unicode="&#x178;" horiz-adv-x="465" 
d="M498 258q-33 -38 -112 -87q1 -15 7 -59q5 -37 5 -59v-76q-27 -190 -127 -190q-32 0 -51 34q-17 29 -17 63q0 93 34 172q39 90 111 132q-36 174 -36 356l-3 2q-5 -17 -23 -155q-16 -125 -42 -190q-37 -93 -104 -93q-69 0 -106 113q-26 80 -26 173q0 55 19 163t19 163l6 9
q14 -4 29 -23.5t15 -33.5q0 -53 -29.5 -156t-29.5 -156q0 -56 24 -105q30 -61 79 -61q72 0 104 142q15 85 49 256q26 121 77 121q6 0 11 -1l2 -11q-40 -106 -40 -212q0 -45 10 -148q12 -119 25 -135l117 61zM358 50v74q0 14 -4 25q-120 -80 -120 -243q0 -52 27 -52
q36 0 62 62q18 43 26 91q0 7 4.5 21.5t4.5 21.5zM260 785q0 29 28 29q27 0 27 -29t-27 -29q-28 0 -28 29zM140 785q0 29 28 29q27 0 27 -29t-27 -29q-28 0 -28 29z" />
    <glyph glyph-name="currency" unicode="&#xa4;" horiz-adv-x="264" 
d="M272 246q0 -17 -30 -29q-24 -10 -44 -10q-12 0 -36.5 10t-36.5 10q-30 0 -48 -94q-9 -48 -21 -121q-3 -10 -41 -20l-8 6v7q0 16 2 48t2 48q0 63 -3 96q-1 7 -5 24t-4 27q0 8 6 24q33 -41 33 -190l4 -4q6 6 6 26q0 17 21 83q20 62 30.5 83t42.5 21q1 0 38.5 -24t56.5 -24
q6 1 32 10q3 -1 3 -7z" />
    <glyph glyph-name="guilsinglleft" unicode="&#x2039;" horiz-adv-x="201" 
d="M146 390q-18 -21 -135 -150l135 -161v17l-78 150q75 121 75 124q0 20 3 20z" />
    <glyph glyph-name="guilsinglright" unicode="&#x203a;" horiz-adv-x="201" 
d="M12 390q-3 0 134 -150l-134 -161v17l77 150q-75 121 -75 124q0 19 -2 20z" />
    <glyph glyph-name="daggerdbl" unicode="&#x2021;" horiz-adv-x="15" 
 />
    <glyph glyph-name="periodcentered" unicode="&#xb7;" horiz-adv-x="165" 
d="M28 240q0 19 12 32t31 13t31 -13t12 -32q0 -18 -12.5 -31t-30.5 -13t-30.5 13t-12.5 31z" />
    <glyph glyph-name="periodcentered" unicode="&#x2219;" horiz-adv-x="165" 
d="M28 240q0 19 12 32t31 13t31 -13t12 -32q0 -18 -12.5 -31t-30.5 -13t-30.5 13t-12.5 31z" />
    <glyph glyph-name="quotesinglbase" unicode="&#x201a;" horiz-adv-x="153" 
d="M132 94q0 -6 -3 -20l-5 -18q-6 -43 -23 -58q-10 -14 -29 -40q-26 -35 -53 -41q-2 0 -2 4q0 20 19 56t19 30q0 58 14 78q9 13 57 29l6 -3v-17z" />
    <glyph glyph-name="quotedblbase" unicode="&#x201e;" horiz-adv-x="275" 
d="M132 84q0 -6 -3 -20l-5 -18q-6 -43 -23 -58q-10 -14 -29 -40q-26 -35 -53 -41q-2 0 -2 4q0 20 19 56t19 30q0 58 14 78q9 13 57 29l6 -3v-17zM242 84q0 -6 -3 -20l-5 -18q-6 -43 -23 -58q-10 -14 -29 -40q-26 -35 -53 -41q-2 0 -2 4q0 20 19 56t19 30q0 58 14 78
q9 13 57 29l6 -3v-17z" />
    <glyph glyph-name="perthousand" unicode="&#x2030;" horiz-adv-x="261" 
 />
    <glyph glyph-name="Acircumflex" unicode="&#xc2;" horiz-adv-x="549" 
d="M576 226q0 -34 -56 -145q-60 -118 -93 -118q-44 0 -73 81l-36 118q-13 -19 -31.5 -69.5t-37.5 -71.5q-27 -31 -75 -31q-84 0 -133 111q-39 88 -39 186v86q47 343 237 343q107 0 155 -111q36 -82 36 -204q0 -93 -40 -222l-5 18q0 27 11 79t11 79q0 118 -29 193
q-43 110 -142 110q-102 0 -157 -113q-43 -89 -43 -203v0v-2l1 -12l2 -58q2 -61 34 -114q39 -64 93 -64q65 0 110 134q37 111 37 220q0 23 -3 37l8 10l5 -5q20 -216 23 -236q29 -182 91 -182q47 0 135 172zM157 751l84 70l90 -70q3 -3 2 -4t-4 0q-5 2 -48 18q-39 15 -40 15
t-38 -16t-44 -18q-1 1 -3 1q0 2 1 4z" />
    <glyph glyph-name="Ecircumflex" unicode="&#xca;" horiz-adv-x="484" 
d="M519 234q0 -11 -25 -40t-26 -36q-19 -108 -78 -144q-47 -29 -167 -29q-92 0 -155 54.5t-63 145.5q0 83 59 151q20 21 60 64q-40 19 -65.5 56.5t-25.5 80.5q0 88 66 135q57 41 149 41q41 0 106 -37q71 -40 77 -76l-10 -10q-75 58 -145 58q-72 0 -128 -25q-78 -35 -78 -106
q0 -31 48 -54q41 -20 77 -20q14 0 41 4.5t41 4.5q54 0 54 -40q0 -43 -85 -43q-9 0 -26 1t-25 1q-46 0 -99.5 -69.5t-50.5 -116.5q4 -73 96 -114q72 -32 152 -32q44 0 87 17q55 22 55 60l-1 11q-81 -51 -146 -51q-47 0 -98 23q-62 28 -62 69q0 52 59 76q43 18 104 18
q43 0 87 -24q18 -10 77 -51q21 20 61 61zM431 168q0 19 -35.5 41t-55.5 22q-42 0 -63 -5q-28 -7 -56 -28q-35 -27 -35 -47q0 -19 32 -34q28 -13 50 -13q29 0 91 20q72 23 72 44zM157 751l84 70l90 -70q3 -3 2 -4t-4 0q-5 2 -48 18q-39 15 -40 15t-38 -16t-44 -18q-1 1 -3 1
q0 2 1 4z" />
    <glyph glyph-name="Aacute" unicode="&#xc1;" horiz-adv-x="549" 
d="M576 226q0 -34 -56 -145q-60 -118 -93 -118q-44 0 -73 81l-36 118q-13 -19 -31.5 -69.5t-37.5 -71.5q-27 -31 -75 -31q-84 0 -133 111q-39 88 -39 186v86q47 343 237 343q107 0 155 -111q36 -82 36 -204q0 -93 -40 -222l-5 18q0 27 11 79t11 79q0 118 -29 193
q-43 110 -142 110q-102 0 -157 -113q-43 -89 -43 -203v0v-2l1 -12l2 -58q2 -61 34 -114q39 -64 93 -64q65 0 110 134q37 111 37 220q0 23 -3 37l8 10l5 -5q20 -216 23 -236q29 -182 91 -182q47 0 135 172zM134 734q-4 2 -3 7l164 88q9 1 16 -7t7 -18q0 -13 -11 -18z" />
    <glyph glyph-name="Edieresis" unicode="&#xcb;" horiz-adv-x="484" 
d="M519 234q0 -11 -25 -40t-26 -36q-19 -108 -78 -144q-47 -29 -167 -29q-92 0 -155 54.5t-63 145.5q0 83 59 151q20 21 60 64q-40 19 -65.5 56.5t-25.5 80.5q0 88 66 135q57 41 149 41q41 0 106 -37q71 -40 77 -76l-10 -10q-75 58 -145 58q-72 0 -128 -25q-78 -35 -78 -106
q0 -31 48 -54q41 -20 77 -20q14 0 41 4.5t41 4.5q54 0 54 -40q0 -43 -85 -43q-9 0 -26 1t-25 1q-46 0 -99.5 -69.5t-50.5 -116.5q4 -73 96 -114q72 -32 152 -32q44 0 87 17q55 22 55 60l-1 11q-81 -51 -146 -51q-47 0 -98 23q-62 28 -62 69q0 52 59 76q43 18 104 18
q43 0 87 -24q18 -10 77 -51q21 20 61 61zM431 168q0 19 -35.5 41t-55.5 22q-42 0 -63 -5q-28 -7 -56 -28q-35 -27 -35 -47q0 -19 32 -34q28 -13 50 -13q29 0 91 20q72 23 72 44zM260 775q0 29 28 29q27 0 27 -29t-27 -29q-28 0 -28 29zM160 775q0 29 28 29q27 0 27 -29
t-27 -29q-28 0 -28 29z" />
    <glyph glyph-name="Egrave" unicode="&#xc8;" horiz-adv-x="484" 
d="M519 234q0 -11 -25 -40t-26 -36q-19 -108 -78 -144q-47 -29 -167 -29q-92 0 -155 54.5t-63 145.5q0 83 59 151q20 21 60 64q-40 19 -65.5 56.5t-25.5 80.5q0 88 66 135q57 41 149 41q41 0 106 -37q71 -40 77 -76l-10 -10q-75 58 -145 58q-72 0 -128 -25q-78 -35 -78 -106
q0 -31 48 -54q41 -20 77 -20q14 0 41 4.5t41 4.5q54 0 54 -40q0 -43 -85 -43q-9 0 -26 1t-25 1q-46 0 -99.5 -69.5t-50.5 -116.5q4 -73 96 -114q72 -32 152 -32q44 0 87 17q55 22 55 60l-1 11q-81 -51 -146 -51q-47 0 -98 23q-62 28 -62 69q0 52 59 76q43 18 104 18
q43 0 87 -24q18 -10 77 -51q21 20 61 61zM431 168q0 19 -35.5 41t-55.5 22q-42 0 -63 -5q-28 -7 -56 -28q-35 -27 -35 -47q0 -19 32 -34q28 -13 50 -13q29 0 91 20q72 23 72 44zM324 734q4 2 3 7l-164 88q-9 1 -16 -7t-7 -18q0 -13 11 -18z" />
    <glyph glyph-name="Iacute" unicode="&#xcd;" horiz-adv-x="263" 
d="M282 253q-2 -16 -36 -30q-37 -15 -39 -18q-5 -8 -12.5 -79t-19.5 -98q-24 -52 -77 -52q-42 0 -66 32q-22 29 -22 72q0 63 28 95.5t89 44.5q52 9 60 17q0 13 2 39.5t2 39.5l-4 24q-69 39 -117 142q-43 95 -43 182q0 11 7 27.5t16 16.5q52 0 101 -146q31 -92 49 -195l10 -8
l5 2l21 -8l-2 -18q-16 0 -22 2l-9 -11q1 -30 9 -86q35 4 66 19zM178 388q-20 70 -46 137q-41 105 -70 111l-2 -30q0 -8 17.5 -64t22.5 -66q46 -86 76 -93zM180 186q0 6 -13 6q-4 0 -12.5 -3t-12.5 -3q-56 -6 -77 -17q-34 -18 -34 -67q0 -52 48 -52q61 0 93 112q8 28 8 24z
M34 734q-4 2 -3 7l164 88q9 1 16 -7t7 -18q0 -13 -11 -18z" />
    <glyph glyph-name="Icircumflex" unicode="&#xce;" horiz-adv-x="263" 
d="M282 253q-2 -16 -36 -30q-37 -15 -39 -18q-5 -8 -12.5 -79t-19.5 -98q-24 -52 -77 -52q-42 0 -66 32q-22 29 -22 72q0 63 28 95.5t89 44.5q52 9 60 17q0 13 2 39.5t2 39.5l-4 24q-69 39 -117 142q-43 95 -43 182q0 11 7 27.5t16 16.5q52 0 101 -146q31 -92 49 -195l10 -8
l5 2l21 -8l-2 -18q-16 0 -22 2l-9 -11q1 -30 9 -86q35 4 66 19zM178 388q-20 70 -46 137q-41 105 -70 111l-2 -30q0 -8 17.5 -64t22.5 -66q46 -86 76 -93zM180 186q0 6 -13 6q-4 0 -12.5 -3t-12.5 -3q-56 -6 -77 -17q-34 -18 -34 -67q0 -52 48 -52q61 0 93 112q8 28 8 24z
M-13 751l84 70l90 -70q3 -3 2 -4t-4 0q-5 2 -48 18q-39 15 -40 15t-38 -16t-44 -18q-1 1 -3 1q0 2 1 4z" />
    <glyph glyph-name="Idieresis" unicode="&#xcf;" horiz-adv-x="263" 
d="M282 253q-2 -16 -36 -30q-37 -15 -39 -18q-5 -8 -12.5 -79t-19.5 -98q-24 -52 -77 -52q-42 0 -66 32q-22 29 -22 72q0 63 28 95.5t89 44.5q52 9 60 17q0 13 2 39.5t2 39.5l-4 24q-69 39 -117 142q-43 95 -43 182q0 11 7 27.5t16 16.5q52 0 101 -146q31 -92 49 -195l10 -8
l5 2l21 -8l-2 -18q-16 0 -22 2l-9 -11q1 -30 9 -86q35 4 66 19zM178 388q-20 70 -46 137q-41 105 -70 111l-2 -30q0 -8 17.5 -64t22.5 -66q46 -86 76 -93zM180 186q0 6 -13 6q-4 0 -12.5 -3t-12.5 -3q-56 -6 -77 -17q-34 -18 -34 -67q0 -52 48 -52q61 0 93 112q8 28 8 24z
M100 775q0 29 28 29q27 0 27 -29t-27 -29q-28 0 -28 29zM10 775q0 29 28 29q27 0 27 -29t-27 -29q-28 0 -28 29z" />
    <glyph glyph-name="Igrave" unicode="&#xcc;" horiz-adv-x="263" 
d="M282 253q-2 -16 -36 -30q-37 -15 -39 -18q-5 -8 -12.5 -79t-19.5 -98q-24 -52 -77 -52q-42 0 -66 32q-22 29 -22 72q0 63 28 95.5t89 44.5q52 9 60 17q0 13 2 39.5t2 39.5l-4 24q-69 39 -117 142q-43 95 -43 182q0 11 7 27.5t16 16.5q52 0 101 -146q31 -92 49 -195l10 -8
l5 2l21 -8l-2 -18q-16 0 -22 2l-9 -11q1 -30 9 -86q35 4 66 19zM178 388q-20 70 -46 137q-41 105 -70 111l-2 -30q0 -8 17.5 -64t22.5 -66q46 -86 76 -93zM180 186q0 6 -13 6q-4 0 -12.5 -3t-12.5 -3q-56 -6 -77 -17q-34 -18 -34 -67q0 -52 48 -52q61 0 93 112q8 28 8 24z
M194 734q4 2 3 7l-164 88q-9 1 -16 -7t-7 -18q0 -13 11 -18z" />
    <glyph glyph-name="Oacute" unicode="&#xd3;" horiz-adv-x="499" 
d="M535 233q-32 -27 -99 -75q-26 -73 -79 -121q-59 -53 -132 -53q-95 0 -157 70q-60 67 -60 163q0 17 9.5 50t9.5 49q0 18 -9.5 55t-9.5 56q0 107 53 191q62 98 163 98q113 0 180 -139q55 -114 55 -212q0 -14 -1 -28l-9 -113l6 -10q70 31 80 30v-11zM430 332q0 102 -50 193
q-59 108 -154 108q-83 0 -140 -77q-52 -71 -52 -156q0 -24 8 -50q7 5 29 37q18 26 35 26l4 -9q0 -8 -27.5 -43t-27.5 -40q0 -6 29 -34.5t39 -34.5q89 -53 213 -53q33 0 73 4q21 29 21 129zM379 141h-8q-12 0 -36.5 -5t-37.5 -5q-148 0 -257 141l-4 -19q0 -82 56 -134.5
t138 -52.5q37 0 86 21q55 24 63 54zM134 734q-4 2 -3 7l164 88q9 1 16 -7t7 -18q0 -13 -11 -18z" />
    <glyph glyph-name="Ocircumflex" unicode="&#xd4;" horiz-adv-x="500" 
d="M535 233q-32 -27 -99 -75q-26 -73 -79 -121q-59 -53 -132 -53q-95 0 -157 70q-60 67 -60 163q0 17 9.5 50t9.5 49q0 18 -9.5 55t-9.5 56q0 107 53 191q62 98 163 98q113 0 180 -139q55 -114 55 -212q0 -14 -1 -28l-9 -113l6 -10q70 31 80 30v-11zM430 332q0 102 -50 193
q-59 108 -154 108q-83 0 -140 -77q-52 -71 -52 -156q0 -24 8 -50q7 5 29 37q18 26 35 26l4 -9q0 -8 -27.5 -43t-27.5 -40q0 -6 29 -34.5t39 -34.5q89 -53 213 -53q33 0 73 4q21 29 21 129zM379 141h-8q-12 0 -36.5 -5t-37.5 -5q-148 0 -257 141l-4 -19q0 -82 56 -134.5
t138 -52.5q37 0 86 21q55 24 63 54zM147 751l84 70l90 -70q3 -3 2 -4t-4 0q-5 2 -48 18q-39 15 -40 15t-38 -16t-44 -18q-1 1 -3 1q0 2 1 4z" />
    <glyph glyph-name="Ograve" unicode="&#xd2;" horiz-adv-x="500" 
d="M535 233q-32 -27 -99 -75q-26 -73 -79 -121q-59 -53 -132 -53q-95 0 -157 70q-60 67 -60 163q0 17 9.5 50t9.5 49q0 18 -9.5 55t-9.5 56q0 107 53 191q62 98 163 98q113 0 180 -139q55 -114 55 -212q0 -14 -1 -28l-9 -113l6 -10q70 31 80 30v-11zM430 332q0 102 -50 193
q-59 108 -154 108q-83 0 -140 -77q-52 -71 -52 -156q0 -24 8 -50q7 5 29 37q18 26 35 26l4 -9q0 -8 -27.5 -43t-27.5 -40q0 -6 29 -34.5t39 -34.5q89 -53 213 -53q33 0 73 4q21 29 21 129zM379 141h-8q-12 0 -36.5 -5t-37.5 -5q-148 0 -257 141l-4 -19q0 -82 56 -134.5
t138 -52.5q37 0 86 21q55 24 63 54zM324 734q4 2 3 7l-164 88q-9 1 -16 -7t-7 -18q0 -13 11 -18z" />
    <glyph glyph-name="Uacute" unicode="&#xda;" horiz-adv-x="527" 
d="M553 238q-14 -46 -45 -137q-37 -104 -75 -104q-58 0 -77 147q-11 89 -6 185l7 125h-2q-6 -11 -8 -44q-10 -138 -35 -245q-43 -183 -116 -183q-52 0 -80 76q-24 64 -18 119l46 427q2 21 -7 45q-12 27 -32 27q-18 0 -49.5 -17t-48.5 -17l-5 34q16 11 48 33.5t47 22.5
q44 0 63 -42q16 -34 11 -80q-9 -85 -19 -171q-10 -100 -10 -171v-93q0 -26 11 -62q13 -43 31 -43q58 0 97 133q26 89 51 265q24 171 33 195l34 18l8 -3l1 -16q0 10 -10 -65t-17 -183q-4 -60 12 -178q20 -147 53 -147q18 0 56 73q8 15 46 93zM194 734q-4 2 -3 7l164 88
q9 1 16 -7t7 -18q0 -13 -11 -18z" />
    <glyph glyph-name="Ucircumflex" unicode="&#xdb;" horiz-adv-x="527" 
d="M553 238q-14 -46 -45 -137q-37 -104 -75 -104q-58 0 -77 147q-11 89 -6 185l7 125h-2q-6 -11 -8 -44q-10 -138 -35 -245q-43 -183 -116 -183q-52 0 -80 76q-24 64 -18 119l46 427q2 21 -7 45q-12 27 -32 27q-18 0 -49.5 -17t-48.5 -17l-5 34q16 11 48 33.5t47 22.5
q44 0 63 -42q16 -34 11 -80q-9 -85 -19 -171q-10 -100 -10 -171v-93q0 -26 11 -62q13 -43 31 -43q58 0 97 133q26 89 51 265q24 171 33 195l34 18l8 -3l1 -16q0 10 -10 -65t-17 -183q-4 -60 12 -178q20 -147 53 -147q18 0 56 73q8 15 46 93zM177 751l84 70l90 -70q3 -3 2 -4
t-4 0q-5 2 -48 18q-39 15 -40 15t-38 -16t-44 -18q-1 1 -3 1q0 2 1 4z" />
    <glyph glyph-name="Ugrave" unicode="&#xd9;" horiz-adv-x="527" 
d="M553 238q-14 -46 -45 -137q-37 -104 -75 -104q-58 0 -77 147q-11 89 -6 185l7 125h-2q-6 -11 -8 -44q-10 -138 -35 -245q-43 -183 -116 -183q-52 0 -80 76q-24 64 -18 119l46 427q2 21 -7 45q-12 27 -32 27q-18 0 -49.5 -17t-48.5 -17l-5 34q16 11 48 33.5t47 22.5
q44 0 63 -42q16 -34 11 -80q-9 -85 -19 -171q-10 -100 -10 -171v-93q0 -26 11 -62q13 -43 31 -43q58 0 97 133q26 89 51 265q24 171 33 195l34 18l8 -3l1 -16q0 10 -10 -65t-17 -183q-4 -60 12 -178q20 -147 53 -147q18 0 56 73q8 15 46 93zM324 734q4 2 3 7l-164 88
q-9 1 -16 -7t-7 -18q0 -13 11 -18z" />
    <glyph glyph-name="circumflex" unicode="&#x2c6;" horiz-adv-x="231" 
d="M26 318l84 70l90 -70q2 -3 2 -4q-1 -1 -5 0l-52 20q-32 12 -35 13q-2 0 -37 -15q-39 -17 -45 -19q-2 1 -3 2q0 1 1 3z" />
    <glyph glyph-name="tilde" unicode="&#x2dc;" horiz-adv-x="205" 
d="M188 371q-5 -10 -21 -21.5t-26 -11.5q-20 -1 -46.5 7t-37.5 8q-35 1 -50 -13l-4 5l25 27q12 13 29 13q11 0 39 -8.5t42 -8.5q23 0 43 13z" />
    <glyph glyph-name="macron" unicode="&#xaf;" horiz-adv-x="239" 
d="M19 363h153q10 0 10 -10q0 -11 -10 -11h-153q-10 0 -10 11q0 10 10 10z" />
    <glyph glyph-name="macron" unicode="&#x2c9;" horiz-adv-x="239" 
d="M19 363h153q10 0 10 -10q0 -11 -10 -11h-153q-10 0 -10 11q0 10 10 10z" />
    <glyph glyph-name="cedilla" unicode="&#xb8;" horiz-adv-x="131" 
d="M94 -9l-1 -37q6 -1 20 -11q1 -2 4.5 -7.5t3.5 -10.5q0 -28 -27 -28q-16 0 -25 20l-10 -10q15 -26 39 -26q43 0 43 44q0 20 -4.5 28t-21.5 13l5 26l-4 -5z" />
    <glyph glyph-name="Scaron" unicode="&#x160;" 
 />
    <glyph glyph-name="scaron" unicode="&#x161;" 
 />
    <glyph glyph-name="brokenbar" unicode="&#xa6;" 
 />
    <glyph glyph-name="Eth" unicode="&#xd0;" horiz-adv-x="8" 
 />
    <glyph glyph-name="eth" unicode="&#xf0;" 
 />
    <glyph glyph-name="Yacute" unicode="&#xdd;" 
 />
    <glyph glyph-name="Thorn" unicode="&#xde;" 
 />
    <glyph glyph-name="thorn" unicode="&#xfe;" 
 />
    <glyph glyph-name="minus" unicode="&#xad;" 
 />
    <glyph glyph-name="minus" unicode="&#x2212;" 
 />
    <glyph glyph-name="onesuperior" unicode="&#xb9;" 
 />
    <glyph glyph-name="twosuperior" unicode="&#xb2;" 
 />
    <glyph glyph-name="threesuperior" unicode="&#xb3;" 
 />
    <glyph glyph-name="onehalf" unicode="&#xbd;" 
 />
    <glyph glyph-name="onequarter" unicode="&#xbc;" 
 />
    <glyph glyph-name="threequarters" unicode="&#xbe;" 
 />
    <glyph glyph-name="Lslash" unicode="&#x141;" 
 />
    <glyph glyph-name="lslash" unicode="&#x142;" 
 />
    <glyph glyph-name="HT" horiz-adv-x="165" 
 />
    <glyph glyph-name="LF" 
 />
    <glyph glyph-name="nonmarkingreturn" horiz-adv-x="165" 
 />
    <glyph glyph-name="Zcaron" unicode="&#x17d;" 
 />
    <glyph glyph-name="zcaron" unicode="&#x17e;" 
 />
    <glyph glyph-name="DLE" 
 />
    <glyph glyph-name="DC1" 
 />
    <glyph glyph-name="DC2" 
 />
    <glyph glyph-name="DC3" 
 />
    <glyph glyph-name="DC4" 
 />
    <glyph glyph-name="RS" 
 />
    <glyph glyph-name="US" 
 />
    <glyph glyph-name="infinity" unicode="&#x221e;" horiz-adv-x="28" 
 />
    <glyph glyph-name="lessequal" unicode="&#x2264;" horiz-adv-x="25" 
 />
    <glyph glyph-name="greaterequal" unicode="&#x2265;" horiz-adv-x="9" 
 />
    <glyph glyph-name="partialdiff" unicode="&#x2202;" horiz-adv-x="200" 
d="M93 616q0 38 -13 38q-20 0 -40 -163q-11 -91 -11 -146q0 -6 6 -16q19 35 39 141q19 99 19 146zM4 253q-2 22 -2 35q0 77 22 223q28 186 63 186q37 0 37 -93q0 -61 -42 -184q-17 -48 -50 -144q3 3 20 17l107 90q4 -3 4 -11q0 -9 -5 -24l-125 -103q6 -57 20 -103
q19 -62 41 -62t63 73l2 3q27 49 45 96q10 -5 10 -15q0 -34 -48 -136q-52 -110 -80 -110q-64 0 -81 233q-6 -5 -42 -32q-8 6 -8 14t8 15t41 32z" />
    <glyph glyph-name="summation" unicode="&#x2211;" horiz-adv-x="541" 
d="M546 230q0 -16 -36 -40l-37 -26q-37 -177 -196 -177h-76q-89 0 -144 63q-53 60 -53 151q0 32 13 56q16 31 45 31q54 0 164.5 -49t166.5 -49q10 0 20 1l2 5q0 62 -95 130q-59 39 -177 119q-95 66 -95 115q0 67 56 108q51 38 120 38q77 0 134 -42q64 -47 64 -121l-3 -23
l-13 7q-27 47 -85 77q-54 28 -111 28q-44 0 -80 -18q-45 -22 -45 -60q0 -45 83 -91q41 -21 122 -64q118 -68 150 -130q6 -11 17.5 -41t16.5 -30q16 0 61 41h8zM420 149q-5 4 -11 5q-4 0 -11.5 -1t-11.5 -1q-72 0 -225 37q-2 1 -45 17q-26 10 -47 10q-33 0 -33 -34v-32
q0 -54 65 -81q48 -20 111 -20q64 0 120 22q71 28 88 78zM320 803l-84 -70l-90 70q-3 3 -2 4t5 0l52 -20q32 -12 35 -13q5 2 33 14q36 16 49 20q1 -1 3 -2q0 -1 -1 -3z" />
    <glyph glyph-name="product" unicode="&#x220f;" horiz-adv-x="263" 
d="M282 231l-24 -47q-49 -95 -69 -124q-54 -76 -108 -76q-21 0 -51 15q-34 17 -34 35q0 8 9 15t17 7q5 0 23 -8.5t23 -8.5q20 0 41.5 12.5t21.5 30.5q0 44 -33 84q-8 10 -62 60q-33 31 -33 48q0 79 29 79q14 0 14 -20q0 -5 -11.5 -26.5t-11.5 -26.5q0 -7 17 -22
q46 -31 97 -73q13 -11 35 -56q8 -17 13 -23q42 64 97 149v-24zM220 383l-84 -70l-90 70q-3 3 -2 4t5 0l52 -20q32 -12 35 -13q5 2 33 14q36 16 49 20q1 -1 3 -2q0 -1 -1 -3z" />
    <glyph glyph-name="pi" unicode="&#x3c0;" horiz-adv-x="494" 
d="M498 258q-33 -38 -112 -87q1 -15 7 -59q5 -37 5 -59v-76q-27 -190 -127 -190q-32 0 -51 34q-17 29 -17 63q0 93 34 172q39 90 111 132q-36 174 -36 356l-3 2q-5 -17 -23 -155q-16 -125 -42 -190q-37 -93 -104 -93q-69 0 -106 113q-26 80 -26 173q0 55 19 163t19 163l6 9
q14 -4 29 -23.5t15 -33.5q0 -53 -29.5 -156t-29.5 -156q0 -56 24 -105q30 -61 79 -61q72 0 104 142q15 85 49 256q26 121 77 121q6 0 11 -1l2 -11q-40 -106 -40 -212q0 -45 10 -148q12 -119 25 -135l117 61zM358 50v74q0 14 -4 25q-120 -80 -120 -243q0 -52 27 -52
q36 0 62 62q18 43 26 91q0 7 4.5 21.5t4.5 21.5zM146 718q-5 2 -3 8l152 99q11 2 19 -7.5t8 -21.5q0 -14 -13 -20z" />
    <glyph glyph-name="integral" unicode="&#x222b;" horiz-adv-x="313" 
d="M336 245q-14 -30 -44 -88q-6 -9 -32 -46.5t-26 -44.5q0 -17 7.5 -50t7.5 -50q0 -59 -15 -109q-21 -71 -66 -71q-18 0 -28 29q-7 22 -7 45q0 103 75 223q-10 40 -23 83l-5 -1q-6 -33 -35 -92q-34 -69 -56 -69q-43 0 -61 81q-1 3 -14 118q-1 7 -6 26q-5 16 -5 26
q0 15 12 32q10 -15 33 -122q19 -92 47 -92q64 0 72 198q34 21 48 19v-55q0 -81 16 -126l96 148zM230 -34q0 9 -13 78q-20 -13 -41.5 -70.5t-21.5 -85.5q0 -9 7 -28t13 -21q56 46 56 127zM56 324q-4 2 -3 7l124 88q9 1 16 -7t7 -18q0 -14 -11 -18z" />
    <glyph glyph-name="Omega" unicode="&#x3a9;" horiz-adv-x="480" 
d="M13 299h53q43 212 186 212q121 0 143 -102q3 -28 -12 -37q-21 79 -134 79q-50 0 -95 -53q-38 -44 -53 -99h151q16 0 16 -14q0 -15 -16 -15h-157q-4 -20 -5 -43h162q16 0 16 -14q0 -15 -16 -15h-163v-8q0 -39 29 -81q31 -45 75 -47q147 -7 193 42q8 12 16 23q17 -4 17 -24
q0 -31 -29 -67q-39 -34 -58 -39q-29 -8 -132 -8q-67 0 -107 78q-32 62 -33 131h-47q-17 0 -17 15q0 14 17 14h48q1 31 -1 38l1 5h-48q-17 0 -17 15q0 14 17 14z" />
    <glyph glyph-name="Omega" unicode="&#x2126;" horiz-adv-x="480" 
d="M13 299h53q43 212 186 212q121 0 143 -102q3 -28 -12 -37q-21 79 -134 79q-50 0 -95 -53q-38 -44 -53 -99h151q16 0 16 -14q0 -15 -16 -15h-157q-4 -20 -5 -43h162q16 0 16 -14q0 -15 -16 -15h-163v-8q0 -39 29 -81q31 -45 75 -47q147 -7 193 42q8 12 16 23q17 -4 17 -24
q0 -31 -29 -67q-39 -34 -58 -39q-29 -8 -132 -8q-67 0 -107 78q-32 62 -33 131h-47q-17 0 -17 15q0 14 17 14h48q1 31 -1 38l1 5h-48q-17 0 -17 15q0 14 17 14z" />
    <glyph glyph-name="radical" unicode="&#x221a;" horiz-adv-x="333" 
d="M72 256q-12 -57 -46 -134q-38 -86 -72 -118q4 -12 8 -12q5 0 14 4q27 19 62 112q32 86 38 138zM357 252q0 -12 -48 -119.5t-61 -127.5t-37 -20q-23 0 -41.5 27t-18.5 51v81q0 10 4 29t4 29q-23 7 -67 22q-40 15 -40 59q0 11 10 33.5t19 22.5q3 0 7 -7t4 -11q0 -43 -9 -53
q3 -11 27 -19q13 -4 28 -4q35 0 50 10l11 -4q-18 -50 -18 -107q0 -80 33 -80q36 0 84 88q30 56 54 121q5 -14 5 -21z" />
    <glyph glyph-name="approxequal" unicode="&#x2248;" horiz-adv-x="310" 
d="M62 256q-12 -57 -46 -134q-38 -86 -72 -118q4 -12 8 -12q5 0 14 4q27 19 62 112q32 86 38 138zM322 231l-24 -47q-49 -95 -69 -124q-54 -76 -108 -76q-21 0 -51 15q-34 17 -34 35q0 8 9 15t17 7q5 0 23 -8.5t23 -8.5q20 0 41.5 12.5t21.5 30.5q0 44 -33 84q-8 10 -62 60
q-33 31 -33 48q0 79 29 79q14 0 14 -20q0 -8 -6 -28t-6 -28q0 -13 6 -19q46 -31 97 -73q13 -11 35 -56q8 -17 13 -23q42 64 97 149v-24z" />
    <glyph glyph-name="approxequal" unicode="&#x22f2;" horiz-adv-x="310" 
d="M62 256q-12 -57 -46 -134q-38 -86 -72 -118q4 -12 8 -12q5 0 14 4q27 19 62 112q32 86 38 138zM322 231l-24 -47q-49 -95 -69 -124q-54 -76 -108 -76q-21 0 -51 15q-34 17 -34 35q0 8 9 15t17 7q5 0 23 -8.5t23 -8.5q20 0 41.5 12.5t21.5 30.5q0 44 -33 84q-8 10 -62 60
q-33 31 -33 48q0 79 29 79q14 0 14 -20q0 -8 -6 -28t-6 -28q0 -13 6 -19q46 -31 97 -73q13 -11 35 -56q8 -17 13 -23q42 64 97 149v-24z" />
    <glyph glyph-name="Delta" unicode="&#x394;" horiz-adv-x="13" 
 />
    <glyph glyph-name="Delta" unicode="&#x2206;" horiz-adv-x="13" 
 />
    <glyph glyph-name="lozenge" unicode="&#x25ca;" horiz-adv-x="351" 
d="M33 280l118 118l118 -118l-118 -118z" />
    <glyph glyph-name="fraction" unicode="&#x2044;" horiz-adv-x="489" 
d="M523 222q-30 -14 -89 -46q-39 -123 -129 -178l-2 -5q45 -73 48 -76q32 -41 71 -41q12 0 25 4l9 -10q-22 -72 -71 -72q-63 0 -90 66l-36 117q1 -1 -44 -1q-85 0 -145 73q-58 69 -58 155q0 68 18 86q1 1 -11 56q-14 61 -14 99q0 81 64 168q69 94 142 90q199 -10 225 -288
q4 -43 4 -201l9 -4q43 13 68 23l6 -2v-13zM417 320q0 99 -54 194q-63 111 -154 111q-78 0 -131 -65q-48 -61 -48 -141q0 -37 13 -51q17 27 27 42q20 30 31 33l12 -13q-18 -40 -23 -48q-15 -29 -30 -42q2 -10 44 -43q37 -29 54 -38q91 -47 182 -47h59l17 7q1 -1 1 101z
M389 161l-1 4h-7q-12 0 -36 -5t-36 -5q-147 0 -262 106q-3 -23 -3 -27q0 -58 54 -121t111 -63q12 0 20 4q-8 8 -46 42l2 4q29 2 21 2q29 0 67 -40q20 2 68 42t48 57z" />
    <glyph glyph-name="fi" unicode="&#xf001;" horiz-adv-x="0" 
 />
    <glyph glyph-name="fl" unicode="&#xf002;" horiz-adv-x="2" 
 />
    <glyph glyph-name="apple" unicode="&#xf000;" horiz-adv-x="5" 
 />
    <glyph glyph-name="dotlessi" unicode="&#x131;" horiz-adv-x="210" 
d="M225 249q0 -16 -39 -107q-18 -43 -37 -86q-31 -63 -58 -63q-76 0 -76 244q0 26 6 67h5q14 0 14 -2q3 -42 11 -126q11 -98 44 -98q25 0 66 79q17 34 53 103z" />
    <glyph glyph-name="breve" unicode="&#x2d8;" horiz-adv-x="209" 
d="M197 377q0 -31 -34 -48q-27 -14 -61 -14t-61 14q-34 17 -34 48q0 10 10 10t10 -10q0 -35 77 -35q73 0 73 35q0 10 10 10t10 -10z" />
    <glyph glyph-name="dotaccent" unicode="&#x2d9;" horiz-adv-x="165" 
d="M73 326q-34 0 -34 31t34 31t34 -31t-34 -31z" />
    <glyph glyph-name="ring" unicode="&#x2da;" horiz-adv-x="145" 
d="M67 426q22 0 37 -15t15 -37t-15 -37t-37 -15t-37 15t-15 37t15 37t37 15zM67 406q-32 0 -32 -32t32 -32t32 32t-32 32z" />
    <glyph glyph-name="hungarumlaut" unicode="&#x2dd;" horiz-adv-x="308" 
d="M126 324q-4 2 -3 7l124 98q9 1 16 -7t7 -18q0 -13 -11 -18zM26 324q-4 2 -3 7l124 98q9 1 16 -7t7 -18q0 -13 -11 -18z" />
    <glyph glyph-name="ogonek" unicode="&#x2db;" horiz-adv-x="202" 
d="M120 6h15q-35 -31 -79 -93q-14 -20 -14 -50q0 -24 18 -24q31 0 47 14q10 8 31 41l15 -5q-47 -82 -116 -79q-32 2 -38 49q-5 44 38 89q34 35 83 58z" />
    <glyph glyph-name="caron" unicode="&#x2c7;" horiz-adv-x="236" 
d="M200 383l-84 -70l-90 70q-3 3 -2 4t5 0l52 -20q32 -12 35 -13q5 2 33 14q36 16 49 20q1 -1 3 -2q0 -1 -1 -3z" />
    </font>
</defs>
</svg>
