<?xml version="1.0" standalone="no"?>
<!DOCTYPE svg PUBLIC "-//W3C//DTD SVG 1.1//EN" "http://www.w3.org/Graphics/SVG/1.1/DTD/svg11.dtd" >
<svg>
<metadata>
Created by FontForge 20120731 at Tue Apr 16 14:16:46 2019
 By www-data
Digitized by Dan X. Solo. Software (c) 1999 by Dover Publications, Inc., New York.
</metadata>
<defs>
<font id="Hanover" horiz-adv-x="20" >
  <font-face 
    font-family="Hanover"
    font-weight="400"
    font-stretch="normal"
    units-per-em="1000"
    panose-1="0 0 4 0 0 0 0 0 0 0"
    ascent="800"
    descent="-200"
    x-height="471"
    cap-height="689"
    bbox="-148.053 -259 1257 848"
    underline-thickness="20"
    underline-position="-123"
    unicode-range="U+0020-F000"
  />
<missing-glyph horiz-adv-x="500" 
d="M63 0v848h375v-848h-375zM125 63h250v723h-250v-723z" />
    <glyph glyph-name=".notdef" horiz-adv-x="500" 
d="M63 0v848h375v-848h-375zM125 63h250v723h-250v-723z" />
    <glyph glyph-name=".null" horiz-adv-x="0" 
 />
    <glyph glyph-name="glyph2" horiz-adv-x="235" 
 />
    <glyph glyph-name="space" unicode=" " horiz-adv-x="235" 
 />
    <glyph glyph-name="exclam" unicode="!" horiz-adv-x="349" 
d="M266 651l-33 -131q-23 -87 -80 -312q-3 0 -17 -72l-16 5q-2 1 -9 -2t-8 -3q-1 1 -1 2q0 12 9 35q11 29 13 36q38 155 116 442l-47 -4l4 25l51 4h18v-25zM64 35q0 17 13 28.5t31 11.5t31.5 -11t13.5 -29t-13.5 -29.5t-31.5 -11.5t-31 12t-13 29z" />
    <glyph glyph-name="quotedbl" unicode="&#x22;" horiz-adv-x="288" 
d="M167 668l-57 -195l-17 5l49 194zM267 668l-57 -195l-17 5l49 194z" />
    <glyph glyph-name="numbersign" unicode="#" horiz-adv-x="486" 
d="M149 221h136l65 237h-137zM42 198v23h83l65 237h-78v23h84l53 196l23 -6l-52 -190h136l53 196l23 -6l-52 -190h93v-23h-100l-64 -237h94v-23h-100l-55 -199l-22 6l53 193h-136l-55 -199l-22 6l53 193h-77z" />
    <glyph glyph-name="dollar" unicode="$" horiz-adv-x="502" 
d="M300 458l73 196q-13 3 -28 3q-42 0 -70 -27.5t-28 -69.5q0 -49 52 -101zM135 20l64 171q-18 41 -75 41q-39 0 -65.5 -27.5t-26.5 -66.5q0 -44 29 -75t74 -43zM309 408l-148 -393q13 -2 26 -2q88 0 150 74q60 70 60 159q0 51 -28 94q-19 29 -60 68zM429 727l-22 -58
q32 -13 54 -38q7 -9 23 -28l-18 -14q-37 44 -68 57l-78 -208q54 -55 75 -90q31 -52 31 -114q0 -98 -70.5 -171.5t-167.5 -73.5q-18 0 -36 3l-37 -101l-24 12l36 94q-121 30 -121 141q0 47 36 83.5t82 36.5q59 0 85 -43l79 212q-71 67 -69 136q2 51 39.5 84.5t89.5 33.5
q18 0 34 -4l21 56z" />
    <glyph glyph-name="percent" unicode="%" horiz-adv-x="890" 
d="M640 -5q-74 0 -119 53q-42 50 -42 125q0 87 53 162q63 89 167 89q70 0 110 -61q33 -52 33 -126q0 -87 -57 -161q-61 -81 -145 -81zM827 657q-166 3 -236 -122l-226 -404q-39 -70 -129 -106q-79 -31 -168 -26l2 28q17 -1 35 0q175 9 236 118l226 404q78 139 260 136v-28z
M240 255q-74 0 -119 53q-42 50 -42 125q0 87 53 162q63 89 167 89q70 0 110 -61q33 -52 33 -126q0 -87 -57 -161q-61 -81 -145 -81zM691 400q-85 0 -140 -79q-48 -69 -48 -150q0 -66 37 -108.5t103 -42.5q76 0 128 77q48 69 47 148q0 65 -30 107q-35 48 -97 48zM291 660
q-85 0 -140 -79q-48 -69 -48 -150q0 -66 37 -108.5t103 -42.5q76 0 128 77q48 69 47 148q0 65 -30 107q-35 48 -97 48z" />
    <glyph glyph-name="ampersand" unicode="&#x26;" horiz-adv-x="682" 
d="M555 491q42 -2 61.5 -18t19.5 -58q0 -39 -51 -66q-29 -15 -97 -34q12 -33 12 -71q0 -112 -74 -185t-186 -73q-94 0 -162.5 65.5t-68.5 158.5q0 95 56 166t149 83l10 5q-53 41 -53 104q0 54 48 90q44 34 99 32q45 -2 81 -26.5t46 -66.5q3 -14 -14 -14q-8 0 -10 10
q-7 34 -40 55.5t-69 21.5q-47 0 -82 -32t-35 -79q0 -87 110 -97q10 0 10 -10q0 -9 -11 -9l-36 1q-101 3 -168 -64t-67 -168q0 -91 62.5 -147.5t153.5 -56.5q102 0 165 70q62 67 62 170q0 25 -12 58q-67 -15 -133 -31q-65 -22 -65 -70q0 -47 52 -47q15 0 30 7q16 2 16 -12
q0 -9 -7 -9q-20 -8 -39 -8q-32 0 -53 18.5t-21 50.5q0 69 96 96q59 13 178 42q96 24 96 78q0 32 -19 41q-9 4 -43 4q-11 -1 -11 13q0 13 14 12zM305 462z" />
    <glyph glyph-name="quotesingle" unicode="'" horiz-adv-x="219" 
d="M167 668l-57 -195l-17 5l49 194z" />
    <glyph glyph-name="parenleft" unicode="(" horiz-adv-x="280" 
d="M268 716q-105 -147 -164 -352q-57 -196 -57 -386q0 -38 3 -74l-23 -6q-7 97 -7 164q0 174 46 316q53 165 186 351z" />
    <glyph glyph-name="parenright" unicode=")" horiz-adv-x="268" 
d="M20 -89q107 150 165 352q56 192 56 386q0 38 -3 75l24 5q6 -97 6 -164q0 -174 -46 -316q-53 -165 -186 -351z" />
    <glyph glyph-name="asterisk" unicode="*" horiz-adv-x="442" 
d="M142 461l-11 20l102 59l-102 59l11 20l102 -59v118h23v-118l102 59l12 -20l-102 -59l102 -59l-12 -20l-102 59v-118h-23v118z" />
    <glyph glyph-name="plus" unicode="+" horiz-adv-x="527" 
d="M293 228v-226h-23v226h-225v23h225v225h23v-225h226v-23h-226z" />
    <glyph glyph-name="comma" unicode="," horiz-adv-x="209" 
d="M14 35q0 17 13 28.5t31 11.5t31.5 -11t13.5 -29q0 -20 -17 -39l-85 -94l-19 15l61 80q-29 9 -29 38z" />
    <glyph glyph-name="hyphen" unicode="-" horiz-adv-x="296" 
d="M50 255h206l-8 -24h-206z" />
    <glyph glyph-name="hyphen" unicode="&#x2010;" horiz-adv-x="296" 
d="M50 255h206l-8 -24h-206z" />
    <glyph glyph-name="period" unicode="." horiz-adv-x="147" 
d="M14 35q0 17 13 28.5t31 11.5t31.5 -11t13.5 -29t-13.5 -29.5t-31.5 -11.5t-31 12t-13 29z" />
    <glyph glyph-name="slash" unicode="/" horiz-adv-x="470" 
d="M3 -24l-20 12l451 720l20 -12z" />
    <glyph glyph-name="zero" unicode="0" horiz-adv-x="635" 
d="M595 395q0 -139 -93 -262q-101 -133 -236 -133q-120 0 -192 86q-67 81 -67 203q0 144 85 264q102 145 272 145q115 0 178 -98q53 -84 53 -205zM570 409q0 104 -47 176q-59 90 -172 90q-147 0 -240 -135q-81 -117 -81 -255q0 -115 63 -186q66 -74 179 -74q130 0 219 131
q80 117 79 253z" />
    <glyph glyph-name="one" unicode="1" horiz-adv-x="349" 
d="M266 651q0 -14 -53 -215l-60 -228q-20 -78 -47 -212l-22 -4q-5 4 -5 14q0 15 45 203q49 207 111 413q-11 -4 -67 -34q-41 -22 -68 -26l-5 23q40 3 87 32.5t69 63.5l15 -5v-25z" />
    <glyph glyph-name="two" unicode="2" horiz-adv-x="520" 
d="M473 474q0 -94 -53 -176.5t-139 -125.5q-69 -35 -100 -35q-10 0 -10 -6q0 -11 32 -47t46 -44q47 -28 85 -28q22 0 48 13t41 30h13q5 -2 5 -11q0 -21 -46 -40q-39 -16 -65 -16q-57 0 -108 45q-26 23 -77 91q-2 3 -42 3q-20 0 -54 14q-39 15 -38 31l1 6q4 9 13 9
q-19 0 20 -16t55 -16q73 0 91 4q101 23 181.5 117t80.5 196q0 86 -51.5 135.5t-137.5 49.5q-46 0 -87.5 -35t-41.5 -80q0 -40 27.5 -70t67.5 -30q39 0 59 25.5t28 26.5q9 -5 9 -14q0 -8 -22 -30t-31 -27q-23 -9 -41 -9q-46 0 -83.5 36t-37.5 82q0 65 50 108q47 41 113 41
q90 0 144.5 -58.5t54.5 -148.5z" />
    <glyph glyph-name="three" unicode="3" horiz-adv-x="557" 
d="M515 326q0 -85 -43.5 -163.5t-128.5 -126.5t-176 -48q-65 0 -106 24q-52 29 -52 89q0 43 26 72.5t68 29.5q62 0 71 -49q0 -11 -11 -11q-3 0 -23 18t-39 18q-30 0 -49 -23.5t-19 -54.5q0 -50 50 -73q34 -16 74 -16q135 0 236 91.5t101 225.5q0 32 -12 64q-6 17 -26 45
q-27 38 -46 38q-6 0 -36 -13t-36 -13q-12 0 -18 5q0 11 9 17q4 0 52 15q25 8 43 42q15 28 15 50q0 77 -99 77q-35 0 -70 -16q-29 -14 -35 -22h-18q-5 0 -5 9q0 22 58 38q43 12 66 12q126 0 126 -94q0 -28 -12 -52q-17 -34 -19 -39q84 -61 84 -166z" />
    <glyph glyph-name="four" unicode="4" horiz-adv-x="557" 
d="M516 670l-89 -375q8 -2 15 -2q18 0 49 25h18v-19q-42 -31 -78 -31q-7 0 -14 2q-21 -92 -65 -276h-15q-5 4 -13 12l66 260q-141 37 -201 36q-10 0 -45 1q-27 1 -45 0q-25 -1 -43 -7l-18 5v15q112 54 168 146q43 72 72 208q0 3 1 5q3 -1 24 -3q-1 -8 -5 -47
q-9 -79 -55 -157q-54 -92 -141 -142q28 2 55 2q133 0 241 -33q65 245 94 375q3 4 9 4q7 0 15 -4z" />
    <glyph glyph-name="five" unicode="5" horiz-adv-x="534" 
d="M517 651l-280 -1q-12 -43 -43 -127q37 9 46 8l31 -3q96 -9 152 -68t56 -154q0 -84 -51 -166.5t-125 -123.5q-36 -20 -64 -26q-14 -3 -68 -9q-52 -6 -106 22q-61 31 -61 82q0 35 22 56.5t57 21.5q22 0 44 -14q26 -16 23 -37l-9 -9q-3 2 -21 21q-14 15 -33 15
q-25 0 -42.5 -16.5t-17.5 -41.5q0 -43 54 -63q38 -14 91 -14q100 0 190.5 97.5t90.5 197.5q0 202 -223 206q-32 1 -69 -14q19 62 62 182q68 3 151 2l151 -3z" />
    <glyph glyph-name="six" unicode="6" horiz-adv-x="540" 
d="M481 308q0 -85 -47 -167q-49 -86 -123 -120q-56 -26 -117 -26q-88 0 -133 78q-36 63 -35 158q1 166 83 291q87 133 241 176q8 2 16 -1.5t8 -11.5t-14 -10q-71 -10 -169 -93q-104 -88 -104 -154q0 -2 2 -5q76 110 192 110q95 0 149 -66q51 -62 51 -159zM457 315
q0 65 -29 114q-32 54 -91 70q-36 10 -67 10q-50 0 -86 -23q-135 -86 -135 -255q0 -90 34 -146q42 -68 127 -68q106 0 179 99q68 90 68 199z" />
    <glyph glyph-name="seven" unicode="7" horiz-adv-x="448" 
d="M490 649q-68 -25 -153 -98q-88 -74 -120 -136q15 -2 28 -2q28 0 46 9q3 2 9 0q6 -3 6 -6q0 -11 -10 -11q-16 -15 -42 -15h-23q-16 1 -24 1q-25 -17 -51 -127q-22 -94 -22 -145q0 -53 8 -87q1 -5 8 -20t7 -23q0 -10 -8 -10q-4 0 -19 7q-20 46 -20 142q0 91 62 256
q-13 -3 -72 -38q-11 0 -11 10q0 15 41 34q31 14 54 21q108 159 239 224q-16 0 -47 -3t-47 -3q-31 0 -87.5 16t-76.5 16q-50 0 -86 -23q-43 -27 -43 -74q0 -52 56 -52q45 0 59 43l15 5q2 -2 2 -6q0 -28 -26.5 -44t-56.5 -16q-29 0 -50.5 18.5t-21.5 46.5q0 52 41.5 88
t94.5 36q37 0 108.5 -16.5t108.5 -16.5q21 0 63.5 8.5t63.5 8.5q11 0 11 -8q0 -5 -14 -10z" />
    <glyph glyph-name="eight" unicode="8" horiz-adv-x="537" 
d="M240 -14q-94 0 -162.5 65.5t-68.5 158.5q0 95 56 166t149 83l10 5q-53 41 -53 104q0 54 48 90q44 34 99 32q54 -2 91.5 -34t37.5 -84q0 -37 -25 -73.5t-60 -47.5v-4q138 -67 138 -203q0 -112 -74 -185t-186 -73zM423 578q0 40 -35 66t-76 26q-47 0 -82 -32t-35 -79
q0 -50 40 -76q33 -21 86 -21q41 0 73 38q29 36 29 78zM476 248q0 82 -63 140q-61 55 -144 55q-101 0 -168.5 -65t-67.5 -166q0 -91 62.5 -147.5t153.5 -56.5q102 0 165 70q62 67 62 170z" />
    <glyph glyph-name="nine" unicode="9" horiz-adv-x="540" 
d="M24 385q0 85 46 167q48 87 122 121q57 26 117 26q88 0 133 -78q36 -63 35 -158q-1 -165 -83 -290q-88 -134 -241 -177q-8 -2 -16 1.5t-8 11.5t13 10q72 10 170 93q104 88 104 155q0 2 -2 4q-76 -109 -193 -109q-95 0 -148 65q-49 61 -49 158zM46 379q0 -64 29 -113
q33 -56 91 -71q34 -9 67 -9q51 0 86 22q135 86 135 255q0 90 -35 146q-42 69 -126 69q-105 0 -179 -99q-68 -91 -68 -200z" />
    <glyph glyph-name="colon" unicode=":" horiz-adv-x="209" 
d="M94 335q0 17 13 28.5t31 11.5t31.5 -11t13.5 -29t-13.5 -29.5t-31.5 -11.5t-31 12t-13 29zM14 35q0 17 13 28.5t31 11.5t31.5 -11t13.5 -29t-13.5 -29.5t-31.5 -11.5t-31 12t-13 29z" />
    <glyph glyph-name="semicolon" unicode=";" horiz-adv-x="209" 
d="M84 335q0 17 13 28.5t31 11.5t31.5 -11t13.5 -29t-13.5 -29.5t-31.5 -11.5t-31 12t-13 29zM14 35q0 17 13 28.5t31 11.5t31.5 -11t13.5 -29q0 -20 -17 -39l-85 -94l-19 15l61 80q-29 9 -29 38z" />
    <glyph glyph-name="less" unicode="&#x3c;" horiz-adv-x="377" 
d="M313 421l-271 -182l209 -221l-22 -10l-224 233l290 196z" />
    <glyph glyph-name="equal" unicode="=" horiz-adv-x="389" 
d="M20 155h316l-8 -24h-316zM50 255h316l-8 -24h-316z" />
    <glyph glyph-name="greater" unicode="&#x3e;" horiz-adv-x="365" 
d="M5 24l272 182l-210 221l22 10l224 -233l-290 -196z" />
    <glyph glyph-name="question" unicode="?" horiz-adv-x="520" 
d="M304 239q92 48 130 93q47 57 47 146q0 90 -58.5 146.5t-148.5 56.5q-66 0 -113 -41q-50 -43 -50 -108q0 -46 37.5 -82t83.5 -36q18 0 41 9q9 5 31 27t22 30q0 9 -9 14q-9 -1 -28.5 -26.5t-58.5 -25.5q-40 0 -67.5 30t-27.5 70q0 45 41.5 80t87.5 35q86 0 137.5 -49.5
t51.5 -135.5q0 -181 -254 -238l-32 -109l20 -4l32 89q29 7 85 29zM124 35q0 17 13 28.5t31 11.5t31.5 -11t13.5 -29t-13.5 -29.5t-31.5 -11.5t-31 12t-13 29z" />
    <glyph glyph-name="at" unicode="@" horiz-adv-x="761" 
d="M450 428q-1 30 -23.5 48t-52.5 17q-74 -1 -123 -68q-45 -61 -44 -138q1 -48 28.5 -77.5t74.5 -28.5q83 2 139 237q1 5 1 10zM478 156q-69 -1 -78 76q-33 -66 -90 -70q-56 -4 -91.5 34t-36.5 95q-1 81 52 151q57 74 136 75q69 1 92 -56l8 35l29 10q-75 -228 -74 -250
q0 -16 9 -42q11 -32 44 -33h25q73 1 127 72q50 66 49 141q-2 112 -90.5 189t-201.5 75q-149 -3 -242 -92q-96 -92 -93 -240q2 -142 103 -230q96 -85 240 -83q166 3 261 146q5 11 18 11q14 0 12 -12q-47 -78 -127 -123.5t-172 -47.5q-150 -2 -253 93q-106 97 -108 246
q-3 156 97.5 255t256.5 102q127 2 221 -77q100 -82 102 -207q2 -103 -60.5 -172t-164.5 -71z" />
    <glyph glyph-name="A" unicode="A" horiz-adv-x="728" 
d="M259 15q99 -3 185 42q72 38 105 101q18 33 46 137q16 57 17 104q4 116 -70.5 191.5t-190.5 79.5q-70 3 -134 -36q-78 -47 -81 -123q-3 -103 82 -106q36 -1 62.5 17.5t29.5 53.5q3 40 -37 57q-6 4 -4 10q1 7 12 6q20 0 37 -25t16 -46q-1 -43 -37.5 -70t-80.5 -25
q-25 1 -51.5 14t-37.5 33q-96 -56 -112 -172q-1 -113 65 -176t179 -67zM118 449q-9 28 -9 55q0 89 84 143q75 49 167 44q89 -4 164 -56q90 -62 103 -159q-1 -7 5 -23q6 46 20 99l27 100q2 8 12 8q11 0 9 -8l-150 -626q-5 -21 26 -22q36 -2 83 37q2 2 5 2q4 0 7.5 -4.5
t1.5 -7.5q-14 -20 -47 -36.5t-57 -15.5q-45 1 -43 45q1 16 10 45t10 43q-48 -63 -130 -95q-75 -30 -160 -27q-116 4 -189 66q-78 66 -78 179q0 69 32 127q36 64 97 87z" />
    <glyph glyph-name="B" unicode="B" horiz-adv-x="819" 
d="M761 524q0 -34 -23 -72q-20 -34 -50 -57q43 -42 43 -131q0 -116 -84.5 -196t-201.5 -80q-34 0 -65 13q-37 15 -47 42q-2 5 3 10.5t11 5.5q7 0 10 -7q7 -22 40 -34q27 -10 55 -10q95 0 175 77t80 171q0 107 -45 130q-64 -12 -73 -12q-34 0 -46 12q-3 4 -3 9q0 11 23 11
q7 0 23 -4t23 -4q53 0 89.5 39.5t36.5 92.5q0 132 -205 132q-127 0 -220 -68q-103 -75 -103 -198q0 -36 20 -72q25 -46 69 -51q37 186 116 273q53 59 140 59q9 -1 9 -10q0 -10 -9 -9q-107 1 -170 -121q-28 -55 -63 -194q2 -2 8 -2q28 0 51 15q11 4 11 -11q0 -6 -6 -8
q-24 -9 -34 -12q-18 -5 -36 -6q-55 -259 -208 -259q-47 0 -76 23q-33 25 -33 70q0 84 81 89q72 4 73 -47q0 -12 -11 -12q-9 0 -10 10q0 29 -50 29q-27 0 -45 -20t-18 -47q0 -33 27 -54t61 -21q129 0 187 231l3 12q-50 9 -82 54q-29 42 -29 95q0 35 14 78q34 103 137 159
q91 50 208 50q219 0 219 -163z" />
    <glyph glyph-name="C" unicode="C" horiz-adv-x="699" 
d="M604 474q-26 0 -51.5 20t-25.5 46q0 15 12 15q5 0 10 -6q13 -54 56 -54q25 0 44.5 24t19.5 50q0 52 -66 79q-49 20 -111 20q-168 0 -299 -106q-140 -113 -140 -277q0 -125 74.5 -201.5t198.5 -76.5q126 0 258 95q6 4 9 4q9 0 9 -9q0 -5 -5 -11q-36 -42 -126 -72
q-83 -28 -145 -28q-134 0 -215.5 80t-81.5 214q0 177 145 298q137 113 318 113q78 0 131 -24q72 -32 72 -100q0 -35 -28 -64t-63 -29z" />
    <glyph glyph-name="D" unicode="D" horiz-adv-x="783" 
d="M725 372q-3 -162 -115 -279t-273 -114q-59 1 -127 35q-39 21 -117 62q-20 10 -82 10q-9 -2 -9 9q0 12 9 14q34 11 74 54q44 46 43 78q-44 16 -68.5 58t-24.5 91q0 54 17 90q49 102 153 153q93 45 216 45q127 0 216.5 -89.5t87.5 -216.5zM699 375q-3 113 -82 194.5
t-192 85.5q-131 5 -237 -57q-126 -74 -126 -207q0 -96 77 -127l30 117q36 136 130 192q10 6 55 24q18 2 18 -14q0 -6 -6 -6q-64 -26 -89 -44q-37 -27 -58 -79q-59 -146 -58 -198h26q4 0 21 12t22 12q16 0 16 -18q0 -9 -30 -19q-26 -9 -39 -9q-3 0 -9.5 1t-9.5 1
q-37 -77 -87 -125q44 -11 89 -40q52 -34 76 -44q52 -22 125 -22q48 0 104 21q104 39 170 138.5t64 210.5z" />
    <glyph glyph-name="E" unicode="E" horiz-adv-x="585" 
d="M557 581q0 -39 -21.5 -64t-59.5 -25q-46 0 -69 33q-6 6 -6 12q0 14 13 14q6 0 34 -25q11 -10 30 -10q25 0 40 18t15 43q0 43 -32.5 68t-76.5 25q-73 0 -123 -36q-57 -40 -57 -110q0 -52 56 -76q5 -2 5 -9q0 -11 -8 -11q-3 0 -6 2q-27 9 -42 26l-28 40q-6 0 -51 -18
q-62 -25 -102.5 -88t-40.5 -131q0 -112 70 -183.5t182 -71.5q62 0 130 26t110 68q4 1 7 1q10 0 10 -18q0 -15 -60 -49q-53 -30 -78 -35q-85 -18 -121 -18q-127 0 -206.5 82t-72.5 209q5 88 62 157.5t142 90.5q8 1 21 9q5 71 39 105q61 61 157 61q57 0 95 -27q43 -30 43 -85z
" />
    <glyph glyph-name="F" unicode="F" horiz-adv-x="568" 
d="M704 646q-30 -34 -98 -34q-33 0 -97 21t-97 21q-97 0 -180 -70q-87 -74 -87 -169q0 -43 22 -80q25 -44 65 -44q4 0 13 2t13 2q12 0 12 -11q0 -14 -37 -14q-53 0 -85 50q-28 43 -28 99q0 103 93 183q89 76 194 76q37 0 107.5 -22t107.5 -22q17 0 76 28q6 -4 6 -9v-7z
M413 359q41 198 142 241q1 1 4 1q11 0 11 -12q0 -9 -41 -36q-68 -61 -92 -191l70 11q8 1 8 -9q0 -14 -36 -19q-15 -2 -46 -6q-4 -19 -9 -58q-42 -310 -264 -310q-51 0 -92 27q-46 30 -46 79q0 39 24 65t62 26q42 0 71 -34v-14q-3 -5 -13 -5l-18.5 16t-36.5 16
q-30 0 -47 -20.5t-17 -51.5q0 -33 38 -59q34 -24 69 -24q126 0 189 115q42 77 63 228l-63 -11q-7 -1 -7 8q0 15 33 21z" />
    <glyph glyph-name="G" unicode="G" horiz-adv-x="617" 
d="M638 550q-61 58 -96 75q-52 25 -139 25q-120 0 -209 -61q-102 -70 -102 -183q0 -84 61 -137t146 -53q45 0 95 10q63 13 86 34q3 36 25 78q25 48 56 55l13 -9q-51 -51 -90 -209q-43 -174 -88 -237q-80 -112 -252 -112q-72 0 -122 30q-61 36 -61 103q0 45 34.5 75.5
t80.5 30.5q27 0 62 -16q43 -20 43 -44q0 -11 -5 -11l-18 8q-9 18 -38 29q-24 9 -48 9q-33 0 -58.5 -22t-25.5 -54q0 -104 158 -114q161 -11 242 115q52 80 88 263q-81 -37 -157 -37q-104 0 -176 54q-79 60 -79 160q0 134 116 209q99 64 242 64q136 0 237 -112z" />
    <glyph glyph-name="H" unicode="H" horiz-adv-x="844" 
d="M880 500q-13 0 -31 5q-23 6 -23 14q0 11 17 11q7 0 19.5 -5t18.5 -5q24 0 41 26q15 22 15 48q0 34 -22.5 52.5t-57.5 18.5q-87 0 -147 -110q-24 -44 -72 -187q13 5 24 5q7 0 53 28q10 6 14 6q8 0 8 -8q0 -39 -100 -52q-60 -201 -60 -301q0 -46 31 -46q23 0 65.5 29.5
t45.5 29.5q7 0 7 -8q0 -22 -55 -47q-50 -23 -75 -23q-44 0 -44 69q0 64 19 150q19 74 37 148q-3 -1 -90 -9q-52 -5 -88 -19q-2 -8 -11 -54q-22 -114 -91 -195q-80 -93 -187 -93q-56 0 -95 26q-45 29 -45 82q0 40 27 65t68 25q50 0 78 -40q1 -14 -11 -14q1 0 -23 16.5
t-45 16.5q-28 0 -50.5 -19t-22.5 -46q0 -46 38 -70q32 -20 81 -20q107 0 185 108q65 90 83 208q-63 -27 -88 -61q-3 -4 -6 -4l-5 3q-3 3 -3 8q0 32 107 75q3 17 11 46q10 40 31 120q17 65 57 109q-79 0 -120 14q-34 12 -67 25q-37 12 -72 12q-49 0 -93 -39.5t-44 -88.5
q0 -29 15 -57q15 -31 39 -44q30 -10 30 -19t-10 -9q-35 0 -66 42t-31 78q0 66 49.5 112.5t116.5 46.5q39 0 113 -27.5t113 -27.5q15 0 43.5 6.5t43.5 6.5l4 -5l-3 -4q-64 -39 -96 -131q-20 -81 -41 -162q26 10 87.5 19t90.5 7q12 48 28 96q75 224 214 224q103 0 103 -92
q0 -37 -22 -66t-58 -29z" />
    <glyph glyph-name="I" unicode="I" horiz-adv-x="561" 
d="M147 -24q-144 0 -144 112q0 36 23.5 57.5t59.5 21.5q28 0 55.5 -19t27.5 -46q0 -14 -14 -14q-8 0 -13 14q-7 21 -13 28q-13 15 -39 15q-27 0 -44.5 -18t-17.5 -45q0 -40 41 -64q35 -20 78 -20q48 0 95 27q107 61 154 180q17 43 50 214q25 128 76 187l-48 12
q-59 29 -85 37q-38 12 -94 12q-82 0 -144 -43q-70 -48 -70 -127q0 -59 50 -84v-13q-4 -4 -15 -4q-29 0 -48 39q-16 32 -16 64q0 48 27 87q71 103 225 103q66 0 123 -21q75 -36 105 -36h13q9 1 14 1q9 0 16 -2q-8 -14 -32 -41.5t-32 -45.5q-25 -59 -44 -163
q-22 -121 -37 -166q-31 -97 -104 -164q-80 -75 -175 -75h-4z" />
    <glyph glyph-name="J" unicode="J" horiz-adv-x="590" 
d="M149 -192q-69 0 -113 26q-54 31 -54 95q0 55 33 91t87 36q35 0 69 -21q39 -23 39 -56q0 -16 -17 -16q-15 0 -19 21q-22 43 -74 43q-36 0 -62 -32.5t-26 -69.5q0 -44 48 -71q40 -21 89 -21q36 0 94 35q99 60 143 209q6 22 53 278q31 170 93 251q-28 6 -56 16t-88 30
q-47 15 -93 15q-82 0 -144 -43q-70 -48 -70 -127q0 -59 50 -84v-13q-4 -4 -15 -4q-29 0 -48 39q-16 32 -16 64q0 47 27 87q69 103 225 103q80 0 133 -21q21 -9 62 -27q20 -8 70 -8q9 0 16 -2q-9 -16 -36 -54q-25 -33 -34 -55q-33 -78 -55 -227q-25 -167 -45 -231
q-32 -100 -96 -171q-77 -85 -170 -85z" />
    <glyph glyph-name="K" unicode="K" horiz-adv-x="859" 
d="M840 524q-24 0 -64 23q-1 3 -1 8q0 16 18 16h8q22 -22 32 -22q28 0 46 21t18 49q0 23 -23 42t-47 19q-59 0 -97 -31q-24 -20 -66 -80q-23 -34 -70 -102q-38 -54 -79 -94q34 -37 72 -123q48 -109 63 -134q41 -69 99 -93q19 -4 26 -7q15 -6 20 -15q-6 -13 -19 -13
q-24 0 -53 17q-65 38 -103 106q-8 14 -54 123q-32 74 -75 114q-67 -29 -98 -26q-78 -334 -286 -334q-45 0 -79 26q-37 28 -37 72q0 32 26 54t59 22q43 0 64 -37l-12 -12q-24 27 -53 27q-25 0 -41 -16t-16 -41q0 -33 29 -54t63 -21q48 0 98 34q46 31 74 75q33 51 58 128
q8 25 40 135q51 176 117 243h-27q-35 0 -101 23.5t-101 23.5q-177 0 -177 -127q0 -76 70 -93q2 -9 2 -14q0 -7 -13 -7q-33 0 -61 41q-24 38 -24 73q0 153 218 153q34 0 97.5 -26t96.5 -26q11 0 31.5 4t31.5 4q9 0 14 -13l-6 -4q-55 -36 -97 -132q-23 -52 -52 -156
q9 -3 16 -3q56 0 124 94q39 59 122 174q71 93 152 93q45 0 76 -24t31 -68q0 -33 -24 -61t-56 -28z" />
    <glyph glyph-name="L" unicode="L" horiz-adv-x="658" 
d="M554 476q-24 0 -41.5 17.5t-17.5 41.5q0 15 14 15q7 0 16 -23.5t29 -23.5q54 0 54 59q0 49 -57 74q-43 19 -100 19q-114 0 -182 -78q-54 -62 -88 -184q-11 -41 -34 -123q-21 -66 -64 -109q47 -12 101 -51q75 -54 92 -63q56 -30 125 -30q60 0 101 28q18 12 49 51
q23 28 43 28q14 0 14 -13q0 -3 -18 -18l-23 -19q-40 -48 -71 -65q-36 -19 -95 -19q-77 0 -133 28q-15 8 -112 75q-19 14 -53 23l-54 15q-15 6 -15 16t6 16q58 55 77 102q10 37 36 134q38 137 99 202q75 79 205 79q68 0 117 -25q61 -31 61 -93q0 -38 -21.5 -62t-59.5 -24z
" />
    <glyph glyph-name="M" unicode="M" horiz-adv-x="949" 
d="M996 645q-40 0 -30 -1q-122 -52 -188 -145q-68 -97 -68 -227q0 -22 8 -88q4 -35 28 -91q28 -66 55 -66q15 0 44 22q35 26 46 30q8 -6 8 -14q0 -15 -45.5 -39.5t-64.5 -24.5q-22 0 -52 51q-23 39 -32 72q-22 79 -22 145q0 104 48.5 198.5t134.5 149.5q-39 42 -112 42
q-41 0 -92 -21q-59 -24 -69 -57q-35 -111 -75 -287l-66 -290h-25q50 202 147 607q1 7 1 13q0 33 -51 33q-34 0 -118 -26q-94 -29 -94 -52q0 -3 13 -50q11 -39 15 -57q13 -57 13 -107q0 -220 -113 -315q-63 -53 -131 -53q-110 0 -110 84q0 37 24 59t62 22q18 0 45 -15.5
t27 -31.5q0 -15 -8 -15q-1 1 -2 1q-34 36 -65 36q-23 0 -41.5 -18.5t-18.5 -41.5q0 -54 76 -54q123 0 183 122q46 93 46 231q0 110 -45 207q-30 64 -47 64q-22 0 -46 -32t-38 -32q-13 0 -13 10q0 17 36.5 48.5t54.5 31.5q31 0 46 -25q9 -16 26 -48q121 84 243 84
q49 0 61 -52q78 51 151 51q32 0 87 -21l53 -22q3 0 43.5 17t63.5 17q10 0 17 -3q16 2 16 -11q0 -14 -15 -16q10 1 -25 1z" />
    <glyph glyph-name="N" unicode="N" horiz-adv-x="771" 
d="M799 644q-16 -1 -23 -3q-246 -107 -246 -369q0 -14 9 -88q5 -38 27 -90q28 -66 55 -66q13 0 35 15q19 15 55 36q9 -5 9 -14q0 -16 -46 -40.5t-65 -24.5q-22 0 -52 51q-22 38 -32 73q-23 81 -23 145q0 227 174 338q-20 21 -77 38q-51 15 -86 15q-96 0 -199 -79l1 2h-2
q40 -152 40 -218q0 -103 -31 -198q-22 -69 -81 -118q-62 -53 -132 -53q-110 0 -110 85q0 37 24 59t62 22q19 0 46 -15t27 -32q0 -14 -7 -14l-23 18q-24 18 -46 18q-23 0 -41.5 -18.5t-18.5 -41.5q0 -53 76 -53q121 0 182 122q47 94 47 230q0 109 -45 206q-30 65 -47 65
q-18 0 -33 -15q-4 -5 -21 -29q-15 -20 -30 -20q-14 0 -14 10q0 17 37 48.5t55 31.5q30 0 47 -22q14 -23 27 -46q35 33 95 56t109 23q91 0 199 -54q13 2 53 24q37 20 64 20q10 0 18 -3q16 2 16 -11q0 -12 -58 -16z" />
    <glyph glyph-name="O" unicode="O" horiz-adv-x="795" 
d="M343 -13q-145 1 -239 89q-97 91 -97 235q0 152 125 259q120 103 274 103q13 0 39.5 -6t39.5 -6q8 0 23 6.5t23 5.5q107 -6 162 -102q44 -76 44 -180q0 -163 -116 -284t-278 -120zM539 647q-20 0 -28 -17q-1 -12 6 -23t19 -11q4 0 12 1.5t12 1.5h10v-15q-4 -12 -29 -12
q-49 0 -59 62q-46 13 -74 13q-145 0 -256 -95q-116 -99 -116 -242q0 -134 91 -217q88 -80 224 -80q145 0 252 114t107 260q0 92 -40 168q-48 92 -131 92z" />
    <glyph glyph-name="P" unicode="P" horiz-adv-x="670" 
d="M517 341q-68 0 -107 42q-5 3 -5 10q0 19 13 19q3 -1 13 -11q36 -34 83 -34q51 0 90 45q36 43 36 95q0 80 -78 120q-62 31 -150 31q-111 0 -204 -56q-108 -65 -108 -169q0 -79 68 -115q9 -3 9 -10q0 -14 -15 -14q-11 0 -32 18q-37 30 -43 51q-17 56 -17 66q0 116 115 187
q97 60 223 63q105 3 172 -33q86 -45 86 -142q0 -61 -43 -111q-46 -52 -106 -52zM506 579q-30 -8 -75 -25q-56 -30 -89 -98q-28 -58 -41 -134q-7 -45 -20 -135q-13 -81 -53 -135q-49 -63 -125 -63q-62 0 -91 24q-32 26 -32 86q0 31 26.5 53t57.5 22q22 0 43.5 -11t25.5 -30
l-14 -13q-5 2 -21 17q-11 10 -34 10q-27 0 -43 -17.5t-16 -44.5q0 -33 28 -55q25 -20 59 -20q87 0 130 87q27 54 42 163q4 30 16 105q16 85 65 147q61 77 166 92l8 -9q0 -13 -13 -16z" />
    <glyph glyph-name="Q" unicode="Q" horiz-adv-x="791" 
d="M636 -37q-1 -39 -34.5 -63t-73.5 -24q-51 0 -81 34q-29 31 -33 84q-36 -7 -71 -7q-145 1 -239 89q-97 91 -97 235q0 152 125 259q120 103 274 103q13 0 39.5 -6t39.5 -6q8 0 23 6.5t23 5.5q107 -6 162 -102q44 -76 44 -180q0 -135 -84 -246t-214 -145q1 -27 3 -35
q7 -28 34 -48.5t56 -20.5q27 0 53 19.5t26 45.5q0 29 -23 40q-2 2 -2 5q0 16 12 16q13 0 26 -22.5t12 -36.5zM710 387q0 92 -40 168q-48 92 -131 92q-20 0 -28 -17q-1 -12 6 -23t19 -11q4 0 12 1.5t12 1.5h10v-15q-4 -12 -29 -12q-49 0 -59 62q-46 13 -74 13
q-145 0 -256 -95q-116 -99 -116 -242q0 -134 91 -217q88 -80 224 -80q32 0 63 7q1 50 4 68l-14 -5q-42 -15 -69 -15q-21 0 -21 7q0 4 5 10q29 3 74 15q5 1 20.5 14t20.5 13q11 0 16 -7q-12 -57 -12 -94q116 33 194 136.5t78 224.5z" />
    <glyph glyph-name="R" unicode="R" horiz-adv-x="731" 
d="M523 340q5 0 -30 2q11 -14 26 -44q10 -32 13 -71q1 -24 5 -73l7 -81q12 -57 44 -57q10 0 31 13.5t26 22.5l11 1l9 -8q-43 -51 -81 -51q-69 0 -74 132v52q0 119 -45 165q-17 3 -38 15q-25 14 -25 27t9 14q13 -8 49 -28q16 -9 63 -9q52 0 93.5 46.5t41.5 98.5q0 80 -79 120
q-62 32 -150 32q-111 0 -204 -56q-109 -65 -109 -170q0 -77 68 -115q9 -5 9 -10q0 -13 -14 -13q-3 0 -7 1q-39 15 -62 53t-23 81q0 119 115 191q100 63 226 63q101 0 170 -39q84 -47 84 -141q0 -60 -49.5 -112t-109.5 -52zM523 580q-26 -6 -76 -25q-78 -43 -112 -157
q-12 -41 -21 -103q-6 -53 -13 -105q-12 -78 -60 -138q-54 -67 -128 -67q-62 0 -88.5 26t-26.5 88q0 30 26.5 52t56.5 22q20 0 42 -10.5t26 -28.5l-13 -13q-5 2 -20 16q-12 11 -35 11q-27 0 -43.5 -18t-16.5 -45q0 -33 27 -54.5t61 -21.5q88 0 131 87q26 53 42 164
q4 30 16 105q16 84 65 146q61 77 165 92l7 -8q0 -11 -12 -15z" />
    <glyph glyph-name="S" unicode="S" horiz-adv-x="484" 
d="M464 588q-36 43 -75 59q-26 10 -44 10q-42 0 -72 -28.5t-30 -70.5q0 -47 56 -101q69 -67 88 -95q37 -56 37 -125q0 -97 -69.5 -172.5t-166.5 -75.5q-75 0 -125 36q-57 41 -57 113q0 47 36 83.5t82 36.5q32 0 57 -19t25 -50h-16q-11 26 -24.5 34.5t-41.5 8.5
q-39 0 -65.5 -27.5t-26.5 -66.5q0 -58 50 -93q45 -32 105 -32q89 0 150 72q59 68 59 158q0 54 -27 98q-17 28 -59 69q-46 45 -62 68q-29 41 -29 85q0 51 38.5 84.5t90.5 33.5q26 0 79 -29q-22 22 -22 37q0 5 4.5 6.5t8.5 3.5q19 -34 62 -101z" />
    <glyph glyph-name="T" unicode="T" horiz-adv-x="520" 
d="M666 648q0 -15 -43 -32q-37 -15 -51 -15q-37 0 -116.5 27.5t-120.5 27.5q-84 0 -153.5 -67.5t-69.5 -151.5q0 -47 24 -84q27 -43 72 -43q17 0 20 -2v-18q-6 -5 -18 -5q-58 0 -95 60q-30 50 -27 93q4 54 9 65q5 40 44 82q33 37 73 59q66 36 115 36q47 0 135 -28
q83 -27 111 -24t37 6q18 6 44 26q10 -3 10 -12zM521 569q-33 -9 -62 -45q-25 -31 -38 -69q-15 -45 -28 -139q-14 -105 -31 -170q-39 -150 -216 -158q-58 -2 -101 29q-47 34 -47 91q0 32 23 57t55 25q45 0 72 -42v-13q-3 -1 -10 -5q-40 34 -59 34q-55 0 -55 -65q0 -42 45 -69
q36 -22 73 -22q74 0 128.5 42t67.5 106q13 82 42 245q31 149 125 186q19 -10 16 -18z" />
    <glyph glyph-name="U" unicode="U" horiz-adv-x="662" 
d="M644 659q-18 -87 -110 -465l-36 -148q0 -10 8 -20.5t18 -10.5q12 0 43 23q14 11 43 32l11 -8q-10 -19 -45.5 -43.5t-55.5 -24.5q-18 0 -31 12.5t-13 30.5q0 8 16 86q-37 -53 -145 -93q-97 -36 -172 -36q-109 0 -109 75q0 31 25 115q16 53 58 192q43 146 43 200
q0 37 -27 60t-65 23q-34 0 -55 -20t-21 -53q0 -50 64 -58v-12q-6 -4 -18 -4q-30 0 -48.5 22.5t-18.5 53.5q0 40 25 68t64 28q57 0 91 -31t34 -87q0 -67 -36 -184l-57 -184q-5 -16 -19 -65q-13 -45 -13 -58q0 -56 81 -56q64 0 159 32q105 35 135 78q39 55 79 224l73 306h25z
" />
    <glyph glyph-name="V" unicode="V" horiz-adv-x="742" 
d="M203 -17q-35 2 -59 25.5t-19 57.5q10 66 134 547q-92 45 -134 45q-60 0 -90 -38q-5 -6 -9 -18l-21 9q8 31 44 53t70 22q54 0 116 -29q36 -17 108 -52l-8 -24l-48 25l-131 -542q0 -52 54 -52q103 0 219 79q100 68 169 165q78 109 81 208q3 82 -10 122q-22 69 -88 68
q-36 0 -61 -20.5t-25 -55.5q0 -60 56 -60q3 0 9.5 2t8.5 2q9 -9 9 -19q-17 -9 -36 -9q-32 0 -54 25.5t-22 58.5q0 46 36 75.5t83 26.5q123 -7 123 -174q0 -41 -6 -88q-14 -111 -109 -221q-73 -84 -176 -146q-120 -72 -214 -68z" />
    <glyph glyph-name="W" unicode="W" horiz-adv-x="747" 
d="M718 496q-3 -110 -63 -231t-145 -194q-98 -84 -202 -82q-16 5 -44 14q-16 13 -15 37q0 7 2.5 21t2.5 22q-45 -43 -66 -58q-40 -29 -81 -28q-27 0 -38.5 9.5t-16.5 35.5l135 543q7 29 -16 51t-52 22q-34 0 -56 -15q-24 -18 -24 -50q-1 -54 57 -56q-6 -28 -15 -26
q-66 14 -65 88q2 81 109 86q33 2 63 -29t30 -64q0 -9 -2 -17l-137 -526q4 -12 7 -24q4 -8 20 -8q29 -1 54 15q104 65 134 215q15 73 54 218q18 66 59 203q24 0 26 -3l-87 -324q-75 -280 -75 -298q0 -29 46 -30q47 -1 90 20q112 54 198 197q85 140 87 267q3 154 -87 156
q-67 1 -68 -51q-1 -31 24 -42q18 -8 53 -6v-19q-10 -5 -25 -5q-30 1 -54 20q-27 20 -25 49q4 80 95 78q61 -1 91 -64q24 -50 22 -117z" />
    <glyph glyph-name="X" unicode="X" horiz-adv-x="795" 
d="M926 682q-5 -19 -18 -19q-4 0 -10.5 2t-10.5 2q-41 0 -109 -22q-118 -38 -193 -144q-114 -160 -114 -184q0 -36 95 -171t124 -135q13 6 78 44l8 -10v-7q-15 -15 -45 -31q-33 -19 -49 -19q-38 0 -129 131q-84 121 -100 174q-233 -305 -417 -305h-32l-4 24q44 1 90 10
q78 14 177 102q31 27 96 97q76 81 76 96q0 35 -25 85q-31 62 -36 83q-20 81 -39 117q-35 64 -95 64q-31 0 -50.5 -18t-19.5 -48q0 -55 77 -64v-18q-4 -6 -16 -6q-30 0 -59.5 28.5t-29.5 57.5q0 37 30 67t67 30q113 0 149 -163q7 -31 61 -183q15 13 32 46q51 99 122 171
q85 84 178 106q9 2 50 14q31 9 48 9q21 0 43 -13z" />
    <glyph glyph-name="Y" unicode="Y" horiz-adv-x="516" 
d="M790 682q-1 -12 -41 -28l-52 -18q-74 -34 -149 -110t-101 -150q-16 -51 -47 -153q-26 -83 -72 -142q-15 -19 -70 -61q-47 -36 -133 -36q-124 0 -124 100q0 32 22.5 56.5t54.5 21.5q49 -5 70 -37l-5 -15h-18q-4 0 -16.5 13t-19.5 14.5t-14 1.5q-21 0 -35 -19.5t-14 -41.5
q0 -70 107 -70q116 0 194 121q69 107 69 229q0 118 -58 204q-15 23 -51 57q-42 40 -58 40q-4 0 -40 -32q-41 -36 -47 -40l-15 17q85 87 96 87q20 0 72 -46q45 -42 62 -67q38 -57 46 -97q6 -33 18 -100q5 4 22 41q41 88 139 169q102 83 194 100z" />
    <glyph glyph-name="Z" unicode="Z" horiz-adv-x="556" 
d="M373 396q1 -4 18 -4q49 0 81 21q13 -2 13 -14q0 -6 -7 -9q-31 -23 -71 -23q2 0 -3 0q-6 -1 -16 -1q-11 0 -23 2q-56 -97 -136 -185q-87 -94 -176 -146q49 7 53 4q107 -32 172 -32q67 0 124 24q47 20 108 67q6 8 13 8q10 0 10 -12q0 -8 -6 -12q-137 -99 -249 -99
q-62 0 -174 25q-22 5 -44 5q-10 0 -30.5 -4.5t-30.5 -4.5q-15 -4 -15 8t19 21q80 36 185 144q95 98 148 186q-7 1 -14 1q-36 0 -74 -31q-2 -3 -5 -3q-8 0 -8 10q0 4 3 8q25 35 95 39q7 0 15 3q70 152 151 242q-40 -14 -55 -14q-47 0 -128 29q-87 31 -127 34q-33 3 -69 -17
q-41 -22 -41 -62q0 -25 18 -47t42 -22q19 0 37 14l30 26q13 -10 13 -14q0 -20 -37 -37q-30 -14 -40 -14q-35 0 -60.5 29.5t-25.5 64.5q0 52 44 80q38 25 92 22q37 -2 129 -32q88 -29 135 -29q15 0 43.5 10.5t35.5 21.5l17 -4v-13q-47 -34 -101 -122q-24 -40 -78 -142z" />
    <glyph glyph-name="bracketleft" unicode="[" horiz-adv-x="244" 
d="M176 696l-181 -753h94v-23h-123l192 799h108v-23h-90z" />
    <glyph glyph-name="backslash" unicode="\" horiz-adv-x="470" 
d="M444 -24l20 12l-451 720l-20 -12z" />
    <glyph glyph-name="bracketright" unicode="]" horiz-adv-x="280" 
d="M87 -57l180 753h-93v23h122l-191 -799h-109v23h91z" />
    <glyph glyph-name="asciicircum" unicode="^" horiz-adv-x="728" 
d="M557 802l-217 -69l-9 22l226 73l145 -73l-12 -27z" />
    <glyph glyph-name="underscore" unicode="_" horiz-adv-x="454" 
d="M-49 -79h503v-23h-503v23z" />
    <glyph glyph-name="grave" unicode="`" horiz-adv-x="610" 
d="M460 545l-186 73l-9 -22l186 -73z" />
    <glyph glyph-name="a" unicode="a" horiz-adv-x="597" 
d="M473 -9q-36 0 -42 42l10 42q-36 -41 -86 -67q-54 -26 -106 -26q-109 0 -177 61q-71 64 -69 172q2 109 74 182.5t180 73.5q77 0 147.5 -51t87.5 -125q20 84 46 176l22 -7l-106 -431q2 -20 19 -20q20 0 47.5 20.5t35.5 39.5l16 -16q-12 -24 -43 -45t-56 -21zM257 445
q-95 2 -160.5 -63t-67.5 -161q-2 -99 58.5 -157t160.5 -58q94 0 160 69t66 163q0 85 -65.5 145t-151.5 62z" />
    <glyph glyph-name="b" unicode="b" horiz-adv-x="513" 
d="M476 301q-5 -100 -101 -198q-92 -93 -193 -115q-15 -3 -43 -2q-45 2 -35 2q-41 0 -69 17q-33 21 -33 60q0 35 15 97l100 413q11 44 48.5 77.5t81.5 30.5q34 -3 60 -22q29 -23 29 -55q0 -6 -1 -11q-13 -38 -26 -51t-49 -22l1 20q47 12 47 62q0 55 -66 55q-73 0 -109 -115
q-18 -82 -37 -164q31 46 89 71q53 22 113 22q75 -1 127 -48q55 -50 51 -124zM452 301q2 65 -50 107q-48 40 -114 40q-116 0 -192 -101q-17 -22 -20 -47q-4 -29 -17 -76q-16 -57 -20 -76q-11 -54 -11 -63q0 -64 66 -74q48 -8 88 2q94 22 178 106q90 90 92 182z" />
    <glyph glyph-name="c" unicode="c" horiz-adv-x="453" 
d="M425 379q0 -31 -22.5 -57.5t-52.5 -26.5q-52 0 -70 53l14 9q2 -1 20 -24q12 -16 35 -16t39.5 17.5t16.5 40.5q0 46 -44 68q-33 17 -84 17q-106 0 -180 -73t-74 -179q0 -89 55 -143t144 -54q86 0 154 78l21 -12q-63 -87 -182 -87q-98 0 -157 58t-59 156q0 125 74 198
q80 78 207 78q145 0 145 -101z" />
    <glyph glyph-name="d" unicode="d" horiz-adv-x="589" 
d="M586 698l-139 -650q0 -29 29 -29q23 0 65 45l17 -5q-12 -19 -35 -38q-26 -21 -44 -23q-22 -2 -39 12.5t-17 36.5q0 13 6 27q-47 -47 -86 -63.5t-103 -15.5q-105 2 -169.5 65t-64.5 167q0 43 12 79q29 86 109 129q66 35 146 33q151 -4 209 -155l82 388q19 0 22 -3z
M464 254q0 82 -56 134q-62 56 -138 56q-71 0 -128 -30q-113 -60 -113 -186q0 -63 31 -114q33 -56 90 -76q62 -22 100 -22q77 0 140 53q46 40 63 104q11 40 11 81z" />
    <glyph glyph-name="e" unicode="e" horiz-adv-x="525" 
d="M34 174q19 -76 83 -123t143 -47q52 0 111 25t94 62q6 6 7 10h23q0 -17 -33 -44q-92 -76 -202 -76q-101 0 -176 65.5t-81 165.5q-6 96 68 177q83 91 214 91q82 0 141 -39q65 -43 78 -120q-122 -45 -470 -147zM282 456q-100 2 -177 -65.5t-77 -165.5q0 -14 2 -28l223 65
q134 39 220 71q-14 58 -74 92q-53 30 -117 31z" />
    <glyph glyph-name="f" unicode="f" horiz-adv-x="274" 
d="M385 605q0 -31 -23 -57.5t-53 -26.5q-7 0 -32 9v10q0 9 10 9q4 0 11 -2t11 -2q52 0 52 60q0 57 -76 57q-71 0 -104 -71q-23 -49 -32 -127q49 -12 66 -12t27 16l10 1q7 0 7 -9q0 -11 -17 -21.5t-29 -10.5q-21 0 -75 6q-3 -20 -11 -68l-16 -77q-29 -141 -52 -214
q-35 -112 -88 -194q-7 -7 -16 -7q-14 0 -14 11q0 7 8 11q45 90 65 138q30 71 60 195q27 114 39 201l-10 -4q-5 -1 -13.5 -11t-16.5 -10q-7 10 -7 12q0 31 53 43q14 101 43 151q43 75 129 75q39 0 65 -20q29 -23 29 -61z" />
    <glyph glyph-name="g" unicode="g" horiz-adv-x="565" 
d="M589 463q-19 -18 -51 -61q-17 -36 -28 -91l-19 -94q-9 -46 -28 -139q-17 -79 -44 -134q-44 -90 -205 -90q-51 0 -117 16q-76 18 -106 46q-3 11 -3 13q0 3 13 9q18 -21 85 -41q62 -19 96 -19h37q103 0 149 42q43 39 66 142v21q-70 -88 -196 -88q-87 0 -159 58
q-75 61 -78 147q-1 45 1.5 62.5t17.5 57.5q31 80 110 122q69 36 162 36q15 0 52 -10t51 -17q69 -37 94 -125l24 82q17 38 63 65zM473 266q0 80 -52 134q-58 58 -133 58q-106 0 -183.5 -63.5t-77.5 -172.5q0 -92 64 -147.5t157 -55.5q99 0 164 75q61 71 61 172z" />
    <glyph glyph-name="h" unicode="h" horiz-adv-x="468" 
d="M429 47q0 -16 -30 -33t-48 -17q-30 0 -38 10q-6 6 -6 30q0 60 41.5 183t41.5 182q0 46 -71 46q-46 0 -111 -25q-69 -27 -93 -60q-9 -12 -91 -362h-19v16q0 3 36 148l103 415q9 38 44.5 71t72.5 33q38 0 62 -18q27 -21 27 -57q0 -64 -69 -86l-13 9q1 3 35 27q26 18 26 51
q0 51 -62 51q-82 0 -107 -105q-10 -45 -39 -162q24 29 93 52q64 22 107 22q36 0 60 -15q29 -18 29 -51q0 -20 -37 -172l-46 -187q-2 -5 -2 -9q0 -18 27 -18q32 0 70 42q7 -4 7 -11z" />
    <glyph glyph-name="i" unicode="i" horiz-adv-x="226" 
d="M150 532q17 33 58 93l22 -17q-5 -5 -64 -87zM40 430q20 14 40 29q24 15 45 15q20 0 34 -16.5t9 -36.5l-88 -377q-2 -9 8.5 -18.5t20.5 -9.5q7 0 29 13.5t28 20.5l12 -15q-8 -8 -32 -21.5t-34 -15.5q-23 -4 -41.5 12.5t-13.5 38.5l88 375q3 30 -20 30q-18 0 -37 -14
l-38 -27z" />
    <glyph glyph-name="j" unicode="j" horiz-adv-x="217" 
d="M198 440q0 -32 -60.5 -252.5t-79.5 -264.5q-42 -95 -128 -95q-76 0 -78 69q-2 68 71 68q20 0 39 -12q2 -19 -10 -19q-5 0 -16.5 6t-16.5 6q-19 0 -33 -14t-14 -33q0 -51 60 -51q57 0 99 72q31 54 56 151q15 66 30 131q55 211 55 229q0 20 -22 20q-14 0 -39 -17l-36 -26
l-11 15q13 19 40 34t49 15q45 0 45 -32zM170 532q17 33 58 93l22 -17q-5 -5 -64 -87z" />
    <glyph glyph-name="k" unicode="k" horiz-adv-x="461" 
d="M444 390q0 -28 -23 -50t-51 -22q-39 0 -48 6l-2 15q1 11 13 8q22 -6 34 -6q20 0 36 15.5t16 36.5q0 51 -78 46q-45 -3 -88 -42q-19 -17 -82 -94q73 -68 86 -124q9 -40 36 -142q4 -10 23 -10q18 0 30 13q27 29 34 29q14 0 14 -13q0 -7 -8 -12q-34 -32 -45 -37
q-7 -4 -29 -4q-21 0 -27 3q-16 7 -22 34q-11 46 -32 137q-20 59 -78 109q-14 -13 -64 -31q-6 -24 -60 -251h-26q22 86 77 308q38 157 91 360q8 2 14 2t10 -2l-97 -389q3 -2 8 1q9 4 13 5q13 2 49 48q43 56 74 83q52 45 107 48q41 2 68 -18t27 -60z" />
    <glyph glyph-name="l" unicode="l" horiz-adv-x="239" 
d="M289 520l-35 -11l-7 22l38 12q16 7 30.5 28t14.5 40q0 25 -18 40t-44 15q-98 0 -141 -185q-29 -112 -57 -224q-44 -172 -44 -202q0 -17 13 -28.5t30 -11.5q26 0 53 16.5t43 38.5l13 -25q-17 -19 -51 -36t-58 -17q-27 0 -48 15t-21 41q0 49 44 212q30 113 61 227
q21 91 47 134q43 72 116 68q37 -2 61 -24.5t24 -58.5q0 -66 -64 -86z" />
    <glyph glyph-name="m" unicode="m" horiz-adv-x="727" 
d="M615 -2q-61 7 -54 63l85 337q-2 52 -54 52q-64 0 -124.5 -43.5t-66.5 -92.5q-33 -122 -78 -313q-25 -4 -25 0l95 398q-5 49 -60 49q-69 0 -124 -52q-50 -47 -58 -82q-19 -80 -74 -309l-27 -4l98 412q0 4 2.5 12.5t2.5 12.5q0 7 -7 7q-16 0 -42 -18q-20 -14 -39 -29
q-11 5 -11 15q0 13 38.5 37t53.5 24q43 0 40 -26q-1 -7 -7 -26t-6 -28q0 -4 1 -7q17 37 67 63q46 24 89 24q45 0 63 -15t29 -60q22 36 78 58q50 19 98 19q31 0 53 -24t22 -55q0 -10 -3 -21l-86 -326q-3 -10 8.5 -19t21.5 -9q18 0 50 35q3 2 6 2q9 0 10 -17q-40 -47 -65 -44z
" />
    <glyph glyph-name="n" unicode="n" horiz-adv-x="521" 
d="M443 398l-85 -337q-7 -56 54 -63q25 -3 65 44q-1 17 -10 17q-3 0 -6 -2q-32 -35 -50 -35q-10 0 -21.5 9t-8.5 19q3 12 86 326q4 15 4 25q0 74 -105 74q-57 0 -109 -19q-64 -23 -85 -66q5 17 12 55q2 22 -13 27q-4 2 -25 2q-15 0 -53.5 -24t-38.5 -37q0 -10 11 -15
q19 15 39 29q26 18 42 18q7 0 7 -7q0 -4 -2.5 -12.5t-2.5 -12.5l-98 -412h23l81 320q8 32 55 74q60 54 147 54h16q11 -1 16 -1q53 -1 55 -50z" />
    <glyph glyph-name="o" unicode="o" horiz-adv-x="545" 
d="M237 -8q-107 0 -171 59.5t-64 165.5q0 108 78.5 181.5t187.5 73.5q8 0 32 -10q20 -9 31 -3q16 10 24 10h16q56 0 93 -67q32 -58 32 -119q0 -108 -75 -197q-78 -94 -184 -94zM446 384q-32 62 -80 62q-17 0 -26 -20q9 -18 21 -24q1 -1 22 -9l-13 -13l-19 5q-36 11 -35 56
q-42 10 -58 8q-95 -6 -162.5 -73t-67.5 -161q0 -93 56 -146t150 -53q100 0 171 83q68 79 68 181q0 54 -27 104z" />
    <glyph glyph-name="p" unicode="p" horiz-adv-x="573" 
d="M372 12q-41 -14 -90 -14q-85 0 -145 59q-2 3 -2 6q0 7 9 11q10 3 14 0l36 -28q38 -24 98 -24q53 0 84 12q42 17 81 66q56 70 56 175q0 71 -46 120q-52 56 -128 56q-59 0 -101 -21q-69 -35 -93 -127q-11 -47 -40 -167l-63 -256q0 -8 -15 -8q-12 0 -9 12l128 540
q3 8 -3 17.5t-14 9.5q-27 0 -73 -56q-2 -2 -5 -2q-13 0 -13 12q0 3 2 6q48 63 95 63q37 0 37 -43q0 -12 -3 -24q60 64 164 67q89 2 146 -55t57 -148q0 -87 -44 -160.5t-120 -98.5z" />
    <glyph glyph-name="q" unicode="q" horiz-adv-x="597" 
d="M562 395q-40 -106 -79 -273l-62 -278h-22q14 43 29 115q21 102 26 125q-35 -44 -88 -71t-102 -27q-110 0 -178.5 63.5t-68.5 172.5q0 113 88 184q82 68 198 68q76 0 134 -42q62 -44 78 -122q5 19 15 54q23 83 72 107l15 -14q-38 -16 -55 -62zM303 452q-110 0 -185 -66
q-79 -69 -79 -177q0 -87 65 -144q62 -55 150 -55q114 0 178 78q58 70 60 177q2 85 -50.5 136t-138.5 51z" />
    <glyph glyph-name="r" unicode="r" horiz-adv-x="371" 
d="M337 347l-27 -1q0 8 4 24t4 24q0 21 -20.5 36t-42.5 15q-51 0 -76 -37q-18 -26 -29 -84q-13 -65 -40 -162l-45 -161l-18 -7q-2 4 -5 13l105 410q2 -5 2 14q0 3 -15 6q-16 0 -49 -24l-20 -10q-11 -5 -11 12q0 14 37 34q34 19 51 19q19 0 25 -7q5 -13 10 -25q47 32 77 32
q41 0 67 -21.5t26 -61.5q0 -10 -10 -38z" />
    <glyph glyph-name="s" unicode="s" horiz-adv-x="387" 
d="M325 458q-15 28 -24 49l20 10q25 -59 51 -102l-21 -17q-6 6 -31 32q-20 21 -38 21q-22 0 -37.5 -16.5t-15.5 -38.5q0 -27 47 -104.5t47 -116.5q0 -196 -180 -196q-64 0 -108.5 41t-44.5 104q0 56 33.5 91t88.5 33q38 -2 82 -49l-17 -16q-36 40 -71 40q-42 0 -67.5 -28
t-25.5 -71q0 -54 37 -87.5t92 -33.5q156 0 156 167q0 34 -30 87l-48 84q-14 31 -14 55q0 31 22.5 54.5t53.5 23.5q27 0 42 -15z" />
    <glyph glyph-name="t" unicode="t" horiz-adv-x="213" 
d="M152 462q51 0 64 17q6 -7 11 -21q-22 -21 -83 -21q-90 -347 -90 -392q0 -24 32 -24q17 0 69 26l12 -16q-11 -11 -41.5 -23t-46.5 -12q-51 0 -51 47q0 7 2 16l85 377l-1 1q-1 1 -2 1q-14 0 -34 -8t-28 -19l-10 21q25 27 83 30q16 67 54 210q1 0 23 4z" />
    <glyph glyph-name="u" unicode="u" horiz-adv-x="509" 
d="M74 71l85 337q7 56 -55 63q-24 3 -64 -44q1 -17 10 -17q3 0 6 2q32 35 50 35q9 0 21 -9t9 -18q-9 -35 -86 -326q-4 -15 -4 -26q0 -73 105 -73q57 0 109 18q64 23 85 66q-5 -17 -12 -54q-2 -23 13 -28q3 -1 25 -1q15 0 53.5 23.5t38.5 36.5q0 10 -11 16q-12 -10 -37 -28.5
t-44 -18.5q-8 0 -8 6q0 4 3 12.5t3 12.5l98 412h-29l-75 -308q-11 -46 -55 -86q-59 -54 -147 -54q-16 0 -32 2q-53 0 -55 49z" />
    <glyph glyph-name="v" unicode="v" horiz-adv-x="553" 
d="M505 345q-3 -124 -128 -241q-121 -113 -232 -115q-36 -1 -51 10q-18 12 -21 48l85 365v26q-5 6 -18 6q-17 0 -52 -35l-21 -15q-16 12 -16 15q0 21 48 45q40 20 52 20q35 0 38 -41l-89 -390q9 -25 21 -29q2 -2 26 0q111 7 221.5 116t110.5 219q0 94 -82 98
q-33 1 -54.5 -20.5t-21.5 -55.5q0 -53 40 -53q10 0 16 3v-26h-21q-32 0 -49 33q-12 23 -12 43q0 46 32 72q29 25 76 27q48 2 77 -39q26 -37 25 -86z" />
    <glyph glyph-name="w" unicode="w" horiz-adv-x="699" 
d="M388 15q-45 -19 -74 -19q-60 0 -60 43q0 16 6 39l-46 -40q-57 -50 -101 -50q-11 0 -33 11q-13 8 -25 38l89 386q5 21 -23 21q-8 0 -66 -40l-13 17q49 38 92 52q14 0 26 -9t12 -22q0 -4 -2 -13l-86 -384q1 -11 11.5 -19.5t22.5 -8.5q26 0 88 47t69 72q32 120 93 329h25
l-113 -405q0 -38 30 -38q78 0 175 81q89 74 124 152q24 52 28 103q9 98 -81 98q-31 0 -54 -17.5t-23 -47.5q0 -23 8 -33q12 -14 50 -25q2 -6 2 -10q0 -9 -12 -9q-25 0 -49.5 23t-24.5 48q0 43 30 69.5t73 26.5q109 0 109 -116q0 -105 -90 -211q-81 -94 -187 -139z" />
    <glyph glyph-name="x" unicode="x" horiz-adv-x="601" 
d="M622 472q-2 -14 -13 -12q-11 -1 -35 -3q0 -3 -42 -11q-23 -7 -52 -25q-40 -25 -158 -186h1l-1 -1l1 -2l3 -7q87 -203 136 -201q26 1 81 51l12 -17q-26 -30 -47 -42.5t-58 -17.5q-64 0 -144 205q-79 -96 -133 -140q-88 -72 -170 -72h-18q-7 -2 -10 5q-2 3 -2 6q0 5 2 8.5
t39 6.5q98 8 220 149q16 19 58 67l-21 59q-14 39 -32 87q-24 49 -62 69q-13 7 -31 7q-30 0 -52 -20.5t-22 -50.5q0 -25 15.5 -41.5t39.5 -13.5l14 -5l-3 -17q-5 -4 -13 -4h-5q-35 0 -55 26t-20 62q0 38 31 62.5t70 24.5q56 0 93 -48q24 -32 48 -99q7 -19 24 -69q3 2 14 20
q62 99 117 144q73 59 170 59q11 0 10 -13z" />
    <glyph glyph-name="y" unicode="y" horiz-adv-x="553" 
d="M588 472q-3 -13 -11 -12q-142 -25 -237 -261q-11 -30 -41 -106q-12 -29 -38 -83q-44 -91 -76 -131q-56 -68 -125 -68q-45 0 -79 21q-39 25 -39 68q0 37 27 62t64 25q20 0 56 -23l-17 -21q-22 20 -44 20q-25 0 -43.5 -16.5t-18.5 -41.5q0 -31 28 -51.5t60 -20.5
q27 0 58 14q48 22 111 137q62 112 62 169q0 91 -31 162q-20 46 -69 111q-25 33 -38 33q-5 0 -63 -59q-20 -20 -23 -20q-14 0 -14 14q1 3 8 12q2 3 10 12.5t20.5 18t16.5 11.5q16 21 42 43q32 1 86 -79q46 -68 56 -105q18 -68 24 -119q104 273 267 299q14 -2 11 -15z" />
    <glyph glyph-name="z" unicode="z" horiz-adv-x="509" 
d="M447 366q-48 -60 -181 -150q-120 -81 -198 -166q35 5 49 5q33 0 96.5 -16t96.5 -16q56 0 90 39q31 35 37 92q1 10 -6 28.5t-7 26.5l20 2q15 -26 15 -59q0 -63 -42 -109t-104 -46q-27 0 -161 31q-26 6 -45 6q-34 0 -76 -32q-7 -5 -10 -5q-8 0 -8 11q0 24 71 93
q62 60 97 84q52 34 154 105q83 60 126 137q-7 -1 -25.5 -5.5t-29.5 -4.5q-30 0 -88.5 14.5t-88.5 14.5q-41 0 -68 -16q-33 -19 -33 -57q0 -21 13 -35t33 -14q7 0 41 12l4 -23q-31 -15 -45 -15q-29 0 -52 22.5t-23 51.5q0 48 45 77q39 25 90 25q29 0 85 -15.5t85 -15.5
q30 0 43 4q17 6 36 25q15 0 15 -13q0 -10 -21 -47q-19 -32 -30 -46z" />
    <glyph glyph-name="braceleft" unicode="{" horiz-adv-x="264" 
d="M146 522q0 -68 -2 -80q-6 -37 -35 -72l-47 -30l22 -34q6 -20 6 -39q0 -37 -40 -106t-40 -109q0 -23 12 -51q14 -34 36 -29q-18 16 -18 66q0 40 40 109t40 106q0 19 -6 39l-32 44l57 20q29 35 35 72q2 12 2 80q0 47 23 96q24 53 61 76q-47 0 -83 -59q-31 -51 -31 -99z" />
    <glyph glyph-name="bar" unicode="|" horiz-adv-x="292" 
d="M187 700v-744h-23v744h23z" />
    <glyph glyph-name="braceright" unicode="}" horiz-adv-x="264" 
d="M124 130q0 73 1 80q5 36 35 71l48 30l-23 35q-5 20 -5 38q0 37 40 106.5t40 109.5q0 24 -12 51q-15 33 -36 28q18 -15 18 -65q0 -41 -40 -110t-40 -106q0 -18 5 -38l32 -45l-57 -20q-30 -35 -35 -71q-1 -7 -1 -80q0 -45 -24 -97t-60 -75q46 0 82 57q32 51 32 101z" />
    <glyph glyph-name="asciitilde" unicode="~" horiz-adv-x="771" 
d="M323 755q35 52 99 58q46 4 85 -31q28 -25 74 -30q44 -5 86 52l20 -14q-46 -62 -105 -62q-50 0 -91 36q-31 27 -66 27q-48 0 -82 -49z" />
    <glyph glyph-name="Adieresis" unicode="&#xc4;" horiz-adv-x="728" 
d="M266 15q99 -3 185 42q72 38 105 101q18 33 46 137q16 57 17 104q4 116 -70.5 191.5t-190.5 79.5q-70 3 -134 -36q-78 -47 -81 -123q-3 -103 82 -106q36 -1 62.5 17.5t29.5 53.5q3 40 -37 57q-6 4 -4 10q1 7 12 6q20 0 37 -25t16 -46q-1 -43 -37.5 -70t-80.5 -25
q-25 1 -51.5 14t-37.5 33q-96 -56 -112 -172q-1 -113 65 -176t179 -67zM125 449q-8 28 -8 55q0 90 83 144q74 48 167 43q89 -4 164 -56q90 -62 103 -159q-1 -7 5 -23q6 46 20 99l27 100q2 8 12 8q11 0 9 -8l-150 -626q-5 -21 26 -22q36 -2 83 37q2 2 5 2q4 0 7.5 -4.5
t1.5 -7.5q-14 -20 -47 -36.5t-57 -15.5q-45 1 -43 45q1 16 10 45t10 43q-46 -63 -130 -95q-76 -30 -160 -27q-116 4 -189 66q-78 66 -78 179q0 69 32 127q36 64 97 87zM523 765q0 34 32 34q14 0 23 -10t9 -24q0 -35 -32 -35t-32 35zM383 765q0 34 32 34q14 0 23 -10t9 -24
q0 -35 -32 -35t-32 35z" />
    <glyph glyph-name="Aring" unicode="&#xc5;" horiz-adv-x="728" 
d="M707 652l-150 -626q-5 -21 26 -22q36 -2 83 37q2 2 5 2q4 0 7.5 -4.5t1.5 -7.5q-14 -20 -47 -36.5t-57 -15.5q-45 1 -43 45q1 16 10 45t10 43q-46 -63 -130 -95q-76 -30 -160 -27q-116 4 -189 66q-78 66 -78 179q0 69 32 127q36 64 97 87q-8 28 -8 55q0 90 83 144
q74 48 167 43q89 -4 164 -56q90 -62 103 -159q-1 -7 5 -23q6 46 20 99l27 100q2 8 12 8q11 0 9 -8zM619 399q4 116 -70.5 191.5t-190.5 79.5q-70 3 -134 -36q-78 -47 -81 -123q-3 -103 82 -106q36 -1 62.5 17.5t29.5 53.5q3 40 -37 57q-6 4 -4 10q1 7 12 6q20 0 37 -25
t16 -46q-1 -43 -37.5 -70t-80.5 -25q-25 1 -51.5 14t-37.5 33q-96 -56 -112 -172q-1 -113 65 -176t179 -67q99 -3 185 42q72 38 105 101q18 33 46 137q16 57 17 104zM419 725q-29 0 -49 16q-23 18 -23 46q0 27 22 44t50 17t50 -17t22 -44q0 -28 -21.5 -45t-50.5 -17z
M419 826q-18 0 -34 -11t-16 -28q0 -18 17 -30q14 -10 33 -10t34.5 11t15.5 29q0 17 -16 28t-34 11z" />
    <glyph glyph-name="Ccedilla" unicode="&#xc7;" horiz-adv-x="699" 
d="M316 -14l-10 -33q71 -8 71 -71q0 -33 -24.5 -52t-58.5 -19q-35 0 -77 18l9 22q38 -16 67 -16q60 0 60 47q0 24 -18.5 36t-43.5 11l-17 -1l18 59q-122 11 -192.5 90.5t-70.5 202.5q0 177 145 298q137 113 318 113q78 0 131 -24q72 -32 72 -100q0 -35 -28 -64t-63 -29
q-26 0 -51.5 20t-25.5 46q0 15 12 15q5 0 10 -6q13 -54 56 -54q25 0 44.5 24t19.5 50q0 52 -66 79q-49 20 -111 20q-168 0 -299 -106q-140 -113 -140 -277q0 -125 74.5 -201.5t198.5 -76.5q126 0 258 95q6 4 9 4q9 0 9 -9q0 -5 -5 -11q-36 -42 -126 -72q-83 -28 -145 -28
h-10z" />
    <glyph glyph-name="Eacute" unicode="&#xc9;" horiz-adv-x="585" 
d="M557 581q0 -39 -21.5 -64t-59.5 -25q-46 0 -69 33q-6 6 -6 12q0 14 13 14q6 0 34 -25q11 -10 30 -10q25 0 40 18t15 43q0 43 -32.5 68t-76.5 25q-73 0 -123 -36q-57 -40 -57 -110q0 -52 56 -76q5 -2 5 -9q0 -11 -8 -11q-3 0 -6 2q-27 9 -42 26l-28 40q-6 0 -51 -18
q-62 -25 -102.5 -88t-40.5 -131q0 -112 70 -183.5t182 -71.5q62 0 130 26t110 68q4 1 7 1q10 0 10 -18q0 -15 -60 -49q-53 -30 -78 -35q-85 -18 -121 -18q-127 0 -206.5 82t-72.5 209q5 88 62 157.5t142 90.5q8 1 21 9q5 71 39 105q61 61 157 61q57 0 95 -27q43 -30 43 -85z
M362 755l186 73l9 -22l-186 -73z" />
    <glyph glyph-name="Ntilde" unicode="&#xd1;" horiz-adv-x="771" 
d="M799 644q-16 -1 -23 -3q-246 -107 -246 -369q0 -14 9 -88q5 -38 27 -90q28 -66 55 -66q13 0 35 15q19 15 55 36q9 -5 9 -14q0 -16 -46 -40.5t-65 -24.5q-22 0 -52 51q-22 38 -32 73q-23 81 -23 145q0 227 174 338q-20 21 -77 38q-51 15 -86 15q-96 0 -199 -79l1 2h-2
q40 -152 40 -218q0 -103 -31 -198q-22 -69 -81 -118q-62 -53 -132 -53q-110 0 -110 85q0 37 24 59t62 22q19 0 46 -15t27 -32q0 -14 -7 -14l-23 18q-24 18 -46 18q-23 0 -41.5 -18.5t-18.5 -41.5q0 -53 76 -53q121 0 182 122q47 94 47 230q0 109 -45 206q-30 65 -47 65
q-18 0 -33 -15q-4 -5 -21 -29q-15 -20 -30 -20q-14 0 -14 10q0 17 37 48.5t55 31.5q30 0 47 -22q14 -23 27 -46q35 33 95 56t109 23q91 0 199 -54q14 3 55 25q35 19 62 19q10 0 18 -3q16 2 16 -11q0 -12 -58 -16zM323 755q35 52 99 58q46 4 85 -31q28 -25 74 -30
q44 -5 86 52l20 -14q-46 -62 -105 -62q-50 0 -91 36q-31 27 -66 27q-48 0 -82 -49z" />
    <glyph glyph-name="Odieresis" unicode="&#xd6;" horiz-adv-x="795" 
d="M737 391q0 -163 -116 -284t-278 -120q-145 1 -239 89q-97 91 -97 235q0 152 125 259q120 103 274 103q13 0 39.5 -6t39.5 -6q8 0 23 6.5t23 5.5q107 -6 162 -102q44 -76 44 -180zM710 387q0 92 -40 168q-48 92 -131 92q-20 0 -28 -17q-1 -12 6 -23t19 -11q4 0 12 1.5
t12 1.5h10v-15q-4 -12 -29 -12q-49 0 -59 62q-46 13 -74 13q-145 0 -256 -95q-116 -99 -116 -242q0 -134 91 -217q88 -80 224 -80q145 0 252 114t107 260zM555 733q-30 0 -30 32q0 31 30 31t30 -31q0 -32 -30 -32zM415 733q-30 0 -30 32q0 31 30 31t30 -31q0 -32 -30 -32z
" />
    <glyph glyph-name="Udieresis" unicode="&#xdc;" horiz-adv-x="662" 
d="M644 659q-18 -87 -110 -465l-36 -148q0 -10 8 -20.5t18 -10.5q12 0 43 23q14 11 43 32l11 -8q-10 -19 -45.5 -43.5t-55.5 -24.5q-18 0 -31 12.5t-13 30.5q0 8 16 86q-37 -53 -145 -93q-97 -36 -172 -36q-109 0 -109 75q0 31 25 115q16 53 58 192q43 146 43 200
q0 37 -27 60t-65 23q-34 0 -55 -20t-21 -53q0 -50 64 -58v-12q-6 -4 -18 -4q-30 0 -48.5 22.5t-18.5 53.5q0 40 25 68t64 28q57 0 91 -31t34 -87q0 -69 -36 -184l-57 -184q-9 -29 -19 -65q-13 -45 -13 -58q0 -56 81 -56q64 0 159 32q105 35 135 78q39 55 79 224l73 306h25z
M485 733q-30 0 -30 32q0 31 30 31t30 -31q0 -32 -30 -32zM345 733q-30 0 -30 32q0 31 30 31t30 -31q0 -32 -30 -32z" />
    <glyph glyph-name="aacute" unicode="&#xe1;" horiz-adv-x="610" 
d="M473 -9q-36 0 -42 42l10 42q-36 -41 -86 -67q-54 -26 -106 -26q-109 0 -177 61q-71 64 -69 172q2 109 74 182.5t180 73.5q77 0 147.5 -51t87.5 -125q20 84 46 176l22 -7l-106 -431q2 -20 19 -20q20 0 47.5 20.5t35.5 39.5l16 -16q-12 -24 -43 -45t-56 -21zM257 445
q-95 2 -160.5 -63t-67.5 -161q-2 -99 58.5 -157t160.5 -58q94 0 160 69t66 163q0 85 -65.5 145t-151.5 62zM242 545l186 73l9 -22l-186 -73z" />
    <glyph glyph-name="agrave" unicode="&#xe0;" horiz-adv-x="610" 
d="M473 -9q-36 0 -42 42l10 42q-36 -41 -86 -67q-54 -26 -106 -26q-109 0 -177 61q-71 64 -69 172q2 109 74 182.5t180 73.5q77 0 147.5 -51t87.5 -125q20 84 46 176l22 -7l-106 -431q2 -20 19 -20q20 0 47.5 20.5t35.5 39.5l16 -16q-12 -24 -43 -45t-56 -21zM257 445
q-95 2 -160.5 -63t-67.5 -161q-2 -99 58.5 -157t160.5 -58q94 0 160 69t66 163q0 85 -65.5 145t-151.5 62zM460 545l-186 73l-9 -22l186 -73z" />
    <glyph glyph-name="acircumflex" unicode="&#xe2;" horiz-adv-x="610" 
d="M473 -9q-36 0 -42 42l10 42q-36 -41 -86 -67q-54 -26 -106 -26q-109 0 -177 61q-71 64 -69 172q2 109 74 182.5t180 73.5q77 0 147.5 -51t87.5 -125q20 84 46 176l22 -7l-106 -431q2 -20 19 -20q20 0 47.5 20.5t35.5 39.5l16 -16q-12 -24 -43 -45t-56 -21zM257 445
q-95 2 -160.5 -63t-67.5 -161q-2 -99 58.5 -157t160.5 -58q94 0 160 69t66 163q0 85 -65.5 145t-151.5 62zM417 592l-217 -79l-9 22l226 83l145 -83l-12 -27z" />
    <glyph glyph-name="adieresis" unicode="&#xe4;" horiz-adv-x="610" 
d="M572 57q-12 -24 -43 -45t-56 -21q-36 0 -42 42l10 42q-36 -41 -86 -67q-54 -26 -106 -26q-109 0 -177 61q-71 64 -69 172q2 109 74 182.5t180 73.5q77 0 147.5 -51t87.5 -125q20 84 46 176l22 -7l-106 -431q2 -20 19 -20q20 0 47.5 20.5t35.5 39.5zM474 238
q0 85 -65.5 145t-151.5 62q-95 2 -160.5 -63t-67.5 -161q-2 -99 58.5 -157t160.5 -58q94 0 160 69t66 163zM425 533q-30 0 -30 32q0 31 30 31t30 -31q0 -32 -30 -32zM285 533q-30 0 -30 32q0 31 30 31t30 -31q0 -32 -30 -32z" />
    <glyph glyph-name="atilde" unicode="&#xe3;" horiz-adv-x="610" 
d="M473 -9q-36 0 -42 42l10 42q-36 -41 -86 -67q-54 -26 -106 -26q-109 0 -177 61q-71 64 -69 172q2 109 74 182.5t180 73.5q77 0 147.5 -51t87.5 -125q20 84 46 176l22 -7l-106 -431q2 -20 19 -20q20 0 47.5 20.5t35.5 39.5l16 -16q-12 -24 -43 -45t-56 -21zM257 445
q-95 2 -160.5 -63t-67.5 -161q-2 -99 58.5 -157t160.5 -58q94 0 160 69t66 163q0 85 -65.5 145t-151.5 62zM173 545q35 52 99 58q46 4 85 -31q28 -25 74 -30q44 -5 86 52l20 -14q-46 -62 -105 -62q-50 0 -91 36q-31 27 -66 27q-48 0 -82 -49z" />
    <glyph glyph-name="aring" unicode="&#xe5;" horiz-adv-x="610" 
d="M473 -9q-36 0 -42 42l10 42q-36 -41 -86 -67q-54 -26 -106 -26q-109 0 -177 61q-71 64 -69 172q2 109 74 182.5t180 73.5q77 0 147.5 -51t87.5 -125q20 84 46 176l22 -7l-106 -431q2 -20 19 -20q20 0 47.5 20.5t35.5 39.5l16 -16q-12 -24 -43 -45t-56 -21zM257 445
q-95 2 -160.5 -63t-67.5 -161q-2 -99 58.5 -157t160.5 -58q94 0 160 69t66 163q0 85 -65.5 145t-151.5 62zM309 525q-29 0 -49 16q-23 18 -23 46q0 27 22 44t50 17t50 -17t22 -44q0 -28 -21.5 -45t-50.5 -17zM309 626q-18 0 -34 -11t-16 -28q0 -18 17 -30q14 -10 33 -10
t34.5 11t15.5 29q0 17 -16 28t-34 11z" />
    <glyph glyph-name="ccedilla" unicode="&#xe7;" horiz-adv-x="452" 
d="M218 -10l-12 -37q71 -8 71 -71q0 -33 -24.5 -52t-58.5 -19q-35 0 -77 18l9 22q38 -16 67 -16q60 0 60 47q0 24 -18.5 36t-43.5 11l-17 -1l19 62q-90 7 -142 65t-52 149q0 121 80 198.5t201 77.5q145 0 145 -101q0 -31 -22.5 -57.5t-52.5 -26.5q-52 0 -70 53l14 9
q2 -1 20 -24q12 -16 35 -16t39.5 17.5t16.5 40.5q0 46 -44 68q-33 17 -84 17q-106 0 -180 -73t-74 -179q0 -89 55 -143t144 -54q86 0 154 78l21 -12q-63 -86 -179 -87z" />
    <glyph glyph-name="eacute" unicode="&#xe9;" horiz-adv-x="553" 
d="M34 174q19 -76 83 -123t143 -47q52 0 111 25t94 62q6 6 7 10h23q0 -17 -33 -44q-92 -76 -202 -76q-101 0 -176 65.5t-81 165.5q-6 96 68 177q83 91 214 91q82 0 141 -39q65 -43 78 -120q-122 -45 -470 -147zM282 456q-100 2 -177 -65.5t-77 -165.5q0 -14 2 -28l223 65
q134 39 220 71q-14 58 -74 92q-53 30 -117 31zM232 545l186 73l9 -22l-186 -73z" />
    <glyph glyph-name="egrave" unicode="&#xe8;" horiz-adv-x="553" 
d="M34 174q19 -76 83 -123t143 -47q52 0 111 25t94 62q6 6 7 10h23q0 -17 -33 -44q-92 -76 -202 -76q-101 0 -176 65.5t-81 165.5q-6 96 68 177q83 91 214 91q82 0 141 -39q65 -43 78 -120q-122 -45 -470 -147zM282 456q-100 2 -177 -65.5t-77 -165.5q0 -14 2 -28l223 65
q134 39 220 71q-14 58 -74 92q-53 30 -117 31zM420 545l-186 73l-9 -22l186 -73z" />
    <glyph glyph-name="ecircumflex" unicode="&#xea;" horiz-adv-x="553" 
d="M34 174q19 -76 83 -123t143 -47q52 0 111 25t94 62q6 6 7 10h23q0 -17 -33 -44q-92 -76 -202 -76q-101 0 -176 65.5t-81 165.5q-6 96 68 177q83 91 214 91q82 0 141 -39q65 -43 78 -120q-122 -45 -470 -147zM282 456q-100 2 -177 -65.5t-77 -165.5q0 -14 2 -28l223 65
q134 39 220 71q-14 58 -74 92q-53 30 -117 31zM347 592l-217 -79l-9 22l226 83l145 -83l-12 -27z" />
    <glyph glyph-name="edieresis" unicode="&#xeb;" horiz-adv-x="553" 
d="M504 321q-122 -45 -470 -147q19 -76 83 -123t143 -47q46 0 118 29q81 33 94 68h23q0 -50 -95 -89q-83 -34 -140 -31q-102 6 -174 67q-77 65 -83 164q-6 96 68 177q83 91 214 91q82 0 141 -39q65 -43 78 -120zM473 333q-14 58 -74 92q-53 30 -117 31q-100 2 -177 -65.5
t-77 -165.5q0 -14 2 -28l223 65q134 39 220 71zM365 533q-30 0 -30 32q0 31 30 31t30 -31q0 -32 -30 -32zM225 533q-30 0 -30 32q0 31 30 31t30 -31q0 -32 -30 -32z" />
    <glyph glyph-name="iacute" unicode="&#xed;" horiz-adv-x="260" 
d="M50 430q20 14 40 29q24 15 45 15q20 0 34 -16.5t9 -36.5l-88 -377q-2 -9 8.5 -18.5t20.5 -9.5q7 0 29 13.5t28 20.5l12 -15q-8 -8 -32 -21.5t-34 -15.5q-23 -4 -41.5 12.5t-13.5 38.5l88 375q3 30 -20 30q-18 0 -37 -14l-38 -27zM62 545l186 73l9 -22l-186 -73z" />
    <glyph glyph-name="igrave" unicode="&#xec;" horiz-adv-x="260" 
d="M50 430q20 14 40 29q24 15 45 15q20 0 34 -16.5t9 -36.5l-88 -377q-2 -9 8.5 -18.5t20.5 -9.5q7 0 29 13.5t28 20.5l12 -15q-8 -8 -32 -21.5t-34 -15.5q-23 -4 -41.5 12.5t-13.5 38.5l88 375q3 30 -20 30q-18 0 -37 -14l-38 -27zM260 545l-186 73l-9 -22l186 -73z" />
    <glyph glyph-name="icircumflex" unicode="&#xee;" horiz-adv-x="260" 
d="M50 430q20 14 40 29q24 15 45 15q20 0 34 -16.5t9 -36.5l-88 -377q-2 -9 8.5 -18.5t20.5 -9.5q7 0 29 13.5t28 20.5l12 -15q-8 -8 -32 -21.5t-34 -15.5q-23 -4 -41.5 12.5t-13.5 38.5l88 375q3 30 -20 30q-18 0 -37 -14l-38 -27zM117 592l-104 -54l-9 22l113 58l106 -60
l-8 -28z" />
    <glyph glyph-name="idieresis" unicode="&#xef;" horiz-adv-x="260" 
d="M188 35q-8 -8 -32 -21.5t-34 -15.5q-23 -4 -41.5 12.5t-13.5 38.5l88 375q3 30 -20 30q-18 0 -37 -14l-38 -27l-10 17q20 14 40 29q24 15 45 15q20 0 34 -16.5t9 -36.5l-88 -377q-2 -9 8.5 -18.5t20.5 -9.5q7 0 29 13.5t28 20.5zM195 533q-30 0 -30 32q0 31 30 31t30 -31
q0 -32 -30 -32zM85 533q-30 0 -30 32q0 31 30 31t30 -31q0 -32 -30 -32z" />
    <glyph glyph-name="ntilde" unicode="&#xf1;" horiz-adv-x="533" 
d="M443 398l-85 -337q-7 -56 54 -63q25 -3 65 44q-1 17 -10 17q-3 0 -6 -2q-32 -35 -50 -35q-10 0 -21.5 9t-8.5 19q3 12 86 326q4 15 4 25q0 74 -105 74q-57 0 -109 -19q-64 -23 -85 -66q5 17 12 55q2 22 -13 27q-4 2 -25 2q-15 0 -53.5 -24t-38.5 -37q0 -10 11 -15
q19 15 39 29q26 18 42 18q7 0 7 -7q0 -4 -2.5 -12.5t-2.5 -12.5l-98 -412h29l75 308q11 47 55 86q60 54 147 54h16q11 -1 16 -1q53 -1 55 -50zM123 545q42 62 95 62q51 0 89 -35q27 -25 74 -30q44 -5 86 52l20 -14q-46 -62 -105 -62q-10 0 -61 11q-18 6 -30 17
q-39 35 -70 35q-45 0 -78 -49z" />
    <glyph glyph-name="oacute" unicode="&#xf3;" horiz-adv-x="557" 
d="M237 -10q-108 0 -173 60t-65 167q0 109 81 184q78 73 188 73q8 0 32 -10q19 -8 30 -3q16 10 25 10h16q58 0 95 -68q32 -58 32 -120q0 -110 -75 -199q-79 -94 -186 -94zM366 443q-15 0 -23 -17q8 -16 19 -22q2 -1 26 -10l-17 -17l-21 6q-38 11 -37 56q-39 9 -55 8
q-94 -6 -161 -72.5t-67 -159.5q0 -92 55.5 -144.5t148.5 -52.5q99 0 169 83q67 78 67 179q0 53 -26 103q-31 60 -78 60zM222 545l186 73l9 -22l-186 -73z" />
    <glyph glyph-name="ograve" unicode="&#xf2;" horiz-adv-x="557" 
d="M237 -10q-108 0 -173 60t-65 167q0 109 81 184q78 73 188 73q8 0 32 -10q19 -8 30 -3q16 10 25 10h16q58 0 95 -68q32 -58 32 -120q0 -110 -75 -199q-79 -94 -186 -94zM366 443q-15 0 -23 -17q8 -16 19 -22q2 -1 26 -10l-17 -17l-21 6q-38 11 -37 56q-39 9 -55 8
q-94 -6 -161 -72.5t-67 -159.5q0 -92 55.5 -144.5t148.5 -52.5q99 0 169 83q67 78 67 179q0 53 -26 103q-31 60 -78 60zM430 545l-186 73l-9 -22l186 -73z" />
    <glyph glyph-name="ocircumflex" unicode="&#xf4;" horiz-adv-x="557" 
d="M237 -10q-108 0 -173 60t-65 167q0 109 81 184q78 73 188 73q8 0 32 -10q19 -8 30 -3q16 10 25 10h16q58 0 95 -68q32 -58 32 -120q0 -110 -75 -199q-79 -94 -186 -94zM366 443q-15 0 -23 -17q8 -16 19 -22q2 -1 26 -10l-17 -17l-21 6q-38 11 -37 56q-39 9 -55 8
q-94 -6 -161 -72.5t-67 -159.5q0 -92 55.5 -144.5t148.5 -52.5q99 0 169 83q67 78 67 179q0 53 -26 103q-31 60 -78 60zM347 592l-217 -79l-9 22l226 83l145 -83l-12 -27z" />
    <glyph glyph-name="odieresis" unicode="&#xf6;" horiz-adv-x="557" 
d="M498 283q0 -110 -75 -199q-79 -94 -186 -94q-108 0 -173 60t-65 167q0 109 81 184q78 73 188 73q8 0 32 -10q19 -8 30 -3q16 10 25 10h16q58 0 95 -68q32 -58 32 -120zM470 280q0 53 -26 103q-31 60 -78 60q-15 0 -23 -17q8 -16 19 -22q2 -1 26 -10l-17 -17l-21 6
q-38 11 -37 56q-39 9 -55 8q-94 -6 -161 -72.5t-67 -159.5q0 -92 55.5 -144.5t148.5 -52.5q99 0 169 83q67 78 67 179zM405 533q-30 0 -30 32q0 31 30 31t30 -31q0 -32 -30 -32zM275 533q-30 0 -30 32q0 31 30 31t30 -31q0 -32 -30 -32z" />
    <glyph glyph-name="otilde" unicode="&#xf5;" horiz-adv-x="557" 
d="M237 -10q-108 0 -173 60t-65 167q0 109 81 184q78 73 188 73q8 0 32 -10q19 -8 30 -3q16 10 25 10h16q58 0 95 -68q32 -58 32 -120q0 -110 -75 -199q-79 -94 -186 -94zM366 443q-15 0 -23 -17q8 -16 19 -22q2 -1 26 -10l-17 -17l-21 6q-38 11 -37 56q-39 9 -55 8
q-94 -6 -161 -72.5t-67 -159.5q0 -92 55.5 -144.5t148.5 -52.5q99 0 169 83q67 78 67 179q0 53 -26 103q-31 60 -78 60zM133 545q42 62 95 62q51 0 89 -35q27 -25 74 -30q44 -5 86 52l20 -14q-46 -62 -105 -62q-10 0 -61 11q-18 6 -30 17q-39 35 -70 35q-45 0 -78 -49z" />
    <glyph glyph-name="uacute" unicode="&#xfa;" horiz-adv-x="533" 
d="M74 71l85 337q7 56 -55 63q-24 3 -64 -44q1 -17 10 -17q3 0 6 2q32 35 50 35q9 0 21 -9t9 -18q-9 -35 -86 -326q-4 -15 -4 -26q0 -73 105 -73q57 0 109 18q64 23 85 66q-5 -17 -12 -54q-2 -23 13 -28q3 -1 25 -1q15 0 53.5 23.5t38.5 36.5q0 10 -11 16q-12 -10 -37 -28.5
t-44 -18.5q-8 0 -8 6q0 4 3 12.5t3 12.5l98 412h-29l-75 -308q-11 -46 -55 -86q-59 -54 -147 -54q-16 0 -32 2q-53 0 -55 49zM222 545l186 73l9 -22l-186 -73z" />
    <glyph glyph-name="ugrave" unicode="&#xf9;" horiz-adv-x="533" 
d="M74 71l85 337q7 56 -55 63q-24 3 -64 -44q1 -17 10 -17q3 0 6 2q32 35 50 35q9 0 21 -9t9 -18q-9 -35 -86 -326q-4 -15 -4 -26q0 -73 105 -73q57 0 109 18q64 23 85 66q-5 -17 -12 -54q-2 -23 13 -28q3 -1 25 -1q15 0 53.5 23.5t38.5 36.5q0 10 -11 16q-12 -10 -37 -28.5
t-44 -18.5q-8 0 -8 6q0 4 3 12.5t3 12.5l98 412h-29l-75 -308q-11 -46 -55 -86q-59 -54 -147 -54q-16 0 -32 2q-53 0 -55 49zM380 545l-186 73l-9 -22l186 -73z" />
    <glyph glyph-name="ucircumflex" unicode="&#xfb;" horiz-adv-x="533" 
d="M74 71l85 337q7 56 -55 63q-24 3 -64 -44q1 -17 10 -17q3 0 6 2q32 35 50 35q9 0 21 -9t9 -18q-9 -35 -86 -326q-4 -15 -4 -26q0 -73 105 -73q57 0 109 18q64 23 85 66q-5 -17 -12 -54q-2 -23 13 -28q3 -1 25 -1q15 0 53.5 23.5t38.5 36.5q0 10 -11 16q-12 -10 -37 -28.5
t-44 -18.5q-8 0 -8 6q0 4 3 12.5t3 12.5l98 412h-29l-75 -308q-11 -46 -55 -86q-59 -54 -147 -54q-16 0 -32 2q-53 0 -55 49zM337 592l-217 -79l-9 22l226 83l145 -83l-12 -27z" />
    <glyph glyph-name="udieresis" unicode="&#xfc;" horiz-adv-x="533" 
d="M467 468l-98 -412q0 -4 -3 -12.5t-3 -12.5q0 -6 8 -6q19 0 45 19l36 28q11 -6 11 -16q0 -13 -38.5 -36.5t-53.5 -23.5q-22 0 -25 1q-15 5 -13 28q5 18 12 54q-21 -43 -85 -66q-52 -18 -109 -18q-56 0 -80.5 19.5t-24.5 53.5q0 11 4 26l86 326q3 9 -9 18t-21 9
q-18 0 -50 -35q-3 -2 -6 -2q-9 0 -10 17q40 47 64 44q62 -7 55 -63l-85 -337q2 -49 55 -49q16 -2 32 -2q88 0 147 54q43 40 55 86q11 43 75 308h29zM365 533q-30 0 -30 32q0 31 30 31t30 -31q0 -32 -30 -32zM235 533q-30 0 -30 32q0 31 30 31t30 -31q0 -32 -30 -32z" />
    <glyph glyph-name="dagger" unicode="&#x2020;" 
 />
    <glyph glyph-name="degree" unicode="&#xb0;" horiz-adv-x="317" 
d="M143 681q54 0 92 -38.5t38 -92.5t-38 -92t-92 -38t-92 38t-38 92t38 92.5t92 38.5zM143 663q-47 0 -79.5 -33t-32.5 -80t32.5 -79.5t79.5 -32.5q46 0 79 33t33 79q0 47 -32.5 80t-79.5 33z" />
    <glyph glyph-name="cent" unicode="&#xa2;" horiz-adv-x="443" 
d="M305 613l-26 -91q9 -11 28 -33t42 -22t39 16t16 39q0 78 -99 91zM161 169l119 446h-3q-106 0 -180 -75.5t-74 -181.5q0 -69 36 -120t102 -69zM131 56l24 90q-75 18 -115.5 74t-40.5 134q0 122 79.5 201.5t201.5 79.5h6l21 81l25 -8q0 -2 -21 -75q112 -10 114 -112
q0 -31 -22 -53.5t-53 -22.5q-44 0 -78 51q-11 -39 -31 -114l-58 -218q19 -3 39 -3q86 0 154 78l21 -12q-63 -87 -182 -87q-20 0 -38 2l-25 -92z" />
    <glyph glyph-name="sterling" unicode="&#xa3;" horiz-adv-x="661" 
d="M68 417h99q37 128 99 189q74 74 199 74q68 0 116 -25q62 -31 62 -93q0 -38 -21.5 -62t-59.5 -24q-24 0 -41.5 17.5t-17.5 41.5q0 15 14 15q7 0 16 -23.5t29 -23.5q54 0 54 59q0 49 -57 74q-43 19 -100 19q-108 0 -174 -69q-54 -56 -89 -169h151v-24q-72 -2 -108 -1
q-24 0 -34.5 2t-15.5 2q-9 -46 -108 -232q37 -14 111 -54q75 -54 92 -63q56 -30 125 -30q60 0 101 28q18 12 49 51q22 28 43 28q14 0 14 -13q0 -3 -18 -18l-23 -19q-41 -48 -72 -65q-35 -19 -94 -19q-77 0 -133 28q-15 8 -112 75q-20 14 -53 23l-54 15q-15 6 -15 16t6 16
q99 179 112 230h-92v24z" />
    <glyph glyph-name="section" unicode="&#xa7;" horiz-adv-x="9" 
 />
    <glyph glyph-name="bullet" unicode="&#x2022;" horiz-adv-x="304" 
d="M78 260q0 30 22.5 50.5t52.5 20.5t52 -20.5t22 -50.5q0 -31 -21.5 -51t-52.5 -20t-53 20t-22 51z" />
    <glyph glyph-name="paragraph" unicode="&#xb6;" horiz-adv-x="492" 
d="M293 211v449q-100 -2 -175 -62q-81 -65 -81 -163t81 -163q75 -60 175 -61zM317 659v-448h56v448h-56zM317 -159q21 0 56 -1v347h-56v-346zM251 -159h42v346q-111 1 -192 68q-88 72 -88 180q0 110 89 182q84 67 196 67h141v-24q-24 -1 -42 0v-819q19 0 42 1l-2 -25h-186
v24z" />
    <glyph glyph-name="germandbls" unicode="&#xdf;" horiz-adv-x="481" 
d="M138 434q-3 -20 -11 -68l-16 -77q-29 -141 -52 -214q-35 -112 -88 -194q-7 -7 -16 -7q-14 0 -14 11q0 7 8 11q45 90 65 138q30 71 60 195q27 114 39 201l-10 -4q-5 -1 -13.5 -11t-16.5 -10q-7 10 -7 12q0 31 53 43q14 101 43 151q43 75 129 75q39 0 65 -20q29 -23 29 -61
q0 -31 -23 -57.5t-53 -26.5q-7 0 -32 9v10q0 9 10 9q4 0 11 -2t11 -2q52 0 52 60q0 57 -76 57q-71 0 -104 -72q-11 -25 -37 -133q11 -3 72 -1q54 2 71 2q96 0 96 -88q0 -26 -8 -44q-13 -30 -16 -37q54 -45 54 -139q0 -106 -52 -189q-61 -97 -162 -94q-121 4 -121 99
q0 37 25 65t62 28q51 0 58 -46l-3 -7q-2 -3 -7 -3q-2 0 -18.5 16t-31.5 16q-25 0 -44 -22t-19 -47q0 -65 103 -75q64 -7 123 67q63 79 63 192q0 117 -53 117q-11 0 -24 -6q-27 -12 -29 -12q-11 0 -16 5q0 12 8 18q4 0 42 13q17 6 31.5 34t14.5 48q0 67 -74 67q-9 0 -18 -1
q-21 0 -133 1z" />
    <glyph glyph-name="registered" unicode="&#xae;" horiz-adv-x="499" 
d="M298 314q-79 0 -134 55t-55 134t55.5 134.5t134.5 55.5t134 -55.5t55 -134.5t-55.5 -134t-134.5 -55zM298 669q-69 0 -117 -48.5t-48 -117.5t48 -117.5t117 -48.5t116.5 48.5t47.5 117.5t-47.5 117.5t-116.5 48.5zM364 400l-117 94v-92h-21v209h108q24 0 37.5 -19
t13.5 -44q0 -24 -13.5 -42t-37.5 -18h-45l89 -72zM334 589h-87v-80h87q30 0 30 39q0 41 -30 41z" />
    <glyph glyph-name="copyright" unicode="&#xa9;" horiz-adv-x="778" 
d="M388 -1q-139 0 -236.5 97.5t-97.5 236.5t98 237t237 98t237 -98t98 -237q0 -140 -98 -237t-238 -97zM388 645q-129 0 -219 -91.5t-90 -220.5q0 -130 89.5 -221t219.5 -91t219 91t89 221q0 129 -89.5 220.5t-218.5 91.5zM394 141q-85 0 -135 56q-48 53 -48 139t50.5 141.5
t135.5 55.5q58 0 103 -29q49 -33 60 -87h-37q-26 89 -127 89q-70 0 -110 -51q-37 -47 -37 -119t36 -118q40 -50 110 -50q113 0 133 116h37q-9 -67 -55.5 -105t-115.5 -38z" />
    <glyph glyph-name="trademark" unicode="&#x2122;" horiz-adv-x="690" 
d="M581 459l-1 193l-4 2l-79 -196h-15l-75 196h-7v-195h-24v215h47l66 -169l72 169h43v-215h-23zM252 653v-194h-27v194h-74v21h174v-21h-73z" />
    <glyph glyph-name="acute" unicode="&#xb4;" horiz-adv-x="557" 
d="M222 545l186 73l9 -22l-186 -73z" />
    <glyph glyph-name="dieresis" unicode="&#xa8;" horiz-adv-x="557" 
d="M405 533q-30 0 -30 32q0 31 30 31t30 -31q0 -32 -30 -32zM275 533q-30 0 -30 32q0 31 30 31t30 -31q0 -32 -30 -32z" />
    <glyph glyph-name="AE" unicode="&#xc6;" horiz-adv-x="1189" 
d="M266 15q99 -3 185 42q72 38 105 101q18 33 46 137q16 57 17 104q4 116 -70.5 191.5t-190.5 79.5q-70 3 -134 -36q-78 -47 -81 -123q-3 -103 82 -106q36 -1 62.5 17.5t29.5 53.5q3 40 -37 57q-6 4 -4 10q1 7 12 6q20 0 37 -25t16 -46q-1 -43 -37.5 -70t-80.5 -25
q-25 1 -51.5 14t-37.5 33q-96 -56 -112 -172q-1 -113 65 -176t179 -67zM1163 581q0 -39 -21.5 -64t-59.5 -25q-46 0 -69 33q-6 6 -6 12q0 14 13 14q6 0 34 -25q11 -10 30 -10q25 0 40 18t15 43q0 43 -32.5 68t-76.5 25q-73 0 -123 -36q-57 -40 -57 -110q0 -52 56 -76
q5 -2 5 -9q0 -11 -8 -11q-3 0 -6 2q-27 9 -42 26l-28 40q-6 0 -51 -18q-62 -25 -102.5 -88t-40.5 -131q0 -112 70 -183.5t182 -71.5q62 0 130 26t110 68q4 1 7 1q10 0 10 -18q0 -15 -60 -49q-53 -30 -78 -35q-85 -18 -121 -18q-112 0 -188 65q-79 67 -90 177l-45 -188
q-6 -23 17 -23q7 0 12 3q7 0 7 -15q0 -9 -15 -9q-49 2 -48 40q0 14 9.5 42t10.5 41q-46 -63 -130 -95q-76 -30 -160 -27q-116 4 -189 66q-78 66 -78 179q0 69 32 127q36 64 97 87q-8 28 -8 55q0 90 83 144q74 48 167 43q89 -4 164 -56q90 -62 103 -159q-1 -7 5 -23
q6 46 20 99l26 99q3 10 13 10q11 0 9 -9l-59 -249q59 90 160 115q8 1 21 9q5 71 39 105q61 61 157 61q57 0 95 -27q43 -30 43 -85z" />
    <glyph glyph-name="Oslash" unicode="&#xd8;" horiz-adv-x="795" 
d="M737 391q0 -163 -116 -284t-278 -120q-137 1 -229 81l-80 -70l-18 20l78 68q-87 89 -87 225q0 152 125 259q120 103 274 103q13 0 39.5 -6t39.5 -6q8 0 23 6.5t23 5.5q89 -6 143 -73l84 75l18 -21l-86 -76q47 -77 47 -187zM654 582q-46 65 -115 65q-20 0 -28 -17
q-1 -12 6 -23t19 -11q4 0 12 1.5t12 1.5h10v-15q-4 -12 -29 -12q-49 0 -59 62q-46 13 -74 13q-145 0 -256 -95q-116 -99 -116 -242q0 -123 79 -205zM710 387q0 95 -42 172l-533 -472q87 -74 216 -74q145 0 252 114t107 260z" />
    <glyph glyph-name="plusminus" unicode="&#xb1;" 
 />
    <glyph glyph-name="yen" unicode="&#xa5;" horiz-adv-x="799" 
d="M509 211l-4 -24h-123q-14 -48 -49 -182l-33 -4l53 186h-127l9 24h124l8 28q2 7 5 18h-126l9 24h123q11 46 19 63q0 130 -59 218q-13 20 -51 56q-43 41 -58 41q-2 0 -41 -33q-23 -19 -46 -39l-15 17q85 87 96 87q19 0 72 -47q44 -39 62 -66q38 -56 46 -95l18 -102
q6 5 22 41q38 86 140 169t193 100l14 -9q-2 -13 -41 -28l-52 -18q-74 -33 -153 -119q-74 -80 -106 -161q-15 -40 -27 -75h118l-4 -24h-122q-7 -22 -14 -46h120z" />
    <glyph glyph-name="mu" unicode="&#xb5;" horiz-adv-x="618" 
d="M554 476q-24 0 -41.5 17.5t-17.5 41.5q0 15 14 15q7 0 16 -23.5t29 -23.5q54 0 54 59q0 49 -57 74q-43 19 -100 19q-129 0 -199 -99q-45 -64 -84 -214l137 69l9 -31l-157 -77q-28 -96 -74 -142q47 -12 101 -51q75 -54 92 -63q56 -30 125 -30q60 0 101 28q18 12 49 51
q23 28 43 28q14 0 14 -13q0 -3 -18 -18l-23 -19q-40 -48 -71 -65q-36 -19 -95 -19q-77 0 -133 28q-15 8 -112 75q-19 14 -53 23l-54 15q-15 6 -15 16t6 16q64 60 84 124l-97 -48l-8 28l116 59q5 20 18 73q37 136 99 202q75 79 205 79q68 0 117 -25q61 -31 61 -93
q0 -38 -21.5 -62t-59.5 -24z" />
    <glyph glyph-name="mu" unicode="&#x3bc;" horiz-adv-x="618" 
d="M554 476q-24 0 -41.5 17.5t-17.5 41.5q0 15 14 15q7 0 16 -23.5t29 -23.5q54 0 54 59q0 49 -57 74q-43 19 -100 19q-129 0 -199 -99q-45 -64 -84 -214l137 69l9 -31l-157 -77q-28 -96 -74 -142q47 -12 101 -51q75 -54 92 -63q56 -30 125 -30q60 0 101 28q18 12 49 51
q23 28 43 28q14 0 14 -13q0 -3 -18 -18l-23 -19q-40 -48 -71 -65q-36 -19 -95 -19q-77 0 -133 28q-15 8 -112 75q-19 14 -53 23l-54 15q-15 6 -15 16t6 16q64 60 84 124l-97 -48l-8 28l116 59q5 20 18 73q37 136 99 202q75 79 205 79q68 0 117 -25q61 -31 61 -93
q0 -38 -21.5 -62t-59.5 -24z" />
    <glyph glyph-name="ordfeminine" unicode="&#xaa;" horiz-adv-x="556" 
d="M373 396q1 -4 18 -4q49 0 81 21q13 -2 13 -14q0 -6 -7 -9q-31 -23 -71 -23q2 0 -3 0q-6 -1 -16 -1q-11 0 -23 2q-56 -97 -136 -185q-87 -94 -176 -146q49 7 53 4q107 -32 172 -32q67 0 124 24q47 20 108 67q6 8 13 8q10 0 10 -12q0 -8 -6 -12q-137 -99 -249 -99
q-62 0 -174 25q-22 5 -44 5q-10 0 -30.5 -4.5t-30.5 -4.5q-15 -4 -15 8t19 21q80 36 185 144q95 98 148 186q-7 1 -14 1q-36 0 -74 -31q-2 -3 -5 -3q-8 0 -8 10q0 4 3 8q25 35 95 39q7 0 15 3q70 152 151 242q-40 -14 -55 -14q-47 0 -128 29q-87 31 -127 34q-33 3 -69 -17
q-41 -22 -41 -62q0 -25 18 -47t42 -22q19 0 37 14l30 26q13 -10 13 -14q0 -20 -37 -37q-30 -14 -40 -14q-35 0 -60.5 29.5t-25.5 64.5q0 52 44 80q38 25 92 22q37 -2 129 -32q88 -29 135 -29q15 0 43.5 10.5t35.5 21.5l17 -4v-13q-47 -34 -101 -122q-24 -40 -78 -142z
M253 785l12 27l100 -60l143 61l8 -24l-155 -67z" />
    <glyph glyph-name="ordmasculine" unicode="&#xba;" horiz-adv-x="533" 
d="M447 366q-48 -60 -181 -150q-120 -81 -198 -166q35 5 49 5q33 0 96.5 -16t96.5 -16q56 0 90 39q31 35 37 92q1 10 -6 28.5t-7 26.5l20 2q15 -26 15 -59q0 -63 -42 -109t-104 -46q-27 0 -161 31q-26 6 -45 6q-34 0 -76 -32q-7 -5 -10 -5q-8 0 -8 11q0 24 71 93
q62 60 97 84q52 34 154 105q83 60 126 137q-7 -1 -25.5 -5.5t-29.5 -4.5q-30 0 -88.5 14.5t-88.5 14.5q-41 0 -68 -16q-33 -19 -33 -57q0 -21 13 -35t33 -14q7 0 41 12l4 -23q-31 -15 -45 -15q-29 0 -52 22.5t-23 51.5q0 48 45 77q39 25 90 25q29 0 85 -15.5t85 -15.5
q30 0 43 4q17 6 36 25q15 0 15 -13q0 -10 -21 -47q-19 -32 -30 -46zM233 585l12 27l100 -60l143 61l8 -24l-155 -67z" />
    <glyph glyph-name="ae" unicode="&#xe6;" horiz-adv-x="1028" 
d="M257 450q-95 4 -160.5 -64.5t-67.5 -164.5q-2 -99 58.5 -157t160.5 -58q92 0 152 62q57 58 70 151q2 11 11 43q8 27 8 44q0 9 -3 14q-39 72 -94 101q-48 25 -135 29zM514 174q19 -76 83 -123t143 -47q52 0 107.5 22.5t91.5 58.5q6 7 13 16h23q0 -17 -33 -44
q-92 -76 -202 -76q-85 0 -154 49q-72 50 -94 130l-36 -159q-5 -1 -36 -5l15 58l6 21q-36 -41 -86 -67q-54 -26 -106 -26q-109 0 -177 61q-71 64 -69 172q2 109 74 185t180 76q86 0 132 -18q65 -26 117 -102q5 22 32 115l22 -7l-20 -87q84 103 225 103q82 0 141 -39
q65 -43 78 -120q-122 -45 -470 -147zM762 456q-75 2 -141 -39.5t-96 -109.5l-17 -76q-1 -17 2 -34l223 65q134 39 220 71q-14 58 -74 92q-52 30 -117 31z" />
    <glyph glyph-name="oslash" unicode="&#xf8;" horiz-adv-x="557" 
d="M237 -10q-104 0 -167 55l-53 -52l-16 18l4 4l48 47q-54 59 -54 155q0 109 81 184q78 73 188 73q8 0 32 -10q19 -8 30 -3q16 10 25 10h16q35 0 64 -27l49 50l17 -17l-50 -50q47 -61 47 -144q0 -110 -75 -199q-79 -94 -186 -94zM90 66q55 -48 144 -48q99 0 169 83
q67 78 67 179q0 71 -40 126zM368 378l-18 5q-38 11 -37 56q-39 9 -55 8q-94 -6 -161 -72.5t-67 -159.5q0 -81 44 -132zM366 443q-15 0 -23 -17q10 -20 42 -31l29 28q-22 20 -48 20z" />
    <glyph glyph-name="questiondown" unicode="&#xbf;" horiz-adv-x="465" 
d="M207 236q-92 -47 -130 -93q-46 -57 -46 -145q0 -90 58 -147t148 -57q67 0 115.5 42t48.5 108q0 46 -38 81.5t-84 35.5q-17 0 -40 -9q-9 -4 -31 -26t-22 -30q0 -9 9 -14q8 1 28 26t58 25q40 0 68 -29.5t28 -69.5q0 -46 -42 -81t-88 -35q-86 0 -137.5 49.5t-51.5 135.5
q0 181 255 238l32 109l-20 4l-33 -89q-28 -7 -85 -29zM388 441q0 -18 -13.5 -29.5t-31.5 -11.5t-31 12t-13 29t13.5 28.5t30.5 11.5q18 0 31.5 -11.5t13.5 -28.5z" />
    <glyph glyph-name="exclamdown" unicode="&#xa1;" horiz-adv-x="349" 
d="M64 -170l112 442q3 1 17 72l16 -4q3 -1 9 1.5t8 2.5t2 -1q0 -14 -9 -36q-11 -28 -13 -36q-28 -118 -116 -442l47 4l-4 -24l-69 -5v26zM266 446q0 -18 -13.5 -29t-31.5 -11t-31 11.5t-13 28.5t13 28.5t31 11.5t31.5 -11t13.5 -29z" />
    <glyph glyph-name="logicalnot" unicode="&#xac;" horiz-adv-x="0" 
 />
    <glyph glyph-name="florin" unicode="&#x192;" horiz-adv-x="0" 
 />
    <glyph glyph-name="guillemotleft" unicode="&#xab;" horiz-adv-x="377" 
d="M333 421l-160 -184l98 -219l-22 -10l-104 233l170 196zM193 421l-160 -184l98 -219l-22 -10l-104 233l170 196z" />
    <glyph glyph-name="guillemotright" unicode="&#xbb;" horiz-adv-x="377" 
d="M5 24l160 184l-98 219l22 10l104 -233l-170 -196zM145 24l160 184l-98 219l22 10l104 -233l-170 -196z" />
    <glyph glyph-name="ellipsis" unicode="&#x2026;" horiz-adv-x="608" 
d="M454 35q0 17 13 28.5t31 11.5t31.5 -11t13.5 -29t-13.5 -29.5t-31.5 -11.5t-31 12t-13 29zM254 35q0 17 13 28.5t31 11.5t31.5 -11t13.5 -29t-13.5 -29.5t-31.5 -11.5t-31 12t-13 29zM54 35q0 17 13 28.5t31 11.5t31.5 -11t13.5 -29t-13.5 -29.5t-31.5 -11.5t-31 12
t-13 29z" />
    <glyph glyph-name="nonbreakingspace" unicode="&#xa0;" horiz-adv-x="235" 
 />
    <glyph glyph-name="Agrave" unicode="&#xc0;" horiz-adv-x="728" 
d="M266 15q99 -3 185 42q72 38 105 101q18 33 46 137q16 57 17 104q4 116 -70.5 191.5t-190.5 79.5q-70 3 -134 -36q-78 -47 -81 -123q-3 -103 82 -106q36 -1 62.5 17.5t29.5 53.5q3 40 -37 57q-6 4 -4 10q1 7 12 6q20 0 37 -25t16 -46q-1 -43 -37.5 -70t-80.5 -25
q-25 1 -51.5 14t-37.5 33q-96 -56 -112 -172q-1 -113 65 -176t179 -67zM125 449q-8 28 -8 55q0 90 83 144q74 48 167 43q89 -4 164 -56q90 -62 103 -159q-1 -7 5 -23q6 46 20 99l27 100q2 8 12 8q11 0 9 -8l-150 -626q-5 -21 26 -22q36 -2 83 37q2 2 5 2q4 0 7.5 -4.5
t1.5 -7.5q-14 -20 -47 -36.5t-57 -15.5q-45 1 -43 45q1 16 10 45t10 43q-46 -63 -130 -95q-76 -30 -160 -27q-116 4 -189 66q-78 66 -78 179q0 69 32 127q36 64 97 87zM560 745l-186 73l-9 -22l186 -73z" />
    <glyph glyph-name="Atilde" unicode="&#xc3;" horiz-adv-x="728" 
d="M266 15q99 -3 185 42q72 38 105 101q18 33 46 137q16 57 17 104q4 116 -70.5 191.5t-190.5 79.5q-70 3 -134 -36q-78 -47 -81 -123q-3 -103 82 -106q36 -1 62.5 17.5t29.5 53.5q3 40 -37 57q-6 4 -4 10q1 7 12 6q20 0 37 -25t16 -46q-1 -43 -37.5 -70t-80.5 -25
q-25 1 -51.5 14t-37.5 33q-96 -56 -112 -172q-1 -113 65 -176t179 -67zM125 449q-8 28 -8 55q0 90 83 144q74 48 167 43q89 -4 164 -56q90 -62 103 -159q-1 -7 5 -23q6 46 20 99l27 100q2 8 12 8q11 0 9 -8l-150 -626q-5 -21 26 -22q36 -2 83 37q2 2 5 2q4 0 7.5 -4.5
t1.5 -7.5q-14 -20 -47 -36.5t-57 -15.5q-45 1 -43 45q1 16 10 45t10 43q-46 -63 -130 -95q-76 -30 -160 -27q-116 4 -189 66q-78 66 -78 179q0 69 32 127q36 64 97 87zM303 755q35 52 99 58q46 4 85 -31q28 -25 74 -30q44 -5 86 52l20 -14q-46 -62 -105 -62q-50 0 -91 36
q-31 27 -66 27q-48 0 -82 -49z" />
    <glyph glyph-name="Otilde" unicode="&#xd5;" horiz-adv-x="795" 
d="M343 -13q-145 1 -239 89q-97 91 -97 235q0 152 125 259q120 103 274 103q13 0 39.5 -6t39.5 -6q8 0 23 6.5t23 5.5q107 -6 162 -102q44 -76 44 -180q0 -163 -116 -284t-278 -120zM539 647q-20 0 -28 -17q-1 -12 6 -23t19 -11q4 0 12 1.5t12 1.5h10v-15q-4 -12 -29 -12
q-49 0 -59 62q-46 13 -74 13q-145 0 -256 -95q-116 -99 -116 -242q0 -134 91 -217q88 -80 224 -80q145 0 252 114t107 260q0 92 -40 168q-48 92 -131 92zM273 755q35 52 99 58q46 4 85 -31q28 -25 74 -30q44 -5 86 52l20 -14q-46 -62 -105 -62q-50 0 -91 36q-31 27 -66 27
q-48 0 -82 -49z" />
    <glyph glyph-name="OE" unicode="&#x152;" horiz-adv-x="1285" 
d="M539 647q-20 0 -28 -17q-1 -12 6 -23t19 -11q4 0 12 1.5t12 1.5h10v-15q-4 -12 -29 -12q-49 0 -59 62q-46 13 -74 13q-145 0 -256 -95q-116 -99 -116 -242q0 -134 91 -217q88 -80 224 -80q145 0 252 114t107 260q0 92 -40 168q-48 92 -131 92zM1257 581q0 -39 -21.5 -64
t-59.5 -25q-46 0 -69 33q-6 6 -6 12q0 14 13 14q6 0 34 -25q11 -10 30 -10q25 0 40 18t15 43q0 43 -32.5 68t-76.5 25q-73 0 -123 -36q-57 -40 -57 -110q0 -52 56 -76q5 -2 5 -9q0 -11 -8 -11q-3 0 -6 2q-27 9 -42 26l-28 40q-6 0 -51 -18q-62 -25 -102.5 -88t-40.5 -131
q0 -112 70 -183.5t182 -71.5q62 0 130 26t110 68q4 1 7 1q10 0 10 -18q0 -15 -60 -49q-53 -30 -78 -35q-85 -18 -121 -18q-113 0 -189 65q-79 67 -89 178q-49 -105 -144 -169q-98 -67 -212 -66q-145 1 -239 89q-97 91 -97 235q0 152 125 259q120 103 274 103q13 0 39.5 -6
t39.5 -6q8 0 23 6.5t23 5.5q107 -6 161 -100q44 -76 45 -179q58 97 165 124q8 1 21 9q5 71 39 105q61 61 157 61q57 0 95 -27q43 -30 43 -85z" />
    <glyph glyph-name="oe" unicode="&#x153;" horiz-adv-x="1018" 
d="M498 288v-5q0 -34 -10 -72l2 -14l223 65q134 39 220 71q-14 58 -74 92q-52 30 -117 31q-81 2 -150 -45t-94 -123zM237 -10q-108 0 -173 60t-65 167q0 109 81 184q78 73 188 73q8 0 32 -10q19 -8 30 -3q16 10 25 10h16q89 0 121 -137q37 70 106 108q66 38 147 38
q82 0 141 -39q65 -43 78 -120q-122 -45 -470 -147q19 -76 83 -123t143 -47q52 0 111 25t94 62q6 6 7 10h23q0 -17 -33 -44q-92 -76 -202 -76q-85 0 -156 50.5t-93 131.5q-33 -75 -92 -122q-65 -51 -142 -51zM366 443q-15 0 -23 -17q8 -16 19 -22q2 -1 26 -10l-17 -17l-21 6
q-38 11 -37 56q-39 9 -55 8q-94 -6 -161 -72.5t-67 -159.5q0 -92 55.5 -144.5t148.5 -52.5q82 0 148 61q61 58 81 141q-1 28 7 58v2q0 54 -26 103q-32 60 -78 60z" />
    <glyph glyph-name="endash" unicode="&#x2013;" horiz-adv-x="491" 
d="M50 255h396l-8 -24h-396z" />
    <glyph glyph-name="emdash" unicode="&#x2014;" horiz-adv-x="875" 
d="M826 255l-8 -24h-776l8 24h776z" />
    <glyph glyph-name="quotedblleft" unicode="&#x201c;" horiz-adv-x="413" 
d="M328 579q31 -10 31 -37q0 -16 -13 -26.5t-29 -10.5q-17 0 -29.5 10.5t-12.5 26.5q0 19 16 37l83 93l16 -12zM188 579q31 -10 31 -37q0 -16 -13 -26.5t-29 -10.5q-17 0 -29.5 10.5t-12.5 26.5q0 19 16 37l83 93l16 -12z" />
    <glyph glyph-name="quotedblright" unicode="&#x201d;" horiz-adv-x="316" 
d="M404 598l-83 -93l-16 12l62 81q-30 10 -30 37q0 16 12 27t29 11t30 -10.5t13 -27.5q0 -19 -17 -37zM264 598l-83 -93l-16 12l62 81q-30 10 -30 37q0 16 12 27t29 11t30 -10.5t13 -27.5q0 -19 -17 -37z" />
    <glyph glyph-name="quoteleft" unicode="&#x2018;" horiz-adv-x="244" 
d="M188 579q31 -10 31 -37q0 -16 -13 -26.5t-29 -10.5q-17 0 -29.5 10.5t-12.5 26.5q0 19 16 37l83 93l16 -12z" />
    <glyph glyph-name="quoteright" unicode="&#x2019;" horiz-adv-x="209" 
d="M194 598l-83 -93l-16 12l62 81q-30 10 -30 37q0 16 12 27t29 11t30 -10.5t13 -27.5q0 -19 -17 -37z" />
    <glyph glyph-name="divide" unicode="&#xf7;" 
 />
    <glyph glyph-name="ydieresis" unicode="&#xff;" horiz-adv-x="569" 
d="M588 472q-3 -13 -11 -12q-142 -25 -237 -261q-11 -30 -41 -106q-12 -29 -38 -83q-44 -91 -76 -131q-56 -68 -125 -68q-45 0 -79 21q-39 25 -39 68q0 37 27 62t64 25q20 0 56 -23l-17 -21q-22 20 -44 20q-25 0 -43.5 -16.5t-18.5 -41.5q0 -31 28 -51.5t60 -20.5
q27 0 58 14q48 22 111 137q62 112 62 169q0 91 -31 162q-20 46 -69 111q-25 33 -38 33q-5 0 -63 -59q-20 -20 -23 -20q-14 0 -14 14q1 3 8 12q2 3 9 11q24 30 38 44q29 29 42 30q32 1 86 -79q46 -68 56 -105q18 -68 24 -119q104 273 267 299q14 -2 11 -15zM373 565
q0 34 32 34q14 0 23 -10t9 -24q0 -35 -32 -35t-32 35zM243 565q0 34 32 34q14 0 23 -10t9 -24q0 -35 -32 -35t-32 35z" />
    <glyph glyph-name="Ydieresis" unicode="&#x178;" horiz-adv-x="516" 
d="M790 682q-1 -12 -41 -28l-52 -18q-74 -34 -149 -110t-101 -150q-16 -51 -47 -153q-26 -83 -72 -142q-15 -19 -70 -61q-47 -36 -133 -36q-124 0 -124 100q0 32 22.5 56.5t54.5 21.5q49 -5 70 -37l-5 -15h-18q-4 0 -16.5 13t-19.5 14.5t-14 1.5q-21 0 -35 -19.5t-14 -41.5
q0 -70 107 -70q116 0 194 121q69 107 69 229q0 118 -58 204q-15 23 -51 57q-42 40 -58 40q-4 0 -40 -32q-41 -36 -47 -40l-15 17q85 87 96 87q20 0 72 -46q45 -42 62 -67q38 -57 46 -97q6 -33 18 -100q5 4 22 41q41 88 139 169q102 83 194 100zM523 765q0 34 32 34
q14 0 23 -10t9 -24q0 -35 -32 -35t-32 35zM383 765q0 34 32 34q14 0 23 -10t9 -24q0 -35 -32 -35t-32 35z" />
    <glyph glyph-name="currency" unicode="&#xa4;" 
 />
    <glyph glyph-name="guilsinglleft" unicode="&#x2039;" horiz-adv-x="240" 
d="M193 421l-160 -184l98 -219l-22 -10l-104 233l170 196z" />
    <glyph glyph-name="guilsinglright" unicode="&#x203a;" horiz-adv-x="240" 
d="M5 24l160 184l-98 219l22 10l104 -233l-170 -196z" />
    <glyph glyph-name="daggerdbl" unicode="&#x2021;" horiz-adv-x="25" 
 />
    <glyph glyph-name="periodcentered" unicode="&#xb7;" horiz-adv-x="272" 
d="M94 249q0 22 15.5 36.5t37.5 14.5q21 0 36.5 -15t15.5 -36t-15.5 -35.5t-36.5 -14.5q-22 0 -37.5 14t-15.5 36z" />
    <glyph glyph-name="periodcentered" unicode="&#x2219;" horiz-adv-x="272" 
d="M94 249q0 22 15.5 36.5t37.5 14.5q21 0 36.5 -15t15.5 -36t-15.5 -35.5t-36.5 -14.5q-22 0 -37.5 14t-15.5 36z" />
    <glyph glyph-name="quotesinglbase" unicode="&#x201a;" horiz-adv-x="163" 
d="M14 45q0 17 13 28.5t31 11.5t31.5 -11t13.5 -29q0 -20 -17 -39l-85 -94l-19 15l61 80q-29 9 -29 38z" />
    <glyph glyph-name="quotedblbase" unicode="&#x201e;" horiz-adv-x="296" 
d="M174 75q0 17 13 28.5t31 11.5t31.5 -11t13.5 -29q0 -20 -17 -39l-85 -94l-19 15l61 80q-29 9 -29 38zM34 75q0 17 13 28.5t31 11.5t31.5 -11t13.5 -29q0 -20 -17 -39l-85 -94l-19 15l61 80q-29 9 -29 38z" />
    <glyph glyph-name="perthousand" unicode="&#x2030;" horiz-adv-x="33" 
 />
    <glyph glyph-name="Acircumflex" unicode="&#xc2;" horiz-adv-x="728" 
d="M557 802l-217 -69l-9 22l226 73l145 -73l-12 -27zM707 652l-150 -626q-5 -21 26 -22q36 -2 83 37q2 2 5 2q4 0 7.5 -4.5t1.5 -7.5q-14 -20 -47 -36.5t-57 -15.5q-45 1 -43 45q1 16 10 45t10 43q-46 -63 -130 -95q-76 -30 -160 -27q-116 4 -189 66q-78 66 -78 179
q0 69 32 127q36 64 97 87q-8 28 -8 55q0 90 83 144q74 48 167 43q89 -4 164 -56q90 -62 103 -159q-1 -7 5 -23q6 46 20 99l27 100q2 8 12 8q11 0 9 -8zM619 399q4 116 -70.5 191.5t-190.5 79.5q-70 3 -134 -36q-78 -47 -81 -123q-3 -103 82 -106q36 -1 62.5 17.5t29.5 53.5
q3 40 -37 57q-6 4 -4 10q1 7 12 6q20 0 37 -25t16 -46q-1 -43 -37.5 -70t-80.5 -25q-25 1 -51.5 14t-37.5 33q-96 -56 -112 -172q-1 -113 65 -176t179 -67q99 -3 185 42q72 38 105 101q18 33 46 137q16 57 17 104z" />
    <glyph glyph-name="Ecircumflex" unicode="&#xca;" horiz-adv-x="585" 
d="M557 581q0 -39 -21.5 -64t-59.5 -25q-46 0 -69 33q-6 6 -6 12q0 14 13 14q6 0 34 -25q11 -10 30 -10q25 0 40 18t15 43q0 43 -32.5 68t-76.5 25q-73 0 -123 -36q-57 -40 -57 -110q0 -52 56 -76q5 -2 5 -9q0 -11 -8 -11q-3 0 -6 2q-27 9 -42 26l-28 40q-6 0 -51 -18
q-62 -25 -102.5 -88t-40.5 -131q0 -112 70 -183.5t182 -71.5q62 0 130 26t110 68q4 1 7 1q10 0 10 -18q0 -15 -60 -49q-53 -30 -78 -35q-85 -18 -121 -18q-127 0 -206.5 82t-72.5 209q5 88 62 157.5t142 90.5q8 1 21 9q5 71 39 105q61 61 157 61q57 0 95 -27q43 -30 43 -85z
M497 802l-217 -69l-9 22l226 73l145 -73l-12 -27z" />
    <glyph glyph-name="Aacute" unicode="&#xc1;" horiz-adv-x="728" 
d="M266 15q99 -3 185 42q72 38 105 101q18 33 46 137q16 57 17 104q4 116 -70.5 191.5t-190.5 79.5q-70 3 -134 -36q-78 -47 -81 -123q-3 -103 82 -106q36 -1 62.5 17.5t29.5 53.5q3 40 -37 57q-6 4 -4 10q1 7 12 6q20 0 37 -25t16 -46q-1 -43 -37.5 -70t-80.5 -25
q-25 1 -51.5 14t-37.5 33q-96 -56 -112 -172q-1 -113 65 -176t179 -67zM125 449q-8 28 -8 55q0 90 83 144q74 48 167 43q89 -4 164 -56q90 -62 103 -159q-1 -7 5 -23q6 46 20 99l27 100q2 8 12 8q11 0 9 -8l-150 -626q-5 -21 26 -22q36 -2 83 37q2 2 5 2q4 0 7.5 -4.5
t1.5 -7.5q-14 -20 -47 -36.5t-57 -15.5q-45 1 -43 45q1 16 10 45t10 43q-46 -63 -130 -95q-76 -30 -160 -27q-116 4 -189 66q-78 66 -78 179q0 69 32 127q36 64 97 87zM362 755l186 73l9 -22l-186 -73z" />
    <glyph glyph-name="Edieresis" unicode="&#xcb;" horiz-adv-x="585" 
d="M557 581q0 -39 -21.5 -64t-59.5 -25q-46 0 -69 33q-6 6 -6 12q0 14 13 14q6 0 34 -25q11 -10 30 -10q25 0 40 18t15 43q0 43 -32.5 68t-76.5 25q-73 0 -123 -36q-57 -40 -57 -110q0 -52 56 -76q5 -2 5 -9q0 -11 -8 -11q-3 0 -6 2q-27 9 -42 26l-28 40q-6 0 -51 -18
q-62 -25 -102.5 -88t-40.5 -131q0 -112 70 -183.5t182 -71.5q62 0 130 26t110 68q4 1 7 1q10 0 10 -18q0 -15 -60 -49q-53 -30 -78 -35q-85 -18 -121 -18q-127 0 -206.5 82t-72.5 209q5 88 62 157.5t142 90.5q8 1 21 9q5 71 39 105q61 61 157 61q57 0 95 -27q43 -30 43 -85z
M555 733q-30 0 -30 32q0 31 30 31t30 -31q0 -32 -30 -32zM415 733q-30 0 -30 32q0 31 30 31t30 -31q0 -32 -30 -32z" />
    <glyph glyph-name="Egrave" unicode="&#xc8;" horiz-adv-x="585" 
d="M557 581q0 -39 -21.5 -64t-59.5 -25q-46 0 -69 33q-6 6 -6 12q0 14 13 14q6 0 34 -25q11 -10 30 -10q25 0 40 18t15 43q0 43 -32.5 68t-76.5 25q-73 0 -123 -36q-57 -40 -57 -110q0 -52 56 -76q5 -2 5 -9q0 -11 -8 -11q-3 0 -6 2q-27 9 -42 26l-28 40q-6 0 -51 -18
q-62 -25 -102.5 -88t-40.5 -131q0 -112 70 -183.5t182 -71.5q62 0 130 26t110 68q4 1 7 1q10 0 10 -18q0 -15 -60 -49q-53 -30 -78 -35q-85 -18 -121 -18q-127 0 -206.5 82t-72.5 209q5 88 62 157.5t142 90.5q8 1 21 9q5 71 39 105q61 61 157 61q57 0 95 -27q43 -30 43 -85z
M560 745l-186 73l-9 -22l186 -73z" />
    <glyph glyph-name="Iacute" unicode="&#xcd;" horiz-adv-x="561" 
d="M147 -24q-144 0 -144 112q0 36 23.5 57.5t59.5 21.5q28 0 55.5 -19t27.5 -46q0 -14 -14 -14q-8 0 -13 14q-7 21 -13 28q-13 15 -39 15q-27 0 -44.5 -18t-17.5 -45q0 -40 41 -64q35 -20 78 -20q48 0 95 27q107 61 154 180q17 43 50 214q25 128 76 187l-48 12
q-59 29 -85 37q-38 12 -94 12q-82 0 -144 -43q-70 -48 -70 -127q0 -59 50 -84v-13q-4 -4 -15 -4q-29 0 -48 39q-16 32 -16 64q0 48 27 87q71 103 225 103q66 0 123 -21q75 -36 105 -36h13q9 1 14 1q9 0 16 -2q-8 -14 -32 -41.5t-32 -45.5q-25 -59 -44 -163
q-22 -121 -37 -166q-31 -97 -104 -164q-80 -75 -175 -75h-4zM292 755l186 73l9 -22l-186 -73z" />
    <glyph glyph-name="Icircumflex" unicode="&#xce;" horiz-adv-x="561" 
d="M147 -24q-144 0 -144 112q0 36 23.5 57.5t59.5 21.5q28 0 55.5 -19t27.5 -46q0 -14 -14 -14q-8 0 -13 14q-7 21 -13 28q-13 15 -39 15q-27 0 -44.5 -18t-17.5 -45q0 -40 41 -64q35 -20 78 -20q48 0 95 27q107 61 154 180q17 43 50 214q25 128 76 187l-48 12
q-59 29 -85 37q-38 12 -94 12q-82 0 -144 -43q-70 -48 -70 -127q0 -59 50 -84v-13q-4 -4 -15 -4q-29 0 -48 39q-16 32 -16 64q0 48 27 87q71 103 225 103q66 0 123 -21q75 -36 105 -36h13q9 1 14 1q9 0 16 -2q-8 -14 -32 -41.5t-32 -45.5q-25 -59 -44 -163
q-22 -121 -37 -166q-31 -97 -104 -164q-80 -75 -175 -75h-4zM427 802l-217 -69l-9 22l226 73l145 -73l-12 -27z" />
    <glyph glyph-name="Idieresis" unicode="&#xcf;" horiz-adv-x="561" 
d="M575 631q-8 -14 -32 -41.5t-32 -45.5q-25 -59 -44 -163q-22 -121 -37 -166q-31 -97 -104 -164q-80 -75 -175 -75h-4q-144 0 -144 112q0 36 23.5 57.5t59.5 21.5q28 0 55.5 -19t27.5 -46q0 -14 -14 -14q-8 0 -13 14q-7 21 -13 28q-13 15 -39 15q-27 0 -44.5 -18t-17.5 -45
q0 -40 41 -64q35 -20 78 -20q48 0 95 27q107 61 154 180q17 43 50 214q25 128 76 187l-48 12q-59 29 -85 37q-38 12 -94 12q-82 0 -144 -43q-70 -48 -70 -127q0 -59 50 -84v-13q-4 -4 -15 -4q-29 0 -48 39q-16 32 -16 64q0 48 27 87q71 103 225 103q66 0 123 -21
q75 -36 105 -36h13q9 1 14 1q9 0 16 -2zM455 733q-30 0 -30 32q0 31 30 31t30 -31q0 -32 -30 -32zM315 733q-30 0 -30 32q0 31 30 31t30 -31q0 -32 -30 -32z" />
    <glyph glyph-name="Igrave" unicode="&#xcc;" horiz-adv-x="561" 
d="M147 -24q-144 0 -144 112q0 36 23.5 57.5t59.5 21.5q28 0 55.5 -19t27.5 -46q0 -14 -14 -14q-8 0 -13 14q-7 21 -13 28q-13 15 -39 15q-27 0 -44.5 -18t-17.5 -45q0 -40 41 -64q35 -20 78 -20q48 0 95 27q107 61 154 180q17 43 50 214q25 128 76 187l-48 12
q-59 29 -85 37q-38 12 -94 12q-82 0 -144 -43q-70 -48 -70 -127q0 -59 50 -84v-13q-4 -4 -15 -4q-29 0 -48 39q-16 32 -16 64q0 48 27 87q71 103 225 103q66 0 123 -21q75 -36 105 -36h13q9 1 14 1q9 0 16 -2q-8 -14 -32 -41.5t-32 -45.5q-25 -59 -44 -163
q-22 -121 -37 -166q-31 -97 -104 -164q-80 -75 -175 -75h-4zM480 745l-186 73l-9 -22l186 -73z" />
    <glyph glyph-name="Oacute" unicode="&#xd3;" horiz-adv-x="795" 
d="M343 -13q-145 1 -239 89q-97 91 -97 235q0 152 125 259q120 103 274 103q13 0 39.5 -6t39.5 -6q8 0 23 6.5t23 5.5q107 -6 162 -102q44 -76 44 -180q0 -163 -116 -284t-278 -120zM539 647q-20 0 -28 -17q-1 -12 6 -23t19 -11q4 0 12 1.5t12 1.5h10v-15q-4 -12 -29 -12
q-49 0 -59 62q-46 13 -74 13q-145 0 -256 -95q-116 -99 -116 -242q0 -134 91 -217q88 -80 224 -80q145 0 252 114t107 260q0 92 -40 168q-48 92 -131 92zM362 755l186 73l9 -22l-186 -73z" />
    <glyph glyph-name="Ocircumflex" unicode="&#xd4;" horiz-adv-x="795" 
d="M343 -13q-145 1 -239 89q-97 91 -97 235q0 152 125 259q120 103 274 103q13 0 39.5 -6t39.5 -6q8 0 23 6.5t23 5.5q107 -6 162 -102q44 -76 44 -180q0 -163 -116 -284t-278 -120zM539 647q-20 0 -28 -17q-1 -12 6 -23t19 -11q4 0 12 1.5t12 1.5h10v-15q-4 -12 -29 -12
q-49 0 -59 62q-46 13 -74 13q-145 0 -256 -95q-116 -99 -116 -242q0 -134 91 -217q88 -80 224 -80q145 0 252 114t107 260q0 92 -40 168q-48 92 -131 92zM527 802l-217 -69l-9 22l226 73l145 -73l-12 -27z" />
    <glyph glyph-name="Ograve" unicode="&#xd2;" horiz-adv-x="795" 
d="M343 -13q-145 1 -239 89q-97 91 -97 235q0 152 125 259q120 103 274 103q13 0 39.5 -6t39.5 -6q8 0 23 6.5t23 5.5q107 -6 162 -102q44 -76 44 -180q0 -163 -116 -284t-278 -120zM539 647q-20 0 -28 -17q-1 -12 6 -23t19 -11q4 0 12 1.5t12 1.5h10v-15q-4 -12 -29 -12
q-49 0 -59 62q-46 13 -74 13q-145 0 -256 -95q-116 -99 -116 -242q0 -134 91 -217q88 -80 224 -80q145 0 252 114t107 260q0 92 -40 168q-48 92 -131 92zM560 745l-186 73l-9 -22l186 -73z" />
    <glyph glyph-name="Uacute" unicode="&#xda;" horiz-adv-x="662" 
d="M644 659q-18 -87 -110 -465l-36 -148q0 -10 8 -20.5t18 -10.5q12 0 43 23q14 11 43 32l11 -8q-10 -19 -45.5 -43.5t-55.5 -24.5q-18 0 -31 12.5t-13 30.5q0 8 16 86q-37 -53 -145 -93q-97 -36 -172 -36q-109 0 -109 75q0 31 25 115q16 53 58 192q43 146 43 200
q0 37 -27 60t-65 23q-34 0 -55 -20t-21 -53q0 -50 64 -58v-12q-6 -4 -18 -4q-30 0 -48.5 22.5t-18.5 53.5q0 40 25 68t64 28q57 0 91 -31t34 -87q0 -69 -36 -184l-57 -184q-9 -29 -19 -65q-13 -45 -13 -58q0 -56 81 -56q64 0 159 32q105 35 135 78q39 55 79 224l73 306h25z
M322 755l186 73l9 -22l-186 -73z" />
    <glyph glyph-name="Ucircumflex" unicode="&#xdb;" horiz-adv-x="662" 
d="M644 659q-18 -87 -110 -465l-36 -148q0 -10 8 -20.5t18 -10.5q12 0 43 23q14 11 43 32l11 -8q-10 -19 -45.5 -43.5t-55.5 -24.5q-18 0 -31 12.5t-13 30.5q0 8 16 86q-37 -53 -145 -93q-97 -36 -172 -36q-109 0 -109 75q0 31 25 115q16 53 58 192q43 146 43 200
q0 37 -27 60t-65 23q-34 0 -55 -20t-21 -53q0 -50 64 -58v-12q-6 -4 -18 -4q-30 0 -48.5 22.5t-18.5 53.5q0 40 25 68t64 28q57 0 91 -31t34 -87q0 -69 -36 -184l-57 -184q-9 -29 -19 -65q-13 -45 -13 -58q0 -56 81 -56q64 0 159 32q105 35 135 78q39 55 79 224l73 306h25z
M457 802l-217 -69l-9 22l226 73l145 -73l-12 -27z" />
    <glyph glyph-name="Ugrave" unicode="&#xd9;" horiz-adv-x="662" 
d="M644 659q-18 -87 -110 -465l-36 -148q0 -10 8 -20.5t18 -10.5q12 0 43 23q14 11 43 32l11 -8q-10 -19 -45.5 -43.5t-55.5 -24.5q-18 0 -31 12.5t-13 30.5q0 8 16 86q-37 -53 -145 -93q-97 -36 -172 -36q-109 0 -109 75q0 31 25 115q16 53 58 192q43 146 43 200
q0 37 -27 60t-65 23q-34 0 -55 -20t-21 -53q0 -50 64 -58v-12q-6 -4 -18 -4q-30 0 -48.5 22.5t-18.5 53.5q0 40 25 68t64 28q57 0 91 -31t34 -87q0 -69 -36 -184l-57 -184q-9 -29 -19 -65q-13 -45 -13 -58q0 -56 81 -56q64 0 159 32q105 35 135 78q39 55 79 224l73 306h25z
M510 745l-186 73l-9 -22l186 -73z" />
    <glyph glyph-name="circumflex" unicode="&#x2c6;" horiz-adv-x="610" 
d="M417 592l-217 -79l-9 22l226 83l145 -83l-12 -27z" />
    <glyph glyph-name="tilde" unicode="&#x2dc;" horiz-adv-x="533" 
d="M123 545q42 62 95 62q51 0 89 -35q27 -25 74 -30q44 -5 86 52l20 -14q-46 -62 -105 -62q-10 0 -61 11q-18 6 -30 17q-39 35 -70 35q-45 0 -78 -49z" />
    <glyph glyph-name="macron" unicode="&#xaf;" horiz-adv-x="610" 
d="M239 575l199 -1l2 -24l-199 1z" />
    <glyph glyph-name="macron" unicode="&#x2c9;" horiz-adv-x="610" 
d="M239 575l199 -1l2 -24l-199 1z" />
    <glyph glyph-name="cedilla" unicode="&#xb8;" horiz-adv-x="349" 
d="M158 -80l-12 -37q71 -8 71 -71q0 -33 -24.5 -52t-58.5 -19q-35 0 -77 18l9 22q38 -16 67 -16q60 0 60 47q0 24 -18.5 36t-43.5 11l-17 -1l21 69z" />
    <glyph glyph-name="Scaron" unicode="&#x160;" 
 />
    <glyph glyph-name="scaron" unicode="&#x161;" 
 />
    <glyph glyph-name="brokenbar" unicode="&#xa6;" 
 />
    <glyph glyph-name="Eth" unicode="&#xd0;" 
 />
    <glyph glyph-name="eth" unicode="&#xf0;" horiz-adv-x="10" 
 />
    <glyph glyph-name="Yacute" unicode="&#xdd;" 
 />
    <glyph glyph-name="Thorn" unicode="&#xde;" 
 />
    <glyph glyph-name="thorn" unicode="&#xfe;" 
 />
    <glyph glyph-name="minus" unicode="&#xad;" 
 />
    <glyph glyph-name="minus" unicode="&#x2212;" 
 />
    <glyph glyph-name="onesuperior" unicode="&#xb9;" 
 />
    <glyph glyph-name="twosuperior" unicode="&#xb2;" 
 />
    <glyph glyph-name="threesuperior" unicode="&#xb3;" 
 />
    <glyph glyph-name="onehalf" unicode="&#xbd;" 
 />
    <glyph glyph-name="onequarter" unicode="&#xbc;" 
 />
    <glyph glyph-name="threequarters" unicode="&#xbe;" 
 />
    <glyph glyph-name="Lslash" unicode="&#x141;" 
 />
    <glyph glyph-name="lslash" unicode="&#x142;" 
 />
    <glyph glyph-name="HT" horiz-adv-x="235" 
 />
    <glyph glyph-name="LF" 
 />
    <glyph glyph-name="nonmarkingreturn" horiz-adv-x="235" 
 />
    <glyph glyph-name="Zcaron" unicode="&#x17d;" 
 />
    <glyph glyph-name="zcaron" unicode="&#x17e;" 
 />
    <glyph glyph-name="DLE" 
 />
    <glyph glyph-name="DC1" 
 />
    <glyph glyph-name="DC2" 
 />
    <glyph glyph-name="DC3" 
 />
    <glyph glyph-name="DC4" 
 />
    <glyph glyph-name="RS" 
 />
    <glyph glyph-name="US" 
 />
    <glyph glyph-name="infinity" unicode="&#x221e;" 
 />
    <glyph glyph-name="lessequal" unicode="&#x2264;" 
 />
    <glyph glyph-name="greaterequal" unicode="&#x2265;" 
 />
    <glyph glyph-name="partialdiff" unicode="&#x2202;" horiz-adv-x="222" 
d="M-24 236l75 39q42 160 54 212q21 90 47 134q43 72 116 68q37 -2 61 -24.5t24 -58.5q0 -66 -64 -86l-35 -11l-7 22l38 12q16 7 30.5 28t14.5 40q0 25 -18 40t-44 15q-58 0 -93 -63q-22 -41 -49 -150q-18 -79 -37 -158l80 41l9 -31l-99 -50q-44 -165 -44 -198q0 -42 34 -42
q26 0 53 16.5t43 38.5l13 -25q-17 -19 -51 -36t-58 -17q-27 0 -48 15t-21 41q0 33 41 188l-57 -28z" />
    <glyph glyph-name="summation" unicode="&#x2211;" horiz-adv-x="484" 
d="M464 588q-36 43 -75 59q-26 10 -44 10q-42 0 -72 -28.5t-30 -70.5q0 -47 56 -101q69 -67 88 -95q37 -56 37 -125q0 -97 -69.5 -172.5t-166.5 -75.5q-75 0 -125 36q-57 41 -57 113q0 47 36 83.5t82 36.5q32 0 57 -19t25 -50h-16q-11 26 -24.5 34.5t-41.5 8.5
q-39 0 -65.5 -27.5t-26.5 -66.5q0 -58 50 -93q45 -32 105 -32q89 0 150 72q59 68 59 158q0 54 -27 98q-17 28 -59 69q-46 45 -62 68q-29 41 -29 85q0 51 38.5 84.5t90.5 33.5q26 0 79 -29q-22 22 -22 37q0 5 4.5 6.5t8.5 3.5q19 -34 62 -101zM303 785l12 27l100 -60l143 61
l8 -24l-155 -67z" />
    <glyph glyph-name="product" unicode="&#x220f;" horiz-adv-x="401" 
d="M325 458q-15 28 -24 49l20 10q25 -59 51 -102l-21 -17q-6 6 -31 32q-20 21 -38 21q-22 0 -37.5 -16.5t-15.5 -38.5q0 -27 47 -104.5t47 -116.5q0 -196 -180 -196q-64 0 -108.5 41t-44.5 104q0 56 33.5 91t88.5 33q38 -2 82 -49l-17 -16q-36 40 -71 40q-42 0 -67.5 -28
t-25.5 -71q0 -54 37 -87.5t92 -33.5q156 0 156 167q0 34 -30 87l-48 84q-14 31 -14 55q0 31 22.5 54.5t53.5 23.5q27 0 42 -15zM203 615l12 27l100 -60l143 61l8 -24l-155 -67z" />
    <glyph glyph-name="pi" unicode="&#x3c0;" horiz-adv-x="516" 
d="M790 682q-1 -12 -41 -28l-52 -18q-74 -34 -149 -110t-101 -150q-16 -51 -47 -153q-26 -83 -72 -142q-15 -19 -70 -61q-47 -36 -133 -36q-124 0 -124 100q0 32 22.5 56.5t54.5 21.5q49 -5 70 -37l-5 -15h-18q-4 0 -16.5 13t-19.5 14.5t-14 1.5q-21 0 -35 -19.5t-14 -41.5
q0 -70 107 -70q116 0 194 121q69 107 69 229q0 118 -58 204q-15 23 -51 57q-42 40 -58 40q-4 0 -40 -32q-41 -36 -47 -40l-15 17q85 87 96 87q20 0 72 -46q45 -42 62 -67q38 -57 46 -97q6 -33 18 -100q5 4 22 41q41 88 139 169q102 83 194 100zM412 745l186 73l9 -22
l-186 -73z" />
    <glyph glyph-name="integral" unicode="&#x222b;" horiz-adv-x="569" 
d="M588 472q-3 -13 -11 -12q-142 -25 -237 -261q-11 -30 -41 -106q-12 -29 -38 -83q-44 -91 -76 -131q-56 -68 -125 -68q-45 0 -79 21q-39 25 -39 68q0 37 27 62t64 25q20 0 56 -23l-17 -21q-22 20 -44 20q-25 0 -43.5 -16.5t-18.5 -41.5q0 -31 28 -51.5t60 -20.5
q27 0 58 14q48 22 111 137q62 112 62 169q0 91 -31 162q-20 46 -69 111q-25 33 -38 33q-5 0 -63 -59q-20 -20 -23 -20q-14 0 -14 14q1 3 8 12q2 3 9 11q24 30 38 44q29 29 42 30q32 1 86 -79q46 -68 56 -105q18 -68 24 -119q104 273 267 299q14 -2 11 -15zM282 545l186 73
l9 -22l-186 -73z" />
    <glyph glyph-name="Omega" unicode="&#x3a9;" horiz-adv-x="710" 
d="M597 474q-24 0 -46 21t-21 45q0 16 11 16q5 0 9 -6q10 -55 49 -55q23 0 41 25t19 49q2 53 -57 80q-43 20 -99 20q-118 0 -223 -68t-153 -175h218l-1 -24h-227q-13 -37 -19 -77h216v-24h-219v-15q-4 -119 54 -196q64 -82 181 -82q112 0 236 95q4 3 8 3q8 0 8 -9
q0 -5 -5 -11q-34 -41 -114 -72q-75 -28 -134 -28q-126 0 -198 86q-68 81 -63 209q1 24 1 20h-68l1 24h70q6 39 19 77h-59v24h68q50 116 163.5 190.5t240.5 74.5q73 0 120 -24q61 -32 58 -99q-1 -34 -26.5 -64t-58.5 -30z" />
    <glyph glyph-name="Omega" unicode="&#x2126;" horiz-adv-x="710" 
d="M597 474q-24 0 -46 21t-21 45q0 16 11 16q5 0 9 -6q10 -55 49 -55q23 0 41 25t19 49q2 53 -57 80q-43 20 -99 20q-118 0 -223 -68t-153 -175h218l-1 -24h-227q-13 -37 -19 -77h216v-24h-219v-15q-4 -119 54 -196q64 -82 181 -82q112 0 236 95q4 3 8 3q8 0 8 -9
q0 -5 -5 -11q-34 -41 -114 -72q-75 -28 -134 -28q-126 0 -198 86q-68 81 -63 209q1 24 1 20h-68l1 24h70q6 39 19 77h-59v24h68q50 116 163.5 190.5t240.5 74.5q73 0 120 -24q61 -32 58 -99q-1 -34 -26.5 -64t-58.5 -30z" />
    <glyph glyph-name="radical" unicode="&#x221a;" horiz-adv-x="0" 
 />
    <glyph glyph-name="approxequal" unicode="&#x2248;" 
 />
    <glyph glyph-name="approxequal" unicode="&#x22f2;" 
 />
    <glyph glyph-name="Delta" unicode="&#x394;" 
 />
    <glyph glyph-name="Delta" unicode="&#x2206;" 
 />
    <glyph glyph-name="lozenge" unicode="&#x25ca;" horiz-adv-x="293" 
d="M100 257l50 100l50 -100l-50 -100z" />
    <glyph glyph-name="fraction" unicode="&#x2044;" 
 />
    <glyph glyph-name="apple" unicode="&#xf000;" horiz-adv-x="25" 
 />
    <glyph glyph-name="dotlessi" unicode="&#x131;" horiz-adv-x="260" 
d="M50 430q20 14 40 29q24 15 45 15q20 0 34 -16.5t9 -36.5l-88 -377q-2 -9 8.5 -18.5t20.5 -9.5q7 0 29 13.5t28 20.5l12 -15q-8 -8 -32 -21.5t-34 -15.5q-23 -4 -41.5 12.5t-13.5 38.5l88 375q3 30 -20 30q-18 0 -37 -14l-38 -27z" />
    <glyph glyph-name="breve" unicode="&#x2d8;" horiz-adv-x="610" 
d="M185 595l13 27l137 -80l213 75l8 -22q-51 -20 -177 -69q-8 -3 -48 -14v0z" />
    <glyph glyph-name="dotaccent" unicode="&#x2d9;" horiz-adv-x="244" 
d="M167 530q0 28 28 28t28 -28t-28 -28t-28 28z" />
    <glyph glyph-name="ring" unicode="&#x2da;" horiz-adv-x="610" 
d="M309 525q-29 0 -49 16q-23 18 -23 46q0 27 22 44t50 17t50 -17t22 -44q0 -28 -21.5 -45t-50.5 -17zM309 626q-18 0 -34 -11t-16 -28q0 -18 17 -30q14 -10 33 -10t34.5 11t15.5 29q0 17 -16 28t-34 11z" />
    <glyph glyph-name="hungarumlaut" unicode="&#x2dd;" horiz-adv-x="557" 
d="M282 545l186 73l9 -22l-186 -73zM122 545l186 73l9 -22l-186 -73z" />
    <glyph glyph-name="ogonek" unicode="&#x2db;" horiz-adv-x="312" 
d="M221 -175q-24 -26 -51 -26q-53 0 -53 77q0 41 22 83q27 52 70 52v-18q-31 0 -54 -42q-20 -36 -20 -75q0 -59 35 -59q19 0 38 21z" />
    <glyph glyph-name="caron" unicode="&#x2c7;" horiz-adv-x="533" 
d="M233 585l12 27l100 -60l143 61l8 -24l-155 -67z" />
    </font>
</defs>
</svg>
