<?xml version="1.0" standalone="no"?>
<!DOCTYPE svg PUBLIC "-//W3C//DTD SVG 1.1//EN" "http://www.w3.org/Graphics/SVG/1.1/DTD/svg11.dtd" >
<svg>
<metadata>
Created by FontForge 20120731 at Tue Apr 16 14:38:15 2019
 By www-data
Digitized by Dan X. Solo. Software (c) 1999 by Dover Publications, Inc., New York.
</metadata>
<defs>
<font id="Holly" horiz-adv-x="20" >
  <font-face 
    font-family="Holly"
    font-weight="400"
    font-stretch="normal"
    units-per-em="1000"
    panose-1="0 0 4 0 0 0 0 0 0 0"
    ascent="800"
    descent="-200"
    x-height="161"
    cap-height="676"
    bbox="-88 -374 1300 887"
    underline-thickness="20"
    underline-position="-123"
    unicode-range="U+0020-F000"
  />
<missing-glyph horiz-adv-x="500" 
d="M63 0v887h375v-887h-375zM125 63h250v762h-250v-762z" />
    <glyph glyph-name=".notdef" horiz-adv-x="500" 
d="M63 0v887h375v-887h-375zM125 63h250v762h-250v-762z" />
    <glyph glyph-name=".null" horiz-adv-x="0" 
 />
    <glyph glyph-name="glyph2" horiz-adv-x="200" 
 />
    <glyph glyph-name="space" unicode=" " horiz-adv-x="200" 
 />
    <glyph glyph-name="exclam" unicode="!" horiz-adv-x="152" 
d="M116 307q0 -3 -2 -4t-2 -2l-11 -166q-20 -10 -64 -27q-1 5 -4 103l-5 183q13 11 44 24l48 20q1 -5 -1 -15q-3 -13 -3 -16v-100zM102 66q2 0 4 -1q5 -5 5 -8q0 -10 -9 -48q-16 -5 -51 -12q-3 0 -11 4q-6 18 -6 39q0 19 68 26zM102 66q2 0 4 -1q5 -5 5 -8q0 -10 -9 -48
q-16 -5 -51 -12q-3 0 -11 4q-6 18 -6 39q0 19 68 26zM102 66q2 0 4 -1q5 -5 5 -8q0 -10 -9 -48q-16 -5 -51 -12q-3 0 -11 4q-6 18 -6 39q0 19 68 26z" />
    <glyph glyph-name="quotedbl" unicode="&#x22;" horiz-adv-x="317" 
d="M199 434l23 -212h34l19 212h-76zM59 434l23 -212h34l19 212h-76z" />
    <glyph glyph-name="numbersign" unicode="#" horiz-adv-x="394" 
d="M316 301l-35 -131h51q-1 -12 -11 -57l-55 -1l-28 -110l-57 -1l30 111h-81l-30 -112h-54l29 112l-50 1l15 57h50l36 131l-55 1l13 57h57l28 102h52l-25 -102h80l27 98h55l-26 -98h46l-10 -57zM181 301l-35 -131h80l35 131h-80z" />
    <glyph glyph-name="dollar" unicode="$" horiz-adv-x="354" 
d="M320 164q0 -18 -10 -50.5t-20 -47.5q-32 -48 -110 -70q-10 -11 -10 -14q0 -64 1 -63h-27q-1 10 -1 30q0 21 1 52q-63 5 -91 35q-8 9 -50 80v12q33 -33 85 -53t101 -20q86 0 86 51q-24 19 -88 23q-71 5 -96 19q-45 26 -45 100q0 121 107 166q-1 14 -1 36q0 21 1 50h27
q2 -7 2 -15q0 -7 -2 -20t-2 -20q0 -12 6 -20q6 1 21 5.5t23 4.5q22 0 48 -17t26 -37q0 -8 -12 -25.5t-19 -18.5q-1 4 -5 17q-23 14 -36 14q-43 0 -89 -23q-53 -26 -61 -63q9 -14 75 -22q79 -10 109 -22q56 -23 56 -74z" />
    <glyph glyph-name="percent" unicode="%" horiz-adv-x="574" 
d="M396 -31q-46 0 -84 22q-45 26 -45 69q0 58 39.5 108.5t95.5 50.5q52 0 88 -18q47 -23 47 -69q0 -62 -39 -111q-42 -52 -102 -52zM379 404q-52 -22 -85 -22q-5 0 -10 2l1 -2v-13q0 -54 -49 -99.5t-104 -45.5q-42 0 -79 29.5t-37 70.5q0 53 56 97q52 42 107 42
q22 0 60.5 -27.5t54.5 -27.5q47 0 125 40l16 -4q-39 -65 -148 -244q-120 -195 -149 -206l-7 15zM398 185q-22 0 -33.5 -17t-11.5 -40q0 -33 24 -53t57 -20q65 0 65 55q0 30 -36 54q-33 21 -65 21zM163 420q-54 0 -54 -47q0 -33 29 -53q25 -17 59 -17q19 0 33.5 17t14.5 36
q0 23 -29 43.5t-53 20.5z" />
    <glyph glyph-name="ampersand" unicode="&#x26;" horiz-adv-x="682" 
d="M675 505q-10 -46 -40 -92l-57 -84q-1 -2 -1 -30q0 -99 -59 -188q-63 -93 -155 -119q-50 -14 -118 -14q-46 0 -121 27q-54 19 -77 40q-33 29 -33 76q1 3 4 18q19 100 93 160q37 30 162 93q-46 25 -86 72q-44 51 -51 98q-3 7 -3 12q0 47 58 80q50 29 101 29q32 0 113 -30
q10 9 14.5 21t10.5 25q3 6 14 10l17 8q-21 -69 -21 -90q0 25 19.5 -28.5t19.5 -70.5q0 -27 -16 -67q-19 -46 -42 -46q-40 0 -40 79q0 8 2 23.5t2 23.5q0 25 -53 43q-42 14 -74 14q-21 0 -48 -5q-38 -7 -38 -20q0 -48 60.5 -109.5t108.5 -61.5q5 0 13.5 1t13.5 1
q11 -38 26 -68l-7 -7q-73 -23 -116 -43q-58 -27 -121 -83q-74 -66 -88 -114v-15q27 -29 101 -29q207 0 337 145q8 8 23.5 46t15.5 48q0 1 -3 1q-57 -38 -80 -49q-28 -12 -101 -45q-30 -14 -69 -50q-44 -41 -45 -67l-19 2v20q0 9 13.5 45.5t19.5 45.5q53 79 117 119
q23 15 110 51q68 29 111 71q33 32 59 88h7zM435 463q0 32 -18 42q-5 -34 -5 -42q0 -16 9 -27q14 21 14 27z" />
    <glyph glyph-name="quotesingle" unicode="'" horiz-adv-x="188" 
d="M59 434l23 -212h34l19 212h-76z" />
    <glyph glyph-name="parenleft" unicode="(" horiz-adv-x="169" 
d="M104 441q-83 -130 -83 -230q0 -99 83 -216h19q-46 131 -46 209q0 72 46 234z" />
    <glyph glyph-name="parenright" unicode=")" horiz-adv-x="169" 
d="M40 -5q83 131 83 231q0 99 -83 215h-19q45 -131 45 -208q0 -72 -45 -234z" />
    <glyph glyph-name="asterisk" unicode="*" horiz-adv-x="364" 
d="M72 404l78 122l-123 -9v38l126 -7l-81 120l33 19l64 -129l66 129l33 -19l-80 -117l125 4v-38l-128 9l83 -122l-33 -19l-66 134l-64 -134z" />
    <glyph glyph-name="plus" unicode="+" horiz-adv-x="506" 
d="M425 140h-155l-1 -174l-50 18l1 157l-175 -2l26 53l149 -2l-1 176l52 -20l-1 -156l175 1z" />
    <glyph glyph-name="comma" unicode="," horiz-adv-x="149" 
d="M119 37q0 -42 -31 -62l-10 3q18 27 18 43q0 5 -2 11q-10 -22 -47 -22q-11 0 -15 32q-2 15 24 23q19 6 38 6q25 0 25 -34z" />
    <glyph glyph-name="hyphen" unicode="-" horiz-adv-x="394" 
d="M312 140l-282 1l30 58l278 -1z" />
    <glyph glyph-name="hyphen" unicode="&#x2010;" horiz-adv-x="394" 
d="M312 140l-282 1l30 58l278 -1z" />
    <glyph glyph-name="period" unicode="." horiz-adv-x="161" 
d="M102 66q2 0 4 -1q5 -5 5 -8q0 -10 -9 -48q-16 -5 -51 -12q-3 0 -11 4q-6 18 -6 39q0 19 68 26zM102 66q2 0 4 -1q5 -5 5 -8q0 -10 -9 -48q-16 -5 -51 -12q-3 0 -11 4q-6 18 -6 39q0 19 68 26zM102 66q2 0 4 -1q5 -5 5 -8q0 -10 -9 -48q-16 -5 -51 -12q-3 0 -11 4
q-6 18 -6 39q0 19 68 26z" />
    <glyph glyph-name="zero" unicode="0" horiz-adv-x="438" 
d="M397 230q0 -72 -56 -150q-63 -87 -140 -87q-91 0 -144 60q-49 57 -49 150q0 82 52 152q60 81 153 81q84 0 136 -62q48 -58 48 -144zM293 174q0 67 -22 126q-33 87 -104 87q-41 0 -53 -51q-6 -25 -6 -84q0 -56 21 -118q31 -93 95 -93q69 0 69 133z" />
    <glyph glyph-name="one" unicode="1" horiz-adv-x="249" 
d="M201 428q-14 -171 -15 -229q2 89 2 -165q-60 -29 -99 -52q-19 4 -19 85q0 118 9 237l4 53q-9 -17 -63 -112q-12 3 -16 3q22 43 81 149l100 41q10 2 14 0q3 -3 2 -10z" />
    <glyph glyph-name="two" unicode="2" horiz-adv-x="404" 
d="M362 184q-28 -122 -53 -186h-268q-9 4 -9 13q0 15 48 73q73 88 89 112q47 69 47 117q0 37 -21 61t-57 24q-31 0 -53 -17q-25 -19 -25 -49q0 -12 11 -20.5t23 -8.5q18 0 34 10q24 15 28 17q2 -8 0 -19q-5 -29 -37 -55q-26 -21 -36 -21q-10 -3 -20 -3q-27 0 -42.5 18
t-15.5 45q0 68 75 111q62 36 129 34q48 -1 83 -24q42 -27 42 -72q0 -54 -75 -128q-24 -23 -125 -120q55 0 177 -1l29 95q11 -2 22 -6z" />
    <glyph glyph-name="three" unicode="3" horiz-adv-x="396" 
d="M349 171q0 -28 -45 -85q-79 -99 -162 -99q-32 0 -79 17q-62 22 -62 56q0 20 21 83q64 -76 179 -76q73 0 73 40q0 73 -150 112q0 4 1 10q7 4 18 9q28 16 51 43q28 32 28 59q0 61 -84 61q-30 0 -57 -13q-34 -17 -34 -43q0 -18 36 -28q20 0 52 26q3 0 16 -7q-25 -90 -84 -90
q-66 0 -66 64q0 68 74 107q59 31 123 31q46 0 81 -16q46 -21 46 -61q0 -54 -89 -109q22 -9 66 -29q47 -23 47 -62z" />
    <glyph glyph-name="four" unicode="4" horiz-adv-x="438" 
d="M377 105h-84v-60l-90 -83v138l-182 2l-16 17l205 337l89 -49l1 -204h103zM203 198v187l-114 -185z" />
    <glyph glyph-name="five" unicode="5" horiz-adv-x="400" 
d="M354 155q0 -48 -71 -114t-119 -66q-41 0 -81 14q-59 21 -85 62q24 34 67 67q67 -64 146 -64q25 0 49.5 14.5t24.5 37.5q0 35 -62 55q-48 16 -94 16h-81v175q18 32 46 81q2 1 185 0q8 14 15 39.5t12 34.5h23q-22 -87 -60 -177h-187l1 -58q29 0 87 -1q184 -8 184 -116z" />
    <glyph glyph-name="six" unicode="6" horiz-adv-x="427" 
d="M376 175q0 -42 -57 -103q-54 -57 -98 -71q-16 -5 -44 -5q-7 0 -24 3.5t-26 3.5q-44 4 -82 71q-34 60 -34 104q0 99 63 177q67 84 164 84q30 0 65 -13q41 -15 49 -38q-8 -12 -27 -30q-22 -21 -30 -20l-11 -3q-20 33 -38 46q-21 15 -55 15q-81 0 -81 -133q0 -32 5 -39
q70 49 140 49q44 0 81 -26q40 -29 40 -72zM300 123q0 37 -39 59q-33 19 -72 19q-69 0 -69 -33q0 -41 39.5 -75t81.5 -34q59 0 59 64z" />
    <glyph glyph-name="seven" unicode="7" horiz-adv-x="366" 
d="M313 411q0 -14 -29 -63q-42 -71 -55 -99q-29 -63 -29 -109q0 -42 5 -61q8 -31 35 -31q6 0 28.5 5t29.5 6q10 -11 10 -23l-230 -53q-6 7 -6 26q0 84 151 305q-3 3 -176 3q-10 -11 -23 -41h-25l8 31q0 3 27 142h20q5 0 6 -4v-7q0 -4 5 -4l242 1q6 -6 6 -24z" />
    <glyph glyph-name="eight" unicode="8" horiz-adv-x="392" 
d="M336 169q0 -73 -62.5 -124.5t-137.5 -51.5q-42 0 -85 31q-47 33 -47 74q0 57 66 111q-47 37 -47 90q0 64 58 106q52 38 119 38q48 0 84 -17q47 -22 47 -65q0 -30 -22 -57q-13 -15 -40 -47q43 -30 47 -35q20 -21 20 -53zM255 330q0 28 -37 48q-31 17 -62 17q-23 0 -45 -14
t-22 -36q0 -18 52 -45t74 -27q13 0 26.5 21.5t13.5 35.5zM260 98q0 27 -63 60q-58 30 -89 30q-13 0 -21 -14t-8 -29q0 -36 48 -64q43 -26 81 -26q19 0 35.5 12.5t16.5 30.5z" />
    <glyph glyph-name="nine" unicode="9" horiz-adv-x="419" 
d="M370 249q0 -87 -63 -169q-68 -87 -153 -87q-45 0 -78 25q1 30 21 80q17 -21 28 -32q19 -19 32.5 -24t34.5 -5q71 0 73 87q6 37 6 63q0 21 -4 34q-59 -62 -125 -62q-57 0 -95 29q-42 31 -42 87q0 65 62 114q57 45 115 45q76 0 132 -54.5t56 -130.5zM256 268q0 33 -49.5 76
t-83.5 43q-33 0 -33 -59q0 -48 25 -80t72 -32q18 0 39 11q30 16 30 41z" />
    <glyph glyph-name="colon" unicode=":" horiz-adv-x="161" 
d="M102 166q2 0 4 -1q5 -5 5 -8q0 -10 -9 -48q-16 -5 -51 -12q-3 0 -11 4q-6 18 -6 39q0 19 68 26zM102 166q2 0 4 -1q5 -5 5 -8q0 -10 -9 -48q-16 -5 -51 -12q-3 0 -11 4q-6 18 -6 39q0 19 68 26zM102 166q2 0 4 -1q5 -5 5 -8q0 -10 -9 -48q-16 -5 -51 -12q-3 0 -11 4
q-6 18 -6 39q0 19 68 26zM102 66q2 0 4 -1q5 -5 5 -8q0 -10 -9 -48q-16 -5 -51 -12q-3 0 -11 4q-6 18 -6 39q0 19 68 26zM102 66q2 0 4 -1q5 -5 5 -8q0 -10 -9 -48q-16 -5 -51 -12q-3 0 -11 4q-6 18 -6 39q0 19 68 26zM102 66q2 0 4 -1q5 -5 5 -8q0 -10 -9 -48
q-16 -5 -51 -12q-3 0 -11 4q-6 18 -6 39q0 19 68 26z" />
    <glyph glyph-name="semicolon" unicode=";" horiz-adv-x="149" 
d="M119 37q0 -42 -31 -62l-10 3q18 27 18 43q0 5 -2 11q-10 -22 -47 -22q-11 0 -15 32q-2 15 24 23q19 6 38 6q25 0 25 -34zM102 166q9 0 9 -9q0 -10 -9 -48q-8 0 -25 -6t-26 -6q-17 0 -17 43q0 12 29 20q22 6 39 6zM102 166q9 0 9 -9q0 -10 -9 -48q-8 0 -25 -6t-26 -6
q-17 0 -17 43q0 12 29 20q22 6 39 6zM102 166q9 0 9 -9q0 -10 -9 -48q-8 0 -25 -6t-26 -6q-17 0 -17 43q0 12 29 20q22 6 39 6z" />
    <glyph glyph-name="less" unicode="&#x3c;" horiz-adv-x="343" 
d="M293 353l-161 -153l166 -152l-27 -35l-195 181l191 188z" />
    <glyph glyph-name="equal" unicode="=" horiz-adv-x="536" 
d="M456 220l-426 -1l30 48l419 2zM456 100l-426 -1l30 48l419 2z" />
    <glyph glyph-name="greater" unicode="&#x3e;" horiz-adv-x="343" 
d="M81 42l161 153l-166 152l27 35l195 -181l-191 -188z" />
    <glyph glyph-name="question" unicode="?" horiz-adv-x="223" 
d="M204 368q0 -32 -5 -63q-8 -49 -73 -106q-64 -45 -58 -73q10 -11 21 -11q3 0 7 1q-3 -4 -27 -28q-15 5 -24 22.5t-9 34.5l5 27q8 43 47 106l36 54q30 47 30 65q0 9 -5 18q-30 -10 -53 -53q-9 -16 -29 -68q-13 10 -27 19q-17 14 -17 27q0 24 33 57t58 36q8 1 23 1
q21 0 42 -20t22 -41q3 0 3 -5zM118 68q0 -33 -6 -36q-21 -10 -49 -21q-14 4 -14 51q22 14 66 39q3 -14 3 -33z" />
    <glyph glyph-name="at" unicode="@" horiz-adv-x="662" 
d="M417 51q-51 0 -51 61q0 8 1 17q-25 -40 -39 -52q-24 -24 -58 -21q-45 3 -77 34t-32 75q0 68 53.5 123.5t120.5 55.5q50 0 72 -54l14 38l67 9q-16 -40 -45 -117l-20 -54q-13 -36 -13 -54q0 -35 22 -35q55 0 99 64q38 56 38 101q0 88 -71 146q-67 54 -157 54
q-112 0 -187 -70t-75 -181q0 -112 76 -180.5t189 -68.5q131 0 209 114l36 1q-39 -68 -106 -107t-145 -39q-123 0 -214 81q-95 85 -95 206q0 122 98 201q91 75 216 75q104 0 186 -63q88 -68 88 -169q0 -77 -61.5 -134t-138.5 -57zM336 316q-48 0 -82 -66q-28 -54 -28 -99
q0 -27 17 -48t43 -21q23 0 63 78q38 73 38 103q0 23 -14 38t-37 15z" />
    <glyph glyph-name="A" unicode="A" horiz-adv-x="759" 
d="M642 -10q-7 0 -44 62q-16 27 -43 76q-25 -77 -68.5 -110t-123.5 -33q-113 0 -230 69q-134 79 -134 182q0 233 156 351q138 105 379 105q137 0 137 -25q0 -19 -16 -64q-18 -50 -33 -50l-34 10l-1 -5q0 -16 12.5 -47.5t12.5 -48.5q0 -21 -9.5 -61t-9.5 -61q0 -29 31 -108.5
t51 -95.5q4 -11 12 -11t22 24q6 10 18 31q1 0 3 -1q5 2 6 2q2 -1 1 -8q-13 -54 -41 -113q-33 -70 -54 -70zM574 383q12 45 12 72q0 45 -20 92q-8 -57 -8 -87q0 -59 16 -77zM549 573q-35 7 -68 7q-108 0 -243 -50q-160 -59 -189 -142q-10 -28 -10 -67q0 -99 160 -162
q128 -50 247 -50q33 0 60 15q32 17 32 48q0 30 -20.5 88t-20.5 89q0 52 17 114z" />
    <glyph glyph-name="B" unicode="B" horiz-adv-x="903" 
d="M886 506q0 -149 -230 -210q15 -8 62 -18q43 -10 58 -21q23 -18 23 -58q0 -102 -62 -153q-57 -48 -161 -48q-26 0 -90 20q-58 18 -87 32q-1 -4 0 -138h-23q-14 159 -112 266q-5 5 -176 147q-91 75 -91 158q0 121 203 171q125 31 305 31q137 0 233 -29q148 -45 148 -150z
M857 490q-6 49 -138 64q-60 7 -199 7q-142 0 -298 -21q-179 -24 -198 -59q-2 -38 40 -52q242 -83 302 -281v380h33v-403q0 -16 70 -29q55 -10 88 -10q51 0 109 17q78 23 91 60q-22 69 -307 101v55q116 16 253 69q148 58 154 102z" />
    <glyph glyph-name="C" unicode="C" horiz-adv-x="672" 
d="M464 -11l17 -66h-28q-14 27 -25 65q-429 16 -429 308q0 149 105 273q110 129 257 129q59 0 99 -28q34 -24 65 -80q16 32 28 83l20 85l25 -6q2 -8 -3 -36q-16 -92 -53 -191q4 -21 3 -26q1 -10 3 -53q1 -28 -1 -61q-5 -73 -39 -108q-37 11 -37 63q-25 -75 -25 -153
q0 -72 6 -97q39 2 108 15q43 8 105 22q-22 -63 -105 -104q-47 -23 -96 -34zM520 487q-22 -69 -22 -120q0 -18 7 -51q17 54 17 131q0 20 -2 40zM373 590q-124 0 -225.5 -114.5t-101.5 -239.5q0 -81 116 -121q83 -29 187 -29q56 0 63 1q-2 17 -6 52q-10 94 31 216q4 11 47 129
q12 33 12 43q0 29 -47 48q-38 15 -76 15z" />
    <glyph glyph-name="D" unicode="D" horiz-adv-x="801" 
d="M766 328q0 -96 -83 -213q-89 -126 -181 -126q-39 0 -111 37l-108 58q-6 -20 -17 -58q-13 -45 -23 -45q-12 -2 -85.5 99.5t-73.5 125.5q0 17 29 47t47 36l112 -80q6 33 18 101q-91 25 -169 62q-120 57 -120 109q0 101 136 167q112 54 228 56q11 31 16 91q10 -10 21 -8
q2 -18 -3 -44q-7 -36 -7 -44q142 -31 251 -127q123 -109 123 -244zM673 248q0 124 -91 219q-82 87 -209 121q-19 -118 -26 -178q47 -4 142 -14q-1 -3 -8 -20q-14 -33 -60 -55q-41 -19 -81 -19q-8 0 -16 1q-8 -37 -19 -110q47 -30 135 -73q106 -52 134 -52q54 0 80 67
q19 48 19 113zM341 596q-33 15 -111 15q-55 0 -98 -11q-67 -17 -67 -57q0 -37 104 -79q65 -26 139 -45q21 97 33 177zM256 97q-10 7 -93 49q27 -39 77 -99q4 17 16 50z" />
    <glyph glyph-name="E" unicode="E" horiz-adv-x="691" 
d="M492 535q-6 -23 -6 -76q0 -14 4 -34q5 -27 12 -28q22 12 22 29q0 35 -8 58q-5 15 -24 51zM670 168q-6 -15 -12 -43q-16 -73 -140 -114q-94 -31 -193 -31q-122 0 -215 39q-126 53 -126 157q0 74 48 121q38 36 113 61q3 1 129 34q-51 30 -88 73q-45 53 -45 102q0 61 54 102
q50 39 112 39q49 0 89 -20l78 -40q0 32 10 62h16l-5 -72q65 -72 65 -153q0 -34 -15 -72q-18 -46 -45 -48q-37 25 -46 58q-5 18 -5 75q0 23 8 54q-67 64 -212 64q-34 0 -48 -7q-21 -10 -21 -42q0 -58 81 -110l130 -68q16 -55 16 -96v-4q-107 0 -220 -21q-167 -31 -167 -92
q0 -45 116 -71q84 -19 154 -19q98 0 198 19q118 23 186 63z" />
    <glyph glyph-name="F" unicode="F" horiz-adv-x="778" 
d="M754 628q-40 -73 -140 -73q-11 0 -32.5 2t-32.5 2q-24 0 -35 -92q-6 -50 -6 -93q0 -48 2 -70q-28 0 123 -14q-13 -19 -37 -58q-59 13 -78 13q-7 0 -8 -2q0 -15 2.5 -44t2.5 -44q0 -25 -4 -39q-16 -58 -66 -103q-53 -49 -110 -49q-66 0 -116 79q-43 68 -43 124
q0 8 32.5 39.5t43.5 37.5q5 -76 39 -141q45 -86 120 -83q13 18 15 50v47q0 9 -12 135l-221 27l39 58l182 -22q-2 154 90 242l-339 50q-27 0 -29 -1q-47 -35 -47 -127q0 -39 2 -45q5 -25 31 -56q24 15 43 64q10 25 29 91h20v-15q0 -50 -34 -115q-42 -81 -95 -81q-34 0 -62 53
q-24 45 -24 70q0 107 117 174q92 53 183 53q46 0 164 -18t138 -20q25 -2 75 -4l55 -2h23z" />
    <glyph glyph-name="G" unicode="G" horiz-adv-x="748" 
d="M762 628q0 -31 -62 -112l-24 5q13 23 43 67q3 15 -17 15q-248 0 -494 -120q-189 -92 -189 -181q0 -58 157 -58q223 0 360 107q10 92 16 117q14 61 46 98l12 2q35 -36 35 -89q0 -51 -36 -117l-36 -66q0 -37 5 -174h141q-10 -23 -54 -79q-19 -1 -77 -1q-1 -48 -27 -109
q-31 -73 -71 -73q-11 0 -75 20q-298 93 -318 159q-5 17 -5 21q0 25 37 48q23 14 418 14q-5 61 -10 144q-1 -1 -31 -25q-45 -37 -119 -61.5t-134 -24.5q-74 0 -159 41q-101 49 -101 113q0 121 121 220q101 82 262 132q143 44 259 44q42 0 79 -17q48 -22 48 -60zM615 490
q0 37 -6 39q-9 -11 -18.5 -45.5t-12.5 -66.5l-3 -33q40 34 40 106zM553 34q0 9 -3 13h-315q-20 0 -20 -8t70 -30l9 -3q64 -19 228 -70q31 3 31 98z" />
    <glyph glyph-name="H" unicode="H" horiz-adv-x="782" 
d="M758 271q0 -20 -36 -97q-3 0 -17 2q-12 2 -17 -3q-2 -7 1 -74q2 -62 -3 -79q-4 -9 -18 -12q-23 -6 -28.5 -8.5t-52.5 -8.5v186h-251q-52 -274 -160 -274q-93 0 -161 251q-22 82 -22 109q0 21 28 49q25 25 48 35q20 -102 47 -190q56 -185 103 -185q50 0 55 205h-84l19 94
h69v169q0 83 17 152q23 93 70 122h7q-26 -88 -26 -139v-301h243v313q0 40 5 56q10 32 92 69q11 5 19 5q14 0 13 -20q-1 -19 -25 -426q32 2 49 2q16 0 16 -2z" />
    <glyph glyph-name="I" unicode="I" horiz-adv-x="631" 
d="M622 269q-14 -27 -35 -55q-33 -45 -54 -45q-7 0 -20 2t-20 2q33 33 54 -80q15 -80 15 -134l-25 -3q-14 49 -28 99q-17 56 -40 94l-17 -46q-11 -25 -26 -42q-56 -63 -179 -63q-70 0 -153 50q-102 61 -102 147q0 63 73 83q47 13 111 9l193 -12q18 -5 29 -5t11 5
q-5 12 -29 48q-84 129 -84 203q0 56 31 100q35 50 88 50q39 0 39 -37q0 -24 -2 -27q-3 -8 -28 -25q6 -79 43 -319q67 -8 77 -8q-11 0 78 9zM438 286q-16 99 -37 299q-47 -22 -47 -70q0 -40 35 -125q25 -60 49 -104zM428 169q-91 14 -187 18q-17 1 -59 3q-38 2 -49 2
q-91 0 -106 -18q10 -40 92 -65q65 -20 117 -20q112 0 192 80z" />
    <glyph glyph-name="J" unicode="J" horiz-adv-x="506" 
d="M484 215l-57 -8q-37 -5 -57 -19q25 -36 67 -106l-13 -14l-70 104q-89 -342 -228 -342q-31 0 -62 12q-35 13 -49 36q-9 14 -18 44.5t-9 47.5q0 75 69.5 162t147.5 117q17 6 57 21q-21 16 -73 64q-59 59 -59 119q0 104 185 195q29 62 30 65q19 33 49.5 56t53.5 23t23 -26
q0 -30 -109 -123q-15 -35 -10 -139q-8 -112 9 -207q87 5 108 -28q12 -19 13 -31zM434 746q4 6 4 10q0 5 -6 6q-21 -6 -39.5 -28.5t-19.5 -44.5q8 6 38 31q24 19 23 26zM329 293q-18 46 -26 139q-4 49 -1 93q5 68 5 56q-27 -11 -69.5 -68.5t-42.5 -84.5q0 -35 62 -118
q8 -10 30 -27q16 3 42 10zM324 175q-218 -83 -304 -199q-5 -7 -4 -22q2 -22 2 -23q14 -19 63 -19q90 0 164 88q66 80 79 175z" />
    <glyph glyph-name="K" unicode="K" horiz-adv-x="787" 
d="M828 -93q-8 -10 -51 -20q-38 -9 -58 -9q-28 0 -125 101q-41 44 -123 131q-44 45 -90 75l-11 -16q-2 -69 -58.5 -131t-124.5 -62q-40 0 -74 60q-10 18 -53 123q-32 79 -60 105q58 28 91 28q20 0 80.5 -138t73.5 -138q33 0 33 180v43q-2 1 -22 7q-16 5 -18 12q-4 12 42 23
q4 51 10 183q1 26 5 72q-22 -74 -76 -159l-20 7q77 137 102 209q2 7 5 32.5t21 38.5q9 6 42 18q38 13 57 15q-26 -69 -36 -224l-4 -58v-110q75 37 133 112q34 47 103 142q61 83 119 120l25 -6q-44 -37 -81 -103q-56 -101 -64 -112q-100 -143 -225 -173q36 -20 102 -66
q60 -52 165 -155q112 -110 165 -157z" />
    <glyph glyph-name="L" unicode="L" horiz-adv-x="768" 
d="M758 20q-23 -35 -62 -62q-44 -30 -82 -30q-34 0 -144 67q-46 28 -113 71q-68 -107 -181 -107q-73 0 -123.5 45t-50.5 117q0 51 41.5 91.5t92.5 40.5q68 0 195 -54l34 -22v122q-23 24 -59 75q-33 70 -33 153q0 35 12 50q5 -5 19 -5q1 -62 6 -84q11 -47 46 -76q-2 12 -2 28
q0 100 42 182q55 107 156 107q73 0 95 -82q11 -41 9 -144q-2 -122 -67 -185q-54 -52 -126 -48q-7 0 -67 20q1 -95 0 -128q236 -150 312 -150q22 0 50 8zM622 522q0 49 -37 82.5t-86 33.5t-83 -61q-26 -47 -26 -84v-99q37 -14 71 -14q67 0 112 37q49 39 49 105zM323 84
q-8 8 -114 57q-113 52 -138 52q-20 0 -20 -35q0 -61 62 -101q51 -33 103 -33q71 0 107 60z" />
    <glyph glyph-name="M" unicode="M" horiz-adv-x="844" 
d="M817 48q6 -9 -30 -35.5t-49 -26.5q-69 0 -69 317q0 38 2 107q-29 -46 -63 -144q-40 -116 -58 -152q-39 -77 -91 -99l-17 10q-31 72 -31 188q0 42 6 127t6 127v146q0 8 -13 46q-69 -94 -109 -290l-60 -289q-40 -131 -122 -131q-11 0 -29 4q-86 19 -109 216l-12 104
q24 14 108 58q18 -338 75 -338q44 0 82 186q59 285 82 352q66 193 177 207q37 -36 37 -137q0 -52 -4.5 -156.5t-4.5 -156.5q0 -80 7 -99q25 65 78 193q51 111 148 127q21 -12 21 -42v-268q4 -96 42 -151z" />
    <glyph glyph-name="N" unicode="N" horiz-adv-x="669" 
d="M691 588q-11 -43 -40 -119q-4 16 -17 37q-53 0 -53 -83v-328l10 -32q10 -33 11 -43q-2 -2 -37 -30q-23 -19 -42 -19q-65 157 -190 472q-4 -64 -4 -308q0 -81 -37 -170q-46 -110 -115 -110q-43 0 -114 107q-68 102 -69 150q35 48 77 90q71 -191 145 -270q62 45 78 178
q5 42 5 207v120q0 65 -33 162q-4 10 37 47q38 36 53 41l195 -536q1 14 1 38q0 26 -1.5 76.5t-1.5 76.5q0 269 105 264q8 0 37 -18z" />
    <glyph glyph-name="O" unicode="O" horiz-adv-x="827" 
d="M780 387q0 -56 -21 -111q-51 -134 -144 -207q-100 -79 -237 -79q-129 0 -245 86q-126 94 -126 218q0 118 102 197q94 72 216 72q44 0 105 -14q77 -17 91 -43q7 -12 -5 -12q-3 0 -73 24t-124 21q-82 -5 -150 -47q-86 -53 -86 -135q0 -46 39 -101q34 -49 77 -79
q56 -39 132 -66q81 -28 145 -28q109 0 162 43q58 47 58 153q0 159 -102 242q-94 75 -256 75h-71q-41 -3 -83 -16q72 65 94 77q43 24 116 24q146 0 254 -65q132 -80 132 -229z" />
    <glyph glyph-name="P" unicode="P" horiz-adv-x="963" 
d="M930 527q0 -5 -7 -34q-4 -18 -10 -49q-7 -36 -45 -82.5t-72 -59.5q-18 -7 -65 -23q-71 -13 -160 -15q-137 -2 -158 -4q-7 -41 -9 -157l-3 -150q-2 -3 -7 -2q-9 3 -12 3q2 74 -58 177q-10 -18 -23 -55t-21 -53q-5 -1 -11 6.5t-6 13.5q0 9 20.5 59t20.5 60q0 23 -223 237
q-49 47 -59 86q-14 55 -14 57q0 20 11 42q22 45 203 69q4 1 187 20l19 136l22 -2q0 -46 -8 -134q5 0 14 -4q77 0 245 -33q229 -45 229 -109zM884 443v17q-28 20 -67 34l-72 24q-25 9 -111 29q-103 24 -132 25l-68 2l-15 -116v-111l17 1q17 0 60 2l41 2q96 0 191 22
q110 25 156 69zM390 545l5 35q-29 -5 -77 -5q-71 0 -213 -15q-26 -3 -40 -7q-20 -6 -18 -24q0 -6 121 -100q130 -101 162 -158q10 37 34 142q27 119 26 132zM385 386q-2 -14 -19 -84q-15 -60 -15 -66q0 -5 24 -54q0 -48 5 59t5 145z" />
    <glyph glyph-name="Q" unicode="Q" horiz-adv-x="790" 
d="M743 392q0 -129 -119 -249q13 -16 110 -100q-19 -24 -80 -85l-110 101q-96 -60 -194 -60q-120 0 -219 67q-106 72 -127 185q-2 11 -2 21q0 24 10 35q-11 51 -9 85q8 144 133 221q101 62 234 62q135 0 239 -60q134 -77 134 -223zM665 324q0 125 -129 193q-100 53 -218 53
q-96 0 -179 -45q-99 -54 -99 -139q0 -11 2 -23l31 53q32 46 58 54q2 -1 9 -7q-26 -25 -49.5 -73t-23.5 -82q0 -42 143 -76q113 -27 163 -27q40 0 58 6q9 3 36.5 21.5t32.5 18.5q6 0 42 -33q47 -43 62 -54q61 74 61 160zM478 120q-47 58 -67 58q-11 0 -35 -2.5t-35 -2.5
q-148 0 -274 68q15 -62 133 -103q97 -34 179 -34q-7 0 99 16z" />
    <glyph glyph-name="R" unicode="R" horiz-adv-x="869" 
d="M858 -146q-3 -8 -39.5 -30.5t-44.5 -22.5q-16 0 -118 150q-128 188 -145 210q0 -1 -12 -70q-10 -58 -31 -103q-34 30 -130 101l-89 -128l-21 18q28 40 84 121q-8 5 -26 15q-142 63 -207 127q-80 79 -80 187q0 90 109 163q129 86 332 86q111 0 212 -24q165 -39 165 -129
q0 -34 -21.5 -90.5t-44.5 -84.5q-58 -72 -157 -96q-14 1 -33 -3q148 -230 297 -397zM771 456q0 58 -146 95q-103 26 -159 26q-24 0 -72.5 -3t-72.5 -3q-58 0 -157 -27q-142 -39 -142 -101q0 -54 90 -112q15 -10 110 -65q25 -19 73 -43q54 -27 72 -38q23 25 54 73
q-58 17 -65 43q46 57 64 57q9 0 69 -13l1 197l32 2q4 -34 2 -95q-3 -79 -2 -108q136 29 146 32q103 33 103 83zM485 194q-13 24 -38 49q-56 -70 -56 -75q0 -3 28 -29q31 -29 47 -57q19 35 19 112z" />
    <glyph glyph-name="S" unicode="S" horiz-adv-x="884" 
d="M840 269q0 -65 -85 -152q-74 -76 -145 -107q-46 -20 -115 -20q-154 0 -296.5 84.5t-212.5 219.5l5 11l12 -2q96 -98 249 -153q141 -50 289 -50h87q50 0 91 22q48 28 48 74q0 75 -304 124q-75 12 -162 45q-119 45 -119 91q0 68 39 109q52 54 173 95q113 38 197 38
q47 0 67 -9q29 -12 41 -51l11 -17q38 30 117 84l13 -14l-127 -101q-73 -60 -119 -110q-23 0 -23 15q0 9 109 105q-17 3 -41 3q-102 0 -228 -26q-152 -31 -193 -78q10 -18 27 -23q74 -21 328 -67l93 -17q54 -11 79 -20q43 -15 69 -43t26 -60z" />
    <glyph glyph-name="T" unicode="T" horiz-adv-x="661" 
d="M742 509l-61 11q-78 14 -105 14q-31 -429 -31 -554l-26 7q2 24 21 340l-30 -115q-7 -34 -23 -101q-45 -187 -109 -187q-43 0 -87 76q-27 46 -49 114q-13 39 -13 49q0 18 31 50q15 15 45 46q15 -25 44 -112q24 -72 60 -105l11 -3q25 -7 68 184q28 125 58 310
q-19 7 -112 16q-41 3 -124 11q-10 -21 -21 -60l-17 -61q-26 -79 -37 -102q-32 -65 -74 -65q-40 0 -89 57q-45 53 -52 96q-2 10 -11 40q-8 25 -8 40q0 95 87 163q20 16 54 16q27 0 82 -5.5t82 -5.5q12 26 21 63q13 53 17 64q13 0 27 -7q-17 -46 -32 -123l430 -55q2 -1 2 -6
q0 -13 -29 -100zM276 567q-80 12 -186 12q-33 0 -48 -14q9 -90 94 -205q24 -33 36 -33q31 0 104 240z" />
    <glyph glyph-name="U" unicode="U" horiz-adv-x="790" 
d="M581 -30q-59 0 -99 76q-9 16 -50 129q-35 -78 -85 -129q-63 -66 -133 -66q-94 0 -141 89q-38 71 -38 173q0 128 60 259q-84 67 -100 112q48 42 93 72q20 -28 63 -84q16 35 58 74q49 45 93 45q18 0 34 -12.5t16 -30.5q0 -51 -43 -100q-36 -41 -88 -67q-7 -2 -41 -16
q-9 -1 -21 -4q-20 -72 -20 -184q0 -82 31 -141q39 -74 114 -74q48 0 94 59q41 53 48 105q2 14 2 73q0 210 58 281q18 21 50 39q28 13 57 27q-3 -19 -18 -84q-27 -114 -27 -290q0 -205 99 -205q31 0 64 25q12 9 53 50q10 -8 10 -9q0 -26 -61 -99t-86.5 -83t-45.5 -10z
M289 625q0 12 -10.5 21.5t-22.5 9.5q-27 0 -51.5 -33.5t-26.5 -62.5q8 -6 18 -6q17 0 54 15q39 37 39 56z" />
    <glyph glyph-name="V" unicode="V" horiz-adv-x="722" 
d="M688 572q0 -61 -74 -80q-31 -8 -62 -15q7 -4 20 -12q44 -29 70 -97q23 -60 23 -121q0 -105 -59 -184q-64 -88 -166 -88q-87 0 -159 64q-69 61 -90 148q-16 67 -12 111l32 354q1 15 -5 31q-8 20 -22 20q-30 0 -51 -34q-46 -73 -46 -208q-21 -9 -77 -18q-8 54 -8 73
q0 80 31 142q39 77 112 77q181 0 181 -202q-2 -20 -11 -122l-21 -246v-28q0 -48 11 -67q15 -27 59 -27q91 0 149 89q51 78 51 175q0 35 -12 89q-15 69 -36 69q-4 0 -9.5 -2.5t-8.5 -2.5q-7 0 -36 25q-11 11 -35 32q24 34 70 43q17 3 86 13q18 4 52.5 25t51.5 25q1 -2 1 -51z
" />
    <glyph glyph-name="W" unicode="W" horiz-adv-x="960" 
d="M947 508q-27 -27 -123 -69q50 -72 50 -164q0 -112 -60 -208q-69 -110 -174 -110q-96 0 -162 119q-47 -50 -89 -72q-48 -25 -110 -25q-12 0 -35 5q-26 5 -36 6q-42 3 -75 82q-28 66 -28 118q0 59 50 151q17 31 92 147q50 77 50 105q0 18 -18 18q-69 0 -139 -93
q-60 -80 -78 -158q-30 13 -62 41q-2 9 -2 19q0 86 77 178q80 96 165 96q103 0 103 -145q0 -80 -46 -180q-19 -42 -86 -159q-47 -82 -47 -109q0 -44 76 -44q88 0 207 164q-3 62 -3 83q0 67 24 143t63 127h26q33 -42 33 -146q0 -130 -43 -232q-1 -2 -20 -38q-15 -28 -15 -34
q0 -5 7 -13q46 -54 110 -54q30 0 68 19q119 59 119 291q0 48 -33 74q-10 8 -28 11q-22 4 -30 5q-9 27 -25 79q3 2 7 2q6 0 17 -3.5t16 -3.5q116 0 169 39q20 -25 38 -62zM541 519q-24 -35 -40 -100q-14 -58 -14 -108v-34q20 30 34 89q12 53 12 96q0 9 4 28.5t4 28.5z" />
    <glyph glyph-name="X" unicode="X" horiz-adv-x="601" 
d="M567 286q0 -88 -73 -191q-79 -111 -163 -111q-91 0 -100 175l-6 115l-186 -359l-29 16l188 353h-130q17 19 61 70h85q-11 216 -87 216q-48 0 -82 -81q-22 -52 -33 -124l-22 4l9 81q7 62 66 144q65 90 122 90q74 0 74 -132v-24q-1 -21 -1 -32v-57q0 -8 -3 -33
q-3 -21 -1 -33q44 64 112 177q17 30 53.5 91.5t67.5 61.5q17 0 29 -18.5t12 -36.5q0 -38 -36 -40q-3 4 -8 17.5t-6 13.5q-3 0 -16 -5q-5 -2 -177 -280h115q-14 -22 -58 -78q-33 7 -58 7q-16 0 -26 -3q1 -66 33 -123q38 -68 98 -68q56 0 100 63q39 57 39 116q0 32 -20 32
q-36 0 -63 -53q-16 -41 -33 -81q-6 -1 -13.5 4t-7.5 11q0 35 48 104.5t80 69.5q46 0 46 -69z" />
    <glyph glyph-name="Y" unicode="Y" horiz-adv-x="748" 
d="M709 -14l-21 -60q-11 -30 -34 -54q-6 -9 -38 -15q-40 -8 -44 -9q-4 -73 -10 -120q-12 -96 -31 -100q-3 -2 -8 -2q-13 0 -65 22q-58 24 -71 28l-91 26q-64 23 -64 53q0 48 34 98q24 35 124 69q71 24 145 38q-1 35 -1 88q0 52 1 123q-23 -37 -71.5 -109.5t-98.5 -72.5
q-30 0 -52 47q-19 40 -19 75q0 65 43 199.5t43 204.5q0 47 -43 74q-38 23 -87 23q-74 0 -121 -118q-38 -95 -38 -181q0 -33 11 -58q15 -34 43 -34q43 0 87 84q33 63 48 125q6 7 15 7l9 -13q-6 -39 -15 -75q-53 -218 -182 -218q-46 0 -75 41q-26 36 -26 84q0 137 98 277
q107 153 238 153q111 0 111 -113q0 -62 -42.5 -178.5t-42.5 -178.5q0 -94 56 -94q39 0 76 44q34 40 40 81q25 187 30 208q27 124 87 184q15 21 23 21q1 -1 -1 -2q12 -4 12 -24q0 -66 -84 -301q-11 -30 -38 -108v-263q89 19 140 24zM542 -154q-146 -29 -221 -60
q29 -4 106 -48.5t90 -44.5q9 0 15 39q9 59 10 114z" />
    <glyph glyph-name="Z" unicode="Z" horiz-adv-x="756" 
d="M733 193q-42 -76 -99 -132q-74 -74 -140 -74q-38 0 -88 28q-30 18 -91 51q-56 28 -125 28q-132 0 -195 -105q-5 6 -14 20l233 281q-45 6 -70 11q-47 8 -64 19q0 15 1.5 44t1.5 44q0 21 22 13q66 -24 202 -31q79 84 144 166q-45 17 -105 17q-56 0 -123 -13l-114 -24
q8 29 24 61q20 42 37 50q27 12 101 22q65 8 106 8q139 0 178 -13q11 -4 13 -13q0 -5 1 -10l-217 -245q0 -2 -3 -4.5t-3 -3.5t1 -2l167 -1q51 0 115 20q-69 -123 -195 -123q-16 -2 -45 -2q-48 0 -131 5q-53 -57 -133 -155q105 55 185 55q55 0 143 -48t130 -48q58 0 133 111
q4 0 17 -7z" />
    <glyph glyph-name="bracketleft" unicode="[" horiz-adv-x="230" 
d="M188 691h-174v-745h175v34h-88v673h87v38z" />
    <glyph glyph-name="backslash" unicode="\" horiz-adv-x="75" 
d="M-10 1q-11 0 -11 9q10 16 67 109l14 -10q-67 -108 -70 -108z" />
    <glyph glyph-name="bracketright" unicode="]" horiz-adv-x="230" 
d="M15 691h174v-745h-175v34h88v673h-87v38z" />
    <glyph glyph-name="asciicircum" unicode="^" horiz-adv-x="790" 
d="M458 744l-92 38l-97 -38h-48l108 84h71l107 -84h-49z" />
    <glyph glyph-name="underscore" unicode="_" horiz-adv-x="479" 
d="M-1 -64l480 -1v-30h-480v31z" />
    <glyph glyph-name="grave" unicode="`" horiz-adv-x="262" 
d="M40 267l116 -75l27 3l-79 89z" />
    <glyph glyph-name="a" unicode="a" horiz-adv-x="330" 
d="M349 102l-31 -27q-24 -21 -47 -37q-57 -40 -95 -40q-20 0 -46 33q16 0 -18.5 -17t-44.5 -17q-18 0 -43 11q-31 21 -31 52q0 29 13 46q40 53 99 50q31 -2 58 -22q25 9 66 23v-79q0 -34 10 -34q6 0 26 12q9 6 75 56zM132 113l-19 10q-9 4 -24 4q-25 0 -25 -19t15.5 -37.5
t34.5 -18.5q3 0 18 7v54z" />
    <glyph glyph-name="b" unicode="b" horiz-adv-x="285" 
d="M249 105q0 -43 -45 -74q-40 -29 -85 -29q-87 0 -98 52q-5 21 -5 99v125q2 10 4 34q2 43 37.5 90.5t76.5 47.5q27 0 44 -28q14 -24 14 -53q0 -51 -40 -124q-11 -20 -38 -59v-54q32 25 69 25q66 0 66 -52zM127 429q-14 0 -14 -23v-188q17 26 29 70t12 76q0 18 -6 38
q-7 27 -21 27zM198 74q0 41 -43 41q-35 0 -41 -10q-4 -6 0 -32q3 -23 19 -30q10 -6 23 -6q42 0 42 37z" />
    <glyph glyph-name="c" unicode="c" horiz-adv-x="247" 
d="M264 104q-12 -15 -28 -33q-47 -40 -64 -51q-40 -25 -77 -25q-93 0 -93 74q0 35 33.5 62t68.5 27q58 0 58 -19q0 4 -6 -11q-2 -8 -11 -17t-16 -9q-4 0 -14 15t-27 15q-19 0 -19 -20q0 -11 10 -25q27 -38 68 -38q51 0 110 62q2 2 7 -7z" />
    <glyph glyph-name="d" unicode="d" horiz-adv-x="343" 
d="M359 103q-21 -40 -57 -71q-42 -36 -81 -36q-31 0 -52 37l-3 1q-10 -7 -25 -22h-4q-25 -14 -49 -14q-28 0 -51 15t-27 41q-2 12 -2 19q0 87 119 82q-13 73 -13 123q0 48 27 102q31 62 73 62q70 0 70 -97q0 -67 -31 -150q-1 -4 -11.5 -25t-10.5 -22q0 -18 16 -58
q17 -44 31 -44q25 0 74 64q8 -4 7 -7zM246 301q2 21 -6 67q-9 52 -25 53q-16 -26 -16 -88q0 -71 24 -143l2 -6q12 33 21 117zM154 62l-23 74h-10q-12 0 -28 -14.5t-15 -25.5q3 -49 44 -49q6 0 15 1q17 8 17 14z" />
    <glyph glyph-name="e" unicode="e" horiz-adv-x="262" 
d="M282 102q-2 -13 -52 -52q-54 -42 -88 -46q-57 -7 -48 -7q-34 0 -61 16q-32 18 -32 50q0 49 42 76q35 23 87 23q60 0 60 -34q0 -12 -20 -33q-11 -11 -55 -27q1 -6 23 -12q18 -5 28 -5q26 0 70.5 30t38.5 30q8 0 7 -9zM119 115q0 24 -24 24q-20 0 -20 -22q0 -23 17 -34h3
q10 0 17 10.5t7 21.5z" />
    <glyph glyph-name="f" unicode="f" horiz-adv-x="196" 
d="M209 421q-3 -8 -12 -22q-11 -17 -15 -17q-1 0 -15.5 23t-29.5 20q6 1 -7 2q-18 -15 -18 -89v-185h64l1 -14l-65 -2v-21q0 -9 1 -29.5t1 -32.5q0 -97 -23 -167q-34 -105 -113 -105q-32 0 -45 28q-7 15 -11 57q18 56 93 215q3 6 1 53l-42 1v17h42v59l1 61q1 66 40 120
q29 40 66 49q12 3 37 3q8 0 28.5 -9t20.5 -15zM13 36q-22 -28 -38 -77.5t-16 -86.5q0 -71 24 -71q28 0 29 113z" />
    <glyph glyph-name="g" unicode="g" horiz-adv-x="347" 
d="M371 93q-110 -67 -116 -81.5t-2 -56.5q3 -28 -11 -76q-55 -97 -136 -97q-66 0 -66 68q0 51 79 109q14 10 28 21q0 43 1 38q-10 -6 -27 -14q-29 -10 -56 -10q-25 0 -46 18.5t-21 43.5q0 43 35.5 73t79.5 30q23 0 97 -14l45 19v-125l108 68q3 -4 8 -14zM148 107
q0 15 -16 24t-32 9q-8 0 -17.5 -8t-9.5 -16q0 -27 13 -52q16 -31 40 -31q21 0 21 23v25q0 7 1 16v10zM149 -112v67q-23 -8 -39 -39q-14 -25 -18 -54q-3 -20 4 -38q8 -23 27 -23q26 0 26 87z" />
    <glyph glyph-name="h" unicode="h" horiz-adv-x="364" 
d="M392 97q-132 -107 -172 -107q-39 0 -46 42q0 16 1 38q1 29 -6 30q-16 0 -63 -88l-90 -19q0 284 2 307q7 84 60 131q30 27 52 27q28 0 45 -27q15 -23 15 -52q0 -64 -52 -156q-8 -14 -29 -39v-125l8 7q14 23 49 68q6 6 35 18t38 12q29 0 29 -58q0 -66 -1 -38q1 -30 11 -30
q3 0 6 2q33 20 100 70zM150 374q0 65 -20 63l-5 -3q-17 -24 -17 -90v-124q19 25 31 74q11 44 11 80z" />
    <glyph glyph-name="i" unicode="i" horiz-adv-x="209" 
d="M131 270q0 -3 -7 -18q-9 -24 -24 -50q-24 -6 -76 -21v72q82 28 96 28q11 0 11 -11zM17 130v-99q-2 -13 13 -23q11 -9 38 -9q22 0 56 19q108 61 118 82q2 3 -9 10q-62 -47 -102 -68q-5 -2 -8 -2q-10 0 -10 18v73q0 4 1.5 12.5t1.5 12.5q0 6 -4 6z" />
    <glyph glyph-name="j" unicode="j" horiz-adv-x="213" 
d="M118 26q25 14 119 85l13 -16l-129 -95v-41q0 -114 -70 -167q-44 -33 -81 -33q-25 0 -41.5 20t-16.5 46q0 70 107 155q2 138 -1 150q96 32 101 33zM20 -168v112q-25 -15 -43.5 -48.5t-18.5 -62.5q0 -19 8 -34q10 -19 27 -16q27 4 27 49zM121 267q0 -8 -8 -33.5t-13 -31.5
q-26 -6 -76 -21v72q83 29 88 29q9 0 9 -15z" />
    <glyph glyph-name="k" unicode="k" horiz-adv-x="385" 
d="M412 100q-8 -15 -45 -51q-33 -33 -44 -40q-33 -22 -67 -22q-29 0 -78.5 30.5t-51.5 30.5q-3 0 -4 -1q-1 -8 0 -32q-44 -15 -104 -31v272q0 72 31 142q39 89 103 89q24 0 43 -25.5t19 -49.5q1 -67 -67 -178q-22 -36 -24 -38v-92q8 8 17 18q53 45 88 45q52 0 52 -35
q0 -19 -20 -34q-6 -5 -33 -22q21 -8 48 -27q17 -12 39 -12q13 0 49.5 36t37.5 36q3 0 8 -3.5t3 -5.5zM170 377q0 21 -6 49q-8 38 -22 36q-21 -3 -21 -30v-203q49 107 49 148zM186 106q0 9 -10 9q-17 0 -47 -39l7 -2q50 16 50 32z" />
    <glyph glyph-name="l" unicode="l" horiz-adv-x="232" 
d="M259 101q-38 -46 -97 -91q-30 -28 -69 -28q-30 0 -54 31q-22 28 -22 59q0 -24 -1 30.5t-1 74.5q-1 166 13 194q29 58 34 65q26 36 70 36q80 0 79 -86q0 -51 -34 -110l-54 -94v-94q0 -49 21 -49q23 0 64 36.5l41 36.5q5 0 10 -11zM165 371q0 21 -5 44q-7 34 -20 34
q-17 0 -17 -23v-184q0 -12 2 -14q40 68 40 143z" />
    <glyph glyph-name="m" unicode="m" horiz-adv-x="548" 
d="M581 100q-11 -13 -38 -41q-9 -9 -40 -34q-38 -24 -69 -31q-30 -7 -54 0q-28 10 -33 39q-1 1 -2 42q1 7 0 11q-2 5 -9 4q-3 0 -16 -17q-8 -10 -26 -41q-2 -4 -10 -28l-103 -16q2 38 1 47v44q0 14 -8 11q-4 -3 -9 -8q-15 -16 -22 -27l-16 -24q-6 -13 -14 -27
q-22 -4 -96 -16v144l98 24l7 -6v-83q1 -1 3 -2q13 15 29 37q4 5 21 20q25 22 73 34q36 -5 42 -37l-1 -53q9 13 26 36q5 5 28 26q9 8 37 20t36 9q31 -2 34 -30q-1 -19 0 -64q0 -11 1 -16q2 -11 7 -14q20 -14 72 37q13 13 39 40q3 -1 12 -10z" />
    <glyph glyph-name="n" unicode="n" horiz-adv-x="357" 
d="M392 99l-43 -37q-77 -66 -132 -66q-17 0 -31 10t-14 26v58q0 6 -3 5q-21 -31 -63 -86q-35 -9 -90 -19v145l102 23q0 -87 1 -91q11 14 35 43q41 48 88 48q33 0 33 -23v-82q0 -19 12 -14q28 11 97 70z" />
    <glyph glyph-name="o" unicode="o" horiz-adv-x="321" 
d="M364 99q-42 -27 -97 -27q-27 0 -33 1q-18 -47 -55 -66q-30 -16 -85 -16q-35 0 -63 18q-32 21 -32 54q0 53 48 80q39 21 97 21q70 0 91 -63q17 -4 42 -4q47 0 76 16zM198 66q0 25 -29.5 43t-56.5 18q-40 0 -40 -23q0 -24 40 -43q33 -16 60 -16q26 0 26 21z" />
    <glyph glyph-name="p" unicode="p" horiz-adv-x="315" 
d="M354 103q-69 -59 -102 -78q-54 -29 -122 -29q-2 0 -18 6l-1 -95v-62q-1 -12 9 -33l-89 -35q-5 4 -13 31l-2 323l97 28v-34q31 33 80 33q25 0 46 -16.5t21 -40.5q0 -16 -10 -38l-8 -18q48 21 99 72q15 -12 13 -14zM200 61q0 14 -10 30.5t-22 23.5q-5 3 -22 3
q-6 0 -18.5 -9.5t-14 -14t-2.5 -21.5q-1 -18 1 -20q19 -25 60 -25q12 0 20 10.5t8 22.5z" />
    <glyph glyph-name="q" unicode="q" horiz-adv-x="330" 
d="M363 99q-22 -13 -70 -31l-35 -9v-178q0 -45 13 -69l-99 -31q-13 23 -17 65v174q-22 -12 -47 -24q-7 -1 -15 -1q-33 0 -55 17t-22 49q0 39 33.5 67.5t73.5 28.5q27 0 40 -7q18 -8 20 -8l76 18l-1 -81q22 1 57 17q12 6 36 17q4 -3 12 -14zM156 82q0 13 -2 21q-6 16 -26 22
q-3 1 -18 1q-24 0 -24 -23q0 -15 14 -35t28 -22q2 0 6.5 -1.5t6.5 -1.5q11 0 13 4q2 9 2 35z" />
    <glyph glyph-name="r" unicode="r" horiz-adv-x="273" 
d="M304 101q-70 -108 -165 -108q-22 0 -40.5 16.5t-23.5 37.5q-2 10 2 34q5 28 5 35q-26 -7 -60 -13q-31 4 -30 38q0 14 11 23.5t25 9.5q24 0 30 -18q6 -11 5 -12q69 0 125 14q1 -1 -2.5 -18t-3.5 -19q0 -6 -1 -21.5t-1 -23.5q1 -14 10 -26t23 -12q24 0 58.5 36.5t28.5 36.5
q2 -1 4 -10z" />
    <glyph glyph-name="s" unicode="s" horiz-adv-x="260" 
d="M277 101q-54 -41 -125 -89q-34 -17 -54 -18q-38 -2 -67 8q-5 2 -16.5 11.5t-11.5 13.5q0 7 14.5 20.5t21.5 13.5q20 0 52 -32q7 -7 14 -7q13 0 16 15.5t1 20.5q-2 6 -14 16q-1 1 -38 17t-38 16q-2 0 -3 -3t-3 -3q-11 0 -11 9q0 8 22 41t27 33q8 -3 52 -18q23 -8 44.5 -29
t21.5 -43q0 -9 -32 -59q-1 -1 2 -1q6 0 31 16q22 15 85 62z" />
    <glyph glyph-name="t" unicode="t" horiz-adv-x="238" 
d="M264 102q-13 -23 -74 -65q-71 -48 -114 -46q-23 1 -42.5 20t-16.5 41v176q-3 1 -25 1l1 20q13 -1 24 -1v83l106 46l1 -130h109l1 -19h-110l-1 -152q0 -24 6.5 -33.5t19.5 -6.5q36 14 108 76q1 -2 7 -10z" />
    <glyph glyph-name="u" unicode="u" horiz-adv-x="393" 
d="M420 96q-38 -36 -81 -63q-57 -36 -97 -37q-33 -1 -47 16q-11 14 -13 48q-25 -30 -52 -52q-28 -15 -41 -15q-72 0 -72 89v50l110 24v-88q-1 -5 -1 -9q0 -15 15 -15q7 1 24.5 17.5t16.5 18.5v56l112 27v-101q0 -21 15 -21q18 0 54 27q17 13 50 39q9 -6 7 -11z" />
    <glyph glyph-name="v" unicode="v" horiz-adv-x="287" 
d="M309 111l7 -9q-29 -26 -58 -26q-23 0 -47 17q-12 -24 -40 -59q-68 -43 -87 -42q-15 1 -47 69q-30 63 -30 72q28 10 102 33q43 -122 55 -118q7 1 37 54q-15 0 -28.5 12.5t-13.5 27.5q0 13 10 23t23 10q30 0 30 -34q0 -13 -5 -28q20 -22 43 -22q19 0 49 20z" />
    <glyph glyph-name="w" unicode="w" horiz-adv-x="481" 
d="M500 113q1 -1 9 -15q-48 -23 -72 -23q-27 0 -49 27q-15 -33 -22 -45q-15 -27 -30 -37q-32 -21 -80 -21q-10 0 -31 41q-8 16 -22 45q-15 -35 -19 -42q-10 -18 -23 -28q-18 -14 -90 -26q-20 43 -62 131l-8 16q39 13 107 31q20 -47 53 -114q24 38 24 65q0 10 -2 27
q42 15 93 32q19 -42 59 -124q20 19 29 56q-12 0 -23 13.5t-11 25.5q0 14 10.5 24t24.5 10q36 0 36 -43q0 -12 -4 -18q26 -28 46 -28q9 0 25 7q20 8 32 13z" />
    <glyph glyph-name="x" unicode="x" horiz-adv-x="283" 
d="M10 104l101 69q19 -29 54 -77l17 11q-16 15 -16 29t10.5 25.5t24.5 11.5q13 0 22.5 -11.5t9.5 -24.5q-1 -16 -20 -29l-38 -25q17 -33 39 -33q16 0 86 58q5 -3 9 -7q-21 -28 -77 -68q-61 -43 -89 -43q-20 0 -33 12q-8 10 -17 21q-42 -34 -54 -34q-15 0 -28 12q-6 10 -6 20
q0 8 5 17q14 13 27 13q14 0 31 -28l18 12q-8 14 -44 64l-19 -12z" />
    <glyph glyph-name="y" unicode="y" horiz-adv-x="362" 
d="M396 96l-119 -80q3 -5 3 -19q0 -67 -31 -141q-40 -95 -104 -95q-27 0 -52 25t-25 52q0 78 106 141v93q-62 -77 -114 -77q-47 0 -47 47q0 5 1 12v9q0 10 1 70l102 35v-99q0 -15 10 -15q21 17 52 82l98 33l-1 -129q29 16 112 70zM177 -168q0 119 -1 125q-23 -13 -39 -52
q-15 -34 -15 -64q0 -55 33 -65q22 10 22 56z" />
    <glyph glyph-name="z" unicode="z" horiz-adv-x="307" 
d="M279 31q0 -22 -25 -34q-20 -10 -44 -10q-8 0 -23.5 2.5t-24.5 2.5t-28.5 5t-29.5 5q-55 2 -75 -9l-5 13q38 36 114 110q-2 8 -17.5 18t-23.5 10q-17 -2 -21 -3q-8 -3 -15 -14q2 -14 15 -14q4 0 19 4q-18 -38 -47 -38q-12 0 -24.5 10t-12.5 22q0 22 29 37q25 13 49 13
q46 0 64 -4q74 -16 69 -16q8 0 34 11l7 -10l-104 -120q13 -15 40 -15q13 0 31 17q0 15 -20 15q17 17 37 17q32 0 32 -25z" />
    <glyph glyph-name="braceleft" unicode="{" horiz-adv-x="236" 
d="M72 256v-288q0 -55 28 -94q32 -44 85 -37q-5 3 -5 6t5 6q-51 21 -65 52q-8 18 -8 67v288q6 37 -76 91q83 78 77 115v289q0 50 7 66q14 32 66 53q-5 2 -5 5q0 4 5 7q-53 5 -85 -38q-28 -38 -28 -93v-289q4 -30 -17.5 -66.5t-49.5 -48.5q23 -16 47 -33q19 -19 19 -58z" />
    <glyph glyph-name="bar" unicode="|" horiz-adv-x="527" 
d="M278 847v-872h-40v872h40z" />
    <glyph glyph-name="braceright" unicode="}" horiz-adv-x="236" 
d="M120 256v-288q0 -55 -28 -94q-32 -44 -85 -37q5 3 5 6t-5 6q51 21 65 52q8 18 8 67v288q-6 37 76 91q-83 78 -77 115v289q0 48 -8 66q-14 32 -65 53q5 2 5 5q0 4 -5 7q53 5 85 -38q28 -38 28 -93v-289q-5 -30 17 -66.5t50 -48.5q-38 -25 -47 -36q-19 -21 -19 -55z" />
    <glyph glyph-name="asciitilde" unicode="~" horiz-adv-x="669" 
d="M336 729l-12 12q37 77 86 77q23 0 70 -17.5t67 -17.5q21 0 44 9.5t32 25.5l8 -15q-37 -77 -85 -77q-23 0 -70.5 17t-67.5 17q-55 0 -72 -31z" />
    <glyph glyph-name="Adieresis" unicode="&#xc4;" horiz-adv-x="759" 
d="M642 -10q-7 0 -44 62q-16 27 -43 76q-25 -77 -68.5 -110t-123.5 -33q-113 0 -230 69q-134 79 -134 182q0 233 156 351q138 105 379 105q137 0 137 -25q0 -19 -16 -64q-18 -50 -33 -50l-34 10l-1 -5q0 -16 12.5 -47.5t12.5 -48.5q0 -21 -9.5 -61t-9.5 -61q0 -29 31 -108.5
t51 -95.5q4 -11 12 -11t22 24q6 10 18 31q1 0 3 -1q5 2 6 2q2 -1 1 -8q-13 -54 -41 -113q-33 -70 -54 -70zM574 383q12 45 12 72q0 45 -20 92q-8 -57 -8 -87q0 -59 16 -77zM549 573q-35 7 -68 7q-108 0 -243 -50q-160 -59 -189 -142q-10 -28 -10 -67q0 -99 160 -162
q128 -50 247 -50q33 0 60 15q32 17 32 48q0 30 -20.5 88t-20.5 89q0 52 17 114zM583 798q8 0 8 -7q0 -8 -9 -36q-14 -4 -45 -10q-3 0 -10 4q-6 13 -6 29q0 14 62 20zM583 798q8 0 8 -7q0 -8 -9 -36q-14 -4 -45 -10q-3 0 -10 4q-6 13 -6 29q0 14 62 20zM583 798q8 0 8 -7
q0 -8 -9 -36q-14 -4 -45 -10q-3 0 -10 4q-6 13 -6 29q0 14 62 20zM436 798q8 0 8 -7q0 -8 -9 -36q-14 -4 -45 -10q-3 0 -10 4q-6 13 -6 29q0 14 62 20zM436 798q8 0 8 -7q0 -8 -9 -36q-14 -4 -45 -10q-3 0 -10 4q-6 13 -6 29q0 14 62 20zM436 798q8 0 8 -7q0 -8 -9 -36
q-14 -4 -45 -10q-3 0 -10 4q-6 13 -6 29q0 14 62 20z" />
    <glyph glyph-name="Aring" unicode="&#xc5;" horiz-adv-x="759" 
d="M737 173q-13 -54 -41 -113q-33 -70 -54 -70q-7 0 -44 62q-16 27 -43 76q-25 -77 -68.5 -110t-123.5 -33q-113 0 -230 69q-134 79 -134 182q0 233 156 351q138 105 379 105q137 0 137 -25q0 -19 -16 -64q-18 -50 -33 -50l-34 10l-1 -5q0 -16 12.5 -47.5t12.5 -48.5
q0 -21 -9.5 -61t-9.5 -61q0 -29 31 -108.5t51 -95.5q4 -11 12 -11t22 24q6 10 18 31q1 0 3 -1q5 2 6 2q2 -1 1 -8zM586 455q0 45 -20 92q-8 -57 -8 -87q0 -59 16 -77q12 45 12 72zM549 573q-35 7 -68 7q-108 0 -243 -50q-160 -59 -189 -142q-10 -28 -10 -67q0 -99 160 -162
q128 -50 247 -50q33 0 60 15q32 17 32 48q0 30 -20.5 88t-20.5 89q0 52 17 114zM491 722q-28 0 -48 20.5t-20 48.5t20 48.5t48 20.5t47.5 -20.5t19.5 -48.5t-19.5 -48.5t-47.5 -20.5zM491 830q-16 0 -27 -11.5t-11 -27.5t11 -27.5t27 -11.5t26.5 11.5t10.5 27.5t-10.5 27.5
t-26.5 11.5z" />
    <glyph glyph-name="Ccedilla" unicode="&#xc7;" horiz-adv-x="672" 
d="M464 -11l17 -66h-28q-14 27 -25 65q-429 16 -429 308q0 149 105 273q110 129 257 129q59 0 99 -28q34 -24 65 -80q16 32 28 83l20 85l25 -6q2 -8 -3 -36q-16 -92 -53 -191q4 -21 3 -26q1 -10 3 -53q1 -28 -1 -61q-5 -73 -39 -108q-37 11 -37 63q-25 -75 -25 -153
q0 -72 6 -97q39 2 108 15q43 8 105 22q-22 -63 -105 -104q-47 -23 -96 -34zM520 487q-22 -69 -22 -120q0 -18 7 -51q17 54 17 131q0 20 -2 40zM373 590q-124 0 -225.5 -114.5t-101.5 -239.5q0 -81 116 -121q83 -29 187 -29q56 0 63 1q-2 17 -6 52q-10 95 31 217q1 2 47 128
q12 33 12 43q0 29 -47 48q-38 15 -76 15zM233 -179q4 -4 10 -14q3 -5 19 -5q31 0 57 13q32 16 32 44q0 36 -2 41q-8 20 -47 20h-19l21 90l30 -7l-13 -54q41 -5 72 -25q36 -25 36 -63q0 -42 -44 -68q-37 -21 -83 -21q-49 0 -86 23z" />
    <glyph glyph-name="Eacute" unicode="&#xc9;" horiz-adv-x="691" 
d="M492 535q-6 -23 -6 -76q0 -14 4 -34q5 -27 12 -28q22 12 22 29q0 35 -8 58q-5 15 -24 51zM670 168q-6 -15 -12 -43q-16 -73 -140 -114q-94 -31 -193 -31q-122 0 -215 39q-126 53 -126 157q0 74 48 121q38 36 113 61q3 1 129 34q-51 30 -88 73q-45 53 -45 102q0 61 54 102
q50 39 112 39q49 0 89 -20l78 -40q0 32 10 62h16l-5 -72q65 -72 65 -153q0 -34 -15 -72q-18 -46 -45 -48q-37 25 -46 58q-5 18 -5 75q0 23 8 54q-67 64 -212 64q-34 0 -48 -7q-21 -10 -21 -42q0 -58 81 -110l130 -68q16 -55 16 -96v-4q-107 0 -220 -21q-167 -31 -167 -92
q0 -45 116 -71q84 -19 154 -19q98 0 198 19q118 23 186 63zM460 833l-158 -101l-38 4l109 124z" />
    <glyph glyph-name="Ntilde" unicode="&#xd1;" horiz-adv-x="669" 
d="M691 588q-11 -43 -40 -119q-4 16 -17 37q-53 0 -53 -83v-328l10 -32q10 -33 11 -43q-2 -2 -37 -30q-23 -19 -42 -19q-65 157 -190 472q-4 -64 -4 -308q0 -81 -37 -170q-46 -110 -115 -110q-43 0 -114 107q-68 102 -69 150q35 48 77 90q71 -191 145 -270q62 45 78 178
q5 42 5 207v120q0 65 -33 162q-4 10 37 47q38 36 53 41l195 -536q1 14 1 38q0 26 -1.5 76.5t-1.5 76.5q0 269 105 264q8 0 37 -18zM336 729l-12 12q37 77 86 77q23 0 70 -17.5t67 -17.5q21 0 44 9.5t32 25.5l8 -15q-37 -77 -85 -77q-23 0 -70.5 17t-67.5 17q-55 0 -72 -31z
" />
    <glyph glyph-name="Odieresis" unicode="&#xd6;" horiz-adv-x="827" 
d="M780 387q0 -56 -21 -111q-51 -134 -144 -207q-100 -79 -237 -79q-129 0 -245 86q-126 94 -126 218q0 118 102 197q94 72 216 72q44 0 105 -14q77 -17 91 -43q7 -12 -5 -12q-3 0 -73 24t-124 21q-82 -5 -150 -47q-86 -53 -86 -135q0 -46 39 -101q34 -49 77 -79
q56 -39 132 -66q81 -28 145 -28q109 0 162 43q58 47 58 153q0 159 -102 242q-94 75 -256 75h-71q-41 -3 -83 -16q72 65 94 77q43 24 116 24q146 0 254 -65q132 -80 132 -229zM562 769l-8 -28q-16 -1 -30 -5q-34 -10 -45 0q-13 21 -13 42q0 24 74 34q26 3 26 -21q0 -9 -4 -22
zM385 769l-8 -28q-16 -1 -30 -5q-34 -10 -45 0q-13 21 -13 42q0 24 74 34q26 3 26 -21q0 -9 -4 -22zM562 769l-8 -28q-16 -1 -30 -5q-34 -10 -45 0q-13 21 -13 42q0 24 74 34q26 3 26 -21q0 -9 -4 -22zM385 769l-8 -28q-16 -1 -30 -5q-34 -10 -45 0q-13 21 -13 42
q0 24 74 34q26 3 26 -21q0 -9 -4 -22z" />
    <glyph glyph-name="Udieresis" unicode="&#xdc;" horiz-adv-x="790" 
d="M581 -30q-59 0 -99 76q-9 16 -50 129q-35 -78 -85 -129q-63 -66 -133 -66q-94 0 -141 89q-38 71 -38 173q0 128 60 259q-84 67 -100 112q48 42 93 72q20 -28 63 -84q16 35 58 74q49 45 93 45q18 0 34 -12.5t16 -30.5q0 -51 -43 -100q-36 -41 -88 -67q-7 -2 -41 -16
q-9 -1 -21 -4q-20 -72 -20 -184q0 -82 31 -141q39 -74 114 -74q48 0 94 59q41 53 48 105q2 14 2 73q0 210 58 281q18 21 50 39q28 13 57 27q-3 -19 -18 -84q-27 -114 -27 -290q0 -205 99 -205q31 0 64 25q12 9 53 50q10 -8 10 -9q0 -26 -61 -99t-86.5 -83t-45.5 -10z
M289 625q0 12 -10.5 21.5t-22.5 9.5q-27 0 -51.5 -33.5t-26.5 -62.5q8 -6 18 -6q17 0 54 15q39 37 39 56zM562 789l-8 -28q-16 -1 -30 -5q-34 -10 -45 0q-13 21 -13 42q0 24 74 34q26 3 26 -21q0 -9 -4 -22zM385 789l-8 -28q-16 -1 -30 -5q-34 -10 -45 0q-13 21 -13 42
q0 24 74 34q26 3 26 -21q0 -9 -4 -22zM562 789l-8 -28q-16 -1 -30 -5q-34 -10 -45 0q-13 21 -13 42q0 24 74 34q26 3 26 -21q0 -9 -4 -22zM385 789l-8 -28q-16 -1 -30 -5q-34 -10 -45 0q-13 21 -13 42q0 24 74 34q26 3 26 -21q0 -9 -4 -22z" />
    <glyph glyph-name="aacute" unicode="&#xe1;" horiz-adv-x="330" 
d="M349 102l-31 -27q-24 -21 -47 -37q-57 -40 -95 -40q-20 0 -46 33q16 0 -18.5 -17t-44.5 -17q-18 0 -43 11q-31 21 -31 52q0 29 13 46q40 53 99 50q31 -2 58 -22q25 9 66 23v-79q0 -34 10 -34q6 0 26 12q9 6 75 56zM132 113l-19 10q-9 4 -24 4q-25 0 -25 -19t15.5 -37.5
t34.5 -18.5q3 0 18 7v54zM219 267l-116 -75l-28 3l79 89z" />
    <glyph glyph-name="agrave" unicode="&#xe0;" horiz-adv-x="330" 
d="M349 102l-31 -27q-24 -21 -47 -37q-57 -40 -95 -40q-20 0 -46 33q16 0 -18.5 -17t-44.5 -17q-18 0 -43 11q-31 21 -31 52q0 29 13 46q40 53 99 50q31 -2 58 -22q25 9 66 23v-79q0 -34 10 -34q6 0 26 12q9 6 75 56zM132 113l-19 10q-9 4 -24 4q-25 0 -25 -19t15.5 -37.5
t34.5 -18.5q3 0 18 7v54zM60 267l116 -75l27 3l-79 89z" />
    <glyph glyph-name="acircumflex" unicode="&#xe2;" horiz-adv-x="330" 
d="M349 102l-31 -27q-24 -21 -47 -37q-57 -40 -95 -40q-20 0 -46 33q16 0 -18.5 -17t-44.5 -17q-18 0 -43 11q-31 21 -31 52q0 29 13 46q40 53 99 50q31 -2 58 -22q25 9 66 23v-79q0 -34 10 -34q6 0 26 12q9 6 75 56zM132 113l-19 10q-9 4 -24 4q-25 0 -25 -19t15.5 -37.5
t34.5 -18.5q3 0 18 7v54zM136 243l-70 -39h-26l67 64h54l68 -64h-27z" />
    <glyph glyph-name="adieresis" unicode="&#xe4;" horiz-adv-x="330" 
d="M349 102l-31 -27q-24 -21 -47 -37q-57 -40 -95 -40q-20 0 -46 33q16 0 -18.5 -17t-44.5 -17q-18 0 -43 11q-31 21 -31 52q0 29 13 46q40 53 99 50q31 -2 58 -22q25 9 66 23v-79q0 -34 10 -34q6 0 26 12q9 6 75 56zM132 113l-19 10q-9 4 -24 4q-25 0 -25 -19t15.5 -37.5
t34.5 -18.5q3 0 18 7v54zM209 268q6 0 6 -7q0 -8 -7 -36q-12 -4 -38 -10q-2 0 -8 4q-5 13 -5 29q0 14 52 20zM209 268q6 0 6 -7q0 -8 -7 -36q-12 -4 -38 -10q-2 0 -8 4q-5 13 -5 29q0 14 52 20zM209 268q6 0 6 -7q0 -8 -7 -36q-12 -4 -38 -10q-2 0 -8 4q-5 13 -5 29
q0 14 52 20zM111 268q7 0 7 -7q0 -8 -7 -36q-12 -4 -38 -10q-3 0 -8 4q-5 13 -5 29q0 14 51 20zM111 268q7 0 7 -7q0 -8 -7 -36q-12 -4 -38 -10q-3 0 -8 4q-5 13 -5 29q0 14 51 20zM111 268q7 0 7 -7q0 -8 -7 -36q-12 -4 -38 -10q-3 0 -8 4q-5 13 -5 29q0 14 51 20z" />
    <glyph glyph-name="atilde" unicode="&#xe3;" horiz-adv-x="330" 
d="M349 102l-31 -27q-24 -21 -47 -37q-57 -40 -95 -40q-20 0 -46 33q16 0 -18.5 -17t-44.5 -17q-18 0 -43 11q-31 21 -31 52q0 29 13 46q40 53 99 50q31 -2 58 -22q25 9 66 23v-79q0 -34 10 -34q6 0 26 12q9 6 75 56zM132 113l-19 10q-9 4 -24 4q-25 0 -25 -19t15.5 -37.5
t34.5 -18.5q3 0 18 7v54zM171 192q-14 0 -46 19t-42 19q-31 0 -46 -22l-11 11q26 53 58 53q15 0 47 -19t41 -19q32 0 49 25l8 -15q-26 -52 -58 -52z" />
    <glyph glyph-name="aring" unicode="&#xe5;" horiz-adv-x="330" 
d="M349 102l-31 -27q-24 -21 -47 -37q-57 -40 -95 -40q-20 0 -46 33q16 0 -18.5 -17t-44.5 -17q-18 0 -43 11q-31 21 -31 52q0 29 13 46q40 53 99 50q31 -2 58 -22q25 9 66 23v-79q0 -34 10 -34q6 0 26 12q9 6 75 56zM132 113l-19 10q-9 4 -24 4q-25 0 -25 -19t15.5 -37.5
t34.5 -18.5q3 0 18 7v54zM131 318q24 0 40 -16.5t16 -40.5t-16 -41t-40 -17t-40 17t-16 41t16 40.5t40 16.5zM131 300q-16 0 -27 -11.5t-11 -27.5q0 -17 10.5 -28.5t27.5 -11.5q16 0 27 12t11 28t-11 27.5t-27 11.5z" />
    <glyph glyph-name="ccedilla" unicode="&#xe7;" horiz-adv-x="247" 
d="M49 -111q1 -1 5 -6t12 -5q54 0 54 34q0 21 -2 24q-5 12 -28 12h-11l11 47q-37 0 -61 18q-27 20 -27 56q0 35 33.5 62t68.5 27q58 0 58 -19q0 4 -6 -11q-2 -8 -11 -17t-16 -9q-4 0 -14 15t-27 15q-19 0 -19 -20q0 -11 10 -25q27 -38 68 -38q51 0 110 62q2 2 7 -7
q-12 -15 -28 -33q-25 -21 -59 -46.5t-69 -29.5l-7 -29q25 -3 43 -15q22 -15 22 -38q0 -25 -27 -40q-22 -13 -49 -13q-29 0 -51 14z" />
    <glyph glyph-name="eacute" unicode="&#xe9;" horiz-adv-x="262" 
d="M282 102q-2 -13 -52 -52q-54 -42 -88 -46q-57 -7 -48 -7q-34 0 -61 16q-32 18 -32 50q0 49 42 76q35 23 87 23q60 0 60 -34q0 -12 -20 -33q-11 -11 -55 -27q1 -6 23 -12q18 -5 28 -5q26 0 70.5 30t38.5 30q8 0 7 -9zM119 115q0 24 -24 24q-20 0 -20 -22q0 -23 17 -34h3
q10 0 17 10.5t7 21.5zM219 267l-116 -75l-28 3l79 89z" />
    <glyph glyph-name="egrave" unicode="&#xe8;" horiz-adv-x="262" 
d="M282 102q-2 -13 -52 -52q-54 -42 -88 -46q-57 -7 -48 -7q-34 0 -61 16q-32 18 -32 50q0 49 42 76q35 23 87 23q60 0 60 -34q0 -12 -20 -33q-11 -11 -55 -27q1 -6 23 -12q18 -5 28 -5q26 0 70.5 30t38.5 30q8 0 7 -9zM119 115q0 24 -24 24q-20 0 -20 -22q0 -23 17 -34h3
q10 0 17 10.5t7 21.5zM40 267l116 -75l27 3l-79 89z" />
    <glyph glyph-name="ecircumflex" unicode="&#xea;" horiz-adv-x="262" 
d="M282 102q-2 -13 -52 -52q-54 -42 -88 -46q-57 -7 -48 -7q-34 0 -61 16q-32 18 -32 50q0 49 42 76q35 23 87 23q60 0 60 -34q0 -12 -20 -33q-11 -11 -55 -27q1 -6 23 -12q18 -5 28 -5q26 0 70.5 30t38.5 30q8 0 7 -9zM119 115q0 24 -24 24q-20 0 -20 -22q0 -23 17 -34h3
q10 0 17 10.5t7 21.5zM116 243l-70 -39h-26l67 64h54l68 -64h-27z" />
    <glyph glyph-name="edieresis" unicode="&#xeb;" horiz-adv-x="262" 
d="M282 102q-2 -13 -52 -52q-54 -42 -88 -46q-57 -7 -48 -7q-34 0 -61 16q-32 18 -32 50q0 49 42 76q35 23 87 23q60 0 60 -34q0 -12 -20 -33q-11 -11 -55 -27q1 -6 23 -12q18 -5 28 -5q26 0 70.5 30t38.5 30q8 0 7 -9zM119 115q0 24 -24 24q-20 0 -20 -22q0 -23 17 -34h3
q10 0 17 10.5t7 21.5zM199 268q6 0 6 -7q0 -8 -7 -36q-12 -4 -38 -10q-2 0 -8 4q-5 13 -5 29q0 14 52 20zM199 268q6 0 6 -7q0 -8 -7 -36q-12 -4 -38 -10q-2 0 -8 4q-5 13 -5 29q0 14 52 20zM199 268q6 0 6 -7q0 -8 -7 -36q-12 -4 -38 -10q-2 0 -8 4q-5 13 -5 29q0 14 52 20
zM101 268q7 0 7 -7q0 -8 -7 -36q-12 -4 -38 -10q-3 0 -8 4q-5 13 -5 29q0 14 51 20zM101 268q7 0 7 -7q0 -8 -7 -36q-12 -4 -38 -10q-3 0 -8 4q-5 13 -5 29q0 14 51 20zM101 268q7 0 7 -7q0 -8 -7 -36q-12 -4 -38 -10q-3 0 -8 4q-5 13 -5 29q0 14 51 20z" />
    <glyph glyph-name="iacute" unicode="&#xed;" horiz-adv-x="209" 
d="M17 130v-99q-2 -13 13 -23q11 -9 38 -9q22 0 56 19q108 61 118 82q2 3 -9 10q-62 -47 -102 -68q-5 -2 -8 -2q-10 0 -10 18l-1 104zM149 267l-116 -75l-28 3l79 89z" />
    <glyph glyph-name="igrave" unicode="&#xec;" horiz-adv-x="209" 
d="M17 130v-99q-2 -13 13 -23q11 -9 38 -9q22 0 56 19q108 61 118 82q2 3 -9 10q-62 -47 -102 -68q-5 -2 -8 -2q-10 0 -10 18v73q0 4 1.5 12.5t1.5 12.5q0 6 -4 6zM0 267l116 -75l27 3l-79 89z" />
    <glyph glyph-name="icircumflex" unicode="&#xee;" horiz-adv-x="209" 
d="M17 130v-99q-2 -13 13 -23q11 -9 38 -9q22 0 56 19q108 61 118 82q2 3 -9 10q-62 -47 -102 -68q-5 -2 -8 -2q-10 0 -10 18l-1 104zM76 243l-70 -39h-26l67 64h54l68 -64h-27z" />
    <glyph glyph-name="idieresis" unicode="&#xef;" horiz-adv-x="209" 
d="M17 130v-99q-2 -13 13 -23q11 -9 38 -9q22 0 56 19q108 61 118 82q2 3 -9 10q-62 -47 -102 -68q-5 -2 -8 -2q-10 0 -10 18v73q0 4 1.5 12.5t1.5 12.5q0 6 -4 6zM139 268q6 0 6 -7q0 -8 -7 -36q-12 -4 -38 -10q-2 0 -8 4q-5 13 -5 29q0 14 52 20zM139 268q6 0 6 -7
q0 -8 -7 -36q-12 -4 -38 -10q-2 0 -8 4q-5 13 -5 29q0 14 52 20zM139 268q6 0 6 -7q0 -8 -7 -36q-12 -4 -38 -10q-2 0 -8 4q-5 13 -5 29q0 14 52 20zM41 268q7 0 7 -7q0 -8 -7 -36q-12 -4 -38 -10q-3 0 -8 4q-5 13 -5 29q0 14 51 20zM41 268q7 0 7 -7q0 -8 -7 -36
q-12 -4 -38 -10q-3 0 -8 4q-5 13 -5 29q0 14 51 20zM41 268q7 0 7 -7q0 -8 -7 -36q-12 -4 -38 -10q-3 0 -8 4q-5 13 -5 29q0 14 51 20z" />
    <glyph glyph-name="ntilde" unicode="&#xf1;" horiz-adv-x="357" 
d="M392 99l-43 -37q-77 -66 -132 -66q-17 0 -31 10t-14 26v58q0 6 -3 5q-21 -31 -63 -86q-35 -9 -90 -19v145l102 23q0 -87 1 -91q11 14 35 43q41 48 88 48q33 0 33 -23v-82q0 -19 12 -14q28 11 97 70zM191 192q-14 0 -46 19t-42 19q-31 0 -46 -22l-11 11q26 53 58 53
q15 0 47 -19t41 -19q32 0 49 25l8 -15q-26 -52 -58 -52z" />
    <glyph glyph-name="oacute" unicode="&#xf3;" horiz-adv-x="321" 
d="M364 99q-42 -27 -97 -27q-27 0 -33 1q-18 -47 -55 -66q-30 -16 -85 -16q-35 0 -63 18q-32 21 -32 54q0 53 48 80q39 21 97 21q70 0 91 -63q17 -4 42 -4q47 0 76 16zM198 66q0 25 -29.5 43t-56.5 18q-40 0 -40 -23q0 -24 40 -43q33 -16 60 -16q26 0 26 21zM219 267
l-116 -75l-28 3l79 89z" />
    <glyph glyph-name="ograve" unicode="&#xf2;" horiz-adv-x="321" 
d="M364 99q-42 -27 -97 -27q-27 0 -33 1q-18 -47 -55 -66q-30 -16 -85 -16q-35 0 -63 18q-32 21 -32 54q0 53 48 80q39 21 97 21q70 0 91 -63q17 -4 42 -4q47 0 76 16zM198 66q0 25 -29.5 43t-56.5 18q-40 0 -40 -23q0 -24 40 -43q33 -16 60 -16q26 0 26 21zM60 267l116 -75
l27 3l-79 89z" />
    <glyph glyph-name="ocircumflex" unicode="&#xf4;" horiz-adv-x="321" 
d="M364 99q-42 -27 -97 -27q-27 0 -33 1q-18 -47 -55 -66q-30 -16 -85 -16q-35 0 -63 18q-32 21 -32 54q0 53 48 80q39 21 97 21q70 0 91 -63q17 -4 42 -4q47 0 76 16zM198 66q0 25 -29.5 43t-56.5 18q-40 0 -40 -23q0 -24 40 -43q33 -16 60 -16q26 0 26 21zM116 243
l-70 -39h-26l67 64h54l68 -64h-27z" />
    <glyph glyph-name="odieresis" unicode="&#xf6;" horiz-adv-x="321" 
d="M364 99q-42 -27 -97 -27q-27 0 -33 1q-18 -47 -55 -66q-30 -16 -85 -16q-35 0 -63 18q-32 21 -32 54q0 53 48 80q39 21 97 21q70 0 91 -63q17 -4 42 -4q47 0 76 16zM198 66q0 25 -29.5 43t-56.5 18q-40 0 -40 -23q0 -24 40 -43q33 -16 60 -16q26 0 26 21zM199 268
q6 0 6 -7q0 -8 -7 -36q-12 -4 -38 -10q-2 0 -8 4q-5 13 -5 29q0 14 52 20zM199 268q6 0 6 -7q0 -8 -7 -36q-12 -4 -38 -10q-2 0 -8 4q-5 13 -5 29q0 14 52 20zM199 268q6 0 6 -7q0 -8 -7 -36q-12 -4 -38 -10q-2 0 -8 4q-5 13 -5 29q0 14 52 20zM101 268q7 0 7 -7
q0 -8 -7 -36q-12 -4 -38 -10q-3 0 -8 4q-5 13 -5 29q0 14 51 20zM101 268q7 0 7 -7q0 -8 -7 -36q-12 -4 -38 -10q-3 0 -8 4q-5 13 -5 29q0 14 51 20zM101 268q7 0 7 -7q0 -8 -7 -36q-12 -4 -38 -10q-3 0 -8 4q-5 13 -5 29q0 14 51 20z" />
    <glyph glyph-name="otilde" unicode="&#xf5;" horiz-adv-x="321" 
d="M364 99q-42 -27 -97 -27q-27 0 -33 1q-18 -47 -55 -66q-30 -16 -85 -16q-35 0 -63 18q-32 21 -32 54q0 53 48 80q39 21 97 21q70 0 91 -63q17 -4 42 -4q47 0 76 16zM198 66q0 25 -29.5 43t-56.5 18q-40 0 -40 -23q0 -24 40 -43q33 -16 60 -16q26 0 26 21zM171 192
q-14 0 -46 19t-42 19q-31 0 -46 -22l-11 11q26 53 58 53q15 0 47 -19t41 -19q32 0 49 25l8 -15q-26 -52 -58 -52z" />
    <glyph glyph-name="uacute" unicode="&#xfa;" horiz-adv-x="393" 
d="M420 96q-38 -36 -81 -63q-57 -36 -97 -37q-33 -1 -47 16q-11 14 -13 48q-25 -30 -52 -52q-28 -15 -41 -15q-72 0 -72 89v50l110 24v-88q-1 -5 -1 -9q0 -15 15 -15q7 1 24.5 17.5t16.5 18.5v56l112 27v-101q0 -21 15 -21q18 0 54 27q17 13 50 39q9 -6 7 -11zM249 267
l-116 -75l-28 3l79 89z" />
    <glyph glyph-name="ugrave" unicode="&#xf9;" horiz-adv-x="393" 
d="M420 96q-38 -36 -81 -63q-57 -36 -97 -37q-33 -1 -47 16q-11 14 -13 48q-25 -30 -52 -52q-28 -15 -41 -15q-72 0 -72 89v50l110 24v-88q-1 -5 -1 -9q0 -15 15 -15q7 1 24.5 17.5t16.5 18.5v56l112 27v-101q0 -21 15 -21q18 0 54 27q17 13 50 39q9 -6 7 -11zM100 267
l116 -75l27 3l-79 89z" />
    <glyph glyph-name="ucircumflex" unicode="&#xfb;" horiz-adv-x="393" 
d="M420 96q-38 -36 -81 -63q-57 -36 -97 -37q-33 -1 -47 16q-11 14 -13 48q-25 -30 -52 -52q-28 -15 -41 -15q-72 0 -72 89v50l110 24v-88q-1 -5 -1 -9q0 -15 15 -15q7 1 24.5 17.5t16.5 18.5v56l112 27v-101q0 -21 15 -21q18 0 54 27q17 13 50 39q9 -6 7 -11zM156 243
l-70 -39h-26l67 64h54l68 -64h-27z" />
    <glyph glyph-name="udieresis" unicode="&#xfc;" horiz-adv-x="393" 
d="M420 96q-38 -36 -81 -63q-57 -36 -97 -37q-33 -1 -47 16q-11 14 -13 48q-25 -30 -52 -52q-28 -15 -41 -15q-72 0 -72 89v50l110 24v-88q-1 -5 -1 -9q0 -15 15 -15q7 1 24.5 17.5t16.5 18.5v56l112 27v-101q0 -21 15 -21q18 0 54 27q17 13 50 39q9 -6 7 -11zM239 268
q6 0 6 -7q0 -8 -7 -36q-12 -4 -38 -10q-2 0 -8 4q-5 13 -5 29q0 14 52 20zM239 268q6 0 6 -7q0 -8 -7 -36q-12 -4 -38 -10q-2 0 -8 4q-5 13 -5 29q0 14 52 20zM239 268q6 0 6 -7q0 -8 -7 -36q-12 -4 -38 -10q-2 0 -8 4q-5 13 -5 29q0 14 52 20zM141 268q7 0 7 -7
q0 -8 -7 -36q-12 -4 -38 -10q-3 0 -8 4q-5 13 -5 29q0 14 51 20zM141 268q7 0 7 -7q0 -8 -7 -36q-12 -4 -38 -10q-3 0 -8 4q-5 13 -5 29q0 14 51 20zM141 268q7 0 7 -7q0 -8 -7 -36q-12 -4 -38 -10q-3 0 -8 4q-5 13 -5 29q0 14 51 20z" />
    <glyph glyph-name="dagger" unicode="&#x2020;" horiz-adv-x="25" 
 />
    <glyph glyph-name="degree" unicode="&#xb0;" horiz-adv-x="245" 
d="M137 464q31 0 52.5 -22.5t21.5 -53.5t-21.5 -53.5t-52.5 -22.5t-52.5 22.5t-21.5 53.5t21.5 53.5t52.5 22.5zM137 441q-22 0 -36.5 -15.5t-14.5 -37.5t14.5 -37.5t36.5 -15.5t36.5 15.5t14.5 37.5t-14.5 37.5t-36.5 15.5z" />
    <glyph glyph-name="cent" unicode="&#xa2;" horiz-adv-x="268" 
d="M243 179q0 -61 -83 -88q-6 2 -16 2v-60l-13 -3q0 40 2 57l-6 9q-41 20 -58 41q-20 25 -20 67q0 41 22.5 78t60.5 50q1 8 1 65l16 -1q1 -6 -3 -61q7 -7 18 0q16 0 36 -9q24 -10 24 -23q-11 -13 -33 -35h-8q-19 43 -48 43q-11 0 -19.5 -14.5t-8.5 -26.5q0 -51 23 -83
q26 -38 74 -38q9 0 17 13q7 10 8 21l6 7q8 -4 8 -11z" />
    <glyph glyph-name="sterling" unicode="&#xa3;" horiz-adv-x="479" 
d="M182 227h-59v31l53 -2q-11 37 -11 61q0 54 32 90.5t85 36.5q36 0 60.5 -27t24.5 -63q0 -47 -24 -66l-21 3q2 55 -64 55q-19 0 -38 -19q-15 -15 -15 -34q0 -11 8 -37l81 2v-31h-75l43 -112q13 -10 57 -32q53 -21 73 -21q11 0 43 9q-55 -86 -92 -86q-12 0 -117 46
q-39 -57 -108 -57q-42 0 -67.5 27t-25.5 69q0 31 24.5 63t54.5 32q34 0 116 -30zM69 102q-4 0 -4 -13q0 -27 27 -46t55 -19q32 0 49 24q-19 10 -65 31q-52 23 -62 23z" />
    <glyph glyph-name="section" unicode="&#xa7;" horiz-adv-x="37" 
 />
    <glyph glyph-name="bullet" unicode="&#x2022;" horiz-adv-x="445" 
d="M116 145q0 43 29.5 73.5t72.5 30.5t73 -30.5t30 -73.5t-30 -73.5t-73 -30.5t-72.5 30.5t-29.5 73.5z" />
    <glyph glyph-name="paragraph" unicode="&#xb6;" horiz-adv-x="398" 
d="M167 305h-22q-142 0 -142 175q0 89 33 129q36 46 122 46h210v-32q-26 -1 -34 -5q-13 -7 -13 -29v-599q0 -43 3 -49q6 -12 44 -15v-32h-258v32q31 0 39 3q18 7 18 31v345zM167 623q-43 1 -57 -35q-9 -23 -9 -73v-73q0 -108 57 -108h9v289zM274 623h-61v-697h61v697z" />
    <glyph glyph-name="germandbls" unicode="&#xdf;" horiz-adv-x="429" 
d="M114 136v-32q0 -7 1 -23v-26q0 -96 -24 -167q-35 -106 -113 -106q-32 0 -45 28q-7 15 -11 57q18 56 93 215q3 6 1 53l-42 1v17h42q-1 192 12 218q29 58 34 65q26 36 70 36q80 0 79 -86q0 -50 -39 -113q-27 -43 -60 -97q-1 -1 -1 -6q0 -6 1 -17l31 1q11 1 67 4t71 2
q12 -1 37.5 -10t33.5 -9t34 11l7 -10l-104 -120q13 -15 40 -15q13 0 31 17q0 15 -20 15q17 17 37 17q32 0 32 -25q0 -22 -25 -34q-20 -10 -44 -10q-8 0 -23.5 2.5t-24.5 2.5t-28.5 5t-29.5 5q-55 2 -75 -9l-5 13q40 38 118 114q-4 17 -133 18zM16 40q-23 -28 -40 -79
t-17 -89q0 -71 24 -71q33 0 33 112v127zM169 374q0 74 -29 75q-11 0 -18.5 -13t-7.5 -22.5t-2 -93.5l-2 -89q59 99 59 143z" />
    <glyph glyph-name="registered" unicode="&#xae;" horiz-adv-x="374" 
d="M180 662q61 0 105 -44.5t44 -106.5q0 -63 -44 -106.5t-107 -43.5q-62 0 -106 44t-44 106q0 64 44 107.5t108 43.5zM177 643q-54 0 -92 -39t-38 -93t38.5 -93t92.5 -39q55 0 93 38.5t38 93.5t-38.5 93.5t-93.5 38.5zM156 513v-65h25v-16h-82v16h26v140q-1 1 -5 1
q-4 -1 -10.5 -1.5t-10.5 -0.5v17h83q64 0 64 -44q0 -31 -41 -42q18 -10 27 -49q2 -5 5 -14q2 -3 4 -3q7 0 7 23h15v-5q0 -41 -31 -41q-26 0 -31 33t-9 39q-8 12 -36 12zM156 529h22q34 0 34 30q0 29 -25 29h-31v-59z" />
    <glyph glyph-name="copyright" unicode="&#xa9;" horiz-adv-x="706" 
d="M343 670q138 0 236 -100t98 -239q0 -141 -99 -240t-240 -99q-140 0 -239 99t-99 239q0 145 99 242.5t244 97.5zM335 628q-121 0 -205.5 -87.5t-84.5 -209.5q0 -124 85 -210.5t209 -86.5q123 0 208.5 86.5t85.5 209.5q0 126 -86 212t-212 86zM477 530v-166h-32
q-17 68 -29 89q-25 44 -78 44q-101 0 -101 -171q0 -157 107 -157q92 0 112 116l36 -6q-19 -147 -154 -147q-82 0 -133 58q-49 55 -49 139q0 81 51.5 142.5t130.5 61.5q43 0 90 -31l20 28h29z" />
    <glyph glyph-name="trademark" unicode="&#x2122;" horiz-adv-x="598" 
d="M210 651l1 -99h-22q0 17 -5 48q-12 29 -43 29q-11 0 -11 -9v-193h38v-22h-120v22h39q-1 22 -1 193q0 9 -11 9q-32 0 -45 -35q0 -12 -3 -42h-21v99h204zM339 651l64 -170l61 170h86l2 -23h-37v-200h36v-23h-114v23h36v179l-73 -202h-14l-77 203v-128q0 -30 4 -39
q8 -13 34 -13v-23h-102v23q27 0 34 13q4 8 4 39v146h-36v25h92z" />
    <glyph glyph-name="acute" unicode="&#xb4;" horiz-adv-x="262" 
d="M201 267l-116 -75l-28 3l79 89z" />
    <glyph glyph-name="dieresis" unicode="&#xa8;" horiz-adv-x="252" 
d="M209 268q6 0 6 -7q0 -8 -7 -36q-12 -4 -38 -10q-2 0 -8 4q-5 13 -5 29q0 14 52 20zM209 268q6 0 6 -7q0 -8 -7 -36q-12 -4 -38 -10q-2 0 -8 4q-5 13 -5 29q0 14 52 20zM209 268q6 0 6 -7q0 -8 -7 -36q-12 -4 -38 -10q-2 0 -8 4q-5 13 -5 29q0 14 52 20zM111 268q7 0 7 -7
q0 -8 -7 -36q-12 -4 -38 -10q-3 0 -8 4q-5 13 -5 29q0 14 51 20zM111 268q7 0 7 -7q0 -8 -7 -36q-12 -4 -38 -10q-3 0 -8 4q-5 13 -5 29q0 14 51 20zM111 268q7 0 7 -7q0 -8 -7 -36q-12 -4 -38 -10q-3 0 -8 4q-5 13 -5 29q0 14 51 20z" />
    <glyph glyph-name="AE" unicode="&#xc6;" horiz-adv-x="1233" 
d="M574 383q12 45 12 72q0 45 -20 92q-8 -57 -8 -87q0 -59 16 -77zM1032 535q-6 -23 -6 -76q0 -14 4 -34q5 -27 12 -28q22 12 22 29q0 35 -8 58q-5 15 -24 51zM528 142q-4 16 -4 34q0 7 -10 27t-8 28q-9 30 -9 118q0 52 17 114l35 110q-35 7 -68 7q-108 0 -243 -50
q-160 -59 -189 -142q-10 -28 -10 -67q0 -99 160 -162q128 -50 247 -50q56 0 82 33zM1210 168q-6 -15 -12 -43q-16 -73 -140 -114q-94 -31 -193 -31q-33 0 -140 23q-120 26 -131 43q-26 17 -49 55q-26 -64 -68.5 -90t-113.5 -26q-113 0 -230 69q-134 79 -134 182
q0 233 156 351q138 105 379 105q137 0 137 -25q0 -19 -16 -64q-18 -50 -33 -50l-34 10l-1 -5q0 -16 12.5 -47.5t12.5 -48.5q0 -23 -9 -67.5t-9 -67.5q0 -3 1 -11q42 28 106 46q38 10 113 30q-51 30 -88 73q-45 53 -45 102q0 61 54 102q50 39 112 39q49 0 89 -20l78 -40
q0 32 10 62h16l-5 -72q65 -72 65 -153q0 -34 -15 -72q-18 -46 -45 -48q-37 25 -46 58q-5 18 -5 75q0 23 8 54q-67 64 -212 64q-34 0 -48 -7q-21 -10 -21 -42q0 -58 81 -110l130 -68q16 -55 16 -96v-4q-55 0 -146 -13l-7 -1q-112 -17 -170 -44q-4 -15 -4 -32q0 -52 29 -88
q79 -25 181 -25q98 0 198 19q118 23 186 63z" />
    <glyph glyph-name="Oslash" unicode="&#xd8;" horiz-adv-x="827" 
d="M622 494l-387 -339q126 -72 241 -72q109 0 162 43q58 47 58 153q0 135 -74 215zM17 9l95 84q-105 89 -105 201q0 118 102 197q94 72 216 72q44 0 105 -14q77 -17 91 -43q7 -12 -5 -12q-3 0 -73 24t-124 21q-82 -5 -150 -47q-86 -53 -86 -135q0 -43 36 -97q39 -59 80 -83
l5 -3l392 345q-94 77 -258 77h-71q-41 -3 -83 -16q72 65 94 77q43 24 116 24q175 0 286 -88l101 89l23 -29l-96 -84q72 -74 72 -182q0 -56 -21 -111q-51 -134 -144 -207q-100 -79 -237 -79q-124 0 -239 81l-99 -87z" />
    <glyph glyph-name="plusminus" unicode="&#xb1;" 
 />
    <glyph glyph-name="yen" unicode="&#xa5;" horiz-adv-x="496" 
d="M385 70h-86l5 -67h-115l4 67h-94l20 30l74 -1l3 48h-97l20 31h80l1 10q-22 162 -79 162q-36 0 -57 -61q-10 -31 -20 -93l-16 3l6 61q5 46 38 104q37 64 79 70q34 5 76.5 -30t42.5 -68q0 -12 7 -24.5t7 -25.5q0 -36 8 -75q16 23 28 68q16 58 21 72q22 56 47 77t64 21
q12 0 21.5 -14t9.5 -27q0 -29 -27 -30q-7 8 -8 17q0 6 -3 6t-12 -3q-38 -13 -76 -96q-21 -46 -51 -114l-6 -10l99 1l-14 -32h-85v-46h99z" />
    <glyph glyph-name="mu" unicode="&#xb5;" horiz-adv-x="754" 
d="M581 547q0 49 -17 70t-65 21q-49 0 -83 -61q-27 -49 -26 -84l5 -6q10 -12 33.5 -25t38.5 -13q32 0 60 13q54 25 54 85zM323 84q-8 8 -114 57q-113 52 -138 52q-20 0 -20 -35q0 -61 62 -101q51 -33 103 -33q71 0 107 60zM282 271l83 27v121q-23 24 -59 75q-33 70 -33 121
q0 27 12 42q5 -5 19 -5q1 -49 7 -67q9 -26 43 -60q-2 11 -2 22q0 84 50 134.5t133 43.5q125 -10 125 -125q0 -79 -55 -142q-58 -66 -136 -66q-33 0 -70 15l1 -98q173 56 173 53v-34q-3 0 -173 -51q0 -93 -1 -106q42 -27 121 -64q117 -55 168 -55q22 0 50 8q-23 -35 -62 -62
q-44 -30 -82 -30q-34 0 -134 47q-39 18 -103 51q-68 -107 -181 -107q-73 0 -123.5 45t-50.5 117q0 51 41.5 91.5t92.5 40.5q77 0 213 -57l16 -10v80l-83 -25v30z" />
    <glyph glyph-name="mu" unicode="&#x3bc;" horiz-adv-x="754" 
d="M581 547q0 49 -17 70t-65 21q-49 0 -83 -61q-27 -49 -26 -84l5 -6q10 -12 33.5 -25t38.5 -13q32 0 60 13q54 25 54 85zM323 84q-8 8 -114 57q-113 52 -138 52q-20 0 -20 -35q0 -61 62 -101q51 -33 103 -33q71 0 107 60zM282 271l83 27v121q-23 24 -59 75q-33 70 -33 121
q0 27 12 42q5 -5 19 -5q1 -49 7 -67q9 -26 43 -60q-2 11 -2 22q0 84 50 134.5t133 43.5q125 -10 125 -125q0 -79 -55 -142q-58 -66 -136 -66q-33 0 -70 15l1 -98q173 56 173 53v-34q-3 0 -173 -51q0 -93 -1 -106q42 -27 121 -64q117 -55 168 -55q22 0 50 8q-23 -35 -62 -62
q-44 -30 -82 -30q-34 0 -134 47q-39 18 -103 51q-68 -107 -181 -107q-73 0 -123.5 45t-50.5 117q0 51 41.5 91.5t92.5 40.5q77 0 213 -57l16 -10v80l-83 -25v30z" />
    <glyph glyph-name="ordfeminine" unicode="&#xaa;" horiz-adv-x="756" 
d="M733 193q-42 -76 -99 -132q-74 -74 -140 -74q-38 0 -88 28q-30 18 -91 51q-56 28 -125 28q-132 0 -195 -105q-5 6 -14 20l233 281q-45 6 -70 11q-47 8 -64 19q0 15 1.5 44t1.5 44q0 21 22 13q66 -24 202 -31q79 84 144 166q-45 17 -105 17q-56 0 -123 -13l-114 -24
q8 29 24 61q20 42 37 50q27 12 101 22q65 8 106 8q139 0 178 -13q11 -4 13 -13q0 -5 1 -10l-217 -245q0 -2 -3 -4.5t-3 -3.5t1 -2l167 -1q51 0 115 20q-69 -123 -195 -123q-16 -2 -45 -2q-48 0 -131 5q-53 -57 -133 -155q105 55 185 55q55 0 143 -48t130 -48q58 0 133 111
q4 0 17 -7zM280 828l92 -38l97 38l48 -1l-107 -83h-71l-108 83z" />
    <glyph glyph-name="ordmasculine" unicode="&#xba;" horiz-adv-x="307" 
d="M279 31q0 -22 -25 -34q-20 -10 -44 -10q-8 0 -23.5 2.5t-24.5 2.5t-28.5 5t-29.5 5q-55 2 -75 -9l-5 13q38 36 114 110q-2 8 -17.5 18t-23.5 10q-17 -2 -21 -3q-8 -3 -15 -14q2 -14 15 -14q4 0 19 4q-18 -38 -47 -38q-12 0 -24.5 10t-12.5 22q0 22 29 37q25 13 49 13
q46 0 64 -4q74 -16 69 -16q8 0 34 11l7 -10l-104 -120q13 -15 40 -15q13 0 31 17q0 15 -20 15q17 17 37 17q32 0 32 -25zM143 229l69 39h27l-68 -63l-27 -1l-27 1l-67 63h26z" />
    <glyph glyph-name="ae" unicode="&#xe6;" horiz-adv-x="392" 
d="M132 115q-29 12 -43 12q-25 0 -25 -19t15.5 -37.5t34.5 -18.5q3 0 16 10zM412 100q-2 -13 -52 -52q-54 -42 -88 -46q-57 -7 -48 -7q-56 0 -83 35q-10 -6 -30 -19q-25 -15 -42 -15q-18 0 -43 11q-31 20 -31 52q0 29 13 46q40 53 99 50q30 -2 35 -12l5 13h31q2 -9 2 -19
q39 23 80 23q60 0 60 -34q0 -14 -15 -28t-30.5 -20.5t-29.5 -11.5q1 -6 23 -12q18 -5 28 -5q26 0 70.5 30t38.5 30q8 0 7 -9zM249 113q0 25 -24 25q-20 0 -20 -23t17 -34h3q10 0 17 10.5t7 21.5z" />
    <glyph glyph-name="oslash" unicode="&#xf8;" horiz-adv-x="321" 
d="M174 105l-58 -46q32 -14 56 -14q26 0 26 21t-24 39zM94 71l59 46q-23 10 -41 10q-40 0 -40 -23q0 -17 22 -33zM4 1l19 15q-24 20 -24 47q0 53 48 80q39 21 97 21q31 0 53 -13l30 24l14 -19l-26 -20q13 -15 20 -35q17 -4 42 -4q47 0 76 16l11 -14q-42 -27 -97 -27
q-27 0 -33 1q-18 -47 -55 -66q-30 -16 -85 -16q-26 0 -51 12l-25 -20z" />
    <glyph glyph-name="questiondown" unicode="&#xbf;" horiz-adv-x="252" 
d="M33 -144q0 32 5 63q8 52 73 106q13 11 47 40q14 16 11 33q-13 15 -28 11q3 4 26 27q13 -3 23.5 -22t10.5 -34q0 20 -8 -4q-9 -32 -19 -65q-14 -46 -25.5 -64t-35.5 -54q-31 -47 -31 -66q0 -8 6 -17q31 10 53 52q6 10 29 69q14 -10 27 -20q17 -14 17 -26q0 -24 -33.5 -57
t-58.5 -37h-22q-21 0 -42.5 20t-21.5 41q-3 -1 -3 4zM119 157q0 32 5 36q25 10 50 21q11 -4 14 -51q-22 -15 -66 -40q-3 14 -3 34z" />
    <glyph glyph-name="exclamdown" unicode="&#xa1;" horiz-adv-x="173" 
d="M31 -103q0 3 3 4l2 2l11 166q20 11 64 27q1 -5 4 -102l5 -184q-13 -10 -44 -23l-48 -20q-1 5 1 16t2 14v100zM46 138q-2 1 -5 1q-5 5 -5 8q0 10 10 48q16 6 51 13q3 0 10 -5q7 -18 7 -39q0 -19 -68 -26zM46 138q-2 1 -5 1q-5 5 -5 8q0 10 10 48q16 6 51 13q3 0 10 -5
q7 -18 7 -39q0 -19 -68 -26zM46 138q-2 1 -5 1q-5 5 -5 8q0 10 10 48q16 6 51 13q3 0 10 -5q7 -18 7 -39q0 -19 -68 -26z" />
    <glyph glyph-name="logicalnot" unicode="&#xac;" 
 />
    <glyph glyph-name="florin" unicode="&#x192;" 
 />
    <glyph glyph-name="guillemotleft" unicode="&#xab;" horiz-adv-x="343" 
d="M284 215l-53 -92l56 -91l-6 -21l-117 108l114 113zM154 215l-53 -92l56 -91l-6 -21l-117 108l114 113z" />
    <glyph glyph-name="guillemotright" unicode="&#xbb;" horiz-adv-x="343" 
d="M37 215l52 -92l-55 -91l6 -21l117 108l-115 113zM167 215l52 -92l-55 -91l6 -21l117 108l-115 113z" />
    <glyph glyph-name="ellipsis" unicode="&#x2026;" horiz-adv-x="521" 
d="M482 66q2 0 4 -1q5 -5 5 -8q0 -10 -9 -48q-16 -5 -51 -12q-3 0 -11 4q-6 18 -6 39q0 19 68 26zM482 66q2 0 4 -1q5 -5 5 -8q0 -10 -9 -48q-16 -5 -51 -12q-3 0 -11 4q-6 18 -6 39q0 19 68 26zM482 66q2 0 4 -1q5 -5 5 -8q0 -10 -9 -48q-16 -5 -51 -12q-3 0 -11 4
q-6 18 -6 39q0 19 68 26zM312 66q2 0 4 -1q5 -5 5 -8q0 -10 -9 -48q-16 -5 -51 -12q-3 0 -11 4q-6 18 -6 39q0 19 68 26zM312 66q2 0 4 -1q5 -5 5 -8q0 -10 -9 -48q-16 -5 -51 -12q-3 0 -11 4q-6 18 -6 39q0 19 68 26zM312 66q2 0 4 -1q5 -5 5 -8q0 -10 -9 -48
q-16 -5 -51 -12q-3 0 -11 4q-6 18 -6 39q0 19 68 26zM142 66q2 0 4 -1q5 -5 5 -8q0 -10 -9 -48q-16 -5 -51 -12q-3 0 -11 4q-6 18 -6 39q0 19 68 26zM142 66q2 0 4 -1q5 -5 5 -8q0 -10 -9 -48q-16 -5 -51 -12q-3 0 -11 4q-6 18 -6 39q0 19 68 26zM142 66q2 0 4 -1q5 -5 5 -8
q0 -10 -9 -48q-16 -5 -51 -12q-3 0 -11 4q-6 18 -6 39q0 19 68 26z" />
    <glyph glyph-name="nonbreakingspace" unicode="&#xa0;" horiz-adv-x="200" 
 />
    <glyph glyph-name="Agrave" unicode="&#xc0;" horiz-adv-x="759" 
d="M642 -10q-7 0 -44 62q-16 27 -43 76q-25 -77 -68.5 -110t-123.5 -33q-113 0 -230 69q-134 79 -134 182q0 233 156 351q138 105 379 105q137 0 137 -25q0 -19 -16 -64q-18 -50 -33 -50l-34 10l-1 -5q0 -16 12.5 -47.5t12.5 -48.5q0 -21 -9.5 -61t-9.5 -61q0 -29 31 -108.5
t51 -95.5q4 -11 12 -11t22 24q6 10 18 31q1 0 3 -1q5 2 6 2q2 -1 1 -8q-13 -54 -41 -113q-33 -70 -54 -70zM574 383q12 45 12 72q0 45 -20 92q-8 -57 -8 -87q0 -59 16 -77zM549 573q-35 7 -68 7q-108 0 -243 -50q-160 -59 -189 -142q-10 -28 -10 -67q0 -99 160 -162
q128 -50 247 -50q33 0 60 15q32 17 32 48q0 30 -20.5 88t-20.5 89q0 52 17 114zM330 833l157 -101l38 4l-109 124z" />
    <glyph glyph-name="Atilde" unicode="&#xc3;" horiz-adv-x="759" 
d="M642 -10q-7 0 -44 62q-16 27 -43 76q-25 -77 -68.5 -110t-123.5 -33q-113 0 -230 69q-134 79 -134 182q0 233 156 351q138 105 379 105q137 0 137 -25q0 -19 -16 -64q-18 -50 -33 -50l-34 10l-1 -5q0 -16 12.5 -47.5t12.5 -48.5q0 -21 -9.5 -61t-9.5 -61q0 -29 31 -108.5
t51 -95.5q4 -11 12 -11t22 24q6 10 18 31q1 0 3 -1q5 2 6 2q2 -1 1 -8q-13 -54 -41 -113q-33 -70 -54 -70zM574 383q12 45 12 72q0 45 -20 92q-8 -57 -8 -87q0 -59 16 -77zM549 573q-35 7 -68 7q-108 0 -243 -50q-160 -59 -189 -142q-10 -28 -10 -67q0 -99 160 -162
q128 -50 247 -50q33 0 60 15q32 17 32 48q0 30 -20.5 88t-20.5 89q0 52 17 114zM316 739l-12 12q37 77 86 77q23 0 70 -17.5t67 -17.5q21 0 44 9.5t32 25.5l8 -15q-37 -77 -85 -77q-23 0 -70.5 17t-67.5 17q-55 0 -72 -31z" />
    <glyph glyph-name="Otilde" unicode="&#xd5;" horiz-adv-x="827" 
d="M780 387q0 -56 -21 -111q-51 -134 -144 -207q-100 -79 -237 -79q-129 0 -245 86q-126 94 -126 218q0 118 102 197q94 72 216 72q44 0 105 -14q77 -17 91 -43q7 -12 -5 -12q-3 0 -73 24t-124 21q-82 -5 -150 -47q-86 -53 -86 -135q0 -46 39 -101q34 -49 77 -79
q56 -39 132 -66q81 -28 145 -28q109 0 162 43q58 47 58 153q0 159 -102 242q-94 75 -256 75h-71q-41 -3 -83 -16q72 65 94 77q43 24 116 24q146 0 254 -65q132 -80 132 -229zM276 739l-12 12q37 77 86 77q23 0 70 -17.5t67 -17.5q21 0 44 9.5t32 25.5l8 -15q-37 -77 -85 -77
q-23 0 -70.5 17t-67.5 17q-55 0 -72 -31z" />
    <glyph glyph-name="OE" unicode="&#x152;" horiz-adv-x="1313" 
d="M1122 535q-6 -23 -6 -76q0 -14 4 -34q5 -27 12 -28q22 12 22 29q0 35 -8 58q-5 15 -24 51zM692 231q-46 -24 -46 -55q0 -15 13 -28q26 33 33 83zM1300 168q-6 -15 -12 -43q-16 -73 -140 -114q-94 -31 -193 -31q-90 0 -169 23q-103 30 -145 89q-109 -102 -263 -102
q-129 0 -245 86q-126 94 -126 218q0 118 102 197q94 72 216 72q44 0 105 -14q77 -17 91 -43q7 -12 -5 -12q-3 0 -73 24t-124 21q-82 -5 -150 -47q-86 -53 -86 -135q0 -46 39 -101q34 -49 77 -79q56 -39 132 -66q81 -28 145 -28q98 0 150 35q-12 26 -12 58q0 95 80 145
q-14 140 -117 211q-93 64 -239 64h-71q-41 -3 -83 -16q72 65 94 77q43 24 116 24q146 0 254 -65q132 -80 132 -229q0 -8 -3 -30q44 12 127 35q-51 30 -88 73q-45 53 -45 102q0 61 54 102q50 39 112 39q49 0 89 -20l78 -40q0 32 10 62h16l-5 -72q65 -72 65 -153
q0 -34 -15 -72q-18 -46 -45 -48q-37 25 -46 58q-5 18 -5 75q0 23 8 54q-67 64 -212 64q-34 0 -48 -7q-21 -10 -21 -42q0 -58 81 -110l130 -68q16 -55 16 -96v-4q-159 0 -283 -36q-29 -68 -71 -119q42 -24 127 -38q63 -10 110 -10q98 0 198 19q118 23 186 63z" />
    <glyph glyph-name="oe" unicode="&#x153;" horiz-adv-x="453" 
d="M192 50q-1 6 -1 13q0 11 2 21q-10 18 -34.5 30.5t-46.5 12.5q-40 0 -40 -23q0 -24 40 -43q33 -16 60 -16q15 0 20 5zM472 102q-2 -13 -52 -52q-54 -42 -88 -46q-57 -7 -48 -7q-49 0 -78 29q-33 -35 -112 -35q-35 0 -63 18q-32 21 -32 54q0 53 48 80q39 21 97 21
q50 0 76 -35q37 33 100 33q60 0 60 -34q0 -12 -20 -33q-11 -11 -55 -27q1 -6 23 -12q18 -5 28 -5q26 0 70.5 30t38.5 30q8 0 7 -9zM309 115q0 24 -24 24q-20 0 -20 -22q0 -23 17 -34h3q10 0 17 10.5t7 21.5z" />
    <glyph glyph-name="endash" unicode="&#x2013;" horiz-adv-x="546" 
d="M512 140l-492 1l30 58l493 -1z" />
    <glyph glyph-name="emdash" unicode="&#x2014;" horiz-adv-x="1055" 
d="M20 141l25 56l988 1l-31 -58z" />
    <glyph glyph-name="quotedblleft" unicode="&#x201c;" horiz-adv-x="302" 
d="M204 415q12 9 40 9q6 0 13.5 -15t8.5 -24q2 -16 -27 -28q-24 -9 -43 -9q-15 0 -23.5 13.5t-8.5 28.5q0 21 11 45.5t27 34.5l22 -7q-11 -17 -20 -48zM64 415q12 9 40 9q6 0 13.5 -15t8.5 -24q2 -16 -27 -28q-24 -9 -43 -9q-15 0 -23.5 13.5t-8.5 28.5q0 21 11 45.5
t27 34.5l22 -7q-11 -17 -20 -48z" />
    <glyph glyph-name="quotedblright" unicode="&#x201d;" horiz-adv-x="302" 
d="M87 402q-13 -9 -40 -9q-7 0 -14.5 15t-8.5 24q-2 16 27 28q24 10 43 10q15 0 23.5 -13t8.5 -29q0 -20 -11 -45t-26 -35l-23 7q11 16 21 47zM227 402q-13 -9 -40 -9q-7 0 -14.5 15t-8.5 24q-2 16 27 28q24 10 43 10q15 0 23.5 -13t8.5 -29q0 -20 -11 -45t-26 -35l-23 7
q11 16 21 47z" />
    <glyph glyph-name="quoteleft" unicode="&#x2018;" horiz-adv-x="166" 
d="M64 415q12 9 40 9q6 0 13.5 -15t8.5 -24q2 -16 -27 -28q-24 -9 -43 -9q-15 0 -23.5 13.5t-8.5 28.5q0 21 11 45.5t27 34.5l22 -7q-11 -17 -20 -48z" />
    <glyph glyph-name="quoteright" unicode="&#x2019;" horiz-adv-x="173" 
d="M87 402q-13 -9 -40 -9q-7 0 -14.5 15.5t-8.5 23.5q-1 16 27 28q24 10 43 10q15 0 23.5 -13t8.5 -29q0 -20 -11 -45t-26 -35l-23 7q11 16 21 47z" />
    <glyph glyph-name="ydieresis" unicode="&#xff;" horiz-adv-x="362" 
d="M396 96l-119 -80q3 -5 3 -19q0 -67 -31 -141q-40 -95 -104 -95q-27 0 -52 25t-25 52q0 78 106 141v93q-62 -77 -114 -77q-47 0 -47 47q0 5 1 12v9q0 10 1 70l102 35v-99q0 -15 10 -15q21 17 52 82l98 33l-1 -129q29 16 112 70zM177 -168q0 119 -1 125q-23 -13 -39 -52
q-15 -34 -15 -64q0 -55 33 -65q22 10 22 56zM239 268q6 0 6 -7q0 -8 -7 -36q-12 -4 -38 -10q-2 0 -8 4q-5 13 -5 29q0 14 52 20zM239 268q6 0 6 -7q0 -8 -7 -36q-12 -4 -38 -10q-2 0 -8 4q-5 13 -5 29q0 14 52 20zM239 268q6 0 6 -7q0 -8 -7 -36q-12 -4 -38 -10q-2 0 -8 4
q-5 13 -5 29q0 14 52 20zM141 268q7 0 7 -7q0 -8 -7 -36q-12 -4 -38 -10q-3 0 -8 4q-5 13 -5 29q0 14 51 20zM141 268q7 0 7 -7q0 -8 -7 -36q-12 -4 -38 -10q-3 0 -8 4q-5 13 -5 29q0 14 51 20zM141 268q7 0 7 -7q0 -8 -7 -36q-12 -4 -38 -10q-3 0 -8 4q-5 13 -5 29
q0 14 51 20z" />
    <glyph glyph-name="Ydieresis" unicode="&#x178;" horiz-adv-x="748" 
d="M709 -14l-21 -60q-11 -30 -34 -54q-6 -9 -38 -15q-40 -8 -44 -9q-4 -73 -10 -120q-12 -96 -31 -100q-3 -2 -8 -2q-13 0 -65 22q-58 24 -71 28l-91 26q-64 23 -64 53q0 48 34 98q24 35 124 69q71 24 145 38q-1 35 -1 88q0 52 1 123q-23 -37 -71.5 -109.5t-98.5 -72.5
q-30 0 -52 47q-19 40 -19 75q0 65 43 199.5t43 204.5q0 47 -43 74q-38 23 -87 23q-74 0 -121 -118q-38 -95 -38 -181q0 -33 11 -58q15 -34 43 -34q43 0 87 84q33 63 48 125q6 7 15 7l9 -13q-6 -39 -15 -75q-53 -218 -182 -218q-46 0 -75 41q-26 36 -26 84q0 137 98 277
q107 153 238 153q111 0 111 -113q0 -62 -42.5 -178.5t-42.5 -178.5q0 -94 56 -94q39 0 76 44q34 40 40 81q25 187 30 208q27 124 87 184q15 21 23 21q1 -1 -1 -2q12 -4 12 -24q0 -66 -84 -301q-11 -30 -38 -108v-263q89 19 140 24zM542 -154q-146 -29 -221 -60
q29 -4 106 -48.5t90 -44.5q9 0 15 39q9 59 10 114zM622 789l-8 -28q-16 -1 -30 -5q-34 -10 -45 0q-13 21 -13 42q0 24 74 34q26 3 26 -21q0 -9 -4 -22zM445 789l-8 -28q-16 -1 -30 -5q-34 -10 -45 0q-13 21 -13 42q0 24 74 34q26 3 26 -21q0 -9 -4 -22zM622 789l-8 -28
q-16 -1 -30 -5q-34 -10 -45 0q-13 21 -13 42q0 24 74 34q26 3 26 -21q0 -9 -4 -22zM445 789l-8 -28q-16 -1 -30 -5q-34 -10 -45 0q-13 21 -13 42q0 24 74 34q26 3 26 -21q0 -9 -4 -22z" />
    <glyph glyph-name="guilsinglleft" unicode="&#x2039;" horiz-adv-x="199" 
d="M154 215l-53 -92l56 -91l-6 -21l-117 108l114 113z" />
    <glyph glyph-name="guilsinglright" unicode="&#x203a;" horiz-adv-x="199" 
d="M37 215l52 -92l-55 -91l6 -21l117 108l-115 113z" />
    <glyph glyph-name="periodcentered" unicode="&#xb7;" horiz-adv-x="249" 
d="M167 720q-151 -235 -151 -415q0 -178 151 -388l21 -1q-82 236 -82 379q0 131 82 422z" />
    <glyph glyph-name="periodcentered" unicode="&#x2219;" horiz-adv-x="249" 
d="M167 720q-151 -235 -151 -415q0 -178 151 -388l21 -1q-82 236 -82 379q0 131 82 422z" />
    <glyph glyph-name="quotesinglbase" unicode="&#x201a;" horiz-adv-x="249" 
d="M38 720q150 -235 150 -415q0 -178 -150 -388l-22 -1q82 236 82 379q0 131 -82 422z" />
    <glyph glyph-name="quotedblbase" unicode="&#x201e;" horiz-adv-x="264" 
d="M239 37q0 -42 -31 -62l-10 3q18 27 18 43q0 5 -2 11q-10 -22 -47 -22q-11 0 -15 32q-2 15 24 23q19 6 38 6q25 0 25 -34zM119 37q0 -42 -31 -62l-10 3q18 27 18 43q0 5 -2 11q-10 -22 -47 -22q-11 0 -15 32q-2 15 24 23q19 6 38 6q25 0 25 -34z" />
    <glyph glyph-name="Acircumflex" unicode="&#xc2;" horiz-adv-x="759" 
d="M642 -10q-7 0 -44 62q-16 27 -43 76q-25 -77 -68.5 -110t-123.5 -33q-113 0 -230 69q-134 79 -134 182q0 233 156 351q138 105 379 105q137 0 137 -25q0 -19 -16 -64q-18 -50 -33 -50l-34 10l-1 -5q0 -16 12.5 -47.5t12.5 -48.5q0 -21 -9.5 -61t-9.5 -61q0 -29 31 -108.5
t51 -95.5q4 -11 12 -11t22 24q6 10 18 31q1 0 3 -1q5 2 6 2q2 -1 1 -8q-13 -54 -41 -113q-33 -70 -54 -70zM574 383q12 45 12 72q0 45 -20 92q-8 -57 -8 -87q0 -59 16 -77zM549 573q-35 7 -68 7q-108 0 -243 -50q-160 -59 -189 -142q-10 -28 -10 -67q0 -99 160 -162
q128 -50 247 -50q33 0 60 15q32 17 32 48q0 30 -20.5 88t-20.5 89q0 52 17 114zM518 754l-92 38l-97 -38h-48l108 84h71l107 -84h-49z" />
    <glyph glyph-name="Ecircumflex" unicode="&#xca;" horiz-adv-x="691" 
d="M492 535q-6 -23 -6 -76q0 -14 4 -34q5 -27 12 -28q22 12 22 29q0 35 -8 58q-5 15 -24 51zM670 168q-6 -15 -12 -43q-16 -73 -140 -114q-94 -31 -193 -31q-122 0 -215 39q-126 53 -126 157q0 74 48 121q38 36 113 61q3 1 129 34q-51 30 -88 73q-45 53 -45 102q0 61 54 102
q50 39 112 39q49 0 89 -20l78 -40q0 32 10 62h16l-5 -72q65 -72 65 -153q0 -34 -15 -72q-18 -46 -45 -48q-37 25 -46 58q-5 18 -5 75q0 23 8 54q-67 64 -212 64q-34 0 -48 -7q-21 -10 -21 -42q0 -58 81 -110l130 -68q16 -55 16 -96v-4q-107 0 -220 -21q-167 -31 -167 -92
q0 -45 116 -71q84 -19 154 -19q98 0 198 19q118 23 186 63zM438 754l-92 38l-97 -38h-48l108 84h71l107 -84h-49z" />
    <glyph glyph-name="Aacute" unicode="&#xc1;" horiz-adv-x="759" 
d="M642 -10q-7 0 -44 62q-16 27 -43 76q-25 -77 -68.5 -110t-123.5 -33q-113 0 -230 69q-134 79 -134 182q0 233 156 351q138 105 379 105q137 0 137 -25q0 -19 -16 -64q-18 -50 -33 -50l-34 10l-1 -5q0 -16 12.5 -47.5t12.5 -48.5q0 -21 -9.5 -61t-9.5 -61q0 -29 31 -108.5
t51 -95.5q4 -11 12 -11t22 24q6 10 18 31q1 0 3 -1q5 2 6 2q2 -1 1 -8q-13 -54 -41 -113q-33 -70 -54 -70zM574 383q12 45 12 72q0 45 -20 92q-8 -57 -8 -87q0 -59 16 -77zM549 573q-35 7 -68 7q-108 0 -243 -50q-160 -59 -189 -142q-10 -28 -10 -67q0 -99 160 -162
q128 -50 247 -50q33 0 60 15q32 17 32 48q0 30 -20.5 88t-20.5 89q0 52 17 114zM582 823l-158 -101l-38 4l110 124z" />
    <glyph glyph-name="Edieresis" unicode="&#xcb;" horiz-adv-x="691" 
d="M492 535q-6 -23 -6 -76q0 -14 4 -34q5 -27 12 -28q22 12 22 29q0 35 -8 58q-5 15 -24 51zM670 168q-6 -15 -12 -43q-16 -73 -140 -114q-94 -31 -193 -31q-122 0 -215 39q-126 53 -126 157q0 74 48 121q38 36 113 61q3 1 129 34q-51 30 -88 73q-45 53 -45 102q0 61 54 102
q50 39 112 39q49 0 89 -20l78 -40q0 32 10 62h16l-5 -72q65 -72 65 -153q0 -34 -15 -72q-18 -46 -45 -48q-37 25 -46 58q-5 18 -5 75q0 23 8 54q-67 64 -212 64q-34 0 -48 -7q-21 -10 -21 -42q0 -58 81 -110l130 -68q16 -55 16 -96v-4q-107 0 -220 -21q-167 -31 -167 -92
q0 -45 116 -71q84 -19 154 -19q98 0 198 19q118 23 186 63zM492 789l-8 -28q-16 -1 -30 -5q-34 -10 -45 0q-13 21 -13 42q0 24 74 34q26 3 26 -21q0 -9 -4 -22zM315 789l-8 -28q-16 -1 -30 -5q-34 -10 -45 0q-13 21 -13 42q0 24 74 34q26 3 26 -21q0 -9 -4 -22zM492 789
l-8 -28q-16 -1 -30 -5q-34 -10 -45 0q-13 21 -13 42q0 24 74 34q26 3 26 -21q0 -9 -4 -22zM315 789l-8 -28q-16 -1 -30 -5q-34 -10 -45 0q-13 21 -13 42q0 24 74 34q26 3 26 -21q0 -9 -4 -22z" />
    <glyph glyph-name="Egrave" unicode="&#xc8;" horiz-adv-x="691" 
d="M492 535q-6 -23 -6 -76q0 -14 4 -34q5 -27 12 -28q22 12 22 29q0 35 -8 58q-5 15 -24 51zM670 168q-6 -15 -12 -43q-16 -73 -140 -114q-94 -31 -193 -31q-122 0 -215 39q-126 53 -126 157q0 74 48 121q38 36 113 61q3 1 129 34q-51 30 -88 73q-45 53 -45 102q0 61 54 102
q50 39 112 39q49 0 89 -20l78 -40q0 32 10 62h16l-5 -72q65 -72 65 -153q0 -34 -15 -72q-18 -46 -45 -48q-37 25 -46 58q-5 18 -5 75q0 23 8 54q-67 64 -212 64q-34 0 -48 -7q-21 -10 -21 -42q0 -58 81 -110l130 -68q16 -55 16 -96v-4q-107 0 -220 -21q-167 -31 -167 -92
q0 -45 116 -71q84 -19 154 -19q98 0 198 19q118 23 186 63zM240 833l157 -101l38 4l-109 124z" />
    <glyph glyph-name="Iacute" unicode="&#xcd;" horiz-adv-x="631" 
d="M622 269q-14 -27 -35 -55q-33 -45 -54 -45q-7 0 -20 2t-20 2q33 33 54 -80q15 -80 15 -134l-25 -3q-14 49 -28 99q-17 56 -40 94l-17 -46q-11 -25 -26 -42q-56 -63 -179 -63q-70 0 -153 50q-102 61 -102 147q0 63 73 83q47 13 111 9l193 -12q18 -5 29 -5t11 5
q-5 12 -29 48q-84 129 -84 203q0 56 31 100q35 50 88 50q39 0 39 -37q0 -24 -2 -27q-3 -8 -28 -25q6 -79 43 -319q67 -8 77 -8q-11 0 78 9zM438 286q-16 99 -37 299q-47 -22 -47 -70q0 -40 35 -125q25 -60 49 -104zM428 169q-91 14 -187 18q-17 1 -59 3q-38 2 -49 2
q-91 0 -106 -18q10 -40 92 -65q65 -20 117 -20q112 0 192 80zM512 813l-158 -101l-38 4l110 124z" />
    <glyph glyph-name="Icircumflex" unicode="&#xce;" horiz-adv-x="631" 
d="M622 269q-14 -27 -35 -55q-33 -45 -54 -45q-7 0 -20 2t-20 2q33 33 54 -80q15 -80 15 -134l-25 -3q-14 49 -28 99q-17 56 -40 94l-17 -46q-11 -25 -26 -42q-56 -63 -179 -63q-70 0 -153 50q-102 61 -102 147q0 63 73 83q47 13 111 9l193 -12q18 -5 29 -5t11 5
q-5 12 -29 48q-84 129 -84 203q0 56 31 100q35 50 88 50q39 0 39 -37q0 -24 -2 -27q-3 -8 -28 -25q6 -79 43 -319q67 -8 77 -8q-11 0 78 9zM438 286q-16 99 -37 299q-47 -22 -47 -70q0 -40 35 -125q25 -60 49 -104zM428 169q-91 14 -187 18q-17 1 -59 3q-38 2 -49 2
q-91 0 -106 -18q10 -40 92 -65q65 -20 117 -20q112 0 192 80zM468 724l-92 38l-97 -38h-48l108 84h71l107 -84h-49z" />
    <glyph glyph-name="Idieresis" unicode="&#xcf;" horiz-adv-x="631" 
d="M622 269q-14 -27 -35 -55q-33 -45 -54 -45q-7 0 -20 2t-20 2q33 33 54 -80q15 -80 15 -134l-25 -3q-14 49 -28 99q-17 56 -40 94l-17 -46q-11 -25 -26 -42q-56 -63 -179 -63q-70 0 -153 50q-102 61 -102 147q0 63 73 83q47 13 111 9l193 -12q18 -5 29 -5t11 5
q-5 12 -29 48q-84 129 -84 203q0 56 31 100q35 50 88 50q39 0 39 -37q0 -24 -2 -27q-3 -8 -28 -25q6 -79 43 -319q67 -8 77 -8q-11 0 78 9zM438 286q-16 99 -37 299q-47 -22 -47 -70q0 -40 35 -125q25 -60 49 -104zM428 169q-91 14 -187 18q-17 1 -59 3q-38 2 -49 2
q-91 0 -106 -18q10 -40 92 -65q65 -20 117 -20q112 0 192 80zM502 769l-8 -28q-16 -1 -30 -5q-34 -10 -45 0q-13 21 -13 42q0 24 74 34q26 3 26 -21q0 -9 -4 -22zM324 764l-8 -28q-16 -1 -30 -5q-34 -10 -45 0q-13 21 -13 42q0 25 74 34q26 4 26 -21q0 -8 -4 -22z" />
    <glyph glyph-name="Igrave" unicode="&#xcc;" horiz-adv-x="631" 
d="M622 269q-14 -27 -35 -55q-33 -45 -54 -45q-7 0 -20 2t-20 2q33 33 54 -80q15 -80 15 -134l-25 -3q-14 49 -28 99q-17 56 -40 94l-17 -46q-11 -25 -26 -42q-56 -63 -179 -63q-70 0 -153 50q-102 61 -102 147q0 63 73 83q47 13 111 9l193 -12q18 -5 29 -5t11 5
q-5 12 -29 48q-84 129 -84 203q0 56 31 100q35 50 88 50q39 0 39 -37q0 -24 -2 -27q-3 -8 -28 -25q6 -79 43 -319q67 -8 77 -8q-11 0 78 9zM438 286q-16 99 -37 299q-47 -22 -47 -70q0 -40 35 -125q25 -60 49 -104zM428 169q-91 14 -187 18q-17 1 -59 3q-38 2 -49 2
q-91 0 -106 -18q10 -40 92 -65q65 -20 117 -20q112 0 192 80zM260 823l157 -101l38 4l-109 124z" />
    <glyph glyph-name="Oacute" unicode="&#xd3;" horiz-adv-x="827" 
d="M780 387q0 -56 -21 -111q-51 -134 -144 -207q-100 -79 -237 -79q-129 0 -245 86q-126 94 -126 218q0 118 102 197q94 72 216 72q44 0 105 -14q77 -17 91 -43q7 -12 -5 -12q-3 0 -73 24t-124 21q-82 -5 -150 -47q-86 -53 -86 -135q0 -46 39 -101q34 -49 77 -79
q56 -39 132 -66q81 -28 145 -28q109 0 162 43q58 47 58 153q0 159 -102 242q-94 75 -256 75h-71q-41 -3 -83 -16q72 65 94 77q43 24 116 24q146 0 254 -65q132 -80 132 -229zM552 823l-158 -101l-38 4l110 124z" />
    <glyph glyph-name="Ocircumflex" unicode="&#xd4;" horiz-adv-x="827" 
d="M780 387q0 -56 -21 -111q-51 -134 -144 -207q-100 -79 -237 -79q-129 0 -245 86q-126 94 -126 218q0 118 102 197q94 72 216 72q44 0 105 -14q77 -17 91 -43q7 -12 -5 -12q-3 0 -73 24t-124 21q-82 -5 -150 -47q-86 -53 -86 -135q0 -46 39 -101q34 -49 77 -79
q56 -39 132 -66q81 -28 145 -28q109 0 162 43q58 47 58 153q0 159 -102 242q-94 75 -256 75h-71q-41 -3 -83 -16q72 65 94 77q43 24 116 24q146 0 254 -65q132 -80 132 -229zM518 734l-92 38l-97 -38h-48l108 84h71l107 -84h-49z" />
    <glyph glyph-name="Ograve" unicode="&#xd2;" horiz-adv-x="827" 
d="M780 387q0 -56 -21 -111q-51 -134 -144 -207q-100 -79 -237 -79q-129 0 -245 86q-126 94 -126 218q0 118 102 197q94 72 216 72q44 0 105 -14q77 -17 91 -43q7 -12 -5 -12q-3 0 -73 24t-124 21q-82 -5 -150 -47q-86 -53 -86 -135q0 -46 39 -101q34 -49 77 -79
q56 -39 132 -66q81 -28 145 -28q109 0 162 43q58 47 58 153q0 159 -102 242q-94 75 -256 75h-71q-41 -3 -83 -16q72 65 94 77q43 24 116 24q146 0 254 -65q132 -80 132 -229zM320 823l157 -101l38 4l-109 124z" />
    <glyph glyph-name="Uacute" unicode="&#xda;" horiz-adv-x="790" 
d="M581 -30q-59 0 -99 76q-9 16 -50 129q-35 -78 -85 -129q-63 -66 -133 -66q-94 0 -141 89q-38 71 -38 173q0 128 60 259q-84 67 -100 112q48 42 93 72q20 -28 63 -84q16 35 58 74q49 45 93 45q18 0 34 -12.5t16 -30.5q0 -51 -43 -100q-36 -41 -88 -67q-7 -2 -41 -16
q-9 -1 -21 -4q-20 -72 -20 -184q0 -82 31 -141q39 -74 114 -74q48 0 94 59q41 53 48 105q2 14 2 73q0 210 58 281q18 21 50 39q28 13 57 27q-3 -19 -18 -84q-27 -114 -27 -290q0 -205 99 -205q31 0 64 25q12 9 53 50q10 -8 10 -9q0 -26 -61 -99t-86.5 -83t-45.5 -10z
M289 625q0 12 -10.5 21.5t-22.5 9.5q-27 0 -51.5 -33.5t-26.5 -62.5q8 -6 18 -6q17 0 54 15q39 37 39 56zM582 823l-158 -101l-38 4l110 124z" />
    <glyph glyph-name="Ucircumflex" unicode="&#xdb;" horiz-adv-x="790" 
d="M774 162q0 -26 -61 -99t-86.5 -83t-45.5 -10q-59 0 -99 76q-9 16 -50 129q-35 -78 -85 -129q-63 -66 -133 -66q-94 0 -141 89q-38 71 -38 173q0 128 60 259q-84 67 -100 112q48 42 93 72q20 -28 63 -84q16 35 58 74q49 45 93 45q18 0 34 -12.5t16 -30.5q0 -51 -43 -100
q-36 -41 -88 -67q-7 -2 -41 -16q-9 -1 -21 -4q-20 -72 -20 -184q0 -82 31 -141q39 -74 114 -74q48 0 94 59q41 53 48 105q2 14 2 73q0 210 58 281q18 21 50 39q28 13 57 27q-3 -19 -18 -84q-27 -114 -27 -290q0 -205 99 -205q31 0 64 25q12 9 53 50q10 -8 10 -9zM289 625
q0 12 -10.5 21.5t-22.5 9.5q-27 0 -51.5 -33.5t-26.5 -62.5q8 -6 18 -6q17 0 54 15q39 37 39 56zM458 744l-92 38l-97 -38h-48l108 84h71l107 -84h-49z" />
    <glyph glyph-name="Ugrave" unicode="&#xd9;" horiz-adv-x="790" 
d="M581 -30q-59 0 -99 76q-9 16 -50 129q-35 -78 -85 -129q-63 -66 -133 -66q-94 0 -141 89q-38 71 -38 173q0 128 60 259q-84 67 -100 112q48 42 93 72q20 -28 63 -84q16 35 58 74q49 45 93 45q18 0 34 -12.5t16 -30.5q0 -51 -43 -100q-36 -41 -88 -67q-7 -2 -41 -16
q-9 -1 -21 -4q-20 -72 -20 -184q0 -82 31 -141q39 -74 114 -74q48 0 94 59q41 53 48 105q2 14 2 73q0 210 58 281q18 21 50 39q28 13 57 27q-3 -19 -18 -84q-27 -114 -27 -290q0 -205 99 -205q31 0 64 25q12 9 53 50q10 -8 10 -9q0 -26 -61 -99t-86.5 -83t-45.5 -10z
M289 625q0 12 -10.5 21.5t-22.5 9.5q-27 0 -51.5 -33.5t-26.5 -62.5q8 -6 18 -6q17 0 54 15q39 37 39 56zM280 823l157 -101l38 4l-109 124z" />
    <glyph glyph-name="circumflex" unicode="&#x2c6;" horiz-adv-x="264" 
d="M136 243l-70 -39h-26l67 64h54l68 -64h-27z" />
    <glyph glyph-name="tilde" unicode="&#x2dc;" horiz-adv-x="429" 
d="M127 212l-8 8q24 49 55 49q13 0 46 -19t42 -19q37 0 49 22l5 -9q-24 -49 -55 -49q-13 0 -46 18.5t-42 18.5q-35 0 -46 -20z" />
    <glyph glyph-name="macron" unicode="&#xaf;" horiz-adv-x="461" 
d="M127 218l2 35h216l2 -35h-220z" />
    <glyph glyph-name="macron" unicode="&#x2c9;" horiz-adv-x="461" 
d="M127 218l2 35h216l2 -35h-220z" />
    <glyph glyph-name="cedilla" unicode="&#xb8;" horiz-adv-x="247" 
d="M269 -111q1 -1 5 -6t12 -5q54 0 54 34q0 21 -2 24q-5 12 -28 12h-11l13 55l17 -5l-8 -32q25 -3 43 -15q22 -15 22 -38q0 -25 -27 -40q-22 -13 -49 -13q-29 0 -51 14z" />
    <glyph glyph-name="Scaron" unicode="&#x160;" 
 />
    <glyph glyph-name="scaron" unicode="&#x161;" 
 />
    <glyph glyph-name="brokenbar" unicode="&#xa6;" 
 />
    <glyph glyph-name="Eth" unicode="&#xd0;" horiz-adv-x="19" 
 />
    <glyph glyph-name="eth" unicode="&#xf0;" 
 />
    <glyph glyph-name="Yacute" unicode="&#xdd;" 
 />
    <glyph glyph-name="Thorn" unicode="&#xde;" 
 />
    <glyph glyph-name="thorn" unicode="&#xfe;" 
 />
    <glyph glyph-name="minus" unicode="&#xad;" 
 />
    <glyph glyph-name="minus" unicode="&#x2212;" 
 />
    <glyph glyph-name="onesuperior" unicode="&#xb9;" 
 />
    <glyph glyph-name="twosuperior" unicode="&#xb2;" 
 />
    <glyph glyph-name="threesuperior" unicode="&#xb3;" 
 />
    <glyph glyph-name="onehalf" unicode="&#xbd;" 
 />
    <glyph glyph-name="onequarter" unicode="&#xbc;" 
 />
    <glyph glyph-name="threequarters" unicode="&#xbe;" 
 />
    <glyph glyph-name="Lslash" unicode="&#x141;" 
 />
    <glyph glyph-name="lslash" unicode="&#x142;" 
 />
    <glyph glyph-name="HT" horiz-adv-x="200" 
 />
    <glyph glyph-name="LF" 
 />
    <glyph glyph-name="nonmarkingreturn" horiz-adv-x="200" 
 />
    <glyph glyph-name="Zcaron" unicode="&#x17d;" 
 />
    <glyph glyph-name="zcaron" unicode="&#x17e;" 
 />
    <glyph glyph-name="DLE" 
 />
    <glyph glyph-name="DC1" 
 />
    <glyph glyph-name="DC2" 
 />
    <glyph glyph-name="DC3" 
 />
    <glyph glyph-name="DC4" 
 />
    <glyph glyph-name="RS" 
 />
    <glyph glyph-name="US" 
 />
    <glyph glyph-name="notequal" unicode="&#x2260;" horiz-adv-x="25" 
 />
    <glyph glyph-name="infinity" unicode="&#x221e;" 
 />
    <glyph glyph-name="lessequal" unicode="&#x2264;" 
 />
    <glyph glyph-name="greaterequal" unicode="&#x2265;" 
 />
    <glyph glyph-name="partialdiff" unicode="&#x2202;" horiz-adv-x="232" 
d="M165 371q0 21 -5 44q-7 34 -20 34q-17 0 -17 -23v-134q0 -12 2 -14q14 22 27 43t13 50zM-35 158l50 18q-1 168 12 196q44 95 109 96q42 0 58.5 -20t16.5 -62q-1 -47 -34 -85q-46 -53 -54 -69v-18l65 23v-34l-65 -22v-93q0 -49 21 -49q23 0 64 36.5l41 36.5q5 0 10 -11
q-38 -46 -97 -91q-30 -28 -69 -28q-30 0 -54 31q-22 28 -22 59v23q-1 48 -1 50l-51 -17v30z" />
    <glyph glyph-name="summation" unicode="&#x2211;" horiz-adv-x="884" 
d="M840 269q0 -65 -85 -152q-74 -76 -145 -107q-46 -20 -115 -20q-154 0 -296.5 84.5t-212.5 219.5l5 11l12 -2q96 -98 249 -153q141 -50 289 -50h87q50 0 91 22q48 28 48 74q0 75 -304 124q-75 12 -162 45q-119 45 -119 91q0 68 39 109q52 54 173 95q113 38 197 38
q47 0 67 -9q29 -12 41 -51l11 -17q38 30 117 84l13 -14l-127 -101q-73 -60 -119 -110q-23 0 -23 15q0 9 109 105q-17 3 -41 3q-102 0 -228 -26q-152 -31 -193 -78q10 -18 27 -23q74 -21 328 -67l93 -17q54 -11 79 -20q43 -15 69 -43t26 -60zM430 828l92 -38l97 38l48 -1
l-107 -83h-71l-108 83z" />
    <glyph glyph-name="product" unicode="&#x220f;" horiz-adv-x="260" 
d="M277 101q-54 -41 -125 -89q-34 -17 -54 -18q-38 -2 -67 8q-5 2 -16.5 11.5t-11.5 13.5q0 7 14.5 20.5t21.5 13.5q20 0 52 -32q7 -7 14 -7q13 0 16 15.5t1 20.5q-2 6 -14 16q-1 1 -38 17t-38 16q-2 0 -3 -3t-3 -3q-11 0 -11 9q0 8 22 41t27 33q8 -3 52 -18q23 -8 44.5 -29
t21.5 -43q0 -9 -32 -59q-1 -1 2 -1q6 0 31 16q22 15 85 62zM133 229l69 39h27l-68 -63l-27 -1l-27 1l-67 63h26z" />
    <glyph glyph-name="pi" unicode="&#x3c0;" horiz-adv-x="748" 
d="M709 -14l-21 -60q-11 -30 -34 -54q-6 -9 -38 -15q-40 -8 -44 -9q-4 -73 -10 -120q-12 -96 -31 -100q-3 -2 -8 -2q-13 0 -65 22q-58 24 -71 28l-91 26q-64 23 -64 53q0 48 34 98q24 35 124 69q71 24 145 38q-1 35 -1 88q0 52 1 123q-23 -37 -71.5 -109.5t-98.5 -72.5
q-30 0 -52 47q-19 40 -19 75q0 65 43 199.5t43 204.5q0 47 -43 74q-38 23 -87 23q-74 0 -121 -118q-38 -95 -38 -181q0 -33 11 -58q15 -34 43 -34q43 0 87 84q33 63 48 125q6 7 15 7l9 -13q-6 -39 -15 -75q-53 -218 -182 -218q-46 0 -75 41q-26 36 -26 84q0 137 98 277
q107 153 238 153q111 0 111 -113q0 -62 -42.5 -178.5t-42.5 -178.5q0 -94 56 -94q39 0 76 44q34 40 40 81q25 187 30 208q27 124 87 184q15 21 23 21q1 -1 -1 -2q12 -4 12 -24q0 -66 -84 -301q-11 -30 -38 -108v-263q89 19 140 24zM542 -154q-146 -29 -221 -60
q29 -4 106 -48.5t90 -44.5q9 0 15 39q9 59 10 114zM662 813l-158 -101l-38 4l110 124z" />
    <glyph glyph-name="integral" unicode="&#x222b;" horiz-adv-x="362" 
d="M396 96l-119 -80q3 -5 3 -19q0 -67 -31 -141q-40 -95 -104 -95q-27 0 -52 25t-25 52q0 78 106 141v93q-62 -77 -114 -77q-47 0 -47 47q0 5 1 12v9q0 10 1 70l102 35v-99q0 -15 10 -15q21 17 52 82l98 33l-1 -129q29 16 112 70zM177 -168q0 119 -1 125q-23 -13 -39 -52
q-15 -34 -15 -64q0 -55 33 -65q22 10 22 56zM249 287l-116 -75l-28 3l79 89z" />
    <glyph glyph-name="Omega" unicode="&#x3a9;" horiz-adv-x="510" 
d="M315 195h-123q9 -56 43 -109q41 -63 91 -63q56 0 90 70l26 -13q-62 -93 -166 -93q-84 0 -142 63q-56 60 -63 145h-38v21h37v2q0 24 2 37h-39v21h43q17 74 71.5 124t128.5 50q84 0 144 -66l-25 -18q-32 43 -71 43q-49 0 -87 -43q-34 -39 -45 -90h123v-21h-126
q-1 -11 -1 -21q0 -9 1 -18h126v-21z" />
    <glyph glyph-name="Omega" unicode="&#x2126;" horiz-adv-x="510" 
d="M315 195h-123q9 -56 43 -109q41 -63 91 -63q56 0 90 70l26 -13q-62 -93 -166 -93q-84 0 -142 63q-56 60 -63 145h-38v21h37v2q0 24 2 37h-39v21h43q17 74 71.5 124t128.5 50q84 0 144 -66l-25 -18q-32 43 -71 43q-49 0 -87 -43q-34 -39 -45 -90h123v-21h-126
q-1 -11 -1 -21q0 -9 1 -18h126v-21z" />
    <glyph glyph-name="radical" unicode="&#x221a;" horiz-adv-x="273" 
d="M40 104q-66 -103 -64 -103q-11 0 -11 9q10 18 58 93h-1q-31 4 -30 38q0 14 11 23.5t25 9.5q24 0 30 -18q6 -11 5 -12q69 0 125 14q1 -1 -2.5 -18t-3.5 -19q0 -6 -1 -21.5t-1 -23.5q1 -14 10 -26t23 -12q24 0 58.5 36.5t28.5 36.5q2 -1 4 -10q-70 -108 -165 -108
q-22 0 -40.5 16.5t-23.5 37.5q-2 10 2 34q5 28 5 35q-1 2 -14 -3q-18 -6 -28 -9z" />
    <glyph glyph-name="approxequal" unicode="&#x2248;" horiz-adv-x="305" 
d="M313 96q-52 -41 -80 -56q-37 -20 -96 -37q-35 -6 -44 -6q-13 0 -42 9q-27 14 -27 21q0 4 30 29q2 2 9 2q23 0 45 -15l22 -15q15 0 15 22q0 11 -9 20.5t-20 9.5h-1q0 -1 -1 -1q-4 0 -21.5 7t-21.5 7t-8 -4q-11 -15 -44 -48q-35 -36 -43 -36q-3 0 -8 5v9q17 13 45 41
q35 35 35 45q0 1 -4 5.5t-4 5.5q0 3 28 33.5t35 35.5l2 -1q2 -1 3 -1q9 0 49.5 -25t41.5 -33q7 -6 7 -18q0 -15 -28 -63q-5 -9 -3 -12q28 8 74 38q11 7 55 37q9 1 9 -11z" />
    <glyph glyph-name="approxequal" unicode="&#x22f2;" horiz-adv-x="305" 
d="M313 96q-52 -41 -80 -56q-37 -20 -96 -37q-35 -6 -44 -6q-13 0 -42 9q-27 14 -27 21q0 4 30 29q2 2 9 2q23 0 45 -15l22 -15q15 0 15 22q0 11 -9 20.5t-20 9.5h-1q0 -1 -1 -1q-4 0 -21.5 7t-21.5 7t-8 -4q-11 -15 -44 -48q-35 -36 -43 -36q-3 0 -8 5v9q17 13 45 41
q35 35 35 45q0 1 -4 5.5t-4 5.5q0 3 28 33.5t35 35.5l2 -1q2 -1 3 -1q9 0 49.5 -25t41.5 -33q7 -6 7 -18q0 -15 -28 -63q-5 -9 -3 -12q28 8 74 38q11 7 55 37q9 1 9 -11z" />
    <glyph glyph-name="Delta" unicode="&#x394;" 
 />
    <glyph glyph-name="Delta" unicode="&#x2206;" 
 />
    <glyph glyph-name="apple" unicode="&#xf000;" horiz-adv-x="37" 
 />
    <glyph glyph-name="dotlessi" unicode="&#x131;" horiz-adv-x="209" 
d="M17 130v-99q-2 -13 13 -23q11 -9 38 -9q22 0 56 19q108 61 118 82q2 3 -9 10q-62 -47 -102 -68q-5 -2 -8 -2q-10 0 -10 18v73q0 4 1.5 12.5t1.5 12.5q0 6 -4 6z" />
    <glyph glyph-name="breve" unicode="&#x2d8;" horiz-adv-x="437" 
d="M309 275q0 -32 -34 -51q-28 -16 -63 -16q-34 0 -63 16q-34 19 -34 51h20q0 -27 81 -27q73 0 73 27h20z" />
    <glyph glyph-name="dotaccent" unicode="&#x2d9;" horiz-adv-x="319" 
d="M169 299q-18 0 -30 -13t-12 -31t12 -31t30 -13q19 0 31 12.5t12 31.5q0 18 -12.5 31t-30.5 13z" />
    <glyph glyph-name="ring" unicode="&#x2da;" horiz-adv-x="344" 
d="M181 335q26 0 44 -19t18 -45t-18 -45t-44 -19t-44.5 19t-18.5 45t18.5 45t44.5 19zM181 315q-18 0 -30.5 -13t-12.5 -31t12.5 -31t30.5 -13t30 13t12 31t-12 31t-30 13z" />
    <glyph glyph-name="hungarumlaut" unicode="&#x2dd;" horiz-adv-x="392" 
d="M325 327l30 -34l-147 -95l-6 13zM215 327l30 -34l-147 -95l-6 13z" />
    <glyph glyph-name="ogonek" unicode="&#x2db;" horiz-adv-x="468" 
d="M285 -143q-41 -63 -84 -63q-46 0 -46 59q0 58 35 111q38 60 93 60v-30q-35 0 -60 -30t-25 -66q0 -29 16 -40q4 0 10.5 -2.5t10.5 -2.5q23 0 37 21z" />
    <glyph glyph-name="caron" unicode="&#x2c7;" horiz-adv-x="264" 
d="M133 229l69 39h27l-68 -63l-27 -1l-27 1l-67 63h26z" />
  </font>
</defs>
</svg>
