<?xml version="1.0" standalone="no"?>
<!DOCTYPE svg PUBLIC "-//W3C//DTD SVG 1.1//EN" "http://www.w3.org/Graphics/SVG/1.1/DTD/svg11.dtd" >
<svg>
<metadata>
Created by FontForge 20120731 at Tue Apr 16 14:47:47 2019
 By www-data
Digitized by Dan X. Solo. Software (c) 1999 by Dover Publications, Inc., New York.
</metadata>
<defs>
<font id="ManuscriptNormal" horiz-adv-x="20" >
  <font-face 
    font-family="Manuscript"
    font-weight="400"
    font-stretch="normal"
    units-per-em="1000"
    panose-1="0 0 4 0 0 0 0 0 0 0"
    ascent="800"
    descent="-200"
    x-height="235"
    cap-height="671"
    bbox="-214 -426 1216 971"
    underline-thickness="20"
    underline-position="-123"
    unicode-range="U+0020-25CA"
  />
<missing-glyph horiz-adv-x="500" 
d="M63 0v971h375v-971h-375zM125 63h250v846h-250v-846z" />
    <glyph glyph-name=".notdef" horiz-adv-x="500" 
d="M63 0v971h375v-971h-375zM125 63h250v846h-250v-846z" />
    <glyph glyph-name=".null" horiz-adv-x="0" 
 />
    <glyph glyph-name="nonmarkingreturn" horiz-adv-x="256" 
 />
    <glyph glyph-name="space" unicode=" " horiz-adv-x="256" 
 />
    <glyph glyph-name="exclam" unicode="!" horiz-adv-x="281" 
d="M289 448l-203 -339q-4 -5 -9 -7q-8 -2 -10 5q-1 4 2 11l149 323q23 50 54 50q20 0 20 -25q0 -8 -3 -18zM50 76q24 0 30 -20q5 -19 -12 -37t-37 -18q-18 0 -23 20q-4 16 10.5 35.5t31.5 19.5z" />
    <glyph glyph-name="quotedbl" unicode="&#x22;" horiz-adv-x="335" 
d="M90 444h-16l67 173q19 49 46 49q12 0 12 -12q0 -13 -14 -38zM181 443h-15l66 173q19 50 46 49q12 0 12 -12t-14 -37z" />
    <glyph glyph-name="numbersign" unicode="#" horiz-adv-x="401" 
d="M276 363l-55 -113l85 -1l57 113h30l-56 -113h84l-12 -24h-84l-44 -90h83l-12 -25h-84l-55 -112h-30l53 112l-85 1l-55 -112h-31l55 112l-81 1l12 25l82 -1l44 90l-82 1l12 24l83 -1l55 113h31zM163 136l87 -1l44 90l-86 1z" />
    <glyph glyph-name="dollar" unicode="$" horiz-adv-x="506" 
d="M450 554l-39 -89q39 -17 44 -64q3 -22 -7 -41q-11 -22 -32 -24q-24 -2 -26 22q-1 13 17 32t17 28q-1 7 -17 25l-79 -162q42 -55 46 -91q6 -58 -34 -100q-35 -36 -95 -53q-15 -4 -47 -11l-44 -90l-18 -2l39 88q-5 3 -21 1l-44 -92l-21 -2q14 29 25 51q20 42 18 43
q-77 26 -84 93q-5 47 18 77.5t69 35.5q19 2 38 -11.5t21 -31.5q1 -13 -6.5 -26.5t-19.5 -14.5q-10 -1 -20.5 7t-11.5 18l12 36q-8 4 -16 3q-32 -3 -49 -28.5t-14 -58.5q2 -24 24.5 -50t45.5 -26l114 237q-33 40 -38 72q-2 7 -2 14q0 61 72 90q37 15 58 13l34 77l22 2
q-21 -32 -32 -75l26 -5q15 31 37 81q4 0 20 2zM388 450l-27 7l-66 -139q11 -19 18 -18q6 0 75 150zM338 454q-20 -4 -41 -9q-41 -17 -41 -53q0 -11 2 -19q9 -37 23 -38q9 21 57 119zM320 174q-4 41 -22 49q-16 -23 -89 -177l33 12q27 10 54 49t24 67zM287 244l-18 26
l-106 -226q2 -3 8 -3q5 0 14 2q15 26 47 87q11 24 55 114z" />
    <glyph glyph-name="percent" unicode="%" horiz-adv-x="420" 
d="M409 195q-5 -59 -54 -129q-55 -79 -111 -74q-44 4 -37 77q10 106 114 163q29 16 52 14q40 -3 36 -51zM390 186q3 39 -17 40q-36 3 -88 -72q-49 -70 -52 -111q-3 -30 19 -32q39 -3 88 65q46 65 50 110zM254 370q-1 -12 -5 -26q3 -7 16 -5q57 8 156 71v-1l2 2l13 -15
l-417 -406l-14 15l366 357q-81 -47 -121 -43q-4 0 -9 1q-21 -59 -62 -105q-47 -53 -90 -49q-45 4 -38 77q9 105 115 163q30 17 51 15q41 -3 37 -51zM230 394q-4 6 -12 7q-35 3 -88 -73q-50 -72 -53 -111q-3 -30 20 -32q37 -3 79 52q33 43 50 89q-18 8 -16 36q2 19 20 32z
" />
    <glyph glyph-name="ampersand" unicode="&#x26;" horiz-adv-x="455" 
d="M121 264l-5 -27q-8 10 -19 35q-12 46 -12 58q0 19 5 39q8 27 22 27q8 0 16 -9q7 -17 7 -39q0 -8 -14 -84zM438 237l-11 8l-36 -19q-75 -29 -141 -29q-38 0 -70 7q7 5 60.5 71.5t53.5 69.5l-4 14q-5 6 -9 5q-12 -5 -62 -72l-61 -82q-18 5 -25 14q30 79 30 163q0 20 -8 42
q-11 27 -27 27q-33 0 -58 -72q-11 -31 -11 -66q0 -70 47 -116l-69 -193q-5 -4 -5 -8q0 -7 13 -8q11 9 64 99q49 84 57 82q29 -8 88 -8q29 0 103 25q81 27 81 46zM139 180q-3 3 -13 10l-15 -35q-15 -35 -33 -85z" />
    <glyph glyph-name="quotesingle" unicode="'" horiz-adv-x="220" 
d="M90 444h-16l67 173q19 49 46 49q12 0 12 -12q0 -13 -14 -38z" />
    <glyph glyph-name="parenleft" unicode="(" horiz-adv-x="342" 
d="M402 693q-149 -121 -237 -301q-90 -183 -90 -372q0 -36 4 -71l-15 -1q-13 122 -13 194q0 182 99 324q71 103 246 244z" />
    <glyph glyph-name="parenright" unicode=")" horiz-adv-x="342" 
d="M51 -35q149 120 238 302t89 371q0 36 -4 71l15 1q13 -121 13 -194q0 -182 -99 -324q-71 -103 -246 -244z" />
    <glyph glyph-name="asterisk" unicode="*" horiz-adv-x="375" 
d="M124 681q8 -5 73 -119h1q32 49 49 83q10 20 19 20q11 0 11 -11q0 -8 -50 -93q29 0 55 -4q34 -5 46 -25l10 -17l-7 -10q-40 18 -117 26q23 -41 28 -51q15 -31 15 -54q0 -12 -5 -21l-10 -17l-11 2q-11 55 -37 114q-25 -41 -32 -52q-32 -47 -60 -47h-19l-5 11q7 6 24 21
q31 28 78 97q-78 6 -132 3q-21 -1 -26 7q-11 19 59 20q-57 -1 86 -2q-29 57 -50 89q-12 18 -7 26q5 9 14 4z" />
    <glyph glyph-name="plus" unicode="+" horiz-adv-x="430" 
d="M302 410q1 -12 -71 -157q61 3 79 3q79 0 102 -33l16 -23l-9 -14q-20 6 -43 11q-61 14 -165 16q-39 -78 -51 -99q-39 -69 -80 -72l-28 -2l-7 14q9 8 31 31q36 38 90 128q-73 -1 -125 -8q-30 -4 -38 7q-17 25 74 33q56 3 111 5q47 82 73 145q11 28 25 29q15 1 16 -14z" />
    <glyph glyph-name="comma" unicode="," horiz-adv-x="129" 
d="M43 -33q13 7 36 33q-10 -4 -16 -4q-13 0 -13 16q0 18 19.5 38.5t37.5 20.5q15 0 15 -14q0 -26 -31 -59q-25 -26 -44 -34q-6 -2 -7 -1q-1 2 3 4z" />
    <glyph glyph-name="hyphen" unicode="-" horiz-adv-x="267" 
d="M80 159h142l-29 -35h-141z" />
    <glyph glyph-name="hyphen" unicode="&#x2010;" horiz-adv-x="267" 
d="M80 159h142l-29 -35h-141z" />
    <glyph glyph-name="period" unicode="." horiz-adv-x="174" 
d="M67 -3q-13 0 -13 15q0 18 19.5 38.5t37.5 20.5q15 0 15 -15q0 -21 -19 -40t-40 -19z" />
    <glyph glyph-name="slash" unicode="/" horiz-adv-x="357" 
d="M103 28q-31 -46 -66 -58l-30 -10l-9 15q6 16 24 43q51 49 163 309l151 351q13 30 28 30q13 0 13 -14q0 -15 -127.5 -326t-146.5 -340z" />
    <glyph glyph-name="zero" unicode="0" horiz-adv-x="420" 
d="M393 386q0 -90 -38 -186q-46 -115 -123 -164q-60 -38 -95 -38h-29q-46 0 -69 43q-17 31 -17 66q0 96 102 152q78 43 156 43q20 0 35 -10q-20 -15 -61 -15q-57 0 -124 -56q-69 -59 -69 -114q0 -31 26 -52.5t58 -21.5q36 0 69 22q9 8 57 48q8 7 20 29q6 11 17 33
q44 86 47 123q0 5 5 15.5t5 16.5v100q-1 4 -5 16q2 5 2 21h18q13 -21 13 -71z" />
    <glyph glyph-name="one" unicode="1" horiz-adv-x="339" 
d="M331 434q0 -14 -86 -162q-80 -138 -105 -175q-52 -78 -99 -78h-33l-8 18q17 13 39 34q52 49 132 166q74 109 111 183q16 32 32 32q17 0 17 -18z" />
    <glyph glyph-name="two" unicode="2" horiz-adv-x="419" 
d="M407 41q-38 -23 -77 -31q-16 -3 -77 19l-64 23q28 0 -40 -15.5t-82 -15.5q-38 0 -38 22q0 15 26 28q22 10 39 10q7 0 22.5 3t24.5 2l10 -3q10 -4 15 -4t50.5 22.5t80.5 66.5q40 49 40 96q0 72 -74 70q-10 -23 -20 -64q-5 -19 -29 -51q-27 -36 -42 -36q-31 1 -31 51
q0 23 35 66.5t58 51.5q2 39 -14 78q18 1 28 -25q5 -13 15 -40q16 4 36 4q37 0 61 -29t24 -66q0 -81 -166 -200q91 -25 101 -25q64 0 28 -1q19 0 55 12q6 -8 6 -10q-1 -10 -1 -9zM229 297v17q-8 -2 -30.5 -30.5t-22.5 -36.5q-5 -6 -5 -12q0 -7 6 -14q12 5 32 34t20 42z" />
    <glyph glyph-name="three" unicode="3" horiz-adv-x="457" 
d="M454 398q0 -68 -93 -116q-14 -4 -27 -8q7 -7 22 -26q9 -14 9 -42q0 -63 -67 -129q-63 -64 -127 -77q-29 -6 -64 -6q-48 0 -72 44q-9 17 -9 24q0 83 102 117q17 12 44 12q12 0 12 -14q0 -18 -28 -26q-22 -7 -54 -23q-15 -13 -30 -25q-15 -16 -15 -34q0 -16 16 -30t32 -14
q67 0 142.5 62t75.5 127q0 39 -38 49q-21 5 -62 14v22l8 4t13 4q9 0 30 -6t30 -6q40 0 74 39.5t34 80.5q0 19 -13.5 40.5t-31.5 21.5q-6 0 -47.5 -56t-70.5 -56q-19 0 -19 27q0 84 111 115q-6 51 -6 66l21 -1q7 -8 10 -62q2 0 6 -3q82 -18 82 -109zM322 472q-40 -13 -64 -72
q16 7 39.5 32t24.5 40z" />
    <glyph glyph-name="four" unicode="4" horiz-adv-x="345" 
d="M360 372l-174 -326l16 -8q34 9 106 25h12q5 -1 5 -9q0 -23 -39 -34q-28 -8 -73 -12q-41 -4 -43 -7q-36 -71 -51 -102q-29 -62 -46 -113h-36q-5 5 -5 15l108 202q-68 4 -97 21q-42 24 -42 84q0 22 36 89q31 58 42 70.5t34.5 42.5t26.5 30q31 0 31 -14q0 -5 -19 -28
q-23 -27 -28 -36q-14 -22 -55 -97q-7 -9 -17 -31q-5 -17 -5 -45q0 -20 34 -38q29 -15 43 -15h6q2 -1 7 -1q14 0 78 130q20 36 69 129q25 49 38 85q5 13 20 13q14 0 18 -20z" />
    <glyph glyph-name="five" unicode="5" horiz-adv-x="412" 
d="M450 434q0 -10 -23 -16q-17 -5 -31 -5q-11 0 -52 12.5t-52 19.5q0 5 9 14q39 -15 64 -15q9 0 32 6t32 6q21 0 21 -22zM346 212q0 -98 -98 -193.5t-197 -95.5q-76 0 -76 62q0 46 61 98t108 52h24q-1 -11 -27 -23q-39 -19 -47 -24q-80 -58 -80 -97q0 -41 47 -41h14
q6 2 44 18q66 28 123 96q61 75 61 141q0 36 -23.5 56.5t-60.5 20.5q-26 0 -57 -15q-27 -13 -54 -27q-5 6 -4 10q61 61 90 97q38 47 54 84q3 18 12 55q4 0 12 -2t12 -2v-17q0 -23 -41 -85l-48 -69q6 -6 8 -6q5 0 18.5 4t20.5 4q41 0 72.5 -30t31.5 -71z" />
    <glyph glyph-name="six" unicode="6" horiz-adv-x="298" 
d="M300 441q-55 -58 -118 -133q-8 -11 -28 -37q2 -2 8 1t9 3t10 3t11 3q32 0 58 -31t26 -63q0 -60 -46 -129q-52 -79 -118 -79q-30 0 -58 23t-28 52q0 4 -1.5 12.5t-1.5 12.5q0 31 21 70q-10 -8 -49 -75q-8 2 -8 9q0 18 27 57q14 18 40 55q50 71 88 116q88 104 153 142z
M249 174q0 80 -69 80q-50 0 -88 -69q-35 -63 -30 -115q6 -64 47 -64q53 0 99 65q41 58 41 103z" />
    <glyph glyph-name="seven" unicode="7" horiz-adv-x="349" 
d="M368 362q0 -17 -40 -53l-54 -49q-148 -174 -209 -284q-30 -54 -40 -78q-16 -39 -16 -86v-7q0 -17 23 -72l-3 -15q-64 36 -64 99q2 10 13 58q20 91 121 213q5 6 165 193q-57 9 -77 9q-45 0 -67 -11q-6 -6 -26 -38q-16 -25 -35 -36h-15q-4 4 -4 15q0 28 33.5 55t33.5 45
q0 15 -9 36v11l11 8q12 -11 12 -72q65 7 93 7q9 0 26.5 -3.5t26.5 -3.5q20 0 46.5 38t54.5 37v-16z" />
    <glyph glyph-name="eight" unicode="8" horiz-adv-x="357" 
d="M355 416q-6 -5 -18 -11.5t-11 -9.5q6 -20 6 -37q0 -40 -33 -61q-2 1 -8 5q11 4 20 22t9 32q0 16 -10 26q-50 -60 -131 -131q30 -48 38 -77q3 -11 3 -47q0 -60 -46.5 -102.5t-107.5 -42.5q-31 0 -57 19.5t-26 49.5q0 41 60 103q6 6 95 84l-16 36q-5 12 -5 43q0 56 34.5 94
t90.5 38q43 0 75 -39q8 6 38 22v-16zM301 400q-23 16 -26 18q-13 8 -30 8q-39 1 -67.5 -25t-28.5 -65q0 -10 8 -36t14 -30q68 63 130 130zM189 124q0 43 -39 98q-26 -24 -76 -72q-68 -67 -68 -92q0 -53 73 -53q48 0 79 35t31 84z" />
    <glyph glyph-name="nine" unicode="9" horiz-adv-x="338" 
d="M334 259q0 -29 -18 -36l-4 5q2 74 3 39q-1 24 -13 41q-35 -49 -93 -181q-60 -136 -99 -194q-75 -110 -137 -110q-3 0 -6.5 -3.5t-7.5 -3.5q-13 0 -22 8v9q10 10 25 19q5 1 17 6q137 96 230 320v5q-23 -26 -74 -71q-31 -21 -60 -21l-55 14q-5 1 -15 24.5t-10 30.5
q0 56 45 111q40 51 95 76q48 22 94 22q14 0 42 -7t23 -7q7 14 20 41q9 0 16 -8q-1 -7 -9 -27t-8 -24q0 -3 10.5 -31.5t10.5 -46.5zM279 326q0 19 -49 19q-78 0 -149 -70q-52 -51 -52 -91q0 -11 7 -28q10 -24 25 -24h20q14 0 44.5 12.5t41.5 22.5q112 100 112 159z" />
    <glyph glyph-name="colon" unicode=":" horiz-adv-x="174" 
d="M117 153q-13 0 -13 15q0 18 19.5 38.5t37.5 20.5q15 0 15 -15q0 -21 -19 -40t-40 -19zM27 3q-13 0 -13 15q0 18 19.5 38.5t37.5 20.5q15 0 15 -15q0 -21 -19 -40t-40 -19z" />
    <glyph glyph-name="semicolon" unicode=";" horiz-adv-x="174" 
d="M13 -33q13 7 36 33q-10 -4 -16 -4q-13 0 -13 16q0 18 19.5 38.5t37.5 20.5q15 0 15 -14q0 -26 -31 -59q-25 -26 -44 -34q-6 -2 -7 -1q-1 2 3 4zM117 153q-13 0 -13 15q0 18 19.5 38.5t37.5 20.5q15 0 15 -15q0 -21 -19 -40t-40 -19z" />
    <glyph glyph-name="less" unicode="&#x3c;" horiz-adv-x="279" 
d="M92 368q12 14 96 79q11 10 34.5 28t39.5 15l20 -4l5 -20q-8 -7 -16 -11l-4 -3q-20 -9 -83 -55q-51 -37 -70 -61l-1 -1v-2q0 -26 29 -90q14 -30 42 -91q8 -19 0 -29q-11 -13 -24 -2q-8 6 -44 79t-41 90q-13 44 3 62z" />
    <glyph glyph-name="equal" unicode="=" horiz-adv-x="279" 
 />
    <glyph glyph-name="greater" unicode="&#x3e;" horiz-adv-x="279" 
d="M220 243q-11 -14 -96 -79q-12 -10 -34.5 -28t-39.5 -15l-21 4l-4 20q8 8 15 11l5 3q16 7 83 56q52 38 69 60l1 1v2q0 26 -28 90q-10 23 -42 91q-9 19 0 29q11 14 24 2q7 -5 43.5 -78.5t41.5 -90.5q12 -42 -4 -62z" />
    <glyph glyph-name="question" unicode="?" horiz-adv-x="343" 
d="M343 387q1 -17 -14 -48q-18 -38 -39 -53q-32 -22 -93 -66q-68 -52 -99 -109q-1 1 -2 3q-3 -1 -5 -2q0 1 -1 2q16 44 116 151q87 94 84 145t-54 49q-34 -2 -61 -32t-25 -64q1 -28 24 -27q46 3 46 65q0 13 -3 21q4 3 13 8q8 -7 9 -23q1 -26 -15 -55q-19 -32 -43 -33
q-45 -3 -48 46q-2 39 34 77t76 40q38 2 68 -27t32 -68zM44 -11q-24 -2 -26 32q-1 22 16.5 41.5t39.5 20.5q23 1 25 -33q1 -20 -17 -40t-38 -21z" />
    <glyph glyph-name="at" unicode="@" horiz-adv-x="682" 
d="M451 107q-39 0 -39 52q0 23 9 55q-35 -58 -42 -67q-31 -37 -65 -35q-39 3 -67.5 29.5t-28.5 65.5q0 59 49 110t108 51q28 0 45 -20q11 -13 22 -46l18 51l47 6q-17 -40 -38 -98l-19 -52q-13 -35 -13 -52q0 -40 29 -40q55 0 98 63q37 54 37 99q0 85 -69 142q-65 53 -152 53
q-108 0 -180.5 -68t-72.5 -175t74 -174t182 -67q126 0 200 107l17 1q-35 -57 -95 -89.5t-128 -32.5q-112 0 -197 75.5t-85 186.5t90 183q84 68 197 68q94 0 169 -57q81 -62 81 -153q0 -69 -56 -120.5t-125 -51.5zM375 355q-51 0 -84 -65q-26 -51 -26 -96q0 -24 17.5 -48
t45.5 -24q26 0 65 75q37 71 37 102q0 24 -15 40t-40 16z" />
    <glyph glyph-name="A" unicode="A" horiz-adv-x="843" 
d="M804 122q0 -44 -39 -91q-40 -50 -83 -50q-24 0 -43 10q-59 31 -73 79l-14 106l-5 -1q-49 -65 -150 -127q-109 -67 -183 -67h-33q-8 0 -37 7q-66 16 -105 58q-42 45 -42 111q0 114 107 237q33 38 90 94q244 200 461 200q17 0 39.5 -17.5t22.5 -34.5q0 -12 -14 -34
q-19 -30 -70 -51q-47 -20 -86 -20q-48 0 -103 18l5 8q11 1 27 1q10 0 30.5 -1t30.5 -1q30 0 75 20q51 23 51 48q0 28 -49 28q-214 0 -422 -217q-133 -139 -133 -257q0 -82 74 -124q33 -18 44 -20.5t50 -2.5q59 0 144 38q10 5 61 43q24 17 73 53q44 34 53 67q37 131 57 181
q36 89 100 162l18 5q0 -7 2.5 -19.5t2.5 -19.5q0 -40 -32 -122q-29 -75 -57 -114q-30 -42 -33 -47q-15 -27 -15 -55q0 -184 85 -184q43 0 67 31q22 28 22 72q0 40 -20 71l-46 58v15q35 -8 65 -57t30 -87zM711 531q-62 -86 -96 -231q82 138 96 231z" />
    <glyph glyph-name="B" unicode="B" horiz-adv-x="671" 
d="M671 262q-19 -4 -38 -9q-24 -7 -31.5 -15.5t-10.5 -24.5q-3 -19 -5 -25q-29 -71 -86 -130q-68 -70 -132 -70q-18 0 -32 11.5t-14 29.5q0 30 39 79q36 45 67.5 65t117.5 74q-6 47 -40 84q-9 -2 -26 -11l-26 -13q-36 -13 -73 -13q-22 0 -31 3q-15 5 -15 24q0 25 52 44
q43 16 74 16q9 0 26 -4.5t26 -4.5q26 0 58 63q29 57 29 88q0 29 -14 61q-27 61 -123 61q-49 0 -116 -47q-54 -38 -94 -88q-24 -30 -24 -43v-14q0 -64 -24 -207q-10 -60 -50 -147q-49 -107 -89 -107q-29 0 -29 44q0 29 10 87q11 55 21 85q5 13 60 130q50 105 50 109
q0 37 -31 37q-44 0 -90 -96q-37 -77 -46 -138l-8 -6q-15 -1 -15 15q0 4 15 50q73 225 152 225q14 0 34.5 -15.5t26.5 -29.5q-2 0 2 10q25 63 118 125.5t160 62.5q83 0 125 -53q33 -43 33 -92q0 -107 -108 -181q2 -7 14 -18q15 -14 17 -17q5 -7 14 -54v0q0 -3 9 -3
q5 0 28 10.5t29 10.5q3 0 8 -1h7zM468 341l-53 6q-3 -3 -25 -12q-17 -7 -17 -16h26q8 0 34 10.5t35 11.5zM539 211q-35 -9 -105 -72q-74 -66 -74 -97q0 -12 5 -17h21q34 0 85 59q50 56 55 92q5 11 13 35zM186 372q0 4 -2.5 12.5t-2.5 12.5q-38 -67 -73 -161
q-42 -111 -42 -165q0 -12 10 -29l10 4q16 28 40 71q20 39 30 75q30 107 30 180z" />
    <glyph glyph-name="C" unicode="C" horiz-adv-x="909" 
d="M880 150q-13 -8 -41 -16t-40 -15q-46 -36 -86.5 -63.5t-154.5 -43.5q-86 -12 -165 -12q-6 0 -71 14q-85 18 -139 75q-58 61 -58 145q0 51 22 114q-17 -1 -104 -10q-66 -7 -101 -7q-11 0 -18 10v27h13q129 0 227 17q50 144 212 248q156 99 314 99q38 0 65 -15
q33 -18 33 -53q0 -48 -117 -125q-96 -63 -166 -87q-37 -13 -132 -45q-52 -17 -164 -43q-16 -2 -24 -49q-5 -31 -5 -60q0 -88 60 -146q56 -53 146 -67q33 -5 72 -5q201 0 297 80q-10 0 -98 -8q-55 -5 -97 -5q-75 0 -154 29q-102 37 -102 97q0 69 105 99q67 19 164 19
q22 0 62 -4q61 -6 118 -44q66 -44 66 -99q0 2 -7 -33l4 -7v-1q0 -3 9 -3q7 3 55 20v-27zM748 678q-3 21 -66 21q-141 0 -275.5 -86.5t-189.5 -214.5q30 3 56 10q185 49 290 98q66 31 115 69q72 56 70 103zM792 182q0 63 -89 104q-72 33 -145 33q-21 0 -104 -12
q-48 -7 -67 -16q-34 -16 -34 -55q0 -60 97 -86q63 -17 145 -17q74 0 116 5q25 6 74 17q7 8 7 27z" />
    <glyph glyph-name="D" unicode="D" horiz-adv-x="766" 
d="M719 298q0 -134 -74 -224q-79 -95 -211 -95h-45q-46 0 -154 50q-7 -2 -33.5 -14.5t-32.5 -12.5q-11 0 -34 -4t-34 -4q-89 0 -89 42q0 24 40 37q28 9 60 9q17 0 50 -9.5t50 -9.5q26 0 97 94q58 78 82 123q-71 56 -123 128q-63 88 -63 161q0 71 50 109q45 35 118 35
q63 0 127 -33q107 -55 164 -159q55 -99 55 -223zM505 633q-8 11 -47.5 26.5t-55.5 15.5q-8 0 -23 1t-23 1q-106 0 -106 -118q0 -65 49 -140q42 -65 102 -110q34 113 31 220h9q14 -30 14 -49q0 -34 -13 -100t-13 -97q48 -18 144 -56v-18l-14 -2q-56 18 -137 53
q-13 -53 -66 -119q-47 -60 -98 -96q85 -35 163 -35q123 0 195 93q66 84 66 211q0 102 -44 185q-47 89 -133 134zM197 46q-10 2 -39 8q-24 5 -40 5q-65 0 -64 -26q29 -8 45 -8q56 0 98 21z" />
    <glyph glyph-name="E" unicode="E" horiz-adv-x="632" 
d="M576 75q0 -46 -72 -77q-57 -25 -101 -25h-11q-138 0 -255 59q-141 71 -141 191q0 197 353 238q5 -1 9 -1t6 1q-50 32 -50 80q0 24 12 52q-4 1 -83 1q-42 0 -88 8l-92 16q0 3 2.5 8.5t2.5 8.5l42 -4q19 0 63.5 -7.5t63.5 -7.5q12 0 35 -2t35 -2q16 0 24 2q27 32 74 64
q55 37 89 37q29 0 29 -17q0 -52 -166 -101q-9 -38 -9 -47q0 -89 114 -89q3 0 1 1t0 1q34 0 41 -6q4 -4 4 -15q0 -5 -2.5 -10l-2.5 -5q-29 3 -57 4q-15 0 -50 -1l-26 -1q-16 0 -43 -6q-34 -8 -43 -9q-94 -12 -155 -50q-80 -50 -80 -133q0 -40 16 -81q31 -77 140 -117
q83 -30 174 -30h31q36 0 76 17q52 22 52 57q0 56 -90 81q-57 16 -117 16h-43q-33 -3 -69 -19l-15 -16q22 -13 29 -14h50l8 -26l-49 -1q-22 0 -52 10q-35 12 -35 32q0 40 85 56q43 8 89 8q79 0 146 -23q101 -34 101 -106zM493 684q2 5 -5 6q-6 1 -7 -2q-12 0 -38 -12t-37 -21
l-33 -28q14 1 57 19q48 20 63 38z" />
    <glyph glyph-name="F" unicode="F" horiz-adv-x="611" 
d="M859 715q0 -23 -63.5 -57t-90.5 -34q-41 0 -125.5 17.5t-124.5 17.5q-51 0 -89 -14q-53 -21 -53 -63q0 -53 78 -53q46 0 79 30h14q-1 -25 -43 -42q-34 -14 -65 -14q-30 0 -60 20q-33 21 -33 50q0 50 63 93q58 41 110 41q39 0 182 -23q69 -11 66 -11q85 0 130 53h20
q5 -5 5 -11zM623 348q0 -24 -36 -49q-29 -17 -57 -34q-4 -11 -4 -31q0 -19 4 -56t4 -47l-11 -8q-19 0 -19 57q0 9 -3.5 28.5t-3.5 29.5q0 9 2 16l-3 3q-21 0 -34 -11q-9 -52 -12 -66q-8 -37 -21 -63q-38 -80 -119 -131.5t-170 -51.5q-65 0 -107 24q-53 30 -53 90
q0 112 172 173q134 48 269 44q7 5 17 46q6 25 12 51q45 164 107 266l11 -7l7 -7q-12 -19 -33 -57q-77 -177 -77 -283l2 -3q33 0 65 51.5t68 51.5q23 0 23 -26zM594 343l-15 1q-7 0 -24 -34q28 16 39 33zM419 240q-166 -18 -250 -45q-163 -53 -163 -157q0 -35 46 -57
q38 -17 78 -17q87 0 163 61q72 59 99 144h3q8 8 24 71z" />
    <glyph glyph-name="G" unicode="G" horiz-adv-x="567" 
d="M443 354q-92 0 -92 114q5 33 32 56.5t60 23.5q14 0 39 -8q-3 -3 -58 -33q-37 -20 -37 -50q0 -34 19.5 -57t52.5 -23q49 0 88.5 43t39.5 93q0 139 -162 139q-112 0 -218 -87q-111 -90 -111 -200q0 -76 37 -120q39 -47 113 -47q156 0 261 127h17l2 -7q-54 -173 -129 -249
q-89 -90 -254 -106q-12 -1 -18 3q-119 20 -119 83q0 23 36 43q32 18 57 18q60 0 97 -32l-4 -10h-11q-7 0 -23 5.5t-23 5.5q-24 0 -49 -8q-33 -11 -33 -28q0 -23 41 -37q32 -11 62 -11q83 0 200 91q122 95 122 171q0 6 -1 12q-140 -110 -231 -110q-81 0 -142 49
q-66 52 -66 131q0 128 133 235q127 101 258 101q181 0 181 -164q0 -69 -48.5 -113t-118.5 -44z" />
    <glyph glyph-name="H" unicode="H" horiz-adv-x="684" 
d="M705 707q-18 -39 -36 -63l-17 -23q-69 -67 -147 -137q-87 -144 -87 -323q0 -56 23 -95q27 -47 79 -47q42 0 64 32q19 28 19 72q0 60 -32 96q-25 29 -86 56q1 12 2 14t12 9q66 -31 93 -62q34 -39 34 -104t-33 -106q-36 -45 -99 -45q-66 0 -101 59q-28 48 -28 119
q0 57 25 136q38 121 40 131v5q-57 -42 -140 -117l-5 -18q-15 -39 -46 -117q-35 -86 -84 -138q-64 -68 -151 -68q-20 0 -20 23q0 64 74 129q114 101 138 132q75 100 75 249q0 68 -47 91l-2 -2q0 -8 5 -26.5t5 -28.5q0 -39 -13 -68q-17 -37 -52 -37q-22 0 -35 20
q-12 17 -12 40q0 26 18 64t38 52q-10 22 -42 22q-12 0 -24 -3l-3 21l29 2q5 2 10 2q12 0 59 -31q32 1 46 -10q60 -46 60 -145q0 -20 -8 -92l-3 -27q23 17 81 68q67 59 74 69q31 51 95 151q64 95 137 95q12 0 18 -26zM675 701q0 9 -5 9q-33 0 -95 -84q-54 -74 -66 -113
q37 31 91 86q75 76 75 102zM210 535q0 58 -19 58q-18 0 -33.5 -32.5t-15.5 -52.5q0 -15 6 -29q8 -18 21 -18q19 0 31 29q10 22 10 45zM213 242q-48 -45 -110 -109q-87 -90 -89 -109v-16h16q40 0 111 97q68 93 72 137z" />
    <glyph glyph-name="I" unicode="I" horiz-adv-x="671" 
d="M668 279q0 -56 -81 -56q-53 -104 -158 -165t-224 -61q-71 0 -134 33q-76 40 -76 105q0 70 78 116q68 40 147 40q17 0 32 -3q63 29 98 48q-1 7 -16 52q-10 30 -10 55q0 75 46 147q52 81 123 81q76 0 110 -79q25 -58 25 -145q0 -56 -10 -104q50 -50 50 -64zM596 449
q0 60 -19 117q-25 77 -72 77q-62 0 -109 -73q-42 -65 -42 -131q0 -42 24 -90q76 19 101 19q63 0 104 -11q13 50 13 92zM637 279q0 18 -21 28q-6 -17 -16 -52q37 0 37 24zM577 329q-52 8 -68 8q-27 0 -113 -8q8 -7 28 -25q9 -8 58 -31t59 -23q7 0 20 35zM533 223
q-109 24 -172 88q-21 -9 -56 -29q113 -60 113 -83q0 -12 -13 -17q-24 26 -58 50q-43 30 -67 30q-26 0 -92 -90h1q-1 -1 -7 -1q-14 0 -17 9q31 48 64 82l-16 2q-53 7 -118.5 -35t-65.5 -99q0 -52 69 -79q51 -20 114 -20q177 0 321 192z" />
    <glyph glyph-name="J" unicode="J" horiz-adv-x="285" 
d="M418 723q-78 -171 -287 -570l5 -3l132 91h14v-18q-27 -27 -94 -66l-65 -38q-7 -11 -57 -129q-45 -106 -88 -161q-62 -79 -138 -79q-19 0 -36.5 14t-17.5 32q0 94 115 196q28 25 176 127q14 10 89 179q13 29 57 109q20 36 53 110l11 34q-7 -15 -58 -31q-45 -14 -70 -14
q-16 0 -41 7t-41 12l-4 -6l2 -96q2 -78 -15 -125l-20 11q11 61 11 104q0 142 -45 234l8 12l15 2q49 -126 153 -126q124 0 206 209zM62 78q-72 -49 -98 -70q-43 -36 -87 -88q-64 -77 -64 -119q0 -25 31 -25q68 0 132 123q5 10 86 179z" />
    <glyph glyph-name="K" unicode="K" horiz-adv-x="675" 
d="M704 -179q0 -3 -5 -17l-21 -5q-136 84 -220 252q-56 114 -109 322q-84 -63 -122 -129q-24 -45 -73 -133q-37 -67 -103 -118h-19q-12 0 -20 13.5t-8 26.5q0 46 56 102q78 77 105 125q57 100 57 250q0 64 -35 96l-8 -11q1 -33 -11 -65q-16 -43 -44 -43q-10 0 -23.5 19.5
t-13.5 30.5q0 56 70 90q-5 12 -30 45l11 5q18 -32 57.5 -61.5t47.5 -43.5q20 -34 20 -114q0 -64 -21 -144q22 21 105 85q-7 67 -7 115t7 99l7 5l8 -10q0 -14 -2 -42.5t-2 -42.5q0 -54 11 -101q171 167 227 305q4 14 14.5 43.5t21.5 29.5q3 0 16 -5v-18q0 -45 -115 -196
q-95 -125 -157 -187q122 -407 273 -541q7 -6 10 -6q11 0 11 12q0 40 -44 105q-7 11 -69 99l10 9q46 -29 91.5 -112.5t45.5 -138.5zM165 602q0 3 -3 6q-47 -25 -47 -71q0 -4 4.5 -10.5t4.5 -9.5l14 1q27 34 27 84zM166 213q-132 -133 -130 -163q-4 -6 -4 -13q0 -13 11 -17
q44 12 123 193z" />
    <glyph glyph-name="L" unicode="L" horiz-adv-x="608" 
d="M571 53q0 -116 -145 -116q-58 0 -130 44q-39 25 -119 75q-62 -68 -139 -68q-45 0 -45 34q0 25 49 45q40 16 71 16q6 0 17 -2t17 -2q7 0 13 1q30 34 48 132q14 77 14 145q0 7 -3 7q-2 0 -6 -1q-25 -40 -90 -99l-104 -92l-17 -6l-5 5v19q81 53 206 181q15 16 17 31
q4 36 13 71q20 76 72 134q58 65 132 65q5 1 5 -1h-1q0 -3 4 -3q8 0 43 48h14q5 -4 5 -12q0 -4 -32 -46q6 -5 18 -18q18 -24 18 -57q0 -35 -16 -61q-19 -31 -52 -31q-41 0 -41 60l2 10q2 10 1 11q-69 -73 -72 -76q-45 -51 -59 -83q-1 -32 -6 -103q-8 -107 -74 -228
q52 -11 135 -64q70 -45 122 -45q40 0 67.5 20t27.5 59q0 36 -23.5 59.5t-59.5 23.5q-11 0 -34.5 -9t-33.5 -16q-14 -15 -45 -38l-9 9q42 77 122 77q45 0 76.5 -30t31.5 -75zM487 581q0 16 -8.5 33.5t-22.5 18.5q-30 -38 -30 -60q0 -4 1 -11.5t1 -11.5q0 -11 9 -19.5t20 -8.5
q30 0 30 59zM431 648q-7 1 -26 -2q-56 -9 -90 -69q-29 -51 -32 -114q51 60 148 185zM143 59h-39q-28 0 -57 -12q-4 -2 -19 -17q8 -14 24 -14q34 0 91 43z" />
    <glyph glyph-name="M" unicode="M" horiz-adv-x="689" 
d="M675 587q0 -5 -19 -55q-22 -57 -27 -81q-41 -183 -41 -312q0 -180 83 -258v-19h-13q-8 0 -48 37q-69 64 -69 234q0 56 21 168q6 30 27 93q19 56 19 62v14q-6 3 -15 -8l-135 -232q-74 -130 -83 -221q-9 -8 -15 -8q-35 170 -32 299l-7 7q-8 -15 -23 -43
q-110 -180 -180 -242q50 -23 146 -74v-14q-1 -5 -10 -5q-132 67 -146 67q-94 -63 -164 -63q-27 0 -75 17q0 3 -2 11.5t-2 13.5q0 41 63 62q44 15 83 15q8 0 41 -12t40 -12q11 0 49 54l42 60q101 132 135 223q6 15 8 35q12 104 19 138q27 136 69 140q15 1 19 -3.5t7 -19.5
q1 -9 1 -19q0 -23 -20 -102q-10 -26 -30 -77q-28 -73 -28 -89q0 -92 17 -211q1 -4 5 -14l1 2q12 49 77 157q41 68 205 301q7 -14 7 -16zM418 617q-3 9 -10 22q-4 -7 -12 -17q-29 -132 -27 -169zM74 6q-8 9 -8 10h-104q-6 0 -49 -20v-23q13 -8 41 -8q57 0 120 41z" />
    <glyph glyph-name="N" unicode="N" horiz-adv-x="620" 
d="M628 638q0 -3 -13.5 -28t-15.5 -30q-20 -52 -41 -104q-23 -60 -32 -106q0 -2 -21 -94q-4 -18 -4 -104q0 -242 115 -338l-6 -14l-15 -10q-83 65 -119 139.5t-36 178.5q0 22 13 101q19 112 111 357v6l-292 -277q-23 -58 -55 -133q-113 -218 -207 -218q-16 0 -26 12.5
t-10 28.5q0 57 110 167q42 41 126 124q10 14 24 91q13 69 13 84q0 46 -11 88q-16 60 -47 60q-5 0 -10 -2q-7 -61 -28 -112q-31 -78 -91 -102q-10 9 -10 33q0 53 26 107t68 83q0 19 -2 71q22 1 25 -20q3 -28 10 -33q61 2 90 -67q21 -49 21 -120q0 -38 -6 -65q-2 -17 -2 -26
q0 -11 3 -9l2 2l328 307q10 0 20 -10zM133 533l10 58q-8 -7 -32.5 -51.5t-24.5 -52.5l-6 -33q12 4 32.5 35.5t20.5 43.5zM185 235q-15 -10 -88 -93q-83 -95 -83 -121q0 -12 11 -18q66 47 100 111q20 40 60 121z" />
    <glyph glyph-name="O" unicode="O" horiz-adv-x="731" 
d="M734 492q0 -156 -95 -302q-108 -166 -280 -212q-60 -16 -74 -16h-40q-48 0 -103.5 24.5t-86.5 60.5q-26 30 -41 87q-14 50 -14 96q0 114 85 236q93 134 225 169q40 11 76 29q3 56 47.5 99t100.5 43q70 0 123 -61q42 -48 66 -125q11 -36 11 -128zM707 542q0 6 -3.5 13
l-3.5 7q-11 77 -50 136q-48 73 -116 73q-41 0 -70 -33q-26 -29 -32 -72q9 4 47 4q52 0 94 -15q7 -5 7 -13l-7 -8q-71 9 -87 9q-37 0 -55 -9q1 -87 46 -176q54 -106 139 -130v-10l-25 -4q-81 23 -145.5 115.5t-64.5 177.5q0 11 1 22q-84 -22 -165 -86q-93 -73 -117 -156
q-8 -14 -19 -40q-19 -59 -19 -86q0 -110 62.5 -175.5t172.5 -65.5q185 0 304 174q106 155 106 348z" />
    <glyph glyph-name="P" unicode="P" horiz-adv-x="717" 
d="M700 415q0 -179 -149 -315q-142 -129 -307 -129q-23 0 -37 5l-66 -187q-42 -116 -84 -159q-28 -28 -103 -28q-48 0 -85 12l6 23q5 4 16 3h16l76 10q42 8 59 46t52 117q21 65 58 165q-62 2 -104 43.5t-42 103.5q0 42 27.5 71.5t69.5 29.5q31 0 55 -24t24 -55q0 -13 -6 -26
q-10 19 -30 34.5t-40 14.5q-1 0 -6 1.5t-8 1.5q-22 0 -36 -29q-10 -20 -10 -37q0 -41 37 -71.5t78 -29.5q145 393 219 604q2 3 -2 7q-42 -61 -119 -166q-19 -25 -145 -168q-6 7 -6 14l259 353q-3 2 -51 2q-11 0 -78 -32q-33 -16 -75 -60t-55 -78q-3 -7 -15 -93
q-21 11 -21 26q0 128 101 212q96 79 226 79q20 17 32 54q13 41 20 50q2 0 8 -2.5t8 -2.5v-20q0 -5 -12 -30q-16 -33 -18 -40l-2 -11q35 -8 93 -28q78 -41 124 -107q48 -70 48 -154zM643 399q0 41 -16 85q-5 26 -30 62q-16 23 -54 51.5t-64 35.5l-49 14h-14l-207 -649h41
q11 2 49 11q149 35 243 135q101 108 101 255z" />
    <glyph glyph-name="Q" unicode="Q" horiz-adv-x="773" 
d="M762 503q0 -126 -67 -250.5t-172 -193.5q-25 -17 -65 -35q-47 -21 -68 -22q44 -67 74 -94q47 -43 107 -43q42 0 73 21q35 24 35 64q0 65 -83 107q8 20 21 20q33 0 65 -47q30 -43 30 -78q0 -62 -57 -101q-50 -35 -115 -35q-21 0 -73 25t-64 42q-19 29 -71 105
q-80 0 -130 48l-41 41q-9 0 -26.5 -6.5t-26.5 -6.5q-104 0 -104 66q0 33 31 49q26 14 61 14q16 0 30 -3q5 -1 5 5q1 4 -1 12.5t-2 11.5q0 129 106 266q94 122 219 192l11 -7q-22 -21 -67 -53q-47 -35 -67 -53q-86 -78 -125 -180q-10 -22 -29 -67q-22 -57 -20 -127
q19 -2 43 -13q35 -16 51 -22q23 30 34 80q5 29 17 86q3 11 12 40q35 122 104 214q89 118 193 118q75 0 116 -60q36 -52 36 -130zM733 482q0 71 -28 119q-34 59 -99 59q-67 0 -123 -63q-46 -51 -72 -125l-61 -172q-35 -95 -81 -164q22 0 65 -56.5t45 -56.5q18 0 42 11
q132 59 220 181q92 128 92 267zM219 133q-42 27 -60 27q4 -28 5 -31q2 -6 16 -19q25 7 39 23zM322 15q-3 15 -34 55t-42 40q-4 0 -24 -10q-23 -11 -27 -12q6 -25 38.5 -49t58.5 -24h30zM153 98q-5 24 -21 65h-55q-10 0 -25 -10t-15 -19q0 -19 26 -31q21 -10 43 -10
q8 0 23.5 2.5t23.5 2.5z" />
    <glyph glyph-name="R" unicode="R" horiz-adv-x="647" 
d="M634 536q0 -113 -76 -190q-71 -72 -186 -93q-7 -1 -19 -5q22 -34 43 -93q27 -74 37 -96q26 -55 63 -109q51 -74 83 -85q14 6 14 23q0 28 -46 100q-43 68 -70 90l6 19q53 -40 95 -104q48 -72 48 -130q0 -43 -37 -43q-23 0 -74 36q-78 54 -123 169q-10 24 -61 206
q-7 24 -38 24q-4 0 -6.5 -2.5t-5.5 -2.5q-8 0 -31 21t-28 30q-1 2 -1 18q0 35 27 35q26 0 54 -30q8 -8 42 -49q89 1 161 78t72 166q0 61 -43 103t-104 42q-32 0 -86 -32q-47 -27 -76 -56q-43 -42 -56 -83q0 -48 -1 -67q-6 -108 -56 -235q-56 -141 -131 -197q-23 20 -23 35
q0 107 125 357q10 19 35 70q6 12 6 53q0 64 -37 64q-34 0 -75 -103l-50 -136l-10 -4q-2 0 -2 17q0 52 50 153q54 110 99 110q44 0 67 -84q3 4 11 22q33 74 101 117.5t150 43.5q71 0 117 -50.5t46 -122.5zM307 282q-25 40 -51 40q-2 0 -5 -3l-5 -4q8 -18 25 -25q3 -1 36 -8z
M162 408q-80 -135 -117 -300q0 -3 -5.5 -16.5t-5.5 -20.5q0 -10 9 -15q24 32 35 63q84 225 84 289z" />
    <glyph glyph-name="S" unicode="S" horiz-adv-x="558" 
d="M559 626q0 -36 -27 -70t-62 -34q-14 0 -32.5 16.5t-23.5 30.5l-10 -19l-67 -151q0 -6 39 -30q112 -69 112 -183q0 -77 -43.5 -136t-116.5 -89q-56 -23 -112 -23q-57 0 -118 26q-11 -12 -30 -37.5t-30 -37.5l-18 5q2 3 33 41q25 31 22 37q-14 12 -41 38q-30 30 -30 78
q0 67 58 118q55 49 123 49q54 0 51 -6q55 101 55 108q0 -21 -25 19q-17 27 -33 58q-20 39 -20 78q0 116 115 183q66 38 124 38q4 0 12 17.5t10 19.5q17 -2 17 -18q0 -12 -7 -23q75 -43 75 -103zM531 632q0 15 -1 19q-4 9 -21 26.5t-24 17.5h-16q-6 -10 -19 -31
q-15 -25 -13 -49q1 -17 11 -34q11 -20 26 -20q25 0 42 24q15 21 15 47zM444 706q-3 0 -10 2.5t-11 2.5q-55 0 -111 -62.5t-56 -118.5q0 -32 18.5 -66.5t44.5 -53.5zM441 162q0 68 -45 107q-29 24 -88 72q-15 -32 -49 -95q29 -4 49 -33t20 -59q0 -59 -43 -83q-13 -7 -43 -18
t-41 -11q-15 0 -12 9q10 12 32 19q28 9 35 14q43 31 40 81q-1 11 -18 28.5t-28 17.5q-6 0 -32 -50q-10 -20 -30 -61q-11 -22 -74 -111q37 -17 123 -17q83 0 143.5 54t60.5 136zM224 218l-41 5q-50 0 -100.5 -43t-50.5 -92q0 -19 14.5 -46t30.5 -36l20 -11z" />
    <glyph glyph-name="T" unicode="T" horiz-adv-x="599" 
d="M857 727q0 -51 -47 -84q-42 -30 -95 -30q-30 0 -79 6q-6 0 -33 -85l-63 -210q-41 -135 -90 -217q-64 -107 -152 -144q-79 -33 -130 -33q-70 0 -118 22q-64 29 -64 90q0 69 77 117q67 42 139 42q103 0 139 -25q-8 -17 -17 -17q-7 0 -27 10q-17 5 -76 5q-40 0 -107 -27
q-72 -29 -89 -60q-8 -14 -8 -41q0 -78 118 -78q157 0 264 153q65 93 135 292q2 6 35 108q21 66 45 103q-2 3 -6 1q-6 -3 -9 -2q-56 13 -145 13q-8 0 -23 -4.5t-23 -4.5q-36 -5 -62 -23q-31 -21 -31 -54q0 -55 89 -55q41 0 64 13q16 9 51 44q6 -4 6 -12q0 -9 -14.5 -27
t-24.5 -25q-40 -28 -89 -28q-34 0 -70 27q-39 28 -39 61q0 63 77 101q64 32 134 32q27 0 81.5 -7.5t81.5 -7.5q175 0 176 88l10 -4q9 -15 9 -23z" />
    <glyph glyph-name="U" unicode="U" horiz-adv-x="659" 
d="M680 609q0 -55 -51 -144l-78 -137q-15 -34 -15 -136q0 -171 113 -275v-14h-13q-13 0 -55 41q-39 38 -49 55q-40 65 -40 151q0 15 1 44.5t1 44.5q-38 -54 -116 -161q-81 -106 -151 -106q-48 0 -71 54q-18 40 -18 95q0 63 54 222q-99 -24 -131 -24q-64 0 -64 40
q0 55 106 55q30 0 62 -19q-11 -4 -25 -4q-7 0 -21.5 1.5t-21.5 1.5q-33 0 -55 -24q4 -24 30 -24q72 0 120 27q10 6 27 48q46 115 96 192q60 92 94 92q26 0 26 -39q0 -105 -201 -308q-21 -21 -36 -111q-12 -73 -12 -121q0 -105 55 -105t138 94q58 65 105 146q12 20 24 60
q16 52 20 62l49 121q34 77 62 112q5 6 24 16q17 -18 17 -23zM652 582q-44 -59 -84 -183q13 16 47 81q37 69 37 86v16zM413 651q0 9 -13 19q-7 -2 -17 -8q-32 -42 -74.5 -125.5t-57.5 -133.5q33 26 89 107t66 120q7 28 7 21z" />
    <glyph glyph-name="V" unicode="V" horiz-adv-x="506" 
d="M521 372q0 -18 -31 -31t-32 -17q-5 -25 -41 -94q-43 -82 -100 -149q-80 -94 -142 -94q-50 0 -77.5 28.5t-27.5 78.5q0 90 47 205q36 83 107 255l7 18q-3 3 -5 3q-64 0 -88 -17q-6 -4 -9 -20q-4 -19 -7 -23q-38 -74 -75 -74q-19 0 -30.5 18t-11.5 38q0 42 41 66
q22 13 78 26q-5 37 -26 130h2q7 0 11 -1q13 -14 20 -56l12 -70q15 0 45 4.5t45 4.5q24 0 24 -19q0 -3 -24 -66q-121 -317 -121 -378q0 -105 79 -105q61 0 150 118q82 108 92 173q-76 44 -76 131q0 46 11.5 75t44.5 67q39 46 66 46q17 0 29 -30q10 -24 10 -44q0 -47 -43 -198
q1 -1 0 -7q10 0 23 10l12 10q11 0 11 -12zM490 558q0 43 -24 48q-32 -16 -55.5 -57.5t-23.5 -78.5q0 -95 59 -106q8 21 26 98.5t18 95.5zM112 546v13q-80 -8 -80 -66q0 -21 19 -21q15 0 38 29t23 45z" />
    <glyph glyph-name="W" unicode="W" horiz-adv-x="749" 
d="M741 424q0 -129 -23 -196q-26 -75 -110 -174q-1 -1 -9 -4.5t-8 -4.5q0 -10 -62 -36.5t-81 -26.5q-50 0 -80 22q-25 19 -52 66q-52 -44 -78 -59q-44 -25 -92 -25q-54 0 -78 17t-46 68q-25 58 -25 92q0 36 17.5 107t33.5 104q7 12 24 42q92 172 278 298h13q4 0 4 -9
q0 -6 -21 -23q-115 -94 -180 -178q-81 -105 -109 -227q-14 -60 -14 -68q0 -68 27 -121q35 -64 97 -64q35 0 79.5 22t57.5 52q-7 27 -7 60q0 151 102 349q9 18 45 59q39 45 51 45q21 0 21 -63q0 -23 -8 -78.5t-14 -77.5q-9 -30 -75.5 -151.5t-66.5 -127.5q0 -31 36 -62
t67 -31q98 0 176 134q69 119 69 224v21q-100 44 -100 146q0 51 38 51q50 0 80 -65q23 -50 23 -107zM703 472q0 20 -20 55q-22 39 -39 39t-17 -33q0 -32 20.5 -60t51.5 -33q0 5 2 16t2 16zM493 554q0 -4 -4 15h-14q-100 -116 -128 -341l-6 -50l7 -24q83 151 93 174
q46 102 46 190q0 6 3 18t3 18z" />
    <glyph glyph-name="X" unicode="X" horiz-adv-x="608" 
d="M560 92q0 -54 -29 -87.5t-82 -33.5q-86 0 -175 107q-72 86 -90 157q-19 73 -122 -87q-60 -94 -107 -190h-15q-9 17 -9 32q0 9 121.5 140.5t121.5 143.5q0 9 -13 114l1 141q-4 8 -7 8q-9 0 -56.5 -19t-57.5 -19h-17l-5 24q31 5 110 29q19 6 44 22q22 44 43 89q51 88 90 88
q12 0 21.5 -8.5t9.5 -19.5q0 -12 -20 -46t-32 -46q-37 -31 -89 -76q-5 -20 -5 -16v-105q0 -12 9.5 -64t13.5 -60l327 336q15 -15 15 -19t-166 -169.5t-166 -184.5q0 -28 43 -105q39 -70 64 -98q60 -66 118 -66q32 0 56.5 19.5t24.5 51.5q0 54 -37.5 96.5t-90.5 42.5
q-6 0 -19.5 -4.5t-19.5 -4.5q-11 0 -21 11q9 23 77 23q12 0 40.5 -11.5t40.5 -19.5q60 -39 60 -116zM303 721q-28 -20 -57 -56q-34 -43 -33 -69q43 43 57 60q32 39 33 65z" />
    <glyph glyph-name="Y" unicode="Y" horiz-adv-x="742" 
d="M754 629q-6 -15 -35 -87q-40 -100 -86 -276q-34 -131 -30 -139q35 36 103 104q6 -7 6 -17q0 -16 -60 -73q-51 -49 -65 -56q-5 -14 -8 -33q-12 -95 -95 -231q-95 -156 -175 -156q-18 0 -31 20q-11 17 -11 36q0 77 94 179l174 183q8 10 28 76l48 155l81 244
q-18 -13 -49 -46q-46 -49 -55 -57q-23 -19 -68 -57.5t-59 -69.5l-79 -166q-44 -74 -107 -99h-28q-5 6 -5 23q0 34 38 89q30 44 60 72q54 51 72 84q23 42 23 107q0 102 -23 149q-32 66 -119 66q-104 0 -188 -133q-73 -116 -73 -210q0 -100 91 -100q59 0 108 91q40 75 40 125
q0 65 -8 92l10 10h14q10 -24 10 -95q0 -68 -28 -132q-39 -89 -116 -122q-26 -11 -39 -11q-60 0 -90 61q-21 42 -21 90q0 38 12 78q23 78 47 121q31 56 84 101q85 73 172 73q69 0 102 -32q54 -53 63 -129q0 -71 1 -141l259 256q11 -11 11 -17zM405 276q-128 -136 -130 -186
q44 25 79 82q8 14 51 104zM528 26q-227 -199 -227 -299q0 -29 14 -29q31 0 89 85q37 53 54 88q37 73 70 155z" />
    <glyph glyph-name="Z" unicode="Z" horiz-adv-x="437" 
d="M439 566q0 -65 -56 -148q-52 -78 -112 -113q-4 -5 -12 -14q34 -38 34 -70q0 -6 -2.5 -17.5t-2.5 -16.5v-24q15 7 44 22q38 18 40 16v-20l-48 -26q-30 -17 -43 -33q-5 -5 -14.5 -29t-13.5 -33q-42 -88 -80 -143q-31 -45 -79 -93q-61 -61 -112 -90q-46 -15 -63 -15
q-7 0 -22 4t-22 4q-14 0 -26 31q-9 22 -9 34q0 129 252 266q43 23 130 69q11 6 18 38q7 27 7 45q0 32 -12 59q-109 -64 -146 -64q-31 0 -31 24q0 37 56 66q46 24 70 24q6 0 26 -6.5t26 -6.5q4 0 50 48q95 100 95 221q0 34 -23 68.5t-55 42.5q-8 2 -33 2q-91 0 -162 -105
q-60 -89 -68 -180q-20 0 -20 14q0 4 7 23.5t8 27.5q11 103 78 181q73 85 173 85q74 0 115 -48q38 -45 38 -120zM200 288q-1 0 -8.5 3t-12.5 3q-20 0 -66 -27q-16 -9 -21 -31q45 -6 108 52zM208 92q-15 -4 -91 -49q-244 -144 -244 -244q0 -17 12.5 -31.5t29.5 -14.5
q59 0 139 88q54 59 103.5 141t50.5 110z" />
    <glyph glyph-name="bracketleft" unicode="[" horiz-adv-x="328" 
d="M420 699q-66 11 -71 11q-12 0 -16 -8q-35 -107 -142 -383q-117 -305 -148 -349q-11 -16 19 -19q14 -2 42 -2q13 0 30 -4q11 -12 11 -19q0 -2 -10 -2l-147 4q-18 7 -18 24q0 6 6 12q47 45 177 365l153 378q11 20 21 25q7 4 27 4q1 0 65 2q22 1 22 -5q5 -6 5 -13
q0 -16 -26 -21z" />
    <glyph glyph-name="backslash" unicode="\" horiz-adv-x="357" 
d="M365 -34l-25 9q-34 11 -64 56q-20 29 -147 340q-127 308 -127 323q0 9 9 9q11 0 23 -27q51 -117 151 -351q55 -126 73 -163q45 -91 94 -151l18 -36z" />
    <glyph glyph-name="bracketright" unicode="]" horiz-adv-x="420" 
d="M444 695q-49 -47 -177 -364l-153 -378q-8 -19 -20 -25q-8 -4 -28 -4q-1 0 -65 -2q-22 -1 -22 5q-5 6 -5 13q0 16 29 20q0 1 26 -5q30 -6 42 -6t16 8q34 107 141 383q118 304 149 349q11 16 -19 20q-14 1 -42 2q-13 0 -30 3q-11 12 -11 20q0 2 10 2l147 -4q18 -7 18 -24
q0 -7 -6 -13z" />
    <glyph glyph-name="asciicircum" unicode="^" horiz-adv-x="309" 
d="M196 812q11 -6 24 -18q17 -16 24 -21q14 -11 21 -18q13 -12 14 -23l1 -13l-12 -7q-6 4 -10 8l-2 3q-15 11 -39 29q-17 18 -47 40l-1 1l-1 -1q-15 -5 -48 -34l-47 -42q-8 -7 -18 -3q-4 2 -7.5 9.5t-1.5 11.5q2 6 40.5 37.5t48.5 37.5q27 16 31 16q3 0 6 -1z" />
    <glyph glyph-name="underscore" unicode="_" horiz-adv-x="549" 
d="M1 -79q20 1 138 1q139 0 415 -1v30h-553v-30z" />
    <glyph glyph-name="grave" unicode="`" horiz-adv-x="309" 
d="M238 281q0 -3 -5 -1l-10 -8q-65 48 -131 99q-4 6 -4 16q0 14 17 14q13 0 73 -54t60 -66z" />
    <glyph glyph-name="a" unicode="a" horiz-adv-x="527" 
d="M526 46q0 -7 -31 -21t-43 -16q-52 -10 -58 -10q-55 0 -79.5 20t-34.5 75q-22 -34 -61 -62q-21 -15 -63 -26.5t-70 -11.5q-35 0 -46 3q-26 7 -44 35q-7 11 -7 30q0 51 29 79q58 57 119 75q53 16 194 22q6 -6 6 -18q0 -9 -11.5 -44t-11.5 -44q0 -92 73 -95q88 -3 139 38
v-29zM293 195q-18 7 -76 7q-38 0 -100 -33q-73 -39 -73 -82q0 -26 25 -42q22 -15 49 -15q22 0 50 13q14 7 43 21q35 26 47 53q9 23 35 78z" />
    <glyph glyph-name="b" unicode="b" horiz-adv-x="495" 
d="M495 46q-61 -25 -102 -25q-64 0 -120 42q-9 -11 -28 -32q-23 -26 -43 -28q-14 -7 -20 -8q-4 -1 -13 0q-10 1 -20 1q-22 0 -55 45q-28 36 -28 50q0 3 1 5q4 0 -17 -16q-9 -7 -37 -28l-14 -6v27q26 12 64 60q4 47 14 111q17 66 18 68q12 39 25 66l45 93q40 79 86 135
q57 70 109 72q35 2 58 -32q21 -30 21 -66q0 -181 -336 -449q-1 -12 0 -15q0 -33 20 -57q21 -27 53 -27q15 0 44.5 17.5t29.5 31.5q0 3 -2 5q-31 47 -26 85v16q2 10 16 21q47 4 50 -74q-3 -14 -3 -40q13 -20 48 -33q30 -11 59 -11q54 0 103 26v-30zM399 587q0 64 -37 64
q-51 0 -125 -122q-51 -85 -71 -140q-26 -72 -36 -106q-20 -67 -24 -115q118 88 200 197q93 124 93 222zM254 176q-6 0 -6 -16q0 -7 6 -29t10 -26q4 7 4 19q0 38 -14 52z" />
    <glyph glyph-name="c" unicode="c" horiz-adv-x="274" 
d="M275 45q-1 -19 -69 -36q-59 -15 -88 -14q-54 2 -89 30q-38 31 -38 83q0 55 45.5 95.5t100.5 36.5q22 -1 42 -19.5t20 -39.5q0 -18 -12.5 -32.5t-29.5 -14.5q-9 0 -24 15q-2 17 19 39q-2 6 -15 12t-20 5q-37 -3 -61.5 -30.5t-24.5 -64.5q0 -27 27 -54t54 -27q110 0 163 45
v-29z" />
    <glyph glyph-name="d" unicode="d" horiz-adv-x="533" 
d="M533 78q-2 -1 -3 -2q-2 -6 -1 -27q1 -10 6 -6l-3 4q-21 -17 -61.5 -34.5t-65.5 -17.5q-57 0 -87 35q-19 22 -43 88q-12 -14 -45 -48q-52 -53 -111 -67q-17 -4 -39 -4q-15 0 -45.5 22.5t-33.5 38.5q-2 10 -4 26q0 20 9 41q18 41 77 77.5t104 36.5q13 0 36 -11.5t21 -22.5
t-59 -53q-39 -29 -63 -44q-67 -42 -86 -38q0 -36 58 -36q31 0 73 25q36 21 62 49q24 25 44 57q6 9 11 32q7 29 9 34q25 69 71 168l78 167q5 9 23 14q16 -4 11 -24l-1 -4v-4q0 -11 -29 -87q-23 -64 -36 -93q-23 -53 -70 -137l-28 -50q-11 -20 -11 -25q0 -52 25 -90
q29 -43 79 -43q39 0 131 47q-1 3 -1.5 4t-1.5 2zM182 206q-26 0 -86 -37q-63 -39 -63 -64q0 -5 2 -8q71 17 173 109h-26z" />
    <glyph glyph-name="e" unicode="e" horiz-adv-x="307" 
d="M309 49q-31 -60 -184 -60q-13 0 -34 1q-12 5 -37 12q-60 9 -60 78q0 45 27 88t66.5 65.5t78.5 22.5q22 0 22 -30q0 -12 -2 -19q-9 -31 -62 -78q-49 -42 -85 -57q1 -14 16 -27q28 -24 45 -25q43 -2 47 -2q56 0 89 11q41 14 73 50q-1 -3 -1 -10q0 -8 1 -20zM152 200
q2 7 2 14q0 14 -12 14q-2 0 -7 -2q-22 -9 -51 -39.5t-36 -52.5q-10 -33 -9 -40q98 56 113 106z" />
    <glyph glyph-name="f" unicode="f" horiz-adv-x="429" 
d="M390.5 22.5q-38.5 -17.5 -50.5 -18.5q-54 -5 -59 -5q-30 0 -94 20l1 -35q1 -50 -6 -136q-4 -51 -41 -138q-43 -103 -79 -103q-55 0 -55 171q0 128 71 295q2 5 2 9l-2 4q-2 0 -8 -5q-24 -13 -70 -36v25q71 41 71 45q0 12 -18 28t-21 23q-30 69 -30 107q0 29 16 29
q13 0 57 -51q5 -6 37 -60q46 157 138 303q71 113 106 113q26 0 23 -34l-1 -13q-6 -81 -85 -233q-22 -42 -91 -121l-62 -70q15 -38 29 -70q8 -18 50 -29q34 -9 62 -9q38 0 49 2q24 5 68 24l31 20q4 -2 2 -12q-1 -9 -1.5 -15.5t-39 -24zM347 543q0 12 -6 11q-44 -27 -59 -54
q-113 -198 -137 -318q63 61 108 134q21 33 56 113q38 86 38 114zM103 148q-19 39 -54 83q-7 -6 -7 -11q0 -16 17.5 -47.5t30.5 -41.5q5 6 13 17zM162 -54q0 41 -4 79q-22 12 -52 44q-13 -38 -38 -114q-26 -87 -30 -205q-1 -25 6 -56q8 -38 23 -47q43 36 71 139q24 88 24 160
zM109 102q8 -9 28 -19q0 25 -15 36q-2 2 -13 -17z" />
    <glyph glyph-name="g" unicode="g" horiz-adv-x="481" 
d="M482 46q-16 -10 -81 -58q-72 -52 -152 -87q-7 -3 -19 -52q-15 -63 -20 -77q-19 -53 -57 -112q-55 -86 -101 -86q-22 0 -35 19t-13 42q0 79 60 144q49 49 146 147q5 6 19 51q18 61 23 74l6 32q-89 -97 -165 -97q-44 0 -74 26.5t-30 70.5q0 81 78 126q61 35 130 35
q54 0 92 -21q7 12 17 37q7 9 15 9t11 -9q2 -6 -4.5 -23t-6.5 -23q16 -8 42 -27q2 -29 -9 -29q-18 0 -40 23q-2 0 -1.5 -3t-1.5 -5q-13 -60 -50 -212l-4 -16q70 26 135 69l90 60v-28zM279 178v15q-37 15 -68 15q-59 0 -110 -23q-67 -30 -67 -88q0 -29 19 -52t47 -23
q48 0 113.5 54.5t65.5 101.5zM208 -124q-60 -46 -112 -108q-62 -74 -62 -120q0 -38 21 -38q46 0 104 125q51 110 49 141z" />
    <glyph glyph-name="h" unicode="h" horiz-adv-x="599" 
d="M599 44q-35 -19 -65 -31q-38 -15 -91 -15q-100 0 -123 87q-4 16 -4 32q0 28 13 56q-10 -4 -112 -38q-68 -23 -107 -51q-2 -1 -17 -53q-13 -47 -35 -47q-25 0 -25 23q0 12 13 33t13 28q0 3 -1 6q-28 -17 -58 -32v30q34 18 72 44q6 13 18 57q28 103 96 261q101 234 166 234
q24 0 38 -18t14 -43q0 -88 -46 -173q-16 -30 -112 -167q-60 -58 -120 -137q57 30 150 63q80 29 114 36q13 4 18 4q9 0 10 -15q-17 -25 -44 -74q-10 -23 -10 -56q0 -29 33 -43q25 -11 59 -11q67 0 143 41v-31zM373 600q0 32 -25 32q-13 0 -41 -31q-22 -24 -33 -43
q-42 -70 -76 -171q-10 -30 -53 -181q86 89 149 187q79 123 79 207z" />
    <glyph glyph-name="i" unicode="i" horiz-adv-x="310" 
d="M251 411q2 -34 -50 -34q-33 0 -45 15l6 22q6 8 23.5 17t27.5 9q15 0 37 -14zM310 45q-22 -17 -66 -35q-53 -22 -85 -22q-52 0 -83 41q-18 24 -5 69l-35 -29q-2 -1 -35 -25q-3 11 -3 18t2 11q34 21 68 65.5t49 83.5q10 28 35 28q18 0 26 -20q-7 -12 -21 -37
q-41 -93 -41 -117q0 -53 57 -53q60 0 119 36l19 17z" />
    <glyph glyph-name="j" unicode="j" horiz-adv-x="289" 
d="M238 434q0 -26 -38 -48q-25 14 -25 41q0 41 31 41q12 0 22 -11t10 -23zM288 47q-102 -72 -240 -153q8 -199 -114 -298q-23 -19 -59 -19q-46 0 -44 49q7 142 169 269q26 82 33 102q19 55 41 99q0 2 4 10t4 11q0 2 -2 2q-29 -28 -78 -76q-1 2 -1 10q0 7 1 21q64 57 83 89
q23 40 50 71l20 3q11 -8 11 -14q0 -5 -14 -29q-15 -29 -17 -33q-28 -68 -81 -216l-5 -20q65 51 205 131l35 20q2 -4 -1 -29zM3 -213q0 69 -1 74q-145 -133 -145 -229q0 -33 25 -28q39 2 82 75q39 67 39 108z" />
    <glyph glyph-name="k" unicode="k" horiz-adv-x="440" 
d="M441 45q-8 -1 -24 -7q-28 -14 -78 -27q-53 -14 -81 -14q-34 0 -62 15q-52 28 -52 114q0 17 2 36q2 10 7 29q6 23 4 34q-1 4 -10 21q-38 -32 -60 -82q-12 -28 -26 -88t-26 -88q1 -10 -8 -10t-21 21q-1 9 7.5 35t8.5 38l-22 -27v27q0 3 26 37q13 40 30 103q8 59 35 151
l46 157q51 124 74 124q25 0 25 -63q0 -57 -28 -151q-29 -98 -49 -133l-8 -14q3 -2 23 -1q19 1 56 41q57 62 70 74q44 39 83 39q43 0 43 -36q0 -24 -27 -47q-23 -19 -45 -25q-13 -3 -48 -11q18 13 40 30q18 17 38 45q-5 16 -13 14q-7 -2 -9 -2q-22 0 -53 -37q-10 -14 -31 -41
q-40 -48 -101 -74q13 -25 13 -80v-30q0 -56 15 -81q21 -35 83 -35q15 0 94 26q9 3 59 21v-28zM203 544q0 7 1 21t1 21q-1 11 -4 9q-8 -8 -46 -120q-41 -120 -41 -152l-8 -28q6 -15 9 -15t12 11q76 175 76 253zM121 255l-24 4l-18 -57l22 31z" />
    <glyph glyph-name="l" unicode="l" horiz-adv-x="355" 
d="M354 49q-24 -22 -89 -45.5t-99 -23.5q-31 0 -62 22q-19 14 -42 41q-19 22 -22 22q-5 0 -21 -11t-20 -11v29q0 1 18 8.5t16 12.5q-5 13 -3 42q3 44 3 35q0 70 54 201q47 114 97 189q67 101 116 101t49 -64q0 -43 -4 -57q-10 -88 -47.5 -170t-89.5 -154q-11 -16 -71 -80
q-46 -50 -46 -57q0 -20 33 -43q24 -17 43 -17h33q28 0 73 20l81 36v-26zM313 603l-4 14q-2 7 -16 7q-37 0 -105 -126q-49 -91 -64 -136q-21 -63 -39 -124q-13 -67 -13 -92t5 -36q234 265 236 493z" />
    <glyph glyph-name="m" unicode="m" horiz-adv-x="846" 
d="M847 38q-6 -7 -71 -31q-70 -26 -92 -26q-44 0 -74 27.5t-30 71.5q0 20 24 87l-2 13q-45 -35 -134 -103q-123 -92 -156 -92q-7 0 -10 4q-11 0 -11 11t27.5 69t27.5 85q0 30 -26 30q-7 0 -35 -21l-101 -77q-66 -52 -102 -98q-6 -2 -13 -2q-27 0 -27 16q0 8 33 85l4 24
q-9 -5 -38 -38q-23 -26 -41 -28v32q48 43 73 82q9 13 44 71h16q0 -3 2.5 -8.5t2.5 -7.5l-32 -142l7 -8q38 33 113 98q92 77 129 77q20 0 30.5 -16t10.5 -37q0 -14 -10 -56q-12 -48 -14 -62q17 6 66 40q28 20 86 60q51 33 100 69q10 10 30 11q18 0 22 -8q1 -2 1 -17
q0 -5 -13 -22q-15 -20 -18 -25q-15 -26 -15 -56q0 -98 65 -98q47 0 125 39l26 13v-36z" />
    <glyph glyph-name="n" unicode="n" horiz-adv-x="594" 
d="M595 47q-8 -15 -81 -39q-67 -22 -84 -22q-42 0 -75 18q-42 21 -42 59q0 16 12 45.5t12 38.5q0 4 -2 8q-57 -37 -161 -107q-33 -29 -98 -77h-15q-6 6 -6 18q0 10 13 52.5t15 57.5q-19 -16 -37 -31q-21 -16 -43 -25v28q0 -33 50 28q45 56 56 82l6 31q3 15 20 26h20
q10 -7 10 -14q0 -3 -54 -166q4 -6 5 -9l24 13q32 17 60 35l91 60q3 2 64 54q53 45 61 45q9 0 17.5 -8t8.5 -17q0 -4 -20 -24q-23 -23 -26 -28q-28 -48 -28 -82q0 -39 14 -55.5t52 -16.5q37 0 160 49q5 -19 1 -27z" />
    <glyph glyph-name="o" unicode="o" horiz-adv-x="421" 
d="M421 49q-27 -10 -50 -9q-18 1 -27 1q-17 0 -35 12q-6 4 -40 33q-22 -50 -67.5 -81.5t-99.5 -31.5q-44 0 -72 25q-31 26 -31 69q0 69 63 114q53 38 103 38q5 0 13.5 -1.5t13.5 -1.5q-14 0 8.5 17.5t35.5 15.5q45 -6 45 -80q0 -16 -2 -36l-3 -21q22 -13 49 -36
q10 -9 35 -12t64 12zM256 137v58q1 8 -8 16.5t-17 8.5q-3 0 -6 -2q3 -14 11 -34l-6 -7q9 -27 26 -40zM243 100q0 7 -3 10l-3 2q-12 14 -37 65q-7 10 -19 10q-42 0 -87 -35q-48 -38 -50 -78q-2 -32 18 -50t53 -18q30 0 45 8q8 4 39 30q44 37 44 56z" />
    <glyph glyph-name="p" unicode="p" horiz-adv-x="449" 
d="M449 46q-51 -28 -69 -35q-31 -12 -75 -12q-23 0 -47.5 11.5t-26.5 11.5q-4 0 -19.5 -10.5t-21.5 -11.5q-11 -1 -32 -4q-21 -2 -43 8q-1 -7 -5 -17q-20 -95 -76 -354q-3 -15 -14 -25q-10 0 -30 19q0 52 5 76q7 14 16 41q18 85 63 281q13 38 42 144l7 29
q-75 -140 -121 -152q-5 12 -5 20q0 7 5 10q28 19 60 62q31 40 45 74q10 -5 -14 -10q-33 -8 -44 -16q-33 -26 -45 -49q-10 1 -10 12q0 41 92 88q10 5 47 12q18 54 47 159q11 15 20 15q11 -6 11 -14q0 -21 -46 -158q9 1 13 -2q38 -2 71 -41t33 -78q0 -49 -25 -82
q17 -20 50 -20q6 0 19 1t19 1q13 0 104 45v-29zM242 114q0 31 -3.5 41.5t-23.5 35.5q-20 20 -39 20l-17 5q-24 -96 -36 -149q18 7 35 7t65 -19q19 19 19 59zM198 32q-11 12 -46 12q-25 0 -33 -8q6 -13 35 -13t44 9z" />
    <glyph glyph-name="q" unicode="q" horiz-adv-x="414" 
d="M418 44q0 -7 -17 -15q-27 -13 -43 -27q-39 -36 -63 -68q-32 -43 -71 -115q-23 -47 -85 -162q-22 -39 -47 -39q-13 0 -21 24q-7 20 -7 36q0 44 62 189.5t62 162.5q0 3 -1 4q-10 -8 -34 -25q-34 -18 -80 -18q-78 0 -78 73q0 62 60 114.5t123 52.5q41 0 41 -23
q0 -32 -100 -96q-13 -6 -39.5 -20.5t-40.5 -34.5q3 -22 21 -28q6 -2 31 -2q55 0 92 39q24 25 49 83.5t40 77.5q15 0 22 -2l6 -3q-116 -255 -189 -521l3 -19l70 132q119 223 233 260q1 -1 1 -30zM184 195q-6 2 -13 2q-39 0 -81 -32q-45 -33 -46 -71q70 45 140 101z" />
    <glyph glyph-name="r" unicode="r" horiz-adv-x="440" 
d="M440 48q0 -13 -64 -34q-60 -20 -82 -20q-45 0 -79 15q-44 19 -44 59q0 44 38 102q-51 -17 -63 -17q-37 0 -47 20l-26 -61q-13 -29 -26 -42q-5 -6 -19.5 -13t-28.5 -15q-4 14 -4 22t5 10q9 3 32 20q6 5 31 70q23 61 27 79q3 -18 20 -38t34 -20q40 0 109 54q9 2 14 -1.5
t1 -12.5q-57 -142 -57 -147q0 -56 81 -53q48 2 77 14q1 0 71 37v-28z" />
    <glyph glyph-name="s" unicode="s" horiz-adv-x="418" 
d="M418 51q-10 -8 -29 -22q-13 -8 -41 -20q-59 -18 -147 -18h-17q-40 0 -77 17q-42 19 -55 52q-2 5 4.5 14t11.5 9q2 0 2 -2q19 -38 72 -53q24 -7 39 -7q25 0 47.5 14t22.5 37q0 61 -72 92q-32 15 -97 40q-16 -55 -43 -125q-7 -12 -42 -35v30l23 31q18 24 29 81q5 16 19 67
q4 10 11 10q8 0 9 -12q37 -33 78 -46q33 -10 90 -35q43 -26 43 -77q0 -20 -10 -45l-25 -27q2 -3 39 2q21 3 94 38q16 19 21 19v-29z" />
    <glyph glyph-name="t" unicode="t" horiz-adv-x="340" 
d="M340 44q-120 -66 -185 -66q-77 0 -105 37q-8 10 -17 29q0 9 -4 7q-19 -6 -29 -6q-2 2 -2 9t2 19q8 1 13 4q12 6 14 17q15 110 67 221q-2 2 -6 0q-5 -4 -10 -4q-23 0 -71 -19l-7 13l6 12q25 11 91 23q12 37 28 70q36 73 77 84q5 -10 5 -26q0 -12 -2 -27t-11 -56l-12 -38
h75q45 -1 70 -18q1 -5 -6 -12.5t-13 -7.5q-8 0 -31 7t-31.5 7t-71.5 1q-108 -220 -108 -230q0 -35 22.5 -61.5t57.5 -26.5q53 1 100 19q31 12 94 49v-30zM174 439q-10 -6 -44 -95q9 -1 21 4q8 13 17 46.5t6 44.5zM150 325q-11 -7 -26 -7q-4 0 -32 -80.5t-31 -94.5
q10 7 47 85q35 73 42 97z" />
    <glyph glyph-name="u" unicode="u" horiz-adv-x="471" 
d="M470 47q-83 -48 -140 -47q-34 0 -54 39q-18 34 -14 69q-26 -23 -91 -77q-43 -34 -77 -34q-26 0 -40 23q-12 20 -11 47v26q-7 -8 -24 -29q-10 -11 -18 -17q-1 3 -1 9q0 7 1 16q92 110 122 152q4 2 16 0l3 -3l2 -1l1 -1q2 -2 2 -8l-30 -47t-30 -79q0 -37 33 -37
q35 0 100 61q21 19 85 91q24 27 34 34q5 0 14 1h11q9 0 10 -1q-76 -108 -76 -134q0 -25 9 -46q12 -28 34 -27q26 1 66 17q31 15 63 29v-26z" />
    <glyph glyph-name="v" unicode="v" horiz-adv-x="444" 
d="M444 46q-11 -9 -51 -27q-17 -5 -34 -5q-53 0 -98 45q-56 -71 -104 -69q-38 1 -67 36q-26 32 -32 72q-14 -23 -58 -54q-1 2 -1 29q31 13 61 80q33 75 35 77q8 6 15 6q9 0 14 -11q-1 -20 -15 -54t-14 -52q0 -31 18 -64q21 -38 50 -33q22 4 47 31.5t25 49.5q0 8 -9 24t-9 24
q0 19 8 36q10 21 27 20q24 -1 35 -46q0 -54 -14 -74q33 -41 81 -41q33 0 90 27v-27z" />
    <glyph glyph-name="w" unicode="w" horiz-adv-x="624" 
d="M630 48q-85 -38 -127 -34q-65 6 -107 35q-4 3 -23 -15q-23 -21 -31 -25q-20 -10 -53 -10q-26 0 -46 12q-7 4 -41 33q-46 -43 -96 -47q-19 -2 -42 7.5t-34 24.5q-36 47 -35 67q5 83 63 149q62 71 157 104l20 7q10 -4 10 -10q0 -3 -3 -14q-16 -13 -51.5 -29.5t-50.5 -26.5
q-35 -24 -63 -64q-33 -45 -36 -82q-3 -35 16 -59.5t54 -24.5q4 0 8 1h10q14 0 60 29q-9 26 -5 42q4 18 8 36.5t13 31.5q38 55 61 55q26 0 27 -14q0 -2 2 -7t2 -10q0 -33 -30 -85l-32 -52q42 -36 65 -36q32 0 73 37q1 15 -7 47q-4 15 7 47q12 37 31 37q29 0 29 -60
q0 -21 -18 -67q45 -32 92 -32q44 0 122 29q0 -4 1 -27zM262 197q-1 2 -3 2q-8 0 -23 -22.5t-14 -30.5q-5 -14 -5 -28q0 -12 3 -24q9 14 26 53.5t16 49.5z" />
    <glyph glyph-name="x" unicode="x" horiz-adv-x="457" 
d="M457 50l-60 -33q-62 -31 -117 -32q-28 0 -61.5 18t-49.5 41l-120 -139q-30 17 -30 33q0 13 63 71t63 71q0 20 -21 72l-122 -113v36q12 12 31 32q1 1 58 61q35 37 43 37q19 0 30 -43l14 -55q17 19 100 114q62 70 69 70q8 0 15 -9t7 -18q0 -17 -88 -101q-84 -80 -79 -88
q33 -49 85 -49q21 0 46 9q21 0 62 15.5t62 29.5q2 -2 2 -10q0 -7 -2 -20z" />
    <glyph glyph-name="y" unicode="y" horiz-adv-x="488" 
d="M488 42q-67 -40 -248 -160q-75 -267 -218 -267q-29 0 -37 4q-17 9 -16 40q1 40 47 103q34 47 57 66q31 26 128 82q4 2 11 29q6 21 14 46q11 35 43 126q4 4 4 9q0 3 -1 6q-47 -48 -74 -68q-48 -35 -92 -35q-47 0 -47 56q0 13 3 24q-4 5 -21 -27q-13 -13 -41 -31v29
q31 20 64 82q36 66 52 79l23 -2q-4 -12 -29 -60q-20 -36 -20 -65q0 -45 41 -45q34 0 92 56q49 47 68 82q27 61 70 144q8 12 23 19h19q10 -11 10 -18q0 -6 -38 -78q-47 -90 -58 -116.5t-34 -95.5q-26 -78 -26 -91l-9 -37q7 7 209 125l32 24zM195 -128q-40 -21 -108 -82
q-82 -74 -82 -113q0 -27 25 -27q17 0 41 15q40 25 101 157q10 15 23 50z" />
    <glyph glyph-name="z" unicode="z" horiz-adv-x="501" 
d="M502 48q-18 -19 -79 -48.5t-86 -29.5q-44 0 -114 24t-96 24q-5 0 -42 -15t-51 -15q-7 0 -8 4q3 22 68 74l130 102q0 1 -8 -1.5t-9 -1.5q-11 0 -34.5 5t-34.5 5q-22 0 -71 -59q-54 -65 -67 -71v29q0 7 15 16q13 14 102 134q10 14 21 14q5 0 18 -12t16 -14q20 -10 53 -10
q2 0 110 12q-75 -54 -212 -163q43 -1 112 -25.5t78 -24.5q10 0 29 2.5t29 2.5q16 0 66 28t64 42z" />
    <glyph glyph-name="bar" unicode="|" horiz-adv-x="399" 
d="M188 -11v715h25v-714q-4 -2 -12 -2q-5 0 -13 1z" />
    <glyph glyph-name="asciitilde" unicode="~" horiz-adv-x="405" 
d="M108 722q-5 -9 -9 -17q-7 -10 -15 -11q-17 -2 -19 16q-3 27 18 32q26 24 63 28q9 0 35.5 -14t31.5 -21q47 -22 54 -22q8 4 25 8q14 11 24 32l27 -3l-4 -22q-3 -15 -28 -32.5t-42 -18.5q-13 -1 -46 12t-38 23q-13 6 -38 20q-12 -1 -39 -10z" />
    <glyph glyph-name="Adieresis" unicode="&#xc4;" horiz-adv-x="843" 
d="M804 122q0 -44 -39 -91q-40 -50 -83 -50q-24 0 -43 10q-59 31 -73 79l-14 106l-5 -1q-49 -65 -150 -127q-109 -67 -183 -67h-33q-8 0 -37 7q-66 16 -105 58q-42 45 -42 111q0 114 107 237q33 38 90 94q244 200 461 200q17 0 39.5 -17.5t22.5 -34.5q0 -12 -14 -34
q-19 -30 -70 -51q-47 -20 -86 -20q-48 0 -103 18l5 8q11 1 27 1q10 0 30.5 -1t30.5 -1q30 0 75 20q51 23 51 48q0 28 -49 28q-214 0 -422 -217q-133 -139 -133 -257q0 -82 74 -124q33 -18 44 -20.5t50 -2.5q59 0 144 38q10 5 61 43q24 17 73 53q44 34 53 67q37 131 57 181
q36 89 100 162l18 5q0 -7 2.5 -19.5t2.5 -19.5q0 -40 -32 -122q-29 -75 -57 -114q-30 -42 -33 -47q-15 -27 -15 -55q0 -184 85 -184q43 0 67 31q22 28 22 72q0 40 -20 71l-46 58v15q35 -8 65 -57t30 -87zM711 531q-62 -86 -96 -231q82 138 96 231zM485 760q0 16 10.5 26.5
t26.5 10.5q15 0 26 -11t11 -26q0 -16 -10.5 -27t-26.5 -11q-37 0 -37 38zM646 758q0 16 10.5 27.5t26.5 11.5t27 -11.5t11 -27.5t-11 -27.5t-27 -11.5t-26.5 11.5t-10.5 27.5z" />
    <glyph glyph-name="Aring" unicode="&#xc5;" horiz-adv-x="843" 
d="M804 122q0 -44 -39 -91q-40 -50 -83 -50q-24 0 -43 10q-59 31 -73 79l-14 106l-5 -1q-49 -65 -150 -127q-109 -67 -183 -67h-33q-8 0 -37 7q-66 16 -105 58q-42 45 -42 111q0 114 107 237q33 38 90 94q244 200 461 200q17 0 39.5 -17.5t22.5 -34.5q0 -12 -14 -34
q-19 -30 -70 -51q-47 -20 -86 -20q-48 0 -103 18l5 8q11 1 27 1q10 0 30.5 -1t30.5 -1q30 0 75 20q51 23 51 48q0 28 -49 28q-214 0 -422 -217q-133 -139 -133 -257q0 -82 74 -124q33 -18 44 -20.5t50 -2.5q59 0 144 38q10 5 61 43q24 17 73 53q44 34 53 67q37 131 57 181
q36 89 100 162l18 5q0 -7 2.5 -19.5t2.5 -19.5q0 -40 -32 -122q-29 -75 -57 -114q-30 -42 -33 -47q-15 -27 -15 -55q0 -184 85 -184q43 0 67 31q22 28 22 72q0 40 -20 71l-46 58v15q35 -8 65 -57t30 -87zM711 531q-62 -86 -96 -231q82 138 96 231zM658 725q-26 0 -44 18
t-18 44t18 43.5t44 17.5q25 0 43.5 -18t18.5 -43q0 -26 -18 -44t-44 -18zM658 823q-37 0 -37 -36q0 -37 37 -37q16 0 26.5 10.5t10.5 26.5q0 15 -11 25.5t-26 10.5z" />
    <glyph glyph-name="Ccedilla" unicode="&#xc7;" horiz-adv-x="909" 
d="M748 678q-2 21 -66 21q-141 0 -275.5 -86.5t-189.5 -214.5q30 3 56 10q183 49 290 98q65 30 115 69q73 57 70 103zM792 182q0 63 -89 104q-72 33 -145 33q-21 0 -104 -12q-48 -7 -67 -16q-34 -16 -34 -55q0 -60 97 -86q63 -17 145 -17q74 0 116 5q25 6 74 17q7 8 7 27z
M392 -60l-2 3q10 19 26 58q-12 -1 -23 -1q-6 0 -71 14q-85 18 -139 75q-58 61 -58 145q0 51 22 114q-17 -1 -104 -10q-66 -7 -101 -7q-11 0 -18 10v27h13q129 0 227 17q50 144 212 248q156 99 314 99q38 0 65 -15q33 -18 33 -53q0 -48 -117 -125q-96 -63 -166 -87
q-37 -13 -132 -45q-52 -17 -164 -43q-16 -2 -24 -49q-5 -31 -5 -60q0 -88 60 -146q56 -53 146 -67q33 -5 72 -5q201 0 297 80q-10 0 -98 -8q-55 -5 -97 -5q-75 0 -154 29q-102 37 -102 97q0 69 105 99q67 19 164 19q22 0 62 -4q61 -6 118 -44q66 -44 66 -99q0 2 -7 -33l4 -7
v-1q0 -3 9 -3q7 3 55 20v-27q-13 -8 -41 -16t-40 -15q-23 -19 -87.5 -63.5t-265.5 -53.5q-8 -31 -14 -48q41 -4 72 -21q39 -22 39 -58q0 -40 -47 -62q-37 -18 -82 -18q-66 0 -104 32q-5 4 -5 11q0 20 15 20q2 0 15.5 -9.5t17.5 -11.5q16 -7 41 -7q33 0 62 8q42 12 42 37
q0 26 -39 39q-27 8 -60 8l-7 8q-2 0 -3 3v3l1 4h2z" />
    <glyph glyph-name="Eacute" unicode="&#xc9;" horiz-adv-x="632" 
d="M576 75q0 -46 -72 -77q-57 -25 -101 -25h-11q-138 0 -255 59q-141 71 -141 191q0 197 353 238q5 -1 9 -1t6 1q-50 32 -50 80q0 24 12 52q-4 1 -83 1q-42 0 -88 8l-92 16q0 3 2.5 8.5t2.5 8.5l42 -4q19 0 63.5 -7.5t63.5 -7.5q12 0 35 -2t35 -2q16 0 24 2q27 32 74 64
q55 37 89 37q29 0 29 -17q0 -52 -166 -101q-9 -38 -9 -47q0 -89 114 -89q3 0 1 1t0 1q34 0 41 -6q4 -4 4 -15q0 -5 -2.5 -10l-2.5 -5q-29 3 -57 4q-15 0 -50 -1l-26 -1q-16 0 -43 -6q-34 -8 -43 -9q-94 -12 -155 -50q-80 -50 -80 -133q0 -40 16 -81q31 -77 140 -117
q83 -30 174 -30h31q36 0 76 17q52 22 52 57q0 56 -90 81q-57 16 -117 16h-43q-33 -3 -69 -19l-15 -16q22 -13 29 -14h50l8 -26l-49 -1q-22 0 -52 10q-35 12 -35 32q0 40 85 56q43 8 89 8q79 0 146 -23q101 -34 101 -106zM493 684q2 5 -5 6q-6 1 -7 -2q-12 0 -38 -12t-37 -21
l-33 -28q14 1 57 19q48 20 63 38zM393 731q0 -3 6 -1l9 -8q65 48 132 99q3 6 3 16q0 14 -16 14q-13 0 -73.5 -54t-60.5 -66z" />
    <glyph glyph-name="Ntilde" unicode="&#xd1;" horiz-adv-x="620" 
d="M628 638q0 -4 -11 -23q-13 -23 -18 -35l-41 -105q-20 -52 -53 -199q-4 -18 -4 -104q0 -242 115 -338l-6 -14l-15 -10q-83 65 -119 139.5t-36 178.5q0 22 13 101q19 112 111 357v6l-292 -277q-23 -58 -55 -133q-113 -218 -207 -218q-16 0 -26 12.5t-10 28.5q0 57 110 167
q42 41 126 124q10 14 24 91q13 69 13 84q0 46 -11 88q-16 60 -47 60q-5 0 -10 -2q-7 -61 -28 -112q-31 -78 -91 -102q-10 9 -10 33q0 53 26 107t68 83q0 19 -2 71q22 1 25 -20q3 -28 10 -33q61 2 90 -67q21 -49 21 -120q0 -38 -6 -65q-2 -17 -2 -26q0 -11 3 -9l2 2l328 307
q10 0 20 -10zM133 533l10 58q-8 -7 -32.5 -51.5t-24.5 -52.5l-6 -33q12 4 32.5 35.5t20.5 43.5zM185 235q-15 -10 -88 -93q-83 -95 -83 -121q0 -12 11 -18q66 47 100 111q20 40 60 121zM298 722q-5 -9 -9 -17q-7 -10 -15 -11q-17 -2 -19 16q-3 27 18 32q26 24 63 28
q9 0 35.5 -14t31.5 -21q47 -22 54 -22q8 4 25 8q14 11 24 32l27 -3l-4 -22q-3 -15 -28 -32.5t-42 -18.5q-13 -1 -46 12t-38 23q-13 6 -38 20q-12 -1 -39 -10z" />
    <glyph glyph-name="Odieresis" unicode="&#xd6;" horiz-adv-x="731" 
d="M734 492q0 -156 -95 -302q-108 -166 -280 -212q-60 -16 -74 -16h-40q-48 0 -103.5 24.5t-86.5 60.5q-26 30 -41 87q-14 50 -14 96q0 114 85 236q93 134 225 169q40 11 76 29q3 56 47.5 99t100.5 43q70 0 123 -61q42 -48 66 -125q11 -36 11 -128zM707 542q0 6 -3.5 13
l-3.5 7q-11 77 -50 136q-48 73 -116 73q-41 0 -70 -33q-26 -29 -32 -72q9 4 47 4q52 0 94 -15q7 -5 7 -13l-7 -8q-71 9 -87 9q-37 0 -55 -9q1 -87 46 -176q54 -106 139 -130v-10l-25 -4q-81 23 -145.5 115.5t-64.5 177.5q0 11 1 22q-84 -22 -165 -86q-93 -73 -117 -156
q-8 -14 -19 -40q-19 -59 -19 -86q0 -110 62.5 -175.5t172.5 -65.5q185 0 304 174q106 155 106 348zM475 860q0 16 10.5 26.5t26.5 10.5q15 0 26 -11t11 -26q0 -16 -10.5 -27t-26.5 -11q-37 0 -37 38zM636 858q0 16 10.5 27.5t26.5 11.5t27 -11.5t11 -27.5t-11 -27.5
t-27 -11.5t-26.5 11.5t-10.5 27.5z" />
    <glyph glyph-name="Udieresis" unicode="&#xdc;" horiz-adv-x="659" 
d="M680 609q0 -55 -51 -144l-78 -137q-15 -34 -15 -136q0 -171 113 -275v-14h-13q-13 0 -55 41q-39 38 -49 55q-40 65 -40 151q0 15 1 44.5t1 44.5q-38 -54 -116 -161q-81 -106 -151 -106q-48 0 -71 54q-18 40 -18 95q0 63 54 222q-99 -24 -131 -24q-64 0 -64 40
q0 55 106 55q30 0 62 -19q-11 -4 -25 -4q-7 0 -21.5 1.5t-21.5 1.5q-33 0 -55 -24q4 -24 30 -24q72 0 120 27q10 6 27 48q46 115 96 192q60 92 94 92q26 0 26 -39q0 -105 -201 -308q-21 -21 -36 -111q-12 -73 -12 -121q0 -105 55 -105t138 94q58 65 105 146q12 20 24 60
q16 52 20 62l49 121q34 77 62 112q5 6 24 16q17 -18 17 -23zM652 582q-44 -59 -84 -183q13 16 47 81q37 69 37 86v16zM413 651q0 9 -13 19q-7 -2 -17 -8q-32 -42 -74.5 -125.5t-57.5 -133.5q33 26 89 107t66 120q7 28 7 21zM465 760q0 16 10.5 26.5t26.5 10.5q15 0 26 -11
t11 -26q0 -16 -10.5 -27t-26.5 -11q-37 0 -37 38zM626 758q0 16 10.5 27.5t26.5 11.5t27 -11.5t11 -27.5t-11 -27.5t-27 -11.5t-26.5 11.5t-10.5 27.5z" />
    <glyph glyph-name="aacute" unicode="&#xe1;" horiz-adv-x="527" 
d="M526 46q0 -7 -31 -21t-43 -16q-52 -10 -58 -10q-55 0 -79.5 20t-34.5 75q-22 -34 -61 -62q-21 -15 -63 -26.5t-70 -11.5q-35 0 -46 3q-26 7 -44 35q-7 11 -7 30q0 51 29 79q58 57 119 75q53 16 194 22q6 -6 6 -18q0 -9 -11.5 -44t-11.5 -44q0 -92 73 -95q88 -3 139 38
v-29zM293 195q-18 7 -76 7q-38 0 -100 -33q-73 -39 -73 -82q0 -26 25 -42q22 -15 49 -15q22 0 50 13q14 7 43 21q35 26 47 53q9 23 35 78zM223 281q0 -3 6 -1l9 -8q65 48 132 99q3 6 3 16q0 14 -16 14q-13 0 -73.5 -54t-60.5 -66z" />
    <glyph glyph-name="agrave" unicode="&#xe0;" horiz-adv-x="527" 
d="M526 46q0 -7 -31 -21t-43 -16q-52 -10 -58 -10q-55 0 -79.5 20t-34.5 75q-22 -34 -61 -62q-21 -15 -63 -26.5t-70 -11.5q-35 0 -46 3q-26 7 -44 35q-7 11 -7 30q0 51 29 79q58 57 119 75q53 16 194 22q6 -6 6 -18q0 -9 -11.5 -44t-11.5 -44q0 -92 73 -95q88 -3 139 38
v-29zM293 195q-18 7 -76 7q-38 0 -100 -33q-73 -39 -73 -82q0 -26 25 -42q22 -15 49 -15q22 0 50 13q14 7 43 21q35 26 47 53q9 23 35 78zM298 281q0 -3 -5 -1l-10 -8q-65 48 -131 99q-4 6 -4 16q0 14 17 14q13 0 73 -54t60 -66z" />
    <glyph glyph-name="acircumflex" unicode="&#xe2;" horiz-adv-x="527" 
d="M526 46q0 -7 -31 -21t-43 -16q-52 -10 -58 -10q-55 0 -79.5 20t-34.5 75q-22 -34 -61 -62q-21 -15 -63 -26.5t-70 -11.5q-35 0 -46 3q-26 7 -44 35q-7 11 -7 30q0 51 29 79q58 57 119 75q53 16 194 22q6 -6 6 -18q0 -9 -11.5 -44t-11.5 -44q0 -92 73 -95q88 -3 139 38
v-29zM293 195q-18 7 -76 7q-38 0 -100 -33q-73 -39 -73 -82q0 -26 25 -42q22 -15 49 -15q22 0 50 13q14 7 43 21q35 26 47 53q9 23 35 78zM236 367q11 -6 24 -18q17 -16 24 -21q14 -11 21 -18q13 -12 14 -23l1 -13l-12 -7q-6 4 -10 8l-2 3q-15 11 -39 29q-17 18 -47 40l-1 1
l-1 -1q-15 -5 -48 -34l-47 -42q-8 -7 -18 -3q-4 2 -7.5 9.5t-1.5 11.5q2 6 40.5 37.5t48.5 37.5q27 16 31 16q3 0 6 -1z" />
    <glyph glyph-name="adieresis" unicode="&#xe4;" horiz-adv-x="527" 
d="M526 46q0 -7 -31 -21t-43 -16q-52 -10 -58 -10q-55 0 -79.5 20t-34.5 75q-22 -34 -61 -62q-21 -15 -63 -26.5t-70 -11.5q-35 0 -46 3q-26 7 -44 35q-7 11 -7 30q0 51 29 79q58 57 119 75q53 16 194 22q6 -6 6 -18q0 -9 -11.5 -44t-11.5 -44q0 -92 73 -95q88 -3 139 38
v-29zM293 195q-18 7 -76 7q-38 0 -100 -33q-73 -39 -73 -82q0 -26 25 -42q22 -15 49 -15q22 0 50 13q14 7 43 21q35 26 47 53q9 23 35 78zM125 330q0 16 10.5 26.5t26.5 10.5q15 0 26 -11t11 -26q0 -16 -10.5 -27t-26.5 -11q-37 0 -37 38zM286 328q0 16 10.5 27.5t26.5 11.5
t27 -11.5t11 -27.5t-11 -27.5t-27 -11.5t-26.5 11.5t-10.5 27.5z" />
    <glyph glyph-name="atilde" unicode="&#xe3;" horiz-adv-x="527" 
d="M526 46q0 -7 -31 -21t-43 -16q-52 -10 -58 -10q-55 0 -79.5 20t-34.5 75q-22 -34 -61 -62q-21 -15 -63 -26.5t-70 -11.5q-35 0 -46 3q-26 7 -44 35q-7 11 -7 30q0 51 29 79q58 57 119 75q53 16 194 22q6 -6 6 -18q0 -9 -11.5 -44t-11.5 -44q0 -92 73 -95q88 -3 139 38
v-29zM293 195q-18 7 -76 7q-38 0 -100 -33q-73 -39 -73 -82q0 -26 25 -42q22 -15 49 -15q22 0 50 13q14 7 43 21q35 26 47 53q9 23 35 78zM148 332q-5 -9 -9 -17q-7 -10 -15 -11q-17 -2 -19 16q-3 27 18 32q26 24 63 28q9 0 35.5 -14t31.5 -21q47 -22 54 -22q8 4 25 8
q14 11 24 32l27 -3l-4 -22q-3 -15 -28 -32.5t-42 -18.5q-13 -1 -46 12t-38 23q-13 6 -38 20q-12 -1 -39 -10z" />
    <glyph glyph-name="aring" unicode="&#xe5;" horiz-adv-x="527" 
d="M526 46q0 -7 -31 -21t-43 -16q-52 -10 -58 -10q-55 0 -79.5 20t-34.5 75q-22 -34 -61 -62q-21 -15 -63 -26.5t-70 -11.5q-35 0 -46 3q-26 7 -44 35q-7 11 -7 30q0 51 29 79q58 57 119 75q53 16 194 22q6 -6 6 -18q0 -9 -11.5 -44t-11.5 -44q0 -92 73 -95q88 -3 139 38
v-29zM293 195q-18 7 -76 7q-38 0 -100 -33q-73 -39 -73 -82q0 -26 25 -42q22 -15 49 -15q22 0 50 13q14 7 43 21q35 26 47 53q9 23 35 78zM258 285q-26 0 -44 18t-18 44t18 43.5t44 17.5q25 0 43.5 -18t18.5 -43q0 -26 -18 -44t-44 -18zM258 383q-37 0 -37 -36q0 -37 37 -37
q16 0 26.5 10.5t10.5 26.5q0 15 -11 25.5t-26 10.5z" />
    <glyph glyph-name="ccedilla" unicode="&#xe7;" horiz-adv-x="274" 
d="M82 -47l-1 2l18 42q-108 16 -108 111q0 55 45.5 95.5t100.5 36.5q22 -1 42 -19.5t20 -39.5q0 -18 -12.5 -32.5t-29.5 -14.5q-9 0 -24 15q-2 17 19 39q-2 6 -15 12t-20 5q-37 -3 -61.5 -30.5t-24.5 -64.5q0 -27 27 -54t54 -27q110 0 163 45v-29q-1 -18 -67 -36
q-58 -15 -87 -14q-6 -20 -10 -32q28 -3 49 -15q27 -15 27 -40q0 -28 -32 -43q-26 -13 -57 -13q-46 0 -72 22q-4 3 -4 8q0 15 11 15q2 0 4 -2q22 -18 47 -18q71 0 71 31q0 32 -68 32l-5 5q-1 0 -2 3v5h2z" />
    <glyph glyph-name="eacute" unicode="&#xe9;" horiz-adv-x="307" 
d="M309 49q-31 -60 -184 -60q-13 0 -34 1q-12 5 -37 12q-60 9 -60 78q0 45 27 88t66.5 65.5t78.5 22.5q22 0 22 -30q0 -12 -2 -19q-9 -31 -62 -78q-49 -42 -85 -57q1 -14 16 -27q28 -24 45 -25q43 -2 47 -2q56 0 89 11q41 14 73 50q-1 -3 -1 -10q0 -8 1 -20zM152 200
q2 7 2 14q0 14 -12 14q-2 0 -7 -2q-22 -9 -51 -39.5t-36 -52.5q-10 -33 -9 -40q98 56 113 106zM73 281q0 -3 6 -1l9 -8q65 48 132 99q3 6 3 16q0 14 -16 14q-13 0 -73.5 -54t-60.5 -66z" />
    <glyph glyph-name="egrave" unicode="&#xe8;" horiz-adv-x="307" 
d="M309 49q-31 -60 -184 -60q-13 0 -34 1q-12 5 -37 12q-60 9 -60 78q0 45 27 88t66.5 65.5t78.5 22.5q22 0 22 -30q0 -12 -2 -19q-9 -31 -62 -78q-49 -42 -85 -57q1 -14 16 -27q28 -24 45 -25q43 -2 47 -2q56 0 89 11q41 14 73 50q-1 -3 -1 -10q0 -8 1 -20zM152 200
q2 7 2 14q0 14 -12 14q-2 0 -7 -2q-22 -9 -51 -39.5t-36 -52.5q-10 -33 -9 -40q98 56 113 106zM248 281q0 -3 -5 -1l-10 -8q-65 48 -131 99q-4 6 -4 16q0 14 17 14q13 0 73 -54t60 -66z" />
    <glyph glyph-name="ecircumflex" unicode="&#xea;" horiz-adv-x="307" 
d="M309 49q-31 -60 -184 -60q-13 0 -34 1q-12 5 -37 12q-60 9 -60 78q0 45 27 88t66.5 65.5t78.5 22.5q22 0 22 -30q0 -12 -2 -19q-9 -31 -62 -78q-49 -42 -85 -57q1 -14 16 -27q28 -24 45 -25q43 -2 47 -2q56 0 89 11q41 14 73 50q-1 -3 -1 -10q0 -8 1 -20zM152 200
q2 7 2 14q0 14 -12 14q-2 0 -7 -2q-22 -9 -51 -39.5t-36 -52.5q-10 -33 -9 -40q98 56 113 106zM186 367q11 -6 24 -18q17 -16 24 -21q14 -11 21 -18q13 -12 14 -23l1 -13l-12 -7q-6 4 -10 8l-2 3q-15 11 -39 29q-17 18 -47 40l-1 1l-1 -1q-15 -5 -48 -34l-47 -42
q-8 -7 -18 -3q-4 2 -7.5 9.5t-1.5 11.5q2 6 40.5 37.5t48.5 37.5q27 16 31 16q3 0 6 -1z" />
    <glyph glyph-name="edieresis" unicode="&#xeb;" horiz-adv-x="307" 
d="M309 49q-31 -60 -184 -60q-13 0 -34 1q-12 5 -37 12q-60 9 -60 78q0 45 27 88t66.5 65.5t78.5 22.5q22 0 22 -30q0 -12 -2 -19q-9 -31 -62 -78q-49 -42 -85 -57q1 -14 16 -27q28 -24 45 -25q43 -2 47 -2q56 0 89 11q41 14 73 50q-1 -3 -1 -10q0 -8 1 -20zM152 200
q2 7 2 14q0 14 -12 14q-2 0 -7 -2q-22 -9 -51 -39.5t-36 -52.5q-10 -33 -9 -40q98 56 113 106zM61 309q0 33 32 33t32 -33q0 -32 -32 -32t-32 32zM200 308q0 34 32 34t32 -34q0 -33 -32 -33t-32 33z" />
    <glyph glyph-name="iacute" unicode="&#xed;" horiz-adv-x="310" 
d="M310 45q-22 -17 -66 -35q-53 -22 -85 -22q-52 0 -83 41q-18 24 -5 69l-35 -29q-2 -1 -35 -25q-3 11 -3 18t2 11q34 21 68 65.5t49 83.5q10 28 35 28q18 0 26 -20q-7 -12 -21 -37q-41 -93 -41 -117q0 -53 57 -53q60 0 119 36l19 17zM93 281q0 -3 6 -1l9 -8q65 48 132 99
q3 6 3 16q0 14 -16 14q-13 0 -73.5 -54t-60.5 -66z" />
    <glyph glyph-name="igrave" unicode="&#xec;" horiz-adv-x="310" 
d="M310 45q-22 -17 -66 -35q-53 -22 -85 -22q-52 0 -83 41q-18 24 -5 69l-35 -29q-2 -1 -35 -25q-3 11 -3 18t2 11q34 21 68 65.5t49 83.5q10 28 35 28q18 0 26 -20q-7 -12 -21 -37q-41 -93 -41 -117q0 -53 57 -53q60 0 119 36l19 17zM248 281q0 -3 -5 -1l-10 -8
q-65 48 -131 99q-4 6 -4 16q0 14 17 14q13 0 73 -54t60 -66z" />
    <glyph glyph-name="icircumflex" unicode="&#xee;" horiz-adv-x="310" 
d="M310 45q-22 -17 -66 -35q-53 -22 -85 -22q-52 0 -83 41q-18 24 -5 69l-35 -29q-2 -1 -35 -25q-3 11 -3 18t2 11q34 21 68 65.5t49 83.5q10 28 35 28q18 0 26 -20q-7 -12 -21 -37q-41 -93 -41 -117q0 -53 57 -53q60 0 119 36l19 17zM196 367q11 -6 24 -18q17 -16 24 -21
q14 -11 21 -18q13 -12 14 -23l1 -13l-12 -7q-6 4 -10 8l-2 3q-15 11 -39 29q-17 18 -47 40l-1 1l-1 -1q-15 -5 -48 -34l-47 -42q-8 -7 -18 -3q-4 2 -7.5 9.5t-1.5 11.5q2 6 40.5 37.5t48.5 37.5q27 16 31 16q3 0 6 -1z" />
    <glyph glyph-name="idieresis" unicode="&#xef;" horiz-adv-x="310" 
d="M310 45q-22 -17 -66 -35q-53 -22 -85 -22q-52 0 -83 41q-18 24 -5 69l-35 -29q-2 -1 -35 -25q-3 11 -3 18t2 11q34 21 68 65.5t49 83.5q10 28 35 28q18 0 26 -20q-7 -12 -21 -37q-41 -93 -41 -117q0 -53 57 -53q60 0 119 36l19 17zM101 309q0 33 32 33t32 -33
q0 -32 -32 -32t-32 32zM220 308q0 34 32 34t32 -34q0 -33 -32 -33t-32 33z" />
    <glyph glyph-name="ntilde" unicode="&#xf1;" horiz-adv-x="594" 
d="M595 47q-8 -15 -81 -39q-67 -22 -84 -22q-42 0 -75 18q-42 21 -42 59q0 16 12 45.5t12 38.5q0 4 -2 8q-57 -37 -161 -107q-33 -29 -98 -77h-15q-6 6 -6 18q0 10 13 52.5t15 57.5q-19 -16 -37 -31q-21 -16 -43 -25v28q0 -33 50 28q45 56 56 82l6 31q3 15 20 26h20
q10 -7 10 -14q0 -3 -54 -166q4 -6 5 -9l24 13q32 17 60 35l91 60q3 2 64 54q53 45 61 45q9 0 17.5 -8t8.5 -17q0 -4 -20 -24q-23 -23 -26 -28q-28 -48 -28 -82q0 -39 14 -55.5t52 -16.5q37 0 160 49q5 -19 1 -27zM198 342q-5 -9 -9 -17q-7 -10 -15 -11q-17 -2 -19 16
q-3 27 18 32q26 24 63 28q9 0 35.5 -14t31.5 -21q47 -22 54 -22q8 4 25 8q14 11 24 32l27 -3l-4 -22q-3 -15 -28 -32.5t-42 -18.5q-13 -1 -46 12t-38 23q-13 6 -38 20q-12 -1 -39 -10z" />
    <glyph glyph-name="oacute" unicode="&#xf3;" horiz-adv-x="421" 
d="M421 49q-27 -10 -50 -9q-18 1 -27 1q-17 0 -35 12q-6 4 -40 33q-22 -50 -67.5 -81.5t-99.5 -31.5q-44 0 -72 25q-31 26 -31 69q0 69 63 114q53 38 103 38q5 0 13.5 -1.5t13.5 -1.5q-14 0 8.5 17.5t35.5 15.5q45 -6 45 -80q0 -16 -2 -36l-3 -21q22 -13 49 -36
q10 -9 35 -12t64 12zM256 137v58q1 8 -8 16.5t-17 8.5q-3 0 -6 -2q3 -14 11 -34l-6 -7q9 -27 26 -40zM243 100q0 7 -3 10l-3 2q-12 14 -37 65q-7 10 -19 10q-42 0 -87 -35q-48 -38 -50 -78q-2 -32 18 -50t53 -18q30 0 45 8q8 4 39 30q44 37 44 56zM153 281q0 -3 6 -1l9 -8
q65 48 132 99q3 6 3 16q0 14 -16 14q-13 0 -73.5 -54t-60.5 -66z" />
    <glyph glyph-name="ograve" unicode="&#xf2;" horiz-adv-x="421" 
d="M421 49q-27 -10 -50 -9q-18 1 -27 1q-17 0 -35 12q-6 4 -40 33q-22 -50 -67.5 -81.5t-99.5 -31.5q-44 0 -72 25q-31 26 -31 69q0 69 63 114q53 38 103 38q5 0 13.5 -1.5t13.5 -1.5q-14 0 8.5 17.5t35.5 15.5q45 -6 45 -80q0 -16 -2 -36l-3 -21q22 -13 49 -36
q10 -9 35 -12t64 12zM256 137v58q1 8 -8 16.5t-17 8.5q-3 0 -6 -2q3 -14 11 -34l-6 -7q9 -27 26 -40zM243 100q0 7 -3 10l-3 2q-12 14 -37 65q-7 10 -19 10q-42 0 -87 -35q-48 -38 -50 -78q-2 -32 18 -50t53 -18q30 0 45 8q8 4 39 30q44 37 44 56zM298 281q0 -3 -5 -1
l-10 -8q-65 48 -131 99q-4 6 -4 16q0 14 17 14q13 0 73 -54t60 -66z" />
    <glyph glyph-name="ocircumflex" unicode="&#xf4;" horiz-adv-x="421" 
d="M421 49q-27 -10 -50 -9q-18 1 -27 1q-17 0 -35 12q-6 4 -40 33q-22 -50 -67.5 -81.5t-99.5 -31.5q-44 0 -72 25q-31 26 -31 69q0 69 63 114q53 38 103 38q5 0 13.5 -1.5t13.5 -1.5q-14 0 8.5 17.5t35.5 15.5q45 -6 45 -80q0 -16 -2 -36l-3 -21q22 -13 49 -36
q10 -9 35 -12t64 12zM256 137v58q1 8 -8 16.5t-17 8.5q-3 0 -6 -2q3 -14 11 -34l-6 -7q9 -27 26 -40zM243 100q0 7 -3 10l-3 2q-12 14 -37 65q-7 10 -19 10q-42 0 -87 -35q-48 -38 -50 -78q-2 -32 18 -50t53 -18q30 0 45 8q8 4 39 30q44 37 44 56zM216 367q11 -6 24 -18
q17 -16 24 -21q14 -11 21 -18q13 -12 14 -23l1 -13l-12 -7q-6 4 -10 8l-2 3q-15 11 -39 29q-17 18 -47 40l-1 1l-1 -1q-15 -5 -48 -34l-47 -42q-8 -7 -18 -3q-4 2 -7.5 9.5t-1.5 11.5q2 6 40.5 37.5t48.5 37.5q27 16 31 16q3 0 6 -1z" />
    <glyph glyph-name="odieresis" unicode="&#xf6;" horiz-adv-x="421" 
d="M421 49q-27 -10 -50 -9q-18 1 -27 1q-17 0 -35 12q-6 4 -40 33q-22 -50 -67.5 -81.5t-99.5 -31.5q-44 0 -72 25q-31 26 -31 69q0 69 63 114q53 38 103 38q5 0 13.5 -1.5t13.5 -1.5q-14 0 8.5 17.5t35.5 15.5q45 -6 45 -80q0 -16 -2 -36l-3 -21q22 -13 49 -36
q10 -9 35 -12t64 12zM256 137v58q1 8 -8 16.5t-17 8.5q-3 0 -6 -2q3 -14 11 -34l-6 -7q9 -27 26 -40zM243 100q0 7 -3 10l-3 2q-12 14 -37 65q-7 10 -19 10q-42 0 -87 -35q-48 -38 -50 -78q-2 -32 18 -50t53 -18q30 0 45 8q8 4 39 30q44 37 44 56zM121 309q0 33 32 33
t32 -33q0 -32 -32 -32t-32 32zM260 308q0 34 32 34t32 -34q0 -33 -32 -33t-32 33z" />
    <glyph glyph-name="otilde" unicode="&#xf5;" horiz-adv-x="421" 
d="M421 49q-27 -10 -50 -9q-18 1 -27 1q-17 0 -35 12q-6 4 -40 33q-22 -50 -67.5 -81.5t-99.5 -31.5q-44 0 -72 25q-31 26 -31 69q0 69 63 114q53 38 103 38q5 0 13.5 -1.5t13.5 -1.5q-14 0 8.5 17.5t35.5 15.5q45 -6 45 -80q0 -16 -2 -36l-3 -21q22 -13 49 -36
q10 -9 35 -12t64 12zM256 137v58q1 8 -8 16.5t-17 8.5q-3 0 -6 -2q3 -14 11 -34l-6 -7q9 -27 26 -40zM243 100q0 7 -3 10l-3 2q-12 14 -37 65q-7 10 -19 10q-42 0 -87 -35q-48 -38 -50 -78q-2 -32 18 -50t53 -18q30 0 45 8q8 4 39 30q44 37 44 56zM98 332q-5 -9 -9 -17
q-7 -10 -15 -11q-17 -2 -19 16q-3 27 18 32q26 24 63 28q9 0 35.5 -14t31.5 -21q47 -22 54 -22q8 4 25 8q14 11 24 32l27 -3l-4 -22q-3 -15 -28 -32.5t-42 -18.5q-13 -1 -46 12t-38 23q-13 6 -38 20q-12 -1 -39 -10z" />
    <glyph glyph-name="uacute" unicode="&#xfa;" horiz-adv-x="471" 
d="M470 47q-83 -48 -140 -47q-34 0 -54 39q-18 34 -14 69q-26 -23 -91 -77q-43 -34 -77 -34q-26 0 -40 23q-12 20 -11 47v26q-7 -8 -24 -29q-10 -11 -18 -17q-1 3 -1 9q0 7 1 16q92 110 122 152q4 2 16 0l3 -3l2 -1l1 -1q2 -2 2 -8l-30 -47t-30 -79q0 -37 33 -37
q35 0 100 61q21 19 85 91q24 27 34 34q5 0 14 1h11q9 0 10 -1q-76 -108 -76 -134q0 -25 9 -46q12 -28 34 -27q26 1 66 17q31 15 63 29v-26zM203 281q0 -3 6 -1l9 -8q65 48 132 99q3 6 3 16q0 14 -16 14q-13 0 -73.5 -54t-60.5 -66z" />
    <glyph glyph-name="ugrave" unicode="&#xf9;" horiz-adv-x="471" 
d="M470 47q-83 -48 -140 -47q-34 0 -54 39q-18 34 -14 69q-26 -23 -91 -77q-43 -34 -77 -34q-26 0 -40 23q-12 20 -11 47v26q-7 -8 -24 -29q-10 -11 -18 -17q-1 3 -1 9q0 7 1 16q92 110 122 152q4 2 16 0l3 -3l2 -1l1 -1q2 -2 2 -8l-30 -47t-30 -79q0 -37 33 -37
q35 0 100 61q21 19 85 91q24 27 34 34q5 0 14 1h11q9 0 10 -1q-76 -108 -76 -134q0 -25 9 -46q12 -28 34 -27q26 1 66 17q31 15 63 29v-26zM318 281q0 -3 -5 -1l-10 -8q-65 48 -131 99q-4 6 -4 16q0 14 17 14q13 0 73 -54t60 -66z" />
    <glyph glyph-name="ucircumflex" unicode="&#xfb;" horiz-adv-x="471" 
d="M470 47q-83 -48 -140 -47q-34 0 -54 39q-18 34 -14 69q-26 -23 -91 -77q-43 -34 -77 -34q-26 0 -40 23q-12 20 -11 47v26q-7 -8 -24 -29q-10 -11 -18 -17q-1 3 -1 9q0 7 1 16q92 110 122 152q4 2 16 0l3 -3l2 -1l1 -1q2 -2 2 -8l-30 -47t-30 -79q0 -37 33 -37
q35 0 100 61q21 19 85 91q24 27 34 34q5 0 14 1h11q9 0 10 -1q-76 -108 -76 -134q0 -25 9 -46q12 -28 34 -27q26 1 66 17q31 15 63 29v-26zM286 367q11 -6 24 -18q17 -16 24 -21q14 -11 21 -18q13 -12 14 -23l1 -13l-12 -7q-6 4 -10 8l-2 3q-15 11 -39 29q-17 18 -47 40
l-1 1l-1 -1q-15 -5 -48 -34l-47 -42q-8 -7 -18 -3q-4 2 -7.5 9.5t-1.5 11.5q2 6 40.5 37.5t48.5 37.5q27 16 31 16q3 0 6 -1z" />
    <glyph glyph-name="udieresis" unicode="&#xfc;" horiz-adv-x="471" 
d="M470 47q-83 -48 -140 -47q-34 0 -54 39q-18 34 -14 69q-26 -23 -91 -77q-43 -34 -77 -34q-26 0 -40 23q-12 20 -11 47v26q-7 -8 -24 -29q-10 -11 -18 -17q-1 3 -1 9q0 7 1 16q92 110 122 152q4 2 16 0l3 -3l2 -1l1 -1q2 -2 2 -8l-30 -47t-30 -79q0 -37 33 -37
q35 0 100 61q21 19 85 91q24 27 34 34q5 0 14 1h11q9 0 10 -1q-76 -108 -76 -134q0 -25 9 -46q12 -28 34 -27q26 1 66 17q31 15 63 29v-26zM161 309q0 33 32 33t32 -33q0 -32 -32 -32t-32 32zM300 308q0 34 32 34t32 -34q0 -33 -32 -33t-32 33z" />
    <glyph glyph-name="dagger" unicode="&#x2020;" horiz-adv-x="781" 
d="M786 74l-1 -27q-26 -17 -83 -34q-69 -21 -127 -21q-46 0 -46 48q0 12 3 35q7 25 21 69l15 33q-35 -33 -105 -100q-82 -78 -105 -85q-17 5 -9 33q26 86 64 162l3 11q-57 -70 -133 -130q-96 -75 -162 -75q-90 0 -90 70q0 14 4 30q0 21 41 101l-5 -1q-7 -4 -42 -72
q-33 -64 -37 -76v30q11 32 56 121.5t62 111.5q-1 2 -4 2q-18 0 -66 -16q-13 -4 -16 -1q-2 2 4 13q1 2 35 38q23 10 68 13q21 48 37 81q37 76 58 76q11 0 11 -26q0 -22 -13 -68q-13 -50 -25 -62q43 3 127 -11q100 -17 130 -17q24 76 75 168q11 20 33 44q28 33 41 27
q15 -2 19 -9l8 -26q0 -48 -38 -107q-9 -14 -66 -97q8 -2 51 -2q16 0 53.5 10t55.5 10q24 0 24 -17q-6 -9 -29 -11l-10 -2q-19 -4 -161 -19q-21 -29 -76 -98q-34 -77 -35 -119l10 -5q25 8 86.5 71.5t95.5 80.5l15 -14l2 -7q0 -3 -26 -62t-29 -79q-1 -37 33 -37q4 0 12.5 1
t12.5 1q59 0 173 42zM592 480q0 17 -12 19q-18 0 -61 -73.5t-43 -95.5h30q7 0 46.5 67.5t39.5 82.5zM206 456q-5 -2 -27 -44t-25 -54h24q6 0 14 34q13 37 13 39q0 26 1 25zM444 286q-21 -2 -31 -2q-7 0 -8 1q-35 0 -103 11q-72 12 -105 13q-12 -1 -25 -1q-23 -34 -68 -104
q-40 -65 -40 -110l4 -17q12 -20 16 -24q11 -10 26 -11q44 -2 102 21q101 51 204 160zM154 310l-25 -2q-13 -29 -35 -79l1 -10q22 35 59 91z" />
    <glyph glyph-name="degree" unicode="&#xb0;" horiz-adv-x="318" 
d="M158 448q-35 0 -58.5 25t-23.5 60q0 34 24 59t58 25t57.5 -25t23.5 -59q0 -35 -23 -60t-58 -25zM158 592q-24 0 -40.5 -17.5t-16.5 -41.5t16.5 -42t40.5 -18t40 18t16 42t-16 41.5t-40 17.5z" />
    <glyph glyph-name="cent" unicode="&#xa2;" horiz-adv-x="318" 
d="M138 178q16 38 61 168h-10q-46 1 -74 -38q-20 -28 -24 -56q-6 -47 47 -74zM108 53q-10 -4 -24 -2q-15 2 -15 12q0 3 1 6q5 10 18 27q15 12 33 45q-71 24 -71 93q0 60 51 105.5t111 41.5q32 91 48 93l5 -6q-2 -14 -28 -90q63 -13 61 -57q-1 -18 -15.5 -32.5t-32.5 -13.5
q-5 0 -14 11q0 6 5 16t5 14q0 18 -21 25q-34 -101 -61 -171q6 0 18 -2t18 -2q27 0 70 32q-1 -9 -4 -35q-3 -19 -45 -26q-30 -5 -58 -3q-4 0 -12 1q-10 -24 -13 -28q-24 -31 -30 -54z" />
    <glyph glyph-name="sterling" unicode="&#xa3;" horiz-adv-x="529" 
d="M500 533l-34 -31l-17 7l37 28zM325 -54q-42 0 -96 32q-44 30 -87 59q-59 -55 -122 -55q-31 0 -31 20q0 31 59 46q40 11 86 11q39 36 72 166q-51 -6 -62 -6q-29 0 -37 3q-13 6 -17 30q10 9 28 9q12 0 95 -7q29 114 30 119q22 61 70 101t93 40q28 0 48.5 -18t20.5 -46
q0 -30 -19 -59t-48 -29q-30 0 -30 38q0 21 15 43q15 18 29 36q-6 3 -18 3q-45 0 -78 -44q-25 -33 -46 -96q-15 -45 -29 -91h11q19 -1 54 7t51 8q13 0 13 -11q0 -20 -61 -26l-76 -2q-40 -106 -84 -168q30 -7 95 -48q57 -36 97 -36q36 0 61.5 21t25.5 56q0 53 -56 53
q-25 0 -53 -18q-23 -18 -46 -35l-7 8q46 64 109 64q32 0 53 -19t21 -50q0 -53 -42 -83q-37 -26 -92 -26zM454 433q0 32 -17 32q-12 0 -24 -22.5t-12 -37.5q0 -18 18 -18q12 0 23.5 16.5t11.5 29.5zM117 39q-29 0 -58 -6q-40 -9 -44 -26q2 -6 12 -6q26 0 102 39q-2 -1 -12 -1
z" />
    <glyph glyph-name="bullet" unicode="&#x2022;" horiz-adv-x="390" 
d="M139 383q0 32 22 55.5t54 23.5q33 0 54.5 -23t21.5 -56t-21.5 -56t-54.5 -23q-32 0 -54 23.5t-22 55.5z" />
    <glyph glyph-name="paragraph" unicode="&#xb6;" horiz-adv-x="483" 
d="M248 -26l-28 1v340q-182 0 -185 171q-2 86 49.5 137.5t136.5 51.5q13 0 26 -1zM291 -26l53 1l-1 678q28 -1 49 -1q20 0 34 1l-1 21l-133 1zM218 338v306q-8 2 -13 1q-70 -3 -107 -52q-33 -44 -33 -117q0 -65 45 -103q41 -35 108 -35z" />
    <glyph glyph-name="germandbls" unicode="&#xdf;" horiz-adv-x="548" 
d="M333 616q-5 20 -11 20q-4 0 -11 -4q-35 -15 -52.5 -46.5t-39.5 -103.5q-24 -81 -37 -110q126 104 153 212q1 5 1 10q0 9 -3 22zM363 133q47 -8 65 -19q29 -18 29 -56q0 -90 -104.5 -194t-194.5 -104l-7 16l14 22q76 13 160 93q88 83 88 156q0 33 -27 46q-5 2 -52 12
q-28 6 -28 22q0 12 40 32q56 28 75 42q40 30 40 67q0 42 -37 42q-59 0 -182 -77q-128 -81 -145 -132q-26 -83 -78 -250q-68 -211 -112 -211q-20 0 -20 27q0 57 70 216q57 129 100 204q20 35 38 114q18 83 35 116l-95 -47v25q0 7 114 55l34 125q25 88 56 137q42 65 97 63
q37 -2 37 -58q0 -134 -206 -285q-29 -81 -50 -157q176 168 315 168q74 0 74 -77q0 -93 -143 -133z" />
    <glyph glyph-name="registered" unicode="&#xae;" horiz-adv-x="452" 
d="M208 668q68 0 115 -49t47 -118q0 -68 -48 -115.5t-116 -47.5q-69 0 -116.5 48.5t-47.5 117.5q0 68 49 116t117 48zM60 504q0 -61 43 -105t103 -44t103.5 43t43.5 103q0 61 -42 105t-103 44t-104.5 -42.5t-43.5 -103.5zM178 498v-54q0 -19 7 -23q4 -3 25 -3v-10h-96v10
q20 0 25.5 3.5t5.5 22.5v117q0 19 -5.5 22.5t-25.5 3.5v10h70q101 0 103 -46q1 -37 -65 -50q28 -8 40 -30q5 -9 10 -36q3 -17 12 -17q16 0 16 34h11q0 -49 -40 -49q-27 0 -33 25l-6 45q-6 25 -31 25h-23zM248 552q0 28 -32 28l-36 -4q-2 -1 -2 -14v-52h19q51 0 51 42z" />
    <glyph glyph-name="copyright" unicode="&#xa9;" horiz-adv-x="864" 
d="M602 229q-72 -110 -178 -110q-82 0 -138 67q-53 64 -53 148q0 82 57 147t138 65q39 0 105 -31q13 -6 19 -6q22 0 24 31h9v-160h-8q-4 64 -40 105.5t-99 41.5q-69 0 -116 -66q-42 -59 -42 -131t51 -129t123 -57q68 0 134 93zM434 -12q-142 0 -240 100.5t-98 243.5
q0 141 101.5 239.5t242.5 98.5q142 0 239 -101t97 -243q0 -141 -100 -239.5t-242 -98.5zM440 640q-130 0 -222 -89.5t-92 -218.5q0 -130 89.5 -222.5t218.5 -92.5q130 0 222.5 89.5t92.5 219.5q0 129 -90 221.5t-219 92.5z" />
    <glyph glyph-name="trademark" unicode="&#x2122;" horiz-adv-x="441" 
d="M97 656v-183h-32v183h-51v19h136v-19h-53zM358 624q-34 -68 -52 -102h-22l-54 102v-151h-28v202h27l66 -124q22 42 63 126v-2l28 2l1 -203l-29 -1v151z" />
    <glyph glyph-name="acute" unicode="&#xb4;" horiz-adv-x="309" 
d="M63 281q0 -3 6 -1l9 -8q65 48 132 99q3 6 3 16q0 14 -16 14q-13 0 -73.5 -54t-60.5 -66z" />
    <glyph glyph-name="dieresis" unicode="&#xa8;" horiz-adv-x="421" 
d="M121 309q0 33 32 33t32 -33q0 -32 -32 -32t-32 32zM260 308q0 34 32 34t32 -34q0 -33 -32 -33t-32 33z" />
    <glyph glyph-name="AE" unicode="&#xc6;" horiz-adv-x="1227" 
d="M1093 684q2 5 -5 6q-6 1 -7 -2q-12 0 -38 -12t-37 -21l-33 -28q14 1 57 19q48 20 63 38zM501 5l65 180l-20 -20q-49 -65 -150 -123q-107 -61 -182 -61h-33q-8 0 -37 7q-66 16 -105 58q-42 45 -42 111q0 114 107 237q33 38 90 94q244 200 461 200q17 0 39.5 -17.5
t22.5 -34.5q0 -12 -14 -34q-19 -30 -70 -51q-47 -20 -86 -20q-48 0 -103 18l5 8q11 1 27 1q10 0 30.5 -1t30.5 -1q30 0 75 20q51 23 51 48q0 28 -49 28q-214 0 -422 -217q-133 -139 -133 -257q0 -82 74 -124q33 -18 44 -20.5t50 -2.5q59 0 144 38q10 5 61 43q24 17 73 53
q44 34 53 67q37 131 57 181q36 89 100 162l18 5q0 -7 2.5 -19.5t2.5 -19.5q0 -53 -44 -152q85 52 255 72q5 -1 9 -1t6 1q-50 32 -50 80q0 24 12 52q-85 -6 -187 77q0 1 3 8t3 9q10 -6 75 -46q47 -29 87 -29q16 0 24 2q27 32 74 64q55 37 89 37q29 0 29 -17q0 -52 -166 -101
q-9 -38 -9 -47q0 -89 114 -89q3 0 1 1t0 1q34 0 41 -6q4 -4 4 -15q0 -5 -2.5 -10l-2.5 -5q-29 3 -57 4q-15 0 -50 -1l-26 -1q-16 0 -43 -6q-34 -8 -43 -9q-94 -12 -155 -50q-80 -50 -80 -133q0 -40 16 -81q31 -77 140 -117q83 -30 174 -30h31q36 0 76 17q52 22 52 57
q0 56 -90 81q-57 16 -117 16h-43q-33 -3 -69 -19l-15 -16q22 -13 29 -14h50l8 -26l-49 -1q-22 0 -52 10q-35 12 -35 32q0 40 85 56q43 8 89 8q79 0 146 -23q101 -34 101 -106q0 -46 -72 -77q-57 -25 -101 -25h-11q-124 0 -233 46q-132 56 -158 153q-19 -46 -53 -159z
M711 531q-58 -81 -93 -217q9 16 22 30q60 113 71 187z" />
    <glyph glyph-name="Oslash" unicode="&#xd8;" horiz-adv-x="731" 
d="M676 649l-193 -201q53 -98 133 -120v-10l-25 -4q-71 20 -136 104l-325 -337q63 -61 167 -61q185 0 304 174q106 155 106 348q0 6 -3.5 13l-3.5 7q-7 45 -24 87zM469 475l194 202q-51 94 -129 94q-41 0 -70 -33q-26 -29 -32 -72q9 4 47 4q52 0 94 -15q7 -5 7 -13l-7 -8
q-71 9 -87 9q-37 0 -55 -9q1 -76 38 -159zM112 102l326 340q-64 96 -56 187q-84 -22 -165 -86q-93 -73 -117 -156q-8 -14 -19 -40q-19 -59 -19 -86q0 -95 50 -159zM1 -13l56 57l-2 3q-26 29 -42 87q-13 49 -13 96q0 114 85 236q93 134 225 169q40 11 76 29q3 56 47.5 99
t100.5 43q94 0 154 -103l67 70l18 -24l-71 -74q32 -67 32 -183q0 -156 -95 -302q-108 -166 -280 -212q-60 -16 -74 -16h-40q-91 0 -168 64l-58 -60z" />
    <glyph glyph-name="infinity" unicode="&#x221e;" 
 />
    <glyph glyph-name="plusminus" unicode="&#xb1;" 
 />
    <glyph glyph-name="lessequal" unicode="&#x2264;" 
 />
    <glyph glyph-name="greaterequal" unicode="&#x2265;" 
 />
    <glyph glyph-name="yen" unicode="&#xa5;" horiz-adv-x="450" 
d="M227 541q-21 -15 -42 -42q-26 -32 -25 -52q33 33 43 45q24 29 24 49zM51 174h70q10 26 10 32t-10 85l1 106l-1 3t-5 3q-7 0 -42.5 -14.5t-42.5 -14.5h-13l-4 18q23 4 83 22q14 4 33 16q10 23 32 67q36 66 67 66q24 0 24 -20q0 -8 -16 -36q-15 -24 -23 -34
q-30 -25 -67 -57q-1 -1 1.5 -5.5t2.5 -5.5l3 -71q0 -10 11 -54q3 -14 10 -42l251 246q9 -9 9 -13q0 -3 -119.5 -115.5t-119.5 -126.5q0 -9 -20 -55h70v-15h-77l-16 -38h71v-15h-77q-43 -100 -41 -110q-8 -1 -17 -1q-18 2 -33 18q6 17 38 93h-65v15h71l15 38h-64v15z" />
    <glyph glyph-name="mu" unicode="&#xb5;" horiz-adv-x="456" 
d="M334 251l-140 -64q-14 -61 -48 -125q41 -10 101 -48q54 -35 91 -35q30 0 51 15.5t21 44.5q0 27 -18 44.5t-45 17.5q-25 0 -51 -19q-10 -11 -33 -28l-8 7q32 58 92 58q34 0 57.5 -23t23.5 -57q0 -86 -109 -86q-42 0 -97 33q-20 12 -89 56q-47 -51 -104 -51q-34 0 -34 26
q0 19 37 33q30 13 53 13q4 0 13 -1.5t13 -1.5h9q24 27 38 111l-104 -48q-3 -1 -5 -1q-11 0 -11 12q0 6 6 9l118 54q0 58 13 158q17 59 54 100q44 49 99 49q3 0 3 -1v0q0 -2 3 -2q6 0 32 36h10q4 -3 4 -9q0 -3 -24 -34q5 -4 14 -14q13 -18 13 -42q0 -27 -12 -47
q-14 -23 -39 -23q-17 0 -26.5 16t-9.5 34q0 42 27 68q-3 2 -15 2q-41 -6 -73 -73q-26 -55 -28.5 -105t-7.5 -96l125 58q3 1 5 1q11 0 11 -12q0 -7 -6 -10zM365 436q0 36 -23 39q-20 -25 -22 -39q1 5 1 -24q0 -20 22 -20t22 44zM107 44h-29q-23 0 -44 -9q-2 -1 -13 -12
q6 -11 18 -11q26 0 68 32z" />
    <glyph glyph-name="mu" unicode="&#x3bc;" horiz-adv-x="456" 
d="M334 251l-140 -64q-14 -61 -48 -125q41 -10 101 -48q54 -35 91 -35q30 0 51 15.5t21 44.5q0 27 -18 44.5t-45 17.5q-25 0 -51 -19q-10 -11 -33 -28l-8 7q32 58 92 58q34 0 57.5 -23t23.5 -57q0 -86 -109 -86q-42 0 -97 33q-20 12 -89 56q-47 -51 -104 -51q-34 0 -34 26
q0 19 37 33q30 13 53 13q4 0 13 -1.5t13 -1.5h9q24 27 38 111l-104 -48q-3 -1 -5 -1q-11 0 -11 12q0 6 6 9l118 54q0 58 13 158q17 59 54 100q44 49 99 49q3 0 3 -1v0q0 -2 3 -2q6 0 32 36h10q4 -3 4 -9q0 -3 -24 -34q5 -4 14 -14q13 -18 13 -42q0 -27 -12 -47
q-14 -23 -39 -23q-17 0 -26.5 16t-9.5 34q0 42 27 68q-3 2 -15 2q-41 -6 -73 -73q-26 -55 -28.5 -105t-7.5 -96l125 58q3 1 5 1q11 0 11 -12q0 -7 -6 -10zM365 436q0 36 -23 39q-20 -25 -22 -39q1 5 1 -24q0 -20 22 -20t22 44zM107 44h-29q-23 0 -44 -9q-2 -1 -13 -12
q6 -11 18 -11q26 0 68 32z" />
    <glyph glyph-name="partialdiff" unicode="&#x2202;" horiz-adv-x="355" 
d="M187 253l-108 -49q-7 -47 -7 -58q0 -25 5 -36q62 70 110 143zM86 240l130 59q96 165 97 304l-4 14q-2 7 -16 7q-37 0 -105 -126q-49 -90 -64 -136q-21 -61 -38 -122zM-21 191l60 28q26 128 107 277q90 165 154 165q49 0 49 -64q0 -41 -4 -57q-2 -88 -68 -213l47 22
q3 1 6 1q15 0 15 -15q0 -9 -9 -13l-84 -39q-20 -34 -44 -67q-12 -16 -71 -80q-46 -50 -46 -57q0 -20 33 -43q24 -17 43 -17h33q28 0 73 20l81 36v-26q-24 -22 -89 -45.5t-99 -23.5q-31 0 -62 22q-19 14 -42 41q-19 22 -22 22q-5 0 -21 -11t-20 -11v29q0 1 18 8.5t16 12.5
q-5 13 -3 42q3 44 3 35q0 6 1 13l-42 -19q-4 -2 -7 -2q-15 0 -15 16q0 9 9 13z" />
    <glyph glyph-name="summation" unicode="&#x2211;" horiz-adv-x="558" 
d="M559 626q0 -36 -27 -70t-62 -34q-14 0 -32.5 16.5t-23.5 30.5l-10 -19l-67 -151q0 -6 39 -30q112 -69 112 -183q0 -77 -43.5 -136t-116.5 -89q-56 -23 -112 -23q-57 0 -118 26q-11 -12 -30 -37.5t-30 -37.5l-18 5q2 3 33 41q25 31 22 37q-14 12 -41 38q-30 30 -30 78
q0 67 58 118q55 49 123 49q54 0 51 -6q55 101 55 108q0 -21 -25 19q-17 27 -33 58q-20 39 -20 78q0 116 115 183q66 38 124 38q4 0 12 17.5t10 19.5q17 -2 17 -18q0 -12 -7 -23q75 -43 75 -103zM531 632q0 15 -1 19q-4 9 -21 26.5t-24 17.5h-16q-6 -10 -19 -31
q-15 -25 -13 -49q1 -17 11 -34q11 -20 26 -20q25 0 42 24q15 21 15 47zM444 706q-3 0 -10 2.5t-11 2.5q-55 0 -111 -62.5t-56 -118.5q0 -32 18.5 -66.5t44.5 -53.5zM441 162q0 68 -45 107q-29 24 -88 72q-15 -32 -49 -95q29 -4 49 -33t20 -59q0 -59 -43 -83q-13 -7 -43 -18
t-41 -11q-15 0 -12 9q10 12 32 19q28 9 35 14q43 31 40 81q-1 11 -18 28.5t-28 17.5q-6 0 -32 -50q-10 -20 -30 -61q-11 -22 -74 -111q37 -17 123 -17q83 0 143.5 54t60.5 136zM224 218l-41 5q-50 0 -100.5 -43t-50.5 -92q0 -19 14.5 -46t30.5 -36l20 -11zM405 785
q-11 6 -24.5 19t-23.5 20q-16 12 -21 18q-13 12 -14 23l-1 14l12 6q6 -4 10 -8l2 -3q15 -10 39 -29q17 -17 46 -40l1 -1l2 1q15 5 48 34l47 42q8 7 18 3q4 -2 7.5 -9.5t1.5 -11.5q-3 -5 -41 -37t-48 -38q-27 -16 -31 -16q-3 0 -6 1z" />
    <glyph glyph-name="product" unicode="&#x220f;" horiz-adv-x="418" 
d="M418 51q-10 -8 -29 -22q-13 -8 -41 -20q-59 -18 -147 -18h-17q-40 0 -77 17q-42 19 -55 52q-2 5 4.5 14t11.5 9q2 0 2 -2q19 -38 72 -53q24 -7 39 -7q25 0 47.5 14t22.5 37q0 51 -72 82l-97 30q-27 -83 -43 -105q-7 -12 -42 -35v30l23 31q23 31 29 61q5 16 19 67
q4 10 11 10q8 0 9 -12q19 -17 78 -36q33 -10 90 -35q43 -26 43 -67q0 -20 -10 -45l-25 -27q2 -3 39 2q21 3 94 38q16 19 21 19v-29zM150 279q-10 5 -24 18q-10 9 -23 21q-16 13 -22 18q-13 13 -14 23l-1 14l12 6q6 -4 10 -8l2 -3q15 -10 40 -29q16 -17 46 -40l1 -1l1 1
q17 5 49 34q15 14 46 42q8 7 18 3q4 -2 7.5 -9.5t1.5 -11.5q-2 -6 -40 -37.5t-48 -37.5q-27 -16 -32 -16q-3 0 -6 1z" />
    <glyph glyph-name="pi" unicode="&#x3c0;" horiz-adv-x="742" 
d="M754 629q-6 -15 -35 -87q-40 -100 -86 -276q-34 -131 -30 -139q35 36 103 104q6 -7 6 -17q0 -16 -60 -73q-51 -49 -65 -56q-5 -14 -8 -33q-12 -95 -95 -231q-95 -156 -175 -156q-18 0 -31 20q-11 17 -11 36q0 77 94 179l174 183q8 10 28 76l48 155l81 244
q-18 -13 -49 -46q-46 -49 -55 -57q-23 -19 -68 -57.5t-59 -69.5l-79 -166q-44 -74 -107 -99h-28q-5 6 -5 23q0 34 38 89q30 44 60 72q54 51 72 84q23 42 23 107q0 102 -23 149q-32 66 -119 66q-104 0 -188 -133q-73 -116 -73 -210q0 -100 91 -100q59 0 108 91q40 75 40 125
q0 65 -8 92l10 10h14q10 -24 10 -95q0 -68 -28 -132q-39 -89 -116 -122q-26 -11 -39 -11q-60 0 -90 61q-21 42 -21 90q0 38 12 78q23 78 47 121q31 56 84 101q85 73 172 73q69 0 102 -32q54 -53 63 -129q0 -71 1 -141l259 256q11 -11 11 -17zM405 276q-128 -136 -130 -186
q44 25 79 82q8 14 51 104zM528 26q-227 -199 -227 -299q0 -29 14 -29q31 0 89 85q37 53 54 88q37 73 70 155zM543 691q0 -3 6 -1l9 -8q65 48 132 99q3 6 3 16q0 14 -16 14q-13 0 -73.5 -54t-60.5 -66z" />
    <glyph glyph-name="integral" unicode="&#x222b;" horiz-adv-x="488" 
d="M488 42q-67 -40 -248 -160q-75 -267 -218 -267q-29 0 -37 4q-17 9 -16 40q1 40 47 103q34 47 57 66q31 26 128 82q4 2 11 29q6 21 14 46q11 35 43 126q4 4 4 9q0 3 -1 6q-47 -48 -74 -68q-48 -35 -92 -35q-47 0 -47 56q0 13 3 24q-4 5 -21 -27q-13 -13 -41 -31v29
q31 20 64 82q36 66 52 79l23 -2q-4 -12 -29 -60q-20 -36 -20 -65q0 -45 41 -45q34 0 92 56q69 66 87 121l6 26q6 17 28 28h19q10 -11 10 -18q0 -6 -18 -43q-15 -31 -38 -81q-11 -26 -34 -96q-26 -78 -26 -91l-9 -37q7 7 209 125l32 24zM195 -128q-40 -21 -108 -82
q-82 -74 -82 -113q0 -27 25 -27q17 0 41 15q40 25 101 157q10 15 23 50zM203 311q0 -3 6 -1l9 -8q65 48 132 99q3 6 3 16q0 14 -16 14q-13 0 -73.5 -54t-60.5 -66z" />
    <glyph glyph-name="ordfeminine" unicode="&#xaa;" horiz-adv-x="437" 
d="M439 566q0 -65 -56 -148q-52 -78 -112 -113q-4 -5 -12 -14q34 -38 34 -70q0 -6 -2.5 -17.5t-2.5 -16.5v-24q15 7 44 22q38 18 40 16v-20l-48 -26q-30 -17 -43 -33q-5 -5 -14.5 -29t-13.5 -33q-42 -88 -80 -143q-31 -45 -79 -93q-61 -61 -112 -90q-46 -15 -63 -15
q-7 0 -22 4t-22 4q-14 0 -26 31q-9 22 -9 34q0 129 252 266q43 23 130 69q11 6 18 38q7 27 7 45q0 32 -12 59q-109 -64 -146 -64q-31 0 -31 24q0 37 56 66q46 24 70 24q6 0 26 -6.5t26 -6.5q4 0 50 48q95 100 95 221q0 34 -23 68.5t-55 42.5q-8 2 -33 2q-91 0 -162 -105
q-60 -89 -68 -180q-20 0 -20 14q0 4 7 23.5t8 27.5q11 103 78 181q73 85 173 85q74 0 115 -48q38 -45 38 -120zM200 288q-1 0 -8.5 3t-12.5 3q-20 0 -66 -27q-16 -9 -21 -31q45 -6 108 52zM208 92q-15 -4 -91 -49q-244 -144 -244 -244q0 -17 12.5 -31.5t29.5 -14.5
q59 0 139 88q54 59 103.5 141t50.5 110zM315 785q-11 6 -24.5 19t-23.5 20q-16 12 -21 18q-13 12 -14 23l-1 14l12 6q6 -4 10 -8l2 -3q15 -10 39 -29q17 -17 46 -40l1 -1l2 1q15 5 48 34l47 42q8 7 18 3q4 -2 7.5 -9.5t1.5 -11.5q-3 -5 -41 -37t-48 -38q-27 -16 -31 -16
q-3 0 -6 1z" />
    <glyph glyph-name="ordmasculine" unicode="&#xba;" horiz-adv-x="501" 
d="M502 48q-18 -19 -79 -48.5t-86 -29.5q-44 0 -114 24t-96 24q-5 0 -42 -15t-51 -15q-7 0 -8 4q3 22 68 74l130 102q0 1 -8 -1.5t-9 -1.5q-11 0 -34.5 5t-34.5 5q-22 0 -71 -59q-54 -65 -67 -71v29q0 7 15 16q13 14 102 134q10 14 21 14q5 0 18 -12t16 -14q20 -10 53 -10
q2 0 110 12q-75 -54 -212 -163q43 -1 112 -25.5t78 -24.5q10 0 29 2.5t29 2.5q16 0 66 28t64 42zM230 279q-10 5 -24 18q-10 9 -23 21q-16 13 -22 18q-13 13 -14 23l-1 14l12 6q6 -4 10 -8l2 -3q15 -10 40 -29q16 -17 46 -40l1 -1l1 1q17 5 49 34q15 14 46 42q8 7 18 3
q4 -2 7.5 -9.5t1.5 -11.5q-2 -6 -40 -37.5t-48 -37.5q-27 -16 -32 -16q-3 0 -6 1z" />
    <glyph glyph-name="Omega" unicode="&#x3a9;" horiz-adv-x="576" 
d="M430 294q-11 -9 -234 -12q-12 -22 -20 -44q108 -9 178 -1q16 2 29 -6t2 -18t-219 -12q-23 -120 81 -173q35 -18 76 -19q43 -1 100 27q10 5 24 22q19 23 21 25q7 7 14 7q11 0 16 -19q-24 -48 -72.5 -74.5t-102.5 -24.5l-25 1q-9 0 -29 5q-117 28 -144 129q-12 45 0 96
q-47 6 -66 29l-16 19l3 12q47 -16 91 -21q8 20 20 39h-12q-71 3 -98 33l-19 21l5 12q11 -4 40 -12q33 -8 108 -15q12 19 25 32q143 147 306 144q13 0 33.5 -13.5t23.5 -25.5q9 -38 -46 -64q-30 -14 -60 -13q-37 1 -81 15l2 5q11 1 20 1q13 -1 46 -2q21 -1 51 13q35 17 30 36
q-5 21 -42 22q-156 3 -269 -152q107 -6 174 1q18 2 33.5 -6.5t2.5 -18.5z" />
    <glyph glyph-name="Omega" unicode="&#x2126;" horiz-adv-x="576" 
d="M430 294q-11 -9 -234 -12q-12 -22 -20 -44q108 -9 178 -1q16 2 29 -6t2 -18t-219 -12q-23 -120 81 -173q35 -18 76 -19q43 -1 100 27q10 5 24 22q19 23 21 25q7 7 14 7q11 0 16 -19q-24 -48 -72.5 -74.5t-102.5 -24.5l-25 1q-9 0 -29 5q-117 28 -144 129q-12 45 0 96
q-47 6 -66 29l-16 19l3 12q47 -16 91 -21q8 20 20 39h-12q-71 3 -98 33l-19 21l5 12q11 -4 40 -12q33 -8 108 -15q12 19 25 32q143 147 306 144q13 0 33.5 -13.5t23.5 -25.5q9 -38 -46 -64q-30 -14 -60 -13q-37 1 -81 15l2 5q11 1 20 1q13 -1 46 -2q21 -1 51 13q35 17 30 36
q-5 21 -42 22q-156 3 -269 -152q107 -6 174 1q18 2 33.5 -6.5t2.5 -18.5z" />
    <glyph glyph-name="ae" unicode="&#xe6;" horiz-adv-x="609" 
d="M293 195q-18 7 -76 7q-38 0 -100 -33q-73 -39 -73 -82q0 -26 25 -42q22 -15 49 -15q22 0 50 13q14 7 43 21q35 26 47 53q9 23 35 78zM609 49q-19 -38 -99 -52q-59 -11 -119 -7q-8 3 -32 11q-30 10 -44 24q-20 19 -27 63q-10 -15 -68 -56q-22 -15 -63.5 -26.5t-70.5 -11.5
q-35 0 -46 3q-26 7 -44 35q-7 11 -7 30q0 51 29 79q58 57 119 75q53 16 194 22q6 -6 6 -18q0 -6 -12 -45q23 36 61.5 58.5t79.5 22.5q22 0 22 -30q0 -12 -2 -19q-9 -32 -64 -80q-51 -45 -87 -60q1 -5 20 -22q28 -24 45 -25q43 -2 47 -2q56 0 89 11q41 14 73 50q-1 -3 -1 -10
q0 -8 1 -20zM452 200q2 7 2 14q0 14 -12 14q-2 0 -7 -2q-23 -10 -60 -43t-43 -53q-7 -23 -6 -36q54 32 58 34q59 41 68 72z" />
    <glyph glyph-name="oslash" unicode="&#xf8;" horiz-adv-x="421" 
d="M421 49q-27 -10 -50 -9q-18 1 -27 1q-17 0 -35 12q-6 4 -40 33q-22 -50 -67.5 -81.5t-99.5 -31.5q-53 0 -82 35l-30 -23l-13 16l32 24q-10 19 -10 42q0 69 63 114q53 38 103 38q5 0 13.5 -1.5t13.5 -1.5q-14 0 8.5 17.5t35.5 15.5q22 -3 33 -22l28 22l12 -16l-32 -25
q4 -17 4 -40q0 -16 -2 -36l-3 -20q22 -13 49 -36q10 -9 35 -12t64 12zM248 211q-8 8 -16 8q-4 0 -7 -1q5 -8 7 -20zM256 137v55l-24 -19q10 -25 24 -36zM201 174l-1 3q-7 10 -19 10q-41 0 -88 -36.5t-49 -76.5q0 -9 2 -20zM243 100q0 7 -3 10l-3 2q-16 19 -27 44l-156 -122
q18 -28 61 -28q30 0 45 8q8 4 39 30q44 37 44 56z" />
    <glyph glyph-name="questiondown" unicode="&#xbf;" horiz-adv-x="343" 
d="M18 -116q-1 23 16 54t37 46q31 22 93 67q67 51 99 109q1 -2 2 -3q2 1 5 2q0 -1 1 -2q-16 -44 -116 -151q-87 -93 -84 -145q2 -52 54 -49q34 2 61 32t25 64q-2 28 -24 27q-23 -1 -34.5 -21t-11.5 -44q0 -13 3 -21q-4 -4 -13 -8q-8 7 -9 22q-1 27 15 55q18 33 43 34
q46 2 48 -46q2 -40 -34.5 -77.5t-76.5 -39.5q-37 -2 -67 27.5t-32 67.5zM317 282q24 1 26 -32q1 -22 -16.5 -41.5t-39.5 -20.5q-23 -1 -25 32q-1 21 16.5 41t38.5 21z" />
    <glyph glyph-name="exclamdown" unicode="&#xa1;" horiz-adv-x="281" 
d="M10 -161l199 329q4 6 9 8q8 2 10 -6q2 -4 -1 -11l-150 -323q-21 -45 -48 -45q-22 0 -22 29q0 9 3 19zM245 201q-23 0 -29 21q-5 20 11.5 37t36.5 17q18 0 23 -19q4 -16 -10.5 -36t-31.5 -20z" />
    <glyph glyph-name="logicalnot" unicode="&#xac;" 
 />
    <glyph glyph-name="radical" unicode="&#x221a;" 
 />
    <glyph glyph-name="florin" unicode="&#x192;" 
 />
    <glyph glyph-name="approxequal" unicode="&#x2248;" 
 />
    <glyph glyph-name="approxequal" unicode="&#x22f2;" 
 />
    <glyph glyph-name="Delta" unicode="&#x394;" 
 />
    <glyph glyph-name="Delta" unicode="&#x2206;" 
 />
    <glyph glyph-name="guillemotleft" unicode="&#xab;" horiz-adv-x="357" 
d="M199 356q8 9 78 63q9 8 27.5 22t31.5 12l16 -3l4 -16q-7 -6 -13 -9l-4 -2q-9 -4 -66 -45q-41 -29 -55 -48l-1 -1v-1q0 -24 56 -145q7 -16 0 -24q-9 -10 -19 -1q-6 5 -35 63.5t-33 71.5q-10 34 3 50zM69 356q8 9 78 63q9 8 27.5 22t31.5 12l16 -3l4 -16q-7 -6 -13 -9
l-4 -2q-9 -4 -66 -45q-41 -29 -55 -48l-1 -1v-1q0 -24 56 -145q7 -16 0 -24q-9 -10 -19 -1q-6 5 -35 63.5t-33 71.5q-10 34 3 50z" />
    <glyph glyph-name="guillemotright" unicode="&#xbb;" horiz-adv-x="357" 
d="M212 255q-8 -10 -77 -63q-9 -8 -27.5 -22t-31.5 -12l-16 3l-4 16q8 7 12 9l4 2q19 9 67 44q38 27 55 49l1 1v1q0 22 -23 73l-33 72q-7 15 -1 23q9 11 20 2q5 -4 34.5 -63.5t33.5 -71.5q10 -34 -3 -50zM342 255q-8 -10 -77 -63q-9 -8 -27.5 -22t-31.5 -12l-16 3l-4 16
q8 7 12 9l4 2q19 9 67 44q38 27 55 49l1 1v1q0 22 -23 73l-33 72q-7 15 -1 23q9 11 20 2q5 -4 34.5 -63.5t33.5 -71.5q10 -34 -3 -50z" />
    <glyph glyph-name="ellipsis" unicode="&#x2026;" horiz-adv-x="507" 
d="M407 -3q-13 0 -13 15q0 18 19.5 38.5t37.5 20.5q15 0 15 -15q0 -21 -19 -40t-40 -19zM87 -3q-13 0 -13 15q0 18 19.5 38.5t37.5 20.5q15 0 15 -15q0 -21 -19 -40t-40 -19zM247 -3q-13 0 -13 15q0 18 19.5 38.5t37.5 20.5q15 0 15 -15q0 -21 -19 -40t-40 -19z" />
    <glyph glyph-name="nonbreakingspace" unicode="&#xa0;" horiz-adv-x="256" 
 />
    <glyph glyph-name="Agrave" unicode="&#xc0;" horiz-adv-x="843" 
d="M804 122q0 -44 -39 -91q-40 -50 -83 -50q-24 0 -43 10q-59 31 -73 79l-14 106l-5 -1q-49 -65 -150 -127q-109 -67 -183 -67h-33q-8 0 -37 7q-66 16 -105 58q-42 45 -42 111q0 114 107 237q33 38 90 94q244 200 461 200q17 0 39.5 -17.5t22.5 -34.5q0 -12 -14 -34
q-19 -30 -70 -51q-47 -20 -86 -20q-48 0 -103 18l5 8q11 1 27 1q10 0 30.5 -1t30.5 -1q30 0 75 20q51 23 51 48q0 28 -49 28q-214 0 -422 -217q-133 -139 -133 -257q0 -82 74 -124q33 -18 44 -20.5t50 -2.5q59 0 144 38q10 5 61 43q24 17 73 53q44 34 53 67q37 131 57 181
q36 89 100 162l18 5q0 -7 2.5 -19.5t2.5 -19.5q0 -40 -32 -122q-29 -75 -57 -114q-30 -42 -33 -47q-15 -27 -15 -55q0 -184 85 -184q43 0 67 31q22 28 22 72q0 40 -20 71l-46 58v15q35 -8 65 -57t30 -87zM711 531q-62 -86 -96 -231q82 138 96 231zM738 721q0 -3 -5 -1
l-10 -8q-65 48 -131 99q-4 6 -4 16q0 14 17 14q13 0 73 -54t60 -66z" />
    <glyph glyph-name="Atilde" unicode="&#xc3;" horiz-adv-x="843" 
d="M804 122q0 -44 -39 -91q-40 -50 -83 -50q-24 0 -43 10q-59 31 -73 79l-14 106l-5 -1q-49 -65 -150 -127q-109 -67 -183 -67h-33q-8 0 -37 7q-66 16 -105 58q-42 45 -42 111q0 114 107 237q33 38 90 94q244 200 461 200q17 0 39.5 -17.5t22.5 -34.5q0 -12 -14 -34
q-19 -30 -70 -51q-47 -20 -86 -20q-48 0 -103 18l5 8q11 1 27 1q10 0 30.5 -1t30.5 -1q30 0 75 20q51 23 51 48q0 28 -49 28q-214 0 -422 -217q-133 -139 -133 -257q0 -82 74 -124q33 -18 44 -20.5t50 -2.5q59 0 144 38q10 5 61 43q24 17 73 53q44 34 53 67q37 131 57 181
q36 89 100 162l18 5q0 -7 2.5 -19.5t2.5 -19.5q0 -40 -32 -122q-29 -75 -57 -114q-30 -42 -33 -47q-15 -27 -15 -55q0 -184 85 -184q43 0 67 31q22 28 22 72q0 40 -20 71l-46 58v15q35 -8 65 -57t30 -87zM711 531q-62 -86 -96 -231q82 138 96 231zM548 782q-5 -9 -9 -17
q-7 -10 -15 -11q-17 -2 -19 16q-3 27 18 32q26 24 63 28q9 0 35.5 -14t31.5 -21q47 -22 54 -22q8 4 25 8q14 11 24 32l27 -3l-4 -22q-3 -15 -28 -32.5t-42 -18.5q-13 -1 -46 12t-38 23q-13 6 -38 20q-12 -1 -39 -10z" />
    <glyph glyph-name="Otilde" unicode="&#xd5;" horiz-adv-x="731" 
d="M734 492q0 -156 -95 -302q-108 -166 -280 -212q-60 -16 -74 -16h-40q-48 0 -103.5 24.5t-86.5 60.5q-26 30 -41 87q-14 50 -14 96q0 114 85 236q93 134 225 169q40 11 76 29q3 56 47.5 99t100.5 43q70 0 123 -61q42 -48 66 -125q11 -36 11 -128zM707 542q0 6 -3.5 13
l-3.5 7q-11 77 -50 136q-48 73 -116 73q-41 0 -70 -33q-26 -29 -32 -72q9 4 47 4q52 0 94 -15q7 -5 7 -13l-7 -8q-71 9 -87 9q-37 0 -55 -9q1 -87 46 -176q54 -106 139 -130v-10l-25 -4q-81 23 -145.5 115.5t-64.5 177.5q0 11 1 22q-84 -22 -165 -86q-93 -73 -117 -156
q-8 -14 -19 -40q-19 -59 -19 -86q0 -110 62.5 -175.5t172.5 -65.5q185 0 304 174q106 155 106 348zM478 862q-5 -9 -9 -17q-7 -10 -15 -11q-17 -2 -19 16q-3 27 18 32q26 24 63 28q9 0 35.5 -14t31.5 -21q47 -22 54 -22q8 4 25 8q14 11 24 32l27 -3l-4 -22q-3 -15 -28 -32.5
t-42 -18.5q-13 -1 -46 12t-38 23q-13 6 -38 20q-12 -1 -39 -10z" />
    <glyph glyph-name="OE" unicode="&#x152;" horiz-adv-x="1261" 
d="M675 646q-48 125 -141 125q-41 0 -70 -33q-26 -29 -32 -72q16 5 92 5q55 0 151 -25zM639 260q7 40 31 72q32 90 32 207q0 15 -2 23q-9 35 -16 55q-100 27 -156 27q-75 0 -97 -10q1 -92 50 -182q55 -101 135 -124v-10l-25 -4q-87 24 -152 124t-57 191q-93 -24 -170 -88
q-80 -68 -112 -154q-9 -20 -25 -61q-13 -33 -13 -65q0 -110 63 -175.5t172 -65.5q113 0 205 69q83 62 137 171zM1133 687q-1 2 -6 2q-42 0 -114 -62q18 1 67 24q53 24 53 36zM639 189q-69 -103 -169 -163q-107 -64 -225 -64q-47 0 -104 25t-86 60q-26 31 -41 87
q-14 50 -14 96q0 129 92.5 249t217.5 156q45 13 76 29q3 56 48 99t100 43q66 0 118 -55q44 -46 67 -117q86 -22 142 -22q90 0 110 2q27 33 74 65q54 36 89 36q29 0 29 -17q0 -32 -68 -65q-43 -21 -98 -36q-9 -37 -9 -47q0 -89 114 -89q2 0 0 1q0 1 1 1q22 0 29 -2
q16 -4 16 -19q0 -10 -5 -15q-31 4 -70 4q-135 0 -239 -38q-145 -53 -145 -162q0 -128 125 -186q91 -42 236 -42q39 0 79 18q49 22 49 56q0 58 -93 82q-61 16 -140 16q-42 0 -86 -20l-15 -16q21 -13 38 -15q-3 1 41 1l8 -26l-49 -1q-22 0 -52 10q-35 12 -35 32q0 36 71 53
q46 11 103 11q83 0 153 -26q94 -35 94 -103q0 -46 -71 -77q-58 -25 -113 -25q-124 0 -236 50q-137 61 -157 166zM734 492q0 -55 -12 -111q85 59 267 80q5 -1 9 -1q3 0 6 1q-50 32 -50 80q0 24 12 52q-17 0 -51.5 -4.5t-51.5 -4.5q-54 0 -136 22q7 -36 7 -114z" />
    <glyph glyph-name="oe" unicode="&#x153;" horiz-adv-x="559" 
d="M248 49q-56 -76 -146 -76q-44 0 -72 25q-31 26 -31 69q0 69 63 114q53 38 103 38q5 0 13.5 -1.5t13.5 -1.5q-15 0 11 18.5t39 16.5q39 -5 41 -65q54 70 133 70q22 0 22 -30q0 -43 -63 -92q-51 -40 -97 -45q4 -32 17 -44q7 -6 26.5 -15t28.5 -10q34 -2 47 -2q56 0 89 11
q41 14 73 50q-1 -3 -1 -10q0 -8 1 -20q-19 -38 -99 -52q-59 -11 -119 -7q-13 7 -37 12q-44 9 -56 47zM402 200q2 7 2 14q0 14 -12 14q-2 0 -7 -2q-23 -10 -55 -40q-35 -31 -42 -52q-1 -2 -4.5 -7.5t-2.5 -11.5q27 12 55 23q57 30 66 62zM256 195q-3 37 -21 37q-23 0 -22 -46
q-4 -14 13 -38q14 -22 28 -32q2 16 6 36zM248 94q-12 9 -26 22q-34 41 -30 75h-10q-42 0 -89 -38t-49 -79q-2 -32 18 -50t53 -18q25 0 33 2q56 14 100 86z" />
    <glyph glyph-name="endash" unicode="&#x2013;" horiz-adv-x="405" 
d="M2 190h403v-27l-403 1v26z" />
    <glyph glyph-name="emdash" unicode="&#x2014;" horiz-adv-x="803" 
d="M2 190h803v-27l-803 1v26z" />
    <glyph glyph-name="quotedblleft" unicode="&#x201c;" horiz-adv-x="220" 
d="M118 638q-16 -12 -39 -52q5 2 9 2q13 0 13 -15q0 -18 -19.5 -39t-37.5 -21q-15 0 -15 15q0 26 32 62q20 23 24 27q13 13 29 23q6 4 7 1q1 -1 -3 -3zM218 638q-16 -12 -39 -52q5 2 9 2q13 0 13 -15q0 -18 -19.5 -39t-37.5 -21q-15 0 -15 15q0 26 32 62q20 23 24 27
q13 13 29 23q6 4 7 1q1 -1 -3 -3z" />
    <glyph glyph-name="quotedblright" unicode="&#x201d;" horiz-adv-x="129" 
d="M283 527q16 12 39 51q-5 -2 -9 -2q-13 0 -13 16q0 18 19.5 38.5t37.5 20.5q15 0 15 -14q0 -26 -31 -62q-13 -14 -26 -28.5t-28 -22.5q-6 -3 -7 -1t3 4zM183 527q16 12 39 51q-5 -2 -9 -2q-13 0 -13 16q0 18 19.5 38.5t37.5 20.5q15 0 15 -14q0 -26 -31 -62
q-13 -14 -26 -28.5t-28 -22.5q-6 -3 -7 -1t3 4z" />
    <glyph glyph-name="quoteleft" unicode="&#x2018;" horiz-adv-x="173" 
d="M148 635q-19 -15 -39 -49q5 2 9 2q13 0 13 -15q0 -18 -19.5 -39t-37.5 -21q-15 0 -15 15q0 26 32 62q20 23 24 27q13 13 29 23q6 3 7 0q2 -3 -3 -5z" />
    <glyph glyph-name="quoteright" unicode="&#x2019;" horiz-adv-x="129" 
d="M133 517q16 12 39 51q-5 -2 -9 -2q-13 0 -13 16q0 18 19.5 38.5t37.5 20.5q15 0 15 -14q0 -26 -32 -62q-12 -14 -25 -28.5t-28 -22.5q-6 -3 -7 -1t3 4z" />
    <glyph glyph-name="divide" unicode="&#xf7;" 
 />
    <glyph glyph-name="lozenge" unicode="&#x25ca;" 
 />
    <glyph glyph-name="ydieresis" unicode="&#xff;" horiz-adv-x="488" 
d="M488 42q-67 -40 -248 -160q-75 -267 -218 -267q-29 0 -37 4q-17 9 -16 40q1 40 47 103q34 47 57 66q31 26 128 82q4 2 11 29q6 21 14 46q11 35 43 126q4 4 4 9q0 3 -1 6q-47 -48 -74 -68q-48 -35 -92 -35q-47 0 -47 56q0 13 3 24q-4 5 -21 -27q-13 -13 -41 -31v29
q31 20 64 82q36 66 52 79l23 -2q-4 -12 -29 -60q-20 -36 -20 -65q0 -45 41 -45q34 0 92 56q5 5 45 58t41 53t1 -1q4 10 7 19q6 16 27 26h19q10 -11 10 -18q0 -4 -18 -33q-25 -41 -38 -71q-11 -26 -34 -96q-26 -78 -26 -91l-9 -37q7 7 209 125l32 24zM195 -128
q-40 -21 -108 -82q-82 -74 -82 -113q0 -27 25 -27q17 0 41 15q40 25 101 157q10 15 23 50zM151 359q0 33 32 33t32 -33q0 -32 -32 -32t-32 32zM290 358q0 34 32 34t32 -34q0 -33 -32 -33t-32 33z" />
    <glyph glyph-name="Ydieresis" unicode="&#x178;" horiz-adv-x="742" 
d="M754 629q-6 -15 -35 -87q-40 -100 -86 -276q-34 -131 -30 -139q35 36 103 104q6 -7 6 -17q0 -16 -60 -73q-51 -49 -65 -56q-5 -14 -8 -33q-12 -95 -95 -231q-95 -156 -175 -156q-18 0 -31 20q-11 17 -11 36q0 77 94 179l174 183q8 10 28 76l48 155l81 244
q-18 -13 -49 -46q-46 -49 -55 -57q-23 -19 -68 -57.5t-59 -69.5l-79 -166q-44 -74 -107 -99h-28q-5 6 -5 23q0 34 38 89q30 44 60 72q54 51 72 84q23 42 23 107q0 102 -23 149q-32 66 -119 66q-104 0 -188 -133q-73 -116 -73 -210q0 -100 91 -100q59 0 108 91q40 75 40 125
q0 65 -8 92l10 10h14q10 -24 10 -95q0 -68 -28 -132q-39 -89 -116 -122q-26 -11 -39 -11q-60 0 -90 61q-21 42 -21 90q0 38 12 78q23 78 47 121q31 56 84 101q85 73 172 73q69 0 102 -32q54 -53 63 -129q0 -71 1 -141l259 256q11 -11 11 -17zM405 276q-128 -136 -130 -186
q44 25 79 82q8 14 51 104zM528 26q-227 -199 -227 -299q0 -29 14 -29q31 0 89 85q37 53 54 88q37 73 70 155zM455 760q0 16 10.5 26.5t26.5 10.5q15 0 26 -11t11 -26q0 -16 -10.5 -27t-26.5 -11q-37 0 -37 38zM616 758q0 16 10.5 27.5t26.5 11.5t27 -11.5t11 -27.5
t-11 -27.5t-27 -11.5t-26.5 11.5t-10.5 27.5z" />
    <glyph glyph-name="guilsinglleft" unicode="&#x2039;" horiz-adv-x="232" 
d="M69 356q8 9 78 63q9 8 27.5 22t31.5 12l16 -3l4 -16q-7 -6 -13 -9l-4 -2q-9 -4 -66 -45q-41 -29 -55 -48l-1 -1v-1q0 -24 56 -145q7 -16 0 -24q-9 -10 -19 -1q-6 5 -35 63.5t-33 71.5q-10 34 3 50z" />
    <glyph glyph-name="guilsinglright" unicode="&#x203a;" horiz-adv-x="232" 
d="M212 255q-8 -10 -77 -63q-9 -8 -27.5 -22t-31.5 -12l-16 3l-4 16q8 7 12 9l4 2q19 9 67 44q38 27 55 49l1 1v1q0 22 -23 73l-33 72q-7 15 -1 23q9 11 20 2q5 -4 34.5 -63.5t33.5 -71.5q10 -34 -3 -50z" />
    <glyph glyph-name="periodcentered" unicode="&#xb7;" horiz-adv-x="255" 
d="M119 236q0 16 11 27t27 11t26.5 -11t10.5 -27q0 -15 -11 -26t-26 -11q-16 0 -27 10.5t-11 26.5z" />
    <glyph glyph-name="periodcentered" unicode="&#x2219;" horiz-adv-x="255" 
d="M119 236q0 16 11 27t27 11t26.5 -11t10.5 -27q0 -15 -11 -26t-26 -11q-16 0 -27 10.5t-11 26.5z" />
    <glyph glyph-name="quotesinglbase" unicode="&#x201a;" horiz-adv-x="129" 
d="M3 -53q16 12 39 51q-5 -2 -9 -2q-13 0 -13 16q0 18 19.5 38.5t37.5 20.5q15 0 15 -14q0 -26 -31 -62q-13 -14 -26 -28.5t-28 -22.5q-6 -3 -7 -1t3 4z" />
    <glyph glyph-name="quotedblbase" unicode="&#x201e;" horiz-adv-x="211" 
d="M103 -53q16 12 39 51q-5 -2 -9 -2q-13 0 -13 16q0 18 19.5 38.5t37.5 20.5q15 0 15 -14q0 -26 -31 -62q-13 -14 -26 -28.5t-28 -22.5q-6 -3 -7 -1t3 4zM3 -53q16 12 39 51q-5 -2 -9 -2q-13 0 -13 16q0 18 19.5 38.5t37.5 20.5q15 0 15 -14q0 -26 -31 -62
q-13 -14 -26 -28.5t-28 -22.5q-6 -3 -7 -1t3 4z" />
    <glyph glyph-name="Acircumflex" unicode="&#xc2;" horiz-adv-x="843" 
d="M804 122q0 -44 -39 -91q-40 -50 -83 -50q-24 0 -43 10q-59 31 -73 79l-14 106l-5 -1q-49 -65 -150 -127q-109 -67 -183 -67h-33q-8 0 -37 7q-66 16 -105 58q-42 45 -42 111q0 114 107 237q33 38 90 94q244 200 461 200q17 0 39.5 -17.5t22.5 -34.5q0 -12 -14 -34
q-19 -30 -70 -51q-47 -20 -86 -20q-48 0 -103 18l5 8q11 1 27 1q10 0 30.5 -1t30.5 -1q30 0 75 20q51 23 51 48q0 28 -49 28q-214 0 -422 -217q-133 -139 -133 -257q0 -82 74 -124q33 -18 44 -20.5t50 -2.5q59 0 144 38q10 5 61 43q24 17 73 53q44 34 53 67q37 131 57 181
q36 89 100 162l18 5q0 -7 2.5 -19.5t2.5 -19.5q0 -40 -32 -122q-29 -75 -57 -114q-30 -42 -33 -47q-15 -27 -15 -55q0 -184 85 -184q43 0 67 31q22 28 22 72q0 40 -20 71l-46 58v15q35 -8 65 -57t30 -87zM711 531q-62 -86 -96 -231q82 138 96 231zM704 799q9 -6 19 -20
q12 -19 15 -22q25 -29 21 -43l-4 -13l-14 -6q-25 44 -70 86h-1q-18 -4 -56 -31l-54 -39q-5 -3 -17 -4q-17 -1 -19 10q-2 12 23 28l34 20q50 30 61 35q31 14 36 14q4 0 6 -2z" />
    <glyph glyph-name="Ecircumflex" unicode="&#xca;" horiz-adv-x="632" 
d="M576 75q0 -46 -72 -77q-57 -25 -101 -25h-11q-138 0 -255 59q-141 71 -141 191q0 197 353 238q5 -1 9 -1t6 1q-50 32 -50 80q0 24 12 52q-4 1 -83 1q-42 0 -88 8l-92 16q0 3 2.5 8.5t2.5 8.5l42 -4q19 0 63.5 -7.5t63.5 -7.5q12 0 35 -2t35 -2q16 0 24 2q27 32 74 64
q55 37 89 37q29 0 29 -17q0 -52 -166 -101q-9 -38 -9 -47q0 -89 114 -89q3 0 1 1t0 1q34 0 41 -6q4 -4 4 -15q0 -5 -2.5 -10l-2.5 -5q-29 3 -57 4q-15 0 -50 -1l-26 -1q-16 0 -43 -6q-34 -8 -43 -9q-94 -12 -155 -50q-80 -50 -80 -133q0 -40 16 -81q31 -77 140 -117
q83 -30 174 -30h31q36 0 76 17q52 22 52 57q0 56 -90 81q-57 16 -117 16h-43q-33 -3 -69 -19l-15 -16q22 -13 29 -14h50l8 -26l-49 -1q-22 0 -52 10q-35 12 -35 32q0 40 85 56q43 8 89 8q79 0 146 -23q101 -34 101 -106zM493 684q2 5 -5 6q-6 1 -7 -2q-12 0 -38 -12t-37 -21
l-33 -28q14 1 57 19q48 20 63 38zM544 819q9 -6 19 -20q12 -19 15 -22q25 -29 21 -43l-4 -13l-14 -6q-25 44 -70 86h-1q-18 -4 -56 -31l-54 -39q-5 -3 -17 -4q-17 -1 -19 10q-2 12 23 28l34 20q50 30 61 35q31 14 36 14q4 0 6 -2z" />
    <glyph glyph-name="Aacute" unicode="&#xc1;" horiz-adv-x="843" 
d="M804 122q0 -44 -39 -91q-40 -50 -83 -50q-24 0 -43 10q-59 31 -73 79l-14 106l-5 -1q-49 -65 -150 -127q-109 -67 -183 -67h-33q-8 0 -37 7q-66 16 -105 58q-42 45 -42 111q0 114 107 237q33 38 90 94q244 200 461 200q17 0 39.5 -17.5t22.5 -34.5q0 -12 -14 -34
q-19 -30 -70 -51q-47 -20 -86 -20q-48 0 -103 18l5 8q11 1 27 1q10 0 30.5 -1t30.5 -1q30 0 75 20q51 23 51 48q0 28 -49 28q-214 0 -422 -217q-133 -139 -133 -257q0 -82 74 -124q33 -18 44 -20.5t50 -2.5q59 0 144 38q10 5 61 43q24 17 73 53q44 34 53 67q37 131 57 181
q36 89 100 162l18 5q0 -7 2.5 -19.5t2.5 -19.5q0 -40 -32 -122q-29 -75 -57 -114q-30 -42 -33 -47q-15 -27 -15 -55q0 -184 85 -184q43 0 67 31q22 28 22 72q0 40 -20 71l-46 58v15q35 -8 65 -57t30 -87zM711 531q-62 -86 -96 -231q82 138 96 231zM593 721q0 -3 6 -1l9 -8
q65 48 132 99q3 6 3 16q0 14 -16 14q-13 0 -73.5 -54t-60.5 -66z" />
    <glyph glyph-name="Edieresis" unicode="&#xcb;" horiz-adv-x="632" 
d="M576 75q0 -46 -72 -77q-57 -25 -101 -25h-11q-138 0 -255 59q-141 71 -141 191q0 197 353 238q5 -1 9 -1t6 1q-50 32 -50 80q0 24 12 52q-4 1 -83 1q-42 0 -88 8l-92 16q0 3 2.5 8.5t2.5 8.5l42 -4q19 0 63.5 -7.5t63.5 -7.5q12 0 35 -2t35 -2q16 0 24 2q27 32 74 64
q55 37 89 37q29 0 29 -17q0 -52 -166 -101q-9 -38 -9 -47q0 -89 114 -89q3 0 1 1t0 1q34 0 41 -6q4 -4 4 -15q0 -5 -2.5 -10l-2.5 -5q-29 3 -57 4q-15 0 -50 -1l-26 -1q-16 0 -43 -6q-34 -8 -43 -9q-94 -12 -155 -50q-80 -50 -80 -133q0 -40 16 -81q31 -77 140 -117
q83 -30 174 -30h31q36 0 76 17q52 22 52 57q0 56 -90 81q-57 16 -117 16h-43q-33 -3 -69 -19l-15 -16q22 -13 29 -14h50l8 -26l-49 -1q-22 0 -52 10q-35 12 -35 32q0 40 85 56q43 8 89 8q79 0 146 -23q101 -34 101 -106zM493 684q2 5 -5 6q-6 1 -7 -2q-12 0 -38 -12t-37 -21
l-33 -28q14 1 57 19q48 20 63 38zM365 760q0 16 10.5 26.5t26.5 10.5q15 0 26 -11t11 -26q0 -16 -10.5 -27t-26.5 -11q-37 0 -37 38zM526 758q0 16 10.5 27.5t26.5 11.5t27 -11.5t11 -27.5t-11 -27.5t-27 -11.5t-26.5 11.5t-10.5 27.5z" />
    <glyph glyph-name="Egrave" unicode="&#xc8;" horiz-adv-x="632" 
d="M576 75q0 -46 -72 -77q-57 -25 -101 -25h-11q-138 0 -255 59q-141 71 -141 191q0 197 353 238q5 -1 9 -1t6 1q-50 32 -50 80q0 24 12 52q-4 1 -83 1q-42 0 -88 8l-92 16q0 3 2.5 8.5t2.5 8.5l42 -4q19 0 63.5 -7.5t63.5 -7.5q12 0 35 -2t35 -2q16 0 24 2q27 32 74 64
q55 37 89 37q29 0 29 -17q0 -52 -166 -101q-9 -38 -9 -47q0 -89 114 -89q3 0 1 1t0 1q34 0 41 -6q4 -4 4 -15q0 -5 -2.5 -10l-2.5 -5q-29 3 -57 4q-15 0 -50 -1l-26 -1q-16 0 -43 -6q-34 -8 -43 -9q-94 -12 -155 -50q-80 -50 -80 -133q0 -40 16 -81q31 -77 140 -117
q83 -30 174 -30h31q36 0 76 17q52 22 52 57q0 56 -90 81q-57 16 -117 16h-43q-33 -3 -69 -19l-15 -16q22 -13 29 -14h50l8 -26l-49 -1q-22 0 -52 10q-35 12 -35 32q0 40 85 56q43 8 89 8q79 0 146 -23q101 -34 101 -106zM493 684q2 5 -5 6q-6 1 -7 -2q-12 0 -38 -12t-37 -21
l-33 -28q14 1 57 19q48 20 63 38zM438 741q0 -3 -5 -1l-10 -8q-65 48 -131 99q-4 6 -4 16q0 14 17 14q13 0 73 -54t60 -66z" />
    <glyph glyph-name="Iacute" unicode="&#xcd;" horiz-adv-x="671" 
d="M668 279q0 -56 -81 -56q-53 -104 -158 -165t-224 -61q-71 0 -134 33q-76 40 -76 105q0 70 78 116q68 40 147 40q17 0 32 -3q63 29 98 48q-1 7 -16 52q-10 30 -10 55q0 75 46 147q52 81 123 81q76 0 110 -79q25 -58 25 -145q0 -56 -10 -104q50 -50 50 -64zM596 449
q0 60 -19 117q-25 77 -72 77q-62 0 -109 -73q-42 -65 -42 -131q0 -42 24 -90q76 19 101 19q63 0 104 -11q13 50 13 92zM637 279q0 18 -21 28q-6 -17 -16 -52q37 0 37 24zM577 329q-52 8 -68 8q-27 0 -113 -8q8 -7 28 -25q9 -8 58 -31t59 -23q7 0 20 35zM533 223
q-109 24 -172 88q-21 -9 -56 -29q113 -60 113 -83q0 -12 -13 -17q-24 26 -58 50q-43 30 -67 30q-26 0 -92 -90h1q-1 -1 -7 -1q-14 0 -17 9q31 48 64 82l-16 2q-53 7 -118.5 -35t-65.5 -99q0 -52 69 -79q51 -20 114 -20q177 0 321 192zM463 711q0 -3 6 -1l9 -8q65 48 132 99
q3 6 3 16q0 14 -16 14q-13 0 -73.5 -54t-60.5 -66z" />
    <glyph glyph-name="Icircumflex" unicode="&#xce;" horiz-adv-x="671" 
d="M668 279q0 -56 -81 -56q-53 -104 -158 -165t-224 -61q-71 0 -134 33q-76 40 -76 105q0 70 78 116q68 40 147 40q17 0 32 -3q63 29 98 48q-1 7 -16 52q-10 30 -10 55q0 75 46 147q52 81 123 81q76 0 110 -79q25 -58 25 -145q0 -56 -10 -104q50 -50 50 -64zM596 449
q0 60 -19 117q-25 77 -72 77q-62 0 -109 -73q-42 -65 -42 -131q0 -42 24 -90q76 19 101 19q63 0 104 -11q13 50 13 92zM637 279q0 18 -21 28q-6 -17 -16 -52q37 0 37 24zM577 329q-52 8 -68 8q-27 0 -113 -8q8 -7 28 -25q9 -8 58 -31t59 -23q7 0 20 35zM533 223
q-109 24 -172 88q-21 -9 -56 -29q113 -60 113 -83q0 -12 -13 -17q-24 26 -58 50q-43 30 -67 30q-26 0 -92 -90h1q-1 -1 -7 -1q-14 0 -17 9q31 48 64 82l-16 2q-53 7 -118.5 -35t-65.5 -99q0 -52 69 -79q51 -20 114 -20q177 0 321 192zM574 789q9 -6 19 -20q12 -19 15 -22
q25 -29 21 -43l-4 -13l-14 -6q-25 44 -70 86h-1q-18 -4 -56 -31l-54 -39q-5 -3 -17 -4q-17 -1 -19 10q-2 12 23 28l34 20q50 30 61 35q31 14 36 14q4 0 6 -2z" />
    <glyph glyph-name="Idieresis" unicode="&#xcf;" horiz-adv-x="671" 
d="M668 279q0 -56 -81 -56q-53 -104 -158 -165t-224 -61q-71 0 -134 33q-76 40 -76 105q0 70 78 116q68 40 147 40q17 0 32 -3q63 29 98 48q-1 7 -16 52q-10 30 -10 55q0 75 46 147q52 81 123 81q76 0 110 -79q25 -58 25 -145q0 -56 -10 -104q50 -50 50 -64zM596 449
q0 60 -19 117q-25 77 -72 77q-62 0 -109 -73q-42 -65 -42 -131q0 -42 24 -90q76 19 101 19q63 0 104 -11q13 50 13 92zM637 279q0 18 -21 28q-6 -17 -16 -52q37 0 37 24zM577 329q-52 8 -68 8q-27 0 -113 -8q8 -7 28 -25q9 -8 58 -31t59 -23q7 0 20 35zM533 223
q-109 24 -172 88q-21 -9 -56 -29q113 -60 113 -83q0 -12 -13 -17q-24 26 -58 50q-43 30 -67 30q-26 0 -92 -90h1q-1 -1 -7 -1q-14 0 -17 9q31 48 64 82l-16 2q-53 7 -118.5 -35t-65.5 -99q0 -52 69 -79q51 -20 114 -20q177 0 321 192zM415 750q0 16 10.5 26.5t26.5 10.5
q15 0 26 -11t11 -26q0 -16 -10.5 -27t-26.5 -11q-37 0 -37 38zM576 748q0 16 10.5 27.5t26.5 11.5t27 -11.5t11 -27.5t-11 -27.5t-27 -11.5t-26.5 11.5t-10.5 27.5z" />
    <glyph glyph-name="Igrave" unicode="&#xcc;" horiz-adv-x="671" 
d="M668 279q0 -56 -81 -56q-53 -104 -158 -165t-224 -61q-71 0 -134 33q-76 40 -76 105q0 70 78 116q68 40 147 40q17 0 32 -3q63 29 98 48q-1 7 -16 52q-10 30 -10 55q0 75 46 147q52 81 123 81q76 0 110 -79q25 -58 25 -145q0 -56 -10 -104q50 -50 50 -64zM596 449
q0 60 -19 117q-25 77 -72 77q-62 0 -109 -73q-42 -65 -42 -131q0 -42 24 -90q76 19 101 19q63 0 104 -11q13 50 13 92zM637 279q0 18 -21 28q-6 -17 -16 -52q37 0 37 24zM577 329q-52 8 -68 8q-27 0 -113 -8q8 -7 28 -25q9 -8 58 -31t59 -23q7 0 20 35zM533 223
q-109 24 -172 88q-21 -9 -56 -29q113 -60 113 -83q0 -12 -13 -17q-24 26 -58 50q-43 30 -67 30q-26 0 -92 -90h1q-1 -1 -7 -1q-14 0 -17 9q31 48 64 82l-16 2q-53 7 -118.5 -35t-65.5 -99q0 -52 69 -79q51 -20 114 -20q177 0 321 192zM618 701q0 -3 -5 -1l-10 -8
q-65 48 -131 99q-4 6 -4 16q0 14 17 14q13 0 73 -54t60 -66z" />
    <glyph glyph-name="Oacute" unicode="&#xd3;" horiz-adv-x="731" 
d="M734 492q0 -156 -95 -302q-108 -166 -280 -212q-60 -16 -74 -16h-40q-48 0 -103.5 24.5t-86.5 60.5q-26 30 -41 87q-14 50 -14 96q0 114 85 236q93 134 225 169q40 11 76 29q3 56 47.5 99t100.5 43q70 0 123 -61q42 -48 66 -125q11 -36 11 -128zM707 542q0 6 -3.5 13
l-3.5 7q-11 77 -50 136q-48 73 -116 73q-41 0 -70 -33q-26 -29 -32 -72q9 4 47 4q52 0 94 -15q7 -5 7 -13l-7 -8q-71 9 -87 9q-37 0 -55 -9q1 -87 46 -176q54 -106 139 -130v-10l-25 -4q-81 23 -145.5 115.5t-64.5 177.5q0 11 1 22q-84 -22 -165 -86q-93 -73 -117 -156
q-8 -14 -19 -40q-19 -59 -19 -86q0 -110 62.5 -175.5t172.5 -65.5q185 0 304 174q106 155 106 348zM513 851q0 -3 6 -1l9 -8q65 48 132 99q3 6 3 16q0 14 -16 14q-13 0 -73.5 -54t-60.5 -66z" />
    <glyph glyph-name="Ocircumflex" unicode="&#xd4;" horiz-adv-x="731" 
d="M734 492q0 -156 -95 -302q-108 -166 -280 -212q-60 -16 -74 -16h-40q-48 0 -103.5 24.5t-86.5 60.5q-26 30 -41 87q-14 50 -14 96q0 114 85 236q93 134 225 169q40 11 76 29q3 56 47.5 99t100.5 43q70 0 123 -61q42 -48 66 -125q11 -36 11 -128zM707 542q0 6 -3.5 13
l-3.5 7q-11 77 -50 136q-48 73 -116 73q-41 0 -70 -33q-26 -29 -32 -72q9 4 47 4q52 0 94 -15q7 -5 7 -13l-7 -8q-71 9 -87 9q-37 0 -55 -9q1 -87 46 -176q54 -106 139 -130v-10l-25 -4q-81 23 -145.5 115.5t-64.5 177.5q0 11 1 22q-84 -22 -165 -86q-93 -73 -117 -156
q-8 -14 -19 -40q-19 -59 -19 -86q0 -110 62.5 -175.5t172.5 -65.5q185 0 304 174q106 155 106 348zM614 899q9 -6 19 -20q12 -19 15 -22q25 -29 21 -43l-4 -13l-14 -6q-25 44 -70 86h-1q-18 -4 -56 -31l-54 -39q-5 -3 -17 -4q-17 -1 -19 10q-2 12 23 28l34 20q50 30 61 35
q31 14 36 14q4 0 6 -2z" />
    <glyph glyph-name="Ograve" unicode="&#xd2;" horiz-adv-x="731" 
d="M734 492q0 -156 -95 -302q-108 -166 -280 -212q-60 -16 -74 -16h-40q-48 0 -103.5 24.5t-86.5 60.5q-26 30 -41 87q-14 50 -14 96q0 114 85 236q93 134 225 169q40 11 76 29q3 56 47.5 99t100.5 43q70 0 123 -61q42 -48 66 -125q11 -36 11 -128zM707 542q0 6 -3.5 13
l-3.5 7q-11 77 -50 136q-48 73 -116 73q-41 0 -70 -33q-26 -29 -32 -72q9 4 47 4q52 0 94 -15q7 -5 7 -13l-7 -8q-71 9 -87 9q-37 0 -55 -9q1 -87 46 -176q54 -106 139 -130v-10l-25 -4q-81 23 -145.5 115.5t-64.5 177.5q0 11 1 22q-84 -22 -165 -86q-93 -73 -117 -156
q-8 -14 -19 -40q-19 -59 -19 -86q0 -110 62.5 -175.5t172.5 -65.5q185 0 304 174q106 155 106 348zM638 821q0 -3 -5 -1l-10 -8q-65 48 -131 99q-4 6 -4 16q0 14 17 14q13 0 73 -54t60 -66z" />
    <glyph glyph-name="Uacute" unicode="&#xda;" horiz-adv-x="659" 
d="M680 609q0 -55 -51 -144l-78 -137q-15 -34 -15 -136q0 -171 113 -275v-14h-13q-13 0 -55 41q-39 38 -49 55q-40 65 -40 151q0 15 1 44.5t1 44.5q-38 -54 -116 -161q-81 -106 -151 -106q-48 0 -71 54q-18 40 -18 95q0 63 54 222q-99 -24 -131 -24q-64 0 -64 40
q0 55 106 55q30 0 62 -19q-11 -4 -25 -4q-7 0 -21.5 1.5t-21.5 1.5q-33 0 -55 -24q4 -24 30 -24q72 0 120 27q10 6 27 48q46 115 96 192q60 92 94 92q26 0 26 -39q0 -105 -201 -308q-21 -21 -36 -111q-12 -73 -12 -121q0 -105 55 -105t138 94q58 65 105 146q12 20 24 60
q16 52 20 62l49 121q34 77 62 112q5 6 24 16q17 -18 17 -23zM652 582q-44 -59 -84 -183q13 16 47 81q37 69 37 86v16zM413 651q0 9 -13 19q-7 -2 -17 -8q-32 -42 -74.5 -125.5t-57.5 -133.5q33 26 89 107t66 120q7 28 7 21zM483 711q0 -3 6 -1l9 -8q65 48 132 99q3 6 3 16
q0 14 -16 14q-13 0 -73.5 -54t-60.5 -66z" />
    <glyph glyph-name="Ucircumflex" unicode="&#xdb;" horiz-adv-x="659" 
d="M680 609q0 -55 -51 -144l-78 -137q-15 -34 -15 -136q0 -171 113 -275v-14h-13q-13 0 -55 41q-39 38 -49 55q-40 65 -40 151q0 15 1 44.5t1 44.5q-38 -54 -116 -161q-81 -106 -151 -106q-48 0 -71 54q-18 40 -18 95q0 63 54 222q-99 -24 -131 -24q-64 0 -64 40
q0 55 106 55q30 0 62 -19q-11 -4 -25 -4q-7 0 -21.5 1.5t-21.5 1.5q-33 0 -55 -24q4 -24 30 -24q72 0 120 27q10 6 27 48q46 115 96 192q60 92 94 92q26 0 26 -39q0 -105 -201 -308q-21 -21 -36 -111q-12 -73 -12 -121q0 -105 55 -105t138 94q58 65 105 146q12 20 24 60
q16 52 20 62l49 121q34 77 62 112q5 6 24 16q17 -18 17 -23zM652 582q-44 -59 -84 -183q13 16 47 81q37 69 37 86v16zM413 651q0 9 -13 19q-7 -2 -17 -8q-32 -42 -74.5 -125.5t-57.5 -133.5q33 26 89 107t66 120q7 28 7 21zM644 799q9 -6 19 -20q12 -19 15 -22
q25 -29 21 -43l-4 -13l-14 -6q-25 44 -70 86h-1q-18 -4 -56 -31l-54 -39q-5 -3 -17 -4q-17 -1 -19 10q-2 12 23 28l34 20q50 30 61 35q31 14 36 14q4 0 6 -2z" />
    <glyph glyph-name="Ugrave" unicode="&#xd9;" horiz-adv-x="659" 
d="M680 609q0 -55 -51 -144l-78 -137q-15 -34 -15 -136q0 -171 113 -275v-14h-13q-13 0 -55 41q-39 38 -49 55q-40 65 -40 151q0 15 1 44.5t1 44.5q-38 -54 -116 -161q-81 -106 -151 -106q-48 0 -71 54q-18 40 -18 95q0 63 54 222q-99 -24 -131 -24q-64 0 -64 40
q0 55 106 55q30 0 62 -19q-11 -4 -25 -4q-7 0 -21.5 1.5t-21.5 1.5q-33 0 -55 -24q4 -24 30 -24q72 0 120 27q10 6 27 48q46 115 96 192q60 92 94 92q26 0 26 -39q0 -105 -201 -308q-21 -21 -36 -111q-12 -73 -12 -121q0 -105 55 -105t138 94q58 65 105 146q12 20 24 60
q16 52 20 62l49 121q34 77 62 112q5 6 24 16q17 -18 17 -23zM652 582q-44 -59 -84 -183q13 16 47 81q37 69 37 86v16zM413 651q0 9 -13 19q-7 -2 -17 -8q-32 -42 -74.5 -125.5t-57.5 -133.5q33 26 89 107t66 120q7 28 7 21zM608 721q0 -3 -5 -1l-10 -8q-65 48 -131 99
q-4 6 -4 16q0 14 17 14q13 0 73 -54t60 -66z" />
    <glyph glyph-name="dotlessi" unicode="&#x131;" horiz-adv-x="310" 
d="M310 45q-22 -17 -66 -35q-53 -22 -85 -22q-52 0 -83 41q-18 24 -5 69l-35 -29q-2 -1 -35 -25q-3 11 -3 18t2 11q34 21 68 65.5t49 83.5q10 28 35 28q18 0 26 -20q-7 -12 -21 -37q-41 -93 -41 -117q0 -53 57 -53q60 0 119 36l19 17z" />
    <glyph glyph-name="circumflex" unicode="&#x2c6;" horiz-adv-x="421" 
d="M216 367q11 -6 24 -18q17 -16 24 -21q14 -11 21 -18q13 -12 14 -23l1 -13l-12 -7q-6 4 -10 8l-2 3q-15 11 -39 29q-17 18 -47 40l-1 1l-1 -1q-15 -5 -48 -34l-47 -42q-8 -7 -18 -3q-4 2 -7.5 9.5t-1.5 11.5q2 6 40.5 37.5t48.5 37.5q27 16 31 16q3 0 6 -1z" />
    <glyph glyph-name="tilde" unicode="&#x2dc;" horiz-adv-x="594" 
d="M198 342q-5 -9 -9 -17q-7 -10 -15 -11q-17 -2 -19 16q-3 27 18 32q26 24 63 28q9 0 35.5 -14t31.5 -21q47 -22 54 -22q8 4 25 8q14 11 24 32l27 -3l-4 -22q-3 -15 -28 -32.5t-42 -18.5q-13 -1 -46 12t-38 23q-13 6 -38 20q-12 -1 -39 -10z" />
    <glyph glyph-name="macron" unicode="&#xaf;" horiz-adv-x="279" 
d="M40 327h183q10 0 10 -15t-10 -15h-183q-10 0 -10 15t10 15z" />
    <glyph glyph-name="macron" unicode="&#x2c9;" horiz-adv-x="279" 
d="M40 327h183q10 0 10 -15t-10 -15h-183q-10 0 -10 15t10 15z" />
    <glyph glyph-name="breve" unicode="&#x2d8;" horiz-adv-x="291" 
d="M245 360q0 -32 -39 -52q-32 -17 -67 -17t-66 17q-37 20 -37 52q0 10 10 10t10 -10q0 -21 34 -32q25 -9 50 -9t51 9q34 11 34 32q0 10 10 10t10 -10z" />
    <glyph glyph-name="dotaccent" unicode="&#x2d9;" horiz-adv-x="306" 
d="M158 383q-37 0 -37 -36q0 -37 37 -37q16 0 26.5 10.5t10.5 26.5q0 15 -11 25.5t-26 10.5z" />
    <glyph glyph-name="ring" unicode="&#x2da;" horiz-adv-x="306" 
d="M158 285q-26 0 -44 18t-18 44t18 43.5t44 17.5q25 0 43.5 -18t18.5 -43q0 -26 -18 -44t-44 -18zM158 383q-37 0 -37 -36q0 -37 37 -37q16 0 26.5 10.5t10.5 26.5q0 15 -11 25.5t-26 10.5z" />
    <glyph glyph-name="cedilla" unicode="&#xb8;" horiz-adv-x="351" 
d="M139 -48q40 -3 71 -20q40 -22 40 -57q0 -38 -46 -60q-37 -17 -80 -17q-65 0 -102 31q-4 3 -4 9q0 18 12 18q2 0 4 -2q33 -26 70 -26q35 0 63 8q43 12 43 39t-39 41q-28 9 -61 9l-8 8q1 3 0 9q12 23 29 67q2 8 12 8q15 0 11 -12q-4 -13 -15 -53z" />
    <glyph glyph-name="hungarumlaut" unicode="&#x2dd;" horiz-adv-x="309" 
d="M163 281q0 -3 6 -1l9 -8q50 37 101 76q3 6 3 15q0 15 -16 15q-13 0 -58 -42t-45 -55zM63 281q0 -3 6 -1l9 -8q50 37 101 76q3 6 3 15q0 15 -16 15q-13 0 -58 -42t-45 -55z" />
    <glyph glyph-name="ogonek" unicode="&#x2db;" horiz-adv-x="264" 
d="M143 -167q-30 0 -49 19t-21 50q-2 39 19.5 73.5t58.5 37.5q8 1 8 -8q0 -8 -8 -8q-22 0 -35 -26q-11 -20 -11 -45q0 -24 11 -45q13 -26 35 -26q17 0 30 18q3 4 7 4q8 0 8 -8q0 -10 -21 -23t-32 -13z" />
    <glyph glyph-name="caron" unicode="&#x2c7;" horiz-adv-x="421" 
d="M150 279q-10 5 -24 18q-10 9 -23 21q-16 13 -22 18q-13 13 -14 23l-1 14l12 6q6 -4 10 -8l2 -3q15 -10 40 -29q16 -17 46 -40l1 -1l1 1q17 5 49 34q15 14 46 42q8 7 18 3q4 -2 7.5 -9.5t1.5 -11.5q-2 -6 -40 -37.5t-48 -37.5q-27 -16 -32 -16q-3 0 -6 1z" />
    <glyph glyph-name="Lslash" unicode="&#x141;" 
 />
    <glyph glyph-name="lslash" unicode="&#x142;" 
 />
    <glyph glyph-name="Scaron" unicode="&#x160;" 
 />
    <glyph glyph-name="scaron" unicode="&#x161;" 
 />
    <glyph glyph-name="Zcaron" unicode="&#x17d;" 
 />
    <glyph glyph-name="zcaron" unicode="&#x17e;" 
 />
    <glyph glyph-name="brokenbar" unicode="&#xa6;" 
 />
    <glyph glyph-name="Eth" unicode="&#xd0;" horiz-adv-x="558" 
d="M559 626q0 -36 -27 -70t-62 -34q-14 0 -32.5 16.5t-23.5 30.5l-10 -19l-67 -151q0 -6 39 -30q112 -69 112 -183q0 -77 -43.5 -136t-116.5 -89q-56 -23 -112 -23q-57 0 -118 26q-11 -12 -30 -37.5t-30 -37.5l-18 5q2 3 33 41q25 31 22 37q-14 12 -41 38q-30 30 -30 78
q0 67 58 118q55 49 123 49q54 0 51 -6q55 101 55 108q0 -21 -25 19q-17 27 -33 58q-20 39 -20 78q0 116 115 183q66 38 124 38q4 0 12 17.5t10 19.5q17 -2 17 -18q0 -12 -7 -23q75 -43 75 -103zM531 632q0 15 -1 19q-4 9 -21 26.5t-24 17.5h-16q-6 -10 -19 -31
q-15 -25 -13 -49q1 -17 11 -34q11 -20 26 -20q25 0 42 24q15 21 15 47zM444 706q-3 0 -10 2.5t-11 2.5q-55 0 -111 -62.5t-56 -118.5q0 -32 18.5 -66.5t44.5 -53.5zM441 162q0 68 -45 107q-29 24 -88 72q-15 -32 -49 -95q29 -4 49 -33t20 -59q0 -59 -43 -83q-13 -7 -43 -18
t-41 -11q-15 0 -12 9q10 12 32 19q28 9 35 14q43 31 40 81q-1 11 -18 28.5t-28 17.5q-6 0 -32 -50q-10 -20 -30 -61q-11 -22 -74 -111q37 -17 123 -17q83 0 143.5 54t60.5 136zM224 218l-41 5q-50 0 -100.5 -43t-50.5 -92q0 -19 14.5 -46t30.5 -36l20 -11z" />
    <glyph glyph-name="eth" unicode="&#xf0;" 
 />
    <glyph glyph-name="Yacute" unicode="&#xdd;" 
 />
    <glyph glyph-name="Thorn" unicode="&#xde;" 
 />
    <glyph glyph-name="thorn" unicode="&#xfe;" 
 />
    <glyph glyph-name="minus" unicode="&#xad;" 
 />
    <glyph glyph-name="minus" unicode="&#x2212;" 
 />
    <glyph glyph-name="onesuperior" unicode="&#xb9;" 
 />
    <glyph glyph-name="twosuperior" unicode="&#xb2;" 
 />
    <glyph glyph-name="threesuperior" unicode="&#xb3;" 
 />
    <glyph glyph-name="onehalf" unicode="&#xbd;" 
 />
    <glyph glyph-name="onequarter" unicode="&#xbc;" 
 />
    <glyph glyph-name="threequarters" unicode="&#xbe;" 
 />
    <glyph glyph-name="LF" 
 />
    <glyph glyph-name="DLE" 
 />
    <glyph glyph-name="DC1" 
 />
    <glyph glyph-name="DC2" 
 />
    <glyph glyph-name="DC3" 
 />
    <glyph glyph-name="DC4" 
 />
    <glyph glyph-name="RS" 
 />
    <glyph glyph-name="US" 
 />
    </font>
</defs>
</svg>
