<?xml version="1.0" standalone="no"?>
<!DOCTYPE svg PUBLIC "-//W3C//DTD SVG 1.1//EN" "http://www.w3.org/Graphics/SVG/1.1/DTD/svg11.dtd" >
<svg>
<metadata>
Created by FontForge 20120731 at Tue Apr 16 14:49:27 2019
 By www-data
Digitized by Dan X. Solo. Software (c) 1999 by Dover Publications, Inc., New York.
</metadata>
<defs>
<font id="OrionScriptNormal" horiz-adv-x="20" >
  <font-face 
    font-family="Orion Script"
    font-weight="400"
    font-stretch="normal"
    units-per-em="1000"
    panose-1="0 0 4 0 0 0 0 0 0 0"
    ascent="800"
    descent="-200"
    x-height="291"
    cap-height="686"
    bbox="-240 -306 1261 865"
    underline-thickness="20"
    underline-position="-123"
    unicode-range="U+0020-F002"
  />
<missing-glyph horiz-adv-x="500" 
d="M63 0v865h375v-865h-375zM125 63h250v740h-250v-740z" />
    <glyph glyph-name=".notdef" horiz-adv-x="500" 
d="M63 0v865h375v-865h-375zM125 63h250v740h-250v-740z" />
    <glyph glyph-name=".null" horiz-adv-x="0" 
 />
    <glyph glyph-name="glyph2" horiz-adv-x="213" 
 />
    <glyph glyph-name="space" unicode=" " horiz-adv-x="213" 
 />
    <glyph glyph-name="exclam" unicode="!" horiz-adv-x="476" 
d="M647 584q6 0 15 -6.5t9 -12.5q0 -21 -180 -226q-204 -232 -221 -235l-7 5l-4 9q1 28 184.5 247t203.5 219zM231 80q24 0 24 -24q0 -19 -20.5 -40t-39.5 -21q-23 0 -23 24q0 21 19 41t40 20z" />
    <glyph glyph-name="quotedbl" unicode="&#x22;" horiz-adv-x="378" 
d="M308 648q7 5 14 5q12 0 23 -18q5 -9 -24 -75q-19 -44 -40 -84l-9 5l14 88q12 70 22 79zM404 644q7 6 14 6q12 0 23 -18q5 -9 -24 -75q-20 -46 -41 -84l-9 5q3 16 15 87t22 79z" />
    <glyph glyph-name="numbersign" unicode="#" horiz-adv-x="586" 
d="M176 196h125l139 170l-122 -1zM43 196h91l143 169h-93l19 31h100l132 156h40l-131 -156h121l131 159h37l-127 -159l100 1l-19 -31h-106l-137 -170l102 1l-19 -31h-107l-134 -166h-47l136 166l-125 -1l-139 -165l-40 3l136 162h-83z" />
    <glyph glyph-name="dollar" unicode="$" horiz-adv-x="463" 
d="M496 523q42 -6 42 -40q0 -27 -23.5 -42t-52.5 -15q-14 0 -14 14q0 2 27.5 8.5t27.5 16.5q0 13 -39 13q-44 0 -101 -17q-73 -22 -73 -55q0 -21 41 -23l52 -2q22 -2 25 -2q41 -10 41 -51q0 -62 -88 -104q-74 -35 -143 -33q-81 -109 -95 -109q-19 0 -20 6q30 36 87 109
q-70 15 -70 65q0 20 29 36q25 14 47 14q9 0 9 -12q0 -8 -26.5 -17t-26.5 -18q0 -25 61 -25q51 0 116 26q79 32 79 75q0 10 -13 11q-29 2 -88 6q-51 11 -51 59q0 53 85 83q63 22 130 23q56 66 64 66q9 0 14 -7q-16 -20 -53 -59z" />
    <glyph glyph-name="percent" unicode="%" horiz-adv-x="535" 
d="M374 385q42 0 174 69t146 69q5 0 14 -7.5t9 -12.5q0 -24 -112 -93q-350 -215 -581 -405q-16 -13 -22 -13q-7 0 -13.5 8t-6.5 15q0 17 40 48q168 131 513 338q70 42 70 54v7q-13 -4 -126 -59q-86 -42 -124 -41q-66 -73 -122 -73q-26 0 -42.5 18t-16.5 44q0 67 72 129
t141 62q39 0 39 -43q0 -50 -52 -114zM351 391q53 53 53 90q0 24 -18 24q-31 0 -50.5 -26.5t-19.5 -58.5q0 -30 35 -29zM297 446q-78 -56 -78 -106q0 -26 24 -26q37 0 91 55q-39 18 -39 56q0 10 2 21zM441 236q23 0 37 -21t14 -45q0 -56 -70.5 -127.5t-126.5 -71.5
q-25 0 -43 15.5t-18 40.5q0 64 71.5 136.5t135.5 72.5zM447 181q-39 0 -107 -59.5t-68 -97.5q0 -24 30 -24q46 0 104.5 58t58.5 104q0 19 -18 19z" />
    <glyph glyph-name="ampersand" unicode="&#x26;" horiz-adv-x="675" 
d="M823 602q0 -37 -59 -62q-18 -8 -75 -27l-20 6q5 8 53.5 27t64.5 43q0 5 -8 9q-20 11 -40 11q-71 0 -179 -30q-146 -40 -146 -102q0 -32 107 -32q-9 0 10.5 1t26.5 1q71 0 79 -28l-6 -7q-44 -12 -133 -37q-339 -101 -339 -240q0 -37 27.5 -59.5t65.5 -22.5q89 0 202 59
q128 67 132 146q-7 7 -15 7q-5 0 -14.5 -3.5t-13.5 -3.5q-12 0 -37.5 -4t-38.5 -4l-3 25q25 11 101 24.5t107 13.5h73l6 -8l-1 -14q-21 -17 -70 -19q-61 -3 -75 -7q14 -20 14 -43q0 -73 -106 -144q-85 -57 -160 -73q-28 -6 -73 -6q-70 0 -109 40.5t-39 111.5q0 146 202 218
q20 7 157 51q-21 4 -62 12q-47 10 -47 49q0 89 151 143q109 39 193 39q35 0 62 -13q35 -17 35 -48z" />
    <glyph glyph-name="quotesingle" unicode="'" horiz-adv-x="368" 
d="M404 644q7 6 14 6q12 0 23 -18q5 -9 -24 -75q-20 -46 -41 -84l-9 5q3 16 15 87t22 79z" />
    <glyph glyph-name="parenleft" unicode="(" horiz-adv-x="279" 
d="M694 745q-223 -163 -414 -390q-206 -243 -305 -478q-4 -4 -8 -4q-10 0 -10 10q0 4 2 7q133 316 266 478q140 170 453 389q4 4 8 4q10 0 10 -10q0 -3 -2 -6z" />
    <glyph glyph-name="parenright" unicode=")" horiz-adv-x="307" 
d="M-99 -117q218 165 408 397q202 247 296 483q4 4 8 4q10 0 10 -10q0 -4 -2 -7q-125 -314 -258 -482q-139 -175 -446 -398q-3 -4 -8 -4q-10 0 -10 10q0 4 2 7z" />
    <glyph glyph-name="asterisk" unicode="*" horiz-adv-x="256" 
d="M205 580q10 0 10 -10t-10 -10h-82l41 -71q2 -3 2 -5q0 -10 -11 -10q-5 0 -8 5l-41 71l-41 -71q-3 -5 -9 -5q-10 0 -10 10q0 2 1 5l42 71h-83q-10 0 -10 10t10 10h83l-42 71q-1 3 -1 5q0 10 10 10q6 0 9 -5l41 -71l41 71q3 5 8 5q11 0 11 -10q0 -2 -2 -5l-41 -71h82z" />
    <glyph glyph-name="plus" unicode="+" horiz-adv-x="574" 
d="M531 155q-68 -5 -217 -17q-55 -64 -127 -153q-22 8 -22 30q0 3 69 113q-14 2 -30 1q-33 -3 -30 -3q-100 0 -100 62q0 50 65 100q61 48 113 48q64 0 76 -87q42 50 131 146q9 -1 34 -21l-156 -196q6 -5 20 -3q11 2 21 3q23 0 70 3t70 3q11 0 11 -3q0 -2 -1 -6t-1 -6
q0 -6 4 -14zM306 251q0 19 -13 31.5t-32 12.5q-43 0 -98 -35q-61 -37 -61 -77q0 -20 45 -20q59 0 125 10q34 59 34 78z" />
    <glyph glyph-name="comma" unicode="," horiz-adv-x="226" 
d="M133 1l-5 -1q-26 0 -26 21q0 20 19 39.5t39 19.5q26 0 26 -26q0 -37 -40 -81t-77 -53q-10 -3 -10 9q1 2 32.5 26t41.5 46z" />
    <glyph glyph-name="hyphen" unicode="-" horiz-adv-x="438" 
d="M441 165q-3 -13 -11 -21.5t-8 -10.5h-235q5 5 22 32h232z" />
    <glyph glyph-name="hyphen" unicode="&#x2010;" horiz-adv-x="438" 
d="M441 165q-3 -13 -11 -21.5t-8 -10.5h-235q5 5 22 32h232z" />
    <glyph glyph-name="period" unicode="." horiz-adv-x="248" 
d="M165 80q24 0 24 -24q0 -19 -20.5 -40t-39.5 -21q-23 0 -23 24q0 21 19 41t40 20z" />
    <glyph glyph-name="slash" unicode="/" horiz-adv-x="592" 
d="M45 -10q-4 -5 -11 -5q-15 0 -15 15q0 5 4 10l574 672q4 6 11 6q15 0 15 -16q0 -4 -4 -9z" />
    <glyph glyph-name="zero" unicode="0" horiz-adv-x="460" 
d="M533 515q-60 -188 -160 -334q-136 -198 -282 -198q-39 0 -61.5 29t-22.5 69q0 72 117 230q103 140 180 202q43 35 74 37l30 -8q24 25 62 25q51 0 63 -52zM497 517q0 19 -25 21q-73 -17 -110 -67l-11 16q-95 -94 -178 -196q-120 -148 -130 -213q-1 -1 -1 -3q0 -54 43 -54
q18 0 63 23q56 29 133 104q72 70 110 129q20 31 56 103q50 100 50 137z" />
    <glyph glyph-name="one" unicode="1" horiz-adv-x="337" 
d="M493 569q0 -2 -112 -144l-182 -230q-41 -56 -154 -209q-23 13 -23 29q0 31 89 147q31 39 93 119q114 152 164 206q-6 1 -20 -4q-10 -4 -25 -9l-5 19q19 6 82 55q60 46 64 46q10 0 19.5 -8t9.5 -17z" />
    <glyph glyph-name="two" unicode="2" horiz-adv-x="562" 
d="M667 469q0 -95 -171 -194q-84 -49 -214 -117l-216 -115q12 0 130 11q75 7 86 7q65 0 77 -33l-338 -46q-3 0 -11 1q-18 22 -18 44t72 64q81 49 297 172q57 31 144 81q65 43 111 100q22 27 22 46q0 29 -52 29q-74 0 -170 -59q-11 -7 -61 -45q-38 -29 -44 -29q-7 0 -15 9
t-8 16q0 22 74 70q136 88 212 88q41 0 67 -29.5t26 -70.5z" />
    <glyph glyph-name="three" unicode="3" horiz-adv-x="486" 
d="M580 478q0 -78 -128 -126q-46 -15 -139 -47q57 -19 77 -36q28 -23 28 -67q0 -60 -54 -115q-45 -44 -109 -71q-80 -34 -140 -34q-42 0 -76 18q-9 5 -19.5 20.5t-10.5 25.5q0 34 14 68q16 39 42 51l19 -5q-46 -64 -46 -85q0 -39 69 -39q75 0 166 57q99 62 99 126
q0 63 -86 63q-12 0 -36.5 -4.5t-36.5 -4.5q-16 0 -20 15v14q27 11 112 36q67 20 115 45q123 63 123 107q0 29 -48 29q-47 0 -120 -26q-67 -24 -113 -53h-14q-10 10 -10 19q0 43 105 80q85 30 125 30q12 0 44 -5q21 -3 44.5 -33.5t23.5 -52.5z" />
    <glyph glyph-name="four" unicode="4" horiz-adv-x="457" 
d="M581 540l-230 -285q3 -2 37 -5q24 -2 30 -20v-15q-9 0 -38 2q-24 2 -37 1q-20 -2 -30 -8q-25 -16 -109 -126q-77 -102 -84 -102q-23 0 -23 20q0 19 64 106q68 93 70 100q-35 0 -107 -9l-71 -9q-9 0 -18 12t-9 21q0 28 87 92q54 40 89 61q195 117 305 171q29 14 46 14
q16 0 28 -21zM461 481q-147 -80 -346 -210q-20 -13 -26 -31h43q6 0 53 2l50 2q30 0 36 6q82 85 190 231z" />
    <glyph glyph-name="five" unicode="5" horiz-adv-x="482" 
d="M573 512q-21 -3 -108 -6q-66 -2 -102 -13q-15 -4 -89 -86q-25 -27 -68 -76q12 1 50 10q33 7 48 7q40 0 65 -25.5t25 -65.5q0 -94 -109 -187q-103 -88 -189 -88q-94 0 -94 77q0 13 12 40.5t22 31.5q3 -10 -3 -29q-6 -22 -6 -29q0 -41 44 -41q85 0 187 94q98 91 98 156
q0 19 -16.5 30t-35.5 11q-21 0 -61 -14q-11 -4 -45 -23q-30 -17 -37 -17q-8 0 -16.5 11.5t-8.5 19.5q0 14 111.5 137.5t125.5 123.5q4 0 20 -12h20q18 0 53 4t53 4q40 0 54 -45z" />
    <glyph glyph-name="six" unicode="6" horiz-adv-x="421" 
d="M470 533q-73 -21 -150 -83q-70 -57 -118 -126v-5q55 34 99 34q31 0 54 -35q19 -29 19 -51q0 -73 -90 -180q-96 -114 -179 -114q-46 0 -71 40q-18 29 -18 64q0 47 26 120q34 95 167 226q145 142 238 142q9 0 23 -14v-18zM324 280q0 43 -39 43q-81 0 -159 -103
q-73 -98 -73 -182q0 -36 40 -36q69 0 153 116q78 107 78 162z" />
    <glyph glyph-name="seven" unicode="7" horiz-adv-x="460" 
d="M562 524q0 -4 -96 -101q-103 -104 -146 -144q-116 -106 -280 -297q-12 0 -19 9q-9 15 -9 28q0 29 206 232q158 156 261 246h-249l-14 7q3 10 14 26q166 27 257 27q75 0 75 -33z" />
    <glyph glyph-name="eight" unicode="8" horiz-adv-x="473" 
d="M566 501q-1 -9 -10 -22q-38 -24 -183 -100q-107 -56 -107 -70q0 33 14.5 -41t14.5 -97q0 -69 -67.5 -135.5t-136.5 -66.5q-25 0 -55 22t-38 46q-7 21 -7 53q0 72 72 142q36 35 152 115q0 105 56.5 161.5t161.5 56.5q53 0 95 -18q9 -4 21 -22q15 -22 17 -24zM485 510
q-26 5 -77 5t-72 -7q-29 -9 -57 -42q-33 -39 -33 -62v-34zM250 194q0 30 -18 92h-14q-62 -34 -124 -93q-78 -74 -78 -122q0 -26 17.5 -41t43.5 -15q58 0 115.5 60t57.5 119z" />
    <glyph glyph-name="nine" unicode="9" horiz-adv-x="403" 
d="M464 503q0 -83 -87 -209q-62 -90 -160 -185q-122 -118 -197 -132q-6 5 -10 5v15l23 16q41 28 78 57q24 19 82 80q66 70 92 112q-2 3 -5 2q-87 -45 -131 -45q-33 0 -55 26.5t-22 59.5q0 71 93 160q80 76 150 103q26 10 62 10q35 0 61 -20.5t26 -54.5zM427 507q0 33 -34 33
q-47 0 -125 -58q-65 -49 -104 -98q-56 -70 -50 -122q7 -14 37 -14q34 0 87 23q47 21 79 46q42 33 81 116q29 62 29 74z" />
    <glyph glyph-name="colon" unicode=":" horiz-adv-x="185" 
d="M142 80q23 0 23 -24q0 -20 -20 -40.5t-40 -20.5q-22 0 -22 24q0 21 19 41t40 20zM302 267q24 0 24 -24q0 -20 -20 -40.5t-40 -20.5q-23 0 -23 24q0 21 19 41t40 20z" />
    <glyph glyph-name="semicolon" unicode=";" horiz-adv-x="185" 
d="M106 0q-27 2 -27 20q0 19 20 37t39 18q28 0 28 -24q0 -37 -46.5 -80.5t-83.5 -43.5q-12 0 -12 10q1 2 35.5 22.5t46.5 40.5zM268 267q24 0 24 -24q0 -20 -20 -40.5t-40 -20.5q-22 0 -22 24q0 21 18.5 41t39.5 20z" />
    <glyph glyph-name="less" unicode="&#x3c;" horiz-adv-x="416" 
d="M175 159l227 -150l-17 -25l-266 176l274 169l15 -26z" />
    <glyph glyph-name="equal" unicode="=" horiz-adv-x="463" 
d="M519 334l-25 -27h-334l25 27h334zM452 247l-24 -27h-334l24 27h334z" />
    <glyph glyph-name="greater" unicode="&#x3e;" horiz-adv-x="419" 
d="M473 153l-228 151l17 25l266 -176l-273 -169l-16 25z" />
    <glyph glyph-name="question" unicode="?" horiz-adv-x="419" 
d="M702 527q-80 0 -181 -38q-10 -4 -75 -56q-5 -1 -10 -1q-18 0 -18 18q0 4 2 9q114 122 277 122q95 0 95 -81q0 -61 -66 -114q-53 -42 -132 -84q-24 -12 -141 -69q-48 -22 -139 -72q-2 -2 -35 -27q-28 -22 -31 -22q-12 0 -12 16q0 32 138 112q129 72 257 143
q138 82 138 120q0 24 -67 24zM231 23q0 -26 -27.5 -45t-54.5 -19q-36 0 -45 29q-2 7 -2 13q0 24 23 42.5t50 18.5q18 0 36 -10q20 -13 20 -29z" />
    <glyph glyph-name="at" unicode="@" horiz-adv-x="871" 
d="M660 161q-57 0 -57 70q0 24 8 55q-68 -113 -121 -121q-13 -2 -22 -2q-57 0 -90 39t-30 96q4 81 67 149.5t143 68.5q38 0 59 -22q17 -17 31 -58l22 61l70 8q-19 -43 -53 -136q-1 -6 -27 -77q-16 -45 -16 -58q0 -52 36 -52q72 0 128 82q49 71 49 130q0 113 -91 189
q-86 71 -201 71q-142 0 -237.5 -91t-95.5 -232q0 -143 94.5 -233t238.5 -90q83 0 156 39.5t119 108.5h25q-46 -79 -128.5 -124t-175.5 -45q-161 0 -269 95q-115 100 -110 258q5 150 122 247q111 91 264 91q128 0 228 -77q109 -83 109 -207q0 -93 -76 -163t-169 -70zM559 493
q-65 0 -109 -86q-35 -68 -35 -126q0 -36 23 -62.5t58 -26.5q33 0 84 97q49 91 49 132q0 30 -20 51t-50 21z" />
    <glyph glyph-name="A" unicode="A" horiz-adv-x="574" 
d="M878 652q0 -24 -114 -181q-131 -180 -145 -205q3 -1 21 -1t50 1l-8 -27q-20 -2 -47 -2q-20 0 -44 1l-188 -257q-2 1 -21 9q-12 5 -14 13l163 232q-20 4 -55 4q-168 0 -195 -13q-45 -22 -262 -239q-2 1 -12 4t-10 8q0 19 103 111l128 114q-111 -6 -195 -16l8 27
q77 5 219 20q10 1 76 60q27 24 81 71q70 59 220 167q182 131 212 131q29 0 29 -32zM820 642h-14q-266 -179 -482 -379l222 2q5 9 144 187q91 117 130 190z" />
    <glyph glyph-name="B" unicode="B" horiz-adv-x="593" 
d="M771 565q0 62 -172 62q-28 0 -42 -6q-30 -13 -100 -107q-8 -11 -93 -129h20q73 0 221 58q166 65 166 122zM598 252q0 47 -87 72q-63 18 -126 18q6 0 -63 -5q-30 -35 -89 -108q-50 -65 -50 -125q0 -34 30 -53q25 -16 62 -16q85 0 198 66q125 73 125 151zM794 536
q0 -57 -76 -96q-49 -25 -150 -49q-90 -21 -101 -30q166 -29 166 -134q0 -92 -128 -171q-115 -71 -215 -71q-56 0 -92 29q-40 32 -40 86q0 16 3 31q-21 -20 -51 -62q-34 -47 -48 -65q-25 1 -25 25q0 25 93 147q40 51 119 154l-6 32l41 9l216 247l-12 -4q-61 0 -136 -26
q-46 -16 -129 -54l-21 9l3 25q29 30 126 58q79 23 142 31q39 5 73 13q2 1 14 13q9 9 19 9q14 0 18 -23q90 -1 134 -22q63 -31 63 -111z" />
    <glyph glyph-name="C" unicode="C" horiz-adv-x="555" 
d="M820 617q0 -63 -83 -180q-87 -122 -146 -122q-37 0 -37 39q0 42 60 110q7 8 80 82h14v-14q-117 -114 -134 -176q0 -6 7 -6q12 0 71 61q46 47 85 107q48 73 48 113q0 25 -13 31q-6 3 -27 3q-29 0 -130 -49q-131 -63 -275 -220q-159 -173 -159 -285q0 -76 83 -76
q72 0 196 69q96 54 174 119v-14q-227 -213 -357 -213q-46 0 -79 28t-47 73q0 -1 0 12q-1 13 -1 29q-1 134 122 275q99 114 240.5 195.5t238.5 83.5q27 1 48 -23t21 -52z" />
    <glyph glyph-name="D" unicode="D" horiz-adv-x="602" 
d="M780 492q0 -104 -103 -236q-84 -107 -191 -183q-124 -88 -211 -88q-45 0 -72 33q-25 30 -25 76q0 19 4 39l-2 14q-4 -4 -59 -79q-35 -48 -70 -67q-13 8 -14 23q-2 16 457 560l-29 -5q-38 0 -210 -65q-16 2 -24 19q63 47 235 95q20 5 69 20q10 5 24 20q16 20 21 24
q13 -7 13 -23q0 -3 -3 -16q27 6 49 6q42 0 72 -21q69 -48 69 -146zM743 530q0 38 -19.5 62.5t-56.5 24.5q-89 0 -103 -8q-43 -25 -174 -192q-109 -138 -164 -221q-22 -33 -22 -60q0 -50 13 -71q17 -27 64 -27q99 0 219 99q97 81 165 184q78 119 78 209z" />
    <glyph glyph-name="E" unicode="E" horiz-adv-x="542" 
d="M771 651q0 -32 -68.5 -84.5t-102.5 -52.5q-14 0 -25 27q1 13 21 30q17 14 32 20l3 -10q-8 -4 -22 -19q1 -1 7 -1q20 0 72.5 38t52.5 56q0 15 -18 15q-108 0 -279 -93q-123 -67 -123 -109q0 -38 112 -38q24 0 192 11q4 -3 4 -13q0 -19 -59 -37l-78 -20q-121 -40 -227 -109
q-144 -94 -144 -186q0 -65 100 -65q123 0 327 157q72 55 70 55q7 0 8 -3l3 -6q-64 -78 -183 -157q-134 -89 -217 -89q-138 0 -138 137q0 134 216 234q12 6 149 64q-7 3 -18 2q-17 -2 -18 -2q-125 0 -125 85q0 83 169 154q147 62 249 62q21 0 39.5 -16t18.5 -37z" />
    <glyph glyph-name="F" unicode="F" horiz-adv-x="476" 
d="M911 685h-24q-15 0 -115 -44q49 8 76 15q56 14 63 29zM933 685q0 -50 -176 -67q-87 -110 -205 -267q26 0 74 7l-9 -24q-3 -7 -82 -12q-69 -114 -149 -207q-119 -137 -195 -137q-59 0 -59 63q0 42 33 101.5t70 75.5v-14q-80 -92 -80 -165q0 -42 29 -42q53 0 279 317l-10 1
q-48 0 -113 -10l-112 -17l10 26q118 26 250 35q53 69 105 138q62 78 115 130q-30 10 -76 10q-155 0 -248 -37q-108 -43 -192 -158h-13q-9 7 -9 19q0 23 71 121q61 84 95 119h13l8 -15l-80 -119q97 58 154 80q82 32 171 32q26 0 77 -6.5t77 -6.5q-33 0 41.5 25.5t94.5 25.5
q22 0 31.5 -2.5t9.5 -19.5z" />
    <glyph glyph-name="G" unicode="G" horiz-adv-x="519" 
d="M797 645q-11 -9 -30 -29q-1 -12 -5 -30q-6 -28 -64 -96.5t-82 -72.5q-13 -2 -22 -2q-14 0 -14 21q0 32 69 97q29 28 95 88q-11 28 -46 28q-66 0 -191 -71q-145 -82 -256 -193q-59 -59 -115 -143q-70 -105 -70 -162q0 -40 58 -40q134 0 491 318q11 -17 11 -24
q0 -18 -26 -49q-37 -46 -135 -163q-52 -59 -185 -213q-28 -41 -91 -113q-9 -8 -23 -8l-19 9l-5 22q0 19 56 100.5t70 82.5q-22 -39 -21 -54q19 23 207 233l-3 5q-225 -184 -325 -184q-42 0 -67 35q-23 32 -23 75q0 99 122 240q96 111 237 209q172 119 284 119q56 0 86 -50
l18 22zM733 581q-28 -16 -64 -53q-41 -41 -45 -66l6 -3q22 1 60 49t43 73z" />
    <glyph glyph-name="H" unicode="H" horiz-adv-x="679" 
d="M984 648l-235 -310q78 3 82 1q0 -11 -7 -24l-93 -3q-218 -333 -245 -333q-7 0 -12.5 14.5t-5.5 22.5q0 22 191 285q-82 -3 -122 -5q-96 -5 -106 -11.5t-105 -121.5q-51 -62 -118 -120q-91 -79 -138 -79q-31 0 -54.5 24.5t-23.5 55.5q0 58 58 137q51 70 108 108l9 -6
q-51 -55 -91 -116q-54 -82 -54 -132q0 -36 31 -36q54 0 174 116q93 90 150 167q-5 1 -11 1q-15 0 -43.5 -3t-43.5 -3l-8 9l8 12q25 5 126 14l150 173q83 97 140 181v4q-49 -22 -227 -194h-18q-4 3 -4 13q0 25 113.5 118t143.5 93q21 0 21 -22q0 -28 -119 -176
q-38 -47 -151 -184q7 -4 57 2q40 4 99 6q47 1 70 9q8 3 136 172q125 165 145 165q17 0 23 -3v-21z" />
    <glyph glyph-name="I" unicode="I" horiz-adv-x="384" 
d="M679 633q0 -74 -218 -318q13 0 72 9q0 -11 -4 -14q-10 -7 -42 -15q-36 -9 -46 -14q-33 -15 -167 -163q-125 -138 -162 -138q-27 0 -27 25q0 21 35 62q17 19 50 57h12q-15 -26 -44 -80l197 210l-3 3q-55 -5 -90 -5q-120 0 -120 91q0 70 96 156q73 65 182 122
q126 65 206 65q73 0 73 -53zM651 647q0 8 -5 11h-34q-55 0 -188 -81q-106 -65 -174 -122q-99 -84 -99 -130l1 -9q25 -24 116 -24q60 0 115 9q88 93 154 171q114 136 114 175z" />
    <glyph glyph-name="J" unicode="J" horiz-adv-x="450" 
d="M725 663q0 -64 -94 -213q-23 -36 -131 -191q11 2 34 0q-6 -6 -30.5 -17t-34.5 -21q-33 -34 -78 -91q-57 -73 -80 -98q-68 -76 -100 -108q-57 -58 -109 -95q-43 -31 -91 -31q-35 0 -35 26q0 14 10 34q0 69 94 153q75 67 184 129q17 10 126 68q8 4 24 25l22 30q25 30 53 74
q-39 -27 -123 -67q-108 -52 -154 -52q-43 0 -71 38q-26 34 -26 79q0 21 13 55.5t27 52.5q43 57 103 104q26 20 98 66q45 29 144 65q109 40 158 40q26 0 46.5 -15t20.5 -40zM694 670q0 9 -4 14h-47q-37 0 -144 -50q-74 -35 -120 -63q-154 -95 -212 -197q-22 -39 -22 -68
q0 -53 63 -53q46 0 153 43q50 20 104.5 53t85.5 65q23 24 78 116q65 109 65 140zM354 164q-204 -105 -303 -229q-43 -54 -43 -74v-23q4 0 9 -5q108 40 337 331z" />
    <glyph glyph-name="K" unicode="K" horiz-adv-x="422" 
d="M943 667q3 -13 -13 -21q-3 -2 -637 -355q-12 -7 -11 -15l112 -262q1 -2 1 -6q0 -9 -7 -17t-16 -8q-17 0 -55 94q-12 29 -81 175l-203 -252h-14q-17 15 -17 23q0 24 69 111q23 28 70 85q105 129 335 409v5l-184 -133q-6 1 -6 10q0 19 116 98q112 76 127 76q10 0 17 -8
q8 -12 17 -24l-257 -314l3 -2l614 344q7 0 20 -13z" />
    <glyph glyph-name="L" unicode="L" horiz-adv-x="653" 
d="M924 640q0 -53 -92 -182q-94 -132 -141 -132q-32 0 -32 41q0 42 52 111q49 66 90 88q-24 -31 -71 -95t-47 -98q0 -6 6 -6q37 0 117 126q77 122 77 168v9q-12 15 -24 15q-42 0 -135 -95q-59 -61 -116 -136q-73 -97 -273 -356l35 -9q38 -11 115 -33q65 -18 117 -18
q9 0 26 1.5t26 1.5q-30 -51 -103 -51q-46 0 -135.5 29t-124.5 29q-6 0 -35 -33q-81 -93 -195 -93q-35 0 -64 20q-32 22 -32 55q0 53 69 93q59 34 117 34q22 0 66 -8t63 -8l4 3q71 73 187 233q120 166 186 237q120 128 189 128q31 0 54.5 -19.5t23.5 -49.5zM230 55
q-28 14 -88 14q-153 0 -153 -74q0 -21 21 -34q18 -11 41 -11q90 0 179 105z" />
    <glyph glyph-name="M" unicode="M" horiz-adv-x="919" 
d="M1191 653q0 -59 -67 -136l-206 -229q-131 -145 -180 -243q0 -10 12 -23q34 2 99 64l111 104l9 -12q-35 -44 -111 -110q-89 -78 -122 -78q-18 0 -28.5 17t-10.5 36q0 61 104 191q47 59 207 234q126 138 154 190q0 14 -12 14q-28 0 -57 -25q-303 -259 -522 -534
q-17 -22 -50 -65q-42 -54 -48 -54q-8 0 -21 10.5t-13 17.5q0 30 104 158l193 237q104 131 104 175l-2 2q-43 0 -201 -143q-127 -115 -324 -339q-114 -130 -122 -130q-9 0 -20 9.5t-11 18.5q0 18 117 159l217 262q117 149 117 184q0 8 -7 12h-10q-8 0 -41 -23
q-83 -58 -174 -153q-55 -57 -154 -174q-3 1 -18 13q47 85 177 216q148 149 217 149q35 0 35 -44q0 -48 -49 -122q-25 -38 -75 -115v-4q52 49 159 147q120 108 165 108q23 0 29 -17q4 -8 4 -32q0 -35 -48 -111.5t-48 -82.5q47 37 127 122q85 89 128 125q80 67 124 67
q39 0 39 -43z" />
    <glyph glyph-name="N" unicode="N" horiz-adv-x="732" 
d="M1022 629q0 -22 -26 -69q-22 -39 -42 -63q-88 -103 -224 -263q-194 -229 -194 -239v-1q34 0 166 99l8 -10q-20 -32 -82 -77q-66 -48 -98 -48q-18 0 -30.5 22t-12.5 41q0 6 12 23q15 21 15 23q4 8 105 122q93 105 121 135q46 48 128 153q102 130 102 159q0 17 -13 17
q-29 0 -152 -85q-155 -107 -321 -269q-90 -88 -288 -305q-23 11 -23 27q0 26 123 166l228 259q122 147 122 195q0 10 -12 10q-11 0 -54 -27q-87 -54 -185 -143q-101 -92 -158 -172q-19 8 -19 24q0 56 175 199.5t237 143.5q18 0 29.5 -16t11.5 -35q0 -40 -52 -119
q-11 -17 -80 -112v-4q73 71 205 169q163 121 217 121q21 0 41 -15.5t20 -35.5z" />
    <glyph glyph-name="O" unicode="O" horiz-adv-x="594" 
d="M808 605q0 -54 -51 -158q-42 -85 -92 -158q-2 -3 0 -13q4 -13 4 -15q-11 0 -25 -6q-26 -36 -114 -121q-63 -61 -132 -107q-94 -61 -154 -61q-68 0 -105 61q-29 47 -29 109q0 114 115 265q99 131 212 207q5 3 48 33.5t57 30.5q4 0 11.5 -6t11.5 -6q-2 0 50.5 28.5
t86.5 28.5q46 0 76 -33t30 -79zM779 633q0 22 -15.5 36.5t-37.5 14.5q-90 0 -222.5 -125.5t-132.5 -214.5q0 -50 46 -63q18 -5 83 -5q86 0 94 6q50 29 118 161q67 129 67 190zM554 238l-99 5q-57 6 -83 35.5t-26 87.5q0 65 57 151q-102 -99 -172 -207q-84 -130 -84 -219
q0 -84 85 -84q62 0 165 80q84 65 157 151z" />
    <glyph glyph-name="P" unicode="P" horiz-adv-x="431" 
d="M758 556q0 -109 -144 -194q-126 -74 -245 -79q-36 -1 -77 -8q-15 -5 -237 -301q-27 11 -27 31q0 30 192 269q-3 1 -36 9q-23 5 -23 22l9 15q6 5 28 5q9 0 28 -2t28 -2t121 136q45 55 134 164l-7 2q-30 0 -156 -41q-116 -38 -161 -57q-11 4 -11 21q0 36 176 88
q160 47 219 47q189 0 189 -125zM738 561q0 32 -38 52q-33 18 -67 18h-65q-32 -64 -109 -155q-99 -117 -120 -146q100 0 211 44q124 49 164 124q24 45 24 63z" />
    <glyph glyph-name="Q" unicode="Q" horiz-adv-x="585" 
d="M518 130q25 -9 51 -9q3 0 9 -9.5t6 -13.5q0 -14 -13.5 -26t-27.5 -12q-4 0 -32 9q-15 5 -31 10q-128 -106 -216 -106q-122 0 -122 128q0 120 86 262q71 117 178 217q98 91 121 90l19 -1q2 -2 2 -4q-1 0 -5 -11.5t-43 -47.5l-52 -48q-160 -172 -223 -316q-43 -98 -43 -127
q0 -11 2 -38q76 64 202 64q35 0 59 -5q97 97 179 211q111 154 111 237q0 60 -44 60q-69 0 -149 -87q-12 -13 -119 -140l-16 -9q-14 3 -14 19q0 6 15 26q7 9 21 26q43 62 112 121q86 73 140 73q86 0 86 -97q0 -102 -87 -238q-52 -82 -162 -208zM391 84q-73 8 -79 8
q-26 0 -71 -16q-53 -19 -53 -38q0 -13 18.5 -24.5t32.5 -11.5q29 0 81 30q45 26 71 52z" />
    <glyph glyph-name="R" unicode="R" horiz-adv-x="596" 
d="M838 575q0 -66 -90 -137q-138 -109 -412 -172q-5 0 -19 -5l149 -102q90 -63 144 -130q6 -5 6 -10q0 -3 -3.5 -11.5t-3.5 -14.5q-3 0 -9 -1t-9 -1q63 0 -23 63q-66 49 -194 117q-118 63 -131 63q-12 0 -102 -127t-100 -127q-8 0 -16.5 11.5t-8.5 19.5q0 41 217 300
q167 199 245 281q-2 2 -11 2q-8 0 -77.5 -29.5t-77.5 -29.5q-16 0 -26 20q-7 14 11 24q64 34 132 53q106 29 122 35q8 3 42 37h33q2 -2 -3.5 -10.5t-5.5 -11.5h8q8 1 15 1h32q166 0 166 -108zM808 590q0 25 -43 38q-29 8 -63 8l-22 2q-22 2 -39 2q-51 0 -72 -15
q-59 -43 -146 -156l-136 -175h15q75 18 187 61q192 74 283 172q36 39 36 63z" />
    <glyph glyph-name="S" unicode="S" horiz-adv-x="556" 
d="M877 640q0 -55 -82 -124t-138 -69q-12 0 -23.5 11t-11.5 23q0 23 49 55q44 29 71 36l5 -11q-55 -24 -92 -61l-1 -1q0 -5 3 -8q173 63 191 143q-17 21 -53 19l-19 -1q-182 -10 -393 -135q-83 -49 -83 -88q0 -27 76 -41q115 -21 142 -32q76 -32 76 -101q0 -113 -156 -200
q-137 -76 -261 -76q-133 0 -133 94q0 57 80 109q73 48 134 48l11 -2l-3 -21q-62 -10 -120 -39q-76 -38 -76 -86q0 -47 138 -47q82 0 216 75q146 82 146 155q0 47 -76 59q-47 7 -142 20q-76 20 -76 81q0 79 153 168q179 104 347 104q46 0 66 -7q35 -12 35 -50z" />
    <glyph glyph-name="T" unicode="T" horiz-adv-x="383" 
d="M690 618q-127 -169 -304 -396q-119 -153 -187 -221q-14 -14 -34 -14q-12 0 -23 11t-11 23q0 20 37 75q34 51 54 68l10 -5l-32 -48q-18 -27 -22 -52l458 553q-3 0 -229 -21q-164 -15 -230 -15h-6q-48 0 -48 34q0 21 91 47q62 18 112 25l22 -10q-41 -12 -64 -19
q-45 -15 -54 -31q9 -3 19 -3l25 1q11 0 137 11l262 22l80 92h19q3 0 4 -12q0 -6 -21 -36q-9 -13 -27 -38l187 10q8 0 8 -2q-2 -2 -2 -6t7 -11q-5 -3 -11 -12q-4 -3 -14 -4q-117 -15 -213 -16z" />
    <glyph glyph-name="U" unicode="U" horiz-adv-x="596" 
d="M297 506q50 52 115 103q88 67 131 67q17 0 28 -12.5t11 -30.5q0 -8 -2 -19l-170 -191q-71 -83 -143 -165q-132 -164 -132 -221q0 8 4 -15q4 -3 10 -3q3 0 16 4q23 6 81 45l27 17l13 9q4 3 3 4q117 78 233 182q166 149 369 387q9 10 12 10q9 0 20.5 -11t11.5 -19
q-2 -9 -110 -133q-206 -237 -322 -439q-20 -34 -20 -46q0 -9 6 -17q5 -2 11 -2q33 0 114 72q46 44 91 87l14 -9q-42 -53 -95 -102q-78 -71 -120 -71q-57 0 -57 54q0 45 68.5 150t68.5 102q-1 3 -1 2q-92 -85 -183 -170q-171 -147 -239 -147q-30 0 -47 26q-14 23 -14 55
q0 36 11 48q68 163 206 297q59 57 118 113q88 86 104 109q2 4 2 5q0 4 -4 4q-48 -14 -121 -61q-62 -41 -109 -83z" />
    <glyph glyph-name="V" unicode="V" horiz-adv-x="539" 
d="M871 632q0 -21 -11 -43t-22 -42q-35 -66 -148 -198q-127 -148 -244 -246q-144 -120 -224 -120q-36 0 -59 33q-20 30 -20 67q0 84 67 191q46 73 151 193q127 145 159 188v11q-2 3 -10 3q-47 0 -188 -123q-111 -96 -139 -131q-11 -13 -33 -38.5t-24 -43.5q1 -1 0 -6
q0 -3 5 -3q21 0 72 39q7 5 67 53q3 -1 10 -6q-9 -26 -67 -72t-84 -46q-11 0 -22.5 14.5t-11.5 25.5q0 12 15 39l20 36q27 63 174.5 176.5t211.5 113.5q44 0 44 -36q0 -24 -17 -52q-67 -82 -198 -248q-161 -209 -161 -302q0 -48 36 -48q77 0 330 242q68 65 148 156
q144 164 144 223q0 15 -8 23l-26 -14q19 0 -22 -31q-44 -32 -46 -30q-2 -2 -4 -2q-5 0 -5 11q75 98 104 98q20 0 30 -26q6 -16 6 -29z" />
    <glyph glyph-name="W" unicode="W" horiz-adv-x="759" 
d="M1056 645q0 -78 -143 -270q-109 -147 -207 -246q-139 -141 -205 -141q-38 0 -59 31q-19 27 -19 67q0 81 81 230v5q-59 -67 -180 -200q-132 -141 -202 -141q-38 0 -53 20q-12 16 -12 57q0 109 180 308q79 87 274 266q-3 6 -10 6q-38 0 -155 -85q-112 -82 -136 -121l3 -3
q9 0 72 35l5 -7q-7 -12 -47 -37.5t-53 -25.5q-11 0 -32 20q-1 4 -1 9q0 59 156 159q150 96 216 96q7 0 14.5 -9t7.5 -17q0 -32 -126 -160q-185 -189 -230 -242q-120 -142 -110 -214q2 -17 4.5 -21t17.5 -4q47 0 207 153q98 94 278 285q144 153 150 153q8 0 15 -8.5t7 -17.5
q0 -14 -80 -112q-106 -130 -149 -196q-80 -123 -80 -201q0 -50 38 -50q56 0 178 129q86 91 192 235q122 166 157 255q-4 6 -14 6q-20 0 -87 -63q-61 -57 -81 -84l-14 6q10 37 85.5 109t110.5 72q36 0 36 -36z" />
    <glyph glyph-name="X" unicode="X" horiz-adv-x="517" 
d="M926 647q-6 -4 -217 -136q-138 -87 -218 -146q-12 -9 -57.5 -147t-45.5 -164q0 -24 16 -24q22 0 83 46l76 58q5 -7 3 -11q-38 -43 -85 -80q-57 -45 -85 -45t-43 23t-13 52q2 28 19 82q19 58 38 115l13 41l-15 -6q-68 -41 -171 -125q-115 -93 -194 -173q-7 -2 -21 -9
q-6 5 -6 16q0 31 184 174q219 170 244 196q7 21 42 116q15 38 43 120q4 13 4 17q-1 8 -12 8q-29 0 -112 -73q-52 -46 -90 -87q-3 0 -9 2.5t-9 2.5v16q0 5 19 24q27 27 30 28q24 27 81 69q73 54 104 54q23 0 37.5 -18t11.5 -41q-20 -63 -54 -190l210 136q168 108 190 108
q5 0 7 -12q1 -15 2 -17z" />
    <glyph glyph-name="Y" unicode="Y" horiz-adv-x="538" 
d="M909 637l-646 -820q-5 -6 -5 -11q0 -8 13 -5l67 47l15 -5q-21 -27 -89 -80q-61 -47 -73 -52q-18 -7 -25 -7q-12 0 -19 12v13q0 39 262 366q49 61 176 221v5q-61 -57 -184 -168q-151 -133 -212 -133q-33 0 -51 32q-15 26 -15 62q0 74 83 181q52 67 172 182.5t170 178.5v11
q-3 2 -8 2q-45 0 -171 -81q-99 -64 -134 -95.5t-61 -57.5q-35 -36 -55 -69v-11q2 -2 14 -2q34 0 125 51q-7 -22 -56 -50.5t-75 -28.5q-16 0 -28 10t-12 26q0 21 43 79q58 78 185 162q139 91 223 91q46 0 46 -40q0 -41 -82 -127q-72 -73 -215 -221q-132 -140 -133 -234
q0 -15 25 -15q64 0 258 163q126 106 204 186q36 37 109 125q69 82 111 123q8 8 22 8q16 0 26 -24z" />
    <glyph glyph-name="Z" unicode="Z" horiz-adv-x="387" 
d="M726 566q0 -106 -174 -226q-109 -75 -270 -146q20 -5 23 -23q-1 4 -1 -27q21 8 62 24q49 18 62 18l-1 -13q-22 -8 -66 -23q-52 -19 -57 -28q-5 -24 -19 -69q-35 -83 -146 -177q-119 -101 -201 -101q-52 0 -52 44q0 80 193 207q28 19 189 100q11 6 11 36q0 7 -7.5 14.5
t-14.5 7.5q-21 0 -64 -16t-64 -16q-12 0 -23 7.5t-11 18.5q0 27 68 35q30 3 89 8q106 30 263 150q177 135 177 222q0 48 -70 48q-84 0 -218 -57q-139 -59 -185 -121q2 -3 4 -3q29 0 187 66l8 -8q-22 -25 -99 -57t-112 -32q-32 0 -32 24q0 66 107 128q71 41 166 70t142 29
q58 0 95 -27q41 -30 41 -87zM258 99q-215 -111 -343 -269q-3 -8 -2 -9q1 -2 7 -9q89 5 197 106q91 86 141 181z" />
    <glyph glyph-name="bracketleft" unicode="[" horiz-adv-x="307" 
d="M667 727l-21 -27h-83l-719 -834h83l-19 -27h-138l764 888h133z" />
    <glyph glyph-name="backslash" unicode="\" horiz-adv-x="289" 
d="M174 -7q-19 0 -32 14t-13 33q0 35 65 101q19 19 93 90q4 13 4 17q0 5 -7 4l-24 -1q-48 0 -74 -32t-95 -112q-24 -26 -111 -111l-12 10l112 113q62 65 101 119q-2 5 -2 12q0 31 22.5 65.5t51.5 38.5q11 -10 11 -23q0 -9 -6.5 -24t-7.5 -21q31 7 48 7q39 0 37 -43
q-2 -32 -49 -84l-69 -75q-18 -15 -45 -51q-4 -27 17 -27q15 0 32 12q180 126 253 203h16q-38 -50 -150 -138q-123 -97 -166 -97z" />
    <glyph glyph-name="bracketright" unicode="]" horiz-adv-x="307" 
d="M-240 -161l21 27h83l719 834h-84l19 27h139l-764 -888h-133z" />
    <glyph glyph-name="asciicircum" unicode="^" horiz-adv-x="574" 
d="M867 805q18 -4 99 -85l-6 -10q-37 13 -106 46q-25 -12 -65 -25l-65 -21l-1 10l71 46q39 25 73 39z" />
    <glyph glyph-name="underscore" unicode="_" horiz-adv-x="456" 
d="M-55 -64h511v-30h-511v30z" />
    <glyph glyph-name="grave" unicode="`" horiz-adv-x="574" 
d="M420 430q-25 0 -20 -33q2 -9 57 -30l75 -28l4 10q-103 81 -116 81z" />
    <glyph glyph-name="a" unicode="a" horiz-adv-x="343" 
d="M256 -12q-41 0 -41 34q0 21 26 70q-98 -99 -147 -99q-40 0 -40 52q0 67 95.5 157t162.5 90q34 0 38 -47q4 6 28 34l35 -25q-155 -179 -155 -225q4 -14 7 -14q35 0 140 88q97 82 125 122l14 -2q-26 -44 -134 -137q-114 -98 -154 -98zM329 270q-10 2 -13 2
q-31 0 -126.5 -102.5t-95.5 -135.5q0 -17 16 -15l20 3q46 22 122 101q82 85 82 126q0 14 -5 21z" />
    <glyph glyph-name="b" unicode="b" horiz-adv-x="345" 
d="M472 447q-62 -49 -209 -164q31 10 49 10q61 0 61 -61q0 -51 -39 -88q51 3 105 23q64 24 89 58h12q-28 -41 -93 -68q-55 -22 -114 -26q-23 -27 -72 -81t-85 -54q-35 0 -56.5 20.5t-21.5 55.5q0 53 104 201q102 145 212 258q124 127 175 127q30 0 30 -30q0 -61 -147 -181z
M598 639q-38 0 -153 -128q-97 -108 -139 -175q303 223 303 288q0 15 -11 15zM313 279q-26 0 -47 -28.5t-21 -55.5q0 -17 9 -33t25 -16q15 0 39 47q22 44 22 62q0 24 -27 24zM234 232q-30 -22 -70 -85q-42 -66 -42 -98t23 -32q10 0 19 7q17 2 59.5 46.5t48.5 63.5
q-41 11 -41 64q0 14 3 34z" />
    <glyph glyph-name="c" unicode="c" horiz-adv-x="279" 
d="M164 -17q-37 0 -57.5 24t-20.5 62q0 65 87.5 151t152.5 86q12 0 29.5 -13.5t17.5 -25.5q0 -31 -40.5 -81t-70.5 -50q-11 0 -17 11q4 33 41 73q30 34 66 56l-4 5l-4 3q-51 -3 -138 -101q-84 -94 -84 -150v-10q18 -23 40 -23q86 0 297 219h11q-39 -56 -142 -141
q-115 -95 -164 -95zM267 159q19 8 44 40q23 28 31 51q-19 -9 -46.5 -40.5t-28.5 -50.5z" />
    <glyph glyph-name="d" unicode="d" horiz-adv-x="356" 
d="M336 258q-8 12 -22 12q-12 0 -22 -6q-38 -22 -52 -33q-45 -34 -68 -72q-54 -48 -68 -120q-5 -23 17 -24q52 23 156 150q61 75 61 83t-2 10zM277 51q1 -36 13 -36q59 0 255 212h14q-13 -16 -47 -56q-62 -67 -109 -108q-79 -68 -120 -68q-44 0 -48 52q-1 14 4 27q6 17 7 23
q-93 -103 -147 -103q-15 0 -26.5 16.5t-11.5 32.5q0 75 86 163q26 27 73 54q53 31 83 31q41 0 48 -34q16 17 182 215q69 82 176 191q25 -25 25 -29q0 -3 -119 -138q-137 -156 -220 -260q-119 -149 -118 -185z" />
    <glyph glyph-name="e" unicode="e" horiz-adv-x="266" 
d="M134 -11q-29 0 -47.5 19t-18.5 48q0 68 87 158t155 90q16 0 28 -11t12 -27q0 -49 -112 -114q-55 -32 -103 -51q-11 -27 -11 -48q0 -34 33 -34q59 0 155 81q19 16 138 123h16q-64 -71 -153 -141q-118 -93 -179 -93zM304 290q-37 -7 -96 -71.5t-69 -103.5q175 89 175 153
q0 19 -10 22z" />
    <glyph glyph-name="f" unicode="f" horiz-adv-x="237" 
d="M164 114q2 -4 7 -5h10q40 0 128 43.5t109 75.5l20 -1q-40 -49 -119 -89q-70 -35 -141 -50q39 -11 39 -49q0 -58 -133.5 -190t-191.5 -132q-33 0 -33 39q0 47 83 159q44 60 156 189q84 97 84 109q0 6 -3 6q-5 -1 -8 0l17 15q26 23 181 209q170 204 188 222q23 -16 31 -35z
M155 65q-2 0 -17 1q-11 1 -15 -3q-45 -39 -132 -151q-98 -126 -100 -164q-1 -1 -1 -4q0 -9 8 -9q3 0 7 1q47 25 132 110q94 94 126 160q10 21 10 36q0 23 -18 23z" />
    <glyph glyph-name="g" unicode="g" horiz-adv-x="304" 
d="M4 -301l-7 4q-14 21 -14 25q0 35 99 164q36 47 130 167l-2 4q-19 -14 -58.5 -41t-60.5 -27q-44 0 -44 57q0 68 109 157q105 86 176 86q24 0 46 -22q2 -15 2 -21q0 -5 -5 -29q9 -18 9 -23q0 -10 -66 -87q-220 -257 -308 -410q-2 -4 -6 -4zM327 270q-55 0 -144 -90
t-90 -145q5 -13 17 -13q37 0 145.5 90.5t108.5 125.5q0 20 -8 26t-29 6z" />
    <glyph glyph-name="h" unicode="h" horiz-adv-x="329" 
d="M360 258q0 8 -8 8q-32 0 -167 -120q-115 -103 -161 -157l-28 28q169 218 513 649q16 -11 17 -12q6 -6 6 -20t-60 -87q-131 -161 -316 -391l3 -9q173 150 222 150q29 0 29 -21q0 -33 -94.5 -138.5t-94.5 -116.5q0 -16 18 -16q53 0 281 223l17 -2l-148 -140
q-113 -99 -162 -99q-40 0 -40 32q0 34 45 92q23 30 83 92q45 47 45 55z" />
    <glyph glyph-name="i" unicode="i" horiz-adv-x="175" 
d="M334 405q-29 3 -28 26q1 19 23 34t41 15q32 -1 31 -26q-1 -20 -23.5 -34.5t-43.5 -14.5zM93 -4q-41 1 -40 43t39 89q30 38 144 169l38 -30q-121 -130 -176 -216q-8 -9 -8 -18q0 -14 14 -14q46 -2 253 202q4 3 8 1q6 -2 8 -2q-27 -40 -133 -129q-114 -96 -147 -95z" />
    <glyph glyph-name="j" unicode="j" horiz-adv-x="184" 
d="M-189 -268q-17 3 -19 26q-8 81 131 189q31 23 91 69q40 31 116 135q87 119 118 151q5 -3 32 -24q-69 -86 -170 -219l6 -6l131 77q80 48 126 97h21q-37 -50 -137 -111q-52 -30 -156 -92q-45 -27 -89 -82q-25 -32 -76 -95q-102 -120 -125 -115zM-190 -226q46 31 92 89
q18 23 74 106q-90 -75 -101 -86q-60 -58 -65 -109zM346 401q-10 1 -19 8.5t-8 17.5q1 19 23 34t42 14q31 -2 30 -26q-1 -20 -24 -34.5t-44 -13.5z" />
    <glyph glyph-name="k" unicode="k" horiz-adv-x="305" 
d="M266 254q11 3 39 20q23 14 40 16q60 7 60 -49q0 -46 -87 -84q-67 -29 -128 -33q22 -27 127 -115l-29 -30l-141 129q-35 -39 -105 -116q-9 1 -31 23l548 657l29 -27zM325 266q-26 -9 -75 -35q-30 -21 -76 -92l57 12q55 21 75 35q31 21 56 62q-10 22 -37 18z" />
    <glyph glyph-name="l" unicode="l" horiz-adv-x="241" 
d="M125 38q0 -16 23 -16q27 0 143.5 88.5t130.5 116.5h19q-24 -43 -146 -137q-127 -97 -167 -97q-46 0 -43 54q3 66 134 253q103 148 184 238q126 140 183 140q22 0 22 -24q0 -68 -165 -225q-75 -69 -224 -208q-16 -15 -55 -89t-39 -94zM583 657q-40 -6 -165 -163
q-115 -144 -144 -205l174 164q106 107 143 184z" />
    <glyph glyph-name="m" unicode="m" horiz-adv-x="523" 
d="M417 -9q-24 -2 -41 7q-21 11 -21 34q0 33 69 104q105 108 93 124q-4 6 -20 6q-36 -1 -148 -117l-148 -153q-29 13 -29 21q0 4 39 45q46 48 47 51q34 38 95 120q1 10 -4.5 21.5t-15.5 11.5q-36 0 -150 -116q-72 -73 -141 -155l-33 24q44 52 228 276l31 -22l-66 -83
q104 101 154 103q17 1 30 -11t13 -29q0 -13 -20 -56q23 32 65 64q50 38 81 38q14 0 26.5 -10.5t12.5 -24.5q0 -36 -85 -127.5t-85 -113.5q0 -15 19 -15q27 0 148 95q115 90 142 124l23 -2q-40 -46 -153 -135q-122 -96 -156 -99z" />
    <glyph glyph-name="n" unicode="n" horiz-adv-x="337" 
d="M247 -8q-16 0 -28.5 15t-12.5 31q0 45 74 116q86 82 99 111q-3 9 -12 9q-39 0 -169 -120q-55 -53 -167 -158l-26 17q120 139 231 279q31 -11 31 -19q0 -5 -31 -39q-34 -37 -38 -45q3 -1 12 2l81 63q59 44 88 44q45 0 45 -35q0 -39 -80 -116q-87 -84 -98 -119
q8 -10 12 -10q32 0 135 89q92 79 124 120h19q-42 -56 -135 -138q-110 -97 -154 -97z" />
    <glyph glyph-name="o" unicode="o" horiz-adv-x="308" 
d="M307 128q-40 -45 -79 -91q-50 -49 -99 -49q-21 0 -37 19t-16 41q0 42 26 85q9 14 40 54q15 19 56 56q48 43 60 43q4 0 5 -6t2 -6q-3 0 18 14t45 14q16 0 26.5 -12.5t9.5 -28.5q-2 -61 -46 -116q37 -7 92 24q47 26 78 59q3 3 5 3t7.5 -3.5t6.5 -2.5q-7 -20 -56.5 -51.5
t-74.5 -37.5q-45 -11 -49 -11q-10 0 -20 3zM325 285q-29 0 -51.5 -30t-20.5 -59q1 -16 15 -28.5t31 -15.5q47 73 47 108q0 25 -21 25zM231 212q-112 -114 -105 -167q4 -32 26 -32q29 0 80 52q42 43 55 68q-19 0 -38.5 29.5t-17.5 49.5z" />
    <glyph glyph-name="p" unicode="p" horiz-adv-x="320" 
d="M170 1q-55 0 -55 54q0 17 4 38l-309 -346l-21 26q282 325 487 574l32 -22q-19 -22 -51 -68q54 36 89 36q19 0 32.5 -18.5t13.5 -38.5q0 -62 -80.5 -148.5t-141.5 -86.5zM304 267q-54 -11 -111 -72.5t-61 -116.5q-3 -34 25 -36q52 -3 122 70t66 126q-1 21 -3 24
q-4 8 -16 8q-7 0 -22 -3z" />
    <glyph glyph-name="q" unicode="q" horiz-adv-x="354" 
d="M303 81q-1 -4 1 -16t2 -15q0 -43 -35 -114q-22 -44 -107 -139q-92 -103 -126 -103q-15 0 -25 15t-10 31q0 47 87 166l128 170q-92 -77 -135 -75q-10 1 -19.5 15t-9.5 25q0 71 97 170.5t168 99.5q25 0 33 -5q17 -8 23 -39q5 3 12 15t12 14q15 -7 33 -23l-127 -173
q120 21 225 126h21q-47 -56 -111 -95q-70 -42 -137 -50zM336 284q-67 -27 -142 -101q-81 -78 -97 -141q0 -16 17 -19q60 35 144 111q102 92 102 134q0 16 -24 16zM288 69h-22l-120 -155q-80 -105 -113 -181l13 -12q36 7 126 114q99 118 111 200z" />
    <glyph glyph-name="r" unicode="r" horiz-adv-x="305" 
d="M508 228q-41 -52 -149 -138q-122 -97 -167 -97q-19 0 -32 14t-13 33q0 37 64 101l94 90q7 11 7 19q0 10 -15 10q-63 0 -108 -51q-2 4 -9 4q-9 -1 -10 0q0 32 30 83q32 56 60 59q5 2 9 2q13 0 13 -22t-14 -49q31 7 48 7q37 0 37 -35q0 -34 -42 -85q-13 -16 -79 -83
q-42 -43 -42 -57q0 -20 17 -20q29 0 145 93q100 80 140 122h16zM262 336q-11 1 -32.5 -25.5t-21.5 -37.5q0 -4 5 -7q6 -3 21 13q12 13 17 22q20 34 11 35z" />
    <glyph glyph-name="s" unicode="s" horiz-adv-x="257" 
d="M440 226q-47 -79 -186 -113q-69 -119 -135 -119q-25 0 -43 21t-18 47q0 45 57 53q31 3 92 9q76 143 76 158q-7 11 -11 12q-15 -2 -21 -12l-56 -61l-13 2q21 26 72 81q9 3 25 7q10 3 18 3q30 0 30 -31q0 -6 -30 -72l-36 -81q98 22 167 96l7 1q1 -1 5 -1zM197 105
q-38 -3 -77 -5q-50 -8 -50 -42q0 -29 33 -29q22 0 54 28q27 25 40 48z" />
    <glyph glyph-name="t" unicode="t" horiz-adv-x="241" 
d="M337 330q-253 -284 -253 -301q-4 -12 -2 -23q5 -5 14 -4q28 0 98 44q54 34 91 65q30 25 137 116l22 -2q-75 -62 -174 -146q-33 -28 -85 -57q-61 -35 -93 -36q-18 0 -30 14t-11 32q2 33 50 96q35 43 71 86q59 77 98 117q-11 0 -165 -2l29 26h161l141 172q39 -18 38 -23
q-6 -14 -121 -151l108 -1l-24 -21z" />
    <glyph glyph-name="u" unicode="u" horiz-adv-x="333" 
d="M253 -6q-40 0 -40 35q0 18 9 34q11 21 13 29q-104 -99 -144 -99q-35 0 -35 51q0 67 175 255l33 -23q-165 -186 -165 -233q0 -24 18 -24q21 0 135 123q47 51 140 154l31 -23l-102 -111q-73 -82 -73 -121q0 -31 18 -31q39 0 137 88q81 73 123 128l11 -2q-24 -48 -128 -137
q-109 -93 -156 -93z" />
    <glyph glyph-name="v" unicode="v" horiz-adv-x="272" 
d="M470 224q-29 -29 -77 -59q-58 -38 -86 -38q-7 -1 -19 0q-7 3 -20 6q-7 -4 -24 -20q-26 -25 -79 -73q-50 -43 -91 -47q-16 -2 -23 16q-6 13 -4 31q3 36 22 62l12 16q21 28 157 179l25 -18q-9 -12 -18 -23q-29 -34 -87 -103q-69 -82 -71 -96q-3 -6 -4 -13q-2 -10 0 -17
t9 -7h6q8 0 28 10q24 12 127 111q-3 20 -2 31q9 47 40 81q21 24 41 31q16 -2 15 -18q-3 -32 -17 -55q-9 -15 -49 -62q10 -4 26 -8q46 0 146 85q6 0 17 -2zM271 165q16 15 37 46q27 38 21 49q-19 6 -41 -34.5t-17 -60.5z" />
    <glyph glyph-name="w" unicode="w" horiz-adv-x="459" 
d="M506 117q-29 0 -47 23q-29 -39 -88 -88q-68 -57 -102 -57q-49 1 -45 49q3 38 28 77q-111 -125 -155 -124q-16 0 -30 15.5t-13 31.5q6 70 197 261q12 -8 32 -26l-102 -120q-76 -90 -78 -113q-1 -22 13 -22q15 0 32 14q61 51 233 241q21 -17 17 -23l-74 -84
q-66 -76 -69 -132q-2 -28 27 -28q19 0 155 145q-8 17 -8 28q0 35 35.5 80.5t69.5 43.5q13 -6 11 -33q-4 -45 -70 -117q10 -20 24 -20q53 0 98 38q13 11 51 49h18q-49 -56 -76 -77q-42 -33 -84 -32zM449 171q68 92 68 112q0 2 -1 2q-19 1 -44 -36.5t-24 -58.5z" />
    <glyph glyph-name="x" unicode="x" horiz-adv-x="321" 
d="M240 250q-3 8 -8 5l-41 -30h-9q66 73 96 73q19 0 16 -20q-3 -21 -15 -59t-15 -56q57 49 176 139l14 -14q-118 -75 -197 -151q-24 -84 -24 -96q0 -29 28 -29q19 0 123 97q43 40 128 120h19q-115 -114 -146 -142q-115 -104 -155 -104q-21 0 -33.5 15.5t-12.5 36.5
q0 35 13 67q-47 -38 -137 -118l-20 2q25 29 81 72q61 47 84 70q7 24 29 96q4 14 6 26z" />
    <glyph glyph-name="y" unicode="y" horiz-adv-x="319" 
d="M194 -47q2 -2 6 -2q33 0 68 11l1 -14q-5 -7 -44 -10q-42 -3 -55 -14q-30 -25 -81 -85.5t-81 -86.5q-51 -44 -91 -44q-46 0 -46 48q0 76 97 119l152 60q6 3 71 78q69 78 79 97q-18 -8 -90 -66q-62 -50 -89 -50q-37 0 -37 39q0 53 27 89q48 64 142 169l38 -30l-99 -114
q-73 -87 -74 -118l20 -11q21 15 121 85q17 12 104 101q80 82 91 84l31 -27zM-106 -220v-40h26q22 0 95 73q60 60 87 96q-110 -30 -148 -62q-60 -51 -60 -67z" />
    <glyph glyph-name="z" unicode="z" horiz-adv-x="319" 
d="M100 -65q-30 -19 -86 -74q-70 -68 -70 -95v-22h24q73 52 142 124q76 78 114 148q-64 -43 -124 -81zM271 39v-10q0 -65 -125.5 -190.5t-190.5 -125.5q-13 0 -21 15t-8 30q0 81 200 219q39 26 117 79l-2 22q-15 15 -23 15q-6 0 -24.5 -6.5t-29.5 -6.5l-7 9q6 11 106 60
q93 46 93 80q0 19 -16 19q-41 -1 -84 -13q-54 -15 -74 -39q-1 1 -10.5 1t-9.5 2q0 9 36 42q49 56 142 56q19 0 35.5 -19t16.5 -38q0 -43 -59 -81q-26 -17 -92 -57q7 -4 33 -37q209 107 236 157h18q-15 -40 -115 -97q-124 -70 -142 -86z" />
    <glyph glyph-name="braceleft" unicode="{" horiz-adv-x="618" 
d="M327 297l-186 -222q-52 -62 -52 -100q0 -43 60 -43q11 0 23 1q7 8 12 16q-40 -4 -40 33q0 35 28 68l186 221q13 11 13 42q0 33 -13 76q115 7 132 39l183 221q30 36 51 49q32 19 85 15q-2 3 9 18q-22 5 -41 5q-73 0 -138 -75l-179 -207q-12 -22 -45 -36q-29 -12 -57 -12
q-13 0 -23 3q1 -5 9 -32q6 -21 6 -30q0 -23 -23 -50z" />
    <glyph glyph-name="bar" unicode="|" horiz-adv-x="260" 
d="M136 -6q-26 0 -43.5 21t-17.5 47q0 24 12 36q-19 -26 -109 -99l-7 9l193 184q126 118 153 118q8 0 17.5 -9.5t9.5 -17.5q0 -5 -30 -72l-36 -81q55 12 86 26q61 26 85 70h12q-25 -73 -190 -113q-73 -119 -135 -119zM90 103q-2 -4 -5 -4v0q13 9 83 17q16 2 55 8
q29 60 73 158q-20 -19 -106 -88q-64 -51 -100 -91zM162 104q-37 -1 -46 -4q-26 -9 -29 -42q-1 -13 16 -22q14 -7 28 -7q37 1 79 76z" />
    <glyph glyph-name="braceright" unicode="}" horiz-adv-x="465" 
d="M429 371l186 221q53 63 53 100q0 44 -61 44q-11 0 -23 -2q-7 -8 -12 -16q40 4 40 -33q0 -33 -28 -67l-185 -222q-14 -11 -14 -42q0 -33 13 -76q-113 -7 -132 -39l-183 -221q-28 -34 -51 -48q-33 -20 -85 -16q2 -3 -8 -17q21 -5 40 -5q74 0 138 74l179 207q14 22 44 35.5
t58 13.5q13 0 23 -3q-1 6 -9 33q-5 17 -5 28q0 25 22 51z" />
    <glyph glyph-name="asciitilde" unicode="~" horiz-adv-x="574" 
d="M969 812l8 -7q-63 -75 -128 -75q-24 0 -69 17t-69 17q-34 0 -86 -47l-9 6q67 76 131 76q22 0 64.5 -16t64.5 -16q45 0 93 45z" />
    <glyph glyph-name="Adieresis" unicode="&#xc4;" horiz-adv-x="574" 
d="M878 652q0 -24 -114 -181q-131 -180 -145 -205q3 -1 21 -1t50 1l-8 -27q-20 -2 -47 -2q-20 0 -44 1l-188 -257q-2 1 -21 9q-12 5 -14 13l163 232q-20 4 -55 4q-168 0 -195 -13q-45 -22 -262 -239q-2 1 -12 4t-10 8q0 19 103 111l128 114q-111 -6 -195 -16l8 27
q77 5 219 20q10 1 76 60q27 24 81 71q70 59 220 167q182 131 212 131q29 0 29 -32zM820 642h-14q-266 -179 -482 -379l222 2q5 9 144 187q91 117 130 190zM908 788q28 0 28 -29q0 -19 -14.5 -36.5t-33.5 -17.5q-29 0 -29 30q0 19 15 36t34 17zM748 786q28 1 28 -29
q0 -20 -14.5 -36.5t-33.5 -16.5q-29 -1 -29 30q0 18 15.5 35t33.5 17z" />
    <glyph glyph-name="Aring" unicode="&#xc5;" horiz-adv-x="574" 
d="M878 652q0 -24 -114 -181q-131 -180 -145 -205q3 -1 21 -1t50 1l-8 -27q-20 -2 -47 -2q-20 0 -44 1l-188 -257q-2 1 -21 9q-12 5 -14 13l163 232q-20 4 -55 4q-168 0 -195 -13q-45 -22 -262 -239q-2 1 -12 4t-10 8q0 19 103 111l128 114q-111 -6 -195 -16l8 27
q77 5 219 20q10 1 76 60q27 24 81 71q70 59 220 167q182 131 212 131q29 0 29 -32zM820 642h-14q-266 -179 -482 -379l222 2q5 9 144 187q91 117 130 190zM863 720q-25 0 -40.5 15.5t-15.5 40.5q0 34 27 61.5t61 27.5q25 0 40.5 -15.5t15.5 -40.5q0 -34 -27 -61.5t-61 -27.5
zM832 775q0 -30 31 -30q24 0 43 20t19 45q0 30 -30 30q-25 0 -44 -20t-19 -45z" />
    <glyph glyph-name="Ccedilla" unicode="&#xc7;" horiz-adv-x="555" 
d="M273 -3l-26 -32q84 4 84 -79q0 -33 -49 -58q-41 -21 -78 -21t-50 9l-33 31q-3 3 -3 6q0 13 16 13q5 0 40 -28q6 -5 36 -5q22 0 47 12q29 15 29 35q0 28 -20 44t-49 16h-15l41 57q1 2 3 3q-72 18 -95 97q0 -1 0 12q-1 13 -1 29q-1 134 122 275q99 114 240.5 195.5
t238.5 83.5q27 1 48 -23t21 -52q0 -63 -83 -180q-87 -122 -146 -122q-37 0 -37 39q0 42 60 110q7 8 80 82h14v-14q-117 -114 -134 -176q0 -6 7 -6q12 0 71 61q46 47 85 107q48 73 48 113q0 25 -13 31q-6 3 -27 3q-29 0 -130 -49q-131 -63 -275 -220q-159 -173 -159 -285
q0 -76 83 -76q72 0 196 69q96 54 174 119v-14q-227 -213 -357 -213h-2q-1 1 -2 1z" />
    <glyph glyph-name="Eacute" unicode="&#xc9;" horiz-adv-x="542" 
d="M771 651q0 -32 -68.5 -84.5t-102.5 -52.5q-14 0 -25 27q1 13 21 30q17 14 32 20l3 -10q-8 -4 -22 -19q1 -1 7 -1q20 0 72.5 38t52.5 56q0 15 -18 15q-108 0 -279 -93q-123 -67 -123 -109q0 -38 112 -38q24 0 192 11q4 -3 4 -13q0 -19 -59 -37l-78 -20q-121 -40 -227 -109
q-144 -94 -144 -186q0 -65 100 -65q123 0 327 157q72 55 70 55q7 0 8 -3l3 -6q-64 -78 -183 -157q-134 -89 -217 -89q-138 0 -138 137q0 134 216 234q12 6 149 64q-7 3 -18 2q-17 -2 -18 -2q-125 0 -125 85q0 83 169 154q147 62 249 62q21 0 39.5 -16t18.5 -37zM754 831
q27 0 27 -28q0 -7 -1 -13q-2 -13 -71 -38q-32 -11 -95 -34l-4 12q24 20 72 58q55 43 72 43z" />
    <glyph glyph-name="Ntilde" unicode="&#xd1;" horiz-adv-x="541" 
d="M852 629q0 -22 -26 -69q-22 -39 -42 -63q-88 -103 -224 -263q-194 -229 -194 -239v-1q34 0 166 99l8 -10q-20 -32 -82 -77q-66 -48 -98 -48q-18 0 -30.5 22t-12.5 41q0 6 12 23q15 21 15 23q4 8 105 122q93 105 121 135q46 48 128 153q102 130 102 159q0 17 -13 17
q-29 0 -152 -85q-155 -107 -321 -269q-90 -88 -288 -305q-23 11 -23 27q0 26 123 166l228 259q122 147 122 195q0 10 -12 10q-11 0 -54 -27q-87 -54 -185 -143q-101 -92 -158 -172q-19 8 -19 24q0 56 175 199.5t237 143.5q18 0 29.5 -16t11.5 -35q0 -40 -52 -119
q-11 -17 -80 -112v-4q73 71 205 169q163 121 217 121q21 0 41 -15.5t20 -35.5zM819 812l8 -7q-63 -75 -128 -75q-24 0 -69 17t-69 17q-34 0 -86 -47l-9 6q67 76 131 76q22 0 64.5 -16t64.5 -16q45 0 93 45z" />
    <glyph glyph-name="Odieresis" unicode="&#xd6;" horiz-adv-x="643" 
d="M858 605q0 -54 -51 -158q-42 -85 -92 -158q-2 -3 0 -13q4 -13 4 -15q-11 0 -25 -6q-26 -36 -114 -121q-63 -61 -132 -107q-94 -61 -154 -61q-68 0 -105 61q-29 47 -29 109q0 114 115 265q99 131 212 207q5 3 48 33.5t57 30.5q4 0 11.5 -6t11.5 -6q-2 0 50.5 28.5
t86.5 28.5q46 0 76 -33t30 -79zM829 633q0 22 -15.5 36.5t-37.5 14.5q-90 0 -222.5 -125.5t-132.5 -214.5q0 -50 46 -63q18 -5 83 -5q86 0 94 6q50 29 118 161q67 129 67 190zM604 238l-99 5q-57 6 -83 35.5t-26 87.5q0 65 57 151q-102 -99 -172 -207q-84 -130 -84 -219
q0 -84 85 -84q62 0 165 80q84 65 157 151zM858 828q28 0 28 -29q0 -19 -14.5 -36.5t-33.5 -17.5q-29 0 -29 30q0 19 15 36t34 17zM698 826q28 1 28 -29q0 -20 -14.5 -36.5t-33.5 -16.5q-29 -1 -29 30q0 18 15.5 35t33.5 17z" />
    <glyph glyph-name="Udieresis" unicode="&#xdc;" horiz-adv-x="596" 
d="M858 808q28 0 28 -29q0 -19 -14.5 -36.5t-33.5 -17.5q-29 0 -29 30q0 19 15 36t34 17zM698 806q28 1 28 -29q0 -20 -14.5 -36.5t-33.5 -16.5q-29 -1 -29 30q0 18 15.5 35t33.5 17zM944 649l-100 -117q-123 -144 -193 -231q-25 -32 -87 -125q-78 -117 -78 -139t-1 -17
q1 -12 12 -12q27 0 91 54q23 21 71 62q16 19 50 47q10 -4 10 -13q0 -11 -38 -44q-28 -26 -86 -78q-56 -48 -94 -48q-47 0 -47 42q0 80 126 266v5q-64 -59 -192 -175q-165 -146 -226 -146q-60 0 -60 72q0 108 171 305q53 61 270 276l-7 6q-51 -23 -227 -150q-5 0 -19 14
q12 37 114 106.5t143 69.5q32 0 32 -40q0 -24 -6 -31q-82 -91 -245 -275q-194 -225 -194 -299q0 -14 12 -14q37 0 177 102q223 162 386 349q181 208 200 205q9 -2 22 -10.5t13 -16.5z" />
    <glyph glyph-name="aacute" unicode="&#xe1;" horiz-adv-x="343" 
d="M256 -12q-41 0 -41 34q0 21 26 70q-98 -99 -147 -99q-40 0 -40 52q0 67 95.5 157t162.5 90q34 0 38 -47q4 6 28 34l35 -25q-155 -179 -155 -225q4 -14 7 -14q35 0 140 88q97 82 125 122l14 -2q-26 -44 -134 -137q-114 -98 -154 -98zM329 270q-10 2 -13 2
q-31 0 -126.5 -102.5t-95.5 -135.5q0 -17 16 -15l20 3q46 22 122 101q82 85 82 126q0 14 -5 21zM406 430q25 0 20 -33q-2 -10 -56 -30l-76 -28l-3 10q102 81 115 81z" />
    <glyph glyph-name="agrave" unicode="&#xe0;" horiz-adv-x="343" 
d="M256 -12q-41 0 -41 34q0 21 26 70q-98 -99 -147 -99q-40 0 -40 52q0 67 95.5 157t162.5 90q34 0 38 -47q4 6 28 34l35 -25q-155 -179 -155 -225q4 -14 7 -14q35 0 140 88q97 82 125 122l14 -2q-26 -44 -134 -137q-114 -98 -154 -98zM329 270q-10 2 -13 2
q-31 0 -126.5 -102.5t-95.5 -135.5q0 -17 16 -15l20 3q46 22 122 101q82 85 82 126q0 14 -5 21zM290 430q-25 0 -20 -33q2 -9 57 -30l75 -28l4 10q-103 81 -116 81z" />
    <glyph glyph-name="acircumflex" unicode="&#xe2;" horiz-adv-x="343" 
d="M256 -12q-41 0 -41 34q0 21 26 70q-98 -99 -147 -99q-40 0 -40 52q0 67 95.5 157t162.5 90q34 0 38 -47q4 6 28 34l35 -25q-155 -179 -155 -225q4 -14 7 -14q35 0 140 88q97 82 125 122l14 -2q-26 -44 -134 -137q-114 -98 -154 -98zM329 270q-10 2 -13 2
q-31 0 -126.5 -102.5t-95.5 -135.5q0 -17 16 -15l20 3q46 22 122 101q82 85 82 126q0 14 -5 21zM362 405q15 -3 80 -68l-5 -8q-30 11 -85 37q-34 -12 -104 -37v8q37 26 114 68z" />
    <glyph glyph-name="adieresis" unicode="&#xe4;" horiz-adv-x="343" 
d="M256 -12q-41 0 -41 34q0 21 26 70q-98 -99 -147 -99q-40 0 -40 52q0 67 95.5 157t162.5 90q34 0 38 -47q4 6 28 34l35 -25q-155 -179 -155 -225q4 -14 7 -14q35 0 140 88q97 82 125 122l14 -2q-26 -44 -134 -137q-114 -98 -154 -98zM329 270q-10 2 -13 2
q-31 0 -126.5 -102.5t-95.5 -135.5q0 -17 16 -15l20 3q46 22 122 101q82 85 82 126q0 14 -5 21zM422 399q22 1 22 -23q0 -15 -11.5 -29t-26.5 -14q-23 -1 -23 24q0 15 12 28.5t27 13.5zM310 398q22 0 22 -23q0 -15 -11.5 -29t-26.5 -14q-23 0 -23 24q0 15 12 28.5t27 13.5z
" />
    <glyph glyph-name="atilde" unicode="&#xe3;" horiz-adv-x="343" 
d="M256 -12q-41 0 -41 34q0 21 26 70q-98 -99 -147 -99q-40 0 -40 52q0 67 95.5 157t162.5 90q34 0 38 -47q4 6 28 34l35 -25q-155 -179 -155 -225q4 -14 7 -14q35 0 140 88q97 82 125 122l14 -2q-26 -44 -134 -137q-114 -98 -154 -98zM329 270q-10 2 -13 2
q-31 0 -126.5 -102.5t-95.5 -135.5q0 -17 16 -15l20 3q46 22 122 101q82 85 82 126q0 14 -5 21zM481 406l5 -11q-41 -48 -83 -48q-14 0 -43 11t-44 11q-22 0 -56 -31l-5 5q47 53 86 53q14 0 40.5 -10t40.5 -10q27 0 59 30z" />
    <glyph glyph-name="aring" unicode="&#xe5;" horiz-adv-x="343" 
d="M256 -12q-41 0 -41 34q0 21 26 70q-98 -99 -147 -99q-40 0 -40 52q0 67 95.5 157t162.5 90q34 0 38 -47q4 6 28 34l35 -25q-155 -179 -155 -225q4 -14 7 -14q35 0 140 88q97 82 125 122l14 -2q-26 -44 -134 -137q-114 -98 -154 -98zM329 270q-10 2 -13 2
q-31 0 -126.5 -102.5t-95.5 -135.5q0 -17 16 -15l20 3q46 22 122 101q82 85 82 126q0 14 -5 21zM383 320q-25 0 -40.5 15.5t-15.5 40.5q0 34 27 61.5t61 27.5q25 0 40.5 -15.5t15.5 -40.5q0 -34 -27 -61.5t-61 -27.5zM352 375q0 -30 31 -30q24 0 43 20t19 45q0 30 -30 30
q-25 0 -44 -20t-19 -45z" />
    <glyph glyph-name="ccedilla" unicode="&#xe7;" horiz-adv-x="279" 
d="M267 159q19 8 44 40q23 28 31 51q-19 -9 -46.5 -40.5t-28.5 -50.5zM156 -17l-14 -17q62 3 62 -52q0 -23 -28.5 -39.5t-53.5 -16.5t-35 7q-13 11 -25 23q-2 1 -2 4q0 8 11 8q4 0 27 -19q4 -3 24 -3q15 0 33.5 9.5t18.5 22.5q0 32 -50 39l-7 1l25 36q-56 14 -56 83
q0 65 87.5 151t152.5 86q12 0 29.5 -13.5t17.5 -25.5q0 -31 -40.5 -81t-70.5 -50q-11 0 -17 11q4 33 41 73q30 34 66 56l-4 5l-4 3q-51 -3 -138 -101q-84 -94 -84 -150v-10q18 -23 40 -23q86 0 297 219h11q-39 -56 -142 -141q-115 -95 -164 -95h-8z" />
    <glyph glyph-name="eacute" unicode="&#xe9;" horiz-adv-x="266" 
d="M134 -11q-29 0 -47.5 19t-18.5 48q0 68 87 158t155 90q16 0 28 -11t12 -27q0 -49 -112 -114q-55 -32 -103 -51q-11 -27 -11 -48q0 -34 33 -34q59 0 155 81q19 16 138 123h16q-64 -71 -153 -141q-118 -93 -179 -93zM304 290q-37 -7 -96 -71.5t-69 -103.5q175 89 175 153
q0 19 -10 22zM376 430q25 0 20 -33q-2 -10 -56 -30l-76 -28l-3 10q102 81 115 81z" />
    <glyph glyph-name="egrave" unicode="&#xe8;" horiz-adv-x="266" 
d="M134 -11q-29 0 -47.5 19t-18.5 48q0 68 87 158t155 90q16 0 28 -11t12 -27q0 -49 -112 -114q-55 -32 -103 -51q-11 -27 -11 -48q0 -34 33 -34q59 0 155 81q19 16 138 123h16q-64 -71 -153 -141q-118 -93 -179 -93zM304 290q-37 -7 -96 -71.5t-69 -103.5q175 89 175 153
q0 19 -10 22zM280 430q-25 0 -20 -33q2 -9 57 -30l75 -28l4 10q-103 81 -116 81z" />
    <glyph glyph-name="ecircumflex" unicode="&#xea;" horiz-adv-x="266" 
d="M134 -11q-29 0 -47.5 19t-18.5 48q0 68 87 158t155 90q16 0 28 -11t12 -27q0 -49 -112 -114q-55 -32 -103 -51q-11 -27 -11 -48q0 -34 33 -34q59 0 155 81q19 16 138 123h16q-64 -71 -153 -141q-118 -93 -179 -93zM304 290q-37 -7 -96 -71.5t-69 -103.5q175 89 175 153
q0 19 -10 22zM342 405q15 -3 80 -68l-5 -8q-30 11 -85 37q-34 -12 -104 -37v8q37 26 114 68z" />
    <glyph glyph-name="edieresis" unicode="&#xeb;" horiz-adv-x="266" 
d="M134 -11q-29 0 -47.5 19t-18.5 48q0 68 87 158t155 90q16 0 28 -11t12 -27q0 -49 -112 -114q-55 -32 -103 -51q-11 -27 -11 -48q0 -34 33 -34q59 0 155 81q19 16 138 123h16q-64 -71 -153 -141q-118 -93 -179 -93zM304 290q-37 -7 -96 -71.5t-69 -103.5q175 89 175 153
q0 19 -10 22zM392 399q22 1 22 -23q0 -15 -11.5 -29t-26.5 -14q-23 -1 -23 24q0 15 12 28.5t27 13.5zM280 398q22 0 22 -23q0 -15 -11.5 -29t-26.5 -14q-23 0 -23 24q0 15 12 28.5t27 13.5z" />
    <glyph glyph-name="iacute" unicode="&#xed;" horiz-adv-x="175" 
d="M93 -4q-41 1 -40 43t39 89q30 38 144 169l38 -30q-121 -130 -176 -216q-8 -9 -8 -18q0 -14 14 -14q46 -2 253 202q4 3 8 1q6 -2 8 -2q-27 -40 -133 -129q-114 -96 -147 -95zM356 430q25 0 20 -33q-2 -10 -56 -30l-76 -28l-3 10q102 81 115 81z" />
    <glyph glyph-name="igrave" unicode="&#xec;" horiz-adv-x="175" 
d="M93 -4q-41 1 -40 43t39 89q30 38 144 169l38 -30q-121 -130 -176 -216q-8 -9 -8 -18q0 -14 14 -14q46 -2 253 202q4 3 8 1q6 -2 8 -2q-27 -40 -133 -129q-114 -96 -147 -95zM270 430q-25 0 -20 -33q2 -9 57 -30l75 -28l4 10q-103 81 -116 81z" />
    <glyph glyph-name="icircumflex" unicode="&#xee;" horiz-adv-x="175" 
d="M93 -4q-41 1 -40 43t39 89q30 38 144 169l38 -30q-121 -130 -176 -216q-8 -9 -8 -18q0 -14 14 -14q46 -2 253 202q4 3 8 1q6 -2 8 -2q-27 -40 -133 -129q-114 -96 -147 -95zM292 405q15 -3 80 -68l-5 -8q-30 11 -85 37q-34 -12 -104 -37v8q37 26 114 68z" />
    <glyph glyph-name="idieresis" unicode="&#xef;" horiz-adv-x="175" 
d="M93 -4q-41 1 -40 43t39 89q30 38 144 169l38 -30q-121 -130 -176 -216q-8 -9 -8 -18q0 -14 14 -14q46 -2 253 202q4 3 8 1q6 -2 8 -2q-27 -40 -133 -129q-114 -96 -147 -95zM362 399q22 1 22 -23q0 -15 -11.5 -29t-26.5 -14q-23 -1 -23 24q0 15 12 28.5t27 13.5zM250 398
q22 0 22 -23q0 -15 -11.5 -29t-26.5 -14q-23 0 -23 24q0 15 12 28.5t27 13.5z" />
    <glyph glyph-name="ntilde" unicode="&#xf1;" horiz-adv-x="337" 
d="M247 -8q-16 0 -28.5 15t-12.5 31q0 45 74 116q86 82 99 111q-3 9 -12 9q-39 0 -169 -120q-55 -53 -167 -158l-26 17q120 139 231 279q31 -11 31 -19q0 -5 -31 -39q-34 -37 -38 -45q3 -1 12 2l81 63q59 44 88 44q45 0 45 -35q0 -39 -80 -116q-87 -84 -98 -119
q8 -10 12 -10q32 0 135 89q92 79 124 120h19q-42 -56 -135 -138q-110 -97 -154 -97zM481 406l5 -11q-41 -48 -83 -48q-14 0 -43 11t-44 11q-22 0 -56 -31l-5 5q47 53 86 53q14 0 40.5 -10t40.5 -10q27 0 59 30z" />
    <glyph glyph-name="oacute" unicode="&#xf3;" horiz-adv-x="308" 
d="M307 128q-40 -45 -79 -91q-50 -49 -99 -49q-21 0 -37 19t-16 41q0 42 26 85q9 14 40 54q15 19 56 56q48 43 60 43q4 0 5 -6t2 -6q-3 0 18 14t45 14q16 0 26.5 -12.5t9.5 -28.5q-2 -61 -46 -116q37 -7 92 24q47 26 78 59q3 3 5 3t7.5 -3.5t6.5 -2.5q-7 -20 -56.5 -51.5
t-74.5 -37.5q-45 -11 -49 -11q-10 0 -20 3zM325 285q-29 0 -51.5 -30t-20.5 -59q1 -16 15 -28.5t31 -15.5q47 73 47 108q0 25 -21 25zM231 212q-112 -114 -105 -167q4 -32 26 -32q29 0 80 52q42 43 55 68q-19 0 -38.5 29.5t-17.5 49.5zM406 430q25 0 20 -33q-2 -10 -56 -30
l-76 -28l-3 10q102 81 115 81z" />
    <glyph glyph-name="ograve" unicode="&#xf2;" horiz-adv-x="308" 
d="M307 128q-40 -45 -79 -91q-50 -49 -99 -49q-21 0 -37 19t-16 41q0 42 26 85q9 14 40 54q15 19 56 56q48 43 60 43q4 0 5 -6t2 -6q-3 0 18 14t45 14q16 0 26.5 -12.5t9.5 -28.5q-2 -61 -46 -116q37 -7 92 24q47 26 78 59q3 3 5 3t7.5 -3.5t6.5 -2.5q-7 -20 -56.5 -51.5
t-74.5 -37.5q-45 -11 -49 -11q-10 0 -20 3zM325 285q-29 0 -51.5 -30t-20.5 -59q1 -16 15 -28.5t31 -15.5q47 73 47 108q0 25 -21 25zM231 212q-112 -114 -105 -167q4 -32 26 -32q29 0 80 52q42 43 55 68q-19 0 -38.5 29.5t-17.5 49.5zM300 430q-25 0 -20 -33q2 -9 57 -30
l75 -28l4 10q-103 81 -116 81z" />
    <glyph glyph-name="ocircumflex" unicode="&#xf4;" horiz-adv-x="308" 
d="M307 128q-40 -45 -79 -91q-50 -49 -99 -49q-21 0 -37 19t-16 41q0 42 26 85q9 14 40 54q15 19 56 56q48 43 60 43q4 0 5 -6t2 -6q-3 0 18 14t45 14q16 0 26.5 -12.5t9.5 -28.5q-2 -61 -46 -116q37 -7 92 24q47 26 78 59q3 3 5 3t7.5 -3.5t6.5 -2.5q-7 -20 -56.5 -51.5
t-74.5 -37.5q-45 -11 -49 -11q-10 0 -20 3zM325 285q-29 0 -51.5 -30t-20.5 -59q1 -16 15 -28.5t31 -15.5q47 73 47 108q0 25 -21 25zM231 212q-112 -114 -105 -167q4 -32 26 -32q29 0 80 52q42 43 55 68q-19 0 -38.5 29.5t-17.5 49.5zM342 405q15 -3 80 -68l-5 -8
q-30 11 -85 37q-34 -12 -104 -37v8q37 26 114 68z" />
    <glyph glyph-name="odieresis" unicode="&#xf6;" horiz-adv-x="308" 
d="M307 128q-40 -45 -79 -91q-50 -49 -99 -49q-21 0 -37 19t-16 41q0 42 26 85q9 14 40 54q15 19 56 56q48 43 60 43q4 0 5 -6t2 -6q-3 0 18 14t45 14q16 0 26.5 -12.5t9.5 -28.5q-2 -61 -46 -116q37 -7 92 24q47 26 78 59q3 3 5 3t7.5 -3.5t6.5 -2.5q-7 -20 -56.5 -51.5
t-74.5 -37.5q-45 -11 -49 -11q-10 0 -20 3zM325 285q-29 0 -51.5 -30t-20.5 -59q1 -16 15 -28.5t31 -15.5q47 73 47 108q0 25 -21 25zM231 212q-112 -114 -105 -167q4 -32 26 -32q29 0 80 52q42 43 55 68q-19 0 -38.5 29.5t-17.5 49.5zM402 399q22 1 22 -23q0 -15 -11.5 -29
t-26.5 -14q-23 -1 -23 24q0 15 12 28.5t27 13.5zM290 398q22 0 22 -23q0 -15 -11.5 -29t-26.5 -14q-23 0 -23 24q0 15 12 28.5t27 13.5z" />
    <glyph glyph-name="otilde" unicode="&#xf5;" horiz-adv-x="308" 
d="M307 128q-40 -45 -79 -91q-50 -49 -99 -49q-21 0 -37 19t-16 41q0 42 26 85q9 14 40 54q15 19 56 56q48 43 60 43q4 0 5 -6t2 -6q-3 0 18 14t45 14q16 0 26.5 -12.5t9.5 -28.5q-2 -61 -46 -116q37 -7 92 24q47 26 78 59q3 3 5 3t7.5 -3.5t6.5 -2.5q-7 -20 -56.5 -51.5
t-74.5 -37.5q-45 -11 -49 -11q-10 0 -20 3zM325 285q-29 0 -51.5 -30t-20.5 -59q1 -16 15 -28.5t31 -15.5q47 73 47 108q0 25 -21 25zM231 212q-112 -114 -105 -167q4 -32 26 -32q29 0 80 52q42 43 55 68q-19 0 -38.5 29.5t-17.5 49.5zM451 406l5 -11q-41 -48 -83 -48
q-14 0 -43 11t-44 11q-22 0 -56 -31l-5 5q47 53 86 53q14 0 40.5 -10t40.5 -10q27 0 59 30z" />
    <glyph glyph-name="uacute" unicode="&#xfa;" horiz-adv-x="333" 
d="M253 -6q-40 0 -40 35q0 18 9 34q11 21 13 29q-104 -99 -144 -99q-35 0 -35 51q0 67 175 255l33 -23q-165 -186 -165 -233q0 -24 18 -24q21 0 135 123q47 51 140 154l31 -23l-102 -111q-73 -82 -73 -121q0 -31 18 -31q39 0 137 88q81 73 123 128l11 -2q-24 -48 -128 -137
q-109 -93 -156 -93zM406 430q25 0 20 -33q-2 -10 -56 -30l-76 -28l-3 10q102 81 115 81z" />
    <glyph glyph-name="ugrave" unicode="&#xf9;" horiz-adv-x="333" 
d="M253 -6q-40 0 -40 35q0 18 9 34q11 21 13 29q-104 -99 -144 -99q-35 0 -35 51q0 67 175 255l33 -23q-165 -186 -165 -233q0 -24 18 -24q21 0 135 123q47 51 140 154l31 -23l-102 -111q-73 -82 -73 -121q0 -31 18 -31q39 0 137 88q81 73 123 128l11 -2q-24 -48 -128 -137
q-109 -93 -156 -93zM310 430q-25 0 -20 -33q2 -9 57 -30l75 -28l4 10q-103 81 -116 81z" />
    <glyph glyph-name="ucircumflex" unicode="&#xfb;" horiz-adv-x="333" 
d="M253 -6q-40 0 -40 35q0 18 9 34q11 21 13 29q-104 -99 -144 -99q-35 0 -35 51q0 67 175 255l33 -23q-165 -186 -165 -233q0 -24 18 -24q21 0 135 123q47 51 140 154l31 -23l-102 -111q-73 -82 -73 -121q0 -31 18 -31q39 0 137 88q81 73 123 128l11 -2q-24 -48 -128 -137
q-109 -93 -156 -93zM362 405q15 -3 80 -68l-5 -8q-30 11 -85 37q-34 -12 -104 -37v8q37 26 114 68z" />
    <glyph glyph-name="udieresis" unicode="&#xfc;" horiz-adv-x="333" 
d="M253 -6q-40 0 -40 35q0 18 9 34q11 21 13 29q-104 -99 -144 -99q-35 0 -35 51q0 67 175 255l33 -23q-165 -186 -165 -233q0 -24 18 -24q21 0 135 123q47 51 140 154l31 -23l-102 -111q-73 -82 -73 -121q0 -31 18 -31q39 0 137 88q81 73 123 128l11 -2q-24 -48 -128 -137
q-109 -93 -156 -93zM422 399q22 1 22 -23q0 -15 -11.5 -29t-26.5 -14q-23 -1 -23 24q0 15 12 28.5t27 13.5zM310 398q22 0 22 -23q0 -15 -11.5 -29t-26.5 -14q-23 0 -23 24q0 15 12 28.5t27 13.5z" />
    <glyph glyph-name="dagger" unicode="&#x2020;" horiz-adv-x="9" 
 />
    <glyph glyph-name="degree" unicode="&#xb0;" horiz-adv-x="574" 
d="M542 429q-31 0 -50.5 20t-19.5 51q0 42 34 76.5t76 34.5q31 0 50.5 -20t19.5 -51q0 -42 -34 -76.5t-76 -34.5zM504 498q0 -38 38 -38q30 0 54 25.5t24 56.5q0 38 -38 38q-31 0 -54.5 -25.5t-23.5 -56.5z" />
    <glyph glyph-name="cent" unicode="&#xa2;" horiz-adv-x="411" 
d="M349 342q11 -7 11 -18q0 -20 -21 -51t-40 -31q-8 0 -14.5 8t-6.5 17q0 15 23 41q-27 -12 -65 -49q-62 -61 -62 -97q0 -26 26 -26q32 0 76 38q20 17 24 17q6 0 6 -7q0 -6 -13 -19q-50 -51 -93 -51q-6 0 -20 3l-35 -50q-23 -33 -28 -33q-11 0 -11 12q0 7 28 44l27 36
q-21 19 -21 46q0 73 93 138q51 36 95 37l8 8l20 25q10 13 22 27q7 7 13 7q7 0 7 -8zM332 313q-9 -4 -23 -20.5t-14 -24.5q0 -4 4 -4q6 0 22 22q10 14 11 27z" />
    <glyph glyph-name="sterling" unicode="&#xa3;" horiz-adv-x="615" 
d="M570 312q-26 0 -26 32q0 33 32 67q25 28 61 47q-9 -12 -25 -30q-47 -52 -47 -79q0 -4 3 -4q28 0 76 73t48 107v6q-8 10 -17 10q-31 0 -100 -71q-46 -48 -87 -102q-68 -90 -89 -123h93q11 0 11 -11q0 -12 -11 -12h-111q-37 -45 -96 -118l24 -7q36 -12 107 -35t107 -23
q20 0 41 3q-24 -42 -79 -42q-32 0 -130 32l-64 21q-30 10 -42 10q-3 0 -23 -21q-23 -24 -24 -26q-53 -47 -125 -47q-27 0 -49 15q-25 17 -25 43q0 41 53 71q45 25 88 25q19 0 49 -5q42 -6 48 -7l2 2q42 42 92 109h-66q-12 0 -12 12q0 11 12 11h83q28 41 55 78q66 90 118 145
q90 95 141 95q24 0 42 -15.5t18 -38.5q0 -40 -58 -117q-60 -80 -98 -80zM138 79q-113 0 -113 -54q0 -32 44 -32q67 0 132 77q-20 9 -63 9z" />
    <glyph glyph-name="section" unicode="&#xa7;" horiz-adv-x="18" 
 />
    <glyph glyph-name="bullet" unicode="&#x2022;" horiz-adv-x="472" 
d="M275 222q0 32 22 55.5t54 23.5q33 0 54.5 -23t21.5 -56t-21.5 -56t-54.5 -23q-32 0 -54 23.5t-22 55.5z" />
    <glyph glyph-name="paragraph" unicode="&#xb6;" horiz-adv-x="12" 
 />
    <glyph glyph-name="germandbls" unicode="&#xdf;" horiz-adv-x="370" 
d="M522 543q39 -2 50 -24q7 -14 5 -58q-1 -21 -26 -60q-23 -35 -43 -53q-35 -32 -88 -51q20 -13 19 -38q-3 -95 -87 -173q-44 -41 -99 -72q5 -2 19 -63l-12 -14q-17 60 -30 68q-25 -9 -32 -8q-52 13 -52 53q0 22 13 37t35 15t32 -23q7 -20 14 -39q51 33 89 75q19 21 48 62
q35 49 35 66q1 29 2 25q-1 8 -16 19q-27 -12 -47 -11q-19 1 -19 12q1 22 52 22q15 0 23 -2q87 48 144 154q4 8 4 29q-1 23 -10 23q-40 1 -98 -53q-99 -92 -227 -254l-212 -268q-93 -111 -106 -110q-8 0 -28 27q420 530 510 607q32 28 50 41q54 40 88 39zM220 33l-10 24
q-8 16 -17 17h-12q-10 -4 -10 -23q0 -25 28 -26q2 1 21 8z" />
    <glyph glyph-name="registered" unicode="&#xae;" horiz-adv-x="489" 
d="M278 686q77 0 132 -53t55 -130q0 -75 -57 -129t-132 -54q-77 0 -129.5 53.5t-52.5 130.5q0 75 54 128.5t130 53.5zM114 504q0 -68 47.5 -116.5t114.5 -48.5t115.5 47t48.5 114q0 68 -47 117t-115 49t-116 -47.5t-48 -114.5zM245 497v-60q0 -21 6 -25t29 -4v-10h-106v10
q23 0 29 4t6 25v131q0 20 -6.5 24t-28.5 4v12h78q67 0 77 -3q26 -8 30 -46q4 -39 -22 -50q-21 -4 -43 -8q32 -9 44 -33q4 -8 11 -41q4 -19 14 -19q18 0 18 38h11q0 -55 -44 -55q-30 0 -37 28q-5 44 -7 50q-9 28 -34 28h-25zM323 557q0 35 -53 35q-17 0 -21 -3.5t-4 -19.5
v-58h21q57 0 57 46z" />
    <glyph glyph-name="copyright" unicode="&#xa9;" horiz-adv-x="771" 
d="M541 235q-72 -111 -180 -111q-83 0 -139 68q-53 64 -53 149q0 84 55 148q58 68 141 68q42 0 106 -32q12 -6 19 -6q24 0 25 32h18v-162h-16q-12 61 -45 101q-40 48 -97 48q-67 0 -100 -71q-25 -54 -25 -130t32 -127q38 -60 110 -60q70 0 136 93zM371 -9q-144 0 -243 102
t-99 246q0 142 102.5 242t245.5 100q144 0 242.5 -102t98.5 -246q0 -142 -102 -242t-245 -100zM377 653q-132 0 -225.5 -91.5t-93.5 -222.5q0 -132 91 -226t222 -94q132 0 226 91.5t94 222.5t-91.5 225.5t-222.5 94.5z" />
    <glyph glyph-name="trademark" unicode="&#x2122;" horiz-adv-x="494" 
d="M456 470v167h-8l-66 -167h-13l-64 171h-6v-171h-21v189l42 -1l56 -146l57 146l43 1v-189h-20zM170 637v-167h-21v167h-65v22h150v-22h-64z" />
    <glyph glyph-name="acute" unicode="&#xb4;" horiz-adv-x="343" 
d="M406 430q25 0 20 -33q-2 -10 -56 -30l-76 -28l-3 10q102 81 115 81z" />
    <glyph glyph-name="dieresis" unicode="&#xa8;" horiz-adv-x="343" 
d="M422 399q22 1 22 -23q0 -15 -11.5 -29t-26.5 -14q-23 -1 -23 24q0 15 12 28.5t27 13.5zM310 398q22 0 22 -23q0 -15 -11.5 -29t-26.5 -14q-23 0 -23 24q0 15 12 28.5t27 13.5z" />
    <glyph glyph-name="AE" unicode="&#xc6;" horiz-adv-x="949" 
d="M707 514q7 23 27 45q24 42 46 83h-14q-118 -80 -228 -180q-71 -66 -214 -199l222 2q78 109 161 249zM646 312q53 28 220 97q-7 3 -18 2q-17 -2 -18 -2q-71 0 -104 32zM1181 657q0 -32 -68.5 -84.5t-102.5 -52.5q-14 0 -25 27q2 28 53 50l3 -10q-8 -5 -22 -19q0 -2 7 -2
q21 0 73 38t52 57q0 15 -18 15q-46 0 -111 -19q-43 -13 -107 -43q-79 -38 -129 -73q-20 -34 -49 -82q21 -24 106 -24q24 0 192 12q4 -4 4 -13q0 -19 -59 -37l-78 -20q-126 -43 -237 -110q-154 -94 -154 -185q0 -36 45 -53q32 -13 75 -13q121 0 327 159l70 54q22 -7 22 -10
q-1 -1 -3 -1q-6 -1 -9 0q-63 -77 -183 -156q-135 -89 -216 -89q-62 0 -103 27q-47 30 -54 89l-79 -108q-2 1 -21 9q-12 5 -14 13l163 232q-20 4 -55 4q-168 0 -195 -13q-45 -22 -262 -239q-2 1 -12 4t-10 8q0 19 103 111l128 114q-111 -6 -195 -16l8 27q77 5 219 20
q10 1 76 60q126 112 281 238q161 131 192 131q29 0 29 -32q0 -8 -7 -24q62 32 142 55q89 26 150 26q21 0 39.5 -15.5t18.5 -36.5z" />
    <glyph glyph-name="Oslash" unicode="&#xd8;" horiz-adv-x="643" 
d="M858 605q0 -54 -51 -158q-42 -85 -92 -158q-2 -3 0 -13q4 -13 4 -15q-11 0 -25 -6q-26 -36 -114 -121q-63 -61 -132 -107q-94 -61 -154 -61q-68 0 -105 61q-29 47 -29 109q0 114 115 265q99 131 212 207q5 3 48 33.5t57 30.5q4 0 11.5 -6t11.5 -6q-2 0 50.5 28.5
t86.5 28.5q46 0 76 -33t30 -79zM829 633q0 22 -15.5 36.5t-37.5 14.5q-90 0 -222.5 -125.5t-132.5 -214.5q0 -50 46 -63q18 -5 83 -5q86 0 94 6q50 29 118 161q67 129 67 190zM604 238l-99 5q-57 6 -83 35.5t-26 87.5q0 65 57 151q-102 -99 -172 -207q-84 -130 -84 -219
q0 -84 85 -84q62 0 165 80q84 65 157 151zM76 -3l847 691q3 2 6 2q16 0 16 -13q0 -4 -3 -6l-853 -691q-3 -3 -6 -3q-11 0 -11 12q0 5 4 8z" />
    <glyph glyph-name="plusminus" unicode="&#xb1;" 
 />
    <glyph glyph-name="yen" unicode="&#xa5;" horiz-adv-x="678" 
d="M245 208h100l53 64q11 33 40 117q15 39 44 122q9 28 -10 28q-31 0 -114 -75q-51 -46 -92 -90q-3 0 -8.5 2.5t-8.5 2.5v17q0 4 19 23l31 30q25 27 83 70q74 55 106 55q24 0 38 -18.5t12 -42.5q-20 -63 -55 -193l214 139q171 109 193 109q4 0 6 -18q0 -2 1 -4
q-25 -17 -214 -134q-130 -80 -214 -142q-14 -18 -48 -62h79q12 0 12 -12t-12 -12h-99l-34 -40h91q12 0 12 -12t-12 -12h-111q-49 -62 -104 -126q-7 -3 -30 4t-23 11q0 10 83 111h-70q-12 0 -12 12t12 12h89l33 40h-80q-12 0 -12 12t12 12z" />
    <glyph glyph-name="mu" unicode="&#xb5;" horiz-adv-x="653" 
d="M230 55q-28 14 -88 14q-153 0 -153 -74q0 -21 21 -34q18 -11 41 -11q90 0 179 105zM242 199l153 51q169 227 233 299q142 160 218 160q31 0 54.5 -19.5t23.5 -49.5q0 -53 -92 -182q-94 -132 -141 -132q-32 0 -32 41q0 42 52 111q49 66 90 88q-24 -31 -71 -95t-47 -98
q0 -6 6 -6q37 0 117 126q77 122 77 168v9q-12 15 -24 15q-42 0 -135 -95q-58 -59 -116 -136l-135 -178l125 41q11 4 11 -17q0 -15 -8 -18l-164 -52q-55 -73 -102 -132l35 -9l114 -33q67 -18 118 -18q9 0 26 1.5t26 1.5q-30 -51 -103 -51q-46 0 -135.5 29t-124.5 29
q-6 0 -35 -33q-81 -93 -195 -93q-35 0 -64 20q-32 22 -32 55q0 53 69 93q59 34 117 34q22 0 66 -8t63 -8l4 3q26 27 77 94l-116 -37q-11 -4 -11 15q0 13 8 16z" />
    <glyph glyph-name="mu" unicode="&#x3bc;" horiz-adv-x="653" 
d="M230 55q-28 14 -88 14q-153 0 -153 -74q0 -21 21 -34q18 -11 41 -11q90 0 179 105zM242 199l153 51q169 227 233 299q142 160 218 160q31 0 54.5 -19.5t23.5 -49.5q0 -53 -92 -182q-94 -132 -141 -132q-32 0 -32 41q0 42 52 111q49 66 90 88q-24 -31 -71 -95t-47 -98
q0 -6 6 -6q37 0 117 126q77 122 77 168v9q-12 15 -24 15q-42 0 -135 -95q-58 -59 -116 -136l-135 -178l125 41q11 4 11 -17q0 -15 -8 -18l-164 -52q-55 -73 -102 -132l35 -9l114 -33q67 -18 118 -18q9 0 26 1.5t26 1.5q-30 -51 -103 -51q-46 0 -135.5 29t-124.5 29
q-6 0 -35 -33q-81 -93 -195 -93q-35 0 -64 20q-32 22 -32 55q0 53 69 93q59 34 117 34q22 0 66 -8t63 -8l4 3q26 27 77 94l-116 -37q-11 -4 -11 15q0 13 8 16z" />
    <glyph glyph-name="ordfeminine" unicode="&#xaa;" horiz-adv-x="387" 
d="M726 566q0 -106 -174 -226q-109 -75 -270 -146q20 -5 23 -23q-1 4 -1 -27q21 8 62 24q49 18 62 18l-1 -13q-22 -8 -66 -23q-52 -19 -57 -28q-5 -24 -19 -69q-35 -83 -146 -177q-119 -101 -201 -101q-52 0 -52 44q0 80 193 207q28 19 189 100q11 6 11 36q0 7 -7.5 14.5
t-14.5 7.5q-21 0 -64 -16t-64 -16q-12 0 -23 7.5t-11 18.5q0 27 68 35q30 3 89 8q106 30 263 150q177 135 177 222q0 48 -70 48q-84 0 -218 -57q-139 -59 -185 -121q2 -3 4 -3q29 0 187 66l8 -8q-22 -25 -99 -57t-112 -32q-32 0 -32 24q0 66 107 128q71 41 166 70t142 29
q58 0 95 -27q41 -30 41 -87zM258 99q-215 -111 -343 -269q-3 -8 -2 -9q1 -2 7 -9q89 5 197 106q91 86 141 181zM613 730q-19 3 -100 85l6 10q37 -13 106 -46q21 10 65 24q57 18 65 22l1 -10l-70 -46q-37 -24 -73 -39z" />
    <glyph glyph-name="ordmasculine" unicode="&#xba;" horiz-adv-x="319" 
d="M100 -65q-30 -19 -86 -74q-70 -68 -70 -95v-22h24q73 52 142 124q76 78 114 148q-64 -43 -124 -81zM271 39v-10q0 -65 -125.5 -190.5t-190.5 -125.5q-13 0 -21 15t-8 30q0 81 200 219q39 26 117 79l-2 22q-15 15 -23 15q-6 0 -24.5 -6.5t-29.5 -6.5l-7 9q6 11 106 60
q93 46 93 80q0 19 -16 19q-41 -1 -84 -13q-54 -15 -74 -39q-1 1 -10.5 1t-9.5 2q0 9 36 42q49 56 142 56q19 0 35.5 -19t16.5 -38q0 -43 -59 -81q-26 -17 -92 -57q7 -4 33 -37q209 107 236 157h18q-15 -40 -115 -97q-124 -70 -142 -86zM337 339q-15 3 -79 68l4 8
q30 -10 85 -36q35 12 104 36l1 -8q-38 -25 -115 -68z" />
    <glyph glyph-name="ae" unicode="&#xe6;" horiz-adv-x="433" 
d="M474 290q-37 -7 -96 -71.5t-69 -103.5q175 89 175 153q0 19 -10 22zM240 75q-2 2 -2 5q0 5 3 12q-98 -99 -147 -99q-40 0 -40 52q0 67 95.5 157t162.5 90q20 0 26.5 -7t8.5 -28q4 6 25 41l22 -3q-5 -8 -26 -42q65 51 112 51q16 0 28 -11t12 -27q0 -48 -103 -109
q-50 -30 -112 -56q-11 -27 -11 -48q0 -34 33 -34q59 0 155 81q19 16 138 123h16q-64 -71 -153 -141q-118 -93 -179 -93q-29 0 -47.5 19t-18.5 48q0 9 2 19zM328 263q-1 1 -5.5 5t-6.5 4q-31 0 -126.5 -102.5t-95.5 -135.5q0 -17 16 -15l20 3q55 27 138 118q20 33 51 66
q15 26 15 43q0 7 -6 14z" />
    <glyph glyph-name="oslash" unicode="&#xf8;" horiz-adv-x="308" 
d="M270 166q13 -11 29 -14q12 20 35 62zM343 239q3 11 3 21q0 25 -21 25q-29 0 -51 -29.5t-21 -59.5q0 -11 7 -19zM360 233zM334 214zM343 239zM364 254zM428 284l-68 -51q-10 -47 -42 -88q37 -7 92 24q47 26 78 59q3 3 5 3t7.5 -3.5t6.5 -2.5q-7 -20 -56.5 -51.5
t-74.5 -37.5q-45 -11 -49 -11q-10 0 -20 3q-40 -45 -79 -91q-50 -49 -99 -49q-32 0 -47 37l-44 -33q-4 -3 -8 -3q-8 0 -8 7q0 4 4 7l51 38q-1 4 -1 7q0 42 26 85q9 14 40 54q15 19 56 56q48 43 60 43q4 0 5 -6t2 -6q-3 0 18 14t45 14q16 0 26.5 -12.5t9.5 -28.5v-7l55 41
q4 3 7 3q7 0 7 -6q0 -5 -5 -8zM82 25zM77 41zM133 83zM126 58zM246 167q-16 26 -15 45q-78 -80 -98 -129zM260 177zM270 166zM255 154zM246 167zM287 133q-14 0 -32 21l-129 -96q-2 -16 4 -29q7 -16 22 -16q29 0 80 52q42 43 55 68z" />
    <glyph glyph-name="questiondown" unicode="&#xbf;" horiz-adv-x="605" 
d="M63 -95q0 55 84 119q60 45 166 98q59 29 117 57q54 30 181 105q6 -5 6 -15q0 -33 -136 -114q-126 -71 -253 -143q-136 -81 -136 -113q0 -27 80 -27q99 0 158 33l106 68q10 -18 10 -28q0 -66 -109 -100q-78 -24 -173 -24q-20 0 -31 1q-37 6 -56 37q-14 23 -14 46zM617 384
q0 24 25 41t49 17q6 0 20.5 -8t19.5 -9q4 -34 -17 -55.5t-46 -21.5q-16 0 -32 10q-19 11 -19 26z" />
    <glyph glyph-name="exclamdown" unicode="&#xa1;" horiz-adv-x="391" 
d="M26 -175q-6 0 -15 6.5t-9 12.5q0 22 180 226q204 232 221 235l7 -5l4 -9q-1 -28 -184.5 -247t-203.5 -219zM442 329q-24 0 -24 24q0 20 20 40.5t40 20.5q23 0 23 -23q0 -22 -18.5 -42t-40.5 -20z" />
    <glyph glyph-name="logicalnot" unicode="&#xac;" 
 />
    <glyph glyph-name="florin" unicode="&#x192;" 
 />
    <glyph glyph-name="guillemotleft" unicode="&#xab;" horiz-adv-x="457" 
d="M139 156q126 -70 126 -96q0 -15 -13 -15q-4 0 -58 36l-66 44q-28 14 -28 24q0 9 13 22q22 22 37 32q29 26 113 99q9 8 14 8q9 0 9 -10q0 -22 -62 -77q-49 -43 -85 -67zM268 168q126 -70 126 -95q0 -15 -4 -15q-3 0 -63 36.5t-71 42.5q-27 15 -27 25t12 22q9 8 37 32
q7 6 114 99q9 8 14 8q8 0 8 -11q0 -22 -61 -77q-45 -40 -85 -67z" />
    <glyph glyph-name="guillemotright" unicode="&#xbb;" horiz-adv-x="536" 
d="M455 212q-126 70 -126 96q0 15 14 15q2 0 57.5 -36.5t66.5 -42.5q27 -15 27 -25t-12 -22q-9 -8 -37 -32q-7 -6 -114 -99q-9 -8 -14 -8q-8 0 -8 10q0 22 61 77q49 44 85 67zM327 200q-25 13 -74 40q-55 32 -55 52q0 18 6 18q4 0 63 -36l71 -43q28 -15 28 -25q0 -9 -13 -22
q-22 -22 -37 -32q-29 -26 -113 -99q-9 -8 -15 -8q-8 0 -8 11q0 23 61 77q44 39 86 67z" />
    <glyph glyph-name="ellipsis" unicode="&#x2026;" horiz-adv-x="649" 
d="M342 80q23 0 23 -24q0 -20 -20 -40.5t-40 -20.5q-22 0 -22 24q0 21 19 41t40 20zM542 80q23 0 23 -24q0 -20 -20 -40.5t-40 -20.5q-22 0 -22 24q0 21 19 41t40 20zM142 80q23 0 23 -24q0 -20 -20 -40.5t-40 -20.5q-22 0 -22 24q0 21 19 41t40 20z" />
    <glyph glyph-name="nonbreakingspace" unicode="&#xa0;" horiz-adv-x="213" 
 />
    <glyph glyph-name="Agrave" unicode="&#xc0;" horiz-adv-x="574" 
d="M878 652q0 -24 -114 -181q-131 -180 -145 -205q3 -1 21 -1t50 1l-8 -27q-20 -2 -47 -2q-20 0 -44 1l-188 -257q-2 1 -21 9q-12 5 -14 13l163 232q-20 4 -55 4q-168 0 -195 -13q-45 -22 -262 -239q-2 1 -12 4t-10 8q0 19 103 111l128 114q-111 -6 -195 -16l8 27
q77 5 219 20q10 1 76 60q27 24 81 71q70 59 220 167q182 131 212 131q29 0 29 -32zM820 642h-14q-266 -179 -482 -379l222 2q5 9 144 187q91 117 130 190zM768 831q-26 0 -26 -28q0 -7 1 -13q2 -12 71 -38q21 -8 95 -34l4 12q-24 20 -72 58q-55 43 -73 43z" />
    <glyph glyph-name="Atilde" unicode="&#xc3;" horiz-adv-x="574" 
d="M878 652q0 -24 -114 -181q-131 -180 -145 -205q3 -1 21 -1t50 1l-8 -27q-20 -2 -47 -2q-20 0 -44 1l-188 -257q-2 1 -21 9q-12 5 -14 13l163 232q-20 4 -55 4q-168 0 -195 -13q-45 -22 -262 -239q-2 1 -12 4t-10 8q0 19 103 111l128 114q-111 -6 -195 -16l8 27
q77 5 219 20q10 1 76 60q27 24 81 71q70 59 220 167q182 131 212 131q29 0 29 -32zM820 642h-14q-266 -179 -482 -379l222 2q5 9 144 187q91 117 130 190zM969 812l8 -7q-63 -75 -128 -75q-24 0 -69 17t-69 17q-34 0 -86 -47l-9 6q67 76 131 76q22 0 64.5 -16t64.5 -16
q45 0 93 45z" />
    <glyph glyph-name="Otilde" unicode="&#xd5;" horiz-adv-x="643" 
d="M858 605q0 -54 -51 -158q-42 -85 -92 -158q-2 -3 0 -13q4 -13 4 -15q-11 0 -25 -6q-26 -36 -114 -121q-63 -61 -132 -107q-94 -61 -154 -61q-68 0 -105 61q-29 47 -29 109q0 114 115 265q99 131 212 207q5 3 48 33.5t57 30.5q4 0 11.5 -6t11.5 -6q-2 0 50.5 28.5
t86.5 28.5q46 0 76 -33t30 -79zM829 633q0 22 -15.5 36.5t-37.5 14.5q-90 0 -222.5 -125.5t-132.5 -214.5q0 -50 46 -63q18 -5 83 -5q86 0 94 6q50 29 118 161q67 129 67 190zM604 238l-99 5q-57 6 -83 35.5t-26 87.5q0 65 57 151q-102 -99 -172 -207q-84 -130 -84 -219
q0 -84 85 -84q62 0 165 80q84 65 157 151zM969 821l8 -6q-63 -75 -128 -75q-24 0 -69 17t-69 17q-34 0 -86 -48l-9 7q67 75 131 75q22 0 64.5 -16t64.5 -16q45 0 93 45z" />
    <glyph glyph-name="OE" unicode="&#x152;" horiz-adv-x="1049" 
d="M803 438q-32 -64 -71 -124q46 23 116 50l98 39q-7 3 -18 2q-17 -2 -18 -2q-73 0 -107 35zM858 605q0 -7 -1 -15q69 48 183 83q101 31 163 31q21 0 39.5 -16t18.5 -37q0 -32 -68.5 -84.5t-102.5 -52.5q-14 0 -25 27q1 13 21 30q17 14 32 20l3 -10q-8 -4 -22 -19q1 -1 7 -1
q20 0 72.5 38t52.5 56q0 15 -18 15q-50 0 -111 -18q-46 -14 -130 -55q-97 -48 -137 -87q-9 -24 -22 -51q14 -29 110 -29q24 0 192 11q4 -3 4 -13q0 -19 -59 -37l-78 -20q-221 -75 -333 -168q-16 -17 -44 -45q-34 -41 -34 -82q0 -36 54 -53q37 -12 86 -12q123 0 327 157
q72 55 70 55q7 0 8 -3l3 -6q-64 -78 -183 -157q-134 -89 -217 -89q-69 0 -118 30q-57 35 -60 100q-153 -132 -247 -132q-68 0 -105 61q-29 47 -29 109q0 114 115 265q99 131 212 207q5 3 48 33.5t57 30.5q4 0 11.5 -6t11.5 -6q-2 0 50.5 28.5t86.5 28.5q46 0 76 -33t30 -79z
M829 633q0 22 -15.5 36.5t-37.5 14.5q-90 0 -222.5 -125.5t-132.5 -214.5q0 -50 46 -63q18 -5 83 -5q86 0 94 6q63 37 141 209q1 27 22 54q22 60 22 88zM604 238l-99 5q-57 6 -83 35.5t-26 87.5q0 65 57 151q-102 -99 -172 -207q-84 -130 -84 -219q0 -84 85 -84q62 0 165 80
q84 65 157 151z" />
    <glyph glyph-name="oe" unicode="&#x153;" horiz-adv-x="458" 
d="M324 -11q-29 0 -47.5 19t-18.5 48q0 4 1 9q-70 -77 -130 -77q-21 0 -37 19t-16 41q0 42 26 85q9 14 40 54q15 19 56 56q48 43 60 43q4 0 5 -6t2 -6q-3 0 18 14t45 14q16 0 26.5 -12.5t9.5 -28.5l-2 -32q79 75 138 75q16 0 31 -12t11 -28q-16 -58 -87 -103
q-61 -38 -106 -38q-7 0 -11 1q-20 -44 -20 -72q0 -33 29 -33q59 0 155 82l138 124h16q-65 -72 -153 -142q-118 -94 -179 -94zM494 290q-37 -7 -90 -59.5t-63 -90.5q145 34 165 133q2 12 -12 17zM325 285q-29 0 -51.5 -30t-20.5 -59q2 -33 43 -43q10 14 21 28q29 49 29 79
q0 25 -21 25zM231 212q-112 -114 -105 -167q4 -32 26 -32q45 0 122 101q4 9 10 19q-18 3 -36 31.5t-17 47.5z" />
    <glyph glyph-name="endash" unicode="&#x2013;" horiz-adv-x="599" 
d="M238 188q-3 0 -2 30h396v-30h-394z" />
    <glyph glyph-name="emdash" unicode="&#x2014;" horiz-adv-x="999" 
d="M238 188q-3 0 -2 30h796v-30h-794z" />
    <glyph glyph-name="quotedblleft" unicode="&#x201c;" horiz-adv-x="427" 
d="M534 581h4q24 0 24 -17q0 -20 -25.5 -43t-45.5 -23q-24 0 -24 26q0 34 47.5 74.5t82.5 40.5q8 0 8 -6q0 -9 -17 -14q-28 -9 -54 -38zM418 574l4 1q24 0 24 -17q0 -20 -25.5 -43t-45.5 -23q-24 0 -24 26q0 34 47.5 74.5t82.5 40.5q8 0 8 -6q0 -9 -17 -15q-28 -9 -54 -38z
" />
    <glyph glyph-name="quotedblright" unicode="&#x201d;" horiz-adv-x="337" 
d="M326 549h-4q-24 0 -24 17q0 19 25.5 42.5t45.5 23.5q24 0 24 -26q0 -35 -47 -75t-83 -40q-8 0 -8 6q0 9 18 14q27 8 53 38zM442 555h-4q-24 0 -24 17q0 19 25.5 42.5t45.5 23.5q24 0 24 -26q0 -35 -47 -75t-83 -40q-8 0 -8 6q0 9 18 14q27 8 53 38z" />
    <glyph glyph-name="quoteleft" unicode="&#x2018;" horiz-adv-x="268" 
d="M418 578h4q24 0 24 -17q0 -20 -25.5 -43t-45.5 -23q-24 0 -24 26q0 34 47.5 74.5t82.5 40.5q8 0 8 -6q0 -8 -17 -14q-27 -9 -54 -38z" />
    <glyph glyph-name="quoteright" unicode="&#x2019;" horiz-adv-x="149" 
d="M370 570h-4q-22 0 -23 16q-3 27 19.5 47t50.5 20q24 0 24 -27q0 -35 -47.5 -75t-82.5 -40q-8 0 -8 7q0 8 18 14q28 9 53 38z" />
    <glyph glyph-name="ydieresis" unicode="&#xff;" horiz-adv-x="319" 
d="M194 -47q2 -2 6 -2q33 0 68 11l1 -14q-5 -7 -44 -10q-42 -3 -55 -14q-30 -25 -81 -85.5t-81 -86.5q-51 -44 -91 -44q-46 0 -46 48q0 76 97 119l152 60q6 3 71 78q69 78 79 97q-18 -8 -90 -66q-62 -50 -89 -50q-37 0 -37 39q0 53 27 89q48 64 142 169l38 -30l-99 -114
q-73 -87 -74 -118l20 -11q21 15 121 85q17 12 104 101q80 82 91 84l31 -27zM-106 -220v-40h26q22 0 95 73q60 60 87 96q-110 -30 -148 -62q-60 -51 -60 -67zM442 399q22 1 22 -23q0 -15 -11.5 -29t-26.5 -14q-23 -1 -23 24q0 15 12 28.5t27 13.5zM330 398q22 0 22 -23
q0 -15 -11.5 -29t-26.5 -14q-23 0 -23 24q0 15 12 28.5t27 13.5z" />
    <glyph glyph-name="Ydieresis" unicode="&#x178;" horiz-adv-x="554" 
d="M909 637l-646 -820q-5 -6 -5 -11q0 -8 13 -5l67 47l15 -5q-21 -27 -89 -80q-61 -47 -73 -52q-18 -7 -25 -7q-12 0 -19 12v13q0 39 262 366q49 61 176 221v5q-61 -57 -184 -168q-151 -133 -212 -133q-33 0 -51 32q-15 26 -15 62q0 74 83 181q52 67 172 182.5t170 178.5v11
q-3 2 -8 2q-45 0 -171 -81q-99 -64 -134 -95.5t-61 -57.5q-35 -36 -55 -69v-11q2 -2 14 -2q34 0 125 51q-7 -22 -56 -50.5t-75 -28.5q-16 0 -28 10t-12 26q0 21 43 79q58 78 185 162q139 91 223 91q46 0 46 -40q0 -41 -82 -127q-72 -73 -215 -221q-132 -140 -133 -234
q0 -15 25 -15q64 0 258 163q126 106 204 186q36 37 109 125q69 82 111 123q8 8 22 8q16 0 26 -24zM858 818q28 0 28 -29q0 -19 -14.5 -36.5t-33.5 -17.5q-29 0 -29 30q0 19 15 36t34 17zM698 816q28 1 28 -29q0 -20 -14.5 -36.5t-33.5 -16.5q-29 -1 -29 30q0 18 15.5 35
t33.5 17z" />
    <glyph glyph-name="currency" unicode="&#xa4;" horiz-adv-x="18" 
 />
    <glyph glyph-name="guilsinglleft" unicode="&#x2039;" horiz-adv-x="348" 
d="M168 168q126 -70 126 -95q0 -15 -4 -15q-3 0 -63 36.5t-71 42.5q-27 15 -27 25t12 22q9 8 37 32q7 6 114 99q9 8 14 8q8 0 8 -11q0 -22 -61 -77q-45 -40 -85 -67z" />
    <glyph glyph-name="guilsinglright" unicode="&#x203a;" horiz-adv-x="348" 
d="M275 212q-126 70 -126 96q0 15 4 15q3 0 63 -36.5t71 -42.5q27 -15 27 -25t-12 -22q-9 -8 -37 -32q-7 -6 -114 -99q-9 -8 -14 -8q-8 0 -8 10q0 22 61 77q49 44 85 67z" />
    <glyph glyph-name="daggerdbl" unicode="&#x2021;" horiz-adv-x="9" 
 />
    <glyph glyph-name="periodcentered" unicode="&#xb7;" horiz-adv-x="316" 
d="M199 181q0 17 13 29t31 12t31.5 -11.5t13.5 -29.5t-13.5 -29.5t-31.5 -11.5t-31 12t-13 29z" />
    <glyph glyph-name="periodcentered" unicode="&#x2219;" horiz-adv-x="316" 
d="M199 181q0 17 13 29t31 12t31.5 -11.5t13.5 -29.5t-13.5 -29.5t-31.5 -11.5t-31 12t-13 29z" />
    <glyph glyph-name="quotesinglbase" unicode="&#x201a;" horiz-adv-x="185" 
d="M143 1l-5 -1q-26 0 -26 21q0 20 19 39.5t39 19.5q26 0 26 -26q0 -37 -40 -81t-77 -53q-10 -3 -10 9q1 2 32.5 26t41.5 46z" />
    <glyph glyph-name="quotedblbase" unicode="&#x201e;" horiz-adv-x="185" 
d="M263 1l-5 -1q-26 0 -26 21q0 20 19 39.5t39 19.5q26 0 26 -26q0 -37 -40 -81t-77 -53q-10 -3 -10 9q1 2 32.5 26t41.5 46zM143 1l-5 -1q-26 0 -26 21q0 20 19 39.5t39 19.5q26 0 26 -26q0 -37 -40 -81t-77 -53q-10 -3 -10 9q1 2 32.5 26t41.5 46z" />
    <glyph glyph-name="perthousand" unicode="&#x2030;" horiz-adv-x="18" 
 />
    <glyph glyph-name="Acircumflex" unicode="&#xc2;" horiz-adv-x="574" 
d="M878 652q0 -24 -114 -181q-131 -180 -145 -205q3 -1 21 -1t50 1l-8 -27q-20 -2 -47 -2q-20 0 -44 1l-188 -257q-2 1 -21 9q-12 5 -14 13l163 232q-20 4 -55 4q-168 0 -195 -13q-45 -22 -262 -239q-2 1 -12 4t-10 8q0 19 103 111l128 114q-111 -6 -195 -16l8 27
q77 5 219 20q10 1 76 60q27 24 81 71q70 59 220 167q182 131 212 131q29 0 29 -32zM820 642h-14q-266 -179 -482 -379l222 2q5 9 144 187q91 117 130 190zM867 805q18 -4 99 -85l-6 -10q-37 13 -106 46q-25 -12 -65 -25l-65 -21l-1 10l71 46q39 25 73 39z" />
    <glyph glyph-name="Ecircumflex" unicode="&#xca;" horiz-adv-x="542" 
d="M771 651q0 -32 -68.5 -84.5t-102.5 -52.5q-14 0 -25 27q1 13 21 30q17 14 32 20l3 -10q-8 -4 -22 -19q1 -1 7 -1q20 0 72.5 38t52.5 56q0 15 -18 15q-108 0 -279 -93q-123 -67 -123 -109q0 -38 112 -38q24 0 192 11q4 -3 4 -13q0 -19 -59 -37l-78 -20q-121 -40 -227 -109
q-144 -94 -144 -186q0 -65 100 -65q123 0 327 157q72 55 70 55q7 0 8 -3l3 -6q-64 -78 -183 -157q-134 -89 -217 -89q-138 0 -138 137q0 134 216 234q12 6 149 64q-7 3 -18 2q-17 -2 -18 -2q-125 0 -125 85q0 83 169 154q147 62 249 62q21 0 39.5 -16t18.5 -37zM707 815
q18 -4 99 -85l-6 -10q-37 13 -106 46q-25 -12 -65 -25l-65 -21l-1 10l71 46q39 25 73 39z" />
    <glyph glyph-name="Aacute" unicode="&#xc1;" horiz-adv-x="574" 
d="M878 652q0 -24 -114 -181q-131 -180 -145 -205q3 -1 21 -1t50 1l-8 -27q-20 -2 -47 -2q-20 0 -44 1l-188 -257q-2 1 -21 9q-12 5 -14 13l163 232q-20 4 -55 4q-168 0 -195 -13q-45 -22 -262 -239q-2 1 -12 4t-10 8q0 19 103 111l128 114q-111 -6 -195 -16l8 27
q77 5 219 20q10 1 76 60q27 24 81 71q70 59 220 167q182 131 212 131q29 0 29 -32zM820 642h-14q-266 -179 -482 -379l222 2q5 9 144 187q91 117 130 190zM944 831q27 0 27 -28q0 -7 -1 -13q-2 -13 -71 -38q-32 -11 -95 -34l-4 12q24 20 72 58q55 43 72 43z" />
    <glyph glyph-name="Edieresis" unicode="&#xcb;" horiz-adv-x="542" 
d="M771 651q0 -32 -68.5 -84.5t-102.5 -52.5q-14 0 -25 27q1 13 21 30q17 14 32 20l3 -10q-8 -4 -22 -19q1 -1 7 -1q20 0 72.5 38t52.5 56q0 15 -18 15q-108 0 -279 -93q-123 -67 -123 -109q0 -38 112 -38q24 0 192 11q4 -3 4 -13q0 -19 -59 -37l-78 -20q-121 -40 -227 -109
q-144 -94 -144 -186q0 -65 100 -65q123 0 327 157q72 55 70 55q7 0 8 -3l3 -6q-64 -78 -183 -157q-134 -89 -217 -89q-138 0 -138 137q0 134 216 234q12 6 149 64q-7 3 -18 2q-17 -2 -18 -2q-125 0 -125 85q0 83 169 154q147 62 249 62q21 0 39.5 -16t18.5 -37zM728 828
q28 0 28 -29q0 -19 -14.5 -36.5t-33.5 -17.5q-29 0 -29 30q0 19 15 36t34 17zM568 826q28 1 28 -29q0 -20 -14.5 -36.5t-33.5 -16.5q-29 -1 -29 30q0 18 15.5 35t33.5 17z" />
    <glyph glyph-name="Egrave" unicode="&#xc8;" horiz-adv-x="542" 
d="M771 651q0 -32 -68.5 -84.5t-102.5 -52.5q-14 0 -25 27q1 13 21 30q17 14 32 20l3 -10q-8 -4 -22 -19q1 -1 7 -1q20 0 72.5 38t52.5 56q0 15 -18 15q-108 0 -279 -93q-123 -67 -123 -109q0 -38 112 -38q24 0 192 11q4 -3 4 -13q0 -19 -59 -37l-78 -20q-121 -40 -227 -109
q-144 -94 -144 -186q0 -65 100 -65q123 0 327 157q72 55 70 55q7 0 8 -3l3 -6q-64 -78 -183 -157q-134 -89 -217 -89q-138 0 -138 137q0 134 216 234q12 6 149 64q-7 3 -18 2q-17 -2 -18 -2q-125 0 -125 85q0 83 169 154q147 62 249 62q21 0 39.5 -16t18.5 -37zM638 831
q-26 0 -26 -28q0 -7 1 -13q2 -12 71 -38q21 -8 95 -34l4 12q-24 20 -72 58q-55 43 -73 43z" />
    <glyph glyph-name="Iacute" unicode="&#xcd;" horiz-adv-x="384" 
d="M679 633q0 -74 -218 -318q13 0 72 9q0 -11 -4 -14q-10 -7 -42 -15q-36 -9 -46 -14q-33 -15 -167 -163q-125 -138 -162 -138q-27 0 -27 25q0 21 35 62q17 19 50 57h12q-15 -26 -44 -80l197 210l-3 3q-55 -5 -90 -5q-120 0 -120 91q0 70 96 156q73 65 182 122
q126 65 206 65q73 0 73 -53zM651 647q0 8 -5 11h-34q-55 0 -188 -81q-106 -65 -174 -122q-99 -84 -99 -130l1 -9q25 -24 116 -24q60 0 115 9q88 93 154 171q114 136 114 175zM704 831q27 0 27 -28q0 -7 -1 -13q-2 -13 -71 -38q-32 -11 -95 -34l-4 12q24 20 72 58
q55 43 72 43z" />
    <glyph glyph-name="Icircumflex" unicode="&#xce;" horiz-adv-x="384" 
d="M679 633q0 -74 -218 -318q13 0 72 9q0 -11 -4 -14q-10 -7 -42 -15q-36 -9 -46 -14q-33 -15 -167 -163q-125 -138 -162 -138q-27 0 -27 25q0 21 35 62q17 19 50 57h12q-15 -26 -44 -80l197 210l-3 3q-55 -5 -90 -5q-120 0 -120 91q0 70 96 156q73 65 182 122
q126 65 206 65q73 0 73 -53zM651 647q0 8 -5 11h-34q-55 0 -188 -81q-106 -65 -174 -122q-99 -84 -99 -130l1 -9q25 -24 116 -24q60 0 115 9q88 93 154 171q114 136 114 175zM647 805q18 -4 99 -85l-6 -10q-37 13 -106 46q-25 -12 -65 -25l-65 -21l-1 10l71 46q39 25 73 39z
" />
    <glyph glyph-name="Idieresis" unicode="&#xcf;" horiz-adv-x="384" 
d="M679 633q0 -74 -218 -318q13 0 72 9q0 -11 -4 -14q-10 -7 -42 -15q-36 -9 -46 -14q-33 -15 -167 -163q-125 -138 -162 -138q-27 0 -27 25q0 21 35 62q17 19 50 57h12q-15 -26 -44 -80l197 210l-3 3q-55 -5 -90 -5q-120 0 -120 91q0 70 96 156q73 65 182 122
q126 65 206 65q73 0 73 -53zM651 647q0 8 -5 11h-34q-55 0 -188 -81q-106 -65 -174 -122q-99 -84 -99 -130l1 -9q25 -24 116 -24q60 0 115 9q88 93 154 171q114 136 114 175zM688 828q28 0 28 -29q0 -19 -14.5 -36.5t-33.5 -17.5q-29 0 -29 30q0 19 15 36t34 17zM528 826
q28 1 28 -29q0 -20 -14.5 -36.5t-33.5 -16.5q-29 -1 -29 30q0 18 15.5 35t33.5 17z" />
    <glyph glyph-name="Igrave" unicode="&#xcc;" horiz-adv-x="384" 
d="M679 633q0 -74 -218 -318q13 0 72 9q0 -11 -4 -14q-10 -7 -42 -15q-36 -9 -46 -14q-33 -15 -167 -163q-125 -138 -162 -138q-27 0 -27 25q0 21 35 62q17 19 50 57h12q-15 -26 -44 -80l197 210l-3 3q-55 -5 -90 -5q-120 0 -120 91q0 70 96 156q73 65 182 122
q126 65 206 65q73 0 73 -53zM651 647q0 8 -5 11h-34q-55 0 -188 -81q-106 -65 -174 -122q-99 -84 -99 -130l1 -9q25 -24 116 -24q60 0 115 9q88 93 154 171q114 136 114 175zM568 831q-26 0 -26 -28q0 -7 1 -13q2 -12 71 -38q21 -8 95 -34l4 12q-24 20 -72 58q-55 43 -73 43
z" />
    <glyph glyph-name="Oacute" unicode="&#xd3;" horiz-adv-x="643" 
d="M858 605q0 -54 -51 -158q-42 -85 -92 -158q-2 -3 0 -13q4 -13 4 -15q-11 0 -25 -6q-26 -36 -114 -121q-63 -61 -132 -107q-94 -61 -154 -61q-68 0 -105 61q-29 47 -29 109q0 114 115 265q99 131 212 207q5 3 48 33.5t57 30.5q4 0 11.5 -6t11.5 -6q-2 0 50.5 28.5
t86.5 28.5q46 0 76 -33t30 -79zM829 633q0 22 -15.5 36.5t-37.5 14.5q-90 0 -222.5 -125.5t-132.5 -214.5q0 -50 46 -63q18 -5 83 -5q86 0 94 6q50 29 118 161q67 129 67 190zM604 238l-99 5q-57 6 -83 35.5t-26 87.5q0 65 57 151q-102 -99 -172 -207q-84 -130 -84 -219
q0 -84 85 -84q62 0 165 80q84 65 157 151zM824 851q27 0 27 -28q0 -7 -1 -13q-2 -13 -71 -38q-32 -11 -95 -34l-4 12q24 20 72 58q55 43 72 43z" />
    <glyph glyph-name="Ocircumflex" unicode="&#xd4;" horiz-adv-x="643" 
d="M858 605q0 -54 -51 -158q-42 -85 -92 -158q-2 -3 0 -13q4 -13 4 -15q-11 0 -25 -6q-26 -36 -114 -121q-63 -61 -132 -107q-94 -61 -154 -61q-68 0 -105 61q-29 47 -29 109q0 114 115 265q99 131 212 207q5 3 48 33.5t57 30.5q4 0 11.5 -6t11.5 -6q-2 0 50.5 28.5
t86.5 28.5q46 0 76 -33t30 -79zM829 633q0 22 -15.5 36.5t-37.5 14.5q-90 0 -222.5 -125.5t-132.5 -214.5q0 -50 46 -63q18 -5 83 -5q86 0 94 6q50 29 118 161q67 129 67 190zM604 238l-99 5q-57 6 -83 35.5t-26 87.5q0 65 57 151q-102 -99 -172 -207q-84 -130 -84 -219
q0 -84 85 -84q62 0 165 80q84 65 157 151zM777 835q18 -4 99 -85l-6 -10q-37 13 -106 46q-25 -12 -65 -25l-65 -21l-1 10l71 46q39 25 73 39z" />
    <glyph glyph-name="Ograve" unicode="&#xd2;" horiz-adv-x="643" 
d="M858 605q0 -54 -51 -158q-42 -85 -92 -158q-2 -3 0 -13q4 -13 4 -15q-11 0 -25 -6q-26 -36 -114 -121q-63 -61 -132 -107q-94 -61 -154 -61q-68 0 -105 61q-29 47 -29 109q0 114 115 265q99 131 212 207q5 3 48 33.5t57 30.5q4 0 11.5 -6t11.5 -6q-2 0 50.5 28.5
t86.5 28.5q46 0 76 -33t30 -79zM829 633q0 22 -15.5 36.5t-37.5 14.5q-90 0 -222.5 -125.5t-132.5 -214.5q0 -50 46 -63q18 -5 83 -5q86 0 94 6q50 29 118 161q67 129 67 190zM604 238l-99 5q-57 6 -83 35.5t-26 87.5q0 65 57 151q-102 -99 -172 -207q-84 -130 -84 -219
q0 -84 85 -84q62 0 165 80q84 65 157 151zM718 851q-26 0 -26 -28q0 -7 1 -13q2 -12 71 -38q21 -8 95 -34l4 12q-24 20 -72 58q-55 43 -73 43z" />
    <glyph glyph-name="Uacute" unicode="&#xda;" horiz-adv-x="596" 
d="M944 649l-100 -117q-123 -144 -193 -231q-25 -32 -87 -125q-78 -117 -78 -139t-1 -17q1 -12 12 -12q27 0 91 54q23 21 71 62q16 19 50 47q10 -4 10 -13q0 -11 -38 -44q-28 -26 -86 -78q-56 -48 -94 -48q-47 0 -47 42q0 80 126 266v5q-64 -59 -192 -175
q-165 -146 -226 -146q-60 0 -60 72q0 109 171 305q48 55 270 276l-7 6q-51 -23 -227 -150q-5 0 -19 14q12 37 114 106.5t143 69.5q32 0 32 -40q0 -24 -6 -31q-82 -91 -245 -275q-194 -225 -194 -299q0 -14 12 -14q37 0 177 102q223 162 386 349q181 208 200 205
q9 -2 22 -10.5t13 -16.5zM834 821q27 0 27 -28q0 -7 -1 -13q-2 -13 -71 -38q-32 -11 -95 -34l-4 12q24 20 72 58q55 43 72 43z" />
    <glyph glyph-name="Ucircumflex" unicode="&#xdb;" horiz-adv-x="596" 
d="M767 805q18 -4 99 -85l-6 -10q-37 13 -106 46q-25 -12 -65 -25l-65 -21l-1 10l71 46q39 25 73 39zM944 649l-100 -117q-123 -144 -193 -231q-25 -32 -87 -125q-78 -117 -78 -139t-1 -17q1 -12 12 -12q27 0 91 54q23 21 71 62q16 19 50 47q10 -4 10 -13q0 -11 -38 -44
q-28 -26 -86 -78q-56 -48 -94 -48q-47 0 -47 42q0 80 126 266v5q-64 -59 -192 -175q-165 -146 -226 -146q-60 0 -60 72q0 109 171 305q48 55 270 276l-7 6q-51 -23 -227 -150q-5 0 -19 14q12 37 114 106.5t143 69.5q32 0 32 -40q0 -24 -6 -31q-82 -91 -245 -275
q-194 -225 -194 -299q0 -14 12 -14q37 0 177 102q223 162 386 349q181 208 200 205q9 -2 22 -10.5t13 -16.5z" />
    <glyph glyph-name="Ugrave" unicode="&#xd9;" horiz-adv-x="596" 
d="M678 831q-26 0 -26 -28q0 -7 1 -13q2 -12 71 -38q21 -8 95 -34l4 12q-24 20 -72 58q-55 43 -73 43zM944 649l-100 -117q-123 -144 -193 -231q-25 -32 -87 -125q-78 -117 -78 -139t-1 -17q1 -12 12 -12q27 0 91 54q23 21 71 62q16 19 50 47q10 -4 10 -13q0 -11 -38 -44
q-28 -26 -86 -78q-56 -48 -94 -48q-47 0 -47 42q0 80 126 266v5q-64 -59 -192 -175q-165 -146 -226 -146q-60 0 -60 72q0 109 171 305q48 55 270 276l-7 6q-51 -23 -227 -150q-5 0 -19 14q12 37 114 106.5t143 69.5q32 0 32 -40q0 -24 -6 -31q-82 -91 -245 -275
q-194 -225 -194 -299q0 -14 12 -14q37 0 177 102q223 162 386 349q181 208 200 205q9 -2 22 -10.5t13 -16.5z" />
    <glyph glyph-name="circumflex" unicode="&#x2c6;" horiz-adv-x="343" 
d="M362 405q15 -3 80 -68l-5 -8q-30 11 -85 37q-34 -12 -104 -37v8q37 26 114 68z" />
    <glyph glyph-name="tilde" unicode="&#x2dc;" horiz-adv-x="337" 
d="M481 406l5 -11q-41 -48 -83 -48q-14 0 -43 11t-44 11q-22 0 -56 -31l-5 5q47 53 86 53q14 0 40.5 -10t40.5 -10q27 0 59 30z" />
    <glyph glyph-name="macron" unicode="&#xaf;" horiz-adv-x="326" 
d="M329 376h187q-13 -35 -16 -35h-190q3 3 19 35z" />
    <glyph glyph-name="macron" unicode="&#x2c9;" horiz-adv-x="326" 
d="M329 376h187q-13 -35 -16 -35h-190q3 3 19 35z" />
    <glyph glyph-name="cedilla" unicode="&#xb8;" horiz-adv-x="279" 
d="M156 3l-14 -27q62 3 62 -52q0 -23 -28.5 -39.5t-53.5 -16.5q-20 0 -32 7q-5 3 -28 23q-2 1 -2 4q0 8 11 8q1 0 19 -11t32 -11q15 0 33.5 9.5t18.5 22.5q0 32 -50 39l-7 1l25 46l6 -1z" />
    <glyph glyph-name="Scaron" unicode="&#x160;" 
 />
    <glyph glyph-name="scaron" unicode="&#x161;" 
 />
    <glyph glyph-name="brokenbar" unicode="&#xa6;" 
 />
    <glyph glyph-name="Eth" unicode="&#xd0;" horiz-adv-x="28" 
 />
    <glyph glyph-name="eth" unicode="&#xf0;" 
 />
    <glyph glyph-name="Yacute" unicode="&#xdd;" 
 />
    <glyph glyph-name="Thorn" unicode="&#xde;" 
 />
    <glyph glyph-name="thorn" unicode="&#xfe;" 
 />
    <glyph glyph-name="minus" unicode="&#xad;" 
 />
    <glyph glyph-name="minus" unicode="&#x2212;" 
 />
    <glyph glyph-name="onesuperior" unicode="&#xb9;" 
 />
    <glyph glyph-name="twosuperior" unicode="&#xb2;" 
 />
    <glyph glyph-name="threesuperior" unicode="&#xb3;" 
 />
    <glyph glyph-name="onehalf" unicode="&#xbd;" 
 />
    <glyph glyph-name="onequarter" unicode="&#xbc;" 
 />
    <glyph glyph-name="threequarters" unicode="&#xbe;" 
 />
    <glyph glyph-name="Lslash" unicode="&#x141;" 
 />
    <glyph glyph-name="lslash" unicode="&#x142;" 
 />
    <glyph glyph-name="HT" horiz-adv-x="213" 
 />
    <glyph glyph-name="LF" 
 />
    <glyph glyph-name="nonmarkingreturn" horiz-adv-x="213" 
 />
    <glyph glyph-name="Zcaron" unicode="&#x17d;" 
 />
    <glyph glyph-name="zcaron" unicode="&#x17e;" 
 />
    <glyph glyph-name="DLE" 
 />
    <glyph glyph-name="DC1" 
 />
    <glyph glyph-name="DC2" 
 />
    <glyph glyph-name="DC3" 
 />
    <glyph glyph-name="DC4" 
 />
    <glyph glyph-name="RS" 
 />
    <glyph glyph-name="US" 
 />
    <glyph glyph-name="notequal" unicode="&#x2260;" horiz-adv-x="9" 
 />
    <glyph glyph-name="infinity" unicode="&#x221e;" 
 />
    <glyph glyph-name="lessequal" unicode="&#x2264;" 
 />
    <glyph glyph-name="greaterequal" unicode="&#x2265;" 
 />
    <glyph glyph-name="partialdiff" unicode="&#x2202;" horiz-adv-x="243" 
d="M583 657q-40 -6 -165 -163q-115 -144 -144 -205l174 164q106 107 143 184zM45 140l91 29q90 160 230 326q155 183 220 183q22 0 22 -24q0 -68 -165 -225q-76 -69 -225 -209q-8 -8 -22 -32l134 44q14 5 14 -10q0 -7 -7 -9l-156 -51q-56 -97 -56 -124q0 -16 23 -16
q27 0 143.5 88.5t130.5 116.5h19q-24 -43 -146 -137q-127 -97 -167 -97q-46 0 -43 54q1 27 38 97l-72 -23q-13 -4 -13 9q0 7 7 10z" />
    <glyph glyph-name="summation" unicode="&#x2211;" horiz-adv-x="571" 
d="M877 640q0 -55 -82 -124t-138 -69q-12 0 -23.5 11t-11.5 23q0 23 49 55q44 29 71 36l5 -11q-55 -24 -92 -61l-1 -1q0 -5 3 -8q173 63 191 143q-17 21 -53 19l-19 -1q-182 -10 -393 -135q-83 -49 -83 -88q0 -27 76 -41q115 -21 142 -32q76 -32 76 -101q0 -113 -156 -200
q-137 -76 -261 -76q-133 0 -133 94q0 57 80 109q73 48 134 48l11 -2l-3 -21q-62 -10 -120 -39q-76 -38 -76 -86q0 -47 138 -47q82 0 216 75q146 82 146 155q0 47 -76 59q-47 7 -142 20q-76 20 -76 81q0 79 153 168q179 104 347 104q46 0 66 -7q35 -12 35 -50zM753 730
q-19 3 -100 85l6 10q37 -13 106 -46q21 10 65 24q57 18 65 22l1 -10l-70 -46q-37 -24 -73 -39z" />
    <glyph glyph-name="product" unicode="&#x220f;" horiz-adv-x="231" 
d="M431 226q-25 -73 -190 -113q-69 -119 -135 -119q-25 0 -43 21t-18 47q0 45 57 53q31 3 92 9q76 143 76 158q-7 11 -11 12q-15 -2 -21 -12l-53 -61l-8 6q28 34 72 78q21 9 35 9q30 0 30 -31q0 -6 -30 -72l-36 -81q135 30 171 96l7 1q1 -1 5 -1zM184 105q-38 -3 -77 -5
q-50 -8 -50 -42q0 -29 33 -29q22 0 53 28q28 25 41 48zM307 339q-15 3 -79 68l4 8q30 -10 85 -36q35 12 104 36l1 -8q-38 -25 -115 -68z" />
    <glyph glyph-name="pi" unicode="&#x3c0;" horiz-adv-x="554" 
d="M909 637l-646 -820q-5 -6 -5 -11q0 -8 13 -5l67 47l15 -5q-21 -27 -89 -80q-61 -47 -73 -52q-18 -7 -25 -7q-12 0 -19 12v13q0 39 262 366q49 61 176 221v5q-61 -57 -184 -168q-151 -133 -212 -133q-33 0 -51 32q-15 26 -15 62q0 74 83 181q52 67 172 182.5t170 178.5v11
q-3 2 -8 2q-45 0 -171 -81q-99 -64 -134 -95.5t-61 -57.5q-35 -36 -55 -69v-11q2 -2 14 -2q34 0 125 51q-7 -22 -56 -50.5t-75 -28.5q-16 0 -28 10t-12 26q0 21 43 79q58 78 185 162q139 91 223 91q46 0 46 -40q0 -41 -82 -127q-72 -73 -215 -221q-132 -140 -133 -234
q0 -15 25 -15q64 0 258 163q126 106 204 186q36 37 109 125q69 82 111 123q8 8 22 8q16 0 26 -24zM804 831q27 0 27 -28q0 -7 -1 -13q-2 -13 -71 -38q-32 -11 -95 -34l-4 12q24 20 72 58q55 43 72 43z" />
    <glyph glyph-name="integral" unicode="&#x222b;" horiz-adv-x="319" 
d="M194 -47q2 -2 6 -2q33 0 68 11l1 -14q-5 -7 -44 -10q-42 -3 -55 -14q-30 -25 -81 -85.5t-81 -86.5q-51 -44 -91 -44q-46 0 -46 48q0 76 97 119l152 60q6 3 71 78q69 78 79 97q-18 -8 -90 -66q-62 -50 -89 -50q-37 0 -37 39q0 53 27 89q48 64 142 169l38 -30l-99 -114
q-73 -87 -74 -118l20 -11q21 15 121 85q17 12 104 101q80 82 91 84l31 -27zM-106 -220v-40h26q22 0 95 73q60 60 87 96q-110 -30 -148 -62q-60 -51 -60 -67zM426 430q25 0 20 -33q-2 -10 -56 -30l-76 -28l-3 10q102 81 115 81z" />
    <glyph glyph-name="Omega" unicode="&#x3a9;" horiz-adv-x="583" 
d="M545 341q-14 0 -14 19q0 29 58 83q5 5 81 75q-9 23 -37 23q-58 0 -177 -70q-101 -59 -162 -113h120l-13 -25h-134q-25 -24 -49 -53l145 2l-13 -28h-153q-100 -128 -100 -196q0 -33 48 -33q96 0 252 121l5 -16q-171 -140 -256 -140q-36 0 -56.5 29t-20.5 66q0 97 54 169
h-65l12 25l74 1q22 26 48 53h-94l13 24l107 1q75 71 186 135q132 76 213 76q47 0 73 -41l15 18l15 -7q-11 -8 -27 -27l-4 -23q-4 -24 -54 -83t-72 -63q-10 -2 -18 -2zM572 384l3 -2q19 2 49 41q28 35 36 58q-25 -17 -52 -43q-32 -33 -36 -54z" />
    <glyph glyph-name="Omega" unicode="&#x2126;" horiz-adv-x="583" 
d="M545 341q-14 0 -14 19q0 29 58 83q5 5 81 75q-9 23 -37 23q-58 0 -177 -70q-101 -59 -162 -113h120l-13 -25h-134q-25 -24 -49 -53l145 2l-13 -28h-153q-100 -128 -100 -196q0 -33 48 -33q96 0 252 121l5 -16q-171 -140 -256 -140q-36 0 -56.5 29t-20.5 66q0 97 54 169
h-65l12 25l74 1q22 26 48 53h-94l13 24l107 1q75 71 186 135q132 76 213 76q47 0 73 -41l15 18l15 -7q-11 -8 -27 -27l-4 -23q-4 -24 -54 -83t-72 -63q-10 -2 -18 -2zM572 384l3 -2q19 2 49 41q28 35 36 58q-25 -17 -52 -43q-32 -33 -36 -54z" />
    <glyph glyph-name="radical" unicode="&#x221a;" 
 />
    <glyph glyph-name="approxequal" unicode="&#x2248;" 
 />
    <glyph glyph-name="approxequal" unicode="&#x22f2;" 
 />
    <glyph glyph-name="Delta" unicode="&#x394;" 
 />
    <glyph glyph-name="Delta" unicode="&#x2206;" 
 />
    <glyph glyph-name="fraction" unicode="&#x2044;" horiz-adv-x="9" 
 />
    <glyph glyph-name="fi" unicode="&#xf001;" 
 />
    <glyph glyph-name="fl" unicode="&#xf002;" 
 />
    <glyph glyph-name="apple" unicode="&#xf000;" horiz-adv-x="15" 
 />
    <glyph glyph-name="dotlessi" unicode="&#x131;" horiz-adv-x="175" 
d="M93 -4q-41 1 -40 43t39 89q30 38 144 169l38 -30q-121 -130 -176 -216q-8 -9 -8 -18q0 -14 14 -14q46 -2 253 202q4 3 8 1q6 -2 8 -2q-27 -40 -133 -129q-114 -96 -147 -95z" />
    <glyph glyph-name="breve" unicode="&#x2d8;" horiz-adv-x="589" 
d="M373 408q0 6 26 4q11 -31 76 -38q61 5 82 32q15 2 23 2q7 0 6 -2q-28 -67 -114 -67q-33 0 -63 18q-36 20 -36 51z" />
    <glyph glyph-name="dotaccent" unicode="&#x2d9;" horiz-adv-x="456" 
d="M351 380q0 17 11.5 28.5t28.5 11.5t28 -11.5t11 -28.5q0 -16 -11.5 -27.5t-27.5 -11.5q-17 0 -28.5 11t-11.5 28z" />
    <glyph glyph-name="ring" unicode="&#x2da;" horiz-adv-x="343" 
d="M383 320q-25 0 -40.5 15.5t-15.5 40.5q0 34 27 61.5t61 27.5q25 0 40.5 -15.5t15.5 -40.5q0 -34 -27 -61.5t-61 -27.5zM352 375q0 -30 31 -30q24 0 43 20t19 45q0 30 -30 30q-25 0 -44 -20t-19 -45z" />
    <glyph glyph-name="hungarumlaut" unicode="&#x2dd;" horiz-adv-x="343" 
d="M522 430q25 0 20 -33q-2 -10 -56 -30l-76 -28l-3 10q102 81 115 81zM406 430q25 0 20 -33q-2 -10 -56 -30l-76 -28l-3 10q102 81 115 81z" />
    <glyph glyph-name="ogonek" unicode="&#x2db;" horiz-adv-x="201" 
d="M113 -165q-40 -32 -71 -32q-16 0 -30.5 12t-16.5 28q-5 51 54.5 116t111.5 65q10 0 10 -10t-10 -10q-42 0 -84.5 -55t-37.5 -97q2 -22 18 -22q18 0 44 20q3 3 6 3q10 0 10 -11q0 -4 -4 -7z" />
    <glyph glyph-name="caron" unicode="&#x2c7;" horiz-adv-x="343" 
d="M327 329q-15 3 -79 68l4 8q30 -10 85 -36q35 12 104 36l1 -8q-38 -25 -115 -68z" />
    </font>
</defs>
</svg>
