<?xml version="1.0" standalone="no"?>
<!DOCTYPE svg PUBLIC "-//W3C//DTD SVG 1.1//EN" "http://www.w3.org/Graphics/SVG/1.1/DTD/svg11.dtd" >
<svg>
<metadata>
Created by FontForge 20120731 at Tue Apr 16 14:53:02 2019
 By www-data
Digitized by Dan X. Solo. Software (c) 1999 by Dover Publications, Inc., New York. 
</metadata>
<defs>
<font id="ParkAvenue" horiz-adv-x="20" >
  <font-face 
    font-family="Park Avenue"
    font-weight="400"
    font-stretch="normal"
    units-per-em="1000"
    panose-1="0 0 4 0 0 0 0 0 0 0"
    ascent="800"
    descent="-200"
    x-height="289"
    cap-height="689"
    bbox="-104 -348 1386 887"
    underline-thickness="20"
    underline-position="-123"
    unicode-range="U+0020-F002"
  />
<missing-glyph horiz-adv-x="500" 
d="M63 0v887h375v-887h-375zM125 63h250v762h-250v-762z" />
    <glyph glyph-name=".notdef" horiz-adv-x="500" 
d="M63 0v887h375v-887h-375zM125 63h250v762h-250v-762z" />
    <glyph glyph-name=".null" horiz-adv-x="0" 
 />
    <glyph glyph-name="glyph2" horiz-adv-x="195" 
 />
    <glyph glyph-name="space" unicode=" " horiz-adv-x="195" 
 />
    <glyph glyph-name="exclam" unicode="!" horiz-adv-x="236" 
d="M188 650q0 -23 -47 -132q-39 -91 -53 -179q-7 -53 -21 -161q-7 2 -12 2t-8 -2q9 66 18 183q11 130 17 183q5 45 13 66q23 62 71 65q11 1 17 -6.5t5 -18.5zM47 84q33 0 33 -41q0 -19 -11 -33.5t-30 -14.5q-15 0 -25.5 11.5t-10.5 27.5q0 18 13 34t31 16z" />
    <glyph glyph-name="quotedbl" unicode="&#x22;" horiz-adv-x="271" 
d="M255 640q0 -32 -44 -95q-40 -55 -72 -81q1 3 -2.5 4t-3.5 3q0 3 22.5 32t25.5 37q6 14 6 44.5t3 44.5q9 52 41 52q24 0 24 -41zM145 640q0 -32 -44 -95q-40 -55 -72 -81q1 3 -2.5 4t-3.5 3q0 3 22.5 32t25.5 37q6 14 6 44.5t3 44.5q9 52 41 52q24 0 24 -41z" />
    <glyph glyph-name="numbersign" unicode="#" horiz-adv-x="475" 
d="M285 192l-48 -188h-28l49 188l-99 -1l-49 -188h-27l48 188l-108 -1l6 24l108 1l24 91l-108 -1l7 24l108 1l45 175h28l-45 -175l98 -1l45 177h28l-46 -175l109 1l-6 -23h-107l-26 -93l109 1l-6 -26zM288 307h-99l-24 -92l103 -1z" />
    <glyph glyph-name="dollar" unicode="$" horiz-adv-x="379" 
d="M351 397q0 -16 -30 -42q0 6 4 21t4 22q0 14 -18.5 26t-26.5 12l-24 1q-35 -153 -35 -163q0 -8 24 -37q31 -38 45 -64q24 -45 24 -86q0 -28 -19 -56q-24 -35 -101 -35q-16 0 -30 1l-34 -143l-17 3l32 143q-23 -3 -61 -3q-73 0 -75 20q-4 31 28 67q7 8 64 59q8 -3 30 -25
q-4 -10 -53 -32q-45 -22 -45 -38q0 -7 11 -12l11 -5h97q42 169 42 179q0 -1 -44 53.5t-44 92.5q0 59 61 82q32 12 72 12l15 68l17 -3l-15 -65q22 -2 48 -5q43 -12 43 -48zM241 438l-37 -7q-16 0 -33.5 -14t-17.5 -30q0 -19 29 -60q13 -19 28 -35q13 42 31 146zM298 64
q0 21 -40 75q-15 19 -44 58q-13 -50 -38 -167h83q11 0 25 11.5t14 22.5z" />
    <glyph glyph-name="percent" unicode="%" horiz-adv-x="507" 
d="M482 218q0 -62 -59 -139q-62 -81 -121 -81q-60 0 -60 76q0 68 51 144q56 82 121 82q68 0 68 -82zM398 459q-67 -69 -119 -165q-12 -23 -75 -158q-41 -89 -85 -144l-15 -1q35 75 107 224q60 125 125 206q-10 -3 -19 -3q-36 0 -54 23q-15 -74 -64 -144q-59 -83 -124 -83
q-58 0 -58 74q0 71 50 143q55 78 123 78q26 0 66.5 -35.5t66.5 -35.5q12 0 38.5 9.5t36.5 11.5zM447 230q0 56 -38 56q-44 0 -86 -71q-38 -65 -38 -113q0 -58 52 -58q51 0 84 71q26 57 26 115zM226 450q0 42 -44 42q-55 0 -91 -69q-31 -59 -28 -118l1 -20q11 -24 43 -24
q54 0 89 71q30 58 30 118z" />
    <glyph glyph-name="ampersand" unicode="&#x26;" horiz-adv-x="680" 
d="M652 328q-1 -17 -19.5 -31.5t-36.5 -17.5q-13 0 -31.5 -1t-26.5 -27q-42 -145 -111 -199t-218 -54h-101q-41 0 -68.5 25.5t-27.5 66.5q0 56 76 143q73 83 132 102l9 7q-46 23 -50 26q-26 19 -26 47q0 75 128 135q110 52 193 52q19 0 32 -7v-30q0 -12 -19 -41t-31 -37
q-16 -2 -44 -7q12 33 40 81v15q-4 4 -13 4q-66 0 -148 -54q-89 -59 -89 -122q0 -22 19 -37t42 -15q9 0 25.5 4.5t24.5 5.5l63 5v-14q-20 -10 -105 -46q-66 -28 -104 -54.5t-86 -78.5q-58 -64 -58 -95t87 -31q24 0 72.5 3t72.5 3h69q66 0 129 64.5t63 131.5q0 28 -34 28
q-58 0 -103 -34l-5 5q29 45 56.5 62t76.5 17h145z" />
    <glyph glyph-name="quotesingle" unicode="'" horiz-adv-x="173" 
d="M175 640q0 -32 -44 -95q-40 -55 -72 -81q1 3 -2.5 4t-3.5 3q0 3 22.5 32t25.5 37q6 14 6 44.5t3 44.5q9 52 41 52q24 0 24 -41z" />
    <glyph glyph-name="parenleft" unicode="(" horiz-adv-x="241" 
d="M316 730q2 -11 -3 -14q-103 -20 -181 -243q-64 -183 -64 -316q0 -62 20 -132q24 -85 62 -115v-13q-143 96 -143 268q0 115 31 213q29 92 114 217q77 114 164 135z" />
    <glyph glyph-name="parenright" unicode=")" horiz-adv-x="267" 
d="M228 479q0 -153 -79 -326q-93 -203 -234 -255q1 5 7 14q106 17 183 250q61 186 61 320q0 162 -89 242q151 -81 151 -245z" />
    <glyph glyph-name="asterisk" unicode="*" horiz-adv-x="302" 
d="M116 534q0 4 1 8q-23 10 -52 33q-36 29 -32 46q3 13 20 10q14 -3 42 -32q24 -27 34 -44q3 1 7 2q-4 33 6 85q6 34 26 31t13 -38q-9 -46 -31 -81q4 -2 7 -6q14 12 50.5 27.5t51.5 12.5q18 -4 15 -17q-4 -19 -49 -30q-36 -8 -63 -6v-1q0 -6 -3 -12q29 -15 53 -35
q30 -26 27 -42q-3 -14 -20 -10q-15 3 -40.5 31t-34.5 45h-8q6 -29 -6 -89q-7 -34 -26 -30q-20 4 -13 38q3 16 14.5 45.5t19.5 39.5q-3 2 -5 6q-11 -12 -52 -29.5t-55 -14.5q-18 4 -15 17q4 20 52 31q40 9 66 5v4z" />
    <glyph glyph-name="plus" unicode="+" horiz-adv-x="433" 
d="M364 241h-160v-160h-30v160h-160v30h160v160h30v-160h160v-30z" />
    <glyph glyph-name="comma" unicode="," horiz-adv-x="135" 
d="M95 40q0 -32 -44 -95q-40 -55 -72 -81q1 3 -2.5 4t-3.5 3q0 3 22.5 32t25.5 37q6 14 6 44.5t3 44.5q9 52 41 52q24 0 24 -41z" />
    <glyph glyph-name="hyphen" unicode="-" horiz-adv-x="236" 
d="M178 114h-163l22 51l161 1z" />
    <glyph glyph-name="hyphen" unicode="&#x2010;" horiz-adv-x="236" 
d="M178 114h-163l22 51l161 1z" />
    <glyph glyph-name="period" unicode="." horiz-adv-x="190" 
d="M84 77q38 0 38 -37q0 -44 -43 -44q-39 0 -39 39q0 42 44 42z" />
    <glyph glyph-name="slash" unicode="/" horiz-adv-x="358" 
d="M355 708l-334 -750l-31 3l333 747h32z" />
    <glyph glyph-name="zero" unicode="0" horiz-adv-x="423" 
d="M301 514q74 0 98 -87q8 -29 8 -68q0 -126 -71 -232q-63 -94 -143 -120q-28 -9 -73 -9q-27 0 -38 9q-38 30 -38 112q0 112 65 232q32 60 79 105q60 58 113 58zM264 476q-36 0 -75 -44q-88 -100 -88 -273q0 -74 18 -91q12 -12 60 -12q54 0 82 15.5t55 61.5q46 77 46 159
q0 56 -15 104q-25 80 -83 80z" />
    <glyph glyph-name="one" unicode="1" horiz-adv-x="321" 
d="M278 540l-39 -124q-22 -74 -34 -127q-31 -139 -60 -200q-41 -86 -90 -118q-8 -6 -22 -14q53 74 101 281q26 112 62 218q-58 -28 -107 -31l1 22q82 12 161 73q16 12 27 20z" />
    <glyph glyph-name="two" unicode="2" horiz-adv-x="423" 
d="M361 94q-37 -43 -56 -59q-34 -29 -73 -33q-19 -2 -45 -2h-107q-47 0 -67 4q51 94 150 189q10 10 94 87q108 100 108 156q0 49 -74 49q-85 0 -111 -66q-9 -23 -9 -48v-21q-24 -22 -56 -34q1 65 12 96q17 48 70 76q47 25 102 25q48 0 78 -23q33 -26 33 -72q0 -78 -81 -143
q-30 -24 -71 -52q-142 -96 -193 -172h104q75 0 113 9q14 3 43 17z" />
    <glyph glyph-name="three" unicode="3" horiz-adv-x="423" 
d="M123 369q-3 25 -3 38q0 68 82 94q37 12 77 12q49 0 86 -13q52 -18 52 -58q0 -52 -80 -103q-31 -20 -86 -40q113 -24 113 -98q0 -50 -40 -97q-91 -107 -275 -107q-24 0 -52 4q21 39 48 55l70 -6q23 -2 54 -2q54 0 101.5 36t47.5 89q0 42 -32 59q-19 10 -85 20l-98 -4
q15 34 34 51q3 0 18 3q68 12 93 22q107 43 107 116q0 52 -73 52q-43 0 -73 -17q-36 -20 -36 -60q0 -4 2 -23q-14 -9 -52 -23z" />
    <glyph glyph-name="four" unicode="4" horiz-adv-x="423" 
d="M402 533q-2 -6 -9 -25q-29 -79 -41 -125q-18 -70 -41 -191h9q43 0 64 10q13 6 43 31q-43 -82 -125 -84q-31 -135 -114 -192q20 45 52 139q10 41 12 53h-144q-5 -1 -20 -1q-31 -1 -70 -1q51 165 176 270q98 82 208 116zM356 497q-67 -19 -148 -96q-95 -91 -125 -206
l177 -3l3 16q27 143 44 188q19 51 49 101z" />
    <glyph glyph-name="five" unicode="5" horiz-adv-x="423" 
d="M73 238q7 17 29 82q45 132 72 164q23 27 92 27h161q-27 -50 -79 -52q-25 -1 -83 0l-49 1q-25 1 -40 -21q-8 -11 -20 -43l-29 -77q68 67 134 67q51 0 86.5 -28.5t35.5 -78.5q0 -62 -49 -136q-96 -145 -269 -145q-24 0 -53 3q38 40 60 49l17 -1l61 -1q43 -1 69 14
q22 14 49 52q55 79 55 154q0 39 -21.5 65t-59.5 26q-39 0 -92 -47q-25 -23 -75 -79z" />
    <glyph glyph-name="six" unicode="6" horiz-adv-x="423" 
d="M406 566q-155 -102 -234 -231q65 35 109 35q53 0 83.5 -29.5t30.5 -82.5q0 -106 -80 -188q-70 -72 -155 -72q-53 0 -86 41q-30 38 -30 92q0 85 61 186q78 128 214 210q50 30 87 43v-4zM237 326q-78 0 -117 -95q-17 -42 -17 -87q0 -46 26 -79q28 -36 73 -36q57 0 102 74
q36 59 36 127q0 58 -22 77t-81 19z" />
    <glyph glyph-name="seven" unicode="7" horiz-adv-x="423" 
d="M442 495q-72 -83 -126 -206q-73 -167 -146 -258q-39 -49 -99 -85v5l5 7q68 95 169 312q45 97 63 124q28 42 73 89q-57 8 -98 8q-55 0 -75 -4q-47 -9 -47 -44q0 -10 5 -50q-17 -22 -44 -34q-11 52 -11 79q0 51 57 67q28 8 100 8q48 0 132 -8q11 -1 42 -4v-6z" />
    <glyph glyph-name="eight" unicode="8" horiz-adv-x="423" 
d="M275 269q28 -30 42 -48q32 -41 32 -85q0 -63 -57 -104q-48 -34 -153 -34q-58 0 -78 6q-35 10 -35 50q0 87 110 159q20 12 72 43q-22 22 -47 49q-34 37 -34 65q0 40 59 76q111 68 175 68q53 0 53 -56q0 -11 -3 -30q-26 -32 -50 -48q3 45 3 64q0 43 -30 43q-33 0 -101 -37
q-58 -32 -58 -59q0 -20 37 -57l49 -49l60 30q24 12 26 12q9 0 9 -8q0 -5 -22 -17zM224 242l-10 -6q-131 -79 -131 -153q0 -30 28 -37q20 -5 78 -5t81 6q46 13 46 56t-43 91q-14 16 -49 48z" />
    <glyph glyph-name="nine" unicode="9" horiz-adv-x="423" 
d="M91 -60q11 14 36 37q115 103 156 197q-55 -34 -103 -34q-35 0 -65 25q-49 40 -49 114q0 59 34 116q71 119 188 119q116 0 116 -116q0 -180 -165 -349q-80 -82 -148 -109zM260 473q-93 0 -130 -70q-19 -36 -19 -80q0 -65 33 -113q24 -35 71 -35q74 0 109 82q25 59 25 113
q0 65 -28 88q-19 15 -61 15z" />
    <glyph glyph-name="colon" unicode=":" horiz-adv-x="190" 
d="M84 77q38 0 38 -37q0 -44 -43 -44q-39 0 -39 39q0 42 44 42zM124 290q38 0 38 -37q0 -45 -43 -45q-39 0 -39 40q0 42 44 42z" />
    <glyph glyph-name="semicolon" unicode=";" horiz-adv-x="195" 
d="M129 250q0 -14 -13 -29.5t-26 -15.5q-10 0 -22 13t-12 23q0 15 12 28.5t27 13.5q13 0 23.5 -10t10.5 -23zM95 40q0 -32 -44 -95q-40 -55 -72 -81q1 3 -2.5 4t-3.5 3q0 3 22.5 32t25.5 37q6 14 6 44.5t3 44.5q9 52 41 52q24 0 24 -41z" />
    <glyph glyph-name="less" unicode="&#x3c;" horiz-adv-x="280" 
d="M259 347l-201 -155l125 -186l-36 -9l-135 198l213 164z" />
    <glyph glyph-name="equal" unicode="=" horiz-adv-x="431" 
d="M555 296h-336l20 28h336zM494 204h-336l19 28h337z" />
    <glyph glyph-name="greater" unicode="&#x3e;" horiz-adv-x="290" 
d="M12 9l201 155l-125 186l36 9l135 -198l-213 -164z" />
    <glyph glyph-name="question" unicode="?" horiz-adv-x="327" 
d="M47 84q33 0 33 -41q0 -19 -11 -33.5t-30 -14.5q-15 0 -25.5 11.5t-10.5 27.5q0 18 13 34t31 16zM291 527q0 -66 -62 -132q-38 -36 -112 -110q-58 -59 -52 -102q-15 26 -15 44q0 56 45 105q29 30 88 90q52 53 66 108q6 10 6 23q0 110 -98 110q-42 0 -74 -20
q-38 -23 -38 -63q0 -11 3.5 -32t3.5 -32q0 -51 -34 -76q0 21 -9 63t-9 63q0 52 52 85q46 29 101 29q138 0 138 -153z" />
    <glyph glyph-name="at" unicode="@" horiz-adv-x="788" 
d="M480 161q-57 0 -57 70q0 24 8 55q-68 -113 -121 -121q-13 -2 -22 -2q-57 0 -90 39t-30 96q4 81 67 149.5t143 68.5q38 0 59 -22q17 -17 31 -58l22 61l70 8q-19 -43 -53 -136q-1 -6 -27 -77q-16 -45 -16 -58q0 -52 36 -52q72 0 128 82q49 71 49 130q0 113 -91 189
q-86 71 -201 71q-142 0 -237.5 -91t-95.5 -232q0 -143 94.5 -233t238.5 -90q83 0 156 39.5t119 108.5h25q-46 -79 -128.5 -124t-175.5 -45q-161 0 -269 95q-115 100 -110 258q5 150 122 247q111 91 264 91q128 0 228 -77q109 -83 109 -207q0 -93 -76 -163t-169 -70zM379 493
q-65 0 -109 -86q-35 -68 -35 -126q0 -36 23 -62.5t58 -26.5q33 0 84 97q49 91 49 132q0 30 -20 51t-50 21z" />
    <glyph glyph-name="A" unicode="A" horiz-adv-x="1044" 
d="M1103 269q-70 -34 -165 -36q-87 -321 -131 -321q-10 0 -17 8q47 111 84 320l-196 33q-87 -160 -164 -213q-87 -60 -259 -60q-251 0 -251 104q0 39 37 76q76 77 234 115q123 30 263 30q72 0 139 -6q64 153 88 193q103 174 290 174q17 0 48 -4q-63 -56 -104 -187
q-23 -74 -50 -215q50 -10 154 -11zM886 291q62 281 157 373q-46 -2 -103 -34q-80 -45 -144 -137q-41 -59 -98 -178zM656 276q-91 15 -172 15q-123 0 -239 -30q-150 -39 -203 -115q-17 -25 -17 -36q0 -58 235 -58q156 0 239 41q102 50 157 183z" />
    <glyph glyph-name="B" unicode="B" horiz-adv-x="799" 
d="M565 366q29 -5 46 -10q26 -7 42 -16q39 -22 63 -78q22 -50 22 -99q0 -102 -89 -141q-60 -26 -176 -26q-59 0 -175.5 3.5t-175.5 3.5q-27 0 -142 -8q29 37 79 52q14 4 95 17q56 20 91 106q19 46 40 142q24 111 50 161q43 80 133 121q-71 -105 -94 -193q-11 -44 -32 -132
q-19 -77 -48 -122q-35 -55 -98 -86h171q40 0 119 -4t119 -4q49 0 68 13q25 17 25 63q0 108 -70 152q-50 32 -169 40q-51 4 -51 26q0 21 40 24q108 9 163 31q94 38 94 120q0 136 -263 136q-272 0 -272 -110q0 -27 7.5 -80.5t7.5 -80.5q0 -39 -38 -96l-22 127q-12 73 -12 128
q0 43 26 66q40 35 173 59q107 19 190 19q93 0 162 -26q96 -36 96 -113q0 -132 -195 -185z" />
    <glyph glyph-name="C" unicode="C" horiz-adv-x="544" 
d="M502 86q-65 -52 -130 -71q-58 -17 -148 -17q-92 0 -145 37q-62 43 -62 131q0 101 93 236q78 112 175 190q116 93 206 93q68 0 68 -47q0 -40 -70 -188t-96 -150q-6 2 -6 8q0 2 32 60q91 164 91 230q0 55 -52 55q-73 0 -173 -110q-74 -82 -144 -206q-83 -146 -83 -231
q0 -48 100 -53q19 -1 67 0l64 1q123 0 213 32z" />
    <glyph glyph-name="D" unicode="D" horiz-adv-x="905" 
d="M101 304q-28 112 -28 210q0 96 38 142q41 50 135 50q161 0 328 -136q143 -116 234 -278q42 -75 42 -115q0 -103 -111 -149q-81 -34 -199 -34q-69 0 -207.5 5t-207.5 5q-62 0 -118 -10q37 35 102 50l103 24q55 21 83 73q22 42 45 139q23 94 48 138q40 70 119 97
q-48 -61 -77 -142q-2 -6 -39 -133q-20 -70 -47 -106q-33 -44 -109 -77q341 -17 391 -17q184 0 184 92q0 61 -82 185q-56 85 -128 167q-177 201 -352 201q-69 0 -97 -41q-24 -34 -24 -106q0 -25 6.5 -75t6.5 -75q0 -13 -39 -84z" />
    <glyph glyph-name="E" unicode="E" horiz-adv-x="541" 
d="M508 97q-72 -68 -140 -85q-46 -12 -166 -12q-81 0 -119 8q-80 17 -80 69q0 81 115 176q92 76 187 114q-57 10 -96 33q-54 32 -54 79q0 83 169 151q143 58 241 58q41 0 41 -32q0 -30 -54 -94q-37 -21 -81 -21h-7q75 79 75 101q0 21 -28 21q-77 0 -182 -65
q-114 -71 -114 -144q0 -66 103 -66q24 0 73 5t73 5q46 0 46 -13q0 -27 -146 -61q-94 -22 -176 -69q-91 -52 -142 -122q-24 -33 -24 -54q0 -25 73 -25h122q117 0 148 4q52 7 143 39z" />
    <glyph glyph-name="F" unicode="F" horiz-adv-x="775" 
d="M631 331h126l-13 -22h-116q-33 -157 -62 -249q-55 -175 -117 -218q-36 -25 -83 -25q-46 0 -121 8q-92 10 -122 12l-18 1q62 49 146 49q27 0 81 -12t81 -12q38 0 63 47q18 34 31 97l14 84l42 218l-143 1l4 21h144q28 111 49 158q34 77 98 132q-14 1 -162 5q-102 3 -161 3
q-145 0 -192 -5q-148 -16 -148 -74q0 -35 46 -98l72 -88q41 -61 41 -118q0 -11 -2 -32q-18 26 -67 92q-28 34 -82 104q-48 65 -48 118q0 93 187 133q113 24 262 24q203 0 405 -10q-21 -17 -70 -37t-69 -35q-39 -30 -66 -128q-5 -26 -30 -144z" />
    <glyph glyph-name="G" unicode="G" horiz-adv-x="806" 
d="M846 396q-52 -81 -88 -187q-51 -152 -156 -260q-123 -126 -267 -126q-35 0 -105.5 8t-105.5 8q-33 0 -91 -8q72 46 230 46q-9 0 29 -1h29q105 0 159 16q81 24 125 91q22 34 43 100q35 112 96 214q-237 -167 -461 -167q-85 0 -148 29q-82 38 -82 114q0 79 75 165
q103 117 247 184t298 67q64 0 113 -18q69 -25 69 -77q0 -70 -131 -163q-99 -70 -196 -111q-124 -52 -165 -52q-40 0 -92 39q313 0 487 180q51 53 51 105q0 78 -131 78q-159 0 -309 -82q-159 -86 -225 -223q-26 -54 -26 -97q0 -61 76 -89q54 -20 128 -20q138 0 280 75
q67 36 244 162z" />
    <glyph glyph-name="H" unicode="H" horiz-adv-x="948" 
d="M1030 342q-64 -46 -153 -52q-10 -93 -29 -171q-31 -128 -70 -146q-6 2 -6 9q0 5 17 83q18 83 20 98q10 76 12 127q-64 4 -192 10q-91 -311 -469 -311q-157 0 -157 93q0 74 136 147q97 53 198 77q129 31 274 36q7 63 7 101q0 114 -33 233l62 48q19 -91 19 -177
q0 -96 -25 -205q111 1 185 -5q40 343 171 478q-5 -12 -23 -58q-66 -165 -92 -420q56 -7 59 -7q15 0 45 5t44 7zM603 301q-362 0 -521 -135q-58 -49 -58 -83q0 -39 118 -39q180 0 284 45q142 61 177 212z" />
    <glyph glyph-name="I" unicode="I" horiz-adv-x="454" 
d="M581 689q-33 -40 -45 -57q-21 -32 -33 -65t-55 -234q-33 -157 -84 -230q-72 -104 -206 -104q-145 0 -248 6q83 36 148 44q36 4 153 6q32 0 82 8q37 11 63 122q16 75 49 225q32 137 77 194q33 41 60 64q-84 -8 -158 -45q-143 -71 -211 -204q-52 -102 -75 -288
q-22 61 -22 128q0 183 164 310q151 117 341 120z" />
    <glyph glyph-name="J" unicode="J" horiz-adv-x="528" 
d="M584 693q-19 -24 -52 -72q-18 -34 -36 -104q-6 -23 -53 -233q-31 -140 -63 -229q50 -1 83 -1q34 0 51 1q-40 -31 -74 -42q-24 -8 -84 -14q-43 -105 -131 -197q-105 -110 -201 -110q-47 0 -80.5 35.5t-33.5 82.5q0 55 55 111q105 107 361 134q21 69 56 226q32 142 59 226
q33 101 107 169l-17 1q-101 6 -211 -56q-71 -40 -117 -108q-7 -11 -60 -113q-31 -60 -68 -81q28 186 157 283q122 92 314 92q15 0 38 -1zM308 -3q-17 1 -29 1q-109 0 -198 -30q-124 -42 -124 -128q0 -44 26 -78q28 -37 70 -37q81 0 160 99q61 77 95 173z" />
    <glyph glyph-name="K" unicode="K" horiz-adv-x="706" 
d="M921 666q-55 -38 -143 -124q-123 -121 -148 -142q-83 -71 -141 -86q89 -39 127 -130q15 -37 43 -183q23 -121 68 -192q-73 39 -114 165q-21 72 -65 215q-36 109 -104 120q-22 -114 -53 -178q-48 -99 -129 -125q-28 -9 -87 -10h-89q-124 0 -190 -6q76 64 205 64
q21 0 62.5 -1.5t62.5 -1.5q78 0 101 24q18 19 40 136q35 186 44 223q33 130 75 176q24 26 61 56q-27 1 -40 1q-79 0 -179 -16q-130 -21 -161 -54q-16 -17 -16 -46q0 -23 7.5 -68.5t7.5 -68.5q0 -55 -42 -113q-3 34 -19 132q-14 85 -14 124q0 72 178 107q117 23 238 23
q50 0 79 -4q-59 -59 -93 -166q-14 -45 -44 -188l15 -1q56 -4 147 98l120 152q87 89 182 89z" />
    <glyph glyph-name="L" unicode="L" horiz-adv-x="709" 
d="M671 69q-36 -42 -96 -58q-43 -11 -114 -11l-308 1q-29 0 -80 -2q-54 -3 -80 -3q-12 0 -26 4q36 34 125 42q98 8 130 26q64 36 107 146q26 73 81 217q52 126 139 194q76 59 145 59q78 0 78 -75q0 -54 -29.5 -113t-71.5 -96v10q0 32 26.5 98.5t26.5 100.5q0 54 -45 54
q-79 0 -146 -116q-35 -61 -78 -185q-47 -137 -101 -207q-42 -55 -114 -103h270q93 0 161 17z" />
    <glyph glyph-name="M" unicode="M" horiz-adv-x="1196" 
d="M1183 -108q-108 88 -108 308q0 61 24 180t24 179q0 17 -5 39q-53 -61 -109 -198q-31 -78 -95 -234q-52 -122 -107 -161q-33 50 -33 146q0 70 21.5 208t21.5 208q0 30 -6 65q-58 -65 -96 -176q-20 -64 -64 -192q-50 -133 -141.5 -203.5t-234.5 -70.5q-81 0 -155 15
q-117 24 -117 74q0 82 257 173q197 69 333 88v-4q-51 -56 -242 -97q-149 -32 -252 -89q-72 -40 -72 -65q0 -39 183 -39q163 0 232 22q121 38 173 170q29 84 88 253q54 147 159 207q13 -37 13 -104q0 -78 -24 -233.5t-24 -233.5q0 -35 7 -66q43 52 99 203q70 190 99 247
q65 129 151 168q4 -19 4 -36q0 -85 -33 -251.5t-33 -251.5q0 -120 62 -248z" />
    <glyph glyph-name="N" unicode="N" horiz-adv-x="1109" 
d="M1256 684l-26 -66q-118 -79 -183 -293q-32 -116 -96 -347q-60 84 -87 230q-6 46 -31 245q-17 129 -49 174q-31 -37 -93 -226q-52 -159 -88 -224q-57 -104 -155 -145q-80 -34 -214 -34q-231 0 -231 89q0 71 199 147q80 30 268 82q8 2 60 19q37 12 61 13q-33 -46 -134 -75
q-16 -5 -199 -52q-67 -17 -129 -45q-98 -44 -98 -83q0 -41 170 -41q153 0 212 14q114 26 167 117q29 49 59 154q56 196 113 281q38 57 61 57q43 0 70 -144q12 -63 35 -281q17 -163 36 -188q13 43 48 182q49 195 76 256q64 143 178 184z" />
    <glyph glyph-name="O" unicode="O" horiz-adv-x="664" 
d="M90 488q-71 -140 -71 -226q0 -229 261 -229q140 0 225 89t85 230q0 112 -55 207q-65 112 -170 112q-72 0 -116.5 -49t-44.5 -121q0 -29 9 -85t9 -85q0 -64 -44 -99q-1 2 2 74q1 24 -11.5 85.5t-12.5 89.5q0 93 66 152t160 59q121 0 188 -80q63 -75 63 -198
q0 -192 -114.5 -307.5t-306.5 -115.5q-240 0 -240 227q0 122 71 228q15 23 19 27q14 15 28 15z" />
    <glyph glyph-name="P" unicode="P" horiz-adv-x="833" 
d="M564 578q-40 -65 -56 -98q-22 -47 -62 -208q-33 -133 -77 -189q-66 -83 -196 -83q-132 0 -210 5q66 51 201 51q19 0 58 -2t58 -2q24 0 36 10q22 19 48 134q34 153 59 213q51 122 141 169zM118 186l-64 125q-45 88 -45 120q0 42 61 96q87 77 248 120q140 37 277 37
q268 0 268 -223q0 -105 -85 -175q-81 -66 -188 -66q-61 0 -121 31q32 24 74 24q19 0 56 -7.5t56 -7.5q60 0 112.5 46t52.5 105q0 71 -43 144q-35 59 -87 82q-44 19 -119 19q-134 0 -265 -35q-166 -45 -226 -128q-20 -28 -20 -51q0 -21 34 -93t34 -110q0 -23 -10 -53z" />
    <glyph glyph-name="Q" unicode="Q" horiz-adv-x="675" 
d="M668 -20q-77 -41 -150 -41q-59 0 -174.5 23t-174.5 23q-43 0 -129.5 -8.5t-129.5 -8.5q59 48 146 63q47 8 161 8q27 0 100 43q64 38 94 64q87 76 144 177q65 114 65 217q0 136 -140 136q-79 0 -159 -50q-211 -131 -211 -379q0 -84 51 -84q45 0 129.5 41t129.5 41
q8 0 22 -1q-18 -8 -121 -79q-74 -51 -131 -51q-62 0 -95 76q-26 59 -26 130q0 199 216 318q103 57 196 57q89 0 138.5 -51t49.5 -140q0 -118 -83 -233q-72 -98 -185 -169q-30 -19 -139 -66q67 -13 202 -37q108 -19 204 -19z" />
    <glyph glyph-name="R" unicode="R" horiz-adv-x="988" 
d="M965 -121q-52 4 -102 91q-38 66 -55 132q-35 140 -58 182q-16 23 -32 45q-18 30 -18 50q0 10 4 30q38 -28 95 -94q27 -2 42 -2q99 0 177 91q75 87 75 187q0 71 -93 71q-110 0 -197 -62q-90 -63 -121 -167q-4 -12 -23 -90q-29 -116 -89 -206q-75 -113 -174 -132
q-46 -9 -117 -9q-92 0 -161 15q-115 25 -115 85q0 75 213 144q148 48 284 66q-25 -29 -48 -42q-19 -10 -136 -35q-130 -27 -167 -42q-123 -49 -123 -89q0 -48 205 -48q114 0 139 2q92 7 129 38q44 36 68 143q35 152 54 198q49 116 150.5 183.5t226.5 67.5q152 0 152 -119
q0 -82 -69 -157q-62 -68 -146 -96q-54 -18 -126 -14q21 -49 43 -136q25 -101 37 -139q23 -74 67 -127q5 -7 9 -15z" />
    <glyph glyph-name="S" unicode="S" horiz-adv-x="749" 
d="M555 219q-43 3 -55 3q-111 0 -233 -29q-144 -34 -213 -92q-26 -22 -26 -37q0 -20 68 -25h88h215q125 2 213 16q29 26 29 77q0 65 -62 146q-38 47 -115 141q-62 76 -62 113q0 64 96 111q82 40 154 40q132 0 132 -62q0 -18 -12 -46q-13 -32 -28 -32q-7 0 -7 9q0 3 6.5 19.5
t6.5 25.5q0 35 -48 50q-32 11 -76 11q-56 0 -104 -23q-60 -29 -60 -79q0 -28 61 -103q98 -120 115 -145q61 -91 61 -164q0 -162 -398 -162q-95 0 -166 10q-132 19 -132 65q0 39 77 86q150 92 408 122z" />
    <glyph glyph-name="T" unicode="T" horiz-adv-x="677" 
d="M23 -1q71 55 229 55q20 0 59 -1t59 -1q95 0 120 11q36 16 65 123q18 72 58 213q38 123 111 184q-41 7 -226 40l-168 30q-94 16 -170 16q-95 0 -95 -116q0 -23 6.5 -69t6.5 -69q0 -36 -34 -106q-31 135 -31 204q0 106 60 148q49 34 160 34q132 0 292 -25q16 -3 289 -48
q-50 -34 -52 -36q-28 -19 -44 -46q-34 -56 -63 -185q-32 -143 -56 -195q-44 -98 -134 -137q-62 -27 -264 -27q-76 0 -144 2z" />
    <glyph glyph-name="U" unicode="U" horiz-adv-x="859" 
d="M851 72q-53 -82 -153 -82q-44 0 -57 13.5t-13 57.5q0 23 4 59q5 46 6 58q-62 -80 -137 -132q-91 -63 -175 -63q-34 0 -43 28q-5 15 -5 58q0 94 32 215q2 9 63 209q20 66 20 97q0 69 -107 69q-76 0 -142 -28q-85 -36 -85 -101q0 -32 16 -95.5t16 -95.5q0 -48 -24 -81
q-22 73 -35 123q-22 82 -22 128q0 86 108 135q84 38 185 38q142 0 142 -103q0 -46 -20 -116q-11 -38 -34 -113q-59 -198 -59 -297q0 -43 13 -43q122 0 238 138q45 54 79 164q48 157 57 177q40 92 107 125q-49 -106 -101 -278q-55 -184 -64 -291q21 -1 39 -1q88 0 151 28z
" />
    <glyph glyph-name="V" unicode="V" horiz-adv-x="658" 
d="M829 693q-3 -131 -92 -277q-36 -60 -175 -240l-149 -194q-52 60 -52 156q0 77 42 226.5t42 226.5q0 99 -87 99q-100 0 -205 -94q-107 -97 -107 -195q0 -61 98 -178q-17 -5 -28 -5q-46 0 -83 58q-33 52 -33 102q0 108 125 223q124 112 233 112q141 0 141 -147
q0 -74 -39.5 -217t-39.5 -217q0 -42 19 -79l148 196q83 113 130 211q39 82 47 189z" />
    <glyph glyph-name="W" unicode="W" horiz-adv-x="894" 
d="M1056 678q-12 -118 -81 -247q-13 -24 -136 -221q-84 -135 -115 -232q-40 84 -40 190q0 60 21 177.5t21 177.5q0 35 -14 35q-27 0 -120 -250q-103 -277 -141 -323q-53 88 -53 214q0 62 15.5 184.5t15.5 184.5q0 85 -74 85q-77 0 -185 -70q-117 -76 -117 -145
q0 -63 70 -224q-33 11 -70 36q-19 34 -36 86q-19 57 -19 90q0 85 159 176q145 83 241 83q94 0 94 -119q0 -62 -18 -183.5t-18 -183.5q0 -74 18 -124q18 29 72 180q60 169 95 242q58 121 104 121q40 0 40 -74q0 -68 -24 -201.5t-24 -201.5q0 -31 7 -62q51 90 151 270
q78 145 95 292z" />
    <glyph glyph-name="X" unicode="X" horiz-adv-x="783" 
d="M892 688q-32 -142 -271 -374q20 -77 61 -230q35 -120 99 -215q-65 16 -135 179q-45 103 -78 225q-106 -118 -146 -157q-110 -108 -167 -119q-20 -4 -91 -4h-117q-66 0 -84 9q69 46 172 46q16 0 49 -1t49 -1q109 0 237 144q31 35 93 106q-17 62 -54 186q-41 132 -78 163
q-21 17 -55 17q-65 0 -150 -43q-95 -48 -95 -106q0 -43 44 -135q-4 -38 -21 -111q-71 157 -71 229q0 74 126 138q111 56 195 56q62 0 98 -50q51 -72 113 -299q131 140 203 299q28 22 74 48z" />
    <glyph glyph-name="Y" unicode="Y" horiz-adv-x="801" 
d="M859 638q-56 -132 -122 -416q-45 -193 -72 -258q-60 -145 -168 -198q-84 -41 -250 -41q-30 0 -75 3q17 35 49 73q26 -22 100 -22q130 0 194 32q78 39 117 172q18 61 39 217q-200 -211 -326 -211q-42 0 -42 94q0 64 30 195q16 66 48 199q27 113 27 140q0 44 -42 44
q-73 0 -184 -55q-124 -61 -124 -127q0 -41 32 -135q8 -23 44 -125l-75 33q-59 166 -59 219q0 38 68 90q47 36 103 64q124 62 221 62q31 0 53 -14q25 -17 25 -46q0 -27 -20 -113q-19 -76 -56 -229q-39 -161 -39 -214t26 -53q19 0 79 33q137 75 200 198q9 17 77 211
q42 120 122 178z" />
    <glyph glyph-name="Z" unicode="Z" horiz-adv-x="675" 
d="M775 660l-36 -12q-99 -33 -228 -240l-82 -134q-49 -76 -98 -122q-45 -43 -123 -96h171q104 0 131 3q67 7 124 39q-26 -61 -112 -84q-53 -14 -146 -14l-406 1q27 33 80 46q9 2 94 13q70 18 142 108q40 49 100 153q76 132 119 183q79 95 192 151q-74 14 -148 14
q-102 0 -211 -30q-150 -41 -150 -115q0 -31 39 -102q17 -30 52 -91q-15 -2 -29 -2q-15 0 -33 2q-88 128 -88 188q0 87 173 136q126 36 244 36q142 0 229 -31z" />
    <glyph glyph-name="bracketleft" unicode="[" horiz-adv-x="248" 
d="M288 724h-105l-184 -794h118q-1 5 -1 9q0 7 4 7h-68l174 759q29 -1 44 -1q14 0 14.5 2t3.5 18z" />
    <glyph glyph-name="backslash" unicode="\" horiz-adv-x="407" 
d="M14 708l334 -750l31 3l-333 747h-32z" />
    <glyph glyph-name="bracketright" unicode="]" horiz-adv-x="291" 
d="M-1 -70h105l184 794h-117q2 -16 -3 -16h68l-175 -759q-30 1 -44 1t-14.5 -2t-3.5 -18z" />
    <glyph glyph-name="asciicircum" unicode="^" horiz-adv-x="326" 
d="M328 708l-55 49l-102 -48h-10l96 73q11 6 18 6q8 0 14 -6l48 -73z" />
    <glyph glyph-name="underscore" unicode="_" horiz-adv-x="353" 
d="M0 -78h353v-20h-353v20z" />
    <glyph glyph-name="grave" unicode="`" horiz-adv-x="401" 
d="M300 329q-31 19 -117 69q-15 9 -15 19t8 18t18 8q11 0 20 -11q4 -4 93 -94z" />
    <glyph glyph-name="a" unicode="a" horiz-adv-x="401" 
d="M392 66q-24 -34 -39 -48q-27 -24 -55 -24q-64 0 -63 78q-21 -17 -64 -51q-35 -26 -74 -26q-80 0 -80 71q0 81 74.5 152.5t156.5 71.5q83 0 83 -65q0 -33 -23 -95q-11 -29 -34 -87h49q36 0 69 23zM242 272q-73 0 -123.5 -56.5t-50.5 -129.5q0 -43 47 -43q42 0 62 10
q43 21 75 78t32 106q0 35 -42 35z" />
    <glyph glyph-name="b" unicode="b" horiz-adv-x="392" 
d="M389 280l-8 -34h-67q-4 -66 -5 -72q-14 -92 -103 -145q-52 -31 -104 -31q-92 0 -95 8q0 8 8 26q26 59 44 141q10 48 30 145q35 167 62 240q62 169 148 169q60 0 60 -55q0 -68 -59 -129l-21 -21q-17 -15 -25 -16l-5 6q3 11 26 39.5t29 40.5q16 32 16 70q0 41 -35 41
q-49 0 -89 -138q-14 -49 -41 -183q-37 -188 -87 -338q18 -1 29 -1q184 0 184 130q0 43 -31 73h-57l9 34h187z" />
    <glyph glyph-name="c" unicode="c" horiz-adv-x="294" 
d="M274 60q-48 -53 -71 -61q-15 -5 -96 -5q-102 0 -102 77q0 89 68.5 154.5t157.5 65.5q32 0 32 -23q0 -22 -24 -87q-26 -70 -40 -70l-6 6q2 14 16 50q12 32 12 52q0 17 -23 17q-64 0 -119 -51t-55 -115q0 -22 35 -28q11 -2 52 -2h75q47 0 88 20z" />
    <glyph glyph-name="d" unicode="d" horiz-adv-x="393" 
d="M439 717l-21 -41q-51 -99 -84 -310q-38 -241 -71 -329h11q35 0 54 6q14 5 47 24q-43 -77 -98 -77q-33 0 -45 24q-8 16 -9 53q-49 -42 -70 -55q-42 -26 -86 -26q-67 0 -67 63q0 74 72 155.5t145 81.5q25 0 54 -12q27 152 49 236q44 165 100 210zM216 267q-64 0 -113 -64
q-45 -59 -45 -125q0 -44 51 -44q68 0 112 66q40 60 40 131q0 36 -45 36z" />
    <glyph glyph-name="e" unicode="e" horiz-adv-x="305" 
d="M261 278q-12 -49 -47 -49q-13 0 -45 19t-45 19q-14 0 -28.5 -14t-14.5 -28q0 -43 115 -43q0 -29 -15 -39q-6 -2 -44 0q-25 1 -55.5 -24t-30.5 -50q0 -29 83 -29h31q7 0 14 1h6q34 0 57 11q25 15 49 30q-51 -83 -130 -83h-70q-42 0 -60 7q-31 12 -31 47q0 33 34 60
q2 2 61 38q-43 22 -43 47q0 31 25 60.5t56 29.5q3 0 128 -10z" />
    <glyph glyph-name="f" unicode="f" horiz-adv-x="254" 
d="M392 716l-15 -56q-39 10 -59 10q-47 0 -76 -119l-66 -272h110l-10 -35h-108q-89 -425 -165 -583q-5 -4 -15 -4q-17 0 -17 8q8 34 35 136l41 158q30 139 65 285h-42l10 35h39q45 177 77 259q72 183 154 183q16 0 42 -5z" />
    <glyph glyph-name="g" unicode="g" horiz-adv-x="363" 
d="M243 88q-32 -32 -64 -63q-38 -30 -81 -30q-92 0 -92 67q0 85 72.5 156.5t157.5 71.5q79 0 79 -58q0 -68 -39 -225.5t-70 -220.5q-66 -132 -173 -132q-86 0 -86 37q0 20 25 63.5t42 43.5q8 0 8 -8q0 -2 -17 -25t-17 -34q0 -41 94 -41q27 0 44 26q34 52 72 180
q32 109 45 192zM228 272q-67 0 -119 -57.5t-52 -125.5q0 -46 55 -46q73 0 119 58q42 53 42 128q0 43 -45 43z" />
    <glyph glyph-name="h" unicode="h" horiz-adv-x="387" 
d="M369 73q-49 -73 -127 -73h-71q33 48 60 105q35 72 35 111q0 15 -10 27t-25 12q-57 0 -117 -105q-13 -22 -69 -150h-38q40 113 84 327q33 162 59 233q60 168 141 168q63 0 63 -65q0 -34 -38 -94q-39 -64 -70 -65l-5 5q6 14 28.5 38t29.5 37q15 28 15 68q0 50 -37 50
q-67 0 -119 -290q-32 -177 -45 -226q81 104 148 104q60 0 60 -61q0 -46 -36 -99q-4 -5 -68 -84h65q45 0 87 27z" />
    <glyph glyph-name="i" unicode="i" horiz-adv-x="192" 
d="M116 281q-21 -36 -41 -118.5t-43 -119.5h62q48 0 82 22q-47 -70 -109 -70q-30 0 -47 20.5t-17 51.5q0 54 50 214h63zM138 455q29 0 29 -23q0 -11 -25 -51t-34 -40q-14 0 -14 23q0 48 3 59q9 32 41 32z" />
    <glyph glyph-name="j" unicode="j" horiz-adv-x="197" 
d="M158 455q29 0 29 -23q0 -11 -25 -51t-34 -40q-14 0 -14 23q0 48 3 59q9 32 41 32zM139 281q-28 -115 -85 -345q-72 -280 -113 -280q-12 0 -18 6q1 7 4 14q45 103 98 344l28 132q18 75 37 129h49z" />
    <glyph glyph-name="k" unicode="k" horiz-adv-x="369" 
d="M356 69q-52 -68 -111 -68q-25 0 -39 11q-9 7 -36 64t-27 69q0 18 22 18q20 0 37 -27q75 22 75 75q0 51 -47 51q-58 0 -116 -103q-16 -28 -69 -154h-38q31 88 63 228q12 57 37 170q30 131 72 216q52 107 113 107q62 0 62 -62q0 -32 -33 -89q-36 -61 -64 -61l-5 5
q37 51 41 58q20 35 20 67q0 58 -35 58q-47 0 -89 -152q-8 -40 -42 -195q-12 -47 -43 -171q40 58 63 78q39 35 91 35q29 0 47.5 -16.5t18.5 -44.5q0 -74 -113 -119q7 -25 15 -51q10 -20 43 -20q49 0 87 23z" />
    <glyph glyph-name="l" unicode="l" horiz-adv-x="265" 
d="M237 69q-54 -71 -116 -71h-24q-22 1 -33 1h-57q53 150 92 332q84 396 208 396q61 0 61 -60q0 -38 -36.5 -92.5t-72.5 -66.5l-7 5q44 54 51 65q24 38 24 76q0 52 -36 52q-47 0 -86 -140q-9 -31 -40 -183q-10 -48 -41 -172q-18 -65 -69 -165l92 2q46 1 90 21z" />
    <glyph glyph-name="m" unicode="m" horiz-adv-x="572" 
d="M553 79q-64 -78 -128 -78q-55 0 -92 4q55 82 65 100q39 68 39 109q0 47 -33 47q-66 0 -117 -106q-13 -28 -54 -154h-54q11 33 35 106q27 83 27 116q0 42 -28 42q-54 0 -106 -115q-14 -30 -54 -149h-51q48 135 55 159q24 84 21 165q41 -42 41 -112q56 76 112 76
q67 0 62 -83q65 82 132 82q31 0 51.5 -17t20.5 -48q0 -37 -43 -92l-68 -82h64q33 0 54 7q15 5 49 23z" />
    <glyph glyph-name="n" unicode="n" horiz-adv-x="375" 
d="M362 69q-30 -38 -53 -52q-27 -16 -71 -16h-82q107 154 107 222q0 40 -39 40q-60 0 -117 -109q-8 -15 -63 -153h-47q70 154 71 320q47 -45 41 -118q71 92 146 92q62 0 62 -58q0 -45 -42 -102q-9 -13 -70 -89h54q47 0 103 23z" />
    <glyph glyph-name="o" unicode="o" horiz-adv-x="353" 
d="M215 295q47 0 76.5 -25.5t29.5 -71.5q0 -89 -57.5 -149t-146.5 -60q-44 0 -73 19q-34 22 -34 64q0 82 62 152.5t143 70.5zM188 273q-51 0 -90 -56q-36 -51 -36 -104q0 -47 25 -65q21 -15 69 -15q65 0 91 32q24 28 24 95q0 43 -20 75q-23 38 -63 38z" />
    <glyph glyph-name="p" unicode="p" horiz-adv-x="396" 
d="M194 498q-58 -115 -86 -262q62 61 116 61q45 0 74 -27t29 -72q0 -49 -34 -91q-18 -22 -74 -67h77q36 0 76 27q-54 -71 -124 -71q-14 0 -41.5 1.5t-41.5 1.5q-12 0 -95 -5q23 23 85 43.5t82 38.5q38 33 38 102q0 38 -14 63q-17 32 -52 32q-54 0 -91 -65q-30 -52 -48 -136
l-24 -123q-33 -165 -75 -250q-19 -37 -29 -37q-15 0 -15 9q0 4 16 57l20 67l46 233q33 169 71 277q51 146 114 193z" />
    <glyph glyph-name="q" unicode="q" horiz-adv-x="361" 
d="M231 84q-46 -49 -63 -62q-39 -30 -82 -30q-76 0 -76 74q0 84 72.5 160t155.5 76q33 0 53.5 -22.5t20.5 -55.5q0 -72 -57 -241t-57 -243q0 -13 4 -32q6 -25 7 -31q-4 -12 -12 -12q-14 0 -25 47q-8 36 -8 61q0 65 23 157q0 1 44 154zM222 281q-61 0 -109.5 -59.5
t-48.5 -121.5q0 -55 56 -55q62 0 106 66q40 59 40 124q0 46 -44 46z" />
    <glyph glyph-name="r" unicode="r" horiz-adv-x="318" 
d="M258 282q-81 -95 -81 -186q0 -56 34 -56q29 0 87 34q-59 -84 -110 -84q-30 0 -45.5 22t-15.5 53q0 66 72 169l-96 -7q-21 -60 -62 -95q28 58 28 95q-29 4 -29 32q0 45 39 45q22 0 32 -27z" />
    <glyph glyph-name="s" unicode="s" horiz-adv-x="308" 
d="M289 78q-33 -45 -67.5 -61t-92.5 -16h-119l19 43q70 0 88 4q53 12 53 60q0 16 -28 49q-32 38 -39 54l-38 -40q-27 -27 -40 -32q100 173 148 173q26 0 26 -18q0 -10 -24.5 -22t-24.5 -25q0 -10 26 -46t26 -63q0 -56 -46 -92l22 -1q33 -1 58 8q4 2 53 25z" />
    <glyph glyph-name="t" unicode="t" horiz-adv-x="287" 
d="M258 287l-8 -35h-120q-14 -78 -78 -201h69q40 0 61 5t54 25v-6q-35 -41 -48 -51q-27 -21 -65 -21h-116l66 248h-40l9 36h40q60 230 108 230q7 0 10 -7q-39 -128 -60 -223h118z" />
    <glyph glyph-name="u" unicode="u" horiz-adv-x="361" 
d="M271 278q4 -40 4 -55q0 -89 -50 -182l46 -2q36 -2 82 35q-47 -81 -104 -81q-30 0 -44 22l-20 46q-65 -72 -112 -72q-33 0 -54 32q-19 28 -19 62q0 29 22.5 84.5t22.5 84.5q0 17 -3 35l-6 35q47 -46 47 -96q0 -26 -15.5 -77t-15.5 -77q0 -34 34 -34q86 0 119 85
q12 30 30 155h36z" />
    <glyph glyph-name="v" unicode="v" horiz-adv-x="358" 
d="M365 289q2 -6 -7 -30h-61q0 -4 2.5 -14t2.5 -15q0 -67 -51 -148q-56 -88 -119 -88q-42 0 -75 59q-28 52 -28 98q0 72 45 138h54q-57 -86 -57 -180q0 -45 15 -57q12 -9 58 -9t84 42.5t38 89.5q0 52 -25 87h-47l-4 1q-3 1 -3 5q0 3 12 21h166z" />
    <glyph glyph-name="w" unicode="w" horiz-adv-x="532" 
d="M508 280l-5 -31h-73q-8 -254 -200 -254q-8 0 -27 1q26 38 26 82q0 30 -11 57q-94 -144 -150 -144q-27 0 -44 37q-14 30 -14 60q0 94 73 192h53q-79 -100 -79 -195q0 -46 34 -46q33 0 73 49t40 83q0 9 -2.5 25.5t-2.5 25.5q0 54 51 73q-7 -26 -7 -44q0 -21 15 -62.5
t15 -63.5q0 -47 -32 -84q29 -2 44 -2q51 0 83 40q29 36 29 89q0 44 -13 62.5t-56 18.5l-2 9q0 11 8 22h174z" />
    <glyph glyph-name="x" unicode="x" horiz-adv-x="342" 
d="M333 85q-13 -37 -44 -63.5t-68 -26.5q-43 0 -62 35q-7 13 -23 74l-70 -70q-55 -54 -70 -54q-10 0 -10 9q8 11 22 23q70 60 118 133q-21 86 -96 141v6q11 2 22 2q83 0 114 -103q31 35 61 70q36 32 86 32q7 0 20 -1q1 -51 -46 -51q-40 0 -58 -7q-18 -21 -53 -76
q12 -46 19 -114l12 -1q45 -4 68 6q9 6 58 36z" />
    <glyph glyph-name="y" unicode="y" horiz-adv-x="320" 
d="M295 278q-8 -145 -62 -337q-70 -251 -160 -283q-17 -6 -45 -6q-50 0 -61 2q-40 7 -40 34q0 20 26 58t45 50l3 -4q-1 -3 -18 -30q-12 -19 -12 -32q0 -42 96 -42q23 0 37 23q29 48 67 178q30 102 47 191q-19 -20 -59 -60q-34 -31 -74 -31q-33 0 -52 21t-19 54q0 32 25 96.5
t25 89.5t-18 65l3 3q16 0 34 -39q16 -34 16 -54q0 -27 -18 -78.5t-18 -78.5q0 -34 45 -34q72 0 109 92q26 65 30 152h48z" />
    <glyph glyph-name="z" unicode="z" horiz-adv-x="386" 
d="M333 291q-10 -15 -40 -47q-3 -3 -81 -104q-42 -54 -103 -91h98q45 0 66 5q18 4 60 23q-27 -43 -58 -60.5t-82 -17.5h-157q-26 0 -36 2v4q13 11 62 41q53 32 125 120q43 52 71 75h-22q-6 0 -14 1h-8q11 0 -74 2q-44 1 -75 -3l-3 4q24 46 103 46q18 0 53 -3t53 -3
q23 0 62 6z" />
    <glyph glyph-name="braceleft" unicode="{" horiz-adv-x="236" 
d="M72 256v-288q0 -55 28 -94q32 -44 85 -37q-5 3 -5 6t5 6q-51 21 -65 52q-8 18 -8 67v288q6 37 -76 91q83 78 77 115v289q0 50 7 66q14 32 66 53q-5 2 -5 5q0 4 5 7q-53 5 -85 -38q-28 -38 -28 -93v-289q4 -30 -17.5 -66.5t-49.5 -48.5q23 -16 47 -33q19 -19 19 -58z" />
    <glyph glyph-name="bar" unicode="|" horiz-adv-x="263" 
d="M113 -30v882h20v-882h-20z" />
    <glyph glyph-name="braceright" unicode="}" horiz-adv-x="236" 
d="M120 256v-288q0 -55 -28 -94q-32 -44 -85 -37q5 3 5 6t-5 6q51 21 65 52q8 18 8 67v288q-6 37 76 91q-83 78 -77 115v289q0 48 -8 66q-14 32 -65 53q5 2 5 5q0 4 -5 7q53 5 85 -38q28 -38 28 -93v-289q-5 -30 17 -66.5t50 -48.5q-38 -25 -47 -36q-19 -21 -19 -55z" />
    <glyph glyph-name="asciitilde" unicode="~" horiz-adv-x="268" 
d="M364 775q-60 -57 -116 -57q-15 0 -43.5 10.5t-43.5 10.5q-27 0 -58 -24q37 62 101 62q18 0 53 -9.5t53 -9.5q20 0 54 17z" />
    <glyph glyph-name="Adieresis" unicode="&#xc4;" horiz-adv-x="1044" 
d="M1103 269q-70 -34 -165 -36q-87 -321 -131 -321q-10 0 -17 8q47 111 84 320l-196 33q-87 -160 -164 -213q-87 -60 -259 -60q-251 0 -251 104q0 39 37 76q76 77 234 115q123 30 263 30q72 0 139 -6q64 152 88 193q102 174 290 174q17 0 48 -4q-63 -56 -104 -187
q-23 -74 -50 -215q50 -10 154 -11zM886 291q62 281 157 373q-46 -2 -103 -34q-80 -45 -144 -137q-41 -59 -98 -178zM656 276q-91 15 -172 15q-123 0 -239 -30q-150 -39 -203 -115q-17 -25 -17 -36q0 -58 235 -58q156 0 239 41q102 50 157 183zM1050 781q0 17 12.5 29.5
t29.5 12.5t29 -12.5t12 -29.5q0 -18 -11.5 -30.5t-29.5 -12.5t-30 12.5t-12 30.5zM890 781q0 17 12.5 29.5t29.5 12.5t29 -12.5t12 -29.5q0 -18 -11.5 -30.5t-29.5 -12.5t-30 12.5t-12 30.5z" />
    <glyph glyph-name="Aring" unicode="&#xc5;" horiz-adv-x="1044" 
d="M1103 269q-70 -34 -165 -36q-87 -321 -131 -321q-10 0 -17 8q47 111 84 320l-196 33q-87 -160 -164 -213q-87 -60 -259 -60q-251 0 -251 104q0 39 37 76q76 77 234 115q123 30 263 30q72 0 139 -6q64 152 88 193q102 174 290 174q17 0 48 -4q-63 -56 -104 -187
q-23 -74 -50 -215q50 -10 154 -11zM886 291q62 281 157 373q-46 -2 -103 -34q-80 -45 -144 -137q-41 -59 -98 -178zM656 276q-91 15 -172 15q-123 0 -239 -30q-150 -39 -203 -115q-17 -25 -17 -36q0 -58 235 -58q156 0 239 41q102 50 157 183zM1032 851q25 0 42 -20t17 -45
q0 -26 -16.5 -43.5t-42.5 -17.5t-42.5 17.5t-16.5 43.5q0 25 17 45t42 20zM1032 831q-16 0 -27.5 -14t-11.5 -31t11 -29t28 -12t28 12t11 29t-11.5 31t-27.5 14z" />
    <glyph glyph-name="Ccedilla" unicode="&#xc7;" horiz-adv-x="544" 
d="M205 -51q32 -4 56 -20q28 -19 28 -48q0 -34 -37 -53q-30 -16 -67 -16q-45 0 -76 21l14 20q24 -17 41 -17q26 0 48 10q29 13 29 35q0 45 -65 45v12q0 2 12 26q7 15 17 34q-188 9 -188 168q0 101 93 236q78 112 175 190q116 93 206 93q68 0 68 -47q0 -40 -70 -188t-96 -150
q-6 2 -6 8q0 2 32 60q91 164 91 230q0 55 -52 55q-73 0 -173 -110q-74 -82 -144 -206q-83 -146 -83 -231q0 -48 100 -53q19 -1 67 0l64 1q123 0 213 32q-66 -52 -127 -71q-56 -17 -144 -17q-12 -21 -26 -49z" />
    <glyph glyph-name="Eacute" unicode="&#xc9;" horiz-adv-x="541" 
d="M508 97q-72 -68 -140 -85q-46 -12 -166 -12q-81 0 -119 8q-80 17 -80 69q0 81 115 176q92 76 187 114q-57 10 -96 33q-54 32 -54 79q0 83 169 151q143 58 241 58q41 0 41 -32q0 -30 -54 -94q-37 -21 -81 -21h-7q75 79 75 101q0 21 -28 21q-77 0 -182 -65
q-114 -71 -114 -144q0 -66 103 -66q24 0 73 5t73 5q46 0 46 -13q0 -27 -146 -61q-94 -22 -176 -69q-91 -52 -142 -122q-24 -33 -24 -54q0 -25 73 -25h122q117 0 148 4q52 7 143 39zM422 715q50 31 158 94q17 10 17 20q0 11 -9 20t-20 9q-12 0 -21.5 -10.5t-127.5 -128.5z
" />
    <glyph glyph-name="Ntilde" unicode="&#xd1;" horiz-adv-x="1109" 
d="M1256 684l-26 -66q-118 -79 -183 -293q-32 -116 -96 -347q-60 84 -87 230q-6 46 -31 245q-17 129 -49 174q-31 -37 -93 -226q-52 -159 -88 -224q-57 -104 -155 -145q-80 -34 -214 -34q-231 0 -231 89q0 71 199 147q80 30 268 82q8 2 60 19q37 12 61 13q-33 -46 -134 -75
q-16 -5 -199 -52q-67 -17 -129 -45q-98 -44 -98 -83q0 -41 170 -41q153 0 212 14q114 26 167 117q29 49 59 154q56 194 113 281q37 57 61 57q43 0 70 -144q12 -63 35 -281q17 -163 36 -188q13 43 48 182q49 195 76 256q64 143 178 184zM1164 775q-60 -57 -116 -57
q-15 0 -43.5 10.5t-43.5 10.5q-27 0 -58 -24q37 62 101 62q18 0 53 -9.5t53 -9.5q20 0 54 17z" />
    <glyph glyph-name="Odieresis" unicode="&#xd6;" horiz-adv-x="709" 
d="M160 488q-71 -140 -71 -226q0 -229 261 -229q140 0 225 89t85 230q0 112 -55 207q-65 112 -170 112q-72 0 -116.5 -49t-44.5 -121q0 -29 9 -85t9 -85q0 -64 -44 -99q-1 2 2 74q1 24 -11.5 85.5t-12.5 89.5q0 93 66 152t160 59q121 0 188 -80q63 -75 63 -198
q0 -192 -114.5 -307.5t-306.5 -115.5q-240 0 -240 227q0 122 71 228q15 23 19 27q14 15 28 15zM550 781q0 17 12.5 29.5t29.5 12.5t29 -12.5t12 -29.5q0 -18 -11.5 -30.5t-29.5 -12.5t-30 12.5t-12 30.5zM390 781q0 17 12.5 29.5t29.5 12.5t29 -12.5t12 -29.5
q0 -18 -11.5 -30.5t-29.5 -12.5t-30 12.5t-12 30.5z" />
    <glyph glyph-name="Udieresis" unicode="&#xdc;" horiz-adv-x="859" 
d="M851 72q-53 -82 -153 -82q-44 0 -57 13.5t-13 57.5q0 23 4 59q5 46 6 58q-62 -80 -137 -132q-91 -63 -175 -63q-34 0 -43 28q-5 15 -5 58q0 94 32 215q2 9 63 209q20 66 20 97q0 69 -107 69q-76 0 -142 -28q-85 -36 -85 -101q0 -32 16 -95.5t16 -95.5q0 -48 -24 -81
q-22 73 -35 123q-22 82 -22 128q0 86 108 135q84 38 185 38q142 0 142 -103q0 -46 -20 -116q-11 -38 -34 -113q-59 -198 -59 -297q0 -43 13 -43q122 0 238 138q45 54 79 164q48 157 57 177q40 92 107 125q-49 -106 -101 -278q-55 -184 -64 -291q21 -1 39 -1q88 0 151 28z
M670 771q0 17 12.5 29.5t29.5 12.5t29 -12.5t12 -29.5q0 -18 -11.5 -30.5t-29.5 -12.5t-30 12.5t-12 30.5zM510 771q0 17 12.5 29.5t29.5 12.5t29 -12.5t12 -29.5q0 -18 -11.5 -30.5t-29.5 -12.5t-30 12.5t-12 30.5z" />
    <glyph glyph-name="aacute" unicode="&#xe1;" horiz-adv-x="401" 
d="M392 66q-24 -34 -39 -48q-27 -24 -55 -24q-64 0 -63 78q-21 -17 -64 -51q-35 -26 -74 -26q-80 0 -80 71q0 81 74.5 152.5t156.5 71.5q83 0 83 -65q0 -33 -23 -95q-11 -29 -34 -87h49q36 0 69 23zM242 272q-73 0 -123.5 -56.5t-50.5 -129.5q0 -43 47 -43q42 0 62 10
q43 21 75 78t32 106q0 35 -42 35zM201 329q32 20 116 69q15 9 15 19q0 26 -25 26q-11 0 -21 -11q-3 -4 -93 -94z" />
    <glyph glyph-name="agrave" unicode="&#xe0;" horiz-adv-x="401" 
d="M392 66q-24 -34 -39 -48q-27 -24 -55 -24q-64 0 -63 78q-21 -17 -64 -51q-35 -26 -74 -26q-80 0 -80 71q0 81 74.5 152.5t156.5 71.5q83 0 83 -65q0 -33 -23 -95q-11 -29 -34 -87h49q36 0 69 23zM242 272q-73 0 -123.5 -56.5t-50.5 -129.5q0 -43 47 -43q42 0 62 10
q43 21 75 78t32 106q0 35 -42 35zM300 329q-31 19 -117 69q-15 9 -15 19t8 18t18 8q11 0 20 -11q4 -4 93 -94z" />
    <glyph glyph-name="acircumflex" unicode="&#xe2;" horiz-adv-x="401" 
d="M392 66q-24 -34 -39 -48q-27 -24 -55 -24q-64 0 -63 78q-21 -17 -64 -51q-35 -26 -74 -26q-80 0 -80 71q0 81 74.5 152.5t156.5 71.5q83 0 83 -65q0 -33 -23 -95q-11 -29 -34 -87h49q36 0 69 23zM284 237q0 35 -42 35q-73 0 -123.5 -56.5t-50.5 -129.5q0 -43 47 -43
q42 0 62 10q43 21 75 78t32 106zM266 390q-41 -23 -125 -67l-2 3q52 40 115 92q11 9 22 9q13 0 46 -43l38 -54l-3 -3q-30 21 -91 63z" />
    <glyph glyph-name="adieresis" unicode="&#xe4;" horiz-adv-x="401" 
d="M392 66q-24 -34 -39 -48q-27 -24 -55 -24q-64 0 -63 78q-21 -17 -64 -51q-35 -26 -74 -26q-80 0 -80 71q0 81 74.5 152.5t156.5 71.5q83 0 83 -65q0 -33 -23 -95q-11 -29 -34 -87h49q36 0 69 23zM242 272q-73 0 -123.5 -56.5t-50.5 -129.5q0 -43 47 -43q42 0 62 10
q43 21 75 78t32 106q0 35 -42 35zM291 337q-22 1 -16 27q3 13 15 24t25 10q23 -1 17 -26q-8 -36 -41 -35zM192 341q-23 1 -17 26q3 13 15.5 24t24.5 11q24 -1 18 -27q-8 -35 -41 -34z" />
    <glyph glyph-name="atilde" unicode="&#xe3;" horiz-adv-x="401" 
d="M392 66q-24 -34 -39 -48q-27 -24 -55 -24q-64 0 -63 78q-21 -17 -64 -51q-35 -26 -74 -26q-80 0 -80 71q0 81 74.5 152.5t156.5 71.5q83 0 83 -65q0 -33 -23 -95q-11 -29 -34 -87h49q36 0 69 23zM242 272q-73 0 -123.5 -56.5t-50.5 -129.5q0 -43 47 -43q42 0 62 10
q43 21 75 78t32 106q0 35 -42 35zM381 400q-49 -47 -96 -47q-12 0 -35.5 8.5t-35.5 8.5q-22 0 -48 -19q30 51 83 51q15 0 43.5 -8t43.5 -8q18 0 45 14z" />
    <glyph glyph-name="aring" unicode="&#xe5;" horiz-adv-x="401" 
d="M392 66q-24 -34 -39 -48q-27 -24 -55 -24q-64 0 -63 78q-21 -17 -64 -51q-35 -26 -74 -26q-80 0 -80 71q0 81 74.5 152.5t156.5 71.5q83 0 83 -65q0 -33 -23 -95q-11 -29 -34 -87h49q36 0 69 23zM242 272q-73 0 -123.5 -56.5t-50.5 -129.5q0 -43 47 -43q42 0 62 10
q43 21 75 78t32 106q0 35 -42 35zM282 461q25 0 42 -20t17 -45q0 -26 -16.5 -43.5t-42.5 -17.5t-42.5 17.5t-16.5 43.5q0 25 17 45t42 20zM282 441q-16 0 -27.5 -14t-11.5 -31t11 -29t28 -12t28 12t11 29t-11.5 31t-27.5 14z" />
    <glyph glyph-name="ccedilla" unicode="&#xe7;" horiz-adv-x="294" 
d="M114 -40q25 -3 44 -16q23 -16 23 -39q0 -27 -29 -42q-24 -13 -54 -13q-37 0 -61 18l11 15q19 -14 33 -14q20 0 39 8q23 11 23 28q0 36 -53 36v10q0 14 13 43q-98 1 -98 77q0 89 68.5 154.5t157.5 65.5q32 0 32 -23q0 -22 -24 -87q-26 -70 -40 -70l-6 6q2 14 16 50
q12 32 12 52q0 17 -23 17q-64 0 -119 -51t-55 -115q0 -22 35 -28q11 -2 52 -2h75q47 0 88 20q-45 -48 -65 -57t-85 -9q-4 -15 -10 -34z" />
    <glyph glyph-name="eacute" unicode="&#xe9;" horiz-adv-x="305" 
d="M261 278q-12 -49 -47 -49q-13 0 -45 19t-45 19q-14 0 -28.5 -14t-14.5 -28q0 -43 115 -43q0 -29 -15 -39q-6 -2 -44 0q-25 1 -55.5 -24t-30.5 -50q0 -29 83 -29h31q7 0 14 1h6q34 0 57 11q25 15 49 30q-51 -83 -130 -83h-70q-42 0 -60 7q-31 12 -31 47q0 33 34 60
q2 2 61 38q-43 22 -43 47q0 31 25 60.5t56 29.5q3 0 128 -10zM161 329q32 20 116 69q15 9 15 19q0 26 -25 26q-11 0 -21 -11q-3 -4 -93 -94z" />
    <glyph glyph-name="egrave" unicode="&#xe8;" horiz-adv-x="305" 
d="M261 278q-12 -49 -47 -49q-13 0 -45 19t-45 19q-14 0 -28.5 -14t-14.5 -28q0 -43 115 -43q0 -29 -15 -39q-6 -2 -44 0q-25 1 -55.5 -24t-30.5 -50q0 -29 83 -29h31q7 0 14 1h6q34 0 57 11q25 15 49 30q-51 -83 -130 -83h-70q-42 0 -60 7q-31 12 -31 47q0 33 34 60
q2 2 61 38q-43 22 -43 47q0 31 25 60.5t56 29.5q3 0 128 -10zM250 319q-31 19 -117 69q-15 9 -15 19t8 18t18 8q11 0 20 -11q4 -4 93 -94z" />
    <glyph glyph-name="ecircumflex" unicode="&#xea;" horiz-adv-x="305" 
d="M261 278q-12 -49 -47 -49q-13 0 -45 19t-45 19q-14 0 -28.5 -14t-14.5 -28q0 -43 115 -43q0 -29 -15 -39q-6 -2 -44 0q-25 1 -55.5 -24t-30.5 -50q0 -29 83 -29h31q7 0 14 1h6q34 0 57 11q25 15 49 30q-51 -83 -130 -83h-70q-42 0 -60 7q-31 12 -31 47q0 33 34 60
q2 2 61 38q-43 22 -43 47q0 31 25 60.5t56 29.5q3 0 128 -10zM206 390q-41 -23 -125 -67l-2 3q52 40 115 92q11 9 22 9q13 0 46 -43l38 -54l-3 -3q-30 21 -91 63z" />
    <glyph glyph-name="edieresis" unicode="&#xeb;" horiz-adv-x="305" 
d="M261 278q-12 -49 -47 -49q-13 0 -45 19t-45 19q-14 0 -28.5 -14t-14.5 -28q0 -43 115 -43q0 -29 -15 -39q-6 -2 -44 0q-25 1 -55.5 -24t-30.5 -50q0 -29 83 -29h31q7 0 14 1h6q34 0 57 11q25 15 49 30q-51 -83 -130 -83h-70q-42 0 -60 7q-31 12 -31 47q0 33 34 60
q2 2 61 38q-43 22 -43 47q0 31 25 60.5t56 29.5q3 0 128 -10zM251 337q-22 1 -16 27q3 13 15 24t25 10q23 -1 17 -26q-8 -36 -41 -35zM152 341q-23 1 -17 26q3 13 15.5 24t24.5 11q24 -1 18 -27q-8 -35 -41 -34z" />
    <glyph glyph-name="iacute" unicode="&#xed;" horiz-adv-x="192" 
d="M116 281q-21 -36 -41 -118.5t-43 -119.5h62q48 0 82 22q-47 -70 -109 -70q-30 0 -47 20.5t-17 51.5q0 54 50 214h63zM51 329q32 20 116 69q15 9 15 19q0 26 -25 26q-11 0 -21 -11q-3 -4 -93 -94z" />
    <glyph glyph-name="igrave" unicode="&#xec;" horiz-adv-x="192" 
d="M116 281q-21 -36 -41 -118.5t-43 -119.5h62q48 0 82 22q-47 -70 -109 -70q-30 0 -47 20.5t-17 51.5q0 54 50 214h63zM170 319q-31 19 -117 69q-15 9 -15 19t8 18t18 8q11 0 20 -11q4 -4 93 -94z" />
    <glyph glyph-name="icircumflex" unicode="&#xee;" horiz-adv-x="192" 
d="M116 281q-21 -36 -41 -118.5t-43 -119.5h62q48 0 82 22q-47 -70 -109 -70q-30 0 -47 20.5t-17 51.5q0 54 50 214h63zM126 390q-41 -23 -125 -67l-2 3q52 40 115 92q11 9 22 9q13 0 46 -43l38 -54l-3 -3q-30 21 -91 63z" />
    <glyph glyph-name="idieresis" unicode="&#xef;" horiz-adv-x="192" 
d="M116 281q-21 -36 -41 -118.5t-43 -119.5h62q48 0 82 22q-47 -70 -109 -70q-30 0 -47 20.5t-17 51.5q0 54 50 214h63zM151 337q-22 1 -16 27q3 13 15 24t25 10q23 -1 17 -26q-8 -36 -41 -35zM52 341q-23 1 -17 26q3 13 15.5 24t24.5 11q24 -1 18 -27q-8 -35 -41 -34z" />
    <glyph glyph-name="ntilde" unicode="&#xf1;" horiz-adv-x="375" 
d="M362 69q-30 -38 -53 -52q-27 -16 -71 -16h-82q107 154 107 222q0 40 -39 40q-60 0 -117 -109q-8 -15 -63 -153h-47q70 154 71 320q47 -45 41 -118q71 92 146 92q62 0 62 -58q0 -45 -42 -102q-9 -13 -70 -89h54q47 0 103 23zM331 400q-49 -47 -96 -47q-12 0 -35.5 8.5
t-35.5 8.5q-22 0 -48 -19q30 51 83 51q15 0 43.5 -8t43.5 -8q18 0 45 14z" />
    <glyph glyph-name="oacute" unicode="&#xf3;" horiz-adv-x="353" 
d="M215 295q47 0 76.5 -25.5t29.5 -71.5q0 -89 -57.5 -149t-146.5 -60q-44 0 -73 19q-34 22 -34 64q0 82 62 152.5t143 70.5zM188 273q-51 0 -90 -56q-36 -51 -36 -104q0 -47 25 -65q21 -15 69 -15q65 0 91 32q24 28 24 95q0 43 -20 75q-23 38 -63 38zM181 329q32 20 116 69
q15 9 15 19q0 26 -25 26q-11 0 -21 -11q-3 -4 -93 -94z" />
    <glyph glyph-name="ograve" unicode="&#xf2;" horiz-adv-x="353" 
d="M215 295q47 0 76.5 -25.5t29.5 -71.5q0 -89 -57.5 -149t-146.5 -60q-44 0 -73 19q-34 22 -34 64q0 82 62 152.5t143 70.5zM188 273q-51 0 -90 -56q-36 -51 -36 -104q0 -47 25 -65q21 -15 69 -15q65 0 91 32q24 28 24 95q0 43 -20 75q-23 38 -63 38zM300 329
q-31 19 -117 69q-15 9 -15 19t8 18t18 8q11 0 20 -11q4 -4 93 -94z" />
    <glyph glyph-name="ocircumflex" unicode="&#xf4;" horiz-adv-x="353" 
d="M215 295q47 0 76.5 -25.5t29.5 -71.5q0 -89 -57.5 -149t-146.5 -60q-44 0 -73 19q-34 22 -34 64q0 82 62 152.5t143 70.5zM188 273q-51 0 -90 -56q-36 -51 -36 -104q0 -47 25 -65q21 -15 69 -15q65 0 91 32q24 28 24 95q0 43 -20 75q-23 38 -63 38zM246 390
q-41 -23 -125 -67l-2 3q52 40 115 92q11 9 22 9q13 0 46 -43l38 -54l-3 -3q-30 21 -91 63z" />
    <glyph glyph-name="odieresis" unicode="&#xf6;" horiz-adv-x="353" 
d="M215 295q47 0 76.5 -25.5t29.5 -71.5q0 -89 -57.5 -149t-146.5 -60q-44 0 -73 19q-34 22 -34 64q0 82 62 152.5t143 70.5zM188 273q-51 0 -90 -56q-36 -51 -36 -104q0 -47 25 -65q21 -15 69 -15q65 0 91 32q24 28 24 95q0 43 -20 75q-23 38 -63 38zM281 337q-22 1 -16 27
q3 13 15 24t25 10q23 -1 17 -26q-8 -36 -41 -35zM182 341q-23 1 -17 26q3 13 15.5 24t24.5 11q24 -1 18 -27q-8 -35 -41 -34z" />
    <glyph glyph-name="otilde" unicode="&#xf5;" horiz-adv-x="353" 
d="M215 295q47 0 76.5 -25.5t29.5 -71.5q0 -89 -57.5 -149t-146.5 -60q-44 0 -73 19q-34 22 -34 64q0 82 62 152.5t143 70.5zM188 273q-51 0 -90 -56q-36 -51 -36 -104q0 -47 25 -65q21 -15 69 -15q65 0 91 32q24 28 24 95q0 43 -20 75q-23 38 -63 38zM361 400
q-49 -47 -96 -47q-12 0 -35.5 8.5t-35.5 8.5q-22 0 -48 -19q30 51 83 51q15 0 43.5 -8t43.5 -8q18 0 45 14z" />
    <glyph glyph-name="uacute" unicode="&#xfa;" horiz-adv-x="361" 
d="M271 278q4 -40 4 -55q0 -89 -50 -182l46 -2q36 -2 82 35q-47 -81 -104 -81q-30 0 -44 22l-20 46q-65 -72 -112 -72q-33 0 -54 32q-19 28 -19 62q0 29 22.5 84.5t22.5 84.5q0 17 -3 35l-6 35q47 -46 47 -96q0 -26 -15.5 -77t-15.5 -77q0 -34 34 -34q86 0 119 85
q12 30 30 155h36zM131 329q32 20 116 69q15 9 15 19q0 26 -25 26q-11 0 -21 -11q-3 -4 -93 -94z" />
    <glyph glyph-name="ugrave" unicode="&#xf9;" horiz-adv-x="361" 
d="M271 278q4 -40 4 -55q0 -89 -50 -182l46 -2q36 -2 82 35q-47 -81 -104 -81q-30 0 -44 22l-20 46q-65 -72 -112 -72q-33 0 -54 32q-19 28 -19 62q0 29 22.5 84.5t22.5 84.5q0 17 -3 35l-6 35q47 -46 47 -96q0 -26 -15.5 -77t-15.5 -77q0 -34 34 -34q86 0 119 85
q12 30 30 155h36zM220 329q-31 19 -117 69q-15 9 -15 19t8 18t18 8q11 0 20 -11q4 -4 93 -94z" />
    <glyph glyph-name="ucircumflex" unicode="&#xfb;" horiz-adv-x="361" 
d="M271 278q4 -40 4 -55q0 -89 -50 -182l46 -2q36 -2 82 35q-47 -81 -104 -81q-30 0 -44 22l-20 46q-65 -72 -112 -72q-33 0 -54 32q-19 28 -19 62q0 29 22.5 84.5t22.5 84.5q0 17 -3 35l-6 35q47 -46 47 -96q0 -26 -15.5 -77t-15.5 -77q0 -34 34 -34q86 0 119 85
q12 30 30 155h36zM186 390q-41 -23 -125 -67l-2 3q52 40 115 92q11 9 22 9q13 0 46 -43l38 -54l-3 -3q-30 21 -91 63z" />
    <glyph glyph-name="udieresis" unicode="&#xfc;" horiz-adv-x="361" 
d="M271 278q4 -40 4 -55q0 -89 -50 -182l46 -2q36 -2 82 35q-47 -81 -104 -81q-30 0 -44 22l-20 46q-65 -72 -112 -72q-33 0 -54 32q-19 28 -19 62q0 29 22.5 84.5t22.5 84.5q0 17 -3 35l-6 35q47 -46 47 -96q0 -26 -15.5 -77t-15.5 -77q0 -34 34 -34q86 0 119 85
q12 30 30 155h36zM211 337q-22 1 -16 27q3 13 15 24t25 10q23 -1 17 -26q-8 -36 -41 -35zM112 341q-23 1 -17 26q3 13 15.5 24t24.5 11q24 -1 18 -27q-8 -35 -41 -34z" />
    <glyph glyph-name="dagger" unicode="&#x2020;" horiz-adv-x="55" 
 />
    <glyph glyph-name="degree" unicode="&#xb0;" horiz-adv-x="275" 
d="M136 695q40 0 68 -29t28 -69q0 -41 -27.5 -70t-68.5 -29t-68.5 29t-27.5 70q0 40 28 69t68 29zM136 665q-28 0 -47 -20t-19 -48t19 -48.5t47 -20.5t47 20.5t19 48.5t-19 48t-47 20z" />
    <glyph glyph-name="cent" unicode="&#xa2;" horiz-adv-x="293" 
d="M281 373q-1 -33 -37 -58q6 17 6 35q2 56 -44 67q-20 -77 -69 -248h1q15 -2 50 23q31 22 44 38q-6 -33 -42 -74t-67 -47l-19 -68l-14 3l18 66q-39 2 -60 30t-19 68q2 64 53 137.5t111 89.5l19 66l16 -1l-16 -64q71 -3 69 -63zM187 415q-35 -6 -74.5 -64.5t-40.5 -96.5
q-3 -68 50 -85z" />
    <glyph glyph-name="sterling" unicode="&#xa3;" horiz-adv-x="631" 
d="M412 450q59 67 137 63q57 -3 57 -55q0 -42 -20.5 -82.5t-53.5 -71.5l-7 8q-3 2 12 26q20 32 26 48q13 32 13 64q0 20 -11 34t-27 14q-73 0 -124 -104q-37 -92 -73 -184h85l-10 -23h-85q-44 -94 -127 -149h199q69 0 119 12q-43 -51 -155 -51l-227 1q-20 0 -59.5 -2
t-58.5 -2q-9 0 -19 3q27 25 92 31q73 6 96 19q50 27 90 138h-89l10 23l92 -1q4 6 44 102t74 139z" />
    <glyph glyph-name="section" unicode="&#xa7;" horiz-adv-x="9" 
 />
    <glyph glyph-name="bullet" unicode="&#x2022;" horiz-adv-x="308" 
d="M66 204q0 30 21 50t51 20t51 -20t21 -50t-21 -50.5t-51 -20.5t-51 20.5t-21 50.5z" />
    <glyph glyph-name="germandbls" unicode="&#xdf;" horiz-adv-x="486" 
d="M1 -91q-5 -4 -11 -4q-6 1 -6 8q0 2 16 58q11 38 19 69q47 180 107 461q18 84 70.5 136.5t119.5 55.5q63 2 102 -20q47 -27 44 -88q-4 -71 -41 -126q-41 -59 -107 -77q118 -10 118 -173q0 -111 -85 -166q-72 -46 -189 -46q-21 0 -45 6q18 49 41 71q87 -11 107 -11
q63 0 105 39.5t42 102.5q0 58 -31 95t-88 37q-12 0 -42 -3t-43 -3q5 18 30 49q96 18 135 66.5t39 146.5q0 38 -27 59.5t-66 21.5q-98 0 -128 -123q-10 -40 -36 -179q-21 -110 -37 -180q-22 -96 -113 -283z" />
    <glyph glyph-name="registered" unicode="&#xae;" horiz-adv-x="456" 
d="M218 686q77 0 132 -53t55 -130q0 -75 -57 -129t-132 -54q-77 0 -129.5 53.5t-52.5 130.5q0 75 54 128.5t130 53.5zM54 504q0 -68 47.5 -116.5t114.5 -48.5t115.5 47t48.5 114q0 68 -47 117t-115 49t-116 -47.5t-48 -114.5zM185 497v-60q0 -21 6 -25t29 -4v-10h-106v10
q23 0 29 4t6 25v131q0 20 -6.5 24t-28.5 4v12h78q67 0 77 -3q26 -8 30 -46q4 -39 -22 -50q-21 -4 -43 -8q32 -9 44 -33q4 -8 11 -41q4 -19 14 -19q18 0 18 38h11q0 -55 -44 -55q-30 0 -37 28q-5 44 -7 50q-9 28 -34 28h-25zM263 557q0 35 -53 35q-17 0 -21 -3.5t-4 -19.5
v-58h21q57 0 57 46z" />
    <glyph glyph-name="copyright" unicode="&#xa9;" horiz-adv-x="771" 
d="M541 235q-72 -111 -180 -111q-83 0 -139 68q-53 64 -53 149q0 84 55 148q58 68 141 68q42 0 106 -32q12 -6 19 -6q24 0 25 32h18v-162h-16q-12 61 -45 101q-40 48 -97 48q-67 0 -100 -71q-25 -54 -25 -130t32 -127q38 -60 110 -60q70 0 136 93zM371 -9q-144 0 -243 102
t-99 246q0 142 102.5 242t245.5 100q144 0 242.5 -102t98.5 -246q0 -142 -102 -242t-245 -100zM377 653q-132 0 -225.5 -91.5t-93.5 -222.5q0 -132 91 -226t222 -94q132 0 226 91.5t94 222.5t-91.5 225.5t-222.5 94.5z" />
    <glyph glyph-name="trademark" unicode="&#x2122;" horiz-adv-x="494" 
d="M406 470v167h-8l-66 -167h-13l-64 171h-6v-171h-21v189l42 -1l56 -146l57 146l43 1v-189h-20zM120 637v-167h-21v167h-65v22h150v-22h-64z" />
    <glyph glyph-name="acute" unicode="&#xb4;" horiz-adv-x="349" 
d="M131 329q32 20 116 69q15 9 15 19q0 26 -25 26q-11 0 -21 -11q-3 -4 -93 -94z" />
    <glyph glyph-name="dieresis" unicode="&#xa8;" horiz-adv-x="401" 
d="M291 337q-22 1 -16 27q3 13 15 24t25 10q23 -1 17 -26q-8 -36 -41 -35zM192 341q-23 1 -17 26q3 13 15.5 24t24.5 11q24 -1 18 -27q-8 -35 -41 -34z" />
    <glyph glyph-name="AE" unicode="&#xc6;" horiz-adv-x="1340" 
d="M975 420q-6 -28 -22 -122q58 40 132 69q-70 12 -110 53zM835 54q14 54 28 129q-1 0 -71 -78q-10 -14 -10 -26q0 -22 53 -25zM807 -88q-10 0 -17 8q19 46 35 97q-71 21 -71 66q0 32 44 76q11 11 33.5 32t33.5 32l7 7l2 10l-196 33q-87 -160 -164 -213q-87 -60 -259 -60
q-251 0 -251 104q0 39 37 76q76 77 234 115q123 30 263 30q72 0 139 -6q57 137 101 201q70 104 169 145q50 21 108 21q7 0 38 -4q-34 -30 -60 -83q57 37 139.5 63.5t148.5 26.5q65 0 65 -33q0 -30 -54 -94q-37 -21 -81 -21h-7q75 79 75 101q0 21 -28 21q-77 0 -182 -65
q-114 -71 -114 -144q0 -66 103 -66q24 0 73 5t73 5q46 0 46 -13q0 -27 -145 -61q-109 -26 -210 -88q-18 -62 -55 -182h117q117 0 148 4q52 7 143 39q-72 -68 -140 -85q-46 -12 -166 -12q-69 0 -117 8q-34 -96 -58 -96zM886 291q62 281 157 373q-46 -2 -103 -34
q-80 -45 -144 -137q-41 -59 -98 -178zM656 276q-91 15 -172 15q-123 0 -239 -30q-150 -39 -203 -115q-17 -25 -17 -36q0 -58 235 -58q156 0 239 41q102 50 157 183z" />
    <glyph glyph-name="Oslash" unicode="&#xd8;" horiz-adv-x="709" 
d="M157 87q64 -54 193 -54q140 0 225 89t85 230q0 109 -52 203zM160 488q-71 -140 -71 -226q0 -98 47 -154l455 473q-63 90 -156 90q-72 0 -116.5 -49t-44.5 -121q0 -19 9 -55t9 -55q0 -64 -44 -99q-1 2 2 74q0 11 -12 52.5t-12 62.5q0 93 66 152t160 59q112 0 179 -70
l69 72l22 -21l-72 -75q53 -73 53 -184q0 -192 -114.5 -307.5t-306.5 -115.5q-114 0 -172 47l-51 -53l-22 21l51 53q-46 55 -46 159q0 122 71 228q15 23 19 27q14 15 28 15z" />
    <glyph glyph-name="plusminus" unicode="&#xb1;" horiz-adv-x="0" 
 />
    <glyph glyph-name="yen" unicode="&#xa5;" horiz-adv-x="513" 
d="M76 123h78l11 44l-93 1l22 24h77l10 40l-7 134q-4 46 -15 83q-20 64 -52 56q-27 -6 -35 -12q-19 -14 -30 -57q-8 -30 1 -65q-10 -28 -37 -84q-11 56 -11 84q0 24 7 52q24 96 107 96q12 0 23 -1q50 -5 65 -38q25 -55 28 -228q126 107 211 227q25 18 65 37
q-51 -108 -276 -285q-3 -11 -10 -39h97l-21 -24l-82 -1l-11 -44h97l-21 -23l-82 1l-27 -108h-45l27 108l-92 -1z" />
    <glyph glyph-name="mu" unicode="&#xb5;" horiz-adv-x="709" 
d="M167 185l172 54q16 45 48 136q65 174 162 250q76 59 145 59q78 0 78 -75q0 -54 -29.5 -113t-71.5 -96v10q0 32 26.5 98.5t26.5 100.5q0 54 -45 54q-79 0 -146 -115q-34 -58 -78 -186q-19 -54 -38 -99l165 52l-3 -28l-178 -57q-21 -42 -47 -75q-43 -55 -114 -103h270
q93 0 161 17q-36 -42 -96 -58q-43 -11 -114 -11l-308 1q-29 0 -80 -2q-54 -3 -80 -3q-12 0 -26 4q36 34 125 42q98 8 130 26q59 33 104 138l-166 -53z" />
    <glyph glyph-name="mu" unicode="&#x3bc;" horiz-adv-x="709" 
d="M167 185l172 54q16 45 48 136q65 174 162 250q76 59 145 59q78 0 78 -75q0 -54 -29.5 -113t-71.5 -96v10q0 32 26.5 98.5t26.5 100.5q0 54 -45 54q-79 0 -146 -115q-34 -58 -78 -186q-19 -54 -38 -99l165 52l-3 -28l-178 -57q-21 -42 -47 -75q-43 -55 -114 -103h270
q93 0 161 17q-36 -42 -96 -58q-43 -11 -114 -11l-308 1q-29 0 -80 -2q-54 -3 -80 -3q-12 0 -26 4q36 34 125 42q98 8 130 26q59 33 104 138l-166 -53z" />
    <glyph glyph-name="ordfeminine" unicode="&#xaa;" horiz-adv-x="675" 
d="M775 660l-36 -12q-99 -33 -228 -240l-82 -134q-49 -76 -98 -122q-45 -43 -123 -96h171q104 0 131 3q67 7 124 39q-26 -61 -112 -84q-53 -14 -146 -14l-406 1q27 33 80 46q9 2 94 13q70 18 142 108q40 49 100 153q76 132 119 183q79 95 192 151q-74 14 -148 14
q-102 0 -211 -30q-150 -41 -150 -115q0 -31 39 -102q17 -30 52 -91q-15 -2 -29 -2q-15 0 -33 2q-88 128 -88 188q0 87 173 136q126 36 244 36q142 0 229 -31zM470 802l64 -48l113 47h10l-107 -73q-21 -14 -32 0l-57 73z" />
    <glyph glyph-name="ordmasculine" unicode="&#xba;" horiz-adv-x="386" 
d="M333 291q-10 -15 -40 -47q-3 -3 -81 -104q-42 -54 -103 -91h98q45 0 66 5q18 4 60 23q-27 -43 -58 -60.5t-82 -17.5h-157q-26 0 -36 2v4q13 11 62 41q53 32 125 120q43 52 71 75h-22q-6 0 -14 1h-8q11 0 -74 2q-44 1 -75 -3l-3 4q24 46 103 46q18 0 53 -3t53 -3
q23 0 62 6zM180 422l64 -48l113 47h10l-107 -73q-21 -14 -32 0l-57 73z" />
    <glyph glyph-name="ae" unicode="&#xe6;" horiz-adv-x="554" 
d="M321 178q-7 -23 -19 -59q16 13 43 32q-8 10 -24 27zM299 2q-13 0 -68 -3q-4 13 12 58q-85 -62 -146 -62q-80 0 -80 71q0 81 74.5 152.5t156.5 71.5q59 0 77 -35q26 33 58 33q3 0 128 -10q-12 -49 -47 -49q-13 0 -45 19t-45 19q-14 0 -28.5 -14t-14.5 -28q0 -43 115 -43
q0 -29 -15 -39q-6 -2 -44 0q-26 1 -60 -28.5t-34 -54.5q0 -24 62 -24q13 0 40 2.5t40 2.5q34 0 57 11q25 15 49 30q-51 -83 -130 -83q-19 0 -56 1.5t-56 1.5zM242 272q-73 0 -123.5 -56.5t-50.5 -129.5q0 -43 47 -43q42 0 62 10q43 21 75 78t32 106q0 35 -42 35z" />
    <glyph glyph-name="oslash" unicode="&#xf8;" horiz-adv-x="353" 
d="M258 222l-175 -171q21 -18 73 -18q65 0 91 32q24 28 24 95q0 34 -13 62zM70 68l177 174q-23 31 -59 31q-51 0 -90 -56q-36 -51 -36 -104q0 -28 8 -45zM0 0l26 25q-16 19 -16 47q0 82 62 152.5t143 70.5q40 0 68 -18l27 27l17 -14l-28 -28q22 -25 22 -64q0 -89 -57.5 -149
t-146.5 -60q-45 0 -75 21l-28 -27z" />
    <glyph glyph-name="questiondown" unicode="&#xbf;" horiz-adv-x="327" 
d="M244 391q-33 0 -33 40q0 19 11 34t30 15q15 0 25.5 -12t10.5 -27q0 -19 -13 -34.5t-31 -15.5zM0 -52q0 65 62 131q38 37 112 111q58 59 52 102q15 -27 15 -45q0 -56 -45 -105q-29 -29 -88 -89q-55 -57 -66 -108q-5 -8 -5 -23q0 -111 97 -111q41 0 74 21q38 24 38 62
q0 11 -3.5 32.5t-3.5 32.5q0 51 34 75q0 -21 9 -63t9 -63q0 -51 -53 -84q-46 -29 -100 -29q-138 0 -138 153z" />
    <glyph glyph-name="exclamdown" unicode="&#xa1;" horiz-adv-x="236" 
d="M3 -180q1 24 47 132q39 91 53 179q5 34 21 161q8 -3 13 -3t8 3q-9 -63 -18 -183q-9 -125 -17 -183q-5 -41 -14 -66q-22 -63 -70 -65q-11 -1 -17 6.5t-6 18.5zM145 386q-34 0 -34 41q0 19 11.5 33.5t29.5 14.5q36 0 36 -39q0 -18 -12.5 -34t-30.5 -16z" />
    <glyph glyph-name="logicalnot" unicode="&#xac;" horiz-adv-x="0" 
 />
    <glyph glyph-name="florin" unicode="&#x192;" horiz-adv-x="0" 
 />
    <glyph glyph-name="guillemotleft" unicode="&#xab;" horiz-adv-x="318" 
d="M177 190v-2q3 -18 39 -125l-12 -24l-75 158l153 113q-1 -28 -5 -28l-49 -46q-33 -31 -51 -46zM67 190v-2q3 -18 39 -125l-12 -24l-75 158l153 113q-1 -28 -5 -28l-49 -46q-33 -31 -51 -46z" />
    <glyph glyph-name="guillemotright" unicode="&#xbb;" horiz-adv-x="318" 
d="M236 161l-1 2q-1 6 -18 58q-6 21 -21 66l12 24l75 -158l-153 -113q1 28 5 28l50 47q34 32 51 46zM126 161l-1 2q-1 6 -18 58q-6 21 -21 66l12 24l75 -158l-153 -113q1 28 5 28l50 47q34 32 51 46z" />
    <glyph glyph-name="ellipsis" unicode="&#x2026;" horiz-adv-x="616" 
d="M535 80q33 0 33 -35q0 -18 -14.5 -32.5t-32.5 -14.5q-32 0 -32 34q0 18 14 33t32 15zM315 80q33 0 33 -35q0 -18 -14.5 -32.5t-32.5 -14.5q-32 0 -32 34q0 18 14 33t32 15zM85 80q33 0 33 -35q0 -18 -14.5 -32.5t-32.5 -14.5q-32 0 -32 34q0 18 14 33t32 15z" />
    <glyph glyph-name="nonbreakingspace" unicode="&#xa0;" horiz-adv-x="195" 
 />
    <glyph glyph-name="Agrave" unicode="&#xc0;" horiz-adv-x="1044" 
d="M1103 269q-70 -34 -165 -36q-87 -321 -131 -321q-10 0 -17 8q47 111 84 320l-196 33q-87 -160 -164 -213q-87 -60 -259 -60q-251 0 -251 104q0 39 37 76q76 77 234 115q123 30 263 30q72 0 139 -6q64 152 88 193q102 174 290 174q17 0 48 -4q-63 -56 -104 -187
q-23 -74 -50 -215q50 -10 154 -11zM886 291q62 281 157 373q-46 -2 -103 -34q-80 -45 -144 -137q-41 -59 -98 -178zM656 276q-91 15 -172 15q-123 0 -239 -30q-150 -39 -203 -115q-17 -25 -17 -36q0 -58 235 -58q156 0 239 41q102 50 157 183zM1123 715q-50 31 -158 94
q-17 10 -17 20q0 11 9 20t20 9q12 0 23 -12q8 -9 126 -127z" />
    <glyph glyph-name="Atilde" unicode="&#xc3;" horiz-adv-x="1044" 
d="M1103 269q-70 -34 -165 -36q-87 -321 -131 -321q-10 0 -17 8q47 111 84 320l-196 33q-87 -160 -164 -213q-87 -60 -259 -60q-251 0 -251 104q0 39 37 76q76 77 234 115q123 30 263 30q72 0 139 -6q64 152 88 193q102 174 290 174q17 0 48 -4q-63 -56 -104 -187
q-23 -74 -50 -215q50 -10 154 -11zM886 291q62 281 157 373q-46 -2 -103 -34q-80 -45 -144 -137q-41 -59 -98 -178zM656 276q-91 15 -172 15q-123 0 -239 -30q-150 -39 -203 -115q-17 -25 -17 -36q0 -58 235 -58q156 0 239 41q102 50 157 183zM1174 805q-60 -57 -116 -57
q-15 0 -43.5 10.5t-43.5 10.5q-27 0 -58 -24q37 62 101 62q18 0 53 -9.5t53 -9.5q20 0 54 17z" />
    <glyph glyph-name="Otilde" unicode="&#xd5;" horiz-adv-x="709" 
d="M160 488q-71 -140 -71 -226q0 -229 261 -229q140 0 225 89t85 230q0 112 -55 207q-65 112 -170 112q-72 0 -116.5 -49t-44.5 -121q0 -29 9 -85t9 -85q0 -64 -44 -99q-1 2 2 74q1 24 -11.5 85.5t-12.5 89.5q0 93 66 152t160 59q121 0 188 -80q63 -75 63 -198
q0 -192 -114.5 -307.5t-306.5 -115.5q-240 0 -240 227q0 122 71 228q15 23 19 27q14 15 28 15zM624 795q-60 -57 -116 -57q-15 0 -43.5 10.5t-43.5 10.5q-27 0 -58 -24q37 62 101 62q18 0 53 -9.5t53 -9.5q20 0 54 17z" />
    <glyph glyph-name="OE" unicode="&#x152;" horiz-adv-x="1044" 
d="M684 398q-1 -34 -6 -67l99 36q-54 9 -93 31zM475 64q119 56 155 191q-56 -28 -104 -72q-62 -57 -62 -104q0 -10 11 -15zM142 488q-71 -140 -71 -226q0 -229 261 -229q64 0 119 21q-6 10 -6 23q0 34 29 88q25 47 53 78q39 42 114 74q1 17 1 35q0 113 -55 208
q-64 111 -170 111q-71 0 -116 -49t-45 -121q0 -29 9 -85t9 -85q0 -64 -44 -99q-2 6 -2 16t2 29t2 29q0 30 -12 87.5t-12 87.5q0 93 66 152t160 59q165 0 226 -144q52 54 177 98q117 42 200 42q41 0 41 -32q0 -31 -54 -94q-37 -21 -81 -21h-7q75 78 75 101q0 21 -28 21
q-78 0 -182 -65q-114 -71 -114 -144q0 -66 103 -66q24 0 73 5t73 5q46 0 46 -13q0 -28 -145 -61q-99 -23 -172 -53q-42 -141 -159 -215q18 -3 41 -3q187 0 220 2q117 7 213 42q-73 -67 -141 -85q-46 -12 -165 -12q-159 0 -206 35q-90 -44 -204 -44q-240 0 -240 227
q0 119 71 228q15 23 19 27q14 14 28 15z" />
    <glyph glyph-name="oe" unicode="&#x153;" horiz-adv-x="550" 
d="M319 166q-2 -18 -8 -35q12 7 34 20q-9 4 -26 15zM215 295q75 0 99 -56q26 49 69 49q3 0 128 -10q-12 -49 -47 -49q-13 0 -45 19t-45 19q-14 0 -28.5 -14t-14.5 -28q0 -43 115 -43q0 -29 -15 -39q-6 -2 -44 0q-25 1 -55.5 -24t-30.5 -50q0 -29 83 -29h31q7 0 14 1h6
q34 0 57 11q25 15 49 30q-51 -83 -130 -83h-70q-81 0 -90 39q-56 -49 -134 -49q-44 0 -73 19q-34 22 -34 64q0 82 62 152.5t143 70.5zM188 273q-51 0 -90 -56q-36 -51 -36 -104q0 -47 25 -65q21 -15 69 -15q115 0 115 127q0 43 -20 75q-23 38 -63 38z" />
    <glyph glyph-name="endash" unicode="&#x2013;" horiz-adv-x="362" 
d="M358 164h-353l2 51l351 1v-52z" />
    <glyph glyph-name="emdash" unicode="&#x2014;" horiz-adv-x="694" 
d="M692 164h-693l2 51l691 1v-52z" />
    <glyph glyph-name="quotedblleft" unicode="&#x201c;" horiz-adv-x="271" 
d="M24 504q0 33 45 95q39 55 72 81q-2 -3 2 -4t4 -3q0 -3 -22.5 -32t-25.5 -37q-6 -16 -7 -44q0 -35 -2 -45q-9 -52 -41 -52q-25 0 -25 41zM134 504q0 33 45 95q39 55 72 81q-2 -3 2 -4t4 -3q0 -3 -22.5 -32t-25.5 -37q-6 -16 -7 -44q0 -35 -2 -45q-9 -52 -41 -52
q-25 0 -25 41z" />
    <glyph glyph-name="quotedblright" unicode="&#x201d;" horiz-adv-x="271" 
d="M255 640q0 -32 -44 -95q-40 -55 -72 -81q1 3 -2.5 4t-3.5 3q0 3 22.5 32t25.5 37q6 14 6 44.5t3 44.5q9 52 41 52q24 0 24 -41zM145 640q0 -32 -44 -95q-40 -55 -72 -81q1 3 -2.5 4t-3.5 3q0 3 22.5 32t25.5 37q6 14 6 44.5t3 44.5q9 52 41 52q24 0 24 -41z" />
    <glyph glyph-name="quoteleft" unicode="&#x2018;" horiz-adv-x="161" 
d="M44 504q0 33 45 95q39 55 72 81q-2 -3 2 -4t4 -3q0 -3 -22.5 -32t-25.5 -37q-6 -16 -7 -44q0 -35 -2 -45q-9 -52 -41 -52q-25 0 -25 41z" />
    <glyph glyph-name="quoteright" unicode="&#x2019;" horiz-adv-x="172" 
d="M195 640q0 -32 -44 -95q-40 -55 -72 -81q1 3 -2.5 4t-3.5 3q0 3 22.5 32t25.5 37q6 14 6 44.5t3 44.5q9 52 41 52q24 0 24 -41z" />
    <glyph glyph-name="divide" unicode="&#xf7;" 
 />
    <glyph glyph-name="ydieresis" unicode="&#xff;" horiz-adv-x="320" 
d="M295 278q-8 -145 -62 -337q-70 -251 -160 -283q-17 -6 -45 -6q-50 0 -61 2q-40 7 -40 34q0 20 26 58t45 50l3 -4q-1 -3 -18 -30q-12 -19 -12 -32q0 -42 96 -42q23 0 37 23q29 48 67 178q30 102 47 191q-19 -20 -59 -60q-34 -31 -74 -31q-33 0 -52 21t-19 54q0 32 25 96.5
t25 89.5t-18 65l3 3q16 0 34 -39q16 -34 16 -54q0 -27 -18 -78.5t-18 -78.5q0 -34 45 -34q72 0 109 92q26 65 30 152h48zM231 339q-20 1 -15 25q2 11 15 22t24 11q22 -1 16 -25q-8 -34 -40 -33zM132 342q-21 1 -15 25q3 12 14.5 23t23.5 10q22 0 16 -25q-3 -12 -15 -22.5
t-24 -10.5z" />
    <glyph glyph-name="Ydieresis" unicode="&#x178;" horiz-adv-x="801" 
d="M859 638q-56 -132 -122 -416q-45 -193 -72 -258q-60 -145 -168 -198q-84 -41 -250 -41q-30 0 -75 3q17 35 49 73q26 -22 100 -22q130 0 194 32q78 39 117 172q18 61 39 217q-200 -211 -326 -211q-42 0 -42 94q0 64 30 195q16 66 48 199q27 113 27 140q0 44 -42 44
q-73 0 -184 -55q-124 -61 -124 -127q0 -41 32 -135q8 -23 44 -125l-75 33q-59 166 -59 219q0 38 68 90q47 36 103 64q124 62 221 62q31 0 53 -14q25 -17 25 -46q0 -27 -20 -113q-19 -76 -56 -229q-39 -161 -39 -214t26 -53q19 0 79 33q137 75 200 198q9 17 77 211
q42 120 122 178zM700 761q0 17 12.5 29.5t29.5 12.5t29 -12.5t12 -29.5q0 -18 -11.5 -30.5t-29.5 -12.5t-30 12.5t-12 30.5zM530 761q0 17 12.5 29.5t29.5 12.5t29 -12.5t12 -29.5q0 -18 -11.5 -30.5t-29.5 -12.5t-30 12.5t-12 30.5z" />
    <glyph glyph-name="currency" unicode="&#xa4;" horiz-adv-x="578" 
d="M556 71q-3 -16 -40.5 -44.5t-53.5 -28.5h-169q7 24 19 38q8 2 18 0q14 -3 17 -3q96 0 96 65q0 22 -27 52q-30 34 -37 51q-6 0 -47 -53q-55 -70 -83 -99q-52 -53 -86 -53q-10 0 -30.5 -1t-30.5 -1q-104 0 -104 53q0 33 35 56q6 4 61 37q-27 17 -31 20q-15 14 -15 32
q0 37 29.5 62t67.5 25q12 0 36.5 -4t36.5 -4q20 0 28 6v-20q0 -9 -17.5 -21.5t-27.5 -12.5q-14 0 -42.5 20t-37.5 20q-17 0 -31 -12.5t-14 -29.5q0 -47 114 -46v-20q0 -17 -32 -19l-44 -2q-20 -6 -41.5 -28t-21.5 -41q0 -32 44 -32q86 0 110 7q20 6 56 47q16 19 49 58
q30 50 59 95q41 64 79 64q23 0 23 -17q0 -9 -23 -24.5t-23 -26.5q0 -6 26.5 -43t26.5 -64q0 -23 -17 -48q-5 -8 -33 -41q4 -1 34 -1q34 0 50 5.5t44 26.5z" />
    <glyph glyph-name="guilsinglleft" unicode="&#x2039;" horiz-adv-x="198" 
d="M67 190v-2q3 -18 39 -125l-12 -24l-75 158l153 113q-1 -28 -5 -28l-49 -46q-33 -31 -51 -46z" />
    <glyph glyph-name="guilsinglright" unicode="&#x203a;" horiz-adv-x="198" 
d="M125 160v2q-3 18 -39 125l12 24l75 -158l-153 -113q1 28 5 28l49 46q33 31 51 46z" />
    <glyph glyph-name="daggerdbl" unicode="&#x2021;" horiz-adv-x="15" 
 />
    <glyph glyph-name="periodcentered" unicode="&#xb7;" horiz-adv-x="550" 
d="M522 74v-3q0 -16 -38 -43t-56 -27h-148q3 21 5 26q5 12 20 12q3 0 14 -1h18q79 0 79 64q0 16 -19 36q-10 10 -29 31l-18 36q-24 -23 -63 -85t-63 -86q-41 -42 -87 -42q-26 0 -40 26q-12 21 -12 49q0 37 28 88q5 9 49 79q-6 2 -15 2q-64 0 -51 1q-29 -2 -39 -24
q-14 -31 -34 -58l-10 -5q9 27 25 81q-8 0 -28 17q-1 4 -1 10q0 18 10.5 32t28.5 14q13 0 18 -6l10 -18h138q-83 -107 -83 -180q0 -41 17 -57q12 -4 23 -4q48 0 92 69q25 42 75 127q42 69 78 69q25 0 25 -19q0 -4 -23 -24.5t-23 -24.5q0 -5 26.5 -41t26.5 -64t-10 -48
q-3 -6 -28 -42q3 -2 8 -2q48 0 104 35z" />
    <glyph glyph-name="periodcentered" unicode="&#x2219;" horiz-adv-x="550" 
d="M522 74v-3q0 -16 -38 -43t-56 -27h-148q3 21 5 26q5 12 20 12q3 0 14 -1h18q79 0 79 64q0 16 -19 36q-10 10 -29 31l-18 36q-24 -23 -63 -85t-63 -86q-41 -42 -87 -42q-26 0 -40 26q-12 21 -12 49q0 37 28 88q5 9 49 79q-6 2 -15 2q-64 0 -51 1q-29 -2 -39 -24
q-14 -31 -34 -58l-10 -5q9 27 25 81q-8 0 -28 17q-1 4 -1 10q0 18 10.5 32t28.5 14q13 0 18 -6l10 -18h138q-83 -107 -83 -180q0 -41 17 -57q12 -4 23 -4q48 0 92 69q25 42 75 127q42 69 78 69q25 0 25 -19q0 -4 -23 -24.5t-23 -24.5q0 -5 26.5 -41t26.5 -64t-10 -48
q-3 -6 -28 -42q3 -2 8 -2q48 0 104 35z" />
    <glyph glyph-name="quotesinglbase" unicode="&#x201a;" horiz-adv-x="173" 
d="M115 90q0 -32 -44 -95q-40 -55 -72 -81q1 3 -2.5 4t-3.5 3q0 3 22.5 32t25.5 37q6 14 6 44.5t3 44.5q9 52 41 52q24 0 24 -41z" />
    <glyph glyph-name="quotedblbase" unicode="&#x201e;" horiz-adv-x="271" 
d="M225 90q0 -32 -44 -95q-40 -55 -72 -81q1 3 -2.5 4t-3.5 3q0 3 22.5 32t25.5 37q6 14 6 44.5t3 44.5q9 52 41 52q24 0 24 -41zM115 90q0 -32 -44 -95q-40 -55 -72 -81q1 3 -2.5 4t-3.5 3q0 3 22.5 32t25.5 37q6 14 6 44.5t3 44.5q9 52 41 52q24 0 24 -41z" />
    <glyph glyph-name="perthousand" unicode="&#x2030;" horiz-adv-x="24" 
 />
    <glyph glyph-name="Acircumflex" unicode="&#xc2;" horiz-adv-x="1044" 
d="M1103 269q-70 -34 -165 -36q-87 -321 -131 -321q-10 0 -17 8q47 111 84 320l-196 33q-87 -160 -164 -213q-87 -60 -259 -60q-251 0 -251 104q0 39 37 76q76 77 234 115q123 30 263 30q72 0 139 -6q64 152 88 193q102 174 290 174q17 0 48 -4q-63 -56 -104 -187
q-23 -74 -50 -215q50 -10 154 -11zM886 291q62 281 157 373q-46 -2 -103 -34q-80 -45 -144 -137q-41 -59 -98 -178zM656 276q-91 15 -172 15q-123 0 -239 -30q-150 -39 -203 -115q-17 -25 -17 -36q0 -58 235 -58q156 0 239 41q102 50 157 183zM1036 790q-41 -23 -125 -67
l-8 8q51 33 121 87q12 9 22 9q13 0 46 -43l38 -54l-3 -3q-30 21 -91 63z" />
    <glyph glyph-name="Ecircumflex" unicode="&#xca;" horiz-adv-x="541" 
d="M508 97q-72 -68 -140 -85q-46 -12 -166 -12q-81 0 -119 8q-80 17 -80 69q0 81 115 176q92 76 187 114q-57 10 -96 33q-54 32 -54 79q0 83 169 151q143 58 241 58q41 0 41 -32q0 -30 -54 -94q-37 -21 -81 -21h-7q75 79 75 101q0 21 -28 21q-77 0 -182 -65
q-114 -71 -114 -144q0 -66 103 -66q24 0 73 5t73 5q46 0 46 -13q0 -27 -146 -61q-94 -22 -176 -69q-91 -52 -142 -122q-24 -33 -24 -54q0 -25 73 -25h122q117 0 148 4q52 7 143 39zM496 790q-41 -23 -125 -67l-8 8q51 33 121 87q12 9 22 9q13 0 46 -43l38 -54l-3 -3
q-30 21 -91 63z" />
    <glyph glyph-name="Aacute" unicode="&#xc1;" horiz-adv-x="1044" 
d="M1103 269q-70 -34 -165 -36q-87 -321 -131 -321q-10 0 -17 8q47 111 84 320l-196 33q-87 -160 -164 -213q-87 -60 -259 -60q-251 0 -251 104q0 39 37 76q76 77 234 115q123 30 263 30q72 0 139 -6q64 152 88 193q102 174 290 174q17 0 48 -4q-63 -56 -104 -187
q-23 -74 -50 -215q50 -10 154 -11zM886 291q62 281 157 373q-46 -2 -103 -34q-80 -45 -144 -137q-41 -59 -98 -178zM656 276q-91 15 -172 15q-123 0 -239 -30q-150 -39 -203 -115q-17 -25 -17 -36q0 -58 235 -58q156 0 239 41q102 50 157 183zM932 715q50 31 158 94
q17 10 17 20q0 11 -9 20t-20 9q-12 0 -21.5 -10.5t-127.5 -128.5z" />
    <glyph glyph-name="Edieresis" unicode="&#xcb;" horiz-adv-x="541" 
d="M508 97q-72 -68 -140 -85q-46 -12 -166 -12q-81 0 -119 8q-80 17 -80 69q0 81 115 176q92 76 187 114q-57 10 -96 33q-54 32 -54 79q0 83 169 151q143 58 241 58q41 0 41 -32q0 -30 -54 -94q-37 -21 -81 -21h-7q75 79 75 101q0 21 -28 21q-77 0 -182 -65
q-114 -71 -114 -144q0 -66 103 -66q24 0 73 5t73 5q46 0 46 -13q0 -27 -146 -61q-94 -22 -176 -69q-91 -52 -142 -122q-24 -33 -24 -54q0 -25 73 -25h122q117 0 148 4q52 7 143 39zM550 781q0 17 12.5 29.5t29.5 12.5t29 -12.5t12 -29.5q0 -18 -11.5 -30.5t-29.5 -12.5
t-30 12.5t-12 30.5zM390 781q0 17 12.5 29.5t29.5 12.5t29 -12.5t12 -29.5q0 -18 -11.5 -30.5t-29.5 -12.5t-30 12.5t-12 30.5z" />
    <glyph glyph-name="Egrave" unicode="&#xc8;" horiz-adv-x="541" 
d="M508 97q-72 -68 -140 -85q-46 -12 -166 -12q-81 0 -119 8q-80 17 -80 69q0 81 115 176q92 76 187 114q-57 10 -96 33q-54 32 -54 79q0 83 169 151q143 58 241 58q41 0 41 -32q0 -30 -54 -94q-37 -21 -81 -21h-7q75 79 75 101q0 21 -28 21q-77 0 -182 -65
q-114 -71 -114 -144q0 -66 103 -66q24 0 73 5t73 5q46 0 46 -13q0 -27 -146 -61q-94 -22 -176 -69q-91 -52 -142 -122q-24 -33 -24 -54q0 -25 73 -25h122q117 0 148 4q52 7 143 39zM533 715q-65 40 -158 94q-18 10 -18 20q0 12 9 20.5t21 8.5t23 -12q8 -9 126 -127z" />
    <glyph glyph-name="Iacute" unicode="&#xcd;" horiz-adv-x="454" 
d="M581 689q-33 -40 -45 -57q-21 -32 -33 -65t-55 -234q-33 -157 -84 -230q-72 -104 -206 -104q-145 0 -248 6q83 36 148 44q36 4 153 6q32 0 82 8q37 11 63 122q16 75 49 225q32 137 77 194q33 41 60 64q-84 -8 -158 -45q-143 -71 -211 -204q-52 -102 -75 -288
q-22 61 -22 128q0 183 164 310q151 117 341 120zM422 715q50 31 158 94q17 10 17 20q0 11 -9 20t-20 9q-12 0 -21.5 -10.5t-127.5 -128.5z" />
    <glyph glyph-name="Icircumflex" unicode="&#xce;" horiz-adv-x="454" 
d="M581 689q-33 -40 -45 -57q-21 -32 -33 -65t-55 -234q-33 -157 -84 -230q-72 -104 -206 -104q-145 0 -248 6q83 36 148 44q36 4 153 6q32 0 82 8q37 11 63 122q16 75 49 225q32 137 77 194q33 41 60 64q-84 -8 -158 -45q-143 -71 -211 -204q-52 -102 -75 -288
q-22 61 -22 128q0 183 164 310q151 117 341 120zM486 790q-41 -23 -125 -67l-8 8q51 33 121 87q12 9 22 9q13 0 46 -43l38 -54l-3 -3q-30 21 -91 63z" />
    <glyph glyph-name="Idieresis" unicode="&#xcf;" horiz-adv-x="454" 
d="M581 689q-33 -40 -45 -57q-21 -32 -33 -65t-55 -234q-33 -157 -84 -230q-72 -104 -206 -104q-145 0 -248 6q83 36 148 44q36 4 153 6q32 0 82 8q37 11 63 122q16 75 49 225q32 137 77 194q33 41 60 64q-84 -8 -158 -45q-143 -71 -211 -204q-52 -102 -75 -288
q-22 61 -22 128q0 183 164 310q151 117 341 120zM530 781q0 17 12.5 29.5t29.5 12.5t29 -12.5t12 -29.5q0 -18 -11.5 -30.5t-29.5 -12.5t-30 12.5t-12 30.5zM370 781q0 17 12.5 29.5t29.5 12.5t29 -12.5t12 -29.5q0 -18 -11.5 -30.5t-29.5 -12.5t-30 12.5t-12 30.5z" />
    <glyph glyph-name="Igrave" unicode="&#xcc;" horiz-adv-x="454" 
d="M581 689q-33 -40 -45 -57q-21 -32 -33 -65t-55 -234q-33 -157 -84 -230q-72 -104 -206 -104q-145 0 -248 6q83 36 148 44q36 4 153 6q32 0 82 8q37 11 63 122q16 75 49 225q32 137 77 194q33 41 60 64q-84 -8 -158 -45q-143 -71 -211 -204q-52 -102 -75 -288
q-22 61 -22 128q0 183 164 310q151 117 341 120zM523 715q-65 40 -158 94q-18 10 -18 20q0 12 9 20.5t21 8.5t23 -12q8 -9 126 -127z" />
    <glyph glyph-name="Oacute" unicode="&#xd3;" horiz-adv-x="709" 
d="M160 488q-71 -140 -71 -226q0 -229 261 -229q140 0 225 89t85 230q0 112 -55 207q-65 112 -170 112q-72 0 -116.5 -49t-44.5 -121q0 -29 9 -85t9 -85q0 -64 -44 -99q-1 2 2 74q1 24 -11.5 85.5t-12.5 89.5q0 93 66 152t160 59q121 0 188 -80q63 -75 63 -198
q0 -192 -114.5 -307.5t-306.5 -115.5q-240 0 -240 227q0 122 71 228q15 23 19 27q14 15 28 15zM422 715q50 31 158 94q17 10 17 20q0 11 -9 20t-20 9q-12 0 -21.5 -10.5t-127.5 -128.5z" />
    <glyph glyph-name="Ocircumflex" unicode="&#xd4;" horiz-adv-x="709" 
d="M160 488q-71 -140 -71 -226q0 -229 261 -229q140 0 225 89t85 230q0 112 -55 207q-65 112 -170 112q-72 0 -116.5 -49t-44.5 -121q0 -29 9 -85t9 -85q0 -64 -44 -99q-1 2 2 74q1 24 -11.5 85.5t-12.5 89.5q0 93 66 152t160 59q121 0 188 -80q63 -75 63 -198
q0 -192 -114.5 -307.5t-306.5 -115.5q-240 0 -240 227q0 122 71 228q15 23 19 27q14 15 28 15zM496 790q-41 -23 -125 -67l-8 8q51 33 121 87q12 9 22 9q13 0 46 -43l38 -54l-3 -3q-30 21 -91 63z" />
    <glyph glyph-name="Ograve" unicode="&#xd2;" horiz-adv-x="709" 
d="M160 488q-71 -140 -71 -226q0 -229 261 -229q140 0 225 89t85 230q0 112 -55 207q-65 112 -170 112q-72 0 -116.5 -49t-44.5 -121q0 -29 9 -85t9 -85q0 -64 -44 -99q-1 2 2 74q1 24 -11.5 85.5t-12.5 89.5q0 93 66 152t160 59q121 0 188 -80q63 -75 63 -198
q0 -192 -114.5 -307.5t-306.5 -115.5q-240 0 -240 227q0 122 71 228q15 23 19 27q14 15 28 15zM573 715q-65 40 -158 94q-18 10 -18 20q0 12 9 20.5t21 8.5t23 -12q8 -9 126 -127z" />
    <glyph glyph-name="Uacute" unicode="&#xda;" horiz-adv-x="859" 
d="M851 72q-53 -82 -153 -82q-44 0 -57 13.5t-13 57.5q0 23 4 59q5 46 6 58q-62 -80 -137 -132q-91 -63 -175 -63q-34 0 -43 28q-5 15 -5 58q0 94 32 215q2 9 63 209q20 66 20 97q0 69 -107 69q-76 0 -142 -28q-85 -36 -85 -101q0 -32 16 -95.5t16 -95.5q0 -48 -24 -81
q-22 73 -35 123q-22 82 -22 128q0 86 108 135q84 38 185 38q142 0 142 -103q0 -46 -20 -116q-11 -38 -34 -113q-59 -198 -59 -297q0 -43 13 -43q122 0 238 138q45 54 79 164q48 157 57 177q40 92 107 125q-49 -106 -101 -278q-55 -184 -64 -291q21 -1 39 -1q88 0 151 28z
M562 705q50 31 158 94q17 10 17 20q0 11 -9 20t-20 9q-12 0 -21.5 -10.5t-127.5 -128.5z" />
    <glyph glyph-name="Ucircumflex" unicode="&#xdb;" horiz-adv-x="859" 
d="M851 72q-53 -82 -153 -82q-44 0 -57 13.5t-13 57.5q0 23 4 59q5 46 6 58q-62 -80 -137 -132q-91 -63 -175 -63q-34 0 -43 28q-5 15 -5 58q0 94 32 215q2 9 63 209q20 66 20 97q0 69 -107 69q-76 0 -142 -28q-85 -36 -85 -101q0 -32 16 -95.5t16 -95.5q0 -48 -24 -81
q-22 73 -35 123q-22 82 -22 128q0 86 108 135q84 38 185 38q142 0 142 -103q0 -46 -20 -116q-11 -38 -34 -113q-59 -198 -59 -297q0 -43 13 -43q122 0 238 138q45 54 79 164q48 157 57 177q40 92 107 125q-49 -106 -101 -278q-55 -184 -64 -291q21 -1 39 -1q88 0 151 28z
M626 790q-41 -23 -125 -67l-8 8q51 33 121 87q12 9 22 9q13 0 46 -43l38 -54l-3 -3q-30 21 -91 63z" />
    <glyph glyph-name="Ugrave" unicode="&#xd9;" horiz-adv-x="859" 
d="M851 72q-53 -82 -153 -82q-44 0 -57 13.5t-13 57.5q0 23 4 59q5 46 6 58q-62 -80 -137 -132q-91 -63 -175 -63q-34 0 -43 28q-5 15 -5 58q0 94 32 215q2 9 63 209q20 66 20 97q0 69 -107 69q-76 0 -142 -28q-85 -36 -85 -101q0 -32 16 -95.5t16 -95.5q0 -48 -24 -81
q-22 73 -35 123q-22 82 -22 128q0 86 108 135q84 38 185 38q142 0 142 -103q0 -46 -20 -116q-11 -38 -34 -113q-59 -198 -59 -297q0 -43 13 -43q122 0 238 138q45 54 79 164q48 157 57 177q40 92 107 125q-49 -106 -101 -278q-55 -184 -64 -291q21 -1 39 -1q88 0 151 28z
M673 715q-65 40 -158 94q-18 10 -18 20q0 12 9 20.5t21 8.5t23 -12q8 -9 126 -127z" />
    <glyph glyph-name="circumflex" unicode="&#x2c6;" horiz-adv-x="401" 
d="M266 390q-41 -23 -125 -67l-2 3q52 40 115 92q11 9 22 9q13 0 46 -43l38 -54l-3 -3q-30 21 -91 63z" />
    <glyph glyph-name="tilde" unicode="&#x2dc;" horiz-adv-x="401" 
d="M381 400q-49 -47 -96 -47q-12 0 -35.5 8.5t-35.5 8.5q-22 0 -48 -19q30 51 83 51q15 0 43.5 -8t43.5 -8q18 0 45 14z" />
    <glyph glyph-name="macron" unicode="&#xaf;" horiz-adv-x="260" 
d="M24 398h193v-30h-193v30z" />
    <glyph glyph-name="macron" unicode="&#x2c9;" horiz-adv-x="260" 
d="M24 398h193v-30h-193v30z" />
    <glyph glyph-name="cedilla" unicode="&#xb8;" horiz-adv-x="275" 
d="M134 -30q25 -3 44 -16q23 -16 23 -39q0 -27 -29 -42q-24 -13 -54 -13q-37 0 -61 18l11 15q19 -14 33 -14q20 0 39 8q23 11 23 28q0 36 -53 36v10l18 45h20q-1 -3 -14 -36z" />
    <glyph glyph-name="Scaron" unicode="&#x160;" 
 />
    <glyph glyph-name="scaron" unicode="&#x161;" 
 />
    <glyph glyph-name="brokenbar" unicode="&#xa6;" 
 />
    <glyph glyph-name="Eth" unicode="&#xd0;" horiz-adv-x="22" 
 />
    <glyph glyph-name="eth" unicode="&#xf0;" 
 />
    <glyph glyph-name="Yacute" unicode="&#xdd;" 
 />
    <glyph glyph-name="Thorn" unicode="&#xde;" 
 />
    <glyph glyph-name="thorn" unicode="&#xfe;" 
 />
    <glyph glyph-name="minus" unicode="&#xad;" 
 />
    <glyph glyph-name="minus" unicode="&#x2212;" 
 />
    <glyph glyph-name="onesuperior" unicode="&#xb9;" 
 />
    <glyph glyph-name="twosuperior" unicode="&#xb2;" 
 />
    <glyph glyph-name="threesuperior" unicode="&#xb3;" 
 />
    <glyph glyph-name="onehalf" unicode="&#xbd;" 
 />
    <glyph glyph-name="onequarter" unicode="&#xbc;" 
 />
    <glyph glyph-name="threequarters" unicode="&#xbe;" 
 />
    <glyph glyph-name="Lslash" unicode="&#x141;" 
 />
    <glyph glyph-name="lslash" unicode="&#x142;" 
 />
    <glyph glyph-name="HT" horiz-adv-x="195" 
 />
    <glyph glyph-name="LF" 
 />
    <glyph glyph-name="nonmarkingreturn" horiz-adv-x="195" 
 />
    <glyph glyph-name="Zcaron" unicode="&#x17d;" 
 />
    <glyph glyph-name="zcaron" unicode="&#x17e;" 
 />
    <glyph glyph-name="DLE" 
 />
    <glyph glyph-name="DC1" 
 />
    <glyph glyph-name="DC2" 
 />
    <glyph glyph-name="DC3" 
 />
    <glyph glyph-name="DC4" 
 />
    <glyph glyph-name="RS" 
 />
    <glyph glyph-name="US" 
 />
    <glyph glyph-name="notequal" unicode="&#x2260;" horiz-adv-x="6" 
 />
    <glyph glyph-name="infinity" unicode="&#x221e;" horiz-adv-x="0" 
 />
    <glyph glyph-name="lessequal" unicode="&#x2264;" horiz-adv-x="0" 
 />
    <glyph glyph-name="greaterequal" unicode="&#x2265;" horiz-adv-x="0" 
 />
    <glyph glyph-name="partialdiff" unicode="&#x2202;" horiz-adv-x="265" 
d="M14 200l59 18q17 69 26 113q84 396 208 396q61 0 61 -60q0 -38 -36.5 -92.5t-72.5 -66.5l-7 5q44 54 51 65q24 38 24 76q0 52 -36 52q-47 0 -86 -140q-9 -33 -40 -183q-10 -50 -34 -146l103 32l-3 -29l-109 -35q-25 -77 -67 -159l92 2q46 1 90 21q-54 -71 -116 -71h-24
q-22 1 -33 1h-57q32 90 57 188l-56 -15z" />
    <glyph glyph-name="summation" unicode="&#x2211;" horiz-adv-x="749" 
d="M555 219q-43 3 -55 3q-111 0 -233 -29q-144 -34 -213 -92q-26 -22 -26 -37q0 -20 68 -25h88h215q125 2 213 16q29 26 29 77q0 65 -62 146q-38 47 -115 141q-62 76 -62 113q0 64 96 111q82 40 154 40q132 0 132 -62q0 -18 -12 -46q-13 -32 -28 -32q-7 0 -7 9q0 3 6.5 19.5
t6.5 25.5q0 35 -48 50q-32 11 -76 11q-56 0 -104 -23q-60 -29 -60 -79q0 -28 61 -103q98 -120 115 -145q61 -91 61 -164q0 -162 -398 -162q-95 0 -166 10q-132 19 -132 65q0 39 77 86q150 92 408 122zM600 802l64 -48l113 47h10l-107 -73q-21 -14 -32 0l-57 73z" />
    <glyph glyph-name="product" unicode="&#x220f;" horiz-adv-x="308" 
d="M289 78q-33 -45 -67.5 -61t-92.5 -16h-119l19 43q70 0 88 4q53 12 53 60q0 16 -28 49q-32 38 -39 54l-38 -40q-27 -27 -40 -32q100 173 148 173q26 0 26 -18q0 -10 -24.5 -22t-24.5 -25q0 -10 26 -46t26 -63q0 -56 -46 -92l22 -1q33 -1 58 8q4 2 53 25zM120 422l64 -48
l113 47h10l-107 -73q-21 -14 -32 0l-57 73z" />
    <glyph glyph-name="pi" unicode="&#x3c0;" horiz-adv-x="801" 
d="M859 638q-56 -132 -122 -416q-45 -193 -72 -258q-60 -145 -168 -198q-84 -41 -250 -41q-30 0 -75 3q17 35 49 73q26 -22 100 -22q130 0 194 32q78 39 117 172q18 61 39 217q-200 -211 -326 -211q-42 0 -42 94q0 64 30 195q16 66 48 199q27 113 27 140q0 44 -42 44
q-73 0 -184 -55q-124 -61 -124 -127q0 -41 32 -135q8 -23 44 -125l-75 33q-59 166 -59 219q0 38 68 90q47 36 103 64q124 62 221 62q31 0 53 -14q25 -17 25 -46q0 -27 -20 -113q-19 -76 -56 -229q-39 -161 -39 -214t26 -53q19 0 79 33q137 75 200 198q9 17 77 211
q42 120 122 178zM592 705q50 31 158 94q17 10 17 20q0 11 -9 20t-20 9q-12 0 -21.5 -10.5t-127.5 -128.5z" />
    <glyph glyph-name="integral" unicode="&#x222b;" horiz-adv-x="320" 
d="M295 278q-8 -145 -62 -337q-70 -251 -160 -283q-17 -6 -45 -6q-50 0 -61 2q-40 7 -40 34q0 20 26 58t45 50l3 -4q-1 -3 -18 -30q-12 -19 -12 -32q0 -42 96 -42q23 0 37 23q29 48 67 178q30 102 47 191q-19 -20 -59 -60q-34 -31 -74 -31q-33 0 -52 21t-19 54q0 32 25 96.5
t25 89.5t-18 65l3 3q16 0 34 -39q16 -34 16 -54q0 -27 -18 -78.5t-18 -78.5q0 -34 45 -34q72 0 109 92q26 65 30 152h48zM135 356q31 19 113 67q13 8 13 14q0 21 -21 21q-9 0 -16 -8t-91 -92z" />
    <glyph glyph-name="Omega" unicode="&#x3a9;" horiz-adv-x="556" 
d="M329 233l-12 -19l-191 1q-4 -22 -4 -44q0 -68 35 -114q39 -51 105 -50q91 1 175 64l7 -10q-88 -66 -187 -67q-84 -1 -140 47t-56 131q0 21 4 42l-66 1l11 18l57 -1q2 20 16 55h-64l11 16l62 -1q41 84 122.5 139t173.5 56q97 1 152 -63l-14 -13q-11 29 -59 47
q-41 16 -78 15q-72 -1 -141 -57q-62 -51 -95 -122l198 1l-11 -19l-193 1q-12 -33 -15 -52z" />
    <glyph glyph-name="Omega" unicode="&#x2126;" horiz-adv-x="556" 
d="M329 233l-12 -19l-191 1q-4 -22 -4 -44q0 -68 35 -114q39 -51 105 -50q91 1 175 64l7 -10q-88 -66 -187 -67q-84 -1 -140 47t-56 131q0 21 4 42l-66 1l11 18l57 -1q2 20 16 55h-64l11 16l62 -1q41 84 122.5 139t173.5 56q97 1 152 -63l-14 -13q-11 29 -59 47
q-41 16 -78 15q-72 -1 -141 -57q-62 -51 -95 -122l198 1l-11 -19l-193 1q-12 -33 -15 -52z" />
    <glyph glyph-name="radical" unicode="&#x221a;" horiz-adv-x="0" 
 />
    <glyph glyph-name="approxequal" unicode="&#x2248;" horiz-adv-x="0" 
 />
    <glyph glyph-name="approxequal" unicode="&#x22f2;" horiz-adv-x="0" 
 />
    <glyph glyph-name="Delta" unicode="&#x394;" horiz-adv-x="0" 
 />
    <glyph glyph-name="Delta" unicode="&#x2206;" horiz-adv-x="0" 
 />
    <glyph glyph-name="lozenge" unicode="&#x25ca;" horiz-adv-x="202" 
d="M45 205l41 71l39 -73l-38 -72z" />
    <glyph glyph-name="fraction" unicode="&#x2044;" horiz-adv-x="574" 
d="M551 64q-31 -36 -46 -48q-30 -24 -60 -24q-24 0 -39 26q-13 22 -13 47q0 40 24 88q24 39 47 79q-2 2 -21 2h-65q-110 -219 -212 -234q-7 -1 -94 -1q-67 0 -67 46q0 36 31 58q19 13 58 38q0 10 -17.5 25.5t-17.5 25.5q0 42 27 65t69 23q10 0 29.5 -3t29.5 -3q26 0 49 6v-3
l-4 -5q-5 -5 -5 -9q0 -24 -46 -44q-8 0 -37 20.5t-45 20.5t-31 -12t-15 -27q0 -44 109 -44l8 -7v-12q0 -8 -16.5 -17.5t-25.5 -9.5q-4 0 -11 2t-11 2q-23 0 -51 -20t-28 -42q0 -34 69 -34q92 0 125 25q22 17 80 110q15 24 19 51q-10 6 -21 12q-5 4 -5 22q0 35 29 35
q18 0 29 -14h138q-29 -36 -52 -87q-26 -57 -26 -97q0 -31 5 -40q7 -13 34 -13t41 6q16 10 33 20z" />
    <glyph glyph-name="fi" unicode="&#xf001;" 
 />
    <glyph glyph-name="fl" unicode="&#xf002;" 
 />
    <glyph glyph-name="dotlessi" unicode="&#x131;" horiz-adv-x="192" 
d="M116 281q-21 -36 -41 -118.5t-43 -119.5h62q48 0 82 22q-47 -70 -109 -70q-30 0 -47 20.5t-17 51.5q0 54 50 214h63z" />
    <glyph glyph-name="breve" unicode="&#x2d8;" horiz-adv-x="306" 
d="M259 417q0 -36 -43 -56q-34 -15 -75 -15q-42 0 -75 15q-44 20 -44 56h30q0 -21 36 -33q26 -8 53 -8q26 0 52 8q36 12 36 33h30z" />
    <glyph glyph-name="dotaccent" unicode="&#x2d9;" horiz-adv-x="179" 
d="M49 398q0 16 12 26.5t28 10.5q17 0 29 -10.5t12 -26.5t-12.5 -26.5t-28.5 -10.5t-28 10.5t-12 26.5z" />
    <glyph glyph-name="ring" unicode="&#x2da;" horiz-adv-x="244" 
d="M132 461q25 0 42 -20t17 -45q0 -26 -16.5 -43.5t-42.5 -17.5t-42.5 17.5t-16.5 43.5q0 25 17 45t42 20zM132 441q-16 0 -27.5 -14t-11.5 -31t11 -29t28 -12t28 12t11 29t-11.5 31t-27.5 14z" />
    <glyph glyph-name="hungarumlaut" unicode="&#x2dd;" horiz-adv-x="268" 
d="M15 356q31 19 113 67q13 8 13 14q0 21 -21 21q-9 0 -16 -8t-91 -92zM115 356q31 19 113 67q13 8 13 14q0 21 -21 21q-9 0 -16 -8t-91 -92z" />
    <glyph glyph-name="ogonek" unicode="&#x2db;" horiz-adv-x="226" 
d="M164 -153q-24 -17 -50 -17q-32 0 -53 22t-21 54q0 39 33.5 73t72.5 34q14 0 25 -5l-9 -18q-8 3 -16 3q-24 0 -40.5 -25.5t-16.5 -51.5t16 -37q21 -21 35 -21q8 0 18 2z" />
    <glyph glyph-name="caron" unicode="&#x2c7;" horiz-adv-x="326" 
d="M170 402l54 -48l103 47h10l-97 -73q-10 -7 -19 -7q-8 0 -13 7l-47 73z" />
    </font>
</defs>
</svg>
