<?xml version="1.0" standalone="no"?>
<!DOCTYPE svg PUBLIC "-//W3C//DTD SVG 1.1//EN" "http://www.w3.org/Graphics/SVG/1.1/DTD/svg11.dtd" >
<svg>
<metadata>
Created by FontForge 20120731 at Tue Apr 16 15:03:02 2019
 By www-data
Digitized by Dan X. Solo. Software (c) 1999 by Dover Publications, Inc., New York.
</metadata>
<defs>
<font id="TypoUpright" horiz-adv-x="20" >
  <font-face 
    font-family="Typo Upright"
    font-weight="400"
    font-stretch="normal"
    units-per-em="1000"
    panose-1="0 0 4 0 0 0 0 0 0 0"
    ascent="800"
    descent="-200"
    x-height="247"
    cap-height="689"
    bbox="-144 -308 1049 887"
    underline-thickness="20"
    underline-position="-123"
    unicode-range="U+0020-F002"
  />
<missing-glyph horiz-adv-x="500" 
d="M63 0v887h375v-887h-375zM125 63h250v762h-250v-762z" />
    <glyph glyph-name=".notdef" horiz-adv-x="500" 
d="M63 0v887h375v-887h-375zM125 63h250v762h-250v-762z" />
    <glyph glyph-name=".null" horiz-adv-x="0" 
 />
    <glyph glyph-name="glyph2" horiz-adv-x="171" 
 />
    <glyph glyph-name="space" unicode=" " horiz-adv-x="171" 
 />
    <glyph glyph-name="exclam" unicode="!" horiz-adv-x="188" 
d="M151 672l-22 -494l-24 2l-23 492h69zM63 49q0 23 15.5 40t38.5 17q24 0 39.5 -16.5t15.5 -40.5q0 -23 -16 -40t-39 -17t-38.5 17t-15.5 40z" />
    <glyph glyph-name="quotedbl" unicode="&#x22;" horiz-adv-x="226" 
d="M127 665q6 35 39 37q14 1 22 -9t5 -24q-2 -12 -11 -22l-34 -135l-18 -1l-1 134q-4 9 -2 20zM27 665q6 35 39 37q14 1 22 -9t5 -24q-2 -12 -11 -22l-34 -135l-18 -1l-1 134q-4 9 -2 20z" />
    <glyph glyph-name="numbersign" unicode="#" horiz-adv-x="378" 
d="M250 350h-91l-45 -169h91zM59 386h85l41 156l22 -6l-39 -150h91l41 156l22 -6l-39 -150h81l-10 -36h-80l-45 -169h87l-9 -38h-88l-39 -151l-22 6l38 145h-92l-39 -151l-22 6l38 145h-79l11 38h77l45 169h-86z" />
    <glyph glyph-name="dollar" unicode="$" horiz-adv-x="370" 
d="M218 13q33 12 53 42t18 65q-2 37 -23 61q-9 10 -49 37zM137 258v-246q10 -2 21 -2q29 0 39 2v220q-23 8 -60 26zM137 497v-174q23 -13 60 -35v208q-10 2 -42 2q-9 0 -18 -1zM117 339v153q-44 -20 -44 -68q0 -32 14 -53q8 -11 30 -32zM137 -98h-20v94q-104 16 -104 100
q0 77 74 79q-31 -53 -31 -81q0 -47 61 -75v253q-50 37 -63 52q-28 31 -28 72q0 38 26.5 69t64.5 44v92h20v-87q11 2 21 2q29 0 39 -1v86h20v-90q83 -22 83 -80q0 -65 -58 -71l15 22q13 19 13 41q0 47 -53 68v-216q53 -32 78 -58q35 -37 33 -77q-6 -118 -111 -143v-95h-20v92
q-10 -1 -42 -1h-18v-91z" />
    <glyph glyph-name="percent" unicode="%" horiz-adv-x="586" 
d="M426 -7q-42 0 -72 34q-26 31 -33 75q-3 20 -3 41q0 64 27 114q34 60 93 60q54 0 83 -50q24 -41 24 -99q0 -57 -26 -109q-33 -66 -93 -66zM500 198q-5 31 -26 64q-26 41 -52 41q-20 0 -37.5 -19t-21.5 -39q-6 -35 -6 -51q0 -81 40 -151q19 -33 48 -33q63 0 63 110
q0 31 -8 78zM126 193q-42 0 -72 34q-26 31 -33 75q-3 20 -3 41q0 64 27 114q34 60 93 60q54 0 83 -50q24 -41 24 -99q0 -57 -26 -109q-33 -66 -93 -66zM200 398q-5 31 -26 64q-26 41 -52 41q-20 0 -37.5 -19t-21.5 -39q-6 -35 -6 -51q0 -81 40 -151q19 -33 48 -33
q63 0 63 110q0 31 -8 78zM70 1l389 506l12 -12l-386 -503z" />
    <glyph glyph-name="ampersand" unicode="&#x26;" horiz-adv-x="637" 
d="M634 411q0 -14 -53 -35q-26 68 -71 68q-35 0 -77 -75q-39 -70 -39 -109q2 -7 44 -128q39 -113 111 -123q7 -1 30 -1q-8 -12 -28.5 -20.5t-36.5 -8.5q-59 0 -98 71q-9 17 -49 121q-6 -4 -9 -22q-21 -63 -78 -110q-60 -49 -124 -49q-55 0 -93 40.5t-37 96.5q1 76 53 144
q35 45 107 100l5 -10q0 -2 -32 -27q-91 -70 -91 -153q0 -61 38.5 -105t99.5 -44q37 0 67 19q24 16 54 68t28 80q-1 11 -14 33q-30 49 -66 84q-33 30 -96 92q-52 55 -52 117q0 66 62 114q57 43 125 47q32 2 63 -11q39 -15 42 -43q1 -6 -46 -38q-34 39 -42 47q-26 24 -54 24
q-42 0 -74 -32t-32 -74q0 -51 43 -106q16 -20 83 -84q54 -51 83 -88q3 3 4 7q62 178 161 178q24 0 55 -16q34 -19 34 -39z" />
    <glyph glyph-name="quotesingle" unicode="'" horiz-adv-x="137" 
d="M27 665q6 35 39 37q14 1 22 -9t5 -24q-2 -12 -11 -22l-34 -135l-18 -1l-1 134q-4 9 -2 20z" />
    <glyph glyph-name="parenleft" unicode="(" horiz-adv-x="236" 
d="M179 730q-128 -199 -128 -385q0 -188 128 -376l-12 -9q-169 246 -169 393q0 89 58 203q27 53 111 183z" />
    <glyph glyph-name="parenright" unicode=")" horiz-adv-x="250" 
d="M-2 730q129 -199 129 -385q0 -188 -129 -376l13 -9q168 246 168 393q0 90 -57 203q-25 51 -111 183z" />
    <glyph glyph-name="asterisk" unicode="*" horiz-adv-x="340" 
d="M161 552l60 -105l-22 -13l-61 105l-60 -105l-23 13l61 105h-121v26h121l-61 104l23 13l60 -104l61 104l22 -13l-60 -104h121v-26h-121z" />
    <glyph glyph-name="plus" unicode="+" horiz-adv-x="423" 
d="M211 282v-163h-25v163h-163v25h163v163h25v-163h163v-25h-163z" />
    <glyph glyph-name="comma" unicode="," horiz-adv-x="255" 
d="M44 12q-2 2 -5 4q30 29 87 85q43 -22 45 -73q1 -11 0 -21q-5 -79 -125 -160q-3 0 -7 2q81 71 97 120q4 24 -15 41.5t-44 17.5q-8 0 -33 -16z" />
    <glyph glyph-name="hyphen" unicode="-" horiz-adv-x="358" 
d="M310 127l-259 -1l35 53h253z" />
    <glyph glyph-name="hyphen" unicode="&#x2010;" horiz-adv-x="358" 
d="M310 127l-259 -1l35 53h253z" />
    <glyph glyph-name="period" unicode="." horiz-adv-x="185" 
d="M87 -3q-21 0 -35 15.5t-14 36.5t14 36.5t35 15.5q22 0 36 -15t14 -37q0 -21 -14.5 -36.5t-35.5 -15.5z" />
    <glyph glyph-name="slash" unicode="/" horiz-adv-x="409" 
d="M2 -50l350 795h34q-37 -82 -172 -378l-194 -425z" />
    <glyph glyph-name="zero" unicode="0" horiz-adv-x="397" 
d="M360 277q0 -98 -36 -181q-46 -107 -131 -107q-60 0 -102 61q-35 51 -44 117q-4 30 -4 67q0 100 35 180q46 107 133 107q77 0 118 -88q31 -67 31 -156zM315 196q0 55 -12 131q-8 51 -38 108q-37 71 -77 71q-31 0 -59 -36q-24 -31 -29 -65q-8 -59 -8 -86q0 -57 16.5 -129.5
t40.5 -123.5q16 -33 46 -49q15 -8 26 -8q55 0 78 72q16 47 16 115z" />
    <glyph glyph-name="one" unicode="1" horiz-adv-x="340" 
d="M247 523l-1 -357l4 -111q2 -48 -9 -54l-79 -22q-1 3 -1 5q27 40 29 163l4 305l-3 4q-41 -75 -56 -99q-34 -53 -78 -95l-9 2q0 -2 3 7q76 72 132 200q3 21 19 64q6 8 20 14q11 5 25 11v-37z" />
    <glyph glyph-name="two" unicode="2" horiz-adv-x="397" 
d="M384 53q0 -19 -48 -55q-21 -16 -31 -19q-1 0 -2 1l-5 -3l-25 -2q-37 0 -93 49.5t-76 49.5q-16 0 -32.5 -17t-16.5 -33q0 -4 1.5 -13t1.5 -13q0 -23 -18 -23q-7 0 -15 8v11q0 29 64 109q106 132 120 152q65 94 65 153q0 43 -27.5 74.5t-69.5 31.5q-26 0 -54.5 -16
t-42.5 -38q-8 -13 -8 -38q0 -37 18 -62q20 -29 55 -31q-9 -19 -43 -19q-33 0 -51 25q-16 21 -16 55q0 58 50 100q47 40 107 40t104 -33q47 -37 47 -95q0 -50 -48 -108q-26 -31 -103 -102q-71 -65 -91 -94q1 -1 53 -1q28 0 79.5 -40t73.5 -40q20 0 48 20.5t27 20.5q2 -1 2 -5
z" />
    <glyph glyph-name="three" unicode="3" horiz-adv-x="397" 
d="M376 141q0 -45 -16 -69q-66 -99 -178 -99q-56 0 -97 29q-47 32 -47 86q0 44 35 44q9 0 42 -8q-23 -38 -23 -64q0 -77 87 -77q61 0 97.5 35.5t36.5 96.5t-39.5 102t-101.5 45q2 7 12 9q104 19 104 127q0 42 -24 76q-27 38 -67 38q-34 0 -64 -23q-33 -24 -33 -57
q0 -60 62 -78q-10 -11 -32 -11q-29 0 -48 16.5t-19 45.5q0 55 60 91q50 30 100 30q51 0 88 -27q41 -30 41 -79q0 -85 -134 -148q0 -1 3 -4q61 1 106 -32q49 -36 49 -95z" />
    <glyph glyph-name="four" unicode="4" horiz-adv-x="411" 
d="M403 238q0 -33 -41 -54q-34 -18 -70 -18q-8 0 -15 -4q-2 -51 27 -169q-19 -9 -63 -24q-18 46 -18 139q0 38 5 63q-114 42 -124 42q13 0 -14.5 -11.5t-35.5 -11.5q-12 0 -22.5 8.5t-10.5 19.5q0 13 13 22.5t27 9.5q6 0 18.5 -4.5t18.5 -4.5q7 0 17 18q29 54 29 133
q0 108 -47 162q4 8 18 8q78 0 78 -118q0 -126 -75 -213q0 -3 2 -4q35 -19 110 -39q1 1 2 3q26 112 36 147q25 86 60 137q8 0 8 -4q-61 -205 -61 -262v-21q6 -4 15 -4q65 0 65 62q0 6 -4 17.5t-4 17.5q0 8 8 8q13 0 30 -14t18 -26v-5v-6zM85 222q-12 13 -26 13q-16 0 -16 -18
q0 -13 14 -13q16 0 28 18z" />
    <glyph glyph-name="five" unicode="5" horiz-adv-x="385" 
d="M355 176q0 -76 -57 -133.5t-133 -57.5q-49 0 -85 29q-40 31 -40 78q0 28 16 36q9 4 42 6l16 -2q-22 -37 -22 -69q0 -67 75 -67q30 0 64 16q69 32 69 116q0 58 -33 110q-40 64 -103 64q-41 0 -70 -27q-3 -12 -13 -37q-2 -2 -10 -2q-12 0 -12 12q0 6 11 20.5t12 27.5
q14 166 14 193q0 13 6 16q1 -1 4 -23q-1 -1 3 -1l26 17q26 16 53 16q23 0 59 -17.5t48 -17.5q21 0 42 27q6 2 9 -1q-11 -25 -38 -46t-53 -21q-19 0 -56.5 15t-52.5 15q-33 0 -37 -23q-14 -73 -14 -147q0 -7 2 -9q62 33 105 33q65 0 109 -41t44 -105z" />
    <glyph glyph-name="six" unicode="6" horiz-adv-x="355" 
d="M339 168q0 -67 -43 -121q-46 -59 -111 -59q-86 0 -127 90q-28 62 -28 141q0 163 100 260q45 44 109 44q40 0 66.5 -23t26.5 -63q0 -26 -15 -38q-8 -6 -45 -21q-5 3 -3 17q4 38 0 63q-9 50 -56 50q-70 0 -104 -101q-22 -65 -22 -133q0 -120 45 -214q30 -62 69 -62
q48 0 71 50q16 35 16 76q0 55 -23 99q-31 59 -91 59q-10 0 -31 -12q-25 -15 -34 -19l-4 2q56 47 114 47q55 0 89 -39q31 -37 31 -93z" />
    <glyph glyph-name="seven" unicode="7" horiz-adv-x="307" 
d="M302 518q0 -2 -20 -45q-78 -166 -136 -468q-57 -20 -74 -18v8q1 2 3 17q17 105 72 225q15 32 109 213q0 1 -1 1q-3 0 -17 -5.5t-21 -5.5h-10q-26 0 -68 16.5t-55 16.5t-31.5 -11t-21 -22.5t-9.5 -30.5q-6 7 -5 19l10 88h6q1 -2 2 -8t5 -6q-16 0 19 11t46 11
q23 0 69.5 -26.5t61.5 -26.5q21 0 41 26t23 27q2 -2 2 -6z" />
    <glyph glyph-name="eight" unicode="8" horiz-adv-x="350" 
d="M343 136q0 -63 -50 -105.5t-114 -42.5q-60 0 -104 32q-50 35 -50 93q0 88 119 147q-17 13 -50 41q-49 44 -49 88q0 58 43 93.5t101 33.5q47 -1 87 -28q45 -31 45 -75q0 -66 -99 -130q121 -65 121 -147zM270 377q0 43 -25 83q-27 45 -68 45q-34 0 -59 -23t-25 -57
q0 -66 79 -114q33 -20 37 -20q17 0 37.5 24t20.5 41q0 4 1.5 11t1.5 10zM295 107q0 34 -22 63q-10 13 -58 48t-59 35q-33 0 -56 -38q-20 -33 -20 -68q0 -50 30 -97q33 -53 80 -53q48 0 76.5 31t28.5 79z" />
    <glyph glyph-name="nine" unicode="9" horiz-adv-x="366" 
d="M338 298q0 -97 -33 -171q-39 -89 -118 -123q-28 -12 -55 -12q-40 0 -67 22.5t-27 61.5q0 28 17 41q7 5 42 21h7q-5 -31 -5 -56q0 -17 2 -27q3 -16 19 -32.5t32 -16.5q11 0 31 9q94 42 94 233v42q-1 56 -29 130q-33 90 -77 90q-53 0 -78 -53q-15 -32 -15 -71q0 -55 27 -99
q31 -52 83 -52q17 0 38 11q17 11 34 21q2 1 3 -4q0 -5 -15 -16q-47 -34 -99 -34q-55 0 -89.5 39t-34.5 95q0 71 47 124.5t116 53.5q74 0 116 -80q34 -65 34 -147z" />
    <glyph glyph-name="colon" unicode=":" horiz-adv-x="200" 
d="M87 167q-21 0 -35 15.5t-14 36.5t14 36.5t35 15.5q22 0 36 -15t14 -37q0 -21 -14.5 -36.5t-35.5 -15.5zM87 -3q-21 0 -35 15.5t-14 36.5t14 36.5t35 15.5q22 0 36 -15t14 -37q0 -21 -14.5 -36.5t-35.5 -15.5z" />
    <glyph glyph-name="semicolon" unicode=";" horiz-adv-x="235" 
d="M171 28q1 -11 0 -21q-5 -79 -125 -160q-3 0 -7 2q81 71 97 120q4 24 -15 41.5t-44 17.5q-8 0 -33 -16q-2 2 -5 4q30 29 87 85q43 -22 45 -73zM117 167q-21 0 -35 15.5t-14 36.5t14 36.5t35 15.5q22 0 36 -15t14 -37q0 -21 -14.5 -36.5t-35.5 -15.5z" />
    <glyph glyph-name="less" unicode="&#x3c;" horiz-adv-x="192" 
d="M157 387l-133 -179l133 -175l-15 -12l-143 187l142 191z" />
    <glyph glyph-name="equal" unicode="=" horiz-adv-x="423" 
d="M23 282v25h351v-25h-351zM23 182v25h351v-25h-351z" />
    <glyph glyph-name="greater" unicode="&#x3e;" horiz-adv-x="192" 
d="M-1 387l133 -179l-133 -175l16 -12l142 187l-142 191z" />
    <glyph glyph-name="question" unicode="?" horiz-adv-x="404" 
d="M357 534q0 -38 -33 -84q-18 -25 -68 -75q-47 -46 -65 -73q-9 -14 -14 -50l-10 -73q-7 2 -15 2l-4 87q-2 54 74.5 135.5t83.5 136.5q1 7 1 20q0 51 -33.5 79t-85.5 28q-25 0 -52 -29l-32 -36q22 -7 28 -22q3 -8 3 -32q0 -11 -15.5 -25t-26.5 -14q-20 0 -32 15.5t-11 35.5
q3 46 49 84q44 34 92 38q62 5 114 -40.5t52 -107.5zM103 49q0 23 15.5 40t38.5 17q24 0 39.5 -16.5t15.5 -40.5q0 -23 -16 -40t-39 -17t-38.5 17t-15.5 40z" />
    <glyph glyph-name="at" unicode="@" horiz-adv-x="577" 
d="M355 71q-40 0 -40 70q0 24 6 55q-26 -63 -33 -74q-28 -47 -61 -44q-43 4 -69 47q-23 38 -23 84q0 69 40 138q45 79 109 79q44 0 63 -80l15 61l49 8q-12 -39 -37 -136q-29 -112 -29 -137q0 -50 24 -50q50 0 90 82q34 70 34 130q0 97 -52 172q-59 85 -152 85
q-114 0 -179 -108q-54 -90 -54 -212q0 -123 55 -212q65 -106 180 -106q118 0 186 143h21q-29 -72 -81 -117q-60 -52 -131 -52q-122 0 -198 120q-67 105 -67 233q0 129 69 227q78 111 201 111q103 0 172 -93q63 -85 63 -191q0 -79 -45 -151q-51 -82 -126 -82zM284 403
q-45 0 -76 -86q-24 -68 -24 -126q0 -31 13 -58q16 -34 44 -34q24 0 59 102q33 94 33 130q0 27 -11 47q-13 25 -38 25z" />
    <glyph glyph-name="A" unicode="A" horiz-adv-x="570" 
d="M574 164q-32 -47 -93 -103q-72 -67 -112 -67q-60 0 -60 71l1 447q3 1 50 24v-468q0 -48 33 -48q35 0 95 61q2 1 82 91q2 -3 4 -8zM515 557q0 -65 -44 -136q-40 -65 -98 -107l-2 4q55 61 70 85q30 49 30 107t-44.5 106t-102.5 48q-121 0 -199 -168q-64 -137 -64 -276
q0 -75 28 -120q34 -55 104 -55q54 0 97 45l1 4l1 -7q-80 -91 -142 -91q-69 0 -111 79q-35 66 -35 142q0 157 101 304q115 167 274 167q58 0 97 -36.5t39 -94.5zM295 282q-3 -10 -34 -10q-41 0 -67 23.5t-26 63.5q0 47 36 69q-2 -9 -2 -20q0 -43 25 -80q27 -40 68 -46z" />
    <glyph glyph-name="B" unicode="B" horiz-adv-x="689" 
d="M564 535q2 -29 -11 -69q-16 -47 -39 -53l-2 2q11 18 11 67q0 85 -66 145.5t-152 60.5q-104 0 -183.5 -84.5t-79.5 -188.5q0 -47 22 -79q26 -37 71 -37q35 0 55 22t20 58q0 72 -68 88q17 17 39 17q26 0 44.5 -19.5t18.5 -45.5q0 -53 -46.5 -102.5t-98.5 -49.5
q-48 0 -75 39q-23 33 -23 84q0 129 106 222q101 89 232 89q84 0 147 -41q72 -46 78 -125zM637 221q0 -75 -46 -147q-51 -80 -124 -80q-36 0 -58 29t-22 66q0 28 26 76.5t50 56.5l2 -4q-65 -73 -65 -128q0 -34 18 -58q20 -27 53 -27q59 0 88 70q21 51 21 120q0 64 -29 124
q-36 75 -93 75q-41 0 -41 -25q0 -15 18 -15q12 0 43 22h7v-6q-7 -10 -24 -19.5t-29 -9.5q-28 0 -28 25q0 24 24 34q19 8 45 6q70 -6 117 -60.5t47 -124.5zM389 608q-20 -27 -34 -70.5t-11 -75.5q18 -212 18 -246q0 -80 -41 -144q-46 -74 -122 -74q-27 0 -64 16
q-44 20 -44 42q0 16 56 57l1 -4l-9 -13q22 -86 76 -86q55 0 82 55q24 47 19 104q-14 174 -14 213q0 147 84 232z" />
    <glyph glyph-name="C" unicode="C" horiz-adv-x="565" 
d="M564 169q-15 -48 -131 -111q-125 -68 -220 -63q-98 6 -159 78q-57 69 -57 169q0 152 106 299q115 160 262 160q63 0 100 -39.5t37 -102.5q0 -99 -49 -168q-62 -88 -151 -88q-38 0 -61.5 26.5t-23.5 64.5q0 45 31 64q2 -115 89 -117q67 -1 101 52q29 44 29 114
q0 67 -42.5 115.5t-108.5 48.5q-118 0 -198 -133q-69 -114 -69 -241q0 -108 51 -179q58 -79 162 -79q80 0 163 35q88 38 132 99q2 -2 7 -4z" />
    <glyph glyph-name="D" unicode="D" horiz-adv-x="698" 
d="M641 377q0 -85 -48 -210q-50 -128 -108 -184q-61 33 -96 33q-52 0 -97 -28l-12 -1q18 24 54 74q30 43 30 108q0 35 -9 103.5t-9 103.5q0 42 15 97q20 72 49 81q-17 -36 -21 -58q-3 -17 -3 -62q0 -37 11 -110t11 -110q0 -104 -95 -203q79 49 119 49q27 0 81 -27
q42 50 66 144q21 81 21 160q0 134 -85 228q-88 97 -220 97q-98 0 -176.5 -78.5t-78.5 -176.5q0 -61 29 -103q33 -49 91 -49q38 0 63 35q22 32 22 72q0 95 -89 112q19 17 48 17q34 0 55 -24t21 -59q0 -67 -49 -126q-51 -62 -117 -62q-54 0 -83 46q-25 39 -25 96
q0 135 109 232q106 95 242 95q129 0 209 -93q75 -88 75 -219z" />
    <glyph glyph-name="E" unicode="E" horiz-adv-x="575" 
d="M515 642q-43 -39 -90 -39q-36 0 -94.5 35.5t-76.5 35.5q-10 0 -39 -9q-44 -14 -72 -61t-28 -95q0 -41 24 -76q26 -40 65 -40q44 0 44 24q0 14 -21 14q-14 0 -27 -6q-18 -11 -24 -12l-5 1v6q35 21 58 21q32 0 32 -21q0 -18 -25 -29q-19 -8 -40 -8q-51 0 -92 34
q-44 36 -44 86q0 78 69 133q64 52 144 52q34 0 98.5 -22t97.5 -22q8 0 23.5 2t22.5 2v-6zM473 78q-77 -94 -230 -94q-108 0 -171 52.5t-63 132.5q0 65 38 119q27 39 91 90l8 -11q-87 -82 -87 -159q0 -108 85 -172q50 -38 105 -38q75 0 144 61.5t69 135.5q0 83 -69 122
q-21 12 -45 12q-43 0 -73 -33t-30 -76q0 -55 66 -80q-10 -12 -36 -12q-34 0 -55 20t-20 54q1 62 48 101q44 37 107 37q65 0 110 -48t45 -113q0 -56 -37 -101z" />
    <glyph glyph-name="F" unicode="F" horiz-adv-x="620" 
d="M527 400q-15 -29 -30 -50q-35 32 -62 32q-8 0 -27 -3q10 14 36 24.5t45 10.5q17 0 38 -14zM647 658q-11 -22 -55 -38q-38 -14 -68 -14q-24 0 -51 8q-17 5 -50 15q-103 26 -164 26q-51 0 -99.5 -24t-77.5 -65q-35 -50 -35 -115q0 -127 114 -127q38 0 59 33q18 28 18 68
q0 74 -79 90q12 19 44 19q31 0 51.5 -21.5t20.5 -52.5q0 -40 -19 -76q-45 -86 -144 -86q-48 0 -80 33t-32 81q0 122 112 204q104 76 227 74q40 -1 119 -21t121 -20q11 0 34 4.5t34 4.5zM344 322q-39 -34 -90 -103q-4 -1 -8 4q0 11 38 54q35 38 52 50h6zM419 215
q0 -87 -60 -158q-63 -74 -149 -74q-38 0 -75 15q-45 18 -56 48q-9 25 -8 27q25 20 75 58q2 -1 2 -4t-12 -14t-12 -18q0 -33 23 -65q24 -35 56 -35q85 0 129 65q38 55 38 144q0 34 -11 100t-11 100q0 75 52 165l5 -3q-22 -49 -22 -95q0 -43 18 -128t18 -128z" />
    <glyph glyph-name="G" unicode="G" horiz-adv-x="453" 
d="M409 580q0 -52 -27 -106.5t-69 -83t-73 -28.5q-30 0 -51 20.5t-21 50.5q0 24 14 47l2 -2q21 -75 86 -75q49 0 81 37q29 35 29 85q0 61 -32 98.5t-92 37.5q-97 0 -156 -117q-48 -96 -48 -204q0 -50 28 -89q31 -44 79 -44q65 0 117 54q27 29 81 89l-6 -66l11 -115
q0 -76 -62.5 -130t-139.5 -54q-110 0 -158 81q22 18 44 33q15 -53 40 -77q29 -27 82 -27q122 0 147 121q4 20 1 47l-5 54q-2 25 12.5 56.5t13.5 38.5l-2 2q50 0 -114 -108q-58 -38 -100 -38q-59 0 -93 50q-31 45 -31 106q0 111 96 239q102 135 210 135q47 0 78 -36
q28 -34 28 -82z" />
    <glyph glyph-name="H" unicode="H" horiz-adv-x="763" 
d="M777 648q-16 -22 -37 -40q-60 57 -90 57q-20 0 -51 -24q-24 -19 -40 -41q-31 -43 -51 -142q-18 -88 -18 -154q0 -115 20 -175q34 -100 128 -100q12 0 26 4q34 10 104 136q10 -5 10 -9q-2 -3 -20 -34q-36 -61 -66 -89q-44 -42 -98 -42q-75 0 -121 90q-30 58 -30 183
q0 110 39 217q46 125 126 175q40 25 78 25q53 0 91 -37zM323 655q-26 -35 -71 -35q-22 0 -66.5 21.5t-61.5 21.5q-12 0 -33 -14q-62 -42 -62 -108q0 -103 124 -102q-23 -31 -65 -31q-41 0 -66 28.5t-25 70.5q0 66 55.5 123.5t121.5 57.5q22 0 62.5 -19t55.5 -19q4 0 13 2.5
t14 2.5h4zM438 325q0 -12 -30 -12q-49 0 -58 6q0 -12 1 -34.5t1 -34.5q0 -185 -139 -242q-24 -10 -54 -10q-76 0 -113 64q14 14 44 34q38 -90 78 -90q69 0 108 81q33 69 27 141l-19 248q0 106 62 188h6q-27 -64 -27 -130q0 -58 20 -206l3 -2q6 10 62 10q28 0 28 -11z" />
    <glyph glyph-name="I" unicode="I" horiz-adv-x="374" 
d="M362 430q0 -18 -26.5 -60.5t-42.5 -54.5q-7 8 -7 12q0 3 16.5 19.5t16.5 17.5q18 23 23 37q1 13 11 36h5q4 -3 4 -7zM351 689l-4 -7q-43 -17 -64 -83q-16 -50 -16 -110q0 -50 12 -148t12 -148q0 -80 -43 -141q-48 -69 -125 -69q-37 0 -74 17q-42 19 -56 49q15 15 49 38
q31 -93 82 -93q63 0 93 61q24 46 24 116q0 47 -12 141t-12 141q0 118 82 205l16 17l-20 -5q-90 -33 -147 -98q-63 -71 -63 -161q0 -49 23 -92q28 -51 72 -51l39 11l5 -4q-9 -19 -65 -19q-59 0 -92.5 37.5t-33.5 97.5q0 98 109.5 199t208.5 99z" />
    <glyph glyph-name="J" unicode="J" horiz-adv-x="444" 
d="M340 437q0 -8 -9 -27q-31 -65 -71 -93l-4 5v7q52 44 75 115h5q4 -4 4 -7zM456 164q-63 -57 -182 -110h-6v3q-1 3 -1 4q119 58 180 107h5zM336 692q-2 0 -3.5 -3t-2.5 -3q-8 0 -20 -4q-70 -51 -65 -248l3 -119l9 -145q2 -32 2 -72q0 -170 -64 -271q-45 -71 -106 -71
q-36 0 -58.5 26t-21.5 62q2 55 68 111q50 42 116 71l2 -2v-6q-9 -6 -16 -9q-54 -23 -94.5 -78.5t-40.5 -113.5q0 -53 52 -53q13 0 33 11q44 23 61 85q9 32 15 98l-3 409q-1 80 16 154q20 88 71 155q1 1 -1 4q-102 -21 -164 -117q-53 -83 -53 -174q0 -105 85 -105q4 0 15 2.5
t15 2.5h6v-6q-16 -10 -42 -10q-58 0 -94.5 41t-36.5 99q0 86 75 162q64 64 155 100q48 19 65 18z" />
    <glyph glyph-name="K" unicode="K" horiz-adv-x="727" 
d="M715 633q-2 -3 -48 -34q-20 56 -52 56q-46 0 -83 -71q-21 -41 -51 -136q-23 -76 -34 -81l-6 5q20 64 64 192q45 119 136 119q26 0 44 -14q14 -11 30 -36zM734 171q-24 -63 -70 -115q-56 -63 -110 -63q-65 0 -81 97q-4 25 -4 145.5t-70 120.5q-24 0 -25 -18l13 -11
q17 0 33 15q7 -2 7 -6q-26 -19 -38 -19q-30 0 -30 21q0 12 14 19.5t28 7.5q79 0 104 -90q1 -3 21 -167q11 -90 56 -90q65 0 144 153h8zM340 656q-34 -57 -90 -57q-27 0 -75 26.5t-75 26.5q-34 0 -57.5 -29.5t-23.5 -64.5q0 -55 30 -92t84 -37q12 0 29 6q-6 -21 -26.5 -35.5
t-42.5 -14.5q-44 0 -72 48q-25 42 -25 89q0 65 42.5 115t106.5 50q23 0 70 -23t70 -23q16 0 27.5 6t23.5 13zM373 676q-41 -78 -41 -188q0 -39 10.5 -117t10.5 -117q0 -95 -46 -170q-54 -89 -144 -89q-41 0 -72 19q-35 21 -45 58q20 14 46 25q9 -24 30 -64q21 -27 53 -27
q65 0 101 69q29 56 29 128q0 46 -9 139t-9 139q0 48 24 104q22 52 56 91h6z" />
    <glyph glyph-name="L" unicode="L" horiz-adv-x="441" 
d="M450 167q-7 -13 -78 -92q-58 -64 -80 -86q3 3 -39 24q-51 26 -111 25q-66 -1 -146 -40v5q0 -1 16 32q27 56 27 118q0 41 -14.5 121t-14.5 121q0 104 65 191q70 94 171 94q58 0 93.5 -39t35.5 -98q0 -64 -45 -121q-48 -60 -111 -60q-34 0 -56.5 20.5t-22.5 53.5
q0 42 37 61q5 -107 78 -107q41 0 65 39q21 33 21 76q0 61 -40 102.5t-101 41.5q-74 0 -113 -67q-32 -56 -32 -135q0 -42 14.5 -126t14.5 -126q0 -54 -31 -113q-12 -22 -31 -61q92 62 173 62q53 0 129 -42q71 74 115 132q8 0 11 -6z" />
    <glyph glyph-name="M" unicode="M" horiz-adv-x="1040" 
d="M632 -1h-49v516q0 21 -12 53q-14 37 -37 54l-70 -66q-5 0 -10 5l114 101q64 -48 64 -146v-517zM1049 170l-24 -52q-73 -116 -161 -120q-69 -3 -115 66q-40 60 -40 132q0 86 43 194q39 101 96 176q-43 -21 -69 -21q-18 0 -44 7l-47 40l-44 -31q-7 0 -7 7l84 66l70 -56
q12 -7 24 -7q19 0 56 18l-21 -39q-50 -93 -68 -162q-23 -88 -18 -152q-2 -10 -2 -19q0 -61 63 -141q35 -27 74 -27q76 0 125 91l16 30q3 0 7 3q2 1 2 -3zM492 378q0 -96 -40 -190q-49 -116 -139 -167q-46 -26 -89 -26q-65 0 -100 39q9 11 38 37q33 -56 95 -56q78 0 151 130
q39 69 39 178q0 90 -33 165q-37 83 -107 127q-51 32 -95 32q-91 0 -152 -91q-38 -57 -38 -100q0 -59 40 -100.5t99 -41.5q36 0 59.5 25.5t23.5 61.5q0 28 -23.5 59t-50.5 31q-10 0 -18 -5q13 23 47 23q33 0 51.5 -22.5t18.5 -55.5q0 -56 -45.5 -100.5t-101.5 -44.5
q-58 0 -90 42q-29 39 -29 98q0 97 74 173t171 76q133 0 199 -118q45 -81 45 -179z" />
    <glyph glyph-name="N" unicode="N" horiz-adv-x="871" 
d="M690 -15q-73 0 -114 80q-33 64 -33 144q0 97 40 193q18 44 91 174l-2 1q-41 -19 -73 -19q-49 0 -85 37q-16 -17 -53 -44l-4 4l95 86q48 -46 92 -46q26 0 69 24l-4 -11q-59 -117 -81 -179q-34 -98 -34 -193q0 -80 31 -139q38 -73 111 -73q43 0 81 54q16 22 57 87l11 2
q-18 -55 -76 -115q-65 -67 -119 -67zM477 409q0 -131 -71 -266q-83 -157 -202 -157q-28 0 -64 15q-42 17 -48 39q26 26 43 41h5q32 -80 90 -80q88 0 147 150q48 122 48 225q0 112 -56 190q-63 87 -171 87q-72 0 -118 -49t-46 -122q0 -62 38 -109q40 -50 101 -50
q33 0 55.5 26t22.5 60q0 71 -77 86q10 22 44 22q30 0 48 -19.5t18 -49.5q0 -60 -49.5 -105.5t-110.5 -45.5q-55 0 -87 38q-30 35 -30 91q0 106 71 185.5t176 79.5q104 0 167 -92q56 -81 56 -190zM1 334h-3v5h3v-5z" />
    <glyph glyph-name="O" unicode="O" horiz-adv-x="480" 
d="M421 345q0 -125 -48 -228q-62 -132 -171 -132q-100 0 -153 103q-40 78 -43 192q-5 188 105 355h6v-6l-31 -66q-33 -70 -33 -202q0 -118 37 -214q50 -130 149 -130q79 0 127 113q39 91 39 182t-40 198q-50 133 -125 133q-47 0 -76 -57q-23 -46 -23 -101q0 -47 22 -86
q27 -46 70 -46q25 0 64 32v-7q0 -25 -29.5 -48t-54.5 -23q-45 0 -71 44q-22 37 -22 85q0 82 37 159q46 95 116 95q81 0 121 -139q27 -94 27 -206z" />
    <glyph glyph-name="P" unicode="P" horiz-adv-x="635" 
d="M600 496q-4 89 -75 141q-65 47 -157 47q-118 0 -233 -88q-122 -94 -122 -209q0 -57 30.5 -90.5t87.5 -33.5q59 0 110 47.5t51 105.5q0 31 -21.5 53t-52.5 22q-48 0 -61 -28l11 1q34 3 59.5 -24.5t25.5 -62.5q0 -34 -26.5 -62t-60.5 -28q-49 0 -82 44q-31 40 -31 90
q0 97 90 168q84 66 184 66q222 0 222 -227q0 -56 -36 -83.5t-93 -25.5v-6l9 -2q85 0 130 50t41 135zM430 589q-16 -28 -24.5 -76.5t-5.5 -83.5l15 -208q6 -89 -48 -161q-57 -77 -145 -77q-35 0 -67 17.5t-44 48.5q23 19 50 34q32 -87 70 -87q71 0 108 64q33 55 28 129
l-13 204q0 125 70 199z" />
    <glyph glyph-name="Q" unicode="Q" horiz-adv-x="562" 
d="M463 508q0 -95 -74 -224q-66 -114 -146 -190l-11 2q175 188 175 357q0 88 -41 145q-46 64 -131 64q-81 0 -136.5 -60.5t-55.5 -141.5q0 -56 27 -99q32 -49 85 -49q33 0 61.5 31.5t28.5 64.5q0 37 -29 62t-66 22q24 28 64 28q62 0 62 -64t-50 -117.5t-114 -53.5
q-52 0 -83 41q-27 36 -27 90q0 109 82.5 187.5t192.5 78.5q76 0 131 -49.5t55 -124.5zM386 -20q92 0 182 189h-8q-18 -30 -56.5 -89.5t-76.5 -59.5q-23 0 -127 41t-160 41q-38 0 -78 -23q-46 -26 -46 -61q0 -17 18 -27q15 -9 33 -9q54 0 110 52l-11 3q-50 -44 -97 -44
q-39 0 -39 23q0 18 31 29q23 8 46 8q48 0 143.5 -36.5t135.5 -36.5z" />
    <glyph glyph-name="R" unicode="R" horiz-adv-x="740" 
d="M560 -9q-73 0 -73 153q0 33 4 80l3 51q0 31 -12 49q-45 -27 -64 -27q-9 0 -21 8.5t-12 17.5q0 17 18 27q15 8 34 8q11 0 50 -11q29 34 29 105q0 91 -57 155.5t-146 64.5q-99 0 -180 -86.5t-81 -185.5q0 -42 23 -82q27 -45 66 -45q26 0 54 36t28 63q0 76 -88 69
q27 37 64 37q25 0 39.5 -19t14.5 -45q0 -60 -45.5 -112.5t-104.5 -52.5q-46 0 -76 42q-27 37 -27 85q0 137 119 231q113 89 252 83q79 -4 135 -52q61 -52 61 -129q0 -91 -70 -167q50 -51 50 -136q0 -19 -2 -56.5t-2 -56.5q0 -88 46 -82q50 7 94 68q19 29 57 89l11 -4
q-84 -173 -191 -173zM393 580q-31 -63 -27 -137l11 -230q0 -86 -44 -149q-50 -72 -132 -72q-31 0 -66 20q-38 22 -48 49l45 28q10 -17 30.5 -50.5t46.5 -33.5q120 0 120 208q0 25 -3.5 76t-3.5 76q0 151 67 217zM473 334q-24 15 -40 15q-35 0 -35 -24q0 -19 24 -19
q16 0 34 11q15 10 17 17z" />
    <glyph glyph-name="S" unicode="S" horiz-adv-x="513" 
d="M459 204q0 -41 -24 -87q-70 -136 -227 -136q-70 0 -128 30q-71 37 -71 101t54 110q51 44 116 44q40 0 72 -18q37 -22 37 -59q0 -30 -22 -48t-53 -17q22 25 22 57q0 75 -62 75q-51 0 -82.5 -30.5t-31.5 -82.5q0 -41 27 -83.5t64 -58.5q21 -9 60 -9q86 0 144 42
q66 47 66 129q0 90 -101 147q-63 27 -190 85q-101 49 -101 134q0 61 62 111q59 47 121 47q28 0 81.5 -17t81.5 -17q33 0 62 15q-3 -16 -19 -31q-34 -35 -92 -35q-28 0 -89.5 22.5t-92.5 22.5q-33 0 -58 -23.5t-25 -57.5q0 -77 104 -127q32 -15 192 -87q103 -58 103 -148z
" />
    <glyph glyph-name="T" unicode="T" horiz-adv-x="581" 
d="M598 651q-53 -47 -130 -47q-44 0 -129.5 24.5t-129.5 24.5q-72 0 -121 -48.5t-49 -119.5q0 -51 25 -92q30 -48 77 -48q28 0 51.5 29t23.5 58q0 31 -19.5 54.5t-49.5 23.5q-8 0 -21 -3q19 37 58 37q63 0 63 -73q0 -56 -45.5 -103t-100.5 -47q-45 0 -73 36q-27 33 -27 79
q0 107 84 179q81 69 189 69q43 0 126 -20t126 -20q36 0 72 12v-5zM413 205q0 -84 -51 -152q-55 -73 -137 -73q-109 0 -142 81q-11 27 -10 39q49 17 53 16q9 -61 22 -86q21 -41 71 -41q145 0 145 183q-1 10 -5 60l-2 16l-16 151q-3 27 11 78q13 47 28 75q6 -1 6 -5t-6 -22
q-3 -21 -3 -43q0 -54 24 -189q12 -68 12 -88z" />
    <glyph glyph-name="U" unicode="U" horiz-adv-x="785" 
d="M789 160q0 -11 -47 -74q-77 -102 -139 -102q-32 0 -49 32q-14 25 -14 60v488h50v-452q0 -97 48 -97q38 0 89 67q19 27 59 82q3 -3 3 -4zM531 58q-7 -11 -35 -33t-41 -27q-33 -12 -53 -12q-136 0 -136 129q0 48 54.5 162t54.5 175q0 84 -49.5 135.5t-133.5 51.5
q-69 0 -117 -57t-48 -127q0 -65 35 -116q40 -56 103 -56q38 0 65.5 26.5t27.5 64.5q0 34 -20.5 63.5t-53.5 29.5q-10 0 -30 -6q7 16 26.5 28.5t37.5 12.5q30 0 46 -23.5t16 -54.5q0 -70 -44 -124q-47 -57 -116 -57q-14 0 -38 10q-40 17 -62 62q-19 39 -19 87q0 99 66 185
q72 93 168 93q86 0 142 -71q52 -65 52 -154q0 -64 -58.5 -185t-58.5 -182q0 -37 20 -65q22 -31 58 -31q75 0 135 72q8 -2 6 -6z" />
    <glyph glyph-name="V" unicode="V" horiz-adv-x="710" 
d="M757 653q0 -4 -40 -40q-43 47 -74 47q-14 0 -27 -8q-55 -34 -81 -143q-17 -71 -26 -212t-21 -184q-29 -108 -88 -140v5q0 10 4 31t4 31q0 81 -34 177q-21 56 -61 169q-22 66 -22 164q0 6 2.5 19t2.5 19q-1 1 -8 1q-6 0 -14 -1h-14q-30 0 -79.5 34t-72.5 34
q-37 0 -62 -32.5t-25 -70.5q0 -49 27 -84q29 -38 76 -38q43 0 44 1q0 -15 -27.5 -30.5t-43.5 -15.5q-46 0 -71.5 32t-27.5 79q-2 69 37 127q43 64 110 64q39 0 92.5 -41t58.5 -40q21 48 23 51q18 28 51 30q21 1 21 -23q0 -25 -30 -45q-25 -13 -50 -27v-8q0 -60 33 -143
q22 -51 63 -154q33 -87 33 -171q0 -30 -16 -106v-2q52 53 66 174q7 77 20 229q12 135 49 196q49 80 129 80q17 0 41 -10q28 -11 28 -25zM380 662q0 18 -17 17q-18 -1 -34 -22t-16 -40v-8q17 1 42 19t25 34z" />
    <glyph glyph-name="W" unicode="W" horiz-adv-x="885" 
d="M902 619q-23 -17 -52 -33q0 2 -3 10q-9 26 -29.5 44t-46.5 18q-41 0 -66 -54q-14 -30 -14 -74q0 -58 44 -178t44 -177q0 -72 -42 -128q-45 -61 -115 -61q-79 0 -107 78q-8 22 -7 31v485h50v-447q0 -137 77 -137q47 0 75 40q24 36 24 85q0 58 -43 183q-37 108 -37 186
q0 69 41 126q45 62 112 62q30 0 59.5 -16t35.5 -43zM503 61q0 -10 -32 -39q-37 -34 -80 -34t-72 40q-27 36 -27 81q0 35 47 163t47 202q0 8 -6 43q-11 66 -63 106t-120 40q-63 0 -109 -72q-40 -64 -40 -131q0 -55 28 -95q32 -46 84 -46q35 0 62 27t27 62q0 34 -21 55t-55 21
q-18 0 -24 -1q3 15 24.5 28t37.5 13q62 0 62 -76q0 -91 -68 -137q-37 -25 -74 -25q-26 0 -52 12q-68 33 -68 133q0 36 9 75q19 83 89.5 133t156.5 46q70 -3 112 -40q46 -39 46 -107q0 -63 -44.5 -186t-44.5 -183q0 -84 38 -118q26 -23 56 -23q41 0 72 40q0 -3 1 -4t1 -3z
" />
    <glyph glyph-name="X" unicode="X" horiz-adv-x="750" 
d="M674 631q-2 -17 -26 -31.5t-43 -14.5q-36 0 -56 25l-103 -205l-9 5l129 257q23 -28 29 -33q18 -16 40 -16q13 0 39 13zM556 373v-12h-85l-4 7l1 5h88zM594 -17q-96 0 -148 176q-28 109 -88 326q-53 176 -156 176q-71 0 -122 -56t-51 -128q0 -50 26 -90q29 -45 77 -45
l3 -1q28 0 53 27.5t25 55.5q0 36 -26.5 54t-63.5 17q21 33 52 33q54 0 54 -77q0 -52 -39.5 -93t-90.5 -41q-47 0 -75 39q-26 35 -26 84q0 94 64.5 162.5t157.5 68.5q123 0 186 -171q26 -106 80 -318q46 -171 135 -171q53 0 126 158l12 -3q-19 -56 -64 -113q-55 -70 -101 -70
zM371 369q2 -6 1 -13l-70 1l-3 12q29 1 72 0zM396 304q-134 -318 -253 -318q-58 0 -82 51q13 8 42 30q29 -31 33 -34q20 -17 42 -17q50 0 122 121q19 33 87 171h7z" />
    <glyph glyph-name="Y" unicode="Y" horiz-adv-x="633" 
d="M500 288q-62 -127 -135 -127q-33 0 -54 27q-20 24 -20 58q0 33 37.5 117t37.5 134q0 63 -40 107t-103 44q-76 0 -131.5 -61.5t-55.5 -138.5q0 -54 30 -93q33 -44 85 -44q34 0 63.5 35t29.5 70q0 73 -74 73q-10 0 -22 -2q3 16 24.5 29.5t38.5 13.5q28 0 43 -24
q13 -20 13 -49q0 -67 -51 -120.5t-118 -53.5q-46 0 -72 34q-24 31 -24 79q0 107 77 193t183 86q64 0 104 -36t40 -99q0 -46 -42.5 -130.5t-42.5 -112.5q0 -36 23.5 -65t58.5 -29q33 0 55 29q7 12 33 57l7 12zM568 221q0 -96 -55 -163q-60 -72 -154 -68q-36 1 -80 20
q-53 23 -56 51l39 34q55 -95 116 -95q68 0 108 67q34 57 34 130q0 40 -10 120t-10 120q0 44 11 87q13 53 38 76l2 -4q-20 -44 -20 -99q0 -47 18.5 -138t18.5 -138z" />
    <glyph glyph-name="Z" unicode="Z" horiz-adv-x="568" 
d="M571 163q-54 -76 -167 -168q-139 97 -227 88l-10 -1q-39 -39 -57 -52q-36 -26 -70 -26q-35 0 -33 25q5 77 173 91l121 218q-24 11 -53 11q-19 0 -40 -5q22 44 93 44q11 0 21 -2q2 -1 99 166q-31 10 -111 66q-68 47 -111 47q-59 0 -105 -48t-46 -108q0 -49 17 -83
q22 -44 66 -44q31 0 55.5 22t24.5 53t-22 48.5t-54 16.5q29 28 56 28q23 0 40 -16.5t17 -39.5q0 -49 -42.5 -87.5t-91.5 -38.5q-50 0 -81 27q-34 29 -34 78q0 87 73 149q70 59 159 59q61 0 112 -32q32 -21 96 -64q10 15 31.5 42t44.5 27q26 0 26 -26q0 -35 -38 -53
q-33 -11 -65 -23q-36 -53 -99 -169q17 -10 36 -10q17 0 38 7l-9 -13q-26 -36 -66 -36q-12 0 -22 4q-66 -125 -115 -210l2 -2q71 -5 123 -23q48 -18 110 -59q63 53 126 126l7 2zM529 624q0 18 -15 18q-28 0 -61 -62q8 -4 19 -4q19 0 38 15t19 33zM148 83h-34q-24 0 -56 -15
q-38 -17 -38 -37q0 -16 26 -16q25 0 57 22t45 46z" />
    <glyph glyph-name="bracketleft" unicode="[" horiz-adv-x="169" 
d="M108 747h-106q0 -771 1 -810h103v21h-54v767l54 -1z" />
    <glyph glyph-name="backslash" unicode="\" horiz-adv-x="409" 
d="M397 -50l-351 795h-33q43 -97 171 -378l194 -425z" />
    <glyph glyph-name="bracketright" unicode="]" horiz-adv-x="169" 
d="M32 747h106v-810h-104v21h55v767l-55 -1z" />
    <glyph glyph-name="asciicircum" unicode="^" horiz-adv-x="262" 
d="M132 738zM140 779h-16l-96 -85l6 -9l98 53q27 -14 97 -53l7 9q-48 43 -96 85z" />
    <glyph glyph-name="underscore" unicode="_" horiz-adv-x="409" 
d="M-1 -76h410v-20h-410v20z" />
    <glyph glyph-name="grave" unicode="`" horiz-adv-x="456" 
d="M328 309q-58 21 -150 65q-8 4 -17 4q-3 -1 -15 -6l-3 -24q6 -7 12 -15l168 -38q0 4 3 13q1 0 2 1z" />
    <glyph glyph-name="a" unicode="a" horiz-adv-x="395" 
d="M434 176q-11 -42 -69 -109q-63 -73 -101 -73q-18 0 -30.5 14.5t-12.5 32.5v207h52v-201q0 -7 7.5 -14t14.5 -7q24 0 74 65q42 54 56 87zM205 241l-5 -7q-21 13 -52 13q-42 0 -68 -43q-23 -37 -23 -81q0 -37 23 -66.5t59 -29.5q21 0 60 23l2 -2v-6q-55 -46 -107 -46
q-41 0 -69.5 30t-28.5 71q0 60 46 111t106 51q30 0 57 -18z" />
    <glyph glyph-name="b" unicode="b" horiz-adv-x="389" 
d="M418 179q-43 -67 -115 -122q-83 -63 -159 -64q-91 -1 -118 104q-9 37 -5 37q0 19 -1 93l-1 111q12 348 173 348q34 0 54 -26q17 -22 17 -58q0 -69 -59 -177q-49 -89 -108 -157l-6 4q26 35 74 106q56 90 56 207q0 92 -34 92q-59 0 -87 -91q-20 -65 -20 -141v-347
q0 -36 13 -62q17 -34 49 -34q41 0 74 28t33 68q0 62 -78 102l-28 -17v6l70 62q77 -46 77 -110q0 -58 -40 -101l-16 -17q81 39 174 158z" />
    <glyph glyph-name="c" unicode="c" horiz-adv-x="326" 
d="M363 174q-22 -55 -118 -118t-157 -63q-46 0 -76 26.5t-30 72.5q0 59 54.5 109t113.5 50q22 0 58.5 -18t36.5 -37q0 -13 -67 -60h-6v6q19 14 19 22q0 20 -28 44.5t-48 24.5q-36 -5 -60 -33t-24 -64q0 -45 30 -73t76 -30q43 -2 103 35q50 31 87 71q8 14 23 39q-1 -1 13 -4z
" />
    <glyph glyph-name="d" unicode="d" horiz-adv-x="398" 
d="M266 -5q-15 1 -27 13.5t-12 28.5l1 440q15 1 52 0v-419q0 -30 21 -30t66 63q8 12 56 85h9q-110 -183 -166 -181zM215 229l-6 -3q-1 0 -21 9t-35 9q-42 0 -71 -37.5t-29 -80.5q0 -37 26 -67.5t62 -30.5q30 0 59 24l6 6l2 -12q-58 -49 -116 -49q-41 0 -70.5 31t-29.5 72
q0 57 49 107.5t106 50.5q36 0 68 -23v-6z" />
    <glyph glyph-name="e" unicode="e" horiz-adv-x="323" 
d="M354 178q-27 -67 -116 -124.5t-161 -53.5q-95 5 -95 85q0 61 61 117.5t122 53.5q66 -3 66 -51q0 -53 -59 -97q-49 -36 -79 -36q-4 -1 -5 1t0 5q0 1 1 3q93 17 93 87q0 28 -22.5 45.5t-51.5 17.5q-31 0 -56 -36q-22 -32 -22 -65q0 -44 28 -69.5t72 -25.5q62 0 126 44
q60 41 89 99h9z" />
    <glyph glyph-name="f" unicode="f" horiz-adv-x="214" 
d="M245 603q0 -69 -50 -174q-46 -98 -99 -154l-6 4q45 61 64 100q48 99 48 209q0 91 -36 94q-92 7 -92 -272v-412q0 -118 -14 -176q-20 -83 -75 -101l-14 3q52 11 52 172l-1 373q0 176 14 251q32 172 137 172q33 0 52.5 -27.5t19.5 -61.5zM198 107l-50 -53q-35 -37 -55 -47
l-4 6q35 33 74 70q21 20 68 94l13 -1q-9 -8 -23 -33.5t-23 -35.5zM15 8q-3 -1 -4.5 -5.5t-4.5 -4.5q-10 0 -27 12.5t-17 21.5q0 10 32 26q4 -4 6 -22.5t15 -27.5z" />
    <glyph glyph-name="g" unicode="g" horiz-adv-x="428" 
d="M452 178q0 -22 -63.5 -89.5t-87.5 -73.5l-4 5q24 18 69 65q38 39 41 44q23 25 36 48zM221 219q-55 25 -80 25q-41 0 -69.5 -32.5t-28.5 -74.5q0 -43 31 -76t74 -33q20 0 38 12t35 24l5 -8q-56 -59 -130 -59q-45 0 -78.5 32.5t-33.5 77.5q0 58 54 103q51 44 110 44
q43 0 78 -26q0 -2 -5 -9zM288 -140q0 -58 -38 -101.5t-95 -43.5q-36 0 -80 27q-49 29 -49 62q0 10 33 28.5t45 17.5l1 -6l-20 -15q19 -107 70 -107q36 0 59 34q21 30 21 68v421h53v-385z" />
    <glyph glyph-name="h" unicode="h" horiz-adv-x="398" 
d="M266 605q1 -56 -62 -179.5t-109 -156.5l-2 7q70 94 94 147q34 74 34 163q0 90 -37 90q-46 0 -73 -62q-30 -67 -30 -188v-426h-52v409q0 84 41 172q49 106 124 106q31 0 51.5 -25t20.5 -57zM266 -10q-45 2 -45 53l1 141q0 15 -8.5 30t-22.5 15q-33 0 -97 -72l-2 6
q8 23 54 55t70 32q62 0 62 -90q0 -16 -2 -48t-2 -48q0 -42 18 -42q42 0 134 155h10q-17 -43 -71 -110q-63 -78 -99 -77z" />
    <glyph glyph-name="i" unicode="i" horiz-adv-x="214" 
d="M97 378q0 -32 -33 -32q-13 0 -23.5 9.5t-10.5 22.5t10.5 22t23.5 9q33 0 33 -31zM252 177q0 4 -24 -31q-20 -31 -63 -92q-43 -57 -87 -57q-45 0 -45 40v213h53v-186q0 -35 20 -35q29 0 80.5 76t54.5 76q11 0 11 -4z" />
    <glyph glyph-name="j" unicode="j" horiz-adv-x="214" 
d="M90 386q0 -13 -10 -23t-23 -10q-34 0 -34 33q0 32 33 32q13 0 23.5 -9.5t10.5 -22.5zM247 175q-5 -6 -30 -38q-60 -76 -119 -115q-4 8 -4 12q3 4 25 20q28 20 38 31q30 32 78 91q11 0 12 -1zM81 -181q0 3 -4 -22q-6 -37 -36 -64t-68 -27q-47 0 -79 38q-21 26 -21 44
q0 9 5 12q18 9 65 33q1 0 4 -3q-9 -5 -24 -20v-15q0 -80 46 -80q62 0 62 87v447h50v-430z" />
    <glyph glyph-name="k" unicode="k" horiz-adv-x="419" 
d="M269 607q0 -61 -61 -177q-57 -108 -107 -158h-5q-3 -1 -3 4q0 1 32 46.5t36 51.5q62 100 62 218q0 95 -38 95q-52 0 -81 -87q-22 -65 -22 -131l-1 -467q-12 -2 -26 -2t-28 2v398q0 130 57 218q51 78 109 78q35 0 55.5 -26.5t20.5 -62.5zM448 176q0 -8 -41 -64
q-36 -49 -49 -63q-54 -60 -85 -60q-20 0 -70.5 59t-69.5 59q-5 0 -15.5 -4.5t-16.5 -4.5q-8 0 -8 11q0 8 19 37q70 106 147 106q39 0 76 -47q-6 -6 -42 -36q-54 51 -76 51q-24 0 -66.5 -41t-42.5 -64q1 -1 4 -1q-15 0 18.5 10t42.5 10q26 0 72.5 -53t61.5 -53q22 0 74 72
l55 76q4 2 9 2q3 0 3 -2z" />
    <glyph glyph-name="l" unicode="l" horiz-adv-x="232" 
d="M253 175q-3 -6 -18 -34q-28 -53 -64 -94q-13 -15 -42 -37q-32 -25 -49 -25q-48 0 -48 61v417q0 69 26 132q32 75 87 96q21 8 35 8q71 0 71 -92q0 -67 -52 -179q-50 -107 -101 -158l-4 4q113 149 113 318q0 97 -36 97q-23 0 -45 -30q-43 -60 -43 -202v-405q7 -35 23 -35
q42 0 118 129q4 9 15 30q6 2 10 2t4 -3z" />
    <glyph glyph-name="m" unicode="m" horiz-adv-x="612" 
d="M471 -8q-43 3 -43 90q0 13 1 39t1 39q0 77 -37 77q-13 0 -46 -27q-28 -23 -41 -39q-10 -4 -12 -4q-1 1 -1 8q77 82 129 82q44 0 56 -39q5 -17 5 -73q0 -10 -1.5 -28.5t-1.5 -28.5v-41q4 -28 21 -28q45 0 138 157l12 -1q-26 -58 -74 -115q-60 -72 -106 -68zM284 1
q-8 -2 -20 -2q-6 0 -19 1t-19 1l2 190q0 16 -8.5 30t-23.5 14q-22 0 -93 -70q-9 0 -9 7q0 6 54 50q43 35 79 35q57 0 57 -78v-178zM83 -2h-52v249q37 2 52 0v-249z" />
    <glyph glyph-name="n" unicode="n" horiz-adv-x="416" 
d="M444 174q0 -9 -25 -49.5t-35 -52.5q-36 -42 -50 -54q-36 -32 -62 -32q-16 0 -30.5 14t-14.5 30v159q0 15 -9 27.5t-24 12.5q-26 0 -91 -74q-8 7 -8 9q0 3 32.5 32t40.5 35q30 22 54 22q56 1 56 -104q0 11 -1 -35v-33q0 -63 25 -63q42 0 133 159q9 1 9 -3zM87 0
q-49 0 -54 -1v244h54v-243z" />
    <glyph glyph-name="o" unicode="o" horiz-adv-x="394" 
d="M427 176q-4 -7 -15 -27q-18 -31 -66 -66q-52 -38 -84 -38q-3 0 -8 1t-8 1q-30 -20 -74 -46q-36 -15 -72 -13q-47 2 -79 26q-35 28 -35 73q0 68 66 120q63 48 133 46q48 -2 77 -26q33 -27 33 -73q0 -43 -42 -99q3 -2 8 -1q44 6 99 55q49 44 55 66zM240 113q0 40 -20 72.5
t-57 44.5q-7 3 -16 3q-23 0 -51 -15t-40 -35q-14 -24 -14 -55q0 -81 81 -112q13 -5 26 -5q39 0 74 36q5 6 11 31t6 35z" />
    <glyph glyph-name="p" unicode="p" horiz-adv-x="445" 
d="M473 177q-4 -9 -16 -30q-34 -51 -69 -81q-14 -12 -53 -33q-42 -22 -54 -22q-2 0 -6 1t-6 1q26 0 -28.5 -14.5t-73.5 -12.5q-28 2 -49 15q-26 16 -26 42q0 16 12.5 30.5t28.5 18.5l11 1q0 -2 -7 -13t-6 -26q3 -57 57 -57q45 0 70 30t25 76q0 47 -27 85q-30 42 -75 42
q-24 0 -75 -41q-2 3 -7 5q57 63 129 63q47 0 81.5 -33.5t34.5 -80.5q0 -61 -53 -114q-2 -6 -2 -5q54 22 102 61q61 49 69 92h13zM88 -176q0 -65 -24 -94q-26 -33 -91 -33q-32 0 -64 24.5t-32 55.5q0 16 30 28q12 5 35 14q1 -1 4 -3q-1 -3 -19 -15q-4 -12 6 -50
q12 -46 39 -46q61 0 61 96l-1 445h56v-422z" />
    <glyph glyph-name="q" unicode="q" horiz-adv-x="428" 
d="M463 176q0 -4 -35 -50.5t-44 -55.5q-21 -21 -60 -57q-1 2 -6 7q69 65 134 158q6 0 11 -2zM383 -300q-5 -2 -14 -2q-42 0 -78 42t-37 85q0 6 -4 35l-1 388h58l-1 -379q-1 7 -1 -35q0 -85 78 -134zM238 51q0 -2 -19 -15q-65 -46 -121 -46q-45 0 -78.5 30t-33.5 75
q0 68 53.5 118.5t121.5 47.5q43 -2 75 -26q0 -4 -4 -8q-35 25 -76 25q-47 0 -79.5 -35.5t-32.5 -82.5t32 -79.5t79 -32.5q33 0 80 34q3 0 3 -5z" />
    <glyph glyph-name="r" unicode="r" horiz-adv-x="314" 
d="M344 173q0 -5 -21 -42q-28 -49 -72 -91q-55 -52 -98 -52q-29 0 -48 21t-19 50q0 33 32 84q8 13 54 76q-38 -19 -70 -25q-23 -4 -68 -4q-2 0 -8.5 4.5t-6.5 5.5l46 88l8 -2q-13 -25 -17 -39q20 -8 53 -8q54 0 97 16q-15 -26 -44 -77q-25 -46 -25 -83q0 -24 18.5 -43.5
t42.5 -19.5q37 0 81 52q38 45 50 88q8 4 12 4q3 0 3 -3z" />
    <glyph glyph-name="s" unicode="s" horiz-adv-x="327" 
d="M365 180q0 -2 -19 -28q-56 -77 -117 -113q-19 -11 -27 -11q-2 0 -2.5 1t-2.5 1q-1 0 -19.5 -11.5t-23.5 -13.5q-22 -11 -57 -11q-71 0 -98 47l58 73q9 0 9 -6q0 -2 -8.5 -13.5t-8.5 -14.5q0 -17 22.5 -46.5t38.5 -29.5q38 0 58 29q18 26 18 65q0 42 -31.5 75.5
t-73.5 33.5q-19 0 -31 -7q-4 -7 -7 -7q-4 0 -4 5q0 3 2 8q23 33 63 96q6 0 6 -4q0 -11 -11 -29q3 -4 14 -7q117 -33 117 -133q0 -40 -24 -86q1 -1 4 -1q5 2 24 14q62 38 119 124q1 -1 7 1q5 2 5 -1z" />
    <glyph glyph-name="t" unicode="t" horiz-adv-x="202" 
d="M93 380l75 48l6 -11q-72 -47 -76 -47zM86 52q0 -23 20 -23t81 80q14 25 43 74q9 0 9 -3q0 -16 -31 -64q-24 -36 -44 -60q-53 -63 -88 -63q-21 0 -34 15.5t-13 36.5v440h57v-113v-320zM26 319l-76 -52l-6 9l76 54z" />
    <glyph glyph-name="u" unicode="u" horiz-adv-x="410" 
d="M445 173q-4 -11 -14 -30q-27 -49 -45 -74q-50 -69 -94 -79q-2 -1 -11 -1q-22 0 -35 22q-11 19 -11 43v193h54v-178q0 -49 25 -49q10 0 14 2q26 15 55 56q1 2 42 72q4 9 11 22q3 0 9 1zM225 88q0 -3 -21 -26q-41 -46 -91 -69q-8 -4 -25 -4q-58 0 -58 94v164h54v-165
q0 -72 35 -72q24 0 102 83q4 -4 4 -5z" />
    <glyph glyph-name="v" unicode="v" horiz-adv-x="362" 
d="M317 357q0 -78 -67 -202q-51 -95 -113 -171l-119 223l35 65l115 -218q2 1 7 8q100 139 100 246q0 49 -17 81q-23 44 -74 44q-13 0 -23 -1q18 40 64 40q42 0 68 -38q24 -33 24 -77zM394 177q0 -5 -13 -23.5t-19 -24.5q-32 -32 -47 -44q-20 -16 -60 -36q-58 -29 -76 -36
l1 10q26 12 77 37q84 45 127 117q5 1 10 0z" />
    <glyph glyph-name="w" unicode="w" horiz-adv-x="556" 
d="M591 179q0 -4 -31 -47q-67 -92 -188 -129l-10 2q-1 5 8 8q60 17 119.5 65t87.5 102q14 2 14 -1zM497 342q0 -77 -56 -186q-32 -61 -113 -184l-107 200l-92 -200l-112 221l29 58l102 -197q2 0 3 1q19 39 90 198l113 -214q2 1 5 5q102 138 102 238q0 140 -101 140
q-9 0 -18 -1l-2 1q8 16 29 27.5t40 11.5q44 0 69 -46q19 -35 19 -73z" />
    <glyph glyph-name="x" unicode="x" horiz-adv-x="411" 
d="M342 206q-3 -1 -57 -49h-8v7q21 24 21 25q0 8 -19 19t-29 11q-19 0 -42.5 -33.5t-28.5 -33.5q-2 1 -2 5q0 5 14 25q26 38 36 48q24 25 52 25q46 0 63 -49zM438 178q-18 -47 -77 -115q-66 -76 -103 -76h-23q-27 0 -92 104t-88 104q-3 0 -11 -6t-11 -6q-4 2 -4 3
q0 13 19 41t31 28q24 0 82 -87l76 -114q25 -30 42 -30q6 0 13 2q36 15 68 55q18 22 43 65q19 32 24 32h11zM141 75q0 -4 -9 -17q-50 -73 -96 -73q-38 0 -62 41l64 53h8q2 -1 2 -4q0 -4 -23 -20q20 -37 43 -37q16 0 41.5 30.5t28.5 30.5q2 -1 3 -4z" />
    <glyph glyph-name="y" unicode="y" horiz-adv-x="425" 
d="M455 174q-90 -126 -149 -171q-5 5 -5 8q36 37 98 108q16 22 49 65q1 0 3.5 -1t3.5 -1v-8zM223 82q-2 -2 -14 -17q-21 -28 -54 -51q-39 -29 -67 -29q-58 0 -58 110v152h54v-131q0 -107 34 -107q17 0 56 36q33 30 41 45h8v-8zM291 -168q1 -60 -48 -103q-41 -37 -93 -37
q-62 0 -117 62q-16 18 -16 30q0 8 33 28q9 6 44 23h8v-7q-3 -2 -23 -16q-1 -10 0 -14q23 -97 71 -97q38 0 63 34q23 30 23 70v439h51z" />
    <glyph glyph-name="z" unicode="z" horiz-adv-x="361" 
d="M393 179q0 -2 -14 -34q-67 -153 -127 -153q-31 0 -77 19q-70 29 -74 30q-40 -52 -81 -52q-30 0 -30 28q0 32 42 54q36 20 71 20q20 0 30 24q-4 5 -19.5 7t-18.5 5l2 3q2 1 22 1q13 0 20 7q3 3 10 22l-3 4q-70 -5 -123 17l10 20q11 24 37 75h6q2 -1 2 -4q0 2 -9 -25
q58 -38 109 -38q-23 0 23 26.5t61 26.5q32 0 32 -25q0 -30 -46 -54t-76 -19q-11 -10 -14 -26q3 -3 30 -4l4 -1l4 -4q-5 -5 -27 -5q-35 0 -37 -35q97 -51 142 -51q18 0 29 10q39 37 80 138q7 6 8 6q2 -2 2 -13zM281 237q0 16 -23 16q-33 0 -58 -45h38q11 0 27 9.5t16 19.5z
M87 46q-18 6 -34 6q-51 0 -51 -34q0 -20 22 -20q18 0 37.5 15.5t25.5 32.5z" />
    <glyph glyph-name="braceleft" unicode="{" horiz-adv-x="236" 
d="M72 256v-288q0 -55 28 -94q32 -44 85 -37q-5 3 -5 6t5 6q-51 21 -65 52q-8 18 -8 67v288q6 37 -76 91q83 78 77 115v289q0 50 7 66q14 32 66 53q-5 2 -5 5q0 4 5 7q-53 5 -85 -38q-28 -38 -28 -93v-289q4 -30 -17.5 -66.5t-49.5 -48.5q23 -16 47 -33q19 -19 19 -58z" />
    <glyph glyph-name="bar" unicode="|" horiz-adv-x="527" 
d="M263 -30v882h20v-882h-20z" />
    <glyph glyph-name="braceright" unicode="}" horiz-adv-x="236" 
d="M120 256v-288q0 -55 -28 -94q-32 -44 -85 -37q5 3 5 6t-5 6q51 21 65 52q8 18 8 67v288q-6 37 76 91q-83 78 -77 115v289q0 48 -8 66q-14 32 -65 53q5 2 5 5q0 4 -5 7q53 5 85 -38q28 -38 28 -93v-289q-5 -30 17 -66.5t50 -48.5q-38 -25 -47 -36q-19 -21 -19 -55z" />
    <glyph glyph-name="asciitilde" unicode="~" horiz-adv-x="348" 
d="M336 787q-42 -62 -134 -62q-30 0 -64 10q-38 11 -68 11q-26 0 -56 -19l-5 2q16 24 51.5 41t64.5 15q19 -2 62 -14q39 -12 59 -12q34 0 80 33q10 -4 10 -5z" />
    <glyph glyph-name="Adieresis" unicode="&#xc4;" horiz-adv-x="579" 
d="M594 164q-30 -43 -103 -103q-81 -67 -122 -67q-60 0 -60 71l1 447q3 1 50 24v-468q0 -48 33 -48q61 0 197 152q2 -3 4 -8zM515 557q0 -65 -44 -136q-40 -65 -98 -107l-2 4q55 61 70 85q30 49 30 107t-44.5 106t-102.5 48q-121 0 -199 -168q-64 -137 -64 -276
q0 -75 28 -120q34 -55 104 -55q54 0 97 45l1 4l1 -7q-80 -91 -142 -91q-69 0 -111 79q-35 66 -35 142q0 157 101 304q115 167 274 167q58 0 97 -36.5t39 -94.5zM295 282q-3 -10 -34 -10q-41 0 -67 23.5t-26 63.5q0 47 36 69q-2 -9 -2 -20q0 -43 25 -80q27 -40 68 -46z
M380 762q0 33 35 33q34 0 34 -33t-34 -33q-35 0 -35 33zM240 762q0 33 35 33q34 0 34 -33t-34 -33q-35 0 -35 33z" />
    <glyph glyph-name="Aring" unicode="&#xc5;" horiz-adv-x="579" 
d="M594 164q-30 -43 -103 -103q-81 -67 -122 -67q-60 0 -60 71l1 447q3 1 50 24v-468q0 -48 33 -48q61 0 197 152q2 -3 4 -8zM515 557q0 -65 -44 -136q-40 -65 -98 -107l-2 4q55 61 70 85q30 49 30 107t-44.5 106t-102.5 48q-121 0 -199 -168q-64 -137 -64 -276
q0 -75 28 -120q34 -55 104 -55q54 0 97 45l1 4l1 -7q-80 -91 -142 -91q-69 0 -111 79q-35 66 -35 142q0 157 101 304q115 167 274 167q58 0 97 -36.5t39 -94.5zM295 282q-3 -10 -34 -10q-41 0 -67 23.5t-26 63.5q0 47 36 69q-2 -9 -2 -20q0 -43 25 -80q27 -40 68 -46z
M338 855q27 0 46 -19t19 -46t-19 -45.5t-46 -18.5t-46.5 18.5t-19.5 45.5q0 28 19 46.5t47 18.5zM338 835q-19 0 -32.5 -13t-13.5 -32t13.5 -31.5t32.5 -12.5t32 12.5t13 31.5t-13 32t-32 13z" />
    <glyph glyph-name="Ccedilla" unicode="&#xc7;" horiz-adv-x="512" 
d="M523 168q-12 -46 -99 -104q-96 -64 -188 -69l-6 -38q34 -4 56 -25.5t19 -55.5q-2 -32 -31.5 -52t-63.5 -20q-39 0 -68 26l15 16q11 -10 16 -11q19 -5 33 -5q55 0 55 50q0 21 -12.5 39.5t-32.5 18.5h-10l8 57h-1q-95 0 -159 78q-57 69 -57 169q0 152 106 299
q115 160 262 160q63 0 100 -39.5t37 -102.5q0 -99 -49 -168q-63 -88 -151 -88q-38 0 -61.5 26.5t-23.5 64.5q0 45 31 64q2 -115 89 -117q67 -1 101 52q29 44 29 114q0 67 -42.5 115.5t-108.5 48.5q-118 0 -198 -133q-69 -114 -69 -241q0 -108 51 -179q58 -79 162 -79
q159 0 255 131h6v-2z" />
    <glyph glyph-name="Eacute" unicode="&#xc9;" horiz-adv-x="578" 
d="M515 642q-43 -39 -90 -39q-36 0 -94.5 35.5t-76.5 35.5q-10 0 -39 -9q-44 -14 -72 -61t-28 -95q0 -41 24 -76q26 -40 65 -40q44 0 44 24q0 14 -21 14q-14 0 -27 -6q-18 -11 -24 -12l-5 1v6q35 21 58 21q32 0 32 -21q0 -18 -25 -29q-19 -8 -40 -8q-51 0 -92 34
q-44 36 -44 86q0 78 69 133q64 52 144 52q34 0 98.5 -22t97.5 -22q8 0 23.5 2t22.5 2v-6zM473 78q-77 -94 -230 -94q-108 0 -171 52.5t-63 132.5q0 65 38 119q27 39 91 90l8 -11q-87 -82 -87 -159q0 -108 85 -172q50 -38 105 -38q75 0 144 61.5t69 135.5q0 83 -69 122
q-21 12 -45 12q-43 0 -73 -33t-30 -76q0 -55 66 -80q-10 -12 -36 -12q-34 0 -55 20t-20 54q1 62 48 101q44 37 107 37q65 0 110 -48t45 -113q0 -56 -37 -101zM211 739q58 21 150 65q8 4 17 4q3 -1 15 -6l3 -24q-6 -7 -12 -15l-168 -38q-1 4 -3 13q-1 0 -2 1z" />
    <glyph glyph-name="Ntilde" unicode="&#xd1;" horiz-adv-x="871" 
d="M690 -15q-73 0 -114 80q-33 64 -33 144q0 97 40 193q18 44 91 174l-2 1q-41 -19 -73 -19q-49 0 -85 37q-16 -17 -53 -44l-4 4l95 86q48 -46 92 -46q26 0 69 24l-4 -11q-59 -117 -81 -179q-34 -98 -34 -193q0 -80 31 -139q38 -73 111 -73q43 0 81 54q16 22 57 87l11 2
q-18 -55 -76 -115q-65 -67 -119 -67zM477 409q0 -131 -71 -266q-83 -157 -202 -157q-28 0 -64 15q-42 17 -48 39q26 26 43 41h5q32 -80 90 -80q88 0 147 150q48 122 48 225q0 112 -56 190q-63 87 -171 87q-72 0 -118 -49t-46 -122q0 -62 38 -109q40 -50 101 -50
q33 0 55.5 26t22.5 60q0 71 -77 86q10 22 44 22q30 0 48 -19.5t18 -49.5q0 -60 -49.5 -105.5t-110.5 -45.5q-55 0 -87 38q-30 35 -30 91q0 106 71 185.5t176 79.5q104 0 167 -92q56 -81 56 -190zM1 334h-3v5h3v-5zM636 787q-42 -62 -134 -62q-30 0 -64 10q-38 11 -68 11
q-26 0 -56 -19l-5 2q16 24 51.5 41t64.5 15q19 -2 62 -14q39 -12 59 -12q34 0 80 33q10 -4 10 -5z" />
    <glyph glyph-name="Odieresis" unicode="&#xd6;" horiz-adv-x="474" 
d="M421 345q0 -125 -48 -228q-62 -132 -171 -132q-100 0 -153 103q-40 78 -43 192q-5 188 105 355h6v-6l-31 -66q-33 -70 -33 -202q0 -118 37 -214q50 -130 149 -130q79 0 127 113q39 91 39 182t-40 198q-50 133 -125 133q-47 0 -76 -57q-23 -46 -23 -101q0 -47 22 -86
q27 -46 70 -46q25 0 64 32v-7q0 -25 -29.5 -48t-54.5 -23q-45 0 -71 44q-22 37 -22 85q0 82 37 159q46 95 116 95q81 0 121 -139q27 -94 27 -206zM260 762q0 33 35 33q34 0 34 -33t-34 -33q-35 0 -35 33zM120 762q0 33 35 33q34 0 34 -33t-34 -33q-35 0 -35 33z" />
    <glyph glyph-name="Udieresis" unicode="&#xdc;" horiz-adv-x="778" 
d="M789 160q0 -11 -47 -74q-77 -102 -139 -102q-32 0 -49 32q-14 25 -14 60v488h50v-452q0 -97 48 -97q38 0 89 67q19 27 59 82q3 -3 3 -4zM531 58q-7 -11 -35 -33t-41 -27q-33 -12 -53 -12q-136 0 -136 129q0 48 54.5 162t54.5 175q0 84 -49.5 135.5t-133.5 51.5
q-69 0 -117 -57t-48 -127q0 -65 35 -116q40 -56 103 -56q38 0 65.5 26.5t27.5 64.5q0 34 -20.5 63.5t-53.5 29.5q-10 0 -30 -6q7 16 26.5 28.5t37.5 12.5q30 0 46 -23.5t16 -54.5q0 -70 -44 -124q-47 -57 -116 -57q-14 0 -38 10q-40 17 -62 62q-19 39 -19 87q0 99 66 185
q72 93 168 93q86 0 142 -71q52 -65 52 -154q0 -64 -58.5 -185t-58.5 -182q0 -37 20 -65q22 -31 58 -31q75 0 135 72q8 -2 6 -6zM480 742q0 33 35 33q34 0 34 -33t-34 -33q-35 0 -35 33zM340 742q0 33 35 33q34 0 34 -33t-34 -33q-35 0 -35 33z" />
    <glyph glyph-name="aacute" unicode="&#xe1;" horiz-adv-x="395" 
d="M434 176q-11 -42 -69 -109q-63 -73 -101 -73q-18 0 -30.5 14.5t-12.5 32.5v207h52v-201q0 -7 7.5 -14t14.5 -7q24 0 74 65q42 54 56 87zM205 241l-5 -7q-21 13 -52 13q-42 0 -68 -43q-23 -37 -23 -81q0 -37 23 -66.5t59 -29.5q21 0 60 23l2 -2v-6q-55 -46 -107 -46
q-41 0 -69.5 30t-28.5 71q0 60 46 111t106 51q30 0 57 -18zM82 298q41 19 115 63q5 3 13 4l12 -4l4 -19q-4 -6 -8 -13l-131 -42q-1 4 -3 10q-1 0 -2 1z" />
    <glyph glyph-name="agrave" unicode="&#xe0;" horiz-adv-x="395" 
d="M434 176q-11 -42 -69 -109q-63 -73 -101 -73q-18 0 -30.5 14.5t-12.5 32.5v207h52v-201q0 -7 7.5 -14t14.5 -7q24 0 74 65q42 54 56 87zM205 241l-5 -7q-21 13 -52 13q-42 0 -68 -43q-23 -37 -23 -81q0 -37 23 -66.5t59 -29.5q21 0 60 23l2 -2v-6q-55 -46 -107 -46
q-41 0 -69.5 30t-28.5 71q0 60 46 111t106 51q30 0 57 -18zM230 298q-41 19 -115 63q-5 3 -13 4l-12 -4l-4 -19q4 -6 8 -13l131 -42q1 4 4 10z" />
    <glyph glyph-name="acircumflex" unicode="&#xe2;" horiz-adv-x="395" 
d="M434 176q-11 -42 -69 -109q-63 -73 -101 -73q-18 0 -30.5 14.5t-12.5 32.5v207h52v-201q0 -7 7.5 -14t14.5 -7q24 0 74 65q42 54 56 87zM205 241l-5 -7q-21 13 -52 13q-42 0 -68 -43q-23 -37 -23 -81q0 -37 23 -66.5t59 -29.5q21 0 60 23l2 -2v-6q-55 -46 -107 -46
q-41 0 -69.5 30t-28.5 71q0 60 46 111t106 51q30 0 57 -18zM162 338zM170 379h-16l-96 -85l6 -9l98 53q27 -14 97 -53l7 9q-48 43 -96 85z" />
    <glyph glyph-name="adieresis" unicode="&#xe4;" horiz-adv-x="395" 
d="M434 176q-11 -42 -69 -109q-63 -73 -101 -73q-18 0 -30.5 14.5t-12.5 32.5v207h52v-201q0 -7 7.5 -14t14.5 -7q24 0 74 65q42 54 56 87zM205 241l-5 -7q-21 13 -52 13q-42 0 -68 -43q-23 -37 -23 -81q0 -37 23 -66.5t59 -29.5q21 0 60 23l2 -2v-6q-55 -46 -107 -46
q-41 0 -69.5 30t-28.5 71q0 60 46 111t106 51q30 0 57 -18zM200 332q0 33 35 33q34 0 34 -33t-34 -33q-35 0 -35 33zM70 332q0 33 35 33q34 0 34 -33t-34 -33q-35 0 -35 33z" />
    <glyph glyph-name="atilde" unicode="&#xe3;" horiz-adv-x="395" 
d="M434 176q-11 -42 -69 -109q-63 -73 -101 -73q-18 0 -30.5 14.5t-12.5 32.5v207h52v-201q0 -7 7.5 -14t14.5 -7q24 0 74 65q42 54 56 87zM205 241l-5 -7q-21 13 -52 13q-42 0 -68 -43q-23 -37 -23 -81q0 -37 23 -66.5t59 -29.5q21 0 60 23l2 -2v-6q-55 -46 -107 -46
q-41 0 -69.5 30t-28.5 71q0 60 46 111t106 51q30 0 57 -18zM271 357q-27 -62 -89 -62q-19 0 -43 10.5t-45 10.5q-16 0 -27 -9l-10 -10l-3 2q9 22 32.5 40.5t44.5 15.5q14 -2 43 -14t38 -12q5 0 11 2q17 4 42 31q7 -4 6 -5z" />
    <glyph glyph-name="aring" unicode="&#xe5;" horiz-adv-x="395" 
d="M434 176q-11 -42 -69 -109q-63 -73 -101 -73q-18 0 -30.5 14.5t-12.5 32.5v207h52v-201q0 -7 7.5 -14t14.5 -7q24 0 74 65q42 54 56 87zM205 241l-5 -7q-21 13 -52 13q-42 0 -68 -43q-23 -37 -23 -81q0 -37 23 -66.5t59 -29.5q21 0 60 23l2 -2v-6q-55 -46 -107 -46
q-41 0 -69.5 30t-28.5 71q0 60 46 111t106 51q30 0 57 -18zM158 435q27 0 46 -19t19 -46t-19 -45.5t-46 -18.5t-46.5 18.5t-19.5 45.5q0 28 19 46.5t47 18.5zM158 415q-19 0 -32.5 -13t-13.5 -32t13.5 -31.5t32.5 -12.5t32 12.5t13 31.5t-13 32t-32 13z" />
    <glyph glyph-name="ccedilla" unicode="&#xe7;" horiz-adv-x="334" 
d="M169 -78q-2 -25 -22.5 -41.5t-46.5 -16.5q-28 0 -51 21l12 13q8 -8 12 -9q16 -4 29 -4q42 0 42 33q0 19 -14 31t-33 12l-8 1l5 31h-6q-47 0 -76.5 26.5t-29.5 72.5q0 59 54.5 109t113.5 50q22 0 58.5 -18t36.5 -37q0 -13 -67 -60h-6v6q19 14 19 22q0 20 -28 44.5
t-48 24.5q-36 -5 -60 -33t-24 -64q0 -45 30 -73t76 -30q43 -2 102 37q46 30 86 72q6 6 25 36q-1 -1 13 -4q-14 -34 -105 -107q-78 -62 -146 -72l-4 -18q64 -8 61 -55z" />
    <glyph glyph-name="eacute" unicode="&#xe9;" horiz-adv-x="323" 
d="M354 178q-27 -67 -116 -124.5t-161 -53.5q-95 5 -95 85q0 61 61 117.5t122 53.5q66 -3 66 -51q0 -53 -59 -97q-49 -36 -79 -36q-4 -1 -5 1t0 5q0 1 1 3q93 17 93 87q0 28 -22.5 45.5t-51.5 17.5q-31 0 -56 -36q-22 -32 -22 -65q0 -44 28 -69.5t72 -25.5q62 0 126 44
q60 41 89 99h9zM82 298q41 19 115 63q5 3 13 4l12 -4l4 -19q-4 -6 -8 -13l-131 -42q-1 4 -3 10q-1 0 -2 1z" />
    <glyph glyph-name="egrave" unicode="&#xe8;" horiz-adv-x="323" 
d="M354 178q-27 -67 -116 -124.5t-161 -53.5q-95 5 -95 85q0 61 61 117.5t122 53.5q66 -3 66 -51q0 -53 -59 -97q-49 -36 -79 -36q-4 -1 -5 1t0 5q0 1 1 3q93 17 93 87q0 28 -22.5 45.5t-51.5 17.5q-31 0 -56 -36q-22 -32 -22 -65q0 -44 28 -69.5t72 -25.5q62 0 126 44
q60 41 89 99h9zM200 298q-41 19 -115 63q-5 3 -13 4l-12 -4l-4 -19q4 -6 8 -13l131 -42q1 4 4 10z" />
    <glyph glyph-name="ecircumflex" unicode="&#xea;" horiz-adv-x="323" 
d="M354 178q-27 -67 -116 -124.5t-161 -53.5q-95 5 -95 85q0 61 61 117.5t122 53.5q66 -3 66 -51q0 -53 -59 -97q-49 -36 -79 -36q-4 -1 -5 1t0 5q0 1 1 3q93 17 93 87q0 28 -22.5 45.5t-51.5 17.5q-31 0 -56 -36q-22 -32 -22 -65q0 -44 28 -69.5t72 -25.5q62 0 126 44
q60 41 89 99h9zM132 338zM140 379h-16l-96 -85l6 -9l98 53q27 -14 97 -53l7 9q-48 43 -96 85z" />
    <glyph glyph-name="edieresis" unicode="&#xeb;" horiz-adv-x="323" 
d="M354 178q-27 -67 -116 -124.5t-161 -53.5q-95 5 -95 85q0 61 61 117.5t122 53.5q66 -3 66 -51q0 -53 -59 -97q-49 -36 -79 -36q-4 -1 -5 1t0 5q0 1 1 3q93 17 93 87q0 28 -22.5 45.5t-51.5 17.5q-31 0 -56 -36q-22 -32 -22 -65q0 -44 28 -69.5t72 -25.5q62 0 126 44
q60 41 89 99h9zM170 332q0 33 35 33q34 0 34 -33t-34 -33q-35 0 -35 33zM40 332q0 33 35 33q34 0 34 -33t-34 -33q-35 0 -35 33z" />
    <glyph glyph-name="iacute" unicode="&#xed;" horiz-adv-x="214" 
d="M252 177q0 4 -24 -31q-20 -31 -63 -92q-43 -57 -87 -57q-45 0 -45 40v213h53v-186q0 -35 20 -35q29 0 80.5 76t54.5 76q11 0 11 -4zM2 298q41 19 115 63q5 3 13 4l12 -4l4 -19q-4 -6 -8 -13l-131 -42q-1 4 -3 10q-1 0 -2 1z" />
    <glyph glyph-name="igrave" unicode="&#xec;" horiz-adv-x="214" 
d="M252 177q0 4 -24 -31q-20 -31 -63 -92q-43 -57 -87 -57q-45 0 -45 40v213h53v-186q0 -35 20 -35q29 0 80.5 76t54.5 76q11 0 11 -4zM140 298q-41 19 -115 63q-5 3 -13 4l-12 -4l-4 -19q4 -6 8 -13l131 -42q1 4 4 10z" />
    <glyph glyph-name="icircumflex" unicode="&#xee;" horiz-adv-x="214" 
d="M252 177q0 4 -24 -31q-20 -31 -63 -92q-43 -57 -87 -57q-45 0 -45 40v213h53v-186q0 -35 20 -35q29 0 80.5 76t54.5 76q11 0 11 -4zM72 338zM80 379h-16l-96 -85l6 -9l98 53q27 -14 97 -53l7 9q-48 43 -96 85z" />
    <glyph glyph-name="idieresis" unicode="&#xef;" horiz-adv-x="214" 
d="M252 177q0 4 -24 -31q-20 -31 -63 -92q-43 -57 -87 -57q-45 0 -45 40v213h53v-186q0 -35 20 -35q29 0 80.5 76t54.5 76q11 0 11 -4zM90 332q0 33 35 33q34 0 34 -33t-34 -33q-35 0 -35 33zM-30 332q0 33 35 33q34 0 34 -33t-34 -33q-35 0 -35 33z" />
    <glyph glyph-name="ntilde" unicode="&#xf1;" horiz-adv-x="416" 
d="M444 174q0 -9 -25 -49.5t-35 -52.5q-36 -42 -50 -54q-36 -32 -62 -32q-16 0 -30.5 14t-14.5 30v159q0 15 -9 27.5t-24 12.5q-26 0 -91 -74q-8 7 -8 9q0 3 32.5 32t40.5 35q30 22 54 22q56 1 56 -104q0 11 -1 -35v-33q0 -63 25 -63q42 0 133 159q9 1 9 -3zM87 0
q-49 0 -54 -1v244h54v-243zM261 357q-27 -62 -89 -62q-19 0 -43 10.5t-45 10.5q-16 0 -27 -9l-10 -10l-3 2q9 22 32.5 40.5t44.5 15.5q14 -2 43 -14t38 -12q5 0 11 2q17 4 42 31q7 -4 6 -5z" />
    <glyph glyph-name="oacute" unicode="&#xf3;" horiz-adv-x="394" 
d="M427 176q-4 -7 -15 -27q-18 -31 -66 -66q-52 -38 -84 -38q-3 0 -8 1t-8 1q-30 -20 -74 -46q-36 -15 -72 -13q-47 2 -79 26q-35 28 -35 73q0 68 66 120q63 48 133 46q48 -2 77 -26q33 -27 33 -73q0 -43 -42 -99q3 -2 8 -1q44 6 99 55q49 44 55 66zM240 113q0 40 -20 72.5
t-57 44.5q-7 3 -16 3q-23 0 -51 -15t-40 -35q-14 -24 -14 -55q0 -81 81 -112q13 -5 26 -5q39 0 74 36q5 6 11 31t6 35zM82 298q41 19 115 63q5 3 13 4l12 -4l4 -19q-4 -6 -8 -13l-131 -42q-1 4 -3 10q-1 0 -2 1z" />
    <glyph glyph-name="ograve" unicode="&#xf2;" horiz-adv-x="394" 
d="M427 176q-4 -7 -15 -27q-18 -31 -66 -66q-52 -38 -84 -38q-3 0 -8 1t-8 1q-30 -20 -74 -46q-36 -15 -72 -13q-47 2 -79 26q-35 28 -35 73q0 68 66 120q63 48 133 46q48 -2 77 -26q33 -27 33 -73q0 -43 -42 -99q3 -2 8 -1q44 6 99 55q49 44 55 66zM240 113q0 40 -20 72.5
t-57 44.5q-7 3 -16 3q-23 0 -51 -15t-40 -35q-14 -24 -14 -55q0 -81 81 -112q13 -5 26 -5q39 0 74 36q5 6 11 31t6 35zM220 298q-41 19 -115 63q-5 3 -13 4l-12 -4l-4 -19q4 -6 8 -13l131 -42q1 4 4 10z" />
    <glyph glyph-name="ocircumflex" unicode="&#xf4;" horiz-adv-x="394" 
d="M427 176q-4 -7 -15 -27q-18 -31 -66 -66q-52 -38 -84 -38q-3 0 -8 1t-8 1q-30 -20 -74 -46q-36 -15 -72 -13q-47 2 -79 26q-35 28 -35 73q0 68 66 120q63 48 133 46q48 -2 77 -26q33 -27 33 -73q0 -43 -42 -99q3 -2 8 -1q44 6 99 55q49 44 55 66zM240 113q0 40 -20 72.5
t-57 44.5q-7 3 -16 3q-23 0 -51 -15t-40 -35q-14 -24 -14 -55q0 -81 81 -112q13 -5 26 -5q39 0 74 36q5 6 11 31t6 35zM152 338zM160 379h-16l-96 -85l6 -9l98 53q27 -14 97 -53l7 9q-48 43 -96 85z" />
    <glyph glyph-name="odieresis" unicode="&#xf6;" horiz-adv-x="394" 
d="M427 176q-4 -7 -15 -27q-18 -31 -66 -66q-52 -38 -84 -38q-3 0 -8 1t-8 1q-30 -20 -74 -46q-36 -15 -72 -13q-47 2 -79 26q-35 28 -35 73q0 68 66 120q63 48 133 46q48 -2 77 -26q33 -27 33 -73q0 -43 -42 -99q3 -2 8 -1q44 6 99 55q49 44 55 66zM240 113q0 40 -20 72.5
t-57 44.5q-7 3 -16 3q-23 0 -51 -15t-40 -35q-14 -24 -14 -55q0 -81 81 -112q13 -5 26 -5q39 0 74 36q5 6 11 31t6 35zM170 332q0 33 35 33q34 0 34 -33t-34 -33q-35 0 -35 33zM40 332q0 33 35 33q34 0 34 -33t-34 -33q-35 0 -35 33z" />
    <glyph glyph-name="otilde" unicode="&#xf5;" horiz-adv-x="394" 
d="M427 176q-4 -7 -15 -27q-18 -31 -66 -66q-52 -38 -84 -38q-3 0 -8 1t-8 1q-30 -20 -74 -46q-36 -15 -72 -13q-47 2 -79 26q-35 28 -35 73q0 68 66 120q63 48 133 46q48 -2 77 -26q33 -27 33 -73q0 -43 -42 -99q3 -2 8 -1q44 6 99 55q49 44 55 66zM240 113q0 40 -20 72.5
t-57 44.5q-7 3 -16 3q-23 0 -51 -15t-40 -35q-14 -24 -14 -55q0 -81 81 -112q13 -5 26 -5q39 0 74 36q5 6 11 31t6 35zM261 357q-27 -62 -89 -62q-19 0 -43 10.5t-45 10.5q-16 0 -27 -9l-10 -10l-3 2q9 22 32.5 40.5t44.5 15.5q14 -2 43 -14t38 -12q5 0 11 2q17 4 42 31
q7 -4 6 -5z" />
    <glyph glyph-name="uacute" unicode="&#xfa;" horiz-adv-x="410" 
d="M445 173q-4 -11 -14 -30q-27 -49 -45 -74q-50 -69 -94 -79q-2 -1 -11 -1q-22 0 -35 22q-11 19 -11 43v193h54v-178q0 -49 25 -49q10 0 14 2q26 15 55 56q1 2 42 72q4 9 11 22q3 0 9 1zM225 88q0 -3 -21 -26q-41 -46 -91 -69q-8 -4 -25 -4q-58 0 -58 94v164h54v-165
q0 -72 35 -72q24 0 102 83q4 -4 4 -5zM102 298q41 19 115 63q5 3 13 4l12 -4l4 -19q-4 -6 -8 -13l-131 -42q-1 4 -3 10q-1 0 -2 1z" />
    <glyph glyph-name="ugrave" unicode="&#xf9;" horiz-adv-x="410" 
d="M445 173q-4 -11 -14 -30q-27 -49 -45 -74q-50 -69 -94 -79q-2 -1 -11 -1q-22 0 -35 22q-11 19 -11 43v193h54v-178q0 -49 25 -49q10 0 14 2q26 15 55 56q1 2 42 72q4 9 11 22q3 0 9 1zM225 88q0 -3 -21 -26q-41 -46 -91 -69q-8 -4 -25 -4q-58 0 -58 94v164h54v-165
q0 -72 35 -72q24 0 102 83q4 -4 4 -5zM230 298q-41 19 -115 63q-5 3 -13 4l-12 -4l-4 -19q4 -6 8 -13l131 -42q1 4 4 10z" />
    <glyph glyph-name="ucircumflex" unicode="&#xfb;" horiz-adv-x="410" 
d="M445 173q-4 -11 -14 -30q-27 -49 -45 -74q-50 -69 -94 -79q-2 -1 -11 -1q-22 0 -35 22q-11 19 -11 43v193h54v-178q0 -49 25 -49q10 0 14 2q26 15 55 56q1 2 42 72q4 9 11 22q3 0 9 1zM225 88q0 -3 -21 -26q-41 -46 -91 -69q-8 -4 -25 -4q-58 0 -58 94v164h54v-165
q0 -72 35 -72q24 0 102 83q4 -4 4 -5zM162 338zM170 379h-16l-96 -85l6 -9l98 53q27 -14 97 -53l7 9q-48 43 -96 85z" />
    <glyph glyph-name="udieresis" unicode="&#xfc;" horiz-adv-x="410" 
d="M445 173q-4 -11 -14 -30q-27 -49 -45 -74q-50 -69 -94 -79q-2 -1 -11 -1q-22 0 -35 22q-11 19 -11 43v193h54v-178q0 -49 25 -49q10 0 14 2q26 15 55 56q1 2 42 72q4 9 11 22q3 0 9 1zM225 88q0 -3 -21 -26q-41 -46 -91 -69q-8 -4 -25 -4q-58 0 -58 94v164h54v-165
q0 -72 35 -72q24 0 102 83q4 -4 4 -5zM190 332q0 33 35 33q34 0 34 -33t-34 -33q-35 0 -35 33zM60 332q0 33 35 33q34 0 34 -33t-34 -33q-35 0 -35 33z" />
    <glyph glyph-name="dagger" unicode="&#x2020;" horiz-adv-x="17" 
 />
    <glyph glyph-name="degree" unicode="&#xb0;" horiz-adv-x="222" 
d="M100 529q37 0 62 -27t25 -64t-25 -64t-62 -27t-62 27t-25 64t25 64t62 27zM100 504q-26 0 -44 -20t-18 -46q0 -27 18 -46.5t44 -19.5t44 19.5t18 46.5q0 26 -18 46t-44 20z" />
    <glyph glyph-name="cent" unicode="&#xa2;" horiz-adv-x="210" 
d="M99 60h-14v76h-1q-43 0 -66 45q-18 36 -18 83q0 54 18 105q23 66 67 77v37h14v-35q27 0 51 -16t26 -41q4 -59 -35 -61q-16 -1 -27.5 9.5t-11.5 26.5q0 32 29 32q-3 -7 -3 -14q0 -17 15 -17q17 -1 17 28q0 15 -19.5 28.5t-35.5 13.5q-11 0 -14 -1q-35 -7 -45 -52
q-5 -22 -5 -77q0 -36 15 -79q20 -56 48 -54q37 2 63 49l9 -6q-55 -75 -78 -81z" />
    <glyph glyph-name="sterling" unicode="&#xa3;" horiz-adv-x="417" 
d="M304 -10q-3 -1 -6 1q-14 10 -30 17q-45 19 -95 19q-56 -1 -128 -32v7q2 3 14 25q49 69 49 88q0 28 -19 74h-78v29h70q-24 68 -24 93q0 64 56 129q62 72 150 72q48 0 81 -28.5t33 -76.5q0 -50 -45 -84q-41 -31 -93 -31q-27 0 -48.5 15.5t-21.5 41.5q0 33 37 49
q3 -81 65 -81q71 0 71 61q0 48 -35 77.5t-84 29.5q-59 0 -93 -47q-30 -41 -30 -103q19 -65 39 -117h82v-29h-76q6 -23 6 -42q0 -47 -67 -116q-7 -7 -9 -10q76 43 143 43q47 0 111 -30q12 8 31 27q2 2 16 18q10 0 13 -6q-10 -17 -85 -83z" />
    <glyph glyph-name="section" unicode="&#xa7;" horiz-adv-x="8" 
 />
    <glyph glyph-name="bullet" unicode="&#x2022;" horiz-adv-x="308" 
d="M86 237q0 31 22 53t53 22t53 -22t22 -53t-22 -53t-53 -22t-53 22t-22 53z" />
    <glyph glyph-name="paragraph" unicode="&#xb6;" horiz-adv-x="406" 
d="M120 0v12q22 0 33 4q24 9 24 40v279h-27q-71 0 -108 54q-31 47 -31 121q0 84 31 122q35 43 116 43h170v-12q-47 -5 -47 -44v-569q0 -32 47 -37v-13h-208zM177 655q-54 0 -73 -34q-13 -23 -13 -76v-73q0 -118 67 -118h19v301zM254 653h-51v-631h51v631z" />
    <glyph glyph-name="germandbls" unicode="&#xdf;" horiz-adv-x="459" 
d="M49 123q1 -185 -9 -240q-25 -144 -121 -144q-32 0 -49 29q-14 24 -14 59q0 68 36 149q33 75 83 129l5 -16q-38 -54 -45 -68q-30 -66 -30 -176q0 -91 26 -91q69 0 70 211v163l1 142q1 99 2 126q2 74 12 125q32 171 137 171q33 0 52.5 -27.5t19.5 -61.5q0 -69 -50 -174
q-46 -98 -99 -154l-6 4q46 64 64 100q48 98 48 209q0 91 -36 94q-60 4 -82 -150q-13 -89 -14 -262zM371 237q0 16 -23 16q-33 0 -58 -45h38q11 0 27 9.5t16 19.5zM177 46q-18 6 -34 6q-51 0 -51 -34q0 -20 22 -20q18 0 37.5 15.5t25.5 32.5zM65 154q52 39 72 78q11 22 23 44
h6q2 -1 2 -4q0 2 -9 -25q58 -38 109 -38q-23 0 23 26.5t61 26.5q32 0 32 -25q0 -30 -46 -54t-76 -19q-11 -10 -14 -26q3 -3 30 -4l4 -1l4 -4q-5 -5 -27 -5q-35 0 -37 -35q97 -51 142 -51q18 0 29 10q39 37 80 138q7 6 8 6q2 -2 2 -13q0 -2 -14 -34q-67 -153 -127 -153
q-31 0 -77 19q-70 29 -74 30q-40 -52 -81 -52q-30 0 -30 28q0 32 42 54q36 20 71 20q20 0 30 24q-4 5 -19.5 7t-18.5 5l2 3q2 1 22 1q13 0 20 7q3 3 10 22l-3 4q-59 -5 -113 16l-5 -4q-22 -13 -47 -29z" />
    <glyph glyph-name="registered" unicode="&#xae;" horiz-adv-x="456" 
d="M218 686q77 0 132 -53t55 -130q0 -75 -57 -129t-132 -54q-77 0 -129.5 53.5t-52.5 130.5q0 75 54 128.5t130 53.5zM54 504q0 -68 47.5 -116.5t114.5 -48.5t115.5 47t48.5 114q0 68 -47 117t-115 49t-116 -47.5t-48 -114.5zM185 497v-60q0 -21 6 -25t29 -4v-10h-106v10
q23 0 29 4t6 25v131q0 20 -6.5 24t-28.5 4v12h78q68 0 83 -4q32 -9 34 -47q1 -36 -28 -47q-24 -5 -47 -9q32 -9 44 -33q4 -8 11 -41q4 -19 14 -19q18 0 18 38h11q0 -55 -44 -55q-30 0 -37 28q-5 44 -7 50q-9 28 -34 28h-25zM263 557q0 35 -53 35q-17 0 -21 -3.5t-4 -19.5
v-58h21q57 0 57 46z" />
    <glyph glyph-name="copyright" unicode="&#xa9;" horiz-adv-x="771" 
d="M541 235q-72 -111 -180 -111q-83 0 -139 68q-53 64 -53 149q0 84 55 148q58 68 141 68q42 0 106 -32q12 -6 19 -6q24 0 25 32h18v-162h-16q-12 61 -45 101q-40 48 -97 48q-67 0 -100 -71q-25 -54 -25 -130t32 -127q38 -60 110 -60q70 0 136 93zM371 -9q-144 0 -243 102
t-99 246q0 142 102.5 242t245.5 100q144 0 242.5 -102t98.5 -246q0 -142 -102 -242t-245 -100zM377 653q-132 0 -225.5 -91.5t-93.5 -222.5q0 -132 91 -226t222 -94q132 0 226 91.5t94 222.5t-91.5 225.5t-222.5 94.5z" />
    <glyph glyph-name="trademark" unicode="&#x2122;" horiz-adv-x="494" 
d="M118 638v-167h-18v167h-65v19h147v-19h-64zM269 657l57 -149l59 149h39v-186h-17v167h-10l-66 -167h-11l-64 171h-9v-171h-18v186h40z" />
    <glyph glyph-name="acute" unicode="&#xb4;" horiz-adv-x="192" 
d="M34 285l-6 9l88 88q9 7 24 4q14 -2 14 -17q3 -3 0 -12q-4 -11 -9 -12.5t-111 -59.5z" />
    <glyph glyph-name="dieresis" unicode="&#xa8;" horiz-adv-x="323" 
d="M170 332q0 33 35 33q34 0 34 -33t-34 -33q-35 0 -35 33zM40 332q0 33 35 33q34 0 34 -33t-34 -33q-35 0 -35 33z" />
    <glyph glyph-name="AE" unicode="&#xc6;" horiz-adv-x="876" 
d="M471 639zM453 653zM480 667zM497 657zM4 217q0 230 127 361q108 111 249 111q57 0 100 -22q45 20 92 20q34 0 98.5 -22t97.5 -22q8 0 23 2t23 2v-6q-43 -39 -90 -39q-36 0 -94.5 35.5t-75.5 35.5q-25 0 -57 -16q53 -36 54 -99q-7 -37 -50 -37q-20 0 -41 13l16 4
q33 19 33 43q0 27 -38 58q-57 -52 -57 -130q0 -41 24 -77q26 -40 65 -40q14 0 27 6q17 6 17 18q0 15 -21 15q-12 0 -30 -12q-9 -6 -16 -9q-9 3 -8 6q40 24 56 24q32 0 32 -21q0 -17 -25 -28q-20 -9 -40 -9q-46 0 -87 30.5t-48 74.5v-183q27 33 78 74l8 -11q-74 -70 -86 -140
q0 -74 13 -103q24 -53 71 -88q50 -38 105 -38q75 0 144 61.5t69 135.5q0 83 -69 122q-21 12 -45 12q-43 0 -73 -33t-30 -76q0 -55 66 -80q-10 -12 -36 -12q-34 0 -55 20t-20 54q1 62 48 101q44 37 107 37q65 0 110 -47.5t45 -113.5q0 -56 -37 -101q-77 -94 -229 -94
q-17 0 -34 1q-92 6 -150 62v-45l-52 -1l1 131l1 380q3 1 50 24q0 60 93 117l-7 5q-20 14 -61 14q-112 0 -202 -88q-116 -113 -120 -321q-2 -81 26 -141q36 -77 104 -77q54 0 97 45l1 4l1 -7q-79 -91 -142 -91q-71 0 -112 79q-34 65 -34 142z" />
    <glyph glyph-name="Oslash" unicode="&#xd8;" horiz-adv-x="479" 
d="M210 357l126 214q-42 72 -96 72q-47 0 -76 -57q-23 -46 -23 -101q0 -39 17 -75q19 -41 52 -53zM347 550l-116 -197h2q24 0 64 32v-7q0 -25 -29.5 -48t-54.5 -23h-9l-106 -179q50 -111 141 -111q79 0 127 113q39 91 39 182q0 53 -17 121.5t-41 116.5zM419 671l-42 -71
q44 -103 44 -255q0 -125 -48 -228q-62 -132 -171 -132q-89 0 -140 81l-40 -68v3h-20q16 28 48 85q-41 79 -44 194q-5 188 105 355h6v-6l-31 -66q-33 -70 -33 -202q0 -116 35 -210l95 161q-31 13 -48 52q-15 34 -15 72q0 82 37 159q46 95 116 95q57 0 93 -69l32 49z" />
    <glyph glyph-name="plusminus" unicode="&#xb1;" 
 />
    <glyph glyph-name="yen" unicode="&#xa5;" horiz-adv-x="371" 
d="M84 237h67v25l-151 253h105v-19h-49q47 -75 125 -206l122 161q4 11 4 21q0 50 -53 50q-36 0 -36 -33q0 -18 12 -36l-8 -6q-18 17 -18 41q0 28 21 45t50 17q32 0 52 -18t20 -49q0 -22 -11 -36l-142 -183v-26h77v-20l-77 -1v-28l77 -1v-20h-77v-166h-43v167h-67v20h67v28
h-67v20z" />
    <glyph glyph-name="mu" unicode="&#xb5;" horiz-adv-x="441" 
d="M-44 188l77 34q-23 141 -23 173q0 104 65 191q70 94 171 94q58 0 93.5 -39t35.5 -98q0 -64 -45 -121q-48 -60 -111 -60q-34 0 -56.5 20.5t-22.5 53.5q0 42 37 61q5 -107 78 -107q41 0 65 39q21 33 21 76q0 61 -40 102.5t-101 41.5q-74 0 -113 -67q-32 -56 -32 -135
q0 -42 10 -102q14 -87 16 -102l131 59l8 -18l-137 -62q1 -14 1 -27q0 -54 -31 -113q-12 -22 -31 -61q92 62 173 62q53 0 129 -42q71 74 115 132q8 0 11 -6q-7 -13 -78 -92q-58 -64 -80 -86q3 3 -39 24q-51 26 -111 25q-66 -1 -146 -40v5q0 -1 16 32q27 56 27 118q0 22 -3 48
l-72 -32z" />
    <glyph glyph-name="mu" unicode="&#x3bc;" horiz-adv-x="441" 
d="M-44 188l77 34q-23 141 -23 173q0 104 65 191q70 94 171 94q58 0 93.5 -39t35.5 -98q0 -64 -45 -121q-48 -60 -111 -60q-34 0 -56.5 20.5t-22.5 53.5q0 42 37 61q5 -107 78 -107q41 0 65 39q21 33 21 76q0 61 -40 102.5t-101 41.5q-74 0 -113 -67q-32 -56 -32 -135
q0 -42 10 -102q14 -87 16 -102l131 59l8 -18l-137 -62q1 -14 1 -27q0 -54 -31 -113q-12 -22 -31 -61q92 62 173 62q53 0 129 -42q71 74 115 132q8 0 11 -6q-7 -13 -78 -92q-58 -64 -80 -86q3 3 -39 24q-51 26 -111 25q-66 -1 -146 -40v5q0 -1 16 32q27 56 27 118q0 22 -3 48
l-72 -32z" />
    <glyph glyph-name="ordfeminine" unicode="&#xaa;" horiz-adv-x="568" 
d="M571 163q-54 -76 -167 -168q-139 97 -227 88l-10 -1q-39 -39 -57 -52q-36 -26 -70 -26q-35 0 -33 25q5 77 173 91l121 218q-24 11 -53 11q-19 0 -40 -5q22 44 93 44q11 0 21 -2q2 -1 99 166q-31 10 -111 66q-68 47 -111 47q-59 0 -105 -48t-46 -108q0 -49 17 -83
q22 -44 66 -44q31 0 55.5 22t24.5 53t-22 48.5t-54 16.5q29 28 56 28q23 0 40 -16.5t17 -39.5q0 -49 -42.5 -87.5t-91.5 -38.5q-50 0 -81 27q-34 29 -34 78q0 87 73 149q70 59 159 59q61 0 112 -32q32 -21 96 -64q10 15 31.5 42t44.5 27q26 0 26 -26q0 -35 -38 -53
q-33 -11 -65 -23q-36 -53 -99 -169q17 -10 36 -10q17 0 38 7l-9 -13q-26 -36 -66 -36q-12 0 -22 4q-66 -125 -115 -210l2 -2q71 -5 123 -23q48 -18 110 -59q63 53 126 126l7 2zM529 624q0 18 -15 18q-28 0 -61 -62q8 -4 19 -4q19 0 38 15t19 33zM148 83h-34q-24 0 -56 -15
q-38 -17 -38 -37q0 -16 26 -16q25 0 57 22t45 46zM302 766zM294 725h16l96 85l-6 9l-98 -53q-27 14 -97 53l-7 -9q48 -42 96 -85z" />
    <glyph glyph-name="ordmasculine" unicode="&#xba;" horiz-adv-x="361" 
d="M393 179q0 -2 -14 -34q-67 -153 -127 -153q-31 0 -77 19q-70 29 -74 30q-40 -52 -81 -52q-30 0 -30 28q0 32 42 54q36 20 71 20q20 0 30 24q-4 5 -19.5 7t-18.5 5l2 3q2 1 22 1q13 0 20 7q3 3 10 22l-3 4q-70 -5 -123 17l10 20q11 24 37 75h6q2 -1 2 -4q0 2 -9 -25
q58 -38 109 -38q-23 0 23 26.5t61 26.5q32 0 32 -25q0 -30 -46 -54t-76 -19q-11 -10 -14 -26q3 -3 30 -4l4 -1l4 -4q-5 -5 -27 -5q-35 0 -37 -35q97 -51 142 -51q18 0 29 10q39 37 80 138q7 6 8 6q2 -2 2 -13zM281 237q0 16 -23 16q-33 0 -58 -45h38q11 0 27 9.5t16 19.5z
M87 46q-18 6 -34 6q-51 0 -51 -34q0 -20 22 -20q18 0 37.5 15.5t25.5 32.5zM162 326zM154 285h16l96 85l-6 9l-98 -53q-27 14 -97 53l-7 -9q48 -42 96 -85z" />
    <glyph glyph-name="ae" unicode="&#xe6;" horiz-adv-x="566" 
d="M222 2v165q0 44 2 81h49l-1 -56q62 64 127 64q72 0 72 -51q0 -45 -48 -89.5t-93 -44.5q-2 0 -3 3q0 3 2 7q38 5 64 26q29 25 29 61q0 28 -22.5 45.5t-51.5 17.5q-26 0 -50.5 -28.5t-25.5 -55.5v-37q0 -34 33 -59q30 -23 65 -23q62 0 126 47q59 44 89 103h9
q-22 -65 -105.5 -121.5t-153.5 -56.5q-46 0 -67 39v-35zM205 241l-5 -7q-21 13 -52 13q-42 0 -68 -43q-23 -37 -23 -81q0 -37 23 -66.5t59 -29.5q22 0 60 23l2 -2v-6q-55 -46 -107 -46q-41 0 -69.5 30t-28.5 71q0 60 46 111t106 51q30 0 57 -18z" />
    <glyph glyph-name="oslash" unicode="&#xf8;" horiz-adv-x="394" 
d="M223 181l-151 -132q35 -38 77 -38q39 0 74 36q5 6 11 31t6 35q0 37 -17 68zM61 63l151 133q-29 37 -65 37q-23 0 -51 -15t-40 -35q-14 -24 -14 -55q0 -35 19 -65zM-14 -2l28 24q-28 26 -28 65q0 68 66 120q63 49 133 46q40 -1 69 -20l25 21l24 -3l-34 -30q26 -26 26 -67
q0 -43 -42 -99q3 -2 8 -1q44 6 99 55q49 44 55 66l12 1q-4 -7 -15 -27q-18 -31 -66 -66q-52 -38 -84 -38q-3 0 -8 1t-8 1q-30 -20 -74 -46q-36 -15 -72 -13q-41 2 -72 23l-20 -18z" />
    <glyph glyph-name="questiondown" unicode="&#xbf;" horiz-adv-x="404" 
d="M50 -60q0 39 33 85q18 25 68 75q47 47 64 73q9 14 14 50l10 73q8 -3 15 -3l4 -87q2 -53 -73 -133q-86 -92 -86 -159q0 -50 34 -78t85 -28q26 0 53 28q6 6 32 37q-22 6 -28 22q-4 8 -4 31q0 10 16 24.5t27 14.5q19 0 31.5 -15.5t11.5 -35.5q-3 -47 -50 -84
q-43 -33 -92 -37q-63 -5 -114 39.5t-51 107.5zM303 425q0 -23 -15.5 -39.5t-38.5 -16.5t-38.5 16.5t-15.5 39.5t15.5 40t38.5 17q24 0 39 -16.5t15 -40.5z" />
    <glyph glyph-name="exclamdown" unicode="&#xa1;" horiz-adv-x="184" 
d="M38 -207l22 514l24 -1l23 -513h-69zM126 416q0 -23 -15.5 -39.5t-38.5 -16.5t-39 16.5t-16 39.5q0 24 15.5 40.5t39.5 16.5q23 0 38.5 -17t15.5 -40z" />
    <glyph glyph-name="logicalnot" unicode="&#xac;" 
 />
    <glyph glyph-name="florin" unicode="&#x192;" 
 />
    <glyph glyph-name="guillemotleft" unicode="&#xab;" horiz-adv-x="289" 
d="M204 82q-4 45 -31 82q-19 26 -62 63q24 17 47 39q30 29 46 82l11 -4q-4 -62 -57 -119q31 -41 41 -68q1 -2 20 -75h-15zM104 82q-4 45 -31 82q-19 26 -62 63q24 17 47 39q30 29 46 82l11 -4q-4 -62 -57 -119q31 -41 41 -68q1 -2 20 -75h-15z" />
    <glyph glyph-name="guillemotright" unicode="&#xbb;" horiz-adv-x="289" 
d="M187 82h-15q8 39 20 75q8 24 41 68q-53 57 -57 119l11 4q19 -63 70 -104q11 -9 23 -17q-43 -37 -62 -63q-27 -37 -31 -82zM87 82h-15q8 39 20 75q8 24 41 68q-53 57 -57 119l11 4q19 -63 70 -104q11 -9 23 -17q-43 -37 -62 -63q-27 -37 -31 -82z" />
    <glyph glyph-name="ellipsis" unicode="&#x2026;" horiz-adv-x="659" 
d="M283 49q0 23 15.5 40t38.5 17q24 0 39.5 -16.5t15.5 -40.5q0 -23 -16 -40t-39 -17t-38.5 17t-15.5 40zM483 49q0 23 15.5 40t38.5 17q24 0 39.5 -16.5t15.5 -40.5q0 -23 -16 -40t-39 -17t-38.5 17t-15.5 40zM83 49q0 23 15.5 40t38.5 17q24 0 39.5 -16.5t15.5 -40.5
q0 -23 -16 -40t-39 -17t-38.5 17t-15.5 40z" />
    <glyph glyph-name="nonbreakingspace" unicode="&#xa0;" horiz-adv-x="171" 
 />
    <glyph glyph-name="Agrave" unicode="&#xc0;" horiz-adv-x="572" 
d="M574 164q-32 -47 -93 -103q-72 -67 -112 -67q-60 0 -60 71l1 447q3 1 50 24v-468q0 -48 33 -48q35 0 95 61q2 1 82 91q2 -3 4 -8zM515 557q0 -65 -44 -136q-40 -65 -98 -107l-2 4q55 61 70 85q30 49 30 107t-44.5 106t-102.5 48q-121 0 -199 -168q-64 -137 -64 -276
q0 -75 28 -120q34 -55 104 -55q54 0 97 45l1 4l1 -7q-80 -91 -142 -91q-69 0 -111 79q-35 66 -35 142q0 157 101 304q115 167 274 167q58 0 97 -36.5t39 -94.5zM295 282q-3 -10 -34 -10q-41 0 -67 23.5t-26 63.5q0 47 36 69q-2 -9 -2 -20q0 -43 25 -80q27 -40 68 -46z
M418 729q-58 21 -150 65q-8 4 -17 4q-3 -1 -15 -6l-3 -24q6 -7 12 -15l168 -38q0 4 3 13q1 0 2 1z" />
    <glyph glyph-name="Atilde" unicode="&#xc3;" horiz-adv-x="572" 
d="M574 164q-32 -47 -93 -103q-72 -67 -112 -67q-60 0 -60 71l1 447q3 1 50 24v-468q0 -48 33 -48q35 0 95 61q2 1 82 91q2 -3 4 -8zM515 557q0 -65 -44 -136q-40 -65 -98 -107l-2 4q55 61 70 85q30 49 30 107t-44.5 106t-102.5 48q-121 0 -199 -168q-64 -137 -64 -276
q0 -75 28 -120q34 -55 104 -55q54 0 97 45l1 4l1 -7q-80 -91 -142 -91q-69 0 -111 79q-35 66 -35 142q0 157 101 304q115 167 274 167q58 0 97 -36.5t39 -94.5zM295 282q-3 -10 -34 -10q-41 0 -67 23.5t-26 63.5q0 47 36 69q-2 -9 -2 -20q0 -43 25 -80q27 -40 68 -46z
M496 797q-42 -62 -134 -62q-30 0 -64 10q-38 11 -68 11q-26 0 -56 -19l-5 2q16 24 51.5 41t64.5 15q19 -2 62 -14q39 -12 59 -12q34 0 80 33q10 -4 10 -5z" />
    <glyph glyph-name="Otilde" unicode="&#xd5;" horiz-adv-x="475" 
d="M421 345q0 -125 -48 -228q-62 -132 -171 -132q-100 0 -153 103q-40 78 -43 192q-5 188 105 355h6v-6l-31 -66q-33 -70 -33 -202q0 -118 37 -214q50 -130 149 -130q79 0 127 113q39 91 39 182t-40 198q-50 133 -125 133q-47 0 -76 -57q-23 -46 -23 -101q0 -47 22 -86
q27 -46 70 -46q25 0 64 32v-7q0 -25 -29.5 -48t-54.5 -23q-45 0 -71 44q-22 37 -22 85q0 82 37 159q46 95 116 95q81 0 121 -139q27 -94 27 -206zM396 797q-42 -62 -134 -62q-30 0 -64 10q-38 11 -68 11q-26 0 -56 -19l-5 2q16 24 51.5 41t64.5 15q19 -2 62 -14
q39 -12 59 -12q34 0 80 33q10 -4 10 -5z" />
    <glyph glyph-name="OE" unicode="&#x152;" horiz-adv-x="960" 
d="M895 642q-43 -39 -90 -39q-36 0 -94.5 35.5t-76.5 35.5q-10 0 -39 -9q-44 -14 -72 -61t-28 -95q0 -41 24 -76q26 -40 65 -40q44 0 44 24q0 14 -21 14q-14 0 -27 -6q-18 -11 -24 -12l-5 1v6q35 21 58 21q32 0 32 -21q0 -18 -25 -29q-19 -8 -40 -8q-51 0 -92 34
q-44 36 -44 86q0 78 69 133q64 52 144 52q34 0 98.5 -22t97.5 -22q8 0 23.5 2t22.5 2v-6zM421 345q0 -29 -4 -61q29 47 100 104l8 -12q-88 -82 -88 -158q0 -50 15 -84q23 -53 71.5 -90t103.5 -37q76 0 144.5 61.5t68.5 136.5q0 51 -31 91q-34 42 -83 42q-42 0 -72.5 -33
t-30.5 -75q0 -56 66 -80q-10 -13 -36 -13q-34 0 -55 20t-20 54q1 61 49 101q45 38 107 38q65 0 110 -48.5t45 -113.5q0 -56 -37 -101q-77 -94 -230 -94q-101 0 -165 48q-60 45 -68 116q-60 -172 -187 -172q-100 0 -153 103q-40 78 -43 192q-5 188 105 355h6v-6l-31 -66
q-33 -70 -33 -202q0 -118 37 -214q50 -130 149 -130q103 0 149 177q2 27 11 52q6 36 6 66q0 91 -40 198q-50 133 -125 133q-47 0 -76 -57q-23 -46 -23 -101q0 -47 22 -86q27 -46 70 -46q25 0 64 32v-7q0 -25 -29.5 -48t-54.5 -23q-45 0 -71 44q-22 37 -22 85q0 82 37 159
q46 95 116 95q81 0 121 -139q27 -94 27 -206z" />
    <glyph glyph-name="oe" unicode="&#x153;" horiz-adv-x="589" 
d="M242 44q-34 -26 -44 -32q-46 -27 -98 -24q-47 2 -79 26q-35 27 -35 73q0 70 69 121q64 48 130 45q83 -3 105 -64q65 71 135 67q66 -3 66 -51q0 -53 -59 -97q-49 -36 -79 -36q-4 -1 -5 1t0 5q0 1 1 3q93 17 93 87q0 28 -22.5 45.5t-51.5 17.5q-25 0 -47 -24
q-17 -20 -26 -48v-5q1 -9 -5 -25q1 -43 28.5 -68.5t71.5 -25.5q62 0 126 44q60 41 89 99h9q-27 -67 -116 -124.5t-161 -53.5q-69 4 -89 50zM240 113q0 40 -20 72.5t-57 44.5q-7 3 -16 3q-23 0 -51 -15t-40 -35q-14 -24 -14 -55q0 -80 81 -112q13 -5 23 -5q32 0 77 36
q17 14 17 66z" />
    <glyph glyph-name="endash" unicode="&#x2013;" horiz-adv-x="418" 
d="M418 115l-421 1l2 62l419 -1v-62z" />
    <glyph glyph-name="emdash" unicode="&#x2014;" horiz-adv-x="837" 
d="M838 115l-841 1l2 60l838 -1z" />
    <glyph glyph-name="quotedblleft" unicode="&#x201c;" horiz-adv-x="400" 
d="M330 518q2 -3 4 -4q-30 -29 -87 -85q-43 22 -45 73q-1 11 0 21q4 79 125 160q4 -1 7 -2q-83 -73 -96 -120q-5 -17 9 -37q16 -23 50 -23q8 0 33 17zM160 518q2 -3 4 -4q-30 -29 -87 -85q-43 22 -45 73q-1 11 0 21q4 79 125 160q4 -1 7 -2q-83 -73 -96 -120q-5 -17 9 -37
q16 -23 50 -23q8 0 33 17z" />
    <glyph glyph-name="quotedblright" unicode="&#x201d;" horiz-adv-x="400" 
d="M204 592q-2 2 -5 4q30 29 87 85q43 -22 45 -73q1 -11 0 -21q-5 -79 -125 -160q-3 0 -7 2q81 71 97 120q4 24 -15 41.5t-44 17.5q-8 0 -33 -16zM34 592q-2 2 -5 4q30 29 87 85q43 -22 45 -73q1 -11 0 -21q-5 -79 -125 -160q-3 0 -7 2q81 71 97 120q4 24 -15 41.5t-44 17.5
q-8 0 -33 -16z" />
    <glyph glyph-name="quoteleft" unicode="&#x2018;" horiz-adv-x="238" 
d="M170 518q2 -3 4 -4q-30 -29 -87 -85q-43 22 -45 73q-1 11 0 21q4 79 125 160q4 -1 7 -2q-83 -73 -96 -120q-5 -17 9 -37q16 -23 50 -23q8 0 33 17z" />
    <glyph glyph-name="quoteright" unicode="&#x2019;" horiz-adv-x="238" 
d="M62 592q-2 2 -5 4q31 29 87 85q43 -22 45 -73q1 -11 0 -21q-4 -79 -125 -160q-3 0 -7 2q81 71 97 120q5 24 -14.5 41.5t-44.5 17.5q-8 0 -33 -16z" />
    <glyph glyph-name="divide" unicode="&#xf7;" horiz-adv-x="18" 
 />
    <glyph glyph-name="ydieresis" unicode="&#xff;" horiz-adv-x="432" 
d="M455 174q-90 -126 -149 -171q-5 5 -5 8q36 37 98 108q16 22 49 65q1 0 3.5 -1t3.5 -1v-8zM223 82q-2 -2 -14 -17q-21 -28 -54 -51q-39 -29 -67 -29q-58 0 -58 110v152h54v-131q0 -107 34 -107q17 0 56 36q33 30 41 45h8v-8zM291 -168q1 -60 -48 -103q-41 -37 -93 -37
q-62 0 -117 62q-16 18 -16 30q0 8 33 28q9 6 44 23h8v-7q-3 -2 -23 -16q-1 -10 0 -14q23 -97 71 -97q38 0 63 34q23 30 23 70v439h51zM200 332q0 33 35 33q34 0 34 -33t-34 -33q-35 0 -35 33zM70 332q0 33 35 33q34 0 34 -33t-34 -33q-35 0 -35 33z" />
    <glyph glyph-name="Ydieresis" unicode="&#x178;" horiz-adv-x="616" 
d="M500 288q-62 -127 -135 -127q-33 0 -54 27q-20 24 -20 58q0 33 37.5 117t37.5 134q0 63 -40 107t-103 44q-76 0 -131.5 -61.5t-55.5 -138.5q0 -54 30 -93q33 -44 85 -44q34 0 63.5 35t29.5 70q0 73 -74 73q-10 0 -22 -2q3 16 24.5 29.5t38.5 13.5q28 0 43 -24
q13 -20 13 -49q0 -67 -51 -120.5t-118 -53.5q-46 0 -72 34q-24 31 -24 79q0 107 77 193t183 86q64 0 104 -36t40 -99q0 -46 -42.5 -130.5t-42.5 -112.5q0 -36 23.5 -65t58.5 -29q33 0 55 29q7 12 33 57l7 12zM568 221q0 -96 -55 -163q-60 -72 -154 -68q-36 1 -80 20
q-53 23 -56 51l39 34q55 -95 116 -95q68 0 108 67q34 57 34 130q0 40 -10 120t-10 120q0 44 11 87q13 53 38 76l2 -4q-20 -44 -20 -99q0 -47 18.5 -138t18.5 -138zM450 752q0 33 35 33q34 0 34 -33t-34 -33q-35 0 -35 33zM310 752q0 33 35 33q34 0 34 -33t-34 -33
q-35 0 -35 33z" />
    <glyph glyph-name="currency" unicode="&#xa4;" 
 />
    <glyph glyph-name="guilsinglleft" unicode="&#x2039;" horiz-adv-x="162" 
d="M104 82q-4 45 -31 82q-19 26 -62 63q24 17 47 39q30 29 46 82l11 -4q-4 -62 -57 -119q31 -41 41 -68q1 -2 20 -75h-15z" />
    <glyph glyph-name="guilsinglright" unicode="&#x203a;" horiz-adv-x="162" 
d="M77 82h-16q5 22 21 75q8 24 41 68q-54 57 -58 119l11 4q20 -63 71 -104q6 -5 22 -17q-42 -36 -61 -63q-27 -38 -31 -82z" />
    <glyph glyph-name="daggerdbl" unicode="&#x2021;" horiz-adv-x="17" 
 />
    <glyph glyph-name="periodcentered" unicode="&#xb7;" horiz-adv-x="168" 
d="M41 254q0 19 13 33.5t32 14.5q20 0 33 -14t13 -34t-13 -34t-33 -14q-19 0 -32 14.5t-13 33.5z" />
    <glyph glyph-name="periodcentered" unicode="&#x2219;" horiz-adv-x="168" 
d="M41 254q0 19 13 33.5t32 14.5q20 0 33 -14t13 -34t-13 -34t-33 -14q-19 0 -32 14.5t-13 33.5z" />
    <glyph glyph-name="quotesinglbase" unicode="&#x201a;" horiz-adv-x="238" 
d="M54 22q-2 2 -5 4q31 29 87 85q43 -22 45 -73q1 -11 0 -21q-5 -79 -125 -160q-3 0 -7 2q81 71 97 120q4 24 -15 41.5t-44 17.5q-8 0 -33 -16z" />
    <glyph glyph-name="quotedblbase" unicode="&#x201e;" horiz-adv-x="400" 
d="M234 22q-2 2 -5 4q30 29 87 85q43 -22 45 -73q1 -11 0 -21q-5 -79 -125 -160q-3 0 -7 2q81 71 97 120q4 24 -15 41.5t-44 17.5q-8 0 -33 -16zM34 22q-2 2 -5 4q30 29 87 85q43 -22 45 -73q1 -11 0 -21q-5 -79 -125 -160q-3 0 -7 2q81 71 97 120q4 24 -15 41.5t-44 17.5
q-8 0 -33 -16z" />
    <glyph glyph-name="perthousand" unicode="&#x2030;" horiz-adv-x="14" 
 />
    <glyph glyph-name="Acircumflex" unicode="&#xc2;" horiz-adv-x="576" 
d="M584 164q-33 -46 -98 -103q-77 -67 -117 -67q-60 0 -60 71l1 447q3 1 50 24v-468q0 -48 33 -48q51 0 187 152q2 -3 4 -8zM515 557q0 -65 -44 -136q-40 -65 -98 -107l-2 4q55 61 70 85q30 49 30 107t-44.5 106t-102.5 48q-121 0 -199 -168q-64 -137 -64 -276
q0 -75 28 -120q34 -55 104 -55q54 0 97 45l1 4l1 -7q-80 -91 -142 -91q-69 0 -111 79q-35 66 -35 142q0 157 101 304q115 167 274 167q58 0 97 -36.5t39 -94.5zM295 282q-3 -10 -34 -10q-41 0 -67 23.5t-26 63.5q0 47 36 69q-2 -9 -2 -20q0 -43 25 -80q27 -40 68 -46z
M342 758zM350 799h-16l-96 -85l6 -9l98 53q27 -14 97 -53l7 9q-48 43 -96 85z" />
    <glyph glyph-name="Ecircumflex" unicode="&#xca;" horiz-adv-x="577" 
d="M515 642q-43 -39 -90 -39q-36 0 -94.5 35.5t-76.5 35.5q-10 0 -39 -9q-44 -14 -72 -61t-28 -95q0 -41 24 -76q26 -40 65 -40q44 0 44 24q0 14 -21 14q-14 0 -27 -6q-18 -11 -24 -12l-5 1v6q35 21 58 21q32 0 32 -21q0 -18 -25 -29q-19 -8 -40 -8q-51 0 -92 34
q-44 36 -44 86q0 78 69 133q64 52 144 52q34 0 98.5 -22t97.5 -22q8 0 23.5 2t22.5 2v-6zM473 78q-77 -94 -230 -94q-108 0 -171 52.5t-63 132.5q0 65 38 119q27 39 91 90l8 -11q-87 -82 -87 -159q0 -108 85 -172q50 -38 105 -38q75 0 144 61.5t69 135.5q0 83 -69 122
q-21 12 -45 12q-43 0 -73 -33t-30 -76q0 -55 66 -80q-10 -12 -36 -12q-34 0 -55 20t-20 54q1 62 48 101q44 37 107 37q65 0 110 -48t45 -113q0 -56 -37 -101zM292 768zM300 809h-16l-96 -85l6 -9l98 53q27 -14 97 -53l7 9q-48 43 -96 85z" />
    <glyph glyph-name="Aacute" unicode="&#xc1;" horiz-adv-x="576" 
d="M584 164q-33 -46 -98 -103q-77 -67 -117 -67q-60 0 -60 71l1 447q3 1 50 24v-468q0 -48 33 -48q51 0 187 152q2 -3 4 -8zM515 557q0 -65 -44 -136q-40 -65 -98 -107l-2 4q55 61 70 85q30 49 30 107t-44.5 106t-102.5 48q-121 0 -199 -168q-64 -137 -64 -276
q0 -75 28 -120q34 -55 104 -55q54 0 97 45l1 4l1 -7q-80 -91 -142 -91q-69 0 -111 79q-35 66 -35 142q0 157 101 304q115 167 274 167q58 0 97 -36.5t39 -94.5zM295 282q-3 -10 -34 -10q-41 0 -67 23.5t-26 63.5q0 47 36 69q-2 -9 -2 -20q0 -43 25 -80q27 -40 68 -46z
M241 739q58 21 150 65q8 4 17 4q3 -1 15 -6l3 -24q-6 -7 -12 -15l-168 -38q-1 4 -3 13q-1 0 -2 1z" />
    <glyph glyph-name="Edieresis" unicode="&#xcb;" horiz-adv-x="577" 
d="M515 642q-43 -39 -90 -39q-36 0 -94.5 35.5t-76.5 35.5q-10 0 -39 -9q-44 -14 -72 -61t-28 -95q0 -41 24 -76q26 -40 65 -40q44 0 44 24q0 14 -21 14q-14 0 -27 -6q-18 -11 -24 -12l-5 1v6q35 21 58 21q32 0 32 -21q0 -18 -25 -29q-19 -8 -40 -8q-51 0 -92 34
q-44 36 -44 86q0 78 69 133q64 52 144 52q34 0 98.5 -22t97.5 -22q8 0 23.5 2t22.5 2v-6zM473 78q-77 -94 -230 -94q-108 0 -171 52.5t-63 132.5q0 65 38 119q27 39 91 90l8 -11q-87 -82 -87 -159q0 -108 85 -172q50 -38 105 -38q75 0 144 61.5t69 135.5q0 83 -69 122
q-21 12 -45 12q-43 0 -73 -33t-30 -76q0 -55 66 -80q-10 -12 -36 -12q-34 0 -55 20t-20 54q1 62 48 101q44 37 107 37q65 0 110 -48t45 -113q0 -56 -37 -101zM340 762q0 33 35 33q34 0 34 -33t-34 -33q-35 0 -35 33zM200 762q0 33 35 33q34 0 34 -33t-34 -33q-35 0 -35 33z
" />
    <glyph glyph-name="Egrave" unicode="&#xc8;" horiz-adv-x="577" 
d="M515 642q-43 -39 -90 -39q-36 0 -94.5 35.5t-76.5 35.5q-10 0 -39 -9q-44 -14 -72 -61t-28 -95q0 -41 24 -76q26 -40 65 -40q44 0 44 24q0 14 -21 14q-14 0 -27 -6q-18 -11 -24 -12l-5 1v6q35 21 58 21q32 0 32 -21q0 -18 -25 -29q-19 -8 -40 -8q-51 0 -92 34
q-44 36 -44 86q0 78 69 133q64 52 144 52q34 0 98.5 -22t97.5 -22q8 0 23.5 2t22.5 2v-6zM473 78q-77 -94 -230 -94q-108 0 -171 52.5t-63 132.5q0 65 38 119q27 39 91 90l8 -11q-87 -82 -87 -159q0 -108 85 -172q50 -38 105 -38q75 0 144 61.5t69 135.5q0 83 -69 122
q-21 12 -45 12q-43 0 -73 -33t-30 -76q0 -55 66 -80q-10 -12 -36 -12q-34 0 -55 20t-20 54q1 62 48 101q44 37 107 37q65 0 110 -48t45 -113q0 -56 -37 -101zM378 739q-58 21 -150 65q-8 4 -17 4q-3 -1 -15 -6l-3 -24q6 -7 12 -15l168 -38q0 4 3 13q1 0 2 1z" />
    <glyph glyph-name="Iacute" unicode="&#xcd;" horiz-adv-x="369" 
d="M362 430q0 -18 -26.5 -60.5t-42.5 -54.5q-7 8 -7 12q0 3 16.5 19.5t16.5 17.5q18 23 23 37q1 13 11 36h5q4 -3 4 -7zM351 689l-4 -7q-43 -17 -64 -83q-16 -50 -16 -110q0 -50 12 -148t12 -148q0 -80 -43 -141q-48 -69 -125 -69q-37 0 -74 17q-42 19 -56 49q15 15 49 38
q31 -93 82 -93q63 0 93 61q24 46 24 116q0 47 -12 141t-12 141q0 118 82 205l16 17l-20 -5q-90 -33 -147 -98q-63 -71 -63 -161q0 -49 23 -92q28 -51 72 -51l39 11l5 -4q-9 -19 -65 -19q-59 0 -92.5 37.5t-33.5 97.5q0 98 109.5 199t208.5 99zM181 739q58 21 150 65
q8 4 17 4q3 -1 15 -6l3 -24q-6 -7 -12 -15l-168 -38q-1 4 -3 13q-1 0 -2 1z" />
    <glyph glyph-name="Icircumflex" unicode="&#xce;" horiz-adv-x="365" 
d="M362 430q0 -18 -26.5 -60.5t-42.5 -54.5q-7 8 -7 12q0 3 16.5 19.5t16.5 17.5q18 23 23 37q1 13 11 36h5q4 -3 4 -7zM351 689l-4 -7q-43 -17 -64 -83q-16 -50 -16 -110q0 -50 12 -148t12 -148q0 -80 -43 -141q-48 -69 -125 -69q-37 0 -74 17q-42 19 -56 49q15 15 49 38
q31 -93 82 -93q63 0 93 61q24 46 24 116q0 47 -12 141t-12 141q0 118 82 205l16 17l-20 -5q-90 -33 -147 -98q-63 -71 -63 -161q0 -49 23 -92q28 -51 72 -51l39 11l5 -4q-9 -19 -65 -19q-59 0 -92.5 37.5t-33.5 97.5q0 98 109.5 199t208.5 99zM242 758zM250 799h-16l-96 -85
l6 -9l98 53q27 -14 97 -53l7 9q-48 43 -96 85z" />
    <glyph glyph-name="Idieresis" unicode="&#xcf;" horiz-adv-x="365" 
d="M362 430q0 -18 -26.5 -60.5t-42.5 -54.5q-7 8 -7 12q0 3 16.5 19.5t16.5 17.5q18 23 23 37q1 13 11 36h5q4 -3 4 -7zM351 689l-4 -7q-43 -17 -64 -83q-16 -50 -16 -110q0 -50 12 -148t12 -148q0 -80 -43 -141q-48 -69 -125 -69q-37 0 -74 17q-42 19 -56 49q15 15 49 38
q31 -93 82 -93q63 0 93 61q24 46 24 116q0 47 -12 141t-12 141q0 118 82 205l16 17l-20 -5q-90 -33 -147 -98q-63 -71 -63 -161q0 -49 23 -92q28 -51 72 -51l39 11l5 -4q-9 -19 -65 -19q-59 0 -92.5 37.5t-33.5 97.5q0 98 109.5 199t208.5 99zM280 762q0 33 35 33
q34 0 34 -33t-34 -33q-35 0 -35 33zM140 762q0 33 35 33q34 0 34 -33t-34 -33q-35 0 -35 33z" />
    <glyph glyph-name="Igrave" unicode="&#xcc;" horiz-adv-x="365" 
d="M362 430q0 -18 -26.5 -60.5t-42.5 -54.5q-7 8 -7 12q0 3 16.5 19.5t16.5 17.5q18 23 23 37q1 13 11 36h5q4 -3 4 -7zM351 689l-4 -7q-43 -17 -64 -83q-16 -50 -16 -110q0 -50 12 -148t12 -148q0 -80 -43 -141q-48 -69 -125 -69q-37 0 -74 17q-42 19 -56 49q15 15 49 38
q31 -93 82 -93q63 0 93 61q24 46 24 116q0 47 -12 141t-12 141q0 118 82 205l16 17l-20 -5q-90 -33 -147 -98q-63 -71 -63 -161q0 -49 23 -92q28 -51 72 -51l39 11l5 -4q-9 -19 -65 -19q-59 0 -92.5 37.5t-33.5 97.5q0 98 109.5 199t208.5 99zM328 729q-58 21 -150 65
q-8 4 -17 4q-3 -1 -15 -6l-3 -24q6 -7 12 -15l168 -38q0 4 3 13q1 0 2 1z" />
    <glyph glyph-name="Oacute" unicode="&#xd3;" horiz-adv-x="478" 
d="M421 345q0 -125 -48 -228q-62 -132 -171 -132q-100 0 -153 103q-40 78 -43 192q-5 188 105 355h6v-6l-31 -66q-33 -70 -33 -202q0 -118 37 -214q50 -130 149 -130q79 0 127 113q39 91 39 182t-40 198q-50 133 -125 133q-47 0 -76 -57q-23 -46 -23 -101q0 -47 22 -86
q27 -46 70 -46q25 0 64 32v-7q0 -25 -29.5 -48t-54.5 -23q-45 0 -71 44q-22 37 -22 85q0 82 37 159q46 95 116 95q81 0 121 -139q27 -94 27 -206zM151 739q58 21 150 65q8 4 17 4q3 -1 15 -6l3 -24q-6 -7 -12 -15l-168 -38q-1 4 -3 13q-1 0 -2 1z" />
    <glyph glyph-name="Ocircumflex" unicode="&#xd4;" horiz-adv-x="480" 
d="M421 345q0 -125 -48 -228q-62 -132 -171 -132q-100 0 -153 103q-40 78 -43 192q-5 188 105 355h6v-6l-31 -66q-33 -70 -33 -202q0 -118 37 -214q50 -130 149 -130q79 0 127 113q39 91 39 182t-40 198q-50 133 -125 133q-47 0 -76 -57q-23 -46 -23 -101q0 -47 22 -86
q27 -46 70 -46q25 0 64 32v-7q0 -25 -29.5 -48t-54.5 -23q-45 0 -71 44q-22 37 -22 85q0 82 37 159q46 95 116 95q81 0 121 -139q27 -94 27 -206zM232 758zM240 799h-16l-96 -85l6 -9l98 53q27 -14 97 -53l7 9q-48 43 -96 85z" />
    <glyph glyph-name="Ograve" unicode="&#xd2;" horiz-adv-x="480" 
d="M421 345q0 -125 -48 -228q-62 -132 -171 -132q-100 0 -153 103q-40 78 -43 192q-5 188 105 355h6v-6l-31 -66q-33 -70 -33 -202q0 -118 37 -214q50 -130 149 -130q79 0 127 113q39 91 39 182t-40 198q-50 133 -125 133q-47 0 -76 -57q-23 -46 -23 -101q0 -47 22 -86
q27 -46 70 -46q25 0 64 32v-7q0 -25 -29.5 -48t-54.5 -23q-45 0 -71 44q-22 37 -22 85q0 82 37 159q46 95 116 95q81 0 121 -139q27 -94 27 -206zM328 729q-58 21 -150 65q-8 4 -17 4q-3 -1 -15 -6l-3 -24q6 -7 12 -15l168 -38q0 4 3 13q1 0 2 1z" />
    <glyph glyph-name="Uacute" unicode="&#xda;" horiz-adv-x="784" 
d="M789 160q0 -11 -47 -74q-77 -102 -139 -102q-32 0 -49 32q-14 25 -14 60v488h50v-452q0 -97 48 -97q38 0 89 67q19 27 59 82q3 -3 3 -4zM531 58q-7 -11 -35 -33t-41 -27q-33 -12 -53 -12q-136 0 -136 129q0 48 54.5 162t54.5 175q0 84 -49.5 135.5t-133.5 51.5
q-69 0 -117 -57t-48 -127q0 -65 35 -116q40 -56 103 -56q38 0 65.5 26.5t27.5 64.5q0 34 -20.5 63.5t-53.5 29.5q-10 0 -30 -6q7 16 26.5 28.5t37.5 12.5q30 0 46 -23.5t16 -54.5q0 -70 -44 -124q-47 -57 -116 -57q-14 0 -38 10q-40 17 -62 62q-19 39 -19 87q0 99 66 185
q72 93 168 93q86 0 142 -71q52 -65 52 -154q0 -64 -58.5 -185t-58.5 -182q0 -37 20 -65q22 -31 58 -31q75 0 135 72q8 -2 6 -6zM341 739q58 21 150 65q8 4 17 4q3 -1 15 -6l3 -24q-6 -7 -12 -15l-168 -38q-1 4 -3 13q-1 0 -2 1z" />
    <glyph glyph-name="Ucircumflex" unicode="&#xdb;" horiz-adv-x="779" 
d="M789 160q0 -11 -47 -74q-77 -102 -139 -102q-32 0 -49 32q-14 25 -14 60v488h50v-452q0 -97 48 -97q38 0 89 67q19 27 59 82q3 -3 3 -4zM531 58q-7 -11 -35 -33t-41 -27q-33 -12 -53 -12q-136 0 -136 129q0 48 54.5 162t54.5 175q0 84 -49.5 135.5t-133.5 51.5
q-69 0 -117 -57t-48 -127q0 -65 35 -116q40 -56 103 -56q38 0 65.5 26.5t27.5 64.5q0 34 -20.5 63.5t-53.5 29.5q-10 0 -30 -6q7 16 26.5 28.5t37.5 12.5q30 0 46 -23.5t16 -54.5q0 -70 -44 -124q-47 -57 -116 -57q-14 0 -38 10q-40 17 -62 62q-19 39 -19 87q0 99 66 185
q72 93 168 93q86 0 142 -71q52 -65 52 -154q0 -64 -58.5 -185t-58.5 -182q0 -37 20 -65q22 -31 58 -31q75 0 135 72q8 -2 6 -6zM442 738zM450 779h-16l-96 -85l6 -9l98 53q27 -14 97 -53l7 9q-48 43 -96 85z" />
    <glyph glyph-name="Ugrave" unicode="&#xd9;" horiz-adv-x="779" 
d="M789 160q0 -11 -47 -74q-77 -102 -139 -102q-32 0 -49 32q-14 25 -14 60v488h50v-452q0 -97 48 -97q38 0 89 67q19 27 59 82q3 -3 3 -4zM531 58q-7 -11 -35 -33t-41 -27q-33 -12 -53 -12q-136 0 -136 129q0 48 54.5 162t54.5 175q0 84 -49.5 135.5t-133.5 51.5
q-69 0 -117 -57t-48 -127q0 -65 35 -116q40 -56 103 -56q38 0 65.5 26.5t27.5 64.5q0 34 -20.5 63.5t-53.5 29.5q-10 0 -30 -6q7 16 26.5 28.5t37.5 12.5q30 0 46 -23.5t16 -54.5q0 -70 -44 -124q-47 -57 -116 -57q-14 0 -38 10q-40 17 -62 62q-19 39 -19 87q0 99 66 185
q72 93 168 93q86 0 142 -71q52 -65 52 -154q0 -64 -58.5 -185t-58.5 -182q0 -37 20 -65q22 -31 58 -31q75 0 135 72q8 -2 6 -6zM518 719q-58 21 -150 65q-8 4 -17 4q-3 -1 -15 -6l-3 -24q6 -7 12 -15l168 -38q0 4 3 13q1 0 2 1z" />
    <glyph glyph-name="circumflex" unicode="&#x2c6;" horiz-adv-x="262" 
d="M132 338zM140 379h-16l-96 -85l6 -9l98 53q27 -14 97 -53l7 9q-48 43 -96 85z" />
    <glyph glyph-name="tilde" unicode="&#x2dc;" horiz-adv-x="223" 
d="M221 357q-27 -62 -89 -62q-19 0 -43 10.5t-45 10.5q-16 0 -27 -9l-10 -10l-3 2q9 22 32.5 40.5t44.5 15.5q14 -2 43 -14t38 -12q5 0 11 2q17 4 42 31q7 -4 6 -5z" />
    <glyph glyph-name="macron" unicode="&#xaf;" horiz-adv-x="302" 
d="M79 299l2 19h146l-1 -19h-147z" />
    <glyph glyph-name="macron" unicode="&#x2c9;" horiz-adv-x="302" 
d="M79 299l2 19h146l-1 -19h-147z" />
    <glyph glyph-name="cedilla" unicode="&#xb8;" horiz-adv-x="223" 
d="M86 -62h10q20 0 32.5 -18.5t12.5 -39.5q0 -50 -55 -50q-14 0 -33 5q-5 1 -16 11l-15 -16q29 -26 68 -26q34 0 63.5 20t31.5 52q3 34 -19 55.5t-56 25.5l8 45h-24z" />
    <glyph glyph-name="Scaron" unicode="&#x160;" 
 />
    <glyph glyph-name="scaron" unicode="&#x161;" 
 />
    <glyph glyph-name="brokenbar" unicode="&#xa6;" 
 />
    <glyph glyph-name="Eth" unicode="&#xd0;" horiz-adv-x="80" 
 />
    <glyph glyph-name="eth" unicode="&#xf0;" 
 />
    <glyph glyph-name="Yacute" unicode="&#xdd;" 
 />
    <glyph glyph-name="Thorn" unicode="&#xde;" 
 />
    <glyph glyph-name="thorn" unicode="&#xfe;" 
 />
    <glyph glyph-name="minus" unicode="&#xad;" 
 />
    <glyph glyph-name="minus" unicode="&#x2212;" 
 />
    <glyph glyph-name="onesuperior" unicode="&#xb9;" 
 />
    <glyph glyph-name="twosuperior" unicode="&#xb2;" 
 />
    <glyph glyph-name="threesuperior" unicode="&#xb3;" 
 />
    <glyph glyph-name="onehalf" unicode="&#xbd;" 
 />
    <glyph glyph-name="onequarter" unicode="&#xbc;" 
 />
    <glyph glyph-name="threequarters" unicode="&#xbe;" 
 />
    <glyph glyph-name="Lslash" unicode="&#x141;" 
 />
    <glyph glyph-name="lslash" unicode="&#x142;" 
 />
    <glyph glyph-name="HT" horiz-adv-x="171" 
 />
    <glyph glyph-name="LF" 
 />
    <glyph glyph-name="nonmarkingreturn" horiz-adv-x="171" 
 />
    <glyph glyph-name="Zcaron" unicode="&#x17d;" 
 />
    <glyph glyph-name="zcaron" unicode="&#x17e;" 
 />
    <glyph glyph-name="DLE" horiz-adv-x="1339" 
 />
    <glyph glyph-name="DC1" 
 />
    <glyph glyph-name="DC2" 
 />
    <glyph glyph-name="DC3" 
 />
    <glyph glyph-name="DC4" 
 />
    <glyph glyph-name="RS" 
 />
    <glyph glyph-name="US" 
 />
    <glyph glyph-name="notequal" unicode="&#x2260;" horiz-adv-x="17" 
 />
    <glyph glyph-name="infinity" unicode="&#x221e;" 
 />
    <glyph glyph-name="lessequal" unicode="&#x2264;" 
 />
    <glyph glyph-name="greaterequal" unicode="&#x2265;" 
 />
    <glyph glyph-name="partialdiff" unicode="&#x2202;" horiz-adv-x="249" 
d="M-31 211l63 28v224q0 69 26 132q32 75 87 96q21 8 35 8q71 0 71 -92q0 -64 -53 -164q-47 -90 -100 -143l-4 4q113 149 113 288q0 97 -36 97q-23 0 -45 -30q-43 -60 -43 -202v-196l102 45l9 -18l-111 -48v-188q7 -35 23 -35q27 0 78 61q35 42 50 68q4 9 15 30q6 2 10 2
t4 -3q-3 -6 -17.5 -33.5t-74.5 -94.5q-13 -15 -42 -37q-32 -25 -49 -25q-48 0 -48 61v172l-57 -25z" />
    <glyph glyph-name="summation" unicode="&#x2211;" horiz-adv-x="513" 
d="M451 204q0 -41 -24 -87q-71 -136 -227 -136q-71 0 -128 30q-71 37 -71 101t54 110q51 44 116 44q40 0 71 -18q38 -22 38 -59q0 -30 -22.5 -48t-52.5 -17q22 25 22 57q0 75 -62 75q-52 0 -83 -30.5t-31 -82.5q0 -41 26.5 -83.5t64.5 -58.5q21 -9 60 -9q85 0 144 42
q66 47 66 129q0 90 -101 147q-64 27 -190 85q-101 49 -101 134q0 61 62 111q59 47 121 47q28 0 81.5 -17t81.5 -17q33 0 62 15q-4 -16 -19 -31q-34 -35 -92 -35q-29 0 -90.5 22.5t-91.5 22.5q-34 0 -58.5 -23.5t-24.5 -57.5q0 -77 104 -127q31 -15 192 -87q103 -58 103 -148
zM242 766zM234 725h16l96 85l-6 9l-98 -53q-27 14 -97 53l-7 -9q48 -42 96 -85z" />
    <glyph glyph-name="product" unicode="&#x220f;" horiz-adv-x="327" 
d="M365 180q0 -2 -19 -28q-56 -77 -117 -113q-19 -11 -27 -11q-2 0 -2.5 1t-2.5 1q-1 0 -19.5 -11.5t-23.5 -13.5q-22 -11 -57 -11q-71 0 -98 47l58 73q9 0 9 -6q0 -2 -8.5 -13.5t-8.5 -14.5q0 -17 22.5 -46.5t38.5 -29.5q38 0 58 29q18 26 18 65q0 42 -31.5 75.5
t-73.5 33.5q-19 0 -31 -7q-4 -7 -7 -7q-4 0 -4 5q0 3 2 8q23 33 63 96q6 0 6 -4q0 -11 -11 -29q3 -4 14 -7q117 -33 117 -133q0 -40 -24 -86q1 -1 4 -1q5 2 24 14q62 38 119 124q1 -1 7 1q5 2 5 -1zM162 346zM154 305h16l96 85l-6 9l-98 -53q-27 14 -97 53l-7 -9
q48 -42 96 -85z" />
    <glyph glyph-name="pi" unicode="&#x3c0;" horiz-adv-x="633" 
d="M500 288q-62 -127 -135 -127q-33 0 -54 27q-20 24 -20 58q0 33 37.5 117t37.5 134q0 63 -40 107t-103 44q-76 0 -131.5 -61.5t-55.5 -138.5q0 -54 30 -93q33 -44 85 -44q34 0 63.5 35t29.5 70q0 73 -74 73q-10 0 -22 -2q3 16 24.5 29.5t38.5 13.5q28 0 43 -24
q13 -20 13 -49q0 -67 -51 -120.5t-118 -53.5q-46 0 -72 34q-24 31 -24 79q0 107 77 193t183 86q64 0 104 -36t40 -99q0 -46 -42.5 -130.5t-42.5 -112.5q0 -36 23.5 -65t58.5 -29q33 0 55 29q7 12 33 57l7 12zM568 221q0 -96 -55 -163q-60 -72 -154 -68q-36 1 -80 20
q-53 23 -56 51l39 34q55 -95 116 -95q68 0 108 67q34 57 34 130q0 40 -10 120t-10 120q0 44 11 87q13 53 38 76l2 -4q-20 -44 -20 -99q0 -47 18.5 -138t18.5 -138zM413 664l-7 9l89 88q7 7 23 4q14 -3 15 -17q2 -4 -1 -13.5t-8 -11t-111 -59.5z" />
    <glyph glyph-name="integral" unicode="&#x222b;" horiz-adv-x="425" 
d="M455 174q-90 -126 -149 -171q-5 5 -5 8q36 37 98 108q16 22 49 65q1 0 3.5 -1t3.5 -1v-8zM223 82q-2 -2 -14 -17q-21 -28 -54 -51q-39 -29 -67 -29q-58 0 -58 110v152h54v-131q0 -107 34 -107q17 0 56 36q33 30 41 45h8v-8zM291 -168q1 -60 -48 -103q-41 -37 -93 -37
q-62 0 -117 62q-16 18 -16 30q0 8 33 28q9 6 44 23h8v-7q-3 -2 -23 -16q-1 -10 0 -14q23 -97 71 -97q38 0 63 34q23 30 23 70v439h51zM104 285l-6 9l88 88q9 7 24 4q14 -2 14 -17q3 -3 0 -12q-4 -11 -9 -12.5t-111 -59.5z" />
    <glyph glyph-name="Omega" unicode="&#x3a9;" horiz-adv-x="533" 
d="M130 222h209l5 16l-215 -1v10q0 37 2 52l209 -1l5 17h-212q16 86 64 140q55 60 138 60q36 0 64 -19q39 -27 39 -57q0 -29 -31 -57q6 -1 13 -1q55 0 55 53q0 29 -13 44q-43 51 -127 51q-98 0 -171.5 -59.5t-93.5 -154.5h-67l-6 -16h71q-3 -23 -2 -62h-63l-6 -15h70
q10 -101 83.5 -170.5t174.5 -69.5h19q87 0 134 53q17 19 17 47q0 57 -64 57q-5 0 -10 -1q38 -35 38 -58q0 -83 -131 -85q-84 -1 -140 72q-49 64 -58 155z" />
    <glyph glyph-name="Omega" unicode="&#x2126;" horiz-adv-x="533" 
d="M130 222h209l5 16l-215 -1v10q0 37 2 52l209 -1l5 17h-212q16 86 64 140q55 60 138 60q36 0 64 -19q39 -27 39 -57q0 -29 -31 -57q6 -1 13 -1q55 0 55 53q0 29 -13 44q-43 51 -127 51q-98 0 -171.5 -59.5t-93.5 -154.5h-67l-6 -16h71q-3 -23 -2 -62h-63l-6 -15h70
q10 -101 83.5 -170.5t174.5 -69.5h19q87 0 134 53q17 19 17 47q0 57 -64 57q-5 0 -10 -1q38 -35 38 -58q0 -83 -131 -85q-84 -1 -140 72q-49 64 -58 155z" />
    <glyph glyph-name="radical" unicode="&#x221a;" 
 />
    <glyph glyph-name="approxequal" unicode="&#x2248;" 
 />
    <glyph glyph-name="approxequal" unicode="&#x22f2;" 
 />
    <glyph glyph-name="Delta" unicode="&#x394;" 
 />
    <glyph glyph-name="Delta" unicode="&#x2206;" 
 />
    <glyph glyph-name="lozenge" unicode="&#x25ca;" horiz-adv-x="277" 
d="M59 209l66 105l65 -105l-65 -106z" />
    <glyph glyph-name="fraction" unicode="&#x2044;" horiz-adv-x="11" 
 />
    <glyph glyph-name="fi" unicode="&#xf001;" horiz-adv-x="14" 
 />
    <glyph glyph-name="fl" unicode="&#xf002;" horiz-adv-x="17" 
 />
    <glyph glyph-name="apple" unicode="&#xf000;" horiz-adv-x="15" 
 />
    <glyph glyph-name="dotlessi" unicode="&#x131;" horiz-adv-x="218" 
d="M252 177q0 4 -24 -31q-20 -31 -63 -92q-43 -57 -87 -57q-45 0 -45 40v213h53v-186q0 -35 20 -35q29 0 80.5 76t54.5 76q11 0 11 -4z" />
    <glyph glyph-name="breve" unicode="&#x2d8;" horiz-adv-x="296" 
d="M237 371q0 -33 -31 -51q-26 -16 -61 -16t-61 16q-32 18 -32 51h15q0 -45 79 -45q76 0 76 45h15z" />
    <glyph glyph-name="dotaccent" unicode="&#x2d9;" horiz-adv-x="186" 
d="M56 349q0 16 10.5 27t26.5 11t27 -11t11 -27t-11 -26.5t-27 -10.5q-15 0 -26 11t-11 26z" />
    <glyph glyph-name="ring" unicode="&#x2da;" horiz-adv-x="245" 
d="M158 435q27 0 46 -19t19 -46t-19 -45.5t-46 -18.5t-46.5 18.5t-19.5 45.5q0 28 19 46.5t47 18.5zM158 415q-19 0 -32.5 -13t-13.5 -32t13.5 -31.5t32.5 -12.5t32 12.5t13 31.5t-13 32t-32 13z" />
    <glyph glyph-name="hungarumlaut" unicode="&#x2dd;" horiz-adv-x="500" 
d="M389 347l114 101q10 9 20 9q12 0 12 -17q0 -21 -47 -53q-12 -8 -51 -29q-42 -22 -48 -22q-5 0 -5 5q1 2 5 6zM502 345l112 100q3 3 21 3q11 0 11 -12q0 -17 -14 -29q-45 -38 -101 -59q-2 -1 -28 -12q-4 0 -4 4q0 3 3 5z" />
    <glyph glyph-name="ogonek" unicode="&#x2db;" horiz-adv-x="259" 
d="M185 0h10l-9 -9q-82 -82 -82 -133q0 -25 7 -25q13 0 23 12l40 50l18 -6q-54 -73 -88 -73q-15 0 -28 12.5t-13 27.5q0 37 45 83q35 37 77 61z" />
    <glyph glyph-name="caron" unicode="&#x2c7;" horiz-adv-x="201" 
d="M132 466zM124 425h16l96 85l-6 9l-98 -53q-27 14 -97 53l-7 -9q48 -42 96 -85z" />
    </font>
</defs>
</svg>
