<svg xmlns="http://www.w3.org/2000/svg" width="200" height="200" viewBox="0 0 600 600">
    <g fill="green" fill-rule="nonzero" stroke="black" stroke-linejoin="round" stroke-width="5">
        <path fill="burlywood" d="M 100 120 a 20 20 0 0 1 20 -20 h 360 a 20 20 0 0 1 20 20 v 360 a 20 20 0 0 1 -20 20 h -360 a 20 20 0 0 1 -20 -20 v -360 z
                 M 140 160 v 280 l 80 -80 a 100 100 0 0 0 0 -120 l -80 -80 z
                 M 160 460 h 280 l -80 -80 a 100 100 0 0 0 -120 0 l -80 80 z
                 M 460 440 v -280 l -80 80 a 100 100 0 0 0 0 120 l 80 80 z
                 M 440 140 h -280 l 80 80 a 100 100 0 0 0 120 0 l 80 -80 z
                 M 280 300 a 20 20 0 1 0 40 0 a 20 20 0 1 0 -40 0 z"/>
        <path d="M 290 100 h -30 a 20 20 0 1 0 -40 0 a 80 80 0 0 0 160 0 a 20 20 0 1 0 -40 0 h -30 a 40 40 0 0 1 100 0 a 80 80 0 0 1 -220 0 a 40 40 0 0 1 100 0 z
                 M 100 310 v 30 a 20 20 0 1 0 0 40 a 80 80 0 0 0 0 -160 a 20 20 0 1 0 0 40 v 30 a 40 40 0 0 1 0 -100 a 80 80 0 0 1 0 220 a 40 40 0 0 1 0 -100 z
                 M 310 500 h 30 a 20 20 0 1 0 40 0 a 80 80 0 0 0 -160 0 a 20 20 0 1 0 40 0 h 30 a 40 40 0 0 1 -100 0 a 40 40 0 0 1 220 0 a 40 40 0 0 1 -100 0 z
                 M 500 290 v -30 a 20 20 0 1 0 0 -40 a 80 80 0 0 0 0 160 a 20 20 0 1 0 0 -40 v -30 a 40 40 0 0 1 0 100 a 40 40 0 0 1 0 -220 a 40 40 0 0 1 0 100 z"/>
        <path d="M 290 140 h -30 v 30 a 120 120 0 0 1 -20 50 l 30 15 a 120 120 0 0 0 20 -60 v -35 z m 20 0 v 35 a 120 120 0 0 0 20 60 l 30 -15 a 120 120 0 0 1 -20 -50 v -30 h -30 z
                 M 140 310 v 30 h 30 a 120 120 0 0 1 50 20 l 15 -30 a 120 120 0 0 0 -60 -20 h -35 z m 0 -20 h 35 a 120 120 0 0 0 60 -20 l -15 -30 a 120 120 0 0 1 -50 20 h -30 v 30 z
                 M 310 460 h 30 v -30 a 120 120 0 0 1 20 -50 l -30 -15 a 120 120 0 0 0 -20 60 v 35 z m -20 0 v -35 a 120 120 0 0 0 -20 -60 l -30 15 a 120 120 0 0 1 20 50 v 30 h 30 z
                 M 460 290 v -30 h -30 a 120 120 0 0 1 -50 -20 l -15 30 a 120 120 0 0 0 60 20 h 35 z m 0 20 h -35 a 120 120 0 0 0 -60 20 l 15 30 a 120 120 0 0 1 50 -20 h 30 v -30 z"/>
    </g>
</svg>
