<svg xmlns="http://www.w3.org/2000/svg" xmlns:xlink="http://www.w3.org/1999/xlink" width="448" height="64" version="1.1" viewBox="0 0 3584 512">
    <symbol id="范" viewBox="0 0 512 512">
        <path d="M475 139l-2 -77v-25l-1 -11q-7 -25 -13 -31t-20.5 -12.5t-29.5 4.5t-18 21q8 15 13 17t10 1l9 -8q6 -5 11 -2t6.5 16t2.5 43l1 64l1 8l1 18l-1 4l2 39q0 7 -1.5 24.5t-4.5 24t-28 13.5l-41 10l-82 8l-49 1l-56 -1l-3 -118v-5l-1 -117l2 -42q1 -34 8 -35l21 -8l32 -5
l141 -2l81 1l-4 -29l-222 -1q-54 2 -72 21.5t-18.5 48.5t0.5 31l2 68v69l3 71l-4 67q-1 3 3 6t36 5l53 2l54 -3l48 -3l49 -5q56 -6 69.5 -24t14.5 -37t1 -20l-3 -55zM242 338l-58 2l-81 -4l2 -18l-29 -5l-3 20h-43l-2 33q9 -1 23 0t22 0l1 17l29 -1v-15l300 -4l5 17
q13 3 24 -2q3 -8 4 -9l1 -7l49 1l-4 -31l-45 2q0 -17 -2.5 -18.5t-13 -3t-17.5 5.5q2 8 2 10l-2 9zM23 208l5 29l70 -14l17 -2l-4 -27l-29 5zM30 280q0 15 2 19l4 12l37 -6l57 -13l-10 -32l-29 8zM35 -73l22 128l10 66l6 36l27 -7l-35 -226l-1 -4q-15 0 -29 7z" transform="matrix(1 0 0 -1 0 409)"/>
    </symbol>
    <symbol id="版" viewBox="0 0 512 512">
        <path d="M266 -32q-5 17 -7 27t-4.5 33t-0.5 76l4 182l-29 -5l-3 -352q-17 -5 -32 -1l-2 73l4 154l2 132l-1 51l-13 1v32l66 1l46 2h81l79 -2h25q-2 -16 -2.5 -22.5t-1.5 -9t-36 -0.5l-90 3l-101 -2l-5 -2q-16 14 -16 -15v-12l19 2l44 4h50l67 -4q48 -3 57.5 -17t10.5 -28l-1 -26
l-2 -79q-1 -50 -2 -90.5t-6 -59.5l-11 -45l32 -14l-13 -30q-18 6 -35 15q-14 -4 -31 -7.5t-170 6.5v33zM444 168l2 98q0 13 -35 17l-44 4l-68 1l-9 -1q-3 -57 -3.5 -86.5t-1 -69t0.5 -85.5q0 -34 5 -52t15 -26t44 -8q58 -1 69 10.5t15 43.5l8 67l2 87v0zM158 155
q4 -10 4.5 -13t0.5 -4q-1 -3 -2 -8t0 -8l4 -187q-9 -1 -20.5 -3t-11.5 7l-1 57l-1 104q-1 30 -2 35l-1 3l-45 -3l-22 -3l2 -96l2 -65q1 -39 -3.5 -41.5t-28.5 -2.5l-3 169v63l-1 167q0 44 1 45l12 1q12 1 14 -0.5t3 -29.5l2 -127l55 7l-2 149q26 5 29.5 0t2.5 -14.5t0 -37.5
v-19l2 -74l27 1q1 -8 2 -12v-4v-17l-114 -10v-19l59 3q15 0 37 -10z" transform="matrix(1 0 0 -1 0 409)"/>
    </symbol>
    <symbol id="西" viewBox="0 0 512 512">
        <path d="M39 143l-2 159l33 2l1 -15h8l61 7l1 40l-54 -6q-48 -6 -49 -4t0 6l2 25l83 8l140 5l127 1h82v-11v-20l-108 -1l-2 -42l45 -8q56 -11 60 -54l3 -39l-3 -57l9 -213l-35 -5l1 14l-199 -3l-156 -4q-6 -1 -19.5 -5t-27.5 0zM70 256v-113l1 -184l67 3l-6 75l-3 106l6 122
l-50 -6zM160 127l4 -114l6 -49l73 -2l57 2h29v10v168l1 130q-68 3 -80 2l-85 -7l-6 -124zM169 299q78 1 161 -1l1 40l-85 -1l-74 -2zM359 85l3 -121l79 3l-6 175l1 41q1 53 -6.5 60.5t-20.5 11.5l-26 7l-21 1l-2 -121z" transform="matrix(1 0 0 -1 0 409)"/>
    </symbol>
    <symbol id="幻" viewBox="0 0 512 512">
        <path d="M186 375h65h92l79 -4q23 -2 36.5 -13.5t15.5 -16t3 -25.5l2 -179l1 -122q0 -57 -19.5 -76t-47.5 -20q-29 -2 -46 3l-77 21l7 30q79 -24 115 -23q18 0 26.5 8.5t9.5 26t2 29.5l-5 162q8 112 1 134q-6 16 -15.5 24.5t-53.5 6.5h-50h-141v34zM154 175l-20 -4l-35 -10
q-7 -26 -17 -65.5t-13 -67.5t-4.5 -58t36.5 -10l49 25q-17 82 -32 160l29 8q22 -108 47 -220l-30 -7l-7 28l-53 -27q-31 -16 -49 0t-19 42.5t2 47.5q1 11 8 43l9 45l12 54q-10 0 -15.5 2t-12.5 10t-8 30.5t0.5 57.5t6.5 54l15 66l27 -4q-6 -37 -11 -65t-6 -39l-3 -45
q-3 -23 1 -29t9 -8.5t35 6.5l25 5q14 4 18.5 10.5t-1.5 40.5q-1 4 -3 32l-5 40l-2 25l27 5q3 -21 5 -31l7 -49q9 -52 4.5 -68t-8.5 -18l-18 -12v0z" transform="matrix(1 0 0 -1 0 409)"/>
    </symbol>
    <symbol id="设" viewBox="0 0 512 512">
        <path d="M448 -21q18 -10 38 -20l-14 -31q-28 12 -57 29q-26 -9 -57 -17t-175 -2l3 36l47 -4q-17 32 -20.5 51.5t-5.5 55.5l-3 45q-21 -4 -24 1t-2 15l1 16l69 7q115 7 164.5 -4.5t54.5 -29t6 -34t-2.5 -50t-9.5 -42.5l-13 -22v0zM266 -30q135 2 151 25t20 64.5t2 49.5
q-1 2 -2 3.5t-14 7.5l-13 6l-31 5l-78 2l-34 -3l-33 -4q0 -33 1 -54t5.5 -42t25.5 -60zM248 333l-27 -1l-1 -29l5 -88l3 -26q-5 -10 -16.5 -9t-13.5 3.5t-3 30.5l-5 86l1 66q0 5 0.5 6t23.5 2h5l2 -9l26 1l56 3l62 1q97 -3 102 -49v-14v-12l-8 -47q-2 -7 -1.5 -14.5
t3.5 -12.5l11 -13q3 -5 3.5 -9t-7.5 -11t-13.5 -7.5t-17.5 16.5t-11.5 30.5t2.5 25.5l6 35q1 8 0.5 19t-4.5 17.5t-28 10.5l-37 5l-70 -3zM136 -19l20 9q11 -8 11 -10l1 -15l-2 -4l-34 -20l-21 -8q-24 -9 -47 -13t-21 53l1 28q1 29 1 40.5t3 51t6 65.5t10 49t21.5 54.5
t34.5 57.5l-68 -1q-11 -1 -14 2t-3 14q0 9 1 12l3 8l48 -1l-2 21q-1 4 2 7.5t19 7t17 -10.5l1 -23h20q29 0 31 -2.5t4 -10.5t0 -15q-2 -6 -6 -9l-10 -7q-12 -9 -32.5 -38.5t-33 -71t-17.5 -94t-5 -71.5v-23l-1 -26q-1 -19 1 -23.5t8 -5.5q6 -2 25 8z" transform="matrix(1 0 0 -1 0 409)"/>
    </symbol>
    <symbol id="定" viewBox="0 0 512 512">
        <path d="M261 372q1 5 -1.5 10.5t-1.5 6.5q0 1 6.5 1.5t15 2t10.5 0.5l2 -10l3 -10l82 -2l61 -5q31 -3 35.5 -13.5t5.5 -27.5t0 -19q-4 -5 -29 -2q-1 8 -1.5 10.5t0 8t-2 8.5t-10.5 4l-46 5l-139 4l-5 -1l-113 -2l-69 -5h-6q-1 -9 0 -10l1 -20q-9 2 -10.5 0t-18.5 -1l-3 41
q-1 27 -0.5 27.5t6.5 1.5q20 2 21 0l2 -8l190 5h15zM250 287l155 -6q22 -1 73 -1v-29l-218 7l2 -91l-1 -5l-1 -80l193 -4q11 -1 15 -3t4 -6l-1 -3l-2 -20l-109 4h-89l-11 -1l-2 -86l97 -8l75 -4l35 -1q6 -7 5 -16l-1 -15q-101 2 -212 12q-94 6 -186 16q-1 -14 0.5 -21.5
t-1 -11.5t-26.5 3v10l-2 28l-3 53l-1 155l-3 67l-1 4q-2 9 4 10t27 -3l4 -94v-136l2 -30q35 -9 90 -13l67 -6l2 161l1 41l1 2l-1 92l-59 3l-134 -2q-3 15 -2 19l1 13h6l203 -3z" transform="matrix(1 0 0 -1 0 409)"/>
    </symbol>
    <symbol id="集" viewBox="0 0 512 512">
        <path d="M113 9l-17 -86l-31 7l15 79h-17q-21 -5 -23 -0.5t-1 12.5l2 20l216 4l4 1l23 2l-5 38l-131 -4q-42 -2 -65 -5v-12q-17 0 -31 -1v111l-3 78l-3 43l-13 -14l-20 22l73 87l24 -18l-7 -10l54 -4h98l5 -1l113 3l-10 26l29 10l18 -36l65 -2q2 -19 2 -24q-1 -3 -2.5 -6t-18.5 -1
l-46 3l-2 -40l62 -1q2 -1 5 -4l1 -16q0 -12 -1.5 -13.5t-15.5 0.5l-51 4l2 -58l44 -1h30q2 -4 1 -14l-2 -19l-71 4l2 -61l58 2l3 -32q-16 0 -38.5 1t-26.5 2l-99 2l4 -39l132 -6q22 -2 24 -4.5t2.5 -5t-1 -12.5t-3.5 -12.5t-15.5 0t-39.5 4.5l-77 3l-20 2l3 -15l98 -31
l53 -23l-12 -27l-109 41l-29 8q-8 -27 -27 -40.5t-76 -7t-95 21.5l9 28q52 -17 105 -19t52 27l-2 35l-26 -1zM78 328l1 -34l145 2l151 -1q1 16 1 21l-1 15l-59 -2l-56 -2h-5l-155 2zM80 215v-8l266 1l31 -3l-1 58l-31 2l-86 2l-180 -7zM83 175l1 -67l169 5h67h63l-4 61
l-118 1l-4 -1z" transform="matrix(1 0 0 -1 0 409)"/>
    </symbol>
    <use width="512" height="512" x="0" y="0" xlink:href="#范"/>
    <use width="512" height="512" x="512" y="0" xlink:href="#版"/>
    <use width="512" height="512" x="1024" y="0" xlink:href="#西"/>
    <use width="512" height="512" x="1536" y="0" xlink:href="#幻"/>
    <use width="512" height="512" x="2048" y="0" xlink:href="#设"/>
    <use width="512" height="512" x="2560" y="0" xlink:href="#定"/>
    <use width="512" height="512" x="3072" y="0" xlink:href="#集"/>
</svg>
