<svg xmlns="http://www.w3.org/2000/svg" width="892" height="550" viewBox="0 0 471.962 290.9">
   <path d="M78.45 290.816c-8.797-3.142-18.364 1.68-27.072-3.131-8.953-1.822-14.964-9.412-21.244-14.967-13.25-.068-29.6-8.831-28.618-23.786 2.548-9.184 6.481-15.665 1.366-24.872-2.869-12.082-1.706-28.961 12.68-32.79 8.65.578 10.197-12.305 20.039-10.264-5.026-5.984-12.141-10.334-16.218-16.989 3.659-4.816 24.226 2.966 15.376-6.758-5.985-3.761-6.179-12 2.624-10.836 10.056.868 19.948 7.072 29.827 5.669 13.01-6.48 5.734-6.412-2.723-12.742-12.204-.815-23.952 9.768-35.833 4.413-2.621-6.433 15.62-16.204-.068-14.15-10.935 2.986-14.215-3.423-3.97-9.466 4.183-4.39 13.659-10.045 3.211-10.231-6.682-2.435-8.709-10.652-16.886-9.509C-4.607 92.265-.691 71.173 4.963 57.764c-2.6-6.247-7.378-13.74-3.928-21.319 4.562-11.955 17.747-15.549 29.129-17.04C39.597 6.399 56.481.266 72.055 2.767c16.789-5.188 32.548 7.68 48.947 6.489-12.185 8.477 11.712 4.216 17.338 7.121 12.442 2.13-6.002-4.922-6.745-9.467-5.09-6.72 11.871 3.61 14.633.631 15.987 2.045 32.388-1.707 48.084.917 1.697 15.287 14.543-.248 25.881 4.303 4.652 3.553 15.943-5.07 16.31 3.703-3.125 5.51-9.615 13.179-4.932 19.258 4.56-.142 6.76 16.99 1.257 10.881-9.832-8.032-24.296-6.86-36.336-6.443-3.65-.24-24.814 4.506-14.167 3.25 8.81-4.073 14.316 9.345 22.394 2.903 8.917-6.9 16.973-.265 25.73 1.999 7.35 5.895 10.335-.356 19.241-1.259 6.835-7.987 16.338-2.447 24.064.724 2.935-5.34 24.872-4.889 18.042-5.366-15.576-4.26-33.365-4.874-48.17 2.08-2.616 5.071-7.218 3.885-4.891-1.656 2.955-7.187 9.073-13.218 2.4-20.968-1.596-3.067-6.996-6.496-.714-9.218 10.708 1.937 22.343-3.35 32.585 2.448 6.032 3.789.286-5.323 5.214-6.693 12.728-3.778 26.74.522 39.972-1.562 8.36.54 17.787-1.525 24.732-3.373-3.197 5.404-8.76 8.815-13.479 12.372 8.95-1.547 18.31-2.124 27.09-3.395-10.709-7.133 4.095-3.822 9.923-6.488 11.465-3.612 23.443-8.527 35.456-4.546 15.257-3.29 30.785 4.485 40.317 16.2 14.311-.467 32.24 10.039 28.754 26.44-4.19 7.69-4.849 13.905-.652 22.062 3.5 11.844 1.676 29.191-12.673 32.551-7.789-.63-8.65 10.562-16.884 9.954-7.508 2.262 27.898 21.128 4.981 18.773-19.088-3.054.35 7.648-2.973 14.091-8.02 4.96-17.034-1.417-25.549-2.487-8.368-4.103-13.363 3.027-20.724 5.721 7.264 5.38 14.574 7.84 23.305 3.685 7.043-1.167 18.715-8.413 23.005.074-5.427 7.196-12.176 15.127 2.886 12.07 15.382-1.553.152 9.388-4.155 14.12-9.286 5.256 10.318 9.316 14.223 14.299 14.07 1.888 18.306 18.99 14.74 30.88.868 6.05-8.193 12.988-1.039 17.558 7.009 12.103-1.352 28.184-14.521 30.757-8.608 1.374-15.398 3.749-20.609 11.098-9.127 7.533-21.717 10.272-33.147 8.405-16.764 6.224-32.371-7.08-48.779-5.461 8.327-5.925 1.105-4.793-4.856-5.735-8.198.047-24.648-4.894-9.295 3.807 6.442 5.018 6.934 8.395-.81 5.443-10.754-3.147-22.373-1.116-33.539-1.705-8.024-.995-24.6 6.28-27.264-4.948-.063-6.826-16.616 6.567-23.487.555-6.196 1.772-20.121.722-11.511-7.464 2.33-6.209 6.477-13.92-1.51-18.237-1.479-3.071-2.306-13.161 2.519-6.971 13.139 8.47 30.598 6.186 45.409 3.413 15.406-4.466-2.787 1.973-8.08-3.218-3.232-4.412-8.031-2.811-12.046-.056-8.7 6.712-16.196-1.394-24.797-2.834-3.476 1.347-5.304-5.6-7.177-1.126-9.964 1.848-19.143 10.954-29.145 4.258-6.171-5.668-11.021-.042-16.791 2.619-10.138-.947-12.89-1.067.269 1.706 14.125 1.657 31.134 3.915 43.076-5.25 5.162-4.024 2.213 7.457.392 9.726-7.463 4.71-.566 13.851 2.274 19.436 1.383 8.342-7.727 3.146-12.17 3.816-8.75 2.675-17.954.88-25.926-3.106 3.04 9.354-7.885 10.112-13.741 9.29-17.68-.825-36.014-2.576-53.129 2.709 5.218-8.74 21.11-15.089 2.23-11.018-5.05.443-12.155.389-15.923 1.792 11.877 7.358-7.338 3.645-12.897 6.744-8.508 2.558-16.93 5.89-26.045 4.968zm5.883-1.097c11.862-.234 22.713-7.404 35.379-7.507-10.432-9.637-26.46-3.992-37.883.428-.896 3.65-12.99 5.957-3.638 7.036 2.023.447 4.108-.134 6.142.043zm-20.432-.806c10.665 1.28 24.484-9.511 14.649-19.788-6.232-5.838-15.59-9.192-23.683-6.697 4.615 7.905 25.878 3.412 18.873 18.195-10.306 7.899-24.625-.442-32.256-8.592-17.8-.82 5.369 15.318 13.545 15.702 2.896.707 5.888 1.148 8.872 1.18zm331.35-.81c8.058-.929-6.167-8.928-10.861-9.485-8.51-3.7-19.462-4.494-27.609.51.461 3.988 18.294 4.185 25.483 8.054 4.1 1.557 8.701.91 12.987.921zm16.851-1.018c11.196-.931 22.482-6.656 28.319-16.36-7.639-3.256-11.155 3.015-16.807 6.37-6.633 3.88-18.78 8.951-24.297.849-5.647-14.773 16.423-8.857 18.972-17.741-10.96-2.435-27.764 4.781-26.196 17.848 2.432 7.791 13.11 9.165 20.009 9.034zm-274.693-1.594c18.31-3.88 37.274-.279 55.877-1.199 11.156-2.145-5.36-17.707-4.119-7.101-3.705 8.45-19.249 3.08-14.659-6.087-7.641-1.168-14.046-6.733-19.51-10.807 3.068 3.148-.977 9.52-.38 11.372 18.535-6.39 9.112 9.89 9.275 5.007 7.037-1.653-1.208-7.069-5.11-4.186-8.471 2.574-17.653 6.3-23.764 13.03l2.39-.03zm23.597-13.092c.125-.378.285.354 0 0zm178.797 11.932c-7.689-7.337-18.783-13.565-29.813-12.778-4.497 5.483 10.511 3.185-.995 5.485-5.573-5.675 4.112-10.388 8.746-7.052 5.541 4.652.182-11.868 1.016-9.826-5.341 4.6-11.36 8.72-18.17 10.41 5.408 9.98-15.362 14.508-14.958 3.58-7.48-4.574-10.92 14.676 2.43 9.736 17.196-.536 34.754-2.569 51.744.445zM65.89 282.63c8.795-.262 4.328-3.967-.388-6.244-11.739-10.696-19.31-25.975-33.575-33.926-3.37-2.254-16.214-10.588-11.819-2.307 6.914 7.858 17.894 12.705 23.796 22.199 6.416 6.596 11.796 20.163 21.986 20.278zm-8.03-1.5c-4.231-3.21-6.84-10.508-11.926-10.713-8.752 1.912 9.036 10.604 11.926 10.713zm353.725-.472c14.53-11.504 22.023-30.46 38.985-39.305 7.51-8.184 1.305-8.919-4.825-3.804-16.175 7.914-24.815 24.149-36.895 36.557-6.937 3.722-9.724 7.916 2.735 6.552zm-325.317-.739c3.914-.986 8.469-2.875 11.372-4.291-6.532-1.708-22.615-13.195-14.548-.951.186 3.552-.892 6.491 3.176 5.242zm97.878.026c10.821-3.228-4.876-18.578-8.463-8.014-2.715 5.227 3.863 9.214 8.463 8.014zm-2.655-3.045c-6.26-2.728 5.233-9.12 3.764-1.53-.813 1.165-2.346 1.838-3.764 1.53zm34.573 2.621c5.101-4.238 20.443 5.15 18.325-4.536-6.48-3.866-13.643 4.1-20.932 1.935-2.141-.624-6.801.332-8.306-1.88 9.193 2.492 18.516.257 27.213-2.872.225-5.342-5.33-6.323-8.931-5.672-5.676.996-10.025 3.752-15.922 4.793-3.32 1.58-7.739-.14-10.662.727-5.34-2.811-13.81-7.536-12.012-14.616 12.567 1.888 24.957 4.026 37.517 1.077 7.866 4.253 19.568-16.396 8.056-8.167-17.198 6.471-36.158 3.91-53.5-.474-5.061 11.793 9.52 22.154 19.855 24.991 6.463 1.639 12.353 5.654 19.299 4.694zm-10.754-3.297c.296-.395.232.41 0 0zm211.646 3.055c5.16-2.214 10.496-5.018 13.808-9.618-5.915-3.919-9.001 3.205-12.645 7.099-.632-2.583-4.256 5.195-1.163 2.519zm-122.982.064c9.644.275 4.889-16.363-1.892-10.808-6.198 2.947-7.452 11.92 1.892 10.808zm-2.327-3.157c-7.537-9.378 11.1-1.802 0 0zm-47.797 3.147c9.513-2.434 20.064 2.392 29.023-3.164 11.97-3.311 28.936-11.512 25.828-26.554-11.126 1.121-23.137 5.558-34.998 4.099-8.047-.645-17.078-1.37-23.623-6.6.123 14.366 18.932 11.142 28.613 12.452 7.43 1.139 15.12-3.933 22.048-2.216-1.554 11.123-13.822 16.962-23.637 13.37-6.531-1.705-12.201-3.633-18.243-4.995-16.618 7.751 14.848 12.656 20.923 8.673-7.527 6.898-19.91-2.459-28.379-.118-3.37 1.552-.963 6.65 2.445 5.053zm-171.156-.428c3.75-7.552-6.975-10.753-12.864-10.582 2.605 4.608 7.935 8.842 12.864 10.582zm317.41-.331c3.59-12.228 4.004-13.491-7.497-6.985-7.466 1.952-5.797 4.377 1.858 5.834 1.74.558 3.756 1.519 5.639 1.151zm-267.35-1.188c6.579-1.164 13.38-.773 19.847-2.594-7.517-4.3-15.28-5.723-23.984-5.402-14.982-1.618-29.295-7.306-41.474-16.148-13.097-7.561-22.254-20.167-31.963-31.353-1.066-6.732-8.163-1.796-12.425-4.719 2.999 7.922 12.636 19.148 19.657 27.298 16.928 18.292 40.068 32.197 65.5 32.881 1.61.186 3.23.079 4.842.037zm279.209-.318c4.995-1.984 18.047-13.885 5.569-9.503-4.411-.252-11.183 7.372-5.569 9.503zm-45.134-1.006c26.66-1.12 50.265-17.115 66.991-36.938 6.534-7.42 12.207-15.52 17.343-23.952-12.307-1.727-15.1 8.895-22.938 16.173-10.511 13.588-24.78 23.51-40.04 30.971-11.418 4.787-24.128 6.533-36.231 6.816-17.075 5.605-1.836 6.011 7.899 6.697 2.297.359 4.66.363 6.976.233zm-210.233-1.204c11.795-1.417 9.326-22.958-2.623-18.977-11.023 8.522 1.492 11.874 4.974 7.477 1.297 8.18-12.638 4.417-10.796-2.28 5.572-7.657 12.269-7.104 1.287-15.076-7.41-5.956-2.499-7.154-4.236-9.786-3.653-3.75-4.763-11.644-11.081-10.926-6.536.008-13.338.118-19.545 2.355 4.36 20.785 19.45 41.9 40.708 46.886l.37.464zm-1.828-18.85c.336-.366.184.387 0 0zm185.02 17.582c11.85-3.107 23.042-11.96 29.405-22.957 4.962-7.13 8.355-15.398 10.325-23.868-8.843-3.851-25.202-6.874-28.333 5.692-4.063 4.836-2.385 4.62-1.548 6.685-3.26 4.987-7.107 9.728-11.597 13.678 10.446-.46 11.64 15.925.241 14.007-7.266-12.909 8.729 6.31 6.937-7.781-2.521-7.075-13.07-5.805-14.082 1.45-2.7 5.789 2.658 13.733 8.652 13.094zM33.83 271.273c14.355 2.795 14.882-10.162 1.197-5.861-11.374 2.625-27.805-7.062-23.761-19.949-1.295-7.98-7.215-8.094-7.86.461-3.933 17.77 15.938 26.532 30.424 25.349zm169.921-.374c3.137-1.199-2.238-5.354-3.277-7.463-3.904-4.492-4.952 12.144 3.277 7.463zm70.221-.497c9.014-4.789-.772-11.784-3.817-1.191-1.083 1.786 2.98 1.106 3.817 1.191zm-65.113-.527c13.31-.122-5.076-15.829 0 0zm-32.99-.629c5.054-2.066 2.997-4.038-.761-4.886-10.701-2.91-20.239-8.682-28.913-15.592 4.122 6.424 15.504 16.604 25.349 20.396 1.445.067 2.901.895 4.325.082zm-27.875-18.079c.466-.409.126.387 0 0zm119.914 18.2c.027-6.6-3.112-9.632-7.08-2.213 2.005 1.248 4.89 2.468 7.08 2.213zm-72.783-.267c-3.588-13.977-10.252-1.324 0 0zm246.818.063c13.041.384 30.436-7.77 28.195-23.372.618-7.383-5.245-12.82-7.92-3.625-.603 4.469 1.447 9.847-2.9 14.016-5.97 6.131-15.258 9.027-23.558 6.992-13.19-3.97-7.098 10.22 3.925 6.155zm-315.188-.097c4.384-.86-7.78-11.856-14.432-11.08-23.868-7.14-45.776-21.934-60.336-42.221-14.025-1.434-1.172 14.462 5.131 18.519 11.21 14.721 27.825 24.062 44.635 30.975 8.21 1.8 16.507 4.27 25.002 3.807zm79.202-.29c7.019-12.345-14.619-8.864-.314.35zm95.481.013c11.609-3.179 20.46-12.54 28.138-21.343-9.815 7.671-20.648 14.075-32.806 17.332-3.902.793 3.697 5.044 4.668 4.011zm-20.72.05c10.98-6.015.116-12.34 0 0zm-84.233-.029c8.075-9.1-10.523-12.703-2.893-4.039 1.074 1.106 1.448 3.73 2.893 4.039zm73.67-.956c14.462-13.038-12.101-8.759 0 0zm9.21-.234c12.133-12.95-7.989-10.846 0 0zm73.324.205c16.808-1.296 32.316-8.42 45.649-18.51 11.51-7.388 19.684-18.955 28.452-29.233 3.298-9.838-9.967-6.977-11.271 1.621-14.068 14.63-30.206 27.165-49.496 33.716-6.417-1.862-30.81 15.856-13.334 12.406zm-135.22-.91c9.077-13.772-20.06-3.988 0 0zm42.582-.369c14.679-9.635-13.898-6.915.001 0zm-39.785-.47c7.041-2.005-4.421-6.67 0 0zm35.861-.398c1.285-10.04-6.798 1.836 0 0zm-26.62-.53c2.49-9.787-8.072 1.81 0 0zm17.53-.168c7.07-1.854-6.29-6.113 0 0zm-22.895-.143c12.04-8.19-10.786-7.107 0 0zm28.381-.772c6.308-9.645-13.84-3.736 0 0zm-219.324.232c2.952-2.53-6.637-8.49-7.692-12.696-8.346-10.84-13.303-24.762-12.799-38.531 2.656-8.063 12.703-5.579 7.181-14.434 3.21-9.193-5.987-6.564-10.185-2.646-11.3 11.254-6.118 29.08-.579 42.116 4.28 9.72 9.989 19.818 18.771 25.975l1.754.207 3.55.01zm155.87-.06c3.252-10.654-9.313-4.992 0 0zm-11.33.004c-2.617-9.08-13.277-7.695-19.833-12.052-4.914-1.31-8.897-4.798-13.784-6.129 9.69 8.274 21.18 15.48 33.617 18.181zm-17.316-7.145c-.254-.532.395.153 0 0zm126.7 6.25c7.238-9.748-7.431-5.038 0 0zm-247.338.241c6.093-2.214-5.232-8.681-8.078-12.144-2.68-1.856-6.232-5.645-8.401-5.222 4.638 5.714 8.765 16.532 16.479 17.366zm258.705-.18c12.184-3.324 22.966-10.368 32.423-18.501-10.024 4.378-20.073 9.628-30.53 13.045-.11 1.323-4.791 6.296-1.893 5.456zm-274.4-.503c-4.717-4.173-7.935-9.59-11.824-14.425-.964 6.782 5.62 12.789 11.824 14.425zm419.628-.618c7.26-1.98 11.254-10.694 15.484-16.576 6.463-13.542 14.379-28.921 9.265-44.248-2.305-6.54-8.55-11.147-15.436-11.554.887 8.974-6.064 14.788 5.462 16.98 5.012 11.686-1.659 24.701-6.396 35.433-3.494 7.092-9.079 13.429-13.552 19.536 1.68.411 3.376 1.207 5.173.429zm-373.355-.216c-17.35-12.507-30.95-29.838-42.431-47.853-3.708-13.545-18.682-3.956-13.611 7.109.805 7.015 1.784 14.892 10.544 15.43 11.587 5.258 20.69 14.985 29.143 23.817 5.569-.663 11.155-.362 16.355 1.497zm366.304-.526c4.447-5.318 10.194-10.936 12.487-17.302-6.88 3.081-13.769 10.649-17.776 16.751 1.36-.594 3.85 1.973 5.289.551zm10.877-14.772c-.162-.463.754-.106 0 0zm3.225 13.746c5.376-2.77 11.238-7.853 10.03-14.238-3.867 4.816-7.588 10.722-11.226 14.782zm-45.994-.423c6.759-3.91 16.133 2.25 19.741-6.709 8.25-9.376 18.659-17.571 30.664-21.268 3.038-8.658 8.306-22.872-2.674-27.737-7.372 4.1-10.304 13.66-15.828 19.991-8.876 13.876-20.521 25.98-33.542 35.957l1.64-.234zm-185.592-.755c-.267-.381-.13.393 0 0zm-101.47-1.356c-3.196-5.082-6.013-11.69-12.786-12.256-19.892-4.652-36.122-20.289-47.493-35.853-6.5.263-5.553 6.584-1.471 9.777 15.253 18.637 36.67 33.479 60.469 38.282l1.282.05zm56.415-.96c.282-5.276-7.74-3.808-11.162-5.949a140.548 140.548 0 01-19.878-6.952c9.74 5.44 20.198 10.554 31.04 12.901zm184.977-.59c14.737-2.972 27.698-11.64 39.927-19.999 7.39-7.705 19.408-15.372 21.217-25.497-1.859-1.968-5.045-4.995-6.381-.372-12.38 16.645-29.248 31.308-50.034 35.385-.58 1.993-10.661 12.03-4.729 10.483zm-56.84-.11c10.133-3.55 20.23-7.671 29.4-13.342-9.306 5.327-20.948 6.373-30.539 10.978-.044.826-.835 3.544 1.139 2.364zM173.8 253.05c3.636-8.634-12.825-2.804-17.735-6.556-11.264-2.64-4.56 1.148 3.81 2.843 4.634 1.153 9.187 3.23 13.925 3.713zm128.378-.742c5.707-2.032 26.267-6.895 21.35-7.794-7.735 2.002-15.613 3.13-23.543 3.8 1.197 1.079-.109 4.584 2.193 3.994zm-84.156-3.115c5.75-6.17 19.85-2.355 19.71-13.311 3.915-10.293 18.064-1.492 20.46-8.37 6.973-9.37 17.374-1.048 26.189-1.831 5.261 2.346 11.861-1.275 17.535-2.38 15.723-5.079 30.563-14.158 47.223-15.255 7.224 3.87-5.595 13.456-.359 15.279 6.518 1.3 27.187-3.788 20.719 8.92-1.263 4.186-3.578 8.285-4.731 12.28 17.85-3.33 32.372-15.748 43.628-29.365-14.365-9.963-10.064-31.113.667-42.098 6.159-8.793-15.536 3.526-17.506-5.976-10.58-3.234-12.71-11.034-6.171-16.753 1.035-5.82 3.61-7.747 1.556-13.71-5.702-1.154-8.796-8.585-.972-10.863 6.402-7.837 20.83-7.432 25.048-8.636-9.604-10.05-16.182-26.407-7.108-38.982 6.908-3.29 3.407-7.22-1.039-10.484-10.294-10.63-23.682-20.647-38.604-22.176.85 5.79 13.088 19.797 1.702 20.245-7.547 2.19-24.809-2.923-15.498 8.983 4.348 7.83-5.202 9.074-10.62 6.228-18.01-4.856-34.897-14.013-53.633-16.022-8.738 1.906-16.701 6.282-25.677 2.863-2.126-8.372-9.482-4.789-16.554-5.229-4.436-6.04-8.897-5.733-13.741.189-7.007.057-15.495-3.567-17.086 5.42-5.968 1.771-12.17 2.656-17.314-1.259-5.382 1.405-10.366-2.832-15.916-.02-19.232 3.454-36.262 15.046-55.894 16.556-8.948-4.962 11.34-19.668-5.847-15.41-4.452-1.845-18.404 2.284-16.115-5.638-.468-4.687 7.337-13.331 5.112-15.805C89.304 49.875 74.7 61.85 63.147 75.28c14.386 9.92 9.884 31.272-1.033 42.007-4.885 7.904 17.448-3.215 19.114 7.848 6.571 1.248 15.184 9.572 4.93 12.666-1.973 4.848-2.748 9.09 1.589 13.805 2.857 4.403 9.127 13.197-4.061 15.163-5.4 7.52-13.656 5.074-21.418 4.724 1.802 4.893 9.07 11.252 10.336 18.003 3.216 9.754.873 21.561-7.816 27.721 11.71 13.524 26.584 25.68 44.756 28.685-1.893-6.335-7.206-13.22-5.933-19.521 6.877-4.748 30.636 4.17 20.585-9.194-5.257-10.983 10.616-8.2 16.139-4.879 16.296 4.357 32.088 14.34 48.91 14.55 3.692-3.421 8.283 1.483 11.387-2.405 9.6-6.55 14.18 6.128 20.315 6.146 5.778-1.443 19.043.242 10.852 9.183-15.022 3.081-5.502 2.859 1.412-3.719-4-13.394-10.181 3.28-15.427 2.473 11.328-1.246 2.088-12.348-3.963-3.7-2.999 3.56-15.67 4.994-10.705 9.761 5.046 1.292 9.403 5.413 14.906 4.596zm-27.122-.377c7.626-5.41 14.599-11.82 23.18-15.752 3.69-11.475-5.191-5.025-5.464-1.187 4.398-14.857-12.724-3.797-11.233 2.85 6.554-8.167-8.7-10.978-9.817-2.809.491 7.144-5.878 6.176-10.754 4.781-7.395-.583-16.316-4.305-22.765-2.854 2.356 11.395 12.221 13.372 22.281 13.666 4.798.603 9.739 2.054 14.572 1.305zm69.522-.127c4.8-2.207 18.675-4.574 9.747-9.478-3.65-2.372-7.78-2.358-10.756-6.16-11.446-6.41-4.968 5.562-3.168 5.712-3.569-3.578-14.792-14.151-13.51-1.274 6.849 4.913 15.553 4.312 1.461 2.776-6.301-12.195-8.446 5.767 2.013 3.988 5.797-1.008 8.666 5.825 14.213 4.436zm27.153-.313c8.892-1.099 17.914-2.579 26.562-4.21 10.894-10.666 4.17-14.15-7.294-9.902-5.537.016-15.214 6.184-19.07.784.233-5.499-6.505-12.384-11.067-6.985-2.525 2.926 2.449 10.233-2.045 3.652 2.131-14.54-13.608-3.945-9.904-.012-.313-7.978-7.16-7.562-3.725.968 9.766 3.678 16.547 14.038 26.543 15.705zm173.455-2.466c-.843-.73-.832.46 0 0zm-302.196-.446c-1.682-5.269-7.216-10.085-7.733-16.108 11.17 1.794 22.402 7.361 34.005 6.842 1.92-3.865 4.3-9.74-2.591-8.865-19.163-3.347-35.846-14.543-55.169-17.348-6.66 8.014 5.766 18.942 9.934 27.149 3.646 7.996 14.227 6.611 21.554 8.33zm159.012-1.019c7.697-1.935 18.093-1.401 21.014-10.658 3.779-7.41 10.602-14.463 10.649-23.179-6.45-4.446-14.893 2.75-21.999 3.726-12.786 5.165-25.487 10.907-39.248 13.222-3.263 11.875 12.204 7.593 19.976 4.902 4.733.198 13.59-7.087 15.469-2.724-1.467 5.24-6.364 10.29-7.367 14.905zm151.538-5.987c-.207.047.154.471 0 0zm-429.61-20.9c7.19-2.032 17.132-7.682 19.454-17.524 4.3-13.214-12.514-20.167-14.877-29.037-.537-4.925-6.7-9.758-12.497-7.714-22.5-2.508 3.331 15.311 10.645 21.054 6.16 5.399 11.113 19.026 1.205 23.189-7.535 3.8-10.242-9.782-1.75-7.312 9.268-6.029-1.577-21.228-10.774-16.854-9.478 2.128-13.488 14.639-6.869 22.126 2.458 6.539 8.026 12.296 15.463 12.072zm24.922-2.09c13.307-10.526 7.557-29.675-2.309-40.299-4.103-6.142-10.506-11.044-13.214-17.865 8.93.937 22.276 10.416 29.129.377 5.026-2.112 13.463-10.919 2.738-10.592-8.349-1.006 3.763 11.708-7.839 9.349 12.422-2.017-1.876-12.485-4.844-3.666-6.032 2.872-13.186-1.847-19.471-2.679-4.293-2.181-22.776-6.021-15.447 4.024 9.64 14.188 26.211 25.911 27.724 44.196-1.978 6.491-4.178 13.027 2.722 17.57l.812-.416zm370.129.162c11.954-1.925 19.496-17.372 15.243-28.157-4.793-8.685-19.702-9.124-22.137 1.646-5.285 9.39 18.118 11.402 3.316 16.924-12.189-1.8-7.905-19.514.239-24.23 3.43-3.814 29.86-21.237 13.951-20.319-13.95-4.593-15.435 7.166-20.915 13.914-9.568 6.914-15.053 21.273-6.612 31.306 4.818 4.499 9.898 9.117 16.915 8.916zm-24.659-2.002c9.56-6.652-.815-14.658 2.513-23.102 5.152-16.48 20.791-27.106 28.2-41.928-1.334-6.043-11.276-2.218-15.718-.584-6.68.594-14.683 6.234-21.013 2.858-11.137-9.963-6.358 5.953-7.639 4.34-8.644-3.262 6.997-13.091-7.533-9.792-6.07 5.888 10.906 18.259 18.082 14.551 3.885 1.51 18.995-8.721 15.016-1.212-9.14 13.194-25.09 25.838-20.819 43.856 1.046 4.081 4.824 11.474 8.911 11.013zM75.945 171.304c5.522-1.093 20.959-17.554 13.313-12.33-11.721 11.337 6.147-9.782-7.637-2.761-3.922 5.445-9.854 9.8-16.753 7.476-17.32-6.054-4.193 11.157 7.01 7.514 1.356.107 2.637.777 4.067.101zm324.49-1.596c6.979-.584 15.318-.461 17.578-8.878-8.231.117-19.358 5.518-24.593-3.935-8.193-10.079-10.318 2.11-4.576 4.035-10.829-10.821-7.272 1.812 2.779 4.853 2.476 2.532 4.904 5.06 8.812 3.925zM80.546 145.456c9.896-3.274-1.99-8.442-4.71-11.657-3.153-5.352-9.028-4.776-14.247-2.718-9.028 2.029-20.095 6.615-8.532-4.868 9.502-11.642 23.1-25.728 16.005-42.066-3.542-12.78-17.07-2.733-10.131 6.965 2.173 13.79-9.622 24.623-17.541 34.673-3.76 5.618-10.668 10.119-11.601 17.095 8.48 4.725 18.294-2.838 27.24-3.607 7.202-6.66 16.326 10.902 19.124-.79-12.141-6.857 8.407-.613-1.313 4.656-3.518 1.49 5.295 2.952 5.706 2.317zm-19.334-46.07c.196-.726.328.583 0 0zm333.212 44.515c8.42-.591-4.646-6.283 2.393-9.81 9.035-2.996-8.475 7 3.94 7.062 5.652-4.249 12.006-5.691 19.357-2.458 6.81 3.39 30.999 7.662 18.111-5.778-9.01-12.513-23.597-23.032-25.754-39.289 3.395-7.363 1.463-25.43-8.053-14.103-9.11 14.166 1.31 30.524 11.436 40.934 5.647 6.59 13.715 16.832-.902 9.474-6.103.007-13.862-5.186-18.028 1.56-3.523 4.074-17.653 11.277-2.5 12.408zM84.322 137.37c5.534-4.78-7.606-11.33 3.082-3.814.864 5.47 4.928-3.145.367-4.149-7.346-1.42-10.928-10.728-18.882-8.523-6.87-.722-13.604 2.015-15.844 8.582 7.89.226 18.52-5.556 23.76 3.478 1.962 2.054 4.12 5.68 7.517 4.426zm305.874-1.522c5.849-4.407 10.295-12.967 19.271-9.166 5.144 1.113 12.78 2.541 6.53-3.678-3.787-6.02-12.544-2.761-18.388-3.84-4.366 2.831-7.88 7.046-13.079 8.821-7.971 13.064 12.742-6.881 1.547 4.684-.516 2.26 2.024 4.14 4.119 3.179zm-367.105-7.123c8.956 2.156 21.117-1.307 19.922-10.671 9.976-7.204 20.666-21.251 11.116-33.025-5.335-9.295-20.329-14.791-27.732-4.594-5.67 7.21-11.48 20.451-1.115 26.424 8.344 7.534 21.808-2.058 18.018-12.263-12.253-.727-6.662-16.327 2.529-7.307 5.267 8.508-1.605 19.515-9.704 23.582-1.065 3.298-23.868 17.036-13.034 17.854zm415.8-1.991c10.433 1.54 18.193-1.949 6.386-9.299-7.323-8.646-21.794-13.143-21.243-26.591-2.646-13.38 21.64-6.369 9.091-.946-13.81 4.863 3.324 25.806 13.217 15.052 12.665-8.947 2.291-30.657-11.269-32.297-13.44.526-26.184 16.772-18.821 29.726 2.142 7.831 15.474 11.485 13.389 18.644 2.185 3.148 4.676 6.997 9.25 5.711zM18.163 100.375c-.022-9.267 5.487-14.17-5.327-16.798-4.876-10.48.82-22.879 5.316-32.603 2.09-8.395 15.601-17.982 13.125-22.959C19.43 27.87 14.94 42.368 9.461 50.737 3.151 64.14-3.598 81.421 6.092 94.81c3.074 3.667 7.455 5.292 12.071 5.565zm436.487-2.393c15.492-2.251 17.878-19.83 14.279-32.207-4.679-14.64-11.323-29.277-23.208-39.623-16.075-3.614 2.39 10.413 4.503 16.665 6.83 10.526 12.33 24.434 9.261 37.064.357 6.775-10.778 1.76-7.379 7.066 3.117 2.665-.6 10.026 2.544 11.035zM19.566 85.626C30.81 74.995 37.394 59.768 48.6 48.716c3.427-7.952 31.673-22.17 10.462-16.806-8.996-2.676-12.228 7.21-18.245 11.956a103.498 103.498 0 01-25.193 15.53c-1.85 8.622-7.905 21.582 3.017 26.57zm434.421-2.399c9.059-6.321 4.057-18.305 1.819-27.076-1.847-6.384-6.064-10.901-11.961-13.9-13.9-8.713-20.202-25.352-33.656-34.289-14.473-1.39-6.62 5.382.574 9.436 11.947 14.897 25.046 31.174 43.708 37.018-.402 3.795-10.46-4.217-12.901-4.73-8.307-5.394-15.964-11.799-21.998-19.685-4.723 1.189-16.706-1.8-15.853-.303 19.457 13.243 32.361 33.41 45.983 51.913 1.04 1.117 2.642 2.28 4.285 1.616zm-327.393-.63c20.647-3.642 38.786-15.088 59.617-18.111.466-8.867-6.688-9.173-13.368-6.72-7.78 1.316-15.14 4.25-22.806 5.875-.816-5.775 8.312-12.705 6.581-16.429-8.174 1.825-19.146 1.101-22.461 10.534-4.24 7.281-10.467 14.153-11.174 22.775.554 1.347 2.064 2.592 3.611 2.076zm-70.69-.288C67.822 66.295 83.84 51.34 103.332 46.746c8.268.494 19.444-18.404 4.243-10.614-22.039 7.166-42.11 20.942-55.626 39.859-3.605 2.913 1.334 6.47 3.955 6.318zm292.565-1.18c4.106-5.936-3.396-13.166-5.801-18.793-4.36-5.413-6.57-14.183-14.836-14.143-3.921-.97-8.964-1.848-12.18-1.34 1.29 4.01 11.796 14.415 5.888 15.51-10.385-2.882-21.436-6.514-32.078-6.377-2.38 5.332-2.815 9.963 4.635 9.48 18.794 2.708 35.41 14.417 54.372 15.663zm68.902-.566c8.404-4.426-2.335-11.563-5.569-16.126-14.447-14.244-32.231-26.333-52.231-31.011-6.863.343 5.256 14.085 11.829 12.569 18.907 5.323 33.09 20.326 45.142 34.994zM49.942 77.47c14.403-20.862 36.76-35.873 61.013-42.931 5.814 2.024 24.097-13.094 12.037-11.145-19.064.354-36.745 8.589-51.957 19.545-10.38 7.366-18.039 18.178-26.412 27.595-3.75 4.607 1.523 5.22 5.319 6.936zm372.565-1.85c3.433-1.899 8.57-3.875 3.811-7.886-7.436-8.85-15.214-17.67-23.95-25.296-12.659-7.6-25.087-17.318-40.238-18.752-5.06-1.442-25.427-3.897-12.108 3.48 6.707 8.848 20.07 5.732 28.765 12.725 16.812 8.425 32.554 20.38 43.326 35.993zM31.2 75.237c10.693 1.247 14.054-5.905 19.76-13.725 9.454-10.124 19.174-20.136 31.545-26.814 14.825-8.986 32.436-12.192 49.456-12.431 5.194-2.884 14.424-5.151 2.677-5.706-14.061-2.056-28.67-1.547-42.205 2.9C65.57 29.481 44.752 51.324 30.315 75.49l.886-.253zm410.329-1.989c-15.794-25.287-38.47-48.352-67.727-57.029-10.91-2.242-22.14-3.25-33.211-1.075-13.12-.218-5.361 5.274 3.925 6.349 28.942-1.296 56.092 14.858 74.167 36.544 7.856 6.678 10.465 17.626 22.846 15.212zM206.49 68.715c3.656-.778 4.145-5.976 1.078-7.97 2.654 2.833 6.928 11.854 6.424.194-4.69-4.297-11.407-5.813-15.822-10.759-6.587-9.053-17.363-5.918-26.681-4.4-8.81-.207-15.31 3.567-18.305 12.06 1.012 3.692 11.615-.326 15.604-.554 12.51-5.755 16.81.45 23.134 8.823 8.516.067 5.682-15.364 5.861-.854 2.454 1.949 5.169 4.975 8.707 3.46zm64.416-.084c8.494-4.163 2.538-17.666 7.394-3.172 10.94 1.347 8.286-17.473 21.749-9.828 7.91 1.356 29.09 8.016 15.766-6.452-6.34-6.58-18.382-2.808-26.856-5.825-10.896-1.061-15.608 12.256-25.741 14.531-8.347 2.67.778 14.916.462 5.384 6.533-10.175-5.489 8.915 7.226 5.362zm-147.324-1.306c4.724.81 14.262-15.02 9.623-13.083 1.439-6.11 9.673-11.416 11.915-15.634-6.721.037-12.354-10.816-3.741-13.378 11.496-.646 3.872 10.07.41.903-13.554 15.379 22.002 12.823 9.968-4.054-2.982-3.99-7.513-5.334-11.625-2.974-19.659 6.73-32.201 25.986-37.304 45.375 6.118 3.109 14.022 2.678 20.754 2.845zm10.593-23.163c.169-.941.464.206 0 0zM354.57 66.108c4.076-1.356 18.162 1.341 14.005-6.922-6.004-17.92-18.252-36.223-37.34-41.424-5.37-3.426-13.182 4.35-11.188 10.914.317 8.205 12.654 11.255 14.773 1.853-.843-14.27-11.673 7.272-8.101-6.255 8.95-3.648 12.738 9.36 4.352 12.326-2.575.851-4.42 1.303-1.256 3.344 8.07 6.583 8.91 12.141 10.13 16.101 3.385 7.223 6.485 11.64 14.625 10.063zm-125.279-3.89c8.82-5.184-2.589-11.704-8.56-10.779 5.265-.448 12.198.784 13.769 6.701 7.964-9.358-10.426-8.314-15.323-13.233-5.054-3.283-24.412 3.823-15.78 8.072 6.696 1.753 11.116 9.37 18.82 8.235 2.676-4.619-2.87-5.67-5.249-6.895 8.806-2.056 3.995 9.794 12.323 7.899zm18.836-.314c3.04-5.49 12.491-12.577 3.319-3.118 2.607 7.216 10.352-1.84 13.614-3.808 12.91-1.88 6.698-10.158-4.102-11.146-6.36-2.647-9.406 5.93-15.725 4.74-7.676-.882-7.414 15.058-2.342 5.101 8.499-4.077 13.004-2.106 1.724-.435-5.622 2.663-1.81 10.804 3.512 8.666zm-89.3-1.797c-.792-1.236-1.117 1.012 0 0zm156.748-.808c-.438-1.258-1.114 1.037 0 0zM184.677 57.1c-.242.14.358.493 0 0zm-166.318-.465c17.985-7.001 30.242-22.15 41.749-36.852 6.261-4.66 16.482-11.647.723-10.025-13.813 10.124-20.189 27.503-35.29 36.467-4.028 2.313-8.131 5.87-8.253 10.369l1.071.04zM6.205 54.418c4.947-6.466 1.309-14.64 6.909-20.931 8.054-8.04 20.243-6.34 29.994-5.952 3.285-2.287 2.53-5.061-.996-5.204-14.063-3.522-33.871-.505-39.99 14.625-1.234 5.82-1.38 14.236 4.083 17.462zm459.553-2.889c10.206-10.913.971-28.647-12.532-30.866-8.836-2.77-18.576-2.538-27.349.849 4.84 10.528 20.363-2.318 28.335 6.733 9.43 3.64 6.079 14.473 9.768 21.16l1.43 2.283.349-.159zm-322.685-2.973c9.104-5.302 19.865-6.413 29.649-9.927-.914-6.958-13.777 3.327-19.352 3.975-1.836 1.409-13.462 5.441-10.297 5.952zm188.162-1.062c-9.641-5.389-19.877-10.5-30.82-12.557.627 6.473 11.12 4.849 16.468 7.396 5.124.915 9.634 3.69 14.352 5.161zm-182.876-.022c8.454-1.59 16.939-3.264 25.588-3.575-2.491-8.948-14.824 1.386-21.974 1.411-1.047.208-7.745 2.253-3.614 2.164zm-125.806-.655c5.14-4.058 22.7-15.042 14.37-18.163-6.793 2.478-9.896 11.409-14.553 16.596l-.884 1.742zm121.205-.351c9.923-6.569 24.742-6.817 31.98-15.814 2.534-4.887-9.345 1.798-12.432 2.54-7.363 3.645-14.666 8.254-20.741 13.553l1.193-.28zm182.638-.207c-8.325-3.02-16.996-5.695-25.766-7.212-2.968 9.459 17.04 2.867 23.4 7.25l1.371.108zm-91.517-.586c.107-12.402-14.074-10.936-22.667-12.579-9.458-1.38-19.112 1.623-28.59 2.273-.332-10.01 11.69-16.137 20.398-14.233 7.965 1.054 14.692 5.226 22.475 6.07 4.187-.206 7.9-7.321 2.097-7.086-7.537-3.36-16.007-4.223-23.927-2.292 8.751-4.472 18.071.317 26.82 1.819 11.664-8.194-11.897-4.717-16.174-6.238-9.857.518-19.716 4.139-28.604 8.476-6.657 4.404-15.074 12.487-10.752 21.103 19.028-4.485 41.3-7.808 58.924 2.687zm5.652-.43c17.06-10.162 38.426-7.051 56.934-2.909 4.726-11.37-8.882-21.23-18.551-24.249-9.14-2.91-18.391-7.194-28.155-3.873-9.729-5.09-17.762 6.582-3.829 4.627 6.878-3.07 14.912-4.243 22.09-1.525-7.332-1.14-16.113-1.134-23.276 2.65-9.25 1.568 3.322 10.191 8.043 5.954 6.694-2.678 14.616-6.113 22.387-4.986 5.116-1.837 21.266 14.71 8.767 13.758-12.779-3.654-26.271-1.939-38.789.885-2.678-.85-9.605 9.75-5.621 9.668zm89.951.22c-9.85-8.129-21.193-14.806-33.716-17.667 2.74 10.144 17.635 8.897 25.759 14.336 2.626 1.012 5.333 3.02 7.957 3.331zm119.419-.872c-4.177-6.41-8.508-14.098-15.014-18.156-9.8 2.328 8.809 13.6 13.238 17.535zM11.499 43.7c2.975-5.188 7.77-9.886 10.916-14.253-5.254 1.377-14.7 10.205-10.916 14.253zm133.475.304c9.66-7.718 20.761-13.446 32.717-16.593 1.645-4.79-9.067-5.1-12.491-1.37-7.618 4.965-16.146 11.403-20.959 18.184l.733-.22zm184.325-.977c-8.68-8.44-17.711-19.005-30.375-20.697-11.777 6.784 12.926 6.552 15.962 11.558 4.955 2.738 9.446 6.786 14.413 9.139zm131.41-1.609c.585-7.177-5.996-12.43-12.031-14.425 4.307 4.398 8.124 10.271 12.031 14.425zM187.19 34.442c2.738-.864.705-9.31-1.452-4.173-.804 1.571-2.44 5.612 1.452 4.173zm40.611-.399c-1.36-8.632-12.882-2.833-3.442-.088l2.243.194 1.2-.106zm20.362-.026c10.079 1.07 1.372-11.43-1.719-.794-.722.608.93 2.269 1.719.794zm39.869-.06c1.636-4.447-5.239-8.963-3.15-.826.835.911 2.055.902 3.15.826zm-95.768-.669c9.27-.26 2.072-15.857-1.314-2.801-2.603 1.087-.635 4.425 1.314 2.801zm25.982-.195c-.002-2.689-.671-10.794-5.325-5.721-7.889 6.806-.286 4.196 5.325 5.721zm38.573-.314c16.584 1.76-3.286-13.977-1.424-.048zm25.767.091c1.165-2.68-3.496-7.56-4.996-8.89-.024 5.356-3.448 9.692 4.996 8.89zm-127.784-.737c4.523-6.092 15.376-7.582 18.505-12.142-1.86-11.725 17.232-9.738 15.795-.523 5.057.033 10.654-7.63 4.486-10.269-11.647-2.816-24.967 1.339-35.987-.553-6.912 1.795-19.519-2.24-22.969-.299 8.421 6.865 19.592 13.778 30.615 11.624.567-4.635-9.536-3.673.413-4.665 4.842 6.274-5.248 9.132-9.602 6.424-6.749-4.699.339 9.592-1.256 10.403zm48.216.036c7.528 3.132 2.458-14.142-.803-4.796-1.432 2.34-7.235 6.966.803 4.796zm25.757-.523c2.603-8.852-8.485-.59 0 0zm17.68.17c6.37-6.232-6.28-4.644 0 0zm28.172-.188c-2.146-3.123-6.924-11.87-7.648-3.5-2.203 5.414 4.092 3.64 7.648 3.5zm44.886-.296c-1.308-8.79 3.702-14.123-8.764-9.698-11.193-2.311 3.045-11.446.981-5.472-11.185 2.921 8.11 5.63 12.555.039 4.849-2.914 12.16-5.507 14.244-10.447-11.734 3.028-24.068 1.867-36.12 2.49-7.62 1.34-21.842-5.278-25.341 4.406 5.001 16.532 14.903-13.73 23.155 4.116-1.624 7.746 14.954 7.794 19.29 14.566zm-129.151-1.097c5.306-4.432 2.848-10.37-1.629-2.576.42.85-.063 5.648 1.629 2.576zm29.478.887c5.783-4.618-4.423-5.76-.551-.005zm-21.073-.48c13.407-8.762-8.195-13.49-.766.507l.766-.508zm12.195-2c7.377-7.453-11.01-6.866-2.416 2.286l2.416-2.287zm43.598 2.292c3.527-8.008-6.442-3.166 0 0zm-192.542-.36c9.497-.766 22.75-9.708 17.203-20.61-11.475-11.59-32.14-6.542-42.661 3.979-10.058 14.854 12.086-.554 19.49-3.809 9.418-7.446 26.459 5.57 12.876 13.144-4.902 2.49-14.565.41-14.995 7.211 2.693.045 5.396.291 8.087.085zm213.812.01c8.86-9.503-12.148-12.72-4.112-4.143 1.185 1.181 2.49 4.029 4.112 4.143zm8.194-.235c1.774-3.597-1.42-7.314-5.035-7.217 1.157 1.932 2.978 6.916 5.035 7.217zm-18.303-.437c2.981-6.119.016-8.632-5.299-5.307-2.357.037 5.255 7.073 5.299 5.307zm146.111-1.07c14.903-.97-5.754-6.608-10.915-8.035-10.212-7.91 4.16-18.603 12.733-13.102 8.002.45 13.072 9.238 19.713 10.457 14.324.898-4.043-11.537-9.423-13.63-10.679-3.927-25.836-5.286-32.531 5.82-3.116 11.254 11.167 18.835 20.423 18.49zm-230.83-4.159c12.3-4.587 2.357-19.106-6.176-8.415-2.008 3.591 2.418 10.241 6.176 8.415zm-.804-3.904c-5.761-10.134 12.86-.67 0 0zm113.537 3.903c7.03-2.116 6.42-12.548-1.322-12.546-11.093-.613-5.23 11.387 1.322 12.546zm-2.827-4.279c-11.322-6.73 14.132-5.91 0 0zm-211.4 3.587c5.732-2.71 11.61-5.13 17.452-7.552-5.55-1.324-17.737-9.458-15.598 2.29-.184 1.77-5.227 6.564-1.854 5.262zm-18.577.005c14.66.37 12.613-17.655 1.578-4.949-1.343 1.557-7.27 6.22-1.578 4.949zm332.074-1.407c-2.267-3.475-4.289-7.528-3.72-11.931-9.608.792-18.687 5.972-4.067 8.45 2.54 1.253 4.969 2.95 7.787 3.481zm-345.61-.607c1.755-3.373 14.544-14.184 4.868-9.484-4.203 2.337-18.296 10.056-4.868 9.484zm365.322.272c-2.243-4.976-7.571-8.25-12.402-10.511-5.707 6.776 7.26 10.908 12.402 10.511zm13.526-2.05c7.864-1.36-1.977-6.63-5.071-8.497-14.585-8.986.7 7.489 5.071 8.497zM101.915 15.52c9.444 1.268 23.582-6.49 7.176-6.697-11.717-2.188-24.269-9.642-36.157-4.92 7.606 5.97 16.23 10.088 26.018 11.556.981-.16 1.987.3 2.963.061zm271.309-1.525c8.7-1.715 17.137-4.81 23.635-10.715-.477-4.601-14.777-2.22-21.057.612-7.054 2.429-14.373 4.342-21.769 5.127 4.607 5.564 12.678 5.075 19.191 4.976zM118.932 284.97c.259-.103.36.128 0 0z" />
   <path d="M213.952 84.603c-10.772.229-21.87-.494-32.412 1.334-1.243 5.398 9.8-2.29 7.512 4.29-4.544.795-9.093-2.83-7.666 4.23.132 7.784.097 15.57.188 23.353 9.151.18 19.15-.582 28.638-.484 7.879 3.21 1.683-13.17 3.555-18.922 3.619-8.184-10.88-6.14-7.395-11.406 2.442-.8 8.346 1.83 7.58-2.15zm6.122 0c-2.785 6.665-1.289 14.596.44 19.252-3.015 6.365-2.823 20.59 7.353 12.79 4.874 5.589.306-8.931-.136-12.14-3.494-8.084-1.823 6.549-.382 9.648-10.16 8.791-6.49-11.93-1.777-13.785 8.93 1.022 1.012-21.417 1.16-9.816 4.87 6.187-7.245 12.45-6.071 4.244-1.032-2.807 3.967-10.224-.587-10.193zm40.917 0c-1.754 2.437-3.261 2.083-5.569 3.632.524 4.08 9.812-.868 4.34 4.922-3.63 8.026-4.967 18.501-2.526 26.657 4.776 1.339 12.401-7.496 4.088-3.665-6.11.875-1.638-12.324-1.31-17.004-.246-5.048 11.622-12.061 2.08-12.369-.057-.847.276-2.38-1.103-2.173zm50.147.002c-3.123 5.932-20.358-3.64-18.498 5.732 2.262 2.63 3.609-4.462 8.558-1.754 8.234-.615 19.946-.202 25.228 1.901-.099-7.7-12.358-1.457-15.288-5.879zm-199.926.001c-2.952 1.086-5.46 4.176-.226 3.818 1.918 1.871 8.642-2.21 13.731-.442l10.975.068c1.52 4.28 10.78-2.914 2.485-2.578-5.171.632-13.723.63-20.571.387-3.438.89-3.816-1.127-6.394-1.253zm246.256 0c-1.392 3.014-4.158 2.915-8.683 2.812-5.605.985-12.197-1.282-15-1.255-2.71 2.446-5.704 7.12-1.918 6.973 1.873 4.6-2.503 15.233 2.553 16.164 2.621-1.03 16.45-3.888 14.583 1.484-4.78 2.155-16.635-3.173-17.654 2.747 5.083-2.451.73 11.137 4.59 4.496-.32-4.284 2.308-5.1 6.07-4.585 3.967-1.093 12.287.346 5.612 4.286-3.428-.15-14.732-2.03-6.892 1.723 4.724 1.787 10.314.385 12.781-2.614 2.948 2.034 14.68 4.487 7.052.003-3.994-.91-13.083-4.597-3.775-3.55 4.644 2.335 10.72-2.378 2.724-2.266-4.107 1.914-12.424-3.323-4.36-3.195 4.002 1.852 13.35-1.526 5.468-1.979-2.807-.366-1.675-6.773 2.252-4.328 6.077-2.96-6.9-.549-3.927-6.612 6.369 2.149 5.715-3.992-.007-2.442-2.267-5.116 8.707-1.378 3.84-5.138-3.032.445-3.95-.384-5.31-2.724zm-205.644.001c-2.38 2.422 1.313 16.354-5.016 10.523 1.216-3.748-1.68-15.925-2.354-6.453 1.583 8.825-2.853 23.792 2.187 29.32 1.099-4.7-1.908-20.698 5.372-13.89.49 3.102-1.16 17.37 2.595 11.9-1.014-6.422 3.502-19.077-7.56-15.913-.057-2.112 13.767-1.535 6.318-4.345-1.01-3.168 1.586-9.385-1.542-11.142zm16.536.024c-5.141.537-15.605-2.059-11.264 5.303.094 9.232-.564 18.458-.328 27.688 5.393.24 1.163-12.657 2.601-17.561-1.341-3.93 1.829-14.068 2.16-4.831-.886 8.09 1.249 17.466-1.413 22.044 5.931-.42 15.393 2.555 18.675-1.2-5.343-5.26 3.303-19.708-2.761-26.413-3.788-2.727-17.998 2.218-15.67-2.599 5.423-1.642 15.671 3.209 17.98-2.263-3.327.02-6.652-.168-9.98-.168zm70.354.267c-4.01-1.693-13.45 1.994-5.545 2.555 5.192.348 10.727-.823 15.611.88 2.183 7.697.03 16.37 1.007 24.437 1.947 9.07-16.074-1.293-10.161 5.017 9.81 5.651 14.698-4.688 12.408-13.155-1.038-7.004 3.702-21.15-7.907-19.627a157.82 157.82 0 00-5.413-.107zm29.686.793c-2.42 2.105-2.27 15.95 1.522 13.597-1.305-6.215-1.626-12.981 6.79-10.826 7.055-1.887 10.516 2.685 8.323 9.27 4.831 6.594 2.061-5.874 2.536-9.126-4.879-5.207-13.612-.575-19.17-2.915zm-65.023 1.387c1.588 5.526-11.79 3.347-12.02 1.37.748-2.98 9.293-.412 12.02-1.37zm152.64 2.384c.403 5.667-12.468 1.24-17.592 2.711-7.176 1.421-3.899-4.95 1.755-2.495 5.28.141 10.564.065 15.838-.216zm-233.186.204c-10.853-1.827-3.756 12.978-5.997 19.275-3.005 11.548 10.224 10.134 17.65 9.807 4.7 1.647 9.037-3.015 1.883-2.145-6.625-.569-19.924 2.938-17.237-8.061 1.264-6.495-3.923-20.094 7.066-16.835 7.218-.509 15.954 1.587 12.678 10.793-.14 4.373.92 9.997-3.713 9.878 4.928 7.398 7.12-6.589 6.037-10.903 3.932-11.842-9.08-11.958-17.056-11.803zm-14.216.332c-3.944 5.259 13.144 3.184 3.684.744-1.204-.367-2.483-.37-3.684-.744zm57.23 1.123c6.602-1.087 12.424 1.217 9.72 8.979.911 7.318-.629 21.188-11.15 14.026-.428-6.612-2.735-19.124 1.43-23.005zm33.684.758c7.737.374 1.902 13.755 3.696 19.887 1.679 5.98-15.148 5.348-12.394-1.208.864-6.81-4.436-21.197 7.126-18.663zm94.206.381c-1.116 6.791 18.34-3.278 14.11 8.23-1.228 6.898 3.647 20.285-7.678 15.848-10.56.922.469-20.203-7.239-19.692.913 7.835-.097 15.869.966 23.699 4.095-3.945 15.402-.193 22.946-.49 4.29 1.854 14.115-1.287 4.606-2.083-6.25-.098-14.001.864-11.487-7.288 3.925-1.35 17.009 2.637 14.855-2.133-6.884-.758-18.09 2.8-14.742-7.77-3.96-11.99 14.796-.568 16.237-7.423-10.865-.16-21.714-.802-32.574-.898zm-105.058.293c-1.713 7.114 1.822 18.24-1.333 22.794-7.515 1.141-1.653-11.8-3.543-16.55-.35-4.74-.56-6.498 4.876-6.244zm17.025.15c10.144.535 4.17 16.317 5.405 22.22-3.617.578-6.724.614-5.508-3.954-.25-6.088.053-12.177.103-18.266zm142.39 1.597c3.748-.188 11.52-.67 7.874 4.599-7.153-.5-14.384.068-21.535-.201-2.17-7.19 8.338-2.923 12.393-4.384zm-240.199 1.304c-3.12 5.012 12.804 2.406 3.12.632l-1.558-.325zm226.669 5.563c6.932 1.285 18.401-2.46 22.328 2.025-1.286 6.012-13.985.944-19.685 2.922-4.273 1.319-2.037-2.571-2.643-4.947zm-56.68.356c-4.253.109-16.057-.655-9.626 4.829-.86 4.693 4.348 10.691-1.511 9.927 1.447 6.62 14.544-.894 19.51 1.976 6.652 1.539-2.702-3.562 1.648-6.174 2.725-8.083-2.693-11.154-10.021-10.558zm-166.88.028c.44 5.516-5.155 15.05-.674 17.774-.538-5.062 5.156-15.211.675-17.774zm164.41 2.285c8.278-2.941 15.023 6.356 6.667 11.358-8.537 4.25-13.334-2.614-11.692-10.833a98.99 98.99 0 015.026-.525z" />
</svg>