<svg xmlns="http://www.w3.org/2000/svg" width="300" height="450" viewBox="20 -1 706 1053">
    <circle cx="340" cy="310" r="108" transform="matrix(2.08357 0 0 2.08597 -334.352 -300.993)" stroke="#fff" fill="none" stroke-width="37.763"/>
    <g transform="matrix(1.8 0 0 1.8 -221.163 -188.083)" stroke="#000" fill="none">
        <circle cx="340" cy="310" r="88" transform="matrix(1.17304 0 0 1.1668 -67.959 -64.547)" stroke-width="2.121"/>
        <circle cx="340" cy="310" r="108" transform="matrix(1.15145 0 0 1.1571 -60.619 -61.953)" stroke-width="19.656"/>
        <circle cx="340" cy="310" r="88" transform="matrix(1.6682 0 0 1.67597 -237.137 -223.625)" stroke-width="1.495"/>
    </g>
    <path d="M289.915 14.664l167.661 1.914-11.318 210.578c18.167 10.463 41.045 33.484 49.271 51.273l199.874.088-1.109 156.498-207.184-8.138c-8.51 12.949-12.949 17.019-32.93 32.558l22.199 576.785-224.943 1.478L298.27 464.11c-15.194-10.008-26.99-21.325-35.383-33.687l-214.194.524 1.481-160.57 202.617 8.14c6.662-12.153 22.957-33.2 41.654-45.876l-4.529-217.977z" fill="#fff" fill-rule="evenodd" stroke="#000" stroke-width="3.7494000000000005"/>
    <g transform="matrix(1.8 0 0 1.8 -220.693 -186.421)">
        <path d="M292.93 121.918l73.512.241-3.87 103.351c-21.31-9.335-42.038-8.786-67.998 2.807l-1.644-106.399z" fill-rule="evenodd" stroke="#000" stroke-opacity=".421" stroke-width="1pt"/>
        <path d="M501.128 265.79l-.582 71.506-103.48-3.489c12.208-24.61 12.789-41.082 4.65-67.436l99.412-.581zM159.001 263.754l101.737 4.07c-11.821 23.254-5.911 48.543 3.197 66.565l-105.516.291.582-70.926zM272.655 670.412l105.226-1.163-12.209-306.033c-19.384 12.548-49.867 11.735-68.84 2.289l-24.177 304.907z" fill-rule="evenodd" stroke="#000" stroke-width="1pt"/>
        <ellipse cx="336.895" cy="305.321" rx="58.426" ry="54.066" transform="matrix(1.17413 0 0 1.27957 -64.768 -94.66)" stroke="#000" fill="none" stroke-width="2.027"/>
        <ellipse cx="338.93" cy="300.379" rx="51.741" ry="48.543" transform="matrix(1.19101 0 0 1.28144 -72.878 -88.898)" fill-rule="evenodd"/>
    </g>
    <g fill="#fff" fill-rule="evenodd" stroke="#000" stroke-width="1pt">
        <path d="M404.44 274.195l-12.95 8.51c-8.448-7.932-23.512-19.112-34.811-23.592-11.3-4.482-18.464-2.262-27.002 6.14-9.23-.448-12.95 1.06-20.889 2.246 25.54-32.135 60.997-25.615 95.652 6.696z" stroke-width="1.8pt"/>
        <path d="M378.434 272.822c-15.54 12.332-32.45 28.998-47.62 42.07-4.809-2.466-9.248-7.524-11.469-16.28 14.676-10.359 28.766-24.834 43.81-36.302 5.703 2.806 11.144 6.397 15.279 10.512zM436.282 285.463c.56-7.057-1.616-11.96-5.641-15.906-28.611-2.59-61.126 22.376-46.919 63.092 2.792 6.94 42.369 1.371 50.99-6.794-1.895-3.393-3.635-5.74-7.986-10.75-8.865 4.654-18.711 7.433-28.577 4.967-2.22-3.208-1.083-41.02 38.133-34.609z" stroke-width="1.8pt"/>
        <path d="M353.012 296.024l9.621-8.51c8.756 13.195 12.52 42.951 9.249 45.874-11.725 10.107-70.573 3.701-71.188-40.325 4.687-5.18 12.855-11.948 19.393-10.838-9.126 18.621 10.235 36.612 21.087 38.216 19.238 2.097 17.759-.986 11.838-24.417zM375.446 252.41c5.796 3.206 11.637 7.803 16.909 10.42 21.706-7.151 53.536.605 41.573 38.218 2.869 3.992 7.139 8.787 10.838 12.364 4.563-9.99 12.087-27.488 2.22-44.507-24.54-30.954-63.43-22.428-71.54-16.495z" stroke-width="1.8pt"/>
        <path d="M404.894 294.404c3.139-3.838 7.958-7.891 16.112-8.698 12.119 15.435 27.334 29.735 36.316 43.863-2.682 6.56-5.317 9.94-9.154 14.126-12.47-17.179-22.956-34.205-43.274-49.29zM350.739 271.643c-4.185 4.012-6.8 6.19-10.985 9.941-13.6-5.342-49.688 1.066-45.413 37.952-5.058 6.627-6.346 9.268-10.618 17.987-8.37-12.906-13.817-31.057 2.66-54.108 13.875-19.105 43.951-22.15 64.356-11.772z" stroke-width="1.8pt"/>
        <path d="M452.245 278.967c.262 7.152.307 7.283-1.262 16.528 21.015 24.591 2.07 41.57-11.25 59.664 5.319 4.448 7.914 8.635 10.879 13.344 23.37-21.888 40.264-58.491 1.633-89.536zM304.177 310.822c4.192 7.522 8.015 10.605 13.318 15.168-29.84 15.536-29.508 52.955-19.498 61.055-.957 11.451 2.308 13.74 3.417 23.974-8.795-2.077-21.545-13.743-23.397-34.087-2.064-19.872 2.788-45.824 26.16-66.11z" stroke-width="1.8pt"/>
        <path d="M454.799 393.156c-4.207 6.535-7.198 9.433-15.06 13.1 1.356-11.902-2.726-30.163-12.522-39.24-9.795-9.08-27.307-12.654-34.617-6.988-4.072 3.08 3.33 25.404 8.88 35.887l-10.36 9.248c-10.73-15.046-15.217-55.225-12.21-59.934 1.561-2.347 22.818-6.165 42.087-.024 19.863 6.212 37.256 25.629 33.802 47.95z" stroke-width="1.8pt"/>
        <path d="M469.292 344.334l-9.662 15.018c3.83 15.76-1.804 32.866-10.72 41.088-9.58 8.584-21.117 11.752-36.701 7.684-2.668 2.727-4.84 5.368-7.985 8.401 20.254 27.347 96.394-18.668 65.068-72.19z" stroke-width="1.8pt"/>
        <path d="M428.117 369.277c4.07 2.466 8.51 9.372 8.88 15.908-14.8 12.703-29.229 27.994-42.178 40.696-6.29-1.355-12.95-3.452-18.867-8.508 19.978-13.443 36.626-32.064 52.165-48.096zM304.916 336.043c12.95 17.76 28.38 36.652 44.66 51.452-3.96 6.97-6.059 9.021-11.73 11.38-15.54-15.17-26.27-24.049-42.92-47.726 2.772-6.736 4.565-10.267 9.99-15.106z" stroke-width="1.8pt"/>
        <path d="M360.89 401.42c10.176 16.154 26.306 25.045 42.994 26.567 8.343.762 26.208-1.713 29.78-3.868 2.019-1.069 15.17-8.204 21.921-13.169 1.11 3.22-6.861 15.263-13.059 20.333-6.195 5.07-15.057 8.505-19.805 9.245-28.532 5.288-54.8-9.185-75.148-28.053 6.595-3.238 10.359-6.232 13.318-11.056z" stroke-width="1.8pt"/>
        <path d="M305.287 365.207c4.084 5.288 8.17 9.356 11.839 13.318-5.674 50.686 21.67 61.269 47.727 48.27a724.12 724.12 0 0 0 17.975 9.665c-17.657 10.928-34.861 12.422-55.363 5.657-13.073-4.237-42.403-40.16-22.178-76.91z" stroke-width="1.8pt"/>
        <path d="M316.757 351.15c13.813-9.62 40.187-8.43 51.055-6.66 1.404.193 5.018 25.31-.26 42.916-5.277 17.604-24.686 35.147-46.682 28.116-2.623-5.73-3.935-10.942-3.942-17.72 32.434 16.552 45.765-32.545 32.015-38.515-3.392-1.312-14.708-1.83-21.438 4.872-4.563-5.302-6.185-7.707-10.748-13.01z" stroke-width="1.8pt"/>
    </g>
    <g fill="#fff" fill-rule="evenodd" stroke="#000" stroke-width="1pt">
        <path d="M164.164 352.033l-9.639 10.164c10.9 8.896 22.344 17.847 32.982 26.22 7.063-1.832 9.94-3.401 13.865-7.064l-37.208-29.32zM167.38 372.963l11.233 8.914c-23.632 21.452-43.34 35.055-70.636 20.143 7.674-4.883 9.592-6.366 15.435-9.68 16.395 5.233 22.866-2.374 43.969-19.377z" stroke-width="1.8pt"/>
        <path d="M118.927 350.805c-3.66 4.248-5.766 7.448-8.993 11.671l30.222 30.123c5.058-2.093 9.873-4.952 13.622-9.137l-34.851-32.657zM210.527 351.791c-3.575 2.704-7.674 5.931-9.679 9.68 12.47 9.854 26.962 28.13 26.161 35.84-.547 2.75-10.812-2.703-16.48-6.017-3.314 2.268-6.367 4.797-9.68 7.587 11.685 11.162 43.467 17.217 47.61 13.866 3.077-2.682-18.573-44.126-37.932-60.956z" stroke-width="1.8pt"/>
        <path d="M215.5 310.98c-5.06 1.483-6.456 2.965-12.036 6.541 13.255 15.26 16.045 28.426 16.743 43.686 2.18 3.49 4.884 5.931 7.324 8.898 12.645-17.354 5.41-42.556-12.03-59.125z" stroke-width="1.8pt"/>
        <path d="M224.131 319.352c2.245 4.205 4.448 8.109 6.28 13.079 7.413-10.028 14.847-32.92 11.772-33.747-22.307-5.929-47.67-2.718-66.679 19.257l11.742 9.259c15.694-12.904 40.298-22.558 41.072-19.098.765 3.68-1.309 5.67-4.187 11.25zM212.883 373.503c4.185 3.751 4.97 5.146 6.54 8.635-12.993 10.116-24.679 24.154-43.166 26.683-7.935-.436-15.347-.61-21.975-6.54 5.494-3.574 7.324-5.581 11.511-8.37 16.744-.001 35.055-9.682 47.09-20.408z" stroke-width="1.8pt"/>
        <path d="M197.448 301.3c-4.883 2.354-9.243 4.447-13.08 7.85-13.78-5.67-35.666 5.929-45.784 20.141-3.05-2.703-7.934-5.927-10.987-9.415 10.987-11.862 25.377-33.925 69.85-18.576zM211.835 330.6c2.441 4.797 4.36 8.807 5.494 13.603-8.896 8.632-19.62 18.313-28.253 27.208-4.185-3.574-7.324-6.103-12.033-10.202 13.516-11.858 23.63-20.318 34.792-30.609z" stroke-width="1.8pt"/>
        <path d="M165.46 309.823c-5.423 1.711-8.834 3.632-13.271 7.435 14.04 12.732 23.11 20.493 36.626 32.701 5.494-3.75 7.585-6.453 12.555-10.202-10.987-9.243-24.923-20.691-35.91-29.934zM165.53 329.291l10.689 9.924-32.52 34.126-10.221-9.94c8.982-11.424 20.977-23.733 32.052-34.11z" stroke-width="1.8pt"/>
        <path d="M152.45 342.152l-8.592 9.155c-11.946-10.114-24.555-21.092-35.717-31.993 3.66-3.649 5.243-5.044 9.74-7.423l34.569 30.261z" stroke-width="1.8pt"/>
        <path d="M152.189 298.684c-6.19 2.965-9.767 5.145-14.65 10.465-20.84-3.488-29.65 10.028-39.242 19.881-2.79-3.488-5.843-7.237-8.633-12.556 14.911-15.349 44.735-27.557 62.525-17.79zM118.442 329.552l9.94 9.159c-9.243 11.336-19.208 23.718-28.19 35.316-3.924-2.704-6.341-7.238-7.126-13.866l25.376-30.609z" stroke-width="1.8pt"/>
        <path d="M106.408 303.393c-4.41 2.066-8.111 4.709-11.772 7.587-2.268-2.007-8.921-3.587-8.372-.524.687 4.162 13.43 22.063 21.713 31.394l-8.372 9.418c-14.214-13.605-33.832-48.379-29.561-55.462 4.009-6.386 26.597 1.395 36.364 7.587z" stroke-width="1.8pt"/>
        <path d="M82.34 330.074c3.663 5.669 6.017 8.459 9.42 12.296-2.006 20.929 4.359 31.916 17.789 41.335-3.577 3.402-7.676 6.277-12.298 7.586-12.733-12.734-35.141-32.265-14.911-61.217z" stroke-width="1.8pt"/>
        <path d="M80.87 374.61c2.615 2.878 6.452 6.878 8.807 10.015-1.658 3.4-6.59 9.64-3.935 10.329 9.201 2.455 25.113-11.337 36.885-19.36 3.577 3.75 6.889 6.454 10.464 9.942-19.271 12.208-47.106 31.862-63.57 27.992-5.518-1.318 2.366-25.575 11.348-38.918z" stroke-width="1.8pt"/>
    </g>
    <g fill="#fff" fill-rule="evenodd" stroke="#000" stroke-width="1pt">
        <path d="M596.544 303.925c5.909 4.37 8.36 6.833 13.525 11.029 21.402-6.581 32.463 9.747 43.46 21.85 2.79-3.489 5.282-5.55 8.072-10.869-13.786-17.317-42.206-39.65-65.057-22.01zM631.698 337.607l-10.786 9.44c9.243 11.337 20.335 18.375 29.317 29.972 4.766-4.953 6.903-8.362 7.97-12.46l-26.501-26.952zM585.132 357.839l9.92 10.162c-10.901 8.896-24.313 18.13-34.95 26.502-5.095-2.745-6.566-4.808-10.774-8.752l35.804-27.912zM583.602 377.079l-11.796 8.915c23.632 21.453 43.904 37.586 72.042 21.55-7.674-4.884-5.09-3.27-13.747-8.556-14.706 6.639-26.24-3.78-46.5-21.91z" stroke-width="1.8pt"/>
        <path d="M631.777 358.86c4.784 3.966 7.17 6.324 10.677 10.545l-34.16 27.312c-4.214-2.376-7.339-4.952-11.651-9.137l35.134-28.72zM539.05 355.909c3.575 2.704 7.392 5.65 9.398 9.398-12.47 9.853-25.838 25.036-25.037 32.747.548 2.749 8.21-1.085 13.878-4.4 4.369 3.954 6.227 5.5 10.595 9.132-12.247 10.811-42.905 11.241-47.048 7.89-3.076-2.682 17.449-38.218 38.214-54.767z" stroke-width="1.8pt"/>
        <path d="M537.17 317.207c5.411 2.679 7.795 4.228 12.037 7.805-13.536 15.05-17.17 20.763-17.028 35.81-2.457 3.349-9.1 10.153-11.54 13.118-6.175-19.32-1.755-37.633 16.532-56.733z" stroke-width="1.8pt"/>
        <path d="M529.945 325.439c-2.806 3.922-4.447 5.859-7.122 9.703-6.288-10.31-16.474-35.515-13.178-36.56 20.612-6.34 42.464 6.421 61.474 28.397-2.978 3.345-6.657 6.69-10.757 9.117-11.194-14.871-31.86-24.525-32.634-21.065-.765 3.68-.663 4.828 2.217 10.408zM538.944 374.526c-4.749 4.032-7.22 7.397-9.915 11.73 12.994 10.115 21.546 23.111 40.072 25.275 9.021 1.055 19.002.234 26.755-5.134-5.494-3.575-10.91-8.534-15.097-11.322-18.64 8.226-32.03-8.697-41.815-20.549z" stroke-width="1.8pt"/>
        <path d="M546.786 304.29c4.32 2.916 8.116 6.417 12.517 9.258 13.78-5.67 26.102-4.76 51.408 23.8 3.051-2.704 7.373-5.368 10.424-8.855-14.078-16.081-36.905-45.74-74.349-24.203zM539.43 336.968c-3.568 4.514-4.643 7.119-5.777 11.916 8.896 9.194 18.497 18.592 27.41 27.207 4.186-3.575 6.76-5.26 11.469-9.359-13.234-12.139-21.66-19.474-33.102-29.764z" stroke-width="1.8pt"/>
        <path d="M585.875 315.204c5.774 3.398 8.411 5.814 11.51 9.264-14.037 12.732-21.702 19.65-36.343 31.014-5.493-3.75-5.898-5.89-10.868-9.639 10.989-9.243 24.714-21.394 35.7-30.64z" stroke-width="1.8pt"/>
        <path d="M583.765 336.782l-10.407 9.081 33.08 32.72 11.35-8.814c-8.985-11.426-23.791-22.046-34.023-32.987zM597.69 348.52l9.434 9.718c11.948-10.116 25.682-21.092 36.842-31.995-3.66-3.648-5.526-5.605-10.02-7.985L597.69 348.52z" stroke-width="1.8pt"/>
        <path d="M643.73 307.791c4.13 3.473 7.267 6.117 10.928 8.995 2.27-2.007 9.933-3.841 10.624-.806 1.843 8.38-13.43 23.75-21.713 33.082l8.933 9.135c29.122-25.416 28.195-46.762 24.5-59.96-1.46-6.493-23.222 1.957-33.271 9.554z" stroke-width="1.8pt"/>
        <path d="M670.05 338.973c-4.226 5.668-6.582 8.74-10.825 13.14 1.16 18.115-6.048 22.071-20.041 37.68 4.701 4.526 6.83 5.993 12.017 9.273 12.735-12.735 27.828-38.454 18.85-60.093z" stroke-width="1.8pt"/>
        <path d="M667.302 376.758c-2.616 4.848-3.923 7.722-7.121 12.266 1.658 3.4 8.278 14.983 5.623 15.672-9.202 2.455-25.115-12.742-37.447-23.859-4.14 2.904-6.61 5.328-11.029 8.815 19.27 12.21 42.045 31.583 58.51 27.71 5.516-1.315 2.132-26.135-8.536-40.604z" stroke-width="1.8pt"/>
    </g>
    <g fill="#fff" fill-rule="evenodd" stroke="#000" stroke-width="1pt">
        <path d="M409.104 56.389c-3.078-2.526-6.215-4.87-10.062-8.11 9.468-7.131 30.908-14.01 32.467-10.621 10.1 25.148-3.957 37.976-28.25 60.195l-9.793-9.003c14.592-14.006 30.77-29.828 25.909-33.282-2.36-1.78-4.69-2.056-10.271.82z" stroke-width="1.8pt"/>
        <path d="M424.071 78.27c-3.48 4.602-5.922 5.8-9.324 9.637 4.059 13.451-8.599 33.24-20.308 44.154 2.704 3.049 7.287 9.36 10.775 12.412 11.232-13.608 31.587-39.907 18.857-66.204zM393.435 109.723l-11.374-10.431-32.069 33.057 9.707 11.298c11.425-8.982 23.359-22.849 33.736-33.924z" stroke-width="1.8pt"/>
        <path d="M421.583 122.056c-4.438 7.198-2.872 4.547-7.002 11.068 7.069 20.445-8.27 35.714-18.124 45.306 3.489 3.354 6.957 7.06 12.276 9.85 15.349-14.911 33.756-43.664 12.85-66.224zM373.475 107.975l-11.144 11.56c-8.896-10.901-21.661-22.461-30.033-33.099 2.228-7.063 4.594-9.146 8.654-12.274l32.523 33.813zM350.278 106.796l-10.762-11.092c-22.646 24.03-32.153 44.955-17.242 72.25 4.039-7.954 5.828-10.456 9.423-16.018-5.233-16.394.453-24.6 18.581-45.14z" stroke-width="1.8pt"/>
        <path d="M371.5 157.005c-4.248 3.66-6.653 6.959-10.875 10.186l-29.4-33.593c2.374-5.058 3.782-8.655 7.967-12.406l32.308 35.813zM374.54 67.558c-3.945 3.6-8.76 6.642-13.775 10.614-9.853-12.47-27.265-25.277-34.976-24.476-2.748.545.317 5.641 3.63 11.31-2.267 3.313-5.592 6.764-8.382 10.077-12.353-10.492-13.239-33.525-9.887-37.668 2.682-3.076 48.55.79 63.39 30.143z" stroke-width="1.8pt"/>
        <path d="M415.962 65.349c-2.608 3.654-4.604 5.593-8.181 9.486-15.26-13.255-24.262-21.992-42.307-19.906-3.49-2.18-8.318-6.077-11.284-8.518 17.353-12.645 47.988-1.287 61.772 18.938zM348.734 66.697c-3.751-4.185-6.738-6.444-11.07-8.364-12.899 10.207-20.34 20.467-22.87 38.955-.408 7.935-.302 17.336 5.628 23.964 3.855-7.884 7.264-11.84 10.756-15.887-3.578-17.54 1.66-25.44 17.556-38.668z" stroke-width="1.8pt"/>
        <path d="M399.03 67.676c-5.078-4.69-7.237-7.095-13.157-9.073-8.633 8.895-24.375 18.567-33.271 27.2 3.856 4.184 5.396 5.844 10.058 10.555 14.951-12.11 24.392-18.926 36.37-28.682zM411.874 107.69c-2.277 5.282-3.774 7.546-7.437 12.966-12.732-14.04-19.417-18.247-31.625-31.763 4.454-3.524 7.04-5.902 11.07-8.76 10.368 9.86 17.622 16.29 27.992 27.557zM383.335 121.095l-9.95 10.58c10.114 11.947 22.683 23.76 33.584 34.922 3.79-4.223 5.044-6.437 7.002-11.214l-30.636-34.288zM394.906 155.22l-10.259-10.387c-11.055 10.086-22.22 23.166-33.816 32.148 3.265 3.924 7.983 6.459 14.33 7.242l29.745-29.004zM424.294 168.044c-2.49 4.553-4.404 7.413-7.142 11.214 2.007 2.268 1.746 14.778-1.325 14.27-4.162-.406-23.935-17.57-33.266-25.854l-9.932 9.846c13.604 14.214 53.395 41.738 55.461 35.924 1.831-5.94 4.083-33.102-3.796-45.4z" stroke-width="1.8pt"/>
        <path d="M395.015 197.172c-4.824-3.944-9.885-8.006-14.284-11.408-20.929.88-30.091-5.156-39.51-18.585-3.404 4.42-4.94 7.975-8.217 14.286 11.142 14.722 31.586 31.232 62.011 15.707z" stroke-width="1.8pt"/>
        <path d="M352.051 199.157c-5.41-3.46-9.71-6.85-13.69-10.049-2.84 2.22-8.38 5.423-8.671 2.37.331-9.518 11.433-24.742 19.456-36.514-3.188-4.14-5.096-6.608-9.427-10.464-24.168 21.707-28.213 54.711-23.781 71.457 1.364 5.506 22.77-6.975 36.113-16.8z" stroke-width="1.8pt"/>
    </g>
    <g fill="#fff" fill-rule="evenodd" stroke="#000" stroke-width="1pt">
        <path d="M411.655 771.494c-4.126 4.126-7.888 8.847-12.013 13.254 25.69 21.938 41.252 50.344 31.502 77.063 3.479 4.745 6.445 10.69 10.324 18.02 10.876-43.315 7.107-77.114-29.813-108.337zM359.703 668.87l11.816 14.063-45.848 59.907c-3.586-6.422-5.86-12.54-8.388-20.696l42.42-53.275zM353.515 707.121c-3.186 4.313-7.499 9.468-10.687 13.78 13.783 15.938 30.658 34.408 44.439 50.345 4.208-4.721 8.219-9.128 12.625-13.252-15.001-16.126-31.376-34.749-46.377-50.873zM317.798 477.614c2.669-2.646 28.249 7.736 35.321 15.937-5.108 2.59-9.517 5.825-12.938 9.542-3.095-2.626-10.064-8.044-10.854-6.073-4.812 13.737 11.158 36.471 19.97 49.503-4.102 4.887-5.99 7.125-11.615 13.7-25.407-29.72-25.441-77.1-19.884-82.61z" stroke-width="1.8pt"/>
        <path d="M331.148 514.424c3.305 7.022 5.4 10.818 8.305 15.505 8.577-13.71 21.47-31.126 44.439-24.752 3.938-3.562 9.28-7.688 13.219-11.25-26.438-14.812-53.334.666-65.963 20.497z" stroke-width="1.8pt"/>
        <path d="M374.892 516.71c9.563-15.001 46.245-42.748 59.346-41.064 6.215.933.55 37.723-5.262 52.065-2.602-3.794-7.59-11.18-10.193-14.576 2.344-4.313 4.977-15.646 2.236-14.708-10.325 3.435-27.614 19.642-35.439 31.783-3.96-4.405-7.041-7.654-10.688-13.5zM363.361 506.302c-4.97 1.595-9.657 4.876-12.658 8.721 9.845 14.344 24.189 32.062 34.314 43.033 4.97-6.093 6.563-9.378 11.252-14.627-10.406-12.656-19.97-23.344-32.908-37.127z" stroke-width="1.8pt"/>
        <path d="M362.517 531.335c3.094 3.375 7.032 8.72 10.127 12.656-12.752 15.845-26.792 36.057-39.543 51.9-3.305-4.676-6.725-14.763-7.43-20.399 11.72-13.782 25.126-30.376 36.846-44.157z" stroke-width="1.8pt"/>
        <path d="M320.494 530.505c2.988 7.418 5.647 13.018 9.396 19.393-14.906 25.782 7.281 54.857 14.875 67.42-2.673 4.897-6.856 10.556-10.325 14.856-12.123-13.728-36.729-68.949-13.946-101.669zM360.267 560.304c-3.562 4.594-6.927 9.585-10.489 14.179 12.188 17.25 25.186 37.081 37.374 54.33 3.187-4.593 7.615-10.194 10.803-14.788-11.813-17.251-25.877-36.47-37.688-53.72z" stroke-width="1.8pt"/>
        <path d="M407.587 528.138c-12.094 16.033-20.04 26.541-34.945 49.041 3.562 6.47 7.688 10.408 11.25 15.47 12-16.876 23.191-32.462 33.222-47.37-1.841-5.833-4.593-11.071-9.527-17.14z" stroke-width="1.8pt"/>
        <path d="M410.696 504.664c-6.482 4.3-8.725 6.259-13.085 10.903 17.437 15.47 27.125 38.016 19.667 62.341 3 4.311 8.318 14.351 11.12 18.862 14.251-28.593 11.641-65.2-17.702-92.106z" stroke-width="1.8pt"/>
        <path d="M406.113 561.992c-3.094 4.218-7.033 9.843-10.127 14.062 18.094 25.877 34.781 54.283 28.127 76.784 4.31 7.875 7.781 15.187 10.686 21.377 15.563-27.846 3.001-69.473-28.686-112.223z" stroke-width="1.8pt"/>
        <path d="M410.33 598.158c4.687 8.086 6.214 10.595 8.485 17.602-10.873 17.72-24.048 35.952-36.046 51.702-3.94-5.438-8.439-10.31-12.377-15.749 12.938-16.594 27-36.96 39.938-53.555zM362.317 593.707c3.938 5.355 7.348 10.744 10.888 16.099-12.281 18.75-28.501 40.876-42.469 58.22-3.281-5.72-4.876-10.594-7.313-19.97 13.032-16.5 26.062-37.253 38.894-54.35z" stroke-width="1.8pt"/>
        <path d="M314.986 593.458c2.78 7.452 5.872 16.64 9.562 23.098-10.219 27.938 9.655 58.408 17.719 73.69-3.094 3.56-7.594 9.374-10.971 12.937-19.03-21.563-36.092-69.317-16.31-109.725zM356.61 634.556c-4.312 5.168-6.938 9.178-11.134 14.825 13.313 17.25 28.759 36.833 42.072 54.084 3.47-3.845 7.5-8.532 10.97-12.377-12.47-18.374-27.752-39-41.909-56.532zM410.33 631.18c-4.406 5.251-7.407 9.773-11.133 15.502 19.687 22.598 35.439 57.962 26.72 77.744 5.063 8.062 6.913 12.885 9.727 18.133 21.096-28.873-3.375-77.72-25.314-111.378z" stroke-width="1.8pt"/>
        <path d="M416.238 671.4c3.562 5.812 6.28 12.47 8.156 18.844-13.877 14.908-29.438 32.346-43.314 47.252-4.5-5.062-8.156-8.437-12.094-13.5 14.812-17.062 32.438-35.532 47.252-52.596zM310.765 666.9c3.294 7.898 5.51 13.69 9.563 20.812-14.488 28.765 7.596 61.887 17.72 73.044-4.22 4.5-9.927 10.044-14.147 14.544-19.688-19.219-38.169-61.616-13.136-108.4zM410.33 706.277c-3.375 3.281-6.469 7.407-9.844 10.688 19.782 24.189 32.814 48.377 29.252 72.285 5.013 7.272 8.107 12.105 11.928 22.161 9.75-29.345 4.477-66.789-31.336-105.134z" stroke-width="1.8pt"/>
        <path d="M417.08 740.027c3.939 7.126 5.064 10.031 7.875 16.594-14.718 15.095-30.845 34.688-45.563 49.783-5.438-4.875-8.062-7.5-12.656-12.939 15.376-15.937 34.969-37.5 50.344-53.438zM358.298 738.904c3.749 4.217 7.5 7.875 11.25 12.092-16.595 18.376-35.439 39.845-52.033 58.221-3.938-4.22-6.188-11.25-7.594-17.72 15.375-16.687 33.001-35.906 48.377-52.593z" stroke-width="1.8pt"/>
        <path d="M303.173 742.56c3.281 7.687 6.28 12.842 9.842 18.842-12.467 36.095 9.245 55.83 20.682 69.424-4.43 5.05-6.656 7.304-10.97 12.193-16.806-11.38-42.056-50.864-19.554-100.46zM348.734 774.904l-13.78 16.032 51.469 54.281 14.346-14.625-52.035-55.688zM421.017 808.936c5.438 5.438 7.5 12.282 9.563 17.437-15.843 16.313-31.97 32.907-47.813 49.22-4.03-4.218-8.064-8.155-11.814-12.374 15.563-16.407 34.501-37.876 50.064-54.283zM352.674 810.342l14.06 14.344-51.701 57.129c-4.372-6.277-6.228-9.621-9.049-19.77l46.69-51.703z" stroke-width="1.8pt"/>
        <path d="M297.215 805.991c3.34 9.013 5.218 12.16 8.852 19.404-7.877 26.158 2.416 57.759 26.885 76.322-3.962 4.041-9.061 8.93-12.823 12.973-22.124-20.814-45.78-62.705-22.914-108.699zM349.861 843.81c-3.658 4.125-7.313 8.25-10.688 12.376 18.093 18.844 37.314 39.094 55.409 57.939 4.687-5.156 8.25-9.468 11.813-14.345-18.282-18.093-38.253-37.875-56.534-55.97zM413.424 844.092c-4.125 4.783-8.812 9.283-13.501 14.063 33.564 29.344 39.564 49.69 34.876 70.596 3.375 4.407 7.314 14.438 10.689 18.845 15.845-27.002-1.782-79.596-32.064-103.504z" stroke-width="1.8pt"/>
        <path d="M358.861 877c4.406 4.687 8.25 9.093 12.658 13.78-19.034 19.22-40.596 39.05-60.19 57.145-3.435-5.672-4.936-9.634-6.752-18.331C322.39 913.095 341.048 893.5 358.86 877z" stroke-width="1.8pt"/>
        <path d="M294.453 879.53c3.469 7.595 5.53 11.252 10.125 18.283-9.94 28.595 9.854 60.084 28.604 80.802-6 5.44-11.437 9.585-17.719 12.21-24.095-26.156-48.105-62.074-21.01-111.295zM347.33 914.969c-4.782 3.938-8.72 7.875-12.66 12.375 18.845 17.908 40.62 37.337 59.464 55.245 7.637-4.966 9.155-6.503 14.03-11.766-18.937-17.907-41.896-37.948-60.834-55.854zM421.416 881.383c-14.907 18.095-32.212 39.598-47.12 57.691 5.002 5.075 8.847 8.028 13.534 12.74 13.5-16.782 30.377-36.656 43.877-53.44-2.189-6.665-6.001-12.491-10.29-16.991zM420.174 913.001c-3.468 4.5-8.377 9.728-11.845 14.228 23.814 17.625 32.398 50.097 33.503 65.367.054 4.64-14.557-2.915-21.307-8.82-3.187 2.907-8.132 7.882-11.32 10.789 10.22 10.875 42.437 22.595 44.72 18.282 4.694-9.428 4.593-63.376-33.75-99.846z" stroke-width="1.8pt"/>
        <path d="M427.09 948.555c3.877 5.989 6.2 9.808 8.273 17.883-31.596 41.629-63.753 54.73-99.565 37.292 6.21-4.557 12.448-10.351 17.85-15.602 31.783 4.127 41.377 2.147 73.442-39.573z" stroke-width="1.8pt"/>
        <path d="M361.392 952.376c4.687 4.688 8.532 7.97 13.219 12.656-28.22 31.408-47.581 55.678-97.879 53.158-4.932-.22-1.85-50.422 10.244-68.515 2.425 7.167 6.423 13.568 9.447 18.15-5.438 8.25-.699 20.087 3.092 23.646 11.68 11.24 43.407-19.032 61.877-39.095z" stroke-width="1.8pt"/>
    </g>
</svg>
