<svg xmlns="http://www.w3.org/2000/svg" xmlns:xlink="http://www.w3.org/1999/xlink" width="200" height="200" viewBox="-6 -6 220 220">
    <defs>
        <g transform="matrix(1.32377 0 0 -1.32307 -531.467 612.335)" fill="none" stroke-linejoin="round" id="a" stroke="#000" stroke-width="0">
            <path d="M66.438 8.125l-.657 7.656c1.697.149 3.332.548 4.938 1.094C68.799 26.709 60.282 34 50 34c-.864 0-1.736-.051-2.594-.156l-.937 7.625c1.168.143 2.353.218 3.531.218 15.192 0 27.85-11.84 28.844-27a3.85 3.85 0 0 0-2.156-3.718 28.788 28.788 0 0 0-10.25-2.844z" style="marker:none" fill="#540" overflow="visible"/>
            <path d="M63.906 9.563v4.593c2.94 0 5.817.679 8.532 1.781-1.562 11.154-11 19.626-22.438 19.626-1.325 0-2.633-.146-3.938-.376l-.812 4.532c1.568.276 3.158.437 4.75.437 14.39 0 26.34-11.203 27.281-25.562a2.3 2.3 0 0 0-1.25-2.219 27.459 27.459 0 0 0-12.125-2.813z" style="marker:none" fill="#fc0" stroke="none" overflow="visible"/>
            <path d="M36.094 8a28.88 28.88 0 0 0-12.782 2.969 3.85 3.85 0 0 0-2.156 3.719A28.852 28.852 0 0 0 23.813 25l6.968-3.25c-.712-1.528-1.169-3.135-1.5-4.781 2.199-.75 4.477-1.282 6.813-1.282 11.756 0 21.187 9.463 21.187 21.22 0 6.158-2.777 11.847-7.343 15.843-1.256-1.107-2.412-2.311-3.376-3.688L40.25 53.47a28.98 28.98 0 0 0 7.625 7.468 3.85 3.85 0 0 0 4.25 0C60.148 55.578 65 46.556 65 36.907 65 20.988 52.011 8 36.094 8z" style="marker:none" fill="#540" overflow="visible"/>
            <path d="M36.094 9.563c-4.196 0-8.362.956-12.125 2.812a2.3 2.3 0 0 0-1.25 2.219 27.284 27.284 0 0 0 3.593 11.875l3.97-2.282c-1.464-2.533-2.282-5.363-2.688-8.25 2.707-1.095 5.57-1.78 8.5-1.78 12.593 0 22.75 10.156 22.75 22.75 0 7.03-3.356 13.52-8.844 17.812-2.295-1.795-4.32-3.906-5.781-6.438l-4 2.313a27.362 27.362 0 0 0 8.5 9.062 2.3 2.3 0 0 0 2.562 0 27.371 27.371 0 0 0 12.157-22.75c0-15.08-12.265-27.343-27.344-27.343z" style="marker:none" fill="#fc0" stroke="none" overflow="visible"/>
            <path d="M63.906 8C47.99 8 35 20.989 35 36.906c0 9.65 4.852 18.671 12.875 24.032a3.85 3.85 0 0 0 4.25 0 28.984 28.984 0 0 0 7.625-7.47l-6.313-4.406c-.963 1.377-2.12 2.58-3.374 3.688-4.567-3.996-7.344-9.685-7.344-15.844 0-11.756 9.431-21.218 21.187-21.218 2.336 0 4.614.53 6.813 1.28-.332 1.647-.788 3.254-1.5 4.782L76.188 25a28.858 28.858 0 0 0 2.656-10.313 3.85 3.85 0 0 0-2.156-3.718A28.881 28.881 0 0 0 63.906 8z" style="marker:none" fill="#540" overflow="visible"/>
            <path d="M63.906 9.563c-15.08 0-27.343 12.264-27.343 27.343a27.37 27.37 0 0 0 12.156 22.75 2.3 2.3 0 0 0 2.562 0 27.365 27.365 0 0 0 8.5-9.062l-4-2.313C54.32 50.813 52.295 52.924 50 54.72c-5.488-4.293-8.844-10.782-8.844-17.813 0-12.593 10.156-22.75 22.75-22.75 2.93 0 5.793.686 8.5 1.781-.406 2.887-1.224 5.717-2.687 8.25l3.969 2.282a27.286 27.286 0 0 0 3.593-11.875 2.3 2.3 0 0 0-1.25-2.219 27.459 27.459 0 0 0-12.125-2.813z" style="marker:none" fill="#fc0" stroke="none" overflow="visible"/>
            <path d="M33.563 8.125a28.786 28.786 0 0 0-10.25 2.844 3.85 3.85 0 0 0-2.157 3.719c.994 15.16 13.652 27 28.844 27 1.177 0 2.363-.076 3.531-.22l-.937-7.624c-.858.105-1.73.156-2.594.156-10.282 0-18.8-7.29-20.719-17.125 1.606-.546 3.241-.945 4.938-1.094l-.657-7.656z" style="marker:none" fill="#540" overflow="visible"/>
            <path d="M36.094 9.563c-4.196 0-8.362.956-12.125 2.812a2.3 2.3 0 0 0-1.25 2.219c.94 14.36 12.89 25.562 27.281 25.562 1.592 0 3.182-.16 4.75-.437l-.813-4.532c-1.304.23-2.613.376-3.937.376-11.438 0-20.876-8.472-22.438-19.626 2.715-1.102 5.591-1.78 8.532-1.78V9.561z" style="marker:none" fill="#fc0" stroke="none" overflow="visible"/>
        </g>
    </defs>
    <g stroke="#000" stroke-width="0">
        <path d="M103.996 21.836c-45.376 0-82.16 36.784-82.16 82.16s36.784 82.16 82.16 82.16 82.16-36.784 82.16-82.16-36.784-82.16-82.16-82.16zm0 25.28c31.414 0 56.88 25.466 56.88 56.88s-25.466 56.88-56.88 56.88-56.88-25.466-56.88-56.88 25.466-56.88 56.88-56.88z" fill="#fc0" stroke="#540" stroke-width=".69349773"/>
        <path d="M103.995 2.875c-15.274 0-29.758 3.386-42.74 9.448L71.953 35.25A76.141 76.141 0 0 0 35.25 71.952L12.323 61.256C6.261 74.237 2.875 88.72 2.875 103.995c0 15.273 3.386 29.757 9.448 42.739l22.926-10.697a76.141 76.141 0 0 0 36.703 36.703l-10.696 22.926c12.981 6.063 27.465 9.449 42.739 9.449 15.273 0 29.757-3.386 42.739-9.449l-10.697-22.926a76.141 76.141 0 0 0 36.703-36.703l22.926 10.697c6.063-12.982 9.449-27.466 9.449-42.74 0-15.273-3.386-29.757-9.449-42.738L172.74 71.952a76.141 76.141 0 0 0-36.703-36.703l10.697-22.926c-12.982-6.062-27.466-9.448-42.74-9.448zM77.293 46.704l8.721 18.707a15.158 15.158 0 0 1 7.869 13.304c0 8.377-6.791 15.168-15.168 15.168a15.158 15.158 0 0 1-13.304-7.869l-18.707-8.721a63.447 63.447 0 0 1 30.589-30.59zm53.404 0a63.456 63.456 0 0 1 30.588 30.589l-18.707 8.721a15.158 15.158 0 0 1-13.303 7.869c-8.377 0-15.168-6.791-15.168-15.168a15.158 15.158 0 0 1 7.868-13.304l8.722-18.707zm-51.982 67.403c8.377 0 15.168 6.79 15.168 15.168a15.158 15.158 0 0 1-7.869 13.303l-8.721 18.707a63.456 63.456 0 0 1-30.59-30.588l18.708-8.722a15.158 15.158 0 0 1 13.304-7.868zm50.56 0a15.158 15.158 0 0 1 13.303 7.868l18.707 8.722a63.465 63.465 0 0 1-30.588 30.588l-8.722-18.707a15.158 15.158 0 0 1-7.868-13.303c0-8.377 6.79-15.168 15.168-15.168z" fill="#540" stroke="none"/>
        <use xlink:href="#a" transform="matrix(0 .69498 .71326 0 -234.2 427.355)"/>
        <use xlink:href="#a" transform="matrix(-.69498 0 0 .71326 -219.363 -234.2)"/>
        <use xlink:href="#a" transform="matrix(0 .69498 -.71326 0 442.192 427.355)"/>
        <use xlink:href="#a" transform="matrix(-.69498 0 0 -.71326 -219.363 442.192)"/>
        <path d="M103.989.347c-15.647 0-30.492 3.47-43.8 9.685l-2.301 1.07 1.07 2.302L83.73 66.48l.341.752.73.387a12.632 12.632 0 0 1 6.563 11.098c0 7.011-5.637 12.648-12.648 12.648-4.8 0-8.95-2.654-11.098-6.563l-.387-.73-.752-.341-53.075-24.771-2.301-1.071-1.071 2.301C3.817 73.497.347 88.342.347 103.99c0 15.646 3.47 30.514 9.685 43.822l1.07 2.279 2.302-1.071L66.48 124.27l.752-.341.387-.73a12.632 12.632 0 0 1 11.098-6.563c7.011 0 12.648 5.637 12.648 12.648 0 4.8-2.654 8.928-6.563 11.075l-.73.41-.341.752-24.771 53.075-1.071 2.301 2.301 1.071c13.308 6.215 28.153 9.685 43.8 9.685 15.646 0 30.514-3.47 43.822-9.685l2.279-1.07-1.071-2.302-24.749-53.075-.341-.752-.73-.41c-3.909-2.147-6.563-6.274-6.563-11.075 0-7.011 5.637-12.648 12.648-12.648 4.8 0 8.928 2.654 11.075 6.563l.41.73.752.341 53.075 24.749 2.301 1.07 1.071-2.278c6.215-13.308 9.685-28.176 9.685-43.822 0-15.647-3.47-30.492-9.685-43.8l-1.07-2.301-2.302 1.07L141.52 83.73l-.752.341-.41.73c-2.147 3.909-6.274 6.563-11.075 6.563a12.615 12.615 0 0 1-12.648-12.648c0-4.8 2.654-8.95 6.563-11.098l.73-.387.341-.752 24.749-53.075 1.07-2.301-2.278-1.071C134.503 3.817 119.635.347 103.989.347zm0 5.059c14.004 0 27.275 3.014 39.332 8.272l-23.38 50.135c-4.986 3.133-8.364 8.604-8.364 14.903 0 9.743 7.964 17.707 17.707 17.707 6.31 0 11.796-3.386 14.926-8.386l50.112-23.381c5.263 12.062 8.272 25.32 8.272 39.333 0 14.004-3.014 27.275-8.272 39.332l-50.112-23.358c-3.13-5-8.616-8.386-14.926-8.386-9.743 0-17.707 7.964-17.707 17.707 0 6.31 3.386 11.796 8.386 14.926l23.358 50.112c-12.057 5.258-25.328 8.272-39.332 8.272-14.012 0-27.27-3.009-39.333-8.272l23.38-50.112c5.001-3.13 8.387-8.616 8.387-14.926 0-9.743-7.964-17.707-17.707-17.707-6.299 0-11.77 3.378-14.903 8.364l-50.135 23.38c-5.258-12.057-8.272-25.328-8.272-39.332 0-14.012 3.009-27.27 8.272-39.333l50.135 23.403c3.133 4.986 8.604 8.364 14.903 8.364 9.743 0 17.707-7.964 17.707-17.707 0-6.299-3.378-11.77-8.364-14.903L64.656 13.678c12.062-5.263 25.32-8.272 39.333-8.272z" style="marker:none" fill="#fc0" stroke="#540" stroke-width=".69349773" overflow="visible"/>
        <path d="M116.636 103.996c0 6.981-5.659 12.64-12.64 12.64-6.98 0-12.64-5.659-12.64-12.64 0-6.98 5.66-12.64 12.64-12.64 6.981 0 12.64 5.66 12.64 12.64z" fill="#fc0" stroke="none"/>
    </g>
</svg>
