<svg xmlns="http://www.w3.org/2000/svg" xmlns:xlink="http://www.w3.org/1999/xlink" width="200" height="200" viewBox="0 0 416 416">
    <g transform="translate(208 208)">
        <g stroke="#000" fill="none" stroke-width="5">
            <circle r="140" stroke="red" stroke-width="37.5"/>
            <circle r="120"/>
            <circle r="160"/>
            <circle r="140" stroke-width="20"/>
        </g>
        <path d="M-11.716-31.25c-.068 4.796-3.142 10-5.96 12.95-3.074 3.216-8.256 6.029-13.155 6.885-3.7 7.468-2.878 16.478-.411 22.918 4.35.582 8.834 2.514 12.127 5.55 3.586 3.496 7.16 8.461 7.605 13.257 9.318 4.522 15.552 3.7 23.02.617.172-4.42 3.476-10.024 6.989-13.258 3.095-3.026 6.2-5.001 12.127-6.166 3.494-6.577 4.727-14.388.41-23.02-4.59-.103-9.42-3.434-12.743-6.578-3.05-2.886-6.646-8.359-6.988-12.949-7.537-3.494-14.868-3.289-23.02-.206z" fill-rule="evenodd" stroke="#000" stroke-width="1pt"/>
        <g id="a" fill-rule="evenodd">
            <path d="M-11.751-31.03c5.813-3.356 16.867-3.422 23.09.41-1.079-10.717 8.277-22.87 23.312-21.708 12.88-44.944 23.876-90.13 36.756-135.074C49.39-196.19 24.4-200.709-.05-200.769c-24.313.086-50.512 4.769-71.066 13.583 10.414 45.492 24.528 89.897 34.942 135.39 14.234-2.587 25.37 7.64 24.424 20.765z" stroke="#000" stroke-width="1pt"/>
            <g fill="red" stroke-width="1pt">
                <path d="M465.521 316.366c5.522 1.405 10.027 3.392 13.515 6.105 4.168-6.202 12.403-10.95 20.058-9.884-3.392 12.693-15.357 28.729-28.631 35.899 1.841 4.263 3.68 7.508 7.557 10.028 8.623-5.523 19.209-17.956 24.852-25.58 6.38-9.01 12.882-31.566 6.977-33.427-5.932-1.966-35.173 5.231-44.328 16.859z" transform="rotate(-90 -4.304 339.449)"/>
                <path d="M497.24 344.696c-2.713 2.519-4.955 5.826-8.104 7.909 3.73 4.506 10.299 16.796 9.042 23.708-6.298-.388-19.292-10.843-23.33-15.352-4.248-4.527-11.896-13.249-9.037-21.485-3.149-2.569-6.588-3.973-12.207-5.959-3.15 11.966 6.702 30.01 15.599 38.354 10.946 10.507 37.397 19.717 40.928 16.321 2.196-1.995-.31-17.321-2.446-24.951-2.72-8.861-7.248-14.04-10.445-18.545z" transform="rotate(-90 -4.231 339.23)"/>
                <path d="M483.834 331.772c-1.308 3.246-5.233 6.782-8.576 8.721-8.43-5.717-21.006-12.273-29.649-11.047-12.017 1.663-25.967 9.641-35.463 13.225 10.949 5.524 29.747 11.192 43.166 12.355 1.695 4.263 5.716 11.142 7.556 13.08-34.202 1.55-58.666-23.061-79.789-24.707 17.635-1.26 36.99-17.619 51.45-22.382 12.481-4.362 36.141-6.396 51.305 10.755z" transform="rotate(-90 -4.231 339.23)"/>
            </g>
            <path d="M-29.94-58.898c-10.464-43.311-20.347-78.774-31.393-123.248 35.656-13.661 81.487-14.534 122.957.291-11.046 42.536-22.092 79.84-33.138 122.375" fill="none" stroke="red" stroke-width="10" stroke-linecap="round"/>
            <path d="M-34.53-58.791c1.164 5.618 10.756 4.453 16.442 8.016 5.07 3.837 8.907 10.756 9.25 17.265 3.494-6.646-.617-14.936-5.344-19.115-3.837-3.563-8.496-2.604-11.716-8.427-3.015 1.37-5.413 1.712-8.633 2.26zM32.754-58.586c-.874 4.456-9.303 3.582-14.99 8.888-5.07 3.837-9.488 10.466-9.83 16.975-3.495-6.646.325-15.227 5.053-19.406 3.836-3.563 8.205-4.057 11.425-9.88 3.014 1.37 5.122 2.875 8.342 3.423z" fill="red" stroke="red" stroke-width="1pt"/>
        </g>
        <use transform="rotate(90 -.009 .253)" xlink:href="#a"/>
        <use transform="rotate(180 -.094 -.004)" xlink:href="#a"/>
        <use transform="rotate(-90 -.195 .028)" xlink:href="#a"/>
        <circle r="16" fill="red" fill-rule="evenodd"/>
    </g>
</svg>
