<svg xmlns="http://www.w3.org/2000/svg" width="200" height="200" viewBox="-300 -300 600 600">
    <g fill="lightblue" fill-opacity="1" fill-rule="nonezero" stroke="black" stroke-linecap="round" stroke-linejoin="round" stroke-width="5">
        <path d="
            M 0 -260
            v 80
            A 200 200 0 0 1 -64.11078 -53.25492
            A 100 100 0 0 1 -83.02788 -74.26518
            A 200 200 0 0 0 -20.15796 -227.947214
            A 100 100 0 0 0 -99.9379 -126.47636
            A 130 130 0 0 0 -130 -130
            A 130 130 0 0 1 0 -260 z
            M -260 0
            A 130 130 0 0 1 -55.36583 -106.44125
            A 200 200 0 0 1 -74.26518 -83.02788
            A 100 100 0 0 0 -227.947214 -20.15796
            A 200 200 0 0 0 -106.44125 -55.36583
            A 130 130 0 0 0 -87.99277 -34.30636
            A 200 200 0 0 1 -185 0
            h -75 z
            M -92.83882 -92.83882
            A 100 100 0 0 0 -37.16118 -37.16118
            A 100 100 0 0 1 -30.0621 -3.52364
            A 130 130 0 0 1 -126.47636 -99.9379
            A 100 100 0 0 1 -92.83882 -92.83882 z
            M 0 0
            A 130 130 0 0 0 -34.30636 -87.99277
            A 200 200 0 0 1 -53.25492 -64.11078
            A 130 130 0 0 1 -30.0621 3.52364
            A 130 130 0 0 1 0 0 z

            M 0 260
            v -80
            A 200 200 0 0 1 64.11078 53.25492
            A 100 100 0 0 1 83.02788 74.26518
            A 200 200 0 0 0 20.15796 227.947214
            A 100 100 0 0 0 99.9379 126.47636
            A 130 130 0 0 0 130 130
            A 130 130 0 0 1 0 260 z
            M 260 0
            A 130 130 0 0 1 55.36583 106.44125
            A 200 200 0 0 1 74.26518 83.02788
            A 100 100 0 0 0 227.947214 20.15796
            A 200 200 0 0 0 106.44125 55.36583
            A 130 130 0 0 0 87.99277 34.30636
            A 200 200 0 0 1 185 0
            h 75 z
            M 92.83882 92.83882
            A 100 100 0 0 0 37.16118 37.16118
            A 100 100 0 0 1 30.0621 3.52364
            A 130 130 0 0 1 126.47636 99.9379
            A 100 100 0 0 1 92.83882 92.83882 z
            M 0 0
            A 130 130 0 0 0 34.30636 87.99277
            A 200 200 0 0 1 53.25492 64.11078
            A 130 130 0 0 1 30.0621 -3.52364
            A 130 130 0 0 1 0 0 z

            M 260 0
            h -80
            A 200 200 0 0 1 53.25492 -64.11078
            A 100 100 0 0 1 74.26518 -83.02788
            A 200 200 0 0 0 227.947214 -20.15796
            A 100 100 0 0 0 126.47636 -99.9379
            A 130 130 0 0 0 130 -130
            A 130 130 0 0 1 260 0 z
            M 0 -260
            A 130 130 0 0 1 106.44125 -55.36583
            A 200 200 0 0 1 83.02788 -74.26518
            A 100 100 0 0 0 20.15796 -227.947214
            A 200 200 0 0 0 55.36583 -106.44125
            A 130 130 0 0 0 34.30636 -87.99277
            A 200 200 0 0 1 0 -185
            v -75 z
            M 92.83882 -92.83882
            A 100 100 0 0 0 37.16118 -37.16118
            A 100 100 0 0 1 3.52364 -30.0621
            A 130 130 0 0 1 99.9379 -126.47636
            A 100 100 0 0 1 92.83882 -92.83882 z
            M 0 0
            A 130 130 0 0 0 87.99277 -34.30636
            A 200 200 0 0 1 64.11078 -53.25492
            A 130 130 0 0 1 -3.52364 -30.0621
            A 130 130 0 0 1 0 0 z

            M -260 0
            h 80
            A 200 200 0 0 1 -53.25492 64.11078
            A 100 100 0 0 1 -74.26518 83.02788
            A 200 200 0 0 0 -227.947214 20.15796
            A 100 100 0 0 0 -126.47636 99.9379
            A 130 130 0 0 0 -130 130
            A 130 130 0 0 1 -260 0 z
            M 0 260
            A 130 130 0 0 1 -106.44125 55.36583
            A 200 200 0 0 1 -83.02788 74.26518
            A 100 100 0 0 0 -20.15796 227.947214
            A 200 200 0 0 0 -55.36583 106.44125
            A 130 130 0 0 0 -34.30636 87.99277
            A 200 200 0 0 1 0 185
            v 75 z
            M -92.83882 92.83882
            A 100 100 0 0 0 -37.16118 37.16118
            A 100 100 0 0 1 -3.52364 30.0621
            A 130 130 0 0 1 -99.9379 126.47636
            A 100 100 0 0 1 -92.83882 92.83882 z
            M 0 0
            A 130 130 0 0 0 -87.99277 34.30636
            A 200 200 0 0 1 -64.11078 53.25492
            A 130 130 0 0 1 3.52364 30.0621
            A 130 130 0 0 1 0 0 z
            "/>
    </g>
</svg>
