<svg xmlns="http://www.w3.org/2000/svg" xmlns:xlink="http://www.w3.org/1999/xlink" width="77.1615ex" height="9.048ex" focusable="false" role="img" style="vertical-align:-2.437ex" viewBox="0 -1548 22148 2597.3">
    <defs>
        <path id="E8-MJMAIN-2225" stroke-width="0" d="M133 736Q138 750 153 750Q164 750 170 739Q172 735 172 250T170 -239Q164 -250 152 -250Q144 -250 138 -244L137 -243Q133 -241 133 -179T132 250Q132 731 133 736ZM329 739Q334 750 346 750Q353 750 361 744L362 743Q366 741 366 679T367 250T367 -178T362 -243L361 -244Q355 -250 347 -250Q335 -250 329 -239Q327 -235 327 250T329 739Z"/>
        <path id="E8-MJMAIN-2219" stroke-width="0" d="M55 251Q55 328 112 386T249 444T386 388T444 249Q444 171 388 113T250 55Q170 55 113 112T55 251Z"/>
        <path id="E8-MJMAIN-3D" stroke-width="0" d="M56 347Q56 360 70 367H707Q722 359 722 347Q722 336 708 328L390 327H72Q56 332 56 347ZM56 153Q56 168 72 173H708Q722 163 722 153Q722 140 707 133H70Q56 140 56 153Z"/>
        <path id="E8-MJAMS-2720" stroke-width="0" d="M195 702T195 706T201 716H632Q638 710 638 706T636 700T621 690Q436 581 427 374V357H430Q554 357 645 421Q682 447 711 483T755 542T770 567Q775 572 786 563V131Q777 125 774 125T762 139Q709 228 642 274T482 333Q452 337 430 337H427V320Q430 279 437 247T462 170T521 82T621 4Q630 -2 633 -4T637 -7T638 -12Q638 -16 632 -22H201Q195 -16 195 -12T197 -6T212 4Q397 113 406 320V337H403Q279 337 188 273Q151 247 122 211T78 152T63 127Q58 122 48 131V563Q54 569 59 569Q62 569 71 555Q124 466 191 420T351 361Q381 357 403 357H406V374Q403 415 396 447T371 525T312 613T212 690Q199 697 197 699Z"/>
        <path id="E8-MJMATHI-3B4" stroke-width="0" d="M195 609Q195 656 227 686T302 717Q319 716 351 709T407 697T433 690Q451 682 451 662Q451 644 438 628T403 612Q382 612 348 641T288 671T249 657T235 628Q235 584 334 463Q401 379 401 292Q401 169 340 80T205 -10H198Q127 -10 83 36T36 153Q36 286 151 382Q191 413 252 434Q252 435 245 449T230 481T214 521T201 566T195 609ZM112 130Q112 83 136 55T204 27Q233 27 256 51T291 111T309 178T316 232Q316 267 309 298T295 344T269 400L259 396Q215 381 183 342T137 256T118 179T112 130Z"/>
        <path id="E8-MJMAIN-28" stroke-width="0" d="M94 250Q94 319 104 381T127 488T164 576T202 643T244 695T277 729T302 750H315H319Q333 750 333 741Q333 738 316 720T275 667T226 581T184 443T167 250T184 58T225 -81T274 -167T316 -220T333 -241Q333 -250 318 -250H315H302L274 -226Q180 -141 137 -14T94 250Z"/>
        <path id="E8-MJMATHI-78" stroke-width="0" d="M52 289Q59 331 106 386T222 442Q257 442 286 424T329 379Q371 442 430 442Q467 442 494 420T522 361Q522 332 508 314T481 292T458 288Q439 288 427 299T415 328Q415 374 465 391Q454 404 425 404Q412 404 406 402Q368 386 350 336Q290 115 290 78Q290 50 306 38T341 26Q378 26 414 59T463 140Q466 150 469 151T485 153H489Q504 153 504 145Q504 144 502 134Q486 77 440 33T333 -11Q263 -11 227 52Q186 -10 133 -10H127Q78 -10 57 16T35 71Q35 103 54 123T99 143Q142 143 142 101Q142 81 130 66T107 46T94 41L91 40Q91 39 97 36T113 29T132 26Q168 26 194 71Q203 87 217 139T245 247T261 313Q266 340 266 352Q266 380 251 392T217 404Q177 404 142 372T93 290Q91 281 88 280T72 278H58Q52 284 52 289Z"/>
        <path id="E8-MJMAIN-2C" stroke-width="0" d="M78 35T78 60T94 103T137 121Q165 121 187 96T210 8Q210 -27 201 -60T180 -117T154 -158T130 -185T117 -194Q113 -194 104 -185T95 -172Q95 -168 106 -156T131 -126T157 -76T173 -3V9L172 8Q170 7 167 6T161 3T152 1T140 0Q113 0 96 17Z"/>
        <path id="E8-MJMATHI-79" stroke-width="0" d="M21 287Q21 301 36 335T84 406T158 442Q199 442 224 419T250 355Q248 336 247 334Q247 331 231 288T198 191T182 105Q182 62 196 45T238 27Q261 27 281 38T312 61T339 94Q339 95 344 114T358 173T377 247Q415 397 419 404Q432 431 462 431Q475 431 483 424T494 412T496 403Q496 390 447 193T391 -23Q363 -106 294 -155T156 -205Q111 -205 77 -183T43 -117Q43 -95 50 -80T69 -58T89 -48T106 -45Q150 -45 150 -87Q150 -107 138 -122T115 -142T102 -147L99 -148Q101 -153 118 -160T152 -167H160Q177 -167 186 -165Q219 -156 247 -127T290 -65T313 -9T321 21L315 17Q309 13 296 6T270 -6Q250 -11 231 -11Q185 -11 150 11T104 82Q103 89 103 113Q103 170 138 262T173 379Q173 380 173 381Q173 390 173 393T169 400T158 404H154Q131 404 112 385T82 344T65 302T57 280Q55 278 41 278H27Q21 284 21 287Z"/>
        <path id="E8-MJMAIN-29" stroke-width="0" d="M60 749L64 750Q69 750 74 750H86L114 726Q208 641 251 514T294 250Q294 182 284 119T261 12T224 -76T186 -143T145 -194T113 -227T90 -246Q87 -249 86 -250H74Q66 -250 63 -250T58 -247T55 -238Q56 -237 66 -225Q221 -64 221 250T66 725Q56 737 55 738Q55 746 60 749Z"/>
        <path id="E8-MJMAIN-7B" stroke-width="0" d="M434 -231Q434 -244 428 -250H410Q281 -250 230 -184Q225 -177 222 -172T217 -161T213 -148T211 -133T210 -111T209 -84T209 -47T209 0Q209 21 209 53Q208 142 204 153Q203 154 203 155Q189 191 153 211T82 231Q71 231 68 234T65 250T68 266T82 269Q116 269 152 289T203 345Q208 356 208 377T209 529V579Q209 634 215 656T244 698Q270 724 324 740Q361 748 377 749Q379 749 390 749T408 750H428Q434 744 434 732Q434 719 431 716Q429 713 415 713Q362 710 332 689T296 647Q291 634 291 499V417Q291 370 288 353T271 314Q240 271 184 255L170 250L184 245Q202 239 220 230T262 196T290 137Q291 131 291 1Q291 -134 296 -147Q306 -174 339 -192T415 -213Q429 -213 431 -216Q434 -219 434 -231Z"/>
        <path id="E8-MJMAIN-30" stroke-width="0" d="M96 585Q152 666 249 666Q297 666 345 640T423 548Q460 465 460 320Q460 165 417 83Q397 41 362 16T301 -15T250 -22Q224 -22 198 -16T137 16T82 83Q39 165 39 320Q39 494 96 585ZM321 597Q291 629 250 629Q208 629 178 597Q153 571 145 525T137 333Q137 175 145 125T181 46Q209 16 250 16Q290 16 318 46Q347 76 354 130T362 333Q362 478 354 524T321 597Z"/>
        <path id="E8-MJMAIN-31" stroke-width="0" d="M213 578L200 573Q186 568 160 563T102 556H83V602H102Q149 604 189 617T245 641T273 663Q275 666 285 666Q294 666 302 660V361L303 61Q310 54 315 52T339 48T401 46H427V0H416Q395 3 257 3Q121 3 100 0H88V46H114Q136 46 152 46T177 47T193 50T201 52T207 57T213 61V578Z"/>
        <path id="E8-MJMAIN-2260" stroke-width="0" d="M166 -215T159 -215T147 -212T141 -204T139 -197Q139 -190 144 -183L306 133H70Q56 140 56 153Q56 168 72 173H327L406 327H72Q56 332 56 347Q56 360 70 367H426Q597 702 602 707Q605 716 618 716Q625 716 630 712T636 703T638 696Q638 692 471 367H707Q722 359 722 347Q722 336 708 328L451 327L371 173H708Q722 163 722 153Q722 140 707 133H351Q175 -210 170 -212Q166 -215 159 -215Z"/>
        <path id="E8-MJSZ3-7B" stroke-width="0" d="M618 -943L612 -949H582L568 -943Q472 -903 411 -841T332 -703Q327 -682 327 -653T325 -350Q324 -28 323 -18Q317 24 301 61T264 124T221 171T179 205T147 225T132 234Q130 238 130 250Q130 255 130 258T131 264T132 267T134 269T139 272T144 275Q207 308 256 367Q310 436 323 519Q324 529 325 851Q326 1124 326 1154T332 1205Q369 1358 566 1443L582 1450H612L618 1444V1429Q618 1413 616 1411L608 1406Q599 1402 585 1393T552 1372T515 1343T479 1305T449 1257T429 1200Q425 1180 425 1152T423 851Q422 579 422 549T416 498Q407 459 388 424T346 364T297 318T250 284T214 264T197 254L188 251L205 242Q290 200 345 138T416 3Q421 -18 421 -48T423 -349Q423 -397 423 -472Q424 -677 428 -694Q429 -697 429 -699Q434 -722 443 -743T465 -782T491 -816T519 -845T548 -868T574 -886T595 -899T610 -908L616 -910Q618 -912 618 -928V-943Z"/>
    </defs>
    <g fill="blue" stroke="blue" stroke-width="0" transform="matrix(1 0 0 -1 0 0)">
        <use x="0" y="0" xlink:href="#E8-MJMAIN-2225"/>
        <use x="500" y="0" xlink:href="#E8-MJMAIN-2219"/>
        <g transform="translate(1277,0)">
            <use x="0" y="0" xlink:href="#E8-MJMAIN-2225"/>
            <g transform="translate(500,-243)">
                <text stroke="none" font-family="STIXGeneral,'Arial Unicode MS',serif" transform="scale(35.264) matrix(1 0 0 -1 0 0)">
                    ✡
                </text>
            </g>
        </g>
        <g transform="translate(2308,0)">
            <use xlink:href="#E8-MJMAIN-3D"/>
            <use x="778" y="0" xlink:href="#E8-MJMAIN-2225"/>
        </g>
        <use x="3864" y="0" xlink:href="#E8-MJMAIN-2219"/>
        <g transform="translate(4642,0)">
            <use x="0" y="0" xlink:href="#E8-MJMAIN-2225"/>
            <g transform="translate(500,-243)">
                <text stroke="none" font-family="STIXGeneral,'Arial Unicode MS',serif" transform="scale(35.264) matrix(1 0 0 -1 0 0)">
                    ☪
                </text>
            </g>
        </g>
        <g transform="translate(5692,0)">
            <use xlink:href="#E8-MJMAIN-3D"/>
            <use x="778" y="0" xlink:href="#E8-MJMAIN-2225"/>
        </g>
        <use x="7248" y="0" xlink:href="#E8-MJMAIN-2219"/>
        <g transform="translate(8026,0)">
            <use x="0" y="0" xlink:href="#E8-MJMAIN-2225"/>
            <use x="707" y="-229" transform="scale(0.707)" xlink:href="#E8-MJAMS-2720"/>
        </g>
        <g transform="translate(9215,0)">
            <use xlink:href="#E8-MJMAIN-3D"/>
            <use x="778" y="0" xlink:href="#E8-MJMAIN-2225"/>
        </g>
        <use x="10771" y="0" xlink:href="#E8-MJMAIN-2219"/>
        <g transform="translate(11549,0)">
            <use x="0" y="0" xlink:href="#E8-MJMAIN-2225"/>
            <g transform="translate(500,-243)">
                <text stroke="none" font-family="STIXGeneral,'Arial Unicode MS',serif" transform="scale(35.264) matrix(1 0 0 -1 0 0)">
                    ☭
                </text>
            </g>
        </g>
        <use x="12599" y="0" xlink:href="#E8-MJMAIN-3D"/>
        <use x="13655" y="0" xlink:href="#E8-MJMATHI-3B4"/>
        <use x="14106" y="0" xlink:href="#E8-MJMAIN-28"/>
        <use x="14495" y="0" xlink:href="#E8-MJMATHI-78"/>
        <use x="15067" y="0" xlink:href="#E8-MJMAIN-2C"/>
        <use x="15512" y="0" xlink:href="#E8-MJMATHI-79"/>
        <use x="16009" y="0" xlink:href="#E8-MJMAIN-29"/>
        <use x="16676" y="0" xlink:href="#E8-MJMAIN-3D"/>
        <g transform="translate(17731,0)">
            <use xlink:href="#E8-MJSZ3-7B"/>
            <g transform="translate(917,0)">
                <g transform="translate(-16,0)">
                    <g transform="translate(0,660)">
                        <use x="0" y="0" xlink:href="#E8-MJMAIN-30"/>
                        <use x="500" y="0" xlink:href="#E8-MJMAIN-2C"/>
                        <use x="944" y="0" xlink:href="#E8-MJMATHI-78"/>
                        <use x="1794" y="0" xlink:href="#E8-MJMAIN-3D"/>
                        <use x="2850" y="0" xlink:href="#E8-MJMATHI-79"/>
                    </g>
                    <g transform="translate(0,-745)">
                        <use x="0" y="0" xlink:href="#E8-MJMAIN-31"/>
                        <use x="500" y="0" xlink:href="#E8-MJMAIN-2C"/>
                        <use x="944" y="0" xlink:href="#E8-MJMATHI-78"/>
                        <use x="1794" y="0" xlink:href="#E8-MJMAIN-2260"/>
                        <use x="2850" y="0" xlink:href="#E8-MJMATHI-79"/>
                    </g>
                </g>
            </g>
        </g>
    </g>
</svg>
