<svg xmlns="http://www.w3.org/2000/svg" width="200" height="200" version="1.1" viewBox="0 0 312 297.33334">
    <g fill="black" stroke-width="1.33333337">
        <path d="m 142,292.52083 c -6.41912,-3.21477 -7.04033,-3.27914 -16.72979,-1.73342 -6.81014,1.08637 -11.76677,1.19557 -15.33334,0.3378 -4.94949,-1.19039 -5.24376,-1.53415 -4.83558,-5.64915 0.23904,-2.40989 1.28875,-6.80248 2.33269,-9.76131 l 1.89806,-5.37969 -6.33269,-5.37403 C 92.172532,255.77321 73.692769,236.31475 65.206213,225.16635 54.115521,210.597 41.998108,189.87698 35.673167,174.66667 32.776201,167.7 30.168295,161.75368 29.877819,161.45262 c -0.290475,-0.30106 -1.62906,0.44894 -2.974632,1.66666 -4.342335,3.92976 -7.713792,2.79219 -10.232562,-3.45261 C 13.204506,151.0731 12.59382,139.98918 15.155032,132.15872 18.593419,121.64645 18.054379,116.8058 12.797413,110.98696 4.1451247,101.40991 1.3333333,94.259759 1.3333333,81.83475 V 70.733335 l 4.1349568,0.826992 C 10.931523,72.652972 11.954271,70.80054 11.979583,59.766871 L 12,50.867073 23.912448,44.050102 C 49.394771,29.46769 76.687699,19.133266 102.06729,14.456891 l 8.69111,-1.6014 -0.84199,-5.614795 -0.84199,-5.6147953 12.1553,-0.038472 c 10.81992,-0.034245 12.99472,0.3872666 19.79612,3.8368265 6.67151,3.3836752 9.10316,3.8774412 19.16788,3.8921884 9.85284,0.014437 12.89231,-0.5640788 20.92692,-3.98311 7.52199,-3.2008916 11.31336,-4.0000001 18.97805,-4.0000001 h 9.57819 l -0.8762,6.6051076 -0.8762,6.6051069 5.03776,1.305136 c 2.77077,0.717824 7.73776,2.005491 11.03776,2.86148 25.81483,6.69613 69.86948,26.526357 74.81903,33.678125 0.45045,0.650888 0.56904,6.311368 0.2635,12.578846 l -0.5555,11.395412 6.06982,-0.684156 6.06982,-0.684157 v 10.014859 c 0,13.977216 -2.00403,19.456507 -10.45444,28.583967 l -7.23106,7.8104 2.84275,8.6596 c 2.77219,8.44466 3.72193,21.8537 2.00236,28.27028 -0.62893,2.34686 -1.7672,3 -5.22832,3 -2.4334,0 -5.9132,-0.56606 -7.73291,-1.25791 -3.15494,-1.19951 -3.47308,-0.8436 -6.853,7.66667 -13.00846,32.75389 -36.41422,64.87049 -68.50444,93.99951 l -9.8257,8.91902 1.49237,5.92678 c 0.82081,3.25973 1.49239,8.06109 1.49239,10.66969 v 4.74291 h -7.54948 c -4.15222,0 -10.6285,-0.97058 -14.39175,-2.15684 l -6.84227,-2.15683 -6.75572,4.15683 c -8.47389,5.21404 -15.6813,5.40841 -25.12745,0.67766 z m 18.02941,0.13067 c 2.14335,-1.10837 6.01174,-3.45031 8.5964,-5.20432 l 4.6994,-3.18909 -3.6626,-1.31391 c -2.01444,-0.72264 -6.05805,-3.07361 -8.98581,-5.22437 l -5.32321,-3.91048 -7.88351,5.09536 c -4.33593,2.80245 -8.69049,5.09536 -9.6768,5.09536 -3.80683,0 -1.47995,2.51882 5.87339,6.35789 8.99642,4.69688 11.13544,4.99671 16.36274,2.29356 z m -39.69608,-4.25913 c -1.65,-0.31782 -4.35,-0.31782 -6,0 -1.65,0.3178 -0.3,0.57782 3,0.57782 3.3,0 4.65,-0.26002 3,-0.57782 z m 76.47599,-3.83475 C 196.36419,283.39765 196,281.27427 196,279.83902 c 0,-2.54548 -0.0728,-2.5418 -2.96213,0.15009 -2.21754,2.06595 -3.97716,2.5525 -7,1.93558 -5.62202,-1.14738 -14.75546,-5.60759 -19.7965,-9.66739 -2.33276,-1.87869 -3.53826,-2.63203 -2.67889,-1.67408 0.85936,0.95796 1.25959,2.53104 0.88939,3.49573 -0.90394,2.35562 8.05674,6.80699 20.01076,9.9407 11.98336,3.1414 13.36889,3.20177 12.34669,0.53797 z m -67.2831,-1.84312 c 4.66058,-1.44036 11.47378,-4.49217 15.14045,-6.78181 6.19321,-3.86735 15.16832,-12.63656 15.28326,-14.93268 0.1204,-2.40495 -3.69114,-0.67172 -6.30874,2.86877 -5.38831,7.28807 -31.36122,20.36437 -35.44085,17.84303 C 115.16732,279.8373 112,280.4389 112,282.8895 c 0,3.31184 6.4523,3.24741 17.52622,-0.175 z m 7.93511,-11.57952 6.54322,-3.56125 -4.00228,-2.43394 c -2.20124,-1.33865 -4.00915,-2.89274 -4.01756,-3.45352 -0.008,-0.56078 -2.40368,-2.16382 -5.32282,-3.56232 -4.00666,-1.91952 -4.96462,-2.95589 -3.9085,-4.22844 1.06263,-1.2804 0.79151,-1.52684 -1.12763,-1.02497 -3.30993,0.86556 -28.221479,-22.76501 -39.192609,-37.1773 C 77.692164,204.2106 67.12158,187.45555 61.112899,175.55902 54.638563,162.74054 47.823528,144.82456 48.474225,142.33334 48.809425,141.05 48.539853,140 47.875173,140 c -0.664678,0 -1.208506,-1.16458 -1.208506,-2.58797 0,-1.42339 -0.656502,-2.99372 -1.458894,-3.48963 -0.80239,-0.4959 -1.214248,-2.18142 -0.915238,-3.74559 0.417106,-2.18195 -0.151259,-2.88721 -2.44172,-3.0298 -1.641956,-0.10223 -4.97779,-1.17982 -7.412964,-2.39464 -2.435175,-1.21482 -3.713548,-1.49473 -2.840831,-0.62201 1.226791,1.22679 0.852509,3.03573 -1.649849,7.9739 -1.780135,3.51293 -3.629095,9.72657 -4.108799,13.8081 -0.830831,7.06908 -0.729657,7.42098 2.133561,7.42098 2.315879,0 2.850866,0.59228 2.33092,2.58056 -0.371157,1.4193 0.0097,2.84325 0.84644,3.16432 0.836699,0.32106 3.54723,5.60982 6.0234,11.75277 6.543748,16.23392 19.278623,38.03687 30.47336,52.1724 10.16582,12.83634 30.642715,34.275 39.458497,41.31183 3.33171,2.65939 4.89541,4.87427 4.50237,6.37727 -0.44546,1.70344 0.0354,2.13605 1.84767,1.66214 2.4923,-0.65176 6.54541,2.33562 6.54541,4.82432 0,1.73875 8.68575,-1.26769 17.46133,-6.04397 z M 188,276.82002 c 0,-2.29152 6.27191,-6.55469 8.03767,-5.4634 0.71261,0.44041 1.29566,-0.43464 1.29566,-1.94459 0,-1.50994 0.59162,-2.74536 1.31471,-2.74536 2.05413,0 28.33216,-25.80337 38.52761,-37.8317 16.64034,-19.63185 25.50303,-34.55095 42.9583,-72.31434 1.393,-3.01365 2.53272,-6.16365 2.53272,-7 0,-0.83635 0.9,-1.52063 2,-1.52063 3.00638,0 2.43317,-3.74657 -2.01023,-13.13913 -3.2438,-6.85681 -4.45133,-8.29122 -6.33229,-7.52206 -1.27828,0.52272 -4.27415,1.51353 -6.65748,2.2018 -3.37944,0.97593 -4.33334,1.97536 -4.33334,4.54015 0,1.80882 -0.52634,4.33062 -1.16965,5.604 -0.64332,1.27339 -1.90081,4.71524 -2.79444,7.64858 -5.50243,18.06178 -25.52188,52.60764 -42.09536,72.64037 -11.44119,13.82922 -29.60793,30.56206 -34.27388,31.56863 -2.01667,0.43505 -3.66667,1.51461 -3.66667,2.39903 0,0.88441 -1.6129,2.45941 -3.58422,3.5 -1.97132,1.04058 -4.94406,3.24197 -6.60606,4.89197 -1.66201,1.65 -4.69912,3.03803 -6.74912,3.08452 -3.61857,0.082 -3.63784,0.1204 -0.66097,1.31489 1.68647,0.67671 5.58647,2.94968 8.66667,5.05107 4.92416,3.35937 11.60953,6.46276 14.60037,6.77759 0.55,0.0579 1,-0.72574 1,-1.74139 z m -44,-15.48668 c -1.53392,-2.86616 -3.37119,-3.42947 -4.61603,-1.41528 -0.42536,0.68827 0.28923,1.87001 1.58799,2.62612 3.62215,2.10873 4.59617,1.71924 3.02804,-1.21084 z m 25.33333,-1.33333 c 0,-0.73334 -0.6,-1.33334 -1.33333,-1.33334 -0.73333,0 -1.33333,0.6 -1.33333,1.33334 0,0.73333 0.6,1.33333 1.33333,1.33333 0.73333,0 1.33333,-0.6 1.33333,-1.33333 z m -32.59486,-6.5505 c -0.49272,-0.79722 -1.61044,-1.44032 -2.48383,-1.42909 -1.04404,0.0135 -0.95857,0.41908 0.24952,1.18427 1.08827,0.6893 1.41625,1.90418 0.80439,2.97958 -0.79919,1.40462 -0.65284,1.46468 0.64633,0.26524 0.92369,-0.85276 1.27631,-2.20276 0.78359,-3 z m 37.07704,0.5505 c -0.44639,-1.16326 -0.0107,-2.02184 1.04184,-2.05219 2.38806,-0.0689 -6.33499,-3.96084 -11.85735,-5.29037 -7.1992,-1.73326 -5.27245,2.14965 2.31765,4.67068 3.65804,1.21501 6.99346,2.76322 7.41202,3.44049 1.20362,1.94751 1.93062,1.43289 1.08584,-0.76861 z m -24.95576,-6.61906 c -2.48615,-6.2591 -2.64492,-9.40332 -2.34206,-46.38095 0.2733,-33.3658 0.0268,-39.66666 -1.55178,-39.66666 -1.52136,0 -2.02424,4.85948 -2.65604,25.66666 -0.42864,14.11667 -0.64847,31.36667 -0.4885,38.33334 0.34854,15.17833 3.8296,28.76191 7.37083,28.76191 2.17973,0 2.15769,-0.44507 -0.33245,-6.7143 z m 5.97237,4.2635 c -1.31683,-1.30702 -1.46997,-1.15387 -0.7464,0.7464 0.50071,1.31496 1.24625,2.05496 1.65677,1.64444 0.41052,-0.41052 8.6e-4,-1.48639 -0.91037,-2.39084 z m -24.2199,-4.13084 5.55109,-3.15308 0.0435,-44.48926 0.0435,-44.48924 -3.12507,-1.94024 c -5.58771,-3.46921 -10.62742,-8.65829 -14.05459,-14.47116 l -3.35829,-5.69604 -29.143743,0.22512 -29.14374,0.22512 -3.435418,4.95731 -3.435416,4.9573 3.453207,9.18028 c 8.258317,21.95458 25.961096,51.19692 42.324523,69.9138 7.492027,8.56957 27.069567,27.71849 28.532307,27.90765 0.10848,0.014 2.69522,-1.39338 5.74832,-3.12756 z m 73.40991,-16.5136 c 21.03112,-21.29685 33.92152,-39.50334 46.49271,-65.66667 9.95535,-20.71924 10.32591,-22.28684 6.39157,-27.0384 l -3.06782,-3.70507 -27.62694,-0.53687 -27.62693,-0.53685 -3.22584,4.90859 c -4.97645,7.57241 -7.5028,10.16934 -14.41399,14.81669 l -6.38844,4.29584 0.10627,34.23137 c 0.0584,18.82724 -0.29416,38.18094 -0.78353,43.00819 l -0.88975,8.77684 4.50531,2.77938 c 2.4779,1.52865 5.38673,2.82908 6.46405,2.88982 1.07732,0.0608 10.10584,-8.13953 20.06337,-18.22286 z m -47.0499,10.8611 c -0.44307,-0.44305 -1.59307,-0.49041 -2.55556,-0.1052 -1.06364,0.42563 -0.74771,0.74158 0.80556,0.80555 1.40554,0.0579 2.19305,-0.25724 1.75,-0.70029 z m 1.91593,-8.54525 c 0.48849,-3.29039 0.96876,-19.48252 1.06728,-35.98252 0.0985,-16.5 0.29884,-31.5 0.44517,-33.33334 0.22746,-2.84966 -0.35954,-3.39372 -4.04546,-3.74952 l -4.31154,-0.41618 -0.31012,22.41618 c -0.44922,32.46955 -0.15857,53.38526 0.77568,55.81991 1.65491,4.31259 5.45318,1.48156 6.37899,-4.75453 z m 9.66597,-2.98252 c 0.39463,-3.11667 0.8977,-25.61667 1.1179,-50 C 169.97048,147.28659 169.67736,136 168.52124,136 c -1.12172,0 -1.7858,10.24378 -2.39861,37 -0.4661,20.35 -0.98436,42.85059 -1.1517,50.00131 -0.21825,9.32595 0.14379,13.00094 1.28071,13 0.87173,-7.2e-4 1.90785,-2.5513 2.30249,-5.66797 z m -6.2495,-16.66667 c -0.28767,-2.75 -0.52302,-0.5 -0.52302,5 0,5.5 0.23535,7.75 0.52302,5 0.28765,-2.75 0.28765,-7.25 0,-10 z M 172.97628,189 c -0.28072,-3.11666 -0.5104,-0.56666 -0.5104,5.66667 0,6.23333 0.22968,8.78333 0.5104,5.66667 0.28071,-3.11667 0.28071,-8.21667 0,-11.33334 z m -0.0523,-16.64129 C 172.58596,171.06142 172.28713,171.8 172.25996,174 c -0.0272,2.2 0.24941,3.26142 0.61465,2.35871 0.36523,-0.90271 0.38746,-2.70271 0.0495,-4 z M 150.21637,161 c -0.36988,-0.91666 -0.67252,-0.16666 -0.67252,1.66667 0,1.83333 0.30264,2.58333 0.67252,1.66667 0.36988,-0.91667 0.36988,-2.41667 0,-3.33334 z m 142.18542,-8.66666 c 1.94994,-10.03268 -4.79347,-27.18082 -14.51019,-36.89857 -8.40716,-8.40806 -9.73856,-5.20187 -1.43747,3.46163 8.46843,8.83814 13.42348,19.83542 13.26344,29.43694 -0.1332,7.98706 1.45059,10.34712 2.68422,4 z m -134.65724,-0.2382 c -0.46627,-1.78298 -2.32847,-2.85132 -6.07271,-3.48391 -8.12,-1.37187 -13.74996,-4.11157 -18.77472,-9.13633 -2.64482,-2.64482 -5.1775,-4.12566 -6.09077,-3.56123 -5.35474,3.30941 10.90476,15.23296 23.73093,17.40255 3.37116,0.57024 6.52321,1.10737 7.00456,1.19362 0.48135,0.0863 0.57256,-1.00036 0.20271,-2.4147 z M 22.572953,142.61526 c 0.05155,-2.59495 1.212246,-6.91202 2.579339,-9.59349 1.996536,-3.91609 2.131716,-5.01122 0.687005,-5.5656 -2.075121,-0.7963 -3.622297,1.70502 -5.665729,9.15979 -1.637021,5.97212 -0.492752,17.87486 1.282013,13.33558 0.563012,-1.44002 1.06583,-4.74134 1.117372,-7.33628 z M 187.41721,145 191.33333,140.66667 187,144.58279 c -4.03928,3.65037 -4.9462,4.75055 -3.91612,4.75055 0.22947,0 2.17947,-1.95 4.33333,-4.33334 z m -58.08388,2.53999 c 0,-0.25301 -1.35,-1.60301 -3,-3 l -3,-2.53999 2.53999,3 c 2.38695,2.81926 3.46001,3.60699 3.46001,2.53999 z m 55.32696,-5.4462 c 6.08327,-5.90765 11.31003,-17.17967 11.32668,-24.42712 0.011,-4.78212 -0.40322,-5.66667 -2.65364,-5.66667 -2.24632,0 -2.66872,0.89323 -2.67969,5.66667 -0.0153,6.65148 -4.84504,17.66012 -9.7142,22.14193 -1.87741,1.72807 -3.09263,3.97807 -2.70048,5 0.96933,2.52604 1.0674,2.48458 6.42133,-2.71481 z m -24.88685,0.74112 c 1.00728,-0.63856 1.58329,-2.78981 1.33333,-4.97959 C 160.7304,134.55832 160.0874,134 156.66667,134 c -3.51586,0 -4.04956,0.51088 -4.40943,4.22092 -0.39032,4.02395 0.14061,4.61011 5.07609,5.604 0.36667,0.0739 1.46471,-0.37166 2.44011,-0.99001 z m -20.14205,-5.47485 c 0.16053,-2.1311 -0.14184,-2.32384 -1.56871,-1 -1.52424,1.41417 -1.08029,2.63126 1.32025,3.61953 0.0272,0.0107 0.13908,-1.16756 0.24846,-2.61953 z m 7.03528,-11.88407 c 0,-9.30988 -0.42968,-12.02224 -2,-12.62482 -1.691,-0.6489 -2,1.18307 -2,11.85735 0,10.33316 0.36304,12.62482 2,12.62482 1.62785,0 2,-2.20638 2,-11.85735 z m -7.08919,4.94068 c -0.42563,-1.06364 -0.74157,-0.7477 -0.80555,0.80556 -0.0579,1.40555 0.25723,2.19305 0.7003,1.75 0.44305,-0.44306 0.49041,-1.59306 0.1052,-2.55556 z m -73.271924,0.77778 C 65.8625,130.75139 64.7125,130.70402 63.75,131.08918 c -1.063644,0.42563 -0.747701,0.74158 0.805556,0.80556 1.405555,0.0579 2.193055,-0.25724 1.75,-0.7003 z m 37.960334,-0.18876 c -6.820425,-0.24248 -17.620425,-0.24134 -23.999998,0.003 -6.379575,0.24389 -0.799225,0.44228 12.400775,0.44088 13.200003,-0.001 18.419653,-0.20093 11.599223,-0.44341 z M 53.366335,127.24654 C 55.306336,122.14395 55.000617,116 52.806713,116 c -1.155336,0 -2.083816,1.89418 -2.450878,5 -0.32501,2.75 -1.052224,6.05 -1.616032,7.33334 -0.741474,1.68773 -0.423131,2.33333 1.150546,2.33333 1.19661,0 2.760803,-1.53906 3.475986,-3.42013 z M 264.29304,127.1243 c 3.47885,-0.78861 4.64937,-1.62241 3.92031,-2.79258 -0.81322,-1.30525 -2.76292,-1.3456 -8.95971,-0.18539 -4.86355,0.9106 -17.20121,1.24354 -31.96792,0.86268 -21.43933,-0.55295 -24.04743,-0.38822 -24.04575,1.51872 0.001,1.90181 3.1111,2.11577 28.04762,1.9299 15.42516,-0.11497 30.27761,-0.71497 33.00545,-1.33333 z M 136,126 c 0,-1.72899 -4.93827,-2 -36.444444,-2 -31.506173,0 -36.444445,0.27101 -36.444445,2 0,1.729 4.938272,2 36.444445,2 C 131.06173,128 136,127.729 136,126 Z m 44,0 c 0,-1.63696 -2.29165,-2 -12.62483,-2 -10.67426,0 -12.50624,0.30901 -11.85734,2 0.60258,1.57032 3.31494,2 12.62482,2 C 177.79363,128 180,127.62785 180,126 Z M 24.876589,121.15338 c 0.871171,-0.27475 0.14534,-1.52998 -1.666666,-2.88229 L 20,115.87551 v 4.98375 c 0,4.21889 0.255784,4.66124 1.666667,2.88229 0.916666,-1.1558 2.361132,-2.32048 3.209922,-2.58817 z m 267.348401,-3.40715 c 1.00454,-1.22376 0.55417,-1.23381 -1.96728,-0.0439 -2.90075,1.36894 -3.09998,1.91987 -1.7639,4.87784 l 1.50619,3.3346 0.46109,-3.29073 c 0.2536,-1.8099 1.04735,-4.00493 1.7639,-4.87784 z M 40.425576,121.48341 C 40.063619,120.09928 37.42446,117.91026 34.560777,116.61892 24.566901,112.11231 10.454297,95.26883 9.9685395,87.267935 9.8255753,84.913179 8.67325,81.564584 7.4078161,79.826614 5.1299948,76.698212 5.115674,76.726563 5.9731953,82.666669 8.0715841,97.202342 20.11266,113.47349 34,120.5394 c 3.666667,1.8656 6.760495,3.40744 6.875173,3.42631 0.11468,0.0189 -0.08764,-1.09818 -0.449597,-2.4823 z m 93.241094,-1.03312 c -0.91667,-0.36988 -2.41667,-0.36988 -3.33334,0 -0.91666,0.36989 -0.16666,0.67252 1.66667,0.67252 1.83333,0 2.58333,-0.30263 1.66667,-0.67252 z m 117.15068,-4.8617 c 0.66505,-2.50599 0.4582,-3.95028 -0.62528,-4.36605 -0.8905,-0.34172 -12.09802,-0.45658 -24.90558,-0.25525 L 202,111.33334 V 114.66667 118 l 19.33333,0.75237 c 29.06884,1.13122 28.32295,1.21126 29.48402,-3.16378 z m 15.48821,3.60586 c -0.44307,-0.44306 -1.59307,-0.49043 -2.55556,-0.10527 -1.06364,0.42563 -0.74771,0.74158 0.80556,0.80556 1.40555,0.0579 2.19305,-0.25724 1.75,-0.7003 z M 112,114.76342 v -3.90325 l -25.42542,0.0342 c -26.478037,0.0356 -28.15172,0.40585 -26.092412,5.77232 0.644997,1.68083 4.816924,2 26.142652,2 H 112 Z m 25.33333,-0.0968 c 0,-3.68254 -0.37037,-4 -4.66666,-4 -4.2963,0 -4.66667,0.31746 -4.66667,4 0,3.68254 0.37037,4 4.66667,4 4.29629,0 4.66666,-0.31746 4.66666,-4 z m 24,0 c 0,-3.51962 -0.46172,-4 -3.84456,-4 -3.03233,0 -3.97792,0.69761 -4.47578,3.302 -0.78338,4.09798 -0.20322,4.698 4.54257,4.698 3.30864,0 3.77777,-0.49673 3.77777,-4 z m 24,0 c 0,-3.68254 -0.37037,-4 -4.66666,-4 -4.2963,0 -4.66667,0.31746 -4.66667,4 0,3.68254 0.37037,4 4.66667,4 4.29629,0 4.66666,-0.31746 4.66666,-4 z m -138.666663,0.50341 c 0,-1.77172 -0.36199,-1.86284 -2,-0.50341 -1.1,0.91292 -2,1.88638 -2,2.16326 0,0.27687 0.9,0.50341 2,0.50341 1.1,0 2,-0.97347 2,-2.16326 z m 73.940703,-0.50341 c 0.98118,0 2.09397,-2.34825 2.59369,-5.4733 1.11745,-6.98814 4.0229,-12.727689 9.20977,-18.193368 2.26176,-2.383333 3.33038,-4.333333 2.37474,-4.333333 -1.07234,0 -1.4296,-0.89329 -0.93316,-2.333334 0.44242,-1.283333 -1.88402,0.564356 -5.16984,4.105978 -4.32056,4.656909 -6.71812,8.847784 -8.66173,15.140447 -2.31253,7.4871 -3.73437,17.53639 -1.80447,12.75358 0.36989,-0.91667 1.44583,-1.66667 2.391,-1.66667 z m 164.72596,2.16326 c 0,-0.27688 -1.05,-1.32688 -2.33333,-2.33333 -2.11475,-1.6585 -2.16191,-1.61134 -0.50341,0.5034 1.74182,2.221 2.83674,2.92731 2.83674,1.82993 z M 170.66667,104.14265 c 0,-9.309873 -0.42968,-12.022231 -2,-12.624816 -1.691,-0.648897 -2,1.183076 -2,11.857346 0,10.33318 0.36304,12.62482 2,12.62482 1.62785,0 2,-2.20637 2,-11.85735 z m 93.89156,0.65965 c 4.42348,-8.65435 4.4988,-9.008802 1.27506,-6.000002 -3.4815,3.249372 -8.49996,11.862882 -8.49996,14.589032 0,3.39666 2.80014,0.0678 7.2249,-8.58903 z m 38.64461,-8.35801 c 1.17177,-3.438961 2.04879,-8.395775 1.94892,-11.01514 -0.11867,-3.111519 -0.38189,-3.7225 -0.7594,-1.762481 -0.31781,1.65 -1.33219,3 -2.25417,3 -1.08699,0 -1.47904,1.34427 -1.11515,3.823626 0.69704,4.749288 -2.0516,10.154115 -8.13896,16.004125 -2.96957,2.85379 -4.38565,5.25302 -3.87929,6.57258 1.21636,3.16978 11.59392,-8.97999 14.19805,-16.62271 z M 299.33333,112 c 1.32732,-1.46666 2.11331,-2.66666 1.74664,-2.66666 -0.36666,0 -1.75265,1.2 -3.07997,2.66666 -1.32732,1.46667 -2.11331,2.66667 -1.74664,2.66667 0.36667,0 1.75265,-1.2 3.07997,-2.66667 z M 62.814744,105.35979 c 5.433291,-0.86058 18.545315,-1.36595 29.234985,-1.12679 18.004171,0.40282 19.382911,0.2613 19.380951,-1.98934 -0.002,-2.285066 -1.4091,-2.374775 -24.716395,-1.57578 -27.567529,0.94505 -36.07687,2.15726 -42.480701,6.05166 -6.175109,3.75531 -4.051884,5.67934 2.953551,2.67646 3.176628,-1.36166 10.209052,-3.17795 15.627609,-4.03621 z m 228.195616,-2.61553 c 6.10077,-6.785525 8.36969,-11.479319 6.1978,-12.821619 -1.74624,-1.07924 -1.48919,-9.922639 0.28843,-9.922639 1.06598,0 1.0409,-0.549072 -0.0872,-1.908284 -1.00327,-1.208866 -1.47342,-5.973583 -1.28275,-13.000001 l 0.30105,-11.091716 -5.21385,-3.588296 C 281.96512,44.046512 257.04521,32.212917 242.88532,27.462179 235.30557,24.919127 220.49696,20.66872 209.97728,18.016831 l -19.12671,-4.821615 -6.42528,3.257104 c -3.5339,1.791407 -9.04924,5.586394 -12.25628,8.433303 l -5.83097,5.1762 2.68383,4.413202 c 1.58025,2.598525 3.05081,3.819392 3.57633,2.969088 C 173.6318,35.771706 188,35.452934 188,37.10241 c 0,0.606326 1.72985,0.848522 3.84411,0.538215 11.1298,-1.633507 48.9444,8.963848 72.15589,20.221332 l 11.33333,5.496623 0.39084,11.209258 c 0.21496,6.165092 -0.0191,12.159412 -0.52002,13.320712 -0.50098,1.161299 -1.10202,4.720055 -1.33566,7.908347 -0.23364,3.188292 -1.05356,6.554503 -1.82205,7.480473 -1.04413,1.25812 -0.13147,2.53214 3.61149,5.04138 5.97935,4.00848 7.10351,3.6003 15.35243,-5.57449 z M 33.333333,109.5433 c 0,-0.61786 2.038724,-2.2213 4.530498,-3.56321 4.39208,-2.36529 4.451432,-2.5041 1.942642,-4.54329 -1.771098,-1.439588 -2.741862,-4.207539 -3.075822,-8.770131 -0.268384,-3.666667 -0.87205,-7.626196 -1.34148,-8.798954 -0.469431,-1.172757 -0.674034,-6.272757 -0.454674,-11.333333 l 0.398836,-9.201047 7.333334,-3.633782 C 70.854301,45.732138 121.22375,32.26283 127.08317,37.125714 c 1.53186,1.271331 2.08763,1.22103 2.64815,-0.23968 0.49589,-1.292272 3.2043,-1.866303 8.99857,-1.907195 7.1658,-0.05057 8.7622,-0.538574 11.77963,-3.60092 1.91977,-1.94833 2.89048,-3.363881 2.15715,-3.145666 -0.73334,0.218214 -4.7406,-2.132127 -8.90503,-5.22298 -4.16443,-3.090854 -9.89992,-6.833277 -12.74554,-8.316497 l -5.17385,-2.696761 -20.08498,4.574107 C 69.387793,24.852819 47.871649,32.901669 25.333333,46.655441 l -10,6.102396 -0.733052,17.954417 c -0.839532,20.562369 -0.284272,22.331356 10.553187,33.621086 5.861208,6.1058 8.179865,7.58261 8.179865,5.20996 z M 247,108.45029 c -0.91667,-0.36988 -2.41667,-0.36988 -3.33333,0 -0.91667,0.36989 -0.16667,0.67252 1.66666,0.67252 1.83334,0 2.58334,-0.30263 1.66667,-0.67252 z m -88.33333,-5.11695 c 0,-1.63743 -2.2963,-2 -12.66667,-2 -10.37037,0 -12.66667,0.36257 -12.66667,2 0,1.63742 2.2963,2 12.66667,2 10.37037,0 12.66667,-0.36258 12.66667,-2 z m 92,0.80931 c 0,-2.43929 -5.01954,-2.80931 -38.10906,-2.80931 -29.2364,0 -33.89094,0.27467 -33.89094,2 0,1.72839 4.88889,2 36,2 20.23574,0 36,-0.5214 36,-1.19069 z m 6.83212,-4.498204 c -1.31683,-1.307022 -1.46998,-1.15387 -0.7464,0.746394 0.5007,1.31496 1.24625,2.05496 1.65677,1.64444 0.41052,-0.41051 8.5e-4,-1.48639 -0.91037,-2.390834 z M 117.72015,98.664829 c 0.3838,-1.467679 0.15378,-2.332268 -0.51116,-1.921311 C 116.54405,97.154476 116,98.355304 116,99.412025 c 0,2.759665 0.906,2.366115 1.72015,-0.747196 z M 44,97.190684 c 0,-0.811793 0.9,-1.130623 2,-0.708514 2.845463,1.091907 2.479444,-0.13176 -0.519488,-1.736735 -2.029068,-1.085922 -2.653608,-0.83552 -3.208508,1.286423 -0.37896,1.449146 -0.145191,2.634811 0.519489,2.634811 C 43.456172,98.666669 44,98.002476 44,97.190684 Z m 179.05545,0.490228 c -4.55284,-0.25957 -12.35284,-0.261478 -17.33333,-0.0043 -4.98051,0.257236 -1.25545,0.469612 8.27788,0.471944 9.53333,0.0023 13.60828,-0.208135 9.05545,-0.467704 z m 41.61122,-1.68091 c 1.32732,-1.466667 2.1133,-2.666667 1.74664,-2.666667 -0.36667,0 -1.75266,1.2 -3.07998,2.666667 -1.32732,1.466667 -2.1133,2.666667 -1.74664,2.666667 0.36667,0 1.75266,-1.2 3.07998,-2.666667 z m -164.33334,0.450292 c -0.916663,-0.369883 -2.416663,-0.369883 -3.33333,0 -0.916667,0.369884 -0.166667,0.672515 1.666667,0.672515 1.833333,0 2.583333,-0.302631 1.666663,-0.672515 z m 170.56928,-8.751161 c 1.16359,-0.387866 1.88382,-4.10487 2.217,-11.441853 l 0.49351,-10.867356 -11.37143,-5.277745 c -16.34341,-7.585362 -45.02493,-16.805214 -58.477,-18.79779 l -11.56864,-1.713596 -6.28574,5.532937 c -3.45716,3.043116 -6.80127,5.532938 -7.43136,5.532938 -0.6301,0 -1.14562,5.384592 -1.14562,11.96576 0,11.698159 0.082,12.008796 3.66667,13.890106 4.10129,2.152448 12.01316,10.239775 15.44284,15.785331 l 2.25192,3.641194 29.65263,0.358806 29.65261,0.358804 5.58956,-4.19652 c 3.07425,-2.308086 6.36513,-4.455043 7.31305,-4.771016 z m -178.586314,6.826989 23.649624,-0.08889 4.19669,-6.218611 c 4.2969,-6.367099 6.82982,-8.677842 13.44424,-12.264968 3.65447,-1.981886 3.78602,-2.422962 4.17543,-14.000001 l 0.40208,-11.953648 -7.3251,-5.867003 -7.32511,-5.867002 -12.76707,2.254745 C 92.789407,43.69571 68.421559,51.130865 52,58.451839 l -14,6.241408 -0.3906,8.826455 -0.3906,8.826455 6.067152,3.555588 c 3.336935,1.955573 7.074223,5.09257 8.305087,6.971106 2.089441,3.188891 2.730194,3.360003 9.656781,2.578844 4.080365,-0.460172 18.06118,-0.87668 31.068476,-0.925573 z m 68.350374,-3.952304 c 0,-3.307343 -0.64988,-4.662451 -2.39739,-4.998991 -5.76752,-1.110721 -8.65841,6.887906 -3.26928,9.045543 4.49089,1.798011 5.66667,0.958395 5.66667,-4.046552 z M 148,74.000002 c 0,-16.296297 -0.31417,-19.333334 -2,-19.333334 -1.68583,0 -2,3.037037 -2,19.333334 0,16.296296 0.31417,19.333333 2,19.333333 1.68583,0 2,-3.037037 2,-19.333333 z m 39.97761,16.624827 c -1.70428,-3.18446 -10.93173,-10.125831 -16.66642,-12.537347 -4.66668,-1.962398 -18.00395,-4.041706 -15.8806,-2.475818 0.78682,0.580252 1.818,2.105004 2.29149,3.388338 0.54276,1.47109 2.25775,2.333333 4.64095,2.333333 4.47462,0 16.27562,5.61909 19.66381,9.362996 1.31256,1.450352 3.51457,2.637004 4.89339,2.637004 2.10666,0 2.27549,-0.432445 1.05738,-2.708506 z m 2.68906,-3.042039 c 0,-0.229467 -1.95,-2.179467 -4.33334,-4.333333 L 182,79.333335 l 3.91612,4.333334 c 3.65037,4.039273 4.75055,4.946202 4.75055,3.916121 z M 175.6312,59.666668 c -0.29577,-2.383333 -0.53777,-0.433333 -0.53777,4.333333 0,4.766667 0.242,6.716667 0.53777,4.333334 0.29576,-2.383334 0.29576,-6.283334 0,-8.666667 z m -13.83205,4.333333 c -0.11054,-2.566666 -0.26047,-5.75652 -0.33334,-7.088562 -0.10026,-1.832135 -1.02536,-2.31916 -3.79914,-2 -3.42684,0.394301 -3.69323,0.885614 -4.0728,7.511804 l -0.40614,7.089907 4.40614,-0.42324 c 4.11162,-0.394951 4.3927,-0.735168 4.20528,-5.089909 z M 172,60.807115 c 0,-9.688657 -4.80417,-25.406561 -7.10779,-23.254667 -1.32814,1.240674 -1.19076,2.931385 0.67732,8.335292 1.28888,3.72841 2.363,10.228928 2.38694,14.445595 0.0336,5.90658 0.50268,7.666667 2.04353,7.666667 1.53063,0 2,-1.688099 2,-7.192887 z m -31.05903,-2.47378 c -0.3178,-1.65 -0.57782,-0.3 -0.57782,3 0,3.3 0.26002,4.65 0.57782,3 0.31782,-1.65 0.31782,-4.35 0,-6 z m 23.96984,2.75 c -0.42562,-1.063644 -0.74157,-0.747702 -0.80554,0.805556 -0.0579,1.405554 0.25722,2.193054 0.70029,1.75 0.44305,-0.443056 0.49041,-1.593056 0.1052,-2.555556 z M 159,52.392357 c -1.65,-0.317804 -4.35,-0.317804 -6,0 -1.65,0.317804 -0.3,0.577826 3,0.577826 3.3,0 4.65,-0.260022 3,-0.577826 z m -15.75301,-1.585976 c 0.40573,-0.656492 -0.12827,-1.525935 -1.18675,-1.932097 -1.28369,-0.4926 -1.67757,-0.09519 -1.18301,1.193621 0.85946,2.239754 1.34785,2.391947 2.36976,0.738476 z m 13.83329,-3.80638 c -0.31012,-1.613069 -2.13901,-2.559699 -5.9248,-3.066657 -3.01192,-0.403327 -7.12793,-1.815563 -9.14668,-3.138302 -2.01876,-1.322738 -3.26117,-1.742742 -2.76095,-0.933344 0.50024,0.8094 0.14062,1.471636 -0.79917,1.471636 -2.50843,0 3.91269,4.198822 9.44655,6.177167 6.85066,2.449107 9.72334,2.289444 9.18505,-0.5105 z m 7.15781,-19.402471 c 11.95568,-11.927547 21.22871,-17.456694 29.4237,-17.544186 2.74802,-0.02934 4.99832,-0.5675371 5.00065,-1.1959955 0.003,-0.6284584 0.88501,-0.8046629 1.96152,-0.3915654 1.07652,0.4130976 2.31193,0.177291 2.74536,-0.5240148 1.38481,-2.2406722 -9.3106,-1.3810408 -17.38628,1.3974024 -10.53108,3.6232213 -19.30475,9.4820083 -27.30003,18.2301223 -5.64622,6.17787 -8.35552,11.097375 -6.11158,11.097375 0.31429,0 5.56429,-4.981113 11.66666,-11.069138 z m -11.73866,-5.6425 c 1.81032,-4.717628 -24.39099,-17.4956743 -33.48381,-16.3296279 -2.85826,0.3665383 -1.93971,0.8609983 4.10469,2.209577 5.43921,1.213552 10.8662,3.8796079 18,8.8426529 5.61716,3.907907 10.29884,7.15413 10.4037,7.213827 0.10494,0.05969 0.54382,-0.811696 0.97542,-1.936429 z m 14.66989,-8.887065 C 166.80631,12.480584 162.65351,12 157.94089,12 h -8.5684 l 4.9182,4.507188 4.91819,4.507188 4.31024,-3.439224 c 2.37064,-1.891572 4.01323,-3.919806 3.6502,-4.507187 z m 30.49735,-9.9510059 c -0.91667,-0.369883 -2.41667,-0.369883 -3.33334,0 -0.91666,0.3698831 -0.16666,0.6725147 1.66667,0.6725147 1.83333,0 2.58333,-0.3026316 1.66667,-0.6725147 z"/>
    </g>
    <g fill="burlywood" fill-opacity="1" fill-rule="evenodd" stroke-width="0.36527437">
        <path d="m 278.91212,110.08613 c -1.63856,-0.73918 -5.23334,-3.23451 -6.27241,-4.35402 -0.90736,-0.97759 -0.90554,-1.02714 0.14224,-3.88859 0.33003,-0.9013 0.91892,-4.061867 1.30864,-7.023493 0.38973,-2.961626 0.88842,-5.84042 1.1082,-6.397321 0.58324,-1.477867 0.81961,-9.823053 0.5112,-18.048181 l -0.26881,-7.169215 -4.80158,-2.285423 c -18.80586,-8.95107 -30.33811,-13.367008 -47.19342,-18.071351 -13.83917,-3.862532 -22.28335,-5.372863 -29.90481,-5.348799 -4.3589,0.01376 -5.15049,-0.07192 -5.53606,-0.599219 -0.92625,-1.266719 -12.24505,-1.155901 -14.99021,0.146763 l -1.35203,0.641584 -1.04957,-1.256471 c -0.57726,-0.69106 -1.71427,-2.374971 -2.52669,-3.742027 -1.25655,-2.114391 -1.4054,-2.571987 -0.99676,-3.064362 1.22853,-1.480297 8.73742,-7.604723 11.92027,-9.722463 1.94982,-1.297329 5.43542,-3.298238 7.74578,-4.446464 l 4.20066,-2.087683 11.87142,2.984255 c 18.87143,4.74393 35.43874,9.49265 43.64046,12.508753 6.64398,2.443254 16.28691,6.668309 25.58545,11.210279 9.81892,4.796148 15.03244,7.699963 20.52803,11.433661 l 3.73184,2.535402 -0.21959,8.830808 c -0.23805,9.572705 0.0975,13.395554 1.35428,15.429062 0.86428,1.398431 0.88477,1.620419 0.14959,1.620419 -1.77367,0 -2.25459,7.607792 -0.62059,9.817308 1.05232,1.422962 1.03754,2.570556 -0.0607,4.71449 -1.29356,2.525211 -2.98929,4.77559 -6.95666,9.232068 -5.50588,6.18467 -8.14148,7.71148 -11.04815,6.40023 z"/>
        <path d="m 183.286,277.39444 c -3.39166,-1.32027 -6.93392,-3.21395 -11.32351,-6.05352 -2.20991,-1.42957 -5.40545,-3.29169 -7.10121,-4.13804 l -3.08319,-1.53883 2.37082,-0.20596 c 2.90431,-0.2523 4.95053,-1.21785 7.81358,-3.68695 1.20541,-1.03954 3.50663,-2.74454 5.11384,-3.78887 3.12122,-2.02813 3.9768,-2.82411 4.34776,-4.04493 0.23337,-0.76801 0.51521,-0.93906 4.96674,-3.01428 5.45788,-2.54436 18.95463,-14.91356 30.35703,-27.82093 11.23685,-12.71998 26.32756,-35.93018 36.21276,-55.69688 3.83842,-7.67539 5.85359,-12.42065 8.76438,-20.63801 3.28439,-9.27203 3.50699,-10.01327 3.77173,-12.55965 0.15834,-1.52308 0.45856,-2.38446 1.03036,-2.95625 0.79542,-0.79542 9.33738,-3.84364 10.77093,-3.84364 0.39146,0 1.14925,0.51996 1.68399,1.15546 1.99948,2.37625 6.79034,13.03928 7.30514,16.25905 0.29621,1.85265 -0.25002,3.04086 -1.39791,3.04086 -1.35307,0 -2.15451,0.87112 -2.67594,2.90857 -0.56737,2.21699 -4.17822,10.18862 -10.54309,23.27584 -11.72424,24.10698 -20.76641,38.42748 -34.32281,54.35859 -10.32747,12.13655 -35.50762,36.94987 -38.7453,38.18083 -0.52616,0.20005 -0.95043,0.73001 -1.07854,1.3472 -0.66652,3.21131 -0.63695,3.16874 -2.22894,3.20868 -2.64902,0.0665 -6.92781,3.3742 -7.40438,5.72399 -0.20725,1.02188 -0.42008,1.22975 -1.32967,1.29871 -0.59561,0.0451 -2.06917,-0.30182 -3.27457,-0.77104 z"/>
        <path d="m 119.72825,276.01855 c -1.08934,-2.36583 -3.32141,-3.77956 -5.96737,-3.77956 h -2.06866 l 0.099,-1.23331 c 0.15204,-1.89466 -1.33028,-4.00478 -4.92375,-7.0091 C 99.892347,258.16507 83.305592,241.18907 73.520593,229.86717 59.97305,214.19175 46.224108,191.89509 37.707177,171.78854 c -3.286214,-7.75801 -4.790923,-10.767 -6.16933,-12.33692 -0.918483,-1.0461 -1.097549,-1.58402 -1.191383,-3.57897 l -0.110432,-2.34783 -1.880732,-0.22956 c -1.034403,-0.12625 -2.061737,-0.34142 -2.282965,-0.47815 -0.573787,-0.35462 -0.500257,-4.66151 0.142512,-8.34742 0.720781,-4.13327 2.088981,-8.40104 4.113102,-12.82984 1.81292,-3.96669 2.314257,-6.4183 1.510536,-7.38672 -0.448484,-0.54039 -0.40907,-0.5744 0.376636,-0.32503 0.482646,0.15319 1.861487,0.74385 3.064093,1.3126 1.202605,0.56874 3.4364,1.30546 4.963988,1.63716 3.954011,0.85855 3.86881,0.78109 3.901403,3.54721 0.02396,2.03324 0.173479,2.56149 1.004611,3.54924 0.970367,1.15321 1.099475,1.5026 1.5177,4.10717 0.120045,0.7476 0.515569,1.56947 0.878941,1.82637 0.476877,0.33715 0.71665,1.12762 0.861875,2.84138 0.625689,7.3836 10.962183,31.13009 20.300261,46.63671 8.397019,13.9439 16.69919,25.69586 24.21116,34.27156 8.784817,10.02879 22.935997,23.43491 29.163427,27.62796 2.32998,1.56881 2.89254,1.79871 3.9267,1.60471 1.3779,-0.2585 1.43618,-0.152 0.60828,1.11154 -0.57044,0.8706 -0.55745,0.95797 0.27395,1.84329 0.48003,0.51115 2.34955,1.69218 4.1545,2.62451 2.14751,1.10928 3.91492,2.3511 5.11384,3.59311 1.00767,1.04389 3.11621,2.71343 4.68566,3.7101 l 2.85353,1.81213 -2.37151,1.32622 c -7.60737,4.25429 -16.31163,8.07622 -19.32301,8.48451 -1.53318,0.20787 -1.55164,0.1967 -2.27627,-1.37703 z"/>
        <path d="M 30.930067,109.56274 C 28.714785,107.94186 20.553828,99.380485 18.569282,96.59548 14.532675,90.930717 14.073974,87.291722 14.881875,67.342342 c 0.315776,-7.797402 0.655339,-14.30848 0.754584,-14.469062 0.249433,-0.403592 13.709226,-8.528913 18.63337,-11.248473 16.15064,-8.919854 34.988559,-15.899978 59.341307,-21.988082 9.671594,-2.417866 31.006804,-7.290451 31.922134,-7.290451 1.69879,0 8.90482,4.279846 18.48573,10.979152 2.51126,1.755963 5.51793,3.677002 6.68149,4.268978 l 2.11556,1.076319 -1.70125,1.892205 c -2.52217,2.805257 -4.24522,3.675526 -8.07496,4.078448 -1.77182,0.186412 -4.61867,0.342767 -6.32633,0.347457 -3.96992,0.0109 -5.78303,0.496017 -6.98077,1.867768 l -0.95374,1.092308 -1.78581,-0.965353 c -1.74064,-0.940928 -1.91059,-0.960672 -6.71702,-0.780331 -11.39729,0.427635 -33.332979,6.004931 -55.80235,14.188118 -8.045201,2.930008 -14.308316,5.587405 -22.403786,9.505776 l -6.79499,3.288912 -0.23488,4.076028 c -0.412442,7.157383 -0.271562,14.481638 0.327432,17.022951 0.30516,1.294682 0.804007,4.499965 1.108549,7.12285 0.814695,7.016618 1.070559,7.763001 3.538458,10.32202 1.702532,1.7654 1.589187,2.16415 -0.98755,3.4742 -2.950318,1.49998 -5.595291,3.52801 -5.832169,4.47181 -0.294994,1.17535 -0.519112,1.16415 -2.264817,-0.11315 z"/>
        <path d="m 154.48077,16.51551 c -2.53956,-2.327641 -4.61738,-4.326212 -4.61738,-4.44127 0,-0.285578 14.11787,0.223013 15.67949,0.564849 0.68813,0.150631 1.31308,0.459663 1.38877,0.686737 0.19774,0.593206 -1.80273,2.755159 -4.86386,5.256501 -1.45741,1.190892 -2.72179,2.165258 -2.80973,2.165258 -0.088,0 -2.23773,-1.904434 -4.77729,-4.232075 z"/>
        <path d="m 20.190986,120.46749 c 0,-2.20991 0.09467,-4.01802 0.210382,-4.01802 0.115711,0 1.184138,0.74929 2.374284,1.66509 1.326935,1.02105 2.163901,1.93939 2.163901,2.37428 0,0.39006 -0.171415,0.7092 -0.380923,0.7092 -0.209508,0 -1.171701,0.73968 -2.138208,1.64373 -0.966507,0.90406 -1.863519,1.64374 -1.993361,1.64374 -0.129841,0 -0.236075,-1.80811 -0.236075,-4.01802 z"/>
        <path d="m 289.08197,123.57232 c -1.62859,-3.59505 -1.47816,-4.37362 1.09911,-5.68845 1.98003,-1.01013 2.24759,-0.88805 1.45943,0.66593 -0.59955,1.18212 -1.21078,3.4936 -1.61787,6.11835 -0.0818,0.52754 -0.34322,0.22303 -0.94067,-1.09583 z"/>
        <path d="m 151.71786,293.77135 c -3.90275,-1.07664 -13.97923,-6.58638 -15.17954,-8.30005 -0.69489,-0.9921 -0.49212,-1.22419 1.27682,-1.46145 1.6643,-0.22323 6.04281,-2.61242 12.63054,-6.892 2.42972,-1.57841 4.62987,-2.86985 4.88922,-2.86985 0.25934,0 1.88761,1.05319 3.61836,2.34041 4.0693,3.02649 8.38242,5.56496 11.3655,6.68914 1.30585,0.49211 2.43618,0.95642 2.51183,1.0318 0.2529,0.25196 -9.90048,6.69183 -12.89188,8.17678 -3.46798,1.72154 -5.49212,2.03798 -8.22085,1.28522 z"/>
    </g>
    <g fill="silver" fill-opacity="1" fill-rule="evenodd" stroke-width="0.36527437">
        <path d="m 178.73292,145.69544 c -0.9088,-1.69811 -0.40663,-2.88282 2.58471,-6.09782 5.32669,-5.72497 9.45649,-15.58147 9.45649,-22.56961 0,-4.02381 1.00237,-5.4312 3.43361,-4.82099 1.72034,0.43177 2.17779,4.42132 1.10339,9.62286 -1.30236,6.30514 -5.25494,14.19195 -9.31608,18.58893 -2.26888,2.4565 -6.10015,5.98316 -6.49996,5.98316 -0.21122,0 -0.55419,-0.31794 -0.76216,-0.70653 z"/>
        <path d="m 183.99555,104.77869 c -4.68082,-0.35968 -6.42779,-1.20197 -4.56295,-2.20001 1.42053,-0.76024 11.59361,-1.09459 33.25798,-1.09307 29.57177,0.002 37.20448,0.45685 37.54729,2.23711 0.0955,0.49597 -0.30081,0.64326 -2.18665,0.81266 -3.7496,0.33682 -60.0554,0.55069 -64.05567,0.24331 z"/>
        <path d="m 184.51947,92.430758 c -0.527,-0.350519 -2.18803,-1.637175 -3.69119,-2.859235 -4.81059,-3.910995 -12.46512,-7.412516 -18.23431,-8.341173 -1.80484,-0.290523 -3.52929,-0.733841 -3.8321,-0.985152 -0.30281,-0.251311 -0.88585,-1.12542 -1.29564,-1.942463 -0.40979,-0.817043 -1.08392,-1.855374 -1.49807,-2.307401 l -0.753,-0.821867 1.25082,0.0015 c 4.02981,0.0047 12.9291,2.08111 16.39043,3.824211 7.2484,3.650235 15.72606,10.915277 15.72606,13.476649 0,0.83258 -2.79002,0.801653 -4.063,-0.04504 z"/>
        <path d="m 167.45108,114.62249 c -1.02037,-2.92703 -0.80532,-21.676435 0.26085,-22.742602 0.66001,-0.660016 1.60704,0.105148 2.19758,1.775575 0.69165,1.956425 0.76077,18.697447 0.0854,20.693677 -0.6064,1.79248 -1.96346,1.93831 -2.54387,0.27335 z"/>
        <path d="m 135.7034,104.75397 c -0.85692,-0.1773 -1.71988,-0.4224 -1.91769,-0.54466 -0.65331,-0.40376 -0.37468,-1.24831 0.62874,-1.9058 0.8545,-0.55991 2.09575,-0.66546 9.16177,-0.77908 9.45919,-0.15211 13.25908,0.10949 14.34332,0.98745 0.89409,0.72399 0.66256,1.68545 -0.50197,2.08456 -1.16705,0.39998 -19.88613,0.53578 -21.71417,0.15753 z"/>
        <path d="m 145.14337,92.55839 c -1.41427,-1.704086 -1.45342,-34.447346 -0.0443,-37.080239 0.67908,-1.268882 1.60564,-0.787989 2.06272,1.070573 1.02377,4.162827 0.87539,33.74482 -0.17914,35.715233 -0.4948,0.924539 -1.21997,1.040627 -1.83925,0.294433 z"/>
        <path d="m 117.56094,115.53629 c 1.02657,-8.26945 3.89324,-17.060996 7.11435,-21.818441 1.91342,-2.826031 5.7454,-7.169599 7.66981,-8.693755 l 1.4391,-1.139796 -0.21549,1.077481 c -0.17054,0.852683 -0.0415,1.199359 0.61852,1.661651 1.074,0.752255 0.83265,1.218613 -2.7701,5.352658 -4.51586,5.181814 -6.77654,9.779822 -8.28008,16.840882 -0.8299,3.89742 -1.74761,5.80613 -2.7916,5.80613 -0.67198,0 -1.45268,0.63493 -2.47023,2.00901 -0.49546,0.66905 -0.52192,0.57679 -0.31428,-1.09582 z"/>
        <path d="m 40.646351,110.19162 c 0,-1.44906 5.805767,-4.92512 10.244145,-6.13343 7.055746,-1.92087 20.963929,-2.98144 46.561234,-3.55053 12.46714,-0.27718 13.69258,-0.124 13.69258,1.71159 0,0.71838 -0.26204,1.19647 -0.82187,1.49947 -0.61216,0.33133 -5.71497,0.45949 -19.998773,0.50226 -11.605651,0.0348 -20.763263,0.22521 -23.194923,0.48238 -5.898384,0.62382 -12.445155,2.08009 -18.474574,4.10951 -5.171515,1.74065 -8.007819,2.229 -8.007819,1.37875 z"/>
        <path d="m 68.183078,127.40877 c -3.276054,-0.28274 -4.889715,-0.77249 -4.889715,-1.48406 0,-1.5139 9.679806,-1.90767 41.458637,-1.68655 25.64545,0.17845 30.03554,0.36691 30.99937,1.33074 0.53387,0.53387 -0.10787,1.08151 -1.82408,1.55659 -1.70047,0.47073 -60.630066,0.72464 -65.744212,0.28328 z"/>
        <path d="m 158.31707,127.39368 c -0.87526,-0.17955 -1.8204,-0.51654 -2.10033,-0.74885 -0.8564,-0.71076 -0.6058,-1.75305 0.49555,-2.06104 1.68806,-0.47208 20.95091,-0.31442 22.09909,0.18087 1.23406,0.53233 1.32486,1.70381 0.18264,2.35624 -0.98981,0.56537 -18.14726,0.79172 -20.67695,0.27278 z"/>
        <path d="m 143.58705,136.47028 c -0.64844,-1.13712 -0.90634,-19.95547 -0.30413,-22.1919 0.52032,-1.93234 1.36124,-1.87507 2.37982,0.16208 0.67435,1.34871 0.73054,2.19165 0.73054,10.95823 0,7.7371 -0.10205,9.69939 -0.55069,10.58849 -0.69539,1.37812 -1.63089,1.57849 -2.25554,0.4831 z"/>
        <path d="m 208.8552,128.14503 c -4.56952,-0.30515 -5.29648,-0.53169 -5.29648,-1.65051 0,-0.56398 0.28537,-0.96763 0.82187,-1.16253 0.45203,-0.16421 11.91708,-0.29857 25.47789,-0.29857 24.06632,0 24.7958,-0.0207 30.50041,-0.86719 6.50142,-0.96468 8.01488,-0.8157 7.78741,0.76654 -0.17292,1.20273 -2.86704,2.04761 -7.90031,2.47757 -9.4459,0.80688 -43.10425,1.28807 -51.39079,0.73469 z"/>
        <path d="m 165.68306,235.4376 c -0.55431,-0.85646 -0.53702,-15.40331 0.0483,-40.63677 0.99247,-42.78694 1.53909,-55.55835 2.47622,-57.85523 l 0.38922,-0.95395 0.3508,1.27846 c 0.92064,3.35513 0.54615,78.99842 -0.45189,91.27781 -0.42683,5.25155 -1.75972,8.51652 -2.81264,6.88968 z"/>
        <path d="m 154.06405,153.84837 c -6.63485,-1.158 -10.64154,-2.42474 -15.62248,-4.93911 -5.65106,-2.85264 -11.07818,-7.26959 -12.11448,-9.85956 -0.55005,-1.37472 -0.55152,-1.57351 -0.0177,-2.38827 0.43671,-0.66651 0.78276,-0.82965 1.38387,-0.65243 1.2274,0.36187 3.11268,1.69869 5.81381,4.12249 5.33708,4.78911 9.28395,6.71348 17.35638,8.46244 4.54607,0.98494 5.89903,1.63848 6.53297,3.15573 0.62659,1.49963 0.64763,2.70096 0.0464,2.64854 -0.25112,-0.0219 -1.77158,-0.26931 -3.37878,-0.54983 z"/>
        <path d="m 147.70182,253.01022 c -2.66367,-2.85911 -4.77857,-12.09216 -5.57221,-24.32667 -0.67889,-10.46551 0.4502,-57.03314 1.55219,-64.01786 0.42497,-2.69357 1.13616,-3.81102 1.71256,-2.69085 0.19297,0.37501 0.48955,1.42152 0.65907,2.32558 0.16952,0.90405 0.32305,17.9167 0.34119,37.80589 0.037,40.55178 -0.0606,38.89401 2.72559,46.31162 0.81055,2.15792 1.47373,4.25002 1.47373,4.6491 0,1.02418 -1.92017,0.98646 -2.89212,-0.0568 z"/>
        <path d="m 152.05504,37.580808 c 0,-2.136807 5.92864,-9.685904 11.6624,-14.850046 8.26657,-7.445331 17.79357,-12.498448 27.95082,-14.8251103 4.34899,-0.9961954 11.26436,-1.1556594 11.44239,-0.2638541 0.15048,0.7538519 -1.06583,1.0903506 -2.47764,0.6854485 -0.8382,-0.2403918 -1.27387,-0.1439477 -2.02744,0.4488117 -0.72622,0.5712412 -1.81652,0.8337512 -4.47969,1.0785634 -4.43531,0.4077178 -7.23053,1.1205538 -10.47461,2.6712338 -6.23389,2.97982 -11.38096,7.0942 -22.91693,18.31894 -4.40964,4.290679 -8.16643,7.801234 -8.34842,7.801234 -0.18198,0 -0.33088,-0.47935 -0.33088,-1.065221 z"/>
        <path d="M 144.552,18.906203 C 134.37592,11.880172 129.30573,9.2194406 123.381,7.7961046 c -4.67206,-1.1223985 -5.29648,-1.3197027 -5.29648,-1.6735742 0,-0.5944447 4.40748,-0.3842092 7.48812,0.3571812 11.03305,2.6552242 25.73039,10.5965364 26.69037,14.4214294 0.12012,0.478597 -0.008,1.301373 -0.28365,1.828391 l -0.50206,0.958214 z"/>
        <path d="m 168.82583,67.077955 c -0.23255,-0.434513 -0.56199,-3.278963 -0.73209,-6.321 -0.34549,-6.1784 -1.19389,-11.039854 -2.86254,-16.402779 -0.61716,-1.983492 -1.12211,-4.047837 -1.12211,-4.587434 0,-1.29364 0.82516,-2.39856 1.57606,-2.110411 1.33771,0.513325 3.61009,6.489075 5.04072,13.255706 1.02372,4.842052 1.25987,15.27686 0.37003,16.350868 -0.69779,0.842199 -1.76698,0.755089 -2.27007,-0.18495 z"/>
        <path d="m 153.69877,49.00239 c -5.37819,-1.117913 -11.33357,-3.714819 -14.96035,-6.523622 -0.70416,-0.545343 -0.70246,-0.562011 0.11585,-1.13518 0.45762,-0.320525 0.74264,-0.810704 0.6348,-1.091723 -0.2911,-0.758601 0.013,-0.661788 3.60936,1.148873 2.43595,1.226445 4.37273,1.87936 7.4297,2.504646 4.2521,0.869743 5.78121,1.612589 6.32054,3.070531 0.22551,0.609612 0.11834,1.00384 -0.41893,1.541115 -0.70332,0.70332 -1.23111,0.79712 -2.73097,0.48536 z"/>
        <path d="m 36.080422,121.43985 c -5.25391,-2.73024 -5.752541,-3.04154 -9.497134,-5.92914 C 18.026915,108.91257 10.855613,98.84285 7.5912071,88.842616 6.7371492,86.226281 5.5851141,80.399781 5.5814801,78.678279 c -0.00143,-0.675526 0.020124,-0.676301 0.7380641,-0.02658 1.257853,1.138341 2.8944985,4.96613 3.4324878,8.027906 0.82949,4.720744 2.639196,8.471982 6.70145,13.891055 4.98145,6.64529 12.148427,13.08276 17.858502,16.04075 1.438171,0.74501 3.275497,1.92005 4.082948,2.6112 1.344072,1.15047 2.484335,3.3126 2.189479,4.15161 -0.06638,0.1889 -2.093178,-0.68157 -4.503989,-1.93437 z"/>
        <path d="m 20.123499,149.80274 c -0.263475,-0.62693 -0.428921,-3.01703 -0.425043,-6.14033 0.0056,-4.49253 0.126358,-5.51325 0.994098,-8.40131 1.895703,-6.30937 3.342239,-8.3829 5.243689,-7.51654 1.092942,0.49798 0.999675,1.08973 -0.810483,5.14226 -1.707897,3.82359 -2.322947,6.18304 -2.732647,10.48296 -0.379739,3.98547 -0.996989,6.93953 -1.517189,7.26104 -0.176567,0.10912 -0.515158,-0.26351 -0.752425,-0.82808 z"/>
        <path d="m 49.078518,130.3567 c -0.439884,-0.27844 -0.400706,-0.83642 0.262492,-3.73847 0.428752,-1.87615 1.024998,-4.7063 1.324991,-6.28922 0.802358,-4.23365 2.279444,-5.49128 3.376738,-2.87503 1.002427,2.39005 0.0975,8.65422 -1.63851,11.34217 -0.298572,0.4623 -1.003406,1.0787 -1.566299,1.36978 -1.19658,0.61878 -1.099811,0.60828 -1.759412,0.19077 z"/>
        <path d="m 173.11411,255.0848 c -0.25356,-0.66079 -3.56441,-2.34791 -7.0971,-3.61649 -3.1695,-1.13816 -4.60742,-1.84179 -6.19989,-3.03386 -3.99261,-2.98873 2.77152,-2.38623 10.86327,0.96762 1.50475,0.62369 3.14024,1.3989 3.63442,1.7227 l 0.89851,0.58873 -0.84451,0.3124 c -0.76718,0.2838 -0.82199,0.46262 -0.59853,1.95276 0.23493,1.56665 -0.19884,2.2979 -0.65617,1.10614 z"/>
        <path d="m 187.54053,284.65367 c -7.90268,-2.025 -13.15875,-3.79579 -17.42558,-5.87073 -4.29651,-2.08937 -5.42975,-3.25028 -5.51653,-5.65125 -0.0359,-0.99324 -0.007,-1.80588 0.0645,-1.80588 0.0713,0 1.49639,0.98306 3.16676,2.18459 5.4483,3.91908 14.8257,8.13016 19.27907,8.65759 2.339,0.27702 4.01448,-0.34256 6.17204,-2.28239 0.99074,-0.89077 1.98267,-1.61958 2.20428,-1.61958 0.2311,0 0.40292,0.66824 0.40292,1.56699 0,0.86185 0.24797,2.519 0.55104,3.68257 0.30307,1.16357 0.45774,2.26653 0.34372,2.45103 -0.40567,0.65638 -2.98905,0.28938 -9.24219,-1.31294 z"/>
        <path d="m 113.42727,284.66166 c -0.95792,-0.41635 -1.18714,-0.72594 -1.18714,-1.60335 0,-2.27967 2.08507,-2.84263 5.51749,-1.4897 1.67364,0.65969 2.12799,0.69756 3.94022,0.32837 3.31205,-0.67474 8.60648,-2.78379 14.41732,-5.74317 7.83823,-3.9919 12.57573,-7.21535 16.52603,-11.2445 4.52939,-4.61979 7.08809,-6.0957 7.0822,-4.08514 -0.003,1.18282 -1.01299,2.55565 -4.45016,6.05167 -5.64108,5.73766 -9.59577,8.62796 -16.10973,11.77383 -9.97823,4.81894 -22.013,7.63026 -25.73623,6.01199 z"/>
        <path d="m 289.20273,113.14124 c -0.34813,-0.56329 0.12791,-2.14416 1.03198,-3.42706 0.43337,-0.61496 2.15888,-2.56963 3.83447,-4.34371 5.49831,-5.821475 7.0178,-9.000581 7.0178,-14.682718 v -3.498233 l 1.13594,-0.395992 c 0.79117,-0.275802 1.33245,-0.834898 1.78337,-1.842068 0.90767,-2.027339 1.23903,-1.173328 0.92804,2.391812 -0.73556,8.432285 -4.14688,15.692259 -10.53191,22.414049 -2.20039,2.31644 -4.04406,3.76996 -4.78188,3.76996 -0.0986,0 -0.28658,-0.17372 -0.41781,-0.38604 z"/>
        <path d="m 257.61933,113.24302 c 0,-1.78386 1.9184,-5.78228 4.77617,-9.95474 2.10472,-3.07297 4.93716,-6.10391 5.33365,-5.707424 0.10034,0.100344 -1.25622,3.008194 -3.01459,6.461904 -3.07647,6.04265 -5.96249,10.58034 -6.7292,10.58034 -0.20131,0 -0.36603,-0.62104 -0.36603,-1.38008 z"/>
        <path d="m 290.53217,155.23982 c -0.232,-0.43349 -0.5719,-3.46231 -0.75534,-6.7307 -0.35306,-6.29095 -1.03025,-9.68735 -2.75641,-13.82481 -2.32768,-5.57923 -5.62443,-10.52758 -10.93184,-16.40847 -3.18795,-3.5324 -4.9541,-6.02893 -4.9541,-7.00283 0,-0.91017 0.33545,-0.84667 2.25939,0.4277 3.96766,2.62806 10.54204,10.68204 13.49538,16.53257 3.02291,5.98835 5.15357,12.97105 5.6235,18.42962 0.25628,2.97684 -0.24203,6.85202 -1.08895,8.46843 l -0.46981,0.89667 z"/>
        <path d="m 42.240675,98.00607 c -0.312255,-0.813724 0.509429,-3.462261 1.150448,-3.708243 0.568091,-0.217997 3.626837,1.19379 4.272821,1.972153 0.341826,0.411875 0.0975,0.45458 -1.436538,0.251083 -1.764625,-0.234086 -1.870927,-0.198994 -2.344957,0.77409 -0.597119,1.225761 -1.323509,1.5403 -1.641774,0.710917 z"/>
    </g>
</svg>
