<svg xmlns="http://www.w3.org/2000/svg" preserveAspectRatio="none" viewBox="0 0 1400 35">
    <defs>
        <pattern id="纹样" width="50" height="35" x="0" y="0" patternUnits="userSpaceOnUse">
            <g fill-rule="evenodd" stroke="black" transform="scale(.5)">
<!--伊朗安迪斯坦耶米清真寺拼镶图案-->
                <path fill="darkred" d="M 10 10 h 90 l -10 10 h -70l -10 -10 M 20 30 h 60 l -10 10 h -60 l 10 -10 M 0 50 h 70 l 10 10 h -80 M 100 50 l -10 10 h 10"/>
                <path fill="goldenrod" d="M 10 10 v 30 l 10 -10 v -10 l -10 -10 z M 80 30 v 30 l -10 -10 v -10 l 10 -10 z M90 20 v 40 l 10 -10 v -40 l-10 10 z"/>
            </g>
        </pattern>
    </defs>
    <rect width="100%" height="35" x="0" y="0" fill="url(#纹样)"/>
</svg>
