<?xml version="1.0" encoding="utf-8" standalone="no"?><!DOCTYPE svg PUBLIC "-//W3C//DTD SVG 20010904//EN" "http://www.w3.org/TR/2001/REC-SVG-20010904/DTD/svg10.dtd"><svg xmlns="http://www.w3.org/2000/svg" width="1842" height="1999" xmlns:xlink="http://www.w3.org/1999/xlink"><source><![CDATA[Created with Raphaël 2.1.2开始01目标上当？03目标放弃？05目标参与讨论？08目标转移所至网站已被鸡鸣狗盗之徒把持？10结束0906目标忍了？04目标决定创业？07目标板起狂屌酷霸拽脸做小人得志状？111202目标受刺激？yesnoyesnoyesnoyesnoyesnoyesnoyesnoyesno]]></source><desc style="-webkit-tap-highlight-color: rgba(0, 0, 0, 0);">Created with Raphaël 2.1.2</desc><defs style="-webkit-tap-highlight-color: rgba(0, 0, 0, 0);"><path stroke-linecap="round" d="M5,0 0,2.5 5,5z" id="raphael-marker-block-obj1" style="-webkit-tap-highlight-color: rgba(0, 0, 0, 0);"></path><marker id="raphael-marker-endblock33-obj2" markerHeight="3" markerWidth="3" orient="auto" refX="1.5" refY="1.5" style="-webkit-tap-highlight-color: rgba(0, 0, 0, 0);"><use xmlns:xlink="http://www.w3.org/1999/xlink" xlink:href="#raphael-marker-block-obj1" transform="rotate(180 1.5 1.5) scale(0.6,0.6)" stroke-width="1.6667" fill="black" stroke="none" style="-webkit-tap-highlight-color: rgba(0, 0, 0, 0);"></use></marker></defs><rect x="0" y="0" width="52" height="37" r="20" rx="20" ry="20" fill="#ffffff" stroke="#000000" style="-webkit-tap-highlight-color: rgba(0, 0, 0, 0);" stroke-width="2" class="flowchart" id="开始" transform="matrix(1,0,0,1,214.25,103.625)"></rect><text x="10" y="18.5" text-anchor="start" font="10px &quot;Arial&quot;" stroke="none" fill="#000000" style="-webkit-tap-highlight-color: rgba(0, 0, 0, 0); text-anchor: start; font-style: normal; font-variant: normal; font-weight: normal; font-stretch: normal; font-size: 15px; line-height: normal; font-family: Arial;" id="开始t" class="flowchartt" font-size="15px" transform="matrix(1,0,0,1,214.25,103.625)" stroke-width="1"><tspan dy="5.5" style="-webkit-tap-highlight-color: rgba(0, 0, 0, 0);">开始</tspan></text><rect x="0" y="0" width="36.671875" height="37" r="0" rx="0" ry="0" fill="#ffffff" stroke="#000000" style="-webkit-tap-highlight-color: rgba(0, 0, 0, 0);" stroke-width="2" class="flowchart" id="op01" transform="matrix(1,0,0,1,221.9141,294.25)"></rect><text x="10" y="18.5" text-anchor="start" font="10px &quot;Arial&quot;" stroke="none" fill="#000000" style="-webkit-tap-highlight-color: rgba(0, 0, 0, 0); text-anchor: start; font-style: normal; font-variant: normal; font-weight: normal; font-stretch: normal; font-size: 15px; line-height: normal; font-family: Arial;" id="op01t" class="flowchartt" font-size="15px" transform="matrix(1,0,0,1,221.9141,294.25)" stroke-width="1"><tspan dy="5.5" style="-webkit-tap-highlight-color: rgba(0, 0, 0, 0);">01</tspan></text><path fill="#ffffff" stroke="#000000" d="M39.375,19.6875L0,39.375L78.75,78.75L157.5,39.375L78.75,0L0,39.375" stroke-width="2" id="cond1" class="flowchart" style="-webkit-tap-highlight-color: rgba(0, 0, 0, 0);" transform="matrix(1,0,0,1,161.5,464)"></path><text x="44.375" y="39.375" text-anchor="start" font="10px &quot;Arial&quot;" stroke="none" fill="#000000" style="-webkit-tap-highlight-color: rgba(0, 0, 0, 0); text-anchor: start; font-style: normal; font-variant: normal; font-weight: normal; font-stretch: normal; font-size: 15px; line-height: normal; font-family: Arial;" id="cond1t" class="flowchartt" font-size="15px" transform="matrix(1,0,0,1,161.5,464)" stroke-width="1"><tspan dy="5.5" style="-webkit-tap-highlight-color: rgba(0, 0, 0, 0);">目标上当？</tspan></text><rect x="0" y="0" width="36.671875" height="37" r="0" rx="0" ry="0" fill="#ffffff" stroke="#000000" style="-webkit-tap-highlight-color: rgba(0, 0, 0, 0);" stroke-width="2" class="flowchart" id="op03" transform="matrix(1,0,0,1,221.9141,696.375)"></rect><text x="10" y="18.5" text-anchor="start" font="10px &quot;Arial&quot;" stroke="none" fill="#000000" style="-webkit-tap-highlight-color: rgba(0, 0, 0, 0); text-anchor: start; font-style: normal; font-variant: normal; font-weight: normal; font-stretch: normal; font-size: 15px; line-height: normal; font-family: Arial;" id="op03t" class="flowchartt" font-size="15px" transform="matrix(1,0,0,1,221.9141,696.375)" stroke-width="1"><tspan dy="5.5" style="-webkit-tap-highlight-color: rgba(0, 0, 0, 0);">03</tspan></text><path fill="#ffffff" stroke="#000000" d="M39.375,19.6875L0,39.375L78.75,78.75L157.5,39.375L78.75,0L0,39.375" stroke-width="2" id="cond3" class="flowchart" style="-webkit-tap-highlight-color: rgba(0, 0, 0, 0);" transform="matrix(1,0,0,1,161.5,866.125)"></path><text x="44.375" y="39.375" text-anchor="start" font="10px &quot;Arial&quot;" stroke="none" fill="#000000" style="-webkit-tap-highlight-color: rgba(0, 0, 0, 0); text-anchor: start; font-style: normal; font-variant: normal; font-weight: normal; font-stretch: normal; font-size: 15px; line-height: normal; font-family: Arial;" id="cond3t" class="flowchartt" font-size="15px" transform="matrix(1,0,0,1,161.5,866.125)" stroke-width="1"><tspan dy="5.5" style="-webkit-tap-highlight-color: rgba(0, 0, 0, 0);">目标放弃？</tspan></text><rect x="0" y="0" width="36.671875" height="37" r="0" rx="0" ry="0" fill="#ffffff" stroke="#000000" style="-webkit-tap-highlight-color: rgba(0, 0, 0, 0);" stroke-width="2" class="flowchart" id="op05" transform="matrix(1,0,0,1,221.9141,1098.5)"></rect><text x="10" y="18.5" text-anchor="start" font="10px &quot;Arial&quot;" stroke="none" fill="#000000" style="-webkit-tap-highlight-color: rgba(0, 0, 0, 0); text-anchor: start; font-style: normal; font-variant: normal; font-weight: normal; font-stretch: normal; font-size: 15px; line-height: normal; font-family: Arial;" id="op05t" class="flowchartt" font-size="15px" transform="matrix(1,0,0,1,221.9141,1098.5)" stroke-width="1"><tspan dy="5.5" style="-webkit-tap-highlight-color: rgba(0, 0, 0, 0);">05</tspan></text><path fill="#ffffff" stroke="#000000" d="M50.625,25.3125L0,50.625L101.25,101.25L202.5,50.625L101.25,0L0,50.625" stroke-width="2" id="cond5" class="flowchart" style="-webkit-tap-highlight-color: rgba(0, 0, 0, 0);" transform="matrix(1,0,0,1,139,1257)"></path><text x="55.625" y="50.625" text-anchor="start" font="10px &quot;Arial&quot;" stroke="none" fill="#000000" style="-webkit-tap-highlight-color: rgba(0, 0, 0, 0); text-anchor: start; font-style: normal; font-variant: normal; font-weight: normal; font-stretch: normal; font-size: 15px; line-height: normal; font-family: Arial;" id="cond5t" class="flowchartt" font-size="15px" transform="matrix(1,0,0,1,139,1257)" stroke-width="1"><tspan dy="5.5" style="-webkit-tap-highlight-color: rgba(0, 0, 0, 0);">目标参与讨论？</tspan></text><rect x="0" y="0" width="36.671875" height="37" r="0" rx="0" ry="0" fill="#ffffff" stroke="#000000" style="-webkit-tap-highlight-color: rgba(0, 0, 0, 0);" stroke-width="2" class="flowchart" id="op08" transform="matrix(1,0,0,1,221.9141,1511.875)"></rect><text x="10" y="18.5" text-anchor="start" font="10px &quot;Arial&quot;" stroke="none" fill="#000000" style="-webkit-tap-highlight-color: rgba(0, 0, 0, 0); text-anchor: start; font-style: normal; font-variant: normal; font-weight: normal; font-stretch: normal; font-size: 15px; line-height: normal; font-family: Arial;" id="op08t" class="flowchartt" font-size="15px" transform="matrix(1,0,0,1,221.9141,1511.875)" stroke-width="1"><tspan dy="5.5" style="-webkit-tap-highlight-color: rgba(0, 0, 0, 0);">08</tspan></text><path fill="#ffffff" stroke="#000000" d="M118.125,59.0625L0,118.125L236.25,236.25L472.5,118.125L236.25,0L0,118.125" stroke-width="2" id="cond8" class="flowchart" style="-webkit-tap-highlight-color: rgba(0, 0, 0, 0);" transform="matrix(1,0,0,1,4,1602.875)"></path><text x="123.125" y="118.125" text-anchor="start" font="10px &quot;Arial&quot;" stroke="none" fill="#000000" style="-webkit-tap-highlight-color: rgba(0, 0, 0, 0); text-anchor: start; font-style: normal; font-variant: normal; font-weight: normal; font-stretch: normal; font-size: 15px; line-height: normal; font-family: Arial;" id="cond8t" class="flowchartt" font-size="15px" transform="matrix(1,0,0,1,4,1602.875)" stroke-width="1"><tspan dy="5.5" style="-webkit-tap-highlight-color: rgba(0, 0, 0, 0);">目标转移所至网站已被鸡鸣狗盗之徒把持？</tspan><tspan dy="18" x="123.125" style="-webkit-tap-highlight-color: rgba(0, 0, 0, 0);"></tspan></text><rect x="0" y="0" width="36.671875" height="37" r="0" rx="0" ry="0" fill="#ffffff" stroke="#000000" style="-webkit-tap-highlight-color: rgba(0, 0, 0, 0);" stroke-width="2" class="flowchart" id="op10" transform="matrix(1,0,0,1,748.4141,1702.5)"></rect><text x="10" y="18.5" text-anchor="start" font="10px &quot;Arial&quot;" stroke="none" fill="#000000" style="-webkit-tap-highlight-color: rgba(0, 0, 0, 0); text-anchor: start; font-style: normal; font-variant: normal; font-weight: normal; font-stretch: normal; font-size: 15px; line-height: normal; font-family: Arial;" id="op10t" class="flowchartt" font-size="15px" transform="matrix(1,0,0,1,748.4141,1702.5)" stroke-width="1"><tspan dy="5.5" style="-webkit-tap-highlight-color: rgba(0, 0, 0, 0);">10</tspan></text><rect x="0" y="0" width="52" height="37" r="20" rx="20" ry="20" fill="#ffffff" stroke="#000000" style="-webkit-tap-highlight-color: rgba(0, 0, 0, 0);" stroke-width="2" class="flowchart" id="结束" transform="matrix(1,0,0,1,740.75,1893.125)"></rect><text x="10" y="18.5" text-anchor="start" font="10px &quot;Arial&quot;" stroke="none" fill="#000000" style="-webkit-tap-highlight-color: rgba(0, 0, 0, 0); text-anchor: start; font-style: normal; font-variant: normal; font-weight: normal; font-stretch: normal; font-size: 15px; line-height: normal; font-family: Arial;" id="结束t" class="flowchartt" font-size="15px" transform="matrix(1,0,0,1,740.75,1893.125)" stroke-width="1"><tspan dy="5.5" style="-webkit-tap-highlight-color: rgba(0, 0, 0, 0);">结束</tspan><tspan dy="18" x="10" style="-webkit-tap-highlight-color: rgba(0, 0, 0, 0);"></tspan></text><rect x="0" y="0" width="36.671875" height="37" r="0" rx="0" ry="0" fill="#ffffff" stroke="#000000" style="-webkit-tap-highlight-color: rgba(0, 0, 0, 0);" stroke-width="2" class="flowchart" id="op09" transform="matrix(1,0,0,1,613.4141,1289.125)"></rect><text x="10" y="18.5" text-anchor="start" font="10px &quot;Arial&quot;" stroke="none" fill="#000000" style="-webkit-tap-highlight-color: rgba(0, 0, 0, 0); text-anchor: start; font-style: normal; font-variant: normal; font-weight: normal; font-stretch: normal; font-size: 15px; line-height: normal; font-family: Arial;" id="op09t" class="flowchartt" font-size="15px" transform="matrix(1,0,0,1,613.4141,1289.125)" stroke-width="1"><tspan dy="5.5" style="-webkit-tap-highlight-color: rgba(0, 0, 0, 0);">09</tspan></text><rect x="0" y="0" width="36.671875" height="37" r="0" rx="0" ry="0" fill="#ffffff" stroke="#000000" style="-webkit-tap-highlight-color: rgba(0, 0, 0, 0);" stroke-width="2" class="flowchart" id="op06" transform="matrix(1,0,0,1,590.9141,887)"></rect><text x="10" y="18.5" text-anchor="start" font="10px &quot;Arial&quot;" stroke="none" fill="#000000" style="-webkit-tap-highlight-color: rgba(0, 0, 0, 0); text-anchor: start; font-style: normal; font-variant: normal; font-weight: normal; font-stretch: normal; font-size: 15px; line-height: normal; font-family: Arial;" id="op06t" class="flowchartt" font-size="15px" transform="matrix(1,0,0,1,590.9141,887)" stroke-width="1"><tspan dy="5.5" style="-webkit-tap-highlight-color: rgba(0, 0, 0, 0);">06</tspan></text><path fill="#ffffff" stroke="#000000" d="M39.375,19.6875L0,39.375L78.75,78.75L157.5,39.375L78.75,0L0,39.375" stroke-width="2" id="cond6" class="flowchart" style="-webkit-tap-highlight-color: rgba(0, 0, 0, 0);" transform="matrix(1,0,0,1,530.5,1056.75)"></path><text x="44.375" y="39.375" text-anchor="start" font="10px &quot;Arial&quot;" stroke="none" fill="#000000" style="-webkit-tap-highlight-color: rgba(0, 0, 0, 0); text-anchor: start; font-style: normal; font-variant: normal; font-weight: normal; font-stretch: normal; font-size: 15px; line-height: normal; font-family: Arial;" id="cond6t" class="flowchartt" font-size="15px" transform="matrix(1,0,0,1,530.5,1056.75)" stroke-width="1"><tspan dy="5.5" style="-webkit-tap-highlight-color: rgba(0, 0, 0, 0);">目标忍了？</tspan></text><rect x="0" y="0" width="36.671875" height="37" r="0" rx="0" ry="0" fill="#ffffff" stroke="#000000" style="-webkit-tap-highlight-color: rgba(0, 0, 0, 0);" stroke-width="2" class="flowchart" id="op04" transform="matrix(1,0,0,1,959.9141,1077.625)"></rect><text x="10" y="18.5" text-anchor="start" font="10px &quot;Arial&quot;" stroke="none" fill="#000000" style="-webkit-tap-highlight-color: rgba(0, 0, 0, 0); text-anchor: start; font-style: normal; font-variant: normal; font-weight: normal; font-stretch: normal; font-size: 15px; line-height: normal; font-family: Arial;" id="op04t" class="flowchartt" font-size="15px" transform="matrix(1,0,0,1,959.9141,1077.625)" stroke-width="1"><tspan dy="5.5" style="-webkit-tap-highlight-color: rgba(0, 0, 0, 0);">04</tspan></text><path fill="#ffffff" stroke="#000000" d="M50.625,25.3125L0,50.625L101.25,101.25L202.5,50.625L101.25,0L0,50.625" stroke-width="2" id="cond4" class="flowchart" style="-webkit-tap-highlight-color: rgba(0, 0, 0, 0);" transform="matrix(1,0,0,1,877,1236.125)"></path><text x="55.625" y="50.625" text-anchor="start" font="10px &quot;Arial&quot;" stroke="none" fill="#000000" style="-webkit-tap-highlight-color: rgba(0, 0, 0, 0); text-anchor: start; font-style: normal; font-variant: normal; font-weight: normal; font-stretch: normal; font-size: 15px; line-height: normal; font-family: Arial;" id="cond4t" class="flowchartt" font-size="15px" transform="matrix(1,0,0,1,877,1236.125)" stroke-width="1"><tspan dy="5.5" style="-webkit-tap-highlight-color: rgba(0, 0, 0, 0);">目标决定创业？</tspan></text><rect x="0" y="0" width="36.671875" height="37" r="0" rx="0" ry="0" fill="#ffffff" stroke="#000000" style="-webkit-tap-highlight-color: rgba(0, 0, 0, 0);" stroke-width="2" class="flowchart" id="op07" transform="matrix(1,0,0,1,959.9141,1491)"></rect><text x="10" y="18.5" text-anchor="start" font="10px &quot;Arial&quot;" stroke="none" fill="#000000" style="-webkit-tap-highlight-color: rgba(0, 0, 0, 0); text-anchor: start; font-style: normal; font-variant: normal; font-weight: normal; font-stretch: normal; font-size: 15px; line-height: normal; font-family: Arial;" id="op07t" class="flowchartt" font-size="15px" transform="matrix(1,0,0,1,959.9141,1491)" stroke-width="1"><tspan dy="5.5" style="-webkit-tap-highlight-color: rgba(0, 0, 0, 0);">07</tspan></text><path fill="#ffffff" stroke="#000000" d="M106.875,53.4375L0,106.875L213.75,213.75L427.5,106.875L213.75,0L0,106.875" stroke-width="2" id="cond7" class="flowchart" style="-webkit-tap-highlight-color: rgba(0, 0, 0, 0);" transform="matrix(1,0,0,1,764.5,1593.25)"></path><text x="111.875" y="106.875" text-anchor="start" font="10px &quot;Arial&quot;" stroke="none" fill="#000000" style="-webkit-tap-highlight-color: rgba(0, 0, 0, 0); text-anchor: start; font-style: normal; font-variant: normal; font-weight: normal; font-stretch: normal; font-size: 15px; line-height: normal; font-family: Arial;" id="cond7t" class="flowchartt" font-size="15px" transform="matrix(1,0,0,1,764.5,1593.25)" stroke-width="1"><tspan dy="5.5" style="-webkit-tap-highlight-color: rgba(0, 0, 0, 0);">目标板起狂屌酷霸拽脸做小人得志状？</tspan></text><rect x="0" y="0" width="35.5625" height="37" r="0" rx="0" ry="0" fill="#ffffff" stroke="#000000" style="-webkit-tap-highlight-color: rgba(0, 0, 0, 0);" stroke-width="2" class="flowchart" id="op11" transform="matrix(1,0,0,1,960.4688,1960.625)"></rect><text x="10" y="18.5" text-anchor="start" font="10px &quot;Arial&quot;" stroke="none" fill="#000000" style="-webkit-tap-highlight-color: rgba(0, 0, 0, 0); text-anchor: start; font-style: normal; font-variant: normal; font-weight: normal; font-stretch: normal; font-size: 15px; line-height: normal; font-family: Arial;" id="op11t" class="flowchartt" font-size="15px" transform="matrix(1,0,0,1,960.4688,1960.625)" stroke-width="1"><tspan dy="5.5" style="-webkit-tap-highlight-color: rgba(0, 0, 0, 0);">11</tspan></text><rect x="0" y="0" width="36.671875" height="37" r="0" rx="0" ry="0" fill="#ffffff" stroke="#000000" style="-webkit-tap-highlight-color: rgba(0, 0, 0, 0);" stroke-width="2" class="flowchart" id="op12" transform="matrix(1,0,0,1,1463.9141,1681.625)"></rect><text x="10" y="18.5" text-anchor="start" font="10px &quot;Arial&quot;" stroke="none" fill="#000000" style="-webkit-tap-highlight-color: rgba(0, 0, 0, 0); text-anchor: start; font-style: normal; font-variant: normal; font-weight: normal; font-stretch: normal; font-size: 15px; line-height: normal; font-family: Arial;" id="op12t" class="flowchartt" font-size="15px" transform="matrix(1,0,0,1,1463.9141,1681.625)" stroke-width="1"><tspan dy="5.5" style="-webkit-tap-highlight-color: rgba(0, 0, 0, 0);">12</tspan><tspan dy="18" x="10" style="-webkit-tap-highlight-color: rgba(0, 0, 0, 0);"></tspan></text><rect x="0" y="0" width="36.671875" height="37" r="0" rx="0" ry="0" fill="#ffffff" stroke="#000000" style="-webkit-tap-highlight-color: rgba(0, 0, 0, 0);" stroke-width="2" class="flowchart" id="op02" transform="matrix(1,0,0,1,677.5859,484.875)"></rect><text x="10" y="18.5" text-anchor="start" font="10px &quot;Arial&quot;" stroke="none" fill="#000000" style="-webkit-tap-highlight-color: rgba(0, 0, 0, 0); text-anchor: start; font-style: normal; font-variant: normal; font-weight: normal; font-stretch: normal; font-size: 15px; line-height: normal; font-family: Arial;" id="op02t" class="flowchartt" font-size="15px" transform="matrix(1,0,0,1,677.5859,484.875)" stroke-width="1"><tspan dy="5.5" style="-webkit-tap-highlight-color: rgba(0, 0, 0, 0);">02</tspan></text><path fill="#ffffff" stroke="#000000" d="M45,22.5L0,45L90,90L180,45L90,0L0,45" stroke-width="2" id="cond2" class="flowchart" style="-webkit-tap-highlight-color: rgba(0, 0, 0, 0);" transform="matrix(1,0,0,1,605.9219,649)"></path><text x="50" y="45" text-anchor="start" font="10px &quot;Arial&quot;" stroke="none" fill="#000000" style="-webkit-tap-highlight-color: rgba(0, 0, 0, 0); text-anchor: start; font-style: normal; font-variant: normal; font-weight: normal; font-stretch: normal; font-size: 15px; line-height: normal; font-family: Arial;" id="cond2t" class="flowchartt" font-size="15px" transform="matrix(1,0,0,1,605.9219,649)" stroke-width="1"><tspan dy="5.5" style="-webkit-tap-highlight-color: rgba(0, 0, 0, 0);">目标受刺激？</tspan></text><path fill="none" stroke="#000000" d="M240.25,140.625C240.25,140.625,240.25,269.8043714761734,240.25,291.2501655688975" stroke-width="2" marker-end="url(#raphael-marker-endblock33-obj2)" style="-webkit-tap-highlight-color: rgba(0, 0, 0, 0);"></path><path fill="none" stroke="#000000" d="M240.25,331.25C240.25,331.25,240.25,441.3360521197319,240.25,461.00963369972305" stroke-width="2" marker-end="url(#raphael-marker-endblock33-obj2)" style="-webkit-tap-highlight-color: rgba(0, 0, 0, 0);"></path><path fill="none" stroke="#000000" d="M240.25,542.75C240.25,542.75,240.25,671.9293714761734,240.25,693.3751655688975" stroke-width="2" marker-end="url(#raphael-marker-endblock33-obj2)" style="-webkit-tap-highlight-color: rgba(0, 0, 0, 0);"></path><text x="245.25" y="552.75" text-anchor="start" font="10px &quot;Arial&quot;" stroke="none" fill="#000000" style="-webkit-tap-highlight-color: rgba(0, 0, 0, 0); text-anchor: start; font-style: normal; font-variant: normal; font-weight: normal; font-stretch: normal; font-size: 15px; line-height: normal; font-family: Arial;" font-size="15px" stroke-width="1"><tspan dy="5.5" style="-webkit-tap-highlight-color: rgba(0, 0, 0, 0);">yes</tspan></text><path fill="none" stroke="#000000" d="M319,503.375C319,503.375,640.1004356965423,503.375,674.5936465623818,503.375" stroke-width="2" marker-end="url(#raphael-marker-endblock33-obj2)" style="-webkit-tap-highlight-color: rgba(0, 0, 0, 0);"></path><text x="324" y="493.375" text-anchor="start" font="10px &quot;Arial&quot;" stroke="none" fill="#000000" style="-webkit-tap-highlight-color: rgba(0, 0, 0, 0); text-anchor: start; font-style: normal; font-variant: normal; font-weight: normal; font-stretch: normal; font-size: 15px; line-height: normal; font-family: Arial;" font-size="15px" stroke-width="1"><tspan dy="5.5" style="-webkit-tap-highlight-color: rgba(0, 0, 0, 0);">no</tspan></text><path fill="none" stroke="#000000" d="M240.25,733.375C240.25,733.375,240.25,843.4610521197319,240.25,863.134633699723" stroke-width="2" marker-end="url(#raphael-marker-endblock33-obj2)" style="-webkit-tap-highlight-color: rgba(0, 0, 0, 0);"></path><path fill="none" stroke="#000000" d="M240.25,944.875C240.25,944.875,240.25,1074.0543714761734,240.25,1095.5001655688975" stroke-width="2" marker-end="url(#raphael-marker-endblock33-obj2)" style="-webkit-tap-highlight-color: rgba(0, 0, 0, 0);"></path><text x="245.25" y="954.875" text-anchor="start" font="10px &quot;Arial&quot;" stroke="none" fill="#000000" style="-webkit-tap-highlight-color: rgba(0, 0, 0, 0); text-anchor: start; font-style: normal; font-variant: normal; font-weight: normal; font-stretch: normal; font-size: 15px; line-height: normal; font-family: Arial;" font-size="15px" stroke-width="1"><tspan dy="5.5" style="-webkit-tap-highlight-color: rgba(0, 0, 0, 0);">yes</tspan></text><path fill="none" stroke="#000000" d="M319,905.5C319,905.5,558.2359785828739,905.5,587.9068470203983,905.5" stroke-width="2" marker-end="url(#raphael-marker-endblock33-obj2)" style="-webkit-tap-highlight-color: rgba(0, 0, 0, 0);"></path><text x="324" y="895.5" text-anchor="start" font="10px &quot;Arial&quot;" stroke="none" fill="#000000" style="-webkit-tap-highlight-color: rgba(0, 0, 0, 0); text-anchor: start; font-style: normal; font-variant: normal; font-weight: normal; font-stretch: normal; font-size: 15px; line-height: normal; font-family: Arial;" font-size="15px" stroke-width="1"><tspan dy="5.5" style="-webkit-tap-highlight-color: rgba(0, 0, 0, 0);">no</tspan></text><path fill="none" stroke="#000000" d="M240.25,1135.5C240.25,1135.5,240.25,1235.28662109375,240.25,1253.9966125488281" stroke-width="2" marker-end="url(#raphael-marker-endblock33-obj2)" style="-webkit-tap-highlight-color: rgba(0, 0, 0, 0);"></path><path fill="none" stroke="#000000" d="M240.25,1358.25C240.25,1358.25,240.25,1487.4293714761734,240.25,1508.8751655688975" stroke-width="2" marker-end="url(#raphael-marker-endblock33-obj2)" style="-webkit-tap-highlight-color: rgba(0, 0, 0, 0);"></path><text x="245.25" y="1368.25" text-anchor="start" font="10px &quot;Arial&quot;" stroke="none" fill="#000000" style="-webkit-tap-highlight-color: rgba(0, 0, 0, 0); text-anchor: start; font-style: normal; font-variant: normal; font-weight: normal; font-stretch: normal; font-size: 15px; line-height: normal; font-family: Arial;" font-size="15px" stroke-width="1"><tspan dy="5.5" style="-webkit-tap-highlight-color: rgba(0, 0, 0, 0);">yes</tspan></text><path fill="none" stroke="#000000" d="M341.5,1307.625C341.5,1307.625,580.7359785828739,1307.625,610.4068470203983,1307.625" stroke-width="2" marker-end="url(#raphael-marker-endblock33-obj2)" style="-webkit-tap-highlight-color: rgba(0, 0, 0, 0);"></path><text x="346.5" y="1297.625" text-anchor="start" font="10px &quot;Arial&quot;" stroke="none" fill="#000000" style="-webkit-tap-highlight-color: rgba(0, 0, 0, 0); text-anchor: start; font-style: normal; font-variant: normal; font-weight: normal; font-stretch: normal; font-size: 15px; line-height: normal; font-family: Arial;" font-size="15px" stroke-width="1"><tspan dy="5.5" style="-webkit-tap-highlight-color: rgba(0, 0, 0, 0);">no</tspan></text><path fill="none" stroke="#000000" d="M240.25,1548.875C240.25,1548.875,240.25,1588.5290999412537,240.25,1599.8754390846007" stroke-width="2" marker-end="url(#raphael-marker-endblock33-obj2)" style="-webkit-tap-highlight-color: rgba(0, 0, 0, 0);"></path><path fill="none" stroke="#000000" d="M240.25,1839.125C240.25,1839.125,240.25,1864.125,240.25,1864.125C240.25,1864.125,501.5,1864.125,501.5,1864.125C501.5,1864.125,501.5,1486.875,501.5,1486.875C501.5,1486.875,240.25,1486.875,240.25,1486.875C240.25,1486.875,240.25,1502.24844455719,240.25,1508.8842477742583" stroke-width="2" marker-end="url(#raphael-marker-endblock33-obj2)" style="-webkit-tap-highlight-color: rgba(0, 0, 0, 0);"></path><text x="245.25" y="1849.125" text-anchor="start" font="10px &quot;Arial&quot;" stroke="none" fill="#000000" style="-webkit-tap-highlight-color: rgba(0, 0, 0, 0); text-anchor: start; font-style: normal; font-variant: normal; font-weight: normal; font-stretch: normal; font-size: 15px; line-height: normal; font-family: Arial;" font-size="15px" stroke-width="1"><tspan dy="5.5" style="-webkit-tap-highlight-color: rgba(0, 0, 0, 0);">yes</tspan></text><path fill="none" stroke="#000000" d="M476.5,1721C476.5,1721,497.5,1721,497.5,1721C497.5,1721,501.5,1713,505.5,1721C505.5,1721,717.5555706308223,1721,745.4085728279372,1721" stroke-width="2" marker-end="url(#raphael-marker-endblock33-obj2)" style="-webkit-tap-highlight-color: rgba(0, 0, 0, 0);"></path><text x="481.5" y="1711" text-anchor="start" font="10px &quot;Arial&quot;" stroke="none" fill="#000000" style="-webkit-tap-highlight-color: rgba(0, 0, 0, 0); text-anchor: start; font-style: normal; font-variant: normal; font-weight: normal; font-stretch: normal; font-size: 15px; line-height: normal; font-family: Arial;" font-size="15px" stroke-width="1"><tspan dy="5.5" style="-webkit-tap-highlight-color: rgba(0, 0, 0, 0);">no</tspan></text><path fill="none" stroke="#000000" d="M766.75,1739.5C766.75,1739.5,766.75,1868.6793714761734,766.75,1890.1251655688975" stroke-width="2" marker-end="url(#raphael-marker-endblock33-obj2)" style="-webkit-tap-highlight-color: rgba(0, 0, 0, 0);"></path><path fill="none" stroke="#000000" d="M631.75,1326.125C631.75,1326.125,631.75,1351.125,631.75,1351.125C631.75,1351.125,564.25,1351.125,564.25,1351.125C564.25,1351.125,564.25,1717,564.25,1717C564.25,1717,572.25,1721,564.25,1725C564.25,1725,564.25,1868.125,564.25,1868.125C564.25,1868.125,766.75,1868.125,766.75,1868.125C766.75,1868.125,766.75,1883.49844455719,766.75,1890.1342477742583" stroke-width="2" marker-end="url(#raphael-marker-endblock33-obj2)" style="-webkit-tap-highlight-color: rgba(0, 0, 0, 0);"></path><path fill="none" stroke="#000000" d="M609.25,924C609.25,924,609.25,1034.086052119732,609.25,1053.759633699723" stroke-width="2" marker-end="url(#raphael-marker-endblock33-obj2)" style="-webkit-tap-highlight-color: rgba(0, 0, 0, 0);"></path><path fill="none" stroke="#000000" d="M609.25,1135.5C609.25,1135.5,609.25,1073.5,609.25,1073.5C609.25,1073.5,240.25,1073.5,240.25,1073.5C240.25,1073.5,240.25,1088.87344455719,240.25,1095.5092477742583" stroke-width="2" marker-end="url(#raphael-marker-endblock33-obj2)" style="-webkit-tap-highlight-color: rgba(0, 0, 0, 0);"></path><text x="614.25" y="1145.5" text-anchor="start" font="10px &quot;Arial&quot;" stroke="none" fill="#000000" style="-webkit-tap-highlight-color: rgba(0, 0, 0, 0); text-anchor: start; font-style: normal; font-variant: normal; font-weight: normal; font-stretch: normal; font-size: 15px; line-height: normal; font-family: Arial;" font-size="15px" stroke-width="1"><tspan dy="5.5" style="-webkit-tap-highlight-color: rgba(0, 0, 0, 0);">yes</tspan></text><path fill="none" stroke="#000000" d="M688,1096.125C688,1096.125,927.2359785828739,1096.125,956.9068470203983,1096.125" stroke-width="2" marker-end="url(#raphael-marker-endblock33-obj2)" style="-webkit-tap-highlight-color: rgba(0, 0, 0, 0);"></path><text x="693" y="1086.125" text-anchor="start" font="10px &quot;Arial&quot;" stroke="none" fill="#000000" style="-webkit-tap-highlight-color: rgba(0, 0, 0, 0); text-anchor: start; font-style: normal; font-variant: normal; font-weight: normal; font-stretch: normal; font-size: 15px; line-height: normal; font-family: Arial;" font-size="15px" stroke-width="1"><tspan dy="5.5" style="-webkit-tap-highlight-color: rgba(0, 0, 0, 0);">no</tspan></text><path fill="none" stroke="#000000" d="M978.25,1114.625C978.25,1114.625,978.25,1214.41162109375,978.25,1233.1216125488281" stroke-width="2" marker-end="url(#raphael-marker-endblock33-obj2)" style="-webkit-tap-highlight-color: rgba(0, 0, 0, 0);"></path><path fill="none" stroke="#000000" d="M978.25,1337.375C978.25,1337.375,978.25,1466.5543714761734,978.25,1488.0001655688975" stroke-width="2" marker-end="url(#raphael-marker-endblock33-obj2)" style="-webkit-tap-highlight-color: rgba(0, 0, 0, 0);"></path><text x="983.25" y="1347.375" text-anchor="start" font="10px &quot;Arial&quot;" stroke="none" fill="#000000" style="-webkit-tap-highlight-color: rgba(0, 0, 0, 0); text-anchor: start; font-style: normal; font-variant: normal; font-weight: normal; font-stretch: normal; font-size: 15px; line-height: normal; font-family: Arial;" font-size="15px" stroke-width="1"><tspan dy="5.5" style="-webkit-tap-highlight-color: rgba(0, 0, 0, 0);">yes</tspan></text><path fill="none" stroke="#000000" d="M1079.5,1286.75C1079.5,1286.75,1104.5,1286.75,1104.5,1286.75C1104.5,1286.75,1104.5,1073.5,1104.5,1073.5C1104.5,1073.5,240.25,1073.5,240.25,1073.5C240.25,1073.5,240.25,1088.87344455719,240.25,1095.5092477742583" stroke-width="2" marker-end="url(#raphael-marker-endblock33-obj2)" style="-webkit-tap-highlight-color: rgba(0, 0, 0, 0);"></path><text x="1084.5" y="1276.75" text-anchor="start" font="10px &quot;Arial&quot;" stroke="none" fill="#000000" style="-webkit-tap-highlight-color: rgba(0, 0, 0, 0); text-anchor: start; font-style: normal; font-variant: normal; font-weight: normal; font-stretch: normal; font-size: 15px; line-height: normal; font-family: Arial;" font-size="15px" stroke-width="1"><tspan dy="5.5" style="-webkit-tap-highlight-color: rgba(0, 0, 0, 0);">no</tspan></text><path fill="none" stroke="#000000" d="M978.25,1528C978.25,1528,978.25,1577.4564908146858,978.25,1590.2552897071582" stroke-width="2" marker-end="url(#raphael-marker-endblock33-obj2)" style="-webkit-tap-highlight-color: rgba(0, 0, 0, 0);"></path><path fill="none" stroke="#000000" d="M978.25,1807C978.25,1807,978.25,1936.1793714761734,978.25,1957.6251655688975" stroke-width="2" marker-end="url(#raphael-marker-endblock33-obj2)" style="-webkit-tap-highlight-color: rgba(0, 0, 0, 0);"></path><text x="983.25" y="1817" text-anchor="start" font="10px &quot;Arial&quot;" stroke="none" fill="#000000" style="-webkit-tap-highlight-color: rgba(0, 0, 0, 0); text-anchor: start; font-style: normal; font-variant: normal; font-weight: normal; font-stretch: normal; font-size: 15px; line-height: normal; font-family: Arial;" font-size="15px" stroke-width="1"><tspan dy="5.5" style="-webkit-tap-highlight-color: rgba(0, 0, 0, 0);">yes</tspan></text><path fill="none" stroke="#000000" d="M1192,1700.125C1192,1700.125,1431.235978582874,1700.125,1460.9068470203983,1700.125" stroke-width="2" marker-end="url(#raphael-marker-endblock33-obj2)" style="-webkit-tap-highlight-color: rgba(0, 0, 0, 0);"></path><text x="1197" y="1690.125" text-anchor="start" font="10px &quot;Arial&quot;" stroke="none" fill="#000000" style="-webkit-tap-highlight-color: rgba(0, 0, 0, 0); text-anchor: start; font-style: normal; font-variant: normal; font-weight: normal; font-stretch: normal; font-size: 15px; line-height: normal; font-family: Arial;" font-size="15px" stroke-width="1"><tspan dy="5.5" style="-webkit-tap-highlight-color: rgba(0, 0, 0, 0);">no</tspan></text><path fill="none" stroke="#000000" d="M978.25,1997.625C978.25,1997.625,978.25,1868.125,978.25,1868.125C978.25,1868.125,766.75,1868.125,766.75,1868.125C766.75,1868.125,766.75,1883.49844455719,766.75,1890.1342477742583" stroke-width="2" marker-end="url(#raphael-marker-endblock33-obj2)" style="-webkit-tap-highlight-color: rgba(0, 0, 0, 0);"></path><path fill="none" stroke="#000000" d="M1482.25,1718.625C1482.25,1718.625,1482.25,1868.125,1482.25,1868.125C1482.25,1868.125,982.25,1868.125,982.25,1868.125C982.25,1868.125,978.25,1860.125,974.25,1868.125C974.25,1868.125,766.75,1868.125,766.75,1868.125C766.75,1868.125,766.75,1883.49844455719,766.75,1890.1342477742583" stroke-width="2" marker-end="url(#raphael-marker-endblock33-obj2)" style="-webkit-tap-highlight-color: rgba(0, 0, 0, 0);"></path><path fill="none" stroke="#000000" d="M695.921875,521.875C695.921875,521.875,695.921875,626.7882667258382,695.921875,645.9984596077666" stroke-width="2" marker-end="url(#raphael-marker-endblock33-obj2)" style="-webkit-tap-highlight-color: rgba(0, 0, 0, 0);"></path><path fill="none" stroke="#000000" d="M695.921875,739C695.921875,739,695.921875,764,695.921875,764C695.921875,764,554.7578125,764,554.7578125,764C554.7578125,764,554.7578125,901.5,554.7578125,901.5C554.7578125,901.5,562.7578125,905.5,554.7578125,909.5C554.7578125,909.5,554.7578125,1052.625,554.7578125,1052.625C554.7578125,1052.625,605.25,1052.625,605.25,1052.625C605.25,1052.625,609.25,1044.625,613.25,1052.625C613.25,1052.625,978.25,1052.625,978.25,1052.625C978.25,1052.625,978.25,1069.5,978.25,1069.5C978.25,1069.5,984.26611328125,1072.508056640625,980.647045135498,1075.915620803833" stroke-width="2" marker-end="url(#raphael-marker-endblock33-obj2)" style="-webkit-tap-highlight-color: rgba(0, 0, 0, 0);"></path><text x="700.921875" y="749" text-anchor="start" font="10px &quot;Arial&quot;" stroke="none" fill="#000000" style="-webkit-tap-highlight-color: rgba(0, 0, 0, 0); text-anchor: start; font-style: normal; font-variant: normal; font-weight: normal; font-stretch: normal; font-size: 15px; line-height: normal; font-family: Arial;" font-size="15px" stroke-width="1"><tspan dy="5.5" style="-webkit-tap-highlight-color: rgba(0, 0, 0, 0);">yes</tspan></text><path fill="none" stroke="#000000" d="M785.921875,694C785.921875,694,810.921875,694,810.921875,694C810.921875,694,810.921875,1048.625,810.921875,1048.625C810.921875,1048.625,818.921875,1052.625,810.921875,1056.625C810.921875,1056.625,810.921875,1073.5,810.921875,1073.5C810.921875,1073.5,240.25,1073.5,240.25,1073.5C240.25,1073.5,240.25,1088.87344455719,240.25,1095.5092477742583" stroke-width="2" marker-end="url(#raphael-marker-endblock33-obj2)" style="-webkit-tap-highlight-color: rgba(0, 0, 0, 0);"></path><text x="790.921875" y="684" text-anchor="start" font="10px &quot;Arial&quot;" stroke="none" fill="#000000" style="-webkit-tap-highlight-color: rgba(0, 0, 0, 0); text-anchor: start; font-style: normal; font-variant: normal; font-weight: normal; font-stretch: normal; font-size: 15px; line-height: normal; font-family: Arial;" font-size="15px" stroke-width="1"><tspan dy="5.5" style="-webkit-tap-highlight-color: rgba(0, 0, 0, 0);">no</tspan></text></svg>