<?xml version="1.0" encoding="utf-8" standalone="no"?><!DOCTYPE svg PUBLIC "-//W3C//DTD SVG 20010904//EN" "http://www.w3.org/TR/2001/REC-SVG-20010904/DTD/svg10.dtd"><svg xmlns="http://www.w3.org/2000/svg" width="711" height="379" xmlns:xlink="http://www.w3.org/1999/xlink"><source><![CDATA[Created with Raphaël 2.1.2开始｛亲友团｝看法｛高层｝看法｛观众｝谁看好？为什么｛长辈｝各自的长辈怎么看｛反派｝最大的boss怎么看结束]]></source><desc style="-webkit-tap-highlight-color: rgba(0, 0, 0, 0);">Created with Raphaël 2.1.2</desc><defs style="-webkit-tap-highlight-color: rgba(0, 0, 0, 0);"><path stroke-linecap="round" d="M5,0 0,2.5 5,5z" id="raphael-marker-block-obj11" style="-webkit-tap-highlight-color: rgba(0, 0, 0, 0);"></path><marker id="raphael-marker-endblock33-obj12" markerHeight="3" markerWidth="3" orient="auto" refX="1.5" refY="1.5" style="-webkit-tap-highlight-color: rgba(0, 0, 0, 0);"><use xmlns:xlink="http://www.w3.org/1999/xlink" xlink:href="#raphael-marker-block-obj11" transform="rotate(180 1.5 1.5) scale(0.6,0.6)" stroke-width="1.6667" fill="black" stroke="none" style="-webkit-tap-highlight-color: rgba(0, 0, 0, 0);"></use></marker></defs><rect x="0" y="0" width="52" height="37" r="20" rx="20" ry="20" fill="#ffffff" stroke="#000000" style="-webkit-tap-highlight-color: rgba(0, 0, 0, 0);" stroke-width="2" class="flowchart" id="开始" transform="matrix(1,0,0,1,59.8359,13)"></rect><text x="10" y="18.5" text-anchor="start" font="10px &quot;Arial&quot;" stroke="none" fill="#000000" style="-webkit-tap-highlight-color: rgba(0, 0, 0, 0); text-anchor: start; font-style: normal; font-variant: normal; font-weight: normal; font-stretch: normal; font-size: 15px; line-height: normal; font-family: Arial;" id="开始t" class="flowchartt" font-size="15px" transform="matrix(1,0,0,1,59.8359,13)" stroke-width="1"><tspan dy="5.5" style="-webkit-tap-highlight-color: rgba(0, 0, 0, 0);">开始</tspan></text><rect x="0" y="0" width="116" height="55" r="0" rx="0" ry="0" fill="#ffffff" stroke="#000000" style="-webkit-tap-highlight-color: rgba(0, 0, 0, 0);" stroke-width="2" class="flowchart" id="｛亲友团｝" transform="matrix(1,0,0,1,189.6719,4)"></rect><rect x="10" y="0" width="96" height="55" r="0" rx="0" ry="0" fill="#ffffff" stroke="#000000" style="-webkit-tap-highlight-color: rgba(0, 0, 0, 0);" stroke-width="2" id="｛亲友团｝i" transform="matrix(1,0,0,1,189.6719,4)"></rect><text x="20" y="27.5" text-anchor="start" font="10px &quot;Arial&quot;" stroke="none" fill="#000000" style="-webkit-tap-highlight-color: rgba(0, 0, 0, 0); text-anchor: start; font-style: normal; font-variant: normal; font-weight: normal; font-stretch: normal; font-size: 15px; line-height: normal; font-family: Arial;" id="｛亲友团｝t" class="flowchartt" font-size="15px" transform="matrix(1,0,0,1,189.6719,4)" stroke-width="1"><tspan dy="-3.5" style="-webkit-tap-highlight-color: rgba(0, 0, 0, 0);">｛亲友团｝</tspan><tspan dy="18" x="20" style="-webkit-tap-highlight-color: rgba(0, 0, 0, 0);">看法</tspan></text><rect x="0" y="0" width="101" height="55" r="0" rx="0" ry="0" fill="#ffffff" stroke="#000000" style="-webkit-tap-highlight-color: rgba(0, 0, 0, 0);" stroke-width="2" class="flowchart" id="｛高层｝" transform="matrix(1,0,0,1,391.0078,4)"></rect><rect x="10" y="0" width="81" height="55" r="0" rx="0" ry="0" fill="#ffffff" stroke="#000000" style="-webkit-tap-highlight-color: rgba(0, 0, 0, 0);" stroke-width="2" id="｛高层｝i" transform="matrix(1,0,0,1,391.0078,4)"></rect><text x="20" y="27.5" text-anchor="start" font="10px &quot;Arial&quot;" stroke="none" fill="#000000" style="-webkit-tap-highlight-color: rgba(0, 0, 0, 0); text-anchor: start; font-style: normal; font-variant: normal; font-weight: normal; font-stretch: normal; font-size: 15px; line-height: normal; font-family: Arial;" id="｛高层｝t" class="flowchartt" font-size="15px" transform="matrix(1,0,0,1,391.0078,4)" stroke-width="1"><tspan dy="-3.5" style="-webkit-tap-highlight-color: rgba(0, 0, 0, 0);">｛高层｝</tspan><tspan dy="18" x="20" style="-webkit-tap-highlight-color: rgba(0, 0, 0, 0);">看法</tspan></text><rect x="0" y="0" width="146" height="55" r="0" rx="0" ry="0" fill="#ffffff" stroke="#000000" style="-webkit-tap-highlight-color: rgba(0, 0, 0, 0);" stroke-width="2" class="flowchart" id="｛观众｝" transform="matrix(1,0,0,1,554.8438,4)"></rect><rect x="10" y="0" width="126" height="55" r="0" rx="0" ry="0" fill="#ffffff" stroke="#000000" style="-webkit-tap-highlight-color: rgba(0, 0, 0, 0);" stroke-width="2" id="｛观众｝i" transform="matrix(1,0,0,1,554.8438,4)"></rect><text x="20" y="27.5" text-anchor="start" font="10px &quot;Arial&quot;" stroke="none" fill="#000000" style="-webkit-tap-highlight-color: rgba(0, 0, 0, 0); text-anchor: start; font-style: normal; font-variant: normal; font-weight: normal; font-stretch: normal; font-size: 15px; line-height: normal; font-family: Arial;" id="｛观众｝t" class="flowchartt" font-size="15px" transform="matrix(1,0,0,1,554.8438,4)" stroke-width="1"><tspan dy="-3.5" style="-webkit-tap-highlight-color: rgba(0, 0, 0, 0);">｛观众｝</tspan><tspan dy="18" x="20" style="-webkit-tap-highlight-color: rgba(0, 0, 0, 0);">谁看好？为什么</tspan></text><rect x="0" y="0" width="162" height="55" r="0" rx="0" ry="0" fill="#ffffff" stroke="#000000" style="-webkit-tap-highlight-color: rgba(0, 0, 0, 0);" stroke-width="2" class="flowchart" id="｛长辈｝" transform="matrix(1,0,0,1,546.8438,113)"></rect><rect x="10" y="0" width="142" height="55" r="0" rx="0" ry="0" fill="#ffffff" stroke="#000000" style="-webkit-tap-highlight-color: rgba(0, 0, 0, 0);" stroke-width="2" id="｛长辈｝i" transform="matrix(1,0,0,1,546.8438,113)"></rect><text x="20" y="27.5" text-anchor="start" font="10px &quot;Arial&quot;" stroke="none" fill="#000000" style="-webkit-tap-highlight-color: rgba(0, 0, 0, 0); text-anchor: start; font-style: normal; font-variant: normal; font-weight: normal; font-stretch: normal; font-size: 15px; line-height: normal; font-family: Arial;" id="｛长辈｝t" class="flowchartt" font-size="15px" transform="matrix(1,0,0,1,546.8438,113)" stroke-width="1"><tspan dy="-3.5" style="-webkit-tap-highlight-color: rgba(0, 0, 0, 0);">｛长辈｝</tspan><tspan dy="18" x="20" style="-webkit-tap-highlight-color: rgba(0, 0, 0, 0);">各自的长辈怎么看</tspan></text><rect x="0" y="0" width="163.671875" height="55" r="0" rx="0" ry="0" fill="#ffffff" stroke="#000000" style="-webkit-tap-highlight-color: rgba(0, 0, 0, 0);" stroke-width="2" class="flowchart" id="｛反派｝" transform="matrix(1,0,0,1,546.0078,222)"></rect><rect x="10" y="0" width="143.671875" height="55" r="0" rx="0" ry="0" fill="#ffffff" stroke="#000000" style="-webkit-tap-highlight-color: rgba(0, 0, 0, 0);" stroke-width="2" id="｛反派｝i" transform="matrix(1,0,0,1,546.0078,222)"></rect><text x="20" y="27.5" text-anchor="start" font="10px &quot;Arial&quot;" stroke="none" fill="#000000" style="-webkit-tap-highlight-color: rgba(0, 0, 0, 0); text-anchor: start; font-style: normal; font-variant: normal; font-weight: normal; font-stretch: normal; font-size: 15px; line-height: normal; font-family: Arial;" id="｛反派｝t" class="flowchartt" font-size="15px" transform="matrix(1,0,0,1,546.0078,222)" stroke-width="1"><tspan dy="-3.5" style="-webkit-tap-highlight-color: rgba(0, 0, 0, 0);">｛反派｝</tspan><tspan dy="18" x="20" style="-webkit-tap-highlight-color: rgba(0, 0, 0, 0);">最大的boss怎么看</tspan><tspan dy="18" x="20" style="-webkit-tap-highlight-color: rgba(0, 0, 0, 0);"></tspan></text><rect x="0" y="0" width="52" height="37" r="20" rx="20" ry="20" fill="#ffffff" stroke="#000000" style="-webkit-tap-highlight-color: rgba(0, 0, 0, 0);" stroke-width="2" class="flowchart" id="结束" transform="matrix(1,0,0,1,601.8438,340)"></rect><text x="10" y="18.5" text-anchor="start" font="10px &quot;Arial&quot;" stroke="none" fill="#000000" style="-webkit-tap-highlight-color: rgba(0, 0, 0, 0); text-anchor: start; font-style: normal; font-variant: normal; font-weight: normal; font-stretch: normal; font-size: 15px; line-height: normal; font-family: Arial;" id="结束t" class="flowchartt" font-size="15px" transform="matrix(1,0,0,1,601.8438,340)" stroke-width="1"><tspan dy="5.5" style="-webkit-tap-highlight-color: rgba(0, 0, 0, 0);">结束</tspan><tspan dy="18" x="10" style="-webkit-tap-highlight-color: rgba(0, 0, 0, 0);"></tspan></text><path fill="none" stroke="#000000" d="M111.8359375,31.5C111.8359375,31.5,172.3638572320342,31.5,186.66830701245635,31.5" stroke-width="2" marker-end="url(#raphael-marker-endblock33-obj12)" style="-webkit-tap-highlight-color: rgba(0, 0, 0, 0);"></path><path fill="none" stroke="#000000" d="M305.671875,31.5C305.671875,31.5,372.87986366590485,31.5,388.0082243958766,31.5" stroke-width="2" marker-end="url(#raphael-marker-endblock33-obj12)" style="-webkit-tap-highlight-color: rgba(0, 0, 0, 0);"></path><path fill="none" stroke="#000000" d="M492.0078125,31.5C492.0078125,31.5,539.3145556654781,31.5,551.8342113274357,31.5" stroke-width="2" marker-end="url(#raphael-marker-endblock33-obj12)" style="-webkit-tap-highlight-color: rgba(0, 0, 0, 0);"></path><path fill="none" stroke="#000000" d="M627.84375,59C627.84375,59,627.84375,98.65409994125366,627.84375,110.00043908460066" stroke-width="2" marker-end="url(#raphael-marker-endblock33-obj12)" style="-webkit-tap-highlight-color: rgba(0, 0, 0, 0);"></path><path fill="none" stroke="#000000" d="M627.84375,168C627.84375,168,627.84375,207.65409994125366,627.84375,219.00043908460066" stroke-width="2" marker-end="url(#raphael-marker-endblock33-obj12)" style="-webkit-tap-highlight-color: rgba(0, 0, 0, 0);"></path><path fill="none" stroke="#000000" d="M627.84375,277C627.84375,277,627.84375,324.48365688323975,627.84375,337.0037617255002" stroke-width="2" marker-end="url(#raphael-marker-endblock33-obj12)" style="-webkit-tap-highlight-color: rgba(0, 0, 0, 0);"></path></svg>