<?xml version="1.0" encoding="utf-8" standalone="no"?><!DOCTYPE svg PUBLIC "-//W3C//DTD SVG 20010904//EN" "http://www.w3.org/TR/2001/REC-SVG-20010904/DTD/svg10.dtd"><svg xmlns="http://www.w3.org/2000/svg" width="1167" height="387" xmlns:xlink="http://www.w3.org/1999/xlink"><source><![CDATA[Created with Raphaël 2.1.2开始｛亲友团｝看法：   1. 令其意外，重新审视   2. 继续坚持原来的看法，但兴奋、高兴   3. 改编看法，态度改变｛长辈｝看法：   1. 维持原判断   2. 讨论双方招式      - 从招式中看出什么   3. 有什么感叹   4. 打算和计划｛主角｝怎么看：   1. 意外   2. 改变策略｛对手｝怎么看：   1. 意外、震惊、骇然   2. 要不要出大招   3. 心理结束]]></source><desc style="-webkit-tap-highlight-color: rgba(0, 0, 0, 0);">Created with Raphaël 2.1.2</desc><defs style="-webkit-tap-highlight-color: rgba(0, 0, 0, 0);"><path stroke-linecap="round" d="M5,0 0,2.5 5,5z" id="raphael-marker-block-obj17" style="-webkit-tap-highlight-color: rgba(0, 0, 0, 0);"></path><marker id="raphael-marker-endblock33-obj18" markerHeight="3" markerWidth="3" orient="auto" refX="1.5" refY="1.5" style="-webkit-tap-highlight-color: rgba(0, 0, 0, 0);"><use xmlns:xlink="http://www.w3.org/1999/xlink" xlink:href="#raphael-marker-block-obj17" transform="rotate(180 1.5 1.5) scale(0.6,0.6)" stroke-width="1.6667" fill="black" stroke="none" style="-webkit-tap-highlight-color: rgba(0, 0, 0, 0);"></use></marker></defs><rect x="0" y="0" width="52" height="37" r="20" rx="20" ry="20" fill="#ffffff" stroke="#000000" style="-webkit-tap-highlight-color: rgba(0, 0, 0, 0);" stroke-width="2" class="flowchart" id="开始" transform="matrix(1,0,0,1,128.4219,49)"></rect><text x="10" y="18.5" text-anchor="start" font="10px &quot;Arial&quot;" stroke="none" fill="#000000" style="-webkit-tap-highlight-color: rgba(0, 0, 0, 0); text-anchor: start; font-style: normal; font-variant: normal; font-weight: normal; font-stretch: normal; font-size: 15px; line-height: normal; font-family: Arial;" id="开始t" class="flowchartt" font-size="15px" transform="matrix(1,0,0,1,128.4219,49)" stroke-width="1"><tspan dy="5.5" style="-webkit-tap-highlight-color: rgba(0, 0, 0, 0);">开始</tspan></text><rect x="0" y="0" width="300.84375" height="91" r="0" rx="0" ry="0" fill="#ffffff" stroke="#000000" style="-webkit-tap-highlight-color: rgba(0, 0, 0, 0);" stroke-width="2" class="flowchart" id="｛亲友团｝" transform="matrix(1,0,0,1,4,158)"></rect><rect x="10" y="0" width="280.84375" height="91" r="0" rx="0" ry="0" fill="#ffffff" stroke="#000000" style="-webkit-tap-highlight-color: rgba(0, 0, 0, 0);" stroke-width="2" id="｛亲友团｝i" transform="matrix(1,0,0,1,4,158)"></rect><text x="20" y="45.5" text-anchor="start" font="10px &quot;Arial&quot;" stroke="none" fill="#000000" style="-webkit-tap-highlight-color: rgba(0, 0, 0, 0); text-anchor: start; font-style: normal; font-variant: normal; font-weight: normal; font-stretch: normal; font-size: 15px; line-height: normal; font-family: Arial;" id="｛亲友团｝t" class="flowchartt" font-size="15px" transform="matrix(1,0,0,1,4,158)" stroke-width="1"><tspan dy="-21.5" style="-webkit-tap-highlight-color: rgba(0, 0, 0, 0);">｛亲友团｝看法：</tspan><tspan dy="18" x="20" style="-webkit-tap-highlight-color: rgba(0, 0, 0, 0);">   1. 令其意外，重新审视</tspan><tspan dy="18" x="20" style="-webkit-tap-highlight-color: rgba(0, 0, 0, 0);">   2. 继续坚持原来的看法，但兴奋、高兴</tspan><tspan dy="18" x="20" style="-webkit-tap-highlight-color: rgba(0, 0, 0, 0);">   3. 改编看法，态度改变</tspan></text><rect x="0" y="0" width="173.328125" height="127" r="0" rx="0" ry="0" fill="#ffffff" stroke="#000000" style="-webkit-tap-highlight-color: rgba(0, 0, 0, 0);" stroke-width="2" class="flowchart" id="｛长辈｝" transform="matrix(1,0,0,1,422.6016,140)"></rect><rect x="10" y="0" width="153.328125" height="127" r="0" rx="0" ry="0" fill="#ffffff" stroke="#000000" style="-webkit-tap-highlight-color: rgba(0, 0, 0, 0);" stroke-width="2" id="｛长辈｝i" transform="matrix(1,0,0,1,422.6016,140)"></rect><text x="20" y="63.5" text-anchor="start" font="10px &quot;Arial&quot;" stroke="none" fill="#000000" style="-webkit-tap-highlight-color: rgba(0, 0, 0, 0); text-anchor: start; font-style: normal; font-variant: normal; font-weight: normal; font-stretch: normal; font-size: 15px; line-height: normal; font-family: Arial;" id="｛长辈｝t" class="flowchartt" font-size="15px" transform="matrix(1,0,0,1,422.6016,140)" stroke-width="1"><tspan dy="-39.5" style="-webkit-tap-highlight-color: rgba(0, 0, 0, 0);">｛长辈｝看法：</tspan><tspan dy="18" x="20" style="-webkit-tap-highlight-color: rgba(0, 0, 0, 0);">   1. 维持原判断</tspan><tspan dy="18" x="20" style="-webkit-tap-highlight-color: rgba(0, 0, 0, 0);">   2. 讨论双方招式</tspan><tspan dy="18" x="20" style="-webkit-tap-highlight-color: rgba(0, 0, 0, 0);">      - 从招式中看出什么</tspan><tspan dy="18" x="20" style="-webkit-tap-highlight-color: rgba(0, 0, 0, 0);">   3. 有什么感叹</tspan><tspan dy="18" x="20" style="-webkit-tap-highlight-color: rgba(0, 0, 0, 0);">   4. 打算和计划</tspan></text><rect x="0" y="0" width="140" height="73" r="0" rx="0" ry="0" fill="#ffffff" stroke="#000000" style="-webkit-tap-highlight-color: rgba(0, 0, 0, 0);" stroke-width="2" class="flowchart" id="｛主角｝" transform="matrix(1,0,0,1,730.3516,167)"></rect><text x="10" y="36.5" text-anchor="start" font="10px &quot;Arial&quot;" stroke="none" fill="#000000" style="-webkit-tap-highlight-color: rgba(0, 0, 0, 0); text-anchor: start; font-style: normal; font-variant: normal; font-weight: normal; font-stretch: normal; font-size: 15px; line-height: normal; font-family: Arial;" id="｛主角｝t" class="flowchartt" font-size="15px" transform="matrix(1,0,0,1,730.3516,167)" stroke-width="1"><tspan dy="-12.5" style="-webkit-tap-highlight-color: rgba(0, 0, 0, 0);">｛主角｝怎么看：</tspan><tspan dy="18" x="10" style="-webkit-tap-highlight-color: rgba(0, 0, 0, 0);">   1. 意外</tspan><tspan dy="18" x="10" style="-webkit-tap-highlight-color: rgba(0, 0, 0, 0);">   2. 改变策略</tspan></text><rect x="0" y="0" width="181.84375" height="91" r="0" rx="0" ry="0" fill="#ffffff" stroke="#000000" style="-webkit-tap-highlight-color: rgba(0, 0, 0, 0);" stroke-width="2" class="flowchart" id="｛对手｝" transform="matrix(1,0,0,1,983.8516,158)"></rect><rect x="10" y="0" width="161.84375" height="91" r="0" rx="0" ry="0" fill="#ffffff" stroke="#000000" style="-webkit-tap-highlight-color: rgba(0, 0, 0, 0);" stroke-width="2" id="｛对手｝i" transform="matrix(1,0,0,1,983.8516,158)"></rect><text x="20" y="45.5" text-anchor="start" font="10px &quot;Arial&quot;" stroke="none" fill="#000000" style="-webkit-tap-highlight-color: rgba(0, 0, 0, 0); text-anchor: start; font-style: normal; font-variant: normal; font-weight: normal; font-stretch: normal; font-size: 15px; line-height: normal; font-family: Arial;" id="｛对手｝t" class="flowchartt" font-size="15px" transform="matrix(1,0,0,1,983.8516,158)" stroke-width="1"><tspan dy="-21.5" style="-webkit-tap-highlight-color: rgba(0, 0, 0, 0);">｛对手｝怎么看：</tspan><tspan dy="18" x="20" style="-webkit-tap-highlight-color: rgba(0, 0, 0, 0);">   1. 意外、震惊、骇然</tspan><tspan dy="18" x="20" style="-webkit-tap-highlight-color: rgba(0, 0, 0, 0);">   2. 要不要出大招</tspan><tspan dy="18" x="20" style="-webkit-tap-highlight-color: rgba(0, 0, 0, 0);">   3. 心理</tspan><tspan dy="18" x="20" style="-webkit-tap-highlight-color: rgba(0, 0, 0, 0);"></tspan></text><rect x="0" y="0" width="52" height="37" r="20" rx="20" ry="20" fill="#ffffff" stroke="#000000" style="-webkit-tap-highlight-color: rgba(0, 0, 0, 0);" stroke-width="2" class="flowchart" id="结束" transform="matrix(1,0,0,1,1048.7734,348)"></rect><text x="10" y="18.5" text-anchor="start" font="10px &quot;Arial&quot;" stroke="none" fill="#000000" style="-webkit-tap-highlight-color: rgba(0, 0, 0, 0); text-anchor: start; font-style: normal; font-variant: normal; font-weight: normal; font-stretch: normal; font-size: 15px; line-height: normal; font-family: Arial;" id="结束t" class="flowchartt" font-size="15px" transform="matrix(1,0,0,1,1048.7734,348)" stroke-width="1"><tspan dy="5.5" style="-webkit-tap-highlight-color: rgba(0, 0, 0, 0);">结束</tspan><tspan dy="18" x="10" style="-webkit-tap-highlight-color: rgba(0, 0, 0, 0);"></tspan></text><path fill="none" stroke="#000000" d="M154.421875,86C154.421875,86,154.421875,141.37136840820312,154.421875,154.99791610240936" stroke-width="2" marker-end="url(#raphael-marker-endblock33-obj18)" style="-webkit-tap-highlight-color: rgba(0, 0, 0, 0);"></path><path fill="none" stroke="#000000" d="M304.84375,203.5C304.84375,203.5,401.2445556689054,203.5,419.60213096718326,203.5" stroke-width="2" marker-end="url(#raphael-marker-endblock33-obj18)" style="-webkit-tap-highlight-color: rgba(0, 0, 0, 0);"></path><path fill="none" stroke="#000000" d="M595.9296875,203.5C595.9296875,203.5,707.5217547863722,203.5,727.3555011204735,203.5" stroke-width="2" marker-end="url(#raphael-marker-endblock33-obj18)" style="-webkit-tap-highlight-color: rgba(0, 0, 0, 0);"></path><path fill="none" stroke="#000000" d="M870.3515625,203.5C870.3515625,203.5,962.8660567998886,203.5,980.8449477819959,203.5" stroke-width="2" marker-end="url(#raphael-marker-endblock33-obj18)" style="-webkit-tap-highlight-color: rgba(0, 0, 0, 0);"></path><path fill="none" stroke="#000000" d="M1074.7734375,249C1074.7734375,249,1074.7734375,328.43478459119797,1074.7734375,344.99662688633543" stroke-width="2" marker-end="url(#raphael-marker-endblock33-obj18)" style="-webkit-tap-highlight-color: rgba(0, 0, 0, 0);"></path></svg>