<?xml version="1.0" encoding="utf-8" standalone="no"?><!DOCTYPE svg PUBLIC "-//W3C//DTD SVG 20010904//EN" "http://www.w3.org/TR/2001/REC-SVG-20010904/DTD/svg10.dtd"><svg xmlns="http://www.w3.org/2000/svg" width="417" height="1306" xmlns:xlink="http://www.w3.org/1999/xlink"><source><![CDATA[Created with Raphaël 2.1.2开始｛主角亲友团｝怎么说｛旁观者｝怎么说｛主角｝登场：什么姿态｛长辈｝什么反应｛对手亲友团｝什么反应｛主角亲友团｝什么反应｛主角｝观察：｛对手｝在做什么对手是否挑衅？对手是否蔑视？结束yesnoyesno]]></source><desc style="-webkit-tap-highlight-color: rgba(0, 0, 0, 0);">Created with Raphaël 2.1.2</desc><defs style="-webkit-tap-highlight-color: rgba(0, 0, 0, 0);"><path stroke-linecap="round" d="M5,0 0,2.5 5,5z" id="raphael-marker-block-obj5" style="-webkit-tap-highlight-color: rgba(0, 0, 0, 0);"></path><marker id="raphael-marker-endblock33-obj6" markerHeight="3" markerWidth="3" orient="auto" refX="1.5" refY="1.5" style="-webkit-tap-highlight-color: rgba(0, 0, 0, 0);"><use xmlns:xlink="http://www.w3.org/1999/xlink" xlink:href="#raphael-marker-block-obj5" transform="rotate(180 1.5 1.5) scale(0.6,0.6)" stroke-width="1.6667" fill="black" stroke="none" style="-webkit-tap-highlight-color: rgba(0, 0, 0, 0);"></use></marker></defs><rect x="0" y="0" width="52" height="37" r="20" rx="20" ry="20" fill="#ffffff" stroke="#000000" style="-webkit-tap-highlight-color: rgba(0, 0, 0, 0);" stroke-width="2" class="flowchart" id="开始" transform="matrix(1,0,0,1,80,36.5)"></rect><text x="10" y="18.5" text-anchor="start" font="10px &quot;Arial&quot;" stroke="none" fill="#000000" style="-webkit-tap-highlight-color: rgba(0, 0, 0, 0); text-anchor: start; font-style: normal; font-variant: normal; font-weight: normal; font-stretch: normal; font-size: 15px; line-height: normal; font-family: Arial;" id="开始t" class="flowchartt" font-size="15px" transform="matrix(1,0,0,1,80,36.5)" stroke-width="1"><tspan dy="5.5" style="-webkit-tap-highlight-color: rgba(0, 0, 0, 0);">开始</tspan></text><rect x="0" y="0" width="145" height="55" r="0" rx="0" ry="0" fill="#ffffff" stroke="#000000" style="-webkit-tap-highlight-color: rgba(0, 0, 0, 0);" stroke-width="2" class="flowchart" id="｛主角亲友团｝1" transform="matrix(1,0,0,1,215.5,27.5)"></rect><rect x="10" y="0" width="125" height="55" r="0" rx="0" ry="0" fill="#ffffff" stroke="#000000" style="-webkit-tap-highlight-color: rgba(0, 0, 0, 0);" stroke-width="2" id="｛主角亲友团｝1i" transform="matrix(1,0,0,1,215.5,27.5)"></rect><text x="20" y="27.5" text-anchor="start" font="10px &quot;Arial&quot;" stroke="none" fill="#000000" style="-webkit-tap-highlight-color: rgba(0, 0, 0, 0); text-anchor: start; font-style: normal; font-variant: normal; font-weight: normal; font-stretch: normal; font-size: 15px; line-height: normal; font-family: Arial;" id="｛主角亲友团｝1t" class="flowchartt" font-size="15px" transform="matrix(1,0,0,1,215.5,27.5)" stroke-width="1"><tspan dy="-3.5" style="-webkit-tap-highlight-color: rgba(0, 0, 0, 0);">｛主角亲友团｝</tspan><tspan dy="18" x="20" style="-webkit-tap-highlight-color: rgba(0, 0, 0, 0);">怎么说</tspan></text><rect x="0" y="0" width="115" height="55" r="0" rx="0" ry="0" fill="#ffffff" stroke="#000000" style="-webkit-tap-highlight-color: rgba(0, 0, 0, 0);" stroke-width="2" class="flowchart" id="｛旁观者｝" transform="matrix(1,0,0,1,230.5,160)"></rect><rect x="10" y="0" width="95" height="55" r="0" rx="0" ry="0" fill="#ffffff" stroke="#000000" style="-webkit-tap-highlight-color: rgba(0, 0, 0, 0);" stroke-width="2" id="｛旁观者｝i" transform="matrix(1,0,0,1,230.5,160)"></rect><text x="20" y="27.5" text-anchor="start" font="10px &quot;Arial&quot;" stroke="none" fill="#000000" style="-webkit-tap-highlight-color: rgba(0, 0, 0, 0); text-anchor: start; font-style: normal; font-variant: normal; font-weight: normal; font-stretch: normal; font-size: 15px; line-height: normal; font-family: Arial;" id="｛旁观者｝t" class="flowchartt" font-size="15px" transform="matrix(1,0,0,1,230.5,160)" stroke-width="1"><tspan dy="-3.5" style="-webkit-tap-highlight-color: rgba(0, 0, 0, 0);">｛旁观者｝</tspan><tspan dy="18" x="20" style="-webkit-tap-highlight-color: rgba(0, 0, 0, 0);">怎么说</tspan></text><rect x="0" y="0" width="186" height="37" r="0" rx="0" ry="0" fill="#ffffff" stroke="#000000" style="-webkit-tap-highlight-color: rgba(0, 0, 0, 0);" stroke-width="2" class="flowchart" id="主角登场" transform="matrix(1,0,0,1,195,301.5)"></rect><text x="10" y="18.5" text-anchor="start" font="10px &quot;Arial&quot;" stroke="none" fill="#000000" style="-webkit-tap-highlight-color: rgba(0, 0, 0, 0); text-anchor: start; font-style: normal; font-variant: normal; font-weight: normal; font-stretch: normal; font-size: 15px; line-height: normal; font-family: Arial;" id="主角登场t" class="flowchartt" font-size="15px" transform="matrix(1,0,0,1,195,301.5)" stroke-width="1"><tspan dy="5.5" style="-webkit-tap-highlight-color: rgba(0, 0, 0, 0);">｛主角｝登场：什么姿态</tspan></text><rect x="0" y="0" width="101" height="55" r="0" rx="0" ry="0" fill="#ffffff" stroke="#000000" style="-webkit-tap-highlight-color: rgba(0, 0, 0, 0);" stroke-width="2" class="flowchart" id="｛长辈｝" transform="matrix(1,0,0,1,237.5,416)"></rect><rect x="10" y="0" width="81" height="55" r="0" rx="0" ry="0" fill="#ffffff" stroke="#000000" style="-webkit-tap-highlight-color: rgba(0, 0, 0, 0);" stroke-width="2" id="｛长辈｝i" transform="matrix(1,0,0,1,237.5,416)"></rect><text x="20" y="27.5" text-anchor="start" font="10px &quot;Arial&quot;" stroke="none" fill="#000000" style="-webkit-tap-highlight-color: rgba(0, 0, 0, 0); text-anchor: start; font-style: normal; font-variant: normal; font-weight: normal; font-stretch: normal; font-size: 15px; line-height: normal; font-family: Arial;" id="｛长辈｝t" class="flowchartt" font-size="15px" transform="matrix(1,0,0,1,237.5,416)" stroke-width="1"><tspan dy="-3.5" style="-webkit-tap-highlight-color: rgba(0, 0, 0, 0);">｛长辈｝</tspan><tspan dy="18" x="20" style="-webkit-tap-highlight-color: rgba(0, 0, 0, 0);">什么反应</tspan></text><rect x="0" y="0" width="146" height="55" r="0" rx="0" ry="0" fill="#ffffff" stroke="#000000" style="-webkit-tap-highlight-color: rgba(0, 0, 0, 0);" stroke-width="2" class="flowchart" id="｛对手亲友团｝" transform="matrix(1,0,0,1,215,548.5)"></rect><rect x="10" y="0" width="126" height="55" r="0" rx="0" ry="0" fill="#ffffff" stroke="#000000" style="-webkit-tap-highlight-color: rgba(0, 0, 0, 0);" stroke-width="2" id="｛对手亲友团｝i" transform="matrix(1,0,0,1,215,548.5)"></rect><text x="20" y="27.5" text-anchor="start" font="10px &quot;Arial&quot;" stroke="none" fill="#000000" style="-webkit-tap-highlight-color: rgba(0, 0, 0, 0); text-anchor: start; font-style: normal; font-variant: normal; font-weight: normal; font-stretch: normal; font-size: 15px; line-height: normal; font-family: Arial;" id="｛对手亲友团｝t" class="flowchartt" font-size="15px" transform="matrix(1,0,0,1,215,548.5)" stroke-width="1"><tspan dy="-3.5" style="-webkit-tap-highlight-color: rgba(0, 0, 0, 0);">｛对手亲友团｝</tspan><tspan dy="18" x="20" style="-webkit-tap-highlight-color: rgba(0, 0, 0, 0);">什么反应</tspan></text><rect x="0" y="0" width="146" height="55" r="0" rx="0" ry="0" fill="#ffffff" stroke="#000000" style="-webkit-tap-highlight-color: rgba(0, 0, 0, 0);" stroke-width="2" class="flowchart" id="｛主角亲友团｝2" transform="matrix(1,0,0,1,215,681)"></rect><rect x="10" y="0" width="126" height="55" r="0" rx="0" ry="0" fill="#ffffff" stroke="#000000" style="-webkit-tap-highlight-color: rgba(0, 0, 0, 0);" stroke-width="2" id="｛主角亲友团｝2i" transform="matrix(1,0,0,1,215,681)"></rect><text x="20" y="27.5" text-anchor="start" font="10px &quot;Arial&quot;" stroke="none" fill="#000000" style="-webkit-tap-highlight-color: rgba(0, 0, 0, 0); text-anchor: start; font-style: normal; font-variant: normal; font-weight: normal; font-stretch: normal; font-size: 15px; line-height: normal; font-family: Arial;" id="｛主角亲友团｝2t" class="flowchartt" font-size="15px" transform="matrix(1,0,0,1,215,681)" stroke-width="1"><tspan dy="-3.5" style="-webkit-tap-highlight-color: rgba(0, 0, 0, 0);">｛主角亲友团｝</tspan><tspan dy="18" x="20" style="-webkit-tap-highlight-color: rgba(0, 0, 0, 0);">什么反应</tspan></text><rect x="0" y="0" width="140" height="55" r="0" rx="0" ry="0" fill="#ffffff" stroke="#000000" style="-webkit-tap-highlight-color: rgba(0, 0, 0, 0);" stroke-width="2" class="flowchart" id="观察对手" transform="matrix(1,0,0,1,218,813.5)"></rect><text x="10" y="27.5" text-anchor="start" font="10px &quot;Arial&quot;" stroke="none" fill="#000000" style="-webkit-tap-highlight-color: rgba(0, 0, 0, 0); text-anchor: start; font-style: normal; font-variant: normal; font-weight: normal; font-stretch: normal; font-size: 15px; line-height: normal; font-family: Arial;" id="观察对手t" class="flowchartt" font-size="15px" transform="matrix(1,0,0,1,218,813.5)" stroke-width="1"><tspan dy="-3.5" style="-webkit-tap-highlight-color: rgba(0, 0, 0, 0);">｛主角｝观察：</tspan><tspan dy="18" x="10" style="-webkit-tap-highlight-color: rgba(0, 0, 0, 0);">｛对手｝在做什么</tspan></text><path fill="#ffffff" stroke="#000000" d="M51,25.5L0,51L102,102L204,51L102,0L0,51" stroke-width="2" id="cond挑衅" class="flowchart" style="-webkit-tap-highlight-color: rgba(0, 0, 0, 0);" transform="matrix(1,0,0,1,186,922.5)"></path><text x="56" y="51" text-anchor="start" font="10px &quot;Arial&quot;" stroke="none" fill="#000000" style="-webkit-tap-highlight-color: rgba(0, 0, 0, 0); text-anchor: start; font-style: normal; font-variant: normal; font-weight: normal; font-stretch: normal; font-size: 15px; line-height: normal; font-family: Arial;" id="cond挑衅t" class="flowchartt" font-size="15px" transform="matrix(1,0,0,1,186,922.5)" stroke-width="1"><tspan dy="5.5" style="-webkit-tap-highlight-color: rgba(0, 0, 0, 0);">对手是否挑衅？</tspan></text><path fill="#ffffff" stroke="#000000" d="M51,25.5L0,51L102,102L204,51L102,0L0,51" stroke-width="2" id="cond蔑视" class="flowchart" style="-webkit-tap-highlight-color: rgba(0, 0, 0, 0);" transform="matrix(1,0,0,1,186,1078.5)"></path><text x="56" y="51" text-anchor="start" font="10px &quot;Arial&quot;" stroke="none" fill="#000000" style="-webkit-tap-highlight-color: rgba(0, 0, 0, 0); text-anchor: start; font-style: normal; font-variant: normal; font-weight: normal; font-stretch: normal; font-size: 15px; line-height: normal; font-family: Arial;" id="cond蔑视t" class="flowchartt" font-size="15px" transform="matrix(1,0,0,1,186,1078.5)" stroke-width="1"><tspan dy="5.5" style="-webkit-tap-highlight-color: rgba(0, 0, 0, 0);">对手是否蔑视？</tspan><tspan dy="18" x="56" style="-webkit-tap-highlight-color: rgba(0, 0, 0, 0);"></tspan></text><rect x="0" y="0" width="52" height="37" r="20" rx="20" ry="20" fill="#ffffff" stroke="#000000" style="-webkit-tap-highlight-color: rgba(0, 0, 0, 0);" stroke-width="2" class="flowchart" id="结束" transform="matrix(1,0,0,1,262,1267)"></rect><text x="10" y="18.5" text-anchor="start" font="10px &quot;Arial&quot;" stroke="none" fill="#000000" style="-webkit-tap-highlight-color: rgba(0, 0, 0, 0); text-anchor: start; font-style: normal; font-variant: normal; font-weight: normal; font-stretch: normal; font-size: 15px; line-height: normal; font-family: Arial;" id="结束t" class="flowchartt" font-size="15px" transform="matrix(1,0,0,1,262,1267)" stroke-width="1"><tspan dy="5.5" style="-webkit-tap-highlight-color: rgba(0, 0, 0, 0);">结束</tspan></text><path fill="none" stroke="#000000" d="M132,55C132,55,197.58127105236053,55,212.50357198517304,55" stroke-width="2" marker-end="url(#raphael-marker-endblock33-obj6)" style="-webkit-tap-highlight-color: rgba(0, 0, 0, 0);"></path><path fill="none" stroke="#000000" d="M288,82.5C288,82.5,288,142.76668310165405,288,157.00939531903714" stroke-width="2" marker-end="url(#raphael-marker-endblock33-obj6)" style="-webkit-tap-highlight-color: rgba(0, 0, 0, 0);"></path><path fill="none" stroke="#000000" d="M288,215C288,215,288,283.2372633218765,288,298.49735443585087" stroke-width="2" marker-end="url(#raphael-marker-endblock33-obj6)" style="-webkit-tap-highlight-color: rgba(0, 0, 0, 0);"></path><path fill="none" stroke="#000000" d="M288,338.5C288,338.5,288,398.76668310165405,288,413.00939531903714" stroke-width="2" marker-end="url(#raphael-marker-endblock33-obj6)" style="-webkit-tap-highlight-color: rgba(0, 0, 0, 0);"></path><path fill="none" stroke="#000000" d="M288,471C288,471,288,531.266683101654,288,545.5093953190371" stroke-width="2" marker-end="url(#raphael-marker-endblock33-obj6)" style="-webkit-tap-highlight-color: rgba(0, 0, 0, 0);"></path><path fill="none" stroke="#000000" d="M288,603.5C288,603.5,288,663.766683101654,288,678.0093953190371" stroke-width="2" marker-end="url(#raphael-marker-endblock33-obj6)" style="-webkit-tap-highlight-color: rgba(0, 0, 0, 0);"></path><path fill="none" stroke="#000000" d="M288,736C288,736,288,796.266683101654,288,810.5093953190371" stroke-width="2" marker-end="url(#raphael-marker-endblock33-obj6)" style="-webkit-tap-highlight-color: rgba(0, 0, 0, 0);"></path><path fill="none" stroke="#000000" d="M288,868.5C288,868.5,288,908.1540999412537,288,919.5004390846007" stroke-width="2" marker-end="url(#raphael-marker-endblock33-obj6)" style="-webkit-tap-highlight-color: rgba(0, 0, 0, 0);"></path><path fill="none" stroke="#000000" d="M288,1024.5C288,1024.5,288,1064.1540999412537,288,1075.5004390846007" stroke-width="2" marker-end="url(#raphael-marker-endblock33-obj6)" style="-webkit-tap-highlight-color: rgba(0, 0, 0, 0);"></path><text x="293" y="1034.5" text-anchor="start" font="10px &quot;Arial&quot;" stroke="none" fill="#000000" style="-webkit-tap-highlight-color: rgba(0, 0, 0, 0); text-anchor: start; font-style: normal; font-variant: normal; font-weight: normal; font-stretch: normal; font-size: 15px; line-height: normal; font-family: Arial;" font-size="15px" stroke-width="1"><tspan dy="5.5" style="-webkit-tap-highlight-color: rgba(0, 0, 0, 0);">yes</tspan></text><path fill="none" stroke="#000000" d="M390,973.5C390,973.5,415,973.5,415,973.5C415,973.5,415,1053.5,415,1053.5C415,1053.5,288,1053.5,288,1053.5C288,1053.5,288,1068.87344455719,288,1075.5092477742583" stroke-width="2" marker-end="url(#raphael-marker-endblock33-obj6)" style="-webkit-tap-highlight-color: rgba(0, 0, 0, 0);"></path><text x="395" y="963.5" text-anchor="start" font="10px &quot;Arial&quot;" stroke="none" fill="#000000" style="-webkit-tap-highlight-color: rgba(0, 0, 0, 0); text-anchor: start; font-style: normal; font-variant: normal; font-weight: normal; font-stretch: normal; font-size: 15px; line-height: normal; font-family: Arial;" font-size="15px" stroke-width="1"><tspan dy="5.5" style="-webkit-tap-highlight-color: rgba(0, 0, 0, 0);">no</tspan></text><path fill="none" stroke="#000000" d="M288,1180.5C288,1180.5,288,1248.7372633218765,288,1263.9973544358509" stroke-width="2" marker-end="url(#raphael-marker-endblock33-obj6)" style="-webkit-tap-highlight-color: rgba(0, 0, 0, 0);"></path><text x="293" y="1190.5" text-anchor="start" font="10px &quot;Arial&quot;" stroke="none" fill="#000000" style="-webkit-tap-highlight-color: rgba(0, 0, 0, 0); text-anchor: start; font-style: normal; font-variant: normal; font-weight: normal; font-stretch: normal; font-size: 15px; line-height: normal; font-family: Arial;" font-size="15px" stroke-width="1"><tspan dy="5.5" style="-webkit-tap-highlight-color: rgba(0, 0, 0, 0);">yes</tspan></text><path fill="none" stroke="#000000" d="M390,1129.5C390,1129.5,415,1129.5,415,1129.5C415,1129.5,415,1242,415,1242C415,1242,288,1242,288,1242C288,1242,288,1257.37344455719,288,1264.0092477742583" stroke-width="2" marker-end="url(#raphael-marker-endblock33-obj6)" style="-webkit-tap-highlight-color: rgba(0, 0, 0, 0);"></path><text x="395" y="1119.5" text-anchor="start" font="10px &quot;Arial&quot;" stroke="none" fill="#000000" style="-webkit-tap-highlight-color: rgba(0, 0, 0, 0); text-anchor: start; font-style: normal; font-variant: normal; font-weight: normal; font-stretch: normal; font-size: 15px; line-height: normal; font-family: Arial;" font-size="15px" stroke-width="1"><tspan dy="5.5" style="-webkit-tap-highlight-color: rgba(0, 0, 0, 0);">no</tspan></text></svg>