<?xml version="1.0" encoding="utf-8" standalone="no"?><!DOCTYPE svg PUBLIC "-//W3C//DTD SVG 20010904//EN" "http://www.w3.org/TR/2001/REC-SVG-20010904/DTD/svg10.dtd"><svg xmlns="http://www.w3.org/2000/svg" width="1122" height="615" xmlns:xlink="http://www.w3.org/1999/xlink"><source><![CDATA[Created with Raphaël 2.1.2开始对手了解主角么？｛对手｝重视、算计、担忧拼死也要杀主角不愿意拼命/退缩｛对手｝实力：不堪一击or势均力敌有木有压箱底的绝招有木有保命的法宝｛对手｝性格和背景：龙套or反派与主角的矛盾是否不死不休、冤魂不散、化敌为友来头很大，背后有什么人斩杀的后果，留命的好处结束｛对手｝轻视、蔑视、自信爆棚？yesno]]></source><desc style="-webkit-tap-highlight-color: rgba(0, 0, 0, 0);">Created with Raphaël 2.1.2</desc><defs style="-webkit-tap-highlight-color: rgba(0, 0, 0, 0);"><path stroke-linecap="round" d="M5,0 0,2.5 5,5z" id="raphael-marker-block-obj13" style="-webkit-tap-highlight-color: rgba(0, 0, 0, 0);"></path><marker id="raphael-marker-endblock33-obj14" markerHeight="3" markerWidth="3" orient="auto" refX="1.5" refY="1.5" style="-webkit-tap-highlight-color: rgba(0, 0, 0, 0);"><use xmlns:xlink="http://www.w3.org/1999/xlink" xlink:href="#raphael-marker-block-obj13" transform="rotate(180 1.5 1.5) scale(0.6,0.6)" stroke-width="1.6667" fill="black" stroke="none" style="-webkit-tap-highlight-color: rgba(0, 0, 0, 0);"></use></marker></defs><rect x="0" y="0" width="52" height="37" r="20" rx="20" ry="20" fill="#ffffff" stroke="#000000" style="-webkit-tap-highlight-color: rgba(0, 0, 0, 0);" stroke-width="2" class="flowchart" id="开始" transform="matrix(1,0,0,1,119,49)"></rect><text x="10" y="18.5" text-anchor="start" font="10px &quot;Arial&quot;" stroke="none" fill="#000000" style="-webkit-tap-highlight-color: rgba(0, 0, 0, 0); text-anchor: start; font-style: normal; font-variant: normal; font-weight: normal; font-stretch: normal; font-size: 15px; line-height: normal; font-family: Arial;" id="开始t" class="flowchartt" font-size="15px" transform="matrix(1,0,0,1,119,49)" stroke-width="1"><tspan dy="5.5" style="-webkit-tap-highlight-color: rgba(0, 0, 0, 0);">开始</tspan></text><path fill="#ffffff" stroke="#000000" d="M56.625,28.3125L0,56.625L113.25,113.25L226.5,56.625L113.25,0L0,56.625" stroke-width="2" id="cond了解" class="flowchart" style="-webkit-tap-highlight-color: rgba(0, 0, 0, 0);" transform="matrix(1,0,0,1,252.75,10.875)"></path><text x="61.625" y="56.625" text-anchor="start" font="10px &quot;Arial&quot;" stroke="none" fill="#000000" style="-webkit-tap-highlight-color: rgba(0, 0, 0, 0); text-anchor: start; font-style: normal; font-variant: normal; font-weight: normal; font-stretch: normal; font-size: 15px; line-height: normal; font-family: Arial;" id="cond了解t" class="flowchartt" font-size="15px" transform="matrix(1,0,0,1,252.75,10.875)" stroke-width="1"><tspan dy="5.5" style="-webkit-tap-highlight-color: rgba(0, 0, 0, 0);">对手了解主角么？</tspan></text><path fill="#ffffff" stroke="#000000" d="M10,45.5L0,91L162,91L182,0L20,0L10,45.5" stroke-width="2" id="对手相对了解主角" class="flowchart" style="-webkit-tap-highlight-color: rgba(0, 0, 0, 0);" transform="matrix(1,0,0,1,778,22)"></path><text x="30" y="45.5" text-anchor="start" font="10px &quot;Arial&quot;" stroke="none" fill="#000000" style="-webkit-tap-highlight-color: rgba(0, 0, 0, 0); text-anchor: start; font-style: normal; font-variant: normal; font-weight: normal; font-stretch: normal; font-size: 15px; line-height: normal; font-family: Arial;" id="对手相对了解主角t" class="flowchartt" font-size="15px" transform="matrix(1,0,0,1,778,22)" stroke-width="1"><tspan dy="-21.5" style="-webkit-tap-highlight-color: rgba(0, 0, 0, 0);">｛对手｝</tspan><tspan dy="18" x="30" style="-webkit-tap-highlight-color: rgba(0, 0, 0, 0);">重视、算计、担忧</tspan><tspan dy="18" x="30" style="-webkit-tap-highlight-color: rgba(0, 0, 0, 0);">拼死也要杀主角</tspan><tspan dy="18" x="30" style="-webkit-tap-highlight-color: rgba(0, 0, 0, 0);">不愿意拼命/退缩</tspan></text><rect x="0" y="0" width="176" height="91" r="0" rx="0" ry="0" fill="#ffffff" stroke="#000000" style="-webkit-tap-highlight-color: rgba(0, 0, 0, 0);" stroke-width="2" class="flowchart" id="对手实力" transform="matrix(1,0,0,1,278,341.125)"></rect><rect x="10" y="0" width="156" height="91" r="0" rx="0" ry="0" fill="#ffffff" stroke="#000000" style="-webkit-tap-highlight-color: rgba(0, 0, 0, 0);" stroke-width="2" id="对手实力i" transform="matrix(1,0,0,1,278,341.125)"></rect><text x="20" y="45.5" text-anchor="start" font="10px &quot;Arial&quot;" stroke="none" fill="#000000" style="-webkit-tap-highlight-color: rgba(0, 0, 0, 0); text-anchor: start; font-style: normal; font-variant: normal; font-weight: normal; font-stretch: normal; font-size: 15px; line-height: normal; font-family: Arial;" id="对手实力t" class="flowchartt" font-size="15px" transform="matrix(1,0,0,1,278,341.125)" stroke-width="1"><tspan dy="-21.5" style="-webkit-tap-highlight-color: rgba(0, 0, 0, 0);">｛对手｝实力：</tspan><tspan dy="18" x="20" style="-webkit-tap-highlight-color: rgba(0, 0, 0, 0);">不堪一击or势均力敌</tspan><tspan dy="18" x="20" style="-webkit-tap-highlight-color: rgba(0, 0, 0, 0);">有木有压箱底的绝招</tspan><tspan dy="18" x="20" style="-webkit-tap-highlight-color: rgba(0, 0, 0, 0);">有木有保命的法宝</tspan></text><rect x="0" y="0" width="282" height="127" r="0" rx="0" ry="0" fill="#ffffff" stroke="#000000" style="-webkit-tap-highlight-color: rgba(0, 0, 0, 0);" stroke-width="2" class="flowchart" id="对手性格和背景" transform="matrix(1,0,0,1,225,486.125)"></rect><rect x="10" y="0" width="262" height="127" r="0" rx="0" ry="0" fill="#ffffff" stroke="#000000" style="-webkit-tap-highlight-color: rgba(0, 0, 0, 0);" stroke-width="2" id="对手性格和背景i" transform="matrix(1,0,0,1,225,486.125)"></rect><text x="20" y="63.5" text-anchor="start" font="10px &quot;Arial&quot;" stroke="none" fill="#000000" style="-webkit-tap-highlight-color: rgba(0, 0, 0, 0); text-anchor: start; font-style: normal; font-variant: normal; font-weight: normal; font-stretch: normal; font-size: 15px; line-height: normal; font-family: Arial;" id="对手性格和背景t" class="flowchartt" font-size="15px" transform="matrix(1,0,0,1,225,486.125)" stroke-width="1"><tspan dy="-39.5" style="-webkit-tap-highlight-color: rgba(0, 0, 0, 0);">｛对手｝性格和背景：</tspan><tspan dy="18" x="20" style="-webkit-tap-highlight-color: rgba(0, 0, 0, 0);">龙套or反派</tspan><tspan dy="18" x="20" style="-webkit-tap-highlight-color: rgba(0, 0, 0, 0);">与主角的矛盾</tspan><tspan dy="18" x="20" style="-webkit-tap-highlight-color: rgba(0, 0, 0, 0);">是否不死不休、冤魂不散、化敌为友</tspan><tspan dy="18" x="20" style="-webkit-tap-highlight-color: rgba(0, 0, 0, 0);">来头很大，背后有什么人</tspan><tspan dy="18" x="20" style="-webkit-tap-highlight-color: rgba(0, 0, 0, 0);">斩杀的后果，留命的好处</tspan><tspan dy="18" x="20" style="-webkit-tap-highlight-color: rgba(0, 0, 0, 0);"></tspan></text><rect x="0" y="0" width="52" height="37" r="20" rx="20" ry="20" fill="#ffffff" stroke="#000000" style="-webkit-tap-highlight-color: rgba(0, 0, 0, 0);" stroke-width="2" class="flowchart" id="结束" transform="matrix(1,0,0,1,676,531.125)"></rect><text x="10" y="18.5" text-anchor="start" font="10px &quot;Arial&quot;" stroke="none" fill="#000000" style="-webkit-tap-highlight-color: rgba(0, 0, 0, 0); text-anchor: start; font-style: normal; font-variant: normal; font-weight: normal; font-stretch: normal; font-size: 15px; line-height: normal; font-family: Arial;" id="结束t" class="flowchartt" font-size="15px" transform="matrix(1,0,0,1,676,531.125)" stroke-width="1"><tspan dy="5.5" style="-webkit-tap-highlight-color: rgba(0, 0, 0, 0);">结束</tspan><tspan dy="18" x="10" style="-webkit-tap-highlight-color: rgba(0, 0, 0, 0);"></tspan></text><path fill="#ffffff" stroke="#000000" d="M10,27.5L0,55L206,55L226,0L20,0L10,27.5" stroke-width="2" id="对手不了解主角" class="flowchart" style="-webkit-tap-highlight-color: rgba(0, 0, 0, 0);" transform="matrix(1,0,0,1,253,214.125)"></path><text x="30" y="27.5" text-anchor="start" font="10px &quot;Arial&quot;" stroke="none" fill="#000000" style="-webkit-tap-highlight-color: rgba(0, 0, 0, 0); text-anchor: start; font-style: normal; font-variant: normal; font-weight: normal; font-stretch: normal; font-size: 15px; line-height: normal; font-family: Arial;" id="对手不了解主角t" class="flowchartt" font-size="15px" transform="matrix(1,0,0,1,253,214.125)" stroke-width="1"><tspan dy="-3.5" style="-webkit-tap-highlight-color: rgba(0, 0, 0, 0);">｛对手｝</tspan><tspan dy="18" x="30" style="-webkit-tap-highlight-color: rgba(0, 0, 0, 0);">轻视、蔑视、自信爆棚？</tspan></text><path fill="none" stroke="#000000" d="M171,67.5C171,67.5,234.99473476409912,67.5,249.7435212917626,67.5" stroke-width="2" marker-end="url(#raphael-marker-endblock33-obj14)" style="-webkit-tap-highlight-color: rgba(0, 0, 0, 0);"></path><path fill="none" stroke="#000000" d="M479.25,67.5C479.25,67.5,753.1622888445854,67.5,784.9938927239855,67.5" stroke-width="2" marker-end="url(#raphael-marker-endblock33-obj14)" style="-webkit-tap-highlight-color: rgba(0, 0, 0, 0);"></path><text x="484.25" y="57.5" text-anchor="start" font="10px &quot;Arial&quot;" stroke="none" fill="#000000" style="-webkit-tap-highlight-color: rgba(0, 0, 0, 0); text-anchor: start; font-style: normal; font-variant: normal; font-weight: normal; font-stretch: normal; font-size: 15px; line-height: normal; font-family: Arial;" font-size="15px" stroke-width="1"><tspan dy="5.5" style="-webkit-tap-highlight-color: rgba(0, 0, 0, 0);">yes</tspan></text><path fill="none" stroke="#000000" d="M366,124.125C366,124.125,366,195.51416015625,366,211.1305389404297" stroke-width="2" marker-end="url(#raphael-marker-endblock33-obj14)" style="-webkit-tap-highlight-color: rgba(0, 0, 0, 0);"></path><text x="371" y="134.125" text-anchor="start" font="10px &quot;Arial&quot;" stroke="none" fill="#000000" style="-webkit-tap-highlight-color: rgba(0, 0, 0, 0); text-anchor: start; font-style: normal; font-variant: normal; font-weight: normal; font-stretch: normal; font-size: 15px; line-height: normal; font-family: Arial;" font-size="15px" stroke-width="1"><tspan dy="5.5" style="-webkit-tap-highlight-color: rgba(0, 0, 0, 0);">no</tspan></text><path fill="none" stroke="#000000" d="M869,113C869,113,869,316.125,869,316.125C869,316.125,366,316.125,366,316.125C366,316.125,366,331.49844455718994,366,338.13424777425826" stroke-width="2" marker-end="url(#raphael-marker-endblock33-obj14)" style="-webkit-tap-highlight-color: rgba(0, 0, 0, 0);"></path><path fill="none" stroke="#000000" d="M366,432.125C366,432.125,366,471.77909994125366,366,483.12543908460066" stroke-width="2" marker-end="url(#raphael-marker-endblock33-obj14)" style="-webkit-tap-highlight-color: rgba(0, 0, 0, 0);"></path><path fill="none" stroke="#000000" d="M507,549.625C507,549.625,650.3211145401001,549.625,672.9949627388269,549.625" stroke-width="2" marker-end="url(#raphael-marker-endblock33-obj14)" style="-webkit-tap-highlight-color: rgba(0, 0, 0, 0);"></path><path fill="none" stroke="#000000" d="M366,269.125C366,269.125,366,324.4963684082031,366,338.12291610240936" stroke-width="2" marker-end="url(#raphael-marker-endblock33-obj14)" style="-webkit-tap-highlight-color: rgba(0, 0, 0, 0);"></path></svg>