<?xml version="1.0" encoding="utf-8" standalone="no"?><!DOCTYPE svg PUBLIC "-//W3C//DTD SVG 20010904//EN" "http://www.w3.org/TR/2001/REC-SVG-20010904/DTD/svg10.dtd"><svg xmlns="http://www.w3.org/2000/svg" width="901" height="736" xmlns:xlink="http://www.w3.org/1999/xlink"><source><![CDATA[Created with Raphaël 2.1.2开始｛对手｝谁邀战，为什么厉害之处令人讨厌之处｛其他人｝看法反应风凉话主角发怒了吗？「I'm Angry!」｛主角｝决定策略：隐藏实力秒杀力敌智取结束「闷声发大财」yesno]]></source><desc style="-webkit-tap-highlight-color: rgba(0, 0, 0, 0);">Created with Raphaël 2.1.2</desc><defs style="-webkit-tap-highlight-color: rgba(0, 0, 0, 0);"><path stroke-linecap="round" d="M5,0 0,2.5 5,5z" id="raphael-marker-block-obj1" style="-webkit-tap-highlight-color: rgba(0, 0, 0, 0);"></path><marker id="raphael-marker-endblock33-obj2" markerHeight="3" markerWidth="3" orient="auto" refX="1.5" refY="1.5" style="-webkit-tap-highlight-color: rgba(0, 0, 0, 0);"><use xmlns:xlink="http://www.w3.org/1999/xlink" xlink:href="#raphael-marker-block-obj1" transform="rotate(180 1.5 1.5) scale(0.6,0.6)" stroke-width="1.6667" fill="black" stroke="none" style="-webkit-tap-highlight-color: rgba(0, 0, 0, 0);"></use></marker></defs><rect x="0" y="0" width="52" height="37" r="20" rx="20" ry="20" fill="#ffffff" stroke="#000000" style="-webkit-tap-highlight-color: rgba(0, 0, 0, 0);" stroke-width="2" class="flowchart" id="开始" transform="matrix(1,0,0,1,79.25,49)"></rect><text x="10" y="18.5" text-anchor="start" font="10px &quot;Arial&quot;" stroke="none" fill="#000000" style="-webkit-tap-highlight-color: rgba(0, 0, 0, 0); text-anchor: start; font-style: normal; font-variant: normal; font-weight: normal; font-stretch: normal; font-size: 15px; line-height: normal; font-family: Arial;" id="开始t" class="flowchartt" font-size="15px" transform="matrix(1,0,0,1,79.25,49)" stroke-width="1"><tspan dy="5.5" style="-webkit-tap-highlight-color: rgba(0, 0, 0, 0);">开始</tspan></text><rect x="0" y="0" width="146" height="91" r="0" rx="0" ry="0" fill="#ffffff" stroke="#000000" style="-webkit-tap-highlight-color: rgba(0, 0, 0, 0);" stroke-width="2" class="flowchart" id="｛对手｝" transform="matrix(1,0,0,1,213.5,22)"></rect><rect x="10" y="0" width="126" height="91" r="0" rx="0" ry="0" fill="#ffffff" stroke="#000000" style="-webkit-tap-highlight-color: rgba(0, 0, 0, 0);" stroke-width="2" id="｛对手｝i" transform="matrix(1,0,0,1,213.5,22)"></rect><text x="20" y="45.5" text-anchor="start" font="10px &quot;Arial&quot;" stroke="none" fill="#000000" style="-webkit-tap-highlight-color: rgba(0, 0, 0, 0); text-anchor: start; font-style: normal; font-variant: normal; font-weight: normal; font-stretch: normal; font-size: 15px; line-height: normal; font-family: Arial;" id="｛对手｝t" class="flowchartt" font-size="15px" transform="matrix(1,0,0,1,213.5,22)" stroke-width="1"><tspan dy="-21.5" style="-webkit-tap-highlight-color: rgba(0, 0, 0, 0);">｛对手｝</tspan><tspan dy="18" x="20" style="-webkit-tap-highlight-color: rgba(0, 0, 0, 0);">谁邀战，为什么</tspan><tspan dy="18" x="20" style="-webkit-tap-highlight-color: rgba(0, 0, 0, 0);">厉害之处</tspan><tspan dy="18" x="20" style="-webkit-tap-highlight-color: rgba(0, 0, 0, 0);">令人讨厌之处</tspan></text><rect x="0" y="0" width="116" height="91" r="0" rx="0" ry="0" fill="#ffffff" stroke="#000000" style="-webkit-tap-highlight-color: rgba(0, 0, 0, 0);" stroke-width="2" class="flowchart" id="｛其他人｝" transform="matrix(1,0,0,1,456.75,22)"></rect><rect x="10" y="0" width="96" height="91" r="0" rx="0" ry="0" fill="#ffffff" stroke="#000000" style="-webkit-tap-highlight-color: rgba(0, 0, 0, 0);" stroke-width="2" id="｛其他人｝i" transform="matrix(1,0,0,1,456.75,22)"></rect><text x="20" y="45.5" text-anchor="start" font="10px &quot;Arial&quot;" stroke="none" fill="#000000" style="-webkit-tap-highlight-color: rgba(0, 0, 0, 0); text-anchor: start; font-style: normal; font-variant: normal; font-weight: normal; font-stretch: normal; font-size: 15px; line-height: normal; font-family: Arial;" id="｛其他人｝t" class="flowchartt" font-size="15px" transform="matrix(1,0,0,1,456.75,22)" stroke-width="1"><tspan dy="-21.5" style="-webkit-tap-highlight-color: rgba(0, 0, 0, 0);">｛其他人｝</tspan><tspan dy="18" x="20" style="-webkit-tap-highlight-color: rgba(0, 0, 0, 0);">看法</tspan><tspan dy="18" x="20" style="-webkit-tap-highlight-color: rgba(0, 0, 0, 0);">反应</tspan><tspan dy="18" x="20" style="-webkit-tap-highlight-color: rgba(0, 0, 0, 0);">风凉话</tspan></text><path fill="#ffffff" stroke="#000000" d="M50.625,25.3125L0,50.625L101.25,101.25L202.5,50.625L101.25,0L0,50.625" stroke-width="2" id="condAngry" class="flowchart" style="-webkit-tap-highlight-color: rgba(0, 0, 0, 0);" transform="matrix(1,0,0,1,413.5,179.875)"></path><text x="55.625" y="50.625" text-anchor="start" font="10px &quot;Arial&quot;" stroke="none" fill="#000000" style="-webkit-tap-highlight-color: rgba(0, 0, 0, 0); text-anchor: start; font-style: normal; font-variant: normal; font-weight: normal; font-stretch: normal; font-size: 15px; line-height: normal; font-family: Arial;" id="condAngryt" class="flowchartt" font-size="15px" transform="matrix(1,0,0,1,413.5,179.875)" stroke-width="1"><tspan dy="5.5" style="-webkit-tap-highlight-color: rgba(0, 0, 0, 0);">主角发怒了吗？</tspan></text><rect x="0" y="0" width="117.03125" height="37" r="0" rx="0" ry="0" fill="#ffffff" stroke="#000000" style="-webkit-tap-highlight-color: rgba(0, 0, 0, 0);" stroke-width="2" class="flowchart" id="アイムアングリっぽい" transform="matrix(1,0,0,1,712.7344,212)"></rect><text x="10" y="18.5" text-anchor="start" font="10px &quot;Arial&quot;" stroke="none" fill="#000000" style="-webkit-tap-highlight-color: rgba(0, 0, 0, 0); text-anchor: start; font-style: normal; font-variant: normal; font-weight: normal; font-stretch: normal; font-size: 15px; line-height: normal; font-family: Arial;" id="アイムアングリっぽいt" class="flowchartt" font-size="15px" transform="matrix(1,0,0,1,712.7344,212)" stroke-width="1"><tspan dy="5.5" style="-webkit-tap-highlight-color: rgba(0, 0, 0, 0);">「I'm Angry!」</tspan></text><rect x="0" y="0" width="96" height="127" r="0" rx="0" ry="0" fill="#ffffff" stroke="#000000" style="-webkit-tap-highlight-color: rgba(0, 0, 0, 0);" stroke-width="2" class="flowchart" id="主角决定策略" transform="matrix(1,0,0,1,466.75,471.125)"></rect><text x="10" y="63.5" text-anchor="start" font="10px &quot;Arial&quot;" stroke="none" fill="#000000" style="-webkit-tap-highlight-color: rgba(0, 0, 0, 0); text-anchor: start; font-style: normal; font-variant: normal; font-weight: normal; font-stretch: normal; font-size: 15px; line-height: normal; font-family: Arial;" id="主角决定策略t" class="flowchartt" font-size="15px" transform="matrix(1,0,0,1,466.75,471.125)" stroke-width="1"><tspan dy="-39.5" style="-webkit-tap-highlight-color: rgba(0, 0, 0, 0);">｛主角｝</tspan><tspan dy="18" x="10" style="-webkit-tap-highlight-color: rgba(0, 0, 0, 0);">决定策略：</tspan><tspan dy="18" x="10" style="-webkit-tap-highlight-color: rgba(0, 0, 0, 0);">隐藏实力</tspan><tspan dy="18" x="10" style="-webkit-tap-highlight-color: rgba(0, 0, 0, 0);">秒杀</tspan><tspan dy="18" x="10" style="-webkit-tap-highlight-color: rgba(0, 0, 0, 0);">力敌</tspan><tspan dy="18" x="10" style="-webkit-tap-highlight-color: rgba(0, 0, 0, 0);">智取</tspan><tspan dy="18" x="10" style="-webkit-tap-highlight-color: rgba(0, 0, 0, 0);"></tspan></text><rect x="0" y="0" width="52" height="37" r="20" rx="20" ry="20" fill="#ffffff" stroke="#000000" style="-webkit-tap-highlight-color: rgba(0, 0, 0, 0);" stroke-width="2" class="flowchart" id="结束" transform="matrix(1,0,0,1,488.75,697.125)"></rect><text x="10" y="18.5" text-anchor="start" font="10px &quot;Arial&quot;" stroke="none" fill="#000000" style="-webkit-tap-highlight-color: rgba(0, 0, 0, 0); text-anchor: start; font-style: normal; font-variant: normal; font-weight: normal; font-stretch: normal; font-size: 15px; line-height: normal; font-family: Arial;" id="结束t" class="flowchartt" font-size="15px" transform="matrix(1,0,0,1,488.75,697.125)" stroke-width="1"><tspan dy="5.5" style="-webkit-tap-highlight-color: rgba(0, 0, 0, 0);">结束</tspan></text><rect x="0" y="0" width="125" height="37" r="0" rx="0" ry="0" fill="#ffffff" stroke="#000000" style="-webkit-tap-highlight-color: rgba(0, 0, 0, 0);" stroke-width="2" class="flowchart" id="闷声发大财" transform="matrix(1,0,0,1,452.25,380.125)"></rect><text x="10" y="18.5" text-anchor="start" font="10px &quot;Arial&quot;" stroke="none" fill="#000000" style="-webkit-tap-highlight-color: rgba(0, 0, 0, 0); text-anchor: start; font-style: normal; font-variant: normal; font-weight: normal; font-stretch: normal; font-size: 15px; line-height: normal; font-family: Arial;" id="闷声发大财t" class="flowchartt" font-size="15px" transform="matrix(1,0,0,1,452.25,380.125)" stroke-width="1"><tspan dy="5.5" style="-webkit-tap-highlight-color: rgba(0, 0, 0, 0);">「闷声发大财」</tspan></text><path fill="none" stroke="#000000" d="M131.25,67.5C131.25,67.5,195.7072258591652,67.5,210.49965562176658,67.5" stroke-width="2" marker-end="url(#raphael-marker-endblock33-obj2)" style="-webkit-tap-highlight-color: rgba(0, 0, 0, 0);"></path><path fill="none" stroke="#000000" d="M359.5,67.5C359.5,67.5,437.4030812382698,67.5,453.7596852091956,67.5" stroke-width="2" marker-end="url(#raphael-marker-endblock33-obj2)" style="-webkit-tap-highlight-color: rgba(0, 0, 0, 0);"></path><path fill="none" stroke="#000000" d="M514.75,113C514.75,113,514.75,163.8588808774948,514.75,176.8716023520101" stroke-width="2" marker-end="url(#raphael-marker-endblock33-obj2)" style="-webkit-tap-highlight-color: rgba(0, 0, 0, 0);"></path><path fill="none" stroke="#000000" d="M616,230.5C616,230.5,693.4055078029633,230.5,709.7332321051508,230.5" stroke-width="2" marker-end="url(#raphael-marker-endblock33-obj2)" style="-webkit-tap-highlight-color: rgba(0, 0, 0, 0);"></path><text x="621" y="220.5" text-anchor="start" font="10px &quot;Arial&quot;" stroke="none" fill="#000000" style="-webkit-tap-highlight-color: rgba(0, 0, 0, 0); text-anchor: start; font-style: normal; font-variant: normal; font-weight: normal; font-stretch: normal; font-size: 15px; line-height: normal; font-family: Arial;" font-size="15px" stroke-width="1"><tspan dy="5.5" style="-webkit-tap-highlight-color: rgba(0, 0, 0, 0);">yes</tspan></text><path fill="none" stroke="#000000" d="M514.75,281.125C514.75,281.125,514.75,360.55978459119797,514.75,377.12162688633543" stroke-width="2" marker-end="url(#raphael-marker-endblock33-obj2)" style="-webkit-tap-highlight-color: rgba(0, 0, 0, 0);"></path><text x="519.75" y="291.125" text-anchor="start" font="10px &quot;Arial&quot;" stroke="none" fill="#000000" style="-webkit-tap-highlight-color: rgba(0, 0, 0, 0); text-anchor: start; font-style: normal; font-variant: normal; font-weight: normal; font-stretch: normal; font-size: 15px; line-height: normal; font-family: Arial;" font-size="15px" stroke-width="1"><tspan dy="5.5" style="-webkit-tap-highlight-color: rgba(0, 0, 0, 0);">no</tspan></text><path fill="none" stroke="#000000" d="M771.25,249C771.25,249,771.25,446.125,771.25,446.125C771.25,446.125,514.75,446.125,514.75,446.125C514.75,446.125,514.75,461.49844455718994,514.75,468.13424777425826" stroke-width="2" marker-end="url(#raphael-marker-endblock33-obj2)" style="-webkit-tap-highlight-color: rgba(0, 0, 0, 0);"></path><path fill="none" stroke="#000000" d="M514.75,598.125C514.75,598.125,514.75,677.559784591198,514.75,694.1216268863354" stroke-width="2" marker-end="url(#raphael-marker-endblock33-obj2)" style="-webkit-tap-highlight-color: rgba(0, 0, 0, 0);"></path><path fill="none" stroke="#000000" d="M514.75,417.125C514.75,417.125,514.75,456.77909994125366,514.75,468.12543908460066" stroke-width="2" marker-end="url(#raphael-marker-endblock33-obj2)" style="-webkit-tap-highlight-color: rgba(0, 0, 0, 0);"></path></svg>