<?xml version="1.0" encoding="utf-8" standalone="no"?><!DOCTYPE svg PUBLIC "-//W3C//DTD SVG 20010904//EN" "http://www.w3.org/TR/2001/REC-SVG-20010904/DTD/svg10.dtd"><svg xmlns="http://www.w3.org/2000/svg" width="692" height="1083" xmlns:xlink="http://www.w3.org/1999/xlink"><source><![CDATA[Created with Raphaël 2.1.2开始是否对话？｛对手｝说了什么：矛盾、挑衅、大话｛主角｝说什么或不说谁先动手？势均力敌？拉锯战？｛长辈｝出手（终止比赛）结束｛主角｝1. 对手雷声大雨点小－被秒杀2. 对手强，惨胜3. 对手弱，主角扮猪4. 对手有反扑一下，主角艰难胜yesnoyesnoyesnoyesno]]></source><desc style="-webkit-tap-highlight-color: rgba(0, 0, 0, 0);">Created with Raphaël 2.1.2</desc><defs style="-webkit-tap-highlight-color: rgba(0, 0, 0, 0);"><path stroke-linecap="round" d="M5,0 0,2.5 5,5z" id="raphael-marker-block-obj15" style="-webkit-tap-highlight-color: rgba(0, 0, 0, 0);"></path><marker id="raphael-marker-endblock33-obj16" markerHeight="3" markerWidth="3" orient="auto" refX="1.5" refY="1.5" style="-webkit-tap-highlight-color: rgba(0, 0, 0, 0);"><use xmlns:xlink="http://www.w3.org/1999/xlink" xlink:href="#raphael-marker-block-obj15" transform="rotate(180 1.5 1.5) scale(0.6,0.6)" stroke-width="1.6667" fill="black" stroke="none" style="-webkit-tap-highlight-color: rgba(0, 0, 0, 0);"></use></marker></defs><rect x="0" y="0" width="52" height="37" r="20" rx="20" ry="20" fill="#ffffff" stroke="#000000" style="-webkit-tap-highlight-color: rgba(0, 0, 0, 0);" stroke-width="2" class="flowchart" id="开始" transform="matrix(1,0,0,1,94.3359,40)"></rect><text x="10" y="18.5" text-anchor="start" font="10px &quot;Arial&quot;" stroke="none" fill="#000000" style="-webkit-tap-highlight-color: rgba(0, 0, 0, 0); text-anchor: start; font-style: normal; font-variant: normal; font-weight: normal; font-stretch: normal; font-size: 15px; line-height: normal; font-family: Arial;" id="开始t" class="flowchartt" font-size="15px" transform="matrix(1,0,0,1,94.3359,40)" stroke-width="1"><tspan dy="5.5" style="-webkit-tap-highlight-color: rgba(0, 0, 0, 0);">开始</tspan></text><path fill="#ffffff" stroke="#000000" d="M39.75,19.875L0,39.75L79.5,79.5L159,39.75L79.5,0L0,39.75" stroke-width="2" id="cond对话" class="flowchart" style="-webkit-tap-highlight-color: rgba(0, 0, 0, 0);" transform="matrix(1,0,0,1,237.1719,18.75)"></path><text x="44.75" y="39.75" text-anchor="start" font="10px &quot;Arial&quot;" stroke="none" fill="#000000" style="-webkit-tap-highlight-color: rgba(0, 0, 0, 0); text-anchor: start; font-style: normal; font-variant: normal; font-weight: normal; font-stretch: normal; font-size: 15px; line-height: normal; font-family: Arial;" id="cond对话t" class="flowchartt" font-size="15px" transform="matrix(1,0,0,1,237.1719,18.75)" stroke-width="1"><tspan dy="5.5" style="-webkit-tap-highlight-color: rgba(0, 0, 0, 0);">是否对话？</tspan></text><rect x="0" y="0" width="141" height="73" r="0" rx="0" ry="0" fill="#ffffff" stroke="#000000" style="-webkit-tap-highlight-color: rgba(0, 0, 0, 0);" stroke-width="2" class="flowchart" id="对手言论" transform="matrix(1,0,0,1,246.1719,170.25)"></rect><text x="10" y="36.5" text-anchor="start" font="10px &quot;Arial&quot;" stroke="none" fill="#000000" style="-webkit-tap-highlight-color: rgba(0, 0, 0, 0); text-anchor: start; font-style: normal; font-variant: normal; font-weight: normal; font-stretch: normal; font-size: 15px; line-height: normal; font-family: Arial;" id="对手言论t" class="flowchartt" font-size="15px" transform="matrix(1,0,0,1,246.1719,170.25)" stroke-width="1"><tspan dy="-12.5" style="-webkit-tap-highlight-color: rgba(0, 0, 0, 0);">｛对手｝</tspan><tspan dy="18" x="10" style="-webkit-tap-highlight-color: rgba(0, 0, 0, 0);">说了什么：</tspan><tspan dy="18" x="10" style="-webkit-tap-highlight-color: rgba(0, 0, 0, 0);">矛盾、挑衅、大话</tspan></text><rect x="0" y="0" width="111" height="55" r="0" rx="0" ry="0" fill="#ffffff" stroke="#000000" style="-webkit-tap-highlight-color: rgba(0, 0, 0, 0);" stroke-width="2" class="flowchart" id="主角言论" transform="matrix(1,0,0,1,261.1719,324.25)"></rect><text x="10" y="27.5" text-anchor="start" font="10px &quot;Arial&quot;" stroke="none" fill="#000000" style="-webkit-tap-highlight-color: rgba(0, 0, 0, 0); text-anchor: start; font-style: normal; font-variant: normal; font-weight: normal; font-stretch: normal; font-size: 15px; line-height: normal; font-family: Arial;" id="主角言论t" class="flowchartt" font-size="15px" transform="matrix(1,0,0,1,261.1719,324.25)" stroke-width="1"><tspan dy="-3.5" style="-webkit-tap-highlight-color: rgba(0, 0, 0, 0);">｛主角｝</tspan><tspan dy="18" x="10" style="-webkit-tap-highlight-color: rgba(0, 0, 0, 0);">说什么或不说</tspan></text><path fill="#ffffff" stroke="#000000" d="M39.75,19.875L0,39.75L79.5,79.5L159,39.75L79.5,0L0,39.75" stroke-width="2" id="cond谁先" class="flowchart" style="-webkit-tap-highlight-color: rgba(0, 0, 0, 0);" transform="matrix(1,0,0,1,237.1719,448)"></path><text x="44.75" y="39.75" text-anchor="start" font="10px &quot;Arial&quot;" stroke="none" fill="#000000" style="-webkit-tap-highlight-color: rgba(0, 0, 0, 0); text-anchor: start; font-style: normal; font-variant: normal; font-weight: normal; font-stretch: normal; font-size: 15px; line-height: normal; font-family: Arial;" id="cond谁先t" class="flowchartt" font-size="15px" transform="matrix(1,0,0,1,237.1719,448)" stroke-width="1"><tspan dy="5.5" style="-webkit-tap-highlight-color: rgba(0, 0, 0, 0);">谁先动手？</tspan></text><path fill="#ffffff" stroke="#000000" d="M39.375,19.6875L0,39.375L78.75,78.75L157.5,39.375L78.75,0L0,39.375" stroke-width="2" id="cond势均力敌" class="flowchart" style="-webkit-tap-highlight-color: rgba(0, 0, 0, 0);" transform="matrix(1,0,0,1,237.9219,596.625)"></path><text x="44.375" y="39.375" text-anchor="start" font="10px &quot;Arial&quot;" stroke="none" fill="#000000" style="-webkit-tap-highlight-color: rgba(0, 0, 0, 0); text-anchor: start; font-style: normal; font-variant: normal; font-weight: normal; font-stretch: normal; font-size: 15px; line-height: normal; font-family: Arial;" id="cond势均力敌t" class="flowchartt" font-size="15px" transform="matrix(1,0,0,1,237.9219,596.625)" stroke-width="1"><tspan dy="5.5" style="-webkit-tap-highlight-color: rgba(0, 0, 0, 0);">势均力敌？</tspan></text><path fill="#ffffff" stroke="#000000" d="M34.125,17.0625L0,34.125L68.25,68.25L136.5,34.125L68.25,0L0,34.125" stroke-width="2" id="cond拉锯战" class="flowchart" style="-webkit-tap-highlight-color: rgba(0, 0, 0, 0);" transform="matrix(1,0,0,1,248.4219,749.75)"></path><text x="39.125" y="34.125" text-anchor="start" font="10px &quot;Arial&quot;" stroke="none" fill="#000000" style="-webkit-tap-highlight-color: rgba(0, 0, 0, 0); text-anchor: start; font-style: normal; font-variant: normal; font-weight: normal; font-stretch: normal; font-size: 15px; line-height: normal; font-family: Arial;" id="cond拉锯战t" class="flowchartt" font-size="15px" transform="matrix(1,0,0,1,248.4219,749.75)" stroke-width="1"><tspan dy="5.5" style="-webkit-tap-highlight-color: rgba(0, 0, 0, 0);">拉锯战？</tspan></text><rect x="0" y="0" width="140" height="55" r="0" rx="0" ry="0" fill="#ffffff" stroke="#000000" style="-webkit-tap-highlight-color: rgba(0, 0, 0, 0);" stroke-width="2" class="flowchart" id="长辈出手" transform="matrix(1,0,0,1,246.6719,899)"></rect><text x="10" y="27.5" text-anchor="start" font="10px &quot;Arial&quot;" stroke="none" fill="#000000" style="-webkit-tap-highlight-color: rgba(0, 0, 0, 0); text-anchor: start; font-style: normal; font-variant: normal; font-weight: normal; font-stretch: normal; font-size: 15px; line-height: normal; font-family: Arial;" id="长辈出手t" class="flowchartt" font-size="15px" transform="matrix(1,0,0,1,246.6719,899)" stroke-width="1"><tspan dy="-3.5" style="-webkit-tap-highlight-color: rgba(0, 0, 0, 0);">｛长辈｝</tspan><tspan dy="18" x="10" style="-webkit-tap-highlight-color: rgba(0, 0, 0, 0);">出手（终止比赛）</tspan></text><rect x="0" y="0" width="52" height="37" r="20" rx="20" ry="20" fill="#ffffff" stroke="#000000" style="-webkit-tap-highlight-color: rgba(0, 0, 0, 0);" stroke-width="2" class="flowchart" id="结束" transform="matrix(1,0,0,1,290.6719,1044)"></rect><text x="10" y="18.5" text-anchor="start" font="10px &quot;Arial&quot;" stroke="none" fill="#000000" style="-webkit-tap-highlight-color: rgba(0, 0, 0, 0); text-anchor: start; font-style: normal; font-variant: normal; font-weight: normal; font-stretch: normal; font-size: 15px; line-height: normal; font-family: Arial;" id="结束t" class="flowchartt" font-size="15px" transform="matrix(1,0,0,1,290.6719,1044)" stroke-width="1"><tspan dy="5.5" style="-webkit-tap-highlight-color: rgba(0, 0, 0, 0);">结束</tspan></text><rect x="0" y="0" width="232.671875" height="109" r="0" rx="0" ry="0" fill="#ffffff" stroke="#000000" style="-webkit-tap-highlight-color: rgba(0, 0, 0, 0);" stroke-width="2" class="flowchart" id="主角胜" transform="matrix(1,0,0,1,449.4219,581.5)"></rect><text x="10" y="54.5" text-anchor="start" font="10px &quot;Arial&quot;" stroke="none" fill="#000000" style="-webkit-tap-highlight-color: rgba(0, 0, 0, 0); text-anchor: start; font-style: normal; font-variant: normal; font-weight: normal; font-stretch: normal; font-size: 15px; line-height: normal; font-family: Arial;" id="主角胜t" class="flowchartt" font-size="15px" transform="matrix(1,0,0,1,449.4219,581.5)" stroke-width="1"><tspan dy="-30.5" style="-webkit-tap-highlight-color: rgba(0, 0, 0, 0);">｛主角｝</tspan><tspan dy="18" x="10" style="-webkit-tap-highlight-color: rgba(0, 0, 0, 0);">1. 对手雷声大雨点小－被秒杀</tspan><tspan dy="18" x="10" style="-webkit-tap-highlight-color: rgba(0, 0, 0, 0);">2. 对手强，惨胜</tspan><tspan dy="18" x="10" style="-webkit-tap-highlight-color: rgba(0, 0, 0, 0);">3. 对手弱，主角扮猪</tspan><tspan dy="18" x="10" style="-webkit-tap-highlight-color: rgba(0, 0, 0, 0);">4. 对手有反扑一下，主角艰难胜</tspan><tspan dy="18" x="10" style="-webkit-tap-highlight-color: rgba(0, 0, 0, 0);"></tspan></text><path fill="none" stroke="#000000" d="M146.3359375,58.5C146.3359375,58.5,218.46720035932958,58.5,234.17547342342186,58.5" stroke-width="2" marker-end="url(#raphael-marker-endblock33-obj16)" style="-webkit-tap-highlight-color: rgba(0, 0, 0, 0);"></path><path fill="none" stroke="#000000" d="M316.671875,98.25C316.671875,98.25,316.671875,153.62136840820312,316.671875,167.24791610240936" stroke-width="2" marker-end="url(#raphael-marker-endblock33-obj16)" style="-webkit-tap-highlight-color: rgba(0, 0, 0, 0);"></path><text x="321.671875" y="108.25" text-anchor="start" font="10px &quot;Arial&quot;" stroke="none" fill="#000000" style="-webkit-tap-highlight-color: rgba(0, 0, 0, 0); text-anchor: start; font-style: normal; font-variant: normal; font-weight: normal; font-stretch: normal; font-size: 15px; line-height: normal; font-family: Arial;" font-size="15px" stroke-width="1"><tspan dy="5.5" style="-webkit-tap-highlight-color: rgba(0, 0, 0, 0);">yes</tspan></text><path fill="none" stroke="#000000" d="M396.171875,58.5C396.171875,58.5,421.171875,58.5,421.171875,58.5C421.171875,58.5,421.171875,423,421.171875,423C421.171875,423,316.671875,423,316.671875,423C316.671875,423,316.671875,438.37344455718994,316.671875,445.00924777425826" stroke-width="2" marker-end="url(#raphael-marker-endblock33-obj16)" style="-webkit-tap-highlight-color: rgba(0, 0, 0, 0);"></path><text x="401.171875" y="48.5" text-anchor="start" font="10px &quot;Arial&quot;" stroke="none" fill="#000000" style="-webkit-tap-highlight-color: rgba(0, 0, 0, 0); text-anchor: start; font-style: normal; font-variant: normal; font-weight: normal; font-stretch: normal; font-size: 15px; line-height: normal; font-family: Arial;" font-size="15px" stroke-width="1"><tspan dy="5.5" style="-webkit-tap-highlight-color: rgba(0, 0, 0, 0);">no</tspan></text><path fill="none" stroke="#000000" d="M316.671875,243.25C316.671875,243.25,316.671875,306.587660074234,316.671875,321.2468646031339" stroke-width="2" marker-end="url(#raphael-marker-endblock33-obj16)" style="-webkit-tap-highlight-color: rgba(0, 0, 0, 0);"></path><path fill="none" stroke="#000000" d="M316.671875,379.25C316.671875,379.25,316.671875,431.769291639328,316.671875,445.00169129064307" stroke-width="2" marker-end="url(#raphael-marker-endblock33-obj16)" style="-webkit-tap-highlight-color: rgba(0, 0, 0, 0);"></path><path fill="none" stroke="#000000" d="M316.671875,527.5C316.671875,527.5,316.671875,580.3647778332233,316.671875,593.6325980511319" stroke-width="2" marker-end="url(#raphael-marker-endblock33-obj16)" style="-webkit-tap-highlight-color: rgba(0, 0, 0, 0);"></path><text x="321.671875" y="537.5" text-anchor="start" font="10px &quot;Arial&quot;" stroke="none" fill="#000000" style="-webkit-tap-highlight-color: rgba(0, 0, 0, 0); text-anchor: start; font-style: normal; font-variant: normal; font-weight: normal; font-stretch: normal; font-size: 15px; line-height: normal; font-family: Arial;" font-size="15px" stroke-width="1"><tspan dy="5.5" style="-webkit-tap-highlight-color: rgba(0, 0, 0, 0);">yes</tspan></text><path fill="none" stroke="#000000" d="M396.171875,487.75C396.171875,487.75,421.171875,487.75,421.171875,487.75C421.171875,487.75,421.171875,571.625,421.171875,571.625C421.171875,571.625,316.671875,571.625,316.671875,571.625C316.671875,571.625,316.671875,586.9984445571899,316.671875,593.6342477742583" stroke-width="2" marker-end="url(#raphael-marker-endblock33-obj16)" style="-webkit-tap-highlight-color: rgba(0, 0, 0, 0);"></path><text x="401.171875" y="477.75" text-anchor="start" font="10px &quot;Arial&quot;" stroke="none" fill="#000000" style="-webkit-tap-highlight-color: rgba(0, 0, 0, 0); text-anchor: start; font-style: normal; font-variant: normal; font-weight: normal; font-stretch: normal; font-size: 15px; line-height: normal; font-family: Arial;" font-size="15px" stroke-width="1"><tspan dy="5.5" style="-webkit-tap-highlight-color: rgba(0, 0, 0, 0);">no</tspan></text><path fill="none" stroke="#000000" d="M316.671875,675.375C316.671875,675.375,316.671875,732.827917098999,316.671875,746.7422954589128" stroke-width="2" marker-end="url(#raphael-marker-endblock33-obj16)" style="-webkit-tap-highlight-color: rgba(0, 0, 0, 0);"></path><text x="321.671875" y="685.375" text-anchor="start" font="10px &quot;Arial&quot;" stroke="none" fill="#000000" style="-webkit-tap-highlight-color: rgba(0, 0, 0, 0); text-anchor: start; font-style: normal; font-variant: normal; font-weight: normal; font-stretch: normal; font-size: 15px; line-height: normal; font-family: Arial;" font-size="15px" stroke-width="1"><tspan dy="5.5" style="-webkit-tap-highlight-color: rgba(0, 0, 0, 0);">yes</tspan></text><path fill="none" stroke="#000000" d="M395.421875,636C395.421875,636,435.07597494125366,636,446.42231408460066,636" stroke-width="2" marker-end="url(#raphael-marker-endblock33-obj16)" style="-webkit-tap-highlight-color: rgba(0, 0, 0, 0);"></path><text x="400.421875" y="626" text-anchor="start" font="10px &quot;Arial&quot;" stroke="none" fill="#000000" style="-webkit-tap-highlight-color: rgba(0, 0, 0, 0); text-anchor: start; font-style: normal; font-variant: normal; font-weight: normal; font-stretch: normal; font-size: 15px; line-height: normal; font-family: Arial;" font-size="15px" stroke-width="1"><tspan dy="5.5" style="-webkit-tap-highlight-color: rgba(0, 0, 0, 0);">no</tspan></text><path fill="none" stroke="#000000" d="M316.671875,818C316.671875,818,316.671875,881.337660074234,316.671875,895.9968646031339" stroke-width="2" marker-end="url(#raphael-marker-endblock33-obj16)" style="-webkit-tap-highlight-color: rgba(0, 0, 0, 0);"></path><text x="321.671875" y="828" text-anchor="start" font="10px &quot;Arial&quot;" stroke="none" fill="#000000" style="-webkit-tap-highlight-color: rgba(0, 0, 0, 0); text-anchor: start; font-style: normal; font-variant: normal; font-weight: normal; font-stretch: normal; font-size: 15px; line-height: normal; font-family: Arial;" font-size="15px" stroke-width="1"><tspan dy="5.5" style="-webkit-tap-highlight-color: rgba(0, 0, 0, 0);">yes</tspan></text><path fill="none" stroke="#000000" d="M384.921875,783.875C384.921875,783.875,409.921875,783.875,409.921875,783.875C409.921875,783.875,409.921875,1019,409.921875,1019C409.921875,1019,316.671875,1019,316.671875,1019C316.671875,1019,316.671875,1034.37344455719,316.671875,1041.0092477742583" stroke-width="2" marker-end="url(#raphael-marker-endblock33-obj16)" style="-webkit-tap-highlight-color: rgba(0, 0, 0, 0);"></path><text x="389.921875" y="773.875" text-anchor="start" font="10px &quot;Arial&quot;" stroke="none" fill="#000000" style="-webkit-tap-highlight-color: rgba(0, 0, 0, 0); text-anchor: start; font-style: normal; font-variant: normal; font-weight: normal; font-stretch: normal; font-size: 15px; line-height: normal; font-family: Arial;" font-size="15px" stroke-width="1"><tspan dy="5.5" style="-webkit-tap-highlight-color: rgba(0, 0, 0, 0);">no</tspan></text><path fill="none" stroke="#000000" d="M316.671875,954C316.671875,954,316.671875,1025.38916015625,316.671875,1041.0055389404297" stroke-width="2" marker-end="url(#raphael-marker-endblock33-obj16)" style="-webkit-tap-highlight-color: rgba(0, 0, 0, 0);"></path><path fill="none" stroke="#000000" d="M565.7578125,690.5C565.7578125,690.5,565.7578125,1019,565.7578125,1019C565.7578125,1019,316.671875,1019,316.671875,1019C316.671875,1019,316.671875,1034.37344455719,316.671875,1041.0092477742583" stroke-width="2" marker-end="url(#raphael-marker-endblock33-obj16)" style="-webkit-tap-highlight-color: rgba(0, 0, 0, 0);"></path></svg>