<svg xmlns="http://www.w3.org/2000/svg" xmlns:xlink="http://www.w3.org/1999/xlink" width="20.36ex" height="4.518ex" style="vertical-align:-1.392ex" viewBox="0 -1345.9 8766.2 1945.2">
    <defs>
        <path id="a" stroke-width="0" d="M94 250q0 69 10 131t23 107 37 88 38 67 42 52 33 34 25 21h17q14 0 14-9 0-3-17-21t-41-53-49-86-42-138-17-193 17-192 41-139 49-86 42-53 17-21q0-9-15-9h-16l-28 24q-94 85-137 212T94 250z"/>
        <path id="b" stroke-width="0" d="M21 287q0 14 15 48t48 71 74 36q41 0 66-23t26-64q-2-19-3-21 0-3-16-46t-33-97-16-86q0-43 14-60t42-18q23 0 43 11t31 23 27 33q0 1 5 20t14 59 19 74q38 150 42 157 13 27 43 27 13 0 21-7t11-12 2-9q0-13-49-210T391-23q-28-83-97-132t-138-50q-45 0-79 22t-34 66q0 22 7 37t19 22 20 10 17 3q44 0 44-42 0-20-12-35t-23-20-13-5l-3-1q2-5 19-12t34-7h8q17 0 26 2 33 9 61 38t43 62 23 56 8 30l-6-4q-6-4-19-11T270-6q-20-5-39-5-46 0-81 22t-46 71q-1 7-1 31 0 57 35 149t35 117v14q0 3-4 7t-11 4h-4q-23 0-42-19t-30-41-17-42-8-22q-2-2-16-2H27q-6 6-6 9z"/>
        <path id="c" stroke-width="0" d="M84 237v13l14 20h581q15-8 15-20t-15-20H98q-14 7-14 20z"/>
        <path id="d" stroke-width="0" d="M52 289q7 42 54 97t116 56q35 0 64-18t43-45q42 63 101 63 37 0 64-22t28-59q0-29-14-47t-27-22-23-4q-19 0-31 11t-12 29q0 46 50 63-11 13-40 13-13 0-19-2-38-16-56-66-60-221-60-258 0-28 16-40t35-12q37 0 73 33t49 81q3 10 6 11t16 2h4q15 0 15-8 0-1-2-11-16-57-62-101T333-11q-70 0-106 63-41-62-94-62h-6q-49 0-70 26T35 71q0 32 19 52t45 20q43 0 43-42 0-20-12-35t-23-20-13-5l-3-1q0-1 6-4t16-7 19-3q36 0 62 45 9 16 23 68t28 108 16 66q5 27 5 39 0 28-15 40t-34 12q-40 0-75-32t-49-82q-2-9-5-10t-16-2H58q-6 6-6 11z"/>
        <path id="e" stroke-width="0" d="M96 585q56 81 153 81 48 0 96-26t78-92q37-83 37-228 0-155-43-237-20-42-55-67t-61-31-51-7q-26 0-52 6t-61 32-55 67q-43 82-43 237 0 174 57 265zm225 12q-30 32-71 32-42 0-72-32-25-26-33-72t-8-192q0-158 8-208t36-79q28-30 69-30 40 0 68 30 29 30 36 84t8 203q0 145-8 191t-33 73z"/>
        <path id="f" stroke-width="0" d="M60 749l4 1h22l28-24q94-85 137-212t43-264q0-68-10-131T261 12t-37-88-38-67-41-51-32-33-23-19l-4-4H63q-3 0-5 3t-3 9q1 1 11 13Q221-64 221 250T66 725q-10 12-11 13 0 8 5 11z"/>
        <path id="g" stroke-width="0" d="M109 429q-27 0-43 18t-16 44q0 71 53 123t132 52q91 0 152-56t62-145q0-43-20-82t-48-68-80-74q-36-31-100-92l-59-56 76-1q157 0 167 5 7 2 24 89v3h40v-3q-1-3-13-91T421 3V0H50v31q0 7 6 15t30 35q29 32 50 56 9 10 34 37t34 37 29 33 28 34 23 30 21 32 15 29 13 32 7 30 3 33q0 63-34 109t-97 46q-33 0-58-17t-35-33-10-19q0-1 5-1 18 0 37-14t19-46q0-25-16-42t-45-18z"/>
        <path id="h" stroke-width="0" d="M33 157q0 101 76 192t171 92q51 0 90-49 16 30 46 30 13 0 23-8t10-20q0-13-37-160T374 68q0-25 7-33t21-9q9 1 20 9 21 20 41 96 6 20 10 21 2 1 10 1h4q19 0 19-9 0-6-5-27t-20-54-32-50Q436 0 417-8q-8-2-24-2-34 0-57 15t-30 31l-6 15q-1 1-4-1l-4-4q-59-56-120-56-55 0-97 40T33 157zm318 171q0 6-5 22t-23 35-46 20q-35 0-67-31t-50-81q-29-79-41-164v-11q0-8-1-12 0-45 18-62t43-18q38 0 75 33t44 51q2 4 27 107t26 111z"/>
        <path id="i" stroke-width="0" d="M73 647q0 10 4 23t12 13q1 0 72 5t73 6q12 0 12-9t-34-143q-8-34-17-70t-15-54l-4-19q0-3 6 3 49 40 101 40 62 0 100-46t39-116q0-111-79-201T173-11q-50 0-91 38T40 150v9q0 21 8 58t49 197q50 197 50 209t-38 14H83q-3 0-7 3t-3 7zm263-322v6q0 74-61 74-17 0-35-8t-33-21-26-24-18-22l-6-8-21-86q-22-86-22-122 0-48 24-72 16-16 40-16 33 0 67 32 25 23 40 56t33 105q18 72 18 106z"/>
        <path id="j" stroke-width="0" d="M56 347q0 13 14 20h637q15-8 15-20 0-11-14-19l-318-1H72q-16 5-16 20zm0-194q0 15 16 20h636q14-10 14-20 0-13-15-20H70q-14 7-14 20z"/>
        <path id="k" stroke-width="0" d="M213 578l-13-5q-14-5-40-10t-58-7H83v46h19q47 2 87 15t56 24 28 22q2 3 12 3 9 0 17-6V361l1-300q7-7 12-9t24-4 62-2h26V0h-11q-21 3-159 3-136 0-157-3H88v46h64q16 0 25 1t16 3 8 2 6 5 6 4v517z"/>
    </defs>
    <g fill="#00f" stroke="#00f" stroke-width="0" transform="scale(1 -1)">
        <path d="M120 220h2617v60H120z" stroke="none"/>
        <g transform="translate(180 580)">
            <use transform="scale(.707)" xlink:href="#a"/>
            <use x="389" transform="scale(.707)" xlink:href="#b"/>
            <use x="886" transform="scale(.707)" xlink:href="#c"/>
            <g transform="translate(1176)">
                <use transform="scale(.707)" xlink:href="#d"/>
                <use x="808" y="-213" transform="scale(.5)" xlink:href="#e"/>
            </g>
            <g transform="translate(1901)">
                <use transform="scale(.707)" xlink:href="#f"/>
                <use x="550" y="674" transform="scale(.5)" xlink:href="#g"/>
            </g>
        </g>
        <g transform="translate(1081 -441)">
            <use transform="scale(.707)" xlink:href="#h"/>
            <use x="748" y="408" transform="scale(.5)" xlink:href="#g"/>
        </g>
        <use x="3079" xlink:href="#c"/>
        <path d="M4199 220h2612v60H4199z" stroke="none"/>
        <g transform="translate(4259 584)">
            <use transform="scale(.707)" xlink:href="#a"/>
            <use x="389" transform="scale(.707)" xlink:href="#d"/>
            <use x="961" transform="scale(.707)" xlink:href="#c"/>
            <g transform="translate(1229)">
                <use transform="scale(.707)" xlink:href="#b"/>
                <use x="692" y="-340" transform="scale(.5)" xlink:href="#e"/>
            </g>
            <g transform="translate(1896)">
                <use transform="scale(.707)" xlink:href="#f"/>
                <use x="550" y="674" transform="scale(.5)" xlink:href="#g"/>
            </g>
        </g>
        <g transform="translate(5193 -535)">
            <use transform="scale(.707)" xlink:href="#i"/>
            <use x="606" y="595" transform="scale(.5)" xlink:href="#g"/>
        </g>
        <use x="7210" xlink:href="#j"/>
        <use x="8266" xlink:href="#k"/>
    </g>
</svg>
