<svg xmlns="http://www.w3.org/2000/svg" xmlns:xlink="http://www.w3.org/1999/xlink" width="117.691" height="52.118" style="vertical-align:-2.205ex;max-width:100%" viewBox="0 -1647.7 5864.6 2597.3">
    <defs>
        <path id="a" stroke-width="0" d="M190-22q-66 0-114 33t-49 96q0 67 70 125l10 7-8 9q-23 25-23 56 0 60 68 104t146 44h12q58 0 103-31 23-16 23-29 0-11-11-23t-26-13q-9 0-20 9t-33 18-55 9q-66 0-116-24t-51-60q0-19 17-36 9-9 12-10t12 2q31 14 81 14h5q65 0 65-31 0-41-85-41-46 0-81 13l-10-7q-64-43-64-100 0-73 133-73 52 0 85 10t42 23 17 22 17 11q14-2 14-17 0-9-11-26t-31-36-59-34-85-14z"/>
        <path id="b" stroke-width="0" d="M56 347q0 13 14 20h637q15-8 15-20 0-11-14-19l-318-1H72q-16 5-16 20zm0-194q0 15 16 20h636q14-10 14-20 0-13-15-20H70q-14 7-14 20z"/>
        <path id="d" stroke-width="0" d="M213 578l-13-5q-14-5-40-10t-58-7H83v46h19q47 2 87 15t56 24 28 22q2 3 12 3 9 0 17-6V361l1-300q7-7 12-9t24-4 62-2h26V0h-11q-21 3-159 3-136 0-157-3H88v46h64q16 0 25 1t16 3 8 2 6 5 6 4v517z"/>
        <path id="e" stroke-width="0" d="M84 237v13l14 20h581q15-8 15-20t-15-20H98q-14 7-14 20z"/>
        <path id="f" stroke-width="0" d="M73 647q0 10 4 23t12 13q1 0 72 5t73 6q12 0 12-9t-34-143q-8-34-17-70t-15-54l-4-19q0-3 6 3 49 40 101 40 62 0 100-46t39-116q0-111-79-201T173-11q-50 0-91 38T40 150v9q0 21 8 58t49 197q50 197 50 209t-38 14H83q-3 0-7 3t-3 7zm263-322v6q0 74-61 74-17 0-35-8t-33-21-26-24-18-22l-6-8-21-86q-22-86-22-122 0-48 24-72 16-16 40-16 33 0 67 32 25 23 40 56t33 105q18 72 18 106z"/>
        <path id="g" stroke-width="0" d="M109 429q-27 0-43 18t-16 44q0 71 53 123t132 52q91 0 152-56t62-145q0-43-20-82t-48-68-80-74q-36-31-100-92l-59-56 76-1q157 0 167 5 7 2 24 89v3h40v-3q-1-3-13-91T421 3V0H50v31q0 7 6 15t30 35q29 32 50 56 9 10 34 37t34 37 29 33 28 34 23 30 21 32 15 29 13 32 7 30 3 33q0 63-34 109t-97 46q-33 0-58-17t-35-33-10-19q0-1 5-1 18 0 37-14t19-46q0-25-16-42t-45-18z"/>
        <path id="h" stroke-width="0" d="M33 157q0 101 76 192t171 92q51 0 90-49 16 30 46 30 13 0 23-8t10-20q0-13-37-160T374 68q0-25 7-33t21-9q9 1 20 9 21 20 41 96 6 20 10 21 2 1 10 1h4q19 0 19-9 0-6-5-27t-20-54-32-50Q436 0 417-8q-8-2-24-2-34 0-57 15t-30 31l-6 15q-1 1-4-1l-4-4q-59-56-120-56-55 0-97 40T33 157zm318 171q0 6-5 22t-23 35-46 20q-35 0-67-31t-50-81q-29-79-41-164v-11q0-8-1-12 0-45 18-62t43-18q38 0 75 33t44 51q2 4 27 107t26 111z"/>
        <path id="c" stroke-width="0" d="M424-948q-2 1-111 514T202 80l-32-49q-5-7-13-21l-20-31q-6 5-13 13L111 5l153 243 209-968q0 3 254 1079t256 1081q6 10 18 10 6 0 12-5t7-12q0-8-278-1189T460-941q-2-9-21-9h-3q-12 0-12 2z"/>
    </defs>
    <g fill="#00f" stroke="#00f" stroke-width="0" transform="scale(1 -1)">
        <use xlink:href="#a"/>
        <use x="743" xlink:href="#b"/>
        <g transform="translate(1799)">
            <use y="77" xlink:href="#c"/>
            <path d="M1000 1467h3064v60H1000z" stroke="none"/>
            <g transform="translate(1000)">
                <use xlink:href="#d"/>
                <use x="722" xlink:href="#e"/>
                <path d="M1842 220h1102v60H1842z" stroke="none"/>
                <g transform="translate(1952 676)">
                    <use xlink:href="#f"/>
                    <use x="606" y="408" transform="scale(.707)" xlink:href="#g"/>
                </g>
                <g transform="translate(1902 -725)">
                    <use xlink:href="#h"/>
                    <use x="748" y="408" transform="scale(.707)" xlink:href="#g"/>
                </g>
            </g>
        </g>
    </g>
</svg>
