<svg xmlns="http://www.w3.org/2000/svg" xmlns:xlink="http://www.w3.org/1999/xlink" width="18.499ex" height="3.253ex" style="vertical-align:-.584ex" viewBox="0 -1149 7964.9 1400.4">
    <defs>
        <path id="a" stroke-width="0" d="M34 159q0 109 86 196t186 87q56 0 88-24t33-63q0-29-19-49t-48-21q-19 0-30 10t-11 30 11 34 22 21 14 6h1q0 2-6 6t-21 8-34 4q-30 0-57-14-21-9-43-31-44-44-64-124t-21-116q0-46 26-69 22-24 58-24h4q112 0 185 85 9 10 12 10 4 0 13-9t10-14-9-15-29-28-45-30-64-25-80-11q-75 0-121 48T34 159z"/>
        <path id="c" stroke-width="0" d="M295 316q0 40-27 69t-78 29q-36 0-62-13-30-19-30-52-1-5 0-13t16-24 43-25q18-5 44-9t44-9 32-13q17-8 33-20t32-41 17-62q0-62-38-102T198-10h-8q-52 0-96 36l-8-7-9-9Q71 4 65-1L54-11H42q-3 0-9 6v137q0 21 2 25t10 5h9q12 0 16-4t5-12 7-27 19-42q35-51 97-51 97 0 97 78 0 29-18 47-20 24-83 36t-83 23q-36 17-57 46t-21 62q0 39 17 66t43 40 50 18 44 5h11q40 0 70-15l15-8 9 7q10 9 22 17h12q3 0 9-6V310l-6-6h-28q-6 6-6 12z"/>
        <path id="d" stroke-width="0" d="M69 609q0 28 18 44t44 16q23-2 40-17t17-43q0-30-17-45t-42-15q-25 0-42 15t-18 45zM247 0q-15 3-104 3h-37Q80 3 56 1L34 0h-8v46h16q28 0 49 3 9 4 11 11t2 42v191q0 52-2 66t-14 19q-14 7-47 7H30v23q0 23 2 23l10 1q10 1 28 2t36 2 36 2 29 3 11 1h3V62q5-10 12-12t35-4h23V0h-8z"/>
        <path id="e" stroke-width="0" d="M41 46h14q39 0 47 14v62q0 17 1 39t0 42v66q0 35-1 59v23q-3 19-14 25t-45 9H25v23q0 23 2 23l10 1q10 1 28 2t37 2q17 1 36 2t29 3 11 1h3v-40q0-38 1-38t5 5 12 15 19 18 29 19 38 16q20 5 51 5 114-4 127-113 1-7 1-139v-86q0-38 2-45t11-10q21-3 49-3h16V0h-8l-24 1q-23 1-50 1t-38 1Q319 3 310 0h-8v46h16q61 0 61 16 1 2 1 138-1 135-2 143-6 28-20 42t-24 17-26 2q-45 0-79-34-27-27-34-55t-8-83V108q0-30 1-40t3-13 9-6q21-3 49-3h16V0h-8l-23 1q-24 1-51 1t-38 1Q42 3 33 0h-8v46h16z"/>
        <path id="f" stroke-width="0" d="M41 46h14q39 0 47 14v107q0 24 1 50t0 55 0 57v153q0 34-1 60t0 44 0 17q-3 19-14 25t-45 9H25v23q0 23 2 23l10 1q10 1 29 2t37 2 37 2 30 3 11 1h3V367q60 75 144 75 123 0 135-113 1-7 1-139v-86q0-38 2-45t11-10q21-3 49-3h16V0h-8l-24 1q-23 1-50 1t-38 1Q319 3 310 0h-8v46h16q61 0 61 16 1 2 1 138-1 135-2 143-6 28-20 42t-24 17-26 2q-45 0-79-34-27-27-34-55t-8-83V108q0-30 1-40t3-13 9-6q21-3 49-3h16V0h-8l-23 1q-24 1-51 1t-38 1Q42 3 33 0h-8v46h16z"/>
        <path id="g" stroke-width="0" d="M109 429q-27 0-43 18t-16 44q0 71 53 123t132 52q91 0 152-56t62-145q0-43-20-82t-48-68-80-74q-36-31-100-92l-59-56 76-1q157 0 167 5 7 2 24 89v3h40v-3q-1-3-13-91T421 3V0H50v31q0 7 6 15t30 35q29 32 50 56 9 10 34 37t34 37 29 33 28 34 23 30 21 32 15 29 13 32 7 30 3 33q0 63-34 109t-97 46q-33 0-58-17t-35-33-10-19q0-1 5-1 18 0 37-14t19-46q0-25-16-42t-45-18z"/>
        <path id="h" stroke-width="0" d="M21 287q0 8 9 31t25 52 44 50 59 22q46 0 69-25t23-59q0-18-34-112t-34-141q0-43 14-60t42-18 53 17 37 34l11 17q2 4 38 152 30 120 36 140t14 29q17 15 36 15 17 0 25-10t8-19L420 84q-1-5-1-16 0-25 7-33t21-9q22 3 35 31t30 88q2 8 20 8 19 0 19-9-1-5-2-14t-9-32-17-43-25-38-36-25q-8-2-24-2-66 0-91 56-2-1-11-10t-18-15-22-15-29-12-34-5q-44 0-78 18-52 31-52 106 0 57 35 149t35 117v14q0 3-4 7t-11 4h-4q-23 0-42-19t-30-41-17-42-8-22q-2-2-16-2H27q-6 6-6 9z"/>
        <path id="i" stroke-width="0" d="M56 237v13l14 20h299v150l1 150q10 13 19 13 13 0 20-15V270h298q15-8 15-20t-15-20H409V-68q-8-14-18-14h-4q-12 0-18 14v298H70q-14 7-14 20z"/>
        <path id="j" stroke-width="0" d="M173 380q0 25-19 25-24 0-50-29t-43-89q-1-1-2-3t-1-3-2-2-3-1-4 0-8 0H27q-6 6-6 9 0 7 8 29t24 52 44 51 63 22q42 0 65-24t24-56q0-17-3-26 0-6-15-44t-31-89-18-89q0-27 5-44 13-43 63-43 37 0 69 34t50 79 29 83 11 55q0 23-8 40t-18 26-18 18-8 22q0 22 19 41t41 19q19 0 34-18t16-58q0-27-12-83t-37-125-71-119-106-51q-64 0-102 33-37 32-37 95 0 31 8 64t41 117q22 64 22 82z"/>
        <path id="b" stroke-width="0" d="M263 249q1 0 52-119t102-238 53-120l255 530q256 535 257 537 7 11 19 11 7 0 12-6t7-12v-6L741 243Q645 43 540-176q-61-127-71-148t-16-24q-4-2-17-2l-12 1L315-96Q206 156 205 156l-34-26q-33-26-34-26l-26 26 152 119z"/>
    </defs>
    <g fill="#00f" stroke="#00f" stroke-width="0" transform="scale(1 -1)">
        <use xlink:href="#a"/>
        <g transform="translate(433)">
            <use y="177" xlink:href="#b"/>
            <path d="M1000 967h6531v60H1000z" stroke="none"/>
            <g transform="translate(1000)">
                <use xlink:href="#c"/>
                <use x="394" xlink:href="#d"/>
                <use x="672" xlink:href="#e"/>
                <use x="1228" xlink:href="#f"/>
                <use x="2522" y="596" transform="scale(.707)" xlink:href="#g"/>
                <use x="2404" xlink:href="#h"/>
                <use x="3198" xlink:href="#i"/>
                <g transform="translate(4198)">
                    <use xlink:href="#c"/>
                    <use x="394" xlink:href="#d"/>
                    <use x="672" xlink:href="#e"/>
                    <use x="1736" y="560" transform="scale(.707)" xlink:href="#g"/>
                </g>
                <use x="6046" xlink:href="#j"/>
            </g>
        </g>
    </g>
</svg>
