<svg xmlns="http://www.w3.org/2000/svg" xmlns:xlink="http://www.w3.org/1999/xlink" width="14.598ex" height="4.056ex" style="vertical-align:-1.739ex" viewBox="0 -997.5 6285.3 1746.1">
    <defs>
        <path id="a" stroke-width="0" d="M58-216q-33 0-35 30 0 10 50 212t54 208q16 55 55 107 70 86 159 100h8q6 0 10 1 73 0 112-48t39-118q0-57-24-111t-61-91-80-61-79-23h-18q-51 0-83 45l-5 6-27-112q-25-97-29-110t-12-21q-16-14-34-14zm366 538q0 37-17 60t-50 23q-35 0-70-29t-56-76q-14-31-38-130l-17-68q17-76 84-76 38 0 74 36 33 30 55 96t29 108 6 56z"/>
        <path id="b" stroke-width="0" d="M56 347q0 13 14 20h637q15-8 15-20 0-11-14-19l-318-1H72q-16 5-16 20zm0-194q0 15 16 20h636q14-10 14-20 0-13-15-20H70q-14 7-14 20z"/>
        <path id="c" stroke-width="0" d="M73 647q0 10 4 23t12 13q1 0 72 5t73 6q12 0 12-9t-34-143q-8-34-17-70t-15-54l-4-19q0-3 6 3 49 40 101 40 62 0 100-46t39-116q0-111-79-201T173-11q-50 0-91 38T40 150v9q0 21 8 58t49 197q50 197 50 209t-38 14H83q-3 0-7 3t-3 7zm263-322v6q0 74-61 74-17 0-35-8t-33-21-26-24-18-22l-6-8-21-86q-22-86-22-122 0-48 24-72 16-16 40-16 33 0 67 32 25 23 40 56t33 105q18 72 18 106z"/>
        <path id="e" stroke-width="0" d="M190-22q-66 0-114 33t-49 96q0 67 70 125l10 7-8 9q-23 25-23 56 0 60 68 104t146 44h12q58 0 103-31 23-16 23-29 0-11-11-23t-26-13q-9 0-20 9t-33 18-55 9q-66 0-116-24t-51-60q0-19 17-36 9-9 12-10t12 2q31 14 81 14h5q65 0 65-31 0-41-85-41-46 0-81 13l-10-7q-64-43-64-100 0-73 133-73 52 0 85 10t42 23 17 22 17 11q14-2 14-17 0-9-11-26t-31-36-59-34-85-14z"/>
        <path id="f" stroke-width="0" d="M109 429q-27 0-43 18t-16 44q0 71 53 123t132 52q91 0 152-56t62-145q0-43-20-82t-48-68-80-74q-36-31-100-92l-59-56 76-1q157 0 167 5 7 2 24 89v3h40v-3q-1-3-13-91T421 3V0H50v31q0 7 6 15t30 35q29 32 50 56 9 10 34 37t34 37 29 33 28 34 23 30 21 32 15 29 13 32 7 30 3 33q0 63-34 109t-97 46q-33 0-58-17t-35-33-10-19q0-1 5-1 18 0 37-14t19-46q0-25-16-42t-45-18z"/>
        <path id="g" stroke-width="0" d="M370 305h-21l-36 15-16 38q0 23 15 38 5 5 5 6t-10 2q-26 4-49 4-49 0-80-32-47-47-47-157 0-82 31-129 41-61 110-61 41 0 66 26t36 62q2 8 5 10t16 2h14q6-6 6-9 0-4-4-16t-16-33-29-38-48-31-69-13q-86 0-150 64T34 214q0 104 65 169t151 65 120-27 34-64q0-23-17-37z"/>
        <path id="h" stroke-width="0" d="M28 214q0 95 65 164t157 70q90 0 155-68t66-165q0-95-64-160T250-10q-97 0-159 67T28 214zM250 30q122 0 122 163v57q0 22-1 38t-7 38-16 36-31 28-49 20q-5 1-16 1-30 0-57-12-43-22-56-61t-13-92v-20q0-96 19-135 32-61 105-61z"/>
        <path id="i" stroke-width="0" d="M295 316q0 40-27 69t-78 29q-36 0-62-13-30-19-30-52-1-5 0-13t16-24 43-25q18-5 44-9t44-9 32-13q17-8 33-20t32-41 17-62q0-62-38-102T198-10h-8q-52 0-96 36l-8-7-9-9Q71 4 65-1L54-11H42q-3 0-9 6v137q0 21 2 25t10 5h9q12 0 16-4t5-12 7-27 19-42q35-51 97-51 97 0 97 78 0 29-18 47-20 24-83 36t-83 23q-36 17-57 46t-21 62q0 39 17 66t43 40 50 18 44 5h11q40 0 70-15l15-8 9 7q10 9 22 17h12q3 0 9-6V310l-6-6h-28q-6 6-6 12z"/>
        <path id="j" stroke-width="0" d="M35 200q0 102 39 215t106 195 139 94h8q7 0 12 1 54-4 84-49 39-60 39-161 0-115-45-234T302 66 168-10h-7q-36 0-62 20T60 63t-19 67-6 70zm348 366q0 102-53 102-36 0-70-45t-56-102-34-100-13-50q49-1 97-1l97 1q1 1 8 33t16 80 8 82zM113 132q0-106 53-106 15 0 32 10t41 38 48 87 48 146l5 17H145q0-3-9-38t-16-78-7-76z"/>
        <path id="k" stroke-width="0" d="M84 237v13l14 20h581q15-8 15-20t-15-20H98q-14 7-14 20z"/>
        <path id="l" stroke-width="0" d="M213 578l-13-5q-14-5-40-10t-58-7H83v46h19q47 2 87 15t56 24 28 22q2 3 12 3 9 0 17-6V361l1-300q7-7 12-9t24-4 62-2h26V0h-11q-21 3-159 3-136 0-157-3H88v46h64q16 0 25 1t16 3 8 2 6 5 6 4v517z"/>
        <path id="d" stroke-width="0" d="M95 178q-6 0-14 8t-9 14 31 30 66 50 38 29q2 2 5 2h1q6 0 14-17t54-117q19-43 31-69l85-185q1 0 104 213t206 429 107 221q6 14 20 14 7 0 12-6t7-12v-6L620 293 385-193q-4-7-19-7-9 0-12 3-2 2-98 212l-96 210-16-11q-15-12-31-24t-18-12z"/>
    </defs>
    <g fill="#00f" stroke="#00f" stroke-width="0" transform="scale(1 -1)">
        <use xlink:href="#a"/>
        <use x="794" xlink:href="#b"/>
        <g transform="translate(1969)">
            <path d="M0 220h4194v60H0z" stroke="none"/>
            <use x="2751" y="581" transform="scale(.707)" xlink:href="#c"/>
            <g transform="translate(60 -601)">
                <use y="125" transform="scale(.707)" xlink:href="#d"/>
                <path d="M589 611h3485v42H589z" stroke="none"/>
                <g transform="translate(589)">
                    <use transform="scale(.707)" xlink:href="#e"/>
                    <use x="659" y="408" transform="scale(.5)" xlink:href="#f"/>
                    <g transform="translate(816)">
                        <use transform="scale(.707)" xlink:href="#g"/>
                        <use x="444" transform="scale(.707)" xlink:href="#h"/>
                        <use x="944" transform="scale(.707)" xlink:href="#i"/>
                        <use x="1892" y="408" transform="scale(.5)" xlink:href="#f"/>
                    </g>
                    <use x="3182" transform="scale(.707)" xlink:href="#j"/>
                    <use x="3651" transform="scale(.707)" xlink:href="#k"/>
                    <use x="4429" transform="scale(.707)" xlink:href="#l"/>
                </g>
            </g>
        </g>
    </g>
</svg>
