<?xml version="1.0" standalone="no"?>
<!DOCTYPE svg PUBLIC "-//W3C//DTD SVG 1.1//EN" "http://www.w3.org/Graphics/SVG/1.1/DTD/svg11.dtd" >
<svg>
<metadata>
Created by FontForge 20120731 at Thu Apr 18 00:35:11 2019
 By www-data
Digitized by Dan X. Solo. Software (c) 1999 by Dover Publications, Inc., New York.
</metadata>
<defs>
<font id="Burst" horiz-adv-x="922" >
  <font-face 
    font-family="Burst"
    font-weight="400"
    font-stretch="normal"
    units-per-em="1000"
    panose-1="0 0 4 0 0 0 0 0 0 0"
    ascent="800"
    descent="-200"
    x-height="697"
    cap-height="702"
    bbox="-31 -195 1155 880"
    underline-thickness="20"
    underline-position="-123"
    unicode-range="U+0020-F002"
  />
<missing-glyph horiz-adv-x="500" 
d="M63 0v800h375v-800h-375zM125 63h250v675h-250v-675z" />
    <glyph glyph-name=".notdef" horiz-adv-x="500" 
d="M63 0v800h375v-800h-375zM125 63h250v675h-250v-675z" />
    <glyph glyph-name=".null" horiz-adv-x="0" 
 />
    <glyph glyph-name="nonmarkingreturn" horiz-adv-x="300" 
 />
    <glyph glyph-name="space" unicode=" " horiz-adv-x="300" 
 />
    <glyph glyph-name="exclam" unicode="!" horiz-adv-x="342" 
d="M291 663l-117 -58l93 94h34zM281 588l-85 15l94 36zM149 610l56 91h35zM129 610l21 91h30zM271 527l-66 60l73 -15zM106 603l-14 96h36zM251 430l-45 135l58 -58zM20 699h47l25 -122zM23 593l-19 100l83 -142zM220 275l-1 10q-1 11 -16 237l39 -140zM35 524l-6 41l79 -45
zM43 468l-6 35h81zM180 237l13 234l9 -237zM57 388l-11 58l91 50zM157 237l-20 -4l38 225zM72 292l-11 72l87 116zM108 234h-25l-5 19l82 208zM278 52l-12 83q17 -24 21 -44q-3 -17 -9 -39zM231 15l-7 158l24 -20l10 -117zM160 -8l16 200l30 -12l4 -174q-26 -12 -50 -14z
M136 -5q-23 -2 -46 8l33 188l36 3zM64 11q-25 12 -30 21l46 144l23 10zM21 56q-9 14 -9 33t9 38q8 11 17 22t20 15q-6 -27 -37 -108z" />
    <glyph glyph-name="quotedbl" unicode="&#x22;" horiz-adv-x="530" 
d="M441 644h-51l82 53zM359 651l47 48h35zM333 651l4 48l48 2zM411 597l-33 30l46 -5zM289 699h28v-52zM382 552l-19 65l35 -43zM269 632l13 44l31 -51zM257 582l7 30l52 -7zM331 474l18 119l15 -58zM211 644h-51l83 53zM130 651l46 48h36zM311 468h-68l87 113zM229 482
l19 79l66 28zM104 651l2 50h50zM182 597l-34 30l46 -5zM60 699h27l1 -52zM152 552l-18 65l34 -43zM39 632l13 44l31 -51zM26 585l9 27l51 -7zM101 474l18 119l16 -58zM82 468h-68l87 113zM0 482l19 79l66 28z" />
    <glyph glyph-name="numbersign" unicode="#" horiz-adv-x="466" 
d="M334 437l-30 -83h64l-34 -82h-60l-60 -166l-64 -1q20 55 58 167h-69l-60 -166h-63q20 55 57 166h-65l29 82h63l27 83h-64l33 90h60l47 142h79l-51 -142h60l47 142h79l-51 -142h66l-38 -90h-60zM318 460h61l19 44h-64l51 143h-30l-47 -143h-109l51 143h-30l-47 -143h-61
l-17 -44h63l-42 -128h-63l-13 -37h64q-16 -57 -55 -167h14l60 167h116q-15 -57 -53 -167h12l60 167h61l15 37h-62zM169 354h66l27 83h-63zM137 332l46 128h110l-42 -128h-114z" />
    <glyph glyph-name="dollar" unicode="$" horiz-adv-x="647" 
d="M505 489l17 108l10 -3v-117zM482 493l-34 9l4 112l49 -9zM428 555q0 -19 -1 -47l-21 6l-18 108q3 1 7 1q5 0 15.5 -2.5t15.5 -2.5q2 -13 2 -43v-20zM350 521q-23 60 -72 182h60v-76l26 -1l12 -58q8 -43 9 -52zM305 518l-55 110h4l-1 68q27 -59 81 -176zM531 288h-9h-20
q13 12 54 30q10 -14 13 -28q-18 -2 -38 -2zM489 298q11 16 43 49l13 -15zM476 304l17 65l23 -12q-13 -18 -40 -53zM460 315l2 67l13 -5zM518 272q6 3 23 3q5 0 17 -1h16v-28q-34 12 -56 26zM263 512q-27 36 -85 103q5 4 44 9l61 -106zM411 401l27 -9v-54zM560 204
q-20 17 -51 55l60 -26q1 -2 1 -4q0 -7 -10 -25zM352 416h2q9 0 27 -6l38 -78q-43 53 -67 84zM534 165q-13 18 -32 77q15 -13 29 -26q20 -17 20 -29q0 -11 -17 -22zM302 416h25l66 -81zM226 482l-118 102l44 22l94 -102q-14 -12 -20 -22zM413 293q-60 53 -177 129
q-64 41 -174 129l29 27l132 -117q1 -31 46 -40zM478 127q2 39 13 76q4 -25 18 -58zM20 505l19 28l324 -226zM458 118q-17 -9 -55 -19l66 102zM310 220q-9 -1 -13 -1q8 7 8 14q0 12 -25 32q34 -15 99 -38q-2 -1 -69 -7zM9 452q-2 1 0 14q3 9 6 21q61 -39 186 -113
q107 -58 166 -99zM15 395q-6 17 -6 28q98 -41 333 -158zM248 277h-7h-5q-45 0 -108 26q-66 28 -94 62q79 -30 218 -88h-4zM374 96q-2 0 -31 -5v-84h-84v20q95 95 172 152zM261 62l-2 28q-25 2 -41 2l106 49q65 30 89 41zM183 95l-77 13l270 77zM70 117l-51 18l312 57z
M10 160v31q50 12 138 12q13 0 38 -2t38 -2q22 0 43 1q-86 -12 -257 -40zM12 218v43l106 -43h-106zM412 297l-3 -3l4 -3l2 3z" />
    <glyph glyph-name="percent" unicode="%" horiz-adv-x="803" 
d="M214 607q-7 4 -16.5 4.5t-14.5 2.5q33 17 105 60q10 -6 28 -23zM241 587q-5 3 -13 11l103 36q18 -21 15 -25zM257 555q-4 3 -7 15q20 7 52 12q46 8 53 10q7 -12 7 -21zM259 536q-1 3 -1 5l108 11q4 -4 4 -19zM370 490l-107 15v5v7l108 -3q2 -9 -1 -24zM271 683
q-29 -16 -106 -63l-7 -18l-79 -48l142 151q4 -2 48 -18zM118 625q-16 -23 -45 -59l74 135q8 6 46 4q-32 -34 -75 -80zM367 467q1 -11 -7 -24l-100 31l2 10q22 -2 105 -17zM346 404l-95 41q0 3 3 9l101 -29q-1 -8 -9 -21zM59 560l21 113q19 16 40 24q-20 -49 -61 -137z
M242 427q30 -13 91 -38q-3 -5 -9 -14l-1 -3q-26 9 -85 48q0 2 4 7zM289 346l-69 55l7 5l77 -49q-5 -6 -15 -11zM47 533l-21 78q9 16 30 42zM271 333q-1 0 -24 -7l-60 66l17 -1zM7 550q3 14 8 37q15 -34 31 -85zM206 320l-110 137q15 -17 66 -64q42 -39 64 -72q-7 0 -20 -1z
M18 489q-7 1 -17 6l3 35q18 -17 48 -54q-15 5 -34 13zM186 319l-30 5l-60 112q12 -19 44.5 -56.5t45.5 -60.5zM117 330q-17 46 -31 90q24 -43 51 -93q4 -2 -20 3zM20 453q-5 -3 -13 -6q-5 26 -6 32q22 -6 51 -17q-15 -5 -32 -9zM74 352l-4 65l24 -79q-14 4 -20 14zM28 401
q-14 15 -15 28q15 5 39 18zM39 385l18 44l2 -64q-7 6 -20 20zM596 698q-470 -697 -467 -697q2 0 26 -3l493 700h-52zM111 541l-28 -20l42 61q0 -2 -7 -20.5t-7 -20.5zM112 501q-24 -6 -26 -5q-1 2 26 28v-23zM114 485q0 -1 7 -35q-30 29 -29 29l11 3.5t11 2.5zM614 287
q-7 4 -16.5 4.5t-14.5 2.5q33 17 105 60q10 -6 28 -23zM641 267q-5 3 -13 11l103 36q18 -21 15 -25zM657 235q-4 3 -7 15q20 7 52 12q46 8 53 10q7 -12 7 -21zM659 216q-1 3 -1 5l108 11q4 -4 4 -19zM770 170l-107 15v5v7l108 -3q2 -9 -1 -24zM671 363q-29 -16 -106 -63
l-7 -18l-79 -48l142 151q4 -2 48 -18zM518 305q-16 -23 -45 -59l74 135q8 6 46 4q-32 -34 -75 -80zM767 147q1 -11 -7 -24l-100 31l2 10q22 -2 105 -17zM746 84l-95 41q0 3 3 9l101 -29q-1 -8 -9 -21zM459 240l21 113q19 16 40 24q-20 -49 -61 -137zM642 107q30 -13 91 -38
q-3 -5 -9 -14l-1 -3q-26 9 -85 48q0 2 4 7zM689 26l-69 55l7 5l77 -49q-5 -6 -15 -11zM447 213l-21 78q9 16 30 42zM671 13q-1 0 -24 -7l-60 66l17 -1zM407 230q3 14 8 37q15 -34 31 -85zM606 0l-110 137q15 -17 66 -64q42 -39 64 -72q-7 0 -20 -1zM418 169q-7 1 -17 6l3 35
q18 -17 48 -54q-15 5 -34 13zM586 -1l-30 5l-60 112q12 -19 44.5 -56.5t45.5 -60.5zM517 10q-17 46 -31 90q24 -43 51 -93q4 -2 -20 3zM420 133q-5 -3 -13 -6q-5 26 -6 32q22 -6 51 -17q-15 -5 -32 -9zM474 32l-4 65l24 -79q-14 4 -20 14zM428 81q-14 15 -15 28q15 5 39 18z
M439 65l18 44l2 -64q-7 6 -20 20zM511 221l-28 -20l42 61q0 -2 -7 -20.5t-7 -20.5zM512 181q-24 -6 -26 -5q-1 2 26 28v-23zM514 165q0 -1 7 -35q-30 29 -29 29l11 3.5t11 2.5z" />
    <glyph glyph-name="ampersand" unicode="&#x26;" horiz-adv-x="789" 
d="M410 577q-14 10 -33 10l50 100q33 -2 53 -13zM491 541q-28 20 -61 29l62 81zM497 438l104 98l17 -17zM353 590q-3 0 -9 1h-8q-17 0 -36 -13l38 118q25 3 61 -4zM400 350q42 37 114 80l120 72l25 -24q-64 -33 -128 -67q-76 -40 -131 -61zM424 318q-11 10 -23 13l271 135
l26 -22zM592 333l-140 -42l-15 16q3 1 9 4q41 20 266 116l11 -11q-105 -43 -131 -83zM470 250q0 16 -11 28l120 32q30 -24 33 -41zM461 198q6 12 10 34l152 15q4 -8 10 -24q2 -6 2 -26zM188 301l55 391q27 6 39 5q20 -1 27 0q-41 -133 -121 -396zM620 129l-193 32l22 20
l183 -4zM171 310q-12 97 -20 357q17 9 65 21zM257 286l-43 -32q20 35 133 195q22 -6 55 -2q-43 -35 -87 -70q-50 -43 -58 -91zM214 322l60 166l13 -13q-44 -104 -73 -153zM138 417q-3 0 -9 5l-2 2q-4 3 -8 3l-52 175q29 44 60 55l16 -239q-3 -1 -5 -1zM216 291l91 172
q13 -3 21 -9q-30 -48 -112 -163zM40 526q0 16 11 52l39 -133q-50 32 -50 81zM569 68q-49 16 -317 107l361 -63q-25 -34 -44 -44zM226 236l29 29v-12zM478 20q-33 20 -124 75l-105 63l300 -104q-27 -20 -71 -34zM126 386l16 10l10 -94zM225 216l33 19l8 -11zM239 195
q15 3 36 10l20 -21q-32 7 -56 11zM98 369l10 8l20 -80zM379 -3q-64 74 -103 114q-12 10 -36 32l214 -134q-12 -7 -36 -9q-19 -2 -39 -3zM105 254l-36 97q2 4 14 11l36 -98q-6 -1 -14 -10zM349 -3l-72 3l-51 136q40 -47 123 -139zM35 322q7 6 18 17q16 -38 44 -117zM2 250
l19 50l66 -107q-59 35 -85 57zM194 16l9 115l46 -130zM6 185l-4 40q32 -17 88 -60zM172 23l-41 24q18 24 52 74zM57 102l-38 56l124 -21zM111 58q-17 5 -37 29l85 35q-15 -22 -48 -64z" />
    <glyph glyph-name="quotesingle" unicode="'" horiz-adv-x="285" 
d="M207 645l-47 -1l82 53zM130 651l46 48h36zM104 651l6 49h46zM182 597l-34 30l46 -5zM60 699h27l1 -52zM152 552l-18 65l34 -43zM39 632l13 44l31 -51zM25 582l10 30l52 -7zM101 474l18 119l16 -58zM82 468h-68l87 113zM0 482l19 79l66 28z" />
    <glyph glyph-name="parenleft" unicode="(" horiz-adv-x="311" 
d="M107 475l67 247l63 1zM95 504l7 159l38 57h7zM195 558l-80 -95q31 55 106 193q-21 -63 -26 -98zM176 466l-54 -16l66 71zM62 590l17 34l6 -150zM173 403l-53 28l54 14zM53 478l11 -65l-34 98l19 50l30 -126zM168 360l-41 48l43 -23zM128 380l40 -37l3 -33zM12 445l9 39
l32 -106zM127 347l44 -67l10 -88zM6 383l2 31l35 -60zM3 334v29l50 -40zM8 295l-2 15l47 -11zM175 -18l-49 320l116 -321zM16 248l-6 24l52 5zM26 208l-5 23l48 29q-24 -31 -43 -52zM40 163l-9 28l51 53zM72 94l-17 40l45 101zM119 264q2 -38 25 -283q-35 36 -51 80
q4 44 16 132z" />
    <glyph glyph-name="parenright" unicode=")" horiz-adv-x="311" 
d="M92 720h7l38 -57l7 -159zM154 474l6 150l17 -34zM175 413l11 65l-26 -43l30 126l19 -50zM7 723l58 -1l67 -246zM186 378l32 106l9 -39zM44 558q-5 35 -26 98l108 -197zM196 354l35 60l2 -31zM63 466l-12 55l66 -71zM186 323l50 40v-29zM66 403l-1 42l54 -14zM231 295
l-45 4l47 11zM71 360l-2 25l42 23zM223 248l-46 29l52 -5zM68 310l3 33l40 37zM213 208q-19 21 -43 52l48 -29zM198 163l-41 81l51 -53zM57 202l11 78l44 67zM166 94l-27 141l45 -101zM95 -19l26 286v2h-1v-1l10 -75q12 -88 16 -132q-16 -44 -51 -80zM67 -21l-63 2l109 320z
" />
    <glyph glyph-name="asterisk" unicode="*" horiz-adv-x="389" 
d="M203 493l12 -100h-100q8 60 14 99q-32 -24 -81 -61l-50 87l92 38q-37 16 -92 40l50 87l79 -61q-5 39 -12 99h100l-13 -99l80 61l51 -88l-94 -37l94 -40l-51 -87q-48 38 -79 62zM166 545q-9 -71 -17 -122h32zM159 553l-118 -49l16 -28q45 33 102 77zM158 560l-101 78
l-16 -28q50 -22 117 -50zM164 564l17 127h-32q6 -54 15 -127zM175 564q63 26 114 46l-16 28zM164 559v5l2 -10l-1 1l-6 -2l9 6v-1q65 -50 105 -82l17 28l-129 54z" />
    <glyph glyph-name="plus" unicode="+" horiz-adv-x="521" 
d="M301 589l-9 -182l182 10v-124l-182 10l9 -182h-123l9 182l-182 -10v124l182 -10l-9 182h123zM270 559h-61l10 -183l-184 10v-61l184 10l-10 -184h61l-10 184l184 -10v61l-184 -10z" />
    <glyph glyph-name="comma" unicode="," horiz-adv-x="316" 
d="M237 95l-54 -1l95 53zM147 101l54 48l46 1zM118 101l7 49l39 -3zM208 47l-39 30l53 -5zM174 2l-22 65l41 -43zM67 149h32l1 -53zM43 87l16 38l35 -50zM120 -69l16 112l18 -58zM27 32l12 30l59 -7zM93 -82h-79l101 114zM-11 -79l31 90l77 28z" />
    <glyph glyph-name="hyphen" unicode="-" horiz-adv-x="430" 
d="M230 326l134 40v-29zM208 331l54 35h63zM229 312l134 8l1 -30q-93 16 -135 22zM364 242l-3 2q-4 2 -114 52l116 -25zM317 218l-77 67q37 -17 124 -59v-10zM173 322q13 14 38 44h29zM162 326l12 40h18zM268 216l-33 58q22 -19 63 -58h-30zM149 323l-13 43h24zM228 216
l-6 55l31 -55h-25zM88 366h28l22 -50zM196 216l15 51l5 -51h-20zM40 366h27l49 -45q-25 15 -76 45zM182 216h-27l42 48zM15 341l1 24l96 -57zM136 217h-41l86 50zM17 301l-1 20l89 -22zM16 269v18h88zM16 239l1 14l97 25l-31 -14l38 2zM67 216h-51v8l126 36z" />
    <glyph glyph-name="hyphen" unicode="&#x2010;" horiz-adv-x="430" 
d="M230 326l134 40v-29zM208 331l54 35h63zM229 312l134 8l1 -30q-93 16 -135 22zM364 242l-3 2q-4 2 -114 52l116 -25zM317 218l-77 67q37 -17 124 -59v-10zM173 322q13 14 38 44h29zM162 326l12 40h18zM268 216l-33 58q22 -19 63 -58h-30zM149 323l-13 43h24zM228 216
l-6 55l31 -55h-25zM88 366h28l22 -50zM196 216l15 51l5 -51h-20zM40 366h27l49 -45q-25 15 -76 45zM182 216h-27l42 48zM15 341l1 24l96 -57zM136 217h-41l86 50zM17 301l-1 20l89 -22zM16 269v18h88zM16 239l1 14l97 25l-31 -14l38 2zM67 216h-51v8l126 36z" />
    <glyph glyph-name="period" unicode="." horiz-adv-x="311" 
d="M134 217q28 0 63 -20q-1 -1 -71 -88zM109 216v-111l-47 93q18 11 47 18zM101 87l-59 97q-14 -13 -28 -46zM212 188q18 -13 26 -35l-87 -40zM243 137q5 -13 12 -52l-101 14q3 2 89 38zM108 63q-30 16 -99 54q-6 -24 1 -52q46 0 98 -2zM179 80l72 -11q-4 -14 -25 -46
q-20 16 -47 57zM170 63q13 -18 40 -52q-17 -20 -56 -23zM59 7q-29 18 -37 39l97 -1q-21 -13 -60 -38zM147 48l-12 -60q-6 -2 -13 -2q-18 0 -42 8z" />
    <glyph glyph-name="slash" unicode="/" horiz-adv-x="322" 
d="M-18 -28l236 751h115l-271 -751h-80zM23 2h18l249 691h-51q-63 -192 -216 -691z" />
    <glyph glyph-name="zero" unicode="0" horiz-adv-x="777" 
d="M105 217l8 -136q-9 7 -40 39zM93 241l-33 -98q-11 10 -24 43zM74 252l-50 -41l-7 24zM185 31q-12 0 -27 10t-21 20l-9 162zM68 268l-57 -7l-5 33zM263 7l-46 10q-14 35 -70 206q109 -192 116 -216zM9 384l64 -93l-66 41zM153 256q35 -44 114 -166l-92 172
q143 -212 173 -265l-53 3q-101 174 -131 233q-5 11 -11 23zM35 493q6 -35 16 -124l-36 52q5 26 20 72zM278 169q40 -43 79 -86q64 -70 68 -82q-15 0 -46 -2l-216 303q65 -65 115 -133zM225 294q4 -20 11 -46q-30 28 -77 80q39 -19 66 -34zM335 134q5 -3 14 -3q25 0 38 9
l120 -113q-7 -8 -24 -11q-9 -2 -28 -7zM217 339q3 -3 1 -20q-5 3 -37 17q-17 8 -34 25q26 -8 70 -22zM217 375v-18q-2 0 -28.5 10.5t-35.5 15.5zM223 415q1 -12 -2 -21l-64 7q18 5 66 14zM114 613l-43 -215l-21 136q36 56 64 79zM420 166l147 -94q-11 -15 -34 -28
q-3 2 -132 108zM242 474q-5 -12 -14 -37q-20 -6 -68 -16q36 24 82 53zM450 205q55 -26 169 -75q0 -9 -11 -21t-21 -17l-152 91zM149 646q34 25 89 48q-1 -8 -124 -226zM470 254q69 -23 186 -61q0 -2 -10.5 -20t-11.5 -18l-174 73zM270 699q9 6 36 8q20 1 39 2l-196 -234z
M482 310l197 -35q-5 -32 -15 -48l-188 53zM452 690q40 -11 52 -19q21 10 -173 -116q-13 1 -39.5 -17.5t-31.5 -29.5l-103 -70zM375 707l49 -8q-128 -115 -277 -247zM480 366l207 -5q4 -20 -3 -54l-201 29zM680 430q2 -15 6 -43h-208l-5 22zM655 502q17 -28 16 -46l-207 -24
l-10 30q-6 -6 201 40zM612 580l20 -24q12 -16 12 -29l-200 -43q-7 9 -19 27zM531 652q15 -11 32 -23t27 -26l-179 -72q-16 17 -48 24q40 20 168 97z" />
    <glyph glyph-name="one" unicode="1" horiz-adv-x="502" 
d="M342 701l-99 -383l53 383h46zM394 701v-176l-127 -210l109 389zM261 700l-35 -365l-18 366zM179 698l25 -405l-3 -3l-84 408h62zM193 249l-127 381l33 44zM41 591l21 -60l-63 3zM393 393l-122 -101l123 176zM186 217l-86 104l1 125zM394 358v-43l-110 -38zM97 286l80 -85
l-80 31v54zM391 283v-26l-90 3zM390 228l1 -51l-79 64zM393 146l1 -85l-87 156zM97 203l74 -24l-74 -28v52zM394 4l-82 154l44 -154h38zM177 157l-83 -104v63zM293 148l20 -98l-52 86l26 -20zM191 143l-42 -142h-58v17zM211 137l27 -136l-55 3zM232 136l95 -134l-57 -1z" />
    <glyph glyph-name="two" unicode="2" horiz-adv-x="730" 
d="M342 713l86 -192l-155 189zM371 712l68 -8v-155l-69 156zM241 707l181 -204l-22 10l-223 185zM462 697l56 -25l-58 -107zM143 693l265 -205l-111 62l-46 18l-169 102zM538 661l41 -27l-96 -68zM229 568l2 -4l-38 -10l-171 67l29 31zM598 622l31 -52l-123 -13zM9 600
l151 -54l-40 -18l-109 35zM544 537l98 9l2 -56zM10 543l86 -22l-25 -19l-61 9v32zM544 511l98 -41q-1 -40 -16 -57zM360 497l70 -29l-58 4zM546 482l73 -86l-36 -49zM13 487h36l-37 -37zM427 446l1 8l-63 3l-24 -39zM543 439l21 -115l-26 -23zM451 437l-33 -30l-180 -112
l92 95zM521 433l-3 -150l-32 -23zM501 411l-34 -167l-39 -29zM453 414l-451 -366v40l170 143zM71 1h-67v18l445 376q-14 -38 -191 -213q-93 -91 -187 -181zM384 186l-58 -36l45 1l-84 -147l-91 -3l278 386zM461 385l-305 -384h-52zM442 149l-45 -151l-67 3l69 145zM506 148
l-20 -149l-52 2l34 147h38zM564 147l-1 -144l-45 -2l14 146h32zM621 146v-142l-29 -1l-10 142z" />
    <glyph glyph-name="three" unicode="3" horiz-adv-x="800" 
d="M623 701h72l-132 -125zM590 700l-81 -203v201zM376 700l95 -386l-168 386h73zM480 700l10 -222l-22 -28l-63 250h75zM270 700l195 -409l-247 409h52zM21 702h42l133 -139h-59l-116 93v46zM181 700l92 -139l-55 4l-118 135h81zM23 627l87 -66h-87v66zM459 273l-200 237
l27 34zM464 235l-246 233l27 33zM453 227l-276 201l25 23zM492 432l-20 -1l23 -113zM517 432l25 -6l-23 -120zM438 215l-278 199l-33 -38q102 -9 197 -93zM567 418l42 -17l-75 -114zM628 390l36 -28l-103 -71zM681 337l28 -51l-150 -9zM713 269l1 -50l-126 47zM579 248
l131 -56l-21 -38zM339 252l101 -56l-112 -10q16 17 16 38q0 13 -5 28zM579 221l95 -92l-41 -47zM0 217l81 -58l-81 -9v67zM577 192l33 -132l-60 -31zM446 183l-446 -101v45l115 15q20 -5 45 -5q81 0 147 32zM436 161l-375 -125l-56 21zM164 3l-74 19l373 137zM555 175
l-36 -160l-74 -19zM502 163l-211 -177l-95 10zM525 161l-114 -170l-88 -6q85 73 202 176z" />
    <glyph glyph-name="four" unicode="4" horiz-adv-x="788" 
d="M531 701l-16 -340l-39 340h55zM603 700l-68 -339l19 340zM635 701l-1 -175l-87 -194zM381 701l99 -398l-172 398h73zM459 701l38 -394l-90 394h52zM286 693l161 -352l-197 305zM235 628l91 -134l-17 -25l-106 114zM188 565l110 -113l-20 -30l-123 95zM141 501l123 -95
l-23 -34l-141 68zM635 359l-93 -63l93 184v-121zM460 299v-8l-113 126v44zM87 426l141 -70l-20 -33l-159 49zM349 387l95 -100l-95 72v28zM420 236l-409 74l27 42zM636 332h95l-179 -49zM347 312l83 -40l-83 63v-23zM734 309v-28l-164 -7zM11 285l410 -63l-3 -7l-396 23z
M734 263v-36l-166 36h166zM566 249l168 -44v-47l-168 82v9zM558 225l176 -85v-9h-90zM421 200l-386 -23l-8 34zM553 195l80 -82l-2 -116zM436 182l-170 -49h-219l-5 18zM537 0h-52l36 175zM541 174l65 -175h-45zM472 151l-104 -151h-30v66l127 85h7zM492 143l-31 -144l-68 1
zM454 171l-115 -38l-1 -40zM347 292v-18l91 -25z" />
    <glyph glyph-name="five" unicode="5" horiz-adv-x="809" 
d="M545 701l-365 -145l284 145h81zM593 702l66 -1v-27l-475 -127zM332 701h81l-244 -132zM84 701l65 -1l-48 -126zM176 699l59 -1l-88 -125l17 46l-33 -18zM63 701l25 -177l-76 135v42h51zM661 648v-41l-361 -48zM11 618l75 -125l-74 45zM661 585l1 -30l-176 5zM247 549
l-3 -17l-62 4zM244 516v-22l-57 26zM12 516l79 -50h-79v50zM194 481l485 -355l-33 -38zM458 478q83 -17 154 -56l-251 55q81 5 97 1zM341 471l309 -78q35 -28 51 -56l-389 131zM711 310q9 -20 9 -67l-435 212l11 5zM717 213q-1 -6 -22 -63l-432 294l7 5zM204 457l419 -387
l-46 -38zM319 297l-39 13l-87 133q59 -66 126 -146zM254 313l-22 3l-57 124zM104 431l-92 -119v60zM210 318l-22 1l-30 109zM117 419l-49 -119q0 -2 -19 -12q-22 -12 -35 -23v25zM130 412l-15 -98l-27 -5zM144 410l17 -91h-29zM383 228l168 -207q-39 -27 -71 -25l-116 168
q21 22 19 64zM-1 164l25 -16l-25 -80v96zM453 -9l-76 -1l-62 137l34 23q37 -52 104 -159zM42 143l49 -12l-18 -121l-76 20zM153 122l2 -126l-62 13l23 120zM177 120l33 -3l29 -125l-58 4zM237 118l59 5l56 -133l-89 1zM171 585l89 114h41zM14 446v-49l81 49h-81zM189 504
l54 -26v-14z" />
    <glyph glyph-name="six" unicode="6" horiz-adv-x="823" 
d="M456 669l-22 36h60zM404 624l-68 82h72l31 -48zM625 340l34 97l35 -41zM616 376l-4 94l27 -16zM639 333l69 42l15 -33zM554 494l32 -14l7 -84zM494 508l29 -7l43 -98zM645 320l84 -2l5 -48zM362 582l-127 124h77l73 -96zM432 513h30l84 -119zM719 186l-62 113l77 -58z
M385 508l21 3l108 -110zM337 540l-148 114l28 32l133 -123zM677 124l-21 147l53 -110zM335 489l27 13l145 -116zM317 497l-176 101l32 41l155 -114zM476 310l-30 26l72 -41zM488 272l-3 14l54 -17zM602 61l41 180l10 -141zM97 542l27 39l394 -230zM486 238l2 13l56 -4z
M478 199l8 18l66 10zM372 379l29 -21l-331 145l16 21l408 -186zM571 46l-70 -29l110 190zM346 350l-302 99l17 33l307 -125zM464 8l-69 -7l190 177zM318 325l-301 46l19 57l294 -91zM360 3l-86 15l306 182zM238 28l-79 36l216 84l94 31l103 38zM295 281l-282 22l1 44
l291 -41zM29 225l-15 53l281 -15l2 -23zM61 158l-24 45l264 17l6 -15zM138 79l-62 57l240 50l32 -27z" />
    <glyph glyph-name="seven" unicode="7" horiz-adv-x="699" 
d="M638 637l-245 -323q15 32 27 52q30 51 201 334h42zM379 332l170 368h45zM359 323q6 25 19 66q44 128 103 311h42zM550 443l-134 -131l186 255zM275 700h41l-9 -131h-29zM327 296l88 404h43zM258 569h-38l-20 131h51zM314 325l-10 -24q-1 21 37 399h49zM508 334l-100 -56
l-2 5l128 117zM164 569l-34 131h43l27 -131h-36zM476 267l-90 -16l108 53zM91 569l-55 131h63l42 -131h-50zM286 283l-8 178l25 76zM6 570l-4 131h2l63 -132zM455 205l-74 30l86 9zM277 247l-41 105l26 71zM425 131l-50 82l70 -34zM210 285l14 38l45 -117zM388 42l-20 140
l44 -75zM185 222l16 43l59 -88zM320 -1l38 155l7 -155h-45zM158 157l17 46l82 -54zM289 0l-54 -2l105 145zM128 87l19 49l122 -2zM203 0h-64l159 118zM95 3l24 58l152 53z" />
    <glyph glyph-name="eight" unicode="8" horiz-adv-x="771" 
d="M573 393q0 10 4 93q3 89 3 117q28 -41 35 -67q4 -14 7 -64q-9 -24 -19 -48q-4 -6 -30 -31zM549 375l-53 297q30 -12 61 -42v-246zM512 389l-100 309q25 -4 58 -17l57 -338zM308 569l-84 124l69 8l66 -126zM389 563q-70 136 -70 139q0 -3 3 2q40 3 64 -2l128 -383z
M582 240l46 84l32 -30zM579 262l11 85l25 -12zM577 200l104 26l-3 -35q-54 8 -101 9zM552 360l19 -8l-6 -76zM268 537l-116 130l46 19l94 -127zM663 132q-28 20 -75 58l86 -20zM413 419l18 19l76 -150zM380 411l16 3l80 -110zM335 401l-2 7l23 -2l127 -133l5 -8zM256 476
l-166 152q20 24 39 29q-7 7 129 -142zM601 62l-22 95l45 -81zM348 351l-284 220l-9 20l21 22l361 -325zM466 222l3 -13l-88 85l-49 8l-295 201l8 56l341 -260l110 -89zM430 166l4 15l48 -21zM575 46l-66 -23l57 120zM274 302l-182 88l-55 87l22 -11l246 -166zM117 332
l125 -33l27 -21h-17zM337 -9l-82 6h5l243 119zM240 237l-201 55l37 35l172 -63zM216 4l-72 25q82 24 343 87zM196 200l-191 32l16 45l214 -59l6 -20zM118 43l-67 44l9 4l414 34zM4 161l-6 54l248 -37l11 -23zM37 104l-25 40l278 -7l13 -7zM575 218l92 56l12 -32zM571 188
l87 -74l-20 -23zM390 -4l156 140l-63 -121q-40 -19 -93 -19z" />
    <glyph glyph-name="nine" unicode="9" horiz-adv-x="823" 
d="M431 522l-32 26l210 80l62 -57zM446 487l-6 16l246 46l24 -45zM452 445l-1 23l267 14l15 -52zM733 361l-291 41l10 24l282 -21zM376 561l-3 -3q-12 4 -25 4q-47 0 -70 -34l-100 -34l331 185l79 -36q-57 -21 -131 -50l-61 -24q-6 -2 -18 -7zM159 503q36 28 229 202
q25 -2 85 -15zM711 279l-294 92l12 12l295 -46q8 -1 10 0h-2q1 1 1 2v0q-2 -1 -1 -2v-1t-3 -2zM162 529l121 170l69 7zM686 225q-19 4 -57 20q-56 23 -250 105l23 8l301 -99zM137 530l39 132q40 20 70 29q-87 -130 -109 -161zM661 184l-403 183l117 -39l-29 21l332 -144
q-10 -14 -17 -21zM261 491l-66 -11l74 28zM259 456l-56 5l58 8zM623 126l-394 230l421 -191zM104 467l-10 141l51 38zM216 441l43 -6l3 -13zM229 412l41 -14q7 -10 19 -20zM574 68l-155 115l11 28l176 -102zM385 205l-145 117l173 -104zM38 547l32 36l16 -137zM530 22
l-133 122l13 23l148 -113zM341 196l-108 110l129 -107zM13 466l15 55l62 -113zM285 194l-84 119l114 -119h-30zM435 1l-73 96q7 10 23 29l115 -112q5 -4 13 -13h-78zM224 207l-43 98l72 -106zM18 390q-8 18 -6 48l80 -52zM161 227l-7 84l39 -97zM39 332l-15 33l74 5z
M108 253l23 79l4 -95zM88 269q-23 19 -35 43l69 55zM339 1l-31 49l35 34l68 -83h-72zM253 3l38 36l22 -37z" />
    <glyph glyph-name="colon" unicode=":" horiz-adv-x="346" 
d="M127 217q28 0 63 -20q-2 -1 -71 -88zM102 216v-111l-47 93q18 11 47 18zM94 87l-59 97q-14 -13 -28 -46zM204 188q19 -13 27 -35l-87 -40zM236 137q5 -13 12 -52l-101 14q3 2 89 38zM101 63q-30 16 -99 54q-6 -24 1 -52q46 0 98 -2zM172 80l72 -11q-4 -14 -25 -46
q-20 16 -47 57zM163 63q13 -18 40 -52q-18 -20 -56 -23zM52 7q-29 18 -37 39l97 -1q-21 -13 -60 -38zM140 48l-12 -60q-6 -2 -13 -2q-18 0 -42 8zM127 617q28 0 63 -20q-2 -1 -71 -88zM102 616v-111l-47 93q18 11 47 18zM94 487l-59 97q-14 -13 -28 -46zM204 588
q19 -13 27 -35l-87 -40zM236 537q5 -13 12 -52l-101 14q3 2 89 38zM101 463q-30 16 -99 54q-6 -24 1 -52q46 0 98 -2zM172 480l72 -11q-4 -14 -25 -46q-20 16 -47 57zM163 463q13 -18 40 -52q-18 -20 -56 -23zM52 407q-29 18 -37 39l97 -1q-21 -13 -60 -38zM140 448l-12 -60
q-6 -2 -13 -2q-18 0 -42 8z" />
    <glyph glyph-name="semicolon" unicode=";" horiz-adv-x="368" 
d="M127 617q28 0 63 -20q-2 -1 -71 -88zM102 616v-111l-47 93q18 11 47 18zM94 487l-59 97q-14 -13 -28 -46zM204 588q19 -13 27 -35l-87 -40zM236 537q5 -13 12 -52l-101 14q3 2 89 38zM101 463q-30 16 -99 54q-6 -24 1 -52q46 0 98 -2zM172 480l72 -11q-4 -14 -25 -46
q-20 16 -47 57zM163 463q13 -18 40 -52q-18 -20 -56 -23zM52 407q-29 18 -37 39l97 -1q-21 -13 -60 -38zM140 448l-12 -60q-6 -2 -13 -2q-18 0 -42 8zM98 171h56l-64 -53zM254 170l-44 -56l-58 -1zM73 170l1 -57l-35 57h34zM69 94l-37 55l-16 -48zM139 98l58 -5l-16 -28z
M123 91l44 -47l-20 -24zM11 83l65 -7l-78 -26zM-8 32l81 30l-104 -114zM109 68l19 -63l-42 -67zM90 55l-23 -118h-82zM174 170h46l-106 -54z" />
    <glyph glyph-name="less" unicode="&#x3c;" horiz-adv-x="950" 
 />
    <glyph glyph-name="equal" unicode="=" horiz-adv-x="526" 
d="M464 246v-98h-460v98h460zM434 216h-400v-38h400v38zM464 396v-98h-460v98h460zM434 366h-400v-38h400v38z" />
    <glyph glyph-name="greater" unicode="&#x3e;" horiz-adv-x="950" 
 />
    <glyph glyph-name="question" unicode="?" horiz-adv-x="593" 
d="M400 553l54 118l41 -28zM415 546l97 80q26 -28 36 -50zM387 557l-1 143l44 -16q-4 -13 -43 -127zM535 402l-96 99l116 -56zM370 548l-53 161l43 -6zM244 707l49 2q0 1 62 -160q-11 10 -111 158zM477 360l-40 126l77 -105zM181 694l39 9l125 -169q-31 33 -164 160z
M452 351l-26 -8l7 122zM106 669q28 15 52 21l195 -176zM269 499l1 15l87 -26q-45 1 -88 11zM253 463l11 24l85 -11zM-2 599l151 -40l18 9l-136 60zM85 660q-13 -5 -34 -21q56 -24 135 -65q18 6 53 -9q7 -8 24 -31q10 -4 38 -13t44 -16q-128 78 -260 155zM139 388v30
q16 -4 32 -4q28 0 53 14q20 12 20 17q29 4 107 18zM282 237h-38l141 189zM117 536l-21 -20l-92 68l132 -35zM139 241l-4 2l1 54l223 142q-30 -28 -220 -198zM211 237l-51 -1q72 64 214 194zM357 31l17 106q10 -27 10 -48q0 -34 -27 -58zM327 16q-27 -18 -42 -15
q29 77 62 170l15 -17zM263 0q-22 -7 -37 1l76 189l23 -10zM282 197l-85 -195q-24 3 -29.5 7.5t-10.5 8.5l106 181zM138 40l-16 17l98 144l24 -4zM111 87q6 22 13 46t22 38q19 19 46 28zM314 237l82 193l-43 -193h-39zM390 342l25 104l-4 -104h-21zM430 533q125 28 125 26
q0 -1 3 -21.5t3 -21.5q0 -2 -131 17zM428 518l135 -23l-4 -35zM137 358v-39l216 129z" />
    <glyph glyph-name="at" unicode="@" horiz-adv-x="765" 
d="M637 168h61q-39 -90 -124 -146t-183 -56q-152 0 -251 110q-97 106 -97 259q0 156 94 266q98 115 252 115q129 0 222.5 -86.5t93.5 -214.5q0 -99 -63 -189q-70 -99 -165 -99q-76 0 -68 85q-54 -79 -108 -79q-58 0 -93 47q-32 42 -32 102q0 85 57 160q62 81 144 81
q60 0 78 -65l16 56h88l-44 -164q-34 -127 -34 -155q0 -24 27 -24q58 0 105 92q40 80 40 145q0 107 -76 182.5t-182 75.5q-134 0 -217 -97q-79 -92 -79 -228q0 -137 81 -228q84 -96 219 -96q152 0 238 151zM390 482q-51 0 -90 -93q-34 -78 -34 -138q0 -78 48 -78q51 0 90 97
q32 80 32 141q0 71 -46 71z" />
    <glyph glyph-name="A" unicode="A" 
d="M652 312l-19 387h16l25 -97zM674 338l18 215l18 -67zM552 699q19 -1 55 1l28 -365zM678 306l46 139l12 -44zM690 286l56 85l10 -29zM464 700l61 -1l103 -408zM709 268l55 50l9 -25zM721 242l60 29l4 -20zM710 217l84 10l8 -27zM369 699h64l173 -419zM727 186l83 -15
l15 -51zM277 698l57 1l271 -460zM407 446l-176 200l15 45l168 -226zM718 162l118 -70l12 -46zM820 0l-107 136l150 -135zM531 254l-3 6l-34 99l122 -178zM393 402l-188 172l15 47l180 -200zM748 1l-33 106l72 -107zM697 1l12 79l13 -79h-25zM375 364l-195 150l16 38
l186 -169zM395 258l90 -1l121 -89zM667 1h-32l52 89zM581 54l-6 18l66 12zM363 326l-208 123l18 40l194 -148zM604 2l-13 32l75 47zM102 301l19 52l422 -178zM347 280l-217 97l16 41l210 -115zM617 142l-539 92l16 45zM56 172l14 40l527 -87zM565 91l-9 16l-523 -2l17 46
l599 -49zM270 72l-253 -17l10 31l251 2zM240 1h-93l102 18zM253 33l-195 -32h-63l15 29l252 20z" />
    <glyph glyph-name="B" unicode="B" horiz-adv-x="847" 
d="M271 619l302 72q31 -5 93 -38q-252 -21 -395 -34zM275 599l418 24l27 -45q-130 0 -445 21zM645 419l-166 64l-7 29l229 -47q-5 -21 -56 -46zM248 635l147 65q34 3 105 0q-29 -9 -252 -65zM714 487q-37 8 -254 44q-29 31 -108 30.5t-104 17.5h-2q11 0 104 -6
q187 -12 375 -24q6 -35 -11 -62zM745 295q-15 7 -284 144l13 24l143 -54q5 -15 34 -25q35 -13 43 -20q17 -17 35 -34q20 -20 26 -39zM222 649q32 23 61 51h54q-38 -18 -115 -51zM427 419q-1 1 9 2.5t11 3.5q105 -57 314 -167q6 -9 0 -50zM174 639q17 23 38 61h38
q-47 -39 -76 -61zM745 147q-4 -6 -12 -16q-114 87 -364 286h30l357 -243q-3 -13 -11 -27zM234 559q12 -1 59 -11l-1 -18q-20 9 -58 29zM125 594q0 32 11 106h44zM256 522q6 -2 35 -10q2 -10 0 -20zM345 416q75 -60 185 -155q179 -156 182 -159q-3 -17 -38 -40zM232 510
q10 -9 57 -39v-34q-26 31 -57 73zM393 288l-82 121q72 -61 114 -121h-32zM101 582l-43 118h47q4 -78 -4 -118zM595 15l-116 157q16 18 19 41l151 -169q-17 -12 -54 -29zM337 289l-88 158q40 -52 111 -158h-23zM6 633v67h23l46 -131zM313 291l-14 2l-2 -20l-71 172zM79 539
q-1 -3 -3 -7q-69 31 -70 31q-5 0 0 40q69 -57 74 -57q1 0 -1 -7zM505 0l-94 157q7 4 33 3q7 -1 11 0l108 -153q-26 -10 -58 -7zM6 505v32l73 -23l1 -2q-25 0 -74 -7zM324 0l-103 409l71 -184l1 -68q11 -2 25 -1q19 -52 60 -156h-54zM6 453v29q41 9 67 10zM413 0l-72 160
q13 0 39 1l89 -161h-56zM6 379l2 51q46 29 77 44zM233 0l-48 330l38 -142l5 1q-8 63 -25 190l94 -379h-64zM5 279v57l88 123l2 -2q-71 -138 -90 -178zM214 0h-54l2 360q44 -322 52 -360zM8 107q-1 24 0 63q2 56 2 63l88 183zM133 0l-47 1l48 342zM58 0l-54 1l115 407z" />
    <glyph glyph-name="C" unicode="C" horiz-adv-x="764" 
d="M530 552l146 53v-38zM592 540l84 3v-52q-34 30 -84 49zM244 459l393 211l39 -16v-23zM242 478l302 221l61 -17zM205 477l235 232l68 -7zM184 480l157 219l65 7zM638 181l38 28v-39zM174 499l67 170l65 21zM580 149q26 4 38 15l56 -16l2 -27zM336 476q-9 -8 -23 -27
l-81 -8zM135 458l10 145l63 49zM506 153l168 -58v-34zM284 408l-55 9l67 14q-12 -12 -12 -23zM274 342l-64 57l68 -16q-7 -20 -4 -41zM216 318l18 11l-20 39l57 -48zM111 400l-37 136l42 47zM605 19l-378 248q91 -41 216 -109q106 -59 212 -117zM209 294l75 6q6 -22 43 -57z
M514 -5l-285 238l348 -224zM25 466l27 45l41 -129zM406 -11l-212 244l284 -244h-72zM2 392l14 44l76 -86zM1 314l-1 50l90 -37zM287 6l-124 231l202 -243zM161 70l-24 169l112 -217zM16 239l-12 45l87 20zM60 157l-31 55l69 72zM77 128l37 123l18 -166z" />
    <glyph glyph-name="D" unicode="D" horiz-adv-x="864" 
d="M660 418l-3 174l40 -37zM670 401q1 4 46 129q12 -15 28 -44zM692 394l68 69q4 -6 10 -40q-31 -11 -78 -29zM634 421q-23 87 -52 224q12 -3 47 -29zM680 376q40 9 93 23q4 -23 4 -27q-40 1 -97 4zM489 685q32 -7 65 -29l57 -239q-35 69 -122 268zM777 324l-99 26h101z
M594 397q-170 260 -197 301q24 0 59 -7l143 -294h-5zM766 271l-76 54l87 -24zM747 230l-66 33l52 -12l-43 48l65 -48zM523 446q-25 63 -64 95q-24 19 -36 20q-2 3 -11 15l-33 41q-43 54 -67 82q26 -1 55 1l211 -312q-20 20 -55 58zM359 563l-139 137q22 1 57 -1l117 -136
h-35zM535 380l-6 30l58 -62zM734 201l-53 39l27 -13l32 -12zM533 343l2 20q5 -3 53 -41q-21 7 -55 21zM716 169q-19 23 -47 59l24 -16l32 -28q-6 -9 -9 -15zM531 324l74 -40l-82 12q-3 2 5 23q0 1 3 5zM111 700l71 -1l149 -136h-41zM681 123q-9 39 -20 94l40 -65
q-9 -19 -20 -29zM517 272l-17 -23l85 14q-18 7 -68 9zM626 74q2 7 6 66q4 49 14 59l14 -99q-21 -19 -34 -26zM477 212q7 9 16 20l92 17q-42 -14 -108 -37zM2 670v27h67l206 -151v-35q-103 64 -273 159zM3 585v54l274 -154v-18zM588 53q0 1 -1 1l-2 -1q-28 -17 -70 -33
l113 151q-35 -100 -40 -118zM2 515v47l275 -120v-20q-55 15 -138 45q-128 45 -137 48zM604 172l-130 -160q-15 -5 -45 -11q135 145 185 192zM3 455l-1 37l275 -94v-14zM383 0l-45 1l255 195zM3 385v42l274 -65q0 -4 1 -10q0 -3 -1 -8zM564 190l-277 -189h-61q40 26 338 189z
M3 319v36l276 -35v-20zM590 223l-428 -223h-61q206 94 489 223zM2 246v43l279 -12v-17zM525 210l-490 -210h-32v19q314 117 522 191zM1 182l1 41l279 16v-17zM3 114v43q93 15 277 42v-10q-53 -18 -277 -75zM3 52v35l282 75h36z" />
    <glyph glyph-name="E" unicode="E" horiz-adv-x="686" 
d="M271 598l329 77l-1 -31zM253 612l251 86h96v-5zM246 575l355 46v-51zM208 616l149 82h66l-201 -77q-9 -3 -14 -5zM512 424l82 1v-18zM304 698l-89 -54q13 18 41 54h48zM444 425l150 -41v-46zM534 295l-182 127h46l196 -116l3 -14zM189 698h35l-72 -118q0 -2 2 -2v1l1 3
q1 3 4 14q12 34 30 102zM265 552l40 -2v-12zM261 528l42 -12l2 -15zM136 604l-14 94h43zM246 477l240 -186h-70zM242 508l62 -29v-18zM60 698h33l17 -93zM5 675v23l26 -1l62 -103zM234 455l148 -164h-35zM553 134l50 -1v-54zM4 599l1 38l92 -87zM302 289l2 -22l-72 154
l83 -130zM3 529v40l87 -41zM603 3l-26 1l-98 127l47 3l76 -88zM6 481v22l69 8zM4 440l1 18l87 36zM88 454l24 -8l-105 -37v7l112 70zM395 3l-58 1q0 3 -54 170.5t-65 222.5q148 -339 177 -394zM467 4l-48 -1l-63 133h25q49 -64 72 -103q7 -15 14 -29zM6 347l-1 39l104 40z
M176 1l14 366q11 -46 24 -201q13 -160 14 -165h-52zM3 237v78l113 88zM136 1h-55l93 363zM3 87v107l138 202zM49 1l-45 1l2 21l140 331zM202 376l58 -375q0 2 49 0zM415 133l84 -129l46 -3l-98 132h-32z" />
    <glyph glyph-name="F" unicode="F" horiz-adv-x="660" 
d="M579 560h-108l107 107zM444 560h-58l102 140h89zM361 562h-46l70 138h71zM183 350l104 350h70zM237 278l307 134h30l-1 -33zM251 302q57 37 170 112h80q-110 -53 -250 -112zM159 342l41 357l61 1zM348 255q152 25 226 34v-34h-226zM242 259q95 30 332 97v-40zM137 333
q2 52 -1 368h36q-6 -125 -35 -368zM238 317l103 99h42q-89 -62 -145 -99zM289 513v-50q-36 -51 -110 -154zM204 311l87 120v-15l17 1zM69 700l38 1l11 -348zM-1 700h44l56 -364zM1 484v107l79 -268zM228 234l66 15l1 -17zM224 216l71 -6v-22zM295 137l-72 55l72 -31v-24z
M1 392v41l66 -135zM225 167l69 -64l1 -52zM2 333l-1 22l58 -80zM256 -1l-35 143l70 -143h-35zM204 0l3 112l24 -112h-27zM3 238l1 27l67 -62zM3 192l1 17l61 -29zM3 149v18l89 -10zM173 0h-36l45 100zM3 104v23l107 9zM111 1l-42 -1l85 90zM3 49l-1 33l119 39
q-40 -28 -118 -72zM35 0h-32v22q42 28 128 78zM56 242l-53 44q-2 25 0 25q1 0 53 -69z" />
    <glyph glyph-name="G" unicode="G" horiz-adv-x="827" 
d="M651 533l-112 -12l112 43v-31zM650 482q-24 10 -80 23l80 5v-28zM645 669q-48 -23 -374 -186q72 43 321 202q12 0 53 -16zM317 481q-6 -7 -11 -15l-67 -23zM492 524v0h-1h1zM651 593l-76 -36q-44 -21 -77 -31l-6 -2q-19 16 -81 5l239 115zM561 693q-62 -36 -337 -221h-2
l255 232q31 -1 84 -11zM739 333q-125 10 -337 38v4l337 1v-43zM440 703q-80 -83 -256 -236q103 156 157 229q20 4 99 7zM740 309q1 -7 -1 -51l-337 85v11zM739 236q-1 -29 -1 -44q-25 10 -336 122v13zM297 686q-58 -100 -144 -227q9 19 69 199q20 16 75 28zM736 171
q-3 -23 -18 -39l-316 157v7zM705 113q-9 -11 -28 -32l-201 125q4 13 5 21l114 -54q79 -37 106 -58q3 -2 4 -2zM295 444q-2 -7 -6 -16l-74 -9q51 19 80 25zM443 248h-41v22zM187 642l-64 -231l-13 24q2 5 -1 154q34 33 78 53zM658 69l-40 -26l-161 130l9 14q30 -19 192 -118z
M282 405l-5 -21l-59 17zM272 347q-15 7 -48 31l48 -17v-14zM599 31q-23 -12 -67 -22l-134 136q27 -1 44 15zM272 311q-14 12 -41 36q28 -17 40 -23zM98 410q-33 71 -45 106q14 32 32 47zM282 262q-21 22 -55 62l46 -38zM508 3q-46 -8 -77 -10q-41 53 -226 321l83 -83
q4 -16 28 -44q27 -31 47 -36zM97 343l-87 73q13 49 26 74q23 -46 61 -147zM401 -5l-65 4q-75 168 -110 253q94 -135 175 -257zM91 320l-89 18q-4 22 4 53zM308 6q-19 -3 -74 18l-38 236q37 -84 112 -254zM86 296l-81 -11l-4 30zM208 33l-59 28l24 192zM115 279l-95 -59
l-13 42zM137 268l-79 -118l-27 43zM151 250l-28 -171q-38 30 -45 46z" />
    <glyph glyph-name="H" unicode="H" horiz-adv-x="862" 
d="M503 544v28l248 128h25l1 -38zM502 591v28l111 81h84zM502 500v22l274 115l1 -39zM502 646v54h65zM501 462l1 20l274 88v-50zM290 405l485 91v-56zM773 364l-509 18l509 34v-52zM299 359l474 -24v-44zM502 224v26l270 -74l-1 -58zM173 453l77 247h38v-45zM291 337
l482 -74v-63zM154 470l14 230h54zM502 180v20l268 -119v-42zM286 542l-93 -96l93 155v-59zM253 419l13 11l-39 -5l64 31l1 -11h93zM221 445l67 63v-26zM682 -1l-180 131v27l267 -146v-12h-87zM130 456l-44 244h52zM572 -1l-69 71v32l139 -103h-70zM289 281l-59 49l171 -49
h-112zM6 700h52l51 -255zM5 488v142l103 -261zM501 -1l1 41l40 -41h-41zM221 303l65 -47v-52zM5 382v65l88 -104zM218 263l67 -103l1 -79zM5 323v38l78 -37zM242 -1l-37 221l80 -221h-43zM5 268l-1 29l77 1zM177 252l41 -253l-50 1zM5 184l-1 65l102 37zM144 -1l-50 1
l62 227zM4 62l1 95l112 106zM70 -1l-64 1l1 17l129 231z" />
    <glyph glyph-name="I" unicode="I" horiz-adv-x="392" 
d="M187 505l57 197h60zM211 495q32 54 95 160v-56zM169 518v184h46zM203 454l103 110v-64zM109 702h33l5 -180zM216 434l90 28v-54zM101 565l3 -80l-56 217h33l49 -203zM222 409l84 -25v-37zM1 600v102h17l75 -258zM214 387q5 -3 92 -71v-68zM1 461v83l103 -177zM233 318
l73 -112v-131zM1 367v56l101 -88zM246 -1l-22 276l81 -276h-59zM1 298v42l108 -32zM151 -1q34 195 46 279l22 -279h-68zM1 222v53l115 11zM1 132v62l121 68q-39 -45 -121 -130zM118 -1h-64l4 7q5 9 108 235zM23 0l-22 -1l-1 95l144 160q-36 -81 -121 -254z" />
    <glyph glyph-name="J" unicode="J" horiz-adv-x="833" 
d="M671 484l62 213l13 1l-1 -94q-22 -33 -74 -120zM655 523v174h48zM580 697h43l8 -155zM745 515l-65 -55l65 97v-42zM481 697h66l52 -142q-37 50 -118 142zM473 610v62l115 -133zM649 403l96 80v-68zM474 558v22l73 -45zM640 380l106 11v-46zM472 521v14l89 -33l6 -5z
M470 478v20l73 -18zM626 361l120 -43v-57zM470 446v13q38 -1 61 0q-23 -7 -61 -13zM470 396v24l60 18zM715 146q-77 141 -105 197l134 -114q-3 -32 -29 -83zM469 358v14l50 31zM470 319l-1 15l46 38zM652 74q-34 146 -50 228l96 -181zM470 253v37q31 33 52 58zM562 22
l20 257q17 -75 42 -223q-23 -17 -62 -34zM535 15q-52 -16 -79 -16l89 286l18 40zM427 -7q-11 -3 -36 -2q-11 1 -32 2q110 209 175 329zM330 -6l-68 2q16 25 101 140q12 0 11 0q19 0 46 17zM231 0q-17 -1 -71 19l141 135q5 -5 16 -14q4 -2 17 -3zM51 88q-20 21 -21 23
q-13 14 -14 27q83 46 209 107l12 -22q-111 -84 -186 -135zM129 29l-30 14q-19 10 -25 21l175 132l23 -26q-61 -63 -143 -141z" />
    <glyph glyph-name="K" unicode="K" horiz-adv-x="803" 
d="M645 616l-391 -190l434 274l24 -1zM208 416l337 283h100zM233 468l199 230l73 1zM271 407l345 164l-84 -88zM487 412l14 -11l-239 -19l253 70zM156 448l42 251l66 -1zM269 544l-83 -98l83 193v-95zM226 361l285 15l34 -50zM127 445l-10 254h52zM208 346l352 -42l37 -62z
M284 289v-20l-90 55v5l412 -111l54 -78zM731 -1l-415 252l362 -148l64 -104h-11zM591 2l-226 182l-14 19l331 -201h-91zM34 699h55l12 -285zM-2 552v146l5 1l76 -301zM478 3l-75 117l154 -118zM281 205l-70 89l70 -52v-37zM78 351l-79 58l-1 88zM211 256h1l74 -94v-69z
M0 321v52l93 -71zM251 3l-42 211l77 -183v-28h-35zM0 260v32l86 -20zM172 3l10 207l37 -207h-47zM-2 184v48l91 16zM138 2h-57l68 216zM-3 69v66l109 94zM43 3l-42 -1l112 195z" />
    <glyph glyph-name="L" unicode="L" horiz-adv-x="720" 
d="M196 333l122 365h13v-77zM165 307l-2 10l107 381h26zM561 144l77 -1v-27zM154 364l60 334h31zM212 316l119 239v-73zM133 369l17 329l36 1zM637 55l-172 88h47l126 -51zM225 297l106 141v-57zM244 285l91 64v-44zM113 341l-28 358l34 -1zM384 142l37 -1l218 -114v-25h-47
l-196 133q-8 5 -12 7zM255 264l80 18v-27zM5 698h48l44 -387zM335 214l-76 30l76 -13v-17zM246 215l309 -213h-87zM263 223l72 -33v-14zM3 423v164l86 -328zM399 2l-121 157l162 -158zM316 2l-59 148l109 -148h-50zM246 1l-12 147l55 -146zM3 285l1 79l93 -158zM173 2
l42 135l3 -136zM4 200l-1 54l98 -80zM143 2h-68l104 135q10 12 22 25zM3 136v36l93 -18zM3 66v43l114 24zM47 2h-44v32l151 105z" />
    <glyph glyph-name="M" unicode="M" horiz-adv-x="1066" 
d="M559 335l259 366h45l4 -34zM894 530l11 -62l-214 -107l-3 15zM703 310l-5 25l215 102l12 -64zM687 405l-5 17l-12 -30l-108 -82l311 319l9 -60zM536 332l190 369h58zM708 266l-3 25l226 59l10 -52zM507 332l138 369h55zM716 219l-5 27l235 22l11 -54zM467 516l29 -94
l89 279h31l-142 -400zM725 169l-5 28l242 -14l13 -59zM732 126l-3 17l250 -49l13 -64zM876 1l-137 71l-4 30l265 -100v-1h-124zM656 298l-83 -29l87 46zM355 701h42l35 -109l20 -281zM651 258l-71 -8l73 26zM270 701h52l116 -421zM645 211l-69 12l72 14zM750 1l-6 43l76 -43
h-70zM640 187l-66 14l69 -1zM407 313l-229 388h56l161 -359q10 -22 12 -29zM631 145l-59 36l65 -16zM313 388q-88 108 -187 230l14 79l280 -431q-67 76 -79 87l1 1q-17 63 -24 55q-1 -2 -3 -13q-1 -6 -2 -8zM629 102l-72 63l75 -35zM621 36l-67 105l70 -64zM354 276l-8 43
l79 -87zM303 331l-200 168l14 78l191 -213zM587 0l-32 106l60 -105zM360 228l-3 19l65 -41zM528 1l6 103l29 -102q-29 -1 -35 -1zM370 180l-4 24l75 -24h-71zM295 285q-24 12 -215 116q-1 -4 13 67l206 -162zM380 148l-7 13l54 2zM380 115l-2 13l68 22zM388 66l-5 29l88 42z
M501 1h-65l80 112zM404 1h-6l-5 39l107 98l5 -5zM72 364l220 -104l-2 -14q-70 19 -233 72zM285 203l-236 40l7 43l232 -60zM279 169l-248 -9l10 55l241 -34zM277 140l-259 -49l9 48l252 13zM264 1h-79l82 40zM270 65l-129 -64h-85l215 85zM272 108l-268 -105l12 64l258 52z
M573 289q95 78 95 75t-3 -26z" />
    <glyph glyph-name="N" unicode="N" horiz-adv-x="801" 
d="M716 687l-242 -66v17l130 59l114 -1zM474 578v19l244 62v-53zM474 665v32h70zM474 540v13l246 27v-38zM473 502l1 16h246q0 -9 1 -23q1 -7 0 -20zM474 464l-1 17l248 -34v-48zM710 314l-237 104v21l247 -65v-65zM196 563l-1 4l85 106l21 -31zM239 567l72 53l13 -20z
M184 587l23 109l54 1zM242 548l94 32l17 -25zM473 361l1 28l246 -104v-68zM472 362l-2 1l-170 109l132 -57zM267 529l98 3l22 -33zM269 507l133 -35l16 -25zM154 595l-7 101h35zM296 445l421 -261v-81zM91 696h30l10 -100zM687 0l-382 408l411 -342v-66h-29zM24 696h41
l50 -121zM568 3l-286 396l368 -396h-82zM4 667v24l99 -137l15 -34zM1 564v70l106 -141zM457 3l-188 368l264 -368h-76zM257 302l-7 -65l-18 151l91 -190zM109 459l-105 22v53l105 -73v-2zM4 424v31l101 -19zM4 350v48l128 22zM246 3h-46l16 349l31 -270zM4 272v50l119 69z
M176 2h-53l74 364zM4 173v67l142 144v-4zM99 3h-67l138 329zM5 2h-1v120l136 212z" />
    <glyph glyph-name="O" unicode="O" horiz-adv-x="887" 
d="M727 572l-42 -96l1 142q5 -4 29 -32q5 -5 11.5 -5.5t6.5 -1.5q-1 -2 -6 -7zM710 462l34 87q23 -20 25 -46q-25 -21 -59 -41zM742 450q7 8 38 28q6 -5 8 -24zM613 666q12 -1 50 -25l5 -7v-141zM739 423q8 4 23 3q25 0 18 0q8 0 13 1q2 -11 4 -33q-28 7 -58 29zM523 694
l53 -12l26 -69l35 -116zM785 309q-36 51 -54 91q24 -11 33 -16q19 -11 29 -23zM618 476q-18 20 -44 56q-14 20 -61 79q10 -31 54 -112l-124 177l-19 32l61 -5l138 -246l2 3zM750 202q-11 70 -10 119l33 -54q-5 -23 -23 -65zM495 533l-139 145q-10 10 -24 30q11 2 29 2
q5 0 13 -1t13 -1l200 -276q-48 45 -92 101zM596 383q-53 29 -50 61q39 -37 61 -66zM428 567l-51 3l-143 117q10 7 29 10q11 1 34 5zM559 367q-4 5 -3 13q20 -8 53 -29q-17 6 -50 16zM555 327v12q35 -5 49 -13zM544 293v0l2 2l6 9l66 -4q-26 -6 -74 -7zM654 86l60 199l9 -124
q-16 -20 -31 -41q-19 -22 -38 -34zM328 544l-166 101q13 14 42 26l143 -108q4 -3 5 -6zM519 226q6 12 18 37q24 5 81 12q-43 -22 -99 -49zM300 511l-3 -2l-1 -2q-38 13 -100 40q-72 32 -99 42q0 6 8 14l15 15q2 3 6 8q14 -4 41 -14q33 -16 143 -85q0 -6 -10 -16zM608 53
q-49 -33 -97 -44l28 46l131 171zM269 460l-221 65q0 17 25 45l205 -86q2 -3 -9 -24zM470 6q-21 -11 -53 -10q-19 2 -55 4v1l177 149l89 71zM250 408q-29 2 -124 22q-89 18 -109 18q-2 25 20 54l219 -69zM627 253l-307 -250l-44 11q13 14 109 78q37 22 101 66l-29 -7
l-222 -124q-20 6 -37 17l18 11l250 116l167 83l-4 4zM245 347l-242 16q-4 20 7 54l235 -41q4 -4 3 -20v-7zM12 293q-9 9 -9 45l246 -16q1 -5 2 -15l1 -3zM265 251l-233 -31q-18 29 -16 47l242 12q4 -1 12 -24zM78 140q-12 14 -24 27q-16 21 -6 30l230 31q9 -4 23 -29z
M331 143q-56 -26 -163 -79q-17 11 -36 24t-30 28l212 62q4 2 7 2q9 0 21 -10q16 -13 20 -15l-1 4q-1 -1 -1.5 -2t-28.5 -14z" />
    <glyph glyph-name="P" unicode="P" horiz-adv-x="824" 
d="M468 552q-4 0 -12 8l184 110q28 -8 52 -31q-146 -54 -224 -87zM488 514q-5 7 -4 13l225 92q22 -22 23 -45q-80 -22 -244 -60zM425 577q-6 1 -51 0l151 122q54 -3 83 -15zM483 465l6 26l248 52v-39zM242 420q21 2 60 8q157 -4 170 14q89 11 266 32q0 -22 -17 -49zM332 576
q-5 -3 -35 -2v-27l-119 -95l4 8q209 217 239 239q13 -1 29 0q22 1 34 1zM179 483l-1 -1l130 217q42 1 69 -1q-29 -30 -198 -215zM262 399q137 2 444 0q-11 -18 -43 -49zM158 499l45 200h77zM564 296l-264 73l-20 9l356 -50q-17 -15 -35.5 -21t-36.5 -11zM135 527l-9 172h43z
M231 464l66 56v-18zM235 440l62 35l2 -20zM276 354l187 -54q17 -5 58 -19q-25 -5 -74 -5q-29 0 -49 1h-3l5 -2q-11 5 -124 79zM115 495l-54 204h37zM5 621v79h26l81 -281zM293 272l-50 71l117 -72zM5 488l-1 79l93 -184zM4 384v66l95 -103zM236 324l58 -99l-1 -226zM217 2
l1 277l47 -277h-48zM4 308v44l110 -35zM5 213v67l112 11zM119 1l65 273v-272zM5 75v103l129 93zM78 1h-73v20l142 220z" />
    <glyph glyph-name="Q" unicode="Q" horiz-adv-x="896" 
d="M475 537q-20 20 -60 22l190 103q20 -12 41 -24.5t34 -28.5zM526 478q-2 1 -7 11.5t-22 29.5l212 66q20 -23 53 -65zM550 427l-13 28l236 39l18 -47zM559 384q-1 6 -4 18l241 19l5 -41zM804 299l-241 25l-2 31l244 -9zM180 445l296 258q41 -6 45 -7q26 -5 44 -16
q-86 -60 -183 -119q-25 -4 -49 -18q-27 -16 -37 -36q-9 -5 -116 -62zM792 212l-237 59l5 26l241 -35zM161 455l163 244q14 7 56 9q3 0 55 -1q-16 -19 -92 -86q-62 -59 -182 -166zM536 219q-2 1 -2 3q0 3 10 22l238 -63q-1 -8 -12 -32l38 -44zM125 435l57 211q48 35 102 50
q-93 -168 -159 -261zM793 18q-117 57 -289 156q1 3 21 22q71 -22 313 -141zM256 435q-46 -12 -81 -17q32 18 94 53q-8 -16 -13 -36zM694 -50q-25 29 -78 81l-152 109l23 17l275 -161zM93 359l-26 182q26 34 34 43q22 25 40 37zM252 391l-76 5q39 12 77 15q0 -7 -1 -20z
M249 349l-60 26l59 -4zM193 350l55 -20l-1 -27zM388 128q25 -4 50 1l80 -56q58 -41 69 -57q-10 -8 -35 -12q-18 -2 -37 -5zM191 322l65 -43l-1 -29zM417 -11l-231 305q65 -61 93 -92q7 -18 30 -46q15 -8 40 -25q118 -108 135 -139q-23 -1 -67 -3zM14 415q19 60 34 88
q23 -111 25 -179zM191 253q75 -97 195 -267h-56q-44 79 -148 254q-3 8 -3 11q0 6 9 -2l9 -8q-1 3 -6 12zM8 315l4 69q26 -28 68 -87q-8 3 -38 5q-24 2 -34 13zM241 9q-21 52 -78 219q50 -87 143 -236zM11 256q-2 9 -3 34q27 -4 73 -18q-26 -6 -70 -16zM148 60l-10 171
l65 -208q-15 5 -28.5 16t-26.5 21zM82 238l-55 -35q-10 8 -13 31zM123 79q-17 12 -47 40l46 130zM64 138q-23 18 -25 43q19 19 59 51z" />
    <glyph glyph-name="R" unicode="R" horiz-adv-x="847" 
d="M621 592l54 66q18 -9 32 -26zM641 569q54 24 87 43q22 -23 26 -47zM599 596l8 95q35 -8 46 -19q-21 -39 -54 -76zM671 544l88 -3v-36zM580 608l-47 89l49 -1zM740 440l-64 80l77 -39zM460 697h36l66 -108zM703 387l-27 99q17 -20 46 -69q-11 -20 -19 -30zM671 360l-3 -4
l-5 80l16 -68zM316 696l109 1l139 -140zM488 488v13h76zM641 335l-18 -9l21 82q0 -6 -2 -37q-1 -23 -1 -36zM480 454l7 12l66 11zM83 696h166l267 -139q-279 81 -433 139zM483 526q-39 50 -124 50h-30q-20 -1 -30 -1q-23 0 -53 7q-78 17 -242 47v66l545 -174zM358 273h-28
q70 59 232 172zM388 233l-7 23l177 164q-60 -67 -170 -187zM673 5l-5 184l25 -70l13 -114h-33zM413 162l-16 44q110 122 170 189zM732 5l-6 45l19 -45h-13zM644 6l-36 -1l25 258l12 -20zM445 66l-19 57l173 280q-43 -119 -154 -337zM501 5h-28l-12 25q91 214 143 337z
M615 299l-36 -294h-47zM3 554q-1 33 0 48l274 -42l1 -23zM4 476v52l273 -11v-22q-89 -13 -273 -19zM277 457l-274 -46v39l274 21v-14zM295 273h-23l-267 -206l-1 63l531 318zM5 164l-1 64q300 137 464 201q-160 -93 -463 -265zM6 336v46l271 54v-13h21zM380 421l-374 -164
v48q81 33 163 67q126 50 205 49h6zM267 5h-47l48 50zM183 5h-75l157 144l1 -53zM57 5h-53v29l261 200q-1 -8 1.5 -24.5t2.5 -23.5z" />
    <glyph glyph-name="S" unicode="S" horiz-adv-x="844" 
d="M662 521l22 144l15 -5v-157zM633 524l-46 14l5 149l66 -13zM532 553l-25 144q10 3 26 0q21 -5 26 -5q5 -35 2 -147zM471 559l-61 146l68 -2l28 -148zM399 559l-74 146q38 -2 54 0l60 -144zM655 256q18 17 75 42q14 -20 18 -39q-23 -3 -93 -3zM637 267q18 24 61 69l18 -21
zM623 274l23 91l32 -17q-35 -51 -55 -74zM602 281l3 101l19 -7zM677 236q9 4 33 4h23h22v-40q-47 17 -78 36zM344 550q-99 116 -117 134q14 15 63 16l82 -142zM537 407l38 -12v-79zM736 144q-4 4 -38 37q-24 22 -32 40l82 -36q3 -11 -12 -41zM458 426q15 1 42 -8l55 -112
q-69 85 -97 120zM701 93q-16 22 -44 108q17 -15 51 -48q16 -16 16 -28q0 -16 -23 -30v-2zM393 426h36l97 -117zM296 511l-158 135l61 30l124 -135q-20 -17 -27 -30zM58 591l59 45l173 -152q0 -40 61 -54l161 -142q-106 75 -454 303zM626 43q2 55 19 108q4 -34 25 -83z
M19 537l22 32l448 -304zM602 32q-18 -8 -38 -16t-37 -9l90 140zM481 169q2 0 -41 -1q-20 -1 -39 2q3 9 15 33q54 -21 85 -27zM428 265l-416 204q-6 6 -4 21q2 12 4 23q273 -170 405 -242zM17 397q-8 23 -7 45q35 -15 463 -227zM498 2q-27 -5 -84 -10q43 43 157 127zM39 360
q60 -26 120 -53q87 -37 125 -44l8 -2q-50 -6 -124 18q-90 29 -129 81zM555 125q-15 -11 -29 -21q-2 -2 -148 -112q-50 4 -97 6l272 126q1 0 2 1zM239 2l-107 17l374 107zM13 83v55q55 5 180 8q66 -10 184 -3q-196 -29 -364 -60zM90 30l-78 29l446 77zM13 164v59l146 -59
h-146z" />
    <glyph glyph-name="T" unicode="T" horiz-adv-x="746" 
d="M672 617l-85 -50l85 92v-42zM555 561h-48l83 139h85q-43 -48 -120 -139zM619 561l55 26v-24zM363 367l136 333l63 -1zM351 383l55 316h65zM330 373l4 326l45 1zM386 364l92 140v-49zM396 346l82 83v-30zM254 699h53l2 -340zM407 330l71 47l1 -40zM149 556l-72 143l67 1
l52 -144h-47zM175 699h51l61 -360zM478 279l-69 31l69 -1v-30zM76 555l-74 145h47l76 -144zM397 291l81 -36v-57zM210 436l1 72l66 -200zM6 555l-1 81l48 -81h-47zM403 258l75 -95l1 -152zM211 293v95l90 -168zM395 2v200l62 -200h-62zM211 203v58l84 -64zM367 3h-52l55 164
zM211 144v38l93 -3zM211 40v74l108 49zM290 2h-82l135 156z" />
    <glyph glyph-name="U" unicode="U" horiz-adv-x="831" 
d="M472 592v12l206 91h63v-22zM473 635v6l84 54l50 2q5 0 14 -1zM472 533v32q239 70 271 85v-60q-179 -40 -271 -57zM474 671v24h33zM743 505l-272 -19v20q231 45 272 57v-58zM472 445l-1 19q245 12 272 16l1 -62zM744 338q-45 13 -274 62v21l274 -29v-54zM470 362v15
l274 -66v-53zM736 164l-267 143l1 31l273 -110q-1 -42 -7 -64zM154 562l49 134h59q-23 -23 -55 -66q-39 -52 -53 -68zM169 545l103 123v-57zM213 540l60 38l1 -19zM697 87q-91 61 -229 165v26q70 -34 263 -141q-2 -16 -34 -50zM120 553l7 142h40zM187 499l2 2l87 32v-11z
M217 481l60 15v-16zM277 447q-28 5 -48 10h48v-10zM620 31q-24 19 -154 151v42l205 -158q-7 -12 -51 -35zM48 696h45v-162zM227 434l51 -15v-20zM243 393l35 -22v-10zM4 610v86h11l58 -201q-30 53 -69 115zM277 323l-30 37l31 -27zM519 1l-101 135q18 2 34 20l136 -137
q-49 -19 -69 -18zM235 336q19 -22 42 -46v-32zM6 515v37l55 -84zM6 417v63l89 -75zM420 -4l-78 143q17 -5 43 -4q80 -109 99 -138zM357 -8q-23 0 -34 2l-101 313l166 -313q-10 -1 -31 -2zM4 347v42l97 -10zM215 16l-27 300l14 -31l89 -285q-27 2 -76 16zM4 264v53l111 40z
M34 149q-24 49 -28 80l129 108q-30 -58 -101 -188zM126 56q8 63 40 212l19 -244q-37 17 -59 32zM96 77l-43 44l91 172q-16 -81 -48 -216z" />
    <glyph glyph-name="V" unicode="V" horiz-adv-x="761" 
d="M518 455l93 243l103 1zM488 467l6 57l26 176h61zM492 390l203 249l-39 -110zM455 407l-22 196l32 96h28zM613 420l-106 -44l137 112zM595 351l-107 -3l123 42zM287 571l-74 127h47l35 -134zM399 456l18 86l22 -176zM581 297l-66 28l74 -3zM564 240l-46 59l58 -32z
M271 529l-151 169h60l111 -192zM378 397l7 27l27 -61zM545 165l-23 99l38 -56zM370 358l3 12l36 -46zM330 394l-329 304h83l241 -272l6 -32h-1zM417 289l-58 54l2 1l58 -53zM340 345l-298 193l-29 111l316 -282l13 -22h-2zM490 14l20 204l17 -95zM357 304l-282 129l-21 71
l320 -207zM97 352l-13 52l252 -108l27 -16zM465 1l-45 2l64 173zM119 276l-13 46l271 -70zM391 2h-59l123 176zM378 234l-243 -27l-10 43zM381 213l-225 -78l-12 47zM305 2h-62l190 180zM176 66l-14 43l217 76zM215 2h-21l-11 43l208 121z" />
    <glyph glyph-name="W" unicode="W" horiz-adv-x="1072" 
d="M989 632l-259 -52l2 11l269 105zM733 614l2 20l125 63l88 1zM737 658l3 40h79zM978 560l-252 -13l2 12l258 49zM963 484l-241 34l3 12l248 9zM948 413l-232 60l4 23l239 -36zM943 391l-11 -57l-219 105l2 14q98 -30 228 -62zM505 561l-6 5l101 132h6l5 -39zM488 586
l16 112h64zM534 562l83 71l4 -29zM559 553l65 31l3 -13zM578 536l51 15l2 -13zM912 231l-207 162l4 21q57 -27 115 -53q85 -41 102 -56zM564 519h70l4 -24zM470 595l-29 102q29 1 35 1zM583 493l61 -22l3 -19zM389 698l28 1l44 -136zM888 122l-191 213l4 34l204 -165z
M579 467l71 -44l8 -43zM380 622l3 41l67 -105zM373 569l3 28l72 -63zM691 312q58 -67 190 -222l-17 -83l-189 296q7 -18 11 -13q2 2 4 13q0 6 1 9zM675 303l-64 100q44 -49 52 -57v-1q3 -14 12 -42zM367 534l1 11l81 -37zM597 386l237 -383h-63l-162 354q-10 22 -12 29z
M361 500l3 13l67 -15zM184 698h70l6 -43zM356 467l3 14l90 1zM675 3l-87 351l151 -352zM351 423l3 18l92 15zM586 3l-23 100l-10 285l96 -385h-63zM344 384l4 17l66 22zM4 697v1h124l137 -71l5 -30zM26 605l-14 64l260 -96l3 -17zM42 516l-12 59l249 -45l5 -28zM537 183
l-29 94l-89 -274h-17l129 395zM59 431l-12 54l242 -5l4 -27zM379 3h-54l165 347zM73 349l-10 52l233 32l3 -25zM295 3h-62l231 352zM130 66l-14 73l202 155l4 -17l12 30l108 82zM92 262l-13 64l223 63l4 -25zM110 169l-12 65l215 106l3 -17zM199 3h-58l-5 31l331 356z
M345 360q-3 -18 0 -18t104 77z" />
    <glyph glyph-name="X" unicode="X" horiz-adv-x="769" 
d="M248 402l-142 106l-98 194zM37 701h69l133 -259zM200 700l56 -236l-125 236h69zM224 701l72 -1l-24 -228zM521 700l-207 -237l117 236zM559 700h105l-331 -251zM702 702l-59 -128l-277 -122zM306 619l17 -94l-33 -72zM630 548l-36 -77l-226 -40zM267 370l-99 21l-45 86z
M390 422l196 29l-24 -53zM392 410l173 -38l28 -63zM382 393l220 -112l47 -96zM261 355l-86 12l-27 -52zM668 148l69 -150l-353 373zM584 0h-90l-151 347q-1 1 -1 4v0q6 0 242 -351zM702 0h-87l-241 349zM365 249l-27 -69l-12 152zM232 325l-128 -117l34 84zM306 314l9 -180
l-57 -135h-9zM48 0l-36 2l70 155l177 167zM260 299l-110 -298l-81 -1zM231 0h-56l105 304z" />
    <glyph glyph-name="Y" unicode="Y" horiz-adv-x="761" 
d="M61 701l250 -431l-3 -10l-296 441h49zM156 701l203 -365l-266 365h63zM234 701l104 -305l-156 305h52zM280 701l82 -264l27 71l-15 -163l-120 356h26zM390 313l19 264l44 124zM531 701l-111 -327l56 327h55zM621 701l-200 -380l136 380h64zM646 702l73 -1l-50 -100
l-216 -257zM340 329l4 -20l-35 41l5 -52l-196 343zM548 370l-125 -94h-5l219 258zM97 541l221 -336l-12 9l-81 68zM534 335l-41 -66l-73 -12zM233 251l75 -69l-74 6zM421 237l75 6v-43zM436 208l60 -34v-90zM441 1h-52l24 176zM434 182l65 -146v-35h-37zM233 171l105 -6
l-104 -35zM367 0h-59l79 165zM342 149l-111 -102v64zM350 117l-70 -117l-49 1v14l119 115v-13z" />
    <glyph glyph-name="Z" unicode="Z" horiz-adv-x="795" 
d="M109 701l112 -150h-34l-170 150h92zM189 701l79 -150h-24l-110 150h55zM269 701l39 -147h-23l-75 147h59zM348 704l9 -277l-64 273zM377 701h66l-69 -230zM469 700l-69 -203l170 204zM426 497l242 135l38 69h-104zM161 548h-26l-115 64l-1 63zM20 589l77 -41h-77v41z
M647 582l-54 -85l-151 -10zM581 477l-145 -4l117 -34zM291 494l43 -93l-52 67zM446 450l100 -30l-33 -53zM270 450l52 -57l-70 32zM244 407l84 -33l-108 -9zM432 370l13 -121l-51 -70zM342 362l-175 -78l43 63zM72 145l76 114l190 87zM353 332l-326 -331h-31l57 101z
M365 321l-220 -319l-77 -1zM386 318l-142 -316l-77 -3zM408 332l-83 -331l-60 -2zM423 156l-8 -155l-63 1l34 154h37zM481 156l23 -155l-65 -2l3 157h39zM501 156h30l45 -155h-46zM588 156l74 -155h-57l-55 155h38zM605 159l100 -98l1 -57h-20zM705 158l1 -62l-75 61z
M464 277l-26 122l43 -96zM492 329l9 23l-66 81zM299 508l12 26q29 -121 29 -115q0 5 -41 89z" />
    <glyph glyph-name="bracketleft" unicode="[" horiz-adv-x="315" 
d="M230 652h-43l40 80h3v-80zM150 652l24 80h24l-37 -80h-11zM149 645v-24l-26 -61zM97 536l26 198h28zM86 555v179h20zM56 734h16l1 -172zM55 570h-5l1 -48l-25 212h14l21 -195zM151 529l-45 -57l45 105v-48zM3 622v112h6l35 -264zM104 442l44 48v-43zM112 425h38v-14z
M109 414l39 -26v-38zM3 470v82l47 -175zM115 369q11 -24 36 -66v-56zM3 368v57l47 -90zM3 294v44l52 -34zM151 125l-28 166l28 -97v-69zM3 213v55l55 13zM124 -32l-9 275l36 -275h-27zM206 53q2 0 33 2h-5v-1v-90h3v5q-13 36 -31 84zM77 -32l21 279l10 -279h-31zM3 117v64
l56 69q-17 -46 -56 -133zM183 52l33 -84h-39l-14 83zM59 -32h-30q15 59 51 241zM57 175q-9 -40 -45 -207h-9l1 105l65 161z" />
    <glyph glyph-name="backslash" unicode="\" horiz-adv-x="9" 
 />
    <glyph glyph-name="bracketright" unicode="]" horiz-adv-x="315" 
d="M238 76l-65 161l12 -59q8 -40 45 -206l9 -1zM162 212l21 -241h30q-15 59 -51 241zM59 55l-33 -83h39l13 83h-19zM183 253q17 -45 56 -133v64zM143 250l-10 -279h32zM5 -28l-2 -2v88h5q10 0 35 3q-18 -47 -38 -93v4zM91 -29h26l10 275zM184 284l55 -68v56zM90 197l1 -69
l28 167zM187 307l52 -10v44zM192 338l47 33v57zM127 372q-12 -23 -36 -66l-1 -55zM192 381l47 92v83zM94 391v-37l38 63zM92 428v-14l37 14h-37zM94 493v-42l43 -5zM233 737l-35 -264l41 152v112h-6zM90 581l1 -49l45 -57zM202 737l-22 -195l7 31h5l-1 -48l25 212h-14z
M170 737l-1 -172l16 172h-15zM156 737h-21l21 -179v179zM119 737h-28l53 -198zM70 737h-31l40 -84l12 -1l-1 -28l44 -104zM16 737h-7v-85l50 1z" />
    <glyph glyph-name="asciicircum" unicode="^" horiz-adv-x="559" 
d="M225 864l-173 -101l9 -33l162 63l165 -63l10 30z" />
    <glyph glyph-name="underscore" unicode="_" horiz-adv-x="680" 
d="M2 -86h680v-60h-680v60z" />
    <glyph glyph-name="grave" unicode="`" 
d="M567 768l-224 76q-2 0 -23 -85q236 -25 236 -27t11 36z" />
    <glyph glyph-name="a" unicode="a" 
d="M659 312l-19 387h16l26 -97zM681 338l18 215l18 -67zM559 699q19 -1 55 1l28 -365zM685 306l46 139l12 -44zM697 286l56 85l10 -29zM471 700l61 -1l103 -408zM716 268l55 50l9 -25zM728 242l60 29l4 -20zM717 217l84 10l8 -27zM376 699h64l173 -419zM734 186l83 -15
l15 -51zM284 698l57 1l271 -460zM415 446l-177 200l15 45l168 -226zM725 162l118 -70l12 -46zM827 0l-107 136l150 -135zM538 254l-3 6l-34 99l122 -178zM400 402l-188 172l15 47l180 -200zM755 1l-32 106l71 -107zM704 1l12 79l14 -79h-26zM382 364l-195 150l16 38
l186 -169zM402 258l90 -1l121 -89zM674 1h-32l52 89zM589 54l-7 18l66 12zM370 326l-208 123l18 40l195 -148zM611 2l-13 32l76 47zM109 301l19 52l422 -178zM354 280l-217 97l17 41l209 -115zM625 142l-540 92l16 45zM64 172l13 40l527 -87zM573 91l-10 16l-523 -2l17 46
l599 -49zM277 72l-253 -17l10 31l251 2zM247 1h-92l101 18zM261 33l-196 -32h-63l15 29l252 20z" />
    <glyph glyph-name="b" unicode="b" horiz-adv-x="847" 
d="M271 619l302 72q31 -5 93 -38q-252 -21 -395 -34zM275 599l418 24l27 -45q-130 0 -445 21zM645 419l-166 64l-7 29l229 -47q-5 -21 -56 -46zM248 635l147 65q34 3 105 0q-29 -9 -252 -65zM714 487q-37 8 -254 44q-29 31 -108 30.5t-104 17.5h-2q11 0 104 -6
q187 -12 375 -24q6 -35 -11 -62zM745 295q-15 7 -284 144l13 24l143 -54q5 -15 34 -25q35 -13 43 -20q17 -17 35 -34q20 -20 26 -39zM222 649q32 23 61 51h54q-38 -18 -115 -51zM427 419q-1 1 9 2.5t11 3.5q105 -57 314 -167q6 -9 0 -50zM174 639q17 23 38 61h38
q-47 -39 -76 -61zM745 147q-4 -6 -12 -16q-114 87 -364 286h30l357 -243q-3 -13 -11 -27zM234 559q12 -1 59 -11l-1 -18q-20 9 -58 29zM125 594q0 32 11 106h44zM256 522q6 -2 35 -10q2 -10 0 -20zM345 416q75 -60 185 -155q179 -156 182 -159q-3 -17 -38 -40zM232 510
q10 -9 57 -39v-34q-26 31 -57 73zM393 288l-82 121q72 -61 114 -121h-32zM101 582l-43 118h47q4 -78 -4 -118zM595 15l-116 157q16 18 19 41l151 -169q-17 -12 -54 -29zM337 289l-88 158q40 -52 111 -158h-23zM6 633v67h23l46 -131zM313 291l-14 2l-2 -20l-71 172zM79 539
q-1 -3 -3 -7q-69 31 -70 31q-5 0 0 40q69 -57 74 -57q1 0 -1 -7zM505 0l-94 157q7 4 33 3q7 -1 11 0l108 -153q-26 -10 -58 -7zM6 505v32l73 -23l1 -2q-25 0 -74 -7zM324 0l-103 409l71 -184l1 -68q11 -2 25 -1q19 -52 60 -156h-54zM6 453v29q41 9 67 10zM413 0l-72 160
q13 0 39 1l89 -161h-56zM6 379l2 51q46 29 77 44zM233 0l-48 330l38 -142l5 1q-8 63 -25 190l94 -379h-64zM5 279v57l88 123l2 -2q-71 -138 -90 -178zM214 0h-54l2 360q44 -322 52 -360zM8 107q-1 24 0 63q2 56 2 63l88 183zM133 0l-47 1l48 342zM58 0l-54 1l115 407z" />
    <glyph glyph-name="c" unicode="c" horiz-adv-x="764" 
d="M530 552l146 53v-38zM592 540l84 3v-52q-34 30 -84 49zM244 459l393 211l39 -16v-23zM242 478l302 221l61 -17zM205 477l235 232l68 -7zM184 480l157 219l65 7zM638 181l38 28v-39zM174 499l67 170l65 21zM580 149q26 4 38 15l56 -16l2 -27zM336 476q-9 -8 -23 -27
l-81 -8zM135 458l10 145l63 49zM506 153l168 -58v-34zM284 408l-55 9l67 14q-12 -12 -12 -23zM274 342l-64 57l68 -16q-7 -20 -4 -41zM216 318l18 11l-20 39l57 -48zM111 400l-37 136l42 47zM605 19l-378 248q91 -41 216 -109q106 -59 212 -117zM209 294l75 6q6 -22 43 -57z
M514 -5l-285 238l348 -224zM25 466l27 45l41 -129zM406 -11l-212 244l284 -244h-72zM2 392l14 44l76 -86zM1 314l-1 50l90 -37zM287 6l-124 231l202 -243zM161 70l-24 169l112 -217zM16 239l-12 45l87 20zM60 157l-31 55l69 72zM77 128l37 123l18 -166z" />
    <glyph glyph-name="d" unicode="d" horiz-adv-x="864" 
d="M660 418l-3 174l40 -37zM670 401q1 4 46 129q12 -15 28 -44zM692 394l68 69q4 -6 10 -40q-31 -11 -78 -29zM634 421q-23 87 -52 224q12 -3 47 -29zM680 376q40 9 93 23q4 -23 4 -27q-40 1 -97 4zM489 685q32 -7 65 -29l57 -239q-35 69 -122 268zM777 324l-99 26h101z
M594 397q-170 260 -197 301q24 0 59 -7l143 -294h-5zM766 271l-76 54l87 -24zM747 230l-66 33l52 -12l-43 48l65 -48zM523 446q-25 63 -64 95q-24 19 -36 20q-2 3 -11 15l-33 41q-43 54 -67 82q26 -1 55 1l211 -312q-20 20 -55 58zM359 563l-139 137q22 1 57 -1l117 -136
h-35zM535 380l-6 30l58 -62zM734 201l-53 39l27 -13l32 -12zM533 343l2 20q5 -3 53 -41q-21 7 -55 21zM716 169q-19 23 -47 59l24 -16l32 -28q-6 -9 -9 -15zM531 324l74 -40l-82 12q-3 2 5 23q0 1 3 5zM111 700l71 -1l149 -136h-41zM681 123q-9 39 -20 94l40 -65
q-9 -19 -20 -29zM517 272l-17 -23l85 14q-18 7 -68 9zM626 74q2 7 6 66q4 49 14 59l14 -99q-21 -19 -34 -26zM477 212q7 9 16 20l92 17q-42 -14 -108 -37zM2 670v27h67l206 -151v-35q-103 64 -273 159zM3 585v54l274 -154v-18zM588 53q0 1 -1 1l-2 -1q-28 -17 -70 -33
l113 151q-35 -100 -40 -118zM2 515v47l275 -120v-20q-55 15 -138 45q-128 45 -137 48zM604 172l-130 -160q-15 -5 -45 -11q135 145 185 192zM3 455l-1 37l275 -94v-14zM383 0l-45 1l255 195zM3 385v42l274 -65q0 -4 1 -10q0 -3 -1 -8zM564 190l-277 -189h-61q40 26 338 189z
M3 319v36l276 -35v-20zM590 223l-428 -223h-61q206 94 489 223zM2 246v43l279 -12v-17zM525 210l-490 -210h-32v19q314 117 522 191zM1 182l1 41l279 16v-17zM3 114v43q93 15 277 42v-10q-53 -18 -277 -75zM3 52v35l282 75h36z" />
    <glyph glyph-name="e" unicode="e" horiz-adv-x="686" 
d="M271 598l329 77l-1 -31zM253 612l251 86h96v-5zM246 575l355 46v-51zM208 616l149 82h66l-201 -77q-9 -3 -14 -5zM512 424l82 1v-18zM304 698l-89 -54q13 18 41 54h48zM444 425l150 -41v-46zM534 295l-182 127h46l196 -116l3 -14zM189 698h35l-72 -118q0 -2 2 -2v1l1 3
q1 3 4 14q12 34 30 102zM265 552l40 -2v-12zM261 528l42 -12l2 -15zM136 604l-14 94h43zM246 477l240 -186h-70zM242 508l62 -29v-18zM60 698h33l17 -93zM5 675v23l26 -1l62 -103zM234 455l148 -164h-35zM553 134l50 -1v-54zM4 599l1 38l92 -87zM302 289l2 -22l-72 154
l83 -130zM3 529v40l87 -41zM603 3l-26 1l-98 127l47 3l76 -88zM6 481v22l69 8zM4 440l1 18l87 36zM88 454l24 -8l-105 -37v7l112 70zM395 3l-58 1q0 3 -54 170.5t-65 222.5q148 -339 177 -394zM467 4l-48 -1l-63 133h25q49 -64 72 -103q7 -15 14 -29zM6 347l-1 39l104 40z
M176 1l14 366q11 -46 24 -201q13 -160 14 -165h-52zM3 237v78l113 88zM136 1h-55l93 363zM3 87v107l138 202zM49 1l-45 1l2 21l140 331zM202 376l58 -375q0 2 49 0zM415 133l84 -129l46 -3l-98 132h-32z" />
    <glyph glyph-name="f" unicode="f" horiz-adv-x="660" 
d="M579 560h-108l107 107zM444 560h-58l102 140h89zM361 562h-46l70 138h71zM183 350l104 350h70zM237 278l307 134h30l-1 -33zM251 302q57 37 170 112h80q-110 -53 -250 -112zM159 342l41 357l61 1zM348 255q152 25 226 34v-34h-226zM242 259q95 30 332 97v-40zM137 333
q2 52 -1 368h36q-6 -125 -35 -368zM238 317l103 99h42q-89 -62 -145 -99zM289 513v-50q-36 -51 -110 -154zM204 311l87 120v-15l17 1zM69 700l38 1l11 -348zM-1 700h44l56 -364zM1 484v107l79 -268zM228 234l66 15l1 -17zM224 216l71 -6v-22zM295 137l-72 55l72 -31v-24z
M1 392v41l66 -135zM225 167l69 -64l1 -52zM2 333l-1 22l58 -80zM256 -1l-35 143l70 -143h-35zM204 0l3 112l24 -112h-27zM3 238l1 27l67 -62zM3 192l1 17l61 -29zM3 149v18l89 -10zM173 0h-36l45 100zM3 104v23l107 9zM111 1l-42 -1l85 90zM3 49l-1 33l119 39
q-40 -28 -118 -72zM35 0h-32v22q42 28 128 78zM56 242l-53 44q-2 25 0 25q1 0 53 -69z" />
    <glyph glyph-name="g" unicode="g" horiz-adv-x="827" 
d="M651 533l-112 -12l112 43v-31zM650 482q-24 10 -80 23l80 5v-28zM645 669q-48 -23 -374 -186q72 43 321 202q12 0 53 -16zM317 481q-6 -7 -11 -15l-67 -23zM492 524v0h-1h1zM651 593q-52 -26 -159 -69q-19 16 -75 6l233 114zM561 693q-62 -36 -337 -221h-2l255 232
q31 -1 84 -11zM739 333q-125 10 -337 38v4l337 1v-43zM440 703q-80 -83 -256 -236q103 156 157 229q20 4 99 7zM740 309q1 -7 -1 -51l-337 85v11zM739 236q-1 -29 -1 -44q-25 10 -336 122v13zM297 686q-58 -100 -144 -227q9 19 69 199q20 16 75 28zM736 171q-3 -23 -18 -39
l-316 157v7zM705 113q-9 -11 -28 -32l-201 125q4 13 5 21l114 -54q79 -37 106 -58q3 -2 4 -2zM295 444q-2 -7 -6 -16l-74 -9q51 19 80 25zM443 248h-41v22zM187 642l-64 -231l-13 24q2 5 -1 154q34 33 78 53zM658 69l-40 -26l-161 130l9 14q30 -19 192 -118zM282 405l-5 -21
l-59 17zM272 347q-15 7 -48 31l48 -17v-14zM599 31q-23 -12 -67 -22l-134 136q27 -1 44 15zM272 311q-14 12 -41 36q28 -17 40 -23zM98 410q-33 71 -45 106q14 32 32 47zM282 262q-21 22 -55 62l46 -38zM508 3q-46 -8 -77 -10q-41 53 -226 321l83 -83q4 -16 28 -44
q27 -31 47 -36zM97 343l-87 73q13 49 26 74q23 -46 61 -147zM401 -5l-65 4q-75 168 -110 253q94 -135 175 -257zM91 320l-89 18q-4 22 4 53zM308 6q-19 -3 -74 18l-38 236q37 -84 112 -254zM86 296l-81 -11l-4 30zM208 33l-59 28l24 192zM115 279l-95 -59l-13 42zM137 268
l-79 -118l-27 43zM151 250l-28 -171q-38 30 -45 46z" />
    <glyph glyph-name="h" unicode="h" horiz-adv-x="862" 
d="M503 544v28l248 128h25l1 -38zM502 591v28l111 81h84zM502 500v22l274 115l1 -39zM502 646v54h65zM501 462l1 20l274 88v-50zM290 405l485 91v-56zM773 364l-509 18l509 34v-52zM299 359l474 -24v-44zM502 224v26l270 -74l-1 -58zM173 453l77 247h38v-45zM291 337
l482 -74v-63zM154 470l14 230h54zM502 180v20l268 -119v-42zM286 542l-93 -96l93 155v-59zM253 419l13 11l-39 -5l64 31l1 -11h93zM221 445l67 63v-26zM682 -1l-180 131v27l267 -146v-12h-87zM130 456l-44 244h52zM572 -1l-69 71v32l139 -103h-70zM289 281l-59 49l171 -49
h-112zM6 700h52l51 -255zM5 488v142l103 -261zM501 -1l1 41l40 -41h-41zM221 303l65 -47v-52zM5 382v65l88 -104zM218 263l67 -103l1 -79zM5 323v38l78 -37zM242 -1l-37 221l80 -221h-43zM5 268l-1 29l77 1zM177 252l41 -253l-50 1zM5 184l-1 65l102 37zM144 -1l-50 1
l62 227zM4 62l1 95l112 106zM70 -1l-64 1l1 17l129 231z" />
    <glyph glyph-name="i" unicode="i" horiz-adv-x="392" 
d="M187 505l57 197h60zM211 495q32 54 95 160v-56zM169 518v184h46zM203 454l103 110v-64zM109 702h33l5 -180zM216 434l90 28v-54zM101 565l3 -80l-56 217h33l49 -203zM222 409l84 -25v-37zM1 600v102h17l75 -258zM214 387q5 -3 92 -71v-68zM1 461v83l103 -177zM233 318
l73 -112v-131zM1 367v56l101 -88zM246 -1l-22 276l81 -276h-59zM1 298v42l108 -32zM151 -1q34 195 46 279l22 -279h-68zM1 222v53l115 11zM1 132v62l121 68q-39 -45 -121 -130zM118 -1h-64l4 7q5 9 108 235zM23 0l-22 -1l-1 95l144 160q-36 -81 -121 -254z" />
    <glyph glyph-name="j" unicode="j" horiz-adv-x="833" 
d="M671 484l62 213l13 1l-1 -94q-22 -33 -74 -120zM655 523v174h48zM580 697h43l8 -155zM745 515l-65 -55l65 97v-42zM481 697h66l52 -142q-37 50 -118 142zM473 610v62l115 -133zM649 403l96 80v-68zM474 558v22l73 -45zM640 380l106 11v-46zM472 521v14l89 -33l6 -5z
M470 478v20l73 -18zM626 361l120 -43v-57zM470 446v13q38 -1 61 0q-23 -7 -61 -13zM470 396v24l60 18zM715 146q-77 141 -105 197l134 -114q-3 -32 -29 -83zM469 358v14l50 31zM470 319l-1 15l46 38zM652 74q-34 146 -50 228l96 -181zM470 253v37q31 33 52 58zM562 22
l20 257q17 -75 42 -223q-23 -17 -62 -34zM535 15q-52 -16 -79 -16l89 286l18 40zM427 -7q-11 -3 -36 -2q-11 1 -32 2q110 209 175 329zM330 -6l-68 2q16 25 101 140q12 0 11 0q19 0 46 17zM231 0q-17 -1 -71 19l141 135q5 -5 16 -14q4 -2 17 -3zM51 88q-20 21 -21 23
q-13 14 -14 27q83 46 209 107l12 -22q-111 -84 -186 -135zM129 29l-30 14q-19 10 -25 21l175 132l23 -26q-61 -63 -143 -141z" />
    <glyph glyph-name="k" unicode="k" horiz-adv-x="803" 
d="M645 616l-391 -190l434 274l24 -1zM208 416l337 283h100zM233 468l199 230l73 1zM271 407l345 164l-84 -88zM487 412l14 -11l-239 -19l253 70zM156 448l42 251l66 -1zM269 544l-83 -98l83 193v-95zM226 361l285 15l34 -50zM127 445l-10 254h52zM208 346l352 -42l37 -62z
M284 289v-20l-90 55v5l412 -111l54 -78zM731 -1l-415 252l362 -148l64 -104h-11zM591 2l-226 182l-14 19l331 -201h-91zM34 699h55l12 -285zM-2 552v146l5 1l76 -301zM478 3l-75 117l154 -118zM281 205l-70 89l70 -52v-37zM78 351l-79 58l-1 88zM211 256h1l74 -94v-69z
M0 321v52l93 -71zM251 3l-42 211l77 -183v-28h-35zM0 260v32l86 -20zM172 3l10 207l37 -207h-47zM-2 184v48l91 16zM138 2h-57l68 216zM-3 69v66l109 94zM43 3l-42 -1l112 195z" />
    <glyph glyph-name="l" unicode="l" horiz-adv-x="727" 
d="M203 333l123 365h12v-77zM172 307l-2 10l107 381h26zM568 144l77 -1v-27zM161 364l60 334h31zM220 316l118 239v-73zM141 369l16 329l36 1zM645 55l-173 88h47l126 -51v-37zM232 297l106 141v-57zM252 285l90 64v-44zM120 341l-28 358l34 -1zM391 142l37 -1l218 -114v-25
h-47l-196 133q-8 5 -12 7zM262 264l80 18v-27zM12 698h48l44 -387zM342 214l-76 30l76 -13v-17zM253 215l309 -213h-87zM270 223l72 -33v-14zM10 423v164l86 -328zM406 2l-121 157l162 -158zM323 2l-59 148l109 -148h-50zM253 1l-12 147l55 -146zM10 285l1 79l93 -158z
M181 2l41 135l3 -136zM11 200l-1 54l98 -80zM150 2h-67l103 135q10 12 22 25zM10 136v36l93 -18zM10 66v43l114 24zM54 2h-44v32l151 105z" />
    <glyph glyph-name="m" unicode="m" horiz-adv-x="1066" 
d="M559 335l259 366h45l4 -34zM894 530l11 -62l-214 -107l-3 15zM703 310l-5 25l215 102l12 -64zM687 405l-5 17l-12 -30l-108 -82l311 319l9 -60zM536 332l190 369h58zM708 266l-3 25l226 59l10 -52zM507 332l138 369h55zM716 219l-5 27l235 22l11 -54zM467 516l29 -94
l89 279h31l-142 -400zM725 169l-5 28l242 -14l13 -59zM732 126l-3 17l250 -49l13 -64zM876 1l-137 71l-4 30l265 -100v-1h-124zM656 298l-83 -29l87 46zM355 701h42l35 -109l20 -281zM651 258l-71 -8l73 26zM270 701h52l116 -421zM645 211l-69 12l72 14zM750 1l-6 43l76 -43
h-70zM640 187l-66 14l69 -1zM407 313l-229 388h56l161 -359q10 -22 12 -29zM631 145l-59 36l65 -16zM313 388q-88 108 -187 230l14 79l280 -431q-67 76 -79 87l1 1q-17 63 -24 55q-1 -2 -3 -13q-1 -6 -2 -8zM629 102l-72 63l75 -35zM621 36l-67 105l70 -64zM354 276l-8 43
l79 -87zM303 331l-200 168l14 78l191 -213zM587 0l-32 106l60 -105zM360 228l-3 19l65 -41zM528 1l6 103l29 -102q-29 -1 -35 -1zM370 180l-4 24l75 -24h-71zM295 285q-24 12 -215 116q-1 -4 13 67l206 -162zM380 148l-7 13l54 2zM380 115l-2 13l68 22zM388 66l-5 29l88 42z
M501 1h-65l80 112zM404 1h-6l-5 39l107 98l5 -5zM72 364l220 -104l-2 -14q-70 19 -233 72zM285 203l-236 40l7 43l232 -60zM279 169l-248 -9l10 55l241 -34zM277 140l-259 -49l9 48l252 13zM264 1h-79l82 40zM270 65l-129 -64h-85l215 85zM272 108l-268 -105l12 64l258 52z
M573 289q95 78 95 75t-3 -26z" />
    <glyph glyph-name="n" unicode="n" horiz-adv-x="801" 
d="M716 687l-242 -66v17l130 59l114 -1zM474 578v19l244 62v-53zM474 665v32h70zM474 540v13l246 27v-38zM473 502l1 16h246q0 -9 1 -23q1 -7 0 -20zM474 464l-1 17l248 -34v-48zM710 314l-237 104v21l247 -65v-65zM196 563l-1 4l85 106l21 -31zM239 567l72 53l13 -20z
M184 587l23 109l54 1zM242 548l94 32l17 -25zM473 361l1 28l246 -104v-68zM472 362l-2 1l-170 109l132 -57zM267 529l98 3l22 -33zM269 507l133 -35l16 -25zM154 595l-7 101h35zM296 445l421 -261v-81zM91 696h30l10 -100zM687 0l-382 408l411 -342v-66h-29zM24 696h41
l50 -121zM568 3l-286 396l368 -396h-82zM4 667v24l99 -137l15 -34zM1 564v70l106 -141zM457 3l-188 368l264 -368h-76zM257 302l-7 -65l-18 151l91 -190zM109 459l-105 22v53l105 -73v-2zM4 424v31l101 -19zM4 350v48l128 22zM246 3h-46l16 349l31 -270zM4 272v50l119 69z
M176 2h-53l74 364zM4 173v67l142 144v-4zM99 3h-67l138 329zM5 2h-1v120l136 212z" />
    <glyph glyph-name="o" unicode="o" horiz-adv-x="887" 
d="M727 572l-42 -96l1 142q5 -4 29 -32q5 -5 11.5 -5.5t6.5 -1.5q-1 -2 -6 -7zM710 462l34 87q23 -20 25 -46q-25 -21 -59 -41zM742 450q7 8 38 28q6 -5 8 -24zM613 666q12 -1 50 -25l5 -7v-141zM739 423q8 4 23 3q25 0 18 0q8 0 13 1q2 -11 4 -33q-28 7 -58 29zM523 694
l53 -12l26 -69l35 -116zM785 309q-36 51 -54 91q24 -11 33 -16q19 -11 29 -23zM618 476q-18 20 -44 56q-14 20 -61 79q10 -31 54 -112l-124 177l-19 32l61 -5l138 -246l2 3zM750 202q-11 70 -10 119l33 -54q-5 -23 -23 -65zM495 533l-139 145q-10 10 -24 30q11 2 29 2
q5 0 13 -1t13 -1l200 -276q-48 45 -92 101zM596 383q-53 29 -50 61q39 -37 61 -66zM428 567l-51 3l-143 117q10 7 29 10q11 1 34 5zM559 367q-4 5 -3 13q20 -8 53 -29q-17 6 -50 16zM555 327v12q35 -5 49 -13zM544 293v0l2 2l6 9l66 -4q-26 -6 -74 -7zM654 86l60 199l9 -124
q-16 -20 -31 -41q-19 -22 -38 -34zM328 544l-166 101q13 14 42 26l143 -108q4 -3 5 -6zM519 226q6 12 18 37q24 5 81 12q-43 -22 -99 -49zM300 511l-3 -2l-1 -2q-38 13 -100 40q-72 32 -99 42q0 6 8 14l15 15q2 3 6 8q14 -4 41 -14q33 -16 143 -85q0 -6 -10 -16zM608 53
q-49 -33 -97 -44l28 46l131 171zM269 460l-221 65q0 17 25 45l205 -86q2 -3 -9 -24zM470 6q-21 -11 -53 -10q-19 2 -55 4v1l177 149l89 71zM250 408q-29 2 -124 22q-89 18 -109 18q-2 25 20 54l219 -69zM627 253l-307 -250l-44 11q13 14 109 78q37 22 101 66l-29 -7
l-222 -124q-20 6 -37 17l18 11l250 116l167 83l-4 4zM245 347l-242 16q-4 20 7 54l235 -41q4 -4 3 -20v-7zM12 293q-9 9 -9 45l246 -16q1 -5 2 -15l1 -3zM265 251l-233 -31q-18 29 -16 47l242 12q4 -1 12 -24zM78 140q-12 14 -24 27q-16 21 -6 30l230 31q9 -4 23 -29z
M331 143q-56 -26 -163 -79q-17 11 -36 24t-30 28l212 62q4 2 7 2q9 0 21 -10q16 -13 20 -15l-1 4q-1 -1 -1.5 -2t-28.5 -14z" />
    <glyph glyph-name="p" unicode="p" horiz-adv-x="824" 
d="M468 552q-4 0 -12 8l184 110q28 -8 52 -31q-146 -54 -224 -87zM488 514q-5 7 -4 13l225 92q22 -22 23 -45q-80 -22 -244 -60zM425 577q-6 1 -51 0l151 122q54 -3 83 -15zM483 465l6 26l248 52v-39zM242 420q21 2 60 8q157 -4 170 14q89 11 266 32q0 -22 -17 -49zM332 576
q-5 -3 -35 -2v-27l-119 -95l4 8q209 217 239 239q13 -1 29 0q22 1 34 1zM179 483l-1 -1l130 217q42 1 69 -1q-29 -30 -198 -215zM262 399q137 2 444 0q-11 -18 -43 -49zM158 499l45 200h77zM564 296l-264 73l-20 9l356 -50q-17 -15 -35.5 -21t-36.5 -11zM135 527l-9 172h43z
M231 464l66 56v-18zM235 440l62 35l2 -20zM276 354l187 -54q17 -5 58 -19q-25 -5 -74 -5q-29 0 -49 1h-3l5 -2q-11 5 -124 79zM115 495l-54 204h37zM5 621v79h26l81 -281zM293 272l-50 71l117 -72zM5 488l-1 79l93 -184zM4 384v66l95 -103zM236 324l58 -99l-1 -226zM217 2
l1 277l47 -277h-48zM4 308v44l110 -35zM5 213v67l112 11zM119 1l65 273v-272zM5 75v103l129 93zM78 1h-73v20l142 220z" />
    <glyph glyph-name="q" unicode="q" horiz-adv-x="896" 
d="M475 537q-20 20 -60 22l190 103q20 -12 41 -24.5t34 -28.5zM526 478q-2 1 -7 11.5t-22 29.5l212 66q20 -23 53 -65zM550 427l-13 28l236 39l18 -47zM559 384q-1 6 -4 18l241 19l5 -41zM804 299l-241 25l-2 31l244 -9zM180 445l296 258q41 -6 45 -7q26 -5 44 -16
q-86 -60 -183 -119q-25 -4 -49 -18q-27 -16 -37 -36q-9 -5 -116 -62zM792 212l-237 59l5 26l241 -35zM161 455l163 244q14 7 56 9q3 0 55 -1q-16 -19 -92 -86q-62 -59 -182 -166zM536 219q-2 1 -2 3q0 3 10 22l238 -63q-1 -8 -12 -32l38 -44zM125 435l57 211q48 35 102 50
q-93 -168 -159 -261zM793 18q-117 57 -289 156q1 3 21 22q71 -22 313 -141zM256 435q-46 -12 -81 -17q32 18 94 53q-8 -16 -13 -36zM694 -50q-25 29 -78 81l-152 109l23 17l275 -161zM93 359l-26 182q26 34 34 43q22 25 40 37zM252 391l-76 5q39 12 77 15q0 -7 -1 -20z
M249 349l-60 26l59 -4zM193 350l55 -20l-1 -27zM388 128q25 -4 50 1l80 -56q58 -41 69 -57q-10 -8 -35 -12q-18 -2 -37 -5zM191 322l65 -43l-1 -29zM417 -11l-231 305q65 -61 93 -92q7 -18 30 -46q15 -8 40 -25q118 -108 135 -139q-23 -1 -67 -3zM14 415q19 60 34 88
q23 -111 25 -179zM191 253q75 -97 195 -267h-56q-44 79 -148 254q-3 8 -3 11q0 6 9 -2l9 -8q-1 3 -6 12zM8 315l4 69q26 -28 68 -87q-8 3 -38 5q-24 2 -34 13zM241 9q-21 52 -78 219q50 -87 143 -236zM11 256q-2 9 -3 34q27 -4 73 -18q-26 -6 -70 -16zM148 60l-10 171
l65 -208q-15 5 -28.5 16t-26.5 21zM82 238l-55 -35q-10 8 -13 31zM123 79q-17 12 -47 40l46 130zM64 138q-23 18 -25 43q19 19 59 51z" />
    <glyph glyph-name="r" unicode="r" horiz-adv-x="847" 
d="M621 592l54 66q18 -9 32 -26zM641 569q54 24 87 43q22 -23 26 -47zM599 596l8 95q35 -8 46 -19q-21 -39 -54 -76zM671 544l88 -3v-36zM580 608l-47 89l49 -1zM740 440l-64 80l77 -39zM460 697h36l66 -108zM703 387l-27 99q17 -20 46 -69q-11 -20 -19 -30zM671 360l-3 -4
l-5 80l16 -68zM316 696l109 1l139 -140zM488 488v13h76zM641 335l-18 -9l21 82q0 -6 -2 -37q-1 -23 -1 -36zM480 454l7 12l66 11zM83 696h166l267 -139q-279 81 -433 139zM483 526q-39 50 -124 50h-30q-20 -1 -30 -1q-23 0 -53 7q-78 17 -242 47v66l545 -174zM358 273h-28
q70 59 232 172zM388 233l-7 23l177 164q-60 -67 -170 -187zM673 5l-5 184l25 -70l13 -114h-33zM413 162l-16 44q110 122 170 189zM732 5l-6 45l19 -45h-13zM644 6l-36 -1l25 258l12 -20zM445 66l-19 57l173 280q-43 -119 -154 -337zM501 5h-28l-12 25q91 214 143 337z
M615 299l-36 -294h-47zM3 554q-1 33 0 48l274 -42l1 -23zM4 476v52l273 -11v-22q-89 -13 -273 -19zM277 457l-274 -46v39l274 21v-14zM295 273h-23l-267 -206l-1 63l531 318zM5 164l-1 64q300 137 464 201q-160 -93 -463 -265zM6 336v46l271 54v-13h21zM380 421l-374 -164
v48q81 33 163 67q126 50 205 49h6zM267 5h-47l48 50zM183 5h-75l157 144l1 -53zM57 5h-53v29l261 200q-1 -8 1.5 -24.5t2.5 -23.5z" />
    <glyph glyph-name="s" unicode="s" horiz-adv-x="844" 
d="M662 521l22 144l15 -5v-157zM633 524l-46 14l5 149l66 -13zM532 553l-25 144q10 3 26 0q21 -5 26 -5q5 -35 2 -147zM471 559l-61 146l68 -2l28 -148zM399 559l-74 146q38 -2 54 0l60 -144zM655 256q18 17 75 42q14 -20 18 -39q-23 -3 -93 -3zM637 267q18 24 61 69l18 -21
zM623 274l23 91l32 -17q-35 -51 -55 -74zM602 281l3 101l19 -7zM677 236q9 4 33 4h23h22v-40q-47 17 -78 36zM344 550q-99 116 -117 134q14 15 63 16l82 -142zM537 407l38 -12v-79zM736 144q-4 4 -38 37q-24 22 -32 40l82 -36q3 -11 -12 -41zM458 426q15 1 42 -8l55 -112
q-69 85 -97 120zM701 93q-16 22 -44 108q17 -15 51 -48q16 -16 16 -28q0 -16 -23 -30v-2zM393 426h36l97 -117zM296 511l-158 135l61 30l124 -135q-20 -17 -27 -30zM58 591l59 45l173 -152q0 -40 61 -54l161 -142q-106 75 -454 303zM626 43q2 55 19 108q4 -34 25 -83z
M19 537l22 32l448 -304zM602 32q-18 -8 -38 -16t-37 -9l90 140zM481 169q2 0 -41 -1q-20 -1 -39 2q3 9 15 33q54 -21 85 -27zM428 265l-416 204q-6 6 -4 21q2 12 4 23q273 -170 405 -242zM17 397q-8 23 -7 45q35 -15 463 -227zM498 2q-27 -5 -84 -10q43 43 157 127zM39 360
q60 -26 120 -53q87 -37 125 -44l8 -2q-50 -6 -124 18q-90 29 -129 81zM555 125q-15 -11 -29 -21q-2 -2 -148 -112q-50 4 -97 6l272 126q1 0 2 1zM239 2l-107 17l374 107zM13 83v55q55 5 180 8q66 -10 184 -3q-196 -29 -364 -60zM90 30l-78 29l446 77zM13 164v59l146 -59
h-146z" />
    <glyph glyph-name="t" unicode="t" horiz-adv-x="746" 
d="M672 617l-85 -50l85 92v-42zM555 561h-48l83 139h85q-43 -48 -120 -139zM619 561l55 26v-24zM363 367l136 333l63 -1zM351 383l55 316h65zM330 373l4 326l45 1zM386 364l92 140v-49zM396 346l82 83v-30zM254 699h53l2 -340zM407 330l71 47l1 -40zM149 556l-72 143l67 1
l52 -144h-47zM175 699h51l61 -360zM478 279l-69 31l69 -1v-30zM76 555l-74 145h47l76 -144zM397 291l81 -36v-57zM210 436l1 72l66 -200zM6 555l-1 81l48 -81h-47zM403 258l75 -95l1 -152zM211 293v95l90 -168zM395 2v200l62 -200h-62zM211 203v58l84 -64zM367 3h-52l55 164
zM211 144v38l93 -3zM211 40v74l108 49zM290 2h-82l135 156z" />
    <glyph glyph-name="u" unicode="u" horiz-adv-x="831" 
d="M472 592v12l206 91h63v-22zM473 635v6l84 54l50 2q5 0 14 -1zM472 533v32q239 70 271 85v-60q-179 -40 -271 -57zM474 671v24h33zM743 505l-272 -19v20q231 45 272 57v-58zM472 445l-1 19q245 12 272 16l1 -62zM744 338q-45 13 -274 62v21l274 -29v-54zM470 362v15
l274 -66v-53zM736 164l-267 143l1 31l273 -110q-1 -42 -7 -64zM154 562l49 134h59q-23 -23 -55 -66q-39 -52 -53 -68zM169 545l103 123v-57zM213 540l60 38l1 -19zM697 87q-91 61 -229 165v26q70 -34 263 -141q-2 -16 -34 -50zM120 553l7 142h40zM187 499l2 2l87 32v-11z
M217 481l60 15v-16zM277 447q-28 5 -48 10h48v-10zM620 31q-24 19 -154 151v42l205 -158q-7 -12 -51 -35zM48 696h45v-162zM227 434l51 -15v-20zM243 393l35 -22v-10zM4 610v86h11l58 -201q-30 53 -69 115zM277 323l-30 37l31 -27zM519 1l-101 135q18 2 34 20l136 -137
q-49 -19 -69 -18zM235 336q19 -22 42 -46v-32zM6 515v37l55 -84zM6 417v63l89 -75zM420 -4l-78 143q17 -5 43 -4q80 -109 99 -138zM357 -8q-23 0 -34 2l-101 313l166 -313q-10 -1 -31 -2zM4 347v42l97 -10zM215 16l-27 300l14 -31l89 -285q-27 2 -76 16zM4 264v53l111 40z
M34 149q-24 49 -28 80l129 108q-30 -58 -101 -188zM126 56q8 63 40 212l19 -244q-37 17 -59 32zM96 77l-43 44l91 172q-16 -81 -48 -216z" />
    <glyph glyph-name="v" unicode="v" horiz-adv-x="761" 
d="M518 455l93 243l103 1zM488 467l6 57l26 176h61zM492 390l203 249l-39 -110zM455 407l-22 196l32 96h28zM613 420l-106 -44l137 112zM595 351l-107 -3l123 42zM287 571l-74 127h47l35 -134zM399 456l18 86l22 -176zM581 297l-66 28l74 -3zM564 240l-46 59l58 -32z
M271 529l-151 169h60l111 -192zM378 397l7 27l27 -61zM545 165l-23 99l38 -56zM370 358l3 12l36 -46zM330 394l-329 304h83l241 -272l6 -32h-1zM417 289l-58 54l2 1l58 -53zM340 345l-298 193l-29 111l316 -282l13 -22h-2zM490 14l20 204l17 -95zM357 304l-282 129l-21 71
l320 -207zM97 352l-13 52l252 -108l27 -16zM465 1l-45 2l64 173zM119 276l-13 46l271 -70zM391 2h-59l123 176zM378 234l-243 -27l-10 43zM381 213l-225 -78l-12 47zM305 2h-62l190 180zM176 66l-14 43l217 76zM215 2h-21l-11 43l208 121z" />
    <glyph glyph-name="w" unicode="w" horiz-adv-x="1072" 
d="M982 632l-259 -52l2 11l268 105zM726 614l2 20l125 63l88 1zM730 658l3 40h79zM971 560l-253 -13l3 12l258 49zM956 484l-241 34l3 12l248 9zM941 413l-232 60l3 23l240 -36zM936 391l-11 -57l-219 105l2 14q98 -30 228 -62zM498 561l-6 5l101 132h6l5 -39zM481 586
l16 112h64zM527 562l83 71l4 -29zM551 553l66 31l3 -13zM570 536l52 15l2 -13zM905 231l-207 162l4 21q57 -27 115 -53q85 -41 102 -56zM557 519h70l4 -24zM463 595l-29 102q29 1 35 1zM576 493l61 -22l3 -19zM382 698l28 1l44 -136zM881 122l-191 213l4 34l204 -165z
M572 467l71 -44l8 -43zM373 622l3 41l67 -105zM366 569l3 28l72 -63zM684 312q58 -67 190 -222l-17 -83l-189 296q7 -18 11 -13q2 2 3 13q1 6 2 9zM668 303l-64 100q44 -49 52 -57v-1q3 -14 12 -42zM360 534l1 11l81 -37zM590 386l237 -383h-63l-162 354q-10 22 -12 29z
M354 500l3 13l67 -15zM177 698h70l6 -43zM349 467l3 14l90 1zM668 3l-87 351l151 -352zM344 423l3 18l92 15zM579 3l-23 100l-10 285l96 -385h-63zM337 384l4 17l66 22zM-3 697v1h124l137 -71l5 -30zM19 605l-14 64l260 -96l3 -17zM35 516l-12 59l249 -45l5 -28zM530 183
l-29 94l-89 -274h-18l130 395zM52 431l-12 54l241 -5l5 -27zM372 3h-54l164 347zM66 349l-10 52l233 32l3 -25zM288 3h-62l231 352zM123 66l-14 73l202 155l4 -17l12 30l108 82zM85 262l-13 64l223 63l4 -25zM103 169l-12 65l215 106l3 -17zM192 3h-58l-5 31l331 356z
M338 360q-3 -18 0 -18t104 77z" />
    <glyph glyph-name="x" unicode="x" horiz-adv-x="769" 
d="M248 402l-142 106l-98 194zM37 701h69l133 -259zM200 700l56 -236l-125 236h69zM224 701l72 -1l-24 -228zM521 700l-207 -237l117 236zM559 700h105l-331 -251zM702 702l-59 -128l-277 -122zM306 619l17 -94l-33 -72zM630 548l-36 -77l-226 -40zM267 370l-99 21l-45 86z
M390 422l196 29l-24 -53zM392 410l173 -38l28 -63zM382 393l220 -112l47 -96zM261 355l-86 12l-27 -52zM668 148l69 -150l-353 373zM584 0h-90l-151 347q-1 1 -1 4v0q6 0 242 -351zM702 0h-87l-241 349zM365 249l-27 -69l-12 152zM232 325l-128 -117l34 84zM306 314l9 -180
l-57 -135h-9zM48 0l-36 2l70 155l177 167zM260 299l-110 -298l-81 -1zM231 0h-56l105 304z" />
    <glyph glyph-name="y" unicode="y" horiz-adv-x="761" 
d="M75 701l250 -431l-3 -10l-296 441h49zM170 701l204 -365l-267 365h63zM248 701l104 -305l-156 305h52zM294 701l82 -264l28 71l-16 -163l-120 356h26zM404 313l19 264l45 124zM545 701l-111 -327l56 327h55zM635 701l-200 -380l136 380h64zM660 702l73 -1l-50 -100
l-216 -257zM354 329l4 -20l-35 41l5 -52l-195 343zM562 370l-125 -94h-5l220 258zM111 541l221 -336l-11 9l-82 68zM548 335l-41 -66l-73 -12zM247 251l75 -69l-74 6zM435 237l75 6v-43zM450 208l60 -34v-90zM455 1h-51l23 176zM448 182l65 -146v-35h-37zM247 171l105 -6
l-104 -35zM381 0h-59l79 165zM356 149l-111 -102v64zM364 117l-70 -117l-49 1v14l119 115v-13z" />
    <glyph glyph-name="z" unicode="z" horiz-adv-x="795" 
d="M109 701l112 -150h-34l-170 150h92zM189 701l79 -150h-24l-110 150h55zM269 701l39 -147h-23l-75 147h59zM348 704l9 -277l-64 273zM377 701h66l-69 -230zM469 700l-69 -203l170 204zM426 497l242 135l38 69h-104zM161 548h-26l-115 64l-1 63zM20 589l77 -41h-77v41z
M647 582l-54 -85l-151 -10zM581 477l-145 -4l117 -34zM291 494l43 -93l-52 67zM446 450l100 -30l-33 -53zM270 450l52 -57l-70 32zM244 407l84 -33l-108 -9zM432 370l13 -121l-51 -70zM342 362l-175 -78l43 63zM72 145l76 114l190 87zM353 332l-326 -331h-31l57 101z
M365 321l-220 -319l-77 -1zM386 318l-142 -316l-77 -3zM408 332l-83 -331l-60 -2zM423 156l-8 -155l-63 1l34 154h37zM481 156l23 -155l-65 -2l3 157h39zM501 156h30l45 -155h-46zM588 156l74 -155h-57l-55 155h38zM605 159l100 -98l1 -57h-20zM705 158l1 -62l-75 61z
M464 277l-26 122l43 -96zM492 329l9 23l-66 81zM299 508l12 26q29 -121 29 -115q0 5 -41 89z" />
    <glyph glyph-name="braceleft" unicode="{" horiz-adv-x="302" 
d="M213 827v-100h-100v-788h100v-98h-213v986h213z" />
    <glyph glyph-name="bar" unicode="|" horiz-adv-x="382" 
d="M77 719h-81l256 -767h81z" />
    <glyph glyph-name="braceright" unicode="}" horiz-adv-x="310" 
d="M-3 -159v99h100v788h-100v99h213v-986h-213z" />
    <glyph glyph-name="asciitilde" unicode="~" horiz-adv-x="441" 
d="M386 803q-41 -73 -105 -73q-27 0 -78.5 18t-78.5 18q-44 0 -74 -31q-4 4 -10.5 5t-9.5 3q43 86 124 86q25 0 70.5 -17t69.5 -17q50 0 76 18z" />
    <glyph glyph-name="Adieresis" unicode="&#xc4;" 
d="M659 312l-19 387h16l26 -97zM681 338l18 215l18 -67zM559 699q19 -1 55 1l28 -365zM685 306l46 139l12 -44zM697 286l56 85l10 -29zM471 700l61 -1l103 -408zM716 268l55 50l9 -25zM728 242l60 29l4 -20zM717 217l84 10l8 -27zM376 699h64l173 -419zM734 186l83 -15
l15 -51zM284 698l57 1l271 -460zM415 446l-177 200l15 45l168 -226zM725 162l118 -70l12 -46zM827 0l-107 136l150 -135zM538 254l-3 6l-34 99l122 -178zM400 402l-188 172l15 47l180 -200zM755 1l-32 106l71 -107zM704 1l12 79l14 -79h-26zM382 364l-195 150l16 38
l186 -169zM402 258l90 -1l121 -89zM674 1h-32l52 89zM589 54l-7 18l66 12zM370 326l-208 123l18 40l195 -148zM611 2l-13 32l76 47zM109 301l19 52l422 -178zM354 280l-217 97l17 41l209 -115zM625 142l-540 92l16 45zM64 172l13 40l527 -87zM573 91l-10 16l-523 -2l17 46
l599 -49zM277 72l-253 -17l10 31l251 2zM247 1h-92l101 18zM261 33l-196 -32h-63l15 29l252 20zM503 795q0 21 16.5 35.5t39.5 14.5q24 0 40.5 -14.5t16.5 -35.5t-16.5 -35.5t-40.5 -14.5q-23 0 -39.5 14.5t-16.5 35.5zM293 795q0 21 16.5 35.5t39.5 14.5q24 0 40.5 -14.5
t16.5 -35.5t-16.5 -35.5t-40.5 -14.5q-23 0 -39.5 14.5t-16.5 35.5z" />
    <glyph glyph-name="Aring" unicode="&#xc5;" 
d="M659 312l-19 387h16l26 -97zM681 338l18 215l18 -67zM559 699q19 -1 55 1l28 -365zM685 306l46 139l12 -44zM697 286l56 85l10 -29zM471 700l61 -1l103 -408zM716 268l55 50l9 -25zM728 242l60 29l4 -20zM717 217l84 10l8 -27zM376 699h64l173 -419zM734 186l83 -15
l15 -51zM284 698l57 1l271 -460zM415 446l-177 200l15 45l168 -226zM725 162l118 -70l12 -46zM827 0l-107 136l150 -135zM538 254l-3 6l-34 99l122 -178zM400 402l-188 172l15 47l180 -200zM755 1l-32 106l71 -107zM704 1l12 79l14 -79h-26zM382 364l-195 150l16 38
l186 -169zM402 258l90 -1l121 -89zM674 1h-32l52 89zM589 54l-7 18l66 12zM370 326l-208 123l18 40l195 -148zM611 2l-13 32l76 47zM109 301l19 52l422 -178zM354 280l-217 97l17 41l209 -115zM625 142l-540 92l16 45zM64 172l13 40l527 -87zM573 91l-10 16l-523 -2l17 46
l599 -49zM277 72l-253 -17l10 31l251 2zM247 1h-92l101 18zM261 33l-196 -32h-63l15 29l252 20zM446 850q33 0 58 -16q29 -17 29 -46t-29 -47q-25 -15 -58 -15q-32 0 -57 15q-29 18 -29 47t29 46q25 16 57 16zM446 810q-22 0 -36 -10q-10 -6 -10 -12t10 -13q14 -9 36 -9
q23 0 37 9q10 7 10 13t-10 12q-14 10 -37 10z" />
    <glyph glyph-name="Ccedilla" unicode="&#xc7;" horiz-adv-x="764" 
d="M669 567l-139 -15l139 53v-38zM669 491q-23 21 -34 28q-17 11 -43 21l77 3v-52zM669 631l-425 -172l393 211l32 -16v-23zM605 682l-363 -204l302 221zM508 702l-303 -225l235 232zM406 706l-222 -226l157 219zM676 170l-38 11l38 28v-39zM306 690l-132 -191l67 170z
M676 121l-96 28q26 4 38 15l56 -16zM336 476q-9 -8 -23 -27l-81 -8zM208 652l-73 -194l10 145zM674 61l-168 92l168 -58v-34zM296 431q-12 -12 -12 -23l-55 9zM278 383q-7 -20 -4 -41l-64 57zM116 583l-5 -183l-37 136zM271 320l-55 -2l18 11l-20 39zM655 41l-50 -22
l-378 248q91 -41 216 -109q106 -59 212 -117zM327 243l-118 51l75 6q6 -22 43 -57zM577 9l-63 -14l-285 238zM93 382l-68 84l27 45zM478 -11h-72l-212 244zM92 350l-90 42l14 44zM90 327l-89 -13l-1 50zM245 18q-60 24 -84 52l-24 169zM91 304l-75 -65l-12 45zM490 -114
q-8 -47 -36 -64q-23 -14 -79 -14q-46 0 -62 8q-33 14 -39 15v47q23 -14 69 -14q44 0 44 29q0 13 -12.5 23.5t-31.5 10.5q-4 0 -15 0.5t-18 -0.5v75l-23 4l-124 231l193 -233h27v-43q12 2 46 0q61 -9 61 -75zM98 284l-38 -127l-31 55zM132 85l-55 43l37 123z" />
    <glyph glyph-name="Eacute" unicode="&#xc9;" horiz-adv-x="681" 
d="M271 598l329 77l-1 -31zM253 612l251 86h96v-5zM246 575l355 46v-51zM208 616l149 82h66l-201 -77q-9 -3 -14 -5zM512 424l82 1v-18zM304 698l-89 -54q13 18 41 54h48zM444 425l150 -41v-46zM534 295l-182 127h46l196 -116l3 -14zM189 698h35l-72 -118q0 -2 2 -2v1l1 3
q1 3 4 14q12 34 30 102zM265 552l40 -2v-12zM261 528l42 -12l2 -15zM136 604l-14 94h43zM246 477l240 -186h-70zM242 508l62 -29v-18zM60 698h33l17 -93zM5 675v23l26 -1l62 -103zM234 455l148 -164h-35zM553 134l50 -1v-54zM4 599l1 38l92 -87zM302 289l2 -22l-72 154
l83 -130zM3 529v40l87 -41zM603 3l-26 1l-98 127l47 3l76 -88zM6 481v22l69 8zM4 440l1 18l87 36zM88 454l24 -8l-105 -37v7l112 70zM395 3l-58 1q0 3 -54 170.5t-65 222.5q148 -339 177 -394zM467 4l-48 -1l-63 133h25q49 -64 72 -103q7 -15 14 -29zM6 347l-1 39l104 40z
M176 1l14 366q11 -46 24 -201q13 -160 14 -165h-52zM3 237v78l113 88zM136 1h-55l93 363zM3 87v107l138 202zM49 1l-45 1l2 21l140 331zM202 376l58 -375q0 2 49 0zM415 133l84 -129l46 -3l-98 132h-32zM184 768l224 76q2 0 23 -85q-235 -25 -235 -27t-12 36z" />
    <glyph glyph-name="Ntilde" unicode="&#xd1;" horiz-adv-x="801" 
d="M716 687l-242 -66v17l130 59l114 -1zM474 578v19l244 62v-53zM474 665v32h70zM474 540v13l246 27v-38zM473 502l1 16h246q0 -9 1 -23q1 -7 0 -20zM474 464l-1 17l248 -34v-48zM710 314l-237 104v21l247 -65v-65zM196 563l-1 4l85 106l21 -31zM239 567l72 53l13 -20z
M184 587l23 109l54 1zM242 548l94 32l17 -25zM473 361l1 28l246 -104v-68zM472 362l-2 1l-170 109l132 -57zM267 529l98 3l22 -33zM269 507l133 -35l16 -25zM154 595l-7 101h35zM296 445l421 -261v-81zM91 696h30l10 -100zM687 0l-382 408l411 -342v-66h-29zM24 696h41
l50 -121zM568 3l-286 396l368 -396h-82zM4 667v24l99 -137l15 -34zM1 564v70l106 -141zM457 3l-188 368l264 -368h-76zM257 302l-7 -65l-18 151l91 -190zM109 459l-105 22v53l105 -73v-2zM4 424v31l101 -19zM4 350v48l128 22zM246 3h-46l16 349l31 -270zM4 272v50l119 69z
M176 2h-53l74 364zM4 173v67l142 144v-4zM99 3h-67l138 329zM5 2h-1v120l136 212zM526 803q-41 -73 -105 -73q-27 0 -78.5 18t-78.5 18q-44 0 -74 -31q-4 4 -10.5 5t-9.5 3q38 76 124 76q25 0 70.5 -17t69.5 -17q36 0 76 28z" />
    <glyph glyph-name="Odieresis" unicode="&#xd6;" horiz-adv-x="887" 
d="M727 572l-42 -96l1 142q5 -4 29 -32q5 -5 11.5 -5.5t6.5 -1.5q-1 -2 -6 -7zM710 462l34 87q23 -20 25 -46q-25 -21 -59 -41zM742 450q7 8 38 28q6 -5 8 -24zM613 666q12 -1 50 -25l5 -7v-141zM739 423q8 4 23 3q25 0 18 0q8 0 13 1q2 -11 4 -33q-28 7 -58 29zM523 694
l53 -12l26 -69l35 -116zM785 309q-36 51 -54 91q24 -11 33 -16q19 -11 29 -23zM618 476q-18 20 -44 56q-14 20 -61 79q10 -31 54 -112l-124 177l-19 32l61 -5l138 -246l2 3zM750 202q-11 70 -10 119l33 -54q-5 -23 -23 -65zM495 533l-139 145q-10 10 -24 30q11 2 29 2
q5 0 13 -1t13 -1l200 -276q-48 45 -92 101zM596 383q-53 29 -50 61q39 -37 61 -66zM428 567l-51 3l-143 117q10 7 29 10q11 1 34 5zM559 367q-4 5 -3 13q20 -8 53 -29q-17 6 -50 16zM555 327v12q35 -5 49 -13zM544 293v0l2 2l6 9l66 -4q-26 -6 -74 -7zM654 86l60 199l9 -124
q-16 -20 -31 -41q-19 -22 -38 -34zM328 544l-166 101q13 14 42 26l143 -108q4 -3 5 -6zM519 226q6 12 18 37q24 5 81 12q-43 -22 -99 -49zM300 511l-3 -2l-1 -2q-38 13 -100 40q-72 32 -99 42q0 6 8 14l15 15q2 3 6 8q14 -4 41 -14q33 -16 143 -85q0 -6 -10 -16zM608 53
q-49 -33 -97 -44l28 46l131 171zM269 460l-221 65q0 17 25 45l205 -86q2 -3 -9 -24zM470 6q-21 -11 -53 -10q-19 2 -55 4v1l177 149l89 71zM250 408q-29 2 -124 22q-89 18 -109 18q-2 25 20 54l219 -69zM627 253l-307 -250l-44 11q13 14 109 78q23 16 53 41l-33 -6
l-170 -100q-20 6 -37 17l18 11l218 105l32 11l167 83l-4 4zM245 347l-242 16q-4 20 7 54l235 -41q4 -4 3 -20v-7zM12 293q-9 9 -9 45l246 -16q1 -5 2 -15l1 -3zM265 251l-233 -31q-18 29 -16 47l242 12q4 -1 12 -24zM78 140q-12 14 -24 27q-16 21 -6 30l230 31q9 -4 23 -29z
M331 143q-56 -26 -163 -79q-17 11 -36 24t-30 28l212 62q4 2 7 2q9 0 21 -10q16 -13 20 -15l-1 4q-1 -1 -1.5 -2t-28.5 -14zM449 152l-34 -24l9 -11l40 30zM443 795q0 21 16.5 35.5t39.5 14.5q24 0 40.5 -14.5t16.5 -35.5t-16.5 -35.5t-40.5 -14.5q-23 0 -39.5 14.5
t-16.5 35.5zM233 795q0 21 16.5 35.5t39.5 14.5q24 0 40.5 -14.5t16.5 -35.5t-16.5 -35.5t-40.5 -14.5q-23 0 -39.5 14.5t-16.5 35.5z" />
    <glyph glyph-name="Udieresis" unicode="&#xdc;" horiz-adv-x="831" 
d="M472 592v12l206 91h63v-22zM473 635v6l84 54l50 2q5 0 14 -1zM472 533v32q239 70 271 85v-60q-179 -40 -271 -57zM474 671v24h33zM743 505l-272 -19v20q231 45 272 57v-58zM472 445l-1 19q245 12 272 16l1 -62zM744 338q-45 13 -274 62v21l274 -29v-54zM470 362v15
l274 -66v-53zM736 164l-267 143l1 31l273 -110q-1 -42 -7 -64zM154 562l49 134h59q-23 -23 -55 -66q-39 -52 -53 -68zM169 545l103 123v-57zM213 540l60 38l1 -19zM697 87q-91 61 -229 165v26q70 -34 263 -141q-2 -16 -34 -50zM120 553l7 142h40zM187 499l2 2l87 32v-11z
M217 481l60 15v-16zM277 447q-28 5 -48 10h48v-10zM620 31q-24 19 -154 151v42l205 -158q-7 -12 -51 -35zM48 696h45v-162zM227 434l51 -15v-20zM243 393l35 -22v-10zM4 610v86h11l58 -201q-30 53 -69 115zM277 323l-30 37l31 -27zM519 1l-101 135q18 2 34 20l136 -137
q-49 -19 -69 -18zM235 336q19 -22 42 -46v-32zM6 515v37l55 -84zM6 417v63l89 -75zM420 -4l-78 143q17 -5 43 -4q80 -109 99 -138zM357 -8q-23 0 -34 2l-101 313l166 -313q-10 -1 -31 -2zM4 347v42l97 -10zM215 16l-27 300l14 -31l89 -285q-27 2 -76 16zM4 264v53l111 40z
M34 149q-24 49 -28 80l129 108q-30 -58 -101 -188zM126 56q8 63 40 212l19 -244q-37 17 -59 32zM96 77l-43 44l91 172q-16 -81 -48 -216zM423 795q0 21 16.5 35.5t39.5 14.5q24 0 40.5 -14.5t16.5 -35.5t-16.5 -35.5t-40.5 -14.5q-23 0 -39.5 14.5t-16.5 35.5zM213 795
q0 21 16.5 35.5t39.5 14.5q24 0 40.5 -14.5t16.5 -35.5t-16.5 -35.5t-40.5 -14.5q-23 0 -39.5 14.5t-16.5 35.5z" />
    <glyph glyph-name="aacute" unicode="&#xe1;" 
d="M659 312l-19 387h16l26 -97zM681 338l18 215l18 -67zM559 699q19 -1 55 1l28 -365zM685 306l46 139l12 -44zM697 286l56 85l10 -29zM471 700l61 -1l103 -408zM716 268l55 50l9 -25zM728 242l60 29l4 -20zM717 217l84 10l8 -27zM376 699h64l173 -419zM734 186l83 -15
l15 -51zM284 698l57 1l271 -460zM415 446l-177 200l15 45l168 -226zM725 162l118 -70l12 -46zM827 0l-107 136l150 -135zM538 254l-3 6l-34 99l122 -178zM400 402l-188 172l15 47l180 -200zM755 1l-32 106l71 -107zM704 1l12 79l14 -79h-26zM382 364l-195 150l16 38
l186 -169zM402 258l90 -1l121 -89zM674 1h-32l52 89zM589 54l-7 18l66 12zM370 326l-208 123l18 40l195 -148zM611 2l-13 32l76 47zM109 301l19 52l422 -178zM354 280l-217 97l17 41l209 -115zM625 142l-540 92l16 45zM64 172l13 40l527 -87zM573 91l-10 16l-523 -2l17 46
l599 -49zM277 72l-253 -17l10 31l251 2zM247 1h-92l101 18zM261 33l-196 -32h-63l15 29l252 20zM324 768l224 76q2 0 23 -85q-235 -25 -235 -27t-12 36z" />
    <glyph glyph-name="agrave" unicode="&#xe0;" 
d="M659 312l-19 387h16l26 -97zM681 338l18 215l18 -67zM559 699q19 -1 55 1l28 -365zM685 306l46 139l12 -44zM697 286l56 85l10 -29zM471 700l61 -1l103 -408zM716 268l55 50l9 -25zM728 242l60 29l4 -20zM717 217l84 10l8 -27zM376 699h64l173 -419zM734 186l83 -15
l15 -51zM284 698l57 1l271 -460zM415 446l-177 200l15 45l168 -226zM725 162l118 -70l12 -46zM827 0l-107 136l150 -135zM538 254l-3 6l-34 99l122 -178zM400 402l-188 172l15 47l180 -200zM755 1l-32 106l71 -107zM704 1l12 79l14 -79h-26zM382 364l-195 150l16 38
l186 -169zM402 258l90 -1l121 -89zM674 1h-32l52 89zM589 54l-7 18l66 12zM370 326l-208 123l18 40l195 -148zM611 2l-13 32l76 47zM109 301l19 52l422 -178zM354 280l-217 97l17 41l209 -115zM625 142l-540 92l16 45zM64 172l13 40l527 -87zM573 91l-10 16l-523 -2l17 46
l599 -49zM277 72l-253 -17l10 31l251 2zM247 1h-92l101 18zM261 33l-196 -32h-63l15 29l252 20zM567 768l-224 76q-2 0 -23 -85q236 -25 236 -27t11 36z" />
    <glyph glyph-name="acircumflex" unicode="&#xe2;" 
d="M659 312l-19 387h16l26 -97zM681 338l18 215l18 -67zM559 699q19 -1 55 1l28 -365zM685 306l46 139l12 -44zM697 286l56 85l10 -29zM471 700l61 -1l103 -408zM716 268l55 50l9 -25zM728 242l60 29l4 -20zM717 217l84 10l8 -27zM376 699h64l173 -419zM734 186l83 -15
l15 -51zM284 698l57 1l271 -460zM415 446l-177 200l15 45l168 -226zM725 162l118 -70l12 -46zM827 0l-107 136l150 -135zM538 254l-3 6l-34 99l122 -178zM400 402l-188 172l15 47l180 -200zM755 1l-32 106l71 -107zM704 1l12 79l14 -79h-26zM382 364l-195 150l16 38
l186 -169zM402 258l90 -1l121 -89zM674 1h-32l52 89zM589 54l-7 18l66 12zM370 326l-208 123l18 40l195 -148zM611 2l-13 32l76 47zM109 301l19 52l422 -178zM354 280l-217 97l17 41l209 -115zM625 142l-540 92l16 45zM64 172l13 40l527 -87zM573 91l-10 16l-523 -2l17 46
l599 -49zM277 72l-253 -17l10 31l251 2zM247 1h-92l101 18zM261 33l-196 -32h-63l15 29l252 20zM455 866l-173 -101l10 -33l160 54l166 -54l10 30z" />
    <glyph glyph-name="adieresis" unicode="&#xe4;" 
d="M659 312l-19 387h16l26 -97zM681 338l18 215l18 -67zM559 699q19 -1 55 1l28 -365zM685 306l46 139l12 -44zM697 286l56 85l10 -29zM471 700l61 -1l103 -408zM716 268l55 50l9 -25zM728 242l60 29l4 -20zM717 217l84 10l8 -27zM376 699h64l173 -419zM734 186l83 -15
l15 -51zM284 698l57 1l271 -460zM415 446l-177 200l15 45l168 -226zM725 162l118 -70l12 -46zM827 0l-107 136l150 -135zM538 254l-3 6l-34 99l122 -178zM400 402l-188 172l15 47l180 -200zM755 1l-32 106l71 -107zM704 1l12 79l14 -79h-26zM382 364l-195 150l16 38
l186 -169zM402 258l90 -1l121 -89zM674 1h-32l52 89zM589 54l-7 18l66 12zM370 326l-208 123l18 40l195 -148zM611 2l-13 32l76 47zM109 301l19 52l422 -178zM354 280l-217 97l17 41l209 -115zM625 142l-540 92l16 45zM64 172l13 40l527 -87zM573 91l-10 16l-523 -2l17 46
l599 -49zM277 72l-253 -17l10 31l251 2zM247 1h-92l101 18zM261 33l-196 -32h-63l15 29l252 20zM503 795q0 21 16.5 35.5t39.5 14.5q24 0 40.5 -14.5t16.5 -35.5t-16.5 -35.5t-40.5 -14.5q-23 0 -39.5 14.5t-16.5 35.5zM293 795q0 21 16.5 35.5t39.5 14.5q24 0 40.5 -14.5
t16.5 -35.5t-16.5 -35.5t-40.5 -14.5q-23 0 -39.5 14.5t-16.5 35.5z" />
    <glyph glyph-name="atilde" unicode="&#xe3;" 
d="M659 312l-19 387h16l26 -97zM681 338l18 215l18 -67zM559 699q19 -1 55 1l28 -365zM685 306l46 139l12 -44zM697 286l56 85l10 -29zM471 700l61 -1l103 -408zM716 268l55 50l9 -25zM728 242l60 29l4 -20zM717 217l84 10l8 -27zM376 699h64l173 -419zM734 186l83 -15
l15 -51zM284 698l57 1l271 -460zM415 446l-177 200l15 45l168 -226zM725 162l118 -70l12 -46zM827 0l-107 136l150 -135zM538 254l-3 6l-34 99l122 -178zM400 402l-188 172l15 47l180 -200zM755 1l-32 106l71 -107zM704 1l12 79l14 -79h-26zM382 364l-195 150l16 38
l186 -169zM402 258l90 -1l121 -89zM674 1h-32l52 89zM589 54l-7 18l66 12zM370 326l-208 123l18 40l195 -148zM611 2l-13 32l76 47zM109 301l19 52l422 -178zM354 280l-217 97l17 41l209 -115zM625 142l-540 92l16 45zM64 172l13 40l527 -87zM573 91l-10 16l-523 -2l17 46
l599 -49zM277 72l-253 -17l10 31l251 2zM247 1h-92l101 18zM261 33l-196 -32h-63l15 29l252 20zM636 813q-41 -73 -105 -73q-27 0 -78.5 18t-78.5 18q-44 0 -74 -31q-4 4 -10.5 5t-9.5 3q43 86 124 86q25 0 70.5 -17t69.5 -17q50 0 76 18z" />
    <glyph glyph-name="aring" unicode="&#xe5;" 
d="M659 312l-19 387h16l26 -97zM681 338l18 215l18 -67zM559 699q19 -1 55 1l28 -365zM685 306l46 139l12 -44zM697 286l56 85l10 -29zM471 700l61 -1l103 -408zM716 268l55 50l9 -25zM728 242l60 29l4 -20zM717 217l84 10l8 -27zM376 699h64l173 -419zM734 186l83 -15
l15 -51zM284 698l57 1l271 -460zM415 446l-177 200l15 45l168 -226zM725 162l118 -70l12 -46zM827 0l-107 136l150 -135zM538 254l-3 6l-34 99l122 -178zM400 402l-188 172l15 47l180 -200zM755 1l-32 106l71 -107zM704 1l12 79l14 -79h-26zM382 364l-195 150l16 38
l186 -169zM402 258l90 -1l121 -89zM674 1h-32l52 89zM589 54l-7 18l66 12zM370 326l-208 123l18 40l195 -148zM611 2l-13 32l76 47zM109 301l19 52l422 -178zM354 280l-217 97l17 41l209 -115zM625 142l-540 92l16 45zM64 172l13 40l527 -87zM573 91l-10 16l-523 -2l17 46
l599 -49zM277 72l-253 -17l10 31l251 2zM247 1h-92l101 18zM261 33l-196 -32h-63l15 29l252 20zM446 850q33 0 58 -16q29 -17 29 -46t-29 -47q-25 -15 -58 -15q-32 0 -57 15q-29 18 -29 47t29 46q25 16 57 16zM446 810q-22 0 -36 -10q-10 -6 -10 -12t10 -13q14 -9 36 -9
q23 0 37 9q10 7 10 13t-10 12q-14 10 -37 10z" />
    <glyph glyph-name="ccedilla" unicode="&#xe7;" horiz-adv-x="764" 
d="M669 567l-139 -15l139 53v-38zM669 491q-23 21 -34 28q-17 11 -43 21l77 3v-52zM669 631l-425 -172l393 211l32 -16v-23zM605 682l-363 -204l302 221zM508 702l-303 -225l235 232zM406 706l-222 -226l157 219zM676 170l-38 11l38 28v-39zM306 690l-132 -191l67 170z
M676 121l-96 28q26 4 38 15l56 -16zM336 476q-9 -8 -23 -27l-81 -8zM208 652l-73 -194l10 145zM674 61l-168 92l168 -58v-34zM296 431q-12 -12 -12 -23l-55 9zM278 383q-7 -20 -4 -41l-64 57zM116 583l-5 -183l-37 136zM271 320l-55 -2l18 11l-20 39zM655 41l-50 -22
l-378 248q91 -41 216 -109q106 -59 212 -117zM327 243l-118 51l75 6q6 -22 43 -57zM577 9l-63 -14l-285 238zM93 382l-68 84l27 45zM478 -11h-72l-212 244zM92 350l-90 42l14 44zM90 327l-89 -13l-1 50zM245 18q-60 24 -84 52l-24 169zM91 304l-75 -65l-12 45zM490 -114
q-8 -47 -36 -64q-23 -14 -79 -14q-46 0 -62 8q-33 14 -39 15v47q23 -14 69 -14q44 0 44 29q0 13 -12.5 23.5t-31.5 10.5q-4 0 -15 0.5t-18 -0.5v75l-23 4l-124 231l193 -233h27v-43q12 2 46 0q61 -9 61 -75zM98 284l-38 -127l-31 55zM132 85l-55 43l37 123z" />
    <glyph glyph-name="eacute" unicode="&#xe9;" horiz-adv-x="681" 
d="M271 598l329 77l-1 -31zM253 612l251 86h96v-5zM246 575l355 46v-51zM208 616l149 82h66l-201 -77q-9 -3 -14 -5zM512 424l82 1v-18zM304 698l-89 -54q13 18 41 54h48zM444 425l150 -41v-46zM534 295l-182 127h46l196 -116l3 -14zM189 698h35l-72 -118q0 -2 2 -2v1l1 3
q1 3 4 14q12 34 30 102zM265 552l40 -2v-12zM261 528l42 -12l2 -15zM136 604l-14 94h43zM246 477l240 -186h-70zM242 508l62 -29v-18zM60 698h33l17 -93zM5 675v23l26 -1l62 -103zM234 455l148 -164h-35zM553 134l50 -1v-54zM4 599l1 38l92 -87zM302 289l2 -22l-72 154
l83 -130zM3 529v40l87 -41zM603 3l-26 1l-98 127l47 3l76 -88zM6 481v22l69 8zM4 440l1 18l87 36zM88 454l24 -8l-105 -37v7l112 70zM395 3l-58 1q0 3 -54 170.5t-65 222.5q148 -339 177 -394zM467 4l-48 -1l-63 133h25q49 -64 72 -103q7 -15 14 -29zM6 347l-1 39l104 40z
M176 1l14 366q11 -46 24 -201q13 -160 14 -165h-52zM3 237v78l113 88zM136 1h-55l93 363zM3 87v107l138 202zM49 1l-45 1l2 21l140 331zM202 376l58 -375q0 2 49 0zM415 133l84 -129l46 -3l-98 132h-32zM184 768l224 76q2 0 23 -85q-235 -25 -235 -27t-12 36z" />
    <glyph glyph-name="egrave" unicode="&#xe8;" horiz-adv-x="686" 
d="M271 598l329 77l-1 -31zM253 612l251 86h96v-5zM246 575l355 46v-51zM208 616l149 82h66l-201 -77q-9 -3 -14 -5zM512 424l82 1v-18zM304 698l-89 -54q13 18 41 54h48zM444 425l150 -41v-46zM534 295l-182 127h46l196 -116l3 -14zM189 698h35l-72 -118q0 -2 2 -2v1l1 3
q1 3 4 14q12 34 30 102zM265 552l40 -2v-12zM261 528l42 -12l2 -15zM136 604l-14 94h43zM246 477l240 -186h-70zM242 508l62 -29v-18zM60 698h33l17 -93zM5 675v23l26 -1l62 -103zM234 455l148 -164h-35zM553 134l50 -1v-54zM4 599l1 38l92 -87zM302 289l2 -22l-72 154
l83 -130zM3 529v40l87 -41zM603 3l-26 1l-98 127l47 3l76 -88zM6 481v22l69 8zM4 440l1 18l87 36zM88 454l24 -8l-105 -37v7l112 70zM395 3l-58 1q0 3 -54 170.5t-65 222.5q148 -339 177 -394zM467 4l-48 -1l-63 133h25q49 -64 72 -103q7 -15 14 -29zM6 347l-1 39l104 40z
M176 1l14 366q11 -46 24 -201q13 -160 14 -165h-52zM3 237v78l113 88zM136 1h-55l93 363zM3 87v107l138 202zM49 1l-45 1l2 21l140 331zM202 376l58 -375q0 2 49 0zM415 133l84 -129l46 -3l-98 132h-32zM417 768l-224 76q-2 0 -23 -85q236 -25 236 -27t11 36z" />
    <glyph glyph-name="ecircumflex" unicode="&#xea;" horiz-adv-x="686" 
d="M271 598l329 77l-1 -31zM253 612l251 86h96v-5zM246 575l355 46v-51zM208 616l149 82h66l-201 -77q-9 -3 -14 -5zM512 424l82 1v-18zM304 698l-89 -54q13 18 41 54h48zM444 425l150 -41v-46zM534 295l-182 127h46l196 -116l3 -14zM189 698h35l-72 -118q0 -2 2 -2v1l1 3
q1 3 4 14q12 34 30 102zM265 552l40 -2v-12zM261 528l42 -12l2 -15zM136 604l-14 94h43zM246 477l240 -186h-70zM242 508l62 -29v-18zM60 698h33l17 -93zM5 675v23l26 -1l62 -103zM234 455l148 -164h-35zM553 134l50 -1v-54zM4 599l1 38l92 -87zM302 289l2 -22l-72 154
l83 -130zM3 529v40l87 -41zM603 3l-26 1l-98 127l47 3l76 -88zM6 481v22l69 8zM4 440l1 18l87 36zM88 454l24 -8l-105 -37v7l112 70zM395 3l-58 1q0 3 -54 170.5t-65 222.5q148 -339 177 -394zM467 4l-48 -1l-63 133h25q49 -64 72 -103q7 -15 14 -29zM6 347l-1 39l104 40z
M176 1l14 366q11 -46 24 -201q13 -160 14 -165h-52zM3 237v78l113 88zM136 1h-55l93 363zM3 87v107l138 202zM49 1l-45 1l2 21l140 331zM202 376l58 -375q0 2 49 0zM415 133l84 -129l46 -3l-98 132h-32zM295 866l-173 -101l10 -33l165 52l161 -52l10 30z" />
    <glyph glyph-name="edieresis" unicode="&#xeb;" horiz-adv-x="686" 
d="M271 598l329 77l-1 -31zM253 612l251 86h96v-5zM246 575l355 46v-51zM208 616l149 82h66l-201 -77q-9 -3 -14 -5zM512 424l82 1v-18zM304 698l-89 -54q13 18 41 54h48zM444 425l150 -41v-46zM534 295l-182 127h46l196 -116l3 -14zM189 698h35l-72 -118q0 -2 2 -2v1l1 3
q1 3 4 14q12 34 30 102zM265 552l40 -2v-12zM261 528l42 -12l2 -15zM136 604l-14 94h43zM246 477l240 -186h-70zM242 508l62 -29v-18zM60 698h33l17 -93zM5 675v23l26 -1l62 -103zM234 455l148 -164h-35zM553 134l50 -1v-54zM4 599l1 38l92 -87zM302 289l2 -22l-72 154
l83 -130zM3 529v40l87 -41zM603 3l-26 1l-98 127l47 3l76 -88zM6 481v22l69 8zM4 440l1 18l87 36zM88 454l24 -8l-105 -37v7l112 70zM395 3l-58 1q0 3 -54 170.5t-65 222.5q148 -339 177 -394zM467 4l-48 -1l-63 133h25q49 -64 72 -103q7 -15 14 -29zM6 347l-1 39l104 40z
M176 1l14 366q11 -46 24 -201q13 -160 14 -165h-52zM3 237v78l113 88zM136 1h-55l93 363zM3 87v107l138 202zM49 1l-45 1l2 21l140 331zM202 376l58 -375q0 2 49 0zM415 133l84 -129l46 -3l-98 132h-32zM353 795q0 21 16.5 35.5t39.5 14.5q24 0 40.5 -14.5t16.5 -35.5
t-16.5 -35.5t-40.5 -14.5q-23 0 -39.5 14.5t-16.5 35.5zM143 795q0 21 16.5 35.5t39.5 14.5q24 0 40.5 -14.5t16.5 -35.5t-16.5 -35.5t-40.5 -14.5q-23 0 -39.5 14.5t-16.5 35.5z" />
    <glyph glyph-name="iacute" unicode="&#xed;" horiz-adv-x="392" 
d="M187 505l57 197h60zM211 495q32 54 95 160v-56zM169 518v184h46zM203 454l103 110v-64zM109 702h33l5 -180zM216 434l90 28v-54zM101 565l3 -80l-56 217h33l49 -203zM222 409l84 -25v-37zM1 600v102h17l75 -258zM214 387q5 -3 92 -71v-68zM1 461v83l103 -177zM233 318
l73 -112v-131zM1 367v56l101 -88zM246 -1l-22 276l81 -276h-59zM1 298v42l108 -32zM151 -1q34 195 46 279l22 -279h-68zM1 222v53l115 11zM1 132v62l121 68q-39 -45 -121 -130zM118 -1h-64l4 7q5 9 108 235zM23 0l-22 -1l-1 95l144 160q-36 -81 -121 -254zM24 768l224 76
q2 0 23 -85q-235 -25 -235 -27t-12 36z" />
    <glyph glyph-name="igrave" unicode="&#xec;" horiz-adv-x="392" 
d="M187 505l57 197h60zM211 495q32 54 95 160v-56zM169 518v184h46zM203 454l103 110v-64zM109 702h33l5 -180zM216 434l90 28v-54zM101 565l3 -80l-56 217h33l49 -203zM222 409l84 -25v-37zM1 600v102h17l75 -258zM214 387q5 -3 92 -71v-68zM1 461v83l103 -177zM233 318
l73 -112v-131zM1 367v56l101 -88zM246 -1l-22 276l81 -276h-59zM1 298v42l108 -32zM151 -1q34 195 46 279l22 -279h-68zM1 222v53l115 11zM1 132v62l121 68q-39 -45 -121 -130zM118 -1h-64l4 7q5 9 108 235zM23 0l-22 -1l-1 95l144 160q-36 -81 -121 -254zM277 768l-224 76
q-2 0 -23 -85q236 -25 236 -27t11 36z" />
    <glyph glyph-name="icircumflex" unicode="&#xee;" horiz-adv-x="392" 
d="M187 505l57 197h60zM211 495q32 54 95 160v-56zM169 518v184h46zM203 454l103 110v-64zM109 702h33l5 -180zM216 434l90 28v-54zM101 565l3 -80l-56 217h33l49 -203zM222 409l84 -25v-37zM1 600v102h17l75 -258zM214 387q5 -3 92 -71v-68zM1 461v83l103 -177zM233 318
l73 -112v-131zM1 367v56l101 -88zM246 -1l-22 276l81 -276h-59zM1 298v42l108 -32zM151 -1q34 195 46 279l22 -279h-68zM1 222v53l115 11zM1 132v62l121 68q-39 -45 -121 -130zM118 -1h-64l4 7q5 9 108 235zM23 0l-22 -1l-1 95l144 160q-36 -81 -121 -254zM155 866
l-173 -101l10 -33l163 54l163 -54l10 30z" />
    <glyph glyph-name="idieresis" unicode="&#xef;" horiz-adv-x="392" 
d="M187 505l57 197h60zM211 495q32 54 95 160v-56zM169 518v184h46zM203 454l103 110v-64zM109 702h33l5 -180zM216 434l90 28v-54zM101 565l3 -80l-56 217h33l49 -203zM222 409l84 -25v-37zM1 600v102h17l75 -258zM214 387q5 -3 92 -71v-68zM1 461v83l103 -177zM233 318
l73 -112v-131zM1 367v56l101 -88zM246 -1l-22 276l81 -276h-59zM1 298v42l108 -32zM151 -1q34 195 46 279l22 -279h-68zM1 222v53l115 11zM1 132v62l121 68q-39 -45 -121 -130zM118 -1h-64l4 7q5 9 108 235zM23 0l-22 -1l-1 95l144 160q-36 -81 -121 -254zM193 795
q0 21 16.5 35.5t39.5 14.5q24 0 40.5 -14.5t16.5 -35.5t-16.5 -35.5t-40.5 -14.5q-23 0 -39.5 14.5t-16.5 35.5zM-17 795q0 21 16.5 35.5t39.5 14.5q24 0 40.5 -14.5t16.5 -35.5t-16.5 -35.5t-40.5 -14.5q-23 0 -39.5 14.5t-16.5 35.5z" />
    <glyph glyph-name="ntilde" unicode="&#xf1;" horiz-adv-x="801" 
d="M716 687l-242 -66v17l130 59l114 -1zM474 578v19l244 62v-53zM474 665v32h70zM474 540v13l246 27v-38zM473 502l1 16h246q0 -9 1 -23q1 -7 0 -20zM474 464l-1 17l248 -34v-48zM710 314l-237 104v21l247 -65v-65zM196 563l-1 4l85 106l21 -31zM239 567l72 53l13 -20z
M184 587l23 109l54 1zM242 548l94 32l17 -25zM473 361l1 28l246 -104v-68zM472 362l-2 1l-170 109l132 -57zM267 529l98 3l22 -33zM269 507l133 -35l16 -25zM154 595l-7 101h35zM296 445l421 -261v-81zM91 696h30l10 -100zM687 0l-382 408l411 -342v-66h-29zM24 696h41
l50 -121zM568 3l-286 396l368 -396h-82zM4 667v24l99 -137l15 -34zM1 564v70l106 -141zM457 3l-188 368l264 -368h-76zM257 302l-7 -65l-18 151l91 -190zM109 459l-105 22v53l105 -73v-2zM4 424v31l101 -19zM4 350v48l128 22zM246 3h-46l16 349l31 -270zM4 272v50l119 69z
M176 2h-53l74 364zM4 173v67l142 144v-4zM99 3h-67l138 329zM5 2h-1v120l136 212zM526 803q-41 -73 -105 -73q-27 0 -78.5 18t-78.5 18q-44 0 -74 -31q-4 4 -10.5 5t-9.5 3q43 86 124 86q25 0 70.5 -17t69.5 -17q50 0 76 18z" />
    <glyph glyph-name="oacute" unicode="&#xf3;" horiz-adv-x="887" 
d="M264 768l224 76q2 0 23 -85q-235 -25 -235 -27t-12 36zM727 572l-42 -96l1 142q5 -4 29 -32q5 -5 11.5 -5.5t6.5 -1.5q-1 -2 -6 -7zM710 462l34 87q23 -20 25 -46q-25 -21 -59 -41zM742 450q7 8 38 28q6 -5 8 -24zM613 666q12 -1 50 -25l5 -7v-141zM739 423q8 4 23 3
q25 0 18 0q8 0 13 1q2 -11 4 -33q-28 7 -58 29zM523 694l53 -12l26 -69l35 -116zM785 309q-36 51 -54 91q24 -11 33 -16q19 -11 29 -23zM618 476q-18 20 -44 56q-14 20 -61 79q10 -31 54 -112l-124 177l-19 32l61 -5l138 -246l2 3zM750 202q-11 70 -10 119l33 -54
q-5 -23 -23 -65zM495 533l-139 145q-10 10 -24 30q11 2 29 2q5 0 13 -1t13 -1l200 -276q-48 45 -92 101zM596 383q-53 29 -50 61q39 -37 61 -66zM428 567l-51 3l-143 117q10 7 29 10q11 1 34 5zM559 367q-4 5 -3 13q20 -8 53 -29q-17 6 -50 16zM555 327v12q35 -5 49 -13z
M544 293v0l2 2l6 9l66 -4q-26 -6 -74 -7zM654 86l60 199l9 -124q-16 -20 -31 -41q-19 -22 -38 -34zM328 544l-166 101q13 14 42 26l143 -108q4 -3 5 -6zM519 226q6 12 18 37q24 5 81 12q-43 -22 -99 -49zM300 511l-3 -2l-1 -2q-38 13 -100 40q-72 32 -99 42q0 6 8 14l15 15
q2 3 6 8q14 -4 41 -14q33 -16 143 -85q0 -6 -10 -16zM608 53q-49 -33 -97 -44l28 46l131 171zM269 460l-221 65q0 17 25 45l205 -86q2 -3 -9 -24zM470 6q-21 -11 -53 -10q-19 2 -55 4v1l177 149l89 71zM250 408q-29 2 -124 22q-89 18 -109 18q-2 25 20 54l219 -69zM627 253
l-307 -250l-44 11q13 14 109 78q37 22 101 66l-29 -7l-222 -124q-20 6 -37 17l18 11l250 116l167 83l-4 4zM245 347l-242 16q-4 20 7 54l235 -41q4 -4 3 -20v-7zM12 293q-9 9 -9 45l246 -16q1 -5 2 -15l1 -3zM265 251l-233 -31q-18 29 -16 47l242 12q4 -1 12 -24zM78 140
q-12 14 -24 27q-16 21 -6 30l230 31q9 -4 23 -29zM331 143q-56 -26 -163 -79q-17 11 -36 24t-30 28l212 62q4 2 7 2q9 0 21 -10q16 -13 20 -15l-1 4q-1 -1 -1.5 -2t-28.5 -14z" />
    <glyph glyph-name="ograve" unicode="&#xf2;" horiz-adv-x="887" 
d="M517 768l-224 76q-2 0 -23 -85q236 -25 236 -27t11 36zM727 572l-42 -96l1 142q5 -4 29 -32q5 -5 11.5 -5.5t6.5 -1.5q-1 -2 -6 -7zM710 462l34 87q23 -20 25 -46q-25 -21 -59 -41zM742 450q7 8 38 28q6 -5 8 -24zM613 666q12 -1 50 -25l5 -7v-141zM739 423q8 4 23 3
q25 0 18 0q8 0 13 1q2 -11 4 -33q-28 7 -58 29zM523 694l53 -12l26 -69l35 -116zM785 309q-36 51 -54 91q24 -11 33 -16q19 -11 29 -23zM618 476q-18 20 -44 56q-14 20 -61 79q10 -31 54 -112l-124 177l-19 32l61 -5l138 -246l2 3zM750 202q-11 70 -10 119l33 -54
q-5 -23 -23 -65zM495 533l-139 145q-10 10 -24 30q11 2 29 2q5 0 13 -1t13 -1l200 -276q-48 45 -92 101zM596 383q-53 29 -50 61q39 -37 61 -66zM428 567l-51 3l-143 117q10 7 29 10q11 1 34 5zM559 367q-4 5 -3 13q20 -8 53 -29q-17 6 -50 16zM555 327v12q35 -5 49 -13z
M544 293v0l2 2l6 9l66 -4q-26 -6 -74 -7zM654 86l60 199l9 -124q-16 -20 -31 -41q-19 -22 -38 -34zM328 544l-166 101q13 14 42 26l143 -108q4 -3 5 -6zM519 226q6 12 18 37q24 5 81 12q-43 -22 -99 -49zM300 511l-3 -2l-1 -2q-38 13 -100 40q-72 32 -99 42q0 6 8 14l15 15
q2 3 6 8q14 -4 41 -14q33 -16 143 -85q0 -6 -10 -16zM608 53q-49 -33 -97 -44l28 46l131 171zM269 460l-221 65q0 17 25 45l205 -86q2 -3 -9 -24zM470 6q-21 -11 -53 -10q-19 2 -55 4v1l177 149l89 71zM250 408q-29 2 -124 22q-89 18 -109 18q-2 25 20 54l219 -69zM627 253
l-307 -250l-44 11q13 14 109 78q37 22 101 66l-29 -7l-222 -124q-20 6 -37 17l18 11l250 116l167 83l-4 4zM245 347l-242 16q-4 20 7 54l235 -41q4 -4 3 -20v-7zM12 293q-9 9 -9 45l246 -16q1 -5 2 -15l1 -3zM265 251l-233 -31q-18 29 -16 47l242 12q4 -1 12 -24zM78 140
q-12 14 -24 27q-16 21 -6 30l230 31q9 -4 23 -29zM331 143q-56 -26 -163 -79q-17 11 -36 24t-30 28l212 62q4 2 7 2q9 0 21 -10q16 -13 20 -15l-1 4q-1 -1 -1.5 -2t-28.5 -14z" />
    <glyph glyph-name="ocircumflex" unicode="&#xf4;" horiz-adv-x="887" 
d="M395 866l-173 -101l10 -33l161 45l165 -45l10 30zM727 572l-42 -96l1 142q5 -4 29 -32q5 -5 11.5 -5.5t6.5 -1.5q-1 -2 -6 -7zM710 462l34 87q23 -20 25 -46q-25 -21 -59 -41zM742 450q7 8 38 28q6 -5 8 -24zM613 666q12 -1 50 -25l5 -7v-141zM739 423q8 4 23 3
q25 0 18 0q8 0 13 1q2 -11 4 -33q-28 7 -58 29zM523 694l53 -12l26 -69l35 -116zM785 309q-36 51 -54 91q24 -11 33 -16q19 -11 29 -23zM618 476q-18 20 -44 56q-14 20 -61 79q10 -31 54 -112l-124 177l-19 32l61 -5l138 -246l2 3zM750 202q-11 70 -10 119l33 -54
q-5 -23 -23 -65zM495 533l-139 145q-10 10 -24 30q11 2 29 2q5 0 13 -1t13 -1l200 -276q-48 45 -92 101zM596 383q-53 29 -50 61q39 -37 61 -66zM428 567l-51 3l-143 117q10 7 29 10q11 1 34 5zM559 367q-4 5 -3 13q20 -8 53 -29q-17 6 -50 16zM555 327v12q35 -5 49 -13z
M544 293v0l2 2l6 9l66 -4q-26 -6 -74 -7zM654 86l60 199l9 -124q-16 -20 -31 -41q-19 -22 -38 -34zM328 544l-166 101q13 14 42 26l143 -108q4 -3 5 -6zM519 226q6 12 18 37q24 5 81 12q-43 -22 -99 -49zM300 511l-3 -2l-1 -2q-38 13 -100 40q-72 32 -99 42q0 6 8 14l15 15
q2 3 6 8q14 -4 41 -14q33 -16 143 -85q0 -6 -10 -16zM608 53q-49 -33 -97 -44l28 46l131 171zM269 460l-221 65q0 17 25 45l205 -86q2 -3 -9 -24zM470 6q-21 -11 -53 -10q-19 2 -55 4v1l177 149l89 71zM250 408q-29 2 -124 22q-89 18 -109 18q-2 25 20 54l219 -69zM627 253
l-307 -250l-44 11q13 14 109 78q37 22 101 66l-29 -7l-222 -124q-20 6 -37 17l18 11l250 116l167 83l-4 4zM245 347l-242 16q-4 20 7 54l235 -41q4 -4 3 -20v-7zM12 293q-9 9 -9 45l246 -16q1 -5 2 -15l1 -3zM265 251l-233 -31q-18 29 -16 47l242 12q4 -1 12 -24zM78 140
q-12 14 -24 27q-16 21 -6 30l230 31q9 -4 23 -29zM331 143q-56 -26 -163 -79q-17 11 -36 24t-30 28l212 62q4 2 7 2q9 0 21 -10q16 -13 20 -15l-1 4q-1 -1 -1.5 -2t-28.5 -14z" />
    <glyph glyph-name="odieresis" unicode="&#xf6;" horiz-adv-x="887" 
d="M443 795q0 21 16.5 35.5t39.5 14.5q24 0 40.5 -14.5t16.5 -35.5t-16.5 -35.5t-40.5 -14.5q-23 0 -39.5 14.5t-16.5 35.5zM233 795q0 21 16.5 35.5t39.5 14.5q24 0 40.5 -14.5t16.5 -35.5t-16.5 -35.5t-40.5 -14.5q-23 0 -39.5 14.5t-16.5 35.5zM727 572l-42 -96l1 142
q5 -4 29 -32q5 -5 11.5 -5.5t6.5 -1.5q-1 -2 -6 -7zM710 462l34 87q23 -20 25 -46q-25 -21 -59 -41zM742 450q7 8 38 28q6 -5 8 -24zM613 666q12 -1 50 -25l5 -7v-141zM739 423q8 4 23 3q25 0 18 0q8 0 13 1q2 -11 4 -33q-28 7 -58 29zM523 694l53 -12l26 -69l35 -116z
M785 309q-36 51 -54 91q24 -11 33 -16q19 -11 29 -23zM618 476q-18 20 -44 56q-14 20 -61 79q10 -31 54 -112l-124 177l-19 32l61 -5l138 -246l2 3zM750 202q-11 70 -10 119l33 -54q-5 -23 -23 -65zM495 533l-139 145q-10 10 -24 30q11 2 29 2q5 0 13 -1t13 -1l200 -276
q-48 45 -92 101zM596 383q-53 29 -50 61q39 -37 61 -66zM428 567l-51 3l-143 117q10 7 29 10q11 1 34 5zM559 367q-4 5 -3 13q20 -8 53 -29q-17 6 -50 16zM555 327v12q35 -5 49 -13zM544 293v0l2 2l6 9l66 -4q-26 -6 -74 -7zM654 86l60 199l9 -124q-16 -20 -31 -41
q-19 -22 -38 -34zM328 544l-166 101q13 14 42 26l143 -108q4 -3 5 -6zM519 226q6 12 18 37q24 5 81 12q-43 -22 -99 -49zM300 511l-3 -2l-1 -2q-38 13 -100 40q-72 32 -99 42q0 6 8 14l15 15q2 3 6 8q14 -4 41 -14q33 -16 143 -85q0 -6 -10 -16zM608 53q-49 -33 -97 -44
l28 46l131 171zM269 460l-221 65q0 17 25 45l205 -86q2 -3 -9 -24zM470 6q-21 -11 -53 -10q-19 2 -55 4v1l177 149l89 71zM250 408q-29 2 -124 22q-89 18 -109 18q-2 25 20 54l219 -69zM627 253l-307 -250l-44 11q13 14 109 78q37 22 101 66l-29 -7l-222 -124q-20 6 -37 17
l18 11l250 116l167 83l-4 4zM245 347l-242 16q-4 20 7 54l235 -41q4 -4 3 -20v-7zM12 293q-9 9 -9 45l246 -16q1 -5 2 -15l1 -3zM265 251l-233 -31q-18 29 -16 47l242 12q4 -1 12 -24zM78 140q-12 14 -24 27q-16 21 -6 30l230 31q9 -4 23 -29zM331 143q-56 -26 -163 -79
q-17 11 -36 24t-30 28l212 62q4 2 7 2q9 0 21 -10q16 -13 20 -15l-1 4q-1 -1 -1.5 -2t-28.5 -14z" />
    <glyph glyph-name="otilde" unicode="&#xf5;" horiz-adv-x="887" 
d="M576 813q-41 -73 -105 -73q-27 0 -78.5 18t-78.5 18q-44 0 -74 -31q-4 4 -10.5 5t-9.5 3q43 86 124 86q25 0 70.5 -17t69.5 -17q50 0 76 18zM727 572l-42 -96l1 142q5 -4 29 -32q5 -5 11.5 -5.5t6.5 -1.5q-1 -2 -6 -7zM710 462l34 87q23 -20 25 -46q-25 -21 -59 -41z
M742 450q7 8 38 28q6 -5 8 -24zM613 666q12 -1 50 -25l5 -7v-141zM739 423q8 4 23 3q25 0 18 0q8 0 13 1q2 -11 4 -33q-28 7 -58 29zM523 694l53 -12l26 -69l35 -116zM785 309q-36 51 -54 91q24 -11 33 -16q19 -11 29 -23zM618 476q-18 20 -44 56q-14 20 -61 79
q10 -31 54 -112l-124 177l-19 32l61 -5l138 -246l2 3zM750 202q-11 70 -10 119l33 -54q-5 -23 -23 -65zM495 533l-139 145q-10 10 -24 30q11 2 29 2q5 0 13 -1t13 -1l200 -276q-48 45 -92 101zM596 383q-53 29 -50 61q39 -37 61 -66zM428 567l-51 3l-143 117q10 7 29 10
q11 1 34 5zM559 367q-4 5 -3 13q20 -8 53 -29q-17 6 -50 16zM555 327v12q35 -5 49 -13zM544 293v0l2 2l6 9l66 -4q-26 -6 -74 -7zM654 86l60 199l9 -124q-16 -20 -31 -41q-19 -22 -38 -34zM328 544l-166 101q13 14 42 26l143 -108q4 -3 5 -6zM519 226q6 12 18 37q24 5 81 12
q-43 -22 -99 -49zM300 511l-3 -2l-1 -2q-38 13 -100 40q-72 32 -99 42q0 6 8 14l15 15q2 3 6 8q14 -4 41 -14q33 -16 143 -85q0 -6 -10 -16zM608 53q-49 -33 -97 -44l28 46l131 171zM269 460l-221 65q0 17 25 45l205 -86q2 -3 -9 -24zM470 6q-21 -11 -53 -10q-19 2 -55 4v1
l177 149l89 71zM250 408q-29 2 -124 22q-89 18 -109 18q-2 25 20 54l219 -69zM627 253l-307 -250l-44 11q13 14 109 78q37 22 101 66l-29 -7l-222 -124q-20 6 -37 17l18 11l250 116l167 83l-4 4zM245 347l-242 16q-4 20 7 54l235 -41q4 -4 3 -20v-7zM12 293q-9 9 -9 45
l246 -16q1 -5 2 -15l1 -3zM265 251l-233 -31q-18 29 -16 47l242 12q4 -1 12 -24zM78 140q-12 14 -24 27q-16 21 -6 30l230 31q9 -4 23 -29zM331 143q-56 -26 -163 -79q-17 11 -36 24t-30 28l212 62q4 2 7 2q9 0 21 -10q16 -13 20 -15l-1 4q-1 -1 -1.5 -2t-28.5 -14z" />
    <glyph glyph-name="uacute" unicode="&#xfa;" horiz-adv-x="831" 
d="M472 592v22l206 87h63v-22zM473 641v6l84 54q51 2 64 1zM472 533v32q204 60 271 91v-66q-179 -40 -271 -57zM474 677v24h33zM743 505l-272 -19v20q231 45 272 57v-58zM472 445l-1 19q245 12 272 16l1 -62zM744 338q-45 13 -274 62v21l274 -29v-54zM470 362v15l274 -66
v-53zM736 164l-267 143l1 31l273 -110q-1 -42 -7 -64zM203 635q-15 -26 -49 -73l49 140h59q-35 -35 -59 -67zM169 545l103 129v-53zM213 540l60 38l1 -19zM697 87q-91 61 -229 165v26q70 -34 263 -141q-2 -16 -34 -50zM120 553l7 148h40zM187 499l2 2l87 32v-11zM217 481
l60 15v-16zM277 447q-28 5 -48 10h48v-10zM620 31q-24 19 -154 151v42l205 -158q-7 -12 -51 -35zM48 702h45v-168zM227 434l51 -15v-20zM243 393l35 -22v-10zM4 620v82h11l58 -207q-32 59 -69 125zM277 323l-30 37l31 -27zM519 1l-101 135q18 2 34 20l136 -137
q-49 -19 -69 -18zM235 336q19 -22 42 -46v-32zM6 515v37l55 -84zM6 417v63l89 -75zM420 -4l-78 143q17 -5 43 -4q80 -109 99 -138zM357 -8q-23 0 -34 2l-101 313l166 -313q-10 -1 -31 -2zM4 347v42l97 -10zM215 16l-27 300l14 -31l89 -285q-27 2 -76 16zM4 264v53l111 40z
M34 149q-24 49 -28 80l129 108q-30 -58 -101 -188zM126 56q8 63 40 212l19 -244q-37 17 -59 32zM96 77l-43 44l91 172q-16 -81 -48 -216zM244 768l224 76q2 0 23 -85q-235 -25 -235 -27t-12 36z" />
    <glyph glyph-name="ugrave" unicode="&#xf9;" horiz-adv-x="831" 
d="M472 598v12l206 91h63v-22zM473 641v6l84 54l50 2q5 0 14 -1zM472 539v32q239 70 271 85v-60q-179 -40 -271 -57zM474 677v24h33zM743 511l-272 -19v20q231 45 272 57v-58zM472 451l-1 19q245 12 272 16l1 -68zM744 338q-45 13 -274 62v21l274 -29v-54zM470 362v15
l274 -66v-53zM736 164l-267 143l1 31l273 -110q-1 -42 -7 -64zM154 568l49 134h59q-23 -23 -55 -66q-39 -52 -53 -68zM169 551l103 123v-57zM213 546l60 38l1 -19zM697 87q-91 61 -229 165v26q70 -34 263 -141q-2 -16 -34 -50zM120 559l7 142h40zM187 505l2 2l87 32v-11z
M217 487l60 15v-16zM277 453q-28 5 -48 10h48v-10zM620 31q-24 19 -154 151v42l205 -158q-7 -12 -51 -35zM48 702h45v-162zM227 440l51 -21v-20zM243 393l35 -22v-10zM4 616v86h11l58 -201q-30 53 -69 115zM277 323l-30 37l31 -27zM519 1l-101 135q18 2 34 20l136 -137
q-49 -19 -69 -18zM235 336q19 -22 42 -46v-32zM6 521v37l55 -84zM6 417v69l89 -81zM420 -4l-78 143q17 -5 43 -4q80 -109 99 -138zM357 -8q-23 0 -34 2l-101 313l166 -313q-10 -1 -31 -2zM4 347v42l97 -10zM215 16l-27 300l14 -31l89 -285q-27 2 -76 16zM4 264v53l111 40z
M34 149q-24 49 -28 80l129 108q-30 -58 -101 -188zM126 56q8 63 40 212l19 -244q-37 17 -59 32zM96 77l-43 44l91 172q-16 -81 -48 -216zM487 774l-224 70q-2 0 -23 -79q236 -25 236 -27t11 36z" />
    <glyph glyph-name="ucircumflex" unicode="&#xfb;" horiz-adv-x="831" 
d="M472 596v12l206 91h63v-22zM473 639v6l84 54l50 2q5 0 14 -1zM472 533v32q216 64 271 89v-60q-92 -22 -271 -61zM474 675v24h33zM743 505l-272 -19v20q231 45 272 57v-58zM472 445l-1 19q245 12 272 16l1 -62zM744 338q-45 13 -274 62v21l274 -29v-54zM470 362v15
l274 -66v-53zM736 164l-267 143l1 31l273 -110q-1 -42 -7 -64zM203 629q-15 -23 -49 -67l49 138h59q-23 -24 -59 -71zM169 545l103 127v-57zM213 540l60 38l1 -19zM697 87q-91 61 -229 165v26q70 -34 263 -141q-2 -16 -34 -50zM120 553l7 146h40zM187 499l2 2l87 32v-11z
M217 481l60 15v-16zM277 447q-28 5 -48 10h48v-10zM620 31q-24 19 -154 151v42l205 -158q-7 -12 -51 -35zM48 700h45v-166zM227 434l51 -15v-20zM243 393l35 -22v-10zM4 614v86h11l58 -205q-57 99 -69 119zM277 323l-30 37l31 -27zM519 1l-101 135q18 2 34 20l136 -137
q-49 -19 -69 -18zM235 336q19 -22 42 -46v-32zM6 515v37l55 -84zM6 417v63l89 -75zM420 -4l-78 143q17 -5 43 -4q80 -109 99 -138zM357 -8q-23 0 -34 2l-101 313l166 -313q-10 -1 -31 -2zM4 347v42l97 -10zM215 16l-27 300l14 -31l89 -285q-27 2 -76 16zM4 264v53l111 40z
M34 149q-24 49 -28 80l129 108q-30 -58 -101 -188zM126 56q8 63 40 212l19 -244q-37 17 -59 32zM96 77l-43 44l91 172q-16 -81 -48 -216zM365 866l-173 -101l10 -33l163 58l163 -58l10 30z" />
    <glyph glyph-name="udieresis" unicode="&#xfc;" horiz-adv-x="831" 
d="M472 597v12l206 91h63v-22zM473 640v6l84 54l50 2q5 0 14 -1zM472 538v32q239 70 271 85v-60q-179 -40 -271 -57zM474 676v24h33zM743 510l-272 -19v20q231 45 272 57v-58zM472 450l-1 19q245 12 272 16l1 -62zM744 338q-36 12 -274 67v21l274 -29v-59zM470 362v20
l274 -71v-53zM736 164l-267 143l1 31l273 -110q-1 -42 -7 -64zM154 567l49 134h59q-23 -23 -55 -66q-39 -52 -53 -68zM169 550l103 123v-57zM213 545l60 38l1 -19zM697 87q-91 61 -229 165v26q70 -34 263 -141q-2 -16 -34 -50zM120 558l7 142h40zM187 504l2 2l87 32v-11z
M217 486l60 15v-16zM277 452q-28 5 -48 10h48v-10zM620 31q-24 19 -154 151v42l205 -158q-7 -12 -51 -35zM48 701h45v-162zM227 439l51 -15v-20zM243 398l35 -22v-15zM4 615v86h11l58 -201q-30 53 -69 115zM277 323l-30 37l31 -27zM519 1l-101 135q18 2 34 20l136 -137
q-49 -19 -69 -18zM235 336q19 -22 42 -46v-32zM6 520v37l55 -84zM6 422v63l89 -75zM420 -4l-78 143q17 -5 43 -4q80 -109 99 -138zM357 -8q-23 0 -34 2l-101 313l166 -313q-10 -1 -31 -2zM4 347v47l97 -10zM215 16l-27 300l14 -31l89 -285q-27 2 -76 16zM4 264v53l111 40z
M34 149q-24 49 -28 80l129 108q-30 -58 -101 -188zM126 56q8 63 40 212l19 -244q-37 17 -59 32zM96 77l-43 44l91 172q-16 -81 -48 -216zM423 795q0 21 16.5 35.5t39.5 14.5q24 0 40.5 -14.5t16.5 -35.5t-16.5 -35.5t-40.5 -14.5q-23 0 -39.5 14.5t-16.5 35.5zM213 795
q0 21 16.5 35.5t39.5 14.5q24 0 40.5 -14.5t16.5 -35.5t-16.5 -35.5t-40.5 -14.5q-23 0 -39.5 14.5t-16.5 35.5z" />
    <glyph glyph-name="dagger" unicode="&#x2020;" horiz-adv-x="25" 
 />
    <glyph glyph-name="degree" unicode="&#xb0;" horiz-adv-x="368" 
d="M153 703q60 0 103 -41t43 -100t-43 -100.5t-103 -41.5t-103 41.5t-43 100.5t43 100t103 41zM153 653q-40 0 -68 -27t-28 -64q0 -38 28 -65t68 -27t68 27t28 65q0 37 -28 64t-68 27z" />
    <glyph glyph-name="cent" unicode="&#xa2;" horiz-adv-x="653" 
d="M252 89l-34 5l-101 189l215 -282l-76 -2zM133 283l234 -201h-21l-1 -46zM511 511l-125 -13l125 46v-33zM511 452q-29 27 -74 43l74 2v-45zM300 701l-57 -86v86h57zM511 559l-337 -131l306 164l31 -13v-20zM461 599l-301 -169l251 183zM335 649q-33 -39 -189 -202l-7 -2
q115 161 186 256h10v-52zM389 615l-251 -186l197 203l-1 -14zM511 216l-34 10l34 25v-35zM241 611l-113 -163l57 143zM511 179l-86 26q7 -2 21 1.5t20 9.5l43 -13zM270 452q-9 -4 -27 -21l-70 -15zM166 582l-62 -162l9 121zM509 134l-146 80l146 -50v-30zM233 416
q-15 -13 -13 -23l-53 9zM216 378q-10 -18 -2 -37l-58 51zM214 328l-54 -2l18 11l-18 35zM95 530l-4 -154l-31 114zM498 122l-42 -18l-302 198q67 -31 86 -41t258 -139zM259 266l-105 46l65 5q5 -19 40 -51zM440 98l-52 -12l-235 197zM81 366l-58 72l23 38zM83 347l-77 35
l12 38zM81 334l-75 -11l-1 42zM196 104l-71 39l-20 138zM81 321l-63 -55l-10 38zM84 310l-32 -106l-26 46zM107 151l-45 36l30 101z" />
    <glyph glyph-name="sterling" unicode="&#xa3;" horiz-adv-x="697" 
d="M626 565l-109 -35l-40 18l148 56zM615 623l-165 -65l-44 8l2 4l178 84zM627 513l-61 -9l-25 19l86 22v-32zM625 456l-37 34h37v-34zM555 672q-56 -35 -169 -102q-18 -4 -50 -15q-14 -7 -114 -63l272 203zM460 700q-63 -52 -125 -105q-104 -87 -120 -90l181 204zM364 712
l-155 -189l86 192zM198 551v155l68 8q2 -1 -68 -163zM177 567l-58 108l56 24zM288 509l-11 -47l-70 8zM154 568l-96 68l41 27zM640 74l-129 76h129v-76zM281 403q-36 21 -80 53l78 -11zM131 559l-123 13l31 52zM639 -2l-52 1l-139 149h29l163 -106zM93 539l-100 -47l2 56z
M550 1h-81l-104 150q23 1 52 1zM93 513l-82 -98q-15 17 -16 57zM477 391v-65h-182q3 -6 6 -11q5 -10 4 -22q-7 12 -24 35h-17l38 -53q0 -16 -4 -26l-56 80h-16l63 -98q-4 -9 -12 -23l-64 121l-17 1l69 -142q-5 -10 -14 -26l-66 167h-29q10 -54 10 -110q0 -119 -39 -218h-59
q79 212 75 328h-22q10 -132 -87 -325l-33 -3v90q21 35 71 108q11 16 20 63q5 34 11 67h-24q-6 -65 -17 -94v46q0 34 -11 50l-74 3l-1 22q59 5 61 5l-17 36l72 86l-49 -122l20 1l32 78l-12 -76l22 1l13 69l2 -68l21 2l-3 44q5 -7 13 -44l16 2l-9 40l17 -40l15 3l-10 40
l27 -40h12l-29 44l14 -10l30 -33l23 3q-17 18 -67 63q84 -47 101 -61zM440 2l-53 -1l-79 150h33zM290 1h-46l-75 328zM285 151l76 -150h-48l-58 149zM216 1l-60 1q20 38 23 85q0 55 1 111zM461 348v22l-467 -26z" />
    <glyph glyph-name="section" unicode="&#xa7;" horiz-adv-x="19" 
 />
    <glyph glyph-name="bullet" unicode="&#x2022;" horiz-adv-x="524" 
d="M54 302q0 65 47 111t113 46q67 0 113.5 -46t46.5 -111t-46.5 -111t-113.5 -46q-66 0 -113 46t-47 111z" />
    <glyph glyph-name="germandbls" unicode="&#xdf;" horiz-adv-x="19" 
 />
    <glyph glyph-name="registered" unicode="&#xae;" horiz-adv-x="395" 
d="M172 378q-64 0 -109.5 46.5t-45.5 111.5q0 64 45.5 109.5t109.5 45.5t108 -46t44 -111q0 -64 -44.5 -110t-107.5 -46zM172 657q-52 1 -86.5 -34.5t-34.5 -88.5q0 -51 36 -87t85 -36t84.5 36t35.5 87t-35.5 86.5t-84.5 36.5zM177 624q12 5 34 -4q28 -11 28 -40
q0 -44 -44 -50l47 -73h-38l-47 72h-18v-72h-32v167h70zM177 592h-36v-30h40q25 0 25 18q0 12 -29 12z" />
    <glyph glyph-name="copyright" unicode="&#xa9;" horiz-adv-x="778" 
d="M366 -6q-147 0 -249.5 103t-102.5 251t102.5 251.5t249.5 103.5t250 -103.5t103 -251.5q0 -147 -103 -250.5t-250 -103.5zM366 640q-118 0 -204 -85t-86 -207q0 -121 86 -206t204 -85t204 85t86 206q0 122 -86 207t-204 85zM480 412q-22 81 -104 81q-62 0 -98.5 -41
t-36.5 -103q0 -57 32 -97q37 -45 101 -45q86 0 107 79h63q-15 -69 -60.5 -105.5t-108.5 -36.5q-90 0 -143.5 58.5t-53.5 148.5q0 87 55 146.5t143 59.5q63 0 109 -37q48 -40 60 -108h-65z" />
    <glyph glyph-name="trademark" unicode="&#x2122;" horiz-adv-x="492" 
d="M379 640l-60 -151h-23l-57 145v-145h-38v206h54l53 -133l54 133h54v-206h-37v151zM100 656v-167h-38v167h-65v39h167v-39h-64z" />
    <glyph glyph-name="acute" unicode="&#xb4;" 
d="M320 768l224 76q2 0 23 -85q-235 -25 -235 -27t-12 36z" />
    <glyph glyph-name="dieresis" unicode="&#xa8;" horiz-adv-x="473" 
d="M273 795q0 21 16.5 35.5t39.5 14.5q24 0 40.5 -14.5t16.5 -35.5t-16.5 -35.5t-40.5 -14.5q-23 0 -39.5 14.5t-16.5 35.5zM63 795q0 21 16.5 35.5t39.5 14.5q24 0 40.5 -14.5t16.5 -35.5t-16.5 -35.5t-40.5 -14.5q-23 0 -39.5 14.5t-16.5 35.5z" />
    <glyph glyph-name="AE" unicode="&#xc6;" horiz-adv-x="1227" 
d="M672 388l-22 311q14 0 53 1zM569 699q19 -1 55 1l26 -350zM481 700l61 -1l103 -408zM713 269l149 165h49zM709 249l239 186h47zM723 218l100 39l13 -35zM386 699h64l166 -402zM717 210l126 -11l18 -46zM296 700l55 -1l271 -460zM425 446l-177 200l15 45l168 -226z
M735 188l415 -188h-115zM837 -1l-85 119l128 -118zM514 255h31l-34 104l110 -162zM410 402l-188 172l15 47l180 -200zM765 0l-20 95l59 -96zM714 -1l12 81l14 -81h-26zM392 364l-195 150l16 38l186 -169zM412 258l58 -2l130 -75zM684 0h-32l51 62zM602 54l-7 18l94 14z
M380 326l-208 123l18 40l195 -148zM621 2l-13 32l73 32zM119 301l19 52l483 -197zM364 280l-217 97l17 41l209 -115zM608 141l-513 93l16 45zM74 172l13 40l549 -87zM590 90l-5 16l-535 -1l17 46l599 -49zM287 72l-253 -17l10 31l251 2zM257 1h-92l101 18zM271 33l-196 -32
h-63l15 29l252 20zM726 237l83 60l8 -24l-92 -42zM837 312l195 122l1 -50l-151 -71zM923 315q31 12 113 43l-1 -40q-29 -1 -112 -3zM737 159l263 -159h-80l-183 152v7zM920 127h228l2 -88zM945 563l107 137h67l-141 -137h-33zM716 297l112 135h-34zM706 320l61 112l-14 41z
M691 338l44 362l55 1l-39 -143l-24 -1q12 -48 12 -45zM830 698l67 1l-69 -138q-23 1 -43 -1zM1007 698h-66l-76 -136q41 2 41 0zM1155 697v-133h-140z" />
    <glyph glyph-name="Oslash" unicode="&#xd8;" horiz-adv-x="863" 
d="M725 547l-30 -71l-1 137q41 -30 41 -46q0 -10 -10 -20zM720 462l33 86q25 -21 26 -45q-25 -21 -59 -41zM752 450q7 8 38 28q6 -5 8 -24zM613 666q12 -1 50 -25l5 -7v-141zM749 423q8 4 23 3q25 0 18 0q8 0 13 1q2 -11 4 -33q-28 7 -58 29zM524 689l-8 8l60 -15l26 -69
l35 -116zM795 309q-36 51 -54 91q24 -11 33 -16q19 -11 29 -23zM760 202q-11 70 -10 119l33 -54q-5 -23 -23 -65zM495 533l-139 145q-10 10 -24 30q11 2 29 2q5 0 13 -1t13 -1l200 -276q-48 45 -92 101zM596 383q-53 29 -50 61q39 -37 61 -66zM428 567l-51 3l-143 117
q10 7 29 10q11 1 34 5zM559 367q-4 5 -3 13q20 -8 53 -29q-17 6 -50 16zM555 327v12q35 -5 49 -13zM544 293v0l2 2l6 9l66 -4q-26 -6 -74 -7zM654 86l70 199l9 -124q-45 -54 -79 -75zM328 544l-166 101q13 14 42 26l143 -108q4 -3 5 -6zM519 226q6 12 18 37q24 5 81 12
q-43 -22 -99 -49zM300 511l-3 -2l-1 -2q-38 13 -100 40q-72 32 -99 42q0 7 17 20q21 16 23 18q43 -16 87 -44t86 -56q0 -6 -10 -16zM608 53q-49 -33 -97 -44l28 46l131 171zM269 460l-221 65q0 17 25 45l205 -86q2 -3 -9 -24zM470 6q-21 -11 -53 -10q-19 2 -55 4v1l177 149
l89 71zM250 408q-29 2 -124 22q-89 18 -109 18q-2 25 20 54l219 -69zM627 253l-307 -250l-44 11q54 54 213 149q-50 -23 -254 -136q-20 6 -37 17l18 11l218 105l32 11l167 83l-4 4zM245 347l-242 16q-4 20 7 54l235 -41q4 -4 3 -20v-7zM12 293q-9 9 -9 45l246 -16
q1 -5 2 -15l1 -3zM265 251l-233 -31q-18 29 -16 47l242 12q4 -1 12 -24zM78 140q-12 14 -24 27q-16 21 -6 30l230 31q9 -4 23 -29zM381 160q-19 -7 -48 -21q-38 -15 -165 -75q-17 11 -36 24t-30 28l212 62q11 5 24 -5q4 -3 19 -10q4 -4 24 -3zM478 546l44 -44l-195 -330
l-41 49zM598 749l51 -29l-36 -58l-50 29zM179 50l51 -29l-36 -57l-50 29zM423 709l205 -281l-148 272q-15 4 -29 8t-28 1z" />
    <glyph glyph-name="plusminus" unicode="&#xb1;" horiz-adv-x="20" 
 />
    <glyph glyph-name="yen" unicode="&#xa5;" horiz-adv-x="761" 
d="M712 701q-32 -110 -266 -357l193 358zM614 701l-200 -380l136 380h64zM524 701l-111 -327l56 327h55zM446 701l-63 -388q2 90 19 264q3 22 20 62zM382 508l-15 -163l-120 356h26l82 -264zM331 396l-156 305h52zM352 336l-267 365h64zM629 534q-22 -61 -70 -130
q-57 -80 -107 -100h27l46 31l-19 -31h120v-83h-135q0 -9 -1 -37h136v-83h-139v-17l-8 17h-18l29 -65v-35h-37l-16 100h-21l17 -100h-52l13 100h-24l-12 -101h-59l48 101h-16l-60 -101l-49 1v14l89 86h-30l-59 -54v54h-135v83h138l-1 37h-137v83h118l-117 237l159 -237h23
l-267 397h49l230 -397h20l-192 337q62 -86 123 -171q105 -147 102 -161l-34 41l4 -46h129zM471 184l-8 37h-52l29 -37h31zM598 251v23h-479v-23h479zM414 183l-23 41h-24q0 -2 8 -41h39zM351 184q0 14 -3 37h-46l29 -37h20zM598 131v23h-479v-23h479zM293 184q-7 14 -17 37
h-27v-37h44z" />
    <glyph glyph-name="mu" unicode="&#xb5;" horiz-adv-x="720" 
d="M196 333l122 365h13v-77zM165 307l-2 10l107 381h26zM561 144l77 -1v-27zM154 364l60 334h31zM212 316l119 239v-73zM133 369l17 329l36 1zM637 55l-172 88h47l126 -51zM225 297l233 309v-147zM244 285l91 64v-44zM113 341l-28 358l34 -1zM384 142l37 -1l218 -114v-25
h-47l-196 133q-8 5 -12 7zM255 264l80 18v-27zM5 698h48l44 -387zM335 214l-76 30l76 -13v-17zM246 215l309 -213h-87zM263 223l72 -33v-14zM3 423v164l86 -328zM399 2l-121 157l162 -158zM316 2l-59 148l109 -148h-50zM246 1l-12 147l55 -146zM3 285l1 79l93 -158zM173 2
l42 135l3 -136zM4 200l-1 54l98 -80zM143 2h-68l104 135q10 12 22 25zM3 136v36l93 -18zM3 66v43l114 24zM47 2h-44v32l151 105z" />
    <glyph glyph-name="mu" unicode="&#x3bc;" horiz-adv-x="720" 
d="M196 333l122 365h13v-77zM165 307l-2 10l107 381h26zM561 144l77 -1v-27zM154 364l60 334h31zM212 316l119 239v-73zM133 369l17 329l36 1zM637 55l-172 88h47l126 -51zM225 297l233 309v-147zM244 285l91 64v-44zM113 341l-28 358l34 -1zM384 142l37 -1l218 -114v-25
h-47l-196 133q-8 5 -12 7zM255 264l80 18v-27zM5 698h48l44 -387zM335 214l-76 30l76 -13v-17zM246 215l309 -213h-87zM263 223l72 -33v-14zM3 423v164l86 -328zM399 2l-121 157l162 -158zM316 2l-59 148l109 -148h-50zM246 1l-12 147l55 -146zM3 285l1 79l93 -158zM173 2
l42 135l3 -136zM4 200l-1 54l98 -80zM143 2h-68l104 135q10 12 22 25zM3 136v36l93 -18zM3 66v43l114 24zM47 2h-44v32l151 105z" />
    <glyph glyph-name="ordfeminine" unicode="&#xaa;" horiz-adv-x="795" 
d="M109 701l112 -150h-34l-170 150h92zM189 701l79 -150h-24l-110 150h55zM269 701l39 -147h-23l-75 147h59zM348 704l9 -277l-64 273zM377 701h66l-69 -230zM469 700l-69 -203l170 204zM426 497l242 135l38 69h-104zM161 548h-26l-115 64l-1 63zM20 589l77 -41h-77v41z
M647 582l-54 -85l-151 -10zM581 477l-145 -4l117 -34zM291 494l43 -93l-52 67zM446 450l100 -30l-33 -53zM270 450l52 -57l-70 32zM244 407l84 -33l-108 -9zM432 370l13 -121l-51 -70zM342 362l-175 -78l43 63zM72 145l76 114l190 87zM353 332l-326 -331h-31l57 101z
M365 321l-220 -319l-77 -1zM386 318l-142 -316l-77 -3zM408 332l-83 -331l-60 -2zM423 156l-8 -155l-63 1l34 154h37zM481 156l23 -155l-65 -2l3 157h39zM501 156h30l45 -155h-46zM588 156l74 -155h-57l-55 155h38zM605 159l100 -98l1 -57h-20zM705 158l1 -62l-75 61z
M464 277l-26 122l43 -96zM492 329l9 23l-66 81zM299 508l12 26q29 -121 29 -115q0 5 -41 89zM352 746l173 101l-9 33l-164 -53l-163 53l-10 -30z" />
    <glyph glyph-name="ordmasculine" unicode="&#xba;" horiz-adv-x="795" 
d="M109 701l112 -150h-34l-170 150h92zM189 701l79 -150h-24l-110 150h55zM269 701l39 -147h-23l-75 147h59zM348 704l9 -277l-64 273zM377 701h66l-69 -230zM469 700l-69 -203l170 204zM426 497l242 135l38 69h-104zM161 548h-26l-115 64l-1 63zM20 589l77 -41h-77v41z
M647 582l-54 -85l-151 -10zM581 477l-145 -4l117 -34zM291 494l43 -93l-52 67zM446 450l100 -30l-33 -53zM270 450l52 -57l-70 32zM244 407l84 -33l-108 -9zM432 370l13 -121l-51 -70zM342 362l-175 -78l43 63zM72 145l76 114l190 87zM353 332l-326 -331h-31l57 101z
M365 321l-220 -319l-77 -1zM386 318l-142 -316l-77 -3zM408 332l-83 -331l-60 -2zM423 156l-8 -155l-63 1l34 154h37zM481 156l23 -155l-65 -2l3 157h39zM501 156h30l45 -155h-46zM588 156l74 -155h-57l-55 155h38zM605 159l100 -98l1 -57h-20zM705 158l1 -62l-75 61z
M464 277l-26 122l43 -96zM492 329l9 23l-66 81zM299 508l12 26q29 -121 29 -115q0 5 -41 89zM352 746l173 101l-9 33l-164 -53l-163 53l-10 -30z" />
    <glyph glyph-name="ae" unicode="&#xe6;" horiz-adv-x="1227" 
d="M672 388l-22 311q14 0 53 1zM569 699q19 -1 55 1l26 -350zM481 700l61 -1l103 -408zM713 269l149 165h49zM709 249l239 186h47zM723 218l100 39l13 -35zM386 699h64l166 -402zM717 210l126 -11l18 -46zM296 700l55 -1l271 -460zM425 446l-177 200l15 45l168 -226z
M735 188l415 -188h-115zM837 -1l-85 119l128 -118zM514 255h31l-34 104l110 -162zM410 402l-188 172l15 47l180 -200zM765 0l-20 95l59 -96zM714 -1l12 81l14 -81h-26zM392 364l-195 150l16 38l186 -169zM412 258l58 -2l130 -75zM684 0h-32l51 62zM602 54l-7 18l94 14z
M380 326l-208 123l18 40l195 -148zM621 2l-13 32l73 32zM119 301l19 52l483 -197zM364 280l-217 97l17 41l209 -115zM608 141l-513 93l16 45zM74 172l13 40l549 -87zM590 90l-5 16l-535 -1l17 46l599 -49zM287 72l-253 -17l10 31l251 2zM257 1h-92l101 18zM271 33l-196 -32
h-63l15 29l252 20zM726 237l83 60l8 -24l-92 -42zM837 312l195 122l1 -50l-151 -71zM923 315q31 12 113 43l-1 -40q-29 -1 -112 -3zM737 159l263 -159h-80l-183 152v7zM920 127h228l2 -88zM945 563l107 137h67l-141 -137h-33zM716 297l112 135h-34zM706 320l61 112l-14 41z
M691 338l44 362l55 1l-39 -143l-24 -1q12 -48 12 -45zM830 698l67 1l-69 -138q-23 1 -43 -1zM1007 698h-66l-76 -136q41 2 41 0zM1155 697v-133l-141 1z" />
    <glyph glyph-name="oslash" unicode="&#xf8;" horiz-adv-x="877" 
d="M725 547l-30 -71l-1 137q41 -30 41 -46q0 -10 -10 -20zM720 462l33 86q25 -21 26 -45q-25 -21 -59 -41zM752 450q7 8 38 28q6 -5 8 -24zM613 666q12 -1 50 -25l5 -7v-141zM749 423q8 4 23 3q25 0 18 0q8 0 13 1q2 -11 4 -33q-28 7 -58 29zM523 694l53 -12l26 -69l35 -116
zM795 309q-36 51 -54 91q24 -11 33 -16q19 -11 29 -23zM618 476q-18 20 -44 56q-14 20 -61 79q10 -31 54 -112l-124 177l-19 32l61 -5l138 -246l2 3zM760 202q-11 70 -10 119l33 -54q-5 -23 -23 -65zM495 533l-139 145q-10 10 -24 30q11 2 29 2q5 0 13 -1t13 -1l200 -276
q-48 45 -92 101zM596 383q-53 29 -50 61q39 -37 61 -66zM428 567l-51 3l-143 117q10 7 29 10q11 1 34 5zM559 367q-4 5 -3 13q20 -8 53 -29q-17 6 -50 16zM555 327v12q35 -5 49 -13zM544 293v0l2 2l6 9l66 -4q-26 -6 -74 -7zM654 86l70 199l9 -124q-45 -54 -79 -75zM328 544
l-166 101q13 14 42 26l143 -108q4 -3 5 -6zM519 226q6 12 18 37q24 5 81 12q-43 -22 -99 -49zM300 511l-3 -2l-1 -2q-38 13 -100 40q-72 32 -99 42q0 6 8 14l15 15q2 3 6 8q14 -4 41 -14q33 -16 143 -85q0 -6 -10 -16zM608 53q-49 -33 -97 -44l28 46l131 171zM269 460
l-221 65q0 17 25 45l205 -86q2 -3 -9 -24zM470 6q-21 -11 -53 -10q-19 2 -55 4v1l177 149l89 71zM250 408q-29 2 -124 22q-89 18 -109 18q-2 25 20 54l219 -69zM627 253l-307 -250l-44 11q13 14 109 78q23 16 53 41l-33 -6l-170 -100q-20 6 -37 17l18 11l218 105l32 11
l167 83l-4 4zM245 347l-242 16q-4 20 7 54l235 -41q4 -4 3 -20v-7zM12 293q-9 9 -9 45l246 -16q1 -5 2 -15l1 -3zM265 251l-233 -31q-18 29 -16 47l242 12q4 -1 12 -24zM78 140q-12 14 -24 27q-16 21 -6 30l230 31q9 -4 23 -29zM331 143q-56 -26 -163 -79q-17 11 -36 24
t-30 28l212 62q11 5 25 -6l23 -17l-1 4q-1 -1 -1.5 -2t-28.5 -14zM449 152l-34 -24l9 -11l40 30zM478 546l44 -44l-195 -330l-41 49zM598 749l51 -29l-36 -58l-50 29zM179 50l51 -29l-36 -57l-50 29z" />
    <glyph glyph-name="questiondown" unicode="&#xbf;" horiz-adv-x="593" 
d="M161 26l-55 -118l-41 28zM146 33l-98 -80q-26 28 -35 50zM174 22v-143l-43 15q3 14 43 128zM25 177l96 -99l-116 56zM191 31l52 -161l-43 6zM316 -128l-49 -2q0 -1 -62 160q11 -10 111 -158zM84 219l39 -126l-77 105zM380 -115l-40 -9l-125 168q32 -32 165 -159zM108 228
l26 7l-7 -121zM455 -91q-29 -14 -53 -20l-195 176zM292 80l-1 -15l-87 26q44 -1 88 -11zM307 116l-11 -24l-85 10zM563 -21l-151 41l-19 -9l137 -60zM475 -81q13 5 34 20q-55 25 -135 66q-18 -6 -52 8q-8 8 -25 31q-10 5 -38 14t-44 16q129 -78 260 -155zM421 190v-29
q-16 4 -31 4q-29 0 -54 -15q-20 -11 -20 -16q-29 -4 -107 -18zM279 342h37l-140 -189zM443 42l21 21l92 -68l-131 34zM421 337l4 -1l-1 -55l-223 -141q30 28 220 197zM350 342l50 1q-72 -64 -213 -194zM204 548l-17 -106q-11 27 -11 48q0 34 28 58zM234 563q26 18 41 15
q-29 -77 -62 -170l-15 17zM297 579q22 7 38 -1l-77 -189l-23 9zM279 382l84 194q24 -2 29.5 -6.5t10.5 -8.5l-106 -181zM422 539l16 -17l-98 -144l-24 4zM449 492q-6 -22 -13 -46t-22 -39q-19 -18 -45 -27zM247 342l-83 -193l43 193h40zM170 237l-24 -105l3 105h21zM131 46
q-126 -28 -126 -26q0 1 -3 21.5t-3 21.5q0 2 132 -17zM132 61l-134 23l3 35zM423 220v40l-216 -129z" />
    <glyph glyph-name="exclamdown" unicode="&#xa1;" horiz-adv-x="351" 
d="M15 -99l116 58l-93 -94h-34zM24 -24l85 -16l-94 -35zM156 -46l-56 -92h-35zM176 -46l-21 -92h-30zM34 37l66 -60l-73 15zM199 -39l14 -96h-36zM55 134l44 -135l-58 58zM285 -135h-47l-25 122zM282 -29l19 -100l-83 142zM85 289l1 -10q1 -11 16 -237l-39 140zM270 40
l7 -41l-79 45zM263 96l5 -35h-81zM126 327l-13 -234l-10 237zM249 176l10 -58l-91 -50zM148 327l20 4l-38 -225zM233 272l12 -72l-87 -116zM197 330h26l4 -19l-81 -208zM28 511l11 -82q-16 24 -21 44q4 17 10 38zM74 548l7 -157l-23 20l-11 117zM145 571l-15 -199l-31 12
l-4 174q27 12 50 13zM169 569q23 2 47 -8l-34 -188l-36 -3zM241 553q25 -12 30 -21l-46 -144l-23 -10zM284 508q10 -14 10 -33t-10 -38q-8 -11 -16.5 -22.5t-20.5 -15.5q6 28 37 109z" />
    <glyph glyph-name="logicalnot" unicode="&#xac;" horiz-adv-x="20" 
 />
    <glyph glyph-name="guillemotleft" unicode="&#xab;" horiz-adv-x="449" 
d="M54 321l98 -101l-49 104l42 89zM201 499l-67 -176l73 -184l-202 176zM234 321l98 -101l-49 104l42 89zM381 499l-67 -176l73 -184l-202 176z" />
    <glyph glyph-name="guillemotright" unicode="&#xbb;" horiz-adv-x="449" 
d="M337 321l-98 -101l49 104l-42 89zM190 499l67 -176l-72 -184l202 176zM157 321l-98 -101l49 104l-42 89zM10 499l67 -176l-72 -184l202 176z" />
    <glyph glyph-name="ellipsis" unicode="&#x2026;" horiz-adv-x="1158" 
d="M584 217q28 0 63 -20q-1 -1 -71 -88zM559 216v-111l-47 93q18 11 47 18zM551 87l-59 97q-14 -13 -28 -46zM662 188q18 -13 26 -35l-87 -40zM693 137q5 -13 12 -52l-101 14q3 2 89 38zM558 63q-30 16 -99 54q-6 -24 1 -52q46 0 98 -2zM629 80l72 -11q-4 -14 -25 -46
q-20 16 -47 57zM620 63q13 -18 40 -52q-17 -20 -56 -23zM509 7q-29 18 -37 39l97 -1q-21 -13 -60 -38zM597 48l-12 -60q-6 -2 -13 -2q-18 0 -42 8zM984 217q28 0 63 -20q-1 -1 -71 -88zM959 216v-111l-47 93q18 11 47 18zM951 87l-59 97q-14 -13 -28 -46zM1062 188
q18 -13 26 -35l-87 -40zM1093 137q5 -13 12 -52l-101 14q3 2 89 38zM958 63q-30 16 -99 54q-6 -24 1 -52q46 0 98 -2zM1029 80l72 -11q-4 -14 -25 -46q-20 16 -47 57zM1020 63q13 -18 40 -52q-17 -20 -56 -23zM909 7q-29 18 -37 39l97 -1q-21 -13 -60 -38zM997 48l-12 -60
q-6 -2 -13 -2q-18 0 -42 8zM184 217q28 0 63 -20q-1 -1 -71 -88zM159 216v-111l-47 93q18 11 47 18zM151 87l-59 97q-14 -13 -28 -46zM262 188q18 -13 26 -35l-87 -40zM293 137q5 -13 12 -52l-101 14q3 2 89 38zM158 63q-30 16 -99 54q-6 -24 1 -52q46 0 98 -2zM229 80
l72 -11q-4 -14 -25 -46q-20 16 -47 57zM220 63q13 -18 40 -52q-17 -20 -56 -23zM109 7q-29 18 -37 39l97 -1q-21 -13 -60 -38zM197 48l-12 -60q-6 -2 -13 -2q-18 0 -42 8z" />
    <glyph glyph-name="nonbreakingspace" unicode="&#xa0;" horiz-adv-x="300" 
 />
    <glyph glyph-name="Agrave" unicode="&#xc0;" 
d="M659 312l-19 387h16l26 -97zM681 338l18 215l18 -67zM559 699q19 -1 55 1l28 -365zM685 306l46 139l12 -44zM697 286l56 85l10 -29zM471 700l61 -1l103 -408zM716 268l55 50l9 -25zM728 242l60 29l4 -20zM717 217l84 10l8 -27zM376 699h64l173 -419zM734 186l83 -15
l15 -51zM284 698l57 1l271 -460zM415 446l-177 200l15 45l168 -226zM725 162l118 -70l12 -46zM827 0l-107 136l150 -135zM538 254l-3 6l-34 99l122 -178zM400 402l-188 172l15 47l180 -200zM755 1l-32 106l71 -107zM704 1l12 79l14 -79h-26zM382 364l-195 150l16 38
l186 -169zM402 258l90 -1l121 -89zM674 1h-32l52 89zM589 54l-7 18l66 12zM370 326l-208 123l18 40l195 -148zM611 2l-13 32l76 47zM109 301l19 52l422 -178zM354 280l-217 97l17 41l209 -115zM625 142l-540 92l16 45zM64 172l13 40l527 -87zM573 91l-10 16l-523 -2l17 46
l599 -49zM277 72l-253 -17l10 31l251 2zM247 1h-92l101 18zM261 33l-196 -32h-63l15 29l252 20zM567 768l-224 76q-2 0 -23 -85q236 -25 236 -27t11 36z" />
    <glyph glyph-name="Atilde" unicode="&#xc3;" 
d="M659 312l-19 387h16l26 -97zM681 338l18 215l18 -67zM559 699q19 -1 55 1l28 -365zM685 306l46 139l12 -44zM697 286l56 85l10 -29zM471 700l61 -1l103 -408zM716 268l55 50l9 -25zM728 242l60 29l4 -20zM717 217l84 10l8 -27zM376 699h64l173 -419zM734 186l83 -15
l15 -51zM284 698l57 1l271 -460zM415 446l-177 200l15 45l168 -226zM725 162l118 -70l12 -46zM827 0l-107 136l150 -135zM538 254l-3 6l-34 99l122 -178zM400 402l-188 172l15 47l180 -200zM755 1l-32 106l71 -107zM704 1l12 79l14 -79h-26zM382 364l-195 150l16 38
l186 -169zM402 258l90 -1l121 -89zM674 1h-32l52 89zM589 54l-7 18l66 12zM370 326l-208 123l18 40l195 -148zM611 2l-13 32l76 47zM109 301l19 52l422 -178zM354 280l-217 97l17 41l209 -115zM625 142l-540 92l16 45zM64 172l13 40l527 -87zM573 91l-10 16l-523 -2l17 46
l599 -49zM277 72l-253 -17l10 31l251 2zM247 1h-92l101 18zM261 33l-196 -32h-63l15 29l252 20zM636 813q-41 -73 -105 -73q-27 0 -78.5 18t-78.5 18q-44 0 -74 -31q-4 4 -10.5 5t-9.5 3q38 76 124 76q25 0 70.5 -17t69.5 -17q36 0 76 28z" />
    <glyph glyph-name="Otilde" unicode="&#xd5;" horiz-adv-x="887" 
d="M576 813q-41 -73 -105 -73q-27 0 -78.5 18t-78.5 18q-44 0 -74 -31q-4 4 -10.5 5t-9.5 3q38 76 124 76q25 0 70.5 -17t69.5 -17q36 0 76 28zM727 572l-42 -96l1 142q5 -4 29 -32q5 -5 11.5 -5.5t6.5 -1.5q-1 -2 -6 -7zM710 462l34 87q23 -20 25 -46q-25 -21 -59 -41z
M742 450q7 8 38 28q6 -5 8 -24zM613 666q12 -1 50 -25l5 -7v-141zM739 423q8 4 23 3q25 0 18 0q8 0 13 1q2 -11 4 -33q-28 7 -58 29zM523 694l53 -12l26 -69l35 -116zM785 309q-36 51 -54 91q24 -11 33 -16q19 -11 29 -23zM618 476q-18 20 -44 56q-14 20 -61 79
q10 -31 54 -112l-124 177l-19 32l61 -5l138 -246l2 3zM750 202q-11 70 -10 119l33 -54q-5 -23 -23 -65zM495 533l-139 145q-10 10 -24 30q11 2 29 2q5 0 13 -1t13 -1l200 -276q-48 45 -92 101zM596 383q-53 29 -50 61q39 -37 61 -66zM428 567l-51 3l-143 117q10 7 29 10
q11 1 34 5zM559 367q-4 5 -3 13q20 -8 53 -29q-17 6 -50 16zM555 327v12q35 -5 49 -13zM544 293v0l2 2l6 9l66 -4q-26 -6 -74 -7zM654 86l60 199l9 -124q-16 -20 -31 -41q-19 -22 -38 -34zM328 544l-166 101q13 14 42 26l143 -108q4 -3 5 -6zM519 226q6 12 18 37q24 5 81 12
q-43 -22 -99 -49zM300 511l-3 -2l-1 -2q-38 13 -100 40q-72 32 -99 42q0 6 8 14l15 15q2 3 6 8q14 -4 41 -14q33 -16 143 -85q0 -6 -10 -16zM608 53q-49 -33 -97 -44l28 46l131 171zM269 460l-221 65q0 17 25 45l205 -86q2 -3 -9 -24zM470 6q-21 -11 -53 -10q-19 2 -55 4v1
l177 149l89 71zM250 408q-29 2 -124 22q-89 18 -109 18q-2 25 20 54l219 -69zM627 253l-307 -250l-44 11q13 14 109 78q37 22 101 66l-29 -7l-222 -124q-20 6 -37 17l18 11l250 116l167 83l-4 4zM245 347l-242 16q-4 20 7 54l235 -41q4 -4 3 -20v-7zM12 293q-9 9 -9 45
l246 -16q1 -5 2 -15l1 -3zM265 251l-233 -31q-18 29 -16 47l242 12q4 -1 12 -24zM78 140q-12 14 -24 27q-16 21 -6 30l230 31q9 -4 23 -29zM331 143q-56 -26 -163 -79q-17 11 -36 24t-30 28l212 62q4 2 7 2q9 0 21 -10q16 -13 20 -15l-1 4q-1 -1 -1.5 -2t-28.5 -14z" />
    <glyph glyph-name="OE" unicode="&#x152;" horiz-adv-x="1219" 
d="M693 472l3 230h66zM701 433l114 269l93 -3q-48 -66 -99 -141q0 -3 -1 -3t-3 2.5l-2 2.5q-1 0 -2 -2q-1 -11 -3 -18v-2q-38 -47 -97 -105zM715 352q8 10 86 147q-1 -48 0 -55zM606 700l53 -1l-1 -75l6 -128zM707 318l135 129l78 1zM523 694l51 10l28 -91l35 -116zM513 611
q10 -31 54 -112l-124 177l-19 32l61 -5l144 -245q-38 52 -116 153zM798 128l-89 147l89 -58v-89zM495 533l-139 145q-10 10 -24 30q11 2 29 2q5 0 13 -1t13 -1l200 -276q-48 45 -92 101zM596 383q-53 29 -50 61q39 -37 61 -66zM428 567l-51 3l-143 117q10 7 29 10q11 1 34 5
zM559 367q-4 5 -3 13q20 -8 53 -29q-17 6 -50 16zM555 327v12q35 -5 49 -13zM544 293v0l2 2l6 9l66 -4q-26 -6 -74 -7zM754 0l-67 264l147 -264h-80zM328 544l-166 101q13 14 42 26l143 -108q4 -3 5 -6zM519 226q6 12 18 37q24 5 81 12q-43 -22 -99 -49zM300 511l-3 -2
l-1 -2q-38 13 -100 40q-72 32 -99 42q0 6 8 14l15 15q2 3 6 8q14 -4 41 -14q33 -16 143 -85q0 -6 -10 -16zM576 0q-1 -1 -3 -1q-9 0 -2 32q-8 -10 -60 -22q8 8 159 217zM269 460l-221 65q0 17 25 45l205 -86q2 -3 -9 -24zM470 6q-21 -11 -53 -10q-19 2 -55 4v1l177 149
l89 71zM250 408q-29 2 -124 22q-89 18 -109 18q-2 25 20 54l219 -69zM627 253l2 5l4 -4l-12 -6l-301 -245l-44 11q11 11 107 68q75 45 51 45q-7 0 -18 -2l-181 -98q-20 6 -37 17l18 11l250 116zM245 347l-242 16q-4 20 7 54l235 -41q4 -4 3 -20v-7zM12 293q-9 9 -9 45
l246 -16q1 -5 2 -15l1 -3zM265 251l-233 -31q-18 29 -16 47l242 12q4 -1 12 -24zM78 140q-12 14 -24 27q-16 21 -6 30l230 31q9 -4 23 -29zM360 157l-1 -1l-28 -13q-56 -26 -163 -79q-26 17 -66 52l212 62q11 4 23 -4.5t23 -16.5q0 1 1 2l1 -4zM848 560l101 142h70
l-124 -142h-47zM934 558l141 144h61l-147 -144h-55zM1036 558l103 94v-94q0 2 -103 0zM682 208l25 -208h-78q-3 0 53 208zM967 449l83 1l-335 -159zM798 250l-61 28l62 25zM1053 413l-1 -102l-237 1zM804 121l71 -120h94l-124 120h-41zM886 123l147 -124h79l-176 124h-50z
M981 126l169 -111v115z" />
    <glyph glyph-name="oe" unicode="&#x153;" horiz-adv-x="1219" 
d="M693 472l3 230h66zM701 433l114 269l93 -3q-48 -66 -99 -141q0 -3 -1 -3t-3 2.5l-2 2.5q-1 0 -2 -2q-1 -11 -3 -18v-2q-38 -47 -97 -105zM715 352q37 70 86 147q4 -3 2 -27l-2 -28zM606 700l53 -1l-1 -75l6 -128zM707 318l135 129l78 1zM523 694l51 10l28 -91l35 -116z
M513 611q10 -31 54 -112l-124 177l-19 32l61 -5l142 -245q-22 25 -58.5 77.5t-55.5 75.5zM798 128l-89 147l89 -58v-89zM495 533l-139 145q-10 10 -24 30q11 2 29 2q5 0 13 -1t13 -1l200 -276q-48 45 -92 101zM596 383q-53 29 -50 61q39 -37 61 -66zM428 567l-51 3l-143 117
q10 7 29 10q11 1 34 5zM559 367q-4 5 -3 13q20 -8 53 -29q-17 6 -50 16zM555 327v12q35 -5 49 -13zM544 293v0l2 2l6 9l66 -4q-26 -6 -74 -7zM754 0l-67 264l147 -264h-80zM328 544l-166 101q13 14 42 26l143 -108q4 -3 5 -6zM519 226q6 12 18 37q24 5 81 12
q-43 -22 -99 -49zM300 511l-3 -2l-1 -2q-38 13 -100 40q-72 32 -99 42q0 6 8 14l15 15q2 3 6 8q14 -4 41 -14q33 -16 143 -85q0 -6 -10 -16zM576 0q-1 -1 -3 -1q-9 0 -2 32q-8 -10 -60 -22q8 8 159 217zM269 460l-221 65q0 17 25 45l205 -86q2 -3 -9 -24zM470 6
q-21 -11 -53 -10q-19 2 -55 4v1l177 149l89 71zM250 408q-29 2 -124 22q-89 18 -109 18q-2 25 20 54l219 -69zM627 253l2 5l4 -4l-12 -6l-301 -245l-44 11q11 11 107 68q75 45 51 45q-7 0 -18 -2l-181 -98q-20 6 -37 17l18 11l250 116zM245 347l-242 16q-4 20 7 54l235 -41
q4 -4 3 -20v-7zM12 293q-9 9 -9 45l246 -16q1 -5 2 -15l1 -3zM265 251l-233 -31q-18 29 -16 47l242 12q4 -1 12 -24zM78 140q-12 14 -24 27q-16 21 -6 30l230 31q9 -4 23 -29zM360 157l-1 -1l-28 -13q-56 -26 -163 -79q-26 17 -66 52l212 62q11 4 23 -4.5t23 -16.5q0 1 1 2
l1 -4zM848 560l101 142h70l-124 -142h-47zM934 558l141 144h61l-147 -144h-55zM1036 558l103 94v-94q0 2 -103 0zM682 208l25 -208h-78q-3 0 53 208zM967 449l83 1l-335 -159zM798 250l-61 28l62 26zM1053 413l-1 -102l-237 1zM804 121l71 -120h94l-124 120h-41zM886 123
l147 -124h79l-176 124h-50zM981 126l169 -111v115z" />
    <glyph glyph-name="endash" unicode="&#x2013;" horiz-adv-x="573" 
d="M-6 398l178 -64l-178 31v33zM-6 267v19l190 28l-69 -19l78 3zM-6 318l172 1l-172 -22v21zM-6 353l169 -26h-169v26zM-6 255l228 40l-142 -51h-86v11zM27 398h54l110 -62q-12 6 -164 62zM280 302l-86 -58h-77zM104 398h59l42 -58zM190 398h49l-24 -51zM220 244l81 57
l-30 -57h-51zM230 348l24 50h37zM310 398h63l-126 -52q-2 0 63 52zM289 244l30 61l9 -61h-39zM401 398h121l-225 -41zM325 354l247 44v-32zM333 308l10 -64h48zM572 355v-37l-248 25zM348 311q74 -40 119 -67h-57zM572 257v-13h-80l-141 77q15 -4 221 -64zM572 304v-34
q9 -2 -216 60z" />
    <glyph glyph-name="emdash" unicode="&#x2014;" horiz-adv-x="769" 
d="M-2 398l236 -64l-236 31v33zM-2 267v19l253 28l-92 -19l104 3zM-2 318l228 1l-228 -22v21zM-2 353l226 -26h-226v26zM-2 255l304 40l-190 -51h-114v11zM42 398h72l147 -62q-17 6 -219 62zM379 302l-114 -58h-103zM144 398h78l57 -58zM259 398h66l-32 -51zM299 244l108 57
l-40 -57h-68zM313 348l32 50h48zM419 398h85l-169 -52q-2 0 84 52zM391 244l40 61l12 -61h-52zM540 398h162l-301 -41zM439 354l330 44v-32zM449 308l14 -64h65zM769 355v-37l-332 25zM469 311q100 -40 159 -67h-76zM768 257l1 -13h-107l-189 77q20 -4 295 -64zM769 304
l-1 -34q12 -2 -288 60z" />
    <glyph glyph-name="quotedblleft" unicode="&#x201c;" horiz-adv-x="530" 
d="M137 700l-52 2l56 -54zM-2 700l34 -57h55zM155 700v-57l30 57h-30zM158 624l34 55l13 -48zM98 628l-50 -5l13 -28zM112 621l-38 -47l17 -24zM209 613l-56 -7l65 -26zM226 562l-71 30l91 -114zM124 598l-17 -63l37 -67zM141 585l20 -118h71zM68 700h-40l92 -54zM368 702
h-53l56 -54zM227 700l34 -57h55zM385 700l-1 -57l31 57h-30zM388 624l33 55l14 -48zM328 628l-51 -5l14 -28zM342 621l-39 -47l18 -24zM439 613l-57 -7l67 -23zM455 562l-70 30l90 -114zM354 598l-17 -63l37 -67zM371 585l19 -118h71zM297 700h-39l91 -54z" />
    <glyph glyph-name="quotedblright" unicode="&#x201d;" horiz-adv-x="530" 
d="M336 700l52 2l-56 -54zM475 700l-34 -57h-55zM318 700v-57l-30 57h30zM315 624l-34 55l-13 -48zM375 628l50 -5l-14 -28zM361 621l38 -47l-17 -24zM264 613l56 -7l-65 -26zM247 562l71 30l-91 -114zM349 598l17 -63l-37 -67zM332 585l-20 -118h-71zM405 700h40l-92 -54z
M105 702h53l-56 -54zM246 700l-34 -57h-55zM88 700l1 -57l-31 57h30zM85 624l-33 55l-14 -48zM145 628l51 -5l-14 -28zM131 621l39 -47l-18 -24zM34 613l57 -7l-67 -23zM18 562l70 30l-90 -114zM119 598l17 -63l-37 -67zM102 585l-19 -118h-71zM176 700h39l-91 -54z" />
    <glyph glyph-name="quoteleft" unicode="&#x2018;" horiz-adv-x="285" 
d="M134 701h-49l56 -53zM-2 700l38 -56l51 -1zM155 700v-57l30 57h-30zM158 624l34 55l13 -48zM98 628l-50 -5l13 -28zM112 621l-38 -47l17 -24zM209 613l-56 -7l68 -26zM226 562l-71 30l91 -114zM124 598l-17 -63l37 -67zM141 585l20 -118h71zM68 700h-40l92 -54z" />
    <glyph glyph-name="quoteright" unicode="&#x2019;" horiz-adv-x="285" 
d="M109 701h49l-56 -53zM246 700l-39 -56l-50 -1zM88 700l1 -57l-31 57h30zM85 624l-33 55l-14 -48zM145 628l51 -5l-14 -28zM131 621l39 -47l-18 -24zM34 613l57 -7l-68 -26zM18 562l70 30l-90 -114zM119 598l17 -63l-37 -67zM102 585l-19 -118h-71zM176 700h39l-91 -54z
" />
    <glyph glyph-name="divide" unicode="&#xf7;" horiz-adv-x="20" 
 />
    <glyph glyph-name="ydieresis" unicode="&#xff;" horiz-adv-x="761" 
d="M54 701l250 -431l-3 -10l-296 441h49zM149 701l203 -365l-267 365h64zM227 701l104 -305l-156 305h52zM273 701l82 -264l27 71l-15 -163l-120 356h26zM383 313l19 264l44 124zM524 701l-111 -327l56 327h55zM614 701l-200 -380l136 380h64zM639 702l73 -1l-50 -100
l-216 -257zM332 329l5 -20l-35 41l5 -52l-196 343zM541 370l-125 -94h-5l219 258zM90 541l221 -336l-12 9l-81 68zM527 335l-41 -66l-73 -12zM226 251l75 -69l-74 6zM414 237l75 6v-43zM429 208l60 -34v-90zM434 1h-52l23 176zM426 182l66 -146v-35h-38zM226 171l105 -6
l-104 -35zM360 0h-59l79 165zM335 149l-111 -102v64zM343 117l-70 -117l-49 1v14l119 115v-13zM403 795q0 21 16.5 35.5t39.5 14.5q24 0 40.5 -14.5t16.5 -35.5t-16.5 -35.5t-40.5 -14.5q-23 0 -39.5 14.5t-16.5 35.5zM193 795q0 21 16.5 35.5t39.5 14.5q24 0 40.5 -14.5
t16.5 -35.5t-16.5 -35.5t-40.5 -14.5q-23 0 -39.5 14.5t-16.5 35.5z" />
    <glyph glyph-name="Ydieresis" unicode="&#x178;" horiz-adv-x="761" 
d="M54 701l250 -431l-3 -10l-296 441h49zM149 701l203 -365l-267 365h64zM227 701l104 -305l-156 305h52zM273 701l82 -264l27 71l-15 -163l-120 356h26zM383 313l19 264l44 124zM524 701l-111 -327l56 327h55zM614 701l-200 -380l136 380h64zM639 702l73 -1l-50 -100
l-216 -257zM332 329l5 -20l-35 41l5 -52l-196 343zM541 370l-125 -94h-5l219 258zM90 541l221 -336l-12 9l-81 68zM527 335l-41 -66l-73 -12zM226 251l75 -69l-74 6zM414 237l75 6v-43zM429 208l60 -34v-90zM434 1h-52l23 176zM426 182l66 -146v-35h-38zM226 171l105 -6
l-104 -35zM360 0h-59l79 165zM335 149l-111 -102v64zM343 117l-70 -117l-49 1v14l119 115v-13zM403 795q0 21 16.5 35.5t39.5 14.5q24 0 40.5 -14.5t16.5 -35.5t-16.5 -35.5t-40.5 -14.5q-23 0 -39.5 14.5t-16.5 35.5zM193 795q0 21 16.5 35.5t39.5 14.5q24 0 40.5 -14.5
t16.5 -35.5t-16.5 -35.5t-40.5 -14.5q-23 0 -39.5 14.5t-16.5 35.5z" />
    <glyph glyph-name="currency" unicode="&#xa4;" horiz-adv-x="0" 
 />
    <glyph glyph-name="guilsinglleft" unicode="&#x2039;" horiz-adv-x="253" 
d="M52 321l98 -101l-49 104l42 89zM199 499l-67 -176l72 -184l-202 176z" />
    <glyph glyph-name="guilsinglright" unicode="&#x203a;" horiz-adv-x="253" 
d="M157 321l-98 -101l49 104l-42 89zM10 499l67 -176l-72 -184l202 176z" />
    <glyph glyph-name="daggerdbl" unicode="&#x2021;" horiz-adv-x="25" 
 />
    <glyph glyph-name="periodcentered" unicode="&#xb7;" horiz-adv-x="250" 
d="M60 355q0 25 17.5 43t42.5 18t43 -18t18 -43t-18 -42.5t-43 -17.5t-42.5 17.5t-17.5 42.5z" />
    <glyph glyph-name="periodcentered" unicode="&#x2219;" horiz-adv-x="250" 
d="M60 355q0 25 17.5 43t42.5 18t43 -18t18 -43t-18 -42.5t-43 -17.5t-42.5 17.5t-17.5 42.5z" />
    <glyph glyph-name="quotesinglbase" unicode="&#x201a;" horiz-adv-x="316" 
d="M237 95l-54 -1l95 53zM147 101l54 48l46 1zM118 101l7 49l39 -3zM208 47l-39 30l53 -5zM174 2l-22 65l41 -43zM67 149h32l1 -53zM43 87l16 38l35 -50zM120 -69l16 112l18 -58zM27 32l12 30l59 -7zM93 -82h-79l101 114zM-11 -79l31 90l77 28z" />
    <glyph glyph-name="quotedblbase" unicode="&#x201e;" horiz-adv-x="596" 
d="M517 95l-54 -1l95 53zM427 101l54 48l46 1zM398 101l7 49l39 -3zM488 47l-39 30l53 -5zM454 2l-22 65l41 -43zM347 149h32l1 -53zM323 87l16 38l35 -50zM400 -69l16 112l18 -58zM307 32l12 30l59 -7zM373 -82h-79l101 114zM269 -79l31 90l77 28zM237 95l-54 -1l95 53z
M147 101l54 48l46 1zM118 101l7 49l39 -3zM208 47l-39 30l53 -5zM174 2l-22 65l41 -43zM67 149h32l1 -53zM43 87l16 38l35 -50zM120 -69l16 112l18 -58zM27 32l12 30l59 -7zM93 -82h-79l101 114zM-11 -79l31 90l77 28z" />
    <glyph glyph-name="Acircumflex" unicode="&#xc2;" 
d="M659 312l-19 387h16l26 -97zM681 338l18 215l18 -67zM559 699q19 -1 55 1l28 -365zM685 306l46 139l12 -44zM697 286l56 85l10 -29zM471 700l61 -1l103 -408zM716 268l55 50l9 -25zM728 242l60 29l4 -20zM717 217l84 10l8 -27zM376 699h64l173 -419zM734 186l83 -15
l15 -51zM284 698l57 1l271 -460zM415 446l-177 200l15 45l168 -226zM725 162l118 -70l12 -46zM827 0l-107 136l150 -135zM538 254l-3 6l-34 99l122 -178zM400 402l-188 172l15 47l180 -200zM755 1l-32 106l71 -107zM704 1l12 79l14 -79h-26zM382 364l-195 150l16 38
l186 -169zM402 258l90 -1l121 -89zM674 1h-32l52 89zM589 54l-7 18l66 12zM370 326l-208 123l18 40l195 -148zM611 2l-13 32l76 47zM109 301l19 52l422 -178zM354 280l-217 97l17 41l209 -115zM625 142l-540 92l16 45zM64 172l13 40l527 -87zM573 91l-10 16l-523 -2l17 46
l599 -49zM277 72l-253 -17l10 31l251 2zM247 1h-92l101 18zM261 33l-196 -32h-63l15 29l252 20zM455 866l-173 -101l10 -33l163 51l163 -51l10 30z" />
    <glyph glyph-name="Ecircumflex" unicode="&#xca;" horiz-adv-x="686" 
d="M271 598l329 77l-1 -31zM253 612l251 86h96v-5zM246 575l355 46v-51zM208 616l149 82h66l-201 -77q-9 -3 -14 -5zM512 424l82 1v-18zM304 698l-89 -54q13 18 41 54h48zM444 425l150 -41v-46zM534 295l-182 127h46l196 -116l3 -14zM189 698h35l-72 -118q0 -2 2 -2v1l1 3
q1 3 4 14q12 34 30 102zM265 552l40 -2v-12zM261 528l42 -12l2 -15zM136 604l-14 94h43zM246 477l240 -186h-70zM242 508l62 -29v-18zM60 698h33l17 -93zM5 675v23l26 -1l62 -103zM234 455l148 -164h-35zM553 134l50 -1v-54zM4 599l1 38l92 -87zM302 289l2 -22l-72 154
l83 -130zM3 529v40l87 -41zM603 3l-26 1l-98 127l47 3l76 -88zM6 481v22l69 8zM4 440l1 18l87 36zM88 454l24 -8l-105 -37v7l112 70zM395 3l-58 1q0 3 -54 170.5t-65 222.5q148 -339 177 -394zM467 4l-48 -1l-63 133h25q49 -64 72 -103q7 -15 14 -29zM6 347l-1 39l104 40z
M176 1l14 366q11 -46 24 -201q13 -160 14 -165h-52zM3 237v78l113 88zM136 1h-55l93 363zM3 87v107l138 202zM49 1l-45 1l2 21l140 331zM202 376l58 -375q0 2 49 0zM415 133l84 -129l46 -3l-98 132h-32zM295 866l-173 -101l10 -33l164 51l162 -51l10 30z" />
    <glyph glyph-name="Aacute" unicode="&#xc1;" 
d="M659 312l-19 387h16l26 -97zM681 338l18 215l18 -67zM559 699q19 -1 55 1l28 -365zM685 306l46 139l12 -44zM697 286l56 85l10 -29zM471 700l61 -1l103 -408zM716 268l55 50l9 -25zM728 242l60 29l4 -20zM717 217l84 10l8 -27zM376 699h64l173 -419zM734 186l83 -15
l15 -51zM284 698l57 1l271 -460zM415 446l-177 200l15 45l168 -226zM725 162l118 -70l12 -46zM827 0l-107 136l150 -135zM538 254l-3 6l-34 99l122 -178zM400 402l-188 172l15 47l180 -200zM755 1l-32 106l71 -107zM704 1l12 79l14 -79h-26zM382 364l-195 150l16 38
l186 -169zM402 258l90 -1l121 -89zM674 1h-32l52 89zM589 54l-7 18l66 12zM370 326l-208 123l18 40l195 -148zM611 2l-13 32l76 47zM109 301l19 52l422 -178zM354 280l-217 97l17 41l209 -115zM625 142l-540 92l16 45zM64 172l13 40l527 -87zM573 91l-10 16l-523 -2l17 46
l599 -49zM277 72l-253 -17l10 31l251 2zM247 1h-92l101 18zM261 33l-196 -32h-63l15 29l252 20zM324 768l224 76q2 0 23 -85q-235 -25 -235 -27t-12 36z" />
    <glyph glyph-name="Edieresis" unicode="&#xcb;" horiz-adv-x="686" 
d="M271 598l329 77l-1 -31zM253 612l251 86h96v-5zM246 575l355 46v-51zM208 616l149 82h66l-201 -77q-9 -3 -14 -5zM512 424l82 1v-18zM304 698l-89 -54q13 18 41 54h48zM444 425l150 -41v-46zM534 295l-182 127h46l196 -116l3 -14zM189 698h35l-72 -118q0 -2 2 -2v1l1 3
q1 3 4 14q12 34 30 102zM265 552l40 -2v-12zM261 528l42 -12l2 -15zM136 604l-14 94h43zM246 477l240 -186h-70zM242 508l62 -29v-18zM60 698h33l17 -93zM5 675v23l26 -1l62 -103zM234 455l148 -164h-35zM553 134l50 -1v-54zM4 599l1 38l92 -87zM302 289l2 -22l-72 154
l83 -130zM3 529v40l87 -41zM603 3l-26 1l-98 127l47 3l76 -88zM6 481v22l69 8zM4 440l1 18l87 36zM88 454l24 -8l-105 -37v7l112 70zM395 3l-58 1q0 3 -54 170.5t-65 222.5q148 -339 177 -394zM467 4l-48 -1l-63 133h25q49 -64 72 -103q7 -15 14 -29zM6 347l-1 39l104 40z
M176 1l14 366q11 -46 24 -201q13 -160 14 -165h-52zM3 237v78l113 88zM136 1h-55l93 363zM3 87v107l138 202zM49 1l-45 1l2 21l140 331zM202 376l58 -375q0 2 49 0zM415 133l84 -129l46 -3l-98 132h-32zM353 795q0 21 16.5 35.5t39.5 14.5q24 0 40.5 -14.5t16.5 -35.5
t-16.5 -35.5t-40.5 -14.5q-23 0 -39.5 14.5t-16.5 35.5zM143 795q0 21 16.5 35.5t39.5 14.5q24 0 40.5 -14.5t16.5 -35.5t-16.5 -35.5t-40.5 -14.5q-23 0 -39.5 14.5t-16.5 35.5z" />
    <glyph glyph-name="Egrave" unicode="&#xc8;" horiz-adv-x="686" 
d="M271 598l329 77l-1 -31zM253 612l251 86h96v-5zM246 575l355 46v-51zM208 616l149 82h66l-201 -77q-9 -3 -14 -5zM512 424l82 1v-18zM304 698l-89 -54q13 18 41 54h48zM444 425l150 -41v-46zM534 295l-182 127h46l196 -116l3 -14zM189 698h35l-72 -118q0 -2 2 -2v1l1 3
q1 3 4 14q12 34 30 102zM265 552l40 -2v-12zM261 528l42 -12l2 -15zM136 604l-14 94h43zM246 477l240 -186h-70zM242 508l62 -29v-18zM60 698h33l17 -93zM5 675v23l26 -1l62 -103zM234 455l148 -164h-35zM553 134l50 -1v-54zM4 599l1 38l92 -87zM302 289l2 -22l-72 154
l83 -130zM3 529v40l87 -41zM603 3l-26 1l-98 127l47 3l76 -88zM6 481v22l69 8zM4 440l1 18l87 36zM88 454l24 -8l-105 -37v7l112 70zM395 3l-58 1q0 3 -54 170.5t-65 222.5q148 -339 177 -394zM467 4l-48 -1l-63 133h25q49 -64 72 -103q7 -15 14 -29zM6 347l-1 39l104 40z
M176 1l14 366q11 -46 24 -201q13 -160 14 -165h-52zM3 237v78l113 88zM136 1h-55l93 363zM3 87v107l138 202zM49 1l-45 1l2 21l140 331zM202 376l58 -375q0 2 49 0zM415 133l84 -129l46 -3l-98 132h-32zM417 768l-224 76q-2 0 -23 -85q236 -25 236 -27t11 36z" />
    <glyph glyph-name="Iacute" unicode="&#xcd;" horiz-adv-x="392" 
d="M187 505l57 197h60zM211 495q32 54 95 160v-56zM169 518v184h46zM203 454l103 110v-64zM109 702h33l5 -180zM216 434l90 28v-54zM101 565l3 -80l-56 217h33l49 -203zM222 409l84 -25v-37zM1 600v102h17l75 -258zM214 387q5 -3 92 -71v-68zM1 461v83l103 -177zM233 318
l73 -112v-131zM1 367v56l101 -88zM246 -1l-22 276l81 -276h-59zM1 298v42l108 -32zM151 -1q34 195 46 279l22 -279h-68zM1 222v53l115 11zM1 132v62l121 68q-39 -45 -121 -130zM118 -1h-64l4 7q5 9 108 235zM23 0l-22 -1l-1 95l144 160q-36 -81 -121 -254zM24 768l224 76
q2 0 23 -85q-235 -25 -235 -27t-12 36z" />
    <glyph glyph-name="Icircumflex" unicode="&#xce;" horiz-adv-x="392" 
d="M187 505l57 197h60zM211 495q32 54 95 160v-56zM169 518v184h46zM203 454l103 110v-64zM109 702h33l5 -180zM216 434l90 28v-54zM101 565l3 -80l-56 217h33l49 -203zM222 409l84 -25v-37zM1 600v102h17l75 -258zM214 387q5 -3 92 -71v-68zM1 461v83l103 -177zM233 318
l73 -112v-131zM1 367v56l101 -88zM246 -1l-22 276l81 -276h-59zM1 298v42l108 -32zM151 -1q34 195 46 279l22 -279h-68zM1 222v53l115 11zM1 132v62l121 68q-39 -45 -121 -130zM118 -1h-64l4 7q5 9 108 235zM23 0l-22 -1l-1 95l144 160q-36 -81 -121 -254zM155 866
l-173 -101l10 -33l163 51l163 -51l10 30z" />
    <glyph glyph-name="Idieresis" unicode="&#xcf;" horiz-adv-x="392" 
d="M187 505l57 197h60zM211 495q32 54 95 160v-56zM169 518v184h46zM203 454l103 110v-64zM109 702h33l5 -180zM216 434l90 28v-54zM101 565l3 -80l-56 217h33l49 -203zM222 409l84 -25v-37zM1 600v102h17l75 -258zM214 387q5 -3 92 -71v-68zM1 461v83l103 -177zM233 318
l73 -112v-131zM1 367v56l101 -88zM246 -1l-22 276l81 -276h-59zM1 298v42l108 -32zM151 -1q34 195 46 279l22 -279h-68zM1 222v53l115 11zM1 132v62l121 68q-39 -45 -121 -130zM118 -1h-64l4 7q5 9 108 235zM23 0l-22 -1l-1 95l144 160q-36 -81 -121 -254zM193 795
q0 21 16.5 35.5t39.5 14.5q24 0 40.5 -14.5t16.5 -35.5t-16.5 -35.5t-40.5 -14.5q-23 0 -39.5 14.5t-16.5 35.5zM-17 795q0 21 16.5 35.5t39.5 14.5q24 0 40.5 -14.5t16.5 -35.5t-16.5 -35.5t-40.5 -14.5q-23 0 -39.5 14.5t-16.5 35.5z" />
    <glyph glyph-name="Igrave" unicode="&#xcc;" horiz-adv-x="392" 
d="M187 505l57 197h60zM211 495q32 54 95 160v-56zM169 518v184h46zM203 454l103 110v-64zM109 702h33l5 -180zM216 434l90 28v-54zM101 565l3 -80l-56 217h33l49 -203zM222 409l84 -25v-37zM1 600v102h17l75 -258zM214 387q5 -3 92 -71v-68zM1 461v83l103 -177zM233 318
l73 -112v-131zM1 367v56l101 -88zM246 -1l-22 276l81 -276h-59zM1 298v42l108 -32zM151 -1q34 195 46 279l22 -279h-68zM1 222v53l115 11zM1 132v62l121 68q-39 -45 -121 -130zM118 -1h-64l4 7q5 9 108 235zM23 0l-22 -1l-1 95l144 160q-36 -81 -121 -254zM277 768l-224 76
q-2 0 -23 -85q236 -25 236 -27t11 36z" />
    <glyph glyph-name="Oacute" unicode="&#xd3;" horiz-adv-x="887" 
d="M264 768l224 76q2 0 23 -85q-235 -25 -235 -27t-12 36zM727 572l-42 -96l1 142q5 -4 29 -32q5 -5 11.5 -5.5t6.5 -1.5q-1 -2 -6 -7zM710 462l34 87q23 -20 25 -46q-25 -21 -59 -41zM742 450q7 8 38 28q6 -5 8 -24zM613 666q12 -1 50 -25l5 -7v-141zM739 423q8 4 23 3
q25 0 18 0q8 0 13 1q2 -11 4 -33q-28 7 -58 29zM523 694l53 -12l26 -69l35 -116zM785 309q-36 51 -54 91q24 -11 33 -16q19 -11 29 -23zM618 476q-18 20 -44 56q-14 20 -61 79q10 -31 54 -112l-124 177l-19 32l61 -5l138 -246l2 3zM750 202q-11 70 -10 119l33 -54
q-5 -23 -23 -65zM495 533l-139 145q-10 10 -24 30q11 2 29 2q5 0 13 -1t13 -1l200 -276q-48 45 -92 101zM596 383q-53 29 -50 61q39 -37 61 -66zM428 567l-51 3l-143 117q10 7 29 10q11 1 34 5zM559 367q-4 5 -3 13q20 -8 53 -29q-17 6 -50 16zM555 327v12q35 -5 49 -13z
M544 293v0l2 2l6 9l66 -4q-26 -6 -74 -7zM654 86l60 199l9 -124q-16 -20 -31 -41q-19 -22 -38 -34zM328 544l-166 101q13 14 42 26l143 -108q4 -3 5 -6zM519 226q6 12 18 37q24 5 81 12q-43 -22 -99 -49zM300 511l-3 -2l-1 -2q-38 13 -100 40q-72 32 -99 42q0 6 8 14l15 15
q2 3 6 8q14 -4 41 -14q33 -16 143 -85q0 -6 -10 -16zM608 53q-49 -33 -97 -44l28 46l131 171zM269 460l-221 65q0 17 25 45l205 -86q2 -3 -9 -24zM470 6q-21 -11 -53 -10q-19 2 -55 4v1l177 149l89 71zM250 408q-29 2 -124 22q-89 18 -109 18q-2 25 20 54l219 -69zM627 253
l-307 -250l-44 11q13 14 109 78q37 22 101 66l-29 -7l-222 -124q-20 6 -37 17l18 11l250 116l167 83l-4 4zM245 347l-242 16q-4 20 7 54l235 -41q4 -4 3 -20v-7zM12 293q-9 9 -9 45l246 -16q1 -5 2 -15l1 -3zM265 251l-233 -31q-18 29 -16 47l242 12q4 -1 12 -24zM78 140
q-12 14 -24 27q-16 21 -6 30l230 31q9 -4 23 -29zM331 143q-56 -26 -163 -79q-17 11 -36 24t-30 28l212 62q4 2 7 2q9 0 21 -10q16 -13 20 -15l-1 4q-1 -1 -1.5 -2t-28.5 -14z" />
    <glyph glyph-name="Ocircumflex" unicode="&#xd4;" horiz-adv-x="887" 
d="M395 866l-173 -101l10 -33l162 58l164 -58l10 30zM727 572l-42 -96l1 142q5 -4 29 -32q5 -5 11.5 -5.5t6.5 -1.5q-1 -2 -6 -7zM710 462l34 87q23 -20 25 -46q-25 -21 -59 -41zM742 450q7 8 38 28q6 -5 8 -24zM613 666q12 -1 50 -25l5 -7v-141zM739 423q8 4 23 3
q25 0 18 0q8 0 13 1q2 -11 4 -33q-28 7 -58 29zM523 694l53 -12l26 -69l35 -116zM785 309q-36 51 -54 91q24 -11 33 -16q19 -11 29 -23zM618 476q-18 20 -44 56q-14 20 -61 79q10 -31 54 -112l-124 177l-19 32l61 -5l138 -246l2 3zM750 202q-11 70 -10 119l33 -54
q-5 -23 -23 -65zM495 533l-139 145q-10 10 -24 30q11 2 29 2q5 0 13 -1t13 -1l200 -276q-48 45 -92 101zM596 383q-53 29 -50 61q39 -37 61 -66zM428 567l-51 3l-143 117q10 7 29 10q11 1 34 5zM559 367q-4 5 -3 13q20 -8 53 -29q-17 6 -50 16zM555 327v12q35 -5 49 -13z
M544 293v0l2 2l6 9l66 -4q-26 -6 -74 -7zM654 86l60 199l9 -124q-16 -20 -31 -41q-19 -22 -38 -34zM328 544l-166 101q13 14 42 26l143 -108q4 -3 5 -6zM519 226q6 12 18 37q24 5 81 12q-43 -22 -99 -49zM300 511l-3 -2l-1 -2q-38 13 -100 40q-72 32 -99 42q0 6 8 14l15 15
q2 3 6 8q14 -4 41 -14q33 -16 143 -85q0 -6 -10 -16zM608 53q-49 -33 -97 -44l28 46l131 171zM269 460l-221 65q0 17 25 45l205 -86q2 -3 -9 -24zM470 6q-21 -11 -53 -10q-19 2 -55 4v1l177 149l89 71zM250 408q-29 2 -124 22q-89 18 -109 18q-2 25 20 54l219 -69zM627 253
l-307 -250l-44 11q13 14 109 78q37 22 101 66l-29 -7l-222 -124q-20 6 -37 17l18 11l250 116l167 83l-4 4zM245 347l-242 16q-4 20 7 54l235 -41q4 -4 3 -20v-7zM12 293q-9 9 -9 45l246 -16q1 -5 2 -15l1 -3zM265 251l-233 -31q-18 29 -16 47l242 12q4 -1 12 -24zM78 140
q-12 14 -24 27q-16 21 -6 30l230 31q9 -4 23 -29zM331 143q-56 -26 -163 -79q-17 11 -36 24t-30 28l212 62q4 2 7 2q9 0 21 -10q16 -13 20 -15l-1 4q-1 -1 -1.5 -2t-28.5 -14z" />
    <glyph glyph-name="Ograve" unicode="&#xd2;" horiz-adv-x="887" 
d="M517 768l-224 76q-2 0 -23 -85q236 -25 236 -27t11 36zM727 572l-42 -96l1 142q5 -4 29 -32q5 -5 11.5 -5.5t6.5 -1.5q-1 -2 -6 -7zM710 462l34 87q23 -20 25 -46q-25 -21 -59 -41zM742 450q7 8 38 28q6 -5 8 -24zM613 666q12 -1 50 -25l5 -7v-141zM739 423q8 4 23 3
q25 0 18 0q8 0 13 1q2 -11 4 -33q-28 7 -58 29zM523 694l53 -12l26 -69l35 -116zM785 309q-36 51 -54 91q24 -11 33 -16q19 -11 29 -23zM618 476q-18 20 -44 56q-14 20 -61 79q10 -31 54 -112l-124 177l-19 32l61 -5l138 -246l2 3zM750 202q-11 70 -10 119l33 -54
q-5 -23 -23 -65zM495 533l-139 145q-10 10 -24 30q11 2 29 2q5 0 13 -1t13 -1l200 -276q-48 45 -92 101zM596 383q-53 29 -50 61q39 -37 61 -66zM428 567l-51 3l-143 117q10 7 29 10q11 1 34 5zM559 367q-4 5 -3 13q20 -8 53 -29q-17 6 -50 16zM555 327v12q35 -5 49 -13z
M544 293v0l2 2l6 9l66 -4q-26 -6 -74 -7zM654 86l60 199l9 -124q-16 -20 -31 -41q-19 -22 -38 -34zM328 544l-166 101q13 14 42 26l143 -108q4 -3 5 -6zM519 226q6 12 18 37q24 5 81 12q-43 -22 -99 -49zM300 511l-3 -2l-1 -2q-38 13 -100 40q-72 32 -99 42q0 6 8 14l15 15
q2 3 6 8q14 -4 41 -14q33 -16 143 -85q0 -6 -10 -16zM608 53q-49 -33 -97 -44l28 46l131 171zM269 460l-221 65q0 17 25 45l205 -86q2 -3 -9 -24zM470 6q-21 -11 -53 -10q-19 2 -55 4v1l177 149l89 71zM250 408q-29 2 -124 22q-89 18 -109 18q-2 25 20 54l219 -69zM627 253
l-307 -250l-44 11q13 14 109 78q37 22 101 66l-29 -7l-222 -124q-20 6 -37 17l18 11l250 116l167 83l-4 4zM245 347l-242 16q-4 20 7 54l235 -41q4 -4 3 -20v-7zM12 293q-9 9 -9 45l246 -16q1 -5 2 -15l1 -3zM265 251l-233 -31q-18 29 -16 47l242 12q4 -1 12 -24zM78 140
q-12 14 -24 27q-16 21 -6 30l230 31q9 -4 23 -29zM331 143q-56 -26 -163 -79q-17 11 -36 24t-30 28l212 62q4 2 7 2q9 0 21 -10q16 -13 20 -15l-1 4q-1 -1 -1.5 -2t-28.5 -14z" />
    <glyph glyph-name="Uacute" unicode="&#xda;" horiz-adv-x="831" 
d="M472 592v22l206 87h63v-22zM473 641v6l84 54q51 2 64 1zM472 533v32q204 60 271 91v-66q-179 -40 -271 -57zM474 677v24h33zM743 505l-272 -19v20q231 45 272 57v-58zM472 445l-1 19q245 12 272 16l1 -62zM744 338q-45 13 -274 62v21l274 -29v-54zM470 362v15l274 -66
v-53zM736 164l-267 143l1 31l273 -110q-1 -42 -7 -64zM203 635q-15 -26 -49 -73l49 140h59q-35 -35 -59 -67zM169 545l103 129v-53zM213 540l60 38l1 -19zM697 87q-91 61 -229 165v26q70 -34 263 -141q-2 -16 -34 -50zM120 553l7 148h40zM187 499l2 2l87 32v-11zM217 481
l60 15v-16zM277 447q-28 5 -48 10h48v-10zM620 31q-24 19 -154 151v42l205 -158q-7 -12 -51 -35zM48 702h45v-168zM227 434l51 -15v-20zM243 393l35 -22v-10zM4 620v82h11l58 -207q-32 59 -69 125zM277 323l-30 37l31 -27zM519 1l-101 135q18 2 34 20l136 -137
q-49 -19 -69 -18zM235 336q19 -22 42 -46v-32zM6 515v37l55 -84zM6 417v63l89 -75zM420 -4l-78 143q17 -5 43 -4q80 -109 99 -138zM357 -8q-23 0 -34 2l-101 313l166 -313q-10 -1 -31 -2zM4 347v42l97 -10zM215 16l-27 300l14 -31l89 -285q-27 2 -76 16zM4 264v53l111 40z
M34 149q-24 49 -28 80l129 108q-30 -58 -101 -188zM126 56q8 63 40 212l19 -244q-37 17 -59 32zM96 77l-43 44l91 172q-16 -81 -48 -216zM244 768l224 76q2 0 23 -85q-235 -25 -235 -27t-12 36z" />
    <glyph glyph-name="Ucircumflex" unicode="&#xdb;" horiz-adv-x="831" 
d="M472 592v12l206 91h63v-22zM473 635v6l84 54l50 2q5 0 14 -1zM472 533v32q239 70 271 85v-60q-179 -40 -271 -57zM474 671v24h33zM743 505l-272 -19v20q231 45 272 57v-58zM472 445l-1 19q245 12 272 16l1 -62zM744 338q-45 13 -274 62v21l274 -29v-54zM470 362v15
l274 -66v-53zM736 164l-267 143l1 31l273 -110q-1 -42 -7 -64zM154 562l49 134h59q-23 -23 -55 -66q-39 -52 -53 -68zM169 545l103 123v-57zM213 540l60 38l1 -19zM697 87q-91 61 -229 165v26q70 -34 263 -141q-2 -16 -34 -50zM120 553l7 142h40zM187 499l2 2l87 32v-11z
M217 481l60 15v-16zM277 447q-28 5 -48 10h48v-10zM620 31q-24 19 -154 151v42l205 -158q-7 -12 -51 -35zM48 696h45v-162zM227 434l51 -15v-20zM243 393l35 -22v-10zM4 610v86h11l58 -201q-30 53 -69 115zM277 323l-30 37l31 -27zM519 1l-101 135q18 2 34 20l136 -137
q-49 -19 -69 -18zM235 336q19 -22 42 -46v-32zM6 515v37l55 -84zM6 417v63l89 -75zM420 -4l-78 143q17 -5 43 -4q80 -109 99 -138zM357 -8q-23 0 -34 2l-101 313l166 -313q-10 -1 -31 -2zM4 347v42l97 -10zM215 16l-27 300l14 -31l89 -285q-27 2 -76 16zM4 264v53l111 40z
M34 149q-24 49 -28 80l129 108q-30 -58 -101 -188zM126 56q8 63 40 212l19 -244q-37 17 -59 32zM96 77l-43 44l91 172q-16 -81 -48 -216zM365 786zM365 866l-173 -101l10 -33l163 54l163 -54l10 30z" />
    <glyph glyph-name="Ugrave" unicode="&#xd9;" horiz-adv-x="831" 
d="M472 592v12l206 91h63v-22zM473 635v6l84 54l50 2q5 0 14 -1zM472 533v32q239 70 271 85v-60q-179 -40 -271 -57zM474 671v24h33zM743 505l-272 -19v20q231 45 272 57v-58zM472 445l-1 19q245 12 272 16l1 -62zM744 338q-45 13 -274 62v21l274 -29v-54zM470 362v15
l274 -66v-53zM736 164l-267 143l1 31l273 -110q-1 -42 -7 -64zM154 562l49 134h59q-23 -23 -55 -66q-39 -52 -53 -68zM169 545l103 123v-57zM213 540l60 38l1 -19zM697 87q-91 61 -229 165v26q70 -34 263 -141q-2 -16 -34 -50zM120 553l7 142h40zM187 499l2 2l87 32v-11z
M217 481l60 15v-16zM277 447q-28 5 -48 10h48v-10zM620 31q-24 19 -154 151v42l205 -158q-7 -12 -51 -35zM48 696h45v-162zM227 434l51 -15v-20zM243 393l35 -22v-10zM4 610v86h11l58 -201q-30 53 -69 115zM277 323l-30 37l31 -27zM519 1l-101 135q18 2 34 20l136 -137
q-49 -19 -69 -18zM235 336q19 -22 42 -46v-32zM6 515v37l55 -84zM6 417v63l89 -75zM420 -4l-78 143q17 -5 43 -4q80 -109 99 -138zM357 -8q-23 0 -34 2l-101 313l166 -313q-10 -1 -31 -2zM4 347v42l97 -10zM215 16l-27 300l14 -31l89 -285q-27 2 -76 16zM4 264v53l111 40z
M34 149q-24 49 -28 80l129 108q-30 -58 -101 -188zM126 56q8 63 40 212l19 -244q-37 17 -59 32zM96 77l-43 44l91 172q-16 -81 -48 -216zM487 768l-224 76q-2 0 -23 -85q236 -25 236 -27t11 36z" />
    <glyph glyph-name="circumflex" unicode="&#x2c6;" horiz-adv-x="466" 
d="M215 866l-173 -101l10 -33l166 50l160 -50l10 30z" />
    <glyph glyph-name="tilde" unicode="&#x2dc;" horiz-adv-x="441" 
d="M386 813q-41 -73 -105 -73q-27 0 -78.5 18t-78.5 18q-44 0 -74 -31q-4 4 -10.5 5t-9.5 3q43 86 124 86q25 0 70.5 -17t69.5 -17q50 0 76 18z" />
    <glyph glyph-name="macron" unicode="&#xaf;" horiz-adv-x="432" 
d="M89 814h242v-59h-242v59z" />
    <glyph glyph-name="macron" unicode="&#x2c9;" horiz-adv-x="432" 
d="M89 814h242v-59h-242v59z" />
    <glyph glyph-name="cedilla" unicode="&#xb8;" horiz-adv-x="362" 
d="M108 0v-76h16q12 -1 16 -1q20 0 32.5 -10.5t12.5 -23.5q0 -28 -44 -28q-47 0 -70 13v-46q7 -2 39 -16q17 -7 62 -7q57 0 80 14q27 16 35 64q0 65 -60 74q-11 2 -23 0.5t-23 -0.5v43h-73z" />
    <glyph glyph-name="DEL" horiz-adv-x="800" 
d="M0 -58h800v-87h-800v87z" />
    <glyph glyph-name="notequal" unicode="&#x2260;" horiz-adv-x="22" 
 />
    <glyph glyph-name="infinity" unicode="&#x221e;" horiz-adv-x="20" 
 />
    <glyph glyph-name="lessequal" unicode="&#x2264;" horiz-adv-x="20" 
 />
    <glyph glyph-name="greaterequal" unicode="&#x2265;" horiz-adv-x="20" 
 />
    <glyph glyph-name="partialdiff" unicode="&#x2202;" horiz-adv-x="720" 
d="M196 333l122 365h13v-77zM165 307l-2 10l107 381h26zM561 144l77 -1v-27zM154 364l60 334h31zM212 316l119 239v-73zM133 369l17 329l36 1zM637 55l-172 88h47l126 -51zM225 297l233 309v-147zM244 285l91 64v-44zM113 341l-28 358l34 -1zM384 142l37 -1l218 -114v-25
h-47l-196 133q-8 5 -12 7zM255 264l80 18v-27zM5 698h48l44 -387zM335 214l-76 30l76 -13v-17zM246 215l309 -213h-87zM263 223l72 -33v-14zM3 423v164l86 -328zM399 2l-121 157l162 -158zM316 2l-59 148l109 -148h-50zM246 1l-12 147l55 -146zM3 285l1 79l93 -158zM173 2
l42 135l3 -136zM4 200l-1 54l98 -80zM143 2h-68l104 135q10 12 22 25zM3 136v36l93 -18zM3 66v43l114 24zM47 2h-44v32l151 105z" />
    <glyph glyph-name="summation" unicode="&#x2211;" horiz-adv-x="844" 
d="M662 521l22 144l15 -5v-157zM633 524l-46 14l5 149l66 -13zM532 553l-25 144q10 3 26 0q21 -5 26 -5q5 -35 2 -147zM471 559l-61 146l68 -2l28 -148zM399 559l-74 146q38 -2 54 0l60 -144zM655 256q18 17 75 42q14 -20 18 -39q-23 -3 -93 -3zM637 267q18 24 61 69l18 -21
zM623 274l23 91l32 -17q-35 -51 -55 -74zM602 281l3 101l19 -7zM677 236q9 4 33 4h23h22v-40q-47 17 -78 36zM344 550q-99 116 -117 134q14 15 63 16l82 -142zM537 407l38 -12v-79zM736 144q-4 4 -38 37q-24 22 -32 40l82 -36q3 -11 -12 -41zM458 426q15 1 42 -8l55 -112
q-69 85 -97 120zM701 93q-16 22 -44 108q17 -15 51 -48q16 -16 16 -28q0 -16 -23 -30v-2zM393 426h36l97 -117zM296 511l-158 135l61 30l124 -135q-20 -17 -27 -30zM58 591l59 45l173 -152q0 -40 61 -54l161 -142q-106 75 -454 303zM626 43q2 55 19 108q4 -34 25 -83z
M19 537l22 32l448 -304zM602 32q-18 -8 -38 -16t-37 -9l90 140zM481 169q2 0 -41 -1q-20 -1 -39 2q3 9 15 33q54 -21 85 -27zM428 265l-416 204q-6 6 -4 21q2 12 4 23q273 -170 405 -242zM17 397q-8 23 -7 45q35 -15 463 -227zM498 2q-27 -5 -84 -10q43 43 157 127zM39 360
q60 -26 120 -53q87 -37 125 -44l8 -2q-50 -6 -124 18q-90 29 -129 81zM555 125q-15 -11 -29 -21q-2 -2 -148 -112q-50 4 -97 6l272 126q1 0 2 1zM239 2l-107 17l374 107zM13 83v55q55 5 180 8q66 -10 184 -3q-196 -29 -364 -60zM90 30l-78 29l446 77zM13 164v59l146 -59
h-146zM382 746l173 101l-9 33l-164 -53l-163 53l-10 -30z" />
    <glyph glyph-name="product" unicode="&#x220f;" horiz-adv-x="844" 
d="M662 521l22 144l15 -5v-157zM633 524l-46 14l5 149l66 -13zM532 553l-25 144q10 3 26 0q21 -5 26 -5q5 -35 2 -147zM471 559l-61 146l68 -2l28 -148zM399 559l-74 146q38 -2 54 0l60 -144zM655 256q18 17 75 42q14 -20 18 -39q-23 -3 -93 -3zM637 267q18 24 61 69l18 -21
zM623 274l23 91l32 -17q-35 -51 -55 -74zM602 281l3 101l19 -7zM677 236q9 4 33 4h23h22v-40q-47 17 -78 36zM344 550q-99 116 -117 134q14 15 63 16l82 -142zM537 407l38 -12v-79zM736 144q-4 4 -38 37q-24 22 -32 40l82 -36q3 -11 -12 -41zM458 426q15 1 42 -8l55 -112
q-69 85 -97 120zM701 93q-16 22 -44 108q17 -15 51 -48q16 -16 16 -28q0 -16 -23 -30v-2zM393 426h36l97 -117zM296 511l-158 135l61 30l124 -135q-20 -17 -27 -30zM58 591l59 45l173 -152q0 -40 61 -54l161 -142q-106 75 -454 303zM626 43q2 55 19 108q4 -34 25 -83z
M19 537l22 32l448 -304zM602 32q-18 -8 -38 -16t-37 -9l90 140zM481 169q2 0 -41 -1q-20 -1 -39 2q3 9 15 33q54 -21 85 -27zM428 265l-416 204q-6 6 -4 21q2 12 4 23q273 -170 405 -242zM17 397q-8 23 -7 45q35 -15 463 -227zM498 2q-27 -5 -84 -10q43 43 157 127zM39 360
q60 -26 120 -53q87 -37 125 -44l8 -2q-50 -6 -124 18q-90 29 -129 81zM555 125q-15 -11 -29 -21q-2 -2 -148 -112q-50 4 -97 6l272 126q1 0 2 1zM239 2l-107 17l374 107zM13 83v55q55 5 180 8q66 -10 184 -3q-196 -29 -364 -60zM90 30l-78 29l446 77zM13 164v59l146 -59
h-146zM382 746l173 101l-9 33l-164 -53l-163 53l-10 -30z" />
    <glyph glyph-name="pi" unicode="&#x3c0;" horiz-adv-x="761" 
d="M54 701l250 -431l-3 -10l-296 441h49zM149 701l203 -365l-267 365h64zM227 701l104 -305l-156 305h52zM273 701l82 -264l27 71l-15 -163l-120 356h26zM383 313l19 264l44 124zM524 701l-111 -327l56 327h55zM614 701l-200 -380l136 380h64zM639 702l73 -1l-50 -100
l-216 -257zM332 329l5 -20l-35 41l5 -52l-196 343zM541 370l-125 -94h-5l219 258zM90 541l221 -336l-12 9l-81 68zM527 335l-41 -66l-73 -12zM226 251l75 -69l-74 6zM414 237l75 6v-43zM429 208l60 -34v-90zM434 1h-52l23 176zM426 182l66 -146v-35h-38zM226 171l105 -6
l-104 -35zM360 0h-59l79 165zM335 149l-111 -102v64zM343 117l-70 -117l-49 1v14l119 115v-13zM240 768l224 76q2 0 23 -85q-235 -25 -235 -27t-12 36z" />
    <glyph glyph-name="integral" unicode="&#x222b;" horiz-adv-x="761" 
d="M54 701l250 -431l-3 -10l-296 441h49zM149 701l203 -365l-267 365h64zM227 701l104 -305l-156 305h52zM273 701l82 -264l27 71l-15 -163l-120 356h26zM383 313l19 264l44 124zM524 701l-111 -327l56 327h55zM614 701l-200 -380l136 380h64zM639 702l73 -1l-50 -100
l-216 -257zM332 329l5 -20l-35 41l5 -52l-196 343zM541 370l-125 -94h-5l219 258zM90 541l221 -336l-12 9l-81 68zM527 335l-41 -66l-73 -12zM226 251l75 -69l-74 6zM414 237l75 6v-43zM429 208l60 -34v-90zM434 1h-52l23 176zM426 182l66 -146v-35h-38zM226 171l105 -6
l-104 -35zM360 0h-59l79 165zM335 149l-111 -102v64zM343 117l-70 -117l-49 1v14l119 115v-13zM240 768l224 76q2 0 23 -85q-235 -25 -235 -27t-12 36z" />
    <glyph glyph-name="Omega" unicode="&#x3a9;" horiz-adv-x="806" 
d="M590 552l146 53v-38zM652 540l84 3v-52q-34 30 -84 49zM304 459l393 211l39 -16v-23zM302 478l302 221l61 -17zM265 477l235 232l68 -7zM244 480l157 219l65 7zM698 181l38 28v-39zM234 499l67 170l65 21zM640 149q26 4 38 15l56 -16l2 -27zM396 476q-9 -8 -23 -27
l-81 -8zM195 458l10 145l63 49zM566 153l168 -58v-34zM665 19l-378 248q91 -41 216 -109q106 -59 212 -117zM269 294l75 6q6 -22 43 -57zM574 -5l-285 238l348 -224zM466 -11l-212 244l284 -244h-72zM347 6l-124 231l202 -243zM221 70l-24 169l112 -217zM76 239l-12 45
l87 20zM120 157l-31 55l69 72zM137 128l37 123l18 -166zM-1 411l69 1l8 24l20 -22l30 2l-41 50l27 45l30 -94l24 2l-32 117l42 47l-4 -164l415 19v-61l-284 14l35 -8q-6 -18 -4 -38l253 9v-61l-526 21v5l-63 3v11l63 2l-1 29l64 -26l162 5l-12 25l29 -24l28 1l-53 47l-128 1
l3 -11l-9 12h-31l39 -44l-90 42l1 3l-64 5v11z" />
    <glyph glyph-name="Omega" unicode="&#x2126;" horiz-adv-x="806" 
d="M590 552l146 53v-38zM652 540l84 3v-52q-34 30 -84 49zM304 459l393 211l39 -16v-23zM302 478l302 221l61 -17zM265 477l235 232l68 -7zM244 480l157 219l65 7zM698 181l38 28v-39zM234 499l67 170l65 21zM640 149q26 4 38 15l56 -16l2 -27zM396 476q-9 -8 -23 -27
l-81 -8zM195 458l10 145l63 49zM566 153l168 -58v-34zM665 19l-378 248q91 -41 216 -109q106 -59 212 -117zM269 294l75 6q6 -22 43 -57zM574 -5l-285 238l348 -224zM466 -11l-212 244l284 -244h-72zM347 6l-124 231l202 -243zM221 70l-24 169l112 -217zM76 239l-12 45
l87 20zM120 157l-31 55l69 72zM137 128l37 123l18 -166zM-1 411l69 1l8 24l20 -22l30 2l-41 50l27 45l30 -94l24 2l-32 117l42 47l-4 -164l415 19v-61l-284 14l35 -8q-6 -18 -4 -38l253 9v-61l-526 21v5l-63 3v11l63 2l-1 29l64 -26l162 5l-12 25l29 -24l28 1l-53 47l-128 1
l3 -11l-9 12h-31l39 -44l-90 42l1 3l-64 5v11z" />
    <glyph glyph-name="lozenge" unicode="&#x25ca;" horiz-adv-x="507" 
d="M156 306l-148 71l147 71l66 144l77 -144l148 -71l-148 -71l-71 -148zM189 338l38 -111l34 111l116 39l-113 33l-41 115l-34 -115l-112 -33z" />
    <glyph glyph-name="fraction" unicode="&#x2044;" horiz-adv-x="1" 
 />
    <glyph glyph-name="fi" unicode="&#xf001;" horiz-adv-x="20" 
 />
    <glyph glyph-name="fl" unicode="&#xf002;" horiz-adv-x="20" 
 />
    <glyph glyph-name="apple" unicode="&#xf000;" horiz-adv-x="22" 
 />
    <glyph glyph-name="dotlessi" unicode="&#x131;" horiz-adv-x="392" 
d="M187 505l57 197h60zM211 495q32 54 95 160v-56zM169 518v184h46zM203 454l103 110v-64zM109 702h33l5 -180zM216 434l90 28v-54zM101 565l3 -80l-56 217h33l49 -203zM222 409l84 -25v-37zM1 600v102h17l75 -258zM214 387q5 -3 92 -71v-68zM1 461v83l103 -177zM233 318
l73 -112v-131zM1 367v56l101 -88zM246 -1l-22 276l81 -276h-59zM1 298v42l108 -32zM151 -1q34 195 46 279l22 -279h-68zM1 222v53l115 11zM1 132v62l121 68q-39 -45 -121 -130zM118 -1h-64l4 7q5 9 108 235zM23 0l-22 -1l-1 95l144 160q-36 -81 -121 -254zM7072 8z" />
    <glyph glyph-name="breve" unicode="&#x2d8;" horiz-adv-x="302" 
d="M253 806q4 -27 -42 -54q-42 -23 -73 -23q-34 0 -68 20q-42 23 -42 57h40q0 -13 26 -21q20 -6 39 -6q68 0 80 27h40z" />
    <glyph glyph-name="dotaccent" unicode="&#x2d9;" horiz-adv-x="244" 
d="M63 795q0 21 16.5 35.5t39.5 14.5q24 0 40.5 -14.5t16.5 -35.5t-16.5 -35.5t-40.5 -14.5q-23 0 -39.5 14.5t-16.5 35.5z" />
    <glyph glyph-name="ring" unicode="&#x2da;" horiz-adv-x="322" 
d="M146 850q33 0 58 -16q29 -17 29 -46t-29 -47q-25 -15 -58 -15q-32 0 -57 15q-29 18 -29 47t29 46q25 16 57 16zM146 810q-22 0 -36 -10q-10 -6 -10 -12t10 -13q14 -9 36 -9q23 0 37 9q10 7 10 13t-10 12q-14 10 -37 10z" />
    <glyph glyph-name="hungarumlaut" unicode="&#x2dd;" horiz-adv-x="305" 
d="M21 739l49 89h72l-85 -89h-36zM90 739l87 89h80l-126 -89h-41z" />
    <glyph glyph-name="ogonek" unicode="&#x2db;" horiz-adv-x="319" 
d="M244 -162q-33 -29 -66 -28q-48 2 -79.5 27t-31.5 63q0 40 45 73q40 31 80 31v-21q-26 0 -45 -21t-19 -51t19 -48.5t46 -18.5q26 0 37 10z" />
    <glyph glyph-name="caron" unicode="&#x2c7;" horiz-adv-x="584" 
d="M295 732l173 101l-10 33l-166 -57l-160 57l-10 -30z" />
    </font>
</defs>
</svg>
