<?xml version="1.0" standalone="no"?>
<!DOCTYPE svg PUBLIC "-//W3C//DTD SVG 1.1//EN" "http://www.w3.org/Graphics/SVG/1.1/DTD/svg11.dtd" >
<svg>
<metadata>
Created by FontForge 20120731 at Thu Apr 18 03:49:04 2019
 By www-data
Digitized by Dan X. Solo. Software (c) 1999 by Dover Publications, Inc., New York.
</metadata>
<defs>
<font id="Chinatown" horiz-adv-x="20" >
  <font-face 
    font-family="Chinatown"
    font-weight="400"
    font-stretch="normal"
    units-per-em="1000"
    panose-1="0 0 4 0 0 0 0 0 0 0"
    ascent="800"
    descent="-200"
    x-height="449"
    cap-height="707"
    bbox="-45 -247 999 897"
    underline-thickness="20"
    underline-position="-123"
    unicode-range="U+0020-F002"
  />
<missing-glyph horiz-adv-x="500" 
d="M63 0v800h375v-800h-375zM125 63h250v675h-250v-675z" />
    <glyph glyph-name=".notdef" horiz-adv-x="500" 
d="M63 0v800h375v-800h-375zM125 63h250v675h-250v-675z" />
    <glyph glyph-name=".null" horiz-adv-x="0" 
 />
    <glyph glyph-name="glyph2" horiz-adv-x="230" 
 />
    <glyph glyph-name="space" unicode=" " horiz-adv-x="230" 
 />
    <glyph glyph-name="exclam" unicode="!" horiz-adv-x="289" 
d="M220 121q-13 -29 -55 -74q-47 -50 -81 -62q-60 72 -73 218l4 23q23 -20 67 -57q27 -20 68 -32zM245 680q-138 -264 -142 -455q-42 60 -59 129q-37 158 -37 245q0 19 93 51t145 30z" />
    <glyph glyph-name="quotedbl" unicode="&#x22;" horiz-adv-x="308" 
d="M272 604q0 -66 -39 -145q-33 -67 -73 -106q-7 21 -7 19q0 2 1 5q19 76 19 155q0 44 -6 88q-3 12 -7 36q-2 13 -5 40l19 -11q16 -3 55 -31q43 -32 43 -50zM122 604q0 -66 -39 -145q-33 -67 -73 -106q-7 21 -7 19q0 2 1 5q19 76 19 155q0 44 -6 88q-3 12 -7 36q-2 13 -5 40
l19 -11q16 -3 55 -31q43 -32 43 -50z" />
    <glyph glyph-name="numbersign" unicode="#" horiz-adv-x="555" 
d="M166 209q66 5 125 23l29 149q-57 -15 -113 -22zM487 216q-79 -36 -165 -50l-44 -154h-28l28 148q-63 -6 -124 2l-41 -150h-25l27 156q-97 17 -130 47l8 3q66 -11 128 -11l26 147h-17q-33 -1 -95 10q2 53 40 90q43 -13 86 -20l25 145l88 30l-48 -180h7q48 0 97 8l35 184
l95 31l-56 -199q53 16 108 40l9 -1q-34 -51 -131 -88l-44 -152q41 17 79 41q47 -25 62 -77z" />
    <glyph glyph-name="dollar" unicode="$" horiz-adv-x="397" 
d="M340 384q-30 25 -86 56q-70 38 -107 38q-16 0 -20 -3q8 -32 26 -46q16 -10 31 -19q9 -7 67 -43q45 -28 69.5 -51t39.5 -67q9 -24 9 -58q0 -9 -9 -53q-15 26 -33 62q-20 -11 -81 -56q19 -68 18 -90v-63q-18 3 -59.5 22.5t-41.5 25.5l21 34.5t26 59.5q-2 2 -3 -2t-5.5 -4
t-47.5 -14t-47 -14h-19q-42 91 -58 147q21 -7 64.5 -19.5t99.5 -12.5q52 0 41 -1q26 2 50 15q0 3 -13 10q-77 36 -103 53q-63 42 -79 98q-5 13 -13 36q-8 28 -3 48q-26 -4 -73 -14q73 56 180 83l-6 15q0 8 -9 32q-11 32 -10 55q45 18 97 25q-1 -4 -11 -34q-6 -17 -6 -38
l-6 -51q59 1 100 -8q23 -6 46 -13q1 -1 1 -4q0 -15 -18 -74q-10 -32 -19 -63z" />
    <glyph glyph-name="percent" unicode="%" horiz-adv-x="717" 
d="M490 688q-19 -112 -49 -200q-24 -67 -83 -194q-35 -77 -119 -182q-89 -112 -141 -135l3 14q87 118 123 196q142 304 150 435q0 8 3 26q42 31 46 34q16 10 32 10q11 0 35 -4zM581 27q-28 -36 -39 -36q-12 0 -47 27q-39 31 -64.5 83t-25.5 102q0 48 25 101.5t64 79.5l-11 8
q50 50 61 50q2 0 35 -21q47 -31 73 -90q15 -36 15 -90q0 -102 -86 -214zM549 333q-19 22 -30 22q-21 0 -32 -42q-8 -30 -8 -59q0 -49 24 -84q20 -29 68 -61q1 -15 0 -21q24 45 24 95q0 95 -46 150zM181 257q-28 -36 -39 -36q-12 0 -47 27q-39 31 -64.5 83t-25.5 102
q0 48 25 101.5t64 79.5l-11 8q50 50 61 50q2 0 35 -21q47 -31 73 -90q15 -36 15 -90q0 -102 -86 -214zM149 563q-19 22 -30 22q-21 0 -32 -42q-8 -30 -8 -59q0 -49 24 -84q20 -29 68 -61q1 -15 0 -21q24 45 24 95q0 95 -46 150z" />
    <glyph glyph-name="ampersand" unicode="&#x26;" horiz-adv-x="607" 
d="M529 386q3 -19 -6 -79q-14 -82 -14 -83q-4 0 -39 16t-51 20q-2 -13 -6 -119q-2 -95 -9 -104q-12 -16 -75 -31q-57 -13 -90 -13q-103 0 -172 77q-66 74 -66 174q0 97 100 177q-15 41 -15 78q0 80 62 132q56 48 131 48q64 0 64 -10q0 -3 -9 -7l23 -156q-67 36 -116 36
q-43 0 -75 -20q-35 -20 -35 -51q0 -1 -1 -11q-1 -7 0 -11q2 -5 8 -5q5 0 43.5 7.5t43.5 7.5q55 0 191 -36q-20 -10 -113 -14.5t-135 -25.5q-64 -31 -64 -110q0 -19 19.5 -40.5t29.5 -19.5q142 139 301 170q16 3 75 3zM405 263q-45 8 -69 8q-41 0 -82.5 -21t-67.5 -53
q32 -16 41 -16q40 0 96.5 25.5t81.5 56.5z" />
    <glyph glyph-name="quotesingle" unicode="'" horiz-adv-x="161" 
d="M122 604q0 -66 -39 -145q-33 -67 -73 -106q-7 21 -7 19q0 2 1 5q19 76 19 155q0 44 -6 88q-3 12 -7 36q-2 13 -5 40l19 -11q16 -3 55 -31q43 -32 43 -50z" />
    <glyph glyph-name="parenleft" unicode="(" horiz-adv-x="264" 
d="M123 -57q-65 138 -87 205q-36 109 -36 222q0 176 177 383l4 -14q-42 -113 -59 -176q-25 -95 -25 -177q0 -167 105 -348q3 0 6 -11q-29 -54 -36 -61q-11 -12 -49 -23z" />
    <glyph glyph-name="parenright" unicode=")" horiz-adv-x="264" 
d="M86 753q65 -138 87 -204q35 -110 35 -223q0 -176 -177 -383l-3 15q42 112 59 175q25 95 25 177q0 167 -105 348q-3 1 -7 11q29 54 36 61q12 12 50 23z" />
    <glyph glyph-name="asterisk" unicode="*" horiz-adv-x="368" 
d="M170 544q25 4 59 14q51 16 57 17q23 -10 27 -13q7 -6 14 -25q-64 -25 -129 -32q24 -20 64 -60q2 -18 -4 -28q-1 -3 -17 -21q-47 39 -91 99q-5 -31 -18 -88q-20 -15 -54 -10q10 60 29 106q-89 9 -116 43q6 0 54 -4q36 -3 70 1q-28 48 -34 71q-4 19 -4 79q8 -16 28 -58
q11 -22 37 -58q52 88 102 110q-1 -8 -33 -65q-36 -65 -41 -78z" />
    <glyph glyph-name="plus" unicode="+" horiz-adv-x="674" 
d="M367 271q-9 -179 -69 -264q-13 30 -13 68q0 16 3.5 49t3.5 51q0 31 -7 89l-19 -1q-62 -3 -133 15q-86 20 -145 63q96 -2 154 -2q43 0 133 11q-15 105 -58 213q29 65 83 85q49 -129 64 -284q48 9 186 57q15 -7 36 -40q16 -27 25 -50q-123 -47 -244 -60z" />
    <glyph glyph-name="comma" unicode="," horiz-adv-x="280" 
d="M212 104q0 -66 -64 -145q-55 -67 -123 -106l-11 19q11 41 22 83q12 47 12 87q0 31 -12 78q-17 65 -19 76q46 -9 111 -35q84 -33 84 -57z" />
    <glyph glyph-name="hyphen" unicode="-" horiz-adv-x="399" 
d="M272 176q-69 0 -154 56q-81 53 -117 114l19 12q42 -11 83 -23q47 -12 88 -12q31 0 77 12q65 17 76 19q-14 -51 -27 -101q-22 -77 -45 -77z" />
    <glyph glyph-name="hyphen" unicode="&#x2010;" horiz-adv-x="399" 
d="M272 176q-69 0 -154 56q-81 53 -117 114l19 12q42 -11 83 -23q47 -12 88 -12q31 0 77 12q65 17 76 19q-14 -51 -27 -101q-22 -77 -45 -77z" />
    <glyph glyph-name="period" unicode="." horiz-adv-x="261" 
d="M199 117q0 -20 -35 -66.5t-53 -46.5q-15 0 -44 22q-24 20 -36 36q-31 41 -31 99q0 9 2.5 26.5t2.5 25.5q89 -41 95 -43q54 -23 99 -30v-23z" />
    <glyph glyph-name="slash" unicode="/" horiz-adv-x="409" 
d="M390 688q-19 -112 -49 -200q-24 -67 -83 -194q-35 -77 -119 -182q-89 -112 -141 -135l3 14q87 118 123 196q142 304 150 435q0 8 3 26q42 31 46 34q16 10 32 10q11 0 35 -4z" />
    <glyph glyph-name="zero" unicode="0" horiz-adv-x="472" 
d="M416 388q0 -167 -142 -352q-43 -57 -58 -57q-18 0 -73 43q-64 50 -105.5 135.5t-41.5 167.5q0 81 43 168q45 92 112 132l-20 15q73 73 89 73q1 0 53 -33q76 -49 118 -146q25 -59 25 -146zM313 291q0 161 -79 255q-34 40 -56 40q-37 0 -59 -72q-16 -54 -16 -104
q0 -85 40 -145q34 -49 113 -102l1 -11q0 -27 -6 -58q62 90 62 197z" />
    <glyph glyph-name="one" unicode="1" horiz-adv-x="365" 
d="M274 497q0 -107 -43 -257q-40 -142 -95 -245q3 209 3 299q0 155 -33 226q-14 29 -82 55q-11 4 -23 9q-5 3 -5 13q146 61 241 72q17 -24 28 -83q9 -48 9 -89z" />
    <glyph glyph-name="two" unicode="2" horiz-adv-x="548" 
d="M481 89q-39 -102 -53 -102q-20 0 -83 14t-84 23q-6 2 -50 26q-39 20 -45 20q-5 0 -51 -32q-28 -19 -55 -39q3 7 35 51q29 41 29 44q0 4 -56 59q-61 61 -66 67q144 -70 164 -70q26 0 68 69q34 56 47.5 95.5t13.5 67.5q0 43 -28 72t-71 29q-23 0 -56 -11q-44 -14 -54 -16
q-29 106 -29 136q0 20 59 46q52 24 78 26q17 2 44 2q200 0 200 -197q0 -88 -69 -187q-45 -63 -138 -151q4 -15 116 -28z" />
    <glyph glyph-name="three" unicode="3" horiz-adv-x="539" 
d="M248 -1q88 0 155 50q75 56 75 140q0 108 -136 188q-7 4 -7 8q67 61 67 130q0 58 -48.5 102.5t-107.5 44.5q-88 0 -205 -68q8 -64 69 -147q2 1 55 31q31 17 59 17q59 0 59 -54q0 -41 -18 -41q-8 0 -24.5 2t-24.5 2q-45 0 -55.5 -7.5t-14.5 -34.5q-7 -42 -17 -72
q6 -11 21.5 -12t45.5 -4q127 -20 127 -112q0 -100 -117 -100q-41 0 -86 18q-30 12 -63 32q-29 18 -30 18l-6 -60q37 -33 106 -53q63 -18 121 -18z" />
    <glyph glyph-name="four" unicode="4" horiz-adv-x="616" 
d="M571 158q-16 -4 -33 -4q-28 0 -76 7q-55 7 -75 9q-3 -3 -3 -5q0 -27 18 -78.5t18 -78.5q-61 -18 -102 -21q-18 49 -24 103q-2 20 -6 104q-21 13 -75 42q-64 33 -73 33q-4 0 -27 -20q-28 -23 -29 -24q1 7 23 61q-3 3 -61 44q-37 26 -54 51q65 -7 136 -21q12 18 25.5 70
t13.5 75v113q58 -13 63 -14q36 -9 59 -23q-36 -131 -103 -235l11 -9q8 -1 48 -13q30 -8 49 -8q33 123 57 178q37 84 104 156v-7q1 -24 -14 -55q-21 -41 -24 -52q-41 -143 -41 -219q0 -6 7 -13h110q9 0 26.5 4t25.5 4q14 0 17 -13q9 -43 9 -141z" />
    <glyph glyph-name="five" unicode="5" horiz-adv-x="587" 
d="M521 215q0 -56 -22 -122t-55 -114q-109 75 -112 75q-4 0 -21 -11q-20 -14 -21 -15q-27 -14 -77 -24q-46 -9 -81 -9q-78 0 -131 29q10 18 80 134h13q2 0 39 -22t45 -25q36 -13 85 -13q68 0 96 17q13 8 27 54q12 41 12 62q0 53 -44.5 93t-98.5 40q-63 0 -87 -23
q-5 -31 -5 -32q-4 -16 -16 -28h-7q-28 -2 -95 32q2 10 45 121q30 77 30 123q0 7 -7 14h-143l1 9q69 44 150 60q64 14 162 14q86 0 182 -13v-21q0 -23 -49 -121q-64 21 -128 43q-82 24 -130 24q-6 -3 -6 -9q0 -28 6 -75q8 -59 9 -75l7 -7q92 43 146 43q95 0 150 -68
q51 -63 51 -160z" />
    <glyph glyph-name="six" unicode="6" horiz-adv-x="558" 
d="M504 229q0 -113 -89 -181q-82 -61 -198 -61q-11 0 -70 8q0 -16 7 -41q-67 64 -107 152q-43 92 -43 181q0 111 49 227q12 28 51 89q44 71 59 71q11 0 69 -33t58 -41q0 -2 -39 -52q-42 -54 -45 -59q-30 -44 -39 -78q103 21 138 21q45 0 67 -10q61 -26 96.5 -77.5
t35.5 -115.5zM362 253q0 42 -34 66q-30 21 -74 21q-15 0 -70 -15q-14 -3 -28 -7q-17 -5 -23 -14q-18 -26 -18 -97q0 -101 26 -196q6 4 16 13q2 2 30 68q23 54 42 54q3 0 8.5 -2t9.5 -2q38 0 76.5 36t38.5 75z" />
    <glyph glyph-name="seven" unicode="7" horiz-adv-x="481" 
d="M494 608l-2 -8q-35 -5 -71 -10q-42 -7 -69 -19q0 -93 -7 -182q-17 -219 -66 -354q-24 -67 -29 -65q-98 16 -152 58q37 62 98 175q70 149 108 356q-2 3 -3 3q-32 0 -124 -49q-77 -42 -120 -74l-12 -10q-25 64 -46 152q51 23 153 39q80 10 160 21q-1 -1 -2 -1t-1 5
q0 15 12 73v19l10 3q16 -51 18 -96q43 -4 145 -36z" />
    <glyph glyph-name="eight" unicode="8" horiz-adv-x="468" 
d="M402 495q0 -83 -76 -161q26 -29 48 -78q24 -52 24 -86q0 -46 -26 -112q-27 -71 -59 -95l-8 5q2 37 2 61q0 35 -3 65q-63 -60 -81 -111q-11 -1 -21 -1q-74 0 -139.5 65.5t-65.5 139.5q0 52 23 101q15 34 42 67l22 27q0 4 -10 22q-11 22 -12 25q-25 63 -25 116t28 105
q9 -25 33 -72q1 3 28 91q22 13 67 13q68 0 89 -10q52 -24 86 -72.5t34 -104.5zM326 432q0 50 -29 87q-33 40 -82 40q-16 0 -45 -13t-38 -25q19 -30 55 -63q33 -28 65 -55l22 -22q18 -17 23 -17q10 0 20 29q9 26 9 39zM291 143v17q0 19 -69.5 89.5t-85.5 70.5
q-17 0 -34.5 -29t-17.5 -48q0 -56 44 -86q38 -27 95 -27q35 0 68 13z" />
    <glyph glyph-name="nine" unicode="9" horiz-adv-x="491" 
d="M444 342q0 -72 -31.5 -179.5t-70.5 -168.5q-6 -11 -22 -31q0 -1 -2 -1l-7 -1q-9 0 -58 40.5t-51 49.5q92 160 92 179v18q-14 0 -43 -1h-43q-75 0 -132 37q-27 18 -48 66q-20 45 -20 80q0 -5 6 30q16 87 97 153t170 63h9l4 6v5v12q17 -7 29 -24q121 -160 121 -333z
M329 469q0 66 -13 138q-4 21 -16 25q-2 1 -15 1q-58 0 -110 -39q-56 -42 -56 -99q0 -12 7 -38.5t14 -34.5t31.5 -22t34.5 -14q23 0 56 16t31 16q7 0 17 -13q7 -9 14 -19q0 14 2.5 42t2.5 41z" />
    <glyph glyph-name="colon" unicode=":" horiz-adv-x="261" 
d="M206 365q0 -28 -32 -74q-34 -49 -60 -49q-27 0 -64.5 42.5t-40.5 71.5q-5 40 -5 39q0 16 8 53q74 -35 93 -43q53 -21 97 -30q4 -3 4 -10zM199 117q0 -20 -35 -66.5t-53 -46.5q-15 0 -44 22q-24 20 -36 36q-31 41 -31 99q0 9 2.5 26.5t2.5 25.5q89 -41 95 -43
q54 -23 99 -30v-23z" />
    <glyph glyph-name="semicolon" unicode=";" horiz-adv-x="280" 
d="M223 364q-8 -33 -34 -75q-31 -52 -55 -52q-16 0 -51 26q-62 47 -62 129q0 15 9 52q36 -20 95 -42q87 -34 98 -38zM211 106q0 -66 -65 -145q-55 -67 -122 -106q-11 21 -11 19q0 2 1 5q29 68 33 165q0 1 -1 13q-4 39 -10 65q-5 12 -13 36q-2 13 -7 40l28 -8q26 -2 93 -33
q74 -33 74 -51z" />
    <glyph glyph-name="less" unicode="&#x3c;" horiz-adv-x="457" 
d="M327 122q-93 18 -181 95q-48 41 -145 154q8 5 7 5q14 -6 28.5 -12t36.5 -6q81 189 236 202q2 -2 47 -50q33 -35 32 -51q-98 -7 -147 -38q-58 -41 -116 -83l1 -4q112 -63 148 -79q65 -31 115 -33z" />
    <glyph glyph-name="equal" unicode="=" horiz-adv-x="647" 
d="M62 299q-34 23 -46 42q-10 15 -19 54q80 28 147 36q52 7 153 7q62 0 157 -29q101 -30 132 -64l-10 -3q-112 29 -215 29q-160 0 -299 -72zM532 296q35 -23 47 -42q10 -15 18 -54q-79 -28 -146 -36q-52 -7 -154 -7q-61 0 -156 29q-101 30 -133 64l11 3q112 -29 214 -29
q161 0 299 72z" />
    <glyph glyph-name="greater" unicode="&#x3e;" horiz-adv-x="454" 
d="M64 122q93 18 181 95q47 41 144 154q-8 5 -6 5q-15 -6 -29 -12t-36 -6q-81 189 -237 202q-1 -2 -46 -50q-33 -35 -32 -51q98 -7 147 -38q58 -41 115 -83v-4q-112 -63 -148 -79q-66 -31 -116 -33z" />
    <glyph glyph-name="question" unicode="?" horiz-adv-x="457" 
d="M428 551q-18 8 -73 21q3 -56 -27 -144q0 -1 -54 -143q-14 -36 -12 -105q-6 -6 -80.5 39.5t-74.5 71.5q0 21 92 121t92 140v28q-3 3 -45 -4q-67 -11 -106 -30q-61 -29 -97 -87q-9 0 -30 64q-20 61 -21 81q71 58 200 58q36 0 88 -11q0 24 -2 28.5t-34 50.5q17 -1 46 -23
q23 -17 37 -35q9 -11 15 -40q21 -14 37 -28q39 -32 49 -53zM274 92q-3 -39 -63 -109q-42 3 -75 56q-28 46 -28 89l-9 40q39 -23 79 -46q46 -24 96 -30z" />
    <glyph glyph-name="at" unicode="@" horiz-adv-x="765" 
d="M637 168h61q-39 -90 -124 -146t-183 -56q-152 0 -251 110q-97 106 -97 259q0 156 94 266q98 115 252 115q129 0 222.5 -86.5t93.5 -214.5q0 -99 -63 -189q-70 -99 -165 -99q-76 0 -68 85q-54 -79 -108 -79q-58 0 -93 47q-32 42 -32 102q0 85 57 160q62 81 144 81
q60 0 78 -65l16 56h88l-44 -164q-34 -127 -34 -155q0 -24 27 -24q58 0 105 92q40 80 40 145q0 107 -76 182.5t-182 75.5q-134 0 -217 -97q-79 -92 -79 -228q0 -137 81 -228q84 -96 219 -96q152 0 238 151zM390 482q-51 0 -90 -93q-34 -78 -34 -138q0 -78 48 -78q51 0 90 97
q32 80 32 141q0 71 -46 71z" />
    <glyph glyph-name="A" unicode="A" horiz-adv-x="505" 
d="M475 85q0 -11 -56 -47q-49 -32 -71 -41q-14 -5 -41 -15v251q-30 -39 -133 -111v-157h-24v148l-37 -13q-7 33 -21 97h-3q-22 -39 -42 -104q-16 -55 -33 -109q-14 49 -14 108q0 135 50 308t121 289q16 -12 70 -71q57 -63 57 -72q0 -3 -8 -13q-11 -12 -12 -15
q33 -38 67 -102l54 -110q23 -46 63 -173q13 -43 13 -48zM302 279q-15 159 -44 217q-12 -10 -48 -61t-36 -61l1 -127q51 2 127 32zM151 245l-1 76q-25 -31 -41 -76h42z" />
    <glyph glyph-name="B" unicode="B" horiz-adv-x="574" 
d="M527 132l-70 -61q-44 -36 -79 -44q9 68 6 88q-15 -14 -42 -49q-23 -29 -45 -45q-25 -15 -63 -42q-2 -1 -2 -11q0 -42 2 -37q-10 -1 -18 0q0 6 -1 17.5t-1 17.5q0 23 -24 67q-40 -11 -123 -28q-64 127 -64 349q0 53 26 159.5t50 155.5q0 -54 7 -160q29 30 90 88
q72 60 146 79q29 -69 59 -130q13 9 30.5 33.5t30.5 33.5q-14 -79 -80 -246q48 -29 92 -79q67 -76 73 -156zM362 520q-81 5 -85 5t-42 -7q-1 -21 -1 -46q0 -14 1 -69q99 79 127 117zM210 389v122q-84 -20 -119 -47q9 -51 29 -132q15 5 50 25q40 23 40 32zM384 154
q0 127 -39 183q-19 -34 -38 -67q-31 -53 -43 -53q-5 0 -12.5 4.5t-11.5 4.5q-1 0 -4 -1v-108h39q18 0 58.5 13t50.5 24zM213 244q-27 21 -83 55q45 -117 82 -168z" />
    <glyph glyph-name="C" unicode="C" horiz-adv-x="531" 
d="M492 121q0 -8 -43 -69q-37 -52 -52 -71q-81 7 -191 112q-94 89 -145 179q-11 -5 -26 -25q-21 -30 -23 -31q4 17 27 96q-8 11 -15 25q-15 35 -19 84q17 -29 31 -43q12 -10 23 -20q23 37 46 75q49 74 108 128q83 77 186 113l38 -50q31 -48 40 -100q1 -7 -30 -9v-310h-24
v304q-68 -19 -126 -44q-138 -61 -202 -146q136 -156 309 -186l46 -6q42 -5 42 -6z" />
    <glyph glyph-name="D" unicode="D" horiz-adv-x="568" 
d="M513 486q0 -254 -82 -453l-40 40q-33 33 -38 33q-2 0 -9 -13q-4 -8 -8 -17q-23 -38 -61 -79q1 -25 1 -50q0 -21 -1 -34h-23v75q-3 1 -7 1q-1 0 -16 -2q-137 269 -141 525q-2 2 -7 2q-27 0 -103 -32q18 31 58.5 56t46.5 34.5t11 69t22 83.5q4 -108 23 -126q49 25 119 49
q83 29 123 29h57q4 -52 14 -156q20 26 38 176q23 -56 23 -211zM439 482q-49 28 -161 50l1 -312q0 -23 40 -50q99 181 120 312zM255 256v280q-14 2 -30 2q-38 0 -77 -11q6 -49 42 -139t65 -132z" />
    <glyph glyph-name="E" unicode="E" horiz-adv-x="535" 
d="M510 226q-9 -122 -69 -239q-120 24 -213 95q0 -14 22 -61q16 -32 31 -63q-77 28 -212 126q-10 54 -10 120q0 92 19 164q-72 44 -91 74q53 -22 96 -27q9 37 17 74q11 42 25 71q-13 2 -25 2q-11 0 -31 -5t-31 -5q11 33 121 92q13 36 51 105q5 1 8 1q1 0 1 -4q0 -17 -8 -46
q-9 -34 -11 -45q16 1 69 9q43 7 70 7q51 0 132 -15l-51 -153l-75 42q-16 8 -68 15q-47 7 -71 6h-17q-17 -83 -17 -140q0 -13 2 -23q7 -3 19 -3q65 0 158 15q10 -18 54 -141q-83 8 -118 16q-55 12 -113 41q-2 -2 -2 -10q0 -103 47 -206q48 -1 225 64l-1 257h24q2 -164 1 -246
z" />
    <glyph glyph-name="F" unicode="F" horiz-adv-x="522" 
d="M474 479q-160 64 -243 64l1 -147q9 -3 48 -3q88 0 134 34q8 -55 8 -76v-312q-7 -1 -14 -1q-11 0 -11 4l1 209q-55 31 -165 92q-30 -161 -42 -210q-30 -119 -74 -198q0 5 9 86q5 52 5 86q0 187 -49 445q-24 6 -46 6q-26 0 -64 -7q31 19 100 49q-6 29 -19 89h20
q31 0 145 -46q115 33 167 33h52q12 -48 25 -95q15 -61 12 -95v-7z" />
    <glyph glyph-name="G" unicode="G" horiz-adv-x="610" 
d="M522 226q-53 26 -91 33q15 -8 36.5 -60.5t21.5 -75.5q0 -10 -22 -24q-15 -9 -30 -19q-94 -64 -233 -84v-64h-28v64l-106 16q-62 12 -102 29q20 2 60 12q-7 59 -7 105q0 104 22 190q23 93 94 184.5t156 130.5q29 13 53 24q36 -43 85 -154h-4q-30 2 -117 -45t-109 -74v-130
q63 44 145 73q88 30 160 30q32 0 59 -6q-3 -69 -43 -155zM397 267q-49 8 -82 8q-62 0 -115 -22q-1 -152 -1 -151q163 69 198 165zM171 93v295q-54 -43 -89 -148q-30 -91 -30 -172q0 -4 2 -7l60 10q35 8 57 22z" />
    <glyph glyph-name="H" unicode="H" horiz-adv-x="558" 
d="M477 -21q-66 22 -90 33q-48 20 -82 49q36 46 58 135q19 77 19 148q0 15 -1 29q-23 -47 -69 -140q-55 40 -95 50v-231q-6 -2 -19 -2q-6 0 -12 1v241q-16 19 -60 19q-14 -15 -24 -101q-7 -65 -7 -112t7 -115q-54 92 -74 219q-14 91 -14 233q0 40 14 130q16 96 29 125
q70 -29 93 -43q38 -23 80 -66q-84 -135 -104 -229q156 50 251 46q4 9 4 30q0 107 -27 200q-7 15 -17 46l5 9q49 -41 91 -170q29 -91 47 -193q13 -77 13 -175q0 -109 -16 -166z" />
    <glyph glyph-name="I" unicode="I" horiz-adv-x="281" 
d="M268 85q-89 -97 -191 -114q-47 99 -61 183q-11 64 -11 191q0 77 48 196q51 126 107 166l5 -13q-34 -99 -34 -201q0 -89 37 -200q35 -107 87 -185q6 -7 13 -23z" />
    <glyph glyph-name="J" unicode="J" horiz-adv-x="516" 
d="M491 158q-43 -69 -124 -106q-21 -64 -50 -101q6 27 6 52q0 6 -1 16v16q-36 -22 -107 -36q-63 -13 -115 -13l-27 1q-38 66 -52 113q-17 54 -17 125v202h22v-214q72 -55 130 -75t148 -20q10 0 16 4q-4 120 -30 247q-30 143 -77 236q57 49 185 96q39 -87 39 -178
q0 -151 -20 -248q-15 -74 -28 -145q41 2 102 28z" />
    <glyph glyph-name="K" unicode="K" horiz-adv-x="592" 
d="M492 -22q-83 30 -161 111q-71 74 -113 160q-8 16 -24 49q-26 -23 -51 -56q-30 -38 -35 -63.5t-5 -55.5q0 -74 27 -167q-62 62 -99 226q-29 133 -29 251q0 62 12 141q16 96 40 130q25 -7 95 -47q76 -44 76 -59q0 1 -5 -6q-108 -131 -108 -303q47 113 121 220
q92 133 173 172q35 -18 57 -74q19 -49 19 -94v-233h-24v219q-32 1 -133.5 -73.5t-101.5 -101.5q0 -19 51 -59q45 -36 71 -46q118 -49 216 -56q-14 -101 -69 -185z" />
    <glyph glyph-name="L" unicode="L" horiz-adv-x="585" 
d="M504 23l-72 -16q-43 -9 -73 -9q-114 0 -174 24q4 -51 21 -109q-40 27 -82 126q-60 18 -129 107q51 -24 107 -25q-19 78 -19 195q0 255 74 401q91 -38 184 -112q-81 -108 -118 -229q-32 -103 -43 -256q9 -2 22 -2q52 0 114 27q7 3 106 54v163l29 1v-152l90 54
q-5 -85 -10 -123q-9 -68 -27 -119z" />
    <glyph glyph-name="M" unicode="M" horiz-adv-x="748" 
d="M703 36q-69 -50 -205 -75q15 54 41 164q17 91 17 261q0 61 -15 117q-58 -38 -156 -163q-29 -36 -29 -43l1 -73q1 -161 -16 -196q-35 111 -119 334v-461l-35 -1v124q-118 -53 -173 -53q-12 50 -12 108q0 183 53 406q2 9 19 50q14 37 14 44q0 9 -42 58l69 30q26 40 40 64
q0 -7 -10 -58q69 16 119 16h6q32 -64 50 -164q14 -85 29 -171q32 117 56 176q39 95 96 156q43 -8 103 -30q71 -26 91 -49q-38 -20 -117 -76q105 -228 125 -495zM119 540q-10 -67 -10 -93q0 -72 33 -239q6 -30 21 -74q21 -63 24 -73v337q0 34 -5 53t-26.5 50t-36.5 39z" />
    <glyph glyph-name="N" unicode="N" horiz-adv-x="602" 
d="M465 236q5 -14 52 -82q44 -63 44 -79q0 -13 -83 -56q-72 -37 -102 -47q1 5 1 10q0 42 -53 196q-55 158 -80 178v-474l-29 1v137q-113 -56 -170 -56q-8 0 -15 2q-2 99 -2 111q0 170 54 382q2 9 21 55q16 42 16 49q0 12 -110 132q236 -103 429 -422q1 3 1 10q0 134 -89 341
q53 42 70 53q29 17 84 31q27 -96 27 -192q0 -148 -66 -280zM140 538q0 -13 -3.5 -39.5t-3.5 -40.5q0 -80 24 -201q25 -125 56 -194l-1 358q0 18 -28 61q-24 35 -44 56z" />
    <glyph glyph-name="O" unicode="O" horiz-adv-x="541" 
d="M488 352q0 -191 -132 -263l51 -10q-25 -52 -79 -151q-24 6 -72 17v-75h-20q1 23 1 48q0 20 -1 34q-106 32 -173 146q-62 105 -62 222q0 111 54 199.5t152 134.5q-1 7 -8 14q33 25 69.5 32t73.5 12q39 -32 84.5 -113t52.5 -130q9 -61 9 -117zM363 315q0 50 -36 138
q-32 81 -66 129q0 -38 -2 -154q-1 -100 -1 -154q0 -86 2 -144q23 -18 68 -31q35 62 35 216zM236 146v473q-2 5 -10 11q-53 -40 -85 -113q-29 -69 -29 -140q0 -140 124 -231z" />
    <glyph glyph-name="P" unicode="P" horiz-adv-x="575" 
d="M326 260v-151h-7q-13 0 -21 3v142q-26 0 -74 -8q-59 -201 -127 -284q8 64 8 131q0 97 -15 147q-6 4 -54 26q-29 13 -45 49q49 -11 55 -11l37 1q-2 58 -34 202q-4 19 -20.5 54.5t-20.5 54.5q82 62 164 62q10 0 16 -2q2 -11 10 -26q77 4 98 4q46 0 104 -21l98 -40l-69 -141
q25 11 41 34q70 -119 70 -136t-95 -52q-67 -24 -119 -38zM391 418q-35 57 -68 92v-133q47 21 68 41zM295 360l-2 183q0 6 -40 23q-24 9 -48 19q1 -4 15 -59q8 -35 8 -60q0 3 2 -68q1 -44 -2 -68q38 8 67 30z" />
    <glyph glyph-name="Q" unicode="Q" horiz-adv-x="597" 
d="M581 69q-3 -15 -27.5 -64.5t-36.5 -66.5l-114 57q-49 -66 -58 -66q-8 0 -122 56l1 -104h-37v117q-38 31 -56 47q-37 33 -49 51q-73 106 -73 252q0 195 128 320q59 58 78 58q9 0 82 -43q59 -34 88 -53q-3 -4 -26 -22q144 -123 144 -283q0 -109 -56 -230q37 -23 124 -23
q6 0 10 -3zM392 366q0 143 -72 220q-20 -11 -55 -39q-42 -34 -42 -45v-293q20 -29 41 -42q5 -3 53 -25q35 41 56 105q19 60 19 119zM187 43v429q-24 -35 -43.5 -96.5t-19.5 -104.5q0 -51 18.5 -116t44.5 -112zM279 89q0 7 -15 21l-20 20q-12 15 -21 37v-130q56 43 56 52z
" />
    <glyph glyph-name="R" unicode="R" horiz-adv-x="541" 
d="M501 130l-43 -163q-57 22 -119 117q-47 72 -79 154l-66 -66l1 -337h-25l-1 368q0 -6 -2 -6q-6 0 -21 41q-12 34 -15 49q-19 -96 -19 -126q0 -64 19 -212q-119 160 -119 348q0 105 13 175q14 76 54 170l-66 27q9 4 49 1q30 -2 38 13q20 2 39 2q69 0 164 -32
q48 -16 117 -86q73 -75 73 -120q0 -13 -62.5 -74.5t-80.5 -68.5q1 22 -7 38q-9 -11 -25 -36.5t-25 -36.5q34 -54 90.5 -93t117.5 -46zM331 397q-3 78 -56 146.5t-127 87.5q9 -34 69 -93q1 -1 10 -7q5 -3 5 -8q0 2 -26 -38q-50 -75 -65 -157q120 4 190 69z" />
    <glyph glyph-name="S" unicode="S" horiz-adv-x="538" 
d="M535 207q-15 -31 -82 -80q1 -12 11 -43q8 -27 8 -44q0 -12 -4 -33q-5 -25 -6 -33q-42 121 -62 121q-4 0 -55 -25q-59 -29 -63 -30q-43 -18 -101 -33q-66 -17 -104 -17q-50 155 -50 206q64 -16 127 -32q73 -16 129 -16q6 0 81 15q-40 64 -179 200q-32 32 -56 91
q-12 31 -16 31q-29 0 -110 -24l-3 3q19 26 38.5 50t51.5 40q-21 85 -19 112l1 4q77 39 146 39q-4 -39 -4 -62q0 -25 5 -25q7 0 27 10q25 13 28 14q93 33 186 33q8 -39 17 -77q9 -45 9 -77q-9 0 -27 2.5t-27 2.5q-5 0 -8 -3v-187l-27 2v188h-39q-61 0 -109 -16
q15 -47 53 -106q33 -50 66 -99q17 -28 69 -135q52 12 98 33z" />
    <glyph glyph-name="T" unicode="T" horiz-adv-x="539" 
d="M505 647q-3 -26 -30 -88q-30 -69 -48 -69q2 0 -57 37t-106 37q95 -144 108 -483q-58 -34 -172 -93v-103l-23 -2l-1 681q-112 -9 -195 -45q26 46 86 82q55 32 113 42q0 6 -18 80q13 -7 54 -71q14 1 72 8q43 6 71 6q57 0 146 -19zM250 305q0 155 -47 259v-517q47 96 47 258
z" />
    <glyph glyph-name="U" unicode="U" horiz-adv-x="570" 
d="M266 691l-23 -47v-580q22 -27 44 -45q55 1 93 117q25 79 32 161q4 38 4 82q0 106 -30 347q128 -213 128 -524q0 -61 -5 -122q-6 -13 -12 -46q-43 -11 -87 -22q-49 -12 -88 -14q22 -18 60 -36q32 -14 64 -29q-58 6 -82 10q-41 8 -79 27q-139 69 -216 221q-71 139 -71 304
q0 86 30 141q79 19 238 55zM211 96v489q-65 -140 -65 -255q0 -53 16 -124q20 -86 49 -110z" />
    <glyph glyph-name="V" unicode="V" horiz-adv-x="631" 
d="M593 584q-5 -42 -67 -171q-58 -122 -90 -167l-54 -82q-33 -47 -63 -75q-2 -1 -2 -5q0 -14 22 -68q15 -36 31 -73q-49 28 -97 91q-27 -20 -54 -41q-36 -26 -57 -30q80 96 80 106q0 2 -2 4h-1q-7 5 -31 43q-6 8 -28 44q-176 290 -176 457q91 9 203 60q-7 -31 -7 -67
q0 -260 95 -477q41 37 77 255q29 179 31 286q108 -17 195 -58z" />
    <glyph glyph-name="W" unicode="W" horiz-adv-x="732" 
d="M478 149q56 -19 105 -26q-1 -12 -1 -25t1 -43t1 -46v-17q-28 8 -117 46q2 -70 2 -85v-13q-3 -1 -5 -1q-30 0 -26 1q1 34 1 102l-1 14q-71 56 -117 123q-1 -2 -60 -85q-51 -71 -51 -76q0 -13 26 -59v-14q-112 106 -175 278q-59 159 -59 325q0 43 2 73q46 17 92 33
q62 22 91 22q-12 -39 -29 -117q-11 -78 -11 -209q0 -51 12 -142q13 -109 31 -128q59 54 89 170q24 93 24 194q0 71 -42 229q48 0 106 -21t98 -51q-2 -142 -2 -268q0 -107 2 -144q28 63 44 156q16 87 16 163q0 39 -5 72q-4 14 -10 43q29 27 83 45l92 26q5 -15 5 -39
q0 -119 -66 -269q-61 -139 -146 -237zM432 164l1 334q-19 -97 -48 -180q-2 -7 -23.5 -53.5t-21.5 -49.5q0 -18 92 -51z" />
    <glyph glyph-name="X" unicode="X" horiz-adv-x="602" 
d="M551 500q-79 -12 -98 -17q-44 -14 -84 -54q28 -22 67 -74q25 -33 83 -122q66 -101 67 -116q-62 -56 -170 -137q-38 163 -100 289q-57 -176 -238 -255q-46 -20 -74 -23l1 188q37 2 92 20v447q114 -46 238 -174q73 178 216 211v-183zM287 331q0 8 -73 119t-85 122v-365
q48 11 98 44q60 40 60 80z" />
    <glyph glyph-name="Y" unicode="Y" horiz-adv-x="513" 
d="M463 523q0 -135 -63 -301q-61 -160 -149 -269q-92 42 -151 119q16 9 36 31.5t34 32.5q26 43 101 168q-88 64 -161 150q-83 97 -114 186q4 19 78 31q57 9 93 9l25 -1q0 -126 12 -188q19 -102 81 -166q6 2 11 11q54 91 86 200q35 120 30 215q51 -97 51 -228z" />
    <glyph glyph-name="Z" unicode="Z" horiz-adv-x="562" 
d="M499 1h-51q-69 0 -253 106q-40 -50 -67 -128q-21 10 -74 62q-57 55 -57 72q0 22 62 95q34 40 172 173q109 105 158 184q0 13 -45 13q-155 0 -300 -105q-30 112 -43 175q13 10 71 18q48 6 78 6q143 0 263 -60q21 18 35 55l22 62q6 -7 6 -19q0 -53 -29.5 -150.5
t-102.5 -216.5q-44 -74 -136 -201q5 -9 32 -9q55 0 122.5 18.5t109.5 47.5v222q5 3 13 3q7 0 14 -3v-420z" />
    <glyph glyph-name="bracketleft" unicode="[" horiz-adv-x="779" 
d="M-2 527q0 -43 37 -43q10 0 18 8t8 17t-8 19.5t-18 10.5q-14 0 -17 -9q-3 3 -3 5q0 12 15 22.5t25 10.5q6 0 11 -9h7q3 0 3.5 1t3.5 1q20 0 27 -34q13 -59 15 -64q15 -34 54 -34q27 0 47 29q8 -6 14 -39q4 -28 4 -49q0 -1 -16 -163q-28 43 -53 60t-61 17
q-35 0 -59.5 -24.5t-24.5 -57.5q0 -25 15 -45t41 -20q18 0 32.5 10t14.5 27t-6 22l-18 10q7 20 38 20q50 0 65 -35q23 -42 47 -84q33 -56 82 -94q-2 -1 -5 -1q-1 0 -33 12t-43 12q-34 0 -61 -19q-32 -21 -32 -57q0 -10 8 -20t19 -10q20 0 28 7t20 38q-4 0 -15 3.5t-18 3.5
q-5 0 -9 -2l-8 2q1 6 10 14.5t17 8.5q4 0 4 -5q5 5 10 5q13 0 58.5 -23t58.5 -23h13q13 0 29.5 9.5t15.5 9.5q3 0 37 -2.5t37 -2.5q26 0 62.5 14.5t53.5 32.5l-3 16q-54 -46 -99 -46h-29q-6 0 -43 8l-6 26q-4 15 -13 23q-33 27 -33 47q0 9 14 22h6q-1 -58 53 -58
q29 0 45.5 19t16.5 44q0 35 -31 56q-25 18 -53 18q-42 0 -71 -39q-26 -34 -26 -68q0 -4 8.5 -24.5t6.5 -27.5q-57 47 -79 95q-18 40 -18 98q0 25 15 79q20 72 48 72l21.5 -14.5t42.5 -14.5q10 0 22.5 6.5t22.5 8.5q0 -5 -4 -17.5t-4 -15.5q0 -32 24.5 -56t56.5 -24
q3 0 26 10.5t26 10.5q2 0 14.5 -4.5t15.5 -4.5q20 0 40.5 20t20.5 40q0 3 -7 21q-9 22 -10 27q20 -12 38 -12t38.5 18t20.5 39q0 2 -7 16.5t-8 21.5q27 12 27 61q0 34 -35 52q-25 14 -54 14q-13 0 -20 -5q0 8 3.5 24t3.5 18q0 23 -21 43.5t-40 20.5q-3 0 -14 -3.5t-14 -3.5
q-2 0 -20 8.5t-28 8.5q-17 0 -50 -17.5t-36 -29.5q-5 -33 -5 -52q0 -8 17 -30q-53 15 -51 15q-19 0 -45.5 -32.5t-26.5 -44.5q0 -2 9.5 -16.5t9.5 -16.5t-4 -10q-6 -11 -12 -32q-2 -7 2 -15.5t4 -11.5t-2 -7q-12 -14 -35 -43q9 68 -29 150q-47 101 -131 101q-36 0 -66 -19
q-33 -22 -33 -56zM405 525l1 3l6 -3v-3zM407 596q0 30 18 55.5t50 25.5q3 0 26.5 -8.5t26.5 -8.5t16 4.5t15 4.5q15 0 32 -24q14 -21 14 -33q0 -21 -43 -68v11q0 3 8.5 21.5t8.5 20.5t-5 5q-12 -18 -33 -53q2 15 6 29t4 16q0 5 -5 8q-9 -6 -14 -22q-8 -30 -10 -36
q0 6 1 21.5t1 23.5q-1 10 -5 13q-7 -4 -10 -26t-7 -26q-1 14 -2.5 28.5t-11.5 18.5l-4 -4q1 -17 4 -46q-5 4 -9 23t-12 27q-2 -1 -3.5 -2t-3.5 -2q4 -18 8 -54q-4 6 -19 35q-7 15 -15 15q4 -16 11 -47q-11 13 -22 27q-16 19 -16 27zM301 425q0 12 10 25t10 15t-8.5 18
t-8.5 19q0 15 19.5 37t34.5 22q4 0 37 -13q-9 -5 -9 -9q10 -11 14 -10h-5q-4 1 -7 1q-9 0 -7 -5q35 -16 48 -21q-52 9 -46 9q-6 0 -9 -8q11 -9 28 -13q14 -2 27 -5q-8 0 -24 1t-18 1q-9 0 -11 -6q4 -9 9 -9q23 0 39 -3l-30 -2q-18 -3 -20 -10q1 -2 4 -7h58q-11 -5 -40 -11
q-19 -4 -25 -13q2 -2 2.5 -3.5t1.5 -3.5q23 4 61 12q-17 -10 -50 -32v-6h8q7 4 54 23q-57 -50 -60 -50t-12.5 -1t-12.5 -1q-18 0 -40 20.5t-22 38.5zM475 478q0 9 9.5 23t21.5 14q13 0 23.5 -12t10.5 -21q0 -37 -29 -37q-12 0 -24 10t-12 23zM574 471h26q18 1 19 1
q10 0 15 8l-4 4q-23 3 -51 10q3 1 28 4q19 1 22 11l-4 4q-21 -1 -49 3q3 2 33 9q20 5 30 15l-4 4q-21 -3 -56 -10q34 34 60 34q23 0 45 -17.5t22 -44.5q0 -13 -12 -24.5t-12 -24.5q0 -12 7.5 -26.5t7.5 -13.5q0 -16 -24 -29q-20 -10 -33 -10t-58 33q9 -3 13 2q1 5 -9 11
q-6 5 -12 9q5 -1 22 -7q14 -5 17 -5q10 0 9 6q-13 8 -46 25q32 -4 35 -4q6 0 11 8q-26 12 -48 15zM422 321q0 20 19 55q16 30 26 40q-11 -45 -11 -51q0 -9 5 -9q7 22 28 60v-10q0 -5 -3 -19.5t-3 -20.5q0 -10 5 -15q7 8 10 24q4 29 6 34q0 -17 1 -36t9 -22l4 5q0 38 4 58
q4 -17 9 -35t12 -23l4 4q-7 27 -6 52q2 -3 13 -26q7 -16 17 -18v9q-5 13 -13 35q16 -21 32 -41q25 -32 25 -45q0 -14 -14 -30.5t-30 -16.5q-3 0 -14 7.5t-13 7.5q-7 0 -25.5 -12t-35.5 -12q-16 0 -37 15q-24 18 -24 36zM487 482q19 4 20 4q18 0 12 -21q11 3 11 18
q0 23 -20 23q-13 0 -23 -16v-8z" />
    <glyph glyph-name="backslash" unicode="\" horiz-adv-x="985" 
d="M943 85q0 -25 -4 -25q1 0 -12 7q-7 34 -18 47q-13 18 -44 18q-58 0 -140 -65q4 -14 13 -14q14 0 50.5 9t51.5 9q49 0 49 -41q0 -22 -19 -22q-10 0 -16 7v12q7 0 12 -3q7 -2 7 11q0 21 -29 21q-63 0 -100 -11q4 -4 6 -24l-7 -5q-16 -11 -37 -11q-4 0 -11 1.5t-10 1.5
q-35 0 -63 -32l-48 -58l-3 12q24 31 25 32q13 20 14 37q-14 2 -11 2q-5 0 -28 -36q-25 -41 -29 -45l-2 12v2q0 2 14 25.5t14 28.5q0 1 -1 1q-24 0 -39 -26q-13 -22 -12 -48q-6 0 -18 13q-7 -4 -20 -25q-11 -17 -26 -17q-12 0 -21 19q-8 16 -8 30t10 35.5t11 33.5
q-28 -27 -71 -55q-52 -33 -79 -33q-15 0 -38 14q-26 15 -26 29t30.5 42.5t30.5 35.5q0 19 -31 19q-14 0 -43.5 -11t-43.5 -11t-54 14q-44 16 -44 26q0 16 30 35q27 18 44 18q5 0 32.5 -11.5t35.5 -11.5q19 0 19 24q0 17 -21 33.5t-38 16.5q-13 0 -38.5 -6.5t-38.5 -6.5
q-41 0 -76 17q-42 22 -42 59q0 20 18 35t38 15q17 0 61.5 -22.5t62.5 -22.5q36 0 36 22q0 9 -19 28q-23 25 -25 28q-3 15 -15 45q-5 7 -27.5 18.5t-31 22t-18 34t-9.5 35.5q0 16 14.5 33t30.5 17q23 0 40 -30q21 -38 26 -41q5 3 11.5 12.5t6.5 14.5q0 6 -19.5 46.5
t-19.5 45.5q0 18 14.5 36.5t32.5 18.5q21 0 40 -18l30 -34q5 15 30 35q36 29 38 31q-3 6 -3 13q0 22 20.5 48.5t41.5 26.5q27 0 78 -52q43 -44 62 -77q31 -54 54 -140q36 -135 40 -145q4 3 4 23q0 6 -1 18.5t-1 18.5q0 45 -19 104t-44 89q-10 12 -25 21q8 19 68 28
q37 87 99 87q5 0 14 -2t14 -2q3 0 25.5 31t54.5 31q47 0 70 -89q15 -60 15 -128q0 -123 -58 -248q-45 -97 -138 -216v-9q3 -3 4 -3t65.5 36t103.5 36q23 0 47 -19t24 -42zM809 502q0 40 -20 102q-21 66 -44 92q35 -92 35 -208q0 -66 -31 -126q-36 -74 -95 -74q-7 0 -7 2l1 3
q28 12 44 57q13 37 13 75t-27.5 96t-58.5 78q23 -39 40.5 -99.5t17.5 -104.5q0 -76 -55 -99q4 -71 17 -184q5 -23 28 -26q-4 3 -4 8q0 3 3 7q6 0 19 -9q4 20 24 68q17 43 19 71l5 64q32 48 41 63q16 31 27 73q8 33 8 71zM524 411q-10 65 -60 133q-53 71 -112 90
q49 -43 94 -114q45 -75 57 -136zM468 322q-3 44 -62.5 114t-99.5 70h-25q52 -21 108 -93q50 -63 73 -124zM712 44q0 5 -7 13q-7 2 -18 0q-7 -8 -7 -15q0 -14 16 -14q4 0 7.5 2t4 3t2.5 4.5t2 6.5zM262 538q0 25 -24 49.5t-48 24.5q-12 0 -21.5 -9t-9.5 -21q0 -6 19.5 -49.5
t19.5 -48.5q0 -13 -11.5 -28t-23.5 -15q-19 0 -29 34t-34 34q-20 0 -26 -16q-2 -7 -2 -33q0 -23 34.5 -52.5t57.5 -29.5q11 0 30 7v28q-22 -14 -41 -14q-7 0 -13 12q16 1 44 9q13 9 24.5 31.5t11.5 37.5q0 8 -1.5 25t-1.5 25q0 29 -16 58q29 -3 31 -77v-11q30 11 30 29z
M628 87q-8 8 -23 26q-1 49 -35 133q-28 68 -62 125q-11 -9 -14 -29l-5 -33q-4 -15 -14 -45q17 -12 58 -66t41 -70q0 -5 -2 -5q-1 0 -1 1q-87 131 -132 131q-8 0 -13 -42q25 -8 67 -49q36 -36 55 -64l-11 -2q-12 20 -43 48.5t-53 40.5q-38 14 -77 28q-57 24 -57 44q0 4 6.5 8
t6.5 8q0 28 -45.5 59t-75.5 31q-37 0 -37 -23q0 -18 26 -38t26 -37q0 -15 -15 -24.5t-30 -9.5q-27 0 -72.5 21t-51.5 21q-16 0 -33 -11t-17 -26q0 -24 35 -42q30 -15 57 -15q32 0 69 12q-22 2 -43 4q-29 4 -35 17q15 0 44.5 -5t44.5 -5q27 0 48 17t21 44q0 24 -11 42
q-1 2 -27 33l16 2q39 -36 39 -81q0 -18 -6 -43q64 -22 129 -44q71 -28 107 -81q-13 1 -44 23q-40 28 -44 30q-24 13 -84 32q-64 21 -85 21q-26 0 -38 -5q71 -28 71 -70q0 -14 -14.5 -25t-27.5 -11q-11 0 -35 10t-35 10q-10 0 -29 -8t-19 -17q0 -3 3.5 -7.5t5 -6t32.5 -11.5
q25 -8 30 -8q15 0 46 9.5t46 9.5q45 0 45 -32q0 -15 -29 -38t-29 -33q0 -11 18 -21.5t30 -10.5q27 0 80 37q92 65 101 70q63 38 112 38q3 0 8.5 -1t8.5 -1l5 1q-5 9 -20.5 12.5t-20.5 9.5q6 8 16 8q4 0 21.5 -10t19.5 -11zM468 67q-50 13 -149 34l-6 -5q26 -14 29 -20.5
t3 -33.5q0 -9 3 -18q17 9 90 33l20 -9q-64 -1 -123 -56h-15q12 30 12 48q0 24 -15 39q-7 7 -35 23v12l28 4q72 0 158 -51z" />
    <glyph glyph-name="bracketright" unicode="]" horiz-adv-x="779" 
d="M721 527q0 -43 -38 -43q-9 0 -17 8t-8 17t8 19.5t17 10.5q15 0 17 -9q4 3 4 5q0 12 -15.5 22.5t-24.5 10.5q-7 0 -11 -9h-7q-3 0 -3.5 1t-3.5 1q-21 0 -28 -34q-12 -59 -14 -64q-15 -34 -55 -34q-26 0 -47 29q-7 -6 -13 -39q-5 -28 -5 -49q0 -1 16 -163q29 43 54 60
t60 17t60 -24.5t25 -57.5q0 -25 -15.5 -45t-41.5 -20q-17 0 -32 10t-15 27t7.5 22t16.5 10q-7 20 -37 20q-50 0 -65 -35q-24 -42 -47 -84q-33 -56 -82 -94q1 -1 5 -1q1 0 33 12t43 12q33 0 62.5 -20t29.5 -56q0 -10 -7.5 -20t-18.5 -10q-20 0 -28.5 7t-19.5 38q3 0 14.5 3.5
t17.5 3.5t10 -2l7 2q-1 6 -10 14.5t-16 8.5q-5 0 -5 -5q-4 5 -10 5q-13 0 -58 -23t-59 -23h-13q-12 0 -29 9.5t-15 9.5q-4 0 -37.5 -2.5t-36.5 -2.5q-26 0 -62.5 14.5t-54.5 32.5l3 16q55 -46 100 -46h28q7 0 43 8l7 26q3 15 13 23q33 27 33 47q0 9 -14 22h-6q1 -58 -54 -58
q-28 0 -44.5 19t-16.5 44q0 35 30 56q26 18 54 18q41 0 71 -39q25 -34 25 -68q0 -4 -8.5 -24.5t-6.5 -27.5q57 47 79 95q18 40 18 98q0 25 -14 79q-21 72 -48 72l-22 -14.5t-42 -14.5q-11 0 -22 6q-14 7 -23 9q0 -5 4 -17.5t4 -15.5q0 -32 -25 -56t-56 -24q-3 0 -26 10.5
t-26 10.5t-15 -4.5t-15 -4.5q-20 0 -41 20t-21 40q0 3 8 21q8 22 10 27q-20 -12 -38 -12q-19 0 -39 18t-20 39q0 2 6.5 16.5t8.5 21.5q-27 12 -27 61q0 34 34 52q26 14 55 14q13 0 20 -5q0 8 -4 24t-4 18q0 23 21 43.5t41 20.5q2 0 13.5 -3.5t13.5 -3.5q3 0 20.5 8.5
t27.5 8.5q18 0 51 -17.5t35 -29.5q6 -33 6 -52q0 -8 -17 -30q52 15 51 15q19 0 45.5 -32.5t26.5 -44.5q0 -2 -9.5 -16.5t-9.5 -16.5t4 -10q5 -11 12 -32q1 -7 -3 -15.5t-4 -11.5t3 -7q11 -14 34 -43q-8 68 30 150q47 101 131 101q35 0 65 -19q34 -22 34 -56zM314 525l-2 3
l-5 -3v-3zM311 596q0 30 -16 54q-19 27 -51 27q-3 0 -26.5 -8.5t-26.5 -8.5t-16 4.5t-16 4.5q-15 0 -30 -22.5t-15 -34.5q0 -21 42 -68v11q1 3 -7.5 21.5t-8.5 20.5t5 5q11 -18 33 -53q-2 15 -6 29t-4 16q0 5 5 8q9 -6 13 -22q8 -30 11 -36q0 6 -1.5 21.5t-0.5 23.5
q0 10 4 13q8 -4 11 -26t6 -26q2 14 3.5 28.5t10.5 18.5l4 -4q-1 -17 -3 -46q5 4 8.5 23t12.5 27q1 -1 3 -2t3 -2q-3 -18 -8 -54q4 6 19 35q8 15 16 15q-5 -16 -12 -47q12 13 23 27q15 19 15 27zM417 425q0 12 -9.5 25t-9.5 15t8.5 18t8.5 19q0 15 -19.5 37t-35.5 22
q-4 0 -37 -13q10 -5 10 -9q-11 -11 -15 -10h6q3 1 6 1q9 0 8 -5q-35 -16 -49 -21q53 9 46 9q7 0 10 -8q-11 -9 -29 -13q-13 -2 -27 -5q9 0 25 1t18 1q8 0 10 -6q-4 -9 -8 -9q-24 0 -40 -3q15 -1 32 -3t19 -9q-1 -2 -4 -7h-59q11 -5 41 -11q19 -4 24 -13q-1 -2 -2 -3.5
t-2 -3.5q-23 4 -61 12q17 -10 50 -32v-6h-7q-8 4 -55 23q57 -50 60 -50t13 -1t13 -1q17 0 39 20.5t22 38.5zM244 478q0 9 -9.5 23t-22.5 14q-12 0 -22.5 -12t-10.5 -21q0 -37 29 -37q12 0 24 10t12 23zM145 471h-26q-18 1 -20 1q-10 0 -14 8l4 4q22 3 51 10q-4 1 -29 4
q-18 1 -22 11l5 4q20 -1 48 3q-2 2 -32 9q-20 5 -30 15l4 4q21 -3 56 -10q-34 34 -60 34q-23 0 -44 -17q-24 -18 -24 -45q0 -13 12 -24.5t12 -24.5q0 -12 -7 -26.5t-7 -13.5q0 -16 24 -29q19 -10 33 -10q12 0 57 33q-8 -3 -13 2q0 5 9 11q6 5 13 9q-6 -1 -21.5 -6.5
t-18.5 -5.5q-10 0 -9 6q13 8 46 25q-31 -4 -34 -4q-6 0 -11 8q26 12 48 15zM297 321q0 20 -19 55q-16 30 -27 40q12 -45 12 -51q0 -9 -6 -9q-6 22 -27 60v-10q-1 -5 2.5 -19.5t3.5 -20.5q0 -10 -6 -15q-6 8 -9 24q-5 29 -6 34q-1 -17 -1.5 -36t-9.5 -22l-4 5q0 38 -3 58
q-5 -17 -9.5 -35t-12.5 -23l-4 4q8 27 7 52q-2 -3 -13 -26q-8 -16 -18 -18v9q6 13 14 35q-16 -21 -33 -41q-24 -32 -24 -45q0 -14 14 -30.5t29 -16.5q3 0 14 7.5t14 7.5q7 0 25 -12t35 -12t39.5 16.5t22.5 34.5zM231 482q-19 4 -20 4q-17 0 -11 -21q-12 3 -12 18q0 23 21 23
q13 0 22 -16v-8z" />
    <glyph glyph-name="asciicircum" unicode="^" horiz-adv-x="394" 
d="M185 756q-22 -22 -72 -40q-45 -17 -72 -17l-2 3q52 37 68 51q34 29 53.5 62.5t22.5 30.5q1 1 3 1q4 0 11 -13q3 -9 7 -18q27 -46 122 -114l-2 -3q-25 0 -73.5 19.5t-65.5 37.5z" />
    <glyph glyph-name="underscore" unicode="_" horiz-adv-x="582" 
d="M-1 -89h582v-52h-582v52z" />
    <glyph glyph-name="grave" unicode="`" horiz-adv-x="285" 
d="M44 552q7 41 27 76q5 10 14 19q1 -2 5 -4q18 -20 42 -46.5t49 -53.5q30 -32 55 -49l-2 -3q-6 -2 -14 -2q-28 0 -82 19q-47 16 -71 30z" />
    <glyph glyph-name="a" unicode="a" horiz-adv-x="414" 
d="M382 420q-12 -9 -37 -10q-30 -2 -40 -7v-11q26 -44 45 -140q17 -87 17 -149q0 -78 -5 -108q-2 3 -59 23t-63 20q-76 -50 -156 -50q-35 0 -59 33q-22 30 -22 67q0 55 23 111q28 71 72 71q19 0 67.5 -14.5t67.5 -14.5q11 0 12 11q0 -3 0 20q0 69 -15 108h-10q-14 0 -79 -39
t-72 -39q-10 0 -39 45q-26 40 -32 57q43 30 102 41q55 9 110 17l-15 51q12 -3 37 -24t38 -24q24 -6 112 -45zM244 149q0 9 -3 33t-3 32q-36 -14 -72 -29q-41 -17 -62 -50q-9 -14 -9 -39q0 -17 16.5 -31.5t33.5 -14.5q42 0 70.5 28.5t28.5 70.5z" />
    <glyph glyph-name="b" unicode="b" horiz-adv-x="496" 
d="M436 249q0 -64 -105.5 -151.5t-171.5 -87.5l-19 -2v-35q-76 60 -111 264q-23 137 -23 297q0 64 6 82q3 11 77 32q70 19 90 19l19 -4q-23 -75 -47 -150q-27 -93 -22 -154l4 -2q84 49 169 49q68 0 104 -17l-70 -35q7 -12 58 -50q42 -31 42 -55zM321 270q0 11 -10 30t-18 26
q-21 -12 -67.5 -65.5t-47.5 -53.5q-19 22 -59 65q-9 -63 -9 -86q0 -36 20 -144q63 12 127 88.5t64 139.5z" />
    <glyph glyph-name="c" unicode="c" horiz-adv-x="384" 
d="M339 137q0 -4 -20.5 -55t-22.5 -53q-12 -11 -43.5 -19.5t-52.5 -8.5q-92 0 -143 57t-51 150q0 97 73 156q-4 2 -11 2q-14 0 -42.5 -3.5t-42.5 -3.5q132 95 292 95q30 0 49 -5q0 -10 2 -30t2 -30q0 -64 -13 -88q-104 62 -183 61q-22 -45 -22 -85q0 -126 142 -126
q26 0 87 11v-25z" />
    <glyph glyph-name="d" unicode="d" horiz-adv-x="435" 
d="M259 -38q5 65 5 81q-9 -1 -27 -5t-27 -4q-81 0 -146 85q-61 80 -61 163q0 41 21 96q26 67 59 67q67 0 178 -66l6 20q0 51 -20 139q-16 66 -27 97q36 14 72 27q46 17 74 16q23 -59 23 -163q0 -270 -130 -553zM271 112v228q-15 5 -34 5q-51 0 -106 -59.5t-55 -111.5l10 -31
q20 -63 91 -63q66 0 94 32z" />
    <glyph glyph-name="e" unicode="e" horiz-adv-x="395" 
d="M275 12q-112 0 -186 47q-86 57 -86 165q0 75 31 125q1 1 16 18q12 13 12 19q0 15 -15 38q4 -1 35 -15q11 14 53 27q38 12 60 12q44 0 90 -20q57 -24 57 -61q0 -25 -85 -81q-81 -54 -109 -54q-12 0 -21.5 15t-16.5 28q-2 -4 -2 -13q0 -55 44 -91q41 -34 98 -34q47 0 97 22
q-32 -147 -72 -147zM305 375q-43 32 -76 32q-20 0 -45 -17t-29 -36q12 -5 42 -5q53 0 108 26z" />
    <glyph glyph-name="f" unicode="f" horiz-adv-x="332" 
d="M373 685q-88 -17 -157 -82q-76 -71 -76 -158q15 1 50 8q32 7 49 7q1 0 29 2q17 1 28 -2q-7 -97 -24 -147l-50 27q-34 13 -85 23q-1 -7 -1 -16q0 -57 37 -154.5t71 -133.5q-16 -22 -70 -46q-45 -20 -81 -27q-64 140 -64 389h-44q19 22 42 55q17 54 35 107q28 72 75 110
q62 51 166 51q40 0 70 -5v-8z" />
    <glyph glyph-name="g" unicode="g" horiz-adv-x="406" 
d="M348 335h-44q-45 0 -69 -6q48 -59 79.5 -147.5t31.5 -162.5q0 -52 -9 -128q-23 -19 -110 -56t-114 -37v13q56 75 99 218q-52 -6 -83 4q-60 20 -96 66t-36 109q0 125 74 196t196 73q87 -120 81 -142zM231 134q0 37 -14 98q-17 74 -38 84q-105 -58 -105 -134q0 -44 43 -75
q40 -29 86 -29q28 0 28 56z" />
    <glyph glyph-name="h" unicode="h" horiz-adv-x="404" 
d="M355 143q0 -33 -10.5 -90t-21.5 -88q-22 7 -71 32q-55 27 -55 37q0 2 25 73.5t25 104.5q0 47 -18 77q-21 36 -64 36q-74 0 -93 -126q-7 -44 -7 -187l-19 5q-43 115 -43 215q0 102 19 249q23 184 58 228q42 -12 85 -24q50 -15 82 -31l-8 -12q-40 -56 -75 -126
q-47 -91 -47 -135l-5 -17q57 53 114 53q129 0 129 -274z" />
    <glyph glyph-name="i" unicode="i" horiz-adv-x="274" 
d="M228 473q0 5 -4 -18q-94 27 -165 83l90 141q33 -28 57 -95q22 -62 22 -111zM223 36q-77 -30 -158 -30q-22 0 -48 6q4 3 4 12q0 4 21 61q24 62 26 68q29 95 39 135q19 74 26 138h7q34 -31 61 -159q24 -110 23 -177z" />
    <glyph glyph-name="j" unicode="j" horiz-adv-x="312" 
d="M231 449h-14l-142 83q28 26 58 72l50 78q48 -75 48 -158v-75zM246 115q0 -68 -17 -143q-20 -84 -53 -133q-30 0 -109 35q-85 38 -85 63q94 94 125 145q51 82 51 184q0 81 -30 174l10 -1q108 -131 108 -324z" />
    <glyph glyph-name="k" unicode="k" horiz-adv-x="486" 
d="M449 126q-17 -73 -116 -155q-82 34 -134 170q-21 52 -48 171q-29 -11 -51 -11q-7 -49 -9 -102q-1 -38 0 -98q2 -80 2 -101l-6 -29q-33 56 -58 161q-24 100 -24 170q0 189 81 378q27 -9 67 -40q31 -24 62 -49q-9 -26 -56 -108q-36 -64 -44 -118q33 8 93 71q42 45 84 91
q39 -26 115 -80q-29 -33 -101 -69q-100 -49 -112 -57q0 -34 61.5 -101.5t96.5 -75.5q81 -19 97 -18z" />
    <glyph glyph-name="l" unicode="l" horiz-adv-x="247" 
d="M182 85q-26 -19 -80 -47q-61 -31 -83 -34l-27 -4l7 24q10 40 20 131q18 179 18 236q0 156 -34 295q77 -20 134 -264q46 -197 46 -322z" />
    <glyph glyph-name="m" unicode="m" horiz-adv-x="637" 
d="M572 267q0 -148 -106 -311l14 159q0 255 -130 255l-42 -9q50 -162 50 -223q0 -49 -28 -143l-29 6q-16 4 -66 35q-42 27 -65 44q18 49 35 97q22 62 22 100q0 34 -15 69q-18 42 -47 48q-70 -189 -120 -403q-40 92 -40 268q0 39 8 92q8 46 15 92l36 -3q39 23 62 23
q89 0 161 -69q101 53 176 53q109 0 109 -180z" />
    <glyph glyph-name="n" unicode="n" horiz-adv-x="464" 
d="M404 264q0 -66 -36 -154q-34 -82 -78 -138q3 93 3 111q0 265 -133 265q-60 0 -75 -17q52 -186 96 -277q-44 -38 -157 -64q-21 73 -21 192q0 185 42 293q3 -9 10 -50q6 -30 17 -47q74 74 165 74q74 0 122 -57q45 -54 45 -131z" />
    <glyph glyph-name="o" unicode="o" horiz-adv-x="438" 
d="M372 216q0 -155 -102 -259q-6 5 -19 25q-12 16 -22 18q-39 6 -57 11q-29 8 -54 23q-56 35 -88.5 92t-32.5 122q0 99 77 227q20 -3 89 -32q66 -28 74 -28q-27 60 -108 141v14q99 -48 169 -146q74 -104 74 -208zM276 300q0 17 -9 51q-67 -3 -114.5 -59.5t-47.5 -125.5
q0 -43 27.5 -72t71.5 -32q-15 29 -16 52q42 27 66 82q22 49 22 104z" />
    <glyph glyph-name="p" unicode="p" horiz-adv-x="391" 
d="M332 286q0 -54 -35.5 -113.5t-82.5 -90.5q-27 -11 -77 -40q6 -17 72 -171q-41 -27 -137 -77q-3 15 -49 188q-29 112 -29 194q0 77 23 206q26 147 57 193v-165l4 -2q79 43 129 43q64 0 98 -52q27 -44 27 -113zM217 266q0 42 -20 71q-22 35 -62 35q-24 0 -57 -17l-1 -35
q-2 -118 49 -227q43 21 68 74q23 47 23 99z" />
    <glyph glyph-name="q" unicode="q" horiz-adv-x="439" 
d="M440 -104q-17 -29 -72.5 -57.5t-89.5 -28.5q-25 68 -50 212q-230 99 -230 296q0 57 33.5 93t90.5 36q86 0 164 -48q30 37 59 75q36 42 71 61v-19q0 3 -27 -58q-31 -71 -50 -131q-26 -85 -26 -139q0 -170 127 -292zM265 350q-33 22 -80 22q-28 0 -52 -53q-19 -45 -19 -79
q0 -111 106 -145v30q-3 115 45 225z" />
    <glyph glyph-name="r" unicode="r" horiz-adv-x="388" 
d="M339 405q0 -50 -13 -109q-7 2 -39 28q-28 24 -60 24q-38 0 -47 -19q-3 -7 -6 -59q-4 -75 -40 -164q-39 -100 -91 -137q6 52 4 122q-4 115 -4 110q0 52 -14 118l-24 116q94 36 150 36q6 -27 23 -80q17 18 54 50q35 27 94 42q13 -77 13 -78z" />
    <glyph glyph-name="s" unicode="s" horiz-adv-x="431" 
d="M400 89q0 -24 -119 -126q-6 30 -24 88q-109 -70 -199 -76q-21 31 -37 86q-22 75 -28 89q26 -4 97 -26q59 -18 101 -18q30 0 49 15q-36 101 -147 223q-25 -3 -76 -8q34 33 47 38q-13 6 -38 26h26q7 0 32 -13q65 47 134 69q60 19 149 26q0 -71 -27 -152q-112 25 -148 25
q-21 0 -40 -5q40 -17 142 -119q106 -107 106 -142z" />
    <glyph glyph-name="t" unicode="t" horiz-adv-x="420" 
d="M-45 411q58 47 117 65q-14 86 -35 126q54 20 160 63q13 -25 25 -74t12 -77q31 9 73 10l74 2q-1 -7 -1 -17q1 -20 -16 -72q-15 -45 -29 -72q-46 19 -102 29q-3 -84 -40 -223.5t-75 -212.5q9 178 3 267q-4 61 -24 171q-10 9 -68 13q-46 4 -74 2z" />
    <glyph glyph-name="u" unicode="u" horiz-adv-x="438" 
d="M411 -2q-30 -1 -115 39q-22 -13 -43 -26q-33 -15 -72 -15q-90 0 -137 61q-43 56 -43 149q0 113 54 251l165 -85q-11 -21 -38 -55q-30 -36 -40 -54q-36 -59 -33 -115q2 -36 24 -64q24 -31 58 -31q42 0 58 86q19 109 63 308z" />
    <glyph glyph-name="v" unicode="v" horiz-adv-x="462" 
d="M429 400q-21 -100 -102 -225q-77 -117 -161 -190q-5 8 -6 7l16 38q9 23 9 45q-162 101 -182 301q117 81 143 79q2 -31 8 -94q15 -144 65 -222l3 1q31 55 52 146t21 167q0 3 7 1q9 -3 9.5 -3t63.5 -27z" />
    <glyph glyph-name="w" unicode="w" horiz-adv-x="625" 
d="M583 421q-8 -78 -57 -159q-28 -46 -100 -136q8 -6 37 -12q33 -6 41 -9q-6 -32 -49 -129q-22 9 -79 75q-52 61 -69 91q-8 -40 -15 -80q-10 -49 -21 -78q6 1 -16 2q-25 1 -63 10q-60 16 -62 17q2 2 19 23q13 15 13 26q-69 79 -107 172q-34 80 -53 195q51 21 161 36
q-3 -16 -7 -45q-3 -77 -3 -103q0 -118 31 -197q26 33 57 179q20 99 40 199q38 -198 38 -262q0 -26 -3 -49q15 -16 69 -43q55 46 61 218q1 15 -16 103l24 -1t65 -17z" />
    <glyph glyph-name="x" unicode="x" horiz-adv-x="525" 
d="M475 110q0 -22 -42.5 -75.5t-65.5 -67.5q-37 79 -58 119q-36 69 -70 112q-4 -3 -4 -18v-21q-16 -80 -71 -129q-37 -34 -88 -49q-27 -9 -29 -9q-44 82 -50 156q53 6 71 6q37 0 88 27q56 31 56 65q0 10 -122 130q-23 21 -46 41q-33 31 -33 47q156 -28 256 -109q42 53 63 69
q52 40 131 45q14 -50 14 -69q0 -45 -4 -53q-22 6 -97 6q-11 0 -35 -9t-32 -16q7 -9 93 -102q75 -80 75 -96z" />
    <glyph glyph-name="y" unicode="y" horiz-adv-x="406" 
d="M172 -200q-78 39 -103 81l110 144q-182 199 -179 359v11l56 26q34 16 94 16q-7 -29 -7 -139q0 -129 59 -221l84 182q47 105 58 194l7 -5q9 -40 9 -66q0 -138 -52 -306q-55 -180 -136 -276z" />
    <glyph glyph-name="z" unicode="z" horiz-adv-x="468" 
d="M419 104q-1 -27 -8 -60q-10 -48 -11 -58l-22 -1q-70 -1 -193 72q-9 -2 -53 -39t-50 -37q-16 0 -50 71.5t-34 95.5q120 48 176 84q89 56 135 137l-13 3q-67 0 -134 -34q-62 -32 -108 -85q-24 49 -19 129l4 54q28 19 108 19q49 0 109 -9t82 -19q13 23 40 88q10 -30 10 -46
q0 -84 -58 -201q-51 -105 -117 -177q28 -31 75 -31q31 0 131 44z" />
    <glyph glyph-name="braceleft" unicode="{" horiz-adv-x="877" 
d="M779 364q0 -36 -24.5 -67.5t-59.5 -31.5q-36 0 -55 15l58 20q36 17 36 51q0 20 -33 55q-10 11 -15 48t-13 48q-21 31 -56 31q-4 0 -13 2q-7 1 -11 0q-6 -2 -15 -10l-21 -13l-1.5 1.5t-1.5 4.5q0 23 39 41q31 15 48 15q39 0 67 -33q14 -16 18.5 -48t12.5 -42
q24 -35 29 -43q11 -21 11 -44zM702 357q0 -27 -31 -42q-24 -12 -51 -12q-4 0 -6.5 1t-3.5 1q-6 6 -6 10q0 5 24.5 16t28.5 15q1 5 -5 5q-3 0 -24.5 -5t-24.5 -5q-8 0 -20 8q-1 6 16 15q24 12 32 19q-6 6 -8 6q-4 0 -29.5 -12t-37.5 -12q-9 0 -16 8q5 13 38 29t43 31
q-4 4 -8 4q-3 0 -35 -14.5t-35 -14.5q-11 0 -11 11q0 1 26.5 23t26.5 25l-4 4q-5 -2 -20 -12t-18 -10h-15q0 1 -1.5 2t-1.5 5q0 23 29 43q25 17 44 17q27 0 43 -24q8 -11 10 -31q2 -25 4 -32q6 -16 28 -40q19 -21 19 -32zM566 607q0 -24 -11.5 -45t-33.5 -27q-1 1 -3.5 3
t-4.5 3q1 4 9 19.5t8 33.5q0 19 -18.5 35t-37.5 16q-3 0 -39 -8t-39 -8q-14 0 -35 8t-43 8q-14 0 -30.5 -18.5t-16.5 -34.5q0 -15 8 -30q8 -18 10 -29l-12 -3q-39 23 -39 74q0 23 20 52q25 35 57 35q3 0 43.5 -5t43.5 -5t32 4t31 4q41 0 69 -20q32 -23 32 -62zM504 589
q0 -13 -11 -36t-17 -27q-6 6 -7 24q-2 25 -3 31h-6q-6 -9 -11.5 -39t-15.5 -45q-10 6 -13 29q-3 32 -6 40q-9 -7 -12 -36q-3 -37 -7 -47h-8q-12 14 -13 41q-3 35 -6 45q-5 -5 -6.5 -28.5t-9.5 -29.5q-10 7 -14.5 28t-7.5 42q-7 -4 -7 -12q0 -3 1 -10t1 -11q0 -8 -4 -14
q-11 -1 -20.5 21t-9.5 35q0 36 38 36q3 0 39 -7t39 -7q18 0 34 7t27 7q36 0 36 -37zM532 304q-8 -12 -28 -12q-28 0 -34 -3q11 -12 34 -39v-9q-3 -3 -11 -3q-5 0 -24 14q-11 7 -21 15q-3 -2 -3 -5q0 -6 6.5 -22t6.5 -22v-8q-3 -3 -8 -3q-7 0 -18 16q-8 13 -16 25
q-9 -4 -10 -23q-2 -25 -8 -36q-13 5 -16 27q-4 28 -9 34q-4 -5 -40 -33l-10 3q4 15 23 48q-2 1 -5 1q-8 0 -15 -5t-18 -5q-6 0 -13 1q-3 6 12 21q12 10 24 21q-14 6 -54 16v9q20 3 59 11q-14 14 -41 53q3 3 30.5 -8.5t32.5 -10.5q-19 36 -19 67q13 0 30 -24q20 -28 23 -31
q6 17 19 51q10 -3 12 -19.5t4 -31.5q1 0 6 -4q8 11 38 40h8q6 -5 6 -12q0 -10 -24 -46q4 -5 28 -3q29 2 32 1q0 -12 -21 -21q-15 -7 -30 -13q5 -6 28.5 -10t33.5 -12zM736 153q0 -35 -46 -65q-62 -40 -76 -58l-34 -46q-13 -14 -43 -14q-40 0 -66.5 25t-26.5 63q0 11 3 17h11
q26 -64 66 -64q26 0 44 25q15 23 30 45q10 12 76 45q6 3 12.5 15.5t6.5 19.5q0 40 -72 64q6 9 26 16q40 0 64.5 -24.5t24.5 -63.5zM664 161q0 -22 -41 -31q-24 -6 -70 -65q-4 -6 -17.5 -13.5t-21.5 -7.5q-16 0 -36 32q-17 29 -17 42v17q5 5 8 5q5 0 22 -23.5t21 -26.5l4 4
q-4 6 -26 43q-17 27 -17 31q0 10 10 10q9 0 28 -26.5t30 -26.5q-1 12 -17 34t-20 38q5 5 7 5q8 0 28 -21q22 -24 26 -27q3 12 -12.5 31.5t-15.5 26.5q0 3 1.5 5t1.5 4h8q8 0 27 -24t25 -26q2 2 2 5q0 8 -10 22v11q6 5 8 5q20 0 42 -20.5t22 -32.5zM257 367q-5 -10 -13 -11
q7 0 -81 24l-4 -4q7 -7 62 -38q0 -5 3 -7q-6 -6 -12 -6q-10 0 -32.5 4.5t-26.5 7.5h-9q1 -8 17 -19l24 -16q1 -2 -3.5 -7.5t-8.5 -5.5q-1 0 -12 3.5t-43 1.5q13 -8 38 -30q-1 -3 -33 -3q-19 0 -33.5 11t-14.5 26t28 45t28 47q0 12 -12 23q-6 7 0 30t34 23q36 0 75 -39
q-4 -11 -10 -11q-1 0 -44 14l-18 -2q14 -16 50.5 -32.5t50.5 -28.5zM190 476q-3 -3 -8 -3q-3 0 -27 7t-27 7q-36 0 -45 -44q-1 -4 1 -19q3 -18 3 -28q0 -17 -6.5 -29t-22.5 -35q-7 -9 -7 -27q0 -28 21 -46t44 -17q0 -1 7 -3t7 -5q-9 -8 -30 -8q-39 0 -63 23q-27 23 -27 62
q0 11 13 38t15 49q7 73 18 95q15 30 62 30q18 0 45 -16t27 -31zM350 80q0 -19 -15 -38t-35 -19q-27 0 -47 29q-24 35 -48 44q-13 2 -38 11q-18 11 -18 26q0 4 31 32q19 16 37 32h9l1 -1.5t1 -5.5q0 -2 -9 -20q-11 -23 -15 -32q8 -1 28 22q27 30 33 35h9q0 -1 1 -3t1 -5
q0 -10 -10 -27.5t-21 -35.5v-6l4 -4q7 8 19 33q10 20 21 26h9v-30q0 -2 -10 -26t-10 -32q14 16 47 64h8l1.5 -2t1.5 -6q0 -12 -9 -34q-11 -28 -14 -41q10 9 29 26q8 -3 8 -12zM372 38q0 -30 -33 -55q-29 -22 -56 -22q-31 0 -56 25q-37 37 -70 53q-46 21 -59 39
q-11 14 -11 43q0 53 69 74q8 -8 8 -9q0 -4 -21.5 -22.5t-21.5 -41.5t34 -36q47 -18 55 -26l34 -42q20 -24 45 -24q43 0 72 57h8l1.5 -4.5t1.5 -8.5zM420 315q0 26 -23 26q-25 0 -25 -24t22 -24q3 0 4 1.5t4 1.5q18 0 18 19z" />
    <glyph glyph-name="bar" unicode="|" horiz-adv-x="985" 
d="M-18 85q0 -25 5 -25q-2 0 12 7q7 34 17 47q14 18 45 18q58 0 140 -65q-5 -14 -13 -14q-14 0 -50.5 9t-51.5 9q-49 0 -49 -41q0 -22 19 -22q10 0 16 7v12q-8 0 -12 -3q-7 -2 -7 11q0 21 29 21q63 0 100 -11q-4 -4 -6 -24l7 -5q15 -11 37 -11q4 0 10.5 1.5t10.5 1.5
q35 0 63 -32q24 -29 47 -58l4 12q-24 31 -25 32q-13 20 -14 37q14 2 10 2q6 0 28 -36q26 -41 30 -45l2 12v2q0 2 -14.5 25.5t-14.5 28.5l1 1q25 0 40 -26q12 -22 12 -48q6 0 18 13q7 -4 20 -25q11 -17 26 -17q12 0 21 19q8 16 8 30t-10 35.5t-11 33.5q27 -27 71 -55
q52 -33 78 -33q16 0 40 14.5t24 28.5t-30 42.5t-30 35.5q0 19 30 19q14 0 43.5 -11t43.5 -11q15 0 56.5 15t41.5 25q0 16 -28.5 34.5t-45.5 18.5q-5 0 -32.5 -11.5t-34.5 -11.5q-20 0 -20 24q0 17 21 33.5t39 16.5q13 0 38.5 -6.5t38.5 -6.5q41 0 75 17q42 22 42 59
q0 20 -17.5 35t-38.5 15q-16 0 -60.5 -22.5t-63.5 -22.5q-35 0 -35 22q0 9 19 28q23 25 25 28q3 15 15 45q5 7 27 18.5t31 22t18.5 34t9.5 35.5q0 16 -14.5 33t-30.5 17q-23 0 -40 -30q-21 -38 -26 -41q-5 3 -11.5 12.5t-6.5 14.5q0 6 19.5 46.5t19.5 45.5q0 18 -14.5 36.5
t-32.5 18.5q-22 0 -38.5 -17.5t-31.5 -34.5q-6 15 -31 35q-36 29 -38 31q3 6 3 13q0 22 -20 48.5t-42 26.5q-26 0 -77 -52q-44 -44 -63 -77q-30 -54 -54 -140q-36 -135 -39 -145q-4 3 -4 23q0 6 1 18.5t1 18.5q0 45 19 104t44 89q10 12 24 21q-7 19 -68 28q-36 87 -99 87
q-4 0 -13 -2t-14 -2q-4 0 -26 31t-54 31q-47 0 -70 -89q-16 -60 -16 -128q0 -123 59 -248q45 -97 138 -216v-9q-3 -3 -5 -3l-64.5 36t-103.5 36q-24 0 -48 -19t-24 -42zM117 502q0 40 19 102q21 66 45 92q-35 -92 -35 -208q0 -66 30 -126q37 -74 96 -74q7 0 7 2l-1 3
q-29 12 -45 57q-12 37 -12 75t27.5 96t57.5 78q-22 -39 -39.5 -99.5t-17.5 -104.5q0 -76 54 -99q-3 -71 -16 -184q-5 -23 -28 -26q3 3 3 8q0 3 -2 7q-6 0 -20 -9q-3 20 -23 68q-17 43 -19 71l-5 64q-33 48 -41 63q-16 31 -27 73q-8 33 -8 71zM402 411q10 65 61 134.5
t111 88.5q-50 -43 -94 -114q-46 -75 -57 -136zM458 322q2 44 62 114t100 70h24q-51 -21 -107 -93q-50 -63 -74 -124zM214 44q0 5 7 13q7 2 17 0q8 -8 8 -15q0 -14 -16 -14q-4 0 -8 2t-4.5 3t-2 4.5t-1.5 6.5zM664 538q0 25 24 49.5t48 24.5q12 0 21.5 -9t9.5 -21
q0 -6 -19.5 -49.5t-19.5 -48.5q0 -13 11.5 -28t23.5 -15q19 0 29 34t34 34q20 0 25 -16q3 -7 3 -33q0 -23 -34.5 -52.5t-57.5 -29.5q-12 0 -30 7v28q22 -14 40 -14q8 0 14 12q-17 1 -44 9q-13 9 -24.5 31.5t-11.5 37.5q0 8 1.5 25t1.5 25q0 29 16 58q-29 -3 -31 -77l-1 -11
q-29 11 -29 29zM298 87q8 8 23 26q0 49 34 133q28 68 63 125q11 -9 14 -29l5 -33q4 -15 14 -45q-17 -12 -58 -66t-41 -70q0 -5 2 -5q1 0 1 1q87 131 132 131q7 0 13 -42q-25 -8 -67 -49q-37 -36 -55 -64l10 -2q12 20 43 48.5t54 40.5l76 28q58 24 58 44q0 4 -6.5 8t-6.5 8
q0 28 47 60q44 30 73 30q37 0 37 -23q0 -18 -25.5 -38t-25.5 -37q0 -15 16 -25q13 -9 29 -9q27 0 72 21t52 21q16 0 33 -11t17 -26q0 -24 -35 -42q-30 -15 -57 -15q-33 0 -69 12q21 2 43 4q28 4 34 17q-14 0 -44 -5t-44 -5q-28 0 -48.5 17t-20.5 44q0 24 11 42q1 2 27 33
l-16 2q-39 -36 -39 -81q0 -18 6 -43q-65 -22 -129 -44q-72 -28 -107 -81q13 1 43 23q41 28 44 30q25 13 86.5 33t82.5 20q27 0 39 -5q-71 -28 -71 -70q0 -14 14 -25t28 -11q11 0 34.5 10t35.5 10q10 0 29 -8t19 -17q0 -3 -3.5 -7.5t-3.5 -6.5q-4 -1 -34 -11q-26 -8 -31 -8
q-15 0 -45.5 9.5t-45.5 9.5q-45 0 -45 -32q0 -15 29 -38t29 -33q0 -11 -18 -21.5t-31 -10.5q-26 0 -80 37q-92 65 -100 70q-63 38 -113 38q-2 0 -8 -1t-8 -1l-5 1q4 9 20 12.5t21 9.5q-6 8 -16 8q-4 0 -20 -9q-19 -11 -21 -12zM458 67q49 13 149 34l5 -5
q-25 -14 -28.5 -20.5t-3.5 -33.5q0 -9 -3 -18q-16 9 -89 33l-20 -9q63 -1 123 -56h15q-12 30 -12 48q0 24 15 39q7 7 35 23v12l-28 4q-73 0 -158 -51z" />
    <glyph glyph-name="braceright" unicode="}" horiz-adv-x="725" 
d="M534 25q0 -12 -22 -22q3 8 3 18q0 14 -14 22q6 6 8 6q25 -7 25 -24zM644 667q0 -28 -32 -39q-48 -19 -196 -65q-15 0 -44 -2q-12 -2 -31 -12q-23 -11 -32 -14q-16 1 -44 -6q-45 -27 -135 -69q-84 -38 -92 -38q-22 0 -22 32q0 22 16.5 39t73.5 64q52 42 84 80q43 49 48 54
q26 24 50 24q5 0 11 -1l168 -23q49 4 93 4q40 0 51 -2q33 -5 33 -26zM674 281q0 -57 -50 -57q-9 0 -38 9.5t-31 9.5q-12 0 -12 -18q0 -3 5 -36.5t5 -36.5q0 -38 -29 -94l30 23q41 -4 41 -42q0 -44 -64 -64q-39 -12 -82 -12q-60 0 -60 17q0 6 9 6q3 0 12.5 -2.5t11.5 -2.5
q16 0 34 6q31 10 31 31v18q-4 1 -20 1q-36 0 -57 34q-1 -3 -1 -14.5t-1 -15.5q6 -2 16.5 -10t13.5 -8t9 -1.5t8 -1.5h18q0 -27 -51 -27q-40 0 -40 26q0 9 19 17q3 -1 -23 -1q-28 0 -55 21l-8 -26q-5 -17 -17 -27q16 -15 36 -15q6 0 13 4q-1 1 -12.5 3.5t-11.5 10.5
q0 16 8 27q25 -9 40 -11q1 -18 0 -21q4 -4 6 -4q0 -9 1.5 -15t1.5 -11q0 -15 -32 -15q-38 0 -59 42q-1 0 -12 -3.5t-22 -3.5q-52 0 -76 46q-7 15 -25 87q-11 46 -34 46q-3 0 -7.5 -1t-6.5 -1q-25 0 -47 23.5t-22 46.5q0 30 36 100q40 77 69 77q19 0 81 -43q54 -38 62 -48
q13 -15 13 -44q0 -44 -47 -71q-2 -33 5 -52q9 -25 41 -47q0 8 -3 31t-3 25l21 214q0 20 -4 43q-6 32 -17 32q-2 0 -10.5 -4.5t-12.5 -4.5q-14 0 -14 16q0 17 14.5 25.5t14.5 17.5q0 6 -3 14q12 1 37 6q8 2 28.5 12.5t22.5 10.5q-1 0 9 -8q12 2 32 -6t20 -20q0 -8 -11.5 -13
t-21.5 -8q6 -36 9 -86q-66 -43 -66 -83q0 -18 13.5 -33.5t29.5 -17.5q-11 10 -23 20q-7 9 -7 25q0 54 73 83q52 21 104 21q39 0 92 -49t53 -92zM386 272v0v0v0zM452 263q-2 8 -20 8q-2 0 -10 -1.5t-11 -1.5q-11 -53 0 -94q1 -5 6 -14t5 -11q0 -1 -6.5 -21t-6.5 -30
q30 41 35 91q7 70 8 74zM158 190v4h-9v-4h9zM272 39q2 5 -14 30.5t-15 42.5q14 -20 33 -48q-6 10 -14 40l-3 11q-9 12 -13 30.5t-10 52.5q-42 -19 -87 -26q17 -21 25.5 -71t30.5 -73q-13 21 -13 37q0 8 4 8q7 -17 22 -36q3 5 -6 26.5t-9 26.5q0 14 5 13q13 -31 41 -74
q1 9 -12.5 34.5t-13.5 32.5q0 12 4 14q9 -19 17 -38q12 -23 28 -33z" />
    <glyph glyph-name="asciitilde" unicode="~" horiz-adv-x="438" 
d="M317 701l-4 -1q-29 47 -68 47q-22 0 -58 -21.5t-59 -21.5q-38 0 -61 28t-21 67l1 8l3 1q27 -43 67 -43q26 0 61 21.5t54 21.5q37 0 62 -31t23 -68v-8z" />
    <glyph glyph-name="Adieresis" unicode="&#xc4;" horiz-adv-x="505" 
d="M475 85q0 -11 -56 -47q-49 -32 -71 -41q-14 -5 -41 -15v251q-30 -39 -133 -111v-157h-24v148l-37 -13q-7 33 -21 97h-3q-22 -39 -42 -104q-16 -55 -33 -109q-14 49 -14 108q0 135 50 308t121 289q16 -12 70 -71q57 -63 57 -72q0 -3 -8 -13q-11 -12 -12 -15
q33 -38 67 -102l54 -110q23 -46 63 -173q13 -43 13 -48zM302 279q-15 159 -44 217q-12 -10 -48 -61t-36 -61l1 -127q51 2 127 32zM151 245l-1 76q-25 -31 -41 -76h42zM116 819q14 0 38 -16.5t24 -29.5q0 -14 -21.5 -32.5t-35.5 -20.5l-20 -2q-8 0 -26 4q17 37 21 46
q11 27 15 49q2 2 5 2zM272 818q10 0 33.5 -17t23.5 -27q0 -18 -30 -40q-20 -15 -49 -15q-5 0 -13.5 1t-12.5 1q20 45 22 48q11 27 14 49h12z" />
    <glyph glyph-name="Aring" unicode="&#xc5;" horiz-adv-x="505" 
d="M275 769q0 -25 -23.5 -42.5t-55.5 -17.5q-33 0 -56 17.5t-23 42.5t23 42.5t56 17.5q32 0 55.5 -17.5t23.5 -42.5zM475 85q0 -11 -56 -47q-49 -32 -71 -41q-14 -5 -41 -15v251q-30 -39 -133 -111v-157h-24v148l-37 -13q-7 33 -21 97h-3q-22 -39 -42 -104q-16 -55 -33 -109
q-14 49 -14 108q0 135 50 308t121 289q16 -12 70 -71q57 -63 57 -72q0 -3 -8 -13q-11 -12 -12 -15q33 -38 67 -102l54 -110q23 -46 63 -173q13 -43 13 -48zM231 773q0 15 -10.5 25t-24.5 10q-15 0 -25 -10t-10 -25q0 -29 32 -29q38 0 38 29zM302 279q-15 159 -44 217
q-12 -10 -48 -61t-36 -61l1 -127q51 2 127 32zM151 245l-1 76q-25 -31 -41 -76h42z" />
    <glyph glyph-name="Ccedilla" unicode="&#xc7;" horiz-adv-x="531" 
d="M274 36l-17 -81q24 13 66 3q10 0 26.5 -13t22.5 -28q4 -10 4 -19q0 -25 -24 -35q-66 -57 -141 -64q-10 18 -10 24q0 2 1 2q34 9 62 34t28 44q0 7 -4 11q-69 5 -69 -2q0 4 23 148q-116 97 -181 212q-11 -5 -26 -25q-21 -30 -23 -31q4 17 27 96q-8 11 -15 25q-15 35 -19 84
q17 -29 31 -43q12 -10 23 -20q23 37 46 75q49 74 108 128q83 77 186 113l38 -50q31 -48 40 -100q1 -7 -30 -9v-310h-24v304q-68 -19 -126 -44q-138 -61 -202 -146q136 -156 309 -186l46 -6q42 -5 42 -6q0 -8 -43 -69q-37 -52 -52 -71q-54 5 -123 55z" />
    <glyph glyph-name="Eacute" unicode="&#xc9;" horiz-adv-x="535" 
d="M510 226q-9 -122 -69 -239q-120 24 -213 95q0 -14 22 -61q16 -32 31 -63q-77 28 -212 126q-10 54 -10 120q0 92 19 164q-72 44 -91 74q53 -22 96 -27q9 37 17 74q11 42 25 71q-13 2 -25 2q-11 0 -31 -5t-31 -5q11 33 121 92q1 5 26 44q12 6 12 0q0 -15 3 -17q2 -1 0 -16
q16 1 69 9q43 7 70 7q51 0 132 -15l-51 -153l-75 42q-16 8 -68 15q-47 7 -71 6h-17q-17 -83 -17 -140q0 -13 2 -23q7 -3 19 -3q65 0 158 15q10 -18 54 -141q-83 8 -118 16q-55 12 -113 41q-2 -2 -2 -10q0 -103 47 -206q48 -1 225 64l-1 257h24q2 -164 1 -246zM380 777
q-7 41 -27 76q-6 9 -15 19q0 -2 -4 -5q-18 -19 -42 -45.5t-48 -53.5q-29 -32 -53 -49l-1 -3q29 0 86 16.5t80 30.5z" />
    <glyph glyph-name="Ntilde" unicode="&#xd1;" horiz-adv-x="602" 
d="M465 236q5 -14 52 -82q44 -63 44 -79q0 -13 -83 -56q-72 -37 -102 -47q1 5 1 10q0 42 -53 196q-55 158 -80 178v-474l-29 1v137q-113 -56 -170 -56q-8 0 -15 2q-2 99 -2 111q0 170 54 382q2 9 21 55q16 42 16 49q0 12 -110 132q236 -103 429 -422q1 3 1 10q0 134 -89 341
q53 42 70 53q29 17 84 31q27 -96 27 -192q0 -148 -66 -280zM140 538q0 -13 -3.5 -39.5t-3.5 -40.5q0 -80 24 -201q25 -125 56 -194l-1 358q0 18 -28 61q-24 35 -44 56zM411 719l-4 -1q-29 47 -68 47q-22 0 -58 -21t-59 -21q-38 0 -61 28t-21 66l1 8l3 1q27 -43 67 -43
q26 0 61.5 21.5t53.5 21.5q37 0 62 -30.5t23 -68.5v-8z" />
    <glyph glyph-name="Odieresis" unicode="&#xd6;" horiz-adv-x="541" 
d="M488 352q0 -191 -132 -263l51 -10q-25 -52 -79 -151q-24 6 -72 17v-75h-20q1 23 1 48q0 20 -1 34q-106 32 -173 146q-62 105 -62 222q0 111 54 199.5t152 134.5q-1 7 -8 14q33 25 69.5 32t73.5 12q39 -32 84.5 -113t52.5 -130q9 -61 9 -117zM363 315q0 50 -36 138
q-32 81 -66 129q0 -38 -2 -154q-1 -100 -1 -154q0 -86 2 -144q23 -18 68 -31q35 62 35 216zM236 146v473q-2 5 -10 11q-53 -40 -85 -113q-29 -69 -29 -140q0 -140 124 -231zM166 859q14 0 38 -16.5t24 -29.5q0 -14 -21.5 -32.5t-35.5 -20.5l-20 -2q-8 0 -26 4q17 37 21 46
q11 27 15 49q2 2 5 2zM322 858q10 0 33.5 -17t23.5 -27q0 -18 -30 -40q-20 -15 -49 -15q-5 0 -13.5 1t-12.5 1q20 45 22 48q11 27 14 49h12z" />
    <glyph glyph-name="Udieresis" unicode="&#xdc;" horiz-adv-x="570" 
d="M266 691l-23 -47v-580q22 -27 44 -45q55 1 93 117q25 79 32 161q4 38 4 82q0 106 -30 347q128 -213 128 -524q0 -61 -5 -122q-6 -13 -12 -46q-43 -11 -87 -22q-49 -12 -88 -14q22 -18 60 -36q32 -14 64 -29q-58 6 -82 10q-41 8 -79 27q-139 69 -216 221q-71 139 -71 304
q0 86 30 141q79 19 238 55zM211 96v489q-65 -140 -65 -255q0 -53 16 -124q20 -86 49 -110zM166 859q14 0 38 -16.5t24 -29.5q0 -14 -21.5 -32.5t-35.5 -20.5l-20 -2q-8 0 -26 4q17 37 21 46q11 27 15 49q2 2 5 2zM322 858q10 0 33.5 -17t23.5 -27q0 -18 -30 -40
q-20 -15 -49 -15q-5 0 -13.5 1t-12.5 1q20 45 22 48q11 27 14 49h12z" />
    <glyph glyph-name="aacute" unicode="&#xe1;" horiz-adv-x="414" 
d="M375 420q-12 -9 -37 -10q-30 -2 -40 -7v-11q26 -44 45 -140q17 -87 17 -149q0 -78 -5 -108q-3 3 -59.5 23t-62.5 20q-76 -50 -156 -50q-35 0 -59 33q-22 30 -22 67q0 55 23 111q28 71 72 71q19 0 67.5 -14.5t67.5 -14.5q11 0 12 11q0 -3 0 20q0 69 -15 108h-10
q-14 0 -79 -39t-72 -39q-10 0 -39 45q-26 40 -32 57q43 30 102 41q55 9 110 17l-15 51q12 -3 37 -24t37 -24q25 -6 113 -45zM237 149q0 9 -3 33t-3 32q-36 -14 -72 -29q-41 -17 -62 -50q-9 -14 -9 -39q0 -17 16.5 -31.5t33.5 -14.5q41 0 70 28.5t29 70.5zM281 578
q-7 41 -27 76q-5 9 -14 19q-1 -2 -5 -4q-18 -24 -42 -54q-59 -63 -104 -95l2 -3q29 0 86 16.5t81 30.5z" />
    <glyph glyph-name="agrave" unicode="&#xe0;" horiz-adv-x="414" 
d="M375 420q-12 -9 -37 -10q-30 -2 -40 -7v-11q26 -44 45 -140q17 -87 17 -149q0 -78 -5 -108q-3 3 -59.5 23t-62.5 20q-76 -50 -156 -50q-35 0 -59 33q-22 30 -22 67q0 55 23 111q28 71 72 71q19 0 67.5 -14.5t67.5 -14.5q11 0 12 11q0 -3 0 20q0 69 -15 108h-10
q-14 0 -79 -39t-72 -39q-10 0 -39 45q-26 40 -32 57q43 30 102 41q55 9 110 17q-4 5 -13 27q82 -23 185 -69zM237 149q0 9 -3 33t-3 32q-36 -14 -72 -29q-41 -17 -62 -50q-9 -14 -9 -39q0 -17 16.5 -31.5t33.5 -14.5q41 0 70 28.5t29 70.5zM91 570q6 41 26 76q6 10 15 19
q0 -2 4 -4q18 -19 42.5 -46t49.5 -54q30 -31 54 -49l-1 -3q-6 -2 -14 -2q-29 0 -82 19q-47 16 -71 30z" />
    <glyph glyph-name="acircumflex" unicode="&#xe2;" horiz-adv-x="414" 
d="M375 420q-12 -9 -37 -10q-30 -2 -40 -7v-11q26 -44 45 -140q17 -87 17 -149q0 -78 -5 -108q-3 3 -59.5 23t-62.5 20q-76 -50 -156 -50q-35 0 -59 33q-22 30 -22 67q0 55 23 111q28 71 72 71q19 0 67.5 -14.5t67.5 -14.5q11 0 12 11q0 -3 0 20q0 69 -15 108h-10
q-14 0 -79 -39t-72 -39q-10 0 -39 45q-26 40 -32 57q43 30 102 41q55 9 110 17l-15 51q12 -3 37 -24t37 -24q25 -6 113 -45zM237 149q0 9 -3 33t-3 32q-36 -14 -72 -29q-41 -17 -62 -50q-9 -14 -9 -39q0 -17 16.5 -31.5t33.5 -14.5q41 0 70 28.5t29 70.5zM185 576
q-22 -22 -72 -40q-45 -17 -72 -17l-2 3q52 37 68 51q34 29 53.5 62.5t22.5 30.5q1 1 3 1q4 0 11 -13q3 -9 7 -18q27 -46 122 -114l-2 -3q-25 0 -73.5 19.5t-65.5 37.5z" />
    <glyph glyph-name="adieresis" unicode="&#xe4;" horiz-adv-x="414" 
d="M375 420q-12 -9 -37 -10q-30 -2 -40 -7v-11q26 -44 45 -140q17 -87 17 -149q0 -78 -5 -108q-3 3 -59.5 23t-62.5 20q-76 -50 -156 -50q-35 0 -59 33q-22 30 -22 67q0 55 23 111q28 71 72 71q19 0 67.5 -14.5t67.5 -14.5q11 0 12 11q0 -3 0 20q0 69 -15 108h-10
q-14 0 -73.5 -36t-66.5 -36q-10 0 -38 44q-26 41 -32 58q42 30 95 37.5t105 14.5l-15 51q12 -3 37 -24t37 -24q25 -6 113 -45zM237 149q0 9 -3 33t-3 32q-36 -14 -72 -29q-41 -17 -62 -50q-9 -14 -9 -39q0 -17 16.5 -31.5t33.5 -14.5q41 0 70 28.5t29 70.5zM116 639
q14 0 38 -16.5t24 -29.5q0 -14 -21.5 -32.5t-35.5 -20.5l-20 -2q-8 0 -26 4q17 37 21 46q11 27 15 49q2 2 5 2zM272 638q10 0 33.5 -17t23.5 -27q0 -18 -30 -40q-20 -15 -49 -15q-5 0 -13.5 1t-12.5 1q20 45 22 48q11 27 14 49h12z" />
    <glyph glyph-name="atilde" unicode="&#xe3;" horiz-adv-x="414" 
d="M375 420q-12 -9 -37 -10q-30 -2 -40 -7v-11q26 -44 45 -140q17 -87 17 -149q0 -78 -5 -108q-3 3 -59.5 23t-62.5 20q-76 -50 -156 -50q-35 0 -59 33q-22 30 -22 67q0 55 23 111q28 71 72 71q19 0 67.5 -14.5t67.5 -14.5q11 0 12 11q0 -3 0 20q0 69 -15 108h-10
q-14 0 -79 -39t-72 -39q-10 0 -39 45q-26 40 -32 57q43 30 102 41q55 9 110 17l-15 51q12 -3 37 -24t37 -24q25 -6 113 -45zM237 149q0 9 -3 33t-3 32q-36 -14 -72 -29q-41 -17 -62 -50q-9 -14 -9 -39q0 -17 16.5 -31.5t33.5 -14.5q41 0 70 28.5t29 70.5zM331 519l-4 -1
q-29 47 -68 47q-22 0 -58 -21t-59 -21q-38 0 -61 28t-21 66l1 8l3 1q27 -43 67 -43q26 0 61.5 21.5t53.5 21.5q37 0 62 -30.5t23 -68.5v-8z" />
    <glyph glyph-name="aring" unicode="&#xe5;" horiz-adv-x="414" 
d="M275 599q0 -25 -23.5 -42.5t-55.5 -17.5q-33 0 -56 17.5t-23 42.5t23 42.5t56 17.5q32 0 55.5 -17.5t23.5 -42.5zM375 420q-12 -9 -37 -10q-30 -2 -40 -7v-11q26 -44 45 -140q17 -87 17 -149q0 -78 -5 -108q-3 3 -59.5 23t-62.5 20q-76 -50 -156 -50q-35 0 -59 33
q-22 30 -22 67q0 55 23 111q28 71 72 71q19 0 67.5 -14.5t67.5 -14.5q11 0 12 11q0 -3 0 20q0 69 -15 108h-10q-14 0 -79 -39t-72 -39q-10 0 -39 45q-26 40 -32 57q43 30 102 41q55 9 110 17l-15 51q12 -3 37 -24t37 -24q25 -6 113 -45zM231 603q0 15 -10.5 25t-24.5 10
q-15 0 -25 -10t-10 -25q0 -29 32 -29q38 0 38 29zM237 149q0 9 -3 33t-3 32q-36 -14 -72 -29q-41 -17 -62 -50q-9 -14 -9 -39q0 -17 16.5 -31.5t33.5 -14.5q41 0 70 28.5t29 70.5z" />
    <glyph glyph-name="ccedilla" unicode="&#xe7;" horiz-adv-x="384" 
d="M193 1l-9 -38q24 14 66 3q10 0 26.5 -13t22.5 -27q4 -10 4 -20q0 -24 -24 -35q-66 -57 -141 -63q-10 17 -10 23q0 2 1 3q35 9 62.5 33.5t27.5 44.5q0 6 -4 11q-69 5 -69 -3q0 4 12 85q-73 12 -112.5 67t-39.5 136q0 97 73 156q-4 2 -11 2q-14 0 -42.5 -3.5t-42.5 -3.5
q132 95 292 95q30 0 49 -5q0 -10 2 -30t2 -30q0 -64 -13 -88q-104 62 -183 61q-22 -45 -22 -85q0 -126 142 -126q26 0 87 11v-25q0 -4 -20.5 -55t-22.5 -53q-12 -11 -44 -19.5t-52 -8.5h-7z" />
    <glyph glyph-name="eacute" unicode="&#xe9;" horiz-adv-x="395" 
d="M275 12q-112 0 -186 47q-86 57 -86 165q0 75 31 125q1 1 16 18q12 13 12 19q0 15 -15 38q4 -1 35 -15q11 14 53 27q38 12 60 12q44 0 90 -20q57 -24 57 -61q0 -25 -85 -81q-81 -54 -109 -54q-12 0 -21.5 15t-16.5 28q-2 -4 -2 -13q0 -55 44 -91q41 -34 98 -34q47 0 97 22
q-32 -147 -72 -147zM305 375q-43 32 -76 32q-20 0 -45 -17t-29 -36q12 -5 42 -5q53 0 108 26zM281 558q-7 41 -27 76q-5 9 -14 19q-1 -2 -5 -4q-18 -20 -42 -46.5t-49 -53.5q-30 -32 -55 -49l2 -3q29 0 86 16.5t81 30.5z" />
    <glyph glyph-name="egrave" unicode="&#xe8;" horiz-adv-x="395" 
d="M275 12q-112 0 -186 47q-86 57 -86 165q0 75 31 125q1 1 16 18q12 13 12 19q0 15 -15 38q4 -1 35 -15q11 14 53 27q38 12 60 12q44 0 90 -20q57 -24 57 -61q0 -25 -85 -81q-81 -54 -109 -54q-12 0 -21.5 15t-16.5 28q-2 -4 -2 -13q0 -55 44 -91q41 -34 98 -34q47 0 97 22
q-32 -147 -72 -147zM305 375q-43 32 -76 32q-20 0 -45 -17t-29 -36q12 -5 42 -5q53 0 108 26zM91 570q6 41 26 76q6 10 15 19q0 -2 4 -4q18 -19 42.5 -46t49.5 -54q30 -31 54 -49l-1 -3q-6 -2 -14 -2q-29 0 -82 19q-47 16 -71 30z" />
    <glyph glyph-name="ecircumflex" unicode="&#xea;" horiz-adv-x="395" 
d="M275 12q-112 0 -186 47q-86 57 -86 165q0 75 31 125q1 1 16 18q12 13 12 19q0 15 -15 38q4 -1 35 -15q11 14 53 27q38 12 60 12q44 0 90 -20q57 -24 57 -61q0 -25 -85 -81q-81 -54 -109 -54q-12 0 -21.5 15t-16.5 28q-2 -4 -2 -13q0 -55 44 -91q41 -34 98 -34q47 0 97 22
q-32 -147 -72 -147zM305 375q-43 32 -76 32q-20 0 -45 -17t-29 -36q12 -5 42 -5q53 0 108 26zM185 536q-22 -22 -72 -40q-45 -17 -72 -17l-2 3q52 37 68 51q34 29 53.5 62.5t22.5 30.5q1 1 3 1q4 0 11 -13q3 -9 7 -18q27 -46 122 -114l-2 -3q-25 0 -73.5 19.5t-65.5 37.5z
" />
    <glyph glyph-name="edieresis" unicode="&#xeb;" horiz-adv-x="395" 
d="M275 12q-112 0 -186 47q-86 57 -86 165q0 75 31 125q1 1 16 18q12 13 12 19q0 15 -15 38q4 -1 35 -15q11 14 53 27q38 12 60 12q44 0 90 -20q57 -24 57 -61q0 -25 -85 -81q-81 -54 -109 -54q-12 0 -21.5 15t-16.5 28q-2 -4 -2 -13q0 -55 44 -91q41 -34 98 -34q47 0 97 22
q-32 -147 -72 -147zM305 375q-43 32 -76 32q-20 0 -45 -17t-29 -36q12 -5 42 -5q53 0 108 26zM116 609q14 0 38 -16.5t24 -29.5q0 -14 -21.5 -32.5t-35.5 -20.5l-20 -2q-8 0 -26 4q17 37 21 46q11 27 15 49q2 2 5 2zM272 608q10 0 33.5 -17t23.5 -27q0 -18 -30 -40
q-20 -15 -49 -15q-5 0 -13.5 1t-12.5 1q20 45 22 48q11 27 14 49h12z" />
    <glyph glyph-name="iacute" unicode="&#xed;" horiz-adv-x="274" 
d="M223 36q-77 -30 -158 -30q-22 0 -48 6q4 3 4 12q0 4 21 61q24 62 26 68q29 95 39 135q19 74 26 138h7q34 -31 61 -159q24 -110 23 -177zM231 558q-7 41 -27 76q-5 9 -14 19q-1 -2 -5 -4q-18 -20 -42 -46.5t-49 -53.5q-30 -32 -55 -49l2 -3q29 0 86 16.5t81 30.5z" />
    <glyph glyph-name="igrave" unicode="&#xec;" horiz-adv-x="274" 
d="M223 36q-77 -30 -158 -30q-22 0 -48 6q4 3 4 12q0 4 21 61q24 62 26 68q29 95 39 135q19 74 26 138h7q34 -31 61 -159q24 -110 23 -177zM31 570q6 41 26 76q6 10 15 19q0 -2 4 -4q18 -19 42.5 -46t49.5 -54q30 -31 54 -49l-1 -3q-6 -2 -14 -2q-29 0 -82 19q-47 16 -71 30
z" />
    <glyph glyph-name="icircumflex" unicode="&#xee;" horiz-adv-x="274" 
d="M223 36q-77 -30 -158 -30q-22 0 -48 6q4 3 4 12q0 4 21 61q24 62 26 68q29 95 39 135q19 74 26 138h7q34 -31 61 -159q24 -110 23 -177zM125 526q-22 -22 -72 -40q-45 -17 -72 -17l-2 3q52 37 68 51q34 29 53.5 62.5t22.5 30.5q1 1 3 1q4 0 11 -13q3 -9 7 -18
q27 -46 122 -114l-2 -3q-25 0 -73.5 19.5t-65.5 37.5z" />
    <glyph glyph-name="idieresis" unicode="&#xef;" horiz-adv-x="274" 
d="M223 36q-77 -30 -158 -30q-22 0 -48 6q4 3 4 12q0 4 21 61q24 62 26 68q29 95 39 135q19 74 26 138h7q34 -31 61 -159q24 -110 23 -177zM56 609q14 0 38 -16.5t24 -29.5q0 -14 -21.5 -32.5t-35.5 -20.5l-20 -2q-8 0 -26 4q17 37 21 46q11 27 15 49q2 2 5 2zM212 608
q10 0 33.5 -17t23.5 -27q0 -18 -30 -40q-20 -15 -49 -15q-5 0 -13.5 1t-12.5 1q20 45 22 48q11 27 14 49h12z" />
    <glyph glyph-name="ntilde" unicode="&#xf1;" horiz-adv-x="464" 
d="M404 264q0 -66 -36 -154q-34 -82 -78 -138q3 93 3 111q0 265 -133 265q-60 0 -75 -17q52 -186 96 -277q-44 -38 -157 -64q-21 73 -21 192q0 185 42 293q3 -9 10 -50q6 -30 17 -47q74 74 165 74q74 0 122 -57q45 -54 45 -131zM331 509l-4 -1q-29 47 -68 47q-22 0 -58 -21
t-59 -21q-38 0 -61 28t-21 66l1 8l3 1q27 -43 67 -43q26 0 61.5 21.5t53.5 21.5q37 0 62 -30.5t23 -68.5v-8z" />
    <glyph glyph-name="oacute" unicode="&#xf3;" horiz-adv-x="438" 
d="M372 216q0 -155 -102 -259q-6 5 -19 25q-12 16 -22 18q-39 6 -57 11q-29 8 -54 23q-56 35 -88.5 92t-32.5 122q0 99 77 227q20 -3 89 -32q66 -28 74 -28l-18 46q-5 12 -30 37l12 12q93 -46 132 -115t39 -179zM276 300q0 17 -9 51q-67 -3 -114.5 -59.5t-47.5 -125.5
q0 -43 27.5 -72t71.5 -32q-15 29 -16 52q42 27 66 82q22 49 22 104zM271 598q-7 41 -27 76q-5 9 -14 19q-1 -2 -5 -4q-18 -20 -42 -46.5t-49 -53.5q-30 -32 -55 -49l2 -3q29 0 86 16.5t81 30.5z" />
    <glyph glyph-name="ograve" unicode="&#xf2;" horiz-adv-x="438" 
d="M372 216q0 -155 -102 -259q-6 5 -19 25q-12 16 -22 18q-39 6 -57 11q-29 8 -54 23q-56 35 -88.5 92t-32.5 122q0 99 77 227q20 -3 89 -32q66 -28 74 -28l-18 46q-5 12 -30 37l12 12q93 -46 132 -115t39 -179zM276 300q0 17 -9 51q-67 -3 -114.5 -59.5t-47.5 -125.5
q0 -43 27.5 -72t71.5 -32q-15 29 -16 52q42 27 66 82q22 49 22 104zM91 600q6 41 26 76q6 10 15 19q0 -2 4 -4q18 -19 42.5 -46t49.5 -54q30 -31 54 -49l-1 -3q-6 -2 -14 -2q-29 0 -82 19q-47 16 -71 30z" />
    <glyph glyph-name="ocircumflex" unicode="&#xf4;" horiz-adv-x="438" 
d="M372 216q0 -155 -102 -259q-6 5 -19 25q-12 16 -22 18q-39 6 -57 11q-29 8 -54 23q-56 35 -88.5 92t-32.5 122q0 99 77 227q20 -3 89 -32q66 -28 74 -28l-18 46q-5 12 -30 37l12 12q93 -46 132 -115t39 -179zM276 300q0 17 -9 51q-67 -3 -114.5 -59.5t-47.5 -125.5
q0 -43 27.5 -72t71.5 -32q-15 29 -16 52q42 27 66 82q22 49 22 104zM185 576q-22 -22 -72 -40q-45 -17 -72 -17l-2 3q52 37 68 51q34 29 53.5 62.5t22.5 30.5q1 1 3 1q4 0 11 -13q3 -9 7 -18q27 -46 122 -114l-2 -3q-25 0 -73.5 19.5t-65.5 37.5z" />
    <glyph glyph-name="odieresis" unicode="&#xf6;" horiz-adv-x="438" 
d="M372 216q0 -155 -102 -259q-6 5 -19 25q-12 16 -22 18q-39 6 -57 11q-29 8 -54 23q-56 35 -88.5 92t-32.5 122q0 99 77 227q20 -3 89 -32q66 -28 74 -28l-18 46q-5 12 -30 37l12 12q93 -46 132 -115t39 -179zM276 300q0 17 -9 51q-67 -3 -114.5 -59.5t-47.5 -125.5
q0 -43 27.5 -72t71.5 -32q-15 29 -16 52q42 27 66 82q22 49 22 104zM106 629q14 0 38 -16.5t24 -29.5q0 -14 -21.5 -32.5t-35.5 -20.5l-20 -2q-8 0 -26 4q17 37 21 46q11 27 15 49q2 2 5 2zM262 628q10 0 33.5 -17t23.5 -27q0 -18 -30 -40q-20 -15 -49 -15q-5 0 -13.5 1
t-12.5 1q20 45 22 48q11 27 14 49h12z" />
    <glyph glyph-name="otilde" unicode="&#xf5;" horiz-adv-x="438" 
d="M372 216q0 -155 -102 -259q-6 5 -19 25q-12 16 -22 18q-39 6 -57 11q-29 8 -54 23q-56 35 -88.5 92t-32.5 122q0 99 77 227q20 -3 89 -32q66 -28 74 -28l-18 46q-5 12 -30 37l12 12q93 -46 132 -115t39 -179zM276 300q0 17 -9 51q-67 -3 -114.5 -59.5t-47.5 -125.5
q0 -43 27.5 -72t71.5 -32q-15 29 -16 52q42 27 66 82q22 49 22 104zM331 519l-4 -1q-29 47 -68 47q-22 0 -58 -21t-59 -21q-38 0 -61 28t-21 66l1 8l3 1q27 -43 67 -43q26 0 61.5 21.5t53.5 21.5q37 0 62 -30.5t23 -68.5v-8z" />
    <glyph glyph-name="uacute" unicode="&#xfa;" horiz-adv-x="438" 
d="M411 -2q-30 -1 -115 39q-22 -13 -43 -26q-33 -15 -72 -15q-90 0 -137 61q-43 56 -43 149q0 113 54 251l165 -85q-11 -21 -38 -55q-30 -36 -40 -54q-36 -59 -33 -115q2 -36 24 -64q24 -31 58 -31q42 0 58 86q19 109 63 308zM291 578q-7 41 -27 76q-5 9 -14 19q-1 -2 -5 -4
q-18 -20 -42 -46.5t-49 -53.5q-30 -32 -55 -49l2 -3q29 0 86 16.5t81 30.5z" />
    <glyph glyph-name="ugrave" unicode="&#xf9;" horiz-adv-x="438" 
d="M411 -2q-30 -1 -115 39q-22 -13 -43 -26q-33 -15 -72 -15q-90 0 -137 61q-43 56 -43 149q0 113 54 251l165 -85q-11 -21 -38 -55q-30 -36 -40 -54q-36 -59 -33 -115q2 -36 24 -64q24 -31 58 -31q42 0 58 86q19 109 63 308zM91 570q6 41 26 76q6 10 15 19q0 -2 4 -4
q18 -19 42.5 -46t49.5 -54q30 -31 54 -49l-1 -3q-6 -2 -14 -2q-29 0 -82 19q-47 16 -71 30z" />
    <glyph glyph-name="ucircumflex" unicode="&#xfb;" horiz-adv-x="438" 
d="M411 -2q-30 -1 -115 39q-22 -13 -43 -26q-33 -15 -72 -15q-90 0 -137 61q-43 56 -43 149q0 113 54 251l165 -85q-11 -21 -38 -55q-30 -36 -40 -54q-36 -59 -33 -115q2 -36 24 -64q24 -31 58 -31q42 0 58 86q19 109 63 308zM185 556q-22 -22 -72 -40q-45 -17 -72 -17l-2 3
q52 37 68 51q34 29 53.5 62.5t22.5 30.5q1 1 3 1q4 0 11 -13q3 -9 7 -18q27 -46 122 -114l-2 -3q-25 0 -73.5 19.5t-65.5 37.5z" />
    <glyph glyph-name="udieresis" unicode="&#xfc;" horiz-adv-x="438" 
d="M411 -2q-30 -1 -115 39q-22 -13 -43 -26q-33 -15 -72 -15q-90 0 -137 61q-43 56 -43 149q0 113 54 251l165 -85q-11 -21 -38 -55q-30 -36 -40 -54q-36 -59 -33 -115q2 -36 24 -64q24 -31 58 -31q42 0 58 86q19 109 63 308zM116 609q14 0 38 -16.5t24 -29.5
q0 -14 -21.5 -32.5t-35.5 -20.5l-20 -2q-8 0 -26 4q17 37 21 46q11 27 15 49q2 2 5 2zM272 608q10 0 33.5 -17t23.5 -27q0 -18 -30 -40q-20 -15 -49 -15q-5 0 -13.5 1t-12.5 1q20 45 22 48q11 27 14 49h12z" />
    <glyph glyph-name="dagger" unicode="&#x2020;" horiz-adv-x="365" 
d="M74 630q49 112 105 132q27 -118 34 -219q50 21 87 46q29 -14 33 -59l2 -54q-47 -17 -118 -22q2 -45 2 -123q0 -89 -27 -225q-28 -146 -59 -191l-2 15q18 113 18 231q0 132 -31 294q-93 8 -144 39q56 -5 133 13q-13 54 -26 97q-3 8 -7 26z" />
    <glyph glyph-name="degree" unicode="&#xb0;" horiz-adv-x="290" 
d="M123 690q53 0 90.5 -37.5t37.5 -89.5q0 -53 -37.5 -90t-90.5 -37t-90.5 37t-37.5 90q0 52 37.5 89.5t90.5 37.5zM123 650q-37 0 -62.5 -25.5t-25.5 -61.5t25.5 -61.5t62.5 -25.5t62.5 25.5t25.5 61.5t-25.5 61.5t-62.5 25.5z" />
    <glyph glyph-name="cent" unicode="&#xa2;" horiz-adv-x="352" 
d="M251 178q-13 -13 -52 -13q28 -75 28 -90q0 -14 -43 -40q-38 -24 -47 -25q21 73 21 107v49q-107 18 -107 138q0 25 15 56q19 39 22 53q-21 3 -40 0q-25 -5 -37 -5q36 40 118 81q-23 55 -25 120q23 13 45 27q29 15 70 22q-7 -28 -26 -80.5t-25 -79.5q43 18 122 17
q9 -9 9 -26q0 -39 -37 -102q-54 25 -109 25q-27 0 -31 -4q-14 -16 -14 -57q0 -50 43 -72q31 -16 72 -16q44 0 72 14q-16 -73 -44 -99z" />
    <glyph glyph-name="sterling" unicode="&#xa3;" horiz-adv-x="488" 
d="M435 101q-5 -62 -59 -120q-3 0 -14 6q-49 27 -115 43q-69 16 -122 11q-9 0 -20 -2q-29 -36 -66 -58q8 16 22 49q-29 -8 -54 -19l-8 2q19 32 82 67q21 59 21 107q0 34 -11 66q-89 20 -115 48l6 1q49 -12 95 -15q-8 14 -17 28q-61 86 -61 164q0 197 201 197q27 0 44 -2
q26 -2 78 -26q58 -26 58 -46t-16 -67q-23 -63 -24 -67q-11 2 -22.5 14.5t-22.5 17.5q-20 9 -58 9q-43 0 -72 -30t-29 -73q0 -24 20 -81q4 -12 13 -30l1 -6q63 9 120 40q21 -15 27.5 -25t12.5 -33q-71 -25 -154 -26q2 -67 -28 -135q35 13 59 15q54 4 83 4q68 0 145 -28z" />
    <glyph glyph-name="section" unicode="&#xa7;" 
 />
    <glyph glyph-name="bullet" unicode="&#x2022;" horiz-adv-x="267" 
d="M-1 298q0 45 31.5 77t75.5 32t75 -32t31 -77q0 -46 -31 -78t-75 -32t-75.5 32t-31.5 78z" />
    <glyph glyph-name="paragraph" unicode="&#xb6;" horiz-adv-x="668" 
d="M536 -179q-32 -35 -61 -49.5t-76 -18.5q-46 100 -46 261q0 37 3 77q-147 49 -194 71q-78 38 -111 92q-37 59 -41 167q-4 79 64 158.5t147 86.5q53 5 106 -14q21 -7 90 -42q37 53 45 61t62 43l-10 -44q-20 -62 -39 -123q-38 -142 -38 -242q0 -20 1 -38q2 -45 5 -89
q8 -118 27 -204q25 -120 66 -153zM390 545q-48 26 -114 20q-40 -3 -73 -76q-29 -64 -25 -107q6 -73 54 -125t121 -68l2 37q5 151 6 161q7 92 29 158zM547 673q-28 -86 -48 -191q-22 -117 -18 -177q-6 -35 -6 -81q0 -96 27 -228q9 -46 60 -154q31 30 65 61q-4 -1 -26 36
q-26 44 -34 84q-10 51 -21 101q-22 119 -22 163q0 21 6 22q-8 119 30 322z" />
    <glyph glyph-name="germandbls" unicode="&#xdf;" horiz-adv-x="612" 
d="M401 96q0 63 -29 113q-33 59 -90 59q-10 0 -20 -2q34 31 66 83q36 60 36 98q0 54 -36 82q-32 26 -83 26q-30 0 -89 -26q9 -289 91 -482q-49 -50 -157 -96q-30 79 -30 197q0 24 1.5 72t1.5 72q0 52 -81 74l91 3l25 153q-37 -3 -87 -28q36 68 105 106q18 63 43 101
q-5 -27 -5 -55v-30q69 52 166 52q95 0 134 -24q53 -31 53 -119q0 -47 -39 -76l-78 -46q82 -18 127 -98q40 -70 40 -160q0 -102 -111.5 -214t-213.5 -113l6 9q59 23 112 115q51 87 51 154z" />
    <glyph glyph-name="registered" unicode="&#xae;" horiz-adv-x="395" 
d="M172 381q-63 0 -107.5 45.5t-44.5 109.5q0 63 44.5 107.5t107.5 44.5q62 0 105.5 -45t43.5 -109q0 -63 -43.5 -108t-105.5 -45zM172 660q-53 1 -88.5 -35.5t-35.5 -90.5q0 -52 37 -89t87 -37t86.5 37t36.5 89t-36.5 88.5t-86.5 37.5zM176 621q10 4 29 -2q31 -10 31 -39
q0 -44 -46 -48l47 -72h-31l-47 72h-23v-72h-26v161h66zM177 595h-39v-36h43q28 0 28 21q0 15 -32 15z" />
    <glyph glyph-name="copyright" unicode="&#xa9;" horiz-adv-x="778" 
d="M366 -8q-144 0 -244 101t-100 245q0 145 100 246t244 101t244.5 -101t100.5 -246q0 -144 -100.5 -245t-244.5 -101zM366 638q-122 0 -210 -87.5t-88 -212.5q0 -124 88 -211.5t210 -87.5t210 87.5t88 211.5q0 125 -88 212.5t-210 87.5zM486 410q-22 81 -110 81
q-66 0 -104.5 -43.5t-38.5 -108.5q0 -60 34 -102q39 -48 107 -48q93 0 113 79h47q-13 -59 -56 -92.5t-103 -33.5q-86 0 -137.5 56t-51.5 143q0 84 52.5 141t137.5 57q59 0 104 -35t55 -94h-49z" />
    <glyph glyph-name="trademark" unicode="&#x2122;" horiz-adv-x="492" 
d="M382 639q-2 -7 -65 -167h-19l-62 158v-158h-32v200h49l55 -138l56 138h49v-200h-31v167zM97 639v-167h-32v167h-65v33h161v-33h-64z" />
    <glyph glyph-name="acute" unicode="&#xb4;" horiz-adv-x="331" 
d="M261 588q-7 41 -27 76q-5 9 -14 19q-1 -2 -5 -4q-18 -20 -42 -46.5t-49 -53.5q-30 -32 -55 -49l2 -3q29 0 86 16.5t81 30.5z" />
    <glyph glyph-name="dieresis" unicode="&#xa8;" horiz-adv-x="319" 
d="M66 637q14 0 38 -16.5t24 -29.5q0 -14 -21.5 -32.5t-35.5 -20.5l-20 -2q-8 0 -26 4q17 37 21 46q11 27 15 49q2 2 5 2zM222 636q10 0 33.5 -17t23.5 -27q0 -18 -30 -40q-20 -15 -49 -15q-5 0 -13.5 1t-12.5 1q20 45 22 48q11 27 14 49h12z" />
    <glyph glyph-name="AE" unicode="&#xc6;" horiz-adv-x="799" 
d="M302 279q-15 159 -44 217q-12 -10 -48 -61t-36 -61l1 -127q51 2 127 32zM151 245l-1 76q-25 -31 -41 -76h42zM760 226q-9 -122 -69 -239q-120 24 -213 95q0 -14 22 -61q16 -32 31 -63q-83 30 -106 39q-57 24 -98 54q-5 27 -9 92q-3 59 -11 90q-30 -39 -133 -111v-157h-24
v148l-37 -13q-7 33 -21 97h-3q-22 -39 -42 -104q-16 -55 -33 -109q-14 49 -14 108q0 135 50 308t121 289q16 -12 70 -71q57 -63 57 -72q0 -3 -8 -13q-11 -12 -12 -15q30 -34 59 -87q13 57 17 70q11 41 24 68q-15 3 -27 3h-30q10 30 88 72q13 36 51 105q5 1 8 1q1 0 1 -4
q0 -17 -8 -46q-9 -34 -11 -45q16 1 69 9q43 7 70 7q51 0 132 -15l-51 -153l-75 42q-16 8 -68 15q-47 7 -71 6h-17q-17 -83 -17 -140q0 -13 2 -23q7 -3 19 -3q65 0 158 15q10 -18 54 -141q-83 8 -118 16q-55 12 -113 41q-2 -2 -2 -10q0 -45 10 -92q11 -40 37 -114
q48 -1 225 64l-1 257h24q2 -164 1 -246z" />
    <glyph glyph-name="Oslash" unicode="&#xd8;" horiz-adv-x="549" 
d="M193 197q26 -28 63 -53q12 -7 46 -22t48 -18q25 51 25 147q0 27 -2 70q-3 48 -38 131zM317 491q-38 77 -82 119q-5 9 -16 18q-50 -42 -78 -117q-26 -70 -22 -141q4 -87 46 -145zM455 673l-43 -73q41 -61 63 -134q19 -64 17 -111q-4 -92 -30 -150q-32 -69 -103 -113l52 -8
q-22 -52 -71 -154q-34 6 -92 17q-87 20 -156 105l-44 -75l-28 22l49 83q-69 103 -76 222q-5 111 43.5 202.5t144.5 141.5q-1 8 -9 14q32 27 67 37q37 7 74 15q33 -25 77 -83l37 64z" />
    <glyph glyph-name="plusminus" unicode="&#xb1;" 
 />
    <glyph glyph-name="yen" unicode="&#xa5;" horiz-adv-x="511" 
d="M395 101q-55 24 -109 32q4 -10 11 -29q1 -5 16 -65q14 -52 14 -56q-1 -9 2 -12q-25 -4 -46 -2q-33 3 -121 46l2 58q0 2 4 60q-74 -7 -134 -27l-7 2q33 41 143 70q1 11 9 47q-49 -15 -97 -44q-25 14 -34 27q-8 10 -16 37q78 34 169 42q2 4 6 10l-18 14q-27 21 -59 62
q-49 62 -107 165l-26 47q41 51 42 52q26 29 50 43q19 11 45 19q-2 -4 3 -12q10 -59 23 -135q20 -84 70 -220q51 136 70 220q10 64 24 135q5 8 3 12q25 -8 44 -19q29 -16 93 -95l-27 -47q-28 -50 -77 -117q-62 -85 -105 -120q0 -6 1 -11q47 -1 105 -15q64 -16 85 -36l-7 -3
q-94 17 -176 7q4 -20 12 -58q96 4 161 -14q-4 -27 -11 -39.5t-30 -30.5z" />
    <glyph glyph-name="mu" unicode="&#xb5;" horiz-adv-x="585" 
d="M4 275l79 39v2q0 255 74 401q91 -38 184 -112q-78 -104 -115 -220l130 65v-44l-147 -80q-20 -86 -29 -206q9 -2 22 -2q159 32 190 43q81 29 149 104q-5 -85 -10 -123q-9 -68 -27 -119l-72 -16q-43 -9 -73 -9q-114 0 -174 24q4 -51 21 -109q-40 27 -82 126
q-60 18 -129 107q51 -24 107 -25q-14 60 -18 137l-80 -44v61z" />
    <glyph glyph-name="mu" unicode="&#x3bc;" horiz-adv-x="585" 
d="M4 275l79 39v2q0 255 74 401q91 -38 184 -112q-78 -104 -115 -220l130 65v-44l-147 -80q-20 -86 -29 -206q9 -2 22 -2q159 32 190 43q81 29 149 104q-5 -85 -10 -123q-9 -68 -27 -119l-72 -16q-43 -9 -73 -9q-114 0 -174 24q4 -51 21 -109q-40 27 -82 126
q-60 18 -129 107q51 -24 107 -25q-14 60 -18 137l-80 -44v61z" />
    <glyph glyph-name="ordfeminine" unicode="&#xaa;" horiz-adv-x="562" 
d="M499 1h-51q-69 0 -253 106q-40 -50 -67 -128q-21 10 -74 62q-57 55 -57 72q0 22 62 95q34 40 172 173q109 105 158 184q0 13 -45 13q-155 0 -300 -105q-30 112 -43 175q13 10 71 18q48 6 78 6q143 0 263 -60q21 18 35 55l22 62q6 -7 6 -19q0 -53 -29.5 -150.5
t-102.5 -216.5q-44 -74 -136 -201q5 -9 32 -9q55 0 122.5 18.5t109.5 47.5v222q5 3 13 3q7 0 14 -3v-420zM242 789q22 23 72 41q45 17 72 17l2 -3q-52 -37 -68 -51q-34 -29 -53.5 -62.5t-22.5 -30.5q-1 -2 -3 -2q-4 0 -11 14q-3 9 -7 18q-27 46 -122 114l2 3
q25 0 73.5 -19.5t65.5 -38.5z" />
    <glyph glyph-name="ordmasculine" unicode="&#xba;" horiz-adv-x="468" 
d="M419 104q-1 -27 -8 -60q-10 -48 -11 -58l-22 -1q-70 -1 -193 72q-9 -2 -53 -39t-50 -37q-16 0 -50 71.5t-34 95.5q120 48 176 84q89 56 135 137l-13 3q-67 0 -134 -34q-62 -32 -108 -85q-24 49 -19 129l4 54q28 19 108 19q49 0 109 -9t82 -19q13 23 40 88q10 -30 10 -46
q0 -84 -58 -201q-51 -105 -117 -177q28 -31 75 -31q31 0 131 44zM202 589q22 23 72 41q45 17 72 17l2 -3q-52 -37 -68 -51q-34 -29 -53.5 -62.5t-22.5 -30.5q-1 -2 -3 -2q-4 0 -11 14q-3 9 -7 18q-27 46 -122 114l2 3q25 0 73.5 -19.5t65.5 -38.5z" />
    <glyph glyph-name="ae" unicode="&#xe6;" horiz-adv-x="626" 
d="M535 375l-31 23q-20 11 -45 9q-22 -2 -60 -20q-41 -20 -44 -37q22 -12 60 -12q43 0 120 37zM343 246q2 -9 8 -37q17 -33 52.5 -52.5t76.5 -19.5q47 0 97 22q-35 -157 -72 -157q-58 0 -146 36q0 -7 -9 -23.5t-10 -22.5q-2 3 -52 24.5t-55 21.5q-76 -50 -156 -50
q-35 0 -59 33q-22 30 -22 67q0 55 23 111q28 71 72 71q42 0 114 -24q31 -11 34 -9q-2 19 -3 49q0 52 -20 92l-3 2q-14 5 -78 -36q-68 -42 -73 -42q-10 0 -39 45q-26 40 -32 57q48 34 98 43q32 6 113 6q-4 22 -12 61q35 -11 67 -69q19 -1 36 -2q40 -3 58 -12q45 17 74 17
q44 0 90 -20q57 -24 57 -61q0 -25 -78 -79t-105 -54q-17 0 -40 38q-2 -12 -6 -26zM237 149q0 8 1 32t1 33q-38 -14 -76 -29q-46 -17 -66 -50q-9 -14 -9 -39q0 -17 16.5 -31.5t33.5 -14.5q41 0 70 28.5t29 70.5z" />
    <glyph glyph-name="oslash" unicode="&#xf8;" horiz-adv-x="427" 
d="M375 456l-51 -74q48 -84 48 -166q0 -155 -102 -259q-6 5 -19 25q-12 16 -22 18q-39 6 -57 11q-29 8 -54 23q-13 8 -25 17q-34 -48 -38 -50q-3 0 -15 10t-13 10q5 9 38 56q-68 73 -68 171q0 99 77 227q20 -3 89 -32q66 -28 74 -28q-27 60 -108 141v14q103 -50 174 -154
l47 66zM257 350q-64 -7 -108 -62.5t-44 -121.5q0 -10 4 -27zM278 284q0 -7 -3 28q-58 -84 -141 -202q37 -46 70 -48q-15 29 -16 52q90 58 90 170z" />
    <glyph glyph-name="questiondown" unicode="&#xbf;" horiz-adv-x="473" 
d="M-8 -68q18 -8 73 -21q-3 56 27 144q0 1 54 143q14 36 12 105q6 6 80.5 -40t74.5 -71q0 -21 -92 -121.5t-92 -140.5v-28q3 -3 45 4q66 12 106 30q61 29 97 88q9 0 29.5 -63t21.5 -83q-71 -57 -200 -57q-36 0 -88 10q0 -24 2 -28t34 -50q-18 0 -46 22q-23 18 -37 35
q-9 11 -15 40q-21 15 -37 28q-39 33 -49 54zM146 390q3 40 62 110q43 -4 75 -56q29 -47 29 -89l9 -41q-39 24 -79 47q-46 23 -96 29z" />
    <glyph glyph-name="exclamdown" unicode="&#xa1;" horiz-adv-x="289" 
d="M32 344q12 29 54 74q47 50 81 62q60 -72 74 -218l-5 -24q-23 21 -67 57q-26 21 -67 33zM7 -215q138 264 141 455q43 -60 59 -130q38 -157 38 -244q0 -19 -93.5 -51t-144.5 -30z" />
    <glyph glyph-name="logicalnot" unicode="&#xac;" 
 />
    <glyph glyph-name="florin" unicode="&#x192;" 
 />
    <glyph glyph-name="guillemotleft" unicode="&#xab;" horiz-adv-x="359" 
d="M231 262q23 -23 42 -69t19 -71l-3 -2q-38 52 -51 68q-30 34 -63 53t-30 22q-2 2 -2 3q0 5 13 11l18 8q47 26 115 121l3 -2q0 -24 -21 -74.5t-40 -67.5zM91 262q23 -23 42 -69t19 -71l-3 -2q-38 52 -51 68q-30 34 -63 53t-30 22q-2 2 -2 3q0 5 13 11l18 8q47 26 115 121
l3 -2q0 -24 -21 -74.5t-40 -67.5z" />
    <glyph glyph-name="guillemotright" unicode="&#xbb;" horiz-adv-x="359" 
d="M65 262q-23 -23 -41.5 -69t-18.5 -71l3 -2q37 52 51 68q29 34 62.5 53t30.5 22q1 2 1 3q0 5 -13 11l-18 8q-46 26 -114 121l-3 -2q0 -24 20.5 -74.5t39.5 -67.5zM205 262q-23 -23 -41.5 -69t-18.5 -71l3 -2q37 52 51 68q29 34 62.5 53t30.5 22q1 2 1 3q0 5 -13 11l-18 8
q-46 26 -114 121l-3 -2q0 -24 20.5 -74.5t39.5 -67.5z" />
    <glyph glyph-name="ellipsis" unicode="&#x2026;" horiz-adv-x="1061" 
d="M599 117q0 -20 -35 -66.5t-53 -46.5q-15 0 -44 22q-24 20 -36 36q-31 41 -31 99q0 9 2.5 26.5t2.5 25.5q89 -41 95 -43q54 -23 99 -30v-23zM999 117q0 -20 -35 -66.5t-53 -46.5q-15 0 -44 22q-24 20 -36 36q-31 41 -31 99q0 9 2.5 26.5t2.5 25.5q89 -41 95 -43
q54 -23 99 -30v-23zM199 117q0 -20 -35 -66.5t-53 -46.5q-15 0 -44 22q-24 20 -36 36q-31 41 -31 99q0 9 2.5 26.5t2.5 25.5q89 -41 95 -43q54 -23 99 -30v-23z" />
    <glyph glyph-name="nonbreakingspace" unicode="&#xa0;" horiz-adv-x="1022" 
 />
    <glyph glyph-name="Agrave" unicode="&#xc0;" horiz-adv-x="505" 
d="M475 85q0 -11 -56 -47q-49 -32 -71 -41q-14 -5 -41 -15v251q-30 -39 -133 -111v-157h-24v148l-37 -13q-7 33 -21 97h-3q-22 -39 -42 -104q-16 -55 -33 -109q-14 49 -14 108q0 135 50 308t121 289q16 -12 70 -71q57 -63 57 -72q0 -3 -8 -13q-11 -12 -12 -15
q33 -38 67 -102l54 -110q23 -46 63 -173q13 -43 13 -48zM302 279q-15 159 -44 217q-12 -10 -48 -61t-36 -61l1 -127q51 2 127 32zM151 245l-1 76q-25 -31 -41 -76h42zM114 782q7 41 27 76q5 10 14 19q1 -2 5 -4q18 -20 42 -46.5t49 -53.5q30 -32 55 -49l-2 -3q-6 -2 -14 -2
q-28 0 -82 19q-47 16 -71 30z" />
    <glyph glyph-name="Atilde" unicode="&#xc3;" horiz-adv-x="505" 
d="M475 85q0 -11 -56 -47q-49 -32 -71 -41q-14 -5 -41 -15v251q-30 -39 -133 -111v-157h-24v148l-37 -13q-7 33 -21 97h-3q-22 -39 -42 -104q-16 -55 -33 -109q-14 49 -14 108q0 135 50 308t121 289q16 -12 70 -71q57 -63 57 -72q0 -3 -8 -13q-11 -12 -12 -15
q33 -38 67 -102l54 -110q23 -46 63 -173q13 -43 13 -48zM302 279q-15 159 -44 217q-12 -10 -48 -61t-36 -61l1 -127q51 2 127 32zM151 245l2 89q-21 -25 -44 -89h42zM340 722l-3 -4q-29 47 -68 47q-22 0 -58 -21t-59 -21q-38 0 -61 28t-21 66l1 8l3 1q27 -43 67 -43
q26 0 61.5 21.5t53.5 21.5q34 0 60.5 -25.5t26.5 -57.5q0 -8 -2 -16z" />
    <glyph glyph-name="Otilde" unicode="&#xd5;" horiz-adv-x="541" 
d="M488 352q0 -191 -132 -263l51 -10q-25 -52 -79 -151q-24 6 -72 17v-75h-20q1 23 1 48q0 20 -1 34q-106 32 -173 146q-62 105 -62 222q0 111 54 199.5t152 134.5q-1 7 -8 14q33 25 69.5 32t73.5 12q39 -32 84.5 -113t52.5 -130q9 -61 9 -117zM363 315q0 50 -37 142
q-33 84 -67 132l-1 -315q0 -86 2 -144q23 -18 68 -31q35 62 35 216zM236 146v473q-2 5 -10 11q-53 -40 -85 -113q-29 -69 -29 -140q0 -140 124 -231zM411 729l-4 -1q-29 47 -68 47q-22 0 -58 -21t-59 -21q-38 0 -61 28t-21 66l1 8l3 1q27 -43 67 -43q26 0 61.5 21.5
t53.5 21.5q37 0 62 -30.5t23 -68.5v-8z" />
    <glyph glyph-name="OE" unicode="&#x152;" horiz-adv-x="857" 
d="M363 315q0 35 -9 64l-70 71l54 -24q-38 100 -77 156q-3 -151 -1 -452q23 -18 68 -31q35 62 35 216zM236 146v473q-2 5 -10 11q-53 -40 -85 -113q-29 -69 -29 -140q0 -140 124 -231zM817 210q-9 -122 -69 -239q-113 23 -216 100q0 -13 24 -63l32 -66q-53 18 -105 35
q-59 22 -99 51v3q-34 -68 -56 -103q-24 6 -72 17v-75h-20q1 23 1 48q0 20 -1 34q-106 32 -173 146q-62 105 -62 222q0 109 56.5 197t155.5 134q0 3 -14 17q33 25 69.5 32t73.5 12q33 -27 73 -93q25 15 50 29q14 36 52 105q5 1 8 1q1 0 1 -4q0 -17 -8 -46q-9 -34 -11 -45
q16 1 69 9q43 7 70 7q51 0 132 -15l-51 -153l-75 42q-17 9 -61.5 18t-65.5 7l-37 -3q-5 -27 -13 -91q-6 -46 -3 -80q23 -7 43 -7q31 0 72 10q59 14 71 16q10 -18 54 -141q-88 9 -123 16q-62 12 -117 39q5 -21 6 -61q10 -91 48 -173q48 -1 225 64l-1 257h27q1 -56 -2 -246z
" />
    <glyph glyph-name="oe" unicode="&#x153;" horiz-adv-x="661" 
d="M575 375q-43 32 -76 32q-20 0 -45 -17t-29 -36q12 -5 42 -5q53 0 108 26zM344 71q-27 -66 -74 -114q-6 5 -19 25q-12 16 -22 18q-39 6 -57 11q-29 8 -54 23q-56 35 -88.5 92t-32.5 122q0 127 96 214q19 -3 79 -26q57 -21 65 -21q-6 12 -13 42q-3 9 -26 32v15
q59 -29 77.5 -47.5t52.5 -80.5q2 4 2 9.5t10.5 15t11.5 8.5q12 15 53.5 33t61.5 18q45 0 87 -20q54 -26 58 -73q2 -25 -84 -81q-82 -54 -110 -54q-12 0 -21.5 15t-16.5 28q-2 -4 -2 -13q0 -57 42 -96.5t96 -39.5q25 0 101 33q-10 -48 -29 -95q-27 -69 -50 -69q-99 0 -194 76
zM276 300q0 17 -9 51q-67 -3 -114.5 -59.5t-47.5 -125.5q0 -43 27.5 -72t71.5 -32q-15 29 -16 52q42 27 66 82q22 49 22 104z" />
    <glyph glyph-name="endash" unicode="&#x2013;" 
 />
    <glyph glyph-name="emdash" unicode="&#x2014;" 
 />
    <glyph glyph-name="quotedblleft" unicode="&#x201c;" horiz-adv-x="422" 
d="M372 381q-58 16 -109 92q-45 66 -61 138q42 30 161 70q-8 -79 -8 -134q0 -53 9 -97.5t8 -68.5zM261 364q-82 12 -167 93q-80 75 -95 142q39 29 147 65q-7 -100 41 -185q37 -57 74 -115z" />
    <glyph glyph-name="quotedblright" unicode="&#x201d;" horiz-adv-x="422" 
d="M-1 381q58 16 109 92q45 66 61 138q-42 30 -161 70q8 -79 8 -134q0 -53 -8.5 -97.5t-8.5 -68.5zM110 364q83 12 167 93q80 75 95 142q-39 29 -147 65q7 -100 -41 -185q-37 -57 -74 -115z" />
    <glyph glyph-name="quoteleft" unicode="&#x2018;" horiz-adv-x="337" 
d="M9 631q1 -9 5 -28q23 -57 105 -130q66 -59 137 -102l8 1l-52 116q-29 69 -29 122q0 -3 4 76q-110 -20 -178 -55z" />
    <glyph glyph-name="quoteright" unicode="&#x2019;" horiz-adv-x="337" 
d="M264 631q-1 -9 -5 -28q-23 -57 -105 -130q-66 -59 -137 -102l-8 1l52 116q29 69 29 122q0 -3 -4 76q110 -20 178 -55z" />
    <glyph glyph-name="divide" unicode="&#xf7;" horiz-adv-x="24" 
 />
    <glyph glyph-name="ydieresis" unicode="&#xff;" horiz-adv-x="406" 
d="M172 -200q-78 39 -103 81l110 144q-182 199 -179 359v11l56 26q34 16 94 16q-7 -29 -7 -139q0 -129 59 -221l84 182q47 105 58 194l7 -5q9 -40 9 -66q0 -138 -52 -306q-55 -180 -136 -276zM116 599q14 0 38 -16.5t24 -29.5q0 -14 -21.5 -32.5t-35.5 -20.5l-20 -2
q-8 0 -26 4q17 37 21 46q11 27 15 49q2 2 5 2zM272 598q10 0 33.5 -17t23.5 -27q0 -18 -30 -40q-20 -15 -49 -15q-5 0 -13.5 1t-12.5 1q20 45 22 48q11 27 14 49h12z" />
    <glyph glyph-name="Ydieresis" unicode="&#x178;" horiz-adv-x="513" 
d="M463 523q0 -135 -63 -301q-61 -160 -149 -269q-92 42 -151 119q16 9 36 31.5t34 32.5q26 43 101 168q-88 64 -161 150q-83 97 -114 186q4 19 78 31q57 9 93 9l25 -1q0 -126 12 -188q19 -102 81 -166q6 2 11 11q54 91 86 200q35 120 30 215q51 -97 51 -228zM166 859
q14 0 38 -16.5t24 -29.5q0 -14 -21.5 -32.5t-35.5 -20.5l-20 -2q-8 0 -26 4q17 37 21 46q11 27 15 49q2 2 5 2zM322 858q10 0 33.5 -17t23.5 -27q0 -18 -30 -40q-20 -15 -49 -15q-5 0 -13.5 1t-12.5 1q20 45 22 48q11 27 14 49h12z" />
    <glyph glyph-name="currency" unicode="&#xa4;" 
 />
    <glyph glyph-name="guilsinglleft" unicode="&#x2039;" horiz-adv-x="216" 
d="M91 262q23 -23 42 -69t19 -71l-3 -2q-38 52 -51 68q-30 34 -63 53t-30 22q-2 2 -2 3q0 5 13 11l18 8q47 26 115 121l3 -2q0 -24 -21 -74.5t-40 -67.5z" />
    <glyph glyph-name="guilsinglright" unicode="&#x203a;" horiz-adv-x="216" 
d="M65 264q-23 23 -41.5 69t-18.5 71l3 2q37 -52 51 -68q29 -34 62.5 -53t30.5 -22q1 -1 1 -3q0 -5 -13 -11l-18 -8q-46 -26 -114 -121l-3 2q0 25 20.5 75.5t39.5 66.5z" />
    <glyph glyph-name="daggerdbl" unicode="&#x2021;" 
 />
    <glyph glyph-name="periodcentered" unicode="&#xb7;" horiz-adv-x="261" 
d="M206 365q0 -28 -32 -74q-34 -49 -60 -49q-27 0 -64.5 42.5t-40.5 71.5q-5 40 -5 39q0 16 8 53q74 -35 93 -43q53 -21 97 -30q4 -3 4 -10z" />
    <glyph glyph-name="periodcentered" unicode="&#x2219;" horiz-adv-x="261" 
d="M206 365q0 -28 -32 -74q-34 -49 -60 -49q-27 0 -64.5 42.5t-40.5 71.5q-5 40 -5 39q0 16 8 53q74 -35 93 -43q53 -21 97 -30q4 -3 4 -10z" />
    <glyph glyph-name="quotesinglbase" unicode="&#x201a;" horiz-adv-x="280" 
d="M211 106q0 -66 -65 -145q-55 -67 -122 -106q-11 21 -11 19q0 2 1 5q29 68 33 165q0 1 -1 13q-4 39 -10 65q-5 12 -13 36q-2 13 -7 40l28 -8q26 -2 93 -33q74 -33 74 -51z" />
    <glyph glyph-name="quotedblbase" unicode="&#x201e;" horiz-adv-x="506" 
d="M441 106q0 -66 -65 -145q-55 -67 -122 -106q-11 21 -11 19q0 2 1 5q29 68 33 165q0 1 -1 13q-4 39 -10 65q-5 12 -13 36q-2 13 -7 40l28 -8q26 -2 93 -33q74 -33 74 -51zM211 106q0 -66 -65 -145q-55 -67 -122 -106q-11 21 -11 19q0 2 1 5q29 68 33 165q0 1 -1 13
q-4 39 -10 65q-5 12 -13 36q-2 13 -7 40l28 -8q26 -2 93 -33q74 -33 74 -51z" />
    <glyph glyph-name="perthousand" unicode="&#x2030;" 
 />
    <glyph glyph-name="Acircumflex" unicode="&#xc2;" horiz-adv-x="505" 
d="M475 85q0 -11 -56 -47q-49 -32 -71 -41q-14 -5 -41 -15v251q-30 -39 -133 -111v-157h-24v148l-37 -13q-7 33 -21 97h-3q-22 -39 -42 -104q-16 -55 -33 -109q-14 49 -14 108q0 135 50 308t121 289q16 -12 70 -71q57 -63 57 -72q0 -3 -8 -13q-11 -12 -12 -15
q33 -38 67 -102l54 -110q23 -46 63 -173q13 -43 13 -48zM302 279q-15 159 -44 217q-12 -10 -48 -61t-36 -61l1 -127q51 2 127 32zM151 245l-1 76q-25 -31 -41 -76h42zM205 756q-22 -22 -72 -40q-45 -17 -72 -17l-2 3q52 37 68 51q34 29 53.5 62.5t22.5 30.5q1 1 3 1
q4 0 11 -13q3 -9 7 -18q27 -46 122 -114l-2 -3q-25 0 -73.5 19.5t-65.5 37.5z" />
    <glyph glyph-name="Ecircumflex" unicode="&#xca;" horiz-adv-x="535" 
d="M510 226q-9 -122 -69 -239q-120 24 -213 95q0 -14 22 -61q16 -32 31 -63q-77 28 -212 126q-10 54 -10 120q0 92 19 164q-72 44 -91 74q53 -22 96 -27q9 37 17 74q11 42 25 71q-13 2 -25 2q-11 0 -31 -5t-31 -5q11 33 121 92q7 15 36 55q6 1 8 1q1 0 1 -4q0 -11 -4 -41
q16 1 69 9q43 7 70 7q51 0 132 -15l-51 -153l-75 42q-16 8 -68 15q-47 7 -71 6h-17q-17 -83 -17 -140q0 -13 2 -23q7 -3 19 -3q65 0 158 15q10 -18 54 -141q-83 8 -118 16q-55 12 -113 41q-2 -2 -2 -10q0 -103 47 -206q48 -1 225 64l-1 257h24q2 -164 1 -246zM267 770
q-22 -22 -72 -41q-46 -16 -72 -17l-2 3q52 38 68 51q34 30 53 63t21.5 32.5t3.5 -0.5q5 0 11 -13l8 -18q26 -47 121 -115l-2 -3q-25 1 -73 20t-65 38z" />
    <glyph glyph-name="Aacute" unicode="&#xc1;" horiz-adv-x="505" 
d="M475 85q0 -11 -56 -47q-49 -32 -71 -41q-14 -5 -41 -15v251q-30 -39 -133 -111v-157h-24v148l-37 -13q-7 33 -21 97h-3q-22 -39 -42 -104q-16 -55 -33 -109q-14 49 -14 108q0 135 50 308t121 289q16 -12 70 -71q57 -63 57 -72q0 -3 -8 -13q-11 -12 -12 -15
q33 -38 67 -102l54 -110q23 -46 63 -173q13 -43 13 -48zM302 279q-15 159 -44 217q-12 -10 -48 -61t-36 -61l1 -127q51 2 127 32zM151 245l-1 76q-25 -31 -41 -76h42zM316 782q-7 42 -27 77q-5 9 -15 19q0 -2 -4 -5q-18 -19 -42.5 -45.5t-48.5 -54.5q-30 -31 -55 -49l2 -3
q29 0 86 17t81 31z" />
    <glyph glyph-name="Edieresis" unicode="&#xcb;" horiz-adv-x="535" 
d="M510 226q-9 -122 -69 -239q-120 24 -213 95q0 -14 22 -61q16 -32 31 -63q-77 28 -212 126q-10 54 -10 120q0 92 19 164q-72 44 -91 74q53 -22 96 -27q9 37 17 74q11 42 25 71q-13 2 -25 2q-11 0 -31 -5t-31 -5q11 33 121 92q9 20 42 74q6 1 8 1q1 0 1 -4q0 -18 -3 -30
q-5 -19 -7 -30q16 1 69 9q43 7 70 7q51 0 132 -15l-51 -153l-75 42q-16 8 -68 15q-47 7 -71 6h-17q-17 -83 -17 -140q0 -13 2 -23q7 -3 19 -3q65 0 158 15q10 -18 54 -141q-83 8 -118 16q-55 12 -113 41q-2 -2 -2 -10q0 -103 47 -206q48 -1 225 64l-1 257h24q2 -164 1 -246z
M186 849q14 0 38 -16.5t24 -29.5q0 -14 -21.5 -32.5t-35.5 -20.5l-20 -2q-8 0 -26 4q17 37 21 46q11 27 15 49q2 2 5 2zM342 848q10 0 33.5 -17t23.5 -27q0 -18 -30 -40q-20 -15 -49 -15q-5 0 -13.5 1t-12.5 1q20 45 22 48q11 27 14 49h12z" />
    <glyph glyph-name="Egrave" unicode="&#xc8;" horiz-adv-x="535" 
d="M510 226q-9 -122 -69 -239q-120 24 -213 95q0 -14 22 -61q16 -32 31 -63q-77 28 -212 126q-10 54 -10 120q0 92 19 164q-72 44 -91 74q53 -22 96 -27q9 37 17 74q11 42 25 71q-13 2 -25 2q-11 0 -31 -5t-31 -5q11 33 121 92q9 19 38 59q6 1 7.5 1t2 1t1.5 2q0 -1 -2 -7
l-6 -45q16 1 69 9q43 7 70 7q51 0 132 -15l-51 -153l-75 42q-16 8 -68 15q-47 7 -71 6h-17q-17 -83 -17 -140q0 -13 2 -23q7 -3 19 -3q65 0 158 15q10 -18 54 -141q-83 8 -118 16q-55 12 -113 41q-2 -2 -2 -10q0 -103 47 -206q48 -1 225 64l-1 257h24q2 -164 1 -246z
M164 792q7 41 27 76q5 10 14 19q1 -2 5 -4q18 -20 42 -46.5t49 -53.5q30 -32 55 -49l-2 -3q-6 -2 -14 -2q-28 0 -82 19q-47 16 -71 30z" />
    <glyph glyph-name="Iacute" unicode="&#xcd;" horiz-adv-x="281" 
d="M268 85q-89 -97 -191 -114q-47 99 -61 183q-11 64 -11 191q0 77 48 196q51 126 107 166l5 -13q-34 -99 -34 -201q0 -89 37 -200q35 -107 87 -185q6 -7 13 -23zM266 782q-7 42 -27 77q-5 9 -15 19q0 -2 -4 -5q-18 -19 -42.5 -45.5t-48.5 -54.5q-30 -31 -55 -49l2 -3
q29 0 86 17t81 31z" />
    <glyph glyph-name="Icircumflex" unicode="&#xce;" horiz-adv-x="281" 
d="M268 85q-89 -97 -191 -114q-47 99 -61 183q-11 64 -11 191q0 77 48 196q51 126 107 166l5 -13q-34 -99 -34 -201q0 -89 37 -200q35 -107 87 -185q6 -7 13 -23zM141 765q-23 -22 -73 -41q-45 -16 -72 -17l-1 3q52 38 67 51q35 30 54 63t21 32.5t4 -0.5q4 0 11 -13
q3 -9 7 -18q27 -47 122 -115l-2 -3q-25 1 -72 20q-50 19 -66 38z" />
    <glyph glyph-name="Idieresis" unicode="&#xcf;" horiz-adv-x="281" 
d="M268 85q-89 -97 -191 -114q-47 99 -61 183q-11 64 -11 191q0 77 48 196q51 126 107 166l5 -13q-34 -99 -34 -201q0 -89 37 -200q35 -107 87 -185q6 -7 13 -23zM76 859q14 0 38 -16.5t24 -29.5q0 -14 -21.5 -32.5t-35.5 -20.5l-20 -2q-8 0 -26 4q17 37 21 46q11 27 15 49
q2 2 5 2zM232 858q10 0 33.5 -17t23.5 -27q0 -18 -30 -40q-20 -15 -49 -15q-5 0 -13.5 1t-12.5 1q20 45 22 48q11 27 14 49h12z" />
    <glyph glyph-name="Igrave" unicode="&#xcc;" horiz-adv-x="281" 
d="M268 85q-89 -97 -191 -114q-47 99 -61 183q-11 64 -11 191q0 77 48 196q51 126 107 166l5 -13q-34 -99 -34 -201q0 -89 37 -200q35 -107 87 -185q6 -7 13 -23zM64 802q7 41 27 76q5 10 14 19q1 -2 5 -4q18 -20 42 -46.5t49 -53.5q30 -32 55 -49l-2 -3q-6 -2 -14 -2
q-28 0 -82 19q-47 16 -71 30z" />
    <glyph glyph-name="Oacute" unicode="&#xd3;" horiz-adv-x="541" 
d="M488 352q0 -191 -132 -263l51 -10q-25 -52 -79 -151q-24 6 -72 17v-75h-20q1 23 1 48q0 20 -1 34q-106 32 -173 146q-62 105 -62 222q0 111 54 199.5t152 134.5q-1 7 -8 14q33 25 69.5 32t73.5 12q39 -32 84.5 -113t52.5 -130q9 -61 9 -117zM363 315q0 50 -36 138
q-32 81 -66 129q0 -38 -2 -154q-1 -100 -1 -154q0 -86 2 -144q23 -18 68 -31q35 62 35 216zM236 146v473q-2 5 -10 11q-53 -40 -85 -113q-29 -69 -29 -140q0 -140 124 -231zM356 782q-7 42 -27 77q-5 9 -15 19q0 -2 -4 -5q-18 -19 -42.5 -45.5t-48.5 -54.5q-30 -31 -55 -49
l2 -3q29 0 86 17t81 31z" />
    <glyph glyph-name="Ocircumflex" unicode="&#xd4;" horiz-adv-x="541" 
d="M488 342q0 -191 -132 -263l51 -10q-25 -52 -79 -151q-24 6 -72 17v-75h-20q1 23 1 48q0 20 -1 34q-106 32 -173 146q-62 105 -62 222q0 111 54 199.5t152 134.5q-1 7 -8 14q33 25 69.5 32t73.5 12q39 -32 84.5 -113t52.5 -130q9 -61 9 -117zM363 305q0 50 -36 138
q-32 81 -66 129q0 -38 -2 -154q-1 -100 -1 -154q0 -86 2 -144q23 -18 68 -31q35 62 35 216zM236 136v473q-2 5 -10 11q-53 -40 -85 -113q-29 -69 -29 -140q0 -140 124 -231zM281 785q-23 -22 -73 -41q-45 -16 -72 -17l-1 3q52 38 67 51q35 30 54 63t21 32.5t4 -0.5
q4 0 11 -13q3 -9 7 -18q27 -47 122 -115l-2 -3q-25 1 -72 20q-50 19 -66 38z" />
    <glyph glyph-name="Ograve" unicode="&#xd2;" horiz-adv-x="541" 
d="M488 352q0 -191 -132 -263l51 -10q-25 -52 -79 -151q-24 6 -72 17v-75h-20q1 23 1 48q0 20 -1 34q-106 32 -173 146q-62 105 -62 222q0 111 54 199.5t152 134.5q-1 7 -8 14q33 25 69.5 32t73.5 12q39 -32 84.5 -113t52.5 -130q9 -61 9 -117zM363 315q0 50 -36 138
q-32 81 -66 129q0 -38 -2 -154q-1 -100 -1 -154q0 -86 2 -144q23 -18 68 -31q35 62 35 216zM236 146v473q-2 5 -10 11q-53 -40 -85 -113q-29 -69 -29 -140q0 -140 124 -231zM164 802q7 41 27 76q5 10 14 19q1 -2 5 -4q18 -20 42 -46.5t49 -53.5q30 -32 55 -49l-2 -3
q-6 -2 -14 -2q-28 0 -82 19q-47 16 -71 30z" />
    <glyph glyph-name="Uacute" unicode="&#xda;" horiz-adv-x="570" 
d="M266 691l-23 -47v-580q22 -27 44 -45q55 1 93 117q25 79 32 161q4 38 4 82q0 106 -30 347q128 -213 128 -524q0 -61 -5 -122q-6 -13 -12 -46q-43 -11 -87 -22q-49 -12 -88 -14q22 -18 60 -36q32 -14 64 -29q-58 6 -82 10q-41 8 -79 27q-139 69 -216 221q-71 139 -71 304
q0 86 30 141q79 19 238 55zM211 96v489q-65 -140 -65 -255q0 -53 16 -124q20 -86 49 -110zM336 782q-7 42 -27 77q-5 9 -15 19q0 -2 -4 -5q-18 -19 -42.5 -45.5t-48.5 -54.5q-30 -31 -55 -49l2 -3q29 0 86 17t81 31z" />
    <glyph glyph-name="Ucircumflex" unicode="&#xdb;" horiz-adv-x="570" 
d="M266 691l-23 -47v-580q22 -27 44 -45q55 1 93 117q25 79 32 161q4 42 4 86q0 84 -27 302q125 -208 125 -481q0 -59 -5 -124q-6 -13 -12 -46q-43 -11 -87 -22q-49 -12 -88 -14q22 -18 60 -36q32 -14 64 -29q-58 6 -82 10q-41 8 -79 27q-139 69 -216 221q-71 139 -71 304
q0 86 30 141q79 19 238 55zM211 96v489q-65 -140 -65 -255q0 -53 16 -124q20 -86 49 -110zM277 770q-22 -22 -72 -41q-46 -16 -72 -17l-2 3q52 38 68 51q34 30 53 63t21.5 32.5t3.5 -0.5q5 0 11 -13l8 -18q26 -46 129 -120l-10 2q-25 1 -73 20t-65 38z" />
    <glyph glyph-name="Ugrave" unicode="&#xd9;" horiz-adv-x="563" 
d="M266 691l-23 -47v-580q22 -27 44 -45q55 1 93 117q25 79 32 161q4 38 4 82q0 106 -30 347q128 -213 128 -524q0 -61 -5 -122q-6 -13 -12 -46q-43 -11 -87 -22q-49 -12 -88 -14q22 -18 60 -36q32 -14 64 -29q-58 6 -82 10q-41 8 -79 27q-139 69 -216 221q-71 139 -71 304
q0 86 30 141q79 19 238 55zM211 96v489q-65 -140 -65 -255q0 -53 16 -124q20 -86 49 -110zM144 802q7 41 27 76q5 10 14 19q1 -2 5 -4q18 -20 42 -46.5t49 -53.5q30 -32 55 -49l-2 -3q-6 -2 -14 -2q-28 0 -82 19q-47 16 -71 30z" />
    <glyph glyph-name="circumflex" unicode="&#x2c6;" horiz-adv-x="394" 
d="M185 756q-22 -22 -72 -40q-45 -17 -72 -17l-2 3q52 37 68 51q34 29 53.5 62.5t22.5 30.5q1 1 3 1q4 0 11 -13q3 -9 7 -18q27 -46 122 -114l-2 -3q-25 0 -73.5 19.5t-65.5 37.5z" />
    <glyph glyph-name="tilde" unicode="&#x2dc;" horiz-adv-x="366" 
d="M301 709l-4 -1q-29 47 -68 47q-22 0 -58 -21t-59 -21q-38 0 -61 28t-21 66l1 8l3 1q27 -43 67 -43q26 0 61.5 21.5t53.5 21.5q37 0 62 -30.5t23 -68.5v-8z" />
    <glyph glyph-name="macron" unicode="&#xaf;" horiz-adv-x="299" 
d="M10 795h231v-61h-231v61z" />
    <glyph glyph-name="macron" unicode="&#x2c9;" horiz-adv-x="299" 
d="M10 795h231v-61h-231v61z" />
    <glyph glyph-name="cedilla" unicode="&#xb8;" horiz-adv-x="384" 
d="M201 38l-17 -75q24 14 66 3q10 0 26.5 -13t22.5 -27q4 -10 4 -20q0 -24 -24 -35q-66 -57 -141 -63q-10 17 -10 23q0 2 1 3q35 9 62.5 33.5t27.5 44.5q0 6 -4 11q-69 5 -69 -3q0 5 18 121z" />
    <glyph glyph-name="Scaron" unicode="&#x160;" 
 />
    <glyph glyph-name="scaron" unicode="&#x161;" 
 />
    <glyph glyph-name="brokenbar" unicode="&#xa6;" 
 />
    <glyph glyph-name="Eth" unicode="&#xd0;" 
 />
    <glyph glyph-name="eth" unicode="&#xf0;" 
 />
    <glyph glyph-name="Yacute" unicode="&#xdd;" 
 />
    <glyph glyph-name="yacute" unicode="&#xfd;" 
 />
    <glyph glyph-name="Thorn" unicode="&#xde;" 
 />
    <glyph glyph-name="thorn" unicode="&#xfe;" 
 />
    <glyph glyph-name="minus" unicode="&#xad;" 
 />
    <glyph glyph-name="minus" unicode="&#x2212;" 
 />
    <glyph glyph-name="multiply" unicode="&#xd7;" 
 />
    <glyph glyph-name="onesuperior" unicode="&#xb9;" 
 />
    <glyph glyph-name="twosuperior" unicode="&#xb2;" 
 />
    <glyph glyph-name="threesuperior" unicode="&#xb3;" 
 />
    <glyph glyph-name="onehalf" unicode="&#xbd;" 
 />
    <glyph glyph-name="onequarter" unicode="&#xbc;" 
 />
    <glyph glyph-name="threequarters" unicode="&#xbe;" 
 />
    <glyph glyph-name="Lslash" unicode="&#x141;" 
 />
    <glyph glyph-name="lslash" unicode="&#x142;" 
 />
    <glyph glyph-name="HT" 
 />
    <glyph glyph-name="LF" 
 />
    <glyph glyph-name="nonmarkingreturn" 
 />
    <glyph glyph-name="Zcaron" unicode="&#x17d;" 
 />
    <glyph glyph-name="zcaron" unicode="&#x17e;" 
 />
    <glyph glyph-name="DLE" 
 />
    <glyph glyph-name="DC1" 
 />
    <glyph glyph-name="DC2" 
 />
    <glyph glyph-name="DC3" 
 />
    <glyph glyph-name="DC4" 
 />
    <glyph glyph-name="RS" 
 />
    <glyph glyph-name="US" 
 />
    <glyph glyph-name="notequal" unicode="&#x2260;" 
 />
    <glyph glyph-name="infinity" unicode="&#x221e;" 
 />
    <glyph glyph-name="lessequal" unicode="&#x2264;" 
 />
    <glyph glyph-name="greaterequal" unicode="&#x2265;" 
 />
    <glyph glyph-name="partialdiff" unicode="&#x2202;" horiz-adv-x="260" 
d="M6 269l58 46q3 42 3 76q0 156 -34 295q77 -20 134 -264l67 60v-57l-56 -53q35 -173 35 -272l-1 -15q-26 -19 -80 -47q-61 -31 -83 -34l-27 -4l7 24q10 40 20 131l10 99l-53 -49v64z" />
    <glyph glyph-name="summation" unicode="&#x2211;" horiz-adv-x="538" 
d="M535 207q-15 -31 -82 -80q1 -12 11 -43q8 -27 8 -44q0 -12 -4 -33q-5 -25 -6 -33q-42 121 -62 121q-4 0 -55 -25q-59 -29 -63 -30q-39 -17 -106 -31t-108 -14q-49 156 -49 207q65 -18 131 -35q78 -19 133 -19q6 0 81 15q-40 64 -179 200q-32 32 -56 91q-12 31 -16 31
q-29 0 -110 -24l-3 3q19 26 38.5 50t51.5 40q-3 10 -11 33q-4 11 -4 34v23q21 12 43 23t93 19q-2 -11 0 -20q3 -10 3 -19q0 -25 5 -25q7 0 27 10q25 13 28 14q93 33 186 33q8 -39 17 -77q9 -45 9 -77q-9 0 -27 2.5t-27 2.5q-5 0 -8 -3v-187l-27 2v188h-39q-61 0 -109 -16
q15 -47 53 -106q33 -50 66 -99q17 -28 69 -135q52 12 98 33zM242 789q22 23 72 41q45 17 72 17l2 -3q-52 -37 -68 -51q-34 -29 -53.5 -62.5t-22.5 -30.5q-1 -2 -3 -2t-6.5 12.5t-11.5 19.5l-58 60q-33 32 -64 54l2 3q25 0 73.5 -19.5t65.5 -38.5z" />
    <glyph glyph-name="product" unicode="&#x220f;" horiz-adv-x="431" 
d="M400 89q0 -24 -119 -126q-6 30 -24 88q-109 -70 -199 -76q-21 31 -37 86q-22 75 -28 89q26 -4 97 -26q59 -18 101 -18q30 0 49 15q-36 101 -147 223q-25 -3 -76 -8q34 33 47 38q-13 6 -38 26h26q7 0 32 -13q65 47 134 69q60 19 149 26q0 -71 -27 -152q-112 25 -148 25
q-21 0 -40 -5q40 -17 142 -119q106 -107 106 -142zM202 589q22 23 72 41q45 17 72 17l2 -3q-52 -37 -68 -51q-34 -29 -53.5 -62.5t-22.5 -30.5q-1 -2 -3 -2q-4 0 -11 14q-3 9 -7 18q-27 46 -122 114l2 3q25 0 73.5 -19.5t65.5 -38.5z" />
    <glyph glyph-name="pi" unicode="&#x3c0;" horiz-adv-x="513" 
d="M463 523q0 -135 -63 -301q-61 -160 -149 -269q-92 42 -151 119q16 9 36 31.5t34 32.5q26 43 101 168q-88 64 -161 150q-83 97 -114 186q4 19 78 31q57 9 93 9l25 -1q0 -126 12 -188q19 -102 81 -166q6 2 11 11q54 91 86 200q35 120 30 215q51 -97 51 -228zM356 782
q-7 42 -27 77q-5 9 -15 19q0 -2 -4 -5q-18 -19 -42.5 -45.5t-48.5 -54.5q-30 -31 -55 -49l2 -3q29 0 86 17t81 31z" />
    <glyph glyph-name="integral" unicode="&#x222b;" horiz-adv-x="406" 
d="M172 -200q-78 39 -103 81l110 144q-182 199 -179 359v11l56 26q34 16 94 16q-7 -29 -7 -139q0 -129 59 -221l84 182q47 105 58 194l7 -5q9 -40 9 -66q0 -138 -52 -306q-55 -180 -136 -276zM287 539q-6 41 -27 76q-5 10 -14 19q0 -2 -5 -4q-17 -19 -41.5 -46t-49.5 -54
q-30 -31 -54 -49l1 -3q29 0 86 17t81 30z" />
    <glyph glyph-name="Omega" unicode="&#x3a9;" horiz-adv-x="541" 
d="M-1 410h54q14 125 122 198q94 63 233 72q15 -24 78 -151q-47 14 -99 14q-76 0 -156 -33q-93 -38 -125 -100h236v-46h-250q-1 -7 -1 -14q0 -21 3 -40h248v-46h-232q38 -76 140 -106q64 -19 167 -20q82 -1 82 -8q0 -9 -38 -70q-34 -56 -47 -74q-134 13 -227 86.5
t-123 191.5h-65v46h56q-3 26 -4 54h-52v46z" />
    <glyph glyph-name="Omega" unicode="&#x2126;" horiz-adv-x="541" 
d="M-1 410h54q14 125 122 198q94 63 233 72q15 -24 78 -151q-47 14 -99 14q-76 0 -156 -33q-93 -38 -125 -100h236v-46h-250q-1 -7 -1 -14q0 -21 3 -40h248v-46h-232q38 -76 140 -106q64 -19 167 -20q82 -1 82 -8q0 -9 -38 -70q-34 -56 -47 -74q-134 13 -227 86.5
t-123 191.5h-65v46h56q-3 26 -4 54h-52v46z" />
    <glyph glyph-name="radical" unicode="&#x221a;" 
 />
    <glyph glyph-name="approxequal" unicode="&#x2248;" 
 />
    <glyph glyph-name="approxequal" unicode="&#x22f2;" 
 />
    <glyph glyph-name="Delta" unicode="&#x394;" 
 />
    <glyph glyph-name="Delta" unicode="&#x2206;" 
 />
    <glyph glyph-name="lozenge" unicode="&#x25ca;" horiz-adv-x="21" 
 />
    <glyph glyph-name="fraction" unicode="&#x2044;" 
 />
    <glyph glyph-name="fi" unicode="&#xf001;" 
 />
    <glyph glyph-name="fl" unicode="&#xf002;" 
 />
    <glyph glyph-name="apple" unicode="&#xf000;" horiz-adv-x="16" 
 />
    <glyph glyph-name="dotlessi" unicode="&#x131;" horiz-adv-x="274" 
d="M223 36q-77 -30 -158 -30q-22 0 -48 6q4 3 4 12q0 4 21 61q24 62 26 68q29 95 39 135q19 74 26 138h7q34 -31 61 -159q24 -110 23 -177zM7008 -24z" />
    <glyph glyph-name="breve" unicode="&#x2d8;" horiz-adv-x="336" 
d="M270 792q0 -39 -42 -64q-38 -22 -89 -22q-50 0 -88 22q-43 25 -43 64h40q0 -28 91 -28t91 28h40z" />
    <glyph glyph-name="dotaccent" unicode="&#x2d9;" horiz-adv-x="207" 
d="M33 761q0 20 14.5 34t34.5 14t34.5 -14t14.5 -34t-14.5 -34t-34.5 -14t-34.5 14t-14.5 34z" />
    <glyph glyph-name="ring" unicode="&#x2da;" horiz-adv-x="414" 
d="M76 750q0 25 23 42.5t56 17.5t56 -17.5t23 -42.5t-23 -42.5t-56 -17.5t-56 17.5t-23 42.5zM121 748q0 15 10 25t25 10q14 0 24.5 -10t10.5 -25q0 -29 -38 -29q-32 0 -32 29z" />
    <glyph glyph-name="hungarumlaut" unicode="&#x2dd;" horiz-adv-x="256" 
d="M101 806l-61 -101q43 -5 43 -2t70 103h-52zM201 806l-61 -101q43 -5 43 -2t70 103h-52z" />
    <glyph glyph-name="ogonek" unicode="&#x2db;" horiz-adv-x="233" 
d="M187 -152q-29 -40 -74 -40q-40 0 -67.5 32.5t-27.5 76.5t27.5 77t67.5 33v-40q-39 0 -39 -73q0 -30 14 -48t35 -18q38 0 46 11z" />
    <glyph glyph-name="caron" unicode="&#x2c7;" horiz-adv-x="394" 
d="M181 790q22 22 72 41q45 17 72 17l2 -3q-52 -38 -68 -51q-34 -30 -53.5 -63t-22.5 -31q-1 -1 -3 -1q-4 0 -10 13l-8 18q-27 47 -122 115l2 3q25 0 73.5 -19.5t65.5 -38.5z" />
    </font>
</defs>
</svg>
