<?xml version="1.0" standalone="no"?>
<!DOCTYPE svg PUBLIC "-//W3C//DTD SVG 1.1//EN" "http://www.w3.org/Graphics/SVG/1.1/DTD/svg11.dtd" >
<svg>
<metadata>
Created by FontForge 20120731 at Thu Apr 18 03:52:48 2019
 By www-data
Digitized by Dan X. Solo. Software (c) 1999 by Dover Publications, Inc., New York.  ..
</metadata>
<defs>
<font id="ColonialDame" horiz-adv-x="311" >
  <font-face 
    font-family="Colonial Dame"
    font-weight="400"
    font-stretch="normal"
    units-per-em="1000"
    panose-1="0 0 4 0 0 0 0 0 0 0"
    ascent="800"
    descent="-200"
    x-height="350"
    cap-height="660"
    bbox="-59 -214 1485 830"
    underline-thickness="20"
    underline-position="-123"
    unicode-range="U+0020-F002"
  />
<missing-glyph horiz-adv-x="500" 
d="M63 0v800h375v-800h-375zM125 63h250v675h-250v-675z" />
    <glyph glyph-name=".notdef" horiz-adv-x="500" 
d="M63 0v800h375v-800h-375zM125 63h250v675h-250v-675z" />
    <glyph glyph-name=".null" horiz-adv-x="0" 
 />
    <glyph glyph-name="nonmarkingreturn" horiz-adv-x="224" 
 />
    <glyph glyph-name="space" unicode=" " horiz-adv-x="224" 
 />
    <glyph glyph-name="exclam" unicode="!" horiz-adv-x="221" 
d="M173 593q0 -47 -16 -138.5t-16 -137.5q0 -6 -13 -167l-20 2q-7 22 -15 38q0 -2 0 42q0 4 3 12t3 9q0 8 -4 22.5t-4 21.5q0 6 2.5 16.5t2.5 16.5q-8 13 -8 43.5t-16.5 102t-16.5 102.5q0 81 61 81q1 0 39 -16q2 -4 10 -26t8 -24zM177 43q0 -20 -18 -35.5t-38 -15.5
q-56 0 -56 50q0 64 72 64q15 0 27.5 -23t12.5 -40z" />
    <glyph glyph-name="quotedbl" unicode="&#x22;" horiz-adv-x="370" 
d="M314 588q0 -26 -23 -69q-20 -36 -42 -60q-11 -6 -24 -6t-13 9q0 1 22 28.5t22 54.5q0 7 -33.5 18t-33.5 40q0 21 18 40.5t38 19.5q69 0 69 -75zM154 588q0 -26 -23 -69q-20 -36 -42 -60q-23 -11 -27 -11q-10 0 -10 14q0 1 22 28.5t22 54.5q0 7 -33.5 18t-33.5 40
q0 21 18 40.5t38 19.5q69 0 69 -75z" />
    <glyph glyph-name="numbersign" unicode="#" horiz-adv-x="523" 
d="M325 395q-34 -15 -45 -15q-15 0 -36 13l-36 -4q5 -14 3 -33q-2 -26 -2 -34q-11 -7 -13 -18q-3 -17 -7 -24q34 4 44 4q19 0 27 -7q30 21 51 21q22 39 22 60q0 7 -4 19t-4 18zM125 392q-29 -8 -36 -8q-9 -1 -36 7l16 42q10 0 29.5 5t28.5 5q29 0 48 -7h2q40 60 75 221h50
q-7 -46 -16 -84q-21 -91 -46 -130l19 -1q34 -2 81 6q-2 35 41 116t41 93h50q0 -41 -24 -82t-25 -47q-5 -42 -31 -83q20 -4 59 -1q55 3 59 3l-20 -51q-15 3 -52 1q-41 -2 -56 0q-5 -9 -1 -78q-12 -4 -18 -32q23 -4 58 -2q60 2 59 2l-21 -53l-4 3q-73 -3 -110 1q-1 -7 -3 -49
q-1 -33 -8 -43h2q-11 -46 -14 -51q-5 -11 -33 -41v0q-12 -45 -10 -67l-44 4q-10 0 -7 10q1 7 1 11q0 46 21 69q26 29 29 38q5 18 7 59q2 38 7 58q-21 -8 -59 -8l-61 -1q-1 -6 -1 -47q0 -10 -6 -34q-6 -41 -11 -50t-36 -42v0q-12 -45 -10 -67l-37 -2q-13 -1 -13 27
q0 39 32 94.5t32 78.5q0 48 -1 46l-22 10q-40 -11 -68 -10h-9l18 49q9 1 31 7q19 5 31 5l31 -11q11 18 31 56q-2 27 -8 52z" />
    <glyph glyph-name="dollar" unicode="$" horiz-adv-x="441" 
d="M411 493q-19 1 -59 61t-68 60q-15 0 -30 -11q-4 -3 -5 -44.5t-10 -50.5l6 -120q54 -25 60 -29q39 -24 51 -57q7 -3 15 -5q16 -7 17 -18q1 -5 1 -28q40 -14 40 -74q0 -53 -29 -97q-31 -48 -74 -45q-10 -23 -42 -31q-40 -8 -43 -11q-1 -5 0 -73q1 -43 -27 -43q-9 0 -22 3
q0 14 2 40q2 23 2 34q0 33 -18 49q-3 -8 -24 -8q-12 0 -40 3.5t-37 3.5q-4 -25 -28 -25q-7 0 -14 3q0 35 -3 57q-3 15 0 26q13 6 13 20q0 22 -22 26q-3 5 -3 33q0 15 -5 25q9 4 15 4q17 0 28 -31q15 -39 17 -41q17 -17 50 -49q8 7 18 7q8 0 22 -7t20 -7q8 0 15 7
q-3 47 -1 69q2 35 2 60q0 41 -3 115q0 6 -19 16q-14 8 -28 15q-6 3 -12.5 17t-13.5 17q-29 -5 -48 22q-7 10 -23 52q-11 29 -23 29q-4 14 -4 31q0 51 29 93q33 46 79 43q38 22 57 27q7 2 8.5 7.5t1.5 16.5v12q-1 8 -1 13q0 34 18 34q9 0 24 -9q-3 -21 3 -64q0 -1 34 -8
t44 -18q10 8 30 18q13 6 15 15q15 -1 16 -23v-34q0 -7 2 -13q-5 -1 -14 -6q19 -13 27 -47q5 -29 11 -57zM214 553q-13 6 -14.5 21t-2.5 29q-35 -2 -52 -14q-8 -6 -21 -26.5t-29 -31.5q11 -15 23.5 -46t23.5 -44q18 -20 54 -28q5 4 5 21q0 6 -1 23.5t-1 27.5q0 44 15 68z
M256 260q-11 -101 -8 -212q44 9 68 39t24 67q0 36 -22 65.5t-62 40.5z" />
    <glyph glyph-name="percent" unicode="%" horiz-adv-x="695" 
d="M640 191q0 -103 -33 -153q-40 -60 -138 -60q-57 0 -77 15q-23 17 -45.5 59t-22.5 71q0 32 17 88q19 63 39 76q13 8 34 29q11 2 37 17q21 13 46 13q61 0 102 -46.5t41 -108.5zM455 287q-40 -59 -49 -76q-22 -43 -22 -89l1 -8q9 -9 29 -52q8 -6 21 -21q11 -1 34 -5.5
t36 -4.5q75 0 75 160q0 32 -12 49q-7 10 -28.5 24t-33.5 28h-14q-3 3 -2 3zM258 506v14q1 36 -7 61l-34 32l-13 -2q-18 -18 -18 -49q0 -58 64 -56h8zM252 456q-54 -1 -85 29t-31 84q0 25 6 43q-33 -11 -55 -51.5t-22 -77.5q0 -10 2 -18l11 -53l34 -42q22 -24 46 -24
q2 0 18 7t27 7q17 0 33 40q11 28 16 56zM316 469l-3 -2q-12 -81 -42 -121q-38 -50 -113 -50q-145 0 -145 227q0 57 51 100q49 40 107 40v-15q22 15 66 15l68 -54q12 -38 13 -89l53 21q7 16 82 67.5t92 51.5q2 0 2 -10q0 -75 -38 -131l-82 -106l-29 -41q-20 -55 -99 -111
q-15 -47 -51 -102l-24 -14v15q-18 -24 -49 -73l-1 1q-3 -14 -37 -58q-36 -48 -42 -64l-47 17q16 44 79 129q70 96 100 98q6 29 119 166q117 143 133 188l-14 11q-6 -21 -66.5 -64.5t-82.5 -41.5z" />
    <glyph glyph-name="ampersand" unicode="&#x26;" horiz-adv-x="780" 
d="M748 526q-2 -29 -14 -68q-20 -61 -21 -67l-23 4q-2 0 -37 -3q-21 -3 -38 3l-27 -11l1 -35q-8 -59 -15 -122l-10 -21l-10 -16l8 -7q-4 -12 -9 -23.5t-16 -22.5v-5q50 -26 66 -49q64 -19 82 -19l26 -28l-29 -18l-14 2q-15 0 -34 -12l-29 15l-14 -2q-1 -34 -7 -34l-34 3
q-1 14 -30.5 43t-43.5 29q-6 0 -68 -29t-115 -29q-10 0 -28.5 -5t-28.5 -5q-33 0 -94 31q-65 35 -62 60h-12q-59 59 -59 127l15 36l-11 9q1 17 12 52q13 40 24 41l5 -2l16 5v14l2 9l59 39q-26 22 -26 69q0 15 3 29l-14 14q32 122 84 122q17 0 34 12l36 -15q14 17 39 17
q8 0 26.5 -3t28.5 -2l8 -7l7 -25l-3 -15l-7 -7l16 -44l-4 -28l-20 15q-8 22 -32.5 39t-47.5 17q-93 0 -93 -79q0 -15 15 -32t15 -34q0 -8 -2 -17q1 -2 48 -51.5t61 -74.5q18 0 79 -55q56 -50 72 -74q10 -2 34 -21q-1 9 21 42q20 30 30 40l-10 30l8 20l-20 70q-11 19 -58 39
q-54 -12 -54 -34q0 -4 2 -7l-13 -3l-13 7q2 7 -1.5 18.5t-3.5 16.5q0 32 23 56t55 24q12 0 34 -9t34 -9q4 0 12.5 5t13.5 5q17 0 48 -6q37 -7 39 -15l19 16q33 0 53.5 18t40.5 37zM432 109q-23 16 -59 56q-15 2 -20.5 10.5t-11 17.5t-32.5 24q-32 17 -45 30q-24 23 -28 55
q-12 4 -35 15q-14 16 -46 45q-27 -10 -44 -35q-25 -38 -34 -47l13.5 -13.5t6.5 -18.5q0 -26 13 -58q13 -27 25 -54q18 -5 36 -21q21 -19 36 -26q29 -13 81 -13q11 0 32 -6t31 -6q4 12 21 12q4 0 12 -3t11 -3q13 13 37 39z" />
    <glyph glyph-name="quotesingle" unicode="'" horiz-adv-x="192" 
d="M133 591q0 -26 -23 -68q-20 -37 -41 -61q-15 -7 -20 -7q-18 0 -18 11q0 1 22 28t22 55q0 7 -33 17.5t-33 40.5q0 20 17.5 40t38.5 20q30 0 41.5 -11t18.5 -40q8 -33 8 -25z" />
    <glyph glyph-name="parenleft" unicode="(" horiz-adv-x="175" 
d="M154 669q-45 -52 -52 -135q-10 -103 -25 -136q13 -43 13 -61q0 -86 -11 -114l17 -36l-8 -29q19 -38 32 -112q18 -100 23 -116l-11 -3q-32 0 -83 183q5 8 3 23q-11 3 -19 56q-5 33 -9 67l9 19q-13 11 -13 29q0 113 25 192q17 53 80 177q12 6 20 12v0v0l3 2v-6q1 -6 6 -12z
" />
    <glyph glyph-name="parenright" unicode=")" horiz-adv-x="167" 
d="M31 -73l-5 3q17 33 35 100l14 60q-2 8 -2 31l8 30q-3 6 4 55q8 56 8 64q0 28 -8 64q-11 50 -13 64q9 28 1 58q-7 4 -28 106q-22 112 -28 125q9 8 11 8q1 0 15 -9q3 -21 45 -96q6 -29 43 -122q28 -74 28 -131q0 -89 -32 -228q-41 -174 -96 -182z" />
    <glyph glyph-name="asterisk" unicode="*" horiz-adv-x="275" 
d="M226 573q0 -9 -12 -19q-51 -8 -78 -20l-3 10q11 23 22 47q16 30 37 30q34 0 34 -48zM150 631q0 -28 -23 -61q1 -7 -7 -23q-5 -1 -12 1q-1 2 -12.5 39.5t-11.5 40.5q0 34 28 34q38 0 38 -31zM221 487q0 -22 -2 -25t-22 -13q-1 -1 -7 -1q-20 0 -33 29q-9 23 -17 46
q6 0 19 2t21 2q41 0 41 -40zM100 546q-3 0 -5 -2.5t-4 -2.5q-7 0 -25 -3t-25 -3q-15 0 -29.5 15.5t-14.5 29.5q0 35 44 35q11 0 30 -23q17 -19 23 -33zM156 441q0 -4 -19 -25q-24 -3 -21 -3q-28 0 -28 30q0 6 10 37q11 37 12 41h14q6 -4 6 -23q0 -2 13 -23.5t13 -33.5z
M102 526q-6 -9 -7 -14q-17 -9 -22 -44q-4 -30 -29 -30q-16 0 -25 19q-9 15 -9 32q0 12 18 18q14 4 28 7q4 1 18.5 10t16.5 9q5 0 11 -7z" />
    <glyph glyph-name="plus" unicode="+" horiz-adv-x="425" 
d="M25 381h155v154h54l-1 -154h156v-55h-155v-154h-54v154h-155v55z" />
    <glyph glyph-name="comma" unicode="," horiz-adv-x="213" 
d="M154 48q0 -26 -23 -69q-20 -36 -42 -60q-14 -7 -19 -7q-18 0 -18 10q0 1 22 28.5t22 54.5q0 7 -33.5 18t-33.5 40q0 21 18 40.5t38 19.5q30 0 42 -10.5t19 -39.5q8 -33 8 -25z" />
    <glyph glyph-name="hyphen" unicode="-" horiz-adv-x="232" 
d="M228 238q0 -20 -39 -33q-32 -10 -58 -10q-2 0 -2 1t-2 1q-12 -17 -36 -29t-44 -12q-7 0 -7 8q0 6 3 18t3 18q-8 10 -8 15t3 11q18 10 37 10q3 0 12.5 8t12.5 9q22 5 63 18q3 1 25 11.5t24 10.5q5 0 7 -2q0 -4 -1.5 -11t-1.5 -10q0 -2 4.5 -12.5t4.5 -19.5z" />
    <glyph glyph-name="hyphen" unicode="&#x2010;" horiz-adv-x="232" 
d="M228 238q0 -20 -39 -33q-32 -10 -58 -10q-2 0 -2 1t-2 1q-12 -17 -36 -29t-44 -12q-7 0 -7 8q0 6 3 18t3 18q-8 10 -8 15t3 11q18 10 37 10q3 0 12.5 8t12.5 9q22 5 63 18q3 1 25 11.5t24 10.5q5 0 7 -2q0 -4 -1.5 -11t-1.5 -10q0 -2 4.5 -12.5t4.5 -19.5z" />
    <glyph glyph-name="period" unicode="." horiz-adv-x="198" 
d="M143 50q0 -21 -18 -35q-2 -1 -23 -9.5t-23 -8.5q-16 0 -47 17q-1 6 -9.5 23l-8.5 17q0 12 12.5 33t25 23.5t31.5 2.5q25 0 42.5 -18.5t17.5 -44.5z" />
    <glyph glyph-name="slash" unicode="/" horiz-adv-x="403" 
d="M362 684q0 -41 -109 -247q-110 -210 -115 -264l-17 -12v-6q1 -20 -41 -109.5t-51 -89.5q-3 0 -7 2t-7 2l-16 23q15 44 27 67l15 7q10 36 20 73q14 48 35 58l9 23q67 143 69 147l-2 9l82 149l-6 19q0 33 76 177q12 -5 25 -10t13 -18z" />
    <glyph glyph-name="zero" unicode="0" horiz-adv-x="494" 
d="M413 194q0 -1 7 -20t7 -28q0 -38 -29 -77q-27 -33 -54 -65q-16 -1 -49.5 -9t-52.5 -8q-70 0 -114 63q-40 58 -34 129l-23 6q-18 86 -18 144q0 72 24 121l-13 17q22 63 27 75q17 42 39 68h24q34 48 106 48q85 0 139 -122q44 -100 42 -196l-3 -90q0 -15 -12.5 -31.5
t-12.5 -24.5zM368 402q-8 11 -16.5 24t-8.5 24q0 12 7 33q-20 42 -39 84q-27 49 -71 49q-69 0 -90 -80q-9 -37 -9 -136q0 -8 -10 -17.5t-10 -16.5q0 -27 18 -76.5t18 -76.5q0 -12 -9 -27l46 -96q36 -65 70 -65q104 0 104 231v146z" />
    <glyph glyph-name="one" unicode="1" horiz-adv-x="409" 
d="M325 -3q-27 0 -127 2q-78 2 -126 0q2 23 19.5 27t34.5 7q21 8 27 40t4 82q-3 91 -3 83q0 37 11 48q-1 6 -9 53q-6 33 -6 54q0 42 21 67q-2 16 -11 38q-8 19 -8 35q0 13 4 30q-8 16 -14 18h-25q-10 0 -23.5 3t-24.5 3v4q-1 9 21 17q29 12 30 12q36 26 43 26q5 0 13.5 -5
t12.5 -5q7 0 40.5 18.5t46.5 20.5q-24 -36 -30 -87q-2 -19 -2 -94q0 -48 -16 -65q20 -32 20 -80q0 -25 -6.5 -75t-6.5 -75q0 -23 4.5 -67t4.5 -68q7 -10 50 -25q33 -11 31 -37v-5z" />
    <glyph glyph-name="two" unicode="2" horiz-adv-x="494" 
d="M420 -5q-21 -3 -32 -3q-33 0 -61 25q-17 -26 -58 -26q-48 0 -95 31q-26 -24 -80 -24q-24 0 -52 13q2 3 36 46q20 25 20 50q24 3 54.5 59t58.5 58q9 26 35 66q30 45 39 64q5 11 14 47q7 30 18 46q0 10 2 30.5t2 31.5q0 68 -37 99q-55 0 -73 25q-54 -40 -54 -82
q0 -31 33 -47q-9 -27 -44 -27q-61 0 -61 81q0 50 54 83q47 28 101 28q68 0 119 -42q55 -45 55 -112t-47 -112q-14 -61 -18 -67.5t-56 -46.5q-2 -19 -57.5 -100.5t-71.5 -93.5q10 0 35 -6q22 -5 34 -5q5 0 18 11h42q90 -1 123 61q36 0 36 -23q0 -26 -38 -60q5 -8 6 -20
q1 -8 0 -21q-2 -16 -2 -20z" />
    <glyph glyph-name="three" unicode="3" horiz-adv-x="494" 
d="M443 292q4 -20 4 -45q0 -56 -21 -112q-23 -60 -62 -91q-80 -65 -167 -65h-48q-70 0 -100 58q-2 5 -2 11q0 20 26 38t52 18q27 0 27 -13q0 -2 -5 -10.5t-4 -14.5q-2 0 -11 -4q8 -14 22 -41q94 -2 158 58q6 6 11.5 20t18.5 21q2 16 2 41q0 105 -31 136q-9 -5 -17 -4
q-7 23 -42 30l-45 9q-4 13 50.5 62t50.5 81q14 20 14 58q0 42 -27 43q-27 32 -74 32q-72 0 -78 -76q-27 -1 -27 18q0 11 12 36t12 31q33 10 53 35q53 3 62 3q93 0 131 -56q23 -26 23 -59q0 -32 -27 -84q-37 -73 -41 -83q-2 -5 20 -9q28 -5 37.5 -20t26.5 -29q13 -10 16 -23z
" />
    <glyph glyph-name="four" unicode="4" horiz-adv-x="494" 
d="M445 276q18 -19 18 -33q0 -11 -11 -22q-15 -14 -16 -17q3 -14 3 -16q-5 -7 -30 -8.5t-30 -4.5q-10 -8 -10 -22q0 -9 4 -25l5 -20q-8 -7 -30 -18q3 -6 12 -16q1 -4 -9 -8q27 -16 34.5 -31l14.5 -29q-60 -18 -88 -18q-9 0 -13 2q-21 -9 -60 -24q-2 10 -2 30q13 2 28.5 21.5
t15.5 27.5v81q0 3 11 22q-9 11 -9 18v4q1 2 1 3q0 4 -13 9q-34 -11 -64 -11q-41 0 -66 22q-29 -10 -98 -22q-3 7 -12 17q32 45 68 100q11 6 27 22q1 11 7 30q54 84 81 112q11 -1 13 13q0 1 1 24q12 3 48 69q40 76 67 101q27 0 27 -47q0 -26 -8.5 -52.5t-19.5 -31.5
q32 -28 32 -131q0 -30 -4 -55q-8 -57 -8 -71q0 -38 24 -38q11 0 28 8q10 12 31 35zM306 331q-17 18 -17 58q0 9 1 27t1 27q0 19 -3 32l-156 -225q29 -5 64 -14q26 -7 45 -7q20 0 52 5q-3 8 -3 20q0 36 16 77z" />
    <glyph glyph-name="five" unicode="5" horiz-adv-x="494" 
d="M432 186q3 -29 -27.5 -86.5t-42.5 -62.5q-7 -24 -41 -48q-29 -20 -55 -27q-8 -2 -31 1q-26 4 -36 2q-23 -4 -41 -4q-68 0 -98 52q-3 4 -3 11q0 21 20.5 44.5t41.5 23.5q15 0 26 -12q-8 -16 -8 -28q0 -42 74 -42q24 0 38 5q42 15 78 83q32 60 34 105q5 111 -193 138
q-2 0 -40 -23q-7 3 -25 9l8 30q7 21 18 28q-11 44 -11 63q0 1 6.5 59.5t7.5 154.5q36 -4 72 -7q44 -6 77 -26q9 7 26 20q15 -13 39 -13q48 0 63 32q12 -2 22 -23q-45 -69 -42 -95q-4 -1 -25.5 -4.5t-33.5 -3.5q-29 0 -43 15q-37 1 -109 -3q-5 -9 -9 -18q-7 -15 -7 -24
q0 -8 6.5 -30t6.5 -36q0 -6 -2.5 -23.5t-2.5 -35.5q11 -10 19 -10q5 0 14.5 9.5t19 10.5t20.5 1q88 0 135 -48q7 -7 25 -51.5t15 -46.5q15 -5 18 -34q-1 0 -4 -31l2 -2q-1 0 -2 1z" />
    <glyph glyph-name="six" unicode="6" horiz-adv-x="494" 
d="M271 -10q-52 0 -87 29q-47 38 -66 45q-67 124 -67 235q0 74 30 140q-2 4 -2 10q0 11 13 35q10 17 21 34q34 63 52 78.5t82 37.5q27 13 53 26q18 8 87 8q23 0 42 -7q-4 -10 -72 -27q-81 -20 -121 -46q-66 -41 -72 -112l-8 -29q-1 -16 -8 -26.5t-7 -20.5l2 -57
q53 62 129 62q84 0 118 -82q53 -37 53 -130q0 -87 -41 -142q-46 -61 -131 -61zM369 133q0 17 -4 64q-5 52 -8 60q-10 24 -40 50q-37 32 -46 44h-18q-85 1 -101 -62l-10 -108q16 -16 35 -55q20 -44 33 -58q22 -27 59 -27q35 0 67.5 29t32.5 63z" />
    <glyph glyph-name="seven" unicode="7" horiz-adv-x="494" 
d="M434 631q-21 -6 -72 -114l-62 -136l-18 -10q-2 -30 -36 -119q-32 -84 -32 -131q0 -33 18 -52q11 -11 34 -19q18 -6 18 -10q0 -18 -43 -41q-39 -20 -60 -20q-19 0 -34 28q-13 25 -13 46q0 65 52 220q3 9 22 33q17 20 17 35q0 5 -2 10q28 50 110 208h-8q-78 -2 -100 21
q-17 -17 -66 -17q-35 0 -56 -31q-30 -45 -37 -49q-6 8 -6 24q0 29 15 76q13 38 25 75q53 -15 118 -15q32 0 96 6.5t97 5.5h9z" />
    <glyph glyph-name="eight" unicode="8" horiz-adv-x="494" 
d="M441 515q-20 -7 -20 -24q0 -4 2 -15t1 -17v-8q-23 -21 -47 -43q-32 -26 -53 -28q5 -14 11 -43q54 -13 82 -68q24 -46 24 -108q0 -30 -6 -55l-23 -6q3 -8 3 -13q0 -36 -55 -66q-49 -26 -89 -26q-74 0 -130 36q-63 41 -72 110l-14 13q-3 13 -3 29q0 59 29 108q32 54 87 66
q-2 9 -23 32q-25 27 -36 47q-19 34 -19 74q0 51 25 89q28 43 77 43q29 19 69 19q65 0 117 -41q56 -43 63 -105zM371 515q0 36 -35 74.5t-71 38.5q-35 0 -70.5 -32t-35.5 -67q0 -24 18 -43q20 -5 31 -30q19 -40 20 -42l7 1q7 1 20 -2t19 -3q26 0 54 28.5t22 54.5q21 10 21 22
zM374 103q-7 13 -16 21q10 8 10 26q0 37 -19 65q-8 12 -36 38q-20 19 -21 33q-5 -2 -11 -2q-34 0 -78 43q-3 -15 -22 -26q-24 -13 -27.5 -17.5t-11.5 -34.5q-6 -24 -18 -27q5 -65 38 -116q39 -62 98 -62q14 0 27 3q17 17 87 56z" />
    <glyph glyph-name="nine" unicode="9" horiz-adv-x="494" 
d="M453 413q0 -100 -64 -245q-74 -169 -159 -169q-18 0 -36 9q-18 -20 -71 -20q-66 0 -66 46l1 7q34 -9 81 -9q32 0 61 5q67 61 91 89q60 67 59 107l-1 53q-8 1 -21 -9t-20 -10q-8 0 -16 6q-22 -33 -62 -33q-79 0 -136 79q-53 72 -53 152q0 54 36 121q42 75 91 75
q89 0 160 -33q89 -43 89 -121q0 -19 -5 -39q41 -50 41 -61zM335 327q13 24 13 65q0 20 -11 83q-11 57 -8 73q-8 4 -56 47q-37 31 -60 31q-39 0 -62 -46q-19 -38 -19 -80q0 -15 -19 -26q26 -75 27 -80q15 -37 37 -62q2 1 9.5 -8.5t10.5 -9.5q11 0 32.5 -4.5t33.5 -4.5
q11 0 42 12q28 12 30 10z" />
    <glyph glyph-name="colon" unicode=":" horiz-adv-x="195" 
d="M146 305q0 -14 -30 -24q-24 -8 -35 -8q-18 0 -24 3q-10 4 -22.5 17t-12.5 19q0 14 5 37q4 13 26.5 24.5t37.5 11.5q5 0 20 -8.5t19 -15.5q16 -25 16 -56zM143 50q0 -20 -18 -35q-33 -17 -61 -17q-17 0 -26 8q-2 10 -13 29l-11 19q0 11 12.5 33t23.5 23q18 3 33 3
q27 0 45 -21q15 -19 15 -42z" />
    <glyph glyph-name="semicolon" unicode=";" horiz-adv-x="224" 
d="M167 330q0 -4 -3.5 -14.5t-4.5 -15.5q-17 -25 -52 -25q-49 0 -49 62q0 14 20 29.5t35 15.5q16 0 35 -17.5t19 -34.5zM185 70q0 -19 -11.5 -55t-22.5 -53v-3q1 -15 -37 -48.5t-56 -33.5q-12 0 -24 13v7q79 42 79 103q0 5 -11 18l-9 -1q-44 -3 -44 48q0 23 23.5 40.5
t46.5 17.5q6 0 8 -2q14 -1 36 -19.5t22 -31.5z" />
    <glyph glyph-name="less" unicode="&#x3c;" horiz-adv-x="451" 
d="M398 508l-291 -200l312 -231l-30 -51l-374 281l376 256l28 -41z" />
    <glyph glyph-name="equal" unicode="=" horiz-adv-x="342" 
d="M295 305q-3 -2 -287 -4v42l63 1l229 2q-1 -19 -5 -41zM12 207q-3 4 -5 19q-2 19 6 19l285 3l2 -45q-208 0 -208 -3q-38 2 -80 7z" />
    <glyph glyph-name="greater" unicode="&#x3e;" horiz-adv-x="467" 
d="M357 305l-318 -239l30 -40l374 281l-376 256l-28 -42z" />
    <glyph glyph-name="question" unicode="?" horiz-adv-x="326" 
d="M211 53q0 -12 -19.5 -32.5t-33.5 -20.5q-26 0 -42 12q-1 1 -10 26t-9 28q0 15 9.5 25.5t19.5 19.5q7 -1 20.5 3t19.5 4q17 0 31 -23t14 -42zM314 523q-11 -37 -23 -75q-15 -44 -45 -62q-12 -7 -33 -24l1 -7q0 -13 -14 -29q-19 -21 -25 -37q-13 -30 -9 -77l-11 -12
q-17 0 -27 27q-6 20 -6 42q0 39 37 91q50 69 56 83l9 3l5 15q-10 44 -20 87q-16 64 -44 64q-58 0 -58 -42q0 -14 9 -19q3 -2 22 -5v-17l-37 -20q-56 0 -56 64q0 24 19 39q24 20 29 29q37 23 51 23q12 0 37 -6l14 -18q4 0 10 4.5t10 4.5q36 0 54 -22q11 -14 22 -49
q12 -39 23 -55z" />
    <glyph glyph-name="at" unicode="@" horiz-adv-x="765" 
d="M637 168h61q-39 -90 -124 -146t-183 -56q-152 0 -251 110q-97 106 -97 259q0 156 94 266q98 115 252 115q129 0 222.5 -86.5t93.5 -214.5q0 -99 -63 -189q-70 -99 -165 -99q-76 0 -68 85q-54 -79 -108 -79q-58 0 -93 47q-32 42 -32 102q0 85 57 160q62 81 144 81
q60 0 78 -65l16 56h88l-44 -164q-34 -127 -34 -155q0 -24 27 -24q58 0 105 92q40 80 40 145q0 107 -76 182.5t-182 75.5q-134 0 -217 -97q-79 -92 -79 -228q0 -137 81 -228q84 -96 219 -96q152 0 238 151zM390 482q-51 0 -90 -93q-34 -78 -34 -138q0 -78 48 -78q51 0 90 97
q32 80 32 141q0 71 -46 71z" />
    <glyph glyph-name="A" unicode="A" horiz-adv-x="695" 
d="M662 7l-59 -13l-40 17q-12 -11 -25 -11q-7 0 -21 4t-23 4l-23 -8l-20 14q17 15 51 40l1 10q0 24 -22 54q1 24 15 37q-2 11 -96 11q-96 0 -170 -4q-12 -1 -47 8q-3 -5 -19.5 -54.5t-16.5 -53.5q0 -28 17.5 -36t36.5 -16l-12 -16q-50 2 -53 2q-39 3 -45 10q-11 -9 -25 -9
q-55 0 -62 11q24 20 48 39q48 41 62 73q1 17 9 50q17 44 65 151q56 125 67 136l-3 20q7 9 37 106q27 86 47 86q24 0 60 -99q17 -51 33 -102l1 -34q31 -46 78 -149q55 -119 49 -145q31 -46 64 -104q14 -3 39 -15zM448 217q-9 13 -16 41.5t-13 39.5q-8 6 -18 23q1 11 1 28
q-9 10 -22 29q-13 37 -25 73q-19 55 -32 63l-12 -12l3 -10l-12 -32q-9 -22 -16 -28v-3q0 -14 -27 -82q-28 -72 -41 -82v-17q1 -19 -13 -34q7 -3 27 -4q13 0 38 1t29 1q32 0 59 -1l8 -10l14 15q7 -1 20 -5t20 -4q20 0 28 10z" />
    <glyph glyph-name="B" unicode="B" horiz-adv-x="531" 
d="M486 170q-9 -36 -30 -74q-29 -53 -58 -54l-4 2q-4 0 -26.5 -20.5t-51.5 -20.5q-16 0 -35 6q-11 -15 -35 -15q-14 0 -37 6.5t-37 6.5l-22 -15l-22 8q-10 -5 -24 -6q-10 0 -27.5 2t-24.5 2q-37 0 -37 14q0 2 25 28t29 28q4 17 4 38q1 14 0 39q-1 28 -1 38l14 14
q-6 5 -12 31q4 2 9 4q2 1 4 13l-15 9v49q0 63 14 83l-14 18v154q-19 14 -20 50q-6 6 -22 9t-22 6l-3 22v4q18 5 51 5q34 0 54 -9q4 1 9.5 6.5t11.5 5.5q22 0 65.5 -2t64.5 -2q58 0 111 -42l4 -14q24 -13 30 -20q8 -13 17 -25q13 0 13 -27q0 10 -2 -29l-21 -8l14 -16t7 -18
q0 -20 -28.5 -49t-48.5 -29q-6 0 -9 -4q12 -11 47.5 -26.5t48.5 -27.5q22 -20 17 -50q21 -13 21 -45q0 -18 -9 -28zM355 439q0 3 -5.5 7t-5.5 8q0 -1 4.5 12t4.5 20q0 32 -25.5 64.5t-25.5 35.5q-16 1 -50.5 8.5t-52.5 7.5l-24 -1q-28 0 -19 -96q-14 -19 -14 -23
q0 -3 6.5 -10.5t7.5 -8.5q5 -8 6 -20q1 -7 0 -20q-1 -16 -1 -21v-8q20 -5 30 -5h74q24 0 45 9q6 11 21 26q24 1 24 15zM413 212q0 7 -7 9q-11 3 -12 4q-13 38 -38 64l-58 50q-2 0 -6.5 -3t-7.5 -3q-11 0 -33 5.5t-34 5.5q-19 0 -64 -5q0 -8 2 -24t2 -24q0 -11 -3 -16l-10 -5
q11 -62 11 -97q0 -5 -1 -21v-21l-7 -13q12 -15 14 -53l42 -2q26 -3 36 -15q10 5 29 12q20 1 55 10q1 0 17 14q12 9 19 8q6 -1 10 -1q6 0 6 4q0 2 -1.5 7.5t-1.5 8.5q0 4 12 29.5t13 51.5q16 6 16 20z" />
    <glyph glyph-name="C" unicode="C" horiz-adv-x="598" 
d="M555 187q0 -15 -9 -48t-9 -42q0 -11 6 -16.5t6 -13.5q0 -4 -3 -18q-1 -9 3 -20q-8 0 -8 -3v-13q-4 -1 -14.5 3t-13.5 4q-68 -31 -186 -31q-11 0 -22 5.5t-14 5.5q-4 0 -13 -2t-14 -2q-6 0 -49.5 14t-48.5 17q-16 19 -33 37q-2 0 -5.5 -2t-5.5 -2q-14 0 -51.5 49t-37.5 64
q0 4 9 19q-6 12 -11.5 22t-7.5 26q-18 9 -18 104q0 76 -2 50q2 34 20 34q15 0 19 10q-2 2 -17 12q3 15 22 55q20 44 28 44q2 0 3 -1t3 -1q8 0 15 30q7 6 18 11q61 46 80 55q39 20 96 20q4 0 11 -5.5t11 -5.5t15 6.5t15 6.5q30 0 88 -9q5 -1 16.5 -6.5t18.5 -5.5t19.5 4
t21.5 4q3 0 9 6.5t9 6.5q6 0 13.5 -19t7.5 -26q0 -10 -9.5 -21.5t-9.5 -17.5q0 -3 7.5 -21.5t7.5 -28.5v-87q-5 -3 -10 -3q-1 0 -11 -2q-7 -1 -9 1q5 4 6 10q2 5 0 8q-2 4 -7 4q-2 6 -3 33q-2 21 -10 33q-11 10 -30 31q-3 13 -17 30q-20 2 -51 8q-13 5 -27 11t-26 6
q-8 0 -23.5 -4.5t-22.5 -4.5t-23 -1t-22 -1t-14.5 -11.5t-12.5 -13.5q-65 -30 -97 -99q-29 -61 -29 -140q0 -53 33 -149q4 -12 20 -39q13 -22 18 -48q64 -29 89 -36q43 -13 95 -13q4 0 12 -3.5t11 -3.5q5 0 24 8.5t23 8.5t12 -3t12 -3q14 0 18 34q10 8 28 27q5 8 12 40
q9 37 12 45q2 5 3 5q11 0 28 -11q3 -5 3 -11z" />
    <glyph glyph-name="D" unicode="D" horiz-adv-x="654" 
d="M605 326q0 -21 -18 -93q-19 -76 -29 -83q-5 -3 -21 -8q-10 -3 -10 -10q0 -5 6 -16q-85 -105 -137 -105q-7 0 -14 3q-32 -16 -61 -19q-12 -1 -64 -1q-125 0 -155 24l-10 -10q-43 -9 -73 -9l-16 25q46 29 52.5 38.5t6.5 55.5q0 23 4 51l20 23q-28 57 -28 100q0 29 12 57
l-9 18l9 13q-13 18 -13 53q0 24 17 48q-15 20 -18 56q-5 54 -6 59q-3 15 -23 31t-24 31h9l8 -6q19 5 30 5q22 0 40 -15q29 26 115 26q80 0 117 -16l24 11q25 0 102 -31q81 -33 77 -47l-8 -33l26 -7q22 -44 22 -54q0 -6 -2 -11q36 -49 35 -97v-3l-12 -8q19 -23 19 -46z
M519 361v2q1 40 -27.5 101.5t-59.5 86.5l-10 -7q-9 1 -48.5 33.5t-63.5 32.5h-95q-5 0 -44 -5q0 -46 -22 -139l-12 -14q1 -15 8 -44q11 -31 11 -30q0 -25 -7 -70q-7 -51 -15 -66l10 -13q0 -8 5 -23.5t5 -23.5q0 -9 -3 -27t-3 -27l2 -44l28 -18q30 -16 75 -16q11 0 29.5 7.5
t28.5 7.5q7 0 18.5 -4.5t17.5 -4.5q18 17 41 17q16 0 30 17q11 15 23 29q53 48 63 109q2 63 5 127z" />
    <glyph glyph-name="E" unicode="E" horiz-adv-x="534" 
d="M478 148q0 -21 -16 -36l9 -32q-5 -16 -5 -33q0 -8 -4 -13l-4 -5q0 -4 16 -18l-9 -11l-37 16q-31 -16 -64 -16h-66q-11 0 -27 11.5t-24 11.5q-7 0 -14 -10.5t-14 -10.5q-8 0 -26 1t-27 1q-15 -1 -27 -4l-31 12q-23 -12 -76 -12l-18 13q0 15 32 18q36 43 36 166q0 54 -7 96
l19 -2l-4 24q0 6 -6.5 23.5t-6.5 36.5q0 65 4 100q16 10 16 26l-23 17q-1 38 -3 76q-3 8 -58 43l-5 21l14 5q50 0 80 -19l32 17q90 0 148 -7l10 -10l25 19q17 0 50 -4.5t50 -4.5q16 0 30 3l13 -4v-24q0 -8 -3.5 -24.5t-3.5 -24.5h-9l-1 -4q0 -8 6 -22t7 -22l-14 -14
q-13 0 -23 28t-23 28l2 9q-18 11 -28 12q6 0 -31 0q-25 0 -48 16l-28 -14q-9 0 -25 4t-25 4q-24 0 -47 -5q-7 -7 -8 -20.5t-2 -25.5l5 -8l-13 -29q10 -15 10 -42q0 -11 -2 -31.5t-2 -28.5l6 -22l71 -1q4 0 14 5.5t14 5.5q11 0 31.5 -6.5t32.5 -6.5q35 0 39 26q7 0 26 -15
l24 51l13 5l8 -8q-2 -6 -2 -12q0 -8 4 -24t4 -23q0 -17 -17 -24l19 -45q-7 -8 -5 -59l-21 -8q-13 5 -15 18q-1 3 -1 24q0 37 -79 35q0 11 -3 12l-31 -13q-11 0 -32 5.5t-32 5.5q-9 0 -27 -2.5t-25 -2.5q-13 -16 -13 -47q0 -20 6 -37l-11 -39q0 -7 5 -19.5t5 -19.5
q0 -10 -17 -26q13 -46 23 -57q6 -5 29 -8q28 -4 58 -23q21 12 28 12h82q4 0 12.5 -5t13.5 -5q16 0 25 29q10 36 12 37q0 19 5 49l22 16h10z" />
    <glyph glyph-name="F" unicode="F" horiz-adv-x="519" 
d="M468 646q0 -110 -16 -140q-11 18 -24 28q-8 37 -24 45q-9 4 -52 4q-70 0 -90 14q-43 -5 -85 -9q-14 -7 -14 -89q0 -10 -6 -27.5t-6 -26.5l2 -20q2 -11 -2 -32l16 -1h56l25 -23l21 20q28 4 83 -1q10 7 38 5q12 15 13 17t2 17l14 27h8q-1 -5 -1 -8q0 -8 8 -9.5t8 -2.5
q0 -5 -2 -26.5t-1 -31.5l-16 -19q8 -29 17 -90l-8 -9q-18 24 -35 48q-22 26 -52 21l-19 17q-18 -7 -45 -8q-19 -1 -51 0q-38 2 -47 2q-33 0 -32 -23q4 -43 0 -52q12 -30 12 -78q0 -56 -19 -80l3 -18q28 -15 28 -32q0 -12 27 -31q34 -24 37 -27q-15 -8 -49 -8q-20 0 -45 11
q-21 10 -41 21q-17 -28 -53 -28q-37 0 -45 14l11 17q15 0 33 26q34 7 28 143h18l-18 19v180l16 12q-13 14 -17 57l5 14q10 -4 20 5q0 5 -20 16q-3 65 -5 75q-8 51 -38 51q-7 0 -14 -2l-18 18q4 25 35 25q73 0 85 -25q42 23 142 23q50 0 73 -13q37 12 88 12q38 0 38 -14z" />
    <glyph glyph-name="G" unicode="G" horiz-adv-x="639" 
d="M597 304q-27 -12 -32 -41q-1 -2 -1 -53.5t-16 -79.5q20 -22 20 -87q-11 -8 -49 1l-19 -16q-19 0 -54 -19t-56 -19l-35 11l-33 -15q-97 0 -195 69q-106 76 -106 170q0 12 2 23q-18 22 -18 86q0 69 26 99l-2 24q0 34 39.5 78t73.5 47q27 35 60 49q16 7 61 15q42 7 69 21
l49 -14l35 10q24 -7 47 -14q28 -9 48 -9q9 0 20.5 11.5t20.5 11.5l13 -26q0 -6 -11 -56l16 -18q0 -8 3.5 -26.5t3.5 -28.5q0 -9 -7 -24t-14 -17l-22 14l1 7q0 30 -41 67t-40 42l-13 8q-15 -7 -71 -7q-57 1 -69 9l-40 -17l-15 9q-8 -11 -17 -22.5t-21 -13.5q-29 -28 -60 -60
q-10 -18 -23 -65q-12 -43 -27 -63q13 -26 13 -74q0 -39 -9 -62l22 -29l-1 -12l53 -93q27 -2 74 -33q44 -30 74 -30q68 0 122 29l1 16q32 14 32 83q0 57 -7 77q-13 32 -55 32q-9 0 -18 -1q-20 14 -29 26l8 6q56 5 52 5l43 -10q19 14 103 14l21 -6v-9z" />
    <glyph glyph-name="H" unicode="H" horiz-adv-x="726" 
d="M677 643q0 -12 -18 -12t-35 -52q-15 -43 -15 -65v-147q0 4 11 -30q2 -5 -3 -68q-6 -70 -6 -77q0 -9 5.5 -29t5.5 -30q0 -13 -6 -25l22 -66q3 -9 20 -17.5t19 -18.5l-48 -10q-42 0 -63 17q-11 -20 -41 -23q1 0 -53 0l-17 12q0 11 12 14q19 5 20 6q8 5 20 21.5t19 22.5
q11 42 11 154q0 77 -25 102l-43 -2q-56 -3 -91 18q-39 -14 -43 -14q4 0 -33 0q-35 0 -56 15q-25 -16 -42 -16q-13 0 -34 8q-19 -45 -19 -58q0 -2 2 -16t2 -31q0 -20 -13 -47q13 -40 14 -49q-1 13 -1 -41q0 -55 63 -55l2 -14l-21 -21q-11 0 -32 3.5t-31 3.5q-12 0 -22 -3
l-16 15q-1 -1 -15.5 -12.5t-43.5 -11.5q-37 0 -37 22q0 3 1 6l14 15q43 0 43 87q0 11 -1 26v18l-5 7q14 9 14 35q0 22 -9 44v69l5 37l17 11q-25 41 -24 76v30l17 22l-17 18q0 20 -5 53t-5 49q-23 7 -36 17v22l29 5q29 0 62 -26l38 21q47 0 80 -8l-9 -27q-11 -4 -20 -4
q-24 0 -30 -29q-2 -11 -2 -47q0 -23 -19 -50q7 -20 14 -89l22 1q42 0 65 -17l35 12q23 0 65.5 -7t62.5 -7q15 0 50.5 4t53.5 4l18 6q1 25 2.5 51.5t17.5 45.5l-16 31l3 22q0 20 -13 43t-14 30q-5 4 -21.5 7.5t-23.5 11.5q4 18 22 18q10 0 42 -3q26 -3 43 -1l25 -13
q2 0 25.5 7.5t45.5 7.5z" />
    <glyph glyph-name="I" unicode="I" horiz-adv-x="272" 
d="M224 8l-14 -10q-10 0 -29.5 -1t-27.5 -1q-40 0 -58 17q-18 -18 -39 -18q-4 0 -11.5 1t-11.5 1q-10 0 -17 -5l-14 12l3 11q55 10 55 68q0 8 -1.5 26t-1.5 27q0 6 12 12l16 10l-16 16q0 6 -2 23q-1 14 -1 22q0 15 2 55q1 34 0 54l7 11q-14 16 -14 34l16 16l-15 20v102
l15 25q-17 9 -20 17q-1 3 -1 26q0 27 -14 41q-7 6 -26 14q-14 6 -14 13l14 13q16 -4 33 -2q28 2 31 2q11 0 20 -11.5t13 -11.5q31 21 76 21q5 0 15 -2t15 -2l1 -5v-18l-10 -3l-6 4q-50 -28 -50 -61q0 -7 3 -29t3 -38q0 -32 -15 -78q19 -11 19 -45q0 -85 -17 -122
q14 -28 15 -64q-1 41 -1 -67q0 -64 8 -81q4 -9 31 -19q24 -9 24 -20z" />
    <glyph glyph-name="J" unicode="J" horiz-adv-x="373" 
d="M361 642q-6 -14 -23 -19q-21 -6 -27 -14q-13 -15 -13 -55q0 -23 -21 -31q1 -8 9 -42t8 -74l-15 -26l15 -14l-10 -25q0 -7 3.5 -21t3.5 -23q0 -13 5 -37.5t5 -36.5q0 -41 -22 -75q1 -6 6 -16.5t5 -16.5q0 -20 -37.5 -68t-59.5 -48q-4 0 -6 2q-9 -14 -17 -28
q-11 -13 -28 -13h-52q-3 0 -32 11.5t-35 12.5q-14 40 -14 43q0 21 23 43.5t44 22.5q17 0 34 -12v-7q-22 -19 -21 -42q6 -12 29 -12q40 0 48 23q13 5 43 36l-11 23q16 19 16 70q0 11 -4 45.5t-4 52.5q0 30 9 42l-12 10q0 4 -2 17q-1 10 -1 16v105q0 9 7.5 25t7.5 25l-14 20
q-2 55 -15 75q-6 9 -27 17q-17 6 -23 27l37 13q30 0 60 -19q20 0 56 8.5t53 8.5z" />
    <glyph glyph-name="K" unicode="K" horiz-adv-x="711" 
d="M694 1l-29 -7q-60 0 -80 15l-28 -7l-63 1l2 18q-24 31 -48 63q-28 39 -41 68l-11 -5q-8 0 -37 40t-47 46q-8 24 -35 52.5t-50 35.5q-2 -3 -52 -50v-98l-15 -10q11 -42 11 -76l24 -38q8 -13 39 -32l-9 -25q-27 3 -79 19l-19 -11l-28 15q-15 -20 -60 -23l-25 11l-7 13
l59 36q11 13 14 69l20 19q-4 9 -21 29v133l15 21q-17 18 -17 64q0 79 23 109l-25 26l4 24q0 83 -49 87q1 1 -4 22q6 1 23 5q14 4 23 4q10 0 20 -4.5t15 -4.5q9 0 22 7q45 -13 94 -4l22 -17l-8 -12q-42 -3 -48 -29q-5 -29 -9 -59l-24 -10q21 -30 21 -81q0 -17 -3 -55h-1
l-3 -40l4 -4q25 30 70 51l34 44q31 40 59 40q8 0 15 -3q22 32 19 44q21 10 47.5 40t26.5 50q0 10 -16 15q-19 5 -22 10v10l11 9q14 0 48 -3q30 -2 47 -1q9 0 15 -10.5t13 -10.5l24 21q8 -6 24 -3l24 4l21 -24q-6 -8 -28 -8q-25 0 -129 -93q-121 -109 -136 -118h-2l-30 -33
q2 -2 48 -58q27 -34 51 -47q5 -17 13 -51h9q34 2 67 -49q7 -11 42 -82l39 -13q18 -51 105 -66z" />
    <glyph glyph-name="L" unicode="L" horiz-adv-x="517" 
d="M487 153q-1 -13 -8.5 -46t-13.5 -40q7 -11 6.5 -31t6.5 -31l-13 -14q-26 0 -33 19q-25 -16 -69 -16q-18 0 -52.5 3.5t-49.5 3.5q-6 0 -17 -4.5t-17 -4.5l-28 15q-29 -2 -45 -13l-30 13q-17 -15 -30 -15q-8 0 -44.5 4t-37.5 5v14q7 8 28 10q13 16 27 18q2 26 1 36l16 15
q-11 21 -11 61q0 16 2 47t2 43q0 28 -8 39l13 18q0 16 -13 31v117l17 26q-17 26 -19 51q2 -25 2 55q0 19 -32 32.5t-32 30.5l16 13l54 -19l25 17q20 -8 30 -8q5 0 15 3t23 3l5 -1l10 -8q14 0 28 22l23 -20q0 -10 -17 -20q-23 -13 -32 -25q-17 -22 -17 -63q0 -28 -15 -33
q8 -12 14 -49q5 -32 5 -53q0 -6 -6 -23.5t-11 -21.5q17 -31 17 -129q-13 -8 -13 -31q0 -10 4.5 -30t4.5 -33q0 -49 23 -67q18 -14 62 -14q11 0 39.5 1t45.5 1q109 0 113 113l8 3l21 -8z" />
    <glyph glyph-name="M" unicode="M" horiz-adv-x="828" 
d="M779 654l-5 -18q-46 -21 -59 -74q-6 -26 -6 -100q0 -51 12 -90q0 -11 -10 -25q-4 -39 6 -73l-15 -30l15 -25v-108q0 -4 -7.5 -15t-7.5 -15q0 -23 27 -44q23 -15 45 -30v-12l-7 -2l-12 6q-11 -5 -29 -5q-46 0 -65 25q-18 -19 -35 -19h-7q-5 1 -8 1q-14 0 -29 -6l-18 9
q3 9 28.5 26.5t29.5 38.5q-2 26 2 75q10 39 10 37v163q0 14 -3 50q-4 32 -3 53l-3 6q-9 -8 -10 -24t-5 -21q-36 -43 -36 -65q0 -13 -17 -29q-13 -13 -26 -25l2 -22q1 -8 -63 -127q-38 -71 -76 -143h-1q-23 0 -55 72l-42 98q0 11 -58 129q-52 105 -72 140l-11 -17l6 -36
q0 -14 -10 -32q6 -49 6 -135l-13 -24q10 -14 13 -32q2 -13 1 -33q-2 -30 -2 -35q0 -33 15 -51q10 -10 30 -18t24 -14q-8 -11 -26 -11q-52 0 -81 19l-11 -11q-51 2 -59 -9l-33 7v16q84 22 84 129q0 15 -1.5 44.5t-1.5 44.5q0 13 6 43t6 40q0 14 -5 40.5t-5 39.5q0 30 14 55
q-16 28 -17.5 76t-34.5 95l-37 4l-17 14v12q18 5 54 11l26 -15l26 11q12 0 32.5 -6.5t28.5 -7.5q13 -12 14 -43t6 -37q13 -13 28 -46q19 -44 38 -87q13 -22 31 -52q0 -2 -3 -8t-3 -10q0 -12 24 -20q28 -70 88 -207q8 6 22 38q11 26 30 27q2 2 18.5 58t44.5 76q7 42 50 118
q38 66 75 112l-2 12q0 52 24 68q18 12 72 12q22 0 49 -7z" />
    <glyph glyph-name="N" unicode="N" horiz-adv-x="787" 
d="M750 634q-68 -24 -68 -117q0 -27 5 -83t5 -84q0 -7 -8 -16.5t-8 -16.5q0 -21 7 -62.5t7 -62.5q0 -16 -5 -48.5t-5 -48.5l14 -91q-2 -5 -8 -5q-3 0 -8 1t-7 1q-4 0 -3 -5q-51 40 -71 60q-37 36 -56 73q-32 26 -63 53q-64 57 -75 90q-125 80 -125 130q-39 29 -109 93
q-1 -7 -1 -55q0 -33 -7 -55q15 -22 15 -55q0 -16 -5 -49t-5 -49q0 -9 4.5 -24t4.5 -24q0 -6 -4.5 -20t-4.5 -19q0 -8 5.5 -21.5t5.5 -20.5t-5 -13l5 -33q13 -17 38.5 -24t30.5 -13q-17 -24 -30 -24q-27 0 -50 13l-26 -7l-25 11l-37 -13q-28 0 -46 3l-2 22l24 5l13 12
q33 11 33 48q0 7 -1.5 23.5t-1.5 24.5q0 30 14 38l-9 34q0 10 5.5 53t5.5 65q0 28 -8 36l10 32q-13 34 -13 125q0 57 -18.5 77t-74.5 28l-7 26q21 4 38 4q24 0 43 -6l9 6q34 0 64 -11q39 -15 39 -44q0 -5 -2 -10q17 -16 51 -41q-3 -10 -3 -16q0 -8 7.5 -17t14.5 -17
q38 -10 77 -48q33 -33 65 -66v-4l10 -30q50 -24 59 -53q68 -60 114 -117q4 -5 16.5 -6.5t16.5 -7.5v46l14 23q-16 31 -16 84q0 117 14 145q-2 7 -13 82q-8 56 -27 70q-14 6 -27 12q-18 9 -18 21v3l23 7l24 -6q3 1 8 1q13 0 41 -14l31 19l66 -5z" />
    <glyph glyph-name="O" unicode="O" horiz-adv-x="709" 
d="M580 94q0 -16 -47.5 -54t-65 -42t-33.5 -4q-14 0 -41 3.5t-42 3.5q-8 0 -24.5 -5t-25.5 -5q-54 0 -120 40q-58 35 -99 82q-4 4 -13 38q-7 28 -18 28q-3 0 -6 -2q-3 14 -20 69q-14 42 -14 69q0 15 7 106l11 6q5 8 2 22q-4 18 -4 21q0 38 49.5 87t87.5 51l8 24q8 1 33 10
q19 8 31.5 8t30 7.5t28.5 7.5q32 0 75 -11l74 -20l17 6q85 -52 103 -71q38 -41 41 -117l16 -7q28 -57 28 -108q0 -64 -19 -121q-22 -67 -24 -84q-29 -5 -29 -8q0 -1 1.5 -10t1.5 -20zM576 292q-15 17 -15 59q0 62 -36 116l-72 92l-20 28l-8 -1t-18 -1q-18 0 -48 16t-48 16
q-103 0 -156 -80q-45 -68 -45 -175q0 -7 -7 -13t-13 -11q17 -32 35.5 -91t33.5 -85q24 -43 69 -75q12 -5 33 -18l12 -15q8 -9 17 -9h40h42q82 0 134 67q45 58 54 146q16 17 16 34z" />
    <glyph glyph-name="P" unicode="P" horiz-adv-x="531" 
d="M459 435q5 -15 5 -37q0 -28 -52.5 -63.5t-81.5 -35.5l-23 8l-18 -5q-6 -15 -46 -15q-30 0 -68 8q-7 -13 -7 -28q0 12 7 -51q-7 -11 -13.5 -21.5t-5.5 -30.5q26 -34 26 -85q0 -31 16 -44q5 -5 29 -14q16 -6 16 -19l-5 -4l-28 -3q-64 0 -73 13l-25 -13l-22 5q-8 0 -24 -4.5
t-25 -4.5l-35 11v8l68 32q11 11 11 74q0 23 3.5 68.5t3.5 68.5q0 6 -4.5 19t-4.5 20q0 24 11 28q0 14 -7.5 42t-7.5 45q0 62 -1 48q1 24 12 46l-11 33l1 34q2 62 -62 62l-12 11l3 20h11q3 0 11 -4t11 -4h147q8 0 23.5 5.5t24.5 5.5l44 -15l12 4q30 0 65 -30l23 7
q26 0 61 -45.5t35 -72.5q0 -64 -18 -77zM393 428q0 7 -5 20.5t-6 17.5q-1 24 -3 48q-2 32 -17 40q-8 2 -26 8q-10 4 -35 25q-18 14 -45 14q-5 0 -14.5 3.5t-14.5 3.5q-4 0 -19 -7l-20 -10v-2q0 -10 -8 -26.5t-9 -24.5q-1 -14 -1 -28q-3 -17 -14 -22q16 -73 16 -94t-5 -41
q14 -14 40 -14q8 0 23 2t23 2q-6 0 37 -6q3 8 12 7q12 4 35 15q56 39 56 69z" />
    <glyph glyph-name="Q" unicode="Q" horiz-adv-x="721" 
d="M667 -111l-4 -6l2 -21q0 -24 -18.5 -39t-42.5 -15q-74 0 -74 46q0 27 43 26l8 19q-19 55 -35 55q-8 0 -69 25l-26 11q-64 -15 -88 -15q-73 0 -152 33q-93 39 -108 98q-30 6 -61 77q-30 67 -30 120q0 24 8 34q-1 5 -6.5 18t-5.5 21q0 89 68 180q74 99 158 91q28 20 59 20
q63 0 150 -19q115 -25 115 -62q-8 -5 -5 -15q15 -7 41 -29t31 -24l20 -49l-4 -19q24 -54 24 -117q0 -9 -9 -17q-14 -12 -15 -13l22 -39q-18 -52 -63 -159l-13 7q-23 0 -23 -22q0 -4 3 -25l-14 -20l-4 2l-30 -27l4 -4q51 -9 67 -15q37 -15 37 -47q0 -6 -1 -12q41 -13 41 -53z
M583 361q0 30 -26 79q-28 53 -30 76q-28 15 -77 51q-53 37 -78 52q-104 -5 -176 -46q-92 -53 -92 -149q0 -15 3.5 -43t3.5 -42q0 -12 -7 -31q-7 -23 -9 -31q22 -13 32 -46q13 -44 18 -53q26 -40 58.5 -71t65.5 -62l26 7q11 0 27.5 -10t28.5 -10q62 0 119 39q36 26 91 86
l-2 20q0 30 12 92t12 92z" />
    <glyph glyph-name="R" unicode="R" horiz-adv-x="601" 
d="M569 14l-1 -5q-13 -14 -43 -14h-20l-23 18l-32 -13q-18 0 -65 74q-51 83 -66 94l-8 45q-11 3 -32 13q-10 8 -25 39q-12 28 -30 34l-12 -9l-7 6q-15 1 -44 -7v-32q1 -28 -17 -85q16 -18 18 -43q-1 6 -1 -48q0 -33 15 -44q7 -6 44 -19l9 -17l-16 -10q-5 2 -63 5
q-40 3 -57 23q-14 -16 -35.5 -19.5t-42.5 -6.5l-7 21q62 9 56 78l19 18q-14 29 -14 52q0 47 9 123l14 14l-19 15q-1 21 2 58q4 41 4 58q0 5 -5.5 16.5t-5.5 16.5q0 9 7.5 20.5t7.5 18.5l-14 15q-4 19 -4 60q0 26 -17 39q-7 6 -32 16q-17 7 -17 17l17 15q11 -1 22 -3.5
t16 -2.5q10 0 28 8l30 -20l31 9q31 11 107 5l20 -16l28 9l66 -20q35 -43 69 -86q22 -35 22 -111l-20 5q1 -7 3 -21.5t2 -21.5q0 -14 -10 -39q-13 -30 -25 -30q-5 0 -9 4l-28 -19l-19 -2l-6 8l-10 -22q93 -103 88 -161l14 -2q18 -15 59 -71q11 -14 36 -27q30 -15 39 -23z
M352 511q0 5 7 21l-12 12l-11 -5q-59 71 -112 71q-28 0 -70 -7q-6 -11 -6 -24q0 -12 7 -37.5t7 -37.5q0 -7 -12.5 -7.5t-16.5 -9.5q23 -28 23 -27q0 -6 -4 -15.5t-4 -14.5q0 -10 3.5 -32.5t2.5 -33.5q26 -1 76 -10q2 -1 14 -6q8 -4 13 -4h2q6 12 35 18q34 6 46 16
q23 18 23 61q0 12 -5.5 36t-5.5 36z" />
    <glyph glyph-name="S" unicode="S" horiz-adv-x="420" 
d="M382 167q0 -22 -5.5 -30t-25.5 -20l4 -19q0 -23 -48 -53q-34 -19 -69 -39l-19 17h-6q-21 -30 -86 -30q-46 0 -61 17q-8 0 -15.5 -16t-16.5 -16l-19 8q1 -9 1 54q0 36 -15 59l15 23q-13 14 -13 38q0 36 22 36q16 0 29 -26q8 -20 17 -40l-3 -11l8 -21l15 6l4 -17
q5 -2 13 -15t14 -13q59 0 93.5 19.5t71.5 41.5q3 18 4 55l15 8q-20 13 -27 25q-14 25 -17 28q-13 17 -47 38q-37 22 -50 35l5 15q-5 8 -10 10q1 -1 -15 -1q-19 0 -58 31t-39 50l15 19v7l-5 4l-16 -6q-19 0 -19 51q0 38 23 89q28 60 62 60q6 0 11 -2l4 2q22 29 83 29
q11 0 19 -9.5t13 -9.5l24 15l30 -11q10 0 23.5 13.5t21.5 13.5q16 0 16 -40v-16l-16 -25q20 -28 20 -57l-14 -36q-12 0 -20 21q-6 15 -11 31q-9 15 -37 29.5t-37 24.5l-31 -12l-29 6q-3 0 -24 -21.5t-45 -21.5l-12 -11l10 -8l-1 -28q-1 -39 51 -79q12 -37 139 -104l5 -15
l-9 -17l4 -3l22 4q26 0 47 -56q17 -46 17 -78z" />
    <glyph glyph-name="T" unicode="T" horiz-adv-x="630" 
d="M581 652q0 -46 -15 -74q13 -22 13 -53l-12 -31q-14 11 -18 28q-7 28 -9 32l-84 47q-20 -6 -57 -9q-40 -3 -57 -8l-2 -64l-17 -17q17 -41 17 -105q0 -10 -6.5 -27.5t-6.5 -27.5q0 -23 8.5 -67.5t8.5 -67.5q0 -13 -4.5 -37.5t-4.5 -36.5q11 -3 11 -18q0 -6 -2 -17t-2 -14
q0 -27 36 -43.5t36 -28.5q0 -7 -20 -13q-16 -5 -25 -5q-12 0 -26.5 3.5t-23.5 3.5t-20 -2l-19 15l-32 -22l-20 7q-14 -7 -47 -2v16q17 12 21 15q13 7 25 7q14 11 22 39q10 36 15 43l-8 29l14 24l-14 26q0 65 12 92q-23 18 -23 55q0 6 10 81l16 5l6 22l-25 8q-3 17 -1 44
q3 37 3 44l-24 53q-9 -1 -27 -7t-30 -6q-42 0 -52 21l-22 -23q-30 -5 -46 -30q-8 -12 -19 -43q-7 -21 -15 -21l-15 21q0 16 11.5 47t11.5 48l-17 10q5 54 27 54q28 0 69 -11q64 -17 68 -18l24 15h20q44 1 77 -23q15 0 41 9.5t41 9.5q12 0 36.5 -2t37.5 -2q43 0 109 23z" />
    <glyph glyph-name="U" unicode="U" horiz-adv-x="683" 
d="M661 641l-10 -13q-14 -5 -44 -44q-2 -28 -19 -42l15 -30q-9 -22 -8 -75q0 -48 -16 -75q17 -19 17 -47q0 -99 -21 -115l6 -25q0 -20 -18 -44l1 -16q3 -51 -75 -91q-68 -35 -126 -35q-82 0 -110 19l-17 -5l-36 23l-17 -6q-37 0 -58 41q-17 31 -20 74l-20 6q-22 85 -22 141
q0 13 8.5 36.5t8.5 36.5l-10 20q2 11 -1 27q-4 20 -4 27q0 46 22 85l-23 18q-4 52 -18 88q-3 1 -40 12l4 25l19 2l69 -15l21 11q11 -5 23 -5q8 0 24 3.5t26 3.5q23 0 36 -11l-7 -20q-25 -7 -42 -41q-19 -37 -36 -47l14 -42v-95l-14 -24l9 -23q-12 -66 -12 -105
q0 -67 72 -138q67 -66 112 -66q7 0 21 7.5t26 7.5q159 0 151 213l17 11q-15 18 -15 101q0 4 4 71l19 26q1 8 -10 13.5t-13 10.5q-4 10 -2 26q4 25 4 28q0 33 -14 47q-6 6 -44 25v20l33 7q13 0 59 -17q14 13 39 15l43 4z" />
    <glyph glyph-name="V" unicode="V" horiz-adv-x="714" 
d="M408 235l-1 10q0 26 70.5 177.5t70.5 175.5q0 18 -19 31q-17 10 -33 21l7 10l16 1q30 1 62 -12l16 14l39 -14l22 12l22 -9q-33 -37 -104 -105q-4 -56 -35 -139q-35 -95 -71 -117q-8 -42 -17 -84q-15 -55 -45 -64q-2 -36 -22 -89q-23 -60 -47 -77q-8 31 -29 64l1 25
q-35 35 -54 100l15 19q-7 12 -30 16q-3 5 -39 87l5 25l-24 15q-18 37 -36 75q-19 45 -20 80q-23 16 -51 78q-24 56 -58 69l-7 17l29 14q19 0 47 -17l17 13q45 -10 102 0l12 -10q-14 -14 -29 -28q-17 -18 -17 -35q0 -36 39 -123q38 -83 35 -103q22 -12 57 -91q23 -54 47 -107
z" />
    <glyph glyph-name="W" unicode="W" horiz-adv-x="1088" 
d="M1064 644l-32 -24l-10 2l-15 -7q-23 -58 -79 -170q-1 0 -48 -106q-49 -110 -72 -128l6 -31q-12 -20 -38 -82q-22 -52 -44 -79l1 -4l-17 -37l-13 12q-12 42 -62 157q-42 98 -54 161l-13 -7q-22 32 -38 72q-12 -27 -30 -48q0 -27 -16 -61q-15 -29 -30 -57l-6 -4
q-4 -19 -38 -91q-30 -63 -27 -83l-38 -49q-19 16 -64.5 120t-47.5 132q-23 27 -68.5 134t-47.5 141q-9 9 -38 62q-24 46 -39 53l-28 6q-17 5 -17 20l26 19q53 -6 75 -23q31 19 96 19q25 0 42 -8q-15 -25 -49 -31l-17 -35q24 -41 24 -69q0 -13 -4 -27q30 -17 52 -66.5
t19 -85.5l14 -5q54 -90 82 -176l30 64q19 36 45 53q4 27 37 92q29 58 29 91q0 23 -20.5 61t-22.5 58q-14 13 -29 27q-22 21 -34 21q-4 0 -7 -2l-16 19l26 14q7 -1 72 -7l15 -18q22 26 71 26l31 -14v-14l-28 -5l-20 -30l36 -92l-13 -33q30 -8 56.5 -62.5t21.5 -87.5l94 -161
q26 87 58 122q0 27 47 124.5t69 115.5q-2 12 3.5 33t5.5 30q0 23 -16.5 37t-39.5 13l-3 3v14l29 13q26 -5 72 -26q31 21 53 19l39 -3z" />
    <glyph glyph-name="X" unicode="X" horiz-adv-x="738" 
d="M713 16l-7 -13q-16 -3 -38 -3q-62 0 -81 26l-37 -25h-80q6 27 24 33t37 13q-13 23 -38 51q-22 24 -44 47q-4 47 -38 49q-10 9 -66 80q-3 -2 -42 -46q-32 -36 -43 -30q-8 -19 -95 -157q42 -13 50 -41l-20 -14l-27 11l-19 -6l-39 19q-17 -14 -57 -14q-44 0 -47 22l11 8
q41 0 70 36q23 37 46 73q27 44 60 55q16 27 109 141q-65 69 -135 166q-2 24 -60 81t-81 54l-24 14l24 18q15 -1 45 -8t46 -7l37 10l12 -4q19 4 59 2l12 -9v-7l-34 -23l-1 -6q0 -11 27 -47q32 -42 44 -84q27 -8 49 -27t43 -38q14 20 48 58l21 4q7 25 49 74q39 43 40 78
l-32 16v12l11 7q45 0 77 -19l18 11l12 -2l60 10l17 -9q-58 -43 -82 -64q-44 -38 -69 -76l-21 -9q-10 -42 -45 -83t-76 -58q11 -20 49 -63q28 -33 39 -74q38 -13 81 -72q31 -48 63 -95q36 -12 88 -46z" />
    <glyph glyph-name="Y" unicode="Y" horiz-adv-x="656" 
d="M371 312l-9 -6q-2 -13 0 -34q3 -27 3 -33q0 -19 -5 -93l-12 -13q14 -12 18 -41q5 -34 11.5 -44.5t34.5 -16.5q25 -6 29 -22l-34 -7h-93l-22 19q-27 -19 -38 -19h-54l-6 25q49 12 66 32q12 14 12 39v8.5v8.5q0 33 21 51l-19 16q-6 42 4 116l-27 43v25l-25 6
q-36 72 -83 112l-1 36q-22 11 -58 58q-30 40 -69 46l-12 20l10 10l20 4t23 3q11 0 43 -23l26 18q47 3 79 3l27 -13v-7l-23 -17l-1 -19q0 -13 8 -33q9 -23 11 -32l17 -22l-1 -16q10 -16 95 -116q21 27 66 75q3 27 39 66t37 53q-10 16 -3 35q-5 12 -22 18q-22 8 -26 11v10
q13 9 38 9q4 0 48 -5l13 -14l29 21q25 -1 75 -7l2 -10q0 -7 -30 -21q-33 -16 -37 -20q-22 -23 -44 -45q-16 -19 -27 -58q-49 -23 -81 -118l-28 -14z" />
    <glyph glyph-name="Z" unicode="Z" horiz-adv-x="634" 
d="M585 159q0 -65 -34 -90q3 -25 13 -73l-9 -20q-39 21 -94 24q11 -1 -98 -1q-25 0 -65 27q-39 -27 -98 -27q-34 0 -66 12q-44 -17 -106 -17l-20 4l-3 10q0 26 63 99q42 49 84 97v6v7l17 7q4 8 22 27q-1 25 21 25q10 51 102 160q109 130 112 135q-38 0 -76 1q-48 3 -68 23
l-32 -19q-9 0 -25.5 3t-24.5 3q-45 0 -119 -21q-7 -22 -14 -43q-11 -32 -23 -32l-18 7v21q-2 55 32 89l-21 10v44l31 3q98 0 140 -18q33 19 184 19q9 0 25.5 -5t25.5 -5l28 10q14 -4 25 -4q8 0 22.5 3.5t26.5 3.5q14 0 17 -30q-18 -13 -42 -44q-27 -34 -41 -45l4 -8
q0 -16 -13.5 -28.5t-26.5 -23.5l-11 -1q-187 -234 -268 -397q11 -1 31 2t29 3q56 0 90 -15q18 10 41 13q17 3 44 1q39 -1 43 -1q45 0 63 8l7 -6q11 7 24 32.5t14 39.5l17 24z" />
    <glyph glyph-name="bracketleft" unicode="[" horiz-adv-x="197" 
d="M83 669q3 -15 3 -34q0 -17 -3.5 -51.5t-3.5 -51.5t5.5 -52t5.5 -53q0 -16 -6 -47.5t-6 -47.5q0 -13 7.5 -38t7.5 -38q0 -15 -4.5 -46.5t-4.5 -47.5q0 -12 4.5 -36t4.5 -36q0 -18 -5 -54.5t-5 -54.5q18 -5 23 -5q10 0 25 4q19 5 24 6l6 -40q-58 -9 -64 -9h-64q-5 43 -5 44
q0 17 8 50t8 51q0 29 -3.5 90t-3.5 92q0 12 -4.5 34t-4.5 34v363q0 21 21 21q17 0 54 -4q34 -5 54 -4l2 -40l-38 -4q-23 -1 -38 5z" />
    <glyph glyph-name="backslash" unicode="\" horiz-adv-x="403" 
d="M13 684q0 -41 108 -247q111 -210 115 -264l17 -12v-6q-1 -20 41 -109.5t52 -89.5q2 0 6 2t7 2l16 23q-15 44 -27 67l-15 7q-10 36 -20 73q-14 48 -35 58l-9 23q-66 143 -68 147l1 9l-81 149l5 19q0 33 -75 177q-13 -5 -25.5 -10t-12.5 -18z" />
    <glyph glyph-name="bracketright" unicode="]" horiz-adv-x="223" 
d="M91 669q-3 -15 -3 -34q0 -17 3.5 -51.5t3.5 -51.5t-5.5 -52t-5.5 -53q0 -16 6 -47.5t6 -47.5q0 -13 -7.5 -38t-7.5 -38q0 -15 4.5 -46.5t4.5 -47.5q0 -12 -4.5 -36t-4.5 -36q0 -18 5 -54.5t5 -54.5q-26 -5 -34 -5t-19 4q-14 5 -19 6l-6 -40q58 -9 64 -9h64q5 43 5 44
q0 17 -8 50t-8 51q0 29 3.5 90t3.5 92q0 12 4.5 34t4.5 34v363q0 21 -21 21q-17 0 -52.5 -4.5t-55.5 -3.5l-2 -40l38 -4q23 -1 38 5z" />
    <glyph glyph-name="asciicircum" unicode="^" horiz-adv-x="346" 
d="M38 722q6 3 124 72l111 -75l15 -12l-25 -31l-16 13l-89 57q-39 -24 -120 -69l-18 36z" />
    <glyph glyph-name="underscore" unicode="_" horiz-adv-x="502" 
d="M0 -113h503v-41h-503v41z" />
    <glyph glyph-name="grave" unicode="`" horiz-adv-x="262" 
d="M66 745l-23 -29l95 -8l65 -16q62 -15 62 -13q0 1 9 7.5t6 6.5q-6 0 -47 35q-63 17 -69 17t-83 38z" />
    <glyph glyph-name="a" unicode="a" horiz-adv-x="358" 
d="M335 48v-8q2 -23 -17 -37.5t-44 -14.5q-36 0 -45 28l-17 4q-1 0 -24.5 -14t-38.5 -14q-31 0 -71 13q-50 16 -50 39q0 4 2.5 13t2.5 13q0 2 -3.5 6.5t-3.5 6.5q0 28 20 54.5t47 31.5l16 -6l13 19l32 -6q0 10 30 22q40 15 41 16q-8 29 -15 58q-10 31 -35 48q-43 -12 -68 -8
q-9 -8 -9 -15q0 -5 4.5 -15t4.5 -15q0 -14 -32 -14q-16 0 -31 8.5t-15 23.5q0 35 23.5 58t58.5 23q179 0 179 -135q0 -10 -3.5 -28.5t-3.5 -29.5q13 -14 13 -24q0 -2 -4 -15.5t-2 -26.5q-6 -5 -14 -18q5 -16 21 -43zM222 118q-3 7 -11 21q4 4 3 15q-3 0 -13.5 3t-15.5 3
q-16 0 -49 -23t-40 -38q7 0 12 -6q-5 -9 -5 -16q0 -17 22 -26q17 -7 36 -7t35 22t12 43q4 3 14 9z" />
    <glyph glyph-name="b" unicode="b" horiz-adv-x="433" 
d="M178 11l-26 -15q-8 0 -24.5 7.5t-26.5 7.5q-11 0 -26.5 -13t-26.5 -14q5 78 16 232l16 6l1 15q-22 16 -22 68q0 17 8.5 52.5t8.5 38.5q0 17 -7 49.5t-8 46.5l12 12q-19 26 -19 65q0 29 -50 60v5q-1 19 13 19q3 0 11 -1.5t12 -1.5q15 0 41.5 17.5t43.5 17.5l16 -5
q-6 -15 -7 -54q-1 -35 -11 -53q7 -16 8.5 -38.5t3.5 -43.5q-11 -21 -14 -41q16 -10 16 -57q0 -18 -5 -68l8 -1q16 -1 43.5 22t52.5 23q64 0 72 -31l21 -2q53 -48 53 -127q0 -81 -43 -140q-46 -63 -119 -63q-21 0 -42 5zM316 179q2 8 2 16q0 37 -33 73.5t-70 36.5
q-38 0 -55 -24q-11 -15 -19 -54q-8 -42 -16 -58q5 -6 5 -13q0 -6 -5 -16t-6 -13q11 -22 22.5 -43.5t39.5 -21.5q12 0 35 -7q11 7 39 7q25 0 45 42q18 36 18 63q0 4 -2 12z" />
    <glyph glyph-name="c" unicode="c" horiz-adv-x="368" 
d="M325 70q-49 -86 -140 -86q-67 0 -120 58t-53 126q0 48 23 85q-2 55 62 86q51 25 113 25q18 0 25 -5t17 -22q20 12 34 12q26 0 26 -47q0 -14 -4.5 -44.5t-3.5 -47.5h-6q-13 0 -14 18v28q-5 11 -15.5 14.5t-12.5 5.5q-31 43 -60 43q-4 0 -14 -1t-16 -1q-16 0 -33 4
q-4 -12 -17 -34q-30 -32 -30 -79q0 -31 13 -75q10 -37 21 -74q3 11 11 16q31 -29 67 -31t49 -13l-1 4q0 12 31 37q25 20 43 29q4 -5 4 -10q0 -3 -1.5 -7.5t-1.5 -6.5q0 -4 4 -7z" />
    <glyph glyph-name="d" unicode="d" horiz-adv-x="419" 
d="M393 27q-20 -24 -78 -17q-22 -27 -35 -27l-16 6q-1 6 1 17t2 16l-5 15q-78 -38 -114 -38q-49 0 -65 51l-16 -14q-13 5 -14.5 29t-16.5 26q-20 29 -20 74q0 10 10 32t10 29q0 6 -5 9q15 63 68 95q47 29 113 29q27 0 54 -5q10 8 5 41l14 21q-15 13 -15 39q0 7 1.5 23
t1.5 24l19 -3l2 8q0 5 -10.5 10t-10.5 20q0 -5 -6 62l-50 17q3 21 15 25q6 3 31 0q20 13 79 35q9 -3 9 -59v-26q-7 -3 -8 -17q-1 -9 0 -26q3 -19 3 -21q0 -36 -18 -63q15 -19 15 -52q0 -32 -18 -49q16 -40 16 -109q0 -73 -16 -138l16 -15l-2 -17q-1 -22 20 -33
q29 -16 34 -24zM281 234q-11 2 -13 12q1 -5 1 19q0 41 -42 46q-35 2 -71 5q-14 -8 -35.5 -32.5t-34.5 -31.5q3 -7 3 -20t-4.5 -39t-4.5 -40v-2q15 -40 48.5 -69t72.5 -28h7q2 5 21 12.5t28 17.5q15 17 15 47q0 7 -3 20.5t-3 20.5l1 13q14 9 14 14q0 3 -3 17q-1 7 3 18z" />
    <glyph glyph-name="e" unicode="e" horiz-adv-x="371" 
d="M310 105l4 -14q0 -24 -19.5 -51t-43.5 -23q-42 -32 -75 -32q-28 0 -52 25q-7 -8 -19 -8q-23 0 -53 32q-26 28 -35 53l10 15l-10 13q7 16 9 26q-22 15 -22 36q0 33 9 51q2 4 16 10q11 5 10 13l-14 8q11 26 43 52q37 29 48 45l14 -7q20 17 46 17q41 0 88.5 -39t47.5 -79
q0 -34 -49 -34q-18 0 -40 4q-31 -36 -103 -36q-18 0 -34 6q-6 -9 -6 -22q0 -51 71 -112q8 0 23.5 -4t24.5 -4q16 0 34 11l26 -1h6q10 15 20 29q14 21 22 20h3zM230 255v4q0 6 -3.5 18t-3.5 19q-26 26 -59 26t-65 -24q0 -12 -8.5 -33.5t-8.5 -33.5q0 -8 6 -13q47 12 142 37z
" />
    <glyph glyph-name="f" unicode="f" horiz-adv-x="277" 
d="M317 588l2 -10q0 -19 -21 -19q-28 0 -41 27q2 10 10 22q11 16 13 20q-12 13 -25 13q-17 0 -43 -28q-31 -34 -41 -39q9 -25 9 -40l-2 -13q-9 -3 -21 -19q11 -77 0 -150l23 -7q29 0 58 10q13 -16 13 -28q0 -22 -40 -22q-27 0 -55 8q-3 -18 -11 -51q16 -17 16 -46
q0 -13 -4.5 -36t-5.5 -33q11 -15 13 -49q1 -38 7 -50q11 -22 45 -23q-3 -24 -36 -24q-17 0 -42 10q-13 -8 -35 -8q6 0 -64 3q3 15 22 22q16 5 32 9l-10 9q8 21 8 57q0 43 2 57q17 2 17 20l-3 20l-11 -10q1 -7 1 66q0 9 -3 23q-4 18 -5 24q-5 1 -31 1l-22 5q0 12 1 23t9 25
l18 -5q25 0 31 61t11 121q11 67 47 77q10 32 42 50q28 17 64 17q28 0 49 -10q26 -14 26 -39q0 -19 -17 -41z" />
    <glyph glyph-name="g" unicode="g" horiz-adv-x="377" 
d="M280 285q0 -7 9 -24.5t9 -27.5l-18 -22l5 -18q0 -22 -19 -45t-41 -23q-4 0 -8 1q-29 -17 -58 -17q-9 0 -24 4q-18 4 -24 4q-28 -24 -28 -45q0 -24 21 -24q6 0 26 4l19 -22q14 24 58 24q32 0 56 -12q20 12 36 12q20 0 39.5 -31.5t19.5 -52.5q0 -43 -36 -63
q-15 -34 -51 -53q-55 -31 -62 -37q-14 5 -90 11q-46 4 -75 37q-10 13 -20 25.5t-10 31.5q0 48 47 59q0 9 -13.5 25.5t-13.5 27.5q7 9 8 19l-7 13q0 17 20.5 41t20.5 30q0 3 -20 38.5t-20 55.5q0 19 20 54l-8 19q39 52 116 52q53 0 101 -23q12 5 31 22q-8 9 -16 30l24 15
q16 0 27.5 -13t11.5 -28q0 -21 -31.5 -39t-31.5 -35zM238 268q-2 1 -34 34q-19 21 -41 21q-63 0 -63 -77q0 -39 19 -67q22 -32 59 -32q7 0 15 1q3 10 21 33q16 20 16 35q0 12 -6 29q11 12 14 23zM198 -25v1q0 4 -19 16q-24 -23 -46 -23q-9 0 -25 4q-2 -16 -18 -20.5
t-16 -10.5q0 -5 17 -25t19 -29q16 -14 44 -14q33 0 81 22q56 25 56 53q0 30 -93 26z" />
    <glyph glyph-name="h" unicode="h" horiz-adv-x="418" 
d="M402 13l-23 -15h-49l-28 9q-9 -13 -37 -12l-36 1l-8 15q68 38 68 127q0 53 -25 127q-39 33 -76 33q-43 0 -65 -43q-17 -34 -17 -81q0 -30 5 -76q7 -61 18 -65.5t22 -8.5q17 -6 17 -14q0 -15 -46 -15q-35 0 -47 15q-19 -17 -54 -17q-29 0 -32 18q22 18 45 35q15 15 15 65
l-10 14v64q0 10 2 50q2 31 0 51q8 9 8 24q0 8 -3 24t-3 23q0 110 9 122l-13 21v58q0 25 -24 38.5t-26 24.5q35 0 57 19l12 -15q14 19 19 30l31 3q0 -47 -1 -125q-1 -93 -1 -125q0 -38 8 -114q46 51 124 51q93 0 93 -82q0 -11 -2 -24q22 -24 22 -84q0 -12 -4.5 -35.5
t-4.5 -35.5q0 -28 16.5 -50.5t43.5 -24.5z" />
    <glyph glyph-name="i" unicode="i" horiz-adv-x="232" 
d="M160 507q0 -41 -41 -41q-48 0 -48 42q0 19 12.5 33t31.5 14q20 0 32.5 -14t12.5 -34zM186 -8q-4 1 -41 5q-24 2 -36 15q-16 -18 -58 -18q-31 0 -41 11q71 26 71 116q0 13 -2 41.5t-2 42.5q0 26 4 44q-5 10 -16 28l1 10q0 15 -23.5 17.5t-24.5 17.5q6 1 29 6q18 4 30 4
q11 0 20 -3q16 29 47 29l11 -2l-8 -96q-6 -77 -13 -85v-3q0 -23 13 -57q-10 -21 -10 -35q0 -25 14 -49q3 -6 20 -14t17 -17z" />
    <glyph glyph-name="j" unicode="j" horiz-adv-x="210" 
d="M118 466q-19 0 -35 18t-16 38q0 16 13 26t29 10q19 0 30 -14.5t11 -33.5q0 -16 -8.5 -30t-23.5 -14zM155 356q-4 -101 -8 -203q-7 -167 -20 -177q12 -19 12 -39q0 -45 -53 -80q-49 -32 -96 -32q-49 0 -49 38q0 23 20 57q19 2 27 2q23 0 23 -16l-1 -6q-16 -14 -16 -24
q0 -14 28 -14q33 0 46 15q2 45 3 91q3 58 19 87q-13 12 -13 59q0 80 20 95q-14 10 -20 37q-3 21 -7 43q-6 8 -27 16t-28 13q35 11 69 23q41 14 71 15z" />
    <glyph glyph-name="k" unicode="k" horiz-adv-x="400" 
d="M392 -2l-28 -4q-48 0 -64 24q-8 -19 -28 -20q-2 4 -40 52q-25 31 -25 57q0 7 1 13q-17 2 -39 27q-16 18 -32 37q-42 -34 -42 -91q0 -56 46 -80q-6 -18 -33 -18q-21 0 -55 11q-17 -7 -33 -6l-31 2l-3 13l5 9q29 17 38 35q6 14 6 50q0 29 15 50l-8 29l14 1q-18 17 -18 154
q0 107 24 119q-14 13 -19 54q-6 56 -9 65q-10 32 -38 33q4 28 36 28q9 0 25 -3q32 30 62 30q5 0 5 -4q0 -13 -9 -37t-9 -37q0 -19 6 -56.5t6 -56.5q0 -14 -2 -43t-2 -44l-14 -2q9 -33 10 -85l2 -86h4q7 0 22.5 4t23.5 4v2q0 15 36 44t36 35t-9.5 12.5t-9.5 12.5l8 12
q27 -2 79 -15q11 14 36 14q27 0 48 -13q-6 -10 -17 -23l-18 7q-10 0 -27 -12t-28 -12l-21 9l1 -4q0 -10 -33 -35q-37 -29 -43 -39q11 -5 53.5 -65t44.5 -73q1 0 39 -35q29 -28 43 -28q4 0 7 1z" />
    <glyph glyph-name="l" unicode="l" horiz-adv-x="219" 
d="M198 5q-12 -12 -41 -12q-41 0 -39 23q-28 -6 -86 -14q0 14 12 21t24 13q2 23 3 45q3 34 12 39q-6 15 -6 34q0 12 3 36t3 36q0 37 -8 111.5t-8 111.5q0 17 3 50t3 49q0 65 -72 77q14 9 30.5 18.5t28.5 9.5l16 -8q38 35 56 35q16 0 16 -32q0 -18 -6 -53t-6 -52q0 -11 1 -20
l-6 -14q0 -12 6.5 -35t6.5 -35q0 -30 -2 -106q-2 -67 -2 -105q0 -7 5 -25t5 -27q0 -13 -3 -38.5t-3 -38.5q0 -59 54 -94z" />
    <glyph glyph-name="m" unicode="m" horiz-adv-x="654" 
d="M632 -4q-6 0 -19.5 -1.5t-20.5 -1.5q-26 0 -47 16q-28 -12 -54 -12q-32 0 -39 16h10q43 -1 43 103q0 47 -10 63l8 24q0 33 -32 65t-65 32q-28 0 -40 -20q-6 -12 -11 -42q-3 -26 -10 -32q21 -11 21 -46q0 -8 -1 -23.5t-1 -21.5v-51q0 -29 23.5 -38.5t24.5 -12.5
q-7 -16 -35 -16q-25 0 -41 13q-6 -14 -50 -14q-23 0 -47 13q32 4 40 29q3 9 6 51q2 34 15 49q-11 17 -12 43q0 -5 0 45q0 71 -90 71q-70 0 -70 -98q0 -95 25 -157q4 -9 16 -12q16 -3 20 -6v-26q-27 1 -53 2q-33 2 -50 17q-16 -25 -49 -25q-20 0 -26 15q40 18 45 24
q7 10 7 57q0 21 -4 63.5t-4 64.5q0 6 4 17.5t4 18.5q0 24 -33 47h-3q-18 -1 -24 20l28 6t24 15l17 -13q26 34 64 33v-54q49 41 109 41q58 0 93 -44q43 47 113 47q48 0 79 -26q35 -27 31 -73q23 -38 23 -90q0 -45 -19 -60q3 -6 15 -50q7 -29 33 -34q6 -18 19 -21z" />
    <glyph glyph-name="n" unicode="n" horiz-adv-x="467" 
d="M407 2q-11 -4 -24 -4q-9 -1 -24 0q-18 1 -25 1q-26 0 -32 -12q-15 1 -44 7q28 14 34 53v66v59l9 13l-12 12v15q2 32 -25.5 56t-59.5 24q-46 0 -62 -35q-11 -23 -11 -75q0 -30 7 -38l-12 -13q7 -15 8.5 -49t7.5 -47q9 -23 39 -30q-10 -10 -42 -10q-35 0 -49 19q-5 0 -9 -8
q-5 -11 -6 -12l-33 -4q-29 0 -27 21v5q39 10 46 26q5 9 5 55v69q12 15 14 24q-14 3 -19 46q-6 53 -8.5 58.5t-22.5 9t-26 16.5q12 8 49 8q16 0 38 12q17 11 35 22q6 -9 6 -46l3 -9q8 0 51 23.5t68 23.5q55 0 87 -70q26 -55 26 -118q0 -17 -3 -30l-16 -9q10 -14 14 -48
t11 -43q14 -9 34 -34z" />
    <glyph glyph-name="o" unicode="o" horiz-adv-x="412" 
d="M369 178l-15 -10q9 -16 9 -36q0 -60 -47 -103.5t-107 -43.5q-68 0 -119 36q-55 39 -60 104q-2 23 -2 26q-3 19 -11 21l-1 22q-1 37 44 107q18 4 55 35q32 26 79 26q62 0 109.5 -41.5t57.5 -102.5q2 -14 8 -40zM271 285q-8 3 -45 20q-27 14 -47 14q-33 0 -51 -30
q-8 -13 -22 -57q-10 -30 -22 -30l32 -114q23 -63 86 -63q47 0 72 49q20 38 20 91q0 52 -23 120z" />
    <glyph glyph-name="p" unicode="p" horiz-adv-x="456" 
d="M390 199q17 -24 17 -51q0 -65 -77 -118q-71 -48 -139 -48q-31 0 -53 12q-8 -60 -8 -78q0 -50 32 -90q-54 -6 -161 -40l-10 26q47 22 57 64q3 13 3 89q0 33 8 97t8 96q0 60 -12 91q-16 43 -61 68q29 19 53 19l21 -9q10 9 19 28l22 9q30 0 23 -61l3 -1q10 0 35.5 17.5
t41.5 16.5q17 19 45 19q43 0 92 -42.5t49 -84.5q0 -16 -8 -29zM331 102q-17 88 -25 157h-3q-12 0 -40.5 19.5t-42.5 19.5l-8 -1q-58 -6 -74 -35q-11 -20 -11 -85q0 -16 3 -46.5t3 -45.5q0 -59 80 -59q37 0 70 21t48 55z" />
    <glyph glyph-name="q" unicode="q" horiz-adv-x="416" 
d="M385 -138q-17 -20 -41 -20q-16 0 -29 8q-10 -15 -43 -25l-50 -14l-1 3l7 17q23 12 31.5 22.5t8.5 32.5q0 13 9 21q-10 24 -14 61q-4 32 -7 64q-48 -40 -97 -40q-61 0 -105 56q-40 52 -40 115q0 201 194 201q39 0 102 -22q8 17 16 33q10 21 27 21l9 -13q0 -25 -8 -74
t-8 -73q0 -23 6 -66.5t6 -65.5l-2 -21l-16 -10q3 -11 14 -114q9 -77 31 -97zM284 195q-9 44 -18 89q-16 45 -70 45q-63 0 -88 -45q-15 -30 -17 -88q-2 -51 -8 -55q14 -39 47.5 -66t72.5 -27q50 0 75 48q-8 17 -8 47q0 41 14 52z" />
    <glyph glyph-name="r" unicode="r" horiz-adv-x="336" 
d="M297 312q0 -32 -70 -52q0 13 -8 36q-42 -8 -49 -10q-33 -11 -33 -30q0 -4 1 -12t1 -12q0 -13 -11 -16l-1 -3l12 -28q-11 -7 -11 -16q0 -11 14 -28t14 -28q0 -13 -16 -23l-3 -17q0 -24 31 -40q38 -21 43 -29q-16 -8 -35 -8q-27 0 -49 14q-11 -20 -71 -20q-24 0 -42 7l-1 6
q48 27 54 38.5t6 68.5q0 22 7 43q-21 12 -21 24q0 3 1 11.5t1 15.5v57q0 22 -16 38q-10 10 -40 26l26 13t25 6q8 0 19 -1q32 29 53 29q15 0 17 -18q4 -26 5 -29q25 42 74 42q25 0 49 -16t24 -39z" />
    <glyph glyph-name="s" unicode="s" horiz-adv-x="362" 
d="M297 228l-11 -10q-9 3 -15 29q-6 31 -11 37q-27 18 -59 52q-2 -5 -14 -7q-9 -1 -24 0q-20 1 -18 1q-56 0 -56 -50q0 -18 8 -31q5 -8 28 -13q17 -3 33 -6q9 -3 26 -18q14 -10 31 -10q38 0 71.5 -32t33.5 -69q0 -35 -36 -50q-23 -62 -115 -62q-16 0 -48.5 3.5t-48.5 3.5
q-8 0 -16 -12q-6 -8 -12 -17q-11 11 -12 38q-2 25 4 41l-32 83h8q15 1 33 -24q26 -35 41 -47q33 -25 83 -25q76 0 76 40q0 28 -24 46q-27 20 -29 27q-38 6 -136 45q1 10 -2.5 19t-12.5 8q-13 24 -13 44q0 38 17 58q11 12 33 22t26 18q55 8 99 8q54 0 96 -12q-13 -14 -13 -30
q0 -12 10 -32t10 -31q0 -9 -9 -35z" />
    <glyph glyph-name="t" unicode="t" horiz-adv-x="277" 
d="M251 74l4 -16q0 -42 -26 -54q-29 -8 -58.5 -16.5t-42.5 -8.5q-48 0 -69 58q-14 40 -13 98l1 47l12 4q-6 16 -7 37q-1 14 0 38q1 28 1 37q-26 9 -78 17q79 56 134 111l19 5l16 -2q-5 -30 -18 -89q12 0 36 3t35 3q32 0 48 -17q-2 -25 -47 -29l-63 -7q-5 -2 -7 -71l-16 -6
l16 -104q13 -76 46 -76q25 0 62 40z" />
    <glyph glyph-name="u" unicode="u" horiz-adv-x="472" 
d="M434 39q-3 -7 -6 -20q-8 1 -21 -7t-21 -8q3 0 -37 9q-19 -29 -43 -28h-8q4 33 4 53q-4 -3 -27 -27q-17 -17 -31 -17l-16 7q-10 -15 -31 -15q-37 0 -79.5 38.5t-42.5 75.5q0 22 20 33l-21 16q2 30 2 52q0 75 -23 114h-3q-10 -1 -22 6.5t-12 17.5l5 11q10 -1 26 -1
q18 0 55.5 3.5t55.5 3.5q-1 -2 -12 -60q-8 -35 -8 -60q0 -15 10.5 -43.5t10.5 -44.5q0 -14 -7 -25l12 -32l-10 -14q4 -12 21 -6q20 -22 51 -22q51 0 69 30q12 20 12 64v24q1 41 12 55q-2 5 -13 54q-8 40 -20 43t-24 5q-15 5 -15 16v4q8 0 24.5 3.5t24.5 3.5q24 0 38 -15
q12 23 32 23l18 -4q-5 -47 -5 -143t-5 -145q19 -10 60 -28z" />
    <glyph glyph-name="v" unicode="v" horiz-adv-x="450" 
d="M431 354v-2q0 -6 -30 -39q-32 -36 -35 -52q-32 -39 -69 -135.5t-72 -136.5q-19 5 -40 40t-21 60q0 5 1 9q-30 21 -71 119q-37 91 -77 105q-23 8 -23 12l2 17q106 3 116 3q44 0 77 -3v-24q-32 -3 -32 -26q0 -13 6.5 -43.5t4.5 -48.5q21 -11 39 -46l26 -58q5 12 48 85
q31 53 31 89q0 38 -37 63q6 17 55 17q28 0 38 -14q14 15 32 15q13 0 31 -6z" />
    <glyph glyph-name="w" unicode="w" horiz-adv-x="664" 
d="M633 348l-2 -20q-42 -21 -73 -68q-15 -24 -46 -92q-27 -61 -50 -89l1 -8q0 -17 -13.5 -46.5t-26.5 -39.5q-17 4 -39 59q-19 49 -20 72q-14 4 -28 25l-18 34q-2 -2 -7 -13q-3 -7 -9 -7q-3 0 -6 2q-13 -50 -27 -99q-22 -65 -62 -67q-16 49 -56 133q-42 88 -57 132
q-18 5 -26 26q-12 28 -16 32q-13 15 -46 12l-8 30q11 -1 30.5 2t28.5 3q29 0 47 -21q17 10 59 10l39 -10q0 -5 -18 -24t-18 -35v-58q23 -9 38.5 -40t13.5 -57h2q16 0 19 -12q5 8 19 45q8 21 32 37l4 23q0 59 -78 126q9 5 31 5q43 0 53 -13q6 1 33 8q20 6 33 6q27 0 31 -25
q-34 -7 -34 -33q0 -13 10 -38t10 -38q0 -6 -2 -13q16 -4 32 -41q20 -43 28 -51q5 16 45 83q32 54 32 84q0 37 -48 56q10 16 43 16q22 0 35 -15q10 16 39 16q7 0 46 -4z" />
    <glyph glyph-name="x" unicode="x" horiz-adv-x="480" 
d="M460 13l-14 -16h-62q-7 0 -19.5 7.5t-20.5 7.5q-2 -17 -31 -17h-66l-12 15q6 6 29 7q19 0 19 13q0 22 -29 55.5t-50 37.5l-34 -44q-27 -35 -27 -42v-6q1 0 33 -10q19 -5 21 -21q-19 -3 -35 -3q-11 0 -31 6.5t-31 6.5l-15 -17q-4 0 -15.5 -1t-17.5 -1q-35 0 -43 22
q23 4 66 19q5 3 33 40q24 32 44 33q12 22 36 64q-12 16 -23 31.5t-11 39.5l-8 12q-24 9 -42 33q-20 28 -33 36q-9 5 -31 8q-26 3 -33 6q2 22 49 22q46 0 59 -6q21 10 50 10q48 0 55 -27q-33 -2 -33 -20q0 -12 13 -35t11 -37l14 -2q69 0 69 77q0 6 -17.5 11t-17.5 14
q0 14 20 14q3 0 25 -2q14 -2 25 1q5 -13 17 -13t29 13q15 -1 51 -1q3 -8 3 -22q-19 -4 -47 -24.5t-43 -25.5v-4q0 -20 -33.5 -52t-33.5 -46q0 -12 21.5 -30.5t21.5 -36.5q0 -7 -3 -15q3 -6 35 -9q38 -59 113 -76z" />
    <glyph glyph-name="y" unicode="y" horiz-adv-x="494" 
d="M472 341q-52 -18 -80 -81q-21 -56 -42 -111q-2 -3 -44 -108q-27 -65 -53 -104q-21 -29 -70 -124l-15 -2q-52 0 -51 35l1 7q26 3 67 65q40 59 40 88q-61 31 -61 100q0 10 2 21q-29 21 -50.5 92t-56.5 91q-25 14 -30 18q-16 11 -23 26q-2 0 139 0q71 0 71 -16
q0 -10 -26 -14t-26 -18q0 -18 13 -60q14 -47 27 -47q18 -39 57 -115q25 48 50 95q30 62 30 99q0 42 -45 48q-2 27 32 27q18 0 42 -10q23 9 56 9q36 0 46 -11z" />
    <glyph glyph-name="z" unicode="z" horiz-adv-x="377" 
d="M319 128l11 -14q0 -10 -11 -25t-13 -22q-4 -30 -21 -88q-3 1 -14.5 12t-49.5 11t-51 19q-25 -21 -78 -21q-14 0 -48 2q-30 2 -47 2q3 5 68 79q55 62 54 74q8 2 25 8l-1 3q0 19 28 55q20 25 39 51q-9 10 -52 10q-101 0 -138 -41l-3 9q0 15 4.5 46.5t4.5 47.5q13 3 35 3
q24 0 59 -5q46 -6 52 -16q37 22 85 22q21 0 54 -4l3 -11l-4 -14q-18 -3 -93 -107q-46 -65 -92 -131q7 -22 48 -22q45 0 80 10q8 2 29 31q20 26 37 26z" />
    <glyph glyph-name="braceleft" unicode="{" horiz-adv-x="1630" 
d="M19 554v-586l14 -8q13 0 35 10.5t35 10.5q18 0 52 -10.5t52 -10.5q29 0 32 21q4 37 6 40q13 21 67 21q36 0 48 45q5 39 11 77h6q12 0 61 -25.5t80 -25.5q41 0 70 19q3 -11 61 -44t75 -36l68 19l5 -2l76 40l15 39q44 5 61 29q12 30 25 60q72 40 72 84q0 23 -25.5 67.5
t-25.5 64.5q5 2 77.5 9t83.5 7q36 0 115.5 -13t117.5 -13q34 0 62 15q34 19 34 49l-2 13q-126 47 -369 93l-152 34q-98 22 -151 22q-86 0 -227 -61l-226 -100l-14 26q-24 11 -93 11q-2 21 -44 26q-31 2 -63 4q-14 3 -39 -4q-30 -9 -49 -9q-16 0 -34 4zM213 415q0 18 6 55
q8 43 16 43q67 0 77 -6q5 -20 3 -44q-4 -39 -4 -44q0 -124 4 -206l5 -114q1 -25 -44 -25h-30q-17 0 -27 8q-6 38 -6 65v268zM342 415q0 12 13 59q4 12 61 31q27 9 207 83q129 53 177 53q8 0 14 -2q77 -11 153 -23q137 -23 161 -42l19 12l19 -17l12 10l17 -17l46 3
q25 2 80 -10.5t74 -24.5v-11l-33 -8q-18 0 -50.5 6t-51.5 6q-31 0 -89.5 9.5t-91.5 9.5q-64 0 -142 35.5t-93 35.5q-14 0 -34 -6q-24 -7 -26 -17l18 -11l44 5q36 0 74 -53q28 -39 58 -110q20 -47 39 -94l-11 -15h-8q-62 135 -68 147q-56 106 -97 105h-4q-13 -36 -15 -37
q-16 -11 -33 -23v-11q17 -3 48 -15q18 -12 67.5 -117t49.5 -127l-11 -15q-10 6 -36 71q-34 85 -50 115q-32 60 -59 60l-10 -4v-9q0 -32 -8 -45q-6 -9 -34 -33q25 -20 73 -103t48 -112l-8 -15q-56 91 -97 183l-27 16q-39 0 -123.5 -23t-131.5 -23q-130 0 -130 118zM657 163
q0 13 11 13q5 0 22.5 -8.5t21.5 -8.5t11 3.5t11 3.5q16 0 16 -16q0 -9 -13.5 -16t-24.5 -7q-14 0 -33 11q-22 13 -22 25zM1415 509v11q1 0 3.5 1.5t4.5 1.5q-6 0 35 -10v-12q-1 0 -3.5 -1t-5.5 -1q-13 0 -34 10zM420 465q4 -5 9 -5q2 0 122.5 35t123.5 36q14 8 14 16
q0 17 -15 17q-5 0 -123.5 -39.5t-130.5 -45.5v-14zM424 427q0 -3 5 -7.5t7 -3.5q63 14 125 27q78 18 125 34q3 20 3 13q0 5 -7 11q-85 -20 -255 -64q-3 -6 -3 -10zM230 142q0 -17 10 -34t25 -17q16 0 26 16.5t10 32.5q0 48 -37 48q-34 0 -34 -46zM432 381q0 -7 8 -14
q116 24 233 47q11 6 11 17q0 12 -17 12q-11 0 -111.5 -21.5t-110.5 -25.5q-13 -6 -13 -15z" />
    <glyph glyph-name="bar" unicode="|" horiz-adv-x="482" 
d="M433 160q0 -20 -18 -35q-6 -5 -17 -7t-12 -3q-10 -4 -55 -4q-3 0 -2.5 1.5t-2.5 1.5t0 -1.5t0 -1.5q-2 0 -1 5.5t-3 7.5q-1 10 -9.5 25l-8.5 15q0 11 12.5 33t23.5 23q18 3 33 3q27 0 45 -21q15 -19 15 -42zM289 390q0 -20 -18 -35q-14 -11 -25 -16q-4 -2 -21 -2
q-3 0 -5 2t-5 2t-3.5 -1t-4.5 -1q-1 0 -29 15q-1 10 -9.5 25l-8.5 15q0 11 12.5 33t23.5 23q18 3 33 3q27 0 45 -21q15 -19 15 -42zM143 160q0 -20 -18 -35q-6 -5 -17 -7t-12 -3q-19 -8 -17 -8q-3 0 -5 2t-5 2t-3.5 -1t-4.5 -1q-1 0 -29 15q-1 10 -9.5 25l-8.5 15
q0 11 12.5 33t23.5 23q18 3 33 3q27 0 45 -21q15 -19 15 -42z" />
    <glyph glyph-name="braceright" unicode="}" horiz-adv-x="1630" 
d="M1485 554v-586l-15 -8q-13 0 -34.5 10.5t-34.5 10.5q-18 0 -52 -10.5t-52 -10.5q-30 0 -32 21q-4 37 -6 40q-13 21 -68 21q-35 0 -47 45q-5 39 -11 77h-6q-12 0 -61 -25.5t-80 -25.5q-41 0 -70 19q-4 -11 -61.5 -44t-74.5 -36l-68 19l-5 -2l-76 40l-15 39q-44 5 -61 29
q-12 30 -25 60q-72 40 -72 84q0 23 25.5 67.5t25.5 64.5q-6 2 -78 9t-84 7q-35 0 -115 -13t-118 -13q-33 0 -62 15q-33 19 -33 49l2 13q126 47 369 93l152 34q98 22 151 22q85 0 227 -61l226 -100l14 26q24 11 92 11q3 21 45 26q31 2 63 4q14 3 39 -4q29 -9 48 -9q17 0 35 4
zM1291 415q0 18 -7 55q-7 43 -15 43q-67 0 -77 -6q-5 -20 -3 -44q4 -39 4 -44q0 -124 -4 -206l-5 -114q-1 -25 44 -25h30q17 0 27 8q6 38 6 65v268zM1162 415q0 12 -13 59q-4 12 -61 31q-27 9 -207 83q-130 53 -177 53q-8 0 -14 -2q-77 -11 -153 -23q-137 -23 -162 -42
l-18 12l-19 -17l-12 10l-18 -17l-45 3q-25 2 -80.5 -10.5t-74.5 -24.5v-11l34 -8q18 0 50.5 6t51.5 6q31 0 89.5 9.5t91.5 9.5q64 0 141.5 35.5t92.5 35.5t35 -6q24 -7 26 -17l-18 -11l-44 5q-36 0 -74 -53q-28 -39 -59 -110l-38 -94l11 -15h8q61 135 68 147q56 106 96 105
h5q13 -36 15 -37q16 -11 33 -23v-11q-17 -3 -49 -15q-17 -12 -66.5 -117t-50.5 -127l12 -15q9 6 36 71q34 85 50 115q32 60 59 60l10 -4v-9q0 -32 8 -45q5 -9 34 -33q-26 -20 -73.5 -103t-47.5 -112l8 -15q56 91 97 183l27 16q39 0 123.5 -23t131.5 -23q130 0 130 118z
M846 163q0 13 -11 13q-4 0 -21.5 -8.5t-21.5 -8.5t-11 3.5t-11 3.5q-16 0 -16 -16q0 -9 15 -17q12 -6 23 -6q14 0 34 12t20 24zM89 509v11q-1 0 -3.5 1.5t-5.5 1.5q7 0 -35 -10v-12q1 0 4 -1t6 -1q13 0 34 10zM1084 465q-4 -5 -9 -5q-2 0 -122.5 35t-123.5 36q-14 8 -14 16
q0 17 14 17q6 0 124 -39.5t131 -45.5v-14zM1079 427q0 -3 -4.5 -7.5t-7.5 -3.5q-62 14 -124 27q-78 18 -125 34q-3 20 -3 13q0 5 6 11q86 -20 256 -64q2 -6 2 -10zM1274 142q0 -17 -10 -34t-26 -17q-15 0 -25 16.5t-10 32.5q0 48 37 48q34 0 34 -46zM1072 381q0 -7 -8 -14
q-116 24 -234 47q-10 6 -10 17q0 12 17 12q11 0 111 -21.5t112 -26.5t12 -14z" />
    <glyph glyph-name="asciitilde" unicode="~" horiz-adv-x="512" 
d="M136 717q-24 -6 -26.5 -7.5t-19.5 -19.5q-17 7 -22 21q19 12 51 41q4 2 24 13t25 11q49 0 118.5 -27t94.5 -27h6q8 9 56 45q20 0 20 -17q0 -13 -48.5 -44.5t-62.5 -31.5q-22 0 -52 8q-35 10 -46 22l-44 9l-13.5 7t-22.5 7q-22 0 -38 -10z" />
    <glyph glyph-name="Adieresis" unicode="&#xc4;" horiz-adv-x="695" 
d="M662 7l-59 -13l-40 17q-12 -11 -25 -11q-11 0 -23 4t-18 4q-11 0 -26 -8l-20 14l49 37l5 4l-3 -2q2 34 -21 65q5 26 15 37q-45 6 -157 4q-100 -1 -156 11l-36 -108q0 -27 17.5 -35.5t36.5 -16.5l-12 -16q-26 1 -52 1q-37 3 -46 11q-21 -9 -39 -9q-40 0 -48 11
q73 49 117 143q10 22 60 167q33 97 74 139l-3 20q8 10 38 107q26 85 46 85q27 0 62 -101q31 -91 32 -134q31 -47 78 -147q55 -118 49 -147q31 -46 64 -104q14 -3 39 -15zM448 217q-4 6 -24.5 63t-20.5 62q0 10 -9 19q-12 13 -14 17q-1 1 -25 73q-19 54 -32 63l-12 -12l3 -10
q-6 -16 -11 -32q-9 -22 -17 -28v-3q0 -16 -19 -61t-17 -52q-3 -8 -15 -10v-10q0 -17 -17 -31v-17q1 -19 -13 -34q8 -4 27 -4q14 0 38 1t29 1q32 0 59 -1l8 -10l14 15q7 -1 20 -5t20 -4q20 0 28 10zM476 743q0 -17 -16 -30q-8 -2 -24 -8.5l-16 -6.5q-2 0 -4 2t-4 2t-3.5 -1
t-3.5 -1t-25 13q0 5 -7.5 19.5l-7.5 14.5q0 11 10.5 28.5t21 20t26.5 2.5q22 0 37.5 -16.5t15.5 -38.5zM316 743q0 -18 -16 -30q-8 -2 -24 -8.5l-16 -6.5q-2 0 -4.5 2t-3.5 2q-2 0 -3.5 -1t-3.5 -1t-25 13q0 5 -7.5 19t-7.5 15q0 10 10.5 27.5t21 20t26.5 2.5q22 0 37.5 -16
t15.5 -38z" />
    <glyph glyph-name="Aring" unicode="&#xc5;" horiz-adv-x="701" 
d="M335 695q-29 0 -51 19.5t-22 48.5q0 28 22 47.5t51 19.5t51 -19.5t22 -47.5q0 -29 -22 -48.5t-51 -19.5zM604 -11l-40 16q-13 -10 -23 -10q-20 0 -46 8l-24 -8l-29 18q18 11 55 30v7q1 18 -10 44t-11 24q0 24 14 38q-19 1 -130 1q-4 0 -17.5 4.5t-20.5 4.5q-16 0 -48 -3
t-48 -3q-22 0 -40 4l-34 -102q0 -25 18 -33l36 -16l-16 -24l-52 2q-39 2 -48 8q-22 -7 -46 -7q-35 0 -46 16q10 18 52 32q61 79 116 230q75 203 94 242l32 80q27 62 45 62q41 0 41 -65q0 -25 105 -258q104 -228 142 -291q14 -4 40 -17l4 -20zM335 800q-17 0 -30 -10.5
t-13 -26.5q0 -17 13 -27.5t30 -10.5t30 10.5t13 27.5q0 16 -13 26.5t-30 10.5zM330 526q-4 -5 -13 -15q-4 -49 -26 -71q0 -18 -20 -63.5t-16 -60.5q-3 -10 -15 -14v-3q0 -22 -17 -37l1 -18q0 -12 -10 -27q17 -3 43 -1q39 1 42 1q33 0 61 -1l7 -7l11 12q7 -1 21 -5t21 -4
q15 0 21 5q-7 13 -14.5 42.5t-16 43.5t-9.5 28q-2 20 -4 27q-9 9 -22 28q-8 24 -24 70q-5 28 -21 70z" />
    <glyph glyph-name="Ccedilla" unicode="&#xc7;" horiz-adv-x="614" 
d="M343 -134q9 18 13 42q-15 21 -82 28q12 19 31 59q-8 6 -20 4q-22 -3 -21 -3q-26 0 -74 23t-57 45l-11 -4q-22 0 -52 45.5t-30 75.5q0 7 2 11q-12 23 -15 51q-22 11 -22 101q0 88 27 88l10 6l-17 12q4 18 50 99l6 -2l15 30q12 1 41 23q37 29 61 41q44 22 92 22l22 -11
l30 13q66 0 123 -21q23 8 41 8l18 13l21 -45l-9 -27l-10 -4v-8l6 -6q0 -7 4.5 -21.5t4.5 -22.5v-87l-10 -3l-15 9l6 6l-12 6q-9 32 -60 127q-15 2 -49.5 11t-53.5 9h-82q-44 -39 -89 -78q-40 -35 -55 -70q-19 -44 -19 -122q0 -49 30 -120q35 -83 41 -116q37 -17 103 -31
q79 -16 104 -25l47 17l24 -6q6 13 22 31q19 23 24 30q8 13 13 45.5t14 44.5l28 -11l3 -11q0 -15 -9 -44.5t-9 -45.5t12 -30q-8 -26 0 -38h-11l-1 -10l-30 2q-31 2 -85 -14q-59 -17 -86 -18l-16 -35l28 -2q38 -27 38 -45q0 -17 -6 -38q-8 -28 -20 -29l-14 -14q-28 -5 -45 -14
q-12 7 -35 18l-34 45l26 14q5 -16 28 -34q23 3 57 11z" />
    <glyph glyph-name="Eacute" unicode="&#xc9;" horiz-adv-x="521" 
d="M478 148q0 -21 -16 -36l9 -32q-5 -17 -5 -33l2 -29l6 -7l-9 -11l-37 16q-31 -16 -64 -16h-66q-10 0 -25.5 11.5t-25.5 11.5q-7 0 -14 -10.5t-14 -10.5q-8 0 -26 1t-27 1q-15 -1 -27 -4l-31 12q-23 -12 -76 -12l-18 13q0 15 32 18q36 44 36 163q0 55 -7 99l19 -2l1 8
q0 12 -9 37t-9 39q0 64 4 100q16 10 16 26l-23 17v56q0 23 -20 39q-21 12 -41 24l-5 21l14 5q50 0 80 -19l32 17q90 0 148 -7l10 -10l35 19q17 0 50.5 -4.5t49.5 -4.5t30 3l13 -4v-24q0 -8 -3.5 -24.5t-3.5 -24.5h-9l-1 -4q0 -8 6 -22t7 -22l-14 -14q-13 0 -23 28t-23 28
l2 9q-16 10 -28 12h-31q-35 0 -58 16l-28 -14q-9 0 -25 4t-25 4q-24 0 -47 -5q-7 -8 -8 -21t-2 -25l5 -8l-13 -29q10 -16 10 -42q0 -10 -2 -30.5t-2 -29.5l6 -22l71 -1q4 0 14 5.5t14 5.5q11 0 31.5 -6.5t32.5 -6.5q35 0 39 26h7l19 -15l24 51l13 5l22 -6q-1 -4 -2 -48
q-1 -28 -23 -37l19 -45q-7 -8 -5 -59l-21 -8q-16 7 -16 43t-79 34v10l1 1l-4 1l-31 -13q-11 0 -32 5.5t-32 5.5q-9 0 -27 -2.5t-25 -2.5q-14 -17 -14 -46q0 -20 7 -38l-11 -39q0 -7 5 -19.5t5 -19.5q0 -10 -17 -26q12 -45 25 -57q6 -6 30 -10q28 -4 55 -21q21 12 28 12h82
q4 0 12.5 -5t13.5 -5q12 0 23.5 24.5t8.5 36.5l5 5q0 20 5 49l22 16h10zM360 765l23 -29q-95 0 -222 -37l-16 13l1 1q8 2 25 17t21.5 17.5t34.5 10t35.5 7.5t82.5 38z" />
    <glyph glyph-name="Ntilde" unicode="&#xd1;" horiz-adv-x="753" 
d="M750 634q-68 -24 -68 -117q0 -27 5 -83t5 -84q0 -7 -8 -16.5t-8 -16.5q0 -21 7 -62.5t7 -62.5q0 -16 -5 -48.5t-5 -48.5l13 -44q-8 -14 -3 -55l-14 -4l-150 140q-112 105 -123 140q-125 81 -125 130q-39 29 -109 93q-1 -13 0 -33q2 -26 2 -34q0 -12 -10 -43
q15 -22 15 -55q0 -16 -5 -49t-5 -49q0 -9 5 -26t5 -26q0 -6 -5 -18t-5 -17q0 -8 5.5 -21.5t5.5 -19.5q0 -8 -5 -14l5 -33q15 -19 39.5 -25t29.5 -12q-17 -24 -30 -24q-27 0 -50 13l-26 -7l-25 11l-37 -13q-28 0 -46 3l-2 22l24 5l4 9q42 14 42 82v12q0 40 15 49l-13 28
q0 20 5 59.5t5 58.5q0 29 -14 46l17 22q-13 32 -13 80q0 8 1 24v22q0 46 -15 67q-21 29 -79 37l-7 26q20 4 38 4q25 0 43 -6l9 6q34 0 64 -11q39 -15 39 -44q0 -5 -2 -10q16 -15 61 -47l1 -35l8 -9q38 -10 77 -48q33 -33 65 -66v-4l10 -30q50 -24 59 -53q56 -49 61 -54
q29 -29 53 -63q4 -6 16.5 -7t16.5 -7v46l14 23q-16 31 -16 84q0 16 2 46t2 44q0 34 10 55q-3 8 -13 82q-9 57 -27 70q-14 6 -27 12q-18 9 -18 21v3l23 7l24 -6q3 1 8 1q13 0 41 -14l31 19l66 -5zM684 -1v4l-10 2v-3zM219 718q-10 -9 -29 -28q-17 7 -22 21q19 12 51 41
q3 1 25 14q18 10 24 10q46 0 116 -27t97 -27h6q6 6 56 45q20 -1 20 -17q0 -13 -48 -44.5t-63 -31.5q-20 0 -57.5 13.5t-50.5 26.5l-34 -1q-2 0 -15 7t-21 7q-7 0 -25.5 -6t-29.5 -3z" />
    <glyph glyph-name="Odieresis" unicode="&#xd6;" horiz-adv-x="647" 
d="M580 94q0 -16 -47.5 -54t-66.5 -42q-14 -3 -30 -3q-14 0 -42 3t-43 3q-8 0 -24.5 -5t-25.5 -5q-52 0 -120 40q-64 37 -99 82q-1 2 -12 37q-9 29 -19 29q-3 0 -6 -2q-3 14 -20 68q-14 42 -14 70q0 15 7 106q14 4 14 17q0 5 -2.5 16t-2.5 16q0 38 49 87t88 51l8 24
q12 2 62 19q40 14 61 14q32 0 75 -11l74 -20l17 6q83 -51 102 -72q39 -41 42 -116l16 -7q28 -56 28 -108q0 -42 -19 -105q-21 -71 -24 -100q-29 -5 -29 -10l1.5 -9t1.5 -19zM576 292q-15 18 -15 60t-55 139q-53 94 -73 96q-4 0 -13.5 -1t-12.5 -1q-18 0 -52 11t-52 11
q-100 0 -143 -58q-27 -36 -40 -118q-13 -77 -30 -93q16 -30 36 -90.5t35 -87.5q25 -45 67 -73q12 -5 33 -18l12 -15q8 -9 17 -9q124 0 186 43q71 50 84 170q15 16 16 34zM436 743q0 -17 -16 -30q-8 -2 -24 -8.5l-16 -6.5q-2 0 -4 2t-4 2t-3.5 -1t-3.5 -1t-25 13
q0 5 -7.5 19.5l-7.5 14.5q0 11 10.5 28.5t21 20t26.5 2.5q22 0 37.5 -16.5t15.5 -38.5zM276 743q0 -18 -16 -30q-8 -2 -24 -8.5l-16 -6.5q-2 0 -4.5 2t-3.5 2q-2 0 -3.5 -1t-3.5 -1t-25 13q0 5 -7.5 19t-7.5 15q0 10 10.5 27.5t21 20t26.5 2.5q22 0 37.5 -16t15.5 -38z" />
    <glyph glyph-name="Udieresis" unicode="&#xdc;" horiz-adv-x="653" 
d="M661 641l-10 -13q-14 -5 -44 -44q-2 -28 -19 -42l15 -30q-9 -21 -9 -49q0 -7 1 -19v-18q0 -37 -16 -64q17 -19 17 -47q0 -99 -21 -115l6 -25q0 -19 -18 -44l1 -16q3 -50 -76 -90q-69 -36 -125 -36q-82 0 -110 19l-17 -5l-36 23l-17 -6q-37 0 -58 41q-17 32 -20 74l-20 6
q-22 85 -22 141q0 13 8.5 36.5t8.5 36.5l-10 20q2 11 -1 27q-4 20 -4 27q0 46 22 85l-23 18q-4 53 -18 88q-1 0 -40 12l4 25l19 2l69 -15l21 11q13 -5 24 -5q8 0 22.5 3.5t26.5 3.5q23 0 36 -11l-7 -20q-27 -7 -42 -40q-17 -37 -36 -48l14 -42v-95l-14 -24l9 -23
q-12 -66 -12 -105q0 -63 33 -101q28 -34 112 -81l39 -22q7 0 19.5 7.5t27.5 7.5q86 0 124 67q31 55 27 146l17 11q-15 18 -15 101q0 3 4 71l19 26q0 8 -10.5 13t-12.5 11q-3 10 -1 26q3 25 3 28q0 34 -14 48q-5 4 -44 24v20l33 7q13 0 59 -17q16 15 37 15h10q7 -1 10 -1
q14 0 25 5zM466 743q0 -17 -16 -30q-8 -2 -24 -8.5l-16 -6.5q-2 0 -4 2t-4 2t-3.5 -1t-3.5 -1t-25 13q0 5 -7.5 19.5l-7.5 14.5q0 11 10.5 28.5t21 20t26.5 2.5q22 0 37.5 -16.5t15.5 -38.5zM306 743q0 -18 -16 -30q-8 -2 -24 -8.5l-16 -6.5q-2 0 -4.5 2t-3.5 2
q-2 0 -3.5 -1t-3.5 -1t-25 13q0 5 -7.5 19t-7.5 15q0 10 10.5 27.5t21 20t26.5 2.5q22 0 37.5 -16t15.5 -38z" />
    <glyph glyph-name="aacute" unicode="&#xe1;" horiz-adv-x="356" 
d="M319 48l1 -8q1 -24 -17.5 -38t-43.5 -14q-37 0 -46 28l-17 4q-2 0 -25 -14t-38 -14q-31 0 -71 13q-50 16 -50 39q0 4 2.5 13t2.5 13q0 2 -3.5 6.5t-3.5 6.5q0 28 20 54.5t47 31.5l16 -6l14 13l14 -4q0 10 38 24q48 17 50 18q-8 29 -17 59.5t-33 46.5q-41 -12 -68 -8
l-9 -15q0 -5 4.5 -15t4.5 -15q0 -14 -32 -14q-16 0 -29 8q-17 9 -17 24q0 35 23.5 58t58.5 23q77 0 123 -28q56 -35 56 -107q0 -8 -3 -21l-13 4l-3 -10q16 -18 17 -47l2 -50q-6 -5 -14 -18q5 -15 21 -43zM211 117q-3 5 -16 22q4 4 4 12l-1 3q-3 0 -13 3t-16 3q-16 0 -49 -23
t-40 -38q7 -1 12 -6q-5 -9 -5 -16q0 -17 22 -26q17 -7 36 -7q20 0 35.5 22.5t12.5 42.5q5 3 18 8zM248 486l24 -28q-96 -5 -219 -48l-17 12l1 1q48 36 50 37q12 7 63 21q11 3 81 42z" />
    <glyph glyph-name="agrave" unicode="&#xe0;" horiz-adv-x="356" 
d="M319 48l1 -8q1 -24 -17.5 -38t-43.5 -14q-37 0 -46 28l-17 4q-2 0 -25 -14t-38 -14q-31 0 -71 13q-50 16 -50 39q0 4 2.5 13t2.5 13q0 2 -3.5 6.5t-3.5 6.5q0 28 20 54.5t47 31.5l16 -6l14 13l14 -4q0 10 38 24q48 17 50 18q-8 29 -17 59.5t-33 46.5q-41 -12 -68 -8
l-9 -15q0 -5 4.5 -15t4.5 -15q0 -14 -32 -14q-16 0 -29 8q-17 9 -17 24q0 35 23.5 58t58.5 23q77 0 123 -28q56 -35 56 -107q0 -8 -3 -21l-13 4l-3 -10q16 -18 17 -47l2 -50q-6 -5 -14 -18q5 -15 21 -43zM211 117q-3 5 -16 22q4 4 4 12l-1 3q-3 0 -13 3t-16 3q-16 0 -49 -23
t-40 -38q7 -1 12 -6q-5 -9 -5 -16q0 -17 22 -26q17 -7 36 -7q20 0 35.5 22.5t12.5 42.5q5 3 18 8zM56 475l-23 -29q95 0 222 -37l16 13l-1 1q-7 1 -23 16q-20 17 -23.5 19t-34.5 9.5t-36 7.5t-82 38z" />
    <glyph glyph-name="acircumflex" unicode="&#xe2;" horiz-adv-x="356" 
d="M319 48l1 -8q1 -24 -17.5 -38t-43.5 -14q-37 0 -46 28l-17 4q-2 0 -25 -14t-38 -14q-31 0 -71 13q-50 16 -50 39q0 4 2.5 13t2.5 13q0 2 -3.5 6.5t-3.5 6.5q0 28 20 54.5t47 31.5l16 -6l14 13l14 -4q0 10 38 24q48 17 50 18q-8 29 -17 59.5t-33 46.5q-41 -12 -68 -8
l-9 -15q0 -5 4.5 -15t4.5 -15q0 -14 -32 -14q-16 0 -29 8q-17 9 -17 24q0 35 23.5 58t58.5 23q77 0 123 -28q56 -35 56 -107q0 -8 -3 -21l-13 4l-3 -10q16 -18 17 -47l2 -50q-6 -5 -14 -18q5 -15 21 -43zM211 117q-3 5 -16 22q4 4 4 12l-1 3q-3 0 -13 3t-16 3q-16 0 -49 -23
t-40 -38q7 -1 12 -6q-5 -9 -5 -16q0 -17 22 -26q17 -7 36 -7q20 0 35.5 22.5t12.5 42.5q5 3 18 8zM15 445l23 -20q51 13 101 46q17 -9 45 -31q8 -6 62 -13l11 21q-43 10 -43 18q0 4 -31.5 32t-36.5 28h-1q-31 -14 -41 -24q-19 -19 -29 -26q-1 0 -60 -31z" />
    <glyph glyph-name="adieresis" unicode="&#xe4;" horiz-adv-x="358" 
d="M319 48l1 -8q1 -24 -17.5 -38t-43.5 -14q-37 0 -46 28l-17 4q-2 0 -25 -14t-38 -14q-31 0 -71 13q-50 16 -50 39q0 4 2.5 13t2.5 13q0 2 -3.5 6.5t-3.5 6.5q0 28 20 54.5t47 31.5l16 -6l14 13l14 -4q0 10 38 24q48 17 50 18q-8 29 -17 59.5t-33 46.5q-41 -12 -68 -8
l-9 -15q0 -5 4.5 -15t4.5 -15q0 -14 -32 -14q-16 0 -29 8q-17 9 -17 24q0 35 23.5 58t58.5 23q77 0 123 -28q56 -35 56 -107q0 -8 -3 -21l-13 4l-3 -10q16 -18 17 -47l2 -50q-6 -5 -14 -18q5 -15 21 -43zM211 117q-3 5 -16 22q4 4 4 12l-1 3q-3 0 -13 3t-16 3q-16 0 -49 -23
t-40 -38q7 -1 12 -6q-5 -9 -5 -16q0 -17 22 -26q17 -7 36 -7q20 0 35.5 22.5t12.5 42.5q5 3 18 8zM243 457q0 -15 -13 -25q-7 -2 -20.5 -7.5t-12.5 -5.5q-2 0 -4 1.5t-3 1.5h-3q-2 -1 -3 -1t-20 11q-1 4 -7 16l-6 12q0 9 8.5 24t17.5 17t22 2q19 0 31.5 -13.5t12.5 -32.5z
M110 457q0 -15 -14 -25q-6 -2 -19.5 -7.5l-13.5 -5.5q-1 0 -3 1.5t-4 1.5h-2q-2 -1 -3 -1q-2 0 -21 11q-1 4 -7 15.5t-6 12.5q0 8 9 23t18 17t22 2q18 0 31 -13.5t13 -31.5z" />
    <glyph glyph-name="atilde" unicode="&#xe3;" horiz-adv-x="359" 
d="M319 48l1 -8q1 -24 -17.5 -38t-43.5 -14q-37 0 -46 28l-17 4q-2 0 -25 -14t-38 -14q-31 0 -71 13q-50 16 -50 39q0 4 2.5 13t2.5 13q0 2 -3.5 6.5t-3.5 6.5q0 28 20 54.5t47 31.5l16 -6l14 13l14 -4q0 10 38 24q48 17 50 18q-8 29 -17 59.5t-33 46.5q-41 -12 -68 -8
l-9 -15q0 -5 4.5 -15t4.5 -15q0 -14 -32 -14q-16 0 -29 8q-17 9 -17 24q0 35 23.5 58t58.5 23q77 0 123 -28q56 -35 56 -107q0 -8 -3 -21l-13 4l-3 -10q16 -18 17 -47l2 -50q-6 -5 -14 -18q5 -15 21 -43zM211 117q-3 5 -16 22q4 4 4 12l-1 3q-3 0 -13 3t-16 3q-16 0 -49 -23
t-40 -38q7 -1 12 -6q-5 -9 -5 -16q0 -17 22 -26q17 -7 36 -7q20 0 35.5 22.5t12.5 42.5q5 3 18 8zM50 451q-8 -8 -24 -23q-13 6 -17 17q15 10 41 34q2 0 20 11q14 8 19 8q36 0 80.5 -22t63.5 -22h5q5 5 46 36q15 0 15 -14q0 -10 -39 -35.5t-51 -25.5q-16 0 -41 10.5
t-36 22.5l-8 -1q-3 0 -13 5.5t-16 5.5q-7 0 -21.5 -4t-23.5 -3z" />
    <glyph glyph-name="aring" unicode="&#xe5;" horiz-adv-x="360" 
d="M319 48l1 -8q1 -24 -17.5 -38t-43.5 -14q-37 0 -46 28l-17 4q-2 0 -25 -14t-38 -14q-31 0 -71 13q-50 16 -50 39q0 4 2.5 13t2.5 13q0 2 -3.5 6.5t-3.5 6.5q0 28 20 54.5t47 31.5l16 -6l14 13l14 -4q0 10 38 24q48 17 50 18q-8 29 -17 59.5t-33 46.5q-41 -12 -68 -8
l-9 -15q0 -5 4.5 -15t4.5 -15q0 -14 -32 -14q-16 0 -29 8q-17 9 -17 24q0 35 23.5 58t58.5 23q77 0 123 -28q56 -35 56 -107q0 -8 -3 -21l-13 4l-3 -10q16 -18 17 -47l2 -50q-6 -5 -14 -18q5 -15 21 -43zM211 117q-3 5 -16 22q4 4 4 12l-1 3q-3 0 -13 3t-16 3q-16 0 -49 -23
t-40 -38q7 -1 12 -6q-5 -9 -5 -16q0 -17 22 -26q17 -7 36 -7q20 0 35.5 22.5t12.5 42.5q5 3 18 8zM145 415q-29 0 -51 19.5t-22 48.5q0 28 22 47.5t51 19.5t51 -19.5t22 -47.5q0 -29 -22 -48.5t-51 -19.5zM145 520q-17 0 -30 -10.5t-13 -26.5q0 -17 13 -27.5t30 -10.5
t30 10.5t13 27.5q0 16 -13 26.5t-30 10.5z" />
    <glyph glyph-name="ccedilla" unicode="&#xe7;" horiz-adv-x="363" 
d="M207 -54q36 0 36 -65q0 -28 -63 -45l-49 23l9 20l17 1l25 -12q19 5 31 18v18l-10 11q-10 -1 -33 -1q-19 0 -19 13q0 27 30 58q-66 1 -117.5 58.5t-51.5 124.5q0 48 23 85q-2 55 62 86q51 25 113 25q26 0 42 -27q20 12 34 12q26 0 26 -47q0 -14 -4.5 -44.5t-3.5 -47.5h-6
q-14 0 -14 18v28q-5 10 -15 13.5t-13 6.5q-35 43 -58 43q-4 0 -13.5 -1t-16.5 -1q-17 0 -35 4q-18 -21 -32 -53q-15 -35 -15 -60q0 -31 13 -75q10 -37 21 -74l11 16q30 -28 66.5 -30.5t49.5 -13.5l-1 4q0 13 31 37q24 20 43 29q4 -5 2.5 -16.5t2.5 -14.5q-42 -72 -118 -84v0
q-1 -1 -27 -45z" />
    <glyph glyph-name="eacute" unicode="&#xe9;" horiz-adv-x="368" 
d="M258 486l24 -28q-96 -5 -219 -48l-17 12l1 1q48 36 50 37q12 7 63 21q11 3 81 42zM318 105l4 -14q0 -24 -20 -51t-43 -23q-43 -32 -75 -32q-28 0 -52 25q-8 -8 -19 -8q-23 0 -51.5 30t-37.5 55l10 15l-10 13q8 16 10 26q-22 15 -22 36q0 36 9 51q2 3 14 9t12 14l-15 8
q11 25 43 51q38 30 49 46l14 -7q19 17 46 17q41 0 88 -39t47 -79q0 -34 -49 -34q-17 0 -39 4q-32 -36 -103 -36q-18 0 -34 6q-6 -9 -6 -22q0 -51 70 -112q8 0 24 -4t24 -4q16 0 34 11l27 -1h5q10 15 20 29q14 21 23 20h3zM237 255l1 4q0 6 -3.5 18t-3.5 19q-26 26 -60 26
q-33 0 -64 -24q0 -12 -8.5 -33.5t-8.5 -33.5q0 -8 5 -13q48 12 142 37z" />
    <glyph glyph-name="egrave" unicode="&#xe8;" horiz-adv-x="368" 
d="M318 105l4 -14q0 -24 -20 -51t-43 -23q-43 -32 -75 -32q-28 0 -52 25q-8 -8 -19 -8q-23 0 -51.5 30t-37.5 55l10 15l-10 13q8 16 10 26q-22 15 -22 36q0 36 9 51q2 3 14 9t12 14l-15 8q11 25 43 51q38 30 49 46l14 -7q19 17 46 17q41 0 88 -39t47 -79q0 -34 -49 -34
q-17 0 -39 4q-32 -36 -103 -36q-18 0 -34 6q-6 -9 -6 -22q0 -51 70 -112q8 0 24 -4t24 -4q16 0 34 11l27 -1h5q10 15 20 29q14 21 23 20h3zM237 255l1 4q0 6 -3.5 18t-3.5 19q-26 26 -60 26q-33 0 -64 -24q0 -12 -8.5 -33.5t-8.5 -33.5q0 -8 5 -13q48 12 142 37zM66 475
l-23 -29q95 0 222 -37l16 13l-1 1q-7 1 -23 16q-20 17 -23.5 19t-34.5 9.5t-36 7.5t-82 38z" />
    <glyph glyph-name="ecircumflex" unicode="&#xea;" horiz-adv-x="368" 
d="M318 105l4 -14q0 -24 -20 -51t-43 -23q-43 -32 -75 -32q-28 0 -52 25q-8 -8 -19 -8q-23 0 -51.5 30t-37.5 55l10 15l-10 13q8 16 10 26q-22 15 -22 36q0 36 9 51q2 3 14 9t12 14l-15 8q11 25 43 51q38 30 49 46l14 -7q19 17 46 17q41 0 88 -39t47 -79q0 -34 -49 -34
q-17 0 -39 4q-32 -36 -103 -36q-18 0 -34 6q-6 -9 -6 -22q0 -51 70 -112q8 0 24 -4t24 -4q16 0 34 11l27 -1h5q10 15 20 29q14 21 23 20h3zM237 255l1 4q0 6 -3.5 18t-3.5 19q-26 26 -60 26q-33 0 -64 -24q0 -12 -8.5 -33.5t-8.5 -33.5q0 -8 5 -13q48 12 142 37zM55 445
l23 -20q51 13 101 46q17 -9 45 -31q8 -6 62 -13l11 21q-43 10 -43 18q0 4 -31.5 32t-36.5 28h-1q-31 -14 -41 -24q-19 -19 -29 -26q-1 0 -60 -31z" />
    <glyph glyph-name="edieresis" unicode="&#xeb;" horiz-adv-x="368" 
d="M318 105l4 -14q0 -24 -20 -51t-43 -23q-43 -32 -75 -32q-28 0 -52 25q-8 -8 -19 -8q-23 0 -51.5 30t-37.5 55l10 15l-10 13q8 16 10 26q-22 15 -22 36q0 36 9 51q2 3 14 9t12 14l-15 8q11 25 43 51q38 30 49 46l14 -7q19 17 46 17q41 0 88 -39t47 -79q0 -34 -49 -34
q-17 0 -39 4q-32 -36 -103 -36q-18 0 -34 6q-6 -9 -6 -22q0 -51 70 -112q8 0 24 -4t24 -4q16 0 34 11l27 -1h5q10 15 20 29q14 21 23 20h3zM237 255l1 4q0 6 -3.5 18t-3.5 19q-26 26 -60 26q-33 0 -64 -24q0 -12 -8.5 -33.5t-8.5 -33.5q0 -8 5 -13q48 12 142 37zM282 457
q0 -15 -13 -25q-7 -2 -20.5 -7.5t-12.5 -5.5q-2 0 -4 1.5t-3 1.5h-3q-2 -1 -3 -1t-20 11q-1 4 -7 16l-6 12q0 9 8.5 24t17.5 17t22 2q19 0 31.5 -13.5t12.5 -32.5zM149 457q0 -15 -14 -25q-6 -2 -19.5 -7.5l-13.5 -5.5q-1 0 -3 1.5t-4 1.5h-2q-2 -1 -3 -1q-2 0 -21 11
q-1 4 -7 15.5t-6 12.5q0 8 9 23t18 17t22 2q18 0 31 -13.5t13 -31.5z" />
    <glyph glyph-name="iacute" unicode="&#xed;" horiz-adv-x="230" 
d="M186 -8q-4 1 -41 5q-24 2 -36 15q-16 -18 -58 -18q-31 0 -41 11q71 26 71 116q0 14 -2 42.5t-2 41.5q0 25 4 44q-5 10 -16 28l1 10q0 15 -24 17.5t-24 17.5q6 1 29 6q18 4 29 4t21 -3q16 29 47 29l11 -2q-3 -48 -7 -96q-7 -75 -14 -85v-3q0 -23 13 -57q-10 -21 -10 -35
q0 -28 14 -49q3 -5 20 -13.5t17 -17.5zM178 486l24 -28q-97 -2 -189 -48l-17 12l1 1q14 12 45 37q20 16 58 34q52 24 61 29z" />
    <glyph glyph-name="igrave" unicode="&#xec;" horiz-adv-x="230" 
d="M186 -8q-4 1 -41 5q-24 2 -36 15q-16 -18 -58 -18q-31 0 -41 11q71 26 71 116q0 14 -2 42.5t-2 41.5q0 25 4 44q-5 10 -16 28l1 10q0 15 -24 17.5t-24 17.5q6 1 29 6q18 4 29 4t21 -3q16 29 47 29l11 -2q-3 -48 -7 -96q-7 -75 -14 -85v-3q0 -23 13 -57q-10 -21 -10 -35
q0 -28 14 -49q3 -5 20 -13.5t17 -17.5zM26 475l-23 -29h10q91 2 172 -37q5 3 16 13l-1 1q-5 1 -19 15q-17 19 -18 20q-50 22 -122 55z" />
    <glyph glyph-name="icircumflex" unicode="&#xee;" horiz-adv-x="230" 
d="M186 -8q-4 1 -41 5q-24 2 -36 15q-16 -18 -58 -18q-31 0 -41 11q71 26 71 116q0 14 -2 42.5t-2 41.5q0 25 4 44q-5 10 -16 28l1 10q0 15 -24 17.5t-24 17.5q6 1 29 6q18 4 29 4t21 -3q16 29 47 29l11 -2q-3 -48 -7 -96q-7 -75 -14 -85v-3q0 -23 13 -57q-10 -21 -10 -35
q0 -28 14 -49q3 -5 20 -13.5t17 -17.5zM-15 445l23 -20q29 17 81 46l29 -15q2 -1 10 -12t13.5 -11t34.5 -6l11 21q-23 9 -23 18q0 4 -31.5 32t-37.5 28q-14 0 -55 -34q-28 -24 -55 -47z" />
    <glyph glyph-name="idieresis" unicode="&#xef;" horiz-adv-x="230" 
d="M186 -8q-4 1 -41 5q-24 2 -36 15q-16 -18 -58 -18q-31 0 -41 11q71 26 71 116q0 14 -2 42.5t-2 41.5q0 25 4 44q-5 10 -16 28l1 10q0 15 -24 17.5t-24 17.5q6 1 29 6q18 4 29 4t21 -3q16 29 47 29l11 -2q-3 -48 -7 -96q-7 -75 -14 -85v-3q0 -23 13 -57q-10 -21 -10 -35
q0 -28 14 -49q3 -5 20 -13.5t17 -17.5zM213 457q0 -15 -13 -25q-7 -2 -20.5 -7.5t-12.5 -5.5q-2 0 -4 1.5t-3 1.5h-3q-2 -1 -3 -1t-20 11q-1 4 -7 16l-6 12q0 9 8.5 24t17.5 17t22 2q19 0 31.5 -13.5t12.5 -32.5zM80 457q0 -15 -14 -25q-6 -2 -19.5 -7.5l-13.5 -5.5
q-1 0 -3 1.5t-4 1.5h-2q-2 -1 -3 -1q-2 0 -21 11q-1 4 -7 15.5t-6 12.5q0 8 9 23t18 17t22 2q18 0 31 -13.5t13 -31.5z" />
    <glyph glyph-name="ntilde" unicode="&#xf1;" horiz-adv-x="432" 
d="M407 2q-10 -4 -24 -4q-9 -1 -24 0q-18 1 -25 1q-26 0 -32 -12q-15 1 -44 7q28 14 34 53v66v59l9 13l-12 12v15q2 33 -24.5 56.5t-60.5 23.5q-48 0 -64 -40q-9 -24 -9 -81q0 -18 7 -27l-12 -13q7 -15 8.5 -49t7.5 -47q10 -23 39 -30q-11 -10 -42 -10q-35 0 -49 19
q-8 -1 -15 -20q-30 -4 -33 -4q-29 0 -27 21v5q36 9 45 24q6 11 6 50v76q11 14 14 24q-15 3 -19 46q-5 52 -9 58.5t-23.5 9.5t-24.5 16q12 8 49 8q17 0 38 12q17 11 35 22q6 -9 6 -46l3 -9q12 1 53 24t66 23q56 0 87 -69q26 -55 26 -119q0 -17 -3 -30l-16 -9q9 -13 12.5 -47
t12.5 -44q14 -9 34 -34zM90 451q-8 -8 -24 -23q-13 6 -17 17q15 10 41 34q2 0 20 11q14 8 19 8q36 0 80.5 -22t63.5 -22h5q5 5 46 36q15 0 15 -14q0 -10 -39 -35.5t-51 -25.5q-16 0 -41 10.5t-36 22.5l-8 -1q-3 0 -13 5.5t-16 5.5q-7 0 -21.5 -4t-23.5 -3z" />
    <glyph glyph-name="oacute" unicode="&#xf3;" horiz-adv-x="403" 
d="M360 178l-14 -10q9 -16 9 -36q0 -60 -47.5 -103.5t-106.5 -43.5q-68 0 -119 36q-55 39 -61 104q-1 13 -1 26q-3 17 -12 21v22q-2 38 43 107q20 4 56 35q32 26 79 26q62 0 109 -41.5t58 -102.5q1 -14 7 -40zM263 285q-8 2 -45 21q-27 13 -47 13q-33 0 -52 -30
q-7 -13 -21 -56q-10 -31 -22 -31q16 -57 32 -113q23 -64 85 -64q48 0 73 49q19 38 19 91q0 52 -22 120zM278 486l24 -28q-96 -5 -219 -48l-17 12l1 1q48 36 50 37q12 7 63 21q11 3 81 42z" />
    <glyph glyph-name="ograve" unicode="&#xf2;" horiz-adv-x="403" 
d="M360 178l-14 -10q9 -16 9 -36q0 -60 -47.5 -103.5t-106.5 -43.5q-68 0 -119 36q-55 39 -61 104q-1 13 -1 26q-3 17 -12 21v22q-2 38 43 107q20 4 56 35q32 26 79 26q62 0 109 -41.5t58 -102.5q1 -14 7 -40zM263 285q-8 2 -45 21q-27 13 -47 13q-33 0 -52 -30
q-7 -13 -21 -56q-10 -31 -22 -31q16 -57 32 -113q23 -64 85 -64q48 0 73 49q19 38 19 91q0 52 -22 120zM86 475l-23 -29q95 0 222 -37l16 13l-1 1q-7 1 -23 16q-20 17 -23.5 19t-34.5 9.5t-35 7.5q-17 0 -93 38z" />
    <glyph glyph-name="ocircumflex" unicode="&#xf4;" horiz-adv-x="403" 
d="M360 178l-14 -10q9 -16 9 -36q0 -60 -47.5 -103.5t-106.5 -43.5q-68 0 -119 36q-55 39 -61 104q-1 13 -1 26q-3 17 -12 21v22q-2 38 43 107q20 4 56 35q32 26 79 26q62 0 109 -41.5t58 -102.5q1 -14 7 -40zM263 285q-8 2 -45 21q-27 13 -47 13q-33 0 -52 -30
q-7 -13 -21 -56q-10 -31 -22 -31q16 -57 32 -113q23 -64 85 -64q48 0 73 49q19 38 19 91q0 52 -22 120zM65 445l23 -20q51 13 101 46q17 -9 45 -31q8 -6 62 -13l11 21q-43 10 -43 18q0 4 -31.5 32t-36.5 28h-1q-31 -14 -41 -24q-19 -19 -29 -26q-1 0 -60 -31z" />
    <glyph glyph-name="odieresis" unicode="&#xf6;" horiz-adv-x="403" 
d="M360 178l-14 -10q9 -16 9 -36q0 -60 -47.5 -103.5t-106.5 -43.5q-68 0 -119 36q-55 39 -61 104q-1 13 -1 26q-3 17 -12 21v22q-2 38 43 107q20 4 56 35q32 26 79 26q62 0 109 -41.5t58 -102.5q1 -14 7 -40zM263 285q-8 2 -45 21q-27 13 -47 13q-33 0 -52 -30
q-7 -13 -21 -56q-10 -31 -22 -31q16 -57 32 -113q23 -64 85 -64q48 0 73 49q19 38 19 91q0 52 -22 120zM293 457q0 -15 -13 -25q-7 -2 -20.5 -7.5t-12.5 -5.5q-2 0 -4 1.5t-3 1.5h-3q-2 -1 -3 -1t-20 11q-1 4 -7 16l-6 12q0 9 8.5 24t17.5 17t22 2q19 0 31.5 -13.5
t12.5 -32.5zM160 457q0 -15 -14 -25q-6 -2 -19.5 -7.5l-13.5 -5.5q-1 0 -3 1.5t-4 1.5h-2q-2 -1 -3 -1q-2 0 -21 11q-1 4 -7 15.5t-6 12.5q0 8 9 23t18 17t22 2q18 0 31 -13.5t13 -31.5z" />
    <glyph glyph-name="otilde" unicode="&#xf5;" horiz-adv-x="403" 
d="M360 178l-14 -10q9 -16 9 -36q0 -60 -47.5 -103.5t-106.5 -43.5q-68 0 -119 36q-55 39 -61 104q-1 13 -1 26q-3 17 -12 21v22q-2 38 43 107q20 4 56 35q32 26 79 26q62 0 109 -41.5t58 -102.5q1 -14 7 -40zM263 285q-8 2 -45 21q-27 13 -47 13q-33 0 -52 -30
q-7 -13 -21 -56q-10 -31 -22 -31q16 -57 32 -113q23 -64 85 -64q48 0 73 49q19 38 19 91q0 52 -22 120zM70 451q-8 -8 -24 -23q-13 6 -17 17q15 10 41 34q2 0 20 11q14 8 19 8q36 0 80.5 -22t63.5 -22h5q5 5 46 36q15 0 15 -14q0 -10 -39 -35.5t-51 -25.5q-16 0 -41 10.5
t-36 22.5l-8 -1q-3 0 -13 5.5t-16 5.5q-7 0 -21.5 -4t-23.5 -3z" />
    <glyph glyph-name="uacute" unicode="&#xfa;" horiz-adv-x="451" 
d="M440 39q-4 -8 -7 -20q-8 1 -21 -7t-20 -8q1 0 -37 9q-19 -29 -43 -28h-9q4 33 4 53q-3 -2 -26 -27q-17 -17 -32 -17l-16 7q-10 -15 -30 -15q-38 0 -80 38.5t-42 75.5q0 23 19 33l-21 16q3 30 3 52q0 75 -23 114h-3q-11 -1 -23 6t-12 18l6 11q10 -1 25 -1q19 0 56 3.5
t55 3.5q0 -1 -12 -60q-7 -35 -7 -60q0 -15 10.5 -43.5t10.5 -44.5q0 -14 -8 -25l12 -32l-10 -14q5 -12 21 -6q20 -22 52 -22q51 0 69 30q11 20 11 65v9.5v9.5q0 44 13 59q-2 5 -13 54q-9 40 -21 43t-23 5q-16 5 -16 16l1 4q7 0 23.5 3.5t25.5 3.5q24 0 38 -15q11 23 31 23
l18 -4q-4 -47 -4.5 -143t-5.5 -145q20 -10 61 -28zM308 486l24 -28q-96 -5 -219 -48l-17 12l1 1q48 36 50 37q12 7 63 21q11 3 81 42z" />
    <glyph glyph-name="ugrave" unicode="&#xf9;" horiz-adv-x="454" 
d="M440 39q-4 -8 -7 -20q-8 1 -21 -7t-20 -8q1 0 -37 9q-19 -29 -43 -28h-9q4 33 4 53q-3 -2 -26 -27q-17 -17 -32 -17l-16 7q-10 -15 -30 -15q-38 0 -80 38.5t-42 75.5q0 23 19 33l-21 16q3 30 3 52q0 75 -23 114h-3q-11 -1 -23 6t-12 18l6 11q10 -1 25 -1q19 0 56 3.5
t55 3.5q0 -1 -12 -60q-7 -35 -7 -60q0 -15 10.5 -43.5t10.5 -44.5q0 -14 -8 -25l12 -32l-10 -14q5 -12 21 -6q20 -22 52 -22q51 0 69 30q11 20 11 65v9.5v9.5q0 44 13 59q-2 5 -13 54q-9 40 -21 43t-23 5q-16 5 -16 16l1 4q7 0 23.5 3.5t25.5 3.5q24 0 38 -15q11 23 31 23
l18 -4q-4 -47 -4.5 -143t-5.5 -145q20 -10 61 -28zM116 475l-23 -29q95 0 222 -37l16 13l-1 1q-7 1 -23 16q-20 17 -23.5 19t-34.5 9.5t-35.5 7.5t-44 15t-49.5 20z" />
    <glyph glyph-name="ucircumflex" unicode="&#xfb;" horiz-adv-x="454" 
d="M440 39q-4 -8 -7 -20q-8 1 -21 -7t-20 -8q1 0 -37 9q-19 -29 -43 -28h-9q4 33 4 53q-3 -2 -26 -27q-17 -17 -32 -17l-16 7q-10 -15 -30 -15q-38 0 -80 38.5t-42 75.5q0 23 19 33l-21 16q3 30 3 52q0 75 -23 114h-3q-11 -1 -23 6t-12 18l6 11q10 -1 25 -1q19 0 56 3.5
t55 3.5q0 -1 -12 -60q-7 -35 -7 -60q0 -15 10.5 -43.5t10.5 -44.5q0 -14 -8 -25l12 -32l-10 -14q5 -12 21 -6q20 -22 52 -22q51 0 69 30q11 20 11 65v9.5v9.5q0 44 13 59q-2 5 -13 54q-9 40 -21 43t-23 5q-16 5 -16 16l1 4q7 0 23.5 3.5t25.5 3.5q24 0 38 -15q11 23 31 23
l18 -4q-4 -47 -4.5 -143t-5.5 -145q20 -10 61 -28zM85 445l23 -20q51 13 101 46q17 -9 45 -31q8 -6 62 -13l11 21q-43 10 -43 18q0 4 -31.5 32t-36.5 28h-1q-31 -14 -41 -24q-19 -19 -29 -26q-1 0 -60 -31z" />
    <glyph glyph-name="udieresis" unicode="&#xfc;" horiz-adv-x="454" 
d="M440 39q-4 -8 -7 -20q-8 1 -21 -7t-20 -8q1 0 -37 9q-19 -29 -43 -28h-9q4 33 4 53q-3 -2 -26 -27q-17 -17 -32 -17l-16 7q-10 -15 -30 -15q-38 0 -80 38.5t-42 75.5q0 23 19 33l-21 16q3 30 3 52q0 75 -23 114h-3q-11 -1 -23 6t-12 18l6 11q10 -1 25 -1q19 0 56 3.5
t55 3.5q0 -1 -12 -60q-7 -35 -7 -60q0 -15 10.5 -43.5t10.5 -44.5q0 -14 -8 -25l12 -32l-10 -14q5 -12 21 -6q20 -22 52 -22q51 0 69 30q11 20 11 65v9.5v9.5q0 44 13 59q-2 5 -13 54q-9 40 -21 43t-23 5q-16 5 -16 16l1 4q7 0 23.5 3.5t25.5 3.5q24 0 38 -15q11 23 31 23
l18 -4q-4 -47 -4.5 -143t-5.5 -145q20 -10 61 -28zM323 457q0 -15 -13 -25q-7 -2 -20.5 -7.5t-12.5 -5.5q-2 0 -4 1.5t-3 1.5h-3q-2 -1 -3 -1t-20 11q-1 4 -7 16l-6 12q0 9 8.5 24t17.5 17t22 2q19 0 31.5 -13.5t12.5 -32.5zM190 457q0 -15 -14 -25q-6 -2 -19.5 -7.5
l-13.5 -5.5q-1 0 -3 1.5t-4 1.5h-2q-2 -1 -3 -1q-2 0 -21 11q-1 4 -7 15.5t-6 12.5q0 8 9 23t18 17t22 2q18 0 31 -13.5t13 -31.5z" />
    <glyph glyph-name="dagger" unicode="&#x2020;" 
d="M198 630v-440h-127v440h127zM168 600h-67v-380h67v380z" />
    <glyph glyph-name="degree" unicode="&#xb0;" horiz-adv-x="339" 
d="M152 811q54 0 92 -37.5t38 -90.5q0 -54 -38 -91.5t-92 -37.5t-92 37.5t-38 91.5q0 53 38 90.5t92 37.5zM152 781q-41 0 -70.5 -29t-29.5 -69q0 -41 29.5 -70t70.5 -29t70.5 29t29.5 70q0 40 -29.5 69t-70.5 29z" />
    <glyph glyph-name="cent" unicode="&#xa2;" horiz-adv-x="334" 
d="M185 468h-11q-15 0 -31 3q-4 -13 -17 -34q-30 -30 -30 -79q0 -31 13 -75q10 -37 21 -74q0 3 3.5 2.5t5.5 0.5q9 -8 20 -10q17 -2 20 -3q4 49 4 51q0 1 -3.5 10t-3.5 13q0 5 3.5 14t3.5 13v52l-3 39q-1 11 11 30q-1 20 -6 47zM335 220q-43 -74 -122 -84q-5 -32 -3 -64h9
l-6 -29h-28v0q0 -2 -4 -2q-3 0 -3 2v0h7q-7 20 -7 46v47q-62 7 -109 63t-47 119q0 48 23 85q-2 47 44 75q36 22 89 29l-2 14q0 11 3 23.5t3 17.5q0 10 -5 22l28 16q7 -17 8 -29q1 -9 -1 -23q-2 -18 -2 -29l2 -10q37 0 50 -22q20 12 34 12q26 0 26 -47q0 -14 -4.5 -44.5
t-3.5 -47.5h-6q-13 0 -13 20q0 25 -1 26q-3 6 -35.5 33t-40.5 28q4 -25 4 -43q0 -15 -7 -31l5 -4q-12 -42 3 -89q-10 -13 -10 -19q0 -1 2.5 -2t1.5 -5l1 -4q-3 -44 -1 -76q25 0 40 -13l-1 4q0 12 31 37q25 20 43 29q4 -4 4 -10q0 -3 -1.5 -7.5t-1.5 -6.5q0 -4 4 -7z" />
    <glyph glyph-name="sterling" unicode="&#xa3;" horiz-adv-x="478" 
d="M116 355l28 8q-10 19 -23 56.5t-22 57.5l2 2q-6 17 -6 37q0 56 41.5 104t95.5 48q89 0 129 -23q35 -20 80 -93q-13 -41 -44 -55l-43 23q-1 -5 -4 -5q-2 0 -4 18.5t-2 47.5q-19 16 -38 33q-12 8 -72 6l-29 -1l-27 -25q1 -13 -6 -38l-17 -1q0 -13 9 -41q8 -23 6 -41l17 -17
q0 -51 33 -101l71 8l6 -48l-55 -6q30 -65 30 -142q0 -18 -18 -44q-26 -35 -28 -40q15 -27 62 -27q20 0 92 14q6 6 35 23q15 8 19 37l47 -8q-10 -63 -35 -93q-30 -35 -91 -35q-109 0 -155 48q-21 -17 -55 -27q-30 -7 -60 -15q-63 42 -63 67q0 7 8 23.5t9 25.5q59 25 72 25
q40 0 79 -25q4 4 4 50q0 98 -25 149l-11 2q-7 0 -20 -5t-20 -5q-15 0 -69 21l17 45q16 -6 50 -18zM80 62q7 -5 13 -9q19 4 37 8q24 7 34 15q-41 16 -53 16q-16 -5 -28 -10q-2 -13 -3 -20z" />
    <glyph glyph-name="section" unicode="&#xa7;" 
d="M198 630v-440h-127v440h127zM168 600h-67v-380h67v380z" />
    <glyph glyph-name="bullet" unicode="&#x2022;" horiz-adv-x="372" 
d="M315 276q0 -39 -34 -65q-11 -8 -27 -11q-19 -4 -26 -7q-1 0 -15 -8q-9 -6 -16 -6q-4 0 -9.5 4t-8.5 4t-7 -2t-7 -2q-5 0 -53 28q-2 10 -17.5 40.5t-15.5 32.5q0 23 22.5 60.5t44 42.5t58.5 5q46 0 78.5 -34.5t32.5 -81.5z" />
    <glyph glyph-name="paragraph" unicode="&#xb6;" horiz-adv-x="562" 
d="M484 -112l-14 -10l-31 5q-5 0 -23 -4q-10 -1 -25 4v-1l-25 -11q-26 6 -50 1l-12 5l-9 -2l-25 13q-9 -13 -33 -13q-4 0 -38 3l-5 4q0 14 21 22q25 9 30 16q8 13 8 60q0 14 10 40.5t10 25.5q0 29 -11 50q3 12 3 34q0 92 -15 120q-32 -6 -43 -6q-33 0 -47 15h-3
q-80 0 -119 90q-29 68 -29 163q0 35 33.5 74.5t69.5 39.5q9 0 17 -3l-1 6q-1 23 24 23q8 0 14 -3l44 15q21 0 80 -3q50 -3 80 -2l10 -10l10 -2q10 0 29.5 5.5t29.5 5.5l30 -4l1 -5v-18l-10 -3l-6 4q-49 -27 -49 -63q0 -8 2.5 -29t2.5 -36q0 -32 -15 -118q19 -12 19 -45
q0 -20 -8.5 -59.5t-8.5 -59.5q0 -34 8 -154q8 -132 13 -140.5t32 -18.5q24 -10 24 -21zM377 349l-15 20v142l15 25q-16 8 -19 18q-2 5 -2 25q0 27 -13 40q-20 -18 -15 -85l-19 -19q19 -84 19 -167q0 -12 -7.5 -34t-7.5 -34q11 -5 11 -28q0 -7 -4.5 -19.5t-4.5 -19.5v-92
q0 -196 26 -210q19 23 19 53q0 7 -1.5 24t-1.5 28q0 9 18 22q-9 20 -9 61q0 22 2 95q1 58 0 94l7 11q-11 13 -11 39zM281 488q-12 5 -14 22q0 14 -1 28q-1 6 -10 27q-8 17 -7 26q-2 0 -20 10q-14 7 -19 7q-4 0 -9.5 -3.5t-9.5 -3.5q-25 0 -30 -15q-8 -19 -21 -24
q-8 -2 -25 -8q-7 -4 -18.5 -30.5t-11.5 -35.5q0 -17 4.5 -50t4.5 -50q0 -20 28 -43.5t28 -34.5l5 -4q10 1 13 -6q24 3 26 3q6 0 18 -2t18 -2q26 0 40 14q-5 20 -5 41q0 61 16 134z" />
    <glyph glyph-name="germandbls" unicode="&#xdf;" horiz-adv-x="369" 
d="M348 608q0 -33 -67 -53l-3 16q0 20 12 37q-21 23 -43 23q-31 0 -56 -42q-28 -47 -32 -49l10 -22q-23 -51 -23 -187q0 -34 1.5 -92t1.5 -76l-15 -8q17 -7 17 -28q0 -8 -4 -24.5t-4 -24.5q0 -27 18 -42q8 -6 32 -16q18 -7 18 -15l-2 -9q-39 -4 -38 -4q-29 0 -48 20
q-10 -18 -55 -18q-27 0 -48 6l4 15q28 2 39 23q5 10 12 44q5 31 16 43l-10 21q11 1 11 67q0 87 -50 87q-6 0 -13 -1l-6 15q0 8 28.5 24.5t28.5 39.5q0 16 3.5 47t3.5 47q0 20 -4 36q13 36 37 81l14 2q15 34 47 55t69 21q30 0 61 -15q37 -18 37 -44z" />
    <glyph glyph-name="registered" unicode="&#xae;" horiz-adv-x="349" 
d="M283 522q0 -55 -40.5 -95t-95.5 -40q-56 0 -96 40t-40 95q0 56 40 96t96 40q55 0 95.5 -40t40.5 -96zM267 522q0 50 -35.5 85t-84.5 35t-85 -35t-36 -85q0 -49 36 -84t85 -35t84.5 35t35.5 84zM187 482h2q9 -7 15 -18q7 -4 19 -13l-1 -3q-4 -4 -14 -4q-3 0 -8 4
q-3 -2 -8 -3q-4 0 -28 39q-7 0 -7 14q-7 2 -11.5 9.5t-7.5 9.5l-3 -2l-2 2l-8 -1v-7q0 -2 -4 -20v0q4 0 4 -20q0 -11 14 -16l3 -5l-6 -5q-24 0 -29 6q-2 -1 -19 -6q-4 2 -4 7l1 2q14 4 13 19l4 3q-3 9 -3 13q0 11 2 31l4 1l-5 3q0 6 1 15v14q0 2 -1 4.5t-1 3.5q0 -1 3 10
l-3 2q-1 6 -1 16q0 7 -8 10t-8 7t10 6h12l7 -4l7 5q9 -1 27 -2l4 -4l7 2q39 -10 39 -57q0 -20 -13 -19l-4 -5h1q-5 -4 -11 -4l-2 -3q5 -1 13 -16t8 -21zM145 528q1 2 14 5q10 3 10 16q0 3 -1.5 8.5t-1.5 8.5q0 2 1 5l-1 1l-2 -1v2l-1 -1q-4 4 -9 8q-9 8 -17 8q-5 0 -11 -1
q-1 -2 -1 -23q0 -1 -7 -3q5 -5 5 -7q0 -1 -1 -3.5t-1 -3.5q0 -3 1 -7.5t1 -7.5q7 0 22 -4z" />
    <glyph glyph-name="copyright" unicode="&#xa9;" horiz-adv-x="751" 
d="M704 323q0 -140 -102.5 -239.5t-241.5 -99.5q-140 0 -242.5 99.5t-102.5 239.5q0 139 102.5 238.5t242.5 99.5q139 0 241.5 -99.5t102.5 -238.5zM664 323q0 123 -90.5 210.5t-213.5 87.5q-124 0 -214.5 -87.5t-90.5 -210.5q0 -124 90.5 -211.5t214.5 -87.5
q123 0 213.5 87.5t90.5 211.5zM510 481v0q1 -4 4 -14t3 -16v-60l-17 -5l-23 16l5 5l3 -8l-6 -1q-15 45 -40 81q-7 0 -30 6q-19 4 -31 4h-54q-37 -32 -73 -63q-26 -32 -26 -93q0 -29 18 -70q24 -52 27 -68q24 -10 65 -18q49 -9 65 -14q23 11 47 6l2 16q12 13 47 78l25 -10
l5 -14q0 -9 -6 -27.5t-6 -27.5l6 -17l-11 -12l18 -23l-13 -12l-1 8q-63 -21 -149 -21q-89 0 -133 46l2 8l4 -8l-9 -2q-18 0 -42 31.5t-24 53.5q0 4 1 7q-6 11 -8 25q-15 18 -15 79q0 36 14 48l-1 1q3 16 19 44q17 33 28 32l3 15q21 5 62 33q32 22 75 22l15 -6l19 8
q14 0 41 -6.5t41 -6.5q13 0 40 13q8 -12 23 -38q-6 -12 -7 -24z" />
    <glyph glyph-name="trademark" unicode="&#x2122;" horiz-adv-x="541" 
d="M430 618v3q0 30 34 30q8 0 21 -4l-4 -10q-20 -9 -20 -44q0 -26 4 -39q-5 -16 -2 -32l-4 -10l4 -8v-36q0 -1 -2 -4.5t-2 -4.5q0 -7 23 -22v-6l-6 -3l-3 1l-1 1q-20 -5 -30 5q-4 -4 -14 -5t-12 -2l-9 5q1 6 9.5 12t9.5 20q6 67 1 113l5 -1q-8 -18 -29 -51l1 -6
q0 -7 -21 -44q-12 -23 -25 -47h-3q-13 0 -14 16l-59 122l1 -10q0 -3 -1 -10t-1 -10l-2 -3q3 -9 3 -31l-4 -8q4 -2 5 -9v-12q-1 -10 -1 -11q0 -10 7.5 -16t14.5 -11q-4 -7 -11 -7q-16 0 -27 6q-3 -5 -11.5 -4.5t-11.5 -1.5q-7 1 -14 3v10q23 6 27 28q0 -2 0 41q0 4 2 13t2 13
q0 5 -2 13.5t-2 12.5q0 10 5 18q-5 8 -7 25t-9 27h-2q-9 0 -16 8v8q15 4 20 4q4 -2 9 -4l8 2q4 0 11.5 -2t9.5 -2q9 -9 8 -27q16 -18 64 -135q3 8 14 18q1 5 12 28t13 24q7 42 34 63zM74 647l7 4h9q14 1 23 -7l86 12q10 2 10 -10q0 -13 -5 -24q4 -5 4 -17q0 -14 -8 -13
q-1 0 -11 21l-24 13q-12 -1 -34 -4v-20l-6 -4q0 -7 2.5 -20t2.5 -20q0 -9 -4 -12q0 5 -6 -38q-3 -22 9 -29l4 -7l-2 -10q0 -7 11.5 -11.5t11.5 -11.5q0 -9 -17 -9q-10 0 -16 3l-7 -1l-7 3l-9 -5l-7 2q-4 -2 -19 0v9q6 5 19 9q3 14 8 23l-2 10l4 7q-2 4 -4 9q0 20 3 30h-1
q-6 4 -6 18q0 2 5 28l5 4h-1l-7 5q1 -4 1 28l-4 14q-9 -4 -14 -4q-17 0 -22 6l-5 -6q-12 -2 -17.5 -16.5t-10.5 -14.5q-8 0 -8 10q0 9 7 29l-5 4q2 22 13 22q8 0 22 -4.5t22 -4.5z" />
    <glyph glyph-name="acute" unicode="&#xb4;" horiz-adv-x="273" 
d="M268 756l24 -28q-96 -5 -219 -48l-17 12l1 1q40 32 52 38q9 5 61 20q14 4 81 42z" />
    <glyph glyph-name="dieresis" unicode="&#xa8;" horiz-adv-x="263" 
d="M282 737q0 -15 -13 -25q-7 -2 -20 -7.5l-13 -5.5q-2 0 -4 1.5t-3 1.5h-3q-2 -1 -3 -1q-2 0 -20 11q-1 4 -7 16l-6 12q0 9 8.5 24t17 17t22.5 2q19 0 31.5 -13.5t12.5 -32.5zM149 737q0 -17 -11.5 -22.5t-23.5 -10.5l-12 -5q-1 0 -3 1.5t-4 1.5h-2q-2 -1 -3 -1
q-2 0 -21 11q-1 3 -7 15t-6 13q0 9 9 23.5t17.5 16.5t22.5 2q18 0 31 -13.5t13 -31.5z" />
    <glyph glyph-name="AE" unicode="&#xc6;" horiz-adv-x="900" 
d="M856 152l-16 -37q7 -13 8 -36v-39q1 -15 4 -26l-9 -11l-36 17q-33 -18 -86 -18q-66 0 -95 24q-16 0 -28 -21q-69 0 -81 -2l-31 13q-22 -13 -76 -13l-17 14q67 35 67 148l-60 1l-29 -14q-16 9 -74 7q-66 -3 -84 1l-34 -52q-22 -38 -22 -56q0 -26 12 -30q31 -11 32 -12
l-12 -16q-14 4 -50 4q-31 1 -48 8l-34 -9q-44 0 -53 11q64 47 116 128q57 88 94 120q7 31 35.5 86t35.5 84l20 21l-3 20l54 90q30 53 45 94l38 -7l33 13q97 0 178 -10l11 -9q30 18 86 18q69 -1 89 4l12 -4v-23q1 -9 -2.5 -25t-3.5 -24h-9l-1 -5q11 -28 12 -43l-14 -15
q-13 0 -22.5 28t-23.5 28l2 9q-18 12 -58 12q-36 0 -59 17q-20 -13 -32 -13q-5 0 -18.5 3t-27.5 3q-24 0 -47 -5l-5 -7l-4 -38l5 -9l-14 -29q10 -15 11 -46v-48l1 -30l71 -1l28 12q39 -14 64 -14q35 0 39 26h8l18 -15l25 51l12 6l22 -7q-1 -3 -2 -47q-1 -29 -23 -37l19 -46
l-4 -59l-21 -8q-17 7 -17 42.5t-78 34.5v11l-4 1q-21 -9 -58 -9q-12 0 -46 2q-28 1 -43 0q-11 -14 -13 -58q-2 -54 -5 -65q7 -15 7 -39q-1 -39 -1 -40q3 -29 19 -42q9 -8 36.5 -15.5t41.5 -16.5q20 12 47 12q15 0 44.5 -5t44.5 -5q13 0 24 24.5t9 37.5l4 4q0 20 5 50l22 15
h11zM458 339q0 19 -1 56t-1 55q0 4 -4 10.5t-4 10.5l1 2l6 9q0 20 -9 60t-9 60q-14 -19 -40 -58q-11 -18 -24.5 -58.5t-23.5 -58.5q-32 -56 -33 -58q-16 -35 -16 -65q0 -3 -23.5 -52t-27.5 -54l13 -2q8 0 23.5 2t23.5 2q32 0 59 -1l8 -10l14 15q22 -2 66 -4q-7 31 -7 51
q0 15 4.5 44t4.5 44z" />
    <glyph glyph-name="Oslash" unicode="&#xd8;" horiz-adv-x="703" 
d="M166 150q1 1 59 75q23 30 74 64q24 57 90 118q98 90 109 103q-10 15 -72 81l-19 -6q-18 0 -52 11t-52 11q-100 0 -144 -59q-27 -37 -40 -120q-12 -76 -29 -90q13 -26 34 -96q17 -60 42 -92zM517 476q-94 -79 -180 -200v1q-3 -19 -30 -35q-20 -13 -41 -26q-16 -14 -39 -46
q-25 -38 -36 -49q43 -37 99 -76q104 0 147.5 16.5t69.5 63.5q9 18 53 133q7 10 16 34q-8 13 -28 86q-22 78 -31 98zM624 657l2 -4l32 -8q-32 -32 -43 -45q-24 -26 -36 -51q24 -41 26 -97l16 -7q28 -56 28 -108q0 -39 -19 -103q-21 -73 -24 -102q-29 -4 -29 -10q0 -1 1.5 -10
t1.5 -18q0 -16 -47 -54t-67 -42q-14 -3 -30 -3q-14 0 -42 3t-43 3q-8 0 -24.5 -5t-25.5 -5q-35 0 -84 21q-45 19 -75 43q-49 -21 -112 -92l-30 26q56 64 111 94q-6 7 -32 53q-22 38 -34 41q-3 14 -20 68q-14 42 -14 70q0 16 7 106q13 4 13 17q0 6 -2 17t-2 15q0 39 49 87.5
t88 50.5l8 24q14 3 61 20q37 13 62 13q32 0 75 -11l74 -20l17 6q33 -19 96 -63q18 30 67 80z" />
    <glyph glyph-name="plusminus" unicode="&#xb1;" 
d="M198 630v-440h-127v440h127zM168 600h-67v-380h67v380z" />
    <glyph glyph-name="yen" unicode="&#xa5;" horiz-adv-x="660" 
d="M366 294h149l1 -35h-153l7 -53q139 -2 146 -2l1 -28l-148 -1v-51q11 -10 13 -28v-33q0 -34 31 -42q35 -8 38 -24l-34 -7q-2 0 -46 3q-27 2 -47 -3l-22 19q-26 -19 -38 -19q-3 0 -56 6l-4 19q46 11 62 27q20 20 20 64v69h-142v30l147 -1l-3 55h-147l6 32h141
q-18 35 -63 99q-48 69 -71 89l-2 36q-21 11 -59 58q-31 41 -68 46l-11 20l9 10q5 1 22 4q13 3 21 3q13 0 44 -23l25 18q47 3 79 3l28 -13v-7l-24 -17v-19q-1 -13 7 -33q9 -24 11 -32l18 -21l-1 -17q40 -63 95 -127q22 32 74 90q3 24 34.5 61.5t32.5 53.5q-10 17 -3 35
q-5 12 -21 18q-23 9 -27 11v10q17 9 38 9q7 0 48 -5l13 -14l29 21q25 -1 75 -6l2 -11q-75 -40 -167 -153q-96 -117 -110 -194z" />
    <glyph glyph-name="mu" unicode="&#xb5;" horiz-adv-x="519" 
d="M303 341q-23 -14 -65.5 -50t-65.5 -50v-11q0 -4 -6.5 -15.5t-6.5 -15.5q0 -69 14 -99q21 -45 81 -45h55q68 0 101 23q39 27 41 92l8 3l21 -8l7 -12q-2 -61 -22 -86q9 -14 5 -47l8 -15l-13 -14q-26 0 -33 19q-27 -17 -69 -17q-17 0 -51.5 4t-50.5 4q-6 0 -17 -4.5
t-17 -4.5l-28 15q-28 -2 -45 -13l-30 13q-19 -16 -30 -15l-82 9v14q30 6 55 28q2 25 1 36l16 15q-13 24 -11 83q-13 -8 -70 -51q-1 21 -1 24q-2 14 -8 22l6 32q30 14 77 46q1 22 -8 34l13 18q0 16 -13 31v121l17 26q-15 23 -17 52q0 -2 0 54q0 20 -32 33t-32 30l16 13
l54 -19l25 13q10 -4 25 -4q6 0 17 1h16q18 0 25 -8q15 1 28 22l23 -20q0 -10 -15 -19q-22 -12 -30 -23q-18 -22 -21 -66q-2 -27 -15 -33q19 -32 19 -102l-17 -45q13 -23 14 -45q20 13 131 103z" />
    <glyph glyph-name="mu" unicode="&#x3bc;" horiz-adv-x="519" 
d="M303 341q-23 -14 -65.5 -50t-65.5 -50v-11q0 -4 -6.5 -15.5t-6.5 -15.5q0 -69 14 -99q21 -45 81 -45h55q68 0 101 23q39 27 41 92l8 3l21 -8l7 -12q-2 -61 -22 -86q9 -14 5 -47l8 -15l-13 -14q-26 0 -33 19q-27 -17 -69 -17q-17 0 -51.5 4t-50.5 4q-6 0 -17 -4.5
t-17 -4.5l-28 15q-28 -2 -45 -13l-30 13q-19 -16 -30 -15l-82 9v14q30 6 55 28q2 25 1 36l16 15q-13 24 -11 83q-13 -8 -70 -51q-1 21 -1 24q-2 14 -8 22l6 32q30 14 77 46q1 22 -8 34l13 18q0 16 -13 31v121l17 26q-15 23 -17 52q0 -2 0 54q0 20 -32 33t-32 30l16 13
l54 -19l25 13q10 -4 25 -4q6 0 17 1h16q18 0 25 -8q15 1 28 22l23 -20q0 -10 -15 -19q-22 -12 -30 -23q-18 -22 -21 -66q-2 -27 -15 -33q19 -32 19 -102l-17 -45q13 -23 14 -45q20 13 131 103z" />
    <glyph glyph-name="ordfeminine" unicode="&#xaa;" horiz-adv-x="617" 
d="M585 159q0 -65 -34 -90q3 -25 13 -73l-9 -20q-39 21 -94 24q11 -1 -98 -1q-25 0 -65 27q-39 -27 -98 -27q-34 0 -66 12q-44 -17 -106 -17l-20 4l-3 10q0 26 63 99q42 49 84 97v6v7l17 7q4 8 22 27q-1 25 21 25q10 51 102 160q109 130 112 135q-38 0 -76 1q-48 3 -68 23
l-32 -19q-9 0 -25.5 3t-24.5 3q-45 0 -119 -21q-7 -22 -14 -43q-11 -32 -23 -32l-18 7v21q-2 55 32 89l-21 10v44l31 3q98 0 140 -18q33 19 184 19q9 0 25.5 -5t25.5 -5l28 10q14 -4 25 -4q8 0 22.5 3.5t26.5 3.5q14 0 17 -30q-18 -13 -42 -44q-27 -34 -41 -45l4 -8
q0 -16 -13.5 -28.5t-26.5 -23.5l-11 -1q-187 -234 -268 -397q11 -1 31 2t29 3q56 0 90 -15q18 10 41 13q17 3 44 1q39 -1 43 -1q45 0 63 8l7 -6q11 7 24 32.5t14 39.5l17 24zM429 784l-25 22q-56 -14 -111 -51q-16 8 -50 34q-10 8 -68 15l-12 -23q47 -11 47 -20
q0 -5 35 -35.5t40 -30.5h1q21 9 41 25q32 27 35 29t67 35z" />
    <glyph glyph-name="ordmasculine" unicode="&#xba;" horiz-adv-x="377" 
d="M326 128l11 -14q-1 -11 -10 -24q-12 -17 -14 -23q-4 -30 -21 -88q-3 1 -15.5 12t-49 11t-50.5 19q-25 -21 -78 -21q-14 0 -48 2q-30 2 -47 2q3 4 69 78q53 61 53 75q8 2 25 8l-1 3q0 20 27 55q20 26 41 51q-11 10 -47 10q-106 0 -144 -41l-3 9q0 15 4.5 46t4.5 48
q13 3 35 3q26 0 59 -4q45 -6 52 -17q37 22 85 22q22 0 54 -4l3 -11l-4 -14q-20 -5 -93 -107q-46 -66 -92 -131q7 -22 48 -22q53 0 80 10q11 4 31 32q17 25 35 25zM297 461l-23 20q-51 -13 -101 -46q-13 7 -45 30q-10 8 -62 14l-11 -21q43 -10 43 -18q0 -4 31.5 -32t36.5 -28
h1q19 8 37 23q30 25 32.5 26.5t60.5 31.5z" />
    <glyph glyph-name="ae" unicode="&#xe6;" horiz-adv-x="560" 
d="M211 117q-1 0 -1 12q0 1 -2 6q4 5 4 22v4h-9q-31 0 -38 -2q-22 -7 -48 -23q-29 -20 -37 -37q7 -1 12 -6q-5 -9 -5 -16q0 -17 22 -26q17 -7 36 -7q3 0 31 11t34 13q18 4 18 7l1 1q0 4 -10 21t-8 20zM509 104l4 -15q0 -24 -18 -49q-21 -28 -45 -24q-42 -32 -75 -32
q-48 0 -63 15l-13 2l-4 -2q-3 7 -22 15q-14 5 -27 11q-28 -11 -55 -22q-33 -11 -58 -11q-30 0 -71 13q-51 16 -50 39q0 4 2.5 12.5t2.5 13.5q0 2 -3.5 6.5t-3.5 6.5q0 29 19.5 55t47.5 31l16 -6l14 13l14 -4q0 10 38 24q24 8 49 17v2l-8 58q-3 21 -41 47q-36 -10 -68 -8
l-9 -15q0 -5 4.5 -15t4.5 -15t-13 -9.5t-19 -4.5q-16 0 -31 8.5t-15 23.5q0 34 23.5 57.5t58.5 23.5q60 0 90 -10q42 -15 68 -58q23 16 62 56l19 -1q13 11 41 11q42 0 89 -38.5t47 -79.5q0 -34 -49 -34q-18 0 -40 5q-33 -39 -114 -39q-14 0 -26 2l-3 -13q0 -54 71 -114
q7 0 23 -4t25 -4q16 0 34 11l26 -1h6q9 14 19 29q14 21 23 20h3zM437 255l1 4q0 6 -3.5 18.5t-3.5 18.5q-26 26 -60 26q-33 0 -64 -24q0 -12 -8.5 -33.5t-8.5 -33.5q0 -8 7 -14q47 13 140 38z" />
    <glyph glyph-name="oslash" unicode="&#xf8;" horiz-adv-x="417" 
d="M101 110l6 3q12 19 34 49l54 48q8 7 19 37q10 27 35 43q-19 9 -38 19q-22 10 -40 10q-33 0 -52 -30q-7 -13 -21 -57q-10 -30 -22 -30q3 -8 25 -92zM57 42l-35 -57l-26 16l42 67q-11 50 -30 104l-1 26q-1 34 44 103q21 5 57 35q31 26 78 26q64 0 113 -45q6 4 23 24
q13 17 26 17l17 -17h-1l1 -3l-20 -24q-13 -15 -25 -20q17 -22 26 -56l14 -60l-14 -10q9 -16 9 -36q0 -60 -47.5 -103.5t-106.5 -43.5q-90 0 -144 57zM249 254q-27 -60 -30 -64q-19 -12 -53 -41q0 -1 -25 -39q-17 -27 -31 -29q23 -56 83 -56q48 0 73 49q19 38 19 91
q0 45 -16 101z" />
    <glyph glyph-name="questiondown" unicode="&#xbf;" horiz-adv-x="310" 
d="M23 -53q11 37 23 75q15 44 45 62q12 7 33 24l-1 7q0 13 14 30q19 22 25 37q13 30 9 76l11 12q18 0 27 -27q6 -20 6 -42q0 -40 -36 -91q-50 -68 -57 -83l-9 -3l-5 -15q10 -44 20 -87q16 -64 44 -64q58 0 58 42q0 20 -31 24v17l37 20q27 0 41.5 -18.5t14.5 -45.5
q0 -23 -19 -38q-24 -21 -29 -30q-36 -23 -51 -23q-8 0 -37 8l-14 16l-20 -9q-35 0 -53 22q-12 14 -24 51t-22 53zM126 417q0 15 11 39.5t25 24.5q9 0 30 -8t29 -15q2 -1 10.5 -25.5t8.5 -28.5q0 -18 -32 -54q-9 2 -37 2q-13 0 -36 30v2q2 6 3 17q-12 10 -12 16z" />
    <glyph glyph-name="exclamdown" unicode="&#xa1;" horiz-adv-x="215" 
d="M41 -129q0 47 16 138.5t16 137.5q0 7 13 167l20 -2l9 6h10l4 -11l-7 -19l5 -15q-6 -6 -7 -12t-1 -14q2 -11 2 -15t-3 -11t-3 -10q0 -57 22 -166.5t22 -158.5q0 -81 -61 -81l-39 16zM47 421q0 20 18 35.5t38 15.5q56 0 56 -50q0 -64 -72 -64q-16 0 -28 23t-12 40z" />
    <glyph glyph-name="logicalnot" unicode="&#xac;" 
d="M198 630v-440h-127v440h127zM168 600h-67v-380h67v380z" />
    <glyph glyph-name="florin" unicode="&#x192;" 
d="M198 630v-440h-127v440h127zM168 600h-67v-380h67v380z" />
    <glyph glyph-name="guillemotleft" unicode="&#xab;" horiz-adv-x="383" 
d="M246 309q-58 -29 -94 -93q18 -12 40 -40q25 -33 37 -41.5t37 -25.5q20 -24 69 -62l14 17q-11 29 -34 47q-41 32 -45 36q-12 13 -25 38q-10 21 -21 41q55 56 111 160l-17 10l-42 -40q-28 -28 -30 -47zM68 289q-45 -17 -72 -73q18 -12 40 -40q25 -33 37 -41.5t37 -25.5
q20 -24 69 -62l14 17q-11 11 -65 81t-60 81q55 56 111 160l-17 10l-54 -50q-37 -37 -40 -57z" />
    <glyph glyph-name="guillemotright" unicode="&#xbb;" horiz-adv-x="383" 
d="M193 226q-16 25 -56 56q-44 34 -58 52q-8 13 -27 38q-1 1 -43 24l-13 -17q10 -10 64.5 -81t59.5 -82q-11 -11 -24.5 -43t-22.5 -40q-19 -16 -37 -32q-7 -8 -27 -44l18 -10q20 21 62 62q16 10 46 34q14 14 31 41q21 35 27 42zM276 154q45 17 73 72q-19 12 -40 40
q-25 34 -37 42.5t-37 25.5q-21 23 -70 62l-13 -17q11 -11 65 -81t59 -82q-55 -56 -111 -159l18 -10l54 50q36 37 39 57z" />
    <glyph glyph-name="ellipsis" unicode="&#x2026;" horiz-adv-x="633" 
d="M573 50q0 -21 -18 -35q-10 -3 -28 -10.5l-18 -7.5q-2 0 -5 2t-5 2q-1 0 -3.5 -1t-4.5 -1t-29 15q-1 6 -9.5 23l-8.5 17q0 13 12.5 33.5t24.5 23t32 2.5q25 0 42.5 -18.5t17.5 -44.5zM153 50q0 -21 -18 -35q-10 -3 -28 -10.5l-18 -7.5q-2 0 -5 2t-5 2q-1 0 -3.5 -1
t-4.5 -1t-29 15q-1 6 -9.5 23l-8.5 17q0 13 12.5 33.5t24.5 23t32 2.5q25 0 42.5 -18.5t17.5 -44.5zM366 50q0 -21 -18 -35q-10 -3 -28 -10.5l-18 -7.5q-2 0 -5 2t-5 2q-1 0 -3.5 -1t-4.5 -1t-29 15q-1 6 -9.5 23l-8.5 17q0 13 12.5 33.5t24.5 23t32 2.5q25 0 42.5 -18.5
t17.5 -44.5z" />
    <glyph glyph-name="nonbreakingspace" unicode="&#xa0;" horiz-adv-x="224" 
 />
    <glyph glyph-name="Agrave" unicode="&#xc0;" horiz-adv-x="695" 
d="M662 7l-59 -13l-40 17l-25 -11q-12 0 -24 3.5t-17 3.5q-11 0 -26 -7l-20 14q17 8 35.5 18t18.5 23l-3 -2q2 34 -21 65q5 25 15 37q-45 6 -157 4q-100 -1 -156 11l-36 -108q0 -27 17.5 -35.5t36.5 -16.5l-12 -16q-26 0 -51 1q-36 2 -47 11q-21 -9 -49 -9q-29 0 -38 11
q74 50 117 143q8 18 58 165q32 96 76 141l-3 20q8 9 38 107q26 85 46 85q27 0 62 -103q31 -91 32 -132q33 -50 78 -147q55 -116 49 -147q31 -46 64 -104q14 -4 39 -15zM448 217q-5 7 -25 63t-20 63.5t-9 17.5q-13 14 -15 18t-24 72q-18 54 -32 63l-12 -12l3 -10
q-6 -16 -11 -32q-8 -21 -17 -28v-3q0 -16 -19 -60.5t-17 -52.5q-3 -8 -15 -10v-10q0 -17 -17 -31v-17q1 -19 -13 -34q9 -4 28 -4q13 0 37 1t29 1q32 0 59 -1l8 -10l14 15q7 -1 20 -5t20 -4q20 0 28 10zM226 765l-23 -29q95 0 222 -37l16 13l-1 1q-8 2 -25 17t-21.5 17.5
t-34.5 10t-35.5 7.5t-45 15t-50.5 21z" />
    <glyph glyph-name="Atilde" unicode="&#xc3;" horiz-adv-x="695" 
d="M662 7l-59 -13l-40 17l-25 -11q-12 0 -24 3.5t-17 3.5q-11 0 -26 -7l-20 14q17 8 35.5 18t18.5 23l-3 -2q2 34 -21 65q5 25 15 37q-45 6 -157 4q-100 -1 -156 11l-36 -108q0 -27 17.5 -35.5t36.5 -16.5l-12 -16q-26 0 -51 1q-36 2 -47 11q-21 -9 -49 -9q-29 0 -38 11
q74 50 117 143q8 18 58 165q32 96 76 141l-3 20q8 9 38 107q26 85 46 85q27 0 62 -103q31 -91 32 -132q33 -50 78 -147q55 -116 49 -147q31 -46 64 -104q14 -4 39 -15zM448 217q-5 7 -25 63t-20 63.5t-9 17.5q-13 14 -15 18t-24 72q-18 54 -32 63l-12 -12l3 -10
q-6 -16 -11 -32q-8 -21 -17 -28v-3q0 -16 -19 -60.5t-17 -52.5q-3 -8 -15 -10v-10q0 -17 -17 -31v-17q1 -19 -13 -34q9 -4 28 -4q13 0 37 1t29 1q32 0 59 -1l8 -10l14 15q7 -1 20 -5t20 -4q20 0 28 10zM240 741q-8 -8 -24 -23q-13 6 -17 17q11 11 39 31q32 22 41 22
q35 0 80 -22t64 -22h5q5 5 46 36q15 0 15 -14q0 -10 -39 -35.5t-51 -25.5q-17 0 -41.5 10.5t-35.5 22.5l-8 -1q-4 0 -13.5 5.5t-15.5 5.5q-7 0 -22 -4t-23 -3z" />
    <glyph glyph-name="Otilde" unicode="&#xd5;" horiz-adv-x="710" 
d="M189 738q-10 -9 -29 -28q-17 7 -22 21q19 12 51 41q2 1 25 14q17 10 24 10q44 0 114 -27t99 -27h6q6 6 56 45q20 -1 20 -17q0 -13 -48 -44.5t-63 -31.5q-22 0 -58 13t-50 27l-34 -1q-3 0 -16 7t-20 7q-8 0 -26 -5.5t-29 -3.5zM580 94q0 -16 -47.5 -54t-66.5 -42
q-13 -3 -29 -3q-15 0 -43 3t-43 3q-8 0 -24.5 -5t-25.5 -5q-50 0 -119.5 39.5t-99.5 82.5l-12 36q-9 30 -19 30q-3 0 -6 -2q-3 14 -20 68q-14 42 -14 70q0 16 7 106q13 4 13 17q0 6 -2 17t-2 15q0 39 49 87.5t88 50.5l8 24q13 3 61 20q37 13 62 13q32 0 75 -11l74 -20l17 6
q81 -50 102 -72q39 -42 42 -116l16 -7q28 -56 28 -108q0 -39 -19 -103q-21 -73 -24 -102q-29 -4 -29 -10q0 -1 1.5 -10t1.5 -18zM576 292q-4 5 -27 87q-25 89 -51 135q-39 71 -91 71q-18 0 -52 11t-52 11q-100 0 -143 -57q-26 -36 -40 -118q-12 -76 -30 -94
q14 -27 35.5 -89.5t36.5 -90.5q26 -47 66 -71q12 -5 33 -18q6 -8 13 -16t16 -8q124 0 187 44q70 50 83 169z" />
    <glyph glyph-name="OE" unicode="&#x152;" horiz-adv-x="1005" 
d="M560 81q-59 -58 -119 -76q-46 -14 -140 -14q-54 0 -121 39q-62 36 -98 83q-1 1 -12 36q-9 30 -19 30q-3 0 -6 -2q-3 14 -20 68q-14 42 -14 70q0 2 7 106q14 4 14 17q0 5 -2.5 16t-2.5 16q0 39 49 87.5t88 50.5l8 24q15 3 61 20q37 13 62 13q81 0 142 -26q49 -21 121 -77
q0 57 -37 81l11 17q18 -2 26 -4q15 -4 24 -12l32 17q90 0 148 -7l10 -10l35 19q120 0 143 -10v-24q0 -8 -3 -24.5t-4 -24.5h-9l-1 -4l13 -44l-14 -14q-13 0 -23 28t-23 28l2 9q-18 12 -59 12l-58 16l-28 -14q-32 8 -50 8q-23 0 -47 -5l-6 -7l-4 -39l5 -8l-13 -29
q11 -18 13 -60q2 -57 3 -64l43 -2q33 -2 52 12q39 -13 64 -13q35 0 39 26h7l19 -15l24 51l13 5l22 -6q-1 -3 -2 -48q-1 -28 -23 -37l19 -45q0 -1 -5 -59l-21 -8q-16 7 -17 29q-1 26 -8 34q-16 16 -70 14l1 11l-4 1q-20 -10 -58 -10q-12 0 -46 2q-29 2 -43 1l-1 -2
q-1 -22 -4.5 -64.5t-3.5 -65.5q0 -15 1 -30l-17 -26q12 -42 26 -54q8 -8 32 -13q28 -6 52 -21q13 8 42 8q11 0 34 -1.5t34 -1.5q60 0 60 42q0 7 -2 16l5 5q0 20 5 49l22 16h10l13 -45l-16 -36q8 -16 8 -49q-1 -37 4 -52l-9 -11l-37 16q-31 -17 -96 -17q-56 0 -85 24l-28 -21
l-80 -2l-31 12l-48 -21l-5 8l-1 -1q24 48 26 83zM566 321v-3v-3l-7 59q-4 30 -60.5 125.5t-72.5 91.5q-24 -6 -19 -6q-18 0 -52 11t-52 11q-100 0 -144 -59q-27 -37 -40 -120q-12 -76 -29 -90q14 -27 35.5 -89.5t36.5 -90.5q26 -47 66 -71q12 -5 33 -18q6 -8 13 -16t16 -8
q109 0 184 47q87 54 87 150q0 24 -6 51l8 -9z" />
    <glyph glyph-name="oe" unicode="&#x153;" horiz-adv-x="635" 
d="M507 255l1 4q0 6 -3.5 18.5t-3.5 18.5q-26 26 -60 26q-33 0 -64 -24q0 -12 -8.5 -33.5t-8.5 -33.5q0 -8 5 -13q48 12 142 37zM358 166q0 -52 70 -112q8 0 23.5 -4t24.5 -4q34 0 71.5 29.5l37.5 29.5h3l4 -14q0 -47 -56 -79q-47 -27 -98 -27q-32 0 -46 14q-30 6 -66 50
q-53 -64 -125 -64q-87 0 -133 46q-31 32 -45 88q-13 52 -15 53l-1 18q-1 41 44 111q21 5 58 35q32 26 77 26q85 0 137 -71q19 18 54 58q10 1 38 10q24 7 39 7q41 0 88 -39t47 -79q0 -45 -84 -39q-12 -10 -70 -20.5t-74 -6.5zM267 279q-11 3 -47 24q-28 16 -49 16
q-36 0 -57 -31q-14 -19 -25 -59q-10 -34 -14 -37q2 -21 12 -61l4 -2q12 -40 36 -69q30 -35 66 -35q49 0 76 53q22 43 22 97q0 32 -24 104z" />
    <glyph glyph-name="endash" unicode="&#x2013;" horiz-adv-x="285" 
d="M216 229l-150 6q-10 0 -29.5 -1.5t-28.5 -1.5h-2l6 4q0 4 -7 17l5 5q-7 1 -7 8q0 3 2 11q1 7 0 11l3 8q23 -5 53 -6q21 -1 54 0q45 1 54 1q10 -4 23 -8q18 10 41 10h17q11 -1 17 -1l2 -58q-50 -5 -53 -5z" />
    <glyph glyph-name="emdash" unicode="&#x2014;" horiz-adv-x="574" 
d="M558 232l-4 6q-19 2 -39 2q-34 0 -103 -1t-103 -1q-16 0 -47 -4.5t-46 -4.5q-26 0 -76.5 3t-75.5 3q-31 0 -56 -3l3 7q-8 19 -8 36q0 13 5 21q26 -5 70 -4q54 1 70 0q27 -2 44 -9q11 6 23 8q8 2 21 1q20 -1 24 -1h223q48 0 64 10q10 -9 10 -22q0 -5 -2.5 -16.5
t-2.5 -17.5z" />
    <glyph glyph-name="quotedblleft" unicode="&#x201c;" horiz-adv-x="362" 
d="M24 588q0 -28 29 -80q31 -56 55 -56q18 0 18 10q0 1 -22 28.5t-22 54.5q0 7 33.5 18t33.5 40q0 21 -18 40.5t-38 19.5q-30 0 -41.5 -10t-19.5 -39.5t-8 -25.5zM184 588q0 -28 29 -80q31 -56 55 -56q18 0 18 10q0 1 -22 28.5t-22 54.5q0 7 33.5 18t33.5 40q0 21 -18 40.5
t-38 19.5q-30 0 -41.5 -10t-19.5 -39.5t-8 -25.5z" />
    <glyph glyph-name="quotedblright" unicode="&#x201d;" horiz-adv-x="370" 
d="M314 588q0 -28 -29 -80q-31 -56 -55 -56q-18 0 -18 10q0 1 22 28.5t22 54.5q0 7 -33.5 18t-33.5 40q0 21 18 40.5t38 19.5q30 0 41.5 -10t19.5 -39.5t8 -25.5zM154 588q0 -28 -29 -80q-31 -56 -55 -56q-18 0 -18 10q0 1 22 28.5t22 54.5q0 7 -33.5 18t-33.5 40
q0 21 18 40.5t38 19.5q30 0 41.5 -10t19.5 -39.5t8 -25.5z" />
    <glyph glyph-name="quoteleft" unicode="&#x2018;" horiz-adv-x="206" 
d="M30 588q0 -28 29 -80q31 -56 55 -56q18 0 18 10q0 1 -22 28.5t-22 54.5q0 7 33.5 18t33.5 40q0 21 -18 40.5t-38 19.5q-30 0 -41.5 -10t-19.5 -39.5t-8 -25.5z" />
    <glyph glyph-name="quoteright" unicode="&#x2019;" horiz-adv-x="206" 
d="M161 588q0 -28 -29 -80q-31 -56 -55 -56q-18 0 -18 10q0 1 22 28.5t22 54.5q0 7 -33.5 18t-33.5 40q0 21 18 40.5t38 19.5q31 0 42 -10t19 -39.5t8 -25.5z" />
    <glyph glyph-name="divide" unicode="&#xf7;" horiz-adv-x="390" 
d="M111 366q17 0 52.5 -5.5t54.5 -5.5q21 0 62.5 3t61.5 3l54 -5l-4 -40l-50 5q-17 0 -50.5 -3t-50.5 -3q-24 0 -68 6t-56 6q-18 0 -55 -6.5t-57 -5.5v40q18 0 53 5.5t53 5.5zM144 192q0 23 16.5 40t39.5 17t39.5 -17t16.5 -40q0 -24 -16.5 -41t-39.5 -17t-39.5 17t-16.5 41
zM144 472q0 23 16.5 40t39.5 17t39.5 -17t16.5 -40q0 -24 -16.5 -41t-39.5 -17t-39.5 17t-16.5 41z" />
    <glyph glyph-name="ydieresis" unicode="&#xff;" horiz-adv-x="452" 
d="M454 341q-52 -18 -80 -81q-21 -56 -42 -111q-2 -3 -44 -108q-27 -65 -53 -104q-21 -29 -70 -124l-15 -2q-52 0 -51 35l1 7q26 3 67 65q40 59 40 88q-61 31 -61 100q0 10 2 21q-29 21 -50.5 92t-56.5 91q-25 14 -30 18q-16 11 -23 26q-2 0 139 0q71 0 71 -16
q0 -10 -26 -14t-26 -18q0 -18 13 -60q14 -47 27 -47q18 -39 57 -115q25 48 50 95q30 62 30 99q0 42 -45 48q-2 27 32 27q18 0 42 -10q23 9 56 9q36 0 46 -11zM353 457q0 -14 -13 -25q-11 -18 -28 -18q-16 0 -39 13q-1 5 -6.5 19l-5.5 14q0 9 9 24t16 17q11 2 23 2
q19 0 31.5 -13.5t12.5 -32.5zM200 457q0 -14 -14 -25q-6 -3 -19 -9q-8 -4 -13 -4q-11 0 -34 13q-1 4 -7 15.5t-6 12.5q0 8 9 23t18.5 17t21.5 2q18 0 31 -13.5t13 -31.5z" />
    <glyph glyph-name="Ydieresis" unicode="&#x178;" horiz-adv-x="667" 
d="M365 303l-3 3q-2 -13 0 -34q3 -27 3 -33q0 -18 -5 -93l-12 -13q17 -15 20 -41q4 -34 10 -45t34 -16q25 -5 29 -22l-34 -7h-93l-22 19q-29 -19 -38 -19h-54l-6 25q49 12 67 32q12 14 12 39v9.5v9.5q0 31 20 49l-19 16q-6 41 4 116l-27 43v25l-25 6q-12 24 -38.5 60.5
t-44.5 51.5l-1 36q-24 12 -57 59q-27 39 -70 45l-12 20l10 10q6 0 20.5 3.5t22.5 3.5q10 0 43 -23l26 18q47 3 79 3l27 -13v-7l-23 -17l-1 -14q0 -13 8 -35q9 -26 11 -35l17 -22l-1 -16q11 -16 95 -116q35 44 75 79q2 28 34.5 65.5t32.5 49.5q-11 16 -3 35q-5 12 -22 18
q-21 8 -26 11v10q11 9 38 9q1 0 48 -5l13 -14l29 21q25 -1 75 -7l2 -10q0 -8 -29 -20q-32 -14 -38 -21q-10 -15 -19 -30q-12 -16 -27 -21q-68 -94 -144 -193zM466 743q0 -17 -16.5 -30t-36.5 -13q-19 0 -43 13q-1 6 -8 20l-7 14q0 10 10.5 28.5t19.5 19.5q14 3 28 3
q22 0 37.5 -16t15.5 -39zM276 743q0 -17 -16.5 -30t-36.5 -13q-19 0 -43 13q-1 5 -8 19t-7 15q0 10 10.5 28t19.5 19q14 3 28 3q22 0 37.5 -16t15.5 -38z" />
    <glyph glyph-name="currency" unicode="&#xa4;" 
d="M198 630v-440h-127v440h127zM168 600h-67v-380h67v380z" />
    <glyph glyph-name="guilsinglleft" unicode="&#x2039;" horiz-adv-x="229" 
d="M61 289q-19 -7 -40.5 -30t-31.5 -43q21 -13 41 -40q27 -36 35 -43q13 -8 38 -24q19 -23 69 -62l14 17q-17 14 -32 39q-22 34 -27 40q-2 3 -36 39q-21 23 -30 44q11 11 26 35.5t23 34.5q13 14 38 45l24 45l-17 10q-27 -25 -54 -51q-38 -38 -40 -56z" />
    <glyph glyph-name="guilsinglright" unicode="&#x203a;" horiz-adv-x="229" 
d="M113 154q19 7 41 29.5t32 42.5q-21 14 -41 40q-28 36 -35 43q-14 8 -38 25q-20 23 -70 62l-13 -17q16 -15 32 -39q21 -35 26 -41q2 -2 36 -39q21 -22 30 -44q-10 -10 -25 -35t-23 -34q-14 -15 -38 -45l-25 -45l18 -10q27 25 53 50q38 39 40 57z" />
    <glyph glyph-name="daggerdbl" unicode="&#x2021;" 
d="M198 630v-440h-127v440h127zM168 600h-67v-380h67v380z" />
    <glyph glyph-name="periodcentered" unicode="&#xb7;" horiz-adv-x="265" 
d="M179 270q0 -20 -18.5 -36.5t-39.5 -16.5q-4 0 -9 2t-7 2t-3.5 -1t-4.5 -1q-1 0 -29 15q-1 7 -9.5 23.5l-8.5 16.5q0 12 12.5 33.5t23.5 22.5q16 3 33 3q25 0 42.5 -18.5t17.5 -44.5z" />
    <glyph glyph-name="periodcentered" unicode="&#x2219;" horiz-adv-x="265" 
d="M179 270q0 -20 -18.5 -36.5t-39.5 -16.5q-4 0 -9 2t-7 2t-3.5 -1t-4.5 -1q-1 0 -29 15q-1 7 -9.5 23.5l-8.5 16.5q0 12 12.5 33.5t23.5 22.5q16 3 33 3q25 0 42.5 -18.5t17.5 -44.5z" />
    <glyph glyph-name="quotesinglbase" unicode="&#x201a;" horiz-adv-x="210" 
d="M154 48q0 -28 -29 -80q-31 -56 -55 -56q-18 0 -18 10q0 1 22 28.5t22 54.5q0 7 -33.5 18t-33.5 40q0 21 18 40.5t38 19.5q30 0 41.5 -10t19.5 -39.5t8 -25.5z" />
    <glyph glyph-name="quotedblbase" unicode="&#x201e;" horiz-adv-x="370" 
d="M314 48q0 -28 -29 -80q-31 -56 -55 -56q-18 0 -18 10q0 1 22 28.5t22 54.5q0 7 -33.5 18t-33.5 40q0 21 18 40.5t38 19.5q30 0 41.5 -10t19.5 -39.5t8 -25.5zM154 48q0 -28 -29 -80q-31 -56 -55 -56q-18 0 -18 10q0 1 22 28.5t22 54.5q0 7 -33.5 18t-33.5 40
q0 21 18 40.5t38 19.5q30 0 41.5 -10t19.5 -39.5t8 -25.5z" />
    <glyph glyph-name="perthousand" unicode="&#x2030;" 
d="M198 630v-440h-127v440h127zM168 600h-67v-380h67v380z" />
    <glyph glyph-name="Acircumflex" unicode="&#xc2;" horiz-adv-x="683" 
d="M662 7l-59 -13l-40 17q-12 -11 -25 -11q-7 0 -21 4t-23 4l-23 -8l-20 14l51 39q2 34 -21 65q1 24 15 37q-2 11 -96 11q-96 0 -170 -4q-12 -1 -47 8q-3 -5 -19.5 -54.5t-16.5 -53.5q0 -28 17.5 -36t36.5 -16l-12 -16q-26 1 -53 2q-39 3 -45 10q-11 -9 -25 -9q-55 0 -62 11
q24 20 48 39q48 41 62 73q1 17 9 50q18 45 65 151q56 125 67 136l-3 20q7 9 37 106q27 86 47 86q24 0 60 -99q17 -51 33 -102l1 -34q31 -46 78 -149q55 -119 49 -145q31 -46 64 -104q14 -3 39 -15zM448 217q-9 13 -16 41.5t-13.5 38.5t-15.5 29q0 9 -1 23q-9 10 -22 29
q-13 37 -25 73q-19 55 -32 63l-12 -12l3 -10l-12 -32q-9 -22 -16 -28v-3q0 -16 -19 -61t-17 -52q-3 -8 -15 -10v-10q0 -17 -17 -31v-17q1 -19 -13 -34q7 -3 27 -4q13 0 38 1t29 1q32 0 59 -1l8 -10l14 15q7 -1 20 -5t20 -4q20 0 28 10zM215 725l23 -20q51 13 101 46
q23 -11 45 -31q6 -6 62 -13l11 21q-43 10 -43 18q0 4 -31.5 32t-36.5 28h-1l-38 -18q-11 -12 -32 -32z" />
    <glyph glyph-name="Ecircumflex" unicode="&#xca;" horiz-adv-x="528" 
d="M478 148q0 -22 -16 -36l9 -32q-5 -15 -5 -33l2 -29l6 -7l-9 -11l-37 16q-31 -16 -69 -16h-61q-11 0 -27.5 11.5t-23.5 11.5q-8 0 -14 -10.5t-14 -10.5q6 0 -40 2q-21 2 -40 -4l-31 12q-23 -12 -76 -12q-18 0 -18 13q0 14 32 18q36 42 36 169q0 54 -7 93l19 -2l1 8
q0 8 -9 19.5t-9 18.5q0 103 4 138q16 10 16 26q0 12 -23 17q-3 77 -4.5 80.5t-56.5 38.5l-5 21l14 5q50 0 80 -19l32 17q90 0 148 -7l10 -10l35 19q17 0 50 -4.5t50 -4.5q16 0 30 3l13 -4v-24q-3 -16 -7 -49h-9l-1 -4q0 -8 6 -22t7 -22l-14 -14q-12 0 -23 28t-23 28l2 9
q-19 12 -28 13q14 -1 -31 -1q-35 0 -58 16l-28 -14q-9 0 -25 4t-25 4q-24 0 -47 -5q-7 -7 -8 -20.5t-2 -25.5l5 -8l-13 -29q9 -15 9 -43q0 -10 -1.5 -30.5t-1.5 -28.5l6 -22l71 -1q13 0 28 11q9 0 30 -6.5t34 -6.5q35 0 39 26h7l19 -15l24 51l13 5l22 -6q-3 -9 -3 -21v-13
q1 -8 1 -12q0 -30 -23 -39l19 -45q-6 -6 -5 -59l-21 -8q-17 7 -17 28v7q1 5 1 7q0 37 -79 35v10l1 1l-4 1l-31 -13q-11 0 -32 5.5t-32 5.5q-9 0 -27 -2.5t-25 -2.5q-13 -15 -13 -48q0 -21 6 -36l-11 -39q0 -7 5 -19.5t5 -19.5q0 -9 -17 -26q13 -49 22 -57q3 -4 26 -6
q27 -3 62 -25q6 5 11 8.5t17 3.5h82q4 0 12.5 -5t13.5 -5q12 0 23.5 25t8.5 36l5 5q0 19 5 49l22 16h10zM135 725l23 -20q51 13 101 46q23 -11 45 -31q6 -6 62 -13l11 21q-43 10 -43 18q0 4 -31.5 32t-36.5 28h-1l-38 -18q-11 -12 -32 -32z" />
    <glyph glyph-name="Aacute" unicode="&#xc1;" horiz-adv-x="681" 
d="M662 7l-59 -13l-40 17q-12 -11 -25 -11q-7 0 -21 4t-23 4l-23 -8l-20 14l51 39q2 34 -21 65q1 24 15 37q-2 11 -96 11q-96 0 -170 -4q-12 -1 -47 8q-3 -5 -19.5 -54.5t-16.5 -53.5q0 -28 17.5 -36t36.5 -16l-12 -16q-26 1 -53 2q-39 3 -45 10q-11 -9 -25 -9q-55 0 -62 11
q24 20 48 39q48 41 62 73q1 17 9 50q18 45 65 151q56 125 67 136l-3 20q7 9 37 106q27 86 47 86q24 0 60 -99q17 -51 33 -102l1 -34q31 -46 78 -149q55 -119 49 -145q31 -46 64 -104q14 -3 39 -15zM448 217q-9 13 -16 41.5t-13.5 38.5t-15.5 29q0 9 -1 23q-9 10 -22 29
q-13 37 -25 73q-19 55 -32 63l-12 -12l3 -10l-12 -32q-9 -22 -16 -28v-3q0 -16 -19 -61t-17 -52q-3 -8 -15 -10v-10q0 -17 -17 -31v-17q1 -19 -13 -34q7 -3 27 -4q13 0 38 1t29 1q32 0 59 -1l8 -10l14 15q7 -1 20 -5t20 -4q20 0 28 10zM430 765l23 -29q-95 0 -222 -37
q-16 11 -16 13t20 17t28 19q2 1 34 9t36.5 8t81.5 38z" />
    <glyph glyph-name="Edieresis" unicode="&#xcb;" horiz-adv-x="534" 
d="M478 148q0 -22 -16 -36l9 -32q-5 -15 -5 -33l2 -29l6 -7l-9 -11l-37 16q-31 -16 -69 -16h-61q-11 0 -27.5 11.5t-23.5 11.5q-8 0 -14 -10.5t-14 -10.5q6 0 -40 2q-21 2 -40 -4l-31 12q-23 -12 -76 -12q-18 0 -18 13q0 14 32 18q36 42 36 169q0 54 -7 93l19 -2l1 8
q0 8 -9 19.5t-9 18.5q0 103 4 138q16 10 16 26q0 12 -23 17q-3 77 -4.5 80.5t-56.5 38.5l-5 21l14 5q50 0 80 -19l32 17q90 0 148 -7l10 -10l35 19q17 0 50 -4.5t50 -4.5q16 0 30 3l13 -4v-24q-3 -16 -7 -49h-9l-1 -4q0 -8 6 -22t7 -22l-14 -14q-12 0 -23 28t-23 28l2 9
q-19 12 -28 13q14 -1 -31 -1q-35 0 -58 16l-28 -14q-9 0 -25 4t-25 4q-24 0 -47 -5q-7 -7 -8 -20.5t-2 -25.5l5 -8l-13 -29q9 -15 9 -43q0 -10 -1.5 -30.5t-1.5 -28.5l6 -22l71 -1q13 0 28 11q9 0 30 -6.5t34 -6.5q35 0 39 26h7l19 -15l24 51l13 5l22 -6q-3 -9 -3 -21v-13
q1 -8 1 -12q0 -30 -23 -39l19 -45q-6 -6 -5 -59l-21 -8q-17 7 -17 28v7q1 5 1 7q0 37 -79 35v10l1 1l-4 1l-31 -13q-11 0 -32 5.5t-32 5.5q-9 0 -27 -2.5t-25 -2.5q-13 -15 -13 -48q0 -21 6 -36l-11 -39q0 -7 5 -19.5t5 -19.5q0 -9 -17 -26q13 -49 22 -57q3 -4 26 -6
q27 -3 62 -25q6 5 11 8.5t17 3.5h82q4 0 12.5 -5t13.5 -5q12 0 23.5 25t8.5 36l5 5q0 19 5 49l22 16h10zM386 743q0 -17 -16 -30q-8 -2 -24.5 -8.5t-15.5 -6.5q-2 0 -4 2t-4 2t-3.5 -1t-3.5 -1q-1 0 -25 13q-1 6 -8 20l-7 14q0 10 10.5 28.5t19.5 19.5q14 3 28 3
q22 0 37.5 -16t15.5 -39zM226 743q0 -17 -16 -30q-8 -2 -24.5 -8.5t-15.5 -6.5q-2 0 -4 2t-4 2t-3.5 -1t-3.5 -1q-1 0 -25 13q-1 5 -8 19t-7 15q0 10 10.5 28t19.5 19q14 3 28 3q22 0 37.5 -16t15.5 -38z" />
    <glyph glyph-name="Egrave" unicode="&#xc8;" horiz-adv-x="521" 
d="M478 148q0 -22 -16 -36l9 -32q-5 -15 -5 -33l2 -29l6 -7l-9 -11l-37 16q-31 -16 -69 -16h-61q-11 0 -27.5 11.5t-23.5 11.5q-8 0 -14 -10.5t-14 -10.5q6 0 -40 2q-21 2 -40 -4l-31 12q-23 -12 -76 -12q-18 0 -18 13q0 14 32 18q36 42 36 169q0 54 -7 93l19 -2l1 8
q0 8 -9 19.5t-9 18.5q0 103 4 138q16 10 16 26q0 12 -23 17q-3 77 -4.5 80.5t-56.5 38.5l-5 21l14 5q50 0 80 -19l32 17q90 0 148 -7l10 -10l35 19q17 0 50 -4.5t50 -4.5q16 0 30 3l13 -4v-24q-3 -16 -7 -49h-9l-1 -4q0 -8 6 -22t7 -22l-14 -14q-12 0 -23 28t-23 28l2 9
q-19 12 -28 13q14 -1 -31 -1q-35 0 -58 16l-28 -14q-9 0 -25 4t-25 4q-24 0 -47 -5q-7 -7 -8 -20.5t-2 -25.5l5 -8l-13 -29q9 -15 9 -43q0 -10 -1.5 -30.5t-1.5 -28.5l6 -22l71 -1q13 0 28 11q9 0 30 -6.5t34 -6.5q35 0 39 26h7l19 -15l24 51l13 5l22 -6q-3 -9 -3 -21v-13
q1 -8 1 -12q0 -30 -23 -39l19 -45q-6 -6 -5 -59l-21 -8q-17 7 -17 28v7q1 5 1 7q0 37 -79 35v10l1 1l-4 1l-31 -13q-11 0 -32 5.5t-32 5.5q-9 0 -27 -2.5t-25 -2.5q-13 -15 -13 -48q0 -21 6 -36l-11 -39q0 -7 5 -19.5t5 -19.5q0 -9 -17 -26q13 -49 22 -57q3 -4 26 -6
q27 -3 62 -25q6 5 11 8.5t17 3.5h82q4 0 12.5 -5t13.5 -5q12 0 23.5 25t8.5 36l5 5q0 19 5 49l22 16h10zM146 765l-23 -29q95 0 222 -37q16 11 16 13t-20 17t-28 19q-2 1 -34 9t-35 8q-6 0 -83 38z" />
    <glyph glyph-name="Iacute" unicode="&#xcd;" horiz-adv-x="271" 
d="M224 8l-14 -10q-10 0 -29.5 -1t-27.5 -1q-40 0 -58 17q-18 -18 -39 -18q-4 0 -11.5 1t-11.5 1q-10 0 -17 -5l-14 12l3 11q55 10 55 68q0 8 -1.5 26t-1.5 27q0 6 12 12l16 10l-16 16q0 6 -2 23q-1 14 -1 22q0 15 2 55q1 34 0 54l7 11q-11 13 -11 39l13 11l-15 20v102
l15 25q-17 9 -20 17q-1 3 -1 26q0 27 -14 41q-7 6 -26 14q-14 6 -14 13l14 13q16 -4 33 -2q28 2 31 2q11 0 20 -11.5t13 -11.5q31 21 76 21q5 0 15 -2t15 -2l1 -5v-18l-10 -3l-6 4q-50 -28 -50 -61q0 -7 3 -29t3 -38q0 -32 -15 -78q19 -11 19 -45q0 -85 -17 -122
q14 -28 15 -64q-1 41 -1 -67q0 -64 8 -81q4 -9 31 -19q24 -9 24 -20zM200 765l23 -29q-95 0 -222 -37q-16 11 -16 13t20 17t28 19q2 1 34 9t36.5 8t81.5 38z" />
    <glyph glyph-name="Icircumflex" unicode="&#xce;" horiz-adv-x="271" 
d="M224 8l-14 -10q-10 0 -29.5 -1t-27.5 -1q-40 0 -58 17q-18 -18 -39 -18q-4 0 -11.5 1t-11.5 1q-10 0 -17 -5l-14 12l3 11q55 10 55 68q0 8 -1.5 26t-1.5 27q0 6 12 12l16 10l-16 16q0 6 -2 23q-1 14 -1 22q0 15 2 55q1 34 0 54l7 11q-11 13 -11 39l13 11l-15 20v102
l15 25q-17 9 -20 17q-1 3 -1 26q0 27 -14 41q-7 6 -26 14q-14 6 -14 13l14 13q16 -4 33 -2q28 2 31 2q11 0 20 -11.5t13 -11.5q31 21 76 21q5 0 15 -2t15 -2l1 -5v-18l-10 -3l-6 4q-50 -28 -50 -61q0 -7 3 -29t3 -38q0 -32 -15 -78q19 -11 19 -45q0 -85 -17 -122
q14 -28 15 -64q-1 41 -1 -67q0 -64 8 -81q4 -9 31 -19q24 -9 24 -20zM-5 725l23 -20q51 13 101 46q23 -11 45 -31q6 -6 62 -13l11 21q-43 10 -43 18q0 4 -31.5 32t-36.5 28h-1l-38 -18q-11 -12 -32 -32z" />
    <glyph glyph-name="Idieresis" unicode="&#xcf;" horiz-adv-x="271" 
d="M224 8l-14 -10q-10 0 -29.5 -1t-27.5 -1q-40 0 -58 17q-18 -18 -39 -18q-4 0 -11.5 1t-11.5 1q-10 0 -17 -5l-14 12l3 11q55 10 55 68q0 8 -1.5 26t-1.5 27q0 6 12 12l16 10l-16 16q0 6 -2 23q-1 14 -1 22q0 15 2 55q1 34 0 54l7 11q-11 13 -11 39l13 11l-15 20v102
l15 25q-17 9 -20 17q-1 3 -1 26q0 27 -14 41q-7 6 -26 14q-14 6 -14 13l14 13q16 -4 33 -2q28 2 31 2q11 0 20 -11.5t13 -11.5q31 21 76 21q5 0 15 -2t15 -2l1 -5v-18l-10 -3l-6 4q-50 -28 -50 -61q0 -7 3 -29t3 -38q0 -32 -15 -78q19 -11 19 -45q0 -85 -17 -122
q14 -28 15 -64q-1 41 -1 -67q0 -64 8 -81q4 -9 31 -19q24 -9 24 -20zM219 738q0 -15 -13 -26q-7 -2 -20.5 -7t-12.5 -5q-2 0 -3.5 1.5t-3.5 1.5t-3 -1t-2 -1q-2 0 -21 11q-1 5 -7 16.5t-6 12.5q0 8 9 23t16 17q11 2 24 2q18 0 30.5 -13.5t12.5 -31.5zM86 737q0 -14 -13 -25
q-7 -2 -20.5 -7t-12.5 -5q-2 0 -4 1.5t-3 1.5q-2 0 -3 -1t-3 -1q-1 0 -21 11q0 5 -6.5 16.5l-6.5 11.5q0 9 9 24t18.5 16.5t21.5 1.5q18 0 31 -13t13 -32z" />
    <glyph glyph-name="Igrave" unicode="&#xcc;" horiz-adv-x="271" 
d="M224 8q0 -10 -14 -10q-5 0 -15.5 2.5t-15.5 2.5q-4 0 -13 -3.5t-13 -3.5q-40 0 -58 17q-5 -6 -17 -14q-8 -3 -50 -3q-3 0 -6.5 -2t-5.5 -2q-14 0 -14 12q0 5 3 11q8 0 23 5q16 9 26 32t10 43q0 7 -3.5 20.5t-3.5 20.5q0 5 12 12l16 10q-2 11 -16 16q0 6 -2 23
q-1 14 -1 22q0 13 2 55q1 33 0 54q7 6 7 11l-5.5 11.5t-5.5 27.5q13 7 13 11q0 9 -15 20v102q0 4 7.5 13t7.5 12q-18 10 -20 18q-1 1 -1 25q0 28 -14 41q-7 7 -26 14q-14 5 -14 13t14 13q3 0 10.5 -2t10.5 -2q7 0 21.5 2t21.5 2q12 0 20.5 -11.5t12.5 -11.5q3 0 11 6.5
t11 7.5q33 7 54 7q5 0 15 -2t15 -2q1 -2 1 -5q0 -19 0 -18q-4 -3 -10 -3q-2 0 -3 2t-3 2q-50 -28 -50 -61q0 -11 3 -33.5t3 -33.5q0 -29 -15 -78q0 -1 9.5 -13t9.5 -32q0 -88 -7 -100q-10 -17 -10 -22q0 -3 10 -20q4 -8 4 -52q0 -123 8 -140q4 -10 31 -19q24 -9 24 -20z
M26 765l-23 -29l95 -8l65 -16q62 -15 62 -13q0 1 9 7.5t6 6.5q-6 0 -47 35q-63 17 -69 17t-92 39z" />
    <glyph glyph-name="Oacute" unicode="&#xd3;" horiz-adv-x="701" 
d="M580 94q0 -16 -47.5 -54t-65 -42t-33.5 -4q-14 0 -41 3.5t-42 3.5q-8 0 -24.5 -5t-25.5 -5q-54 0 -120 40q-58 35 -99 82q-4 4 -13 38q-7 28 -18 28q-3 0 -6 -2q-3 14 -20 69q-14 42 -14 69q0 15 7 106l11 6q5 8 2 22q-4 18 -4 21q0 38 49.5 87t87.5 51l8 24q8 1 33 10
q19 8 31.5 8t30 7.5t28.5 7.5q32 0 75 -11l74 -20l17 6q85 -52 103 -71q38 -41 41 -117l16 -7q28 -57 28 -108q0 -64 -19 -121q-22 -67 -24 -84q-29 -5 -29 -8q0 -1 1.5 -10t1.5 -20zM576 292q-15 17 -15 59q0 62 -36 116l-72 92l-20 28l-8 -1t-18 -1q-18 0 -52 11t-52 11
q-103 0 -152 -75q-41 -63 -41 -170q0 -7 -7 -13t-13 -11q17 -32 35.5 -91t33.5 -85q24 -43 69 -75q12 -5 33 -18l12 -15q8 -9 17 -9q12 0 38.5 3t40.5 3q83 0 135 64q47 56 56 143q16 17 16 34zM410 765l23 -29q-95 0 -222 -37q-16 11 -16 13t20 17t28 19q2 1 34 9t36.5 8
t81.5 38z" />
    <glyph glyph-name="Ocircumflex" unicode="&#xd4;" horiz-adv-x="701" 
d="M580 94q0 -16 -47.5 -54t-65 -42t-33.5 -4q-14 0 -41 3.5t-42 3.5q-8 0 -24.5 -5t-25.5 -5q-54 0 -120 40q-58 35 -99 82q-4 4 -13 38q-7 28 -18 28q-3 0 -6 -2q-3 14 -20 69q-14 42 -14 69q0 15 7 106l11 6q5 8 2 22q-4 18 -4 21q0 38 49.5 87t87.5 51l8 24q8 1 33 10
q19 8 31.5 8t30 7.5t28.5 7.5q32 0 75 -11l74 -20l17 6q85 -52 103 -71q38 -41 41 -117l16 -7q28 -57 28 -108q0 -64 -19 -121q-22 -67 -24 -84q-29 -5 -29 -8q0 -1 1.5 -10t1.5 -20zM576 292q-15 17 -15 59q0 62 -36 116l-72 92l-20 28l-8 -1t-18 -1q-18 0 -52 11t-52 11
q-103 0 -152 -75q-41 -63 -41 -170q0 -7 -7 -13t-13 -11q17 -32 35.5 -91t33.5 -85q24 -43 69 -75q12 -5 33 -18l12 -15q8 -9 17 -9q12 0 38.5 3t40.5 3q83 0 135 64q47 56 56 143q16 17 16 34zM195 725l23 -20q51 13 101 46q23 -11 45 -31q6 -6 62 -13l11 21q-43 10 -43 18
q0 4 -31.5 32t-36.5 28h-1l-38 -18q-11 -12 -32 -32z" />
    <glyph glyph-name="Ograve" unicode="&#xd2;" horiz-adv-x="701" 
d="M580 94q0 -16 -47.5 -54t-65 -42t-33.5 -4q-14 0 -41 3.5t-42 3.5q-8 0 -24.5 -5t-25.5 -5q-54 0 -120 40q-58 35 -99 82q-4 4 -13 38q-7 28 -18 28q-3 0 -6 -2q-3 14 -20 69q-14 42 -14 69q0 15 7 106l11 6q5 8 2 22q-4 18 -4 21q0 38 49.5 87t87.5 51l8 24q8 1 33 10
q19 8 31.5 8t30 7.5t28.5 7.5q32 0 75 -11l74 -20l17 6q85 -52 103 -71q38 -41 41 -117l16 -7q28 -57 28 -108q0 -64 -19 -121q-22 -67 -24 -84q-29 -5 -29 -8q0 -1 1.5 -10t1.5 -20zM576 292q-15 17 -15 59q0 62 -36 116l-72 92l-20 28l-8 -1t-18 -1q-18 0 -52 11t-52 11
q-103 0 -152 -75q-41 -63 -41 -170q0 -7 -7 -13t-13 -11q17 -32 35.5 -91t33.5 -85q24 -43 69 -75q12 -5 33 -18l12 -15q8 -9 17 -9q12 0 38.5 3t40.5 3q83 0 135 64q47 56 56 143q16 17 16 34zM226 765l-23 -29q95 0 222 -37q16 11 16 13t-20 17t-28 19q-2 1 -34 9t-35 8
q-6 0 -83 38z" />
    <glyph glyph-name="Uacute" unicode="&#xda;" horiz-adv-x="669" 
d="M661 641l-10 -13q-13 -4 -44 -44q-3 -28 -19 -42l15 -30q-6 -16 -8 -33q-1 -12 0 -32q1 -27 1 -33q0 -24 -17 -52q17 -19 17 -47q0 -99 -21 -115q-1 -3 2.5 -12.5t3.5 -12.5q0 -19 -18 -44l1 -16q3 -48 -77 -89q-70 -37 -124 -37q-82 0 -110 19l-17 -5l-36 23l-17 -6
q-37 0 -59 42q-16 32 -19 73q-6 6 -20 6q-6 0 -6 29q0 17 -8 55t-8 57q0 13 8.5 36.5t8.5 36.5q0 15 -10 20q3 16 0 29q-5 17 -5 25q0 32 3 44t19 41l-23 18q-4 53 -18 88q-14 4 -40 12l4 25l19 2q9 0 37 -5.5t32 -9.5l21 11q15 -6 26 -6q7 0 20.5 4t26.5 4q23 0 36 -11
l-7 -20q-28 -8 -38 -30.5t-20 -44.5l-20 -13q2 -3 8 -21t6 -21v-95l-14 -24l9 -23q-3 -16 -3 -144q0 -64 51 -100q43 -22 85 -43l39 -22q8 0 18 7.5t29 7.5q85 0 124 67q33 57 27 146l17 11q-15 17 -15 101q0 2 4 71l19 26q0 9 -10.5 13t-13 12.5t-0.5 24.5q3 25 3 28
q0 36 -15 49q-2 2 -43 23v20l33 7q12 0 59 -17q17 16 35 16q6 0 15 -1.5t14 -1.5q10 0 18 6zM430 765l23 -29q-95 0 -222 -37q-16 11 -16 13t20 17t28 19q2 1 34 9t36.5 8t81.5 38z" />
    <glyph glyph-name="Ucircumflex" unicode="&#xdb;" horiz-adv-x="678" 
d="M661 641l-10 -13q-13 -4 -44 -44q-3 -28 -19 -42l15 -30q-6 -16 -8 -33q-1 -12 0 -32q1 -27 1 -33q0 -24 -17 -52q17 -19 17 -47q0 -99 -21 -115q-1 -3 2.5 -12.5t3.5 -12.5q0 -19 -18 -44l1 -16q3 -48 -77 -89q-70 -37 -124 -37q-82 0 -110 19l-17 -5l-36 23l-17 -6
q-37 0 -59 42q-16 32 -19 73q-6 6 -20 6q-6 0 -6 29q0 17 -8 55t-8 57q0 13 8.5 36.5t8.5 36.5q0 15 -10 20q3 16 0 29q-5 17 -5 25q0 32 3 44t19 41l-23 18q-4 53 -18 88q-14 4 -40 12l4 25l19 2q9 0 37 -5.5t32 -9.5l21 11q15 -6 26 -6q7 0 20.5 4t26.5 4q23 0 36 -11
l-7 -20q-28 -8 -38 -30.5t-20 -44.5l-20 -13q2 -3 8 -21t6 -21v-95l-14 -24l9 -23q-3 -16 -3 -144q0 -64 51 -100q43 -22 85 -43l39 -22q8 0 18 7.5t29 7.5q85 0 124 67q33 57 27 146l17 11q-15 17 -15 101q0 2 4 71l19 26q0 9 -10.5 13t-13 12.5t-0.5 24.5q3 25 3 28
q0 36 -15 49q-2 2 -43 23v20l33 7q12 0 59 -17q17 16 35 16q6 0 15 -1.5t14 -1.5q10 0 18 6zM215 725l23 -20q51 13 101 46q23 -11 45 -31q6 -6 62 -13l11 21q-43 10 -43 18q0 4 -31.5 32t-36.5 28h-1l-38 -18q-11 -12 -32 -32z" />
    <glyph glyph-name="Ugrave" unicode="&#xd9;" horiz-adv-x="683" 
d="M661 641l-10 -13q-13 -4 -44 -44q-3 -28 -19 -42l15 -30q-6 -16 -8 -33q-1 -12 0 -32q1 -27 1 -33q0 -24 -17 -52q17 -19 17 -47q0 -99 -21 -115q-1 -3 2.5 -12.5t3.5 -12.5q0 -19 -18 -44l1 -16q3 -48 -77 -89q-70 -37 -124 -37q-82 0 -110 19l-17 -5l-36 23l-17 -6
q-37 0 -59 42q-16 32 -19 73q-6 6 -20 6q-6 0 -6 29q0 17 -8 55t-8 57q0 13 8.5 36.5t8.5 36.5q0 15 -10 20q3 16 0 29q-5 17 -5 25q0 32 3 44t19 41l-23 18q-4 53 -18 88q-14 4 -40 12l4 25l19 2q9 0 37 -5.5t32 -9.5l21 11q15 -6 26 -6q7 0 20.5 4t26.5 4q23 0 36 -11
l-7 -20q-28 -8 -38 -30.5t-20 -44.5l-20 -13q2 -3 8 -21t6 -21v-95l-14 -24l9 -23q-3 -16 -3 -144q0 -64 51 -100q43 -22 85 -43l39 -22q8 0 18 7.5t29 7.5q85 0 124 67q33 57 27 146l17 11q-15 17 -15 101q0 2 4 71l19 26q0 9 -10.5 13t-13 12.5t-0.5 24.5q3 25 3 28
q0 36 -15 49q-2 2 -43 23v20l33 7q12 0 59 -17q17 16 35 16q6 0 15 -1.5t14 -1.5q10 0 18 6zM226 765l-23 -29q95 0 222 -37q16 11 16 13t-20 17t-28 19q-2 1 -34 9t-35 8q-6 0 -83 38z" />
    <glyph glyph-name="circumflex" unicode="&#x2c6;" horiz-adv-x="352" 
d="M135 725l23 -20q51 13 101 46q23 -11 45 -31q6 -6 62 -13l11 21q-43 10 -43 18q0 4 -31.5 32t-36.5 28h-1l-38 -18q-11 -12 -32 -32z" />
    <glyph glyph-name="tilde" unicode="&#x2dc;" horiz-adv-x="317" 
d="M104 720l-14 1q-8 -8 -24 -23q-13 6 -17 17q15 10 41 34q2 1 20 11q15 8 19 8q38 0 81 -22t63 -22h5q4 5 46 36q15 0 15 -14q0 -10 -39 -35.5t-51 -25.5q-16 0 -41.5 10.5t-35.5 22.5l-8 -1q-2 0 -12.5 5.5t-16.5 5.5q-15 0 -31 -8z" />
    <glyph glyph-name="macron" unicode="&#xaf;" horiz-adv-x="245" 
d="M47 739q13 0 39.5 1t39.5 1q9 0 26 3.5t25 3.5q7 0 21 -2.5t21 -2.5q5 0 20 2.5t24 2.5v-40q-9 1 -23 -3t-19 -4q-7 0 -21 4t-21 4q-5 0 -16 -3t-17 -3l-88 -1q-37 0 -45 7v39q29 -9 34 -9z" />
    <glyph glyph-name="macron" unicode="&#x2c9;" horiz-adv-x="245" 
d="M47 739q13 0 39.5 1t39.5 1q9 0 26 3.5t25 3.5q7 0 21 -2.5t21 -2.5q5 0 20 2.5t24 2.5v-40q-9 1 -23 -3t-19 -4q-7 0 -21 4t-21 4q-5 0 -16 -3t-17 -3l-88 -1q-37 0 -45 7v39q29 -9 34 -9z" />
    <glyph glyph-name="cedilla" unicode="&#xb8;" horiz-adv-x="281" 
d="M140 13q-10 -19 -28 -50q35 5 29 5q10 0 25 -16t15 -26v-29q0 -31 -70 -50l-53 25l10 23h19l27 -13q14 5 19 7.5t15 12.5v20q-5 6 -11 13q-12 -2 -35 -2q-22 0 -22 14q0 29 33 64z" />
    <glyph glyph-name="notequal" unicode="&#x2260;" 
d="M198 630v-440h-127v440h127zM168 600h-67v-380h67v380z" />
    <glyph glyph-name="infinity" unicode="&#x221e;" 
d="M198 630v-440h-127v440h127zM168 600h-67v-380h67v380z" />
    <glyph glyph-name="lessequal" unicode="&#x2264;" 
d="M198 630v-440h-127v440h127zM168 600h-67v-380h67v380z" />
    <glyph glyph-name="greaterequal" unicode="&#x2265;" 
d="M198 630v-440h-127v440h127zM168 600h-67v-380h67v380z" />
    <glyph glyph-name="partialdiff" unicode="&#x2202;" horiz-adv-x="265" 
d="M227 318q-36 -40 -85 -68l-2 -27q-1 -8 4.5 -23.5t5.5 -23.5q0 -13 -3 -39t-3 -38q0 -59 54 -94q-12 -12 -41 -12q-41 0 -39 23q-28 -6 -86 -14q0 13 12 20.5t24 13.5q1 22 3 45q3 33 12 39q-11 26 -10 87q-14 -8 -71 -51q1 8 -2 21t-3 19l3 26q20 9 73 50v276
q0 36 -13.5 53.5t-48.5 22.5l5 5l-10 6q3 1 70 10q37 35 56 35q16 0 16 -32q0 -23 -8.5 -70.5t-8.5 -68.5q0 -12 6.5 -35t6.5 -35l-1 -120q13 5 84 55v-56z" />
    <glyph glyph-name="summation" unicode="&#x2211;" horiz-adv-x="429" 
d="M382 167q0 -21 -6 -30.5t-25 -19.5l4 -19q0 -23 -48 -53q-34 -19 -69 -39l-19 17h-6q-21 -30 -86 -30q-46 0 -61 17q-9 0 -15.5 -16t-16.5 -16l-19 8q1 -10 1 54q0 36 -15 59l15 23q-13 15 -13 38q0 36 22 36q16 0 29 -26q8 -20 17 -40l-3 -11l8 -21l15 6l4 -17
q4 -2 12.5 -15t14.5 -13q56 0 89 17l76 44q3 19 4 55l15 8q-17 12 -26 25.5t-18 27.5q-13 17 -47 38q-37 22 -50 35l5 15q-5 9 -25 9t-58.5 31t-38.5 50l15 19v7l-5 4l-16 -6q-19 0 -19 51q0 38 23 89q28 60 62 60q6 0 11 -2l4 2q22 29 83 29q9 0 18 -9.5t14 -9.5l24 15
l30 -11q10 0 23 13.5t22 13.5q16 0 16 -40v-16l-16 -25q20 -28 20 -57l-14 -36q-13 0 -20 21q-6 15 -11 31q-9 15 -37 29.5t-37 24.5l-31 -12l-29 6q-3 0 -25 -21.5t-44 -21.5l-12 -11l10 -8l-1 -28q-1 -39 51 -79q13 -37 139 -104l5 -15l-9 -17l4 -3l22 4q26 0 47 -56
q17 -45 17 -78zM327 781l-23 20q-51 -13 -101 -46q-13 7 -45 30q-10 8 -62 14l-11 -21q43 -10 43 -18q0 -4 31.5 -32t36.5 -28h1q19 8 37 23q30 25 32.5 26.5t60.5 31.5z" />
    <glyph glyph-name="product" unicode="&#x220f;" horiz-adv-x="367" 
d="M297 228l-11 -10q-9 4 -15 30q-7 30 -12 37t-29.5 23t-28.5 28q-3 -6 -15 -7q-8 -1 -23 0q-19 1 -18 1q-56 0 -56 -50q0 -32 23 -38.5t46 -11.5q7 -3 27 -17q15 -11 30 -11q38 0 71.5 -31.5t33.5 -69.5q0 -35 -36 -50q-23 -62 -115 -62q-16 0 -48.5 3.5t-48.5 3.5
q-8 0 -16 -12q-6 -8 -12 -17q-11 12 -13 38q-1 24 5 41l-32 83h8q15 1 34 -24q28 -35 42 -47q33 -25 81 -25q76 0 76 40q0 29 -25 46t-28 27q-39 6 -136 45q1 10 -2.5 19.5t-12.5 7.5q-13 24 -13 44q0 38 17 58q10 11 32 21t27 19q55 8 99 8q54 0 96 -12q-13 -14 -13 -30
q0 -12 10 -32t10 -31q0 -10 -9 -35zM287 481l-23 20q-51 -13 -101 -46q-13 7 -45 30q-10 8 -62 14l-11 -21q43 -10 43 -18q0 -4 31.5 -32t36.5 -28h1q19 8 37 23q30 25 32.5 26.5t60.5 31.5z" />
    <glyph glyph-name="pi" unicode="&#x3c0;" horiz-adv-x="656" 
d="M365 303l-3 3q-2 -13 0 -34q3 -27 3 -33q0 -19 -5 -93l-12 -13q14 -12 18 -41q5 -34 11.5 -44.5t34.5 -16.5q25 -6 29 -22l-34 -7h-93l-22 19q-27 -19 -38 -19h-54l-6 25q49 12 66 32q12 14 12 39v8.5v8.5q0 33 21 51l-19 16q-6 42 4 116l-27 43v25l-25 6q-36 72 -83 112
l-1 36q-22 11 -58 58q-30 40 -69 46l-12 20l10 10l20 4t23 3q11 0 43 -23l26 18q47 3 79 3l27 -13v-7l-23 -17l-1 -19q0 -13 8 -33q9 -23 11 -32l17 -22l-1 -16q10 -16 95 -116q21 27 66 75q3 27 39 66t37 53q-10 16 -3 35q-5 12 -22 18q-22 8 -26 11v10q13 9 38 9
q4 0 48 -5l13 -14l29 21q25 -1 75 -7l2 -10q0 -7 -30 -21q-33 -16 -37 -20q-22 -23 -44 -45q-16 -19 -27 -58q-49 -23 -81 -118l-24 -11zM416 769l30 -27q-102 -5 -226 -49l-16 12l1 1q39 32 52 38q9 5 61 20q13 4 81 43z" />
    <glyph glyph-name="integral" unicode="&#x222b;" horiz-adv-x="480" 
d="M479 341q-51 -17 -80 -81q-21 -56 -42 -111q-43 -98 -167 -336l-15 -2q-52 0 -51 35l1 7q28 4 67 63t40 90q-66 34 -59 121q-30 21 -51 93q-21 69 -56 90q-15 9 -30.5 19.5t-22.5 24.5q-1 0 144 0q66 0 66 -16q0 -11 -26 -14t-26 -18q0 -19 13 -59q14 -46 27 -48
q18 -39 57 -115q26 47 51 94q29 59 29 100q0 42 -45 48q-3 27 32 27q19 0 42 -10q24 9 64 9q28 0 38 -11zM328 476l24 -28q-96 -5 -219 -48l-17 12l1 1q40 32 52 38q9 5 61 20q14 4 81 42z" />
    <glyph glyph-name="Omega" unicode="&#x3a9;" horiz-adv-x="689" 
d="M438 252l-4 6q-18 2 -45 2q-31 0 -102 -6q-65 -5 -101 -4q6 -21 30 -73q21 -45 27 -74q37 -16 103 -31q79 -16 104 -25l47 17l24 -6q6 12 23 32t23 29l10 28q8 20 17 21l25 -101q-9 -26 0 -38h-11l-1 -10l-40 2q-30 1 -86 -15.5t-84 -16.5q-10 0 -30.5 3.5t-32.5 3.5
q-27 0 -74 23t-57 45l-11 -4q-23 0 -52.5 45.5t-29.5 75.5q0 7 2 11q-12 23 -15 51l-10 11q-22 2 -79 -2l3 7l-6 14l5 5l-7 13l5 25q21 -4 68 -5q-3 43 0 74q-7 0 -68 -3l3 7l-6 14l5 5l-7 13l5 25q26 -5 87 -5q5 20 50 108l6 -2l15 30q12 1 41 24q38 28 62 40q44 22 91 22
l22 -11l30 13q21 0 61.5 -10.5t61.5 -10.5q8 0 21 4t20 4l18 13l21 -45l-9 -27l-10 -4v-8l6 -6q1 -16 9 -44l-22 -18q-19 0 -41.5 37.5t-27.5 38.5q-72 20 -103 20h-82q-32 0 -88 -71q-51 -64 -62 -102l7 -3q22 13 83 13q24 0 66 -2.5t53 -2.5l33 10q9 -8 10 -32l1 -37l-4 6
q-18 2 -45 2q-33 0 -107 -5q-70 -5 -108 -4l-2 -42l2 -29l18 -7q22 13 83 13q24 0 66 -2.5t53 -2.5l33 10q9 -8 10 -32z" />
    <glyph glyph-name="Omega" unicode="&#x2126;" horiz-adv-x="689" 
d="M438 252l-4 6q-18 2 -45 2q-31 0 -102 -6q-65 -5 -101 -4q6 -21 30 -73q21 -45 27 -74q37 -16 103 -31q79 -16 104 -25l47 17l24 -6q6 12 23 32t23 29l10 28q8 20 17 21l25 -101q-9 -26 0 -38h-11l-1 -10l-40 2q-30 1 -86 -15.5t-84 -16.5q-10 0 -30.5 3.5t-32.5 3.5
q-27 0 -74 23t-57 45l-11 -4q-23 0 -52.5 45.5t-29.5 75.5q0 7 2 11q-12 23 -15 51l-10 11q-22 2 -79 -2l3 7l-6 14l5 5l-7 13l5 25q21 -4 68 -5q-3 43 0 74q-7 0 -68 -3l3 7l-6 14l5 5l-7 13l5 25q26 -5 87 -5q5 20 50 108l6 -2l15 30q12 1 41 24q38 28 62 40q44 22 91 22
l22 -11l30 13q21 0 61.5 -10.5t61.5 -10.5q8 0 21 4t20 4l18 13l21 -45l-9 -27l-10 -4v-8l6 -6q1 -16 9 -44l-22 -18q-19 0 -41.5 37.5t-27.5 38.5q-72 20 -103 20h-82q-32 0 -88 -71q-51 -64 -62 -102l7 -3q22 13 83 13q24 0 66 -2.5t53 -2.5l33 10q9 -8 10 -32l1 -37l-4 6
q-18 2 -45 2q-33 0 -107 -5q-70 -5 -108 -4l-2 -42l2 -29l18 -7q22 13 83 13q24 0 66 -2.5t53 -2.5l33 10q9 -8 10 -32z" />
    <glyph glyph-name="radical" unicode="&#x221a;" 
d="M198 630v-440h-127v440h127zM168 600h-67v-380h67v380z" />
    <glyph glyph-name="approxequal" unicode="&#x2248;" 
d="M198 630v-440h-127v440h127zM168 600h-67v-380h67v380z" />
    <glyph glyph-name="approxequal" unicode="&#x22f2;" 
d="M198 630v-440h-127v440h127zM168 600h-67v-380h67v380z" />
    <glyph glyph-name="Delta" unicode="&#x394;" 
d="M198 630v-440h-127v440h127zM168 600h-67v-380h67v380z" />
    <glyph glyph-name="Delta" unicode="&#x2206;" 
d="M198 630v-440h-127v440h127zM168 600h-67v-380h67v380z" />
    <glyph glyph-name="lozenge" unicode="&#x25ca;" 
d="M198 630v-440h-127v440h127zM168 600h-67v-380h67v380z" />
    <glyph glyph-name="fraction" unicode="&#x2044;" 
d="M198 630v-440h-127v440h127zM168 600h-67v-380h67v380z" />
    <glyph glyph-name="fi" unicode="&#xf001;" horiz-adv-x="400" 
d="M366 -8q-4 1 -41 5q-24 2 -36 15q-13 -14 -75 -14q-7 0 -20 17q68 26 68 81q0 6 -4 56q-3 34 2 56q-3 5 -1 25l3 27q0 31 -8 40q-5 6 -21 7q-20 0 -32 6q-12 -7 -33 -7q-19 0 -52 7q-3 -18 -11 -51q16 -17 16 -46q0 -13 -4.5 -36t-5.5 -33q11 -15 13 -49q1 -38 7 -50
q11 -22 45 -23q-3 -24 -36 -24q-17 0 -42 10q-13 -8 -35 -8q6 0 -64 3q3 15 22 22q16 5 32 9l-10 9q8 21 8 57q0 43 2 57q17 2 17 20l-3 20l-11 -10q1 -7 1 66q0 9 -3 23q-4 18 -5 24q-5 1 -31 1l-22 5q-2 -8 -2 25q0 6 8 18h22q25 0 31 61t11 121q11 67 47 77q10 32 47 51
q32 16 69 16q36 0 62.5 -23.5t26.5 -58.5q0 -5 -22 -36q0 -6 -10 -6q-25 0 -37 6t-22 26q2 10 10 22q11 16 13 20l-25 13q-42 -2 -62 -29q-26 -35 -32 -38q8 -22 8 -31t-9 -21q-11 -17 -13 -20q11 -77 0 -150l23 -7q29 0 58 10l27 -8q22 8 71 8q15 0 36 -3q-4 -15 -8 -95
q-4 -74 -10 -82v-3q0 -23 13 -57q-10 -21 -10 -35q0 -30 13 -47q7 -8 25 -18q13 -8 13 -15z" />
    <glyph glyph-name="fl" unicode="&#xf002;" horiz-adv-x="431" 
d="M199 637q-13 -8 -33.5 -32t-34.5 -31q9 -24 9 -40l-2 -13l-21 -19q11 -77 0 -150l23 -7q29 0 58 10q13 -18 13 -28q0 -22 -39 -22q-23 0 -56 8q-3 -18 -11 -51q16 -17 16 -46q0 -13 -4.5 -36t-5.5 -33q11 -15 13 -49q1 -38 7 -50q11 -22 45 -23q-3 -24 -36 -24
q-17 0 -42 10q-13 -8 -35 -8q6 0 -64 3q3 15 22 22q16 5 32 9l-10 9q8 21 8 57q0 43 2 57q17 2 17 20l-3 20l-11 -10q1 -7 1 66q0 9 -3 23q-4 18 -5 24q-5 1 -31 1l-22 5q0 12 1 23t9 25l18 -5q25 0 31 61t11 121q11 67 47 77q10 32 42 50q28 17 64 17q51 0 67 -20
q25 22 46 22q16 0 16 -32q0 -11 -6.5 -52t-6.5 -57q0 -11 2 -16l-6 -14q0 -12 6.5 -35t6.5 -35q0 -30 -2 -106q-2 -67 -2 -105q0 -7 5 -25t5 -27q0 -13 -3 -38.5t-3 -38.5q0 -59 54 -94q-12 -12 -41 -12q-40 0 -39 23q-28 -6 -86 -14q0 14 12 21t24 13q2 23 3 45q3 34 12 39
q-6 15 -6 40q0 15 3 45t3 42q0 34 -8 101.5t-8 100.5q0 17 3 50t3 49q0 31 -21 55t-53 34z" />
    <glyph glyph-name="apple" unicode="&#xf000;" 
d="M198 630v-440h-127v440h127zM168 600h-67v-380h67v380z" />
    <glyph glyph-name="dotlessi" unicode="&#x131;" horiz-adv-x="233" 
d="M186 -8q-4 1 -41 5q-24 2 -36 15q-16 -18 -58 -18q-31 0 -41 11q71 26 71 116q0 13 -2 41.5t-2 42.5q0 26 4 44q-5 10 -16 28l1 10q0 15 -23.5 17.5t-24.5 17.5q6 1 29 6q18 4 30 4q11 0 20 -3q16 29 47 29l11 -2l-8 -96q-6 -77 -13 -85v-3q0 -23 13 -57q-10 -21 -10 -35
q0 -25 14 -49q3 -6 20 -14t17 -17z" />
    <glyph glyph-name="breve" unicode="&#x2d8;" horiz-adv-x="252" 
d="M213 766q5 8 20 41l37 -17q-16 -34 -18 -37q-13 -21 -30 -26q-4 -1 -18 -10t-22 -9h-49q-31 0 -65 18q-40 22 -40 51v20h40v-16q20 -33 69 -33h43l-1 1q11 6 34 17z" />
    <glyph glyph-name="dotaccent" unicode="&#x2d9;" horiz-adv-x="237" 
d="M173 730q0 -20 -18 -35q-6 -5 -16 -7t-13 -3q-18 -8 -17 -8q-3 0 -5.5 2t-4.5 2t-3.5 -1t-4.5 -1q-1 0 -29 15q-1 7 -9.5 23.5l-8.5 16.5q0 12 12.5 33t23.5 23q16 3 33 3q25 0 42.5 -18.5t17.5 -44.5z" />
    <glyph glyph-name="ring" unicode="&#x2da;" horiz-adv-x="242" 
d="M115 695q-29 0 -51 19.5t-22 48.5q0 28 22 47.5t51 19.5t51 -19.5t22 -47.5q0 -29 -22 -48.5t-51 -19.5zM115 800q-17 0 -30 -10.5t-13 -26.5q0 -17 13 -27.5t30 -10.5t30 10.5t13 27.5q0 16 -13 26.5t-30 10.5z" />
    <glyph glyph-name="hungarumlaut" unicode="&#x2dd;" horiz-adv-x="250" 
d="M77 806l-69 -111l42 -3q20 26 60 77l26 33q1 2 4 4h-63zM185 806l-80 -114h49l93 114h-62z" />
    <glyph glyph-name="ogonek" unicode="&#x2db;" horiz-adv-x="223" 
d="M117 15q-32 -3 -36 -5q-8 -4 -21 -27q-11 -14 -21.5 -29t-10.5 -35q0 -9 6 -26.5t6 -27.5q18 -9 34 -25q8 -9 32 -9q6 0 16 4t16 4q13 0 20 49q-7 7 -12 8q-21 -31 -26 -31q-13 0 -43 20q-10 36 -10 48l1 7q10 11 11 20l-3 5q0 5 41 50z" />
    <glyph glyph-name="caron" unicode="&#x2c7;" horiz-adv-x="333" 
d="M337 781l-23 20q-51 -13 -101 -46q-23 11 -45 31q-6 6 -62 13l-11 -21q43 -10 43 -18q0 -4 31.5 -32t36.5 -28h1l38 18q11 12 32 32z" />
  </font>
</defs>
</svg>
