<?xml version="1.0" standalone="no"?>
<!DOCTYPE svg PUBLIC "-//W3C//DTD SVG 1.1//EN" "http://www.w3.org/Graphics/SVG/1.1/DTD/svg11.dtd" >
<svg>
<metadata>
Created by FontForge 20120731 at Thu Apr 18 08:16:13 2019
 By www-data
Digitized by Dan X. Solo. Software (c) 1999 by Dover Publications, Inc., New York.
</metadata>
<defs>
<font id="Headhunter" horiz-adv-x="1002" >
  <font-face 
    font-family="Headhunter"
    font-weight="400"
    font-stretch="normal"
    units-per-em="1000"
    panose-1="0 0 4 0 0 0 0 0 0 0"
    ascent="800"
    descent="-200"
    x-height="683"
    cap-height="697"
    bbox="-66 -215.267 990 848"
    underline-thickness="20"
    underline-position="-123"
    unicode-range="U+0020-F002"
  />
<missing-glyph horiz-adv-x="500" 
d="M63 0v800h375v-800h-375zM125 63h250v675h-250v-675z" />
    <glyph glyph-name=".notdef" horiz-adv-x="500" 
d="M63 0v800h375v-800h-375zM125 63h250v675h-250v-675z" />
    <glyph glyph-name="glyph1" horiz-adv-x="0" 
 />
    <glyph glyph-name="glyph2" horiz-adv-x="198" 
 />
    <glyph glyph-name="space" unicode=" " horiz-adv-x="198" 
 />
    <glyph glyph-name="exclam" unicode="!" horiz-adv-x="178" 
d="M109 560v-126q0 -7 5 -13q-1 -29 2 -79q3 -56 3 -78q0 -24 -11 -38q-7 -8 -32 -25q-41 41 -41 63q0 1 11.5 28t12.5 36q4 27 4 91v84q0 42 -29.5 101t-29.5 54q0 17 19 17q4 0 21 -7.5t21 -7.5q15 0 31 11.5t19 11.5q9 0 18 -9.5t9 -18.5q0 -1 -16.5 -38.5t-16.5 -56.5z
M118 -1q-10 0 -27 14.5t-31 14.5q-3 0 -10.5 -1.5t-11.5 -1.5q-21 0 -21 21q0 12 7 16q16 4 63 32q14 10 17 10q9 0 21 -42q9 -32 12 -53q-11 -10 -19 -10z" />
    <glyph glyph-name="quotedbl" unicode="&#x22;" horiz-adv-x="359" 
d="M266 607q-7 -33 -7 -43q0 -3 2.5 -6.5t2.5 -6.5q0 -19 1 -56.5t1 -56.5q0 -22 -33 -45q-30 32 -30 62q0 15 5 46.5t5 47.5t-2 17l-1 1q-5 2 -13 19q-11 21 -12 23q-31 45 -31 49q0 17 19 17q4 0 21 -7.5t21 -7.5q16 0 31 11.5t19 11.5q9 0 18 -9.5t9 -18.5
q0 -2 -11.5 -24t-14.5 -24zM116 607q-7 -33 -7 -43q0 -3 2.5 -6.5t2.5 -6.5q0 -19 1 -56.5t1 -56.5q0 -22 -33 -45q-30 32 -30 62q0 15 5 46.5t5 47.5t-2 17l-1 1q-5 2 -13 19q-11 21 -12 23q-31 45 -31 49q0 17 19 17q4 0 21 -7.5t21 -7.5q16 0 31 11.5t19 11.5
q9 0 18 -9.5t9 -18.5q0 -2 -11.5 -24t-14.5 -24z" />
    <glyph glyph-name="numbersign" unicode="#" horiz-adv-x="20" 
 />
    <glyph glyph-name="dollar" unicode="$" horiz-adv-x="377" 
d="M145 650h1l-24 34l11 10q30 -9 25 -9q5 0 30 14q16 0 16 -16q0 -1 -5.5 -10.5t-5.5 -12.5q0 -1 1 -1v0q1 2 1 4q-2 1 -1 2q-11 -12 -11 -19q0 -6 2 -16t2 -15q33 -33 37 -36q25 -22 44 -26q9 -1 19 -2q14 -2 16.5 -9t2.5 -40q0 -8 6 -23.5t6 -23.5q0 -10 -8.5 -18
t-18.5 -8l-18 8q-1 11 -4 34q-2 27 -41 53q-35 24 -64 24t-45 -37q-13 -27 -14 -61l-14 -10q-64 30 -64 47t13 26l28 12q25 11 48 44q31 43 40 52q0 7 -11 29zM323 198q-7 0 -18 8q-15 9 -19 10q-10 2 -29 7q-10 33 -14 39q-10 15 -38 16q-7 5 -7 11q0 3 31 24t34 21
q10 0 18 -16q22 -47 50 -74q14 -13 14 -23q0 -23 -22 -23zM169 294q-9 0 -13.5 8.5t-8.5 16.5q-10 18 -76 64q-59 42 -58 62v2q8 8 15 8q14 0 29.5 -14.5t42.5 -15.5t34 -11q42 -58 97 -58q12 0 12 -12q0 -8 -32.5 -29t-41.5 -21zM207 50q0 -14 15 -35q18 -25 20 -34l-15 -8
q-20 7 -21 7q-8 0 -23 -3.5t-22 -3.5q-15 0 -15 16l10 26.5t10 40.5q0 7 -4.5 21t-4.5 20q-3 2 -24 23q-5 4 -45 13q-43 9 -58 17q1 9 6 33q4 21 4 34q0 7 -5 21.5t-5 21.5q0 8 8 18.5t16 10.5q17 0 28 -38q16 -60 21 -71q19 -38 58 -38q31 0 47 23q28 39 31 42l12 1
q18 1 69 -25v-20q-17 -17 -50.5 -22.5t-44.5 -16.5q-18 -19 -18 -74z" />
    <glyph glyph-name="percent" unicode="%" horiz-adv-x="616" 
d="M238 518q-53 0 -53 29q0 5 3.5 14t3.5 14q0 24 -16.5 42t-40.5 18q-22 0 -25 -15q0 2 0 -32q0 -10 -11 -26q-8 0 -22 4q-8 6 -23 25t-15 25q0 11 15 16q12 4 22.5 8.5t27.5 30.5q15 23 27 23q8 0 28.5 -24t45.5 -24q19 0 23 -17q1 -3 1 -34q0 -16 19 -32.5t19 -24.5
q0 -9 -10 -14.5t-19 -5.5zM538 218q-53 0 -53 29q0 5 3.5 14t3.5 14q0 24 -16.5 42t-40.5 18q-22 0 -25 -15q0 2 0 -32q0 -10 -11 -26q-8 0 -22 4q-8 6 -23 25t-15 25q0 11 15 16q12 4 22.5 8.5t27.5 30.5q15 23 27 23q8 0 28.5 -24t45.5 -24q19 0 23 -17q1 -3 1 -34
q0 -16 19 -32.5t19 -24.5q0 -9 -10 -14.5t-19 -5.5zM237 436q0 -6 4 -18.5t4 -18.5q0 -8 -5.5 -17t-13.5 -9q-13 0 -29 21.5t-16 31.5q0 9 14.5 17.5t14.5 28.5q-18 27 -18 34q0 14 14 14q4 0 11 -2.5t11 -2.5t13 2.5t13 2.5q15 0 15 -15q0 -7 -16 -27.5t-16 -41.5zM537 136
q0 -6 4 -18.5t4 -18.5q0 -8 -5.5 -17t-13.5 -9q-13 0 -29 21.5t-16 31.5q0 9 14.5 17.5t14.5 28.5q-18 27 -18 34q0 14 14 14q4 0 11 -2.5t11 -2.5t13 2.5t13 2.5q15 0 15 -15q0 -7 -16 -27.5t-16 -41.5zM128 52q0 -13 -16 -35.5t-30 -25.5q-11 12 -23 37q-9 2 -33 2
q-7 0 -7 9l3 19q66 23 230 268q157 235 166 299q2 14 13 43q12 34 19 34q4 0 13 -9l-1 -7l2 -8q13 -13 17 -15q7 -3 23 0l11 -15q-7 -12 -27 -26q-23 -16 -191.5 -284t-168.5 -286zM67 499q0 -18 12.5 -41.5t12.5 -22.5q0 -13 -12 -17t-23 -7q-5 -2 -12.5 -12t-15.5 -10
q-18 0 -18 20q0 18 12.5 52.5t12.5 53.5q0 15 -8.5 38.5l-8.5 23.5q0 6 6.5 12.5t11.5 6.5q7 0 15 -13t15 -14t18 -4q8 -3 8 -13q0 -7 -13 -22t-13 -31zM367 199q0 -18 12.5 -41.5t12.5 -22.5q0 -13 -12 -17t-23 -7q-5 -2 -12.5 -12t-15.5 -10q-18 0 -18 20q0 18 12.5 52.5
t12.5 53.5q0 15 -8.5 38.5l-8.5 23.5q0 6 6.5 12.5t11.5 6.5q7 0 15 -13t15 -14t18 -4q8 -3 8 -13q0 -7 -13 -22t-13 -31zM187 336q-1 -1 -15 -23q-9 -14 -21 -14q-7 0 -11 8q-7 12 -9 13l-18 12q-32 22 -75 29q-9 1 -9 12q0 10 15 18q20 11 23 14q11 14 16 14q16 0 27 -31
t28 -31q20 0 21.5 28.5t13.5 28.5q11 0 18.5 -21.5t21 -21.5t13.5 -13q0 -14 -39 -22zM487 36q-1 -1 -15 -23q-9 -14 -21 -14q-7 0 -11 8q-7 12 -9 13l-18 12q-32 22 -75 29q-9 1 -9 12q0 10 15 18q20 11 23 14q11 14 16 14q16 0 27 -31t28 -31q20 0 21.5 28.5t13.5 28.5
q11 0 18.5 -21.5t21 -21.5t13.5 -13q0 -14 -39 -22z" />
    <glyph glyph-name="ampersand" unicode="&#x26;" horiz-adv-x="549" 
d="M337 445q-23 0 -23 33q0 10 8 31t8 31q0 59 -93 59q-48 0 -88 -18q-51 -24 -51 -66q0 -28 25 -36l3 -7l-5 -15q-10 -5 -37 -12q-23 -7 -35.5 -15.5t-22.5 -8.5q-20 0 -20 24q0 -2 15.5 18.5t15.5 55.5q0 13 -5.5 37t-5.5 35q0 26 29 26q6 0 20.5 -1.5t20.5 -1.5
q51 0 122 34.5t80 34.5q23 0 36 -32q10 -25 19 -50q7 -10 50 -45q40 -33 40 -37q0 -18 -16.5 -26.5t-32.5 -15.5q-5 -3 -26 -21q-12 -11 -31 -11zM274 295q1 0 -33 11.5t-56 11.5q-31 0 -60.5 -25.5t-36.5 -25.5q-15 0 -38 6q-27 7 -27 18q0 13 51 32q55 20 63 44
q-8 8 -15 9q22 -2 -16 -2q-11 0 -32 10q-24 11 -24 20q0 16 18 19q-1 0 29 0q3 0 17 6.5t16 6.5q13 0 38 -28.5t48 -28.5q15 0 22.5 24.5t27.5 24.5q25 0 25 -17q0 -6 -3.5 -17t-3.5 -17q0 -11 9 -32t9 -24q0 -26 -28 -26zM440 164v-67q0 -7 4 -21.5t4 -21.5q0 -27 -33 -27
q-8 0 -23 2t-19 2q-18 0 -48.5 -20.5t-66.5 -20.5q-5 0 -45.5 19t-57.5 19h-88q-14 0 -14 55q0 32 -22 81.5t-22 54.5q0 28 28 28q5 0 14.5 -1t13.5 -1q7 0 22.5 6.5t22.5 6.5q10 0 19.5 -6.5t9.5 -16.5q0 -18 -18 -49.5t-18 -49.5q0 -24 28 -45.5t52 -21.5q23 0 43.5 7
t40.5 15q17 4 41 2q36 -4 40 -4q22 0 35 30q11 25 11 50q0 33 -20.5 61t-20.5 34q0 13 8 20q20 3 58 17q32 20 44 20q11 0 21 -17q-15 -33 -30 -67q-14 -38 -14 -73z" />
    <glyph glyph-name="quotesingle" unicode="'" horiz-adv-x="178" 
d="M109 544q0 -3 2.5 -6.5t2.5 -6.5q0 -17 1 -51.5t1 -51.5q0 -22 -33 -45q-30 32 -30 62q0 16 5 48.5t5 49.5q0 19 -29.5 65t-29.5 50q0 17 19 17q4 0 21 -7.5t21 -7.5q16 0 31 11.5t19 11.5q9 0 18 -9.5t9 -18.5q-33 -67 -33 -111z" />
    <glyph glyph-name="parenleft" unicode="(" horiz-adv-x="230" 
d="M202 -29q-7 -8 -28 5q-9 0 -23 4q-12 -5 -23 -16q-4 -5 -9.5 5t-10.5 18q-104 171 -104 356q0 164 77 306q8 15 12 21q10 15 18 16l33 -9q3 -1 11 -4q6 -2 20 13q18 -1 18 -10q0 -7 -37 -45q-13 -13 -13 -19q-81 -141 -81 -274q0 -125 71 -242q26 -42 70 -95q6 -7 6 -8
q-2 -9 -7 -22z" />
    <glyph glyph-name="parenright" unicode=")" horiz-adv-x="230" 
d="M101 -13q-4 -8 -8 -17q-7 -11 -12 -6q-10 11 -22 16q-3 -2 -9.5 -2t-13.5 -2q-21 -13 -28 -5q-2 8 -7 22l17 21q88 114 114 210q15 56 15 114q0 133 -80 274q0 2 -37 43q-13 14 -13 21q0 9 17 10q15 -15 20 -13q41 14 45 13q11 -2 30 -37q76 -142 76 -306
q0 -185 -104 -356z" />
    <glyph glyph-name="asterisk" unicode="*" horiz-adv-x="408" 
d="M194 522l69 -37q15 -9 41 -5q5 0 7 -1q13 -7 13 -16q0 -12 -25 -25q0 -7 -2 -20q-3 -6 -17 -6q-14 23 -26 34q-15 14 -71 48l2 -78q0 -18 16 -38q3 -4 3 -6q0 -22 -14 -22q-10 0 -27 11q-7 -3 -19 -8q-7 -1 -14 12q13 23 17 39q5 22 6 94q-72 -44 -83 -62q-3 -10 -16 -27
q-7 -4 -12 -4q-9 0 -12 15q-5 19 -6 22q-5 11 -16 14q-2 4 -2 7q0 6 25 9q29 3 38 8l67 41q-70 37 -90 38q-10 -3 -31 0q-12 7 -12 13t16.5 21t13.5 30q4 5 7 5q4 0 19 -19q16 -22 25 -27l69 -37q-3 78 -12 96q-1 2 -8.5 11t-7.5 16q0 22 22 16q32 -10 42 0q15 -1 5 -21
q-15 -29 -14 -43l1 -71l62 37q15 10 25 34q2 5 3 6q8 4 15 5q16 0 15 -29v-7q7 -4 16 -12q4 -6 -3 -18q-26 0 -44 -5.5t-76 -37.5z" />
    <glyph glyph-name="plus" unicode="+" horiz-adv-x="478" 
d="M421 335q5 -8 10 -23q1 -9 -15 -18q-28 17 -49 22q-28 6 -120 7l3 -113q1 -22 21 -47q4 -5 4 -8q0 -27 -19 -27q-13 0 -34 14q-8 -5 -23 -10q-9 -1 -18 15q17 28 22 49q7 30 7 127q-114 -2 -139 -15q-2 -1 -13.5 -10.5t-19.5 -9.5q-23 0 -23 14q0 3 7 29q7 24 -5 37
q1 13 9 13q6 0 30.5 -12t40.5 -12l113 3q-2 107 -15 131q-1 3 -12 16q-8 9 -8 18q0 22 14 23q3 0 29 -7q24 -7 37 5q13 -1 13 -9q0 -6 -12 -30.5t-12 -41.5l3 -105l105 3q22 1 48 20q5 4 8 4q27 0 27 -18q0 -13 -14 -34z" />
    <glyph glyph-name="comma" unicode="," horiz-adv-x="210" 
d="M38 -102q0 -1 -4 -1q-12 0 -22 13q-6 7 -6 21t18 40.5t18 53.5q0 34 -22 71q-4 6 -4 9q0 12 10.5 20t21.5 8q41 0 88 -62q3 -4 3 -23q-30 -27 -58 -68q-34 -47 -43 -82z" />
    <glyph glyph-name="hyphen" unicode="-" horiz-adv-x="245" 
d="M190 289q0 -5 5.5 -14.5t5.5 -13.5q0 -6 -6.5 -13t-12.5 -7q-7 0 -24 13t-36 13q-28 0 -50.5 -16t-34.5 -15h-4q-9 6 -9 43q0 18 -4 24q0 1 -16 18q-1 4 -1 10q0 21 17 21l29 -15.5t48 -15.5q34 0 64 15.5t31 15.5q11 0 21 -10v-24q-23 -19 -23 -29z" />
    <glyph glyph-name="hyphen" unicode="&#x2010;" horiz-adv-x="245" 
d="M190 289q0 -5 5.5 -14.5t5.5 -13.5q0 -6 -6.5 -13t-12.5 -7q-7 0 -24 13t-36 13q-28 0 -50.5 -16t-34.5 -15h-4q-9 6 -9 43q0 18 -4 24q0 1 -16 18q-1 4 -1 10q0 21 17 21l29 -15.5t48 -15.5q34 0 64 15.5t31 15.5q11 0 21 -10v-24q-23 -19 -23 -29z" />
    <glyph glyph-name="period" unicode="." horiz-adv-x="237" 
d="M140 38l-2 1q-1 1 -15.5 -4l-14.5 -5q-4 0 -8 -15q-1 -4 -2 -12t-12.5 -17t-19.5 -9q-12 0 -23.5 9.5t-14.5 20.5q1 -5 1 34q0 8 -4.5 23.5t-4.5 22.5q0 5 8 11t15 6q2 0 12.5 -6.5t15.5 -7.5l60 -8q45 -8 45 -25q0 -19 -36 -19z" />
    <glyph glyph-name="slash" unicode="/" horiz-adv-x="356" 
d="M323 621q-36 -32 -51 -75l-149 -438q-12 -34 -12 -53q0 -4 3.5 -22.5t2.5 -20.5q-15 -38 -30 -38q-14 0 -42 41q-11 0 -22.5 -2.5t-14.5 -1.5q-8 1 -6 31q18 9 31 29t24 38q34 48 104 246q73 205 69 255q-2 17 10 70q4 17 14 17q8 0 35 -21q6 -5 18 -12q7 -2 23 5
q16 -8 16 -17q0 -11 -23 -31z" />
    <glyph glyph-name="zero" unicode="0" horiz-adv-x="498" 
d="M420 379q-28 0 -70 16q-18 6 -18 30q0 8 6.5 24.5t6.5 25.5q0 46 -32.5 81t-79.5 35q-32 0 -44.5 -15t-12.5 -49q0 -7 1.5 -22t1.5 -23q0 -2 -15 -22q-13 0 -32 6q-8 5 -19 22.5t-19 23.5q-8 3 -22 16q-6 10 -6 23t34 25q42 16 51 26q18 24 35 48q25 35 40 35
q10 0 49 -46t72 -46q3 0 7 1.5t6 1.5q32 0 36 -35v-61q1 -22 35.5 -52t34.5 -40q0 -13 -16 -21t-30 -8zM410 223q0 -11 8 -34t8 -33q0 -13 -7.5 -27t-19.5 -14q-11 0 -20 5.5t-31.5 40.5t-22.5 43q0 10 26.5 28t26.5 58q-1 2 -19 30q-14 21 -14 31q0 17 18 17q6 0 19 -5
t20 -5q8 0 24 5t24 5q19 0 19 -20q0 -9 -29.5 -47.5t-29.5 -77.5zM101 337q0 -32 15 -60.5t31 -56.5q0 -20 -24 -27q-36 -9 -38 -10.5t-21 -21.5q-15 -15 -23 -15q-9 0 -17 9.5t-8 17.5q0 28 22.5 92.5t22.5 101.5q0 26 -10 58q-10 27 -20 55q0 7 9 16t16 9t20.5 -21.5
t24.5 -25.5q15 -3 31.5 -5.5t16.5 -18.5q0 -10 -24 -37t-24 -60zM263 -19q-10 0 -14 11q-8 19 -22 29t-29 19q-61 42 -140 53q-10 2 -10 14q0 15 21 26q16 8 33 16q10 7 22 24q7 10 15 10q24 0 31 -23q11 -38 13 -40l23 -31q15 -17 33 -17q32 0 41 27q2 7 6 50q2 27 17 27
q12 0 27 -39.5t45 -39.5q5 0 10 -5.5t5 -10.5q0 -19 -30 -25q-37 -9 -38 -10q-4 -4 -26 -39q-15 -26 -33 -26z" />
    <glyph glyph-name="one" unicode="1" horiz-adv-x="263" 
d="M121 10q-14 -8 -39 -17q-15 -1 -31 26q28 48 36 83q10 43 10 172q0 191 -18 257q-3 12 -28 9q-20 -3 -20 9q0 51 51 74q2 1 64 25q18 7 29 18q22 -2 22 -16q0 -10 -10 -31q-30 -60 -29 -89l10 -405q1 -36 34 -78q7 -9 7 -14q0 -46 -32 -46q-22 0 -56 23z" />
    <glyph glyph-name="two" unicode="2" horiz-adv-x="492" 
d="M359 453q-17 0 -18 13q-9 78 -68 117q-9 6 -25 6q-40 0 -83 -24q-48 -27 -54 -63q0 -17 -4 -44q-6 -10 -24 -10q-12 0 -23 10.5t-11 22.5q0 4 7 23.5t8 25.5q-1 -6 -1 41q0 13 6 21.5t20 9.5q22 2 24 2q35 12 69 39q10 15 35 36q11 4 28 4q15 0 22 -9q2 -2 13 -23t39 -51
t49.5 -38t43.5 -16q27 -11 27 -33q0 -15 -35 -37.5t-45 -22.5zM257 291q-9 0 -29 7.5t-20 14.5q0 25 30 32q55 15 59 17q36 18 48 68q2 9 4 9q1 0 6 -4t9 -4q11 0 34.5 22.5t42.5 22.5q8 0 19 -9v-4q0 -14 -6 -22q-10 -13 -49 -45q-34 -27 -63 -70q-4 -7 -29 -14
q-8 -1 -29 -12q-17 -9 -27 -9zM409 -18q-9 0 -30.5 15t-28.5 16q-43 9 -161 9q-4 0 -34 -17t-33 -17h-53q-17 0 -33.5 11.5t-16.5 28.5q0 14 7 19q61 41 75 77q13 33 48 66q13 11 34 35q0 15 -7 26l2 5q0 4 -1.5 12t-1.5 12q0 1 2.5 1t8 4t8.5 4q7 0 18.5 -9t26.5 -9
q10 0 30.5 9t30.5 9q23 0 23 -22q0 -32 -40 -50l-66 -22q-8 -4 -20 -31q-7 -17 -14 -35q-2 -4 -11.5 -16t-9.5 -21q10 -13 21.5 -13t39 -2.5t41.5 -2.5q49 0 93 26.5t50 26.5q9 0 23 -10l1 -11q0 -9 -5.5 -23.5t-5.5 -23.5q0 -8 6.5 -24t6.5 -24q0 -10 -7 -19.5t-17 -9.5z
" />
    <glyph glyph-name="three" unicode="3" horiz-adv-x="507" 
d="M415 460q0 -23 -29 -23q-45 0 -48 23q-8 83 -11 89q-15 45 -69 45q-35 0 -67 -24.5t-45 -58.5q-4 -16 -9 -32q-6 -23 -14 -23q-4 0 -13 5q-3 14 -14 39q-5 7 -37 28q-23 16 -23 34q0 23 42 30q31 3 61 7q45 11 84 56q36 42 50 42q5 0 9 -2q37 -52 44 -60q31 -32 65 -32
q5 0 14.5 2.5t14.5 2.5q14 0 20 -31q-2 -11 -13 -32.5t-12 -34.5q0 2 0 -50zM410 251q-58 -11 -55 -11q-16 0 -34.5 30t-44.5 30q-41 0 -90 -33l-3 -1q-38 0 -38 26q0 8 6.5 25.5t6.5 25.5q0 6 -5 18.5t-5 18.5q0 23 27 23q15 0 25 -17l17 -27q35 0 58 17q10 8 30 33
q13 17 25 17q4 0 15.5 -5t15.5 -5t11.5 2.5t11.5 2.5q30 0 30 -22q0 -14 -30 -26q-26 -10 -42 -10q-4 -2 -11 -6q0 -20 47.5 -23.5t47.5 -19.5t-16 -63zM420 65q-4 0 -14 2.5t-15 2.5q-36 0 -69 -32q-19 -18 -50 -61q-4 -1 -9 -1q-15 0 -50 41q-38 45 -84 56q-30 4 -61 7
q-42 7 -42 30q0 19 23 34q32 22 37.5 29t13.5 38q9 5 13 5q8 0 14 -23q5 -16 9 -31q13 -34 45 -58.5t67 -24.5q72 0 85 84q0 2 4 42q2 19 6 19t11.5 -2t12.5 -2q6 0 19 4t19 4q7 0 9 -12q2 -8 1 -24q-1 -23 -1 -19q0 -19 11 -41q13 -26 15 -37q-6 -30 -20 -30z" />
    <glyph glyph-name="four" unicode="4" horiz-adv-x="515" 
d="M156 257q0 -5 3 -16t3 -16q0 -27 -24 -33q-30 3 -63 14q-49 16 -49 37q0 10 23 21q31 15 43 32q8 11 21 49q28 79 84 149q34 43 39 50q21 29 29 56q3 6 3 46q0 29 19 29q48 -20 43 -20q5 0 30 10t30 10q25 0 25 -29q0 -15 -5 -21.5t-21 -14t-20 -10.5q-69 -55 -124 -137
t-74 -165q-2 -5 -8.5 -19t-6.5 -22zM474 92q-10 0 -29 15.5t-46 15.5h-15q-10 -1 -15 -1q3 -10 9 -29q2 -6 19 -32q13 -20 13 -31q0 -13 -9 -25.5t-20 -12.5q-9 0 -26.5 12t-28.5 12q-4 0 -26.5 -10.5t-26.5 -10.5q-15 0 -15 16q0 5 22.5 39.5t22.5 73.5l-93 -6
q-15 0 -33.5 -11.5t-30.5 -11.5q-19 0 -29 7q-8 11 -25 29q-17 9 -58 38q-12 4 -33 13q0 28 21 28q3 0 23.5 -12.5t27.5 -13.5q87 -19 100 -18l132 10q0 6 -1 18t-1 17q0 7 1.5 21t1.5 21l1 163q0 10 -7.5 30t-7.5 29q0 21 24 39q31 22 36.5 32.5t9.5 22.5q7 16 16 16
q19 0 19 -25q0 -11 -7 -24q-11 -18 -12 -24q-17 -49 -17 -134q0 -12 1 -36.5t1 -36.5q0 -17 -2.5 -51.5t-2.5 -51.5q0 -9 2 -22q19 0 52 7q6 3 22 23q12 16 26 16q12 0 27 -28l-17 -40q17 -39 17 -44q0 -22 -13 -22z" />
    <glyph glyph-name="five" unicode="5" horiz-adv-x="480" 
d="M337 554q-11 0 -31 14q-23 18 -30 21q-58 24 -88 24q-61 0 -98 -21q-4 -2 -15 -15.5t-16 -13.5q-7 0 -17.5 6t-10.5 12q0 7 6.5 20t6.5 20q0 70 15 70q10 0 38.5 -14t39.5 -14q15 0 46 -1.5t46 -1.5q54 0 68 8q5 2 19 18q11 12 20 12q22 0 22 -20q0 -10 -6 -27.5
t-6 -26.5q0 -6 10.5 -18.5t10.5 -23.5t-9.5 -19.5t-20.5 -8.5zM408 213q-5 0 -29 14q-10 6 -27 9q-20 5 -27 7l-14 52q-11 23 -46 26q-11 7 -10 15v4q11 4 31 13q15 11 47 30q17 0 23 -22q8 -29 35 -64q1 -2 27 -26q18 -18 18 -29q0 -29 -28 -29zM112 449l-26 17l-33 2
l-15 7q5 12 9 18q0 3 -4 2q-2 5 -2 22q0 21 34 35q7 3 31 21q18 13 34 13q5 -7 5 -20q0 -21 -9 -48l13 -24zM305 401q0 -5 -3 -4q-10 -5 -25 -16q-1 -11 -3 -11q-4 3 -13 9q-5 -4 -5 -10v-9q-2 -6 -21 -4q-1 -1 -4 -2.5t-4 -1.5q-4 0 -13.5 6t-15.5 6q-3 0 -7.5 -1t-6.5 -1
q-4 0 -11.5 1t-10.5 1q-41 0 -90 -33l-3 -1q-38 0 -38 26q0 8 6.5 25.5t6.5 25.5q0 6 -5 18.5t-5 18.5q0 10 9 10q30 0 60 -31h9q45 0 69 23.5t35 23.5q3 0 29.5 -12t35.5 -12q23 0 23 -16v-14q1 -10 1 -15zM215 -9q-14 0 -23 6q-9 13 -30 34q-34 27 -69 39q-2 0 -24 2
q-14 1 -21 11q-4 6 -5 15q0 7 1 20t1 16q0 12 -8 33t-8 26q0 12 11 22.5t23 10.5q18 0 24 -10q1 -16 4 -44q6 -34 50 -62q40 -25 77 -25q38 0 66 44q23 37 27 79q0 4 7 8t11 4q10 0 44 -21q36 -24 36 -38q0 -22 -27 -33q-22 -8 -44 -15q-21 -10 -49 -39.5t-39 -50.5t-13 -23
q-7 -9 -22 -9z" />
    <glyph glyph-name="six" unicode="6" horiz-adv-x="505" 
d="M395 546q0 -10 7.5 -29.5t7.5 -29.5q0 -23 -25 -23q-12 0 -27 35q-20 47 -35 65q-29 35 -76 35q-52 0 -77 -38q-17 -26 -24.5 -74.5t-11.5 -53.5h-11q-9 17 -35 45q-19 8 -37 16q-23 11 -23 29q0 21 45 38l64 22q13 8 51 65q34 50 51 50q3 0 9 -3q8 -21 46 -44t61 -23
q8 0 22 5.5t20 5.5t14 -9t8 -16q0 -9 -12 -34t-12 -34zM369 72q-9 0 -23 37q-14 34 -14 47q0 19 22.5 48.5t22.5 48.5q0 14 -16.5 36.5t-30.5 22.5q-4 0 -11.5 -2t-11.5 -2q-9 0 -36 40.5t-27 52.5q0 13 12.5 21t25.5 8q10 0 38 -26q19 -18 38.5 -35.5t82.5 -44.5
q22 -9 22 -37q0 -5 -6.5 -14.5t-12.5 -17.5q-12 -21 -25 -60q-6 -32 -11 -65q-9 -48 -24 -54q-9 -4 -15 -4zM236 313q-14 0 -24 22t-18 22q-17 0 -58 -64l-1 1q-3 0 -7 -2t-6 -2q-12 0 -12 24q0 7 13 22q7 8 10 42q2 17 20.5 23.5t23.5 15.5q10 19 32 19q16 0 16 -16
q0 -5 -1.5 -16t-1.5 -17q0 -8 17 -29t17 -32q0 -13 -20 -13zM116 205q-8 0 -23 5t-22 5t-20.5 -3.5t-20.5 -3.5q-8 0 -17 4q0 20 10 59t10 59q0 22 -14 58.5t-14 54.5q0 11 8.5 21.5t19.5 10.5q12 0 26 -21q19 -30 21 -32q12 -8 32 -26q5 -6 5 -11t-17.5 -31.5t-17.5 -50.5
q0 -31 27.5 -46t29.5 -40q-13 -12 -23 -12zM350 34q-4 0 -11 2t-11 2q-52 0 -114 -61q-10 2 -55 59q-23 32 -66 77q-15 8 -42.5 26t-27.5 35t43 17q80 0 80 -29q0 -4 -2 -10t-2 -9q0 -26 46 -50q41 -21 70 -21q22 0 54 61q13 -25 25 -49q18 -36 18 -48z" />
    <glyph glyph-name="seven" unicode="7" horiz-adv-x="491" 
d="M332 563q1 -1 14 -12t20 -11q10 0 24 3.5t24 3.5t10 -30q0 -18 -35 -38q-27 -15 -27 -19q1 -6 1 -5q0 -10 -9 -29q-32 -66 -60 -142q-35 -99 -54 -144q-12 -27 -12 -45q13 -17 13 -35q0 -22 -20 -40.5t-43 -18.5q-5 0 -15.5 1.5t-15.5 1.5q-6 0 -18 -1.5t-18 -1.5
q-34 0 -34 29q0 13 9 20q38 30 42 34q24 21 32 42q12 34 51 129q9 21 33.5 109t35.5 110q4 8 8 57q4 40 15 43zM407 560q-13 0 -43.5 10t-37.5 17q-12 13 -84 13q-123 0 -139 -14q-16 -6 -37 -16q-10 -8 -20 -8q-19 0 -25 26q-1 5 -3 41l-13 17q-7 9 -7 20q0 24 47 24
q29 0 132.5 -10.5t132.5 -10.5q13 0 65.5 7.5t65.5 7.5q14 0 24 -9t8 -23q-32 -17 -42 -42q-3 -5 -7 -35q-3 -15 -17 -15z" />
    <glyph glyph-name="eight" unicode="8" horiz-adv-x="480" 
d="M404 502q-62 0 -61 13q0 2 1 6t1 7q0 21 -49.5 46t-75.5 25q-6 0 -15 -6q-36 -23 -43 -36q-7 -26 -15 -51q-4 -13 -18 -13t-47 23.5t-33 36.5q0 22 36 37l54 20q33 16 57 52q21 31 27 31q11 0 52 -34q45 -37 70 -45q1 0 24 -2q14 -2 21 -11q8 -30 20 -72q6 -20 6 -16
q0 -11 -12 -11zM344 395q0 -5 2 -13.5t2 -13.5q0 -12 -11 -12q-8 0 -17 7l-14 12q-8 2 -22 6q-9 3 -9 8q0 9 11 14.5l21 10.5q11 9 21 44q9 31 15 31q5 0 14.5 -6t14.5 -6q4 0 10.5 1t10.5 1q12 0 20 -4q-7 -14 -20 -21q-19 -11 -28 -30l-9 -19q-12 -8 -12 -10zM409 162
q-5 0 -29 14q-9 6 -27 10q-21 4 -27 7q-14 46 -33 63q-11 10 -32 14q-17 2 -23 11q1 5 9.5 8.5t29.5 13.5q1 1 24 16q20 14 23 14q15 0 23 -22q12 -37 35 -65q2 -3 31 -26q24 -18 24 -29q0 -29 -28 -29zM223 300q-20 0 -34 20q-22 31 -82.5 87t-69.5 71q-6 10 -6 23v3
q10 9 19 9q18 0 27 -8l20 -19q9 -6 40 -15q21 -6 36 -28q55 -83 111 -83q5 0 10 -5.5t5 -9.5q0 -14 -30 -29.5t-46 -15.5zM106 216q-6 0 -16.5 8.5t-17.5 8.5q-2 0 -6.5 -1t-7.5 -1q-12 0 -12 11q0 1 6 7q35 9 62 58q4 6 3.5 19t2 19t9.5 6t28.5 -22t21.5 -30
q0 -10 -10.5 -14.5t-19.5 -8.5q-14 -7 -25 -33.5t-18 -26.5zM216 -9q-14 0 -51 47t-71 47q-6 0 -19 -2t-19 -2q-1 0 -24 12q4 40 4 98q0 24 15 24q50 0 50 -43q0 -79 95 -79q33 0 58 21q8 7 34 39q18 22 32 22q16 0 54 -17q42 -19 42 -33q0 -11 -41 -23q-27 -7 -53 -15
q-56 -27 -68 -53q-6 -14 -13 -28.5t-25 -14.5z" />
    <glyph glyph-name="nine" unicode="9" horiz-adv-x="505" 
d="M402 485q-79 0 -79 28q0 3 2.5 9.5t2.5 9.5q0 27 -47 51q-42 21 -72 21q-20 0 -53 -58q-25 46 -25 47q-17 34 -17 46q2 1 4 1q20 -4 22 -4q52 0 114 60q11 -3 56 -62q49 -62 64 -72t42.5 -27.5t27.5 -33.5t-42 -16zM435 202q-12 0 -25 21q-19 29 -21 31q-13 8 -32 26
q-5 6 -5 10t17.5 31.5t17.5 50.5q0 31 -27.5 46.5t-29.5 38.5q12 12 22 12q8 0 22.5 -5.5t22.5 -5.5q7 0 20.5 4t20.5 4t16 -4q-1 -20 -11 -58.5t-10 -58.5q0 -22 14 -58.5t14 -54.5q0 -11 -8 -20.5t-18 -9.5zM256 251q-15 0 -15 15q0 10 -15.5 49.5t-15.5 45.5q0 11 18 11
q14 0 24 -22t19 -22q17 0 57 63l2 -1q3 0 7 2.5t6 2.5q10 0 10 -22q0 -7 -7 -16q-10 -11 -11 -13q-2 -5 -5 -35q-1 -17 -20 -23t-24 -16q-9 -19 -30 -19zM185 246q-13 0 -74 72q-26 30 -84 54q-21 9 -21 36q0 5 8 16q5 8 11 15q22 40 37 112q3 17 7 26q6 17 15.5 21t13.5 4
q9 0 22.5 -35.5t13.5 -47.5q0 -17 -22.5 -37.5t-22.5 -39.5q0 -25 24 -59t49 -34q9 0 18 7q6 -13 17 -49q10 -31 22 -49q1 -3 1 -4q0 -8 -35 -8zM228 -21l-7 2q-8 21 -46 44t-62 23q-8 0 -22 -5.5t-20 -5.5t-13 9t-7 15q0 10 11.5 34t11.5 34t-7 29.5t-7 29.5q0 22 23 22
q11 0 26 -35q20 -47 36 -65q29 -35 76 -35q65 0 88 57q13 54 25 109h9q10 -17 36 -45q19 -8 37 -16q22 -10 22 -28q0 -20 -45 -37q-31 -11 -63 -22q-13 -8 -51 -64q-34 -50 -51 -50z" />
    <glyph glyph-name="colon" unicode=":" horiz-adv-x="237" 
d="M71 301q-27 0 -33 22q-1 6 -1 42q0 10 -6 25t-6 18q0 7 4.5 16.5t10.5 9.5q-3 0 31 -17q16 -9 44 -11l46 -4q6 -1 14.5 -8t8.5 -13q0 -13 -22 -18q-16 -2 -31 -5t-26 -30t-34 -27zM140 38l-2 1q-2 2 -5 2q-4 0 -18 -11.5t-15 -15t-2 -11.5t-12.5 -17t-19.5 -9
q-12 0 -23.5 9.5t-14.5 20.5q1 -5 1 34q0 8 -4.5 23.5t-4.5 22.5q0 20 12 20q3 0 18.5 -8t20.5 -9l60 -8q45 -8 45 -25q0 -19 -36 -19z" />
    <glyph glyph-name="semicolon" unicode=";" horiz-adv-x="210" 
d="M55 301q-20 0 -25 19q-3 8 -3 35q0 10 -5.5 28t-5.5 27q0 21 13 21q2 0 21 -9t23 -11q14 -4 74 -9q8 -1 17 -7.5t9 -14.5q0 -13 -25 -18q-36 -8 -37 -8q-9 -5 -18 -32q-7 -21 -38 -21zM38 -102q1 -1 -4 -1q-28 0 -28 34q0 14 18 40.5t18 53.5q0 24 -13 53t-13 27
q0 12 10.5 20t21.5 8q23 0 57.5 -28.5t33.5 -49.5v-7q-82 -75 -101 -150z" />
    <glyph glyph-name="less" unicode="&#x3c;" horiz-adv-x="243" 
d="M114 189q-26 26 -69 81q-50 64 -50 80q0 13 48 81q44 61 64 83q1 1 3 2q-6 11 -6 39q0 20 12 20q6 0 18.5 -5t18.5 -5q9 0 19 9q30 -2 30 -19q0 -4 -80 -103l-82 -102l120 -150q18 -14 50 -47q0 -26 -31 -26q-17 0 -30 9q-13 -6 -22 -9q-10 3 -17 15q5 8 5 22q0 19 1 24
h-3z" />
    <glyph glyph-name="equal" unicode="=" horiz-adv-x="287" 
d="M258 331q-6 -6 -16 -6q-13 0 -37.5 10.5t-39.5 10.5q-70 0 -85 -7q-27 -13 -36 -13q-10 0 -16 6l2 6q5 3 7 7q0 4 -8 13t-8 11q0 4 7.5 8t11.5 4q7 0 16 -5q13 -5 16 -6q19 -5 95 -5q19 0 47 7t30 7q4 0 12 -4t8 -8q0 -2 -5.5 -7t-5.5 -10q3 -16 5 -19zM27 286q6 6 16 6
q13 0 37.5 -10.5t39.5 -10.5q70 0 85 7q27 13 36 13q10 0 16 -6l-2 -6q-5 -4 -7 -7q0 -5 8 -13.5t8 -10.5q0 -4 -7.5 -8t-11.5 -4q-7 0 -16 4q-13 6 -16 7q-19 5 -95 5q-19 0 -47 -7t-30 -7q-4 0 -12 4t-8 8q0 2 7 9t7 12q-2 5 -8 15z" />
    <glyph glyph-name="greater" unicode="&#x3e;" horiz-adv-x="243" 
d="M93 498q26 -25 69 -80q50 -65 50 -80q0 -13 -48 -81q-43 -61 -64 -83q0 -1 -3 -2q6 -11 6 -39q0 -20 -12 -20q-6 0 -18 5t-19 5q-9 0 -19 -9q-29 2 -29 19q0 3 79 103l82 102l-120 150q-17 14 -50 47q0 25 31 25q17 0 30 -9q5 5 18 12q6 -1 20 -26q-4 -8 -4 -18
q0 -14 -1 -19l3 -1z" />
    <glyph glyph-name="question" unicode="?" horiz-adv-x="449" 
d="M253 303l-8 -3q-2 -1 -7.5 -15t-5.5 -17v-70q0 -4 3.5 -10.5t3.5 -10.5q0 -23 -26 -23q-75 0 -73 0l-2 9q2 8 16 26q12 15 12 29q0 8 -8 25t-8 24q0 12 24 31q-5 7 -10.5 14t-5.5 17q0 22 17 26q-2 -1 34 -1q38 0 73.5 43t35.5 82q0 50 -58 79q-31 14 -63 28v7
q-1 13 26 44t40 31q22 0 34 -35q19 -58 37 -86q24 -35 72 -65l11 -23q0 -10 -46 -53q-49 -45 -53 -68t-8 -29q-7 -12 -25 -11q-11 2 -32 5zM54 424q-12 0 -19 13q-4 18 -18 53q-13 23 -13 29q0 14 12 19.5t24 9.5q25 11 90 81q61 65 78 65q19 0 19 -18q0 -21 -14 -32
q-21 -16 -24 -22t-11 -41q-7 -27 -18 -33q-65 -31 -81 -70q-4 -16 -7 -32q-5 -22 -18 -22zM221 -13q-10 0 -13.5 5t-6.5 11q-16 18 -46 19t-38 7.5t-8 27.5v5q7 6 44.5 22t45.5 16q7 0 12 -5v-1q-1 -8 15.5 -38.5t16.5 -38.5q0 -10 -6.5 -20t-15.5 -10z" />
    <glyph glyph-name="at" unicode="@" horiz-adv-x="765" 
d="M637 168h61q-39 -90 -124 -146t-183 -56q-152 0 -251 110q-97 106 -97 259q0 156 94 266q98 115 252 115q129 0 222.5 -86.5t93.5 -214.5q0 -99 -63 -189q-70 -99 -165 -99q-76 0 -68 85q-54 -79 -108 -79q-58 0 -93 47q-32 42 -32 102q0 85 57 160q62 81 144 81
q60 0 78 -65l16 56h88l-44 -164q-34 -127 -34 -155q0 -24 27 -24q58 0 105 92q40 80 40 145q0 107 -76 182.5t-182 75.5q-134 0 -217 -97q-79 -92 -79 -228q0 -137 81 -228q84 -96 219 -96q152 0 238 151zM390 482q-51 0 -90 -93q-34 -78 -34 -138q0 -78 48 -78q51 0 90 97
q32 80 32 141q0 71 -46 71z" />
    <glyph glyph-name="A" unicode="A" horiz-adv-x="565" 
d="M453 -4.5q-18 7.5 -21 7.5q-5 0 -17.5 -6.5t-20.5 -6.5q-11 0 -20 9.5t-9 19.5q0 5 7 21t8 21q3 17 3 41q0 48 -48 223q-46 170 -77 241q-11 26 -26 38q-11 9 -37.5 20t-26.5 33q0 15 12.5 24t26.5 9q9 0 25 -11.5t17 -11.5q11 0 36.5 13t37.5 13q11 0 24.5 -10.5
t13.5 -22.5q0 -3 -1 -5l-2 -5q-13 -36 -13 -56q0 -42 35 -176q19 -57 52 -173q17 -48 46 -145q3 -12 23 -41t20 -36q0 -11 -14.5 -24.5t-25.5 -13.5q-3 0 -6.5 1.5t-21.5 9zM479 1l2 -1q6 0 15.5 9t9.5 14q-1 3 -18 27q-21 31 -25 47q-16 47 -45 144q-19 58 -52 174
q-36 135 -36 179q0 20 16 66q0 4 -8.5 11t-14.5 7q-8 0 -33.5 -13t-40.5 -13q-7 0 -22 11.5t-20 11.5q-24 0 -24 -18q0 -12 16 -19q30 -13 36 -17q24 -17 37 -49q31 -72 78 -243q48 -177 48 -227q0 -34 -17 -78q0 -2 -1 -5q0 -14 14 -14q5 0 17.5 6.5t20.5 6.5q6 0 24 -8
t23 -9zM303 132q-17 10 -47 10q-22 0 -49.5 -11.5t-32.5 -11.5q-29 0 -29 29q0 16 13 25.5t13 14.5q0 3 -4.5 12t-4.5 15q0 11 9.5 20.5t19.5 9.5q9 0 29 -17t36 -17q18 0 40.5 13.5t36.5 13.5q28 0 28 -28q0 -6 -2.5 -16.5t-2.5 -16.5q0 -7 10.5 -21t10.5 -25
q0 -7 -8.5 -17.5t-16.5 -10.5q-6 0 -24 12q-12 9 -25 17zM352 119q10 4 10 12q0 6 -10.5 20t-10.5 26q0 6 2.5 17t2.5 16q0 13 -13 13q-10 0 -33 -13.5t-44 -13.5q-20 0 -41.5 17t-23.5 17q-4 0 -9 -5t-5 -10q0 -3 4.5 -11.5t4.5 -15.5q0 -13 -13 -22t-13 -18q0 -14 15 -14
l1 1q19 7 39 14.5t41 7.5q33 0 52 -11q22 -14 44 -27zM152 64q18 -25 18 -37q0 -17 -14 -27t-30 -10q-9 0 -28.5 9t-26.5 9q-9 0 -29 -7.5t-31 -7.5q-6 0 -17.5 7t-11.5 15q0 24 12.5 24t36.5 24q30 29 45 82l22 92q59 200 59 298q0 9 -3 25.5t-3 24.5q0 41 43 41
q13 0 23 -14t10 -27l28 -22q16 -14 16 -31q0 -14 -21 -47q-25 -38 -28 -48q-12 -35 -48 -169q-38 -146 -38 -168q0 -16 16 -36zM-3 23v-7l1 -1q6 -7 13 -7q10 0 29.5 7.5t30.5 7.5q10 0 29.5 -9t25.5 -9q29 0 29 22q0 7 -17 30t-17 43q0 24 39 171q35 135 48 171q3 10 27 47
q21 34 21 43q0 13 -22 29t-21.5 23t-6 17t-12.5 10q-28 0 -28 -26q0 -8 3 -24.5t3 -25.5q0 -100 -60 -302q-14 -58 -29 -115q-23 -63 -76 -90q-5 -2 -10 -5z" />
    <glyph glyph-name="B" unicode="B" horiz-adv-x="536" 
d="M430 412q-17 8 -59 20q-31 4 -33 5q-16 6 -16 27q0 6 11.5 31t11.5 42q0 21 -23 37t-47 16q-33 0 -66.5 -23.5t-41.5 -23.5q-9 0 -17 13q-7 10 -7 18q0 1 15 26t17 43q5 47 39 47q9 0 49 -23.5t71 -23.5q10 0 28 5t28 5q34 0 34 -29q0 -8 -3 -22t-3 -21q0 -41 8 -64
q6 -19 28 -56q6 -8 8 -15l1 -3q0 -32 -28 -32q-2 0 -5 1zM158 572q2 -8 9 -14q1 0 37 23.5t71 23.5q28 0 56.5 -19t28.5 -49q0 -18 -11.5 -45t-11.5 -28q0 -12 12 -14t24 -3q17 -3 33 -9q25 -11 29 -12q13 0 13 16q-2 3 -15 25q-30 49 -30 114q0 7 3 21t3 22q0 14 -19 14
q-10 0 -28 -5t-28 -5q-33 0 -74.5 23.5t-45.5 23.5q-20 0 -24 -34q-2 -21 -32 -69zM356 274q-29 18 -80 18q-39 0 -85 -32l-3 -1h-13q-37 0 -37 33q0 9 6.5 26t6.5 25q0 5 -5 17t-5 20q0 30 34 30q18 0 29 -15q8 -15 17 -29q41 1 68 34.5t41 33.5q6 0 17 -5.5t14 -5.5
q4 0 11.5 2.5t12.5 2.5q37 0 37 -29q0 -18 -32 -31q-26 -11 -46 -12l-4 -2l-1 -1q3 -12 57 -29.5t54 -39.5q0 -11 -16.5 -22.5t-26.5 -11.5q-11 0 -51 24zM406 265h1q5 0 16.5 8t11.5 11q0 11 -51 28q-61 19 -60 45q0 4 7 9t11 5q11 0 36 8q29 10 29 20q0 14 -22 14
q-4 0 -12 -2.5t-12 -2.5q-6 0 -17 5.5t-14 5.5q-8 0 -22 -18q-17 -23 -31 -32q-24 -18 -59 -18q-7 0 -19 22t-24 22q-19 0 -19 -15q0 -5 5 -17t5 -20q0 -9 -6.5 -26t-6.5 -25q0 -18 22 -18h9q49 33 92 33q35 0 60 -8q12 -5 51 -25q6 -3 19 -9zM452 72q0 -21 -18 -28
q-9 -4 -34 -6q-51 -4 -59 -6q-21 -4 -58 -24q-48 -26 -60 -26q-24 0 -26 40q-2 28 -19 50.5t-17 34.5t14 23t26 11q8 0 42 -27t50 -27q24 0 53.5 22.5t29.5 43.5q0 12 -22 32.5t-22 37.5q0 13 12 24t24 11q7 0 21 -5.5t21 -5.5q6 0 16.5 4t16.5 4q13 0 27 -12.5t14 -25.5
q0 -6 -17.5 -40.5t-17.5 -54.5q0 -8 1.5 -25t1.5 -25zM437 72q0 8 -1.5 25t-1.5 25q0 24 14 51q18 34 21 44q0 6 -9.5 14.5t-16.5 8.5q-6 0 -16.5 -4t-16.5 -4q-7 0 -21 5.5t-21 5.5t-14 -7t-7 -13q0 -11 22 -31t22 -39q0 -29 -34.5 -55t-63.5 -26q-21 0 -51 24
q-35 28 -41 30q-7 0 -16 -7t-9 -12q0 -6 17 -30t19 -54q1 -26 12 -26q6 0 20 7l54 28q33 16 56 18q29 1 72 7q11 3 11 15zM80 8q-7 0 -26 -9t-29 -9q-6 0 -17.5 9t-11.5 16q0 16 12 33l22 28q17 23 22 67q1 13 2 71q1 34 1 109q0 143 -4 235q-1 14 -20 49.5t-19 48.5
q0 10 9.5 20.5t19.5 10.5q5 0 17.5 -6.5t14.5 -6.5q9 0 31 10.5t34 10.5q11 0 24.5 -12t13.5 -24q0 -6 -22.5 -43t-23.5 -63q-3 -57 -3 -173q0 -236 11 -270q15 -28 41 -82l1 -4q1 -2 1 -4q0 -30 -38 -30q-12 0 -33 9t-30 9zM166 19l-1 2q-16 29 -42 85q-11 36 -11 274
q0 117 3 174q1 30 40 94q3 3 6 11q0 5 -8.5 13t-14.5 8q-9 0 -31 -10.5t-34 -10.5q-6 0 -18.5 6.5t-13.5 6.5q-4 0 -9 -5.5t-5 -10.5q0 -8 19 -44.5t20 -53.5q4 -92 4 -235q0 -185 -8 -213q-8 -24 -17 -38l-22.5 -30t-11.5 -25q10 -12 14 -12q7 0 26 9t29 9q11 0 32.5 -9
t30.5 -9q23 0 23 14z" />
    <glyph glyph-name="C" unicode="C" horiz-adv-x="501" 
d="M425 493q0 -13 -11 -27t-24 -14q-23 0 -35 36q-20 56 -27 66q-24 36 -73 36q-36 0 -68.5 -28t-38.5 -64q-1 -4 -1 -47q0 -25 -19 -25q-12 0 -17 8.5t-10 18.5q-8 14 -22.5 21.5t-28.5 13.5q-33 16 -33 39q0 27 40 42l62 18q34 15 56 49l38 58q15 17 36 16q18 -19 37 -37
q39 -37 86 -37q4 0 14.5 5t17.5 5q19 0 31 -32v-3q0 -11 -13 -33t-13 -38q0 -7 8 -22.5t8 -24.5zM397 526q-3 7 -3 14q0 20 12.5 42t13.5 28q-8 21 -16 21q-4 0 -14 -5t-18 -5q-42 0 -72 22q-9 6 -55 52q-15 1 -42 -44q-43 -70 -105 -86q-66 -17 -66 -38q0 -13 28 -27
q37 -18 41 -21q9 -9 21 -36l3 -1q1 -1 3 -1q4 0 4 10q0 45 1 50q8 41 44 72.5t78 31.5q73 0 101 -74l12 -36q10 -28 22 -28q5 0 12.5 9t7.5 17q0 -2 -13 33zM64 207q-7 0 -21 -4t-22 -4q-28 0 -28 18q0 21 13 59.5t13 59.5q0 20 -13 55t-13 54q0 40 31 40q15 0 28 -16
q9 -15 18 -29q3 -5 31 -28q20 -18 20 -33q0 -1 -19.5 -27.5t-19.5 -58.5q0 -15 29 -34t29 -41q0 -9 -10.5 -16.5t-18.5 -7.5q-9 0 -24.5 6.5t-22.5 6.5zM106 381q-1 7 -21 24q-23 20 -27 27q-26 38 -34 38q-16 0 -16 -25q0 -16 13 -51.5t13 -57.5q0 -21 -13 -60t-13 -60
q12 -2 13 -2q8 0 21.5 4t21.5 4q9 0 24.5 -6.5t22.5 -6.5q4 0 9 4t5 5q0 14 -29 33t-29 42q0 43 35 83q1 1 4 5zM427 64q0 -37 -60 -40q-43 -3 -138 -55l-17 -8q-2 -2 -5 -2q-21 0 -34 25q-11 20 -21 41q-51 69 -94 87q-16 5 -32.5 12t-16.5 26q0 22 28 34q22 9 48 9
q59 0 59 -34q0 -4 -2 -13t-2 -13q0 -19 45 -41q42 -21 69 -21q52 0 81 40q7 11 34 74q16 39 40 39q13 0 21 -12t8 -23q0 -14 -10 -39.5t-10 -38.5q0 -8 4.5 -23.5t4.5 -23.5zM206 -26l3 2l13 7q98 53 144 55.5t46 25.5q0 8 -4.5 23.5t-4.5 23.5q0 14 10 39.5t10 38.5
q0 20 -14 20q-15 0 -30 -39q-21 -54 -37 -74q-32 -40 -88 -40q-29 0 -75 22q-54 26 -54 55q0 4 2 13t2 13q0 19 -44 19q-18 0 -36 -6q-25 -8 -25 -22q0 -11 16 -17l24 -8q26 -10 61 -45t48 -62q7 -16 24 -41l5 -2q2 -1 4 -1z" />
    <glyph glyph-name="D" unicode="D" horiz-adv-x="542" 
d="M308 475q-1 5 -3 13l-1 3l1 9q1 20 -36 45.5t-61 25.5q-6 0 -17 -2.5t-17 -2.5q-37 0 -37 32q0 5 24 44q13 22 26 43q4 6 18 4q14 -1 19 -5q11 -8 64 -64q45 -46 63 -52q15 -5 44 -15q18 -6 37 -11q23 -9 23 -26q0 -25 -30 -33l-48 -8q-37 -12 -38 -12q-18 0 -31 12z
M152 597q1 -16 22 -16q6 0 17 2.5t17 2.5q33 0 72 -29q42 -32 40 -66v-5l1 -2q6 -6 18 -6q4 0 20.5 6t22.5 7q17 3 35 6q23 5 23 19q0 9 -21 15q-14 4 -28 7q-41 13 -61 25.5t-52 45.5q-20 23 -63 63q-3 3 -17 2q-16 -24 -45 -75zM456 214q7 -39 4 -42q-13 -12 -27 -12
q-7 0 -23 9.5t-29 10.5q-26 2 -34 5q-20 6 -21 22q0 13 15 26q20 18 27 32q15 27 15 76q0 38 -18 60q-21 27 -21 37q0 34 41 34q3 0 9.5 -1.5t10.5 -1.5q9 0 23 9t27 9q25 0 25 -38q0 -34 -14 -100t-14 -100q0 -13 4 -35zM437 249q0 34 14 100t14 100q0 23 -10 23t-23 -9
t-27 -9q-4 0 -10.5 1.5t-9.5 1.5q-26 0 -26 -19q0 -4 19.5 -30.5t19.5 -66.5q0 -78 -42 -114q-7 -5 -15 -20v-1q8 -8 32 -11q28 -3 38 -8q20 -12 22 -12q6 0 14 5q-10 67 -10 69zM122 -12q-47 17 -46 17q-9 0 -29 -8t-31 -8q-26 0 -26 35q0 12 13 26q19 20 21 23
q16 26 16 93q0 1 -6 410q0 16 -22 42.5t-22 38.5q0 15 11 27.5t26 12.5q12 0 33.5 -7.5t32.5 -7.5q12 0 27 7.5t22 7.5t16 -9t9 -16v-3q-11 -14 -28 -44q-25 -60 -23 -168q0 -98 1 -196q4 -146 19 -179q4 -7 26 -31q18 -19 18 -34q0 -33 -42 -33q-6 0 -16 4zM127 2
q8 -3 11 -3q27 0 27 18q0 8 -18 29q-21 23 -24 30q-17 35 -21 182q-1 100 -1 199q-2 143 39 197l12 18q-4 7 -10 10q-3 0 -19 -7.5t-30 -7.5q-12 0 -33.5 7.5t-32.5 7.5q-8 0 -15 -8t-7 -17q0 -6 22 -33t22 -48q6 -409 6 -410q0 -84 -28 -114q-22 -22 -22 -28q0 -20 11 -20
q10 0 29.5 8t30.5 8q2 0 51 -18zM387 166l5 3h2h1q13 0 26 -9.5t13 -23.5q0 -26 -39 -36q-29 -6 -59 -13q-50 -22 -112 -89q-6 -6 -12 -6q-17 0 -23 24q-9 33 -13 37l-20.5 20.5t-10.5 22.5q0 10 7 22.5t20 12.5q11 0 31.5 -8t30.5 -8t30 15q11 7 41 54q5 9 15 9
q8 0 26.5 -13t41.5 -13zM211 7q1 0 7 8q50 59 112 86q26 5 51 11q38 9 38 24q0 6 -7.5 12t-15.5 6q-3 -2 -8 -2q-25 0 -46 13t-22 13l-21 -32q-10 -16 -30 -31t-35 -15q-11 0 -31.5 8t-30.5 8q-12 0 -12 -20q0 -7 17 -23t20 -27.5t5 -21.5q4 -17 9 -17z" />
    <glyph glyph-name="E" unicode="E" horiz-adv-x="454" 
d="M324 560q-13 11 -26.5 21t-35.5 10q-3 0 -7 -4.5t-8 -1.5q-7 3 -25 3q-15 0 -48 -18t-39 -18q-10 0 -19.5 8.5t-9.5 19.5q0 12 11 21t21 18q6 6 13 29t10 25q26 12 32 12t18 -7q22 -14 38 -23l88 38q7 3 19.5 -10.5t12.5 -22.5q0 -7 -5 -20.5t-5 -19.5q0 -2 7.5 -17.5
t7.5 -21.5q0 -29 -31 -29q-10 0 -19 8zM333 572q6 -5 10 -5q16 0 16 14q0 3 -7.5 18t-7.5 21q0 8 5 21.5t5 18.5q0 7 -15 17l-87 -37q-3 -1 -6 0l-57 30l-18 -9q-12 -46 -31 -60.5t-19 -20.5q0 -13 14 -13l34 17q36 19 53 19t26 -2q5 5 14 5q25 0 40.5 -11t30.5 -23zM98 312
q0 5 6.5 16.5t6.5 13.5q0 5 -6.5 18.5t-6.5 21.5q0 36 29 36q14 0 32.5 -15.5t42.5 -15.5q46 0 100 47q1 1 3 1q7 0 18.5 -12.5t11.5 -18.5q0 -8 -6.5 -21.5t-6.5 -18.5q0 -6 9.5 -31t9.5 -35q0 -6 -3 -9l-4 -4q-10 -11 -20 -11q-14 0 -35 16q-24 17 -37 19q-7 0 -19 3l-4 2
q-4 1 -5 1q-20 0 -48 -16.5t-37 -16.5q-11 0 -21 9t-10 21zM320 403l-2 2q-2 3 -12 13q-54 -46 -104 -46q-30 0 -57 23q-9 8 -18 8q-14 0 -14 -21q0 -4 6.5 -18t6.5 -22q0 -6 -6 -15q-6 -12 -7 -15q0 -15 16 -15q4 0 33 16.5t52 16.5q4 0 10 -2l4 -1q10 -2 32 -7
q6 -3 27 -18q18 -13 27 -13q3 0 9 7l2 1q1 10 -8.5 32t-9.5 35q0 8 6 20.5t7 18.5zM101 313l2 -68q2 -45 10.5 -61.5t16.5 -30.5q11 -18 11 -29q0 -13 -9.5 -24.5t-22.5 -11.5q-17 0 -37.5 24.5t-34.5 24.5q-10 0 -23 3l-3 3q-9 10 -9 19q0 14 13 46.5t13 50.5
q0 10 -1.5 29.5t-1.5 29.5l1 205q0 39 -1 47q-3 21 -18 43q-18 26 -18 36q0 12 9 21t22 9q5 0 19 -6.5t17 -6.5q9 0 29.5 9t32.5 9q10 0 19 -8.5t9 -17.5q0 -4 -2 -7q-40 -48 -44 -91q-6 -63 -6 -113q0 -48 7 -134zM86 312q-7 86 -7 135q0 51 6 114q4 47 45 97q-3 11 -12 11
t-30 -9t-32 -9q-6 0 -20 6.5t-16 6.5q-16 0 -16 -15q0 -4 17 -30t18.5 -45t1.5 -51l-1 -205q0 -10 1.5 -29.5t1.5 -29.5q0 -20 -13 -53t-13 -44q0 -3 5 -8l1 -2q28 -1 36 -6q3 -2 26 -27q16 -16 24 -16q17 0 17 21q0 8 -15.5 34t-17.5 39q-2 38 -7 115zM253 19q3 0 -133 -1
q-12 0 -44 -19.5t-51 -19.5q-15 0 -26 18q-10 15 -10 28q0 5 9.5 20.5t10.5 20.5l1 1q0 2 -8 16t-8 20q0 12 9.5 22.5t22.5 10.5q10 0 24 -12l20 -20q27 -17 130 -17q42 0 86 29.5t54 29.5q8 0 19.5 -5t11.5 -12q0 -9 -5 -26t-5 -26q0 -7 7.5 -24.5t7.5 -27.5
q0 -9 -11 -23.5t-21 -11.5zM346 5q15 9 15 20q0 7 -7.5 24.5t-7.5 27.5q0 9 4.5 25t5.5 24q-8 5 -16 5q-4 0 -50 -29.5t-90 -29.5q-108 0 -138 20q-2 1 -17 15t-19 14q-17 0 -17 -18q0 -2 8 -16t8 -20q0 -7 -9 -21q-11 -19 -12 -21q0 -9 7.5 -20t13.5 -11q15 0 47 19.5
t48 19.5l135 1h3l3 -1l10 -3z" />
    <glyph glyph-name="F" unicode="F" horiz-adv-x="428" 
d="M297 560q-10 8 -29 20q-36 15 -93 15q-75 0 -103 -27t-35 -27q-10 0 -18.5 10t-8.5 20q0 8 6.5 21t6.5 19q0 5 -9 24.5t-9 27.5q0 25 25 25q16 0 49.5 -14.5t44.5 -14.5q139 0 165 13q5 3 19 19q11 12 23 12q29 0 29 -28q0 -9 -6 -26.5t-6 -26.5q0 -4 5 -9q16 -19 16 -33
q0 -15 -11.5 -25.5t-25.5 -10.5t-35 16zM332 559q22 0 22 21q0 8 -10.5 20.5t-10.5 21.5q0 10 6 27t6 26q0 13 -14 13q-5 0 -17 -12q-14 -15 -19 -17q-28 -15 -171 -15q-16 0 -47 14.5t-47 14.5q-10 0 -10 -10q0 -5 9 -24.5t9 -27.5q0 -9 -6.5 -22t-6.5 -18q0 -4 4.5 -9.5
t7.5 -5.5l1 1q7 3 18 15t17 16q39 22 102 22q80 0 115 -25.5t42 -25.5zM287 395q14 30 33 30q25 0 25 -28q0 -7 -3.5 -19.5t-3.5 -18.5q0 -8 8 -25t8 -27q0 -27 -36 -27q-17 0 -47.5 12t-47.5 12q-25 0 -45 -16t-27 -16q-10 0 -22.5 12t-12.5 22q0 7 7 15l3 4q6 7 6 9
q0 3 -6.5 15t-6.5 19q0 10 10 21.5t21 11.5q8 0 28.5 -16t39.5 -16q21 0 43 13.5t26 12.5zM286 379q-38 -25 -68 -25q-22 0 -44.5 16t-23.5 16q-4 0 -10 -7t-6 -11q0 -3 6.5 -15t6.5 -19t-7 -15l-5 -7q-4 -5 -4 -6q0 -4 8 -11.5t12 -7.5q-1 0 22 16t50 16q18 0 48.5 -12
t46.5 -12q21 0 21 12q0 7 -8 24t-8 28q0 6 3.5 18.5t3.5 19.5q0 13 -10 13q-11 0 -17 -15.5t-14 -15.5h-3zM26 -15q-18 0 -18 24q0 14 16.5 48.5t17.5 55.5q0 -5 0 38q0 28 3 86t3 87q0 84 -14 127q-1 1 -12 28q-9 20 -9 28q0 23 20 30q34 10 35.5 11t18.5 24q11 15 30 15
q34 0 34 -33q0 -20 -12 -48q-18 -42 -19 -45q-8 -26 -8 -79q0 -65 5 -151q7 -114 19 -137q4 -8 34 -34q26 -23 26 -37q0 -13 -15.5 -28.5t-28.5 -15.5q-3 0 -6 1l-7 3q-7 2 -52 17q-55 -15 -61 -15zM54 6q32 9 34 9q1 0 35 -11q8 -3 20 -7l7 -2q1 0 2 -1q7 0 18 11t11 18
t-26 30q-28 27 -32 34q-14 26 -21 144q-5 83 -5 151q0 44 5 66q4 19 23 63q11 26 11 43q0 18 -19 18q-12 0 -25.5 -19.5t-33.5 -24.5q-10 -3 -20 -5q-10 -5 -10 -16q0 -5 9 -26q10 -25 11 -26q15 -45 15 -131q0 -29 -3 -87t-3 -86q0 -61 -9 -79q-25 -52 -25 -63q0 -6 3 -9
q4 0 28 6z" />
    <glyph glyph-name="G" unicode="G" horiz-adv-x="530" 
d="M417 487q0 -31 -32 -31q-16 0 -28 26q-33 68 -37 74q-26 36 -73 36q-56 0 -79 -51q-9 -20 -22 -95q-4 -21 -12 -21h-11q-3 0 -17.5 21t-22.5 26q-20 9 -39 17q-23 11 -23 34q0 26 45 43q34 12 67 24q13 7 51 65q34 51 55 51q9 0 45 -35t73 -35q6 0 20 5.5t22 5.5
q9 0 18 -13t9 -20q0 -10 -11.5 -35t-11.5 -33q0 -9 7 -28.5t7 -30.5zM388 546q0 11 11.5 36t11.5 32q0 6 -12 18q-6 0 -19.5 -5.5t-22.5 -5.5q-25 0 -65 23t-50 46q-2 1 -3 1q-12 0 -47 -51q-38 -56 -51 -63q-30 -11 -61 -22q-44 -16 -44 -32q0 -14 22 -24q17 -7 34 -15
q13 -9 35 -44h2q2 4 4 24q9 63 27 95q28 48 87 48q68 0 103 -72q7 -18 15 -35q13 -29 20 -29q17 0 17 16q0 10 -7 29.5t-7 29.5zM457 218q-6 -2 -10 0q-35 29 -96 29q-4 0 -12.5 -3.5t-11.5 -3.5q-9 -1 -16 -2t-16 -10q-31 -28 -45 -28q-27 0 -27 24q0 10 6 25.5t6 21.5
q0 7 -6 23t-6 25q0 25 30 25q13 0 37 -17.5t42 -17.5q17 0 45 12.5t35 12.5q26 0 33 -24q10 -31 17 -36q21 -16 21 -35q0 -23 -18 -23q-1 0 -4 1t-4 1zM453 233h3q10 0 9 -2q3 2 3 8q0 12 -13.5 22.5t-18.5 28t-6 19.5q-5 10 -18 10q-3 0 -32 -12.5t-48 -12.5
q-22 0 -47 17.5t-32 17.5q-15 0 -15 -10q0 -8 6 -23.5t6 -24.5q0 -8 -6 -23.5t-6 -23.5q0 -9 12 -9q9 0 28.5 18.5t33.5 20t23.5 5t15.5 3.5q62 0 102 -29zM71 208q-7 0 -20.5 -4t-20.5 -4q-25 0 -25 12q0 21 10.5 59.5t10.5 58.5q0 24 -14.5 60t-14.5 53q0 14 10.5 26.5
t25.5 12.5q16 0 30 -21q21 -32 22 -34q12 -9 25 -18q15 -13 15 -24q0 -8 -17.5 -33.5t-17.5 -48.5q0 -27 27 -41.5t29 -43.5q1 -7 -11 -14t-19 -7q-9 0 -23.5 5.5t-21.5 5.5zM116 212q6 0 15 8q-2 18 -29 33t-27 50q0 25 17.5 52.5t17.5 29.5q0 5 -15 16l-20 16q-3 2 -20 29
q-14 21 -22 21q-7 0 -14 -7.5t-7 -16.5q0 -14 14.5 -50.5t14.5 -62.5q0 -20 -10 -57t-11 -56q5 -2 10 -2q7 0 20.5 4t20.5 4q8 0 23 -5.5t22 -5.5zM431 78q0 -27 -48 -40q-33 -6 -67 -13q-16 -3 -49.5 -22.5t-47.5 -31.5q-2 -2 -6 -2q-14 0 -25 14q-25 37 -51 74
q-33 46 -65 57q-54 19 -54 41q0 21 34 33q25 9 50 9q17 0 34 -9.5t17 -24.5q0 -4 -2 -11t-2 -11q0 -19 43 -41q40 -20 66 -20q53 0 79 40q8 12 29 73q14 40 37 40q12 0 24 -11t12 -24t-9 -37t-9 -37q0 -7 5 -22.5t5 -23.5zM406 124q0 13 9 37t9 37q0 6 -7 13t-14 7
q-14 0 -26 -40q-17 -52 -32 -73q-30 -40 -87 -40q-29 0 -73 22q-51 25 -51 54q0 4 2 11t2 11q0 8 -13 13.5t-23 5.5q-15 0 -38 -7q-31 -8 -31 -20q0 -10 27 -21q36 -14 37 -15q29 -20 57 -59q46 -67 46 -68q5 -6 12 -7q17 14 50.5 32.5t49.5 22.5l58 10q46 11 46 28
q0 7 -5 22t-5 24z" />
    <glyph glyph-name="H" unicode="H" horiz-adv-x="527" 
d="M329 -5q-32 0 -32 32t27 91.5t27 88.5l-3 336q0 22 -20 66t-20 61q0 26 32 26q8 0 21.5 -9.5t19.5 -9.5q4 0 25 8.5t33 8.5q30 0 30 -35q0 -15 -16 -39q-18 -27 -20 -37q-13 -46 -14 -160q0 41 0 -168q0 -49 8 -104q10 -74 27 -92.5t17 -31.5q0 -31 -27 -31q-11 0 -52 17
q-41 -18 -63 -18zM329 10q12 0 37 9.5t28 8.5q44 -17 50 -17q12 0 12 16q0 6 -7 15q-6 6 -11 13q-17 23 -26 98q-8 56 -8 102q0 156 1 172q1 66 3 90q5 65 19 90q27 46 27 52q0 20 -15 20q-11 0 -31 -8.5t-27 -8.5q-10 0 -24 9.5t-17 9.5q-17 0 -17 -11q0 -14 20 -58t20 -69
l3 -336q0 -32 -27 -91t-27 -89q0 -17 17 -17zM300 288l-32 24t-37 12q-38 0 -63.5 -23.5t-31.5 -23.5q-27 0 -27 27q0 6 3 18t3 18q0 9 -5 27t-5 28q0 34 27 34q8 0 32.5 -22t52.5 -22q46 0 69 28q15 16 32 16q27 0 27 -25q0 -6 -2.5 -18t-2.5 -18q0 -9 6.5 -26.5t6.5 -27.5
q0 -13 -10 -23.5t-24 -10.5q-8 0 -19 8zM309 300q7 -5 10 -5q19 0 19 19q0 10 -6.5 27.5t-6.5 26.5q0 6 2.5 18t2.5 18q0 10 -12 10q-10 0 -20 -11q-14 -16 -25 -22q-20 -11 -56 -11q-32 0 -58.5 22l-26.5 22q-12 0 -12 -19q0 -10 5 -28t5 -27q0 -6 -3 -18t-3 -18
q0 -12 12 -12q-3 0 26 23.5t69 23.5q24 0 43 -12q1 -1 35 -27zM115 80q2 -6 18 -24q12 -14 12 -30q0 -32 -38 -32q-26 0 -47 11q-29 -15 -48 -15q-34 0 -34 41q0 13 18.5 46.5t21.5 45.5q15 63 15 166q0 39 -3 117t-3 116q0 28 -16.5 75.5t-16.5 67.5q0 9 7 20t15 7l43 -17
q45 17 71 17q41 0 41 -36q0 -19 -18 -40q-25 -28 -28 -34q-24 -46 -24 -265q0 -200 14 -237zM100 75q-14 39 -14 242q0 222 25 271q3 7 27 34q18 21 18 34q0 21 -26 21q-24 0 -69 -17h-5l-42 17q-5 -4 -5 -12q0 -14 16.5 -63t16.5 -80q0 -38 3 -116t3 -117q0 -144 -25 -194
q-30 -61 -30 -64q0 -26 19 -26q10 0 31 9q17 8 21 6q18 -11 43 -11q23 0 23 17q0 10 -12 24q-15 18 -18 25z" />
    <glyph glyph-name="I" unicode="I" horiz-adv-x="234" 
d="M70 2q-37 -16 -41 -16q-17 0 -35 30q-2 3 1 7q27 47 35 81q17 72 17 281q0 168 -19 205q-2 4 -21 27q-13 16 -13 33q0 47 31 47q11 0 35.5 -8t33.5 -9q16 -2 28.5 5.5t13.5 7.5q29 -2 29 -23q0 -12 -12 -35q-28 -56 -28 -85v-424q0 -30 20.5 -59t20.5 -34q0 -54 -38 -54
q-25 0 -58 23zM75 16q33 -22 51 -22q25 0 25 39q-1 3 -5 9q-36 45 -36 84v424q0 27 21 73q19 43 19 48q-1 6 -12 7q-16 -13 -37 -13q-15 0 -40 8.5t-33 8.5q-19 0 -19 -32q0 -12 12 -28q18 -21 20 -25q21 -40 21 -213q0 -210 -18 -284q-8 -35 -34 -81q11 -18 22 -18
q6 0 16 6q15 8 20 10q4 2 7 -1z" />
    <glyph glyph-name="J" unicode="J" horiz-adv-x="492" 
d="M379 298q0 -30 20.5 -65t20.5 -40q0 -22 -17 -28q-9 -3 -37 -5q-18 -1 -46 -14t-32 -13q-12 0 -22 11.5t-10 22.5q0 5 14 25q40 53 40 114v250q0 22 -24.5 58.5t-24.5 52.5q0 32 32 32q6 0 21.5 -8t18.5 -8q10 0 30 9t33 9q16 0 30.5 -13t14.5 -29q0 -21 -31 -48t-31 -46
v-267zM271 166q0 -6 6 -12t10 -6l3 1l36 16q22 9 39 10q10 0 33 4q7 3 7 14q-7 12 -19 34q-22 38 -22 71v267q0 25 31 52.5t31 41.5q0 9 -10 18t-20 9t-30 -9t-33 -9q-6 0 -22 8t-18 8q-17 0 -17 -17q0 -11 24.5 -48t24.5 -63v-250q0 -37 -17.5 -71.5t-36.5 -67.5v-1z
M108 146q-16 14 -59 16q-39 2 -46.5 15t-7.5 27q0 20 20 49q33 46 37 53q2 4 7 4h7q7 0 21 -27q19 -38 20 -38q15 -19 31 -38q18 -25 18 -45q0 -27 -25 -27q-10 0 -23 11zM63 295l-53 -98l2 -6q2 -5 11 -12q26 -2 52 -3q28 -5 47 -22q5 -4 9 -4q10 0 10 12q0 16 -22 45
q-29 37 -34 45q-6 16 -22 43zM174 -23q-10 9 -33 31q-19 19 -58 42q-45 26 -60 38q-8 6 -8 26q0 38 43 38q13 0 34.5 -9t33.5 -9q22 -1 31 -14q1 -2 1 -8q0 -21 17 -34.5t40 -13.5q26 0 34 25q11 31 13 32q15 13 57 24q39 10 62 10q29 0 29 -35q0 -23 -33 -43
q-26 -15 -53 -29q-46 -33 -61 -55q-27 -36 -45 -36t-44 20zM143 114q-2 1 -7 5q-22 1 -26 2q-9 2 -24.5 9t-27.5 7q-28 0 -28 -23q0 -9 2 -15q15 -12 61 -38q40 -23 59 -42q47 -47 66 -47q10 0 24 18q19 25 21 26q21 17 41.5 34t43.5 28q47 23 47 42q0 14 -2 17t-12 3
q-21 0 -59 -10t-51 -20q-3 -11 -9 -29q-13 -32 -47 -32q-29 0 -50 17q-24 18 -22 47v1z" />
    <glyph glyph-name="K" unicode="K" horiz-adv-x="533" 
d="M157 395v5q-1 3 -1 6q0 19 30 26q36 10 39 14q102 110 102 163q0 9 -3 24.5t-3 24.5q0 20 18 33q15 10 34 10q27 0 30.5 -36.5t13.5 -36.5q3 0 7.5 1.5t6.5 1.5q14 0 22 -12.5t8 -24.5q0 -21 -18 -28q-6 -2 -16 -6q-26 -18 -63.5 -71t-47.5 -82q-4 -21 -18 -59
q-6 -11 -24 -11q-12 0 -29 20.5t-25 20.5q-5 0 -15 -5q34 -38 70 -50q30 -11 35 -21q1 -3 1 -42q0 -10 2 -17q24 -61 61 -113q44 -62 91 -87q17 -9 34 -17q21 -14 21 -30q0 -27 -30 -27q-25 0 -61 22l-54 38q-21 7 -42 13q-24 8 -25 34q0 7 -2 20q-16 42 -77 149
q-24 41 -60 70q-49 40 -49 55q0 28 25 28q6 0 11 -2zM436 5q33 -21 54 -21q15 0 15 12q0 9 -19 20l-28 14q-50 26 -96 91q-39 54 -63 117q-3 10 -3 22q0 36 0 34q-2 6 -25 15q-15 5 -48 29q-37 27 -37 37q0 7 14 12.5t20 5.5q14 0 32 -20.5t22 -20.5q12 0 17 20t19 59
q72 133 119 146q17 5 17 17q0 22 -15 22q-2 0 -6.5 -1.5t-7.5 -1.5q-24 0 -27 36.5t-17 36.5q-37 0 -37 -28q0 -8 3 -24t3 -25q0 -33 -46.5 -104t-79.5 -80q-12 -4 -25 -7q-20 -5 -20 -12q0 -20 -3.5 -25t-10.5 -2q-11 4 -12 4q-10 0 -10 -13q0 -7 26 -29q32 -27 33 -28
q43 -48 90 -135q15 -27 22 -44q15 -32 16 -46q2 -21 4 -24q4 -6 25 -11q25 -7 44 -19q20 -15 41 -29zM148 78q1 -3 17 -29q14 -22 14 -26q-1 -8 -11 -19t-19 -11q-6 0 -21 7.5t-18 7.5q-7 0 -33 -11.5t-36 -11.5q-23 0 -39 22q-9 11 -9 23q0 10 9.5 19t17.5 17q33 44 33 169
q0 26 -2 69q-2 52 -3 68q-1 86 -1 203q0 31 -22 70q-6 10 -6 15q0 28 28 28q11 0 27 -8t20 -8t20 9.5t30 9.5q42 0 42 -40q0 -6 -18 -39q-21 -37 -23 -43q-8 -20 -15.5 -63t-7.5 -66v-182q0 -6 -1.5 -18.5t-1.5 -19.5q0 -80 29 -142zM134 72q-30 65 -30 148q0 7 1.5 19.5
t1.5 18.5v182q0 91 34 155q13 21 30 56q0 25 -27 25q-10 0 -26 -9.5t-24 -9.5t-23.5 8t-23.5 8q-13 0 -13 -13q0 2 14 -27.5t14 -57.5q0 -117 1 -203q1 -16 3 -68q2 -43 2 -69q0 -145 -44 -186q-16 -15 -16 -19q0 -9 12 -22l6 -5q13 -3 15 -3q7 0 33 11.5t36 11.5
q7 0 22 -7.5t17 -7.5q9 0 14 14q-10 16 -29 50z" />
    <glyph glyph-name="L" unicode="L" horiz-adv-x="463" 
d="M121 228q2 -20 24 -60.5t22 -52.5q0 -32 -37 -32q-20 0 -34 14q-21 20 -25 22q-18 6 -37 13t-19 30q0 4 7 14q20 30 22 76q6 192 6 198q0 31 -9 78q-11 51 -23 74q-21 37 -21 48q0 43 51 43q22 0 34 -13l2 -1l1 -2q5 -5 18 -5l1 1q5 1 26 13q18 10 23 10q12 0 24.5 -11
t12.5 -24q0 -14 -24 -37q-27 -26 -33 -42q-20 -59 -20 -146q0 -122 8 -208zM106 227q-8 86 -8 209q0 90 21 151q7 19 23 35q26 25 28 27q5 7 5 12q0 6 -7.5 13t-14.5 7l-1 -1q-4 -1 -23.5 -12t-25.5 -11q-20 0 -30 11l-2 2q-8 8 -23 8q-36 0 -36 -28q0 -7 19 -41
q14 -24 24 -78q10 -49 10 -81q0 -40 -3 -105q-3 -83 -3.5 -104t-10 -41t-18.5 -38q0 -13 12.5 -17t24.5 -8t32 -23q17 -16 31 -16q22 0 22 17q0 8 -22 49.5t-24 62.5zM371 9q0 -12 -14.5 -23.5t-24.5 -11.5q-7 0 -13 5q-33 21 -92 21h-70q-20 0 -54.5 -10t-47.5 -10
q-8 0 -18 6l-2 2q-4 5 -4 15q0 7 4 21.5t4 21.5q0 12 -17 24t-17 26q0 9 10 21t20 12q6 0 32 -18.5t31 -20.5q20 -8 69 -8q64 0 105 8q15 3 39.5 26t35.5 23q15 0 32.5 -13.5t17.5 -29.5t-22 -34t-22 -23q2 -3 11 -15q7 -8 7 -15zM35 114q-4 -1 -9.5 -7.5t-5.5 -10.5
q0 -6 17 -18.5t17 -31.5q0 -7 -4 -21.5t-4 -21.5q0 -4 1 -5q5 -3 8 -3q7 0 43 10t59 10h70q64 0 100 -24q3 -2 5 -2q5 0 14.5 8t9.5 12q-1 3 -9.5 13t-8.5 17q0 13 22 30.5t22 26.5q0 8 -12 18t-23 10q-4 0 -29.5 -22.5t-42.5 -25.5q-43 -9 -108 -9q-51 0 -68 7q-8 3 -58 36
q-2 1 -6 4z" />
    <glyph glyph-name="M" unicode="M" horiz-adv-x="630" 
d="M522 344v-171q0 -87 18 -120t18 -36q0 -9 -6.5 -19.5t-14.5 -10.5q-9 0 -24.5 6.5t-21.5 6.5h-2q-4 -1 -22 -9.5t-24 -8.5q-4 0 -18.5 6t-15.5 8q-10 12 -10 28q0 11 10 24q13 17 15 22q6 12 15 38q19 61 19 161q0 116 -2 152q-4 86 -22 149q-7 24 -17 38q-16 23 -20 30
t-4 12q0 11 9.5 22t21.5 11q6 0 21 -8t18 -8q8 0 26 12t31 12q18 0 34.5 -11t16.5 -30q0 -11 -9 -21t-17 -20q-28 -42 -28 -166q0 -17 2.5 -49t2.5 -50zM507 344q0 18 -2.5 50t-2.5 49q0 143 38 184q16 18 16 23q0 10 -11 18t-25 8q-9 0 -26.5 -12t-30.5 -12q-6 0 -21.5 8
t-17.5 8q-5 0 -10.5 -6.5t-5.5 -11.5q0 -4 21 -32q34 -45 42 -196q2 -38 2 -153q0 -102 -19 -165q-11 -36 -32 -63q-8 -11 -8 -17q0 -9 5 -17q8 -4 25 -10l1 1q5 1 24 10q16 7 22 7q9 0 24 -6.5t21 -6.5q7 4 7 15q-8 13 -22 40q-14 39 -14 116v171zM372 90q0 -11 -8 -23
t-22 -12q-24 0 -38 35q-8 20 -11 63.5t-10 57.5q-16 34 -16 35q0 10 9 22q9 9 17 18q19 29 64 156q14 43 14 86q0 7 -1 22t-1 22q0 41 29 41q36 0 43 -137q1 -8 8.5 -21.5t7.5 -19.5q0 -14 -18 -30q-24 -21 -26 -26q-24 -37 -41.5 -102.5t-17.5 -110.5q0 -13 9 -37.5
t9 -38.5zM339 166q0 49 20 123q24 84 53.5 112t29.5 34q0 2 -7.5 16t-8.5 24q-7 123 -28 123q-14 0 -14 -26q0 -7 1 -22t1 -22q0 -46 -15 -91q-51 -145 -73 -169q-16 -17 -16 -22q8 -13 19 -40q1 -38 17 -110q10 -26 24 -26q15 0 15 20q0 13 -9 37.5t-9 38.5zM316 -17
q-44 17 -57 17q-34 0 -34 39q0 5 1 16t1 15q0 56 -60 243q-59 184 -95 242q-20 34 -54 64q-16 13 -16 25q0 13 9 23.5t22 10.5q5 0 22.5 -8.5t22.5 -9.5h1q6 1 25 13t25 12q19 0 36.5 -15t17.5 -35q0 -2 -1 -4l-2 -5l-5 -13q-10 -31 -10 -62q0 -42 30 -119q42 -107 46 -120
q11 -30 28 -93q13 -40 36 -119q1 -18 11 -51q22 -42 22 -47q0 -20 -16 -20q-3 0 -6 1zM317 -1q2 -1 5 -2q1 2 1 5q0 5 -12.5 26.5t-14.5 29.5q-1 13 -6 38q-14 39 -36 120q-9 31 -27 92q-4 13 -47 121q-30 77 -30 122q0 34 11 67l5 13l2 4q0 13 -12.5 24t-26.5 11h-1
q-4 -2 -25 -14q-17 -11 -23 -11q-7 0 -26 9t-21 9q-16 0 -16 -19q0 -5 11 -14q36 -31 57 -67q36 -60 96 -246q61 -189 61 -247q0 -3 -1 -13.5t-1 -15.5q0 -26 19 -26q27 0 58 -16zM129 53q7 2 16 -12t9 -23q0 -25 -23 -25q-11 0 -20 7l-4 3q-9 8 -20 8q-16 0 -26.5 -10
t-16.5 -11l-8 4l1 -1h1v0q1 1 2 1l-1 -5q-14 -1 -24 12t-10 23q0 3 17 36t17 56q-7 221 -7 251q0 102 -26 161q-11 26 -11 34q0 28 26 28q18 0 28 -19q3 -5 12 -33q7 -20 24 -48q2 -3 1 -6l-1 -2h2q8 -3 12.5 -6.5t18 -28t13.5 -30.5l-1 -3q-9 -22 -19 -44q-10 -26 -10 -47
q0 -148 -1 -126q2 -85 18 -122q4 -7 11 -22zM131 34q-8 -7 -12 3q-11 22 -26 68q-7 51 -7 218q0 23 10 49q10 23 20 45q-2 5 -13 25.5t-13 22t-13 4.5t-11 8q0 4 4 9q-16 28 -27 61q-9 28 -22 28q-11 0 -11 -13q0 -5 10 -28q27 -62 27 -167q0 -30 7 -250q0 -22 -11 -48
l-22 -44l-1 -1q0 -6 9 -20q4 4 9 4q3 0 6 -2l2 1q22 19 41 19q17 0 30 -11l4 -3q5 -4 10 -4q8 0 8 10q0 6 -8 16z" />
    <glyph glyph-name="N" unicode="N" horiz-adv-x="545" 
d="M435 195q1 -18 14 -61q2 -6 2 -10q0 -36 -26 -36q-47 0 -59 108q-2 2 -7 5q-18 10 -18 33q0 15 9 45q12 40 13 47l1 3q7 32 7 75q0 20 -2 64q-2 41 -2 64q-3 8 -8 41q-3 20 -23.5 41.5t-20.5 37.5q0 36 33 36q8 0 52 -20l45 19q7 3 25 -12.5t18 -26.5q0 -21 -16 -39
q-25 -31 -26 -33q-11 -19 -12 -166q1 135 1 -184v-31zM420 226q0 311 -1 188q1 147 14 170q1 2 24 30q16 18 16 34q0 9 -26 24l-44 -19q-3 -2 -24 8q-25 11 -29 12h-2q-18 0 -18 -21q0 -10 19.5 -31t23.5 -39q1 -16 8 -46l1 -3q0 -22 2 -64q2 -45 2 -65q0 -44 -7 -78l-1 -4
q-1 -6 -13 -44q-9 -30 -9 -44t7 -18q14 -10 16 -12t2 -4q3 -29 12 -56q13 -41 32 -41q11 0 11 21q0 3 -5.5 18.5t-6.5 18.5q-4 21 -4 65zM337 -10q-4 1 -6 3l-24 34q-2 2 -1 6q6 23 6 42q0 40 -24 95q-22 46 -44 91l-73 160q-32 70 -51 102q-38 61 -78 79q-35 16 -35 44
q0 37 33 37q9 0 31 -10.5t29 -10.5q3 1 23 12q17 9 20 9q25 -1 25 -27q0 -8 -2.5 -24t-2.5 -24q0 -18 57 -131q19 -36 42 -91q16 -25 43 -78q45 -101 64 -156q13 -37 22 -49q5 -7 39 -37t34 -43q0 -22 -32 -35l-3 -1q-65 3 -92 3zM341 5q27 0 87 -3q21 10 21 21q0 6 -31 34
q-35 32 -39 37q-11 15 -24 53q-19 54 -64 155q-15 25 -41.5 77.5t-76.5 158.5q-25 54 -25 70q0 8 2.5 24t2.5 24q0 11 -9 12q-43 -21 -44 -21q-10 0 -31 10t-29 11q-18 1 -18 -22q0 -17 15 -25t29 -15q41 -33 71 -82q15 -25 48 -96q24 -54 73 -161q22 -47 45 -93
q24 -57 24 -99q0 -20 -6 -42zM106 8h-2q-9 0 -26.5 -11.5t-28.5 -11.5q-15 0 -26 15t-11 30q0 13 14 34q17 26 19 32q19 47 19 106q0 17 -2.5 51.5t-2.5 51.5q0 12 1.5 36.5t1.5 36.5q0 105 -22 143q-15 27 -15 39q0 11 7.5 21.5t19.5 10.5q13 0 21 -16q5 -13 11 -26
q4 -9 37 -32q25 -18 25 -43q0 -12 -8 -34.5t-8 -33.5v-180q0 -12 1 -15l1 -3q2 -18 5 -53v-22q-2 -17 -2 -22q0 -27 22.5 -59t22.5 -42q0 -24 -23 -24q-7 0 -26 9.5t-25 11.5zM155 3l2 -1q8 0 8 9q0 3 -22.5 37t-22.5 64q0 5 2 21v22q-2 17 -5 52q-2 6 -2 20v180q0 12 8 34
t8 34q0 17 -27 36q-31 22 -38 42q-9 24 -14 24q-12 0 -12 -17q0 -9 8 -23q10 -18 12 -22q17 -50 17 -137q0 -12 -1.5 -36.5t-1.5 -36.5q0 -17 2.5 -51.5t2.5 -51.5q0 -84 -29 -129q-23 -36 -23 -43q0 -10 7.5 -20t14.5 -10t24.5 11.5t30.5 11.5q6 0 26.5 -9.5t24.5 -10.5z
" />
    <glyph glyph-name="O" unicode="O" horiz-adv-x="578" 
d="M330 520q-2 15 -12 40q-35 47 -83 47q-30 0 -37 -28q-3 -26 -6 -53t-24 -27q-18 0 -33 40.5t-41 40.5q-9 0 -16.5 8.5t-7.5 16.5q0 24 33 33l40 8q4 4 28 43q16 27 39 27q15 0 32 -15q14 -13 27 -25q11 -8 34 -23q58 -39 152 -54q17 -2 17 -22q0 -19 -22 -31
q-18 -9 -37 -18q-3 -2 -20 -22q-13 -15 -23 -15q-31 0 -40 29zM370 506q4 0 10 8q15 20 27 28q16 7 33 15.5t17 19.5q0 7 -4 7q-59 9 -93 23q-30 11 -83 45q-6 4 -43 36q-15 13 -24 13q-17 0 -34.5 -33t-31.5 -37q-17 -4 -35 -7q-24 -6 -24 -19q0 -10 9 -10q26 0 41 -21
q7 -10 18 -39q7 -21 15 -21q9 0 11 28q2 37 8 52q13 28 48 28q31 0 64 -23t41 -53q6 -26 7 -27q6 -13 23 -13zM490 192v-2q0 -11 -11.5 -22.5t-22.5 -11.5q-12 0 -25 22q-16 25 -25 28q-17 3 -34 5q-20 5 -20 26q0 14 25 42t25 60q0 33 -15.5 61.5t-31.5 56.5l-1 3
q0 26 26 34q20 5 41 11q2 1 24 24q15 16 27 16q13 0 23.5 -12.5t10.5 -23.5q0 -34 -23.5 -99.5t-23.5 -102.5q0 -25 11 -58q10 -28 20 -57zM444 307q0 39 23.5 105t23.5 97q0 6 -6.5 13.5t-12.5 7.5t-21 -16q-19 -20 -22 -22t-35 -10q-24 -6 -25 -20l32 -58t16 -65
t-25 -65.5t-25 -36.5q0 -11 22 -13q28 -3 40 -17q7 -10 13 -19q11 -17 14 -17q5 0 11.5 6.5t7.5 11.5q-10 29 -21 58q-10 33 -10 60zM105 377q27 -40 27 -53q0 -25 -26 -25q-8 0 -21.5 5t-19.5 5q-8 0 -24.5 -5t-25.5 -5q-27 0 -27 28q0 13 30.5 52t30.5 78q0 12 -8 35
t-8 35q0 15 8 30q10 20 27 20q14 0 25 -6.5t35.5 -45t24.5 -48.5q0 -16 -27.5 -33.5t-27.5 -54.5q2 -4 7 -12zM93 369q-10 15 -10 19q0 47 41 72q14 9 14 17q0 6 -22.5 41t-30 39.5t-17.5 4.5q-7 0 -13.5 -11.5t-6.5 -23.5t8 -34.5t8 -35.5q0 -42 -30.5 -83t-30.5 -47
q0 -13 12 -13q9 0 25.5 5t24.5 5t21.5 -5t19.5 -5t8.5 2t2.5 8q0 9 -24 45zM238 -14q-27 25 -54 49q-35 29 -62 29q-2 0 -6.5 -1t-6.5 -1q-38 0 -45 39v68q-1 19 -37 50t-36 46q0 17 19 27.5t37 10.5q29 0 75 -18q23 -8 23 -38q0 -10 -6.5 -27t-6.5 -25q0 -35 10 -51
q16 -27 51.5 -44.5t68.5 -17.5q46 0 56 34q3 10 3 71q0 7 9 19.5t14 11.5q34 -3 43 -11q13 -17 25 -35q2 -2 27 -21q14 -10 14 -35q0 -18 -28 -30l-44 -14q-29 -14 -43.5 -34t-28.5 -41q-20 -28 -40 -28q-12 0 -31 17zM248 -3q15 -13 21 -13q13 0 30 25q11 18 23 36
q27 34 71.5 47t44.5 24q0 18 -12 26q-21 15 -26 21q-8 14 -27 36q-4 2 -26 4q-12 -15 -13 -23l2 -34q-1 -79 -74 -79q-37 0 -75.5 19.5t-57.5 49.5q-12 20 -12 59q0 10 6.5 26.5t6.5 25.5q0 19 -13 24q-43 17 -70 17q-11 0 -26 -6.5t-15 -16.5q0 -7 35.5 -38.5t37.5 -57.5
q0 -5 -1 -19q-1 -17 -1 -24q0 -49 32 -49q2 0 6.5 1t6.5 1q31 0 68 -29q29 -27 58 -53z" />
    <glyph glyph-name="P" unicode="P" horiz-adv-x="501" 
d="M375 429q-9 12 -30 31l-7 4q-20 11 -20 28q0 3 1 8t1 7q0 29 -34.5 51.5t-67.5 22.5q-17 0 -39.5 -14t-30.5 -14q-26 0 -26 28q0 13 14 33q19 26 22 32q16 35 16 36q9 10 36 10v-7q1 8 5 5l14 -8q28 -17 56 -35q38 -21 56 -24q39 -5 43 -6q17 -7 19.5 -33.5t12.5 -79.5
l11 -37q8 -28 8 -36q0 -25 -25 -25q-15 0 -35 23zM208 677q-17 1 -22 -5q-1 -1 -9 -20.5t-31 -50.5q-9 -12 -9 -20q0 -13 11 -13q3 0 26.5 14t43.5 14q37 0 74 -24q43 -27 43 -65q0 -3 -1 -9l-1 -3v-3q0 -8 13 -15l6 -4q7 -4 30 -30q19 -22 28 -22q10 0 10 11v2
q-7 22 -19 67q-7 26 -12 81q-2 16 -7 19t-24 6q-13 0 -36 5q-17 6 -101 57zM109 279q0 6 7 23t7 27q0 6 -4.5 17t-4.5 17q0 20 24 20q11 0 30 -7.5t27 -7.5q26 0 59.5 12t42.5 29q3 18 6 35q4 22 22 23q6 0 25 -21q23 -24 27 -27q12 -8 24 -17t12 -24q0 -38 -60 -47
q-93 -14 -198 -65q-18 -9 -22 -9q-24 0 -24 22zM124 279q0 -7 9 -7q4 2 35 17q85 43 183 57q47 7 47 32q0 10 -13.5 19l-25.5 17q-11 13 -36 37q-5 -2 -8 -22q-3 -23 -5 -26q-12 -23 -52 -38q-34 -12 -63 -12q-11 0 -29.5 7.5t-27.5 7.5q-7 0 -9 -5q0 -5 4.5 -16.5
t4.5 -17.5q0 -12 -7 -29.5t-7 -20.5zM157 68q10 -2 10 -21q0 -15 -17.5 -29t-31.5 -14q-10 0 -28.5 7.5t-26.5 7.5q-1 0 -13.5 -6.5t-17.5 -6.5q-11 0 -20 10t-9 20q0 8 11.5 24t13.5 22q10 33 11 105l5 321q1 89 -17 114q-21 31 -21 41q0 26 28 26q11 0 30 -7.5t27 -7.5
q3 0 18 7.5t20 7.5q10 0 19 -8t9 -18l-1 -3q-16 -24 -39 -76q-9 -34 -10 -135q0 -31 1 -78t1 -54q0 -12 -2 -35.5t-2 -34.5q0 -5 -2 -13t-2 -13q0 -29 16 -97q2 -12 20 -30t19 -21zM152 47q-7 -1 -11 22q-11 11 -23.5 24.5t-15.5 27.5q-16 70 -16 100q0 5 2 13t2 13
q0 11 2 34.5t2 35.5q0 7 -1 54t-1 78q1 50 2 70q2 43 8 69q4 16 19 39q16 27 21 37q-3 10 -13 10q-2 -1 -19 -9q-13 -6 -19 -6q-10 0 -28.5 7.5t-28.5 7.5q-13 0 -13 -11q0 -7 12 -24t14 -23q12 -35 12 -109q-2 -107 -5 -320q-1 -43 -3 -63q-4 -42 -15 -60l-18 -28
q0 -4 5 -9.5t9 -5.5q2 0 14.5 6.5t16.5 6.5q11 0 29 -7.5t26 -7.5q9 0 21.5 10t12.5 18v0z" />
    <glyph glyph-name="Q" unicode="Q" horiz-adv-x="592" 
d="M346 515q0 31 -29 58t-61 27q-31 0 -36 -36q-7 -48 -19 -60q-3 -2 -5 -2h-12q-12 0 -25 42q-11 32 -36 41q-21 7 -21 22q0 25 30 30q42 6 43 7q7 5 26 38q15 26 37 26q16 0 28 -13q79 -81 144 -98q20 -5 59 -14q17 -5 17 -26q0 -14 -32 -29q-38 -18 -41.5 -22.5
t-9.5 -10.5l-3 -4q-8 -10 -18 -10q-11 0 -23.5 11t-12.5 23zM361 515q0 -5 8 -12t13 -7q3 0 7 5l3 3q14 17 25 23q16 7 31 15q21 10 23 15q0 10 -6 11q-30 8 -60 15q-34 9 -57 24q-46 30 -92 78q-8 8 -18 8q-14 0 -31.5 -32.5t-45.5 -35.5q-13 -1 -27 -2q-17 -4 -17 -16v-4
q31 -14 35 -17q12 -9 21 -38q3 -11 14 -31h6q8 9 11.5 38.5t9.5 40.5q12 19 42 19q38 0 71.5 -31t33.5 -69zM412 488q7 1 23.5 8.5t19.5 13.5q13 18 27 18q29 0 29 -33q0 -30 -28 -97t-28 -108q0 -18 11.5 -52.5t11.5 -46.5q0 -11 -11 -21t-21 -10q-12 0 -23 24t-35 28
q-12 2 -25 5t-13 17q0 16 26.5 42.5t26.5 59.5q0 43 -31 100q-7 12 -7 18q0 13 13.5 25t26.5 11h2zM407 473l-4 2q-7 0 -15 -7.5t-8 -13.5q0 1 19 -35q19 -40 19 -83q0 -40 -39 -77q-14 -15 -14 -25q0 -3 25 -7q31 -5 45 -33q9 -19 11 -19q4 0 10.5 6t6.5 10q0 5 -11.5 43
t-11.5 56q0 44 28 110.5t28 94.5q0 18 -14 18q-6 0 -13 -9t-9 -11q-29 -20 -50 -20h-3zM116 410q0 -21 13 -39l5 -7q10 -15 10 -29q0 -23 -22 -23q-9 0 -25 6t-22 6q-7 0 -20.5 -2.5t-20.5 -2.5q-26 0 -26 26q0 6 32 47.5t32 84.5q0 10 -5.5 28.5t-5.5 28.5q0 45 38 45
q34 0 72 -93l1 -3q-1 -20 -28.5 -34.5t-27.5 -38.5zM101 410q0 44 53 63q2 4 3 9q-34 82 -58 82q-23 0 -23 -30q0 -10 5.5 -28.5t5.5 -28.5q0 -51 -56 -119q-8 -10 -8 -13q0 -11 11 -11q7 0 20.5 2.5t20.5 2.5q9 0 24.5 -6t22.5 -6t7 8q0 9 -8 20l-5 8q-15 22 -15 47z
M353 74l1.5 -1.5l1.5 -1.5h-3q-10 0 -43.5 -40.5t-48.5 -40.5q-20 0 -55 36q-44 45 -53 50t-33.5 7.5t-34.5 7.5q-16 8 -16 30q0 8 2 24.5t2 24.5q0 50 -48 85q-14 9 -14 26q-1 17 13.5 27t30.5 10q12 0 49.5 -12t42 -20.5t4.5 -22.5q0 -10 -7.5 -29.5t-7.5 -27.5
q0 -48 39 -80.5t88 -32.5q20 0 37 12.5t17 29.5q0 6 -11.5 13t-21.5 7q-2 0 -6.5 -1.5t-6.5 -1.5q-10 0 -22 8q-15 9 -15 21q0 2 22 43q7 12 13.5 39t13.5 40t29 13q17 0 21 -19q1 -5 1 -32v-4q3 -5 7 -29q1 -7 18 -11.5t27 -21.5q13 -21 16.5 -25t20.5 -18.5t17 -29.5
q0 -19 -22 -33l-5 -3q22 -48 66 -64q8 -3 16 -21t8 -26q0 -10 -9 -22t-20 -12t-30.5 8.5t-26.5 8.5q-3 0 -17 -7.5t-20 -7.5q-9 0 -20.5 7.5t-11.5 18.5q0 10 3.5 29.5t3.5 28.5q0 7 -1 21t-1 21v1zM474 -40q3 0 8.5 7t5.5 12q0 4 -6 18t-8 15q-54 19 -77 78q-2 6 13 15.5
t15 20.5q0 8 -9.5 16t-18.5 15q-5 5 -19 28q-12 18 -20 20q-27 7 -30 19q-4 16 -8 31l-1 3v6q0 37 -7 37q-16 0 -22 -22t-21 -62q-20 -38 -20 -36q0 -3 8 -8.5t14 -5.5q2 0 6 1.5t7 1.5q13 0 30.5 -9.5t17.5 -25.5q0 -25 -22 -41t-47 -16q-54 0 -98 36.5t-44 91.5
q0 10 7.5 29t7.5 28q0 10 -2 14.5t-35.5 15t-43.5 10.5q-30 0 -29 -30q7 -5 20 -16q42 -41 42 -87q0 -8 -2 -24.5t-2 -24.5q0 -18 30 -22q41 -7 48 -11t49 -47q36 -36 50 -36q7 0 41 40.5t51 40.5q15 0 15 -12v-3q0 -6 1 -19.5t1 -20.5q0 -9 -3.5 -28.5t-3.5 -29.5
q0 -11 17 -11q2 0 16 7.5t21 7.5q11 0 30 -8.5t27 -8.5z" />
    <glyph glyph-name="R" unicode="R" horiz-adv-x="517" 
d="M372 621l4 2l3 1h1q32 0 39 -58q4 -36 6 -46q3 -14 13.5 -44.5t10.5 -46.5q0 -24 -25 -24q-15 0 -35 21q-27 29 -30 31q-26 19 -28 20q-4 6 -4 38q0 24 -35 45t-64 21q-23 0 -44 -14t-33 -14q-25 0 -25 28q0 10 18 36q20 30 23.5 39.5t8 21t15.5 15.5q5 1 24 1
q6 0 65 -36.5t92 -36.5v0zM413 425q7 -5 11 -5t9 6q1 19 -10 50q-13 36 -15 49q-1 26 -12 76q-3 8 -15 8q-4 -3 -9 -3q-29 0 -71 23q-13 6 -67 40q-23 14 -39 9q-5 -1 -14 -28q-3 -7 -21.5 -35.5t-18.5 -33.5q0 -13 10 -13q7 0 28.5 14t48.5 14q32 0 70 -23q44 -26 44 -58
q0 -26 3 -30q11 -8 23 -15q14 -16 45 -45zM116 272q0 7 7.5 23.5t7.5 22.5t-5 19.5t-5 20.5q0 16 23 21h2q6 -1 28 -8.5t28 -7.5q37 0 71 17q41 19 41 48q0 36 21 36q11 0 84 -67q8 -7 8 -20q0 -27 -36 -40q-15 -5 -58 -13q-71 -12 -163 -61q-23 -13 -29 -13q-25 0 -25 22z
M131 272q0 -7 10 -7q-3 0 51 27q73 36 139 47q81 14 81 38q0 6 -3 9q-44 40 -76 63q-4 -2 -4 -21q0 -39 -49 -62q-38 -18 -78 -18q-9 0 -28 7q-24 8 -29 9q-7 -2 -9 -6q0 -5 5 -18.5t5 -21.5q0 -6 -7.5 -24t-7.5 -22zM389 2q-14 6 -23 6l-2 -1q-4 -1 -24.5 -10.5t-26.5 -9.5
q-40 0 -40 42q0 16 15.5 42.5t15.5 42.5q0 38 -35 67q-11 10 -66 43q-12 7 -12 25q0 11 12 18.5t21 7.5q1 0 9 -2q12 0 37.5 22t43.5 22q32 0 32 -44q0 -7 -1 -20t-1 -18q0 -41 28 -96q30 -58 62 -75q37 -19 37 -43q0 -14 -11.5 -24t-25.5 -10q-8 0 -19.5 4.5t-25.5 10.5z
M434 2q22 0 22 19q0 15 -29 30q-37 19 -68 81q-30 59 -30 103q0 3 1 16t1 21q0 30 -17 30q-13 0 -38 -22t-42 -22q-1 0 -10 2q-5 0 -11.5 -4.5t-6.5 -6.5q0 -10 4 -12q59 -35 73 -47q36 -33 36 -76q0 -19 -15.5 -46.5t-15.5 -38.5q0 -27 25 -27l2 1q5 1 25 10.5t26 9.5
q13 0 35.5 -10.5t32.5 -10.5zM86 5q-3 0 -19 -7.5t-21 -7.5q-11 0 -23.5 12.5t-12.5 22.5q0 4 15.5 27t15.5 44q0 64 -2 191.5t-2 191.5q0 12 1 36.5t1 37.5q0 35 -32 101q-2 5 -2 8q0 27 32 27q9 0 27 -6.5t27 -6.5q3 0 19 7.5t22 7.5q11 0 20 -8.5t9 -19.5v-3l-28 -50
q-18 -35 -18 -52v-277q0 -12 -2.5 -35t-2.5 -35q0 -45 18 -101q5 -14 22.5 -31t20.5 -28q9 -4 9 -13q0 -14 -17 -30t-31 -16q-9 0 -24.5 6.5t-21.5 6.5zM164 38q-5 2 -8.5 10t-8.5 14l-19 19q-10 11 -14 25q-19 58 -19 105q0 12 2.5 35t2.5 35v277q0 20 18 54q14 26 28 53
q-2 11 -14 11q-2 0 -18.5 -7.5t-22.5 -7.5q-10 0 -27.5 6.5t-26.5 6.5q-17 0 -17 -11v-2q12 -26 23 -52t11 -56q0 -13 -1 -37.5t-1 -36.5q0 -64 2 -191.5t2 -191.5q0 -22 -10.5 -38.5t-20.5 -32.5q1 -5 9 -12.5t12 -7.5q2 0 17.5 7.5t22.5 7.5q9 0 24.5 -6.5t21.5 -6.5
q8 0 20 11t12 20z" />
    <glyph glyph-name="S" unicode="S" horiz-adv-x="519" 
d="M350 470q-4 7 -4 25v13q-1 37 -47 67q-41 26 -79 26t-64 -43q-21 -36 -25 -77q-1 -8 -10.5 -14t-15.5 -6q-8 0 -41 19q-28 16 -36 23q-14 11 -14 27q0 27 29 40q25 8 49 17q55 25 95 104q12 23 36 23t36 -14.5t24 -28.5q50 -39 80 -40q26 -2 36.5 -10.5t10.5 -34.5
q-1 -5 -1.5 -14t-0.5 -13q0 -12 8 -32.5t8 -29.5q0 -16 -13.5 -29t-29.5 -13q-23 0 -31 15zM363 477q4 -7 18 -7q10 0 19 9t9 18q0 5 -8 27t-8 35q0 4 1 14t1 15q0 26 -20 27q-9 0 -27 3q-62 21 -91 61q-15 20 -34 20q-12 0 -18 -9t-11 -18q-12 -25 -41 -55q-31 -33 -54 -44
q-22 -7 -43 -14q-27 -10 -27 -29q0 -12 43 -37q11 -7 33 -17q5 0 11 6q5 48 30 87q30 47 74 47q45 0 90 -30q50 -34 50 -78l1 -13q0 -14 2 -18zM347 172q-29 6 -32 9.5t-9 32.5q-5 24 -14.5 34t-34.5 12q-6 0 -12 8.5t-6 15.5q0 10 14 15q11 5 22 9q13 9 25 18q22 14 28 14
q23 0 31 -29q13 -45 47 -76q37 -34 37 -50q0 -15 -10.5 -26.5t-26.5 -11.5q-10 0 -20 7t-39 18zM255 283q0 -4 5 -9q38 -3 51 -27q1 -3 15 -54q18 -4 54 -17q23 -14 26 -14q22 0 22 23q0 9 -19 27q-26 24 -27 26q-28 37 -37 69q-5 18 -17 18q-17 -12 -45 -30q-9 -3 -25 -10z
M171 308q-27 41 -90 80t-78 60q-4 5 -7 18q-3 14 2 18q13 13 24 13q22 0 43.5 -20t58.5 -20q32 0 43 -17q46 -72 120 -72q8 0 15.5 -8t7.5 -15q0 -17 -14 -26q-46 -29 -83 -44l-3 -2q-2 -1 -4 -1q-16 0 -23 12t-12 24zM205 287l2 1q37 16 81 44q7 4 7 13q0 8 -8 8
q-82 0 -133 79q-6 10 -30 10q-43 0 -74 29q-12 11 -28 11q-4 0 -12 -7q0 -22 36 -47q40 -26 81 -53q47 -34 62 -71q4 -9 5 -11q4 -5 11 -6zM185 -14q-15 22 -31 45q-19 26 -44 26q-8 0 -26.5 -8t-29.5 -8q-7 0 -15 5q-11 8 -12 9q-5 2 -5 11q0 4 8 41q5 27 5 41
q0 9 -6.5 26.5t-6.5 26.5q0 15 11 32t28 17q11 0 27.5 -12.5t15.5 -24.5q-1 -15 -1 -17q0 -41 26.5 -73.5t65.5 -32.5q30 0 53 22q7 7 30 41q15 22 28 22q20 0 28 -4q27 -9 73 -30q14 -8 14 -25t-43 -29q-29 -8 -59 -17q-45 -24 -57 -51q-7 -17 -14 -33q-10 -16 -32 -16
q-17 0 -31 16zM196 -4q10 -11 20 -11q15 0 21 13.5t11 26.5q23 50 90 67q19 5 37 10q31 9 31 14q0 12 -37 25q-28 9 -42 17q-5 2 -21 2q-6 0 -20 -22q-18 -28 -33 -41q-25 -22 -58 -22q-47 0 -78 39q-29 36 -29 82q0 2 1 18q1 4 -10.5 12.5t-17.5 8.5q-8 0 -16 -11.5
t-8 -22.5q0 -9 6.5 -26t6.5 -27q0 -16 -5 -41q-6 -33 -7 -41l2 -2q12 -8 14 -8q8 0 27 8t29 8q31 0 52 -27q17 -25 34 -49z" />
    <glyph glyph-name="T" unicode="T" horiz-adv-x="524" 
d="M447 624q9 -22 9 -29q0 -9 -3 -12q-14 -15 -28 -15q-5 0 -35.5 18t-51.5 18q-1 0 -185 -8q-5 0 -13.5 1.5t-12.5 1.5q-46 0 -83 -17q-17 -9 -23 -9q-35 0 -35 41q0 5 9.5 18.5t10.5 16.5q0 3 -6 14.5t-6 18.5q0 26 30 26q4 0 31 -12q31 -13 32 -13q55 -18 99 -18h112
q27 0 54 8.5t53 16.5q16 5 29 5q39 0 39 -35q0 -18 -22 -31l-5 -3zM430 628q0 8 14 14.5t14 17.5q0 20 -24 20q-12 0 -55 -15t-81 -15h-112q-60 0 -137 32q-8 4 -25 11q-15 0 -15 -11q0 -3 6 -15t6 -17q0 -7 -8 -19q-11 -15 -12 -17q0 -26 20 -26q3 0 19.5 8t19.5 9
q30 9 67 9q4 0 12.5 -1.5t12.5 -1.5q185 8 186 8q23 0 46 -14q32 -19 41 -22q6 0 15 9q1 2 1 3q0 6 -5.5 17t-5.5 16zM286 2q-40 15 -39 15q-12 0 -32.5 -11.5t-32.5 -11.5q-17 0 -30 15t-13 32q0 3 24 40q19 29 21 63q0 -3 0 67q0 36 2.5 110t2.5 111q0 56 -21 82
q-8 9 -16 18.5t-8 21.5q0 42 46 42q10 0 28.5 -8t26.5 -8l2 1q4 1 21.5 9t22.5 8q10 0 18 -9t8 -18q0 -30 -17 -57q-23 -34 -28 -52q-12 -41 -11 -60q8 -139 8 -144q0 -15 -3.5 -44t-3.5 -44q0 -60 33 -92l24 -20q13 -14 13 -27q0 -32 -31 -32q-6 0 -15 3zM292 16q6 -2 9 -2
q16 0 16 17q0 8 -18 24q-23 19 -33 37q-19 31 -19 78q0 15 3.5 44t3.5 44q0 4 -8 144q-1 21 11 64q7 23 29 53q16 23 16 52q0 12 -11 12q-3 0 -21.5 -9t-24.5 -9q-11 0 -29 8t-26 8q-31 0 -31 -27q0 -7 12 -20q14 -17 21 -33q12 -28 12 -69q0 -37 -2.5 -111t-2.5 -110v-71
q-3 -36 -23 -67q-8 -11 -22 -34q1 -11 10 -20.5t18 -9.5q8 0 28.5 11.5t36.5 11.5q2 0 45 -16z" />
    <glyph glyph-name="U" unicode="U" horiz-adv-x="510" 
d="M412 292q0 -18 14 -48.5t14 -38.5q0 -28 -38 -31q-53 -6 -62 -11q-26 -18 -34 -18q-26 0 -26 26q0 19 28.5 61.5t28.5 94.5v205q0 21 -12 48t-26 30q-22 4 -22 49q0 18 14.5 29.5t31.5 11.5q5 0 23.5 -9t23.5 -11h1q7 0 24 7.5t26 7.5q29 0 29 -25v-2q-3 -9 -28 -53
q-14 -23 -14 -64q0 -50 2 -129q2 -104 2 -130zM397 292q0 26 -2 130q-2 79 -2 129q0 44 14 68q26 47 28 52q-1 9 -14 9q-6 0 -23 -7.5t-27 -7.5q-7 0 -25 9.5t-23 10.5q-31 0 -31 -26q0 -25 12 -35q21 -5 36 -41q12 -28 12 -51v-205q0 -57 -28.5 -99.5t-28.5 -56.5
q0 -11 11 -11q4 0 18.5 10t18.5 11q14 5 36 6q29 2 37.5 3.5t8.5 14.5q0 4 -14 35.5t-14 51.5zM117 160q-16 8 -36 10q-11 0 -35 3q-7 2 -14.5 11t-7.5 17q0 3 2 5q32 61 32 68q0 6 -3 18t-3 18q0 15 2 46.5t1.5 47.5t1.5 52q1 33 0 51q-1 28 -7 50q-8 33 -10.5 38t-23.5 29
q-14 18 -14 35t13 29t30 12q11 0 31.5 -8.5t29.5 -8.5q12 6 37 17h3q13 0 22 -9.5t9 -22.5q0 -15 -17 -38q-21 -30 -24 -37q-8 -20 -9 -110v-62q0 -24 -1 -29q1 -5 3 -43q3 -46 6 -69q7 -47 23 -64q24 -28 24 -39q0 -12 -8.5 -22t-21.5 -10q-3 0 -6 1t-29 14zM112 397v-1v25
v62q1 93 10 116q3 7 23 35q17 24 17 34q0 16 -15 17q-40 -17 -41 -17q-12 0 -32.5 8.5t-28.5 8.5q-11 0 -19.5 -8t-8.5 -18q0 -13 20.5 -36.5t23.5 -45.5q3 -11 7 -34l2 -138q1 -17 -1 -48.5t-2 -46.5q0 -6 3 -18t3 -18q0 -13 -33 -73q2 -12 16 -14t26 -2q23 -2 39 -10
q27 -14 31 -15q15 0 15 17q0 6 -12 20q-15 16 -17 20q-20 39 -24 153q-1 12 -3 20zM216 -31q-11 1 -33.5 28t-48.5 46t-53 39q-46 32 -46 52q0 30 25 30q33 0 68 -9q48 -12 55 -33q9 -28 12 -32q9 -15 31 -15q9 0 27 9t21 19q4 14 8.5 28.5t31.5 14.5q9 0 28 9t36 9
q42 0 42 -40q0 -25 -66 -68q-79 -53 -94 -73q-11 -15 -34 -15q-7 0 -10 1zM218 -16q2 -1 8 -1q15 0 20.5 7.5t12.5 15.5q54 52 137 97q9 5 9 21q0 25 -27 25q-14 0 -33 -9t-31 -9q-21 0 -23 -19q-3 -25 -20 -35q-29 -17 -45 -17q-30 0 -39.5 19t-17.5 39q-34 31 -109 31
q-10 0 -10 -15q0 -12 79 -68q34 -24 77 -74q3 -4 12 -8z" />
    <glyph glyph-name="V" unicode="V" horiz-adv-x="545" 
d="M357 112q0 -43 -34 -43q-17 0 -22.5 13t-10.5 25q-3 7 -26 21q-18 11 -18 35q0 17 16 43q13 20 25 41q4 8 14 44q21 72 43 144q27 98 27 142q0 14 -11.5 37t-11.5 33q0 17 14.5 29t30.5 12q10 0 27 -9t25 -9t22 7.5t19 7.5q10 0 17.5 -9t7.5 -18q0 -14 -15 -28.5
t-28 -27.5q-20 -23 -28 -56q-26 -95 -75 -284q-14 -59 -14 -101q0 -9 3 -24.5t3 -24.5zM342 112q0 9 -3 24.5t-3 24.5q0 44 15 103q13 51 27 102q16 61 47 183q8 33 25 55q8 10 42 42q4 4 4 12q0 12 -11 12q-2 -1 -19 -9q-11 -6 -21 -6q-11 0 -28 9t-24 9q-11 0 -20.5 -8
t-9.5 -18q0 -7 11.5 -30t11.5 -40q0 -46 -27 -144l-44 -146q-5 -21 -25 -66q-29 -44 -29 -58q0 -12 5 -18q2 -2 17.5 -11.5t20 -20t8 -20t11.5 -9.5q19 0 19 28zM276 7q-11 10 -15 10q-7 -2 -30.5 -15t-30.5 -13q-12 0 -25 13t-13 25q0 11 7.5 32t7.5 32q0 45 -19 108
l-34 106q-16 75 -33 151q-26 108 -53 132l-28 24q-17 16 -17 30q0 15 13 31.5t29 16.5q6 0 25 -9t24 -11h1q6 0 18 5t20 5q30 0 30 -29q0 -13 -4 -39.5t-4 -39.5q0 -20 6.5 -44.5t12.5 -46.5l38 -182q23 -107 51 -179q10 -26 25 -38q9 -7 39 -19q25 -11 25 -35
q0 -14 -11 -25t-25 -11q-15 0 -30 15zM286 17q11 -10 20 -10q21 0 21 21q0 14 -16 21q-32 15 -36 17q-24 16 -36 48q-29 73 -52 180q-19 92 -37 184q-7 23 -13 46q-7 28 -7 48q0 13 4 39.5t4 39.5q0 14 -15 14q-5 0 -17 -5t-20 -5q-7 0 -27 10t-24 10q-9 0 -18 -11t-9 -22
q0 -9 24 -29q28 -24 33 -35q25 -50 43 -132q27 -124 31 -137q17 -54 34 -107q19 -65 19 -111q0 -12 -7.5 -32.5t-7.5 -31.5q0 -5 8.5 -14t14.5 -9q7 2 30.5 15t30.5 13q10 0 25 -15z" />
    <glyph glyph-name="W" unicode="W" horiz-adv-x="756" 
d="M593 23l1 -3q0 -15 -13.5 -29t-28.5 -14q-6 0 -24 12q-21 15 -24 16q-5 0 -15.5 -13t-22.5 -13q-14 0 -26 15t-12 28q0 27 15.5 33.5t30.5 12.5q13 10 26 38t13 44q0 3 -1 8.5t-1 8.5q0 -1 11 44q24 102 48 237q5 16 12.5 50.5t7.5 86.5q0 10 -7.5 28t-7.5 28q0 35 29 35
q3 0 32 -10q41 21 44 21q6 0 20 -10t15 -15q3 -27 3 -25q0 -23 -17 -36q-22 -17 -26 -27.5t-11 -27.5q-31 -84 -51 -232q-8 -27 -22 -82q-16 -68 -16 -151q0 -17 18 -58zM560 81q0 109 28 195q8 25 10 40q20 150 52 235q12 31 14 35q7 12 27 26q12 9 12 25q0 3 -2 20
q-7 6 -21 14q-3 -1 -25 -12q-17 -9 -21 -8q-35 10 -30 10q-14 0 -14 -20q0 -7 7.5 -25.5t7.5 -30.5q0 -53 -7 -90q-5 -16 -14 -50q-30 -173 -54 -260q-4 -15 -4 -18t1 -8.5t1 -8.5q0 -19 -14.5 -50.5t-30.5 -43.5q-2 -2 -27 -11q-13 -5 -13 -23q0 -8 8.5 -18t14.5 -10
q5 0 15.5 13.5t23.5 13.5l2 -1q15 -11 45 -28q8 0 17 9t10 18q-19 42 -19 62zM459 64q-7 -14 -10 -18q-6 -7 -12 -7q-31 0 -31 58q0 7 1 22t1 23q0 102 -47 327q-25 -105 -67 -318q-7 -43 -7 -75q0 -11 6 -32t6 -32q0 -14 -7 -26q-9 -16 -25 -16q-5 0 -23 12q-12 7 -24 15
q-7 -1 -17 -14t-23 -13t-23.5 15.5t-10.5 26.5q0 20 14.5 28.5t29.5 15.5q29 25 77 249q44 211 44 280q0 10 -7.5 29.5t-7.5 30.5q0 35 28 35q7 0 17 -5.5t14 -5.5q3 2 20 13q11 8 23 8q17 0 30 -15.5t13 -31.5q0 -15 -12 -34q-13 -22 -15 -28q1 -2 4.5 -7.5t3.5 -9.5v-16
q-1 -10 -1 -15q0 -49 25 -139q29 -103 33 -139q1 -26 10 -68q15 -30 15 -48q0 -15 -6 -23l-12 -16q0 -12 -12 -20.5t-15 -15.5zM436 54q4 12 22 33q12 9 13 13q1 8 8 16q10 12 10 23q0 15 -13 42q-7 15 -10 45q-2 37 -5 48q-55 200 -55 259q0 5 1 15v16q-8 13 -8 16
q0 8 13.5 30t13.5 33t-9 21.5t-19 10.5q-9 0 -23 -10.5t-20 -10.5q-7 0 -17 5.5t-14 5.5q-13 0 -13 -20q0 -10 7.5 -29.5t7.5 -30.5q0 -71 -45 -283q-48 -230 -82 -257q-12 -7 -25 -14t-13 -19q0 -7 7 -17t12 -10q6 0 16.5 13.5t25.5 13.5l3 -1q13 -10 42 -26q17 0 17 27
q0 11 -6 32t-6 32q0 42 21 152q20 103 61 278q2 7 7 7q6 0 8 -8q34 -166 36 -180q18 -104 18 -183q0 -8 -1 -23t-1 -22q0 -42 15 -43zM127 169q0 39 -11 93q-10 45 -19 91q-9 71 -17 142q-15 95 -49 124q-17 14 -17 32q0 28 25 28q5 0 31 -12q38 20 43 20q38 0 38 -42
q0 -12 -5.5 -35.5t-5.5 -34.5q0 -29 10 -70q8 -35 16 -69q5 -46 19 -138q3 -23 6 -47t15 -44q23 -39 23 -60q0 -14 -25.5 -56t-39.5 -42q-37 0 -37 120zM152 74q6 -10 12 -10q5 0 27.5 36.5t22.5 46.5q0 16 -12 37q-18 32 -19 35q-6 14 -8 38q-4 34 -5 38q-5 47 -19 138
l-16 70q-10 42 -10 72q0 12 5.5 35t5.5 35q0 27 -24 27q-2 -1 -24 -13q-17 -9 -21 -7q-9 5 -28 12q-10 0 -10 -13q0 -9 20 -28q31 -29 45 -126q9 -71 18 -141q9 -46 19 -93q11 -55 11 -94q0 -73 10 -95z" />
    <glyph glyph-name="X" unicode="X" horiz-adv-x="559" 
d="M306 354q-6 6 -16 32t-17 31q-19 2 -19 17q0 8 7.5 18t15.5 12l3 1q2 0 8 2t29.5 34t26.5 43q6 19 17 41q7 13 7 21q0 9 -4.5 25t-4.5 24q0 21 17 32t36 11q25 0 29.5 -21t14.5 -21q2 0 7 1.5t7 1.5q14 0 21.5 -13t7.5 -25q0 -23 -22 -30q-28 -8 -61 -55
q-8 -12 -15.5 -41.5t-18.5 -44.5q-8 -10 -22 -32l-12 -36q-11 -29 -21 -29q-2 0 -7 -1t-7 -1q-4 0 -7 3zM325 368q6 19 22 56q14 17 36 62q4 20 21 58q35 52 68 62q12 3 12 15q0 23 -14 23q-2 0 -7 -1.5t-7 -1.5q-23 0 -26.5 21t-17.5 21q-38 0 -38 -28q0 -8 4.5 -24
t4.5 -25q0 -12 -7 -26q-12 -21 -12.5 -23t-4.5 -16.5t-30 -49.5t-37 -39q-3 -1 -8 -2h-3l-1 -1q-11 -3 -11 -16q1 0 2 -1q15 2 28 -29q16 -37 17 -38q-2 0 -3 1q-3 0 12 2zM434 -22q-14 -18 -25 -18q-9 0 -20.5 12.5t-11.5 20.5q0 19 -18 58q-12 29 -25 58q-25 70 -121 231
q-103 171 -147 201q-13 6 -37 20.5t-24 49.5q0 27 33 44q37 19 43 38q2 8 19 8q25 0 40 -33q9 -19 18.5 -65.5t17.5 -58.5l230 -368q24 -39 55 -53q48 -22 48 -61q0 -18 -19 -26q-23 -10 -25 -13q-4 -9 -17 -24q-4 -7 -14 -21zM422 -13q7 11 18 24q2 1 9 15t24 20
q21 7 21 16q0 29 -39 47q-35 16 -62 59l-230 368q-3 5 -24 86q-16 64 -39 64q-3 0 -6 -1q-8 -23 -43 -40q-31 -16 -31 -34q0 -28 18 -38t37 -19q46 -32 150 -207q97 -161 123 -233q13 -30 26 -59q17 -38 18 -60q10 -20 17 -20q3 0 13 12zM144 17q0 -21 -16.5 -32t-35.5 -11
q-26 0 -30 21t-14 21q-3 0 -7.5 -1t-7.5 -1q-13 0 -22 14q-7 11 -7 23q0 17 11.5 22.5t22.5 11.5q31 21 55 64q35 62 42 72q11 21 34 63q17 31 38 31q16 0 23 -45q28 -17 28 -36q0 -21 -25 -36q-17 -10 -34 -19q-61 -64 -61 -114q0 -8 3 -24t3 -24zM206 300q-12 0 -26 -27
q-9 -19 -17 -37q-11 -15 -30 -45q-20 -35 -40 -71q-27 -41 -58 -54q-16 -6 -16 -15q0 -22 14 -22q3 0 7.5 1t7.5 1q22 0 25.5 -21t18.5 -21q37 0 37 28q0 8 -3 24t-3 24q0 33 25 76t55 57q40 21 40 36q0 8 -13 17.5t-14 12.5q-2 15 -10 36z" />
    <glyph glyph-name="Y" unicode="Y" horiz-adv-x="536" 
d="M309 360h-3h-1h-3h-5q-13 -2 -13 11q0 5 3 18.5t3 18.5q0 13 -24 27t-24 30t22 27q18 7 35 14.5t32 41.5q13 31 13 56q0 11 -5 32t-5 32q0 30 38 30q7 0 21 -2.5t21 -2.5q16 0 30.5 9t19.5 9q9 0 21 -10.5t12 -20.5q0 -24 -64 -98q-67 -78 -74 -124q-1 -27 -3 -53
q-3 -36 -20 -42q-9 -4 -27 -3zM300 375q7 1 11 0q29 -1 29 21q0 64 17 104q15 34 63 90q62 72 62 90q0 3 -7.5 9.5t-11.5 6.5q-10 -6 -20.5 -12t-28.5 -6q-7 0 -21 2.5t-21 2.5q-23 0 -23 -15q0 -11 5 -32t5 -32q0 -28 -14 -62q-17 -38 -40 -50q-13 -5 -27 -10
q-21 -9 -21 -17q0 -6 24 -21.5t24 -35.5q0 -6 -5 -33zM182 338h1q11 3 51 3q4 0 24 4t30 4q18 0 18 -11t-19 -48t-25 -61q0 -3 -4.5 -6t-4.5 -10l4 -21q3 -16 1 -61q-2 -39 8 -60q2 -6 30 -38l4 -5q3 -3 3 -6q0 -13 -7.5 -26t-22.5 -13q-6 0 -20 8t-17 8q-4 0 -10 -5l-5 -4
q-15 -12 -31 -12t-29 10t-13 27t18 47t18 57q0 122 -8 153q-3 11 -22 36q-17 22 -17 37q0 7 1.5 20t1.5 20t-1 12.5t-33 69.5q-31 61 -39 75q-11 18 -30 30q-32 19 -34 21q-17 13 -17 33q0 15 12.5 29t28.5 14q4 0 11 -1.5t10 -1.5q13 0 23 18.5t28 18.5q14 0 22 -17
q7 -13 7 -25q0 -5 -5 -15.5t-5 -13.5q0 -43 29 -99.5t65 -83.5l46 -22q30 -16 30 -38q0 -6 -8 -9t-14 -6q-11 -13 -43 -19q-35 -7 -41 -12v-3v-2zM288 19l-3 4q-26 30 -34 45.5t-8 38.5q0 6 1 23.5t1 28.5q0 19 -5 41q-2 7 -2 13q0 16 11 22q1 7 37 88q2 4 0 6l-2 3
q0 4 -5 4q-4 0 -14.5 -3.5t-12.5 -3.5q-7 0 -35 -3.5t-38 -3.5q-12 0 -12 14q0 -1 0 6l1 7q8 12 43.5 19t42.5 16q2 2 18 9q-3 12 -30 25q-37 18 -39 19q-38 29 -69 88.5t-31 106.5q0 6 5 17t5 12q0 9 -5 18t-9 9q-9 0 -19.5 -18.5t-31.5 -18.5q-3 0 -10 1.5t-11 1.5
q-9 0 -17.5 -9.5t-8.5 -18.5q0 -14 13 -22.5t25 -15.5q27 -16 41 -39q8 -14 39 -75q33 -66 34.5 -73.5t1.5 -15.5q0 -7 -1.5 -20t-1.5 -20q0 -9 17.5 -33.5t20.5 -35.5q9 -33 9 -157q0 -30 -18 -61t-18 -43q0 -22 27 -22q11 0 21 8l5 4q10 9 20 9q6 0 18 -7q16 -8 19 -9
q14 0 15 21z" />
    <glyph glyph-name="Z" unicode="Z" horiz-adv-x="542" 
d="M181 87q14 0 41.5 -2.5t41.5 -2.5q45 0 90 26t53 26q7 0 19 -5.5t12 -11.5q0 -13 -9 -48q-1 -5 -1 -10q0 -7 6.5 -23t6.5 -25q0 -13 -9.5 -24.5t-23.5 -11.5q-12 0 -30 13q-21 16 -30 18q-36 8 -159 8q-7 -2 -34 -18t-34 -16h-52q-20 0 -39 13.5t-19 34.5q0 14 10.5 23.5
t21.5 17.5q41 31 51 58q29 77 80 190q11 18 33 56q10 24 32 73q22 43 45 87q38 75 38 85q0 9 -4 17q-4 -5 -7 -48q-3 -33 -26 -33q-14 0 -26 13q-18 18 -29 24q-25 13 -66 13q-48 0 -73 -22q-9 -8 -18.5 -16.5t-21.5 -8.5q-22 0 -29 27q-2 9 -4 44q-7 8 -13.5 17t-6.5 21
q0 29 52 29q28 0 87 -10.5t87 -10.5q14 0 39 8t38 8q5 0 12 -4t9 -4h2l1 1q1 0 5.5 3.5t10.5 3.5q9 0 18 -8l5 -3q9 -8 21 -8q9 0 29.5 9.5t31.5 9.5q12 0 21.5 -9t9.5 -21t-9.5 -27.5t-20.5 -21.5q-40 -23 -64 -67q-19 -42 -39 -85q-49 -93 -97 -187q-74 -142 -78 -177
q8 -8 12 -8zM181 72q-6 0 -16.5 7t-10.5 13q0 33 77 182l100 192l40 88q26 45 69 70q22 12 22 36q0 15 -16 15q-8 0 -28.5 -9.5t-32.5 -9.5q-18 0 -31 11l-4 3q-5 5 -9 5q-1 0 -2 -1l-1 -1q-1 0 -5.5 -3t-10.5 -3q-5 0 -12.5 4t-8.5 4q-13 0 -38 -8t-39 -8q-28 0 -87 10.5
t-87 10.5q-37 0 -37 -14q0 -8 7 -17q11 -14 12 -16l1 -3l2 -34q3 -24 16 -24q7 0 20 12q16 16 30 23q25 12 63 12q66 0 100 -37q13 -13 21 -13q10 0 12 38.5t22 45.5q8 3 14 -13q4 -12 4 -22q0 -13 -37 -86q-23 -46 -47 -92q-10 -26 -33 -75q-12 -17 -32 -54
q-52 -113 -80 -189q-12 -33 -77 -81q-5 -4 -5 -13q0 -13 14 -23t29 -10h52l2 1q4 2 34 19q26 14 32 14h92q64 -2 86 -16q39 -23 41 -23q18 0 18 21q0 7 -6.5 22.5t-6.5 25.5q0 9 5 25t5 29q-11 6 -16 6q-2 0 -49 -26t-94 -26q-14 0 -41.5 2.5t-41.5 2.5z" />
    <glyph glyph-name="bracketleft" unicode="[" horiz-adv-x="20" 
 />
    <glyph glyph-name="backslash" unicode="\" horiz-adv-x="1045" 
d="M990 380q0 -15 -14 -18h-23q-13 0 -13 -13q0 -6 8 -10l-8 -9q-24 -4 -70 -19q-18 -9 -90 -67t-83 -73l-11 6v60q5 7 10 6q13 -3 8 -3q28 0 67 29q57 42 60.5 43.5t7.5 12t9 10.5q2 0 4.5 -1.5t4.5 -1.5q7 0 9 6q-2 6 -7 15q25 20 68 57q4 4 6 15t7 15q-5 13 -18 13
q-15 0 -45 -29q-26 -26 -36 -44q-18 -32 -63 -70q-41 -33 -80 -52v11q10 10 63 49q46 34 55 48q61 100 111 100q27 0 31.5 -8t18 -40.5t13.5 -37.5zM928 -89l-18 -41l-35 -14q-14 -22 -25.5 -28t-37.5 -8q-23 13 -34.5 32.5t-23.5 39.5q-11 16 -236 151l-124 -100
q-27 -24 -108 -113q-31 -8 -55 -8q-14 0 -22 12.5t-14 25.5q-60 23 -56 53q19 47 41 61q14 9 48.5 10.5t56.5 11.5q28 12 66 39l62 44q-32 20 -99 90q-74 76 -111 105q-67 51 -126 51l-27 3q-12 13 -24 27q-16 18 -16 30q0 9 7 21.5t14 16.5l7 32q24 16 42 16q8 0 116 -91
q126 -106 137 -115l1 6q0 37 -49.5 86.5t-49.5 97.5q0 310 274 310q71 0 146 -39q88 -46 85 -112q12 -7 17 -48q6 -44 18 -57q-6 -8 -9 -30t-10 -33l-26 -17l-9 2q-9 0 -16 -9t-7 -18l9 -23l14 13h9l2 -10l-13 -37q-35 -5 -35 -44q0 -5 1 -16v-16q0 -15 -19 -39q5 -8 5 -57
q0 -34 -14 -49q-6 -6 -27 -15q-14 -7 -14 -19q47 -32 93 -65q56 -35 104 -43q23 0 67 -7q20 -7 34 -26t14 -40zM676 446q0 10 -9 41q-4 4 -32.5 13.5t-34.5 9.5q-20 0 -41 -8l3 -9q4 -1 8 -3q4 0 12 1.5t12 1.5q15 0 30 -6q19 -8 19 -20q0 -6 -9.5 -24.5t-14.5 -18.5h-6h-5
q-3 0 -6 -1q-3 -5 -3 -19q17 -8 20 -8q17 0 37 16.5t20 33.5zM675 666q-8 -3 -19 -12q-18 16 -15 31q-3 1 -47 17q-29 11 -46 11q-23 0 -19 18q-17 4 -95 4q-48 0 -110 -49q-64 -52 -64 -99q0 -16 9 -42q12 -32 14 -41l10 -6l10 2l19 -18q-11 -18 -12.5 -32t-3.5 -30t-4 -24
q-4 -12 -12 -21q0 -15 17 -24q28 -16 29 -16q6 15 49 29l11 -2q-3 -3 -26 -15q-19 -10 -19 -20q0 -9 15 -19t17 -37l1 -13q13 0 42 -5q23 -3 45 0l16 -7q4 3 4 27q0 13 10 15l8 -5q2 11 15 32q11 17 11 31q0 12 -7 50t-7 60q-23 -32 -23 -76q0 -11 1 -31q2 -25 2 -33l-5 -9
q-10 1 -28 2t-18 16q0 6 14 47t14 72q0 39 16 39l12 -10q6 25 6 35l-7 23q6 14 12.5 27.5t22.5 13.5q12 0 35.5 -3.5t34.5 -3.5q26 0 47 38q19 35 18 63zM663 329q-6 6 -17 6q-4 0 -26 -16q-11 -8 -11 -41q0 -10 10 -25q22 0 22 23q0 12 -4 25q11 10 26 28zM607 248v14h-4
v-14h4zM627 238h-4l-3 -12h4zM611 235q-3 0 -7 -3q0 -3 4 -9q3 4 3 12zM599 219q0 12 -11 39l-11 -1v-12q0 -5 3 -8l3 -3q-1 -8 7 -28q9 7 9 13zM574 199v22q0 13 -11 34q-9 -8 -9 -19q0 -31 14 -43q2 3 6 6zM903 -112q-3 4 -24 6q-9 1 -17 2l-6 -6q39 -7 32 -7q9 0 15 5z
M547 231q0 11 -11 17q-9 -9 -9 -19q0 -11 7 -15q-2 -6 -2 -10q0 -9 6 -13q6 6 6 13q0 6 -3 11q6 10 6 16zM520 229q0 16 -14 21q-11 -6 -11 -32q0 -1 4 -7q0 -1 -1.5 -4.5t-1.5 -6.5q0 -9 13 -16q11 19 11 45zM908 -88v18q0 23 -78 23q-41 0 -128.5 53.5t-95.5 53.5
q-12 0 -12 -15q0 -16 82 -61q87 -46 95 -69q2 -4 0 -10q-1 -8 -1 -10l23 -40q9 2 28 8q-2 9 -2 16q0 21 22 26q6 2 39 2q20 0 28 5zM485 221q0 3 -6 14h-11v-18q0 -3 2.5 -4.5t2.5 -2.5q-7 -3 -10 -8q0 -5 5 -11h12q5 22 5 30zM458 226q0 5 -9 14q-11 -11 -11 -17
q0 -5 7 -11l-4 -4q-3 -1 -5 -6l8 -9q5 6 8 6q6 17 6 27zM502 83v8q-24 12 -24 29q0 7 22 27q0 19 -6 28q-21 9 -34 9q-3 0 -8.5 -2.5t-8.5 -2.5q-2 0 -11 9q-14 -4 -13 -4q-29 16 -30 18q6 6 13 6q2 0 9 -9h9q11 15 11 25q0 7 -3 14h-9q-6 -5 -6 -12q0 -6 6 -11l-12 -2l-6 7
q4 5 4 13t-5 12h-11q-3 -3 -3 -9q0 -8 12 -14q-12 -9 -16 -9q-12 0 -17 22q-7 30 -7 31q-6 5 -12 17q-7 -9 -7 -30q0 -79 16 -91q16 -2 37 -11q26 -11 30 -24q1 -7 4 -20q6 -9 23.5 -18t28.5 -9q15 0 24 3zM282 271q0 27 -64 70q-72 48 -81 69q-21 46 -58 46q-15 0 -15 -13
q0 -8 15.5 -15.5t15.5 -32.5q0 -17 18 -24t18 -19q0 -4 -1 -10q14 -1 41 -11q52 -33 77 -62q10 -11 25 -11q9 0 9 13zM482 52q-36 25 -54 25q-60 -49 -82 -63q-53 -36 -91 -36q-17 0 -47 -14q-32 -17 -32 -32q0 -16 12 -16q5 0 15.5 4t15.5 4q4 0 19 -11t19 -16q1 -7 6 -20
h13q3 0 50 61q7 2 20 4l4 5q4 19 66.5 57t65.5 48zM237 -121q-5 4 -13 4q-6 0 -16.5 -3t-14.5 -3q8 -4 19 -12q1 -1 1 -11t7 -15q3 -1 4 -1h13q-1 1 -1 4q0 5 1 16v15v6zM468 446l-10 -2v2q0 8 -5 19t-12 11h-4q-14 -20 -14 -25t12 -23q-4 -9 -11 -9q-3 0 -12 2.5t-14 2.5
l-5 -4q3 -9 13.5 -11.5t14.5 -5.5v-8q-9 -9 -20 -9q-13 0 -29 4q-8 1 -24 27.5t-16 35.5q0 5 6 15.5t6 14.5v4q0 2 -1 2q-9 7 -18 15q-5 5 -5 25q0 7 -14 30t-14 28q0 2 4 18t4 26h5q11 -8 11 -20q0 -3 -4 -23l4 -7l-1 -5q0 -9 7 -19.5t14 -20.5q-2 -6 -2 -12l1 -9
q9 -7 23 -25q4 0 10 2.5t9 2.5t7.5 -1t6.5 -1q5 0 16 3.5t16 3.5q45 0 45 -54z" />
    <glyph glyph-name="bracketright" unicode="]" horiz-adv-x="20" 
 />
    <glyph glyph-name="asciicircum" unicode="^" horiz-adv-x="565" 
d="M218 793q-13 -16 -27 -23q-6 1 -17 -4q-15 -7 -17 -8q-23 -3 -34 -18q-3 -18 8 -18q9 0 36 7q5 1 7 -9t10 -7q21 19 46 43q16 21 29 21q17 0 34 -20t37 -44q8 -3 14 7t11 9q27 -7 36 -7q11 0 8 18q-11 15 -34 18q-2 1 -17 8q-11 5 -17 4q-11 5 -26.5 22.5t-26.5 21.5
q-6 2 -19 2q-22 0 -41 -23z" />
    <glyph glyph-name="underscore" unicode="_" horiz-adv-x="510" 
d="M-1 -88h513v-48h-513v48z" />
    <glyph glyph-name="grave" unicode="`" horiz-adv-x="420" 
d="M147 742q-2 2 -2 5q0 5 9.5 13.5t9.5 13.5q0 1 -9.5 14.5t-9.5 23.5t14 10q7 0 29 -23.5t23 -30.5q2 -2 48 -27q31 -16 31 -41q0 -7 -5 -7q-1 0 -26 5q-5 13 -52 30q-43 15 -60 14z" />
    <glyph glyph-name="a" unicode="a" horiz-adv-x="565" 
d="M481 -7q-4 0 -24.5 9t-24.5 9q-7 0 -19.5 -6.5t-18.5 -6.5q-7 0 -14.5 7t-7.5 14q0 3 7 19.5t8 20.5q3 18 3 43q0 49 -48 225q-46 171 -77 242q-14 33 -37 48q-18 8 -35 16t-17 24q0 26 31 26q7 0 22.5 -12t19.5 -12q13 0 38.5 13t35.5 13q9 0 19.5 -8.5t10.5 -16.5
q0 1 -7.5 -23.5t-7.5 -42.5q0 -43 35 -178q19 -57 52 -173q17 -47 45 -145q4 -14 24 -42.5t20 -32.5q0 -8 -12.5 -19t-20.5 -11zM350 111q-21 14 -41.5 26.5t-52.5 12.5q-25 0 -53 -11.5t-29 -11.5q-21 0 -21 21q0 13 12.5 22t12.5 18q0 5 -4 13.5t-4 13.5q0 8 7 15t14 7
q6 0 26.5 -16.5t38.5 -16.5q20 0 42.5 13.5t34.5 13.5q20 0 20 -21q0 -5 -2.5 -16t-2.5 -17q0 -10 11 -23.5t11 -22.5q0 -5 -7 -12.5t-13 -7.5zM129 100q0 -18 16.5 -41t16.5 -32q0 -13 -11 -21t-25 -8q-7 0 -27 9t-28 9q-10 0 -30 -8t-30 -8q-5 0 -13.5 5.5t-8.5 9.5
q0 16 5 16q16 0 42 26q32 32 49 90q6 30 20 88q60 201 60 300q0 9 -3 25.5t-3 24.5q0 33 35 33q10 0 18.5 -12.5t7.5 -23.5l27 -22q16 -13 16 -28q0 -12 -21 -44q-23 -38 -27 -48q-13 -36 -48 -170q-38 -147 -38 -170z" />
    <glyph glyph-name="b" unicode="b" horiz-adv-x="536" 
d="M435 419q7 0 -36 14q-13 4 -55 10q-15 2 -15 21q0 3 11.5 29t11.5 44q0 26 -25.5 43t-51.5 17q-35 0 -69.5 -23t-38.5 -23q-5 0 -10.5 8.5t-5.5 14.5q0 -1 14.5 23t17.5 45q4 40 31 40q6 0 46.5 -23t73.5 -23q9 0 28 5t28 5q27 0 27 -22q0 -8 -3.5 -22t-3.5 -21
q0 -63 29 -110q7 -9 16 -28q0 -24 -20 -24zM407 257q-9 0 -47 24q-31 19 -84 19q-41 0 -89 -33q-3 -1 -12 -1q-30 0 -30 26q0 8 6.5 25.5t6.5 25.5q0 6 -5 18.5t-5 18.5q0 23 27 23q15 0 25 -17q17 -27 18 -27q34 0 57 17q10 8 30 33q13 17 25 17q4 0 15.5 -5t15.5 -5
t11.5 2.5t12.5 2.5q29 0 29 -22q0 -14 -30 -26q-26 -10 -42 -10q-4 -2 -11 -6q0 -20 56 -38t56 -35q0 -7 -14 -17t-22 -10zM441 122q0 -8 1.5 -25t1.5 -25q0 -17 -15 -22q-6 -3 -30 -5q-15 0 -43 -2.5t-75.5 -28t-55.5 -25.5h-3q-16 0 -17.5 32t-18.5 54t-17 32q0 9 11.5 18
t20.5 9q4 0 39 -27.5t53 -27.5q26 0 58 24.5t32 49.5q0 16 -22 36t-22 34q0 9 9.5 18t19.5 9q7 0 21 -5t21 -5q6 0 16.5 4t16.5 4q10 0 21.5 -10.5t11.5 -20.5q0 -3 -17.5 -38.5t-17.5 -56.5zM143 -3q-10 0 -31.5 9t-31.5 9q-9 0 -28 -9t-27 -9q-9 0 -21 18q0 14 11 30
q10 13 20.5 26.5t18.5 40.5t8 211q0 143 -4 235q-1 15 -20 51.5t-19 46.5q0 7 7.5 15.5t14.5 8.5q3 0 15.5 -6.5t16.5 -6.5q11 0 33 10t32 10q8 0 19.5 -9.5t11.5 -18.5q0 -3 -22.5 -40.5t-24.5 -65.5q-3 -56 -3 -173q0 -237 12 -272q2 -8 22.5 -47t20.5 -41q0 -23 -31 -23z
" />
    <glyph glyph-name="c" unicode="c" horiz-adv-x="501" 
d="M401 540q0 -8 8 -23.5t8 -23.5q0 -10 -9 -21.5t-18 -11.5q-18 0 -30 36q-17 50 -28 66q-26 35 -77 35q-39 0 -73.5 -29.5t-40.5 -68.5q-1 -4 -1 -48q0 -17 -12 -17q-4 0 -11 3q-6 13 -22 36q-3 3 -42 22q-29 14 -29 32q0 23 40 36q29 9 58 17q40 18 74 75q30 48 48 47h4
q5 -4 7 -8q18 -28 51 -47t66 -19q6 0 16 5.5t16 5.5q13 0 24 -28q-1 -8 -14 -30.5t-13 -40.5zM111 201q-8 0 -23.5 7t-23.5 7t-21.5 -4t-21.5 -4q-3 0 -9 1t-9 2q-2 5 -2 7q0 21 13 59.5t13 59.5q0 23 -13 58.5t-13 50.5q0 33 23 33q11 0 22 -13q6 -10 18 -29q14 -13 41 -38
q9 -9 9 -19q0 3 -20 -25t-20 -61q0 -20 29 -38t29 -37q0 -5 -7.5 -11t-13.5 -6zM411 111q0 -8 4 -23.5t4 -23.5q0 -30 -52 -33q-34 -2 -99 -33t-61 -31l-14 3q-9 7 -19 28q-11 25 -16 32q-52 70 -97 89q-14 4 -28 9q-17 7 -17 22q0 18 27 28q20 7 42 7q52 0 52 -26
q0 -4 -2 -13t-2 -13q0 -24 49 -48q44 -21 72 -21q54 0 84 39q13 16 36 74q15 40 35 40q9 0 15 -9.5t6 -18.5q0 -14 -9.5 -39t-9.5 -39z" />
    <glyph glyph-name="d" unicode="d" horiz-adv-x="542" 
d="M339 470q-15 0 -25 10q-1 4 -2 11l1 9q1 24 -39 51.5t-66 27.5q-6 0 -17 -2.5t-17 -2.5q-29 0 -29 24q0 3 22 39q26 43 27 45h8q21 1 70 -54q52 -60 77 -67q14 -6 44 -16l32 -8q22 -8 22 -21q0 -20 -29 -27q-22 -3 -43 -7zM444 249q0 9 11 -72q-11 -10 -22 -10
q-5 0 -17.5 8t-16.5 9.5t-35 4.5q-21 2 -30 14l-1 4q0 11 15 23q19 16 28 32q15 29 15 79q0 40 -19.5 64.5t-19.5 32.5q0 26 33 26q3 0 9.5 -1t10.5 -1q12 0 25 9t25 9q18 0 18 -31q0 -34 -14.5 -100t-14.5 -100zM138 -9q-7 0 -31 10.5t-31 10.5q-10 0 -30.5 -7.5
t-29.5 -7.5q-18 0 -18 27q0 9 13 23q17 18 19 22q17 28 17 97q0 1 -5 410q-1 18 -22.5 45t-21.5 36q0 12 9 22.5t20 10.5t33 -8t33 -8q14 0 29 8t20 8q4 0 11 -7t7 -11q-11 -14 -28 -44q-25 -61 -24 -171q1 -85 1 -169q4 -174 20 -209q5 -9 26 -31q18 -19 18 -31
q0 -26 -35 -26zM212 -1q-11 0 -16 18q-2 9 -6 26q-3 11 -20 27t-17 26q0 8 5.5 17.5t13.5 9.5q10 0 31 -8t31 -8q13 0 35 17q11 8 42 56q3 5 9 5q5 0 24 -13t44 -13q3 0 5 2l2 1q11 0 21 -8t10 -18q0 -21 -37 -30l-56 -12q-60 -26 -109 -84q-9 -11 -12 -11z" />
    <glyph glyph-name="e" unicode="e" horiz-adv-x="454" 
d="M343 560q-8 0 -30 19t-51 19q-9 0 -12 -7q-8 5 -28 5q-15 0 -49.5 -18t-37.5 -18q-22 0 -22 20q0 8 12 19q9 7 19 16.5t20 50.5l25 12l60 -31l91 39q21 -13 21 -26q0 -6 -5 -19.5t-5 -20.5q0 -4 8 -19.5t8 -19.5q0 -21 -24 -21zM129 289q-9 0 -16.5 7t-7.5 16
q0 3 6.5 14.5t6.5 15.5q0 7 -6.5 20.5t-6.5 19.5q0 28 22 28q11 0 29.5 -15.5t45.5 -15.5q49 0 105 49q20 -20 20 -24q0 -6 -6.5 -19.5t-6.5 -20.5q0 -12 9.5 -33.5t9.5 -32.5l-1 -4q-11 -12 -18 -12q-11 0 -29 12q-21 16 -28 19q-3 1 -28 5q-2 1 -7 3t-8 2q-21 0 -50 -17
t-35 -17zM87 447q0 -49 6 -135q1 -37 7 -113q2 -14 17.5 -39.5t15.5 -35.5t-7.5 -19.5t-16.5 -9.5q-12 0 -29 19q-22 24 -25.5 26t-34.5 5q-11 11 -11 17q0 11 13 44.5t13 52.5q0 10 -1 29.5t-1 29.5v205q0 32 -1.5 50t-18.5 43.5t-17 32.5q0 23 24 23q3 0 17 -6.5t19 -6.5
q10 0 31 9t31 9q17 0 20 -21q-41 -50 -46 -95q-5 -63 -5 -114zM347 -3l-92 30l-135 -2q-14 0 -46 -19t-49 -19q-11 0 -20 13.5t-9 24.5q0 3 10.5 20.5t10.5 21.5t-7.5 18t-7.5 18q0 9 7.5 17.5t16.5 8.5q7 0 21 -13q17 -17 19 -18q28 -19 134 -19q44 0 88.5 30t51.5 30
q15 0 23 -10q0 -9 -5 -26.5t-5 -25.5t8 -25.5t8 -26.5q0 -17 -22 -28z" />
    <glyph glyph-name="f" unicode="f" horiz-adv-x="428" 
d="M332 551q-12 0 -31 15q-23 18 -30 21q-38 15 -96 15q-61 0 -98 -21q-4 -2 -19.5 -17t-20.5 -15q-7 0 -13 7.5t-6 14.5t6.5 19.5t6.5 20.5q0 6 -9 26t-9 26q0 17 17 17q14 0 48.5 -14t45.5 -14q141 0 168 14q5 2 19 17q11 13 20 13q22 0 22 -21q0 -9 -6 -26.5t-6 -26.5
q0 -6 10.5 -18.5t10.5 -23.5t-9.5 -20t-20.5 -9zM318 288q-16 0 -46.5 11.5t-48.5 11.5q-27 0 -48 -15.5t-24 -15.5q-7 0 -17 9.5t-10 16.5q0 4 7.5 13.5t7.5 14.5t-6.5 17t-6.5 17q0 7 8 16t16 9q5 0 26 -15.5t42 -15.5q28 0 67 26q2 -1 4 -1q3 0 9.5 15t21.5 15
q18 0 18 -20q0 -7 -3.5 -19.5t-3.5 -18.5q0 -9 7.5 -26t7.5 -26q0 -19 -28 -19zM87 8q-58 -16 -61 -16q-11 0 -11 17q0 13 26 66q9 17 9 76q0 28 2.5 86t2.5 87q0 85 -14 129q-1 2 -12 28q-9 20 -9 26q0 18 20 24q30 9 33 11t18 23q11 14 26 14q27 0 27 -25q0 -19 -12 -46
q-18 -42 -19 -45q-9 -26 -9 -81q0 -67 5 -151q7 -116 20 -140q5 -9 34 -35q25 -22 25 -33q0 -10 -13 -23t-23 -13q-2 0 -65 21z" />
    <glyph glyph-name="g" unicode="g" horiz-adv-x="530" 
d="M395 546q0 -9 7.5 -29t7.5 -30q0 -23 -25 -23q-13 0 -27 35q-20 47 -35 65q-29 35 -76 35q-54 0 -80 -44q-18 -30 -26 -92q-1 -11 -7 -30h-11q-9 17 -35 45q-19 8 -37 16q-23 11 -23 29q0 21 45 38l64 22q13 8 51 65q35 50 51 50q5 0 9 -2q7 -21 46.5 -44.5t62.5 -23.5
q7 0 21 5.5t21 5.5q5 0 12.5 -10t7.5 -15q0 -8 -12 -34t-12 -34zM465 223q-3 2 -9 3l-4 -2q-37 30 -101 30q-5 0 -13.5 -3t-12.5 -4q-8 0 -23 -4q-4 -2 -25 -21q-16 -14 -27 -14q-19 0 -19 16q0 9 6 24.5t6 22.5q0 8 -6.5 24t-6.5 24q0 18 23 18q10 0 34.5 -18t44.5 -18
q18 0 47 12.5t33 12.5q16 0 23 -11q2 -4 8 -25q5 -16 20 -26q12 -8 12 -25q0 -16 -10 -16zM116 205q-8 0 -23 5t-22 5q-8 0 -21 -3.5t-20 -3.5q-8 0 -17 4q0 21 10 59.5t10 58.5q0 26 -14 62.5t-14 50.5q0 11 8.5 21.5t19.5 10.5q8 0 15 -7q9 -17 32 -46q12 -8 32 -26
q5 -5 5 -11q0 -5 -17.5 -31t-17.5 -51q0 -31 27.5 -45.5t29.5 -40.5q-13 -12 -23 -12zM413 124q0 -8 5.5 -23t5.5 -23q0 -22 -46 -34q-32 -6 -64 -11q-16 -4 -50.5 -23.5t-49.5 -32.5q-12 1 -20 11q-1 0 -46 66q-27 39 -55 59l-40 16q-28 11 -28 26q0 17 32 27q24 7 45 7
q14 0 27 -6q17 -8 17 -20q0 -4 -2 -11t-2 -11q0 -24 47 -48q41 -21 69 -21q55 0 83 40q12 17 30 74q13 40 32 40q10 0 19.5 -9t9.5 -19q0 -13 -9.5 -37t-9.5 -37z" />
    <glyph glyph-name="h" unicode="h" horiz-adv-x="527" 
d="M391 21q-41 -19 -62 -19q-25 0 -25 25q0 30 27 90t27 90l-3 336q0 23 -20 68t-20 59q0 18 25 18q6 0 19.5 -9.5t21.5 -9.5q4 0 25 8.5t33 8.5q22 0 22 -27q0 -12 -15 -37q-18 -28 -20 -37q-14 -51 -14 -330q0 -45 7 -101q9 -73 25 -95q6 -7 13 -15t7 -17q0 -23 -20 -23
q-8 0 -53 17zM319 287q-5 0 -32.5 22t-55.5 22q-39 0 -66 -23t-29 -23q-20 0 -20 19q0 6 3.5 18t3.5 18q0 9 -5.5 27t-5.5 28q0 27 20 27q4 0 29 -22t56 -22q47 0 68 22t33 22q20 0 20 -18q0 -6 -2.5 -18t-2.5 -18q0 -9 6 -26.5t6 -27.5q0 -27 -26 -27zM94 317
q0 -202 14 -240q2 -6 17 -24q13 -14 13 -27q0 -25 -31 -25q-27 0 -47 12q-30 -15 -48 -15q-27 0 -27 33q0 11 19 44.5t22 45.5q15 64 15 168q0 39 -3.5 117t-3.5 116q0 30 -16.5 78.5t-16.5 64.5q0 15 12 20l46 -18q46 18 71 18q34 0 34 -29q0 -16 -19 -37q-24 -27 -27 -34
q-24 -48 -24 -268z" />
    <glyph glyph-name="i" unicode="i" horiz-adv-x="234" 
d="M71 10q-14 -8 -39 -17q-15 -1 -31 26q28 48 36 83q17 73 17 283q0 170 -20 208q-2 5 -20 27q-13 15 -13 30q0 38 24 39q12 1 37.5 -8t38.5 -9q20 0 34 14q22 -2 22 -16q0 -10 -10 -31q-29 -58 -29 -89v-424q0 -36 34 -79q7 -9 7 -14q0 -46 -32 -46q-22 0 -56 23z" />
    <glyph glyph-name="j" unicode="j" horiz-adv-x="492" 
d="M371 565v-267q0 -31 21 -67.5t21 -37.5q0 -17 -13 -21q-8 -3 -32.5 -4.5t-51 -14.5t-28.5 -13q-9 0 -17 9.5t-8 17.5q0 2 13 20q42 55 42 119v250q0 24 -25 61t-25 50q0 24 25 24q3 0 19.5 -7.5t20.5 -7.5q12 0 31.5 9t31.5 9q13 0 25.5 -11.5t12.5 -23.5
q0 -17 -31.5 -44.5t-31.5 -49.5zM131 143q-7 0 -18 9q-15 13 -43 17q-24 1 -48 3q-9 1 -20 25l57 106h7q6 -6 17 -29q13 -27 17 -33q11 -13 32 -39q17 -22 17 -40q0 -19 -18 -19zM218 -36q-22 0 -72 49q-12 13 -64 44.5t-56 37.5t-4 19q0 31 36 31q13 0 30.5 -8t25 -9
t25.5 -2q9 -6 11 -10v-3q0 -25 19.5 -40.5t45.5 -15.5q29 0 40 26q6 16 11 33q15 11 54 21.5t61 10.5t22 -28q0 -15 -21 -31q-22 -11 -62 -35q-1 -1 -52 -43q-2 -2 -22 -29q-14 -18 -28 -18z" />
    <glyph glyph-name="k" unicode="k" horiz-adv-x="533" 
d="M490 -23q-23 0 -58 22q-27 18 -53 36q-8 5 -28.5 10t-27.5 11.5t-8 20.5q-1 18 -2 21q-16 44 -78 150q-12 21 -46 60q-18 15 -35 30q-27 22 -27 32q0 21 18 21q5 0 16 -6q3 4 3 21q0 13 28 20q33 8 39 14q104 113 104 169q0 9 -3.5 25t-3.5 24q0 16 14 25.5t31 9.5
q21 0 24 -36t20 -36q3 0 7.5 1.5t6.5 1.5q10 0 16 -10t6 -20q0 -16 -13 -21q-6 -2 -18 -7q-25 -18 -51 -53q-32 -45 -54 -86q-7 -12 -13 -38t-11 -35.5t-19 -9.5q-8 0 -25.5 21t-28.5 21t-26 -11q4 -5 57 -48q15 -6 44 -20q7 -4 9 -13q1 -7 0 -18l-1 -16q0 -11 3 -19
q24 -62 62 -116q45 -63 93 -88l32 -16q20 -12 20 -25q0 -19 -23 -19zM111 220q0 -82 30 -145q11 -17 30 -52q0 -6 -8 -14.5t-14 -8.5q-3 0 -18.5 8t-20.5 8q-8 0 -34.5 -12t-34.5 -12q2 0 -19 4q-21 23 -21 34q0 7 10 17l15 15q34 45 34 173q0 26 -2 69q-2 52 -2 68
q-2 86 -2 203q0 30 -13.5 57t-13.5 28q0 20 20 20q10 0 26 -7.5t21 -7.5q6 0 22 9t28 9q35 0 35 -32q0 -3 -18 -35q-19 -35 -23 -44q-8 -21 -16 -64.5t-8 -67.5v-182q0 -6 -1.5 -18.5t-1.5 -19.5z" />
    <glyph glyph-name="l" unicode="l" horiz-adv-x="463" 
d="M105 436q0 -123 8 -208q3 -23 24.5 -63t21.5 -50q0 -24 -29 -24q-17 0 -31 13q-20 19 -25 22q-14 4 -41 14q-10 6 -10 22q0 2 5 10q15 22 22 57q0 3 1 23q7 192 7 198q0 31 -10.5 81.5t-23.5 74.5q-19 35 -19 44q0 36 43 36q19 0 28.5 -10.5t26.5 -10.5q4 0 25.5 11.5
t24.5 11.5q9 0 19.5 -9t10.5 -18q0 -12 -23 -32q-26 -24 -34 -44q-21 -61 -21 -149zM346 39q0 -4 9 -15t9 -15q0 -8 -12 -17.5t-20 -9.5q-4 0 -9 3q-34 23 -96 23h-70q-22 0 -58 -10.5t-44 -10.5q-6 0 -14 5q-2 4 -2 11t4 21.5t4 21.5q0 16 -17.5 28t-17.5 22q0 7 8 16t15 9
q3 0 28 -17.5t32 -20.5q21 -9 72 -9q64 0 107 9q16 4 40.5 26.5t32.5 22.5q13 0 28 -12t15 -24q0 -13 -22 -30.5t-22 -26.5z" />
    <glyph glyph-name="m" unicode="m" horiz-adv-x="630" 
d="M510 443q0 -17 2.5 -49t2.5 -50l-1 -171q0 -76 14 -114q2 -3 12.5 -21.5t10.5 -20.5q0 -6 -4.5 -14t-9.5 -8q-8 0 -23 6.5t-23 6.5q-4 0 -24 -9t-24 -9q3 0 -29 11q-8 10 -8 23q0 8 11.5 23t13.5 20q6 13 15 39q20 62 20 163q0 217 -25 303q-8 28 -18 42q-22 29 -22 36
q0 8 7.5 16.5t15.5 8.5q4 0 19.5 -7.5t19.5 -7.5q11 0 28.5 11.5t28.5 11.5q16 0 30 -9t14 -24q0 -8 -10 -19q-15 -17 -16 -17q-28 -44 -28 -171zM346 166q0 -13 9 -38.5t9 -37.5q0 -9 -6.5 -18.5t-15.5 -9.5q-19 0 -31 31q-8 20 -11 55q-3 43 -6 56q-2 6 -11 23t-9 19
q0 8 10 19q15 16 15 17q20 30 65 158q15 43 15 88q0 7 -1.5 22t-1.5 22q0 33 22 33q29 0 36 -130q0 -9 8 -22.5t8 -17.5q0 -10 -18 -26q-22 -20 -26 -26q-24 -38 -42 -104.5t-18 -112.5zM322 -10l-20.5 9t-42.5 9q-27 0 -27 31q0 5 1 16t1 15q0 57 -60 245q-60 185 -95 244
q-21 35 -56 66q-13 11 -13 19q0 26 23 26q3 0 22.5 -9t24.5 -9q4 0 25 13t24 13q16 0 31 -13t15 -30q0 -1 -7 -20.5t-8 -24.5q-3 -18 -3 -39q0 -43 31 -120q42 -107 46 -121q10 -30 27 -93q13 -39 37 -119q1 -13 6 -38q2 -9 14.5 -30t12.5 -28q0 -12 -9 -12zM131 0
q-8 0 -19 9t-25 9q-18 0 -29.5 -10t-15.5 -11q-1 3 -4 3q-4 0 -4 -2v-3q-7 0 -14 11t-7 18q0 -1 17 34t16 59q-6 220 -6 250q0 104 -27 164q-11 25 -11 31q0 20 19 20q14 0 23 -17q1 -2 10 -29q7 -21 24 -49q-1 -5 -5 -8q8 -2 22 -9q3 -3 15.5 -26t12.5 -27q-9 -23 -19 -45
q-11 -26 -11 -49q0 -167 8 -217q2 -14 11 -34q14 -31 14 -32l5 5q16 -20 16 -27q0 -18 -16 -18z" />
    <glyph glyph-name="n" unicode="n" horiz-adv-x="545" 
d="M427 226q0 -43 5 -63q1 -4 6.5 -19.5t5.5 -19.5q0 -28 -19 -28q-24 0 -38 42q-10 28 -13 61q-9 6 -17 12t-8 23q0 11 10.5 35.5t10.5 46.5q0 3 1 8t1 7l2 202q-2 16 -8 47q-4 18 -23.5 38.5t-19.5 33.5q0 28 25 28q6 0 52 -20l48 20q32 -17 32 -32q0 -18 -15 -36
q-24 -29 -26 -32q-12 -21 -13 -174q1 143 1 -180zM430 -5q-66 3 -93 2l-24 34q7 24 7 44q0 42 -25 97l-44 92l-73 160q-32 71 -47 96q-29 48 -70 80q-15 8 -30.5 16.5t-15.5 29.5q0 29 25 29q5 0 30 -10t30 -10q-5 0 43 20q18 0 18 -19q0 -8 -3 -24t-3 -24q0 -20 59 -134
q18 -36 42 -91q15 -25 42 -78q45 -101 64 -155q6 -18 23 -52q4 -6 41 -38q31 -27 31 -37q0 -17 -27 -28zM157 -5q-4 0 -26.5 10.5t-26.5 10.5q-11 0 -28.5 -12t-26.5 -12q-11 0 -20 12.5t-9 25.5q0 11 13 31q17 26 19 32q20 49 20 109q0 17 -2.5 51.5t-2.5 51.5q0 12 1 36.5
t1 36.5q0 85 -17 134q-1 5 -12 24q-7 13 -7 24q0 25 19 25q9 0 16 -16q4 -12 9.5 -22.5t36.5 -32.5q24 -18 24 -39q0 -11 -7.5 -34t-7.5 -34v-180q0 -14 2 -18q1 -18 4 -54q1 -8 0 -22q-1 -16 -1 -21q0 -29 22 -61.5t22 -39.5q0 -16 -15 -16z" />
    <glyph glyph-name="o" unicode="o" horiz-adv-x="578" 
d="M370 498q-25 0 -33 25q-11 38 -13 41q-37 50 -89 50q-33 0 -43 -28q-2 -7 -6 -52q-2 -28 -18 -28q-12 0 -27.5 41t-46.5 41q-6 0 -11.5 6t-5.5 11q0 19 32 26q38 9 39 10q5 4 27 41q16 27 35 27q12 0 29 -15q13 -12 25 -24q12 -8 34 -23q60 -40 156 -55q10 -2 10 -15
q0 -15 -22 -26q-16 -9 -33 -17q-10 -7 -23 -25q-8 -11 -16 -11zM451 307q0 -27 11 -60q10 -28 21 -57q0 -7 -9.5 -16.5t-17.5 -9.5t-22 22.5t-25 26.5q-16 2 -31 5q-19 3 -19 19q0 11 25 39t25 63t-15.5 64t-31.5 57q0 21 24 28q38 10 40 11.5t22 22.5q15 15 24 15
t17.5 -9.5t8.5 -18.5q0 -30 -23.5 -96.5t-23.5 -105.5zM90 388q1 -2 20 -32q14 -21 14 -32q0 -18 -18 -18q-6 0 -20 5.5t-21 5.5q-8 0 -24.5 -5.5t-25.5 -5.5q-19 0 -19 21q0 10 30 49.5t30 80.5q0 12 -7.5 35.5t-7.5 34.5q0 14 7.5 28t19.5 14t21 -5.5t33 -42t24 -44.5
q0 -12 -15 -21q-21 -14 -26 -20q-15 -17 -15 -48zM269 -23q-10 0 -61 47.5t-86 47.5q-2 0 -6.5 -1.5t-6.5 -1.5q-33 0 -38 37v63q-1 23 -37 54t-36 42q0 14 19 23q15 7 30 7q28 0 72 -17q19 -6 19 -31q0 -9 -7 -26t-7 -26q0 -37 12 -55q17 -28 54 -47t72 -19q50 0 62 36
q4 13 4 77q0 2 15 24q14 -1 34 -6q8 -6 20 -24t20 -25q8 -3 23 -16q6 -11 6 -24q0 -14 -28 -24q-20 -7 -41 -13q-30 -15 -49 -39q-13 -19 -25 -38q-18 -25 -34 -25z" />
    <glyph glyph-name="p" unicode="p" horiz-adv-x="501" 
d="M410 414q-12 0 -30 20l-25 28q-10 6 -20 13t-10 17q0 2 1 7.5t1 7.5q0 33 -39 59q-35 23 -70 23q-19 0 -42 -14t-28 -14q-18 0 -18 20q0 10 10 24q6 9 19 26q6 16 22 46q5 8 29 8q47 -30 114 -66q26 -1 65 -14q5 -4 7 -22q1 -12 2 -25q5 -36 10 -56q1 -3 11 -37
q9 -30 9 -34q0 -17 -18 -17zM133 265q-16 0 -16 14q0 4 6.5 21.5t6.5 28.5q0 6 -4 17.5t-4 16.5q0 12 16 12q9 0 28.5 -7.5t28.5 -7.5q27 0 60 12q38 14 48 34q1 1 6 31q4 22 17 22q12 -13 39 -40q12 -7 35 -26q5 -5 5 -15q0 -32 -53 -39q-96 -15 -181 -57q-35 -17 -38 -17z
M155 60q4 -8 4 -13q0 -12 -15 -24t-26 -12q-9 0 -27.5 8t-27.5 8q-1 0 -14.5 -6.5t-16.5 -6.5q-7 0 -14 7.5t-7 14.5q0 6 11 21.5t13 21.5q10 35 11 108l5 320q1 73 -11 107q-2 7 -14.5 23t-12.5 26q0 19 21 19q10 0 29 -7.5t28 -7.5q4 0 20 7.5t18 7.5q7 0 13.5 -6t6.5 -13
q-16 -24 -40 -77q-6 -25 -8 -84q-2 -41 -1 -105q1 -94 1 -80q0 -12 -1.5 -35.5t-1.5 -34.5q0 -5 -2 -13t-2 -13q0 -30 15 -99q3 -12 17 -27q11 -11 22 -23q1 -6 4 -17z" />
    <glyph glyph-name="q" unicode="q" horiz-adv-x="592" 
d="M382 489q-8 0 -18.5 9t-10.5 17q0 35 -31 64t-66 29q-36 0 -42 -39q-9 -51 -18 -60h-12q-9 10 -17.5 36t-24.5 39q-11 4 -31 13q-2 6 -2 10q0 20 28 23q37 5 43.5 9t24.5 36q15 26 33 26q13 0 23 -11q46 -48 91 -77q23 -15 56 -23q30 -7 59 -14q11 -3 11 -19
q0 -9 -26 -22q-18 -9 -36 -17q-6 -3 -19 -18q-9 -11 -15 -11zM404 483l6 -3q19 1 46 19q2 1 10 14q6 8 16 8q22 0 22 -26q0 -27 -28 -94.5t-28 -110.5q0 -17 11.5 -54.5t11.5 -44.5t-9 -15.5t-16 -8.5q-6 0 -18 24t-39 28q-10 2 -19 3q-13 3 -13 12q0 13 27 39.5t27 62.5
q0 41 -19 79.5l-19 38.5q0 10 11 19.5t20 9.5zM159 467q-50 -17 -50 -57q0 -23 13.5 -43.5t13.5 -31.5q0 -16 -14 -16q-8 0 -23.5 6.5t-23.5 6.5q-7 0 -20.5 -2.5t-20.5 -2.5q-18 0 -18 18q0 2 31.5 45t31.5 87q0 9 -5 28.5t-5 28.5q0 38 30 38q29 0 65 -89q0 -9 -5 -16z
M474 -48q-9 0 -29 9t-28 9q-5 0 -19.5 -7.5t-17.5 -7.5q-7 0 -15.5 5.5t-8.5 12.5q0 10 3.5 29.5t3.5 28.5q0 7 -1.5 21t-1.5 21l1 1q0 5 -8 5q-14 0 -47.5 -40.5t-44.5 -40.5q-17 0 -52 35q-41 43 -52 50q-4 2 -49 9q-31 5 -31 29q0 8 2 24.5t2 24.5q0 43 -40 82
q-9 5 -22 18l-1 11q0 13 11.5 21.5t25.5 8.5q11 0 46.5 -11.5t39 -18t3.5 -18.5q0 -9 -7.5 -28.5t-7.5 -28.5q0 -51 41 -86t93 -35q23 0 42.5 14.5t19.5 35.5q0 11 -14.5 19t-26.5 8q-3 0 -7 -1t-6 -1q-8 0 -19 6.5t-11 14.5q0 4 8 17q5 7 13 21t14.5 41t13.5 39q5 9 22 9
q12 0 15 -17q-1 1 -1 -26l1 -6q3 -6 7 -28q2 -12 15 -16q18 -5 20 -6q5 -4 20 -29q6 -11 30 -31q14 -11 14 -23q0 -14 -29 -33q22 -56 73 -74q4 -2 11.5 -18t7.5 -22q0 -7 -7.5 -17t-14.5 -10z" />
    <glyph glyph-name="r" unicode="r" horiz-adv-x="517" 
d="M424 413q-12 0 -31 21q-26 27 -30 30q-8 4 -22 14q-6 6 -6 37q0 28 -38.5 51t-68.5 23q-26 0 -46.5 -14.5t-30.5 -14.5q-17 0 -17 21q0 7 17 33q9 12 23 39q1 7 7 19t11 13.5t23 1.5q3 0 62.5 -36.5t94.5 -36.5q4 0 6 2l2 1q19 0 23 -13q2 -4 12 -78q2 -12 16 -53
q11 -30 10 -43l-1 -7q-9 -10 -16 -10zM141 258q-18 0 -18 14q0 4 8 23t8 23q0 7 -5.5 20.5t-5.5 19.5q0 10 17 13q6 -1 29.5 -8t27.5 -7q38 0 75 17q44 21 44 55q0 29 14 28q34 -23 79 -64q6 -6 6 -15q0 -24 -40 -36q-9 -3 -48 -9q-65 -11 -137 -47q-55 -27 -54 -27zM434 -5
q-11 0 -34 10t-34 10q-4 0 -26.5 -10t-26.5 -10q-32 0 -32 34q0 13 15.5 40t15.5 45q0 41 -36 71q-13 11 -70 45q-8 5 -8 19q0 7 9.5 13t16.5 6q2 0 5 -1.5t5 -1.5q14 0 39.5 22t40.5 22q25 0 25 -36q0 -7 -1.5 -20.5t-1.5 -17.5q0 -42 30 -101t64 -76.5t34 -36.5
q0 -11 -9 -18.5t-21 -7.5zM132 0q-7 0 -23 6.5t-23 6.5q-5 0 -21 -8t-19 -8q-8 0 -18.5 10.5t-10.5 17.5q0 1 15.5 24.5t15.5 46.5q0 64 -1.5 191.5t-1.5 191.5q0 12 1 36.5t1 37.5q0 37 -17.5 74.5t-17.5 34.5q0 19 25 19q8 0 26.5 -6.5t27.5 -6.5q4 0 20.5 8t20.5 8
q22 0 22 -21q-14 -25 -28 -51q-19 -35 -19 -54v-277q0 -12 -2.5 -35t-2.5 -35q0 -46 19 -103q5 -16 25 -35q17 -16 19 -27q5 -2 7 -4v-5q1 -10 -14 -23.5t-26 -13.5z" />
    <glyph glyph-name="s" unicode="s" horiz-adv-x="519" 
d="M381 463q-19 0 -24 10q-2 17 -5 46q-6 35 -52 64q-41 26 -80 26q-17 0 -26 -6q-63 -41 -70 -122q-1 -4 -8 -8.5t-11 -4.5q-6 0 -35 17t-37 24q-12 9 -12 21q0 23 29 35q23 7 45 16t51 40t42 54q10 20 12 23q8 9 23 9t24 -6q9 -13 32 -36q35 -28 71 -40q2 0 25 -2
q15 -2 22 -12q4 -5 5 -16v-19q-1 -14 -1 -17q0 -13 8 -35t8 -27q0 -12 -11.5 -23t-24.5 -11zM406 155q-5 0 -30 15q-10 6 -28 10q-21 4 -29 7l-14 54q-11 24 -47 26q-11 8 -11 17v4q11 4 32 13q4 3 29 20q16 12 20 12q18 0 24 -24q8 -30 36 -67q1 -1 28 -27q19 -18 19 -30
q0 -30 -29 -30zM206 280q-13 0 -18.5 10.5t-10.5 21.5q-27 42 -90 82q-66 41 -78 58q-7 9 -6 24v3q11 10 19 10q19 0 40.5 -19.5t61.5 -19.5q28 0 37 -14q48 -75 126 -75q4 0 9.5 -6t5.5 -10q0 -13 -9.5 -19t-46.5 -26t-40 -20zM216 -23q-18 0 -46 44t-60 44q-9 0 -28 -8
t-28 -8q-5 0 -13.5 6t-10.5 7q1 11 7 43q6 28 6 43q0 9 -7 27t-7 26q0 13 10 27t22 14q9 0 23 -10.5t13 -18.5q-1 -15 -1 -17q0 -44 27 -77q29 -36 72 -36q32 0 56 22q11 10 31 41q14 22 24 22q18 0 24 -3q30 -11 73 -30q11 -7 11 -19t-41 -23q-53 -14 -57 -16
q-47 -26 -61 -55q-6 -15 -13 -30t-26 -15z" />
    <glyph glyph-name="t" unicode="t" horiz-adv-x="524" 
d="M437 629q1 -4 6 -15.5t5 -18.5q0 -2 -1 -7q-12 -12 -22 -12q-1 0 -33 18t-54 18q-1 0 -185 -8q-5 0 -13.5 1.5t-12.5 1.5q-36 0 -65 -9q-4 -1 -20.5 -9t-20.5 -8q-28 0 -28 33q0 3 10.5 17.5t10.5 18.5q0 3 -6.5 15t-6.5 17q0 19 23 19q2 0 29.5 -12t31.5 -13
q56 -19 101 -19h112q37 0 79.5 15.5t56.5 15.5q31 0 31 -28q0 -11 -9 -18t-19 -13zM301 7q-6 0 -26.5 8.5t-27.5 8.5q-14 0 -34.5 -11.5t-30.5 -11.5q-13 0 -24 13t-11 27q2 4 22 35t23 66q0 -2 0 69q0 36 2 110t2 111q0 43 -11 69q-6 14 -22 30q-11 12 -11 23q0 34 38 34
q9 0 27.5 -7.5t27.5 -7.5q4 0 23 9t23 9q6 0 12.5 -7t6.5 -13q0 -30 -9 -41q-28 -35 -36 -66q-13 -42 -12 -62q8 -139 8 -144q0 -15 -3 -44t-3 -44q0 -47 18 -77q9 -15 34 -35q18 -15 18 -27q0 -24 -24 -24z" />
    <glyph glyph-name="u" unicode="u" horiz-adv-x="510" 
d="M401 551q0 -50 1 -129q2 -104 2 -130q1 -20 15 -51t14 -36q0 -19 -16 -22q-24 0 -71 -9q-5 -2 -19 -12t-21 -10q-19 0 -19 19q0 17 28.5 59t28.5 97v205q0 22 -12 50q-14 32 -32 35q-15 13 -15 42q0 14 11.5 24t26.5 10q3 0 23.5 -10.5t24.5 -10.5q9 0 25.5 8t24.5 8
q22 0 22 -18q-3 -8 -29 -52q-13 -24 -13 -67zM152 152q3 0 -36 17q-14 6 -34 8q-30 3 -35 4q-15 3 -15 22q33 62 33 71q0 6 -3 18t-3 18q0 15 2 46.5t2 48.5l-3 138q-2 11 -5.5 32.5t-24.5 44.5t-21 39q0 14 11 24t25 10q10 0 30.5 -9t30.5 -9q-5 0 40 18q24 0 24 -25
q0 -12 -17 -36q-21 -30 -24 -36q-8 -19 -9 -89v-97q0 -16 -2 -18q2 -6 4 -44q4 -91 23 -127q2 -4 16 -19.5t14 -24.5q0 -25 -23 -25zM226 -24q-13 0 -18 3q-16 19 -45 51q-7 6 -78 58q-43 30 -43 46q0 23 18 23q78 0 114 -33q5 -16 10 -31q13 -26 42 -26q14 0 41 16
q14 8 17 35q3 20 30 20q10 0 29 9.5t35 9.5q34 0 34 -33q0 -21 -13 -27q-81 -45 -135 -97q-6 -9 -24 -23q-4 -1 -14 -1z" />
    <glyph glyph-name="v" unicode="v" horiz-adv-x="545" 
d="M343 161q0 -9 3 -24.5t3 -24.5q0 -35 -26 -35q-13 0 -17.5 11.5t-8.5 22.5q-4 8 -19.5 17.5t-19.5 15t-4 19.5q0 15 16 41q12 20 24 39q4 9 14 46q22 73 43 146q28 100 28 142q0 16 -11.5 39t-11.5 31q0 14 11.5 23.5t25.5 9.5q8 0 25.5 -8.5t26.5 -8.5q10 0 24 7.5
t17 7.5q17 0 17 -20q0 -11 -6 -17q-33 -32 -41 -41q-16 -21 -24 -53q-16 -60 -47 -183q-13 -50 -27 -101q-15 -59 -15 -102zM306 -1q-12 0 -25 13t-20 13q-4 0 -30.5 -14t-30.5 -14q-9 0 -20 10.5t-11 19.5q0 10 8 31t8 33q0 45 -19 109q-17 54 -34 107q-4 13 -31 136
q-18 83 -43 132q-6 12 -34 35q-23 19 -23 32t10.5 27t23.5 14q5 0 26 -10.5t25 -10.5q6 0 18 5.5t19 5.5q22 0 22 -22q0 -13 -3.5 -39.5t-3.5 -39.5q0 -22 6.5 -46t12.5 -47q19 -91 37 -183q24 -107 52 -179q12 -32 36 -47q18 -8 35.5 -16t17.5 -26q0 -11 -9 -20t-20 -9z
" />
    <glyph glyph-name="w" unicode="w" horiz-adv-x="756" 
d="M561 81q0 -18 18 -61q0 -12 -11 -24t-23 -12q-4 0 -23 13.5t-24 15.5q-10 0 -20 -13t-19 -13q-10 0 -20 12t-10 23q0 22 14 28q28 11 29 12q14 11 27.5 40.5t13.5 47.5v9q-1 5 -1 8q0 -1 10 42q24 102 48 237q5 17 13 50q7 37 7 89q0 11 -7 29.5t-7 26.5q0 28 21 28
q-4 0 32 -11q47 21 44 21q4 0 27 -18q4 -26 4 -24q0 -16 -7 -24q-2 -2 -20 -15q-11 -8 -27 -50q-32 -84 -51 -233q-8 -27 -23 -81q-15 -69 -15 -153zM472 102q0 -10 -9 -16q-12 -9 -14.5 -13t-8.5 -15.5t-10 -11.5q-24 0 -24 51q0 7 1.5 22t1.5 23q0 78 -18 182
q-3 16 -37 180q-41 -175 -61 -277q-21 -110 -21 -151q0 -11 6.5 -32.5t6.5 -31.5q0 -12 -7 -23t-18 -11q-3 0 -21 12q-21 13 -24 14q-12 0 -22 -13t-20 -13q-9 0 -18 12.5t-9 21.5q0 16 14 23.5t27 15.5q32 26 80 253q45 211 45 281q0 11 -8 30.5t-8 29.5q0 27 21 27
q5 0 15 -5t16 -5q3 0 18 10.5t25 10.5q14 0 25 -13t11 -27q0 -12 -14 -35t-14 -28q0 -3 4.5 -8.5t4.5 -7.5q0 -5 -1 -16v-15q0 -58 54 -257q2 -8 3 -22q2 -26 12 -70q14 -29 14 -45q0 -13 -7 -21q-10 -13 -11 -16zM157 56q-30 0 -30 113q0 39 -11 93q-9 46 -19 93
q-8 69 -17 139q-14 96 -43 123q-8 7 -15 14.5t-7 19.5q0 21 17 21l31 -13l43 21q30 0 30 -35q0 -12 -5 -35.5t-5 -34.5q0 -29 9 -71q8 -35 17 -69q5 -46 19 -138q1 -26 12 -76q1 -3 19 -35q12 -21 12 -39q0 -12 -23.5 -51.5t-33.5 -39.5z" />
    <glyph glyph-name="x" unicode="x" horiz-adv-x="559" 
d="M313 359q-3 0 -17.5 34t-24.5 33.5t-10 7.5q0 5 5.5 12.5t23.5 13.5q9 2 33.5 35.5t27.5 46.5q2 5 5 16q1 4 12 24q8 14 8 24q0 9 -4.5 25t-4.5 24q0 17 14 26.5t31 9.5q20 0 23.5 -21.5t20.5 -21.5q2 0 7 1.5t7 1.5q9 0 15.5 -10t6.5 -20q0 -15 -13 -21q-6 -1 -18 -6
q-26 -18 -51 -54q-9 -12 -15 -38t-12 -37q-11 -14 -30 -44q-4 -11 -12 -34q-10 -26 -13 -26t-8 -1t-7 -1zM443 4q-27 -36 -34 -36q-11 0 -25 25q0 20 -17 59q-13 30 -26 59q-25 71 -122 232q-104 173 -149 204q-18 10 -37.5 21.5t-19.5 42.5q0 23 32 39q36 18 43 41
q6 2 12 2q29 0 45 -63q21 -84 24 -90l230 -368q26 -41 59 -56q43 -20 43 -54q0 -13 -13 -18.5t-24 -10.5q-6 -12 -21 -29zM130 65q0 -8 3.5 -24t3.5 -24q0 -16 -14 -26t-31 -10q-21 0 -24 21.5t-20 21.5q-3 0 -7.5 -1.5t-7.5 -1.5q-9 0 -15 10t-6 20q0 13 10 18l20 10
q30 19 50 52l34 64q11 14 30 44q10 21 19 41q16 28 32 28q9 0 17 -43q27 -15 27 -31q0 -17 -26 -32q-15 -9 -31 -18q-64 -66 -64 -119z" />
    <glyph glyph-name="y" unicode="y" horiz-adv-x="536" 
d="M310 367h-18q0 5 3 19t3 22q0 17 -24 31.5t-24 25.5q0 12 21 22q16 6 31 12q20 10 36 46q14 33 14 59q0 10 -5.5 32t-5.5 32q0 22 31 22q7 0 21 -2.5t21 -2.5q17 0 32.5 9t17.5 9q6 0 16 -8.5t10 -14.5q0 -21 -65 -95q-66 -78 -73 -126q-5 -33 -5 -63t-37 -29zM255 230
q-9 -4 -9 -17l4 -23q3 -16 1 -61q-2 -38 8 -61q3 -8 20 -27l17 -19q0 -32 -23 -32q-4 0 -18.5 8t-18.5 8q-7 0 -20 -10.5t-26 -10.5q-35 0 -35 30q0 15 18.5 44.5t18.5 59.5q0 123 -9 155q-3 11 -20.5 35t-17.5 36q0 7 1.5 20t1.5 20t-1.5 13.5t-33.5 71.5q-31 62 -40 76
q-12 21 -38.5 36.5t-27.5 15.5q-14 12 -14 28q0 12 11 23.5t23 11.5q4 0 11 -1.5t10 -1.5q17 0 27 18.5t24 18.5q9 0 15.5 -12t6.5 -22q0 -3 -5 -13.5t-5 -15.5q0 -45 30 -103t66 -86q22 -10 44 -21q29 -15 29 -33q-8 -3 -20 -10q-9 -11 -44.5 -18t-41.5 -16q1 -1 0 -9
q0 -6 5 -6q6 0 38.5 13t37.5 13q43 0 43 -18q0 -9 -17 -43q-20 -39 -26 -65z" />
    <glyph glyph-name="z" unicode="z" horiz-adv-x="542" 
d="M162 92q10 -13 19 -13q14 0 41.5 -2.5t41.5 -2.5q48 0 92.5 26.5t50.5 26.5q9 0 23 -10l1 -11q0 -9 -5.5 -23.5t-5.5 -23.5q0 -8 6.5 -24t6.5 -24q0 -10 -7 -19.5t-18 -9.5q-7 0 -29.5 14.5t-28.5 16.5q-38 9 -161 9q-4 0 -34 -17t-34 -17h-52q-17 0 -33.5 11.5
t-16.5 28.5q0 13 7 19q31 23 43 34q24 22 32 43q29 77 80 190q11 18 32 55q11 25 33 74q23 45 47 91q36 73 36 84q0 16 -8 28q-15 -5 -17 -45t-19 -40q-11 0 -23 13q-17 18 -30 24q-25 13 -68 13q-38 0 -62 -12q-11 -6 -28 -23q-12 -12 -23 -12q-18 0 -23 26q0 2 -3 40
q0 1 -12 16q-7 10 -7 20q0 21 44 21q28 0 87 -10.5t87 -10.5q13 0 39 8t38 8q4 0 10.5 -4t10.5 -4t9.5 4t9.5 4q6 0 17.5 -9t26.5 -9q10 0 30.5 9t30.5 9q24 0 24 -22q0 -10 -8.5 -24t-17.5 -19q-43 -24 -70 -73l-36 -81l-100 -192q-76 -148 -76 -179z" />
    <glyph glyph-name="braceleft" unicode="{" horiz-adv-x="20" 
 />
    <glyph glyph-name="bar" unicode="|" horiz-adv-x="356" 
 />
    <glyph glyph-name="braceright" unicode="}" horiz-adv-x="20" 
 />
    <glyph glyph-name="asciitilde" unicode="~" horiz-adv-x="545" 
d="M215 796q-6 2 -19 3q-21 1 -41 -21l-10 -10q-12 -5 -33 -12q-9 -1 -10 -5q-3 -9 -5 -11q-3 -18 7 -19l10 -1q-2 -2 -2 2q0 2 8 4q6 1 7.5 -9.5t9.5 -7.5q12 13 28 32.5t29 18.5q18 0 34 -25q12 -16 24 -21q6 -2 19 -3q22 -1 42 21q2 3 13 11q6 -1 16 3.5t13 5.5q9 0 11 5
q2 9 4 11q4 18 -6 18.5l-10 0.5q1 2 1 -2q0 -2 -8 -3q-6 -1 -7.5 9t-9.5 7q-11 -12 -27 -29q-17 -20 -30 -20q-17 1 -32 24q-13 17 -26 23z" />
    <glyph glyph-name="Adieresis" unicode="&#xc4;" horiz-adv-x="565" 
d="M453 -4.5q-18 7.5 -21 7.5q-5 0 -17.5 -6.5t-20.5 -6.5q-11 0 -20 9.5t-9 19.5q0 5 7 21t8 21q3 17 3 41q0 48 -48 223q-46 170 -77 241q-11 26 -26 38q-11 9 -37.5 20t-26.5 33q0 15 12.5 24t26.5 9q9 0 25 -11.5t17 -11.5q11 0 36.5 13t37.5 13q11 0 24.5 -10.5
t13.5 -22.5q0 -3 -1 -5l-2 -5q-13 -36 -13 -56q0 -42 35 -176q19 -57 52 -173q17 -48 46 -145q3 -12 23 -41t20 -36q0 -11 -14.5 -24.5t-25.5 -13.5q-3 0 -6.5 1.5t-21.5 9zM479 1l2 -1q6 0 15.5 9t9.5 14q-1 3 -18 27q-21 31 -25 47q-16 47 -45 144q-19 58 -52 174
q-36 135 -36 179q0 20 16 66q0 4 -8.5 11t-14.5 7q-8 0 -33.5 -13t-40.5 -13q-7 0 -22 11.5t-20 11.5q-24 0 -24 -18q0 -12 16 -19q30 -13 36 -17q24 -17 37 -49q31 -72 78 -243q48 -177 48 -227q0 -34 -17 -78q0 -2 -1 -5q0 -14 14 -14q5 0 17.5 6.5t20.5 6.5q6 0 24 -8
t23 -9zM303 132q-17 10 -47 10q-22 0 -49.5 -11.5t-32.5 -11.5q-29 0 -29 29q0 16 13 25.5t13 14.5q0 3 -4.5 12t-4.5 15q0 11 9.5 20.5t19.5 9.5q9 0 29 -17t36 -17q18 0 40.5 13.5t36.5 13.5q28 0 28 -28q0 -6 -2.5 -16.5t-2.5 -16.5q0 -7 10.5 -21t10.5 -25
q0 -7 -8.5 -17.5t-16.5 -10.5q-6 0 -24 12q-12 9 -25 17zM352 119q10 4 10 12q0 6 -10.5 20t-10.5 26q0 6 2.5 17t2.5 16q0 13 -13 13q-10 0 -33 -13.5t-44 -13.5q-20 0 -41.5 17t-23.5 17q-4 0 -9 -5t-5 -10q0 -3 4.5 -11.5t4.5 -15.5q0 -13 -13 -22t-13 -18q0 -14 15 -14
l1 1q19 7 39 14.5t41 7.5q33 0 52 -11q22 -14 44 -27zM152 64q18 -25 18 -37q0 -17 -14 -27t-30 -10q-9 0 -28.5 9t-26.5 9q-9 0 -29 -7.5t-31 -7.5q-6 0 -17.5 7t-11.5 15q0 24 12.5 24t36.5 24q30 29 45 82l22 92q59 200 59 298q0 9 -3 25.5t-3 24.5q0 41 43 41
q13 0 23 -14t10 -27l28 -22q16 -14 16 -31q0 -14 -21 -47q-25 -38 -28 -48q-12 -35 -48 -169q-38 -146 -38 -168q0 -16 16 -36zM-3 23v-7l1 -1q6 -7 13 -7q10 0 29.5 7.5t30.5 7.5q10 0 29.5 -9t25.5 -9q29 0 29 22q0 7 -17 30t-17 43q0 24 39 171q35 135 48 171q3 10 27 47
q21 34 21 43q0 13 -22 29t-21.5 23t-6 17t-12.5 10q-28 0 -28 -26q0 -8 3 -24.5t3 -25.5q0 -100 -60 -302q-14 -58 -29 -115q-23 -63 -76 -90q-5 -2 -10 -5zM351 757q-12 -6 -19.5 -26t-26.5 -20t-23 22q-1 4 -1 36q0 5 -2.5 14.5t-2.5 14.5q0 27 17 27q4 -1 5 -3
q9 -9 51 -23q36 -12 36 -27q0 -17 -17 -17q-6 0 -17 2zM292 808q-1 -4 -1 -10q0 -3 2.5 -13t2.5 -16q0 -36 -1 -25q1 -18 10 -18t15 15q6 19 14.5 24t12.5 7q3 0 8.5 -1t12.5 -1l2 2q0 4 -29 13q-18 6 -49 23zM225 758l-6 1h-2q-12 -3 -20 -29q-8 -22 -27 -22q-9 0 -17.5 9
t-8.5 16v30q-1 17 -7 28v4v5q1 21 16 21q3 -1 5 -2q8 -8 52 -20q37 -9 37 -25q0 -17 -18 -17q-2 0 -4 1zM153 804q-1 -2 -1 -5v-3q5 -12 7 -62q0 -2 4.5 -6.5t6.5 -4.5q9 0 16 22.5t25 27.5l2 1h4h4l6 -1q1 -1 2 -1q2 0 3 2l-1 1q-4 4 -35.5 12.5t-42.5 16.5zM351 757
q-12 -6 -19.5 -26t-26.5 -20t-23 22q-1 4 -1 36q0 5 -2.5 14.5t-2.5 14.5q0 27 17 27q4 -1 5 -3q9 -9 51 -23q36 -12 36 -27q0 -17 -17 -17q-6 0 -17 2zM292 808q-1 -4 -1 -10q0 -3 2.5 -13t2.5 -16q0 -36 -1 -25q1 -18 10 -18t15 15q6 19 14.5 24t12.5 7q3 0 8.5 -1
t12.5 -1l2 2q0 4 -29 13q-18 6 -49 23zM225 758l-6 1h-2q-12 -3 -20 -29q-8 -22 -27 -22q-9 0 -17.5 9t-8.5 16v30q-1 17 -7 28v4v5q1 21 16 21q3 -1 5 -2q8 -8 52 -20q37 -9 37 -25q0 -17 -18 -17q-2 0 -4 1zM153 804q-1 -2 -1 -5v-3q5 -12 7 -62q0 -2 4.5 -6.5t6.5 -4.5
q9 0 16 22.5t25 27.5l2 1h4h4l6 -1q1 -1 2 -1q2 0 3 2l-1 1q-4 4 -35.5 12.5t-42.5 16.5zM351 757q-12 -6 -19.5 -26t-26.5 -20t-23 22q-1 4 -1 36q0 5 -2.5 14.5t-2.5 14.5q0 27 17 27q4 -1 5 -3q9 -9 51 -23q36 -12 36 -27q0 -17 -17 -17q-6 0 -17 2zM292 808
q-1 -4 -1 -10q0 -3 2.5 -13t2.5 -16q0 -36 -1 -25q1 -18 10 -18t15 15q6 19 14.5 24t12.5 7q3 0 8.5 -1t12.5 -1l2 2q0 4 -29 13q-18 6 -49 23zM225 758l-6 1h-2q-12 -3 -20 -29q-8 -22 -27 -22q-9 0 -17.5 9t-8.5 16v30q-1 17 -7 28v4v5q1 21 16 21q3 -1 5 -2q8 -8 52 -20
q37 -9 37 -25q0 -17 -18 -17q-2 0 -4 1zM153 804q-1 -2 -1 -5v-3q5 -12 7 -62q0 -2 4.5 -6.5t6.5 -4.5q9 0 16 22.5t25 27.5l2 1h4h4l6 -1q1 -1 2 -1q2 0 3 2l-1 1q-4 4 -35.5 12.5t-42.5 16.5z" />
    <glyph glyph-name="Aring" unicode="&#xc5;" horiz-adv-x="565" 
d="M453 -4.5q-18 7.5 -21 7.5q-5 0 -17.5 -6.5t-20.5 -6.5q-11 0 -20 9.5t-9 19.5q0 5 7 21t8 21q3 17 3 41q0 48 -48 223q-46 170 -77 241q-11 26 -26 38q-11 9 -37.5 20t-26.5 33q0 15 12.5 24t26.5 9q9 0 25 -11.5t17 -11.5q11 0 36.5 13t37.5 13q11 0 24.5 -10.5
t13.5 -22.5q0 -3 -1 -5l-2 -5q-13 -36 -13 -56q0 -42 35 -176q19 -57 52 -173q17 -48 46 -145q3 -12 23 -41t20 -36q0 -11 -14.5 -24.5t-25.5 -13.5q-3 0 -6.5 1.5t-21.5 9zM479 1l2 -1q6 0 15.5 9t9.5 14q-1 3 -18 27q-21 31 -25 47q-16 47 -45 144q-19 58 -52 174
q-36 135 -36 179q0 20 16 66q0 4 -8.5 11t-14.5 7q-8 0 -33.5 -13t-40.5 -13q-7 0 -22 11.5t-20 11.5q-24 0 -24 -18q0 -12 16 -19q30 -13 36 -17q24 -17 37 -49q31 -72 78 -243q48 -177 48 -227q0 -34 -17 -78q0 -2 -1 -5q0 -14 14 -14q5 0 17.5 6.5t20.5 6.5q6 0 24 -8
t23 -9zM303 132q-17 10 -47 10q-22 0 -49.5 -11.5t-32.5 -11.5q-29 0 -29 29q0 16 13 25.5t13 14.5q0 3 -4.5 12t-4.5 15q0 11 9.5 20.5t19.5 9.5q9 0 29 -17t36 -17q18 0 40.5 13.5t36.5 13.5q28 0 28 -28q0 -6 -2.5 -16.5t-2.5 -16.5q0 -7 10.5 -21t10.5 -25
q0 -7 -8.5 -17.5t-16.5 -10.5q-6 0 -24 12q-12 9 -25 17zM352 119q10 4 10 12q0 6 -10.5 20t-10.5 26q0 6 2.5 17t2.5 16q0 13 -13 13q-10 0 -33 -13.5t-44 -13.5q-20 0 -41.5 17t-23.5 17q-4 0 -9 -5t-5 -10q0 -3 4.5 -11.5t4.5 -15.5q0 -13 -13 -22t-13 -18q0 -14 15 -14
l1 1q19 7 39 14.5t41 7.5q33 0 52 -11q22 -14 44 -27zM152 64q18 -25 18 -37q0 -17 -14 -27t-30 -10q-9 0 -28.5 9t-26.5 9q-9 0 -29 -7.5t-31 -7.5q-6 0 -17.5 7t-11.5 15q0 24 12.5 24t36.5 24q30 29 45 82l22 92q59 200 59 298q0 9 -3 25.5t-3 24.5q0 41 43 41
q13 0 23 -14t10 -27l28 -22q16 -14 16 -31q0 -14 -21 -47q-25 -38 -28 -48q-12 -35 -48 -169q-38 -146 -38 -168q0 -16 16 -36zM-3 23v-7l1 -1q6 -7 13 -7q10 0 29.5 7.5t30.5 7.5q10 0 29.5 -9t25.5 -9q29 0 29 22q0 7 -17 30t-17 43q0 24 39 171q35 135 48 171q3 10 27 47
q21 34 21 43q0 13 -22 29t-21.5 23t-6 17t-12.5 10q-28 0 -28 -26q0 -8 3 -24.5t3 -25.5q0 -100 -60 -302q-14 -58 -29 -115q-23 -63 -76 -90q-5 -2 -10 -5zM331 773q0 -30 -23.5 -50t-54.5 -20q-32 0 -55.5 20t-23.5 50t23.5 50t55.5 20q31 0 54.5 -20t23.5 -50zM316 773
q0 23 -19 39t-44 16q-26 0 -45 -16t-19 -39t19 -39t45 -16q25 0 44 16t19 39zM218 773q0 -26 35 -26q34 0 34 26t-34 26q-35 0 -35 -26zM203 773q0 17 14.5 29t35.5 12q20 0 34.5 -12t14.5 -29t-14.5 -29t-34.5 -12q-21 0 -35.5 12t-14.5 29z" />
    <glyph glyph-name="Ccedilla" unicode="&#xc7;" horiz-adv-x="501" 
d="M430 593q-7 -13 -14 -25q-7 -15 -7 -28q0 -6 8 -21.5t8 -25.5q0 -13 -11 -27t-24 -14q-23 0 -35 36q-20 56 -27 66q-24 36 -73 36q-36 0 -68.5 -28t-38.5 -64q-1 -4 -1 -47q0 -25 -19 -25q-12 0 -17 8.5t-10 18.5q-8 14 -22.5 21.5t-28.5 13.5q-33 16 -33 39q0 27 40 42
l62 18q34 15 56 49l38 58q15 17 36 16q18 -19 37 -37q39 -37 86 -37q4 0 14.5 5t17.5 5q19 0 31 -32v-3q0 -8 -5 -18zM417 600q3 6 3 10q-8 21 -16 21q-4 0 -14 -5t-18 -5q-42 0 -72 22q-9 6 -55 52q-15 1 -42 -44q-43 -70 -105 -86q-66 -17 -66 -38q0 -13 28 -27
q37 -18 41 -21q9 -9 21 -36l3 -1q1 -1 3 -1q4 0 4 10q0 45 1 50q8 41 44 72.5t78 31.5q73 0 101 -74l12 -36q10 -28 22 -28q5 0 12.5 9t7.5 17q0 6 -8 21.5t-8 25.5q0 16 7.5 31t15.5 29zM111 194q-9 0 -24.5 6.5t-22.5 6.5t-21 -4t-22 -4q-28 0 -28 18q0 21 13 59.5
t13 59.5q0 20 -13 55t-13 54q0 40 31 40q15 0 28 -16q9 -15 18 -29q3 -5 31 -28q20 -18 20 -33q0 -1 -19.5 -27.5t-19.5 -58.5q0 -15 29 -34t29 -41q0 -9 -10.5 -16.5t-18.5 -7.5zM106 381q-1 7 -21 24q-23 20 -27 27q-26 38 -34 38q-16 0 -16 -25q0 -16 13 -51.5t13 -57.5
q0 -21 -13 -60t-13 -60q12 -2 13 -2q8 0 21.5 4t21.5 4q9 0 24.5 -6.5t22.5 -6.5q4 0 9 4t5 5q0 14 -29 33t-29 42q0 43 35 83q1 1 4 5zM282 -111q-1 -3 8 -40l1 -7q1 -2 1 -4v-1q-3 -18 -26 -21q-16 -1 -31 -3h-1q-1 -1 -23 -17q-18 -13 -24 -11q-20 9 -18 27
q-10 36 -10 32q0 8 6 15l2 1q7 4 14 4q11 0 39 -18q7 -1 17.5 12.5t11.5 21.5q0 4 -6 16q-10 12 -32 14h-11t-17 5.5t-9 13.5q0 5 6 12t7 25q-10 9 -20 30.5t-15 28.5q-51 69 -94 87q-16 5 -32.5 12t-16.5 26q0 22 28 34q22 9 48 9q59 0 59 -34q0 -4 -2 -13t-2 -13
q0 -19 45 -41q42 -21 69 -21q52 0 81 40q7 11 34 74q16 39 40 39q13 0 21 -12t8 -23q0 -15 -10 -40t-10 -38q0 -8 4.5 -23.5t4.5 -23.5q0 -37 -60 -40q-42 -3 -135 -53v-1q1 -11 3.5 -16.5t11.5 -8.5t11 -5q9 -6 29 -20l1 -1q6 -5 6 -14q0 -15 -12 -16zM279 -96q1 2 -1 4
q-12 9 -41 25q-12 4 -15 11t-5 20q-2 15 3 18q100 54 146 56.5t46 25.5q0 8 -4.5 23.5t-4.5 23.5q0 14 10 39.5t10 38.5q0 20 -14 20q-15 0 -30 -39q-21 -54 -37 -74q-32 -40 -88 -40q-29 0 -75 22q-54 26 -54 55q0 4 2 13t2 13q0 19 -44 19q-18 0 -36 -6q-25 -8 -25 -22
q0 -11 16 -17l24 -8q26 -10 61 -45t48 -62q7 -16 24 -41q6 -3 5 -18q-1 -13 -4 -18q-4 -8 -8 -12q5 -4 10 -4q17 0 41 -10q10 -4 15 -10l1 -1q7 -15 7 -23q0 -7 -11 -27q-17 -28 -38 -22l-2 1q-26 16 -32 16q-3 0 -4.5 -1.5t-1.5 -4.5q0 -4 4.5 -16t4 -17t6.5 -9q12 9 37 25
q5 3 29 4q18 2 20 9l-1 6q-9 41 -8 48l1 2q4 7 11 9z" />
    <glyph glyph-name="Eacute" unicode="&#xc9;" horiz-adv-x="454" 
d="M324 560q-13 11 -26.5 21t-35.5 10q-3 0 -7 -4.5t-8 -1.5q-7 3 -25 3q-15 0 -48 -18t-39 -18q-10 0 -19.5 8.5t-9.5 19.5q0 12 11 21t21 18q6 6 13 29t10 25q26 12 32 12t18 -7q22 -14 38 -23l88 38q7 3 19.5 -10.5t12.5 -22.5q0 -7 -5 -20.5t-5 -19.5q0 -2 7.5 -17.5
t7.5 -21.5q0 -29 -31 -29q-10 0 -19 8zM333 572q6 -5 10 -5q16 0 16 14q0 3 -7.5 18t-7.5 21q0 8 5 21.5t5 18.5q0 7 -15 17l-87 -37q-3 -1 -6 0l-57 30l-18 -9q-12 -46 -31 -60.5t-19 -20.5q0 -13 14 -13l34 17q36 19 53 19t26 -2q5 5 14 5q25 0 40.5 -11t30.5 -23zM98 312
q0 5 6.5 16.5t6.5 13.5q0 5 -6.5 18.5t-6.5 21.5q0 36 29 36q14 0 32.5 -15.5t42.5 -15.5q46 0 100 47q1 1 3 1q7 0 18.5 -12.5t11.5 -18.5q0 -8 -6.5 -21.5t-6.5 -18.5q0 -6 9.5 -31t9.5 -35q0 -6 -3 -9l-4 -4q-10 -11 -20 -11q-14 0 -35 16q-24 17 -37 19q-7 0 -19 3l-4 2
q-4 1 -5 1q-20 0 -48 -16.5t-37 -16.5q-11 0 -21 9t-10 21zM320 403l-2 2q-2 3 -12 13q-54 -46 -104 -46q-30 0 -57 23q-9 8 -18 8q-14 0 -14 -21q0 -4 6.5 -18t6.5 -22q0 -6 -6 -15q-6 -12 -7 -15q0 -15 16 -15q4 0 33 16.5t52 16.5q4 0 10 -2l4 -1q10 -2 32 -7
q6 -3 27 -18q18 -13 27 -13q3 0 9 7l2 1q1 10 -8.5 32t-9.5 35q0 8 6 20.5t7 18.5zM101 313l2 -68q2 -45 10.5 -61.5t16.5 -30.5q11 -18 11 -29q0 -13 -9.5 -24.5t-22.5 -11.5q-17 0 -37.5 24.5t-34.5 24.5q-10 0 -23 3l-3 3q-9 10 -9 19q0 14 13 46.5t13 50.5
q0 10 -1.5 29.5t-1.5 29.5l1 205q0 39 -1 47q-3 21 -18 43q-18 26 -18 36q0 12 9 21t22 9q5 0 19 -6.5t17 -6.5q9 0 29.5 9t32.5 9q10 0 19 -8.5t9 -17.5q0 -4 -2 -7q-40 -48 -44 -91q-6 -63 -6 -113q0 -48 7 -134zM86 312q-7 86 -7 135q0 51 6 114q4 47 45 97q-3 11 -12 11
t-30 -9t-32 -9q-6 0 -20 6.5t-16 6.5q-16 0 -16 -15q0 -4 17 -30t18.5 -45t1.5 -51l-1 -205q0 -10 1.5 -29.5t1.5 -29.5q0 -20 -13 -53t-13 -44q0 -3 5 -8l1 -2q28 -1 36 -6q3 -2 26 -27q16 -16 24 -16q17 0 17 21q0 8 -15.5 34t-17.5 39q-2 38 -7 115zM253 19q3 0 -133 -1
q-12 0 -44 -19.5t-51 -19.5q-15 0 -26 18q-10 15 -10 28q0 5 9.5 20.5t10.5 20.5l1 1q0 2 -8 16t-8 20q0 12 9.5 22.5t22.5 10.5q10 0 24 -12l20 -20q27 -17 130 -17q42 0 86 29.5t54 29.5q8 0 19.5 -5t11.5 -12q0 -9 -5 -26t-5 -26q0 -7 7.5 -24.5t7.5 -27.5
q0 -9 -11 -23.5t-21 -11.5zM346 5q15 9 15 20q0 7 -7.5 24.5t-7.5 27.5q0 9 4.5 25t5.5 24q-8 5 -16 5q-4 0 -50 -29.5t-90 -29.5q-108 0 -138 20q-2 1 -17 15t-19 14q-17 0 -17 -18q0 -2 8 -16t8 -20q0 -7 -9 -21q-11 -19 -12 -21q0 -9 7.5 -20t13.5 -11q15 0 47 19.5
t48 19.5l135 1h3l3 -1l10 -3zM123 709q4 -2 7 -2q-5 0 12 5q10 15 51 30q35 12 59 15v1q-1 1 -6 5l-3 4q-9 7 -9 15q0 5 10 17.5t10 20.5q-2 3 -7 3q-3 0 -23 -22t-21.5 -28t-40 -24t-39.5 -40zM250 782q1 -2 3 -5l3 -3q13 -11 13 -19q0 -15 -54 -24t-61 -28
q-4 -2 -10.5 -6.5t-13.5 -4.5q-22 0 -22 16q0 29 31 45q25 14 50 27q6 13 27.5 35.5t30.5 22.5q22 0 22 -18q0 -12 -18 -37z" />
    <glyph glyph-name="Ntilde" unicode="&#xd1;" horiz-adv-x="545" 
d="M435 195q1 -18 14 -61q2 -6 2 -10q0 -36 -26 -36q-47 0 -59 108q-2 2 -8 5q-17 10 -17 33q0 15 9 45q12 40 13 47l1 3q7 32 7 75q0 20 -2 64q-2 41 -2 64q-3 8 -8 41q-3 20 -23.5 41.5t-20.5 37.5q0 36 33 36q8 0 52 -20l45 19q7 3 25 -12.5t18 -26.5q0 -21 -16 -39
q-25 -31 -26 -33q-11 -19 -12 -166q1 135 1 -184v-31zM420 226q0 311 -1 188q1 147 14 170q1 2 24 30q16 18 16 34q0 9 -26 24l-44 -19q-3 -2 -24 8q-25 11 -29 12h-2q-18 0 -18 -21q0 -10 19.5 -31t23.5 -39q1 -16 8 -46l1 -3q0 -22 2 -64q2 -45 2 -65q0 -44 -7 -78l-1 -4
q-1 -6 -13 -44q-9 -30 -9 -44t7 -18q14 -10 16 -12t2 -4q3 -29 12 -56q13 -41 32 -41q11 0 11 21q0 3 -5.5 18.5t-6.5 18.5q-4 21 -4 65zM337 -10q-4 1 -6 3l-24 34q-2 2 -1 6q6 23 6 42q0 40 -24 95q-22 46 -44 91l-73 160q-32 70 -51 102q-38 61 -78 79q-35 16 -35 44
q0 37 33 37q9 0 31 -10.5t29 -10.5q3 1 23 12q17 9 20 9q25 -1 25 -27q0 -8 -2.5 -24t-2.5 -24q0 -18 57 -131q19 -36 42 -91q16 -25 43 -78q45 -101 64 -156q13 -37 22 -49q5 -7 39 -37t34 -43q0 -22 -32 -35l-3 -1q-65 3 -92 3zM341 5q27 0 87 -3q21 10 21 21q0 6 -31 34
q-35 32 -39 37q-11 15 -24 53q-19 54 -64 155q-15 25 -41.5 77.5t-76.5 158.5q-25 54 -25 70q0 8 2.5 24t2.5 24q0 11 -9 12q-43 -21 -44 -21q-10 0 -31 10t-29 11q-18 1 -18 -22q0 -17 15 -25t29 -15q41 -33 71 -82q15 -25 48 -96q24 -54 73 -161q22 -47 45 -93
q24 -57 24 -99q0 -20 -6 -42zM106 8h-2q-9 0 -26.5 -11.5t-28.5 -11.5q-15 0 -26 15t-11 30q0 13 14 34q17 26 19 32q19 47 19 106q0 17 -2.5 51.5t-2.5 51.5q0 12 1.5 36.5t1.5 36.5q0 105 -22 143q-15 27 -15 39q0 11 7.5 21.5t19.5 10.5q13 0 21 -16q5 -13 11 -26
q4 -9 37 -32q25 -18 25 -43q0 -12 -8 -34.5t-8 -33.5v-180q0 -12 1 -15l1 -3q2 -18 5 -53v-22q-2 -17 -2 -22q0 -27 22.5 -59t22.5 -42q0 -24 -23 -24q-7 0 -26 9.5t-25 11.5zM155 3l2 -1q8 0 8 9q0 3 -22.5 37t-22.5 64q0 5 2 21v22q-2 17 -5 52q-2 6 -2 20v180q0 12 8 34
t8 34q0 17 -27 36q-31 22 -38 42q-9 24 -14 24q-12 0 -12 -17q0 -9 8 -23q10 -18 12 -22q17 -50 17 -137q0 -12 -1.5 -36.5t-1.5 -36.5q0 -17 2.5 -51.5t2.5 -51.5q0 -84 -29 -129q-23 -36 -23 -43q0 -10 7.5 -20t14.5 -10t24.5 11.5t30.5 11.5q6 0 26.5 -9.5t24.5 -10.5z
M333 792l4 4q-1 -5 -12.5 -17t-28.5 -29q-10 -8 -21 -8q-22 0 -40 27q-17 23 -38 23q-19 0 -37 -19l-4 -5q-9 -10 -47 -20q-1 -4 -5 -12l-1 -3v-3q1 -1 3 -1l2 -1q5 5 12 5q10 0 16 -18h-2l-4 -4q2 5 18.5 24t25 26t19.5 7q21 0 41 -29q16 -21 36 -21t37 19q14 15 19 14
t15 3.5t12.5 4.5t4.5 2.5t5 9.5l1 3v4q-1 0 -2 1h-3q-5 -5 -11 -5q-11 0 -16 18h1zM348 788q3 -2 0 -7q-5 4 -3 9t8 5q2 -1 10 -1q17 -2 17 -20q0 -7 -3 -12t-5.5 -11t-15.5 -7q-3 0 -12.5 -5t-17.5 -4h-1q-27 -33 -54 -32q-31 2 -49 28q-15 22 -28 22q-9 0 -18 -11
q-30 -34 -37 -40q-3 -1 -6 -1q-10 0 -13 18v0v0q-4 3 0 7q4 -3 2 -8t-8 -5q-2 0 -9 1q-17 1 -17 19q0 7 3 12t5.5 11t13.5 8.5t30 9.5q4 4 5 4q26 30 52 29q31 -2 50 -30q14 -20 26 -20q8 0 21 13q9 9 18 19q4 4 11 12q2 6 11 6q10 0 14 -18v0v-1z" />
    <glyph glyph-name="Odieresis" unicode="&#xd6;" horiz-adv-x="578" 
d="M330 520q-2 15 -12 40q-35 47 -83 47q-30 0 -37 -28q-3 -26 -6 -53t-24 -27q-18 0 -33 40.5t-41 40.5q-9 0 -16.5 8.5t-7.5 16.5q0 24 33 33l40 8l40 38q26 21 49 21q14 0 22 -11l15 -18q11 -8 34 -23q58 -39 152 -54q17 -2 17 -22q0 -19 -22 -31q-18 -9 -37 -18
q-3 -2 -20 -22q-13 -15 -23 -15q-31 0 -40 29zM370 506q4 0 10 8q15 20 27 28q16 7 33 15.5t17 19.5q0 7 -4 7q-59 9 -93 23q-30 12 -83 45q-19 11 -33 32q-4 6 -12 6q-23 0 -50 -27q-30 -30 -38 -32q-17 -4 -35 -7q-24 -6 -24 -19q0 -10 9 -10q26 0 41 -21q7 -10 18 -39
q7 -21 15 -21q9 0 11 28q2 37 8 52q13 28 48 28q31 0 64 -23t41 -53q6 -26 7 -27q6 -13 23 -13zM490 192v-2q0 -11 -11.5 -22.5t-22.5 -11.5q-12 0 -25 22q-16 25 -25 28q-17 3 -34 5q-20 5 -20 26q0 14 25 42t25 60q0 33 -15.5 61.5t-31.5 56.5l-1 3q0 26 26 34q20 5 41 11
q2 1 24 24q15 16 27 16q13 0 23.5 -12.5t10.5 -23.5q0 -34 -23.5 -99.5t-23.5 -102.5q0 -26 10 -58q11 -28 21 -57zM444 307q0 39 23.5 105t23.5 97q0 6 -6.5 13.5t-12.5 7.5t-21 -16q-19 -20 -22 -22t-35 -10q-24 -6 -25 -20l32 -58t16 -65t-25 -65.5t-25 -36.5
q0 -11 22 -13q28 -3 40 -17q7 -10 13 -19q11 -17 14 -17q5 0 11.5 6.5t7.5 11.5q-10 29 -21 58q-10 33 -10 60zM105 377q27 -40 27 -53q0 -25 -26 -25q-8 0 -21.5 5t-19.5 5q-8 0 -24.5 -5t-25.5 -5q-27 0 -27 28q0 13 30.5 52t30.5 78q0 12 -8 35t-8 35q0 15 8 30
q10 20 27 20q14 0 25 -6.5t35.5 -45t24.5 -48.5q0 -16 -27.5 -33.5t-27.5 -54.5q2 -4 7 -12zM93 369q-10 15 -10 19q0 47 41 72q14 9 14 17q0 6 -22.5 41t-30 39.5t-17.5 4.5q-7 0 -13.5 -11.5t-6.5 -23.5t8 -34.5t8 -35.5q0 -42 -30.5 -83t-30.5 -47q0 -13 12 -13
q9 0 25.5 5t24.5 5t21.5 -5t19.5 -5t8.5 2t2.5 8q0 9 -24 45zM238 -14q-27 25 -54 49q-35 29 -62 29q-2 0 -6.5 -1t-6.5 -1q-38 0 -45 39v68q-1 19 -37 50t-36 46q0 17 19 27.5t37 10.5q29 0 75 -18q23 -8 23 -38q0 -10 -6.5 -27t-6.5 -25q0 -35 10 -51q16 -27 51.5 -44.5
t68.5 -17.5q46 0 56 34q3 10 3 71q0 7 9 19.5t14 11.5q34 -3 43 -11q13 -17 25 -35q2 -2 27 -21q14 -10 14 -35q0 -18 -28 -30l-44 -14q-29 -14 -43.5 -34t-28.5 -41q-20 -28 -40 -28q-12 0 -31 17zM248 -3q15 -13 21 -13q13 0 30 25q11 18 23 36q27 34 71.5 47t44.5 24
q0 18 -12 26q-21 15 -26 21q-8 14 -27 36q-4 2 -26 4q-12 -15 -13 -23l2 -34q-1 -79 -74 -79q-37 0 -75.5 19.5t-57.5 49.5q-12 20 -12 59q0 10 6.5 26.5t6.5 25.5q0 19 -13 24q-43 17 -70 17q-11 0 -26 -6.5t-15 -16.5q0 -7 35.5 -38.5t37.5 -57.5q0 -5 -1 -19
q-1 -17 -1 -24q0 -49 32 -49q2 0 6.5 1t6.5 1q31 0 68 -29q29 -27 58 -53zM351 757q-12 -6 -19.5 -26t-26.5 -20t-23 22q-1 4 -1 36q0 5 -2.5 14.5t-2.5 14.5q0 27 17 27q4 -1 5 -3q9 -9 51 -23q36 -12 36 -27q0 -17 -17 -17q-6 0 -17 2zM292 808q-1 -4 -1 -10q0 -3 2.5 -13
t2.5 -16q0 -36 -1 -25q1 -18 10 -18t15 15q6 19 14.5 24t12.5 7q3 0 8.5 -1t12.5 -1l2 2q0 4 -29 13q-18 6 -49 23zM225 758l-6 1h-2q-12 -3 -20 -29q-8 -22 -27 -22q-9 0 -17.5 9t-8.5 16v30q-1 17 -7 28v4v5q1 21 16 21q3 -1 5 -2q8 -8 52 -20q37 -9 37 -25q0 -17 -18 -17
q-2 0 -4 1zM153 804q-1 -2 -1 -5v-3q5 -12 7 -62q0 -2 4.5 -6.5t6.5 -4.5q9 0 16 22.5t25 27.5l2 1h4h4l6 -1q1 -1 2 -1q2 0 3 2l-1 1q-4 4 -35.5 12.5t-42.5 16.5zM351 757q-12 -6 -19.5 -26t-26.5 -20t-23 22q-1 4 -1 36q0 5 -2.5 14.5t-2.5 14.5q0 27 17 27q4 -1 5 -3
q9 -9 51 -23q36 -12 36 -27q0 -17 -17 -17q-6 0 -17 2zM292 808q-1 -4 -1 -10q0 -3 2.5 -13t2.5 -16q0 -36 -1 -25q1 -18 10 -18t15 15q6 19 14.5 24t12.5 7q3 0 8.5 -1t12.5 -1l2 2q0 4 -29 13q-18 6 -49 23zM225 758l-6 1h-2q-12 -3 -20 -29q-8 -22 -27 -22q-9 0 -17.5 9
t-8.5 16v30q-1 17 -7 28v4v5q1 21 16 21q3 -1 5 -2q8 -8 52 -20q37 -9 37 -25q0 -17 -18 -17q-2 0 -4 1zM153 804q-1 -2 -1 -5v-3q5 -12 7 -62q0 -2 4.5 -6.5t6.5 -4.5q9 0 16 22.5t25 27.5l2 1h4h4l6 -1q1 -1 2 -1q2 0 3 2l-1 1q-4 4 -35.5 12.5t-42.5 16.5zM351 757
q-12 -6 -19.5 -26t-26.5 -20t-23 22q-1 4 -1 36q0 5 -2.5 14.5t-2.5 14.5q0 27 17 27q4 -1 5 -3q9 -9 51 -23q36 -12 36 -27q0 -17 -17 -17q-6 0 -17 2zM292 808q-1 -4 -1 -10q0 -3 2.5 -13t2.5 -16q0 -36 -1 -25q1 -18 10 -18t15 15q6 19 14.5 24t12.5 7q3 0 8.5 -1
t12.5 -1l2 2q0 4 -29 13q-18 6 -49 23zM225 758l-6 1h-2q-12 -3 -20 -29q-8 -22 -27 -22q-9 0 -17.5 9t-8.5 16v30q-1 17 -7 28v4v5q1 21 16 21q3 -1 5 -2q8 -8 52 -20q37 -9 37 -25q0 -17 -18 -17q-2 0 -4 1zM153 804q-1 -2 -1 -5v-3q5 -12 7 -62q0 -2 4.5 -6.5t6.5 -4.5
q9 0 16 22.5t25 27.5l2 1h4h4l6 -1q1 -1 2 -1q2 0 3 2l-1 1q-4 4 -35.5 12.5t-42.5 16.5z" />
    <glyph glyph-name="Udieresis" unicode="&#xdc;" horiz-adv-x="510" 
d="M412 292q0 -18 14 -48.5t14 -38.5q0 -28 -38 -31q-53 -6 -62 -11q-26 -18 -34 -18q-26 0 -26 26q0 19 28.5 61.5t28.5 94.5v205q0 21 -12 48t-26 30q-22 4 -22 49q0 18 14.5 29.5t31.5 11.5q5 0 23.5 -9t23.5 -11h1q7 0 24 7.5t26 7.5q29 0 29 -25v-2q-3 -9 -28 -53
q-14 -23 -14 -64q0 -50 2 -129q2 -103 2 -130zM397 292q0 26 -2 130q-2 79 -2 129q0 44 14 68q26 47 28 52q-1 9 -14 9q-6 0 -23 -7.5t-27 -7.5q-7 0 -25 9.5t-23 10.5q-31 0 -31 -26q0 -25 12 -35q21 -5 36 -41q12 -28 12 -51v-205q0 -57 -28.5 -99.5t-28.5 -56.5
q0 -11 11 -11q4 0 18.5 10t18.5 11q14 5 36 6q29 2 37.5 3.5t8.5 14.5q0 4 -14 35.5t-14 51.5zM117 160q-16 8 -36 10q-11 0 -35 3q-7 2 -14.5 11t-7.5 17q0 3 2 5q32 61 32 68q0 6 -3 18t-3 18q0 15 2 46.5t1.5 47.5t1.5 52q1 33 0 51q-1 28 -7 50q-8 33 -10.5 38t-23.5 29
q-14 18 -14 35t13 29t30 12q11 0 31.5 -8.5t29.5 -8.5q12 6 37 17h3q13 0 22 -9.5t9 -22.5q0 -15 -17 -38q-21 -30 -24 -37q-8 -20 -9 -110v-33v-29q0 -24 -1 -29q1 -5 3 -43q3 -46 6 -69q7 -47 23 -64q24 -28 24 -39q0 -12 -8.5 -22t-21.5 -10q-3 0 -6 1t-29 14zM112 397
v-1v25q0 75 0 62q1 93 10 116q3 7 23 35q17 24 17 34q0 16 -15 17q-40 -17 -41 -17q-12 0 -32.5 8.5t-28.5 8.5q-11 0 -19.5 -8t-8.5 -18q0 -13 20.5 -36.5t23.5 -45.5q3 -11 7 -34l2 -138q1 -17 -1 -48.5t-2 -46.5q0 -6 3 -18t3 -18q0 -13 -33 -73q2 -12 16 -14t26 -2
q23 -2 39 -10q27 -14 31 -15q15 0 15 17q0 6 -12 20q-15 16 -17 20q-20 39 -24 153q-1 12 -3 20zM216 -31q-11 1 -33.5 28t-48.5 46t-53 39q-46 32 -46 52q0 30 25 30q33 0 68 -9q48 -12 55 -33q9 -28 12 -32q9 -15 31 -15q9 0 27 9t21 19q4 14 8.5 28.5t31.5 14.5q9 0 28 9
t36 9q42 0 42 -40q0 -25 -66 -68q-79 -53 -94 -73q-11 -15 -34 -15q-7 0 -10 1zM218 -16q2 -1 8 -1q15 0 20.5 7.5t12.5 15.5q54 52 137 97q9 5 9 21q0 25 -27 25q-14 0 -33 -9t-31 -9q-21 0 -23 -19q-3 -25 -20 -35q-29 -17 -45 -17q-30 0 -39.5 19t-17.5 39
q-34 31 -109 31q-10 0 -10 -15q0 -12 79 -68q34 -24 77 -74q3 -4 12 -8zM321 757q-12 -6 -19.5 -26t-26.5 -20t-23 22q-1 4 -1 36q0 5 -2.5 14.5t-2.5 14.5q0 27 17 27q4 -1 5 -3q9 -9 51 -23q36 -12 36 -27q0 -17 -17 -17q-6 0 -17 2zM262 808q-1 -4 -1 -10q0 -3 2.5 -13
t2.5 -16q0 -36 -1 -25q1 -18 10 -18t15 15q6 19 14.5 24t12.5 7q3 0 8.5 -1t12.5 -1l2 2q0 4 -29 13q-18 6 -49 23zM195 758l-6 1h-2q-12 -3 -20 -29q-8 -22 -27 -22q-9 0 -17.5 9t-8.5 16v30q-1 17 -7 28v4v5q1 21 16 21q3 -1 5 -2q8 -8 52 -20q37 -9 37 -25q0 -17 -18 -17
q-2 0 -4 1zM123 804q-1 -2 -1 -5v-3q5 -12 7 -62q0 -2 4.5 -6.5t6.5 -4.5q9 0 16 22.5t25 27.5l2 1h4h4l6 -1q1 -1 2 -1q2 0 3 2l-1 1q-4 4 -35.5 12.5t-42.5 16.5zM321 757q-12 -6 -19.5 -26t-26.5 -20t-23 22q-1 4 -1 36q0 5 -2.5 14.5t-2.5 14.5q0 27 17 27q4 -1 5 -3
q9 -9 51 -23q36 -12 36 -27q0 -17 -17 -17q-6 0 -17 2zM262 808q-1 -4 -1 -10q0 -3 2.5 -13t2.5 -16q0 -36 -1 -25q1 -18 10 -18t15 15q6 19 14.5 24t12.5 7q3 0 8.5 -1t12.5 -1l2 2q0 4 -29 13q-18 6 -49 23zM195 758l-6 1h-2q-12 -3 -20 -29q-8 -22 -27 -22q-9 0 -17.5 9
t-8.5 16v30q-1 17 -7 28v4v5q1 21 16 21q3 -1 5 -2q8 -8 52 -20q37 -9 37 -25q0 -17 -18 -17q-2 0 -4 1zM123 804q-1 -2 -1 -5v-3q5 -12 7 -62q0 -2 4.5 -6.5t6.5 -4.5q9 0 16 22.5t25 27.5l2 1h4h4l6 -1q1 -1 2 -1q2 0 3 2l-1 1q-4 4 -35.5 12.5t-42.5 16.5zM321 757
q-12 -6 -19.5 -26t-26.5 -20t-23 22q-1 4 -1 36q0 5 -2.5 14.5t-2.5 14.5q0 27 17 27q4 -1 5 -3q9 -9 51 -23q36 -12 36 -27q0 -17 -17 -17q-6 0 -17 2zM262 808q-1 -4 -1 -10q0 -3 2.5 -13t2.5 -16q0 -36 -1 -25q1 -18 10 -18t15 15q6 19 14.5 24t12.5 7q3 0 8.5 -1
t12.5 -1l2 2q0 4 -29 13q-18 6 -49 23zM195 758l-6 1h-2q-12 -3 -20 -29q-8 -22 -27 -22q-9 0 -17.5 9t-8.5 16v30q-1 17 -7 28v4v5q1 21 16 21q3 -1 5 -2q8 -8 52 -20q37 -9 37 -25q0 -17 -18 -17q-2 0 -4 1zM123 804q-1 -2 -1 -5v-3q5 -12 7 -62q0 -2 4.5 -6.5t6.5 -4.5
q9 0 16 22.5t25 27.5l2 1h4h4l6 -1q1 -1 2 -1q2 0 3 2l-1 1q-4 4 -35.5 12.5t-42.5 16.5z" />
    <glyph glyph-name="aacute" unicode="&#xe1;" horiz-adv-x="565" 
d="M481 -7q-4 0 -24.5 9t-24.5 9q-7 0 -19.5 -6.5t-18.5 -6.5q-7 0 -14.5 7t-7.5 14q0 3 7 19.5t8 20.5q3 18 3 43q0 49 -48 225q-46 171 -77 242q-14 33 -37 48q-18 8 -35 16t-17 24q0 20 23 20q8 0 27 -9t23 -9q13 0 38.5 13t35.5 13q9 0 19.5 -8.5t10.5 -16.5
q0 1 -7.5 -23.5t-7.5 -42.5q0 -43 35 -178q19 -57 52 -173q17 -47 45 -145q4 -14 24 -42.5t20 -32.5q0 -8 -12.5 -19t-20.5 -11zM350 111q-21 14 -41.5 26.5t-52.5 12.5q-25 0 -53 -11.5t-29 -11.5q-21 0 -21 21q0 13 12.5 22t12.5 18q0 5 -4 13.5t-4 13.5q0 8 7 15t14 7
q6 0 26.5 -16.5t38.5 -16.5q20 0 42.5 13.5t34.5 13.5q20 0 20 -21q0 -5 -2.5 -16t-2.5 -17q0 -10 11 -23.5t11 -22.5q0 -5 -7 -12.5t-13 -7.5zM129 100q0 -18 16.5 -41t16.5 -32q0 -13 -11 -21t-25 -8q-7 0 -27 9t-28 9q-10 0 -30 -8t-30 -8q-5 0 -13.5 5.5t-8.5 9.5
q0 16 5 16q16 0 42 26q32 32 49 90q6 30 20 88q60 201 60 300q0 9 -3 25.5t-3 24.5q0 33 35 33q10 0 18.5 -12.5t7.5 -23.5l27 -22q16 -13 16 -28q0 -12 -21 -44q-23 -38 -27 -48q-13 -36 -48 -170q-38 -147 -38 -170zM329 750q2 2 2 5q0 5 -9.5 13.5t-9.5 13.5
q0 1 9.5 14.5t9.5 23.5t-14 10q-7 0 -28.5 -23.5t-23.5 -30.5q-2 -2 -48 -27q-31 -16 -31 -41q0 -9 14 -9q4 0 8.5 3t8.5 4q5 13 52 30q43 15 60 14z" />
    <glyph glyph-name="agrave" unicode="&#xe0;" horiz-adv-x="565" 
d="M481 -7q-4 0 -24.5 9t-24.5 9q-7 0 -19.5 -6.5t-18.5 -6.5q-7 0 -14.5 7t-7.5 14q0 3 7 19.5t8 20.5q3 18 3 43q0 49 -48 225q-46 171 -77 242q-14 33 -37 48q-18 8 -35 16t-17 24q0 26 31 26q7 0 22.5 -12t19.5 -12q13 0 38.5 13t35.5 13q9 0 19.5 -8.5t10.5 -16.5
q0 1 -7.5 -23.5t-7.5 -42.5q0 -43 35 -178q19 -57 52 -173q17 -47 45 -145q4 -14 24 -42.5t20 -32.5q0 -8 -12.5 -19t-20.5 -11zM350 111q-21 14 -41.5 26.5t-52.5 12.5q-25 0 -53 -11.5t-29 -11.5q-21 0 -21 21q0 13 12.5 22t12.5 18q0 5 -4 13.5t-4 13.5q0 8 7 15t14 7
q6 0 26.5 -16.5t38.5 -16.5q20 0 42.5 13.5t34.5 13.5q20 0 20 -21q0 -5 -2.5 -16t-2.5 -17q0 -10 11 -23.5t11 -22.5q0 -5 -7 -12.5t-13 -7.5zM129 100q0 -18 16.5 -41t16.5 -32q0 -13 -11 -21t-25 -8q-7 0 -27 9t-28 9q-10 0 -30 -8t-30 -8q-5 0 -13.5 5.5t-8.5 9.5
q0 16 5 16q16 0 42 26q32 32 49 90q6 30 20 88q60 201 60 300q0 9 -3 25.5t-3 24.5q0 33 35 33q10 0 18.5 -12.5t7.5 -23.5l27 -22q16 -13 16 -28q0 -12 -21 -44q-23 -38 -27 -48q-13 -36 -48 -170q-38 -147 -38 -170zM168 753q-2 2 -2 5q0 5 9.5 13.5t9.5 13.5
q0 1 -10 14.5t-10 23.5t15 10q7 0 28.5 -24t22.5 -31q3 -2 49 -26q31 -17 31 -42q0 -6 -6 -6q-1 0 -25 5q-5 13 -50.5 29t-61.5 15z" />
    <glyph glyph-name="acircumflex" unicode="&#xe2;" horiz-adv-x="565" 
d="M481 -7q-4 0 -24.5 9t-24.5 9q-7 0 -19.5 -6.5t-18.5 -6.5q-7 0 -14.5 7t-7.5 14q0 3 7 19.5t8 20.5q3 18 3 43q0 49 -48 225q-46 171 -77 242q-14 33 -37 48q-18 8 -35 16t-17 24q0 26 31 26q7 0 22.5 -12t19.5 -12q13 0 38.5 13t35.5 13q9 0 19.5 -8.5t10.5 -16.5
q0 1 -7.5 -23.5t-7.5 -42.5q0 -43 35 -178q19 -57 52 -173q17 -47 45 -145q4 -14 24 -42.5t20 -32.5q0 -8 -12.5 -19t-20.5 -11zM350 111q-21 14 -41.5 26.5t-52.5 12.5q-25 0 -53 -11.5t-29 -11.5q-21 0 -21 21q0 13 12.5 22t12.5 18q0 5 -4 13.5t-4 13.5q0 8 7 15t14 7
q6 0 26.5 -16.5t38.5 -16.5q20 0 42.5 13.5t34.5 13.5q20 0 20 -21q0 -5 -2.5 -16t-2.5 -17q0 -10 11 -23.5t11 -22.5q0 -5 -7 -12.5t-13 -7.5zM129 100q0 -18 16.5 -41t16.5 -32q0 -13 -11 -21t-25 -8q-7 0 -27 9t-28 9q-10 0 -30 -8t-30 -8q-5 0 -13.5 5.5t-8.5 9.5
q0 16 5 16q16 0 42 26q32 32 49 90q6 30 20 88q60 201 60 300q0 9 -3 25.5t-3 24.5q0 33 35 33q10 0 18.5 -12.5t7.5 -23.5l27 -22q16 -13 16 -28q0 -12 -21 -44q-23 -38 -27 -48q-13 -36 -48 -170q-38 -147 -38 -170zM191 770h-3q-13 1 -38 -12q-28 -14 -28 -26
q0 -10 19 -10q5 0 14 3.5t13 3.5q5 0 6.5 -8.5t5.5 -8.5l4 1q2 5 35.5 34.5t39.5 29.5q11 0 39 -26.5t32 -37.5l4 -1q5 0 10 8.5t10 8.5q4 0 13 -3.5t14 -3.5q19 0 19 10l-1 8q-5 7 -33 19t-35 11q-10 5 -32 29q-16 17 -40 17q-19 0 -36 -18q-23 -24 -32 -28z" />
    <glyph glyph-name="adieresis" unicode="&#xe4;" horiz-adv-x="565" 
d="M481 -7q-4 0 -24.5 9t-24.5 9q-7 0 -19.5 -6.5t-18.5 -6.5q-7 0 -14.5 7t-7.5 14q0 3 7 19.5t8 20.5q3 18 3 43q0 49 -48 225q-46 171 -77 242q-14 33 -37 48q-18 8 -35 16t-17 24q0 26 31 26q7 0 22.5 -12t19.5 -12q13 0 38.5 13t35.5 13q9 0 19.5 -8.5t10.5 -16.5
q0 1 -7.5 -23.5t-7.5 -42.5q0 -43 35 -178q19 -57 52 -173q17 -47 45 -145q4 -14 24 -42.5t20 -32.5q0 -8 -12.5 -19t-20.5 -11zM350 111q-21 14 -41.5 26.5t-52.5 12.5q-25 0 -53 -11.5t-29 -11.5q-21 0 -21 21q0 13 12.5 22t12.5 18q0 5 -4 13.5t-4 13.5q0 8 7 15t14 7
q6 0 26.5 -16.5t38.5 -16.5q20 0 42.5 13.5t34.5 13.5q20 0 20 -21q0 -5 -2.5 -16t-2.5 -17q0 -10 11 -23.5t11 -22.5q0 -5 -7 -12.5t-13 -7.5zM129 100q0 -18 16.5 -41t16.5 -32q0 -13 -11 -21t-25 -8q-7 0 -27 9t-28 9q-10 0 -30 -8t-30 -8q-5 0 -13.5 5.5t-8.5 9.5
q0 16 5 16q16 0 42 26q32 32 49 90q6 30 20 88q60 201 60 300q0 9 -3 25.5t-3 24.5q0 33 35 33q10 0 18.5 -12.5t7.5 -23.5l27 -22q16 -13 16 -28q0 -12 -21 -44q-23 -38 -27 -48q-13 -36 -48 -170q-38 -147 -38 -170zM368 762q-5 0 -18 3q-7 -4 -12 -7t-12 -21.5t-21 -18.5
t-17 21q0 -2 0 30q0 6 -2.5 16.5t-2.5 12.5q0 20 10 20q10 -13 50 -25q34 -11 34 -21t-9 -10zM229 765q-2 0 -6 1t-6 1q-2 -1 -4 -1q-14 -4 -21.5 -27.5t-21.5 -23.5q-6 0 -12.5 7t-6.5 12v31q-1 17 -7 29q2 20 9 20q10 -11 51 -21q36 -9 36 -19q0 -9 -11 -9zM368 762
q-5 0 -18 3q-7 -4 -12 -7t-12 -21.5t-21 -18.5t-17 21q0 -2 0 30q0 6 -2.5 16.5t-2.5 12.5q0 20 10 20q10 -13 50 -25q34 -11 34 -21t-9 -10zM229 765q-2 0 -6 1t-6 1q-2 -1 -4 -1q-14 -4 -21.5 -27.5t-21.5 -23.5q-6 0 -12.5 7t-6.5 12v31q-1 17 -7 29q2 20 9 20
q10 -11 51 -21q36 -9 36 -19q0 -9 -11 -9zM368 762q-5 0 -18 3q-7 -4 -12 -7t-12 -21.5t-21 -18.5t-17 21q0 -2 0 30q0 6 -2.5 16.5t-2.5 12.5q0 20 10 20q10 -13 50 -25q34 -11 34 -21t-9 -10zM229 765q-2 0 -6 1t-6 1q-2 -1 -4 -1q-14 -4 -21.5 -27.5t-21.5 -23.5
q-6 0 -12.5 7t-6.5 12v31q-1 17 -7 29q2 20 9 20q10 -11 51 -21q36 -9 36 -19q0 -9 -11 -9z" />
    <glyph glyph-name="atilde" unicode="&#xe3;" horiz-adv-x="565" 
d="M481 -7q-4 0 -24.5 9t-24.5 9q-7 0 -19.5 -6.5t-18.5 -6.5q-7 0 -14.5 7t-7.5 14q0 3 7 19.5t8 20.5q3 18 3 43q0 49 -48 225q-46 171 -77 242q-14 33 -37 48q-18 8 -35 16t-17 24q0 26 31 26q7 0 22.5 -12t19.5 -12q13 0 38.5 13t35.5 13q9 0 19.5 -8.5t10.5 -16.5
q0 1 -7.5 -23.5t-7.5 -42.5q0 -43 35 -178q19 -57 52 -173q17 -47 45 -145q4 -14 24 -42.5t20 -32.5q0 -8 -12.5 -19t-20.5 -11zM350 111q-21 14 -41.5 26.5t-52.5 12.5q-25 0 -53 -11.5t-29 -11.5q-21 0 -21 21q0 13 12.5 22t12.5 18q0 5 -4 13.5t-4 13.5q0 8 7 15t14 7
q6 0 26.5 -16.5t38.5 -16.5q20 0 42.5 13.5t34.5 13.5q20 0 20 -21q0 -5 -2.5 -16t-2.5 -17q0 -10 11 -23.5t11 -22.5q0 -5 -7 -12.5t-13 -7.5zM129 100q0 -18 16.5 -41t16.5 -32q0 -13 -11 -21t-25 -8q-7 0 -27 9t-28 9q-10 0 -30 -8t-30 -8q-5 0 -13.5 5.5t-8.5 9.5
q0 16 5 16q16 0 42 26q32 32 49 90q6 30 20 88q60 201 60 300q0 9 -3 25.5t-3 24.5q0 33 35 33q10 0 18.5 -12.5t7.5 -23.5l27 -22q16 -13 16 -28q0 -12 -21 -44q-23 -38 -27 -48q-13 -36 -48 -170q-38 -147 -38 -170zM223 799q-15 0 -38.5 -20.5t-41 -23t-17.5 -24.5
q0 -10 18 -11l-2 2q3 4 10 4q4 0 5.5 -9t6.5 -9l3 1q3 9 25 30t31 21q15 0 34.5 -24.5t47.5 -24.5q17 0 29 13q16 17 22 19h4q15 -1 28.5 9t13.5 25q0 10 -19 10l2 -2q-3 -3 -9 -3q-5 0 -6 8.5t-7 8.5l-3 -1q-2 -7 -24.5 -28t-30.5 -21q-16 0 -35.5 25t-46.5 25z" />
    <glyph glyph-name="aring" unicode="&#xe5;" horiz-adv-x="565" 
d="M481 -7q-4 0 -24.5 9t-24.5 9q-7 0 -19.5 -6.5t-18.5 -6.5q-7 0 -14.5 7t-7.5 14q0 3 7 19.5t8 20.5q3 18 3 43q0 49 -48 225q-46 171 -77 242q-14 33 -37 48q-18 8 -35 16t-17 24q0 26 31 26q7 0 22.5 -12t19.5 -12q13 0 38.5 13t35.5 13q9 0 19.5 -8.5t10.5 -16.5
q0 1 -7.5 -23.5t-7.5 -42.5q0 -43 35 -178q19 -57 52 -173q17 -47 45 -145q4 -14 24 -42.5t20 -32.5q0 -8 -12.5 -19t-20.5 -11zM350 111q-21 14 -41.5 26.5t-52.5 12.5q-25 0 -53 -11.5t-29 -11.5q-21 0 -21 21q0 13 12.5 22t12.5 18q0 5 -4 13.5t-4 13.5q0 8 7 15t14 7
q6 0 26.5 -16.5t38.5 -16.5q20 0 42.5 13.5t34.5 13.5q20 0 20 -21q0 -5 -2.5 -16t-2.5 -17q0 -10 11 -23.5t11 -22.5q0 -5 -7 -12.5t-13 -7.5zM129 100q0 -18 16.5 -41t16.5 -32q0 -13 -11 -21t-25 -8q-7 0 -27 9t-28 9q-10 0 -30 -8t-30 -8q-5 0 -13.5 5.5t-8.5 9.5
q0 16 5 16q16 0 42 26q32 32 49 90q6 30 20 88q60 201 60 300q0 9 -3 25.5t-3 24.5q0 33 35 33q10 0 18.5 -12.5t7.5 -23.5l27 -22q16 -13 16 -28q0 -12 -21 -44q-23 -38 -27 -48q-13 -36 -48 -170q-38 -147 -38 -170zM253 836q28 0 49.5 -18t21.5 -45t-21.5 -44.5
t-49.5 -17.5q-29 0 -50 17.5t-21 44.5t21 45t50 18zM253 807q-19 0 -30.5 -10.5t-11.5 -23.5t11.5 -23t30.5 -10q18 0 30 10t12 23t-12 23.5t-30 10.5z" />
    <glyph glyph-name="ccedilla" unicode="&#xe7;" horiz-adv-x="501" 
d="M428 611q-1 -8 -14 -30.5t-13 -40.5q0 -8 8 -23.5t8 -23.5q0 -10 -9 -21.5t-18 -11.5q-18 0 -30 36q-17 50 -28 66q-26 35 -77 35q-39 0 -73.5 -29.5t-40.5 -68.5q-1 -4 -1 -48q0 -17 -12 -17q-4 0 -11 3q-6 13 -22 36q-3 3 -42 22q-29 14 -29 32q0 23 40 36q29 9 58 17
q40 18 74 75q30 48 48 47h4q5 -4 7 -8q18 -28 51 -47t66 -19q6 0 16 5.5t16 5.5q13 0 24 -28zM132 218q0 -5 -7.5 -11t-13.5 -6q-8 0 -23.5 7t-23.5 7t-21.5 -4t-21.5 -4q-3 0 -9 1t-9 2q-2 5 -2 7q0 21 13 59.5t13 59.5q0 23 -13 58.5t-13 50.5q0 33 23 33q11 0 22 -13
q6 -10 18 -29q14 -13 41 -38q9 -9 9 -19q0 3 -20 -25t-20 -61q0 -20 29 -38t29 -37zM284 -162q-2 -13 -23 -15q-27 -1 -30.5 -3t-25.5 -19q-7 -6 -15 -9q-15 7 -14 20q1 1 -7 21q-5 13 2 21q5 3 11 3q7 0 35 -18q11 -3 22 9q3 3 7 10q10 18 10 23q0 6 -6 19q-13 17 -50 17
q-18 0 -18 12q0 2 3 5q10 12 9 24v12h-1q-9 7 -19 28q-11 25 -16 32q-52 70 -97 89q-14 4 -28 9q-17 7 -17 22q0 18 27 28q20 7 42 7q52 0 52 -26q0 -4 -2 -13t-2 -13q0 -24 49 -48q44 -21 72 -21q54 0 84 39q13 16 36 74q15 40 35 40q9 0 15 -9.5t6 -18.5q0 -14 -9.5 -39
t-9.5 -39q0 -8 4 -23.5t4 -23.5q0 -30 -52 -33q-45 -3 -144 -56q1 -11 6 -27q1 -5 10 -8q13 -5 15 -6q9 -7 29 -20q4 -4 4 -8t-3 -8q-2 0 -9 -7q-2 -4 -2 -7q0 -6 6 -23t5 -23z" />
    <glyph glyph-name="eacute" unicode="&#xe9;" horiz-adv-x="454" 
d="M343 560q-8 0 -30 19t-51 19q-9 0 -12 -7q-8 5 -28 5q-15 0 -49.5 -18t-37.5 -18q-22 0 -22 20q0 8 12 19q9 7 19 16.5t20 50.5l25 12l60 -31l91 39q21 -13 21 -26q0 -6 -5 -19.5t-5 -20.5q0 -4 8 -19.5t8 -19.5q0 -21 -24 -21zM129 289q-9 0 -16.5 7t-7.5 16
q0 3 6.5 14.5t6.5 15.5q0 7 -6.5 20.5t-6.5 19.5q0 28 22 28q11 0 29.5 -15.5t45.5 -15.5q49 0 105 49q20 -20 20 -24q0 -6 -6.5 -19.5t-6.5 -20.5q0 -12 9.5 -33.5t9.5 -32.5l-1 -4q-11 -12 -18 -12q-11 0 -29 12q-21 16 -28 19q-3 1 -28 5q-2 1 -7 3t-8 2q-21 0 -50 -17
t-35 -17zM87 447q0 -49 6 -135q1 -37 7 -113q2 -14 17.5 -39.5t15.5 -35.5t-7.5 -19.5t-16.5 -9.5q-12 0 -29 19q-22 24 -25.5 26t-34.5 5q-11 11 -11 17q0 11 13 44.5t13 52.5q0 10 -1 29.5t-1 29.5v205q0 32 -1.5 50t-18.5 43.5t-17 32.5q0 23 24 23q3 0 17 -6.5t19 -6.5
q10 0 31 9t31 9q17 0 20 -21q-41 -50 -46 -95q-5 -63 -5 -114zM347 -3l-92 30l-135 -2q-14 0 -46 -19t-49 -19q-11 0 -20 13.5t-9 24.5q0 3 10.5 20.5t10.5 21.5t-7.5 18t-7.5 18q0 9 7.5 17.5t16.5 8.5q7 0 21 -13q17 -17 19 -18q28 -19 134 -19q44 0 88.5 30t51.5 30
q15 0 23 -10q0 -9 -5 -26.5t-5 -25.5t8 -25.5t8 -26.5q0 -17 -22 -28zM259 750q2 2 2 5q0 5 -9.5 13.5t-9.5 13.5q0 1 9.5 14.5t9.5 23.5t-14 10q-7 0 -28.5 -23.5t-23.5 -30.5q-2 -2 -48 -27q-31 -16 -31 -41q0 -9 14 -9q4 0 8.5 3t8.5 4q5 13 52 30q43 15 60 14z" />
    <glyph glyph-name="egrave" unicode="&#xe8;" horiz-adv-x="454" 
d="M343 560q-8 0 -30 19t-51 19q-9 0 -12 -7q-8 5 -28 5q-15 0 -49.5 -18t-37.5 -18q-22 0 -22 20q0 8 12 19q9 7 19 16.5t20 50.5l25 12l60 -31l91 39q21 -13 21 -26q0 -6 -5 -19.5t-5 -20.5q0 -4 8 -19.5t8 -19.5q0 -21 -24 -21zM129 289q-9 0 -16.5 7t-7.5 16
q0 3 6.5 14.5t6.5 15.5q0 7 -6.5 20.5t-6.5 19.5q0 28 22 28q11 0 29.5 -15.5t45.5 -15.5q49 0 105 49q20 -20 20 -24q0 -6 -6.5 -19.5t-6.5 -20.5q0 -12 9.5 -33.5t9.5 -32.5l-1 -4q-11 -12 -18 -12q-11 0 -29 12q-21 16 -28 19q-3 1 -28 5q-2 1 -7 3t-8 2q-21 0 -50 -17
t-35 -17zM87 447q0 -49 6 -135q1 -37 7 -113q2 -14 17.5 -39.5t15.5 -35.5t-7.5 -19.5t-16.5 -9.5q-12 0 -29 19q-22 24 -25.5 26t-34.5 5q-11 11 -11 17q0 11 13 44.5t13 52.5q0 10 -1 29.5t-1 29.5v205q0 32 -1.5 50t-18.5 43.5t-17 32.5q0 23 24 23q3 0 17 -6.5t19 -6.5
q10 0 31 9t31 9q17 0 20 -21q-41 -50 -46 -95q-5 -63 -5 -114zM347 -3l-92 30l-135 -2q-14 0 -46 -19t-49 -19q-11 0 -20 13.5t-9 24.5q0 3 10.5 20.5t10.5 21.5t-7.5 18t-7.5 18q0 9 7.5 17.5t16.5 8.5q7 0 21 -13q17 -17 19 -18q28 -19 134 -19q44 0 88.5 30t51.5 30
q15 0 23 -10q0 -9 -5 -26.5t-5 -25.5t8 -25.5t8 -26.5q0 -17 -22 -28zM118 753q-2 2 -2 5q0 5 9.5 13.5t9.5 13.5q0 1 -10 14.5t-10 23.5t15 10q7 0 28.5 -24t22.5 -31q3 -2 49 -26q31 -17 31 -42q0 -6 -6 -6q-1 0 -25 5q-5 13 -50.5 29t-61.5 15z" />
    <glyph glyph-name="ecircumflex" unicode="&#xea;" horiz-adv-x="454" 
d="M343 560q-8 0 -30 19t-51 19q-9 0 -12 -7q-8 5 -28 5q-15 0 -49.5 -18t-37.5 -18q-22 0 -22 20q0 8 12 19q9 7 19 16.5t20 50.5l25 12l60 -31l91 39q21 -13 21 -26q0 -6 -5 -19.5t-5 -20.5q0 -4 8 -19.5t8 -19.5q0 -21 -24 -21zM129 289q-9 0 -16.5 7t-7.5 16
q0 3 6.5 14.5t6.5 15.5q0 7 -6.5 20.5t-6.5 19.5q0 28 22 28q11 0 29.5 -15.5t45.5 -15.5q49 0 105 49q20 -20 20 -24q0 -6 -6.5 -19.5t-6.5 -20.5q0 -12 9.5 -33.5t9.5 -32.5l-1 -4q-11 -12 -18 -12q-11 0 -29 12q-21 16 -28 19q-3 1 -28 5q-2 1 -7 3t-8 2q-21 0 -50 -17
t-35 -17zM87 447q0 -49 6 -135q1 -37 7 -113q2 -14 17.5 -39.5t15.5 -35.5t-7.5 -19.5t-16.5 -9.5q-12 0 -29 19q-22 24 -25.5 26t-34.5 5q-11 11 -11 17q0 11 13 44.5t13 52.5q0 10 -1 29.5t-1 29.5v205q0 32 -1.5 50t-18.5 43.5t-17 32.5q0 23 24 23q3 0 17 -6.5t19 -6.5
q10 0 31 9t31 9q17 0 20 -21q-41 -50 -46 -95q-5 -63 -5 -114zM347 -3l-92 30l-135 -2q-14 0 -46 -19t-49 -19q-11 0 -20 13.5t-9 24.5q0 3 10.5 20.5t10.5 21.5t-7.5 18t-7.5 18q0 9 7.5 17.5t16.5 8.5q7 0 21 -13q17 -17 19 -18q28 -19 134 -19q44 0 88.5 30t51.5 30
q15 0 23 -10q0 -9 -5 -26.5t-5 -25.5t8 -25.5t8 -26.5q0 -17 -22 -28zM121 780h-3q-13 1 -38 -12q-28 -14 -28 -26q0 -10 19 -10q5 0 14 3.5t13 3.5q5 0 6.5 -8.5t5.5 -8.5l4 1q2 5 35.5 34.5t39.5 29.5q11 0 39 -26.5t32 -37.5l4 -1q5 0 10 8.5t10 8.5q4 0 13 -3.5t14 -3.5
q19 0 19 10l-1 8q-5 7 -33 19t-35 11q-10 5 -32 29q-16 17 -40 17q-19 0 -36 -18q-23 -24 -32 -28z" />
    <glyph glyph-name="edieresis" unicode="&#xeb;" horiz-adv-x="454" 
d="M343 560q-8 0 -30 19t-51 19q-9 0 -12 -7q-8 5 -28 5q-15 0 -49.5 -18t-37.5 -18q-22 0 -22 20q0 8 12 19q9 7 19 16.5t20 50.5l25 12l60 -31l91 39q21 -13 21 -26q0 -6 -5 -19.5t-5 -20.5q0 -4 8 -19.5t8 -19.5q0 -21 -24 -21zM129 289q-9 0 -16.5 7t-7.5 16
q0 3 6.5 14.5t6.5 15.5q0 7 -6.5 20.5t-6.5 19.5q0 28 22 28q11 0 29.5 -15.5t45.5 -15.5q49 0 105 49q20 -20 20 -24q0 -6 -6.5 -19.5t-6.5 -20.5q0 -12 9.5 -33.5t9.5 -32.5l-1 -4q-11 -12 -18 -12q-11 0 -29 12q-21 16 -28 19q-3 1 -28 5q-2 1 -7 3t-8 2q-21 0 -50 -17
t-35 -17zM87 447q0 -49 6 -135q1 -37 7 -113q2 -14 17.5 -39.5t15.5 -35.5t-7.5 -19.5t-16.5 -9.5q-12 0 -29 19q-22 24 -25.5 26t-34.5 5q-11 11 -11 17q0 11 13 44.5t13 52.5q0 10 -1 29.5t-1 29.5v205q0 32 -1.5 50t-18.5 43.5t-17 32.5q0 23 24 23q3 0 17 -6.5t19 -6.5
q10 0 31 9t31 9q17 0 20 -21q-41 -50 -46 -95q-5 -63 -5 -114zM347 -3l-92 30l-135 -2q-14 0 -46 -19t-49 -19q-11 0 -20 13.5t-9 24.5q0 3 10.5 20.5t10.5 21.5t-7.5 18t-7.5 18q0 9 7.5 17.5t16.5 8.5q7 0 21 -13q17 -17 19 -18q28 -19 134 -19q44 0 88.5 30t51.5 30
q15 0 23 -10q0 -9 -5 -26.5t-5 -25.5t8 -25.5t8 -26.5q0 -17 -22 -28zM298 762q-5 0 -18 3q-7 -4 -12 -7t-12 -21.5t-21 -18.5t-17 21q0 -2 0 30q0 6 -2.5 16.5t-2.5 12.5q0 20 10 20q10 -13 50 -25q34 -11 34 -21t-9 -10zM159 765q-2 0 -6 1t-6 1q-2 -1 -4 -1
q-14 -4 -21.5 -27.5t-21.5 -23.5q-6 0 -12.5 7t-6.5 12v31q-1 17 -7 29q2 20 9 20q10 -11 51 -21q36 -9 36 -19q0 -9 -11 -9zM298 762q-5 0 -18 3q-7 -4 -12 -7t-12 -21.5t-21 -18.5t-17 21q0 -2 0 30q0 6 -2.5 16.5t-2.5 12.5q0 20 10 20q10 -13 50 -25q34 -11 34 -21
t-9 -10zM159 765q-2 0 -6 1t-6 1q-2 -1 -4 -1q-14 -4 -21.5 -27.5t-21.5 -23.5q-6 0 -12.5 7t-6.5 12v31q-1 17 -7 29q2 20 9 20q10 -11 51 -21q36 -9 36 -19q0 -9 -11 -9zM298 762q-5 0 -18 3q-7 -4 -12 -7t-12 -21.5t-21 -18.5t-17 21q0 -2 0 30q0 6 -2.5 16.5t-2.5 12.5
q0 20 10 20q10 -13 50 -25q34 -11 34 -21t-9 -10zM159 765q-2 0 -6 1t-6 1q-2 -1 -4 -1q-14 -4 -21.5 -27.5t-21.5 -23.5q-6 0 -12.5 7t-6.5 12v31q-1 17 -7 29q2 20 9 20q10 -11 51 -21q36 -9 36 -19q0 -9 -11 -9z" />
    <glyph glyph-name="iacute" unicode="&#xed;" horiz-adv-x="234" 
d="M71 10q-14 -8 -39 -17q-15 -1 -31 26q28 48 36 83q17 73 17 283q0 170 -20 208q-2 5 -20 27q-13 15 -13 30q0 38 24 39q12 1 37.5 -8t38.5 -9q20 0 34 14q22 -2 22 -16q0 -10 -10 -31q-29 -58 -29 -89v-424q0 -36 34 -79q7 -9 7 -14q0 -46 -32 -46q-22 0 -56 23zM159 760
q2 2 2 5q0 5 -9.5 13.5t-9.5 13.5q0 1 9.5 14.5t9.5 23.5t-14 10q-7 0 -28.5 -23.5t-23.5 -30.5q-2 -2 -48 -27q-31 -16 -31 -41q0 -9 14 -9q4 0 8.5 3t8.5 4q5 13 52 30q43 15 60 14z" />
    <glyph glyph-name="igrave" unicode="&#xec;" horiz-adv-x="234" 
d="M71 10q-14 -8 -39 -17q-15 -1 -31 26q28 48 36 83q17 73 17 283q0 170 -20 208q-2 5 -20 27q-13 15 -13 30q0 38 24 39q12 1 37.5 -8t38.5 -9q20 0 34 14q22 -2 22 -16q0 -10 -10 -31q-29 -58 -29 -89v-424q0 -36 34 -79q7 -9 7 -14q0 -46 -32 -46q-22 0 -56 23zM8 753
q-2 2 -2 5q0 5 9.5 13.5t9.5 13.5q0 1 -10 14.5t-10 23.5t15 10q7 0 28.5 -24t22.5 -31q3 -2 49 -26q31 -17 31 -42q0 -6 -6 -6q-1 0 -25 5q-5 13 -50.5 29t-61.5 15z" />
    <glyph glyph-name="icircumflex" unicode="&#xee;" horiz-adv-x="234" 
d="M71 10q-14 -8 -39 -17q-15 -1 -31 26q28 48 36 83q17 73 17 283q0 170 -20 208q-2 5 -20 27q-13 15 -13 30q0 38 24 39q12 1 37.5 -8t38.5 -9q20 0 34 14q22 -2 22 -16q0 -10 -10 -31q-29 -58 -29 -89v-424q0 -36 34 -79q7 -9 7 -14q0 -46 -32 -46q-22 0 -56 23zM11 770
h-3q-13 1 -38 -12q-28 -14 -28 -26q0 -10 19 -10q5 0 14 3.5t13 3.5q5 0 6.5 -8.5t5.5 -8.5l4 1q2 5 35.5 34.5t39.5 29.5q11 0 39 -26.5t32 -37.5l4 -1q5 0 10 8.5t10 8.5q4 0 13 -3.5t14 -3.5q19 0 19 10l-1 8q-5 7 -33 19t-35 11q-10 5 -32 29q-16 17 -40 17
q-19 0 -36 -18q-23 -24 -32 -28z" />
    <glyph glyph-name="idieresis" unicode="&#xef;" horiz-adv-x="234" 
d="M71 10q-14 -8 -39 -17q-15 -1 -31 26q28 48 36 83q17 73 17 283q0 170 -20 208q-2 5 -20 27q-13 15 -13 30q0 38 24 39q12 1 37.5 -8t38.5 -9q20 0 34 14q22 -2 22 -16q0 -10 -10 -31q-29 -58 -29 -89v-424q0 -36 34 -79q7 -9 7 -14q0 -46 -32 -46q-22 0 -56 23zM198 762
q-5 0 -18 3q-7 -4 -12 -7t-12 -21.5t-21 -18.5t-17 21q0 -2 0 30q0 6 -2.5 16.5t-2.5 12.5q0 20 10 20q10 -13 50 -25q34 -11 34 -21t-9 -10zM59 765q-2 0 -6 1t-6 1q-2 -1 -4 -1q-14 -4 -21.5 -27.5t-21.5 -23.5q-6 0 -12.5 7t-6.5 12v31q-1 17 -7 29q2 20 9 20
q10 -11 51 -21q36 -9 36 -19q0 -9 -11 -9zM198 762q-5 0 -18 3q-7 -4 -12 -7t-12 -21.5t-21 -18.5t-17 21q0 -2 0 30q0 6 -2.5 16.5t-2.5 12.5q0 20 10 20q10 -13 50 -25q34 -11 34 -21t-9 -10zM59 765q-2 0 -6 1t-6 1q-2 -1 -4 -1q-14 -4 -21.5 -27.5t-21.5 -23.5
q-6 0 -12.5 7t-6.5 12v31q-1 17 -7 29q2 20 9 20q10 -11 51 -21q36 -9 36 -19q0 -9 -11 -9zM198 762q-5 0 -18 3q-7 -4 -12 -7t-12 -21.5t-21 -18.5t-17 21q0 -2 0 30q0 6 -2.5 16.5t-2.5 12.5q0 20 10 20q10 -13 50 -25q34 -11 34 -21t-9 -10zM59 765q-2 0 -6 1t-6 1
q-2 -1 -4 -1q-14 -4 -21.5 -27.5t-21.5 -23.5q-6 0 -12.5 7t-6.5 12v31q-1 17 -7 29q2 20 9 20q10 -11 51 -21q36 -9 36 -19q0 -9 -11 -9z" />
    <glyph glyph-name="ntilde" unicode="&#xf1;" horiz-adv-x="545" 
d="M427 226q0 -43 5 -63q1 -4 6.5 -19.5t5.5 -19.5q0 -28 -19 -28q-24 0 -38 42q-10 28 -13 61q-9 6 -17 12t-8 23q0 11 10.5 35.5t10.5 46.5q0 3 1 8t1 7l2 202q-2 16 -8 47q-4 18 -23.5 38.5t-19.5 33.5q0 28 25 28q6 0 52 -20l48 20q32 -17 32 -32q0 -18 -15 -36
q-24 -29 -26 -32q-12 -21 -13 -174q1 143 1 -180zM430 -5q-66 3 -93 2l-24 34q7 24 7 44q0 42 -25 97l-44 92l-73 160q-32 71 -47 96q-29 48 -70 80q-15 8 -30.5 16.5t-15.5 29.5q0 29 25 29q5 0 30 -10t30 -10q-5 0 43 20q18 0 18 -19q0 -8 -3 -24t-3 -24q0 -20 59 -134
q18 -36 42 -91q15 -25 42 -78q45 -101 64 -155q6 -18 23 -52q4 -6 41 -38q31 -27 31 -37q0 -17 -27 -28zM157 -5q-4 0 -26.5 10.5t-26.5 10.5q-11 0 -28.5 -12t-26.5 -12q-11 0 -20 12.5t-9 25.5q0 11 13 31q17 26 19 32q20 49 20 109q0 17 -2.5 51.5t-2.5 51.5q0 12 1 36.5
t1 36.5q0 85 -17 134q-1 5 -12 24q-7 13 -7 24q0 25 19 25q9 0 16 -16q4 -12 9.5 -22.5t36.5 -32.5q24 -18 24 -39q0 -11 -7.5 -34t-7.5 -34v-180q0 -14 2 -18q1 -18 4 -54q1 -8 0 -22q-1 -16 -1 -21q0 -29 22 -61.5t22 -39.5q0 -16 -15 -16zM193 799q-15 0 -38.5 -20.5
t-41 -23t-17.5 -24.5q0 -10 18 -11l-2 2q3 4 10 4q4 0 5.5 -9t6.5 -9l3 1q3 9 25 30t31 21q15 0 34.5 -24.5t47.5 -24.5q17 0 29 13q16 17 22 19h4q15 -1 28.5 9t13.5 25q0 10 -19 10l2 -2q-3 -3 -9 -3q-5 0 -6 8.5t-7 8.5l-3 -1q-2 -7 -24.5 -28t-30.5 -21q-16 0 -35.5 25
t-46.5 25z" />
    <glyph glyph-name="oacute" unicode="&#xf3;" horiz-adv-x="578" 
d="M370 498q-25 0 -33 25q-11 38 -13 41q-37 50 -89 50q-33 0 -43 -28q-2 -7 -6 -52q-2 -28 -18 -28q-12 0 -27.5 41t-46.5 41q-6 0 -11.5 6t-5.5 11q0 19 32 26q38 9 39 10q15 15 31.5 29.5t37.5 14.5q29 0 47 -15q12 -8 34 -23q60 -40 156 -55q10 -2 10 -15q0 -15 -22 -26
q-16 -9 -33 -17q-10 -7 -23 -25q-8 -11 -16 -11zM451 307q0 -27 11 -60q10 -28 21 -57q0 -7 -9.5 -16.5t-17.5 -9.5t-22 22.5t-25 26.5q-16 2 -31 5q-19 3 -19 19q0 11 25 39t25 63t-15.5 64t-31.5 57q0 21 24 28q38 10 40 11.5t22 22.5q15 15 24 15t17.5 -9.5t8.5 -18.5
q0 -30 -23.5 -96.5t-23.5 -105.5zM90 388q1 -2 20 -32q14 -21 14 -32q0 -18 -18 -18q-6 0 -20 5.5t-21 5.5q-8 0 -24.5 -5.5t-25.5 -5.5q-19 0 -19 21q0 10 30 49.5t30 80.5q0 12 -7.5 35.5t-7.5 34.5q0 14 7.5 28t19.5 14t21 -5.5t33 -42t24 -44.5q0 -12 -15 -21
q-21 -14 -26 -20q-15 -17 -15 -48zM269 -23q-10 0 -61 47.5t-86 47.5q-2 0 -6.5 -1.5t-6.5 -1.5q-33 0 -38 37v63q-1 23 -37 54t-36 42q0 14 19 23q15 7 30 7q28 0 72 -17q19 -6 19 -31q0 -9 -7 -26t-7 -26q0 -37 12 -55q17 -28 54 -47t72 -19q50 0 62 36q4 13 4 77
q0 2 15 24q14 -1 34 -6q8 -6 20 -24t20 -25q8 -3 23 -16q6 -11 6 -24q0 -14 -28 -24q-20 -7 -41 -13q-30 -15 -49 -39q-13 -19 -25 -38q-18 -25 -34 -25zM309 760q2 2 2 5q0 5 -9.5 13.5t-9.5 13.5q0 1 9.5 14.5t9.5 23.5t-14 10q-7 0 -28.5 -23.5t-23.5 -30.5
q-2 -2 -48 -27q-31 -16 -31 -41q0 -9 14 -9q4 0 8.5 3t8.5 4q5 13 52 30q43 15 60 14z" />
    <glyph glyph-name="ograve" unicode="&#xf2;" horiz-adv-x="578" 
d="M370 498q-25 0 -33 25q-11 38 -13 41q-37 50 -89 50q-33 0 -43 -28q-2 -7 -6 -52q-2 -28 -18 -28q-12 0 -27.5 41t-46.5 41q-6 0 -11.5 6t-5.5 11q0 19 32 26q38 9 39 10q5 4 27 41q16 27 35 27q12 0 29 -15q13 -12 25 -24q12 -8 34 -23q60 -40 156 -55q10 -2 10 -15
q0 -15 -22 -26q-16 -9 -33 -17q-10 -7 -23 -25q-8 -11 -16 -11zM451 307q0 -27 11 -60q10 -28 21 -57q0 -7 -9.5 -16.5t-17.5 -9.5t-22 22.5t-25 26.5q-16 2 -31 5q-19 3 -19 19q0 11 25 39t25 63t-15.5 64t-31.5 57q0 21 24 28q38 10 40 11.5t22 22.5q15 15 24 15
t17.5 -9.5t8.5 -18.5q0 -30 -23.5 -96.5t-23.5 -105.5zM90 388q1 -2 20 -32q14 -21 14 -32q0 -18 -18 -18q-6 0 -20 5.5t-21 5.5q-8 0 -24.5 -5.5t-25.5 -5.5q-19 0 -19 21q0 10 30 49.5t30 80.5q0 12 -7.5 35.5t-7.5 34.5q0 14 7.5 28t19.5 14t21 -5.5t33 -42t24 -44.5
q0 -12 -15 -21q-21 -14 -26 -20q-15 -17 -15 -48zM269 -23q-10 0 -61 47.5t-86 47.5q-2 0 -6.5 -1.5t-6.5 -1.5q-33 0 -38 37v63q-1 23 -37 54t-36 42q0 14 19 23q15 7 30 7q28 0 72 -17q19 -6 19 -31q0 -9 -7 -26t-7 -26q0 -37 12 -55q17 -28 54 -47t72 -19q50 0 62 36
q4 13 4 77q0 2 15 24q14 -1 34 -6q8 -6 20 -24t20 -25q8 -3 23 -16q6 -11 6 -24q0 -14 -28 -24q-20 -7 -41 -13q-30 -15 -49 -39q-13 -19 -25 -38q-18 -25 -34 -25zM178 753q-2 2 -2 5q0 5 9.5 13.5t9.5 13.5q0 1 -10 14.5t-10 23.5t15 10q7 0 28.5 -24t22.5 -31
q3 -2 49 -26q31 -17 31 -42q0 -6 -6 -6q-1 0 -25 5q-5 13 -50.5 29t-61.5 15z" />
    <glyph glyph-name="ocircumflex" unicode="&#xf4;" horiz-adv-x="578" 
d="M370 498q-25 0 -33 25q-11 38 -13 41q-37 50 -89 50q-33 0 -43 -28q-2 -7 -6 -52q-2 -28 -18 -28q-12 0 -27.5 41t-46.5 41q-6 0 -11.5 6t-5.5 11q0 19 32 26q38 9 39 10q66 59 105 59q11 0 16 -11q8 -15 13 -19q12 -11 36 -30q35 -24 65 -34q20 -6 71 -14q10 -2 10 -15
q0 -15 -22 -26q-16 -9 -33 -17q-10 -7 -23 -25q-8 -11 -16 -11zM451 307q0 -27 11 -60q10 -28 21 -57q0 -7 -9.5 -16.5t-17.5 -9.5t-22 22.5t-25 26.5q-16 2 -31 5q-19 3 -19 19q0 11 25 39t25 63t-15.5 64t-31.5 57q0 21 24 28q38 10 40 11.5t22 22.5q15 15 24 15
t17.5 -9.5t8.5 -18.5q0 -30 -23.5 -96.5t-23.5 -105.5zM90 388q1 -2 20 -32q14 -21 14 -32q0 -18 -18 -18q-6 0 -20 5.5t-21 5.5q-8 0 -24.5 -5.5t-25.5 -5.5q-19 0 -19 21q0 10 30 49.5t30 80.5q0 12 -7.5 35.5t-7.5 34.5q0 14 7.5 28t19.5 14t21 -5.5t33 -42t24 -44.5
q0 -12 -15 -21q-21 -14 -26 -20q-15 -17 -15 -48zM269 -23q-10 0 -61 47.5t-86 47.5q-2 0 -6.5 -1.5t-6.5 -1.5q-33 0 -38 37v63q-1 23 -37 54t-36 42q0 14 19 23q15 7 30 7q28 0 72 -17q19 -6 19 -31q0 -9 -7 -26t-7 -26q0 -37 12 -55q17 -28 54 -47t72 -19q50 0 62 36
q4 13 4 77q0 2 15 24q14 -1 34 -6q8 -6 20 -24t20 -25q8 -3 23 -16q6 -11 6 -24q0 -14 -28 -24q-20 -7 -41 -13q-30 -15 -49 -39q-13 -19 -25 -38q-18 -25 -34 -25zM181 770h-3q-13 1 -38 -12q-28 -14 -28 -26q0 -10 19 -10q5 0 14 3.5t13 3.5q5 0 6.5 -8.5t5.5 -8.5l4 1
q2 5 35.5 34.5t39.5 29.5q11 0 39 -26.5t32 -37.5l4 -1q5 0 10 8.5t10 8.5q4 0 13 -3.5t14 -3.5q19 0 19 10l-1 8q-5 7 -33 19t-35 11q-10 5 -32 29q-16 17 -40 17q-19 0 -36 -18q-23 -24 -32 -28z" />
    <glyph glyph-name="odieresis" unicode="&#xf6;" horiz-adv-x="578" 
d="M370 498q-25 0 -33 25q-11 38 -13 41q-37 50 -89 50q-33 0 -43 -28q-2 -7 -6 -52q-2 -28 -18 -28q-12 0 -27.5 41t-46.5 41q-6 0 -11.5 6t-5.5 11q0 19 32 26q38 9 39 10q19 18 38 35q25 21 46 21q11 0 18 -9q11 -16 14 -18q12 -8 34 -23q60 -40 156 -55q10 -2 10 -15
q0 -15 -22 -26q-16 -9 -33 -17q-10 -7 -23 -25q-8 -11 -16 -11zM451 307q0 -27 11 -60q10 -28 21 -57q0 -7 -9.5 -16.5t-17.5 -9.5t-22 22.5t-25 26.5q-16 2 -31 5q-19 3 -19 19q0 11 25 39t25 63t-15.5 64t-31.5 57q0 21 24 28q38 10 40 11.5t22 22.5q15 15 24 15
t17.5 -9.5t8.5 -18.5q0 -30 -23.5 -96.5t-23.5 -105.5zM90 388q1 -2 20 -32q14 -21 14 -32q0 -18 -18 -18q-6 0 -20 5.5t-21 5.5q-8 0 -24.5 -5.5t-25.5 -5.5q-19 0 -19 21q0 10 30 49.5t30 80.5q0 12 -7.5 35.5t-7.5 34.5q0 14 7.5 28t19.5 14t21 -5.5t33 -42t24 -44.5
q0 -12 -15 -21q-21 -14 -26 -20q-15 -17 -15 -48zM269 -23q-10 0 -61 47.5t-86 47.5q-2 0 -6.5 -1.5t-6.5 -1.5q-33 0 -38 37v63q-1 23 -37 54t-36 42q0 14 19 23q15 7 30 7q28 0 72 -17q19 -6 19 -31q0 -9 -7 -26t-7 -26q0 -37 12 -55q17 -28 54 -47t72 -19q50 0 62 36
q4 13 4 77q0 2 15 24q14 -1 34 -6q8 -6 20 -24t20 -25q8 -3 23 -16q6 -11 6 -24q0 -14 -28 -24q-20 -7 -41 -13q-30 -15 -49 -39q-13 -19 -25 -38q-18 -25 -34 -25zM368 762q-5 0 -18 3q-7 -4 -12 -7t-12 -21.5t-21 -18.5t-17 21q0 -2 0 30q0 6 -2.5 16.5t-2.5 12.5
q0 20 10 20q10 -13 50 -25q34 -11 34 -21t-9 -10zM229 765q-2 0 -6 1t-6 1q-2 -1 -4 -1q-14 -4 -21.5 -27.5t-21.5 -23.5q-6 0 -12.5 7t-6.5 12v31q-1 17 -7 29q2 20 9 20q10 -11 51 -21q36 -9 36 -19q0 -9 -11 -9zM368 762q-5 0 -18 3q-7 -4 -12 -7t-12 -21.5t-21 -18.5
t-17 21q0 -2 0 30q0 6 -2.5 16.5t-2.5 12.5q0 20 10 20q10 -13 50 -25q34 -11 34 -21t-9 -10zM229 765q-2 0 -6 1t-6 1q-2 -1 -4 -1q-14 -4 -21.5 -27.5t-21.5 -23.5q-6 0 -12.5 7t-6.5 12v31q-1 17 -7 29q2 20 9 20q10 -11 51 -21q36 -9 36 -19q0 -9 -11 -9zM368 762
q-5 0 -18 3q-7 -4 -12 -7t-12 -21.5t-21 -18.5t-17 21q0 -2 0 30q0 6 -2.5 16.5t-2.5 12.5q0 20 10 20q10 -13 50 -25q34 -11 34 -21t-9 -10zM229 765q-2 0 -6 1t-6 1q-2 -1 -4 -1q-14 -4 -21.5 -27.5t-21.5 -23.5q-6 0 -12.5 7t-6.5 12v31q-1 17 -7 29q2 20 9 20
q10 -11 51 -21q36 -9 36 -19q0 -9 -11 -9z" />
    <glyph glyph-name="otilde" unicode="&#xf5;" horiz-adv-x="578" 
d="M370 498q-25 0 -33 25q-11 38 -13 41q-37 50 -89 50q-33 0 -43 -28q-2 -7 -6 -52q-2 -28 -18 -28q-12 0 -27.5 41t-46.5 41q-6 0 -11.5 6t-5.5 11q0 19 32 26q38 9 39 10q5 4 27 41q16 27 35 27q12 0 29 -15q13 -12 25 -24q12 -8 34 -23q60 -40 156 -55q10 -2 10 -15
q0 -15 -22 -26q-16 -9 -33 -17q-10 -7 -23 -25q-8 -11 -16 -11zM451 307q0 -27 11 -60q10 -28 21 -57q0 -7 -9.5 -16.5t-17.5 -9.5t-22 22.5t-25 26.5q-16 2 -31 5q-19 3 -19 19q0 11 25 39t25 63t-15.5 64t-31.5 57q0 21 24 28q38 10 40 11.5t22 22.5q15 15 24 15
t17.5 -9.5t8.5 -18.5q0 -30 -23.5 -96.5t-23.5 -105.5zM90 388q1 -2 20 -32q14 -21 14 -32q0 -18 -18 -18q-6 0 -20 5.5t-21 5.5q-8 0 -24.5 -5.5t-25.5 -5.5q-19 0 -19 21q0 10 30 49.5t30 80.5q0 12 -7.5 35.5t-7.5 34.5q0 14 7.5 28t19.5 14t21 -5.5t33 -42t24 -44.5
q0 -12 -15 -21q-21 -14 -26 -20q-15 -17 -15 -48zM269 -23q-10 0 -61 47.5t-86 47.5q-2 0 -6.5 -1.5t-6.5 -1.5q-33 0 -38 37v63q-1 23 -37 54t-36 42q0 14 19 23q15 7 30 7q28 0 72 -17q19 -6 19 -31q0 -9 -7 -26t-7 -26q0 -37 12 -55q17 -28 54 -47t72 -19q50 0 62 36
q4 13 4 77q0 2 15 24q14 -1 34 -6q8 -6 20 -24t20 -25q8 -3 23 -16q6 -11 6 -24q0 -14 -28 -24q-20 -7 -41 -13q-30 -15 -49 -39q-13 -19 -25 -38q-18 -25 -34 -25zM213 799q-15 0 -38.5 -20.5t-41 -23t-17.5 -24.5q0 -10 18 -11l-2 2q3 4 10 4q4 0 5.5 -9t6.5 -9l3 1
q3 9 25 30t31 21q15 0 34.5 -24.5t47.5 -24.5q17 0 29 13q16 17 22 19h4q15 -1 28.5 9t13.5 25q0 10 -19 10l2 -2q-3 -3 -9 -3q-5 0 -6 8.5t-7 8.5l-3 -1q-2 -7 -24.5 -28t-30.5 -21q-16 0 -35.5 25t-46.5 25z" />
    <glyph glyph-name="uacute" unicode="&#xfa;" horiz-adv-x="510" 
d="M401 551q0 -50 1 -129q2 -104 2 -130q1 -20 15 -51t14 -36q0 -19 -16 -22q-24 0 -71 -9q-5 -2 -19 -12t-21 -10q-19 0 -19 19q0 17 28.5 59t28.5 97v205q0 22 -12 50q-14 32 -32 35q-15 13 -15 42q0 14 11.5 24t26.5 10q3 0 23.5 -10.5t24.5 -10.5q9 0 25.5 8t24.5 8
q22 0 22 -18q-3 -8 -29 -52q-13 -24 -13 -67zM152 152q3 0 -36 17q-14 6 -34 8q-30 3 -35 4q-15 3 -15 22q33 62 33 71q0 6 -3 18t-3 18q0 15 2 46.5t2 48.5l-3 138q-2 11 -5.5 32.5t-24.5 44.5t-21 39q0 14 11 24t25 10q10 0 30.5 -9t30.5 -9q-5 0 40 18q24 0 24 -25
q0 -12 -17 -36q-21 -30 -24 -36q-8 -19 -9 -89v-97q0 -16 -2 -18q2 -6 4 -44q4 -91 23 -127q2 -4 16 -19.5t14 -24.5q0 -25 -23 -25zM226 -24q-13 0 -18 3q-16 19 -45 51q-7 6 -78 58q-43 30 -43 46q0 23 18 23q78 0 114 -33q5 -16 10 -31q13 -26 42 -26q14 0 41 16
q14 8 17 35q3 20 30 20q10 0 29 9.5t35 9.5q34 0 34 -33q0 -21 -13 -27q-81 -45 -135 -97q-6 -9 -24 -23q-4 -1 -14 -1zM299 760q2 2 2 5q0 5 -9.5 13.5t-9.5 13.5q0 1 9.5 14.5t9.5 23.5t-14 10q-7 0 -28.5 -23.5t-23.5 -30.5q-2 -2 -48 -27q-31 -16 -31 -41q0 -9 14 -9
q4 0 8.5 3t8.5 4q5 13 52 30q43 15 60 14z" />
    <glyph glyph-name="ugrave" unicode="&#xf9;" horiz-adv-x="510" 
d="M401 551q0 -50 1 -129q2 -104 2 -130q1 -20 15 -51t14 -36q0 -19 -16 -22q-24 0 -71 -9q-5 -2 -19 -12t-21 -10q-19 0 -19 19q0 17 28.5 59t28.5 97v205q0 22 -12 50q-14 32 -32 35q-15 13 -15 42q0 14 11.5 24t26.5 10q3 0 23.5 -10.5t24.5 -10.5q9 0 25.5 8t24.5 8
q22 0 22 -18q-3 -8 -29 -52q-13 -24 -13 -67zM152 152q3 0 -36 17q-14 6 -34 8q-30 3 -35 4q-15 3 -15 22q33 62 33 71q0 6 -3 18t-3 18q0 15 2 46.5t2 48.5l-3 138q-2 11 -5.5 32.5t-24.5 44.5t-21 39q0 14 11 24t25 10q10 0 30.5 -9t30.5 -9q-5 0 40 18q24 0 24 -25
q0 -12 -17 -36q-21 -30 -24 -36q-8 -19 -9 -89v-97q0 -16 -2 -18q2 -6 4 -44q4 -91 23 -127q2 -4 16 -19.5t14 -24.5q0 -25 -23 -25zM226 -24q-13 0 -18 3q-16 19 -45 51q-7 6 -78 58q-43 30 -43 46q0 23 18 23q78 0 114 -33q5 -16 10 -31q13 -26 42 -26q14 0 41 16
q14 8 17 35q3 20 30 20q10 0 29 9.5t35 9.5q34 0 34 -33q0 -21 -13 -27q-81 -45 -135 -97q-6 -9 -24 -23q-4 -1 -14 -1zM148 753q-2 2 -2 5q0 5 9.5 13.5t9.5 13.5q0 1 -10 14.5t-10 23.5t15 10q7 0 28.5 -24t22.5 -31q3 -2 49 -26q31 -17 31 -42q0 -6 -6 -6q-1 0 -25 5
q-5 13 -50.5 29t-61.5 15z" />
    <glyph glyph-name="ucircumflex" unicode="&#xfb;" horiz-adv-x="510" 
d="M401 551q0 -50 1 -129q2 -104 2 -130q1 -20 15 -51t14 -36q0 -19 -16 -22q-24 0 -71 -9q-5 -2 -19 -12t-21 -10q-19 0 -19 19q0 17 28.5 59t28.5 97v205q0 22 -12 50q-14 32 -32 35q-15 13 -15 42q0 14 11.5 24t26.5 10q3 0 23.5 -10.5t24.5 -10.5q9 0 25.5 8t24.5 8
q22 0 22 -18q-3 -8 -29 -52q-13 -24 -13 -67zM152 152q3 0 -36 17q-14 6 -34 8q-30 3 -35 4q-15 3 -15 22q33 62 33 71q0 6 -3 18t-3 18q0 15 2 46.5t2 48.5l-3 138q-2 11 -5.5 32.5t-24.5 44.5t-21 39q0 14 11 24t25 10q10 0 30.5 -9t30.5 -9q-5 0 40 18q24 0 24 -25
q0 -12 -17 -36q-21 -30 -24 -36q-8 -19 -9 -89v-97q0 -16 -2 -18q2 -6 4 -44q4 -91 23 -127q2 -4 16 -19.5t14 -24.5q0 -25 -23 -25zM226 -24q-13 0 -18 3q-16 19 -45 51q-7 6 -78 58q-43 30 -43 46q0 23 18 23q78 0 114 -33q5 -16 10 -31q13 -26 42 -26q14 0 41 16
q14 8 17 35q3 20 30 20q10 0 29 9.5t35 9.5q34 0 34 -33q0 -21 -13 -27q-81 -45 -135 -97q-6 -9 -24 -23q-4 -1 -14 -1zM151 770h-3q-13 1 -38 -12q-28 -14 -28 -26q0 -10 19 -10q5 0 14 3.5t13 3.5q5 0 6.5 -8.5t5.5 -8.5l4 1q2 5 35.5 34.5t39.5 29.5q11 0 39 -26.5
t32 -37.5l4 -1q5 0 10 8.5t10 8.5q4 0 13 -3.5t14 -3.5q19 0 19 10l-1 8q-5 7 -33 19t-35 11q-10 5 -32 29q-16 17 -40 17q-19 0 -36 -18q-23 -24 -32 -28z" />
    <glyph glyph-name="udieresis" unicode="&#xfc;" horiz-adv-x="510" 
d="M401 551q0 -50 1 -129q2 -104 2 -130q1 -20 15 -51t14 -36q0 -19 -16 -22q-24 0 -71 -9q-5 -2 -19 -12t-21 -10q-19 0 -19 19q0 17 28.5 59t28.5 97v205q0 22 -12 50q-14 32 -32 35q-15 13 -15 42q0 14 11.5 24t26.5 10q3 0 23.5 -10.5t24.5 -10.5q9 0 25.5 8t24.5 8
q22 0 22 -18q-3 -8 -29 -52q-13 -24 -13 -67zM152 152q3 0 -36 17q-14 6 -34 8q-30 3 -35 4q-15 3 -15 22q33 62 33 71q0 6 -3 18t-3 18q0 15 2 46.5t2 48.5l-3 138q-2 11 -5.5 32.5t-24.5 44.5t-21 39q0 14 11 24t25 10q10 0 30.5 -9t30.5 -9q-5 0 40 18q24 0 24 -25
q0 -12 -17 -36q-21 -30 -24 -36q-8 -19 -9 -89v-97q0 -16 -2 -18q2 -6 4 -44q4 -91 23 -127q2 -4 16 -19.5t14 -24.5q0 -25 -23 -25zM226 -24q-13 0 -18 3q-16 19 -45 51q-7 6 -78 58q-43 30 -43 46q0 23 18 23q78 0 114 -33q5 -16 10 -31q13 -26 42 -26q14 0 41 16
q14 8 17 35q3 20 30 20q10 0 29 9.5t35 9.5q34 0 34 -33q0 -21 -13 -27q-81 -45 -135 -97q-6 -9 -24 -23q-4 -1 -14 -1zM338 762q-5 0 -18 3q-7 -4 -12 -7t-12 -21.5t-21 -18.5t-17 21q0 -2 0 30q0 6 -2.5 16.5t-2.5 12.5q0 20 10 20q10 -13 50 -25q34 -11 34 -21t-9 -10z
M199 765q-2 0 -6 1t-6 1q-2 -1 -4 -1q-14 -4 -21.5 -27.5t-21.5 -23.5q-6 0 -12.5 7t-6.5 12v31q-1 17 -7 29q2 20 9 20q10 -11 51 -21q36 -9 36 -19q0 -9 -11 -9zM338 762q-5 0 -18 3q-7 -4 -12 -7t-12 -21.5t-21 -18.5t-17 21q0 -2 0 30q0 6 -2.5 16.5t-2.5 12.5
q0 20 10 20q10 -13 50 -25q34 -11 34 -21t-9 -10zM199 765q-2 0 -6 1t-6 1q-2 -1 -4 -1q-14 -4 -21.5 -27.5t-21.5 -23.5q-6 0 -12.5 7t-6.5 12v31q-1 17 -7 29q2 20 9 20q10 -11 51 -21q36 -9 36 -19q0 -9 -11 -9zM338 762q-5 0 -18 3q-7 -4 -12 -7t-12 -21.5t-21 -18.5
t-17 21q0 -2 0 30q0 6 -2.5 16.5t-2.5 12.5q0 20 10 20q10 -13 50 -25q34 -11 34 -21t-9 -10zM199 765q-2 0 -6 1t-6 1q-2 -1 -4 -1q-14 -4 -21.5 -27.5t-21.5 -23.5q-6 0 -12.5 7t-6.5 12v31q-1 17 -7 29q2 20 9 20q10 -11 51 -21q36 -9 36 -19q0 -9 -11 -9z" />
    <glyph glyph-name="dagger" unicode="&#x2020;" horiz-adv-x="20" 
 />
    <glyph glyph-name="degree" unicode="&#xb0;" horiz-adv-x="480" 
d="M431 513q0 -26 -27 -26q-43 0 -49 1q-25 7 -25 40q0 18 -46 38q-41 18 -64 18q-5 0 -23 -13.5t-20 -20.5q-7 -22 -14 -45q-11 -27 -34 -27q-18 0 -55 26q-40 28 -40 49q0 31 37 48l62 22q9 5 47 46q35 39 43 39q16 0 65 -39.5t70 -41.5q31 -2 40 -12.5t17 -44.5
q2 -14 12 -41q4 -8 4 -16zM433 480q-16 -29 -32 -39t-24 -28t-18 -23q4 -19 4 -22q0 -27 -26 -27q-14 0 -26 11t-18 12q-33 5 -33 25q0 17 13 24t24 12q7 6 19 45q10 34 27 34q8 0 18 -6t11 -6q4 0 10.5 1t10.5 1q16 0 40 -14zM452 191q0 -17 -12.5 -30.5t-30.5 -13.5
q-9 0 -36 16q-22 6 -60 19q-9 30 -16 43q-13 25 -35 29q-16 3 -22 6q-9 5 -17 18q2 17 22 27q16 9 33 17l15 10q23 16 31 16q18 0 39 -39q15 -26 30 -53q1 -1 35 -29q24 -19 24 -36zM314 345q0 -18 -36 -39t-55 -21q-27 0 -46 26q-5 7 -93 95q-68 67 -68 95v9q19 18 34 18
q25 0 42 -17l4 -5q12 -12 43 -20q28 -8 46 -35q26 -37 41 -51q27 -25 58 -25q11 0 20.5 -10t9.5 -20zM194 299q0 -20 -19 -29q-11 -5 -22 -9q-6 -4 -16 -26q-15 -34 -31 -34q-11 0 -22 8.5t-12 8.5q-2 0 -6.5 -1t-7.5 -1q-26 0 -27 31l13 15q16 4 37 23t21 35v6.5v6.5
q0 33 27 33q13 0 39 -26.5t26 -40.5zM431 125q0 -22 -52 -37q-60 -18 -69 -23q-22 -13 -54 -61q-19 -28 -40 -28q-23 0 -58.5 47t-63.5 47q-6 0 -18.5 -2t-19.5 -2q-8 0 -40 19q1 25 4 78q1 27 10.5 47t20.5 20q36 0 51 -22q8 -11 17 -51q6 -24 18 -34q17 -15 59 -15
q36 0 69.5 41t54.5 41q19 0 65 -24t46 -41zM416 513q0 -4 -6 16q-8 33 -20 72q-7 9 -21 11q-23 2 -24 2q-25 8 -70 45q-41 34 -52 34q-6 0 -27 -31q-24 -36 -57 -52l-54 -20q-36 -15 -36 -37q0 -13 33 -36.5t47 -23.5t18 13q8 25 15 51q7 13 43 36q9 6 15 6q26 0 75.5 -25
t49.5 -46q0 -3 -1 -7t-1 -6q-1 -13 61 -13q12 0 12 11zM413 475q-8 4 -20 4q-4 0 -10.5 -1t-10.5 -1q-5 0 -14.5 6t-14.5 6q-6 0 -15 -31q-10 -35 -21 -44l-21 -10.5t-11 -14.5q0 -5 8 -7t23 -7l14 -12q9 -7 17 -7q11 0 11 12q0 5 -2 13.5t-2 13.5q0 2 12 10l9 19t28 30
q13 7 20 21zM437 191q0 11 -24 29q-29 23 -31 26q-23 28 -35 65q-8 22 -23 22q-3 0 -23 -14q-23 -15 -24 -16q-11 -4 -31 -13q-7 -4 -8 -9q6 -9 23 -11q21 -4 32 -14q19 -17 33 -63q19 -3 54 -17q24 -14 29 -14q28 0 28 29zM299 345q0 4 -5 9.5t-10 5.5q-56 0 -111 83
q-15 22 -36 28q-31 9 -40 15l-20 19q-9 8 -27 8q-9 0 -19 -9v-3q0 -13 6 -23q9 -15 69.5 -71t82.5 -87q14 -20 34 -20q16 0 46 15.5t30 29.5zM179 299q0 8 -21.5 30t-28.5 22q-12 0 -12 -18q0 -21 -3 -26q-27 -49 -62 -58q-6 -6 -6 -7q0 -11 12 -11q3 0 7.5 1t6.5 1
q7 0 17.5 -8.5t16.5 -8.5q7 0 18 26.5t25 33.5q9 4 19.5 8.5t10.5 14.5zM416 125q0 14 -42 33q-38 17 -54 17q-14 0 -32 -22q-26 -32 -34 -39q-25 -21 -58 -21q-95 0 -95 79q0 43 -50 43q-15 0 -15 -24q0 -58 -4 -98q23 -12 24 -12q6 0 19 2t19 2q34 0 71 -47t51 -47
q18 0 25 14.5t13 28.5q12 26 68 53q26 8 53 15q41 12 41 23z" />
    <glyph glyph-name="cent" unicode="&#xa2;" horiz-adv-x="396" 
d="M223 540q-93 -2 -97 -107l-1 -15l-9 -6q-2 0 -8 3q-5 11 -41 37q-31 23 -31 33q0 19 20 25q53 16 65 21q32 16 48 48q5 11 18 33q-3 7 -17 31t-14 25q0 10 11 10q2 0 12.5 -4.5t12.5 -4.5q7 0 30 14q8 -1 16 -17q-6 -18 -20 -54q10 -18 39 -32.5t52 -14.5q3 0 11.5 4
t12.5 4q5 0 12 -8.5t7 -12.5q0 -7 -10.5 -24.5t-10.5 -31.5q0 -6 6 -19t6 -18q0 -8 -7 -17t-14 -9l-13 6q-27 97 -85 102zM104 230q-6 0 -19 5.5t-19 5.5q-2 0 -15.5 -8t-15.5 -8h-16q-2 16 -2 17q0 16 10.5 46.5t10.5 46.5q0 21 -10.5 48t-10.5 38q0 26 18 26q9 0 17 -11
q5 -7 15 -22q4 -7 18 -11t19 -8q1 -7 1 -11v-14q-11 -15 -21 -29.5t-10 -38.5q0 -16 23 -30.5t23 -28.5q0 -4 -6 -8.5t-10 -4.5zM350 171q0 -6 3.5 -18t3.5 -18v-5q-4 -13 -16 -18q-4 -1 -25 -3q-35 -4 -116 -52l-2 -20q0 -11 18 -39.5t18 -29.5q0 -8 -11 -10l-25 9
q-7 0 -30 -14q-8 0 -16 16q20 51 20 67q0 2 -2 6t-1 7h-1q-5 4 -38 57q-26 43 -66 59q-11 4 -22.5 8.5t-11.5 16.5q0 27 53 27q27 0 32 -7t5 -34q0 -18 40 -37q35 -17 55 -17q43 0 70 34q11 14 33 64q16 34 31 34q17 0 17 -21q0 -11 -8 -31t-8 -31z" />
    <glyph glyph-name="sterling" unicode="&#xa3;" horiz-adv-x="480" 
d="M300 518q0 2 -7 16q-25 51 -79 51t-87 -87q-12 -6 -19 -6q-9 0 -33.5 33t-24.5 44q0 29 49 29q8 0 20 -1h15q26 0 72 37.5t53 37.5q26 0 40 -35q16 -43 29 -50t25.5 -14t12.5 -19q0 -6 -3.5 -20t-3.5 -21q0 -6 3.5 -17.5t3.5 -16.5q0 -9 -12.5 -15t-21.5 -6q-32 0 -32 60
zM185 362q-5 0 -14.5 -2t-13.5 -2q-2 0 -6.5 1.5t-6.5 1.5q-5 0 -22 -6l-2 2q-11 44 -61 95q-46 47 -46 63q0 11 4 21q9 3 17 3q6 0 16.5 -8t13 -14.5t10 -18.5t41.5 -27q28 -13 31 -26q5 -26 5 -27q5 -17 12 -24q4 -4 24 -13.5t20 -12.5q0 -5 -3 -15q-2 0 -9 6q-6 3 -10 3z
M306 318q0 -5 16 -18q0 -6 -11 -11t-18 -5q-1 0 -35 8t-55 8h-67q-15 0 -46 -6.5t-46 -6.5q-14 0 -14 9q0 5 3.5 13.5t3.5 12.5q0 11 -15.5 17.5t-15.5 12.5l4 2q101 -12 98 -12q11 0 33 2t33 2q9 0 28.5 -3.5t29.5 -3.5q17 0 40.5 17t34.5 17q10 0 24.5 -6.5t14.5 -14.5
q0 -7 -20 -17.5t-20 -16.5zM143 201q-8 -7 -9 -9q1 -3 1 -11q0 -6 -4.5 -19.5t-4.5 -16.5q2 -10 2 -17q0 -2 -6 -11.5t-5 -10.5q-15 11 -44.5 17.5t-30.5 7.5v4q0 3 -1.5 7.5t-1.5 7.5q0 11 16.5 28.5t41.5 83.5q7 18 31 18q6 0 18.5 -3.5t18.5 -3.5q3 0 12 11q4 -8 4 -13
q0 -7 -19 -35t-19 -35zM397 44q0 -4 9 -14.5t9 -14.5q0 -8 -12 -17.5t-20 -9.5q-2 0 -29 18.5t-62 19.5h-108q-42 1 -63 -8q-28 -13 -55 -25l-13 5q-3 4 -3 11t4 21.5t4 21.5q0 15 -17 27.5t-17 21.5l5 5q8 -1 88 -21q60 -15 80 -15q24 0 84 9q70 9 78.5 19.5t17.5 22.5
q14 16 22 16q13 0 27.5 -11.5t14.5 -24.5q0 -12 -22 -29.5t-22 -27.5z" />
    <glyph glyph-name="section" unicode="&#xa7;" horiz-adv-x="505" 
d="M136 196q25 -11 25 -34q0 -4 -2 -10t-2 -9q0 -22 40 -40q35 -16 61 -16q13 0 54 78l5 -10v1q0 24 22.5 53.5t22.5 43.5q0 10 -13 27t-19 17q-4 0 -11.5 -2t-11.5 -2q-13 0 -36 30q-3 -25 -35 -25q-18 0 -29 15q-7 14 -15 28q-9 -3 -52 -70l-8 6q-6 -2 -10 -2
q-17 0 -25 26q1 -20 28 -35t29 -54q-11 -11 -18 -16zM370 26l-17 -8q-4 1 -12.5 3t-12.5 2q-46 0 -110 -62q-24 5 -68 63q-52 67 -66 77q-24 15 -48 29q-28 20 -28 44q0 13 9 21q-8 2 -19 8q0 31 11 72q9 37 9 55q0 19 -14 55.5t-14 57.5q0 15 11 30t28 17q-16 12 -16 33
q0 35 92 64q28 9 45 31q20 29 40 57q30 38 49 38q6 0 21 -7q7 -19 41 -41t54 -22q5 0 19 5.5t23 5.5q14 0 25.5 -14t11.5 -26q0 -9 -5 -21q-19 -49 -19 -47q0 -9 7.5 -28.5t7.5 -30.5q0 -38 -40 -38q-20 0 -37 35q-27 57 -33 65q-25 35 -68 35q-47 0 -67 -34
q-12 -20 -20 -71q-7 -47 -19 -61h-26l-20 32q-13 16 -30 23h-2q10 -18 34 -45q11 -8 29 -25q7 8 21 12l7 2q9 3 19 20q9 14 36 14q26 0 30 -24q17 18 43 18q14 0 45 -27q20 -19 41 -39q18 -15 79 -41q31 -13 31 -51q0 -10 -10 -25q-24 -33 -33 -65q-1 -5 -13 -70
q-12 -70 -53 -70q-2 0 -5 3q6 -20 6 -34zM419 614q0 7 -8 16t-14 9t-20 -5.5t-22 -5.5q-23 0 -61 23t-46 44q-6 3 -9 3q-17 0 -51 -50q-38 -57 -51 -65l-64 -22q-45 -17 -45 -38q0 -18 23 -29q18 -8 37 -16q10 -7 35 -45h11q4 5 11.5 53.5t24.5 74.5q25 38 77 38
q47 0 76 -35q15 -18 35 -65q15 -35 27 -35q25 0 25 23q0 10 -7.5 29.5t-7.5 29.5q0 9 12 34t12 34zM463 287q0 28 -22 37q-36 15 -43 19q-24 12 -40 25l-38 36q-28 26 -38 26q-13 0 -25.5 -8t-12.5 -21q0 -12 27 -52.5t36 -40.5q4 0 11.5 2t11.5 2q14 0 30.5 -22.5
t16.5 -36.5q0 -19 -22.5 -48.5t-22.5 -48.5q0 -13 14 -47q14 -37 23 -37q6 0 15 4q15 6 24 54q5 33 11 65q13 39 25 60q6 8 12.5 17.5t6.5 14.5zM256 326q0 11 -17 32t-17 29q0 6 1.5 17t1.5 16q0 16 -16 16q-22 0 -32 -19q-5 -9 -23.5 -15.5t-20.5 -23.5l-2 -22t-8 -20
q-13 -15 -13 -22q0 -24 12 -24q2 0 6 2t7 2l1 -1q41 64 58 64q8 0 18 -22t24 -22q20 0 20 13zM139 217q-2 25 -29.5 40t-27.5 46q0 24 17.5 50.5t17.5 31.5t-5 11q-11 8 -32 26q-2 2 -21 32q-14 21 -26 21q-11 0 -19.5 -10.5t-8.5 -21.5q0 -18 14 -54.5t14 -58.5
q0 -20 -10 -59t-10 -59q9 -4 17 -4q7 0 20.5 3.5t20.5 3.5t22 -5t23 -5q10 0 23 12zM355 36q0 13 -43 97q-32 -61 -54 -61q-29 0 -70 21q-46 24 -46 50q0 3 2 9t2 10q0 29 -80 29q-43 0 -43 -17t27 -35q15 -8 43 -26q15 -11 66 -77q20 -26 26 -32q21 -25 29 -27
q62 61 114 61q4 0 11 -2t11 -2z" />
    <glyph glyph-name="bullet" unicode="&#x2022;" horiz-adv-x="374" 
d="M31 316q0 56 40 95t97 39t97 -39t40 -95t-40 -95t-97 -39t-97 39t-40 95z" />
    <glyph glyph-name="paragraph" unicode="&#xb6;" horiz-adv-x="491" 
d="M439 507q0 -25 -61 -62q0 -14 -11 -35q-32 -66 -59 -142q-35 -99 -54 -144q-9 -20 -11 -35q13 -19 13 -39q0 -29 -25 -51.5t-53 -22.5q-5 0 -15.5 1.5t-15.5 1.5q-6 0 -18 -1.5t-18 -1.5q-49 0 -49 44q0 23 35 49q40 29 49 53q12 34 51 129q9 20 33.5 108t35.5 111
q3 6 8 53q3 39 19 51q-10 1 -51 1q-118 0 -130 -10q-17 -7 -37 -17q-13 -11 -29 -11q-40 0 -43 77q-7 10 -13.5 19t-6.5 23q0 18 24 29q19 10 38 10q29 0 132.5 -10.5t132.5 -10.5q13 0 65.5 7.5t65.5 7.5q22 0 35.5 -17t10.5 -40q-42 -22 -47 -53q-1 -13 -8 -34q7 -7 7 -38
zM473 642q2 14 -8 23t-24 9q-13 0 -65.5 -7.5t-65.5 -7.5q-29 0 -132.5 10.5t-132.5 10.5q-47 0 -47 -24q0 -11 7 -20l13 -17q2 -36 3 -41q6 -26 25 -26q10 0 20 8q15 5 37 16q16 14 139 14q72 0 84 -13q6 -6 32.5 -15t42.5 -12q8 2 13 2h2q7 3 8 19q3 22 9 34q11 21 40 37z
M424 507q0 27 -6 29q-5 -1 -11 -1q-3 0 -7 1l-34 -6q-7 0 -20 11t-14 12l-29 11q-11 -3 -15 -43q-4 -49 -8 -57q-11 -22 -35.5 -110t-33.5 -109q-24 -55 -51 -129q-10 -26 -74 -76q-9 -7 -9 -20q0 -29 34 -29q6 0 18 1.5t18 1.5q5 0 15.5 -1.5t15.5 -1.5q23 0 43 18.5
t20 40.5q0 18 -13 35q0 18 12 45q19 45 54 144q28 76 60 142q9 19 9 29q0 -2 -1 5q0 4 27 19q35 20 35 38z" />
    <glyph glyph-name="germandbls" unicode="&#xdf;" horiz-adv-x="20" 
 />
    <glyph glyph-name="registered" unicode="&#xae;" horiz-adv-x="478" 
d="M218 686q76 0 132 -53q53 -51 53 -131q0 -75 -55 -127q-57 -55 -132 -55q-77 0 -129.5 53.5t-52.5 130.5q0 75 54 128.5t130 53.5zM54 504q0 -68 47.5 -116.5t114.5 -48.5t115.5 47t48.5 114q0 68 -47 117t-115 49t-116 -47.5t-48 -114.5zM185 497v-60q0 -21 6 -25t29 -4
v-10h-106v10q23 0 29 4t6 25v131q0 20 -6.5 24t-28.5 4v12h78q64 0 81 -5q32 -9 33 -47q1 -36 -27 -47q-22 -4 -45 -8q32 -9 44 -33q4 -8 11 -41q4 -19 14 -19q18 0 18 38h11q0 -54 -44 -54q-30 0 -37 27q-5 44 -7 50q-9 28 -34 28h-25zM263 557q0 35 -53 35q-17 0 -21 -3.5
t-4 -19.5v-58h21q57 0 57 46z" />
    <glyph glyph-name="copyright" unicode="&#xa9;" horiz-adv-x="792" 
d="M377 686q146 0 246 -103.5t100 -249.5q0 -145 -103.5 -246t-248.5 -101q-146 0 -246.5 103.5t-100.5 249.5q0 144 104 245.5t249 101.5zM63 339q0 -130 89.5 -222.5t218.5 -92.5q130 0 222.5 90t92.5 219t-90 222t-219 93q-130 0 -222 -90t-92 -219zM513 553h22v-167h-20
q-12 61 -44 101q-39 48 -96 48q-65 0 -98 -71q-25 -53 -25 -127q0 -75 32 -125q37 -60 108 -60q70 0 135 94l18 -10q-74 -115 -184 -115q-84 0 -141 69q-54 65 -54 151q0 84 58 151t141 67q33 0 78 -19t47 -19q23 0 23 32z" />
    <glyph glyph-name="trademark" unicode="&#x2122;" horiz-adv-x="475" 
d="M399 682v-196h-27v167h-2l-66 -167h-17l-65 167v-167h-28v196h46l56 -141l57 141h46zM157 682v-29h-64v-167h-28v167h-65v29h157z" />
    <glyph glyph-name="acute" unicode="&#xb4;" horiz-adv-x="420" 
d="M288 742q2 2 2 5q0 5 -9.5 13.5t-9.5 13.5q0 1 9.5 14.5t9.5 23.5t-14 10q-7 0 -28.5 -23.5t-23.5 -30.5q-2 -2 -48 -27q-31 -16 -31 -41q0 -7 5 -7q1 0 26 5q5 13 52 30q43 15 60 14z" />
    <glyph glyph-name="dieresis" unicode="&#xa8;" horiz-adv-x="454" 
d="M298 762q-5 0 -18 3q-7 -4 -12 -7t-12 -21.5t-21 -18.5t-17 21q0 -2 0 30q0 6 -2.5 16.5t-2.5 12.5q0 20 10 20q10 -13 50 -25q34 -11 34 -21t-9 -10zM159 765q-2 0 -6 1t-6 1q-2 -1 -4 -1q-14 -4 -21.5 -27.5t-21.5 -23.5q-6 0 -12.5 7t-6.5 12v31q-1 17 -7 29
q2 20 9 20q10 -11 51 -21q36 -9 36 -19q0 -9 -11 -9zM298 762q-5 0 -18 3q-7 -4 -12 -7t-12 -21.5t-21 -18.5t-17 21q0 -2 0 30q0 6 -2.5 16.5t-2.5 12.5q0 20 10 20q10 -13 50 -25q34 -11 34 -21t-9 -10zM159 765q-2 0 -6 1t-6 1q-2 -1 -4 -1q-14 -4 -21.5 -27.5
t-21.5 -23.5q-6 0 -12.5 7t-6.5 12v31q-1 17 -7 29q2 20 9 20q10 -11 51 -21q36 -9 36 -19q0 -9 -11 -9zM298 762q-5 0 -18 3q-7 -4 -12 -7t-12 -21.5t-21 -18.5t-17 21q0 -2 0 30q0 6 -2.5 16.5t-2.5 12.5q0 20 10 20q10 -13 50 -25q34 -11 34 -21t-9 -10zM159 765
q-2 0 -6 1t-6 1q-2 -1 -4 -1q-14 -4 -21.5 -27.5t-21.5 -23.5q-6 0 -12.5 7t-6.5 12v31q-1 17 -7 29q2 20 9 20q10 -11 51 -21q36 -9 36 -19q0 -9 -11 -9z" />
    <glyph glyph-name="AE" unicode="&#xc6;" horiz-adv-x="752" 
d="M674 553l-2 1q-15 13 -30.5 25t-39.5 12q-3 0 -7 -4.5t-8 -1.5q-7 3 -25 3q-15 0 -48 -18t-39 -18q-13 0 -21 10t-8 18q0 11 12 22q10 8 20 17q5 6 12.5 29t10.5 25q26 12 32 12t18 -7q22 -14 38 -23l88 38q7 3 19.5 -10.5t12.5 -22.5q0 -6 -5 -19.5t-5 -20.5
q1 -4 8 -18.5t7 -20.5q0 -29 -31 -29q-6 0 -9 1zM679 567h4q16 0 16 15q-1 3 -9 20q-6 13 -6 18q0 7 5 20.5t5 19.5q0 7 -15 17l-87 -37q-3 -1 -6 0l-57 30l-18 -9q-12 -46 -31 -60.5t-19 -20.5q0 -13 14 -13l3 1q20 11 41 22q27 13 43 13q17 0 26 -2q5 5 14 5q29 0 45 -13
t33 -26l-2 1q0 -1 1 -1zM477 283q-2 -1 -4 -1h-4q-13 0 -22 10t-9 20q0 5 6.5 16.5t6.5 13.5q0 5 -6.5 19.5t-6.5 20.5q0 12 7.5 24t21.5 12q13 0 24.5 -9t21.5 -17q7 -5 29 -5q34 3 54 13q17 9 46 34q1 1 3 1q7 0 18.5 -12.5t11.5 -18.5t-6.5 -20.5t-6.5 -19.5q0 -8 9 -33
t9 -34q0 -5 -2 -8q-14 -15 -24 -15q-14 0 -36 16.5t-36 19t-28 5.5q-24 0 -58 -22q-6 -4 -19 -10zM659 403q-3 5 -13 15q-29 -25 -47 -34q-22 -10 -57 -12q-3 0 -14 1q-19 2 -35.5 16t-25.5 14q-14 0 -14 -21q0 -4 6.5 -18.5t6.5 -21.5q0 -6 -6 -15q-7 -13 -7 -15
q0 -15 16 -15h3h1l30 18q25 15 51 15q3 0 8.5 -2t7.5 -2q37 -5 66 -30q8 -7 18 -7q3 0 11 8q0 9 -9 31.5t-9 35.5q0 5 6 20.5t6 18.5zM440 560q-6 -65 -6 -113q0 -56 7 -134q0 -24 1 -70.5t23 -80.5q16 -25 16 -38q0 -15 -10.5 -25.5t-21.5 -10.5q-17 0 -37 24.5t-35 24.5
q-9 0 -23 3q-12 12 -12 28q0 5 13 38t13 53q0 4 -1.5 30t-1.5 29v77v93q1 52 -1 85q-1 25 -24 51q-11 11 -11 25q0 13 10 21.5t21 8.5q5 0 18.5 -6.5t17.5 -6.5l2 1q18 6 54 16l3 1h3q11 0 19.5 -9t8.5 -18q0 -4 -2 -6q-40 -48 -44 -91zM425 561q4 46 45 97q-3 11 -12 11h-2
q-18 -6 -54 -17h-3q-2 -1 -3 -1q-6 0 -20.5 6.5t-15.5 6.5q-16 0 -16 -15q0 -7 9 -18q11 -15 12 -18q13 -25 14 -39q2 -33 1 -86v-93v-77q0 -3 1.5 -29t1.5 -30q0 -17 -25 -87q0 -2 -1 -4q0 -9 6 -16q25 -1 28 -2q9 -3 22 -17q28 -30 36 -30q17 0 17 21q0 8 -15.5 33.5
t-17.5 39.5q-5 34 -6 69q-1 44 -1 46q-7 79 -7 135q0 48 6 114zM593 19l-131 -1q-26 -8 -55 -25q-24 -14 -42 -14q-16 0 -27 19q-9 16 -9 27q0 5 10.5 22.5t10.5 19.5t-8 16.5t-8 19.5q0 13 10 23t22 10q10 0 23 -12q21 -19 21 -20q6 -4 39 -10.5t41 -6.5h40h4.5h5.5
q49 0 86 28q13 12 41 30h1q3 1 12 1q12 0 25 -9l1 -1q5 -4 5 -13q0 -7 -5 -23.5t-5 -22.5v-2q1 -4 8 -24.5t7 -25.5q0 -11 -12 -24.5t-20 -10.5zM696 126q-9 5 -16 5h-6h-1q-10 -5 -40 -28q-20 -16 -48 -23.5t-45 -7.5h-5.5h-4.5h-40q-11 0 -44 7q-36 7 -44 13q-2 1 -18 17
q-14 12 -18 12q-17 0 -17 -19l9 -18q7 -12 7 -17q0 -6 -9 -20q-11 -20 -11 -21l-1 -2q0 -8 7 -19t14 -11q13 0 30 9q14 8 29 16t34 14h2l137 1l89 -29q15 10 15 20q0 2 -7 22t-8 24v3v3q0 8 4.5 24.5t5.5 24.5zM321 630q22 0 22 -24t-5 -30q-8 -13 -9 -16q-16 -47 -37 -82
q-13 -21 -26 -43q-15 -25 -21 -45q-1 -4 -20 -45q-95 -205 -95 -241q0 -29 5 -43l12 -34q1 -3 1 -5q0 -10 -8.5 -20t-20.5 -10q-5 0 -17 6q-15 6 -18 7h-2q-6 -1 -25 -9t-25 -8q-11 0 -25.5 13t-14.5 24t16 30q12 12 23.5 26t17.5 31q20 44 51 135q7 27 24 63q15 30 29 61
q9 20 12.5 32.5t42.5 93.5q41 85 52 97l-1 5q-4 14 -4 26q0 51 69 57q7 1 9 -2q2 -2 -1 -8q-5 -13 -11 -41v-1zM315 666q-45 -8 -45 -41q0 -10 3 -22q5 -17 -3 -21q-10 -13 -48.5 -92.5t-41.5 -90.5q-6 -24 -32 -75.5t-33 -80.5t-24 -69l-28 -68q-10 -26 -45 -64
q-11 -12 -11 -17q0 -4 10 -13t15 -9q2 0 21 7.5t23 8.5l3 1h3q6 0 19.5 -6.5t17.5 -6.5q14 0 14 15q0 1 -6.5 17.5t-7.5 20.5q-4 20 -4 44q0 29 45 133q32 72 65 144q8 21 28 61q16 25 43 77q9 24 25 58q7 10 7 29q0 6 -1 9h-9q-12 0 -12 14q0 7 9 37zM334 125
q-3 -13 -21 -13q-6 0 -21.5 15t-47.5 15q-26 0 -39 -6q-16 -10 -32 -21q-5 -3 -9 -3q-21 0 -21 21q0 10 11.5 32t9.5 35q-3 24 15 29q4 1 18 1q9 0 19 -9.5t28 -9.5q17 0 36.5 17t28.5 17q12 0 20.5 -9.5t8.5 -21.5q0 -6 -3.5 -13t-3.5 -24v-3.5v-3.5q0 -4 3 -10q2 -4 0 -15
v-3v-17zM321 154q-5 5 -5 16q0 27 5 39q4 7 -0.5 14t-11.5 7q-2 0 -23 -17t-42 -17q-25 0 -40 16q-4 3 -7 3h-14q-4 -6 -4 -16.5t-1.5 -15t-16.5 -38.5q-3 -7 -3 -12q0 -6 5 -6q12 8 37 23q14 7 44 7q39 0 66 -28q1 -1 3 -2q5 0 6 2q0 -2 0 13q0 -5 2 12z" />
    <glyph glyph-name="Oslash" unicode="&#xd8;" horiz-adv-x="537" 
d="M298 655q-6 3 -4 9l28 88q2 6 12 6q13 0 26 -6t10 -13l-31 -93q-1 -5 -7 -5q-2 0 -34 14zM310 666l18 -8l25 78l-19 5zM333 506q-16 31 -32 61q-21 29 -65 29q-29 0 -36 -27q-3 -25 -6 -50.5t-23 -25.5q-17 0 -30 37t-46 41q-4 1 -11 10.5t-7 13.5q0 24 30 31q20 5 40 9
q4 3 26 41q16 26 39 26q10 0 46 -27q21 -17 43 -33q53 -37 146 -52q16 -3 16 -22q0 -14 -32 -36q-40 -27 -44 -33q-11 -14 -22 -14q-19 0 -32 21zM365 500q4 0 9.5 7.5t41.5 32.5q32 22 32 28t-3 7q-96 16 -153 54q-31 26 -80 58q-15 0 -30 -26q-20 -33 -25.5 -38t-36.5 -10
q-27 -4 -28 -16l9 -12q38 -6 57 -60q6 -17 13 -17q9 0 10 26q2 36 8 50q12 27 47 27q41 0 65 -23q18 -16 36 -57q14 -31 28 -31zM465 241q5 -13 14 -38l1 -3q1 -2 1 -4q0 -10 -11 -21.5t-22 -11.5t-25.5 22.5t-22.5 25.5q-16 3 -33 5q-20 5 -20 26q0 13 24.5 39.5t24.5 57.5
q0 43 -38 101l-7 11q-1 2 -1 4q0 26 24 33q20 5 40 11q3 2 23 23q15 15 27 15t22 -11.5t10 -23.5q0 -33 -22.5 -96t-22.5 -97q0 -25 14 -68zM365 457l1 -1l5 -8q40 -61 40 -109q0 -35 -24.5 -63t-24.5 -34q0 -11 22 -13q26 -3 37.5 -18t26.5 -33q4 0 11 7t7 11l-1 2
q-9 27 -19 54q-10 33 -10 57q0 34 22.5 97t22.5 96q0 6 -6 13t-11 7q-6 0 -21 -15q-18 -19 -20.5 -20.5t-34.5 -9.5q-22 -6 -23 -20zM164 146q-4 3 -3 8l109 399q1 6 7 6q9 0 23 -12t13 -19l-112 -398q-1 -5 -6 -5q-3 0 -31 21zM177 155l13 -10l107 382l-16 12zM104 387v0
q33 -53 33 -62q0 -25 -25 -25q-8 0 -20.5 5t-19.5 5q-8 0 -23.5 -5t-24.5 -5q-26 0 -26 28q0 12 29 50t29 75q0 11 -7.5 33t-7.5 34q0 15 8 29q10 19 26 19q24 0 53 -39.5t29 -56.5q0 -15 -26.5 -32t-26.5 -53zM91 379q-2 4 -2 7q0 46 40 70q13 8 13 16q0 13 -25.5 47
t-41.5 34q-7 0 -13 -11t-6 -22t7.5 -33t7.5 -34q0 -41 -29 -80.5t-29 -44.5q0 -13 11 -13q8 0 24 5t24 5t20.5 -5t19.5 -5q10 0 10 10q0 5 -31 54zM237 -1q-27 25 -54 49q-32 24 -69 24t-43 38v65q-2 19 -36 49t-34 44q0 17 19 28q17 8 35 8q31 0 58 -11q36 -15 36 -43
q0 -9 -6 -25t-6 -24q0 -48 36.5 -78.5t87.5 -30.5q59 0 59 67q0 13 -2 34v3q10 28 22 27q14 1 37 -7l1 -1l59 -62q4 -3 7 -15t1 -16q-6 -16 -51 -35q-49 -21 -62.5 -40.5t-26.5 -38.5q-18 -24 -36 -24q-14 0 -32 15zM247 11q14 -12 22 -12q11 0 28 23l22 34q17 21 62 41
t49 29q-1 7 -3 17l-60 61q-4 3 -24 4q-7 -8 -10 -16q1 -19 1 -32q0 -83 -73 -83q-56 0 -96 33q-43 36 -43 91q0 9 6 25t6 24q0 20 -32 31q-24 8 -47 8q-11 0 -25 -5.5t-14 -15.5q0 -6 34 -37t35 -55q1 -6 0 -19q-1 -16 -1 -23q0 -47 30 -47q40 0 75 -25q29 -26 58 -51z
M97 -45q-7 3 -4 9l36 100q1 5 8 5q11 0 26 -9.5t12 -16.5l-37 -98q-2 -4 -7 -4q-2 0 -34 14zM109 -34l18 -8l32 84l-19 9z" />
    <glyph glyph-name="plusminus" unicode="&#xb1;" horiz-adv-x="20" 
 />
    <glyph glyph-name="yen" unicode="&#xa5;" horiz-adv-x="529" 
d="M315 367h-5l-7 10v9q0 34 -26.5 52t-26.5 27q0 13 21 22q16 6 31 12q22 12 36 46q14 31 14 59q0 11 -5.5 32t-5.5 32q0 22 32 22q7 0 20.5 -2.5t20.5 -2.5q16 0 32.5 9t17.5 9q7 0 16.5 -8t9.5 -15q0 -20 -28 -53q-22 -24 -43 -48q-71 -85 -71 -183q0 -30 -33 -29z
M424 273q-10 0 -28 7t-29 7q-15 0 -28.5 -9.5t-14.5 -9.5q-35 0 -35 7q0 3 10 9.5t11 10.5q7 40 13 40q3 0 16 -9.5t25 -9.5q18 0 41 16l2 -1q2 1 6 9.5t12 8.5q11 0 11 -11q0 -4 -2.5 -11.5t-2.5 -11.5q0 -6 5 -16t5 -15q0 -11 -17 -11zM364 145q-9 0 -27.5 4t-28.5 4
q-11 0 -26.5 -6t-17.5 -6q-11 0 -11 12q0 4 2.5 10t2.5 9t-1 8t-1 7q0 20 7 20q3 0 16 -9.5t25 -9.5q4 1 4 3q0 1 -1 2.5t-1 2.5q0 3 16 3h-1q15 1 27 7t17 6q11 0 11 -12q0 -3 -2.5 -6t-2.5 -7q0 -5 5 -15t5 -16q0 -11 -17 -11zM236 209q0 -126 60 -188q-1 -31 -23 -31
q1 0 -37 16q-4 -1 -20.5 -11t-24.5 -10q-35 0 -35 30q0 15 18 46.5t18 57.5q0 92 -1 105q-6 64 -32 96q-11 13 -11 67q0 14 -32 79q-28 57 -42 80q-7 10 -47 39q-33 24 -33 41q0 23 17 29q9 3 37 3q15 0 27 18.5t24 18.5q8 0 15 -12.5t7 -21.5q0 -4 -5 -14.5t-5 -14.5
q0 -43 28 -110q31 -75 64 -90q23 -8 46 -15q31 -11 31 -28q0 -18 -37 -24q-53 -9 -56 -10l10 -16q79 15 81 15q21 0 21 -16q0 -19 -31.5 -63t-31.5 -66zM132 259q-3 0 -21 7.5t-31 7.5q-8 0 -24 -5.5t-24 -5.5q-17 0 -17 11q0 4 5 4.5t5 6.5q0 4 -2.5 11.5t-2.5 11.5
q0 12 11 12q7 0 12 -3.5t8 -4.5h19q12 0 32.5 6.5t30.5 6.5q7 0 7 -20q0 -3 5.5 -5.5t5.5 -5.5t4.5 -12t4.5 -13t-11.5 -7t-16.5 -3zM166 141q-1 0 -15 7.5t-28 7.5q-11 0 -29 -10.5t-28 -10.5q-17 0 -17 11q0 6 5 16t5 15q0 4 -2.5 11.5t-2.5 11.5q0 12 11 12
q7 0 11.5 -8.5t6.5 -10.5l2 1q9 -6 26 -6q24 0 39.5 9.5t16.5 9.5q5 0 5 -35q0 -3 2.5 -9t2.5 -10q0 -12 -11 -12z" />
    <glyph glyph-name="uni00B5" unicode="&#xb5;" horiz-adv-x="461" 
d="M371 9q0 -12 -14.5 -23.5t-24.5 -11.5q-7 0 -13 5q-33 21 -92 21h-70q-20 0 -54.5 -10t-47.5 -10q-8 0 -18 6l-2 2q-4 5 -4 15q0 7 4 21.5t4 21.5q0 12 -17 24t-17 26q0 9 10 21t20 12q6 0 32 -18.5t31 -20.5q20 -8 69 -8q64 0 105 8q15 3 39.5 26t35.5 23
q15 0 32.5 -13.5t17.5 -29.5t-22 -34t-22 -23q2 -3 11 -15q7 -8 7 -15zM35 114q-4 -1 -9.5 -7.5t-5.5 -10.5q0 -6 17 -18.5t17 -31.5q0 -7 -4 -21.5t-4 -21.5q0 -4 1 -5q5 -3 8 -3q7 0 43 10t59 10h70q64 0 100 -24q3 -2 5 -2q5 0 14.5 8t9.5 12q-1 3 -9.5 13t-8.5 17
q0 13 22 30.5t22 26.5q0 8 -12 18t-23 10q-4 0 -29.5 -22.5t-42.5 -25.5q-43 -9 -108 -9q-51 0 -68 7q-8 3 -58 36q-2 1 -6 4zM42 225q-12 4 -2 13q11 -11 10 -12h-1l-1 -1l-7 -6q-4 -3 -5.5 -4.5l-2.5 -2.5q-8 2 -6 5v7q-1 0 -3 -1l10 -11q-7 -11 -16 -23t-20 -12
q-6 -1 -10.5 11t-3.5 19v2q-23 11 -23 20q0 14 22 20q29 7 32 9q8 7 30 24q5 131 5 168q0 31 -9 78q-11 51 -23 74q-21 37 -21 48q0 43 51 43q22 0 34 -13l2 -1l1 -2q5 -5 18 -5l1 1q5 1 26 13q18 10 23 10q12 0 24.5 -11t12.5 -24q0 -14 -24 -37q-27 -26 -33 -42
q-20 -59 -20 -146q0 -54 1 -96q66 57 83 78q7 9 24 12q7 2 12.5 -10t2.5 -17q-2 -4 -5 -13h2q15 -2 15 -14q0 -20 1 -9q-1 -4 -9 -7q-59 -23 -123 -81q3 -44 5 -57q5 -22 23 -54q22 -41 22 -53q0 -32 -37 -32q-20 0 -34 14q-21 20 -25 22l-30 10q-20 7 -19 18q0 12 7 21l5 5
q6 9 7 25q0 13 1 27zM-24 230q6 -4 21 -11l1 -13q0 1 1 2q-1 -4 3 -15q7 10 20 29l4 -5v0q-4 1 -4 4q0 1 9 10l10 8q8 4 12 4q5 0 5 -8q0 -4 -1 -11t-1 -9q0 -23 -1 -27q-2 -14 -10 -24l-4 -5q-2 -3 -4 -5v-7q6 -3 28 -10q16 -4 28 -16q23 -23 37 -23q22 0 22 17
q0 8 -22 49.5t-24 62.5q-6 58 -2 61q69 62 129 85v2q-8 1 -20 9q-1 4 2 8.5t3.5 8t2.5 7.5l-3 7q-5 -1 -9 -6q-20 -24 -97 -90q-12 -10 -13 5q-1 49 -1 112q0 90 21 151q7 19 23 35q26 25 28 27q5 7 5 12q0 6 -7.5 13t-14.5 7l-1 -1q-4 -1 -23.5 -12t-25.5 -11q-20 0 -30 11
l-2 2q-8 8 -23 8q-36 0 -36 -28q0 -7 19 -41q14 -24 24 -78q10 -49 10 -81q0 -35 -5 -172q-1 -5 -37 -32q-5 -4 -24.5 -8.5t-22.5 -7.5z" />
    <glyph glyph-name="uni00B5" unicode="&#x3bc;" horiz-adv-x="461" 
d="M371 9q0 -12 -14.5 -23.5t-24.5 -11.5q-7 0 -13 5q-33 21 -92 21h-70q-20 0 -54.5 -10t-47.5 -10q-8 0 -18 6l-2 2q-4 5 -4 15q0 7 4 21.5t4 21.5q0 12 -17 24t-17 26q0 9 10 21t20 12q6 0 32 -18.5t31 -20.5q20 -8 69 -8q64 0 105 8q15 3 39.5 26t35.5 23
q15 0 32.5 -13.5t17.5 -29.5t-22 -34t-22 -23q2 -3 11 -15q7 -8 7 -15zM35 114q-4 -1 -9.5 -7.5t-5.5 -10.5q0 -6 17 -18.5t17 -31.5q0 -7 -4 -21.5t-4 -21.5q0 -4 1 -5q5 -3 8 -3q7 0 43 10t59 10h70q64 0 100 -24q3 -2 5 -2q5 0 14.5 8t9.5 12q-1 3 -9.5 13t-8.5 17
q0 13 22 30.5t22 26.5q0 8 -12 18t-23 10q-4 0 -29.5 -22.5t-42.5 -25.5q-43 -9 -108 -9q-51 0 -68 7q-8 3 -58 36q-2 1 -6 4zM42 225q-12 4 -2 13q11 -11 10 -12h-1l-1 -1l-7 -6q-4 -3 -5.5 -4.5l-2.5 -2.5q-8 2 -6 5v7q-1 0 -3 -1l10 -11q-7 -11 -16 -23t-20 -12
q-6 -1 -10.5 11t-3.5 19v2q-23 11 -23 20q0 14 22 20q29 7 32 9q8 7 30 24q5 131 5 168q0 31 -9 78q-11 51 -23 74q-21 37 -21 48q0 43 51 43q22 0 34 -13l2 -1l1 -2q5 -5 18 -5l1 1q5 1 26 13q18 10 23 10q12 0 24.5 -11t12.5 -24q0 -14 -24 -37q-27 -26 -33 -42
q-20 -59 -20 -146q0 -54 1 -96q66 57 83 78q7 9 24 12q7 2 12.5 -10t2.5 -17q-2 -4 -5 -13h2q15 -2 15 -14q0 -20 1 -9q-1 -4 -9 -7q-59 -23 -123 -81q3 -44 5 -57q5 -22 23 -54q22 -41 22 -53q0 -32 -37 -32q-20 0 -34 14q-21 20 -25 22l-30 10q-20 7 -19 18q0 12 7 21l5 5
q6 9 7 25q0 13 1 27zM-24 230q6 -4 21 -11l1 -13q0 1 1 2q-1 -4 3 -15q7 10 20 29l4 -5v0q-4 1 -4 4q0 1 9 10l10 8q8 4 12 4q5 0 5 -8q0 -4 -1 -11t-1 -9q0 -23 -1 -27q-2 -14 -10 -24l-4 -5q-2 -3 -4 -5v-7q6 -3 28 -10q16 -4 28 -16q23 -23 37 -23q22 0 22 17
q0 8 -22 49.5t-24 62.5q-6 58 -2 61q69 62 129 85v2q-8 1 -20 9q-1 4 2 8.5t3.5 8t2.5 7.5l-3 7q-5 -1 -9 -6q-20 -24 -97 -90q-12 -10 -13 5q-1 49 -1 112q0 90 21 151q7 19 23 35q26 25 28 27q5 7 5 12q0 6 -7.5 13t-14.5 7l-1 -1q-4 -1 -23.5 -12t-25.5 -11q-20 0 -30 11
l-2 2q-8 8 -23 8q-36 0 -36 -28q0 -7 19 -41q14 -24 24 -78q10 -49 10 -81q0 -35 -5 -172q-1 -5 -37 -32q-5 -4 -24.5 -8.5t-22.5 -7.5z" />
    <glyph glyph-name="ordfeminine" unicode="&#xaa;" horiz-adv-x="542" 
d="M181 87q14 0 41.5 -2.5t41.5 -2.5q45 0 90 26t53 26q7 0 19 -5.5t12 -11.5q0 -13 -9 -48q-1 -5 -1 -10q0 -7 6.5 -23t6.5 -25q0 -13 -9.5 -24.5t-23.5 -11.5q-12 0 -30 13q-21 16 -30 18q-36 8 -159 8q-7 -2 -34 -18t-34 -16h-52q-20 0 -39 13.5t-19 34.5q0 14 10.5 23.5
t21.5 17.5q41 31 51 58q29 77 80 190q11 18 33 56q10 24 32 73q22 43 45 87q38 75 38 85q0 9 -4 17q-11 -22 -23 -45q-17 -30 -42 -30q-13 0 -18 11q-6 16 -14 22q-16 11 -57 11q-48 0 -73 -22q-9 -8 -18.5 -16.5t-21.5 -8.5q-22 0 -29 27q-2 9 -4 44q-7 8 -13.5 17t-6.5 21
q0 29 52 29q28 0 87 -10.5t87 -10.5q14 0 39 8t38 8q5 0 12 -4t9 -4h2l1 1q1 0 5.5 3.5t10.5 3.5q9 0 18 -8l5 -3q9 -8 21 -8q9 0 29.5 9.5t31.5 9.5q12 0 21.5 -9t9.5 -21t-9.5 -27.5t-20.5 -21.5q-40 -23 -64 -67q-19 -42 -39 -85q-49 -93 -97 -187q-74 -142 -78 -177
q8 -8 12 -8zM181 72q-6 0 -16.5 7t-10.5 13q0 33 77 182l100 192l40 88q26 45 69 70q22 12 22 36q0 15 -16 15q-8 0 -28.5 -9.5t-32.5 -9.5q-18 0 -31 11l-4 3q-5 5 -9 5q-1 0 -2 -1l-1 -1q-1 0 -5.5 -3t-10.5 -3q-5 0 -12.5 4t-8.5 4q-13 0 -38 -8t-39 -8q-28 0 -87 10.5
t-87 10.5q-37 0 -37 -14q0 -8 7 -17q11 -14 12 -16l1 -3l2 -34q3 -24 16 -24q7 0 20 12q16 16 30 23q25 12 63 12q51 0 42 1q14 -2 33 -22t23 -20q11 0 24 34t33 41q8 3 14 -13q4 -12 4 -22q0 -13 -37 -86q-24 -46 -47 -92q-10 -26 -33 -75q-12 -17 -32 -54
q-52 -113 -80 -189q-12 -33 -77 -81q-5 -4 -5 -13q0 -13 14 -23t29 -10h52l2 1q4 2 34 19q26 14 32 14h92q64 -2 86 -16q39 -23 41 -23q18 0 18 21q0 7 -6.5 22.5t-6.5 25.5q0 9 5 25t5 29q-11 6 -16 6q-2 0 -49 -26t-94 -26q-14 0 -41.5 2.5t-41.5 2.5zM156 810
q-4 -6 -8.5 -12t-14.5 -4q-25 7 -33 6h-2v-4v-3q9 -10 29 -14q4 -1 16 -6.5t16 -5.5q8 2 30 -21.5t43 -23.5q17 0 38.5 23.5t29.5 21.5q4 0 16.5 5.5t15.5 6.5q20 4 29 14v3q1 2 0 3q0 1 -2 1q-7 1 -33 -6q-10 -2 -13 4.5t-5 12.5h2l4 4q-2 -6 -25 -25l-22 -20
q-18 -25 -35 -25t-42 27l-4 5l-13 13q-6 6 -17 20zM324 809q23 6 35 6q18 -1 18 -18q0 -26 -42 -33q-4 -1 -17 -7q-9 -5 -17 -5q-7 -3 -31 -28q-16 -17 -38 -17q-27 0 -42 16q-24 25 -31 29q-8 0 -18 5q-13 6 -17 7q-47 7 -41 38q3 12 17 13q9 1 37 -6q4 8 18 16q5 1 13 -6
l1 -1q3 -4 15 -18l17 -18q21 -22 31 -22q8 0 13.5 7t11.5 14l2 2l5 5l15 13q7 5 19 18l1 1v-1l5 5q4 2 7 2q10 0 13 -17z" />
    <glyph glyph-name="ordmasculine" unicode="&#xba;" horiz-adv-x="542" 
d="M162 92q10 -13 19 -13q14 0 41.5 -2.5t41.5 -2.5q48 0 92.5 26.5t50.5 26.5q9 0 23 -10l1 -11q0 -9 -5.5 -23.5t-5.5 -23.5q0 -8 6.5 -24t6.5 -24q0 -10 -7 -19.5t-18 -9.5q-7 0 -29.5 14.5t-28.5 16.5q-38 9 -161 9q-4 0 -34 -17t-34 -17h-52q-17 0 -33.5 11.5
t-16.5 28.5q0 13 7 19q31 23 43 34q24 22 32 43q29 77 80 190q11 18 32 55q11 25 33 74q23 45 47 91q36 73 36 84q0 16 -8 28q-15 -5 -17 -45t-19 -40q-11 0 -23 13q-17 18 -30 24q-25 13 -68 13q-38 0 -62 -12q-11 -6 -28 -23q-12 -12 -23 -12q-18 0 -23 26q0 2 -3 40
q0 1 -12 16q-7 10 -7 20q0 21 44 21q28 0 87 -10.5t87 -10.5q13 0 39 8t38 8q4 0 10.5 -4t10.5 -4t9.5 4t9.5 4q6 0 17.5 -9t26.5 -9q10 0 30.5 9t30.5 9q24 0 24 -22q0 -10 -8.5 -24t-17.5 -19q-43 -24 -70 -73l-36 -81l-100 -192q-76 -148 -76 -179zM272 737q14 16 27 23
q7 -1 19.5 5t15.5 7q23 3 34 18q3 18 -9 18q-8 0 -35 -7q-6 -1 -8 9t-10 7q-21 -19 -45 -43q-16 -21 -29 -21q-18 0 -35 20t-36 44q-8 3 -14 -7t-12 -9q-27 7 -35 7q-11 0 -9 -18q11 -15 35 -18q2 -1 15 -7t19 -5q11 -6 26.5 -23t26.5 -21q6 -2 19 -2q22 0 40 23z" />
    <glyph glyph-name="ae" unicode="&#xe6;" horiz-adv-x="752" 
d="M683 560q-8 0 -30 19t-51 19q-9 0 -12 -7q-8 5 -28 5q-15 0 -49.5 -18t-37.5 -18q-22 0 -22 20q0 8 12 19q9 7 19 16.5t20 50.5l25 12l60 -31l91 39q21 -13 21 -26q0 8 -10 -40q16 -40 16 -39q0 -21 -24 -21zM469 289q-24 0 -24 23q0 5 6.5 15t6.5 15q0 7 -6.5 20.5
t-6.5 19.5q0 28 22 28q11 0 29.5 -15.5t45.5 -15.5q49 0 105 49q4 -4 20 -24q-13 -41 -13 -40q0 -12 9.5 -33.5t9.5 -32.5l-1 -4q-11 -12 -18 -12q-11 0 -29 12q-21 16 -29 18t-25.5 6.5t-16.5 4.5q-21 0 -50 -17t-35 -17zM427 447q0 -163 13 -248q2 -14 17.5 -39.5
t15.5 -35.5q0 -11 -7 -20t-17 -9q-12 0 -34.5 26t-54.5 24q-11 11 -11 23q0 4 13 39t13 52q0 268 -3 315q-2 17 -19 42t-17 33q0 23 24 23q-8 0 36 -13q69 18 62 18q16 0 20 -21q-36 -45 -46 -98q-5 -30 -5 -111zM687 -3l-92 30l-135 -2q-15 0 -46.5 -19t-48.5 -19
q-11 0 -20 13.5t-9 24.5q9 17 21 42q-15 44 -15 36q0 9 7.5 17.5t16.5 8.5q-6 0 37.5 -25t86.5 -25h50q44 0 88.5 30t51.5 30q15 0 23 -10q0 -9 -5 -26.5t-5 -25.5t8 -26t8 -26q0 -16 -22 -28zM123 104q0 -33 18 -82q-10 -22 -22 -22q-1 0 -37 13q-3 -1 -24.5 -9.5
t-25.5 -8.5q-8 0 -20 11t-13 19q22 26 57 84q50 116 117 292q11 38 45 98q40 70 50 94q-5 21 -5 35q0 41 62 47q-4 -15 -12 -43l5 -10l13 -1l5 -15q0 -35 -106.5 -238t-106.5 -264zM313 120l-18.5 15t-50.5 15q-29 0 -55.5 -15t-24.5 -15q-13 0 -13 13q0 8 10 29.5t10 41
t20 19.5q11 0 23 -9.5t30 -9.5t39 16.5t26 16.5q7 0 14.5 -7t7.5 -15q0 -5 -4.5 -13.5t-4.5 -13.5q0 -24 5 -30q2 -2 1 -4q0 -11 -1 -22.5t-14 -11.5z" />
    <glyph glyph-name="oslash" unicode="&#xf8;" horiz-adv-x="537" 
d="M332 648l-31 14l28 88l34 -9zM365 492q-18 0 -32 29q-20 44 -29 54q-24 29 -68 29q-32 0 -42 -27q-2 -7 -6 -50q-2 -27 -17 -27q-12 0 -19 18q-11 31 -15 36q-13 21 -41 25l-12 16q0 19 29 25q36 7 40 10.5t25 38.5q15 26 34 26q7 0 41 -26q22 -17 43 -34q55 -37 150 -53
q10 -1 10 -14q0 -10 -32 -32q-37 -24 -44 -34t-15 -10zM443 309q0 -26 15.5 -70.5t15.5 -42.5q0 -7 -9 -16t-17 -9q-6 0 -20.5 21.5t-24.5 25.5l-30 4q-18 4 -18 20q0 9 24 36.5t24 60.5q0 35 -23 78.5t-23 37.5q0 21 24 27q37 10 38.5 11.5t20.5 21.5q15 15 24 15
q8 0 16.5 -9.5t8.5 -18.5q0 -32 -23 -95.5t-23 -97.5zM194 133l-25 19l108 399l28 -21zM96 386l16.5 -26t16.5 -35q0 -17 -17 -17q-7 0 -20 5t-20 5t-23.5 -5t-24.5 -5q-18 0 -18 20q0 9 29 47t29 78q0 11 -7.5 33.5t-7.5 33.5q0 13 7 26.5t19 13.5q20 0 47 -37t27 -51
q0 -10 -26.5 -28t-26.5 -58zM269 -9q-13 0 -37 23q-34 33 -48 43q-34 23 -70 23q-31 0 -36 35v61q-1 21 -35.5 51.5t-34.5 40.5q0 13 16 21t31 8q28 0 54 -10q33 -14 33 -37q0 -8 -6.5 -24.5t-6.5 -24.5q0 -52 39.5 -84.5t92.5 -32.5q66 0 66 76q0 13 -2 33q4 12 15 23
q12 0 32 -6l60 -62q3 -4 6 -23q-5 -13 -48 -32q-48 -20 -65 -41q-12 -19 -24 -37q-17 -24 -32 -24zM131 -52l-31 14l36 100l32 -17z" />
    <glyph glyph-name="questiondown" unicode="&#xbf;" horiz-adv-x="449" 
d="M222 431q-7 0 -11 5v1q0 8 -16 38.5t-16 39.5t6 19t15 10q10 0 13.5 -5t6.5 -10q16 -19 46 -20t38 -7.5t8 -27.5v-5q-6 -6 -44 -22t-46 -16zM213 -163q-19 0 -19 18q0 21 15 32q20 17 23 22.5t12 40.5q6 28 17 33q65 31 82 70l6 32q5 22 18 22q12 0 19 -13q4 -18 18 -53
q13 -22 13 -29q0 -14 -11.5 -19t-23.5 -10q-26 -11 -91 -81q-60 -65 -78 -65zM255 313q0 -8 8 -25t8 -24q0 -12 -24 -31q6 -7 11 -14t5 -17q0 -22 -17 -26q2 1 -34 1q-38 0 -73 -43t-35 -82q0 -50 57 -79q32 -14 63 -28l1 -7q0 -13 -26.5 -44t-40.5 -31q-22 0 -33 35
q-19 58 -38 86q-24 35 -72 65l-11 23q0 11 47.5 54.5t51.5 67.5q8 43 33 39l32 -5l9 3q2 2 7 16t5 17v70q0 3 -3.5 9.5t-3.5 10.5q0 23 26 23q75 0 73 0l3 -9q-3 -8 -16 -24.5t-13 -30.5z" />
    <glyph glyph-name="exclamdown" unicode="&#xa1;" horiz-adv-x="178" 
d="M42 428q-8 0 -21 42q-9 33 -12 53q11 10 19 10q10 0 27 -14t31 -14q4 0 11 1t11 1q21 0 21 -20q0 -12 -7 -17q-16 -4 -63 -31q-14 -11 -17 -11zM123 -143q-4 0 -21 8t-21 8q-15 0 -31 -12t-19 -12q-9 0 -18 10t-9 19q0 1 16.5 38.5t16.5 55.5v127q0 7 -5 12q1 29 -2 79
q-3 56 -3 78q0 24 11 38q7 8 32 26q41 -41 41 -64q0 -1 -11.5 -27.5t-12.5 -36.5q-4 -26 -4 -90v-85q0 -42 29.5 -100.5t29.5 -53.5q0 -18 -19 -18z" />
    <glyph glyph-name="logicalnot" unicode="&#xac;" horiz-adv-x="20" 
 />
    <glyph glyph-name="florin" unicode="&#x192;" horiz-adv-x="20" 
 />
    <glyph glyph-name="guillemotleft" unicode="&#xab;" horiz-adv-x="319" 
d="M194 209q-16 24 -41 71q-28 54 -28 70q0 10 28 66.5t37 59.5q-6 11 -6 39q0 20 12 20q6 0 18.5 -5t18.5 -5q9 0 19 9q21 -1 21 -16q0 -11 -15 -23t-18 -17l-70 -128q23 -46 47 -91q27 -54 53 -86q0 -26 -18 -26q-10 0 -23 9q-7 -3 -22 -9q-10 3 -17 15q5 8 5.5 21t0.5 25
h-2v1zM64 209q-16 24 -41 71q-28 54 -28 70q0 10 28 66.5t37 59.5q-6 11 -6 39q0 20 12 20q6 0 18.5 -5t18.5 -5q9 0 19 9q21 -1 21 -16q0 -11 -15 -23t-18 -17l-70 -128q23 -46 47 -91q27 -54 53 -86q0 -26 -18 -26q-10 0 -23 9q-7 -3 -22 -9q-10 3 -17 15q5 8 5.5 21
t0.5 25h-2v1z" />
    <glyph glyph-name="guillemotright" unicode="&#xbb;" horiz-adv-x="319" 
d="M214 208q-1 -16 6 -46q-7 -12 -17 -15q-1 1 -22 9q-13 -9 -23 -9q-18 0 -18 26q26 33 53 86q24 45 47 91l-70 128q-3 5 -18 17t-15 23q0 15 21 16q10 -9 19 -9q6 0 18.5 5t18.5 5q12 0 12 -20q0 -28 -6 -39q9 -3 37 -59.5t28 -66.5q0 -16 -28 -70q-25 -47 -41 -71v-1h-2z
M84 208q-1 -16 6 -46q-7 -12 -17 -15q-1 1 -22 9q-13 -9 -23 -9q-18 0 -18 26q26 33 53 86q24 45 47 91l-70 128q-3 5 -18 17t-15 23q0 15 21 16q10 -9 19 -9q6 0 18.5 5t18.5 5q12 0 12 -20q0 -28 -6 -39q9 -3 37 -59.5t28 -66.5q0 -16 -28 -70q-25 -47 -41 -71v-1h-2z" />
    <glyph glyph-name="ellipsis" unicode="&#x2026;" horiz-adv-x="841" 
d="M470 38l-2 1q-1 1 -15.5 -4l-14.5 -5q-4 0 -8 -15q-1 -4 -2 -12t-12.5 -17t-19.5 -9q-12 0 -23.5 9.5t-14.5 20.5q1 -5 1 34q0 8 -4.5 23.5t-4.5 22.5q0 5 8 11t15 6q2 0 12.5 -6.5t15.5 -7.5l60 -8q45 -8 45 -25q0 -19 -36 -19zM770 38l-2 1q-1 1 -15.5 -4l-14.5 -5
q-4 0 -8 -15q-1 -4 -2 -12t-12.5 -17t-19.5 -9q-12 0 -23.5 9.5t-14.5 20.5q1 -5 1 34q0 8 -4.5 23.5t-4.5 22.5q0 5 8 11t15 6q2 0 12.5 -6.5t15.5 -7.5l60 -8q45 -8 45 -25q0 -19 -36 -19zM170 38l-2 1q-1 1 -15.5 -4l-14.5 -5q-4 0 -8 -15q-1 -4 -2 -12t-12.5 -17
t-19.5 -9q-12 0 -23.5 9.5t-14.5 20.5q1 -5 1 34q0 8 -4.5 23.5t-4.5 22.5q0 5 8 11t15 6q2 0 12.5 -6.5t15.5 -7.5l60 -8q45 -8 45 -25q0 -19 -36 -19z" />
    <glyph glyph-name="uni00A0" unicode="&#xa0;" horiz-adv-x="999" 
 />
    <glyph glyph-name="Agrave" unicode="&#xc0;" horiz-adv-x="565" 
d="M453 -4.5q-18 7.5 -21 7.5q-5 0 -17.5 -6.5t-20.5 -6.5q-11 0 -20 9.5t-9 19.5q0 5 7 21t8 21q3 17 3 41q0 48 -48 223q-46 170 -77 241q-11 26 -26 38q-11 9 -37.5 20t-26.5 33q0 15 12.5 24t26.5 9q9 0 25 -11.5t17 -11.5q11 0 36.5 13t37.5 13q11 0 24.5 -10.5
t13.5 -22.5q0 -3 -1 -5l-2 -5q-13 -36 -13 -56q0 -42 35 -176q19 -57 52 -173q17 -48 46 -145q3 -12 23 -41t20 -36q0 -11 -14.5 -24.5t-25.5 -13.5q-3 0 -6.5 1.5t-21.5 9zM479 1l2 -1q6 0 15.5 9t9.5 14q-1 3 -18 27q-21 31 -25 47q-16 47 -45 144q-19 58 -52 174
q-36 135 -36 179q0 20 16 66q0 4 -8.5 11t-14.5 7q-8 0 -33.5 -13t-40.5 -13q-7 0 -22 11.5t-20 11.5q-24 0 -24 -18q0 -12 16 -19q30 -13 36 -17q24 -17 37 -49q31 -72 78 -243q48 -177 48 -227q0 -34 -17 -78q0 -2 -1 -5q0 -14 14 -14q5 0 17.5 6.5t20.5 6.5q6 0 24 -8
t23 -9zM303 132q-17 10 -47 10q-22 0 -49.5 -11.5t-32.5 -11.5q-29 0 -29 29q0 16 13 25.5t13 14.5q0 3 -4.5 12t-4.5 15q0 11 9.5 20.5t19.5 9.5q9 0 29 -17t36 -17q18 0 40.5 13.5t36.5 13.5q28 0 28 -28q0 -6 -2.5 -16.5t-2.5 -16.5q0 -7 10.5 -21t10.5 -25
q0 -7 -8.5 -17.5t-16.5 -10.5q-6 0 -24 12q-12 9 -25 17zM352 119q10 4 10 12q0 6 -10.5 20t-10.5 26q0 6 2.5 17t2.5 16q0 13 -13 13q-10 0 -33 -13.5t-44 -13.5q-20 0 -41.5 17t-23.5 17q-4 0 -9 -5t-5 -10q0 -3 4.5 -11.5t4.5 -15.5q0 -13 -13 -22t-13 -18q0 -14 15 -14
l1 1q19 7 39 14.5t41 7.5q33 0 52 -11q22 -14 44 -27zM152 64q18 -25 18 -37q0 -17 -14 -27t-30 -10q-9 0 -28.5 9t-26.5 9q-9 0 -29 -7.5t-31 -7.5q-6 0 -17.5 7t-11.5 15q0 24 12.5 24t36.5 24q30 29 45 82l22 92q59 200 59 298q0 9 -3 25.5t-3 24.5q0 41 43 41
q13 0 23 -14t10 -27l28 -22q16 -14 16 -31q0 -14 -21 -47q-25 -38 -28 -48q-12 -35 -48 -169q-38 -146 -38 -168q0 -16 16 -36zM-3 23v-7l1 -1q6 -7 13 -7q10 0 29.5 7.5t30.5 7.5q10 0 29.5 -9t25.5 -9q29 0 29 22q0 7 -17 30t-17 43q0 24 39 171q35 135 48 171q3 10 27 47
q21 34 21 43q0 13 -22 29t-21.5 23t-6 17t-12.5 10q-28 0 -28 -26q0 -8 3 -24.5t3 -25.5q0 -100 -60 -302q-14 -58 -29 -115q-23 -63 -76 -90q-5 -2 -10 -5zM177 784l-1 2q-18 25 -18 37q0 17 22 17q9 0 30 -22t28 -35q25 -14 50 -27q31 -17 31 -46q0 -13 -14 -13
q-29 0 -32.5 9.5t-46.5 24.5t-58 14q-10 0 -10 13q0 8 12 19l4 3q2 2 3 4zM304 712q-1 21 -40 39.5t-40 24.5t-21 27.5t-23 21.5q-5 0 -7 -2q0 -8 10 -21t10 -17q0 -8 -9 -16l-4 -3l-6 -6q25 -3 60 -16q40 -14 51 -29l9 -2q5 -1 10 -1z" />
    <glyph glyph-name="Atilde" unicode="&#xc3;" horiz-adv-x="565" 
d="M453 -4.5q-18 7.5 -21 7.5q-5 0 -17.5 -6.5t-20.5 -6.5q-11 0 -20 9.5t-9 19.5q0 5 7 21t8 21q3 17 3 41q0 48 -48 223q-46 170 -77 241q-11 26 -26 38q-11 9 -37.5 20t-26.5 33q0 15 12.5 24t26.5 9q9 0 25 -11.5t17 -11.5q11 0 36.5 13t37.5 13q11 0 24.5 -10.5
t13.5 -22.5q0 -3 -1 -5l-2 -5q-13 -36 -13 -56q0 -42 35 -176q19 -57 52 -173q17 -48 46 -145q3 -12 23 -41t20 -36q0 -11 -14.5 -24.5t-25.5 -13.5q-3 0 -6.5 1.5t-21.5 9zM479 1l2 -1q6 0 15.5 9t9.5 14q-1 3 -18 27q-21 31 -25 47q-16 47 -45 144q-19 58 -52 174
q-36 135 -36 179q0 20 16 66q0 4 -8.5 11t-14.5 7q-8 0 -33.5 -13t-40.5 -13q-7 0 -22 11.5t-20 11.5q-24 0 -24 -18q0 -12 16 -19q30 -13 36 -17q24 -17 37 -49q31 -72 78 -243q48 -177 48 -227q0 -34 -17 -78q0 -2 -1 -5q0 -14 14 -14q5 0 17.5 6.5t20.5 6.5q6 0 24 -8
t23 -9zM303 132q-17 10 -47 10q-22 0 -49.5 -11.5t-32.5 -11.5q-29 0 -29 29q0 16 13 25.5t13 14.5q0 3 -4.5 12t-4.5 15q0 11 9.5 20.5t19.5 9.5q9 0 29 -17t36 -17q18 0 40.5 13.5t36.5 13.5q28 0 28 -28q0 -6 -2.5 -16.5t-2.5 -16.5q0 -7 10.5 -21t10.5 -25
q0 -7 -8.5 -17.5t-16.5 -10.5q-6 0 -24 12q-12 9 -25 17zM352 119q10 4 10 12q0 6 -10.5 20t-10.5 26q0 6 2.5 17t2.5 16q0 13 -13 13q-10 0 -33 -13.5t-44 -13.5q-20 0 -41.5 17t-23.5 17q-4 0 -9 -5t-5 -10q0 -3 4.5 -11.5t4.5 -15.5q0 -13 -13 -22t-13 -18q0 -14 15 -14
l1 1q19 7 39 14.5t41 7.5q33 0 52 -11q22 -14 44 -27zM152 64q18 -25 18 -37q0 -17 -14 -27t-30 -10q-9 0 -28.5 9t-26.5 9q-9 0 -29 -7.5t-31 -7.5q-6 0 -17.5 7t-11.5 15q0 24 12.5 24t36.5 24q30 29 45 82l22 92q59 200 59 298q0 9 -3 25.5t-3 24.5q0 41 43 41
q13 0 23 -14t10 -27l28 -22q16 -14 16 -31q0 -14 -21 -47q-25 -38 -28 -48q-12 -35 -48 -169q-38 -146 -38 -168q0 -16 16 -36zM-3 23v-7l1 -1q6 -7 13 -7q10 0 29.5 7.5t30.5 7.5q10 0 29.5 -9t25.5 -9q29 0 29 22q0 7 -17 30t-17 43q0 24 39 171q35 135 48 171q3 10 27 47
q21 34 21 43q0 13 -22 29t-21.5 23t-6 17t-12.5 10q-28 0 -28 -26q0 -8 3 -24.5t3 -25.5q0 -100 -60 -302q-14 -58 -29 -115q-23 -63 -76 -90q-5 -2 -10 -5zM363 792l4 4q-1 -5 -12.5 -17t-28.5 -29q-10 -8 -21 -8q-22 0 -40 27q-17 23 -38 23q-19 0 -37 -19l-4 -5
q-9 -10 -47 -20q-1 -4 -5 -12l-1 -3v-3q1 -1 3 -1l2 -1q5 5 12 5q10 0 16 -18h-2l-4 -4q2 5 18.5 24t25 26t19.5 7q21 0 41 -29q16 -21 36 -21t37 19q14 15 19 14t15 3.5t12.5 4.5t4.5 2.5t5 9.5l1 3v4q-1 0 -2 1h-3q-5 -5 -11 -5q-11 0 -16 18h1zM378 788q3 -2 0 -7
q-5 4 -3 9t8 5q2 -1 10 -1q17 -2 17 -20q0 -7 -3 -12t-5.5 -11t-15.5 -7q-3 0 -12.5 -5t-17.5 -4h-1q-27 -33 -54 -32q-31 2 -49 28q-15 22 -28 22q-9 0 -18 -11q-30 -34 -37 -40q-3 -1 -6 -1q-10 0 -13 18v0v0q-4 3 0 7q4 -3 2 -8t-8 -5q-2 0 -9 1q-17 1 -17 19q0 7 3 12
t5.5 11t13.5 8.5t30 9.5q4 4 5 4q26 30 52 29q31 -2 50 -30q14 -20 26 -20q8 0 21 13q9 9 18 19q4 4 11 12q2 6 11 6q10 0 14 -18v0v-1z" />
    </font>
</defs>
</svg>
