<?xml version="1.0" standalone="no"?>
<!DOCTYPE svg PUBLIC "-//W3C//DTD SVG 1.1//EN" "http://www.w3.org/Graphics/SVG/1.1/DTD/svg11.dtd" >
<svg>
<metadata>
Created by FontForge 20120731 at Thu Apr 18 08:27:20 2019
 By www-data
Digitized by Dan X. Solo. Software (c) 1999 by Dover Publications, Inc., New York.
</metadata>
<defs>
<font id="Import" horiz-adv-x="20" >
  <font-face 
    font-family="Import"
    font-weight="400"
    font-stretch="normal"
    units-per-em="1000"
    panose-1="0 0 4 0 0 0 0 0 0 0"
    ascent="800"
    descent="-200"
    x-height="444"
    cap-height="667"
    bbox="-83 -216 1709 835"
    underline-thickness="20"
    underline-position="-123"
    unicode-range="U+0020-F002"
  />
<missing-glyph horiz-adv-x="500" 
d="M63 0v800h375v-800h-375zM125 63h250v675h-250v-675z" />
    <glyph glyph-name=".notdef" horiz-adv-x="500" 
d="M63 0v800h375v-800h-375zM125 63h250v675h-250v-675z" />
    <glyph glyph-name=".null" horiz-adv-x="0" 
 />
    <glyph glyph-name="glyph2" horiz-adv-x="197" 
 />
    <glyph glyph-name="space" unicode=" " horiz-adv-x="197" 
 />
    <glyph glyph-name="exclam" unicode="!" horiz-adv-x="219" 
d="M174 568q0 -20 -12 -56q-12 -32 -22.5 -62.5t-19.5 -80.5q-4 -48 -14 -145q0 -2 -18 -25q-5 -1 -14 3t-10 11q-10 41 -22 176q-5 11 -12 30q-1 27 -5 80q-7 18 -14 48q-1 36 15 76q21 55 60 56q45 2 69 -42q17 -31 19 -69zM167 95q3 -84 -92 -87q-29 -1 -41 4
q-20 10 -21 39q-1 43 -2 39q9 66 74 69q32 1 56.5 -17.5t25.5 -46.5z" />
    <glyph glyph-name="quotedbl" unicode="&#x22;" horiz-adv-x="279" 
d="M240 594q-6 -30 -21 -59q-2 -4 -2 -27q0 -24 2 -30q3 -8 -5 -30t-15 -25q-6 -3 -33 3l3 36q0 6 -2 36q-3 34 -5 34t-12 24.5t-10 29.5t6 51q16 21 20 27q0 3 25 8l42 -10q9 -55 7 -68zM86 532q-3 -6 -8 -25q-5 -22 -3 -26q2 -8 1 -32q-2 -24 -7 -26q-6 -3 -32 3
q-8 33 -8 36q0 76 1 76q-3 0 -13 21.5t-10 26.5t-3 47q15 23 18 28q0 3 23 14l48 -13q9 -55 7 -68q-5 -27 -14 -62z" />
    <glyph glyph-name="numbersign" unicode="#" horiz-adv-x="474" 
d="M138 550q0 21 9 58q8 28 15 57h50q-4 -39 -7 -77q-5 -48 -14 -74l9 1l66 -10l51 4q13 29 25 155h49q-1 -65 -22 -152l23 2q8 0 22 -3.5t22 -3.5q5 0 11 1q1 -35 -12 -82l-46 5l-36 -1q-15 -109 -15 -109.5t-20 -92.5q25 -5 85 4l-14 -32l3 -23l-14 -31l-43 5l-32 -2
q-3 -28 -3 -38q0 -21 -9 -58q-8 -28 -15 -57h-50q4 38 7 76q5 48 14 74q-13 -2 -41 2q-32 4 -42 4l-44 -2q-11 -25 -16 -75l-8 -78h-49q1 64 22 151l-20 -1q-8 -1 -22 2.5t-23 3.5q-6 0 -11 -1q16 40 12 82l46 -4l34 1q15 109 15 110q0 15 8 46q6 23 12 47q-22 2 -83 -6
l15 32l-3 24l14 30l43 -4l29 1q3 29 3 39zM300 428q-10 0 -36 -1q-22 -1 -35 -1q-7 0 -25.5 4.5t-30.5 3.5l-3 -41v0v-2q1 -13 -13 -70q-16 -64 -19 -89l30 1l22 -7q39 14 75 6l3 36v0v2q-1 13 13 70q16 64 19 88z" />
    <glyph glyph-name="dollar" unicode="$" horiz-adv-x="349" 
d="M287 274q0 -50 -25 -89q-28 -45 -76 -45q-7 0 -8 2t-2 2q-18 -34 -13 -96q-28 0 -42 -5q-2 15 0 45q3 35 3 40q0 13 -4 13t-18 -3t-20 -3q-27 0 -52 26t-25 51q0 55 55 55q53 0 53 -35q0 -15 -10 -34q-1 -5 0 -10q13 -9 32 -9q68 0 68 47q0 27 -21 45q-19 15 -63 37
q-50 26 -65 36q-24 16 -37 54q-12 31 -12 61q0 84 72 128q9 6 39 6q6 32 0 66h56q-4 -17 -4 -55q7 -12 27 -15q27 -5 29 -6q18 -9 28 -35q9 -20 9 -36q0 -24 -9.5 -33t-32.5 -9q-54 0 -54 34q0 6 1.5 17t1.5 16q0 21 -26 21q-17 0 -33 -12t-16 -25q0 -29 89 -89
q84 -57 81.5 -61.5t6.5 -24.5q13 -27 15 -34.5t2 -37.5z" />
    <glyph glyph-name="percent" unicode="%" horiz-adv-x="823" 
d="M760 186q2 -60 -7 -82.5t-59 -89.5q-4 -5 -29 -14.5t-32 -10.5q-13 0 -21 5q-2 2 -4 13q0 4 7.5 14.5t8.5 13.5q11 58 11 76q-4 19 -7 54q1 42 -1 123q-1 11 -9.5 39t-8.5 30v23h15q8 1 28 -7q25 -9 40 -22q19 -16 36 -45q22 -39 28 -67q4 -21 4 -53zM330 476
q2 -60 -7 -82.5t-59 -89.5q-4 -5 -29 -14.5t-32 -10.5q-13 0 -21 5q-2 2 -4 13q0 4 7.5 14.5t8.5 13.5q11 58 11 76q-4 19 -7 54q1 42 -1 123q-1 11 -9.5 39t-8.5 30v23h15q8 1 28 -7q25 -9 40 -22q19 -16 36 -45q22 -39 28 -67q4 -21 4 -53zM565 367q0 -5 -8.5 -20
t-8.5 -20l2 -139q-3 -33 -6 -75q0 -18 2 -54q9 -18 18 -46q1 -25 -25 -25q-4 -1 -11 5t-10 7q-23 9 -47 31.5t-30 42.5q-20 63 -21 96q0 12 7 68q4 29 39 88q3 6 38.5 31.5t45.5 25.5q15 0 15 -16zM135 657q0 -5 -8.5 -20t-8.5 -20l2 -139q-3 -33 -6 -75q0 -18 2 -54
q9 -18 18 -46q1 -25 -25 -25q-4 -1 -11 5t-10 7q-23 9 -47 31.5t-30 42.5q-20 63 -21 96q0 12 7 68q4 29 39 88q3 6 38.5 31.5t45.5 25.5q15 0 15 -16zM314 159l-5 2q2 -6 -124 -195l-41 22q93 139 107 161q61 97 95 167q2 16 9 38q126 194 182 323l42 -28
q-42 -86 -135 -248q-90 -158 -130 -242z" />
    <glyph glyph-name="ampersand" unicode="&#x26;" horiz-adv-x="670" 
d="M431 572q0 -28 -33 -64.5t-60 -34.5q-5 6 -5 15q0 10 21.5 31t21.5 48q0 14 -15 40t-23 30v19q1 0 5.5 2.5t10.5 2.5q37 0 60 -36q17 -27 17 -53zM585 373q0 -30 -16 -53q-18 -26 -50 -26q-50 0 -78 51q-6 -6 -21 -17q-10 20 -10 26q0 27 29 64.5t60 37.5q38 0 62 -22.5
t24 -60.5zM623 27q-9 -45 -98 -45q-54 0 -38 -2q-19 2 -46 20q-45 30 -109 119q-26 30 -75 99q-44 76 -90 175q-8 18 -18 60q-9 38 -9 48q0 4 7 43q5 24 33 66q35 51 66 51h21q10 -10 10 -17q0 -6 -5.5 -11t-10.5 -9q-14 -27 -14 -42q0 -52 53 -148q63 -113 64 -116
q2 -7 37.5 -67.5t93.5 -126.5q70 -80 105 -84q13 -2 23 -13zM311 26q0 -26 -113 -53q-31 0 -90 19q-9 8 -27 23q-77 62 -77 183q0 8 10.5 38.5t20.5 47.5q19 32 64 69h15q11 -15 8 -32q-7 -36 -7 -46q0 -54 40 -129.5t78 -90.5q12 -4 38 -6q35 -3 40 -4v-19z" />
    <glyph glyph-name="quotesingle" unicode="'" horiz-adv-x="138" 
d="M69 535q-2 -4 -2 -27q0 -24 2 -30q3 -8 -5 -30t-15 -25q-6 -3 -33 3l3 36q0 6 -2 36q-3 34 -5 34t-12 24.5t-10 29.5t6 51q16 21 20 27q0 3 20 11l47 -13q9 -55 7 -68q-6 -30 -21 -59z" />
    <glyph glyph-name="parenleft" unicode="(" horiz-adv-x="273" 
d="M213 -74q-1 -10 -18 -28.5t-28 -18.5q-5 0 -17.5 9t-17.5 9t-4 -2.5t-5 -2.5t-8.5 2t-4.5 4q-6 21 -25 57q-28 33 -40 75q-18 46 -37 124q-6 74 -6 143q0 149 56 268q6 25 20 70q2 5 38 41q16 18 33 36q21 22 27 22q7 0 12.5 -2.5t6 -3.5t3 -4.5t2.5 -9.5q0 -4 -13 -28
t-16 -39q-23 -124 -23 -144v-125q0 -1 3 -19q2 -13 -1 -21q-10 -26 -10 -74q1 -38 3 -76h-4q0 -115 5 -144q13 -83 69 -118z" />
    <glyph glyph-name="parenright" unicode=")" horiz-adv-x="271" 
d="M216 272q0 -86 -18 -143q-32 -82 -63 -164q-14 -15 -36 -40q-8 -10 -27 -18l-30 -14h-14q-6 0 -7 13q-1 11 2 17q30 54 46 127q4 21 1 66q-4 59 -4 49v140q0 4 4.5 64t4.5 66q0 123 -37 235q-2 5 -18 23t-16 24q0 8 6 13h22q6 0 49 -30.5t49 -40.5q21 -34 31 -67
q16 -32 40 -101q15 -72 15 -219z" />
    <glyph glyph-name="asterisk" unicode="*" horiz-adv-x="430" 
d="M296 603v0q-11 4 -7 8l2 1l5 4l16 12l34 25l27 -62l-32 -16l-19 -19l-63 -28l64 -33l-2 -4q2 1 5 2l5 -4l42 -35l-28 -48l-31 20l-26 7l-56 40l4 -73h-10v-1v1q2 5 10 -3l-1 -7l-10 -53h-55l2 37l-7 26l7 68l-118 -67l-25 55l92 51l16 12l-119 69l46 55l81 -60l19 -8
l1 135l60 -6l-2 -106l3 -24q30 17 32 19v0l33 19l2 -5v0z" />
    <glyph glyph-name="plus" unicode="+" horiz-adv-x="492" 
d="M408 358v0q1 9 2 9.5t8 0.5l66 -3l-4 -67l-97 -2l-97 -4l-4 1l-7 -139l7 -68l-66 1l-10 24l-3 90l1 87l-136 7l-69 -7l2 66l24 9l90 4l88 -2l-2 130h5q-5 0 -5 9l-1 67l73 -4l-4 -64l9 -130l-1 -7l131 2v-10z" />
    <glyph glyph-name="comma" unicode="," horiz-adv-x="284" 
d="M201 77q0 -38 -17 -82t-40.5 -61t-45.5 -34q-27 -19 -38 -19q-5 0 -13.5 5.5t-12.5 6.5q3 8 28 22q36 20 30 84q-39 19 -52 30q-24 20 -24 50q0 23 15 52q17 33 36 37q34 7 49 7q85 0 85 -98z" />
    <glyph glyph-name="hyphen" unicode="-" horiz-adv-x="383" 
d="M322 249q0 -20 -13 -46q-15 -11 -43 -11h-238q-5 4 -7.5 15t-4.5 21q-7 24 -7 45q0 60 29 59h283q-5 -3 -6 -22t-2 -20q9 -22 9 -41z" />
    <glyph glyph-name="hyphen" unicode="&#x2010;" horiz-adv-x="383" 
d="M322 249q0 -20 -13 -46q-15 -11 -43 -11h-238q-5 4 -7.5 15t-4.5 21q-7 24 -7 45q0 60 29 59h283q-5 -3 -6 -22t-2 -20q9 -22 9 -41z" />
    <glyph glyph-name="period" unicode="." horiz-adv-x="284" 
d="M186 90q0 -47 -36.5 -80.5t-73.5 -33.5q-41 0 -61 35q-14 26 -14 60q0 39 19 67q8 11 39 28t50 17q28 0 54 -36q23 -33 23 -57z" />
    <glyph glyph-name="slash" unicode="/" horiz-adv-x="353" 
d="M266 551l-26 -99l-41 -94q-15 -34 -34 -109q-16 -66 -37 -106l-46 -86l-43 -108l-52 20l80 191l42 129l20 34l4 39l59 134l28 98l47 117l53 -28z" />
    <glyph glyph-name="zero" unicode="0" horiz-adv-x="489" 
d="M444 333q0 -18 -5 -84q-6 -70 -9 -79q-7 -12 -19 -39q-3 -9 -12 -26q-7 -11 -21 -30q-65 -74 -83 -74h-22q-3 2 -6.5 4t-3.5 9q0 5 5.5 13t6.5 11q10 33 10 90l-13 418q0 29 -6 77q0 3 -5.5 14t-5.5 17q0 10 10 13q42 -6 83 -48q18 -18 64 -80q6 -8 22 -74
q10 -43 10 -132zM207 3q-6 -6 -19 -6q-25 0 -53 14q-19 17 -60 53q-8 3 -21 12q-15 17 -21 58l-8 58q-7 11 -15 30q-5 38 -5 53v132q0 25 31 114q15 42 70 108q7 9 35 24.5t36 15.5q17 0 17 -20q0 -5 -5.5 -16t-5.5 -14q-10 -61 -10 -129l4 -172q4 -32 1 -108t1 -113
q6 -60 28 -94z" />
    <glyph glyph-name="one" unicode="1" horiz-adv-x="443" 
d="M366 8q0 -16 -16 -16h-267l-10 10q2 17 22 22l34 6q2 36 -1 175q-2 110 8 173q3 19 2 58t2 59q2 10 2 23q0 19 -6.5 54.5t-6.5 48.5q0 30 26 30q4 0 21.5 -2t23.5 -2q5 0 39.5 6.5t40.5 6.5q12 0 17 -28q2 -19 4 -39l-4 -559q18 -5 59 -12q2 -2 5 -7t5 -7zM102 539
q5 -13 5 -28q0 -16 -7.5 -42t-7.5 -37q0 -9 3 -16q-9 -9 -32 -9q-21 0 -29 8v10q0 9 27.5 57.5t40.5 56.5z" />
    <glyph glyph-name="two" unicode="2" horiz-adv-x="449" 
d="M390 449q0 -47 -6 -67.5t-48 -78.5q-122 -95 -149 -95q-21 0 -21 15q0 7 14 24t16 23q-1 8 1 23q13 29 32 90q10 60 10 135q0 33 -2 40q-3 15 -16 46q-12 28 -12 33v18h32q8 1 44 -10q57 -16 84 -80q21 -50 21 -116zM170 477q0 -9 -6 -29t-12.5 -27.5t-29.5 -13.5
q-19 -5 -30 -5q-77 0 -77 92q0 122 102 157q10 -10 10 -17q0 -5 -21.5 -33t-21.5 -34q0 -16 22 -21q34 -7 42 -13q22 -15 22 -56zM377 179q0 11 -15 -181q-5 -10 -20 -10q-5 0 -28.5 2t-29 2t-31.5 4.5t-31 4.5q-150 0 -201 -13q-10 10 -10 15q0 19 25 73q29 60 51 64
q68 12 77 12l64 -2.5t95 -2.5q6 3 12 31q6 25 18 25q4 0 24 -9v-15z" />
    <glyph glyph-name="three" unicode="3" horiz-adv-x="470" 
d="M387 521q0 -100 -118 -128q-7 -2 -31.5 -13t-30.5 -11h-22q1 7 15 23.5t17 22.5q9 18 10 54v57q1 5 7 28.5t6 29.5q0 19 -9 36q-16 31 -21 44q10 10 30 10q63 0 105 -46.5t42 -106.5zM171 537q0 -31 -26 -54.5t-53 -23.5q-25 0 -50 36q-22 31 -22 48q0 34 19 66
q4 6 38.5 33.5t46.5 27.5q17 0 17 -15q0 -5 -34 -39q4 -7 39 -34q25 -20 25 -45zM408 177q0 -78 -57 -135t-132 -57q-14 0 -31 19q28 41 32 47q16 29 16 52q0 60 2 95.5t2 29.5q0 5 -7.5 26.5t-8.5 29.5q2 8 2 25q-7 8 -16 28q2 0 7.5 3t11.5 3q38 0 82 -19.5t61 -46.5
q11 -18 23.5 -54t12.5 -46zM154 164q0 -41 -20 -59q-9 -8 -37 -19q-21 -8 -21 -21q0 -4 1 -8q7 -9 13 -18q9 -14 9 -26q0 -5 -2 -10h-45l-7 17q-25 17 -36 32q-4 4 -11.5 38t-7.5 48q0 31 27.5 57.5t63.5 26.5q20 0 46.5 -21t26.5 -37z" />
    <glyph glyph-name="four" unicode="4" horiz-adv-x="481" 
d="M317 678q1 -11 -3 -36t-4 -39q0 -81 -91 -200l-164 -200q12 -8 42 -29v-21q-18 -9 -27 -9q-79 0 -78 1q-6 5 -6 17q0 3 42 93q49 103 64 142q1 20 7 60q2 10 23 44q5 8 7 29q5 67 13 138q5 12 21 18q45 1 129 1q15 0 25 -9zM421 172q0 -9 -10 -19h-54l4 43h23
q37 1 37 -24zM403 20q-40 -12 -135 -9q-2 0 -46 -2q-55 -1 -137 -1q6 16 22 40q15 2 41 14q3 8 10 85q0 4 -5.5 14.5t-6.5 14.5q-1 6 11 49q-4 15 -2 47q2 8 27 27q32 26 37 31q9 9 47 55q28 35 34 35q21 0 21 -69q0 -26 -3 -62v-121q0 -4 2 -42q2 -41 2 -60q28 -4 81 -22
v-24z" />
    <glyph glyph-name="five" unicode="5" horiz-adv-x="522" 
d="M369 672q0 -23 -54 -100q-5 -7 -20 -14l-22 -10q-50 -29 -85 -29q11 0 -36 2q-31 2 -46 -1v-84q5 -3 23 -2.5t28 -9.5v-29q-18 -8 -51 -50q-9 -11 -32 -11q-7 0 -12 2.5l-5 2.5v339q24 9 30 9q4 0 39 -9q42 -11 56 -14q34 -7 36 -7q22 0 79.5 17.5t54.5 17.5q17 0 17 -20
zM429 226q0 -55 -1 -67q-5 -36 -58 -92q-55 -59 -97 -66q-12 -7 -19 -7h-35q0 2 -2.5 6.5t-2.5 10.5l6 15q9 3 19 32q9 26 9 37v245q0 5 -13 38.5t-13 37.5q0 26 24 26q20 0 61 -15q13 -11 39 -32q12 -4 34.5 -17t46.5 -84q2 -5 2 -68zM184 151q0 -35 -19 -52q-8 -7 -36 -17
q-19 -7 -19 -19q0 -5 18 -24t21 -26q-2 -3 -5 -8t-5 -7q-119 31 -119 112q0 41 15 71q21 41 67 41q28 0 53 -20q29 -22 29 -51z" />
    <glyph glyph-name="six" unicode="6" horiz-adv-x="563" 
d="M407 577q0 -36 -25.5 -60t-55.5 -24q-24 0 -46.5 20t-22.5 39q0 53 69 78q-9 21 -22 28v15q10 10 17 10q15 0 43 -21q25 -19 29 -28q14 -31 14 -57zM463 259q0 -61 -10 -96q-5 -16 -20 -42q-18 -31 -35 -44q-34 -25 -68 -51q-29 -19 -52 -19q-17 0 -17 19q0 5 10 21
q13 20 14 23q6 12 6 38q0 27 -12 77q-1 4 1 17.5t2 17.5v150q0 26 -25 42v29q10 9 17 9q8 0 38.5 -9t46.5 -18q34 -20 69 -74.5t35 -89.5zM239 661q0 -3 -13.5 -26t-15.5 -32q-13 -58 -13 -120v-119q-1 -80 -1 -79v-165q0 -1 4 -42.5t4 -61.5q-1 0 -4.5 -2.5t-9.5 -2.5
q-30 0 -49 19q-43 43 -86 104q-3 12 -21 64q-14 42 -14 48v128q0 10 8 49q9 47 19 73q26 72 69 126q16 20 56 40q34 17 46 17q21 0 21 -18z" />
    <glyph glyph-name="seven" unicode="7" horiz-adv-x="429" 
d="M394 641q0 -6 -9 -31q-12 -31 -14 -39q-18 -12 -60 -35q-27 -10 -76 -21q-43 -10 -54 -10q-4 0 -46.5 4.5t-48.5 4.5q-17 0 -28 -34.5t-23 -34.5q-5 0 -12 2t-11 2q-3 8 0 22q3 17 3 19v111q0 9 3.5 25.5t3.5 23.5q0 13 -6 22h22q6 1 26 -4q26 -6 36 -7q37 -5 111 -5
q6 0 72.5 6.5t72.5 6.5q38 0 38 -28zM321 458q0 -3 -23 -64q-25 -67 -32 -103q-8 -20 -21 -56q-9 -28 -16 -116q-6 -11 -14 -35q-4 -30 -15 -91q-25 5 -67 15q-8 2 -30 -2q-26 -4 -37 -4q-19 0 -33 8q1 24 5 67q10 27 27 82q0 17 8 52q10 22 34 57q46 65 48 68q9 14 67 74
q66 69 80 69q19 0 19 -21z" />
    <glyph glyph-name="eight" unicode="8" horiz-adv-x="543" 
d="M427 535q0 -20 -18 -59q-20 -44 -38 -44q-37 0 -46 14q-12 17 -7 57q5 47 0 73q-6 28 -17 51q-10 8 -29 25v16q7 14 24 14q5 0 21.5 -7.5t21.5 -9.5q43 -12 69 -61q19 -38 19 -69zM466 199q0 -8 -8 -43q-9 -38 -16 -55q-10 -26 -66.5 -65t-88.5 -39q-9 0 -24 13v16
q19 12 38 23q36 24 36 42q0 5 -19 71q-5 16 -21 33q-8 8 -139 115q-98 81 -107 123q-6 18 -11 36q-9 31 -9 40q0 49 40 107q45 66 102 66q11 0 21 -10v-19q0 -6 -8 -13q-11 -11 -12 -13q-14 -22 -14 -51q0 -15 8.5 -41t17.5 -35q35 -33 107 -93l60 -33q37 -24 75 -77
q6 -6 14 -17q24 -59 24 -81zM176 5h-35q-11 0 -57 14q-29 9 -65 60q-14 21 -14 71q0 43 23 83q30 52 87 61q18 -17 20 -80q-10 -14 -10 -32q0 -5 3 -17.5t3 -19.5q0 -78 45 -130v-10z" />
    <glyph glyph-name="nine" unicode="9" horiz-adv-x="523" 
d="M454 384q0 -22 -10 -77l-10 -54q-7 -78 -65 -159q-55 -76 -110 -97h-20q0 2 -2 9.5t-1 10.5q9 10 23 34q16 43 17.5 74.5t1.5 158.5v132q0 4 2 53t2 55q0 52 -6 73q-2 8 -14 31q-10 20 -10 26q0 5 2.5 7.5t2.5 6.5h16q8 1 37.5 -13.5t43.5 -26.5q23 -19 60 -81
q7 -13 23.5 -80.5t16.5 -82.5zM196 658q0 -5 -8.5 -27.5t-8.5 -28.5v-318q1 -2 17 -17v-28q-6 -5 -15 -5q-4 0 -26 9t-35 10q-53 7 -85 85q-24 58 -24 107q0 51 8 80t36 74q12 18 43 42q15 11 39.5 21.5t32.5 10.5q26 0 26 -15zM209 124q0 -30 -17 -43q-8 -6 -31 -12
q-17 -5 -17 -14q0 -12 26 -38v-16q-2 0 -6.5 -2t-10.5 -2q-5 0 -16 7q-75 27 -75 92q0 29 19 55q22 31 59 31q18 0 43.5 -19.5t25.5 -38.5z" />
    <glyph glyph-name="colon" unicode=":" horiz-adv-x="284" 
d="M186 436q0 -12 -24 -54q-6 -11 -36 -23.5t-43 -12.5q-26 0 -54 24t-28 53q0 34 15 61q20 37 62 39q4 0 13.5 4t15.5 4q38 0 60 -32q19 -27 19 -63zM186 90q0 -47 -36.5 -80.5t-73.5 -33.5q-41 0 -61 35q-14 26 -14 60q0 39 19 67q8 11 39 28t50 17q28 0 54 -36
q23 -33 23 -57z" />
    <glyph glyph-name="semicolon" unicode=";" horiz-adv-x="284" 
d="M212 449q0 -17 -16.5 -51.5t-28.5 -41.5q-32 -19 -45 -19q-20 0 -49 13q-34 15 -49 37q-10 15 -10 47q0 40 32 65q28 23 65 23q34 0 63 -16q38 -20 38 -57zM194 77q0 -38 -17 -82t-40.5 -61t-45.5 -34q-27 -19 -38 -19q-5 0 -13.5 5.5t-12.5 6.5q3 8 28 22q36 20 30 84
q-39 19 -52 30q-24 20 -24 50q0 23 15 52q17 33 36 37q34 7 49 7q85 0 85 -98z" />
    <glyph glyph-name="less" unicode="&#x3c;" horiz-adv-x="500" 
d="M0 291v92l384 201v-90l-309 -158l309 -158v-88z" />
    <glyph glyph-name="equal" unicode="=" horiz-adv-x="556" 
d="M5 293l76 6q39 -12 60 -12q8 0 25.5 4.5l17.5 4.5q55 -6 116 -6q6 0 27 4.5t27 4.5q65 0 124 -10l6 -63h-78q-30 3 -69 5q-52 -3 -86 -5q8 0 8 1q0 6 -57 6q-49 0 -90 -7q1 0 -46 7q-30 -4 -61 -7v67zM5 443l76 6q39 -12 60 -12q8 0 25.5 4.5l17.5 4.5q55 -6 116 -6
q6 0 27 4.5t27 4.5q65 0 124 -10l6 -63h-78q-30 3 -69 5q-52 -3 -86 -5q8 0 8 1q0 6 -57 6q-49 0 -90 -7q1 0 -46 7q-30 -4 -61 -7v67z" />
    <glyph glyph-name="greater" unicode="&#x3e;" horiz-adv-x="500" 
d="M384 291v92l-384 201v-90l308 -158l-308 -158v-88z" />
    <glyph glyph-name="question" unicode="?" horiz-adv-x="441" 
d="M403 517q1 -27 -10 -66.5t-24 -48.5q-62 -45 -85 -65q-54 -47 -69 -84q-2 -5 0 -14q4 -12 4 -15q-8 0 -27.5 -5.5t-24.5 -5.5q-7 -1 -17 10t-10 19q0 10 15 47q18 43 38 67q23 15 56 48q14 28 12 85q-2 56 -38 129q-9 17 -32 22v16q3 8 17 16q136 5 171 -88
q12 -24 24 -67zM154 641q0 -6 -22 -30q12 -37 12 -52q2 -40 -32 -63q-26 -18 -62 -19q-28 -1 -49 27q-6 45 31.5 99.5t83.5 56.5q17 0 38 -19zM267 95q3 -84 -92 -87q-29 -1 -41 4q-20 10 -21 39q-1 43 -2 39q9 66 74 69q32 1 56.5 -17.5t25.5 -46.5z" />
    <glyph glyph-name="at" unicode="@" horiz-adv-x="740" 
d="M593 169h53q-26 -55 -74 -95q-98 -82 -218 -82q-164 0 -264 127q-70 90 -70 206q0 153 112 250q96 84 224 84q133 0 223 -90q78 -78 78 -186q0 -115 -89 -185q-61 -48 -123 -48q-33 0 -56 21q-8 8 -14 24q-56 -46 -104 -46q-54 0 -85.5 37t-31.5 91q0 78 54 146
q61 77 137 77q63 0 94 -52l14 37h72l-78 -236q-9 -27 -9 -37q0 -24 28 -24q44 0 89 50q55 60 55 142q0 102 -77 170q-73 65 -177 65q-131 0 -215 -96q-70 -80 -70 -193q0 -121 82 -205t203 -84q98 0 180 67q35 28 57 65zM382 289l22 64q12 32 12 51q0 22 -14 38.5t-36 16.5
q-42 0 -77 -47q-26 -36 -42 -86q-13 -42 -13 -75q0 -26 12.5 -45t37.5 -19q63 0 98 102z" />
    <glyph glyph-name="A" unicode="A" horiz-adv-x="562" 
d="M523 26q0 -11 -10 -18q-6 -1 -30 -4q-20 -2 -27 -2l-106 4l-89 -4q-8 0 -19 9v16q8 6 35 9q24 4 29 13q-5 23 -25 99q-8 20 -18.5 56t-4.5 62q3 0 -37 92l-10 69l-25 58l-20 72q6 37 13 74q5 24 17 29t57 5q49 0 55 -14q15 -34 22 -60q-3 -15 -2 -47q2 -11 16 -36t17 -37
q5 -38 18 -107q9 -20 25 -63q2 -15 6 -41q3 -10 35 -98q2 -55 6 -72q4 -9 13 -39q4 -15 18 -15q6 0 9 2t8 2q9 0 24 -14zM204 224q-7 -4 -28 -2t-28 -5q-12 -12 -22 -48q-7 -28 -7 -42q0 1 -3 -27q-2 -23 0 -30q3 -9 18 -22t15 -18q0 -28 -79 -28q-5 0 -14 3.5t-12 3.5
q-4 1 -14 -1q-13 -2 -17 -2q-12 0 -21 9q3 3 10 20q5 11 25 18q48 79 55 164q7 21 18 64q8 43 12 58q10 40 25 66h19q2 -5 12.5 -18.5t10.5 -18.5q0 -13 -22 -87q9 -11 33 -7q14 -41 14 -50z" />
    <glyph glyph-name="B" unicode="B" horiz-adv-x="573" 
d="M504 510q0 -56 -61 -103q-56 -44 -109 -44q-5 0 -15 2.5t-15 2.5l-15 16q0 3 20.5 24.5t22.5 33.5q2 36 6 101q0 -3 0 24q0 30 -46 65v24h73q24 0 64 -23q36 -21 47 -37q28 -39 28 -86zM525 174q0 -56 -34 -101q-40 -51 -112 -64q-64 -11 -58 -11q-30 0 -30 23
q0 17 19.5 26.5t25.5 33.5q10 40 10 93q0 55 -3 71q-8 43 -43 69q11 20 36 20q66 0 124 -44q65 -48 65 -116zM227 89q0 -4 -4.5 -31.5t-5.5 -41.5q-9 -10 -36 -10q-6 0 -80 -2t-80 -2q-11 0 -19 14v20q4 2 40 7q24 3 24 21l7 78l-7 37l7 44l-7 138l7 49l-7 49l10 92
q0 5 -7 29q-9 29 -11 37q-7 4 -34 6q-18 1 -22 14v15q1 0 19 11q21 1 72 4q48 2 52 2q26 0 76 -18q-1 -31 4 -85q7 -58 7 -55l-12 -133l7 -135l-7 -64z" />
    <glyph glyph-name="C" unicode="C" horiz-adv-x="511" 
d="M430 477q0 -28 -28 -36q-15 8 -21 29q-3 16 -7 32q-17 40 -37 77q-6 12 -29 37q-15 17 -15 32q1 29 28 28q42 -1 94 -12q3 -2 8 -8q0 -31 4 -106q3 -70 3 -73zM453 64q-1 -33 -4 -44q-7 -24 -30 -24q-13 0 -51 8q-7 2 -34 -4q-32 -6 -43 -6q-10 0 -15 3l6 19q0 5 21 24
q28 25 34 32q25 29 41 86q10 41 19 82q2 6 11.5 14t17.5 8q19 0 20 -15q7 -162 7 -183zM218 3q-10 -9 -26 -9q-8 0 -37 11.5t-42 21.5q-37 28 -65 95q-9 13 -20 35q-20 59 -20 119q0 6 -1.5 30t-1.5 30q0 27 1 55q1 19 8 46q10 38 23 85q8 21 20 37q19 25 27 38t56 41
q54 31 84 29q12 -1 13 -11q-1 14 -2 -12q0 -5 -22 -26t-25 -30q-13 -44 -14 -87l-18 -130q0 -1 6 -80.5t6 -106.5q0 -10 -1 -29t-1 -29q0 -67 52 -103v-20z" />
    <glyph glyph-name="D" unicode="D" horiz-adv-x="589" 
d="M528 304q0 -29 -14 -104q-4 -21 -17 -40q-2 -17 -11 -48q-25 -44 -91 -81q-61 -34 -98 -32q-6 0 -12.5 2.5t-8.5 3t-4 11.5q0 16 14 24q18 8 35 16q25 15 28 32q6 28 7 87q0 5 -1.5 46t-1.5 46l11 76l-12 83q0 51 -1 70q-3 25 -36 73q-32 45 -32 73q1 19 28 18
q94 -1 160 -84q12 -14 19 -44.5t13 -60.5q6 -13 15 -37q11 -63 10 -130zM225 224q-3 -16 -8 -45q-3 -16 2 -71q-3 -20 -3 -59.5t-10 -43.5q-36 -9 -51 -9q-6 0 -58 -1t-57 -1q-25 0 -46 23q4 20 27 30q27 12 33 22q2 53 6 109q1 1 -2.5 37.5t-4.5 40.5q0 1 2.5 22.5
t2.5 35.5q0 35 -6 77l6 52q4 47 2 49q-2 1 -5.5 24t-2.5 25q1 8 -3 57l-28 14q-17 9 -17 26q1 16 15 27q68 -1 100 -3q13 -2 26 -3q5 0 24.5 4t25.5 4q29 -1 28 -49l-13 -68q14 -55 10 -55q-7 -40 -13 -83q1 -3 11 -135q-1 -5 3 -26t4 -27z" />
    <glyph glyph-name="E" unicode="E" horiz-adv-x="554" 
d="M486 449q-1 0 -5.5 -2.5t-11.5 -2.5t-17 23l-12 28q-7 10 -25 38q0 10 -7 29q-17 9 -40 26q-7 9 -41 33q-26 17 -27 34q12 14 34 14l13 -1t36 -2q34 -1 90 -1q14 -36 13 -70l-8 -59zM379 168h-32q-8 36 -37 105q-9 10 -26 31q-26 37 -26 41q0 8 26 40q29 18 27 18t13 31
q9 30 32 90q18 0 23 -14v-342zM503 29q0 -27 -43 -27q-123 0 -162 4l-7 -3v26q0 11 31 23q43 15 68 39q43 40 65 118q3 15 6.5 29.5t20.5 14.5q7 0 21 -14v-79l-5 -41zM236 429q0 -4 -4.5 -20t-4.5 -22l2 -111l-11 -90q0 2 4.5 -27t4.5 -57q-1 -58 -2 -90q-15 -14 -40 -14
h-70q-101 0 -118 18v24q45 6 57 14q16 11 16 44q0 4 -4 46t-4 48l5 72l-5 75q0 -6 3 34.5t2 78.5q-4 24 -9 69l-2 82q-7 7 -38 14q-24 6 -24 22q0 26 53 26q34 0 93 -3h47q28 -1 44 -11l-8 -66l8 -63q0 -5 2.5 -46t2.5 -47z" />
    <glyph glyph-name="F" unicode="F" horiz-adv-x="524" 
d="M491 642q0 -5 -4.5 -41t-4.5 -41v-117l-20 -4q-10 34 -36 98q-30 51 -70 79q-18 7 -48 28v14q8 7 25 8q12 1 31 0q25 -1 27 -1q13 0 35.5 3.5t26.5 3.5q10 0 24 -11t14 -19zM372 385q0 -2 -4.5 -37.5t-4.5 -51.5q1 -94 -11 -118l-18 1q-6 29 -23 82q-6 14 -32 56
q-22 35 -22 41q0 4 24 39q27 39 34 57q6 22 24 65h19q14 -36 14 -134zM295 28q0 -12 -5 -16q-70 -10 -118 -10h-115q-45 0 -56 10v20q17 18 40 18q19 0 24 4t5 21q0 4 -5.5 22.5t-5.5 28.5q-3 74 5 78q2 1 -3 37q-4 33 -6 38q3 27 6 58q0 23 -3 49q1 33 2 84q1 58 -4 135
q-8 8 -35 15q-19 5 -19 24q0 6 10 22q19 -2 60 0q51 2 45 2q44 0 104 -11q3 -74 2.5 -224t2.5 -226q1 -42 2 -134q10 -9 44 -17q23 -6 23 -28z" />
    <glyph glyph-name="G" unicode="G" horiz-adv-x="579" 
d="M452 612q0 -68 -1 -109q-1 -29 -2 -42.5t-1 -10.5q-1 -1 -1 -2q-4 -4 -12 -4q-14 0 -20 18q-17 53 -38 98q-2 8 3 13q-14 5 -40.5 31.5t-36.5 45.5q3 6 10 13q15 1 59 4q38 2 62 2q10 -11 18 -57zM231 636q-44 -27 -51 -82l-2 -82q0 -10 -3 -44q-2 -29 -2 -46q0 -4 1 -44
q2 -32 0 -49q0 -6 -3.5 -26.5t-3.5 -26.5q0 -1 11 -117q-1 -19 3 -55q3 -8 20 -24t17 -21q0 -25 -34 -25q-80 0 -156 137q-5 10 -9 32l-6 36q-16 70 -16 120q0 97 57 238q11 29 44 60q30 29 54 38q38 14 60 14q12 0 19 -14v-19zM537 295q0 -16 -17 -22q-3 -1 -31 -5
q-6 -9 -15 -22q8 -59 8 -105v-108q0 -8 -7.5 -17.5t-16.5 -9.5q-5 0 -18.5 7.5t-20.5 8.5t-24 1l-77 -25h-26q-10 10 -10 15q0 4 9 16t11 18q14 45 14 138q0 72 -12 83q-17 3 -35 6q-25 7 -25 26q0 17 43 16h240q10 -10 10 -21z" />
    <glyph glyph-name="H" unicode="H" horiz-adv-x="637" 
d="M602 17q-5 -5 -14 -13q-8 -1 -50 -1h-186q-24 0 -30 3v26q10 16 33.5 18t28.5 7q0 12 -2 32q-3 25 -3 36q-2 24 1.5 61.5t3.5 33.5l-9 83l6 70l-6 64q0 -10 3 30q2 35 1 84q-4 18 -7 57l-36 14q-25 10 -25 21q0 4 10 21l49 -3l46 9l58 -9q60 9 60 6q0 -4 42 -3
q15 -19 13 -35q-19 -9 -55 -25v-61l-8 -58l8 -98l-8 -135l8 -61l-5 -78q0 -8 8 -33.5t13 -29.5q17 -4 34.5 -10t17.5 -23zM328 356q0 -32 -32 -32q-5 0 -15 1t-15 1q-22 0 -32 -11q-4 -5 -4 -51q0 -4 4 -27.5t4 -29.5l-6 -111q0 -4 5.5 -20t5.5 -23q3 -1 35 -10
q20 -6 20 -21q-6 -10 -22 -18q-12 -5 -16.5 -5t-112 -2t-112.5 -2q-15 0 -28 14q6 21 30 28q37 11 39 12l6 99l-12 95l12 66l-9 69l9 87l-6 69v70q-23 8 -68 29q-1 2 -4 7.5t-3 8.5q0 8 14 18q9 0 32 -2.5t35 -2.5t35 2.5t37 2.5q12 0 34.5 -2.5t33.5 -2.5q13 3 38 5
q5 -1 14.5 -6.5t9.5 -12.5l-3 -22q-3 -4 -9 -4q-2 0 -8 1t-10 1q-13 0 -22 -12q-3 -18 2 -51l6 -36l-6 -31l9 -46l-9 -65q11 -12 24 -12h28.5h36.5l1 -1q4 -4 4 -14z" />
    <glyph glyph-name="I" unicode="I" horiz-adv-x="320" 
d="M272 8q-14 -13 -108 -13q-101 0 -145 5q-7 4 -18 13q0 6 5.5 17t12.5 14q15 7 35 7q11 15 11 93q0 5 -3.5 12t-3.5 12q-4 67 1 159q0 -1 0 34q0 7 -4.5 33t-5.5 35q-1 10 3.5 38t4.5 31v114q-19 7 -37 13q-24 8 -19 28q1 1 19 12q60 3 133 -1q18 -2 43 1l29 2
q17 0 38 -14v-23q-3 -11 -18 -14q-23 -3 -29 -6q-8 -14 -8 -46q0 7 3 -65.5t2 -120.5q4 -28 6 -82q-8 -94 -6 -239q5 -7 25.5 -10t33.5 -19v-20z" />
    <glyph glyph-name="J" unicode="J" horiz-adv-x="513" 
d="M467 631q-7 -10 -24.5 -17.5t-26.5 -6.5q-146 2 -248 5q-3 0 -6 1q95 -4 248 -12q0 -24 1 -50q-3 -22 -5 -72q0 -4 3 -18t3 -19q0 -14 -3 -41.5t-3 -42.5q0 -5 3 -17t3 -17q0 -11 -1.5 -34.5t-1.5 -35.5q0 -9 1.5 -29t1.5 -29t4 -39q4 -26 1 -42q-2 -16 -21 -46
q-15 -25 -31 -49q-13 0 -44 -9t-34.5 -9t-17 -2.5t-22.5 -2.5q3 31 6 139q-3 22 -5 67q1 24 2 69q-1 34 -1 92q0 22 7 43l-6 58l6 72q-11 43 -11 64q-3 9 -35 13q-28 4 -28 29t66 25l60 -10l66 9l90 -8q0 -3 2 -13t1 -15zM173 7q-1 0 -8 -5t-13 -5q-40 0 -96 38
q-63 44 -63 93q0 36 27 62t63 26q31 0 55 -17q31 -20 31 -58q0 -20 -19 -48.5l-19 -28.5q0 -6 16 -25q21 -23 26 -32z" />
    <glyph glyph-name="K" unicode="K" horiz-adv-x="642" 
d="M531 632q0 -11 -13 -28t-27 -20q-30 -8 -55 -42l-36 -56q-1 -2 -3.5 -4t-8.5 -2q-12 0 -22 17t-10 26q0 4 8.5 20t8.5 20q0 6 -13 36t-13 35q0 18 14 28q27 -1 78 0q64 2 54 2q38 0 38 -32zM604 5q-20 -13 -51 -13q-64 -2 -95 3q-35 6 -26 6q-4 0 -43 -3q-42 -2 -61 -3
q-20 11 -20 16q0 15 17 20q30 9 31 10q-6 31 -25 89q-6 10 -17 29q-5 21 -18 64q0 1 -20 46q-14 30 -14 49v40q2 13 33 58q35 52 37 55q4 8 8 8q10 0 27 -42.5t33 -84.5q14 -26 41 -83q3 -17 11 -46q15 -23 39 -66q4 -8 15 -49q9 -37 26 -61q6 -4 21 -4q5 0 12.5 2t12.5 2
q7 0 26 -18v-24zM296 632q0 -20 -16 -23q-27 -7 -29 -8q-15 -10 -15 -46l-9 -84q0 -6 2 -69.5t2 -68.5v-126q0 -4 -4 -54.5t-4 -55.5q0 -43 12 -57q10 -1 29 -3q10 -5 19 -21v-15q-13 -6 -38 -6q8 0 -68 4q-66 3 -97 1q-42 -3 -33 -3q-38 0 -38 22q0 16 24 20l28 2
q12 21 12 86l1 191q0 90 -1 89v70q-8 14 -8 36q0 7 1 21.5t1 21.5q0 28 -15 43l-29 10q-23 8 -23 23q0 17 51 32q54 -9 61 -9q-2 0 20.5 5.5t40.5 4.5q84 -4 99 -3q7 -3 15.5 -13t8.5 -17z" />
    <glyph glyph-name="L" unicode="L" horiz-adv-x="567" 
d="M526 23q0 -8 -7 -17.5t-16 -9.5h-14h-40q-6 0 -25 4t-35 4q-6 0 -32.5 -4t-33.5 -4q-10 15 -9 34q5 4 14 11q49 14 98 82q42 58 59 115q4 14 22 23q5 -4 19 -4l-8 -92l8 -42v-100zM317 633q0 -24 -29 -29.5t-31 -20.5q-9 -48 -1 -92q8 -40 3 -78q-6 -49 -5 -105
q0 -31 2.5 -61.5t2.5 -29.5l-3 -100v-113q-11 -8 -38 -8q-19 0 -60 -1h-61q-46 0 -80 2q0 1 -2 4.5t-2 9.5q0 22 20 25t40 5q21 6 21 34q-14 74 -14 77q3 12 5 23q5 23 5 35q-1 25 -8 70.5t-8 67.5q-1 50 10 85q-3 28 -7 55l4 70q0 29 -12 37q-19 11 -39 21q-8 8 -8 16
q0 9 8.5 18t25.5 9q-34 -1 27 -1l72 -6l121 6l30 -6q11 -4 11 -19z" />
    <glyph glyph-name="M" unicode="M" horiz-adv-x="680" 
d="M640 14q0 -6 -6 -12.5t-14 -6.5q-58 5 -56 6l-54 -6l-39 6l-49 -6h-76q-10 10 -10 17q0 28 28 28h3.5h4.5q43 0 43 62q0 3 -3.5 27t-2.5 43q2 42 2 104q-1 56 -2 89q-1 15 -6.5 53.5t-5.5 42.5q0 31 4.5 93t4.5 94q0 5 7 13l69 6l48 -12l29 12l52 -3q8 -1 20 -6
q8 -5 8 -11q0 -5 -9 -13q-21 -11 -62 -35q-9 -80 -9 -88l11 -89q-3 -96 -5 -96q4 -47 8 -129q-4 -33 -8 -95q0 -30 6 -57q8 -4 23 -4h2q30 0 44 -27zM347 177q0 -33 -26 -99q-16 -41 -33 -83q-3 -3 -6 -3t-9.5 3.5t-11.5 3.5q-3 0 -9 -1t-13 0q-7 50 -21 86
q-19 46 -22.5 58.5t-14.5 85.5q-8 52 -12 71q-9 33 -28 74q-8 16 -23 112q-4 26 -7 52q-2 17 -16 49q-1 2 -19 16.5t-16.5 15.5t-18.5 5q-23 6 -30 9q0 1 -4 7t-4 10q0 9 19 12q25 4 65 4q28 0 65 -1.5t35 -1.5l17 2q15 1 24 0q13 -2 19 -8q8 -10 13 -30.5t9 -39.5
q5 -15 4 -53q0 -43 -1 -36q12 -26 27 -76q0 -17 5 -48q8 -20 24 -70q19 -75 19 -126zM172 -2q-23 0 -67 7q-38 6 -42 4q-30 -10 -45 -10q-20 0 -20 17q0 5 20 27q24 25 30 36q10 18 10 60v105q0 3 -2 36t-2 51q0 14 7 57.5t12 54.5q16 -59 46 -218q2 -15 2 -31q0 -12 -2 -35
t-2 -35q0 -22 6 -41q3 -9 26.5 -32t23.5 -28z" />
    <glyph glyph-name="N" unicode="N" horiz-adv-x="585" 
d="M541 642q0 -18 -25.5 -46t-25.5 -51v-129q0 -5 4.5 -45.5t4.5 -45.5q0 -26 -28 -26q-39 0 -39 135q0 11 3 38t3 41q0 20 -5 35q-2 7 -37 48q-34 38 -34 49q0 19 50 19q-1 0 18 -4.5t36 -4.5q11 0 34 5t31 4q10 -5 10 -22zM500 0q-16 -5 -40 -5q7 0 -23 -1q-20 -1 -33 1
q-19 3 -24 11q-13 19 -26 41q-7 25 -20 63q-17 26 -55 90q-16 28 -29 66q-10 19 -28 55q-4 18 -15 49q-5 8 -21 27q-13 16 -11 16t-13.5 42t-29.5 70q-15 21 -40 58q-10 22 -39 32l-30 4q-21 5 -27 16v14q21 14 49 14q5 0 50 -4t50 -4q4 0 27 4t28 4q30 0 40 -20l22 -54
q11 -17 30 -52q16 -36 49 -107q10 -14 27 -40q6 -10 11.5 -33t11.5 -33q12 -24 32 -61q55 -55 68 -101q3 -12 2 -34q-2 -38 -2 -35zM191 -5l-7 7q-123 -8 -156 -8q-24 0 -24 32q0 10 27 42.5t31 51.5q9 38 9 85l-8 84l5 67q0 7 -3 28t-3 33q0 25 11 40h20q22 -20 25 -35.5
t2 -42.5q-2 -43 -2 -47q0 -17 3 -40.5l3 -23.5l-6 -74l6 -66q0 -22 11 -41q6 -12 20 -31q9 -10 25 -18q11 -7 11 -12v-31z" />
    <glyph glyph-name="O" unicode="O" horiz-adv-x="600" 
d="M545 342q0 -22 -14 -130q-8 -55 -69 -135q-67 -89 -124 -89q-19 0 -19 21q0 14 12 23q17 12 21 19q18 32 18 140q0 5 -2 66t-2 66v144q0 141 -45 161q-6 23 -6 20q9 9 32 9q33 0 72 -27t69 -72q9 -14 20 -45q13 -42 17 -49q16 -37 19 -66q1 -9 1 -56zM247 -1
q0 -19 -30 -19q-35 0 -84 35q-39 29 -68 65q-5 13 -16 38t-23 50q-14 32 -17 52q-5 32 -5 116q0 4 5.5 21t5.5 26q4 108 54 184q21 31 64 63q49 36 82 36q13 0 23 -9v-29q-14 -10 -28 -21q-17 -14 -18 -24q-1 -27 -7.5 -84.5t-6.5 -60.5t9 -78q9 -80 11 -110q1 -14 -2 -56
q-4 -47 -4 -73q0 -32 5 -58q1 -7 25.5 -31t24.5 -33z" />
    <glyph glyph-name="P" unicode="P" horiz-adv-x="562" 
d="M509 459q0 -37 -15 -73q-23 -56 -59 -77q-19 -11 -63 -23t-64 -12q-34 0 -34 21q0 17 14 24q21 11 32 26q25 38 27 74q1 18 -2 53.5l-3 35.5q0 34 -10 56q-13 30 -56 68l6 27q7 2 29 -2q26 -4 27 -4q52 0 86 -20t66 -66q19 -28 19 -108zM265 2q-5 -5 -23 -5q-5 0 -26 -3
q-24 -3 -26 -3q-16 -2 -46 3q-33 5 -35 5l-101 -6q0 1 -2.5 6.5t-2.5 12.5q0 23 22 28q30 7 36 15v47l-12 73l12 59v139l-4 51l4 88l-10 78q-16 11 -33 23t-17 29q0 5 1 11q8 6 20 6q9 0 28 -4.5t29 -4.5l134 7q2 -15 7 -34q1 -15 1 -35q0 -43 -6.5 -106t-6.5 -60
q0 6 6 -80.5t6 -140.5q0 -26 -1 -45q-4 -13 -9 -37v-77q4 -3 29 -8q18 -3 26 -27v-5z" />
    <glyph glyph-name="Q" unicode="Q" horiz-adv-x="573" 
d="M520 351q0 -1 -4 -52q-6 -94 -9 -109q-5 -24 -36 -80q-7 -12 -41 -50q-30 -34 -30 -43q0 -7 7 -15t15 -8q20 0 33.5 18.5t26.5 36.5q4 1 10 -5.5t6 -13.5q0 -30 -31 -68t-60 -40q-25 -1 -26 -1q-50 0 -80 34q-26 29 -56 110q-5 12 -21 12t-16 17t24 27q19 9 38 9
q16 0 64 -36q2 0 5.5 10.5t3.5 11.5q15 106 15 170q0 4 -5 51t-5 53l1 82v61q0 70 -47 102l5 24h27q8 0 32 -12q28 -14 45 -29q25 -22 55 -65q34 -49 43 -83q-2 -16 -1 -47q12 -64 12 -72zM229 642q-28 -13 -47 -60q-16 -42 -16 -87q0 -6 6 -91l7 -88l-8 -59l8 -51v-134
q0 -17 21 -37.5t21 -27.5q0 -6 -2.5 -10.5t-3 -5.5t-6 -3.5t-11.5 -2.5l-35 12q-57 18 -96 76q-7 11 -18 49q-10 32 -26 49q-23 44 -23 158q0 9 10.5 54t12.5 75q27 92 53 107q2 9 11 25q19 20 55 47q47 35 66 35q6 0 21 -14v-16z" />
    <glyph glyph-name="R" unicode="R" horiz-adv-x="626" 
d="M508 522q0 -72 -48 -113q-41 -34 -129 -53q-13 0 -20 2.5l-7 2.5q12 21 32 62q10 28 10 78q0 34 -9 67q-11 39 -29 51q-6 1 -16 3q-2 0 -23 21v28h78q24 1 83 -22q34 -14 54 -47q24 -37 24 -80zM584 73q0 -39 -40 -60q-29 -15 -60 -15q-33 0 -77 18q-16 7 -36 40
q-30 48 -30 62l5 103q0 34 -1 38q-4 16 -23 38l-10 8q-9 8 -9 17l57 4q5 0 26 -10q28 -15 29 -15q15 1 45 -11q35 -30 50 -72q6 -17 6 -44v-25q-1 -15 -1 -23q0 -37 16 -51q1 0 16 12q12 9 18 9q19 0 19 -23zM303 25q-20 -18 -40 -18l-231 -9q-40 0 -40 39q0 5 2.5 8.5
t2.5 7.5q64 0 63 20l1 54q1 16 3 51q0 12 3.5 48t3.5 47q0 38 -5 63q-4 22 -6 18q6 51 11 102l-11 59v77q0 22 -22 22h-11q-7 -1 -11 -1q-28 0 -28 33q0 6 2.5 10.5t2.5 6.5q36 -1 101 1.5t62 2.5q1 0 19 2q14 1 24 0q13 -1 18 -7q3 -11 8 -26q-2 -42 -2 -87q5 -12 5 -56
q0 -30 -4 -71t-4 -38l6 -86l-9 -62q0 2 4.5 -30t4.5 -56q0 -8 1 -85q6 -7 40 -10q29 -2 36 -30z" />
    <glyph glyph-name="S" unicode="S" horiz-adv-x="511" 
d="M390 586q0 -5 -5.5 -21t-6.5 -22q-5 -63 -5 -99l-10 -10q-15 -2 -23 19q-9 37 -32 106q-11 22 -76 72v24q9 10 49 5q11 -1 30.5 1.5t22.5 2.5q23 0 41 -13q1 -12 8 -36.5t7 -28.5zM458 187q0 -53 -29 -103q-33 -57 -90 -79q-22 -8 -47 -8q-21 0 -21 27q0 17 36 39.5
t36 48.5q0 41 -33 74q-26 27 -85 59q-15 2 -47 12q-10 5 -38 29t-43 32q-64 32 -79 84q-5 6 -11 21q-1 7 -1 37q0 46 19 105q9 11 27 36.5t50 44.5q27 16 48 16q8 0 17.5 -10.5t9.5 -19.5t-12 -15.5t-23 -12.5q-21 -17 -21 -55q0 -53 64 -93q42 -27 92 -40q25 -6 68.5 -45
t67.5 -48q7 -3 11 -24q5 -26 7 -31q27 -49 27 -81zM189 10q-7 -4 -18 -12q-4 0 -19 -3t-20 -3q-69 0 -80 4q-40 11 -40 63q0 11 1 24q1 6 -3 23t-4 21q0 124 32 124q12 0 21 -28q4 -17 8 -33q48 -103 122 -156v-24z" />
    <glyph glyph-name="T" unicode="T" horiz-adv-x="558" 
d="M500 564q2 -24 3 -48q2 -47 -1 -70q-1 -7 -8 -15t-15 -9q-13 0 -20 10q-9 49 -33 150q-4 15 -22 33.5t-22 31.5q11 11 48 12h60q9 -5 10 -95zM143 637q-19 -25 -30 -64q-18 -57 -21 -65q-7 -21 -13 -42q-14 -35 -35 -36q-24 0 -24 38q-1 62 5 185q8 4 25 9l13 -3t26 -3
q17 0 33 6q6 -2 14 -9t8 -13q0 -2 -1 -3zM412 26q0 -23 -44 -28q-22 -1 -45 -1q-13 0 -58 5q-20 1 -40 3q3 -1 -17 -4q-23 -5 -50 -5q-21 0 -42 3l-3 27q3 22 31 23q33 2 40 10q0 15 3 54q3 35 3 40q-1 23 -7 71t-6 73q0 26 5 60.5t5 32.5l-12 133l6 137l44 -1q4 0 26 3
q19 3 30 3q59 -4 60 -15q-3 -47 7 -128l-10 -103l6 -162q-4 -20 -6 -74l6 -118q8 -9 41 -16q26 -5 27 -23z" />
    <glyph glyph-name="U" unicode="U" horiz-adv-x="591" 
d="M544 631q0 -2 -28.5 -38.5t-32.5 -55.5q-5 -23 -3 -70l4 -50l-6 -134l6 -95q0 -25 -3 -29q2 -5 2 -13q0 -41 -26 -86q-31 -52 -71 -53q-21 0 -21 21q-1 16 13 23q33 19 42 53l10 54l-5 184l5 53q0 29 1 57q0 56 -9 84q-6 18 -37 58t-31 45q0 6 8.5 12.5t14.5 6.5
q28 0 78 2l54 2q11 1 23 -12t12 -19zM291 641q0 -11 -13 -19.5t-23 -8.5q-5 0 -6 2t-6 2q-6 0 -14 -11q6 -27 6 -53t-6.5 -59.5t-6.5 -41.5q1 -13 5.5 -54.5t4.5 -59.5q0 -15 -2 -23q-7 -23 8 -96q-3 -15 -5 -42q0 -37 1 -48q2 -28 9 -49q3 -10 24.5 -35t21.5 -30
q0 -21 -31 -21q-52 -1 -117 37q-76 45 -77 102l6 112l-8 77l5 97l-11 68l4 82q0 35 -25 42q-29 8 -35 39q3 5 10 12q22 2 74 -3q56 -6 54 -6q19 3 37 6q39 5 71 5q18 0 34 -2q10 -4 11 -21z" />
    <glyph glyph-name="V" unicode="V" horiz-adv-x="579" 
d="M540 642q1 -10 -24 -34q-30 -27 -35.5 -37.5t-10.5 -44.5q-6 -46 -8 -59q-17 -57 -48 -173q-1 -7 -11 -17.5t-16 -10.5q-21 0 -22 36l28 141l13 41l9 76q-3 35 -55 73l-1 24q7 5 21 2l20 -3q30 1 98 3q42 1 42 -17zM368 129q-12 -26 -18 -59q-10 -52 -11 -57
q-19 -14 -50 -14q-26 0 -52 -1q-16 26 -40 77q-4 45 -26 155q-9 14 -24 46q-6 37 -21 105q-10 21 -28 63q-1 15 -3 47q-7 24 -20 75q-4 17 -6 20q-6 16 -14.5 22t-28.5 7q-15 0 -25 17v13q0 13 23 14q33 0 97 2q33 1 65 2q71 1 101 -11v-25q-5 -3 -33 -9q-17 -4 -16 -19
l18 -82l23 -53l6 -54q10 -25 37 -115q7 -24 2 -47q-1 -3 44 -119z" />
    <glyph glyph-name="W" unicode="W" horiz-adv-x="877" 
d="M851 639q0 -1 -32 -35q-35 -38 -45 -69q-5 -35 -18 -101q-2 -8 -18 -45.5t-14 -37.5t2 -28q-1 -31 -5.5 -49t-27.5 -19q-10 0 -21 6.5t-11 17.5q0 5 2 10l20 95l23 83l15 95q0 16 -28 43.5t-28 34.5q0 18 19 18q65 2 141 4q16 0 26 -23zM674 147l-32 -147l-103 -2
q-12 5 -18 22q-27 83 -26 84t-4 31t-10 48q-11 21 -27 66q-2 34 -13 100q-15 64 -29 127q-18 69 -51 120q-4 6 -23 14q-23 9 -30 14l-1 25q41 13 168 15q39 1 77 -3q58 -7 58 -24q1 -18 -21 -28q-32 -16 -33 -17q1 -27 8 -81q3 -15 17.5 -46t18.5 -52q5 -44 23 -124
q5 -28 18 -80q13 -19 33 -62zM379 104q0 3 -24 -97q-13 -4 -39 -3q-43 1 -32 1h-26q-23 -1 -27 13q-38 113 -53 189q-2 24 -11 78q-1 5 -15.5 37t-14.5 39q0 54 -17 110l-37 103q-8 20 -22 28q-57 0 -57 33q0 6 9 21q74 3 193 5q18 1 20 0q11 -2 20 -17q4 -7 4 -24
q1 -22 1 -27q2 -23 12 -73q15 -34 38 -96q3 -30 16.5 -89.5t35.5 -116.5q1 -17 4 -50q11 -30 22 -64z" />
    <glyph glyph-name="X" unicode="X" horiz-adv-x="617" 
d="M549 649q-30 -33 -82 -52q-6 -3 -40 -37q-39 -42 -52 -70q-8 6 -19 19q13 58 13 74q0 10 -2 16q-13 17 -27 46q0 6 2 12.5t2 7.5q63 2 195 -2q0 -5 10 -14zM598 1l-195 9l-91 -6q-29 0 -29 8q-1 12 17 28q12 1 24.5 1.5t24.5 15.5q-12 49 -44 101q-19 23 -49 69
q-13 38 -43 114q-20 33 -52 96q-12 14 -34 47q-4 8 -5.5 28t-4.5 27q-11 23 -21 46q-16 30 -31 33q-32 5 -33 6q-19 7 -26 27q0 5 13 14q14 1 46 -4q37 -5 53 -5q38 0 82.5 4.5t41.5 4.5q24 1 61 -6l1 -21q-5 -4 -28 -13q-13 -5 -12 -16q0 -14 11 -49q3 -9 14 -22t15 -21
q11 -32 42 -102q19 -30 53 -89q4 -22 12 -50q9 -18 24.5 -38t22.5 -37q7 -25 24 -69q22 -47 49 -87q17 -2 35.5 -3.5t30.5 -12.5q9 -7 1 -28zM189 144q-4 -13 -6 -62q0 -4 16.5 -26.5t16.5 -26.5q1 -25 -31 -25q-21 -1 -47.5 1.5t-34.5 2.5q-18 0 -36 -6q-20 2 -54 4
q0 1 -2.5 4.5t-2.5 9.5q-1 17 16 30q22 12 70 47q49 43 84 97q0 1 6 17q4 13 11 13q5 0 12 -17.5t11 -17.5z" />
    <glyph glyph-name="Y" unicode="Y" horiz-adv-x="594" 
d="M560 635q0 -8 -23 -26q-31 -26 -51 -51q-30 -39 -62 -122q-17 -44 -43 -44q-10 0 -21 13t-11 21q0 -1 12 28q35 93 35 110q0 22 -17 41.5t-17 33.5q0 19 40 23q-3 0 52 0q1 0 19 1.5t30 1.5q57 0 57 -30zM417 20q0 -19 -47 -23h-53q-119 0 -183 9q0 2 -2.5 4t-2.5 8
q0 17 28 24l32 6q8 18 4 72q2 18 5 34l-2 14q-4 20 -4 30v66q0 13 -12 35q-8 17 -17 34q-14 36 -30 80q-4 11 -4.5 31t-2.5 27q-4 13 -13 24q-4 4 -8 9q0 34 -11.5 55t-22.5 43q-3 6 -40.5 15t-34.5 33q8 10 28 10h69l47 -7l65 7h54q48 0 48 -28q0 -20 -27 -20
q-30 -1 -36 -15l19 -54l7 -38l20 -35l16 -74l24 -33l29 -74l5 -74l-9 -43q0 -1 4.5 -16t4.5 -25q0 -3 -5 -67q1 -2 32 -12q26 -8 26 -32z" />
    <glyph glyph-name="Z" unicode="Z" horiz-adv-x="511" 
d="M213 647q0 -5 -34 -37q-39 -35 -50 -54q-15 -25 -29 -63q-22 -61 -24 -65h-24q-13 36 -13 48q0 5 6 33.5t6 32.5q0 17 -4 40q-3 18 -1 39q-2 11 -2 31q22 14 31 14h128q10 -10 10 -19zM460 642q0 -2 -19 -54q-2 -5 -29 -56q1 0 -7.5 -31.5t-14.5 -46.5q-22 -36 -61 -111
q-3 -22 -15 -64q-12 -17 -36 -59q-17 -48 -38 -105q-16 -27 -59 -112q-1 -2 -3.5 -4t-8.5 -2q-4 0 -17.5 4.5t-19.5 4.5q-5 0 -24 -4.5t-25 -4.5q-5 0 -11.5 2t-11.5 3h-55v18q0 4 17.5 33t22.5 44q3 21 17 65q5 12 20.5 32t15.5 21q0 23 16 58q11 24 31 69q11 32 34 95
q6 16 22.5 38t20.5 33q6 31 27 86q15 22 42 67h159q10 -9 10 -19zM473 131q0 -5 -5 -15q-5 -13 -7 -19q0 -28 -7 -86q-11 -10 -36 -10q-71 0 -153 2v23q14 8 38 27q24 23 67 75q10 15 65 128l30 -2l-3 -53q11 -50 11 -70z" />
    <glyph glyph-name="bracketleft" unicode="[" horiz-adv-x="298" 
d="M213 757l2 -55h-100v-108l-10 -79l10 -197l-7 -118q3 -117 7 -114v-193h100l-2 -52h-213v159q0 11 4 35.5t4 36.5q0 11 -3.5 33t-3.5 33q0 13 1.5 37.5t1.5 38.5q0 32 -3 83.5t-3 75.5q0 19 3 58.5t3 52.5q0 33 -5 74q-4 38 -5 29l6 170h213z" />
    <glyph glyph-name="backslash" unicode="\" horiz-adv-x="981" 
d="M929 325h-3q-204 -112 -311 -112q-33 0 -58 10q-54 23 -82 44l-66 58h-2h1l-1 1h2q33 29 66 57q28 21 82 44q25 11 58 11q107 0 311 -112h3l-1 -1h1zM377 248q32 -6 76 -35q49 -32 57 -59q3 -12 3 -24q0 -39 -35 -63t-84 -24q-50 0 -90 25q-44 27 -61 78q20 -10 37 -10
q33 0 33 25q0 14 -14 26q-36 32 -86 42q-30 6 -99 8v38q129 0 263 -27zM299 463q14 13 14 27q0 25 -33 25q-17 0 -37 -10q17 51 61 78q40 24 90 24q57 0 92 -29q38 -32 24 -81q-8 -27 -57 -59q-44 -29 -76 -36q-126 -24 -263 -25v33q64 2 99 10q49 12 86 43zM60 572h-60
v-493h60v493z" />
    <glyph glyph-name="bracketright" unicode="]" horiz-adv-x="298" 
d="M6 757l-2 -55h100v-108l10 -79l-10 -197l7 -118q-3 -117 -7 -114v-193h-100l2 -52h213l-1 159q0 11 -3.5 35.5t-3.5 36.5q0 11 3.5 33t3.5 33q0 13 -2 37.5t-2 38.5q0 32 3.5 83.5t3.5 75.5q0 19 -3.5 58.5t-3.5 52.5q0 33 5 74q5 38 6 29l-6 170h-213z" />
    <glyph glyph-name="asciicircum" unicode="^" horiz-adv-x="440" 
d="M308 695q-33 11 -63 29q-12 8 -36 21q-8 -3 -38.5 -21t-63.5 -29l-13 27q36 29 111 91h12l104 -92z" />
    <glyph glyph-name="underscore" unicode="_" horiz-adv-x="500" 
d="M3 -96h500l-3 -49h-500z" />
    <glyph glyph-name="grave" unicode="`" horiz-adv-x="440" 
d="M301 728l-10 -20l-194 56q-7 6 -7 19q0 16 10 31.5t23 15.5q6 0 11 -3z" />
    <glyph glyph-name="a" unicode="a" horiz-adv-x="440" 
d="M441 54q0 -27 -29 -42q-23 -12 -53 -12q-45 0 -80 18q-47 24 -47 72v133q0 3 4 58t4 61q0 35 -12.5 64.5t-12.5 31.5q0 8 9 14.5t18 6.5q58 0 102 -52q37 -44 41 -92q0 -4 -4 -19.5t-4 -20.5l5 -75l-11 -49l7 -82q7 -7 11 -7q3 0 12.5 8.5t16.5 8.5q23 0 23 -25zM182 361
q0 -25 -16 -47t-43 -22q-14 0 -65 22q-10 22 -10 43q0 28 32 63t64 35q11 0 19 -14q-1 -8 -1 -16q0 -15 10 -34.5t10 -29.5zM206 36q7 -32 -56 -32q-55 0 -91 31t-36 86q0 33 22 67q26 37 63 42q4 1 17 8.5t18 7.5h42q0 -2 2.5 -10.5t2.5 -13.5q-37 -23 -37 -110
q0 -32 3 -38q8 -16 50 -38z" />
    <glyph glyph-name="b" unicode="b" horiz-adv-x="494" 
d="M425 240q0 -44 -20 -114q-23 -83 -53 -96q-71 -30 -94 -30q-18 0 -25 13v24q17 8 37 27q-1 10 1 30q9 40 9 63q0 14 -3 30q-5 24 -6 32q-3 22 2 31t5 5q0 5 -3 16t-4 15q2 31 4 96q0 14 -20 33q-26 24 -27 25q1 24 38 24q35 0 74 -34q34 -30 54 -68q12 -23 29 -80
q2 -5 2 -42zM186 232q0 -4 -5 -40t-6 -53q2 -27 0 -83l-2 -32q-5 -20 -26 -20q9 0 -29 0h-110q-5 10 -5 28q4 15 42 17v107l14 65l-14 57v93l6 65l-6 57v77q-1 26 -13 35q-19 14 -29 41q7 14 31 17q14 1 81 1q40 0 55 -12q12 -10 12 -34q0 -7 -1.5 -26t-1.5 -30q0 -13 2 -25
q2 -13 -4 -52q-6 -44 -6 -66t3.5 -71t3.5 -66q0 -9 4 -27.5t4 -22.5z" />
    <glyph glyph-name="c" unicode="c" horiz-adv-x="449" 
d="M379 357q0 -36 -21.5 -56.5t-57.5 -20.5q-63 0 -63 60q0 17 28 68q3 7 0 15q-4 7 -11 17q10 15 23 15q20 0 51 -16q28 -15 37 -26q14 -19 14 -56zM392 125q0 -31 -38 -78t-73 -47q-23 0 -23 27q0 11 13 18l26 14q23 14 31 42q11 35 19.5 44t19.5 9q25 0 25 -29zM208 441
q-2 -2 -6 -14q-21 -14 -25 -61v-93q0 -13 -3.5 -41.5t-3.5 -31.5q0 8 3 -83l1 -48q1 -16 30 -55q-8 -19 -17 -19q-26 0 -71 30q-39 25 -66 55q-3 3 -5 21t-6 25q-15 31 -15 85q0 10 -1 28t-1 27q0 45 25 72q4 21 17 52q17 23 65 51q26 14 52 14q12 0 27 -14z" />
    <glyph glyph-name="d" unicode="d" horiz-adv-x="458" 
d="M419 12q-41 -12 -83 -12q-86 0 -86 15l8 195q0 5 -4 20.5t-4 21.5q0 4 2.5 17t2.5 17q-2 14 -2 49v28q0 58 -3 76q-6 34 0 124l4 22q2 15 -4 23q-3 5 -22.5 11.5t-25.5 12.5q-13 4 -13 13q0 7 13 14q4 1 152 1q7 0 16.5 -6.5t9.5 -12.5q6 -92 6 -150v-114q0 -26 7 -133
q0 -6 -3.5 -21.5t-3.5 -19.5v-142q10 -6 33 -20q10 -3 10 -12q0 -8 -10 -17zM193 18q-2 -2 -4.5 -7t-4.5 -7q-96 1 -140 74q-35 56 -35 141q0 -1 18 113q6 35 51 85.5t80 50.5q7 0 27 -9v-24q-24 -14 -28 -33q-10 -39 -10 -116v-185q0 -4 4.5 -22t5.5 -27q7 -13 27 -17
q3 -6 9 -17z" />
    <glyph glyph-name="e" unicode="e" horiz-adv-x="426" 
d="M384 273q0 -40 -9 -48q-5 -4 -33 -4h-86q-37 0 -43 14v23q12 4 37 20q0 63 -6 112q0 1 -5 8.5t-5 13.5v34h30q23 1 65 -34q37 -31 41 -42q14 -44 14 -97zM384 121q0 -29 -26 -63q-23 -30 -50 -43q-1 0 -15 -9q-10 -6 -16 -6q-7 0 -12.5 7.5t-5.5 15.5q0 15 9 21
q8 2 25 10q26 23 39 49q4 11 12 28l7 7t10 4q8 0 15.5 -7t7.5 -14zM187 -3q-5 -6 -12 -6q-16 0 -62 28q-35 22 -37 23q-22 15 -29 30q-39 72 -39 124q0 -3 7 40q4 39 9 78q10 52 43 81q16 14 51 35t42 21q8 0 15.5 -7.5t7.5 -15.5q0 -4 -9.5 -20t-10.5 -22q-9 -85 -9 -182
q0 -74 2 -98q7 -72 31 -87v-22z" />
    <glyph glyph-name="f" unicode="f" horiz-adv-x="299" 
d="M260 603q0 -44 -46 -44q-54 0 -54 50q0 21 14 37.5t34 16.5q24 0 38 -18t14 -42zM267 448q0 -25 -38 -25q-16 0 -29 5q0 38 1 41l26 4q40 1 40 -25zM216 24q-4 -17 -13 -18.5t-19 -1.5q1 0 -166 0q-27 0 -27 27q0 17 17 21q13 3 26 7q15 10 15 114q0 4 -3.5 17.5
t-3.5 20.5q-1 17 2 52q4 41 4 54q0 1 -8 95q-4 3 -29 14q-12 5 -12 22q0 15 12 19q14 1 27 3q9 10 8 37q-1 34 0 40l3 9q23 88 60 105l29 9q2 0 2 -3q0 -4 -6 -17.5t-7 -15.5q-7 -38 -7 -31q0 -26 28 -64t28 -61q0 -11 -3 -35t-3 -36q0 -32 4.5 -71t4.5 -40l-7 -111
q0 2 3.5 -28t2.5 -52q0 -15 -2 -40q3 -6 25 -17q18 -8 15 -24z" />
    <glyph glyph-name="g" unicode="g" horiz-adv-x="475" 
d="M434 427q-5 -6 -20 -14q-18 -10 -25 -15q-2 -32 -3 -65q-1 -38 3.5 -62.5t3.5 -69.5q-1 -50 2 -71q-6 -9 -6 -59l3 -128q0 -27 -9.5 -56t-24.5 -41q-9 -7 -43 -23q-43 -20 -65 -20q-16 0 -29 5v23q10 8 24 25q14 29 14 50q9 67 0 141q0 4 -4.5 12.5t-4.5 13.5q6 32 6 71
q0 48 -9 100q0 6 3.5 14.5t2.5 10.5q-9 34 -9 46q0 93 12 133q11 7 24 7q11 0 25 -6t16 -6q3 0 28.5 4t36.5 4q33 0 48 -9v-15zM196 5q-10 -5 -27 -5q-61 0 -112 78q-45 69 -45 120q0 60 14 126q4 20 25 55q23 39 36.5 49t41 20.5t35.5 10.5q19 0 19 -18q0 -5 -9 -18
t-11 -21q-5 -24 -5 -78l-13 -125l13 -131q0 -6 14 -22q22 -25 24 -27v-14zM162 -86q0 -22 -6 -34q-1 -3 -12 -14t-11 -17t10 -14t19 -16q0 -10 -9 -20q-52 4 -88 30.5t-36 65.5q0 30 15 52q19 28 54 28q20 0 42 -22t22 -39z" />
    <glyph glyph-name="h" unicode="h" horiz-adv-x="491" 
d="M450 17q-7 -20 -22 -20l-103 -2q-34 0 -35 23q1 51 1 161q-4 24 -9 68q0 5 4.5 21t4.5 25q1 21 0 63q-2 34 -40 70v14q12 14 26 14q5 0 22 -4t25 -5q34 -4 66 -43q29 -35 30 -64l3 -197q0 -5 -3.5 -40t-3.5 -41q0 -22 10 -26q16 -6 24 -17zM233 20q0 -20 -54 -21
q-5 0 -56.5 3t-56.5 3q-6 0 -17.5 -1.5t-16.5 -1.5q-16 0 -23 12l15 23q12 3 26 6t19 15q2 41 2 84q0 18 -1 58t-1 56q-1 33 6 68q4 25 5 26q-6 -7 -17 50l5 102l-8 99q-7 8 -17 18q-1 0 -24 3q-14 2 -14 13q0 6 4 15q5 18 32 18q11 0 35.5 -4t34.5 -3q15 1 40 3
q41 1 45 -20q3 -12 0 -44q-3 -38 -3 -52q4 -51 7 -107l-4 -169q4 -29 9 -116q0 -21 -3 -52q-3 -41 -3 -48q2 -3 21 -17q13 -9 13 -19z" />
    <glyph glyph-name="i" unicode="i" horiz-adv-x="273" 
d="M188 594q1 -35 -14.5 -48.5t-50.5 -14.5q-88 -3 -90 66q-2 44 82 46q19 1 39 -8q33 -15 34 -41zM236 33q2 -17 -4 -29q-72 -3 -154 -6q-55 -2 -65 10l8 17q4 3 40 16q13 6 13 30q-1 13 -8 58q-4 22 -5 50q4 42 6 96q-5 38 -4 55q4 52 4 58q-19 4 -54 21q-9 12 -9 19
q0 11 17 12q50 -1 109 -1q20 2 40 3q18 2 22 -3.5t4 -13.5q0 -6 -3 -25.5t-3 -30.5q9 -85 9 -88q-1 -3 -4.5 -39t-2.5 -38q3 -5 1 -62q-1 -32 -4 -77q1 -23 12 -26q34 -6 35 -6z" />
    <glyph glyph-name="j" unicode="j" horiz-adv-x="288" 
d="M226 581q0 -27 -19 -43t-46 -16q-37 0 -62 15q-32 19 -32 56q0 29 35 48q27 15 51 15q27 0 50 -25.5t23 -49.5zM230 115q0 -5 -5 -29t-6 -34q-1 -12 5 -58q3 -17 3 -38q0 -88 -36 -131q-23 -27 -89 -34q-15 8 -15 28q0 8 2.5 23.5t2.5 21.5q-1 54 -1 108q2 13 7 48l-8 31
l-2 149q0 -1 4 35q5 33 2 52q-5 34 -11 102q-18 4 -57 17v14q-1 11 17 17t93 6q45 0 72 -2q5 -2 12 -8q2 -5 2 -55v-155q0 -6 4 -54.5t4 -53.5zM46 -97q0 -12 -26 -44q-32 0 -32 -12q0 -6 14 -18l23 -20q-9 -10 -25 -10q-35 0 -61 39q-22 33 -22 59q0 27 14 46q18 23 50 23
q28 0 46.5 -18t18.5 -45z" />
    <glyph glyph-name="k" unicode="k" horiz-adv-x="481" 
d="M410 415q0 -14 -18 -26q-11 -4 -30 -15q-6 -5 -26 -29q-16 -17 -22 -17q-8 0 -22 14q-1 3 -1 38q0 19 -22 39v14q10 10 17 10q1 0 19 -2t34 -2q25 0 50 4q7 -2 14 -11t7 -17zM465 15q0 -10 -9 -19q-98 5 -101 4t-97 -4q-5 2 -14 9v19q7 7 20.5 12.5t17.5 8.5
q-13 34 -35 83l-24 34q-5 10 -5 49q0 25 16.5 49t32.5 46q12 3 25.5 -19.5t19.5 -38.5q6 -22 15 -38q6 -13 26 -38q17 -22 16 -22t9 -28t17 -40q12 -16 27 -39q17 2 30 -6t13 -22zM219 -3q-6 -6 -20 -6q3 0 -17.5 2.5t-64.5 3.5q-11 0 -40 -1h-49l-16 7l10 18q15 3 47 15
q-7 42 -15 86q0 1 4 29t5 38q0 3 -6 90q-1 10 1 36.5t2 39.5q0 12 -3 45q-3 30 -3 46q3 25 7 76q5 58 -2 94q-10 9 -49 17q0 3 -4.5 10.5t-4.5 10.5q0 4 5 7q20 7 48 7q16 0 58 -4q38 -3 58 -2q20 -20 21 -40q1 -39 1 -86q-5 -19 -10 -59q0 -26 4.5 -66t3.5 -65q0 -8 -4 -38
t-4 -38l5 -86q8 -10 8 -44q0 -28 -6 -69q-2 -17 -5 -34q11 -5 34 -22z" />
    <glyph glyph-name="l" unicode="l" horiz-adv-x="253" 
d="M218 15q-9 -21 -50 -21l-38.5 4t-66.5 5q-21 -4 -57 -6q-3 6 -3 28q24 8 58 29q3 42 0 88q0 13 1 26q-1 11 -2 28l-6 130l7 93q0 5 -6.5 47t-6.5 48l4 80q0 6 1 12l1 6q0 3 -48 20v23q7 0 23 2t25 2q9 -1 29 -3t31 -2q19 2 57 5q4 -5 12 -17q-6 -41 -10 -120q1 -16 5 -53
q4 -33 4 -52q0 -54 -3 -111q2 -33 4 -65q-12 -22 -12 -51q0 -32 11 -54q3 -5 -2 -85q0 -16 16.5 -20t21.5 -16z" />
    <glyph glyph-name="m" unicode="m" horiz-adv-x="707" 
d="M681 -4q-16 0 -50 2t-49 2q-2 0 -57 -5q-2 3 -8 6q1 21 0 67v62q0 6 -3 28t-3 28l6 95l-6 84q0 16 -6 33q-8 22 -21 22q-6 0 -13 -5q-2 0 -7.5 2t-6.5 3.5t-6 8.5q6 24 92 24q21 0 56.5 -35t37.5 -57q5 -34 9 -108q1 -17 -4 -48q-6 -34 -6 -35l7 -76v-49q16 -5 38 -21
v-28zM455 -4q-17 7 -94 7q-45 -1 -66 -8q-13 12 -13 24q0 15 2.5 34.5t2.5 34.5q0 42 1 51q1 5 -1 37q-3 37 -3 40l2 76l-7 76q0 32 -15 44q-9 1 -25 3q-1 2 -6 7v16q5 5 14 12q5 0 23 3t24 3q8 0 35.5 -11t42 -22t24.5 -36q7 -20 14 -39q14 -34 10 -50q-7 -38 -7 -84
q0 -22 2 -61.5t2 -60.5v-51q24 -7 38 -17v-28zM225 -4q-55 4 -94 4q-26 0 -56.5 -1.5t-28.5 -1.5q-26 0 -40 14l11 17q11 1 42 17l1 117l-6 79q0 6 3 49t3 48t-3.5 23t-4.5 23q-12 5 -37 21q-12 6 -12 15q0 10 11.5 18.5t17.5 8.5q-9 0 28 -2t116 -2q11 -8 11 -42
q-1 -42 1 -49q1 -4 -6 -31q-1 -4 2.5 -16t3.5 -17q2 -29 -2 -76q-2 -24 -4 -47l5 -120q13 -4 38 -17q12 -18 0 -32z" />
    <glyph glyph-name="n" unicode="n" horiz-adv-x="515" 
d="M477 3q-64 1 -138 1q-35 0 -35 62q0 14 2 39q2 22 1 29q-1 16 0 52q1 35 3 35q-3 0 -5 83q-1 48 -7 81q-1 10 -29.5 18t-29.5 21q0 15 21 24q16 7 35 7q75 2 116 -41q37 -40 35 -105l-6 -91l6 -76l-6 -91q35 -3 46 -20zM241 -1q-68 -2 -146 -3q-44 -1 -78 10q-15 6 -9 24
q43 12 54 12q-2 24 -5 97q0 -3 3 85q0 -2 -6 77l4 84q-5 5 -26 15t-26 18l-1 21l32 9l54 -5q9 -1 30.5 1.5t31.5 2.5q21 0 34 -8q2 -10 4 -72l5 -112q-4 -39 -6 -82q-1 -11 -1 -24q0 -10 3 -46q3 -31 1 -52q5 -8 25.5 -13.5t21.5 -6.5z" />
    <glyph glyph-name="o" unicode="o" horiz-adv-x="478" 
d="M421 226q1 -70 -9 -97t-69 -105q-5 -6 -34.5 -17.5t-37.5 -11.5q-16 0 -25 5q-3 2 -5 16q0 5 9 17t10 15q13 69 13 90q0 3 -4.5 28t-4.5 36q1 49 -1 144q-1 14 -11 46.5t-10 35.5v27h18q9 0 33 -9q29 -11 47 -26q22 -19 42 -53q26 -46 33 -78q5 -25 6 -63zM191 439
q0 -5 -10.5 -23.5t-10.5 -23.5l3 -163q0 -5 -3.5 -44.5t-3.5 -44.5q0 -21 2 -64q1 -9 11 -28.5t11 -24.5q0 -30 -30 -30q-5 0 -13 7t-11 8q-28 9 -56 36t-35 51q-24 73 -25 113q0 13 8 79q5 35 46 104q4 7 45.5 37t53.5 30q18 0 18 -19z" />
    <glyph glyph-name="p" unicode="p" horiz-adv-x="481" 
d="M427 225q0 -32 -7 -56q-19 -72 -22 -86q-6 -22 -50 -55t-69 -34h-27q-2 2 -5 15q0 3 16.5 29.5t19.5 39.5q5 24 4 87q1 20 -7 177l-2 34q-3 22 -9 33q-4 5 -18 17q-7 6 -7 20q-1 21 18 21q8 0 33.5 -9.5t36.5 -16.5q27 -18 52 -58q20 -34 36 -94q6 -24 7 -64zM233 -189
q-14 -18 -61 -19q-123 -2 -177 10v20q8 10 11 12q7 6 14 6q5 0 5 -2t5 -2q16 1 19 33l2 143l-11 58l6 106l10 47l-11 48l-1 126q-6 8 -29 16q-19 6 -19 20q0 18 18 18q41 1 160 0q10 -11 10 -46q0 -93 -1 -82q1 -15 -7 -107q1 4 7.5 -73t5.5 -93q-3 -21 -6 -51l3 -152
q34 -10 47 -21v-15z" />
    <glyph glyph-name="q" unicode="q" horiz-adv-x="463" 
d="M433 -179q0 -8 -14 -23l-94 3q-31 -2 -72 -4q-47 -1 -48 -1q-4 7 -4 12q0 11 21 20q29 13 31 15q0 13 4 33q3 17 3 33q-4 24 -7 48q8 64 7 122q-6 47 -12 128q5 38 9 80l-13 115q0 20 14 41q11 -1 25 -1q13 0 38 1.5t36 1.5q49 0 62 -22q-13 -22 -33 -36
q0 -10 -3.5 -33.5t-3.5 -35.5q0 -9 3.5 -25t3.5 -24q-1 -25 0 -56q1 -3 -3 -38q-4 -41 -4 -56q3 -37 5 -115q-4 -23 -8 -61q0 -38 3 -54q1 -7 3 -13q2 -11 5 -35q7 -5 25 -6q15 -1 21 -14zM191 -13q-7 -5 -24 -10q-47 -1 -101 53t-50 92q2 17 -7 65q-5 26 -9 52q-1 47 27 93
q6 25 23 65q12 16 58 42q27 15 50 16q21 0 22 -19q0 -8 -16 -29t-16 -27q-3 -33 -7 -102q0 21 3 -18l4 -70q1 3 1 6q-4 -24 -6 -74q6 -108 48 -115v-20z" />
    <glyph glyph-name="r" unicode="r" horiz-adv-x="435" 
d="M385 377q3 -32 3 -25q0 -22 -25 -49q-10 -11 -52 -16q-17 -1 -32 13l9 -2q8 -1 16 0q-50 20 -50 62q0 10 7 43q-3 4 -17 5t-15 7q-1 14 3 20l55 20q32 4 61 -16q33 -23 37 -62zM239 33q2 -17 -4 -29l-164 -6q-55 -2 -65 10l8 17q4 3 40 16q13 6 13 30q-1 13 -8 58
q-4 22 -5 50q4 42 6 96q-5 37 -4 55q4 52 4 58q-19 4 -54 21q-9 12 -9 19q0 11 17 12q55 -1 119 -1q17 2 35 3q13 2 17 -3.5t4 -13.5q0 -6 -3 -25.5t-3 -30.5q9 -85 9 -88q-1 -3 -4.5 -39t-2.5 -38q2 -5 1 -62q-1 -32 -4 -77q1 -23 16 -25q35 -5 41 -7z" />
    <glyph glyph-name="s" unicode="s" horiz-adv-x="388" 
d="M312 443q0 -7 -4.5 -23t-4.5 -23q0 -14 4 -44t3 -45q-2 -1 -8 -6q-11 0 -19.5 18t-16.5 36q-9 14 -38 44q-25 25 -25 30q-1 6 1 11.5t2 9.5q30 5 55 5q39 0 51 -13zM360 138q0 -10 -7 -37q-9 -33 -20 -49q-16 -24 -48 -38q-1 -1 -62 -21q-2 2 -6.5 5t-6.5 5q12 15 40 38
q12 9 12 31q0 30 -42 62q-25 22 -61 49q-16 4 -46 17q-11 7 -23 21q-15 18 -20 23q-26 24 -30 41q-1 6 -1 32q0 50 -1 35q1 9 19 43q29 53 57 53q4 2 10 2q21 0 21 -19q0 -5 -12.5 -24t-12.5 -24q0 -30 30 -55l52 -36q12 -15 35 -35q7 -3 32 -10q22 -6 22.5 -6t32.5 -35
q36 -42 36 -68zM151 -5q-6 0 -26 6t-29 6q-14 -1 -25 -5q-4 -2 -7 -4q3 1 -24 4q-2 14 2 46l4 37q0 7 -5 29.5t-5 34.5q0 13 5 23l22 3q16 -42 33 -84q19 -46 58 -73zM168 311z" />
    <glyph glyph-name="t" unicode="t" horiz-adv-x="318" 
d="M273 412q-27 -8 -58 1q-1 12 2 33l48 4q2 -7 8 -22v-16zM187 -1q-17 -18 -34 -18q-10 0 -45 10q-29 7 -44 40q-13 25 -12 53l9 80l-9 106l9 82l-3 46q-40 16 -49 23q-7 4 -7 12q0 12 20 14h29q11 14 13 32q4 12 4 22q0 7 -3 21t-2 23q19 6 53 18q18 8 37 31q12 6 16 6
q9 0 18 -10q-5 -37 -5 -69q0 -19 3.5 -62.5t3.5 -74.5q0 -14 -1 -47t-1 -46q0 -72 4 -101q-4 -41 -9 -82zM273 91q0 -23 -39 -68q-14 10 -14 23q0 16 7 38q10 30 26 30q20 0 20 -23z" />
    <glyph glyph-name="u" unicode="u" horiz-adv-x="465" 
d="M441 8q-10 -14 -18 -14l-159 1q2 17 0 101q3 38 6 103q-1 10 -6 49q-4 35 -3 49q1 26 3 90q-4 6 -23 17q-15 8 -18 30q4 3 13 8q24 2 143 2q7 0 16 -6.5t8 -12.5q-4 -36 -10 -108q3 -23 6 -71q-3 -29 -6 -88q2 -24 3 -59v-64q44 0 45 -27zM210 4q-2 -6 -11.5 -14.5
t-18.5 -8.5q-62 0 -101 38t-39 103q0 21 4 44l7 83l-5 50l2 85q0 14 -15 18q-22 6 -32 15q-3 21 8.5 27t34.5 3q36 -3 28 -3q62 0 92 -2q12 -10 15 -64q4 -52 0 -52q3 0 -5 -38l4 -250q11 -10 32 -34z" />
    <glyph glyph-name="v" unicode="v" horiz-adv-x="440" 
d="M413 419q0 -17 -20 -32q-24 -19 -32 -37q-36 -79 -59 -163h-14q-13 12 -13 31q0 5 14 67t14 68q0 30 -5 38q-19 27 -19 36q0 7 6 13.5t12 5.5q15 0 42.5 1t28.5 1q17 0 31 -8.5t14 -20.5zM275 97q0 -7 -14 -43t-23 -54h-60q-19 28 -24 47q-17 61 -14 61q-4 12 -9 24
q-12 30 -15 40q-7 34 -18 80q-8 21 -32 89q-5 18 -16 53q-2 7 -18 13q-23 10 -25 11v16q16 13 41 13l21.5 -4.5t37.5 -4.5q18 0 42.5 4.5t23.5 4.5q53 0 53 -25q0 -10 -13 -15q-20 -9 -28 -17q1 -24 17 -57q19 -41 23 -60q6 -34 24 -101q26 -69 26 -75z" />
    <glyph glyph-name="w" unicode="w" horiz-adv-x="648" 
d="M619 436q-24 -11 -42 -47q-13 -30 -27 -60q-20 -40 -27 -67q-3 -23 -14 -75q-5 -5 -12 -5t-15.5 10t-8.5 19q0 6 18 70t18 69q0 10 -19 38q-18 25 -13 39q5 17 25 17q7 0 25 -2.5t28 -2.5q2 0 19 4t27 4q16 0 18 -11zM479 94q-11 -16 -23 -61q-9 -33 -22 -33h-50l-20 48
q-13 31 -10 31q2 1 2 4q0 14 -24 83q-12 21 -29 59q-4 31 -18 98q-1 6 -25 60q-8 19 -24 24l-9 18q16 14 20 14q6 0 43 -3t42 -3q4 0 32.5 4.5t33.5 4.5q12 0 20 -17q6 -12 6 -19q0 -9 -14 -15q-21 -10 -23 -12q9 -62 26 -99q12 -22 28 -66q2 -16 7 -36q1 -13 10 -29
q12 -22 17 -34q2 -3 4 -5q3 -5 3 -9t-3 -7zM274 97q0 -10 -13 -50q-13 -43 -19.5 -46t-22.5 -3h-34q-11 0 -26 52q-8 31 -16 61q-7 17 -19 50q-2 19 -7 49q-12 22 -31 73l-12 48q-9 32 -20 52q-3 4 -43 24q-13 11 -13 20q0 6 6 12q10 3 26 3q15 0 37 -3t24 -3t29 3.5t38 2.5
q21 -16 37 -58q4 -25 9 -58q11 -26 29 -75q0 -15 3 -44q7 -8 16 -29q22 -76 22 -81z" />
    <glyph glyph-name="x" unicode="x" horiz-adv-x="453" 
d="M397 416q-12 -9 -65 -57q-42 -39 -48 -39t-8.5 12.5l-2.5 12.5q2 8 2 16q0 18 -11.5 37t-11.5 21q0 7 6 13t12 6q14 0 43 3t32 3q-6 0 52 -13v-15zM410 15q0 -7 -10 -14q-1 0 -19 -4.5t-25 -4.5q-2 0 -19 2t-31 2q-5 0 -23 2q-14 1 -28 0q-11 -7 -32 -7q-6 0 -20 14
q-2 21 9 29q10 5 20 11q-17 40 -50 113q-23 37 -71 121q-6 23 -18 56q-12 16 -16.5 28.5t-12.5 27.5q-4 6 -19.5 8t-21.5 8q-12 20 -12 27q0 5 6 5q-7 0 7.5 1.5t37.5 2.5q29 1 57 1q55 0 95 -5q0 -4 -3.5 -20.5t-3.5 -22.5q0 -43 17 -81q14 -29 49 -76q4 -23 14 -58
q33 -67 36 -73q18 -33 43 -64q5 -6 21.5 -14.5t22.5 -14.5zM154 14q0 -12 -28 -14q13 1 -31 1q-5 0 -39 -5.5t-39 -5.5q-17 0 -17 16q0 5 3 13q8 10 54 51t62 66h14q17 -17 17 -33q0 -4 -10 -21.5t-10 -21.5q0 -5 12 -22t12 -24z" />
    <glyph glyph-name="y" unicode="y" horiz-adv-x="438" 
d="M412 408q-72 -65 -95 -179q-3 -7 -10 -19q-21 18 -21 41q0 5 12.5 51.5t12.5 52.5q0 10 -32 49q-13 5 -13 15t12 20q58 -6 79 -6q11 0 30 5t24 5q3 0 5.5 -8.5t6.5 -9.5zM286 124l-90 -286h-23v34q0 6 12 52t12 51q0 10 -16 73q-18 71 -34 111q-11 26 -24 79
q-9 38 -26 62q-5 7 -31 83q-6 16 -24 20q-31 8 -31 9q3 27 23 27q-7 0 34 -2q36 -1 68 0q45 1 81 8q4 -7 4 -15q0 -26 -24 -38q0 -19 5 -58q8 -8 18 -25q4 -28 19 -60q14 -27 14 -42q0 -9 -2 -18l22 -34q13 -20 13 -31zM148 -131q0 -63 -25 -85h-14.5h-19.5q-19 0 -36 18
q-9 9 -16 32q-6 20 -6 31q0 23 25 39q21 13 40 13q23 0 37.5 -14t14.5 -34z" />
    <glyph glyph-name="z" unicode="z" horiz-adv-x="383" 
d="M149 409q-5 -2 -29 -15q-29 -15 -47 -47q-7 -14 -12 -37q-3 -15 -14 -22h-18v148q12 0 35 1h26q4 0 19 4t23 4q11 0 17 -6v-30zM336 419q0 -9 -15 -35q-1 -10 -7 -33q-29 -73 -66.5 -116.5t-58.5 -105.5q-28 -84 -33 -93q-15 -29 -32 -34q-4 -1 -52 -1q-4 0 -30 1h-38v22
q0 3 14 25t17 30q2 12 10 37q73 96 103 204q3 13 11 37q18 25 48 74q1 0 3.5 3t8.5 3q70 0 113 -5q0 -1 2 -4t2 -9zM344 126q0 -58 -10 -122q-8 -3 -75 -3q-4 0 -26 1h-30v23q23 12 37 21q26 18 38 37q14 28 43 80q8 0 15.5 -13.5t7.5 -23.5z" />
    <glyph glyph-name="braceleft" unicode="{" horiz-adv-x="1809" 
d="M1709 542q0 -28 -19 -55.5t-45 -38.5q-10 -5 -34 -14q-15 3 -44 4l17 47l31 -4q26 11 34 17q22 18 20 51q-2 30 -42 37q-9 2 -58 2q-1 0 -2.5 -1.5t-3.5 -1.5q-36 0 -36 1q0 13 8.5 28.5t18.5 15.5h40q46 0 65 -6q29 -9 44 -41q6 -51 6 -41zM1492 629q-2 -5 -11 -19
t-11 -20l-193 12q-50 3 -54 3q-18 -1 -42 3q-27 5 -39 5q-25 8 -74 17q-50 4 -71 17q10 4 17 17q7 4 17 13q8 0 55 -11q18 -5 53 -12q8 -1 141 -7l146 -7h35q22 -1 31 -11zM1530 478q0 -6 -20 -45l-40 8l-73 1h-95q-1 0 -86 -4q-6 0 -27 6q19 40 24 40q7 0 19 -1.5t21 -1.5
l125 7q152 -2 152 -10zM1212 538q-7 -5 -23 -14h-4h-26h-26h-47q-22 1 -47 5q0 2 5 12.5t5 12t14 19t16 17.5t6.5 -3.5t6.5 -4.5l77 -9q13 -4 28 -8.5t15 -13.5v-13zM1174 475q-46 -26 -70 -33.5t-48 -7.5q-18 0 -48 5q-34 6 -49.5 7t-25.5 15q9 31 23 31l14.5 -8.5
t23.5 -8.5q-1 0 21 -1t60 -1q6 0 36.5 12.5t37.5 12.5q17 0 17 -4.5t4 -9.5t4 -9zM1238 346q0 -31 -28 -70q-34 -44 -75 -44q-27 0 -40 3q4 2 10.5 18t12.5 16h27q18 0 31 33q10 26 10 47q0 19 -8.5 36t-8.5 15q0 11 17 11q1 0 14 1q12 1 18 0q9 -1 10 -6t5.5 -31t4.5 -29z
M1031 603q-6 -15 -21 -41q-54 23 -125 35l-118 16q-23 -7 -51 -13q3 3 16 30t15 27q37 0 132 -13q25 -4 152 -41zM1115 384q0 -14 -41 -14q-10 0 -21.5 3.5t-21.5 3.5q-1 0 -12 -3.5t-12 -3.5q-2 0 -2 1q0 3 6 10.5t6 8.5q0 12 16 12q11 0 34 -1.5t38 -1.5q1 0 5.5 -6.5
t4.5 -8.5zM1059 271v-17q-2 -13 -8 -13q-75 0 -145 45q9 1 37 18q6 0 116 -33zM939 377q0 -51 -54 -51q-13 0 -53 24.5t-40 32.5q0 21 21 44.5t41 23.5q16 0 50.5 -28.5t34.5 -45.5zM892 515q0 -18 -3 -40q-21 6 -61 6q-6 0 -35 -13.5t-39 -13.5q-2 0 -15.5 -1.5t-15.5 -1.5
h-118l24 44q35 -3 47 -3q15 0 35 2q24 4 36 4q89 24 84 24q50 0 61 -7zM1157 151q-5 -27 -20 -40q-11 -9 -40 -20q-25 -8 -50 -8t-43 7q7 14 16 37q12 -1 41 -1q48 0 48 40q0 14 -8 28l49 -3q12 -12 7 -40zM872 252q0 -44 -43 -44q-47 0 -102 37q-8 5 -8 16q0 22 21.5 50.5
t40.5 28.5q26 0 58.5 -32.5t32.5 -55.5zM980 134l-14 -32q-16 0 -65 18q-83 32 -83 44q0 9 40 17zM1059 42l-4 -20q0 -28 -29 -49.5t-60 -21.5q-32 0 -58 11t-53 23q-14 5 -56 30q-45 27 -45 34q0 6 25.5 13t31.5 4q5 -2 57 -40q38 -27 88 -27q44 11 44 16q0 28 2 29
q1 0 2 -2q48 1 55 0zM696 397q0 -14 -23 -81q-11 -31 -68 -88q-60 -60 -86 -60q-9 0 -19 23q34 20 61 47q64 65 80 157q16 0 55 2zM787 130q0 -14 -10 -25.5t-20 -11.5q-15 0 -37 3q-4 -2 -34.5 10t-34.5 18.5t-4 16.5q0 25 16.5 51t37.5 26q16 0 45 -24q24 -19 31 -30
q10 -15 10 -34zM794 -12q-2 -1 -8.5 -8.5t-8.5 -7.5l-104 -7q-4 0 -146 37l47 39q77 -33 103 -33q55 0 64 12q18 -11 53 -32zM524 53q-7 0 -16.5 -15.5t-10.5 -15.5q-12 0 -24 7q-18 6 -37 13q-32 11 -48 11t-29 2.5t-14 2.5q-9 0 -30 -12l6 50q15 13 33 15q-10 -1 22.5 -1
t93.5 -24q58 -23 58 -31q-1 -2 -4 -2zM269 602q0 -69 -1 -348.5t-1 -265.5h-258q-6 31 0 31h38q51 0 75 54q18 38 18 88v339q0 75 -81 83q-4 0 -4 10q0 9 4 13q4 0 68 1q52 1 83 0q43 -1 59 -5zM655 602q-16 -5 -63 -5q-62 0 -172 -51q-18 -8 -90 -48q-1 34 2 58
q33 24 137 56q99 31 135 31q17 0 75 11q-11 -19 -24 -52z" />
    <glyph glyph-name="bar" unicode="|" horiz-adv-x="981" 
d="M5 325h3q204 -112 311 -112q33 0 58 10q54 23 82 44l66 58h2h-1l1 1h-2q-33 29 -66 57q-28 21 -82 44q-25 11 -58 11q-107 0 -312 -112h-2l1 -1h-1zM557 248q-32 -6 -76 -35q-49 -32 -57 -59q-3 -12 -3 -24q0 -39 35 -63t84 -24q50 0 90 25q44 27 60 78q-19 -10 -36 -10
q-34 0 -34 25q0 14 15 26q36 32 86 42q30 6 99 8v38q-130 0 -263 -27zM635 463q-15 13 -15 27q0 25 34 25q17 0 36 -10q-16 51 -60 78q-40 24 -90 24q-57 0 -92 -29q-38 -32 -24 -81q8 -27 56 -59q45 -29 77 -36q126 -24 263 -25v33q-65 2 -99 10q-49 12 -86 43zM874 572h60
v-493h-60v493z" />
    <glyph glyph-name="braceright" unicode="}" horiz-adv-x="1809" 
d="M3 542q0 -28 19 -55.5t45 -38.5q10 -5 34 -14q15 3 44 4l-17 47l-31 -4q-26 11 -34 17q-22 18 -20 51q3 30 42 37q9 2 58 2q1 0 2.5 -1.5t3.5 -1.5q36 0 36 1q0 13 -8.5 28.5t-18.5 15.5h-40q-46 0 -64 -6q-30 -9 -44 -41q-7 -51 -7 -41zM220 629q2 -5 11 -19t12 -20
l192 12q50 3 54 3q18 -1 42 3q28 5 39 5q26 8 75 17q49 4 70 17q-10 4 -16 17q-8 4 -17 13q-9 0 -56 -11q-18 -5 -53 -12q-8 -1 -141 -7l-145 -7h-36q-22 -1 -31 -11zM182 478q0 -6 20 -45l41 8l72 1h95q1 0 86 -4q6 0 27 6q-19 40 -24 40q-7 0 -19 -1.5t-21 -1.5l-125 7
q-152 -2 -152 -10zM500 538q7 -5 23 -14h6h23h25l42 10q25 0 51 4q1 3 -3 8.5t-4 7t-13.5 19t-16.5 17.5l-19 -5l-71 -12l-26 -8q-17 -5 -17 -14v-13zM538 475q46 -26 70 -33.5t48 -7.5q18 0 50.5 5.5t49.5 6.5q14 1 24 15q-10 31 -24 31l-14.5 -8.5t-23.5 -8.5
q1 0 -20.5 -1t-60.5 -1q-6 0 -36.5 12.5t-37.5 12.5q-16 0 -16 -4.5t-4.5 -9.5t-4.5 -9zM474 346q0 -31 29 -70q33 -44 74 -44q27 0 41 3q-5 2 -11.5 18t-12.5 16h-27q-18 0 -30 33q-11 26 -11 47q0 19 8.5 36t8.5 15q0 11 -17 11q-1 0 -14 1q-11 1 -17 0q-9 -1 -10 -6
t-6 -31t-5 -29zM682 603q5 -15 20 -41q54 23 125 35l118 16q23 -7 51 -13q-3 3 -16 30t-15 27q-37 0 -131 -13q-26 -4 -152 -41zM597 384q0 -14 41 -14q10 0 21.5 3.5t21.5 3.5q1 0 12 -3.5t12 -3.5q2 0 3 1q0 3 -6.5 10.5t-6.5 8.5q0 12 -16 12q-11 0 -34 -1.5t-37 -1.5
q-2 0 -6.5 -6.5t-4.5 -8.5zM653 271q0 -9 1 -17q1 -13 7 -13q75 0 146 45q-9 1 -38 18q-6 0 -116 -33zM773 377q0 -51 54 -51q13 0 53 24.5t40 32.5q0 21 -21 44.5t-40 23.5q-16 0 -51 -28.5t-35 -45.5zM820 515q1 -18 4 -40q20 6 60 6q6 0 35 -13.5t40 -13.5q1 0 15 -1.5
t15 -1.5h118l-23 44q-36 -3 -48 -3q-14 0 -35 2q-24 4 -36 4q-89 24 -84 24q-50 0 -61 -7zM555 151q6 -27 21 -40q11 -9 39 -20q25 -8 51 -8q24 0 43 7q-7 14 -17 37q-12 -1 -41 -1q-47 0 -47 40q0 14 7 28l-49 -3q-12 -12 -7 -40zM840 252q0 -44 43 -44q47 0 103 37
q7 5 7 16q0 22 -21.5 50.5t-39.5 28.5q-27 0 -59.5 -32.5t-32.5 -55.5zM732 134q7 -16 15 -32q15 0 65 18q82 32 82 44q0 9 -40 17zM653 42l4 -20q0 -28 29 -49.5t60 -21.5q33 0 59 11t52 23q14 5 56 30q46 27 46 34q0 6 -25.5 13t-32.5 4q-5 -2 -57 -40q-38 -27 -88 -27
q-44 11 -44 16q0 28 -2 29q-1 0 -1 -2q-49 1 -56 0zM1016 397q0 -14 23 -81q11 -31 68 -88q60 -60 87 -60q9 0 18 23q-34 20 -61 47q-64 65 -80 157q-16 0 -55 2zM925 130q0 -14 10 -25.5t20 -11.5q15 0 37 3q4 -2 35 10t34.5 18.5t3.5 16.5q0 25 -16.5 51t-37.5 26
q-15 0 -45 -24q-24 -19 -31 -30q-10 -15 -10 -34zM918 -12q2 -1 8.5 -8.5t8.5 -7.5l105 -7q3 0 145 37l-47 39q-77 -33 -103 -33q-55 0 -64 12q-18 -11 -53 -32zM1188 53q8 0 17 -15.5t10 -15.5q12 0 24 7q19 6 37 13q32 11 48 11t29 2.5t15 2.5q8 0 30 -12l-7 50
q-15 13 -33 15q10 -1 -22.5 -1t-92 -23.5t-59.5 -31.5q1 -2 4 -2zM1443 602q0 -69 1 -348.5t1 -265.5h258q6 31 0 31h-37q-52 0 -76 54q-18 38 -18 88v339q0 75 81 83q4 0 4 10q0 9 -4 13q-4 0 -68 1q-52 1 -83 0q-43 -1 -59 -5zM1057 602q16 -5 64 -5q62 0 171 -51
q19 -8 90 -48q1 34 -1 58q-34 24 -138 56q-99 31 -134 31q-18 0 -76 11q12 -19 24 -52z" />
    <glyph glyph-name="asciitilde" unicode="~" horiz-adv-x="390" 
d="M60 707l-37 5q38 95 104 95q23 0 78 -24q31 -14 39 -16t16 -2q40 0 60 37l30 -24q-1 -9 -11 -27q-32 -45 -84 -45q-13 0 -30 6q-2 0 -51 21q-34 14 -49 14q-44 0 -65 -40z" />
    <glyph glyph-name="Adieresis" unicode="&#xc4;" horiz-adv-x="562" 
d="M523 26q0 -11 -10 -18q-6 -1 -30 -4q-20 -2 -27 -2l-106 4l-89 -4q-8 0 -19 9v16q8 6 35 9q24 4 29 13q-5 23 -25 99q-8 20 -18.5 56t-4.5 62q3 0 -37 92l-10 69l-25 58l-20 72q6 37 13 74q5 24 17 29t57 5q49 0 55 -14q15 -34 22 -60q-3 -15 -2 -47q2 -11 16 -36t17 -37
q5 -38 18 -107q9 -20 25 -63q2 -15 6 -41q3 -10 35 -98q2 -55 6 -72q4 -9 13 -39q4 -15 18 -15q6 0 9 2t8 2q9 0 24 -14zM204 224q-7 -4 -28 -2t-28 -5q-12 -12 -22 -48q-7 -28 -7 -42q0 1 -3 -27q-2 -23 0 -30q3 -9 18 -22t15 -18q0 -28 -79 -28q-5 0 -14 3.5t-12 3.5
q-4 1 -14 -1q-13 -2 -17 -2q-12 0 -21 9q3 3 10 20q5 11 25 18q48 79 55 164q7 21 18 64q8 43 12 58q10 40 25 66h19q2 -5 12.5 -18.5t10.5 -18.5q0 -13 -22 -87q9 -11 33 -7q14 -41 14 -50zM100 762q0 20 15.5 34t36.5 14t35 -13.5t14 -34.5t-15 -36t-36 -15q-20 0 -35 15
t-15 36zM290 762q0 20 15.5 34t36.5 14t35 -13.5t14 -34.5t-15 -36t-36 -15q-20 0 -35 15t-15 36z" />
    <glyph glyph-name="Aring" unicode="&#xc5;" horiz-adv-x="562" 
d="M523 26q0 -11 -10 -18q-6 -1 -30 -4q-20 -2 -27 -2l-106 4l-89 -4q-8 0 -19 9v16q8 6 35 9q24 4 29 13q-5 23 -25 99q-8 20 -18.5 56t-4.5 62q3 0 -37 92l-10 69l-25 58l-20 72q6 37 13 74q5 24 17 29t57 5q49 0 55 -14q15 -34 22 -60q-3 -15 -2 -47q2 -11 16 -36t17 -37
q5 -38 18 -107q9 -20 25 -63q2 -15 6 -41q3 -10 35 -98q2 -55 6 -72q4 -9 13 -39q4 -15 18 -15q6 0 9 2t8 2q9 0 24 -14zM204 224q-7 -4 -28 -2t-28 -5q-12 -12 -22 -48q-7 -28 -7 -42q0 1 -3 -27q-2 -23 0 -30q3 -9 18 -22t15 -18q0 -28 -79 -28q-5 0 -14 3.5t-12 3.5
q-4 1 -14 -1q-13 -2 -17 -2q-12 0 -21 9q3 3 10 20q5 11 25 18q48 79 55 164q7 21 18 64q8 43 12 58q10 40 25 66h19q2 -5 12.5 -18.5t10.5 -18.5q0 -13 -22 -87q9 -11 33 -7q14 -41 14 -50zM244 830q27 0 46 -18.5t19 -45.5t-19 -45.5t-46 -18.5q-28 0 -47 18.5t-19 45.5
t19 45.5t47 18.5zM244 804q-17 0 -28.5 -11t-11.5 -27t11.5 -27t28.5 -11q16 0 27.5 11t11.5 27t-11.5 27t-27.5 11z" />
    <glyph glyph-name="Ccedilla" unicode="&#xc7;" horiz-adv-x="511" 
d="M430 477q0 -28 -28 -36q-15 8 -21 29q-3 16 -7 32q-17 40 -37 77q-6 12 -29 37q-15 17 -15 32q1 29 28 28q42 -1 94 -12q3 -2 8 -8q0 -31 4 -106q3 -70 3 -73zM218 3q-10 -9 -26 -9q-8 0 -37 11.5t-42 21.5q-37 28 -65 95q-9 13 -20 35q-20 59 -20 119q0 6 -1.5 30
t-1.5 30q0 27 1 55q1 19 8 46q10 38 23 85q8 21 20 37q19 25 27 38t56 41q54 31 84 29q12 -1 13 -11q-1 14 -2 -12q0 -5 -22 -26t-25 -30q-13 -44 -14 -87l-18 -130q0 -1 6 -80.5t6 -106.5q0 -10 -1 -29t-1 -29q0 -67 52 -103v-20zM253 -48h15q37 3 57 -17.5t20 -50.5
q0 -46 -38 -66q-44 -24 -114 11l11 23q17 -10 32 -10q20 0 34 17q12 14 12 33q0 34 -33 34q-5 0 -11 -1l-28 -15q21 37 48 99v-2q19 -5 79 65q25 29 41 86q10 41 19 82q2 6 11.5 14t17.5 8q19 0 20 -15q7 -162 7 -183q-1 -33 -4 -44q-7 -24 -30 -24q-14 0 -51 8q-7 2 -34 -4
q-32 -6 -43 -6q-8 0 -13 2q-10 -16 -22 -37z" />
    <glyph glyph-name="Eacute" unicode="&#xc9;" horiz-adv-x="554" 
d="M486 449q-1 0 -5.5 -2.5t-11.5 -2.5t-17 23l-12 28q-7 10 -25 38q0 10 -7 29q-17 9 -40 26q-7 9 -41 33q-26 17 -27 34q12 14 34 14l13 -1t36 -2q34 -1 90 -1q14 -36 13 -70l-8 -59zM379 168h-32q-8 36 -37 105q-9 10 -26 31q-26 37 -26 41q0 8 26 40q29 18 27 18t13 31
q9 30 32 90q18 0 23 -14v-342zM503 29q0 -27 -43 -27q-123 0 -162 4l-7 -3v26q0 11 31 23q43 15 68 39q43 40 65 118q3 15 6.5 29.5t20.5 14.5q7 0 21 -14v-79l-5 -41zM236 429q0 -4 -4.5 -20t-4.5 -22l2 -111l-11 -90q0 2 4.5 -27t4.5 -57q-1 -58 -2 -90q-15 -14 -40 -14
h-70q-101 0 -118 18v24q45 6 57 14q16 11 16 44q0 4 -4 46t-4 48l5 72l-5 75q0 -6 3 34.5t2 78.5q-4 24 -9 69l-2 82q-7 7 -38 14q-24 6 -24 22q0 26 53 26q34 0 93 -3h47q28 -1 44 -11l-8 -66l8 -63q0 -5 2.5 -46t2.5 -47zM140 720l11 -22l213 61q8 7 8 22q0 18 -11 35
t-25 17q-6 0 -12 -4z" />
    <glyph glyph-name="Ntilde" unicode="&#xd1;" horiz-adv-x="585" 
d="M541 642q0 -18 -25.5 -46t-25.5 -51v-129q0 -5 4.5 -45.5t4.5 -45.5q0 -26 -28 -26q-39 0 -39 135q0 11 3 38t3 41q0 20 -5 35q-2 7 -37 48q-34 38 -34 49q0 19 50 19q-1 0 18 -4.5t36 -4.5q11 0 34 5t31 4q10 -5 10 -22zM500 0q-16 -5 -40 -5q7 0 -23 -1q-20 -1 -33 1
q-19 3 -24 11q-13 19 -26 41q-7 25 -20 63q-17 26 -55 90q-16 28 -29 66q-10 19 -28 55q-4 18 -15 49q-5 8 -21 27q-13 16 -11 16t-13.5 42t-29.5 70q-15 21 -40 58q-10 22 -39 32l-30 4q-21 5 -27 16v14q21 14 49 14q5 0 50 -4t50 -4q4 0 27 4t28 4q30 0 40 -20l22 -54
q11 -17 30 -52q16 -36 49 -107q10 -14 27 -40q6 -10 11.5 -33t11.5 -33q12 -24 32 -61q55 -55 68 -101q3 -12 2 -34q-2 -38 -2 -35zM191 -5l-7 7q-123 -8 -156 -8q-24 0 -24 32q0 10 27 42.5t31 51.5q9 38 9 85l-8 84l5 67q0 7 -3 28t-3 33q0 25 11 40h20q22 -20 25 -35.5
t2 -42.5q-2 -43 -2 -47q0 -17 3 -40.5l3 -23.5l-6 -74l6 -66q0 -22 11 -41q6 -12 20 -31q9 -10 25 -18q11 -7 11 -12v-31zM140 707l-37 5q38 95 104 95q23 0 78 -24q31 -14 39 -16t16 -2q40 0 60 37l30 -24q-1 -9 -11 -27q-32 -45 -84 -45q-13 0 -30 6q-2 0 -51 21
q-34 14 -49 14q-44 0 -65 -40z" />
    <glyph glyph-name="Odieresis" unicode="&#xd6;" horiz-adv-x="600" 
d="M545 342q0 -22 -14 -130q-8 -55 -69 -135q-67 -89 -124 -89q-19 0 -19 21q0 14 12 23q17 12 21 19q18 32 18 140q0 5 -2 66t-2 66v144q0 141 -45 161q-6 23 -6 20q9 9 32 9q33 0 72 -27t69 -72q9 -14 20 -45q13 -42 17 -49q16 -37 19 -66q1 -9 1 -56zM247 -1
q0 -19 -30 -19q-35 0 -84 35q-39 29 -68 65q-5 13 -16 38t-23 50q-14 32 -17 52q-5 32 -5 116q0 4 5.5 21t5.5 26q4 108 54 184q21 31 64 63q49 36 82 36q13 0 23 -9v-29q-14 -10 -28 -21q-17 -14 -18 -24q-1 -27 -7.5 -84.5t-6.5 -60.5t9 -78q9 -80 11 -110q1 -14 -2 -56
q-4 -47 -4 -73q0 -32 5 -58q1 -7 25.5 -31t24.5 -33zM130 762q0 20 15.5 34t36.5 14t35 -13.5t14 -34.5t-15 -36t-36 -15q-20 0 -35 15t-15 36zM320 762q0 20 15.5 34t36.5 14t35 -13.5t14 -34.5t-15 -36t-36 -15q-20 0 -35 15t-15 36z" />
    <glyph glyph-name="Udieresis" unicode="&#xdc;" horiz-adv-x="591" 
d="M544 631q0 -2 -28.5 -38.5t-32.5 -55.5q-5 -23 -3 -70l4 -50l-6 -134l6 -95q0 -25 -3 -29q2 -5 2 -13q0 -41 -26 -86q-31 -52 -71 -53q-21 0 -21 21q-1 16 13 23q33 19 42 53l10 54l-5 184l5 53q0 29 1 57q0 56 -9 84q-6 18 -37 58t-31 45q0 6 8.5 12.5t14.5 6.5
q28 0 78 2l54 2q11 1 23 -12t12 -19zM291 641q0 -11 -13 -19.5t-23 -8.5q-1 2 -12 4q-6 0 -14 -11q6 -27 6 -53t-6.5 -59.5t-6.5 -41.5q1 -13 5.5 -54.5t4.5 -59.5q0 -15 -2 -23q-7 -23 8 -96q-3 -15 -5 -42q0 -37 1 -48q2 -28 9 -49q3 -10 24.5 -35t21.5 -30q0 -21 -31 -21
q-52 -1 -117 37q-76 45 -77 102l6 112l-8 77l5 97l-11 68l4 82q0 35 -25 42q-29 8 -35 39q3 5 10 12q22 2 74 -3q56 -6 54 -6q19 3 37 6q39 5 71 5q18 0 34 -2q10 -4 11 -21zM130 762q0 20 15.5 34t36.5 14t35 -13.5t14 -34.5t-15 -36t-36 -15q-20 0 -35 15t-15 36zM320 762
q0 20 15.5 34t36.5 14t35 -13.5t14 -34.5t-15 -36t-36 -15q-20 0 -35 15t-15 36z" />
    <glyph glyph-name="aacute" unicode="&#xe1;" horiz-adv-x="440" 
d="M441 54q0 -27 -29 -42q-23 -12 -53 -12q-45 0 -80 18q-47 24 -47 72v133q0 3 4 58t4 61q0 35 -12.5 64.5t-12.5 31.5q0 8 9 14.5t18 6.5q58 0 102 -52q37 -44 41 -92q0 -4 -4 -19.5t-4 -20.5l5 -75l-11 -49l7 -82q7 -7 11 -7q3 0 12.5 8.5t16.5 8.5q23 0 23 -25zM182 361
q0 -25 -16 -47t-43 -22q-14 0 -65 22q-10 22 -10 43q0 28 32 63t64 35q11 0 19 -14q-1 -8 -1 -16q0 -15 10 -34.5t10 -29.5zM206 36q7 -32 -56 -32q-55 0 -91 31t-36 86q0 33 22 67q26 37 63 42q4 1 17 8.5t18 7.5h42q0 -2 2.5 -10.5t2.5 -13.5q-37 -23 -37 -110
q0 -32 3 -38q8 -16 50 -38zM110 504l11 -20l193 56q7 6 7 19q0 16 -10 31.5t-23 15.5q-5 0 -11 -3z" />
    <glyph glyph-name="agrave" unicode="&#xe0;" horiz-adv-x="440" 
d="M441 54q0 -27 -29 -42q-23 -12 -53 -12q-45 0 -80 18q-47 24 -47 72v133q0 3 4 58t4 61q0 35 -12.5 64.5t-12.5 31.5q0 8 9 14.5t18 6.5q58 0 102 -52q37 -44 41 -92q0 -4 -4 -19.5t-4 -20.5l5 -75l-11 -49l7 -82q7 -7 11 -7q3 0 12.5 8.5t16.5 8.5q23 0 23 -25zM182 361
q0 -25 -16 -47t-43 -22q-14 0 -65 22q-10 22 -10 43q0 28 32 63t64 35q11 0 19 -14q-1 -8 -1 -16q0 -15 10 -34.5t10 -29.5zM206 36q7 -32 -56 -32q-55 0 -91 31t-36 86q0 33 22 67q26 37 63 42q4 1 17 8.5t18 7.5h42q0 -2 2.5 -10.5t2.5 -13.5q-37 -23 -37 -110
q0 -32 3 -38q8 -16 50 -38zM312 504l-10 -20l-194 56q-7 6 -7 19q0 16 10 31.5t23 15.5q6 0 11 -3z" />
    <glyph glyph-name="acircumflex" unicode="&#xe2;" horiz-adv-x="440" 
d="M441 54q0 -27 -29 -42q-23 -12 -53 -12q-45 0 -80 18q-47 24 -47 72v133q0 3 4 58t4 61q0 35 -12.5 64.5t-12.5 31.5q0 8 9 14.5t18 6.5q58 0 102 -52q37 -44 41 -92q0 -4 -4 -19.5t-4 -20.5l5 -75l-11 -49l7 -82q7 -7 11 -7q3 0 12.5 8.5t16.5 8.5q23 0 23 -25zM182 361
q0 -25 -16 -47t-43 -22q-14 0 -65 22q-10 22 -10 43q0 28 32 63t64 35q11 0 19 -14q-1 -8 -1 -16q0 -15 10 -34.5t10 -29.5zM206 36q7 -32 -56 -32q-55 0 -91 31t-36 86q0 33 22 67q26 37 63 42q4 1 17 8.5t18 7.5h42q0 -2 2.5 -10.5t2.5 -13.5q-37 -23 -37 -110
q0 -32 3 -38q8 -16 50 -38zM209 540q-25 -16 -99 -49l-10 19q34 27 107 88h8l100 -88l-10 -19q-28 10 -58 28t-38 21z" />
    <glyph glyph-name="adieresis" unicode="&#xe4;" horiz-adv-x="440" 
d="M441 54q0 -27 -29 -42q-23 -12 -53 -12q-45 0 -80 18q-47 24 -47 72v133q0 3 4 58t4 61q0 35 -12.5 64.5t-12.5 31.5q0 8 9 14.5t18 6.5q58 0 102 -52q37 -44 41 -92q0 -4 -4 -19.5t-4 -20.5l5 -75l-11 -49l7 -82q7 -7 11 -7q3 0 12.5 8.5t16.5 8.5q23 0 23 -25zM182 361
q0 -25 -16 -47t-43 -22q-14 0 -65 22q-10 22 -10 43q0 28 32 63t64 35q11 0 19 -14q-1 -8 -1 -16q0 -15 10 -34.5t10 -29.5zM206 36q7 -32 -56 -32q-55 0 -91 31t-36 86q0 33 22 67q26 37 63 42q4 1 17 8.5t18 7.5h42q0 -2 2.5 -10.5t2.5 -13.5q-37 -23 -37 -110
q0 -32 3 -38q8 -16 50 -38zM95 542q0 18 14 30.5t33 12.5t32 -12.5t13 -30.5q0 -19 -13.5 -32.5t-32.5 -13.5t-32.5 13.5t-13.5 32.5zM244 542q0 18 14 30.5t33 12.5t32 -12.5t13 -30.5q0 -19 -13.5 -32.5t-32.5 -13.5t-32.5 13.5t-13.5 32.5z" />
    <glyph glyph-name="atilde" unicode="&#xe3;" horiz-adv-x="440" 
d="M441 54q0 -27 -29 -42q-23 -12 -53 -12q-45 0 -80 18q-47 24 -47 72v133q0 3 4 58t4 61q0 35 -12.5 64.5t-12.5 31.5q0 8 9 14.5t18 6.5q58 0 102 -52q37 -44 41 -92q0 -4 -4 -19.5t-4 -20.5l5 -75l-11 -49l7 -82q7 -7 11 -7q3 0 12.5 8.5t16.5 8.5q23 0 23 -25zM182 361
q0 -25 -16 -47t-43 -22q-14 0 -65 22q-10 22 -10 43q0 28 32 63t64 35q11 0 19 -14q-1 -8 -1 -16q0 -15 10 -34.5t10 -29.5zM206 36q7 -32 -56 -32q-55 0 -91 31t-36 86q0 33 22 67q26 37 63 42q4 1 17 8.5t18 7.5h42q0 -2 2.5 -10.5t2.5 -13.5q-37 -23 -37 -110
q0 -32 3 -38q8 -16 50 -38zM345 567q-31 -66 -81 -66q-21 0 -60 16.5t-60 16.5q-34 0 -57 -29q-3 5 -8.5 5.5t-7.5 2.5q29 69 96 69q20 0 54.5 -15.5t52.5 -15.5q28 0 59 26z" />
    <glyph glyph-name="aring" unicode="&#xe5;" horiz-adv-x="440" 
d="M441 54q0 -27 -29 -42q-23 -12 -53 -12q-45 0 -80 18q-47 24 -47 72v133q0 3 4 58t4 61q0 35 -12.5 64.5t-12.5 31.5q0 8 9 14.5t18 6.5q58 0 102 -52q37 -44 41 -92q0 -4 -4 -19.5t-4 -20.5l5 -75l-11 -49l7 -82q7 -7 11 -7q3 0 12.5 8.5t16.5 8.5q23 0 23 -25zM182 361
q0 -25 -16 -47t-43 -22q-14 0 -65 22q-10 22 -10 43q0 28 32 63t64 35q11 0 19 -14q-1 -8 -1 -16q0 -15 10 -34.5t10 -29.5zM206 36q7 -32 -56 -32q-55 0 -91 31t-36 86q0 33 22 67q26 37 63 42q4 1 17 8.5t18 7.5h42q0 -2 2.5 -10.5t2.5 -13.5q-37 -23 -37 -110
q0 -32 3 -38q8 -16 50 -38zM214 620q27 0 46 -18.5t19 -45.5t-19 -45.5t-46 -18.5q-28 0 -47 18.5t-19 45.5t19 45.5t47 18.5zM214 594q-17 0 -28.5 -11t-11.5 -27t11.5 -27t28.5 -11q16 0 27.5 11t11.5 27t-11.5 27t-27.5 11z" />
    <glyph glyph-name="ccedilla" unicode="&#xe7;" horiz-adv-x="449" 
d="M379 357q0 -36 -21.5 -56.5t-57.5 -20.5q-63 0 -63 60q0 17 28 68q3 7 0 15q-4 7 -11 17q10 15 23 15q20 0 51 -16q28 -15 37 -26q14 -19 14 -56zM392 125q0 -31 -38 -78t-73 -47q-23 0 -23 27q0 11 13 18l26 14q23 14 31 42q11 35 19.5 44t19.5 9q25 0 25 -29zM188 -50
q9 1 15 1q73 0 73 -56q0 -31 -26 -56.5t-65 -25.5q-28 0 -58 14l12 23q16 -9 32 -9q20 0 33 15.5t13 34.5q0 33 -33 33q-6 0 -12 -1l-27 -14q16 30 44 87q-1 -1 -2 -1q-26 0 -71 30q-39 25 -66 55q-3 3 -5 21t-6 25q-15 31 -15 85q0 10 -1 28t-1 27q0 45 25 72q4 21 17 52
q17 23 65 51q26 14 52 14q12 0 27 -14q-2 -2 -6 -14q-21 -14 -25 -61v-93q0 -13 -3.5 -41.5t-3.5 -31.5q0 8 3 -84l1 -47q1 -16 30 -55q15 -5 15 -8q-13 -21 -29 -49z" />
    <glyph glyph-name="eacute" unicode="&#xe9;" horiz-adv-x="426" 
d="M384 273q0 -40 -9 -48q-5 -4 -33 -4h-86q-37 0 -43 14v23q12 4 37 20q0 63 -6 112q0 1 -5 8.5t-5 13.5v34h30q23 1 65 -34q37 -31 41 -42q14 -44 14 -97zM384 121q0 -29 -26 -63q-23 -30 -50 -43q-1 0 -15 -9q-10 -6 -16 -6q-7 0 -12.5 7.5t-5.5 15.5q0 15 9 21
q8 2 25 10q26 23 39 49q4 11 12 28l7 7t10 4q8 0 15.5 -7t7.5 -14zM187 -3q-5 -6 -12 -6q-16 0 -62 28q-35 22 -37 23q-22 15 -29 30q-39 72 -39 124q0 -3 7 40q4 39 9 78q10 52 43 81q16 14 51 35t42 21q8 0 15.5 -7.5t7.5 -15.5q0 -4 -9.5 -20t-10.5 -22q-9 -85 -9 -182
q0 -74 2 -98q7 -72 31 -87v-22zM100 504l11 -20l193 56q7 6 7 19q0 16 -10 31.5t-23 15.5q-5 0 -11 -3z" />
    <glyph glyph-name="egrave" unicode="&#xe8;" horiz-adv-x="426" 
d="M384 273q0 -40 -9 -48q-5 -4 -33 -4h-86q-37 0 -43 14v23q12 4 37 20q0 63 -6 112q0 1 -5 8.5t-5 13.5v34h30q23 1 65 -34q37 -31 41 -42q14 -44 14 -97zM384 121q0 -29 -26 -63q-23 -30 -50 -43q-1 0 -15 -9q-10 -6 -16 -6q-7 0 -12.5 7.5t-5.5 15.5q0 15 9 21
q8 2 25 10q26 23 39 49q4 11 12 28l7 7t10 4q8 0 15.5 -7t7.5 -14zM187 -3q-5 -6 -12 -6q-16 0 -62 28q-35 22 -37 23q-22 15 -29 30q-39 72 -39 124q0 -3 7 40q4 39 9 78q10 52 43 81q16 14 51 35t42 21q8 0 15.5 -7.5t7.5 -15.5q0 -4 -9.5 -20t-10.5 -22q-9 -85 -9 -182
q0 -74 2 -98q7 -72 31 -87v-22zM302 504l-10 -20l-194 56q-7 6 -7 19q0 16 10 31.5t23 15.5q6 0 11 -3z" />
    <glyph glyph-name="ecircumflex" unicode="&#xea;" horiz-adv-x="426" 
d="M384 273q0 -40 -9 -48q-5 -4 -33 -4h-86q-37 0 -43 14v23q12 4 37 20q0 63 -6 112q0 1 -5 8.5t-5 13.5v34h30q23 1 65 -34q37 -31 41 -42q14 -44 14 -97zM384 121q0 -29 -26 -63q-23 -30 -50 -43q-1 0 -15 -9q-10 -6 -16 -6q-7 0 -12.5 7.5t-5.5 15.5q0 15 9 21
q8 2 25 10q26 23 39 49q4 11 12 28l7 7t10 4q8 0 15.5 -7t7.5 -14zM187 -3q-5 -6 -12 -6q-16 0 -62 28q-35 22 -37 23q-22 15 -29 30q-39 72 -39 124q0 -3 7 40q4 39 9 78q10 52 43 81q16 14 51 35t42 21q8 0 15.5 -7.5t7.5 -15.5q0 -4 -9.5 -20t-10.5 -22q-9 -85 -9 -182
q0 -74 2 -98q7 -72 31 -87v-22zM199 540q-25 -16 -99 -49l-10 19q34 27 107 88h8l100 -88l-10 -19q-28 10 -58 28t-38 21z" />
    <glyph glyph-name="edieresis" unicode="&#xeb;" horiz-adv-x="426" 
d="M384 273q0 -40 -9 -48q-5 -4 -33 -4h-86q-37 0 -43 14v23q12 4 37 20q0 63 -6 112q0 1 -5 8.5t-5 13.5v34h30q23 1 65 -34q37 -31 41 -42q14 -44 14 -97zM384 121q0 -29 -26 -63q-23 -30 -50 -43q-1 0 -15 -9q-10 -6 -16 -6q-7 0 -12.5 7.5t-5.5 15.5q0 15 9 21
q8 2 25 10q26 23 39 49q4 11 12 28l7 7t10 4q8 0 15.5 -7t7.5 -14zM187 -3q-5 -6 -12 -6q-16 0 -62 28q-35 22 -37 23q-22 15 -29 30q-39 72 -39 124q0 -3 7 40q4 39 9 78q10 52 43 81q16 14 51 35t42 21q8 0 15.5 -7.5t7.5 -15.5q0 -4 -9.5 -20t-10.5 -22q-9 -85 -9 -182
q0 -74 2 -98q7 -72 31 -87v-22zM85 542q0 18 14 30.5t33 12.5t32 -12.5t13 -30.5q0 -19 -13.5 -32.5t-32.5 -13.5t-32.5 13.5t-13.5 32.5zM234 542q0 18 14 30.5t33 12.5t32 -12.5t13 -30.5q0 -19 -13.5 -32.5t-32.5 -13.5t-32.5 13.5t-13.5 32.5z" />
    <glyph glyph-name="iacute" unicode="&#xed;" horiz-adv-x="273" 
d="M239 33q2 -17 -4 -29l-164 -6q-55 -2 -65 10l8 17q4 3 40 16q13 6 13 30q-1 13 -8 58q-4 22 -5 50q4 42 6 96q-5 37 -4 55q4 52 4 58q-19 4 -54 21q-9 12 -9 19q0 11 17 12q55 -1 119 -1q20 2 40 3q18 2 22 -3.5t4 -13.5q0 -6 -3 -25.5t-3 -30.5q9 -85 9 -88
q-1 -3 -4.5 -39t-2.5 -38q2 -5 1 -62q-1 -32 -4 -77q1 -23 12 -26q34 -6 35 -6zM0 504l11 -20l193 56q7 6 7 19q0 16 -10 31.5t-23 15.5q-5 0 -11 -3z" />
    <glyph glyph-name="igrave" unicode="&#xec;" horiz-adv-x="273" 
d="M239 33q2 -17 -4 -29l-164 -6q-55 -2 -65 10l8 17q4 3 40 16q13 6 13 30q-1 13 -8 58q-4 22 -5 50q4 42 6 96q-5 37 -4 55q4 52 4 58q-19 4 -54 21q-9 12 -9 19q0 11 17 12q55 -1 119 -1q20 2 40 3q18 2 22 -3.5t4 -13.5q0 -6 -3 -25.5t-3 -30.5q9 -85 9 -88
q-1 -3 -4.5 -39t-2.5 -38q2 -5 1 -62q-1 -32 -4 -77q1 -23 12 -26q34 -6 35 -6zM212 504l-10 -20l-194 56q-7 6 -7 19q0 16 10 31.5t23 15.5q6 0 11 -3z" />
    <glyph glyph-name="icircumflex" unicode="&#xee;" horiz-adv-x="273" 
d="M239 33q2 -17 -4 -29l-164 -6q-55 -2 -65 10l8 17q4 3 40 16q13 6 13 30q-1 13 -8 58q-4 22 -5 50q4 42 6 96q-5 37 -4 55q4 52 4 58q-19 4 -54 21q-9 12 -9 19q0 11 17 12q55 -1 119 -1q20 2 40 3q18 2 22 -3.5t4 -13.5q0 -6 -3 -25.5t-3 -30.5q9 -85 9 -88
q-1 -3 -4.5 -39t-2.5 -38q2 -5 1 -62q-1 -32 -4 -77q1 -23 12 -26q34 -6 35 -6zM109 540q-25 -16 -99 -49l-10 19q34 27 107 88h8l100 -88l-10 -19q-28 10 -58 28t-38 21z" />
    <glyph glyph-name="idieresis" unicode="&#xef;" horiz-adv-x="273" 
d="M239 33q2 -17 -4 -29l-164 -6q-55 -2 -65 10l8 17q4 3 40 16q13 6 13 30q-1 13 -8 58q-4 22 -5 50q4 42 6 96q-5 37 -4 55q4 52 4 58q-19 4 -54 21q-9 12 -9 19q0 11 17 12q55 -1 119 -1q20 2 40 3q18 2 22 -3.5t4 -13.5q0 -6 -3 -25.5t-3 -30.5q9 -85 9 -88
q-1 -3 -4.5 -39t-2.5 -38q2 -5 1 -62q-1 -32 -4 -77q1 -23 12 -26q34 -6 35 -6zM-15 542q0 18 14 30.5t33 12.5t32 -12.5t13 -30.5q0 -19 -13.5 -32.5t-32.5 -13.5t-32.5 13.5t-13.5 32.5zM134 542q0 18 14 30.5t33 12.5t32 -12.5t13 -30.5q0 -19 -13.5 -32.5t-32.5 -13.5
t-32.5 13.5t-13.5 32.5z" />
    <glyph glyph-name="ntilde" unicode="&#xf1;" horiz-adv-x="515" 
d="M477 3q-64 1 -138 1q-35 0 -35 62q0 14 2 39q2 22 1 29q-1 16 0 52q1 35 3 35q-3 0 -5 83q-1 48 -7 81q-1 10 -29.5 18t-29.5 21q0 15 21 24q16 7 35 7q75 2 116 -41q37 -40 35 -105l-6 -91l6 -76l-6 -91q35 -3 46 -20zM241 -1q-68 -2 -146 -3q-44 -1 -78 10q-15 6 -9 24
q43 12 54 12q-2 24 -5 97q0 -3 3 85q0 -2 -6 77l4 84q-5 5 -26 15t-26 18l-1 21l32 9l54 -5q9 -1 30.5 1.5t31.5 2.5q21 0 34 -8q2 -10 4 -72l5 -112q-4 -39 -6 -82q-1 -11 -1 -24q0 -10 3 -46q3 -31 1 -52q5 -8 25.5 -13.5t21.5 -6.5zM355 567q-31 -66 -81 -66
q-21 0 -60 16.5t-60 16.5q-34 0 -57 -29q-3 5 -8.5 5.5t-7.5 2.5q29 69 96 69q20 0 54.5 -15.5t52.5 -15.5q28 0 59 26z" />
    <glyph glyph-name="oacute" unicode="&#xf3;" horiz-adv-x="478" 
d="M421 226q1 -70 -9 -97t-69 -105q-5 -6 -34.5 -17.5t-37.5 -11.5q-16 0 -25 5q-3 2 -5 16q0 5 9 17t10 15q13 69 13 90q0 3 -4.5 28t-4.5 36q1 49 -1 144q-1 14 -11 46.5t-10 35.5v27h18q9 0 33 -9q29 -11 47 -26q22 -19 42 -53q26 -46 33 -78q5 -25 6 -63zM191 439
q0 -5 -10.5 -23.5t-10.5 -23.5l3 -163q0 -5 -3.5 -44.5t-3.5 -44.5q0 -21 2 -64q1 -9 11 -28.5t11 -24.5q0 -30 -30 -30q-5 0 -13 7t-11 8q-28 9 -56 36t-35 51q-24 73 -25 113q0 13 8 79q5 35 46 104q4 7 45.5 37t53.5 30q18 0 18 -19zM110 504l11 -20l193 56q7 6 7 19
q0 16 -10 31.5t-23 15.5q-5 0 -11 -3z" />
    <glyph glyph-name="ograve" unicode="&#xf2;" horiz-adv-x="478" 
d="M421 226q1 -70 -9 -97t-69 -105q-5 -6 -34.5 -17.5t-37.5 -11.5q-16 0 -25 5q-3 2 -5 16q0 5 9 17t10 15q13 69 13 90q0 3 -4.5 28t-4.5 36q1 49 -1 144q-1 14 -11 46.5t-10 35.5v27h18q9 0 33 -9q29 -11 47 -26q22 -19 42 -53q26 -46 33 -78q5 -25 6 -63zM191 439
q0 -5 -10.5 -23.5t-10.5 -23.5l3 -163q0 -5 -3.5 -44.5t-3.5 -44.5q0 -21 2 -64q1 -9 11 -28.5t11 -24.5q0 -30 -30 -30q-5 0 -13 7t-11 8q-28 9 -56 36t-35 51q-24 73 -25 113q0 13 8 79q5 35 46 104q4 7 45.5 37t53.5 30q18 0 18 -19zM322 504l-10 -20l-194 56q-7 6 -7 19
q0 16 10 31.5t23 15.5q6 0 11 -3z" />
    <glyph glyph-name="ocircumflex" unicode="&#xf4;" horiz-adv-x="478" 
d="M421 226q1 -70 -9 -97t-69 -105q-5 -6 -34.5 -17.5t-37.5 -11.5q-16 0 -25 5q-3 2 -5 16q0 5 9 17t10 15q13 69 13 90q0 3 -4.5 28t-4.5 36q1 49 -1 144q-1 14 -11 46.5t-10 35.5v27h18q9 0 33 -9q29 -11 47 -26q22 -19 42 -53q26 -46 33 -78q5 -25 6 -63zM191 439
q0 -5 -10.5 -23.5t-10.5 -23.5l3 -163q0 -5 -3.5 -44.5t-3.5 -44.5q0 -21 2 -64q1 -9 11 -28.5t11 -24.5q0 -30 -30 -30q-5 0 -13 7t-11 8q-28 9 -56 36t-35 51q-24 73 -25 113q0 13 8 79q5 35 46 104q4 7 45.5 37t53.5 30q18 0 18 -19zM219 540q-25 -16 -99 -49l-10 19
q34 27 107 88h8l100 -88l-10 -19q-28 10 -58 28t-38 21z" />
    <glyph glyph-name="odieresis" unicode="&#xf6;" horiz-adv-x="478" 
d="M421 226q1 -70 -9 -97t-69 -105q-5 -6 -34.5 -17.5t-37.5 -11.5q-16 0 -25 5q-3 2 -5 16q0 5 9 17t10 15q13 69 13 90q0 3 -4.5 28t-4.5 36q1 49 -1 144q-1 14 -11 46.5t-10 35.5v27h18q9 0 33 -9q29 -11 47 -26q22 -19 42 -53q26 -46 33 -78q5 -25 6 -63zM191 439
q0 -5 -10.5 -23.5t-10.5 -23.5l3 -163q0 -5 -3.5 -44.5t-3.5 -44.5q0 -21 2 -64q1 -9 11 -28.5t11 -24.5q0 -30 -30 -30q-5 0 -13 7t-11 8q-28 9 -56 36t-35 51q-24 73 -25 113q0 13 8 79q5 35 46 104q4 7 45.5 37t53.5 30q18 0 18 -19zM95 542q0 18 14 30.5t33 12.5
t32 -12.5t13 -30.5q0 -19 -13.5 -32.5t-32.5 -13.5t-32.5 13.5t-13.5 32.5zM244 542q0 18 14 30.5t33 12.5t32 -12.5t13 -30.5q0 -19 -13.5 -32.5t-32.5 -13.5t-32.5 13.5t-13.5 32.5z" />
    <glyph glyph-name="otilde" unicode="&#xf5;" horiz-adv-x="478" 
d="M421 226q1 -70 -9 -97t-69 -105q-5 -6 -34.5 -17.5t-37.5 -11.5q-16 0 -25 5q-3 2 -5 16q0 5 9 17t10 15q13 69 13 90q0 3 -4.5 28t-4.5 36q1 49 -1 144q-1 14 -11 46.5t-10 35.5v27h18q9 0 33 -9q29 -11 47 -26q22 -19 42 -53q26 -46 33 -78q5 -25 6 -63zM191 439
q0 -5 -10.5 -23.5t-10.5 -23.5l3 -163q0 -5 -3.5 -44.5t-3.5 -44.5q0 -21 2 -64q1 -9 11 -28.5t11 -24.5q0 -30 -30 -30q-5 0 -13 7t-11 8q-28 9 -56 36t-35 51q-24 73 -25 113q0 13 8 79q5 35 46 104q4 7 45.5 37t53.5 30q18 0 18 -19zM355 567q-31 -66 -81 -66
q-21 0 -60 16.5t-60 16.5q-34 0 -57 -29q-3 5 -8.5 5.5t-7.5 2.5q29 69 96 69q20 0 54.5 -15.5t52.5 -15.5q28 0 59 26z" />
    <glyph glyph-name="uacute" unicode="&#xfa;" horiz-adv-x="465" 
d="M441 8q-10 -14 -18 -14l-159 1q2 17 0 101q3 38 6 103q-1 10 -6 49q-4 35 -3 49q1 26 3 90q-4 6 -23 17q-15 8 -18 30q4 3 13 8q24 2 143 2q7 0 16 -6.5t8 -12.5q-4 -36 -10 -108q3 -23 6 -71q-3 -29 -6 -88q2 -24 3 -59v-64q44 0 45 -27zM210 4q-2 -6 -11.5 -14.5
t-18.5 -8.5q-62 0 -101 38t-39 103q0 21 4 44l7 83l-5 50l2 85q0 14 -15 18q-22 6 -32 15q-3 21 8.5 27t34.5 3q36 -3 28 -3q62 0 92 -2q12 -10 15 -64q4 -52 0 -52q3 0 -5 -38l4 -250q11 -10 32 -34zM110 504l11 -20l193 56q7 6 7 19q0 16 -10 31.5t-23 15.5q-5 0 -11 -3z
" />
    <glyph glyph-name="ugrave" unicode="&#xf9;" horiz-adv-x="465" 
d="M441 8q-10 -14 -18 -14l-159 1q2 17 0 101q3 38 6 103q-1 10 -6 49q-4 35 -3 49q1 26 3 90q-4 6 -23 17q-15 8 -18 30q4 3 13 8q24 2 143 2q7 0 16 -6.5t8 -12.5q-4 -36 -10 -108q3 -23 6 -71q-3 -29 -6 -88q2 -24 3 -59v-64q44 0 45 -27zM210 4q-2 -6 -11.5 -14.5
t-18.5 -8.5q-62 0 -101 38t-39 103q0 21 4 44l7 83l-5 50l2 85q0 14 -15 18q-22 6 -32 15q-3 21 8.5 27t34.5 3q36 -3 28 -3q62 0 92 -2q12 -10 15 -64q4 -52 0 -52q3 0 -5 -38l4 -250q11 -10 32 -34zM322 504l-10 -20l-194 56q-7 6 -7 19q0 16 10 31.5t23 15.5q6 0 11 -3z
" />
    <glyph glyph-name="ucircumflex" unicode="&#xfb;" horiz-adv-x="465" 
d="M441 8q-10 -14 -18 -14l-159 1q2 17 0 101q3 38 6 103q-1 10 -6 49q-4 35 -3 49q1 26 3 90q-4 6 -23 17q-15 8 -18 30q4 3 13 8q24 2 143 2q7 0 16 -6.5t8 -12.5q-4 -36 -10 -108q3 -23 6 -71q-3 -29 -6 -88q2 -24 3 -59v-64q44 0 45 -27zM210 4q-2 -6 -11.5 -14.5
t-18.5 -8.5q-62 0 -101 38t-39 103q0 21 4 44l7 83l-5 50l2 85q0 14 -15 18q-22 6 -32 15q-3 21 8.5 27t34.5 3q36 -3 28 -3q62 0 92 -2q12 -10 15 -64q4 -52 0 -52q3 0 -5 -38l4 -250q11 -10 32 -34zM209 540q-25 -16 -99 -49l-10 19q34 27 107 88h8l100 -88l-10 -19
q-28 10 -58 28t-38 21z" />
    <glyph glyph-name="udieresis" unicode="&#xfc;" horiz-adv-x="465" 
d="M441 8q-10 -14 -18 -14l-159 1q2 17 0 101q3 38 6 103q-1 10 -6 49q-4 35 -3 49q1 26 3 90q-4 6 -23 17q-15 8 -18 30q4 3 13 8q24 2 143 2q7 0 16 -6.5t8 -12.5q-4 -36 -10 -108q3 -23 6 -71q-3 -29 -6 -88q2 -24 3 -59v-64q44 0 45 -27zM210 4q-2 -6 -11.5 -14.5
t-18.5 -8.5q-62 0 -101 38t-39 103q0 21 4 44l7 83l-5 50l2 85q0 14 -15 18q-22 6 -32 15q-3 21 8.5 27t34.5 3q36 -3 28 -3q62 0 92 -2q12 -10 15 -64q4 -52 0 -52q3 0 -5 -38l4 -250q11 -10 32 -34zM85 542q0 18 14 30.5t33 12.5t32 -12.5t13 -30.5q0 -19 -13.5 -32.5
t-32.5 -13.5t-32.5 13.5t-13.5 32.5zM244 542q0 18 14 30.5t33 12.5t32 -12.5t13 -30.5q0 -19 -13.5 -32.5t-32.5 -13.5t-32.5 13.5t-13.5 32.5z" />
    <glyph glyph-name="dagger" unicode="&#x2020;" horiz-adv-x="615" 
d="M547 477v-115h-174l-36 -521h-59l-36 521h-175v115h175v190h131v-190h174z" />
    <glyph glyph-name="degree" unicode="&#xb0;" horiz-adv-x="500" 
d="M252 671q63 0 108.5 -46t45.5 -109q0 -66 -45 -111.5t-111 -45.5q-65 0 -110.5 45.5t-45.5 110.5q0 66 46 111t112 45zM248 614q-39 0 -67.5 -30t-28.5 -69q0 -41 28.5 -70t69.5 -29q39 0 68.5 29t29.5 68q0 42 -29 71.5t-71 29.5z" />
    <glyph glyph-name="cent" unicode="&#xa2;" horiz-adv-x="368" 
d="M303 486q0 -65 -67 -65q-53 0 -53 51q0 15 23 58q3 6 0 13q-3 5 -9 14q9 13 19 13q18 0 44 -14q23 -13 31 -22q12 -16 12 -48zM314 289q0 -26 -32 -66t-62 -40q-20 0 -20 23q0 10 11 16t22 11q20 12 27 36q9 29 16 37t17 8q21 0 21 -25zM158 558q-2 -2 -6 -12
q-17 -12 -20 -52v-79q0 -11 -3 -35t-3 -27q0 7 2 -71l1 -41q1 -13 25 -46q-6 -16 -14 -16q-22 0 -60 25q-33 22 -56 47q-2 13 -10 39q-13 27 -13 72q0 79 -1 58q2 30 21 51q4 17 14 44q15 19 56 43q22 12 44 12q10 0 23 -12zM154 154h47l-4 -77h-39zM154 664h47v-69l-45 2z
" />
    <glyph glyph-name="sterling" unicode="&#xa3;" horiz-adv-x="451" 
d="M374 543q0 -16 -21 -46q-24 -35 -49 -35q-28 0 -54 22t-26 53q0 25 25 45q35 27 39 34q-4 4 -28.5 20.5t-24.5 15.5q0 20 5 20q34 0 71 -22q33 -20 45 -41q18 -32 18 -66zM292 301h-114q-48 -115 -47 -119l-78 -11q7 22 13 44q22 57 29 86h-97v57h93q-10 19 -59 91
q-31 45 -31 79q0 58 44.5 102t109.5 44q26 0 31 -4q-15 -28 -41 -87q-8 -21 -8 -47q0 5 5 -48q6 -64 49 -112q10 -11 9 -18h92v-57zM397 169q0 -4 -5 -59q-7 -69 -10 -112q-5 -10 -20 -10q-5 0 -28.5 2t-29 2t-46.5 4.5t-46 4.5q-150 0 -201 -13q-10 10 -10 15q0 26 12 72
q16 60 37 64q72 13 104 13l79 -2.5t110 -2.5q6 3 12 26q6 20 18 20q4 0 24 -9v-15z" />
    <glyph glyph-name="section" unicode="&#xa7;" 
 />
    <glyph glyph-name="bullet" unicode="&#x2022;" horiz-adv-x="667" 
d="M336 478q57 0 97 -41.5t40 -97.5q0 -58 -40.5 -98.5t-98.5 -40.5q-57 0 -97.5 40.5t-40.5 98.5q0 59 40.5 99t99.5 40z" />
    <glyph glyph-name="paragraph" unicode="&#xb6;" horiz-adv-x="615" 
d="M245 -113v431h-10q-81 0 -133 46t-52 126q0 65 34.5 109t97.5 59q34 9 93 9h254v-56h-53v-724h-70v724h-91v-724h-70z" />
    <glyph glyph-name="germandbls" unicode="&#xdf;" horiz-adv-x="487" 
d="M216 24q-4 -17 -13 -18.5t-19 -1.5q1 0 -166 0q-27 0 -27 27q0 17 17 21q13 3 26 7q15 10 15 114q0 4 -3.5 17.5t-3.5 20.5q-1 17 2 52q4 41 4 54q0 1 -8 95q-4 3 -29 14q-12 5 -12 22q0 15 12 19q14 1 27 3q9 10 8 37q-1 34 0 40q25 95 63 114q26 13 39 14h36q3 0 4 -5
q0 -4 -1.5 -10t-2.5 -11q-16 -5 -32 -11q-32 -17 -32 -35q0 -26 28 -64t28 -61q0 -11 -3 -35t-3 -36q0 -32 4.5 -71t4.5 -40l-7 -111q0 2 3.5 -28t2.5 -52q0 -15 -2 -40q3 -6 25 -17q18 -8 15 -24zM409 534q0 -127 -100 -151q-7 -2 -31.5 -13t-30.5 -11h-22q1 7 15 23.5
t17 22.5q9 18 10 54v57q1 5 7 28.5t6 29.5q0 17 -19 34q-23 20 -31 41q4 4 2 15q-2 8 4 8q67 0 120 -41.5t53 -96.5zM426 136q0 -81 -59 -178q-61 -102 -128 -119q-9 -2 -32 23q84 63 84 228q0 59 -5.5 96.5t-5.5 31.5q0 5 -7.5 26.5t-8.5 29.5q0 5 -2 18q-5 5 -7 17
q-4 16 -5 18q2 0 7.5 3t11.5 3q36 0 76 -22.5t58 -50.5q10 -16 18 -66q5 -39 5 -58z" />
    <glyph glyph-name="registered" unicode="&#xae;" horiz-adv-x="344" 
d="M147 664q65 0 102 -44q34 -40 34 -97t-34 -96q-38 -44 -104 -44q-65 0 -103 44q-35 39 -35 96q0 58 35 97q39 44 105 44zM144 638q-52 0 -81 -34t-29 -81t28 -79q31 -36 83 -36q53 0 84 36q28 32 28 79t-28 79q-32 36 -85 36zM86 602q5 0 22 1t27 1q74 0 74 -45
q0 -27 -26 -38q20 -8 23 -33q3 -38 5 -42h-33q-6 11 -6 26v7v7q0 24 -51 24v-64h-35v156zM121 581v-50q29 0 35 1q19 5 19 24q0 14 -10 21q-6 4 -44 4z" />
    <glyph glyph-name="copyright" unicode="&#xa9;" horiz-adv-x="771" 
d="M391 680q95 0 177 -52t125 -137q38 -75 38 -158q0 -144 -101 -245.5t-244 -101.5t-244.5 101.5t-101.5 245.5q0 99 50.5 182t138.5 128q75 37 162 37zM383 618q-112 0 -194 -82.5t-82 -202.5q0 -117 81 -200.5t198 -83.5q115 0 196 83t81 201q0 120 -82 202.5t-198 82.5z
M565 296q-5 -74 -54 -118t-124 -44q-88 0 -139 57t-51 145t53 145t140 57q81 0 131 -54q36 -38 40 -89h-66q-16 68 -105 68q-52 0 -81 -39q-25 -34 -25 -89q0 -53 25 -88q28 -38 80 -38q97 0 109 87h67z" />
    <glyph glyph-name="trademark" unicode="&#x2122;" horiz-adv-x="487" 
d="M380 406v168l-47 -166q-21 -2 -42 0l-47 165v-169h-42v256h61l49 -171l51 172l59 -1v-254h-42zM93 618v-209l-41 -1l-1 210h-48v42h143v-42h-53z" />
    <glyph glyph-name="acute" unicode="&#xb4;" horiz-adv-x="429" 
d="M110 504l11 -20l193 56q7 6 7 19q0 16 -10 31.5t-23 15.5q-5 0 -11 -3z" />
    <glyph glyph-name="dieresis" unicode="&#xa8;" horiz-adv-x="440" 
d="M95 752q0 18 14 30.5t33 12.5t32 -12.5t13 -30.5q0 -19 -13.5 -32.5t-32.5 -13.5t-32.5 13.5t-13.5 32.5zM244 752q0 18 14 30.5t33 12.5t32 -12.5t13 -30.5q0 -19 -13.5 -32.5t-32.5 -13.5t-32.5 13.5t-13.5 32.5z" />
    <glyph glyph-name="AE" unicode="&#xc6;" horiz-adv-x="945" 
d="M340 239q-8 -4 -27 -1q-27 3 -31 3q-13 0 -19 -5q-18 -13 -44 -55q-22 -35 -27 -49q-11 -25 -24 -63q0 -10 11.5 -24.5t9.5 -20.5q-10 -30 -96 -27q-9 3 -26 8q-12 -1 -36 -2q-13 0 -19 10q3 3 18 22q9 11 34 18q82 85 121 178q15 22 44 69l68 132q60 113 86 140l-6 -79
q0 -11 -31 -101q-4 -13 -55 -94q3 -6 24 -9q17 -2 29 -1q0 -38 -4 -49zM851 439q-1 0 -5.5 -2.5t-11.5 -2.5t-17 23l-12 28q-7 10 -25 38q0 10 -7 29q-17 9 -40 26q-7 9 -41 33q-26 17 -27 34q12 14 34 14l13 -1t36 -2q34 -1 90 -1q14 -36 13 -70l-8 -59zM744 158h-32
q-8 36 -37 105q-9 10 -26 31q-26 37 -26 41q0 8 26 40q29 18 27 18t13 31q9 30 32 90q18 0 23 -14v-342zM868 19q0 -27 -43 -27q-123 0 -162 4l-7 -3v26q0 11 31 23q43 15 68 39q43 40 65 118q3 15 6.5 29.5t20.5 14.5q7 0 21 -14v-79l-5 -41zM601 419q0 -4 -4.5 -20
t-4.5 -22l2 -111l-11 -90q0 2 4.5 -27t4.5 -57q-1 -58 -2 -90q-15 -14 -40 -14h-70q-106 0 -123 18v24q46 6 60 14q18 12 18 44q0 4 -4 46t-4 48l5 72l-5 75q0 -6 3 34.5t2 78.5q-4 24 -9 69q4 29 8 82q-7 7 -41 14q-26 6 -26 22q0 26 58 26q24 0 83 -3h47q28 -1 44 -11
l-8 -66l8 -63q0 -5 2.5 -46t2.5 -47z" />
    <glyph glyph-name="Oslash" unicode="&#xd8;" horiz-adv-x="600" 
d="M545 342q0 -22 -14 -130q-8 -55 -69 -135q-67 -89 -124 -89q-19 0 -19 21q0 14 12 23q17 12 21 19q18 32 18 140q0 5 -2 66t-2 66v144q0 141 -45 161q-6 23 -6 20q9 9 32 9q33 0 72 -27t69 -72q9 -14 20 -45q13 -42 17 -49q16 -37 19 -66q1 -9 1 -56zM247 -1
q0 -19 -30 -19q-35 0 -84 35q-39 29 -68 65q-5 13 -16 38t-23 50q-14 32 -17 52q-5 32 -5 116q0 4 5.5 21t5.5 26q4 108 54 184q21 31 64 63q49 36 82 36q13 0 23 -9v-29q-14 -10 -28 -21q-17 -14 -18 -24q-1 -27 -7.5 -84.5t-6.5 -60.5t9 -78q9 -80 11 -110q1 -14 -2 -56
q-4 -47 -4 -73q0 -32 5 -58q1 -7 25.5 -31t24.5 -33z" />
    <glyph glyph-name="plusminus" unicode="&#xb1;" 
 />
    <glyph glyph-name="yen" unicode="&#xa5;" horiz-adv-x="594" 
d="M560 635q0 -8 -23 -26q-31 -26 -51 -51q-30 -39 -62 -122q-5 -14 -23 -33q-20 -22 -33 -22q-19 0 -19 45q0 -1 12 28q35 93 35 110q0 22 -17 41.5t-17 33.5q0 19 40 23q-3 0 52 0q1 0 19 1.5t30 1.5q57 0 57 -30zM455 154q-64 -7 -95 0q4 -13 4 -23q0 -3 -5 -67
q1 -2 32 -12q26 -8 26 -32q0 -19 -47 -23h-53q-119 0 -183 9q0 2 -2.5 4t-2.5 8q0 17 28 24l32 6q8 18 4 72q2 18 5 34v0q-21 -1 -43 -3q-49 -3 -64 3q-6 16 -6 29t6 20q33 3 101 0q1 20 3 51h-104q-8 20 -8 30q0 12 8 19q58 6 104 0q4 2 8 6q-24 33 -60 101q-6 23 -17 61
q-4 13 -13 24q-4 4 -8 9q0 34 -11.5 55t-22.5 43q-3 6 -40.5 15t-34.5 33q8 10 28 10h69l47 -7l65 7h54q48 0 48 -28q0 -20 -27 -20q-30 -1 -36 -15l19 -54l7 -38l20 -35l16 -74l19 -38l27 -55q26 7 103 0q6 -17 0 -49q-82 -9 -101 0v-37v-14h101q6 -19 0 -49z" />
    <glyph glyph-name="mu" unicode="&#xb5;" horiz-adv-x="567" 
d="M526 23q0 -8 -7 -17.5t-16 -9.5h-14h-40q-6 0 -25 4t-35 4q-6 0 -32.5 -4t-33.5 -4q-10 15 -9 34q5 4 14 11q49 14 98 82q42 58 59 115q4 14 22 23q5 -4 19 -4l-8 -92l8 -42v-100zM345 387l-92 -62q0 -18 3 -54.5t3 -53.5l-3 -100v-113q-11 -8 -38 -8q-19 0 -60 -1h-61
q-46 0 -80 2q0 1 -2 4.5t-2 9.5q0 22 20 25t40 5q21 6 21 34q-14 74 -14 77q3 12 5 23q5 23 5 35v3l-84 -58v67l77 53q-4 25 -9 73q-1 50 10 85q-3 28 -7 55l4 70q2 29 -11 37q-20 11 -40 21q-8 8 -8 16q0 9 8 17q12 12 53 9l72 -6l121 6l30 -6q11 -4 11 -19
q0 -24 -29 -29.5t-31 -20.5q-9 -48 -1 -92q8 -40 3 -78q-1 -9 -2 -17l88 61v-70z" />
    <glyph glyph-name="mu" unicode="&#x3bc;" horiz-adv-x="567" 
d="M526 23q0 -8 -7 -17.5t-16 -9.5h-14h-40q-6 0 -25 4t-35 4q-6 0 -32.5 -4t-33.5 -4q-10 15 -9 34q5 4 14 11q49 14 98 82q42 58 59 115q4 14 22 23q5 -4 19 -4l-8 -92l8 -42v-100zM345 387l-92 -62q0 -18 3 -54.5t3 -53.5l-3 -100v-113q-11 -8 -38 -8q-19 0 -60 -1h-61
q-46 0 -80 2q0 1 -2 4.5t-2 9.5q0 22 20 25t40 5q21 6 21 34q-14 74 -14 77q3 12 5 23q5 23 5 35v3l-84 -58v67l77 53q-4 25 -9 73q-1 50 10 85q-3 28 -7 55l4 70q2 29 -11 37q-20 11 -40 21q-8 8 -8 16q0 9 8 17q12 12 53 9l72 -6l121 6l30 -6q11 -4 11 -19
q0 -24 -29 -29.5t-31 -20.5q-9 -48 -1 -92q8 -40 3 -78q-1 -9 -2 -17l88 61v-70z" />
    <glyph glyph-name="ordfeminine" unicode="&#xaa;" horiz-adv-x="511" 
d="M206 647q0 -5 -34 -37q-39 -35 -50 -54q-15 -25 -29 -63q-22 -61 -24 -65h-24q-13 36 -13 48q0 5 6 33.5t6 32.5q0 17 -4 40q-3 18 -1 39q-2 11 -2 31q22 14 31 14h128q10 -10 10 -19zM453 642q0 -2 -19 -54q-2 -5 -30 -56q2 0 -6.5 -31.5t-14.5 -46.5q-22 -36 -61 -111
q-3 -22 -15 -64q-12 -17 -36 -59q-17 -48 -38 -105q-16 -27 -59 -112l-4 -4t-9 -2q-3 0 -16.5 4.5t-19.5 4.5q-5 0 -24 -4.5t-25 -4.5q-5 0 -11.5 2t-11.5 3h-55v18q0 4 17.5 33t22.5 44q3 21 17 65q5 12 20.5 32t15.5 21q0 23 16 58q11 24 31 69q11 32 34 95q6 16 22.5 38
t20.5 33q6 31 27 86q15 22 42 67h159q10 -9 10 -19zM466 131q0 -5 -5 -15q-5 -13 -7 -19q0 -28 -7 -86q-11 -10 -36 -10q-71 0 -153 2v23q14 8 38 27q24 23 67 75q10 15 65 128l30 -2l-3 -53q11 -50 11 -70zM248 751q28 17 109 54l11 -22l-114 -90l-3 -4l-1 2l-2 -2l-2 4
l-114 90l10 22q31 -11 64 -31t42 -23z" />
    <glyph glyph-name="ordmasculine" unicode="&#xba;" horiz-adv-x="383" 
d="M149 409q-5 -2 -29 -15q-29 -15 -47 -47q-7 -14 -12 -37q-3 -15 -14 -22h-18v148q12 0 35 1h26q4 0 19 4t23 4q11 0 17 -6v-30zM336 419q0 -9 -15 -35q-1 -10 -7 -33q-29 -73 -66.5 -116.5t-58.5 -105.5q-28 -84 -33 -93q-15 -29 -32 -34q-4 -1 -52 -1q-4 0 -30 1h-38v22
q0 3 14 25t17 30q2 12 10 37q73 96 103 204q3 13 11 37q18 25 48 74q1 0 3.5 3t8.5 3q70 0 113 -5q0 -1 2 -4t2 -9zM344 126q0 -58 -10 -122q-8 -3 -75 -3q-4 0 -26 1h-30v23q23 12 37 21q26 18 38 37q14 28 43 80q8 0 15.5 -13.5t7.5 -23.5zM189 540q24 17 98 49l10 -19
l-104 -82l-2 -3l-1 1l-2 -1l-2 3l-104 82l10 19q28 -9 58 -27.5t39 -21.5z" />
    <glyph glyph-name="ae" unicode="&#xe6;" horiz-adv-x="637" 
d="M584 273q0 -40 -9 -48q-5 -4 -33 -4h-86q-37 0 -43 14v23q12 4 37 20q12 21 12 43q0 17 -8.5 40.5t-9.5 28.5q0 1 -5 8.5t-5 13.5v34h30q23 0 65 -34q37 -31 41 -42q14 -44 14 -97zM584 121q0 -29 -26 -63q-23 -30 -50 -43q-1 0 -15 -9q-10 -6 -16 -6q-7 0 -12.5 7.5
t-5.5 15.5q0 15 9 21q8 2 25 10q26 23 39 49q4 11 12 28l7 7t10 4q8 0 15.5 -7t7.5 -14zM406 -4q-1 -4 -7 -6q-4 -1 -12 0q-11 1 -12 1q-8 0 -35 14q-56 17 -82 52q-7 7 -11 15q-39 72 -39 124q0 6 4 27q0 3 4 58t4 61q0 35 -12.5 64.5t-12.5 31.5q0 20 26 20q37 -1 68 -59
q17 21 42 38q21 14 29 14t15.5 -7.5t7.5 -15.5q0 -4 -9.5 -20t-10.5 -22q-4 -38 -7 -109q1 -1 1 -2l-1 -4q-2 -50 -2 -67q0 -102 8 -137q48 -34 44 -71zM162 361q0 -25 -16 -47t-43 -22q-14 0 -65 22q-10 22 -10 43q0 28 32 63t64 35q11 0 19 -14q-1 -8 -1 -16
q0 -15 10 -34.5t10 -29.5zM186 36q7 -32 -56 -32q-55 0 -91 31t-36 86q0 33 22 67q26 37 63 42q4 1 17 8.5t18 7.5h42q0 -2 2.5 -10.5t2.5 -13.5q-37 -23 -37 -110q0 -32 3 -38q8 -16 50 -38z" />
    <glyph glyph-name="oslash" unicode="&#xf8;" horiz-adv-x="478" 
d="M421 226q1 -70 -9 -97t-69 -105q-5 -6 -34.5 -17.5t-37.5 -11.5q-16 0 -25 5q-3 2 -5 16q0 5 9 17t10 15q13 69 13 90q0 3 -4.5 28t-4.5 36q1 49 -1 144q-1 14 -11 46.5t-10 35.5v27h18q9 0 33 -9q29 -11 47 -26q22 -19 42 -53q26 -46 33 -78q5 -25 6 -63zM191 439
q0 -5 -10.5 -23.5t-10.5 -23.5l3 -163q0 -5 -3.5 -44.5t-3.5 -44.5q0 -21 2 -64q1 -9 11 -28.5t11 -24.5q0 -30 -30 -30q-5 0 -13 7t-11 8q-28 9 -56 36t-35 51q-24 73 -25 113q0 13 8 79q5 35 46 104q4 7 45.5 37t53.5 30q18 0 18 -19z" />
    <glyph glyph-name="questiondown" unicode="&#xbf;" horiz-adv-x="441" 
d="M1 -47q-1 27 10 66.5t24 48.5q62 45 85 65q54 47 70 84q1 5 -1.5 15.5t-2.5 13.5q7 0 26.5 5.5t25.5 5.5q6 1 16 -10t10 -19q1 -10 -15 -47q-18 -43 -38 -67q-23 -15 -55 -48q-15 -28 -13 -85q2 -56 39 -130q8 -16 31 -21v-16q-3 -8 -17 -16q-136 -5 -171 88
q-12 24 -24 67zM251 -171q-1 6 21 30q-12 37 -12 52q-2 40 32 63q26 18 62 19q28 1 49 -27q6 -45 -31.5 -99.5t-83.5 -56.5q-17 0 -37 19zM138 375q-3 84 91 87q29 1 42 -5q19 -9 20 -39q1 -42 2 -38q-9 -66 -74 -69q-32 -1 -56 17.5t-25 46.5z" />
    <glyph glyph-name="exclamdown" unicode="&#xa1;" horiz-adv-x="219" 
d="M11 -101q0 20 12 57q11 31 22 61.5t20 80.5q4 49 14 146q0 1 17 24q6 1 14.5 -3t10.5 -11q10 -41 22 -176q5 -10 12 -30q1 -27 5 -79q7 -19 14 -49q1 -36 -15 -76q-21 -55 -60 -56q-45 -2 -70 42q-16 32 -18 69zM18 373q-3 83 91 86q30 2 42 -4q20 -10 21 -39
q1 -43 2 -39q-9 -66 -74 -69q-32 -1 -56.5 18t-25.5 47z" />
    <glyph glyph-name="logicalnot" unicode="&#xac;" 
 />
    <glyph glyph-name="florin" unicode="&#x192;" 
 />
    <glyph glyph-name="guillemotleft" unicode="&#xab;" horiz-adv-x="309" 
d="M135 245q4 6 97 157l28 -29q-17 -50 -46 -133q11 -30 43 -124l-26 -31q-32 54 -96 160zM3 245q4 6 98 157l27 -29q-8 -25 -49 -132q27 -71 45 -125l-25 -31q-33 53 -96 160z" />
    <glyph glyph-name="guillemotright" unicode="&#xbb;" horiz-adv-x="309" 
d="M128 245q-4 6 -97 157l-28 -29q17 -50 46 -133q-11 -30 -43 -124l26 -31q32 54 96 160zM260 245q-4 6 -98 157l-27 -29q18 -48 50 -130q-25 -64 -46 -127l24 -31q34 53 97 160z" />
    <glyph glyph-name="ellipsis" unicode="&#x2026;" horiz-adv-x="1072" 
d="M1026 100q0 -47 -36.5 -80.5t-73.5 -33.5q-41 0 -61 35q-14 26 -14 60q0 39 19 67q8 11 39 28t50 17q28 0 54 -36q23 -33 23 -57zM626 100q0 -47 -36.5 -80.5t-73.5 -33.5q-41 0 -61 35q-14 26 -14 60q0 39 19 67q8 11 39 28t50 17q28 0 54 -36q23 -33 23 -57zM226 100
q0 -47 -36.5 -80.5t-73.5 -33.5q-41 0 -61 35q-14 26 -14 60q0 39 19 67q8 11 39 28t50 17q28 0 54 -36q23 -33 23 -57z" />
    <glyph glyph-name="nonbreakingspace" unicode="&#xa0;" horiz-adv-x="1023" 
 />
    <glyph glyph-name="Agrave" unicode="&#xc0;" horiz-adv-x="562" 
d="M523 26q0 -11 -10 -18q-6 -1 -30 -4q-20 -2 -27 -2l-106 4l-89 -4q-8 0 -19 9v16q8 6 35 9q24 4 29 13q-5 23 -25 99q-8 20 -18.5 56t-4.5 62q3 0 -37 92l-10 69l-25 58l-20 72q6 37 13 74q5 24 17 29t57 5q49 0 55 -14q15 -34 22 -60q-3 -15 -2 -47q2 -11 16 -36t17 -37
q5 -38 18 -107q9 -20 25 -63q2 -15 6 -41q3 -10 35 -98q2 -55 6 -72q4 -9 13 -39q4 -15 18 -15q6 0 9 2t8 2q9 0 24 -14zM204 224q-7 -4 -28 -2t-28 -5q-12 -12 -22 -48q-7 -28 -7 -42q0 1 -3 -27q-2 -23 0 -30q3 -9 18 -22t15 -18q0 -28 -79 -28q-5 0 -14 3.5t-12 3.5
q-4 1 -14 -1q-13 -2 -17 -2q-12 0 -21 9q3 3 10 20q5 11 25 18q48 79 55 164q7 21 18 64q8 43 12 58q10 40 25 66h19q2 -5 12.5 -18.5t10.5 -18.5q0 -13 -22 -87q9 -11 33 -7q14 -41 14 -50zM362 720l-12 -22l-213 61q-7 7 -7 22q0 18 11 35t25 17q6 0 12 -4z" />
    <glyph glyph-name="Atilde" unicode="&#xc3;" horiz-adv-x="562" 
d="M523 26q0 -11 -10 -18q-6 -1 -30 -4q-20 -2 -27 -2l-106 4l-89 -4q-8 0 -19 9v16q8 6 35 9q24 4 29 13q-5 23 -25 99q-8 20 -18.5 56t-4.5 62q3 0 -37 92l-10 69l-25 58l-20 72q6 37 13 74q5 24 17 29t57 5q49 0 55 -14q15 -34 22 -60q-3 -15 -2 -47q2 -11 16 -36t17 -37
q5 -38 18 -107q9 -20 25 -63q2 -15 6 -41q3 -10 35 -98q2 -55 6 -72q4 -9 13 -39q4 -15 18 -15q6 0 9 2t8 2q9 0 24 -14zM204 224q-7 -4 -28 -2t-28 -5q-12 -12 -22 -48q-7 -28 -7 -42q0 1 -3 -27q-2 -23 0 -30q3 -9 18 -22t15 -18q0 -28 -79 -28q-5 0 -14 3.5t-12 3.5
q-4 1 -14 -1q-13 -2 -17 -2q-12 0 -21 9q3 3 10 20q5 11 25 18q48 79 55 164q7 21 18 64q8 43 12 58q10 40 25 66h19q2 -5 12.5 -18.5t10.5 -18.5q0 -13 -22 -87q9 -11 33 -7q14 -41 14 -50zM120 707l-37 5q38 95 104 95q23 0 78 -24q31 -14 39 -16t16 -2q40 0 60 37l30 -24
q-1 -9 -11 -27q-32 -45 -84 -45q-13 0 -30 6q-2 0 -51 21q-34 14 -49 14q-44 0 -65 -40z" />
    <glyph glyph-name="Otilde" unicode="&#xd5;" horiz-adv-x="600" 
d="M545 342q0 -22 -14 -130q-8 -55 -69 -135q-67 -89 -124 -89q-19 0 -19 21q0 14 12 23q17 12 21 19q18 32 18 140q0 5 -2 66t-2 66v144q0 141 -45 161q-6 23 -6 20q9 9 32 9q33 0 72 -27t69 -72q9 -14 20 -45q13 -42 17 -49q16 -37 19 -66q1 -9 1 -56zM247 -1
q0 -19 -30 -19q-35 0 -84 35q-39 29 -68 65q-5 13 -16 38t-23 50q-14 32 -17 52q-5 32 -5 116q0 4 5.5 21t5.5 26q4 108 54 184q21 31 64 63q49 36 82 36q13 0 23 -9v-29q-14 -10 -28 -21q-17 -14 -18 -24q-1 -27 -7.5 -84.5t-6.5 -60.5t9 -78q9 -80 11 -110q1 -14 -2 -56
q-4 -47 -4 -73q0 -32 5 -58q1 -7 25.5 -31t24.5 -33zM150 707l-37 5q38 95 104 95q23 0 78 -24q31 -14 39 -16t16 -2q40 0 60 37l30 -24q-1 -9 -11 -27q-32 -45 -84 -45q-13 0 -30 6q-2 0 -51 21q-34 14 -49 14q-44 0 -65 -40z" />
    <glyph glyph-name="OE" unicode="&#x152;" horiz-adv-x="865" 
d="M796 449q-1 0 -5.5 -2.5t-11.5 -2.5t-17 23l-12 28q-7 10 -25 38q0 10 -7 29q-17 9 -40 26q-7 9 -41 33q-26 17 -27 34q12 14 34 14l13 -1t36 -2q34 -1 90 -1q14 -36 13 -70l-8 -59zM689 168h-32q-8 36 -37 105q-9 10 -26 31q-26 37 -26 41q0 8 26 40q29 18 27 18t13 31
q9 30 32 90q18 0 23 -14v-342zM813 29q2 -27 -43 -27q-123 0 -162 4l-7 -3v26q0 11 32 23q42 15 67 39q43 40 65 118q3 15 6.5 29.5t20.5 14.5q7 0 21 -14v-79l-5 -41zM545 342q0 -8 -6 -60v-6l-11 -90q0 2 4.5 -27t4.5 -57q-1 -58 -2 -90q-15 -14 -40 -14h-70q-30 -6 -43 3
q-23 -13 -44 -13q-19 0 -19 21q0 14 12 23q17 12 21 19q18 32 18 140q0 5 -2 66t-2 66v144q0 141 -45 161q-6 23 -6 20q9 9 32 9q6 0 12 -1v2q64 5 91 4h47q28 -1 44 -11l-8 -66l8 -63q0 -5 2.5 -46t2.5 -47q0 -4 -4 -18q3 -16 3 -69zM247 -1q0 -19 -30 -19q-35 0 -84 35
q-39 29 -68 65q-5 13 -16 38t-23 50q-14 32 -17 52q-5 32 -5 116q0 4 5.5 21t5.5 26q4 108 54 184q21 31 64 63q49 36 82 36q13 0 23 -9v-29q-14 -10 -28 -21q-17 -14 -18 -24q-1 -27 -7.5 -84.5t-6.5 -60.5t9 -78q9 -80 11 -110q1 -14 -2 -56q-4 -47 -4 -73q0 -32 5 -58
q1 -7 25.5 -31t24.5 -33z" />
    <glyph glyph-name="oe" unicode="&#x153;" horiz-adv-x="688" 
d="M634 273q0 -40 -9 -48q-5 -4 -33 -4h-86q-37 0 -43 14v23q12 4 37 20q0 63 -6 112q0 1 -5 8.5t-5 13.5v34h30q23 0 65 -34q37 -31 41 -42q14 -44 14 -97zM634 121q0 -29 -26 -63q-23 -30 -50 -43q-1 0 -15 -9q-10 -6 -16 -6q-7 0 -12.5 7.5t-5.5 15.5q0 15 9 21
q8 2 25 10q26 23 39 49q4 11 12 28l7 7t10 4q8 0 15.5 -7t7.5 -14zM333 38l-10 -14q-5 -6 -34.5 -17.5t-37.5 -11.5q-16 0 -25 5q-3 2 -5 16q0 5 9 17t10 15q13 69 13 90v51q1 48 1 59q-4 26 -11 98q-10 37 -21 82v27h18q10 0 33 -9q29 -11 47 -26q5 -4 13 -13q61 44 77 44
q8 0 15.5 -7.5t7.5 -15.5q0 -5 -8 -20q-10 -18 -12 -22q-22 -63 -22 -193q0 -49 9 -95q13 -64 37 -79v-22q-5 -6 -12 -6q-16 0 -62 28q-10 6 -30 19zM171 439q0 -6 -10 -24t-11 -23l-10 -156q0 -6 3 -48q3 -45 3 -48q0 -21 2 -64q1 -9 11 -28.5t11 -24.5q0 -30 -30 -30
q-5 0 -13 7t-11 8q-28 9 -56 36t-35 51q-24 73 -25 113q0 13 8 79q5 35 46 104q4 7 45.5 37t53.5 30q18 0 18 -19z" />
    <glyph glyph-name="endash" unicode="&#x2013;" horiz-adv-x="628" 
d="M594 248q0 -32 -7 -45q-15 -12 -49 -12l-510 1q-5 4 -7.5 15t-4.5 21q-7 24 -7 45q0 60 29 59l555 -1q-4 -3 -5 -21.5t-2 -20.5q8 -22 8 -41z" />
    <glyph glyph-name="emdash" unicode="&#x2014;" horiz-adv-x="1120" 
d="M1098 247q0 -31 -6 -45q-11 -8 -75 -3l-400 -3l-336 8l-253 -12l-12 36q-7 24 -7 45q0 59 29 59q111 0 249 -6q135 -5 164 -5q77 0 243 5q156 4 404 4q-5 -3 -6 -21.5t-2 -19.5q8 -22 8 -42z" />
    <glyph glyph-name="quotedblleft" unicode="&#x201c;" horiz-adv-x="477" 
d="M414 573q0 -31 -17 -48q-8 -8 -49 -32q-2 -6 -2 -12q0 -22 19.5 -44t37.5 -27q6 -11 6 -20h-36q1 0 -37 16q-43 18 -61 42q-16 21 -29 63q-12 37 -12 49q0 99 92 99q31 0 34 -2q54 -33 54 -84zM184 573q0 -31 -17 -48q-8 -8 -49 -32q-2 -6 -2 -12q0 -22 19.5 -44
t37.5 -27q6 -11 6 -20h-36q1 0 -37 16q-43 18 -61 42q-16 21 -29 63q-12 37 -12 49q0 99 92 99q31 0 34 -2q54 -33 54 -84z" />
    <glyph glyph-name="quotedblright" unicode="&#x201d;" horiz-adv-x="477" 
d="M7 573q0 -31 18 -48q8 -8 49 -32q1 -6 1 -12q0 -22 -19 -44t-37 -27q-7 -11 -7 -20h37q-2 0 36 16q44 18 62 42q15 21 29 63q12 37 12 49q0 99 -93 99q-30 0 -34 -2q-54 -33 -54 -84zM237 573q0 -31 18 -48q8 -8 49 -32q1 -6 1 -12q0 -22 -19 -44t-37 -27q-7 -11 -7 -20
h37q-2 0 36 16q44 18 62 42q15 21 29 63q12 37 12 49q0 99 -93 99q-30 0 -34 -2q-54 -33 -54 -84z" />
    <glyph glyph-name="quoteleft" unicode="&#x2018;" horiz-adv-x="244" 
d="M184 573q0 -31 -17 -48q-8 -8 -49 -32q-2 -6 -2 -12q0 -22 19.5 -44t37.5 -27q6 -11 6 -20h-36q1 0 -37 16q-43 18 -61 42q-16 21 -29 63q-12 37 -12 49q0 99 92 99q31 0 34 -2q54 -33 54 -84z" />
    <glyph glyph-name="quoteright" unicode="&#x2019;" horiz-adv-x="255" 
d="M193 566q0 -44 -49 -113q-55 -76 -105 -76q-7 0 -26 9v12q24 14 43.5 48t14.5 55q-18 5 -39 30q-24 27 -24 51q0 30 24 52.5t53 25.5q2 0 9 3.5t13 3.5q38 0 67 -36q19 -25 19 -65z" />
    <glyph glyph-name="divide" unicode="&#xf7;" 
 />
    <glyph glyph-name="ydieresis" unicode="&#xff;" horiz-adv-x="429" 
d="M405 408q-72 -65 -95 -179q-3 -7 -10 -19q-21 18 -21 41q0 5 12 51.5t12 52.5q0 10 -32 49q-12 5 -12 15t12 20q58 -6 79 -6q11 0 30 5t24 5q3 0 5.5 -8.5t6.5 -9.5zM279 124l-90 -286h-23v34q0 6 12 52t12 51q0 10 -16 73q-18 71 -34 111q-11 26 -24 79q-10 38 -26 62
q-5 7 -31 83q-6 16 -24 20q-31 8 -31 9q3 27 23 27q-7 0 34 -2q36 -1 68 0q45 1 81 8q4 -7 4 -15q0 -26 -24 -38q0 -19 5 -58q8 -8 18 -25q4 -28 19 -60q14 -27 14 -42q0 -9 -2 -18l22 -34q12 -20 13 -31zM141 -131q0 -63 -25 -85h-14.5h-19.5q-19 0 -37 18q-8 9 -15 32
q-6 20 -6 31q0 23 25 39q21 13 39 13q24 0 38.5 -14t14.5 -34zM75 542q0 18 14 30.5t33 12.5t32 -12.5t13 -30.5q0 -19 -13.5 -32.5t-32.5 -13.5t-32.5 13.5t-13.5 32.5zM264 542q0 18 14 30.5t33 12.5t32 -12.5t13 -30.5q0 -19 -13.5 -32.5t-32.5 -13.5t-32.5 13.5
t-13.5 32.5z" />
    <glyph glyph-name="Ydieresis" unicode="&#x178;" horiz-adv-x="594" 
d="M560 635q0 -8 -23 -26q-31 -26 -51 -51q-30 -39 -62 -122q-17 -44 -43 -44q-10 0 -21 13t-11 21q0 -1 12 28q35 93 35 110q0 22 -17 41.5t-17 33.5q0 19 40 23q-3 0 52 0q1 0 19 1.5t30 1.5q57 0 57 -30zM417 20q0 -19 -47 -23h-53q-119 0 -183 9q0 2 -2.5 4t-2.5 8
q0 17 28 24l32 6q8 18 4 72q2 18 5 34l-2 14q-4 20 -4 30v66q0 13 -12 35q-8 17 -17 34q-14 36 -30 80q-4 11 -4.5 31t-2.5 27q-4 13 -13 24q-4 4 -8 9q0 34 -11.5 55t-22.5 43q-3 6 -40.5 15t-34.5 33q8 10 28 10h69l47 -7l65 7h54q48 0 48 -28q0 -20 -27 -20
q-30 -1 -36 -15l19 -54l7 -38l20 -35l16 -74l24 -33l29 -74l5 -74l-9 -43q0 -1 4.5 -16t4.5 -25q0 -3 -5 -67q1 -2 32 -12q26 -8 26 -32zM120 762q0 20 15.5 34t36.5 14t35 -13.5t14 -34.5t-15 -36t-36 -15q-20 0 -35 15t-15 36zM330 762q0 20 15.5 34t36.5 14t35 -13.5
t14 -34.5t-15 -36t-36 -15q-20 0 -35 15t-15 36z" />
    <glyph glyph-name="currency" unicode="&#xa4;" 
 />
    <glyph glyph-name="guilsinglleft" unicode="&#x2039;" horiz-adv-x="175" 
d="M-2 245q5 6 98 157l28 -29q-17 -50 -47 -133q12 -30 44 -124l-26 -31q-32 54 -97 160z" />
    <glyph glyph-name="guilsinglright" unicode="&#x203a;" horiz-adv-x="175" 
d="M128 245q-4 6 -97 157l-28 -29q17 -50 46 -133q-11 -30 -43 -124l26 -31q32 54 96 160z" />
    <glyph glyph-name="daggerdbl" unicode="&#x2021;" 
 />
    <glyph glyph-name="periodcentered" unicode="&#xb7;" horiz-adv-x="284" 
d="M186 296q0 -12 -24 -54q-6 -11 -36 -23.5t-43 -12.5q-26 0 -54 24t-28 53q0 34 15 61q20 37 62 39q4 0 13.5 4t15.5 4q38 0 60 -32q19 -27 19 -63z" />
    <glyph glyph-name="periodcentered" unicode="&#x2219;" horiz-adv-x="284" 
d="M186 296q0 -12 -24 -54q-6 -11 -36 -23.5t-43 -12.5q-26 0 -54 24t-28 53q0 34 15 61q20 37 62 39q4 0 13.5 4t15.5 4q38 0 60 -32q19 -27 19 -63z" />
    <glyph glyph-name="quotesinglbase" unicode="&#x201a;" horiz-adv-x="284" 
d="M194 77q0 -38 -17 -82t-40.5 -61t-45.5 -34q-27 -19 -38 -19q-5 0 -13.5 5.5t-12.5 6.5q3 8 28 22q36 20 30 84q-39 19 -52 30q-24 20 -24 50q0 23 15 52q17 33 36 37q34 7 49 7q85 0 85 -98z" />
    <glyph glyph-name="quotedblbase" unicode="&#x201e;" horiz-adv-x="504" 
d="M434 77q0 -38 -17 -82t-40.5 -61t-45.5 -34q-27 -19 -38 -19q-5 0 -13.5 5.5t-12.5 6.5q3 8 28 22q36 20 30 84q-39 19 -52 30q-24 20 -24 50q0 23 15 52q17 33 36 37q34 7 49 7q85 0 85 -98zM194 77q0 -38 -17 -82t-40.5 -61t-45.5 -34q-27 -19 -38 -19q-5 0 -13.5 5.5
t-12.5 6.5q3 8 28 22q36 20 30 84q-39 19 -52 30q-24 20 -24 50q0 23 15 52q17 33 36 37q34 7 49 7q85 0 85 -98z" />
    <glyph glyph-name="perthousand" unicode="&#x2030;" 
 />
    <glyph glyph-name="Acircumflex" unicode="&#xc2;" horiz-adv-x="562" 
d="M523 26q0 -11 -10 -18q-6 -1 -30 -4q-20 -2 -27 -2l-106 4l-89 -4q-8 0 -19 9v16q8 6 35 9q24 4 29 13q-5 23 -25 99q-8 20 -18.5 56t-4.5 62q3 0 -37 92l-10 69l-25 58l-20 72q6 37 13 74q5 24 17 29t57 5q49 0 55 -14q15 -34 22 -60q-3 -15 -2 -47q2 -11 16 -36t17 -37
q5 -38 18 -107q9 -20 25 -63q2 -15 6 -41q3 -10 35 -98q2 -55 6 -72q4 -9 13 -39q4 -15 18 -15q6 0 9 2t8 2q9 0 24 -14zM204 224q-7 -4 -28 -2t-28 -5q-12 -12 -22 -48q-7 -28 -7 -42q0 1 -3 -27q-2 -23 0 -30q3 -9 18 -22t15 -18q0 -28 -79 -28q-5 0 -14 3.5t-12 3.5
q-4 1 -14 -1q-13 -2 -17 -2q-12 0 -21 9q3 3 10 20q5 11 25 18q48 79 55 164q7 21 18 64q8 43 12 58q10 40 25 66h19q2 -5 12.5 -18.5t10.5 -18.5q0 -13 -22 -87q9 -11 33 -7q14 -41 14 -50zM249 750q-25 -16 -99 -49l-10 19q34 27 107 88h8l100 -88l-10 -19q-28 10 -58 28
t-38 21z" />
    <glyph glyph-name="Ecircumflex" unicode="&#xca;" horiz-adv-x="554" 
d="M486 449q-1 0 -5.5 -2.5t-11.5 -2.5t-17 23l-12 28q-7 10 -25 38q0 10 -7 29q-17 9 -40 26q-7 9 -41 33q-26 17 -27 34q12 14 34 14l13 -1t36 -2q34 -1 90 -1q14 -36 13 -70l-8 -59zM379 168h-32q-8 36 -37 105q-9 10 -26 31q-26 37 -26 41q0 8 26 40q29 18 27 18t13 31
q9 30 32 90q18 0 23 -14v-342zM503 29q0 -27 -43 -27q-123 0 -162 4l-7 -3v26q0 11 31 23q43 15 68 39q43 40 65 118q3 15 6.5 29.5t20.5 14.5q7 0 21 -14v-79l-5 -41zM236 429q0 -4 -4.5 -20t-4.5 -22l2 -111l-11 -90q0 2 4.5 -27t4.5 -57q-1 -58 -2 -90q-15 -14 -40 -14
h-70q-101 0 -118 18v24q45 6 57 14q16 11 16 44q0 4 -4 46t-4 48l5 72l-5 75q0 -6 3 34.5t2 78.5q-4 24 -9 69l-2 82q-7 7 -38 14q-24 6 -24 22q0 26 53 26q34 0 93 -3h47q28 -1 44 -11l-8 -66l8 -63q0 -5 2.5 -46t2.5 -47zM259 750q-30 -16 -109 -49l-10 19q34 27 117 91h8
l110 -91l-10 -19q-28 10 -63 28t-43 21z" />
    <glyph glyph-name="Aacute" unicode="&#xc1;" horiz-adv-x="562" 
d="M523 26q0 -11 -10 -18q-6 -1 -30 -4q-20 -2 -27 -2l-106 4l-89 -4q-8 0 -19 9v16q8 6 35 9q24 4 29 13q-5 23 -25 99q-8 20 -18.5 56t-4.5 62q3 0 -37 92l-10 69l-25 58l-20 72q6 37 13 74q5 24 17 29t57 5q49 0 55 -14q15 -34 22 -60q-3 -15 -2 -47q2 -11 16 -36t17 -37
q5 -38 18 -107q9 -20 25 -63q2 -15 6 -41q3 -10 35 -98q2 -55 6 -72q4 -9 13 -39q4 -15 18 -15q6 0 9 2t8 2q9 0 24 -14zM204 224q-7 -4 -28 -2t-28 -5q-12 -12 -22 -48q-7 -28 -7 -42q0 1 -3 -27q-2 -23 0 -30q3 -9 18 -22t15 -18q0 -28 -79 -28q-5 0 -14 3.5t-12 3.5
q-4 1 -14 -1q-13 -2 -17 -2q-12 0 -21 9q3 3 10 20q5 11 25 18q48 79 55 164q7 21 18 64q8 43 12 58q10 40 25 66h19q2 -5 12.5 -18.5t10.5 -18.5q0 -13 -22 -87q9 -11 33 -7q14 -41 14 -50zM130 720l11 -22l213 61q8 7 8 22q0 18 -11 35t-25 17q-6 0 -12 -4z" />
    <glyph glyph-name="Edieresis" unicode="&#xcb;" horiz-adv-x="554" 
d="M486 449q-1 0 -5.5 -2.5t-11.5 -2.5t-17 23l-12 28q-7 10 -25 38q0 10 -7 29q-17 9 -40 26q-7 9 -41 33q-26 17 -27 34q12 14 34 14l13 -1t36 -2q34 -1 90 -1q14 -36 13 -70l-8 -59zM379 168h-32q-8 36 -37 105q-9 10 -26 31q-26 37 -26 41q0 8 26 40q29 18 27 18t13 31
q9 30 32 90q18 0 23 -14v-342zM503 29q0 -27 -43 -27q-123 0 -162 4l-7 -3v26q0 11 31 23q43 15 68 39q43 40 65 118q3 15 6.5 29.5t20.5 14.5q7 0 21 -14v-79l-5 -41zM236 429q0 -4 -4.5 -20t-4.5 -22l2 -111l-11 -90q0 2 4.5 -27t4.5 -57q-1 -58 -2 -90q-15 -14 -40 -14
h-70q-101 0 -118 18v24q45 6 57 14q16 11 16 44q0 4 -4 46t-4 48l5 72l-5 75q0 -6 3 34.5t2 78.5q-4 24 -9 69l-2 82q-7 7 -38 14q-24 6 -24 22q0 26 53 26q34 0 93 -3h47q28 -1 44 -11l-8 -66l8 -63q0 -5 2.5 -46t2.5 -47zM100 762q0 20 15.5 34t36.5 14t35 -13.5t14 -34.5
t-15 -36t-36 -15q-20 0 -35 15t-15 36zM290 762q0 20 15.5 34t36.5 14t35 -13.5t14 -34.5t-15 -36t-36 -15q-20 0 -35 15t-15 36z" />
    <glyph glyph-name="Egrave" unicode="&#xc8;" horiz-adv-x="554" 
d="M486 449q-1 0 -5.5 -2.5t-11.5 -2.5t-17 23l-12 28q-7 10 -25 38q0 10 -7 29q-17 9 -40 26q-7 9 -41 33q-26 17 -27 34q12 14 34 14l13 -1t36 -2q34 -1 90 -1q14 -36 13 -70l-8 -59zM379 168h-32q-8 36 -37 105q-9 10 -26 31q-26 37 -26 41q0 8 26 40q29 18 27 18t13 31
q9 30 32 90q18 0 23 -14v-342zM503 29q0 -27 -43 -27q-123 0 -162 4l-7 -3v26q0 11 31 23q43 15 68 39q43 40 65 118q3 15 6.5 29.5t20.5 14.5q7 0 21 -14v-79l-5 -41zM236 429q0 -4 -4.5 -20t-4.5 -22l2 -111l-11 -90q0 2 4.5 -27t4.5 -57q-1 -58 -2 -90q-15 -14 -40 -14
h-70q-101 0 -118 18v24q45 6 57 14q16 11 16 44q0 4 -4 46t-4 48l5 72l-5 75q0 -6 3 34.5t2 78.5q-4 24 -9 69l-2 82q-7 7 -38 14q-24 6 -24 22q0 26 53 26q34 0 93 -3h47q28 -1 44 -11l-8 -66l8 -63q0 -5 2.5 -46t2.5 -47zM362 720l-12 -22l-213 61q-7 7 -7 22q0 18 11 35
t25 17q6 0 12 -4z" />
    <glyph glyph-name="Iacute" unicode="&#xcd;" horiz-adv-x="320" 
d="M272 8q-14 -13 -108 -13q-101 0 -145 5q-7 4 -18 13q0 6 5.5 17t12.5 14q15 7 35 7q11 15 11 93q0 5 -3.5 12t-3.5 12q-4 67 1 159q0 -1 0 34q0 7 -4.5 33t-5.5 35q-1 10 3.5 38t4.5 31v114q-19 7 -37 13q-24 8 -19 28q1 1 19 12q60 3 133 -1q18 -2 43 1l29 2
q17 0 38 -14v-23q-3 -11 -18 -14q-23 -3 -29 -6q-8 -14 -8 -46q0 7 3 -65.5t2 -120.5q4 -28 6 -82q-8 -94 -6 -239q5 -7 25.5 -10t33.5 -19v-20zM10 720l11 -22l213 61q8 7 8 22q0 18 -11 35t-25 17q-6 0 -12 -4z" />
    <glyph glyph-name="Icircumflex" unicode="&#xce;" horiz-adv-x="320" 
d="M272 8q-14 -13 -108 -13q-101 0 -145 5q-7 4 -18 13q0 6 5.5 17t12.5 14q15 7 35 7q11 15 11 93q0 5 -3.5 12t-3.5 12q-4 67 1 159q0 -1 0 34q0 7 -4.5 33t-5.5 35q-1 10 3.5 38t4.5 31v114q-19 7 -37 13q-24 8 -19 28q1 1 19 12q60 3 133 -1q18 -2 43 1l29 2
q17 0 38 -14v-23q-3 -11 -18 -14q-23 -3 -29 -6q-8 -14 -8 -46q0 7 3 -65.5t2 -120.5q4 -28 6 -82q-8 -94 -6 -239q5 -7 25.5 -10t33.5 -19v-20zM129 750q-30 -16 -109 -49l-10 19q34 27 117 91h8l110 -91l-10 -19q-28 10 -63 28t-43 21z" />
    <glyph glyph-name="Idieresis" unicode="&#xcf;" horiz-adv-x="320" 
d="M272 8q-14 -13 -108 -13q-101 0 -145 5q-7 4 -18 13q0 6 5.5 17t12.5 14q15 7 35 7q11 15 11 93q0 5 -3.5 12t-3.5 12q-4 67 1 159q0 -1 0 34q0 7 -4.5 33t-5.5 35q-1 10 3.5 38t4.5 31v114q-19 7 -37 13q-24 8 -19 28q1 1 19 12q60 3 133 -1q18 -2 43 1l29 2
q17 0 38 -14v-23q-3 -11 -18 -14q-23 -3 -29 -6q-8 -14 -8 -46q0 7 3 -65.5t2 -120.5q4 -28 6 -82q-8 -94 -6 -239q5 -7 25.5 -10t33.5 -19v-20zM-20 762q0 20 15.5 34t36.5 14t35 -13.5t14 -34.5t-15 -36t-36 -15q-20 0 -35 15t-15 36zM170 762q0 20 15.5 34t36.5 14
t35 -13.5t14 -34.5t-15 -36t-36 -15q-20 0 -35 15t-15 36z" />
    <glyph glyph-name="Igrave" unicode="&#xcc;" horiz-adv-x="320" 
d="M272 8q-14 -13 -108 -13q-101 0 -145 5q-7 4 -18 13q0 6 5.5 17t12.5 14q15 7 35 7q11 15 11 93q0 5 -3.5 12t-3.5 12q-4 67 1 159q0 -1 0 34q0 7 -4.5 33t-5.5 35q-1 10 3.5 38t4.5 31v114q-19 7 -37 13q-24 8 -19 28q1 1 19 12q60 3 133 -1q18 -2 43 1l29 2
q17 0 38 -14v-23q-3 -11 -18 -14q-23 -3 -29 -6q-8 -14 -8 -46q0 7 3 -65.5t2 -120.5q4 -28 6 -82q-8 -94 -6 -239q5 -7 25.5 -10t33.5 -19v-20zM252 720l-12 -22l-213 61q-7 7 -7 22q0 18 11 35t25 17q6 0 12 -4z" />
    <glyph glyph-name="Oacute" unicode="&#xd3;" horiz-adv-x="600" 
d="M545 342q0 -22 -14 -130q-8 -55 -69 -135q-67 -89 -124 -89q-19 0 -19 21q0 14 12 23q17 12 21 19q18 32 18 140q0 5 -2 66t-2 66v144q0 141 -45 161q-6 23 -6 20q9 9 32 9q33 0 72 -27t69 -72q9 -14 20 -45q13 -42 17 -49q16 -37 19 -66q1 -9 1 -56zM247 -1
q0 -19 -30 -19q-35 0 -84 35q-39 29 -68 65q-5 13 -16 38t-23 50q-14 32 -17 52q-5 32 -5 116q0 4 5.5 21t5.5 26q4 108 54 184q21 31 64 63q49 36 82 36q13 0 23 -9v-29q-14 -10 -28 -21q-17 -14 -18 -24q-1 -27 -7.5 -84.5t-6.5 -60.5t9 -78q9 -80 11 -110q1 -14 -2 -56
q-4 -47 -4 -73q0 -32 5 -58q1 -7 25.5 -31t24.5 -33zM150 720l11 -22l213 61q8 7 8 22q0 18 -11 35t-25 17q-6 0 -12 -4z" />
    <glyph glyph-name="Ocircumflex" unicode="&#xd4;" horiz-adv-x="600" 
d="M545 342q0 -22 -14 -130q-8 -55 -69 -135q-67 -89 -124 -89q-19 0 -19 21q0 14 12 23q17 12 21 19q18 32 18 140q0 5 -2 66t-2 66v144q0 141 -45 161q-6 23 -6 20q9 9 32 9q33 0 72 -27t69 -72q9 -14 20 -45q13 -42 17 -49q16 -37 19 -66q1 -9 1 -56zM247 -1
q0 -19 -30 -19q-35 0 -84 35q-39 29 -68 65q-5 13 -16 38t-23 50q-14 32 -17 52q-5 32 -5 116q0 4 5.5 21t5.5 26q4 108 54 184q21 31 64 63q49 36 82 36q13 0 23 -9v-29q-14 -10 -28 -21q-17 -14 -18 -24q-1 -27 -7.5 -84.5t-6.5 -60.5t9 -78q9 -80 11 -110q1 -14 -2 -56
q-4 -47 -4 -73q0 -32 5 -58q1 -7 25.5 -31t24.5 -33zM269 750q-30 -16 -109 -49l-10 19q34 27 117 91h8l110 -91l-10 -19q-28 10 -63 28t-43 21z" />
    <glyph glyph-name="Ograve" unicode="&#xd2;" horiz-adv-x="600" 
d="M545 342q0 -22 -14 -130q-8 -55 -69 -135q-67 -89 -124 -89q-19 0 -19 21q0 14 12 23q17 12 21 19q18 32 18 140q0 5 -2 66t-2 66v144q0 141 -45 161q-6 23 -6 20q9 9 32 9q33 0 72 -27t69 -72q9 -14 20 -45q13 -42 17 -49q16 -37 19 -66q1 -9 1 -56zM247 -1
q0 -19 -30 -19q-35 0 -84 35q-39 29 -68 65q-5 13 -16 38t-23 50q-14 32 -17 52q-5 32 -5 116q0 4 5.5 21t5.5 26q4 108 54 184q21 31 64 63q49 36 82 36q13 0 23 -9v-29q-14 -10 -28 -21q-17 -14 -18 -24q-1 -27 -7.5 -84.5t-6.5 -60.5t9 -78q9 -80 11 -110q1 -14 -2 -56
q-4 -47 -4 -73q0 -32 5 -58q1 -7 25.5 -31t24.5 -33zM392 720l-12 -22l-213 61q-7 7 -7 22q0 18 11 35t25 17q6 0 12 -4z" />
    <glyph glyph-name="Uacute" unicode="&#xda;" horiz-adv-x="591" 
d="M544 631q0 -2 -28.5 -38.5t-32.5 -55.5q-5 -23 -3 -70l4 -50l-6 -134l6 -95q0 -25 -3 -29q2 -5 2 -13q0 -41 -26 -86q-31 -52 -71 -53q-21 0 -21 21q-1 16 13 23q33 19 42 53l10 54l-5 184l5 53q0 29 1 57q0 56 -9 84q-6 18 -37 58t-31 45q0 6 8.5 12.5t14.5 6.5
q28 0 78 2l54 2q11 1 23 -12t12 -19zM291 641q0 -11 -13 -19.5t-23 -8.5q-1 2 -12 4q-6 0 -14 -11q6 -27 6 -53t-6.5 -59.5t-6.5 -41.5q1 -13 5.5 -54.5t4.5 -59.5q0 -15 -2 -23q-7 -23 8 -96q-3 -15 -5 -42q0 -37 1 -48q2 -28 9 -49q3 -10 24.5 -35t21.5 -30q0 -21 -31 -21
q-52 -1 -117 37q-76 45 -77 102l6 112l-8 77l5 97l-11 68l4 82q0 35 -25 42q-29 8 -35 39q3 5 10 12q22 2 74 -3q56 -6 54 -6q19 3 37 6q39 5 71 5q18 0 34 -2q10 -4 11 -21zM160 720l11 -22l213 61q8 7 8 22q0 18 -11 35t-25 17q-6 0 -12 -4z" />
    <glyph glyph-name="Ucircumflex" unicode="&#xdb;" horiz-adv-x="591" 
d="M544 631q0 -2 -28.5 -38.5t-32.5 -55.5q-5 -23 -3 -70l4 -50l-6 -134l6 -95q0 -25 -3 -29q2 -5 2 -13q0 -41 -26 -86q-31 -52 -71 -53q-21 0 -21 21q-1 16 13 23q33 19 42 53l10 54l-5 184l5 53q0 29 1 57q0 56 -9 84q-6 18 -37 58t-31 45q0 6 8.5 12.5t14.5 6.5
q28 0 78 2l54 2q11 1 23 -12t12 -19zM291 641q0 -11 -13 -19.5t-23 -8.5q-1 2 -12 4q-6 0 -14 -11q6 -27 6 -53t-6.5 -59.5t-6.5 -41.5q1 -13 5.5 -54.5t4.5 -59.5q0 -15 -2 -23q-7 -23 8 -96q-3 -15 -5 -42q0 -37 1 -48q2 -28 9 -49q3 -10 24.5 -35t21.5 -30q0 -21 -31 -21
q-52 -1 -117 37q-76 45 -77 102l6 112l-8 77l5 97l-11 68l4 82q0 35 -25 42q-29 8 -35 39q3 5 10 12q22 2 74 -3q56 -6 54 -6q19 3 37 6q39 5 71 5q18 0 34 -2q10 -4 11 -21zM269 750q-30 -16 -109 -49l-10 19q34 27 117 91h8l110 -91l-10 -19q-28 10 -63 28t-43 21z" />
    <glyph glyph-name="Ugrave" unicode="&#xd9;" horiz-adv-x="591" 
d="M544 631q0 -2 -28.5 -38.5t-32.5 -55.5q-5 -23 -3 -70l4 -50l-6 -134l6 -95q0 -25 -3 -29q2 -5 2 -13q0 -41 -26 -86q-31 -52 -71 -53q-21 0 -21 21q-1 16 13 23q33 19 42 53l10 54l-5 184l5 53q0 29 1 57q0 56 -9 84q-6 18 -37 58t-31 45q0 6 8.5 12.5t14.5 6.5
q28 0 78 2l54 2q11 1 23 -12t12 -19zM291 641q0 -11 -13 -19.5t-23 -8.5q-1 2 -12 4q-6 0 -14 -11q6 -27 6 -53t-6.5 -59.5t-6.5 -41.5q1 -13 5.5 -54.5t4.5 -59.5q0 -15 -2 -23q-7 -23 8 -96q-3 -15 -5 -42q0 -37 1 -48q2 -28 9 -49q3 -10 24.5 -35t21.5 -30q0 -21 -31 -21
q-52 -1 -117 37q-76 45 -77 102l6 112l-8 77l5 97l-11 68l4 82q0 35 -25 42q-29 8 -35 39q3 5 10 12q22 2 74 -3q56 -6 54 -6q19 3 37 6q39 5 71 5q18 0 34 -2q10 -4 11 -21zM382 720l-12 -22l-213 61q-7 7 -7 22q0 18 11 35t25 17q6 0 12 -4z" />
    <glyph glyph-name="circumflex" unicode="&#x2c6;" horiz-adv-x="440" 
d="M209 540q-25 -16 -99 -49l-10 19q34 27 107 88h8l100 -88l-10 -19q-28 10 -58 28t-38 21z" />
    <glyph glyph-name="tilde" unicode="&#x2dc;" horiz-adv-x="342" 
d="M305 557q-31 -66 -81 -66q-21 0 -60 16.5t-60 16.5q-34 0 -57 -29q-3 5 -8.5 5.5t-7.5 2.5q29 69 96 69q20 0 54.5 -15.5t52.5 -15.5q28 0 59 26z" />
    <glyph glyph-name="macron" unicode="&#xaf;" horiz-adv-x="279" 
d="M28 545h208v-46h-208v46z" />
    <glyph glyph-name="macron" unicode="&#x2c9;" horiz-adv-x="279" 
d="M28 545h208v-46h-208v46z" />
    <glyph glyph-name="cedilla" unicode="&#xb8;" horiz-adv-x="287" 
d="M113 -48h15q59 0 59 -58q0 -31 -21 -54q-22 -26 -58 -26q-26 0 -55 15l11 23q17 -10 32 -10q20 0 34 17q12 14 12 33q0 34 -33 34q-5 0 -11 -1l-28 -15q21 37 48 99v-2q5 4 10 2l9 3q7 -2 7 -4q-13 -21 -28 -49z" />
    <glyph glyph-name="Scaron" unicode="&#x160;" 
 />
    <glyph glyph-name="scaron" unicode="&#x161;" 
 />
    <glyph glyph-name="brokenbar" unicode="&#xa6;" 
 />
    <glyph glyph-name="Eth" unicode="&#xd0;" 
 />
    <glyph glyph-name="eth" unicode="&#xf0;" 
 />
    <glyph glyph-name="Yacute" unicode="&#xdd;" 
 />
    <glyph glyph-name="yacute" unicode="&#xfd;" 
 />
    <glyph glyph-name="Thorn" unicode="&#xde;" 
 />
    <glyph glyph-name="thorn" unicode="&#xfe;" 
 />
    <glyph glyph-name="minus" unicode="&#xad;" 
 />
    <glyph glyph-name="minus" unicode="&#x2212;" 
 />
    <glyph glyph-name="multiply" unicode="&#xd7;" 
 />
    <glyph glyph-name="onesuperior" unicode="&#xb9;" 
 />
    <glyph glyph-name="twosuperior" unicode="&#xb2;" 
 />
    <glyph glyph-name="threesuperior" unicode="&#xb3;" 
 />
    <glyph glyph-name="onehalf" unicode="&#xbd;" 
 />
    <glyph glyph-name="onequarter" unicode="&#xbc;" 
 />
    <glyph glyph-name="threequarters" unicode="&#xbe;" 
 />
    <glyph glyph-name="Lslash" unicode="&#x141;" 
 />
    <glyph glyph-name="lslash" unicode="&#x142;" 
 />
    <glyph glyph-name="HT" 
 />
    <glyph glyph-name="LF" 
 />
    <glyph glyph-name="nonmarkingreturn" 
 />
    <glyph glyph-name="Zcaron" unicode="&#x17d;" 
 />
    <glyph glyph-name="zcaron" unicode="&#x17e;" 
 />
    <glyph glyph-name="DLE" 
 />
    <glyph glyph-name="DC1" 
 />
    <glyph glyph-name="DC2" 
 />
    <glyph glyph-name="DC3" 
 />
    <glyph glyph-name="DC4" 
 />
    <glyph glyph-name="RS" 
 />
    <glyph glyph-name="US" 
 />
    <glyph glyph-name="notequal" unicode="&#x2260;" 
 />
    <glyph glyph-name="infinity" unicode="&#x221e;" 
 />
    <glyph glyph-name="lessequal" unicode="&#x2264;" 
 />
    <glyph glyph-name="greaterequal" unicode="&#x2265;" 
 />
    <glyph glyph-name="partialdiff" unicode="&#x2202;" horiz-adv-x="258" 
d="M218 15q-9 -21 -50 -21l-38.5 4t-66.5 5q-21 -4 -57 -6q-3 6 -3 28q24 8 58 29q3 42 0 88q0 16 -1 47l-57 -40v67l54 39l-3 71l7 93q-7 42 -13 95l4 80q0 6 1.5 11.5t1.5 6.5q0 3 -49 20v23q7 0 23 2t25 2q9 -1 29 -3t31 -2q19 2 57 5q4 -5 12 -17q-6 -41 -10 -120
q1 -16 5 -53q4 -33 4 -52q0 -36 -1 -73l60 43v-75l-61 -42q2 -26 3 -29q-12 -22 -12 -51q0 -32 11 -54q3 -5 -2 -85q0 -16 16.5 -20t21.5 -16z" />
    <glyph glyph-name="summation" unicode="&#x2211;" horiz-adv-x="511" 
d="M390 586q0 -5 -5.5 -21t-6.5 -22q-5 -63 -5 -99l-10 -10q-15 -2 -23 19q-9 37 -32 106q-11 22 -76 72v24q9 10 49 5q11 -1 30.5 1.5t22.5 2.5q23 0 41 -13q1 -12 8 -36.5t7 -28.5zM458 187q0 -53 -29 -103q-33 -57 -90 -79q-22 -8 -47 -8q-21 0 -21 27q0 17 36 39.5
t36 48.5q0 41 -33 74q-26 27 -85 59q-15 2 -47 12q-10 5 -38 29t-43 32q-64 32 -79 84q-5 6 -11 21q-1 7 -1 37q0 46 19 105q9 11 27 36.5t50 44.5q27 16 48 16q8 0 17.5 -10.5t9.5 -19.5t-12 -15.5t-23 -12.5q-21 -17 -21 -55q0 -53 64 -93q42 -27 92 -40q25 -6 68.5 -45
t67.5 -48q7 -3 11 -24q5 -26 7 -31q27 -49 27 -81zM189 10q-7 -4 -18 -12q-4 0 -19 -3t-20 -3q-69 0 -80 4q-40 11 -40 63q0 11 1 24q1 6 -3 23t-4 21q0 124 32 124q12 0 21 -28q4 -17 8 -33q48 -103 122 -156v-24zM218 751q28 17 109 54l11 -22l-114 -90l-3 -4l-1 2l-2 -2
l-2 4l-114 90l10 22q31 -11 64 -31t42 -23z" />
    <glyph glyph-name="product" unicode="&#x220f;" horiz-adv-x="388" 
d="M294 443q1 -7 -3.5 -23t-4.5 -23q0 -14 4 -44t3 -45q-2 -1 -9 -6q-10 0 -18.5 18t-16.5 36q-9 14 -38 44q-25 25 -25 30q-1 6 1 11.5t2 9.5q30 5 55 5q39 0 50 -13zM343 138q0 -10 -7 -37q-9 -33 -20 -49q-16 -24 -48 -38q-1 -1 -62 -21q-2 2 -6.5 5t-6.5 5q12 15 40 38
q12 9 12 31q0 30 -42 62q-26 22 -61 49q-16 4 -46 17q-11 7 -23 21q-15 18 -20 23q-26 24 -30 41q-1 6 -1 32q0 50 -2 35q2 9 20 43q29 53 57 53q4 2 10 2q21 0 21 -19q0 -5 -12.5 -24t-12.5 -24q0 -30 31 -59q9 -8 55 -39q18 -4 47 -11q9 -4 24 -18.5t12 -14.5q3 0 34 -35
q37 -42 37 -68zM134 -5q-6 0 -26 6t-29 6q-14 -1 -25 -5q-4 -2 -7 -4q3 1 -24 4q-2 14 2 46l4 37q0 7 -5 29.5t-5 34.5q0 13 5 23l22 3l32 -84q20 -46 58 -73zM169 540q24 17 98 49l10 -19l-104 -82l-2 -3l-1 1l-2 -1l-2 3l-104 82l10 19q28 -9 58 -27.5t39 -21.5z" />
    <glyph glyph-name="pi" unicode="&#x3c0;" horiz-adv-x="594" 
d="M560 635q0 -8 -23 -26q-31 -26 -51 -51q-30 -39 -62 -122q-17 -44 -43 -44q-10 0 -21 13t-11 21q0 -1 12 28q35 93 35 110q0 22 -17 41.5t-17 33.5q0 19 40 23q-3 0 52 0q1 0 19 1.5t30 1.5q57 0 57 -30zM417 20q0 -19 -47 -23h-53q-119 0 -183 9q0 2 -2.5 4t-2.5 8
q0 17 28 24l32 6q8 18 4 72q2 18 5 34l-2 14q-4 20 -4 30v66q0 13 -12 35q-8 17 -17 34q-14 36 -30 80q-4 11 -4.5 31t-2.5 27q-4 13 -13 24q-4 4 -8 9q0 34 -11.5 55t-22.5 43q-3 6 -40.5 15t-34.5 33q8 10 28 10h69l47 -7l65 7h54q48 0 48 -28q0 -20 -27 -20
q-30 -1 -36 -15l19 -54l7 -38l20 -35l16 -74l24 -33l29 -74l5 -74l-9 -43q0 -1 4.5 -16t4.5 -25q0 -3 -5 -67q1 -2 32 -12q26 -8 26 -32zM167 719l11 -24l220 64q8 7 8 22q0 19 -11.5 36.5t-26.5 17.5q-6 0 -12 -4z" />
    <glyph glyph-name="integral" unicode="&#x222b;" horiz-adv-x="429" 
d="M405 408q-72 -65 -95 -179q-3 -7 -10 -19q-21 18 -21 41q0 5 12 51.5t12 52.5q0 10 -32 49q-12 5 -12 15t12 20q58 -6 79 -6q11 0 30 5t24 5q3 0 5.5 -8.5t6.5 -9.5zM279 124l-90 -286h-23v34q0 6 12 52t12 51q0 10 -16 73q-18 71 -34 111q-11 26 -24 79q-10 38 -26 62
q-5 7 -31 83q-6 16 -24 20q-31 8 -31 9q3 27 23 27q-7 0 34 -2q36 -1 68 0q45 1 81 8q4 -7 4 -15q0 -26 -24 -38q0 -19 5 -58q8 -8 18 -25q4 -28 19 -60q14 -27 14 -42q0 -9 -2 -18l22 -34q12 -20 13 -31zM141 -131q0 -63 -25 -85h-14.5h-19.5q-19 0 -37 18q-8 9 -15 32
q-6 20 -6 31q0 23 25 39q21 13 39 13q24 0 38.5 -14t14.5 -34zM110 504l11 -20l193 56q7 6 7 19q0 16 -10 31.5t-23 15.5q-5 0 -11 -3z" />
    <glyph glyph-name="Omega" unicode="&#x3a9;" horiz-adv-x="567" 
d="M486 589q0 -15 -8 -35q-11 -27 -28 -31q-15 8 -21 27l-8 30q-4 11 -13.5 15t-17 18.5t-23.5 18.5q-12 3 -12 16q1 29 28 28q42 -1 94 -12q3 -2 8 -8zM505 64q-1 -33 -4 -44q-7 -24 -30 -24q-14 0 -51 8q-7 2 -31 -4q-27 -6 -37 -6q-9 0 -14 3v27q0 4 28.5 8t37.5 15
q18 21 34 30q7 4 12 25q3 8 12 21.5t17 13.5q18 0 19 -15q2 -36 4.5 -46.5t2.5 -11.5zM-1 429h75l2 8q10 38 23 85q8 21 20 37q19 25 27 38t56 41q54 31 84 29q12 -1 13 -11q-1 14 -2 -12q0 -5 -22 -26t-25 -30q-13 -44 -14 -87l-10 -72h144q8 -22 8 -27q0 -14 -8 -28h-151
l-2 -16q0 -3 2 -49h151q5 -12 5 -26q0 -17 -5 -29h-149q1 -36 2 -54q0 -74 3 -91q10 -55 54 -86v-22q-7 -7 -26 -7q-8 0 -37 11.5t-42 21.5q-37 28 -65 95q-9 13 -20 35q-16 47 -19 97h-72q-9 13 0 55h70q-2 21 -2 27v38h-68q-10 29 0 55z" />
    <glyph glyph-name="Omega" unicode="&#x2126;" horiz-adv-x="567" 
d="M486 589q0 -15 -8 -35q-11 -27 -28 -31q-15 8 -21 27l-8 30q-4 11 -13.5 15t-17 18.5t-23.5 18.5q-12 3 -12 16q1 29 28 28q42 -1 94 -12q3 -2 8 -8zM505 64q-1 -33 -4 -44q-7 -24 -30 -24q-14 0 -51 8q-7 2 -31 -4q-27 -6 -37 -6q-9 0 -14 3v27q0 4 28.5 8t37.5 15
q18 21 34 30q7 4 12 25q3 8 12 21.5t17 13.5q18 0 19 -15q2 -36 4.5 -46.5t2.5 -11.5zM-1 429h75l2 8q10 38 23 85q8 21 20 37q19 25 27 38t56 41q54 31 84 29q12 -1 13 -11q-1 14 -2 -12q0 -5 -22 -26t-25 -30q-13 -44 -14 -87l-10 -72h144q8 -22 8 -27q0 -14 -8 -28h-151
l-2 -16q0 -3 2 -49h151q5 -12 5 -26q0 -17 -5 -29h-149q1 -36 2 -54q0 -74 3 -91q10 -55 54 -86v-22q-7 -7 -26 -7q-8 0 -37 11.5t-42 21.5q-37 28 -65 95q-9 13 -20 35q-16 47 -19 97h-72q-9 13 0 55h70q-2 21 -2 27v38h-68q-10 29 0 55z" />
    <glyph glyph-name="radical" unicode="&#x221a;" 
 />
    <glyph glyph-name="approxequal" unicode="&#x2248;" 
 />
    <glyph glyph-name="approxequal" unicode="&#x22f2;" 
 />
    <glyph glyph-name="Delta" unicode="&#x394;" 
 />
    <glyph glyph-name="Delta" unicode="&#x2206;" 
 />
    <glyph glyph-name="lozenge" unicode="&#x25ca;" 
 />
    <glyph glyph-name="fraction" unicode="&#x2044;" 
 />
    <glyph glyph-name="fi" unicode="&#xf001;" 
 />
    <glyph glyph-name="fl" unicode="&#xf002;" 
 />
    <glyph glyph-name="apple" unicode="&#xf000;" 
 />
    <glyph glyph-name="dotlessi" unicode="&#x131;" horiz-adv-x="273" 
d="M239 33q2 -17 -4 -29l-164 -6q-55 -2 -65 10l8 17q4 3 40 16q13 6 13 30q-1 13 -8 58q-4 22 -5 50q4 42 6 96q-5 37 -4 55q4 52 4 58q-19 4 -54 21q-9 12 -9 19q0 11 17 12q55 -1 119 -1q20 2 40 3q18 2 22 -3.5t4 -13.5q0 -6 -3 -25.5t-3 -30.5q9 -85 9 -88
q-1 -3 -4.5 -39t-2.5 -38q2 -5 1 -62q-1 -32 -4 -77q1 -23 12 -26q34 -6 35 -6zM7043 20z" />
    <glyph glyph-name="breve" unicode="&#x2d8;" horiz-adv-x="259" 
d="M218 561q-34 -59 -103 -59q-74 0 -101 59l14 19q30 -35 87 -35q31 0 60 12.5t29 22.5z" />
    <glyph glyph-name="dotaccent" unicode="&#x2d9;" horiz-adv-x="210" 
d="M67 524q0 16 11 27.5t27 11.5q15 0 26 -11.5t11 -27.5t-11 -27.5t-26 -11.5q-16 0 -27 11.5t-11 27.5z" />
    <glyph glyph-name="ring" unicode="&#x2da;" horiz-adv-x="342" 
d="M164 620q27 0 46 -18.5t19 -45.5t-19 -45.5t-46 -18.5q-28 0 -47 18.5t-19 45.5t19 45.5t47 18.5zM164 594q-17 0 -28.5 -11t-11.5 -27t11.5 -27t28.5 -11q16 0 27.5 11t11.5 27t-11.5 27t-27.5 11z" />
    <glyph glyph-name="hungarumlaut" unicode="&#x2dd;" horiz-adv-x="262" 
d="M164 592q45 -23 45 -25q-1 -2 -80 -92l-14 9zM75 591q45 -23 44 -25q0 -2 -79 -92l-15 9z" />
    <glyph glyph-name="ogonek" unicode="&#x2db;" horiz-adv-x="210" 
d="M115 -4l-42 -36q-14 -14 -31 -46q-12 -25 -12 -51q0 -63 48 -63t71 63q-36 -30 -54 -30q-24 0 -24 36q0 22 10 50q20 56 80 92q-2 2 -22.5 -5t-23.5 -10z" />
    <glyph glyph-name="caron" unicode="&#x2c7;" horiz-adv-x="287" 
d="M129 540q24 17 98 49l10 -19l-104 -82l-2 -3l-1 1l-2 -1l-2 3l-104 82l10 19q28 -9 58 -27.5t39 -21.5z" />
    </font>
</defs>
</svg>
