<?xml version="1.0" standalone="no"?>
<!DOCTYPE svg PUBLIC "-//W3C//DTD SVG 1.1//EN" "http://www.w3.org/Graphics/SVG/1.1/DTD/svg11.dtd" >
<svg>
<metadata>
Created by FontForge 20120731 at Thu Apr 18 09:03:27 2019
 By www-data
Digitized by Dan X. Solo. Software (c) 1999 by Dover Publications, Inc., New York.
</metadata>
<defs>
<font id="Starburst" horiz-adv-x="20" >
  <font-face 
    font-family="Starburst"
    font-weight="400"
    font-stretch="normal"
    units-per-em="1000"
    panose-1="0 0 4 0 0 0 0 0 0 0"
    ascent="800"
    descent="-200"
    x-height="670"
    cap-height="707"
    bbox="-48 -224 1090 867"
    underline-thickness="20"
    underline-position="-123"
    unicode-range="U+0020-F002"
  />
<missing-glyph horiz-adv-x="500" 
d="M63 0v867h375v-867h-375zM125 63h250v742h-250v-742z" />
    <glyph glyph-name=".notdef" horiz-adv-x="500" 
d="M63 0v867h375v-867h-375zM125 63h250v742h-250v-742z" />
    <glyph glyph-name=".null" horiz-adv-x="0" 
 />
    <glyph glyph-name="glyph2" horiz-adv-x="245" 
 />
    <glyph glyph-name="space" unicode=" " horiz-adv-x="245" 
 />
    <glyph glyph-name="exclam" unicode="!" horiz-adv-x="420" 
d="M308 569l-5 -39q7 -21 22 -62l-27 14l-52 -244l-118 2l-70 430h165l16 34l21 -34h66l-7 -49l51 -10q-16 -12 -62 -42zM87 130l1 -1q32 62 99 62q45 0 79 -27.5t34 -71.5q0 -40 -28.5 -68.5t-68.5 -27.5l-1 -15l-43 21q-20 -57 -23 -60q-2 0 -23 52q-35 -15 -44 -17
q6 14 19 42l-51 22l40 36l-25 72q12 -6 33 -20q2 0 2 1zM338 608h-20q-12 2 -17 8q-4 22 -6 43q-25 -19 -33 -22q-10 23 -19 52h-3q0 -20 -22 -64q-12 9 -36 31q-3 -13 0 -26q5 -21 5 -25q-17 -4 -47 -16q21 -14 43 -32q0 -4 -17 -52q-4 -11 -5 -21q16 11 54 51
q13 -56 27 -79q13 10 20 56q1 6 4 6q1 0 19 -13.5t22 -15.5q-8 26 -22 75q2 2 45 29q6 4 17 12q-3 3 -9 3zM159 71l35 39l-48 -13l-12 53l-23 -53l-44 35l22 -61l-38 -27l48 -17l-17 -38l36 19l15 -45l20 54l37 -25l-24 44l50 29z" />
    <glyph glyph-name="quotedbl" unicode="&#x22;" horiz-adv-x="348" 
d="M161 673l29 -234l60 -1q2 0 29 234zM11 673l29 -234l60 -1q2 0 29 234z" />
    <glyph glyph-name="numbersign" unicode="#" horiz-adv-x="553" 
d="M254 466h88l32 202h87l-35 -202h108l-14 -78h-108l-16 -89h108l-13 -78h-109l-40 -222h-81l38 222h-89l-39 -222h-82l38 222h-108l17 78h105l16 89l-111 -1l15 78l109 1l36 201l83 1zM240 388l-16 -89h89l16 89h-89z" />
    <glyph glyph-name="dollar" unicode="$" horiz-adv-x="516" 
d="M414 177q-13 -23 -30 -35l1 -27l-23 12l-15 -9q-6 -14 -16 -47q-5 10 -19 39q-8 -1 -36 -7v-97h-83v89q-106 3 -178 45l23 126q92 -50 139 -50q57 0 57 29q0 21 -20 27q-32 10 -115 40q-30 12 -48 28q-36 32 -36 86q0 39 33 80l4 5q2 2 2 3q-2 7 -9 33l29 -20l37 23l3 27
l15 -19q14 5 64 15v101h83v-95q67 -5 138 -32l-15 -120q-28 30 -108 36q-14 1 -25 1q-63 0 -63 -32q0 -35 98 -55q40 -13 78 -39q47 -32 53 -65q7 -40 -8 -72l20 -9zM172 493l25 48l-48 -23l-31 48q-4 -22 -10 -63l-57 33l20 -52l-38 -25l51 -11l-32 -62l55 36l23 -57l10 56
l52 -17l-25 52l62 28zM383 206l7 49l-43 -34l-26 43l-9 -46l-39 14l23 -43l-51 -19l51 -13l-18 -44l39 29l13 -53l20 50l31 -17l-5 42l62 28z" />
    <glyph glyph-name="percent" unicode="%" horiz-adv-x="841" 
d="M607 4q-73 0 -121 62q-44 57 -44 132t44 132q48 62 121 62q74 0 121 -61q44 -57 44 -133q0 -75 -44 -132q-48 -62 -121 -62zM207 2h-110l477 672h107zM167 284q-73 0 -121 62q-44 57 -44 132t44 132q48 62 121 62q74 0 121 -61q44 -57 44 -133q0 -75 -44 -132
q-48 -62 -121 -62zM607 290q-29 0 -47 -33q-16 -28 -16 -59t15 -59q19 -33 48 -33t48 33q15 28 15 59t-16 59q-18 33 -47 33zM167 570q-29 0 -47 -33q-16 -28 -16 -59t15 -59q19 -33 48 -33t48 33q15 28 15 59t-16 59q-18 33 -47 33z" />
    <glyph glyph-name="ampersand" unicode="&#x26;" horiz-adv-x="646" 
d="M514 296q28 -49 32 -91q2 -22 -14 -81q12 -4 38 -15l-59 -27q-15 -22 -35 -33v-45q-30 22 -37 28q-12 -27 -36 -88l-23 64q-66 -17 -160 -14q-82 2 -145.5 69t-63.5 149q0 53 35 101q32 45 83 70q-3 5 -8 10q-13 9 -31 31q-15 33 -17 64q-2 33 3 51q-12 25 -35 50l15 -2
l37 -4l18 20q-6 10 -16 36q34 -14 43 -19l22 18l23 64q9 -32 17 -41q45 28 117 23q35 -2 75 -18q49 -19 59 -44q2 -3 2 -59q0 -58 -2 -72q-59 42 -112 42q-22 0 -39 -11t-17 -32q0 -59 63 -59q17 0 21 -2q4 -25 3 -29q-61 -48 -85 -77q-36 -43 -35 -89q0 -46 45 -63
q21 -8 41 -8l3 1q2 1 5 44q13 -13 25 -27q20 13 21 40q1 62 -55 93v0l197 177l73 -103zM241 584l20 59l-56 -42l-21 78l-27 -79l-52 28l34 -58l-85 10l83 -52l-49 -29l61 -3l10 -73l37 65l57 -48l-22 89l77 29zM477 126l18 66l-56 -43l-16 55l-35 -65l-39 55l12 -76l-61 12
l56 -55l-40 -52l62 14l25 -67l31 76l36 -29l-2 57l78 32z" />
    <glyph glyph-name="quotesingle" unicode="'" horiz-adv-x="198" 
d="M11 673l29 -234l60 -1q2 0 29 234z" />
    <glyph glyph-name="parenleft" unicode="(" horiz-adv-x="281" 
d="M119 716h77q-73 -176 -73 -374t73 -397h-77q-113 183 -113 397q0 217 113 374z" />
    <glyph glyph-name="parenright" unicode=")" horiz-adv-x="281" 
d="M84 716h-77q74 -176 74 -374t-74 -397h77q113 183 113 397q0 217 -113 374z" />
    <glyph glyph-name="asterisk" unicode="*" horiz-adv-x="316" 
d="M11 592l24 43l81 -47v93h49v-93l80 47l25 -43l-81 -46l81 -47l-25 -42l-80 46v-93h-49v93l-81 -46l-24 42l80 47z" />
    <glyph glyph-name="plus" unicode="+" horiz-adv-x="595" 
d="M307 275v-197h-103v197h-197v104l197 -1v198h103v-198l198 1v-104h-198z" />
    <glyph glyph-name="comma" unicode="," horiz-adv-x="316" 
d="M29 186l199 -1l-127 -253h-106z" />
    <glyph glyph-name="hyphen" unicode="-" horiz-adv-x="337" 
d="M37 390h257v-130h-257v130z" />
    <glyph glyph-name="hyphen" unicode="&#x2010;" horiz-adv-x="337" 
d="M37 390h257v-130h-257v130z" />
    <glyph glyph-name="period" unicode="." horiz-adv-x="328" 
d="M-1 98q0 50 35.5 84t85.5 34t85 -34t35 -84q0 -49 -35.5 -83t-84.5 -34t-85 34t-36 83z" />
    <glyph glyph-name="slash" unicode="/" horiz-adv-x="328" 
d="M187 675h66l-190 -705h-66z" />
    <glyph glyph-name="zero" unicode="0" horiz-adv-x="749" 
d="M660 209q-21 -61 -39 -89q-21 -34 -70 -72q-7 -8 -21 -35l-17 14q-47 -36 -168 -36q-143 0 -237.5 91.5t-94.5 233.5q0 114 43 204l-44 35l60 3q8 9 23 26q-10 21 -15 38q38 -12 41 -12l31 23l5 48l33 -28q69 32 146 32q153 0 250 -105q94 -102 94 -257q0 -15 -5 -39
q-7 -29 -8 -38l30 -9q-2 -2 -20 -11q-14 -8 -17 -17zM588 240l15 85l-63 -74l-27 85l-22 -70l-58 24l6 -11q2 -3 20 -54l-94 -15l92 -51l-10 -73l46 42l35 -104l28 127l42 -35l-4 60q7 4 20 13q7 5 65 46zM242 589l28 49l-66 -14l-41 44l-2 -80l-66 20l23 -56l-88 -2l83 -60
l-18 -74l59 51l31 -93l20 103l51 -29l-25 88l88 21zM445 402q0 31 -24 73q-29 50 -65 46q-54 -6 -83 -68q-22 -48 -22 -111q0 -61 23 -111q30 -61 83 -67q22 -2 50 11l-67 40l106 18l-28 73l25 -9q7 18 7 42q0 11 -2.5 31.5t-2.5 31.5z" />
    <glyph glyph-name="one" unicode="1" horiz-adv-x="495" 
d="M370 458l40 -82l-52 14v-388h-176l-20 -61l-31 82l-59 -24l19 68l-73 25l61 49l-35 111l63 -48v284h-86l137 182h200v-63l36 12l-35 -75l106 -37zM342 540l33 58l-59 -34l-24 42l-16 -57l-61 30l29 -60l-69 -48l67 -14l-31 -50l63 15l30 -60l30 52l52 -19l-36 72l81 37z
M195 136l49 56l-68 -19l-16 74l-33 -75l-61 50l31 -86l-53 -37l67 -24l-19 -55l46 27l21 -62l28 76l51 -35l-32 61l70 41z" />
    <glyph glyph-name="two" unicode="2" horiz-adv-x="678" 
d="M529 302q-48 -56 -162 -147l32 8h177v-161h-357v-66l-43 44l-46 -52l-28 57l-50 -19l9 48l-89 47l84 8q1 36 1 59q6 5 19 11l2 52l23 -26q6 -6 8 -4q1 0 3 2l7 5q215 153 230 259q3 18 0 26q-14 -6 -67 -31q13 23 33 73q-23 9 -38 8q-67 -3 -115 -28l-95 -63l-1 166
q6 13 100 54q32 14 90 27l-4 21l41 -17l74 -1l17 19l16 -18l27 -2l21 17q5 -11 19 -29q143 -50 143 -157q0 -94 -81 -190zM477 569l24 29l-59 -10l6 80l-44 -66l-21 67l-35 -75l-81 72l40 -91l-35 -27l75 -18l-46 -89l95 58l29 -70l23 67l44 -23l-24 59q16 2 35 12q4 3 13 6
zM204 74q7 31 7 43l-57 -41l-68 97l-1 -116l-88 -2l79 -36l-11 -39l44 19l23 -52l41 50l36 -32v65l54 6z" />
    <glyph glyph-name="three" unicode="3" horiz-adv-x="711" 
d="M269 512h-46l-55 -54l-8 55h-106v158h38l-2 12l66 -18l43 75l46 -63l47 18l-1 -24h343l-201 -263q59 -7 108 -32q59 -30 80 -76q9 -19 13 -43l43 -10l-40 -30q-1 -11 -5 -37q-21 -90 -132 -149q-98 -51 -200 -51q-190 0 -283 75l1 175q20 -27 65 -53q57 -33 111 -33
t91 23q43 28 43 79q0 71 -80 92q-10 3 -47 10h-11q-11 0 -32.5 -1t-32.5 -1q6 6 65 93q39 57 79 73zM264 616l15 64l-42 -14l-38 49l-37 -68l-58 22l38 -69l-44 -56l69 8l8 -72l72 72l55 -42l-17 60l77 35zM565 245l11 65l-54 -41l-15 74l-32 -57l-63 69l16 -102l-71 14
l57 -66l-69 -69l91 18l8 -100l56 94l32 -48l6 71l54 -14l-25 48q54 19 96 43q-30 3 -98 1z" />
    <glyph glyph-name="four" unicode="4" horiz-adv-x="714" 
d="M549 128v-127h-140l-24 -55l-20 57h-60v30l-46 1l38 58l1 33h-240l-45 185l52 82q14 23 44 71l-76 48l79 16l-40 87l79 -41l26 72l28 -57l76 83h268v-373h115v-170h-115zM244 546l20 62l-64 -31l-21 48l-22 -63l-67 31l39 -74l-71 -12l68 -37l-45 -72l69 38l42 -74l9 86
l38 -15l-12 57l105 52zM303 455l-94 -161l94 1v160zM443 155l54 80l-92 -54l-32 66l-26 -85l-75 22l61 -61l-58 -80l79 19l33 -96l28 94l97 -54l-69 98l103 51h-103z" />
    <glyph glyph-name="five" unicode="5" horiz-adv-x="734" 
d="M81 188l1 -1q19 -12 55 -26q74 -29 135 -30q35 0 69 17q44 22 44 64q0 36 -32 61t-69 25q-60 0 -103 -15q-33 -11 -85 -43v82l-51 -21l30 72l-70 47l84 13l-29 99l33 -29l1 168h520v-152h-321v-85q92 24 111 24q108 0 181 -43q89 -52 89 -153q0 -13 -1 -27q2 -3 43 -13
q-39 -23 -41 -26q0 -64 -94 -138l-7 -44l-27 26q-69 -29 -146 -40q-61 -9 -98 -9q-79 0 -195 46l-24 130q-2 11 -2 14zM611 241l2 75l-58 -68l-25 92q-21 -61 -40 -105l-71 6l57 -57l-53 -51q9 0 32 -3q20 -2 32 -1l-17 -78l57 41l42 -65l9 98l53 -1l-22 54q6 3 61 27
q13 5 23 12zM205 441l14 58l-46 -36l-32 52l-13 -68l-52 60l26 -81l-72 -12l59 -36l-28 -59l60 22q17 -31 36 -49q7 27 31 62l45 -22q-9 30 -19 75l40 41z" />
    <glyph glyph-name="six" unicode="6" horiz-adv-x="729" 
d="M583 65q-3 -1 -4 -37q-19 17 -25 13q-16 -6 -35 -18q-6 -19 -21 -58q-7 25 -7 36q0 6 2 8q-22 -8 -54 -12q-64 -7 -87 -7q-80 0 -152 38q-79 41 -112 108q-41 83 -41 156q0 94 41 180q-2 3 -20 -1l-18 -4q6 19 17 63l-59 64h81q-10 23 -23 62l49 -30l31 53q1 2 4 6l4 5
l17 -59l38 41h277q-20 -19 -71.5 -98t-59.5 -103l-6 -18q28 4 55 4q64 0 141 -27q59 -21 95 -85.5t30 -128.5q-10 -112 -87 -151zM211 571l13 62l-55 -26l-17 67q-10 -20 -31 -60l-20 12q-2 0 -21 11l21 -53l-73 1l53 -56q-17 -45 -13 -49q17 5 45 9l1 -107q14 33 47 97
q59 -48 71 -57l-31 93q55 24 71 34q-22 9 -61 22zM554 165q29 51 35 60q-12 -3 -69 -29q-6 47 -10 70q-17 -24 -54 -82l-53 30q3 -23 10 -66q-14 -5 -40 -20q29 -9 67 -25q-4 -11 -21 -65q-3 -10 -3 -18q18 8 69 55l14 -83l35 94l39 -44l-12 79l44 39zM369 307
q-76 7 -82 -58q-3 -27 16 -49.5t46 -24.5q29 -2 50 6l-6 45l28 -13q8 15 10 37q2 19 -20 37t-42 20z" />
    <glyph glyph-name="seven" unicode="7" horiz-adv-x="658" 
d="M485 302l43 17q-20 -28 -59 -96l80 -17l-90 -42v-118l-44 56l-39 -100h-266l208 501h-82l27 -59l-80 29l-29 -111l-25 95l-58 -32l12 74h-81l38 172h574zM225 558l23 55l-54 -39l-40 79l-22 -95l-53 48l14 -70l-47 -15l46 -22l-11 -57l55 23l19 -75l23 91l72 -24l-24 57
l44 47zM452 216l53 85l-74 -34l-19 89l-26 -101l-80 48l56 -93l-66 -40l59 -17l-9 -75l53 62l50 -70l2 101l72 32z" />
    <glyph glyph-name="eight" unicode="8" horiz-adv-x="672" 
d="M287 -9q-115 0 -203 51q-105 61 -105 165q0 34 11 70q-11 8 -19 25q23 2 31 2q12 47 69 62q-57 34 -57 125q0 14 1 25q7 74 109 125q79 40 151 40q81 1 174 -39l16 19l7 -35l31 -25l26 10l-11 -23q4 -5 17 -25l49 1q-14 -12 -42 -37q0 -8 2.5 -28.5t1.5 -31.5
q-5 -45 -55 -88l12 -9q37 -15 67.5 -58.5t30.5 -82.5q0 -112 -106 -180q-91 -58 -208 -58zM491 558l29 44l-48 -15l-9 63l-46 -65q-46 31 -65 39q6 -22 35 -75q-54 -20 -89 -35q31 -13 90 -37l-17 -37q-2 -3 -15 -27l68 49l22 -56l23 58l51 -17l-24 50l76 62zM286 514l40 16
q-18 17 -47 17q-28 0 -49.5 -18.5t-21.5 -46.5t21.5 -46.5t49.5 -18.5q29 0 51 20t22 49q-22 9 -66 28zM293 292q-25 3 -55 -8q-35 -12 -36 -35q6 -5 59 -34l-58 -33q15 -46 101 -40q82 5 80 81q-2 57 -91 69zM186 250l35 55l-66 -8l-20 85l-54 -95l-102 11l77 -72l-37 -74
l67 27l18 -88l33 66l51 -46v20l-14 47l59 29l12 9z" />
    <glyph glyph-name="nine" unicode="9" horiz-adv-x="709" 
d="M588 79q9 -23 23 -61l-50 30l-30 -53q-3 -4 -5 -7l-4 -4l-17 59l-38 -42h-277q20 20 72 99t59 102l6 19q-28 -4 -55 -4q-64 0 -140 26q-60 21 -96 86q-35 62 -29 128q10 113 86 151q4 2 2 35q22 -14 27 -10q17 7 35 18q7 19 15 57q13 -28 13 -39q0 -3 -1 -4q25 9 53 12
q56 6 88 6q80 0 152 -37q79 -41 112 -108q41 -83 41 -157q0 -93 -42 -180q2 -1 21 2l18 3q-7 -19 -18 -62l60 -65h-81zM321 498q-29 0 -43 -6l5 -44l-27 13q-8 -15 -10 -37q-2 -20 21 -38q20 -17 41 -19q77 -7 82 57q3 33 -16.5 53.5t-52.5 20.5zM244 572q-3 3 -5 7v45
q-18 -7 -48 -26l-16 86l-32 -96l-39 43l12 -79l-45 -39l52 -4q-30 -52 -36 -60q13 3 69 29q6 -47 11 -71q17 24 54 82l53 -29q-3 22 -10 66q14 5 39 19q-19 11 -59 27zM596 145q16 44 13 48q-17 -4 -46 -9v108q-15 -34 -48 -98q-58 48 -71 57l32 -92q-56 -24 -72 -35
q23 -8 61 -22l-12 -61l54 26l18 -50q5 7 28 48q4 -3 25 -18q5 -4 14 -9l-21 53l78 -3z" />
    <glyph glyph-name="colon" unicode=":" horiz-adv-x="328" 
d="M-1 458q0 50 35.5 84t85.5 34t85 -34t35 -84q0 -49 -35.5 -83t-84.5 -34t-85 34t-36 83zM-1 98q0 50 35.5 84t85.5 34t85 -34t35 -84q0 -49 -35.5 -83t-84.5 -34t-85 34t-36 83z" />
    <glyph glyph-name="semicolon" unicode=";" horiz-adv-x="316" 
d="M-1 458q0 50 35.5 84t85.5 34t85 -34t35 -84q0 -49 -35.5 -83t-84.5 -34t-85 34t-36 83zM29 186l199 -1l-127 -253h-106z" />
    <glyph glyph-name="less" unicode="&#x3c;" horiz-adv-x="500" 
d="M466 624v-149l-275 -142l275 -142v-148l-433 228v125z" />
    <glyph glyph-name="equal" unicode="=" horiz-adv-x="553" 
d="M41 466h472v-78h-472v78zM41 299h472v-78h-472v78z" />
    <glyph glyph-name="greater" unicode="&#x3e;" horiz-adv-x="500" 
d="M34 624l433 -228v-125l-433 -228v148l275 142l-275 142v149z" />
    <glyph glyph-name="question" unicode="?" horiz-adv-x="583" 
d="M490 555q8 -18 18 -74q2 -63 -33 -107.5t-97 -59.5q-4 -1 -25 -3v-82h-192q-5 87 -5 132q0 22 1 34q18 -1 33 -1q27 1 59 27.5t31 52.5q-1 25 -21 43.5t-45 17.5q-63 -3 -104 -48q-5 -5 -15 -18q-51 97 -48 102q20 24 61.5 51t71.5 36q54 15 101 17q62 2 103 -14
q1 -1 2 0q3 1 25 42l18 -70q6 0 56 36l-20 -69q70 -12 84 -18q-20 -8 -59 -27zM267 191q45 0 79 -27.5t34 -71.5q0 -40 -28.5 -68.5t-68.5 -27.5l-1 -15l-43 21q-20 -57 -23 -60q-2 0 -23 52q-35 -15 -44 -17q3 8 19 42l-51 25l41 30l-26 75q15 -9 29 -17q2 -1 10 -6
q-2 12 24 36q32 29 72 29zM453 593l16 54q-16 -12 -47 -30l-13 66h-3q1 -14 -30 -72q-4 5 -23 27q-4 5 -11 9q-1 -5 3 -28l3 -16q2 -7 2 -10q-22 -1 -51 -1q15 -11 43 -34q-11 -11 -31 -34q14 1 43 -2q5 -2 7 -2q1 -13 5 -41q9 8 25 21q5 -21 17 -64h4q6 26 23 78
q10 -6 60 -19q-35 51 -39 61q15 9 72 23zM239 71l35 39l-48 -13l-12 53l-23 -53l-44 35l22 -61l-38 -27l48 -17l-17 -38l36 19l15 -45l20 54l37 -25l-24 44l50 29z" />
    <glyph glyph-name="at" unicode="@" horiz-adv-x="645" 
d="M503 441l-94 10l37 119l-96 -90l-49 155l-58 -153l-165 81l81 -187l-106 -47l133 -70l-53 -119l129 88l56 -133l22 153l119 -49l-83 112h147l-112 79zM552 450l-113 -61l131 -93h-164l97 -132l-151 63l-26 -188l-71 166l-157 -107l68 154l-147 78l120 54l-90 210l186 -91
l67 177l55 -173l120 112l-48 -155z" />
    <glyph glyph-name="A" unicode="A" horiz-adv-x="748" 
d="M507 1l-22 69l-39 -37v74h-168l-39 -105h-232l129 437l-26 -5l49 76l-75 73l92 1l28 86h73l41 54l9 -54h215l201 -669h-236zM298 591l15 111l-76 -123l-9 66l-47 -70h-76l63 -65l-43 -66l53 31l27 -67l31 79l42 -99v117l70 -52l-19 92l76 61zM369 438l-48 -165h83
q-4 12 -13 37l29 -9zM564 159l67 63l-73 -9l29 73q-24 -8 -65 -30l-12 70l-30 -67l-74 34l42 -69l-4 -5l-72 -7l46 -33l-55 -22l64 -17l29 -11l1 -74l54 61l127 -43z" />
    <glyph glyph-name="B" unicode="B" horiz-adv-x="739" 
d="M658 152q4 -24 -22 -62q-3 -4 2 -30l-26 10l-38 -26l-14 -42l-15 25q-40 -25 -69 -25q-9 0 -35 1h-43l-350 -1v410l-32 -9l33 64l-54 38l68 29l-16 29q-7 11 -34 58l33 -13l-1 63h70l13 22l19 -22h309q72 0 124.5 -45.5t52.5 -116.5q0 -32 -22 -67.5t-51 -54.5
q67 -22 80 -69q2 -7 23 5l-14 -65l56 7l-44 -69l45 -14zM335 502h-57v-25q32 -40 34 -47q-8 1 -22 3q-7 1 -12 -2v-22h66q62 0 62 47q0 24 -25 36q-20 10 -46 10zM632 247l19 65l-68 -74q-15 33 -20 52q-1 4 -4 10l-39 -74l-44 28l2 -51l-69 13l58 -69l-52 -70l95 30l47 -88
l19 86q8 -6 54 -36q-3 23 -8 69l63 42l-41 12l45 62q-20 -2 -57 -7zM235 508q43 31 48 36q-24 9 -72 24l13 69l-65 -54l-28 96l-19 -111l-75 31l44 -73l-60 -24l47 -26l-28 -54l75 21l8 -118l43 94l65 -61l-8 78q0 3 -4 20q50 -9 73 -11q-11 17 -57 63zM367 267
q-26 -1 -87 0v-101h81q45 10 53 30q-6 7 -18 29h31q-20 39 -60 42z" />
    <glyph glyph-name="C" unicode="C" horiz-adv-x="618" 
d="M312 475v1q-31 -17 -49 -55q-17 -34 -17 -72q0 -73 45 -117.5t118 -44.5q60 0 139 60q2 -120 -1 -177q-23 -19 -74 -51q-55 -25 -151 -25q-61 0 -74 12v-41l-44 27l-40 -64l-30 77q-16 -9 -46 -27q6 23 11 70l-94 83q64 5 65 6q-27 42 -45.5 110t-18.5 121q0 76 51.5 158
t119.5 113q-7 17 -18 54q2 -2 31 -19q25 -15 28 -15t17 5.5t18 7.5t7 18l2 12q0 3 2 6q8 -10 20 -34l31 6l15 24q13 -18 20 -18q43 0 103 -13q70 -16 92 -39l-2 -171q-79 40 -119 36q-5 -5 -10 -27q-41 34 -47 34q-5 0 -16 -96q-6 10 -32 55l-4 8l-1 2q-2 1 -2 0zM386 602
l12 25l-28 -2l-10 3l-28 65l-29 -67l-37 65l-14 -72l-80 57l34 -76l-56 -11q52 -13 66 -22q6 -4 10 -10l1 -1l-45 -37l64 5l14 -65l39 58l44 -80l16 88l48 -37l-12 68l86 27zM247 101l43 48l-67 -10l-9 88l-50 -71l-39 40l-5 -65l-88 -8l80 -70l-11 -55l38 23l29 -72l33 57
l38 -25l-8 57l74 48z" />
    <glyph glyph-name="D" unicode="D" horiz-adv-x="734" 
d="M685 384q-4 -96 -20 -150q-22 -72 -78 -130q-102 -105 -276 -103h-184l-20 -46l-18 46l-55 1v99q-4 5 -18 11l-12 5q-2 1 -7 3q13 7 36 23q2 12 0 36l-33 54h30l1 437h345q131 0 243 -127q0 -1 3 0q10 6 32 17q-4 -20 -15 -64l49 1l-28 -62q14 -12 44 -35
q-15 -11 -19 -16zM643 431l31 55h-50l16 55l-56 -34l-20 37l-14 -49l-63 28l34 -74l-109 -7l104 -41l-15 -69l52 43l20 -117l25 108l35 -34v54l57 13zM442 418l-51 28q19 5 25 8q-12 22 -45.5 35t-61.5 11q5 1 -37 1v-279l30 2q-18 -35 -23 -47h69q52 0 84 55q26 45 26 95
q0 59 -16 91zM214 204l-6 65l-24 -22l-16 68l-37 -68l-38 56l-4 -80l-75 -1l50 -64l-44 -41l67 -15l22 -119q10 46 25 98l1 2q2 2 6 9l40 -39l3 53l81 -47l-40 85l62 65z" />
    <glyph glyph-name="E" unicode="E" horiz-adv-x="601" 
d="M21 4l-1 561l-37 19l38 21v66h104l30 37l34 -38l330 1v-151l-184 -1l-3 -12l-52 -2l1 -84h235v-140h-235v-108h43l28 52l29 -44l63 60v-71l80 -1v-90l17 -16l-16 -11l-1 -50h-75l-9 -53l-50 40l-57 -72l-34 85l-56 -16l3 16zM237 574l73 53l-86 -10l3 39l-36 -22l-34 52
l-63 -86l-83 -17l82 -32l-34 -60l62 32l-15 -142q20 35 65 93l73 -39l-33 82l101 3zM446 90l50 45l-67 -12v82l-53 -46l-21 37l-35 -59l-63 31l30 -59h-81l72 -52l-18 -51l48 15l29 -81l54 72l38 -36l1 71l94 17z" />
    <glyph glyph-name="F" unicode="F" horiz-adv-x="606" 
d="M536 557v-65l-38 -1q6 -37 6 -44l-54 53l-44 -66l-37 60q-17 -1 -31 -1q-13 0 -24 1l1 -103l212 -1v-172h-213v-53l51 -6l-49 -36v-124h-129q-13 0 -23 3l-30 -49l-9 49h-52l1 18l-47 -23l49 88l-75 26l72 39l-54 71l54 -11v461h211l-2 12l38 -12h73l17 35l14 -35l108 -1
v-67q12 -4 43 -13zM469 609l21 55l-45 -37l-9 -6l-26 72l-21 -72l-98 52l46 -68l-24 -4l-96 -19l114 -21l-37 -31l45 -7h19l47 -74l46 66l46 -48l-16 68l78 49q-42 9 -90 25zM277 165l-7 67l-60 -55q-4 8 -9 117l-53 -117l-31 83l-13 -70l-64 18l43 -60l-64 -36l74 -21
q-15 -25 -52 -82l79 56l4 -1l14 -89l50 87l113 -57l-58 81l104 67q-58 8 -70 12z" />
    <glyph glyph-name="G" unicode="G" horiz-adv-x="708" 
d="M632 155q-8 -32 -32 -48q15 -35 23 -47q-20 1 -62 5q-6 -39 -15 -102l-46 55l-76 -77l15 67q-8 -6 -34 -11.5t-38 -5.5q-180 3 -271 123q-82 107 -82 294l-25 27l32 13q3 3 16 47l-31 71q17 -3 58 -25q18 20 70 71q77 70 232 70q43 0 104 -15q73 -18 89 -42l1 -172
q-71 54 -150 54q-75 0 -115 -47t-40 -123q0 -56 29 -104q34 -55 86 -55q24 0 52 17t28 40v24h-109v138h299q-2 -67 -2 -118t2 -86l28 -14zM492 170q-47 3 -81 6l39 -49l-136 -77l144 14l-18 -99l56 70l43 -51l13 95l53 -4l-36 60l84 42l-83 10l38 108l-76 -85l-63 54z
M200 459l52 28l-55 6l21 69l-54 -51l-25 82l-32 -82l-88 43l43 -100l-56 -25l70 -37l-30 -68l71 49l32 -75l12 85l67 -28l-45 61h78z" />
    <glyph glyph-name="H" unicode="H" horiz-adv-x="739" 
d="M670 460v-459q-33 -1 -229 0v260l-165 1v-70l35 -15l-33 -21v-154h-98l-19 -29l-17 29h-109l-1 86l-30 7l33 43l1 80l-34 63l36 -19l1 408h235v-235h156v47l-42 61l38 -7l-1 134l242 1v-181l30 -9zM603 494l5 54l-38 -21l-15 50l-38 -78l-111 34l72 -89l-37 -38l54 -11
l3 -84l50 71l34 -79l16 92l8 4l15 1l-4 31l67 48zM218 197l15 39l-49 -20v2l-11 84l-28 -50l-19 43l-32 -80l-74 50l64 -96l-62 -70l101 -12l39 -104l32 121l26 -12l-4 42l83 42z" />
    <glyph glyph-name="I" unicode="I" horiz-adv-x="374" 
d="M306 496v-495h-117l-21 -64l-32 62l-29 -38l-13 41h-21v19l-61 -26l29 75l-51 29l71 36l-10 84l24 -21l-2 473l65 -2l-4 38l42 -37h60l17 30l16 -30h35l-1 -45l36 21l-16 -70l35 -38zM309 574l19 54l-41 -25l-14 31l-20 50l-28 -77l-81 82l35 -107h-80l72 -62l-28 -62
l12 10l45 11l22 -93l25 86l34 -48l18 80l44 33zM149 118l10 93l-59 -57l-38 45l12 -68l-63 -32l45 -24l-29 -63l69 33l16 -62l28 35l28 -59l16 82l52 18l-31 32l41 41z" />
    <glyph glyph-name="J" unicode="J" horiz-adv-x="589" 
d="M442 42q11 -42 19 -66l-57 38l-24 -76l-26 72l-67 -65l-5 57q-30 -4 -68 -8q-95 -9 -169 39q-43 28 -48 46q22 108 37 161q26 -32 70.5 -53.5t85.5 -21.5q48 0 76.5 34.5t26.5 82.5l-1 28q-5 0 -15.5 -5t-16.5 -5q6 27 23 94l-95 26q56 30 72 46l-66 114l96 -42v132h244
v-446q0 -23 -16 -72q-3 -10 -35 -53l65 -14zM409 500l30 70l-73 -43l-13 73q-18 -66 -36 -89q-22 9 -96 45q23 -33 62 -94q-7 -5 -63 -44l77 -16l-22 -86l65 72l26 -55l18 74q33 -26 51 -24q-3 6 -36 63q-5 8 -5 10q3 2 8 4q11 4 34 12q20 8 28 18q-9 6 -55 10zM465 95
l15 58l-70 -52l6 82l-43 -72l-41 74l4 -92l-60 34l28 -65l-92 -9l81 -31l2 -60l62 66l23 -64l18 63l42 -27l-8 45l79 33z" />
    <glyph glyph-name="K" unicode="K" horiz-adv-x="711" 
d="M682 -2q-4 3 -67 4l2 -44l-51 44h-54l-21 -30q-1 0 -8 14t-9 16h-30l-28 55l-58 -1l2 3l8 8l27 29l-115 189l-1 -283h-233v510l-52 45h48v113h85l7 30l15 -30l119 1v-84l36 3q-3 -6 -33 -38v-130l174 248h221l-192 -296l129 -207h52l-35 -39zM195 566l25 56l-47 -27
l-35 82l-24 -93l-54 38l24 -71l-70 -4l75 -53l-42 -84l84 35l17 -63l36 55l33 -45l-9 86l56 -5l-37 46l65 66zM566 157l-7 58l-38 -42l-36 70l-8 -84l-93 53l63 -90l-66 -56h91l19 -79l43 70l69 -75l-15 75l50 15l-46 46l50 41z" />
    <glyph glyph-name="L" unicode="L" horiz-adv-x="597" 
d="M50 187q0 -1 1 -1l1 2q1 14 1 74v406l192 2l11 35l15 -32l48 -2l-1 -57l33 10l-21 -56q27 -9 98 -39q-26 -9 -79 -40l28 -69l-51 13l-1 -25l1 -241h221v-165l-360 -1l-5 -32l-50 32l-63 -57l2 56l-24 1v55l-44 32l49 27q-8 3 -35 74l-4 8l-1 11zM315 565l20 45l-40 -10
l-38 83l-23 -112l-57 25l36 -66l-67 -20l80 -35l-22 -72l54 35l9 -115l27 72l25 50l40 -9l-24 55l72 38zM177 120l11 74l-37 -44l-21 61l-31 -74l-71 52q7 -12 17 -30q1 -3 21 -45l-43 -28l61 -41l-2 -80l49 52l43 -27l6 50q5 -1 10 -1q1 0 9 1q12 1 37 -3l-34 47l58 46z
" />
    <glyph glyph-name="M" unicode="M" horiz-adv-x="1000" 
d="M702 2l-62 267l-4 4l-82 -271h-171l-75 274l-56 -274l-223 1l22 111q-11 -5 -17 -9l-4 -3q-4 -4 -22 -16l1 4q2 5 49 117l-52 77l72 -6q-8 11 -50 95l60 -37l73 334l235 1l83 -306l44 171q-22 30 -55 76l68 -10l27 68h24l9 10l14 -10h71l19 24l18 -24h114l120 -668h-250z
M704 540l80 66l-86 -12l4 89l-66 -80l-36 65l-24 -85l-88 17l68 -93l-37 -94l70 46l2 -7q2 -4 21 -86l39 81l81 -56l-35 91l88 32zM171 304l15 116l-67 -116l-63 40l39 -82l-65 8l41 -64l-26 -64q-3 -5 -17 -33q16 15 24 19q20 12 48 41l-7 -80q48 84 56 89q10 -15 40 -48
l23 -25q12 -13 21 -24q-7 32 -38 117l71 17l-73 45q87 61 95 70q-21 0 -117 -26z" />
    <glyph glyph-name="N" unicode="N" horiz-adv-x="711" 
d="M616 407l1 -404l-216 -1l-155 270v-46l2 -224h-214l-1 172l-44 -3l54 93l-62 68l51 18l-1 320l202 1l175 -297v130l-42 53l44 -9l3 122l202 1l1 -207l47 -23zM586 470l-30 130l-63 -99l-108 44l78 -88l-44 -31l53 -15l-78 -64l95 25l-69 -88l94 62l15 -86l23 74l52 -29
l-31 91l73 43zM146 344l-4 9l20 57l-59 -35l-9 81l-35 -109l-63 -19l61 -58l-48 -92l61 31l27 -66l24 88l9 6l62 -53l2 11l-24 84l62 66z" />
    <glyph glyph-name="O" unicode="O" horiz-adv-x="750" 
d="M589 80q3 -16 9 -47q-11 4 -27 24l-41 -25l-10 -34l-16 20q-50 -34 -205 -30q-136 4 -219 113q-75 99 -75 236q0 52 13 106q16 66 45 94l-65 34l86 24l14 64l31 -41l24 22l41 60l17 -35q19 8 52 18q18 5 93 7q141 3 236 -100q91 -99 96 -242q3 -92 -17 -146.5t-82 -121.5
zM274 587q-9 0 -53 -15l-13 17q-7 58 -20 86q-13 -26 -52 -78q-13 21 -33 39q-5 -15 -11 -51l-63 -16l61 -34l-30 -51l53 20l-15 -86l58 55q16 -47 30 -69q11 39 23 89l20 -3v16l-2 20q44 39 64 61h-17zM360 521q-44 0 -77.5 -28.5t-43.5 -71.5q-7 -31 -7 -73q0 -77 26 -129
q34 -67 104 -67q8 0 48 10l-39 80l78 -29q26 52 27 103q4 205 -116 205zM567 187l29 75l-63 -55q-5 19 -12 84q-22 -36 -64 -94q-24 11 -72 31q17 -31 43 -81l-47 -24l72 -16l-33 -56l60 30l37 -68q2 17 13 87q41 -36 58 -45q-3 6 -9 21q-1 3 -15 53q36 28 48 42
q-19 6 -45 16z" />
    <glyph glyph-name="P" unicode="P" horiz-adv-x="711" 
d="M526 268l40 -6l-78 -41l25 -53l-57 28l-25 -58l-20 42l-71 -59l21 92l-49 -4l25 29h-39l1 -237l-255 1l1 463l-45 18l45 25v43l-36 66l32 -14v67l422 -1q75 0 133 -66.5t58 -142.5q0 -58 -37.5 -111.5t-90.5 -80.5zM360 526q-7 0 -61 -1v-115h67q23 0 42.5 17.5
t19.5 40.5q0 26 -21 42t-47 16zM470 264l13 66l-44 -52l-20 75l-14 -77l-30 44v-47l-79 39l51 -73l-24 -28l46 10l-18 -84l59 56l21 -37l22 50l49 -26l-25 46l63 32zM198 548l1 81l-44 -62l-36 64l-13 -66l-83 38l56 -90l-57 -30l65 -19l-17 -74l48 26l31 -84l24 92l36 -44
l-5 75l58 38l-48 13l57 66z" />
    <glyph glyph-name="Q" unicode="Q" horiz-adv-x="775" 
d="M657 493q44 -91 44 -175q0 -103 -67 -198l40 -72q-45 -33 -141 -93q-7 1 -18 19l-16 26q-7 9 -13 9q-4 0 -52 -18q-40 -15 -85 -15q-116 0 -179 46l-18 -56l-42 98q-22 -15 -68 -45l1 4q1 4 16 72l-50 36q36 18 41 18q-48 82 -48 154q0 171 101.5 272t273.5 101
q79 0 175 -64l23 35l12 -46q1 -3 3 -10l49 27l-1 -70l41 1h30zM629 541l3 66l-46 -29l-13 50l-34 -54l-55 33q7 -20 16 -56l-56 -19l57 -25l-21 -64l56 23l26 -120l28 129q3 -3 8 -10q7 -10 41 -56l3 82l49 51zM339 507q-41 0 -69 -63q-22 -50 -22 -93q0 -56 18 -108
q25 -73 72 -73q106 0 106 190q0 58 -23 98q-28 49 -82 49zM204 133l45 34l-62 -1l27 52l-60 -36l-15 56l-23 -57l-45 50l5 -82q-33 -10 -46 -21q9 -3 40 -29l-13 -61l57 36l35 -86l23 68l50 -25l-22 65l76 -8z" />
    <glyph glyph-name="R" unicode="R" horiz-adv-x="728" 
d="M550 2l-13 -31l-8 31l-103 -1l-87 240h-52v-239l-232 -1l-1 520l-47 10l47 30v47l-19 23h17v40h88l9 19l14 -19h322q77 0 131 -68q51 -63 52 -142q2 -128 -100 -181l39 -100l52 -11l-33 -34l52 -133h-128zM368 522q-9 0 -86 -1v-107h86q26 0 46 15.5t20 40.5
q0 21 -22 36.5t-44 15.5zM187 610l-38 72l-25 -68q-66 12 -81 12q7 -10 53 -48l-74 -46l81 -8l-28 -72l57 31l21 -88l23 89l54 -36l-24 76l80 23l-67 19q66 50 69 58q-3 3 -101 -14zM581 173l-27 93l-22 -92l-75 42l43 -55l-60 -29l56 -10l-37 -76l60 48l18 -116l32 89
l63 -22q-14 30 -39 74l53 47z" />
    <glyph glyph-name="S" unicode="S" horiz-adv-x="667" 
d="M596 103q-18 -33 -43 -49l2 -40l-33 18l-22 -13q-8 -21 -22 -67q-7 12 -28 56q-110 -23 -162 -22q-156 3 -262 65l33 182q131 -72 199 -72q81 0 81 40q0 30 -29 39q-46 14 -165 57q-44 18 -68 39q-52 47 -52 124q0 59 47 114l6 7q3 3 3 5q-4 9 -12 42l42 -23l51 32l6 36
l21 -23q111 31 188 30q102 -1 219 -47q-15 -118 -21 -173q-22 25 -86 40q-52 13 -98 13q-96 0 -96 -45q0 -49 113 -73q9 -1 27 -5q57 -17 111 -55q67 -47 76 -93q4 -20 4 -39q0 -35 -14 -65l29 -13zM249 555l35 68l-67 -33l-43 68q-6 -31 -15 -89l-81 47l29 -74l-54 -35
l72 -15l-45 -88l77 51l33 -80l14 78l73 -24l-35 74l88 39zM550 145l10 69l-60 -49l-37 61l-12 -64l-56 20l33 -61l-71 -28l71 -17l-25 -61l54 39l19 -73l28 69l44 -23l-7 58l88 40z" />
    <glyph glyph-name="T" unicode="T" horiz-adv-x="635" 
d="M590 583v-90l-105 2l-25 -42l-21 41l-22 1v-493l-241 1l-1 142l-32 -15l14 65l-94 53l100 16l-41 117l54 -37l-1 152h-153v175l274 -1l-9 24l62 -26l61 1l30 55l36 -57l30 32l13 -29h71v-47l32 -9zM521 617l-20 63l-25 -33l-35 58l-35 -72l-104 47q29 -29 71 -76l-83 -43
l89 -11q-32 -91 -26 -99q6 12 77 89l32 -65l26 50l67 -26l-32 52l80 58q-26 2 -82 8zM281 280l56 83l-92 -58l-12 84l-32 -82l-61 52l34 -102l-85 -14l76 -42l-12 -55l43 21l40 -73l21 90l54 -34q1 2 -28 74l56 38z" />
    <glyph glyph-name="U" unicode="U" horiz-adv-x="685" 
d="M610 152l11 -24l-23 -10q-30 -57 -58 -76l-4 -2q-13 -8 -14 -14q-2 -10 -8 -33q-6 8 -12 17q-10 12 -14 11q-85 -30 -203 -30q-90 0 -168 51q-88 58 -88 144v332l-77 36l75 18v99h52l16 43l19 -43h135l1 -433q-2 -86 76 -88q3 -1 7 -1q19 0 33.5 15t14.5 34q0 5 -32 46
l-6 9q13 -4 49 -9q-1 45 -1 426h232v-431l31 -12q-26 -10 -30.5 -22t-13.5 -53zM556 231l28 74l-60 -55l-21 69l-25 -82l-52 54l11 -73l-73 23l62 -71l-60 -53l81 7l-36 -74l61 38l36 -79l11 85l40 -18l-16 54l65 3l-47 47l71 46zM164 587l28 74l-64 -39l-34 78
q0 -13 -18 -83l-45 29q24 -66 26 -78q-23 -6 -83 -18l93 -37l-27 -75q20 15 60 42l23 -90l24 88l72 -28l-54 79l63 57z" />
    <glyph glyph-name="V" unicode="V" horiz-adv-x="709" 
d="M599 480l18 -121l-31 35q-1 7 -120 -389h-206l-62 166l-76 -50l32 106l-89 41l98 21l-161 382h255l106 -318l79 318h87l14 27l13 -27h107l-21 -66l27 9l-48 -79l48 -28zM605 583l27 64l-62 -28l-27 69l-29 -69l-48 21l17 -62l-54 7l1 -1q-1 -1 -1 -2l2 -2q12 -19 50 -55
l-49 -56q34 0 67 1l-16 -97l63 73l63 -68l-19 106l63 25l-43 24l48 72zM289 275l24 42l-48 -16l12 72l-47 -57l-38 56l-15 -91l-82 -17l72 -32l-27 -92l65 48l48 -71l12 76l66 -12l-38 57l52 21z" />
    <glyph glyph-name="W" unicode="W" horiz-adv-x="907" 
d="M722 3l-212 -1l-81 305l-76 -303l-208 -1l-32 182l-7 35q-41 -38 -46 -39l27 105l-64 28l50 41l-61 85l41 -7l-1 2q-6 -14 -41 236h230l64 -290l64 290h138l69 -296l53 297h231zM685 232l48 58l-69 -22l22 64l-53 -34l-20 77l-40 -86l-92 45l65 -89l-67 -39l73 -18
l-29 -81l61 47l40 -81l16 88l51 -52l-13 74l60 18zM200 361l23 88l-53 -54l-34 91l-21 -92l-78 29l53 -68l-52 -38l65 -26l-28 -87l50 51l31 -49l7 48q0 5 5 23l52 -27l-21 62l42 36z" />
    <glyph glyph-name="X" unicode="X" horiz-adv-x="660" 
d="M402 -1l-53 126l-31 -17l23 48l-26 59l-91 -214h-223l135 321l-21 65l-66 -76l20 97l-60 21l69 48l-62 96l39 -11l-42 109l212 -1l81 -220l85 220h198l-125 -300l25 -56l31 21l-19 -59l14 -33l56 -8l-45 -33l89 -203h-213zM482 241l26 76l-59 -47l-24 61l-23 -66l-104 4
l85 -50l-57 -101l77 46l12 -90l35 86l45 -46l-12 70l71 45zM176 498l32 66l-59 -40l-16 71l-38 -56l-62 23l56 -87l-58 -45l48 -15l-19 -80l67 84l44 -88v77l39 -10l-25 45l69 33z" />
    <glyph glyph-name="Y" unicode="Y" horiz-adv-x="634" 
d="M464 194q-2 0 -46 20v-212h-219l1 209l-80 170l-74 -28l30 75l-59 52l42 14l-41 72l35 -17l-44 121h217l80 -245l74 245h202l-137 -357l64 -17l-78 -36zM416 314l23 58l-47 -30l-31 74l-22 -84l-59 38l39 -76l-59 -20l61 -26l-21 -68l60 38l13 -47l24 62l55 -27l-12 22
q-2 3 -19 35l73 32zM158 462l65 26l-67 13l33 71l-64 -46l-26 79l-18 -81l-50 31l40 -65l-41 -11l56 -48l-24 -64l29 11l34 16l46 -48l-15 69l72 -21z" />
    <glyph glyph-name="Z" unicode="Z" horiz-adv-x="678" 
d="M234 2l-18 -32l-29 33l-30 -36l-12 36h-134q13 19 64 117l-44 58l65 -6l177 314h-245l1 185h389l16 26l16 -26l169 -1l-58 -105l42 -12l-93 -64l14 -107l-47 35l-152 -256h295l1 -159h-387zM535 565l27 43l-69 -17l33 67l-57 -46l-35 69l-25 -90l-86 24l56 -78l-66 -15
l60 -34l-21 -50l56 18v-76l50 69l56 -48l-15 94l84 54zM261 100l42 40l-61 5l20 80l-50 -48l-24 70l-26 -75l-31 48v-67l-76 12l55 -71l-48 -60l84 19l16 -70l28 63l25 -59l20 72l71 -14z" />
    <glyph glyph-name="bracketleft" unicode="[" horiz-adv-x="325" 
d="M225 130l-24 82l54 55l-91 -4q4 6 24 60l-51 -30l-6 57l-26 -79l-55 -16l56 -54l-39 -75l47 24l22 -53l19 69l16 10zM190 283l1 -2l99 -1l-72 -73l24 -82l-6 -24l-67 57l-1 -2l-29 -106l-33 79l-74 -38l56 107l-67 64l73 21l44 138l11 -103l67 38z" />
    <glyph glyph-name="backslash" unicode="\" horiz-adv-x="391" 
d="M256 589q-6 0 -31 1l-23 54l-28 -64l-34 60l-13 -64l-67 48l27 -59l-35 -7q23 -8 33.5 -13t21.5 -21l-31 -26l46 4l11 -54l37 54l39 -73l15 80l42 -33l-10 56l64 19l-75 15zM87 527q-10 9 -100 33l78 16l-41 93l93 -67l16 81l39 -70l30 69l33 -77q15 -1 45 0l-13 -28
l114 -23l-108 -33l15 -80l-54 41l-18 -98l-48 89l-42 -63l-16 76l-81 -7z" />
    <glyph glyph-name="bracketright" unicode="]" horiz-adv-x="515" 
d="M401 527l-92 -96l-65 170l-39 -168l-138 52l94 -122l-99 -73l124 -48l-48 -151l84 85l56 -89q8 61 21 124l2 10l96 -51l-37 112l78 65l-77 25zM430 579l-51 -197l90 -29l-92 -76l47 -138l-113 59q-7 -32 -24 -153l-68 107l-114 -115l62 196l-136 53l109 80l-117 151
l172 -64l46 199l73 -193z" />
    <glyph glyph-name="asciicircum" unicode="^" horiz-adv-x="478" 
d="M181 833h95l113 -100h-96l-63 51l-63 -51h-93z" />
    <glyph glyph-name="underscore" unicode="_" horiz-adv-x="558" 
d="M-1 -86h559v-49h-559v49z" />
    <glyph glyph-name="grave" unicode="`" horiz-adv-x="326" 
d="M162 834h-134l171 -117h69z" />
    <glyph glyph-name="a" unicode="a" horiz-adv-x="748" 
d="M507 1l-22 69l-39 -37v74h-168l-39 -105h-232l129 437l-26 -5l49 76l-75 73l92 1l28 86h73l41 54l9 -54h215l201 -669h-236zM298 591l15 111l-76 -123l-9 66l-47 -70h-76l63 -65l-43 -66l53 31l27 -67l31 79l42 -99v117l70 -52l-19 92l76 61zM369 438l-48 -165h83
q-4 12 -13 37l29 -9zM564 159l67 63l-73 -9l29 73q-24 -8 -65 -30l-12 70l-30 -67l-74 34l42 -69l-4 -5l-72 -7l46 -33l-55 -22l64 -17l29 -11l1 -74l54 61l127 -43z" />
    <glyph glyph-name="b" unicode="b" horiz-adv-x="739" 
d="M658 152q4 -24 -22 -62q-3 -4 2 -30l-26 10l-38 -26l-14 -42l-15 25q-40 -25 -69 -25q-9 0 -35 1h-43l-350 -1v410l-32 -9l33 64l-54 38l68 29l-16 29q-7 11 -34 58l33 -13l-1 63h70l13 22l19 -22h309q72 0 124.5 -45.5t52.5 -116.5q0 -32 -22 -67.5t-51 -54.5
q67 -22 80 -69q2 -7 23 5l-14 -65l56 7l-44 -69l45 -14zM335 502h-57v-25q32 -40 34 -47q-8 1 -22 3q-7 1 -12 -2v-22h66q62 0 62 47q0 24 -25 36q-20 10 -46 10zM632 247l19 65l-68 -74q-15 33 -20 52q-1 4 -4 10l-39 -74l-44 28l2 -51l-69 13l58 -69l-52 -70l95 30l47 -88
l19 86q8 -6 54 -36q-3 23 -8 69l63 42l-41 12l45 62q-20 -2 -57 -7zM235 508q43 31 48 36q-24 9 -72 24l13 69l-65 -54l-28 96l-19 -111l-75 31l44 -73l-60 -24l47 -26l-28 -54l75 21l8 -118l43 94l65 -61l-8 78q0 3 -4 20q50 -9 73 -11q-11 17 -57 63zM367 267
q-26 -1 -87 0v-101h81q45 10 53 30q-6 7 -18 29h31q-20 39 -60 42z" />
    <glyph glyph-name="c" unicode="c" horiz-adv-x="618" 
d="M312 475v1q-31 -17 -49 -55q-17 -34 -17 -72q0 -73 45 -117.5t118 -44.5q60 0 139 60q2 -120 -1 -177q-23 -19 -74 -51q-55 -25 -151 -25q-61 0 -74 12v-41l-44 27l-40 -64l-30 77q-16 -9 -46 -27q6 23 11 70l-94 83q64 5 65 6q-27 42 -45.5 110t-18.5 121q0 76 51.5 158
t119.5 113q-7 17 -18 54q2 -2 31 -19q25 -15 28 -15t17 5.5t18 7.5t7 18l2 12q0 3 2 6q8 -10 20 -34l31 6l15 24q13 -18 20 -18q43 0 103 -13q70 -16 92 -39l-2 -171q-79 40 -119 36q-5 -5 -10 -27q-41 34 -47 34q-5 0 -16 -96q-6 10 -32 55l-4 8l-1 2q-2 1 -2 0zM386 602
l12 25l-28 -2l-10 3l-28 65l-29 -67l-37 65l-14 -72l-80 57l34 -76l-56 -11q52 -13 66 -22q6 -4 10 -10l1 -1l-45 -37l64 5l14 -65l39 58l44 -80l16 88l48 -37l-12 68l86 27zM247 101l43 48l-67 -10l-9 88l-50 -71l-39 40l-5 -65l-88 -8l80 -70l-11 -55l38 23l29 -72l33 57
l38 -25l-8 57l74 48z" />
    <glyph glyph-name="d" unicode="d" horiz-adv-x="734" 
d="M685 384q-4 -96 -20 -150q-22 -72 -78 -130q-102 -105 -276 -103h-184l-20 -46l-18 46l-55 1v99q-4 5 -18 11l-12 5q-2 1 -7 3q13 7 36 23q2 12 0 36l-33 54h30l1 437h345q131 0 243 -127q0 -1 3 0q10 6 32 17q-4 -20 -15 -64l49 1l-28 -62q14 -12 44 -35
q-15 -11 -19 -16zM643 431l31 55h-50l16 55l-56 -34l-20 37l-14 -49l-63 28l34 -74l-109 -7l104 -41l-15 -69l52 43l20 -117l25 108l35 -34v54l57 13zM442 418l-51 28q19 5 25 8q-12 22 -45.5 35t-61.5 11q5 1 -37 1v-279l30 2q-18 -35 -23 -47h69q52 0 84 55q26 45 26 95
q0 59 -16 91zM214 204l-6 65l-24 -22l-16 68l-37 -68l-38 56l-4 -80l-75 -1l50 -64l-44 -41l67 -15l22 -119q10 46 25 98l1 2q2 2 6 9l40 -39l3 53l81 -47l-40 85l62 65z" />
    <glyph glyph-name="e" unicode="e" horiz-adv-x="601" 
d="M21 4l-1 561l-37 19l38 21v66h104l30 37l34 -38l330 1v-151l-184 -1l-3 -12l-52 -2l1 -84h235v-140h-235v-108h43l28 52l29 -44l63 60v-71l80 -1v-90l17 -16l-16 -11l-1 -50h-75l-9 -53l-50 40l-57 -72l-34 85l-56 -16l3 16zM237 574l73 53l-86 -10l3 39l-36 -22l-34 52
l-63 -86l-83 -17l82 -32l-34 -60l62 32l-15 -142q20 35 65 93l73 -39l-33 82l101 3zM446 90l50 45l-67 -12v82l-53 -46l-21 37l-35 -59l-63 31l30 -59h-81l72 -52l-18 -51l48 15l29 -81l54 72l38 -36l1 71l94 17z" />
    <glyph glyph-name="f" unicode="f" horiz-adv-x="606" 
d="M536 557v-65l-38 -1q6 -37 6 -44l-54 53l-44 -66l-37 60q-17 -1 -31 -1q-13 0 -24 1l1 -103l212 -1v-172h-213v-53l51 -6l-49 -36v-124h-129q-13 0 -23 3l-30 -49l-9 49h-52l1 18l-47 -23l49 88l-75 26l72 39l-54 71l54 -11v461h211l-2 12l38 -12h73l17 35l14 -35l108 -1
v-67q12 -4 43 -13zM469 609l21 55l-45 -37l-9 -6l-26 72l-21 -72l-98 52l46 -68l-24 -4l-96 -19l114 -21l-37 -31l45 -7h19l47 -74l46 66l46 -48l-16 68l78 49q-42 9 -90 25zM277 165l-7 67l-60 -55q-4 8 -9 117l-53 -117l-31 83l-13 -70l-64 18l43 -60l-64 -36l74 -21
q-15 -25 -52 -82l79 56l4 -1l14 -89l50 87l113 -57l-58 81l104 67q-58 8 -70 12z" />
    <glyph glyph-name="g" unicode="g" horiz-adv-x="708" 
d="M632 155q-8 -32 -32 -48q15 -35 23 -47q-20 1 -62 5q-6 -39 -15 -102l-46 55l-76 -77l15 67q-8 -6 -34 -11.5t-38 -5.5q-180 3 -271 123q-82 107 -82 294l-25 27l32 13q3 3 16 47l-31 71q17 -3 58 -25q18 20 70 71q77 70 232 70q43 0 104 -15q73 -18 89 -42l1 -172
q-71 54 -150 54q-75 0 -115 -47t-40 -123q0 -56 29 -104q34 -55 86 -55q24 0 52 17t28 40v24h-109v138h299q-2 -67 -2 -118t2 -86l28 -14zM492 170q-47 3 -81 6l39 -49l-136 -77l144 14l-18 -99l56 70l43 -51l13 95l53 -4l-36 60l84 42l-83 10l38 108l-76 -85l-63 54z
M200 459l52 28l-55 6l21 69l-54 -51l-25 82l-32 -82l-88 43l43 -100l-56 -25l70 -37l-30 -68l71 49l32 -75l12 85l67 -28l-45 61h78z" />
    <glyph glyph-name="h" unicode="h" horiz-adv-x="739" 
d="M670 460v-459q-33 -1 -229 0v260l-165 1v-70l35 -15l-33 -21v-154h-98l-19 -29l-17 29h-109l-1 86l-30 7l33 43l1 80l-34 63l36 -19l1 408h235v-235h156v47l-42 61l38 -7l-1 134l242 1v-181l30 -9zM603 494l5 54l-38 -21l-15 50l-38 -78l-111 34l72 -89l-37 -38l54 -11
l3 -84l50 71l34 -79l16 92l8 4l15 1l-4 31l67 48zM218 197l15 39l-49 -20v2l-11 84l-28 -50l-19 43l-32 -80l-74 50l64 -96l-62 -70l101 -12l39 -104l32 121l26 -12l-4 42l83 42z" />
    <glyph glyph-name="i" unicode="i" horiz-adv-x="374" 
d="M306 496v-495h-117l-21 -64l-32 62l-29 -38l-13 41h-21v19l-61 -26l29 75l-51 29l71 36l-10 84l24 -21l-2 473l65 -2l-4 38l42 -37h60l17 30l16 -30h35l-1 -45l36 21l-16 -70l35 -38zM309 574l19 54l-41 -25l-14 31l-20 50l-28 -77l-81 82l35 -107h-80l72 -62l-28 -62
l12 10l45 11l22 -93l25 86l34 -48l18 80l44 33zM149 118l10 93l-59 -57l-38 45l12 -68l-63 -32l45 -24l-29 -63l69 33l16 -62l28 35l28 -59l16 82l52 18l-31 32l41 41z" />
    <glyph glyph-name="j" unicode="j" horiz-adv-x="589" 
d="M442 42q11 -42 19 -66l-57 38l-24 -76l-26 72l-67 -65l-5 57q-30 -4 -68 -8q-95 -9 -169 39q-43 28 -48 46q22 108 37 161q26 -32 70.5 -53.5t85.5 -21.5q48 0 76.5 34.5t26.5 82.5l-1 28q-5 0 -15.5 -5t-16.5 -5q6 27 23 94l-95 26q56 30 72 46l-66 114l96 -42v132h244
v-446q0 -23 -16 -72q-3 -10 -35 -53l65 -14zM409 500l30 70l-73 -43l-13 73q-18 -66 -36 -89q-22 9 -96 45q23 -33 62 -94q-7 -5 -63 -44l77 -16l-22 -86l65 72l26 -55l18 74q33 -26 51 -24q-3 6 -36 63q-5 8 -5 10q3 2 8 4q11 4 34 12q20 8 28 18q-9 6 -55 10zM465 95
l15 58l-70 -52l6 82l-43 -72l-41 74l4 -92l-60 34l28 -65l-92 -9l81 -31l2 -60l62 66l23 -64l18 63l42 -27l-8 45l79 33z" />
    <glyph glyph-name="k" unicode="k" horiz-adv-x="711" 
d="M682 -2q-4 3 -67 4l2 -44l-51 44h-54l-21 -30q-1 0 -8 14t-9 16h-30l-28 55l-58 -1l2 3l8 8l27 29l-115 189l-1 -283h-233v510l-52 45h48v113h85l7 30l15 -30l119 1v-84l36 3q-3 -6 -33 -38v-130l174 248h221l-192 -296l129 -207h52l-35 -39zM195 566l25 56l-47 -27
l-35 82l-24 -93l-54 38l24 -71l-70 -4l75 -53l-42 -84l84 35l17 -63l36 55l33 -45l-9 86l56 -5l-37 46l65 66zM566 157l-7 58l-38 -42l-36 70l-8 -84l-93 53l63 -90l-66 -56h91l19 -79l43 70l69 -75l-15 75l50 15l-46 46l50 41z" />
    <glyph glyph-name="l" unicode="l" horiz-adv-x="597" 
d="M50 187q0 -1 1 -1l1 2q1 14 1 74v406l192 2l11 35l15 -32l48 -2l-1 -57l33 10l-21 -56q27 -9 98 -39q-26 -9 -79 -40l28 -69l-51 13l-1 -25l1 -241h221v-165l-360 -1l-5 -32l-50 32l-63 -57l2 56l-24 1v55l-44 32l49 27q-8 3 -35 74l-4 8l-1 11zM315 565l20 45l-40 -10
l-38 83l-23 -112l-57 25l36 -66l-67 -20l80 -35l-22 -72l54 35l9 -115l27 72l25 50l40 -9l-24 55l72 38zM177 120l11 74l-37 -44l-21 61l-31 -74l-71 52q7 -12 17 -30q1 -3 21 -45l-43 -28l61 -41l-2 -80l49 52l43 -27l6 50q5 -1 10 -1q1 0 9 1q12 1 37 -3l-34 47l58 46z
" />
    <glyph glyph-name="m" unicode="m" horiz-adv-x="1000" 
d="M702 2l-62 267l-4 4l-82 -271h-171l-75 274l-56 -274l-223 1l22 111q-11 -5 -17 -9l-4 -3q-4 -4 -22 -16l1 4q2 5 49 117l-52 77l72 -6q-8 11 -50 95l60 -37l73 334l235 1l83 -306l44 171q-22 30 -55 76l68 -10l27 68h24l9 10l14 -10h71l19 24l18 -24h114l120 -668h-250z
M704 540l80 66l-86 -12l4 89l-66 -80l-36 65l-24 -85l-88 17l68 -93l-37 -94l70 46l2 -7q2 -4 21 -86l39 81l81 -56l-35 91l88 32zM171 304l15 116l-67 -116l-63 40l39 -82l-65 8l41 -64l-26 -64q-3 -5 -17 -33q16 15 24 19q20 12 48 41l-7 -80q48 84 56 89q10 -15 40 -48
l23 -25q12 -13 21 -24q-7 32 -38 117l71 17l-73 45q87 61 95 70q-21 0 -117 -26z" />
    <glyph glyph-name="n" unicode="n" horiz-adv-x="711" 
d="M616 407l1 -404l-216 -1l-155 270v-46l2 -224h-214l-1 172l-44 -3l54 93l-62 68l51 18l-1 320l202 1l175 -297v130l-42 53l44 -9l3 122l202 1l1 -207l47 -23zM586 470l-30 130l-63 -99l-108 44l78 -88l-44 -31l53 -15l-78 -64l95 25l-69 -88l94 62l15 -86l23 74l52 -29
l-31 91l73 43zM146 344l-4 9l20 57l-59 -35l-9 81l-35 -109l-63 -19l61 -58l-48 -92l61 31l27 -66l24 88l9 6l62 -53l2 11l-24 84l62 66z" />
    <glyph glyph-name="o" unicode="o" horiz-adv-x="750" 
d="M589 80q3 -16 9 -47q-11 4 -27 24l-41 -25l-10 -34l-16 20q-50 -34 -205 -30q-136 4 -219 113q-75 99 -75 236q0 52 13 106q16 66 45 94l-65 34l86 24l14 64l31 -41l24 22l41 60l17 -35q19 8 52 18q18 5 93 7q141 3 236 -100q91 -99 96 -242q3 -92 -17 -146.5t-82 -121.5
zM274 587q-9 0 -53 -15l-13 17q-7 58 -20 86q-13 -26 -52 -78q-13 21 -33 39q-5 -15 -11 -51l-63 -16l61 -34l-30 -51l53 20l-15 -86l58 55q16 -47 30 -69q11 39 23 89l20 -3v16l-2 20q44 39 64 61h-17zM360 521q-44 0 -77.5 -28.5t-43.5 -71.5q-7 -31 -7 -73q0 -77 26 -129
q34 -67 104 -67q8 0 48 10l-39 80l78 -29q26 52 27 103q4 205 -116 205zM567 187l29 75l-63 -55q-5 19 -12 84q-22 -36 -64 -94q-24 11 -72 31q17 -31 43 -81l-47 -24l72 -16l-33 -56l60 30l37 -68q2 17 13 87q41 -36 58 -45q-3 6 -9 21q-1 3 -15 53q36 28 48 42
q-19 6 -45 16z" />
    <glyph glyph-name="p" unicode="p" horiz-adv-x="711" 
d="M526 268l40 -6l-78 -41l25 -53l-57 28l-25 -58l-20 42l-71 -59l21 92l-49 -4l25 29h-39l1 -237l-255 1l1 463l-45 18l45 25v43l-36 66l32 -14v67l422 -1q75 0 133 -66.5t58 -142.5q0 -58 -37.5 -111.5t-90.5 -80.5zM360 526q-7 0 -61 -1v-115h67q23 0 42.5 17.5
t19.5 40.5q0 26 -21 42t-47 16zM470 264l13 66l-44 -52l-20 75l-14 -77l-30 44v-47l-79 39l51 -73l-24 -28l46 10l-18 -84l59 56l21 -37l22 50l49 -26l-25 46l63 32zM198 548l1 81l-44 -62l-36 64l-13 -66l-83 38l56 -90l-57 -30l65 -19l-17 -74l48 26l31 -84l24 92l36 -44
l-5 75l58 38l-48 13l57 66z" />
    <glyph glyph-name="q" unicode="q" horiz-adv-x="775" 
d="M657 493q44 -91 44 -175q0 -103 -67 -198l40 -72q-45 -33 -141 -93q-7 1 -18 19l-16 26q-7 9 -13 9q-4 0 -52 -18q-40 -15 -85 -15q-116 0 -179 46l-18 -56l-42 98q-22 -15 -68 -45l1 4q1 4 16 72l-50 36q36 18 41 18q-48 82 -48 154q0 171 101.5 272t273.5 101
q79 0 175 -64l23 35l12 -46q1 -3 3 -10l49 27l-1 -70l41 1h30zM629 541l3 66l-46 -29l-13 50l-34 -54l-55 33q7 -20 16 -56l-56 -19l57 -25l-21 -64l56 23l26 -120l28 129q3 -3 8 -10q7 -10 41 -56l3 82l49 51zM339 507q-41 0 -69 -63q-22 -50 -22 -93q0 -56 18 -108
q25 -73 72 -73q106 0 106 190q0 58 -23 98q-28 49 -82 49zM204 133l45 34l-62 -1l27 52l-60 -36l-15 56l-23 -57l-45 50l5 -82q-33 -10 -46 -21q9 -3 40 -29l-13 -61l57 36l35 -86l23 68l50 -25l-22 65l76 -8z" />
    <glyph glyph-name="r" unicode="r" horiz-adv-x="728" 
d="M550 2l-13 -31l-8 31l-103 -1l-87 240h-52v-239l-232 -1l-1 520l-47 10l47 30v47l-19 23h17v40h88l9 19l14 -19h322q77 0 131 -68q51 -63 52 -142q2 -128 -100 -181l39 -100l52 -11l-33 -34l52 -133h-128zM368 522q-9 0 -86 -1v-107h86q26 0 46 15.5t20 40.5
q0 21 -22 36.5t-44 15.5zM187 610l-38 72l-25 -68q-66 12 -81 12q7 -10 53 -48l-74 -46l81 -8l-28 -72l57 31l21 -88l23 89l54 -36l-24 76l80 23l-67 19q66 50 69 58q-3 3 -101 -14zM581 173l-27 93l-22 -92l-75 42l43 -55l-60 -29l56 -10l-37 -76l60 48l18 -116l32 89
l63 -22q-14 30 -39 74l53 47z" />
    <glyph glyph-name="s" unicode="s" horiz-adv-x="667" 
d="M596 103q-18 -33 -43 -49l2 -40l-33 18l-22 -13q-8 -21 -22 -67q-7 12 -28 56q-110 -23 -162 -22q-156 3 -262 65l33 182q131 -72 199 -72q81 0 81 40q0 30 -29 39q-46 14 -165 57q-44 18 -68 39q-52 47 -52 124q0 59 47 114l6 7q3 3 3 5q-4 9 -12 42l42 -23l51 32l6 36
l21 -23q111 31 188 30q102 -1 219 -47q-15 -118 -21 -173q-22 25 -86 40q-52 13 -98 13q-96 0 -96 -45q0 -49 113 -73q9 -1 27 -5q57 -17 111 -55q67 -47 76 -93q4 -20 4 -39q0 -35 -14 -65l29 -13zM249 555l35 68l-67 -33l-43 68q-6 -31 -15 -89l-81 47l29 -74l-54 -35
l72 -15l-45 -88l77 51l33 -80l14 78l73 -24l-35 74l88 39zM550 145l10 69l-60 -49l-37 61l-12 -64l-56 20l33 -61l-71 -28l71 -17l-25 -61l54 39l19 -73l28 69l44 -23l-7 58l88 40z" />
    <glyph glyph-name="t" unicode="t" horiz-adv-x="635" 
d="M590 583v-90l-105 2l-25 -42l-21 41l-22 1v-493l-241 1l-1 142l-32 -15l14 65l-94 53l100 16l-41 117l54 -37l-1 152h-153v175l274 -1l-9 24l62 -26l61 1l30 55l36 -57l30 32l13 -29h71v-47l32 -9zM521 617l-20 63l-25 -33l-35 58l-35 -72l-104 47q29 -29 71 -76l-83 -43
l89 -11q-32 -91 -26 -99q6 12 77 89l32 -65l26 50l67 -26l-32 52l80 58q-26 2 -82 8zM281 280l56 83l-92 -58l-12 84l-32 -82l-61 52l34 -102l-85 -14l76 -42l-12 -55l43 21l40 -73l21 90l54 -34q1 2 -28 74l56 38z" />
    <glyph glyph-name="u" unicode="u" horiz-adv-x="685" 
d="M610 152l11 -24l-23 -10q-30 -57 -58 -76l-4 -2q-13 -8 -14 -14q-2 -10 -8 -33q-6 8 -12 17q-10 12 -14 11q-85 -30 -203 -30q-90 0 -168 51q-88 58 -88 144v332l-77 36l75 18v99h52l16 43l19 -43h135l1 -433q-2 -86 76 -88q3 -1 7 -1q19 0 33.5 15t14.5 34q0 5 -32 46
l-6 9q13 -4 49 -9q-1 45 -1 426h232v-431l31 -12q-26 -10 -30.5 -22t-13.5 -53zM556 231l28 74l-60 -55l-21 69l-25 -82l-52 54l11 -73l-73 23l62 -71l-60 -53l81 7l-36 -74l61 38l36 -79l11 85l40 -18l-16 54l65 3l-47 47l71 46zM164 587l28 74l-64 -39l-34 78
q0 -13 -18 -83l-45 29q24 -66 26 -78q-23 -6 -83 -18l93 -37l-27 -75q20 15 60 42l23 -90l24 88l72 -28l-54 79l63 57z" />
    <glyph glyph-name="v" unicode="v" horiz-adv-x="709" 
d="M584 480l18 -121l-31 35q-1 7 -120 -389h-206l-62 166l-76 -50l32 106l-89 41l98 21l-161 382h255l106 -318l79 318h87l14 27l13 -27h107l-21 -66l27 9l-48 -79l48 -28zM590 583l27 64l-62 -28l-27 69l-29 -69l-48 21l17 -62l-54 7l1 -1q-1 -1 -1 -2l2 -2q12 -19 50 -55
l-49 -56q34 0 67 1l-16 -97l63 73l63 -68l-19 106l63 25l-43 24l48 72zM274 275l24 42l-48 -16l12 72l-47 -57l-38 56l-15 -91l-82 -17l72 -32l-27 -92l65 48l48 -71l12 76l66 -12l-38 57l52 21z" />
    <glyph glyph-name="w" unicode="w" horiz-adv-x="907" 
d="M722 3l-212 -1l-81 305l-76 -303l-208 -1l-32 182l-7 35q-41 -38 -46 -39l27 105l-64 28l50 41l-61 85l41 -7l-1 2q-6 -14 -41 236l230 -1l64 -289l64 290h138l69 -296l53 296h231zM685 232l48 58l-69 -22l22 64l-53 -34l-20 77l-40 -86l-92 45l65 -89l-67 -39l73 -18
l-29 -81l61 47l40 -81l16 88l51 -52l-13 74l60 18zM200 361l23 88l-53 -54l-34 91l-21 -92l-78 29l53 -68l-52 -38l65 -26l-28 -87l50 51l31 -49l7 48q0 5 5 23l52 -27l-21 62l42 36z" />
    <glyph glyph-name="x" unicode="x" horiz-adv-x="660" 
d="M402 -1l-53 126l-31 -17l23 48l-26 59l-91 -214h-223l135 321l-21 65l-66 -76l20 97l-60 21l69 48l-62 96l39 -11l-42 109l212 -1l81 -220l85 220h198l-125 -300l25 -56l31 21l-19 -59l14 -33l56 -8l-45 -33l89 -203h-213zM482 241l26 76l-59 -47l-24 61l-23 -66l-104 4
l85 -50l-57 -101l77 46l12 -90l35 86l45 -46l-12 70l71 45zM176 498l32 66l-59 -40l-16 71l-38 -56l-62 23l56 -87l-58 -45l48 -15l-19 -80l67 84l44 -88v77l39 -10l-25 45l69 33z" />
    <glyph glyph-name="y" unicode="y" horiz-adv-x="634" 
d="M464 194q-2 0 -46 20v-212h-219l1 209l-80 170l-74 -28l30 75l-59 52l42 14l-41 72l35 -17l-44 121h217l80 -245l74 245h202l-137 -357l64 -17l-78 -36zM416 314l23 58l-47 -30l-31 74l-22 -84l-59 38l39 -76l-59 -20l61 -26l-21 -68l60 38l13 -47l24 62l55 -27l-12 22
q-2 3 -19 35l73 32zM158 462l65 26l-67 13l33 71l-64 -46l-26 79l-18 -81l-50 31l40 -65l-41 -11l56 -48l-24 -64l29 11l34 16l46 -48l-15 69l72 -21z" />
    <glyph glyph-name="z" unicode="z" horiz-adv-x="678" 
d="M234 2l-18 -32l-29 33l-30 -36l-12 36h-134q13 19 64 117l-44 58l65 -6l177 314h-245l1 185h389l16 26l16 -26l169 -1l-58 -105l42 -12l-93 -64l14 -107l-47 35l-152 -256h295l1 -159h-387zM535 565l27 43l-69 -17l33 67l-57 -46l-35 69l-25 -90l-86 24l56 -78l-66 -15
l60 -34l-21 -50l56 18v-76l50 69l56 -48l-15 94l84 54zM261 100l42 40l-61 5l20 80l-50 -48l-24 70l-26 -75l-31 48v-67l-76 12l55 -71l-48 -60l84 19l16 -70l28 63l25 -59l20 72l71 -14z" />
    <glyph glyph-name="braceleft" unicode="{" horiz-adv-x="479" 
d="M318 501l-59 -33l-47 109l-33 -128l-70 50l31 -94l-94 -6l101 -70l-57 -114l116 48l23 -87l50 78l40 -54l-11 112l74 -8l-48 61l85 85l-135 -25zM350 536l-41 -91l155 29l-110 -110l62 -79l-92 10l15 -148l-59 81l-57 -88l-28 102l-136 -56l68 138l-125 88l117 6l-39 120
l90 -64l38 149l58 -134z" />
    <glyph glyph-name="bar" unicode="|" horiz-adv-x="362" 
d="M281 173l-49 -9v75l-48 -42l-19 34l-32 -54l-50 25l26 -51h-70l58 -41l-15 -42l40 13l27 -75l51 67l32 -30l1 60l71 13l-62 21zM331 198l-60 -55l93 -31l-116 -21l-2 -82l-44 42l-57 -77l-32 88l-55 -18l21 60l-87 62h93l-35 69l77 -38l38 64l23 -40l58 50l1 -89z" />
    <glyph glyph-name="braceright" unicode="}" horiz-adv-x="354" 
d="M202 589l-32 -8l-31 68l-20 -98l-45 20l30 -56l-57 -16l68 -30l-18 -58l47 30l8 -94l15 41l28 55l32 -7l-22 49l64 33l-84 33zM229 611l-24 -51l100 -40l-80 -42l27 -63l-49 11l-22 -44l-39 -104l-11 137l-60 -39l26 85l-93 41l78 22l-43 78l69 -30l26 125l45 -98z" />
    <glyph glyph-name="asciitilde" unicode="~" horiz-adv-x="500" 
d="M73 736q2 44 28.5 73t69.5 29q22 0 58.5 -17.5t49.5 -17.5q17 0 38.5 10t22.5 25h45q3 -41 -27.5 -73.5t-71.5 -32.5q-21 0 -58.5 16.5t-57.5 16.5q-46 0 -49 -29h-48z" />
    <glyph glyph-name="Adieresis" unicode="&#xc4;" horiz-adv-x="748" 
d="M439 736q-22 0 -37.5 14t-15.5 36t15.5 36.5t37.5 14.5t37.5 -14.5t15.5 -36.5t-15.5 -36t-37.5 -14zM273 736q-21 0 -36.5 14.5t-15.5 35.5t15.5 36t36.5 15q22 0 37 -14.5t15 -36.5t-15 -36t-37 -14zM507 1l-22 69l-39 -37v74h-168l-39 -105h-232l129 437l-26 -5l49 76
l-75 73l92 1l28 86h73l41 54l9 -54h215l201 -669h-236zM298 591l15 111l-76 -123l-9 66l-47 -70h-76l63 -65l-43 -66l53 31l27 -67l31 79l42 -99v117l70 -52l-19 92l76 61zM369 438l-48 -165h83q-4 12 -13 37l29 -9zM564 159l67 63l-73 -9l29 73q-24 -8 -65 -30l-12 70
l-30 -67l-74 34l42 -69l-4 -5l-72 -7l46 -33l-55 -22l64 -17l29 -11l1 -74l54 61l127 -43z" />
    <glyph glyph-name="Aring" unicode="&#xc5;" horiz-adv-x="748" 
d="M360 708q-34 0 -60 19q-29 21 -29 54q0 34 29 55q26 19 62 19q34 0 61 -20t27 -53q0 -34 -27.5 -54t-62.5 -20zM507 1l-22 69l-39 -37v74h-168l-39 -105h-232l129 437l-26 -5l49 76l-75 73l92 1l28 86h338l201 -669h-236zM361 823q-19 0 -34.5 -11.5t-15.5 -29.5
q0 -19 15 -30.5t34 -11.5t34.5 11.5t15.5 30.5q0 18 -15 29.5t-34 11.5zM298 591l2 69l-62 -82l-10 67l-47 -70h-76l63 -65l-43 -66l53 31l27 -67l31 79l42 -99v117l70 -52l-19 92l76 61zM369 438l-48 -165h83q-4 12 -13 37l29 -9zM564 159l67 63l-73 -9l29 73
q-24 -8 -65 -30l-12 70l-30 -67l-74 34l42 -69l-4 -5l-72 -7l46 -33l-55 -22l64 -17l29 -11l1 -74l54 61l127 -43z" />
    <glyph glyph-name="Ccedilla" unicode="&#xc7;" horiz-adv-x="618" 
d="M312 475v1q-31 -17 -49 -55q-17 -34 -17 -72q0 -73 45 -117.5t118 -44.5q60 0 139 60q2 -120 -1 -177q-22 -18 -72 -50q-53 -24 -144 -26l-35 -56q23 5 39 5q36 0 61.5 -18t25.5 -53q0 -44 -41 -66q-33 -18 -80 -18t-103 17l14 39q38 -17 71 -17q60 0 60 40q0 38 -46 38
q-17 0 -41 -8l-17 18l52 81q-35 3 -43 10v-41l-44 27l-40 -64l-30 77q-16 -9 -46 -27q6 23 11 70l-94 83q64 5 65 6q-27 42 -45.5 110t-18.5 121q0 76 51.5 158t119.5 113q-7 17 -18 54q2 -2 31 -19q25 -15 28 -15t17 5.5t18 7.5t7 18l2 12q0 3 2 6q8 -10 20 -34l31 6l15 24
q13 -18 20 -18q43 0 103 -13q70 -16 92 -39l-2 -171q-79 40 -119 36q-5 -5 -10 -27q-41 34 -47 34q-5 0 -16 -96q-6 10 -32 55l-4 8l-1 2q-2 1 -2 0zM386 602l12 25l-28 -2l-10 3l-28 65l-29 -67l-37 65l-14 -72l-80 57l34 -76l-56 -11q52 -13 66 -22q6 -4 10 -10l1 -1
l-45 -37l64 5l14 -65l39 58l44 -80l16 88l48 -37l-12 68l86 27zM247 101l43 48l-67 -10l-9 88l-50 -71l-39 40l-5 -65l-88 -8l80 -70l-11 -55l38 23l29 -72l33 57l38 -25l-8 57l74 48z" />
    <glyph glyph-name="Eacute" unicode="&#xc9;" horiz-adv-x="618" 
d="M246 719h-65l103 113h129zM39 2l2 2l-1 561l-37 19l38 21v66h498v-151l-184 -1l-3 -12l-52 -2l1 -84h235v-140h-235v-108h43l28 52l29 -44l63 60v-71l80 -1v-90l17 -16l-17 -11v-50h-75l-9 -53l-50 40l-57 -72l-34 85l-56 -16l3 16h-227zM257 574l73 53l-86 -10l3 39
l-56 -37l-29 42l-48 -61l-83 -17l82 -32l-34 -60l62 32l-15 -142q20 35 65 93l73 -39l-33 82l101 3zM466 90l50 45l-67 -12v82l-53 -46l-21 37l-35 -59l-63 31l30 -59h-81l72 -52l-18 -51l48 15l31 -83l52 74l38 -36l1 71l96 15z" />
    <glyph glyph-name="Ntilde" unicode="&#xd1;" horiz-adv-x="711" 
d="M386 729q-20 0 -58 16.5t-58 16.5q-47 0 -50 -29h-46q2 42 28 70.5t68 28.5q22 0 58.5 -17.5t49.5 -17.5q18 0 37 9q24 11 26 26h42q3 -38 -28 -70.5t-69 -32.5zM616 407l1 -404l-216 -1l-155 270v-46l2 -224h-214l-1 172l-44 -3l54 93l-68 70l57 16l-1 321l202 1
l175 -298v130l-42 53l44 -9l1 124h205v-208l47 -23zM586 470l-30 130l-63 -99l-108 44l78 -88l-44 -31l53 -15l-78 -64l95 25l-69 -88l94 62l15 -86l23 74l52 -29l-31 91l73 43zM146 344l-4 9l20 57l-59 -35l-9 81l-35 -109l-63 -19l61 -58l-48 -92l61 31l27 -66l24 88l9 6
l62 -53l2 11l-24 84l62 66z" />
    <glyph glyph-name="Odieresis" unicode="&#xd6;" horiz-adv-x="750" 
d="M449 746q-22 0 -37.5 14t-15.5 36t15.5 36.5t37.5 14.5t37.5 -14.5t15.5 -36.5t-15.5 -36t-37.5 -14zM253 746q-21 0 -36.5 14.5t-15.5 35.5t15.5 36t36.5 15q22 0 37 -14.5t15 -36.5t-15 -36t-37 -14zM589 80q3 -16 9 -47q-11 4 -27 24l-41 -25l-10 -34l-16 20
q-50 -34 -205 -30q-136 4 -219 113q-75 99 -75 236q0 52 13 106q16 66 45 94l-65 34l86 24l14 64l31 -41l24 22l41 60l17 -35q19 8 52 18q18 5 93 7q141 3 236 -100q91 -99 96 -242q3 -92 -17 -146.5t-82 -121.5zM274 587q-9 0 -53 -15l-13 17q-7 58 -20 86q-13 -26 -52 -78
q-13 21 -33 39q-5 -15 -11 -51l-63 -16l61 -34l-30 -51l53 20l-15 -86l58 55q16 -47 30 -69q11 39 23 89l20 -3v16l-2 20q44 39 64 61h-17zM360 521q-44 0 -77.5 -28.5t-43.5 -71.5q-7 -31 -7 -73q0 -77 26 -129q34 -67 104 -67q8 0 48 10l-39 80l78 -29q26 52 27 103
q4 205 -116 205zM567 187l29 75l-63 -55q-5 19 -12 84q-22 -36 -64 -94q-24 11 -72 31q17 -31 43 -81l-47 -24l72 -16l-33 -56l60 30l37 -68q2 17 13 87q41 -36 58 -45q-3 6 -9 21q-1 3 -15 53q36 28 48 42q-19 6 -45 16z" />
    <glyph glyph-name="Udieresis" unicode="&#xdc;" horiz-adv-x="685" 
d="M409 726q-22 0 -37.5 14t-15.5 36t15.5 36.5t37.5 14.5t37.5 -14.5t15.5 -36.5t-15.5 -36t-37.5 -14zM213 726q-21 0 -36.5 14.5t-15.5 35.5t15.5 36t36.5 15q22 0 37 -14.5t15 -36.5t-15 -36t-37 -14zM610 152l11 -24l-23 -10q-30 -57 -58 -76l-4 -2q-13 -8 -14 -14
q-2 -10 -8 -33q-6 8 -12 17q-10 12 -14 11q-85 -30 -203 -30q-90 0 -168 51q-88 58 -88 144v332l-77 36l75 18v99h52l16 43l19 -43h135l1 -433q-2 -86 76 -88q3 -1 7 -1q19 0 33.5 15t14.5 34q0 5 -32 46l-6 9q13 -4 49 -9q-1 45 -1 426h232v-431l31 -12q-26 -10 -30.5 -22
t-13.5 -53zM556 231l28 74l-60 -55l-21 69l-25 -82l-52 54l11 -73l-73 23l62 -71l-60 -53l81 7l-36 -74l61 38l36 -79l11 85l40 -18l-16 54l65 3l-47 47l71 46zM164 587l28 74l-64 -39l-34 78q0 -13 -18 -83l-45 29q24 -66 26 -78q-23 -6 -83 -18l93 -37l-27 -75
q20 15 60 42l23 -90l24 88l72 -28l-54 79l63 57z" />
    <glyph glyph-name="aacute" unicode="&#xe1;" horiz-adv-x="748" 
d="M326 719h-65l103 113h129zM507 1l-22 69l-39 -37v74h-168l-39 -105h-232l129 437l-26 -5l49 76l-75 73l92 1l28 86h338l201 -669h-236zM297 591l-19 68l-41 -80l-13 57l-43 -61h-76l63 -65l-43 -66l53 31l27 -67l31 79l42 -99v117l70 -52l-19 92l76 61zM369 438l-48 -165
h83q-4 12 -13 37l29 -9zM564 159l67 63l-73 -9l29 73q-24 -8 -65 -30l-12 70l-30 -67l-74 34l42 -69l-4 -5l-72 -7l46 -33l-55 -22l64 -17l29 -11l1 -74l54 61l127 -43z" />
    <glyph glyph-name="agrave" unicode="&#xe0;" horiz-adv-x="748" 
d="M410 719l-172 114l134 -1l100 -113h-62zM507 1l-22 69l-39 -37v74h-168l-39 -105h-232l129 437l-26 -5l49 76l-75 73l92 1l28 86h73l41 54l9 -54h215l201 -669h-236zM298 591l15 111l-76 -123l-9 66l-47 -70h-76l63 -65l-43 -66l53 31l27 -67l31 79l42 -99v117l70 -52
l-19 92l76 61zM369 438l-48 -165h83q-4 12 -13 37l29 -9zM564 159l67 63l-73 -9l29 73q-24 -8 -65 -30l-12 70l-30 -67l-74 34l42 -69l-4 -5l-72 -7l46 -33l-55 -22l64 -17l29 -11l1 -74l54 61l127 -43z" />
    <glyph glyph-name="acircumflex" unicode="&#xe2;" horiz-adv-x="748" 
d="M433 724l-63 52l-64 -52h-88l103 97h94l110 -97h-92zM507 1l-22 69l-39 -37v74h-168l-39 -105h-232l129 437l-26 -5l49 76l-75 73l92 1l28 86h338l201 -669h-236zM298 591l-2 72l-59 -85l-9 67l-47 -70h-76l63 -65l-43 -66l53 31l27 -67l31 79l42 -99v117l70 -52l-19 92
l76 61zM369 438l-48 -165h83q-4 12 -13 37l29 -9zM564 159l67 63l-73 -9l29 73q-24 -8 -65 -30l-12 70l-30 -67l-74 34l42 -69l-4 -5l-72 -7l46 -33l-55 -22l64 -17l29 -11l1 -74l54 61l127 -43z" />
    <glyph glyph-name="adieresis" unicode="&#xe4;" horiz-adv-x="748" 
d="M439 736q-22 0 -37.5 14t-15.5 36t15.5 36.5t37.5 14.5t37.5 -14.5t15.5 -36.5t-15.5 -36t-37.5 -14zM273 736q-21 0 -36.5 14.5t-15.5 35.5t15.5 36t36.5 15q22 0 37 -14.5t15 -36.5t-15 -36t-37 -14zM507 1l-22 69l-39 -37v74h-168l-39 -105h-232l129 437l-26 -5l49 76
l-75 73l92 1l28 86h73l41 54l9 -54h215l201 -669h-236zM298 591l15 111l-76 -123l-9 66l-47 -70h-76l63 -65l-43 -66l53 31l27 -67l31 79l42 -99v117l70 -52l-19 92l76 61zM369 438l-48 -165h83q-4 12 -13 37l29 -9zM564 159l67 63l-73 -9l29 73q-24 -8 -65 -30l-12 70
l-30 -67l-74 34l42 -69l-4 -5l-72 -7l46 -33l-55 -22l64 -17l29 -11l1 -74l54 61l127 -43z" />
    <glyph glyph-name="atilde" unicode="&#xe3;" horiz-adv-x="748" 
d="M416 724q-20 0 -58 16.5t-58 16.5q-46 0 -50 -29l-45 -1q2 43 28 71.5t68 28.5q22 0 58 -17.5t50 -17.5q18 0 37 9q23 11 25 26l43 -1q2 -40 -28 -71t-70 -31zM507 1l-22 69l-39 -37v74h-168l-39 -105h-232l129 437l-26 -5l49 76l-75 73l92 1l28 86h338l201 -669h-236z
M298 591l-2 72l-59 -85l-9 67l-47 -70h-76l63 -65l-43 -66l53 31l27 -67l31 79l42 -99v117l70 -52l-19 92l76 61zM369 438l-48 -165h83q-4 12 -13 37l29 -9zM564 159l67 63l-73 -9l29 73q-24 -8 -65 -30l-12 70l-30 -67l-74 34l42 -69l-4 -5l-72 -7l46 -33l-55 -22l64 -17
l29 -11l1 -74l54 61l127 -43z" />
    <glyph glyph-name="aring" unicode="&#xe5;" horiz-adv-x="748" 
d="M360 708q-34 0 -60 19q-29 21 -29 54q0 34 29 55q26 19 62 19q34 0 61 -20t27 -53q0 -34 -27.5 -54t-62.5 -20zM507 1l-22 69l-39 -37v74h-168l-39 -105h-232l129 437l-26 -5l49 76l-75 73l92 1l28 86h338l201 -669h-236zM361 823q-19 0 -34.5 -11.5t-15.5 -29.5
q0 -19 15 -30.5t34 -11.5t34.5 11.5t15.5 30.5q0 18 -15 29.5t-34 11.5zM298 591l2 69l-62 -82l-10 67l-47 -70h-76l63 -65l-43 -66l53 31l27 -67l31 79l42 -99v117l70 -52l-19 92l76 61zM369 438l-48 -165h83q-4 12 -13 37l29 -9zM564 159l67 63l-73 -9l29 73
q-24 -8 -65 -30l-12 70l-30 -67l-74 34l42 -69l-4 -5l-72 -7l46 -33l-55 -22l64 -17l29 -11l1 -74l54 61l127 -43z" />
    <glyph glyph-name="ccedilla" unicode="&#xe7;" horiz-adv-x="618" 
d="M312 475v1q-31 -17 -49 -55q-17 -34 -17 -72q0 -73 45 -117.5t118 -44.5q60 0 139 60q2 -120 -1 -177q-22 -18 -72 -50q-53 -24 -144 -26l-35 -56q23 5 39 5q36 0 61.5 -18t25.5 -53q0 -44 -41 -66q-33 -18 -80 -18t-103 17l14 39q38 -17 71 -17q60 0 60 40q0 38 -46 38
q-17 0 -41 -8l-17 18l52 81q-35 3 -43 10v-41l-44 27l-40 -64l-30 77q-16 -9 -46 -27q6 23 11 70l-94 83q64 5 65 6q-27 42 -45.5 110t-18.5 121q0 76 51.5 158t119.5 113q-7 17 -18 54q2 -2 31 -19q25 -15 28 -15t17 5.5t18 7.5t7 18l2 12q0 3 2 6q8 -10 20 -34l31 6l15 24
q13 -18 20 -18q43 0 103 -13q70 -16 92 -39l-2 -171q-79 40 -119 36q-5 -5 -10 -27q-41 34 -47 34q-5 0 -16 -96q-6 10 -32 55l-4 8l-1 2q-2 1 -2 0zM386 602l12 25l-28 -2l-10 3l-28 65l-29 -67l-37 65l-14 -72l-80 57l34 -76l-56 -11q52 -13 66 -22q6 -4 10 -10l1 -1
l-45 -37l64 5l14 -65l39 58l44 -80l16 88l48 -37l-12 68l86 27zM247 101l43 48l-67 -10l-9 88l-50 -71l-39 40l-5 -65l-88 -8l80 -70l-11 -55l38 23l29 -72l33 57l38 -25l-8 57l74 48z" />
    <glyph glyph-name="eacute" unicode="&#xe9;" horiz-adv-x="618" 
d="M246 719h-65l103 113h129zM39 2l2 2l-1 561l-37 19l38 21v66h498v-151l-184 -1l-3 -12l-52 -2l1 -84h235v-140h-235v-108h43l28 52l29 -44l63 60v-71l80 -1v-90l17 -16l-17 -11v-50h-75l-9 -53l-50 40l-57 -72l-34 85l-56 -16l3 16h-227zM257 574l73 53l-86 -10l3 39
l-56 -37l-29 42l-48 -61l-83 -17l82 -32l-34 -60l62 32l-15 -142q20 35 65 93l73 -39l-33 82l101 3zM466 90l50 45l-67 -12v82l-53 -46l-21 37l-35 -59l-63 31l30 -59h-81l72 -52l-18 -51l48 15l31 -83l52 74l38 -36l1 71l96 15z" />
    <glyph glyph-name="egrave" unicode="&#xe8;" horiz-adv-x="618" 
d="M316 720l-172 114h134l103 -114h-65zM39 2l2 2l-1 561l-37 19l38 21v66h104l30 37l34 -38l330 1v-151l-184 -1l-3 -12l-52 -2l1 -84h235v-140h-235v-108h43l28 52l29 -44l63 60v-71l80 -1v-90l17 -16l-17 -11v-50h-75l-9 -53l-50 40l-57 -72l-34 85l-56 -16l3 16h-227z
M257 574l73 53l-86 -10l3 39l-36 -22l-34 52l-63 -86l-83 -17l82 -32l-34 -60l62 32l-15 -142q20 35 65 93l73 -39l-33 82l101 3zM466 90l50 45l-67 -12v82l-53 -46l-21 37l-35 -59l-63 31l30 -59h-81l72 -52l-18 -51l48 15l31 -83l52 74l38 -36l1 71l96 15z" />
    <glyph glyph-name="ecircumflex" unicode="&#xea;" horiz-adv-x="618" 
d="M343 724l-63 52l-64 -52h-88l103 97h94l110 -97h-92zM39 2l2 2l-1 561l-37 19l38 21v66h498v-151l-184 -1l-3 -12l-52 -2l1 -84h235v-140h-235v-108h43l28 52l29 -44l63 60v-71l80 -1v-90l17 -16l-17 -11v-50h-75l-9 -53l-50 40l-57 -72l-34 85l-56 -16l3 16h-227z
M257 574l73 53l-86 -10l3 39l-56 -37l-30 40l-29 -72l-103 -3l84 -33l-34 -60l62 32l-15 -142q20 35 65 93l73 -39l-33 82l101 3zM466 90l50 45l-67 -12v82l-53 -46l-21 37l-35 -59l-63 31l30 -59h-81l72 -52l-18 -51l48 15l31 -83l52 74l38 -36l1 71l96 15z" />
    <glyph glyph-name="edieresis" unicode="&#xeb;" horiz-adv-x="618" 
d="M369 736q-22 0 -37.5 14t-15.5 36t15.5 36.5t37.5 14.5t37.5 -14.5t15.5 -36.5t-15.5 -36t-37.5 -14zM203 736q-21 0 -36.5 14.5t-15.5 35.5t15.5 36t36.5 15q22 0 37 -14.5t15 -36.5t-15 -36t-37 -14zM39 2l2 2l-1 561l-37 19l38 21v67h104l30 36l34 -37h330v-151
l-184 -1l-3 -12l-52 -2l1 -84h235v-140h-235v-108h43l28 52l29 -44l63 60v-71l80 -1v-90l17 -16l-17 -11v-50h-75l-9 -53l-50 40l-57 -72l-34 85l-56 -16l3 16h-227zM257 574l73 53l-86 -10l3 39l-36 -22l-34 52l-63 -86l-83 -17l82 -32l-34 -60l62 32l-15 -142q20 35 65 93
l73 -39l-33 82l101 3zM466 90l50 45l-67 -12v82l-53 -46l-21 37l-35 -59l-63 31l30 -59h-81l72 -52l-18 -51l48 15l31 -83l52 74l38 -36l1 71l96 15z" />
    <glyph glyph-name="iacute" unicode="&#xed;" horiz-adv-x="374" 
d="M146 719h-65l103 113h129zM306 496v-495h-117l-21 -64l-32 62l-29 -38l-13 41h-21v19l-61 -26l29 75l-51 29l71 36l-10 84l24 -21l-2 473q31 -1 163 -1l17 30l16 -30h35l-1 -45l36 21l-16 -70l35 -38zM309 574l19 54l-41 -25l-14 31l-20 50l-28 -78l-66 55l20 -79h-80
l72 -62l-28 -62l12 10l45 11l22 -93l25 86l34 -48l18 80l44 33zM149 118l10 93l-59 -57l-38 45l12 -68l-63 -32l45 -24l-29 -63l69 33l16 -62l28 35l28 -59l16 82l52 18l-31 32l41 41z" />
    <glyph glyph-name="igrave" unicode="&#xec;" horiz-adv-x="374" 
d="M230 719l-179 112l137 1l107 -113h-65zM306 496v-495h-117l-21 -64l-32 62l-29 -38l-13 41h-21v19l-61 -26l29 75l-51 29l71 36l-10 84l24 -21l-2 473l65 -2l-4 38l42 -37h128l-1 -45l36 21l-16 -70l35 -38zM309 574l19 54l-41 -25q-3 8 -12 21l-2 2q-7 7 -21 41l-27 -60
l-81 82l35 -107h-80l72 -62l-28 -62l12 10l45 11l22 -93l25 86l34 -48l18 80l44 33zM149 118l10 93l-59 -57l-38 45l12 -68l-63 -32l45 -24l-29 -63l69 33l16 -62l28 35l28 -59l16 82l52 18l-31 32l41 41z" />
    <glyph glyph-name="icircumflex" unicode="&#xee;" horiz-adv-x="374" 
d="M253 724l-63 52l-64 -52h-88l103 97h94l110 -97h-92zM306 496v-495h-117l-21 -64l-32 62l-29 -38l-13 41h-21v19l-61 -26l29 75l-51 29l71 36l-10 84l24 -21l-2 473l231 -1l-1 -45l36 21l-16 -70l35 -38zM309 574l19 54l-41 -25q-3 8 -11 20l-2 2q-5 5 -19 38l-30 -57
l-73 48l27 -72h-80l72 -62l-28 -62l12 10l45 11l22 -93l25 86l34 -48l18 80l44 33zM149 118l10 93l-59 -57l-38 45l12 -68l-63 -32l45 -24l-29 -63l69 33l16 -62l28 35l28 -59l16 82l52 18l-31 32l41 41z" />
    <glyph glyph-name="idieresis" unicode="&#xef;" horiz-adv-x="374" 
d="M269 736q-22 0 -37.5 14t-15.5 36t15.5 36.5t37.5 14.5t37.5 -14.5t15.5 -36.5t-15.5 -36t-37.5 -14zM103 736q-21 0 -36.5 14.5t-15.5 35.5t15.5 36t36.5 15q22 0 37 -14.5t15 -36.5t-15 -36t-37 -14zM306 496v-495h-117l-21 -64l-32 62l-29 -38l-13 41h-21v19l-61 -26
l29 75l-51 29l71 36l-10 84l24 -21l-2 473l65 -2l-4 38l42 -37h60l17 30l16 -30h35l-1 -45l36 21l-16 -70l35 -38zM309 574l19 54l-41 -25l-14 31l-20 50l-28 -77l-81 82l35 -107h-80l72 -62l-28 -62l12 10l45 11l22 -93l25 86l34 -48l18 80l44 33zM149 118l10 93l-59 -57
l-38 45l12 -68l-63 -32l45 -24l-29 -63l69 33l16 -62l28 35l28 -59l16 82l52 18l-31 32l41 41z" />
    <glyph glyph-name="ntilde" unicode="&#xf1;" horiz-adv-x="711" 
d="M386 729q-20 0 -58 16.5t-58 16.5q-47 0 -50 -29h-46q2 42 28 70.5t68 28.5q22 0 58.5 -17.5t49.5 -17.5q18 0 37 9q24 11 26 26h42q3 -38 -28 -70.5t-69 -32.5zM616 407l1 -404l-216 -1l-155 270v-46l2 -224h-214l-1 172l-44 -3l54 93l-68 70l57 16l-1 321l202 1
l175 -298v130l-42 53l44 -9l1 124h205v-208l47 -23zM586 470l-30 130l-63 -99l-108 44l78 -88l-44 -31l53 -15l-78 -64l95 25l-69 -88l94 62l15 -86l23 74l52 -29l-31 91l73 43zM146 344l-4 9l20 57l-59 -35l-9 81l-35 -109l-63 -19l61 -58l-48 -92l61 31l27 -66l24 88l9 6
l62 -53l2 11l-24 84l62 66z" />
    <glyph glyph-name="oacute" unicode="&#xf3;" horiz-adv-x="750" 
d="M326 739h-65l103 113h129zM589 80q3 -16 9 -47q-11 4 -27 24l-41 -25l-10 -34l-16 20q-50 -34 -205 -30q-136 4 -219 113q-75 99 -75 236q0 52 13 106q16 66 45 94l-65 34l86 24l14 64l31 -41l24 22l41 60l17 -35q19 8 52 18q18 5 93 7q141 3 236 -100q91 -99 96 -242
q3 -92 -17 -146.5t-82 -121.5zM274 587q-9 0 -53 -15l-13 17q-7 58 -20 86q-13 -26 -52 -78q-13 21 -33 39q-5 -15 -11 -51l-63 -16l61 -34l-30 -51l53 20l-15 -86l58 55q16 -47 30 -69q11 39 23 89l20 -3v16l-2 20q44 39 64 61h-17zM360 521q-44 0 -77.5 -28.5t-43.5 -71.5
q-7 -31 -7 -73q0 -77 26 -129q34 -67 104 -67q8 0 48 10l-39 80l78 -29q26 52 27 103q4 205 -116 205zM567 187l29 75l-63 -55q-5 19 -12 84q-22 -36 -64 -94q-24 11 -72 31q17 -31 43 -81l-47 -24l72 -16l-33 -56l60 30l37 -68q2 17 13 87q41 -36 58 -45q-3 6 -9 21
q-1 3 -15 53q36 28 48 42q-19 6 -45 16z" />
    <glyph glyph-name="ograve" unicode="&#xf2;" horiz-adv-x="750" 
d="M380 729l-166 112l128 1l103 -113h-65zM589 80q3 -16 9 -47q-11 4 -27 24l-41 -25l-10 -34l-16 20q-50 -34 -205 -30q-136 4 -219 113q-75 99 -75 236q0 52 13 106q16 66 45 94l-65 34l86 24l14 64l31 -41l24 22l41 60l17 -35q19 8 52 18q18 5 93 7q141 3 236 -100
q91 -99 96 -242q3 -92 -17 -146.5t-82 -121.5zM274 587q-9 0 -53 -15l-13 17q-7 58 -20 86q-13 -26 -52 -78q-13 21 -33 39q-5 -15 -11 -51l-63 -16l61 -34l-30 -51l53 20l-15 -86l58 55q16 -47 30 -69q11 39 23 89l20 -3v16l-2 20q44 39 64 61h-17zM360 521
q-44 0 -77.5 -28.5t-43.5 -71.5q-7 -31 -7 -73q0 -77 26 -129q34 -67 104 -67q8 0 48 10l-39 80l78 -29q26 52 27 103q4 205 -116 205zM567 187l29 75l-63 -55q-5 19 -12 84q-22 -36 -64 -94q-24 11 -72 31q17 -31 43 -81l-47 -24l72 -16l-33 -56l60 30l37 -68q2 17 13 87
q41 -36 58 -45q-3 6 -9 21q-1 3 -15 53q36 28 48 42q-19 6 -45 16z" />
    <glyph glyph-name="ocircumflex" unicode="&#xf4;" horiz-adv-x="750" 
d="M413 734l-63 52l-64 -52h-88l103 97h94l110 -97h-92zM589 80q3 -16 9 -47q-11 4 -27 24l-41 -25l-10 -34l-16 20q-50 -34 -205 -30q-136 4 -219 113q-75 99 -75 236q0 52 13 106q16 66 45 94l-65 34l86 24l14 64l31 -41l24 22l28 20l32 12q39 15 71 18q12 1 75 2
q113 1 213 -91q111 -103 116 -253q3 -91 -17 -146t-82 -122zM360 521q-44 0 -77.5 -28.5t-43.5 -71.5q-7 -31 -7 -73q0 -77 26 -129q34 -67 104 -67q8 0 48 10l-39 80l78 -29q26 52 27 103q4 205 -116 205zM274 587q-9 0 -53 -15l-13 17q-6 28 -19 55q-13 -25 -52 -47
q-14 21 -34 39q-5 -15 -11 -51l-63 -16l61 -34l-30 -51l53 20l-15 -86l58 55q16 -47 30 -69q11 39 23 89l20 -3v16l-2 20q44 39 64 61h-17zM567 187l29 75l-63 -55q-5 19 -12 84q-22 -36 -64 -94q-24 11 -72 31q17 -31 43 -81l-47 -24l72 -16l-33 -56l60 30l37 -68
q2 17 13 87q41 -36 58 -45q-3 6 -9 21q-1 3 -15 53q36 28 48 42q-19 6 -45 16z" />
    <glyph glyph-name="odieresis" unicode="&#xf6;" horiz-adv-x="750" 
d="M449 746q-22 0 -37.5 14t-15.5 36t15.5 36.5t37.5 14.5t37.5 -14.5t15.5 -36.5t-15.5 -36t-37.5 -14zM253 746q-21 0 -36.5 14.5t-15.5 35.5t15.5 36t36.5 15q22 0 37 -14.5t15 -36.5t-15 -36t-37 -14zM589 80q3 -16 9 -47q-11 4 -27 24l-41 -25l-10 -34l-16 20
q-50 -34 -205 -30q-136 4 -219 113q-75 99 -75 236q0 52 13 106q16 66 45 94l-65 34l86 24l14 64l31 -41l24 22l41 60l17 -35q19 8 52 18q18 5 93 7q141 3 236 -100q91 -99 96 -242q3 -92 -17 -146.5t-82 -121.5zM274 587q-9 0 -53 -15l-13 17q-7 58 -20 86q-13 -26 -52 -78
q-13 21 -33 39q-5 -15 -11 -51l-63 -16l61 -34l-30 -51l53 20l-15 -86l58 55q16 -47 30 -69q11 39 23 89l20 -3v16l-2 20q44 39 64 61h-17zM360 521q-44 0 -77.5 -28.5t-43.5 -71.5q-7 -31 -7 -73q0 -77 26 -129q34 -67 104 -67q8 0 48 10l-39 80l78 -29q26 52 27 103
q4 205 -116 205zM567 187l29 75l-63 -55q-5 19 -12 84q-22 -36 -64 -94q-24 11 -72 31q17 -31 43 -81l-47 -24l72 -16l-33 -56l60 30l37 -68q2 17 13 87q41 -36 58 -45q-3 6 -9 21q-1 3 -15 53q36 28 48 42q-19 6 -45 16z" />
    <glyph glyph-name="otilde" unicode="&#xf5;" horiz-adv-x="750" 
d="M406 744q-20 0 -58 16.5t-58 16.5q-46 0 -50 -29l-45 -1q2 43 28 71.5t68 28.5q22 0 58 -17.5t50 -17.5q18 0 37 9q23 11 25 26l43 -1q2 -40 -28 -71t-70 -31zM589 80q3 -16 9 -47q-11 4 -27 24l-41 -25l-10 -34l-16 20q-50 -34 -205 -30q-136 4 -219 113q-75 99 -75 236
q0 52 13 106q16 66 45 94l-65 34l86 24l14 64l31 -41l24 22l41 60l17 -35q19 8 52 18q18 5 93 7q141 3 236 -100q91 -99 96 -242q3 -92 -17 -146.5t-82 -121.5zM274 587q-9 0 -53 -15l-13 17q-7 58 -20 86q-13 -26 -52 -78q-13 21 -33 39q-5 -15 -11 -51l-63 -16l61 -34
l-30 -51l53 20l-15 -86l58 55q16 -47 30 -69q11 39 23 89l20 -3v16l-2 20q44 39 64 61h-17zM360 521q-44 0 -77.5 -28.5t-43.5 -71.5q-7 -31 -7 -73q0 -77 26 -129q34 -67 104 -67q8 0 48 10l-39 80l78 -29q26 52 27 103q4 205 -116 205zM567 187l29 75l-63 -55
q-5 19 -12 84q-22 -36 -64 -94q-24 11 -72 31q17 -31 43 -81l-47 -24l72 -16l-33 -56l60 30l37 -68q2 17 13 87q41 -36 58 -45q-3 6 -9 21q-1 3 -15 53q36 28 48 42q-19 6 -45 16z" />
    <glyph glyph-name="uacute" unicode="&#xfa;" horiz-adv-x="685" 
d="M276 719h-65l103 113h129zM610 152l11 -24l-23 -10q-30 -57 -58 -76l-4 -2q-13 -8 -14 -14q-2 -10 -8 -33q-6 8 -12 17q-10 12 -14 11q-85 -30 -203 -30q-90 0 -168 51q-88 58 -88 144v332l-77 36l75 18v99h52l16 43l19 -43h135l1 -433q-2 -86 76 -88q3 -1 7 -1
q19 0 33.5 15t14.5 34q0 5 -32 46l-6 9q13 -4 49 -9q-1 45 -1 426h232v-431l31 -12q-26 -10 -30.5 -22t-13.5 -53zM556 231l28 74l-60 -55l-21 69l-25 -82l-52 54l11 -73l-73 23l62 -71l-60 -53l81 7l-36 -74l61 38l36 -79l11 85l40 -18l-16 54l65 3l-47 47l71 46zM164 587
l28 74l-64 -39l-34 78q0 -13 -18 -83l-45 29q24 -66 26 -78q-23 -6 -83 -18l93 -37l-27 -75q20 15 60 42l23 -90l24 88l72 -28l-54 79l63 57z" />
    <glyph glyph-name="ugrave" unicode="&#xf9;" horiz-adv-x="685" 
d="M380 719l-172 114l134 -1l103 -113h-65zM610 152l11 -24l-23 -10q-30 -57 -58 -76l-4 -2q-13 -8 -14 -14q-2 -10 -8 -33q-6 8 -12 17q-10 12 -14 11q-85 -30 -203 -30q-90 0 -168 51q-88 58 -88 144v332l-77 36l75 18v99h52l16 43l19 -43h135l1 -433q-2 -86 76 -88
q3 -1 7 -1q19 0 33.5 15t14.5 34q0 5 -32 46l-6 9q13 -4 49 -9q-1 45 -1 426h232v-431l31 -12q-26 -10 -30.5 -22t-13.5 -53zM556 231l28 74l-60 -55l-21 69l-25 -82l-52 54l11 -73l-73 23l62 -71l-60 -53l81 7l-36 -74l61 38l36 -79l11 85l40 -18l-16 54l65 3l-47 47l71 46
zM164 587l28 74l-64 -39l-34 78q0 -13 -18 -83l-45 29q24 -66 26 -78q-23 -6 -83 -18l93 -37l-27 -75q20 15 60 42l23 -90l24 88l72 -28l-54 79l63 57z" />
    <glyph glyph-name="ucircumflex" unicode="&#xfb;" horiz-adv-x="685" 
d="M383 721l-63 52l-64 -52h-88l103 97h94l110 -97h-92zM610 152l11 -24l-23 -10q-30 -57 -58 -76l-4 -2q-13 -8 -14 -14q-2 -10 -8 -33q-6 8 -12 17q-10 12 -14 11q-85 -30 -203 -30q-90 0 -168 51q-88 58 -88 144v332l-77 36l75 18v99h52l16 43l19 -43h135l1 -433
q-2 -86 76 -88q3 -1 7 -1q19 0 33.5 15t14.5 34q0 5 -32 46l-6 9q13 -4 49 -9q-1 45 -1 426h232v-431l31 -12q-26 -10 -30.5 -22t-13.5 -53zM556 231l28 74l-60 -55l-21 69l-25 -82l-52 54l11 -73l-73 23l62 -71l-60 -53l81 7l-36 -74l61 38l36 -79l11 85l40 -18l-16 54
l65 3l-47 47l71 46zM164 587l28 74l-64 -39l-34 78q0 -13 -18 -83l-45 29q24 -66 26 -78q-23 -6 -83 -18l93 -37l-27 -75q20 15 60 42l23 -90l24 88l72 -28l-54 79l63 57z" />
    <glyph glyph-name="udieresis" unicode="&#xfc;" horiz-adv-x="685" 
d="M409 726q-22 0 -37.5 14t-15.5 36t15.5 36.5t37.5 14.5t37.5 -14.5t15.5 -36.5t-15.5 -36t-37.5 -14zM213 726q-21 0 -36.5 14.5t-15.5 35.5t15.5 36t36.5 15q22 0 37 -14.5t15 -36.5t-15 -36t-37 -14zM610 152l11 -24l-23 -10q-30 -57 -58 -76l-4 -2q-13 -8 -14 -14
q-2 -10 -8 -33q-6 8 -12 17q-10 12 -14 11q-85 -30 -203 -30q-90 0 -168 51q-88 58 -88 144v332l-77 36l75 18v99h52l16 43l19 -43h135l1 -433q-2 -86 76 -88q3 -1 7 -1q19 0 33.5 15t14.5 34q0 5 -32 46l-6 9q13 -4 49 -9q-1 45 -1 426h232v-431l31 -12q-26 -10 -30.5 -22
t-13.5 -53zM556 231l28 74l-60 -55l-21 69l-25 -82l-52 54l11 -73l-73 23l62 -71l-60 -53l81 7l-36 -74l61 38l36 -79l11 85l40 -18l-16 54l65 3l-47 47l71 46zM164 587l28 74l-64 -39l-34 78q0 -13 -18 -83l-45 29q24 -66 26 -78q-23 -6 -83 -18l93 -37l-27 -75
q20 15 60 42l23 -90l24 88l72 -28l-54 79l63 57z" />
    <glyph glyph-name="dagger" unicode="&#x2020;" horiz-adv-x="553" 
d="M340 398v-493h-126v493h-163v97h163v172h126v-172h164v-97h-164z" />
    <glyph glyph-name="degree" unicode="&#xb0;" horiz-adv-x="400" 
d="M203 686q64 0 105.5 -44t41.5 -109t-43 -109t-108 -44q-64 0 -106.5 44.5t-42.5 109.5q0 64 44.5 108t108.5 44zM202 629q-40 1 -68 -27t-28 -69q0 -39 27.5 -67t66.5 -28q40 0 66 27.5t26 67.5q0 39 -25.5 67.5t-64.5 28.5z" />
    <glyph glyph-name="cent" unicode="&#xa2;" horiz-adv-x="477" 
d="M307 172v-83h-101v83l-52 20l-18 -45l-24 76l-52 -50v83l-80 21q51 16 72 32q-19 66 -16 103q5 72 48 123q45 55 114 65l1 70h108v-68q41 -11 54 -16q20 -8 50 -30v-67v-59q-64 41 -115 41q-42 0 -69 -21q-31 -23 -31 -63q0 -14 8 -30t21 -16q11 0 34 3q-15 -20 -19 -27
q14 -11 54 -9q33 2 66 16l60 26q1 -18 -1 -136q-6 -21 -112 -42zM154 235q1 0 35 -10t41 -11l-45 60l62 64l-89 -25q0 17 31 61l-55 -29l-14 58l-24 -67l-30 29v-62l-56 -24l61 -15v-69l45 46l20 -62l3 2q-2 2 13 48z" />
    <glyph glyph-name="sterling" unicode="&#xa3;" horiz-adv-x="604" 
d="M19 2v89l46 47q34 44 34 132q0 22 -3 44h-77v89h64l-43 79q-11 20 -11 50q0 80 62 116q75 44 207 44q51 0 103.5 -23.5t80 -62t28.5 -103.5l-157 1q-2 60 -59 69q-23 4 -43 -15.5t-20 -42.5q0 -13 4 -25l28 -87h102v-89h-92q1 -5 -10 -57q-2 -10 -2 -14l3 1q-2 3 37 28
q2 -66 -0.5 -67.5t-2.5 -2.5t1 -1q4 -4 101 -28l-74 -44h221v-127h-528zM280 185l10 64q-21 -14 -60 -44l-37 61l-12 -64l-56 20l33 -61l-71 -28l71 -17l-25 -61l54 39l19 -73l28 69l44 -23l-7 59l34 17q9 4 60 25z" />
    <glyph glyph-name="section" unicode="&#xa7;" horiz-adv-x="17" 
 />
    <glyph glyph-name="bullet" unicode="&#x2022;" horiz-adv-x="667" 
d="M336 478q57 0 97 -41t40 -98q0 -58 -40.5 -98.5t-98.5 -40.5q-57 0 -97.5 40.5t-40.5 97.5q0 59 40.5 99.5t99.5 40.5z" />
    <glyph glyph-name="paragraph" unicode="&#xb6;" horiz-adv-x="599" 
d="M254 257h-6q-222 0 -222 202q0 98 51 153t148 55h339v-85h-69v-593h69v-84h-397v84h87v268zM350 582v-593h50v593h-50z" />
    <glyph glyph-name="germandbls" unicode="&#xdf;" horiz-adv-x="22" 
 />
    <glyph glyph-name="registered" unicode="&#xae;" horiz-adv-x="430" 
d="M259 446h-57l-26 64h-21v-64h-49v171h74q74 0 74 -52q0 -28 -32 -47zM204 562q0 25 -31 25h-18v-51h27q22 0 22 26zM176 357q-72 0 -122.5 51t-50.5 123q0 74 51 124t125 50q70 0 119.5 -51.5t49.5 -122.5q0 -72 -50 -123t-122 -51zM177 676q-60 0 -101 -42.5t-41 -102.5
q0 -58 41.5 -101.5t99.5 -43.5q60 0 100 42.5t40 102.5q0 59 -40 102t-99 43z" />
    <glyph glyph-name="copyright" unicode="&#xa9;" horiz-adv-x="755" 
d="M343 -7q-141 0 -240 100t-99 241q0 142 99.5 241t241.5 99q138 0 236.5 -101t98.5 -240q0 -141 -98.5 -240.5t-238.5 -99.5zM53 336q0 -123 84.5 -211t206.5 -88t204 85.5t82 208.5q0 121 -83 210t-203 89q-123 0 -207 -85.5t-84 -208.5zM344 144q-85 0 -132 57
q-45 54 -45 140q0 80 51.5 137.5t131.5 57.5q51 0 91 -31t56 -80l-92 -33q-13 54 -58 54q-72 0 -72 -93q0 -47 15 -79q19 -44 60 -44q55 0 64 66l94 -23q-12 -59 -57.5 -94t-106.5 -35z" />
    <glyph glyph-name="trademark" unicode="&#x2122;" horiz-adv-x="651" 
d="M503 433v184l-67 -184h-51l-68 183v-183h-64v240h96l61 -146l63 146h94v-240h-64zM144 628v-195h-66v195h-69v45h204v-45h-69z" />
    <glyph glyph-name="acute" unicode="&#xb4;" horiz-adv-x="326" 
d="M133 834h135l-172 -117h-68z" />
    <glyph glyph-name="dieresis" unicode="&#xa8;" horiz-adv-x="533" 
d="M100 786q0 22 15.5 37t37.5 15t38 -15t16 -37t-16 -37t-38 -15t-37.5 15t-15.5 37zM294 786q0 23 16 37.5t39 14.5t39 -14.5t16 -37.5q0 -22 -16.5 -37t-38.5 -15t-38.5 15t-16.5 37z" />
    <glyph glyph-name="AE" unicode="&#xc6;" horiz-adv-x="1040" 
d="M977 43l2 -42h-76l-9 -52l-50 40l-55 -75l-36 88l-56 -16l3 15h-202v106h-199l-70 -106h-231l258 442h-45l79 69l-49 71l93 1l56 89h73l48 45l6 -46h457l1 -148h-242l2 -104h235v-140h-235v-108h43l28 53l29 -44l63 59l2 -73l78 2v-90l19 -19zM458 591l46 104l-110 -116
l9 66l-67 -70h-75l42 -63l-69 -67l71 30l8 -67l53 79l13 -98l34 116l55 -52l7 92l95 61zM900 90l50 45l-66 -12l-1 82l-53 -46l-21 37l-35 -59l-63 31l30 -59h-81l72 -52l-16 -46l4 -3l42 13l31 -83l52 74l38 -36l1 71l96 15zM495 455l-105 -182l103 1q3 13 2 181z" />
    <glyph glyph-name="Oslash" unicode="&#xd8;" horiz-adv-x="756" 
d="M589 80l9 -46l-27 23l-41 -25l-10 -34l-16 20q-45 -31 -168 -31q-94 0 -167 38l-48 -73h-61l66 101q-121 96 -121 284q0 53 13 106q16 65 45 94l-65 34l86 24l9 63l43 -37q22 28 58 79l18 -35q86 26 119 26q106 0 188 -45l44 67h61l-63 -95q128 -100 128 -294
q0 -82 -21 -132t-79 -112zM360 521q-68 0 -101 -56q-27 -45 -27 -117q0 -59 18 -108l172 260q-26 21 -62 21zM249 593q-31 5 -35 5q-7 26 -26 77q-14 -28 -52 -78q-12 20 -33 39q-5 -17 -11 -51l-63 -16l61 -34l-30 -51l53 20l-15 -86l58 55q15 -45 30 -69l23 89l34 -10
q1 9 -4 28q-6 25 -7 29q20 14 59 47q-5 0 -42 6zM454 456l-176 -266q33 -38 84 -38q9 0 48 10l-39 80l78 -29q27 53 27 114q0 77 -22 129zM567 187l29 75l-64 -55q-3 11 -11 84q-20 -33 -64 -94q-24 11 -72 31l43 -81l-47 -24l72 -16l-33 -56l60 30l37 -68q4 35 13 87
q18 -17 58 -45q-11 25 -24 74q17 13 48 42q-21 7 -45 16z" />
    <glyph glyph-name="yen" unicode="&#xa5;" horiz-adv-x="621" 
d="M426 403h81v-75h-117l-37 -75h141v-75h-140l1 -176h-155v176h-140v75h141l-35 75h-119v75h83l-129 269l88 1l-5 66l71 -42l56 42l5 -76l71 -31l-74 -45l68 -149l108 234h171zM201 653l-1 63l-41 -43l-59 46l13 -56l-49 -13l48 -23l-52 -59l66 28l-11 -109l50 73l53 -36
l-30 67l70 40z" />
    <glyph glyph-name="mu" unicode="&#xb5;" horiz-adv-x="613" 
d="M557 115v-113q-11 -1 -21 0h-65l-8 -60q-2 1 -29 20q-17 13 -31 13h-1l-3 -2q-25 -14 -75 -40v69h-267v203l-51 -31v79l50 31l-1 388h279v-68l1 -147l151 95v-79l-151 -94v-199l22 -10l46 92l23 -68l56 58v-83h75v-22h19zM472 128v99l-46 -58l-24 69l-31 -67
q-3 -4 -9 -19l-110 81l48 -89q5 -9 16 -33l-67 -64l88 -12v-82l65 36l53 -34l7 44q0 4 1 17l81 -1l-52 58l71 63z" />
    <glyph glyph-name="mu" unicode="&#x3bc;" horiz-adv-x="613" 
d="M557 115v-113q-11 -1 -21 0h-65l-8 -60q-2 1 -29 20q-17 13 -31 13h-1l-3 -2q-25 -14 -75 -40v69h-267v203l-51 -31v79l50 31l-1 388h279v-68l1 -147l151 95v-79l-151 -94v-199l22 -10l46 92l23 -68l56 58v-83h75v-22h19zM472 128v99l-46 -58l-24 69l-31 -67
q-3 -4 -9 -19l-110 81l48 -89q5 -9 16 -33l-67 -64l88 -12v-82l65 36l53 -34l7 44q0 4 1 17l81 -1l-52 58l71 63z" />
    <glyph glyph-name="ordfeminine" unicode="&#xaa;" horiz-adv-x="678" 
d="M398 730h-118l-95 104h94l64 -57l63 57h89zM234 2l-18 -32l-29 33l-30 -36l-12 36h-134q13 19 64 117l-44 58l65 -6l177 314h-245l1 185l389 2l16 26l16 -26l169 -1l-58 -107l42 -12l-93 -64l14 -107l-47 35l-152 -256h295l1 -159h-387zM535 565l27 43l-69 -17l33 67
l-57 -46l-35 71l-25 -92l-86 24l56 -78l-66 -15l60 -34l-21 -50l56 18v-76l50 69l56 -48l-15 94l84 54zM261 100l42 40l-61 5l20 80l-50 -48l-24 70l-26 -75l-31 48v-67l-76 12l55 -71l-48 -60l84 19l16 -70l28 63l25 -59l20 72l71 -14z" />
    <glyph glyph-name="ordmasculine" unicode="&#xba;" horiz-adv-x="678" 
d="M398 731h-118l-95 104h94l64 -57l63 57h89zM234 2l-18 -32l-29 33l-30 -36l-12 36h-134q13 19 64 117l-44 58l65 -6l177 314h-245l1 185l389 2l16 26l16 -26l169 -1l-58 -107l42 -12l-93 -64l14 -107l-47 35l-152 -256h295l1 -159h-387zM535 565l27 43l-69 -17l33 67
l-57 -46l-35 71l-25 -92l-86 24l56 -78l-66 -15l60 -34l-21 -50l56 18v-76l50 69l56 -48l-15 94l84 54zM261 100l42 40l-61 5l20 80l-50 -48l-24 70l-26 -75l-31 48v-67l-76 12l55 -71l-48 -60l84 19l16 -70l28 63l25 -59l20 72l71 -14z" />
    <glyph glyph-name="ae" unicode="&#xe6;" horiz-adv-x="1040" 
d="M978 50l1 -49h-76l-9 -52l-50 40l-55 -75l-36 88l-56 -16l3 15h-202v106h-199l-70 -106h-231l258 442h-45l79 69l-49 71l93 1l53 86h73l47 44l3 -44l464 1l1 -147h-242l2 -103h167q13 0 68 -1v-140h-235v-108h43l28 53l29 -44l63 59v-71h80v-90l19 -19zM458 591l46 104
l-110 -116l9 66l-67 -70h-75l42 -63l-69 -67l71 30l8 -67l53 79l13 -98l34 116l55 -52l7 92l95 61zM900 90l50 45l-66 -12l-1 82l-53 -46l-21 37l-35 -59l-63 31l30 -59h-81l72 -52l-16 -46l4 -3l42 13l31 -83l52 74l38 -36l1 71l96 15zM495 455l-105 -182l103 1q3 13 2 181
z" />
    <glyph glyph-name="oslash" unicode="&#xf8;" horiz-adv-x="756" 
d="M589 80l9 -46l-27 23l-41 -25l-10 -34l-16 20q-45 -31 -168 -31q-94 0 -167 38l-48 -73h-61l66 101q-121 96 -121 284q0 53 13 106q16 65 45 94l-65 34l86 24l9 63l43 -37q22 28 58 79l18 -35q86 26 119 26q106 0 188 -45l44 67h61l-63 -95q128 -100 128 -294
q0 -82 -21 -132t-79 -112zM360 521q-68 0 -101 -56q-27 -45 -27 -117q0 -59 18 -108l172 260q-26 21 -62 21zM249 593q-31 5 -35 5q-7 26 -26 77q-14 -28 -52 -78q-12 20 -33 39q-5 -17 -11 -51l-63 -16l61 -34l-30 -51l53 20l-15 -86l58 55q15 -45 30 -69l23 89l34 -10
q1 9 -4 28q-6 25 -7 29q20 14 59 47q-5 0 -42 6zM454 456l-176 -266q33 -38 84 -38q9 0 48 10l-39 80l78 -29q27 53 27 114q0 77 -22 129zM567 187l29 75l-64 -55q-3 11 -11 84q-20 -33 -64 -94q-24 11 -72 31l43 -81l-47 -24l72 -16l-33 -56l60 30l37 -68q4 35 13 87
q18 -17 58 -45q-11 25 -24 74q17 13 48 42q-21 7 -45 16z" />
    <glyph glyph-name="questiondown" unicode="&#xbf;" horiz-adv-x="583" 
d="M398 561q-2 -9 -19 -42l51 -22l-39 -36l25 -73q-12 6 -36 21q-33 -62 -99 -62q-45 0 -79 27.5t-34 71.5q0 40 28 68.5t68 27.5l1 15l43 -22q22 61 24 61q5 -7 22 -52zM367 -120q-58 -16 -100 -18q-59 -2 -103 15q-1 1 -3 0q-3 -2 -24 -43l-18 71q-6 0 -56 -37l20 70
q-70 12 -84 18q10 4 42 19l16 8q-8 18 -17 74q-2 63 32.5 107.5t96.5 59.5q8 2 24 7l2 78l197 -1q3 -52 3 -93q0 -40 -3 -67q-49 -7 -50 -7q-23 -6 -45 -27q-31 -29 -30 -51q1 -25 21 -43t45 -17q64 4 104 48q4 4 15 17q52 -97 48 -101q-21 -25 -61 -51.5t-72 -35.5z
M369 515l16 33l-35 -18l-15 45l-21 -54l-43 27l30 -46l-50 -29l57 -6l-35 -40l49 14l11 -53l24 53l46 -38l-23 61l36 29zM205 -20q11 10 31 33q-7 3 -33 2q-3 0 -8.5 1t-8.5 1q0 14 -4 42q-9 -8 -25 -22q-5 21 -17 65h-4q-7 -26 -23 -78q-11 6 -60 19q35 -51 38 -61
q-15 -9 -72 -23l75 -14l-16 -54q16 11 48 30l12 -66h3q0 13 31 71q4 -4 23 -27q5 -6 10 -8q3 10 -2 28l-4 15q-1 7 -2 11q22 0 52 1q-15 11 -44 34z" />
    <glyph glyph-name="exclamdown" unicode="&#xa1;" horiz-adv-x="420" 
d="M319 561q-6 -14 -19 -43l51 -22l-40 -35l25 -73q-12 6 -33 20q-2 0 -2 -1v1q-33 -61 -99 -61q-45 0 -78 27q-36 28 -36 72q0 40 28.5 68.5t68.5 27.5l1 14l43 -21q21 61 23 61q5 -8 23 -53q35 15 44 18zM166 -133l-17 -34l-20 34h-67l7 49l-51 10q16 12 63 42l4 40
q-7 20 -22 62l27 -14l52 242l119 -1l69 -430h-164zM289 510l17 38l-36 -18l-15 44l-20 -54l-37 25l24 -44l-50 -29l57 -5l-35 -40l49 13l11 -52l23 53l44 -35l-22 61l38 26zM205 -20q0 5 17 53q4 12 5 20q-15 -11 -54 -50q-13 55 -26 78q-14 -10 -21 -56q-1 -6 -3 -6t-27 20
q-6 5 -15 9q8 -25 23 -75q-1 -1 -46 -29q-6 -4 -17 -12q3 -3 9 -3h20q12 -1 17 -8q4 -21 6 -42q25 18 34 21q9 -22 19 -52h3q-1 21 21 65q12 -10 36 -31q3 12 0 25q-5 20 -4 25q16 5 46 16q-21 14 -43 32z" />
    <glyph glyph-name="guillemotleft" unicode="&#xab;" horiz-adv-x="420" 
d="M216 447l-85 -198l84 -205h-99l-85 203l85 200h100zM375 447l-85 -198l84 -205h-99l-84 203l84 200h100z" />
    <glyph glyph-name="guillemotright" unicode="&#xbb;" horiz-adv-x="420" 
d="M203 447h101l84 -200l-84 -203h-99l83 205zM44 447h100l85 -200l-85 -203h-98l83 205z" />
    <glyph glyph-name="ellipsis" unicode="&#x2026;" horiz-adv-x="1198" 
d="M449 98q0 50 35.5 84t85.5 34t85 -34t35 -84q0 -49 -35.5 -83t-84.5 -34t-85 34t-36 83zM849 98q0 50 35.5 84t85.5 34t85 -34t35 -84q0 -49 -35.5 -83t-84.5 -34t-85 34t-36 83zM49 98q0 50 35.5 84t85.5 34t85 -34t35 -84q0 -49 -35.5 -83t-84.5 -34t-85 34t-36 83z
" />
    <glyph glyph-name="nonbreakingspace" unicode="&#xa0;" horiz-adv-x="245" 
 />
    <glyph glyph-name="Agrave" unicode="&#xc0;" horiz-adv-x="748" 
d="M410 719l-172 114l134 -1l100 -113h-62zM507 1l-22 69l-39 -37v74h-168l-39 -105h-232l129 437l-26 -5l49 76l-75 73l92 1l28 86h73l41 54l9 -54h215l201 -669h-236zM298 591l15 111l-76 -123l-9 66l-47 -70h-76l63 -65l-43 -66l53 31l27 -67l31 79l42 -99v117l70 -52
l-19 92l76 61zM369 438l-48 -165h83q-4 12 -13 37l29 -9zM564 159l67 63l-73 -9l29 73q-24 -8 -65 -30l-12 70l-30 -67l-74 34l42 -69l-4 -5l-72 -7l46 -33l-55 -22l64 -17l29 -11l1 -74l54 61l127 -43z" />
    <glyph glyph-name="Atilde" unicode="&#xc3;" horiz-adv-x="748" 
d="M416 724q-20 0 -58 16.5t-58 16.5q-46 0 -50 -29l-45 -1q2 43 28 71.5t68 28.5q22 0 58 -17.5t50 -17.5q18 0 37 9q23 11 25 26l43 -1q2 -40 -28 -71t-70 -31zM507 1l-22 69l-39 -37v74h-168l-39 -105h-232l129 437l-26 -5l49 76l-75 73l92 1l28 86h338l201 -669h-236z
M298 591l-2 72l-59 -85l-9 67l-47 -70h-76l63 -65l-43 -66l53 31l27 -67l31 79l42 -99v117l70 -52l-19 92l76 61zM369 438l-48 -165h83q-4 12 -13 37l29 -9zM564 159l67 63l-73 -9l29 73q-24 -8 -65 -30l-12 70l-30 -67l-74 34l42 -69l-4 -5l-72 -7l46 -33l-55 -22l64 -17
l29 -11l1 -74l54 61l127 -43z" />
    <glyph glyph-name="Otilde" unicode="&#xd5;" horiz-adv-x="750" 
d="M406 744q-20 0 -58 16.5t-58 16.5q-46 0 -50 -29l-45 -1q2 43 28 71.5t68 28.5q22 0 58 -17.5t50 -17.5q18 0 37 9q23 11 25 26l43 -1q2 -40 -28 -71t-70 -31zM589 80q3 -16 9 -47q-11 4 -27 24l-41 -25l-10 -34l-16 20q-50 -34 -205 -30q-136 4 -219 113q-75 99 -75 236
q0 52 13 106q16 66 45 94l-65 34l86 24l14 64l31 -41l24 22l41 60l17 -35q19 8 52 18q18 5 93 7q141 3 236 -100q91 -99 96 -242q3 -92 -17 -146.5t-82 -121.5zM274 587q-9 0 -53 -15l-13 17q-7 58 -20 86q-13 -26 -52 -78q-13 21 -33 39q-5 -15 -11 -51l-63 -16l61 -34
l-30 -51l53 20l-15 -86l58 55q16 -47 30 -69q11 39 23 89l20 -3v16l-2 20q44 39 64 61h-17zM360 521q-44 0 -77.5 -28.5t-43.5 -71.5q-7 -31 -7 -73q0 -77 26 -129q34 -67 104 -67q8 0 48 10l-39 80l78 -29q26 52 27 103q4 205 -116 205zM567 187l29 75l-63 -55
q-5 19 -12 84q-22 -36 -64 -94q-24 11 -72 31q17 -31 43 -81l-47 -24l72 -16l-33 -56l60 30l37 -68q2 17 13 87q41 -36 58 -45q-3 6 -9 21q-1 3 -15 53q36 28 48 42q-19 6 -45 16z" />
    <glyph glyph-name="OE" unicode="&#x152;" horiz-adv-x="1023" 
d="M944 52v-50h-75l-9 -53l-50 40l-96 -73l-35 86l-56 -16l3 16h-155q-51 -17 -172 -14q-136 4 -219 113q-75 99 -75 236q0 52 13 106q16 66 45 94l-65 34l86 24l14 64l31 -41l24 22l41 60l17 -35l69 20q26 5 76 5q64 0 116 -19h467v-151l-196 -1h-82v-98h275v-140h-275
v-108h43l28 52l38 -50l94 66v-71l80 -1v-90l17 -14zM866 91l50 44l-67 -12v81l-93 -46l-21 38l-35 -59l-63 31l30 -59h-81l72 -52l-18 -51l48 15l30 -82l92 73l39 -36l-1 65l104 24zM274 587q-8 0 -53 -15l-13 17q-7 58 -20 86q-13 -26 -52 -78q-13 21 -33 39
q-5 -15 -11 -51l-63 -16l61 -34l-30 -51l53 20l-15 -86l58 55q16 -47 30 -69q11 39 23 89l20 -3v16l-2 20q44 39 64 61h-17zM360 521q-44 0 -77.5 -28.5t-43.5 -71.5q-7 -31 -7 -73q0 -77 26 -129q34 -67 104 -67q82 0 109 125l4 117q-20 127 -115 127z" />
    <glyph glyph-name="oe" unicode="&#x153;" horiz-adv-x="1023" 
d="M944 52v-50h-75l-9 -53l-50 40l-96 -73l-35 86l-56 -16l3 16h-155q-51 -17 -172 -14q-136 4 -219 113q-75 99 -75 236q0 52 13 106q16 66 45 94l-65 34l86 24l14 64l31 -41l24 22l41 60l17 -35l69 20q26 5 76 5q64 0 116 -19h467v-151l-196 -1h-82v-98h275v-140h-275
v-108h43l28 52l38 -50l94 66v-71l80 -1v-90l17 -14zM866 91l50 44l-67 -12v81l-93 -46l-21 38l-35 -59l-63 31l30 -59h-81l72 -52l-18 -51l48 15l30 -82l92 73l39 -36l-1 65l104 24zM274 587q-8 0 -53 -15l-13 17q-7 58 -20 86q-13 -26 -52 -78q-13 21 -33 39
q-5 -15 -11 -51l-63 -16l61 -34l-30 -51l53 20l-15 -86l58 55q16 -47 30 -69q11 39 23 89l20 -3v16l-2 20q44 39 64 61h-17zM360 521q-44 0 -77.5 -28.5t-43.5 -71.5q-7 -31 -7 -73q0 -77 26 -129q34 -67 104 -67q82 0 109 125l4 117q-20 127 -115 127z" />
    <glyph glyph-name="endash" unicode="&#x2013;" horiz-adv-x="547" 
d="M-2 390h457v-130h-457v130z" />
    <glyph glyph-name="emdash" unicode="&#x2014;" horiz-adv-x="995" 
d="M905 390v-130h-907v130h907z" />
    <glyph glyph-name="quotedblleft" unicode="&#x201c;" horiz-adv-x="434" 
d="M146 672l61 -216h-81l-127 216h147zM346 672l61 -216h-81l-127 216h147z" />
    <glyph glyph-name="quotedblright" unicode="&#x201d;" horiz-adv-x="434" 
d="M265 672l-61 -216h81l127 216h-147zM65 672l-61 -216h81l127 216h-147z" />
    <glyph glyph-name="quoteleft" unicode="&#x2018;" horiz-adv-x="231" 
d="M153 672l61 -216h-81l-127 216h147z" />
    <glyph glyph-name="quoteright" unicode="&#x2019;" horiz-adv-x="231" 
d="M65 672l-61 -216h81l127 216h-147z" />
    <glyph glyph-name="ydieresis" unicode="&#xff;" horiz-adv-x="634" 
d="M389 726q-22 0 -37.5 14t-15.5 36t15.5 36.5t37.5 14.5t37.5 -14.5t15.5 -36.5t-15.5 -36t-37.5 -14zM203 726q-21 0 -36.5 14.5t-15.5 35.5t15.5 36t36.5 15q22 0 37 -14.5t15 -36.5t-15 -36t-37 -14zM464 194q-2 0 -46 20v-212h-219l1 209l-80 170l-74 -28l30 75
l-59 52l42 14l-41 72l35 -17l-44 121h217l80 -245l74 245h202l-137 -357l64 -17l-78 -36zM416 314l23 58l-47 -30l-31 74l-22 -84l-59 38l39 -76l-59 -20l61 -26l-21 -68l60 38l13 -47l24 62l55 -27l-12 22q-2 3 -19 35l73 32zM158 462l65 26l-67 13l33 71l-64 -46l-26 79
l-18 -81l-50 31l40 -65l-41 -11l56 -48l-24 -64l29 11l34 16l46 -48l-15 69l72 -21z" />
    <glyph glyph-name="Ydieresis" unicode="&#x178;" horiz-adv-x="634" 
d="M389 726q-22 0 -37.5 14t-15.5 36t15.5 36.5t37.5 14.5t37.5 -14.5t15.5 -36.5t-15.5 -36t-37.5 -14zM203 726q-21 0 -36.5 14.5t-15.5 35.5t15.5 36t36.5 15q22 0 37 -14.5t15 -36.5t-15 -36t-37 -14zM464 194q-2 0 -46 20v-212h-219l1 209l-80 170l-74 -28l30 75
l-59 52l42 14l-41 72l35 -17l-44 124h217l80 -248l74 248h202l-137 -360l64 -17l-78 -36zM416 314l23 58l-47 -30l-31 74l-22 -84l-59 38l39 -76l-59 -20l61 -26l-21 -68l60 38l13 -47l24 62l55 -27l-12 22q-2 3 -19 35l73 32zM158 462l65 26l-67 13l33 71l-64 -46l-26 82
l-18 -84l-50 31l40 -65l-41 -11l56 -48l-24 -64l29 11l34 16l46 -48l-15 69l72 -21z" />
    <glyph glyph-name="guilsinglleft" unicode="&#x2039;" horiz-adv-x="260" 
d="M215 447l-84 -198l83 -205h-98l-85 203l85 200h99z" />
    <glyph glyph-name="guilsinglright" unicode="&#x203a;" horiz-adv-x="283" 
d="M60 447h100l84 -200l-84 -203h-98l83 205z" />
    <glyph glyph-name="periodcentered" unicode="&#xb7;" horiz-adv-x="409" 
d="M83 302q0 41 29 69t70 28t70.5 -28t29.5 -69t-29.5 -69t-70.5 -28t-70 28t-29 69z" />
    <glyph glyph-name="periodcentered" unicode="&#x2219;" horiz-adv-x="409" 
d="M83 302q0 41 29 69t70 28t70.5 -28t29.5 -69t-29.5 -69t-70.5 -28t-70 28t-29 69z" />
    <glyph glyph-name="quotesinglbase" unicode="&#x201a;" horiz-adv-x="264" 
d="M65 132l-61 -216h81l127 216h-147z" />
    <glyph glyph-name="quotedblbase" unicode="&#x201e;" horiz-adv-x="466" 
d="M265 132l-61 -216h81l127 216h-147zM65 132l-61 -216h81l127 216h-147z" />
    <glyph glyph-name="Acircumflex" unicode="&#xc2;" horiz-adv-x="748" 
d="M433 724l-63 52l-64 -52h-88l103 97h94l110 -97h-92zM507 1l-22 69l-39 -37v74h-168l-39 -105h-232l129 437l-26 -5l49 76l-75 73l92 1l28 86h338l201 -669h-236zM298 591l-2 72l-59 -85l-9 67l-47 -70h-76l63 -65l-43 -66l53 31l27 -67l31 79l42 -99v117l70 -52l-19 92
l76 61zM369 438l-48 -165h83q-4 12 -13 37l29 -9zM564 159l67 63l-73 -9l29 73q-24 -8 -65 -30l-12 70l-30 -67l-74 34l42 -69l-4 -5l-72 -7l46 -33l-55 -22l64 -17l29 -11l1 -74l54 61l127 -43z" />
    <glyph glyph-name="Ecircumflex" unicode="&#xca;" horiz-adv-x="618" 
d="M343 724l-63 52l-64 -52h-88l103 97h94l110 -97h-92zM39 2l2 2l-1 561l-37 19l38 21v66h498v-151l-184 -1l-3 -12l-52 -2l1 -84h235v-140h-235v-108h43l28 52l29 -44l63 60v-71l80 -1v-90l17 -16l-17 -11v-50h-75l-9 -53l-50 40l-57 -72l-34 85l-56 -16l3 16h-227z
M257 574l73 53l-86 -10l3 39l-56 -37l-30 40l-29 -72l-103 -3l84 -33l-34 -60l62 32l-15 -142q20 35 65 93l73 -39l-33 82l101 3zM466 90l50 45l-67 -12v82l-53 -46l-21 37l-35 -59l-63 31l30 -59h-81l72 -52l-18 -51l48 15l31 -83l52 74l38 -36l1 71l96 15z" />
    <glyph glyph-name="Aacute" unicode="&#xc1;" horiz-adv-x="748" 
d="M326 719h-65l103 113h129zM507 1l-22 69l-39 -37v74h-168l-39 -105h-232l129 437l-26 -5l49 76l-75 73l92 1l28 86h338l201 -669h-236zM297 591l-19 68l-41 -80l-13 57l-43 -61h-76l63 -65l-43 -66l53 31l27 -67l31 79l42 -99v117l70 -52l-19 92l76 61zM369 438l-48 -165
h83q-4 12 -13 37l29 -9zM564 159l67 63l-73 -9l29 73q-24 -8 -65 -30l-12 70l-30 -67l-74 34l42 -69l-4 -5l-72 -7l46 -33l-55 -22l64 -17l29 -11l1 -74l54 61l127 -43z" />
    <glyph glyph-name="Edieresis" unicode="&#xcb;" horiz-adv-x="618" 
d="M369 736q-22 0 -37.5 14t-15.5 36t15.5 36.5t37.5 14.5t37.5 -14.5t15.5 -36.5t-15.5 -36t-37.5 -14zM203 736q-21 0 -36.5 14.5t-15.5 35.5t15.5 36t36.5 15q22 0 37 -14.5t15 -36.5t-15 -36t-37 -14zM39 2l2 2l-1 561l-37 19l38 21v67h104l30 36l34 -37h330v-151
l-184 -1l-3 -12l-52 -2l1 -84h235v-140h-235v-108h43l28 52l29 -44l63 60v-71l80 -1v-90l17 -16l-17 -11v-50h-75l-9 -53l-50 40l-57 -72l-34 85l-56 -16l3 16h-227zM257 574l73 53l-86 -10l3 39l-36 -22l-34 52l-63 -86l-83 -17l82 -32l-34 -60l62 32l-15 -142q20 35 65 93
l73 -39l-33 82l101 3zM466 90l50 45l-67 -12v82l-53 -46l-21 37l-35 -59l-63 31l30 -59h-81l72 -52l-18 -51l48 15l31 -83l52 74l38 -36l1 71l96 15z" />
    <glyph glyph-name="Egrave" unicode="&#xc8;" horiz-adv-x="618" 
d="M316 720l-172 114h134l103 -114h-65zM39 2l2 2l-1 561l-37 19l38 21v66h104l30 37l34 -38l330 1v-151l-184 -1l-3 -12l-52 -2l1 -84h235v-140h-235v-108h43l28 52l29 -44l63 60v-71l80 -1v-90l17 -16l-17 -11v-50h-75l-9 -53l-50 40l-57 -72l-34 85l-56 -16l3 16h-227z
M257 574l73 53l-86 -10l3 39l-36 -22l-34 52l-63 -86l-83 -17l82 -32l-34 -60l62 32l-15 -142q20 35 65 93l73 -39l-33 82l101 3zM466 90l50 45l-67 -12v82l-53 -46l-21 37l-35 -59l-63 31l30 -59h-81l72 -52l-18 -51l48 15l31 -83l52 74l38 -36l1 71l96 15z" />
    <glyph glyph-name="Iacute" unicode="&#xcd;" horiz-adv-x="374" 
d="M146 719h-65l103 113h129zM306 496v-495h-117l-21 -64l-32 62l-29 -38l-13 41h-21v19l-61 -26l29 75l-51 29l71 36l-10 84l24 -21l-2 473q31 -1 163 -1l17 30l16 -30h35l-1 -45l36 21l-16 -70l35 -38zM309 574l19 54l-41 -25l-14 31l-20 50l-28 -78l-66 55l20 -79h-80
l72 -62l-28 -62l12 10l45 11l22 -93l25 86l34 -48l18 80l44 33zM149 118l10 93l-59 -57l-38 45l12 -68l-63 -32l45 -24l-29 -63l69 33l16 -62l28 35l28 -59l16 82l52 18l-31 32l41 41z" />
    <glyph glyph-name="Icircumflex" unicode="&#xce;" horiz-adv-x="374" 
d="M253 724l-63 52l-64 -52h-88l103 97h94l110 -97h-92zM306 496v-495h-117l-21 -64l-32 62l-29 -38l-13 41h-21v19l-61 -26l29 75l-51 29l71 36l-10 84l24 -21l-2 473l231 -1l-1 -45l36 21l-16 -70l35 -38zM309 574l19 54l-41 -25q-3 8 -11 20l-2 2q-5 5 -19 38l-30 -57
l-73 48l27 -72h-80l72 -62l-28 -62l12 10l45 11l22 -93l25 86l34 -48l18 80l44 33zM149 118l10 93l-59 -57l-38 45l12 -68l-63 -32l45 -24l-29 -63l69 33l16 -62l28 35l28 -59l16 82l52 18l-31 32l41 41z" />
    <glyph glyph-name="Idieresis" unicode="&#xcf;" horiz-adv-x="374" 
d="M269 736q-22 0 -37.5 14t-15.5 36t15.5 36.5t37.5 14.5t37.5 -14.5t15.5 -36.5t-15.5 -36t-37.5 -14zM103 736q-21 0 -36.5 14.5t-15.5 35.5t15.5 36t36.5 15q22 0 37 -14.5t15 -36.5t-15 -36t-37 -14zM306 496v-495h-117l-21 -64l-32 62l-29 -38l-13 41h-21v19l-61 -26
l29 75l-51 29l71 36l-10 84l24 -21l-2 473l65 -2l-4 38l42 -37h60l17 30l16 -30h35l-1 -45l36 21l-16 -70l35 -38zM309 574l19 54l-41 -25l-14 31l-20 50l-28 -77l-81 82l35 -107h-80l72 -62l-28 -62l12 10l45 11l22 -93l25 86l34 -48l18 80l44 33zM149 118l10 93l-59 -57
l-38 45l12 -68l-63 -32l45 -24l-29 -63l69 33l16 -62l28 35l28 -59l16 82l52 18l-31 32l41 41z" />
    <glyph glyph-name="Igrave" unicode="&#xcc;" horiz-adv-x="374" 
d="M230 719l-179 112l137 1l107 -113h-65zM306 496v-495h-117l-21 -64l-32 62l-29 -38l-13 41h-21v19l-61 -26l29 75l-51 29l71 36l-10 84l24 -21l-2 473l65 -2l-4 38l42 -37h128l-1 -45l36 21l-16 -70l35 -38zM309 574l19 54l-41 -25q-3 8 -12 21l-2 2q-7 7 -21 41l-27 -60
l-81 82l35 -107h-80l72 -62l-28 -62l12 10l45 11l22 -93l25 86l34 -48l18 80l44 33zM149 118l10 93l-59 -57l-38 45l12 -68l-63 -32l45 -24l-29 -63l69 33l16 -62l28 35l28 -59l16 82l52 18l-31 32l41 41z" />
    <glyph glyph-name="Oacute" unicode="&#xd3;" horiz-adv-x="750" 
d="M326 739h-65l103 113h129zM589 80q3 -16 9 -47q-11 4 -27 24l-41 -25l-10 -34l-16 20q-50 -34 -205 -30q-136 4 -219 113q-75 99 -75 236q0 52 13 106q16 66 45 94l-65 34l86 24l14 64l31 -41l24 22l41 60l17 -35q19 8 52 18q18 5 93 7q141 3 236 -100q91 -99 96 -242
q3 -92 -17 -146.5t-82 -121.5zM274 587q-9 0 -53 -15l-13 17q-7 58 -20 86q-13 -26 -52 -78q-13 21 -33 39q-5 -15 -11 -51l-63 -16l61 -34l-30 -51l53 20l-15 -86l58 55q16 -47 30 -69q11 39 23 89l20 -3v16l-2 20q44 39 64 61h-17zM360 521q-44 0 -77.5 -28.5t-43.5 -71.5
q-7 -31 -7 -73q0 -77 26 -129q34 -67 104 -67q8 0 48 10l-39 80l78 -29q26 52 27 103q4 205 -116 205zM567 187l29 75l-63 -55q-5 19 -12 84q-22 -36 -64 -94q-24 11 -72 31q17 -31 43 -81l-47 -24l72 -16l-33 -56l60 30l37 -68q2 17 13 87q41 -36 58 -45q-3 6 -9 21
q-1 3 -15 53q36 28 48 42q-19 6 -45 16z" />
    <glyph glyph-name="Ocircumflex" unicode="&#xd4;" horiz-adv-x="750" 
d="M413 734l-63 52l-64 -52h-88l103 97h94l110 -97h-92zM589 80q3 -16 9 -47q-11 4 -27 24l-41 -25l-10 -34l-16 20q-50 -34 -205 -30q-136 4 -219 113q-75 99 -75 236q0 52 13 106q16 66 45 94l-65 34l86 24l14 64l31 -41l24 22l28 20l32 12q39 15 71 18q12 1 75 2
q113 1 213 -91q111 -103 116 -253q3 -91 -17 -146t-82 -122zM360 521q-44 0 -77.5 -28.5t-43.5 -71.5q-7 -31 -7 -73q0 -77 26 -129q34 -67 104 -67q8 0 48 10l-39 80l78 -29q26 52 27 103q4 205 -116 205zM274 587q-9 0 -53 -15l-13 17q-6 28 -19 55q-13 -25 -52 -47
q-14 21 -34 39q-5 -15 -11 -51l-63 -16l61 -34l-30 -51l53 20l-15 -86l58 55q16 -47 30 -69q11 39 23 89l20 -3v16l-2 20q44 39 64 61h-17zM567 187l29 75l-63 -55q-5 19 -12 84q-22 -36 -64 -94q-24 11 -72 31q17 -31 43 -81l-47 -24l72 -16l-33 -56l60 30l37 -68
q2 17 13 87q41 -36 58 -45q-3 6 -9 21q-1 3 -15 53q36 28 48 42q-19 6 -45 16z" />
    <glyph glyph-name="Ograve" unicode="&#xd2;" horiz-adv-x="750" 
d="M380 729l-166 112l128 1l103 -113h-65zM589 80q3 -16 9 -47q-11 4 -27 24l-41 -25l-10 -34l-16 20q-50 -34 -205 -30q-136 4 -219 113q-75 99 -75 236q0 52 13 106q16 66 45 94l-65 34l86 24l14 64l31 -41l24 22l41 60l17 -35q19 8 52 18q18 5 93 7q141 3 236 -100
q91 -99 96 -242q3 -92 -17 -146.5t-82 -121.5zM274 587q-9 0 -53 -15l-13 17q-7 58 -20 86q-13 -26 -52 -78q-13 21 -33 39q-5 -15 -11 -51l-63 -16l61 -34l-30 -51l53 20l-15 -86l58 55q16 -47 30 -69q11 39 23 89l20 -3v16l-2 20q44 39 64 61h-17zM360 521
q-44 0 -77.5 -28.5t-43.5 -71.5q-7 -31 -7 -73q0 -77 26 -129q34 -67 104 -67q8 0 48 10l-39 80l78 -29q26 52 27 103q4 205 -116 205zM567 187l29 75l-63 -55q-5 19 -12 84q-22 -36 -64 -94q-24 11 -72 31q17 -31 43 -81l-47 -24l72 -16l-33 -56l60 30l37 -68q2 17 13 87
q41 -36 58 -45q-3 6 -9 21q-1 3 -15 53q36 28 48 42q-19 6 -45 16z" />
    <glyph glyph-name="Uacute" unicode="&#xda;" horiz-adv-x="685" 
d="M276 719h-65l103 113h129zM610 152l11 -24l-23 -10q-30 -57 -58 -76l-4 -2q-13 -8 -14 -14q-2 -10 -8 -33q-6 8 -12 17q-10 12 -14 11q-85 -30 -203 -30q-90 0 -168 51q-88 58 -88 144v332l-77 36l75 18v99h52l16 43l19 -43h135l1 -433q-2 -86 76 -88q3 -1 7 -1
q19 0 33.5 15t14.5 34q0 5 -32 46l-6 9q13 -4 49 -9q-1 45 -1 426h232v-431l31 -12q-26 -10 -30.5 -22t-13.5 -53zM556 231l28 74l-60 -55l-21 69l-25 -82l-52 54l11 -73l-73 23l62 -71l-60 -53l81 7l-36 -74l61 38l36 -79l11 85l40 -18l-16 54l65 3l-47 47l71 46zM164 587
l28 74l-64 -39l-34 78q0 -13 -18 -83l-45 29q24 -66 26 -78q-23 -6 -83 -18l93 -37l-27 -75q20 15 60 42l23 -90l24 88l72 -28l-54 79l63 57z" />
    <glyph glyph-name="Ucircumflex" unicode="&#xdb;" horiz-adv-x="685" 
d="M383 721l-63 52l-64 -52h-88l103 97h94l110 -97h-92zM610 152l11 -24l-23 -10q-30 -57 -58 -76l-4 -2q-13 -8 -14 -14q-2 -10 -8 -33q-6 8 -12 17q-10 12 -14 11q-85 -30 -203 -30q-90 0 -168 51q-88 58 -88 144v332l-77 36l75 18v99h52l16 43l19 -43h135l1 -433
q-2 -86 76 -88q3 -1 7 -1q19 0 33.5 15t14.5 34q0 5 -32 46l-6 9q13 -4 49 -9q-1 45 -1 426h232v-431l31 -12q-26 -10 -30.5 -22t-13.5 -53zM556 231l28 74l-60 -55l-21 69l-25 -82l-52 54l11 -73l-73 23l62 -71l-60 -53l81 7l-36 -74l61 38l36 -79l11 85l40 -18l-16 54
l65 3l-47 47l71 46zM164 587l28 74l-64 -39l-34 78q0 -13 -18 -83l-45 29q24 -66 26 -78q-23 -6 -83 -18l93 -37l-27 -75q20 15 60 42l23 -90l24 88l72 -28l-54 79l63 57z" />
    <glyph glyph-name="Ugrave" unicode="&#xd9;" horiz-adv-x="685" 
d="M380 719l-172 114l134 -1l103 -113h-65zM610 152l11 -24l-23 -10q-30 -57 -58 -76l-4 -2q-13 -8 -14 -14q-2 -10 -8 -33q-6 8 -12 17q-10 12 -14 11q-85 -30 -203 -30q-90 0 -168 51q-88 58 -88 144v332l-77 36l75 18v99h52l16 43l19 -43h135l1 -433q-2 -86 76 -88
q3 -1 7 -1q19 0 33.5 15t14.5 34q0 5 -32 46l-6 9q13 -4 49 -9q-1 45 -1 426h232v-431l31 -12q-26 -10 -30.5 -22t-13.5 -53zM556 231l28 74l-60 -55l-21 69l-25 -82l-52 54l11 -73l-73 23l62 -71l-60 -53l81 7l-36 -74l61 38l36 -79l11 85l40 -18l-16 54l65 3l-47 47l71 46
zM164 587l28 74l-64 -39l-34 78q0 -13 -18 -83l-45 29q24 -66 26 -78q-23 -6 -83 -18l93 -37l-27 -75q20 15 60 42l23 -90l24 88l72 -28l-54 79l63 57z" />
    <glyph glyph-name="circumflex" unicode="&#x2c6;" horiz-adv-x="478" 
d="M181 833h95l113 -100h-96l-63 51l-63 -51h-93z" />
    <glyph glyph-name="tilde" unicode="&#x2dc;" horiz-adv-x="500" 
d="M73 736q2 44 28.5 73t69.5 29q22 0 58.5 -17.5t49.5 -17.5q17 0 38.5 10t22.5 25h45q3 -41 -27.5 -73.5t-71.5 -32.5q-21 0 -58.5 16.5t-57.5 16.5q-46 0 -49 -29h-48z" />
    <glyph glyph-name="macron" unicode="&#xaf;" horiz-adv-x="500" 
d="M343 811v-75h-298v75h298z" />
    <glyph glyph-name="macron" unicode="&#x2c9;" horiz-adv-x="500" 
d="M343 811v-75h-298v75h298z" />
    <glyph glyph-name="cedilla" unicode="&#xb8;" horiz-adv-x="500" 
d="M239 0h43l-43 -70q20 5 36 5q36 0 62 -19t26 -54q0 -44 -41 -67q-33 -19 -81 -19t-105 18l15 42q39 -17 72 -17q58 0 58 38q0 37 -44 37q-17 0 -41 -8l-19 19z" />
    <glyph glyph-name="Scaron" unicode="&#x160;" 
 />
    <glyph glyph-name="scaron" unicode="&#x161;" 
 />
    <glyph glyph-name="brokenbar" unicode="&#xa6;" 
 />
    <glyph glyph-name="Eth" unicode="&#xd0;" 
 />
    <glyph glyph-name="eth" unicode="&#xf0;" 
 />
    <glyph glyph-name="Yacute" unicode="&#xdd;" 
 />
    <glyph glyph-name="Thorn" unicode="&#xde;" 
 />
    <glyph glyph-name="thorn" unicode="&#xfe;" 
 />
    <glyph glyph-name="minus" unicode="&#xad;" 
 />
    <glyph glyph-name="minus" unicode="&#x2212;" 
 />
    <glyph glyph-name="onesuperior" unicode="&#xb9;" 
 />
    <glyph glyph-name="twosuperior" unicode="&#xb2;" 
 />
    <glyph glyph-name="threesuperior" unicode="&#xb3;" 
 />
    <glyph glyph-name="onehalf" unicode="&#xbd;" 
 />
    <glyph glyph-name="onequarter" unicode="&#xbc;" 
 />
    <glyph glyph-name="threequarters" unicode="&#xbe;" 
 />
    <glyph glyph-name="Lslash" unicode="&#x141;" 
 />
    <glyph glyph-name="lslash" unicode="&#x142;" 
 />
    <glyph glyph-name="HT" horiz-adv-x="245" 
 />
    <glyph glyph-name="LF" 
 />
    <glyph glyph-name="nonmarkingreturn" horiz-adv-x="245" 
 />
    <glyph glyph-name="Zcaron" unicode="&#x17d;" 
 />
    <glyph glyph-name="zcaron" unicode="&#x17e;" 
 />
    <glyph glyph-name="DLE" 
 />
    <glyph glyph-name="DC1" 
 />
    <glyph glyph-name="DC2" 
 />
    <glyph glyph-name="DC3" 
 />
    <glyph glyph-name="DC4" 
 />
    <glyph glyph-name="RS" 
 />
    <glyph glyph-name="US" 
 />
    <glyph glyph-name="partialdiff" unicode="&#x2202;" horiz-adv-x="613" 
d="M557 115v-113q-11 -1 -21 0h-65l-8 -60q-2 1 -29 20q-17 13 -31 13h-1l-3 -2q-25 -14 -75 -40v69h-267v203l-51 -31v79l50 31l-1 388h279v-68l1 -147l151 95v-79l-151 -94v-199l22 -10l46 92l23 -68l56 58v-83h75v-22h19zM472 128v99l-46 -58l-24 69l-31 -67
q-3 -4 -9 -19l-110 81l48 -89q5 -9 16 -33l-67 -64l88 -12v-82l65 36l53 -34l7 44q0 4 1 17l81 -1l-52 58l71 63z" />
    <glyph glyph-name="summation" unicode="&#x2211;" horiz-adv-x="667" 
d="M398 730h-118l-95 104h94l64 -57l63 57h89zM596 103q-18 -33 -43 -49l2 -40l-33 18l-22 -13q-8 -21 -22 -67q-7 12 -28 56q-110 -23 -162 -22q-156 3 -262 65l33 182q131 -72 199 -72q81 0 81 40q0 30 -29 39q-46 14 -165 57q-44 18 -68 39q-52 47 -52 124q0 59 47 114
l6 7q3 3 3 5q-4 9 -12 42l42 -23l51 32l6 36l21 -23q111 31 188 30q102 -1 219 -47q-15 -118 -21 -173q-22 25 -86 40q-52 13 -98 13q-96 0 -96 -45q0 -49 113 -73q9 -1 27 -5q57 -17 111 -55q67 -47 76 -93q4 -20 4 -39q0 -35 -14 -65l29 -13zM249 555l35 68l-67 -33
l-43 68q-6 -31 -15 -89l-81 47l29 -74l-54 -35l72 -15l-45 -88l77 51l33 -80l14 78l73 -24l-35 74l88 39zM550 145l10 69l-60 -49l-37 61l-12 -64l-56 20l33 -61l-71 -28l71 -17l-25 -61l54 39l19 -73l28 69l44 -23l-7 58l88 40z" />
    <glyph glyph-name="product" unicode="&#x220f;" horiz-adv-x="667" 
d="M398 730h-118l-95 104h94l64 -57l63 57h89zM596 103q-18 -33 -43 -49l2 -40l-33 18l-22 -13q-8 -21 -22 -67q-7 12 -28 56q-110 -23 -162 -22q-156 3 -262 65l33 182q131 -72 199 -72q81 0 81 40q0 30 -29 39q-46 14 -165 57q-44 18 -68 39q-52 47 -52 124q0 59 47 114
l6 7q3 3 3 5q-4 9 -12 42l42 -23l51 32l6 36l21 -23q111 31 188 30q102 -1 219 -47q-15 -118 -21 -173q-22 25 -86 40q-52 13 -98 13q-96 0 -96 -45q0 -49 113 -73q9 -1 27 -5q57 -17 111 -55q67 -47 76 -93q4 -20 4 -39q0 -35 -14 -65l29 -13zM249 555l35 68l-67 -33
l-43 68q-6 -31 -15 -89l-81 47l29 -74l-54 -35l72 -15l-45 -88l77 51l33 -80l14 78l73 -24l-35 74l88 39zM550 145l10 69l-60 -49l-37 61l-12 -64l-56 20l33 -61l-71 -28l71 -17l-25 -61l54 39l19 -73l28 69l44 -23l-7 58l88 40z" />
    <glyph glyph-name="pi" unicode="&#x3c0;" horiz-adv-x="634" 
d="M276 699h-65l103 113h129zM464 194q-2 0 -46 20v-212h-219l1 209l-80 170l-74 -28l30 75l-59 52l42 14l-41 72l35 -17l-44 121h217l80 -245l74 245h202l-137 -357l64 -17l-78 -36zM416 314l23 58l-47 -30l-31 74l-22 -84l-59 38l39 -76l-59 -20l61 -26l-21 -68l60 38
l13 -47l24 62l55 -27l-12 22q-2 3 -19 35l73 32zM158 462l65 26l-67 13l33 71l-64 -46l-26 79l-18 -81l-50 31l40 -65l-41 -11l56 -48l-24 -64l29 11l34 16l46 -48l-15 69l72 -21z" />
    <glyph glyph-name="integral" unicode="&#x222b;" horiz-adv-x="634" 
d="M276 719h-65l103 113h129zM464 194q-2 0 -46 20v-212h-219l1 209l-80 170l-74 -28l30 75l-59 52l42 14l-41 72l35 -17l-44 121h217l80 -245l74 245h202l-137 -357l64 -17l-78 -36zM416 314l23 58l-47 -30l-31 74l-22 -84l-59 38l39 -76l-59 -20l61 -26l-21 -68l60 38
l13 -47l24 62l55 -27l-12 22q-2 3 -19 35l73 32zM158 462l65 26l-67 13l33 71l-64 -46l-26 79l-18 -81l-50 31l40 -65l-41 -11l56 -48l-24 -64l29 11l34 16l46 -48l-15 69l72 -21z" />
    <glyph glyph-name="Omega" unicode="&#x3a9;" horiz-adv-x="660" 
d="M362 -6q-61 0 -74 12v-41l-44 27l-40 -64l-30 77q-16 -9 -46 -27q6 23 11 70l-94 83q64 5 65 6q-30 46 -50 127h-57v55h47q-4 31 -4 55h-43v55h51q25 119 120 188q91 65 215 65q103 0 195 -45v-169q-77 38 -124 39q-132 3 -172 -78h172v-55h-187q-2 -15 -2 -30
q0 -12 2 -25h187v-55h-172q41 -83 126 -83q17 -3 33 -3q73 0 141 55q2 -53 2 -94q0 -40 -2 -69q-60 -47 -104 -61.5t-122 -14.5zM287 101l43 48l-67 -10l-9 88l-50 -71l-39 40l-5 -65l-88 -8l80 -70l-11 -55l38 23l29 -72l33 57l38 -25l-8 57l74 48z" />
    <glyph glyph-name="Omega" unicode="&#x2126;" horiz-adv-x="660" 
d="M362 -6q-61 0 -74 12v-41l-44 27l-40 -64l-30 77q-16 -9 -46 -27q6 23 11 70l-94 83q64 5 65 6q-30 46 -50 127h-57v55h47q-4 31 -4 55h-43v55h51q25 119 120 188q91 65 215 65q103 0 195 -45v-169q-77 38 -124 39q-132 3 -172 -78h172v-55h-187q-2 -15 -2 -30
q0 -12 2 -25h187v-55h-172q41 -83 126 -83q17 -3 33 -3q73 0 141 55q2 -53 2 -94q0 -40 -2 -69q-60 -47 -104 -61.5t-122 -14.5zM287 101l43 48l-67 -10l-9 88l-50 -71l-39 40l-5 -65l-88 -8l80 -70l-11 -55l38 23l29 -72l33 57l38 -25l-8 57l74 48z" />
    <glyph glyph-name="fi" unicode="&#xf001;" horiz-adv-x="8" 
 />
    <glyph glyph-name="fl" unicode="&#xf002;" horiz-adv-x="14" 
 />
    <glyph glyph-name="dotlessi" unicode="&#x131;" horiz-adv-x="374" 
d="M306 496v-495h-117l-21 -64l-32 62l-29 -38l-13 41h-21v19l-61 -26l29 75l-51 29l71 36l-10 84l24 -21l-2 473l65 -2l-4 38l42 -37h60l17 30l16 -30h35l-1 -45l36 21l-16 -70l35 -38zM309 574l19 54l-41 -25l-14 31l-20 50l-28 -77l-81 82l35 -107h-80l72 -62l-28 -62
l12 10l45 11l22 -93l25 86l34 -48l18 80l44 33zM149 118l10 93l-59 -57l-38 45l12 -68l-63 -32l45 -24l-29 -63l69 33l16 -62l28 35l28 -59l16 82l52 18l-31 32l41 41zM7073 32z" />
    <glyph glyph-name="breve" unicode="&#x2d8;" horiz-adv-x="500" 
d="M58 850h65q3 -23 36 -34q24 -9 52 -9q49 0 59 3q24 8 32 40l64 1q-2 -25 -7 -38q-3 -7 -19 -28q-36 -46 -124 -46q-72 0 -112 37q-11 10 -34 31q-12 15 -12 43z" />
    <glyph glyph-name="dotaccent" unicode="&#x2d9;" horiz-adv-x="377" 
d="M138 842h107v-103h-107v103z" />
    <glyph glyph-name="ring" unicode="&#x2da;" horiz-adv-x="390" 
d="M182 867q34 0 61.5 -21t27.5 -54q0 -34 -28 -55t-63 -21q-34 0 -61 20q-30 22 -30 55q0 34 30 56q27 20 63 20zM181 831q-19 0 -34 -10.5t-15 -28.5t15 -29t33 -11q19 0 33.5 11t14.5 29q0 17 -14.5 28t-32.5 11z" />
    <glyph glyph-name="hungarumlaut" unicode="&#x2dd;" horiz-adv-x="444" 
d="M91 849h103q0 -10 -42 -60l-48 -56h-69zM235 849h103q0 -10 -42 -60l-48 -56h-69z" />
    <glyph glyph-name="ogonek" unicode="&#x2db;" horiz-adv-x="500" 
d="M271 0h80q-64 -55 -64 -95q0 -38 50 -38q19 0 60 10v-58q-44 -10 -75 -10q-48 0 -78 21q-35 25 -35 71q0 53 62 99z" />
    <glyph glyph-name="caron" unicode="&#x2c7;" horiz-adv-x="500" 
d="M92 845h97l64 -56l62 56h93l-99 -106h-120z" />
    </font>
</defs>
</svg>
