<?xml version="1.0" standalone="no"?>
<!DOCTYPE svg PUBLIC "-//W3C//DTD SVG 1.1//EN" "http://www.w3.org/Graphics/SVG/1.1/DTD/svg11.dtd" >
<svg>
<metadata>
Created by FontForge 20120731 at Thu Apr 18 09:06:29 2019
 By www-data
Digitized by Dan X. Solo. Software (c) 1999 by Dover Publications, Inc., New York.
</metadata>
<defs>
<font id="Sundown" horiz-adv-x="20" >
  <font-face 
    font-family="Sundown"
    font-weight="400"
    font-stretch="normal"
    units-per-em="1000"
    panose-1="0 0 4 0 0 0 0 0 0 0"
    ascent="800"
    descent="-200"
    x-height="594"
    cap-height="595"
    bbox="-53 -342 1237 800"
    underline-thickness="20"
    underline-position="-123"
    unicode-range="U+0020-F002"
  />
<missing-glyph horiz-adv-x="500" 
d="M63 0v800h375v-800h-375zM125 63h250v675h-250v-675z" />
    <glyph glyph-name=".notdef" horiz-adv-x="500" 
d="M63 0v800h375v-800h-375zM125 63h250v675h-250v-675z" />
    <glyph glyph-name=".null" horiz-adv-x="0" 
 />
    <glyph glyph-name="glyph2" horiz-adv-x="230" 
 />
    <glyph glyph-name="space" unicode=" " horiz-adv-x="230" 
 />
    <glyph glyph-name="exclam" unicode="!" horiz-adv-x="300" 
d="M240 -290l236 1l-51 43h-205zM183 -166h149l-30 26h-131zM209 -222h189l-41 34h-164zM238 -31h-179l-12 13h180zM98 -80h180l-20 25l-178 1zM209 166v-164h-179l1 163zM-6 597l64 -374h117l56 374h-237z" />
    <glyph glyph-name="quotedbl" unicode="&#x22;" horiz-adv-x="311" 
d="M246 598l-31 -181h-67v181h98zM102 598l-31 -181h-67v181h98zM355 -220l-43 33l-54 1l25 -34h72zM432 -291h-104l-33 47h83zM236 -220l-43 33l-54 1l25 -34h72zM313 -291h-104l-33 47h83z" />
    <glyph glyph-name="numbersign" unicode="#" horiz-adv-x="21" 
 />
    <glyph glyph-name="dollar" unicode="$" horiz-adv-x="469" 
d="M420 119q0 -100 -134 -118h-21l1 -19h-95l-1 19h-15q-66 0 -110.5 34.5t-44.5 89.5v73l186 -1v-31q0 -25 24 -25q25 0 25 25l-1 33q0 38 -48 34q-24 -3 -87 0q-103 3 -103 104v134q0 58 51 96q41 29 76 29l39 -1v46h95v-46q33 0 42 1q43 3 81 -32t38 -74l-1 -68
q0 -2 -182 0v18q0 22 -25 22q-26 0 -26 -29v-22q0 -32 31 -33l96 -2q51 -14 70.5 -28t38.5 -53v-176zM512 -116h-186l-18 21h185zM532 -140q6 -16 -3 -27h-396q-16 15 4 27h395zM612 -246q3 -6 3 -12q0 -31 -55 -31h-74l24 -22h-84q-2 0 -22 21h4l-74 1q-78 0 -134 43h412z
M280 -117l-188 1l-21 21h189zM367 -222l-190 -1q-11 13 -31 36l192 -1zM417 -222l-17 21h177l22 -21h-182zM395 -32h-321q27 11 59 13l180 -1q22 -1 46 -3.5t36 -8.5zM472 -70l-415 -1q-1 1 -7.5 8t-6.5 10l411 -2q13 -9 18 -15z" />
    <glyph glyph-name="percent" unicode="%" horiz-adv-x="604" 
d="M437 -116l-16 21q86 -1 84 0q5 -5 18 -21h-86zM663 -140q5 -19 -17 -26h-130q-39 8 -58 26h205zM477 -54q-4 -3 1 -8l7 -8h-84q-5 7 -11 16h87zM386 -30q-6 0 3 6.5t20 5.5h108q13 2 42 -12h-173zM520 -70q-7 8 -15 15h90l12 -15h-87zM536 -94l23 -22h88l-18 21z
M273 -140q44 -8 72 -26h-199q-2 18 26 26h101zM157 -188l86 1l30 -36l-81 1zM338 102q4 35 0 144q-2 39 20 64q20 22 50 22h65q67 0 75 -89q-1 -144 0 -141q-1 -82 -66 -102q-81 2 -81 0q-63 21 -63 102zM441 249q-17 0 -17 -21l-1 -130q0 -20 18 -20q19 0 19 19l-1 130
q0 22 -18 22zM-3 370v148q0 34 19.5 55.5t48.5 21.5h72q62 0 71 -90q-2 -149 -1 -146q-1 -33 -18 -62q-19 -32 -47 -33q-81 1 -81 -1q-64 22 -64 107zM101 512q-17 0 -17 -21l-1 -129q0 -19 20 -19q17 0 17 19l-1 128q0 22 -18 22zM40 0l389 596h60l-392 -596h-57zM676 -291
q-38 16 -103 45h61l101 -45h-59zM394 -140l59 -26h-60l-58 25zM442 -188h59l79 -34h-60zM293 -246q10 -7 21 -7q14 0 13 7h88q16 -15 16 -25q0 -16 -39 -19h-92q-65 4 -86 35l-7 10zM234 -70l-35 15h-57l33 -15h59zM145 -31l-26 14h-59l29 -13zM291 -95l47 -21h-58l-48 21
h59zM280 -188l28 -32h90q-12 12 -31 33z" />
    <glyph glyph-name="ampersand" unicode="&#x26;" horiz-adv-x="680" 
d="M415 -29l-318 -1q18 8 47 12q45 6 92 4q41 2 108 -5q42 -4 71 -10zM649 -30l10 12l-211 -1l-7 -10zM620 -69q1 6 6 17h-542q-11 -9 -9 -19zM620 -140q21 -5 47 -13q2 3 11 13h-58zM585 -165q-19 4 -39 7q-2 0 4.5 6.5t14.5 12.5h-408q40 -17 84 -26h344zM304 -245h408
q1 -34 -91 -45q-18 -2 -76 -3q-49 0 -83 4q-106 11 -158 44zM466 -221q-1 6 10 14.5t11 9.5t-1 1q43 -16 51 -26l168 1l-13 11q-7 6 -48 24l-364 -1q-2 -20 7 -34q2 -1 86 -1q83 1 93 1zM313 -115q-5 3 -10 9q-2 7 7 12l-229 1l9 -11q4 -2 19 -11h204zM407 -94l-25 -21
l310 -1q6 8 20 22h-305zM145 341q-21 5 -39.5 46t-16.5 84q2 50 54 89q60 46 155 45q209 -10 215 -159q0 -97 -103 -137q-2 0 30 -29t32 -31q0 -4 63 49q87 -111 87 -115t-31.5 -32.5t-35.5 -28.5t100 -122h-196l-40 42q-30 -22 -81 -37q-61 -8 -107 -8q-225 0 -223 179
q0 53 30 97q36 54 107 68zM348 452q-7 24 -36 31q-35 -16 -34 -38q3 -13 25 -34q18 -17 15 -20q22 26 26 34.5t4 26.5zM336 158l-85 86q-35 3 -41 -47q11 -37 61 -45z" />
    <glyph glyph-name="quotesingle" unicode="'" horiz-adv-x="162" 
d="M248 -222l-46 35h-53l25 -35h74zM192 -246h86l45 -43h-97zM71 417h-67v181q72 7 98 0q-9 -74 -31 -181z" />
    <glyph glyph-name="parenleft" unicode="(" horiz-adv-x="319" 
d="M467 -258q-24 7 -41 12h-182q92 -45 159 -51zM133 -31h155l-31 12h-110q-7 -5 -14 -12zM110 -70h169q5 8 12 15h-175q-4 -7 -6 -15zM113 -116h159q-2 11 -1 21h-162q1 -10 4 -21zM143 -166h161q-15 15 -21 26l-159 -1q4 -6 12 -16q2 -3 7 -9zM204 -223l162 1
q-25 13 -45 35l-159 -1q19 -20 42 -35zM177 719q-75 -61 -125 -154q-57 -103 -57 -205q0 -17 2 -34q0 -79 34 -161q49 -117 155 -191q5 -3 82 100q-56 48 -87 124q-31 73 -26 142q6 97 28 153q28 70 94 126z" />
    <glyph glyph-name="parenright" unicode=")" horiz-adv-x="319" 
d="M271 -189h168q7 -11 11 -33l-164 -1q-2 12 -15 34zM285 -246h166q-2 -23 -17 -45h-191q35 21 42 45zM259 -166q-7 9 -22 26l159 -1q8 -4 27 -25h-164zM172 -95h163q16 -10 30 -21h-158q-9 7 -35 21zM122 -70q-18 8 -37 15h175q4 -2 29 -15h-167zM170 -18h-112
q-4 -5 -10 -13l154 1q-10 4 -32 12zM91 721q75 -61 126 -153q56 -104 56 -205q0 -18 -2 -34q0 -80 -34 -161q-48 -117 -155 -191q-5 -4 -82 99q56 49 87 123.5t26 142.5q-6 97 -28 154q-28 69 -94 126z" />
    <glyph glyph-name="asterisk" unicode="*" horiz-adv-x="331" 
d="M109 670h40v-97l84 48l20 -35l-84 -48l84 -48l-20 -35l-84 48v-96h-40v96l-83 -48l-21 35l84 48l-84 48l21 35l83 -48v97z" />
    <glyph glyph-name="plus" unicode="+" horiz-adv-x="555" 
d="M231 -70l-12 15h141l12 -15h-141zM199 -31l-9 11h141l9 -11h-141zM567 -98h-169l-8 7h-140l8 -7h-170l14 -17h482zM604 -140l20 -24h-172l9 -13h-138l-10 13h-176l-19 23zM376 -253l23 -32h144l-24 32h-143zM313 219v-172h-141v172h-172v141h172v172h141v-172h171v-141
h-171zM337 -202l23 -28h141l-23 28h-141z" />
    <glyph glyph-name="comma" unicode="," horiz-adv-x="252" 
d="M14 174h174v-163q0 -2 -54 -71h-64l32 60h-88v174zM210 -18l14 -17l-60 1q6 8 13 17zM84 -17l-53 -1l13 -17l31 1q3 4 9 17zM89 -92h178l-20 27h-180z" />
    <glyph glyph-name="hyphen" unicode="-" horiz-adv-x="369" 
d="M100 -116h360l-17 21h-358zM480 -140h-357l16 -21h360zM362 353l-1 -148l-356 1v146z" />
    <glyph glyph-name="hyphen" unicode="&#x2010;" horiz-adv-x="369" 
d="M100 -116h360l-17 21h-358zM480 -140h-357l16 -21h360zM362 353l-1 -148l-356 1v146z" />
    <glyph glyph-name="period" unicode="." horiz-adv-x="213" 
d="M44 -35h180l-14 17h-179zM83 -86h178l-20 26h-177zM192 149v-147h-179v146z" />
    <glyph glyph-name="slash" unicode="/" horiz-adv-x="471" 
d="M50 -28l-21 12h121l20 -12h-120zM240 -67l-27 15h-122l23 -13zM287 -93l34 -21h-120l-39 21h125zM240 -137l42 -27l127 1l-45 25zM322 -185l60 -35h126l-62 35h-124zM501 -288l-78 45h126l83 -45h-131zM5 -1q286 698 290 698h125l-294 -698h-121z" />
    <glyph glyph-name="zero" unicode="0" horiz-adv-x="508" 
d="M12 177l-1 289q-3 56 39 93t102 37h154q56 -4 95 -41q41 -41 49 -110q-4 -283 -2 -283q-1 -130 -135 -161h-168q-65 17 -100 66q-33 46 -33 110zM229 457q-14 0 -25.5 -10.5t-11.5 -24.5l-1 -258q0 -14 12 -24.5t26 -10.5t26 10.5t12 24.5l-1 256q0 14 -11.5 25.5
t-25.5 11.5zM618 -246h-420q66 -44 180 -44h149q88 9 91 44zM59 -32h359q-24 9 -41 13h-289q-16 -4 -29 -13zM51 -70h193q14 6 20 6q-2 0 23 -6h196q-9 5 -24 16l-412 -1q0 -6 4 -15zM342 -116h181q-12 14 -17 21h-180zM85 -116h183l-20 21h-180zM388 -166h178l-22 26
l-179 -1zM128 -165l182 -1l-21 26h-184zM419 -222l192 -1q-4 7 -27 35h-182l19 -22q6 -7 -2 -12zM179 -220l190 -2q-15 4 -21 11l-20 23h-183z" />
    <glyph glyph-name="one" unicode="1" horiz-adv-x="374" 
d="M470 -246h-185l35 -38h186zM91 -31h186l-16 14l-181 -2q3 -3 11 -12zM124 -72l188 2l-14 15h-186zM168 -116h185l-18 21h-187zM213 -166h186l-24 26h-186zM264 -223l185 1l-31 33l-186 1zM71 595q-3 -595 0 -595h185v595h-185z" />
    <glyph glyph-name="two" unicode="2" horiz-adv-x="491" 
d="M623 -246h-391q56 -28 148 -28h125q108 0 118 28zM32 -31h402l-10 12h-402zM65 -70l402 1l-14 14h-401zM104 -116h411q-39 21 -80 21l-348 -1q5 -7 17 -20zM391 -166h180q-10 9 -27 26h-398q42 -16 104 -16h93q31 0 48 -10zM196 -223l423 1l-29 34h-179l10 -11q3 -3 3 -6
q0 -8 -21 -8q-34 0 -45 13l-9 12h-186q15 -20 33 -35zM6 405h185v27q-1 29 33 29q33 0 30 -30l1 -64q-5 -15 -13 -20t-29 -9h-93q-113 0 -113 -131v-207h402v144l-212 1v29q-2 20 18 27q15 5 36 1h80q46 8 69 31q28 30 33 92v157q-13 78 -74 102q-29 12 -84 11l-124 -1
q-81 -1 -114.5 -45.5t-30.5 -143.5z" />
    <glyph glyph-name="three" unicode="3" horiz-adv-x="495" 
d="M192 -246q46 -36 136 -44l237 -1q57 5 57 32q0 6 -3 13h-427zM353 -222q-8 5 -15 14h-181q3 -3 12 -15zM367 -188q24 -4 31 -12q11 -14 13 -22h192q-18 24 -29 34h-207zM218 -140l21 -26h300q-25 9 -53 11q34 5 42 15h-310zM320 -94q2 -4 7.5 -11t3.5 -11h189l-17 21z
M57 -95l16 -20h185q-6 6 -13 20h-188zM398 -31q-52 14 -81 13q143 0 -69 0h-80q-121 0 -68 0q-30 -3 -48 -13h346zM481 -70q-4 4 -21 14h-418q-3 -5 1 -13zM451 140q0 -53 -42 -97t-94 -44h-177q-72 4 -103 38q-35 39 -31 128l1 19l187 -1l2 -26q2 -21 35 -21q29 0 36 18
q2 7 2 44q0 42 -82 42q-13 0 -32.5 -1t-24.5 -1v129q4 0 22.5 -1t30.5 -1q78 0 78 36q0 35 -2 44q-6 26 -29 26q-38 0 -36 -54h-181l-1 30q-2 84 28 116q26 30 95 33q5 -3 72 -2q110 2 108 2q108 0 132 -99q4 -15 4 -34q1 -13 0 -35q-2 -25 -2 -36q0 -83 -63 -88
q67 -20 67 -76v-88z" />
    <glyph glyph-name="four" unicode="4" horiz-adv-x="549" 
d="M501 250v-132h-37v-118l-184 -1v118h-280v119l189 359h273v-345h39zM481 -31h-185l-12 14h186zM518 -69h-185l-15 13l183 1zM592 -166h-185l-21 26h185zM639 -222h-185l-29 34h185zM696 -291l-273 1q-7 1 -91 44h327zM588 -116h-500l-21 26h499zM445 -222l-159 -1l-68 35
h163zM342 -166h-167l-50 26h169zM278 246l-1 222l-101 -222h102z" />
    <glyph glyph-name="five" unicode="5" horiz-adv-x="478" 
d="M215 -290l400 -1l-37 45h-401zM58 -31h312q-51 13 -81 13h-147q-49 0 -84 -13zM37 -70h421q-7 5 -23 15h-402q-3 -3 -1 -8q3 -3 5 -7zM230 -94h-177l21 -22h172zM316 -116h186l-18 21h-186zM110 -166h429q-3 10 -16 26h-204q-1 -7 -19 -7q-12 0 -20 7h-192zM539 -188
h-213q53 -17 123 -18q75 -1 90 18zM157 -223l179 1l-32 34h-176zM-2 596h104h192t104 0v-145h-221v-104q29 33 57 45q24 9 69 10q68 2 99 -32q23 -27 30 -84v-145q-1 -63 -43 -104q-38 -38 -86 -38q-1 0 -77 1h-80q-74 0 -115 45q-34 40 -34 98q0 10 1 21h179v-21
q0 -26 28 -26q16 0 28.5 10.5t12.5 27.5v72q0 37 -34 37q-15 0 -26.5 -10t-11.5 -25h-177z" />
    <glyph glyph-name="six" unicode="6" horiz-adv-x="434" 
d="M473 -116h-171q-1 2 -12 16l-5 5l166 1q9 -8 22 -22zM336 -30l-291 -1q29 12 70 12h120q62 -2 101 -11zM429 -69l-405 -1q-3 9 -2 15h386q6 -2 21 -14zM488 -140q6 -17 -5 -26h-385l-22 26h412zM547 -222l-401 -1q-2 2 -3 4l-27 31h180q4 -6 13 -18q14 -16 50 -16
q18 0 18 9q0 4 -5 9l158 1q10 -11 17 -19zM561 -246q3 -6 3 -12q0 -27 -65 -33l-180 1q-87 7 -145 44h387zM233 -116h-177l-12 14q-3 4 -6 7h177q6 -10 18 -21zM199 0q-119 0 -166 68q-35 53 -35 167q0 31 3 99.5t3 103.5q0 68 42 113.5t110 45.5h105q149 0 144 -160l-1 -33
h-158q0 40 -28 40q-14 0 -25 -10.5t-11 -24.5q0 -6 2 -40q1 -25 -1 -41q42 30 106 30q76 0 107 -45q25 -37 25 -117q0 -120 -52 -161q-45 -35 -170 -35zM216 240q-24 0 -31 -16q-5 -10 -5 -36q0 -56 38 -56q22 0 29 13q4 8 4 32v11v19q-1 12 -12 22.5t-23 10.5z" />
    <glyph glyph-name="seven" unicode="7" horiz-adv-x="427" 
d="M252 -290h366l-37 44h-369zM224 -31l-21 14h-185l22 -14h184zM103 -70l-23 15h188l26 -15h-191zM178 -116l-34 21h194l38 -21h-198zM421 -140l46 -26h-205l-43 26h202zM177 -204h146l-28 16h211q19 -12 58 -34h-369zM373 437q0 -8 -178 -437h-197l163 438l-160 -2v160
h372v-159z" />
    <glyph glyph-name="eight" unicode="8" horiz-adv-x="476" 
d="M520 -116h-172q-4 12 -19 21l171 1q7 -7 20 -22zM277 -116q-19 17 -19 21h-168q5 -7 16 -21h171zM597 -222q-6 7 -27.5 19.5t-33.5 14.5l-306 -2q-25 -9 -25 -19q0 -6 6 -13l154 -1q-5 6 -5 14q0 14 23 14q14 1 32 -7t24 -21zM156 -18q-51 -2 -73 -14h321q-41 12 -84 14
h-164zM473 -70h-400q-6 6 -13 17l393 -2q10 -6 20 -15zM136 -140q36 -20 89 -25h250q47 0 52 24zM443 -244q-5 0 -14 -3.5t-14 -3.5q-10 -2 -20 2.5t-12 4.5h-153q29 -25 43 -33q27 -14 64 -14h229q44 9 44 33q0 6 -3 14q7 0 -164 0zM247 420q0 38 -29 38q-28 0 -28 -43
q0 -38 28 -38q29 0 29 43zM259 172q-1 21 -3 43q-6 22 -33 22q-25 0 -33 -20q-3 -10 -3 -39q0 -16 10.5 -29t28.5 -13q22 2 29 17q2 9 4 19zM430 175q0 -100 -43.5 -139.5t-146.5 -37.5l-34 1q-116 4 -153 27q-53 34 -53 144q0 7 -1 24q-1 15 0 23q0 12 4 23q18 52 81 68
q-51 33 -62 56q-10 20 -10 78q0 104 51 138q39 26 147 26q101 0 149 -31q58 -38 58 -133q0 -118 -72 -127q60 -28 72.5 -63t12.5 -77z" />
    <glyph glyph-name="nine" unicode="9" horiz-adv-x="486" 
d="M141 -17l200 -1q15 0 61 -13h-304q17 11 43 14zM92 -70q-6 10 -2 15l375 1q2 -1 21 -16h-394zM272 -95q0 -3 6 -10h-158q-6 6 -10 11zM329 -95q7 -6 21 -21h180l-18 22zM163 -166q-3 16 10 25q189 0 153 0h224l21 -24zM589 -188q17 -20 26 -35l-180 1q1 0 0 9q0 5 -12 16
q-3 3 -14 9h180zM172 -188q9 -13 28 -35h174q-5 4 -9 8q-1 1 -13 17q-6 7 -4 10h-176zM226 -246q51 -33 109 -41q13 -2 84 -3q113 -5 165 9q44 12 40 35h-398zM172 594q-9 0 32 1h54q93 -2 133 -51q36 -44 36 -136l2 -251q1 -67 -40.5 -113t-111.5 -46h-92q-101 -2 -136 56
q-25 42 -20 137h158q1 -40 29 -40q13 0 24 10t12 25q-3 27 -2 81q-12 -8 -26 -14q-33 -14 -68 -16q-86 -4 -121 53q-25 42 -25 125q0 19 2 53q2 56 54 93q48 33 106 33zM183 388q0 -12 11.5 -22.5t23.5 -10.5q32 0 35 33q3 38 0 46q-11 29 -37 29q-33 0 -33 -29v-46z" />
    <glyph glyph-name="colon" unicode=":" horiz-adv-x="239" 
d="M191 -19h-169l11 -13h176zM226 -57l-172 -2l12 -15h179zM352 -197l-24 24l-174 -1l19 -23h179zM195 -221l19 -24l184 -2l-24 26h-179zM186 506l1 -170h-178v170h177zM12 172l176 1l-1 -174h-173z" />
    <glyph glyph-name="semicolon" unicode=";" horiz-adv-x="252" 
d="M183 497l1 -163l-177 -1l-2 164h178zM352 -197l-20 23h-178l19 -23h179zM195 -221l19 -24l184 -2l-24 26h-179zM14 174h174v-163q0 -2 -54 -76h-64l32 65h-88v174zM210 -18l14 -17l-52 1q7 8 13 17zM75 -17l-44 -1l13 -17l23 1q3 4 8 17zM97 -109h179l-21 27h-180z" />
    <glyph glyph-name="less" unicode="&#x3c;" horiz-adv-x="350" 
d="M28 244l238 188l29 -26l-207 -162l205 -152l-30 -26z" />
    <glyph glyph-name="equal" unicode="=" horiz-adv-x="648" 
d="M661 -92l-27 34h-574l27 -34h574zM124 -140h578l29 -37h-577zM583 199v-96l-577 1l-1 95h578zM583 386l1 -94l-578 -1l-1 95h578z" />
    <glyph glyph-name="greater" unicode="&#x3e;" horiz-adv-x="352" 
d="M57 66l-29 26l204 152l-207 162l30 26l237 -189z" />
    <glyph glyph-name="question" unicode="?" horiz-adv-x="434" 
d="M348 -79h-177l-24 24l180 1zM115 -20h183l16 -19h-179zM241 -166h285q-31 19 -78 26l-229 -1zM183 -96l178 1l21 -24h-180zM158 -207h181q4 -6 27 -16h-195q-4 6 -13 16zM548 -187h-186q8 -3 20 -18q8 -10 8 -9q0 -2 -7 -9l199 1q-12 12 -34 35zM338 -289h91.5h90.5
q84 7 75 43h-398q50 -37 141 -43zM409 373q0 -112 -115 -112q2 0 0 -78h-181l1 115q0 34 24 51q20 14 46 10q20 -2 30 5q16 12 14 47q-1 18 -4 24q-5 13 -23 13q-19 0 -22 -18q-1 -8 1 -19h-181l1 25q0 163 145 160q64 -1 114 0q64 1 106 -35.5t44 -89.5v-98zM294 149v-147
h-179l1 146z" />
    <glyph glyph-name="at" unicode="@" horiz-adv-x="364" 
d="M0 -289v-53h363v53h-363zM0 -22v-14h363v15zM0 -64v-18h363v17zM0 -112v-24h363v25zM0 -165v-30l363 -1v31h-363zM0 -221v-41l363 1v41z" />
    <glyph glyph-name="A" unicode="A" horiz-adv-x="551" 
d="M518 0h-93h-93q-2 -2 -16 77l-109 1l-14 -78h-188l131 596h265zM533 -31h-187q-3 4 -7 11h188zM596 -166h-176l-15 26h179zM550 -71l-462 1l-21 15h476zM573 -116h-180l-4 5q-17 -1 -66 0l6 -6h-176l-32 22h442zM622 -222l-323 -1l-47 36l160 -1l22 -19h10l-12 19h174z
M652 -285h-268l-53 39l302 1zM385 -166h-164l-36 26h173zM219 -31h-186l-19 11h193zM295 210q-9 57 -31 213l-8 2l-27 -216q66 2 66 1z" />
    <glyph glyph-name="B" unicode="B" horiz-adv-x="495" 
d="M443 216v-115q-1 -56 -48 -84q-34 -20 -65 -17h-329v596q207 -2 314 1q53 1 86.5 -28.5t34.5 -72.5q0 -1 -1 -65q0 -65 0 -64q-4 -31 -13 -46q-13 -19 -43 -30q64 -21 64 -75zM541 -116l-186 1q-1 5 -4 12q-2 2 -9 8h180zM631 -223h-209l10 5q5 3 5 10q-1 7 -4.5 10.5
t-9.5 10.5l175 -1zM499 -70h-442l-14 15h441q5 -4 15 -15zM432 -31l-409 1l-12 11h366q29 -4 55 -12zM568 -166h-424l-24 26h416q-9 -4 -31 -8q42 -6 63 -18zM646 -246q3 -5 3 -10q0 -30 -84 -30l-314 1l-35 39h430zM292 -116h-194l-18 21h193zM385 -223h-189l-33 35h193z
M259 403q-3 53 -25 53h-43v-105l43 1q21 -1 25 51zM264 192q-1 15 -3 26q-7 26 -23 26h-43l-1 -109h41q29 3 29 57z" />
    <glyph glyph-name="C" unicode="C" horiz-adv-x="465" 
d="M619 -246h-390q66 -39 148 -39h167q76 0 76 32q0 4 -1 7zM68 -31h321q-39 12 -63 12h-215q-29 -3 -43 -12zM61 -70h401q-9 8 -20 15h-387q1 -7 6 -15zM329 -116h175l-19 21h-174zM101 -116h180l-19 21h-183zM146 -166h181l-24 26h-180zM417 -222h186l-32 34h-177l21 -23
q7 -8 2 -11zM197 -223l193 1q-9 3 -23 11l-21 23l-180 1zM232 362v70q0 31 -24 31t-24 -31v-265q2 -30 25 -30q25 0 23 30v76h175v-124q-13 -106 -122 -118h-158q-42 -5 -77 26q-40 35 -47 101v332q16 127 124 136h167q49 0 81 -34t34 -91v-109h-177z" />
    <glyph glyph-name="D" unicode="D" horiz-adv-x="481" 
d="M426 157q1 -69 -44.5 -113.5t-104.5 -44.5q-136 1 -276 1q-1 -1 -1 596h272q65 2 110 -43t45 -112q0 -10 -1 -20q-1 0 -1 -132q0 -124 1 -132zM520 -116h-186l-21 21h188zM565 -166l-185 1l-23 25h187zM476 -70h-420l-14 15h411q13 -7 23 -15zM618 -222h-424l-33 35
l186 -1l27 -30h25q20 0 15 13l-15 18l186 -1q11 -10 33 -34zM390 -31h-369q-8 9 -11 12h315q33 -3 65 -12zM627 -246q-2 -39 -105 -39h-272l-36 39h413zM282 -116h-185q-6 5 -19 21h187zM327 -166h-185l-23 26h186zM236 171v246q-6 26 -26 29h-25q-1 -305 0 -305h24
q11 0 19 10.5t8 19.5z" />
    <glyph glyph-name="E" unicode="E" horiz-adv-x="439" 
d="M593 -246h-378l35 -40h377zM24 -32h379l-11 12h-378zM57 -70h379l-14 15h-379zM98 -116h190q-5 8 -14 20h-194zM143 -166h377l-24 26l-375 1zM194 -223l377 1l-13 13h-189l-20 21l-186 1zM0 595l1 -595h380l-1 170q0 1 -94 0t-94 0q0 59 -1 59h186v143h-190v56h191v168z
" />
    <glyph glyph-name="F" unicode="F" horiz-adv-x="413" 
d="M574 -246h-357l36 -40h357zM22 -31h185l-11 13l-185 -1zM57 -70h185l-14 15h-184zM264 -95h-184l19 -21h184q-1 1 -19 21zM145 -166h356l-23 26h-357zM196 -223l356 1l-13 15l-171 -1l-18 20h-186zM3 596l-1 -597q185 0 185 2v215q172 0 172 1v149l-171 -1v57l172 -2v176
h-357z" />
    <glyph glyph-name="G" unicode="G" horiz-adv-x="482" 
d="M629 -246q3 -5 3 -10q0 -30 -94 -29h-156q-89 -9 -161 39h408zM61 -31q10 6 40 13q87 1 235 0q37 -3 95 -13h-370zM62 -70q-6 5 -13 15h414q11 -7 17 -14l1 -1h-419zM317 -115q-9 10 -9 11h34l-10 10h178l19 -21h-212zM98 -114l-19 20h182l19 -20h-182zM356 -166l-25 26
h213l23 -26h-211zM143 -166l-23 26h182l24 -26h-183zM433 -222q3 4 -2 10l-21 21h173l30 -31h-180zM195 -224q-13 13 -34 36h183q12 -15 41 -37q-93 -1 -190 1zM425 115q1 -45 -36 -80t-91 -35h-171q-56 0 -90.5 34t-35.5 83q0 11 -1 179q0 178 1 178q3 55 35 89.5t77 34.5
q10 0 19 -2l156 1q132 0 132 -120l-1 -91h-173v48q0 35 -31 35q-32 0 -32 -35v-269q-1 -29 30 -29q30 0 33 29q0 2 2 31h-35q-1 0 0 142h211z" />
    <glyph glyph-name="H" unicode="H" horiz-adv-x="495" 
d="M465 -246l36 -40l183 1l-37 39h-182zM215 -246l35 -39h180l-36 39h-179zM164 -188l31 -35h179l-28 31h69l29 -31h187l-32 35h-435zM120 -140l24 -26h435l-23 26h-436zM207 -31l-12 12l-184 1l11 -13h185zM242 -70l-13 15h-185l13 -14zM282 -116l-18 21h-185l19 -21h184z
M334 -95l20 -21h179l-19 21h-180zM299 -55l13 -15h180l-13 15h-180zM266 -19l12 -11l179 -1l-11 12h-180zM436 0h-180l-1 243l-70 -1l1 -241l-185 -1v597h179v-211h70l1 211h185v-597z" />
    <glyph glyph-name="I" unicode="I" horiz-adv-x="246" 
d="M400 -246h-185l35 -38h186zM21 -31h186l-15 13l-182 -1q3 -3 11 -12zM54 -72l188 2l-14 15h-186zM98 -116h185l-18 21h-187zM143 -166h186l-24 26h-186zM194 -223l185 1l-31 33l-186 1zM1 595q-3 -595 0 -595h185v595h-185z" />
    <glyph glyph-name="J" unicode="J" horiz-adv-x="309" 
d="M296 -290l181 -1l-38 45h-181zM13 -29q1 0 3 -2h195q-35 10 -56 13q-52 7 -98 0q-17 -1 -44 -11zM48 -70h244v1q-6 6 -20 14h-237zM149 -116h181l-17 21h-243l8 -10q25 6 35 6q22 0 36 -17zM191 -166h182l-22 26h-181zM239 -223l181 1l-29 34l-185 1zM66 596l183 1
l-1 -483q0 -38 -39 -75q-44 -41 -105 -41q-48 0 -100 28q0 95 1 151q16 -6 29 -6q32 0 32 43v382z" />
    <glyph glyph-name="K" unicode="K" horiz-adv-x="491" 
d="M517 -291h176l-79 45h-174zM227 -290l184 -1l-38 45h-182zM262 -31h180q0 8 8 12h-177q-15 -3 -11 -12zM13 -30h184l-10 11h-184zM292 -69h178l-13 15h-177zM44 -70h183l-13 15h-183zM310 -116h199l-17 21h-179l5 -6q9 -9 -8 -15zM82 -116h183q-4 6 -16 21h-184z
M124 -167h393q12 0 12 9q0 7 -8 18h-417zM401 -222h172l-61 34h-169zM176 -224l179 -1l-32 37h-180zM-3 598l185 -3l-2 -269l109 270h175l-107 -255q28 3 51 -31q18 -27 18 -44v-216q0 -35 28 -50h-155q-50 0 -50 42l-1 140q0 15 -12 26t-27 11h-25q-2 0 0 -220h-184z" />
    <glyph glyph-name="L" unicode="L" horiz-adv-x="356" 
d="M374 -246h-172l37 -44q1 -1 172 0zM22 -32h306l-10 12l-307 -1zM54 -71h309l-15 15h-307zM92 -116h173l-11 12q0 -1 136 0l-10 9h-306zM134 -166h173l-21 26h-174zM181 -223l174 1l-30 34l-172 1zM7 595v-595h307v175q-131 4 -131 2.5t-1 207.5v210q-175 2 -175 0z" />
    <glyph glyph-name="M" unicode="M" horiz-adv-x="650" 
d="M428 -247l-233 1l35 -43h208zM771 -246h-242l60 -43h218zM424 -31h167l-10 12h-166zM257 -31h94q-11 8 -17 12h-80zM18 -30h160l-11 11h-160zM456 -70h168l-13 15h-168zM267 -70h139l-23 16h-120zM48 -70h161l-12 15h-161zM497 -117h167l-19 22h-166zM278 -116h192
l-26 21h-172zM87 -116h160l-18 21h-160zM536 -166h169l-23 27h-167q8 -11 21 -27zM292 -166h118l-2 7l11 -7h118q-12 7 -40 26h-214zM128 -166l160 1l-24 24h-157zM497 -222h255l-32 34h-266zM175 -223l247 -1l-6 36h-270zM1 595l-2 -595l164 -1l-1 335l91 -334h75
q2 0 44 169.5t39 169.5q-4 0 0 -339h167l-1 597l-219 -2l-70 -281l-80 282z" />
    <glyph glyph-name="N" unicode="N" horiz-adv-x="525" 
d="M554 -289h165l-37 43h-166zM247 -289h195v43h-233zM288 -31h213l-12 13h-202zM27 -31l173 1l-13 13h-172q3 -3 12 -14zM292 -70h242l-12 14h-231zM59 -70h173l-13 15h-173zM298 -117l278 -2l-21 24h-259zM98 -116h173l-19 21h-172zM143 -167h301v24l14 -24h160l-24 27
l-291 -1l-1 -21l-14 21h-169zM497 -222h165l-28 34h-165zM189 -223l252 1l1 35h-282zM0 597q-5 -597 -1 -597h87.5t83.5 0v285l98 -285h204v596h-165l-1 -286l-114 287h-192z" />
    <glyph glyph-name="O" unicode="O" horiz-adv-x="508" 
d="M12 177l-1 289q-3 56 39 93t102 37h154q56 -4 95 -41q41 -41 49 -110q-1 -284 1 -284q-2 -128 -138 -160q3 0 -46.5 0h-79.5h-42q-65 17 -100 66q-33 46 -33 110zM229 457q-14 0 -25.5 -10.5t-11.5 -24.5l-1 -258q0 -14 12 -24.5t26 -10.5t26 10.5t12 24.5l-1 256
q0 14 -11.5 25.5t-25.5 11.5zM618 -246h-420q66 -44 180 -44h149q88 9 91 44zM55 -31h362q-19 7 -40 12h-289q-23 -6 -33 -12zM53 -70h191q14 6 20 6q1 0 24 -6h195q-6 5 -22 16h-414q0 -2 6 -16zM342 -116h181q-12 14 -17 21h-182zM86 -116h185l-20 21h-182zM384 -166h182
l-22 26l-181 -1zM127 -166h183l-22 26h-183zM418 -222h193q-2 3 -28 35h-182l19 -23q6 -7 -2 -12zM174 -223l198 1q-19 6 -24 11l-24 24l-179 -1z" />
    <glyph glyph-name="P" unicode="P" horiz-adv-x="495" 
d="M240 -289l-38 43h432q1 -19 -26 -32t-71 -13zM22 -31l-11 14h178q5 -4 15 -14h-182zM55 -70l-13 15h182l12 -15h-181zM93 -116l-17 21h343q38 -7 74 -21h-400zM135 -166l-21 26h431q17 -11 30 -26h-203q-8 5 -20 5h-34l3 -5h-186zM185 -224l-31 37l185 -1l27 -30
q12 1 33 0q16 2 10 13q-3 4 -14 17h198l33 -36h-441zM1 596h266q66 2 114 -31q52 -36 60 -98v-154q0 -56 -46 -106q-49 -52 -110 -52h-102l-1 -155h-180zM187 447v-134h36q16 0 20 33q2 0 0 72q-4 29 -29 29h-27z" />
    <glyph glyph-name="Q" unicode="Q" horiz-adv-x="529" 
d="M57 -30h363q-10 4 -43 11h-289q-12 -1 -31 -11zM121 -4q-59 15 -91 61q-29 41 -29 96q0 10 1 20v300q0 50 44 88t103 38h149q128 -26 143 -157q-2 -284 0 -284l2 -22q6 -14 35 -44t29 -29q0 -2 -39 -82l-56 56q-1 -30 -35 -38q-19 -2 -38 -3h-218zM221 459
q-14 0 -25.5 -10.5t-11.5 -24.5l-1 -280q0 -14 12 -24.5t26 -10.5t26 10.5t12 24.5l-1 278q0 14 -11.5 25.5t-25.5 11.5zM618 -246h-420q66 -44 180 -44h149q88 9 91 44zM53 -70h191q14 6 20 6q1 0 24 -6h195q-6 5 -22 16h-417q0 3 9 -16zM342 -116h181q-12 14 -17 21h-182z
M86 -116h185l-20 21h-182zM384 -166h182l-22 26l-181 -1zM127 -166h183l-22 26h-183zM418 -222h193q-2 3 -28 35h-182l19 -23q6 -7 -2 -12zM174 -223l198 1q-18 6 -24 11l-25 23l-179 1z" />
    <glyph glyph-name="R" unicode="R" horiz-adv-x="516" 
d="M183 445v-136h33q24 0 29 40q1 5 1 18q0 70 -36 74zM187 186l1 -186h-186l2 597l276 -1q156 -2 159 -145l2 -105q1 -50 -40 -98q42 -15 42 -77q0 -14 -2 -44t-2 -44q0 -61 35 -83v0h-161q-65 0 -65 82q0 13 1.5 39t1.5 37q0 23 -23 27q-5 1 -41 1zM555 -290h-314l-40 44
h430q6 -44 -76 -44zM276 -31q8 13 46 13h164q-20 -3 -23 -13h-187zM196 -19h-185l11 -12h184zM227 -55h-185l14 -15h183zM476 -55l18 -15h-190l-13 15h185zM73 -95h185l8 -9h56q-1 4 -2 9h190q10 -11 -3 -20h-416zM346 -159l-38 1l6 -8h-179l-22 25h405q21 0 35 -9l20 -16
h-208q-5 3 -19 7zM330 -187h-177l31 -36h178zM591 -188l29 -35h-232q16 11 16 15q0 3 -14 20h201z" />
    <glyph glyph-name="S" unicode="S" horiz-adv-x="469" 
d="M560 -289q54 5 54 31q0 6 -4 12h-410q48 -37 134 -43h226zM133 -19q-33 -2 -59 -12h323q-14 6 -85 12h-179zM44 -54q5 -6 13 -17h416q-10 10 -20 17h-409zM262 -95l18 -22l-192 1l-16 21h190zM308 -95l18 -21h186l-19 21h-185zM133 -167q-16 15 4 27h395q6 -16 -3 -27
h-396zM146 -188q11 -13 31 -35l191 1l-30 34h-192zM417 -222l-20 21q179 1 180 0l19 -21h-179zM0 198l186 -1v-31q0 -25 24 -25q25 0 25 25l-1 33q0 38 -48 34q-24 -3 -87 0q-103 3 -103 104v134q0 58 51 96q40 29 76 29q157 -2 176 0q43 3 81 -32t38 -74l-1 -68
q0 -2 -182 0v18q0 22 -25 22q-26 0 -26 -29v-22q-1 -32 31 -33l96 -2q51 -14 70.5 -28t38.5 -53v-176q0 -100 -134 -118h-131q-66 0 -110.5 34.5t-44.5 89.5v73z" />
    <glyph glyph-name="T" unicode="T" horiz-adv-x="439" 
d="M596 -246h-380l36 -39h379q-9 10 -35 39zM122 -32l191 1l-11 12h-191zM155 -70h193l-14 15h-194zM197 -116h192l-19 21h-192zM242 -166h193l-24 26h-192zM195 -223l381 1l-8 9h-91l-23 25l-194 1l24 -25h-98q1 -1 9 -11zM0 596h386v-161h-94v-433h-191l-1 432h-99
q-2 0 -1 162z" />
    <glyph glyph-name="U" unicode="U" horiz-adv-x="493" 
d="M89 -31h313q-29 8 -63 12h-208q-19 0 -42 -12zM67 -70h427q-12 8 -26 15h-401q-2 -7 0 -15zM438 161q-2 -128 -138 -160q3 0 -46.5 0h-78.5h-42q-66 17 -101 66q-33 46 -33 110l-1 420h180q2 -170 0 -433q0 -14 11 -27t25 -14q40 -2 40 41l-1 433h186q0 -2 -1 -229
q-2 -207 0 -207zM650 -246h-185l35 -38h186zM348 -116h185l-18 21h-187zM393 -166h186l-24 26h-186zM444 -223l185 1l-34 35l-183 -1zM400 -246h-185l35 -38h186zM97 -115l186 -1l-18 21h-187zM143 -166h186l-24 26h-186zM194 -223l185 1l-31 35l-186 -1z" />
    <glyph glyph-name="V" unicode="V" horiz-adv-x="555" 
d="M423 -246l-188 1l17 -40h193zM706 -245l-184 -1l50 -39h188zM143 -31h275l-18 10h-263zM160 -70h310l-20 15h-297zM532 -116l-28 21h-333l9 -21h352zM420 -166h180l-35 26h-180zM201 -166h180l-16 26h-175zM492 -222h183l-47 35h-180zM227 -223h184l-20 35h-180zM3 594
l126 -595h262l118 595h-186q-68 -389 -66 -389q3 0 -63 389h-191z" />
    <glyph glyph-name="W" unicode="W" horiz-adv-x="801" 
d="M420 -246h-176l18 -39h179zM699 -246h-196l49 -39h168zM1003 -286l-48 40h-172l47 -39q46 0 173 -1zM459 -31h209q-7 5 -18 12h-198q2 -3 7 -12zM144 -31h208l-20 13h-195zM481 -70h240l-20 15h-231zM162 -70h241l-23 15h-225zM506 -116h277l-28 21h-261zM184 -115h274
l-26 20h-257zM689 -166h162l-35 26h-155zM534 -166h122l-18 26h-118zM407 -166h110l-32 26h-110zM207 -166h167l-18 26h-161zM756 -223h169l-46 36h-169zM475 -222l211 -1l-23 36h-230zM234 -223h173l-23 35h-167zM5 597l124 -598l196 1l63 348l54 -349h198l119 597
q-179 -2 -179 0t-24.5 -189t-24.5 -192l-60 381l-170 1l-53 -380l-64 380h-179z" />
    <glyph glyph-name="X" unicode="X" horiz-adv-x="504" 
d="M427 -246h-166l-3 -40h170zM644 -246h-171l71 -39q3 -1 179 0zM304 -31h178q1 5 2 12h-182zM28 -31h185q-15 9 -21 12h-188q7 -3 24 -12zM312 -70h167l1 15h-171zM104 -70h178l-27 15h-180zM195 -116h280l2 21h-323zM269 -166h220l-17 9l1 17h-230l27 -14zM263 -223
l337 1l-69 34l-264 1zM7 597l131 -293l-145 -305h187l63 160l50 -159l182 -1l-138 313l136 285q-177 2 -180 0q-2 -2 -58 -146l-55 146h-173z" />
    <glyph glyph-name="Y" unicode="Y" horiz-adv-x="517" 
d="M405 -246h-162l7 -39h169zM673 -246h-174l55 -38h183q-15 10 -64 38zM162 -31h186l-11 12h-190zM197 -70h187l-14 15h-186zM219 -116h229l-36 21h-197zM228 -166h148l-3 16l19 -16h144l-45 26h-268zM465 -222h168l-57 34h-155zM238 -223h160l-16 35h-150zM0 595l141 -438
l1 -158h185v158q165 438 163 438h-184l-68 -279l-68 279h-170z" />
    <glyph glyph-name="Z" unicode="Z" horiz-adv-x="435" 
d="M599 -246h-361l37 -41h360q-9 11 -36 41zM22 -31h375l-10 12h-378zM57 -70h375l-13 15h-376zM146 -116h189l-50 21h-188zM265 -166h191l-62 26h-190zM217 -223h367q-3 3 -8 7q-15 6 -69 28l-194 1l70 -29h-172zM22 597l1 -155l173 2l-195 -297v-146h376v157
q-184 -3 -182 0q3 3 98 143.5t93 141.5q-2 3 -1 154h-363z" />
    <glyph glyph-name="bracketleft" unicode="[" horiz-adv-x="257" 
d="M7 602h185v-78h-73v-448h73v-77h-185v603zM209 -17h-187l13 -14l186 -1zM168 -54h-112l12 -16l112 1zM106 -116l-17 21h112l18 -20zM152 -166l-25 26h112l24 -26h-111zM279 -188h-111l28 -35l112 1zM252 -289l-36 43l115 1l9 -14h75l24 -32z" />
    <glyph glyph-name="backslash" unicode="\" horiz-adv-x="11" 
 />
    <glyph glyph-name="bracketright" unicode="]" horiz-adv-x="257" 
d="M232 -290h187l-38 45l-114 -1l10 -10h-73zM17 -31h187l-8 14h-189zM121 -70h116l-13 15h-115zM160 -116h115l-18 21h-114zM202 -166h114l-21 26h-114zM252 -223l111 1l-29 34h-113zM188 599h-186v-75h74v-448h-74v-77h186v600z" />
    <glyph glyph-name="asciicircum" unicode="^" horiz-adv-x="377" 
d="M164 662q-38 -8 -133 -39l-4 18l135 86l151 -86l-4 -18q-53 15 -145 39z" />
    <glyph glyph-name="underscore" unicode="_" horiz-adv-x="26" 
 />
    <glyph glyph-name="grave" unicode="`" horiz-adv-x="633" 
d="M402 670q-218 90 -218 86q0 -6 -8.5 -36t-11.5 -30q-5 0 233 -41z" />
    <glyph glyph-name="a" unicode="a" horiz-adv-x="566" 
d="M518 0h-93h-93q-2 -2 -16 77l-109 1l-14 -78h-188l131 596h265zM529 -33h-182q-3 5 -8 13l184 -1zM596 -166h-176l-15 26h179zM549 -70h-461l-21 15l475 1zM573 -116h-180l-4 5q-20 0 -67 1l7 -7h-176l-32 22h442zM622 -222l-323 -1l-47 36l160 -1l22 -19h10l-12 19h174z
M652 -285h-268l-53 39l302 1zM385 -166h-164l-36 27l173 -1zM222 -33h-186l-22 13h193zM295 210q-9 57 -31 213l-8 2l-27 -216q66 2 66 1z" />
    <glyph glyph-name="b" unicode="b" horiz-adv-x="495" 
d="M443 216v-115q-1 -56 -48 -84q-34 -20 -65 -17h-329v596q207 -2 314 1q53 1 86.5 -28.5t34.5 -72.5q0 -1 -1 -65q0 -65 0 -64q-4 -31 -13 -46q-13 -19 -43 -30q64 -21 64 -75zM541 -116l-186 1q-1 5 -4 12q-2 2 -9 8h180zM631 -223h-209l10 5q5 3 5 10q-1 7 -4.5 10.5
t-9.5 10.5l175 -1zM499 -70h-442l-14 15h441q5 -4 15 -15zM432 -31l-409 1l-12 11h366q29 -4 55 -12zM568 -166h-424l-24 26h416q-9 -4 -31 -8q42 -6 63 -18zM646 -246q3 -5 3 -10q0 -30 -84 -30l-314 1l-35 39h430zM292 -116h-194l-18 21h193zM385 -223h-189l-33 35h193z
M259 403q-3 53 -25 53h-43v-105l43 1q21 -1 25 51zM264 192q-1 15 -3 26q-7 26 -23 26h-43l-1 -109h41q29 3 29 57z" />
    <glyph glyph-name="c" unicode="c" horiz-adv-x="465" 
d="M619 -246h-390q66 -39 148 -39h167q76 0 76 32q0 4 -1 7zM68 -31h321q-39 12 -63 12h-215q-29 -3 -43 -12zM61 -70h401q-9 8 -20 15h-387q1 -7 6 -15zM329 -116h175l-19 21h-174zM101 -116h180l-19 21h-183zM146 -166h181l-24 26h-180zM417 -222h186l-32 34h-177l21 -23
q7 -8 2 -11zM197 -223l193 1q-9 3 -23 11l-21 23l-180 1zM232 362v70q0 31 -24 31t-24 -31v-265q2 -30 25 -30q25 0 23 30v76h175v-124q-13 -106 -122 -118h-158q-42 -5 -77 26q-40 35 -47 101v332q16 127 124 136h167q49 0 81 -34t34 -91v-109h-177z" />
    <glyph glyph-name="d" unicode="d" horiz-adv-x="482" 
d="M426 157q1 -69 -44.5 -113.5t-104.5 -44.5q-136 1 -276 1q-1 -1 -1 596h272q65 2 110 -43t45 -112q0 -10 -1 -20q-1 0 -1 -132q0 -124 1 -132zM520 -116h-186l-21 21h188zM565 -166l-185 1l-23 25h187zM476 -70h-420l-14 15h411q13 -7 23 -15zM618 -222h-424l-33 35
l186 -1l27 -30h25q20 0 15 13l-15 18l186 -1q11 -10 33 -34zM390 -31h-369q-8 9 -11 12h315q33 -3 65 -12zM627 -246q-2 -39 -105 -39h-272l-36 39h413zM282 -116h-185q-6 5 -19 21h187zM327 -166h-185l-23 26h186zM236 171v246q-6 26 -26 29h-25q-1 -305 0 -305h24
q11 0 19 10.5t8 19.5z" />
    <glyph glyph-name="e" unicode="e" horiz-adv-x="439" 
d="M593 -246h-378l35 -40h377zM24 -32h379l-11 12h-378zM57 -70h379l-14 15h-379zM98 -116h190q-5 8 -14 20h-194zM143 -166h377l-24 26l-375 1zM194 -223l377 1l-13 13h-189l-20 21l-186 1zM1 596v-596h379v170q0 1 -94 0t-94 0q0 59 -1 59h186v144l-190 -1v56h191v168
h-377z" />
    <glyph glyph-name="f" unicode="f" horiz-adv-x="413" 
d="M574 -246h-357l36 -40h357zM22 -31h185l-11 13l-185 -1zM57 -70h185l-14 15h-184zM264 -95h-184l19 -21h184q-1 1 -19 21zM145 -166h356l-23 26h-357zM196 -223l356 1l-13 15l-171 -1l-18 20h-186zM3 596l-1 -597q185 0 185 2v215q172 0 172 1v149l-171 -1v57l172 -2
l1 175z" />
    <glyph glyph-name="g" unicode="g" horiz-adv-x="482" 
d="M629 -246q3 -5 3 -10q0 -30 -94 -29h-156q-89 -9 -161 39h408zM61 -31q10 6 40 13q87 1 235 0q37 -3 95 -13h-370zM62 -70q-6 5 -13 15h414q11 -7 17 -14l1 -1h-419zM317 -115q-9 10 -9 11h34l-10 10h178l19 -21h-212zM98 -114l-19 20h182l19 -20h-182zM356 -166l-25 26
h213l23 -26h-211zM143 -166l-23 26h182l24 -26h-183zM433 -222q3 4 -2 10l-21 21h173l30 -31h-180zM194 -223q-10 11 -32 35h184l21 -24q6 -6 16 -10zM425 115q1 -45 -36 -80t-91 -35h-171q-56 0 -90.5 34t-35.5 83q0 11 -1 179q0 178 1 178q3 55 35 89.5t77 34.5
q10 0 19 -2l156 1q132 0 132 -120l-1 -91h-173v48q0 35 -31 35q-32 0 -32 -35v-269q-1 -29 30 -29q30 0 33 29q0 2 2 31h-35q-1 0 0 142h211z" />
    <glyph glyph-name="h" unicode="h" horiz-adv-x="495" 
d="M465 -246l36 -40l183 1l-37 39h-182zM215 -246l35 -39h180l-31 38zM164 -188l31 -35h179l-28 31h69l29 -31h187l-32 35h-435zM120 -140l24 -26h435l-23 26h-436zM207 -31l-12 12l-184 1l11 -13h185zM242 -70l-13 15h-185l15 -15h183zM282 -116l-18 21h-185l19 -21h184z
M334 -95l20 -21h179l-19 21h-180zM299 -55l13 -15h180l-13 15h-180zM266 -19l12 -11l179 -1l-11 12h-180zM436 0h-180l-1 243l-70 -1l1 -241l-185 -1v597h179v-211h70l1 211h185v-597z" />
    <glyph glyph-name="i" unicode="i" horiz-adv-x="246" 
d="M400 -246h-185l35 -38h186zM21 -31h186l-15 13l-182 -1q3 -3 11 -12zM54 -72l188 2l-14 15h-186zM98 -116h185l-18 21h-187zM143 -166h186l-24 26h-186zM194 -223l185 1l-31 33l-186 1zM1 595q-3 -595 0 -595h185v595h-185z" />
    <glyph glyph-name="j" unicode="j" horiz-adv-x="309" 
d="M296 -290l181 -1l-38 45h-181zM13 -29q1 0 3 -2h195q-35 10 -56 13q-52 7 -98 0q-17 -1 -44 -11zM48 -70h244v1q-6 6 -20 14h-237zM149 -116h181l-17 21h-243l8 -10q25 6 35 6q22 0 36 -17zM191 -166h182l-22 26h-181zM239 -223l181 1l-29 34l-185 1zM66 596l183 1
l-1 -483q0 -38 -39 -75q-44 -41 -105 -41q-48 0 -100 28q0 95 1 151q16 -6 29 -6q32 0 32 43v382z" />
    <glyph glyph-name="k" unicode="k" horiz-adv-x="491" 
d="M517 -291h176l-79 45h-174zM227 -290l184 -1l-38 45h-182zM262 -31h180q0 8 8 12h-177q-15 -3 -11 -12zM13 -30h184l-10 11h-184zM292 -69h178l-13 15h-177zM44 -70h183l-13 15h-183zM310 -116h199l-17 21h-177l3 -6q7 -10 -8 -15zM82 -116h183q-4 6 -16 21h-184z
M124 -167h393q12 0 12 9q0 7 -8 18h-417zM401 -222h172l-61 34l-169 1zM175 -222l179 -1l-31 35l-178 -1zM-3 598l185 -3l-2 -269l109 270h175l-107 -255q28 3 51 -31q18 -27 18 -44v-216q0 -35 28 -50h-155q-50 0 -50 42l-1 140q0 15 -12 26t-27 11h-25q-2 0 0 -220h-184z
" />
    <glyph glyph-name="l" unicode="l" horiz-adv-x="356" 
d="M374 -246h-172l37 -44q1 -1 172 0zM22 -32h306l-10 12h-306zM54 -71h309l-15 15h-307zM92 -116h173l-11 12q0 -1 136 0l-10 9h-306zM134 -166h173l-21 26h-174zM181 -223l174 1l-30 34l-172 1zM7 595v-595h307v175q-131 4 -131 2.5t-1 207.5v210q-175 2 -175 0z" />
    <glyph glyph-name="m" unicode="m" horiz-adv-x="650" 
d="M428 -247l-233 1l35 -43h208zM771 -246h-242l60 -43h218zM424 -31h167l-10 12h-166zM257 -31h94q-11 8 -17 12h-80zM18 -30h160l-11 11h-160zM456 -70h168l-13 15h-168zM267 -70h139l-23 16h-120zM48 -70h161l-12 15h-161zM497 -117h167l-19 22h-166zM278 -116h192
l-26 21h-172zM87 -116h160l-18 21h-160zM536 -166h169l-23 27h-167q8 -11 21 -27zM299 -166h111l-2 7l11 -7h118q-12 7 -40 26h-214zM128 -166h157l-21 26h-157zM497 -222h255l-32 34h-266zM175 -223l247 -1l-6 36h-270zM1 595l-2 -595l164 -1l-1 335l91 -334h75
q2 0 44 169.5t39 169.5q-4 0 0 -339h167l-1 597l-219 -2l-70 -281l-80 282z" />
    <glyph glyph-name="n" unicode="n" horiz-adv-x="525" 
d="M554 -289h165l-37 43h-166zM247 -289h195v43h-233zM288 -31h213l-12 13h-202zM27 -31l173 1l-13 13h-172q3 -3 12 -14zM292 -70h242l-12 14h-231zM59 -70h173l-13 15h-173zM298 -117l278 -2l-21 24h-259zM98 -116h173l-19 21h-172zM143 -167h301v24l14 -24l162 1l-26 26
l-291 -1l-1 -21l-14 21h-169zM497 -222h165l-26 35l-167 -1zM189 -223l252 1l1 35h-282zM0 597q-5 -597 -1 -597h87.5t83.5 0v285l98 -285h204v596h-165l-1 -286l-114 287h-192z" />
    <glyph glyph-name="o" unicode="o" horiz-adv-x="508" 
d="M12 177l-1 289q-3 56 39 93t102 37h154q56 -4 95 -41q41 -41 49 -110q-1 -284 1 -284q-2 -128 -138 -160h-168q-65 17 -100 66q-33 46 -33 110zM229 457q-14 0 -25.5 -10.5t-11.5 -24.5l-1 -258q0 -14 12 -24.5t26 -10.5t26 10.5t12 24.5l-1 256q0 14 -11.5 25.5
t-25.5 11.5zM618 -246h-420q66 -44 180 -44h149q88 9 91 44zM60 -31h357q-19 7 -40 12h-289q-18 -4 -28 -12zM53 -70h191q14 6 20 6q1 0 24 -6h195q-6 5 -22 16h-414q0 -2 6 -16zM342 -116h181q-12 14 -17 21h-182zM86 -116h185l-20 21h-182zM384 -166h182l-22 26l-181 -1z
M127 -166h183l-22 26h-183zM418 -222h193q-2 3 -28 35h-182l19 -23q6 -7 -2 -12zM174 -223l198 1q-20 6 -24 11l-21 24l-182 -1z" />
    <glyph glyph-name="p" unicode="p" horiz-adv-x="495" 
d="M240 -289l-38 43h432q1 -19 -26 -32t-71 -13zM22 -31l-11 14h178q2 -3 10 -12zM55 -70l-13 15h182l12 -15h-181zM93 -116l-17 21h343q38 -7 74 -21h-400zM135 -166l-21 26h431q17 -11 30 -26h-203q-8 5 -20 5h-34l3 -5h-186zM185 -224l-31 37l185 -1l27 -30q12 1 33 0
q16 2 10 13q-3 4 -14 17h198l33 -36h-441zM1 596h266q66 2 114 -31q52 -36 60 -98v-154q0 -56 -46 -106q-49 -52 -110 -52h-102l-1 -155h-180zM187 447v-134h36q16 0 20 33q2 0 0 72q-4 29 -29 29h-27z" />
    <glyph glyph-name="q" unicode="q" horiz-adv-x="529" 
d="M57 -30h363q-10 4 -43 11h-289q-12 -1 -31 -11zM121 -4q-59 15 -91 61q-29 41 -29 96q0 10 1 20v300q0 50 44 88t103 38h149q128 -26 143 -157q-2 -284 0 -284l2 -22q6 -14 35 -44t29 -29q0 -2 -39 -82l-56 56q-1 -30 -35 -38q-19 -2 -38 -3h-218zM221 459
q-14 0 -25.5 -10.5t-11.5 -24.5l-1 -280q0 -14 12 -24.5t26 -10.5t26 10.5t12 24.5l-1 278q0 14 -11.5 25.5t-25.5 11.5zM618 -246h-420q66 -44 180 -44h149q88 9 91 44zM53 -70h191q14 6 20 6q1 0 24 -6h195q-6 5 -22 16h-417q0 3 9 -16zM342 -116h181q-12 14 -17 21h-182z
M86 -116h185l-20 21h-182zM384 -166h182l-22 26l-181 -1zM127 -166h183l-22 26h-183zM418 -222h193q-2 3 -28 35h-182l19 -23q6 -7 -2 -12zM174 -223l198 1q-19 6 -24 11l-23 24h-181z" />
    <glyph glyph-name="r" unicode="r" horiz-adv-x="516" 
d="M183 445v-136h33q24 0 29 40q1 5 1 18q0 70 -36 74zM187 186l1 -186h-186l2 597l276 -1q156 -2 159 -145l2 -105q1 -50 -40 -98q42 -15 42 -77q0 -14 -2 -44t-2 -44q0 -61 35 -83v0h-161q-65 0 -65 82q0 13 1.5 39t1.5 37q0 23 -23 27q-5 1 -41 1zM555 -290h-314l-40 44
h430q6 -44 -76 -44zM276 -31q8 13 46 13h164q-20 -3 -23 -13h-187zM196 -19h-185l11 -12h184zM227 -55h-185l14 -15h183zM476 -55l18 -15h-190l-13 15h185zM73 -95h185l8 -9h56q-1 4 -2 9h190q10 -11 -3 -20h-416zM346 -159l-38 1l6 -8h-179l-22 25h405q21 0 35 -9l20 -16
h-207q-6 3 -20 7zM333 -188l-180 1l31 -36h178zM591 -188l29 -35h-232q16 11 16 15q0 15 -15 22z" />
    <glyph glyph-name="s" unicode="s" horiz-adv-x="469" 
d="M560 -289q54 5 54 31q0 6 -4 12h-410q48 -37 134 -43h226zM133 -19q-33 -2 -59 -12h323q-14 6 -85 12h-179zM44 -54q5 -6 13 -17h416q-10 10 -20 17h-409zM262 -95l18 -22l-192 1l-16 21h190zM308 -95l18 -21h186l-19 21h-185zM133 -167q-16 15 4 27h395q6 -16 -3 -27
h-396zM146 -188q11 -13 31 -35l191 1l-30 34h-192zM417 -222l-20 21q179 1 180 0l19 -21h-179zM0 198l186 -1v-31q0 -25 24 -25q25 0 25 25l-1 33q0 38 -48 34q-24 -2 -87 0q-103 3 -103 104v134q0 58 51 96q40 29 76 29q157 -2 176 0q43 3 81 -32t38 -74l-1 -68
q0 -2 -182 0v18q0 22 -25 22q-26 0 -26 -29v-22q-1 -32 31 -33l96 -2q51 -14 70.5 -28t38.5 -53v-176q0 -100 -134 -118h-131q-66 0 -110.5 34.5t-44.5 89.5v73z" />
    <glyph glyph-name="t" unicode="t" horiz-adv-x="439" 
d="M596 -246h-380l36 -39h379q-9 10 -35 39zM120 -30l193 -1l-11 12h-192zM155 -70h193l-14 15h-194zM197 -116h192l-19 21h-192zM242 -166h193l-24 26h-192zM195 -223l381 1l-8 9h-91l-23 25l-194 1l24 -25h-98q1 -1 9 -11zM0 596h386v-161h-94v-432q0 -2 -192 0v431h-99
q-2 0 -1 162z" />
    <glyph glyph-name="u" unicode="u" horiz-adv-x="493" 
d="M89 -31h313q-29 8 -63 12h-210q-18 0 -40 -12zM67 -70h427q-12 8 -26 15h-401q-2 -7 0 -15zM438 161q-2 -128 -138 -160q3 0 -46.5 0h-78.5h-42q-66 17 -101 66q-33 46 -33 110l-1 420h180q2 -170 0 -433q0 -14 11 -27t25 -14q40 -2 40 41l-1 433h186q0 -2 -1 -229
q-2 -207 0 -207zM650 -246h-185l35 -38h186zM348 -116h185l-18 21h-187zM393 -166h186l-24 26h-186zM444 -223l185 1l-34 35l-183 -1zM400 -246h-185l35 -38h186zM97 -115l186 -1l-18 21h-187zM143 -166h186l-24 26h-186zM194 -223l185 1l-31 35l-186 -1z" />
    <glyph glyph-name="v" unicode="v" horiz-adv-x="555" 
d="M423 -246l-188 1l17 -40h193zM706 -245l-184 -1l50 -39h188zM143 -31h275l-18 10h-263zM160 -70h310l-20 15h-297zM532 -116l-28 21h-333l9 -21h352zM420 -166h180l-35 26h-180zM201 -166h180l-16 26h-175zM492 -222h183l-47 35h-180zM227 -223h184l-20 35h-180zM3 594
l126 -595h262l118 595h-186q-68 -389 -66 -389q3 0 -63 389h-191z" />
    <glyph glyph-name="w" unicode="w" horiz-adv-x="801" 
d="M420 -246h-176l18 -39h179zM699 -246h-196l49 -39h168zM1003 -286l-48 40h-172l47 -39q46 0 173 -1zM459 -31h209q-7 5 -18 12h-198q2 -3 7 -12zM144 -31h208l-20 13h-195zM481 -70h240l-20 15h-231zM162 -70h241l-23 15h-225zM506 -116h277l-28 21h-261zM184 -115h274
l-26 20h-257zM689 -166h162l-35 26h-155zM534 -166h122l-14 26h-122zM407 -166h110l-32 26h-110zM207 -166h167l-18 26h-161zM756 -223h169l-46 36h-169zM475 -222h211l-20 35h-233zM234 -223h173l-23 35h-167zM5 597l124 -598l196 1l63 348l54 -349h198l119 597
q-179 -2 -179 0t-24.5 -189t-24.5 -192l-60 381l-170 1l-53 -380l-64 380h-179z" />
    <glyph glyph-name="x" unicode="x" horiz-adv-x="504" 
d="M427 -246h-166l-3 -40h169v40zM643 -245l-170 -1l71 -39q3 -1 179 0zM304 -31h178q1 5 2 12h-182zM28 -31h185q-15 9 -21 12h-188q7 -3 24 -12zM312 -70h167l1 15h-171zM104 -70h178l-27 15h-180zM195 -116h280l2 21h-323zM269 -166h220l-17 9l1 17h-230l27 -14z
M263 -223l337 1l-69 34l-264 1zM7 597l131 -293l-145 -305h187l63 160l50 -159l182 -1l-138 313l136 285q-177 2 -180 0q-2 -2 -58 -146l-55 146h-173z" />
    <glyph glyph-name="y" unicode="y" horiz-adv-x="517" 
d="M405 -246h-162l7 -39h169zM673 -246h-174l55 -38h183q-15 10 -64 38zM162 -31h186l-11 12h-190zM197 -70h187l-14 15h-186zM219 -116h229l-36 21h-197zM228 -166h149l-4 16l19 -16h144l-45 26h-268zM465 -222h168l-57 34h-155zM238 -223l160 1l-15 33l-151 1zM0 595
l141 -438l1 -158h185v158q165 438 163 438h-184l-68 -279l-68 279h-170z" />
    <glyph glyph-name="z" unicode="z" horiz-adv-x="435" 
d="M599 -246h-361l37 -41h360q-9 11 -36 41zM22 -31h375l-10 12h-378zM57 -70h375l-13 15h-376zM146 -116h189l-50 21h-188zM265 -166h191l-62 26h-190zM217 -223h367q-3 3 -8 7q-15 6 -69 28l-194 1l70 -29h-172zM22 597l1 -155l173 2l-195 -297v-146h376v157
q-184 -3 -182 0q3 3 98 143.5t93 141.5q-2 3 -1 154h-363z" />
    <glyph glyph-name="braceleft" unicode="{" horiz-adv-x="5" 
 />
    <glyph glyph-name="bar" unicode="|" horiz-adv-x="24" 
 />
    <glyph glyph-name="braceright" unicode="}" horiz-adv-x="16" 
 />
    <glyph glyph-name="asciitilde" unicode="~" horiz-adv-x="408" 
d="M77 632l-30 17q32 65 108 65q20 0 48.5 -13t46.5 -13q65 0 82 21l17 -21q-33 -56 -99 -56q-6 0 -52.5 13t-59.5 13q-31 0 -40 -6q-10 -10 -21 -20z" />
    <glyph glyph-name="Adieresis" unicode="&#xc4;" horiz-adv-x="538" 
d="M339 643q-22 0 -37.5 15t-15.5 36t15.5 36t37.5 15q23 0 38.5 -15t15.5 -36t-15.5 -36t-38.5 -15zM184 643q-22 0 -37.5 15t-15.5 36t15.5 36t37.5 15t37.5 -15t15.5 -36t-15.5 -36t-37.5 -15zM518 0h-93h-93q-2 -2 -16 77l-109 1l-14 -78h-188l131 596h265zM529 -33
h-182q-3 5 -8 13l184 -1zM596 -166h-176l-15 26h179zM549 -70h-461l-21 15l475 1zM573 -116h-180l-4 5q-17 -1 -66 0l6 -6h-176l-32 22h442zM622 -222l-323 -1l-47 36l160 -1l22 -19h10l-12 19h174zM652 -285h-268l-53 39l302 1zM385 -166h-164l-36 26h173zM222 -33h-186
l-22 13h193zM295 210q-9 57 -31 213l-8 2l-27 -216q66 2 66 1z" />
    <glyph glyph-name="Aring" unicode="&#xc5;" horiz-adv-x="538" 
d="M259 634q-30 0 -52.5 16.5t-22.5 43.5t22.5 43.5t52.5 16.5q29 0 52 -16.5t23 -43.5t-23 -43.5t-52 -16.5zM259 724q-21 0 -33.5 -9.5t-12.5 -20.5t12.5 -20.5t33.5 -9.5q20 0 34 10q11 9 11 20t-11 20q-14 10 -34 10zM518 0h-93h-93q-2 -2 -16 77l-109 1l-14 -78h-188
l131 596h265zM529 -33h-182q-3 5 -8 13l184 -1zM596 -166h-176l-15 26h179zM549 -70h-461l-21 15l475 1zM573 -116h-180l-4 5q-17 -1 -66 0l6 -6h-176l-32 22h442zM622 -222l-323 -1l-47 36l160 -1l22 -19h10l-12 19h174zM652 -285h-268l-53 39l302 1zM385 -166h-164l-36 26
h173zM222 -33h-186l-22 13h193zM295 210q-9 57 -31 213l-8 2l-27 -216q66 2 66 1z" />
    <glyph glyph-name="Ccedilla" unicode="&#xc7;" horiz-adv-x="464" 
d="M619 -246q1 -3 1 -7q0 -32 -76 -32h-167q-82 0 -148 39h390zM329 -116l-19 21h175l19 -21h-175zM101 -116l-19 21h180l19 -21h-180zM146 -166l-23 26h180l24 -26h-181zM417 -222q5 3 -2 11l-21 23h177l32 -34h-186zM200 -220l-30 33l175 1l22 -25q5 -6 19 -10zM173 1h-46
q-42 -5 -77 26q-40 35 -47 101v332q8 60 38 96q34 40 86 40h167q50 0 82.5 -34.5t32.5 -90.5v-109h-177v70q0 31 -24 31t-24 -31v-265q0 -30 23 -30q25 0 25 30v76h175v-124q-13 -106 -122 -118h-44l-17 -20h102q24 0 63 -12h-176l-21 -24h250q11 -7 20 -15h-284l-12 -13
h-35l7 13h-77q-4 3 -7 7q-3 3 1 7h90l12 25h-89q14 9 43 12h52z" />
    <glyph glyph-name="Eacute" unicode="&#xc9;" horiz-adv-x="439" 
d="M92 641q186 77 186 73q0 -5 7 -30.5t10 -25.5q4 0 -198 -35zM593 -246h-378l35 -40h377zM24 -32h379l-11 12h-378zM57 -70h379l-14 15h-379zM98 -116h190q-5 8 -14 20h-194zM143 -166h377l-24 26l-375 1zM194 -223l379 -1l-15 15h-189l-20 21l-186 1zM0 595l1 -595h380
l-1 170q0 1 -94 0t-94 0q0 59 -1 59h186v143h-190v56h191v167h-378z" />
    <glyph glyph-name="Ntilde" unicode="&#xd1;" horiz-adv-x="525" 
d="M106 632l-30 17q32 65 108 65q19 0 48 -13t47 -13q64 0 82 21l17 -21q-34 -56 -99 -56q-6 0 -53 13t-60 13q-30 0 -39 -6q-11 -10 -21 -20zM554 -289h165l-37 43h-166zM247 -289h195v43h-233zM288 -31h213l-12 13h-202zM27 -31l173 1l-13 13h-172q3 -3 12 -14zM292 -70
h242l-12 14h-231zM59 -70h173l-13 15h-173zM298 -117l278 -2l-21 24h-259zM98 -116h173l-19 21h-172zM143 -167h301v24l14 -24h160l-24 27l-291 -1l-1 -21l-14 21h-169zM497 -222h165l-28 34h-165zM189 -223l252 1l1 35h-282zM0 597q-5 -597 -1 -597h87.5t83.5 0v285
l98 -285h204v596h-165l-1 -286l-114 287h-192z" />
    <glyph glyph-name="Odieresis" unicode="&#xd6;" horiz-adv-x="508" 
d="M294 643q-22 0 -37.5 15t-15.5 36t15.5 36t37.5 15q23 0 38.5 -15t15.5 -36t-15.5 -36t-38.5 -15zM139 643q-22 0 -37.5 15t-15.5 36t15.5 36t37.5 15t37.5 -15t15.5 -36t-15.5 -36t-37.5 -15zM12 177l-1 289q-3 56 39 93t102 37h154q56 -4 95 -41q41 -41 49 -110
q-2 -284 0 -284q-2 -129 -137 -160h-168q-65 17 -100 66q-33 46 -33 110zM229 457q-14 0 -25.5 -10.5t-11.5 -24.5l-1 -258q0 -14 12 -24.5t26 -10.5t26 10.5t12 24.5l-1 256q0 14 -11.5 25.5t-25.5 11.5zM618 -246h-420q66 -44 180 -44h149q88 9 91 44zM60 -31h357
q-19 7 -40 12h-289q-18 -4 -28 -12zM53 -70h191q14 6 20 6q1 0 24 -6h195q-6 5 -22 16h-414q0 -2 6 -16zM342 -116h181q-12 14 -17 21h-182zM86 -116h185l-20 21h-182zM384 -166h182l-22 26l-181 -1zM127 -166h183l-22 26h-183zM418 -222h193q-2 3 -28 35h-182l19 -23
q6 -7 -2 -12zM174 -223l198 1q-20 6 -24 11l-20 24l-183 -1z" />
    <glyph glyph-name="Udieresis" unicode="&#xdc;" horiz-adv-x="491" 
d="M294 643q-22 0 -37.5 15t-15.5 36t15.5 36t37.5 15q23 0 38.5 -15t15.5 -36t-15.5 -36t-38.5 -15zM139 643q-22 0 -37.5 15t-15.5 36t15.5 36t37.5 15t37.5 -15t15.5 -36t-15.5 -36t-37.5 -15zM89 -31h313q-29 8 -63 12l-209 1q-17 0 -41 -13zM67 -70h427q-12 8 -26 15
h-401q-2 -7 0 -15zM438 161q-2 -128 -138 -160q3 0 -46.5 0h-78.5h-42q-66 17 -101 66q-33 46 -33 110l-1 420h180q2 -170 0 -433q0 -14 11 -27t25 -14q40 -2 40 41l-1 433h184q0 5 0 -229q-1 -207 1 -207zM650 -246h-185l35 -38h186zM348 -116h185l-18 21h-187zM393 -166
h186l-24 26h-186zM444 -223l185 1l-34 35l-183 -1zM400 -246h-185l35 -38h186zM97 -115l186 -1l-18 21h-187zM143 -166h186l-24 26h-186zM194 -223l185 1l-31 35l-186 -1z" />
    <glyph glyph-name="aacute" unicode="&#xe1;" horiz-adv-x="538" 
d="M159 641q185 77 185 73q0 -5 7.5 -30.5t9.5 -25.5q4 0 -198 -35zM518 0h-93h-93q-2 -2 -16 77l-109 1l-14 -78h-188l131 596h265zM529 -33h-182q-3 5 -8 13h181zM596 -166h-176l-15 26h179zM549 -70h-461l-21 15l475 1zM573 -116h-180l-4 5q-17 -1 -66 0l6 -6h-176
l-32 22h442zM622 -222l-323 -1l-47 36l160 -1l22 -19h10l-12 19h174zM652 -285h-268l-53 39l302 1zM385 -166h-164l-36 26h173zM222 -33h-186l-22 13h193zM295 210q-9 57 -31 213l-8 2l-27 -216q66 2 66 1z" />
    <glyph glyph-name="agrave" unicode="&#xe0;" horiz-adv-x="538" 
d="M360 641q-185 77 -185 73q0 -5 -7 -30.5t-10 -25.5q-4 0 198 -35zM518 0h-93h-93q-2 -2 -16 77l-109 1l-14 -78h-188l131 596h265zM529 -33h-182q-3 5 -8 13h183zM596 -166h-176l-15 26h179zM549 -70h-461l-21 15l475 1zM573 -116h-180l-4 5q-17 -1 -66 0l6 -6h-176
l-32 22h442zM622 -222l-323 -1l-47 36l160 -1l22 -19h10l-12 19h174zM652 -285h-268l-53 39l302 1zM385 -166h-164l-36 26h173zM222 -33h-186l-22 13h193zM295 210q-9 57 -31 213l-8 2l-27 -216q66 2 66 1z" />
    <glyph glyph-name="acircumflex" unicode="&#xe2;" horiz-adv-x="538" 
d="M254 662q-38 -8 -133 -39l-4 18l135 86l151 -86l-4 -18q-53 15 -145 39zM518 0h-93h-93q-2 -2 -16 77l-109 1l-14 -78h-188l131 596h265zM529 -33h-182q-3 5 -8 13h183zM596 -166h-176l-15 26h179zM549 -70h-461l-21 15l475 1zM573 -114l-180 -2l-4 5q-17 -1 -66 0l6 -6
h-176l-32 22h442zM622 -222l-323 -1l-47 36l160 -1l22 -19h10l-12 19h174zM652 -285h-268l-53 39l302 1zM385 -166h-164l-36 26h173zM222 -33h-186l-22 13h193zM295 210q-9 57 -31 213l-8 2l-27 -216q66 2 66 1z" />
    <glyph glyph-name="adieresis" unicode="&#xe4;" horiz-adv-x="538" 
d="M334 643q-22 0 -37.5 15t-15.5 36t15.5 36t37.5 15q23 0 38.5 -15t15.5 -36t-15.5 -36t-38.5 -15zM179 643q-22 0 -37.5 15t-15.5 36t15.5 36t37.5 15t37.5 -15t15.5 -36t-15.5 -36t-37.5 -15zM518 0h-93h-93q-2 -2 -16 77l-109 1l-14 -78h-188l131 596h265zM529 -33
h-182q-3 5 -8 13h184zM596 -166h-176l-15 26h179zM549 -70h-461l-21 15l475 1zM573 -114l-180 -2l-4 5q-17 -1 -66 0l6 -6h-176l-32 22h442zM622 -222l-323 -1l-47 36l160 -1l22 -19h10l-12 19h174zM652 -285h-268l-53 39l301 -1zM385 -166h-164l-36 26h173zM222 -33h-186
l-22 13h193zM295 210q-9 57 -31 213l-8 2l-27 -216q66 2 66 1z" />
    <glyph glyph-name="atilde" unicode="&#xe3;" horiz-adv-x="538" 
d="M140 632l-30 17q32 65 108 65q19 0 48 -13t47 -13q64 0 82 21l17 -21q-34 -56 -99 -56q-6 0 -53 13t-60 13q-30 0 -39 -6q-11 -10 -21 -20zM518 0h-93h-93q-2 -2 -16 77l-109 1l-14 -78h-188l131 596h265zM529 -33h-182q-3 5 -8 13l182 -1zM596 -166h-176l-15 26h179z
M549 -70h-461l-21 15l475 1zM573 -114l-180 -2l-4 5q-17 -1 -66 0l6 -6h-176l-32 22h442zM622 -222l-323 -1l-47 36l160 -1l22 -19h10l-12 19h174zM652 -285h-268l-53 39l301 -1zM385 -166h-164l-36 26h173zM222 -33h-186l-22 13h193zM295 210q-9 57 -31 213l-8 2l-27 -216
q66 2 66 1z" />
    <glyph glyph-name="aring" unicode="&#xe5;" horiz-adv-x="538" 
d="M259 634q-30 0 -52.5 16.5t-22.5 43.5t22.5 43.5t52.5 16.5q29 0 52 -16.5t23 -43.5t-23 -43.5t-52 -16.5zM259 724q-21 0 -33.5 -9.5t-12.5 -20.5t12.5 -20.5t33.5 -9.5q20 0 34 10q11 9 11 20t-11 20q-14 10 -34 10zM518 0h-93h-93q-2 -2 -16 77l-109 1l-14 -78h-188
l131 596h265zM529 -33h-182q-3 5 -8 13h184zM596 -166h-176l-15 26h179zM549 -70h-461l-21 15l475 1zM573 -114l-180 -2l-4 5q-17 -1 -66 0l6 -6h-176l-32 22h442zM622 -222l-323 -1l-47 36l160 -1l22 -19h10l-12 19h174zM652 -285h-268l-53 39l301 -1zM385 -166h-164
l-36 26h173zM222 -33h-186l-22 13h193zM295 210q-9 57 -31 213l-8 2l-27 -216q66 2 66 1z" />
    <glyph glyph-name="ccedilla" unicode="&#xe7;" horiz-adv-x="464" 
d="M619 -246q1 -3 1 -7q0 -32 -76 -32h-167q-82 0 -147 38zM329 -116l-19 21h175l19 -21h-175zM101 -116l-19 21h180l19 -21h-180zM146 -166l-23 26h180l24 -26h-181zM417 -222q5 3 -2 11l-21 23h177l32 -34h-186zM200 -220l-30 33l175 1l22 -25q5 -6 19 -10zM173 1h-46
q-42 -5 -77 26q-40 35 -47 101v332q8 60 38 96q34 40 86 40h167q50 0 82.5 -34.5t32.5 -90.5v-109h-177v70q0 31 -24 31t-24 -31v-265q0 -30 23 -30q25 0 25 30v76h175v-124q-13 -106 -122 -118h-44l-17 -20h107q28 0 63 -11l-181 -1l-21 -24h254q5 -5 16 -15h-284l-12 -13
h-35l7 13h-77q-4 3 -7 7q-3 3 1 7l91 -1l11 26h-89q14 9 39 12h56z" />
    <glyph glyph-name="eacute" unicode="&#xe9;" horiz-adv-x="439" 
d="M82 641q186 77 186 73q0 -5 7 -30.5t10 -25.5q4 0 -198 -35zM593 -246h-378l35 -40h377zM24 -32h379l-11 12h-378zM57 -70h379l-14 15h-379zM98 -116h197q-9 8 -21 20h-194zM143 -166h377l-24 26l-375 1zM194 -223l377 1l-13 13h-189l-20 21l-186 1zM0 595l1 -595h380
l-1 170q0 1 -94 0t-94 0q0 59 -1 59h186v143h-190v56h191v168z" />
    <glyph glyph-name="egrave" unicode="&#xe8;" horiz-adv-x="439" 
d="M284 641q-185 77 -185 73q0 -5 -7.5 -30.5t-10.5 -25.5q-4 0 199 -35zM593 -246h-378l35 -40h377zM24 -32h379l-11 12h-378zM57 -70h379l-14 15h-379zM98 -116h192q-6 8 -16 20h-194zM143 -166h377l-24 26l-375 1zM194 -223l377 1l-13 13h-189l-20 21l-186 1zM0 595
l1 -595h380l-1 170q0 1 -94 0t-94 0q0 59 -1 59h186v143h-190v56h191v167h-378z" />
    <glyph glyph-name="ecircumflex" unicode="&#xea;" horiz-adv-x="439" 
d="M177 662q-37 -8 -132 -39l-4 18l134 86l151 -86l-4 -18q-52 15 -145 39zM593 -246h-378l35 -40h377zM24 -32h379l-11 12h-378zM57 -70h379l-14 15h-379zM98 -116h193q-3 3 -17 20h-194zM143 -166h377l-24 26l-375 1zM194 -223h382l-18 14h-189l-20 21l-186 1zM0 595
l1 -595h380l-1 170q0 1 -94 0t-94 0q0 59 -1 59h186v143h-190v56h191v168z" />
    <glyph glyph-name="edieresis" unicode="&#xeb;" horiz-adv-x="439" 
d="M264 648q-22 0 -37.5 15t-15.5 36t15.5 36t37.5 15q23 0 38.5 -15t15.5 -36t-15.5 -36t-38.5 -15zM109 648q-22 0 -37.5 15t-15.5 36t15.5 36t37.5 15t37.5 -15t15.5 -36t-15.5 -36t-37.5 -15zM593 -246h-378l35 -40h377zM24 -32h379l-11 12h-378zM57 -70h379l-14 15
h-379zM98 -116h193q-3 3 -17 20h-194zM143 -166h377l-24 26l-375 1zM194 -223h376l-12 14h-189l-20 21l-186 1zM0 595l1 -595h380l-1 170q0 1 -94 0t-94 0q0 59 -1 59h186v143h-190v56h191v167h-378z" />
    <glyph glyph-name="iacute" unicode="&#xed;" horiz-adv-x="247" 
d="M-20 641q186 77 186 73q0 -5 7 -30.5t10 -25.5q4 0 -198 -35zM400 -246h-185l35 -38h186zM21 -31h186l-12 12h-185q3 -3 11 -12zM54 -72l188 2l-14 15h-186zM98 -116h185l-18 21h-187zM143 -166h186l-24 26h-186zM194 -223l185 1l-31 33l-186 1zM1 595q-3 -595 0 -595
h185v595h-185z" />
    <glyph glyph-name="igrave" unicode="&#xec;" horiz-adv-x="247" 
d="M190 641q-185 77 -185 73q0 -5 -7 -30.5t-10 -25.5q-4 0 198 -35zM400 -246h-185l35 -38h186zM21 -31h186l-13 12h-184q3 -3 11 -12zM54 -72l188 2l-14 15h-186zM98 -116h185l-18 21h-187zM143 -166h186l-24 26h-186zM194 -223l185 1l-31 33l-186 1zM1 595
q-3 -595 0 -595h185v595h-185z" />
    <glyph glyph-name="icircumflex" unicode="&#xee;" horiz-adv-x="247" 
d="M84 662q-38 -8 -133 -39l-4 18l135 86l151 -86l-4 -18q-53 15 -145 39zM400 -246h-185l35 -38h186zM21 -31h186l-14 12h-183q3 -3 11 -12zM54 -72l188 2l-14 15h-186zM98 -116h185l-18 21h-187zM143 -166h186l-24 26h-186zM194 -223l185 1l-31 33l-186 1zM1 595
q-3 -595 0 -595h185v595h-185z" />
    <glyph glyph-name="idieresis" unicode="&#xef;" horiz-adv-x="247" 
d="M164 643q-22 0 -37.5 15t-15.5 36t15.5 36t37.5 15q23 0 38.5 -15t15.5 -36t-15.5 -36t-38.5 -15zM9 643q-22 0 -37.5 15t-15.5 36t15.5 36t37.5 15t37.5 -15t15.5 -36t-15.5 -36t-37.5 -15zM400 -246h-185l35 -38h186zM21 -31h186l-12 12h-185q3 -3 11 -12zM54 -72
l188 2l-14 15h-186zM98 -116h185l-18 21h-187zM143 -166h186l-24 26h-186zM194 -223l185 1l-31 33l-186 1zM1 595q-3 -595 0 -595h185v595h-185z" />
    <glyph glyph-name="ntilde" unicode="&#xf1;" horiz-adv-x="525" 
d="M106 632l-30 17q32 65 108 65q19 0 48 -13t47 -13q64 0 82 21l17 -21q-34 -56 -99 -56q-6 0 -53 13t-60 13q-30 0 -39 -6q-11 -10 -21 -20zM554 -289h165l-37 43h-166zM247 -289h195v43h-233zM288 -31h213l-12 13h-202zM27 -31l173 1l-13 13h-172q3 -3 12 -14zM292 -70
h242l-12 14h-231zM59 -70h173l-13 15h-173zM298 -117l278 -2l-21 24h-259zM98 -116h173l-19 21h-172zM143 -167h301v24l14 -24h160l-24 27l-291 -1l-1 -21l-14 21h-169zM497 -222h165l-31 35l-162 -1zM189 -223l252 1l1 35h-282zM0 597q-5 -597 -1 -597h87.5t83.5 0v285
l98 -285h204v596h-165l-1 -286l-114 287h-192z" />
    <glyph glyph-name="oacute" unicode="&#xf3;" horiz-adv-x="508" 
d="M125 641q185 77 185 73q0 -5 7.5 -30.5t9.5 -25.5q4 0 -198 -35zM12 177l-1 289q-3 56 39 93t102 37h154q56 -4 95 -41q41 -41 49 -110q-1 -284 1 -284q-2 -128 -138 -160h-168q-65 17 -100 66q-33 46 -33 110zM229 457q-14 0 -25.5 -10.5t-11.5 -24.5l-1 -258
q0 -14 12 -24.5t26 -10.5t26 10.5t12 24.5l-1 256q0 14 -11.5 25.5t-25.5 11.5zM618 -246h-420q66 -44 180 -44h149q88 9 91 44zM60 -31h357q-19 7 -40 12h-289q-18 -4 -28 -12zM53 -70h191q14 6 20 6q1 0 24 -6h195q-6 5 -22 16h-414q0 -2 6 -16zM342 -116h181
q-12 14 -17 21h-182zM86 -116h185l-20 21h-182zM384 -166h182l-22 26l-181 -1zM127 -166h183l-22 26h-183zM418 -222h193q-2 3 -28 35h-182l19 -23q6 -7 -2 -12zM174 -223l198 1q-19 6 -24 11l-25 24l-178 -1z" />
    <glyph glyph-name="ograve" unicode="&#xf2;" horiz-adv-x="508" 
d="M318 641q-185 77 -185 73q0 -5 -7.5 -30.5t-10.5 -25.5q-4 0 199 -35zM12 177l-1 289q-3 56 39 93t102 37h154q56 -4 95 -41q41 -41 49 -110q-4 -283 -2 -283q-1 -130 -135 -161h-168q-65 17 -100 66q-33 46 -33 110zM229 457q-14 0 -25.5 -10.5t-11.5 -24.5l-1 -258
q0 -14 12 -24.5t26 -10.5t26 10.5t12 24.5l-1 256q0 14 -11.5 25.5t-25.5 11.5zM618 -246h-420q66 -44 180 -44h149q88 9 91 44zM60 -31h357q-19 7 -40 12h-289q-18 -4 -28 -12zM53 -70h191q14 6 20 6q1 0 24 -6h195q-6 5 -22 16h-414q0 -2 6 -16zM342 -116h181
q-12 14 -17 21h-182zM86 -116h185l-20 21h-182zM384 -166h182l-22 26l-181 -1zM127 -166h183l-22 26h-183zM418 -222h193q-2 3 -28 35h-182l19 -23q6 -7 -2 -12zM174 -223l198 1q-19 6 -24 11l-23 24l-180 -1z" />
    <glyph glyph-name="ocircumflex" unicode="&#xf4;" horiz-adv-x="508" 
d="M211 662q-37 -8 -132 -39l-4 18l134 86l151 -86l-4 -18q-52 15 -145 39zM12 177l-1 289q-3 56 39 93t102 37h154q56 -4 95 -41q41 -41 49 -110q-2 -284 0 -284q-2 -129 -137 -160h-168q-65 17 -100 66q-33 46 -33 110zM229 457q-14 0 -25.5 -10.5t-11.5 -24.5l-1 -258
q0 -14 12 -24.5t26 -10.5t26 10.5t12 24.5l-1 256q0 14 -11.5 25.5t-25.5 11.5zM618 -246h-420q66 -44 180 -44h149q88 9 91 44zM60 -31h357q-19 7 -40 12h-289q-18 -4 -28 -12zM53 -70h191q14 6 20 6q1 0 24 -6h195q-6 5 -22 16h-414q0 -2 6 -16zM342 -116h181
q-12 14 -17 21h-182zM86 -116h185l-20 21h-182zM384 -166h182l-22 26l-181 -1zM127 -166h183l-22 26h-183zM418 -222h193q-2 3 -28 35h-182l19 -23q6 -7 -2 -12zM174 -223l198 1q-19 6 -24 11l-22 24l-181 -1z" />
    <glyph glyph-name="odieresis" unicode="&#xf6;" horiz-adv-x="508" 
d="M294 643q-22 0 -37.5 15t-15.5 36t15.5 36t37.5 15q23 0 38.5 -15t15.5 -36t-15.5 -36t-38.5 -15zM139 643q-22 0 -37.5 15t-15.5 36t15.5 36t37.5 15t37.5 -15t15.5 -36t-15.5 -36t-37.5 -15zM12 177l-1 289q-3 56 39 93t102 37h154q56 -4 95 -41q41 -41 49 -110
q-2 -284 0 -284q-2 -129 -137 -160h-168q-65 17 -100 66q-33 46 -33 110zM229 457q-14 0 -25.5 -10.5t-11.5 -24.5l-1 -258q0 -14 12 -24.5t26 -10.5t26 10.5t12 24.5l-1 256q0 14 -11.5 25.5t-25.5 11.5zM618 -246h-420q66 -44 180 -44h149q88 9 91 44zM60 -31h357
q-19 7 -40 12h-289q-18 -4 -28 -12zM53 -70h191q14 6 20 6q1 0 24 -6h195q-6 5 -22 16h-414q0 -2 6 -16zM342 -116h181q-12 14 -17 21h-182zM86 -116h185l-20 21h-182zM384 -166h182l-22 26l-181 -1zM127 -166h183l-22 26h-183zM418 -222h193q-2 3 -28 35h-182l19 -23
q6 -7 -2 -12zM174 -223l198 1q-19 6 -24 11l-23 24l-180 -1z" />
    <glyph glyph-name="otilde" unicode="&#xf5;" horiz-adv-x="508" 
d="M97 632l-30 17q32 65 108 65q20 0 48.5 -13t46.5 -13q65 0 82 21l17 -21q-33 -56 -99 -56q-6 0 -52.5 13t-59.5 13q-31 0 -40 -6q-10 -10 -21 -20zM12 177l-1 289q-3 56 39 93t102 37h154q56 -4 95 -41q41 -41 49 -110q-2 -284 0 -284q-2 -129 -137 -160h-168
q-65 17 -100 66q-33 46 -33 110zM229 457q-14 0 -25.5 -10.5t-11.5 -24.5l-1 -258q0 -14 12 -24.5t26 -10.5t26 10.5t12 24.5l-1 256q0 14 -11.5 25.5t-25.5 11.5zM618 -246h-420q66 -44 180 -44h149q88 9 91 44zM61 -30l356 -1q-19 7 -40 12h-289q-17 -4 -27 -11zM53 -70
h191q14 6 20 6q1 0 24 -6h195q-6 5 -22 16h-414q0 -2 6 -16zM342 -116h181q-12 14 -17 21h-182zM86 -116h185l-20 21h-182zM384 -166h182l-22 26l-181 -1zM127 -166h183l-22 26h-183zM418 -222h193q-2 3 -28 35h-182l19 -23q6 -7 -2 -12zM174 -223l198 1q-19 6 -24 11
l-25 24l-178 -1z" />
    <glyph glyph-name="uacute" unicode="&#xfa;" horiz-adv-x="491" 
d="M116 641q186 77 186 73q0 -5 7 -30.5t10 -25.5q4 0 -198 -35zM89 -31h313q-29 8 -63 12l-209 1q-17 0 -41 -13zM67 -70h427q-12 8 -26 15h-401q-2 -7 0 -15zM438 161q-2 -128 -138 -160q3 0 -46.5 0h-78.5h-42q-66 17 -101 66q-33 46 -33 110l-1 420h180q2 -170 0 -433
q0 -14 11 -27t25 -14q40 -2 40 41l-1 433h184q0 5 0 -229q-1 -207 1 -207zM650 -246h-185l35 -38h186zM348 -116h185l-18 21h-187zM393 -166h186l-24 26h-186zM444 -223l185 1l-34 35l-183 -1zM400 -246h-185l35 -38h186zM97 -115l186 -1l-18 21h-187zM143 -166h186l-24 26
h-186zM194 -223l185 1l-31 35l-186 -1z" />
    <glyph glyph-name="ugrave" unicode="&#xf9;" horiz-adv-x="491" 
d="M438 161q-2 -128 -138 -160h-167q-66 17 -101 66q-33 46 -33 110l-1 420h180q2 -170 0 -433q0 -14 11 -27t25 -14q40 -2 40 41l-1 433h184q0 5 0 -229q-1 -207 1 -207zM318 641q-185 77 -185 73q0 -5 -7.5 -30.5t-10.5 -25.5q-4 0 199 -35zM89 -31h313q-29 8 -63 12h-208
q-19 0 -42 -12zM67 -70h427q-12 8 -26 15h-401q-2 -7 0 -15zM650 -246h-185l35 -38h186zM348 -116h185l-18 21h-187zM393 -166h186l-24 26h-186zM444 -223l185 1l-34 35l-183 -1zM400 -246h-185l35 -38h186zM97 -115l186 -1l-18 21h-187zM143 -166h186l-24 26h-186z
M194 -223l185 1l-31 35l-186 -1z" />
    <glyph glyph-name="ucircumflex" unicode="&#xfb;" horiz-adv-x="491" 
d="M211 662q-37 -8 -132 -39l-4 18l134 86l151 -86l-4 -18q-52 15 -145 39zM89 -31h313q-18 6 -60 14l-212 -1q-17 0 -41 -13zM67 -70h427q-12 8 -26 15h-401q-2 -7 0 -15zM438 161q-2 -128 -138 -160q3 0 -46.5 0h-78.5h-42q-66 17 -101 66q-33 46 -33 110l-1 420h180
q2 -170 0 -433q0 -14 11 -27t25 -14q40 -2 40 41l-1 433h184q0 5 0 -229q-1 -207 1 -207zM650 -246h-185l35 -38h186zM348 -116h185l-18 21h-187zM393 -166h186l-24 26h-186zM444 -223l185 1l-34 35l-183 -1zM400 -246h-185l35 -38h186zM97 -115l186 -1l-18 21h-187z
M143 -166h186l-24 26h-186zM194 -223l185 1l-31 35l-186 -1z" />
    <glyph glyph-name="udieresis" unicode="&#xfc;" horiz-adv-x="491" 
d="M294 643q-22 0 -37.5 15t-15.5 36t15.5 36t37.5 15q23 0 38.5 -15t15.5 -36t-15.5 -36t-38.5 -15zM139 643q-22 0 -37.5 15t-15.5 36t15.5 36t37.5 15t37.5 -15t15.5 -36t-15.5 -36t-37.5 -15zM89 -31h313q-29 8 -63 12l-209 1q-17 0 -41 -13zM67 -70h427q-12 8 -26 15
h-401q-2 -7 0 -15zM438 161q-2 -128 -138 -160q3 0 -46.5 0h-78.5h-42q-66 17 -101 66q-33 46 -33 110l-1 420h180q2 -170 0 -433q0 -14 11 -27t25 -14q40 -2 40 41l-1 433h184q0 -436 1 -436zM650 -246h-185l35 -38h186zM348 -116h185l-18 21h-187zM393 -166h186l-24 26
h-186zM444 -223l185 1l-34 35l-183 -1zM400 -246h-185l35 -38h186zM97 -115l186 -1l-18 21h-187zM143 -166h186l-24 26h-186zM194 -223l185 1l-31 35l-186 -1z" />
    <glyph glyph-name="dagger" unicode="&#x2020;" horiz-adv-x="23" 
 />
    <glyph glyph-name="degree" unicode="&#xb0;" horiz-adv-x="850" 
d="M266 468q0 -57 -39.5 -97.5t-96.5 -40.5q-56 0 -95.5 40.5t-39.5 97.5t39.5 97.5t95.5 40.5q57 0 96.5 -40.5t39.5 -97.5zM130 563q-40 0 -68.5 -28t-28.5 -67t28.5 -67t68.5 -28q41 0 69 28t28 67t-28 67t-69 28z" />
    <glyph glyph-name="cent" unicode="&#xa2;" horiz-adv-x="465" 
d="M63 -70q-4 5 -8 15h387q11 -7 20 -15h-399zM329 -116l-19 21h175l19 -21h-175zM101 -116l-19 21h180l19 -21h-180zM146 -166l-23 26h180l24 -26h-181zM417 -222q5 3 -2 11l-21 23h177l33 -35zM197 -223l-31 35h180l21 -23q7 -8 20 -11zM506 -285l39 -35h-99l-39 35h-30
q-82 0 -148 39h390q1 -3 1 -7q0 -32 -76 -32h-38zM389 -31l-128 1v-15h-99l-1 13h-95q21 14 95 13l1 20h-35q-42 -5 -77 26q-40 35 -47 101v332q8 60 38 96q34 40 86 40h39v45h99v-45h29q50 0 82.5 -34t32.5 -91v-109h-177v70q0 31 -24 31t-24 -31v-265q0 -30 23 -30
q25 0 25 30v76h175v-124q-13 -106 -122 -118l-25 -1v-21h64q23 -2 65 -10z" />
    <glyph glyph-name="sterling" unicode="&#xa3;" horiz-adv-x="422" 
d="M397 -291q9 -2 43 1q42 0 69 12.5t29 30.5h-311q81 -46 170 -44zM37 -31h342l-11 13h-343zM68 -70h341l-12 16l-340 -1zM153 -116h125q-12 11 -29 21h-128q12 -7 32 -21zM177 -166h139l-4 8l110 1l-15 16h-285l10 -16h55q-4 -3 -10 -9zM398 -222h135q-2 4 -9 14l-132 -1
q6 -10 6 -13zM209 -225h124q-17 10 -16 20q5 4 13 12h-145q3 -12 24 -32zM16 306h51q-45 46 -45 120q0 69 41 116q46 53 127 54q75 1 125.5 -52t46.5 -127h-131q-4 30 -8 36t-24 16q-6 2 -13 2q-17 0 -29.5 -13t-12.5 -33q0 -12 6 -25q36 -38 44 -94l107 -1v-59l-102 1
q-3 -26 -6 -51q-5 -31 -31 -84h203l1 -112h-341v107q52 85 50 140h-59v59z" />
    <glyph glyph-name="bullet" unicode="&#x2022;" horiz-adv-x="567" 
d="M402 288q0 -49 -34 -83.5t-84 -34.5q-49 0 -83.5 34.5t-34.5 83.5q0 50 35 84t85 34q48 0 82 -35t34 -83zM330 -166q53 -21 113 -21q55 0 73 21h-186zM449 -95q-48 17 -99 17q-50 0 -71 -17h170zM512 -131q-8 5 -25 15h-215q2 -15 13 -25h235q-1 1 -8 10z" />
    <glyph glyph-name="paragraph" unicode="&#xb6;" horiz-adv-x="18" 
 />
    <glyph glyph-name="germandbls" unicode="&#xdf;" horiz-adv-x="22" 
 />
    <glyph glyph-name="registered" unicode="&#xae;" horiz-adv-x="355" 
d="M147 672q83 0 121 -76q16 -30 16 -63q0 -57 -41 -98t-98 -41t-97.5 41t-40.5 98q0 59 41 99t99 40zM144 647q-44 0 -77 -33t-33 -81q0 -47 32.5 -80.5t78.5 -33.5q47 0 79 33.5t32 80.5q0 48 -32.5 81t-79.5 33zM87 611h65q56 0 56 -43q0 -26 -26 -37q20 -7 23 -31
q0 -16 5 -43h-33q-3 5 -4 31q-2 33 -32 33h-20v-64h-34v154zM121 590v-49h23q30 0 30 25q0 24 -28 24h-25z" />
    <glyph glyph-name="copyright" unicode="&#xa9;" horiz-adv-x="765" 
d="M346 -9q-141 0 -241 100.5t-100 241.5q0 145 101 243.5t245 98.5q93 0 174 -51t124 -136q37 -73 37 -155q0 -141 -99.5 -241.5t-240.5 -100.5zM343 623q-114 0 -197.5 -84t-83.5 -206q0 -119 82.5 -204t201.5 -85q117 0 199.5 84.5t82.5 204.5q0 122 -83.5 206t-201.5 84
zM347 139q-86 0 -137 57q-48 54 -48 140t51.5 141.5t136.5 55.5q79 0 127 -52q33 -35 39 -81h-57q-20 68 -109 68q-54 0 -84 -40q-27 -36 -27 -93q0 -55 26 -91q30 -40 84 -40q98 0 113 87h58q-7 -70 -54 -111t-119 -41z" />
    <glyph glyph-name="trademark" unicode="&#x2122;" horiz-adv-x="487" 
d="M356 409l-2 198l-41 -198h-44l-47 198l1 -84v-114h-47v260h85q4 -28 31 -195q10 83 30 195l85 -1v-259h-51zM92 629v-220h-48v220h-35v40h120v-40h-37z" />
    <glyph glyph-name="acute" unicode="&#xb4;" horiz-adv-x="633" 
d="M187 684q218 90 218 86q0 -6 8.5 -36t11.5 -30q5 0 -233 -41z" />
    <glyph glyph-name="dieresis" unicode="&#xa8;" horiz-adv-x="491" 
d="M294 643q-22 0 -37.5 15t-15.5 36t15.5 36t37.5 15q23 0 38.5 -15t15.5 -36t-15.5 -36t-38.5 -15zM139 643q-22 0 -37.5 15t-15.5 36t15.5 36t37.5 15t37.5 -15t15.5 -36t-15.5 -36t-37.5 -15z" />
    <glyph glyph-name="AE" unicode="&#xc6;" horiz-adv-x="758" 
d="M210 -32l-19 14h-190l20 -13zM715 -31l-9 14h-370l15 -15zM747 -70l-12 15h-676l24 -15h664zM126 -95l34 -22l173 1l-15 12h86l8 -12l367 -1q-4 6 -17 22h-636zM408 -166l-42 26h-169l42 -26h169zM826 -167l-23 27l-369 -2l19 -24zM497 -222l-55 35l-167 1l58 -37z
M871 -221q-3 4 -28 33h-368l28 -33h368zM931 -290l-38 44h-525l73 -44h490zM330 77l-117 1l-27 -78h-188l214 597l489 -1v-168h-191v-56l190 1v-144h-186l1 -60h188v-169h-372zM327 179v281l-91 -281h91z" />
    <glyph glyph-name="Oslash" unicode="&#xd8;" horiz-adv-x="506" 
d="M188 -223l-28 36l180 -1q9 -11 17.5 -20.5t22.5 -14.5h-192zM22 -8l101 -46l347 -1q3 -1 24 -16l-425 1q-10 7 -3 14l-55 27zM144 -17h179q26 0 80 -13l-310 -2q8 11 51 15zM536 -113h-181l-18 18h182q4 -5 17 -18zM358 -289q-86 0 -146 44h418l73 -24l-22 -16l-55 17
q-20 -21 -77 -21h-191zM469 550l-40 -49q10 -14 11 -30v-28q-3 -282 -1 -282q-2 -141 -142 -161q3 0 -43.5 0h-74.5h-39q-48 2 -94 51l-33 -40l-39 39l41 48q-15 36 -15 79v289q0 57 40.5 93.5t99.5 36.5h154q62 0 105 -53l36 42zM254 375v45q0 14 -11.5 25.5t-25.5 11.5
t-25.5 -10.5t-11.5 -24.5v-133zM255 164l-1 132l-74 -88l-1 -44q0 -14 12 -24.5t26 -10.5t26 10.5t12 24.5zM141 -166l-21 26h231l38 -17l-14 17h183l25 -26h-230l-43 17l13 -17h-182zM84 -95h177l20 -20l-181 -1zM598 -188h-188q25 -19 25 -28q0 -4 -4 -6h196q1 2 -29 34z
" />
    <glyph glyph-name="yen" unicode="&#xa5;" horiz-adv-x="535" 
d="M728 -291h-185l-63 45h169q50 -27 79 -45zM399 -246h-159v-44l170 -1zM496 -54l-428 -1l12 -15h431zM163 -31l-8 13h183l11 -13h-186zM399 -89l13 -16h126l12 -13h-428l-10 13h115l-13 16h185zM239 -140v-30h270l-52 30h-218zM393 -222l-8 35h-145v-36zM399 -187l47 -35
h160l-60 35h-147zM450 78h-130v-77h-185v77h-116v56h116v69h-115v56h102l-129 338h169l68 -248l68 248h184q3 0 -150 -338h115v-56h-126l-1 -69h130v-56z" />
    <glyph glyph-name="mu" unicode="&#xb5;" horiz-adv-x="403" 
d="M366 -31h-306l-10 12l306 1zM402 -70h-309l-13 15h308zM429 -104q-134 -1 -135 0l12 -12h-174l-18 21l306 1zM348 -166h-174l-22 26h174zM395 -222l-173 -1l-29 35h173zM451 -290q-171 -1 -171 0l-38 44h173zM282 399q-10 -13 -59 -68v-156q0 2 132 0v-175h-307l3 146
q-23 -25 -45 -53v91q8 11 43 51q3 11 1 153q-2 232 -2 208q0 2 174 0v-170q32 35 60 64v-91z" />
    <glyph glyph-name="mu" unicode="&#x3bc;" horiz-adv-x="403" 
d="M366 -31h-306l-10 12l306 1zM402 -70h-309l-13 15h308zM429 -104q-134 -1 -135 0l12 -12h-174l-18 21l306 1zM348 -166h-174l-22 26h174zM395 -222l-173 -1l-29 35h173zM451 -290q-171 -1 -171 0l-38 44h173zM282 399q-10 -13 -59 -68v-156q0 2 132 0v-175h-307l3 146
q-23 -25 -45 -53v91q8 11 43 51q3 11 1 153q-2 232 -2 208q0 2 174 0v-170q32 35 60 64v-91z" />
    <glyph glyph-name="ordfeminine" unicode="&#xaa;" horiz-adv-x="435" 
d="M599 -246h-361l37 -40h361q-10 11 -37 40zM10 -18l12 -13h375q-7 7 -11 13h-376zM57 -70h375l-13 15h-376zM146 -116h189l-50 21h-188zM265 -166h191l-62 26h-190zM217 -223l361 1q-2 3 -4 5q-10 6 -67 29h-191l68 -29l-173 1zM22 597l1 -155l173 2l-195 -297v-146h376
v157q-184 -3 -182 0q3 3 98 143.5t93 141.5q-2 3 -1 154h-363zM215 688q38 8 133 39l4 -18l-135 -86l-151 86l4 18q53 -15 145 -39z" />
    <glyph glyph-name="ordmasculine" unicode="&#xba;" horiz-adv-x="435" 
d="M22 597l1 -155l173 2l-195 -297v-146h376v157q-184 -3 -182 0q3 3 98 143.5t93 141.5q-2 3 -1 154h-363zM215 688q38 8 133 39l4 -18l-135 -86l-151 86l4 18q53 -15 145 -39zM599 -246h-361l37 -40h361q-10 11 -37 40zM10 -18l12 -13h375q-7 7 -11 13h-376zM57 -70h375
l-13 15h-376zM146 -116h189l-50 21h-188zM265 -166h191l-62 26h-190zM217 -223l361 1q-2 3 -4 5q-10 6 -67 29h-191l68 -29l-173 1z" />
    <glyph glyph-name="ae" unicode="&#xe6;" horiz-adv-x="758" 
d="M210 -32l-19 14h-190l20 -13zM715 -31l-9 14h-370l15 -15zM747 -70l-12 15h-676l24 -15h664zM126 -95l34 -22l173 1l-15 12h86l8 -12l367 -1q-4 6 -17 22h-636zM408 -166l-42 26h-169l42 -26h169zM826 -167l-23 27h-373l24 -28zM497 -222l-55 35l-167 1l58 -37zM871 -221
q-3 4 -28 33l-373 4l33 -37h368zM931 -290l-38 44h-525l73 -44h490zM330 77l-117 1l-27 -78h-188l214 597l489 -1v-168h-191v-56l190 1v-144h-186l1 -60h188v-169h-372zM327 179v281l-91 -281h91z" />
    <glyph glyph-name="oslash" unicode="&#xf8;" horiz-adv-x="506" 
d="M188 -223l-28 36l180 -1q9 -11 17.5 -20.5t22.5 -14.5h-192zM22 -8l101 -46l347 -1q3 -1 24 -16l-425 1q-10 7 -3 14l-55 27zM144 -17h179q26 0 80 -13l-310 -2q8 11 51 15zM536 -113h-181l-18 18h182q4 -5 17 -18zM358 -289q-86 0 -146 44h418l73 -24l-22 -16l-55 17
q-20 -21 -77 -21h-191zM469 550l-40 -49q10 -14 11 -30v-28q-3 -282 -1 -282q-2 -141 -142 -161q3 0 -43.5 0h-74.5h-39q-48 2 -94 51l-33 -40l-39 39l41 48q-15 36 -15 79v289q0 57 40.5 93.5t99.5 36.5h154q62 0 105 -53l36 42zM254 375v45q0 14 -11.5 25.5t-25.5 11.5
t-25.5 -10.5t-11.5 -24.5v-133zM255 164l-1 132l-74 -88l-1 -44q0 -14 12 -24.5t26 -10.5t26 10.5t12 24.5zM141 -166l-21 26h231l38 -17l-14 17h183l25 -26h-230l-43 17l13 -17h-182zM84 -95h177l20 -20l-181 -1zM598 -188h-188q25 -19 25 -28q0 -4 -4 -6h196q1 2 -29 34z
" />
    <glyph glyph-name="questiondown" unicode="&#xbf;" horiz-adv-x="514" 
d="M548 -248l36 -43h-178l-39 43h181zM127 -32l309 -1q-42 12 -74 12l-178 1q-31 0 -57 -12zM109 -71l404 -1q-10 9 -21 15l-384 1q-1 -11 1 -15zM537 -97h-182q5 -4 10 -11l182 -1zM146 -117h185l-17 20h-189q7 -6 21 -20zM237 -168h246q-7 10 -26 25h-282q25 -17 62 -25z
M501 -191l-182 2q8 -9 21 -22h180zM46 222q0 114 114 114q-2 0 0 78h181v-116q0 -33 -23.5 -50t-49.5 -13q-41 4 -41 -33q0 -7 2 -16q2 -13 5 -25t19 -12q24 0 21 36l181 -1v-22q0 -165 -146 -162q-64 1 -114 0q-63 -2 -106 37q-40 36 -43 90v95zM160 448v146l179 1l-1 -147
h-178z" />
    <glyph glyph-name="exclamdown" unicode="&#xa1;" horiz-adv-x="337" 
d="M280 -293h179l-37 44h-171zM54 -34h228l-6 14h-240zM98 -74h203l-9 15h-211zM153 -119h168l-9 21h-185zM212 -169h133l-12 26h-152zM236 -226l175 1l-18 24h-176zM43 431v163l179 1l-1 -164h-178zM258 -1l-64 375h-117l-56 -375h237z" />
    <glyph glyph-name="logicalnot" unicode="&#xac;" horiz-adv-x="22" 
 />
    <glyph glyph-name="florin" unicode="&#x192;" horiz-adv-x="22" 
 />
    <glyph glyph-name="guillemotleft" unicode="&#xab;" horiz-adv-x="313" 
d="M188 436h46l-44 -167l44 -172h-46l-65 174zM69 436h46l-44 -167l44 -172h-46l-65 174z" />
    <glyph glyph-name="guillemotright" unicode="&#xbb;" horiz-adv-x="313" 
d="M50 97h-46l44 169l-44 170h46l65 -173zM169 97h-46l44 169l-44 170h46l65 -173z" />
    <glyph glyph-name="ellipsis" unicode="&#x2026;" horiz-adv-x="831" 
d="M634 -35h180l-14 17h-179zM673 -86h178l-20 26h-177zM782 149v-147h-179v146zM44 -35h180l-14 17h-179zM83 -86h178l-20 26h-177zM192 149v-147h-179v146zM344 -35h180l-14 17h-179zM383 -86h178l-20 26h-177zM492 149v-147h-179v146z" />
    <glyph glyph-name="nonbreakingspace" unicode="&#xa0;" horiz-adv-x="230" 
 />
    <glyph glyph-name="Agrave" unicode="&#xc0;" horiz-adv-x="538" 
d="M360 641q-185 77 -185 73q0 -5 -7 -30.5t-10 -25.5q-4 0 198 -35zM518 0h-93h-93q-2 -2 -16 77l-109 1l-14 -78h-188l131 596h265zM529 -33h-182q-3 5 -8 13l184 -1zM596 -166h-176l-15 26h179zM549 -70h-461l-21 15l475 1zM573 -116h-180l-4 5q-17 -1 -66 0l6 -6h-176
l-32 22h442zM622 -222l-323 -1l-47 36l160 -1l22 -19h10l-12 19h174zM652 -285h-268l-53 39l302 1zM385 -166h-164l-36 26h173zM222 -33h-186l-22 13h193zM295 210q-9 57 -31 213l-8 2l-27 -216q66 2 66 1z" />
    <glyph glyph-name="Atilde" unicode="&#xc3;" horiz-adv-x="538" 
d="M140 632l-30 17q32 65 108 65q19 0 48 -13t47 -13q64 0 82 21l17 -21q-34 -56 -99 -56q-6 0 -53 13t-60 13q-30 0 -39 -6q-11 -10 -21 -20zM518 0h-93h-93q-2 -2 -16 77l-109 1l-14 -78h-188l131 596h265zM529 -33h-182q-3 5 -8 13l184 -1zM596 -166h-176l-15 26h179z
M549 -70h-461l-21 15l475 1zM573 -116h-180l-4 5q-17 -1 -66 0l6 -6h-176l-32 22h442zM622 -222l-323 -1l-47 36l160 -1l22 -19h10l-12 19h174zM652 -285h-268l-53 39l302 1zM385 -166h-164l-36 26h173zM222 -33h-186l-22 13h193zM295 210q-9 57 -31 213l-8 2l-27 -216
q66 2 66 1z" />
    <glyph glyph-name="Otilde" unicode="&#xd5;" horiz-adv-x="507" 
d="M97 632l-30 17q32 65 108 65q20 0 48.5 -13t46.5 -13q65 0 82 21l17 -21q-33 -56 -99 -56q-6 0 -52.5 13t-59.5 13q-31 0 -40 -6q-10 -10 -21 -20zM12 177l-1 289q-3 56 39 93t102 37h154q56 -4 95 -41q41 -41 49 -110q-2 -284 0 -284q-2 -129 -137 -160h-168
q-65 17 -100 66q-33 46 -33 110zM229 457q-14 0 -25.5 -10.5t-11.5 -24.5l-1 -258q0 -14 12 -24.5t26 -10.5t26 10.5t12 24.5l-1 256q0 14 -11.5 25.5t-25.5 11.5zM618 -246h-420q66 -44 180 -44h149q88 9 91 44zM60 -31h357q-19 7 -40 12h-289q-18 -4 -28 -12zM53 -70h191
q14 6 20 6q1 0 24 -6h195q-6 5 -22 16h-414q0 -2 6 -16zM342 -116h181q-12 14 -17 21h-182zM86 -116h185l-20 21h-182zM384 -166h182l-22 26l-181 -1zM127 -166h183l-22 26h-183zM418 -222h193q-2 3 -28 35h-182l19 -23q6 -7 -2 -12zM174 -223l198 1q-19 6 -24 11l-22 23
h-181z" />
    <glyph glyph-name="OE" unicode="&#x152;" horiz-adv-x="707" 
d="M659 -30h-561q6 4 13 8.5t27 4.5h510zM682 -51l16 -19l-619 1q-2 14 7 16zM2 177v289q0 57 40.5 93.5t100.5 36.5h114v0h376l2 -168h-191v-56l190 1v-144h-186q1 0 1 -59q0 -1 94 0t94 0v-170l-492 -1q-56 0 -99.5 57t-43.5 121zM259 171v254q0 14 -12.5 23t-26.5 9
q-15 0 -26 -10.5t-11 -24.5l1 -255q0 -15 11 -26.5t25 -11.5q13 0 26 13.5t13 28.5zM348 -93h189l18 -24h-191zM369 -290h511l-37 44l-628 1q55 -40 154 -45zM270 -95h-185q-1 -4 17 -21h182zM123 -140l21 -28h183l-23 28h-181zM401 -166l-22 26h375l22 -26h-375zM163 -187
l180 -1q9 -11 17.5 -20.5t22.5 -13.5h-191zM814 -214h-188l-21 27h-189q14 -8 13 -35h393z" />
    <glyph glyph-name="oe" unicode="&#x153;" horiz-adv-x="707" 
d="M659 -30h-561q6 4 13 8.5t27 4.5h510zM682 -51l16 -19l-619 1q-2 14 7 16zM2 177v289q0 57 40.5 93.5t100.5 36.5h114v0h376l2 -168h-191v-56l190 1v-144h-186q1 0 1 -59q0 -1 94 0t94 0v-170l-492 -1q-56 0 -99.5 57t-43.5 121zM259 171v254q0 14 -12.5 23t-26.5 9
q-15 0 -26 -10.5t-11 -24.5l1 -255q0 -15 11 -26.5t25 -11.5q13 0 26 13.5t13 28.5zM348 -93h189l18 -24h-191zM369 -290h511l-37 44l-628 1q55 -40 154 -45zM270 -95h-185q-1 -4 17 -21h182zM123 -140l21 -28h183l-23 28h-181zM401 -166l-22 26h375l22 -26h-375zM163 -187
l180 -1q9 -11 17.5 -20.5t22.5 -13.5h-191zM814 -214h-188l-21 27h-189q14 -8 13 -35h393z" />
    <glyph glyph-name="endash" unicode="&#x2013;" horiz-adv-x="567" 
d="M515 353l-1 -148l-509 1v146zM586 -89h-505l18 -22h507zM625 -134l27 -29h-510l-25 29h508z" />
    <glyph glyph-name="emdash" unicode="&#x2014;" horiz-adv-x="1105" 
d="M1209 -140l28 -34l-1091 1l-23 32zM1093 353l-1 -147h-1087v146zM77 -76h1088l27 -34h-1091z" />
    <glyph glyph-name="quotedblleft" unicode="&#x201c;" horiz-adv-x="442" 
d="M191 386q0 -1 -25 104t-26 105h-72l-71 1l97 -210q97 2 97 0zM387 386q0 -1 -25.5 104t-26.5 105h-72l-70 1l97 -210q97 2 97 0zM370 -246h-129l-3 -45h140q-1 22 -8 45zM565 -246h-129l-6 -47h142q0 26 -7 47zM440 -222h118l-11 43h-102zM244 -223l119 1l-12 43h-100z
" />
    <glyph glyph-name="quotedblright" unicode="&#x201d;" horiz-adv-x="442" 
d="M193 386q0 -1 25 104t27 105t142 3l-97 -212q-97 2 -97 0zM-3 386q0 -1 25.5 104t27 105t141.5 3l-97 -212q-97 2 -97 0zM370 -246h-129l-3 -45h140q-1 22 -8 45zM565 -246h-129l-6 -47h142q0 26 -7 47zM440 -222h118l-11 43h-102zM244 -223l119 1l-12 43h-100z" />
    <glyph glyph-name="quoteleft" unicode="&#x2018;" horiz-adv-x="218" 
d="M77 379h102l-48 216h-144zM370 -246h-129l-3 -45h140q-1 22 -8 45zM244 -223l119 1l-12 43h-100z" />
    <glyph glyph-name="quoteright" unicode="&#x2019;" horiz-adv-x="252" 
d="M-3 386q0 -1 25.5 104t27 105t141.5 3l-97 -212q-97 2 -97 0zM370 -246h-129l-3 -45h140q-1 22 -8 45zM244 -223l119 1l-12 43h-100z" />
    <glyph glyph-name="divide" unicode="&#xf7;" horiz-adv-x="850" 
 />
    <glyph glyph-name="ydieresis" unicode="&#xff;" horiz-adv-x="517" 
d="M320 638q-24 0 -41 16.5t-17 39.5q0 24 17 40t41 16q25 0 42 -16t17 -40q0 -23 -17 -39.5t-42 -16.5zM125 638q-24 0 -41 16.5t-17 39.5q0 24 17 40t41 16t41 -16t17 -40q0 -23 -17 -39.5t-41 -16.5zM405 -246h-162l7 -39h169zM673 -246h-174l55 -38h183q-15 10 -64 38z
M162 -31h186l-11 12h-190zM197 -70h187l-14 15h-186zM219 -116h229l-36 21h-197zM228 -166h150q0 1 -5 16l19 -16h144l-45 26h-268zM465 -222h168l-57 34h-155zM238 -223l160 1l-11 34h-155zM0 595l141 -438l1 -158h185v158q165 438 163 438h-184l-68 -279l-68 279h-170z
" />
    <glyph glyph-name="Ydieresis" unicode="&#x178;" horiz-adv-x="517" 
d="M314 643q-22 0 -37.5 15t-15.5 36t15.5 36t37.5 15q23 0 38.5 -15t15.5 -36t-15.5 -36t-38.5 -15zM159 643q-22 0 -37.5 15t-15.5 36t15.5 36t37.5 15t37.5 -15t15.5 -36t-15.5 -36t-37.5 -15zM405 -246h-162l7 -39h169zM673 -246h-174l55 -38h183q-15 10 -64 38z
M162 -31h186l-12 13h-192zM197 -70h187l-14 15h-186zM219 -116h229l-36 21h-197zM228 -166h151l-6 16l19 -16h144l-45 26h-268zM465 -222h168l-57 34h-155zM238 -223h158l-12 35h-152zM0 595l141 -438l1 -158h185v158q165 438 163 438h-184l-68 -279l-68 279h-170z" />
    <glyph glyph-name="currency" unicode="&#xa4;" horiz-adv-x="34" 
 />
    <glyph glyph-name="guilsinglleft" unicode="&#x2039;" horiz-adv-x="171" 
d="M69 436h46l-44 -168l44 -171h-46l-65 174z" />
    <glyph glyph-name="guilsinglright" unicode="&#x203a;" horiz-adv-x="171" 
d="M50 97h-46l44 169l-44 170h46l65 -173z" />
    <glyph glyph-name="daggerdbl" unicode="&#x2021;" horiz-adv-x="29" 
 />
    <glyph glyph-name="periodcentered" unicode="&#xb7;" horiz-adv-x="29" 
 />
    <glyph glyph-name="periodcentered" unicode="&#x2219;" horiz-adv-x="29" 
 />
    <glyph glyph-name="quotesinglbase" unicode="&#x201a;" horiz-adv-x="296" 
d="M16 204h205v-191q0 -2 -64 -84h-74l37 71h-103zM247 -21l17 -20h-72q8 10 16 21zM99 -20l-63 -1l16 -19l37 -1q3 6 10 21zM105 -108h209l-24 32h-212z" />
    <glyph glyph-name="quotedblbase" unicode="&#x201e;" horiz-adv-x="556" 
d="M286 204h205v-191q0 -2 -64 -84h-74l37 71h-103zM517 -21l17 -20h-72q8 10 16 21zM369 -20l-63 -1l16 -20h37q3 6 10 21zM375 -108h209l-24 32h-212zM16 204h205v-191q0 -2 -64 -84h-74l37 71h-103zM247 -21l17 -20h-72q8 10 16 21zM99 -20l-63 -1l16 -20h37q3 6 10 21z
M105 -108h209l-24 32h-212z" />
    <glyph glyph-name="perthousand" unicode="&#x2030;" horiz-adv-x="29" 
 />
    <glyph glyph-name="Acircumflex" unicode="&#xc2;" horiz-adv-x="538" 
d="M511 0h-93h-93q-2 -2 -16 77l-109 1l-14 -78h-188l131 596h265zM287 210q-8 57 -30 213l-8 2l-27 -216q65 2 65 1zM254 662q-38 -8 -133 -39l-4 18l135 86l151 -86l-4 -18q-53 15 -145 39zM529 -33h-182q-3 5 -8 13l184 -1zM596 -166h-176l-15 26h179zM549 -70h-461
l-21 15l475 1zM573 -116h-180l-4 5q-17 -1 -66 0l6 -6h-176l-32 22h442zM622 -222l-323 -1l-47 36l160 -1l22 -19h10l-12 19h174zM652 -285h-268l-53 39l302 1zM385 -166h-164l-36 26h173zM222 -33h-186l-22 13h193z" />
    <glyph glyph-name="Ecircumflex" unicode="&#xca;" horiz-adv-x="439" 
d="M177 662q-37 -8 -132 -39l-4 18l134 86l151 -86l-4 -18q-52 15 -145 39zM593 -246h-378l35 -40h377zM24 -32h379l-11 12h-378zM57 -70h379l-14 15h-379zM98 -116h190q-5 8 -14 20h-194zM143 -166h377l-24 26l-375 1zM194 -223l377 1l-13 13h-189l-20 21l-186 1zM1 596
v-596h379v170q0 1 -94 0t-94 0q0 59 -1 59h186v144l-190 -1v56h191v168h-377z" />
    <glyph glyph-name="Aacute" unicode="&#xc1;" horiz-adv-x="538" 
d="M511 0h-93h-93q-2 -2 -16 77l-109 1l-14 -78h-188l131 596h265zM287 210q-8 57 -30 213l-8 2l-27 -216q65 2 65 1zM159 641q185 77 185 73q0 -5 7.5 -30.5t9.5 -25.5q4 0 -198 -35zM529 -33h-182q-3 5 -8 13l184 -1zM596 -166h-176l-15 26h179zM549 -70h-461l-21 15
l475 1zM573 -116h-180l-4 5q-17 -1 -66 0l6 -6h-176l-32 22h442zM622 -222l-323 -1l-47 36l160 -1l22 -19h10l-12 19h174zM652 -285h-268l-53 39l302 1zM385 -166h-164l-36 26h173zM222 -33h-186l-22 13h193z" />
    <glyph glyph-name="Edieresis" unicode="&#xcb;" horiz-adv-x="439" 
d="M264 643q-22 0 -37.5 15t-15.5 36t15.5 36t37.5 15q23 0 38.5 -15t15.5 -36t-15.5 -36t-38.5 -15zM109 643q-22 0 -37.5 15t-15.5 36t15.5 36t37.5 15t37.5 -15t15.5 -36t-15.5 -36t-37.5 -15zM593 -246h-378l35 -40h377zM24 -32h379l-11 12h-378zM57 -70h379l-14 15
h-379zM98 -116h190q-5 8 -14 20h-194zM143 -166h377l-24 26l-375 1zM194 -223l377 1l-13 13h-189l-20 21l-186 1zM1 596v-596h379v170q0 1 -94 0t-94 0q0 59 -1 59h186v144l-190 -1v56h191v168h-377z" />
    <glyph glyph-name="Egrave" unicode="&#xc8;" horiz-adv-x="439" 
d="M284 641q-185 77 -185 73q0 -5 -7.5 -30.5t-10.5 -25.5q-4 0 199 -35zM593 -246h-378l35 -40h377zM24 -32h379l-11 12h-378zM57 -70h379l-14 15h-379zM98 -116h190q-5 8 -14 20h-194zM143 -166h377l-24 26l-375 1zM194 -223l377 1l-13 13h-189l-20 21l-186 1zM0 595
l1 -595h379v170q0 1 -94 0t-94 0q0 59 -1 59h186v143h-190v56h191v168z" />
    <glyph glyph-name="Iacute" unicode="&#xcd;" horiz-adv-x="247" 
d="M-20 641q186 77 186 73q0 -5 7 -30.5t10 -25.5q4 0 -198 -35zM400 -246h-185l35 -38h186zM21 -31h186l-11 12h-186q3 -3 11 -12zM55 -70h187l-14 15h-186zM98 -116h185l-18 21h-187zM143 -166h186l-24 26h-186zM194 -223l185 1l-31 33l-186 1zM1 595q-3 -595 0 -595h185
v595h-185z" />
    <glyph glyph-name="Icircumflex" unicode="&#xce;" horiz-adv-x="247" 
d="M84 662q-38 -8 -133 -39l-4 18l135 86l151 -86l-4 -18q-53 15 -145 39zM400 -246h-185l35 -38h186zM21 -31h186l-14 12h-183q3 -3 11 -12zM58 -70h184l-14 15h-186zM98 -116h185l-18 21h-187zM143 -166h186l-24 26h-186zM194 -223l185 1l-31 33l-186 1zM1 595
q-3 -595 0 -595h185v595h-185z" />
    <glyph glyph-name="Idieresis" unicode="&#xcf;" horiz-adv-x="247" 
d="M164 643q-22 0 -37.5 15t-15.5 36t15.5 36t37.5 15q23 0 38.5 -15t15.5 -36t-15.5 -36t-38.5 -15zM9 643q-22 0 -37.5 15t-15.5 36t15.5 36t37.5 15t37.5 -15t15.5 -36t-15.5 -36t-37.5 -15zM400 -246h-185l35 -38h186zM21 -31h186l-16 12h-181q3 -3 11 -12zM54 -72
l188 2l-14 15h-186zM98 -116h185l-18 21h-187zM143 -166h186l-24 26h-186zM194 -223l185 1l-31 33l-186 1zM1 595q-3 -595 0 -595h185v595h-185z" />
    <glyph glyph-name="Igrave" unicode="&#xcc;" horiz-adv-x="247" 
d="M190 641q-185 77 -185 73q0 -5 -7 -30.5t-10 -25.5q-4 0 198 -35zM400 -246h-185l35 -38h186zM21 -31h186l-16 12h-181q3 -3 11 -12zM54 -72l188 2l-14 15h-186zM98 -116h185l-18 21h-187zM143 -166h186l-24 26h-186zM194 -223l185 1l-31 33l-186 1zM1 595
q-3 -595 0 -595h185v595h-185z" />
    <glyph glyph-name="Oacute" unicode="&#xd3;" horiz-adv-x="508" 
d="M125 641q185 77 185 73q0 -5 7.5 -30.5t9.5 -25.5q4 0 -198 -35zM12 177l-1 289q-3 56 39 93t102 37h154q56 -4 95 -41q41 -41 49 -110q-2 -284 0 -284q-2 -129 -137 -160h-168q-65 17 -100 66q-33 46 -33 110zM229 457q-14 0 -25.5 -10.5t-11.5 -24.5l-1 -258
q0 -14 12 -24.5t26 -10.5t26 10.5t12 24.5l-1 256q0 14 -11.5 25.5t-25.5 11.5zM618 -246h-420q66 -44 180 -44h149q88 9 91 44zM60 -31h357q-19 7 -40 12h-289q-18 -4 -28 -12zM53 -70h191q14 6 20 6q1 0 24 -6h195q-6 5 -22 16h-414q0 -2 6 -16zM342 -116h181
q-12 14 -17 21h-182zM86 -116h185l-20 21h-182zM384 -166h182l-22 26l-181 -1zM127 -166h183l-22 26h-183zM418 -222h193q-2 3 -28 35h-182l19 -23q6 -7 -2 -12zM174 -223l198 1q-18 6 -24 11l-24 22l-179 1z" />
    <glyph glyph-name="Ocircumflex" unicode="&#xd4;" horiz-adv-x="508" 
d="M211 662q-37 -8 -132 -39l-4 18l134 86l151 -86l-4 -18q-52 15 -145 39zM12 177l-1 289q-3 56 39 93t102 37h154q56 -4 95 -41q41 -41 49 -110q-2 -284 0 -284q-2 -129 -137 -160h-168q-65 17 -100 66q-33 46 -33 110zM229 457q-14 0 -25.5 -10.5t-11.5 -24.5l-1 -258
q0 -14 12 -24.5t26 -10.5t26 10.5t12 24.5l-1 256q0 14 -11.5 25.5t-25.5 11.5zM618 -246h-420q66 -44 180 -44h149q88 9 91 44zM60 -31h357q-19 7 -40 12h-289q-18 -4 -28 -12zM53 -70h191q14 6 20 6q1 0 24 -6h195q-6 5 -22 16h-414q0 -2 6 -16zM342 -116h181
q-12 14 -17 21h-182zM86 -116h185l-20 21h-182zM384 -166h182l-22 26l-181 -1zM127 -166h183l-22 26h-183zM418 -222h193q-2 3 -28 35h-182l19 -23q6 -7 -2 -12zM174 -223l198 1q-18 6 -24 11l-24 22l-179 1z" />
    <glyph glyph-name="Ograve" unicode="&#xd2;" horiz-adv-x="508" 
d="M318 641q-185 77 -185 73q0 -5 -7.5 -30.5t-10.5 -25.5q-4 0 199 -35zM12 177l-1 289q-3 56 39 93t102 37h154q56 -4 95 -41q41 -41 49 -110q-2 -284 0 -284q-2 -129 -137 -160h-168q-65 17 -100 66q-33 46 -33 110zM229 457q-14 0 -25.5 -10.5t-11.5 -24.5l-1 -258
q0 -14 12 -24.5t26 -10.5t26 10.5t12 24.5l-1 256q0 14 -11.5 25.5t-25.5 11.5zM618 -246h-420q66 -44 180 -44h149q88 9 91 44zM60 -31h357q-19 7 -40 12h-289q-18 -4 -28 -12zM53 -70h191q14 6 20 6q1 0 24 -6h195q-6 5 -22 16h-414q0 -2 6 -16zM342 -116h181
q-12 14 -17 21h-182zM86 -116h185l-20 21h-182zM384 -166h182l-22 26l-181 -1zM127 -166h183l-22 26h-183zM418 -222h193q-2 3 -28 35h-182l19 -23q6 -7 -2 -12zM174 -223l198 1q-20 6 -24 11l-19 22l-184 1z" />
    <glyph glyph-name="Uacute" unicode="&#xda;" horiz-adv-x="491" 
d="M116 641q186 77 186 73q0 -5 7 -30.5t10 -25.5q4 0 -198 -35zM89 -31h313q-29 8 -63 12l-209 1q-17 0 -41 -13zM67 -70h427q-12 8 -26 15h-401q-2 -7 0 -15zM438 161q-2 -128 -138 -160q3 0 -46.5 0h-78.5h-42q-66 17 -101 66q-33 46 -33 110l-1 420h180q2 -170 0 -433
q0 -14 11 -27t25 -14q40 -2 40 41l-1 433h184q0 5 0 -229q-1 -207 1 -207zM650 -246h-185l35 -38h186zM348 -116h185l-18 21h-187zM393 -166h186l-24 26h-186zM444 -223l185 1l-34 35l-183 -1zM400 -246h-185l35 -38h186zM97 -115l186 -1l-18 21h-187zM143 -166h186l-24 26
h-186zM194 -223l185 1l-31 35l-186 -1z" />
    <glyph glyph-name="Ucircumflex" unicode="&#xdb;" horiz-adv-x="491" 
d="M211 662q-37 -8 -132 -39l-4 18l134 86l151 -86l-4 -18q-52 15 -145 39zM89 -31h313q-29 8 -63 12l-209 1q-17 0 -41 -13zM67 -70h427q-12 8 -26 15h-401q-2 -7 0 -15zM438 161q-2 -128 -138 -160q3 0 -46.5 0h-78.5h-42q-66 17 -101 66q-33 46 -33 110l-1 420h180
q2 -170 0 -433q0 -14 11 -27t25 -14q40 -2 40 41l-1 433h184q0 5 0 -229q-1 -207 1 -207zM650 -246h-185l35 -38h186zM348 -116h185l-18 21h-187zM393 -166h186l-24 26h-186zM444 -223l185 1l-34 35l-183 -1zM400 -246h-185l35 -38h186zM97 -115l186 -1l-18 21h-187z
M143 -166h186l-24 26h-186zM194 -223l185 1l-31 35l-186 -1z" />
    <glyph glyph-name="Ugrave" unicode="&#xd9;" horiz-adv-x="491" 
d="M318 641q-185 77 -185 73q0 -5 -7.5 -30.5t-10.5 -25.5q-4 0 199 -35zM89 -31h313q-29 8 -63 12l-209 1q-17 0 -41 -13zM67 -70h427q-12 8 -26 15h-401q-2 -7 0 -15zM438 161q-2 -128 -138 -160q3 0 -46.5 0h-78.5h-42q-66 17 -101 66q-33 46 -33 110l-1 420h180
q2 -170 0 -433q0 -14 11 -27t25 -14q40 -2 40 41l-1 433h184q0 5 0 -229q-1 -207 1 -207zM650 -246h-185l35 -38h186zM348 -116h185l-18 21h-187zM393 -166h186l-24 26h-186zM444 -223l185 1l-34 35l-183 -1zM400 -246h-185l35 -38h186zM97 -115l186 -1l-18 21h-187z
M143 -166h186l-24 26h-186zM194 -223l185 1l-31 35l-186 -1z" />
    <glyph glyph-name="circumflex" unicode="&#x2c6;" horiz-adv-x="538" 
d="M254 662q-38 -8 -133 -39l-4 18l135 86l151 -86l-4 -18q-53 15 -145 39z" />
    <glyph glyph-name="tilde" unicode="&#x2dc;" horiz-adv-x="508" 
d="M97 632l-30 17q32 65 108 65q20 0 48.5 -13t46.5 -13q65 0 82 21l17 -21q-33 -56 -99 -56q-6 0 -52.5 13t-59.5 13q-31 0 -40 -6q-10 -10 -21 -20z" />
    <glyph glyph-name="macron" unicode="&#xaf;" horiz-adv-x="450" 
d="M58 718h263v-65h-263v65z" />
    <glyph glyph-name="macron" unicode="&#x2c9;" horiz-adv-x="450" 
d="M58 718h263v-65h-263v65z" />
    <glyph glyph-name="cedilla" unicode="&#xb8;" horiz-adv-x="464" 
d="M186 6v-55l38 3l27 -17q1 -3 4.5 -14.5t3.5 -12.5q0 -7 -7.5 -21t-7.5 -21q0 -1 -10.5 -7.5t-13.5 -6.5l-41 7v-24q71 -11 65 -11q35 0 63 32.5t28 68.5q0 19 -22 35.5t-41 16.5q-6 0 -18.5 -2t-19.5 -2q-3 0 -7 31h-41z" />
    <glyph glyph-name="Scaron" unicode="&#x160;" 
 />
    <glyph glyph-name="scaron" unicode="&#x161;" 
 />
    <glyph glyph-name="brokenbar" unicode="&#xa6;" 
 />
    <glyph glyph-name="Eth" unicode="&#xd0;" 
 />
    <glyph glyph-name="eth" unicode="&#xf0;" 
 />
    <glyph glyph-name="Yacute" unicode="&#xdd;" 
 />
    <glyph glyph-name="yacute" unicode="&#xfd;" 
 />
    <glyph glyph-name="Thorn" unicode="&#xde;" 
 />
    <glyph glyph-name="thorn" unicode="&#xfe;" horiz-adv-x="1" 
 />
    <glyph glyph-name="minus" unicode="&#xad;" 
 />
    <glyph glyph-name="minus" unicode="&#x2212;" 
 />
    <glyph glyph-name="multiply" unicode="&#xd7;" 
 />
    <glyph glyph-name="onesuperior" unicode="&#xb9;" 
 />
    <glyph glyph-name="twosuperior" unicode="&#xb2;" 
 />
    <glyph glyph-name="threesuperior" unicode="&#xb3;" 
 />
    <glyph glyph-name="onehalf" unicode="&#xbd;" 
 />
    <glyph glyph-name="onequarter" unicode="&#xbc;" 
 />
    <glyph glyph-name="threequarters" unicode="&#xbe;" 
 />
    <glyph glyph-name="Lslash" unicode="&#x141;" 
 />
    <glyph glyph-name="lslash" unicode="&#x142;" 
 />
    <glyph glyph-name="HT" 
 />
    <glyph glyph-name="LF" 
 />
    <glyph glyph-name="nonmarkingreturn" 
 />
    <glyph glyph-name="Zcaron" unicode="&#x17d;" 
 />
    <glyph glyph-name="zcaron" unicode="&#x17e;" 
 />
    <glyph glyph-name="DLE" 
 />
    <glyph glyph-name="DC1" 
 />
    <glyph glyph-name="DC2" 
 />
    <glyph glyph-name="DC3" 
 />
    <glyph glyph-name="DC4" 
 />
    <glyph glyph-name="RS" 
 />
    <glyph glyph-name="US" 
 />
    <glyph glyph-name="DEL" horiz-adv-x="1406" 
 />
    <glyph glyph-name="notequal" unicode="&#x2260;" horiz-adv-x="22" 
 />
    <glyph glyph-name="partialdiff" unicode="&#x2202;" horiz-adv-x="403" 
d="M366 -31h-306l-10 12h306zM402 -70h-309l-13 15h307zM426 -104q-131 -1 -132 0l12 -12h-174l-18 21h306zM348 -166h-174l-22 26h174zM395 -222l-173 -1l-29 35h173zM451 -290q-171 -1 -171 0l-38 44h173zM282 399q-10 -13 -59 -68v-156q0 2 132 0v-175h-307v137l-42 -44
v91l43 46l-1 366q0 2 174 0v-171l60 65v-91z" />
    <glyph glyph-name="summation" unicode="&#x2211;" horiz-adv-x="469" 
d="M560 -289q55 5 55 32q0 5 -3 11h-412q48 -36 134 -43h226zM133 -19q-32 -2 -59 -13h321q-16 9 -86 14zM43 -53q0 -3 6.5 -10t7.5 -8l415 1q-7 9 -18 16zM260 -95l20 -22l-188 1l-21 21h189zM308 -95l18 -21h186l-19 21h-185zM133 -167q-16 15 4 27h395q6 -16 -3 -27h-396
zM146 -187q11 -13 31 -36l190 1l-29 34zM417 -222l-17 21q176 1 177 0l19 -22zM0 198l186 -1v-31q0 -25 24 -25q25 0 25 25l-1 33q0 38 -48 34q-24 -3 -87 0q-103 3 -103 104v134q0 58 51 96q40 29 76 29q157 -2 176 0q43 3 81 -32t38 -74l-1 -68q0 -2 -182 0v18
q0 22 -25 22q-26 0 -26 -29v-22q-1 -32 31 -33l96 -2q51 -14 70.5 -28t38.5 -53v-176q0 -100 -134 -118h-131q-66 0 -110.5 34.5t-44.5 89.5v73zM215 688q38 8 133 39l4 -18l-135 -86l-151 86l4 18q53 -15 145 -39z" />
    <glyph glyph-name="product" unicode="&#x220f;" horiz-adv-x="469" 
d="M0 198l186 -1v-31q0 -25 24 -25q25 0 25 25l-1 33q0 38 -48 34q-24 -2 -87 0q-103 3 -103 104v134q0 58 51 96q40 29 76 29q157 -2 176 0q43 3 81 -32t38 -74l-1 -68q0 -2 -182 0v18q0 22 -25 22q-26 0 -26 -29v-22q-1 -32 31 -33l96 -2q51 -14 70.5 -28t38.5 -53v-176
q0 -100 -134 -118h-131q-66 0 -110.5 34.5t-44.5 89.5v73zM215 688q38 8 133 39l4 -18l-135 -86l-151 86l4 18q53 -15 145 -39zM560 -289q55 5 55 32q0 5 -3 11h-412q48 -36 134 -43h226zM133 -19q-32 -2 -59 -13h321q-16 9 -86 14zM43 -53q0 -3 6.5 -10t7.5 -8l415 1
q-7 9 -18 16zM260 -95l20 -22l-188 1l-21 21h189zM308 -95l18 -21h186l-19 21h-185zM133 -167q-16 15 4 27h395q6 -16 -3 -27h-396zM146 -187q11 -13 31 -36l190 1l-29 34zM417 -222l-17 21q176 1 177 0l19 -22z" />
    <glyph glyph-name="pi" unicode="&#x3c0;" horiz-adv-x="517" 
d="M150 641q186 77 186 73q0 -5 7 -30.5t10 -25.5q4 0 -198 -35zM405 -246h-162l7 -39h169zM673 -246h-174l55 -38h183q-15 10 -64 38zM162 -31h186l-11 12h-190zM197 -70h187l-14 15h-186zM219 -116h229l-36 21h-197zM228 -166h149l-4 16l19 -16h144l-45 26h-268zM465 -222
h168l-57 34h-155zM238 -223l157 1l-8 32l-155 -1zM0 595l141 -438l1 -158h185v158q165 438 163 438h-184l-68 -279l-68 279h-170z" />
    <glyph glyph-name="integral" unicode="&#x222b;" horiz-adv-x="517" 
d="M150 641q186 77 186 73q0 -5 7 -30.5t10 -25.5q4 0 -198 -35zM405 -246h-162l7 -39h169zM673 -246h-174l55 -38h183q-15 10 -64 38zM162 -31h186l-11 11l-190 1zM197 -70h187l-14 15h-186zM219 -116h229l-36 21h-197zM228 -166h149l-4 16l25 -17l138 1l-45 26h-268z
M465 -222h168l-57 34h-155zM238 -223h160l-11 35l-155 -1zM0 595l141 -438l1 -158h185v158q165 438 163 438h-184l-68 -279l-68 279h-170z" />
    <glyph glyph-name="Omega" unicode="&#x3a9;" horiz-adv-x="505" 
d="M594 -291h-195q-75 4 -137 45h398q3 -8 3 -15q0 -32 -69 -30zM450 -31q-9 13 -60 13h-244q-18 -3 -20 -3q-11 -3 -16 -10h340zM495 -55q5 -4 15 -14h-395q-4 5 -9 15zM357 -94q5 -5 10 -12h126l-10 12h-126zM129 -94h177l20 -22h-181zM123 -140l11 -12h43l13 -18l184 -2
l-18 22h168l-10 10h-391zM233 -222l-20 22h-43l-7 12q132 4 392 0l9 -10h-169q8 -10 23 -24h-185zM483 -222l-11 10h162l8 -10h-159zM3 382h43v78q7 60 38 96q33 40 86 40h166q49 0 81 -34t35 -91l2 -46h-181l1 7q0 31 -23 31q-25 0 -25 -31v-50h169v-52h-169v-50h169v-52
h-169v-61q0 -31 30 -31q31 0 24 43h175v-56q0 -52 -35.5 -84t-91.5 -38h-158q-43 -5 -78 26q-40 35 -46 101v100h-43v52h43v50h-43v52z" />
    <glyph glyph-name="Omega" unicode="&#x2126;" horiz-adv-x="505" 
d="M594 -291h-195q-75 4 -137 45h398q3 -8 3 -15q0 -32 -69 -30zM450 -31q-9 13 -60 13h-244q-18 -3 -20 -3q-11 -3 -16 -10h340zM495 -55q5 -4 15 -14h-395q-4 5 -9 15zM357 -94q5 -5 10 -12h126l-10 12h-126zM129 -94h177l20 -22h-181zM123 -140l11 -12h43l13 -18l184 -2
l-18 22h168l-10 10h-391zM233 -222l-20 22h-43l-7 12q132 4 392 0l9 -10h-169q8 -10 23 -24h-185zM483 -222l-11 10h162l8 -10h-159zM3 382h43v78q7 60 38 96q33 40 86 40h166q49 0 81 -34t35 -91l2 -46h-181l1 7q0 31 -23 31q-25 0 -25 -31v-50h169v-52h-169v-50h169v-52
h-169v-61q0 -31 30 -31q31 0 24 43h175v-56q0 -52 -35.5 -84t-91.5 -38h-158q-43 -5 -78 26q-40 35 -46 101v100h-43v52h43v50h-43v52z" />
    <glyph glyph-name="radical" unicode="&#x221a;" horiz-adv-x="14" 
 />
    <glyph glyph-name="approxequal" unicode="&#x2248;" horiz-adv-x="22" 
 />
    <glyph glyph-name="approxequal" unicode="&#x22f2;" horiz-adv-x="22" 
 />
    <glyph glyph-name="Delta" unicode="&#x394;" horiz-adv-x="37" 
 />
    <glyph glyph-name="Delta" unicode="&#x2206;" horiz-adv-x="37" 
 />
    <glyph glyph-name="lozenge" unicode="&#x25ca;" horiz-adv-x="850" 
 />
    <glyph glyph-name="fraction" unicode="&#x2044;" horiz-adv-x="29" 
 />
    <glyph glyph-name="fi" unicode="&#xf001;" horiz-adv-x="39" 
 />
    <glyph glyph-name="fl" unicode="&#xf002;" horiz-adv-x="29" 
 />
    <glyph glyph-name="dotlessi" unicode="&#x131;" horiz-adv-x="246" 
d="M400 -246h-185l35 -38h186zM21 -31h186l-16 14l-181 -2q3 -3 11 -12zM54 -72l188 2l-14 15h-186zM98 -116h185l-18 21h-187zM143 -166h186l-24 26h-186zM194 -223l185 1l-31 33l-186 1zM1 595q-3 -595 0 -595h185v595h-185zM7021 77z" />
    <glyph glyph-name="breve" unicode="&#x2d8;" horiz-adv-x="14" 
 />
    <glyph glyph-name="dotaccent" unicode="&#x2d9;" horiz-adv-x="287" 
d="M80 697q0 21 15 36t37 15q21 0 36 -15t15 -36q0 -22 -15 -37t-36 -15q-22 0 -37 15t-15 37z" />
    <glyph glyph-name="ring" unicode="&#x2da;" horiz-adv-x="850" 
d="M170 624q-42 0 -73 23q-34 25 -34 62q0 38 34 63q31 23 73 23q43 0 75.5 -24t32.5 -62q0 -37 -32.5 -61t-75.5 -24zM170 753q-29 0 -47 -14t-18 -30q0 -15 18 -29t47 -14q30 0 49 15q16 13 16 28q0 16 -16 29q-19 15 -49 15z" />
    <glyph glyph-name="hungarumlaut" unicode="&#x2dd;" horiz-adv-x="442" 
d="M170 619q26 27 52 55q52 55 53 55t90 -2l-137 -107q-57 1 -58 -1zM52 618l52.5 56.5t53.5 56.5t86 -1l-133 -112q-58 1 -59 0z" />
    <glyph glyph-name="ogonek" unicode="&#x2db;" horiz-adv-x="244" 
d="M184 -148q-27 -58 -78 -58q-43 0 -69 36q-24 33 -24 81t24 85q27 41 69 41v-50q-14 0 -27 -18q-16 -23 -16 -58t16 -53q12 -14 27 -14q28 0 41 28z" />
    <glyph glyph-name="caron" unicode="&#x2c7;" horiz-adv-x="538" 
d="M266 688q38 8 133 39l4 -18l-135 -86l-151 86l4 18q53 -15 145 -39z" />
    </font>
</defs>
</svg>
