<?xml version="1.0" standalone="no"?>
<!DOCTYPE svg PUBLIC "-//W3C//DTD SVG 1.1//EN" "http://www.w3.org/Graphics/SVG/1.1/DTD/svg11.dtd" >
<svg>
<metadata>
Created by FontForge 20120731 at Thu Apr 18 09:21:05 2019
 By www-data
Digitized by Dan X. Solo. Software (c) 1999 by Dover Publications, Inc., New York.
</metadata>
<defs>
<font id="Xerxes" horiz-adv-x="3" >
  <font-face 
    font-family="Xerxes"
    font-weight="400"
    font-stretch="normal"
    units-per-em="1000"
    panose-1="0 0 4 0 0 0 0 0 0 0"
    ascent="800"
    descent="-200"
    x-height="656"
    cap-height="675"
    bbox="-97 -196 924 862"
    underline-thickness="20"
    underline-position="-123"
    unicode-range="U+0020-F002"
  />
<missing-glyph horiz-adv-x="500" 
d="M63 0v800h375v-800h-375zM125 63h250v675h-250v-675z" />
    <glyph glyph-name=".notdef" horiz-adv-x="500" 
d="M63 0v800h375v-800h-375zM125 63h250v675h-250v-675z" />
    <glyph glyph-name=".null" horiz-adv-x="0" 
 />
    <glyph glyph-name="glyph2" horiz-adv-x="199" 
 />
    <glyph glyph-name="space" unicode=" " horiz-adv-x="199" 
 />
    <glyph glyph-name="exclam" unicode="!" horiz-adv-x="188" 
d="M106 174l-77 -15v525l77 11v-521zM102 1l-73 -15v108l73 19v-112z" />
    <glyph glyph-name="quotedbl" unicode="&#x22;" horiz-adv-x="334" 
d="M250 546l-81 -58v181l81 15v-138zM100 546l-81 -58v181l81 15v-138z" />
    <glyph glyph-name="numbersign" unicode="#" horiz-adv-x="580" 
d="M321 430h-96l-39 -181h96zM517 508l-52 -78h-70l-39 -181h107l-53 -76h-70l-33 -153l-78 -17l36 170l-95 1l-33 -154l-78 -17l37 171h-102l52 75h66l39 181h-105l56 79h65l32 149l79 17l-36 -167h95l32 150l79 17l-36 -167h105z" />
    <glyph glyph-name="dollar" unicode="$" horiz-adv-x="383" 
d="M318 216l-113 -83v-132l-78 -15l1 100l-64 -41l-47 59l177 127l-203 241l125 85v118l73 15l2 -91l50 32l47 -62l-177 -113z" />
    <glyph glyph-name="percent" unicode="%" horiz-adv-x="661" 
d="M465 -1l-126 239l124 229l126 -232zM461 345l-57 -109l59 -115l60 113zM125 209l-126 239l124 229l126 -232zM121 555l-57 -109l59 -115l60 113zM429 675h52l-326 -674h-52z" />
    <glyph glyph-name="ampersand" unicode="&#x26;" horiz-adv-x="588" 
d="M533 353l-34 -76h-41l2 -129l-214 -185l-231 250l150 143l-135 165l219 190l183 -137l-43 -66l-134 98l-109 -92l139 -166l-154 -135l115 -133l126 106l1 94h-54l38 73h176z" />
    <glyph glyph-name="quotesingle" unicode="'" horiz-adv-x="172" 
d="M88 537l-80 -55l1 187l80 15z" />
    <glyph glyph-name="parenleft" unicode="(" horiz-adv-x="234" 
d="M149 698q0 -5 -38 -58t-38 -57l-1 -521l80 -120l-24 -38l-128 148v538q11 20 60 74q57 61 72 81q17 -25 17 -47z" />
    <glyph glyph-name="parenright" unicode=")" horiz-adv-x="232" 
d="M8 701l78 -118v-528l-81 -121l25 -30l129 148v538l-132 155z" />
    <glyph glyph-name="asterisk" unicode="*" horiz-adv-x="359" 
d="M96 405l-34 35l44 77h-102l14 46h89l-51 89l46 12l45 -78l51 88l33 -34l-44 -77h102l-13 -46h-89l51 -89l-47 -11l-44 76z" />
    <glyph glyph-name="plus" unicode="+" horiz-adv-x="538" 
d="M10 281l23 78l174 -1v199l78 -21v-178h199l-21 -77h-178v-198l-78 25v173h-197z" />
    <glyph glyph-name="comma" unicode="," horiz-adv-x="200" 
d="M127 121l-91 -195l-80 -21l90 194z" />
    <glyph glyph-name="hyphen" unicode="-" horiz-adv-x="355" 
d="M274 248l-21 -77h-243l23 78z" />
    <glyph glyph-name="hyphen" unicode="&#x2010;" horiz-adv-x="355" 
d="M274 248l-21 -77h-243l23 78z" />
    <glyph glyph-name="period" unicode="." horiz-adv-x="204" 
d="M119 7q-17 -3 -78 -10v114q21 4 78 17v-121z" />
    <glyph glyph-name="slash" unicode="/" horiz-adv-x="472" 
d="M342 678l71 18l-335 -693l-74 -23z" />
    <glyph glyph-name="zero" unicode="0" horiz-adv-x="452" 
d="M391 347l-197 -377l-200 380l196 366zM301 345l-115 213l-102 -209l114 -216z" />
    <glyph glyph-name="one" unicode="1" horiz-adv-x="341" 
d="M213 1l-87 -28v619l-75 -12v78l162 34v-691z" />
    <glyph glyph-name="two" unicode="2" horiz-adv-x="437" 
d="M364 441l-221 -370h183l-15 -75h-310l258 428l-236 202l66 47z" />
    <glyph glyph-name="three" unicode="3" horiz-adv-x="410" 
d="M326 162l-272 -204l-35 66l179 146l-161 153l158 165l-158 137l32 74l245 -203l-161 -169z" />
    <glyph glyph-name="four" unicode="4" horiz-adv-x="503" 
d="M420 164h-52l2 -165l-78 -22l-2 188h-293l316 538l63 -52l-241 -404h155v178l74 110v-288h59z" />
    <glyph glyph-name="five" unicode="5" horiz-adv-x="428" 
d="M348 317l-297 -357l-55 50l232 288l-220 153l49 223h287l-27 -78h-191l-29 -105z" />
    <glyph glyph-name="six" unicode="6" horiz-adv-x="527" 
d="M445 248l-208 -279l-238 352l256 376l63 -39l-221 -337l143 -215l110 144l-126 172l47 66z" />
    <glyph glyph-name="seven" unicode="7" horiz-adv-x="434" 
d="M369 658l-264 -702l-68 46l218 577q-17 1 -237 1q5 32 16 78h335z" />
    <glyph glyph-name="eight" unicode="8" horiz-adv-x="491" 
d="M433 178l-215 -219l-227 212l158 187l-135 154l215 226l58 -51l-161 -176l84 -88l81 88l-64 64l51 54l121 -119l-131 -152zM317 176l-115 116l-102 -114l112 -106z" />
    <glyph glyph-name="nine" unicode="9" horiz-adv-x="500" 
d="M431 348l-259 -373l-67 43l229 330l-141 219l-103 -140l127 -165l-51 -65l-173 231l200 278z" />
    <glyph glyph-name="colon" unicode=":" horiz-adv-x="196" 
d="M116 276q-21 -5 -75 -20v111q19 6 75 19v-110zM119 11q-17 -3 -78 -10v110q21 4 78 17v-117z" />
    <glyph glyph-name="semicolon" unicode=";" horiz-adv-x="196" 
d="M127 121l-91 -195l-80 -21l90 194zM127 276q-22 -5 -75 -20l-1 111q19 6 76 19v-110z" />
    <glyph glyph-name="less" unicode="&#x3c;" horiz-adv-x="384" 
d="M266 24l-266 269l262 257l47 -52l-208 -207l215 -218z" />
    <glyph glyph-name="equal" unicode="=" horiz-adv-x="542" 
d="M10 329l23 78l451 -1l-21 -77h-453zM10 161l23 78l451 -1l-21 -77h-453z" />
    <glyph glyph-name="greater" unicode="&#x3e;" horiz-adv-x="372" 
d="M48 24l-50 49l215 218l-207 207l46 52l262 -257z" />
    <glyph glyph-name="question" unicode="?" horiz-adv-x="388" 
d="M322 544l-150 -256v-117l-82 -20v153l134 232l-47 54h-181l59 77h146zM171 0l-78 -14v97l78 19v-102z" />
    <glyph glyph-name="A" unicode="A" horiz-adv-x="531" 
d="M484 -41l-332 161l25 68l180 -86l-131 371l-155 -462l-65 35l210 659z" />
    <glyph glyph-name="B" unicode="B" horiz-adv-x="417" 
d="M356 197l-308 -252q-13 11 -43 51l236 201l-142 135l107 135q-36 34 -132 89l-3 -429q-1 -10 -27.5 -32.5t-44.5 -31.5v625l322 -203l-118 -142q18 -23 65 -65q69 -63 88 -81z" />
    <glyph glyph-name="C" unicode="C" horiz-adv-x="386" 
d="M296 49q-14 -20 -43 -61l-255 364l252 334q20 -26 40 -65l-198 -270z" />
    <glyph glyph-name="D" unicode="D" horiz-adv-x="417" 
d="M362 351l-317 -375q-18 8 -47 58l264 315l-188 186v-342q1 -15 -75 -81v597z" />
    <glyph glyph-name="E" unicode="E" horiz-adv-x="342" 
d="M268 57q-9 -22 -33 -66l-252 196l163 153l-146 159l224 189l37 -62l-150 -134l146 -153l-153 -145z" />
    <glyph glyph-name="F" unicode="F" horiz-adv-x="330" 
d="M222 403l-32 -75h-106l32 75h106zM302 665l-32 -72l-196 -1l1 -583q-46 -12 -79 -18v674h306z" />
    <glyph glyph-name="G" unicode="G" horiz-adv-x="502" 
d="M427 366l-229 -371l-210 356l231 342l43 -65l-187 -279l123 -208q47 69 106 152l-106 1l-42 72h271z" />
    <glyph glyph-name="H" unicode="H" horiz-adv-x="458" 
d="M355 9l-76 -21v664l76 28v-671zM233 427l-157 -96v-319q-10 -3 -38 -10t-39 -10l-1 660l78 28v-274l157 96v-75z" />
    <glyph glyph-name="I" unicode="I" horiz-adv-x="158" 
d="M73 20q-25 -5 -75 -17v655q5 1 75 17v-655z" />
    <glyph glyph-name="J" unicode="J" horiz-adv-x="352" 
d="M270 -33q-89 57 -268 174q2 21 22 73l163 -99v542q25 17 83 41v-731z" />
    <glyph glyph-name="K" unicode="K" horiz-adv-x="452" 
d="M389 22q-25 -11 -72 -29l-229 359l239 339q17 -24 44 -68l-184 -273zM82 7l-77 -25v686l77 22v-683z" />
    <glyph glyph-name="L" unicode="L" horiz-adv-x="351" 
d="M304 76l-33 -76h-268v661q29 11 75 22v-607h226z" />
    <glyph glyph-name="M" unicode="M" horiz-adv-x="686" 
d="M612 11q-18 -10 -69 -29l-113 495l-126 -252l-138 244l-99 -487q-20 7 -64 22l131 679q52 -101 161 -298l164 305q54 -228 153 -679z" />
    <glyph glyph-name="N" unicode="N" horiz-adv-x="454" 
d="M368 17q-24 -8 -73 -28v171q0 8 -220 305v-448q-18 -10 -76 -30l-1 702q26 -28 129 -172q109 -152 164 -215v354l77 29v-668z" />
    <glyph glyph-name="O" unicode="O" horiz-adv-x="535" 
d="M460 351l-220 -364l-235 365l229 343zM367 352l-135 203l-133 -205l141 -216z" />
    <glyph glyph-name="P" unicode="P" horiz-adv-x="386" 
d="M333 459l-213 -265v103l116 145l-163 109l1 -538l-72 -27l-1 700z" />
    <glyph glyph-name="Q" unicode="Q" horiz-adv-x="536" 
d="M475 338l-232 -367l-246 372l239 354zM449 75l-45 -74h-98l45 74h98zM378 338l-142 215l-142 -212l149 -219z" />
    <glyph glyph-name="R" unicode="R" horiz-adv-x="415" 
d="M349 22l-67 -36l-173 327l101 146l-128 93l-1 -533l-77 -29v706l311 -216l-115 -173z" />
    <glyph glyph-name="S" unicode="S" horiz-adv-x="357" 
d="M290 214l-207 -232l-42 62l155 170l-198 261l200 222l45 -62l-147 -167z" />
    <glyph glyph-name="T" unicode="T" horiz-adv-x="406" 
d="M341 622l-129 -28v-580l-75 -28v596l-137 -27l-1 72l342 64v-69z" />
    <glyph glyph-name="U" unicode="U" horiz-adv-x="447" 
d="M362 9l-75 -30v114l-286 -107v666l76 25l1 -584l205 78v477l80 35z" />
    <glyph glyph-name="V" unicode="V" horiz-adv-x="493" 
d="M424 637l-202 -662l-222 664l62 49l156 -456l147 456z" />
    <glyph glyph-name="W" unicode="W" horiz-adv-x="684" 
d="M615 651l-188 -669l-105 328l-78 -328l-237 666l56 45l168 -454l46 173l-84 234l58 47l55 -176l56 176l60 -33l-67 -246l68 -180l126 464z" />
    <glyph glyph-name="X" unicode="X" horiz-adv-x="412" 
d="M341 19l-60 -37l-110 282l-112 -282l-65 30l126 328l-123 311l60 45l109 -275l110 271l62 -45l-123 -310z" />
    <glyph glyph-name="Y" unicode="Y" horiz-adv-x="445" 
d="M377 658l-220 -674l-70 19l82 261l-158 384l62 33l133 -296l102 300z" />
    <glyph glyph-name="Z" unicode="Z" horiz-adv-x="447" 
d="M403 656l-261 -572h218l-18 -73h-319l257 578h-222l18 67h327z" />
    <glyph glyph-name="bracketleft" unicode="[" horiz-adv-x="212" 
d="M157 -77h-157v829h158v-54h-86v-724h84z" />
    <glyph glyph-name="backslash" unicode="\" horiz-adv-x="459" 
d="M71 710l-49 -40l338 -689l46 34z" />
    <glyph glyph-name="bracketright" unicode="]" horiz-adv-x="212" 
d="M0 -77h158v829h-158v-54h86v-725h-86v-50z" />
    <glyph glyph-name="asciicircum" unicode="^" horiz-adv-x="531" 
d="M216 772l-153 -52l-10 19l159 109l169 -109l-5 -24z" />
    <glyph glyph-name="underscore" unicode="_" horiz-adv-x="533" 
d="M-1 -149l1 58l571 -1v-57h-572z" />
    <glyph glyph-name="grave" unicode="`" horiz-adv-x="305" 
d="M244 753l-182 95q-35 -69 -35 -72t202 -55z" />
    <glyph glyph-name="a" unicode="a" horiz-adv-x="531" 
d="M484 -41l-332 161l25 68l180 -86l-131 371l-155 -462l-65 35l210 659z" />
    <glyph glyph-name="b" unicode="b" horiz-adv-x="417" 
d="M356 197l-308 -252q-13 11 -43 51l236 201l-142 135l107 135q-36 34 -132 89l-3 -429q-1 -10 -27.5 -32.5t-44.5 -31.5v625l322 -203l-118 -142q18 -23 65 -65q69 -63 88 -81z" />
    <glyph glyph-name="c" unicode="c" horiz-adv-x="386" 
d="M296 49q-14 -20 -43 -61l-255 364l252 334q20 -26 40 -65l-198 -270z" />
    <glyph glyph-name="d" unicode="d" horiz-adv-x="417" 
d="M362 351l-317 -375q-18 8 -47 58l264 315l-188 186v-342q1 -15 -75 -81v597z" />
    <glyph glyph-name="e" unicode="e" horiz-adv-x="342" 
d="M268 57q-9 -22 -33 -66l-252 196l163 153l-146 159l224 189l37 -62l-150 -134l146 -153l-153 -145z" />
    <glyph glyph-name="f" unicode="f" horiz-adv-x="330" 
d="M222 403l-32 -75h-106l32 75h106zM302 665l-32 -72l-196 -1l1 -583q-46 -12 -79 -18v674h306z" />
    <glyph glyph-name="g" unicode="g" horiz-adv-x="502" 
d="M427 366l-229 -371l-210 356l231 342l43 -65l-187 -279l123 -208q47 69 106 152l-106 1l-42 72h271z" />
    <glyph glyph-name="h" unicode="h" horiz-adv-x="458" 
d="M355 9l-76 -21v664l76 28v-671zM233 427l-157 -96v-319q-10 -3 -38 -10t-39 -10l-1 660l78 28v-274l157 96v-75z" />
    <glyph glyph-name="i" unicode="i" horiz-adv-x="158" 
d="M73 20q-25 -5 -75 -17v655q5 1 75 17v-655z" />
    <glyph glyph-name="j" unicode="j" horiz-adv-x="352" 
d="M270 -33q-89 57 -268 174q2 21 22 73l163 -99v542q25 17 83 41v-731z" />
    <glyph glyph-name="k" unicode="k" horiz-adv-x="452" 
d="M389 22q-25 -11 -72 -29l-229 359l239 339q17 -24 44 -68l-184 -273zM82 7l-77 -25v686l77 22v-683z" />
    <glyph glyph-name="l" unicode="l" horiz-adv-x="351" 
d="M304 76l-33 -76h-268v661q29 11 75 22v-607h226z" />
    <glyph glyph-name="m" unicode="m" horiz-adv-x="686" 
d="M612 11q-18 -10 -69 -29l-113 495l-126 -252l-138 244l-99 -487q-20 7 -64 22l131 679q52 -101 161 -298l164 305q54 -228 153 -679z" />
    <glyph glyph-name="n" unicode="n" horiz-adv-x="454" 
d="M368 17q-24 -8 -73 -28v171q0 8 -220 305v-448q-18 -10 -76 -30l-1 702q26 -28 129 -172q109 -152 164 -215v354l77 29v-668z" />
    <glyph glyph-name="o" unicode="o" horiz-adv-x="535" 
d="M460 351l-220 -364l-235 365l229 343zM367 352l-135 203l-133 -205l141 -216z" />
    <glyph glyph-name="p" unicode="p" horiz-adv-x="386" 
d="M333 459l-213 -265v103l116 145l-163 109l1 -538l-72 -27l-1 700z" />
    <glyph glyph-name="q" unicode="q" horiz-adv-x="536" 
d="M475 338l-232 -367l-246 372l239 354zM449 75l-45 -74h-98l45 74h98zM378 338l-142 215l-142 -212l149 -219z" />
    <glyph glyph-name="r" unicode="r" horiz-adv-x="415" 
d="M349 22l-67 -36l-173 327l101 146l-128 93l-1 -533l-77 -29v706l311 -216l-115 -173z" />
    <glyph glyph-name="s" unicode="s" horiz-adv-x="357" 
d="M290 214l-207 -232l-42 62l155 170l-198 261l200 222l45 -62l-147 -167z" />
    <glyph glyph-name="t" unicode="t" horiz-adv-x="406" 
d="M341 622l-129 -28v-580l-75 -28v596l-137 -27l-1 72l342 64v-69z" />
    <glyph glyph-name="u" unicode="u" horiz-adv-x="447" 
d="M362 9l-75 -30v114l-286 -107v666l76 25l1 -584l205 78v477l80 35z" />
    <glyph glyph-name="v" unicode="v" horiz-adv-x="493" 
d="M424 637l-202 -662l-222 664l62 49l156 -456l147 456z" />
    <glyph glyph-name="w" unicode="w" horiz-adv-x="684" 
d="M615 651l-188 -669l-105 328l-78 -328l-237 666l56 45l168 -454l46 173l-84 234l58 47l55 -176l56 176l60 -33l-67 -246l68 -180l126 464z" />
    <glyph glyph-name="x" unicode="x" horiz-adv-x="412" 
d="M341 19l-60 -37l-110 282l-112 -282l-65 30l126 328l-123 311l60 45l109 -275l110 271l62 -45l-123 -310z" />
    <glyph glyph-name="y" unicode="y" horiz-adv-x="445" 
d="M377 658l-220 -674l-70 19l82 261l-158 384l62 33l133 -296l102 300z" />
    <glyph glyph-name="z" unicode="z" horiz-adv-x="447" 
d="M403 656l-261 -572h218l-18 -73h-319l257 578h-222l18 67h327z" />
    <glyph glyph-name="braceleft" unicode="{" horiz-adv-x="271" 
d="M181 770l32 -40l-86 -66v-222l-70 -101l70 -89v-246l89 -63l-40 -32l-113 81v251l-72 98q69 104 72 104v236z" />
    <glyph glyph-name="bar" unicode="|" horiz-adv-x="173" 
d="M23 730h63v-787h-63v787z" />
    <glyph glyph-name="braceright" unicode="}" horiz-adv-x="271" 
d="M37 770l-32 -40l86 -66v-222l70 -101l-70 -89v-246l-89 -63l40 -32l113 81v251l72 98q-69 104 -72 104v236z" />
    <glyph glyph-name="asciitilde" unicode="~" horiz-adv-x="454" 
d="M50 729l-32 18q34 75 88 75q25 0 66.5 -20.5t63.5 -20.5q50 0 67 33l29 -24q-8 -26 -38.5 -44.5t-58.5 -18.5q-24 0 -66.5 21.5t-66.5 21.5q-31 0 -52 -41z" />
    <glyph glyph-name="Adieresis" unicode="&#xc4;" horiz-adv-x="531" 
d="M484 -41l-332 161q12 41 25 68l171 -80q5 6 5 9l-127 356q-36 -92 -73 -206q-59 -189 -82 -256h-14q-5 0 -26.5 14.5t-24.5 20.5l210 659q42 -91 126 -332zM309 729l-56 54l56 55l56 -55zM119 729l-56 54l56 55l56 -55z" />
    <glyph glyph-name="Aring" unicode="&#xc5;" horiz-adv-x="531" 
d="M484 -41l-332 161q12 41 25 68l180 -86l-131 371q-59 -147 -157 -471l-70 34l217 669q42 -91 126 -332zM217 862q32 0 57.5 -18.5t25.5 -48.5q0 -31 -25.5 -49.5t-57.5 -18.5t-57.5 18.5t-25.5 49.5q0 30 25.5 48.5t57.5 18.5zM217 822q-20 0 -31.5 -9t-11.5 -18
q0 -10 11.5 -19t31.5 -9t33 10q10 8 10 18q0 9 -10 17q-13 10 -33 10z" />
    <glyph glyph-name="Ccedilla" unicode="&#xc7;" horiz-adv-x="453" 
d="M237 -158l-16 2l-1 38q10 -3 20 -3q43 0 44 31q0 18 -13.5 28.5t-30.5 10.5q-11 0 -19 -4q0 32 1 80h4l-235 325l254 308h127v-69h-93l-194 -241l189 -271h98v-72h-106l-1 -27q79 -6 75 -72q-1 -29 -36 -49t-67 -15z" />
    <glyph glyph-name="Eacute" unicode="&#xc9;" horiz-adv-x="336" 
d="M268 57q-9 -22 -33 -66l-252 196l163 153l-146 159l224 189l37 -62l-150 -134l146 -153l-153 -145zM40 753l182 95q35 -69 35 -72t-202 -55z" />
    <glyph glyph-name="Ntilde" unicode="&#xd1;" horiz-adv-x="454" 
d="M368 17q-24 -8 -73 -28v171q0 8 -220 305v-448q-18 -10 -76 -30l-1 702q26 -28 129 -172q109 -152 164 -215v354l77 29v-668zM50 729l-32 18q34 75 88 75q25 0 66.5 -20.5t63.5 -20.5q50 0 67 33l29 -24q-8 -26 -38.5 -44.5t-58.5 -18.5q-24 0 -66.5 21.5t-66.5 21.5
q-31 0 -52 -41z" />
    <glyph glyph-name="Odieresis" unicode="&#xd6;" horiz-adv-x="535" 
d="M460 351l-220 -364l-235 365l229 343zM367 352l-135 203l-133 -205l141 -216zM322 729l-56 54l56 55l56 -55zM132 729l-56 54l56 55l56 -55z" />
    <glyph glyph-name="Udieresis" unicode="&#xdc;" horiz-adv-x="447" 
d="M362 9l-75 -30v114l-286 -107v666l76 25l1 -584l205 78l1 477l79 35zM279 729l-56 54l56 55l56 -55zM89 729l-56 54l56 55l56 -55z" />
    <glyph glyph-name="aacute" unicode="&#xe1;" horiz-adv-x="531" 
d="M484 -41l-332 161q12 41 25 68l171 -80q5 6 5 9l-127 356q-36 -92 -73 -206q-59 -189 -82 -256h-14q-5 0 -26.5 14.5t-24.5 20.5l210 659q42 -91 126 -332zM110 753l182 95q35 -69 35 -72t-202 -55z" />
    <glyph glyph-name="agrave" unicode="&#xe0;" horiz-adv-x="531" 
d="M484 -41l-332 161q12 41 25 68l171 -80q5 6 5 9l-127 356q-36 -92 -73 -206q-59 -189 -82 -256h-14q-5 0 -26.5 14.5t-24.5 20.5l210 659q42 -91 126 -332zM334 753l-182 95q-35 -69 -35 -72t202 -55z" />
    <glyph glyph-name="acircumflex" unicode="&#xe2;" horiz-adv-x="531" 
d="M484 -41l-332 161q12 41 25 68l171 -80q5 6 5 9l-127 356q-36 -92 -73 -206q-59 -189 -82 -256h-14q-5 0 -26.5 14.5t-24.5 20.5l210 659q42 -91 126 -332zM216 772l-153 -52l-10 19l159 109l169 -109l-5 -24z" />
    <glyph glyph-name="adieresis" unicode="&#xe4;" horiz-adv-x="531" 
d="M484 -41l-332 161q12 41 25 68l171 -80q5 6 5 9l-127 356q-36 -92 -73 -206q-59 -189 -82 -256h-14q-5 0 -26.5 14.5t-24.5 20.5l210 659q42 -91 126 -332zM309 729l-56 54l56 55l56 -55zM119 729l-56 54l56 55l56 -55z" />
    <glyph glyph-name="atilde" unicode="&#xe3;" horiz-adv-x="531" 
d="M484 -41l-332 161q12 41 25 68l171 -80q5 6 5 9l-127 356q-36 -92 -73 -206q-59 -189 -82 -256h-14q-5 0 -26.5 14.5t-24.5 20.5l210 659q42 -91 126 -332zM100 729l-32 18q34 75 88 75q25 0 66.5 -20.5t63.5 -20.5q50 0 67 33l29 -24q-8 -26 -38.5 -44.5t-58.5 -18.5
q-24 0 -66.5 21.5t-66.5 21.5q-31 0 -52 -41z" />
    <glyph glyph-name="aring" unicode="&#xe5;" horiz-adv-x="531" 
d="M484 -41l-332 161q12 41 25 68l180 -86l-131 371q-59 -147 -157 -471l-70 34l217 669q42 -91 126 -332zM217 862q32 0 57.5 -18.5t25.5 -48.5q0 -31 -25.5 -49.5t-57.5 -18.5t-57.5 18.5t-25.5 49.5q0 30 25.5 48.5t57.5 18.5zM217 822q-20 0 -31.5 -9t-11.5 -18
q0 -10 11.5 -19t31.5 -9t33 10q10 8 10 18q0 9 -10 17q-13 10 -33 10z" />
    <glyph glyph-name="ccedilla" unicode="&#xe7;" horiz-adv-x="453" 
d="M237 -158l-16 2l-1 38q10 -3 20 -3q43 0 44 31q0 18 -13.5 28.5t-30.5 10.5q-11 0 -19 -4q0 32 1 80h4l-235 325l254 308h127v-69h-93l-194 -241l189 -271h98v-72h-106l-1 -27q79 -6 75 -72q-1 -29 -36 -49t-67 -15z" />
    <glyph glyph-name="eacute" unicode="&#xe9;" horiz-adv-x="336" 
d="M268 57q-9 -22 -33 -66l-252 196l163 153l-146 159l224 189l37 -62l-150 -134l146 -153l-153 -145zM40 753l182 95q35 -69 35 -72t-202 -55z" />
    <glyph glyph-name="egrave" unicode="&#xe8;" horiz-adv-x="336" 
d="M268 57q-9 -22 -33 -66l-252 196l163 153l-146 159l224 189l37 -62l-150 -134l146 -153l-153 -145zM254 753l-182 95q-35 -69 -35 -72t202 -55z" />
    <glyph glyph-name="ecircumflex" unicode="&#xea;" horiz-adv-x="336" 
d="M268 57q-9 -22 -33 -66l-252 196l163 153l-146 159l224 189l37 -62l-150 -134l146 -153l-153 -145zM136 772l-153 -52l-10 19l159 109l169 -109l-5 -24z" />
    <glyph glyph-name="edieresis" unicode="&#xeb;" horiz-adv-x="336" 
d="M279 48l-44 -57l-252 196l163 153l-146 159l224 189l43 -54l-156 -142l146 -153l-153 -145zM279 729l-56 54l56 55l56 -55zM89 729l-56 54l56 55l56 -55z" />
    <glyph glyph-name="iacute" unicode="&#xed;" horiz-adv-x="158" 
d="M73 20q-25 -5 -75 -17v655q5 1 75 17v-655zM-80 753l182 95q35 -69 35 -72t-202 -55z" />
    <glyph glyph-name="igrave" unicode="&#xec;" horiz-adv-x="158" 
d="M73 20q-25 -5 -75 -17v655q5 1 75 17v-655zM154 753l-182 95q-35 -69 -35 -72t202 -55z" />
    <glyph glyph-name="icircumflex" unicode="&#xee;" horiz-adv-x="158" 
d="M73 20q-25 -5 -75 -17v655q5 1 75 17v-655zM26 772l-113 -52l-10 19l119 109l129 -109l-5 -24z" />
    <glyph glyph-name="idieresis" unicode="&#xef;" horiz-adv-x="158" 
d="M73 20q-25 -5 -75 -17v655q5 1 75 17v-655zM109 729l-56 54l56 55l56 -55zM-41 729l-56 54l56 55l56 -55z" />
    <glyph glyph-name="ntilde" unicode="&#xf1;" horiz-adv-x="454" 
d="M368 17q-24 -8 -73 -28v171q0 8 -220 305v-448q-18 -10 -76 -30l-1 702q26 -28 129 -172q109 -152 164 -215v354l77 29v-668zM50 729l-32 18q34 75 88 75q25 0 66.5 -20.5t63.5 -20.5q50 0 67 33l29 -24q-8 -26 -38.5 -44.5t-58.5 -18.5q-24 0 -66.5 21.5t-66.5 21.5
q-31 0 -52 -41z" />
    <glyph glyph-name="oacute" unicode="&#xf3;" horiz-adv-x="535" 
d="M460 351l-220 -364l-235 365l229 343zM367 352l-135 203l-133 -205l141 -216zM120 753l182 95q35 -69 35 -72t-202 -55z" />
    <glyph glyph-name="ograve" unicode="&#xf2;" horiz-adv-x="535" 
d="M460 351l-220 -364l-235 365l229 343zM367 352l-135 203l-133 -205l141 -216zM344 753l-182 95q-35 -69 -35 -72t202 -55z" />
    <glyph glyph-name="ocircumflex" unicode="&#xf4;" horiz-adv-x="535" 
d="M460 351l-220 -364l-235 365l229 343zM367 352l-135 203l-133 -205l141 -216zM226 772l-153 -52l-10 19l159 109l169 -109l-5 -24z" />
    <glyph glyph-name="odieresis" unicode="&#xf6;" horiz-adv-x="535" 
d="M460 351l-220 -364l-235 365l229 343zM367 352l-135 203l-133 -205l141 -216zM322 729l-56 54l56 55l56 -55zM132 729l-56 54l56 55l56 -55z" />
    <glyph glyph-name="otilde" unicode="&#xf5;" horiz-adv-x="535" 
d="M460 351l-220 -364l-235 365l229 343zM367 352l-135 203l-133 -205l141 -216zM110 729l-32 18q34 75 88 75q25 0 66.5 -20.5t63.5 -20.5q50 0 67 33l29 -24q-8 -26 -38.5 -44.5t-58.5 -18.5q-24 0 -66.5 21.5t-66.5 21.5q-31 0 -52 -41z" />
    <glyph glyph-name="uacute" unicode="&#xfa;" horiz-adv-x="447" 
d="M362 9l-75 -30v114l-286 -107v666l76 25l1 -584l205 78v477l80 35zM80 753l182 95q35 -69 35 -72t-202 -55z" />
    <glyph glyph-name="ugrave" unicode="&#xf9;" horiz-adv-x="447" 
d="M362 19l-75 -30v104l-286 -107v666l76 25l1 -584l205 78l1 477l79 35zM284 753l-182 95q-35 -69 -35 -72t202 -55z" />
    <glyph glyph-name="ucircumflex" unicode="&#xfb;" horiz-adv-x="447" 
d="M362 9l-75 -30v114l-286 -107v666l76 25l1 -584l205 78v477l80 35zM176 772l-153 -52l-10 19l159 109l169 -109l-5 -24z" />
    <glyph glyph-name="udieresis" unicode="&#xfc;" horiz-adv-x="447" 
d="M362 9l-75 -30v114l-286 -107v666l76 25l1 -584l205 78l1 477l79 35zM279 729l-56 54l56 55l56 -55zM89 729l-56 54l56 55l56 -55z" />
    <glyph glyph-name="dagger" unicode="&#x2020;" horiz-adv-x="382" 
d="M8 534h116l-6 141h95l-7 -141h113v-65h-115l-21 -468l-35 2l-21 466h-119v65z" />
    <glyph glyph-name="degree" unicode="&#xb0;" horiz-adv-x="311" 
d="M117 701q52 0 88.5 -37t36.5 -90q0 -52 -36.5 -89.5t-88.5 -37.5q-51 0 -87.5 37.5t-36.5 89.5q0 53 36.5 90t87.5 37zM117 666q-36 0 -62.5 -26.5t-26.5 -65.5q0 -38 26.5 -65t62.5 -27q37 0 63.5 27t26.5 65q0 39 -26.5 65.5t-63.5 26.5z" />
    <glyph glyph-name="cent" unicode="&#xa2;" horiz-adv-x="402" 
d="M343 209l-36 -78l-54 -1l1 -119l-73 -15l1 133l-44 2l-133 216l125 225l45 2l-1 82l77 27v-109l39 -1l34 -81h-133l-89 -141l86 -142h155z" />
    <glyph glyph-name="sterling" unicode="&#xa3;" horiz-adv-x="444" 
d="M346 243h-115l-96 -164h260l-41 -79l-352 2l142 241h-101v66h93l-113 193l274 179l37 -69l-205 -136l99 -167h118v-66z" />
    <glyph glyph-name="section" unicode="&#xa7;" 
 />
    <glyph glyph-name="bullet" unicode="&#x2022;" horiz-adv-x="386" 
d="M173 209l-132 124l126 129l129 -129z" />
    <glyph glyph-name="paragraph" unicode="&#xb6;" horiz-adv-x="509" 
d="M1 459l213 -265v103l-115 145l162 109l-1 -618l73 -27v780zM379 683h71v-833l-72 35z" />
    <glyph glyph-name="germandbls" unicode="&#xdf;" 
 />
    <glyph glyph-name="registered" unicode="&#xae;" horiz-adv-x="355" 
d="M147 672q83 0 121 -76q16 -30 16 -63q0 -57 -41 -98t-98 -41t-97.5 41t-40.5 98q0 59 41 99t99 40zM144 647q-44 0 -77 -33t-33 -81q0 -47 32.5 -80.5t78.5 -33.5q47 0 79 33.5t32 80.5q0 48 -32.5 81t-79.5 33zM87 611h65q56 0 56 -43q0 -26 -26 -37q20 -7 23 -31
q0 -16 5 -43h-33q-3 5 -4 31q-2 33 -32 33h-20v-64h-34v154zM121 590v-49h23q30 0 30 25q0 24 -28 24h-25z" />
    <glyph glyph-name="copyright" unicode="&#xa9;" horiz-adv-x="765" 
d="M346 -9q-141 0 -241 100.5t-100 241.5q0 145 101 243.5t245 98.5q93 0 174 -51t124 -136q37 -73 37 -155q0 -141 -99.5 -241.5t-240.5 -100.5zM343 623q-114 0 -197.5 -84t-83.5 -206q0 -119 82.5 -204t201.5 -85q117 0 199.5 84.5t82.5 204.5q0 122 -83.5 206t-201.5 84
zM347 139q-86 0 -137 57q-48 54 -48 140t51.5 141.5t136.5 55.5q79 0 127 -52q33 -35 39 -81h-57q-20 68 -109 68q-54 0 -84 -40q-27 -36 -27 -93q0 -55 26 -91q30 -40 84 -40q98 0 113 87h58q-7 -70 -54 -111t-119 -41z" />
    <glyph glyph-name="trademark" unicode="&#x2122;" horiz-adv-x="487" 
d="M356 409l-2 198l-41 -198h-44l-47 198l1 -84v-114h-47v260h85q4 -28 31 -195q10 83 30 195l85 -1v-259h-51zM92 629v-220h-48v220h-35v40h120v-40h-37z" />
    <glyph glyph-name="acute" unicode="&#xb4;" horiz-adv-x="397" 
d="M80 753l182 95q35 -69 35 -72t-202 -55z" />
    <glyph glyph-name="dieresis" unicode="&#xa8;" horiz-adv-x="360" 
d="M279 729l-56 54l56 55l56 -55zM89 729l-56 54l56 55l56 -55z" />
    <glyph glyph-name="AE" unicode="&#xc6;" horiz-adv-x="648" 
d="M169 107l33 64l112 -85v400l-240 -488l-72 37l308 631l252 1l26 -70l-190 1l1 -210h126l20 -70h-146v-243h197l-17 -75h-263q-58 41 -147 107z" />
    <glyph glyph-name="Oslash" unicode="&#xd8;" horiz-adv-x="535" 
d="M155 265l126 216l-49 74l-133 -205zM309 439l-128 -215l59 -90l127 218zM395 674h53l-95 -160l107 -163l-220 -364l-103 161l-81 -136h-50l104 177l-105 163l229 343l91 -139z" />
    <glyph glyph-name="plusminus" unicode="&#xb1;" 
 />
    <glyph glyph-name="yen" unicode="&#xa5;" horiz-adv-x="445" 
d="M44 296h116l-154 352l67 33l130 -304l105 308l69 -27l-121 -362h117v-53h-125v-67h125v-53h-126v-119l-78 -1v120h-125v53h125v67h-125v53z" />
    <glyph glyph-name="mu" unicode="&#xb5;" horiz-adv-x="398" 
d="M354 76l-33 -76h-268v214l-57 -42v74l57 42v373q29 11 75 22v-340l141 103v-74l-141 -103v-193h226z" />
    <glyph glyph-name="mu" unicode="&#x3bc;" horiz-adv-x="398" 
d="M354 76l-33 -76h-268v214l-57 -42v74l57 42v373q29 11 75 22v-340l141 103v-74l-141 -103v-193h226z" />
    <glyph glyph-name="ordfeminine" unicode="&#xaa;" horiz-adv-x="447" 
d="M403 656l-261 -572h218l-18 -73h-319l257 578h-222l18 67h327zM229 786l131 37l9 -17l-137 -94l-145 94l4 20z" />
    <glyph glyph-name="ordmasculine" unicode="&#xba;" horiz-adv-x="447" 
d="M403 656l-261 -572h218l-18 -73h-319l257 578h-222l18 67h327zM229 786l131 37l9 -17l-137 -94l-145 94l4 20z" />
    <glyph glyph-name="ae" unicode="&#xe6;" horiz-adv-x="648" 
d="M169 107l33 64l112 -85v400l-240 -488l-72 37l308 631l252 1l26 -70l-190 1l1 -210h126l20 -70h-146v-243h197l-18 -73l-266 1q-56 40 -143 104z" />
    <glyph glyph-name="oslash" unicode="&#xf8;" horiz-adv-x="535" 
d="M155 265l126 216l-49 74l-133 -205zM309 439l-128 -215l59 -90l127 218zM395 674h53l-95 -160l107 -163l-220 -364l-103 161l-81 -136h-50l104 177l-105 163l229 343l91 -139z" />
    <glyph glyph-name="questiondown" unicode="&#xbf;" horiz-adv-x="388" 
d="M-4 -11l150 256v117l81 19v-152l-134 -233l48 -51h181l-59 -79l-140 1zM146 527l78 20v-97l-78 -19v96z" />
    <glyph glyph-name="exclamdown" unicode="&#xa1;" horiz-adv-x="188" 
d="M29 337l77 18v-528l-77 -11v521zM32 510l74 15v-97l-73 -20z" />
    <glyph glyph-name="logicalnot" unicode="&#xac;" 
 />
    <glyph glyph-name="florin" unicode="&#x192;" 
 />
    <glyph glyph-name="guillemotleft" unicode="&#xab;" horiz-adv-x="413" 
d="M311 150l-156 199l153 189l35 -38l-124 -150l129 -164zM151 150l-156 199l153 189l35 -38l-120 -156l125 -158z" />
    <glyph glyph-name="guillemotright" unicode="&#xbb;" horiz-adv-x="413" 
d="M35 150l156 199l-153 189l-35 -38l124 -150l-129 -164zM195 150l156 199l-153 189l-35 -38l120 -156l-125 -158z" />
    <glyph glyph-name="ellipsis" unicode="&#x2026;" horiz-adv-x="671" 
d="M359 11q-17 -3 -78 -10v110q21 4 78 17v-117zM599 11q-17 -3 -78 -10v110q21 4 78 17v-117zM119 11q-17 -3 -78 -10v110q21 4 78 17v-117z" />
    <glyph glyph-name="nonbreakingspace" unicode="&#xa0;" horiz-adv-x="1002" 
 />
    <glyph glyph-name="Agrave" unicode="&#xc0;" horiz-adv-x="531" 
d="M484 -41l-332 161q12 41 25 68l171 -80q5 6 5 9l-127 356q-36 -92 -73 -206q-59 -189 -82 -256h-14q-5 0 -26.5 14.5t-24.5 20.5l210 659q42 -91 126 -332zM334 753l-182 95q-35 -69 -35 -72t202 -55z" />
    <glyph glyph-name="Atilde" unicode="&#xc3;" horiz-adv-x="531" 
d="M484 -41l-332 161q12 41 25 68l171 -80q5 6 5 9l-127 356q-36 -92 -73 -206q-59 -189 -82 -256h-14q-5 0 -26.5 14.5t-24.5 20.5l210 659q42 -91 126 -332zM100 729l-32 18q34 75 88 75q25 0 66.5 -20.5t63.5 -20.5q50 0 67 33l29 -24q-8 -26 -38.5 -44.5t-58.5 -18.5
q-24 0 -66.5 21.5t-66.5 21.5q-31 0 -52 -41z" />
    <glyph glyph-name="Otilde" unicode="&#xd5;" horiz-adv-x="535" 
d="M460 351l-220 -364l-235 365l229 343zM367 352l-135 203l-133 -205l141 -216zM110 729l-32 18q34 75 88 75q25 0 66.5 -20.5t63.5 -20.5q50 0 67 33l29 -24q-8 -26 -38.5 -44.5t-58.5 -18.5q-24 0 -66.5 21.5t-66.5 21.5q-31 0 -52 -41z" />
    <glyph glyph-name="OE" unicode="&#x152;" horiz-adv-x="697" 
d="M372 352l-140 203l-133 -205l141 -216zM450 387h127l20 -70h-147l1 -233h197l-18 -73h-260l-1 190l-129 -214l-235 365l229 343l135 -206l1 176h244l26 -67l-190 -1v-210z" />
    <glyph glyph-name="oe" unicode="&#x153;" horiz-adv-x="697" 
d="M372 352l-140 203l-133 -205l141 -216zM450 387h127l20 -70h-147l1 -233h197l-18 -73h-260l-1 190l-129 -214l-235 365l229 343l135 -206l1 176h244l26 -67l-190 -1v-210z" />
    <glyph glyph-name="endash" unicode="&#x2013;" horiz-adv-x="565" 
d="M10 171l23 78l451 -1l-21 -77h-453z" />
    <glyph glyph-name="emdash" unicode="&#x2014;" horiz-adv-x="1005" 
d="M10 171l23 78l891 -1l-21 -77h-893z" />
    <glyph glyph-name="quotedblleft" unicode="&#x201c;" horiz-adv-x="302" 
d="M0 537l80 -55l-1 187l-80 15zM140 537l79 -55v187l-80 15z" />
    <glyph glyph-name="quotedblright" unicode="&#x201d;" horiz-adv-x="312" 
d="M228 537l-80 -55l1 187l80 15zM88 537l-80 -55l1 187l80 15z" />
    <glyph glyph-name="quoteleft" unicode="&#x2018;" horiz-adv-x="148" 
d="M6 537l80 -55v187l-80 15v-147z" />
    <glyph glyph-name="quoteright" unicode="&#x2019;" horiz-adv-x="149" 
d="M88 537l-79 -55v187l80 15z" />
    <glyph glyph-name="divide" unicode="&#xf7;" 
 />
    <glyph glyph-name="ydieresis" unicode="&#xff;" horiz-adv-x="445" 
d="M377 658l-220 -674l-70 19l82 261l-158 384l62 33l133 -296l102 300zM289 729l-56 54l56 55l56 -55zM99 729l-56 54l56 55l56 -55z" />
    <glyph glyph-name="Ydieresis" unicode="&#x178;" horiz-adv-x="445" 
d="M377 658l-220 -674l-70 19l82 261l-158 384l62 33l133 -296l102 300zM289 729l-56 54l56 55l56 -55zM99 729l-56 54l56 55l56 -55z" />
    <glyph glyph-name="currency" unicode="&#xa4;" 
 />
    <glyph glyph-name="guilsinglleft" unicode="&#x2039;" horiz-adv-x="249" 
d="M148 152l-147 199l144 190l34 -38l-112 -153l118 -161z" />
    <glyph glyph-name="guilsinglright" unicode="&#x203a;" horiz-adv-x="249" 
d="M38 152l147 199l-144 190l-34 -38l115 -153l-121 -161z" />
    <glyph glyph-name="daggerdbl" unicode="&#x2021;" 
 />
    <glyph glyph-name="periodcentered" unicode="&#xb7;" horiz-adv-x="213" 
d="M89 259l-56 54l56 55l56 -55z" />
    <glyph glyph-name="periodcentered" unicode="&#x2219;" horiz-adv-x="213" 
d="M89 259l-56 54l56 55l56 -55z" />
    <glyph glyph-name="quotesinglbase" unicode="&#x201a;" horiz-adv-x="163" 
d="M88 -43l-80 -55l1 187l80 15z" />
    <glyph glyph-name="quotedblbase" unicode="&#x201e;" horiz-adv-x="312" 
d="M228 -43l-80 -55l1 187l80 15zM88 -43l-80 -55l1 187l80 15z" />
    <glyph glyph-name="perthousand" unicode="&#x2030;" 
 />
    <glyph glyph-name="Acircumflex" unicode="&#xc2;" horiz-adv-x="531" 
d="M484 -41l-332 161q12 41 25 68l171 -80q5 6 5 9l-127 356q-36 -92 -73 -206q-59 -189 -82 -256h-14q-5 0 -26.5 14.5t-24.5 20.5l210 659q42 -91 126 -332zM216 772l-153 -52l-10 19l159 109l169 -109l-5 -24z" />
    <glyph glyph-name="Ecircumflex" unicode="&#xca;" horiz-adv-x="336" 
d="M268 57q-9 -22 -33 -66l-252 196l163 153l-146 159l224 189l37 -62l-150 -134l146 -153l-153 -145zM136 772l-153 -52l-10 19l159 109l169 -109l-5 -24z" />
    <glyph glyph-name="Aacute" unicode="&#xc1;" horiz-adv-x="531" 
d="M484 -41l-332 161q12 41 25 68l171 -80q5 6 5 9l-127 356q-36 -92 -73 -206q-59 -189 -82 -256h-14q-5 0 -26.5 14.5t-24.5 20.5l210 659q42 -91 126 -332zM110 753l182 95q35 -69 35 -72t-202 -55z" />
    <glyph glyph-name="Edieresis" unicode="&#xcb;" horiz-adv-x="336" 
d="M279 48l-44 -57l-252 196l163 153l-146 159l224 189l43 -54l-156 -142l146 -153l-153 -145zM279 729l-56 54l56 55l56 -55zM89 729l-56 54l56 55l56 -55z" />
    <glyph glyph-name="Egrave" unicode="&#xc8;" horiz-adv-x="336" 
d="M268 57q-9 -22 -33 -66l-252 196l163 153l-146 159l224 189l37 -62l-150 -134l146 -153l-153 -145zM254 753l-182 95q-35 -69 -35 -72t202 -55z" />
    <glyph glyph-name="Iacute" unicode="&#xcd;" horiz-adv-x="158" 
d="M73 20q-25 -5 -75 -17v655q5 1 75 17v-655zM-80 753l182 95q35 -69 35 -72t-202 -55z" />
    <glyph glyph-name="Icircumflex" unicode="&#xce;" horiz-adv-x="158" 
d="M73 20q-25 -5 -75 -17v655q5 1 75 17v-655zM26 772l-113 -52l-10 19l119 109l129 -109l-5 -24z" />
    <glyph glyph-name="Idieresis" unicode="&#xcf;" horiz-adv-x="158" 
d="M73 20q-25 -5 -75 -17v655q5 1 75 17v-655zM109 729l-56 54l56 55l56 -55zM-41 729l-56 54l56 55l56 -55z" />
    <glyph glyph-name="Igrave" unicode="&#xcc;" horiz-adv-x="158" 
d="M73 20q-25 -5 -75 -17v655q5 1 75 17v-655zM154 753l-182 95q-35 -69 -35 -72t202 -55z" />
    <glyph glyph-name="Oacute" unicode="&#xd3;" horiz-adv-x="535" 
d="M460 351l-220 -364l-235 365l229 343zM367 352l-135 203l-133 -205l141 -216zM120 753l182 95q35 -69 35 -72t-202 -55z" />
    <glyph glyph-name="Ocircumflex" unicode="&#xd4;" horiz-adv-x="535" 
d="M460 351l-220 -364l-235 365l229 343zM367 352l-135 203l-133 -205l141 -216zM226 772l-153 -52l-10 19l159 109l169 -109l-5 -24z" />
    <glyph glyph-name="Ograve" unicode="&#xd2;" horiz-adv-x="535" 
d="M460 351l-220 -364l-235 365l229 343zM367 352l-135 203l-133 -205l141 -216zM344 753l-182 95q-35 -69 -35 -72t202 -55z" />
    <glyph glyph-name="Uacute" unicode="&#xda;" horiz-adv-x="447" 
d="M362 9l-75 -30v114l-286 -107v666l76 25l1 -584l205 78v477l80 35zM80 753l182 95q35 -69 35 -72t-202 -55z" />
    <glyph glyph-name="Ucircumflex" unicode="&#xdb;" horiz-adv-x="447" 
d="M362 9l-75 -30v114l-286 -107v666l76 25l1 -584l205 78v477l80 35zM176 772l-153 -52l-10 19l159 109l169 -109l-5 -24z" />
    <glyph glyph-name="Ugrave" unicode="&#xd9;" horiz-adv-x="447" 
d="M362 19l-75 -30v104l-286 -107v666l76 25l1 -584l205 78l1 477l79 35zM284 753l-182 95q-35 -69 -35 -72t202 -55z" />
    <glyph glyph-name="circumflex" unicode="&#x2c6;" horiz-adv-x="531" 
d="M216 772l-153 -52l-10 19l159 109l169 -109l-5 -24z" />
    <glyph glyph-name="tilde" unicode="&#x2dc;" horiz-adv-x="387" 
d="M60 729l-32 18q34 75 88 75q25 0 66.5 -20.5t63.5 -20.5q50 0 67 33l29 -24q-8 -26 -38.5 -44.5t-58.5 -18.5q-24 0 -66.5 21.5t-66.5 21.5q-31 0 -52 -41z" />
    <glyph glyph-name="macron" unicode="&#xaf;" horiz-adv-x="371" 
d="M19 791h240v-55h-240v55z" />
    <glyph glyph-name="macron" unicode="&#x2c9;" horiz-adv-x="371" 
d="M19 791h240v-55h-240v55z" />
    <glyph glyph-name="cedilla" unicode="&#xb8;" horiz-adv-x="438" 
d="M155 -80q-3 0 0 82l53 2l-1 -46q79 -11 75 -84q-1 -31 -39 -52q-33 -18 -69 -18h-22v51q64 0 64 33q1 32 -61 32z" />
    <glyph glyph-name="Scaron" unicode="&#x160;" 
 />
    <glyph glyph-name="scaron" unicode="&#x161;" 
 />
    <glyph glyph-name="brokenbar" unicode="&#xa6;" 
 />
    <glyph glyph-name="Eth" unicode="&#xd0;" 
 />
    <glyph glyph-name="eth" unicode="&#xf0;" 
 />
    <glyph glyph-name="Yacute" unicode="&#xdd;" 
 />
    <glyph glyph-name="yacute" unicode="&#xfd;" 
 />
    <glyph glyph-name="Thorn" unicode="&#xde;" 
 />
    <glyph glyph-name="thorn" unicode="&#xfe;" 
 />
    <glyph glyph-name="minus" unicode="&#xad;" 
 />
    <glyph glyph-name="minus" unicode="&#x2212;" 
 />
    <glyph glyph-name="multiply" unicode="&#xd7;" 
 />
    <glyph glyph-name="onesuperior" unicode="&#xb9;" 
 />
    <glyph glyph-name="twosuperior" unicode="&#xb2;" 
 />
    <glyph glyph-name="threesuperior" unicode="&#xb3;" 
 />
    <glyph glyph-name="onehalf" unicode="&#xbd;" 
 />
    <glyph glyph-name="onequarter" unicode="&#xbc;" 
 />
    <glyph glyph-name="threequarters" unicode="&#xbe;" 
 />
    <glyph glyph-name="Lslash" unicode="&#x141;" 
 />
    <glyph glyph-name="lslash" unicode="&#x142;" 
 />
    <glyph glyph-name="HT" 
 />
    <glyph glyph-name="LF" 
 />
    <glyph glyph-name="nonmarkingreturn" 
 />
    <glyph glyph-name="Zcaron" unicode="&#x17d;" 
 />
    <glyph glyph-name="zcaron" unicode="&#x17e;" 
 />
    <glyph glyph-name="DLE" 
 />
    <glyph glyph-name="DC1" 
 />
    <glyph glyph-name="DC2" 
 />
    <glyph glyph-name="DC3" 
 />
    <glyph glyph-name="DC4" 
 />
    <glyph glyph-name="RS" 
 />
    <glyph glyph-name="US" 
 />
    <glyph glyph-name="notequal" unicode="&#x2260;" 
 />
    <glyph glyph-name="infinity" unicode="&#x221e;" 
 />
    <glyph glyph-name="lessequal" unicode="&#x2264;" 
 />
    <glyph glyph-name="greaterequal" unicode="&#x2265;" 
 />
    <glyph glyph-name="partialdiff" unicode="&#x2202;" horiz-adv-x="398" 
d="M354 76l-33 -76h-268v214l-57 -42v74l57 42v373q29 11 75 22v-340l141 103v-74l-141 -103v-193h226z" />
    <glyph glyph-name="summation" unicode="&#x2211;" horiz-adv-x="357" 
d="M290 214l-207 -232l-42 62l155 170l-198 261l200 222l45 -62l-147 -167zM139 806l131 37l9 -17l-137 -94l-145 94l4 20z" />
    <glyph glyph-name="product" unicode="&#x220f;" horiz-adv-x="357" 
d="M290 214l-207 -232l-42 62l155 170l-198 261l200 222l45 -62l-147 -167zM139 806l131 37l9 -17l-137 -94l-145 94l4 20z" />
    <glyph glyph-name="pi" unicode="&#x3c0;" horiz-adv-x="445" 
d="M377 658l-220 -674l-70 19l82 261l-158 384l62 33l133 -296l102 300zM80 753l182 95q35 -69 35 -72t-202 -55z" />
    <glyph glyph-name="integral" unicode="&#x222b;" horiz-adv-x="445" 
d="M377 658l-220 -674l-70 19l82 261l-158 384l62 33l133 -296l102 300zM80 753l182 95q35 -69 35 -72t-202 -55z" />
    <glyph glyph-name="Omega" unicode="&#x3a9;" horiz-adv-x="522" 
d="M2 458h73l164 201h215v-68h-175l-109 -133h251v-56h-276l-2 -94h278v-56h-266l124 -167h180v-70h-221l-176 237h-60v56h59l-1 94h-58v56z" />
    <glyph glyph-name="Omega" unicode="&#x2126;" horiz-adv-x="522" 
d="M2 458h73l164 201h215v-68h-175l-109 -133h251v-56h-276l-2 -94h278v-56h-266l124 -167h180v-70h-221l-176 237h-60v56h59l-1 94h-58v56z" />
    <glyph glyph-name="radical" unicode="&#x221a;" 
 />
    <glyph glyph-name="approxequal" unicode="&#x2248;" 
 />
    <glyph glyph-name="approxequal" unicode="&#x22f2;" 
 />
    <glyph glyph-name="Delta" unicode="&#x394;" 
 />
    <glyph glyph-name="Delta" unicode="&#x2206;" 
 />
    <glyph glyph-name="lozenge" unicode="&#x25ca;" horiz-adv-x="426" 
d="M193 215l-49 96l-98 45l96 49l45 98l49 -96l98 -45l-96 -49z" />
    <glyph glyph-name="fraction" unicode="&#x2044;" 
 />
    <glyph glyph-name="fi" unicode="&#xf001;" 
 />
    <glyph glyph-name="fl" unicode="&#xf002;" 
 />
    <glyph glyph-name="apple" unicode="&#xf000;" 
 />
    <glyph glyph-name="dotlessi" unicode="&#x131;" horiz-adv-x="158" 
d="M73 20q-25 -5 -75 -17v655q5 1 75 17v-655z" />
    <glyph glyph-name="breve" unicode="&#x2d8;" horiz-adv-x="368" 
d="M296 790q0 -41 -56 -67q-45 -20 -89 -20q-45 0 -89 20q-57 26 -57 67h40q0 -18 47 -29q34 -8 59 -8q24 0 58 8q47 11 47 29h40z" />
    <glyph glyph-name="dotaccent" unicode="&#x2d9;" horiz-adv-x="224" 
d="M99 709q-24 0 -40 16t-16 38q0 23 16 39t40 16q23 0 39.5 -16t16.5 -39q0 -22 -16.5 -38t-39.5 -16z" />
    <glyph glyph-name="ring" unicode="&#x2da;" horiz-adv-x="531" 
d="M217 862q32 0 57.5 -18.5t25.5 -48.5q0 -31 -25.5 -49.5t-57.5 -18.5t-57.5 18.5t-25.5 49.5q0 30 25.5 48.5t57.5 18.5zM217 822q-20 0 -31.5 -9t-11.5 -18q0 -10 11.5 -19t31.5 -9t33 10q10 8 10 18q0 9 -10 17q-13 10 -33 10z" />
    <glyph glyph-name="hungarumlaut" unicode="&#x2dd;" horiz-adv-x="270" 
d="M236 794l-92 -103l-16 7l43 126zM136 794l-92 -103l-16 7l43 126z" />
    <glyph glyph-name="ogonek" unicode="&#x2db;" horiz-adv-x="238" 
d="M180 -152q-22 -41 -60 -41q-34 0 -58.5 31.5t-24.5 68.5q0 40 24 83q27 47 59 47v-36q-11 0 -24 -31.5t-13 -62.5q0 -55 35 -55q23 0 31 13z" />
    <glyph glyph-name="caron" unicode="&#x2c7;" horiz-adv-x="357" 
d="M139 806l131 37l9 -17l-137 -94l-145 94l4 20z" />
    </font>
</defs>
</svg>
