<?xml version="1.0" standalone="no"?>
<!DOCTYPE svg PUBLIC "-//W3C//DTD SVG 1.1//EN" "http://www.w3.org/Graphics/SVG/1.1/DTD/svg11.dtd" >
<svg>
<metadata>
Created by FontForge 20120731 at Wed Apr 17 21:00:20 2019
 By www-data
Digitized by Dan X. Solo. Software (c)2000 by Dover Publications, Inc., New York.
</metadata>
<defs>
<font id="BlotterRoman" horiz-adv-x="20" >
  <font-face 
    font-family="Blotter Roman"
    font-weight="400"
    font-stretch="normal"
    units-per-em="1000"
    panose-1="0 0 4 0 0 0 0 0 0 0"
    ascent="800"
    descent="-200"
    x-height="439"
    cap-height="905"
    bbox="-109 -275 1114 905"
    underline-thickness="20"
    underline-position="-123"
    unicode-range="U+0020-F002"
  />
<missing-glyph horiz-adv-x="500" 
d="M63 0v800h375v-800h-375zM125 63h250v675h-250v-675z" />
    <glyph glyph-name=".notdef" horiz-adv-x="500" 
d="M63 0v800h375v-800h-375zM125 63h250v675h-250v-675z" />
    <glyph glyph-name=".null" horiz-adv-x="0" 
 />
    <glyph glyph-name="glyph2" horiz-adv-x="203" 
 />
    <glyph glyph-name="space" unicode=" " horiz-adv-x="203" 
 />
    <glyph glyph-name="exclam" unicode="!" horiz-adv-x="212" 
d="M120 293q0 -2 -5 10t-7 12q-3 0 -2 -13q1 -18 1 -54q0 -25 -3 -38q-11 -14 -29 -13q-19 1 -25 18q-5 13 -15 53q2 29 -1 81q0 4 -2 4t-7.5 -5.5t-6.5 -5.5q-2 1 -2 3q-2 11 2 41q3 27 4 28l2 86l-16 -34q2 34 4 78q-2 15 -5.5 21t-3.5 13q3 40 19 63q8 11 48 45
q10 -12 21 -24q15 -14 62 -18l5 -32l2 -72l-14 -20q1 -49 2 -101q-9 18 -11 18t-3 -6zM157 59q0 -28 -35 -46q-26 -13 -45 -13q-60 0 -60 61q0 28 16 48.5t46 20.5q26 0 52 -22.5t26 -48.5z" />
    <glyph glyph-name="quotedbl" unicode="&#x22;" horiz-adv-x="305" 
d="M227 471q0 -21 -11 -86q-5 -7 -15 -7q-12 0 -17 11t-21 103.5t-16 117.5q0 6 -3 14.5t-3 12.5q0 12 18 30q88 -7 88 -17q0 -2 -2 -3l8 -50q0 -2 -13 -63t-13 -63zM86 497q0 -53 -3 -70q-1 -1 -5 -23t-7 -22q-12 0 -17.5 11.5t-24.5 98.5q-22 94 -22 118q0 16 15 32l26 24
q60 -6 60 -15q-1 -2 -3 -4v-62q0 -3 -9.5 -44.5t-9.5 -43.5zM120 430q-8 -26 -28 -79q-4 48 28 79zM87 327q-13 -14 -18 -14v14h18z" />
    <glyph glyph-name="numbersign" unicode="#" horiz-adv-x="509" 
d="M392 630q0 -1 1 -5l-12 -5l-2 17l14 -2q0 -2 -1 -8t2 -7q4 0 10 5q2 2 19 14l1 -53l-11 -19q-17 -14 -19 -28v-7l56 1q28 1 31 -13q0 -3 -1.5 -11.5t-1.5 -11.5q0 -23 -27 -50q-33 0 -55 1q-3 -10 -15 -25q-22 -28 -28 -80q-1 -4 4 -50q12 1 26 10l1 -2v0q6 -4 30 -7
q20 -3 20 -31q0 -19 -13 -46l-84 -2q11 -28 10 -33q-1 -8 -10.5 -23t-10.5 -21l-7 -11q5 0 24 7q-12 -27 -16 -40q-9 -12 -20 -32q-3 -11 7 -20l-35 -38q-8 4 -24 4.5t-25 5.5q-17 8 -17 23q0 5 2 11.5t11 34.5q3 9 15 8h1q-2 14 -1 42q7 30 10 52l21 16q-1 5 -1 13l-45 -1
q-1 -1 -1 -4q0 -13 -1 -38q-1 -6 -5 -9q-4 -2 -9 3l-16 45h-31q1 -5 -4 -25q-5 -8 -14 -25q4 0 22 3q-20 -16 -20 -21q0 -3 9 -19q5 -11 5 -19q0 -12 -15 -25q-4 3 -7 6q-2 -3 -4 -4v-1q6 1 15 -7q5 -1 17 -12q3 -5 9 -10q-1 -7 -3.5 -13.5t-3.5 -15.5q-19 5 -22 2
q-10 -11 -16 -10l-21 8q-4 0 -16 11l8 4q2 -3 7 -7q12 -12 11 -19q-1 -14 -27 -5q-5 3 -16 6l-2 -1q-13 13 -13 19q0 2 1 4q-11 11 -11 15q0 3 3 8l2 2l1 1q-11 7 3 19q2 7 6 15q-1 0 -4 -2t-19 -15l-1 53l11 19q17 14 19 29q1 11 2 34l-40 1q-27 0 -30 13q-1 4 0.5 12
t1.5 11q0 20 27 47q32 0 53 -1q22 30 28 79q-1 -2 -7 73l-5 -4l-1 2h-1q-5 4 -27.5 7t-22.5 30q0 19 13 47l56 1q-1 9 9.5 26t11.5 23l7 10q-5 0 -24 -7q12 27 16 41q10 12 21 31q3 15 -7 43l68 -16l31 9q-3 -18 -12 -57q-3 -8 -15 -7h-1q2 -15 1 -43q-7 -28 -10 -51l44 1
q17 1 24 -3h24q6 9 14 27l-22 -4q20 17 20 22q0 2 -8 19q-5 10 -5 18q0 13 14 25q10 -8 25 -16q4 -1 27 11q0 2 1 3q-9 17 -16 18q-7 -5 -25 -8q-21 2 -42 21q1 4 6 18q0 1 2 10q8 -2 39 -11q10 -3 15 -4q3 2 10 2l2 -1l-4 4l-3 3q-11 10 -11 18q0 3 13 23l2 13
q24 -22 24 -46q0 -17 12 -27q9 -8 -5 -21l-3 -4q4 -3 3 -7zM300 451q-2 2 -6 15l23 -12q-16 -5 -24 -11l-4 5l8 3q0 -3 -2 -5l-2 4l-2 4h4q-1 -5 -7 -11l-5 -2q-5 -1 -9 -2q0 1 4.5 5.5t1.5 4.5q-5 0 -32 -11l-34 -5l28 20l4 -8q-12 -5 -27 -12q-24 0 -38 2q-2 -12 -1 -38
q0 -8 1 -28q2 -8 4 -23v-2q1 -7 -8 -8q-10 -18 -11 -28.5t-1 -24.5q8 -4 18 1l3 2l56 50l-10 -44q3 -1 22 -11q1 0 1 -1q19 0 31 1q2 12 1 39q0 8 -1 27q-2 8 -4 24v1q-1 8 8 8q10 18 11 28q2 38 -1 43z" />
    <glyph glyph-name="dollar" unicode="$" horiz-adv-x="512" 
d="M455 735q0 -20 -1 -22q-15 8 -29 22h30zM333 719h-44v7h44v-7zM467 198q0 -38 -10.5 -54.5t-62.5 -67.5q-4 -4 -23.5 -8.5t-26.5 -9.5q-52 -34 -56 -59q-1 -3 -1 -37q0 -21 -11 -35h-14q-13 32 -49 91q-6 6 -24 9q-23 4 -29 7q-35 15 -78 46q-55 40 -59 65q-5 30 -5 44
q0 49 29 49q90 0 101 -100q1 -10 13 -22q32 11 39.5 19t7.5 29q0 30 -45 41q4 8 27 34q18 22 18 28q0 5 -37 35q-40 29 -118 90q7 13 7 29q0 41 -38 65q2 6 25 25q3 18 6 37q9 36 28 36q4 0 9 -2t10 -2q6 0 8 3q6 18 18 49q3 8 42 37t52 29q6 0 67 -38t88 -38q17 0 25 7
q21 -16 27 -35q13 -41 13 -73q0 -17 -13 -43q-15 -31 -34 -31q-5 0 -39 25q-44 32 -56 40q-14 -33 -14 -55q0 -5 22 -20q24 -19 30 -25q4 -14 14 -42q4 -10 14 -10q6 0 18 11q5 -12 45 -55t40 -118zM212 474v17q0 12 -17 46q-9 18 -24 16q-2 -4 -15 -28q-9 -16 -9 -21
q0 -9 17.5 -22t28.5 -11q0 4 6 10q7 -7 13 -7zM368 204q0 13 -20 29t-31 16q-29 0 -29 -49q0 -30 6 -60q11 -54 36 -54q10 0 15 5q2 9 10.5 31t8.5 27t-9 16.5t-10 13.5q23 20 23 25z" />
    <glyph glyph-name="percent" unicode="%" horiz-adv-x="665" 
d="M210 353v-33q-20 20 -29 25l-3 -5q-15 -24 -32 -24q-9 0 -49 23t-45 29q-35 42 -56 79q-4 7 -4 39q0 6 2 10l1 1l1 2q-2 5 -3 18q7 29 28 84q7 11 29 26q17 11 34 23t35 12q33 0 80 -17q4 -2 27 -24q13 -12 27 -25.5t20 -29.5q4 -11 4 -21q0 -47 -67 -192zM593 157l-1 -2
l-1 -1q2 -5 4 -18q-7 -29 -29 -84q-6 -11 -28 -26q-17 -12 -34.5 -23.5t-35.5 -11.5q-33 0 -79 17q-5 1 -28 23l-26.5 26.5t-19.5 29.5q-4 10 -4 20q0 68 48 174q19 41 19 52q8 -9 13 -9q3 0 8.5 3t10.5 3q6 7 32 7q8 0 48 -23t45 -29q35 -42 56 -80q4 -7 4 -38q0 -7 -2 -10
zM470 560q-1 -3 -7 -10q-10 -8 -28.5 -40.5t-24.5 -49.5q-3 -9 -44 -51l1 -2q4 -37 0 -53q-4 -20 -16 -24q-4 -1 -10 -3q-7 -11 -20 -43q-8 -20 -43 -31q-2 -1 -5 -18q-2 -11 -9 -25q-13 -18 -34 -43q-5 -5 -7.5 -19.5t-6 -17.5t-16 -28t-13.5 -29q0 -7 -5 -23
q-4 -9 -35 -29q-3 -1 -8 -6l-3 -5q-5 -9 -10 -9q-11 -5 -14 -5q-6 0 -33 10q-7 24 -7 32t7.5 25.5t14.5 22.5q27 17 27 19.5t13 26.5t13 28t15 29q19 31 20 33q5 9 16.5 16t13.5 9t45 53q11 31 11 35q0 14 22 35q1 2 -2 35q15 46 15 48.5t18.5 25t18.5 28t47 62.5q3 2 10 18
q9 37 9 40.5t33 36.5q7 7 35 -7q20 -11 20 -31q0 -8 -1 -12q-9 -18 -23 -54zM149 502q-1 14 9.5 14t10.5 21q0 27 -34 62q-4 -15 -12 -31q6 3 10 3q7 0 6 -7q0 -1 -19 -25l-1 -1l-7 -30q-7 -9 -7 -76q0 -15 22 -41q2 -3 14 -4q9 -8 7 -8q6 0 7 6q1 18 4 54q1 4 4 12t3 11
q0 8 -11 23v4v0l-1 1l-1 1q-1 5 -4 11zM468 103l-2 -6l11 48q7 9 7 77q0 15 -22 41q-1 1 -15 -1q-5 -1 -9 -1q-4 4 -3 10l1 2q-4 -5 -5 -31q0 -12 -3 -34q-5 -15 -5 -16q0 -8 -4 -13q-2 -3 1 -8q1 -6 0 -21l1 -2q4 -12 -5 -14q4 -8 4 -17q0 -27 34 -62q5 17 15 35q-2 3 1 10
q-1 1 -2 3z" />
    <glyph glyph-name="ampersand" unicode="&#x26;" horiz-adv-x="584" 
d="M24 373q3 3 11 3t11 -4q-7 -7 -16 -24zM492 -25q6 7 19 19q-1 -1 -7 -13q-4 -8 -8 -8q-3 0 -4 2zM403 228h-24l-1 -3q15 -5 25 3zM382 326q18 9 25 9q10 0 19 -9l29 12l25 -12q53 20 55 18q1 -5 1 -10q2 -9 10.5 -8.5t11.5 -13.5q1 -6 0 -14l-26 -72q-60 8 -111 2
q25 -8 56 -59.5t41 -51.5q5 0 15 2t19 2q0 -2 2.5 -9t2.5 -13q0 -16 -10 -29.5t-27 -13.5q-8 0 -17 8q-14 -17 -49 -77q-4 -7 11 -22q-23 0 -70.5 1.5t-49.5 1.5q-5 0 -35 -6.5t-35 -6.5t-98.5 28.5t-98.5 28.5q-9 0 -14 -4q-1 5 -14 19t-16 21q-10 24 -18 72q-6 38 -6 51
q0 29 24 67q7 12 48 34q38 21 38 26t-9 21t-9 22q-18 14 -41 21q0 1 -6 43q-3 28 -24 51l-6 55q5 2 5 7q0 2 -1 6t-1 6q0 4 6 4q0 6 10 12.5t12 13.5q7 19 24 52q15 20 22 27q15 17 29 24q5 3 63 10q3 1 12.5 6t15.5 5q3 0 25.5 -8.5t33.5 -10.5q23 3 60 4q29 -3 57 -6
q37 -6 54 -19q23 -19 44.5 -63t21.5 -75q0 -36 -42.5 -81.5t-71.5 -45.5q-9 0 -56 9q-4 13 -4 26t8.5 46.5t8.5 57.5q0 22 -6 46q-3 14 -26.5 27.5t-35.5 13.5q-5 0 -12.5 -4.5t-10.5 -5.5q-66 -20 -66 -94q0 -19 5 -32q11 -12 28 -39q5 -22 16 -66q4 -16 16 -16q5 0 25 7
t25 7q13 0 57 -15q3 -11 6 -21zM326 159q0 22 -34 46t-61 24q-18 0 -39 -14q-24 -15 -24 -34q0 -8 11.5 -26t21.5 -24q35 -21 62 -21q6 0 16 10q-6 6 -16 19q10 11 23 11t13 -12h14q13 11 13 21z" />
    <glyph glyph-name="quotesingle" unicode="'" horiz-adv-x="172" 
d="M101 460q0 13 -15 -71q-5 -7 -15 -7q-12 0 -17 10.5t-20 99.5q-17 93 -17 118q0 18 3 24q5 10 28 32q60 -6 60 -15q-1 -2 -3 -4v-62q0 -3 -2 -62.5t-2 -62.5zM114 664q0 2 -2 21q-2 13 1 16l27 -3z" />
    <glyph glyph-name="parenleft" unicode="(" horiz-adv-x="342" 
d="M125 609q-55 -57 -78 -118q-20 -56 -40 -111q3 2 5 -57q0 -9 1 -10q4 -17 5 -42v-42q2 -21 10 -43q4 -13 19 -41q11 -23 11 -27t5 -17.5t3 -17.5q3 -2 5 -2q3 0 7.5 4.5t6.5 4.5t17 -28q2 2 7.5 -3.5t11 -5.5t7.5 -7q2 -11 5 -14q18 9 27 9q5 0 6 -3q17 -47 112 -55
q7 12 7 23q0 27 -46 41q9 0 0 45q-47 23 -78 84q-28 55 -28 104q0 3 -6.5 20t-6.5 22t4 4q1 6 8 53q7 44 7 56q3 1 5 47q0 8 2 10q3 12 16 18.5t17 17.5q0 2 26 30q24 25 24 40q2 -3 31 9.5t34 26.5q-11 36 -17 43q-10 11 -40 11q-49 -13 -112 -79z" />
    <glyph glyph-name="parenright" unicode=")" horiz-adv-x="342" 
d="M181 62q54 57 77 118q20 56 40 111q-3 -2 -4 57q-1 9 -2 10q-4 18 -4 42q-1 41 -1 42q-2 22 -10 44q-5 14 -27.5 39t-22.5 28.5t-6 18.5q-4 12 -2 16q-3 2 -5 2q-3 0 -7 -4.5t-7 -4.5q-2 0 -17 28q-2 -2 -7.5 3.5t-11 5.5t-7.5 9t-4 12q-19 -9 -28 -9q-4 0 -6 3
q-17 47 -112 55q-11 -18 -11 -33q0 -19 20 -31q-1 0 -1 -1q0 -6 41 -44q50 -23 88 -82.5t38 -105.5q0 -3 6.5 -19.5t6.5 -22.5q0 -4 -4 -3q-1 -6 -8 -52t-7 -57q-3 -1 -5 -48q0 -7 -1 -10q-4 -12 -17 -18.5t-17 -17.5q0 -2 -25 -28t-24 -42q-3 3 -37 -9.5t-39 -26.5
q11 -35 17 -42q10 -12 40 -12q49 13 113 79z" />
    <glyph glyph-name="asterisk" unicode="*" horiz-adv-x="397" 
d="M152 522q-17 89 -17 115q0 19 22 40q41 6 41 2q0 -1 -2 -2q19 -23 11 -66q1 -2 -6 -39.5t-7.5 -39.5t-1.5 -9q69 60 91 73q16 9 45 1q12 -29 12 -38q0 -5 -4 -4l-40 -37l-75 -25q-2 -1 -8 -3q86 -30 108 -43q11 -6 14.5 -11t8.5 -27q-22 -31 -29 -31q-2 1 -3 3
q-30 -2 -47 13q-30 27 -64 55q-2 2 -7 6q17 -89 17 -115q0 -19 -21 -39q-42 4 -42 11q0 1 2 2l-10 48q-1 2 6 41.5t7 41.5t2 9q-70 -60 -92 -73q-14 -8 -44 0q-9 24 -9 33q0 6 5 5l33 24q37 20 77 41q2 1 9 3q-87 30 -109 43q-10 6 -13.5 11.5t-9.5 26.5q23 31 29 31
q3 0 3 -3l29 4q2 1 42 -35.5t41 -37t6 -5.5z" />
    <glyph glyph-name="plus" unicode="+" horiz-adv-x="596" 
d="M317 550v-3q7 -35 6 -38q-5 -43 -5 -42t13 -73l43 -1l-35 -23l92 23q4 -5 11 -11q2 -2 64 11q28 0 28 -22q0 -4 -1 -12t-1 -12q0 -3 2 -14t2 -19q0 -18 -11 -29q-30 0 -52 0.5t-37 1.5t-16 1q-5 0 -13.5 1t-12.5 1q2 -1 4 -3q8 -5 8 -11q0 -11 -21 -24q2 2 2 5
q0 5 -10.5 16.5t-10.5 16.5q0 3 2 6q-19 6 -44 3l2 -43q-2 -41 -6 -85q-1 -2 21 -81q0 -25 -30 -25q-7 0 -19 1.5t-16 1.5q-32 0 -52 20v52q1 22 2 37.5l1 15.5v13q1 10 1 14t-3 8q-11 13 -27 38q6 -6 18 -10t18 -11q7 20 3 45q-15 0 -26 1q-14 1 -35 -1l-24 -2
q-49 0 -55 -2q-9 -5 -27 -13q-4 -5 -12 -1l-4 1q-6 2 -9 -10q-7 13 -10 12q-12 -5 -23 2q-6 3 -6 15q0 4 4 16q20 16 20 21l-3 2v9v14q0 5 -8.5 10.5t-8.5 7.5q6 21 44 18q11 -1 9 -11h3q35 6 39 6q35 -4 34 -4q1 0 13 3q17 6 51 12l-57 -32l83 14q-1 14 0 24q1 14 -1 36.5
l-2 22.5q0 35 -6 54q-3 10 -9 29q-5 3 -1 12l1 4q3 5 -10 8q13 7 12 11q-4 11 2 22q4 6 15 6q4 0 16 -4q14 2 38 2q20 0 26 -2q21 -6 18 -44q-1 -10 -11 -9z" />
    <glyph glyph-name="comma" unicode="," horiz-adv-x="230" 
d="M151 -26q-38 -58 -89 -86q-42 -23 -68 -18q2 2 -1.5 4.5t-3.5 4.5t5 5q1 6 27.5 28.5t27.5 29.5q1 17 3 50q-47 26 -47 68q0 29 20 59q25 34 58 34q16 0 49 -22.5t36 -38.5t4 -75q2 -2 -10.5 -21.5t-10.5 -21.5z" />
    <glyph glyph-name="hyphen" unicode="-" horiz-adv-x="285" 
d="M217 324q25 1 25 -21q0 -5 -1.5 -15t-1.5 -14q0 -21 -24 -46q-56 0 -85 3.5t-23 3.5q-41 0 -56 -9q4 3 -31 7q-16 15 -16 41q0 21 12 46z" />
    <glyph glyph-name="hyphen" unicode="&#x2010;" horiz-adv-x="285" 
d="M217 324q25 1 25 -21q0 -5 -1.5 -15t-1.5 -14q0 -21 -24 -46q-56 0 -85 3.5t-23 3.5q-41 0 -56 -9q4 3 -31 7q-16 15 -16 41q0 21 12 46z" />
    <glyph glyph-name="period" unicode="." horiz-adv-x="230" 
d="M188 27q-47 -44 -98 -44q-88 0 -88 79q0 35 33 61.5t67 26.5q36 0 57 -44q14 -40 29 -79z" />
    <glyph glyph-name="slash" unicode="/" horiz-adv-x="276" 
d="M233 498q-2 -7 0 -36q1 -17 -19 -36q-28 -28 -42 -84q-1 -32 -3 -89q-1 -7 -16 -17t-16 -18q6 -17 9 -43q-12 -16 -27 -42l-14 -16q8 -8 22 -5q-7 -11 -13 -25q-11 -11 -26 -31q-5 -16 0 -45l-46 -27l-38 63q4 7 17 36q2 2 9 1t8 2q0 18 5 47q12 30 17 51l26 16
q-2 1 -2 6t2 16.5t2 15.5q0 5 -3 6q17 16 22 29.5t7.5 36.5t2.5 24v46q22 22 24.5 35t5.5 29q0 4 -3 22q3 8 7 22q4 10 7 39q0 3 13 21.5t13 23.5q0 4 -5 4q8 5 2 21q-8 22 -8 27q0 12 11 19q7 -8 23 -18q3 -1 43 11q-1 10 -9.5 22t-14.5 13q-5 1 -13.5 -2.5t-13.5 -2.5
q-19 5 -34 22q4 6 8 16q21 -9 51 -20v1q8 -3 19 4q1 5 -8 15t-8 14q2 6 9.5 13t7.5 8q9 -11 9 -23q0 -3 -1 -10v-9q0 -15 11 -27q3 -3 -7 -11t-7 -13q3 -2 3 -3q0 2 -7 -5q0 -1 5 -2q-6 -15 6 -18q7 -2 26 9l-4 -38l-12 -16q-21 -13 -25 -31q-1 -5 -4 -22t-4 -22z" />
    <glyph glyph-name="zero" unicode="0" horiz-adv-x="535" 
d="M400 76q17 12 39 41q4 10 5 29q1 24 3 31q0 -11 8 -44t8 -37q0 -30 -20 -30q-8 0 -23.5 5.5t-19.5 4.5zM495 336q0 3 -20 -56q-1 -2 -9 -52q-6 -36 -24 -59q-112 -147 -172 -147q-4 0 -10.5 2t-11.5 2q-13 0 -22 -20h-13q-8 0 -39 19q-35 22 -45 41q-19 15 -46 47
q-5 20 -18 61q-9 23 -23 118q0 2 -26 -78q2 0 21 115q-11 49 -24 59q-8 6 -15 11v14q11 -12 19 -12q6 0 15 10.5t11 19.5q7 23 10 59q5 59 5 60q32 17 48 50q9 26 19 53q5 12 31 32t33 31l-23 -64l19 2q39 24 97 24q34 0 42 -10q24 -30 62 -55q19 -13 17 -21q4 0 7 -1
q8 1 13 -5q8 -24 23 -58q21 -32 24 -54q1 -29 5 -81q2 -13 11 -33t9 -24zM37 174q-11 -4 -54 -30q-3 5 -9 47q39 -8 63 -17zM351 387q0 1 -8.5 25t-4.5 24t-2 52q1 17 0 46q-1 9 -10 19q-14 16 -14 17q-14 21 -68 20l-32 -27q-2 -25 -11 -51.5t-11.5 -49t-2.5 -73.5
q0 -18 6 -40.5t6 -46.5q0 -12 -1 -27q17 -17 17 -34q0 -7 -4 -17t-4 -13q0 -17 -3 -26.5t-3 -16.5q0 -5 9.5 -12t10.5 -10q1 -14 3 -40q19 -21 36 -21q26 0 45 18q16 15 17 27q11 60 23 136q1 10 -4.5 27.5t-4.5 30.5q2 18 8.5 40.5zM102 693q-4 4 -25.5 13.5t-64.5 21.5
q11 0 38.5 3t30.5 3q10 0 21 -41z" />
    <glyph glyph-name="one" unicode="1" horiz-adv-x="361" 
d="M336 744q-58 -8 -104 -20q-14 14 -14 22q20 1 118 -2zM322 555q-17 -2 -56 -9q11 13 36 30q10 0 20 -21zM314 180q-11 -21 -11 -50t12 -43q-6 -7 -32 -9q-22 -3 -22 -14q0 -6 40 -72q-17 -17 -65 -27q-41 -8 -55 -36q-24 18 -41 25q-23 9 -57 20q-10 7 -10 18
q0 14 22 30.5t22 35.5q0 9 -8 24q-10 2 -19 -17q-10 0 -32 21q-9 -9 -17 -9t-38 20q17 6 41 -2q7 12 -1 34q38 -12 46 -12q6 0 21.5 28.5t15.5 36.5q0 3 -12 19q-10 44 -10 80v117q0 6 4.5 38t4.5 37q0 28 -2 34q-3 13 -24.5 41.5t-21.5 33.5q0 6 15 28q17 26 21 35h17
q3 20 -5 29q17 20 35 20q17 0 52 -35.5t38 -53.5q1 -24 7 -70q5 -20 23 -38q11 8 16 21h21q-9 -17 -23 -51q-16 1 -25 -8v-148q0 -14 11 -34q14 -27 32 -24q-7 -8 -23 -11q-7 -4 -7 -16q0 -10 20 -27q12 -9 24 -19z" />
    <glyph glyph-name="two" unicode="2" horiz-adv-x="488" 
d="M493 94l-9 -9l-4 4l9 9zM507 -50q-6 7 -21 20q-23 3 -95 20q-68 15 -109 18q-4 0 -13.5 3.5t-13.5 3.5q-6 0 -36 -6q-3 0 -9.5 -7t-12.5 -7q-4 0 -33.5 10t-34.5 10q-12 0 -38 -18v-11q31 -22 44 -22q4 0 11.5 13.5t11.5 13.5q19 0 30 -13q1 -6 6 -17q-33 -21 -46 -21
q-4 0 -20 4t-21 4t-16 -7l-18 -9l-8 22q-7 15 -20 15q-4 0 -8 -1q0 5 1.5 19.5t1.5 19.5q0 2 -23 74q62 55 123 111q81 75 107 117q4 19 16 59q2 4 -10 28q15 -6 26 -16q9 0 9 12q0 5 -6.5 21t-8.5 26q5 1 21 -7q3 0 10 6v19q-15 14 -22 14q-13 0 -42 -17q-10 -6 -20 -41
q-8 -26 -23 -75q-10 0 -34.5 -2.5t-27.5 -2.5q-22 0 -58 32q-29 28 -59 55l-20 -20q0 7 5.5 20t5.5 18t-12 28.5t-12 28.5q0 2 30 50q17 28 33 55q34 52 53 52q4 0 19 -5t28 -7q2 7 7 20q2 0 5.5 -4t9.5 -4q16 0 48 47q8 -2 31 -19q20 -16 25 -16q6 0 20.5 4t19.5 4
q4 0 22 -24q22 -29 34 -40q20 -14 58 -44q17 -101 17 -95q0 -5 -8 -27q-12 -28 -14 -36q-1 -19 -7 -52q-8 -23 -38 -63v-14q11 -4 22 1q6 0 6 -11q-23 -5 -68 -25q-9 -9 -26 -21q44 -45 57 -45q5 0 15.5 8t15.5 8q14 0 22 -12.5t8 -27.5q0 -5 -12 -54t-12 -54q0 -21 14 -21
q5 0 12.5 5.5t12.5 5.5q16 0 40 -39q19 -32 22 -45zM-38 466l-4 -4l-9 10l4 4zM52 242q-2 -4 -5 -11q-3 0 -8.5 4t-5.5 7h19zM241 552q-14 13 -22 13h-17l-4 -22q21 -1 38 -13zM291 176q-20 -7 -19 -19q5 -2 14 -8q5 9 5 27z" />
    <glyph glyph-name="three" unicode="3" horiz-adv-x="551" 
d="M511 272q-3 -3 -11 -2q-7 0 -11 3q7 7 16 24zM43 671q-1 -6 -3 -11q-3 -9 -10 -9q-2 0 -6 1q1 1 7 13q5 8 9 8q2 -1 3 -2zM537 145q-26 -10 -44 -9q2 -15 -1 -47q-7 -21 -27 -58q-16 -21 -23 -30q-17 -18 -33 -26q-6 -3 -70 -12q-3 0 -14 -5.5t-17 -5.5q-4 0 -29 9.5
t-37 10.5q-17 1 -46.5 4.5t-58.5 6.5q-37 6 -53 19q-24 18 -45.5 62.5t-21.5 75.5q0 36 42.5 81.5t71.5 45.5q10 0 56 -10q4 -12 4 -26q0 -13 -8 -46t-8 -58q0 -22 5 -46q3 -14 20 -28t29 -14q6 0 14 5.5t12 6.5q73 22 73 104q0 17 -2 21q-11 12 -28 40q-5 22 -16 65
q-4 16 -16 16q-5 0 -24.5 -6.5t-25.5 -6.5q-13 0 -57 15q-11 38 -11 68q0 27 9 54q-7 2 -12 2q-6 0 -10.5 -4t-8.5 -4q-30 0 -65 57t-44 57q-4 0 -14.5 -2t-19.5 -2q0 1 -2.5 8.5t-2.5 12.5q0 16 10.5 30t26.5 14q9 0 17 -9q5 6 18 44q10 27 31 34q8 2 -11 21
q23 0 70.5 -1.5t49.5 -1.5q5 0 35 7t35 7t78.5 -28.5t78.5 -28.5q10 0 14 4q1 -6 14 -19.5t16 -21.5q10 -24 18 -71q6 -38 6 -52q0 -29 -24 -67q-6 -9 -28 -34q-18 -20 -18 -26q0 -4 9 -20.5t9 -21.5q18 -14 41 -22q12 -34 22 -54q18 -39 41 -64v-20zM129 372q-14 24 -3 25
q0 -1 1.5 -11t1.5 -14zM293 461q5 11 5 20q0 13 -11 13q-16 0 -29 -27q0 -1 -5.5 -14t-3.5 -16q10 3 26 13.5t18 10.5zM266 506q0 6 -14 14l-18 10q-21 -7 -21 -30q0 -11 6 -32t5 -26q15 13 28.5 33.5t13.5 30.5z" />
    <glyph glyph-name="four" unicode="4" horiz-adv-x="531" 
d="M483 459q-44 0 -47 -1l4 26h29q3 -3 14 -25zM496 127q0 -12 -6 -31q-9 -23 -20 -23q-23 0 -53 18q-1 4 -5 4l-7 -7q5 -13 39 -47v-37q-30 -11 -60 -23q-47 -17 -73 -17t-54 11q-42 17 -56 21q-7 13 -15 42q35 16 53 29q-9 17 -30.5 31t-35.5 14q-6 0 -36.5 -8.5
t-35.5 -8.5q-30 0 -62 15q-41 20 -41 50q0 29 58 97q69 82 78 98q-3 2 -18 2q-6 0 -38 -6q-40 -8 -54 -9q19 8 54 22q107 33 128 84q12 40 47 129q6 14 33 56q22 35 22 41q0 5 -9.5 22.5t-11.5 23.5h28q5 0 10 -9t7 -11q6 -4 -1 -21q10 -13 33 -16q20 -2 40 -5
q14 -78 14 -71q0 -6 -15.5 -48.5t-15.5 -48.5q0 -5 19 -195q1 -2 6 -7q42 -5 48 -5h13q9 -1 14 -1q9 -28 9 -40v-115zM-13 322q-5 5 -5 13q9 -9 5 -13zM252 311q0 26 -11 42q-29 -29 -59 -57q-31 -33 -31 -63q0 -7 2.5 -12.5t2.5 -7.5h23h59v30q-14 -5 -30 11q36 16 42 27
q2 3 2 30z" />
    <glyph glyph-name="five" unicode="5" horiz-adv-x="484" 
d="M291 710l-5 -4l-10 10l4 5zM240 513q3 -8 -5 -16l-8 5q-3 5 -1 26q5 -5 14 -15zM120 622l-28 2l2 28l24 19zM74 633q1 -12 -31 -14q-46 -4 -54 -7q18 11 63 33zM451 663q0 -11 -10.5 -26.5t-23.5 -15.5q-6 0 -11 3q-3 -3 -2 -10q3 -8 3 -17q0 -21 -19 -56
q-17 -28 -35 -57q-11 11 -11 21q15 11 22 41q-41 17 -63 17q-4 0 -9 -2.5t-11 -2.5q-20 0 -38 18q-7 -2 -17 -14q-13 -15 -19 -20q-5 -42 -5 -47q0 -22 5 -29q61 -26 70 -26q7 0 23 9t24 17v-26q1 0 3 -2t9 -2q5 0 45.5 15t46.5 15h19q-2 -12 4 -24q-43 -33 -43 -41
q0 -5 13 -19q17 -16 20 -22q3 -11 10 -32q-6 -4 -16 -17q-1 -5 4.5 -15t5.5 -15q7 -82 -13 -124.5t-121 -112.5q-23 -15 -72 -30t-76 -15h-26q-40 0 -78 14q-11 4 -49.5 49.5t-38.5 57.5v53q6 -1 12 -1q14 0 25.5 14t23.5 14q16 0 41.5 -13.5t30.5 -22.5q11 -33 22 -65
q14 -39 41 -39q58 0 105 87q40 74 40 127q0 50 -58 50h-12.5h-12.5q-20 0 -29 4q20 19 50 57q-2 3 -11 3q-19 0 -77 -37.5l-58 -37.5q-8 0 -18 14t-10 24q0 5 11 21.5t13 22.5q8 33 17 67q12 41 41 73q-4 6 -4 49q0 17 18 33q-5 2 -15.5 6.5t-15.5 6.5q24 27 47 55
q23 22 51 22q38 0 58 -17h-1.5t1.5 0q1 -1 6 -1t14 4.5t14 4.5q13 0 39 -22q2 13 8 31q2 0 5 -4.5t9 -4.5t10.5 2t9.5 2q19 0 29 -13t10 -26zM489 58q-4 0 -17 -3.5t-18 -3.5q-22 0 -33 12q27 -5 68 -5zM100 466q0 -20 -1 -22q-18 -2 -39 4q4 0 18.5 9t21.5 9zM80 382
q-17 0 -74 -4q12 9 25.5 19t20.5 10q15 0 28 -25zM225 659l-4 6l-24 -19l4 -6zM194 628l-2 6l-15 -5v-7zM337 405l-29 -6l-6 -11l23 -3z" />
    <glyph glyph-name="six" unicode="6" horiz-adv-x="508" 
d="M510 418q-47 2 -47 -27q0 -7 3 -16q-27 18 -27 28q0 3 12.5 23.5t11.5 29.5h23q8 -13 24 -38zM132 710h-6v18h6v-18zM503 541q0 -26 -14 -26q-7 0 -44 28q-14 -2 -14 -34q0 -14 1.5 -17.5t14.5 -24.5q-29 -7 -79 -7q-30 0 -51.5 20t-39.5 20q-6 0 -10 -4q-9 23 -43 23
q-30 0 -30 -25q0 -22 46 -54q35 -25 52 -30q33 -11 91 -31q13 -5 33 -21q26 -20 33 -37q4 -8 14 -56q-4 -87 0 -91q0 -3 -2 -43q-1 -28 -8 -41q-31 -62 -74 -91q-22 -15 -73 -27q-40 -10 -54 -10q-63 0 -140.5 64.5t-80.5 115.5q-8 25 -18 75q-8 82 -8 79q0 30 15.5 88.5
t15.5 53.5q0 9 -31 48q18 13 42 21q0 -1 -2 -12q-1 -7 1 -11q38 29 38 47q0 15 -15.5 28t-35.5 16l-11 -8q-2 4 -9 15t-8 15l21 21q44 -43 56 -43q15 0 19 17v6q7 -8 12 -8l22 11q0 8 -8 16q1 0 6.5 -5.5t11.5 -5.5q13 0 81 39q2 5 -8 16q5 -2 28 -9q18 -6 23 -6q17 0 21 8
q7 14 13 18.5t32 4.5q24 0 36 -17t39 -18q3 -2 1 -7q-3 -6 -3 -11q0 -8 17 -34.5t24 -26.5q4 0 8 2t10 2q10 0 23 -9t13 -17zM324 113q0 14 -3 36q-5 30 -6 37t-11.5 22t-10.5 19q0 16 16 16q9 0 15 -4v18q-25 47 -28 52q-24 32 -52 32q-25 0 -34 -4q0 -1 2 -8q2 -5 -1 -7
q-1 0 -3 2t-8 2q-12 0 -32 -45q-17 -38 -13 -100l-4 -5q0 -28 23 -76q28 -59 62 -59q17 0 47.5 33.5t40.5 38.5zM241 285q-7 8 -23 24q17 -8 23 -24z" />
    <glyph glyph-name="seven" unicode="7" horiz-adv-x="440" 
d="M187 680h-22v7h22v-7zM472 388q1 -29 -20 -45q-15 -5 -40 -15q-35 -19 -72 -58q-8 8 -12 8q-12 0 -29 -23q-9 -12 -9 -31q0 -20 12 -59q-50 -31 -73 -80q-14 -36 -27 -72q-17 -31 -58 -31q-25 0 -42 16.5t-17 40.5q0 5 9 38q11 38 13 50q1 22 7 67q2 10 15 30
q16 25 22 37q1 13 7 41q4 -4 10 -4q7 0 12 7q10 13 12 16q21 13 58 47q19 26 45 86q-15 10 -42 10q-25 0 -64 -15v20q-2 0 -5.5 1.5t-9.5 1.5q-5 0 -50.5 -33.5t-50.5 -33.5q-21 0 -29 24l-6 36q-3 3 -14 3q-21 0 -60 -24q-2 23 24 39q20 12 41 24q2 12 -2 47q-3 35 0 51
q1 8 11.5 26t10.5 23q0 19 -15 42h23q3 -23 16 -23q8 0 22 24q0 -8 3 -17q24 -21 72 -66l8 8q24 -16 101 -16q2 0 15.5 -2.5t21.5 -1.5q42 8 32 8q16 0 38.5 -25t22.5 -42q0 -38 -59 -141v-14q3 -2 10 -7q13 6 34 34q10 1 37 9h13q0 -5 10.5 -18t17.5 -18zM61 343l-23 -4
q2 2 5 7t5 7q1 -2 6 -5t7 -5zM278 18h-22q0 4 -9 12q-1 4 4 10.5t10 8.5q9 -4 17 -31z" />
    <glyph glyph-name="eight" unicode="8" horiz-adv-x="508" 
d="M40 587q0 -16 -6 -16q-10 0 -16 6q8 8 13 2zM475 357q-3 -11 -16 -48q-11 -29 -11 -34t8 -48.5t8 -48.5q0 -61 -53 -109q-49 -44 -118 -57q-7 -1 -28 -9.5t-26 -8.5q-2 0 -19 10q-72 17 -127 63q-24 20 -39 51q-9 19 -9 46q0 52 19 90q9 19 34 48q18 22 18 36
q0 17 -45 63q-41 41 -52 46q-17 5 -35 11q-24 7 -29 17q34 -6 61 -23q18 8 28 38l14 52q18 53 101 88q66 28 116 28q14 0 23 -9t14 -10q44 -4 86.5 -45t42.5 -80q0 -17 -26 -65.5t-26 -71.5q0 -27 14 -27q8 0 20 11l24 -23q4 2 14 9.5t14 9.5zM326 529q0 22 -34 46t-61 24
q-18 0 -39 -14q-24 -15 -24 -34q0 -8 11.5 -26t21.5 -24q35 -21 62 -21q6 0 16 10q-6 6 -16 19q10 11 23 11t13 -12h14q13 11 13 21zM346 174q0 42 -30.5 71.5t-70.5 29.5q-5 0 -13 -2t-13 -2q-4 0 -12.5 4t-12.5 4q-17 0 -27 -32q-7 -24 -7 -48q0 -73 44 -109q7 -5 39 -5
q103 0 103 89z" />
    <glyph glyph-name="nine" unicode="9" horiz-adv-x="547" 
d="M130 694l-14 -10l-3 6l14 9zM536 485q-4 1 -18 -15q2 -30 9 -90q4 -36 -8 -100q-11 -57 -11 -88q-1 0 -5 2t-10 2q-24 0 -45 -46q-8 -24 -17 -48q-23 -8 -37 -27q8 -10 38 -24q42 -19 45 -20q-65 6 -128 6q-25 0 -56.5 -29.5t-44.5 -29.5q-5 0 -24 10q-23 10 -30 12
q-23 3 -70 10q-6 -6 -11 -28q1 0 1 35q0 17 -7 21q-15 11 -24 24q-14 20 -17 48q4 13 7 39q-2 7 -8.5 18.5t-6.5 16.5q0 -4 13 35q48 -22 133 -69l26 -34q25 -31 40 -31q26 0 52 37q25 34 25 60q0 41 -36 41q-5 0 -32.5 -4t-32.5 -4q-28 0 -82 22q-57 23 -69.5 43
t-21.5 65.5t-20 64.5q-4 6 -27 18q-31 16 -39 22q10 24 21 32q10 1 31 10q17 15 24 45q12 48 12 49q5 13 16 35q11 10 31 31q0 5 -4 13q28 -19 43 -19q32 0 32 59q0 13 -8 33.5t-15 24.5q-10 2 -24 2q0 10 5 15l8 -7q8 7 30 7q36 0 57 -19q2 5 7 19h13h15q14 0 14 -15
q0 -4 -9.5 -15t-9.5 -17q0 -19 52 -59t64 -40q5 0 10 6t10 6q4 0 12 -8q4 2 6 9t8 7q8 0 31.5 -13.5t25.5 -23.5q1 -4 1 -9t-1.5 -16t-1.5 -17q0 -16 14 -25q1 -15 1 -31q5 -21 28 -34zM377 -77l-18 6l18 5v-11zM291 -71h-23v7h23v-7zM27 108q4 -6 -6 -15h-14q0 7 20 15z
M84 6q3 -7 -2.5 -22t-16.5 -25q-9 0 -15 5q8 22 34 42zM350 386q0 10 -9 19q-8 -8 -14 -2q10 21 10 28q0 3 -1 20q-2 12 0 19q-3 3 -8 9q-1 9 -3 20q-16 22 -48 40q-16 -16 -24 -8q-8 -47 -17 -70q24 -9 41 -10q7 -6 12 -18t6 -14q-9 -6 -32 -14q-11 -4 -11 -20
q0 -10 10 -22.5t23 -12.5q10 0 9.5 5t4.5 13q18 19 44 19q4 0 7 -1zM215 468l-6 -23q5 1 6 23zM311 322v11h-23v-11h23z" />
    <glyph glyph-name="colon" unicode=":" horiz-adv-x="294" 
d="M219 321q-42 -40 -88 -40q-80 0 -80 72q0 31 29.5 55.5t60.5 24.5q33 0 52 -41q13 -36 26 -71zM54 110q21 21 45 30q16 6 61 16q7 2 12 2q47 0 47 -87q0 -31 -29.5 -55.5t-60.5 -24.5q-34 0 -56.5 26t-22.5 63q0 15 4 30z" />
    <glyph glyph-name="semicolon" unicode=";" horiz-adv-x="245" 
d="M179 321q-42 -40 -88 -40q-80 0 -80 72q0 31 29.5 55.5t60.5 24.5q33 0 52 -41q13 -36 26 -71zM192 -9q-53 -35 -150 -102q-33 -23 -43 -23q-4 0 -11 1q8 10 28 28q0 16 3 46q8 18 24 58q-38 20 -38 61q0 29 20 59q25 34 58 34q16 0 49 -22.5t36 -38.5q7 -40 7 -51
q0 -27 -15 -44q14 -1 32 -6z" />
    <glyph glyph-name="less" unicode="&#x3c;" horiz-adv-x="463" 
d="M355 581q17 8 21 8q3 0 5 -5q3 -9 6 -13q12 -17 6 -51q-46 -32 -72 -46q-10 -5 -21 -10q-20 -14 -23 -17q-11 -10 -17 -23l-30 -12v0q-10 -20 -19 -42q-41 -28 -59 -28q-7 0 -10.5 4t-5.5 3q-6 -4 -18 -13q17 -14 40 -32q6 -5 14 -21q5 -13 18 -14q-5 -1 40 -13v-1
q17 -8 37 -16q44 -31 44 -39q0 -3 -4 -3.5t-2 -2.5q40 -28 68 -29q-5 -1 21 -24q5 -5 5 -13q0 -22 -40 -44l-42 29l-12 -11l-40 45l-67 30q-18 8 -22 35l-58 39l-6 -19l-43 52l-41 27q-16 11 -16 17q0 1 14 18l-1 3l67 49l26 7l20 27l34 33q13 12 46 6l38 50l35 8l20 30z
" />
    <glyph glyph-name="equal" unicode="=" horiz-adv-x="463" 
d="M41 193q-23 5 -26 12q1 -1 1 21q0 18 24 42q55 0 84.5 -2t23.5 -2q8 0 16 -3t12 -3q6 0 13 5q23 1 46 3v0q19 3 39 8q56 0 68 -5t6 -5q41 0 56 10q-4 -3 31 -8q16 -4 16 -25q0 -16 -12 -41l-201 -4q-6 -1 -62 -10q-52 -9 -54 -7l41 14q-25 14 -49 14q-15 0 -39 -7t-34 -7
zM417 434q25 1 25 -9q0 -3 -1.5 -10t-1.5 -11q0 -21 -24 -46q-56 0 -85 3.5t-23 3.5q-41 0 -56 -9q4 3 -31 7v0q-19 -10 -40 -23q-40 0 -57 7q-12 4 -13.5 11t-2.5 7q-41 0 -56 -9q4 3 -31 7q-16 5 -16 25q0 17 12 42l201 4q18 1 23 -4z" />
    <glyph glyph-name="greater" unicode="&#x3e;" horiz-adv-x="463" 
d="M64 84q-17 -8 -21 -8q-3 0 -5.5 6.5t-5.5 11.5q-12 17 -6 51q46 32 72 46q10 5 21 10q20 14 23 16q11 11 17 24q15 6 30 11v1q9 19 19 41q41 29 59 29q6 0 10 -4t6 -3q6 4 18 13q-17 14 -40 32q-6 4 -14 21q-5 13 -18 14q5 0 -40 13h-1q-16 9 -36 16q-44 31 -44 40
q0 2 4 3t2 2q-40 29 -68 30q5 0 -21 24q-5 5 -5 13q0 21 39 44l43 -29l12 11l40 -46l67 -29q18 -8 22 -36l58 -38l6 19l43 -52l41 -27q16 -11 16 -17q0 -1 -14 -18l1 -4l-67 -49l-26 -6l-20 -28l-34 -33q-13 -11 -47 -5l-37 -50l-35 -8l-20 -30z" />
    <glyph glyph-name="question" unicode="?" horiz-adv-x="407" 
d="M331 431q0 -4 -7 -40q-3 -20 2 -46q-17 -26 -63 -52q-5 -3 -35 -2q1 0 -15 -16l-14 -16q-12 -5 -30 -15q-10 -6 -56 -63h-25q-6 6 -6 13q0 -2 -3 16q-2 15 0 30q4 14 10 42q-3 15 -5 38q1 10 6.5 19.5t6.5 15.5q14 13 62 32q44 18 67 42q-10 22 -70 31q7 15 7 27
q0 20 -24 30q-24 7 -49 15q-11 3 -21.5 7t-16.5 12q-7 12 -7 40q0 40 7 51q-11 26 79 26q29 0 74 -31q9 0 23 -4q3 -9 12 -25q13 -8 35 -27q2 -3 1.5 -12t2 -9t13 -16t9.5 -28q-3 -11 -5 -26q35 -47 35 -59zM175 33q-5 -3 -42 -28q-27 -19 -34 -19q-6 0 -19.5 11.5
t-18.5 11.5h-42q-6 7 -6 24q0 19 6 27q17 19 47.5 44.5t39.5 25.5q8 0 32 -21.5t30.5 -35.5t6.5 -40z" />
    <glyph glyph-name="at" unicode="@" horiz-adv-x="14" 
 />
    <glyph glyph-name="A" unicode="A" horiz-adv-x="694" 
d="M575 706q0 -3 -9 -12q-5 10 9 20v-8zM662 454q0 10 -8 -25h-15q-5 0 -17 10q10 7 31 20h7q2 0 2 -5zM662 590q0 -18 -18 -44q-9 -2 -29.5 -7.5t-22.5 -5.5t-9 6t-9 6h-67v-1q-1 -1 -1 -4q0 -4 10 -19q-59 -14 -59 -41q0 -17 18 -39t18 -23q0 -2 -5 -14.5t-5 -16.5
q0 -42 23 -68q32 -39 42 -62q2 -22 10.5 -60.5t53.5 -94.5q42 -53 42 -54q0 -4 -10.5 -18t-18.5 -18q-16 -9 -57 -9q-34 0 -159 19q-5 1 -10 8.5t-5 10.5q0 11 26.5 36.5t26.5 27.5q0 6 -15.5 17.5t-21.5 13.5v6q0 5 10 15q-12 12 -26 18l18 26q0 12 -7 21q-18 24 -37 24
q-13 0 -67 -11t-61 -15q-3 -1 -27 -41q-27 -44 -27 -57q0 -12 16.5 -43t16.5 -36q0 -24 -66 -44q-52 -16 -71 -16h-36q-6 0 -15.5 14t-10.5 19q-1 2 -1 12q0 35 27 73q9 12 50 44l-24 53q0 3 5 3l36 -12q13 14 16 42q4 41 5 42q5 20 43 53q-3 35 1 49q7 22 19 50t15 28
q-1 0 12 -6q36 34 50 113q28 103 48 103q3 0 9 -2.5t9 -3.5q13 -2 20 -5q13 -5 35 -34q20 -25 36 -26l125 -6q23 0 50 15q1 7 -13 12q5 12 9 38h34q3 -9 16 -37q10 -22 10 -24zM390 147q-4 -7 -12 -6q-16 3 -15 3l3 14q8 -3 24 -11zM332 79q-2 -2 -5 -2q-9 0 -9 9
q0 2 1.5 5.5t1.5 5.5l11 -3v-15zM213 527q-6 -2 -16 -6v16q7 -3 16 -10zM497 547q3 11 -13 16q3 -12 13 -16zM463 569l-3 3l-2 -2l3 -3zM349 328l-20 85l-51 -79l36 -6h35z" />
    <glyph glyph-name="B" unicode="B" horiz-adv-x="694" 
d="M155 701l-5 -5q-13 13 -13 27q0 2 5 11q1 0 7 -9.5t6 -13.5v-10zM650 572q-27 -8 -54 0q-2 -2 -4 -8q-2 -56 -5 -74q-6 -40 -28 -77q-1 -3 -3 -10l-27 -51q-4 1 -12 10q-2 -1 -16 -10h-7q-4 9 -9 20.5t-11 11.5q-5 0 -20 -9q0 -7 8 -13q29 -21 85 -62q6 -5 17 -18
q9 -20 21 -55.5t12 -39.5q0 -34 -43.5 -88.5t-73.5 -56.5q-10 -1 -28 -13q-3 -1 -25 -21q-15 -13 -24 -13q-3 0 -11.5 7.5t-11.5 7.5q-2 0 -22.5 -7.5t-23.5 -7.5q-7 0 -36 16.5t-37 16.5t-24.5 -13t-26.5 -13q-2 0 -23 7t-24 7q-6 0 -26.5 -17.5t-27.5 -17.5q3 0 -20 4
l-3 -3l18 -18l-3 -1.5t-6 -1.5q-9 0 -21 14.5t-18 17.5l-42 22q-22 15 -22 35q0 26 21.5 33t21.5 21q0 2 -5 13t-5 14q0 9 6.5 17t13.5 8q3 0 6 -1t5 -1q1 1 3 4q19 82 19 111q0 11 -5 98q-4 82 -14 155q-1 8 -16 21q-18 16 -19 19q-15 23 -15 46q0 17 41 41q38 20 51 20
q3 0 11.5 -4t11.5 -4q2 0 27 10.5t28 10.5q5 0 59 -16.5t70 -16.5q22 0 56 7q3 2 3 7q0 3 -3.5 13.5t-4.5 15.5l172 -116q6 2 30 17q17 9 26 9q7 0 63 -30zM322 544q-3 7 -10 7v-8q10 0 10 1zM310 559q-7 6 -14 13t-12 5q11 -22 20 -22q3 0 6 4zM334 428v21q-14 23 -35 61
q-26 63 -54 76q-4 -41 -4 -54q0 -11 5 -19q3 -3 9 -11q-20 -20 -20 -25q0 -2 4 -16t4 -19q27 -23 42 -23q17 0 49 9zM410 182q0 13 -6 21.5t-8 15.5q-1 4 2 14t3 12q0 6 -21 30t-31 24l-79 -43q1 -13 -5 -35q-8 -10 -8 -16q0 -19 19 -62q2 -6 12 -11.5t14 -5.5q2 0 12 3.5
t13 3.5q25 2 68 6q5 3 10 21q5 15 5 22z" />
    <glyph glyph-name="C" unicode="C" horiz-adv-x="664" 
d="M119 701q-6 -15 -26 -35q-22 -23 -37 -24v17q0 21 17 42h46zM685 1q0 -6 -7 -15t-11 -9q-11 0 -30 17.5t-19 26.5q0 3 6 10t9 7q6 0 22 -12q1 4 6 12q4 0 7.5 -1l3.5 -1q2 -10 -1 -21q14 -16 14 -14zM616 35q0 -5 -13 -17q-10 0 -26 30q11 11 23 11q5 0 10.5 -10t5.5 -14
zM687 65q0 -7 -3 -12h-48q0 8 5 29q-4 13 -14 13q-3 0 -21 -6v7q0 2 8 13.5t8 14.5q0 8 -12 8q-3 0 -6 -1t-7 -19q-10 -41 -86 -81q-3 -2 -47 -10q-64 -11 -89 -11q-78 0 -228 57q-10 -9 -11.5 -25t-3.5 -32q-15 16 -27 24q-80 48 -108 109q-1 3 -1 8q0 4 1.5 12t1.5 12
q0 13 -10 19h11q9 -1 12 -1q13 0 13 9q0 5 -10 21q2 2 13 -2q0 1 1 2v4q0 1 -6.5 44t-8.5 59q0 8 -9 8q-3 0 -14 -5t-14 -6q-3 10 -8 41q1 -1 17 -16q49 50 49 101q0 29 -12 29l-14 -1h-26q35 23 102 69q7 12 24 31q99 66 163 80q14 2 47 2q56 0 109 -7q12 -1 42 -10t32 -9
t13.5 1t14.5 1q28 0 55 -14q33 -18 33 -47t-8 -95q0 -1 1 -25q0 -17 -4 -19q-10 2 -31 4t-31 3q-7 10 -6 13q1 5 1 9q0 50 -97 107q-5 3 -22 8q-23 7 -37 7q-26 0 -73 -19q-56 -23 -56 -48q0 -10 13.5 -37l13.5 -27q0 -17 -43 -56.5t-43 -52.5q0 -7 6 -13q10 -11 14 -16
q5 -14 19 -40q-6 0 -14 4t-10 4q-11 0 -17 -27q0 -26 26 -87q31 -72 60 -72q7 0 8.5 6.5t11.5 6.5q11 0 12.5 -7.5t7.5 -10.5q14 -7 50 -13l40 18q24 -6 29 -6h6q1 6 11 10q7 3 14 5q24 13 50 47t37 64h7q10 1 41 -22q1 -18 -1 -37q4 -7 19 -9q4 -3 4 -7q0 -2 -1 -5t-1 -4
q0 -4 6 -7q4 6 8 22q2 -1 4 -4q1 -8 6.5 -22.5t5.5 -19.5q0 -7 -5 -10q6 -6 18 -27q1 0 10 8q9 -5 9 -14z" />
    <glyph glyph-name="D" unicode="D" horiz-adv-x="851" 
d="M836 1q0 -4 -5 -8h-16q0 8 10 8h11zM794 -12q-6 -12 -11 -12q-3 0 -26 12q23 9 37 0zM826 433q-7 -5 -21 -17q1 -2 20 -22v-8h-15q-2 0 -6.5 2t-7.5 2t-12 -8t-9 -11t8.5 -12t8.5 -11v-70l-3 -3q-8 2 -26 2q-26 0 -29 -7q3 -22 35 -22q2 0 7.5 1t8.5 1q8 0 16 -7
q-20 -10 -61 -30q14 -19 39 -19q1 0 14 1.5t22 1.5q-15 -18 -25 -38q3 -3 4 -3q-2 0 16 4q3 0 3 -5q0 -4 -17 -21q1 -2 25 -31q-4 -6 -13 -18h-7q-7 6 -17 20q6 12 6 15q0 17 -17 17q-10 0 -17.5 -10.5t-13.5 -20.5q-1 -4 7 -4l24 4q4 -18 1 -43q2 -3 8 -3l31 6v-9
q0 -3 -5 -11t-5.5 -10.5t-5.5 -2.5q6 0 -15 7q-13 2 -37 10q-8 8 -21 23q-14 -5 -14 -19q0 -4 2 -7q-34 19 -31 78q-1 2 -4 2q-6 0 -13.5 -9.5t-8.5 -12.5q-2 -11 -6 -32q-19 -8 -77 -24l-7.5 -11t-13.5 -21q-8 -14 -19 -19q-1 -1 -10 -1q-2 0 -31 6.5t-31 6.5
q-16 0 -105 -32q-83 -29 -92 -35q2 -5 6.5 -15.5t5.5 -15.5q-4 -4 -22 -13q-9 12 -19 32l5 13q-10 24 -30 36q-15 9 -42 9q-17 0 -17 -12q0 -14 41 -20q11 0 16 4q-1 -5 -4.5 -16t-5 -14.5t-6.5 -8.5h-38q-5 5 -4 16q1 14 0 16q-8 8 -32 40q0 1 -2.5 3t-5.5 2q-2 0 -2 -1v0
q0 -1 -3 -1q-18 0 -41 16q-26 17 -26 35q0 20 22 44q6 4 18 11q-9 26 -9 40q0 18 13 25q-10 12 -20.5 25.5t-10.5 26.5q0 9 6 19q-5 5 -17 5q2 22 -35 72q-2 8 -9 26q12 4 20 4q15 0 34.5 -12.5t17.5 -12.5l13 11q1 -1 7 -6t9 -5t14 16v175l-46 26q-19 12 -26 50q-1 4 -4 13
t-16 9q-2 0 -11.5 -1t-15.5 -1q5 6 14 18q4 12 14 36q9 -6 18 -6q14 0 26 9q6 5 12 18q3 4 11 4q4 0 25 -10q7 8 11 23q2 8 12 8q15 0 18 -10q2 1 8 5.5t9 4.5l9 -6t21 -6q11 0 26 9.5t24 9.5q3 0 16 -6.5t16 -6.5q2 0 35 10.5t36 10.5q11 0 42 -16q0 -1 1 -24q1 -14 10 -14
q2 0 13.5 6t13.5 6q8 0 17 -12q11 -15 20 -19q18 -7 78 -22q54 -13 79 -27q8 -6 23 -17q-2 -3 -2 -5q0 -11 18 -11q2 0 8.5 1t8.5 1q14 0 14 -20q0 -2 -4 -17t-4 -18q0 -5 10 -11q15 -7 31 -14q22 -10 31 -25q5 -7 1 -23q11 -6 26 -6q17 0 36 7l3 -3v-7zM-60 462l1 -15
q1 -7 -4 -8q0 7 1.5 13.5t1.5 9.5zM234 -94q0 -3 -11 -15q-14 -16 -17 -21q-6 2 -14 18q15 14 30 36q12 -12 12 -18zM21 44h-4v13h4v-13zM761 160q-6 7 -29 7q-29 0 -36 -8q3 -6 15 -13t17 -7q9 0 20.5 6.5t12.5 14.5zM529 399q0 36 -54 114q-5 8 -20 17t-25 9q-2 0 -7.5 -3
t-7.5 -3q-10 0 -22 10q-15 12 -23 15q-4 -11 -12 -32h-54q-7 0 -22 11l-12 -36q-9 -26 -9 -40q0 -11 10.5 -46.5t10.5 -68.5q0 -1 -2 -16.5t-2 -22.5q31 -5 31 -42q0 -15 -7 -15q-9 0 -19 13q-9 -19 -17 -37q-11 -26 -11 -38q0 -10 5 -22t13 -12q-2 0 14 9q-1 -17 0 -48
q1 -10 19.5 -22t28.5 -12q5 0 46 39.5t52 39.5q-1 0 9 -4t34 -8q1 4 16 34q0 2 -4 13q-2 8 -1 12q2 7 10.5 18t8.5 13t-4.5 39t-4.5 39q0 10 16 39t16 44zM273 329h-10v-11q3 -3 8 -3zM87 209q-4 11 -14 16l-2 -12q7 -4 16 -4zM476 349q0 -28 -9 -38q-23 -25 -36 -54
q-14 -33 -25 -46q-18 10 -53 34q-6 9 -21 29q26 33 39 33t25 -17q5 4 19 50q12 40 36 40q11 0 18 -12t7 -19zM332 219q-1 0 -5 -1t-7 -1l-2 23h9l5 -5v-16zM361 158q-24 -50 -29 -50t-31 11v26q5 6 11 19q1 3 1 40h11q6 0 18 -9q-4 -41 19 -37zM336 133v27q-2 2 -8 2
q-3 -14 0 -29h8z" />
    <glyph glyph-name="E" unicode="E" horiz-adv-x="670" 
d="M396 724q-14 -7 -38 -15l-9 2v8q12 4 36 15h9q0 -1 1 -5t1 -5zM355 728h-25q0 5 -2 7l7 7q12 0 20 -2v-12zM664 204q0 -2 -11 -39t-11 -41q-1 -3 0.5 -11t1.5 -12q0 -30 -2 -38q-4 -15 -20 -38q-22 -30 -40 -30q-2 0 -7 3t-7 3q-13 0 -27 -16q-4 -4 -14 -30q-4 2 -11 7
q-26 29 -62 36q-29 1 -57 3h-55q-39 0 -70 -13q-7 -8 -21 -19q-4 -1 -13 -3l-75 27h-8q-6 -13 -11 -13t-15 9.5t-20 9.5q-2 0 -52 -18h-8q-21 57 -21 53q0 14 8 17q21 11 36.5 33.5t16.5 41.5q1 2 3.5 8.5t2.5 11.5q0 1 -8 28l23 130q-2 22 -15 45q-16 28 -40 36
q15 17 15 31q0 2 -12.5 41.5t-12.5 41.5q0 10 8 22q-3 7 -8 7q-3 0 -9.5 -5t-8.5 -5h-13v28q-2 1 -5 1q-7 0 -7 -12q-1 -16 -2 -17q-4 1 -17 13.5t-13 17.5q0 8 16 46q14 32 18 38q2 -1 9.5 -6.5t9.5 -5.5t14.5 11t20.5 15q56 26 86 26q11 0 29 -9.5t21 -9.5q7 0 8 10
q40 5 53 9q29 7 46 27q2 0 7 -5t8 -7q35 -21 64 -21l149 2q19 0 21 -5q35 -79 35 -100q0 -26 -29 -77q-4 -9 -20 -9q-10 0 -20 7q-21 22 -41 44q-41 41 -50 41q-3 0 -8.5 -7t-8.5 -9q-6 -5 -26 -5h-53q-24 0 -37 -28v-60q5 -8 28 -8q18 0 24 4q10 6 23 34q9 1 31 -4
q27 -7 33 -8q1 0 16 -53q9 -35 30 -53q5 -13 5 -9q-35 -6 -35 -30q0 -3 5 -20t5 -20q0 -5 -8 -30q-8 -28 -16 -40q-4 -7 -28 -7q-28 0 -39 13q-23 28 -48 45q-9 -3 -17 -30v-21q-1 -18 -13.5 -45.5t-12.5 -26.5q0 -4 5.5 -11.5t9.5 -7.5q10 0 21.5 39t31.5 39q-3 0 18 -7
q-3 -10 -12 -22q-11 -16 -23 -31q-18 -24 -18 -34t13 -27q14 -20 26 -20q3 0 22 10.5t22 10.5q2 0 13 -7t14 -7q2 0 12.5 2.5t14.5 2.5q76 -2 147 129q14 -10 46 -35q1 -2 3 -2q7 0 16 17q7 14 7 13zM311 281q-4 7 -12 7t-11 -7q2 -5 11 -5t12 5z" />
    <glyph glyph-name="F" unicode="F" horiz-adv-x="596" 
d="M577 583q0 -20 -16.5 -27.5t-16.5 -29.5q0 -8 2 -19q-4 -1 -11 -3l-2 -1l1 -6q4 -4 8 -4q-1 -1 -6 -12q-3 0 -9 1t-9 1q-2 7 3 17q-38 34 -72 53q-20 10 -32 10q-2 0 -21 -6t-21 -6t-25 5.5t-26 5.5q-8 -1 -15 -4q-17 -7 -33 -14q-20 -10 -32 -23q-4 -4 -3 -33
q3 -80 46 -78q2 0 41 18t41 18q7 0 25.5 -8t18.5 -16q-6 -16 -11 -39l2 -69q0 -3 -19 -77q-6 -1 -17 -3q-2 0 -10.5 1t-12.5 1q-16 18 -80 62q-30 -22 -30 -54q0 -7 5 -38q-4 -15 -7 -36q0 -15 5 -56q7 -12 19.5 -32.5t23.5 -39.5q16 -26 38 -42q-11 -1 -32 -6
q-9 -8 -29 -19l-91 18q-28 -16 -37 -16q-2 0 -15 10t-16 10q-3 -4 -11 -9q-8 0 -28 16t-32 16q-4 -2 -13 -3q-1 3 -10.5 14t-12.5 29q13 6 22 6q10 0 14 -9l4 -9q11 1 58 63q9 12 9 21l-2 56q-6 10 -17 12.5t-14 20.5q0 1 9 11.5t10 18.5q12 105 10 170q-1 30 -33 29
q-21 -1 -13 -2q-3 0 -4 13q0 2 5 33.5t5 34.5q-1 42 -21 41q-6 0 -14 -13q-4 2 -16 12t-13 13q0 5 9 33q5 12 57.5 34t75.5 23q2 0 33 -7q35 -8 52 -10q2 -1 44 1l96 3q15 0 37 4q4 4 14 12q22 -8 58 -14q30 -5 61 -9q6 -2 27 -30t22 -39zM59 185q3 -15 0 -17q-4 -2 -7 -3
l-13 4q-1 2 -5 7q4 8 15 16q3 0 10 -7zM20 -3l-33 4l2 18l10 2zM386 124q-10 -15 -24 -16q-7 0 -14 1l-9 2v8q12 4 36 15h9q0 -1 1 -5t1 -5zM345 128h-25q0 5 -2 7l7 7q12 0 20 -2v-12zM451 174q-14 -7 -38 -15l-9 2v8q12 4 36 15h9q0 -1 1 -5t1 -5zM409 178h-24q0 4 -2 7
l7 7q12 0 19 -2v-12z" />
    <glyph glyph-name="G" unicode="G" horiz-adv-x="710" 
d="M271 722q-3 -6 -12 -6q4 0 -26 5q0 4 -2 7q4 5 11 5q22 0 29 -11zM724 714q0 -10 -6 -20t-23 -22q-7 -3 -20 -10q-20 -11 -7 -32q-40 -28 -41 -28t-9 2.5t-14 2.5q-7 0 -21 -7q11 -11 27 -35q18 -51 18 -98q0 -14 -7 -29q-9 -19 -25 -19q-14 0 -33 10q-4 19 -8 28
q-8 18 -20.5 26t-39.5 27q2 34 14 61q-3 3 -7 3q10 0 -30 -8l-95 1q-2 0 -11 12.5t-10 11.5q-33 -19 -65 -37q-41 -27 -42 -45q0 -6 -1 -18q-6 -4 -17 -14q0 -2 3 -4q73 -28 91 -28q3 0 43 3q0 -4 -5 -7q-14 -6 -20 -6h-65q-7 0 -25 -9.5t-18 -17.5q0 -2 8 -10.5t8 -11.5
t-18 -15t-18 -15q0 -2 7 -14t9 -16q-5 -2 -34 -6q-10 -1 -10 -18q0 -8 8.5 -23t8.5 -23q0 -5 -2 -9q0 -3 25 -22q-2 -7 -14 -18q10 -15 26 -15q2 0 10.5 2.5t14.5 3.5l5 -5q-24 -29 -24 -35q0 -1 7 -10q5 9 14 24l38 -60q35 -49 60 -49q11 0 49 28.5t38 41.5q0 6 -10 24
q4 7 11 7q3 0 4.5 -1t3.5 -1q7 0 9 16q0 13 -12 34q-14 26 -31 26h-9q-1 -4 -4 -12l-1 -1t-4 -1q-4 0 -12 8h-5q-3 -3 -3 -16q-8 1 -22 -9q-10 -22 -10 -28q0 -2 5 -14t5 -15q0 -2 -3.5 -17t-4.5 -20q-6 1 -21.5 18t-17.5 17q-4 0 -12 -3q-5 21 -30 34q3 5 34.5 40t33.5 35
q6 0 18 -12q20 9 26 32q3 -9 10 -12q4 3 15 11q-1 1 -5.5 4.5t-4.5 6.5q0 8 14 37h6q2 0 13 -8t13 -8q-1 0 14 12t28 12q2 0 13 -4t14 -4q28 0 28 30q0 2 -1 11t-1 13q1 0 -13 0q-5 0 -13 17q6 6 18 10q-4 7 -24 23q0 8 5 29q18 -7 28 -29q9 -18 19 -18q2 0 5 1t6 1
q6 0 13 -11.5t7 -17.5q0 -2 -2 -5q-7 4 -16 4q-4 0 -7 -3q4 -5 11 -13q-2 -3 -3 -8q7 -8 25 -37q10 -17 32 -23q4 -2 14 -4q4 -3 8 -4q9 -7 17.5 -30.5t8.5 -36.5t-7.5 -25t-15 -25.5t-11.5 -47.5q-6 -41 -7 -44q-5 -19 -37 -45h-7q0 11 -1 31q-2 5 -7 5q-12 0 -52 -40
q-3 -9 -13 -27q-15 -19 -36 -19q-11 0 -33.5 13t-29.5 13q-9 0 -32 -11t-27 -12q1 3 -3.5 10t-9.5 7q-6 0 -28 -29q-19 9 -16 9q-5 0 -28 -18q-14 -12 -28 -23q-2 3 -10 30q-6 21 -13 21q-2 0 -15 -3t-15 -3h-20l-5 3q0 6 4 26q-5 5 -15 5q-23 0 -55 -34.5t-42 -34.5
q-6 0 -15 9q24 29 24 32q0 2 -50 37q16 32 16 28q0 13 -31 38q2 4 -9 24q3 6 21.5 7.5t21.5 6.5q-2 11 4 29q10 25 11 32q-4 5 -12 5.5t-15 0.5q-2 1 -4 4q-13 41 -35 119q-6 6 -13 19q10 2 20 5q14 5 13 22q-7 4 -22 14q3 4 15 18q11 11 11 18q0 9 -10 15t-17 6
q-4 0 -12 -4q0 3 5 9q-5 9 -33 13q5 9 17 9l66 -6q21 0 35 17q16 21 30 42t47 56q9 6 60 21q30 16 61 33q55 29 77 29q2 0 14 -4.5t14 -4.5t29.5 -9t30.5 -9t28.5 -7t28.5 -7q24 0 24 22q0 26 -25 26q-15 0 -13 -10h-7q-29 19 -72 48q10 4 26 1q23 -3 27 -3q6 0 12 6t12 6
q7 0 38 -16t42 -16q19 0 50 13.5t43 28.5q-3 -5 -3 -9q0 -17 19 -15q3 6 3 18q2 -2 8 -2q2 0 17 4t18 4q14 0 14 -11zM306 254q-8 -5 -41 -24q-3 16 0 31h41v-7zM-55 12h-3v11h3v-11zM557 578v7l-20 2l-2 -9q11 -4 22 0zM429 297h-15v-7h13q2 2 2 7z" />
    <glyph glyph-name="H" unicode="H" horiz-adv-x="673" 
d="M282 208q-1 0 -4.5 -1t-6.5 -1q-9 0 -19.5 5.5t-8.5 13.5h31q2 -5 8 -17zM270 201q3 -9 0 -19h-9q-7 6 2 19h7zM415 -105q-45 25 -43 25q-2 0 -4.5 -5t-4.5 -5q-17 0 -48 48q-28 43 -32 58l11 -7q15 1 51 -28q27 -22 70 -86zM564 717q-4 -2 -9 -6l-11 2q8 15 17 14l3 -3
v-7zM345 469h-18q-8 -1 -19 11q12 -3 37 -11zM282 451q-1 -1 -3.5 -2.5t-3.5 -1.5q-23 15 -23 22t5 7q5 1 15 -10q7 -9 10 -15zM31 674q-3 -7 -9 -13q0 3 1 10t1 10zM649 -2l-6 -6q-6 0 -21 -1.5t-17 -1.5l-69 4q-20 0 -66.5 -7.5t-54.5 -7.5h-6q-3 7 -13 31q-9 21 -9 23
q0 16 27 48.5t27 46.5q0 4 -2 9t-1 14q4 8 10 24q3 10 3 21q0 12 -5 24.5t-5 13.5q0 10 7.5 23.5l7.5 13.5q0 14 -9 14q-3 0 -31.5 -6t-30.5 -6q-3 0 -28.5 7t-28.5 7q-2 0 -26.5 -13t-26.5 -13q-3 0 -26.5 13t-24.5 13q-16 0 -26 -48q0 7 5 -23q2 -7 2 -45q0 -12 6 -34
q3 -14 15 -32q6 -8 25 -29q17 -17 17 -20q0 -10 -20 -35q-17 -20 -23 -25q-13 10 -15 10t-25.5 -6t-26.5 -6q-32 0 -86 10q-77 14 -77 36q0 6 22 38q11 15 21 31q25 52 25 106q0 23 -19 94q1 -6 2 22q2 38 -29 82q21 -6 39 -19q9 3 9 9q0 1 -9 13.5t-10 19.5q-1 4 1.5 18
t2.5 20q0 15 -6 34q-2 8 -27.5 35t-25.5 40q0 30 35 51q28 18 52 18q2 0 8 -4t8 -4q4 0 32 18.5t36 19.5q10 -16 44 -35q40 -22 64 -45q0 1 -5 -9q-19 -17 -23 -50l-2 -48q-2 0 -8 2t-9 2q-1 0 -21 -15q8 -26 16 -37q1 -1 20 -9q16 -6 16 -17q0 -3 -4 -18t-4 -17
q0 -16 17 -16q27 0 53 8q12 4 23 21q-1 4 1 12q15 4 53 22q-3 7 -10 7q-3 0 -4.5 -1t-3.5 -1q-9 0 -26 8v27q7 2 18 2q3 0 25 -4t25 -4q7 0 11 10q7 15 7 53q0 2 -2 6v7q8 -4 13 -8h7q1 1 1 4q0 12 -60 28q-12 4 -35 13q5 3 14 3l36 6q8 9 8 21v9l-4 4q-4 0 -11 -13l-18 12
q-3 3 -3 9q0 9 17.5 20t19.5 18q-2 17 7 44q-1 1 -3.5 2.5t-3.5 2.5q-7 -5 -12 -20q-13 5 -22 22q-1 4 -2 12q-8 5 -11 13q13 3 35 3q23 0 30 -3q13 -5 51 -47q54 -60 56 -60l30 12q12 -16 21.5 -24l28.5 -24q6 -24 -3 -75q18 -13 23 -39q-6 1 -18.5 -4t-14.5 -12
q-3 -25 -11 -67q-9 -37 -9 -88l6 -143q0 -24 6 -51q3 -13 25 -37.5t22 -30.5v-56zM-31 643q-1 -2 -3 -3q-1 -1 -2 3q5 -2 5 0zM218 522q-4 0 -7.5 -1t-4.5 -1q0 -2 1 -6.5t1 -5.5q10 3 10 14z" />
    <glyph glyph-name="I" unicode="I" horiz-adv-x="317" 
d="M54 879q-12 0 -21 2l-9 2l4 22h14q12 -23 12 -26zM48 852h-6v18h6v-18zM58 774q-26 15 -33 15q-4 0 -7 -2t-8 -2q-18 0 -44 41q-22 35 -24 48q63 -23 116 -100zM-48 706q-12 12 -5 20q10 -9 5 -20zM297 548q0 -23 -31 -54q-42 -42 -50 -56q-20 -34 -20 -91q0 -5 7 -38
q9 -40 11 -50q-2 -17 -2 -51q1 -3 8 -14.5t7 -16.5t-8 -23.5t-8 -23.5v-19q10 -6 23 1q-2 -7 -2 -13q0 -14 15 -31.5t15 -27.5q0 -27 -62 -42q-45 -11 -87 -11q-26 0 -48 8q-38 12 -38 39q0 13 27.5 55.5t27.5 72.5v68q0 1 -27 1q7 10 14 28q1 15 1 82q0 60 -3 78
q-2 9 -29 109q-3 9 -13 18t-23 5q7 7 12.5 37t18.5 44q14 -8 24 -8q9 0 53 26q-4 10 -14.5 19.5t-17.5 9.5q-5 0 -27.5 -6t-26.5 -6q-20 0 -39 13q0 2 2 9t2 9q51 -7 84 -7h14q3 2 3 10q0 4 -10 19.5t-10 19.5q0 5 4.5 6.5t4.5 2.5q10 -7 92 -64q4 -9 16 -25q13 -5 51 -5
q-2 -15 6 -15q5 0 37 31v-23h-13q-2 -3 -2 -8t15.5 -46t15.5 -46z" />
    <glyph glyph-name="J" unicode="J" horiz-adv-x="354" 
d="M350 632q-8 0 -20 13v15q8 -4 20 -28zM-42 579q-6 -11 -19 -11q-39 0 -48 41q11 -6 33.5 -15t33.5 -15zM308 616q0 -2 -24.5 -44t-29.5 -62q-9 -40 -9 -196q0 -260 49 -415q4 -11 2 -32l-2 -36q-36 61 -53 61q-4 0 -43 -40q-42 -42 -56 -47q-3 -2 -43 -2q-5 0 -22 -2
t-22 -2q-53 0 -93 16q-55 23 -55 66q0 23 19 50q23 33 51 33q14 0 44 -32t49 -32q36 0 36 22q0 17 -25 13q26 22 26 56q0 6 -1 18t-1 17q0 15 5 25q0 102 0 101q-5 34 -27 83q-12 9 -31 30q-18 35 -18 56v52h31q-2 0 35 -12q3 0 10 7v159l-38 34q-25 24 -25 38q0 18 22.5 44
t42.5 26q5 0 8.5 -2t8.5 -2q16 0 28 29h18q5 0 42.5 -14.5t42.5 -14.5q14 0 21 4q27 -36 27 -53zM422 -212q-18 -8 -53 -28q-6 -3 -33 -3q-25 0 -49 6q11 9 14.5 27.5t9 25.5t21.5 14t25 7q5 0 27 -19q26 -23 38 -30zM274 -245h-32v8h32v-8zM43 496q-12 0 -21 2l-9 2l4 23
h14q12 -24 12 -27zM37 469h-7v18h7v-18z" />
    <glyph glyph-name="K" unicode="K" horiz-adv-x="645" 
d="M634 23q-18 -17 -39 -17q4 0 -37 4q-34 4 -52 0q-8 -1 -30 -7q-17 -5 -23 -5q-20 0 -113 26q-2 14 37 71q0 10 -11 20.5t-21 10.5q-1 21 -7 33q-10 20 -61 49q-47 26 -62 26q-9 0 -28 -28v-100q1 -1 1.5 -4t7.5 -3q5 0 8 4t8 4q6 0 8 -2t7 -2q19 0 19 25q0 6 -8.5 25
t-8.5 24q0 20 23 32q24 -10 34 -47l8 -56q11 -70 11 -79q0 -29 -12 -29q-6 0 -32 14.5t-32 14.5q-4 0 -26.5 -12.5t-28.5 -12.5q-5 0 -34.5 4t-34.5 4q-41 0 -55 -25q-9 10 -31 28q-13 3 -27 5q-24 6 -24 24q0 4 23 26q29 26 39 39q16 20 20 95q2 25 2 36q0 35 -7 53
q-11 28 -23 55l23 23q7 9 7 21q0 5 -7.5 23t-8.5 26q0 27 -7 79q-2 8 -17 31.5t-15 28.5q0 4 4.5 29t5.5 36q18 6 36 13q25 10 23 21q16 -16 26 -16q5 0 17 2t17 2q17 0 63 -13q50 -13 55 -22q2 -5 2 -16q0 -5 -17 -35.5t-17 -36.5q0 -19 14 -49q16 -33 35 -48q18 9 60 56
q48 53 48 77q0 5 -26 55q12 15 23 17q72 15 104 15q22 0 49 -10q35 -12 35 -30q0 -9 -10 -24q-21 -27 -24 -33q-2 0 -7 4t-11 4q-23 0 -69 -52q-36 -41 -47 -61q-5 -10 -5 -30q-19 -3 -38 -7q-25 -7 -25 -27q0 -56 94 -91q56 -17 113 -33v-23q-16 -15 -47 -45q10 -15 31 -41
q33 -36 111 -94q7 -6 12 -21.5t2 -27.5z" />
    <glyph glyph-name="L" unicode="L" horiz-adv-x="584" 
d="M503 416q0 -12 -29 -31t-39 -19q-6 0 -11.5 4t-6.5 4q-4 -3 -17 -29q-8 5 -15 10q-11 7 -17 7t-10.5 -4t-6.5 -4q5 42 4 57q2 1 15 1q4 0 17 13q20 20 62 43q8 4 18 24q4 -13 26 -26q0 -8 5 -26t5 -24zM469 382q-4 9 -4 16q14 -7 4 -16zM361 463h-20q6 11 20 5v-5z
M252 376q-4 -4 -21 -1t-22 -1q7 22 18 30zM449 175q0 -16 -7 -25q-3 6 7 25zM573 216q-9 -15 -11 -31l1 -19q1 -22 1 -41q0 -127 -58 -127q-44 0 -99 12q-64 14 -74 33q31 0 71.5 24t71.5 63q-7 7 -12 7q0 15 9 33q2 0 7.5 2t7.5 2q0 -13 3 -16q11 11 11 33q10 5 27 5
q23 0 16 38q11 -21 28 -18zM282 33q-22 -27 -91 -27q-4 0 -16 2t-18 2q-5 0 -46 -8.5t-46 -8.5q-22 0 -43 11q-37 18 -57 25q89 83 89 127q0 5 -4.5 23.5t-5.5 26.5q-1 5 -10.5 13t-9.5 13t21.5 114t21.5 114q0 18 -20 24q7 45 7 47q0 27 -22 27q-6 0 -16 -3v52q0 14 22 39
q9 10 56 10q52 0 158 -17q0 -2 2.5 -7.5t2.5 -11.5l-33.5 -41.5t-33.5 -63.5q1 -11 6.5 -37.5t5.5 -30.5q0 -3 -7 -62q-7 -64 -9 -93q1 -4 6 -13q1 -4 1 -8q0 -7 -5.5 -21.5t-5.5 -22.5q-6 -54 -6 -73q0 -41 27 -64q13 -11 65 -35q13 -6 14 -22zM265 -102q-6 -6 -8 -27
q-2 -17 -11 -17l-44 -4q0 2 -2 6.5t-2 10.5q0 5 10 27q14 31 16 36h15q9 -12 26 -32zM307 58l-20 -6v12zM334 3q-12 0 -21.5 2l-9.5 2l4 22h15q12 -24 12 -26zM328 -24h-7v18h7v-18z" />
    <glyph glyph-name="M" unicode="M" horiz-adv-x="1000" 
d="M993 449q-14 -24 -8 -47q-10 -5 -21 6v13q0 13 29 28zM1077 -192q-40 28 -117 89v15q16 4 55 -36zM976 511q-31 -44 -31 -59q0 -2 1 -10t1 -15v-15q-18 -6 -19.5 -9t-1.5 -15v-14q4 -8 25 -19q-6 -10 -20.5 -23.5t-21.5 -13.5q-3 0 -33 25q-3 1 -14 1q-21 0 -21 -15
q0 -19 22 -38q19 -16 43 -23q3 1 13 21q19 -9 22 -16q2 -2 2 -14q0 -36 -52 -56q-5 -2 -9.5 -11t-7.5 -11q-12 -5 -36 -18q-4 -5 -4 -14.5t-14 -18.5q15 -8 42 -28q0 -3 -4 -5q-7 -3 -8 -5q6 -9 42 -90q21 -49 55 -70l-14 -14q-4 -1 -12 7.5t-17 13.5q0 2 -5 13
q-7 16 -29 28.5t-35 12.5l-39 -8q0 2 1.5 6.5t1.5 7.5q-6 3 -32 3h-132q-39 0 -39 31q0 19 24 37q33 27 44 43q-12 11 -38 34q11 11 21 22q4 4 4 21q0 25 -17 52q-20 30 -46 30q-12 0 -25 -20q-10 -26 -32 -76q-11 -6 -27 -21q-13 -39 -26 -79q-25 -66 -53 -66q-47 0 -93 94
q-3 20 -16 55q-27 41 -53.5 83.5t-22.5 73.5q-5 7 -35 28q-3 0 -9 -7q-9 -61 -9 -111q0 -85 17 -120q3 -4 29 -27q21 -18 21 -37q0 -53 -126 -53q-5 0 -12 4.5t-12 4.5t-11.5 -6.5t-11.5 -6.5q-17 0 -36 14.5t-19 25.5q0 4 2.5 21t2.5 27q13 2 32 14t23 23q-1 12 1 38
q1 6 8 23t7 23q0 15 -11 32q-7 -9 -20 -22q-3 1 -11 6q8 12 20 31q5 10 7 25q7 5 18 17q14 38 14 82q0 15 -8 47q3 4 -7 4q-6 0 -41 -47q-20 8 -20 25q0 5 14 32q15 31 18 43q1 1 2 54q-52 26 -70 26q-7 0 -14 -2q0 5 -2 21.5t-2 23.5q25 13 66 47q16 30 49 89
q45 -51 76 -51q6 0 30 13t30 13q12 0 23 -17q19 -29 20 -30q2 0 9 5.5t10 6.5h20q-11 -9 -30 -27q15 -53 55 -66q-8 -26 -8 -50q0 -31 13 -42q21 -15 42 -31q0 2 -12 -14q0 -2 -2.5 -11t-2.5 -16q0 -15 32.5 -58t43.5 -43q7 0 24 16.5t21 28.5q5 14 -3 47q11 0 20.5 -1.5
t10.5 -1.5q7 7 7 12q0 4 -15 32.5t-16 41.5q-4 43 -30 71q-23 21 -46.5 42t-23.5 50q0 33 27 72q15 -8 70 -44q43 -28 49 -28q4 0 20.5 10.5t21.5 10.5t25 -8.5t26 -8.5q16 0 19 17q1 12 1 25q50 22 94 34l23 -6q-49 -9 -68 -26q6 -24 41 -32q27 -3 55 -7q13 0 37 -7
q6 -9 6 -24q0 -11 -5.5 -36.5t-5.5 -35.5q15 -12 58 -30q0 -3 -2 -12t-2 -13q-4 -3 6 -3q7 0 16 7l18 14zM676 -66q-14 -34 -39 -50q11 19 39 50zM643 299q-10 16 -33 40v-35q-1 -7 5 -13.5t10 -5.5q2 2 9 7t9 7zM-29 475q0 4 -5 12q-3 0 -1 -6q3 -6 6 -6z" />
    <glyph glyph-name="N" unicode="N" horiz-adv-x="694" 
d="M439 587l-31 -13l-2 18zM705 641q-21 -18 -59 -60q-11 -16 -22.5 -44.5t-11.5 -38.5q-2 -18 -11 -76q-6 -37 -6 -56q0 -35 17 -66q1 -1 11 -9q6 -4 6 -11q0 -5 -5.5 -12.5t-6.5 -10.5q-18 -68 -18 -114q0 -17 21 -38q-16 -8 -23 -40q-8 -40 -18 -54q-5 -8 -9 -17
q-8 -13 -15 -13q-42 0 -100 83q-34 51 -68 103q-51 56 -111 127q-6 7 -13.5 28.5t-10.5 26.5q-2 2 -20 9.5t-20 23.5h-16q-18 -10 -28 -52q-8 -33 -8 -62q0 -28 5 -78q1 -7 11 -20q14 -17 16 -22q40 -73 40 -100q0 -25 -35 -40q-25 -10 -45 -10q-5 0 -43 4t-44 4
q-16 0 -29 -13q-45 30 -45 45q0 5 11 42q11 41 16 42q1 1 2.5 -7t3.5 -8q2 1 5 7q4 26 13 62q1 3 3 3t4.5 -3.5t4.5 -3.5q2 1 3 4q12 30 17 44q2 4 -1.5 12.5t-4.5 11.5q-4 68 9 174q0 3 5.5 21.5t5.5 26.5q0 15 -9 51q-10 41 -20 41q-2 0 1 -17v-11q-16 20 -35 62.5
t-19 64.5q0 5 8 14.5t9 12.5q17 3 63 18q42 13 47 13q33 0 64 -18q36 -22 58 -59q5 -20 16 -55q29 -71 87 -115q17 -13 44 -47q22 -28 43 -57q4 -12 12 -30q1 -2 39 -54q27 16 27 45q0 2 -6 80q-8 83 -9 123q12 17 12 32t-11 30q-10 6 -31 22q-6 5 -12.5 29t-6.5 42
q0 6 1 11l15 13q5 -2 10 -2q19 0 35 18q14 15 17 30h19l10 -16q5 -9 12 -9q6 0 9 2t8 2q24 0 65 -38q36 -34 45 -53zM305 596q-12 0 -21.5 2l-9.5 2l5 22h14q12 -24 12 -26zM299 568h-7v19h7v-19zM641 194q-11 0 -20.5 2l-9.5 2l4 22h14q12 -23 12 -26zM635 167h-6v18h6v-18
zM614 122q12 0 21 -2l9 -2l-4 -22h-14q-12 24 -12 26zM620 150h7v-19h-7v19zM311 202q12 0 21 -2l9 -2l-4 -22h-14q-12 23 -12 26zM317 229h6v-18h-6v18z" />
    <glyph glyph-name="O" unicode="O" horiz-adv-x="764" 
d="M464 659h-11v6h11v-6zM744 126q-9 -9 -9 -17l-6 13q7 8 15 4zM743 327q-28 -63 -57 -126q-39 -76 -94 -133q-14 -8 -28 -17q-23 -16 -20 -37l-149 -9q-65 0 -117 13q-14 8 -42 20q-10 1 -27 3q-5 1 -16 5.5t-16 4.5t-14.5 -7.5t-14.5 -7.5q1 0 -57 23q-3 -3 -3 -19
q-11 10 -30 32q2 2 8 1q7 -3 11 -3q7 0 23 15.5t16 23.5q0 6 -8.5 16t-14.5 10q-5 0 -8 -1.5t-8 -1.5q-7 0 -21 9.5t-13 15.5q0 10 5 54q3 33 3 54q0 41 -11 74h-10q-15 -1 -73 -62q-13 13 -13 19q24 8 44 26.5t20 37.5q0 16 -22 22q10 27 43 60q30 30 60 61q4 3 4 19
q0 45 -7 112l-24 -12v41l13 13q8 -6 23 -16q8 48 3 77q27 -34 74 -101q3 -4 3 -9q0 -3 -2.5 -8t-2.5 -7q0 -4 9 -9q37 32 37 64q0 13 -7 25q19 -1 30 -8.5t13 -7.5q5 0 4 1.5t4 1.5t20 -6.5t22 -8.5q4 8 11 23q14 -8 24 -8q14 0 20 3l-11 -12q10 -12 19.5 -22.5t22.5 -10.5
q5 0 16.5 2t16.5 2t44 -9.5t44 -9.5q14 0 23 11q4 -11 17 -11q7 0 22 8q12 -16 22 -16q8 0 12 4q2 -8 10 -24q8 -10 38 -31q-1 -1 -10 -11.5t-9 -15.5q0 -3 21.5 -27t26.5 -38q14 -38 39 -156q7 -1 19 12zM376 544q-4 0 -9 5q-10 -4 -21 -13v-13h14q6 9 16 21zM332 495
l-5 -18q5 3 7 9q1 6 -2 9zM552 340q0 44 -15 68q-18 26 -64 48q0 2 1 14.5t1 22.5q0 52 -40 52q-8 0 -74 -42v-22q23 -7 23 -24q0 -6 -7 -16.5t-8 -15.5q-4 -23 -4 -81q0 -8 16 -46q19 -44 33 -44q5 0 7 2t7 2q21 0 21 -57q0 -21 -9 -59q-3 -13 -14 -41q2 1 10 6t13 5
q7 0 10 -3q0 14 18.5 31.5t19.5 19.5q4 25 15 72q1 1 25 12q0 11 1 28q3 21 3 25q11 -3 11 43zM353 330q-4 2 -12.5 8t-12.5 8q-2 -2 -4.5 -6.5t-4.5 -6.5q12 -13 29 -21zM368 105q2 16 -3 46q-7 42 -25 42q-5 0 -10.5 -2t-8.5 -2q-6 0 -18 10v22l13 3q9 -9 25 -16
q6 33 0 65q-7 -3 -12 -3q-19 0 -16 41q-25 16 -48 16q-22 0 -35 -24q-11 -20 -11 -45q0 -38 17 -61q21 -28 59.5 -66t44.5 -38q5 0 16 6t12 6zM331 247h-5l-5 13l6 2z" />
    <glyph glyph-name="P" unicode="P" horiz-adv-x="577" 
d="M594 456q-19 -24 -55 -62q7 -8 13 -20q-6 -16 -20 -42q-1 -3 -37 -33l-28 -37q-23 14 -46 29q-17 9 -32 9q-32 0 -82 -8q-58 -9 -63 -21q-13 -29 -13 -72q0 -21 5 -34t21 -23q-4 -7 -4 -17q0 -34 34 -39q6 2 8 -2q5 -21 10 -61q39 -33 45 -33q5 0 15.5 4t15.5 4
q29 0 50 -53q11 -32 22 -65q-13 0 -40 -9q-5 9 -22 25.5t-27 16.5q-6 0 -11 -1t-6 -1q3 3 12.5 9.5t13.5 10.5q-6 5 -11 5t-11 -5.5t-10 -5.5q-5 0 -18.5 11.5t-18.5 11.5q-6 0 -17 -12q-22 29 -64 53t-64 24q-5 0 -25 -11.5t-25 -11.5q-12 0 -37 30q-14 19 -28 37
q18 12 45 39q10 19 13 72l7 130q0 64 -11 143q-14 104 -37 128q-3 3 -7 31q-56 30 -66 30q-4 0 -9.5 -6t-9.5 -6h-32q-3 16 3 28q-6 3 -27 20q17 16 50 27q30 10 56 10q-5 0 38 -6q5 -5 17 -19q0 -1 -15 -16q11 -32 21 -32q9 0 25 11t25 27q10 -9 31 -31q16 6 18 26v36
q4 -3 17 -17q11 -10 16 -10q6 0 10 1.5t5 1.5q-4 -9 9.5 -25t23.5 -16q5 0 22 3.5t22 3.5q27 0 93 -24q63 -24 75 -35q19 -19 35 -60l20 -62q7 -17 16 -17q4 0 17.5 7.5t22.5 7.5q5 0 11 -2zM451 -159h-7v29h7v-29zM49 67h-7l-4 22h7zM369 423v29q2 54 -3 59q-8 -10 -19 -17
q0 9 1.5 24.5t1.5 18.5q-35 0 -52 4q-5 -8 -7 -31q-3 -17 -14 -24q5 -3 5 -9q0 -3 -2 -11t-2 -13q0 -24 46 -38q38 9 45 8zM92 442q-12 0 -21 2l-9 2l4 22h14q12 -24 12 -26zM86 414h-7v19h7v-19zM79 379q12 0 21 -2l9 -2l-4 -23h-14q-12 24 -12 27zM85 406h7v-18h-7v18z
M451 -159h-7v29h7v-29zM35 89h-7l-4 21h7zM86 414h-7v19h7v-19zM245 179q12 0 21 -2l9 -2l-4 -22h-14q-12 24 -12 26zM85 406h7v-18h-7v18z" />
    <glyph glyph-name="Q" unicode="Q" horiz-adv-x="777" 
d="M784 548q0 -9 -15 -32t-23 -30q-3 -3 16 -14q16 -10 13 -10q-5 0 -21.5 4t-21.5 4q-11 0 -22 -10t-11 -17q0 -1 10 -17q-3 -9 -3 -20t4.5 -30.5t4.5 -28.5q0 -7 -5 -36t-8 -36q-18 -38 -80 -113.5t-74 -75.5q-5 0 -7 2t-6 2q-19 0 -50 -41q16 -24 32 -24q9 0 18 9
q-2 2 -6 8.5t-5 8.5q6 -4 23 -18q13 -12 18 -12q9 0 9 7q15 -15 22 -15q6 0 30 15.5t56 15.5q56 0 56 -73q0 -21 -24 -46q-40 -41 -42 -45q-91 -20 -122 -20q-4 0 -26.5 7.5t-27.5 7.5q-4 0 -8 -2t-9 -2t-67 44t-100 44q-4 0 -37.5 -15t-38.5 -15q-9 0 -20 9.5t-11 23.5
l35 101q-5 12 -28 19q-33 11 -36 13q-11 5 -39 39q-7 2 -23 2q-35 42 -46 66q-7 21 -27 59q-15 -1 -39 2q1 2 10 11t9 15q0 31 -14 43q-2 0 -8 -3.5t-8 -3.5q0 1 -2 7t-2 11q0 33 9 76q34 15 77 87q32 52 45 89q1 1 22.5 16.5t62.5 36.5q40 11 121 19q60 6 80 6
q48 0 156 -36q7 -2 31 -17q21 -12 26 -12q9 0 18 18h18q6 -21 3 -51q8 -15 27 -20q32 -9 33 -10q3 -8 19 -22q4 5 9 10.5t5 12.5q11 0 13 8t5 8q5 0 -9.5 -6t-9.5 -6q1 0 36 11v-13zM526 59l-14 6q3 1 10 5q4 -7 4 -11zM473 539q3 27 -9 38q-20 17 -62 37q-37 17 -45 17
q-24 0 -70 -29q-9 -5 -16 -24q20 -7 26 -25q-26 -19 -45 -23v-29q10 -4 46 -24q28 -15 34 -15q15 0 22 19q-14 -7 -27 -1q-1 10 -9.5 31t-8.5 26q0 9 2 6h11q4 -3 7 -12q3 -14 4 -15h96q7 0 44 23zM550 360v75q-11 0 -17 -4q-4 6 -12 39q-5 23 -32 23q-5 0 -39.5 -9.5
t-39.5 -9.5q-22 0 -43 7q7 -16 4 -23q-1 0 -5 4t-9 4t-17.5 -6t-17.5 -6t-9.5 4t-9.5 4t-7 -4t-7 -4t-13 6q-12 9 -13 9q10 -15 27 -43q-32 -15 -65 -22q0 -16 19 -21v-30q-15 -11 -39 -55q1 -1 37 -13q23 -8 25 -17q-2 -1 -25 -11q-10 -4 -10 -20t5 -35q2 -7 42 -43
q44 -39 60 -39q6 0 8.5 4t5.5 8q19 -19 34 -19q19 0 55 16q41 19 49 38q5 18 17 42q23 23 28 72q2 34 3 67q1 1 6 3.5t5 8.5zM310 -28l-5 4l-9 -14l5 -4zM351 141q0 -3 -6 2t-9 11q15 0 15 -13z" />
    <glyph glyph-name="R" unicode="R" horiz-adv-x="612" 
d="M39 693q-8 -31 -8 -49q-3 -1 -10 3q-8 0 -6 -15q-9 6 -25 16q1 15 49 45zM575 396q-3 0 -6.5 -7.5t-8.5 -7.5t-8 4q-4 8 -8 11q-9 -5 -31 -29q9 -40 5 -50q-1 -4 -5.5 -9t-4.5 -8q0 -5 8 -13q-7 -4 -22 -14q0 12 1 24q-1 15 -16 15q-12 0 -25 -9.5t-13 -21.5
q0 -11 13 -21q-22 -6 -22 -19q0 -7 9.5 -16.5t18.5 -12.5q10 16 10 38q19 1 35 -4q5 9 4 23q21 -14 45 -20q-38 -67 -38 -102q0 -12 28.5 -33.5t28.5 -39.5q0 -4 -8.5 -17t-9.5 -19q1 -22 1 -62l-5.5 -5.5t-9.5 -3.5q-4 0 -10 4t-11 4q-12 0 -24 -15h-30q2 27 -9 50
q-4 10 -27 12q-1 10 -11 30q-110 110 -114 110t-26 -13l-35 -21q5 8 22 29q12 15 12 21q0 4 -14 21q4 3 4 15q0 36 -20 36q-14 0 -31 -17q15 -15 15 -27q0 -4 -11.5 -36t-11.5 -36q0 -8 23 -30.5t23 -25.5q0 -15 -28 -32q-21 -12 -42 -23q-10 -6 -15 -18q-57 23 -56 23
q-5 0 -31 -7.5t-31 -7.5q-8 0 -20 26q-10 23 -10 27q0 6 23.5 46t25.5 48q0 16 1 47q6 6 13 22q2 14 -2 43t-4 30l15 151q0 56 -40 108q-10 -8 -15 -19q-22 14 -63 36q11 2 34 12q-7 9 -19 26q1 3 6 10q4 -6 16 -19h11q4 0 4 8q-1 13 -1 12q5 3 17 9q1 10 10 36
q3 -12 20 -25.5t28 -13.5q10 0 21 12q5 -8 19 -23q7 6 21 29q10 17 16 17q4 0 9.5 -4t9.5 -4q13 0 23 11v10q7 -5 40 -32q25 -19 31 -19q11 0 19 15q18 -21 58 -23q49 -1 58 -5q25 -12 72 -80q0 -10 2 -27q2 -4 17 -25q12 -17 12 -28q0 -8 -7 -13q13 -14 31 -14q4 0 6 -2
q1 -1 5 1q-2 -8 4 -17t6 -16zM48 520q-2 -13 -7.5 -14.5t-10.5 -2.5q0 17 18 17zM489 360q0 8 -5 9q-16 -2 -41 -23q-21 -18 -31 -33q6 -5 20 -5q15 0 36 15.5t21 36.5zM382 479q-37 24 -37 47q0 4 2 7q-18 -8 -22 -7v-14q19 -18 9 -39q-6 4 -15 26q-26 -4 -45 14v15
q8 18 38 14v18q-60 12 -62 12q-22 0 -22 -29q0 -4 3.5 -16.5t3.5 -17.5q0 -11 -7 -36t-7 -27q0 -6 7 -25q8 -23 9 -29q4 2 18 12q9 7 14 7q8 0 16 -7q0 31 4 46q16 -15 45 -39q45 38 48 68zM266 527h-10v22h10v-22z" />
    <glyph glyph-name="S" unicode="S" horiz-adv-x="494" 
d="M410 626q0 -9 -10.5 -13t-21.5 -7h-20q9 6 4 12q0 19 -5 59q18 8 23 8q13 0 30 -8v-51zM333 636q-5 3 -6 9t2 6q4 -4 4 -15zM155 657q-33 10 -45 10q-5 0 -15 -7q-13 -9 -17 -11q4 2 -23 2q-36 0 -47 2q7 4 11 20q3 10 5 20q15 27 44 27q4 0 18 -5q5 -9 15 -21
q18 -9 54 -37zM436 -90q-15 17 -48 54v51l33 -1q17 -33 15 -104zM55 610q-14 -15 -18 -15q-9 0 -19 11q25 0 37 4zM478 131q-10 -36 -56 -79q-43 -35 -87 -71q0 -4 3 -13.5t3 -13.5q-7 0 -37 -7q2 4 11 31q-2 2 -93 2q-11 3 -56 16q-35 11 -40 11q-3 0 -82 -23
q-24 38 -24 131q0 76 32 96q9 -9 48 -66q29 -43 55 -57q1 0 7.5 -6.5t12.5 -6.5q5 0 13.5 3.5t12.5 3.5q20 -30 35 -30q4 0 12 2t13 2h25q3 9 -5 41q23 16 23 25q0 42 -99 99q-16 8 -108 52q-25 12 -62.5 78.5t-37.5 100.5q0 10 44 80q47 74 60 74q4 0 7.5 -2t9.5 -2
q3 0 25.5 9.5t32.5 10.5q12 20 25 41q18 30 37 30q5 0 28 -16l38 -28q-14 -8 -34 -26q38 -29 49 -29q10 0 17 15q7 -13 36 -30t37 -38q10 -1 14 12q4 10 3 18q13 -5 26 -16q-4 -8 -4 -29q0 -24 5 -32q10 -18 13 -28q-30 22 -43 22q-11 0 -20 -23q-5 -14 -10 -28.5t-22 -39.5
q-13 2 -36 27.5t-29 25.5q-4 0 -10 -3.5t-10 -3.5q-4 14 -12 40l15 4q-9 15 -25 24q-8 0 -6 -15q-1 0 -6 1.5t-10 1.5q-21 0 -29 -18q-5 -13 -9 -26q-17 -29 -17 -31q0 -28 29 -37q19 -3 38 -7q11 -6 16 -6q16 0 16 16q0 8 -4 19l-4 10h18q3 -5 7 -44q-3 0 -18 -7
q8 -20 41 -36q30 -14 50 -14q11 0 24.5 15t14.5 26q22 -18 27 -75q6 -64 23 -89q4 -5 1 -23q-3 -15 -7 -31q-2 -13 8 -13q5 0 7.5 1.5t3.5 1.5z" />
    <glyph glyph-name="T" unicode="T" horiz-adv-x="652" 
d="M302 783q0 -3 -6 -4t-9 4h15zM647 490q0 -39 -9 -51q-7 -8 -22.5 -15.5t-23.5 -7.5q-4 0 -7 1q-22 27 -44 53q-32 37 -49 37q-10 0 -17 -8q-27 31 -33 31q-17 0 -29 -16q-8 -12 -8 -22q0 -5 13 -28.5t13 -28.5q0 -13 -6 -19q-3 4 -9 4q-11 0 -19 -14.5t-8 -19.5t10 -27
q12 -26 15 -35q2 -5 1 -39q-1 -25 14 -32q7 7 24 7q0 -14 -2 -23.5l-2 -9.5h-13q-5 11 -15 22q-16 -10 -16 -39q0 -11 4 -26q7 -18 16 -18q6 0 11 1.5t6 1.5q0 -1 4 -5t4 -9q0 -9 -5 -15q1 0 -22 -1q-15 0 -21 8q-16 -11 -16 -27q0 -1 4 -24q3 -13 22 -29t29 -16q9 -6 9 -20
q0 -9 -30 -24q-26 -14 -32 -14q-13 -1 -38 -3q-3 0 -11.5 -5t-13.5 -5q-20 0 -65 16.5t-56 30.5q2 18 23.5 53t21.5 54q0 23 -11 52q-14 39 -38 49q11 19 29 55q9 20 9 46q0 28 -23 62q0 -3 10 13q5 41 5 35q0 3 -2.5 30t-2.5 40q0 10 -9 16q-40 5 -35 5q-54 0 -69 -30
q-17 -45 -35 -91q-11 11 -47 16q-29 4 -42 31h-5q6 15 27 106q-2 2 -7 1l-7 -2v33q3 0 20 -18q6 13 12.5 27.5t12.5 14.5q4 0 4.5 -2t4.5 -2q11 0 23 28q10 24 10 32q1 0 9.5 2t16.5 2q6 -6 6 -15q0 -5 -3 -16t-2 -15l9 -11q40 46 49 46q4 0 8 -6t7 -9q6 3 14 26h12
q5 0 13 -7t11 -8h10q6 6 6 9q0 -1 -14 28q4 -2 47 -32q19 -13 35 -13q12 0 23 7q-2 5 -3.5 17t-3.5 18q6 -2 17.5 -5.5t17.5 -5.5l6 6q-10 10 -10 28q0 2 5 40q-2 10 -1 27q4 14 22 50h14q2 -7 23 -28q-6 -9 -7 -32q-1 -26 -2 -29q-7 -15 -20 -46q1 -5 1 -15q0 -1 -13 -30
q0 -2 1 -16q2 -12 -5 -14q13 -17 30 -17q5 0 23 15t23 15q4 0 26 -17t36 -17q4 0 13 2t14 2q39 0 72 -51q28 -45 28 -76zM196 494q-1 -3 -6 -10q-4 5 -16 5v14q5 0 22 -9z" />
    <glyph glyph-name="U" unicode="U" horiz-adv-x="691" 
d="M494 321h-31l15 36h7zM661 107q0 -2 -9 -14t-9 -18q0 -5 6 -18q8 -17 9 -20q-2 -2 -6.5 -4.5t-6.5 -4.5q-2 1 -24 19q-16 13 -25 13q-3 0 -6 -1v25q10 0 17 -7q6 6 6 11q0 3 -4 9t-4 10q1 0 12 7q7 5 12 5q6 0 17.5 -5.5t14.5 -6.5zM700 716q0 -11 -16 -24t-18 -22
q3 -21 -2 -61q-17 -36 -34 -73q-10 -28 -10 -80q0 -4 5 -44q7 -46 9 -63q3 -35 -3 -103q0 -7 12 -19q-7 -5 -19 -16q-17 -36 -61 -102q-11 -1 -27 -6q-8 -5 -15.5 -21.5t-12.5 -21.5q-31 -18 -62 -37q-45 -27 -50 -55q-60 -8 -103 -8q1 -21 -4 -37q-10 -26 -51 -46
q-1 -10 -6 -27q-3 1 -10 6q4 2 11 11l-3 6q-6 2 -22 -1t-18 -3q-11 0 -20 26q-6 17 -11 35h-10q-11 -19 -29 -19q-5 0 -30.5 11t-30.5 11q-9 0 -21 -11q-5 6 -17 16l15 31q0 4 -10 14q-5 -8 -17 -26h-5q1 5 1 10q0 25 -28 20q8 23 24 45q5 -5 4 -19.5t7 -22.5q17 11 17 48
q0 31 -19 31q-5 0 -11 -3v14q6 16 22 16q10 0 21 -11l25 25q-4 13 -26 18q-13 48 -41 80q-8 16 -24 47q6 6 11 37q5 26 20 30q33 10 51 9h12q5 -14 10 -29q8 -20 27 -35q14 8 14 25q0 9 -5 27.5t-5 26.5q0 6 2 11l7 6t7 10q0 5 -25.5 71t-25.5 71q0 4 24.5 -23t25.5 -25
q2 2 2 6q0 6 -5 18.5t-5 16.5q0 38 -26 64.5t-26 35.5q0 17 89 48q-25 -29 -41 -55q41 35 89 73q-2 -7 -5 -13q-8 -13 -17 -26q-3 -7 -5 -13q18 4 48 29.5t29 25.5q15 6 27 6q22 0 36 -32.5t25 -32.5q-10 -10 -32 -33q-15 -13 -36 -42q-13 -39 -13 -128q0 -35 16 -85
q1 -4 11 -10.5t13 -11.5q6 -14 15 -51q0 2 -8 10q-8 -3 -10 -13q-2 -7 0 -20q2 -16 2 -19q-9 -11 -9 -30q0 -24 45 -45q36 -17 50 -17q4 0 10 2t11 2q11 0 27 -16q11 7 17 28q-4 2 -11 1q-10 -2 -12 -2q-17 0 -25 9l-24 30q-2 11 17 18q2 -10 11 -31q31 16 43 16q5 0 9 -5
q6 -8 9 -10q24 8 24 22q0 9 -34 43q-1 12 13 25q2 0 20 -19h13q4 6 -4 30q6 3 23 5q7 9 18 43q12 40 12 65q0 36 -8 84q-9 59 -24 81q-4 7 -31 30q-21 18 -21 34q0 33 42 49q1 0 -11 26q30 -14 32 -14q5 0 18 9.5t18 9.5q4 0 22.5 -11.5t22.5 -11.5q20 0 35 10q0 12 -11 27
q2 -2 6 -2q8 0 26.5 13.5t25.5 15.5q6 -5 6 -13zM32 112q-6 0 -18 12v14q7 -4 18 -26zM11 -131q3 0 6 -10t0 -15l-30 7q10 11 24 18zM120 161v14q-8 9 -38 13q-26 4 -31 16q8 7 8 16q-12 8 -32 28q-5 -11 -13 -29q6 -4 53 -54q-5 -16 24 -16q19 0 29 12zM271 11
q-14 14 -47 18q-38 4 -46 8t-23.5 29t-30.5 30v-20q0 -4 6 -12q10 -9 11 -12q1 -4 0 -14q-2 -11 -2 -13q73 -27 98 -27q21 0 34 13zM135 0q-2 0 -9.5 2.5t-9.5 2.5q0 -7 4 -14q5 0 15 9z" />
    <glyph glyph-name="V" unicode="V" horiz-adv-x="540" 
d="M51 733q-2 2 -5 7t-5 7q10 0 10 3v-17zM206 570q13 -2 13 -5q0 -2 -17 -10q-3 3 -1 9t5 6zM324 407q-26 30 -43 68q14 -11 28 -30q18 -25 15 -38zM257 355h-14q-15 12 -15 21q9 0 29 -21zM542 599q0 -5 -20 -35q-25 -38 -29 -46q0 -10 -6 -27q-40 -53 -40 -69
q0 -6 12.5 -18t19.5 -12q6 0 9 1.5t4 1.5q-25 -23 -71 -46q-23 -12 -23 -37q0 -16 6 -17q11 -4 16 -11q-1 -2 -26 -19q0 -2 7.5 -7t7.5 -10q0 -3 -5 -12.5t-5 -16.5q0 -6 2 -12q-3 0 -13 3.5t-15 3.5q-12 0 -21 -22q-7 -18 -7 -27q0 -39 16 -77q6 -15 52 -49q-21 10 -52 19
h-18l-6 -6q5 -14 24 -37q23 -29 38 -29q5 0 8.5 2t9.5 2t17 -11q6 3 16 3q0 -2 2 -8.5t2 -7.5q-135 -15 -171 -15q-24 0 -24 6q0 3 10 9q8 13 8 20q6 0 16 -11q2 2 5 6.5t5 6.5q-2 2 -22 39q-14 3 -38 14q-9 8 -28 34t-33 35q-31 21 -62 41q-36 28 -63 68q3 -1 5 -1
q8 0 11.5 16t7.5 16t14.5 -35t15 -35t8 -6t8.5 -6q17 0 32 14q7 26 -44 68q1 20 1 60q-7 8 -71 38q1 2 10 12t9 15q0 -9 -13 83q-1 11 -24 26q-30 20 -31 21h24q1 1 3.5 2t2.5 6t-24.5 43t-24.5 43q0 10 27 42l36 42q6 8 6 39q13 -23 48 -64q4 -4 23 -7t26 -7q13 -7 29 -22
q21 -20 21 -31q0 -5 -11.5 -27.5t-11.5 -27.5q0 3 18 -70q-3 -9 -6 -26q1 -3 20 -26q4 -4 4 -16.5t3 -18.5q8 -17 36 -87q12 -32 45 -78q9 4 9 23q0 4 -11.5 31.5t-11.5 32.5q0 8 10 45q2 -5 19 -22q15 8 31 59q0 15 10 39q37 40 41 46q14 21 14 53q0 17 -20.5 42t-20.5 37
q0 14 8.5 24.5t21.5 10.5q5 0 8.5 -2t8.5 -2q30 0 38 15q2 -2 7.5 -6t7.5 -5l11 11q17 -13 50 -25q21 -7 21 -22zM480 130q-8 -26 -28 -79q-4 48 28 79zM447 27q-13 -14 -18 -14v14h18zM69 105q0 -8 -30 -28q8 33 25 49q0 -1 2.5 -8t2.5 -13zM441 370v25h-7v-25h7z" />
    <glyph glyph-name="W" unicode="W" horiz-adv-x="904" 
d="M315 500q-2 -2 -7.5 -9.5t-7.5 -9.5l-6 15q10 9 21 4zM924 618q0 -5 -30 -35q-36 -37 -47 -52q-7 -9 -12 -31q-7 -28 -11 -38q-11 -12 -26 -37q-16 -41 -50 -160q-35 -125 -56 -183q-1 -8 11 -11q-14 -11 -36 -34q0 -9 -7 -25q-3 -3 -23.5 -11t-24.5 -18q-39 29 -69 81
q-4 7 -6 24t-5 25q-4 20 -9 40q-6 29 -16 39q-1 7 4.5 30.5t10.5 29.5l-1 1q-4 0 -24.5 -28t-25.5 -28q-2 0 -3 1q-7 -2 -7 10q0 16 12 48q5 10 10 19q-6 3 -11 12.5t-13 17.5q-5 -7 -25.5 -51.5t-19.5 -47t-1 -19t-4 -22.5q-7 -15 -20 -15q-7 -41 -16 -89l-1 -2q-2 0 -3 22
q-1 19 -2 16q-23 -14 -37.5 -38t-28.5 -48h-12q-31 0 -42 17q-4 6 -27 63q-18 45 -43 66q-11 9 -33 19q-36 17 -38 18h30l3 4v28q-5 7 -20 7q12 59 12 60q0 22 -22 59q-30 51 -38 73q-7 34 -27 98q-4 8 -32 47q-24 35 -24 42q0 22 54 44q44 17 58 17q4 0 19 -6t20 -6
q6 0 25 10t24 10q19 0 36 -24t17 -35q0 -5 -9 -17q-13 -17 -15 -21q-8 -15 -8 -48q0 -43 23.5 -127t39.5 -97q4 -15 8 -29q11 -27 33 -27q13 0 25 32q9 26 9 38q0 9 -10.5 21t-16.5 14q-9 0 -26 3q10 6 31 19q16 -24 32 -29q0 15 -9 23q7 8 18 29q36 117 36 124
q0 19 -24.5 47.5t-24.5 36.5q0 7 16 27t23 20q5 0 13.5 -4t13.5 -4t11 6t11 6q4 0 20 -11q4 -1 27 -1q40 0 83 12q18 -26 18 -45q0 -5 -16.5 -44t-16.5 -44q0 -35 35 -105q3 -16 11 -50q4 -17 24 -39.5t39 -44.5h11q13 16 34 72q4 11 -2 33q24 10 43 57q17 43 17 75
q0 14 -8 36q-11 28 -24 30v56q9 6 26 12q71 5 111 5q20 0 35.5 -17t15.5 -34zM251 519h-6l-5 13l6 3zM260 -34q7 -14 0 -28q-10 12 -31 23q20 0 31 5zM130 -58h-43l59 74l-24 -57z" />
    <glyph glyph-name="X" unicode="X" horiz-adv-x="615" 
d="M408 713q-4 -4 -11 -4q0 1 -2.5 4.5t-2.5 8.5q0 10 12 10q0 -2 2 -9.5t2 -9.5zM338 483q-1 -13 11 -24q20 7 35.5 31t15.5 42q0 21 -28 68q35 19 43 55q6 26 11 53q8 -3 26 -20q9 5 19 24q16 -7 17.5 -20t2.5 -26q31 -13 61 -27q53 -25 53 -47q0 -5 -7 -17
q-7 -5 -32.5 -9.5t-35.5 -9.5q-1 -13 -22 -45q-3 -4 -14 -32q-10 -24 -15 -24q-2 0 -5.5 2t-5.5 2t-4 -2q-25 -36 -33 -66q-1 -4 -3 -4q-1 0 -12 19l-18 -24q-17 -24 -17 -30q0 -7 14 -27q23 -34 30 -45q11 -28 24 -60q3 17 3 18q17 -36 24 -36q1 0 9 -30t6 -32q-1 3 -3 6
q1 9 5 22t6 13q3 0 7 -6q24 -41 49 -83q6 -5 29 -16t33 -23l-5 -43q-85 -23 -130 -23q-33 0 -39 6q-17 -17 -15 -24q-8 2 -21 28.5t-20 31.5q-10 6 -20 51q-9 42 -14 42t-26.5 28t-26.5 28q-7 0 -7 -13q0 -24 21.5 -84t21.5 -49q0 3 -34 38t-34 45q0 2 1 3q-2 13 -19.5 21.5
t-31.5 8.5q-30 0 -30 -47q0 -5 8 -37.5t8 -37.5q0 -6 -2.5 -9t-2.5 -7q-25 -2 -74 -10l-7.5 -7.5t-13.5 -7.5q-26 0 -116 29q-3 27 28.5 71.5t65.5 63.5q8 4 60 64q4 5 16 32q7 25 27 75h14q2 -6 12 -21q3 0 8 10t5 17q0 5 -20 41q-8 26 -21 60q1 -26 -3 -45q-9 28 -27 69
q-8 16 -27 45q-14 17 -33 25q-23 10 -24 11q1 30 -20 48q-13 11 -39 21q-22 7 -22 11q0 22 54 44q44 17 58 17q2 0 2 -2t-7 -15.5t-7 -16.5q0 -2 2 -2q6 0 49.5 22t48.5 22q19 0 36 -24t17 -35q0 -5 -11 -17q-14 -14 -17 -19q-4 -8 25 -26t29 -22q0 -20 19 -38t42 -18
q5 0 10 1zM251 519h-6l-5 13l6 3z" />
    <glyph glyph-name="Y" unicode="Y" horiz-adv-x="615" 
d="M622 626q0 -2 -2 -9.5t-2 -9.5q-22 0 -32 -8.5t-8 -8.5q-5 0 -4 2t-4 2q-7 0 -39 -40q-64 -79 -98 -192q-6 -3 -18 -16q-25 -52 -25 -73q0 -17 17.5 -40t37.5 -23q12 0 26 7q-5 -6 -40 -34q-25 -21 -25 -27q0 -11 11.5 -20.5t23.5 -18.5q1 -7 5.5 -29t4.5 -28
q0 -3 -28 -71l-16 28q-11 17 -27 17q-25 0 -48 -11v-20q10 -10 17 -10l20 3l-8 -9q9 -14 33 -37q-23 -6 -53 -21q0 -6 8 -6v-19l-10 -9q-16 19 -42 58q-6 22 -19 65q-1 1 -50 20q-30 12 -30 35q0 4 16.5 37t16.5 38q0 24 -16 48q-8 1 -16 3q-12 3 -17 14q28 -3 42 27
q10 24 19 49q-7 7 -10 7q-4 -4 -4 -21q-27 17 -32 57q-3 31 -5 63q0 3 -17 28l-45 65q-32 40 -59 58q8 11 8 20q0 27 -89 45v54q-1 5 19.5 20t25.5 23q8 0 14 -12q23 12 49 12q5 0 25.5 -6t25.5 -6q16 0 40 8q1 -24 32 -36l50 -18q-16 -42 -16 -56q0 -41 36 -104
q13 -23 61 -93q9 4 20 20q10 13 44 73q43 75 43 89q0 5 -20 29t-20 31q0 49 112 49q43 0 49 -2q12 -3 25.5 -12.5t13.5 -16.5q0 -6 -7 -15t-14 -17q3 -3 9 -1q11 2 15 2z" />
    <glyph glyph-name="Z" unicode="Z" horiz-adv-x="627" 
d="M27 242h12l6 -32l-18 17v15zM618 -81q3 4 34 18.5t39 14.5q3 0 13 -18t24 -24h-14q-4 0 -41 4.5t-55 4.5zM-14 11q12 22 12 56l20 2q13 1 22 -1q16 46 102 147q91 106 111 151q2 7 26 29q21 19 21 32q0 11 -36 21q-23 7 -46 13h112q39 0 75 56q30 48 30 75q0 25 -25 39
q12 27 23 27q5 0 5 -4t5 -4t21.5 10t21.5 10h45q27 0 49 -19t22 -48q0 -37 -39 -81l-74 -72q-2 -7 7 -24q-18 -10 -8 -37q-21 -7 -54 -26q-6 -15 -25 -42q-15 -9 -38 -30q-20 -29 -51.5 -89.5t-31.5 -68.5q0 -26 48 -38q28 -7 56 -7q41 0 65 25l42 48q30 28 86 33
q21 -19 21 -55q0 -4 -1 -11v-11q0 -20 6.5 -29.5t26 -16.5t34.5 -7q4 0 11 4t11 4q11 0 60 -39q-17 -10 -31 -10q-5 0 -49 10t-49 10t-67.5 -20.5t-67.5 -20.5t-24 8.5t-23 8.5q-5 0 -30.5 -6t-30.5 -6q8 0 -31 2q-28 1 -46 -1v16q-6 3 -23 3q-83 0 -118 -13q-14 -5 -61 -52
h-15q1 4 1 9q0 14 -8.5 33t-11.5 19q-5 0 -5 -2v0q0 -2 -5 -2q-11 0 -16.5 8t-10.5 16q-28 -18 -46 -32zM-27 516q42 32 60 74q12 33 23 67q6 13 25 13q21 0 49 -20q38 -28 39.5 -28.5t26.5 -0.5q5 0 19 2t20 2q4 0 17.5 -6t18.5 -6t42 20.5t42 20.5q4 0 11.5 -10.5
t13.5 -10.5q4 0 12 8q3 -2 10 -31q-44 -17 -124 -32q-25 -4 -51 -7q-38 -9 -62 -38q4 -10 20 -15q0 -3 -1 -11q-17 -13 -41 -13q-5 0 -9 2t-10 2q-4 0 -15.5 -16t-18.5 -19q-20 -9 -57 -18q-47 -11 -59 -15q10 9 27 31q1 1 1 23q0 35 -15 35q-6 0 -9.5 -1.5t-4.5 -1.5z" />
    <glyph glyph-name="bracketleft" unicode="[" horiz-adv-x="360" 
d="M16 19q8 0 20 13v15q-8 -4 -20 -28zM18 691q0 -3 24 -43q26 -43 30 -63q10 -41 10 -196q0 -291 -49 -445q-4 -11 -3 -33l2 -36q3 6 8 6q7 0 20 -11t17 -11q64 0 87 -10q3 -1 43 -1q6 0 24 1.5t23 1.5q8 0 23 -3.5t21 -3.5q24 0 24 48q0 5 2.5 19t2.5 20q0 23 -27 23
q-14 0 -29 -14.5t-34 -14.5q-56 0 -56 21q0 24 12 22q-22 17 -22 28q0 4 4.5 12t4.5 14t-3 13v44q-1 44 -1 49q0 12 -6 33q1 -2 4 15t3 23v147q0 6 -5 16t-5 17q6 15 11 43q1 154 5 261q5 6 29 6q11 0 36 -1.5t35 -1.5q28 0 28 10q0 6 6.5 33t6.5 39q0 19 -13 19
q-5 0 -48.5 -15t-48.5 -15q-60 0 -65 12h3q-6 0 -42.5 -5t-41.5 -5q-14 0 -21 4q-9 -11 -19 -37t-10 -35zM148 531q15 0 13 63t-3 63l-5 23h-14q-2 -5 3 -75q6 -77 6 -74zM69 -40l28 64l-5 45h-7z" />
    <glyph glyph-name="backslash" unicode="\" horiz-adv-x="276" 
d="M54 498q2 -7 0 -36q-1 -17 19 -36q28 -28 41 -84q1 -32 4 -89q1 -7 16 -17t15 -18q-5 -17 -8 -43q12 -16 27 -42l14 -16q-9 -8 -22 -5q7 -11 13 -25q11 -11 25 -31q6 -16 1 -45l46 -27l37 63q-3 7 -17 36q-1 2 -8 1t-8 2q-1 18 -5 47q-12 30 -17 51l-26 16q1 1 1 6
t-1.5 16.5t-1.5 15.5q0 5 2 6q-17 16 -21.5 29.5t-7 36.5t-2.5 24v46q-23 22 -25 35t-5 29q-1 4 3 22q-4 8 -8 22q-3 10 -6 39q0 3 -13 21.5t-13 23.5q0 4 5 4q-8 5 -2 21q8 22 8 27q0 12 -11 19q-7 -8 -23 -18q-3 -1 -43 11q1 10 9 22t14 13q5 1 14 -2.5t13 -2.5
q19 5 35 22q-4 6 -9 16q-20 -9 -50 -20v1q-9 -3 -19 4q-1 5 7.5 15t7.5 14q-1 6 -8.5 13t-8.5 8q-8 -11 -8 -23v-10q1 -6 1 -9q0 -15 -11 -27q-3 -3 6.5 -11t6.5 -13q-2 -2 -2 -3q0 2 7 -5q-1 -1 -5 -2q5 -15 -6 -18q-7 -2 -27 9l5 -38l12 -16q20 -13 25 -31q1 -5 4 -22
t4 -22z" />
    <glyph glyph-name="bracketright" unicode="]" horiz-adv-x="393" 
d="M370 712q-8 0 -20 13v15q8 -4 20 -28zM328 696q0 -2 -24.5 -44t-29.5 -62q-9 -40 -9 -196q0 -290 49 -445q4 -11 2 -32l-2 -36q-36 61 -53 61q-4 0 -34 -41t-45 -46q-3 -2 -43 -2q-5 0 -23 1.5t-23 1.5q-9 0 -24 -3.5t-20 -3.5q-24 0 -24 48q0 6 -2.5 19.5t-2.5 20.5
q0 22 26 22q15 0 30 -14.5t34 -14.5q56 0 56 22q0 17 -25 13q26 22 26 38q0 3 -1 9t-1 9q0 10 5 20q0 430 -7 649q-5 6 -27 6q-11 0 -38 -2.5t-37 -2.5q-26 0 -26 10q0 7 -6 34t-6 38q0 19 12 19q5 0 48.5 -15t49.5 -15q59 0 64 12h-2q5 0 41.5 -4.5t41.5 -4.5q14 0 22 4
q9 -12 18.5 -38t9.5 -35zM297 -142l-57 12v8l30 26zM237 437q-16 0 -14 63q3 64 4 64l4 22h14q3 -5 -2 -74q-6 -78 -6 -75zM335 -22l-15 15v18h6z" />
    <glyph glyph-name="asciicircum" unicode="^" horiz-adv-x="463" 
d="M356 723q5 -7 4 -8q-5 -1 -9.5 -2.5t-17.5 -0.5q-17 15 -32 19q-6 2 -12 3q-6 8 -22 18q-6 2 -12 5l-11 2q-5 0 -11 2q-3 6 -9 16q-5 -4 -10 -5.5l-10 -3t-10 -9.5q-1 1 -15 -6l-2 11l-10 -24q-12 -11 -18 -11q-4 0 -4.5 5.5t-1.5 4.5q-15 -5 -30 -18q-1 1 -19 -13
q-4 -7 -21 11l25 17l-6 3l25 14l17 22q12 16 19 17l21 19l-10 2l28 14l15 14q8 6 19 1h2l27 -22l4 -9l15 -6l18 -12q9 -5 3 -25l28 -12l4 -12l17 -6z" />
    <glyph glyph-name="underscore" unicode="_" horiz-adv-x="544" 
d="M-1 -103h545v-55h-545v55z" />
    <glyph glyph-name="grave" unicode="`" horiz-adv-x="299" 
d="M169 724q19 -10 52 -28q8 0 12.5 7.5t1.5 14.5q-5 10 -46 64q-44 58 -59 70q-11 9 -16 11q-9 2 -34 -1q-31 -35 -31 -43q0 -2 3 -2l39 -31q1 -2 38.5 -31t39.5 -31zM67 776q-9 10 -22 20l-13 -18z" />
    <glyph glyph-name="a" unicode="a" horiz-adv-x="410" 
d="M148 464q-34 0 -26 0q-20 1 -26 13q31 8 28 8q7 0 12.5 -7t11.5 -14zM371 237q-28 -23 -29 -87q-2 -16 -3 -32q-2 -28 1 -36q0 -1 19 -29.5t19 -38.5q0 -8 -9 -8q-5 0 -37 16t-37 16q-11 0 -30 -21q-4 -1 -11.5 6t-13.5 7q-5 0 -22.5 -12t-22.5 -14q-44 -14 -80 -14
q-54 0 -84 36q-28 33 -28 82q0 3 5 39.5t5 54.5q23 1 67 14q9 5 57 35q31 19 52 25q13 3 28 24q5 8 5 23q0 18 -8 26q-15 11 -29 22q-19 -14 -48 -58q-19 -29 -48 -29q-23 0 -43.5 22t-20.5 43q0 9 15.5 39t29.5 42q18 16 56 16q6 0 22 -9t22 -9q5 0 27 11t28 11
q5 0 31.5 -11t31.5 -11q6 0 9 2t9 2q16 0 37 -35q16 -28 18 -41q2 -15 -2 -40q-4 -29 -4 -39q0 -16 16 -40zM22 248l-20 -17l-13 17l4 6zM222 165q0 11 -6 18q-22 -15 -47 -38t-25 -31v-27q4 0 15.5 -4.5t16.5 -4.5q10 0 28 39t18 48z" />
    <glyph glyph-name="b" unicode="b" horiz-adv-x="521" 
d="M486 211q0 -91 -66.5 -158t-156.5 -67q-5 0 -36 8.5t-36 8.5q-19 0 -128 -22q-18 16 -24 49l-8 50l4 298q0 2 1.5 10t1.5 13q0 22 -20 32q17 57 17 94q0 1 -3.5 24t-2.5 36q-2 5 -17.5 19t-15.5 21q0 42 125 42q31 0 80 -45q-35 -106 -35 -124q0 -24 15 -55
q19 -39 47 -39q5 0 12.5 4.5t13.5 4.5q79 0 152 -58q80 -63 80 -146zM346 229q0 53 -20 76.5t-97 52.5q-63 -95 -71 -158q6 -45 11 -91q11 -51 57 -83q70 6 100 82q20 50 20 121z" />
    <glyph glyph-name="c" unicode="c" horiz-adv-x="490" 
d="M453 179q-2 0 -10.5 2t-10.5 2q0 4 6.5 10.5t9.5 6.5zM462 365q0 -26 -36 -43q-28 -12 -47 -12q-13 0 -49 32.5t-54 32.5q-21 0 -42 -20v-12q11 -9 14 -9q-13 1 -15 -15q0 -11 -1 -22q-20 -4 -32 -31q-9 -22 -9 -46q0 -41 9 -69q3 -7 15.5 -18t17.5 -17l2 -22
q11 -12 32 -12q35 0 75 22t52 22q13 0 27.5 -13.5t14.5 -26.5q0 -8 -7 -23t-16 -19q-31 -15 -90 -33q-54 -17 -64 -17q-12 0 -64 19q-61 22 -95 44q-21 13 -96 114q-1 5 2 15t4 12q1 11 -11 85q22 0 33 27q9 23 6 46q5 6 22 6q6 11 -4 31q5 -6 12 -1q-8 13 -21 39
q12 0 28.5 14.5t15.5 30.5q12 -5 46 -10q2 -2 5 -16q2 -9 16 -9q5 0 19.5 2.5t20.5 2.5h71q6 0 34.5 6.5t33.5 6.5q14 0 53 -6q13 -2 24 -14q16 -18 32 -35q16 -20 16 -39z" />
    <glyph glyph-name="d" unicode="d" horiz-adv-x="546" 
d="M516 -5q-3 -1 -58 -11q-33 -5 -35 -33h-60q0 5 13 28q-9 17 -36 20h-43q-5 0 -36 -2.5t-36 -2.5q-4 0 -111 14q0 7 -2 23q-12 14 -33 12q0 2 1.5 9.5t1.5 12.5t-7.5 17t-8.5 15q-18 49 -21 54q-15 32 -35 47t-49 16v25q11 -6 31 -17q3 2 1 4q-3 4 -3 9q0 4 32 74
q130 137 157 137q4 0 15.5 -7t17.5 -7q5 0 35.5 11t36.5 11q4 0 17.5 -6.5t19.5 -6.5q33 0 33 42q0 26 -6 58q-7 38 -15.5 44.5t-47.5 24.5q-19 9 -19 30q0 29 24 36q64 19 132 19q55 0 55 -63v-110l-3 -21q-3 -17 -1 -31q12 -81 12 -96v-233q0 -6 15.5 -46t15.5 -45v-55z
M502 -51l-33 5v7l33 -5v-7zM358 255q0 25 -24 71q-30 58 -68 58q-18 0 -25 -6q-10 -15 -28 -38q-24 -29 -33 -62q2 -14 2 -40q-1 -4 -6.5 -14t-5.5 -15q0 -25 95 -118q-5 36 18 46q9 -2 28 0q25 3 29 3q2 17 10 66q8 45 8 49z" />
    <glyph glyph-name="e" unicode="e" horiz-adv-x="435" 
d="M388 583l-23 -14l12 34q15 -8 11 -20zM411 262q-45 -40 -75 -40q-5 0 -31.5 6.5t-31.5 6.5q-116 0 -116 -54q0 -25 43 -70.5t62 -45.5q5 0 47 21.5t48 21.5h36q0 -1 2.5 -9.5t2.5 -14.5q0 -26 -33.5 -55t-69.5 -36q-3 -1 -11 -8.5t-13 -7.5q2 0 -78 20q-17 2 -35 4
q-27 3 -40 13q-70 51 -88 78q-22 32 -22 95q0 101 36 191q17 41 55 54q35 5 70 11q41 7 60 33q51 -24 103 -49q71 -41 77 -93q2 -13 2 -72zM308 311q0 3 -27 33l-41 18q-29 -10 -60 -21q-22 -17 -22 -31q0 -11 12 -17.5t22 -6.5q4 0 3 1l30 18q0 -2 33 -18q47 4 47 6
t1.5 9.5t1.5 8.5z" />
    <glyph glyph-name="f" unicode="f" horiz-adv-x="370" 
d="M104 709l-4 -4l-10 10l4 4zM8 698h-16v11h16v-11zM-17 709q0 -3 -6 -5q-7 -1 -10 5h16zM392 588q0 -18 -25 -39t-41 -21q-5 0 -39 14.5t-39 14.5q-41 0 -41 -72q0 -44 22 -62q6 -5 42 -19q22 -8 22 -29q0 -23 -40 -45l-54 -28q0 -4 -3 -20q-2 -12 -2 -18q0 -61 16 -97
q6 -13 49 -77q5 2 21 13.5t22 11.5q17 0 50 -32q30 -30 32 -42q-95 8 -87 8q-21 0 -58 -22q-9 -5 -21 -30q-98 -23 -123 -23q-50 0 -50 100q0 41 24 110q3 9 -6 41q7 -4 7 6q0 52 -6 64q-7 16 -64 73v19q6 -2 11 -2q18 0 30.5 16t12.5 30q0 5 -3.5 10t-4.5 10q3 15 2 41
q-15 29 -39 81q10 0 17 1l6 6q2 21 8 61q-2 3 -9 5q6 17 6 29q1 3 6 10q18 -23 45 -37q12 11 46 54q5 -2 23 -20t35 -18q16 0 16 17q20 -11 51 -20q42 -6 84 -13q49 -13 49 -60z" />
    <glyph glyph-name="g" unicode="g" horiz-adv-x="393" 
d="M90 456q-21 20 -21 37q0 4 9 20q8 -2 16.5 -13.5t8.5 -18.5v-14zM318 362.5q-4 -7.5 -4 -31.5q0 -48 -6 -58q-5 -6 -10 -16q-6 -28 -7 -31q-5 -16 -19 -24q-7 -4 -28.5 -7.5t-30.5 -12.5q29 -15 80 -55q16 -17 35 -54t19 -54q0 -27 -27.5 -83t-49.5 -71q-9 0 -23 12
q-1 0 -1 -6l-16 1q2 14 25 71q11 29 11 31q-17 86 -88 86q-37 0 -52 -21q-27 -64 -27 -66q0 -3 26 -39q16 -24 49 -77h-43q-6 0 -20 8t-18 8q-2 0 -4 -1l-2 -1q-3 -2 -10 -2q-13 0 -39.5 16t-33.5 29t-7 31q0 54 14 96q10 9 22 24q1 9 -5 37q-5 25 -5 37q0 14 7 27
q10 17 21 34q4 7 4 9q0 5 -23 43.5t-23 59.5q0 34 34 85q40 59 87 59q20 0 47 -6q13 -2 62 -20q10 -4 13 -4q-1 0 58 21q12 5 17 5q22 0 48 -31v-40q-12 -2 -32.5 -6.5t-24.5 -12zM-28 65v15q0 22 31 22q0 -25 6 -51q-23 0 -37 14zM182 391q-5 -1 -18 0q-49 -67 -49 -81
t5 -38q4 -18 71 -51v1q8 55 8 59q0 12 -17 110z" />
    <glyph glyph-name="h" unicode="h" horiz-adv-x="446" 
d="M410 28q0 -10 -10 -29q-10 -22 -21 -26q-28 -9 -35 -9q-32 0 -60 18q-14 8 -18 29q-1 7 3 23q6 20 7 27q0 2 -3 55v81q-4 51 -27 73h-22q16 29 16 31q0 11 -22 22q-18 -7 -22 -20t-13 -43q-8 -17 -20 -51q-9 -44 -9 -70q0 -37 19 -62q28 -35 42 -83q-9 -10 -14 -10
t-16.5 12.5t-28.5 12.5q-6 0 -38 -2t-36.5 -2t-14 -2t-15.5 -2q-43 0 -43 29q0 5 10.5 27t12.5 29q1 13 6 37l4 292q2 7 -1.5 26.5t-1.5 24.5q2 8 15 28t13 26q0 4 -33.5 50.5t-33.5 51.5q5 29 56 47q38 14 60 14q36 0 39 -50q0 -31 -1 -63q30 -91 30 -141q0 -20 -5 -37
q4 -5 10 -11q2 1 8 7t12 6q43 0 96 -20q64 -24 74 -56q8 -25 8 -50q0 -3 -5 -65q-4 -51 0 -105q0 -6 14 -35t14 -35z" />
    <glyph glyph-name="i" unicode="i" horiz-adv-x="242" 
d="M154 586q0 -12 -16.5 -30.5t-27.5 -18.5h-71q-5 10 -5 27q0 27 14 49q17 27 46 27q22 0 41 -17.5t19 -36.5zM236 163q0 -7 -4 -11t-8 -7q-19 -35 -23 -82q5 -12 8 -37q-27 -22 -43 -22h-52q-68 0 -60 39l25 198q4 12 -1 25.5t-18 13.5q-3 0 -13.5 3.5t-17.5 3.5t-14 -3
q-25 25 -25 58q0 29 18 56q15 24 25 24q3 0 3 -3q0 -5 -5 -15q2 -2 9.5 5t13 7t39 8.5t38.5 8.5q28 0 44 -50q13 -38 13 -76q0 -25 -1 -86.5t-1 -85.5l8 -8q17 3 17 21q0 4 -1 14v14q0 11 3 20q23 -16 23 -33zM107 346q-11 18 -32 28v-24z" />
    <glyph glyph-name="j" unicode="j" horiz-adv-x="264" 
d="M174 620q-6 -86 -56 -86q-33 0 -54 30q-18 26 -18 57q0 12 28 24q23 9 30 9q24 0 70 -34zM200 110q0 -6 3.5 -26t3.5 -31q0 -2 -3 -9.5t-4 -11.5q-12 -65 -28 -97q-26 -53 -78 -72q-12 -5 -37 -12q-3 -1 -11.5 -4t-13.5 -3q-4 0 -32.5 4.5t-42.5 4.5q-7 1 -30 24
q-26 26 -26 39q0 12 17 23.5t27 11.5q16 0 58 -26.5t45 -26.5q18 0 21 15q9 41 17 121q5 63 5 81q0 24 -1 32q-8 30 -22 95q-1 8 3 27.5t4 29.5q0 7 -2 14t-20 36q-15 25 -15 42q0 24 31 40q24 12 47 12q12 0 29 -6q23 -8 27 -20q12 -33 29 -211q4 -10 9 -15l14 -21
q3 0 4 -16v-20q1 -12 6 -10q-34 0 -34 -14z" />
    <glyph glyph-name="k" unicode="k" horiz-adv-x="420" 
d="M435 51q-6 -15 -36.5 -31.5t-48.5 -16.5q-4 0 -100 14q-13 26 -39 74q-16 14 -39 45q-8 -2 -15 -15.5t-7 -24.5q0 -5 12.5 -25.5t12.5 -25.5q0 -22 -24 -35q-19 -11 -43 -11q1 0 -22 4t-42 4q-25 0 -44 -6q2 12 0 29q0 3 -3.5 10.5t-2.5 14.5q12 26 26 67q1 8 -7 10
t-7 10q7 8 14 25q3 35 14 107q-4 182 0 187q1 24 -5 73q-5 13 -22 45q-14 27 -14 32q0 21 17 31q72 39 86 39q13 0 56 -15q50 -18 69 -37q-2 -15 -8 -29q-5 -10 -9 -20q-1 1 -11.5 5.5t-14.5 9.5q-14 -6 -14 -44q0 -35 42 -73q2 0 6 4.5t10 4.5q5 0 20 -18q19 -21 26 -27
q2 2 -5.5 19t-11.5 22q18 -9 48 -40q35 -34 52 -46q1 -41 -8 -61q-6 -12 -24 -25t-27 -26q-17 -8 -55 -28l28 -46l60 -46l-37 12l82 -58l-32 3zM222 347l-15 44q-8 5 -17 11q-14 10 -24 10q-4 0 -7 -1q0 -20 4 -53q5 -40 6 -49l9 4q18 -12 16 -12q4 10 17 27q11 14 11 19z
M196 263q-5 8 -15.5 12t-19.5 7v-23z" />
    <glyph glyph-name="l" unicode="l" horiz-adv-x="210" 
d="M172 21q0 -26 -43 -26q-11 0 -30 2t-23 2q-38 0 -60 22q0 22 2 65.5t2 65.5q0 33 -32 82q3 -3 13 -3q30 0 30 40q0 12 -3 31t-3 22q0 8 -2 45q-2 31 0 47q1 16 7 49q6 30 6 34q0 44 -16 67q-19 26 -20 35q-29 -1 -42 2q7 4 11 20q3 10 5 20q15 27 44 27q4 0 18 -5l36 -18
q3 1 -7.5 10t-7.5 9q74 0 81 -2q21 -5 18 -49q-1 -6 -8 -4.5t-7 -0.5q5 -23 8 -58l-6 -54l12 -67l-17 23l5 -114l-8 -74l14 35l4 -69q-2 -51 -7 -104q-1 -3 26 -107z" />
    <glyph glyph-name="m" unicode="m" horiz-adv-x="841" 
d="M802 200q0 -5 -7 -51t-8 -51v-116q-6 8 -24 8q-13 0 -38.5 -4.5t-33.5 -4.5q-54 0 -79 24q8 28 28 78q9 5 20 19q24 83 24 118q0 42 -16 77q-22 48 -68 48q-61 0 -82 -60q-10 -32 -10 -99q0 -65 5 -98q1 -5 10 -38q7 -28 7 -35q0 -43 -52 -43q-34 0 -69 15q-9 4 -25 36
q-25 50 -25 74q0 5 5 15t6 13q2 7 2 16q0 5 -13 83q-2 15 3 43q5 33 5 45q0 9 -1 17q-4 18 -17 21h-20q-16 0 -18 -1q-9 -3 -23 -25q-2 -4 -16 -9.5t-17 -13.5q-14 -33 -25 -95q-8 -49 -8 -66q0 -34 23 -76.5t23 -41.5q0 -20 -34 -34q-25 -12 -39 -12q-18 0 -52 7
q-40 9 -46 18q-34 52 -34 122q0 10 5 52q3 31 -1 54q-8 11 -24 36q-3 5 -3 37q0 39 -7 60.5t-32 49.5q18 16 33 38q40 -13 48 -13q5 0 18.5 6.5t20.5 6.5q5 0 61.5 -25t62.5 -25t66 27.5t65 27.5q21 0 82 -27.5t59 -27.5q29 0 48.5 32t41.5 32q14 0 53 -13l27 -9
q56 -18 89 -105q26 -69 26 -137z" />
    <glyph glyph-name="n" unicode="n" horiz-adv-x="470" 
d="M424 214q0 -5 -14 -57.5t-14 -57.5q0 -4 2 -22t3 -26q0 -1 5.5 -4t5.5 -9v-47q-15 8 -31 8q-5 0 -32.5 -6.5t-32.5 -6.5q-16 0 -34 10q-21 12 -21 27q0 5 16.5 49.5t16.5 49.5q0 4 -15 33q-17 33 -21 47t-4 47q0 43 -1 51q-1 15 -20 15q-15 0 -34 -10q-41 -21 -48 -67
q-3 -39 -6 -77q-2 0 -6 -4q4 -3 8 -3q-4 -42 1 -54q29 -65 29 -84q0 -7 -2 -13q-23 -12 -58 -12q-19 0 -70 22q-4 6 -9 20q-1 32 2 86q4 62 4 85q0 35 -4 63q-2 13 -16 36q-19 30 -22 38q-1 4 -1 15q0 12 6 54q7 51 15 71q13 15 37 47q10 -7 11 -21.5t2 -27.5q1 -21 12 -33
q10 4 26 12q0 -10 1 -17q48 -49 52 -49q11 0 25 16q14 13 15 20q3 18 -3 33q6 5 18 5q13 0 17 -7q6 -11 16 -17q13 9 29 32q2 -16 30 -23q37 -8 43 -13q10 11 32 32q18 -12 16 -71q-1 -29 4 -66q2 -17 12 -69q7 -44 7 -50zM108 403l-6 2l-5 -10l6 -3z" />
    <glyph glyph-name="o" unicode="o" horiz-adv-x="478" 
d="M455 287q0 -48 -36 -126q-15 -31 -73 -138q-2 -3 -2 -32q-27 22 -43 27q-30 -42 -56 -42q-11 0 -76.5 31t-73.5 38q-57 58 -92 110q-6 8 -6 49q0 5 7 16q-3 9 -6 25q9 17 23 60q13 38 23.5 54t45.5 35q28 16 57 32q8 6 26 14q6 2 28 2q10 0 53 -7q49 -8 77 -16
q6 -2 43 -32q21 -17 43 -33q23 -20 32 -41q6 -13 6 -26zM302 289q0 23 -38 62q-6 6 -27 7q-2 4 -5.5 8t-9.5 4q-16 0 -20 -14.5t-5 -38.5q-1 -31 -2 -36.5t-6 -17t-5 -16.5q0 -11 19 -28q14 -11 27 -23q-1 -9 -6 -25q-9 8 -17 8q-27 0 -27 -36q0 -27 18 -46q28 -22 56 -45
q6 28 27 58q-7 0 -18 -3.5t-16 -3.5t-8 2v12q4 4 33 76q30 78 30 96z" />
    <glyph glyph-name="p" unicode="p" horiz-adv-x="571" 
d="M-2 -121l2 -1q6 -7 16 -7q13 0 32.5 26.5t19.5 35.5q0 5 -35 67q-6 11 -10 19q12 7 34 22q28 20 28 38q0 6 -11 35q-10 26 -10 30v117q0 38 -13 62.5t-27 49.5q-7 14 -7 26q0 5 18 28.5t24 23.5h2q4 -4 12 -4q17 0 55 41q10 -4 47 -9q15 -2 19 -20h24l110 106h10
q-5 -10 -5 -21q0 -24 35 -65q16 -19 60 -61q9 11 17 17q2 -22 9 -32q57 -92 57 -173q0 -36 -22 -95q-21 -55 -44 -86q-4 -6 -3 -19q0 -4 1 -11q-20 -11 -26 -11q-3 0 -9.5 2.5t-11.5 2.5q-9 0 -30.5 -6.5t-29.5 -6.5t-30 6.5t-31 6.5q-29 0 -49 -11q-24 -12 -24 -35
q0 -25 26 -38q3 1 19 3l-34 -38q8 -19 24 -24q3 -7 3 -22t-12 -34q-13 -22 -25 -22q-3 0 -12 6q-13 7 -20 7q-8 0 -26 -6.5t-25 -6.5q-12 0 -77 10q-6 -11 -7 -22v-2q-32 23 -33 24q-22 14 -36 16v3q17 -5 53 -17q5 -4 9 -1q5 4 5 14q0 14 -52 44q5 7 16 18zM-3 -90v0
q-2 -1 -10 -6t-11 -5l8 -9q2 12 13 20zM301 206q3 -1 6 -1q10 0 25.5 17.5t15.5 26.5q0 8 -6 18q-3 3 -5.5 11.5t-11.5 33.5q-12 31 -29 31q-8 0 -11 -4q-1 0 -8 10q-4 4 -15 10l-41 -84q-24 -47 -24 -56q0 -15 14 -33q-3 -3 -11 -8q-3 -2 -5 -5q-2 -8 8 -24q14 4 34 -9
q6 -4 18 -10.5t31 -9.5q-4 17 -24 47h6q7 0 11 -7t11 -26q12 -31 28 -31q8 0 17 5v18q0 -1 -8 28q-5 16 10 40q-21 0 -36 12z" />
    <glyph glyph-name="q" unicode="q" horiz-adv-x="535" 
d="M523 -150q-15 -21 -4 -61q-42 -14 -49 -14q-30 0 -38 19t-37 19q-4 0 -23.5 3t-24.5 3q-16 0 -40 20t-24 26q0 7 17 27.5t17 42.5q0 20 -15 32.5t-27 12.5t-52 -14q-1 -1 -2 -1q1 0 10 27q-2 2 -5 2q-7 0 -32 -15.5t-34 -14.5q3 2 60 47q-17 10 -46 10q-37 0 -46 2
q-54 11 -87 55q-6 20 -19 51q-11 16 -19 46q-8 26 -8 36q0 54 33 127q31 68 57 85q34 24 69 49q18 12 42 12q5 0 16 -2t16 -2t17 6.5t17 6.5q4 0 39.5 -6.5t40.5 -6.5q6 0 31.5 15t30.5 14h27q4 -21 18 -73q6 -4 19 -17q2 -14 10 -48q-8 -5 -21 -16v-63q3 -4 29 -17
q-12 -14 -28 -48q-10 -42 -10 -122q0 -26 10 -41q3 -5 13 -9q7 -2 14 -5q4 -2 18 -31q-33 -14 -33 -27q0 -29 8 -69q10 -44 23 -64q7 -2 22 -9zM291 319v25l-20 4q0 -9 -7 -16q-5 2 -13.5 6t-12.5 6q0 -5 -8 -12q-10 4 -19 15v11l25 13l-5 20q-14 -5 -36 -23
q-26 -21 -26 -34q0 -9 8 -17l-16 -16v-16h15q16 8 50 8q20 0 65 26zM317 266q0 19 -25 19q-15 0 -51 -19q21 -11 21 -22v-11q-11 -6 -31 -16q-13 13 -19 13q-7 -10 -46 -39q0 -1 -3 -5.5t-3 -10.5q0 -11 24 -45q27 -40 48 -40q19 0 37 8q23 11 23 28q0 12 -12 26
q11 18 12 36q17 10 19 23q6 38 6 55z" />
    <glyph glyph-name="r" unicode="r" horiz-adv-x="369" 
d="M41 -110q-13 2 -18 -9q-20 10 -20 21q0 16 19 34q3 -7 9.5 -23.5t9.5 -22.5zM148 21v16h-7v-16h7zM29 -1l-3 6l-14 -5v-6zM390 456q-2 -2 -69 -49q2 -18 -2 -50q-9 -26 -52 -50q-70 -39 -74 -42q-34 -24 -34 -113q0 -32 2 -41q4 -14 22 -49q6 -15 6 -18v-36q-16 3 -47 2
q-45 -2 -36 -2q-41 0 -103 22q10 21 24 67q18 55 18 78q0 4 -9.5 28.5t-10.5 35.5q-1 9 3 27.5t4 25.5q0 6 -1 10q-6 16 -27 51q-18 31 -18 36q0 29 46 49q36 15 60 15q28 0 42 -12q11 -11 28 -47q26 11 26 32q0 7 -3.5 22.5t-2.5 24.5q12 18 28 18q6 0 32.5 -4t31.5 -4
q23 0 46 16v-27q0 -7 19 1q3 -6 10 -15q13 -2 41 -2z" />
    <glyph glyph-name="s" unicode="s" horiz-adv-x="395" 
d="M365 163q0 -25 -27 -145q-6 -8 -18 -30q-2 -4 -7 -33q-1 -3 -3 -3q-3 0 -12.5 4.5t-12.5 4.5t-4 -3q-6 15 -33 58q-7 -5 -20 -42q-10 9 -32 33q-9 9 -26 9q-23 0 -40 -21q-12 -21 -24 -41l-68 46q1 1 3 1q5 0 20 -9t18 -9q2 0 2 2q0 11 -36 37t-36 37q0 3 1.5 38t1.5 52
q8 -15 19 -15q12 0 29 17.5t19 17.5q5 0 33 -15q33 -18 44 -22q11 -8 39 -20q0 -8 10 -20t12 -17l7 -8q10 0 18.5 14.5t8.5 26.5q0 25 -55 49q-47 21 -76 21q-5 44 -52 91q-50 50 -53 63q-3 9 1 21q0 1 -5.5 4t-5.5 9t7 24q9 22 11 29l33 -8q5 0 16 11t15 12q61 28 88 28
q19 0 66 -11q11 -2 33.5 -14t28.5 -23q23 -41 23 -93q0 -5 -46 -28v-12q22 -22 43 -44q42 -46 42 -74zM150 332q13 1 18 -9q34 18 34 16q0 6 -34 39q-2 -7 -9 -23.5t-9 -22.5zM214 306l3 18l-44 -15l26 -15zM109 3l3 19l-29 15l7 -30z" />
    <glyph glyph-name="t" unicode="t" horiz-adv-x="268" 
d="M258 66q-29 -33 -58 -67q-24 -22 -70 -22q-25 0 -60 15.5t-41 28.5l-20 52q-4 12 -2 31q7 72 7 93q0 -3 4 -31q3 -34 6 -34q1 0 2 2q-3 46 -2 101q20 67 20 101q0 -2 -19 -2q-15 0 -22 13q-5 10 -6 24q-1 9 1 21t2 11q0 15 22.5 9t25.5 2q15 35 17 86q23 10 76 19
q15 -12 24 -43q11 -36 14 -42q6 -9 33 -18q23 -7 23 -21l5 -34q-20 -4 -40 -7q-30 -6 -39.5 -21t-14.5 -30q-11 -29 -16 -72q14 33 26 56q-8 -45 -18 -101q-4 -27 -4 -44q0 -31 14 -37q4 -1 35 -1q9 0 48 8z" />
    <glyph glyph-name="u" unicode="u" horiz-adv-x="512" 
d="M495 366l-58 -70q-17 -22 -17 -57q0 -11 7 -65q8 -60 13 -77q1 -4 11 36.5t15 34.5q8 -10 8 -98q0 -56 -8 -67q0 -5 -40 -11q-36 -5 -50 -5q-5 0 -37 17.5t-38 17.5q-4 0 -69.5 -15.5t-71.5 -15.5q-31 0 -77 21q-53 23 -59 47q-2 9 1 28q5 32 5 35q10 108 -9 211
q-1 9 -15 26.5t-14 27.5q0 26 50 45q38 14 58 14q24 0 54 -29t31 -52q0 -14 -3 -50t-3 -50q4 -2 9 22t9 26q0 -8 -9 -89.5t-9 -93.5q-1 0 40 -42q26 24 40 45q2 -3 4.5 -18t4.5 -15q39 50 39 156q0 12 -1 25v13q0 5 -22.5 44t-22.5 44q0 11 14.5 33t25.5 22q5 0 2.5 -15
t2.5 -15q8 0 24 23.5t21 35.5q10 -24 23 -24q6 0 7 4.5t6 4.5q24 0 108 -85z" />
    <glyph glyph-name="v" unicode="v" horiz-adv-x="447" 
d="M434 410q0 -5 -60 -112q-61 -111 -66 -143q-7 -15 -19 -49q1 -9 1 -27q-16 -10 -47 -68q-24 -3 -30 -3q-12 0 -45.5 29t-37.5 40q2 8 2 17q0 27 -25 67q-7 11 -56 77q-5 7 -10 34q-6 33 -11 46q-11 24 -22 47q-15 34 -16 57q50 36 73 36t64 -12q37 -11 51 -19
q1 -12 0 -65q-1 -40 11 -64q6 -11 24 -27t26 -16q10 0 27 19q14 17 19 30q8 24 3.5 67t2.5 64q34 -11 74 -17q2 1 -20.5 15.5t-17.5 14.5q47 0 60 -3q45 -7 45 -35z" />
    <glyph glyph-name="w" unicode="w" horiz-adv-x="607" 
d="M603 401q0 -6 -17 -29q-27 -39 -31 -45q-9 -23 -25 -66q-7 -19 -27.5 -54t-27.5 -52q-2 -21 -7 -57q-3 -15 -18 -47q-18 -39 -34 -54q-6 -6 -21 -6q-26 0 -96 159q-6 16 -26 48q-23 -22 -31 -53l-12 -52q-13 -34 -40 -98q-28 8 -74 76q-41 61 -78 56q-7 23 -23 78
q6 6 13 6q5 0 11 -6.5t11 -6.5q7 0 18 11q-4 11 -37.5 28.5t-46.5 39.5h19q10 0 32 -22q20 8 20 20q0 6 -31 64.5t-31 63.5q0 42 102 42q51 0 70 -19q7 -7 48 -78h15q12 24 23 49q20 35 40 35q25 0 36 -19q28 -60 97 -180q14 18 30 52.5t16 44.5q0 8 -18 39.5t-17 39.5
q50 32 104 32q64 0 64 -40zM218 302q0 18 -7 24q-23 19 -25 21h-20q3 -14 28 -114q24 61 24 69z" />
    <glyph glyph-name="x" unicode="x" horiz-adv-x="492" 
d="M482 18q0 -30 -15 -34q-36 -11 -112 -11q-17 0 -53 12q-42 14 -44 27q-1 20 -8 56q-5 14 -21.5 23t-30.5 9q-33 0 -36.5 -28.5t-6.5 -55.5q-8 -29 -49 -29q-55 0 -113 30q3 16 11 43q42 13 85 46q54 41 54 79t-37 87q-22 27 -71 75q-37 37 -37 45q0 27 57 39q35 8 65 8
q71 0 83 -25q4 -22 17 -66q1 -3 29 -17q14 6 14 34q0 14 -6 49q4 2 49 7q14 2 43 1q39 -2 35 -2q43 0 56 -26q-36 -36 -71 -73q-70 -72 -70 -82q0 -15 39 -60q34 -40 49 -50q20 -13 62 -21q-9 -10 -9 -17q0 -6 21 -37t21 -36z" />
    <glyph glyph-name="y" unicode="y" horiz-adv-x="519" 
d="M527 396q0 -11 -52 -67q-60 -64 -64 -71q-9 -23 -27 -66q-14 -27 -33 -38q-26 6 -26 40q0 5 19 58t19 59q0 12 -10 31.5t-23 28.5v36q17 10 53 27q43 16 86 16q9 0 33.5 -20.5t24.5 -33.5zM325 62q0 -35 -37 -100q-40 -69 -45 -98q-5 -36 -43 -86q-39 -53 -85 -53
q-28 0 -53 21.5t-25 50.5q0 6 1 12q15 15 57 25q48 11 62 19q21 12 35 47q11 29 11 51q0 10 -8 34q-8 28 -17 42q-29 43 -54 110q-33 87 -41 103q-20 40 -81 126q-6 9 -6 36q16 20 40.5 23t90.5 15q56 10 61 10q38 0 38 -49q0 -6 -11.5 -39t-11.5 -39q0 -7 4 -12t8 -8l4 -46
q5 -28 24 -42q-2 0 24 14q9 -49 -2 -87q21 -19 40.5 -39.5t19.5 -40.5z" />
    <glyph glyph-name="z" unicode="z" horiz-adv-x="469" 
d="M442 83q0 13 1 20v0q1 -7 2 -13q-6 -36 -28 -62q-31 -36 -90 -36q-7 0 -51 4.5t-50 4.5t-42 -6q-39 -7 -39 -10q0 -2 15.5 9t15.5 15q0 2 -5 2q-14 -2 -46.5 -13l-32.5 -11q-17 0 -56.5 10.5t-44.5 14.5q3 32 36 82q51 79 54 85q14 8 35 28q12 18 24 50l20 52
q-16 17 -38 17q-15 0 -35 -55q-24 -11 -47 -11q-14 0 -23 21q-8 17 -8 33q0 93 76 107q11 2 25.5 -3t27.5 -4q6 0 -16.5 11t-17.5 11q7 1 138 -15q71 12 90 12q38 0 53 -20q19 -25 18 -103v-20l-20 -8q-5 -4 -17.5 -23.5t-21.5 -21.5q-44 -13 -70 -72q-28 -64 -53 -77v-18
q11 -8 42 -8q57 0 72 10q17 15 34.5 28.5t39.5 13.5q23 0 28 -4.5t5 -26.5zM179 466q-16 4 -27 -4q0 23 1 23zM321 -42q-8 -9 -28 -27v22z" />
    <glyph glyph-name="braceleft" unicode="{" horiz-adv-x="360" 
d="M80 664q0 -1 -5 -19t-5 -33q0 -10 2 -20q12 -53 12 -184q0 -26 -40.5 -46t-40.5 -28q0 -5 39.5 -30t39.5 -54q-1 -38 1 -99q3 -72 3 -94q0 -73 -16 -123q8 -90 135 -90h49q8 0 23 -4t20 -4q22 0 22 47q0 6 2 15.5t2 12.5q0 12 -27 12q-15 0 -26.5 -2.5t-30.5 -2.5
q-16 0 -37 11t-21 24q0 24 12 22q-22 17 -22 28q0 4 4.5 12t4.5 14t-3 13v44q-1 44 -1 49q0 12 -6 33q-2 6 -2 30.5t-3.5 47.5t-3.5 48q0 7 -22 20t-22 20q0 4 12 14q16 14 25 28q5 8 14 33.5t9 28.5q-1 55 0 189q-4 -5 -4 7q0 45 34 60q15 6 34 6q10 0 24 -1.5t17 -1.5
q9 0 9 6t6.5 33t6.5 39q0 19 -13 19q-5 0 -34.5 -7t-34 -7t-12 -3.5t-10.5 -3.5q-5 0 -6 5l-24 4q-5 0 -25.5 -14t-25 -14t-13 -18.5t-12.5 -16.5q-14 -18 -14 -55zM142 85q16 0 14 64q-2 63 -3 63l-5 22h-14q-2 -4 3 -74q5 -78 5 -75z" />
    <glyph glyph-name="bar" unicode="|" horiz-adv-x="357" 
d="M252 -59q0 -26 -32 -26q-9 0 -24.5 2t-19.5 2q-38 0 -60 22q0 36 1 63l3 148q0 5 1 22q2 14 1 22q-2 12 -8 22q8 -8 10 -8t4 4q7 19 7 41q0 17 -5 41t-5 28q0 8 -2 45q-2 31 0 47q1 18 -1.5 46.5l-2.5 28.5q0 65 -19 190q-3 -1 -3 2t3 10.5t3 10.5q0 4 -4 5q5 3 5 7
q0 3 -3 10t-2 9q7 13 8.5 14t10.5 1q4 0 18 -5l36 -18q3 1 -7.5 10t-7.5 9q54 0 61 -2q21 -5 18 -49q-1 -6 -8 -4.5t-7 -0.5q5 -23 8 -58q-2 -17 -4.5 -73t-1.5 -61l12 -67l-17 23l5 -114l-8 -74l14 35l4 -69q-2 -51 -7 -104q-1 -3 26 -187z" />
    <glyph glyph-name="braceright" unicode="}" horiz-adv-x="360" 
d="M222 664q0 -1 5 -19t5 -33q0 -10 -2 -20q-12 -53 -12 -184q0 -26 40.5 -46t40.5 -28q0 -5 -39.5 -30t-39.5 -54q1 -38 -1 -99q-3 -72 -3 -94q0 -73 16 -123q-8 -90 -135 -90h-49q-8 0 -23 -4t-20 -4q-22 0 -22 47q0 6 -2 15.5t-2 12.5q0 12 27 12q15 0 26.5 -2.5
t30.5 -2.5q16 0 37 11t21 24q0 24 -12 22q22 17 22 28q0 4 -4.5 12t-4.5 14t3 13v44q1 44 1 49q0 12 6 33q2 6 2 30.5t3.5 47.5t3.5 48q0 7 22 20t22 20q0 4 -12 14q-16 14 -25 28q-5 8 -14 33.5t-9 28.5q1 55 0 189q4 -5 4 7q0 45 -34 60q-15 6 -34 6q-10 0 -24 -1.5
t-17 -1.5q-9 0 -9 6t-6.5 33t-6.5 39q0 19 13 19q5 0 34.5 -7t35.5 -7q3 0 10.5 -3.5t10.5 -3.5q5 0 6 5l24 4q5 0 25.5 -14t25 -14t13 -18.5t12.5 -16.5q14 -18 14 -55zM160 85q-16 0 -14 64q2 63 3 63l5 22h14q2 -4 -3 -74q-5 -78 -5 -75z" />
    <glyph glyph-name="asciitilde" unicode="~" horiz-adv-x="322" 
d="M25 707q-20 9 -20 21q0 4 3 8q16 24 31 40q32 23 35 20q1 -1 18 -1v0q18 0 22 -1q12 2 29 -5q4 -6 17.5 -13.5t20.5 -7.5q23 0 31 2q18 6 23 6l12 12l3 6.5t7 6.5q2 0 4 -2q6 -3 6 -8q0 -1 7.5 -5t7.5 -7t-11.5 -18.5t-11.5 -19t-15 -12.5t-17 -10q-6 -6 -41 -12
q-21 3 -46 9q-23 23 -29 23q1 0 -13 4t-15 2q-4 -9 -8 -9q-8 -2 -15 -3q-12 -4 -11 -8q1 -7 -1 -9q-5 -8 -23 -9z" />
    <glyph glyph-name="Adieresis" unicode="&#xc4;" horiz-adv-x="694" 
d="M568 706q0 -3 -10 -12q-4 10 10 20v-8zM490 753q0 -20 -18 -34.5t-37 -14.5q-21 0 -34.5 15.5t-13.5 38.5q0 10 2 19q20 18 62 28q39 8 39 -52zM655 454q0 10 -8 -25h-15q-5 0 -17 10q10 7 31 20h7q2 0 2 -5zM295 736q-29 -27 -59 -27q-53 0 -53 48q0 21 19.5 37t39.5 16
q24 0 36 -27q5 -16 17 -47zM206 527q-6 -2 -16 -6v16q7 -3 16 -10zM655 590q0 -18 -18 -44q-9 -2 -29.5 -7.5t-22.5 -5.5t-9 6t-9 6h-67q0 -1 -1 -1v-4q0 -4 10 -19q-59 -14 -59 -41q0 -17 18 -39t18 -23q0 -2 -5 -14.5t-5 -16.5q0 -42 23 -68q32 -39 42 -62
q2 -22 10.5 -60.5t53.5 -94.5q42 -53 42 -54q0 -4 -10.5 -18t-18.5 -18q-16 -9 -57 -9q-34 0 -159 19q-5 1 -10 8.5t-5 10.5q0 11 26.5 36.5t26.5 27.5q0 6 -15.5 17.5t-21.5 13.5v6q0 5 10 15q-12 12 -26 18l18 26q0 12 -7 21q-18 24 -37 24q-13 0 -67 -11t-61 -15
q-3 -1 -27 -41q-27 -44 -27 -57q0 -12 16.5 -43t16.5 -36q0 -24 -66 -44q-52 -16 -71 -16h-37q-5 0 -14.5 14t-10.5 19q-1 2 -1 12q0 35 27 73q9 12 50 44l-24 53q0 3 5 3l36 -12q13 14 16 42q4 41 5 42q5 20 43 53q-3 35 1 49q7 22 19 50t15 28q-1 0 11 -6q37 34 51 113
q28 103 48 103q3 0 9 -2.5t9 -3.5q13 -2 20 -5q13 -5 35 -34q20 -25 36 -26l125 -6q23 0 50 15q1 7 -13 12q4 12 9 38h33q4 -9 17 -37q10 -22 10 -24zM383 147q-4 -7 -12 -6q-16 3 -15 3l3 14q8 -3 24 -11zM325 79q-2 -2 -6 -2q-8 0 -8 9q0 2 1.5 5.5t1.5 5.5l11 -3v-15z
M490 547q3 11 -13 16q3 -12 13 -16zM456 569l-3 3l-2 -2l3 -3zM342 354l-21 72l-38 -48v-42z" />
    <glyph glyph-name="Aring" unicode="&#xc5;" horiz-adv-x="694" 
d="M568 706q0 -3 -10 -12q-4 10 10 20v-8zM426 766q0 -12 -3 -19q-24 -66 -87 -66q-27 0 -51 21q-22 18 -33 45q-4 7 -4 12q0 36 13 55l8 2h1q0 8 7 17.5t17 7.5q0 -1 2 1t6.5 2t16 2.5t17.5 2.5q22 0 40 -6l24 -24q23 -23 23 -32v-1l-12 30q0 -5 7.5 -26t7.5 -24zM655 454
q0 10 -8 -25h-15q-5 0 -17 10q10 7 31 20h7q2 0 2 -5zM206 527q-9 -16 -22 -35l6 45q7 -3 16 -10zM647 48q0 -4 -10.5 -18t-18.5 -18q-16 -9 -57 -9q-34 0 -159 19q-5 1 -10 8.5t-5 10.5q0 11 26.5 36.5t26.5 27.5q0 6 -15.5 17.5t-21.5 13.5v6q0 5 10 15q-12 12 -26 18
l18 26q0 12 -7 21q-18 24 -37 24q-13 0 -67 -11t-61 -15q-3 -1 -27 -41q-27 -44 -27 -57q0 -12 16.5 -43t16.5 -36q0 -24 -66 -44q-52 -16 -71 -16h-37q-5 0 -14.5 14t-10.5 19q-1 2 -1 12q0 35 27 73q9 12 50 44l-24 53q0 3 5 3l36 -12q13 14 16 42q4 41 5 42q5 20 43 53
q-3 35 1 49q7 22 19 50t15 28q-1 0 11 -6q37 34 51 113q28 103 48 103q3 0 9 -2.5t9 -3.5q13 -2 20 -5q13 -5 35 -34q20 -25 36 -26l125 -6q4 0 -6 1q-21 3 -21 9q0 2 6 6q1 7 -12 11q4 13 8 38h34q3 -9 16 -36q11 -22 11 -25q0 -17 -19 -44q3 -1 1 -1q-63 0 -73 -1
q-49 -6 -49 -33q0 -17 20.5 -54.5t20.5 -38.5q0 -2 -5 -14.5t-5 -16.5q0 -42 23 -68q32 -39 42 -62q2 -22 10.5 -60.5t53.5 -94.5q42 -53 42 -54zM383 147q-4 -7 -12 -6q-16 3 -15 3l3 14q8 -3 24 -11zM325 79q-2 -2 -6 -2q-8 0 -8 9q0 2 1.5 5.5t1.5 5.5l11 -3v-15z
M388 764q0 25 -11 27q-2 10 -16 17q-4 9 -21 9q-13 0 -16.5 -2t-12.5 -13q-9 0 -12 -11q-11 -2 -11 -28q0 -13 16 -29q8 -8 17 -15q3 -3 15 -3q21 0 26 5q1 3 12 6q2 3 8 19t6 18zM336 349l-20 82l-39 -85l30 -18z" />
    <glyph glyph-name="Ccedilla" unicode="&#xc7;" horiz-adv-x="664" 
d="M119 701q-6 -15 -26 -35q-22 -23 -37 -24v17q0 21 17 42h46zM685 1q0 -6 -7 -15t-11 -9q-11 0 -30 17.5t-19 26.5q0 3 6 10t9 7q6 0 22 -12q1 4 6 12q4 0 7.5 -1l3.5 -1q2 -10 -1 -21q14 -16 14 -14zM616 35q0 -5 -13 -17q-10 0 -26 30q11 11 23 11q5 0 10.5 -10t5.5 -14
zM451 -149q0 -5 -16 -28.5t-20.5 -25.5t-68.5 -3q-30 9 -39 9q-33 0 -33 5q0 2 9.5 29t9.5 28t12.5 -4t13.5 -3.5t17.5 -1.5t20.5 -3q10 0 21.5 11.5t11.5 21.5q0 7 -4.5 17t-4.5 12t-19.5 2t-20.5 2q-3 5 -41 -9l5 46l6 17t6 20t10 19q-54 7 -180 55q-10 -9 -11.5 -25
t-3.5 -32q-15 16 -27 24q-80 48 -108 109q-1 3 -1 8q0 4 1.5 12t1.5 12q0 13 -10 19h11q9 -1 12 -1q13 0 13 9q0 5 -10 21q2 2 13 -2q0 1 1 2v4q0 1 -6.5 44t-8.5 59q0 8 -9 8q-3 0 -14 -5t-14 -6q-3 10 -8 41q1 -1 17 -16q49 50 49 101q0 29 -12 29l-14 -1h-26
q35 23 102 69q7 12 24 31q99 66 163 80q14 2 47 2q56 0 109 -7q12 -1 42 -10t32 -9t13.5 1t14.5 1q28 0 55 -14q33 -18 33 -47t-8 -95q0 -1 1 -25q0 -17 -4 -19q-10 2 -31 4t-31 3q-7 10 -6 13q1 5 1 9q0 50 -97 107q-5 3 -22 8q-23 7 -37 7q-26 0 -73 -19q-56 -23 -56 -48
q0 -10 13.5 -37l13.5 -27q0 -17 -43 -56.5t-43 -52.5q0 -7 6 -13q10 -11 14 -16q5 -14 19 -40q-6 0 -14 4t-10 4q-11 0 -17 -27q0 -26 26 -87q31 -72 60 -72q7 0 8.5 6.5t11.5 6.5q11 0 12.5 -7.5t7.5 -10.5q14 -7 50 -13l40 18q24 -6 29 -6h6q1 6 11 10q7 3 14 5
q24 13 50 47t37 64h7q10 0 41 -22q1 -18 -1 -37q4 -7 19 -9q4 -3 4 -7q0 -2 -1 -5t-1 -4q0 -4 6 -7q4 6 8 22q2 -1 4 -4q1 -8 6.5 -22.5t5.5 -19.5q0 -7 -5 -10q6 -6 18 -27q1 0 10 8q9 -5 9 -14q0 -7 -3 -12h-48q0 8 5 29q-4 13 -14 13q-3 0 -21 -6v7q0 2 8 13.5t8 14.5
q0 8 -12 8q-3 0 -6 -1t-7 -19q-10 -41 -86 -81q-3 -2 -47 -10q-33 -6 -79 -10l-35 -55l43 -1q2 0 54 -28q4 -53 4 -76z" />
    <glyph glyph-name="Eacute" unicode="&#xc9;" horiz-adv-x="670" 
d="M396 724q-14 -7 -38 -15l-9 2v8q12 4 36 15h9q0 -1 1 -5t1 -5zM496 326h-25q0 4 -2 7l7 7q12 0 20 -3v-11zM664 204q0 -2 -11 -39t-11 -41q-1 -3 0.5 -11t1.5 -12q0 -30 -2 -38q-4 -15 -20 -38q-22 -30 -40 -30q-2 0 -7 3t-7 3q-13 0 -27 -16q-4 -4 -14 -30q-4 2 -11 7
q-26 29 -62 36q-29 1 -57 3h-55q-39 0 -70 -13q-7 -8 -21 -19q-4 -1 -13 -3l-75 27h-8q-6 -13 -11 -13t-15 9.5t-20 9.5q-2 0 -52 -18h-8q-21 57 -21 53q0 14 8 17q21 11 36.5 33.5t16.5 41.5q1 2 3.5 8.5t2.5 11.5q0 1 -8 28l23 130q-2 22 -15 45q-16 28 -40 36
q15 17 15 31q0 2 -12.5 41.5t-12.5 41.5q0 10 8 22q-3 7 -8 7q-3 0 -9.5 -5t-8.5 -5h-13v28q-2 1 -5 1q-7 0 -7 -12q-1 -16 -2 -17q-4 1 -17 13.5t-13 17.5q0 8 16 46q14 32 18 38q2 -1 9.5 -6.5t9.5 -5.5t14.5 11t20.5 15q56 26 86 26q11 0 29 -9.5t21 -9.5q7 0 8 10
q40 5 53 9q29 7 46 27q2 0 7 -5t8 -7q35 -21 64 -21l149 2q19 0 21 -5q35 -79 35 -100q0 -26 -29 -77q-4 -9 -20 -9q-10 0 -20 7q-21 22 -41 44q-41 41 -50 41q-3 0 -8.5 -7t-8.5 -9q-6 -5 -26 -5h-53q-24 0 -37 -28v-60q5 -8 28 -8q18 0 24 4q10 6 23 34q9 1 31 -4
q27 -7 33 -8q1 0 16 -53q9 -35 30 -53q5 -13 5 -9q-35 -6 -35 -30q0 -3 5 -20t5 -20q0 -5 -8 -30q-8 -28 -16 -40q-4 -7 -28 -7q-28 0 -39 13q-23 28 -48 45q-9 -3 -17 -30v-21q-1 -18 -13.5 -45.5t-12.5 -26.5q0 -4 5.5 -11.5t9.5 -7.5q10 0 21.5 39t31.5 39q-3 0 18 -7
q-3 -10 -12 -22q-11 -16 -23 -31q-18 -24 -18 -34t13 -27q14 -20 26 -20q3 0 22 10.5t22 10.5q2 0 13 -7t14 -7q2 0 12.5 2.5t14.5 2.5q76 -2 147 129q14 -10 46 -35q1 -2 3 -2q7 0 16 17q7 14 7 13zM311 281q-4 7 -12 7t-11 -7q2 -5 11 -5t12 5zM282 724q-19 -10 -52 -28
q-8 0 -12.5 7.5t-1.5 14.5q4 8 51.5 64.5t63.5 69.5q11 9 16 11q9 2 34 -1q22 -32 22 -41q0 -4 -4 -4l-39 -31q-1 -2 -38.5 -31t-39.5 -31zM384 776q9 10 22 20l13 -18z" />
    <glyph glyph-name="Ntilde" unicode="&#xd1;" horiz-adv-x="694" 
d="M439 587l-31 -13l-2 18zM705 641q-21 -18 -59 -60q-11 -16 -22.5 -44.5t-11.5 -38.5q-2 -18 -11 -76q-6 -37 -6 -56q0 -35 17 -66q1 -1 11 -9q6 -4 6 -11q0 -5 -5.5 -12.5t-6.5 -10.5q-18 -68 -18 -114q0 -17 21 -38q-16 -8 -23 -40q-8 -40 -18 -54q-5 -8 -9 -17
q-8 -13 -15 -13q-42 0 -100 83q-34 51 -68 103q-51 56 -111 127q-6 7 -13.5 28.5t-10.5 26.5q-2 2 -20 9.5t-20 23.5h-16q-18 -10 -28 -52q-8 -33 -8 -62q0 -28 5 -78q1 -7 11 -20q14 -17 16 -22q40 -73 40 -100q0 -25 -35 -40q-25 -10 -45 -10q-5 0 -43 4t-44 4
q-16 0 -29 -13q-45 30 -45 45q0 5 11 42q11 41 16 42q1 1 2.5 -7t3.5 -8q2 1 5 7q4 26 13 62q1 3 3 3t4.5 -3.5t4.5 -3.5q2 1 3 4q12 30 17 44q2 4 -1.5 12.5t-4.5 11.5q-4 68 9 174q0 3 5.5 21.5t5.5 26.5q0 15 -9 51q-10 41 -20 41q-2 0 1 -17v-11q-16 20 -35 62.5
t-19 64.5q0 5 8 14.5t9 12.5q17 3 63 18q42 13 47 13q33 0 64 -18q36 -22 58 -59q5 -20 16 -55q29 -71 87 -115q17 -13 44 -47q22 -28 43 -57q4 -12 12 -30q1 -2 39 -54q27 16 27 45q0 2 -6 80q-8 83 -9 123q12 17 12 32t-11 30q-10 6 -31 22q-6 5 -12.5 29t-6.5 42
q0 6 1 11l15 13q5 -2 10 -2q19 0 35 18q14 15 17 30h19l10 -16q5 -9 12 -9q6 0 9 2t8 2q24 0 65 -38q36 -34 45 -53zM305 596q-12 0 -21.5 2l-9.5 2l5 22h14q12 -24 12 -26zM299 568h-7v19h7v-19zM641 194q-11 0 -20.5 2l-9.5 2l4 22h14q12 -23 12 -26zM635 167h-6v18h6v-18
zM614 122q12 0 21 -2l9 -2l-4 -22h-14q-12 24 -12 26zM620 150h7v-19h-7v19zM311 202q12 0 21 -2l9 -2l-4 -22h-14q-12 23 -12 26zM317 229h6v-18h-6v18zM182 743q-24 10 -24 21q0 4 3 8q20 24 39 41q40 32 44 30q17 3 46 4q16 -1 40 -11q13 -16 46 -16q3 0 20 -2
q14 -3 21 -1q-2 -1 18 -1q2 0 20 15q12 9 23 5q7 -3 7 -9q0 -1 9 -4.5t9 -6.5t-14.5 -19t-14.5 -19t-17 -12q-20 -9 -22 -11q-7 -5 -51 -12q-27 3 -57 9q-29 23 -36 23l-17.5 4t-18.5 2q-5 -8 -11 -9q-9 -1 -18 -3q-13 -3 -13 -8q0 -1 1 -3t1 -3q-1 -2 -4 -3q-14 -4 -29 -9z
" />
    <glyph glyph-name="Odieresis" unicode="&#xd6;" horiz-adv-x="778" 
d="M455 724q-21 0 -34.5 15.5t-13.5 38.5q0 10 2 19q20 18 62 28q39 8 39 -52q0 -20 -18 -34.5t-37 -14.5zM256 729q-53 0 -53 48q0 21 19.5 37t39.5 16q24 0 36 -27q5 -16 17 -47q-29 -27 -59 -27zM464 659h-11v6h11v-6zM744 126q-9 -9 -9 -17l-6 13q7 8 15 4zM743 327
q-28 -63 -57 -126q-39 -76 -94 -133q-14 -8 -28 -17q-23 -16 -20 -37l-149 -9q-65 0 -117 13q-14 8 -42 20q-10 1 -27 3q-5 1 -16 5.5t-16 4.5t-14.5 -7.5t-14.5 -7.5q1 0 -57 23q-3 -3 -3 -19q-11 10 -30 32q2 2 8 1q7 -3 11 -3q7 0 23 15.5t16 23.5q0 6 -8.5 16t-14.5 10
q-5 0 -8 -1.5t-8 -1.5q-7 0 -21 9.5t-13 15.5q0 10 5 54q3 33 3 54q0 41 -11 74h-10q-3 0 -10 -44q-7 -47 -21 -61q-13 13 -13 18q18 7 22 47v61q0 16 -22 22q10 27 43 60q30 30 60 61q4 3 4 19q0 45 -7 112l-24 -12v41l13 13q8 -6 23 -16q0 3 2 4q3 0 12 -19q6 -14 13 -29
l4 -2q4 -5 8 -5q5 0 14 17.5t14 17.5q13 0 13 -17q0 -3 -2.5 -8t-2.5 -7q0 -4 9 -9q37 32 37 64q0 13 -7 25q19 -1 30 -8.5t13 -7.5q5 0 4 1.5t4 1.5t20 -6.5t22 -8.5q4 8 11 23q14 -8 24 -8q14 0 20 3l-11 -12q10 -12 19.5 -22.5t22.5 -10.5q5 0 16.5 2t16.5 2t44 -9.5
t44 -9.5q14 0 23 11q4 -11 17 -11q7 0 22 8q12 -16 22 -16q8 0 12 4q2 -8 10 -24q8 -10 38 -31q-1 -1 -10 -11.5t-9 -15.5q0 -3 21.5 -27t26.5 -38q14 -38 39 -156q7 -1 19 12zM376 544q-4 0 -9 5q-10 -4 -21 -13v-13h14q6 9 16 21zM332 495l-5 -18q5 3 7 9q1 6 -2 9z
M552 340q0 44 -15 68q-18 26 -64 48q0 2 1 14.5t1 22.5q0 52 -40 52q-8 0 -74 -42v-22q23 -7 23 -24q0 -6 -7 -16.5t-8 -15.5q-4 -23 -4 -81q0 -8 16 -46q19 -44 33 -44q5 0 7 2t7 2q21 0 21 -57q0 -21 -9 -59q-3 -13 -14 -41q2 1 10 6t13 5q7 0 10 -3q0 14 18.5 31.5
t19.5 19.5q4 25 15 72q1 1 25 12q0 11 1 28q3 21 3 25q11 -3 11 43zM353 330q-4 2 -12.5 8t-12.5 8q-2 -2 -4.5 -6.5t-4.5 -6.5q12 -13 29 -21zM368 105q2 16 -3 46q-7 42 -25 42q-5 0 -10.5 -2t-8.5 -2q-6 0 -18 10v22l13 3q9 -9 25 -16q6 33 0 65q-7 -3 -12 -3
q-19 0 -16 41q-25 16 -48 16q-22 0 -35 -24q-11 -20 -11 -45q0 -38 17 -61q21 -28 59.5 -66t44.5 -38q5 0 16 6t12 6zM331 247h-5l-5 13l6 2z" />
    <glyph glyph-name="Udieresis" unicode="&#xdc;" horiz-adv-x="691" 
d="M501 321h-31l15 36h7zM669 107q-1 -2 -10 -14t-9 -18q0 -5 6 -18q8 -17 9 -20q-2 -2 -6.5 -4.5t-6.5 -4.5q-2 1 -24 19q-16 13 -25 13q-3 0 -6 -1v25q10 0 17 -7q6 6 6 11q0 3 -4 9t-4 10q1 0 12 7q7 5 12 5q6 0 17.5 -5.5t15.5 -6.5zM707 716q0 -11 -16 -24t-18 -22
q3 -21 -2 -61q-17 -36 -34 -73q-10 -28 -10 -80q0 -4 5 -44q7 -46 9 -63q3 -35 -3 -103q0 -7 12 -19q-7 -5 -19 -16q-17 -36 -61 -102q-11 -1 -27 -6q-8 -5 -15.5 -21.5t-12.5 -21.5q-31 -18 -62 -37q-45 -27 -50 -55q-60 -8 -102 -8q0 -21 -5 -37q-10 -26 -51 -46
q-1 -10 -6 -27q-3 1 -10 6q4 2 11 11l-3 6q-6 2 -22 -1t-18 -3q-11 0 -20 26q-6 17 -11 35h-10q-11 -19 -29 -19q-5 0 -30.5 11t-30.5 11q-9 0 -21 -11q-4 6 -17 16l15 31q0 4 -10 14q-5 -8 -17 -26h-5q1 5 1 10q0 25 -28 20q8 23 24 45q5 -5 4 -19.5t7 -22.5q17 11 17 48
q0 31 -19 31q-5 0 -11 -3v14q6 16 22 16q10 0 21 -11l25 25q-4 13 -26 18q-13 48 -41 80q-8 16 -24 47q6 6 11 37q5 26 20 30q33 10 51 9h12q5 -14 10 -29q8 -20 27 -35q15 8 15 25q0 9 -5.5 27.5t-5.5 26.5q0 6 2 11q1 0 7.5 6t6.5 10q0 5 -25.5 71t-25.5 71q0 4 24.5 -23
t25.5 -25q2 2 2 6q0 6 -5 18.5t-5 16.5q0 38 -26 64.5t-26 35.5q0 17 89 48q-25 -29 -41 -55q41 35 89 73q-2 -7 -5 -13q-8 -13 -17 -26q-3 -7 -5 -13q18 4 48 29.5t29 25.5q15 6 27 6q22 0 36 -32.5t25 -32.5q-10 -10 -32 -33q-15 -13 -35 -42q-14 -39 -14 -128
q0 -35 16 -85q1 -4 11 -10.5t13 -11.5q6 -14 15 -51q0 2 -8 10q-8 -3 -10 -13q-2 -7 0 -20q2 -16 2 -19q-9 -11 -9 -30q0 -24 45 -45q36 -17 50 -17q4 0 10 2t11 2q11 0 27 -16q11 7 17 28q-3 2 -11 1q-10 -2 -12 -2q-16 0 -25 9l-24 30q-2 11 17 18q2 -10 11 -31
q31 16 43 16q5 0 9 -5q6 -8 9 -10q24 8 24 22q0 9 -34 43q-1 12 13 25q2 0 20 -19h14q3 6 -5 30q6 3 23 5q7 9 18 43q12 40 12 65q0 36 -8 84q-9 59 -24 81q-4 7 -31 30q-21 18 -21 34q0 33 43 49l-12 26q30 -14 32 -14q5 0 18 9.5t18 9.5q4 0 22.5 -11.5t22.5 -11.5
q20 0 35 10q0 12 -11 27q2 -2 6 -2q8 0 26.5 13.5t25.5 15.5q6 -5 6 -13zM39 112q-6 0 -18 12v14q7 -4 18 -26zM25 -156l-31 7q10 11 24 18q3 0 6 -10t1 -15zM127 161v14q-8 9 -38 13q-26 4 -31 16q8 7 8 16q-12 8 -32 28q-5 -11 -13 -29q6 -4 53 -54q-5 -16 24 -16
q20 0 29 12zM278 11q-14 14 -47 18q-38 4 -46 8t-23.5 29t-30.5 30v-20q0 -4 6 -12q10 -9 11 -12q1 -4 0 -14q-2 -11 -2 -13q73 -27 98 -27q21 0 34 13zM142 0q-2 0 -9.5 2.5t-9.5 2.5q0 -7 5 -14q4 0 14 9zM475 724q-21 0 -34.5 15.5t-13.5 38.5q0 10 2 19q20 18 62 28
q39 8 39 -52q0 -20 -18 -34.5t-37 -14.5zM276 729q-53 0 -53 48q0 21 19.5 37t39.5 16q24 0 36 -27q5 -16 17 -47q-29 -27 -59 -27z" />
    <glyph glyph-name="aacute" unicode="&#xe1;" horiz-adv-x="410" 
d="M325 -32q-34 0 -26 0q-19 1 -26 13q32 8 28 8q7 0 13 -7t11 -14zM371 237q-28 -23 -29 -87q-2 -16 -3 -32q-2 -28 1 -36q0 -1 19 -29.5t19 -38.5q0 -8 -9 -8q-5 0 -37 16t-37 16q-11 0 -30 -21q-4 -1 -11.5 6t-13.5 7q-5 0 -22.5 -12t-22.5 -14q-44 -14 -80 -14
q-54 0 -84 36q-28 33 -28 82q0 3 5 39.5t5 54.5q23 1 67 14q9 5 57 35q31 19 52 25q13 3 28 24q5 8 5 23q0 18 -8 26q-15 11 -29 22q-19 -14 -48 -58q-19 -29 -48 -29q-23 0 -43.5 22t-20.5 43q0 9 15.5 39t29.5 42q18 16 56 16q6 0 22 -9t22 -9q5 0 27 11t28 11
q5 0 31.5 -11t31.5 -11q6 0 9 2t9 2q16 0 37 -35q16 -28 18 -41q2 -15 -2 -40q-4 -29 -4 -39q0 -16 16 -40zM22 248l-20 -17l-13 17l4 6zM222 165q0 11 -6 18q-22 -15 -47 -38t-25 -31v-27q4 0 15.5 -4.5t16.5 -4.5q10 0 28 39t18 48zM162 494q-19 -10 -52 -28
q-8 0 -12.5 7.5t-1.5 14.5q4 8 51.5 64.5t63.5 69.5q11 9 16 11q9 2 34 -1q22 -32 22 -41q0 -4 -4 -4l-39 -31q-1 -2 -38.5 -31t-39.5 -31zM264 546q9 10 22 20l13 -18z" />
    <glyph glyph-name="agrave" unicode="&#xe0;" horiz-adv-x="410" 
d="M148 464q-34 0 -26 0q-20 1 -26 13q31 8 28 8q7 0 12.5 -7t11.5 -14zM371 237q-28 -23 -29 -87q-2 -16 -3 -32q-2 -28 1 -36q0 -1 19 -29.5t19 -38.5q0 -8 -9 -8q-5 0 -37 16t-37 16q-11 0 -30 -21q-4 -1 -11.5 6t-13.5 7q-5 0 -22.5 -12t-22.5 -14q-44 -14 -80 -14
q-54 0 -84 36q-28 33 -28 82q0 3 5 39.5t5 54.5q23 1 67 14q9 5 57 35q31 19 52 25q13 3 28 24q5 8 5 23q0 18 -8 26q-15 11 -29 22q-19 -14 -48 -58q-19 -29 -48 -29q-23 0 -43.5 22t-20.5 43q0 9 15.5 39t29.5 42q18 16 56 16q6 0 22 -9t22 -9q5 0 27 11t28 11
q5 0 31.5 -11t31.5 -11q6 0 9 2t9 2q16 0 37 -35q16 -28 18 -41q2 -15 -2 -40q-4 -29 -4 -39q0 -16 16 -40zM22 248l-20 -17l-13 17l4 6zM222 165q0 11 -6 18q-22 -15 -47 -38t-25 -31v-27q4 0 15.5 -4.5t16.5 -4.5q10 0 28 39t18 48zM209 504q19 -10 52 -28q8 0 12.5 7.5
t1.5 14.5q-5 10 -46 64q-44 58 -59 70q-11 9 -16 11q-9 2 -34 -1q-31 -35 -31 -43q0 -2 3 -2l39 -31q37 -30 78 -62zM107 556q-9 10 -22 20l-13 -18z" />
    <glyph glyph-name="acircumflex" unicode="&#xe2;" horiz-adv-x="410" 
d="M148 464q-34 0 -26 0q-20 1 -26 13q31 8 28 8q7 0 12.5 -7t11.5 -14zM371 237q-28 -23 -29 -87q-2 -16 -3 -32q-2 -28 1 -36q0 -1 19 -29.5t19 -38.5q0 -8 -9 -8q-5 0 -37 16t-37 16q-11 0 -30 -21q-4 -1 -11.5 6t-13.5 7q-5 0 -22.5 -12t-22.5 -14q-44 -14 -80 -14
q-54 0 -84 36q-28 33 -28 82q0 3 5 39.5t5 54.5q23 1 67 14q9 5 57 35q31 19 52 25q13 3 28 24q5 8 5 23q0 18 -8 26q-15 11 -29 22q-19 -14 -48 -58q-19 -29 -48 -29q-23 0 -43.5 22t-20.5 43q0 9 15.5 39t29.5 42q18 16 56 16q6 0 22 -9t22 -9q5 0 27 11t28 11
q5 0 31.5 -11t31.5 -11q6 0 9 2t9 2q16 0 37 -35q16 -28 18 -41q2 -15 -2 -40q-4 -29 -4 -39q0 -16 16 -40zM22 248l-20 -17l-13 17l4 6zM222 165q0 11 -6 18q-22 -15 -47 -38t-25 -31v-27q4 0 15.5 -4.5t16.5 -4.5q10 0 28 39t18 48zM326 513q5 -7 4 -8q-5 -1 -9.5 -2.5
t-17.5 -0.5q-17 15 -32 19q-6 2 -12 3q-6 8 -22 18q-6 2 -12 5l-11 2q-5 0 -11 2q-3 6 -9 16q-5 -4 -10 -5.5l-10 -3t-10 -9.5q-1 1 -15 -6l-2 11l-10 -24q-12 -11 -18 -11q-4 0 -4.5 5.5t-1.5 4.5q-15 -5 -30 -18q-1 1 -19 -13q-4 -7 -21 11l25 17l-6 3l25 14l17 22
q4 6 19 7l21 19l-10 2l28 14l15 14q8 6 19 1h2l27 -22l4 -9l15 -6l18 -12q7 -4 3 -15l28 -12l4 -12l17 -6z" />
    <glyph glyph-name="adieresis" unicode="&#xe4;" horiz-adv-x="410" 
d="M148 464q-34 0 -26 0q-20 1 -26 13q31 8 28 8q7 0 12.5 -7t11.5 -14zM371 237q-28 -23 -29 -87q-2 -16 -3 -32q-2 -28 1 -36q0 -1 19 -29.5t19 -38.5q0 -8 -9 -8q-5 0 -37 16t-37 16q-11 0 -30 -21q-4 -1 -11.5 6t-13.5 7q-5 0 -22.5 -12t-22.5 -14q-44 -14 -80 -14
q-54 0 -84 36q-28 33 -28 82q0 3 5 39.5t5 54.5q23 1 67 14q9 5 57 35q31 19 52 25q13 3 28 24q5 8 5 23q0 18 -8 26q-15 11 -29 22q-19 -14 -48 -58q-19 -29 -48 -29q-23 0 -43.5 22t-20.5 43q0 9 15.5 39t29.5 42q18 16 56 16q6 0 22 -9t22 -9q5 0 27 11t28 11
q5 0 31.5 -11t31.5 -11q6 0 9 2t9 2q16 0 37 -35q16 -28 18 -41q2 -15 -2 -40q-4 -29 -4 -39q0 -16 16 -40zM22 248l-20 -17l-13 17l4 6zM222 165q0 11 -6 18q-22 -15 -47 -38t-25 -31v-27q4 0 15.5 -4.5t16.5 -4.5q10 0 28 39t18 48zM265 524q-21 0 -34.5 15.5t-13.5 38.5
q0 10 2 19q20 18 62 28q39 8 39 -52q0 -20 -18 -34.5t-37 -14.5zM96 529q-53 0 -53 48q0 21 19.5 37t39.5 16q24 0 36 -27q5 -16 17 -47q-29 -27 -59 -27z" />
    <glyph glyph-name="atilde" unicode="&#xe3;" horiz-adv-x="410" 
d="M148 464q-34 0 -26 0q-20 1 -26 13q3 1 5 3.5t8 2.5q20 0 39 -19zM371 237q-28 -23 -29 -87q-2 -16 -3 -32q-2 -28 1 -36q0 -1 19 -29.5t19 -38.5q0 -8 -9 -8q-5 0 -37 16t-37 16q-11 0 -30 -21q-4 -1 -11.5 6t-13.5 7q-5 0 -22.5 -12t-22.5 -14q-44 -14 -80 -14
q-54 0 -84 36q-28 33 -28 82q0 3 5 39.5t5 54.5q23 1 67 14q9 5 57 35q31 19 52 25q13 3 28 24q5 8 5 23q0 18 -8 26q-15 11 -29 22q-19 -14 -48 -58q-19 -29 -48 -29q-23 0 -43.5 22t-20.5 43q0 9 15.5 39t29.5 42q18 16 56 16q6 0 22 -9t22 -9q5 0 27 11t28 11
q5 0 31.5 -11t31.5 -11q6 0 9 2t9 2q16 0 37 -35q16 -28 18 -41q2 -15 -2 -40q-4 -29 -4 -39q0 -16 16 -40zM22 248l-20 -17l-13 17l4 6zM222 165q0 11 -6 18q-22 -15 -47 -38t-25 -31v-27q4 0 15.5 -4.5t16.5 -4.5q10 0 28 39t18 48zM68 511q-20 7 -20 17q0 3 2 6
q17 19 32 32q32 29 35 27q14 2 37 3q13 -1 32 -9q10 -12 36 -12q3 0 17 -3q11 -2 16 0q5 1 9.5 -1l4.5 -2q2 0 17 12q9 7 18 4q6 -2 6 -7q0 -1 7 -4t7 -5q0 -3 -11.5 -15.5t-11.5 -15t-13 -9.5q-17 -7 -18 -9q-6 -4 -41 -9q-21 2 -46 7q-23 18 -29 18l-14 3.5t-15 1.5
q-3 -7 -9 -7.5t-15 -2.5t-9 -6q0 -1 1 -2.5t1 -2.5q-1 -2 -3 -2q-12 -3 -23 -7z" />
    <glyph glyph-name="aring" unicode="&#xe5;" horiz-adv-x="410" 
d="M278 572q0 -12 -3 -19q-24 -65 -87 -65q-26 0 -49.5 19.5t-34.5 45.5q-3 8 -3 13q0 35 12 54l9 2v1q0 8 7 17t17 8q0 -2 2 0t6.5 2t16 3t17.5 3q22 0 41 -7q11 -12 23 -23q23 -24 23 -33v0l-11 29q-1 -4 6.5 -25.5t7.5 -24.5zM148 464q-34 0 -26 0q-20 1 -26 13
q31 8 28 8q7 0 12.5 -7t11.5 -14zM371 237q-28 -23 -29 -87q-2 -16 -3 -32q-2 -28 1 -36q0 -1 19 -29.5t19 -38.5q0 -8 -9 -8q-5 0 -37 16t-37 16q-11 0 -30 -21q-4 -1 -11.5 6t-13.5 7q-5 0 -22.5 -12t-22.5 -14q-44 -14 -80 -14q-54 0 -84 36q-28 33 -28 82q0 3 5 39.5
t5 54.5q23 1 67 14q9 5 57 35q31 19 52 25q13 3 28 24q5 8 5 23q0 18 -8 26q-15 11 -29 22q-19 -14 -48 -58q-19 -29 -48 -29q-23 0 -43.5 22t-20.5 43q0 9 15.5 39t29.5 42q18 16 56 16q6 0 22 -9t22 -9q5 0 27 11t28 11q5 0 31.5 -11t31.5 -11q6 0 9 2t9 2q16 0 37 -35
q16 -28 18 -41q2 -15 -2 -40q-4 -29 -4 -39q0 -16 16 -40zM22 248l-20 -17l-13 17l4 6zM241 571q0 24 -12 27q-2 9 -16 16q-4 9 -21 9q-13 0 -16 -2t-13 -13q-9 1 -12 -10q-10 -3 -10 -29q0 -13 15 -29q9 -7 17 -15q3 -3 15 -3q21 0 26 5q1 3 12 6q2 3 8.5 19t6.5 19z
M222 165q0 11 -6 18q-22 -15 -47 -38t-25 -31v-27q4 0 15.5 -4.5t16.5 -4.5q10 0 28 39t18 48z" />
    <glyph glyph-name="ccedilla" unicode="&#xe7;" horiz-adv-x="490" 
d="M453 179q-2 0 -10.5 2t-10.5 2q0 4 6.5 10.5t9.5 6.5zM322 -118q0 -4 -13 -28.5t-16 -26.5q-4 -2 -46 0q-33 4 -40 4q-26 0 -26 4q0 2 7.5 23.5t7.5 22.5t10 -3t11 -3t14 -1.5t16 -2.5q8 0 17.5 9.5t9.5 17.5q0 5 -4 13t-4 10t-15.5 2t-16.5 1q-2 4 -33 -7l-1 38
q0 1 3.5 13.5t3.5 15.5t12 20l2 1q-78 25 -121 52q-21 13 -96 114q-1 5 2 15t4 12q1 11 -11 85q22 0 33 27q9 23 6 46q5 6 22 6q6 11 -4 31q5 -6 12 -1q-8 13 -21 39q12 0 28.5 14.5t15.5 30.5q12 -5 46 -10q2 -2 5 -16q2 -9 16 -9q5 0 19.5 2.5t20.5 2.5h71q6 0 34.5 6.5
t33.5 6.5q14 0 53 -6q13 -2 24 -14q16 -18 32 -35q16 -20 16 -39q0 -26 -36 -43q-28 -12 -47 -12q-13 0 -49 32.5t-54 32.5q-21 0 -42 -20v-12q5 -4 13 -9q-12 0 -14 -15q0 -11 -1 -22q-20 -4 -32 -31q-9 -22 -9 -46q0 -41 9 -69q3 -7 15.5 -18t17.5 -17l2 -22
q11 -12 32 -12q35 0 75 22t52 22q13 0 27.5 -13.5t14.5 -26.5q0 -8 -7 -23t-16 -19q-31 -15 -90 -33q-54 -17 -64 -17q-3 1 -7 2l-8 -38q30 -5 31.5 -5t43.5 -13q3 -40 3 -58z" />
    <glyph glyph-name="eacute" unicode="&#xe9;" horiz-adv-x="435" 
d="M388 583l-23 -14l12 34q15 -8 11 -20zM411 262q-45 -40 -75 -40q-5 0 -31.5 6.5t-31.5 6.5q-116 0 -116 -54q0 -25 43 -70.5t62 -45.5q5 0 47 21.5t48 21.5h36q0 -1 2.5 -9.5t2.5 -14.5q0 -26 -33.5 -55t-69.5 -36q-3 -1 -11 -8.5t-13 -7.5q2 0 -78 20q-17 2 -35 4
q-27 3 -40 13q-70 51 -88 78q-22 32 -22 95q0 101 36 191q17 41 55 54q35 5 70 11q41 7 60 33q51 -24 103 -49q71 -41 77 -93q2 -13 2 -72zM308 311q0 3 -27 33l-41 18q-29 -10 -60 -21q-22 -17 -22 -31q0 -11 12 -17.5t22 -6.5q4 0 3 1l30 18q0 -2 33 -18q47 4 47 6
t1.5 9.5t1.5 8.5zM192 494q-19 -10 -52 -28q-8 0 -12.5 7.5t-1.5 14.5q4 8 51.5 64.5t63.5 69.5q11 9 16 11q9 2 34 -1q22 -32 22 -41q0 -4 -4 -4l-39 -31q-1 -2 -38.5 -31t-39.5 -31zM294 546q9 10 22 20l13 -18z" />
    <glyph glyph-name="egrave" unicode="&#xe8;" horiz-adv-x="435" 
d="M388 583l-23 -14l12 34q15 -8 11 -20zM411 262q-45 -40 -75 -40q-5 0 -31.5 6.5t-31.5 6.5q-116 0 -116 -54q0 -25 43 -70.5t62 -45.5q5 0 47 21.5t48 21.5h36q0 -1 2.5 -9.5t2.5 -14.5q0 -26 -33.5 -55t-69.5 -36q-3 -1 -11 -8.5t-13 -7.5q2 0 -78 20q-17 2 -35 4
q-27 3 -40 13q-70 51 -88 78q-22 32 -22 95q0 101 36 191q17 41 55 54q35 5 70 11q41 7 60 33q51 -24 103 -49q71 -41 77 -93q2 -13 2 -72zM308 311q0 3 -27 33l-41 18q-29 -10 -60 -21q-22 -17 -22 -31q0 -11 12 -17.5t22 -6.5q4 0 3 1l30 18q0 -2 33 -18q47 4 47 6
t1.5 9.5t1.5 8.5zM209 504q19 -10 52 -28q8 0 12.5 7.5t1.5 14.5q-5 10 -46 64q-44 58 -59 70q-11 9 -16 11q-9 2 -34 -1q-31 -35 -31 -43q0 -2 3 -2l39 -31q37 -30 78 -62zM107 556q-9 10 -22 20l-13 -18z" />
    <glyph glyph-name="ecircumflex" unicode="&#xea;" horiz-adv-x="435" 
d="M388 583l-23 -14l12 34q15 -8 11 -20zM411 262q-45 -40 -75 -40q-5 0 -31.5 6.5t-31.5 6.5q-116 0 -116 -54q0 -25 43 -70.5t62 -45.5q5 0 47 21.5t48 21.5h36q0 -1 2.5 -9.5t2.5 -14.5q0 -26 -33.5 -55t-69.5 -36q-3 -1 -11 -8.5t-13 -7.5q2 0 -78 20q-17 2 -35 4
q-27 3 -40 13q-70 51 -88 78q-22 32 -22 95q0 101 36 191q17 41 55 54q35 5 70 11q41 7 60 33q51 -24 103 -49q71 -41 77 -93q2 -13 2 -72zM308 311q0 3 -27 33l-41 18q-29 -10 -60 -21q-22 -17 -22 -31q0 -11 12 -17.5t22 -6.5q4 0 3 1l30 18q0 -2 33 -18q47 4 47 6
t1.5 9.5t1.5 8.5zM346 513q5 -7 4 -8q-5 -1 -9.5 -2.5t-17.5 -0.5q-17 15 -32 19q-6 2 -12 3q-6 8 -22 18q-6 2 -12 5l-11 2q-5 0 -11 2q-3 6 -9 16q-5 -4 -10 -5.5l-10 -3t-10 -9.5q-1 1 -15 -6l-2 11l-10 -24q-12 -11 -18 -11q-4 0 -4.5 5.5t-1.5 4.5q-15 -5 -30 -18
q-1 1 -19 -13q-4 -7 -21 11l25 17l-6 3l25 14l17 22q4 6 19 7l21 19l-10 2l28 14l15 14q8 6 19 1h2l27 -22l4 -9l15 -6l18 -12q7 -4 3 -15l28 -12l4 -12l17 -6z" />
    <glyph glyph-name="edieresis" unicode="&#xeb;" horiz-adv-x="435" 
d="M394 448l-23 -14l13 34q15 -8 10 -20zM411 262q-45 -40 -75 -40q-5 0 -31.5 6.5t-31.5 6.5q-116 0 -116 -54q0 -25 43 -70.5t62 -45.5q5 0 47 21.5t48 21.5h36q0 -1 2.5 -9.5t2.5 -14.5q0 -26 -33.5 -55t-69.5 -36q-3 -1 -11 -8.5t-13 -7.5q2 0 -78 20q-17 2 -35 4
q-27 3 -40 13q-70 51 -88 78q-22 32 -22 95q0 101 36 191q17 41 55 54q35 5 70 11q41 7 60 33q51 -24 103 -49q71 -41 77 -93q2 -13 2 -72zM308 311q0 3 -27 33l-41 18q-29 -10 -60 -21q-22 -17 -22 -31q0 -11 12 -17.5t22 -6.5q4 0 3 1l30 18q0 -2 33 -18q47 4 47 6
t1.5 9.5t1.5 8.5zM305 524q-21 0 -34.5 15.5t-13.5 38.5q0 10 2 19q20 18 62 28q39 8 39 -52q0 -20 -18 -34.5t-37 -14.5zM136 529q-53 0 -53 48q0 21 19.5 37t39.5 16q24 0 36 -27q5 -16 17 -47q-29 -27 -59 -27z" />
    <glyph glyph-name="iacute" unicode="&#xed;" horiz-adv-x="242" 
d="M236 163q0 -7 -4 -11t-8 -7q-19 -35 -23 -82q5 -12 8 -37q-27 -22 -43 -22h-52q-68 0 -60 39l25 198q4 12 -1 25.5t-18 13.5q-3 0 -13.5 3.5t-17.5 3.5t-14 -3q-25 25 -25 58q0 29 18 56q15 24 25 24q3 0 3 -3q0 -5 -5 -15q2 -2 9.5 5t13 7t39 8.5t38.5 8.5q28 0 44 -50
q13 -38 13 -76q0 -25 -1 -86.5t-1 -85.5l8 -8q17 3 17 21q0 4 -1 14v14q0 11 3 20q23 -16 23 -33zM107 346q-11 18 -32 28v-24zM82 494q-19 -10 -52 -28q-8 0 -12.5 7.5t-1.5 14.5q4 8 51.5 64.5t63.5 69.5q11 9 16 11q9 2 34 -1q22 -32 22 -41q0 -4 -4 -4l-39 -31
q-37 -30 -78 -62zM184 546q9 10 22 20l13 -18z" />
    <glyph glyph-name="igrave" unicode="&#xec;" horiz-adv-x="242" 
d="M236 163q0 -7 -4 -11t-8 -7q-19 -35 -23 -82q5 -12 8 -37q-27 -22 -43 -22h-52q-68 0 -60 39l25 198q4 12 -1 25.5t-18 13.5q-3 0 -13.5 3.5t-17.5 3.5t-14 -3q-25 25 -25 58q0 29 18 56q15 24 25 24q3 0 3 -3q0 -5 -5 -15q2 -2 9.5 5t13 7t39 8.5t38.5 8.5q28 0 44 -50
q13 -38 13 -76q0 -25 -1 -86.5t-1 -85.5l8 -8q17 3 17 21q0 4 -1 14v14q0 11 3 20q23 -16 23 -33zM107 346q-11 18 -32 28v-24zM119 504q19 -10 52 -28q8 0 12.5 7.5t1.5 14.5q-5 10 -46 64q-44 58 -59 70q-11 9 -16 11q-9 2 -34 -1q-31 -35 -31 -43q0 -2 3 -2l39 -31
q37 -30 78 -62zM17 556q-9 10 -22 20l-13 -18z" />
    <glyph glyph-name="icircumflex" unicode="&#xee;" horiz-adv-x="242" 
d="M236 163q0 -7 -4 -11t-8 -7q-19 -35 -23 -82q5 -12 8 -37q-27 -22 -43 -22h-52q-68 0 -60 39l25 198q4 12 -1 25.5t-18 13.5q-3 0 -13.5 3.5t-17.5 3.5t-14 -3q-25 25 -25 58q0 29 18 56q15 24 25 24q3 0 3 -3q0 -5 -5 -15q2 -2 9.5 5t13 7t39 8.5t38.5 8.5q28 0 44 -50
q13 -38 13 -76q0 -25 -1 -86.5t-1 -85.5l8 -8q17 3 17 21q0 4 -1 14v14q0 11 3 20q23 -16 23 -33zM107 346q-11 18 -32 28v-24zM246 493q5 -7 4 -8q-5 -1 -9.5 -2.5t-17.5 -0.5q-17 15 -32 19q-6 2 -12 3q-6 8 -22 18q-6 2 -12 5l-11 2q-5 0 -11 2q-3 6 -9 16
q-5 -4 -10 -5.5l-10 -3t-10 -9.5q-1 1 -15 -6l-2 11l-10 -24q-12 -11 -18 -11q-4 0 -4.5 5.5t-1.5 4.5q-15 -5 -30 -18q-1 1 -19 -13q-4 -7 -21 11l25 17l-6 3l25 14l17 22q4 6 19 7l21 19l-10 2l28 14l15 14q8 6 19 1h2l27 -22l4 -9l15 -6l18 -12q7 -4 3 -15l28 -12l4 -12
l17 -6z" />
    <glyph glyph-name="idieresis" unicode="&#xef;" horiz-adv-x="242" 
d="M236 163q0 -7 -4 -11t-8 -7q-19 -35 -23 -82q5 -12 8 -37q-27 -22 -43 -22h-52q-68 0 -60 39l25 198q4 12 -1 25.5t-18 13.5q-3 0 -13.5 3.5t-17.5 3.5t-14 -3q-25 25 -25 58q0 29 18 56q15 24 25 24q3 0 3 -3q0 -5 -5 -15q2 -2 9.5 5t13 7t39 8.5t38.5 8.5q28 0 44 -50
q13 -38 13 -76q0 -25 -1 -86.5t-1 -85.5l8 -8q17 3 17 21q0 4 -1 14v14q0 11 3 20q23 -16 23 -33zM107 346q-11 18 -32 28v-24zM169 485q-21 0 -34.5 16t-13.5 39q0 9 2 18q20 18 62 28q39 8 39 -52q0 -20 -18 -34.5t-37 -14.5zM20 490q-53 0 -53 48q0 21 19.5 37t39.5 16
q24 0 36 -27q5 -15 17 -47q-29 -27 -59 -27z" />
    <glyph glyph-name="ntilde" unicode="&#xf1;" horiz-adv-x="470" 
d="M418 214q0 -5 -14 -57.5t-14 -57.5q0 -4 2 -22t3 -26q0 -1 7 -4q4 -3 4 -9v-47q-15 8 -30 8q-5 0 -32.5 -6.5t-33.5 -6.5q-16 0 -34 10q-21 12 -21 27q0 5 16.5 49.5t16.5 49.5q0 4 -15 33q-17 33 -21 47t-4 47q0 43 -1 51q-1 15 -20 15q-15 0 -34 -10q-41 -21 -48 -67
q-3 -39 -5 -77q-3 0 -7 -4q4 -3 8 -3q-4 -42 1 -54q29 -65 29 -84q0 -7 -2 -13q-23 -12 -58 -12q-19 0 -70 22q-4 6 -9 20q-1 32 2 86q4 62 4 85q0 35 -4 63q-2 9 2 30q4 25 4 34q0 13 -4 22l-10.5 13t-10.5 19q0 1 -11.5 18.5t-11.5 31.5q0 7 2.5 13.5t17 8t21.5 10.5
q9 -6 15 -7h12q7 -2 19 -14q9 4 25 12q0 -10 1 -17q48 -49 53 -49q10 0 25 16q13 13 14 20q3 18 -3 33q6 5 19 5q12 0 16 -7q7 -11 16 -17q13 9 29 32q2 -16 31 -23q36 -8 42 -13q11 11 33 32q17 -12 15 -71q-1 -29 4 -66q2 -17 12 -69q7 -44 7 -50zM109 405h-13l-5 -10
l24 -45zM72 512q-20 7 -20 17q0 3 3 6q16 19 32 32q32 29 34 26q16 5 41 7q11 -3 29 -12q10 -12 36 -12q2 0 16 -3q12 -2 17 0q5 1 9.5 -1l4.5 -2q2 0 17 12q9 7 18 4q6 -3 6 -5.5t7 -5.5t7 -5q0 -3 -11.5 -15.5t-11.5 -15t-15 -9.5t-17 -9q-5 -4 -40 -9q-22 2 -46 7
q-23 18 -29 18q-25 0 -25 1l-1 -3q0 2 -26 -2q-10 -3 -10 -7q0 -1 1 -3v-2q0 -2 -3 -2q-11 -4 -23 -7z" />
    <glyph glyph-name="oacute" unicode="&#xf3;" horiz-adv-x="478" 
d="M455 287q0 -48 -36 -126q-15 -31 -73 -138q-2 -3 -2 -32q-27 22 -43 27q-30 -42 -56 -42q-11 0 -76.5 31t-73.5 38q-57 58 -92 110q-6 8 -6 49q0 5 7 16q-3 9 -6 25q9 17 23 60q13 38 23.5 54t45.5 35q28 16 57 32q8 6 26 14q6 2 28 2q10 0 53 -7q49 -8 77 -16
q6 -2 43 -32q21 -17 43 -33q23 -20 32 -41q6 -13 6 -26zM302 289q0 23 -38 62q-6 6 -27 7q-2 4 -5.5 8t-9.5 4q-16 0 -20 -14.5t-5 -38.5q-1 -31 -2 -36.5t-6 -17t-5 -16.5q0 -11 19 -28q14 -11 27 -23q-1 -9 -6 -25q-9 8 -17 8q-27 0 -27 -36q0 -27 18 -46q28 -22 56 -45
q6 28 27 58q-7 0 -18 -3.5t-16 -3.5t-8 2v12q4 4 33 76q30 78 30 96zM192 494q-19 -10 -52 -28q-8 0 -12.5 7.5t-1.5 14.5q4 8 51.5 64.5t63.5 69.5q11 9 16 11q9 2 34 -1q22 -32 22 -41q0 -4 -4 -4l-39 -31q-1 -2 -38.5 -31t-39.5 -31zM294 546q9 10 22 20l13 -18z" />
    <glyph glyph-name="ograve" unicode="&#xf2;" horiz-adv-x="478" 
d="M455 287q0 -48 -36 -126q-15 -31 -73 -138q-2 -3 -2 -32q-27 22 -43 27q-30 -42 -56 -42q-11 0 -76.5 31t-73.5 38q-57 58 -92 110q-6 8 -6 49q0 5 7 16q-3 9 -6 25q9 17 23 60q13 38 23.5 54t45.5 35q28 16 57 32q8 6 26 14q6 2 28 2q10 0 53 -7q49 -8 77 -16
q6 -2 43 -32q21 -17 43 -33q23 -20 32 -41q6 -13 6 -26zM302 289q0 23 -38 62q-6 6 -27 7q-2 4 -5.5 8t-9.5 4q-16 0 -20 -14.5t-5 -38.5q-1 -31 -2 -36.5t-6 -17t-5 -16.5q0 -11 19 -28q14 -11 27 -23q-1 -9 -6 -25q-9 8 -17 8q-27 0 -27 -36q0 -27 18 -46q28 -22 56 -45
q6 28 27 58q-7 0 -18 -3.5t-16 -3.5t-8 2v12q4 4 33 76q30 78 30 96zM239 504q19 -10 52 -28q8 0 12.5 7.5t1.5 14.5q-5 10 -46 64q-44 58 -59 70q-11 9 -16 11q-9 2 -34 -1q-31 -35 -31 -43q0 -2 3 -2l39 -31q37 -30 78 -62zM137 556q-9 10 -22 20l-13 -18z" />
    <glyph glyph-name="ocircumflex" unicode="&#xf4;" horiz-adv-x="478" 
d="M455 287q0 -48 -36 -126q-15 -31 -73 -138q-2 -3 -2 -32q-27 22 -43 27q-30 -42 -56 -42q-11 0 -76.5 31t-73.5 38q-57 58 -92 110q-6 8 -6 49q0 5 7 16q-3 9 -6 25q9 17 23 60q13 38 23.5 54t45.5 35q28 16 57 32q8 6 26 14q6 2 28 2q10 0 53 -7q49 -8 77 -16
q6 -2 43 -32q21 -17 43 -33q23 -20 32 -41q6 -13 6 -26zM302 289q0 23 -38 62q-6 6 -27 7q-2 4 -5.5 8t-9.5 4q-16 0 -20 -14.5t-5 -38.5q-1 -31 -2 -36.5t-6 -17t-5 -16.5q0 -11 19 -28q14 -11 27 -23q-1 -9 -6 -25q-9 8 -17 8q-27 0 -27 -36q0 -27 18 -46q28 -22 56 -45
q6 28 27 58q-7 0 -18 -3.5t-16 -3.5t-8 2v12q4 4 33 76q30 78 30 96zM356 493q5 -7 4 -8q-5 -1 -9.5 -2.5t-17.5 -0.5q-17 15 -32 19q-6 2 -12 3q-6 8 -22 18q-6 2 -12 5l-11 2q-5 0 -11 2q-3 6 -9 16q-5 -4 -10 -5.5l-10 -3t-10 -9.5q-1 1 -15 -6l-2 11l-10 -24
q-12 -11 -18 -11q-4 0 -4.5 5.5t-1.5 4.5q-15 -5 -30 -18q-1 1 -19 -13q-4 -7 -21 11l25 17l-6 3l25 14l17 22q4 6 19 7l21 19l-10 2l28 14l15 14q8 6 19 1h2l27 -22l4 -9l15 -6l18 -12q7 -4 3 -15l28 -12l4 -12l17 -6z" />
    <glyph glyph-name="odieresis" unicode="&#xf6;" horiz-adv-x="478" 
d="M455 287q0 -48 -36 -126q-15 -31 -73 -138q-2 -3 -2 -32q-27 22 -43 27q-30 -42 -56 -42q-11 0 -76.5 31t-73.5 38q-57 58 -92 110q-6 8 -6 49q0 5 7 16q-3 9 -6 25q9 17 23 60q13 38 23.5 54t45.5 35q28 16 57 32q8 6 26 14q6 2 28 2q10 0 53 -7q49 -8 77 -16
q6 -2 43 -32q21 -17 43 -33q23 -20 32 -41q6 -13 6 -26zM302 289q0 23 -38 62q-6 6 -27 7q-2 4 -5.5 8t-9.5 4q-16 0 -20 -14.5t-5 -38.5q-1 -31 -2 -36.5t-6 -17t-5 -16.5q0 -11 19 -28q14 -11 27 -23q-1 -9 -6 -25q-9 8 -17 8q-27 0 -27 -36q0 -27 18 -46q28 -22 56 -45
q6 28 27 58q-7 0 -18 -3.5t-16 -3.5t-8 2v12q4 4 33 76q30 78 30 96zM295 514q-21 0 -34.5 15.5t-13.5 38.5q0 10 2 19q20 18 62 28q39 8 39 -52q0 -20 -18 -34.5t-37 -14.5zM126 519q-53 0 -53 48q0 21 19.5 37t39.5 16q24 0 36 -27q5 -16 17 -47q-29 -27 -59 -27z" />
    <glyph glyph-name="otilde" unicode="&#xf5;" horiz-adv-x="478" 
d="M455 287q0 -48 -36 -126q-15 -31 -73 -138q-2 -3 -2 -32q-27 22 -43 27q-30 -42 -56 -42q-11 0 -76.5 31t-73.5 38q-57 58 -92 110q-6 8 -6 49q0 5 7 16q-3 9 -6 25q9 17 23 60q13 38 23.5 54t45.5 35q28 16 57 32q8 6 26 14q6 2 28 2q10 0 53 -7q49 -8 77 -16
q6 -2 43 -32q21 -17 43 -33q23 -20 32 -41q6 -13 6 -26zM302 289q0 23 -38 62q-6 6 -27 7q-2 4 -5.5 8t-9.5 4q-16 0 -19.5 -13t-18.5 -35t-17 -36q-1 -4 8 -19.5t9 -19.5q0 -11 19 -28q14 -11 27 -23q-1 -1 -2 -1q-3 0 -9 3t-8 3q-2 -1 -2 -2q0 -4 9 -17h-27q-9 0 -11.5 -4
t-1.5 -14q2 -16 2 -21q0 -27 18 -46q28 -22 56 -45q6 28 27 58q-7 0 -18 -3.5t-16 -3.5t-8 2v12q4 4 33 76q30 78 30 96zM149 463zM108 491q-20 7 -20 17q0 3 2 6q17 19 32 42q32 19 35 17q14 2 37 3q13 -1 32 -9q10 -12 36 -12q3 0 17 -3q11 -2 16 0q5 1 9.5 -1l4.5 -2
q2 0 17 12q9 7 18 4q6 -2 6 -7q0 -1 7 -4t7 -5q0 -3 -11.5 -15.5t-11.5 -15t-13 -9.5q-17 -7 -18 -9q-6 -4 -41 -9q-21 2 -46 7q-23 18 -29 18l-14 3.5t-15 1.5q-3 -7 -9 -7.5t-15 -2.5t-9 -6q0 -1 1 -2.5t1 -2.5q-1 -2 -3 -2q-12 -3 -23 -7z" />
    <glyph glyph-name="uacute" unicode="&#xfa;" horiz-adv-x="512" 
d="M495 366l-58 -70q-17 -22 -17 -57q0 -11 7 -65q8 -60 13 -77q1 -4 11 36.5t15 34.5q8 -10 8 -98q0 -56 -8 -67q0 -5 -40 -11q-36 -5 -50 -5q-5 0 -37 17.5t-38 17.5q-4 0 -69.5 -15.5t-71.5 -15.5q-31 0 -77 21q-53 23 -59 47q-2 9 1 28q5 32 5 35q10 108 -9 211
q-1 9 -15 26.5t-14 27.5q0 26 50 45q38 14 58 14q24 0 54 -29t31 -52q0 -14 -3 -50t-3 -50q4 -2 9 22t9 26q0 -8 -9 -89.5t-9 -93.5q-1 0 40 -42q26 24 40 45q2 -3 4.5 -18t4.5 -15q39 50 39 156q0 12 -1 25v13q0 5 -22.5 44t-22.5 44q0 11 14.5 33t25.5 22q5 0 2.5 -15
t2.5 -15q8 0 24 23.5t21 35.5q10 -24 23 -24q6 0 7 4.5t6 4.5q24 0 108 -85zM202 494q-19 -10 -52 -28q-8 0 -12.5 7.5t-1.5 14.5q4 8 51.5 64.5t63.5 69.5q11 9 16 11q9 2 34 -1q22 -32 22 -41q0 -4 -4 -4l-39 -31q-1 -2 -38.5 -31t-39.5 -31zM304 546q9 10 22 20l13 -18z
" />
    <glyph glyph-name="ugrave" unicode="&#xf9;" horiz-adv-x="512" 
d="M495 366l-58 -70q-17 -22 -17 -57q0 -11 7 -65q8 -60 13 -77q1 -4 11 36.5t15 34.5q8 -10 8 -98q0 -56 -8 -67q0 -5 -40 -11q-36 -5 -50 -5q-5 0 -37 17.5t-38 17.5q-4 0 -69.5 -15.5t-71.5 -15.5q-31 0 -77 21q-53 23 -59 47q-2 9 1 28q5 32 5 35q10 108 -9 211
q-1 9 -15 26.5t-14 27.5q0 26 50 45q38 14 58 14q24 0 54 -29t31 -52q0 -14 -3 -50t-3 -50q4 -2 9 22t9 26q0 -8 -9 -89.5t-9 -93.5q-1 0 40 -42q26 24 40 45q2 -3 4.5 -18t4.5 -15q39 50 39 156q0 12 -1 25v13q0 5 -22.5 44t-22.5 44q0 11 14.5 33t25.5 22q5 0 2.5 -15
t2.5 -15q8 0 24 23.5t21 35.5q10 -24 23 -24q6 0 7 4.5t6 4.5q24 0 108 -85zM239 504q19 -10 52 -28q8 0 12.5 7.5t1.5 14.5q-5 10 -46 64q-44 58 -59 70q-11 9 -16 11q-9 2 -34 -1q-31 -35 -31 -43q0 -2 3 -2l39 -31q37 -30 78 -62zM137 556q-9 10 -22 20l-13 -18z" />
    <glyph glyph-name="ucircumflex" unicode="&#xfb;" horiz-adv-x="512" 
d="M495 366l-58 -70q-17 -22 -17 -57q0 -11 7 -65q8 -60 13 -77q1 -4 11 36.5t15 34.5q8 -10 8 -98q0 -56 -8 -67q0 -5 -40 -11q-36 -5 -50 -5q-5 0 -37 17.5t-38 17.5q-4 0 -69.5 -15.5t-71.5 -15.5q-31 0 -77 21q-53 23 -59 47q-2 9 1 28q5 32 5 35q10 108 -9 211
q-1 9 -15 26.5t-14 27.5q0 26 50 45q38 14 58 14q24 0 54 -29t31 -52q0 -14 -3 -50t-3 -50q4 -2 9 22t9 26q0 -8 -9 -89.5t-9 -93.5q-1 0 40 -42q26 24 40 45q2 -3 4.5 -18t4.5 -15q39 50 39 156q0 12 -1 25v13q0 5 -22.5 44t-22.5 44q0 11 14.5 33t25.5 22q5 0 2.5 -15
t2.5 -15q8 0 24 23.5t21 35.5q10 -24 23 -24q6 0 7 4.5t6 4.5q24 0 108 -85zM366 503q5 -7 4 -8q-5 -1 -9.5 -2.5t-17.5 -0.5q-17 15 -32 19q-6 2 -12 3q-6 8 -22 18q-6 2 -12 5l-11 2q-5 0 -11 2q-3 6 -9 16q-5 -4 -10 -5.5l-10 -3t-10 -9.5q-1 1 -15 -6l-2 11l-10 -24
q-12 -11 -18 -11q-4 0 -4.5 5.5t-1.5 4.5q-15 -5 -30 -18q-1 1 -19 -13q-4 -7 -21 11l25 17l-6 3l25 14l17 22q4 6 19 7l21 19l-10 2l28 14l15 14q8 6 19 1h2l27 -22l4 -9l15 -6l18 -12q7 -4 3 -15l28 -12l4 -12l17 -6z" />
    <glyph glyph-name="udieresis" unicode="&#xfc;" horiz-adv-x="512" 
d="M495 366l-58 -70q-17 -22 -17 -57q0 -11 7 -65q8 -60 13 -77q1 -4 11 36.5t15 34.5q8 -10 8 -98q0 -56 -8 -67q0 -5 -40 -11q-36 -5 -50 -5q-5 0 -37 17.5t-38 17.5q-4 0 -69.5 -15.5t-71.5 -15.5q-31 0 -77 21q-53 23 -59 47q-2 9 1 28q5 32 5 35q10 108 -9 211
q-1 9 -15 26.5t-14 27.5q0 26 50 45q38 14 58 14q24 0 54 -29t31 -52q0 -14 -3 -50t-3 -50q4 -2 9 22t9 26q0 -8 -9 -89.5t-9 -93.5q-1 0 40 -42q26 24 40 45q2 -3 4.5 -18t4.5 -15q39 50 39 156q0 12 -1 25v13q0 5 -22.5 44t-22.5 44q0 11 14.5 33t25.5 22q5 0 2.5 -15
t2.5 -15q8 0 24 23.5t21 35.5q10 -24 23 -24q6 0 7 4.5t6 4.5q24 0 108 -85zM305 514q-21 0 -34.5 15.5t-13.5 38.5q0 10 2 19q20 18 62 28q39 8 39 -52q0 -20 -18 -34.5t-37 -14.5zM136 519q-53 0 -53 48q0 21 19.5 37t39.5 16q24 0 36 -27q5 -16 17 -47q-29 -27 -59 -27z
" />
    <glyph glyph-name="dagger" unicode="&#x2020;" horiz-adv-x="387" 
d="M199 3q-1 -16 -4 -16q-1 0 -7.5 4t-12.5 4q-5 0 -7 -4t-3 -4q-3 0 -9 7q0 10 -2.5 43t-2.5 40q1 22 -9.5 68t-10.5 44q0 4 1 18q1 11 0 17q-1 10 -6 17q9 -9 11 -3q6 15 6 32q0 14 -4 33t-4 22q0 80 -4 120q-38 1 -46.5 4.5t-4.5 3.5q-6 0 11 -8q21 -9 21 -14q0 -2 -3 -3
q3 2 -98 23q-12 20 -12 45q0 20 9 39l116 7q-3 31 -9 75q-2 0 -2 2t2 8t2 8q0 4 -3 4q4 2 4 6q0 2 -2.5 7.5t-1.5 7.5q7 12 15 12q3 0 15 -5l28 -13q2 0 -6.5 7.5t-5.5 7.5q43 0 48 -2q17 -4 14 -39q0 -5 -6 -3.5t-6 -0.5q4 -23 7 -56q-1 -8 -2 -35q23 0 66 3q22 1 44 3
q20 0 20 -17q0 -4 -1.5 -12t-1.5 -11q0 -32 -19 -52q-44 0 -67 3t-18 3q-7 0 -23 -6l7 -38l-14 19l-4 -85l-10 -68l19 20l-5 -48q2 -86 0 -88q-1 -3 -9 -156z" />
    <glyph glyph-name="degree" unicode="&#xb0;" horiz-adv-x="538" 
d="M244 426q8 5 24 34q19 36 26 45q5 28 5 33q-1 6 -5 16t-3 18l2 -1q4 0 -19 46q-3 2 -10 2q-1 2 0 2.5t0 8.5q-16 10 -13 19q-2 0 -8 -1q-4 -1 -6 0t-1 8q-4 -2 -8 2.5t-8 4.5q-2 -2 -3 0q-1 4 -9 4q-4 0 -6.5 1.5t-6 1.5t-23.5 3t-23 3t-17.5 -3t-17.5 -3t-11.5 -1.5
t-12.5 -1.5q-8 0 -9 -4q-1 -2 -3 0q-4 0 -8 -4.5t-8 -2.5q1 -7 -1 -8t-6 0q-6 1 -8 1q3 -10 -13 -19q-1 -8 1.5 -8.5t2.5 -1.5q-11 0 -14 -3q-14 -21 -19 -55l-2 -36q0 4 5 -21q19 -33 53 -76q20 -13 53 -24q28 -9 35 -9q10 0 38 7q37 10 57 23zM192 462q9 4 19 10
q5 7 12 28q13 36 13 35q0 40 -19 45q-3 10 -9 17q1 0 -9 4.5t-9 5.5l-3 7q-7 7 -35 7q-23 0 -28 -5l-6 -7q1 -1 -5 -6.5t-5 -5.5q-17 1 -21 -17q-11 -3 -13.5 -17t-4.5 -27q-1 -9 6 -22q10 -19 11 -21q6 -6 18 -21q9 -4 19 -13q5 -6 26 -6q36 0 43 9z" />
    <glyph glyph-name="cent" unicode="&#xa2;" horiz-adv-x="490" 
d="M462 505q0 -26 -36 -43q-28 -12 -47 -12q-13 0 -49 32.5t-54 32.5q-21 0 -42 -20v-12q5 -4 13 -9q-12 0 -14 -15q0 -11 -1 -22q-20 -4 -32 -31q-9 -22 -9 -46q0 -41 9 -69q3 -7 15.5 -18t17.5 -17l2 -22q11 -12 32 -12q35 0 75 22t52 22q13 0 27.5 -13.5t14.5 -26.5
q0 -8 -7 -23t-16 -19q-46 -22 -126 -43l-9 -32l9 -61q-11 3 -31 -8q-23 -13 -36 -15q0 2 4.5 26t4.5 41q-3 20 -6 52q-79 25 -123 53q-21 13 -96 114q-1 5 2 15t4 12q1 11 -11 85q22 0 33 27q9 23 6 46q5 6 22 6q6 11 -4 31q5 -6 12 -1q-8 13 -21 39q12 0 28.5 14.5
t15.5 30.5q12 -5 46 -10q2 -2 5 -16q2 -9 16 -9q5 0 19.5 2.5t20.5 2.5h25l9 52l-9 52q24 -28 53 -28q6 0 11 2v-76q48 11 50 11q14 0 53 -6q13 -2 24 -14q16 -18 32 -35q16 -20 16 -39zM205 206l-15 37q-5 0 -16.5 -4t-11.5 -7q3 0 22 -13t21 -13z" />
    <glyph glyph-name="sterling" unicode="&#xa3;" horiz-adv-x="552" 
d="M406 386q24 1 24 -15q0 -3 -1.5 -11.5t-1.5 -12.5q0 -20 -24 -44q-53 0 -81.5 3.5t-22.5 3.5q-6 0 -32 -11q-3 -15 -3 -21q-1 -18 -19 -63.5t-18 -44.5q0 -30 8 -30q21 16 25 16q1 0 1 -1q0 -2 -6 -13t-6 -16q0 -8 24 -20.5t38 -12.5q2 0 14 10t15 10q2 0 12.5 -7
t13.5 -7q2 0 12 3t15 2q34 0 37 27q6 51 14 67q2 -1 20.5 10.5t29.5 11.5q13 0 13 -11q0 -6 -5.5 -16t-5.5 -11q0 -2 14.5 -17.5t14 -19t1 -11.5t1.5 -12q0 -29 -2 -36q-3 -15 -20 -37q-20 -29 -38 -29q-2 0 -7 3t-7 3q-13 0 -26 -16q-4 -4 -13 -29q-4 2 -11 7
q-30 34 -32 35t-25 2q-11 1 -15 1q-37 0 -68 -13q-6 -7 -20 -19q-4 0 -12 -2l-74 26h-7q-6 -12 -11 -12t-15 9t-19 9q-2 0 -51 -18h-7q-20 55 -20 52q0 13 7 17q21 10 35.5 31.5t16.5 40.5q0 2 3 8t3 11q0 1 14 13t12 18q-2 3 -2 7q0 5 5.5 22t5.5 32q0 20 -9 45
q-21 5 -97 5q-16 9 -16 31q0 19 12 43l69 4q-5 45 -21 69q-4 5 -1 23l6 30q2 13 -7 13q-5 0 -7.5 -1.5t-3.5 -1.5q10 35 54 76q43 35 85 69q-5 1 -11 2q-16 -3 -18 -3q-5 0 -5 3q3 0 29.5 15t34.5 16q-2 -3 -11 -30q2 -2 90 -2q11 -3 55 -16q34 -10 39 -10q1 0 18.5 -8
t30.5 -8q6 0 11 2q13 -20 27 -40q16 -27 16 -50q0 -74 -32 -94q-8 9 -46 64q-28 42 -54 55l-7 7t-12 6q-4 0 -12.5 -3.5t-12.5 -3.5q-19 29 -34 29q-4 0 -12 -1.5t-12 -1.5l-5 -20q-1 -5 -18 -7t-15 -10q-6 -4 -17 -33t-11 -37q0 -15 15 -45q19 -38 22 -50q17 -4 20 -7
q7 -3 33 -3q25 0 71 3z" />
    <glyph glyph-name="section" unicode="&#xa7;" 
 />
    <glyph glyph-name="bullet" unicode="&#x2022;" horiz-adv-x="529" 
d="M455 387q0 -71 -5 -105q-10 -57 -42 -116q-11 -15 -21 -31q-18 -28 -18 -34q-45 37 -65 44q-4 -6 19.5 -31t23.5 -29t-5 -4q-18 0 -51.5 -1t-49.5 -1q-106 0 -157 52q-16 16 -40 57q-33 55 -41 67q-6 8 -6 49q0 4 2 4q1 0 6.5 -5t7.5 -3q-8 18 -15 45q9 17 23 60
q13 38 23.5 54t53.5 41l66 38q-7 -18 -14 -35q-20 -41 -20 -46q0 -1 1 -1q3 1 49 39.5t52 38.5q48 0 99 -15q6 -2 43 -32q21 -17 43 -33q23 -20 32 -41q6 -13 6 -26z" />
    <glyph glyph-name="paragraph" unicode="&#xb6;" horiz-adv-x="463" 
 />
    <glyph glyph-name="germandbls" unicode="&#xdf;" horiz-adv-x="582" 
d="M349 476q0 45 -9 75q-11 35 -31 32q-28 17 -45 32q-12 9 -14 9t-13 -6q-16 -9 -38 -18q-4 0 1 -1t9.5 -2.5t0.5 -1.5q-19 0 -19 -40q0 -21 5 -53l5 -32q0 -39 -5 -112.5t-5 -108.5q15 -118 15 -184q0 -46 -15 -83q-83 -22 -105 -22q-42 0 -42 99q0 41 20 110q3 9 -5 42
q4 9 4 19q0 54 -2.5 64t-17.5 20q-24 16 -47 44l2 50q18 -6 32 -6q21 0 21 15q0 5 -2.5 10t-3.5 10q3 15 2 41q-4 14 -15.5 31t-15.5 27q2 0 6 12t6 12q-1 19 1 23l18 42q7 7 28.5 15t29.5 19q3 -2 6 -2q6 0 22 7.5t27 7.5q4 0 11 -4t9 -4t2 2q2 -1 4 -1q1 0 2 7t7 5
q20 0 31 11.5t12 11.5q4 0 45.5 -12.5t46 -12.5t68 -28t67.5 -28q6 0 10 4q8 -13 21 -41q25 -82 25 -125q0 -28 -27 -86q-5 -12 -48 -36.5t-43 -29.5t37 -18.5t37 -18.5q10 -23 29 -50q8 -18 16 -35q13 -29 13 -55q0 -34 -19 -71l-11 -28q-1 0 -1 -3q0 -5 9 -21t9 -19
q0 -2 -3 -2q0 -7 -8 -13t-10 -14q-5 -21 -19 -57q-6 -10 -42 -31l-48 -28q-19 -12 -95 -24q-2 0 -17 8t-20 8q10 0 -50 9q-70 10 -70 29q0 18 60 38q80 -31 88 -30q67 8 67 86q0 12 -1.5 31.5t-1.5 26.5q0 18 -1 22q3 39 2 93q-21 38 -47 98q-1 1 1 19q1 13 -4.5 13
t-7.5 8.5t-7 8.5q-11 0 -49 15l-7 31q0 -8 10 25q11 10 47 24q21 7 40.5 15t19.5 81zM542 200q-2 -1 -3 -1q-14 0 -22 12q5 7 11 24zM218 309q-12 24 -3 26q0 -2 1.5 -11.5t1.5 -14.5z" />
    <glyph glyph-name="registered" unicode="&#xae;" horiz-adv-x="425" 
d="M182 322q-75 0 -128 54t-53 130q0 75 53 128t128 53t127.5 -53.5t52.5 -129.5q0 -75 -52.5 -128.5t-127.5 -53.5zM182 643q-58 1 -97 -39.5t-39 -99.5q0 -57 40.5 -98t95.5 -41t95 41t40 98t-40 97t-95 42zM187 600q11 4 32 -2q36 -11 36 -46q0 -45 -44 -54l49 -76h-45
l-49 75h-15v-75h-38v178h74zM188 568h-39v-29h44q25 0 25 18q0 11 -30 11z" />
    <glyph glyph-name="copyright" unicode="&#xa9;" horiz-adv-x="814" 
d="M366 -21q-149 0 -253 104.5t-104 254.5t104 255t253 105t253.5 -105t104.5 -255t-104.5 -254.5t-253.5 -104.5zM366 625q-116 0 -200.5 -84t-84.5 -203t84.5 -202.5t200.5 -83.5t200.5 83.5t84.5 202.5t-84.5 203t-200.5 84zM477 397q-23 81 -101 81q-60 0 -95 -39
t-35 -100q0 -55 31 -94q35 -43 97 -43q83 0 103 79h74q-17 -75 -63.5 -113.5t-112.5 -38.5q-92 0 -147 60t-55 152q0 89 56 150t147 61q65 0 112 -39q50 -42 63 -116h-74z" />
    <glyph glyph-name="trademark" unicode="&#x2122;" horiz-adv-x="492" 
d="M377 607l-56 -140h-27l-52 134v-134h-43v211h58l51 -129l52 129h59v-211h-42v140zM103 634v-167h-43v167h-66v44h173v-44h-64z" />
    <glyph glyph-name="acute" unicode="&#xb4;" horiz-adv-x="410" 
d="M162 724q-19 -10 -52 -28q-8 0 -12.5 7.5t-1.5 14.5q5 10 46 64q44 58 59 70q11 9 16 11q9 2 34 -1q31 -35 31 -43q0 -2 -3 -2l-39 -31q-1 -2 -38.5 -31t-39.5 -31zM264 776q9 10 22 20l13 -18z" />
    <glyph glyph-name="dieresis" unicode="&#xa8;" horiz-adv-x="375" 
d="M275 724q-21 0 -34.5 15.5t-13.5 38.5q0 10 2 19q20 18 62 28q39 8 39 -52q0 -20 -18 -34.5t-37 -14.5zM76 729q-53 0 -53 48q0 21 19.5 37t39.5 16q24 0 36 -27q5 -16 17 -47q-29 -27 -59 -27z" />
    <glyph glyph-name="AE" unicode="&#xc6;" horiz-adv-x="1018" 
d="M622 252q0 2 5 18t5 19q0 2 -1 2t-19 5.5t-20 3.5q29 -50 30 -48zM390 26l-13 3q-5 1 -8 9t-2 11q3 11 46.5 35t43.5 26q2 6 -10.5 18.5t-17.5 14.5l2 7q1 4 14 14q-9 13 -22 19q12 10 25 25q3 12 -1 21q-11 24 -51 26q-13 1 -70 -7t-62.5 -10.5t-41.5 -41.5
q-38 -42 -41 -55q-1 -4 -1 -10q0 -12 6.5 -38.5t5.5 -32.5q-6 -24 -78 -41q-56 -13 -75 -12l-37 2q-6 0 -12 16q-4 13 -5 18q0 2 3 12q9 35 47 71q12 12 62 42l-10 54q1 3 5 3q11 -5 34 -14q16 14 27 41q15 41 16 43q10 19 58 50q6 35 14 49q44 77 55 76l9 -6q47 32 81 110
q56 102 77 101q5 -3 16.5 -6.5t18.5 -6.5q-3 11 6 11q11 0 14 -9.5t6 -9.5q7 0 8 10q40 5 53 9q29 7 46 27q2 0 7 -5t8 -7q36 -22 64 -21l149 2q19 0 21 -5q35 -79 35 -100q0 -26 -29 -77q-4 -9 -20 -9q-10 0 -20 7q-21 22 -41 44q-41 41 -50 41q-3 0 -8.5 -7t-8.5 -9
q-6 -5 -26 -5h-53q-24 0 -37 -28v-60q5 -8 28 -8q18 0 24 4q10 6 23 34q9 1 31 -4q27 -7 33 -8q1 0 16 -53q9 -35 30 -53q5 -13 5 -9q-35 -6 -35 -30q0 -3 5 -20t5 -20q0 -5 -8 -30q-8 -28 -16 -40q-4 -7 -28 -7q-25 0 -34 23q-13 34 -44 55q-8 -2 -6 -29q1 -31 2 -31
q-11 -2 -22 -11q-1 -18 -13.5 -45.5t-12.5 -26.5q0 -4 5.5 -11.5t9.5 -7.5q10 0 21.5 39t31.5 39q-3 0 18 -7q-3 -10 -12 -22q-11 -16 -23 -31q-18 -24 -18 -34t13 -27q14 -20 26 -20q3 0 22 10.5t22 10.5q2 0 13 -7t14 -7q2 0 12.5 2.5t14.5 2.5q76 -2 147 129
q14 -10 46 -35q1 -2 3 -2q7 0 16 17q7 14 7 13q0 -2 -11 -39t-11 -41q-1 -3 0.5 -11t1.5 -12q0 -30 -2 -38q-4 -15 -20 -38q-22 -30 -40 -30q-2 0 -7 3t-7 3q-13 0 -27 -16q-4 -4 -14 -30q-4 2 -11 7q-26 29 -62 36q-29 1 -57 3h-55q-39 0 -70 -13q-7 -8 -21 -19
q-4 -1 -13 -3l-45 27h-8q-6 -13 -11 -13t-15 9.5t-20 9.5q-2 0 -52 -18h-8q-7 17 -19 45zM416 351v103l-63 -80l20 -23h43zM411 155q-5 -7 -13 -5q-15 4 -14 4l6 13q8 -2 21 -12zM316 90q-3 -2 -7 -2q-8 0 -6 10q1 2 3 5t3 5l11 -2zM316 544q-6 -1 -17 -5l4 16q6 -4 13 -11z
" />
    <glyph glyph-name="Oslash" unicode="&#xd8;" horiz-adv-x="756" 
d="M744 126q-9 -9 -9 -17l-6 13q7 8 15 4zM570 683l-26 -59q6 -3 10 -3q2 0 20 9q12 -16 22 -16q8 0 12 4q2 -8 10 -24q8 -10 38 -31q-1 -1 -10 -11.5t-9 -15.5q0 -3 21.5 -27t26.5 -38q14 -38 39 -156q7 -1 19 12l-52 -128q-35 -80 -88 -135q-17 -7 -34 -15
q-28 -14 -25 -35l-149 -9q-49 -3 -115 12q-10 -8 -25 -24q-8 -18 -42 -85l-23 29q-10 1 -22 -1.5t-13 -2.5q-8 0 -11 13q10 31 34 86q2 3 10 1t10 1.5t3 8.5q-22 8 -24 8q-5 0 -14.5 -7.5t-14.5 -7.5q1 0 -57 23q-3 -3 -3 -19q-11 10 -30 32q2 2 8 1q7 -3 11 -3q7 0 23 15.5
t16 23.5q0 6 -8.5 16t-14.5 10q-5 0 -8 -1.5t-8 -1.5q-7 0 -21 9.5t-13 15.5q0 10 5 54q3 33 3 54q0 41 -11 74h-10h-2q0 -4 -14 -18q-13 13 -13 18q5 2 15 4q-8 1 -8 17t-22 22q10 27 43 60q30 30 60 61q4 3 4 19q0 3 -7.5 19t-9.5 39q-2 -1 -2 2q0 9 12 43q39 4 35 29
q7 -9 14 -9q4 0 11 2.5t10 2.5q10 0 19 -14q3 -4 3 -9q0 -3 -2.5 -8t-2.5 -7q0 -4 9 -9q37 32 37 64q0 13 -7 25q19 -1 30 -8.5t13 -7.5q5 0 4 1.5t4 1.5t20 -6.5t22 -8.5q4 8 11 23q14 -8 24 -8q5 0 22 15.5t19 16.5l-32 -41q10 -12 19.5 -22.5t22.5 -10.5q5 0 16.5 2
t16.5 2q3 0 17 -3q10 22 15 31q11 16 26 24l1 -1l2 19q0 9 6 7t34 3q1 -2 3 -4q-3 -11 -3 -12q-1 -7 7 -9q3 2 7 4q9 6 16 4q5 -2 5 -16q0 -7 4 -7q2 0 6 2zM406 551q-13 4 -27 4q-36 0 -73 -23q-32 -20 -32 -27q-16 -7 -49 -31q-13 -13 -16 -41q-3 -20 -1 -26
q-9 -7 -15 -14q-16 -18 -20 -41q-5 -25 3 -86q3 -24 30 -65l46 -64l15 28q-1 2 -1 6q0 5 4 21t4 21t-3 5q22 18 28 31q8 18 23.5 31t16.5 17q0 1 5 55q4 26 12 63l10 36q2 10 8 12l3 2v0.5t0 -0.5q10 7 11.5 25t17.5 61zM406 301q-15 -25 -34 -81q-1 -8 -20 -18.5t-21 -19.5
q4 -21 5 -53q-11 -12 -31 -33q5 -3 35 -3q66 0 86 8q3 1 10.5 6t12.5 5q7 0 10 -3q0 14 18.5 31.5t19.5 19.5q4 25 15 72q1 1 25 12q0 11 1 28q3 21 3 25q11 -3 11 43q0 113 -72 147q-18 -15 -46 -98z" />
    <glyph glyph-name="plusminus" unicode="&#xb1;" 
 />
    <glyph glyph-name="yen" unicode="&#xa5;" horiz-adv-x="644" 
d="M116 111q-23 4 -26 11q1 -1 1 22q0 18 23 42q56 0 85.5 -2t23.5 -2q6 0 21 -5q-5 13 -9 19q-8 1 -16 3q-12 3 -17 14q18 -2 25 18q3 8 6 37q-6 0 -25 5t-22 5q-40 0 -55 -10q3 4 -31 8q-16 4 -16 25q0 16 11 41l100 2q0 19 -3 51q0 3 -17 28l-45 65q-32 40 -59 58
q8 11 8 20q0 27 -89 45v54q0 5 18 19q22 16 27 24q8 0 14 -12q23 12 49 12q5 0 25.5 -6t25.5 -6q16 0 40 8q1 -24 32 -36l50 -18q-16 -42 -16 -56q0 -41 36 -104q13 -23 61 -93q9 4 20 20q10 13 44 73q43 75 43 89q0 5 -20 29t-20 31q0 49 112 49q43 0 49 -2
q12 -3 25.5 -12.5t13.5 -16.5q0 -6 -7 -15t-14 -17q3 -3 9 -1q11 2 15 2q0 -2 -2 -9.5t-2 -9.5q-22 0 -32 -8.5t-8 -8.5q-5 0 -4 2t-4 2q-7 0 -39 -40q-64 -79 -98 -192q-7 -4 -18 -17l92 2q25 0 25 -10q0 -2 -1.5 -9t-1.5 -12q0 -21 -25 -45q-72 0 -114 7v-5q0 -63 35 -63
q1 -1 1 -2q0 -3 -15 -20q8 -1 9 -3.5t3 -2.5q51 0 66 10q-4 -4 31 -8q16 -5 16 -25q0 -17 -12 -41l-131 -3q2 -31 2 -48q0 2 23.5 -12t23.5 -45q0 -7 -1 -14q-9 -4 -17 -4q-9 0 -25 6.5t-27 6.5q-9 0 -55 -13l-134 7q-2 60 59 72q5 1 7 32q-50 -8 -52 -7l40 15
q-24 14 -48 14q-16 0 -39.5 -7t-33.5 -7z" />
    <glyph glyph-name="mu" unicode="&#xb5;" horiz-adv-x="662" 
d="M504 210q2 -15 -5 -25q-4 6 5 25zM625 260q-8 -16 -9 -31l4 -30q4 -34 4 -60q0 -98 -51 -101q-44 -4 -99 5q-65 9 -76 28q31 2 69.5 29t66.5 68q-7 7 -12 6q-2 14 6 34l15 5q0 -6 4 -16q10 11 9 33q10 6 27 7q23 2 13 39q12 -20 29 -16zM372 -36q-6 -7 -6.5 -25.5
t-9.5 -20.5l-43 -6q-3 2 -6 16q0 5 8 27q12 33 14 37l14 1zM371 84l-20 -8l-1 12zM401 31q-12 -1 -21 0l-10 2l3 22l14 1q7 -9 14 -25zM397 3h-7l-1 18h7zM103 196l-8 -2q2 -10 13 -15zM328 382q-40 -10 -59 -30q-4 -3 -32 -48q0 -3 2.5 -7.5t2.5 -10.5t-4 -20t-4 -22
q-2 -55 0 -74q3 -40 30 -61q14 -10 68 -31q13 -5 15 -21q-19 -28 -88 -33q-12 1 -34 2q-5 -1 -45.5 -12t-46.5 -11q-22 -2 -43 7q-38 15 -58 21q83 89 79 133q0 4 -2 13q-11 -8 -30 -17q-6 1 -18 -3q-13 -11 -11 -24l-41 -4q-22 21 -12 78q9 4 24 13q3 1 8 -3.5t8 -2.5
q5 3 6.5 12.5t6.5 12.5q17 13 29 24q24 210 24 205q-1 18 -22 23q5 45 5 42q0 31 -22 31q-7 0 -18 -4l-4 52q-1 14 19 39q9 12 56 15q51 4 158 -7q3 -3 6 -18l-30.5 -43.5t-28.5 -65.5q8 -29 17 -67q0 -3 -3 -60q2 5 4 8q31 7 40 17t19 23q4 5 3 5q-1 1 -5.5 -1.5t-7.5 -3.5
q2 2 7 4q8 7 11.5 12t19.5 15q20 12 24 15q4 4 10.5 -21.5t6.5 -43.5q0 -15 -6 -12q-11 -10 -11 -19q0 -2 1 -5t1 -4q0 -6 -25 -12z" />
    <glyph glyph-name="mu" unicode="&#x3bc;" horiz-adv-x="662" 
d="M504 210q2 -15 -5 -25q-4 6 5 25zM625 260q-8 -16 -9 -31l4 -30q4 -34 4 -60q0 -98 -51 -101q-44 -4 -99 5q-65 9 -76 28q31 2 69.5 29t66.5 68q-7 7 -12 6q-2 14 6 34l15 5q0 -6 4 -16q10 11 9 33q10 6 27 7q23 2 13 39q12 -20 29 -16zM372 -36q-6 -7 -6.5 -25.5
t-9.5 -20.5l-43 -6q-3 2 -6 16q0 5 8 27q12 33 14 37l14 1zM371 84l-20 -8l-1 12zM401 31q-12 -1 -21 0l-10 2l3 22l14 1q7 -9 14 -25zM397 3h-7l-1 18h7zM103 196l-8 -2q2 -10 13 -15zM328 382q-40 -10 -59 -30q-4 -3 -32 -48q0 -3 2.5 -7.5t2.5 -10.5t-4 -20t-4 -22
q-2 -55 0 -74q3 -40 30 -61q14 -10 68 -31q13 -5 15 -21q-19 -28 -88 -33q-12 1 -34 2q-5 -1 -45.5 -12t-46.5 -11q-22 -2 -43 7q-38 15 -58 21q83 89 79 133q0 4 -2 13q-11 -8 -30 -17q-6 1 -18 -3q-13 -11 -11 -24l-41 -4q-22 21 -12 78q9 4 24 13q3 1 8 -3.5t8 -2.5
q5 3 6.5 12.5t6.5 12.5q17 13 29 24q24 210 24 205q-1 18 -22 23q5 45 5 42q0 31 -22 31q-7 0 -18 -4l-4 52q-1 14 19 39q9 12 56 15q51 4 158 -7q3 -3 6 -18l-30.5 -43.5t-28.5 -65.5q8 -29 17 -67q0 -3 -3 -60q2 5 4 8q31 7 40 17t19 23q4 5 3 5q-1 1 -5.5 -1.5t-7.5 -3.5
q2 2 7 4q8 7 11.5 12t19.5 15q20 12 24 15q4 4 10.5 -21.5t6.5 -43.5q0 -15 -6 -12q-11 -10 -11 -19q0 -2 1 -5t1 -4q0 -6 -25 -12z" />
    <glyph glyph-name="ordfeminine" unicode="&#xaa;" horiz-adv-x="627" 
d="M27 242h12l6 -32l-18 17v15zM618 -81q3 4 34 18.5t39 14.5q3 0 13 -18t24 -24h-14q-4 0 -41 4.5t-55 4.5zM-14 11q12 22 12 56l20 2q13 1 22 -1q16 46 102 147q91 106 111 151q2 7 26 29q21 19 21 32q0 11 -36 21q-23 7 -46 13h112q39 0 75 56q30 48 30 75q0 25 -25 39
q12 27 23 27q5 0 5 -4t5 -4t21.5 10t21.5 10h45q27 0 49 -19t22 -48q0 -37 -39 -81l-74 -72q-2 -7 7 -24q-18 -10 -8 -37q-21 -7 -54 -26q-6 -15 -25 -42q-15 -9 -38 -30q-20 -29 -51.5 -89.5t-31.5 -68.5q0 -26 48 -38q28 -7 56 -7q41 0 65 25l42 48q30 28 86 33
q21 -19 21 -55q0 -4 -1 -11v-11q0 -20 6.5 -29.5t26 -16.5t34.5 -7q4 0 11 4t11 4q11 0 60 -39q-17 -10 -31 -10q-5 0 -49 10t-49 10t-67.5 -20.5t-67.5 -20.5t-24 8.5t-23 8.5q-5 0 -30.5 -6t-30.5 -6q8 0 -31 2q-28 1 -46 -1v16q-6 3 -23 3q-83 0 -118 -13q-14 -5 -61 -52
h-15q1 4 1 9q0 14 -8.5 33t-11.5 19q-5 0 -5 -2v0q0 -2 -5 -2q-11 0 -16.5 8t-10.5 16q-28 -18 -46 -32zM-27 516q42 32 60 74q12 33 23 67q6 13 25 13q21 0 49 -20q38 -28 39.5 -28.5t26.5 -0.5q5 0 19 2t20 2q4 0 17.5 -6t18.5 -6t42 20.5t42 20.5q4 0 11.5 -10.5
t13.5 -10.5q4 0 12 8q3 -2 10 -31q-44 -17 -124 -32q-25 -4 -51 -7q-38 -9 -62 -38q4 -10 20 -15q0 -3 -1 -11q-17 -13 -41 -13q-5 0 -9 2t-10 2q-4 0 -15.5 -16t-18.5 -19q-20 -9 -57 -18q-47 -11 -59 -15q10 9 27 31q1 1 1 23q0 35 -15 35q-6 0 -9.5 -1.5t-4.5 -1.5z
M160 810q-6 7 -4 8q5 1 9 3q5 2 17 0q18 -15 32 -19q6 -1 13 -3q5 -7 22 -18q6 -2 11 -4l11 -2q5 -1 11 -2l-1 1v0q5 -5 11 -12q4 1 11 -1q4 2 9 4t10 10q0 -2 14 5l3 -11q5 12 10 25q12 10 18 10q4 0 4.5 -5.5t0.5 -4.5q15 6 31 19q0 -2 19 12q4 7 20 -10l-25 -17l6 -4
l-25 -14l-16 -21q-4 -6 -19 -8l-22 -19l11 -2l-29 -14l-15 -14q-7 -6 -19 0l-2 -1l-27 22l-3 9l-15 7l-19 11q-6 4 -3 15l-27 13l-4 11l-17 7z" />
    <glyph glyph-name="ordmasculine" unicode="&#xba;" horiz-adv-x="469" 
d="M442 83q0 13 1 20v0q1 -7 2 -13q-6 -36 -28 -62q-31 -36 -90 -36q-7 0 -51 4.5t-50 4.5t-42 -6q-39 -7 -39 -10q0 -2 15.5 9t15.5 15q0 2 -5 2q-14 -2 -46.5 -13l-32.5 -11q-17 0 -56.5 10.5t-44.5 14.5q3 32 36 82q51 79 54 85q14 8 35 28q12 18 24 50l20 52
q-16 17 -38 17q-15 0 -35 -55q-24 -11 -47 -11q-14 0 -23 21q-8 17 -8 33q0 93 76 107q11 2 25.5 -3t27.5 -4q6 0 -16.5 11t-17.5 11q7 1 138 -15q71 12 90 12q38 0 53 -20q19 -25 18 -103v-20l-20 -8q-5 -4 -17.5 -23.5t-21.5 -21.5q-44 -13 -70 -72q-28 -64 -53 -77v-18
q11 -8 42 -8q57 0 72 10q17 15 34.5 28.5t39.5 13.5q23 0 28 -4.5t5 -26.5zM179 466q-16 4 -27 -4q0 23 1 23zM321 -42q-8 -9 -28 -27v22zM80 590q-6 7 -4 8q5 1 9 3q5 2 17 0q18 -15 32 -19q6 -1 13 -3q5 -7 22 -18q6 -2 11 -4l11 -2q5 -1 11 -2l-1 1v0q5 -5 11 -12
q4 1 11 -1q4 2 9 4t10 10q0 -2 14 5l3 -11q5 12 10 25q12 10 18 10q4 0 4.5 -5.5t0.5 -4.5q15 6 31 19q0 -2 19 12q4 7 20 -10l-25 -17l6 -4l-25 -14l-16 -21q-4 -6 -19 -8l-22 -19l11 -2l-29 -14l-15 -14q-7 -6 -19 0l-2 -1l-27 22l-3 9l-15 7l-19 11q-6 4 -3 15l-27 13
l-4 11l-17 7z" />
    <glyph glyph-name="ae" unicode="&#xe6;" horiz-adv-x="649" 
d="M598 583l-23 -14l12 34q15 -8 11 -20zM518 311q0 3 -27 33l-41 18q-29 -10 -60 -21q-22 -17 -22 -31q0 -11 12 -17.5t22 -6.5q4 0 3 1l30 18q0 -2 33 -18q47 4 47 6t1.5 9.5t1.5 8.5zM295 38q-11 1 -30 -21q-4 -1 -11.5 6t-13.5 7q-5 0 -22.5 -12t-22.5 -14
q-44 -14 -80 -14q-54 0 -84 36q-28 33 -28 82q0 3 5 39.5t5 54.5q23 1 67 14q9 5 57 35q31 19 52 25q13 3 28 24q5 8 5 23q0 18 -8 26q-15 11 -29 22q-19 -14 -48 -58q-19 -29 -48 -29q-23 0 -43.5 22t-20.5 43q0 9 15.5 39t29.5 42q18 16 56 16q6 0 22 -9t22 -9q5 0 27 11
t28 11q5 0 31.5 -11t31.5 -11q6 0 9 2t9 2h4q35 5 70 11q40 7 59 33q51 -24 103 -49q71 -41 77 -93q2 -13 2 -72q-45 -40 -75 -40q-5 0 -31.5 6.5t-31.5 6.5q-116 0 -116 -54q0 -25 43 -70.5t62 -45.5q5 0 47 21.5t48 21.5h36q0 -1 2.5 -9.5t2.5 -14.5q0 -26 -33.5 -55
t-69.5 -36q-3 -1 -11 -8.5t-13 -7.5q2 0 -78 20q-17 2 -35 4q-27 3 -40 13q-16 12 -33 24zM218 181l-2 2q-22 -15 -47 -38t-25 -31v-27q4 0 15.5 -4.5t16.5 -4.5q17 0 43 76q-1 12 -1 27zM148 464q-34 0 -26 0q-20 1 -26 13q31 8 28 8q7 0 12.5 -7t11.5 -14zM22 248l-20 -17
l-13 17l4 6z" />
    <glyph glyph-name="oslash" unicode="&#xf8;" horiz-adv-x="478" 
d="M162 121v0q-1 2 -1 5q0 4 3.5 17.5t3.5 17.5t-2 4q18 15 23 26q7 15 11.5 38t4.5 23.5t4 45.5q24 20 27.5 32.5t7.5 27.5h-7q-2 4 -5.5 8t-9.5 4q-16 0 -19.5 -13.5t-32 -26.5t-30.5 -26q0 -3 -7.5 -30t-7.5 -32q0 -92 23 -92h3l2 1q4 0 6 -12q2 -17 3 -18zM177 2
q-10 -8 -25 -25q-7 -15 -4 -44l-61 3l-9 20q0 5 12 30q6 10 15 26q2 5 4 24q-11 7 -14 9q-57 58 -92 110q-6 8 -6 49q0 5 7 16q-3 9 -6 25q9 17 23 60q13 38 23.5 54t45.5 35q28 16 57 32q8 6 26 14q6 2 28 2q12 0 61 -8q0 3 1 7q0 9 37 59q22 7 35 7q24 0 39 -29
q-12 -10 -28 -30l-9 -32q3 -2 36 -28.5t40 -32.5q18 -18 27 -39q2 -4 0 -28q-3 -30 -3 -32q0 -62 -7 -95q-10 -45 -43 -107q-12 -15 -23 -30q-20 -27 -20 -33q-7 5 -17 5.5t-14 1.5q-16 -22 -68 -22q-10 0 -68 26zM291 315q-20 -29 -30 -59q-4 -32 -12 -89
q-1 -7 -16.5 -15.5t-17.5 -16.5q4 -17 5 -44q-2 -4 -12 -16q18 -13 30 -24q22 -1 45 42q15 30 30 59q3 30 3 48q0 17 -7 35t-7 54q0 8 -11 26z" />
    <glyph glyph-name="questiondown" unicode="&#xbf;" horiz-adv-x="380" 
d="M13 33q0 4 6 40q4 20 -1 46q17 26 62 52q6 3 36 2q-1 0 15 16q7 8 14 15q11 6 30 16q10 6 56 63h25q6 -6 6 -13q0 2 2.5 -14.5t0.5 -32.5q-4 -14 -10 -41q2 -15 4 -38q-1 -10 -6.5 -19.5t-5.5 -16.5q-14 -12 -62 -31q-44 -18 -67 -42q10 -23 69 -31q-6 -16 -6 -27
q0 -20 24 -29t48 -16q11 -3 22 -7t17.5 -14t6.5 -38q0 -40 -7 -51q10 -26 -79 -26q-29 0 -74 31q-9 0 -23 3q-3 10 -12 25q-14 8 -35 28q-2 3 -1.5 12t-2 9t-13 16t-10.5 28q3 10 5 26q-34 46 -34 59zM169 431q5 3 42 28q27 19 34 19q5 0 19 -12t19 -12h42q6 -6 6 -23
q0 -19 -7 -27q-16 -19 -47 -44.5t-39 -25.5t-32.5 21t-30.5 35.5t-6 40.5z" />
    <glyph glyph-name="exclamdown" unicode="&#xa1;" horiz-adv-x="212" 
d="M40 153q0 2 5 -10t7 -12q3 0 2 13q-1 18 -1 53q0 26 3 39q11 14 30 13q18 -1 25 -19q4 -12 14 -52q-2 -29 1 -81q0 -4 2 -4t7.5 5.5t7.5 5.5q1 -1 1 -3q2 -11 -1.5 -39.5t-4.5 -29.5l-2 -86q16 34 16 33q-2 -33 -4 -77q2 -15 5.5 -21t3.5 -13q-2 -40 -19 -63
q-8 -11 -48 -45q-8 12 -17 24.5t-56 17.5l-5 31l-2 73l15 20q-2 49 -3 101q9 -18 11 -18q5 0 7 70v74zM3 387q0 28 35 46q26 13 46 13q59 0 59 -61q0 -28 -15 -47q-17 -22 -47 -22q-26 0 -52 22.5t-26 48.5z" />
    <glyph glyph-name="logicalnot" unicode="&#xac;" 
 />
    <glyph glyph-name="florin" unicode="&#x192;" 
 />
    <glyph glyph-name="guillemotleft" unicode="&#xab;" horiz-adv-x="371" 
d="M146 421q7 5 9 5q-1 0 4 -12q2 -5 1 -20q-18 -21 -23 -38q-2 -8 -4 -15q-9 -7 -21 -27q-3 -7 -6 -13l-2 -14q-1 -6 -3 -13q-8 -4 -19 -12q4 -5 6 -13q1 -4 5 -11q1 -6 11 -12q-2 0 7 -17l-14 -3q14 -6 29 -12q13 -15 13 -21q0 -5 -6.5 -6t-5.5 -1q7 -18 22 -37
q-2 0 15 -22q9 -5 -12 -25l-21 30l-4 -7l-16 30l-27 19q-20 15 -21 24l-23 25l-2 -13l-17 35l-16 18q-7 8 -6 12q2 6 5 11v2l26 32l10 5l8 18l14 22q3 3 16 4q11 0 14 -1l15 33l14 5l8 20zM306 421q7 5 9 5q-1 0 4 -12q2 -5 1 -20q-18 -21 -23 -38q-2 -8 -4 -15
q-9 -7 -21 -27q-3 -7 -6 -13l-2 -14q-1 -6 -3 -13q-8 -4 -19 -12q4 -5 6 -13q1 -4 5 -11q1 -6 11 -12q-2 0 7 -17l-14 -3q14 -6 29 -12q13 -15 13 -21q0 -5 -6.5 -6t-5.5 -1q7 -18 22 -37q-2 0 15 -22q9 -5 -12 -25l-21 30l-4 -7l-16 30l-27 19q-20 15 -21 24l-23 25l-2 -13
l-17 35l-16 18q-7 8 -6 12q2 6 5 11v2l26 32l10 5l8 18l14 22q3 3 16 4q11 0 14 -1l15 33l14 5l8 20z" />
    <glyph glyph-name="guillemotright" unicode="&#xbb;" horiz-adv-x="371" 
d="M182 82q-7 -6 -9 -6q1 0 -4 12q-2 5 -1 21q18 21 23 38q2 7 4 15q9 6 21 27q3 6 6 13l2 13q1 6 2 13q9 4 20 12q-4 5 -6 13q-2 5 -6 12q0 5 -10 11q2 1 -7 17l14 3q-14 7 -30 12q-12 15 -12 22q0 5 6.5 5.5t5.5 1.5q-7 18 -22 36q1 1 -15 23q-9 4 12 25l21 -31l4 8
l16 -30l26 -20q21 -15 21 -23l23 -26l3 13l17 -34l16 -18q7 -8 6 -13q-2 -5 -5 -10v-3l-26 -32l-11 -4l-8 -18l-13 -22q-3 -4 -16 -5q-11 0 -15 1l-14 -33l-14 -5l-8 -20zM22 82q-7 -6 -9 -6q1 0 -4 12q-2 5 -1 21q18 21 23 38q2 7 4 15q9 6 21 27q3 6 6 13l2 13q1 6 2 13
q9 4 20 12q-4 5 -6 13q-2 5 -6 12q0 5 -10 11q2 1 -7 17l14 3q-14 7 -30 12q-12 15 -12 22q0 5 6.5 5.5t5.5 1.5q-7 18 -22 36q1 1 -15 23q-9 4 12 25l21 -31l4 8l16 -30l26 -20q21 -15 21 -23l23 -26l3 13l17 -34l16 -18q7 -8 6 -13q-2 -5 -5 -10v-3l-26 -32l-11 -4l-8 -18
l-13 -22q-3 -4 -16 -5q-11 0 -15 1l-14 -33l-14 -5l-8 -20z" />
    <glyph glyph-name="ellipsis" unicode="&#x2026;" horiz-adv-x="843" 
d="M489 41q-42 -40 -88 -40q-35 0 -49 10t-23 44q-2 9 -2 18q0 33 29 58q26 22 55 22q80 0 78 -112zM197 37q-42 -39 -88 -39q-81 0 -81 72q0 31 30 55.5t61 24.5q33 0 52 -41zM780 61q-24 -59 -79 -59q-81 0 -81 72q0 31 38 58q35 24 69 24q31 0 43 -35q6 -18 10 -60z" />
    <glyph glyph-name="nonbreakingspace" unicode="&#xa0;" horiz-adv-x="999" 
 />
    <glyph glyph-name="Agrave" unicode="&#xc0;" horiz-adv-x="694" 
d="M568 706q0 -3 -10 -12q-4 10 10 20v-8zM655 454q0 10 -8 -25h-15q-5 0 -17 10q10 7 31 20h7q2 0 2 -5zM655 590q0 -18 -18 -44q-9 -2 -29.5 -7.5t-22.5 -5.5t-9 6t-9 6h-67q0 -1 -1 -1v-4q0 -4 10 -19q-59 -14 -59 -41q0 -17 18 -39t18 -23q0 -2 -5 -14.5t-5 -16.5
q0 -42 23 -68q32 -39 42 -62q2 -22 10.5 -60.5t53.5 -94.5q42 -53 42 -54q0 -4 -10.5 -18t-18.5 -18q-16 -9 -57 -9q-34 0 -159 19q-5 1 -10 8.5t-5 10.5q0 11 26.5 36.5t26.5 27.5q0 6 -15.5 17.5t-21.5 13.5v6q0 5 10 15q-12 12 -26 18l18 26q0 12 -7 21q-18 24 -37 24
q-13 0 -67 -11t-61 -15q-3 -1 -27 -41q-27 -44 -27 -57q0 -12 16.5 -43t16.5 -36q0 -24 -66 -44q-52 -16 -71 -16h-37q-5 0 -14.5 14t-10.5 19q-1 2 -1 12q0 35 27 73q9 12 50 44l-24 53q0 3 5 3l36 -12q13 14 16 42q4 41 5 42q5 20 43 53q-3 35 1 49q7 22 19 50t15 28
q-1 0 11 -6q37 34 51 113q28 103 48 103q3 0 9 -2.5t9 -3.5q13 -2 20 -5q13 -5 35 -34q20 -25 36 -26l125 -6q23 0 50 15q1 7 -13 12q4 12 9 38h33q4 -9 17 -37q10 -22 10 -24zM383 147q-4 -7 -12 -6q-16 3 -15 3l3 14q8 -3 24 -11zM325 79q-2 -2 -6 -2q-8 0 -8 9
q0 2 1.5 5.5t1.5 5.5l11 -3v-15zM206 527q-6 -2 -16 -6v16q7 -3 16 -10zM490 547q3 11 -13 16q3 -12 13 -16zM456 569l-3 3l-2 -2l3 -3zM342 352l-23 67l-32 -58l17 -12z" />
    <glyph glyph-name="Atilde" unicode="&#xc3;" horiz-adv-x="694" 
d="M568 706q0 -3 -10 -12q-4 10 10 20v-8zM655 454q0 10 -8 -25h-15q-5 0 -17 10q10 7 31 20h7q2 0 2 -5zM655 590q0 -18 -18 -44q-9 -2 -29.5 -7.5t-22.5 -5.5t-9 6t-9 6h-67q0 -1 -1 -1v-4q0 -4 10 -19q-59 -14 -59 -41q0 -17 18 -39t18 -23q0 -2 -5 -14.5t-5 -16.5
q0 -42 23 -68q32 -39 42 -62q2 -22 10.5 -60.5t53.5 -94.5q42 -53 42 -54q0 -4 -10.5 -18t-18.5 -18q-16 -9 -57 -9q-34 0 -159 19q-5 1 -10 8.5t-5 10.5q0 11 26.5 36.5t26.5 27.5q0 6 -15.5 17.5t-21.5 13.5v6q0 5 10 15q-12 12 -26 18l18 26q0 12 -7 21q-18 24 -37 24
q-13 0 -67 -11t-61 -15q-3 -1 -27 -41q-27 -44 -27 -57q0 -12 16.5 -43t16.5 -36q0 -24 -66 -44q-52 -16 -71 -16h-37q-5 0 -14.5 14t-10.5 19q-1 2 -1 12q0 35 27 73q9 12 50 44l-24 53q0 3 5 3l36 -12q13 14 16 42q4 41 5 42q5 20 43 53q-3 35 1 49q7 22 19 50t15 28
q-1 0 11 -6q37 34 51 113q28 103 48 103q3 0 9 -2.5t9 -3.5q13 -2 20 -5q13 -5 35 -34q20 -25 36 -26l125 -6q23 0 50 15q1 7 -13 12q4 12 9 38h33q4 -9 17 -37q10 -22 10 -24zM383 147q-4 -7 -12 -6q-16 3 -15 3l3 14q8 -3 24 -11zM325 79q-2 -2 -6 -2q-8 0 -8 9
q0 2 1.5 5.5t1.5 5.5l11 -3v-15zM206 527q-6 -2 -16 -6v16q7 -3 16 -10zM490 547q3 11 -13 16q3 -12 13 -16zM456 569l-3 3l-2 -2l3 -3zM345 347l-24 69l-34 -55l-7 -34zM207 711q-29 11 -29 24q0 4 3 7q20 24 39 41q40 32 44 30q17 3 46 4q16 -1 40 -11q13 -16 46 -16
q3 0 20 -2q14 -3 21 -1q-2 -1 18 -1q2 0 20 15q12 9 23 5q7 -3 7 -9q0 -1 9 -4.5t9 -6.5t-14.5 -19t-14.5 -19t-17 -12q-20 -9 -22 -11q-7 -5 -51 -12q-27 3 -57 9q-29 23 -36 23l-17.5 4t-18.5 2q-5 -8 -11 -9q-9 -1 -18 -3q-13 -3 -13 -8q0 -1 1 -3t1 -3q-1 -2 -4 -3
q-30 -6 -30 -9q0 -2 6 -2z" />
    <glyph glyph-name="Otilde" unicode="&#xd5;" horiz-adv-x="764" 
d="M464 659h-11v6h11v-6zM513 806q0 -3 -14.5 -19t-14.5 -19t-17 -12q-20 -9 -22 -11q-7 -5 -51 -12q-27 3 -57 9q-29 23 -36 23l-17.5 4t-18.5 2q-5 -8 -11 -9q-9 -1 -18 -3q-13 -3 -13 -8q0 -1 1 -3t1 -3q-1 -2 -4 -3q-14 -4 -29 -9q-24 10 -24 21q0 4 3 8q20 24 39 41
q40 32 44 30q17 3 46 4q16 -1 40 -11q13 -16 46 -16q3 0 20 -2q14 -3 21 -1q-2 -1 18 -1q2 0 20 15q12 9 23 5q7 -3 7 -9q0 -1 9 -4.5t9 -6.5zM744 126q-9 -9 -9 -17l-6 13q7 8 15 4zM743 327q-28 -63 -57 -126q-39 -76 -94 -133q-14 -8 -28 -17q-23 -16 -20 -37l-149 -9
q-65 0 -117 13q-14 8 -42 20q-10 1 -27 3q-5 1 -16 5.5t-16 4.5t-14.5 -7.5t-14.5 -7.5q1 0 -57 23q-3 -3 -3 -19q-11 10 -30 32q2 2 8 1q7 -3 11 -3q7 0 23 15.5t16 23.5q0 6 -8.5 16t-14.5 10q-5 0 -8 -1.5t-8 -1.5q-7 0 -21 9.5t-13 15.5q0 10 5 54q3 33 3 54
q0 41 -11 74h-10q-15 -1 -73 -62q-13 13 -13 19q24 8 44 26.5t20 37.5q0 16 -22 22q10 27 43 60q30 30 60 61q4 3 4 19q0 3 -7.5 19t-9.5 39q-2 -1 -2 2q0 9 12 43q39 4 35 29q7 -9 14 -9q4 0 11 2.5t10 2.5q10 0 19 -14q3 -4 3 -9q0 -3 -2.5 -8t-2.5 -7q0 -4 9 -9
q37 32 37 64q0 13 -7 25q19 -1 30 -8.5t13 -7.5q5 0 4 1.5t4 1.5t20 -6.5t22 -8.5q4 8 11 23q14 -8 24 -8q14 0 20 3l-11 -12q10 -12 19.5 -22.5t22.5 -10.5q5 0 16.5 2t16.5 2t44 -9.5t44 -9.5q14 0 23 11q4 -11 17 -11q7 0 22 8q12 -16 22 -16q8 0 12 4q2 -8 10 -24
q8 -10 38 -31q-1 -1 -10 -11.5t-9 -15.5q0 -3 21.5 -27t26.5 -38q14 -38 39 -156q7 -1 19 12zM376 544q-4 0 -9 5q-10 -4 -21 -13v-13h14q6 9 16 21zM332 495l-5 -18q5 3 7 9q1 6 -2 9zM552 340q0 44 -15 68q-18 26 -64 48q0 2 1 14.5t1 22.5q0 52 -40 52q-8 0 -74 -42v-22
q23 -7 23 -24q0 -6 -7 -16.5t-8 -15.5q-4 -23 -4 -81q0 -8 16 -46q19 -44 33 -44q5 0 7 2t7 2q21 0 21 -57q0 -21 -9 -59q-3 -13 -14 -41q2 1 10 6t13 5q7 0 10 -3q0 14 18.5 31.5t19.5 19.5q4 25 15 72q1 1 25 12q0 11 1 28q3 21 3 25q11 -3 11 43zM353 330q-4 2 -12.5 8
t-12.5 8q-2 -2 -4.5 -6.5t-4.5 -6.5q12 -13 29 -21zM368 105q2 16 -3 46q-7 42 -25 42q-5 0 -10.5 -2t-8.5 -2q-6 0 -18 10v22l13 3q9 -9 25 -16q6 33 0 65q-7 -3 -12 -3q-19 0 -16 41q-25 16 -48 16q-22 0 -35 -24q-11 -20 -11 -45q0 -38 17 -61q21 -28 59.5 -66t44.5 -38
q5 0 16 6t12 6zM331 247h-5l-5 13l6 2z" />
    <glyph glyph-name="OE" unicode="&#x152;" horiz-adv-x="1144" 
d="M761 281q-4 7 -12 7t-11 -7q2 -5 11 -5t12 5zM487 10l-92 -5q-52 -3 -117 13q-14 8 -42 20q-10 1 -27 3q-5 1 -16 5.5t-16 4.5t-14.5 -7.5t-14.5 -7.5q1 0 -57 23q-3 -3 -3 -19q-11 10 -30 32q2 2 8 1q7 -3 11 -3q7 0 23 15.5t16 23.5q0 6 -8.5 16t-14.5 10q-5 0 -8 -1.5
t-8 -1.5q-7 0 -21 9.5t-13 15.5q0 10 5 54q3 33 3 54q0 41 -11 74h-10q-14 0 -73 -62q-13 13 -13 19q24 8 44 26.5t20 37.5q0 16 -22 22q10 27 43 60q30 30 60 61q4 3 4 19q0 3 -7.5 19t-9.5 39q-2 -1 -2 2q0 9 12 43q39 4 35 29q7 -9 14 -9q4 0 11 2.5t10 2.5q10 0 19 -14
q3 -4 3 -9q0 -3 -2.5 -8t-2.5 -7q0 -4 9 -9q37 32 37 64q0 13 -7 25q19 -1 30 -8.5t13 -7.5q5 0 4 1.5t4 1.5t20 -6.5t22 -8.5q4 8 11 23q14 -8 24 -8q14 0 20 3l-11 -12q10 -12 19.5 -22.5t22.5 -10.5q5 0 16.5 2t16.5 2q4 0 59 -13q8 7 25 19q56 26 86 26q11 0 29 -9.5
t21 -9.5q7 0 8 10q40 5 53 9q29 7 46 27q2 0 7 -5t8 -7q36 -22 64 -21l149 2q19 0 21 -5q35 -79 35 -100q0 -26 -29 -77q-4 -9 -20 -9q-10 0 -20 7q-21 22 -41 44q-41 41 -50 41q-3 0 -8.5 -7t-8.5 -9q-6 -5 -26 -5h-53q-24 0 -37 -28v-60q5 -8 28 -8q18 0 24 4q10 6 23 34
q9 1 31 -4q27 -7 33 -8q1 0 16 -53q9 -35 30 -53q5 -13 5 -9q-35 -6 -35 -30q0 -3 5 -20t5 -20q0 -5 -8 -30q-8 -28 -16 -40q-4 -7 -28 -7q-28 0 -39 13q-23 28 -48 45q-9 -3 -17 -30v-21q-1 -18 -13.5 -45.5t-12.5 -26.5q0 -4 5.5 -11.5t9.5 -7.5q10 0 21.5 39t31.5 39
q-3 0 18 -7q-3 -10 -12 -22q-11 -16 -23 -31q-18 -24 -18 -34t13 -27q14 -20 26 -20q3 0 22 10.5t22 10.5q2 0 13 -7t14 -7q2 0 12.5 2.5t14.5 2.5q76 -2 147 129q14 -10 46 -35q1 -2 3 -2q7 0 16 17q7 14 7 13q0 -2 -11 -39t-11 -41q-1 -3 0.5 -11t1.5 -12q0 -30 -2 -38
q-4 -15 -20 -38q-22 -30 -40 -30q-2 0 -7 3t-7 3q-13 0 -27 -16q-4 -4 -14 -30q-4 2 -11 7q-26 29 -62 36q-29 1 -57 3h-55q-39 0 -70 -13q-7 -8 -21 -19q-4 -1 -13 -3l-75 27h-8q-6 -13 -11 -13t-15 9.5t-20 9.5q-2 0 -52 -18h-8q-2 6 -12 29zM376 544q-4 0 -9 5
q-10 -4 -21 -13v-13h14q6 9 16 21zM332 495l-5 -18q5 3 7 9q1 6 -2 9zM516 430q-16 13 -43 26q1 55 -1 62h-8v16q-5 5 -11 8q0 -10 -3 -24q-10 1 -26 23q-15 -7 -63 -38v-22q23 -7 23 -24q0 -6 -7 -16.5t-8 -15.5q-4 -23 -4 -81q0 2 -2 -15.5t-2 -31.5q0 -40 14 -40
q5 0 13.5 -12t12.5 -12q9 0 9 -6q0 -3 -6 -16.5t-6 -21.5q0 -2 7.5 -20.5t4.5 -29.5q2 -18 0 -48q2 1 18 11t21 10q7 0 10 -3q0 14 18.5 31.5t19.5 19.5q4 25 15 72q1 1 25 12q0 11 1 28q3 21 3 25q11 -3 11 36q-16 42 -47 52q15 17 15 31q-1 3 -4 14zM324 455q-3 2 -35 -22
t-36 -22q-1 -2 2 -28t1 -28q20 -9 48 -21zM368 105q2 16 -3 46q-7 42 -25 42q-5 0 -10.5 -2t-8.5 -2q-6 0 -18 10v22l13 3q9 -9 25 -16q6 33 0 65q-7 -3 -12 -3q-19 0 -16 41q-25 16 -48 16q-22 0 -35 -24q-11 -20 -11 -45q0 -38 17 -61q21 -28 59.5 -66t44.5 -38q5 0 16 6
t12 6zM331 247h-5l-5 13l6 2zM464 659h-11v6h11v-6z" />
    <glyph glyph-name="oe" unicode="&#x153;" horiz-adv-x="736" 
d="M678 583l-23 -14l12 34q15 -8 11 -20zM448 315l1 -2q4 -8 5 -16q8 -7 20 -10h11l30 18q0 -2 33 -18q47 4 47 6t1.5 9.5t1.5 8.5q0 3 -27 33l-41 18q-29 -10 -60 -21q-18 -14 -22 -26zM360 50l-14 -27q-2 -3 -2 -32q-27 22 -43 27q-30 -42 -56 -42q-11 0 -76.5 31
t-73.5 38q-57 58 -92 110q-6 8 -6 49q0 5 7 16q-3 9 -6 25q9 17 23 60q13 38 23.5 54t45.5 35q28 16 57 32q8 6 26 14q6 2 28 2q10 0 53 -7q49 -8 77 -16q7 -2 20 -12q22 26 86 33q61 7 82 36q51 -24 103 -49q71 -41 77 -93q2 -13 2 -72q-45 -40 -75 -40q-5 0 -31.5 6.5
t-31.5 6.5q-116 0 -116 -54q0 -25 43 -70.5t62 -45.5q5 0 47 21.5t48 21.5h36q0 -1 2.5 -9.5t2.5 -14.5q0 -26 -33.5 -55t-69.5 -36q-3 -1 -11 -8.5t-13 -7.5q2 0 -78 20q-17 2 -35 4q-27 3 -40 13q-31 23 -48 36zM302 289q0 23 -38 62q-6 6 -27 7q-2 4 -5.5 8t-9.5 4
q-16 0 -20 -14.5t-5 -38.5q-1 -31 -2 -36.5t-6 -17t-5 -16.5q0 -11 19 -28q14 -11 27 -23q-1 -9 -6 -25q-9 8 -17 8q-27 0 -27 -36q0 -27 18 -46q28 -22 56 -45q6 28 27 58q-7 0 -13.5 -7.5t-10.5 -7.5q-6 0 -7 10t-2 12l20 19q2 3 18 68.5t16 84.5z" />
    <glyph glyph-name="endash" unicode="&#x2013;" horiz-adv-x="449" 
d="M416 315q24 0 24 -22q0 -5 -1 -15t-1 -14q0 -41 -25 -65q-55 0 -84 3.5t-24 3.5q-13 0 -55 -19q-38 -17 -55 -28q3 4 43 52l-20 -7q-18 -3 -38 -8q-56 0 -68 5t-7 5q-7 0 14 -10q27 -11 27 -18q0 -2 -3 -4q3 3 -124 30q-16 24 -16 56q0 25 11 50l179 10q9 1 26 -3t19 -6
q8 -4 38 -4t84 4z" />
    <glyph glyph-name="emdash" unicode="&#x2014;" horiz-adv-x="861" 
d="M416 315q17 0 22 -4l155 9q10 1 37 -3t29 -6q8 -4 34 -4t73 4l50 4q24 0 24 -10q0 -2 -1 -9t-1 -12q0 -16 -6 -41q-7 -33 -19 -44q-55 0 -84 3.5t-24 3.5q-15 0 -60 -12t-58 -20q3 3 32 30h-1q-18 -3 -38 -8q-56 0 -68 5t-7 5q-40 0 -55 -10q3 3 -31 8h-1q38 -22 74 -45
q-56 0 -124 23.5t-63 23.5q-116 0 -125 -10q-56 0 -68 5t-7 5q-3 0 -3 -1q0 -2 20.5 -14t20.5 -18q0 -3 -3 -5q4 3 -121 36q-16 24 -16 56q0 25 11 50l179 10q9 1 26 -3t19 -6q8 -4 38 -4t84 4z" />
    <glyph glyph-name="quotedblleft" unicode="&#x201c;" horiz-adv-x="436" 
d="M15 570q38 57 90 86q41 23 67 17q-1 -1 2 -3.5t3 -4.5t-5 -5q0 -7 -26.5 -29t-28.5 -29q0 -17 -3 -51q48 -25 48 -68q0 -28 -21 -58q-24 -35 -57 -35q-16 0 -49.5 22.5t-36 39t-4.5 75.5q-2 2 11 21t10 22zM225 570q38 57 90 86q41 23 67 17q-1 -1 2 -3.5t3 -4.5t-5 -5
q0 -7 -26.5 -29t-28.5 -29q0 -17 -3 -51q48 -25 48 -68q0 -28 -21 -58q-24 -35 -57 -35q-16 0 -49.5 22.5t-36 39t-4.5 75.5q-2 2 11 21t10 22z" />
    <glyph glyph-name="quotedblright" unicode="&#x201d;" horiz-adv-x="436" 
d="M151 494q-38 -58 -89 -86q-42 -23 -68 -18q2 2 -1.5 4.5t-3.5 4.5t5 5q1 6 27.5 28.5t27.5 29.5q1 17 3 50q-47 26 -47 68q0 29 20 59q25 34 58 34q16 0 49 -22.5t36 -38.5t4 -75q2 -2 -10.5 -21.5t-10.5 -21.5zM351 494q-3 -31 -10 -67q-3 -3 -7.5 17.5t-6.5 17.5
q-7 -12 -21 -29q-24 -23 -41 -24q-21 -3 -48 -22q1 2 -12 6.5t-13 7.5q0 1 2 3q1 6 27.5 28.5t27.5 29.5q1 17 3 50q-47 26 -47 68q0 29 20 59q25 34 58 34q16 0 49 -22.5t36 -38.5t4 -75q2 -2 -10.5 -21.5t-10.5 -21.5z" />
    <glyph glyph-name="quoteleft" unicode="&#x2018;" horiz-adv-x="230" 
d="M15 570q38 57 90 86q41 23 67 17q-1 -1 2 -3.5t3 -4.5t-5 -5q0 -7 -26.5 -29t-28.5 -29q0 -17 -3 -51q48 -25 48 -68q0 -28 -21 -58q-24 -35 -57 -35q-16 0 -49.5 22.5t-36 39t-4.5 75.5q-2 2 11 21t10 22z" />
    <glyph glyph-name="quoteright" unicode="&#x2019;" horiz-adv-x="230" 
d="M151 494q-3 -31 -10 -67q-3 -3 -7.5 17.5t-6.5 17.5q-7 -12 -21 -29q-24 -23 -41 -24q-21 -3 -48 -22q1 2 -12 6.5t-13 7.5q0 1 2 3q1 6 27.5 28.5t27.5 29.5q1 17 3 50q-47 26 -47 68q0 29 20 59q25 34 58 34q16 0 49 -22.5t36 -38.5t4 -75q2 -2 -10.5 -21.5
t-10.5 -21.5z" />
    <glyph glyph-name="divide" unicode="&#xf7;" 
 />
    <glyph glyph-name="ydieresis" unicode="&#xff;" horiz-adv-x="519" 
d="M527 396q0 -11 -52 -67q-60 -64 -64 -71q-9 -23 -27 -66q-14 -27 -33 -38q-26 6 -26 40q0 5 19 58t19 59q0 12 -10 31.5t-23 28.5v36q17 10 53 27q43 16 86 16q9 0 33.5 -20.5t24.5 -33.5zM325 62q0 -35 -37 -100q-40 -69 -45 -98q-5 -36 -43 -86q-39 -53 -85 -53
q-28 0 -53 21.5t-25 50.5q0 6 1 12q15 15 57 25q48 11 62 19q21 12 35 47q11 29 11 51q0 10 -8 34q-8 28 -17 42q-29 43 -54 110q-33 87 -41 103q-20 40 -81 126q-6 9 -6 36q16 20 40.5 23t90.5 15q56 10 61 10q38 0 38 -49q0 -6 -11.5 -39t-11.5 -39q0 -7 4 -12t8 -8l4 -46
q5 -28 24 -42q-2 0 24 14q9 -49 -2 -87q21 -19 40.5 -39.5t19.5 -40.5zM355 504q-21 0 -34.5 15.5t-13.5 38.5q0 10 2 19q20 18 62 28q39 8 39 -52q0 -20 -18 -34.5t-37 -14.5zM156 509q-53 0 -53 48q0 21 19.5 37t39.5 16q24 0 36 -27q5 -16 17 -47q-29 -27 -59 -27z" />
    <glyph glyph-name="Ydieresis" unicode="&#x178;" horiz-adv-x="615" 
d="M622 626q0 -2 -2 -9.5t-2 -9.5q-22 0 -32 -8.5t-8 -8.5q-5 0 -4 2t-4 2q-7 0 -39 -40q-64 -79 -98 -192q-6 -3 -18 -16q-25 -52 -25 -73q0 -17 17.5 -40t37.5 -23q12 0 26 7q-5 -6 -40 -34q-25 -21 -25 -27q0 -11 11.5 -20.5t23.5 -18.5q1 -7 5.5 -29t4.5 -28
q0 -3 -28 -71l-16 28q-11 17 -27 17q-25 0 -48 -11v-20q10 -10 17 -10l20 3l-8 -9q9 -14 33 -37q-23 -6 -53 -21q0 -6 8 -6v-19l-10 -9q-16 19 -42 58q-6 22 -19 65q-1 1 -50 20q-30 12 -30 35q0 4 16.5 37t16.5 38q0 24 -16 48q-8 1 -16 3q-12 3 -17 14q28 -3 42 27
q10 24 19 49q-7 7 -10 7q-4 -4 -4 -21q-27 17 -32 57q-3 31 -5 63q0 3 -17 28l-45 65q-32 40 -59 58q8 11 8 20q0 27 -89 45v54q-1 5 19.5 20t25.5 23q8 0 14 -12q23 12 49 12q5 0 25.5 -6t25.5 -6q16 0 40 8q1 -24 32 -36l50 -18q-16 -42 -16 -56q0 -41 36 -104
q13 -23 61 -93q9 4 20 20q10 13 44 73q43 75 43 89q0 5 -20 29t-20 31q0 49 112 49q43 0 49 -2q12 -3 25.5 -12.5t13.5 -16.5q0 -6 -7 -15t-14 -17q3 -3 9 -1q11 2 15 2zM405 734q-21 0 -34.5 15.5t-13.5 38.5q0 10 2 19q20 18 62 28q39 8 39 -52q0 -20 -18 -34.5t-37 -14.5
zM206 739q-53 0 -53 48q0 21 19.5 37t39.5 16q24 0 36 -27q5 -16 17 -47q-29 -27 -59 -27z" />
    <glyph glyph-name="currency" unicode="&#xa4;" 
 />
    <glyph glyph-name="guilsinglleft" unicode="&#x2039;" horiz-adv-x="218" 
d="M146 415q7 6 9 6q-1 0 4 -12q2 -5 1 -21q-18 -21 -23 -38q-2 -7 -4 -15q-9 -7 -21 -27q-3 -6 -6 -13l-2 -13q-1 -6 -3 -14q-8 -4 -19 -11q4 -5 5.5 -11.5t5.5 -13.5q1 -5 11 -11q-2 -1 7 -17l-14 -3q14 -7 29 -12q13 -15 13 -22q0 -5 -6.5 -5.5t-5.5 -1.5q7 -18 22 -36
q-2 -1 15 -23q9 -4 -12 -25l-21 31l-4 -8l-16 30l-27 20q-20 15 -21 23l-23 26l-2 -13l-17 34l-16 18q-7 8 -6 13q2 5 5 10v3l26 32l10 4l8 18l14 22q3 4 16 4q11 1 14 0l15 33l14 5l8 20z" />
    <glyph glyph-name="guilsinglright" unicode="&#x203a;" horiz-adv-x="218" 
d="M22 82q-7 -6 -9 -6q1 0 -4 12q-2 5 -1 21q18 21 23 38q2 7 4 15q9 6 21 27q3 6 6 13l2 13q1 6 2 13q9 4 20 12q-4 5 -6 13q-2 5 -6 12q0 5 -10 11q2 1 -7 17l14 3q-14 7 -30 12q-12 15 -12 22q0 5 6.5 5.5t5.5 1.5q-7 18 -22 36q1 1 -15 23q-9 4 12 25l21 -31l4 8l16 -30
l26 -20q21 -15 21 -23l23 -26l3 13l17 -34l16 -18q7 -8 6 -13q-2 -5 -5 -10v-3l-26 -32l-11 -4l-8 -18l-13 -22q-3 -4 -16 -5q-11 0 -15 1l-14 -33l-14 -5l-8 -20z" />
    <glyph glyph-name="daggerdbl" unicode="&#x2021;" 
 />
    <glyph glyph-name="periodcentered" unicode="&#xb7;" horiz-adv-x="250" 
d="M180 281q-24 -59 -79 -59q-81 0 -81 72q0 31 38 58q35 24 69 24q31 0 43 -35q6 -18 10 -60z" />
    <glyph glyph-name="periodcentered" unicode="&#x2219;" horiz-adv-x="250" 
d="M180 281q-24 -59 -79 -59q-81 0 -81 72q0 31 38 58q35 24 69 24q31 0 43 -35q6 -18 10 -60z" />
    <glyph glyph-name="quotesinglbase" unicode="&#x201a;" horiz-adv-x="230" 
d="M151 -26q-38 -58 -89 -86q-42 -23 -68 -18q2 2 -1.5 4.5t-3.5 4.5t5 5q1 6 27.5 28.5t27.5 29.5q1 17 3 50q-47 26 -47 68q0 29 20 59q25 34 58 34q16 0 49 -22.5t36 -38.5t4 -75q2 -2 -10.5 -21.5t-10.5 -21.5z" />
    <glyph glyph-name="quotedblbase" unicode="&#x201e;" horiz-adv-x="436" 
d="M361 -26q-38 -58 -89 -86q-42 -23 -68 -18q2 2 -1.5 4.5t-3.5 4.5t5 5q1 6 27.5 28.5t27.5 29.5q1 17 3 50q-47 26 -47 68q0 29 20 59q25 34 58 34q16 0 49 -22.5t36 -38.5t4 -75q2 -2 -10.5 -21.5t-10.5 -21.5zM151 -26q-38 -58 -89 -86q-42 -23 -68 -18q2 2 -1.5 4.5
t-3.5 4.5t5 5q1 6 27.5 28.5t27.5 29.5q1 17 3 50q-47 26 -47 68q0 29 20 59q25 34 58 34q16 0 49 -22.5t36 -38.5t4 -75q2 -2 -10.5 -21.5t-10.5 -21.5z" />
    <glyph glyph-name="perthousand" unicode="&#x2030;" 
 />
    <glyph glyph-name="Acircumflex" unicode="&#xc2;" horiz-adv-x="694" 
d="M625 454q0 10 -8 -25h-15q-5 0 -17 10q10 7 31 20h7q2 0 2 -5zM451 549q-1 -41 -1 -69q0 -17 18 -39t18 -23q0 -2 -5 -14.5t-5 -16.5q0 -42 23 -68q32 -39 42 -62q2 -22 10.5 -60.5t53.5 -94.5q42 -53 42 -54q0 -4 -10.5 -18t-18.5 -18q-16 -9 -57 -9q-34 0 -159 19
q-5 1 -10 8.5t-5 10.5q0 11 26.5 36.5t26.5 27.5q0 6 -15.5 17.5t-21.5 13.5v6q0 5 10 15q-12 12 -26 18l18 26q0 12 -7 21q-18 24 -37 24q-13 0 -67 -11t-61 -15q-3 -1 -27 -41q-27 -44 -27 -57q0 -12 16.5 -43t16.5 -36q0 -24 -66 -44q-52 -16 -71 -16h-37q-5 0 -14.5 14
t-10.5 19q-1 2 -1 12q0 35 27 73q9 12 50 44l-24 53q0 3 5 3l36 -12q13 14 16 42q4 41 5 42q5 20 43 53q-3 35 1 49q7 22 19 50t15 28q-1 0 11 -6q37 34 51 113q28 103 48 103q3 0 9 -2.5t9 -3.5q13 -2 20 -5q11 -5 22 -5q15 0 26 8zM383 147q-4 -7 -12 -6q-16 3 -15 3l3 14
q8 -3 24 -11zM325 79q-2 -2 -6 -2q-8 0 -8 9q0 2 1.5 5.5t1.5 5.5l11 -3v-15zM206 527q-6 -2 -16 -6v16q7 -3 16 -10zM348 355l-31 73l-30 -67l9 -31zM496 713q5 -7 4 -8q-5 -1 -9.5 -2.5t-17.5 -0.5q-17 15 -32 19q-6 2 -12 3q-6 8 -22 18q-6 2 -12 5l-11 2q-5 0 -11 2
q-3 6 -9 16q-5 -4 -10 -5.5l-10 -3t-10 -9.5q-1 1 -15 -6l-2 11l-10 -24q-12 -11 -18 -11q-4 0 -4.5 5.5t-1.5 4.5q-15 -5 -30 -18q-1 1 -19 -13q-4 -7 -21 11l25 17l-6 3l25 14l17 22q4 6 19 7l21 29l-10 2l28 14l15 14q8 6 19 1h2l27 -22l4 -9l15 -16l18 -12q7 -4 3 -15
l28 -12l4 -12l17 -6z" />
    <glyph glyph-name="Ecircumflex" unicode="&#xca;" horiz-adv-x="670" 
d="M664 204q0 -2 -11 -39t-11 -41q-1 -3 0.5 -11t1.5 -12q0 -30 -2 -38q-4 -15 -20 -38q-22 -30 -40 -30q-2 0 -7 3t-7 3q-13 0 -27 -16q-4 -4 -14 -30q-4 2 -11 7q-26 29 -62 36q-29 1 -57 3h-55q-39 0 -70 -13q-7 -8 -21 -19q-4 -1 -13 -3l-75 27h-8q-6 -13 -11 -13
t-15 9.5t-20 9.5q-2 0 -52 -18h-8q-21 57 -21 53q0 14 8 17q21 11 36.5 33.5t16.5 41.5q1 2 3.5 8.5t2.5 11.5q0 1 -8 28l23 130q-2 22 -15 45q-16 28 -40 36q15 17 15 31q0 2 -12.5 41.5t-12.5 41.5q0 10 8 22q-3 7 -8 7q-3 0 -9.5 -5t-8.5 -5h-13v28q-2 1 -5 1
q-7 0 -7 -12q-1 -16 -2 -17q-4 1 -17 13.5t-13 17.5q0 8 16 46q14 32 18 38q2 -1 9.5 -6.5t9.5 -5.5t14.5 11t20.5 15q56 26 86 26q11 0 29 -9.5t21 -9.5q7 0 8 10q40 5 53 9q29 7 46 27q2 0 7 -5t8 -7q35 -21 64 -21l149 2q19 0 21 -5q35 -79 35 -100q0 -26 -29 -77
q-4 -9 -20 -9q-10 0 -20 7q-21 22 -41 44q-41 41 -50 41q-3 0 -8.5 -7t-8.5 -9q-6 -5 -26 -5h-53q-24 0 -37 -28v-60q5 -8 28 -8q18 0 24 4q10 6 23 34q9 1 31 -4q27 -7 33 -8q1 0 16 -53q9 -35 30 -53q5 -13 5 -9q-35 -6 -35 -30q0 -3 5 -20t5 -20q0 -5 -8 -30
q-8 -28 -16 -40q-4 -7 -28 -7q-28 0 -39 13q-23 28 -48 45q-9 -3 -17 -30v-21q-1 -18 -13.5 -45.5t-12.5 -26.5q0 -4 5.5 -11.5t9.5 -7.5q10 0 21.5 39t31.5 39q-3 0 18 -7q-3 -10 -12 -22q-11 -16 -23 -31q-18 -24 -18 -34t13 -27q14 -20 26 -20q3 0 22 10.5t22 10.5
q2 0 13 -7t14 -7q2 0 12.5 2.5t14.5 2.5q76 -2 147 129q14 -10 46 -35q1 -2 3 -2q7 0 16 17q7 14 7 13zM311 281q-4 7 -12 7t-11 -7q2 -5 11 -5t12 5zM148 726q-6 -6 -4 -7q5 -2 9.5 -3.5t16.5 -0.5q18 15 32 19q6 2 13 3q5 8 22 18q5 3 11 5l11 2q5 1 11 2q3 7 10 16
q4 -3 11 -5q3 -1 9 -5q5 0 10 -8q0 1 14 -6l3 11q5 -11 10 -24q12 -11 17 -11t5.5 5.5l0.5 5.5q15 -6 31 -19q0 1 19 -13q3 -7 20 11l-16 19l-3 2l-25 13l-16 22q-4 6 -20 7l-21 30l11 2l-29 14l-15 13q-7 7 -19 1h-2l-27 -22l-3 -8l-16 -17l-18 -11q-6 -5 -3 -16l-27 -12
l-5 -11l-16 -7z" />
    <glyph glyph-name="Aacute" unicode="&#xc1;" horiz-adv-x="694" 
d="M568 706q0 -3 -10 -12q-4 10 10 20v-8zM655 454q0 10 -8 -25h-15q-5 0 -17 10q10 7 31 20h7q2 0 2 -5zM655 590q0 -18 -18 -44q-9 -2 -29.5 -7.5t-22.5 -5.5t-9 6t-9 6h-67q0 -1 -1 -1v-4q0 -4 10 -19q-59 -14 -59 -41q0 -17 18 -39t18 -23q0 -2 -5 -14.5t-5 -16.5
q0 -42 23 -68q32 -39 42 -62q2 -22 10.5 -60.5t53.5 -94.5q42 -53 42 -54q0 -4 -10.5 -18t-18.5 -18q-16 -9 -57 -9q-34 0 -159 19q-5 1 -10 8.5t-5 10.5q0 11 26.5 36.5t26.5 27.5q0 6 -15.5 17.5t-21.5 13.5v6q0 5 10 15q-12 12 -26 18l18 26q0 12 -7 21q-18 24 -37 24
q-13 0 -67 -11t-61 -15q-3 -1 -27 -41q-27 -44 -27 -57q0 -12 16.5 -43t16.5 -36q0 -24 -66 -44q-52 -16 -71 -16h-37q-5 0 -14.5 14t-10.5 19q-1 2 -1 12q0 35 27 73q9 12 50 44l-24 53q0 3 5 3l36 -12q13 14 16 42q4 41 5 42q5 20 43 53q-3 35 1 49q7 22 19 50t15 28
q-1 0 11 -6q37 34 51 113q28 103 48 103q3 0 9 -2.5t9 -3.5q13 -2 20 -5q13 -5 35 -34q20 -25 36 -26l125 -6q23 0 50 15q1 7 -13 12q4 12 9 38h33q4 -9 17 -37q10 -22 10 -24zM383 147q-4 -7 -12 -6q-16 3 -15 3l3 14q8 -3 24 -11zM325 79q-2 -2 -6 -2q-8 0 -8 9
q0 2 1.5 5.5t1.5 5.5l11 -3v-15zM206 527q-6 -2 -16 -6v16q7 -3 16 -10zM490 547q3 11 -13 16q3 -12 13 -16zM456 569l-3 3l-2 -2l3 -3zM336 361l-19 67l-30 -67l6 -15zM330 720q-19 -10 -51 -28q-8 0 -13 7.5t-1 14.5q4 10 45 64q44 58 59 70q11 9 16 11q9 2 34 -1
q31 -35 31 -43q0 -2 -3 -2l-38 -32q-2 -1 -39.5 -30.5t-39.5 -30.5zM432 772q9 10 22 20l13 -18z" />
    <glyph glyph-name="Edieresis" unicode="&#xcb;" horiz-adv-x="670" 
d="M664 204q0 -2 -11 -39t-11 -41q-1 -3 0.5 -11t1.5 -12q0 -30 -2 -38q-4 -15 -20 -38q-22 -30 -40 -30q-2 0 -7 3t-7 3q-13 0 -27 -16q-4 -4 -14 -30q-4 2 -11 7q-26 29 -62 36q-29 1 -57 3h-55q-39 0 -70 -13q-7 -8 -21 -19q-4 -1 -13 -3l-75 27h-8q-6 -13 -11 -13
t-15 9.5t-20 9.5q-2 0 -52 -18h-8q-21 57 -21 53q0 14 8 17q21 11 36.5 33.5t16.5 41.5q1 2 3.5 8.5t2.5 11.5q0 1 -8 28l23 130q-2 22 -15 45q-16 28 -40 36q15 17 15 31q0 2 -12.5 41.5t-12.5 41.5q0 10 8 22q-3 7 -8 7q-3 0 -9.5 -5t-8.5 -5h-13v28q-2 1 -5 1
q-7 0 -7 -12q-1 -16 -2 -17q-4 1 -17 13.5t-13 17.5q0 8 16 46q14 32 18 38q2 -1 9.5 -6.5t9.5 -5.5t14.5 11t20.5 15q56 26 86 26q11 0 29 -9.5t21 -9.5q7 0 8 10q40 5 53 9q29 7 46 27q2 0 7 -5t8 -7q35 -21 64 -21l149 2q19 0 21 -5q35 -79 35 -100q0 -26 -29 -77
q-4 -9 -20 -9q-10 0 -20 7q-21 22 -41 44q-41 41 -50 41q-3 0 -8.5 -7t-8.5 -9q-6 -5 -26 -5h-53q-24 0 -37 -28v-60q5 -8 28 -8q18 0 24 4q10 6 23 34q9 1 31 -4q27 -7 33 -8q1 0 16 -53q9 -35 30 -53q5 -13 5 -9q-35 -6 -35 -30q0 -3 5 -20t5 -20q0 -5 -8 -30
q-8 -28 -16 -40q-4 -7 -28 -7q-28 0 -39 13q-23 28 -48 45q-9 -3 -17 -30v-21q-1 -18 -13.5 -45.5t-12.5 -26.5q0 -4 5.5 -11.5t9.5 -7.5q10 0 21.5 39t31.5 39q-3 0 18 -7q-3 -10 -12 -22q-11 -16 -23 -31q-18 -24 -18 -34t13 -27q14 -20 26 -20q3 0 22 10.5t22 10.5
q2 0 13 -7t14 -7q2 0 12.5 2.5t14.5 2.5q76 -2 147 129q14 -10 46 -35q1 -2 3 -2q7 0 16 17q7 14 7 13zM311 281q-4 7 -12 7t-11 -7q2 -5 11 -5t12 5zM395 724q-21 0 -34.5 15.5t-13.5 38.5q0 10 2 19q20 18 62 28q39 8 39 -52q0 -20 -18 -34.5t-37 -14.5zM196 729
q-53 0 -53 48q0 21 19.5 37t39.5 16q24 0 36 -27q5 -16 17 -47q-29 -27 -59 -27z" />
    <glyph glyph-name="Egrave" unicode="&#xc8;" horiz-adv-x="670" 
d="M660 201q0 -3 -11.5 -40t-11.5 -41q-1 -3 1 -11t2 -12q0 -30 -2 -38q-4 -15 -21 -38q-21 -30 -39 -30q-3 0 -8 3.5t-7 3.5q-13 0 -27 -17q-3 -4 -14 -29q-4 1 -11 7q-26 28 -62 35q-28 1 -56 3q-12 1 -56 1q-38 0 -69 -14q-7 -7 -21 -19q-5 0 -13 -3l-76 27h-8
q-6 -12 -10 -12q-6 0 -16 9.5t-20 9.5q-2 0 -52 -19h-7q-22 57 -22 53q0 14 8 18q21 10 36.5 32.5t17.5 41.5q0 3 2.5 9t2.5 11q0 2 -8 28l23 130q-2 22 -15 45q-16 28 -39 36q14 18 14 31q0 2 -12.5 41.5t-12.5 42.5q0 9 9 22q-3 7 -9 7q-2 0 -8.5 -5.5t-9.5 -5.5h-13v28
q-2 2 -4 2q-7 0 -8 -13q-1 -16 -1 -17q-5 1 -18 13.5t-13 18.5q0 8 16 45q14 32 18 38q3 0 10 -6t9 -6t15 11.5t20 14.5q56 26 87 26q10 0 28 -9.5t22 -9.5q6 0 7 10q40 5 54 9q28 8 45 27q2 0 7.5 -5t8.5 -7q35 -21 63 -21l149 2q19 0 21 -5q35 -79 35 -100q0 -26 -28 -77
q-5 -8 -20 -8q-11 0 -21 7q-20 21 -41 43q-41 42 -50 42q-3 0 -8.5 -7t-7.5 -9q-7 -5 -26 -5h-54q-24 0 -37 -29v-60q5 -8 28 -8q18 0 24 4q10 6 24 34q9 1 31 -4q26 -7 33 -7q0 -1 15 -54q9 -35 30 -52q5 -14 5 -10q-35 -6 -35 -30q0 -2 5 -19.5t5 -19.5q0 -6 -7 -30
q-9 -29 -17 -41q-4 -7 -28 -7q-27 0 -38 13q-23 28 -49 46q-9 -3 -17 -31q0 -7 1 -21q-2 -18 -14.5 -45l-12.5 -27q0 -3 5.5 -11t9.5 -8q11 0 22 39t31 39q-3 0 18 -7q-2 -9 -11 -22q-12 -15 -24 -31q-17 -24 -17 -33q0 -11 13 -29t25 -18q3 0 22.5 10.5t21.5 10.5t13 -7.5
t15 -7.5q1 0 11.5 3t15.5 2q75 -1 146 129q14 -10 46 -35q2 -1 3 -1q7 0 15.5 15zM306 277q-4 7 -12 7t-11 -7q3 -5 11 -5q9 0 12 5zM309 724q19 -10 52 -28q8 0 12.5 7.5t1.5 14.5q-5 10 -46 64q-44 58 -59 70q-11 9 -16 11q-9 2 -34 -1q-31 -35 -31 -43q0 -2 3 -2l39 -31
q37 -30 78 -62zM207 776q-9 10 -22 20l-13 -18z" />
    <glyph glyph-name="Iacute" unicode="&#xcd;" horiz-adv-x="321" 
d="M189 664q7 -3 17 -1q14 3 19 3q-3 -21 9 -21q5 0 12 9q11 15 14 17l18 -32l-21 -26q-2 -2 3.5 -9t5.5 -12t-14.5 -11.5t-14.5 -11.5q0 -56 -1 -65q-4 -39 -20 -66q-20 -34 -20 -91q0 -5 7 -38q9 -40 11 -50q-2 -17 -2 -51q1 -3 8 -14.5t7 -16.5t-8 -23.5t-8 -23.5v-19
q10 -6 23 1q-2 -7 -2 -13q0 -14 15 -31.5t15 -27.5q0 -27 -62 -42q-45 -11 -87 -11q-26 0 -48 8q-38 12 -38 39q0 13 27.5 55.5t27.5 72.5v68q0 1 -27 1q7 10 14 28q1 15 1 82q0 60 -3 78q-2 9 -29 109q-3 9 -13 18t-23 5q7 7 12.5 37t18.5 44q14 -8 24 -8q9 0 53 26
q-3 6 -10 7q-6 1 -16 -1t-12 -2h-55q-37 0 -37 4q0 11 92 16l47 3q1 1 27 4t26 9q5 -10 17 -26zM130 720q-19 -10 -51 -28q-8 0 -13 7.5t-1 14.5q4 10 45 64q44 58 59 70q11 9 16 11q9 2 34 -1q31 -35 31 -43q0 -2 -3 -2l-38 -32q-38 -29 -79 -61zM232 772q9 10 22 20
l13 -18z" />
    <glyph glyph-name="Icircumflex" unicode="&#xce;" horiz-adv-x="324" 
d="M186 667q22 -9 49 -9l4 2q7 6 12 6q-3 0 12 -3q7 -2 15 6v-18l-15 -15q-3 -3 -3 -17q0 -5 -25 -25t-25 -25q0 -13 6.5 -43t6.5 -45q0 -23 -10 -41q-21 -33 -21 -90q0 -5 8 -38q9 -40 10 -50q-1 -18 -1 -51q0 -3 7.5 -14.5t7.5 -16.5t-8 -23.5t-8 -23.5v-19q10 -6 23 1
q-2 -7 -2 -13q0 -14 15 -31.5t15 -27.5q0 -27 -62 -42q-45 -11 -87 -11q-26 0 -49 7q-37 13 -37 40q0 13 27.5 55t27.5 72v69h-27q7 11 14 29q1 15 1 82q0 60 -3 78q-2 9 -29 109q-3 9 -13 17.5t-23 5.5q7 7 12.5 37t18.5 44q4 -2 14 7t14 9q8 0 35.5 7.5t40.5 15.5
q22 0 52 -7zM276 713q5 -7 4 -8q-5 -1 -9.5 -2.5t-17.5 -0.5q-17 15 -32 19q-6 2 -12 3q-6 8 -22 18q-6 2 -12 5l-11 2q-5 0 -11 2q-3 6 -9 16q-5 -4 -10 -5.5l-10 -3t-10 -9.5q-1 1 -15 -6l-2 11l-10 -24q-12 -11 -18 -11q-4 0 -4.5 5.5t-1.5 4.5q-15 -5 -30 -18
q-1 1 -19 -13q-4 -7 -21 11l25 17l-6 3l25 14l17 22q4 6 19 7l21 29l-10 2l28 14l15 14q8 6 19 1h2l27 -22l4 -9l15 -6l18 -22q6 -7 3 -15l28 -12l4 -12l17 -6z" />
    <glyph glyph-name="Idieresis" unicode="&#xcf;" horiz-adv-x="317" 
d="M189 664q22 -9 49 -9q-2 -15 6 -15q5 0 37 31v-23h-13q-2 -3 -2 -8t15.5 -46t15.5 -46q0 -23 -31 -54q-42 -42 -50 -56q-20 -34 -20 -91q0 -5 7 -38q9 -40 11 -50q-2 -17 -2 -51q1 -3 8 -14.5t7 -16.5t-8 -23.5t-8 -23.5v-19q10 -6 23 1q-2 -7 -2 -13q0 -14 15 -31.5
t15 -27.5q0 -27 -62 -42q-45 -11 -87 -11q-26 0 -48 8q-38 12 -38 39q0 13 27.5 55.5t27.5 72.5v68q0 1 -27 1q7 10 14 28q1 15 1 82q0 60 -3 78q-2 9 -29 109q-3 9 -13 18t-23 5q7 7 12.5 37t18.5 44q14 -8 24 -8q9 0 53 26q-7 17 -39 17h-24h-23q-39 0 -39 11q0 17 53 17
q17 0 35 -4l30 -7q1 1 35 0.5t34 5.5q5 -10 17 -26zM235 724q-21 0 -34.5 15.5t-13.5 38.5q0 10 2 19q20 18 62 28q39 8 39 -52q0 -20 -18 -34.5t-37 -14.5zM36 729q-53 0 -53 48q0 21 19.5 37t39.5 16q24 0 36 -27q5 -16 17 -47q-29 -27 -59 -27z" />
    <glyph glyph-name="Igrave" unicode="&#xcc;" horiz-adv-x="317" 
d="M189 664q22 -9 49 -9q-2 -15 6 -15q5 0 5 6v10q1 5 5 10l27 -18l-1 -26q-2 -3 -2 -33q0 -4 -16.5 -8t-16.5 -9q0 -85 -29 -134q-20 -34 -20 -91q0 -5 7 -38q9 -40 11 -50q-2 -17 -2 -51q1 -3 8 -14.5t7 -16.5t-8 -23.5t-8 -23.5v-19q10 -6 23 1q-2 -7 -2 -13
q0 -14 15 -31.5t15 -27.5q0 -27 -62 -42q-45 -11 -87 -11q-26 0 -48 8q-38 12 -38 39q0 13 27.5 55.5t27.5 72.5v68q0 1 -27 1q7 10 14 28q1 15 1 82q0 60 -3 78q-2 9 -29 109q-3 9 -13 18t-23 5q7 7 12.5 37t18.5 44q14 -8 24 -8q29 0 74 29q41 27 41 37q5 -10 17 -26z
M169 724q19 -10 52 -28q8 0 12.5 7.5t1.5 14.5q-5 10 -46 64q-44 58 -59 70q-11 9 -16 11q-9 2 -34 -1q-31 -35 -31 -43q0 -2 3 -2l39 -31q37 -30 78 -62zM67 776q-9 10 -22 20l-13 -18z" />
    <glyph glyph-name="Oacute" unicode="&#xd3;" horiz-adv-x="764" 
d="M464 659h-11v6h11v-6zM744 126q-9 -9 -9 -17l-6 13q7 8 15 4zM743 327q-28 -63 -57 -126q-39 -76 -94 -133q-14 -8 -28 -17q-23 -16 -20 -37l-149 -9q-65 0 -117 13q-14 8 -42 20q-10 1 -27 3q-5 1 -16 5.5t-16 4.5t-14.5 -7.5t-14.5 -7.5q1 0 -57 23q-3 -3 -3 -19
q-11 10 -30 32q2 2 8 1q7 -3 11 -3q7 0 23 15.5t16 23.5q0 6 -8.5 16t-14.5 10q-5 0 -8 -1.5t-8 -1.5q-7 0 -21 9.5t-13 15.5q0 10 5 54q3 33 3 54q0 41 -11 74h-10q-15 -1 -73 -62q-13 13 -13 19q24 8 44 26.5t20 37.5q0 16 -22 22q10 27 43 60q30 30 60 61q4 3 4 19
q0 3 -7.5 19t-9.5 39q-2 -1 -2 2q0 9 12 43q39 4 35 29q7 -9 14 -9q4 0 11 2.5t10 2.5q10 0 19 -14q3 -4 3 -9q0 -3 -2.5 -8t-2.5 -7q0 -4 9 -9q37 32 37 64q0 13 -7 25q19 -1 30 -8.5t13 -7.5q5 0 4 1.5t4 1.5t20 -6.5t22 -8.5q4 8 11 23q14 -8 24 -8q14 0 20 3l-11 -12
q10 -12 19.5 -22.5t22.5 -10.5q5 0 16.5 2t16.5 2t44 -9.5t44 -9.5q14 0 23 11q4 -11 17 -11q7 0 22 8q12 -16 22 -16q8 0 12 4q2 -8 10 -24q8 -10 38 -31q-1 -1 -10 -11.5t-9 -15.5q0 -3 21.5 -27t26.5 -38q14 -38 39 -156q7 -1 19 12zM376 544q-4 0 -9 5q-10 -4 -21 -13
v-13h14q6 9 16 21zM332 495l-5 -18q5 3 7 9q1 6 -2 9zM552 340q0 44 -15 68q-18 26 -64 48q0 2 1 14.5t1 22.5q0 52 -40 52q-8 0 -74 -42v-22q23 -7 23 -24q0 -6 -7 -16.5t-8 -15.5q-4 -23 -4 -81q0 -8 16 -46q19 -44 33 -44q5 0 7 2t7 2q21 0 21 -57q0 -21 -9 -59
q-3 -13 -14 -41q2 1 10 6t13 5q7 0 10 -3q0 14 18.5 31.5t19.5 19.5q4 25 15 72q1 1 25 12q0 11 1 28q3 21 3 25q11 -3 11 43zM353 330q-4 2 -12.5 8t-12.5 8q-2 -2 -4.5 -6.5t-4.5 -6.5q12 -13 29 -21zM368 105q2 16 -3 46q-7 42 -25 42q-5 0 -10.5 -2t-8.5 -2q-6 0 -18 10
v22l13 3q9 -9 25 -16q6 33 0 65q-7 -3 -12 -3q-19 0 -16 41q-25 16 -48 16q-22 0 -35 -24q-11 -20 -11 -45q0 -38 17 -61q21 -28 59.5 -66t44.5 -38q5 0 16 6t12 6zM331 247h-5l-5 13l6 2zM350 720q-19 -10 -51 -28q-8 0 -13 7.5t-1 14.5q4 10 45 64q44 58 59 70q11 9 16 11
q9 2 34 -1q31 -35 31 -43q0 -2 -3 -2l-38 -32q-38 -29 -79 -61zM452 772q9 10 22 20l13 -18z" />
    <glyph glyph-name="Ocircumflex" unicode="&#xd4;" horiz-adv-x="764" 
d="M464 659h-11v6h11v-6zM744 126q-9 -9 -9 -17l-6 13q7 8 15 4zM743 327q-28 -63 -57 -126q-39 -76 -94 -133q-14 -8 -28 -17q-23 -16 -20 -37l-149 -9q-65 0 -117 13q-14 8 -42 20q-10 1 -27 3q-5 1 -16 5.5t-16 4.5t-14.5 -7.5t-14.5 -7.5q1 0 -57 23q-3 -3 -3 -19
q-11 10 -30 32q2 2 8 1q7 -3 11 -3q7 0 23 15.5t16 23.5q0 6 -8.5 16t-14.5 10q-5 0 -8 -1.5t-8 -1.5q-7 0 -21 9.5t-13 15.5q0 10 5 54q3 33 3 54q0 41 -11 74h-10q-15 -1 -73 -62q-13 13 -13 19q24 8 44 26.5t20 37.5q0 16 -22 22q10 27 43 60q30 30 60 61q4 3 4 19
q0 3 -7.5 19t-9.5 39q-2 -1 -2 2q0 9 12 43q39 4 35 29q7 -9 14 -9q4 0 11 2.5t10 2.5q10 0 19 -14q3 -4 3 -9q0 -3 -2.5 -8t-2.5 -7q0 -4 9 -9q37 32 37 64q0 13 -7 25q19 -1 30 -8.5t13 -7.5q5 0 4 1.5t4 1.5t20 -6.5t22 -8.5q4 8 11 23q14 -8 24 -8q14 0 20 3l-11 -12
q10 -12 19.5 -22.5t22.5 -10.5q5 0 16.5 2t16.5 2t44 -9.5t44 -9.5q14 0 23 11q4 -11 17 -11q7 0 22 8q12 -16 22 -16q8 0 12 4q2 -8 10 -24q8 -10 38 -31q-1 -1 -10 -11.5t-9 -15.5q0 -3 21.5 -27t26.5 -38q14 -38 39 -156q7 -1 19 12zM376 544q-4 0 -9 5q-10 -4 -21 -13
v-13h14q6 9 16 21zM332 495l-5 -18q5 3 7 9q1 6 -2 9zM552 340q0 44 -15 68q-18 26 -64 48q0 2 1 14.5t1 22.5q0 52 -40 52q-8 0 -74 -42v-22q23 -7 23 -24q0 -6 -7 -16.5t-8 -15.5q-4 -23 -4 -81q0 -8 16 -46q19 -44 33 -44q5 0 7 2t7 2q21 0 21 -57q0 -21 -9 -59
q-3 -13 -14 -41q2 1 10 6t13 5q7 0 10 -3q0 14 18.5 31.5t19.5 19.5q4 25 15 72q1 1 25 12q0 11 1 28q3 21 3 25q11 -3 11 43zM353 330q-4 2 -12.5 8t-12.5 8q-2 -2 -4.5 -6.5t-4.5 -6.5q12 -13 29 -21zM368 105q2 16 -3 46q-7 42 -25 42q-5 0 -10.5 -2t-8.5 -2q-6 0 -18 10
v22l13 3q9 -9 25 -16q6 33 0 65q-7 -3 -12 -3q-19 0 -16 41q-25 16 -48 16q-22 0 -35 -24q-11 -20 -11 -45q0 -38 17 -61q21 -28 59.5 -66t44.5 -38q5 0 16 6t12 6zM331 247h-5l-5 13l6 2zM496 713q5 -7 4 -8q-5 -1 -9.5 -2.5t-17.5 -0.5q-17 15 -32 19q-6 2 -12 3
q-6 8 -22 18q-6 2 -12 5l-11 2q-5 0 -11 2q-3 6 -9 16q-5 -4 -10 -5.5l-10 -3t-10 -9.5q-1 1 -15 -6l-2 11l-10 -24q-12 -11 -18 -11q-4 0 -4.5 5.5t-1.5 4.5q-15 -5 -30 -18q-1 1 -19 -13q-4 -7 -21 11l25 17l-6 3l25 14l17 22q4 6 19 7l21 29l-10 2l28 14l15 14q8 6 19 1
h2l27 -22l4 -9l15 -16l18 -12q7 -4 3 -15l28 -12l4 -12l17 -6z" />
    <glyph glyph-name="Ograve" unicode="&#xd2;" horiz-adv-x="764" 
d="M464 659h-11v6h11v-6zM744 126q-9 -9 -9 -17l-6 13q7 8 15 4zM744 328q-29 -63 -57 -126q-39 -76 -94 -132q-14 -9 -28 -17q-23 -16 -20 -38l-149 -8q-65 0 -117 12q-15 8 -43 21q-9 0 -26 2q-5 1 -16 6t-16 5t-14.5 -8t-14.5 -8l-57 23q-4 -3 -4 -19q-11 11 -29 33
q2 2 7 0q8 -2 12 -2q7 0 22.5 15.5t15.5 22.5t-8 17t-15 10q-5 0 -7.5 -2t-7.5 -2q-7 0 -21 9.5t-14 15.5q1 10 5 54q3 34 3 54q0 41 -11 74h-9q-15 0 -74 -61q-13 13 -13 18q25 9 43 26q22 19 22 38q0 16 -23 22q11 27 42.5 59t61.5 62q3 4 3 20q0 2 -7 18.5t-10 38.5
q-1 -1 -1 3q0 8 12 42q38 5 35 30q6 -9 14 -9q3 0 10 2.5t11 2.5q10 0 19 -14q3 -5 3 -9t-2.5 -8.5t-2.5 -6.5q0 -5 9 -10q36 33 36 65q0 13 -7 25q19 -1 30.5 -9t13.5 -8q5 0 4 2t4 2t19.5 -7t21.5 -8q4 7 12 23q13 -8 23 -8q15 0 21 3l-11 -13q10 -11 19.5 -21.5
t22.5 -10.5q5 0 16.5 2t16.5 2q4 0 43.5 -9.5t44.5 -9.5q14 0 23 11q4 -11 17 -11q6 0 21 7q12 -15 23 -15q8 0 12 4q2 -9 10 -24q8 -10 37 -31q0 -1 -9.5 -11.5t-9.5 -16.5q0 -3 21.5 -26.5t27.5 -37.5q13 -38 39 -156q6 -1 19 11zM376 544q-4 0 -9 5q-10 -4 -21 -13v-13
h14q6 9 16 21zM332 495l-5 -18q5 3 7 9q1 6 -2 9zM552 340q0 44 -15 68q-18 26 -64 48q0 2 1 14.5t1 22.5q0 52 -40 52q-8 0 -74 -42v-22q23 -7 23 -24q0 -6 -7 -16.5t-8 -15.5q-4 -23 -4 -81q0 -8 16 -46q19 -44 33 -44q5 0 7 2t7 2q21 0 21 -57q0 -21 -9 -59
q-3 -13 -14 -41q2 1 10 6t13 5q7 0 10 -3q0 14 18.5 31.5t19.5 19.5q4 25 15 72q1 1 25 12q0 11 1 28q3 21 3 25q11 -3 11 43zM353 330q-4 2 -12.5 8t-12.5 8q-2 -2 -4.5 -6.5t-4.5 -6.5q12 -13 29 -21zM368 105q2 16 -3 46q-7 42 -25 42q-5 0 -10.5 -2t-8.5 -2q-6 0 -18 10
v22l13 3q9 -9 25 -16q6 33 0 65q-7 -3 -12 -3q-19 0 -16 41q-25 16 -48 16q-22 0 -35 -24q-11 -20 -11 -45q0 -38 17 -61q21 -28 59.5 -66t44.5 -38q5 0 16 6t12 6zM331 247h-5l-5 13l6 2zM379 724q19 -10 52 -28q8 0 12.5 7.5t1.5 14.5q-5 10 -46 64q-44 58 -59 70
q-11 9 -16 11q-9 2 -34 -1q-31 -35 -31 -43q0 -2 3 -2l39 -31q37 -30 78 -62zM277 776q-9 10 -22 20l-13 -18z" />
    <glyph glyph-name="Uacute" unicode="&#xda;" horiz-adv-x="670" 
d="M491 321h-31l15 36h7zM659 107q-1 -2 -10 -14t-9 -18q0 -5 6 -18q8 -17 9 -20q-2 -2 -6.5 -4.5t-6.5 -4.5q-2 1 -24 19q-16 13 -25 13q-3 0 -6 -1v25q10 0 17 -7q6 6 6 11q0 3 -4 9t-4 10q1 0 12 7q7 5 12 5q6 0 17.5 -5.5t15.5 -6.5zM697 716q0 -11 -16 -24t-18 -22
q3 -21 -2 -61q-17 -36 -34 -73q-10 -28 -10 -80q0 -4 5 -44q7 -46 9 -63q3 -35 -3 -103q0 -7 12 -19q-7 -5 -19 -16q-17 -36 -61 -102q-11 -1 -27 -6q-8 -5 -15.5 -21.5t-12.5 -21.5q-31 -18 -62 -37q-45 -27 -50 -55q-60 -8 -102 -8q0 -21 -5 -37q-10 -26 -51 -46
q-1 -10 -6 -27q-3 1 -10 6q4 2 11 11l-3 6q-6 2 -22 -1t-18 -3q-11 0 -20 26q-6 17 -11 35h-10q-11 -19 -29 -19q-5 0 -30.5 11t-30.5 11q-3 0 -2 -1q3 -4 3 -6t-2 -4q-4 6 -17 16l15 31q0 4 -10 14q-5 -8 -17 -26h-5q1 5 1 10q0 25 -28 20q8 23 24 45q5 -5 4 -19.5t7 -22.5
q17 11 17 48q0 31 -19 31q-5 0 -11 -3v14q6 16 22 16q10 0 21 -11q3 1 0.5 10t4.5 15v9q0 8 -6 9q-13 48 -41 80q-8 16 -24 47q6 6 11 37q5 26 20 30l31 9h12q5 -14 10 -29q8 -20 27 -35q15 8 15 25q0 9 -5.5 27.5t-5.5 26.5q0 6 2 11q1 0 7.5 6t6.5 10q0 5 -25.5 71
t-25.5 71q0 4 24.5 -23t25.5 -25q2 2 2 6q0 6 -5 18.5t-5 16.5q0 38 -26 64.5t-26 35.5q0 17 89 48q-25 -29 -41 -55q41 35 89 73q-2 -7 -5 -13q-8 -13 -17 -26q-3 -7 -5 -13q18 4 48 29.5t29 25.5q15 6 27 6q22 0 36 -32.5t25 -32.5q-10 -10 -32 -33q-15 -13 -35 -42
q-14 -39 -14 -128q0 -35 16 -85q1 -4 11 -10.5t13 -11.5q6 -14 15 -51q0 2 -8 10q-8 -3 -10 -13q-2 -7 0 -20q2 -16 2 -19q-9 -11 -9 -30q0 -24 45 -45q36 -17 50 -17q4 0 10 2t11 2q11 0 27 -16q11 7 17 28q-3 2 -11 1q-10 -2 -12 -2q-16 0 -25 9l-24 30q-2 11 17 18
q2 -10 11 -31q31 16 43 16q5 0 9 -5q6 -8 9 -10q24 8 24 22q0 9 -34 43q-1 12 13 25q2 0 20 -19h14q3 6 -5 30q6 3 23 5q7 9 18 43q12 40 12 65q0 36 -8 84q-9 59 -24 81q-4 7 -31 30q-21 18 -21 34q0 33 43 49l-12 26q30 -14 32 -14q5 0 18 9.5t18 9.5q4 0 22.5 -11.5
t22.5 -11.5q20 0 35 10q0 12 -11 27q2 -2 6 -2q8 0 26.5 13.5t25.5 15.5q6 -5 6 -13zM49 112q-6 0 -18 12v14q7 -4 18 -26zM28 -131q3 0 6 -10t1 -15l-31 7q10 11 24 18zM117 161v14q-8 9 -28 13q-16 4 -21 16q3 2 -4.5 8.5t-7.5 7.5q-6 5 -7.5 14t-4.5 14q-5 -11 -13 -29
q12 -8 19.5 -28t13.5 -26q-5 -16 24 -16q20 0 29 12zM268 11q-14 14 -47 18q-38 4 -46 8t-23.5 29t-30.5 30v-20q0 -4 6 -12q10 -9 11 -12q1 -4 0 -14q-2 -11 -2 -13q73 -27 98 -27q21 0 34 13zM132 0q-2 0 -9.5 2.5t-9.5 2.5q0 -7 5 -14q4 0 14 9zM380 724q-19 -10 -51 -28
q-8 0 -13 7.5t-1 14.5q5 10 46 64q43 58 59 70q10 9 15 11q9 2 34 -1q32 -35 32 -43q0 -2 -4 -2l-38 -31q-38 -30 -79 -62zM483 776q8 10 22 20l12 -18z" />
    <glyph glyph-name="Ucircumflex" unicode="&#xdb;" horiz-adv-x="691" 
d="M501 321h-31l15 36h7zM669 107q-1 -2 -10 -14t-9 -18q0 -5 6 -18q8 -17 9 -20q-2 -2 -6.5 -4.5t-6.5 -4.5q-2 1 -24 19q-16 13 -25 13q-3 0 -6 -1v25q10 0 17 -7q6 6 6 11q0 3 -4 9t-4 10q1 0 12 7q7 5 12 5q6 0 17.5 -5.5t15.5 -6.5zM707 716q0 -11 -16 -24t-18 -22
q3 -21 -2 -61q-17 -36 -34 -73q-10 -28 -10 -80q0 -4 5 -44q7 -46 9 -63q3 -35 -3 -103q0 -7 12 -19q-7 -5 -19 -16q-17 -36 -61 -102q-11 -1 -27 -6q-8 -5 -15.5 -21.5t-12.5 -21.5q-31 -18 -62 -37q-45 -27 -50 -55q-60 -8 -102 -8q0 -21 -5 -37q-10 -26 -51 -46
q-1 -10 -6 -27q-3 1 -10 6q4 2 11 11l-3 6q-6 2 -22 -1t-18 -3q-11 0 -20 26q-6 17 -11 35h-10q-11 -19 -29 -19q-5 0 -30.5 11t-30.5 11q-9 0 -21 -11q-4 6 -17 16l15 31q0 4 -10 14q-5 -8 -17 -26h-5q1 5 1 10q0 25 -28 20q8 23 24 45q5 -5 4 -19.5t7 -22.5q17 11 17 48
q0 31 -19 31q-5 0 -11 -3v14q6 16 22 16q10 0 21 -11l25 25q-4 13 -26 18q-13 48 -41 80q-8 16 -24 47q6 6 11 37q5 26 20 30q33 10 51 9h12q5 -14 10 -29q8 -20 27 -35q15 8 15 25q0 9 -5.5 27.5t-5.5 26.5q0 6 2 11q1 0 7.5 6t6.5 10q0 5 -25.5 71t-25.5 71q0 4 24.5 -23
t25.5 -25q2 2 2 6q0 6 -5 18.5t-5 16.5q0 38 -26 64.5t-26 35.5q0 17 89 48q-25 -29 -41 -55q41 35 89 73q-2 -7 -5 -13q-8 -13 -17 -26q-3 -7 -5 -13q18 4 48 29.5t29 25.5q15 6 27 6q22 0 36 -32.5t25 -32.5q-10 -10 -32 -33q-15 -13 -35 -42q-14 -39 -14 -128
q0 -35 16 -85q1 -4 11 -10.5t13 -11.5q6 -14 15 -51q0 2 -8 10q-8 -3 -10 -13q-2 -7 0 -20q2 -16 2 -19q-9 -11 -9 -30q0 -24 45 -45q36 -17 50 -17q4 0 10 2t11 2q11 0 27 -16q11 7 17 28q-3 2 -11 1q-10 -2 -12 -2q-16 0 -25 9l-24 30q-2 11 17 18q2 -10 11 -31
q31 16 43 16q5 0 9 -5q6 -8 9 -10q24 8 24 22q0 9 -34 43q-1 12 13 25q2 0 20 -19h14q3 6 -5 30q6 3 23 5q7 9 18 43q12 40 12 65q0 36 -8 84q-9 59 -24 81q-4 7 -31 30q-21 18 -21 34q0 33 43 49l-12 26q30 -14 32 -14q5 0 18 9.5t18 9.5q4 0 22.5 -11.5t22.5 -11.5
q20 0 35 10q0 12 -11 27q2 -2 6 -2q8 0 26.5 13.5t25.5 15.5q6 -5 6 -13zM39 112q-6 0 -18 12v14q7 -4 18 -26zM18 -131q3 0 6 -10t1 -15l-31 7q10 11 24 18zM127 161v14q-8 9 -38 13q-26 4 -31 16q8 7 8 16q-12 8 -32 28q-5 -11 -13 -29q6 -4 53 -54q-5 -16 24 -16
q20 0 29 12zM278 11q-14 14 -47 18q-38 4 -46 8t-23.5 29t-30.5 30v-20q0 -4 6 -12q10 -9 11 -12q1 -4 0 -14q-2 -11 -2 -13q73 -27 98 -27q21 0 34 13zM142 0q-2 0 -9.5 2.5t-9.5 2.5q0 -7 5 -14q4 0 14 9zM496 723q5 -7 4 -8q-5 -1 -9.5 -2.5t-17.5 -0.5q-17 15 -32 19
q-6 2 -12 3q-6 8 -22 18q-6 2 -12 5l-11 2q-5 0 -11 2q-3 6 -9 16q-5 -4 -10 -5.5l-10 -3t-10 -9.5q-1 1 -15 -6l-2 11l-10 -24q-12 -11 -18 -11q-4 0 -4.5 5.5t-1.5 4.5q-15 -5 -30 -18q-1 1 -19 -13q-4 -7 -21 11l25 17l-6 3l25 14l17 22q4 6 19 7l21 29l-10 2l28 14
l15 14q3 3 13 17q7 10 11 8l11 -15l7 -25l25 -7v-24l22 -5q4 -1 11 -12t7 -13l9 -9l16 -13l5 -5z" />
    <glyph glyph-name="Ugrave" unicode="&#xd9;" horiz-adv-x="688" 
d="M481 321h-31l15 36h7zM649 107q-1 -2 -10 -14t-9 -18q0 -5 6 -18q8 -17 9 -20q-2 -2 -6.5 -4.5t-6.5 -4.5q-2 1 -24 19q-16 13 -25 13q-3 0 -6 -1v25q10 0 17 -7q6 6 6 11q0 3 -4 9t-4 10q1 0 12 7q7 5 12 5q6 0 17.5 -5.5t15.5 -6.5zM687 716q0 -11 -16 -24t-18 -22
q3 -21 -2 -61q-17 -36 -34 -73q-10 -28 -10 -80q0 -4 5 -44q7 -46 9 -63q3 -35 -3 -103q0 -7 12 -19q-7 -5 -19 -16q-17 -36 -61 -102q-11 -1 -27 -6q-8 -5 -15.5 -21.5t-12.5 -21.5q-31 -18 -62 -37q-45 -27 -50 -55q-60 -8 -102 -8q0 -21 -5 -37q-10 -26 -51 -46
q-1 -10 -6 -27q-3 1 -10 6q4 2 11 11l-3 6q-6 2 -22 -1t-18 -3q-11 0 -20 26q-6 17 -11 35h-10q-11 -19 -29 -19q-5 0 -30.5 11t-30.5 11q-9 0 -21 -11q-4 6 -17 16l15 31q0 4 -10 14q-5 -8 -17 -26h-5q1 5 1 10q0 25 -28 20q8 23 24 45q5 -5 4 -19.5t7 -22.5q17 11 17 48
q0 31 -19 31q-5 0 -11 -3v14q6 16 22 16q10 0 21 -11l25 25q-4 13 -26 18q-13 48 -41 80q-8 16 -24 47q6 6 11 37q5 26 20 30q33 10 51 9h12q5 -14 10 -29q8 -20 27 -35q15 8 15 25q0 9 -5.5 27.5t-5.5 26.5q0 6 2 11q1 0 7.5 6t6.5 10q0 5 -25.5 71t-25.5 71q0 4 24.5 -23
t25.5 -25q2 2 2 6q0 6 -5 18.5t-5 16.5q0 38 -26 64.5t-26 35.5q0 17 89 48q-25 -29 -41 -55q41 35 89 73q-2 -7 -5 -13q-8 -13 -17 -26q-3 -7 -5 -13q18 4 48 29.5t29 25.5q15 6 27 6q22 0 36 -32.5t25 -32.5q-10 -10 -32 -33q-15 -13 -35 -42q-14 -39 -14 -128
q0 -35 16 -85q1 -4 11 -10.5t13 -11.5q6 -14 15 -51q0 2 -8 10q-8 -3 -10 -13q-2 -7 0 -20q2 -16 2 -19q-9 -11 -9 -30q0 -24 45 -45q36 -17 50 -17q4 0 10 2t11 2q11 0 27 -16q11 7 17 28q-3 2 -11 1q-10 -2 -12 -2q-16 0 -25 9l-24 30q-2 11 17 18q2 -10 11 -31
q31 16 43 16q5 0 9 -5q6 -8 9 -10q24 8 24 22q0 9 -34 43q-1 12 13 25q2 0 20 -19h14q3 6 -5 30q6 3 23 5q7 9 18 43q12 40 12 65q0 36 -8 84q-9 59 -24 81q-4 7 -31 30q-21 18 -21 34q0 33 43 49l-12 26q30 -14 32 -14q5 0 18 9.5t18 9.5q4 0 22.5 -11.5t22.5 -11.5
q20 0 35 10q0 12 -11 27q2 -2 6 -2q8 0 26.5 13.5t25.5 15.5q6 -5 6 -13zM19 112q-6 0 -18 12v14q7 -4 18 -26zM-2 -131q3 0 6 -10t1 -15l-31 7q10 11 24 18zM107 161v14q-8 9 -38 13q-26 4 -31 16q8 7 8 16q-12 8 -32 28q-5 -11 -13 -29q6 -4 53 -54q-5 -16 24 -16
q20 0 29 12zM258 11q-14 14 -47 18q-38 4 -46 8t-23.5 29t-30.5 30v-20q0 -4 6 -12q10 -9 11 -12q1 -4 0 -14q-2 -11 -2 -13q73 -27 98 -27q21 0 34 13zM122 0q-2 0 -9.5 2.5t-9.5 2.5q0 -7 5 -14q4 0 14 9zM379 724q19 -10 52 -28q8 0 12.5 7.5t1.5 14.5q-5 10 -46 64
q-44 58 -59 70q-11 9 -16 11q-9 2 -34 -1q-31 -35 -31 -43q0 -2 3 -2l39 -31q37 -30 78 -62zM277 776q-9 10 -22 20l-13 -18z" />
    <glyph glyph-name="circumflex" unicode="&#x2c6;" horiz-adv-x="463" 
d="M356 723q5 -7 4 -8q-5 -1 -9.5 -2.5t-17.5 -0.5q-17 15 -32 19q-6 2 -12 3q-6 8 -22 18q-6 2 -12 5l-11 2q-5 0 -11 2q-3 6 -9 16q-5 -4 -10 -5.5l-10 -3t-10 -9.5q-1 1 -15 -6l-2 11l-10 -24q-12 -11 -18 -11q-4 0 -4.5 5.5t-1.5 4.5q-15 -5 -30 -18q-1 1 -19 -13
q-4 -7 -21 11l25 17l-6 3l25 14l17 22q12 16 19 17l21 19l-10 2l28 14l15 14q8 6 19 1h2l27 -22l4 -9l15 -6l18 -12q9 -5 3 -25l28 -12l4 -12l17 -6z" />
    <glyph glyph-name="tilde" unicode="&#x2dc;" horiz-adv-x="322" 
d="M25 707q-20 9 -20 21q0 4 3 8q16 24 31 40q32 23 35 20q1 -1 18 -1v0q18 0 22 -1q12 2 29 -5q4 -6 17.5 -13.5t20.5 -7.5q23 0 31 2q18 6 23 6l12 12l3 6.5t7 6.5q2 0 4 -2q6 -3 6 -8q0 -1 7.5 -5t7.5 -7t-11.5 -18.5t-11.5 -19t-15 -12.5t-17 -10q-6 -6 -41 -12
q-21 3 -46 9q-23 23 -29 23q1 0 -13 4t-15 2q-4 -9 -8 -9q-8 -2 -15 -3q-12 -4 -11 -8q1 -7 -1 -9q-5 -8 -23 -9z" />
    <glyph glyph-name="macron" unicode="&#xaf;" horiz-adv-x="285" 
d="M207 824q25 1 25 -21q0 -17 -4 -33l-4 2.5t-7 2.5q-6 0 -12 -7q-56 0 -80 3.5t-18 3.5q-41 0 -56 -9q4 3 -31 7q-4 -1 -7 -1q-9 0 -9 11q0 12 12 37z" />
    <glyph glyph-name="macron" unicode="&#x2c9;" horiz-adv-x="285" 
d="M207 824q25 1 25 -21q0 -17 -4 -33l-4 2.5t-7 2.5q-6 0 -12 -7q-56 0 -80 3.5t-18 3.5q-41 0 -56 -9q4 3 -31 7q-4 -1 -7 -1q-9 0 -9 11q0 12 12 37z" />
    <glyph glyph-name="cedilla" unicode="&#xb8;" horiz-adv-x="345" 
d="M142 19q-15 -22 -15 -26q0 -3 1.5 -15.5t1.5 -13.5q0 -2 -10 -54q38 14 41 9q1 -2 20.5 -2t19.5 -2t4.5 -12t4.5 -17q0 -10 -11.5 -21.5t-21.5 -11.5q-4 0 -20.5 3t-17.5 1.5t-13.5 3.5t-12.5 4t-9.5 -28t-9.5 -29q0 -5 33 -5q9 0 54 -2l58 25q4 2 18 22t14 25
q0 22 -11 61q-45 21 -47 21t-52 2l33 74z" />
    <glyph glyph-name="Scaron" unicode="&#x160;" 
 />
    <glyph glyph-name="scaron" unicode="&#x161;" 
 />
    <glyph glyph-name="brokenbar" unicode="&#xa6;" 
 />
    <glyph glyph-name="Eth" unicode="&#xd0;" 
 />
    <glyph glyph-name="eth" unicode="&#xf0;" 
 />
    <glyph glyph-name="Yacute" unicode="&#xdd;" 
 />
    <glyph glyph-name="yacute" unicode="&#xfd;" 
 />
    <glyph glyph-name="Thorn" unicode="&#xde;" 
 />
    <glyph glyph-name="thorn" unicode="&#xfe;" 
 />
    <glyph glyph-name="minus" unicode="&#xad;" 
 />
    <glyph glyph-name="minus" unicode="&#x2212;" 
 />
    <glyph glyph-name="multiply" unicode="&#xd7;" 
 />
    <glyph glyph-name="onesuperior" unicode="&#xb9;" 
 />
    <glyph glyph-name="twosuperior" unicode="&#xb2;" 
 />
    <glyph glyph-name="threesuperior" unicode="&#xb3;" 
 />
    <glyph glyph-name="onehalf" unicode="&#xbd;" 
 />
    <glyph glyph-name="onequarter" unicode="&#xbc;" 
 />
    <glyph glyph-name="threequarters" unicode="&#xbe;" 
 />
    <glyph glyph-name="Lslash" unicode="&#x141;" 
 />
    <glyph glyph-name="lslash" unicode="&#x142;" 
 />
    <glyph glyph-name="HT" 
 />
    <glyph glyph-name="LF" 
 />
    <glyph glyph-name="nonmarkingreturn" 
 />
    <glyph glyph-name="Zcaron" unicode="&#x17d;" 
 />
    <glyph glyph-name="zcaron" unicode="&#x17e;" 
 />
    <glyph glyph-name="DLE" 
 />
    <glyph glyph-name="DC1" 
 />
    <glyph glyph-name="DC2" 
 />
    <glyph glyph-name="DC3" 
 />
    <glyph glyph-name="DC4" 
 />
    <glyph glyph-name="RS" 
 />
    <glyph glyph-name="US" 
 />
    <glyph glyph-name="notequal" unicode="&#x2260;" 
 />
    <glyph glyph-name="infinity" unicode="&#x221e;" 
 />
    <glyph glyph-name="lessequal" unicode="&#x2264;" 
 />
    <glyph glyph-name="greaterequal" unicode="&#x2265;" 
 />
    <glyph glyph-name="partialdiff" unicode="&#x2202;" horiz-adv-x="293" 
d="M232 21q0 -26 -43 -26q-12 0 -31 2t-23 2q-38 0 -60 22q0 19 3 66q2 42 1 65v2q-7 -2 -10 -5q-13 -10 -40 -27l-26 -32l1 74q1 9 3 17q6 18 18 26q3 2 8.5 -3t8.5 -2q4 3 13 18q-4 8 -8 14q4 -4 14 -4h1q3 5 27 25q3 14 -1 39q-4 30 -4 29q0 8 -2 46q-1 30 0 47
q1 16 7.5 47.5t6.5 35.5q0 44 -17.5 68t-19.5 33q-29 0 -42 3q7 4 11 20q3 9 5 19q15 28 45 28q3 0 17 -6l36 -17q3 1 -7.5 10t-7.5 9q74 0 81 -2q21 -6 18 -49q-1 -7 -8 -5t-7 -1q5 -22 9 -57q-7 -54 -6 -55l11 -67l-17 24l6 -114l-2 -10q12 16 35 43q6 6 4 8q-1 1 -2 1
q1 4 7 14q11 8 28 23q5 5 5 -4q1 -7 -0.5 -19.5t-1.5 -14.5q-4 -10 -4 -17q0 -8 5 -14.5t5 -8.5q0 4 -27 -39q-9 -15 -16 -25q-3 -4 -29 -7l2 -39q-2 -50 -6 -104q-2 -2 26 -106z" />
    <glyph glyph-name="summation" unicode="&#x2211;" horiz-adv-x="494" 
d="M436 -90q-15 17 -48 54v51l33 -1q17 -33 15 -104zM478 131q-10 -36 -56 -79q-43 -35 -87 -71q0 -4 3 -13.5t3 -13.5q-7 0 -37 -7q2 4 11 31q-2 2 -93 2q-11 3 -56 16q-35 11 -40 11q-3 0 -82 -23q-24 38 -24 131q0 76 32 96q9 -9 48 -66q29 -43 55 -57q1 0 7.5 -6.5
t12.5 -6.5q5 0 13.5 3.5t12.5 3.5q20 -30 35 -30q4 0 12 2t13 2h25q3 9 -5 41q23 16 23 25q0 42 -99 99q-16 8 -108 52q-25 12 -62.5 78.5t-37.5 100.5q0 10 44 80q47 74 60 74q4 0 7.5 -2t9.5 -2q3 0 15 14t22 15q32 32 64 32q64 0 85 -14q-4 -2 -4 -5q0 -1 3.5 -5t3.5 -7
t-1 -4q8 -6 8.5 -20t4.5 -14q10 0 17 15q7 -13 36 -30t37 -38q10 -1 14 12q4 10 3 18q13 -5 26 -16q-4 -8 -4 -29q0 -24 5 -32q10 -18 13 -28q-30 22 -43 22q-11 0 -20 -23q-5 -14 -10 -28.5t-22 -39.5q-13 2 -36 27.5t-29 25.5q-4 0 -10 -3.5t-10 -3.5q-4 14 -12 40l15 4
q-9 15 -25 24q-8 0 -6 -15q-1 0 -6 1.5t-10 1.5q-21 0 -29 -18q-5 -13 -9 -26q-17 -29 -17 -31q0 -28 29 -37q19 -3 38 -7q11 -6 16 -6q16 0 16 16q0 8 -4 19l-4 10h18q3 -5 7 -44q-3 0 -18 -7q8 -20 41 -36q30 -14 50 -14q11 0 24.5 15t14.5 26q22 -18 27 -75q6 -64 23 -89
q4 -5 1 -23q-3 -15 -7 -31q-2 -13 8 -13q5 0 7.5 1.5t3.5 1.5zM100 810q-6 7 -4 8q5 1 9 3q5 2 17 0q18 -15 32 -19q6 -1 13 -3q5 -7 22 -18q6 -2 11 -4l11 -2q5 -1 11 -2l-1 1v0q5 -5 11 -12q4 1 11 -1q4 2 9 4t10 10q0 -2 14 5l3 -11q5 12 10 25q12 10 18 10q4 0 4.5 -5.5
t0.5 -4.5q15 6 31 19q0 -2 19 12q4 7 20 -10l-25 -17l6 -4l-25 -14l-16 -21q-4 -6 -19 -8l-22 -19l11 -2l-29 -14l-15 -14q-7 -6 -19 0l-2 -1l-27 22l-3 9l-15 7l-19 11q-6 4 -3 15l-27 13l-4 11l-17 7z" />
    <glyph glyph-name="product" unicode="&#x220f;" horiz-adv-x="395" 
d="M365 163q0 -25 -27 -145q-6 -8 -18 -30q-2 -4 -7 -33q-1 -3 -3 -3q-3 0 -12.5 4.5t-12.5 4.5t-4 -3q-6 15 -33 58q-7 -5 -20 -42q-10 9 -32 33q-9 9 -26 9q-23 0 -40 -21q-12 -21 -24 -41l-68 46q1 1 3 1q5 0 20 -9t18 -9q2 0 2 2q0 11 -36 37t-36 37q0 3 1.5 38t1.5 52
q8 -15 19 -15q12 0 29 17.5t19 17.5q5 0 33 -15q33 -18 44 -22q11 -8 39 -20q0 -8 10 -20t12 -17l7 -8q10 0 18.5 14.5t8.5 26.5q0 25 -55 49q-47 21 -76 21q-5 44 -52 91q-50 50 -53 63q-3 9 1 21q0 1 -5.5 4t-5.5 9t7 24q9 22 11 29l33 -8q5 0 16 11t15 12q61 28 88 28
q19 0 66 -11q11 -2 33.5 -14t28.5 -23q23 -41 23 -93q0 -5 -46 -28v-12q22 -22 43 -44q42 -46 42 -74zM150 332q13 1 18 -9q34 18 34 16q0 6 -34 39q-2 -7 -9 -23.5t-9 -22.5zM214 306l3 18l-44 -15l26 -15zM109 3l3 19l-29 15l7 -30zM50 610q-6 7 -4 8q5 1 9 3q5 2 17 0
q18 -15 32 -19q6 -1 13 -3q5 -7 22 -18q6 -2 11 -4l11 -2q5 -1 11 -2l-1 1v0q5 -5 11 -12q4 1 11 -1q4 2 9 4t10 10q0 -2 14 5l3 -11q5 12 10 25q12 10 18 10q4 0 4.5 -5.5t0.5 -4.5q15 6 31 19q0 -2 19 12q4 7 20 -10l-25 -17l6 -4l-25 -14l-16 -21q-4 -6 -19 -8l-22 -19
l11 -2l-29 -14l-15 -14q-7 -6 -19 0l-2 -1l-27 22l-3 9l-15 7l-19 11q-6 4 -3 15l-27 13l-4 11l-17 7z" />
    <glyph glyph-name="pi" unicode="&#x3c0;" horiz-adv-x="615" 
d="M622 626q0 -2 -2 -9.5t-2 -9.5q-22 0 -32 -8.5t-8 -8.5q-5 0 -4 2t-4 2q-7 0 -39 -40q-64 -79 -98 -192q-6 -3 -18 -16q-25 -52 -25 -73q0 -17 17.5 -40t37.5 -23q12 0 26 7q-5 -6 -40 -34q-25 -21 -25 -27q0 -11 11.5 -20.5t23.5 -18.5q1 -7 5.5 -29t4.5 -28
q0 -3 -28 -71l-16 28q-11 17 -27 17q-25 0 -48 -11v-20q10 -10 17 -10l20 3l-8 -9q9 -14 33 -37q-23 -6 -53 -21q0 -6 8 -6v-19l-10 -9q-16 19 -42 58q-6 22 -19 65q-1 1 -50 20q-30 12 -30 35q0 4 16.5 37t16.5 38q0 24 -16 48q-8 1 -16 3q-12 3 -17 14q28 -3 42 27
q10 24 19 49q-7 7 -10 7q-4 -4 -4 -21q-27 17 -32 57q-3 31 -5 63q0 3 -17 28l-45 65q-32 40 -59 58q8 11 8 20q0 27 -89 45v54q-1 5 19.5 20t25.5 23q8 0 14 -12q23 12 49 12q5 0 25.5 -6t25.5 -6q16 0 40 8q1 -24 32 -36l50 -18q-16 -42 -16 -56q0 -41 36 -104
q13 -23 61 -93q9 4 20 20q10 13 44 73q43 75 43 89q0 5 -20 29t-20 31q0 49 112 49q43 0 49 -2q12 -3 25.5 -12.5t13.5 -16.5q0 -6 -7 -15t-14 -17q3 -3 9 -1q11 2 15 2zM302 734q-19 -10 -52 -28q-8 0 -12.5 7.5t-1.5 14.5q5 10 46 64q44 58 59 70q11 9 16 11q9 2 34 -1
q31 -35 31 -43q0 -2 -3 -2l-39 -31q-1 -2 -38.5 -31t-39.5 -31zM404 786q9 10 22 20l13 -18z" />
    <glyph glyph-name="integral" unicode="&#x222b;" horiz-adv-x="519" 
d="M527 396q0 -11 -52 -67q-60 -64 -64 -71q-9 -23 -27 -66q-14 -27 -33 -38q-26 6 -26 40q0 5 19 58t19 59q0 12 -10 31.5t-23 28.5v36q17 10 53 27q43 16 86 16q9 0 33.5 -20.5t24.5 -33.5zM325 62q0 -35 -37 -100q-40 -69 -45 -98q-5 -36 -43 -86q-39 -53 -85 -53
q-28 0 -53 21.5t-25 50.5q0 6 1 12q15 15 57 25q48 11 62 19q21 12 35 47q11 29 11 51q0 10 -8 34q-8 28 -17 42q-29 43 -54 110q-33 87 -41 103q-20 40 -81 126q-6 9 -6 36q16 20 40.5 23t90.5 15q56 10 61 10q38 0 38 -49q0 -6 -11.5 -39t-11.5 -39q0 -7 4 -12t8 -8l4 -46
q5 -28 24 -42q-2 0 24 14q9 -49 -2 -87q21 -19 40.5 -39.5t19.5 -40.5zM232 514q-19 -10 -52 -28q-8 0 -12.5 7.5t-1.5 14.5q5 10 46 64q44 58 59 70q11 9 16 11q9 2 34 -1q31 -35 31 -43q0 -2 -3 -2l-39 -31q-1 -2 -38.5 -31t-39.5 -31zM334 566q9 10 22 20l13 -18z" />
    <glyph glyph-name="Omega" unicode="&#x3a9;" horiz-adv-x="781" 
d="M485 434q30 1 30 -9q0 -3 -1.5 -10t-1.5 -11q0 -21 -31 -46q-69 0 -105 3.5t-30 3.5q-37 0 -47 -2q-3 -7 -3 -13q0 -27 1 -48q11 1 12 2q50 0 72 -3q15 -1 17 -4t4 -3q51 0 70 10q-5 -3 39 -8q20 -4 20 -25q0 -16 -15 -41l-212 -4q18 -123 76 -123q7 0 8.5 6.5t11.5 6.5
q11 0 12.5 -7.5t7.5 -10.5q14 -7 50 -13l40 18q24 -6 29 -6h6q1 6 11 10q7 3 14 5q24 13 50 47t37 64h7q10 0 41 -22q1 -18 -1 -37q31 -54 31 -68t-31 -26q-62 -23 -93 -39q-3 -2 -47 -10q-15 -2 -61 -13q-41 -10 -43 -10q-91 0 -205 43q-8 -6 -14.5 -11t-8.5 -20
q-15 16 -27 24q-81 49 -109 113q-17 37 -19 84q-26 -8 -38 -8q-34 5 -34 17q0 1 1 7v9q0 18 30 42h43q2 22 7 68q-19 0 -39 -10q4 3 -39 7q-20 5 -20 25q0 17 15 42l88 1v8q0 7 17.5 23.5t17.5 18.5q-1 1 -3 1l-14 -1h-26q35 23 102 69q7 12 24 31q99 66 163 80q14 2 47 2
q56 0 109 -7q13 -1 33 -10t21 -9q2 0 13.5 1t14.5 1q28 0 55 -14q33 -18 33 -47q0 -124 -36 -124q-23 0 -66 56q-49 63 -53.5 65.5t-21.5 7.5q-23 7 -37 7q-26 0 -73 -19q-56 -23 -56 -48q0 -10 -8 -35.5l-8 -25.5q0 -12 -8 -31z" />
    <glyph glyph-name="Omega" unicode="&#x2126;" horiz-adv-x="781" 
d="M485 434q30 1 30 -9q0 -3 -1.5 -10t-1.5 -11q0 -21 -31 -46q-69 0 -105 3.5t-30 3.5q-37 0 -47 -2q-3 -7 -3 -13q0 -27 1 -48q11 1 12 2q50 0 72 -3q15 -1 17 -4t4 -3q51 0 70 10q-5 -3 39 -8q20 -4 20 -25q0 -16 -15 -41l-212 -4q18 -123 76 -123q7 0 8.5 6.5t11.5 6.5
q11 0 12.5 -7.5t7.5 -10.5q14 -7 50 -13l40 18q24 -6 29 -6h6q1 6 11 10q7 3 14 5q24 13 50 47t37 64h7q10 0 41 -22q1 -18 -1 -37q31 -54 31 -68t-31 -26q-62 -23 -93 -39q-3 -2 -47 -10q-15 -2 -61 -13q-41 -10 -43 -10q-91 0 -205 43q-8 -6 -14.5 -11t-8.5 -20
q-15 16 -27 24q-81 49 -109 113q-17 37 -19 84q-26 -8 -38 -8q-34 5 -34 17q0 1 1 7v9q0 18 30 42h43q2 22 7 68q-19 0 -39 -10q4 3 -39 7q-20 5 -20 25q0 17 15 42l88 1v8q0 7 17.5 23.5t17.5 18.5q-1 1 -3 1l-14 -1h-26q35 23 102 69q7 12 24 31q99 66 163 80q14 2 47 2
q56 0 109 -7q13 -1 33 -10t21 -9q2 0 13.5 1t14.5 1q28 0 55 -14q33 -18 33 -47q0 -124 -36 -124q-23 0 -66 56q-49 63 -53.5 65.5t-21.5 7.5q-23 7 -37 7q-26 0 -73 -19q-56 -23 -56 -48q0 -10 -8 -35.5l-8 -25.5q0 -12 -8 -31z" />
    <glyph glyph-name="radical" unicode="&#x221a;" 
 />
    <glyph glyph-name="approxequal" unicode="&#x2248;" 
 />
    <glyph glyph-name="approxequal" unicode="&#x22f2;" 
 />
    <glyph glyph-name="Delta" unicode="&#x394;" 
 />
    <glyph glyph-name="Delta" unicode="&#x2206;" 
 />
    <glyph glyph-name="lozenge" unicode="&#x25ca;" horiz-adv-x="380" 
d="M131 177l-4 -8l-16 30l-27 20q-20 15 -21 23l-23 26l-2 -13l-17 34l-16 18q-7 8 -6 13q2 5 5 10v3l26 32l10 4l8 18l38 41l35 23l8 20l17 14q3 3 11 18q0 -1 1 -3q0 3 1 3q0 -5 10 -18l17 -14l8 -20l14 -5l15 -33q3 1 14 0q14 0 16 -4l14 -22l8 -18l10 -4l27 -32l-1 -3
l6 -10q1 -5 -7 -13l-16 -18l-17 -34l-2 13l-23 -26q-1 -8 -21 -23l-26 -20l-16 -30l-5 8l-26 -37z" />
    <glyph glyph-name="fraction" unicode="&#x2044;" 
 />
    <glyph glyph-name="fi" unicode="&#xf001;" 
 />
    <glyph glyph-name="fl" unicode="&#xf002;" 
 />
    <glyph glyph-name="apple" unicode="&#xf000;" 
 />
    </font>
</defs>
</svg>
