<?xml version="1.0" standalone="no"?>
<!DOCTYPE svg PUBLIC "-//W3C//DTD SVG 1.1//EN" "http://www.w3.org/Graphics/SVG/1.1/DTD/svg11.dtd" >
<svg>
<metadata>
Created by FontForge 20120731 at Wed Apr 17 21:02:51 2019
 By www-data
Digitized by Dan X. Solo. Software (c)2000 by Dover Publications, Inc., New York.
</metadata>
<defs>
<font id="CrazyDaisy" horiz-adv-x="20" >
  <font-face 
    font-family="Crazy Daisy"
    font-weight="400"
    font-stretch="normal"
    units-per-em="1000"
    panose-1="0 0 4 0 0 0 0 0 0 0"
    ascent="800"
    descent="-200"
    x-height="416"
    cap-height="664"
    bbox="-91.1636 -213 908 870.6"
    underline-thickness="20"
    underline-position="-123"
    unicode-range="U+0020-F002"
  />
<missing-glyph horiz-adv-x="500" 
d="M63 0v800h375v-800h-375zM125 63h250v675h-250v-675z" />
    <glyph glyph-name=".notdef" horiz-adv-x="500" 
d="M63 0v800h375v-800h-375zM125 63h250v675h-250v-675z" />
    <glyph glyph-name="glyph1" horiz-adv-x="0" 
 />
    <glyph glyph-name="glyph2" horiz-adv-x="228" 
 />
    <glyph glyph-name="space" unicode=" " horiz-adv-x="228" 
 />
    <glyph glyph-name="exclam" unicode="!" horiz-adv-x="195" 
d="M27 672l85 10q8 1 14 -5t6 -15q-16 -100 -25 -229t-5 -204q-1 -20 -20 -20h-15q-19 0 -20 20q-14 101 -28 201q-17 140 -12 222q-1 18 20 20zM125 93q0 -24 -19 -55q-22 -35 -46 -35q-18 0 -30 31q-10 25 -10 48q0 32 12 56q15 30 45 30q48 0 48 -75z" />
    <glyph glyph-name="quotedbl" unicode="&#x22;" horiz-adv-x="302" 
d="M164 667l71 6q5 0 8.5 -3.5t3.5 -8.5q-6 -43 -12 -139.5t-9 -122.5q-1 -12 -6 -12h-47q-6 0 -6.5 13.5t-9.5 119.5q-7 89 -5 135q0 11 12 12zM14 667l71 6q5 0 8.5 -3.5t3.5 -8.5q-6 -43 -12 -139.5t-9 -122.5q-1 -12 -6 -12h-47q-6 0 -6.5 13.5t-9.5 119.5q-7 89 -5 135
q0 11 12 12z" />
    <glyph glyph-name="numbersign" unicode="#" horiz-adv-x="478" 
d="M294 387l-96 1q-5 -42 -16 -124l96 -1zM453 450q18 0 15 -18l-5 -29q-3 -18 -21 -17h-70q-5 -31 -9 -55q-1 -15 -8 -69l65 -1q18 0 15 -18l-5 -29q-3 -18 -21 -17h-62q-15 -114 -31 -173q-4 -5 -10 -12q-26 -9 -53 -9q-4 0 -16 4q-2 3 -7 6q-4 16 0 25q21 43 39 160
l-96 1q-27 -178 -64 -195q-5 -2 -29 11q-6 4 -9 11q-2 12 23 173l-77 1q-18 0 -15 18l5 29q3 18 21 18l76 -1l6 32q2 20 10 92l-71 1q-18 0 -15 18l5 29q4 18 22 18l68 -1q14 97 28 150q3 5 10 11q26 10 53 10q4 0 15 -4q3 -3 8 -6q4 -16 -1 -26q-18 -39 -34 -135l96 -1
q25 154 60 170q5 3 28 -10q6 -4 10 -11q2 -11 -19 -150z" />
    <glyph glyph-name="dollar" unicode="$" horiz-adv-x="321" 
d="M164 170v-34q0 -21 -11 -20l-28 3q-16 2 -16 17v26q-24 1 -54 17q-38 20 -38 45q0 16 10.5 26.5t18.5 10.5q4 0 34 -17.5t34 -17.5q30 0 56 29q21 24 21 40q0 20 -46 52q-65 47 -84 67q-45 47 -44 103q2 72 92 88v1v49q0 22 16 22h31q8 0 8 -22v-46q48 -2 67 -6
q13 -3 12 -27q0 -5 -4 -26q-5 -24 -8 -28q-30 17 -81 17q-22 0 -34.5 -15.5t-12.5 -30.5q0 -25 43 -58q40 -29 81 -58q43 -37 43 -72q0 -47 -34 -86q-30 -34 -72 -49z" />
    <glyph glyph-name="percent" unicode="%" horiz-adv-x="905" 
d="M581 668h26q21 0 21 -16q0 -2 -1 -4l-360 -621q-11 -20 -20 -20h-26q-21 0 -21 16q0 2 1 4l360 621q11 20 20 20zM385 511q0 -76 -56 -165q-63 -99 -136 -99q-74 0 -139 90q-59 81 -59 148q0 86 48 137.5t137 51.5q61 0 127 -44q78 -51 78 -119zM289 488q0 32 -20 59
q-23 32 -59 32q-120 0 -120 -79q0 -17 26 -80q31 -75 58 -75q42 0 81 56q34 50 34 87zM455 170q0 75 56 164q62 100 135 100q74 0 139 -90q60 -81 60 -148q0 -86 -47 -136q-50 -53 -139 -53q-60 0 -127 44q-77 50 -77 119zM550 193q0 -32 20 -59q24 -32 60 -32q119 0 119 78
q0 18 -26 81q-31 75 -58 75q-42 0 -81 -56q-34 -50 -34 -87z" />
    <glyph glyph-name="ampersand" unicode="&#x26;" horiz-adv-x="530" 
d="M468 177q0 -37 -27 -83.5t-60 -62.5q1 -12 1 -23q0 -80 -59 -124q-54 -40 -141 -40q-29 0 -50.5 21t-21.5 49q0 18 13.5 33.5t30.5 15.5q24 0 40 -31t30 -28q97 15 92 104q-71 -20 -87 -17q-96 12 -160 66q-71 61 -71 150q0 85 53 154q47 49 94 99q-3 3 -9 10
q-101 126 -101 150q0 28 95 33q4 1 122 1q157 0 157 -45q0 -31 -111 -138q-39 -38 -38 -41l49 -97q9 4 20 4q62 0 102 -51q37 -46 37 -109zM285 571q0 19 -48 19q-6 0 -20 1h-21q-27 0 -27 -10q0 -16 17.5 -42t33.5 -26q9 0 37 24t28 34zM407 185q0 22 -16 47.5t-37 25.5
q-8 0 -13.5 -9t-5.5 -17q0 -6 13 -39q15 -38 16 -42v-21q1 -18 3 -18q13 0 27 31q13 27 13 42zM302 83q1 8 -1.5 21t-2.5 20q0 11 -22 63q-30 -6 -39 -3q-35 11 -35 54q0 33 21.5 53t21.5 22q0 14 -19 44.5t-31 30.5q-37 0 -77 -76q-37 -68 -37 -109q0 -62 50 -102
q47 -38 112 -38q40 0 59 20z" />
    <glyph glyph-name="quotesingle" unicode="'" horiz-adv-x="187" 
d="M34 667l71 6q5 0 8.5 -3.5t3.5 -8.5q-6 -43 -12 -139.5t-9 -122.5q-1 -12 -6 -12h-47q-6 0 -6.5 13.5t-9.5 119.5q-7 89 -5 135q0 11 12 12z" />
    <glyph glyph-name="parenleft" unicode="(" horiz-adv-x="325" 
d="M198 -97q-108 0 -161 170q-37 118 -37 252t37 252q53 170 161 170q24 0 37 -15t13 -35q0 -21 -13 -35.5t-37 -14.5q-47 0 -77 -146q-21 -106 -21 -176t21 -176q30 -146 77 -146q24 0 37 -15t13 -35t-13 -35t-37 -15z" />
    <glyph glyph-name="parenright" unicode=")" horiz-adv-x="325" 
d="M46 -97q108 0 162 170q37 118 37 252t-37 252q-54 170 -162 170q-23 0 -36.5 -15t-13.5 -35q0 -21 13.5 -35.5t36.5 -14.5q48 0 77 -146q22 -106 22 -176t-22 -176q-29 -146 -77 -146q-23 0 -36.5 -15t-13.5 -35t13.5 -35t36.5 -15z" />
    <glyph glyph-name="asterisk" unicode="*" horiz-adv-x="374" 
d="M194 356q0 -10 -13 -10q-15 -9 -37 -1q-4 2 -7 7q2 13 8 127q-60 -47 -103 -69q-8 -5 -15 6q-15 8 -19 32q-4 7 2.5 10t116.5 55q-72 29 -113 56q-9 4 -3 15q0 18 18 33q4 7 10 3q6 -5 106 -74q-11 77 -8 126q-1 11 12 11q15 9 37 0q4 -1 8 -7q-4 -47 -12 -132
q77 59 106 74q9 6 15 -5q15 -9 19 -33q4 -6 -3 -9t-117 -58q88 -36 114 -53q10 -5 3 -16q1 -17 -18 -33q-4 -6 -10 -2t-108 73q12 -94 11 -126z" />
    <glyph glyph-name="plus" unicode="+" horiz-adv-x="573" 
d="M245 578h40q20 0 20 -20v-201h201q20 0 20 -20v-40q0 -20 -20 -20h-201v-201q0 -20 -20 -20h-40q-20 0 -20 20v201h-201q-20 0 -20 20v40q0 20 20 20h201v201q0 20 20 20z" />
    <glyph glyph-name="comma" unicode="," horiz-adv-x="191" 
d="M116 84q0 -47 -25 -114q-28 -75 -58 -75q-29 0 -33 33q23 12 38 38t14 50q-25 19 -32 30q-13 20 -13 56q0 22 14 44t37 22q58 0 58 -84z" />
    <glyph glyph-name="hyphen" unicode="-" horiz-adv-x="241" 
d="M19 292h156q20 0 20 -20v-32q0 -20 -20 -20h-156q-20 0 -20 20v32q0 20 20 20z" />
    <glyph glyph-name="hyphen" unicode="&#x2010;" horiz-adv-x="241" 
d="M19 292h156q20 0 20 -20v-32q0 -20 -20 -20h-156q-20 0 -20 20v32q0 20 20 20z" />
    <glyph glyph-name="period" unicode="." horiz-adv-x="191" 
d="M125 93q0 -24 -19 -55q-22 -35 -46 -35q-18 0 -30 31q-10 25 -10 48q0 32 12 56q15 30 45 30q48 0 48 -75z" />
    <glyph glyph-name="slash" unicode="/" horiz-adv-x="1000" 
d="M449 678h26q21 0 21 -16q0 -2 -1 -4l-374 -643q-11 -20 -20 -20h-26q-21 0 -21 16q0 2 1 4l374 643q11 20 20 20z" />
    <glyph glyph-name="zero" unicode="0" horiz-adv-x="483" 
d="M431 340q0 -100 -41 -188q-62 -130 -188 -130q-98 0 -153 108q-42 84 -42 179q0 59 42 144q50 101 117 126q14 5 26 19q8 8 34 8q108 0 164 -105q41 -76 41 -161zM338 341q0 38 -20 92q-28 78 -78 78q-72 0 -109 -96q-27 -72 -24 -146q4 -96 58 -144q16 -11 38 -11
q23 0 46 11q53 52 66 79q23 45 23 137z" />
    <glyph glyph-name="one" unicode="1" horiz-adv-x="404" 
d="M234 486q0 -41 -10.5 -121.5t-10.5 -164.5q0 -71 6 -164q-22 -18 -33 -22q-3 -1 -20 -1q-32 0 -50 25q-13 19 -13 36l20 393q-3 22 -23 44q-3 -1 -16 -10q-9 -7 -17 -7q-30 0 -30 28q0 24 57 56q50 29 69 29q41 0 60 -55q11 -33 11 -66z" />
    <glyph glyph-name="two" unicode="2" horiz-adv-x="459" 
d="M325 108q-4 -31 -8 -63q-5 -35 -23 -52q-196 24 -208 24q-6 0 -15.5 -2t-15.5 -2q-73 0 -73 55q0 48 60 136l112 154q60 90 60 141q0 20 -8 37q-11 21 -29 21q-47 0 -83 -30q-23 -19 -46 -57q-18 -30 -23 -30q-43 0 -43 42q0 -2 5 36q4 33 2 50q39 30 97 55q62 26 101 26
q61 0 99 -38q34 -36 34 -85q0 -48 -56 -140l-104 -156q-57 -85 -57 -114q0 -13 11 -27q12 -17 32 -17q6 0 29.5 4t28.5 4q22 0 46 10l58 28q3 -2 9 -5t8 -5z" />
    <glyph glyph-name="three" unicode="3" horiz-adv-x="488" 
d="M394 214q0 -72 -52 -139q-64 -83 -168 -83h-35q-43 0 -96 24q-64 27 -64 64q0 18 17.5 36.5t30.5 18.5l45 -25.5t79 -25.5q116 0 116 155q0 39 -80 72q-43 14 -86 29q-7 22 54 86q91 95 97 104q-10 15 -60 15q-47 0 -101.5 -33.5t-63.5 -33.5q-12 0 -26 22q-11 19 -11 28
q0 5 11.5 42.5t14.5 53.5q27 0 57.5 -4t32.5 -4q6 0 84.5 4t84.5 4q34 0 66.5 -18.5t32.5 -44.5q0 -48 -137 -161q85 -54 118 -92q39 -43 39 -94z" />
    <glyph glyph-name="four" unicode="4" horiz-adv-x="468" 
d="M390 164q0 4 -16 -50q-48 0 -72 4q-10 -10 -10 -31q0 -6 1 -18.5t1 -18.5q0 -45 -58 -45q-52 0 -52 43q0 5 1 16t1 16q0 34 -36 34q-6 0 -24 -2t-24 -2q-34 0 -79 12q-58 15 -58 36q0 7 20.5 48.5t37.5 69.5q56 93 81 161q14 35 26 88q10 42 24 69q55 22 77 22
q11 0 19 -9t8 -16q0 -47 -45 -136q-19 -37 -86 -149q-45 -77 -45 -94q0 -23 22 -23h23q98 0 98 71q0 13 -3 29.5t-3 18.5q0 4 1.5 4t8.5 14t12 13h47q21 -31 21 -79q0 -23 -5 -43q3 -3 51 -14q35 -8 35 -39z" />
    <glyph glyph-name="five" unicode="5" horiz-adv-x="376" 
d="M348 570q0 -26 -22 -80q-21 6 -71 24q-40 14 -46 14q-56 0 -67 -11q-5 -7 -32 -82q22 1 40 1q157 0 157 -92q0 -57 -38 -149q-42 -102 -102 -169q-72 -80 -148 -80q-45 0 -45 69q0 -2 61 48q71 58 115 111q61 74 61 132q0 38 -24 47q-8 3 -52 3q-6 0 -51.5 -4t-51.5 -4
q-10 0 -33 10q27 77 72 232q18 8 113 22q89 12 116 12q22 0 35 -16t13 -38z" />
    <glyph glyph-name="six" unicode="6" horiz-adv-x="476" 
d="M190 -5q-68 0 -131 86q-55 75 -55 130q0 139 30 224q46 125 164 170q22 10 43 19q33 14 40 14q8 0 27 -16.5t19 -24.5v-27q-84 -7 -157 -109q-68 -95 -68 -178q0 -66 25 -110q32 -55 95 -55q36 0 61 23.5t25 55.5q0 18 -21.5 48t-35.5 30q-6 0 -18.5 -7t-17.5 -7
q-6 0 -16 4.5t-14 4.5q-5 11 -5 32q0 71 84 71q60 0 104 -62q38 -55 38 -109q0 -84 -73 -148q-68 -59 -143 -59z" />
    <glyph glyph-name="seven" unicode="7" horiz-adv-x="476" 
d="M321 344q-55 -119 -142 -309q-7 -15 -100 -15q-37 0 -37 32q0 18 37 81q11 18 85 133q125 196 125 260q0 34 -28 34q-68 0 -108 -16q-30 -13 -88 -56q-15 -11 -27 -11q-26 0 -26 26q0 7 14 56l20 74q17 0 53 -2.5t53 -2.5q9 0 75 10t73 10q38 0 74 -17q42 -19 42 -49
q0 -28 -95 -238z" />
    <glyph glyph-name="eight" unicode="8" horiz-adv-x="475" 
d="M119 -29q-63 0 -104 31t-41 79q0 89 73 187q15 20 15 22q0 5 -12 19q-59 67 -59 91q0 70 76 156.5t143 86.5q54 0 54 -36q0 -24 -45 -61l-64 -52q-38 -36 -38 -64q0 -19 25 -37q19 2 95 74q72 68 97 68q27 0 30 -63q0 -20 -39 -48l-56 -40q-34 -29 -34 -52q0 -6 33 -36
q21 -18 42 -35q72 -69 72 -133q0 -73 -112 -120q-86 -37 -151 -37zM152 256q-28 -27 -46.5 -66t-18.5 -67q0 -27 11 -46q14 -23 38 -23q27 0 83 25q67 30 67 64q0 11 -55.5 59t-78.5 54z" />
    <glyph glyph-name="nine" unicode="9" horiz-adv-x="483" 
d="M417 388q0 -28 -16 -73q-23 -62 -27 -77q-21 -89 -109 -182q-9 -8 -87 -58q-83 -52 -94 -52q-9 0 -54 31q-3 61 85 88q82 26 143 151q51 107 51 185q0 44 -27 79.5t-66 35.5q-36 0 -55 -53q-14 -37 -14 -67q0 -34 26 -40q23 -2 47 -4q26 -8 26 -47q0 -3 -16 -44
q-2 0 -7 2.5t-12 2.5q-6 0 -19.5 -7.5t-19.5 -7.5q-49 0 -98 43t-49 92q0 93 60 163q63 75 158 75q69 0 126 -96q48 -81 48 -140z" />
    <glyph glyph-name="colon" unicode=":" horiz-adv-x="191" 
d="M125 333q0 -24 -19 -55q-22 -35 -46 -35q-18 0 -30 31q-10 25 -10 48q0 32 12 56q15 30 45 30q48 0 48 -75zM125 93q0 -24 -19 -55q-22 -35 -46 -35q-18 0 -30 31q-10 25 -10 48q0 32 12 56q15 30 45 30q48 0 48 -75z" />
    <glyph glyph-name="semicolon" unicode=";" horiz-adv-x="175" 
d="M116 84q0 -47 -25 -114q-28 -75 -58 -75q-29 0 -33 33q23 12 38 38t14 50q-25 19 -32 30q-13 20 -13 56q0 22 14 44t37 22q58 0 58 -84zM125 343q0 -24 -19 -55q-22 -35 -46 -35q-18 0 -30 31q-10 25 -10 48q0 32 12 56q15 30 45 30q48 0 48 -75z" />
    <glyph glyph-name="less" unicode="&#x3c;" horiz-adv-x="439" 
d="M364 556l-261 -215l258 -214q11 -10 11 -22q0 -5 -3 -9l-23 -22q-13 -13 -28 0l-302 252q-5 4 -6 13q-1 11 6 17l302 251q15 13 28 0l23 -22q13 -14 -5 -29z" />
    <glyph glyph-name="equal" unicode="=" horiz-adv-x="440" 
d="M19 392h356q20 0 20 -20v-32q0 -20 -20 -20h-356q-20 0 -20 20v32q0 20 20 20zM19 252h356q20 0 20 -20v-32q0 -20 -20 -20h-356q-20 0 -20 20v32q0 20 20 20z" />
    <glyph glyph-name="greater" unicode="&#x3e;" horiz-adv-x="439" 
d="M15 125l261 216l-258 214q-11 9 -11 21q0 5 3 9l23 22q13 13 28 0l302 -251q6 -5 6 -14q1 -11 -6 -16l-302 -252q-15 -13 -28 0l-22 22q-14 14 4 29z" />
    <glyph glyph-name="question" unicode="?" horiz-adv-x="393" 
d="M253 535q0 45 -38 45q-46 0 -84 -29q-24 -19 -49 -54q-21 -29 -25 -29q-26 0 -40 25q-11 21 -11 50q0 40 86 80q77 36 125 36q55 0 94 -34.5t39 -88.5q0 -51 -47 -110q-45 -50 -89 -100q-48 -59 -48 -108q0 -15 -32 -15q-38 0 -38 59q0 49 41 97q38 39 75 79q41 48 41 97
zM185 93q0 -25 -20 -56q-22 -34 -45 -34q-18 0 -30 32q-10 25 -10 47q0 32 12 56q15 30 45 30q48 0 48 -75z" />
    <glyph glyph-name="at" unicode="@" horiz-adv-x="743" 
d="M597 168h61q-39 -90 -124 -146t-183 -56q-152 0 -251 110q-97 106 -97 259q0 156 94 266q98 115 252 115q129 0 222.5 -86.5t93.5 -214.5q0 -99 -63 -189q-70 -99 -165 -99q-76 0 -68 85q-54 -79 -108 -79q-58 0 -93 47q-32 42 -32 102q0 85 57 160q62 81 144 81
q60 0 78 -65l16 56h88l-44 -164q-34 -127 -34 -155q0 -24 27 -24q58 0 105 92q40 80 40 145q0 107 -76 182.5t-182 75.5q-134 0 -217 -97q-79 -92 -79 -228q0 -137 81 -228q84 -96 219 -96q152 0 238 151zM350 482q-51 0 -90 -93q-34 -78 -34 -138q0 -78 48 -78q51 0 90 97
q32 80 32 141q0 71 -46 71z" />
    <glyph glyph-name="A" unicode="A" horiz-adv-x="636" 
d="M628 58q0 -24 -18.5 -38.5t-39.5 -14.5q-4 0 -49.5 8t-49.5 8t-63.5 -13t-63.5 -13q-21 0 -34 16.5t-13 35.5q0 36 39 47q48 12 60 32q17 28 17 127q0 35 -2 41q-5 23 -29 23q-139 0 -163 -7q-7 -39 -20 -185q-8 -78 -32 -104q-30 -33 -117 -33q-31 0 -44 8
q-17 11 -17 40q0 33 10.5 47t40.5 14q3 0 11.5 -3.5t13.5 -3.5q37 0 49 34q8 24 8 85v29q0 101 22 152q58 138 98 178q-9 5 -73 22q-36 9 -36 42q0 32 42 32q3 0 53 -10q55 -12 80 -16l220 45q3 1 6 1q11 0 20.5 -14t9.5 -24t-14 -29q-19 -26 -21 -29q-18 -35 -26 -84
q-5 -40 -10 -79l-3 -222q0 -73 36 -93q7 -4 66 -11q36 -5 36 -41zM432 553q0 5 -7.5 10t-14.5 5q-60 0 -112 -54.5t-52 -111.5v-20q-13 -1 146 -1q21 0 32 74q8 52 8 98z" />
    <glyph glyph-name="B" unicode="B" horiz-adv-x="470" 
d="M419 233q0 -42 -39 -123q-35 -71 -48.5 -81.5t-60.5 -10.5q-4 0 -50.5 3t-50.5 3q-33 0 -83 -17.5t-73 -17.5q-39 0 -39 35q0 37 31 57q38 24 46 42q12 31 30.5 163.5t18.5 194.5q0 41 -34 80.5t-34 41.5q0 11 11.5 28t20.5 17q5 0 29 -6.5t28 -6.5q14 0 74 22.5t91 22.5
q66 0 102 -48q30 -40 30 -95q0 -39 -20 -74q-12 -21 -37 -46q-20 -20 -20 -25q0 2 38.5 -66t38.5 -93zM323 545q0 52 -41 52q-34 0 -84 -20q1 -18 -8 -72q-9 -57 -9 -58q0 -3 8 -11q134 27 134 109zM319 245q0 16 -28 60q-25 39 -37 50q-13 -1 -41 -6t-41 -7l-26 -181v-33
q38 -10 77 -10t69 42q27 40 27 85z" />
    <glyph glyph-name="C" unicode="C" horiz-adv-x="458" 
d="M417 545q0 -98 -16 -140q-33 -88 -138 -88q-42 0 -76 49q-30 43 -30 78q0 85 98 85q46 0 46 -30q0 -50 -30 -50q-3 0 -7.5 1.5t-8.5 1.5q-18 0 -18 -16q0 -14 15 -23q11 -6 19 -6q30 0 54.5 32t24.5 60q0 47 -40 72q-31 19 -70 19q-128 0 -128 -243q0 -19 80.5 -168.5
t74.5 -191.5q6 -12 12 -33q-10 -7 -32 -7q-41 0 -45 11l-8 38q-19 45 -75 127q-63 91 -84 131q-39 77 -39 140q0 17 56 136.5t73 129.5q40 20 107 20q47 0 109 -34q76 -42 76 -101z" />
    <glyph glyph-name="D" unicode="D" horiz-adv-x="542" 
d="M43 739q44 -33 107 -61q57 -24 115 -48q31 -10 62 -21q37 -14 64 -37q14 -13 54.5 -83t40.5 -88q0 -130 -17 -193q-14 -48 -48 -84q-66 -68 -71 -74q-11 -14 -120 -33q-99 -17 -135 -17q-105 0 -105 55q0 7 43.5 101.5t43.5 134.5q0 13 -6.5 40t-6.5 41q0 27 116 52
l12 -12l-74 -301q2 -20 20 -27q124 2 188 84q60 76 60 207q0 80 -107 149q-96 62 -181 62q-8 0 -23.5 -5t-23.5 -5q-45 0 -45 80q0 25 8 49q10 33 29 34z" />
    <glyph glyph-name="E" unicode="E" horiz-adv-x="554" 
d="M518 81q0 -42 -70 -74q-58 -27 -97 -27q-9 0 -9 3l-295 -4q-13 0 -26.5 10t-13.5 24q0 4 18 39q22 43 27 56l-19 127q3 27 27 120q21 85 21 118q0 51 -21 82q-11 17 -38 37q-21 15 -21 27q0 23 15.5 37.5t38.5 14.5q4 0 79 -16.5t79 -16.5q25 0 72 18t77 18q40 0 85 -30
q52 -35 52 -81q0 -15 -8 -29q-11 -18 -26 -18q-4 0 -55.5 27.5t-90.5 27.5q-44 0 -83 -7q-76 -14 -78 -49q3 -3 0 -138q23 -12 40 -12q4 0 57.5 8t57.5 8q45 0 45 -24q0 -12 -20 -42q-21 -33 -37 -33q-3 0 -23.5 4.5t-24.5 4.5q-56 0 -130 -18q6 -45 6 -96v-18.5v-16.5
q0 -45 17.5 -59t88.5 -14q70 0 123 15q34 8 68 26q28 14 36 14q12 0 34 -16t22 -27z" />
    <glyph glyph-name="F" unicode="F" horiz-adv-x="576" 
d="M550 576q0 -25 -45 -50l-100 48q-93 -16 -111 -16q-3 0 -39 3.5t-41 3.5q-9 0 -19 -1q-2 -1 -8 -7q6 -84 7 -148q5 -8 20 -11q38 -7 84 -7q4 0 49.5 10t49.5 10q31 0 31 -29q0 -27 -24 -52.5t-47 -25.5q-4 0 -27 5t-26 5q-42 0 -76 -17q-7 -2 -15 -11q-5 -14 -5 -65
q-6 6 -12 1q0 -3 6.5 -9t6.5 -10t-14.5 -54.5t-14.5 -54.5q0 -3 10 -33.5t10 -38.5q0 -39 -42 -39q-48 0 -64 52q-7 25 -7 77q0 17 9.5 54.5t9.5 92.5l-3 243q-3 27 -54.5 66.5t-51.5 42.5q0 21 20 37q18 13 36 13q8 0 188 -19l164 29q145 -30 145 -95z" />
    <glyph glyph-name="G" unicode="G" horiz-adv-x="563" 
d="M512 258q0 -90 -75 -184q-80 -101 -172 -101q-98 0 -180 61q-90 68 -90 166v163q0 22 19 68q17 41 27 53q43 52 99 95q8 7 125 110q13 11 33 11q19 0 57 -29t38 -52q0 -10 -77 -52q-95 -53 -144 -110q-78 -89 -78 -212q0 -68 44.5 -112t111.5 -44q5 0 35.5 4t77.5 50
q34 33 30 76q-2 2 -89 46q-72 37 -72 47q0 15 17.5 44t24.5 29q10 0 89 -43q51 -28 83 -38q24 -7 49 -14q17 -6 17 -32z" />
    <glyph glyph-name="H" unicode="H" horiz-adv-x="575" 
d="M518 433l-32 -198l29 -207q-2 -10 -8 -25q-10 -13 -22 -16q-20 -4 -25 -4h-14q-32 0 -46 101q-7 53 -7 108q0 83 11 144.5t11 54.5q0 16 -16 16q-4 0 -101 -25l-44 -6q-29 -4 -42 -18q-38 -40 -67 -144q-21 -81 -43 -162q-17 -51 -31 -74q-25 -8 -48 -8q-15 0 -28 10
q0 2 -4 8q9 12 17 85q8 84 16 111q24 53 47 106q43 100 47 142q3 25 9 70q9 55 42 77q6 5 15 5q15 0 30 -16t15 -26q0 -4 -13 -47t-13 -48q0 -9 8.5 -16.5t15.5 -7.5q18 0 58 14q29 8 57 15q37 10 57 25q-11 36 -22 73q-13 48 -13 79q0 38 7 70q13 56 43 56q23 0 40.5 -9
t14.5 -26q-3 -14 -3 -31q0 -44 21 -127q27 -106 31 -129z" />
    <glyph glyph-name="I" unicode="I" horiz-adv-x="252" 
d="M182 341q0 6 -34 -341q-3 -5 -9 -13q-27 -10 -57 -10q-24 0 -37 4q-4 3 -10 6q-4 11 -4 28l48 310q-24 107 -52 192q-16 49 -16 85q0 31 7 44q9 18 38 18q31 0 54 -11q8 -4 13 -12q9 -24 31 -121q28 -121 28 -179z" />
    <glyph glyph-name="J" unicode="J" horiz-adv-x="344" 
d="M275 204q-4 -112 -60.5 -174t-148.5 -62q-31 0 -52 33q-16 28 -16 57q0 21 21 21q4 0 41 -15t41 -15q58 0 74 98q6 33 6 115l-17 216l-3 146q0 37 10.5 49.5t49.5 12.5q52 0 52 -27q0 -4 -1 -8z" />
    <glyph glyph-name="K" unicode="K" horiz-adv-x="497" 
d="M144 116q0 1 1 1l-1 -3q-11 -102 -50 -102q-42 0 -67 23l18 182q2 22 2 105v91l10 143q2 31 -38.5 45.5t-40.5 38.5q0 30 65 38q21 3 68 3q44 0 48 -1q38 -6 38 -38q0 -24 -29.5 -43.5t-29.5 -47.5v-83l5 -4q3 2 79 59q48 36 83 51q12 4 23 69q7 37 38 56q25 15 55 15
q16 0 26 -19q8 -15 8 -34q0 -33 -36 -77q-14 -16 -68 -68q-36 -36 -36 -49q0 -89 41 -197q41 -93 82 -185q23 -53 23 -78q0 -22 -26 -36q-20 -11 -34 -11q-16 0 -35 8t-21 16q-3 14 -1 36q2 31 2 36q0 33 -33 89q-26 43 -53 86q-24 48 -26 116q1 29 -3 79h-7q-5 0 -32 -20
q-29 -23 -41 -39q-1 -2 -9 -52z" />
    <glyph glyph-name="L" unicode="L" horiz-adv-x="649" 
d="M609 89q0 -3 -12.5 -42t-15.5 -55q-15 -14 -32 -14q-48 0 -157.5 34t-156.5 34q-33 0 -69 -16t-42 -16q-18 0 -18 35l17 164q0 4 -8.5 44t-8.5 44l23 191q0 56 -31 92q-15 17 -58 44q-31 19 -31 35q0 23 17 23q140 -30 155 -30q28 0 51.5 13t30.5 13q11 0 25 -13t14 -24
q0 -19 -29.5 -48t-31.5 -50q-24 -210 -24 -256q0 -117 14 -155q2 -5 116.5 -29.5t139.5 -24.5q20 0 55.5 14.5t41.5 14.5q25 0 25 -22z" />
    <glyph glyph-name="M" unicode="M" horiz-adv-x="626" 
d="M591 20q-35 -16 -45 -16q-64 0 -85 14v489q0 16 -6 44.5t-12 33.5q-6 -4 -76 -78q-62 -66 -74 -66t-56 52q-22 28 -45 56q-15 -25 -22 -99q-10 -98 -15 -122q-7 -31 -11 -139q-4 -97 -19 -139q-22 -63 -80 -63q-35 0 -47 18q42 244 121 666q37 11 56 11q23 0 62.5 -53.5
t53.5 -53.5l89.5 60t125.5 60q42 0 42 -73q0 -13 -1 -29l-1 -16v-95l26 -229v-140q0 -3 9.5 -43t9.5 -50z" />
    <glyph glyph-name="N" unicode="N" horiz-adv-x="719" 
d="M666 609q0 -11 -33 -174t-33 -245q0 -2 6 -74q6 -79 7 -112q-14 -13 -27 -13q-86 0 -89 109q-1 16 4 53.5t5 54.5q0 26 -8 41q-22 46 -86 131q-70 92 -133 152q-16 -32 -17 -88q-2 -92 -4 -109q3 -92 0 -95q16 -104 16 -150q0 -56 -68 -85q-49 -21 -100 -21q-4 0 -10 5
t-8 6q4 16 41 61q35 41 34 67v121l20 267q0 24 -12.5 42t-36.5 18q-4 0 -18 -1.5t-18 -1.5q-33 0 -70 18q-48 24 -48 62q0 12 11.5 26.5t24.5 14.5q-2 0 41 -14.5t80 -14.5q4 0 30 1.5t30 1.5q72 0 144 -72q38 -38 104 -134q50 -71 67 -71q21 0 44 115q18 93 18 116
q0 45 -34 97.5t-34 51.5q0 5 17 21t22 16q43 0 85 -91q36 -75 36 -103z" />
    <glyph glyph-name="O" unicode="O" horiz-adv-x="593" 
d="M536 281q0 -119 -92 -205q-88 -82 -200 -82h-19q-102 0 -171 112q-56 91 -56 173q0 108 40 181q21 38 103 131.5t135 185.5q15 -5 24 -34q8 -23 8 -41q0 -34 -17 -54q-44 -52 -65 -85q20 10 63 27q5 1 29 1q120 0 177 -115q41 -83 41 -195zM438 307q0 75 -19 130
q-33 92 -111 92q-8 0 -22 -6q-17 -7 -17 -16v-13q10 1 19 1q69 0 69 -77q0 -62 -61 -62q-4 0 -15 2t-14 2q-18 2 -46.5 27t-32.5 37q-3 8 -3 18q0 9 3.5 30t2.5 31q-19 -10 -45.5 -74.5t-26.5 -101.5q0 -80 27 -140q41 -85 128 -85h13q73 0 117 79q34 62 34 126z" />
    <glyph glyph-name="P" unicode="P" horiz-adv-x="464" 
d="M409 534q0 -90 -54 -137q-45 -40 -172 -81q-5 -2 -23 -70q-37 -134 -59 -297q-3 -5 -9 -13q-2 0 -10 -6q-17 -8 -42 -8q-28 0 -37 16q-5 8 -5 30q0 72 47.5 245.5t47.5 269.5q0 47 -17 64q-16 8 -32.5 16.5t-16.5 37.5q0 46 31 46q4 0 26 -5t27 -5q4 0 97.5 22.5
t97.5 22.5q50 0 80 -58q23 -45 23 -90zM318 541q0 21 -10 37q-11 20 -31 20q-36 0 -68 -25q-35 -26 -35 -62v-96q2 0 4.5 -1.5t7.5 -1.5q132 0 132 129z" />
    <glyph glyph-name="Q" unicode="Q" horiz-adv-x="612" 
d="M621 -84q0 -47 -88 -72q-65 3 -109 67q-13 19 -46 93l-124 -30q-114 0 -190 93q-69 84 -69 190q0 94 43 172q24 43 109 148q89 109 142 200q29 -8 29 -52q0 -55 -62 -168q3 -8 13 -8q4 0 36.5 8t36.5 8q104 0 159 -115q39 -83 39 -175q0 -57 -20 -110q-11 -32 -36 -76
q-19 -35 -19 -44q0 -18 32 -51t51 -33q3 0 19.5 10t21.5 10q11 0 23 -30q9 -25 9 -35zM438 307q0 65 -17 110q-27 73 -92 73q-7 0 -17 -5q-14 -6 -14 -15q0 -8 18 -14q25 -9 33 -15q18 -13 18 -38q0 -28 -27 -50.5t-55 -22.5q-38 0 -63 25.5t-25 67.5q0 21 10 42q8 17 16 33
q-4 5 -12 5q-96 -114 -96 -238q0 -68 41 -123q47 -66 126 -66q14 0 34.5 8t20.5 21q0 12 -31 28.5t-31 31.5q0 11 12 19.5t23 8.5q5 0 42.5 -26t40.5 -26q26 0 38 80q7 47 7 86z" />
    <glyph glyph-name="R" unicode="R" horiz-adv-x="511" 
d="M533 -133q-20 -13 -32 -13q-5 0 -31 4q-22 3 -37 20q-27 30 -43 100q-16 64 -31 128q-3 9 -35 78l-82 170q-1 1 -5.5 5t-26.5 7q-6 2 -12 2q-56 0 -91 -160q-22 -119 -45 -238q-67 71 -67 99q0 5 44 170.5t44 252.5q0 45 -18 72q-11 14 -35 30q-19 12 -19 22q0 34 30 34
q4 0 40 -6.5t40 -6.5t75.5 18t75.5 18q63 0 98 -44q30 -37 30 -90q0 -49 -19 -88q-13 -28 -35 -48q-18 -18 -18 -16q0 -10 63 -134t63 -137q0 -62 30 -134q49 -114 49 -115zM305 532q0 25 -13 43.5t-38 18.5q-59 0 -78 -37q-15 -28 -15 -109q0 -5 2 -8.5t2.5 -4t5 -2.5
t8.5 -2q44 0 81 24q45 29 45 77z" />
    <glyph glyph-name="S" unicode="S" horiz-adv-x="507" 
d="M187 -38q-78 0 -132.5 59.5t-54.5 136.5q0 72 60.5 126.5t132.5 54.5q49 0 106 -43q60 -46 60 -93q0 -55 -52.5 -105.5t-108.5 -50.5q-32 0 -67 26q-38 28 -38 60q0 49 30.5 78.5t79.5 29.5q20 0 38 -20t18 -40q0 -64 -61 -60q-8 1 -21 3q-2 1 -12 14q-1 33 50 39
q-1 10 -8 20h-5.5h-8.5q-21 0 -39.5 -15.5t-18.5 -37.5q0 -17 20 -31.5t38 -14.5q34 0 65 24t31 56q0 39 -31 65.5t-71 26.5q-49 0 -87.5 -37t-38.5 -86q0 -47 42.5 -85t89.5 -38q85 0 143.5 54t58.5 137q0 53 -43 103q-6 6 -84 78q-60 55 -60 101q0 66 54 107q30 22 111 53
q6 2 12 9l3 4q10 10 17 10q12 0 29 -43l20 -56q-33 -1 -98 -11q-55 -14 -55 -59q0 -25 32 -56q26 -22 52 -45q86 -81 86 -214q0 -103 -92 -171q-85 -63 -192 -63z" />
    <glyph glyph-name="T" unicode="T" horiz-adv-x="596" 
d="M551 652q-11 10 -17 10q-5 0 -48.5 -30t-81.5 -30q-33 0 -109.5 31.5t-98.5 31.5q-41 0 -116 -57q-80 -61 -80 -108q0 -11 14.5 -29t32.5 -18q15 0 38 31q37 47 47 57q32 30 67 30q34 0 105.5 -23t112.5 -23q42 0 87 34q52 40 47 93zM541 257q0 56 -35 56q-32 0 -60 -61
q-44 -102 -52 -114q-41 -62 -105 -62q-66 0 -101 81q-26 59 -26 123q0 53 21 105q13 35 39 74q21 32 21 34q0 22 -27 22q-74 0 -117 -122q-31 -86 -31 -150q0 -101 57 -175q65 -85 172 -85q101 0 175 91q69 85 69 183z" />
    <glyph glyph-name="U" unicode="U" horiz-adv-x="547" 
d="M391 643q-11 16 -10 47.5t-2 38.5q-12 29 -48 29q-56 0 -56 -70q0 -30 33 -96q50 -99 62 -128q34 -84 34 -157q0 -226 -141 -232q-80 -4 -118 104q-26 72 -26 162q0 56 17 114q12 40 32 81l17 35q0 28 -33 28q-37 0 -94 -44.5t-60 -81.5l33 -47q-1 -6 8 -81
q10 -81 10 -137q0 -32 -3 -60q0 -3 -14.5 -26.5t-14.5 -31.5q0 -2 1 -3q50 -10 132 -60q70 -44 119 -44q122 0 181 82q50 71 50 193q0 104 -35 220q-32 106 -74 165z" />
    <glyph glyph-name="V" unicode="V" horiz-adv-x="645" 
d="M624 686q-12 -77 -41 -151q-38 -90 -76 -179q-24 -58 -49 -115q-33 -81 -40 -114q-31 -138 -92 -138q-39 0 -64 63q-17 46 -27 122q-3 41 -7 81q-9 82 -88 162.5t-156 75.5q-1 18 16 50q19 38 43 39q76 4 156 -91q53 -62 79 -123q18 -40 33 -136q13 -87 25 -102
q58 100 114 284q48 155 76 303q30 8 49 8q38 0 49 -39z" />
    <glyph glyph-name="W" unicode="W" horiz-adv-x="910" 
d="M559 -5q-27 4 -69 129q-53 158 -62 174q-81 -126 -129 -288l-24 -16q-18 2 -74 125q-54 117 -57 148q-10 89 -40 153q-18 38 -50.5 79t-41.5 59q-4 4 -4 11q0 13 17.5 24t46.5 11q15 0 32 -4q29 -6 58 -95q25 -89 51 -179q32 -107 65 -142q20 22 63 110t43 112
q0 25 -63.5 125.5t-63.5 97.5q0 48 79 51q30 -35 53 -91q19 -50 37 -99q14 16 52 138q33 103 66 103q15 0 33 -9t18 -23q0 -40 -47 -144q-66 -143 -68 -147q27 -87 85 -241q25 18 113 214q84 188 101 253q14 20 41 20q22 0 38.5 -13t13.5 -32q-32 -89 -67 -168
q-82 -189 -161 -296q0 -1 -35 -86q-26 -67 -50 -64z" />
    <glyph glyph-name="X" unicode="X" horiz-adv-x="598" 
d="M566 54q0 -21 -25 -40q-21 -17 -31 -17q-56 0 -133 123q-4 7 -39 75q-29 57 -52 86q-21 3 -50 -37q-3 -4 -40 -65q-8 -13 -58 -120q-29 -61 -55 -61q-19 0 -46 10q-35 12 -35 30q0 22 109 167t109 148q0 35 -65 134q-63 96 -116 144q-3 2 -3 5q0 12 40 30q35 15 45 15
q26 0 90 -111q37 -67 75 -135q25 29 64 86q20 52 40 105q39 95 58 95q21 0 47 -12q31 -15 31 -33q0 -23 -87.5 -166t-87.5 -148q0 -8 41 -81q36 -65 62 -106q19 -30 69 -75q43 -38 43 -46z" />
    <glyph glyph-name="Y" unicode="Y" horiz-adv-x="510" 
d="M514 698q0 -17 -56 -107q-77 -124 -103 -175q-56 -107 -56 -165v-88q0 -3 3 -44t3 -45q0 -47 -12 -62q-15 -17 -65 -17q-3 0 -20 -3.5t-27 -3.5q-25 0 -25 20q0 -3 16 39q19 48 30 97q16 69 16 133q0 65 -45 171q-41 98 -58 103l-60 15q-52 19 -52 40q0 22 56 43
q47 18 64 18q38 0 84 -102q25 -62 51 -123q27 2 72 86q48 90 48 157q0 17 -3 30q-5 17 77 17q21 0 39 -7q23 -9 23 -27z" />
    <glyph glyph-name="Z" unicode="Z" horiz-adv-x="545" 
d="M503 92q0 -23 -55 -59q-50 -33 -65 -33q-262 8 -321 -2q-58 0 -58 33q0 14 172.5 247.5t172.5 272.5q0 18 -25 15q-23 3 -74 15q-47 12 -50 12q-28 0 -82.5 -26.5l-54.5 -26.5q-13 0 -22 22q-7 17 -7 26q0 86 156 86q68 0 107 -12.5t61 -12.5q3 0 42 11t42 11
q14 0 22.5 -14.5t8.5 -29.5q0 -48 -82 -182q-51 -82 -154 -227q-83 -117 -83 -123q0 -15 37 -17q-32 1 39.5 1t127.5 18q36 12 69 33q28 18 33 18q21 0 34 -26q9 -18 9 -30z" />
    <glyph glyph-name="bracketleft" unicode="[" horiz-adv-x="239" 
d="M82 -52h73q20 0 20 -20v-32q0 -19 -20 -19q-22 0 -64 1h-64q-20 0 -20 20v854q0 20 20 20q22 0 64 -1h64q20 0 20 -19v-32q0 -20 -20 -20h-73v-752z" />
    <glyph glyph-name="backslash" unicode="\" horiz-adv-x="446" 
d="M49 678h-26q-21 0 -21 -16q0 -2 1 -4l374 -643q11 -20 20 -20h26q21 0 21 16q0 2 -1 4l-374 643q-11 20 -20 20z" />
    <glyph glyph-name="bracketright" unicode="]" horiz-adv-x="228" 
d="M89 -52h-72q-20 0 -20 -20v-32q0 -19 20 -19q22 0 64 1h63q20 0 20 20v854q0 20 -20 20q-21 0 -63 -1h-64q-20 0 -20 -19v-32q0 -20 20 -20h72v-752z" />
    <glyph glyph-name="asciicircum" unicode="^" horiz-adv-x="413" 
d="M339 736q3 -3 3 -8q0 -9 -8 -17t-18 -7l-142 60l-141 -60q-10 -1 -18 7t-8 17q0 5 3 8q-1 1 68 40.5t69 40.5q23 11 28 9q3 1 29 -12q0 -1 68 -39t67 -39z" />
    <glyph glyph-name="underscore" unicode="_" horiz-adv-x="449" 
d="M-1 -89l453 -1v-54q0 -2 -228 -2q-227 0 -225 3q3 2 0 54z" />
    <glyph glyph-name="grave" unicode="`" horiz-adv-x="374" 
d="M159 819q0 -1 72.5 -51.5t71.5 -51.5q3 -3 3 -8q0 -9 -8 -17t-18 -7l-167 71q-18 4 -16 19q3 24 22 36.5t25 12.5q7 0 15 -4z" />
    <glyph glyph-name="a" unicode="a" horiz-adv-x="392" 
d="M358 -1q0 -21 -24 -21q-21 0 -42 35.5t-32 35.5q1 0 -39.5 -21.5t-73.5 -21.5q-139 0 -139 147q0 52 21 90q27 47 78 47q3 0 49 -7.5t50 -7.5q28 0 28 26q0 35 -52 47q-49 7 -97 14q-53 10 -53 41q0 48 48 48q42 0 112 -27q76 -30 93 -60q22 -39 25 -109q6 -119 8 -133
q3 -24 21.5 -72.5t18.5 -50.5zM246 167q0 22 -29 38q-25 14 -48 14q-26 0 -55 -14q-38 -18 -38 -46q0 -20 20.5 -40.5t41.5 -20.5q18 0 57 18q51 22 51 51z" />
    <glyph glyph-name="b" unicode="b" horiz-adv-x="357" 
d="M309 133q0 -56 -64 -94q-53 -30 -102 -30q-61 0 -96 37.5t-35 99.5q0 45 40 143t40 164q0 80 -21 102q-2 3 -38 16q-21 7 -21 49q0 57 38 57q66 0 110 -78q34 -62 34 -117q0 -28 -22.5 -104.5t-20.5 -94.5l86 -40q38 -19 53 -41q19 -25 19 -69zM216 140q0 45 -63 45
q-24 0 -31 -11q-5 -7 -5 -31q0 -51 31 -51q10 0 37 15q31 18 31 33z" />
    <glyph glyph-name="c" unicode="c" horiz-adv-x="279" 
d="M232 399q0 -13 -36 -40q-46 -36 -67 -63q-36 -49 -36 -112q0 -52 28 -76q18 -15 102 -50q-2 -31 -11 -44q-12 -15 -40 -15q-74 0 -128 66q-50 62 -50 136q0 38 54 139q61 114 107 114q16 0 46.5 -21.5t30.5 -33.5z" />
    <glyph glyph-name="d" unicode="d" horiz-adv-x="410" 
d="M348 191q0 -75 -37 -129q-43 -63 -121 -63q-90 0 -144 55t-54 142q0 60 68 113q60 46 108 46q2 0 17 -1.5t30 -1.5l-149 231q4 16 29.5 44t43.5 38q31 -82 89 -177q70 -113 83 -140q37 -77 37 -157zM264 185q0 34 -25 67q-29 38 -71 38q-34 0 -65 -29t-31 -67
q0 -40 32.5 -74t77.5 -34q39 0 62 32q20 28 20 67z" />
    <glyph glyph-name="e" unicode="e" horiz-adv-x="372" 
d="M338 311q0 -23 -117.5 -69.5t-117.5 -73.5q0 -8 10 -24q16 -26 104 -112q0 -14 -11.5 -29.5t-25.5 -15.5q-21 0 -80.5 47t-80.5 104q-15 40 -15 104q0 69 34 125q42 72 119 72q53 0 113 -36q68 -41 68 -92zM214 314q0 14 -25 27q-21 11 -37 11q-54 0 -52 -82
q5 -11 18 -11q7 0 49 20q47 22 47 35z" />
    <glyph glyph-name="f" unicode="f" horiz-adv-x="255" 
d="M220 436q0 -25 -10.5 -31.5t-43.5 -6.5q-10 -4 -13 -45l-4 -92q-3 -39 -5 -59q-4 -36 -12 -62q-10 -31 -53 -107q-47 -83 -64 -83q-6 0 -12 9.5t-6 13.5t37 106t37 111q1 38 2 62l1 20q0 143 2 66q-2 67 -15 99q-3 5 -35 46q-23 29 -23 67q0 64 64 85q36 11 114 11
q15 -11 17 -80q-9 -5 -55 -9q-32 -3 -32 -27q0 -17 17.5 -32.5t30.5 -15.5q4 0 16 1.5t15 1.5q30 0 30 -49z" />
    <glyph glyph-name="g" unicode="g" horiz-adv-x="427" 
d="M372 323q0 -81 -43 -136q-38 -47 -146 -118q3 -4 10 -4q9 0 34.5 7.5t34.5 7.5q40 0 72 -43q29 -38 29 -76q0 -60 -89 -114q-76 -46 -126 -46q-46 0 -112 27q-82 33 -82 79q0 15 26 29q23 14 38 11q52 -62 125 -62q35 0 79 17q60 23 60 60q0 34 -54 34q-4 0 -49.5 -4.5
t-49.5 -4.5q-24 0 -40.5 18t-16.5 42q0 13 10 24q18 19 24 29q-41 24 -71 82q-28 54 -28 98q0 75 72 124q61 41 152 51q3 1 42.5 45t56.5 44q14 0 26.5 -18t12.5 -30q0 -14 -20 -35q-29 -31 -33 -36q21 -19 38.5 -50t17.5 -52zM285 309q0 27 -7 52q-3 -1 -29 -32.5
t-39 -31.5q-10 0 -27.5 18.5t-17.5 29.5q0 4 3 9.5t3 6.5h-14q-42 -23 -53 -33q-17 -14 -17 -36q0 -36 34 -84q38 -54 78 -54q34 0 63 70q23 56 23 85z" />
    <glyph glyph-name="h" unicode="h" horiz-adv-x="331" 
d="M295 -124q0 -27 -27 -49.5t-50 -22.5q-58 0 -86 40q-22 32 -22 78q0 55 38.5 154t38.5 131q0 38 -79 56q-11 -12 -13 -35q-2 -19 -3 -39q2 -30 2 -45q0 -101 -53 -101q-16 0 -28 23q-9 18 -9 31l22 235l-3 161q-2 18 -8 64q-5 41 -5 45q0 32 42 32q33 0 56 -16
q7 -52 7 -104q0 -34 -3 -84q-4 -58 -5 -75q50 -21 101 -41q72 -33 72 -82q0 -54 -70 -171.5t-70 -160.5q0 -27 22 -47.5t42 -20.5q63 0 63 54q0 42 -32 42q-14 0 -27 -8q-3 -2 -3 -8q50 3 50 -27q0 -15 -14.5 -24.5t-22.5 -9.5q-18 0 -28 16q-9 13 -9 32q0 25 15 39.5
t37 14.5q30 0 48 -31q14 -24 14 -46zM224 -116v5l-24 -3v-5z" />
    <glyph glyph-name="i" unicode="i" horiz-adv-x="202" 
d="M161 521q0 -19 -23 -32q-18 -10 -31 -10q-60 0 -60 62q0 50 52 50q31 0 48 -23q14 -19 14 -47zM152 44q0 19 -32.5 95.5t-32.5 106.5q0 22 29.5 69.5t29.5 61.5q0 16 -20 35t-39 19q-30 0 -62 -95q-28 -81 -28 -110q0 -26 27 -125q32 -115 58 -115q14 0 40 18
q30 21 30 40z" />
    <glyph glyph-name="j" unicode="j" horiz-adv-x="261" 
d="M165 567q0 -20 -29 -32q-21 -9 -38 -9q-48 0 -48 43q0 68 62 68q27 0 42 -26q11 -20 11 -44zM205 492q0 10 -11 15q-50 -16 -101 -32q-80 -28 -80 -50q0 -18 20 -22q4 -1 30 -1q4 0 20 1.5t20 1.5q15 0 15 -26q0 -50 -48 -186t-48 -183q0 -11 14 -26.5t14 -16.5
q0 -4 -23 -47.5t-23 -46.5q0 -19 25 -19q11 0 21 7q19 15 34 41q10 20 21 39q7 13 9 29q18 162 59 313q32 118 32 209z" />
    <glyph glyph-name="k" unicode="k" horiz-adv-x="305" 
d="M287 393q-43 -22 -98 -76q-61 -60 -61 -89q0 -31 68 -107t68 -90q0 -18 -20 -30q-16 -9 -30 -9q-37 0 -59 33l-44 80q-9 -9 -11 -30v-33q-1 -41 -40 -43q-23 -1 -32 27q-4 22 -9 45l3 307l-19 197q0 -8 10 95q12 14 41 10q11 0 26 -16q13 -12 19 -24l-3 -271q0 -1 -2 -16
q-1 -13 0 -21q1 -12 8 -20q13 4 36 43q33 56 42 69q28 36 55 36q48 0 52 -67z" />
    <glyph glyph-name="l" unicode="l" horiz-adv-x="192" 
d="M113 -5q-11 -4 -32 -4h-1q-66 130 -74 214l42 308q1 22 -15 62t-17 49q-1 26 26 38q17 7 40 6q65 -89 57 -148l-46 -316q-2 -19 44 -137q8 -22 8 -23q0 -39 -32 -49z" />
    <glyph glyph-name="m" unicode="m" horiz-adv-x="599" 
d="M560 124q0 -58 -4 -74q-13 -55 -62 -55q-23 0 -35 27q-9 21 -9 47l13 184q0 104 -73 104q-68 0 -68 -107q0 -26 5 -83t5 -82q0 -90 -53 -90q-58 0 -58 55l22 200q0 27 -9 56q-14 47 -44 47q-56 0 -74 -144l-12 -188q-4 -28 -56 -28q-36 0 -36 60q0 46 28.5 144.5
t28.5 129.5q0 3 -21 31t-21 45q0 18 17.5 37.5t34.5 19.5q1 0 26 -18t42 -18q11 0 34 15t45 15q21 0 41.5 -21.5t29.5 -21.5l35 14.5t61 14.5q99 0 142 -136q25 -80 25 -180z" />
    <glyph glyph-name="n" unicode="n" horiz-adv-x="411" 
d="M420 -74q0 -42 -58 -42q-37 0 -50 13q-11 10 -23 50q-14 45 -23 202q-8 152 -19 178q-13 33 -65 33q-55 0 -69 -149l-10 -184q-4 -17 -47 -17q-24 0 -29 10q-3 5 -3 27q0 84 21.5 200t21.5 102q0 20 -17 31.5t-17 22.5q0 24 94 58q2 -1 12 -24q7 -16 17 -13l89 16
q17 -3 33 -5q23 -6 30 -22q18 -42 32 -164q19 -160 29 -209q2 -14 26.5 -62t24.5 -52z" />
    <glyph glyph-name="o" unicode="o" horiz-adv-x="434" 
d="M193 12q-71 0 -135 88q-58 80 -58 145q0 84 46.5 134t133.5 50q59 0 124 -43q76 -50 76 -115q0 -74 -56 -162q-61 -97 -131 -97zM210 344q-125 0 -125 -84q0 -18 28 -83q33 -77 61 -77q45 0 85 58q35 52 35 90q0 33 -21 62q-25 34 -63 34z" />
    <glyph glyph-name="p" unicode="p" horiz-adv-x="328" 
d="M277 328q0 -43 -37 -71q-12 -10 -68 -37q-36 -18 -36 -35q0 -3 6 -48t6 -49q0 -32 -12 -118q-14 -96 -26 -122q-11 -22 -57 -22q-40 0 -40 24q0 3 16 36t20 49q13 56 13 176q0 156 -13 207q-2 7 -14.5 27t-12.5 24q0 17 67 52q61 31 68 31q43 0 81.5 -42.5t38.5 -81.5z
M188 349q0 30 -25 30q-37 0 -37 -58q0 -3 1 -17v-20h14l36 36q11 11 11 29z" />
    <glyph glyph-name="q" unicode="q" horiz-adv-x="343" 
d="M334 -128q0 -19 -15 -32.5t-31 -13.5q-33 0 -78 69q-42 63 -42 86l18 167q0 33 -46.5 47.5t-91.5 27.5q-49 25 -49 79q0 132 134 132q28 0 85 -25q8 13 15 26q10 17 22 17q36 0 36 -61q0 -2 -8 -41q-8 -42 -10 -62q4 -28 5 -89q-3 -34 -14 -107q-10 -68 -10 -70
q0 -33 40 -83.5t40 -66.5zM195 360h-50q-69 1 -69 -49q0 -39 113 -61q3 32 6 110z" />
    <glyph glyph-name="r" unicode="r" horiz-adv-x="280" 
d="M277 477q0 -29 -77 -125.5t-77 -111.5l13 -172q0 -76 -49 -76q-26 0 -37 39q-6 22 -6 47q0 3 6 41t6 42q0 65 -32.5 127.5t-32.5 74.5q0 16 23 31q18 12 28 12q12 0 32 -26t29 -26q22 0 65 92t63 92q16 0 46 -61z" />
    <glyph glyph-name="s" unicode="s" horiz-adv-x="268" 
d="M243 406q0 -5 -6.5 -32.5t-9.5 -31.5q-49 27 -57 27q-37 0 -37 -46q0 -30 35.5 -94.5t35.5 -100.5q0 -63 -44 -101q-40 -35 -98 -35q-31 0 -61 10q-40 13 -40 37q0 23 32 23q4 0 35.5 -3t35.5 -3q25 0 42 23q15 20 15 46q0 24 -38.5 104.5t-38.5 116.5q0 56 68 80
q47 17 116 17q14 0 15 -37z" />
    <glyph glyph-name="t" unicode="t" horiz-adv-x="260" 
d="M210 43q0 -17 -29 -39t-47 -22q-27 0 -57 51q-26 44 -26 65v312q0 44 -21.5 77.5t-21.5 36.5q0 6 16 24t28 18t34 -30q29 -39 41 -49.5t25.5 -11.5t26.5 -2q8 0 13 -4q9 -8 9 -38q0 -42 -29 -42h-8h-7q-21 0 -33 -10l-2 -162q0 -114 21 -143q15 -19 38 -24q27 -5 29 -7z
" />
    <glyph glyph-name="u" unicode="u" horiz-adv-x="381" 
d="M325 360q0 -98 -26 -203q-42 -168 -130 -168q-32 0 -75 28.5t-54 51.5q-2 6 2 24q6 31 7 34l-37 231q-7 35 31 62q33 23 64 23q7 0 28 -13q-2 -28 -22.5 -67.5t-20.5 -62.5q0 -33 21 -103q27 -92 63 -92q37 0 57 97q15 69 15 132q0 41 -14 83t-14 58q0 14 18 33t33 19h19
q13 -21 24 -73.5t11 -93.5z" />
    <glyph glyph-name="v" unicode="v" horiz-adv-x="374" 
d="M370 469l-55 -108t-60 -139q-8 -64 -28 -180q-8 -33 -27 -43q-7 -4 -18 -4q5 0 -11 4q-20 15 -28 40q-6 15 -15 46q-1 5 -13 70q-8 42 -20 68t-58 64q-38 31 -38 57q0 32 70 81q91 -147 112 -263q3 14 8 35q19 37 32 100q34 164 39 287q25 -7 67.5 -48t42.5 -67z" />
    <glyph glyph-name="w" unicode="w" horiz-adv-x="640" 
d="M740 664q0 -7 -9.5 -26t-18.5 -23q-65 -29 -111 -97q-40 -58 -53 -120q-44 -209 -49 -230q-44 -169 -83 -169q-18 0 -54 71t-52 71q-19 0 -31 -38q-19 -63 -23 -71q-20 -39 -58 -39q-40 0 -43 86q-3 67 -74 171q-38 55 -77 109q-4 13 -4 24q0 29 27 43q21 12 50 12
q10 0 18 -2q25 -38 63 -134q36 -89 72 -137q17 8 43 95q25 83 41 83q11 0 24 -39q21 -65 26 -76q20 -44 46 -54q15 37 40 159q24 118 53 187q23 52 84 116q68 71 113 71q14 0 27 -15t13 -28z" />
    <glyph glyph-name="x" unicode="x" horiz-adv-x="402" 
d="M408 566q0 -36 -11 -47q-37 -41 -76 -110q-28 -54 -57 -108q-26 -44 -43 -89l120 -199q-9 -17 -31 -17q-48 0 -74 32q-7 8 -32 60q-16 32 -39 32t-35 -33q-20 -53 -26 -61q-23 -33 -71 -33q-16 0 -35 10q2 11 58.5 103t56.5 100q0 19 -53 99t-53 100q0 25 35 25
q33 0 60 -36q10 -13 38 -67q19 -35 32 -34t41 65q42 96 61 128q43 76 90 101q12 4 20 4q24 0 24 -25z" />
    <glyph glyph-name="y" unicode="y" horiz-adv-x="360" 
d="M317 396l-66 -146l-42 -118q-50 -126 -105 -203q-77 -107 -155 -107q-47 0 -39 31q6 24 61 71q69 59 97 98q50 69 50 155q0 42 -27 96q-17 35 -49 83q-27 39 -27 43q0 19 34 19q46 0 72 -42q23 -47 47 -94l4 -24q17 26 51 113q21 53 50 53q9 0 26.5 -8.5t17.5 -19.5z" />
    <glyph glyph-name="z" unicode="z" horiz-adv-x="426" 
d="M383 52q0 -25 -13 -33q-9 -7 -35 -7q-14 0 -42 3.5t-42 3.5q-29 0 -86.5 -9.5t-85.5 -9.5q-57 0 -57 37q0 11 103.5 133.5t101.5 150.5q-14 15 -26 14l-153 -15q-38 -4 -38 36q0 60 62 60q15 0 45 -4.5t45 -4.5q14 0 43 4.5t43 4.5q34 0 64 -6q47 -10 47 -32
q0 -36 -90.5 -145t-90.5 -135q0 -5 8 -8t12 -2q41 6 81 13q51 8 81 8q11 0 18 -24q5 -18 5 -33z" />
    <glyph glyph-name="braceleft" unicode="{" horiz-adv-x="334" 
d="M103 -36q0 -86 99 -83l53 1l20 19v32l-20 20h-45q-33 0 -33 62q0 16 3 60t3 69q0 138 -80 187q74 43 74 110q0 6 -4 56.5t-4 84.5q0 117 47 118h39l20 20v32l-20 19l-53 2q-107 2 -107 -137q0 -31 6 -93t6 -88q0 -38 -38.5 -77.5t-78.5 -49.5q120 -33 120 -207
q0 -28 -3.5 -81.5t-3.5 -75.5z" />
    <glyph glyph-name="bar" unicode="|" horiz-adv-x="287" 
d="M126 724h12q26 0 26 -26v-720q0 -26 -26 -26h-12q-26 0 -26 26v720q0 26 26 26z" />
    <glyph glyph-name="braceright" unicode="}" horiz-adv-x="334" 
d="M162 -36q0 -86 -99 -83l-53 1l-20 19v32l20 20h45q33 0 33 62q0 16 -3 60t-3 69q0 138 80 187q-74 43 -74 110q0 6 4 56.5t4 84.5q0 117 -47 118h-39l-20 20v32l20 19l53 2q107 2 107 -137q0 -31 -6 -93t-6 -88q0 -38 40 -79q37 -38 77 -48q-120 -33 -120 -207
q0 -28 3.5 -81.5t3.5 -75.5z" />
    <glyph glyph-name="asciitilde" unicode="~" horiz-adv-x="351" 
d="M12 746q18 33 25 33q3 0 22 9t19.5 9t15.5 3t26 3t17 -3q42 -21 57 -25q10 -3 34 -3q17 0 31 11q3 3 13 23q21 8 24 5l13.5 -3t13.5 -8q0 -2 -3.5 -6t-20.5 -28q-17 -15 -40 -34q-29 -3 -61 -11q-2 -1 -5 -1q-12 0 -53 12q-30 23 -30 20q0 -1 -17 -1h-1q-18 0 -19 -2
q-4 -2 -24 -25q-35 4 -37 22z" />
    <glyph glyph-name="Adieresis" unicode="&#xc4;" horiz-adv-x="636" 
d="M614 58q0 -24 -18.5 -38.5t-39.5 -14.5q-4 0 -49.5 8t-49.5 8q-5 0 -64 -13t-63 -13q-21 0 -34 16.5t-13 35.5q0 36 38 47q49 12 61 32q17 28 17 127q0 35 -2 41q-5 23 -29 23q-139 0 -163 -7q-7 -39 -21 -185q-7 -78 -31 -104q-30 -33 -117 -33q-31 0 -44 8
q-17 11 -17 40q0 33 10 47t41 14q3 0 11.5 -3.5t13.5 -3.5q36 0 49 34q8 24 8 85v29q0 101 22 152q58 138 98 178q-9 5 -73 22q-36 9 -36 42q0 32 42 32q3 0 53 -10q55 -12 80 -16l220 45q3 1 6 1q11 0 20.5 -14t9.5 -24t-14 -29q-19 -26 -21 -29q-18 -35 -26 -84
q-5 -40 -10 -79l-3 -222q0 -73 36 -93q7 -4 66 -11q36 -5 36 -41zM418 553q0 5 -7.5 10t-15.5 5q-59 0 -111 -54.5t-52 -111.5v-20q-13 -1 146 -1q21 0 32 74q8 52 8 98zM357 755q0 18 12.5 31t30.5 13t30.5 -13t12.5 -31q0 -19 -12.5 -32t-30.5 -13t-30.5 13t-12.5 32z
M207 752q0 18 12.5 31t30.5 13t30.5 -13t12.5 -31q0 -19 -12.5 -32t-30.5 -13t-30.5 13t-12.5 32z" />
    <glyph glyph-name="Aring" unicode="&#xc5;" horiz-adv-x="636" 
d="M614 58q0 -24 -18.5 -38.5t-39.5 -14.5q-4 0 -49.5 8t-49.5 8q-5 0 -64 -13t-63 -13q-21 0 -34 16.5t-13 35.5q0 36 38 47q49 12 61 32q17 28 17 127q0 35 -2 41q-5 23 -29 23q-139 0 -163 -7q-7 -39 -21 -185q-7 -78 -31 -104q-30 -33 -117 -33q-31 0 -44 8
q-17 11 -17 40q0 33 10.5 47t40.5 14q3 0 11.5 -3.5t13.5 -3.5q36 0 49 34q8 24 8 85v29q0 101 22 152q58 138 98 178q-9 5 -73 22q-36 9 -36 42q0 32 42 32q3 0 53 -10q55 -12 80 -16l220 45q3 1 6 1q11 0 20.5 -14t9.5 -24t-14 -29q-19 -26 -21 -29q-18 -35 -26 -84
q-5 -40 -10 -79l-3 -222q0 -73 36 -93q7 -4 66 -11q36 -5 36 -41zM418 553q0 5 -7.5 10t-15.5 5q-59 0 -111 -54.5t-52 -111.5v-20q-13 -1 146 -1q21 0 32 74q8 52 8 98zM323 825q35 0 62.5 -18t27.5 -49q0 -30 -27.5 -48.5t-62.5 -18.5q-34 0 -62 18.5t-28 48.5q0 31 28 49
t62 18zM323 785q-24 0 -37 -9t-13 -18q0 -8 12 -16q14 -11 38 -11t39 11q11 8 11 16q0 9 -11 17q-15 10 -39 10z" />
    <glyph glyph-name="Ccedilla" unicode="&#xc7;" horiz-adv-x="458" 
d="M271 -3q-6 -24 -6 -32q0 -1 15 -12q19 -12 28 -26q15 -21 13 -49q-2 -35 -33 -63t-66 -28q-18 0 -45 15.5t-39 35.5q-6 10 -6 19q0 20 17 20q8 0 14 -7q24 -39 56 -39q22 0 40.5 15.5t18.5 36.5q0 26 -20 42.5t-47 14.5q5 17 14 61q-72 12 -92 41q-80 118 -91 140
q-47 94 -46 212q0 42 36 131q43 108 93 135q40 20 107 20q47 0 109 -34q76 -42 76 -101q0 -98 -16 -140q-33 -88 -138 -88q-42 0 -76 49q-30 43 -30 78q0 85 98 85q46 0 46 -30q0 -50 -30 -50q-3 0 -7.5 1.5t-8.5 1.5q-18 0 -18 -16q0 -14 15 -23q11 -6 19 -6q30 0 54.5 32
t24.5 60q0 47 -40 72q-31 19 -70 19q-128 0 -128 -243q0 -44 13 -104q16 -71 42 -109q23 -35 92 -51q53 -13 104 -10q-5 -3 -2.5 -22t-0.5 -21q-33 -31 -89 -33z" />
    <glyph glyph-name="Eacute" unicode="&#xc9;" horiz-adv-x="554" 
d="M518 81q0 -42 -70 -74q-58 -27 -97 -27q-9 0 -9 3l-295 -4q-13 0 -26.5 10t-13.5 24q0 4 18 39q22 43 27 56l-19 127q3 27 27 120q21 85 21 118q0 51 -21 82q-11 17 -38 37q-21 15 -21 27q0 23 15.5 37.5t38.5 14.5q4 0 79 -16.5t79 -16.5q25 0 72 18t77 18q40 0 85 -30
q52 -35 52 -81q0 -15 -8 -29q-11 -18 -26 -18q-4 0 -55.5 27.5t-90.5 27.5q-44 0 -83 -7q-76 -14 -78 -49q3 -3 0 -138q23 -12 40 -12q4 0 57.5 8t57.5 8q45 0 45 -24q0 -12 -20 -42q-21 -33 -37 -33q-3 0 -23.5 4.5t-24.5 4.5q-56 0 -130 -18q6 -45 6 -96v-18.5v-16.5
q0 -45 17.5 -59t88.5 -14q70 0 123 15q34 8 68 26q28 14 36 14q12 0 34 -16t22 -27zM279 824q0 -1 -72.5 -51.5t-71.5 -52.5q-3 -3 -3 -8q0 -9 8 -16.5t18 -7.5l167 72q18 3 16 18q-3 24 -22 37t-25 13q-7 0 -15 -4z" />
    <glyph glyph-name="Ntilde" unicode="&#xd1;" horiz-adv-x="719" 
d="M666 609q0 -11 -33 -174t-33 -245q0 -2 6 -74q6 -79 7 -112q-14 -13 -27 -13q-86 0 -89 109q-1 16 4 53.5t5 54.5q0 26 -8 41q-22 46 -86 131q-70 92 -133 152q-16 -32 -17 -88q-2 -92 -4 -109q3 -92 0 -95q16 -104 16 -150q0 -56 -68 -85q-49 -21 -100 -21q-4 0 -10 5
t-8 6q4 16 41 61q35 41 34 67v121l20 267q0 24 -12.5 42t-36.5 18q-4 0 -18 -1.5t-18 -1.5q-33 0 -70 18q-48 24 -48 62q0 12 11.5 26.5t24.5 14.5q-2 0 41 -14.5t80 -14.5q4 0 30 1.5t30 1.5q72 0 144 -72q38 -38 104 -134q50 -71 67 -71q21 0 44 115q18 93 18 116
q0 45 -34 97.5t-34 51.5q0 5 17 21t22 16q43 0 85 -91q36 -75 36 -103zM172 746q18 33 25 33q3 0 22 9t19.5 9t15.5 3t26 3t17 -3q42 -21 57 -25q10 -3 34 -3q17 0 31 11q3 3 13 23q21 8 24 5l13.5 -3t13.5 -8q0 -2 -3.5 -6t-20.5 -28q-17 -15 -40 -34q-29 -3 -61 -11
q-2 -1 -5 -1q-12 0 -53 12q-30 23 -30 20q0 -1 -17 -1h-1q-18 0 -19 -2q-4 -2 -24 -25q-35 4 -37 22z" />
    <glyph glyph-name="Odieresis" unicode="&#xd6;" horiz-adv-x="593" 
d="M536 301q0 -120 -91 -213.5t-201 -93.5h-19q-101 0 -170 122q-55 97 -57 183q-2 89 8 120q7 20 47 71q55 68 108 160q8 15 25 15q26 0 65 -30l-25 -42q20 10 63 27q5 1 29 1q120 0 177 -120q41 -86 41 -200zM438 327q0 77 -19 135q-33 97 -111 97q-8 0 -22 -6
q-17 -7 -17 -16v-13q10 1 19 1q69 0 69 -77q0 -62 -61 -62q-4 0 -15 2t-14 2q-18 2 -46.5 27t-32.5 37q-3 8 -3 18q0 9 3.5 30t2.5 31q-18 -10 -45 -79.5t-27 -106.5q0 -84 27 -150q41 -95 128 -95h13q72 0 117 89q34 69 34 136zM287 755q0 18 12.5 31t30.5 13t30.5 -13
t12.5 -31q0 -19 -12.5 -32t-30.5 -13t-30.5 13t-12.5 32zM137 752q0 18 12.5 31t30.5 13t30.5 -13t12.5 -31q0 -19 -12.5 -32t-30.5 -13t-30.5 13t-12.5 32z" />
    <glyph glyph-name="Udieresis" unicode="&#xdc;" horiz-adv-x="547" 
d="M408 578q-9 14 -10 38v41q-1 4 -2 7q-12 29 -48 29q-56 0 -56 -70q0 -30 29 -79q43 -74 54 -97q29 -67 29 -140q0 -226 -141 -232q-80 -4 -118 104q-26 72 -26 162q0 56 17 114q12 40 32 81l17 35q0 28 -33 28q-37 0 -94 -44.5t-60 -81.5l33 -47q-1 -6 8 -81
q10 -81 10 -137q0 -32 -3 -60q0 -3 -14.5 -26.5t-14.5 -31.5q0 -2 1 -3q50 -10 132 -60q70 -44 119 -44q233 0 233 256q0 91 -31 194q-28 92 -63 145zM237 755q0 18 12.5 31t30.5 13t30.5 -13t12.5 -31q0 -19 -12.5 -32t-30.5 -13t-30.5 13t-12.5 32zM87 752q0 18 12.5 31
t30.5 13t30.5 -13t12.5 -31q0 -19 -12.5 -32t-30.5 -13t-30.5 13t-12.5 32z" />
    <glyph glyph-name="aacute" unicode="&#xe1;" horiz-adv-x="392" 
d="M358 -1q0 -21 -24 -21q-21 0 -42 35.5t-32 35.5q1 0 -39.5 -21.5t-73.5 -21.5q-139 0 -139 147q0 52 21 90q27 47 78 47q3 0 49 -7.5t50 -7.5q28 0 28 26q0 35 -52 47q-49 7 -97 14q-53 10 -53 41q0 48 48 48q42 0 112 -27q76 -30 93 -60q22 -39 25 -109q6 -119 8 -133
q3 -24 21.5 -72.5t18.5 -50.5zM246 167q0 22 -29 38q-25 14 -48 14q-26 0 -55 -14q-38 -18 -38 -46q0 -20 20.5 -40.5t41.5 -20.5q18 0 57 18q51 22 51 51zM202 627q0 -1 -73 -51.5t-71 -52.5q-4 -3 -4 -8q0 -8 8.5 -16t18.5 -7l167 71q18 3 16 19q-4 24 -22.5 36.5
t-24.5 12.5q-7 0 -15 -4z" />
    <glyph glyph-name="agrave" unicode="&#xe0;" horiz-adv-x="392" 
d="M358 -1q0 -21 -24 -21q-21 0 -42 35.5t-32 35.5q1 0 -39.5 -21.5t-73.5 -21.5q-139 0 -139 147q0 52 21 90q27 47 78 47q3 0 49 -7.5t50 -7.5q28 0 28 26q0 35 -52 47q-49 7 -97 14q-53 10 -53 41q0 48 48 48q42 0 112 -27q76 -30 93 -60q22 -39 25 -109q6 -119 8 -133
q3 -24 21.5 -72.5t18.5 -50.5zM246 167q0 22 -29 38q-25 14 -48 14q-26 0 -55 -14q-38 -18 -38 -46q0 -20 20.5 -40.5t41.5 -20.5q18 0 57 18q51 22 51 51zM108 615q0 -1 73 -51.5t71 -52.5q3 -3 3 -8q0 -8 -8 -16t-18 -7l-167 71q-18 3 -16 19q4 24 22.5 36.5t24.5 12.5
q7 0 15 -4z" />
    <glyph glyph-name="acircumflex" unicode="&#xe2;" horiz-adv-x="392" 
d="M358 -1q0 -21 -24 -21q-21 0 -42 35.5t-32 35.5q1 0 -39.5 -21.5t-73.5 -21.5q-139 0 -139 147q0 52 21 90q27 47 78 47q3 0 49 -7.5t50 -7.5q28 0 28 26q0 35 -52 47q-49 7 -97 14q-53 10 -53 41q0 48 48 48q42 0 112 -27q76 -30 93 -60q22 -39 25 -109q6 -119 8 -133
q3 -24 21.5 -72.5t18.5 -50.5zM246 167q0 22 -29 38q-25 14 -48 14q-26 0 -55 -14q-38 -18 -38 -46q0 -20 20.5 -40.5t41.5 -20.5q18 0 57 18q51 22 51 51zM283 525q4 -3 4 -8q0 -8 -8.5 -16t-18.5 -8l-111 61l-111 -61q-10 0 -18.5 8t-8.5 16q0 5 4 8q-2 2 52 41t54 40
q23 12 29 9q3 1 29 -12q0 -1 53 -38.5t51 -39.5z" />
    <glyph glyph-name="adieresis" unicode="&#xe4;" horiz-adv-x="392" 
d="M358 -1q0 -21 -24 -21q-21 0 -42 35.5t-32 35.5q1 0 -39.5 -21.5t-73.5 -21.5q-139 0 -139 147q0 52 21 90q27 47 78 47q3 0 49 -7.5t50 -7.5q28 0 28 26q0 35 -52 47q-49 7 -97 14q-53 10 -53 41q0 48 48 48q42 0 112 -27q76 -30 93 -60q22 -39 25 -109q6 -119 8 -133
q3 -24 21.5 -72.5t18.5 -50.5zM246 167q0 22 -29 38q-25 14 -48 14q-26 0 -55 -14q-38 -18 -38 -46q0 -20 20.5 -40.5t41.5 -20.5q18 0 57 18q51 22 51 51zM183 551q0 19 12.5 32t30.5 13t30.5 -13t12.5 -32q0 -18 -12.5 -31.5t-30.5 -13.5t-30.5 13.5t-12.5 31.5zM33 548
q0 19 12.5 32t30.5 13t30.5 -13t12.5 -32q0 -18 -12.5 -31t-30.5 -13t-30.5 13t-12.5 31z" />
    <glyph glyph-name="atilde" unicode="&#xe3;" horiz-adv-x="392" 
d="M358 -1q0 -21 -24 -21q-21 0 -42 35.5t-32 35.5q1 0 -39.5 -21.5t-73.5 -21.5q-139 0 -139 147q0 52 21 90q27 47 78 47q3 0 49 -7.5t50 -7.5q28 0 28 26q0 35 -52 47q-49 7 -97 14q-53 10 -53 41q0 48 48 48q42 0 112 -27q76 -30 93 -60q22 -39 25 -109q6 -119 8 -133
q3 -24 21.5 -72.5t18.5 -50.5zM246 167q0 22 -29 38q-25 14 -48 14q-26 0 -55 -14q-38 -18 -38 -46q0 -20 20.5 -40.5t41.5 -20.5q18 0 57 18q51 22 51 51zM1 535q18 33 25 33q4 0 22.5 9t20.5 9q-1 0 14 3t26 3t17 -3q42 -21 58 -26q10 -2 33 -2q17 0 31 11q3 2 13 22
q21 9 24 6l13.5 -3t13.5 -8q0 -3 -3.5 -6.5t-20.5 -27.5q-17 -16 -40 -34q-29 -3 -61 -11q-1 -1 -4 -1q-13 0 -54 12q-30 23 -30 20q0 -2 -17 -2h-1q-17 0 -19.5 -2t-23.5 -24q-35 4 -37 22z" />
    <glyph glyph-name="aring" unicode="&#xe5;" horiz-adv-x="392" 
d="M358 -1q0 -21 -24 -21q-21 0 -42 35.5t-32 35.5q1 0 -39.5 -21.5t-73.5 -21.5q-139 0 -139 147q0 52 21 90q27 47 78 47q3 0 49 -7.5t50 -7.5q28 0 28 26q0 35 -52 47q-49 7 -97 14q-53 10 -53 41q0 48 48 48q42 0 112 -27q76 -30 93 -60q22 -39 25 -109q6 -119 8 -133
q3 -24 21.5 -72.5t18.5 -50.5zM246 167q0 22 -29 38q-25 14 -48 14q-26 0 -55 -14q-38 -18 -38 -46q0 -20 20.5 -40.5t41.5 -20.5q18 0 57 18q51 22 51 51zM155 625q34 0 62 -18t28 -49q0 -30 -28 -48t-62 -18t-62 18t-28 48q0 31 28 49t62 18zM155 585q-24 0 -39 -10
q-11 -8 -11 -17q0 -8 11 -16q15 -10 39 -10t39 10q11 8 11 16q0 9 -11 17q-15 10 -39 10z" />
    <glyph glyph-name="ccedilla" unicode="&#xe7;" horiz-adv-x="279" 
d="M168 -1q-4 -19 -4 -26q0 -2 16.5 -13t26.5 -25q14 -21 13 -50q-2 -34 -35 -61.5t-69 -27.5q-20 0 -44 13q-28 15 -36 37q-3 9 -3 16q0 19 18 19q5 0 11 -3q23 -39 56 -39q22 0 40 15.5t18 36.5q0 26 -20 42.5t-46 14.5q5 17 13 60q-56 20 -93 78q-36 55 -36 115
q0 38 54 139q61 114 107 114q16 0 46.5 -21.5t30.5 -33.5q0 -13 -36 -40q-46 -36 -67 -63q-36 -49 -36 -112q0 -52 28 -76q18 -15 102 -50q-2 -34 -14 -46.5t-37 -12.5h-4z" />
    <glyph glyph-name="eacute" unicode="&#xe9;" horiz-adv-x="372" 
d="M338 311q0 -23 -117.5 -69.5t-117.5 -73.5q0 -8 10 -24q16 -26 104 -112q0 -14 -11.5 -29.5t-25.5 -15.5q-21 0 -80.5 47t-80.5 104q-15 40 -15 104q0 69 34 125q42 72 119 72q53 0 113 -36q68 -41 68 -92zM214 314q0 14 -25 27q-21 11 -37 11q-54 0 -52 -82
q5 -11 18 -11q7 0 49 20q47 22 47 35zM212 627q0 -1 -73 -51.5t-71 -52.5q-4 -3 -4 -8q0 -8 8.5 -16t18.5 -7l167 71q18 3 16 19q-4 24 -22.5 36.5t-24.5 12.5q-7 0 -15 -4z" />
    <glyph glyph-name="egrave" unicode="&#xe8;" horiz-adv-x="372" 
d="M338 311q0 -23 -117.5 -69.5t-117.5 -73.5q0 -8 10 -24q16 -26 104 -112q0 -14 -11.5 -29.5t-25.5 -15.5q-21 0 -80.5 47t-80.5 104q-15 40 -15 104q0 69 34 125q42 72 119 72q53 0 113 -36q68 -41 68 -92zM214 314q0 14 -25 27q-21 11 -37 11q-54 0 -52 -82
q5 -11 18 -11q7 0 49 20q47 22 47 35zM118 615q0 -1 73 -51.5t71 -52.5q3 -3 3 -8q0 -8 -8 -16t-18 -7l-167 71q-18 3 -16 19q4 24 22.5 36.5t24.5 12.5q7 0 15 -4z" />
    <glyph glyph-name="ecircumflex" unicode="&#xea;" horiz-adv-x="372" 
d="M338 311q0 -23 -117.5 -69.5t-117.5 -73.5q0 -8 10 -24q16 -26 104 -112q0 -14 -11.5 -29.5t-25.5 -15.5q-21 0 -80.5 47t-80.5 104q-15 40 -15 104q0 69 34 125q42 72 119 72q53 0 113 -36q68 -41 68 -92zM214 314q0 14 -25 27q-21 11 -37 11q-54 0 -52 -82
q5 -11 18 -11q7 0 49 20q47 22 47 35zM283 525q4 -3 4 -8q0 -8 -8.5 -16t-18.5 -8l-111 61l-111 -61q-10 0 -18.5 8t-8.5 16q0 5 4 8q-2 2 52 41t54 40q23 12 29 9q3 1 29 -12q0 -1 53 -38.5t51 -39.5z" />
    <glyph glyph-name="edieresis" unicode="&#xeb;" horiz-adv-x="372" 
d="M338 311q0 -23 -117.5 -69.5t-117.5 -73.5q0 -8 10 -24q16 -26 104 -112q0 -14 -11.5 -29.5t-25.5 -15.5q-21 0 -80.5 47t-80.5 104q-15 40 -15 104q0 69 34 125q42 72 119 72q53 0 113 -36q68 -41 68 -92zM214 314q0 14 -25 27q-21 11 -37 11q-54 0 -52 -82
q5 -11 18 -11q7 0 49 20q47 22 47 35zM193 551q0 19 12.5 32t30.5 13t30.5 -13t12.5 -32q0 -18 -12.5 -31.5t-30.5 -13.5t-30.5 13.5t-12.5 31.5zM43 548q0 19 12.5 32t30.5 13t30.5 -13t12.5 -32q0 -18 -12.5 -31t-30.5 -13t-30.5 13t-12.5 31z" />
    <glyph glyph-name="iacute" unicode="&#xed;" horiz-adv-x="202" 
d="M152 44q0 19 -32.5 95.5t-32.5 106.5q0 22 29.5 69.5t29.5 61.5q0 16 -20 35t-39 19q-30 0 -62 -95q-28 -81 -28 -110q0 -26 27 -125q32 -115 58 -115q14 0 40 18q30 21 30 40zM132 627q0 -1 -73 -51.5t-71 -52.5q-4 -3 -4 -8q0 -8 8.5 -16t18.5 -7l167 71q18 3 16 19
q-4 24 -22.5 36.5t-24.5 12.5q-7 0 -15 -4z" />
    <glyph glyph-name="igrave" unicode="&#xec;" horiz-adv-x="202" 
d="M152 44q0 19 -32.5 95.5t-32.5 106.5q0 22 29.5 69.5t29.5 61.5q0 16 -20 35t-39 19q-30 0 -62 -95q-28 -81 -28 -110q0 -26 27 -125q32 -115 58 -115q14 0 40 18q30 21 30 40zM58 615q0 -1 73 -51.5t71 -52.5q3 -3 3 -8q0 -8 -8 -16t-18 -7l-167 71q-18 3 -16 19
q4 24 22.5 36.5t24.5 12.5q7 0 15 -4z" />
    <glyph glyph-name="icircumflex" unicode="&#xee;" horiz-adv-x="202" 
d="M152 44q0 19 -32.5 95.5t-32.5 106.5q0 22 29.5 69.5t29.5 61.5q0 16 -20 35t-39 19q-30 0 -62 -95q-28 -81 -28 -110q0 -26 27 -125q32 -115 58 -115q14 0 40 18q30 21 30 40zM233 525q4 -3 4 -8q0 -8 -8.5 -16t-18.5 -8l-111 61l-111 -61q-10 0 -18.5 8t-8.5 16
q0 5 4 8q-2 2 52 41t54 40q23 12 29 9q3 1 29 -12q0 -1 53 -38.5t51 -39.5z" />
    <glyph glyph-name="idieresis" unicode="&#xef;" horiz-adv-x="202" 
d="M152 44q0 19 -32.5 95.5t-32.5 106.5q0 22 29.5 69.5t29.5 61.5q0 16 -20 35t-39 19q-30 0 -62 -95q-28 -81 -28 -110q0 -26 27 -125q32 -115 58 -115q14 0 40 18q30 21 30 40zM133 551q0 19 12.5 32t30.5 13t30.5 -13t12.5 -32q0 -18 -12.5 -31.5t-30.5 -13.5
t-30.5 13.5t-12.5 31.5zM-17 548q0 19 12.5 32t30.5 13t30.5 -13t12.5 -32q0 -18 -12.5 -31t-30.5 -13t-30.5 13t-12.5 31z" />
    <glyph glyph-name="ntilde" unicode="&#xf1;" horiz-adv-x="411" 
d="M420 -74q0 -42 -58 -42q-37 0 -50 13q-11 10 -23 50q-14 45 -23 202q-8 152 -19 178q-13 33 -65 33q-55 0 -69 -149l-10 -184q-4 -17 -47 -17q-24 0 -29 10q-3 5 -3 27q0 84 21.5 200t21.5 102q0 20 -17 31.5t-17 22.5q0 24 94 58q2 -1 12 -24q7 -16 17 -13l89 16
q17 -3 33 -5q23 -6 30 -22q18 -42 32 -164q19 -160 29 -209q2 -14 26.5 -62t24.5 -52zM31 555q18 33 25 33q4 0 22.5 9t20.5 9q-1 0 14 3t26 3t17 -3q42 -21 58 -26q10 -2 33 -2q17 0 31 11q3 2 13 22q21 9 24 6l13.5 -3t13.5 -8q0 -3 -3.5 -6.5t-20.5 -27.5
q-17 -16 -40 -34q-29 -3 -61 -11q-1 -1 -4 -1q-13 0 -54 12q-30 23 -30 20q0 -2 -17 -2h-1q-17 0 -19.5 -2t-23.5 -24q-35 4 -37 22z" />
    <glyph glyph-name="oacute" unicode="&#xf3;" horiz-adv-x="434" 
d="M193 12q-71 0 -135 88q-58 80 -58 145q0 84 46.5 134t133.5 50q59 0 124 -43q76 -50 76 -115q0 -74 -56 -162q-61 -97 -131 -97zM210 344q-125 0 -125 -84q0 -18 28 -83q33 -77 61 -77q45 0 85 58q35 52 35 90q0 33 -21 62q-25 34 -63 34zM232 617q0 -1 -73 -51.5
t-71 -52.5q-4 -3 -4 -8q0 -8 8.5 -16t18.5 -7l167 71q18 3 16 19q-4 24 -22.5 36.5t-24.5 12.5q-7 0 -15 -4z" />
    <glyph glyph-name="ograve" unicode="&#xf2;" horiz-adv-x="434" 
d="M193 12q-71 0 -135 88q-58 80 -58 145q0 84 46.5 134t133.5 50q59 0 124 -43q76 -50 76 -115q0 -74 -56 -162q-61 -97 -131 -97zM210 344q-125 0 -125 -84q0 -18 28 -83q33 -77 61 -77q45 0 85 58q35 52 35 90q0 33 -21 62q-25 34 -63 34zM129 599q0 -1 72.5 -51.5
t71.5 -51.5q3 -3 3 -8q0 -9 -8 -17t-18 -7l-167 71q-18 4 -16 19q3 24 22 36.5t25 12.5q7 0 15 -4z" />
    <glyph glyph-name="ocircumflex" unicode="&#xf4;" horiz-adv-x="434" 
d="M193 12q-71 0 -135 88q-58 80 -58 145q0 84 46.5 134t133.5 50q59 0 124 -43q76 -50 76 -115q0 -74 -56 -162q-61 -97 -131 -97zM210 344q-125 0 -125 -84q0 -18 28 -83q33 -77 61 -77q45 0 85 58q35 52 35 90q0 33 -21 62q-25 34 -63 34zM313 525q4 -3 4 -8
q0 -8 -8.5 -16t-18.5 -8l-111 61l-111 -61q-10 0 -18.5 8t-8.5 16q0 5 4 8q-2 2 52 41t54 40q23 12 29 9q3 1 29 -12q0 -1 53 -38.5t51 -39.5z" />
    <glyph glyph-name="odieresis" unicode="&#xf6;" horiz-adv-x="434" 
d="M193 12q-71 0 -135 88q-58 80 -58 145q0 84 46.5 134t133.5 50q59 0 124 -43q76 -50 76 -115q0 -74 -56 -162q-61 -97 -131 -97zM210 344q-125 0 -125 -84q0 -18 28 -83q33 -77 61 -77q45 0 85 58q35 52 35 90q0 33 -21 62q-25 34 -63 34zM213 541q0 19 12.5 32t30.5 13
t30.5 -13t12.5 -32q0 -18 -12.5 -31.5t-30.5 -13.5t-30.5 13.5t-12.5 31.5zM63 538q0 19 12.5 32t30.5 13t30.5 -13t12.5 -32q0 -18 -12.5 -31t-30.5 -13t-30.5 13t-12.5 31z" />
    <glyph glyph-name="otilde" unicode="&#xf5;" horiz-adv-x="434" 
d="M193 12q-71 0 -135 88q-58 80 -58 145q0 84 46.5 134t133.5 50q59 0 124 -43q76 -50 76 -115q0 -74 -56 -162q-61 -97 -131 -97zM210 344q-125 0 -125 -84q0 -18 28 -83q33 -77 61 -77q45 0 85 58q35 52 35 90q0 33 -21 62q-25 34 -63 34zM31 525q18 33 25 33q4 0 22.5 9
t20.5 9q-1 0 14 3t26 3t17 -3q42 -21 58 -26q10 -2 33 -2q17 0 31 11q3 2 13 22q21 9 24 6l13.5 -3t13.5 -8q0 -3 -3.5 -6.5t-20.5 -27.5q-17 -16 -40 -34q-29 -3 -61 -11q-1 -1 -4 -1q-13 0 -54 12q-30 23 -30 20q0 -2 -17 -2h-1q-17 0 -19.5 -2t-23.5 -24q-35 4 -37 22z
" />
    <glyph glyph-name="uacute" unicode="&#xfa;" horiz-adv-x="381" 
d="M325 360q0 -98 -26 -203q-42 -168 -130 -168q-32 0 -75 28.5t-54 51.5q-2 6 2 24q6 31 7 34l-37 231q-7 35 31 62q33 23 64 23q7 0 28 -13q-2 -28 -22.5 -67.5t-20.5 -62.5q0 -33 21 -103q27 -92 63 -92q37 0 57 97q15 69 15 132q0 41 -6.5 60t-6.5 34q0 14 17.5 33
t33.5 19h18q21 -31 21 -120zM212 627q0 -1 -73 -51.5t-71 -52.5q-4 -3 -4 -8q0 -8 8.5 -16t18.5 -7l167 71q18 3 16 19q-4 24 -22.5 36.5t-24.5 12.5q-7 0 -15 -4z" />
    <glyph glyph-name="ugrave" unicode="&#xf9;" horiz-adv-x="381" 
d="M325 360q0 -98 -26 -203q-42 -168 -130 -168q-32 0 -75 28.5t-54 51.5q-2 6 2 24q6 31 7 34l-37 231q-7 35 31 62q33 23 64 23q7 0 28 -13q-2 -28 -22.5 -67.5t-20.5 -62.5q0 -33 21 -103q27 -92 63 -92q37 0 57 97q15 69 15 132q0 41 -8 62.5t-8 37.5q0 14 18 33t33 19
h18q24 -35 24 -126zM108 615q0 -1 73 -51.5t71 -52.5q3 -3 3 -8q0 -8 -8 -16t-18 -7l-167 71q-18 3 -16 19q4 24 22.5 36.5t24.5 12.5q7 0 15 -4z" />
    <glyph glyph-name="ucircumflex" unicode="&#xfb;" horiz-adv-x="381" 
d="M325 360q0 -98 -26 -203q-42 -168 -130 -168q-32 0 -75 28.5t-54 51.5q-2 6 2 24q6 31 7 34l-37 231q-7 35 31 62q33 23 64 23q7 0 28 -13q-2 -28 -22.5 -67.5t-20.5 -62.5q0 -33 21 -103q27 -92 63 -92q37 0 57 97q15 69 15 132q0 41 -8 60t-8 34q0 14 18 33t33 19h18
q24 -35 24 -120zM283 525q4 -3 4 -8q0 -8 -8.5 -16t-18.5 -8l-111 61l-111 -61q-10 0 -18.5 8t-8.5 16q0 5 4 8q-2 2 52 41t54 40q23 12 29 9q3 1 29 -12q0 -1 53 -38.5t51 -39.5z" />
    <glyph glyph-name="udieresis" unicode="&#xfc;" horiz-adv-x="381" 
d="M325 360q0 -98 -26 -203q-42 -168 -130 -168q-32 0 -75 28.5t-54 51.5q-2 6 2 24q6 31 7 34l-37 231q-7 35 31 62q33 23 64 23q7 0 28 -13q-2 -28 -22.5 -67.5t-20.5 -62.5q0 -33 21 -103q27 -92 63 -92q37 0 57 97q15 69 15 132q0 41 -11.5 58t-11.5 32t18 34t34 19h18
q30 -45 30 -117zM183 551q0 19 12.5 32t30.5 13t30.5 -13t12.5 -32q0 -18 -12.5 -31.5t-30.5 -13.5t-30.5 13.5t-12.5 31.5zM33 548q0 19 12.5 32t30.5 13t30.5 -13t12.5 -32q0 -18 -12.5 -31t-30.5 -13t-30.5 13t-12.5 31z" />
    <glyph glyph-name="dagger" unicode="&#x2020;" horiz-adv-x="287" 
d="M24 586h66v112q0 26 26 26h12q26 0 26 -26v-112h72q26 0 26 -26v-11q0 -26 -26 -26h-72v-545q0 -26 -26 -26h-12q-26 0 -26 26v545h-66q-26 0 -26 26v11q0 26 26 26z" />
    <glyph glyph-name="degree" unicode="&#xb0;" horiz-adv-x="287" 
d="M114 680q46 0 78 -33t32 -80q0 -46 -32 -79.5t-78 -33.5t-78 33.5t-32 79.5q0 47 32 80t78 33zM114 630q-25 0 -42.5 -18t-17.5 -45q0 -26 17.5 -44.5t42.5 -18.5q24 0 42 18.5t18 44.5q0 27 -18 45t-42 18z" />
    <glyph glyph-name="cent" unicode="&#xa2;" horiz-adv-x="415" 
d="M228 153v-52q0 -18 -20 -20l-31 -3q-8 -1 -11.5 6.5t-3.5 16.5v65q-68 27 -111 94q-41 63 -41 132q0 75 41.5 123t116.5 58l-6 68q-2 14 20 20l25 6q7 2 13 -4.5t7 -15.5l1 -70q78 -17 131 -69q4 -5 4 -12q0 -17 -21 -34t-38 -17q-9 0 -13 5q-22 35 -66 35
q-116 0 -124 -81q-5 -49 28 -97q36 -55 91 -55q13 0 40.5 11t39.5 21q29 6 49 -22q18 -24 14 -41q-25 -28 -61 -47q-40 -22 -74 -21z" />
    <glyph glyph-name="sterling" unicode="&#xa3;" horiz-adv-x="489" 
d="M36 338h35q-6 14 -35 60q-19 31 -19 47q0 67 48 117q58 62 164 62h36q43 0 83 -16q51 -20 51 -57q0 -18 -17.5 -36t-30.5 -18l-32 17.5t-67 17.5q-59 0 -101 -35q-38 -31 -38 -66q0 -19 13 -30t32 -63h127q27 0 28 -23l3 -40q2 -18 -31 -18h-103q5 -104 -36 -158
q19 -27 66 -27q46 0 111 38.5t73 38.5q13 0 25.5 -20.5t12.5 -29.5q0 -67 -28 -101q-27 0 -56.5 6.5t-32.5 6.5q-6 0 -94 -9.5t-95 -9.5q-30 0 -66 17t-36 35q0 6 4 11q68 84 68 165q0 19 -4 37h-58q-26 0 -28 23l-3 35q-2 23 31 23z" />
    <glyph glyph-name="section" unicode="&#xa7;" horiz-adv-x="25" 
 />
    <glyph glyph-name="bullet" unicode="&#x2022;" horiz-adv-x="383" 
d="M55 250q0 51 36 87t87 36t86.5 -36t35.5 -87t-35.5 -86.5t-86.5 -35.5t-87 35.5t-36 86.5z" />
    <glyph glyph-name="germandbls" unicode="&#xdf;" horiz-adv-x="572" 
d="M513 80q0 -72 -52 -139q-64 -83 -168 -83h-35q-43 0 -96 23q-64 28 -64 65q0 28 46 28l50 -24t84 -24q72 0 116 65q35 51 35 104q0 39 -85 89q-46 23 -91 45q-1 4 -1 8q0 23 44 72q72 82 75 87q-10 14 -60 14q-12 0 -62 2q-38 1 -54 -1q-4 -4 -9 -8.5t-20 -4.5
q-10 -4 -13 -45l-4 -92q-3 -39 -5 -59q-4 -36 -12 -62q-10 -31 -53 -107q-47 -83 -64 -83q-6 0 -12 9.5t-6 13.5t37 106t37 111q1 38 2 62l1 20q0 143 2 66q-2 67 -15 99q-3 5 -35 46q-23 29 -23 67q0 64 64 85q36 11 114 11q15 -11 17 -80q-9 -5 -55 -9q-32 -3 -32 -27
t29 -41q14 0 42 -4t43 -4q6 0 84.5 4.5t84.5 4.5q34 0 66 -18.5t32 -44.5q0 -48 -136 -161q85 -54 118 -92q39 -43 39 -94z" />
    <glyph glyph-name="registered" unicode="&#xae;" horiz-adv-x="425" 
d="M357 504q0 -73 -51.5 -125t-123.5 -52q-73 0 -124.5 52.5t-51.5 126.5q0 73 51.5 124.5t124.5 51.5t124 -52t51 -126zM266 410h-38l-57 86h-26v-86h-33v195h82q4 4 33 -5q34 -12 38 -45q5 -47 -55 -59zM233 557q0 21 -39 21h-51v-44h56q23 0 23 -1q11 4 11 24zM182 650
q-62 1 -103 -41.5t-41 -104.5q0 -60 43 -103t101 -43t100.5 43t42.5 103q0 61 -42 103t-101 43z" />
    <glyph glyph-name="copyright" unicode="&#xa9;" horiz-adv-x="814" 
d="M366 -16q-147 0 -249.5 103t-102.5 251t102.5 251.5t249.5 103.5t250 -103.5t103 -251.5q0 -147 -103 -250.5t-250 -103.5zM366 630q-118 0 -204 -85t-86 -207q0 -121 86 -206t204 -85t204 85t86 206q0 122 -86 207t-204 85zM480 402q-24 81 -104 81q-62 0 -98.5 -41
t-36.5 -103q0 -57 32 -97q37 -45 101 -45q84 0 107 79h63q-34 -142 -169 -142q-90 0 -143.5 58.5t-53.5 148.5q0 87 55 146.5t143 59.5q62 0 107 -36q48 -39 62 -109h-65z" />
    <glyph glyph-name="trademark" unicode="&#x2122;" horiz-adv-x="492" 
d="M382 472v161l-64 -161h-21l-60 156v-156h-33v201h50l54 -137l55 137h51v-201h-32zM98 639v-167h-33v167h-66v34h163v-34h-64z" />
    <glyph glyph-name="acute" unicode="&#xb4;" horiz-adv-x="395" 
d="M244 819q0 -1 -72.5 -51.5t-71.5 -51.5q-3 -3 -3 -8q0 -9 8 -17t18 -7l167 71q18 4 16 19q-3 24 -22 36.5t-25 12.5q-7 0 -15 -4z" />
    <glyph glyph-name="dieresis" unicode="&#xa8;" horiz-adv-x="337" 
d="M187 755q0 18 12.5 31t30.5 13t30.5 -13t12.5 -31q0 -19 -12.5 -32t-30.5 -13t-30.5 13t-12.5 32zM37 752q0 18 12.5 31t30.5 13t30.5 -13t12.5 -31q0 -19 -12.5 -32t-30.5 -13t-30.5 13t-12.5 32z" />
    <glyph glyph-name="AE" unicode="&#xc6;" horiz-adv-x="920" 
d="M367 0q-21 -5 -37 -5q-21 0 -34 16.5t-13 35.5q0 36 38 47q49 12 61 32q8 14 11 72l-2 51q-1 13 2 40q-4 28 -25 28q-139 0 -163 -7q-7 -39 -21 -185q-7 -78 -31 -104q-30 -33 -117 -33q-31 0 -44 8q-17 11 -17 40q0 33 10 47t41 14q3 0 11.5 -3.5t13.5 -3.5q36 0 49 34
q8 24 8 85v29q0 101 22 152q58 138 98 178q-9 5 -73 22q-36 9 -36 42q0 32 42 32q3 0 53 -10q55 -12 80 -16q89 19 105 15q133 5 148 4q21 -4 24 -4q25 0 71.5 17.5t77.5 17.5q40 0 85 -30q52 -34 52 -81q0 -14 -9 -29q-10 -18 -25 -18q-4 0 -55.5 27.5t-90.5 27.5
q-44 0 -83 -7q-76 -14 -78 -49q-1 1 -6 -18q-8 -35 -10 -115q30 -17 56 -17q4 0 57 8t57 8q45 0 45 -24q0 -12 -19 -42q-21 -33 -37 -33q-3 0 -23.5 4.5t-24.5 4.5q-51 0 -117 -16q3 -21 3 -42q0 -27 -6 -65q-5 -34 -4 -45q16 -33 64.5 -36.5t56.5 -16.5q64 1 114 15
q30 9 64 26q26 13 34 13q12 0 34 -16t22 -27q0 -41 -70 -74q-58 -26 -97 -26q-9 0 -9 2l-277 11q-3 1 -22.5 -4.5t-26.5 -5.5q-5 0 -7 2zM405 544q0 24 -10 24q-55 0 -103 -57q-39 -46 -60 -109l-7 -21h153q21 0 26 73q1 15 1 90z" />
    <glyph glyph-name="Oslash" unicode="&#xd8;" horiz-adv-x="626" 
d="M240 -7q-63 0 -125 51q-15 -22 -30 -45q-26 -38 -32 -40h-10l-21 13l68 98q-37 47 -62 107q-27 65 -27 120q0 81 1 91q4 62 27 85q64 64 150 193q8 12 21 12q22 0 57 -25l-42 -69q91 46 113 46q74 0 128 -33q17 26 35 52q31 46 37 47h10l21 -13l-76 -109q90 -97 90 -276
q0 -133 -101 -221q-97 -84 -232 -84zM332 581q-13 0 -33 -11t-20 -23v-26q14 2 26 2q49 0 70 -43l46 66q-41 35 -89 35zM443 517l-263 -379q50 -47 129 -47t131 81q45 71 45 155q0 107 -42 190zM207 476q0 5 -2 24q-1 13 1 24l6 34q-34 -18 -67 -94q-31 -72 -31 -115
q0 -98 44 -182l155 224q-36 7 -67 28q-39 25 -39 57z" />
    <glyph glyph-name="plusminus" unicode="&#xb1;" 
 />
    <glyph glyph-name="yen" unicode="&#xa5;" horiz-adv-x="531" 
d="M295 255v-78h140q15 0 15 -15v-32q0 -15 -15 -15h-136q2 -32 2 -36q0 -12 4.5 -32t4.5 -30q1 -21 -48 -21q-3 0 -17 -5t-16 -5q-30 -7 -30 20q0 -1 4 32q4 38 7 77h-131q-15 0 -15 15v32q0 15 15 15h135q3 40 3 78h-138q-15 0 -15 15v32q0 15 15 15h135q-10 66 -49 152
q-35 78 -47 81q-16 4 -60 16q-56 20 -56 45q0 23 59 46q49 20 66 20q41 0 92 -129q15 -47 50 -138q24 25 49 79q31 67 31 120q0 20 -4 36q-4 14 32 20q24 3 50 3q22 0 42 -8q25 -12 25 -31q0 -21 -77 -136q-83 -123 -106 -176h124q15 0 15 -15v-32q0 -15 -15 -15h-140z" />
    <glyph glyph-name="mu" unicode="&#xb5;" horiz-adv-x="648" 
d="M30 204l75 68q-4 18 -4 22l16 191q-2 57 -35 92q-16 16 -59 41q-32 18 -33 34q-1 23 17 24q141 -25 156 -24q27 1 50.5 14.5t30.5 14.5q11 0 25.5 -13t14.5 -23q1 -19 -27.5 -49t-30.5 -52q-4 -62 -10 -172l184 168q3 2 6 2q7 0 14 -9t7 -18l2 -46q0 -9 -8.5 -15
t-16.5 -12l-192 -175q3 -94 19 -133q2 -5 116.5 -20.5t140.5 -15.5q20 1 55 17t42 16q24 1 25 -22q0 -2 -11 -42t-13 -56q-15 -14 -32 -15q-47 -1 -158 24t-158 24q-33 -1 -68.5 -18.5t-40.5 -18.5q-18 0 -20 36l9 138l-85 -78q-2 -2 -4 -2q-7 0 -15 17t-8 28l-2 31
q0 8 8.5 14.5t17.5 12.5z" />
    <glyph glyph-name="mu" unicode="&#x3bc;" horiz-adv-x="648" 
d="M30 204l75 68q-4 18 -4 22l16 191q-2 57 -35 92q-16 16 -59 41q-32 18 -33 34q-1 23 17 24q141 -25 156 -24q27 1 50.5 14.5t30.5 14.5q11 0 25.5 -13t14.5 -23q1 -19 -27.5 -49t-30.5 -52q-4 -62 -10 -172l184 168q3 2 6 2q7 0 14 -9t7 -18l2 -46q0 -9 -8.5 -15
t-16.5 -12l-192 -175q3 -94 19 -133q2 -5 116.5 -20.5t140.5 -15.5q20 1 55 17t42 16q24 1 25 -22q0 -2 -11 -42t-13 -56q-15 -14 -32 -15q-47 -1 -158 24t-158 24q-33 -1 -68.5 -18.5t-40.5 -18.5q-18 0 -20 36l9 138l-85 -78q-2 -2 -4 -2q-7 0 -15 17t-8 28l-2 31
q0 8 8.5 14.5t17.5 12.5z" />
    <glyph glyph-name="ordfeminine" unicode="&#xaa;" horiz-adv-x="545" 
d="M503 92q0 -23 -55 -59q-50 -33 -65 -33q-262 8 -321 -2q-58 0 -58 33q0 14 172.5 247.5t172.5 272.5q0 18 -25 15q-23 3 -74 15q-47 12 -50 12q-28 0 -82.5 -26.5l-54.5 -26.5q-13 0 -22 22q-7 17 -7 26q0 86 156 86q68 0 107 -12.5t61 -12.5q3 0 42 11t42 11
q14 0 22.5 -14.5t8.5 -29.5q0 -48 -82 -182q-51 -82 -154 -227q-83 -117 -83 -123q0 -15 37 -17q-32 1 39.5 1t127.5 18q36 12 69 33q28 18 33 18q21 0 34 -26q9 -18 9 -30zM87 790q-4 3 -4 8q0 9 8.5 17t18.5 7l141 -60l141 60q10 1 18.5 -7t8.5 -17q0 -5 -4 -8
q2 -1 -67 -40.5t-69 -40.5q-23 -11 -29 -9q-3 -1 -29 12q0 1 -68 39t-66 39z" />
    <glyph glyph-name="ordmasculine" unicode="&#xba;" horiz-adv-x="426" 
d="M383 52q0 -25 -13 -33q-9 -7 -35 -7q-14 0 -42 3.5t-42 3.5q-29 0 -86.5 -9.5t-85.5 -9.5q-57 0 -57 37q0 11 103.5 138.5t101.5 155.5q-14 15 -26 14l-153 -15q-38 -4 -38 36q0 60 62 60q15 0 45 -4.5t45 -4.5q14 0 43 4.5t43 4.5q34 0 64 -6q47 -10 47 -32
q0 -36 -90.5 -150t-90.5 -140q0 -5 8 -8t12 -2q41 6 81 13q51 8 81 8q11 0 18 -24q5 -18 5 -33zM69 555q-4 3 -4 8q0 8 8.5 16t18.5 7l90 -38l88 36q10 0 18 -8t8 -16q0 -5 -3 -8q2 -2 -40.5 -28.5t-42.5 -27.5q-23 -12 -29 -9q-3 -1 -29 12q0 1 -42.5 27.5t-40.5 28.5z" />
    <glyph glyph-name="ae" unicode="&#xe6;" horiz-adv-x="602" 
d="M243 154q-4 17 -7 36q-25 29 -67 29q-26 0 -55 -14q-38 -18 -38 -46q0 -20 20.5 -40.5t41.5 -20.5q14 0 49 14q46 19 56 42zM568 311q0 -23 -117.5 -69.5t-117.5 -73.5q0 -8 10 -24q16 -26 104 -112q0 -14 -11.5 -29.5t-25.5 -15.5q-6 0 -15 4q-21 0 -67.5 32.5
t-56.5 32.5q1 0 -45 -25t-79 -25q-139 0 -139 147q0 52 21 90q27 47 78 47q3 0 49 -7.5t50 -7.5q28 0 28 26q0 35 -52 47q-49 7 -97 14q-53 10 -53 41q0 48 48 48q36 0 99 -22q67 -25 95 -52q42 62 113 62q53 0 113 -36q68 -41 68 -92zM444 314q0 14 -25 27q-21 11 -37 11
q-54 0 -52 -82q5 -11 18 -11q7 0 49 20q47 22 47 35z" />
    <glyph glyph-name="oslash" unicode="&#xf8;" horiz-adv-x="411" 
d="M120 161l108 180q-9 3 -18 3q-125 0 -125 -84q0 -25 35 -99zM267 318l-120 -201q14 -17 27 -17q45 0 85 58q35 52 35 90q0 40 -27 70zM304 452h1q10 0 19 -6.5t9 -14.5q0 -3 -2 -5l-25 -42q74 -49 74 -113q0 -74 -56 -162q-61 -97 -131 -97q-44 0 -87 36l-25 -42
q-16 -26 -26 -26h-1q-10 0 -19 6.5t-9 13.5q0 3 2 6l45 75q-33 38 -53 84.5t-20 79.5q0 84 46.5 134t133.5 50q38 0 87 -22l11 19q16 26 26 26z" />
    <glyph glyph-name="questiondown" unicode="&#xbf;" horiz-adv-x="393" 
d="M103 -63q0 -45 38 -45q46 0 84 29q24 19 50 55q20 29 25 29q26 0 39 -26q11 -21 11 -50q0 -40 -86 -80q-76 -36 -124 -36q-55 0 -94.5 34.5t-39.5 89.5q0 50 48 110q44 49 88 99q48 59 48 108q0 16 32 16q39 0 39 -59q0 -50 -41 -97q-38 -40 -76 -79q-41 -48 -41 -98z
M171 379q0 25 21 57.5t45 32.5q18 0 29 -31q10 -26 10 -47q0 -33 -12 -56q-15 -30 -44 -30q-49 0 -49 74z" />
    <glyph glyph-name="exclamdown" unicode="&#xa1;" horiz-adv-x="195" 
d="M112 -177l-85 -10q-8 -1 -14.5 5.5t-5.5 14.5q15 101 24 229.5t6 203.5q1 20 20 20h15q19 0 20 -20q13 -100 27 -200q17 -140 13 -223q0 -17 -20 -20zM13 403q0 24 21 56.5t45 32.5q17 0 29 -31q10 -25 10 -47q0 -33 -12 -56q-15 -30 -44 -30q-49 0 -49 75z" />
    <glyph glyph-name="logicalnot" unicode="&#xac;" 
 />
    <glyph glyph-name="florin" unicode="&#x192;" 
 />
    <glyph glyph-name="guillemotleft" unicode="&#xab;" horiz-adv-x="362" 
d="M286 164q-15 -15 -26 0l-117 164q-4 6 -4 12q-1 6 4 13l117 164q11 15 26 1q18 -19 18 -25t-6 -15l-88 -137q30 -48 89 -142q5 -7 5 -12t-18 -23zM146 164q-15 -15 -26 0l-117 164q-4 6 -4 12q-1 6 4 13l117 164q11 15 26 1q18 -19 18 -25t-6 -15l-88 -137
q30 -48 89 -142q5 -7 5 -12t-18 -23z" />
    <glyph glyph-name="guillemotright" unicode="&#xbb;" horiz-adv-x="362" 
d="M297 328l-116 -164q-11 -15 -26 0q-18 18 -18 23t7 17l87 137l-88 137q-6 9 -6 15t18 25q15 14 26 -1l116 -164q5 -7 5 -14q-1 -5 -5 -11zM157 328l-116 -164q-11 -15 -26 0q-18 18 -18 23t7 17l87 137l-88 137q-6 9 -6 15t18 25q15 14 26 -1l116 -164q5 -7 5 -14
q-1 -5 -5 -11z" />
    <glyph glyph-name="ellipsis" unicode="&#x2026;" horiz-adv-x="782" 
d="M425 93q0 -24 -19 -55q-22 -35 -46 -35q-18 0 -30 31q-10 25 -10 48q0 32 12 56q15 30 45 30q48 0 48 -75zM725 93q0 -24 -19 -55q-22 -35 -46 -35q-18 0 -30 31q-10 25 -10 48q0 32 12 56q15 30 45 30q48 0 48 -75zM125 93q0 -24 -19 -55q-22 -35 -46 -35q-18 0 -30 31
q-10 25 -10 48q0 32 12 56q15 30 45 30q48 0 48 -75z" />
    <glyph glyph-name="nonbreakingspace" unicode="&#xa0;" horiz-adv-x="228" 
 />
    <glyph glyph-name="Agrave" unicode="&#xc0;" horiz-adv-x="636" 
d="M614 58q0 -24 -18.5 -38.5t-39.5 -14.5q-4 0 -49.5 8t-49.5 8q-5 0 -64 -13t-63 -13q-21 0 -34 16.5t-13 35.5q0 36 38 47q49 12 61 32q17 28 17 127q0 35 -2 41q-5 23 -29 23q-139 0 -163 -7q-7 -39 -21 -185q-7 -78 -31 -104q-30 -33 -117 -33q-31 0 -44 8
q-17 11 -17 40q0 33 10 47t41 14q3 0 11.5 -3.5t13.5 -3.5q36 0 49 34q8 24 8 85v29q0 101 22 152q58 138 98 178q-9 5 -73 22q-36 9 -36 42q0 32 42 32q3 0 53 -10q55 -12 80 -16l220 45q3 1 6 1q11 0 20.5 -14t9.5 -24t-14 -29q-19 -26 -21 -29q-18 -35 -26 -84
q-5 -40 -10 -79l-3 -222q0 -73 36 -93q7 -4 66 -11q36 -5 36 -41zM418 553q0 5 -7.5 10t-15.5 5q-59 0 -111 -54.5t-52 -111.5v-20q-13 -1 146 -1q21 0 32 74q8 52 8 98zM279 819q0 -1 72.5 -51.5t71.5 -51.5q3 -3 3 -8q0 -9 -8 -17t-18 -7l-167 71q-18 4 -16 19
q3 24 22 36.5t25 12.5q7 0 15 -4z" />
    <glyph glyph-name="Atilde" unicode="&#xc3;" horiz-adv-x="636" 
d="M614 58q0 -24 -18.5 -38.5t-39.5 -14.5q-4 0 -49.5 8t-49.5 8q-5 0 -64 -13t-63 -13q-21 0 -34 16.5t-13 35.5q0 36 38 47q49 12 61 32q17 28 17 127q0 35 -2 41q-5 23 -29 23q-139 0 -163 -7q-7 -39 -21 -185q-7 -78 -31 -104q-30 -33 -117 -33q-31 0 -44 8
q-17 11 -17 40q0 33 10 47t41 14q3 0 11.5 -3.5t13.5 -3.5q36 0 49 34q8 24 8 85v29q0 101 22 152q58 138 98 178q-9 5 -73 22q-36 9 -36 42q0 32 42 32q3 0 53 -10q55 -12 80 -16l220 45q3 1 6 1q11 0 20.5 -14t9.5 -24t-14 -29q-19 -26 -21 -29q-18 -35 -26 -84
q-5 -40 -10 -79l-3 -222q0 -73 36 -93q7 -4 66 -11q36 -5 36 -41zM418 553q0 5 -7.5 10t-15.5 5q-59 0 -111 -54.5t-52 -111.5v-20q-13 -1 146 -1q21 0 32 74q8 52 8 98zM182 746q18 33 25 33q3 0 22 9t19.5 9t15.5 3t26 3t17 -3q42 -21 57 -25q10 -3 34 -3q17 0 31 11
q3 3 13 23q21 8 24 5l13.5 -3t13.5 -8q0 -2 -3.5 -6t-20.5 -28q-17 -15 -40 -34q-29 -3 -61 -11q-2 -1 -5 -1q-12 0 -53 12q-30 23 -30 20q0 -1 -17 -1h-1q-18 0 -19 -2q-4 -2 -24 -25q-35 4 -37 22z" />
    <glyph glyph-name="Otilde" unicode="&#xd5;" horiz-adv-x="593" 
d="M232 -8q-93 0 -166 108q-67 97 -67 198q0 82 10 122q13 53 56 104q73 89 105 139q9 13 22 13q27 0 62 -27l-33 -56q72 37 109 37q116 0 176 -111q49 -91 49 -220t-98 -219q-94 -88 -225 -88zM320 575q-19 0 -33 -11q-16 -14 -12 -36l24 1q67 4 67 -75q0 -60 -58 -60
q-34 0 -73 27t-39 58q0 9 3.5 27.5t2.5 27.5v17q-29 -16 -59 -96q-27 -72 -27 -108q0 -104 37 -169q47 -82 145 -82q74 0 123 82q41 71 41 149q0 92 -26 156q-36 92 -116 92zM291 722q-24 0 -67 17t-66 17q-10 0 -21 -11.5t-18 -11.5q-14 0 -17 14l-6 3q3 -1 5 -1q1 0 2 3
q14 26 29 34q25 13 41 13q28 0 69 -16t66 -16q29 0 48 35l17 5q8 -1 23 -9l-40 -54q-19 -22 -65 -22z" />
    <glyph glyph-name="OE" unicode="&#x152;" horiz-adv-x="952" 
d="M308 534q-9 0 -25 -7q-19 -9 -19 -20v-19q11 1 21 1q67 0 67 -71q0 -57 -56 -57q-5 0 -15 2t-13 2q-17 2 -46 27q-26 22 -29 33q-4 11 2 58q2 12 0 28q-25 -13 -57 -81t-32 -106q0 -78 32 -141q45 -86 136 -86h13q57 0 98 48q32 38 49 98l-2 8q3 21 11 57q0 75 -20 132
q-34 94 -115 94zM442 0l-35 29l15 34q-92 -64 -197 -64q-90 0 -159 98q-63 89 -63 182q0 98 49 187q29 53 110 148q83 99 116 157q10 -7 18 -32q7 -21 7 -37q0 -29 -35 -77q-27 -36 -55 -73q23 11 45 21q31 13 46 13q61 0 101.5 -21.5t75.5 -72.5q-5 52 -23 81
q-11 17 -32.5 33t-25.5 29q0 20 15 33t35 13q25 0 78.5 -16t78.5 -16q27 0 75.5 18t74.5 18q43 0 86 -31q46 -34 46 -75q0 -10 -10 -26t-19 -16q-3 0 -56.5 27.5t-89.5 27.5q-49 0 -97 -13q-69 -17 -69 -50v-139q27 -14 45 -14q19 0 57 8t57 8q40 0 40 -19q0 -62 -61 -62
h-19q-13 1 -19 1q-41 0 -117 -15v-16q1 -24 -5.5 -70t-6.5 -68q0 -44 37 -56q19 -7 74 -7q60 0 116 18t111 37l51 -38q0 -41 -66 -69q-54 -24 -101 -24z" />
    <glyph glyph-name="oe" unicode="&#x153;" horiz-adv-x="657" 
d="M210 344q-125 0 -125 -84q0 -18 28 -83q33 -77 61 -77q42 0 82 54q38 51 38 94q0 37 -23 65q-26 31 -61 31zM628 311q0 -23 -117.5 -69.5t-117.5 -73.5q0 -8 10 -24q16 -26 104 -112q0 -14 -11.5 -29.5t-25.5 -15.5q-21 0 -81 47q-43 34 -66 73q-61 -95 -130 -95
q-71 0 -135 88q-58 80 -58 145q0 84 46.5 134t133.5 50q31 0 73.5 -16.5t74.5 -44.5q43 71 119 71q53 0 113 -36q68 -41 68 -92zM504 314q0 14 -25 27q-21 11 -37 11q-54 0 -52 -82q5 -11 18 -11q7 0 49 20q47 22 47 35zM294 241v1v11v-5v-7z" />
    <glyph glyph-name="endash" unicode="&#x2013;" horiz-adv-x="391" 
d="M342 266q20 0 20 -20v-32q0 -20 -20 -20h-316q-20 0 -20 20v32q0 20 20 20h316z" />
    <glyph glyph-name="emdash" unicode="&#x2014;" horiz-adv-x="714" 
d="M656 266q20 0 20 -20v-32q0 -20 -20 -20h-636q-20 0 -20 20v32q0 20 20 20h636z" />
    <glyph glyph-name="quotedblleft" unicode="&#x201c;" horiz-adv-x="328" 
d="M157 486q0 47 24 114q28 75 58 75t33 -33q-23 -12 -37.5 -38.5t-14.5 -49.5q25 -19 32 -31q13 -20 13 -56q0 -22 -13 -42q-15 -23 -37 -23q-58 0 -58 84zM0 489q0 47 25 114q28 75 57 75q30 0 34 -33q-24 -13 -41 -37.5t-16 -47.5q26 -19 34 -32q15 -22 15 -58
q0 -22 -13 -42q-15 -23 -37 -23q-58 0 -58 84z" />
    <glyph glyph-name="quotedblright" unicode="&#x201d;" horiz-adv-x="328" 
d="M116 594q0 -47 -25 -114q-28 -75 -58 -75q-29 0 -33 33q23 12 38 38t14 50q-25 19 -32 30q-13 20 -13 56q0 22 14 44t37 22q58 0 58 -84zM272 591q0 -48 -25 -114q-27 -75 -57 -75t-33 33q23 12 40 36.5t17 47.5q-26 20 -35 32q-15 22 -15 58q0 22 13 42q15 24 37 24
q58 0 58 -84z" />
    <glyph glyph-name="quoteleft" unicode="&#x2018;" horiz-adv-x="191" 
d="M4 481q0 47 25 114q28 75 58 75t33 -33q-23 -12 -37.5 -38t-14.5 -50q25 -19 32 -30q13 -20 13 -57q0 -22 -13 -42q-15 -23 -37 -23q-59 0 -59 84z" />
    <glyph glyph-name="quoteright" unicode="&#x2019;" horiz-adv-x="191" 
d="M120 586q0 -47 -25 -114q-27 -75 -57 -75t-34 33q23 12 38 38t15 50q-25 19 -32 30q-13 20 -13 57q0 22 14 43.5t36 21.5q58 0 58 -84z" />
    <glyph glyph-name="divide" unicode="&#xf7;" horiz-adv-x="17" 
 />
    <glyph glyph-name="ydieresis" unicode="&#xff;" horiz-adv-x="360" 
d="M317 396l-66 -146l-42 -118q-50 -126 -105 -203q-77 -107 -155 -107q-47 0 -39 31q6 24 61 71q69 59 97 98q50 69 50 155q0 42 -27 96q-17 35 -49 83q-27 39 -27 43q0 19 34 19q46 0 72 -42q23 -47 47 -94l4 -24q17 26 51 113q21 53 50 53q9 0 26.5 -8.5t17.5 -19.5z
M190 534q0 19 12.5 32t30.5 13t30.5 -13t12.5 -32q0 -18 -12.5 -31.5t-30.5 -13.5t-30.5 13.5t-12.5 31.5zM40 531q0 19 12.5 32t30.5 13t30.5 -13t12.5 -32q0 -18 -12.5 -31t-30.5 -13t-30.5 13t-12.5 31z" />
    <glyph glyph-name="Ydieresis" unicode="&#x178;" horiz-adv-x="510" 
d="M514 698q0 -17 -56 -107q-77 -124 -103 -175q-56 -107 -56 -165v-88q0 -3 3 -44t3 -45q0 -47 -12 -62q-15 -17 -65 -17q-3 0 -20 -3.5t-27 -3.5q-25 0 -25 20q0 -3 16 39q19 48 30 97q16 69 16 133q0 65 -45 171q-41 98 -58 103l-60 15q-52 19 -52 40q0 22 56 43
q47 18 64 18q38 0 84 -102q25 -62 51 -123q27 2 71 72q47 75 47 138q0 16 -4 30q-2 9 30.5 23.5t51.5 14.5q31 0 38 -1q22 -4 22 -21zM277 755q0 18 12.5 31t30.5 13t30.5 -13t12.5 -31q0 -19 -12.5 -32t-30.5 -13t-30.5 13t-12.5 32zM127 752q0 18 12.5 31t30.5 13
t30.5 -13t12.5 -31q0 -19 -12.5 -32t-30.5 -13t-30.5 13t-12.5 32z" />
    <glyph glyph-name="currency" unicode="&#xa4;" horiz-adv-x="17" 
 />
    <glyph glyph-name="guilsinglleft" unicode="&#x2039;" horiz-adv-x="215" 
d="M166 477l-86 -136l88 -138q6 -9 6 -15t-18 -24q-15 -15 -26 0l-117 164q-5 7 -4 14q0 5 4 11l117 164q11 15 26 1q18 -18 18 -24q0 -5 -8 -17z" />
    <glyph glyph-name="guilsinglright" unicode="&#x203a;" horiz-adv-x="215" 
d="M167 328l-116 -164q-11 -15 -26 0q-18 18 -18 24t6 15l88 138q-31 47 -90 141q-4 7 -4 12q0 6 18 24q15 14 26 -1l116 -164q4 -6 5 -11q0 -7 -5 -14z" />
    <glyph glyph-name="daggerdbl" unicode="&#x2021;" horiz-adv-x="19" 
 />
    <glyph glyph-name="periodcentered" unicode="&#xb7;" horiz-adv-x="247" 
d="M38 296q0 27 19 46t46 19t46 -19t19 -46t-19 -46t-46 -19t-46 19t-19 46z" />
    <glyph glyph-name="periodcentered" unicode="&#x2219;" horiz-adv-x="247" 
d="M38 296q0 27 19 46t46 19t46 -19t19 -46t-19 -46t-46 -19t-46 19t-19 46z" />
    <glyph glyph-name="quotesinglbase" unicode="&#x201a;" horiz-adv-x="191" 
d="M116 84q0 -47 -25 -114q-28 -75 -58 -75q-29 0 -33 33q23 12 38 38t14 50q-25 19 -32 30q-13 20 -13 56q0 22 14 44t37 22q58 0 58 -84z" />
    <glyph glyph-name="quotedblbase" unicode="&#x201e;" horiz-adv-x="302" 
d="M116 84q0 -47 -25 -114q-28 -75 -58 -75q-29 0 -33 33q23 12 38 38t14 50q-25 19 -32 30q-13 20 -13 56q0 22 14 44t37 22q58 0 58 -84zM272 81q0 -48 -25 -114q-27 -75 -57 -75t-33 33q23 12 40 36.5t17 47.5q-26 20 -35 32q-15 22 -15 58q0 22 13 42q15 24 37 24
q58 0 58 -84z" />
    <glyph glyph-name="perthousand" unicode="&#x2030;" horiz-adv-x="19" 
 />
    <glyph glyph-name="Acircumflex" unicode="&#xc2;" horiz-adv-x="636" 
d="M614 58q0 -24 -18.5 -38.5t-39.5 -14.5q-4 0 -49.5 8t-49.5 8q-5 0 -64 -13t-63 -13q-21 0 -34 16.5t-13 35.5q0 36 38 47q49 12 61 32q17 28 17 127q0 35 -2 41q-5 23 -29 23q-139 0 -163 -7q-7 -39 -21 -185q-7 -78 -31 -104q-30 -33 -117 -33q-31 0 -44 8
q-17 11 -17 40q0 33 10 47t41 14q3 0 11.5 -3.5t13.5 -3.5q36 0 49 34q8 24 8 85v29q0 101 22 152q58 138 98 178q-9 5 -73 22q-36 9 -36 42q0 32 42 32q3 0 53 -10q55 -12 80 -16l220 45q3 1 6 1q11 0 20.5 -14t9.5 -24t-14 -29q-19 -26 -21 -29q-18 -35 -26 -84
q-5 -40 -10 -79l-3 -222q0 -73 36 -93q7 -4 66 -11q36 -5 36 -41zM418 553q0 5 -7.5 10t-15.5 5q-59 0 -111 -54.5t-52 -111.5v-20q-13 -1 146 -1q21 0 32 74q8 52 8 98zM499 736q3 -3 3 -8q0 -9 -8 -17t-18 -7l-142 60l-141 -60q-10 -1 -18 7t-8 17q0 5 3 8q-1 1 68 40.5
t69 40.5q23 11 28 9q3 1 29 -12q0 -1 68 -39t67 -39z" />
    <glyph glyph-name="Ecircumflex" unicode="&#xca;" horiz-adv-x="554" 
d="M518 81q0 -42 -70 -74q-58 -27 -97 -27q-9 0 -9 3l-295 -4q-13 0 -26.5 10t-13.5 24q0 4 18 39q22 43 27 56l-19 127q3 27 27 120q21 85 21 118q0 51 -21 82q-11 17 -38 37q-21 15 -21 27q0 23 15.5 37.5t38.5 14.5q4 0 79 -16.5t79 -16.5q25 0 72 18t77 18q40 0 85 -30
q52 -35 52 -81q0 -15 -8 -29q-11 -18 -26 -18q-4 0 -55.5 27.5t-90.5 27.5q-44 0 -83 -7q-76 -14 -78 -49q3 -3 0 -138q23 -12 40 -12q4 0 57.5 8t57.5 8q45 0 45 -24q0 -12 -20 -42q-21 -33 -37 -33q-3 0 -23.5 4.5t-24.5 4.5q-56 0 -130 -18q6 -45 6 -96v-18.5v-16.5
q0 -45 17.5 -59t88.5 -14q70 0 123 15q34 8 68 26q28 14 36 14q12 0 34 -16t22 -27zM419 736q3 -3 3 -8q0 -9 -8 -17t-18 -7l-142 60l-141 -60q-10 -1 -18 7t-8 17q0 5 3 8q-1 1 68 40.5t69 40.5q23 11 28 9q3 1 29 -12q0 -1 68 -39t67 -39z" />
    <glyph glyph-name="Aacute" unicode="&#xc1;" horiz-adv-x="636" 
d="M614 58q0 -24 -18.5 -38.5t-39.5 -14.5q-4 0 -49.5 8t-49.5 8q-5 0 -64 -13t-63 -13q-21 0 -34 16.5t-13 35.5q0 36 38 47q49 12 61 32q17 28 17 127q0 35 -2 41q-5 23 -29 23q-139 0 -163 -7q-7 -39 -21 -185q-7 -78 -31 -104q-30 -33 -117 -33q-31 0 -44 8
q-17 11 -17 40q0 33 10 47t41 14q3 0 11.5 -3.5t13.5 -3.5q36 0 49 34q8 24 8 85v29q0 101 22 152q58 138 98 178q-9 5 -73 22q-36 9 -36 42q0 32 42 32q3 0 53 -10q55 -12 80 -16l220 45q3 1 6 1q11 0 20.5 -14t9.5 -24t-14 -29q-19 -26 -21 -29q-18 -35 -26 -84
q-5 -40 -10 -79l-3 -222q0 -73 36 -93q7 -4 66 -11q36 -5 36 -41zM418 553q0 5 -7.5 10t-15.5 5q-59 0 -111 -54.5t-52 -111.5v-20q-13 -1 146 -1q21 0 32 74q8 52 8 98zM374 819q0 -1 -72.5 -51.5t-71.5 -51.5q-3 -3 -3 -8q0 -9 8 -17t18 -7l167 71q18 4 16 19
q-3 24 -22 36.5t-25 12.5q-7 0 -15 -4z" />
    <glyph glyph-name="Edieresis" unicode="&#xcb;" horiz-adv-x="554" 
d="M518 81q0 -42 -70 -74q-58 -27 -97 -27q-9 0 -9 3l-295 -4q-13 0 -26.5 10t-13.5 24q0 4 18 39q22 43 27 56l-19 127q3 27 27 120q21 85 21 118q0 51 -21 82q-11 17 -38 37q-21 15 -21 27q0 23 15.5 37.5t38.5 14.5q4 0 79 -16.5t79 -16.5q25 0 72 18t77 18q40 0 85 -30
q52 -35 52 -81q0 -15 -8 -29q-11 -18 -26 -18q-4 0 -55.5 27.5t-90.5 27.5q-44 0 -83 -7q-76 -14 -78 -49q3 -3 0 -138q23 -12 40 -12q4 0 57.5 8t57.5 8q45 0 45 -24q0 -12 -20 -42q-21 -33 -37 -33q-3 0 -23.5 4.5t-24.5 4.5q-56 0 -130 -18q6 -45 6 -96v-18.5v-16.5
q0 -45 17.5 -59t88.5 -14q70 0 123 15q34 8 68 26q28 14 36 14q12 0 34 -16t22 -27zM277 755q0 18 12.5 31t30.5 13t30.5 -13t12.5 -31q0 -19 -12.5 -32t-30.5 -13t-30.5 13t-12.5 32zM127 752q0 18 12.5 31t30.5 13t30.5 -13t12.5 -31q0 -19 -12.5 -32t-30.5 -13t-30.5 13
t-12.5 32z" />
    <glyph glyph-name="Egrave" unicode="&#xc8;" horiz-adv-x="554" 
d="M518 81q0 -42 -70 -74q-58 -27 -97 -27q-9 0 -9 3l-295 -4q-13 0 -26.5 10t-13.5 24q0 4 18 39q22 43 27 56l-19 127q3 27 27 120q21 85 21 118q0 51 -21 82q-11 17 -38 37q-21 15 -21 27q0 23 15.5 37.5t38.5 14.5q4 0 79 -16.5t79 -16.5q25 0 72 18t77 18q40 0 85 -30
q52 -35 52 -81q0 -15 -8 -29q-11 -18 -26 -18q-4 0 -55.5 27.5t-90.5 27.5q-44 0 -83 -7q-76 -14 -78 -49q3 -3 0 -138q23 -12 40 -12q4 0 57.5 8t57.5 8q45 0 45 -24q0 -12 -20 -42q-21 -33 -37 -33q-3 0 -23.5 4.5t-24.5 4.5q-56 0 -130 -18q6 -45 6 -96v-18.5v-16.5
q0 -45 17.5 -59t88.5 -14q70 0 123 15q34 8 68 26q28 14 36 14q12 0 34 -16t22 -27zM189 829q0 -1 72.5 -51.5t71.5 -51.5q3 -3 3 -8q0 -9 -8 -17t-18 -7l-167 71q-18 4 -16 19q3 24 22 36.5t25 12.5q7 0 15 -4z" />
    <glyph glyph-name="Iacute" unicode="&#xcd;" horiz-adv-x="252" 
d="M182 341q0 6 -34 -341q-3 -5 -9 -13q-27 -10 -57 -10q-24 0 -37 4q-4 3 -10 6q-4 11 -4 28l48 310q-24 107 -52 192q-16 49 -16 85q0 31 7 44q9 18 38 18q31 0 54 -11q8 -4 13 -12q9 -24 31 -121q28 -121 28 -179zM115 818q0 -1 -73 -51.5t-71 -52.5q-3 -3 -3 -8
q0 -8 8 -16t18 -8l167 72q18 3 16 18q-3 24 -22 37t-25 13q-7 0 -15 -4z" />
    <glyph glyph-name="Icircumflex" unicode="&#xce;" horiz-adv-x="252" 
d="M182 341q0 6 -34 -341q-3 -5 -9 -13q-27 -10 -57 -10q-24 0 -37 4q-4 3 -10 6q-4 11 -4 28l48 310q-24 107 -52 192q-16 49 -16 85q0 31 7 44q9 18 38 18q31 0 54 -11q8 -4 13 -12q9 -24 31 -121q28 -121 28 -179zM199 736q3 -3 3 -8q0 -9 -8 -17t-18 -7l-112 60
l-111 -60q-10 -1 -18 7t-8 17q0 5 3 8q-1 1 53 40.5t54 40.5q23 11 28 9q3 1 29 -12q0 -1 53 -39t52 -39z" />
    <glyph glyph-name="Idieresis" unicode="&#xcf;" horiz-adv-x="252" 
d="M182 341q0 6 -34 -341q-3 -5 -9 -13q-27 -10 -57 -10q-24 0 -37 4q-4 3 -10 6q-4 11 -4 28l48 310q-24 107 -52 192q-16 49 -16 85q0 31 7 44q9 18 38 18q31 0 54 -11q8 -4 13 -12q9 -24 31 -121q28 -121 28 -179zM97 755q0 18 12.5 31t30.5 13t30.5 -13t12.5 -31
q0 -19 -12.5 -32t-30.5 -13t-30.5 13t-12.5 32zM-53 752q0 18 12.5 31t30.5 13t30.5 -13t12.5 -31q0 -19 -12.5 -32t-30.5 -13t-30.5 13t-12.5 32z" />
    <glyph glyph-name="Igrave" unicode="&#xcc;" horiz-adv-x="252" 
d="M182 341q0 6 -34 -341q-3 -5 -9 -13q-27 -10 -57 -10q-24 0 -37 4q-4 3 -10 6q-4 11 -4 28l48 310q-24 107 -52 192q-16 49 -16 85q0 31 7 44q9 18 38 18q31 0 54 -11q8 -4 13 -12q9 -24 31 -121q28 -121 28 -179zM29 829q0 -1 72.5 -51.5t71.5 -51.5q3 -3 3 -8
q0 -9 -8 -17t-18 -7l-167 71q-18 4 -16 19q3 24 22 36.5t25 12.5q7 0 15 -4z" />
    <glyph glyph-name="Oacute" unicode="&#xd3;" horiz-adv-x="626" 
d="M327 848l-2 -4q12 6 22 2q5 -4 15 -11q20 -13 23 -37q2 -13 -14 -16l-183 -78q-22 0 -22 22q0 3 1 4v4q1 -1 1 -2q4 4 21.5 16.5t55.5 38.5l55 38q21 15 27 23zM242 -42h-22q-108 0 -183 121q-61 99 -61 188q0 84 1 94q5 62 28 86q104 109 150 192q8 14 24 14
q25 0 64 -29l-34 -57q59 30 84 37q5 1 15 1h8h7q129 0 190 -124q45 -90 45 -212q0 -129 -100 -222q-95 -89 -216 -89zM312 547q-9 0 -27 -8q-21 -10 -21 -21v-21q12 1 23 1q74 0 74 -78q0 -64 -62 -64q-6 0 -16.5 2.5t-14.5 2.5q-19 2 -49 28t-34 38t3 64q1 13 0 30
q-27 -14 -58 -86.5t-31 -115.5q0 -89 31 -155q45 -97 144 -97h15q83 0 133 89q38 70 38 142q0 82 -21 144q-37 105 -127 105z" />
    <glyph glyph-name="Ocircumflex" unicode="&#xd4;" horiz-adv-x="626" 
d="M444 733v-2q2 -1 2 -4q0 -22 -23 -22l-156 67l-157 -67q-22 0 -22 22q0 3 2 4v3l1 -1q3 3 19.5 12.5t52.5 29.5l52 30q20 12 26 19l-2 -4q23 11 29 9q3 1 11 -3l18 -9l-2 3q6 -7 77 -46q23 -13 68 -39q2 -2 3 -2h1zM242 -41h-22q-108 0 -183 121q-61 99 -61 188
q0 84 1 94q5 62 28 86q104 109 150 192q8 14 24 14q25 0 64 -29l-34 -58q59 30 84 38q5 1 15 1h8h7q129 0 190 -124q45 -90 45 -212q0 -129 -100 -222q-95 -89 -216 -89zM312 548q-9 0 -27 -9q-21 -9 -21 -20v-21q12 1 23 1q74 0 74 -78q0 -64 -62 -64q-6 0 -16.5 2t-14.5 3
q-19 2 -49 28t-34 38t3 64q1 13 0 30q-27 -14 -58 -86.5t-31 -115.5q0 -89 31 -155q45 -98 144 -98h15q83 0 133 90q38 70 38 142q0 82 -21 144q-37 105 -127 105z" />
    <glyph glyph-name="Ograve" unicode="&#xd2;" horiz-adv-x="626" 
d="M336 756v-3q1 -1 1 -5q0 -22 -22 -21l-183 78q-16 3 -14 15q3 25 23 38q4 4 15 11q10 4 22 -2l-2 3q7 -8 82 -60q25 -17 72 -51q3 -3 5 -4zM242 -43h-22q-108 0 -183 132q-61 107 -61 199q0 84 1 99q5 63 28 92q15 16 54 62q53 63 96 141q8 14 24 14q25 0 64 -29l-34 -58
q59 30 84 38q5 1 15 1h8h7q128 0 190 -135q45 -97 45 -223q0 -131 -98.5 -232t-217.5 -101zM312 590q-9 0 -27 -8q-21 -10 -21 -21v-21q12 1 23 1q74 0 74 -78q0 -64 -62 -64q-6 0 -16.5 2t-14.5 3q-19 2 -49 28t-34 38t3 64q1 13 0 30q-26 -14 -57.5 -97t-31.5 -127
q0 -93 31 -166q46 -109 144 -109h15q83 0 133 101q38 78 38 153q0 87 -21 155q-37 116 -127 116z" />
    <glyph glyph-name="Uacute" unicode="&#xda;" horiz-adv-x="547" 
d="M417 546q-11 16 -10 45q1 34 -2 40q-12 29 -48 29q-56 0 -56 -70q0 -30 26 -70q40 -61 50 -82q27 -58 27 -131q0 -226 -141 -232q-80 -4 -118 104q-26 72 -26 162q0 56 17 114q12 40 32 81l17 35q0 28 -33 28q-37 0 -94 -44.5t-60 -81.5l33 -47q-1 -6 8 -81
q10 -81 10 -137q0 -32 -3 -60q0 -3 -14.5 -26.5t-14.5 -31.5q0 -2 1 -3q50 -10 132 -60q70 -44 119 -44q129 0 192 75q53 63 53 172q0 84 -30 176q-28 84 -67 140zM244 819q0 -1 -72.5 -51.5t-71.5 -51.5q-3 -3 -3 -8q0 -9 8 -17t18 -7l167 71q18 4 16 19q-3 24 -22 36.5
t-25 12.5q-7 0 -15 -4z" />
    <glyph glyph-name="Ucircumflex" unicode="&#xdb;" horiz-adv-x="552" 
d="M432 519q-10 17 -10 48.5t-2 37.5q-12 29 -49 29q-56 0 -56 -70q0 -30 23 -64q35 -50 43 -68q23 -52 23 -125q0 -226 -141 -232q-80 -4 -118 104q-26 72 -26 162q0 56 17 114q12 40 32 81l17 35q0 28 -33 28q-37 0 -94 -44.5t-60 -81.5l33 -47q-1 -6 8 -81
q10 -81 10 -137q0 -32 -3 -60q0 -3 -14.5 -26.5t-14.5 -31.5q0 -2 1 -3q50 -10 132 -60q70 -44 119 -44q236 0 236 246q0 79 -26 169q-21 76 -47 121zM396 714q3 -3 3 -8q0 -8 -8 -16t-18 -7l-141 60l-142 -60q-10 -1 -18 7t-8 16q0 5 3 8q-1 2 68 41t69 40q23 12 28 10
q3 0 29 -12q0 -2 68 -39.5t67 -39.5z" />
    <glyph glyph-name="Ugrave" unicode="&#xd9;" horiz-adv-x="547" 
d="M423 555q-11 16 -10 45q1 33 -2 40q-12 29 -49 29q-56 0 -56 -70q0 -30 26 -73q38 -64 46 -85q26 -61 26 -134q0 -226 -141 -232q-80 -4 -118 104q-26 72 -26 162q0 56 17 114q12 40 32 81l17 35q0 28 -33 28q-37 0 -94 -44.5t-60 -81.5l33 -47q-1 -6 8 -81
q10 -81 10 -137q0 -32 -3 -60q0 -3 -14.5 -26.5t-14.5 -31.5q0 -2 1 -3q50 -10 132 -60q70 -44 119 -44q124 0 184 84q51 71 51 190q0 84 -25 170q-23 80 -56 128zM159 819q0 -1 72.5 -51.5t71.5 -51.5q3 -3 3 -8q0 -9 -8 -17t-18 -7l-167 71q-18 4 -16 19q3 24 22 36.5
t25 12.5q7 0 15 -4z" />
    <glyph glyph-name="circumflex" unicode="&#x2c6;" horiz-adv-x="411" 
d="M349 736q3 -3 3 -8q0 -9 -8 -17t-18 -7l-142 60l-141 -60q-10 -1 -18 7t-8 17q0 5 3 8q-1 1 68 40.5t69 40.5q23 11 28 9q3 1 29 -12q0 -1 68 -39t67 -39z" />
    <glyph glyph-name="tilde" unicode="&#x2dc;" horiz-adv-x="351" 
d="M12 746q18 33 25 33q3 0 22 9t19.5 9t15.5 3t26 3t17 -3q42 -21 57 -25q10 -3 34 -3q17 0 31 11q3 3 13 23q21 8 24 5l13.5 -3t13.5 -8q0 -2 -3.5 -6t-20.5 -28q-17 -15 -40 -34q-29 -3 -61 -11q-2 -1 -5 -1q-12 0 -53 12q-30 23 -30 20q0 -1 -17 -1h-1q-18 0 -19 -2
q-4 -2 -24 -25q-35 4 -37 22z" />
    <glyph glyph-name="macron" unicode="&#xaf;" horiz-adv-x="227" 
d="M31 767h147v-34h-147v34z" />
    <glyph glyph-name="macron" unicode="&#x2c9;" horiz-adv-x="227" 
d="M31 767h147v-34h-147v34z" />
    <glyph glyph-name="cedilla" unicode="&#xb8;" horiz-adv-x="396" 
d="M293 22q-10 -37 -10 -47q0 -2 15 -12q19 -12 28 -26q15 -21 13 -50q-2 -34 -35 -62t-69 -28q-19 0 -43 14q-29 15 -36 37q-2 6 9 17q8 7 16 15q24 -39 57 -39q21 0 39.5 15.5t18.5 36.5q0 26 -20 42.5t-47 14.5q7 21 18 82z" />
    <glyph glyph-name="Scaron" unicode="&#x160;" 
 />
    <glyph glyph-name="scaron" unicode="&#x161;" 
 />
    <glyph glyph-name="brokenbar" unicode="&#xa6;" 
 />
    <glyph glyph-name="Eth" unicode="&#xd0;" 
 />
    <glyph glyph-name="eth" unicode="&#xf0;" 
 />
    <glyph glyph-name="Yacute" unicode="&#xdd;" 
 />
    <glyph glyph-name="yacute" unicode="&#xfd;" 
 />
    <glyph glyph-name="Thorn" unicode="&#xde;" 
 />
    <glyph glyph-name="thorn" unicode="&#xfe;" 
 />
    <glyph glyph-name="minus" unicode="&#xad;" 
 />
    <glyph glyph-name="minus" unicode="&#x2212;" 
 />
    <glyph glyph-name="multiply" unicode="&#xd7;" 
 />
    <glyph glyph-name="onesuperior" unicode="&#xb9;" 
 />
    <glyph glyph-name="twosuperior" unicode="&#xb2;" 
 />
    <glyph glyph-name="threesuperior" unicode="&#xb3;" 
 />
    <glyph glyph-name="onehalf" unicode="&#xbd;" 
 />
    <glyph glyph-name="onequarter" unicode="&#xbc;" 
 />
    <glyph glyph-name="threequarters" unicode="&#xbe;" 
 />
    <glyph glyph-name=".null" 
 />
    <glyph glyph-name="Lslash" unicode="&#x141;" 
 />
    <glyph glyph-name="lslash" unicode="&#x142;" 
 />
    <glyph glyph-name="HT" 
 />
    <glyph glyph-name="LF" 
 />
    <glyph glyph-name="nonmarkingreturn" 
 />
    <glyph glyph-name="Zcaron" unicode="&#x17d;" 
 />
    <glyph glyph-name="zcaron" unicode="&#x17e;" 
 />
    <glyph glyph-name="DLE" 
 />
    <glyph glyph-name="DC1" 
 />
    <glyph glyph-name="DC2" 
 />
    <glyph glyph-name="DC3" 
 />
    <glyph glyph-name="DC4" 
 />
    <glyph glyph-name="RS" 
 />
    <glyph glyph-name="US" 
 />
    <glyph glyph-name="infinity" unicode="&#x221e;" 
 />
    <glyph glyph-name="lessequal" unicode="&#x2264;" 
 />
    <glyph glyph-name="greaterequal" unicode="&#x2265;" 
 />
    <glyph glyph-name="partialdiff" unicode="&#x2202;" horiz-adv-x="235" 
d="M215 347q0 -9 -9 -15q-16 -10 -17 -11l-40 -40l-6 -71q-6 -67 5 -95q27 -72 27 -71q0 -39 -32 -49q-11 -4 -32 -4h-1q-38 75 -53 203l-31 -42q-3 -3 -6 -3q-7 0 -13.5 10t-6.5 19v21q0 8 9 14q14 8 17 12l34 45l18 243q2 21 -14.5 61.5t-17.5 49.5q-1 26 26 38q17 7 40 6
q62 -85 57 -148l-14 -160l34 34q2 3 6 3q7 0 13.5 -10t6.5 -19v-21z" />
    <glyph glyph-name="summation" unicode="&#x2211;" horiz-adv-x="507" 
d="M187 -38q-78 0 -132.5 59.5t-54.5 136.5q0 72 60.5 126.5t132.5 54.5q49 0 106 -43q60 -46 60 -93q0 -55 -52.5 -105.5t-108.5 -50.5q-32 0 -67 26q-38 28 -38 60q0 49 30.5 78.5t79.5 29.5q20 0 38 -20t18 -40q0 -64 -61 -60q-8 1 -21 3q-2 1 -12 14q-1 33 50 39
q-1 10 -8 20h-5.5h-8.5q-21 0 -39.5 -15.5t-18.5 -37.5q0 -17 20 -31.5t38 -14.5q34 0 65 24t31 56q0 39 -31 65.5t-71 26.5q-49 0 -87.5 -37t-38.5 -86q0 -47 42.5 -85t89.5 -38q85 0 143.5 54t58.5 137q0 53 -43 103q-6 6 -84 78q-60 55 -60 101q0 66 54 107q30 22 111 53
q6 2 12 9l3 4q10 10 17 10q12 0 29 -43l20 -56q-33 -1 -98 -11q-55 -14 -55 -59q0 -25 32 -56q26 -22 52 -45q86 -81 86 -214q0 -103 -92 -171q-85 -63 -192 -63zM95 764q-3 3 -3 8q0 9 8 16.5t18 7.5l141 -60l142 60q10 0 18 -7.5t8 -16.5q0 -5 -3 -8q1 -1 -68 -40.5
t-69 -40.5q-23 -12 -29 -9q-3 -1 -28 12q0 1 -68.5 39t-66.5 39z" />
    <glyph glyph-name="product" unicode="&#x220f;" horiz-adv-x="268" 
d="M243 406q0 -5 -6.5 -32.5t-9.5 -31.5q-49 27 -57 27q-37 0 -37 -46q0 -30 35.5 -94.5t35.5 -100.5q0 -63 -44 -101q-40 -35 -98 -35q-31 0 -61 10q-40 13 -40 37q0 23 32 23q4 0 35.5 -3t35.5 -3q25 0 42 23q15 20 15 46q0 24 -38.5 104.5t-38.5 116.5q0 56 68 80
q47 17 116 17q14 0 15 -37zM19 555q-4 3 -4 8q0 8 8.5 16t18.5 7l90 -38l88 36q10 0 18 -8t8 -16q0 -5 -3 -8q2 -2 -40.5 -28.5t-42.5 -27.5q-23 -12 -29 -9q-3 -1 -29 12q0 1 -42.5 27.5t-40.5 28.5z" />
    <glyph glyph-name="pi" unicode="&#x3c0;" horiz-adv-x="510" 
d="M514 698q0 -17 -56 -107q-77 -124 -103 -175q-56 -107 -56 -165v-88q0 -3 3 -44t3 -45q0 -47 -12 -62q-15 -17 -65 -17q-3 0 -20 -3.5t-27 -3.5q-25 0 -25 20q0 -3 16 39q19 48 30 97q16 69 16 133q0 65 -45 171q-41 98 -58 103l-60 15q-52 19 -52 40q0 22 56 43
q47 18 64 18q38 0 84 -102q25 -62 51 -123q27 2 72 86q48 90 48 157q0 17 -3 30q-5 17 77 17q21 0 39 -7q23 -9 23 -27zM300 833q0 -2 -73 -52.5t-71 -51.5q-4 -3 -4 -8q0 -9 8.5 -17t18.5 -7l167 71q18 4 16 19q-4 24 -22.5 37t-24.5 13q-7 0 -15 -4z" />
    <glyph glyph-name="integral" unicode="&#x222b;" horiz-adv-x="360" 
d="M317 396l-66 -146l-42 -118q-50 -126 -105 -203q-77 -107 -155 -107q-47 0 -39 31q6 24 61 71q69 59 97 98q50 69 50 155q0 42 -27 96q-17 35 -49 83q-27 39 -27 43q0 19 34 19q46 0 72 -42q23 -47 47 -94l4 -24q17 26 51 113q21 53 50 53q9 0 26.5 -8.5t17.5 -19.5z
M213 604q0 -1 -73 -51.5t-71 -52.5q-3 -3 -3 -8q0 -8 8 -16t18 -8l167 72q18 3 16 18q-3 24 -22 37t-25 13q-7 0 -15 -4z" />
    <glyph glyph-name="Omega" unicode="&#x3a9;" horiz-adv-x="515" 
d="M25 296q-16 2 -20 29q-2 15 4 27t19 9h32q15 100 79.5 166t153.5 66q100 0 171 -90q4 -20 -12 -38.5t-35 -18.5q-12 0 -20 7q-47 61 -107 61q-109 0 -139 -159l122 7q11 1 20 -12t9 -29q0 -29 -32 -29h-121q1 -99 40 -153.5t107 -54.5q62 0 110 58q6 14 23 14t32.5 -12.5
t15.5 -28.5q0 -10 -8 -19q-31 -39 -79.5 -63.5t-96.5 -24.5q-101 0 -169.5 84t-69.5 200z" />
    <glyph glyph-name="Omega" unicode="&#x2126;" horiz-adv-x="515" 
d="M25 296q-16 2 -20 29q-2 15 4 27t19 9h32q15 100 79.5 166t153.5 66q100 0 171 -90q4 -20 -12 -38.5t-35 -18.5q-12 0 -20 7q-47 61 -107 61q-109 0 -139 -159l122 7q11 1 20 -12t9 -29q0 -29 -32 -29h-121q1 -99 40 -153.5t107 -54.5q62 0 110 58q6 14 23 14t32.5 -12.5
t15.5 -28.5q0 -10 -8 -19q-31 -39 -79.5 -63.5t-96.5 -24.5q-101 0 -169.5 84t-69.5 200z" />
    <glyph glyph-name="radical" unicode="&#x221a;" 
 />
    <glyph glyph-name="approxequal" unicode="&#x2248;" 
 />
    <glyph glyph-name="approxequal" unicode="&#x22f2;" 
 />
    <glyph glyph-name="Delta" unicode="&#x394;" 
 />
    <glyph glyph-name="Delta" unicode="&#x2206;" 
 />
    <glyph glyph-name="lozenge" unicode="&#x25ca;" horiz-adv-x="357" 
d="M173 211l-50 91l-91 50l91 50l50 92l50 -92l91 -50l-91 -50z" />
    <glyph glyph-name="fraction" unicode="&#x2044;" horiz-adv-x="19" 
 />
    <glyph glyph-name="fi" unicode="&#xf001;" horiz-adv-x="17" 
 />
    <glyph glyph-name="fl" unicode="&#xf002;" horiz-adv-x="17" 
 />
    <glyph glyph-name="apple" unicode="&#xf000;" 
 />
    <glyph glyph-name="dotlessi" unicode="&#x131;" horiz-adv-x="202" 
d="M152 44q0 19 -32.5 95.5t-32.5 106.5q0 22 29.5 69.5t29.5 61.5q0 16 -20 35t-39 19q-30 0 -62 -95q-28 -81 -28 -110q0 -26 27 -125q32 -115 58 -115q14 0 40 18q30 21 30 40z" />
    <glyph glyph-name="breve" unicode="&#x2d8;" horiz-adv-x="256" 
d="M199 770q0 -27 -26 -43.5t-59 -16.5q-32 0 -58 16.5t-26 43.5h30q0 -10 14.5 -20t39.5 -10q26 0 42 11q13 9 13 19h30z" />
    <glyph glyph-name="dotaccent" unicode="&#x2d9;" horiz-adv-x="128" 
d="M28 739q0 13 11 22t26 9t26 -9t11 -22t-11 -22t-26 -9t-26 9t-11 22z" />
    <glyph glyph-name="ring" unicode="&#x2da;" horiz-adv-x="636" 
d="M323 825q35 0 62.5 -18t27.5 -49q0 -30 -27.5 -48.5t-62.5 -18.5q-34 0 -62 18.5t-28 48.5q0 31 28 49t62 18zM323 785q-24 0 -37 -9t-13 -18q0 -8 12 -16q14 -11 38 -11t39 11q11 8 11 16q0 9 -11 17q-15 10 -39 10z" />
    <glyph glyph-name="hungarumlaut" unicode="&#x2dd;" horiz-adv-x="239" 
d="M58 721h20q1 0 57 59h-56zM130 721h20q1 0 57 59h-56z" />
    <glyph glyph-name="ogonek" unicode="&#x2db;" horiz-adv-x="254" 
d="M190 -144q-17 -46 -82 -46q-38 0 -67.5 36.5t-29.5 78.5t29.5 78.5t67.5 36.5v-39q-16 0 -32 -17q-20 -21 -20 -55t18 -56q14 -18 29 -18q42 0 26 -2q19 2 25 17z" />
    <glyph glyph-name="caron" unicode="&#x2c7;" horiz-adv-x="397" 
d="M10 794q-3 3 -3 8q0 9 8 16.5t18 7.5l141 -60l142 60q10 0 18 -7.5t8 -16.5q0 -5 -3 -8q1 -1 -68 -40.5t-69 -40.5q-23 -11 -28 -9q-3 -1 -29 12q0 1 -68 39t-67 39z" />
    </font>
</defs>
</svg>
