<?xml version="1.0" standalone="no"?>
<!DOCTYPE svg PUBLIC "-//W3C//DTD SVG 1.1//EN" "http://www.w3.org/Graphics/SVG/1.1/DTD/svg11.dtd" >
<svg>
<metadata>
Created by FontForge 20120731 at Wed Apr 17 21:08:50 2019
 By www-data
Digitized by Dan X. Solo. Software (c)2000 by Dover Publications, Inc., New York.
</metadata>
<defs>
<font id="Gooseflesh" horiz-adv-x="20" >
  <font-face 
    font-family="Gooseflesh"
    font-weight="400"
    font-stretch="normal"
    units-per-em="1000"
    panose-1="0 0 4 0 0 0 0 0 0 0"
    ascent="800"
    descent="-200"
    x-height="501"
    cap-height="686"
    bbox="-56 -216 1127 863"
    underline-thickness="20"
    underline-position="-123"
    unicode-range="U+0020-F002"
  />
<missing-glyph horiz-adv-x="500" 
d="M63 0v800h375v-800h-375zM125 63h250v675h-250v-675z" />
    <glyph glyph-name=".notdef" horiz-adv-x="500" 
d="M63 0v800h375v-800h-375zM125 63h250v675h-250v-675z" />
    <glyph glyph-name=".null" horiz-adv-x="0" 
 />
    <glyph glyph-name="nonmarkingreturn" horiz-adv-x="242" 
 />
    <glyph glyph-name="space" unicode=" " horiz-adv-x="242" 
 />
    <glyph glyph-name="exclam" unicode="!" horiz-adv-x="233" 
d="M180 610q0 -12 -9 -106q-2 -18 -13 -49q-15 -44 -17 -52q0 -20 -2 -61q-5 -12 -10.5 -36.5t-9.5 -48.5q-6 -32 -20 -49q-14 5 -19 18q3 6 5 19q0 26 -7 75q-11 35 -16 85q-6 66 -9 84q-7 13 -16 40q-8 34 -8 84q0 14 9 38t17 29q27 16 47 16t41 -12t31 -28q6 -9 6 -46z
M165 66q0 -16 -16 -45t-32 -29q-35 0 -62 23q-30 24 -30 58q0 20 17 43t41 23q8 0 16 -6q7 3 13 3q22 0 37.5 -24.5t15.5 -45.5z" />
    <glyph glyph-name="quotedbl" unicode="&#x22;" horiz-adv-x="342" 
d="M276 626q0 -35 -2 -53q-4 -34 -12 -59q-9 -11 -20 -35q0 -9 -1 -25q-1 -4 -1 -33q0 -21 -10 -31q-10 1 -23 6q2 9 3 22q0 15 -6 45q-8 21 -11 51q-5 39 -8 50q1 11 -1 31q-2 8 -10 26q-6 15 -6 18q0 8 6.5 22.5t12.5 17.5q20 9 36 9q35 0 54 -24q3 -4 1 -19
q-2 -23 -2 -19zM121 637q0 -8 -7 -64q-8 -20 -22 -61q0 -11 -2 -36q-4 -8 -9 -22q-1 -4 -1 -30q0 -18 -10 -29q-10 4 -14 12q2 3 4 11q-1 7 -16 45q-8 21 -11 51q-5 39 -8 50q-4 8 -11 24q-6 20 -6 51q0 8 6.5 22.5t12.5 17.5q20 9 36 9q35 0 54 -24q4 -5 4 -27z" />
    <glyph glyph-name="numbersign" unicode="#" horiz-adv-x="502" 
d="M454 445q-4 0 -35 -15q-21 1 -71 3q0 -7 1 -14q0 -5 -10.5 -33.5t-12.5 -28.5q1 -10 1 -38q-1 -22 -4 -48q-1 -2 -2 -11q11 0 35 -1q27 0 24 0q5 0 22.5 -7.5t17.5 -9.5v-3l1 -6q2 -9 2 -10q0 -5 -3.5 -17t-7.5 -12t-38 -20q-20 1 -68 3q-2 -19 -8 -46q-4 -8 -2 -43
q-14 -26 -16 -31q4 -45 -1 -51q-15 -17 -22 -18q-4 0 -19.5 4t-19 7t-3.5 23q1 8 5 23q8 21 16 43q-1 2 6 21t6.5 20.5t0.5 18.5l2 27q-13 0 -34 1q-20 0 -19 0q-3 0 -42 2q-2 -19 -8 -47q-4 -8 -2 -43q-14 -26 -14.5 -30.5t-5.5 -26.5t-7 -25q-15 -17 -22 -18
q-14 -1 -28 11q-4 3 0 18q-2 19 1 28q8 21 16 43q-1 2 6 21t6.5 20t1.5 21l2 30l-55 2q-6 0 -23.5 5t-17.5 7t-6 19q8 24 8 31.5t14 12t21 4.5h54q3 1 11 1q0 6 1 13q0 2 12 28l-5 22q21 60 20.5 63t9.5 49l-54 2q-5 0 -23 7t-18 9.5t-6 30.5q8 9 8 15.5t16 11.5q12 5 19 5
q55 0 54 0q4 1 14 0q-1 14 -1 28q6 23 16 46q3 0 11 42l3 39q11 3 20 3q21 0 33 -27q-10 -17 -19 -59q-5 -19 -1 -57q0 -3 -2 -20q8 1 26 4q12 2 23 -2q11 0 41 -1q-1 15 -1 32q6 23 16 46q3 0 11 43l14 38q10 3 19 3q20 0 33 -28q-22 -20 -23 -30q-10 -58 -10 -48
q3 -40 1 -54h36q26 -1 24 -1h14q16 -1 16 -7q0 -2 1 -6l3 -12q5 -19 5 -20q0 -25 -11 -25zM198 435q0 -8 1 -16q0 -5 -10.5 -33.5t-12.5 -28.5q1 -10 1 -38q-1 -22 -4 -48q-1 -1 -3 -16l64 -1h23l1 13q1 4 1 7t12 29l-5 22q21 60 20.5 62.5t8.5 44.5h-33q-19 1 -20 1t-44 2z
" />
    <glyph glyph-name="dollar" unicode="$" horiz-adv-x="564" 
d="M477 182q0 -74 -94 -160q-12 -5 -34 -14q-40 -20 -46 -25q-29 -20 -47 -56h-13q-4 5 -17 32q-9 21 -20 26q-7 4 -47.5 12.5t-57.5 20.5q-48 33 -74 89q-5 11 -5 59q0 52 69 52q18 0 30.5 -15t12.5 -30q0 -23 -22.5 -45.5t-22.5 -38.5q0 -18 18.5 -36t36.5 -18h34
q37 0 45 14q5 11 3 27q-2 14 -5 28q-7 49 -4 90q1 5 9.5 26t8.5 26q0 10 -9.5 30t-19.5 27q-11 1 -30 9q-106 74 -114 131q-1 5 -7.5 21.5t-6.5 21.5q0 22 20 55q28 47 56 67q45 32 99 57q2 7 4 37q1 27 9 42h13q3 -5 13 -41q8 -24 28 -37q1 -1 59 -9q8 -8 23 -21
q8 -2 23 -10q41 -35 41 -82q0 -26 -13 -48q-17 -28 -48 -28q-10 0 -41 17q-36 21 -36 37q0 3 15 30.5t15 32.5q0 12 -9.5 20t-16.5 8q-6 0 -13.5 -5.5t-7.5 -11.5l-9 -143q0 -40 8 -53q5 -9 47 -23q22 -7 43 -14q27 -10 43 -24q43 -35 59 -85q5 -16 5 -72zM220 496
q0 24 -6 53q-11 49 -33 49q-11 0 -27.5 -15.5t-21.5 -25.5t-5 -44q0 -49 8 -63q11 -17 38 -33q4 -1 8 -1q18 0 30 16q9 42 9 64zM384 160q0 33 -21 66q-23 37 -55 37q-10 0 -21 -12.5t-11 -23.5v-137q0 -7 12 -20t20 -13q24 0 51 42q25 39 25 61z" />
    <glyph glyph-name="percent" unicode="%" horiz-adv-x="653" 
d="M491 641q-21 -20 -47 -50q-18 -30 -37 -62l-7 -36q-1 -5 -13 -27.5t-19 -21.5t-16 -47q-1 -5 -15.5 -27.5t-16 -22.5t-15 -41t-14.5 -42q-15 -32 -37 -78q-9 -22 -24 -52q-7 -7 -20 -51q-17 -15 -35 -34q-1 -3 -10.5 -22.5t-11.5 -20.5q-17 -12 -23 -11q-11 2 -20 15
q-3 4 5 14l3 17q0 2 15.5 24t16 23.5t20.5 26.5t20 26.5t12 36.5t13 38q11 30 23 63q0 3 19 23l1 24q17 26 36 55q0 2 19 40.5t21.5 40.5t17.5 57q25 57 27.5 56.5t36.5 37.5l39 58q31 2 36 -30zM260 484q0 2 -1.5 -16.5t-1.5 -39.5q0 -6 -7 -15t-8 -12q-5 -16 -18 -47
q-4 -5 -42 -49q-5 -5 -18 -5q-19 0 -31 18q2 4 8 11q3 2 5 4q8 22 16 43q9 27 9 44q0 23 3.5 63.5t3.5 38.5q0 4 -5 22.5t-8 22.5t-9 21q-1 7 -6 20q-7 9 -21 19t-16 10q-3 0 -12 -10q-2 -5 -3 -12q-15 -46 -15 -67q0 -2 4 -27.5t4 -29.5q0 -5 -3 -13.5t-3 -15.5
q1 -15 0 -20l-1 -4q-1 -2 -1 -3q0 -2 3 -23q3 -24 5 -33.5t7 -23.5q0 -8 10 -26l-1 -4h5q-11 -14 -19 -14q-11 0 -28.5 12t-23.5 22q-13 22 -33 68q1 -2 1 37q-3 3 -7 11q-4 17 -4 23q0 84 36 139q9 13 35 30q24 14 32 14q5 0 9 -3l2 3q9 12 28 12q8 0 24 -7.5t20.5 -14
t11.5 -13.5q43 -27 52 -122q1 -5 6.5 -18.5t5.5 -19.5zM430 344l2 3q9 12 28 12q8 0 24 -7.5t20.5 -14t11.5 -13.5q43 -27 52 -122q1 -5 6.5 -18.5t5.5 -19.5q0 2 -1.5 -16.5t-1.5 -39.5q0 -6 -7 -15t-8 -12q-5 -16 -18 -47q-4 -5 -42 -49q-5 -5 -18 -5q-19 0 -31 18
q2 4 8 11q3 2 5 4q8 22 16 43q9 27 9 44q0 23 3.5 63.5t3.5 38.5q0 4 -5 22.5t-8 22.5t-9 21q-1 7 -6 20q-7 9 -21 19t-16 10q-3 0 -12 -10q-2 -5 -3 -12q-15 -46 -15 -67q0 -2 4 -27.5t4 -29.5q0 -5 -3 -13.5t-3 -15.5q1 -15 0 -20l-1 -4q-1 -2 -1 -3q0 -2 3 -23
q3 -24 5 -33.5t7 -23.5q0 -8 10 -26l-1 -4h5q-11 -14 -19 -14q-11 0 -28.5 12t-23.5 22q-13 22 -33 68q1 -2 1 27q-3 3 -7 11q-4 17 -4 33q0 84 36 139q9 13 35 30q24 14 32 14q5 0 9 -3z" />
    <glyph glyph-name="ampersand" unicode="&#x26;" horiz-adv-x="707" 
d="M672 51q0 -4 -4.5 -14t-11.5 -12q-27 -2 -79 -13q-14 -7 -29 -14q-19 -10 -49 -10q-48 0 -91 25.5t-40 25.5q-15 0 -35 -12q-6 -11 -18 -23q-32 -12 -103 -12q-124 0 -182 76q-3 4 -13 55q-8 10 -19 35q-5 24 -5 69q0 32 23 77q13 26 57 53q21 4 43 9q35 10 35 32
q0 4 -19.5 65.5t-19.5 65.5q0 26 15 72q11 19 32 55q5 8 28 10l30 2q14 7 43 19q24 9 49 9q41 0 89 -31q55 -35 55 -77q0 -31 -18 -73q-19 -46 -41 -54q-9 -8 -28 -23q-17 -8 -41 -8q-15 0 -23 5v12q16 11 45 33q1 6 5 31q4 22 4 27q0 4 -6 19t-8 22q-1 17 -10 45
q-15 22 -53 22q-27 0 -43 -26q-13 -21 -13 -50q0 -26 18 -72q20 -52 41 -65q-1 -10 -1 -25q9 -11 27 -40q9 -28 34 -79q5 -7 66 -75l40 -61q10 -1 20 15q9 13 12 27q19 77 19 140q0 26 -23 33q-2 0 -43 3q-23 2 -23 16q0 8 19 25.5t26 17.5h85q5 0 17 -4.5t16 -5.5
q9 -1 24 5t22 6q21 0 41 -41q-5 -23 -26 -38q-19 -11 -38 -23q-7 -5 -12 -22q-8 -22 -11 -27q-24 -44 -39 -114q-3 -15 -31 -50q20 -23 63 -37q31 -2 94 -9q12 -3 12 -19zM356 58q-5 7 -147 235q-3 11 -9 29q-13 22 -27 22q-17 0 -46.5 -30t-29.5 -53q0 -37 31 -107
q37 -81 75 -84q16 -9 33 -18q32 -17 55 -17q5 0 27 9q29 11 38 14z" />
    <glyph glyph-name="quotesingle" unicode="'" horiz-adv-x="169" 
d="M121 637q0 -8 -7 -64q-8 -20 -22 -61q0 -11 -2 -36q-4 -8 -8 -22t-7 -29q-5 -19 -15 -30q-10 4 -14 12q2 3 4 11q0 15 -6 45q-8 21 -11 51q-5 39 -8 50q-4 8 -11 24q-6 20 -6 51q0 8 6.5 22.5t12.5 17.5q20 9 36 9q35 0 54 -24q4 -5 4 -27z" />
    <glyph glyph-name="parenleft" unicode="(" horiz-adv-x="311" 
d="M224 -36h-8h-8q-18 0 -33 12l-25 25q-6 3 -16 11q-23 29 -46 59q-27 36 -42 66q-11 22 -23 89q-4 10 -10.5 34t-6.5 56q0 56 6 87q3 21 7.5 43.5t21.5 56.5q7 28 20 76q10 31 34 50q32 25 41 39q8 11 66 45l9 5q14 0 27 -9q6 -5 5 -21q-3 -29 -3 -27q-18 0 -31.5 -16
t-27.5 -31q-7 -7 -11 -25q-4 -23 -10 -32q-6 -12 -6 -34v-8q-1 -11 -2 -17l-12 -54q-8 -40 -6 -65q2 -19 7 -50q3 -22 3 -38q0 -50 8 -102q7 -46 25 -118q19 -45 78 -66q3 -1 3 -6q0 -10 -10 -22.5t-24 -12.5z" />
    <glyph glyph-name="parenright" unicode=")" horiz-adv-x="311" 
d="M37 718h8q5 -1 8 -1q18 0 33 -12q2 -1 25 -25q6 -2 16 -10q23 -30 46 -59q27 -36 42 -67q11 -22 23 -88q4 -11 10.5 -35t6.5 -56q0 -56 -6 -86q-3 -22 -7 -43q-5 -24 -22 -57q-7 -29 -20 -76q-10 -31 -34 -51q-32 -24 -40.5 -36.5t-66.5 -46.5l-9 -5q-14 0 -27 9
q-6 4 -5 20q3 29 3 27q18 0 31.5 16.5t27.5 31.5q7 6 11 25q4 23 10 33t6 28q1 27 2 30l12 54q8 39 6 65q-2 19 -7 50q-3 22 -3 37q0 50 -8 103q-7 45 -25 117q-19 45 -78 67q-3 1 -3 5q0 11 10 23.5t24 12.5z" />
    <glyph glyph-name="asterisk" unicode="*" horiz-adv-x="307" 
d="M163 653q0 -9 -2 -31q-1 -7 -6 -21.5t-5 -22.5q0 -12 -11 -38q33 20 58 48q2 4 7 11q16 19 36 19q10 0 17.5 -11t7.5 -22q0 -18 -30 -28q-21 -5 -43 -10q-5 -4 -16 -9q-3 -2 -32 -8q7 -8 68 -23q54 -14 54 -32q0 -12 -9 -24t-20 -12q-8 0 -38 23q-7 9 -21 25
q-6 3 -16 9.5t-24 26.5v-1q-1 -21 13 -73q1 -2 7 -17q3 -8 3 -20q0 -25 -27 -25q-30 0 -30 25q0 10 3 32q1 6 6 22q5 13 5 22.5t10 35.5q-33 -19 -58 -48q-2 -4 -7 -11q-16 -19 -36 -19q-11 0 -18 11t-7 23q0 17 29 27q22 5 44 11q5 3 16 8q5 2 34 7q-4 2 -74 24
q-49 16 -49 33q0 12 9 24t20 12q8 0 38 -24l21 -24q6 -3 16 -10q2 -1 24 -25q-1 27 -14 73q0 2 -6 18q-3 7 -3 20q0 25 27 25q29 0 29 -26z" />
    <glyph glyph-name="plus" unicode="+" horiz-adv-x="590" 
d="M498 298h-35q2 0 -10 -3.5t-21 -1.5q-26 4 -28 4q-3 0 -40.5 -6t-40.5 -8q-3 -1 -18 2q-1 -35 -4 -76q-2 -3 -2 -37q0 -35 1 -44q3 -14 3 -16q0 -6 -4 -38q-14 -5 -28 -5q-23 0 -37 14q-8 38 -8 40t5 30l3 19q1 6 2 19q0 72 -5 81q-2 4 4 25q-23 -3 -79 -9l-26 3l-55 4
q-26 6 -29 6t-7 14l-4 14q-2 2 -2 5q0 7 7.5 16.5t12.5 9.5h40q-3 0 14 -2q13 -1 19 1t49 -9q5 -1 46 9q10 3 13 3h11q-3 23 -9 77l3 36l-6 55q6 26 6 29.5t14 7.5l14 4q2 2 5 2q7 0 16.5 -7.5t9.5 -12.5v-41q0 -7 9 -33q3 -10 -9 -59q-1 -4 9 -46q3 -10 3 -13v-3
q35 -2 76 -5q3 -2 71 9q14 3 16 3q6 0 38 -4q9 -15 9 -25q0 -14 -22 -38z" />
    <glyph glyph-name="comma" unicode="," horiz-adv-x="204" 
d="M141 41q0 -36 -1 -41q-7 -20 -56 -90q-3 -9 -13 -28q-17 -30 -41 -30q-18 0 -18 25q0 26 21.5 50.5t21.5 48.5q0 23 -29 46t-29 51q0 9 16 54q3 9 23 17q17 6 28 6q26 0 44 -12q8 -6 28 -46q5 -11 5 -51z" />
    <glyph glyph-name="hyphen" unicode="-" horiz-adv-x="305" 
d="M7 280q0 -8 3 -34q-6 -21 -6 -23t12 -12.5t13.5 -10.5t45 -3t44.5 -3q3 0 19.5 4.5t18.5 6.5q2 3 66 -14q20 20 24.5 20t4.5 35v29q0 2 -9 6.5t-12 4.5h-41q-6 -6 -45 -6q-3 0 -49 3q-26 9 -32 6q-17 -9 -26 -9q6 0 -17 4q-14 2 -14 -4z" />
    <glyph glyph-name="hyphen" unicode="&#x2010;" horiz-adv-x="305" 
d="M7 280q0 -8 3 -34q-6 -21 -6 -23t12 -12.5t13.5 -10.5t45 -3t44.5 -3q3 0 19.5 4.5t18.5 6.5q2 3 66 -14q20 20 24.5 20t4.5 35v29q0 2 -9 6.5t-12 4.5h-41q-6 -6 -45 -6q-3 0 -49 3q-26 9 -32 6q-17 -9 -26 -9q6 0 -17 4q-14 2 -14 -4z" />
    <glyph glyph-name="period" unicode="." horiz-adv-x="195" 
d="M6 78q3 16 24 41.5t37 22.5q30 -5 53.5 -29t23.5 -55q0 -6 -1 -12q-4 -20 -23 -38q-22 -21 -45 -17q-8 1 -15 9q-28 -6 -44 26q-14 27 -10 52z" />
    <glyph glyph-name="slash" unicode="/" horiz-adv-x="345" 
d="M315 691l-39 -58q-34 -38 -36.5 -37.5t-27.5 -56.5q-7 -33 -18 -68q-2 -1 -21 -39.5t-19.5 -41t-35.5 -54.5l-1 -24q-10 -10 -19 -23q0 -1 -11 -30.5t-12 -32.5t-13 -38t-12 -36.5t-20 -31.5t-20.5 -31.5t-16 -23.5t-15.5 -24l-3 -17q-8 -10 -5 -14q9 -13 20 -15
q6 -1 23 11q2 1 11.5 20.5t10 22t35.5 34.5q6 27 20 61q8 20 24 52q16 38 37 78q1 1 14.5 42t15 41t16 22.5t15.5 27.5q9 48 16 47t19 26t13 33l7 36q16 26 37 62q4 10 47 50q-5 32 -36 30z" />
    <glyph glyph-name="zero" unicode="0" horiz-adv-x="538" 
d="M439 334q0 4 -2.5 -39.5t-2.5 -81.5q0 -4 -11.5 -18.5t-15.5 -21.5q-7 -29 -31 -84q-5 -8 -75 -86q-3 -5 -19 -5q-24 0 -34 16q8 6 20 23q14 40 29 80q17 49 17 82q-1 42 6 125t7 79q0 9 -19 77q-8 11 -20 33q-1 20 -16 57q-16 20 -45 40.5t-37 20.5q-14 0 -36 -25
l-9 -28q-27 -88 -27 -128q0 -5 7 -52t7 -51t-4.5 -17.5t-5.5 -18.5q-1 -11 3 -47q0 -6 -3.5 -20t-3.5 -18q0 -3 5 -43q5 -43 6 -64q6 -13 16 -42q2 -12 5 -24q4 -18 14 -28q-1 0 -3 -2.5t-7 -2.5q-14 0 -42.5 19t-36.5 32q-26 46 -33 59q-18 35 -25 61q-2 9 0 29q2 28 2 33
q0 4 -6 13t-6 12q-9 30 -9 56q0 60 18.5 131.5t44.5 110.5q15 22 59 49q39 24 48 24q4 0 10 -4t10 -4t11 9t10 11q12 9 30 9q25 0 62 -27q9 -14 30 -34q48 -30 69 -100q11 -36 18 -108q1 -8 11 -35t10 -32z" />
    <glyph glyph-name="one" unicode="1" horiz-adv-x="441" 
d="M406 31q0 -32 -36 -32q-4 0 -25.5 9.5t-26.5 9.5q-4 0 -48 -9.5t-49 -9.5q-4 0 -11.5 4t-12.5 4t-18 -6q-16 -7 -21 -8q-21 -5 -62 -5q-63 0 -63 52q0 19 16 25q12 4 41 6t41 7q19 8 24 31q6 34 6 146q0 4 5 19t5 20q0 2 -5.5 29.5t-5.5 50.5q0 14 2 26q-4 12 -5 34
q2 11 2 20q0 77 -110 77q-13 0 -26 -1l-8 4q-19 20 -19 36q0 25 17 32.5t52 16.5q30 7 39 7q4 0 9 -2t9 -2q13 0 50 37.5t60 37.5q18 0 53 -27q3 -45 11.5 -70.5t8.5 -63.5q0 -44 -16.5 -68.5t-16.5 -43.5q0 -4 7.5 -30.5t7.5 -30.5v-98q0 -4 -7.5 -33t-7.5 -33q0 -11 5 -39
q7 -36 18 -54.5t31 -23.5q25 -5 49 -11q31 -11 31 -40z" />
    <glyph glyph-name="two" unicode="2" horiz-adv-x="535" 
d="M484 486q0 -47 -94 -150q-7 -8 -39 -26q-36 -19 -47 -28q-31 -26 -45 -38q-27 -26 -43 -50q-5 -8 -12 -33t-7 -31q0 -16 14 -28q11 -10 19 -10q84 0 128 12q29 8 50 36q7 9 15 29q8 24 13 31h13q11 1 13 -16q0 -7 -6 -27t-6 -31t5 -20q10 -17 10 -23q0 -26 -16 -60
q-9 -18 -24 -19.5t-51 -8.5t-39 -7q-2 0 -37 12.5t-55 13.5q-60 4 -104 4q-5 0 -29 -5.5t-29 -5.5q-17 0 -21 8q-1 3 -1 16t49 84q43 61 57 76q4 4 19 6t22 9t28.5 47t34.5 55q29 35 38 73q7 30 14 61q6 11 11.5 21.5t5.5 42.5q0 19 -3 27l-18 38q-10 24 -13 30
q-10 16 -21 24q-18 12 -49 12q-26 0 -42 -9q-8 -4 -45.5 -30t-42 -31t-4.5 -21q0 -23 22 -52t22 -44q0 -22 -18 -48t-41 -26q-39 0 -62 49q-17 37 -17 72q0 54 -1 39q2 19 18 41q9 12 100 88q5 4 24 9t25 8q31 18 55 18q4 0 67.5 -18.5t68.5 -18.5q4 0 7 2t8 2q1 0 16 -6
q19 -21 58 -70q9 -12 20.5 -49t11.5 -56z" />
    <glyph glyph-name="three" unicode="3" horiz-adv-x="535" 
d="M466 217q0 -34 -6 -50q-4 -9 -33 -62q-7 -14 -44 -43q-24 -20 -75 -51q-11 -4 -60 -4q-93 0 -117 4.5t-35 8.5q-22 7 -32 18q-41 43 -63 100q-5 13 -5 27q0 7 11 32t20 39q5 7 22.5 13.5t30.5 6.5q34 0 51 -49q8 -9 17 -27q6 -29 6 -86q0 -15 12 -19q22 -9 56 -9
q37 0 47 8q37 31 62 77q19 37 19 70q0 114 -96 144v14q78 56 78 157q0 20 -31 72q-10 17 -27 24l-27 10q-44 29 -57 29q-24 0 -33 -36q-3 -21 -6 -41q-1 -6 2 -25t3 -28q0 -29 -19 -41q-14 -8 -38 -8q-26 0 -46 16.5t-20 44.5q0 25 21 62.5t44 53.5q10 7 34 12q38 8 41 9
q14 9 41 20q8 2 79 2q3 0 30 -18q25 -12 75 -40q10 -7 35 -42q26 -38 26 -50q0 -33 -39 -107q-4 -7 -15 -13q-17 -11 -18 -11q-25 -20 -25 -46q0 -31 40 -65q19 -7 51 -31q13 -16 13 -72z" />
    <glyph glyph-name="four" unicode="4" horiz-adv-x="535" 
d="M437 236q0 -22 -30 -40q-16 -10 -33 -20q-8 -19 -8 -48q0 -36 33.5 -57.5t33.5 -30.5q0 -13 -16 -24q-12 -9 -17 -9q-8 0 -18 6q-14 0 -51 3q-31 2 -36 2q-4 0 -17 -6.5t-18 -7.5q-40 -9 -71 -9q-21 0 -21 28q0 7 22 22q27 20 39 34q21 25 21 54q0 36 -33 59
q-30 20 -67 20q-4 0 -45 -7.5t-45 -7.5q-19 0 -37 27q-15 24 -15 40q0 3 7 28.5t9 36.5t29 40t43 29h16q2 -7 -4.5 -31t-6.5 -32q0 -29 29 -45q21 -11 42 -11q15 0 33 8q23 10 29 24q9 19 9 93q0 23 -10.5 42t-26.5 19q-8 0 -14.5 -3.5t-11.5 -3.5q-9 0 -26 8v27q0 4 14 22
q17 22 22 31q10 26 21 52q16 39 37 59q14 9 28 17q23 14 27 30h29q29 -30 35 -51q3 -9 3 -50q0 -34 -2 -46q0 -8 -6.5 -27t-6.5 -24q0 -4 5.5 -16.5t5.5 -18.5q3 -35 -6 -101q-4 -27 7 -59q3 -7 38 -32q32 -23 32 -43z" />
    <glyph glyph-name="five" unicode="5" horiz-adv-x="535" 
d="M491 260q0 -9 -7 -38q-8 -32 -17 -45q-14 -14 -35 -34q-4 -5 -7 -18q-5 -22 -15 -36l-25 -27q-21 -24 -130 -72q-11 -5 -27 -5q-63 0 -164 39q-18 6 -34 45l-20 44q-7 18 -7 44q0 31 16.5 58.5t42.5 27.5t36 -8.5t20.5 -27t10.5 -26.5q0 -4 -13 -42.5t-13 -43.5
q0 -42 28 -42q5 0 7 1.5t6 1.5t23 -11t24 -11q9 0 44 24q2 2 39 16q25 9 37 33q39 78 39 86v111q0 4 -9.5 14t-12.5 15q-34 68 -59 80q-11 5 -16 5t-9.5 -2t-9.5 -2t-17 6t-17 6q-17 0 -60 -34q-9 -6 -19 -23q-12 -20 -16 -24q-20 -24 -43 -24q-26 0 -26 28q0 4 8 19t10 23
q1 18 6 48q0 2 7 17q5 12 5 20q0 82 10 179q2 19 33 37q10 6 26 6q4 0 23.5 -9.5t24.5 -9.5q4 0 16 4t18 4q4 0 27.5 -11.5t28.5 -11.5q4 0 15.5 4t15.5 4t10 -2t11 -2t35.5 15t35.5 15q14 0 23.5 -11t9.5 -21q0 -45 -72 -83q-30 -16 -105 -16q-4 0 -30 6t-30 6
q-36 0 -61.5 -24t-25.5 -60q0 -43 54 -43q21 0 43.5 11t31.5 11q4 0 19 -8t22 -10q18 0 49 -6q9 -4 29.5 -22t30.5 -24q25 -16 38 -33q7 -12 15 -24q40 -45 41 -48q7 -11 7 -39z" />
    <glyph glyph-name="six" unicode="6" horiz-adv-x="537" 
d="M441 221q0 -34 -15.5 -75.5t-35.5 -59.5q-1 -8 -5 -22q-11 -17 -33 -47q-14 -17 -36 -21q-75 -16 -123 -16q-25 0 -33.5 5t-19 20t-14.5 19q-23 13 -63 47q-7 14 -21 44q-9 6 -20 22q-8 33 -8 116q0 3 3 17.5t3 22.5q1 56 35 239q3 15 11 22q27 28 54 55q22 22 44 22
q4 0 18 -4t18 -4t19 16t24 19q34 12 75 12q15 0 21 -5q8 -8 40 -24q25 -12 29 -25q7 -18 7 -41q0 -93 -77 -93q-3 0 -9 -1h-10q-22 0 -43 24q-6 6 -5 32q1 30 -1 37q-6 17 -26.5 31.5t-30.5 14.5t-32 -17.5t-29 -32.5q-11 -23 -11 -89q0 -43 7.5 -56t57.5 -53
q-19 -13 -38 -27q-29 -23 -34 -42q-15 -58 -15 -88q0 -60 4 -73q8 -24 53 -83q3 -3 17 -3h52q6 0 42.5 28.5t39.5 46.5q5 25 5 62q0 5 -13 38q-3 16 -13 50q-3 6 -37 48t-34 47q0 20 29 20q-3 0 38 -14q94 -32 130 -99q9 -17 9 -62z" />
    <glyph glyph-name="seven" unicode="7" horiz-adv-x="537" 
d="M430 623q0 -5 -6.5 -19.5t-7.5 -19.5q-10 -57 -90 -88q-22 51 -80 51q-5 0 -20 -4t-18 -4q-5 0 -20.5 2t-19.5 2q-46 0 -69 -21q-15 -14 -60 -83h-17l-11 26q0 23 7 98.5t9 76.5q16 12 50 35q4 2 13 2q20 0 71 -5q4 -1 18.5 -5.5t19.5 -4.5q4 0 25.5 5.5t26.5 5.5
q6 0 33 -14h25q88 0 94 -2q27 -6 27 -34zM296 414q0 -3 -4.5 -19.5t-5.5 -23.5q2 -34 2 -101q-8 -10 -16 -32q-2 -24 -6 -69q-2 -15 2 -43q5 -31 5 -44q0 -44 -32 -77q-7 -2 -22 -5q-35 -10 -59 -10q-9 9 -23 50q-14 38 -14 46q0 39 8 55q9 10 23 32q4 10 9 47q7 13 20 37
q0 12 6 39q11 30 36 71q11 13 34 42q7 13 20 36q2 0 8.5 -2t8.5 -2v-27z" />
    <glyph glyph-name="eight" unicode="8" horiz-adv-x="537" 
d="M446 225q0 -41 -61 -118q-4 -14 -16 -37q-34 -37 -71 -53t-85 -16q-8 0 -47 9q-44 11 -73 21q-16 6 -42 40q-22 28 -32 50q-6 6 -15 19.5t-9 35.5q0 10 6 32q8 28 17 37q24 23 47 46q13 15 13 52q0 24 -13 39q-18 23 -30 61q-8 28 -8 91q0 38 17 67q10 17 45 56
q4 4 48.5 17.5t57.5 13.5q37 0 73 -13l16 -7q12 -6 18 -6q4 0 6 2t6 2q6 0 31 -13.5t39.5 -24.5t20.5 -36q5 -20 5 -42q0 -43 -39.5 -85.5t-39.5 -71.5q0 -15 5.5 -24t29.5 -31q11 -4 32 -13q24 -14 29 -25q19 -45 19 -75zM316 479q0 75 -1 84q-3 23 -26 43t-49 20
q-58 0 -92 -12q-6 -2 -26 -24q-26 -27 -26 -38q0 -30 4 -65q1 -6 44.5 -40t61.5 -34q44 0 66 12q8 4 20.5 25t23.5 29zM352 165q0 25 -17 49q-6 13 -21 35q-25 23 -67 34l-62 12q-5 1 -12 5.5t-10 4.5q-13 0 -27 -9q-51 -71 -51 -100q0 2 9 -35q2 -20 6 -54q5 -20 25.5 -34
t38.5 -14q4 0 12 1.5t12 1.5t13 -3.5t14 -3.5q4 0 12.5 5t11.5 5q44 3 78.5 30.5t34.5 69.5z" />
    <glyph glyph-name="nine" unicode="9" horiz-adv-x="537" 
d="M484 374q0 -44 -5 -71q-10 -15 -23 -50q1 -23 -7 -66q-1 -2 -23 -28.5t-25 -39.5q-9 -46 -18 -63q-11 -22 -38 -35q-7 -4 -51 -4q-11 -1 -17.5 -2t-23 -7t-21.5 -6q-1 0 -17 2q-14 1 -22 0q-37 -6 -27 -6q-33 0 -64 12q-21 8 -34.5 30t-13.5 38q0 10 8 48q10 43 18 48
t26 5q20 0 36 -8q38 -19 48 -23q9 -11 11 -36q2 -31 5 -39q14 -39 55 -39q28 0 46 31q7 11 22 55q8 13 23 43q9 22 9 63q0 60 -46 60q-9 0 -19 -2v16q0 4 27 55q23 42 23 70q0 4 -6 18.5t-7 18.5q-1 26 -10 76q-6 19 -52 67q-4 4 -15 4q-16 0 -44 -9q-31 -10 -35 -19
q-29 -67 -29 -126q0 -29 8 -97q2 -16 13 -41q18 -41 18 -43q-5 -5 -18 -5q-48 0 -64 12q-6 5 -42 61q-9 7 -26 26q-5 7 -8 21q-4 18 -6 22q-7 16 -15 31q-1 5 -1 22q0 31 51 119q17 29 36 42q11 8 78 35q63 25 68 25q13 0 45 -5q42 -8 60 -18q21 -13 72 -79q3 -17 13 -47
q20 -39 40 -77q14 -32 14 -85z" />
    <glyph glyph-name="colon" unicode=":" horiz-adv-x="191" 
d="M155 66q0 -16 -16 -45t-32 -29q-35 0 -62 23q-30 24 -30 58q0 20 17 43t41 23q8 0 16 -6q7 3 13 3q22 0 37.5 -24.5t15.5 -45.5zM150 400q0 -12 -12 -32q-15 -22 -32 -27q-4 -1 -35 -1q-21 0 -35 2q-19 27 -22 37v21q0 21 11 43q15 30 43 30q20 0 51 -26.5t31 -46.5z" />
    <glyph glyph-name="semicolon" unicode=";" horiz-adv-x="191" 
d="M150 400q0 -12 -12 -32q-15 -22 -32 -27q-4 -1 -35 -1q-21 0 -35 2q-19 27 -22 37v21q0 21 11 43q15 30 43 30q20 0 51 -26.5t31 -46.5zM161 41q0 -36 -1 -41q-7 -20 -56 -90q-3 -9 -13 -28q-17 -30 -41 -30q-18 0 -18 25q0 26 21.5 50.5t21.5 48.5q0 23 -29 46t-29 51
q0 9 16 54q3 9 23 17q17 6 28 6q26 0 44 -12q8 -6 28 -46q5 -11 5 -51z" />
    <glyph glyph-name="less" unicode="&#x3c;" horiz-adv-x="484" 
d="M394 532q-4 -3 -21 -33q-39 -24 -81 -54l-64 -44q-2 -2 -82 -53q4 -3 7 -4q9 -3 40 -36l67 -48q5 -4 36 -19.5t35 -16.5q24 -21 51 -44q4 -3 13.5 -15.5t8.5 -13.5l-9 -18q-14 -19 -19 -16q-3 3 -43 6q-36 29 -78 58q-30 21 -64 45q-34 30 -95 80q-5 -1 -19.5 4.5
t-16 7.5t-16.5 11q1 11 -4 18q-6 9 18 26q20 12 46 32q6 7 47 26q18 13 33 29q9 9 20 12q36 24 75 52l58 41q20 14 22 12q1 -1 14.5 -13t14.5 -13q11 -16 6 -19z" />
    <glyph glyph-name="equal" unicode="=" horiz-adv-x="484" 
d="M17 173q5 -17 5 -19q0 -7 36 -7q2 0 75 -3t76 -3h78q4 3 97 -3q34 20 39.5 20t5.5 24q0 2 -1.5 10t-1.5 10t-15 6.5t-19 4.5h-71q-8 -5 -76 -5q-7 0 -82 2q-45 9 -54 6h-55q-30 0 -30 -9.5t-7 -33.5zM14 338q5 -26 5 -28.5t16 -7.5t19 -5t76.5 -3t75.5 -3h78q4 3 97 -3
q32 15 37 15t5 20q0 1 -4.5 18.5t-4.5 19.5t-25 2h-71q1 1 -91 1q-11 3 -23 1q-21 -4 -44 -5q-44 9 -53 6h-56q-30 0 -30 -9.5t-7 -18.5z" />
    <glyph glyph-name="greater" unicode="&#x3e;" horiz-adv-x="484" 
d="M41 532q4 -3 21 -33q40 -24 82 -54l63 -44q2 -2 83 -53q-5 -3 -7 -4q-9 -3 -41 -36l-66 -48q-6 -4 -37 -19.5t-34 -16.5q-24 -21 -52 -44q-3 -3 -12.5 -15.5t-8.5 -13.5q3 -8 9 -18q13 -19 18 -16q4 3 44 6q36 29 78 58q29 21 63 45q35 30 96 80q5 -1 19.5 4.5t15.5 7.5
t17 11q-2 11 3 18q7 9 -18 26q-19 12 -45 32q-6 7 -47 26q-19 13 -34 29q-8 9 -19 12q-37 24 -75 52l-58 41q-21 14 -22 12q-1 -1 -14.5 -13t-14.5 -13q-11 -16 -7 -19z" />
    <glyph glyph-name="question" unicode="?" horiz-adv-x="432" 
d="M377 529q0 -4 -5.5 -15.5t-6.5 -17.5q1 -14 0 -43q-1 -18 -12 -47q-59 -67 -113 -99q-19 -12 -38.5 -63.5t-17.5 -79.5q1 -22 33 -38t37 -31q2 -5 3 -29q1 -25 0 -30q-4 -17 -26 -32q-18 -12 -40 -12q-25 0 -49 14q-30 17 -31 45q-1 10 3 33.5t8.5 28.5t30.5 11
q18 5 18 26q0 9 -3.5 42.5t-3.5 49.5q0 10 1 18q6 41 12 54q26 40 70 126q14 34 9 143q-2 26 -27 51.5t-48 25.5h-13q-5 -7 -5 -17q0 -6 2 -18t2 -17q-1 -13 -9 -29q-11 -24 -28 -29q-3 -1 -20 -1q-28 0 -50.5 16.5t-24.5 42.5q-2 37 29 72q17 18 58 18q15 0 46.5 1t34.5 1
q14 0 47 -18q18 -7 55 -23q5 -9 20 -28q49 -50 52 -102z" />
    <glyph glyph-name="A" unicode="A" horiz-adv-x="807" 
d="M788 36q0 -2 -11 -15l-13 -15q-6 0 -9 -1q-28 -5 -60 -6q-23 -1 -48 0q-30 2 -25 2q-3 0 -25.5 10.5t-27.5 10.5q-4 0 -30.5 -9t-31 -9t-26.5 -2.5t-24 -2.5t-31 9q-2 1 -16.5 7.5t-19.5 6.5q-4 0 -38 -8q-38 -10 -49 -12q-45 -8 -82 -8q-4 0 -18.5 3.5t-18.5 3.5
q-56 11 -77 11q-13 0 -17.5 -5.5t-16.5 -4.5q7 -1 -28 -1q-46 0 -46 45q0 3 16 20q11 11 28 13l28 4q8 3 53 40q40 34 66 91q16 45 32 89q16 24 47 70q4 21 16 58q13 18 40 56q4 6 5 21q2 20 3 24q7 10 16 38q-1 18 5 52q14 33 36 49q11 8 45 8q39 0 55 -64q2 -7 14 -19
q16 -15 18 -18q14 -18 18 -53q1 -29 9 -84q12 -25 33 -80q12 -29 34 -90q2 -16 9 -48q6 -7 16 -21q4 -17 16 -52q4 -5 11 -14q0 -9 6 -28q17 -27 73 -27q7 -2 18.5 -4.5t18.5 -3.5q4 -17 4 -16v-21zM435 358q0 24 -5 33q-10 18 -19 37q-14 23 -30 23q-21 0 -39 -44
q-8 -28 -17 -55q-12 -39 -12 -38q0 -14 21 -21q16 -5 33 -5q37 0 62 28q6 6 6 42zM518 140q0 92 -92 92q-4 0 -35.5 -7t-35.5 -7q-5 0 -10 2t-10 2q-3 0 -10.5 -4.5t-10.5 -5.5q-35 -10 -47 -33q-6 -14 -6 -43q0 -24 4 -35q17 -11 49 -28q16 0 45 -6q31 -12 29 -12
q5 0 14 7.5t11 8.5t20 1q5 0 19 -2t17 -2q23 0 36 22t13 50z" />
    <glyph glyph-name="B" unicode="B" horiz-adv-x="745" 
d="M651 174q0 -43 -5 -50q-28 -37 -82 -79q-9 -7 -32 -10q-27 -3 -35 -6q-2 -1 -21 -12q-14 -8 -19 -8q3 0 -4 -1t-14 -1q-39 0 -35 28q36 24 104 74q3 11 9 28q13 25 13 55q0 22 -3 31q-1 6 -16 41q-6 13 -40 35q-6 8 -20 18q-17 4 -70 14q-6 1 -88 1q-38 0 -38 -99
q0 -64 9 -141q2 -15 28.5 -26.5t28.5 -26.5q-7 -21 -17 -26q-16 -9 -38 -11q-16 -2 -35 0q-23 2 -20 2q-4 0 -18.5 4t-19.5 4q-36 0 -121 -11q-2 -1 -10 -3.5t-13 -2.5q-13 0 -27.5 9.5t-14.5 23.5q0 10 14 20t23 10q4 0 15 -2t16 -2q12 0 32.5 15t24 27t5.5 41q2 35 3 43.5
t12.5 26t11.5 21.5q0 3 -6 37t-6 45q0 3 2.5 13.5t2.5 14.5v142q0 37 -33 93q-6 12 -33 24.5t-44 14.5q-13 1 -26 13q-1 3 -1 5q0 13 18 26t30 13q21 -2 64 -1q53 2 44 2q4 0 20.5 -5.5t20.5 -5.5q5 0 52 5.5t51 5.5q12 0 44 -13q2 -1 34 -1q5 0 19.5 1.5t19.5 1.5
q4 0 15.5 -3.5t15.5 -3.5q3 0 12 3.5t14 3.5q9 0 31 -18q16 -13 32.5 -26.5t57.5 -29.5q29 -12 29 -77q0 -43 -8 -52l-46 -46q-4 -4 -21 -8t-23.5 -8t-15 -20.5t-8.5 -21.5q0 -6 8 -15t15 -11q22 -3 63 -16q38 -20 51 -48q12 -24 12 -88zM-6 66zM477 461q0 28 -11 71
q-14 48 -31 60q-23 16 -63.5 25.5t-63.5 6.5q-2 -2 -26 -25q-16 -15 -19 -28q-8 -29 -8 -103q0 -24 4 -50q9 -48 29 -48q5 0 30 -1.5t29 -1.5t18 9t19 9q3 0 10.5 -3.5t11.5 -3.5q8 0 25.5 7.5t25.5 15.5t19 37q1 4 1 23z" />
    <glyph glyph-name="C" unicode="C" horiz-adv-x="683" 
d="M606 492q0 -16 -8.5 -32t-17.5 -16q-17 0 -25 11q-4 13 -13 35q-16 18 -32 35t-16 39q0 12 30.5 55.5t41.5 43.5q36 0 36 -75q0 -16 -1.5 -34l-1.5 -18q7 -42 7 -44zM602 204l-26 -96q-5 -19 -21 -19h-22q-7 16 -7 21q0 8 25 56q24 44 32 55q4 -4 15 -4q0 -1 2 -4.5
t2 -8.5zM501 63q0 -19 -25 -36q-21 -15 -36 -15q-3 0 -11.5 2t-12.5 2t-28.5 -9t-28.5 -9h-72q-24 0 -44 11q-2 2 -33 23q-8 2 -21 10q-31 26 -61 53q-36 33 -57 61q-15 20 -30 80q-5 10 -14 31.5t-9 50.5q0 51 8 79q11 40 57 102q9 24 26 65q14 29 57 49q52 24 65 38t49 28
q12 5 61 5q17 0 48 -16q10 -4 17.5 -20.5t7.5 -29.5q-13 -13 -56 -18q-46 -6 -56 -11q-13 -8 -53 -54q-20 -24 -21 -25q-12 -15 -15 -27q-9 -42 -2 -100q1 -9 1 -18q0 -16 -5 -37.5t-5 -31.5q0 -46 11 -94q14 -57 32 -86.5t71 -47.5q44 -14 90 -14q3 0 37.5 12t39.5 12h10
q8 -8 8 -15z" />
    <glyph glyph-name="D" unicode="D" horiz-adv-x="815" 
d="M747 313q0 -20 -26 -65t-44 -61q-7 -7 -25 -37q-21 -36 -29 -46q-11 -15 -54.5 -41t-61.5 -26q-22 0 -42 14v17q43 33 65 62q4 9 13 28q1 2 23 30q17 20 17 31l4 138q0 142 -61 184q-4 3 -7.5 18.5t-6.5 20.5q-6 14 -21 15q-66 9 -64 9q-4 0 -34.5 -3.5t-35.5 -3.5
q-4 0 -16 7t-15 7q-7 0 -23 -9q-19 -9 -25 -18q-12 -16 -19 -50q-6 -26 -6 -38q0 -3 5.5 -17.5t5.5 -22.5l6 -92q0 -37 -7 -64t-7 -22q0 -2 8 -37t8 -49v-48q0 -28 6 -46q3 -8 26 -20.5t37 -12.5q4 0 9.5 3.5t10.5 3.5q7 0 41 -26q0 -9 -8 -15q-30 -12 -49 -12
q-4 0 -56.5 3.5t-56.5 3.5q-3 0 -22 -4.5t-28 -4.5q-17 -1 -128 -1q-9 0 -23.5 11.5t-14.5 17.5q0 21 39 28q44 8 50 22q1 1 6 41q7 12 15 35q8 79 8 161q0 3 -3 26t-3 32q0 126 -2 139q-8 20 -21 59q-5 19 -33 19q-4 0 -12 -1.5t-13 -1.5q-12 0 -26.5 14.5t-14.5 23.5
q0 11 18 22q15 9 22 9q3 0 14.5 -3.5t16.5 -3.5q4 0 9 3t8 3q23 0 70.5 2.5t48.5 2.5q4 0 15.5 -3.5t15.5 -3.5t17 3.5t18 3.5q4 0 30.5 -3.5t30.5 -3.5t21.5 3.5t21.5 3.5t20.5 -9t21.5 -9q4 0 15.5 3.5t17.5 3.5q11 0 50 -9q49 -11 70 -24q40 -24 73 -75q40 -61 47 -73
q27 -44 40 -77q9 -21 9 -95z" />
    <glyph glyph-name="E" unicode="E" horiz-adv-x="753" 
d="M697 135q0 -19 -5 -38q-8 -17 -20 -47q-21 -66 -40 -66q-4 0 -26 12.5t-28.5 14.5t-55.5 2q-4 0 -20 -5.5t-21 -5.5t-12.5 4.5t-11.5 5.5q-23 5 -75 5q-4 0 -8.5 -5t-9.5 -5q-49 -8 -95 -8q-4 0 -24 5l-32 8q-27 5 -59 5q-9 0 -26.5 -11t-38.5 -11q-74 0 -83 31
q4 14 32 23q24 6 48 13q6 0 18 5q4 5 6 14q4 15 5 17q7 17 6 39q-1 27 0.5 35t8.5 29q6 18 6 22l-1.5 13.5t-1.5 37.5q-1 36 -1 93q0 4 -3 11t-3 11q0 10 4 50q4 32 1 50q-4 19 -29 75q-3 8 -20 20t-24 12q-4 0 -11.5 -5.5t-11.5 -5.5q-14 0 -25 12t-11 24q0 23 30 38
q24 12 44 12q4 0 26.5 -5.5t27.5 -5.5q3 0 20 5t23 5q12 0 38 1h28q4 0 29.5 -12.5t30.5 -12.5q4 0 20 3.5t21 3.5q4 0 13 -1.5t14 -1.5q4 0 44 9t44 9t38.5 -9t38.5 -9q5 0 32 7t31 7q18 0 43 -16q16 -11 17 -22q-2 -43 2 -125q6 -8 12 -22q2 -6 2 -20q0 -20 -12 -43h-15
q-11 0 -27 35q-9 21 -19 41q-23 29 -47 57q-29 35 -55 45q-22 9 -63 9q-19 0 -43 -2t-23 -2q-14 0 -44.5 -11.5t-35.5 -19.5q-11 -16 -12 -38.5t-1 -43.5q-1 -4 -5.5 -17.5t-4.5 -18.5q0 -21 23 -71q7 -17 22 -17q7 0 47.5 18t58.5 32q5 4 8 21q4 30 4 32q4 16 7 23
q7 17 19 25q7 -2 19 -16q15 -17 15 -33q0 -4 -10.5 -57t-10.5 -58q0 -3 9 -40.5t9 -41.5q0 -27 -22 -27q-15 0 -20 5q-8 13 -33 37q-15 10 -46 25q-14 4 -71 12q-11 -5 -23 -41.5t-12 -57.5q0 7 13 -47q7 -30 14 -61q12 -40 37 -63q9 -7 48 -7q4 0 16.5 3.5t17.5 3.5
q4 0 10.5 -2t10.5 -2q8 0 75 31q8 -1 22 2q16 10 55 50q17 28 34 57q33 55 43 55q22 0 36 -43q11 -32 11 -62z" />
    <glyph glyph-name="F" unicode="F" horiz-adv-x="770" 
d="M706 549q6 -94 -23 -94q-7 0 -36 42q-32 45 -45 54q-31 23 -62 45q-43 29 -65 36l-2 17q8 19 76 19q5 0 25 -4t24 -4q5 0 22 4t21 4q43 0 57 -52q5 -17 8 -67zM543 398q0 -3 -4.5 -31.5t-4.5 -38.5q0 -9 2 -38q3 -32 4 -67q6 -15 12 -39l2 -19q-5 -5 -16 -5q-28 0 -51 51
l-24 62q-11 25 -36 41t-49 16q-46 0 -46 -74q0 -4 2 -35t5 -44q5 -24 17 -39q6 -14 21 -35q4 -3 44 -16q5 -3 14 -8q14 3 39 -8t26 -29q2 -36 -80 -36q-46 0 -55.5 1t-32 5.5t-26.5 4.5t-13 -4t-14 -4q-4 0 -17 4t-17 4q-5 0 -51 -13t-50 -13t-21.5 2t-22.5 2q-17 0 -38 13
q-25 14 -26 32q0 6 4.5 15t11 11t55.5 9q35 6 53 18q25 16 25 63q0 22 -6 38q-5 11 -7 57q-1 8 3.5 24t5.5 21q2 12 -6 70q-1 7 2.5 22.5t3.5 22.5q1 67 -0.5 90.5t-3.5 31.5q-4 29 -17 42q-22 22 -92 26q-60 3 -61 29q-1 11 8 25t20.5 15t141.5 1q4 0 44 -5.5t45 -5.5
q3 0 31 4t33 4q58 0 82 -19l1 -17q-49 -9 -72 -46q-4 -7 -11 -66t-6 -81q2 -27 23 -43t48 -16h18q16 0 50 53q9 15 26 33q5 2 10 2q20 0 33 -31q10 -22 11 -39z" />
    <glyph glyph-name="G" unicode="G" horiz-adv-x="770" 
d="M737 315q1 -13 -10 -23q-18 -9 -40 -9h-6.5h-6.5q-30 0 -46 -43q-5 -15 -5 -32q0 -16 7.5 -48.5t7.5 -51.5q0 -9 -1 -18q-2 -15 -28 -24q-17 -6 -28 -7q-3 -1 -24.5 2.5t-26.5 3.5q-4 0 -6.5 -2.5t-7.5 -2.5q-23 -2 -25 14q0 5 6.5 74t6.5 73q-2 16 -41 53q-19 17 -39 34
q-1 11 14 22q12 10 21 10q4 1 18 -3.5t19 -3.5q4 0 24 12.5t24 13.5q5 0 28 -13t28 -12q16 0 46 4q14 7 37 14q13 1 33 -12.5t21 -24.5zM602 624q2 -18 -8 -101q1 7 2 -35q0 -24 -12 -35l-17 -2q-10 11 -31 45q-10 7 -24 19q-2 8 -11 21l-76 66q-36 30 -76 27
q-4 0 -15.5 -9.5t-16.5 -10.5q-14 0 -28.5 -1t-28.5 -8q-24 -14 -64 -69q-1 -9 -7 -29q-10 -23 -10 -45q1 -35 0 -42q-11 -78 -6 -123q5 -43 21 -95q-2 -11 1 -32q40 -73 68 -96q34 -28 92 -23q4 0 25 5.5t24.5 6t19 5.5t19.5 5q4 1 18 0t20 -1l1 -16q3 -25 -57 -50
q-44 -19 -61 -20q-16 -2 -85 14q-1 0 -47 5q-30 4 -45 15q-80 56 -137 121q-33 37 -42 72q-12 44 -16 82q-1 17 8 44q17 50 18.5 56.5t1.5 38.5q1 27 8 46q13 35 54 75q18 18 35 37q23 22 39 31q13 15 40 37q13 6 39 10q33 6 36 6q30 15 68 31q45 2 91 -25.5t45 -27.5
q32 0 57.5 22t33.5 22q12 -9 23.5 -31t12.5 -38z" />
    <glyph glyph-name="H" unicode="H" horiz-adv-x="857" 
d="M804 31q0 -8 -9.5 -19.5t-18.5 -11.5q-1 0 -29.5 2t-43.5 2q-4 0 -19.5 -4t-20.5 -4t-21 4t-21 4q-4 0 -29.5 -7.5t-30.5 -7.5q-4 0 -32 8.5t-38 10.5q-5 0 -5 8t16 18q13 7 25 14q16 10 18 12q10 9 13 19q23 84 23 131q0 55 -12 90q-10 28 -44 28q-5 0 -30.5 -5.5
t-30.5 -5.5q-4 0 -26 7.5t-26 7.5q-5 0 -30 -5.5t-29 -5.5t-7.5 2t-8.5 2q-59 0 -59 -93q0 -1 5 -44q4 -47 7 -94q12 -59 54 -58v-17q-3 -1 -45 -17q-35 -13 -41 -13q-4 0 -18 7.5t-18 7.5q-5 0 -44 -11t-44 -11q-4 0 -9.5 3.5t-10.5 3.5q-4 0 -15 -3.5t-16 -3.5
q-23 0 -53 12q-40 17 -40 42q0 18 23 29q17 8 30 8q4 0 23.5 -3.5t23.5 -3.5q10 0 33.5 26t25.5 34q12 48 9 91q-1 10 -6.5 36t-5.5 39q0 9 2 16t11 34q3 10 3 28q0 4 -6.5 31.5t-7.5 37.5q3 32 -2 91q-11 34 -29 54q-11 12 -29 21t-35 18q-14 2 -29 5q-23 6 -23 25
q0 17 26 28q22 9 41 9q4 0 42.5 -9.5t53.5 -11.5q82 -12 118 -12q17 0 35.5 12.5t31.5 12.5q14 0 30 -8q20 -10 20 -23q0 -16 -20.5 -32.5t-32.5 -16.5q-4 0 -14.5 3.5t-14.5 3.5q-19 0 -23 -10q-23 -52 -23 -79q0 -14 9.5 -62.5t12.5 -53.5q14 -18 24 -20q67 -16 71 -16
t14 4t15 4t52 -4t52 -4q40 0 50 55q3 14 3 66q0 64 -23 90q-42 32 -83 65q11 29 60 30q53 0 117 3q11 1 45 3q29 2 34 2q14 0 32.5 -12.5t18.5 -25.5q0 -8 -25 -36l-34 -38q-6 -7 -16 -29q-3 -2 -6 -5t-3 -8v-202q0 -4 2 -17t2 -19q0 -13 -6 -41.5t-6 -31.5q0 -80 40 -130
q21 -11 41 -22q40 -22 40 -34z" />
    <glyph glyph-name="I" unicode="I" horiz-adv-x="427" 
d="M392 646q0 -15 -23 -27q-13 -6 -26 -11q-34 -15 -53 -31q-9 -7 -11 -28q-6 -78 -3 -98q7 -52 5 -63l-18 -68q-3 -12 -3 -74q0 -83 3 -105q12 -94 57 -94q4 0 11 4t11 4q17 0 17 -22q0 -25 -17 -31q-5 -2 -27 -2q-5 0 -18.5 2t-18.5 2q-4 0 -23 -5.5t-24 -5.5t-25.5 7
t-25.5 7q-4 0 -14.5 -6.5t-16.5 -6.5q-36 -5 -46 -5q-2 0 -28.5 5.5t-39.5 6.5q-12 8 -12 21q0 -7 5 21q25 9 76 23q9 18 26 76t17 71q0 4 -5 35t-5 42q3 27 1 80q0 3 -5 20q-4 14 -4 21q0 5 1 7q10 23 10 47q0 11 -2.5 29.5t-2.5 25.5q-1 21 -12 48.5t-62.5 34t-57.5 25.5
q-2 5 -2 14q0 18 1 21q4 11 23 14q32 5 102 5q4 0 31.5 -3.5t32.5 -3.5q4 0 28 5.5t28 5.5q5 0 23.5 -5.5t22.5 -5.5q5 0 25 3.5t24 3.5q50 0 50 -36z" />
    <glyph glyph-name="J" unicode="J" horiz-adv-x="628" 
d="M593 655q0 -31 -42 -45q-46 -16 -52.5 -30.5t-17.5 -41.5v-33q-6 -16 -15 -48q-2 -7 2 -23q3 -19 3 -24q0 -17 -1 -100q-1 -63 0 -104q2 -58 2 -52q-1 -33 -12 -55q-9 -18 -45 -62q-44 -55 -61 -55q-4 0 -11 1.5t-11 1.5q-5 0 -24 -7t-23 -7t-10 1.5t-10 1.5
q-3 0 -26 -5.5t-38 -6.5l-9 -9q-4 -4 -10 -4q-3 0 -17 8t-23 9q-69 4 -117 67q-5 14 -14 37q-17 41 -17 61q0 40 13 57q16 22 53 37q30 12 49 12q29 0 48 -26q16 -23 16 -47q0 -4 -20 -60t-20 -60q0 -19 21 -36q15 -12 38 -12q4 0 14.5 4.5t15.5 5.5q27 2 53 5q35 9 58 43
q12 18 -3 47q4 3 0 83l9 18q6 10 6 15v116q0 36 -8 84.5t-8 47.5q3 81 -15 112q-10 20 -42 30l-46 12q-1 0 -40 6q-16 2 -16 23q0 15 26 23q16 4 28 4q5 0 21.5 -7.5t20.5 -7.5q5 0 59 13t58 13q5 0 26.5 -7.5t26.5 -7.5q3 0 20 4t24 4q4 0 14 -2t15 -2t18 5.5t17 5.5h41
q8 -15 8 -31z" />
    <glyph glyph-name="K" unicode="K" horiz-adv-x="796" 
d="M765 5q-3 -4 -23 -4q-5 0 -14 5.5t-13 5.5q-5 0 -24 -9t-24 -9q-4 0 -37 9t-38 9q-4 0 -17.5 -5.5t-18.5 -5.5q-13 0 -64 4q-12 1 -38 19q4 7 24 26q12 12 12 26q0 10 -34 86q-2 6 -14.5 12t-15.5 10q-10 21 -28 55q-9 14 -53 58q-8 2 -24 7q0 -1 -49 -62q-2 -2 -9 -35
q-3 -24 -8 -70q0 -2 -3 -11.5t-3 -15.5q0 -7 9.5 -25.5t19.5 -28.5q10 -5 28 -20q2 -4 2 -10q0 -20 -38 -30q-22 -6 -41 -6l-122 14q-5 0 -34 -7t-33 -7q-30 0 -39 20q4 12 34 23q22 8 43 17t46 41q5 6 5 17q0 54 2 86.5t2 27.5q0 2 -9 82q-11 91 -15 136q4 10 8 30
q-1 49 -4 66q-6 42 -26.5 54.5t-63.5 15.5q-25 2 -25 30q0 16 8 27q36 13 50 13q5 0 20.5 -5.5t19.5 -5.5t16.5 3t18.5 3q21 0 63.5 -1t43.5 -1q4 0 38 5.5t39 5.5q4 0 34 -7.5t34 -7.5t48 13t48 13q5 0 39.5 -7.5t39.5 -7.5q4 0 12.5 3.5t12.5 3.5q5 0 29.5 -3.5t29.5 -3.5
q4 0 21 3.5t21 3.5q11 0 23.5 -12t12.5 -19q0 -12 -19 -31.5t-26 -20.5q-16 0 -48 -2q-4 -6 -17 -16q-10 -2 -26 -6q-11 -12 -40 -34q-1 0 -21 -3q-14 -3 -23 -16q-9 2 -15 16.5t-11.5 30t-23 29t-43.5 27t-34 13.5q-6 0 -44 -17q-47 -23 -65 -44q-3 -4 -4 -18
q-1 -10 -1 -21q-1 -5 -7 -16.5t-6 -15.5v-89q0 -9 14 -27t24 -18q3 0 35 11t37 15q8 15 30 42q36 31 46 31q24 0 34 -53q5 -32 25 -94q6 -12 28 -29q27 -19 39 -33q6 -8 12 -27q6 -23 9 -28q18 -36 55 -73q3 -8 10 -22q24 -28 50 -46q2 -1 70 -34q10 -6 10 -12q0 -7 -9 -16z
" />
    <glyph glyph-name="L" unicode="L" horiz-adv-x="704" 
d="M661 165q0 -46 -24 -150q-7 -7 -48.5 -17t-57.5 -10q-3 0 -31 7t-34 7q-4 0 -19 -1.5t-20 -1.5q-4 0 -37 5t-37 5q-5 0 -69 -5t-68 -5t-45.5 7t-45.5 7q-5 0 -31.5 -7t-31.5 -7q-11 0 -31 5q-27 7 -34 18q5 37 31 53q17 10 48 14q28 3 31.5 7.5t12.5 21.5q12 41 12 80v90
q0 4 -9 31t-9 32q0 4 10.5 66t10.5 67q0 27 -6 39q-17 35 -20 42q-9 8 -31 24q-11 5 -40 12q-23 5 -39 19q-9 7 -9 18q0 10 9 17q18 11 36.5 21t39.5 9q3 -1 41 -6t43 -5q4 0 51 5.5t51 5.5t18 -5.5t19 -5.5q4 0 17 1.5t18 1.5q34 0 79 -9q23 -26 23 -40q0 -16 -14 -27
t-28 -11q-4 0 -17.5 1.5t-19.5 1.5q-31 0 -55 -12q-27 -15 -27 -40v-348q0 -3 6.5 -19t6.5 -24q1 -51 20 -70q15 -16 53 -16q4 0 34.5 5.5t34.5 5.5t9 -1.5t9 -1.5q50 0 79 25q34 30 52 105q5 19 36 66q24 2 31 -15q16 -42 16 -88z" />
    <glyph glyph-name="M" unicode="M" horiz-adv-x="956" 
d="M919 662q0 -7 -9.5 -21.5t-19.5 -19.5q-5 -2 -24.5 -1t-29.5 -9q-20 -19 -18 -59q0 -5 -5.5 -18.5t-5.5 -18.5l6 -165q1 -4 0 -75t-1 -76q1 -32 2 -41q3 -37 13 -51.5t81 -50.5q4 -3 15 -15.5t12 -17.5q-4 -5 -3 -9q-24 0 -71.5 -6t-48.5 -6q-19 0 -24 0.5t-16 7t-15 6.5
q-10 -3 -27 -7q-11 -1 -86 -1q-41 -1 -41 2q0 1 1 3t1 4q0 6 -10 13q0 7 14 16q11 6 23 13q19 15 27 32q1 4 7.5 31t8.5 85q-5 23 -8 77q0 4 4 27.5t4 28.5q0 3 -12 56q1 19 -1 55q-3 17 -16 17q-12 0 -31 -18l-13 -1q-20 32 -21 55q-1 18 12 81t20 72q19 23 44 23
q4 0 20 -3.5t20 -3.5q24 7 69 17q9 2 84 3q67 0 69 -31zM562 363q1 -5 -16 -31q-21 -35 -22 -36q-3 -5 -1 -19q2 -15 0 -20q-3 -12 -16 -31q-15 -22 -19 -33q-1 0 2 -26q3 -32 3 -55q0 -80 -37 -81q-7 0 -18.5 6t-13.5 14q-8 38 -29 116q-11 24 -29 69q-2 14 -8 37
q-15 20 -36 58q-11 38 -28 72q-7 22 -14 43q-16 37 -44 36q-21 0 -27 -18q-8 0 -18 22q-16 35 -21 44q-12 19 -38 45q-33 34 -50 34q-4 0 -11.5 -2t-12.5 -2q-21 0 -36.5 12t-16.5 33q0 7 10 18t17 12q83 6 107 6q34 0 69 -10.5t51 -10.5q4 0 24 2t25 2q11 0 25 -10
q11 -8 15 -16q13 -27 28 -99q8 -9 20 -29q11 -27 24 -54q3 -15 12 -44q7 -16 25 -47q25 -43 36 -42q5 0 64 49q0 -1 2.5 -5t2.5 -9zM109 84q14 2 28 19q7 4 12 12q13 36 32 106q10 54 8 122q0 4 -12 30.5t-13 31.5q0 9 8.5 17.5t18.5 8.5q12 0 15 -13q7 -25 13 -65
q6 -13 17 -40v-52v-115q2 -34 18 -63q8 -13 57 -31q10 -6 23 -18l-9 -18q-35 -11 -190 -13q-53 0 -73 9q-29 12 -29 32q0 24 30 25q16 6 46 15z" />
    <glyph glyph-name="N" unicode="N" horiz-adv-x="820" 
d="M813 648q0 -20 -11 -26q-23 -7 -45 -15q-32 -11 -49.5 -34t-20.5 -45q1 -15 1 -44q-1 -7 -5.5 -24t-4.5 -22q0 -4 7.5 -45t7.5 -46q0 -3 -4 -122q-5 -132 -6 -176q1 -4 5 -11q4 -17 -4 -34q-2 -2 -7 -8q-37 -2 -79 31t-56 76q-10 30 -18 41q-16 26 -44 69q-20 19 -55 61
q-8 17 -29 48q-50 58 -97 108q-3 1 -13 1q-31 0 -41 -23q-5 -12 -5 -43q0 -21 14 -91q13 -65 10 -104q-2 -30 4 -47q4 -11 24 -37q9 -12 55 -17q39 -4 39 -30q0 -20 -23 -31q-19 -9 -41 -8q-25 1 -87 -4q-11 -3 -33 -7q-12 -1 -99 -1q-37 0 -66 8q-6 2 -13 12t-7 17
q0 18 20 38.5t37 21.5q14 0 43 3q11 2 30.5 17.5t21.5 27.5q0 18 2 55q2 8 11.5 24.5t9.5 21.5q0 2 -6 46t-7 65q-1 10 3 35q5 29 5 60q1 22 -19 75q-26 69 -60 69q-3 0 -8 -1.5t-10 -1.5q-88 0 -88 56q0 46 48 46q4 0 30 -3.5t30 -3.5q5 0 26 5.5t25 5.5t42 -8
q44 -9 65 -12q4 0 16.5 -6.5t17.5 -6.5q4 0 11 3.5t11 3.5q15 0 20 -11.5t6 -55.5q1 -19 22 -36q29 -25 34 -33q3 -15 14 -44q4 -6 17 -15q17 -10 18 -11q29 -27 50 -58q4 -13 17 -40q31 -43 61 -43q20 0 48 14q1 5 -4 18.5t-6 19.5t-1 74q0 4 -3.5 14.5t-3.5 14.5q0 5 7 39
t7 38q0 13 -10 28t-25 20q-100 32 -100 64q0 25 49 25q5 0 49 -5.5t48 -5.5t20 5.5t20 5.5t17 -3.5t18 -3.5t30.5 9t29.5 9q14 0 27 -17.5t13 -28.5z" />
    <glyph glyph-name="O" unicode="O" horiz-adv-x="765" 
d="M722 367q0 -12 -17 -87q-21 -90 -39 -129q-19 -42 -66 -82q-30 -22 -94 -68q-15 -11 -44 -19q-24 -8 -34 -8q-78 0 -128 12q-9 2 -30.5 17.5t-26.5 15.5q-3 0 -12.5 -4t-14.5 -4q-26 0 -67 27q-13 9 -24 26l-18 28q-6 9 -28 24.5t-28 26.5q-32 62 -39 111q-1 4 4 17.5
t5 19.5q0 3 -1 6q-12 27 -12 85q0 29 17 58q20 34 41 67q16 28 33 56.5t37 47.5q34 31 72 41q42 12 70 30q20 12 46 12q19 0 152 -23q7 -8 30 -24q104 -46 175 -161q5 -8 23 -63.5zM558 279q0 81 -20 198q-11 68 -44 118q-11 16 -42 33q-26 15 -35 15q-5 0 -10 -2.5t-9 -3.5
q-15 3 -42 4q-14 -7 -35 -15q-4 -1 -25 -8t-25 -7q-1 0 -1 1t4 4q-23 -18 -33 -47q-19 -56 -37 -111q-15 -51 -15 -105q0 -46 23 -209q6 -43 38 -80q37 -42 81 -42q5 0 28.5 5.5t28.5 5.5t26 -3.5t25 -3.5q12 0 37 12t30 18q28 34 36 95q3 40 6 81q10 53 10 47z" />
    <glyph glyph-name="P" unicode="P" horiz-adv-x="769" 
d="M725 504q0 -16 -42.5 -64.5t-54.5 -51.5q-6 -1 -76 -12q-52 -7 -73 -18l-39 5q71 45 90 72t19 80q0 37 -20 64q-29 33 -59 66q8 2 -45 2q-2 0 -28 -5q-29 -6 -46 -8q-20 -2 -42 -52q-19 -46 -19 -72q0 -5 4.5 -14.5t5.5 -14.5q-1 -20 2 -62q1 -10 9 -31.5t8 -25.5
q0 -10 -16.5 -37.5t-16.5 -56.5q0 -43 12 -83q6 -7 16 -22q3 -8 1.5 -29.5t4.5 -32.5q14 -23 63 -41q42 -15 42 -27q0 -11 -21.5 -24t-28.5 -13q-97 -15 -200 0q-3 0 -10.5 4t-13.5 4q-4 0 -33.5 -9.5t-33.5 -9.5q-20 0 -45 11q-30 13 -30 30q0 6 9.5 15.5t17.5 11.5
q17 4 54 18q8 1 22 6q25 19 27 35q16 103 16 251q0 2 -5 27.5t-4 38.5q3 37 3 60q0 73 -30 98q-14 12 -44 12q-8 0 -23 -1t-21 -1q-16 0 -30 13t-14 29q0 24 35 38q26 10 56 10q5 0 38.5 -5.5t38.5 -5.5q3 0 34.5 5.5t36.5 5.5t49.5 -9t49.5 -9q4 0 35 10.5t36 10.5
t39.5 -14.5t39.5 -14.5q3 0 22.5 5.5t24.5 5.5q10 0 50 -10q48 -12 75 -24q11 -5 33.5 -31t35.5 -49q9 -16 9 -54z" />
    <glyph glyph-name="Q" unicode="Q" horiz-adv-x="781" 
d="M728 356q0 -41 -34 -103q-5 -17 -16 -54q-11 -23 -35 -71q-10 -10 -29 -33q-21 -27 -26 -44q-3 -9 -3 -33q0 -39 12.5 -53t63.5 -38l32 -2q29 -3 29 -18q0 -9 -26 -35q-17 -16 -34 -33q-9 -9 -24 -9h-63q-29 0 -31 1q-54 28 -80 57q-6 19 -23 54q-4 6 -22 21
q-15 12 -15 17q0 8 10 17q14 11 17 15t10 17q12 38 12 54q0 8 -2 13q-9 24 -9 26v25q3 1 9 5q10 -6 48 -29q29 -18 34 -18q38 0 38 97q0 3 -6 18.5t-7 25.5q-1 13 1 39q2 31 2 30v96q0 95 -25 124q-24 26 -48 41q-18 12 -47.5 24.5t-36.5 12.5q-45 0 -89 -12q-10 -3 -24 -24
l-18 -30q-2 -3 -28 -23q-22 -16 -26 -31q-10 -39 -20 -110q-8 -58 -8 -70q0 -3 9 -55q9 -57 12 -83q7 -12 19 -39q16 -47 35 -55q54 -21 66 -31q23 -17 23 -54q0 -26 -30 -26q2 0 -63 18q-18 5 -43 27q-10 3 -28 13q-9 12 -28 34q-11 5 -31 20q-20 25 -70 110q-1 9 -5 29
q-7 9 -19 28q-15 32 -15 74q0 11 13 42q1 13 9 40q11 24 35 71q16 19 47 61q1 9 9 29q9 6 22 18q27 38 72 47q33 4 67 8q6 6 20 15q32 16 45 16q4 0 24 -3.5t25 -3.5q3 0 22.5 2t24.5 2q21 0 29 -6q41 -21 118 -68q7 -5 15 -21q9 -21 11 -24q14 -9 36 -30q13 -16 36 -67
q9 -20 18 -56q7 -31 7 -39zM365 142q-15 -19 -40 -29h-11q-5 4 -5 10q0 9 15 22.5t22 13.5h19v-17z" />
    <glyph glyph-name="R" unicode="R" horiz-adv-x="781" 
d="M757 75q0 -39 -53 -69q-19 -10 -59 -19q-33 -7 -44 -7q-9 0 -47 20t-47 35q-12 19 -18 54q2 23 1 68q-5 11 -12 32q2 18 -2 53q-10 17 -28 50q-6 12 -46 22q-35 9 -36 37q23 22 63 22q3 0 14 -1.5t15 -1.5q27 0 57 63q8 17 8 46q0 54 -43 83q-25 17 -85 34q-1 0 -21 8
q-14 5 -22 5q-22 0 -42.5 -20t-30.5 -43q-8 -17 -8 -53q0 -3 9 -21t11 -25q-1 5 -1 -40q0 -7 8 -26.5t8 -23.5t-6 -13t-7 -12q-15 -104 -15 -123q0 -3 5 -25t6 -30l-2 -39q-1 -26 6 -39q8 -16 35 -30q31 -15 33 -16l5 -14q0 -22 -51 -21q-4 0 -33 5t-33 5t-17.5 -4.5
t-21.5 -5.5h-42q-4 0 -23 1.5t-24 1.5q-3 0 -14 -7t-16 -7q-11 0 -32.5 16t-21.5 29q0 16 14 16q5 0 7.5 -2t6.5 -2q15 0 50 35q2 2 17 10q11 6 12 14q12 89 12 220q0 3 -5.5 30.5t-7.5 38.5q-2 15 1 42q4 35 4 43q0 25 -11 54q-14 37 -40 59q-18 15 -49 15q-5 0 -7.5 -1.5
t-6.5 -1.5q-13 0 -20.5 11t-7.5 24q0 16 15 20q9 -1 28 -1q90 8 109 5q12 -2 45 1q37 4 35 4q4 0 21 -3.5t21 -3.5t39 5.5t40 5.5q4 0 39 -7.5t39 -7.5q5 0 26 5.5t25 5.5q27 0 40 -15q19 -25 36 -34q20 -3 59 -17q7 -4 11 -14q7 -16 8 -17q24 -36 24 -69q0 -24 -8 -51
q-4 -12 -21 -20q-24 -12 -27 -14q-24 -26 -74 -70q-10 -3 -31 -14q3 -6 15 -13q15 -10 16 -11q36 -35 49 -58t30 -74t31 -75q3 -6 21 -13t25 -7q5 0 23 9t23 9q19 0 19 -20z" />
    <glyph glyph-name="S" unicode="S" horiz-adv-x="556" 
d="M516 229q0 -74 -26 -126q-20 -40 -63 -77q-46 -39 -81 -39h-67q-52 0 -72.5 21.5t-50.5 21.5q-22 0 -57 -19q-47 -27 -57 -31q-11 12 -20 34.5t-9 37.5q0 3 7 17t8 20q-3 16 -4 68q3 60 18 104q1 5 11 12t16 7q17 0 29 -27q2 -3 13 -38q10 -17 26 -50q2 -16 13 -42
q18 -22 61 -46q60 -32 85 -32q4 0 15.5 6t17.5 7q46 1 80 32.5t34 73.5q0 23 -9.5 36t-49.5 44q-12 9 -59 20q-23 5 -38 10q-25 11 -50 21q-46 18 -65 18q-4 0 -12.5 -2t-12.5 -2q-24 0 -60 9q-18 40 -58 117q-20 39 -20 49q0 9 20 49q1 1 9 32q6 22 18 32q21 18 43.5 37
t46.5 26q54 14 122 14q24 0 39.5 -25t44.5 -25q15 0 60 15q5 1 18 9t18 8q11 0 20 -20.5t9 -31.5q0 -2 -5 -25t-6 -36l-6 -70q-10 -64 -37 -64q-12 0 -20 45q-5 16 -14 46q-10 34 -46 59l-50 28q-18 12 -64 12q-63 0 -97 -43q-7 -9 -7 -34q0 -53 47 -73q19 -2 52 -9
q3 -7 11 -16q98 -40 118 -40q4 0 17 2t18 2q18 0 26 -11q14 -18 17 -21q13 -7 25 -14q18 -10 27 -23q8 -21 31 -72q2 -3 2 -18z" />
    <glyph glyph-name="T" unicode="T" horiz-adv-x="706" 
d="M641 620q0 -53 -18 -177q-1 -8 -15 -13t-19 -3q-13 14 -31 40q-55 121 -85 121q-6 0 -36.5 -12.5t-32.5 -18.5q-8 -19 -8 -51q0 -30 5 -62.5t5 -45.5q0 -19 -6 -41v-32v-50q0 7 9 -60q2 -17 -0.5 -51t-1.5 -50q2 -16 18 -39t32 -23q5 0 31 7t30 7q14 0 32 -45
q0 -34 -49 -34q-4 0 -29 4t-29 4t-22.5 -4t-22.5 -4q-5 0 -44 9t-44 9q-8 0 -25 -10q-20 -12 -26 -14q-16 -4 -46 -4q-21 0 -51 14q-38 17 -38 39q0 14 15 17q32 3 94 13q36 7 31 72q-3 39 11 154q0 2 3 11t3 14q0 4 -3 11t-3 10v72q-4 74 -16 121q-4 12 -19.5 27t-30.5 20
q-4 2 -17 2q-35 0 -63 -23.5t-40 -64.5q-2 -14 -9 -40q-5 -14 -18 -23.5t-22 -9.5q-25 0 -25 32q0 41 8 84q-1 -8 -1 51q0 79 49 79q4 0 14 -2.5t16 -2.5q60 0 179 1t113 1q4 0 33.5 7t70.5 7q5 0 21.5 -3.5t20.5 -3.5q5 0 22.5 3.5t21.5 3.5q21 0 39.5 -15.5t18.5 -34.5z
" />
    <glyph glyph-name="U" unicode="U" horiz-adv-x="678" 
d="M637 624q0 -27 -18 -35h-24q-18 0 -23 -14q-15 -37 -15 -96q0 -4 7 -56.5t7 -56.5q0 -64 -4 -116q-10 -46 -29 -147q-3 -18 -62 -67q-19 -17 -60 -51q-18 -5 -15 -5q-3 0 -18 7.5t-20 7.5q-4 0 -27 -7.5t-27 -7.5q-5 0 -14 4q-13 5 -16 6q-20 3 -60 13q-10 7 -31 19
q-13 2 -39 9q-25 11 -35 25l-24 36t-17 41q-5 29 -5 51l17 325q0 15 -8 37q-10 28 -23 28q-3 0 -11.5 -4t-13.5 -4q-27 0 -27 45q0 52 54 52q4 0 30.5 -3.5t30.5 -3.5t26.5 3.5t27.5 3.5q4 0 20.5 -7t21.5 -7q3 0 12.5 3.5t13.5 3.5t15.5 -9t15.5 -9q13 0 26 14h12
q11 -23 11 -28q0 -36 -22 -36q-4 0 -10.5 1.5t-10.5 1.5q-16 0 -40.5 -23.5t-24.5 -42.5q0 -4 4.5 -17t4.5 -18q9 -83 9 -175v-119q0 -50 37.5 -92t84.5 -42q30 0 67 17.5t47 39.5q6 12 12 71q12 106 12 99q0 12 -5 43t-4 47q1 10 7.5 38.5t6.5 32.5q0 67 -25 110
q-6 9 -43 30q-33 19 -33 34q0 16 35 31q29 12 38 12q4 0 24.5 -4t24.5 -4t19 7.5t19 7.5q2 0 21.5 -3.5t29.5 -3.5q4 0 12 -2q21 -26 21 -41z" />
    <glyph glyph-name="V" unicode="V" horiz-adv-x="800" 
d="M689 670q-5 0 -33 -1.5t-32 -1.5t-33 3.5t-33 3.5q-36 0 -95 -20q-19 -6 -19 -29q0 -22 45.5 -42t45.5 -56q0 -35 -27 -87q-4 -8 -5.5 -30.5t-3.5 -26.5q-8 -19 -53 -93q-4 -10 -15 -27q-16 -4 -14 -4q-10 0 -14 6q-14 38 -26 65q-7 7 -16 21q-3 16 -10 43.5t-33 96.5
q-23 61 -23 64q0 28 41.5 32.5t41.5 25.5q0 20 -29 34q-25 13 -56 18q-49 9 -62 9q-4 0 -54.5 -9t-55.5 -9q-4 0 -21.5 3.5t-21.5 3.5q-53 0 -53 -36q0 -9 1 -13q11 -19 28 -43q19 -5 45 -16q20 -17 38 -45l30 -50q4 -13 13 -36q22 -36 54 -99q0 -17 5 -43q14 -24 33 -61
q8 -27 27 -75q10 -7 22 -18q11 -40 37 -115q12 -26 29 -26q19 0 31 23q5 17 13 46q20 53 63 154q7 5 19 18q17 30 17 51q0 5 6 40q8 30 17 68q2 15 9 25q12 15 17 27l14 46q10 29 31 46q6 4 12 16q15 32 64 46q28 9 50 9q2 0 12.5 15.5t10.5 17.5q0 28 -25 28q-5 0 -10 -3
q-19 10 -49 10z" />
    <glyph glyph-name="W" unicode="W" horiz-adv-x="1000" 
d="M54 678q4 0 14 -4t15 -4q4 0 22 3.5t22 3.5t52 -9t53 -9q4 0 26 7t26 7t21 -11t21 -11q5 0 65 11t64 11q-2 0 37.5 -2.5t75.5 -2.5q65 0 81 -1q6 -1 22.5 -4.5t21.5 -3.5q4 0 59.5 14t59.5 14q157 0 157 -57q0 -26 -36 -56q-6 2 -13 2q-41 0 -66 -49q-2 -14 -12 -43
q-4 -5 -29 -30q-21 -20 -25 -37q1 -16 -2 -50q-12 -23 -29 -71q4 -15 4 -47q-6 -20 -17 -57q-5 -18 -21 -45q-23 -40 -24.5 -46t-3.5 -20q-8 -35 -25 -65q-6 -11 -26 -11q2 0 -17 4q-21 35 -31 61q-9 34 -27.5 105.5t-40.5 126.5q-10 28 -32 82q-11 13 -26 36q0 21 -5 65
q-9 36 -46 96q-5 10 -18 12q-44 8 -84 8q-16 0 -25 -30q-8 -23 -8 -45q0 -9 12 -70q14 -70 24 -102q6 -18 37 -68q7 -6 11 -6q5 0 22 21q24 28 31 34q14 6 12 6q12 -4 12 -31q0 -17 -9 -43q-11 -31 -22 -61q-2 -8 -16 -93q-5 -10 -15 -29q-2 -12 -9 -39q-10 -26 -31 -47
q0 -1 -8 -1t-11 5q-3 18 -13 46q-39 66 -64 144q-11 32 -41 164q-6 7 -18 28q-4 8 -6 28q-2 24 -4 30q-5 23 -27 54.5t-51 52.5q-9 18 -29 43q-13 14 -40 31q-12 10 -26 32q-4 23 49 23zM770 517q0 38 -12 54.5t-45 39.5q-2 1 -20 1q-15 0 -20 -1q-7 -5 -21 -12
q-15 -2 -38 -12q-19 -20 -19 -71q0 -5 2 -18q2 -16 4.5 -21t9.5 -14q11 -24 25 -64q0 -23 6 -68q8 -29 24 -43q4 -1 8 -1q-4 0 14 5q31 24 49 71q4 25 13 68q6 22 12 43q8 26 8 43z" />
    <glyph glyph-name="X" unicode="X" horiz-adv-x="736" 
d="M679 26q0 -9 -17.5 -18t-25.5 -9q-3 0 -14 2q-9 1 -13 0q-28 -5 -20 -5q-4 0 -13 3.5t-14 3.5q-4 0 -11.5 -2t-11.5 -2q-5 0 -30 7.5t-29 7.5q-5 0 -52.5 -5.5t-52.5 -5.5q-25 0 -37 7v25q7 6 31.5 11t34.5 11q16 10 16 34q0 26 -15 49q-16 15 -45 47q-6 19 -13 39
q-12 32 -27 32q-13 0 -46 -52q-19 -31 -39 -62q-3 -5 -16 -9q-16 -5 -20.5 -9t-4.5 -19q0 -33 37.5 -56.5t37.5 -26.5q0 -8 -4 -14q-29 0 -141 -6q-3 0 -13.5 -4t-15.5 -4q-16 0 -40 8q-30 12 -30 28q0 27 31 37l42 10q16 9 46 18q16 5 38 31q4 5 8.5 23t8.5 23q11 9 31 26
q5 11 15 32q12 12 34 36q8 10 8 29q0 16 -13 29q-20 21 -21 22q-9 14 -10 51q-47 46 -48 47q-28 29 -38 54q-18 41 -49 73q-6 7 -49 14q-59 10 -59 30q0 15 16.5 32.5t30.5 17.5q4 0 29.5 -5t29.5 -5t76 8.5t77 8.5q89 0 89 -25q0 -11 -14 -21.5t-20 -10.5q-4 0 -5 2t-5 2
q-19 0 -36 -11t-17 -29q0 -6 15 -35q17 -32 33 -52q11 -8 30 -25q3 -8 9 -22q11 -17 28 -17q13 0 19 8q22 28 48.5 74t26.5 53q0 27 -32.5 41t-32.5 34q0 19 15 22t54 14q34 9 39 9q10 0 61 -7q60 -8 92 -16q6 -1 12.5 -11t6.5 -16q0 -16 -12 -21q-7 -3 -40 -20
q-25 -13 -30 -13t-7.5 2t-7.5 2q-16 0 -47 -16q-27 -13 -56 -55q-7 -19 -28 -54q-16 -13 -44 -43q-15 -24 -15 -57q0 -22 8 -39q9 -6 24 -18q4 -5 58 -78q28 -28 77 -90q3 -5 13 -31q7 -17 24 -29q4 -2 53 -16q34 -9 34 -33z" />
    <glyph glyph-name="Y" unicode="Y" horiz-adv-x="698" 
d="M530 449q-10 -32 -28.5 -58t-34.5 -72q-25 -74 -26 -78q-5 -11 -5 -30q0 -3 9 -43q9 -43 10 -59q1 -9 15 -28t30 -31q13 -1 26 -1q22 -5 19 -36q-2 -4 -11 -5q-6 0 -16 1l-10 1q-4 0 -19.5 5.5t-19.5 5.5q-5 0 -20 -7.5t-20 -7.5q-4 0 -15 6.5t-12 7.5q-23 8 -39 8
q-22 0 -63.5 -16t-49.5 -16q-58 0 -58 48q0 32 41 64q47 38 59 70q4 13 4 35l-13 57q-13 54 -60 133q-34 56 -68 111q-7 15 -14.5 29.5t-17.5 14.5q-4 0 -29 7.5t-29 7.5q-67 0 -67 57q0 18 12 33t30 15q4 0 38 -9t38 -9t43.5 9t43.5 9q5 0 68 -10.5t67 -10.5q48 0 94 10.5
t75 10.5q13 0 50 -5q2 0 11.5 -4.5t15.5 -4.5q4 0 15 2t16 2l25 10l18 -21v-30q0 -2 -27 -20q-30 -19 -31 -20q-31 -17 -43 -42q-5 -10 -15.5 -52t-11.5 -44zM505 504q0 52 -2 57q-15 12 -30 23q-40 33 -44 33h-40q-4 0 -18 1.5t-18 1.5q-46 0 -46 -98q0 -36 5 -44
q21 -29 52 -76q11 -29 37 -71q20 -16 32 -16q4 0 7 13q2 10 4 19q11 25 25 62q1 5 20 45q16 34 16 50z" />
    <glyph glyph-name="Z" unicode="Z" horiz-adv-x="582" 
d="M540 150q0 -144 -72 -144q-4 0 -36.5 -1.5t-37.5 -1.5q-4 0 -31 5.5t-32 5.5q-4 0 -40.5 -7.5t-39.5 -7.5q-6 0 -25.5 7.5t-45.5 7.5q-4 0 -41.5 -7.5t-42.5 -7.5q6 0 -33 6q-6 1 -20 0q-16 -2 -19 -2q-20 0 -20 34q0 25 26 55.5t53 60.5q7 9 14 37q7 32 12.5 41.5
t22.5 21.5q14 10 27 20t41 52q16 14 44 47q2 13 13 39q11 17 21 50t18 46t30 30q13 10 13 33q0 27 -29 41t-32 48q4 4 11 10q7 2 39 12q27 8 32 8t16.5 -3.5t15.5 -3.5q5 0 22 3.5t21 3.5q72 0 72 -79q0 -49 -19 -75q-8 -10 -37.5 -29.5t-39.5 -34.5q-13 -33 -42 -87
q-14 -18 -57 -93q-23 -28 -59 -79q-1 -9 -6 -25q-23 -43 -23 -60q0 -23 4 -28q12 -14 37.5 -30t40.5 -16q31 0 79 38q39 30 57 55q12 17 27 52q22 51 24 56h28q19 -28 19 -104zM48 667q32 20 67 20q4 0 19 -5.5t21 -5.5q4 0 11 2t10 2q11 0 18.5 -8.5t7.5 -15.5
q0 -22 -48 -65q-32 -27 -63 -54q-5 -5 -20 -36q-5 -10 -22 -21t-26 -12q-4 4 -11 12q-2 20 -8.5 42t-6.5 37q0 12 3 28q10 40 10 55q0 7 -3 7q3 7 16 10q18 4 25 8z" />
    <glyph glyph-name="bracketleft" unicode="[" horiz-adv-x="202" 
d="M38 -77q-4 0 -8 18q-4 15 -4 19q0 2 6 32t6 32t-9 29l6 46l-3 43v61q15 43 15 46q0 1 -7.5 27t-7.5 27q0 3 6 49l6 32q-12 38 -12 41q0 1 3 8t3 9v46q0 1 -1.5 50t-1.5 51q0 3 12 82l-12 72h17q22 0 27 5t45 -8q16 -5 31 3l-6 -40q-49 2 -59 -3q-5 -3 -5 -12q0 -13 8 -34
l3 -51q-9 -34 -12 -34t3 -41l-3 -40l-6 -52q18 -58 18 -63q0 -29 5 -35q3 -3 -8 -40q8 -64 5 -64q-2 0 -2 -60q0 -8 2 -58q-7 -61 -17 -125q-2 -2 5 -12.5t9.5 -10.5t51.5 -3l12 -16q-3 -15 -8 -30q-90 -2 -113 4z" />
    <glyph glyph-name="backslash" unicode="\" horiz-adv-x="17" 
 />
    <glyph glyph-name="bracketright" unicode="]" horiz-adv-x="202" 
d="M147 744q4 0 8 -16.5t4 -21.5q0 -1 -6 -31.5t-6 -31.5q0 -3 9 -29l-6 -46l3 -43v-61q-14 -43 -14 -46q0 -1 7 -27t7 -28t-6 -49l-6 -31q12 -38 12 -41q0 -1 -3 -8.5t-3 -8.5v-46q0 -2 1.5 -51t1.5 -50q0 -3 -11 -82l11 -72h-17q-22 0 -27 -5q-5 -6 -45 8q-16 5 -30 -3
l5 40q49 -2 59 3q5 2 5 12q0 13 -8 34l-2 50q8 35 11 35t-3 40l3 41l6 52q-17 58 -17 63q0 29 -6 35q-3 2 8 40q-8 63 -5 63t3 61q0 8 -3 58q7 61 17 125q2 2 -5 12.5t-9.5 10.5t-51.5 3l-12 16q3 15 9 30q89 1 112 -4z" />
    <glyph glyph-name="asciicircum" unicode="^" horiz-adv-x="449" 
d="M45 709l-12 15q3 9 3 11.5t20.5 13.5t31 13.5t33.5 26.5q3 3 23.5 17.5t23 14.5t40.5 20l68 -41l68 -38l36 -26q-12 -21 -12 -24q-50 6 -50 8.5t-22.5 15t-25 12.5t-31.5 3l-39 8q-44 -14 -46.5 -14t-55.5 -21z" />
    <glyph glyph-name="underscore" unicode="_" horiz-adv-x="501" 
d="M-4 -94h505v-47h-505v47z" />
    <glyph glyph-name="grave" unicode="`" horiz-adv-x="316" 
d="M260 728l-18 17q-19 11 -47 25q-4 2 -21.5 20t-21.5 18t-66 34q-27 6 -31 6q-18 0 -18 -31q0 -3 5 -32q18 -13 38 -29q1 -1 46.5 -8.5t45.5 -10.5t36 -16t37 -14q3 -3 15 21z" />
    <glyph glyph-name="a" unicode="a" horiz-adv-x="533" 
d="M519 132q0 -4 -7 -27q-10 -28 -12 -39q-8 -9 -20 -26q-4 -13 -20 -36q-8 -1 -30.5 -3t-28 -2t-7 -1.5t-6.5 -1.5q-10 0 -39.5 27t-56.5 27q-14 0 -23 -7q-17 -15 -35 -24q-22 -12 -95 -28q-43 -10 -37 -10q-7 0 -29 11q-25 12 -37 23q-23 22 -23 55q0 25 13.5 48t27.5 44
q35 57 139 87q17 -1 47 2q19 7 38 29.5t19 39.5q0 33 -19 65q-23 37 -55 37q-11 0 -32 -7q-24 -8 -28 -18q-3 -14 -9 -43q-6 -22 -24 -46q-22 -28 -44 -28q-7 0 -19 9t-16 17q-12 26 -12 76q0 27 22 42q15 6 44 20q6 5 15 13q9 3 45 20q31 14 37 14l53 -5q4 0 17.5 -6.5
t19.5 -6.5q39 0 45 -6q61 -61 61 -156q0 -13 -2 -26q0 -5 5.5 -19t5.5 -17q0 -5 -7.5 -30.5t-7.5 -29.5q0 -5 4.5 -17.5t4.5 -17.5q-2 -14 -1 -43q5 -23 20 -43h24q7 9 24 54q14 34 24 34q4 0 10.5 -2t12.5 -2q0 -1 2 -8t2 -12zM297 167q0 19 -13 35q-16 19 -41 19
q-9 0 -33 -8q-27 -9 -40 -19q-37 -27 -37 -87q0 -18 14.5 -33.5t34.5 -15.5q5 0 15.5 1.5t15 1.5t15.5 6.5t13 6.5q25 6 42 37q14 28 14 56z" />
    <glyph glyph-name="b" unicode="b" horiz-adv-x="574" 
d="M298 472q-10 -21 -24 -21h-19v13q6 4 19 12zM531 221q0 -3 -6.5 -14.5t-6.5 -19.5q-2 -30 -24 -73q-21 -39 -41 -77q-47 -18 -77 -40q-18 -12 -43 -12q-19 0 -30 5q-16 22 -16 29q0 6 12 15t19 9q5 0 4 -2t4 -2q41 0 68 49q19 35 23 74q1 11 1 52q0 42 -1 53
q-6 12 -15.5 41.5t-24.5 89.5q-3 18 -26.5 36.5t-23.5 34.5q0 9 16 20q13 9 21 9q9 0 27 -15q10 -8 19 -17q13 -4 40 -13q11 -4 18 -18q1 -15 6 -44q12 -18 30 -54q27 -84 27 -116zM247 29q-10 -12 -33 -12t-34.5 11t-19.5 11q-5 0 -22 -12.5t-22 -12.5q-9 0 -32 15
q2 17 -3 121q3 34 6 95q0 29 -7.5 85.5l-7.5 56.5q0 4 7.5 40t7.5 40q0 25 -9 69q-5 28 -23 42q-9 6 -43 12q-20 4 -20 30q0 32 52 45q31 8 68 8q33 0 36 -1q30 -18 39 -64l6 -64q3 -9 9 -29l2 -34q4 -24 25 -34q0 -3 -8 -14t-9 -17q-7 -45 -22 -135q2 -19 1 -58
q0 -4 -3 -17t-3 -17q0 -5 6 -16q6 -14 7 -19q0 -17 10 -50q12 -19 24 -39t15 -36z" />
    <glyph glyph-name="c" unicode="c" horiz-adv-x="504" 
d="M456 154q0 -20 -42 -80q-18 -27 -36 -34q-113 -44 -119 -44h-11q1 0 -31 13q-28 10 -57 19q-35 13 -64 38q-10 9 -58 76q-14 20 -18 37q-12 45 -12 88q0 29 8 45q44 83 98 137q12 12 45 23q28 8 38 8q5 0 8.5 -1.5t8.5 -1.5q4 0 13 4.5t12 4.5q41 9 68 9q26 0 32 -6
q46 -42 63 -69q21 -33 21 -71q0 -26 -25.5 -55t-41.5 -29q-28 0 -46 19.5t-18 40.5q0 4 7.5 25.5t7.5 25.5q0 20 -5 25q-29 28 -50 28q-34 0 -67 -19q-12 -7 -29 -44.5t-17 -56.5q0 -3 3.5 -16t2.5 -19q-2 -13 -2 -25q0 -27 11 -66q13 -46 15 -65q5 -7 7 -14q44 -36 67 -36
q4 0 20.5 2t21.5 2q28 0 71 60t54 60q15 0 30.5 -12t15.5 -26z" />
    <glyph glyph-name="d" unicode="d" horiz-adv-x="574" 
d="M557 32q0 -19 -16.5 -29.5t-36.5 -10.5q-8 0 -48 6q-44 7 -65 13q-8 3 -25 13q-13 8 -26 8q-4 0 -18 -6q-17 -6 -21 -8h-42q12 20 33.5 34.5t36.5 13.5q13 11 15 53q1 36 3 72q10 78 10 65q0 54 -16 98q-5 12 -33 58q-13 9 -34 26q-7 8 -14 14t-20 6q-12 0 -52 -12
q-26 -43 -34 -58q-15 -29 -19 -56q-4 -32 -4 -87q0 -3 4 -28t5 -37q-2 -13 -1 -36q5 -17 11 -52q2 -9 11.5 -29.5t9.5 -25.5q0 -9 -13.5 -16t-19.5 -7q-11 0 -56 37q-48 39 -52 59q-2 29 -6 80q-6 7 -16 22q-1 3 -1 35q0 50 23 108q6 17 26 51q11 21 33.5 42.5t39.5 26.5
q59 20 97 20q4 0 19 -9t19 -9t9 3.5t9 3.5q3 0 14 -13t26 -13q38 0 38 49q0 31 -5 55q-1 6 -12 13l-18 12q-11 10 -33 27q-9 2 -29 9q-15 9 -15 28q0 10 14 21.5t24 11.5q4 0 18 -1.5t18 -1.5q18 0 29.5 3.5t21.5 3.5q20 0 52.5 -14t35.5 -24q16 -55 16 -82q0 -5 -4.5 -15.5
t-5.5 -16.5q3 -14 5 -43q-5 -35 -11 -102q-6 -2 -6 -11q0 5 6 5q2 0 2 -92q0 -4 4.5 -11.5t4.5 -10.5q0 -55 2 -164q1 -7 15.5 -24.5t20.5 -17.5h16q13 -1 20 -1q11 -35 11 -32zM85 420l-5 2l-5 -9l5 -2z" />
    <glyph glyph-name="e" unicode="e" horiz-adv-x="515" 
d="M459 152q0 -13 -11 -30q-13 -21 -27 -42q-29 -48 -61 -65q-45 -23 -78 -23q-3 0 -18 9.5t-22 10.5q-42 4 -85 8q-53 10 -83 53q-13 18 -27 37q-17 24 -21 40q-1 23 -5 58q-2 7 -11.5 25.5t-9.5 24.5q0 19 27 83q38 92 112 138q8 4 37 11.5t35 7.5q53 0 116 -16
q29 -7 58 -29q7 -5 13 -20q7 -18 11 -23q30 -39 31 -40q12 -19 12 -41q0 -31 -9 -55q-13 -34 -39 -34q-3 0 -36 5.5t-38 5.5q-4 0 -33.5 -7.5t-34.5 -7.5q-4 0 -37 2t-37 2q-14 0 -34 -29q-12 -15 -12 -51q0 -31 8 -45q35 -61 67 -61q4 0 38 -2t38 -2q6 0 9 3.5t6 6.5
q19 -4 50 39q26 35 51 70q13 12 26 12q10 0 17 -10.5t7 -18.5zM321 347q0 31 -20 67q-5 8 -34.5 22.5t-35.5 14.5q-34 0 -64 -46q-25 -39 -25 -65q0 -53 60 -53q9 0 77 13q14 3 30 14q12 8 12 33z" />
    <glyph glyph-name="f" unicode="f" horiz-adv-x="367" 
d="M412 620q0 -27 -13.5 -45t-37.5 -18q-37 0 -56 23.5t-37 23.5q-15 0 -24 -25q-7 -18 -7 -35q0 -49 42 -49q4 0 13.5 1.5t13.5 1.5q17 0 36 -19q-3 -35 -29 -35q-4 0 -14 1.5t-15 1.5q-31 0 -43.5 -12.5t-21 -50.5t-8.5 -159q0 -66 5 -85q1 -7 20 -44q15 -31 15 -51
q0 -18 -27 -35l-7 7q-2 -1 -4 -6q-18 0 -55.5 -2.5t-40.5 -2.5q-5 0 -33 11t-33 11q-14 0 -35 -3q-9 8 -9 14q0 10 42 28.5t47 32.5q13 41 13 118q0 116 -16 187q-3 17 -37 31q-30 12 -30 31q0 12 11 16q18 6 22 9q33 26 64 93q7 17 15 34q13 25 30 38q5 3 48 17q7 7 22 16
q16 5 97 5q9 0 17 -6q60 -11 60 -69z" />
    <glyph glyph-name="g" unicode="g" horiz-adv-x="498" 
d="M513 427q0 -25 -18 -48t-46 -23q-3 0 -14 4t-17 4q-13 0 -19 -5q-12 -9 -15 -34l-4 -33q-24 -61 -57 -92q-11 -3 -30 -9q-7 -7 -25 -19q-5 -2 -14 -2q-15 0 -40 15l-10 -4l-8 10q4 2 9 0q7 -2 11 -2q5 0 29.5 24.5t25.5 31.5q9 64 9 100q0 7 -9 23q-17 32 -34 46
q-36 26 -56 26q-21 0 -36 -21q-8 -12 -7 -40q0 -34 -2 -43q-1 -5 -9 -24.5t-8 -24.5t14.5 -35.5t14.5 -35.5q0 -26 -36 -44t-36 -43q0 -19 20 -30q17 -9 36 -9q4 0 12 5.5t12 5.5t29.5 -7t30.5 -7q4 0 26.5 5.5t26.5 5.5t20.5 -4t21.5 -4q4 0 17.5 4t17.5 4t8.5 1.5t8.5 1.5
q17 0 43 -20q15 -10 43 -39q9 -14 9 -45q0 -9 -11.5 -35t-19.5 -34q-6 -4 -15 -15q-3 -15 -6 -29q-4 -22 -18 -33q-4 -1 -11 -2q-8 -9 -25.5 -22t-47.5 -20q-36 -8 -48 -8q-9 0 -84 23q-9 13 -9 23q29 19 40 19q5 0 21 -1.5t20.5 -1.5t13 -2t12.5 -2q5 0 34 8q34 9 46 11
q43 48 43 52q0 6 -7 27t-11 25q-49 6 -145 16q-17 2 -57 10t-41 8q-21 0 -38.5 -19.5t-17.5 -37.5q0 -8 26 -76q4 -10 32 -29q-1 -3 -5 -9q-12 7 -26 7q-5 0 -12 -2t-12 -2q-4 0 -19 2.5t-20 2.5q-30 36 -30 72t25.5 55.5t25.5 33.5q0 33 -42 54q-13 43 -13 61q0 5 1.5 6.5
t1.5 3.5q12 4 27 36q14 29 14 45q0 1 -18 44.5t-18 62.5q0 10 15 70q9 36 52 62q37 22 73 43q6 2 40 2q55 0 70 -5q9 -9 29 -23q15 -4 44 -15q3 -1 12 -1t12 1q10 11 33 27q18 9 57 9q11 0 32 -13q8 -5 21 -17q9 -15 9 -38z" />
    <glyph glyph-name="h" unicode="h" horiz-adv-x="591" 
d="M547 31q0 -24 -25 -24h-76q-21 0 -49 8q-34 11 -34 25q0 4 11.5 19.5t12.5 22.5q16 89 16 173q0 37 -2 43q-7 16 -19 46q1 19 -6 47q-19 28 -53 28q-37 0 -47 -12l-64 -64q-19 -20 -19 -54q0 -2 1 -23q1 -34 3 -94q1 -25 19 -65q4 -8 24 -47q15 -28 15 -33q0 -34 -47 -34
q-5 0 -18 2q-16 2 -20 4t-12 7h1q1 1 0 1h-5q-5 0 -27.5 -7t-27.5 -7q-11 0 -42 8q0 1 -2 4.5t-2 9.5q0 2 14 32.5t17 45.5q5 24 6 72q3 52 6 75l3 242q0 14 -4 39q-7 27 -25 50q-3 4 -38 17q-30 11 -30 29q0 17 30 32q24 12 39 12q4 0 7.5 -2t8.5 -2q4 0 33 7t34 7
q62 0 62 -94q0 -58 -11 -74q5 -66 26 -66q2 0 49.5 27t89.5 27q22 0 56.5 -8.5t40.5 -15.5q36 -40 43 -79q2 -15 2 -34q0 -14 -3 -55q-3 -33 -1 -51q4 -33 13 -98q-3 -23 -2 -68q1 -8 14.5 -22.5t13.5 -28.5z" />
    <glyph glyph-name="i" unicode="i" horiz-adv-x="299" 
d="M219 632q0 -24 -20 -53q-23 -34 -50 -34q-31 0 -49 27q-15 23 -15 49q0 72 76 72q25 0 43 -22q15 -20 15 -39zM266 38q0 -15 -18.5 -28t-30.5 -13q-4 0 -30.5 3.5t-30.5 3.5q-19 0 -36 -3.5t-27 -3.5q-54 0 -54 27q0 4 13 16q17 15 22 21q9 12 21 60q12 43 12 54
q0 113 -5 170q-3 37 -38 73q-4 4 -25 13q-16 7 -19 18q4 24 35 24q4 0 15 -2t15 -2q5 0 30.5 5.5t29.5 5.5q45 0 51 -15q2 -22 9 -66q1 -2 5.5 -9.5t4.5 -11.5v-120q0 -5 -7 -25.5t-7 -24.5t7 -24t8 -30q-1 -20 4 -54q4 -10 27 -30q19 -16 19 -32z" />
    <glyph glyph-name="j" unicode="j" horiz-adv-x="334" 
d="M269 637q0 -27 -38 -52q-32 -22 -52 -22q-23 0 -41 22q-17 19 -17 38q0 38 30 51q46 19 66 19q24 0 38 -17t14 -39zM258 -7q0 -11 -8 -35q-9 -28 -9 -29q-9 -52 -52.5 -91.5t-83.5 -39.5q-4 0 -17 3.5t-18 3.5q-4 0 -14 -1.5t-14 -1.5q-35 0 -68 15q-10 5 -20 26t-10 31
q0 33 12 43q37 29 57 29q25 0 48 -29q17 -24 34 -47q15 -1 23 8q33 35 33 83q0 17 -4 42t-4 33l18 184q0 88 -5 128q-3 25 -41 48q-23 14 -95 45v17q10 9 32 19t29 10q5 0 25.5 -5t25.5 -5q4 0 22.5 3.5t22.5 3.5q20 0 42 -14q25 -17 31 -42q2 -11 2 -26t-3.5 -49.5
t-3.5 -50.5q0 -12 6.5 -40t6.5 -31q0 -4 -7 -37.5t-7 -38.5v-19q2 -28 3 -87q1 -10 6 -31t5 -25z" />
    <glyph glyph-name="k" unicode="k" horiz-adv-x="638" 
d="M578 34q0 -10 -24.5 -20t-35.5 -10q-4 0 -12.5 3.5t-12.5 3.5q-2 0 -29.5 -1.5t-42.5 -1.5q-7 0 -28.5 -4t-25.5 -4q-5 0 -29 9t-29 9q-7 0 -26.5 -10.5t-42.5 -10.5q-4 0 -63.5 5t-64.5 5q-3 0 -23 -7t-25 -7q-11 0 -26.5 12.5t-15.5 25.5t24 25q36 17 46 25
q24 22 24 59v143q0 4 -3.5 38t-3.5 39v168q0 27 -52 53q-28 12 -56 23q-19 11 -19 35q0 51 58 51q28 0 136 -24q23 -4 39 -25q9 -12 9 -30q0 -12 -5.5 -38t-5.5 -38q0 -7 1 -13q14 -54 14 -49q0 -5 -9 -41t-9 -40t6 -19q9 -19 10 -24q1 -9 4 -24.5t26 -53.5q41 -6 79 32
q34 33 34 62q0 21 -27.5 43.5t-27.5 35.5q0 25 65 25q5 0 36.5 -3.5t36.5 -3.5q3 0 23.5 3.5t26.5 3.5q24 0 37 -6q25 -13 35 -16v-13q-22 -18 -62 -36q-12 -1 -33 -6q-37 -13 -68.5 -54.5t-31.5 -77.5q0 -30 15 -44q42 -45 85 -91q53 -56 91 -72q8 -4 8 -19zM369 94
q0 33 -16 66q-22 46 -64 46q-15 0 -20 -2q-8 -2 -30 -22t-22 -29v-86q0 -21 36 -33q26 -9 54 -9q13 0 37.5 24.5t24.5 44.5z" />
    <glyph glyph-name="l" unicode="l" horiz-adv-x="293" 
d="M249 34q0 -27 -33 -27q-4 0 -7 2t-7 2q-5 0 -15.5 -5.5t-15.5 -5.5q-3 0 -15 3.5t-17 3.5q-4 0 -11 -1.5t-11 -1.5q-5 0 -27.5 5.5t-26.5 5.5t-15 -2t-16 -2q-11 0 -20 6.5t-9 11.5q0 6 8.5 17t14.5 14q11 4 22 7q18 8 26.5 22.5t8.5 39.5q0 8 -2 35q-2 21 -1 33
q1 6 5.5 22.5t4.5 21.5v222q0 12 -9 52q-10 50 -21 71q-9 17 -41 33q-27 14 -27 25q0 24 28 24q4 0 6.5 -2t7.5 -2q14 0 47.5 13t49.5 13q64 0 64 -67q0 -5 -7.5 -61.5t-7.5 -61.5q0 -2 5 -27t5 -38q0 -5 2 -27t1 -34q-6 -158 -5 -195q7 -9 16 -25q-6 -17 -6 -31
q0 -27 25.5 -53t25.5 -36z" />
    <glyph glyph-name="m" unicode="m" horiz-adv-x="877" 
d="M845 18q0 -12 -11.5 -24t-21.5 -12q-4 0 -21 8q-23 11 -27 12.5t-44 1.5q-4 0 -27.5 -2t-28.5 -2q-3 0 -18 3.5t-24 4.5q-4 4 -4 12q0 4 25 34.5t27 48.5q-1 27 -1 80q0 6 3 21t3 20q0 19 -23 192q-3 6 -8 9q-32 12 -43 12q-4 0 -26.5 -7.5t-27.5 -7.5q-8 0 -19.5 7
t-11.5 15q0 18 21 30q17 10 37 10q5 0 8.5 -2t7.5 -2q5 0 29.5 7.5t28.5 7.5q7 0 31 -9q28 -11 43 -22q9 -14 35 -47q8 -10 17.5 -30.5t9.5 -29.5q0 -2 -6 -33q-6 -35 -8 -52q-4 -45 -4 -118q0 -43 20 -70q8 -10 38 -33q21 -16 21 -33zM563 27q0 -10 -11.5 -22t-22.5 -12
q3 0 -44 17q-14 5 -48 5q-5 0 -27.5 -2t-26.5 -2q-8 0 -51 12q6 12 35 50q23 30 23 49v125q0 14 -5 69q-7 68 -14 101q-2 9 -28 17q-20 6 -27 6q11 0 -64 -15q-13 -11 -25 -23q-16 -14 -20 -29q-12 -37 -27 -103q-14 -61 -14 -70q0 -4 3 -16t3 -16q1 -28 2 -55q1 -34 14 -52
q11 -7 21 -13q16 -10 15 -26q-17 -15 -32 -15q-5 0 -20.5 7.5t-19.5 7.5q-5 0 -36.5 -14.5t-35.5 -14.5q-83 0 -83 36q0 21 17 30q14 5 27 10q29 22 29 56q0 10 -3 27t-3 23q0 33 9.5 99t9.5 65v37q-3 15 -15 32t-32 24q-23 7 -27.5 12t-4.5 13q0 5 8 18q82 16 80 16
q32 0 55 -12q11 -12 36 -30l-1 -1h1h5t18.5 9t19.5 9q4 0 3.5 -2t3.5 -2t13 9.5t16 10.5q72 13 94 13q10 0 33 -6q30 -8 44 -18q26 -19 60 -82q5 -9 5 -33q0 -4 -4 -30q-6 -29 -6 -43q-4 -59 -4 -120q0 -40 21 -68q8 -12 38 -37q20 -17 20 -31z" />
    <glyph glyph-name="n" unicode="n" horiz-adv-x="591" 
d="M572 21q0 -11 -15 -23.5t-22 -12.5q-4 0 -33 12.5t-33 12.5q-5 0 -39 -3.5t-39 -3.5q-3 0 -20.5 3.5t-25.5 3.5q-5 5 -5 11q0 -2 29 39t29 53v129q0 4 -2.5 14t-2.5 16q0 14 -3 44q-4 37 -5 50q-2 25 -10 53q-3 5 -8 9q-30 12 -45 12q-4 0 -25 -7.5t-25 -7.5
q-9 0 -21 8.5t-12 15.5t9 20t22 16q18 0 54 2q5 1 20 5.5t20 4.5q25 0 73 -23q5 -2 14 -15q10 -17 13 -20q31 -36 41 -62q2 -4 2 -22q0 -5 -7.5 -43.5t-7.5 -42.5v-149q0 -5 6 -10.5t7 -6.5q10 -23 41 -47q26 -20 26 -35zM229 23q0 -8 -11 -16t-20 -8q-4 0 -19.5 9t-20.5 9
q-11 0 -25 -8q-21 -13 -36 -19q-2 -2 -36 -2q-29 0 -36 2q-24 7 -24 33q0 21 19 28q29 11 36 17q19 19 19 50q0 11 -7 52q-1 7 4.5 26.5t6.5 28.5q-2 15 -1 44q10 41 10 68q0 50 -9 64q-12 19 -32 28q-15 6 -31 12q-8 6 -8 15q0 13 12 22q15 1 46 8.5t34 7.5q22 0 41 -9
q14 -6 36 -25q25 -23 33 -28q4 -67 -12 -135q-4 -18 -18 -58q-13 -35 -13 -39q0 -5 4.5 -18t5.5 -18v-52q0 -27 13 -52q4 -10 23 -19q16 -7 16 -18z" />
    <glyph glyph-name="o" unicode="o" horiz-adv-x="497" 
d="M450 234q0 -32 -8.5 -71t-17.5 -78q-2 -9 -26.5 -25t-38.5 -21q-9 -7 -28 -19q-10 -2 -29 -6q-6 -2 -19 -13t-18 -11q-4 0 -5 3.5t-6 3.5q-4 0 -9.5 -7t-9.5 -7q-5 0 -20 3.5t-20 3.5q-4 0 -14 -2t-15 -2q-40 0 -92 59q-21 25 -39 67q-15 36 -29 73q-4 9 -4 33q0 -2 5 22
q3 13 -1 26l-5 4q0 49 5.5 64t47.5 76q7 19 30 53q17 8 47 24q40 21 73 21q30 0 70 -11q31 -8 39 -13q5 -8 17.5 -25t36.5 -25q4 -3 10 -7q13 -22 40 -85q33 -80 33 -108zM346 294q0 24 -16 83q-4 15 -36 48q-35 36 -54 36q-22 0 -54 -27q-21 -17 -29 -43q-12 -32 -24 -112
q-13 -83 -13 -129v-40q4 -18 14.5 -25t26.5 -23q19 -20 20 -29h23.5h15.5q30 0 45 12q19 16 36.5 47t39.5 75q6 19 3 52q-2 38 1 53q1 8 1 22z" />
    <glyph glyph-name="p" unicode="p" horiz-adv-x="620" 
d="M554 276q0 -88 -39 -120q-16 -13 -25 -39q-15 -44 -33 -64q-12 -14 -48 -37q-7 -5 -53 -5q-38 0 -49 5q-3 6 -8 15q7 8 8 11q68 -1 95 30q20 23 25 46q8 45 8 125q0 29 -9 69q-9 34 -17 69.5t-41 42.5q-14 1 -50 5q-20 6 -59 15v12q28 38 39 44q6 4 33 4t46 -7l46 -20
q20 -7 75 -71q3 -10 13 -29q38 -50 40.5 -55.5t2.5 -45.5zM277 -138q0 -10 -8.5 -22t-18.5 -12q-5 0 -54 -2t-54 -2q-84 0 -113 22v18q69 20 78 70q1 9 -2 54q-1 19 3 58.5t4 38.5q0 5 -11 65t-11 64q0 5 5 18q7 17 8 22t1 40q0 70 -30 100q-15 15 -58 29q-30 10 -30 31
q0 22 15 29q8 3 30 3q4 0 20 -2t21 -2q4 0 19 4t21 4q15 0 26 -6q24 -12 37 -17q13 -11 36 -27q14 -5 27.5 -10.5t13.5 -20.5q0 -17 -46 -102q-1 -1 -1 -22q0 -14 13 -52q3 -10 1 -29q-2 -27 -2 -29q0 -6 7 -22q7 -19 8 -28q4 -22 6 -32q6 -17 17 -34q-50 -22 -50 -68
q0 -40 29 -85q1 -1 24 -19q19 -15 19 -25z" />
    <glyph glyph-name="q" unicode="q" horiz-adv-x="535" 
d="M533 -151q0 -32 -43 -32q-5 0 -35.5 3.5t-34.5 3.5q-23 0 -83 8q-9 1 -20 11t-11 17q0 3 23.5 31t23.5 56q0 96 -57 104v16q0 4 10.5 15.5t13.5 17.5q1 3 24 59q9 23 9 39q0 5 -4.5 29t-5.5 30q3 17 5 51q0 8 -25 79q-5 15 -43.5 46t-48.5 31q-7 0 -28 -13.5t-29 -24.5
q-18 -25 -21 -43q-16 -89 -16 -199q0 -56 12 -91q1 -4 23 -15q19 -9 19 -25q0 -27 -30 -27q3 0 -23 9q-10 1 -32 3q-23 38 -79 121q-9 12 -7 39q2 37 1 41q-1 8 -9 31t-8 27q0 25 42 95l7 14q-2 33 59 69q54 33 86 33q67 0 97 -16q8 -12 25 -31q18 -15 40 -15q2 0 27.5 29
t41.5 29q18 0 23 -19q13 -43 13 -89q0 -2 -10 -52q-4 -17 1 -54q2 -15 0 -25q1 -1 3 -4q0 -11 -11 -126q-1 -10 4 -76q-5 -9 -5 -10q0 -74 1 -83q5 -50 34 -84l28 -8q23 -7 23 -25z" />
    <glyph glyph-name="r" unicode="r" horiz-adv-x="450" 
d="M406 446q0 -23 -13 -55q-17 -42 -39 -42q-24 0 -60.5 29t-53.5 29q-60 0 -60 -82q0 -15 2 -38.5t2 -28.5q-1 -21 -8.5 -65.5t-7.5 -46.5q0 -40 5 -47t60 -45v-17q-18 -19 -111 -19q-5 0 -44.5 2t-43.5 2q-27 0 -27 20q0 14 63 119q3 4 3 9q0 7 -6 20t-6 17q-1 10 9 33
q5 12 5 45q0 26 -5 98q-1 13 -14 34q-16 24 -34 31q-4 3 -12 10v17q14 16 23 17q52 5 92 5q4 0 39.5 -12.5t39.5 -12.5q10 0 47 18t63 18q4 0 34 -16q36 -20 50 -26q8 -11 8 -20z" />
    <glyph glyph-name="s" unicode="s" horiz-adv-x="445" 
d="M396 197q0 -38 -23 -122q-6 -21 -68 -69q-11 -8 -35 -8q-9 0 -32 15q12 25 57 53q36 21 36 56q0 19 -46 42q-12 9 -36 23q-16 2 -50 9q-16 6 -50 16q-6 1 -50 6q-26 3 -36 18q-29 43 -35 76q-3 12 -3 35q0 -3 5 55q2 22 27 50q41 45 45 51q41 9 74 9q30 0 62 -20t52 -20
q4 0 29.5 9t29.5 9q12 0 23.5 -13.5t11.5 -16.5q0 -5 -11.5 -29.5t-12.5 -27.5q-4 -20 -4 -69q0 -36 20 -66.5t20 -70.5zM162 46q-2 -1 -1 -15.5t-4 -14.5q-4 0 -39.5 9t-39.5 9q-18 0 -30 5q-15 54 -15 86q0 53 23 53q8 0 11 -5q6 -14 17 -36l39 -54q14 -11 39 -37z
M299 343q0 11 -34 53q-33 39 -39 43q-3 1 -23 1q-46 0 -59 -4q-42 -12 -39 -57q1 -9 1 -10q2 -5 7 -7q15 -7 68 -35q43 -24 48 -24q17 0 40 10q30 12 30 30z" />
    <glyph glyph-name="t" unicode="t" horiz-adv-x="379" 
d="M343 124q0 -26 -19 -67q-21 -46 -42 -47t-63 -6q-4 -1 -19.5 -7.5t-20.5 -6.5q-31 0 -48 16q-39 36 -50 72q-9 27 -16 79q-7 43 -7 55q0 4 11 77t11 77q0 70 -19 70q-48 0 -48 24q0 9 5 28q19 6 38 13q32 13 39 55q-2 16 0 55q3 15 19.5 30.5t32.5 15.5q4 0 8 -1
q15 -15 21 -45q2 -11 0 -34q-3 -26 -2 -38q2 -14 20 -19q47 -12 97 -20q12 -2 24.5 -16.5t12.5 -23.5q0 -24 -15 -30q-18 -6 -56.5 -10t-56.5 -10.5t-33 -50.5q0 -2 3.5 -10t3.5 -12q0 -8 -5.5 -20.5t-5.5 -16.5q0 -55 6 -95q-1 -20 -1 -32q0 -114 56 -114q44 0 59 50
q7 35 14 71q3 10 18 23q10 0 15 -9q13 -45 13 -70z" />
    <glyph glyph-name="u" unicode="u" horiz-adv-x="599" 
d="M572 33l-15 -15q-60 -23 -76 -23q-2 0 -9.5 3.5t-12.5 3.5t-9 -2t-8 -2q-18 0 -43 46q-21 40 -21 48q0 4 4 15.5t4 15.5q0 7 -2 36q-2 23 -1 36q1 7 7.5 27.5t6.5 24.5l-10 78q-1 14 -1 28q-2 22 -9 31q-13 17 -47 35q-23 11 -23 37q0 43 66 43q56 0 101 -9
q10 -2 20.5 -19.5t13.5 -32.5q5 -31 5 -102q0 -4 -7.5 -70.5t-7.5 -71.5q0 -24 6 -51q3 -18 17 -52q14 -23 43 -31q2 -1 8 -6v-21zM315 27q-1 -9 -30.5 -19t-44.5 -10q-40 0 -80 19q-44 21 -68 57q-19 27 -15 81q4 66 0 84q3 16 3 52q-4 26 -13 79q-3 17 -27 36q-3 6 -6 15
q-10 8 -29 26v22q27 11 30 11q4 0 6 -2t7 -2q4 0 38.5 13.5t50.5 13.5q32 0 38 -13q22 -40 23 -56q0 -8 -5.5 -30t-3.5 -34q1 -6 7.5 -25t6.5 -24l-19 -170q0 -35 45 -71q41 -34 77 -38q3 -6 9 -15z" />
    <glyph glyph-name="v" unicode="v" horiz-adv-x="599" 
d="M441 318q-33 -29 -48 -73q-9 -37 -19 -75q-10 -19 -27 -56q-4 -8 -10 -48q-6 -33 -19 -50q-6 -8 -37 -26q-4 -1 -15 -1t-16 2q-12 19 -23 38q-14 26 -18 44q-8 32 -18 58q-12 30 -16 43q0 25 -10 74q-24 66 -70 131q-10 12 -61 32q-43 16 -43 43q0 30 24 34q28 -1 86 0
q16 1 54 6q34 3 38 3t57.5 -7.5t58.5 -7.5q4 0 71.5 9.5t71.5 9.5t18.5 -3.5t19.5 -3.5q4 0 14 3.5t16 3.5q14 0 52 -13q7 -8 9.5 -12t3.5 -15q1 -13 -10 -24l-38 -8q-1 0 -19.5 -6.5t-19.5 -6.5t-9.5 -12t-9 -12t-9.5 -15.5t-12 -16.5q-4 -17 -17 -42zM386 405
q-32 22 -36 24q-13 7 -31 7q-19 0 -29 -7q-7 -3 -44 -35q-2 -8 -8 -15q-1 -9 -1 -25q0 -49 9 -74q33 -95 51 -95q4 0 7 4q2 -1 4 -1q4 0 9 14.5t7 16.5q33 29 50 105q1 4 12 81z" />
    <glyph glyph-name="w" unicode="w" horiz-adv-x="836" 
d="M726 419q-8 0 -23 -35q-13 -43 -45 -122q-12 -11 -28 -33q-2 -16 -10 -45q-12 -20 -31 -64q-10 -36 -19 -72q-19 -52 -45 -52q-33 0 -46 54q-11 17 -28 55q0 18 -6 53q-12 37 -47 84q-3 4 -17 4q-28 0 -42 -36q-1 -15 -6 -41q-19 -43 -47 -86q-16 -87 -51 -87
q-23 0 -31 37q-3 23 -5 46q-2 7 -17.5 22t-17.5 23q-6 32 -18 97q-11 62 -26 88q-15 12 -42 41q-2 10 -6 27q-8 22 -28 43q-10 2 -26 9q-8 5 -15 18q-5 10 -11 21q3 17 13 24q16 11 62 11q73 0 109 -13q6 -2 15 -15t11 -22q10 -49 10 -79q0 -62 5 -85q10 -59 48 -84
q67 71 75.5 86.5t8.5 65.5q0 42 -4 52q-9 21 -47 39q-12 5 -12 19v13q11 3 47 16q30 10 35 10q4 0 20 -3.5t21 -3.5q88 0 93 -1q0 -3 2 -10.5t2 -12.5q0 -15 -11 -31.5t-11 -36.5q0 -53 49 -170q4 -10 22 -10q14 0 18.5 15.5t8.5 31.5q8 8 20 29q24 96 24 102
q0 22 -11.5 41.5t-11.5 24.5q0 23 12 30q24 13 79 23q9 1 55 1q16 0 31.5 -15t18.5 -15q-10 -20 -16 -46q-5 -17 -13 -22t-44 -8z" />
    <glyph glyph-name="x" unicode="x" horiz-adv-x="572" 
d="M58 479q5 -2 50 2q50 5 51 5q20 0 53.5 -9t39.5 -19q1 -4 -2 -26t-3 -36q0 -59 48 -59q45 0 45 48q0 27 -11.5 42.5t-11.5 27.5q0 20 35 35q26 11 38 11q-1 0 58 -5q56 -5 76.5 -3.5t20.5 -21.5q0 -31 -53 -46q-39 -11 -63 -29q-20 -16 -89 -92q-8 -9 -8 -29
q0 -35 63.5 -114.5t63.5 -78.5q0 -5 10 -7q17 -4 19 -5q22 -9 50 -37q-16 -21 -26 -21q-5 0 -72 -2t-72 -2q-69 0 -69 26q0 4 11 21t11 22q0 24 -26 61.5t-50 37.5q-47 0 -47 -81q0 -14 1.5 -35.5t1.5 -26.5q0 -7 -1 -9q-14 -20 -38 -20q-4 0 -20 2t-21 2q-4 0 -42.5 -7.5
t-43.5 -7.5q-17 0 -30 12t-13 26q0 22 13 24q62 12 153 84q25 21 54 74q5 9 5 19q0 8 -11 33.5t-20 38.5q-7 9 -35 30q-39 29 -50 38q-15 18 -31 36q-25 26 -46 26q-4 0 -11 14.5t-12 14.5q-6 0 6 10t29 10q10 0 22 -4z" />
    <glyph glyph-name="y" unicode="y" horiz-adv-x="524" 
d="M502 463q0 -35 -23 -50q-38 -24 -53 -45.5t-30 -41.5q-18 -27 -24 -45q-3 -10 -2 -33q2 -38 2 -37q0 -16 -2 -23q-7 -22 -51 -75q-25 -30 -37 -63q-2 -16 -8 -49q-5 -16 -20 -16q-13 0 -21 34q-4 21 -9 41q-23 31 -68 97q-2 3 -21 68q-11 36 -34 82l-27 33q-6 17 -21 49
q-17 16 -50 52q-9 10 -9 25t7 20t43 11q87 14 75 14q3 0 38 -3.5t56 -5.5q7 0 13.5 -11t6.5 -19q0 -5 -11 -23q-12 -22 -14 -26q-5 -11 -5 -35q0 -8 10 -55q11 -52 21 -81q2 -5 32 -35q4 -5 17 -5q12 0 16 7q20 31 52 89q5 12 5 63q0 12 -5 22t-26 41q-17 26 -17 31
q0 10 19.5 27t33.5 22q4 1 40 1q45 0 59 -5t36 -18q6 -6 6 -29zM241 -55q0 -27 -41 -81q-38 -50 -47 -50q-12 0 -36 -6t-28 -6q-46 0 -72.5 29t-26.5 68q0 22 22.5 46.5t43.5 24.5q41 0 64 -34t38 -34q25 0 44.5 28.5t33.5 27.5q5 -4 5 -13z" />
    <glyph glyph-name="z" unicode="z" horiz-adv-x="458" 
d="M450 77q0 -30 -23 -53t-53 -23q-5 0 -46 1.5t-45.5 1.5t-17.5 6t-18 6q-85 0 -153 -13q-3 0 -18.5 -5t-21.5 -5q-21 0 -34 16q-11 13 -11 25q0 19 28 78q4 10 26 32l35 35q4 10 13 26q7 5 17 15q16 25 62 54q7 4 16 17q9 28 18 57.5t9 48.5q0 48 -39 48q-10 0 -52 -22
q-38 -20 -46.5 -26.5t-30.5 -40.5q-17 -27 -31 -27q-25 0 -25 58q0 32 3 40q5 14 32 54l117 28q4 0 27.5 -4t28.5 -4q4 0 37 2t37 2q5 0 37 -2q39 -3 54 -3q16 -12 16 -27q0 -25 -9 -49q-4 -11 -23 -33.5t-23 -33.5q-22 -51 -66 -81q-9 -7 -13 -16q0 -12 -6 -41
q-6 -8 -16 -23q-5 -9 -37 -56q-20 -28 -20 -61q0 -41 48 -41q38 0 80 27q14 9 42.5 38.5t55.5 44.5q39 -24 39 -71z" />
    <glyph glyph-name="braceleft" unicode="{" horiz-adv-x="1156" 
d="M820 275q-16 -6 -22 -5q-21 1 -25.5 6t-6.5 19q-2 19 12 20q0 -12 12.5 -20t25.5 -8h4v-12zM1117 526q0 -21 -25 -41.5t-47 -20.5q-11 0 -33 1.5t-34 1.5q-7 0 -23 -5t-23 -5q-14 0 -40.5 1t-39.5 1q-7 0 -36.5 -4.5t-33 -6.5t-4.5 -7q28 -32 38 -53q2 -13 11 -36
q27 -33 27 -53q0 -21 -14.5 -34t-35.5 -13q-8 0 -20.5 1t-20.5 1t-29 -18q-26 -22 -29 -24q-9 -1 -26 -7q-2 0 -27 -17q-20 -12 -28 -12q-9 0 -19 15t-14 15q-3 0 -8 -2.5t-8 -2.5q-16 0 -25 9t-18 19q-57 -46 -103 -46q-26 0 -63.5 21t-47.5 21q-4 0 -8 -1v-35
q-2 -18 -22 -25q-3 -11 -8 -13.5t-15.5 -4t-15.5 -1.5q-3 0 -4 1.5t-4 1.5q-8 0 -11 -4q-1 -21 -2 -41q-4 -36 -22 -36h-3q0 3 -3 3q-7 0 -21.5 5t-22.5 5q-5 0 -14.5 -4t-14.5 -4q-4 0 -12 2.5t-12 2.5q-10 0 -30 -7.5t-29 -7.5q-33 0 -33 49q0 12 3 34.5t3 33.5
q0 24 -6.5 71.5t-6.5 70.5v213q0 6 10.5 12.5t16.5 6.5q9 0 27 -5t27 -5q6 0 18.5 3.5t18.5 3.5q4 0 11.5 -1t11.5 -1q7 0 22.5 6t22.5 6q22 0 34 -13t20 -13q25 0 31 -10q-3 -12 -34 -12q-19 0 -28 3q-11 -9 -12 -71q1 57 1 -64q0 -9 -2.5 -26.5t-2.5 -27.5q0 -18 1.5 -56
t1.5 -56q0 -34 1 -38q5 -10 34 -10q28 0 48 4q-16 70 -16 188q0 49 9 71h13q8 -4 8 -17q0 -54 51 -54q4 0 11 1.5t11 1.5q11 0 33 -5.5t33 -5.5q20 0 53 6q2 1 7.5 4t8.5 3q2 0 20 -12.5t45 -12.5q5 0 15.5 1t15.5 1q4 0 10.5 -2.5t10.5 -2.5q3 0 9 2.5t10 2.5t9.5 -3.5
t7.5 -3.5q4 0 13 5t13 5q7 0 43 -6q4 -1 12.5 -6.5t11.5 -5.5h28q-21 -7 -21 -28q0 -36 35 -34h13q12 1 22 11.5t10 22.5q0 13 -9.5 23t-24.5 9q2 5 9 4q-6 13 -42 26q-32 12 -46 12q-9 0 -28 -5t-29 -5q-3 0 -7.5 3t-7.5 3q-50 0 -124 61q-14 7 -41 21q1 4 2 12q2 1 6 2
t7 1q4 0 26.5 -10t26.5 -10q14 0 17 20l4 30h11q26 -17 25 -17h14v30q6 -1 32 -6q19 -4 31 -4q34 0 59 6q4 1 19.5 6.5t18.5 5.5q8 0 22.5 -4t22.5 -4t25 5t25 5t24.5 -5t25.5 -5q7 0 21 5t22 5q9 0 29.5 -7.5t30.5 -7.5q34 0 45 9q-11 0 -30 5q-41 27 -53 27q-4 0 -13 -4
t-13 -4q-40 18 -51 18q-3 0 -9.5 -5t-10.5 -5q-3 0 -6.5 3.5t-6.5 3.5q-6 0 -17.5 -1t-17.5 -1q-4 0 -10.5 3.5t-9.5 3.5q-29 0 -42 -2l-189 35q-9 -1 -28 -6q-76 -31 -228 -92q-15 -2 -29.5 -5t-20.5 -25q-2 -3 -10 -3q-12 0 -12 16t4 34q6 26 17 26q15 0 17.5 -14
t10.5 -14l96 42q59 26 126 48l26 10q17 7 27 7q1 0 6 -1l214 -35q11 -2 33 0q29 2 35 2q3 0 9.5 -4t10.5 -4q2 0 6.5 1.5t7.5 1.5q4 0 67 -8q39 -5 115 -16q6 -1 11 -9t5 -14zM258 213q0 -33 -20 -33q-11 0 -19.5 13.5t-8.5 25.5q0 10 7 20.5t16 10.5q25 0 25 -37zM1089 534
q-19 3 -56 8q2 -2 4 -7t4 -7q24 -5 29 -5q14 0 19 11zM756 444h-13q-4 0 -20.5 -6.5t-21.5 -7.5l12 -9q12 4 25.5 9.5t17.5 13.5zM696 464q-18 -3 -24 -15q-2 -3 -8 -27q-3 -12 -10 -36q14 12 25 37zM635 402q-12 10 -36 37q10 -38 31 -38q3 0 5 1zM729 254v4l-22 -3v-13z
M677 291q0 7 -11 19q-1 -13 -5 -37q5 1 10.5 7.5t5.5 10.5zM701 256h-47l3 -12l43 -2zM628 292q0 5 -7 11q-2 -3 -2 -10q0 -14 9 -18v17zM655 255q-7 -2 -68 -2q-6 0 -30 -11q2 3 14 3q11 0 33 -2t33 -2q3 0 9.5 7t8.5 7zM499 232q-11 6 -28 6q-1 0 -35 14q3 -4 16.5 -16
t15.5 -11z" />
    <glyph glyph-name="bar" unicode="|" horiz-adv-x="132" 
d="M20 -46q-24 4 -24 6t6 32t6 32t-9 29l6 46l-3 43v61q15 43 15 46q0 1 -7.5 27t-7.5 27q0 3 6 49l6 32q-12 38 -12 41q0 1 3 8t3 9v46q0 1 -1.5 50t-1.5 51q0 3 12 82l-12 72h17q33 0 37 4t5 -20q1 -17 0 -47q-1 -10 -1 -26l3 -51q-9 -34 -12 -34t3 -41l-3 -40l-6 -52
q18 -58 18 -63q0 -29 5 -35q3 -3 -8 -40q8 -64 5 -64q-2 0 -2 -60q0 -8 2 -58q-1 -53 -6 -109q-6 -6 -6 -16q0 -8 5 -21t5 -17q0 -5 -7 -5q-4 0 -9.5 1t-29.5 5z" />
    <glyph glyph-name="braceright" unicode="}" horiz-adv-x="1156" 
d="M302 275q16 -6 22 -5q21 1 25.5 6t6.5 19q2 19 -12 20q0 -12 -12.5 -20t-25.5 -8h-4v-12zM4 526q0 -21 25.5 -41.5t47.5 -20.5q11 0 33 1.5t34 1.5q7 0 23 -5t23 -5q14 0 40.5 1t39.5 1q7 0 36.5 -4.5t33 -6.5t3.5 -7q-27 -32 -37 -53q-2 -13 -11 -36q-27 -33 -27 -53
q0 -21 14.5 -34t35.5 -13q8 0 20.5 1t20.5 1q7 0 29 -18q26 -22 29 -24q9 -1 26 -7q2 0 27 -17q19 -12 28 -12t19 15t14 15q3 0 8 -2.5t8 -2.5q15 0 24.5 9t18.5 19q57 -46 102 -46q27 0 64.5 21t46.5 21q5 0 9 -1v-35q1 -18 22 -25q3 -11 8 -13.5t15.5 -4t15.5 -1.5
q3 0 4 1.5t4 1.5q8 0 11 -4q1 -21 2 -41q4 -36 22 -36h3q0 3 2 3q8 0 22.5 5t22.5 5q5 0 14.5 -4t14.5 -4q4 0 12 2.5t12 2.5q9 0 29.5 -7.5t29.5 -7.5q33 0 33 49q0 12 -3 34.5t-3 33.5q0 24 6 71.5t6 70.5v213q0 6 -10 12.5t-16 6.5q-9 0 -27.5 -5t-26.5 -5q-7 0 -19 3.5
t-18 3.5q-4 0 -11.5 -1t-11.5 -1q-7 0 -22.5 6t-22.5 6q-22 0 -34.5 -13t-19.5 -13q-26 0 -31 -10q3 -12 34 -12q19 0 28 3q11 -9 12 -71q-1 57 -1 -64q0 -9 2.5 -26.5t2.5 -27.5q0 -18 -1.5 -56t-1.5 -56q0 -34 -1 -38q-5 -10 -34 -10q-28 0 -48 4q16 70 16 188q0 49 -9 71
h-13q-9 -4 -9 -17q0 -54 -51 -54q-3 0 -10 1.5t-11 1.5q-11 0 -33 -5.5t-33 -5.5q-20 0 -53 6q-3 1 -8 4t-8 3q-2 0 -20 -12.5t-45 -12.5q-5 0 -15.5 1t-16.5 1q-3 0 -9.5 -2.5t-10.5 -2.5q-3 0 -9 2.5t-10 2.5t-9.5 -3.5t-7.5 -3.5q-4 0 -13 5t-13 5q-7 0 -43 -6
q-4 -1 -12.5 -6.5t-11.5 -5.5h-28q21 -7 21 -28q0 -36 -36 -34h-12q-12 1 -22.5 11.5t-10.5 22.5q0 13 10 23t25 9q-2 5 -9 4q6 13 42 26q32 12 46 12q9 0 28 -5t28 -5q4 0 8.5 3t7.5 3q50 0 124 61q14 7 41 21l-3 12q-1 1 -5 2t-7 1q-4 0 -26.5 -10t-26.5 -10q-14 0 -17 20
l-4 30h-11q-27 -17 -25 -17h-14v30q-6 -1 -32 -6q-19 -4 -31 -4q-34 0 -59 6q-4 1 -19.5 6.5t-18.5 5.5q-8 0 -22.5 -4t-22.5 -4t-25 5t-25 5t-25 -5t-25 -5q-7 0 -21.5 5t-21.5 5q-10 0 -30 -7.5t-30 -7.5q-35 0 -45 9q11 0 29 5q42 27 54 27q4 0 13 -4t13 -4q40 18 51 18
q3 0 9.5 -5t10.5 -5q3 0 6.5 3.5t6.5 3.5q6 0 17.5 -1t17.5 -1q4 0 10.5 3.5t9.5 3.5q29 0 42 -2l188 35q10 -1 29 -6q76 -31 228 -92q15 -2 29.5 -5t20.5 -25q2 -3 10 -3q12 0 12 16t-4 34q-6 26 -17 26q-15 0 -17.5 -14t-10.5 -14l-96 42q-59 26 -126 48l-26 10
q-17 7 -27 7q-1 0 -6 -1l-214 -35q-12 -2 -33 0q-29 2 -35 2q-4 0 -10 -4t-10 -4q-3 0 -7.5 1.5t-6.5 1.5q-4 0 -67 -8q-39 -5 -115 -16q-6 -1 -11.5 -9t-5.5 -14zM863 213q0 -33 21 -33q11 0 19 13.5t8 25.5q0 10 -6.5 20.5t-15.5 10.5q-26 0 -26 -37zM33 534q19 3 56 8
q-2 -2 -4 -7t-4 -7q-24 -5 -29 -5q-14 0 -19 11zM365 444h14q4 0 20.5 -6.5t21.5 -7.5l-12 -9q-12 4 -24 9q-15 6 -20 14zM426 464q17 -3 24 -15q2 -3 8 -27q3 -12 10 -36q-14 12 -25 37zM487 402q12 10 36 37q-10 -38 -31 -38q-3 0 -5 1zM393 254v4l22 -3l-1 -13zM445 291
q0 7 11 19q1 -13 5 -37q-5 1 -10.5 7.5t-5.5 10.5zM421 256h47l-3 -12l-43 -2zM494 292q0 5 6 11q3 -3 3 -10q0 -14 -9 -18v17zM467 255q7 -2 68 -2q6 0 30 -11q-2 3 -14 3q-11 0 -33 -2t-33 -2q-4 0 -10 7t-8 7zM623 232q11 6 28 6q1 0 35 14q-3 -4 -16.5 -16t-16.5 -11z
" />
    <glyph glyph-name="asciitilde" unicode="~" horiz-adv-x="452" 
d="M42 763q0 20 37 48q47 12 52 12q4 0 23.5 -3t21.5 -3t67 -24l58 -8q3 0 38 11l29 27q18 -24 18 -27q0 -30 -50 -52q-29 -13 -66 -13q-12 0 -24 1q0 -2 -33.5 10.5t-34.5 12.5q-35 0 -52 12q-3 2 -7 2q-14 0 -34 -11q-5 -2 -17.5 -11.5t-12.5 -11.5q0 -1 -5 12.5t-6.5 14
t-1.5 1.5z" />
    <glyph glyph-name="Adieresis" unicode="&#xc4;" horiz-adv-x="807" 
d="M781 36q0 -2 -11 -15l-13 -15q-6 0 -9 -1q-28 -5 -60 -6q-23 -1 -48 0q-30 2 -25 2q-3 0 -25.5 10.5t-27.5 10.5q-4 0 -30.5 -9t-31 -9t-26.5 -2.5t-24 -2.5t-31 9q-2 1 -16.5 7.5t-19.5 6.5q-4 0 -38 -8q-38 -10 -49 -12q-45 -8 -82 -8q-4 0 -18.5 3.5t-18.5 3.5
q-56 11 -77 11q-13 0 -17.5 -5.5t-16.5 -4.5q7 -1 -28 -1q-47 0 -47 45q0 3 17 20q11 11 28 13q14 2 27 4q9 3 54 40q40 34 66 91q16 45 32 89q16 24 47 70q4 21 16 58q13 18 39 56q4 6 6 21q2 20 3 24q7 10 16 38q-1 18 5 52q14 33 36 49q11 8 45 8q39 0 55 -64
q2 -7 14 -19l18 -18q14 -18 18 -53q1 -29 9 -84q12 -25 33 -80q12 -29 34 -90q2 -16 9 -48q6 -7 16 -21q4 -17 16 -52q4 -5 11 -14q0 -9 6 -28q17 -27 73 -27q7 -2 18.5 -4.5t18.5 -3.5q4 -17 4 -16v-21zM427 358q0 24 -5 33q-9 18 -18 37q-14 23 -30 23q-21 0 -39 -44
q-8 -28 -17 -55q-12 -39 -12 -38q0 -14 21 -21q16 -5 33 -5q37 0 62 28q5 6 5 42zM511 140q0 92 -92 92q-5 0 -36 -7t-36 -7q-4 0 -9 2t-10 2q-4 0 -10 -5q-9 -4 -11 -5q-35 -10 -47 -33q-6 -14 -6 -43q0 -24 4 -35q17 -11 49 -28q16 0 45 -6q31 -12 29 -12q5 0 12 6
q11 9 13 10t20 1q5 0 19 -2t17 -2q23 0 36 22t13 50zM465 781q2 12 18 31t28 17q25 -5 43 -26t14 -46q-3 -15 -18.5 -29.5t-32.5 -11.5q-6 1 -12 6q-20 -4 -32 20q-11 20 -8 39zM265 781q2 12 18 31t28 17q25 -5 43 -26t14 -46q-3 -15 -18.5 -29.5t-32.5 -11.5q-6 1 -12 6
q-20 -4 -32 20q-11 20 -8 39z" />
    <glyph glyph-name="Aring" unicode="&#xc5;" horiz-adv-x="807" 
d="M781 36q0 -2 -11 -15l-13 -15q-6 0 -9 -1q-28 -5 -60 -6q-23 -1 -48 0q-30 2 -25 2q-3 0 -25.5 10.5t-27.5 10.5q-4 0 -30.5 -9t-31 -9t-26.5 -2.5t-24 -2.5t-31 9q-2 1 -16.5 7.5t-19.5 6.5q-4 0 -38 -8q-38 -10 -49 -12q-45 -8 -82 -8q-4 0 -18.5 3.5t-18.5 3.5
q-56 11 -77 11q-13 0 -17.5 -5.5t-16.5 -4.5q7 -1 -28 -1q-47 0 -47 45q0 3 17 20q11 11 28 13q14 2 27 4q9 3 54 40q40 34 66 91q16 45 32 89q16 24 47 70q4 21 16 58q13 18 39 56q4 6 6 21q2 20 3 24q7 10 16 38q-1 18 5 52q14 33 36 49q11 8 45 8q39 0 55 -64
q2 -7 14 -19l18 -18q14 -18 18 -53q1 -29 9 -84q12 -25 33 -80q12 -29 34 -90q2 -16 9 -48q6 -7 16 -21q4 -17 16 -52q4 -5 11 -14q0 -9 6 -28q17 -27 73 -27q7 -2 18.5 -4.5t18.5 -3.5q4 -17 4 -16v-21zM427 358q0 24 -5 33q-9 18 -18 37q-14 23 -30 23q-21 0 -39 -44
q-8 -28 -17 -55q-12 -39 -12 -38q0 -14 21 -21q16 -5 33 -5q37 0 62 28q5 6 5 42zM511 140q0 92 -92 92q-5 0 -36 -7t-36 -7q-4 0 -9 2t-10 2q-4 0 -10 -5q-9 -4 -11 -5q-35 -10 -47 -33q-6 -14 -6 -43q0 -24 4 -35q17 -11 49 -28q16 0 45 -6q31 -12 29 -12q5 0 12 6
q11 9 13 10t20 1q5 0 19 -2t17 -2q23 0 36 22t13 50zM422 853q29 0 51 -22t22 -52q0 -29 -21.5 -49t-51.5 -20q-29 0 -50 21t-21 50q0 30 21 51t50 21zM422 822q-41 0 -41 -40q0 -17 13 -28.5t31 -11.5q39 0 39 37q0 18 -12.5 30.5t-29.5 12.5z" />
    <glyph glyph-name="Ccedilla" unicode="&#xc7;" horiz-adv-x="683" 
d="M592 492q0 -16 -9 -32t-18 -16q-16 0 -24 11q-4 13 -13 35q-17 18 -32.5 35t-15.5 39q0 12 30 55.5t42 43.5q36 0 36 -75q0 -16 -1.5 -34l-1.5 -18q7 -42 7 -44zM588 204l-26 -96q-5 -19 -21 -19h-22q-7 16 -7 21q0 8 25 56q23 44 32 55q4 -4 15 -4q0 -1 2 -4.5t2 -8.5z
M487 63q0 -19 -23.5 -35t-37.5 -16q-4 0 -12 2t-12 2t-28.5 -9t-28.5 -9h-72q-24 0 -44 11q-2 2 -33 23q-8 2 -21 10q-31 26 -61 53q-37 33 -57 61q-15 20 -30 80q-6 10 -14.5 31.5t-8.5 50.5q0 51 8 79q11 40 57 102q9 24 26 65q13 29 56 49q52 24 65.5 38t49.5 28
q12 5 61 5q17 0 48 -16q10 -4 17.5 -20.5t7.5 -29.5q-13 -13 -56 -18q-46 -6 -56 -11q-13 -8 -53 -54q-20 -24 -22 -25q-11 -15 -14 -27q-10 -42 -2 -100q1 -9 1 -18q0 -16 -5 -37.5t-5 -31.5q0 -46 11 -94q14 -57 32 -86.5t71 -47.5q44 -14 90 -14q3 0 37.5 12t38.5 12h11
q8 -8 8 -15zM405 -70v1l6 -37q0 -6 -11 -49q-15 -12 -44 -37q-6 -6 -37 -15t-44 -9q-11 8 -11 18q0 9 11 22q9 0 30.5 5.5t23.5 7.5t36 31q1 4 5 23l1 4v2q-5 6 -12 17q-6 1 -24 6l-3 1q-16 -1 -48 -10q-4 -2 -6 2.5t-5 3.5q-9 -1 -7 12l10 49q9 42 9 34h40q0 -14 -4 -27
q-7 -21 -8 -27l3 1q17 3 27 0l36 -8q24 -7 26 -21z" />
    <glyph glyph-name="Eacute" unicode="&#xc9;" horiz-adv-x="753" 
d="M697 135q0 -19 -5 -38q-8 -17 -20 -47q-21 -66 -40 -66q-4 0 -26 12.5t-28.5 14.5t-55.5 2q-4 0 -20 -5.5t-21 -5.5t-12.5 4.5t-11.5 5.5q-23 5 -75 5q-4 0 -8.5 -5t-9.5 -5q-49 -8 -95 -8q-4 0 -24 5l-32 8q-27 5 -59 5q-9 0 -26.5 -11t-38.5 -11q-74 0 -83 31
q4 14 32 23q24 6 48 13q6 0 18 5q4 5 6 14q4 15 5 17q7 17 6 39q-1 27 0.5 35t8.5 29q6 18 6 22l-1.5 13.5t-1.5 37.5q-1 36 -1 93q0 4 -3 11t-3 11q0 10 4 50q4 32 1 50q-4 19 -29 75q-3 8 -20 20t-24 12q-4 0 -11.5 -5.5t-11.5 -5.5q-14 0 -25 12t-11 24q0 23 30 38
q24 12 44 12q4 0 26.5 -5.5t27.5 -5.5q3 0 20 5t23 5q12 0 38 1h28q4 0 29.5 -12.5t30.5 -12.5q4 0 20 3.5t21 3.5q4 0 13 -1.5t14 -1.5q4 0 44 9t44 9t38.5 -9t38.5 -9q5 0 32 7t31 7q18 0 43 -16q16 -11 17 -22q-2 -43 2 -125q6 -8 12 -22q2 -6 2 -20q0 -20 -12 -43h-15
q-11 0 -27 35q-9 21 -19 41q-23 29 -47 57q-29 35 -55 45q-22 9 -63 9q-19 0 -43 -2t-23 -2q-14 0 -44.5 -11.5t-35.5 -19.5q-11 -16 -12 -38.5t-1 -43.5q-1 -4 -5.5 -17.5t-4.5 -18.5q0 -21 23 -71q7 -17 22 -17q7 0 47.5 18t58.5 32q5 4 8 21q4 30 4 32q4 16 7 23
q7 17 19 25q7 -2 19 -16q15 -17 15 -33q0 -4 -10.5 -57t-10.5 -58q0 -3 9 -40.5t9 -41.5q0 -27 -22 -27q-15 0 -20 5q-8 13 -33 37q-15 10 -46 25q-14 4 -71 12q-11 -5 -23 -41.5t-12 -57.5q0 7 13 -47q7 -30 14 -61q12 -40 37 -63q9 -7 48 -7q4 0 16.5 3.5t17.5 3.5
q4 0 10.5 -2t10.5 -2q8 0 75 31q8 -1 22 2q16 10 55 50q17 28 34 57q33 55 43 55q22 0 36 -43q11 -32 11 -62zM250 728l17 17q19 11 47 25q5 2 22 20t21.5 18t65.5 34q28 6 32 6q18 0 18 -31q0 -3 -6 -32q-17 -13 -38 -29q0 -1 -45.5 -8.5t-45.5 -10.5t-36.5 -16t-36.5 -14
q-3 -3 -15 21z" />
    <glyph glyph-name="Ntilde" unicode="&#xd1;" horiz-adv-x="820" 
d="M813 648q0 -20 -11 -26q-23 -7 -45 -15q-32 -11 -49.5 -34t-20.5 -45q1 -15 1 -44q-1 -7 -5.5 -24t-4.5 -22q0 -4 7.5 -45t7.5 -46q0 -3 -4 -122q-5 -132 -6 -176q1 -4 5 -11q4 -17 -4 -34q-2 -2 -7 -8q-37 -2 -79 31t-56 76q-10 30 -18 41q-16 26 -44 69q-20 19 -55 61
q-8 17 -29 48q-50 58 -97 108q-3 1 -13 1q-31 0 -41 -23q-5 -12 -5 -43q0 -21 14 -91q13 -65 10 -104q-2 -30 4 -47q4 -11 24 -37q9 -12 55 -17q39 -4 39 -30q0 -20 -23 -31q-19 -9 -41 -8q-25 1 -87 -4q-11 -3 -33 -7q-12 -1 -99 -1q-37 0 -66 8q-6 2 -13 12t-7 17
q0 18 20 38.5t37 21.5q14 0 43 3q11 2 30.5 17.5t21.5 27.5q0 18 2 55q2 8 11.5 24.5t9.5 21.5q0 2 -6 46t-7 65q-1 10 3 35q5 29 5 60q1 22 -19 75q-26 69 -60 69q-3 0 -8 -1.5t-10 -1.5q-88 0 -88 56q0 46 48 46q4 0 30 -3.5t30 -3.5q5 0 26 5.5t25 5.5t42 -8
q44 -9 65 -12q4 0 16.5 -6.5t17.5 -6.5q4 0 11 3.5t11 3.5q15 0 20 -11.5t6 -55.5q1 -19 22 -36q29 -25 34 -33q3 -15 14 -44q4 -6 17 -15q17 -10 18 -11q29 -27 50 -58q4 -13 17 -40q31 -43 61 -43q20 0 48 14q1 5 -4 18.5t-6 19.5t-1 74q0 4 -3.5 14.5t-3.5 14.5q0 5 7 39
t7 38q0 13 -10 28t-25 20q-100 32 -100 64q0 25 49 25q5 0 49 -5.5t48 -5.5t20 5.5t20 5.5t17 -3.5t18 -3.5t30.5 9t29.5 9q14 0 27 -17.5t13 -28.5zM212 763q0 20 37 48q47 12 52 12q4 0 23.5 -3t21.5 -3t67 -24l58 -8q3 0 38 11l29 27q18 -24 18 -27q0 -30 -50 -52
q-29 -13 -66 -13q-12 0 -24 1q0 -2 -33.5 10.5t-34.5 12.5q-35 0 -52 12q-3 2 -7 2q-14 0 -34 -11q-5 -2 -17.5 -11.5t-12.5 -11.5q0 -1 -5 12.5t-6.5 14t-1.5 1.5z" />
    <glyph glyph-name="Odieresis" unicode="&#xd6;" horiz-adv-x="765" 
d="M722 367q0 -12 -17 -87q-21 -90 -39 -129q-19 -42 -66 -82q-30 -22 -94 -68q-15 -11 -44 -19q-24 -8 -34 -8q-78 0 -128 12q-9 2 -30.5 17.5t-26.5 15.5q-3 0 -12.5 -4t-14.5 -4q-26 0 -67 27q-13 9 -24 26l-18 28q-6 9 -28 24.5t-28 26.5q-32 62 -39 111q-1 4 4 17.5
t5 19.5q0 3 -1 6q-12 27 -12 85q0 29 17 58q20 34 41 67q16 28 33 56.5t37 47.5q34 31 72 41q42 12 70 30q20 12 46 12q19 0 152 -23q7 -8 30 -24q104 -46 175 -161q5 -8 23 -63.5zM558 279q0 81 -20 198q-11 68 -44 118q-11 16 -42 33q-26 15 -35 15q-5 0 -10 -2.5t-9 -3.5
q-15 3 -42 4q-14 -7 -35 -15q-4 -1 -25 -8t-25 -7q-1 0 -1 1t4 4q-23 -18 -33 -47q-19 -56 -37 -111q-15 -51 -15 -105q0 -46 23 -209q6 -43 38 -80q37 -42 81 -42q5 0 28.5 5.5t28.5 5.5t26 -3.5t25 -3.5q12 0 37 12t30 18q28 34 36 95q3 40 6 81q10 53 10 47zM395 781
q2 12 18 31t28 17q25 -5 43 -26t14 -46q-3 -15 -18.5 -29.5t-32.5 -11.5q-6 1 -12 6q-20 -4 -32 20q-11 20 -8 39zM195 781q2 12 18 31t28 17q25 -5 43 -26t14 -46q-3 -15 -18.5 -29.5t-32.5 -11.5q-6 1 -12 6q-20 -4 -32 20q-11 20 -8 39z" />
    <glyph glyph-name="Udieresis" unicode="&#xdc;" horiz-adv-x="678" 
d="M637 624q0 -27 -18 -35h-24q-18 0 -23 -14q-15 -37 -15 -96q0 -4 7 -56.5t7 -56.5q0 -64 -4 -116q-10 -46 -29 -147q-3 -18 -62 -67q-19 -17 -60 -51q-18 -5 -15 -5q-3 0 -18 7.5t-20 7.5q-4 0 -27 -7.5t-27 -7.5q-5 0 -14 4q-13 5 -16 6q-20 3 -60 13q-10 7 -31 19
q-13 2 -39 9q-25 11 -35 25l-24 36t-17 41q-5 29 -5 51l17 325q0 15 -8 37q-10 28 -23 28q-3 0 -11.5 -4t-13.5 -4q-27 0 -27 45q0 52 54 52q4 0 30.5 -3.5t30.5 -3.5t26.5 3.5t27.5 3.5q4 0 20.5 -7t21.5 -7q3 0 12.5 3.5t13.5 3.5t15.5 -9t15.5 -9q13 0 26 14h12
q11 -23 11 -28q0 -36 -22 -36q-4 0 -10.5 1.5t-10.5 1.5q-16 0 -40.5 -23.5t-24.5 -42.5q0 -4 4.5 -17t4.5 -18q9 -83 9 -175v-119q0 -50 37.5 -92t84.5 -42q30 0 67 17.5t47 39.5q6 12 12 71q12 106 12 99q0 12 -5 43t-4 47q1 10 7.5 38.5t6.5 32.5q0 67 -25 110
q-6 9 -43 30q-33 19 -33 34q0 16 35 31q29 12 38 12q4 0 24.5 -4t24.5 -4t19 7.5t19 7.5q2 0 21.5 -3.5t29.5 -3.5q4 0 12 -2q21 -26 21 -41zM365 781q2 12 18 31t28 17q25 -5 43 -26t14 -46q-3 -15 -18.5 -29.5t-32.5 -11.5q-6 1 -12 6q-20 -4 -32 20q-11 20 -8 39z
M165 781q2 12 18 31t28 17q25 -5 43 -26t14 -46q-3 -15 -18.5 -29.5t-32.5 -11.5q-6 1 -12 6q-20 -4 -32 20q-11 20 -8 39z" />
    <glyph glyph-name="aacute" unicode="&#xe1;" horiz-adv-x="533" 
d="M519 132q0 -4 -7 -27q-10 -28 -12 -39q-8 -9 -20 -26q-4 -13 -20 -36q-8 -1 -30.5 -3t-28 -2t-7 -1.5t-6.5 -1.5q-10 0 -39.5 27t-56.5 27q-14 0 -23 -7q-17 -15 -35 -24q-22 -12 -95 -28q-43 -10 -37 -10q-7 0 -29 11q-25 12 -37 23q-23 22 -23 55q0 25 13.5 48t27.5 44
q35 57 139 87q17 -1 47 2q19 7 38 29.5t19 39.5q0 33 -19 65q-23 37 -55 37q-11 0 -32 -7q-24 -8 -28 -18q-3 -14 -9 -43q-6 -22 -24 -46q-22 -28 -44 -28q-7 0 -19 9t-16 17q-12 26 -12 76q0 27 22 42q15 6 44 20q6 5 15 13q9 3 45 20q31 14 37 14l53 -5q4 0 17.5 -6.5
t19.5 -6.5q39 0 45 -6q61 -61 61 -156q0 -13 -2 -26q0 -5 5.5 -19t5.5 -17q0 -5 -7.5 -30.5t-7.5 -29.5q0 -5 4.5 -17.5t4.5 -17.5q-2 -14 -1 -43q5 -23 20 -43h24q7 9 24 54q14 34 24 34q4 0 10.5 -2t12.5 -2q0 -1 2 -8t2 -12zM297 167q0 19 -13 35q-16 19 -41 19
q-9 0 -33 -8q-27 -9 -40 -19q-37 -27 -37 -87q0 -18 14.5 -33.5t34.5 -15.5q5 0 15.5 1.5t15 1.5t15.5 6.5t13 6.5q25 6 42 37q14 28 14 56zM116 544l18 18q19 11 46 25q5 2 22 20t21.5 18t66.5 34l9 2t15 2q25 0 25 -30q0 -2 -6 -31q-17 -13 -37 -29q-1 -1 -46.5 -8.5
t-45.5 -11t-36.5 -16t-36.5 -13.5q-3 -3 -15 20z" />
    <glyph glyph-name="agrave" unicode="&#xe0;" horiz-adv-x="533" 
d="M519 132q0 -4 -7 -27q-10 -28 -12 -39q-8 -9 -20 -26q-4 -13 -20 -36q-8 -1 -30.5 -3t-28 -2t-7 -1.5t-6.5 -1.5q-10 0 -39.5 27t-56.5 27q-14 0 -23 -7q-17 -15 -35 -24q-22 -12 -95 -28q-43 -10 -37 -10q-7 0 -29 11q-25 12 -37 23q-23 22 -23 55q0 25 13.5 48t27.5 44
q35 57 139 87q17 -1 47 2q19 7 38 29.5t19 39.5q0 33 -19 65q-23 37 -55 37q-11 0 -32 -7q-24 -8 -28 -18q-3 -14 -9 -43q-6 -22 -24 -46q-22 -28 -44 -28q-7 0 -19 9t-16 17q-12 26 -12 76q0 27 22 42q15 6 44 20q6 5 15 13q9 3 45 20q31 14 37 14l53 -5q4 0 17.5 -6.5
t19.5 -6.5q39 0 45 -6q61 -61 61 -156q0 -13 -2 -26q0 -5 5.5 -19t5.5 -17q0 -5 -7.5 -30.5t-7.5 -29.5q0 -5 4.5 -17.5t4.5 -17.5q-2 -14 -1 -43q5 -23 20 -43h24q7 9 24 54q14 34 24 34q4 0 10.5 -2t12.5 -2q0 -1 2 -8t2 -12zM297 167q0 19 -13 35q-16 19 -41 19
q-9 0 -33 -8q-27 -9 -40 -19q-37 -27 -37 -87q0 -18 14.5 -33.5t34.5 -15.5q5 0 15.5 1.5t15 1.5t15.5 6.5t13 6.5q25 6 42 37q14 28 14 56zM330 548l-18 17q-19 11 -47 25q-4 2 -21.5 20t-21.5 18t-66 34q-27 6 -31 6q-18 0 -18 -31q0 -3 5 -32q18 -13 38 -29
q1 -1 46.5 -8.5t45.5 -10.5t36 -16t37 -14q3 -3 15 21z" />
    <glyph glyph-name="acircumflex" unicode="&#xe2;" horiz-adv-x="533" 
d="M519 132q0 -4 -7 -27q-10 -28 -12 -39q-8 -9 -20 -26q-4 -13 -20 -36q-8 -1 -30.5 -3t-28 -2t-7 -1.5t-6.5 -1.5q-10 0 -39.5 27t-56.5 27q-14 0 -23 -7q-17 -15 -35 -24q-22 -12 -95 -28q-43 -10 -37 -10q-7 0 -29 11q-25 12 -37 23q-23 22 -23 55q0 25 13.5 48t27.5 44
q35 57 139 87q17 -1 47 2q19 7 38 29.5t19 39.5q0 33 -19 65q-23 37 -55 37q-11 0 -32 -7q-24 -8 -28 -18q-3 -14 -9 -43q-6 -22 -24 -46q-22 -28 -44 -28q-7 0 -19 9t-16 17q-12 26 -12 76q0 27 22 42q15 6 44 20q6 5 15 13q9 3 45 20q31 14 37 14l53 -5q4 0 17.5 -6.5
t19.5 -6.5q39 0 45 -6q61 -61 61 -156q0 -13 -2 -26q0 -5 5.5 -19t5.5 -17q0 -5 -7.5 -30.5t-7.5 -29.5q0 -5 4.5 -17.5t4.5 -17.5q-2 -14 -1 -43q5 -23 20 -43h24q7 9 24 54q14 34 24 34q4 0 10.5 -2t12.5 -2q0 -1 2 -8t2 -12zM297 167q0 19 -13 35q-16 19 -41 19
q-9 0 -33 -8q-27 -9 -40 -19q-37 -27 -37 -87q0 -18 14.5 -33.5t34.5 -15.5q5 0 15.5 1.5t15 1.5t15.5 6.5t13 6.5q25 6 42 37q14 28 14 56zM98 530l-9 11q2 6 2 8t15.5 10.5t23.5 10.5t25 19q2 2 19 11.5t19 9.5t24 28l55 -39l51 -30l26 -20q-8 -15 -8 -17q-38 4 -38 6
t-16.5 11t-18.5 9t-24 3l-29 6q-33 -11 -35 -11t-42 -15z" />
    <glyph glyph-name="adieresis" unicode="&#xe4;" horiz-adv-x="533" 
d="M519 132q0 -4 -7 -27q-10 -28 -12 -39q-8 -9 -20 -26q-4 -13 -20 -36q-8 -1 -30.5 -3t-28 -2t-7 -1.5t-6.5 -1.5q-10 0 -39.5 27t-56.5 27q-14 0 -23 -7q-17 -15 -35 -24q-22 -12 -95 -28q-43 -10 -37 -10q-7 0 -29 11q-25 12 -37 23q-23 22 -23 55q0 25 13.5 48t27.5 44
q35 57 139 87q17 -1 47 2q19 7 38 29.5t19 39.5q0 33 -19 65q-23 37 -55 37q-11 0 -32 -7q-24 -8 -28 -18q-3 -14 -9 -43q-6 -22 -24 -46q-22 -28 -44 -28q-7 0 -19 9t-16 17q-12 26 -12 76q0 27 22 42q15 6 44 20q6 5 15 13q9 3 45 20q31 14 37 14l53 -5q4 0 17.5 -6.5
t19.5 -6.5q39 0 45 -6q61 -61 61 -156q0 -13 -2 -26q0 -5 5.5 -19t5.5 -17q0 -5 -7.5 -30.5t-7.5 -29.5q0 -5 4.5 -17.5t4.5 -17.5q-2 -14 -1 -43q5 -23 20 -43h24q7 9 24 54q14 34 24 34q4 0 10.5 -2t12.5 -2q0 -1 2 -8t2 -12zM297 167q0 19 -13 35q-16 19 -41 19
q-9 0 -33 -8q-27 -9 -40 -19q-37 -27 -37 -87q0 -18 14.5 -33.5t34.5 -15.5q5 0 15.5 1.5t15 1.5t15.5 6.5t13 6.5q25 6 42 37q14 28 14 56zM265 601q2 12 18 31t28 17q25 -5 43 -26t14 -46q-3 -15 -18.5 -29.5t-32.5 -11.5q-6 1 -12 6q-20 -4 -32 20q-11 20 -8 39zM95 601
q2 12 18 31t28 17q25 -5 43 -26t14 -46q-3 -15 -18.5 -29.5t-32.5 -11.5q-6 1 -12 6q-20 -4 -32 20q-11 20 -8 39z" />
    <glyph glyph-name="atilde" unicode="&#xe3;" horiz-adv-x="533" 
d="M519 132q0 -4 -7 -27q-10 -28 -12 -39q-8 -9 -20 -26q-4 -13 -20 -36q-8 -1 -30.5 -3t-28 -2t-7 -1.5t-6.5 -1.5q-10 0 -39.5 27t-56.5 27q-14 0 -23 -7q-17 -15 -35 -24q-22 -12 -95 -28q-43 -10 -37 -10q-7 0 -29 11q-25 12 -37 23q-23 22 -23 55q0 25 13.5 48t27.5 44
q35 57 139 87q17 -1 47 2q19 7 38 29.5t19 39.5q0 33 -19 65q-23 37 -55 37q-11 0 -32 -7q-24 -8 -28 -18q-3 -14 -9 -43q-6 -22 -24 -46q-22 -28 -44 -28q-7 0 -19 9t-16 17q-12 26 -12 76q0 27 22 42q15 6 44 20q6 5 15 13q9 3 45 20q31 14 37 14l53 -5q4 0 17.5 -6.5
t19.5 -6.5q39 0 45 -6q61 -61 61 -156q0 -13 -2 -26q0 -5 5.5 -19t5.5 -17q0 -5 -7.5 -30.5t-7.5 -29.5q0 -5 4.5 -17.5t4.5 -17.5q-2 -14 -1 -43q5 -23 20 -43h24q7 9 24 54q14 34 24 34q4 0 10.5 -2t12.5 -2q0 -1 2 -8t2 -12zM297 167q0 19 -13 35q-16 19 -41 19
q-9 0 -33 -8q-27 -9 -40 -19q-37 -27 -37 -87q0 -18 14.5 -33.5t34.5 -15.5q5 0 15.5 1.5t15 1.5t15.5 6.5t13 6.5q25 6 42 37q14 28 14 56zM95 567q0 17 27 38q28 14 32 14h21.5h19.5q2 0 51 -18l44 -6q2 0 30 4l20 12q12 -16 12 -18q0 -25 -36 -41q-29 -13 -68 -9
q0 -1 -25 8.5t-26 9.5q-26 0 -39 9q-8 5 -30.5 -7t-22.5 -17q0 -1 -3.5 9t-5 10.5t-1.5 1.5z" />
    <glyph glyph-name="aring" unicode="&#xe5;" horiz-adv-x="533" 
d="M519 132q0 -4 -7 -27q-10 -28 -12 -39q-8 -9 -20 -26q-4 -13 -20 -36q-8 -1 -30.5 -3t-28 -2t-7 -1.5t-6.5 -1.5q-10 0 -39.5 27t-56.5 27q-14 0 -23 -7q-17 -15 -35 -24q-22 -12 -95 -28q-43 -10 -37 -10q-7 0 -29 11q-25 12 -37 23q-23 22 -23 55q0 25 13.5 48t27.5 44
q35 57 139 87q17 -1 47 2q19 7 38 29.5t19 39.5q0 33 -19 65q-23 37 -55 37q-11 0 -32 -7q-24 -8 -28 -18q-3 -14 -9 -43q-6 -22 -24 -46q-22 -28 -44 -28q-7 0 -19 9t-16 17q-12 26 -12 76q0 27 22 42q15 6 44 20q6 5 15 13q9 3 45 20q31 14 37 14l53 -5q4 0 17.5 -6.5
t19.5 -6.5q39 0 45 -6q61 -61 61 -156q0 -13 -2 -26q0 -5 5.5 -19t5.5 -17q0 -5 -7.5 -30.5t-7.5 -29.5q0 -5 4.5 -17.5t4.5 -17.5q-2 -14 -1 -43q5 -23 20 -43h24q7 9 24 54q14 34 24 34q4 0 10.5 -2t12.5 -2q0 -1 2 -8t2 -12zM297 167q0 19 -13 35q-16 19 -41 19
q-9 0 -33 -8q-27 -9 -40 -19q-37 -27 -37 -87q0 -18 14.5 -33.5t34.5 -15.5q5 0 15.5 1.5t15 1.5t15.5 6.5t13 6.5q25 6 42 37q14 28 14 56zM232 683q29 0 51 -22t22 -52q0 -29 -21.5 -49t-51.5 -20q-29 0 -50 21t-21 50q0 30 21 51t50 21zM232 652q-41 0 -41 -40
q0 -17 13 -28.5t31 -11.5q39 0 39 37q0 18 -12.5 30.5t-29.5 12.5z" />
    <glyph glyph-name="ccedilla" unicode="&#xe7;" horiz-adv-x="504" 
d="M332 -61q5 -27 5 -28q0 -4 -8 -36q-18 -10 -46 -30q-4 -5 -27.5 -11.5t-33.5 -6.5q-8 6 -8 14q0 6 8 16q14 0 40 9q8 10 24 28q1 3 4 18l1 2v2q-4 4 -9 13q-1 2 -10 6l-3 1q-11 0 -35 -7q-3 -1 -4.5 2t-4.5 2q-7 -1 -5 9l8 37q3 8 6 21q-6 3 -17 9q-28 10 -57 19
q-35 13 -64 38q-10 9 -58 76q-14 20 -18 37q-12 45 -12 88q0 29 8 45q44 83 98 137q12 12 45 23q28 8 38 8q5 0 8.5 -1.5t8.5 -1.5q4 0 13 4.5t12 4.5q41 9 68 9q26 0 32 -6q46 -42 63 -69q21 -33 21 -71q0 -26 -25.5 -55t-41.5 -29q-28 0 -46 19.5t-18 40.5q0 4 7.5 25.5
t7.5 25.5q0 20 -5 25q-29 28 -50 28q-34 0 -67 -19q-12 -7 -29 -44.5t-17 -56.5q0 -3 3.5 -16t2.5 -19q-2 -13 -2 -25q0 -27 11 -66q13 -46 15 -65q5 -7 7 -14q44 -36 67 -36q4 0 20.5 2t21.5 2q28 0 71 60t54 60q15 0 30.5 -12t15.5 -26q0 -20 -42 -80q-18 -27 -36 -34
q-48 -19 -114 -44q-3 -8 -8 -32l2 1q12 2 20 0q15 -4 31 -8q22 -8 23 -18z" />
    <glyph glyph-name="eacute" unicode="&#xe9;" horiz-adv-x="515" 
d="M459 152q0 -13 -11 -30q-13 -21 -27 -42q-29 -48 -61 -65q-45 -23 -78 -23q-3 0 -18 9.5t-22 10.5q-42 4 -85 8q-53 10 -83 53q-13 18 -27 37q-17 24 -21 40q-1 23 -5 58q-2 7 -11.5 25.5t-9.5 24.5q0 19 27 83q38 92 112 138q8 4 37 11.5t35 7.5q53 0 116 -16
q29 -7 58 -29q7 -5 13 -20q7 -18 11 -23q30 -39 31 -40q12 -19 12 -41q0 -31 -9 -55q-13 -34 -39 -34q-3 0 -36 5.5t-38 5.5q-4 0 -33.5 -7.5t-34.5 -7.5q-4 0 -37 2t-37 2q-14 0 -34 -29q-12 -15 -12 -51q0 -31 8 -45q35 -61 67 -61q4 0 38 -2t38 -2q6 0 9 3.5t6 6.5
q19 -4 50 39q26 35 51 70q13 12 26 12q10 0 17 -10.5t7 -18.5zM321 347q0 31 -20 67q-5 8 -34.5 22.5t-35.5 14.5q-34 0 -64 -46q-25 -39 -25 -65q0 -53 60 -53q9 0 77 13q14 3 30 14q12 8 12 33zM116 544l18 18q19 11 46 25q5 2 22 20t21.5 18t66.5 34l9 2t15 2
q25 0 25 -30q0 -2 -6 -31q-17 -13 -37 -29q-1 -1 -46.5 -8.5t-45.5 -11t-36.5 -16t-36.5 -13.5q-3 -3 -15 20z" />
    <glyph glyph-name="egrave" unicode="&#xe8;" horiz-adv-x="515" 
d="M459 152q0 -13 -11 -30q-13 -21 -27 -42q-29 -48 -61 -65q-45 -23 -78 -23q-3 0 -18 9.5t-22 10.5q-42 4 -85 8q-53 10 -83 53q-13 18 -27 37q-17 24 -21 40q-1 23 -5 58q-2 7 -11.5 25.5t-9.5 24.5q0 19 27 83q38 92 112 138q8 4 37 11.5t35 7.5q53 0 116 -16
q29 -7 58 -29q7 -5 13 -20q7 -18 11 -23q30 -39 31 -40q12 -19 12 -41q0 -31 -9 -55q-13 -34 -39 -34q-3 0 -36 5.5t-38 5.5q-4 0 -33.5 -7.5t-34.5 -7.5q-4 0 -37 2t-37 2q-14 0 -34 -29q-12 -15 -12 -51q0 -31 8 -45q35 -61 67 -61q4 0 38 -2t38 -2q6 0 9 3.5t6 6.5
q19 -4 50 39q26 35 51 70q13 12 26 12q10 0 17 -10.5t7 -18.5zM321 347q0 31 -20 67q-5 8 -34.5 22.5t-35.5 14.5q-34 0 -64 -46q-25 -39 -25 -65q0 -53 60 -53q9 0 77 13q14 3 30 14q12 8 12 33zM340 548l-18 17q-19 11 -47 25q-4 2 -21.5 20t-21.5 18t-66 34q-27 6 -31 6
q-18 0 -18 -31q0 -3 5 -32q18 -13 38 -29q1 -1 46.5 -8.5t45.5 -10.5t36 -16t37 -14q3 -3 15 21z" />
    <glyph glyph-name="ecircumflex" unicode="&#xea;" horiz-adv-x="515" 
d="M459 152q0 -13 -11 -30q-13 -21 -27 -42q-29 -48 -61 -65q-45 -23 -78 -23q-3 0 -18 9.5t-22 10.5q-42 4 -85 8q-53 10 -83 53q-13 18 -27 37q-17 24 -21 40q-1 23 -5 58q-2 7 -11.5 25.5t-9.5 24.5q0 19 27 83q38 92 112 138q8 4 37 11.5t35 7.5q53 0 116 -16
q29 -7 58 -29q7 -5 13 -20q7 -18 11 -23q30 -39 31 -40q12 -19 12 -41q0 -31 -9 -55q-13 -34 -39 -34q-3 0 -36 5.5t-38 5.5q-4 0 -33.5 -7.5t-34.5 -7.5q-4 0 -37 2t-37 2q-14 0 -34 -29q-12 -15 -12 -51q0 -31 8 -45q35 -61 67 -61q4 0 38 -2t38 -2q6 0 9 3.5t6 6.5
q19 -4 50 39q26 35 51 70q13 12 26 12q10 0 17 -10.5t7 -18.5zM321 347q0 31 -20 67q-5 8 -34.5 22.5t-35.5 14.5q-34 0 -64 -46q-25 -39 -25 -65q0 -53 60 -53q9 0 77 13q14 3 30 14q12 8 12 33zM108 530l-9 11q2 6 2 8t15.5 10.5t23.5 10.5t25 19q2 2 19 11.5t19 9.5
t24 28l55 -39l51 -30l26 -20q-8 -15 -8 -17q-38 4 -38 6t-16.5 11t-18.5 9t-24 3l-29 6q-33 -11 -35 -11t-42 -15z" />
    <glyph glyph-name="edieresis" unicode="&#xeb;" horiz-adv-x="515" 
d="M459 152q0 -13 -11 -30q-13 -21 -27 -42q-29 -48 -61 -65q-45 -23 -78 -23q-3 0 -18 9.5t-22 10.5q-42 4 -85 8q-53 10 -83 53q-13 18 -27 37q-17 24 -21 40q-1 23 -5 58q-2 7 -11.5 25.5t-9.5 24.5q0 19 27 83q38 92 112 138q8 4 37 11.5t35 7.5q53 0 116 -16
q29 -7 58 -29q7 -5 13 -20q7 -18 11 -23q30 -39 31 -40q12 -19 12 -41q0 -31 -9 -55q-13 -34 -39 -34q-3 0 -36 5.5t-38 5.5q-4 0 -33.5 -7.5t-34.5 -7.5q-4 0 -37 2t-37 2q-14 0 -34 -29q-12 -15 -12 -51q0 -31 8 -45q35 -61 67 -61q4 0 38 -2t38 -2q6 0 9 3.5t6 6.5
q19 -4 50 39q26 35 51 70q13 12 26 12q10 0 17 -10.5t7 -18.5zM321 347q0 31 -20 67q-5 8 -34.5 22.5t-35.5 14.5q-34 0 -64 -46q-25 -39 -25 -65q0 -53 60 -53q9 0 77 13q14 3 30 14q12 8 12 33zM265 601q2 12 18 31t28 17q25 -5 43 -26t14 -46q-3 -15 -18.5 -29.5
t-32.5 -11.5q-6 1 -12 6q-20 -4 -32 20q-11 20 -8 39zM95 601q2 12 18 31t28 17q25 -5 43 -26t14 -46q-3 -15 -18.5 -29.5t-32.5 -11.5q-6 1 -12 6q-20 -4 -32 20q-11 20 -8 39z" />
    <glyph glyph-name="iacute" unicode="&#xed;" horiz-adv-x="299" 
d="M266 38q0 -15 -18.5 -28t-30.5 -13q-4 0 -30.5 3.5t-30.5 3.5q-19 0 -36 -3.5t-27 -3.5q-54 0 -54 27q0 4 13 16q17 15 22 21q9 12 21 60q12 43 12 54q0 113 -5 170q-3 37 -38 73q-4 4 -25 13q-16 7 -19 18q4 24 35 24q4 0 15 -2t15 -2q5 0 30.5 5.5t29.5 5.5
q45 0 51 -15q2 -22 9 -66q1 -2 5.5 -9.5t4.5 -11.5v-120q0 -5 -7 -25.5t-7 -24.5t7 -24t8 -30q-1 -20 4 -54q4 -10 27 -30q19 -16 19 -32zM-4 544l18 18q19 11 46 25q5 2 22 20t21.5 18t66.5 34l9 2t15 2q25 0 25 -30q0 -2 -6 -31q-17 -13 -37 -29q-1 -1 -46.5 -8.5
t-45.5 -11t-36.5 -16t-36.5 -13.5q-3 -3 -15 20z" />
    <glyph glyph-name="igrave" unicode="&#xec;" horiz-adv-x="299" 
d="M266 38q0 -15 -18.5 -28t-30.5 -13q-4 0 -30.5 3.5t-30.5 3.5q-19 0 -36 -3.5t-27 -3.5q-54 0 -54 27q0 4 13 16q17 15 22 21q9 12 21 60q12 43 12 54q0 113 -5 170q-3 37 -38 73q-4 4 -25 13q-16 7 -19 18q4 24 35 24q4 0 15 -2t15 -2q5 0 30.5 5.5t29.5 5.5
q45 0 51 -15q2 -22 9 -66q1 -2 5.5 -9.5t4.5 -11.5v-120q0 -5 -7 -25.5t-7 -24.5t7 -24t8 -30q-1 -20 4 -54q4 -10 27 -30q19 -16 19 -32zM230 548l-18 17q-19 11 -47 25q-4 2 -21.5 20t-21.5 18t-66 34q-27 6 -31 6q-18 0 -18 -31q0 -3 5 -32q18 -13 38 -29q1 -1 46.5 -8.5
t45.5 -10.5t36 -16t37 -14q3 -3 15 21z" />
    <glyph glyph-name="icircumflex" unicode="&#xee;" horiz-adv-x="299" 
d="M266 38q0 -15 -18.5 -28t-30.5 -13q-4 0 -30.5 3.5t-30.5 3.5q-19 0 -36 -3.5t-27 -3.5q-54 0 -54 27q0 4 13 16q17 15 22 21q9 12 21 60q12 43 12 54q0 113 -5 170q-3 37 -38 73q-4 4 -25 13q-16 7 -19 18q4 24 35 24q4 0 15 -2t15 -2q5 0 30.5 5.5t29.5 5.5
q45 0 51 -15q2 -22 9 -66q1 -2 5.5 -9.5t4.5 -11.5v-120q0 -5 -7 -25.5t-7 -24.5t7 -24t8 -30q-1 -20 4 -54q4 -10 27 -30q19 -16 19 -32zM-2 530l-9 11q2 6 2 8t15.5 10.5t23.5 10.5t25 19q2 2 19 11.5t19 9.5t24 28l55 -39l51 -30l26 -20q-8 -15 -8 -17q-38 4 -38 6
t-16.5 11t-18.5 9t-24 3l-29 6q-33 -11 -35 -11t-42 -15z" />
    <glyph glyph-name="idieresis" unicode="&#xef;" horiz-adv-x="299" 
d="M266 38q0 -15 -18.5 -28t-30.5 -13q-4 0 -30.5 3.5t-30.5 3.5q-19 0 -36 -3.5t-27 -3.5q-54 0 -54 27q0 4 13 16q17 15 22 21q9 12 21 60q12 43 12 54q0 113 -5 170q-3 37 -38 73q-4 4 -25 13q-16 7 -19 18q4 24 35 24q4 0 15 -2t15 -2q5 0 30.5 5.5t29.5 5.5
q45 0 51 -15q2 -22 9 -66q1 -2 5.5 -9.5t4.5 -11.5v-120q0 -5 -7 -25.5t-7 -24.5t7 -24t8 -30q-1 -20 4 -54q4 -10 27 -30q19 -16 19 -32zM155 601q2 12 18 31t28 17q25 -5 43 -26t14 -46q-3 -15 -18.5 -29.5t-32.5 -11.5q-6 1 -12 6q-20 -4 -32 20q-11 20 -8 39zM-15 601
q2 12 18 31t28 17q25 -5 43 -26t14 -46q-3 -15 -18.5 -29.5t-32.5 -11.5q-6 1 -12 6q-20 -4 -32 20q-11 20 -8 39z" />
    <glyph glyph-name="ntilde" unicode="&#xf1;" horiz-adv-x="591" 
d="M572 21q0 -11 -15 -23.5t-22 -12.5q-4 0 -33 12.5t-33 12.5q-5 0 -39 -3.5t-39 -3.5q-3 0 -20.5 3.5t-25.5 3.5q-5 5 -5 11q0 -2 29 39t29 53v129q0 4 -2.5 14t-2.5 16q0 14 -3 44q-4 37 -5 50q-2 25 -10 53q-3 5 -8 9q-30 12 -45 12q-4 0 -25 -7.5t-25 -7.5
q-9 0 -21 8.5t-12 15.5t9 20t22 16q18 0 54 2q5 1 20 5.5t20 4.5q25 0 73 -23q5 -2 14 -15q10 -17 13 -20q31 -36 41 -62q2 -4 2 -22q0 -5 -7.5 -43.5t-7.5 -42.5v-149q0 -5 6 -10.5t7 -6.5q10 -23 41 -47q26 -20 26 -35zM229 23q0 -8 -11 -16t-20 -8q-4 0 -19.5 9t-20.5 9
q-11 0 -25 -8q-21 -13 -36 -19q-2 -2 -36 -2q-29 0 -36 2q-24 7 -24 33q0 21 19 28q29 11 36 17q19 19 19 50q0 11 -7 52q-1 7 4.5 26.5t6.5 28.5q-2 15 -1 44q10 41 10 68q0 50 -9 64q-12 19 -32 28q-15 6 -31 12q-8 6 -8 15q0 13 12 22q15 1 46 8.5t34 7.5q22 0 41 -9
q14 -6 36 -25q25 -23 33 -28q4 -67 -12 -135q-4 -18 -18 -58q-13 -35 -13 -39q0 -5 4.5 -18t5.5 -18v-52q0 -27 13 -52q4 -10 23 -19q16 -7 16 -18zM125 577q0 17 27 38q28 14 32 14h21.5h19.5q2 0 51 -18l44 -6q2 0 30 4l20 12q12 -16 12 -18q0 -25 -36 -41q-29 -13 -68 -9
q0 -1 -25 8.5t-26 9.5q-26 0 -39 9q-8 5 -30.5 -7t-22.5 -17q0 -1 -3.5 9t-5 10.5t-1.5 1.5z" />
    <glyph glyph-name="oacute" unicode="&#xf3;" horiz-adv-x="497" 
d="M450 234q0 -32 -8.5 -71t-17.5 -78q-2 -9 -26.5 -25t-38.5 -21q-9 -7 -28 -19q-10 -2 -29 -6q-6 -2 -19 -13t-18 -11q-4 0 -5 3.5t-6 3.5q-4 0 -9.5 -7t-9.5 -7q-5 0 -20 3.5t-20 3.5q-4 0 -14 -2t-15 -2q-40 0 -92 59q-21 25 -39 67q-15 36 -29 73q-4 9 -4 33q0 -2 5 22
q3 13 -1 26l-5 4q0 49 5.5 64t47.5 76q7 19 30 53q17 8 47 24q40 21 73 21q30 0 70 -11q31 -8 39 -13q5 -8 17.5 -25t36.5 -25q4 -3 10 -7q13 -22 40 -85q33 -80 33 -108zM346 294q0 24 -16 83q-4 15 -36 48q-35 36 -54 36q-22 0 -54 -27q-21 -17 -29 -43q-12 -32 -24 -112
q-13 -83 -13 -129v-40q4 -18 14.5 -25t26.5 -23q19 -20 20 -29h23.5h15.5q30 0 45 12q19 16 36.5 47t39.5 75q6 19 3 52q-2 38 1 53q1 8 1 22zM116 544l18 18q19 11 46 25q5 2 22 20t21.5 18t66.5 34l9 2t15 2q25 0 25 -30q0 -2 -6 -31q-17 -13 -37 -29q-1 -1 -46.5 -8.5
t-45.5 -11t-36.5 -16t-36.5 -13.5q-3 -3 -15 20z" />
    <glyph glyph-name="ograve" unicode="&#xf2;" horiz-adv-x="497" 
d="M450 234q0 -32 -8.5 -71t-17.5 -78q-2 -9 -26.5 -25t-38.5 -21q-9 -7 -28 -19q-10 -2 -29 -6q-6 -2 -19 -13t-18 -11q-4 0 -5 3.5t-6 3.5q-4 0 -9.5 -7t-9.5 -7q-5 0 -20 3.5t-20 3.5q-4 0 -14 -2t-15 -2q-40 0 -92 59q-21 25 -39 67q-15 36 -29 73q-4 9 -4 33q0 -2 5 22
q3 13 -1 26l-5 4q0 49 5.5 64t47.5 76q7 19 30 53q17 8 47 24q40 21 73 21q30 0 70 -11q31 -8 39 -13q5 -8 17.5 -25t36.5 -25q4 -3 10 -7q13 -22 40 -85q33 -80 33 -108zM346 294q0 24 -16 83q-4 15 -36 48q-35 36 -54 36q-22 0 -54 -27q-21 -17 -29 -43q-12 -32 -24 -112
q-13 -83 -13 -129v-40q4 -18 14.5 -25t26.5 -23q19 -20 20 -29h23.5h15.5q30 0 45 12q19 16 36.5 47t39.5 75q6 19 3 52q-2 38 1 53q1 8 1 22zM330 548l-18 17q-19 11 -47 25q-4 2 -21.5 20t-21.5 18t-66 34q-27 6 -31 6q-18 0 -18 -31q0 -3 5 -32q18 -13 38 -29
q1 -1 46.5 -8.5t45.5 -10.5t36 -16t37 -14q3 -3 15 21z" />
    <glyph glyph-name="ocircumflex" unicode="&#xf4;" horiz-adv-x="497" 
d="M450 234q0 -32 -8.5 -71t-17.5 -78q-2 -9 -26.5 -25t-38.5 -21q-9 -7 -28 -19q-10 -2 -29 -6q-6 -2 -19 -13t-18 -11q-4 0 -5 3.5t-6 3.5q-4 0 -9.5 -7t-9.5 -7q-5 0 -20 3.5t-20 3.5q-4 0 -14 -2t-15 -2q-40 0 -92 59q-21 25 -39 67q-15 36 -29 73q-4 9 -4 33q0 -2 5 22
q3 13 -1 26l-5 4q0 49 5.5 64t47.5 76q7 19 30 53q17 8 47 24q40 21 73 21q30 0 70 -11q31 -8 39 -13q5 -8 17.5 -25t36.5 -25q4 -3 10 -7q13 -22 40 -85q33 -80 33 -108zM346 294q0 24 -16 83q-4 15 -36 48q-35 36 -54 36q-22 0 -54 -27q-21 -17 -29 -43q-12 -32 -24 -112
q-13 -83 -13 -129v-40q4 -18 14.5 -25t26.5 -23q19 -20 20 -29h23.5h15.5q30 0 45 12q19 16 36.5 47t39.5 75q6 19 3 52q-2 38 1 53q1 8 1 22zM98 530l-9 11q2 6 2 8t15.5 10.5t23.5 10.5t25 19q2 2 19 11.5t19 9.5t24 28l55 -39l51 -30l26 -20q-8 -15 -8 -17q-38 4 -38 6
t-16.5 11t-18.5 9t-24 3l-29 6q-33 -11 -35 -11t-42 -15z" />
    <glyph glyph-name="odieresis" unicode="&#xf6;" horiz-adv-x="497" 
d="M450 234q0 -32 -8.5 -71t-17.5 -78q-2 -9 -26.5 -25t-38.5 -21q-9 -7 -28 -19q-10 -2 -29 -6q-6 -2 -19 -13t-18 -11q-4 0 -5 3.5t-6 3.5q-4 0 -9.5 -7t-9.5 -7q-5 0 -20 3.5t-20 3.5q-4 0 -14 -2t-15 -2q-40 0 -92 59q-21 25 -39 67q-15 36 -29 73q-4 9 -4 33q0 -2 5 22
q3 13 -1 26l-5 4q0 49 5.5 64t47.5 76q7 19 30 53q17 8 47 24q40 21 73 21q30 0 70 -11q31 -8 39 -13q16 -10 25 -20q6 -9 13 -18t16 -12q4 -3 10 -7q13 -22 40 -85q33 -80 33 -108zM346 294q0 24 -16 83q-4 15 -36 48q-35 36 -54 36q-22 0 -54 -27q-21 -17 -29 -43
q-12 -32 -24 -112q-13 -83 -13 -129v-40q4 -18 14.5 -25t26.5 -23q19 -20 20 -29h23.5h15.5q30 0 45 12q19 16 36.5 47t39.5 75q6 19 3 52q-2 38 1 53q1 8 1 22zM255 601q2 12 18 31t28 17q25 -5 43 -26t14 -46q-3 -15 -18.5 -29.5t-32.5 -11.5q-6 1 -12 6q-20 -4 -32 20
q-11 20 -8 39zM85 601q2 12 18 31t28 17q25 -5 43 -26t14 -46q-3 -15 -18.5 -29.5t-32.5 -11.5q-6 1 -12 6q-20 -4 -32 20q-11 20 -8 39z" />
    <glyph glyph-name="otilde" unicode="&#xf5;" horiz-adv-x="497" 
d="M450 234q0 -32 -8.5 -71t-17.5 -78q-2 -9 -26.5 -25t-38.5 -21q-9 -7 -28 -19q-10 -2 -29 -6q-6 -2 -19 -13t-18 -11q-4 0 -5 3.5t-6 3.5q-4 0 -9.5 -7t-9.5 -7q-5 0 -20 3.5t-20 3.5q-4 0 -14 -2t-15 -2q-40 0 -92 59q-21 25 -39 67q-15 36 -29 73q-4 9 -4 33q0 -2 5 22
q3 13 -1 26l-5 4q0 49 5.5 64t47.5 76q7 19 30 53q17 8 47 24q40 21 73 21q30 0 70 -11q31 -8 39 -13q5 -8 17.5 -25t36.5 -25q4 -3 10 -7q13 -22 40 -85q33 -80 33 -108zM346 294q0 24 -16 83q-4 15 -36 48q-35 36 -54 36q-22 0 -54 -27q-21 -17 -29 -43q-12 -32 -24 -112
q-13 -83 -13 -129v-40q4 -18 14.5 -25t26.5 -23q19 -20 20 -29h23.5h15.5q30 0 45 12q19 16 36.5 47t39.5 75q6 19 3 52q-2 38 1 53q1 8 1 22zM85 577q0 17 27 38q28 14 32 14h21.5h19.5q2 0 51 -18l44 -6q2 0 30 4l20 12q12 -16 12 -18q0 -25 -36 -41q-29 -13 -68 -9
q0 -1 -25 8.5t-26 9.5q-26 0 -39 9q-8 5 -30.5 -7t-22.5 -17q0 -1 -3.5 9t-5 10.5t-1.5 1.5z" />
    <glyph glyph-name="uacute" unicode="&#xfa;" horiz-adv-x="599" 
d="M565 33l-15 -15q-60 -23 -76 -23q-2 0 -9.5 3.5t-12.5 3.5t-9 -2t-8 -2q-18 0 -43 46q-21 40 -21 48q0 4 4 15.5t4 15.5q0 7 -2 36q-2 23 -1 36q1 7 7.5 27.5t6.5 24.5l-10 78q-1 14 -1 28q-2 22 -9 31q-13 17 -47 35q-23 11 -23 37q0 43 66 43q56 0 101 -9
q10 -2 20.5 -19.5t13.5 -32.5q5 -31 5 -102q0 -4 -7.5 -70.5t-7.5 -71.5q0 -24 6 -51q3 -18 17 -52q13 -23 43 -31q2 -1 8 -6v-21zM308 27q-1 -9 -30.5 -19t-44.5 -10q-40 0 -80 19q-44 21 -68 57q-19 27 -15 81q4 66 0 84q3 16 3 52q-4 26 -13 79q-4 17 -27 36q-3 6 -6 15
q-10 8 -29 26v22q27 11 30 11q4 0 6 -2t7 -2q4 0 38.5 13.5t50.5 13.5q31 0 38 -13q22 -40 23 -56q0 -8 -5.5 -30t-3.5 -34q1 -6 7.5 -25t6.5 -24l-19 -170q0 -35 45 -71q41 -34 77 -38q3 -6 9 -15zM166 544l18 18q19 11 46 25q5 2 22 20t21.5 18t66.5 34l9 2t15 2
q25 0 25 -30q0 -2 -6 -31q-17 -13 -37 -29q-1 -1 -46.5 -8.5t-45.5 -11t-36.5 -16t-36.5 -13.5q-3 -3 -15 20z" />
    <glyph glyph-name="ugrave" unicode="&#xf9;" horiz-adv-x="599" 
d="M565 33l-15 -15q-60 -23 -76 -23q-2 0 -9.5 3.5t-12.5 3.5t-9 -2t-8 -2q-18 0 -43 46q-21 40 -21 48q0 4 4 15.5t4 15.5q0 7 -2 36q-2 23 -1 36q1 7 7.5 27.5t6.5 24.5l-10 78q-1 14 -1 28q-2 22 -9 31q-13 17 -47 35q-23 11 -23 37q0 43 66 43q56 0 101 -9
q10 -2 20.5 -19.5t13.5 -32.5q5 -31 5 -102q0 -4 -7.5 -70.5t-7.5 -71.5q0 -24 6 -51q3 -18 17 -52q13 -23 43 -31q2 -1 8 -6v-21zM308 27q-1 -9 -30.5 -19t-44.5 -10q-40 0 -80 19q-44 21 -68 57q-19 27 -15 81q4 66 0 84q3 16 3 52q-4 26 -13 79q-4 17 -27 36q-3 6 -6 15
q-10 8 -29 26v22q27 11 30 11q4 0 6 -2t7 -2q4 0 38.5 13.5t50.5 13.5q31 0 38 -13q22 -40 23 -56q0 -8 -5.5 -30t-3.5 -34q1 -6 7.5 -25t6.5 -24l-19 -170q0 -35 45 -71q41 -34 77 -38q3 -6 9 -15zM370 548l-18 17q-19 11 -47 25q-4 2 -21.5 20t-21.5 18t-66 34
q-27 6 -31 6q-18 0 -18 -31q0 -3 5 -32q18 -13 38 -29q1 -1 46.5 -8.5t45.5 -10.5t36 -16t37 -14q3 -3 15 21z" />
    <glyph glyph-name="ucircumflex" unicode="&#xfb;" horiz-adv-x="599" 
d="M565 33l-15 -15q-60 -23 -76 -23q-2 0 -9.5 3.5t-12.5 3.5t-9 -2t-8 -2q-18 0 -43 46q-21 40 -21 48q0 4 4 15.5t4 15.5q0 7 -2 36q-2 23 -1 36q1 7 7.5 27.5t6.5 24.5l-10 78q-1 14 -1 28q-2 22 -9 31q-13 17 -47 35q-23 11 -23 37q0 43 66 43q56 0 101 -9
q10 -2 20.5 -19.5t13.5 -32.5q5 -31 5 -102q0 -4 -7.5 -70.5t-7.5 -71.5q0 -24 6 -51q3 -18 17 -52q13 -23 43 -31q2 -1 8 -6v-21zM308 27q-1 -9 -30.5 -19t-44.5 -10q-40 0 -80 19q-44 21 -68 57q-19 27 -15 81q4 66 0 84q3 16 3 52q-4 26 -13 79q-4 17 -27 36q-3 6 -6 15
q-10 8 -29 26v22q27 11 30 11q4 0 6 -2t7 -2q4 0 38.5 13.5t50.5 13.5q31 0 38 -13q22 -40 23 -56q0 -8 -5.5 -30t-3.5 -34q1 -6 7.5 -25t6.5 -24l-19 -170q0 -35 45 -71q41 -34 77 -38q3 -6 9 -15zM128 540l-9 11q2 6 2 8t15.5 10.5t23.5 10.5t25 19q2 2 19 11.5t19 9.5
t24 28l55 -39l51 -30l26 -20q-8 -15 -8 -17q-38 4 -38 6t-16.5 11t-18.5 9t-24 3l-29 6q-33 -11 -35 -11t-42 -15z" />
    <glyph glyph-name="udieresis" unicode="&#xfc;" horiz-adv-x="599" 
d="M565 33l-15 -15q-60 -23 -76 -23q-2 0 -9.5 3.5t-12.5 3.5t-9 -2t-8 -2q-18 0 -43 46q-21 40 -21 48q0 4 4 15.5t4 15.5q0 7 -2 36q-2 23 -1 36q1 7 7.5 27.5t6.5 24.5l-10 78q-1 14 -1 28q-2 22 -9 31q-13 17 -47 35q-23 11 -23 37q0 43 66 43q56 0 101 -9
q10 -2 20.5 -19.5t13.5 -32.5q5 -31 5 -102q0 -4 -7.5 -70.5t-7.5 -71.5q0 -24 6 -51q3 -18 17 -52q13 -23 43 -31q2 -1 8 -6v-21zM308 27q-1 -9 -30.5 -19t-44.5 -10q-40 0 -80 19q-44 21 -68 57q-19 27 -15 81q4 66 0 84q3 16 3 52q-4 26 -13 79q-4 17 -27 36q-3 6 -6 15
q-10 8 -29 26v22q27 11 30 11q4 0 6 -2t7 -2q4 0 38.5 13.5t50.5 13.5q31 0 38 -13q22 -40 23 -56q0 -8 -5.5 -30t-3.5 -34q1 -6 7.5 -25t6.5 -24l-19 -170q0 -35 45 -71q41 -34 77 -38q3 -6 9 -15zM285 601q2 12 18 31t28 17q25 -5 43 -26t14 -46q-3 -15 -18.5 -29.5
t-32.5 -11.5q-6 1 -12 6q-20 -4 -32 20q-11 20 -8 39zM115 601q2 12 18 31t28 17q25 -5 43 -26t14 -46q-3 -15 -18.5 -29.5t-32.5 -11.5q-6 1 -12 6q-20 -4 -32 20q-11 20 -8 39z" />
    <glyph glyph-name="dagger" unicode="&#x2020;" horiz-adv-x="363" 
d="M-1 547h85l-6 145h125l-7 -145h90v-67h-94l-26 -511l-57 1l-22 510h-88v67z" />
    <glyph glyph-name="degree" unicode="&#xb0;" horiz-adv-x="403" 
d="M164 695q49 0 83.5 -35t34.5 -84q0 -50 -34.5 -85t-83.5 -35t-83.5 35t-34.5 85q0 49 34.5 84t83.5 35zM164 655q-33 0 -55.5 -23t-22.5 -56t22.5 -56.5t55.5 -23.5q32 0 55 23.5t23 56.5t-23 56t-55 23z" />
    <glyph glyph-name="cent" unicode="&#xa2;" horiz-adv-x="504" 
d="M456 254q0 -20 -42 -80q-18 -27 -36 -34q-40 -16 -105 -41l3 -32v-32l-3 -31l-20 -12l-35 12l6 31l-6 38l6 32q-11 6 -63 24q-35 11 -65 37q-10 9 -58 76q-14 20 -18 37q-12 45 -12 88q0 29 8 45q44 83 98 137q12 12 45 23q28 8 38 8q5 0 8.5 -1.5t8.5 -1.5h4l3 35l-8 32
l5 28l29 15l20 -15l-5 -28l8 -29l-3 -24q28 4 40 4q26 0 32 -6q46 -42 63 -69q21 -33 21 -71q0 -26 -25.5 -55t-41.5 -29q-28 0 -46 19.5t-18 40.5q0 4 7.5 25.5t7.5 25.5q0 20 -5 25q-29 28 -50 28q-34 0 -67 -19q-12 -7 -29 -44.5t-17 -56.5q0 -3 3.5 -16t2.5 -19
q-4 -25 -4 -43q0 8 11 -79q2 -3 12.5 -24t11.5 -24q44 -36 67 -36q4 0 20.5 2t21.5 2q28 0 71 60t54 60q15 0 30.5 -12t15.5 -26z" />
    <glyph glyph-name="sterling" unicode="&#xa3;" horiz-adv-x="527" 
d="M10 350l32 8h28q-72 81 -72 126q0 19 11.5 56t20.5 49q14 20 59 70q14 6 16 6q4 0 7 -2t8 -2q4 0 56 11.5t57 11.5q52 0 78 -14q6 -4 25 -3.5t24 -3.5q27 -18 70 -58q15 -21 17 -40q-1 14 -1 -39q0 -93 -67 -93q-24 0 -38 19t-14 42q0 14 12.5 35.5t12.5 44.5q0 19 -6 23
q-28 19 -60 31q-17 7 -38 7q-31 0 -47.5 -11t-35.5 -55l-18 -38q-3 -8 -3 -27q0 -32 5.5 -42.5t11.5 -21.5q9 -16 18 -33q12 -22 15 -49l47 -11l49 11q5 -10 15 -10q6 0 18.5 4.5t17.5 5.5l12 -40l-9 -38q-40 9 -37 9t-35 -9q3 0 -29 9l-56 -9q-13 -60 -47 -147
q0 -15 17 -30q14 -13 22 -13q134 0 178 12q28 8 50 36q6 9 14 29q9 24 13 31h13q11 0 13 -16q1 -7 -2 -22t-3 -23q0 -9 5.5 -24t6.5 -23q1 -16 1 -32q0 8 3 -25q2 -21 -1.5 -27.5t-21.5 -5.5q-25 2 -23 2q-17 -2 -52.5 -9t-39.5 -7q-2 0 -62 12.5t-79 13.5q-61 4 -105 4
q-4 0 -32.5 -9t-33.5 -9q-23 0 -23 46q0 13 41 54q24 22 47 45q40 88 35 137h-39l-46 6q3 0 -26 -6q-20 4 -20 44z" />
    <glyph glyph-name="section" unicode="&#xa7;" horiz-adv-x="11" 
 />
    <glyph glyph-name="bullet" unicode="&#x2022;" horiz-adv-x="449" 
d="M7 280q0 74 52.5 126.5t126.5 52.5t126 -52.5t52 -126.5t-52 -126t-126 -52t-126.5 52t-52.5 126z" />
    <glyph glyph-name="paragraph" unicode="&#xb6;" horiz-adv-x="28" 
 />
    <glyph glyph-name="germandbls" unicode="&#xdf;" horiz-adv-x="581" 
d="M379 563q-1 -1 -2 -1q-4 0 -13 23.5t-16 25.5q-12 4 -30 12q-11 5 -19 5q-13 0 -49 -11q-15 -4 -25 -38q-8 -27 -8 -45q0 -147 -2 -161q-5 -13 -9 -28t-4 -37q0 -25 5 -58.5t5 -32.5q0 -1 -8.5 -30.5t-8.5 -46.5q0 -6 1 -10q1 -7 20 -44q15 -31 15 -51q0 -18 -27 -35
l-7 7q-2 -1 -4 -6q-18 0 -55.5 -2.5t-40.5 -2.5q-5 0 -33 11t-33 11q-14 0 -35 -3q-9 8 -9 14q0 10 42 28.5t47 32.5q13 41 13 118q0 116 -16 187q-3 17 -37 31q-30 12 -30 31q0 12 11 16q18 6 22 9q29 22 59 83q1 3 11 25q19 42 39 57q5 3 48 17q7 7 22 16q13 4 41 5
q8 4 14.5 5.5t77.5 1.5q3 0 31 -18q24 -11 74 -40q10 -7 35 -42q26 -38 26 -49q0 -34 -39 -108q-4 -6 -15 -13q-17 -10 -18 -11q-25 -20 -25 -46q0 -31 40 -64q19 -8 51 -31q13 -17 13 -72q0 -12 1.5 -28.5t1.5 -23.5q0 -31 -24 -74q-21 -39 -45 -59q-6 -4 -38 -41
q-27 -30 -41.5 -36t-41.5 -17l-71 -19q-12 19 -12 30q0 20 30 28q11 4 17 12.5t10 8.5t27 20q10 8 32 59q29 66 31 71q7 14 7 72q0 114 -96 145v13q78 56 78 157q0 28 -11 47z" />
    <glyph glyph-name="registered" unicode="&#xae;" horiz-adv-x="395" 
d="M172 383q-62 0 -106 45t-44 108q0 62 44 106t106 44q61 0 104 -44.5t43 -107.5q0 -62 -43 -106.5t-104 -44.5zM172 406q51 0 88 37.5t37 90.5t-37 90t-88 38q-54 1 -90 -36t-36 -92q0 -53 37.5 -90.5t88.5 -37.5zM186 534l47 -72h-26l-47 72h-26v-72h-22v157h68
q-6 0 -5 1h7q52 0 52 -40q0 -44 -48 -46zM136 557h45q30 0 30 23q0 17 -34 17h-41v-40z" />
    <glyph glyph-name="copyright" unicode="&#xa9;" horiz-adv-x="778" 
d="M366 -6q-143 0 -242.5 100.5t-99.5 243.5q0 144 99.5 244.5t242.5 100.5t243 -100.5t100 -244.5q0 -143 -100 -243.5t-243 -100.5zM366 640q-123 0 -211.5 -88t-88.5 -214q0 -125 89 -213t211 -88t211 88t89 213q0 126 -88.5 214t-211.5 88zM375 144q-85 0 -136 55.5
t-51 141.5q0 84 52 140t136 56q58 0 102.5 -34t54.5 -91h-45q-22 81 -112 81q-67 0 -106 -44t-39 -110q0 -60 34 -103q40 -49 109 -49q94 0 115 79h43q-13 -57 -55.5 -89.5t-101.5 -32.5z" />
    <glyph glyph-name="trademark" unicode="&#x2122;" horiz-adv-x="492" 
d="M411 680v-196h-27v167h-2l-66 -167h-17l-65 167v-167h-28v196h46l56 -141l57 141h46zM159 680v-29h-64v-167h-28v167h-65v29h157z" />
    <glyph glyph-name="acute" unicode="&#xb4;" horiz-adv-x="316" 
d="M50 728l17 17q19 11 47 25q5 2 22 20t21.5 18t65.5 34q28 6 32 6q18 0 18 -31q0 -3 -6 -32q-17 -13 -38 -29q0 -1 -45.5 -8.5t-45.5 -10.5t-36.5 -16t-36.5 -14q-3 -3 -15 21z" />
    <glyph glyph-name="dieresis" unicode="&#xa8;" horiz-adv-x="419" 
d="M245 781q2 12 18 31t28 17q25 -5 43 -26t14 -46q-3 -15 -18.5 -29.5t-32.5 -11.5q-6 1 -12 6q-20 -4 -32 20q-11 20 -8 39zM75 781q2 12 18 31t28 17q25 -5 43 -26t14 -46q-3 -15 -18.5 -29.5t-32.5 -11.5q-6 1 -12 6q-20 -4 -32 20q-11 20 -8 39z" />
    <glyph glyph-name="AE" unicode="&#xc6;" horiz-adv-x="1132" 
d="M760 55l12 3l12 -3q4 -1 4 -2q-1 -2 -1 0q0 -1 3.5 -1t10.5 -1.5t11 -1.5q7 0 75 31q7 -1 21 2q16 9 56 49q17 29 33 57q33 55 43 55q23 0 37 -42q10 -33 10 -62q0 -19 -5 -39q-8 -16 -19 -46q-21 -66 -41 -66q-3 0 -25 12.5t-31 14.5q-4 1 -53 1q-4 0 -20.5 -5t-21.5 -5
q-4 0 -12 4t-11 5q-23 5 -76 5q-4 0 -8.5 -4.5t-8.5 -5.5q-50 -8 -96 -8q-4 0 -27 6q-26 1 -56 1q-4 0 -23 11h-9q-9 0 -26 -11t-39 -11q-33 0 -55 8q-12 -1 -14 -1q-1 0 -28 8q-1 1 -13.5 7.5t-17.5 6.5q-35 -9 -93 -22q-48 -9 -85 -9q-14 3 -35 6q-50 9 -71 9
q-15 0 -21.5 -5.5t-18.5 -5.5h1q7 0 2 -1q-37 0 -37 22q0 8 5 23q1 2 24 20q13 10 23 10q17 0 23 2q11 4 27 22.5t25 24.5q52 34 97 93q31 44 62 89q25 24 71 71q11 22 36 59q19 18 59 57q8 16 24 45q8 9 24 30l-1 1q-1 3 -2 16q-1 10 -5.5 10t-6.5 7.5t-6 7.5q-14 0 -25 12
t-11 24q0 23 7 28q2 2 20 2q4 0 27 -5.5t27 -5.5t15.5 2.5t17.5 2.5q15 0 16 1q4 5 7 7q14 9 48 9q21 1 29 -21q32 -16 36 -16q5 0 21 4t20 4t13.5 -2t13.5 -2q5 0 44.5 9t44.5 9q3 0 37.5 -9t39.5 -9q4 0 31 7t32 7q17 0 42 -16q17 -10 18 -21q-2 -44 2 -126q5 -7 12 -21
q1 -7 1 -21q0 -19 -11 -43h-15q-11 0 -28 36l-18 40q-24 29 -47 58q-29 34 -56 45q-21 8 -62 8q-19 0 -43 -1.5l-24 -1.5q-13 0 -41 -10.5t-37 -19.5q2 -18 -3 -40q-4 -13 -11 -42l-1 -2q0 -4 -3 -12q-4 -20 -5 -32q7 -31 21 -63q8 -17 23 -17q7 0 45 18q42 18 60 32
q6 4 8 21q4 31 5 32q3 16 6 24q7 16 19 24q8 -2 20 -15q15 -17 15 -33q0 -5 -11 -58t-11 -57t9 -41t9 -42q0 -27 -21 -27q-16 0 -20 5q-8 13 -33 37q-15 10 -47 25q-14 4 -71 12q-7 -3 -16 -25v-16q-3 -16 -8 -49q0 -3 4 -10t4 -10q-1 -18 -1 -52l7 -14q-1 -3 -3 -10
q7 -33 19 -54q9 -5 24 -5q11 -5 21 -12q13 -2 26 -7q-1 -1 2 -1.5t2 -1.5zM511 365q5 15 6 23q-1 2 -1 4v8q-3 18 -5 36q-6 21 -23 20q-21 0 -53 -44q-18 -28 -35 -56q-12 -15 -26 -38q-5 -14 15 -21q14 -5 30 -4q37 0 72 29q7 6 20 43zM522 209q-14 30 -63 29
q-4 0 -38 -7.5t-38 -7.5q-5 1 -18 3q-9 -4 -25 -10q-58 -16 -79 -77q-8 -25 -7 -35q12 -11 39 -28q5 -2 25 -2q12 0 18 -3q2 0 12 -7q7 -5 12 -5q11 6 31 17q2 1 20 1q5 0 18.5 -1.5t16.5 -0.5q39 0 67 55q-2 14 0 47q0 5 9 32z" />
    <glyph glyph-name="Oslash" unicode="&#xd8;" horiz-adv-x="765" 
d="M210 157q22 39 23 42t17 30t16.5 29t22.5 19l5 23q22 22 45 48q1 2 26 36.5t28 36t29 62.5q34 52 36.5 51t44.5 45q-5 9 -9 16q-11 16 -42 33q-26 15 -35 15q-5 0 -10 -2.5t-9 -3.5q-15 3 -42 4q-14 -7 -35 -15q-4 -1 -25 -8t-25 -7q-1 0 -1 1t2 3q-22 -19 -31 -46
q-19 -56 -37 -111q-15 -51 -15 -105q0 -50 21 -196zM523 533q-22 -24 -45 -49l-13 -35q-2 -6 -18 -28q-18 -27 -23 -25q-8 3 -25 -43q-1 -4 -16.5 -26.5t-17 -22t-25 -35t-24.5 -36.5q-20 -29 -51 -70q-12 -21 -32 -47q-3 -2 -9 -13q39 -81 107 -81q5 0 28.5 5.5t28.5 5.5
t26 -3.5t25 -3.5q12 0 37 12t30 18q28 34 36 95q3 40 6 81q10 53 10 47q0 81 -20 198q-4 26 -15 56zM651 644q-21 -14 -65 -45q50 -41 95 -113q5 -8 23 -63.5l18 -55.5q0 -12 -17 -87q-21 -90 -39 -129q-19 -42 -66 -82q-30 -22 -94 -68q-15 -11 -44 -19q-24 -8 -34 -8
q-78 0 -128 12q-9 2 -30.5 17.5t-26.5 15.5q-3 0 -12.5 -4t-14.5 -4q-15 0 -54 20q-5 -5 -32 -28.5t-29 -25.5q-19 -8 -24 -6q-11 4 -18 18q-2 4 8 13l6 16q0 1 54 42q-6 11 -20 32q-6 9 -28 24.5t-28 26.5q-32 62 -39 111q-1 4 4 17.5t5 19.5q0 3 -1 6q-12 27 -12 85
q0 29 17 58q20 34 41 67q16 28 33 56.5t37 47.5q34 31 72 41q42 12 70 30q20 12 46 12q19 0 152 -23q7 -8 30 -24q23 -10 43 -22l72 54q31 -3 30 -35z" />
    <glyph glyph-name="plusminus" unicode="&#xb1;" 
 />
    <glyph glyph-name="yen" unicode="&#xa5;" horiz-adv-x="698" 
d="M416 321h22q2 10 6 26q11 25 25 62q1 5 20 45q16 34 16 50q0 52 -2 57q-15 12 -30 23q-40 33 -44 33h-40q-4 0 -18 1.5t-18 1.5q-46 0 -46 -98q0 -36 5 -44q21 -29 52 -76q11 -29 37 -71q7 -6 15 -10zM164 321h102q-18 43 -57 106q-50 79 -54 87q-7 15 -14.5 29.5
t-17.5 14.5q-4 0 -29 7.5t-29 7.5q-67 0 -67 57q0 18 12 33t30 15q4 0 38 -9t38 -9t43.5 9t43.5 9q5 0 68 -10.5t67 -10.5q48 0 94 10.5t75 10.5q13 0 50 -5q2 0 11.5 -4.5t15.5 -4.5q4 0 15 2t16 2l25 10l18 -21v-30q0 -2 -27 -20q-30 -19 -31 -20q-31 -17 -43 -42
q-5 -10 -15.5 -52t-11.5 -44q-10 -32 -28.5 -58t-33.5 -70h103q12 -5 12 -19q0 -15 -12 -36h-121q-5 -14 -9.5 -25t-4.5 -30q1 -1 1 -3h131q18 -14 18 -27t-18 -25h-121q7 -33 8 -47q1 -9 15 -28t30 -31q13 -1 26 -1q22 -5 19 -36q-2 -4 -11 -5q-6 0 -16 1l-10 1
q-4 0 -19.5 5.5t-19.5 5.5q-5 0 -20 -7.5t-20 -7.5q-4 0 -15 6.5t-12 7.5q-23 8 -39 8q-22 0 -63.5 -16t-49.5 -16q-58 0 -58 48q0 31 33 58q46 38 56 54h-120q-21 9 -21 26q0 15 15 26h141v5q0 2 -12 53h-120q-15 8 -15 24q0 15 15 31z" />
    <glyph glyph-name="mu" unicode="&#xb5;" horiz-adv-x="704" 
d="M661 165q0 -46 -24 -150q-7 -7 -48.5 -17t-57.5 -10q-3 0 -31 7t-34 7q-4 0 -19 -1.5t-20 -1.5q-4 0 -37 5t-37 5q-5 0 -69 -5t-68 -5t-45.5 7t-45.5 7q-5 0 -31.5 -7t-31.5 -7q-11 0 -31 5q-27 7 -34 18q5 37 31 53q17 10 48 14q28 3 31.5 7.5t12.5 21.5q9 33 12 77
l-90 -63q-33 19 -33 48q0 21 21 40q57 17 101 72q-1 5 -10 31q-7 23 -7 28q0 4 10.5 66t10.5 67q0 27 -6 39q-17 35 -20 42q-9 8 -31 24q-11 5 -40 12q-23 5 -39 19q-9 7 -9 18q0 10 9 17q18 11 36.5 21t39.5 9q3 -1 41 -6t43 -5q4 0 51 5.5t51 5.5t18 -5.5t19 -5.5
q4 0 17 1.5t18 1.5q34 0 79 -9q23 -26 23 -40q0 -16 -14 -27t-28 -11q-4 0 -17.5 1.5t-19.5 1.5q-31 0 -55 -13q-27 -14 -27 -39v-147q39 9 125 96q5 1 9 1q28 0 28 -63q0 -14 -2 -23l-160 -111v-101q0 -3 6.5 -19t6.5 -24q1 -51 20 -70q15 -16 53 -16q4 0 34.5 5.5
t34.5 5.5t9 -1.5t9 -1.5q50 0 79 25q34 30 52 105q5 19 36 66q24 2 31 -15q16 -42 16 -88z" />
    <glyph glyph-name="mu" unicode="&#x3bc;" horiz-adv-x="704" 
d="M661 165q0 -46 -24 -150q-7 -7 -48.5 -17t-57.5 -10q-3 0 -31 7t-34 7q-4 0 -19 -1.5t-20 -1.5q-4 0 -37 5t-37 5q-5 0 -69 -5t-68 -5t-45.5 7t-45.5 7q-5 0 -31.5 -7t-31.5 -7q-11 0 -31 5q-27 7 -34 18q5 37 31 53q17 10 48 14q28 3 31.5 7.5t12.5 21.5q9 33 12 77
l-90 -63q-33 19 -33 48q0 21 21 40q57 17 101 72q-1 5 -10 31q-7 23 -7 28q0 4 10.5 66t10.5 67q0 27 -6 39q-17 35 -20 42q-9 8 -31 24q-11 5 -40 12q-23 5 -39 19q-9 7 -9 18q0 10 9 17q18 11 36.5 21t39.5 9q3 -1 41 -6t43 -5q4 0 51 5.5t51 5.5t18 -5.5t19 -5.5
q4 0 17 1.5t18 1.5q34 0 79 -9q23 -26 23 -40q0 -16 -14 -27t-28 -11q-4 0 -17.5 1.5t-19.5 1.5q-31 0 -55 -13q-27 -14 -27 -39v-147q39 9 125 96q5 1 9 1q28 0 28 -63q0 -14 -2 -23l-160 -111v-101q0 -3 6.5 -19t6.5 -24q1 -51 20 -70q15 -16 53 -16q4 0 34.5 5.5
t34.5 5.5t9 -1.5t9 -1.5q50 0 79 25q34 30 52 105q5 19 36 66q24 2 31 -15q16 -42 16 -88z" />
    <glyph glyph-name="ordfeminine" unicode="&#xaa;" horiz-adv-x="582" 
d="M540 150q0 -144 -72 -144q-4 0 -36.5 -1.5t-37.5 -1.5q-4 0 -31 5.5t-32 5.5q-4 0 -40.5 -7.5t-39.5 -7.5q-6 0 -25.5 7.5t-45.5 7.5q-4 0 -41.5 -7.5t-42.5 -7.5q6 0 -33 6q-6 1 -20 0q-16 -2 -19 -2q-20 0 -20 34q0 25 26 55.5t53 60.5q7 9 14 37q7 32 12.5 41.5
t22.5 21.5q14 10 27 20t41 52q16 14 44 47q2 13 13 39q11 17 21 50t18 46t30 30q13 10 13 33q0 27 -29 41t-32 48q4 4 11 10q7 2 39 12q27 8 32 8t16.5 -3.5t15.5 -3.5q5 0 22 3.5t21 3.5q72 0 72 -79q0 -49 -19 -75q-8 -10 -37.5 -29.5t-39.5 -34.5q-13 -33 -42 -87
q-14 -18 -57 -93q-23 -28 -59 -79q-1 -9 -6 -25q-23 -43 -23 -60q0 -23 4 -28q12 -14 37.5 -30t40.5 -16q31 0 79 38q39 30 57 55q12 17 27 52q22 51 24 56h28q19 -28 19 -104zM48 667q32 20 67 20q4 0 19 -5.5t21 -5.5q4 0 11 2t10 2q11 0 18.5 -8.5t7.5 -15.5
q0 -22 -48 -65q-32 -27 -63 -54q-5 -5 -20 -36q-5 -10 -22 -21t-26 -12q-4 4 -11 12q-2 20 -8.5 42t-6.5 37q0 12 3 28q10 40 10 55q0 7 -3 7q3 7 16 10q18 4 25 8zM411 841l12 -15q-3 -9 -3 -11.5t-20.5 -13.5t-29.5 -13q-12 -3 -35 -27q-2 -2 -24.5 -10.5t-25 -8.5
t-37.5 -29l-69 48l-68 27l-35 26q12 21 12 24q50 -6 50 -8.5t22 -15t25 -12.5t32 -3l38 -8q45 14 47.5 14t55.5 21z" />
    <glyph glyph-name="ordmasculine" unicode="&#xba;" horiz-adv-x="458" 
d="M450 77q0 -30 -23 -53t-53 -23q-5 0 -46 1.5t-45.5 1.5t-17.5 6t-18 6q-85 0 -153 -13q-3 0 -18.5 -5t-21.5 -5q-21 0 -34 16q-11 13 -11 25q0 19 28 78q4 10 26 32l35 35q4 10 13 26q7 5 17 15q16 25 62 54q7 4 16 17q9 28 18 57.5t9 48.5q0 48 -39 48q-10 0 -52 -22
q-38 -20 -46.5 -26.5t-30.5 -40.5q-17 -27 -31 -27q-25 0 -25 58q0 32 3 40q5 14 32 54l117 28q4 0 27.5 -4t28.5 -4q4 0 37 2t37 2q5 0 37 -2q39 -3 54 -3q16 -12 16 -27q0 -25 -9 -49q-4 -11 -23 -33.5t-23 -33.5q-22 -51 -66 -81q-9 -7 -13 -16q0 -12 -6 -41
q-6 -8 -16 -23q-5 -9 -37 -56q-20 -28 -20 -61q0 -41 48 -41q38 0 80 27q14 9 42.5 38.5t55.5 44.5q39 -24 39 -71zM334 666l9 -15q-2 -9 -2 -11.5t-15.5 -13.5t-23 -13.5t-25.5 -25.5q-2 -2 -18.5 -10.5t-18.5 -8.5t-28 -29l-52 48l-51 26l-26 26q9 21 9 24q37 -6 37 -8.5
t17 -14.5t19 -12t24 -3l28 -9q34 15 36 15t42 20z" />
    <glyph glyph-name="ae" unicode="&#xe6;" horiz-adv-x="777" 
d="M591 337q0 31 -20 67q-5 8 -34.5 22.5t-35.5 14.5q-34 0 -64 -46q-25 -39 -25 -65q0 -53 60 -53q9 0 77 13q14 3 30 14q12 8 12 33zM401 -1q-5 0 -6.5 -1.5t-6.5 -1.5q-10 0 -39.5 27t-56.5 27q-14 0 -23 -7q-17 -15 -35 -24q-22 -12 -95 -28q-43 -10 -37 -10
q-6 0 -36 17.5t-42 28.5q-24 22 -24 55q0 25 14 48t28 44q8 15 35 27q21 10 43 19q45 21 73 29q17 -1 47 2q20 7 39 31q10 31 18 49q-4 33 -23 59q-22 32 -51 32q-11 0 -32 -7q-24 -8 -28 -18q-3 -14 -9 -43q-6 -22 -24 -46q-22 -28 -44 -28q-7 0 -19 9t-16 17
q-12 26 -12 76q0 27 22 42q15 6 44 20q6 5 15 13q9 3 45 20q31 14 37 14l53 -5q4 0 17.5 -6.5t19.5 -6.5q39 0 45 -6q15 -15 27 -34q21 21 45 36q8 4 37 11.5t35 7.5q53 0 116 -16q29 -7 58 -29q7 -5 13 -20q7 -18 11 -23q30 -39 31 -40q12 -19 12 -41q0 -31 -9 -55
q-13 -34 -39 -34q-3 0 -36 5.5t-38 5.5q-4 0 -33.5 -7.5t-34.5 -7.5q-4 0 -37 2t-37 2q-14 0 -34 -29q-12 -15 -12 -51q0 -31 8 -45q15 -26 26 -39q33 -5 37 -22h4q4 0 38 -2t38 -2q6 0 9 3.5t6 6.5q19 -4 50 39q26 35 51 70q13 12 26 12q10 0 17 -10.5t7 -18.5
q0 -13 -11 -30q-13 -21 -27 -42q-29 -48 -61 -65q-45 -23 -78 -23q-3 0 -18 9.5t-22 10.5q-21 2 -65 5q-21 -8 -46 -8zM292 190q-15 31 -49 31q-9 0 -33 -8q-27 -9 -40 -19q-37 -27 -37 -87q0 -18 14.5 -33.5t34.5 -15.5q5 0 15.5 1.5t15 1.5t15.5 6.5t13 6.5q42 10 54 73
q-1 15 -3 43z" />
    <glyph glyph-name="oslash" unicode="&#xf8;" horiz-adv-x="497" 
d="M120 113q14 15 15 16.5t19 34t19 35.5t17 30t16.5 29t22.5 19l5 23q22 22 45 48q2 4 37 52q-47 61 -76 61q-22 0 -54 -27q-21 -17 -29 -43q-12 -32 -24 -112q-13 -83 -13 -129v-37zM337 349q-27 -46 -32 -44q-1 0 -24.5 -35.5t-24.5 -36.5q-20 -29 -51 -70
q-12 -21 -32 -47q-6 -5 -24 -43q31 -28 32 -40h23.5h15.5q31 0 50 15q13 12 31 43.5t40 75.5q6 19 3 52q-2 38 1 53q1 8 1 22q0 10 -9 55zM426 487v4q-1 -1 -3 -4q-14 -19 -29 -41q6 3 11 3q-3 -8 -22 -34q67 -135 67 -181q0 -29 -13 -70q-18 -56 -23 -77q-2 -9 -24 -31.5
t-32 -27.5t-29 -18q-10 -1 -30 -6q-4 -1 -16.5 -7.5t-17.5 -6.5q-4 0 -5 3.5t-6 3.5q-4 0 -9.5 -7t-9.5 -7q-5 0 -20 3.5t-20 3.5q-4 0 -14 -2t-15 -2q-34 0 -71 36q-43 -50 -49 -52q-18 -9 -23 -7q-11 4 -18 19q-2 3 7 12l6 16q1 1 47 46q-17 23 -33 62q-13 34 -26 67
q-4 9 -4 33q0 -2 5 22q3 13 -1 26l-5 4q0 49 5.5 64t47.5 76q7 19 30 53q17 8 47 24q40 21 73 21q30 0 70 -11q31 -8 39 -13q5 -8 16 -24q6 -8 17 -15q7 16 16 38q10 14 13 13t11 18l10 9q29 -3 30 -32v-4z" />
    <glyph glyph-name="questiondown" unicode="&#xbf;" horiz-adv-x="418" 
d="M15 -27q0 4 5.5 15.5t6.5 16.5q-1 15 0 43q2 19 12 48q59 66 113 99q19 11 39 64q19 50 17 78q-1 22 -33 38.5t-37 31.5q-2 5 -3 29q-1 25 0 29q4 18 26 33q18 12 40 12q25 0 49 -14q30 -18 32 -46q0 -9 -4 -31q-4 -26 -8.5 -30.5t-30.5 -11.5q-17 -4 -17 -25
q0 -10 3 -43t3 -49q0 -11 -1 -18q-6 -42 -12 -55q-26 -40 -70 -125q-14 -34 -8 -143q1 -26 26 -52t48 -26h13q6 7 6 18q0 5 -2.5 17t-2.5 18q1 13 9 29q11 24 28 29q3 1 20 1q28 0 51 -17t24 -42q2 -38 -29 -72q-17 -19 -58 -19h-46q-32 -1 -35 -1q-14 0 -46 17
q-19 7 -56 24q-5 9 -20 28q-49 50 -52 102z" />
    <glyph glyph-name="exclamdown" unicode="&#xa1;" horiz-adv-x="233" 
d="M15 -102q0 12 9 106q1 18 12 49q15 44 18 52q0 20 2 61q5 12 12 36q4 25 8 49q6 32 19 49q15 -5 20 -18q-3 -6 -5 -19q0 -26 7 -75q11 -35 15 -85q7 -66 10 -84q6 -13 16 -40q8 -34 8 -84q0 -14 -9 -38t-17 -29q-27 -16 -48 -16q-19 0 -40.5 12t-31.5 28q-5 9 -5 46z
M29 442q0 16 16.5 45t32.5 29q34 0 63 -23.5t29 -57.5q0 -20 -17.5 -43t-40.5 -23q-8 0 -16 6q-7 -3 -13 -3q-22 0 -39 26q-15 23 -15 44z" />
    <glyph glyph-name="logicalnot" unicode="&#xac;" 
 />
    <glyph glyph-name="florin" unicode="&#x192;" 
 />
    <glyph glyph-name="guillemotleft" unicode="&#xab;" horiz-adv-x="429" 
d="M345 425q-1 0 -24 -26t-25 -26t-22.5 -12t-20.5 -14.5t-49 -54.5l-40 -43q38 -41 40 -41t22 -18.5t22 -18.5t26 -16t29 -23t22 -25q38 -37 41 -37q2 0 17 20q-121 150 -121 156q42 73 100 158q-14 21 -17 21zM184 425q-2 0 -29.5 -22t-29 -22t-16.5 -19t-15 -21.5
t-51 -48.5l-41 -43q38 -41 40 -41t22.5 -18.5t22.5 -18.5t26 -16t28.5 -23t22.5 -25q38 -37 40 -37q3 0 18 20q-122 150 -122 156q43 73 101 158q-15 21 -17 21z" />
    <glyph glyph-name="guillemotright" unicode="&#xbb;" horiz-adv-x="429" 
d="M40 70q2 0 25 26t25 26t22.5 12t20.5 14t48 55l41 43q-38 40 -40 40t-22.5 19t-22.5 19t-26 15.5t-28.5 22.5t-22.5 25q-38 38 -40 38q-3 0 -18 -21q122 -150 122 -155q-43 -74 -101 -159q15 -20 17 -20zM202 70q1 0 28.5 21.5t29 21.5t16.5 19t15 21.5t52 49.5l40 43
q-38 40 -40 40t-22 19t-22 19t-26.5 15.5t-27.5 21.5q-6 8 -23 26q-38 38 -41 38q-2 0 -17 -21q121 -150 121 -155q-42 -74 -101 -159q15 -20 18 -20z" />
    <glyph glyph-name="ellipsis" unicode="&#x2026;" horiz-adv-x="783" 
d="M646 136q17 0 45.5 -16t28.5 -33q0 -34 -22 -62q-25 -29 -59 -29q-20 0 -43 17t-23 40q0 8 6 16q-2 7 -2 14q0 21 24 37t45 16zM442 59q0 -12 -13 -31q-14 -23 -32 -27q-4 -1 -34 -1q-22 0 -36 1q-18 27 -21 37q-1 2 -1 21q0 21 11 43q16 31 43 31q20 0 51.5 -26.5
t31.5 -47.5zM165 66q0 -16 -16 -45t-32 -29q-35 0 -62 23q-30 24 -30 58q0 20 17 43t41 23q8 0 16 -6q7 3 13 3q22 0 37.5 -24.5t15.5 -45.5z" />
    <glyph glyph-name="nonbreakingspace" unicode="&#xa0;" horiz-adv-x="242" 
 />
    <glyph glyph-name="Agrave" unicode="&#xc0;" horiz-adv-x="807" 
d="M781 36q0 -2 -11 -15l-13 -15q-6 0 -9 -1q-28 -5 -60 -6q-23 -1 -48 0q-30 2 -25 2q-3 0 -25.5 10.5t-27.5 10.5q-4 0 -30.5 -9t-31 -9t-26.5 -2.5t-24 -2.5t-31 9q-2 1 -16.5 7.5t-19.5 6.5q-4 0 -38 -8q-38 -10 -49 -12q-45 -8 -82 -8q-4 0 -18.5 3.5t-18.5 3.5
q-56 11 -77 11q-13 0 -17.5 -5.5t-16.5 -4.5q7 -1 -28 -1q-47 0 -47 45q0 3 17 20q11 11 28 13q14 2 27 4q9 3 54 40q40 34 66 91q16 45 32 89q16 24 47 70q4 21 16 58q13 18 39 56q4 6 6 21q2 20 3 24q7 10 16 38q-1 18 5 52q14 33 36 49q11 8 45 8q39 0 55 -64
q2 -7 14 -19l18 -18q14 -18 18 -53q1 -29 9 -84q12 -25 33 -80q12 -29 34 -90q2 -16 9 -48q6 -7 16 -21q4 -17 16 -52q4 -5 11 -14q0 -9 6 -28q17 -27 73 -27q7 -2 18.5 -4.5t18.5 -3.5q4 -17 4 -16v-21zM427 358q0 24 -5 33q-9 18 -18 37q-14 23 -30 23q-21 0 -39 -44
q-8 -28 -17 -55q-12 -39 -12 -38q0 -14 21 -21q16 -5 33 -5q37 0 62 28q5 6 5 42zM511 140q0 92 -92 92q-5 0 -36 -7t-36 -7q-4 0 -9 2t-10 2q-4 0 -10 -5q-9 -4 -11 -5q-35 -10 -47 -33q-6 -14 -6 -43q0 -24 4 -35q17 -11 49 -28q16 0 45 -6q31 -12 29 -12q5 0 12 6
q11 9 13 10t20 1q5 0 19 -2t17 -2q23 0 36 22t13 50zM530 728l-18 17q-19 11 -47 25q-4 2 -21.5 20t-21.5 18t-66 34q-27 6 -31 6q-18 0 -18 -31q0 -3 5 -32q18 -13 38 -29q1 -1 46.5 -8.5t45.5 -10.5t36 -16t37 -14q3 -3 15 21z" />
    <glyph glyph-name="Atilde" unicode="&#xc3;" horiz-adv-x="807" 
d="M781 36q0 -2 -11 -15l-13 -15q-6 0 -9 -1q-28 -5 -60 -6q-23 -1 -48 0q-30 2 -25 2q-3 0 -25.5 10.5t-27.5 10.5q-4 0 -30.5 -9t-31 -9t-26.5 -2.5t-24 -2.5t-31 9q-2 1 -16.5 7.5t-19.5 6.5q-4 0 -38 -8q-38 -10 -49 -12q-45 -8 -82 -8q-4 0 -18.5 3.5t-18.5 3.5
q-56 11 -77 11q-13 0 -17.5 -5.5t-16.5 -4.5q7 -1 -28 -1q-47 0 -47 45q0 3 17 20q11 11 28 13q14 2 27 4q9 3 54 40q40 34 66 91q16 45 32 89q16 24 47 70q4 21 16 58q13 18 39 56q4 6 6 21q2 20 3 24q7 10 16 38q-1 18 5 52q14 33 36 49q11 8 45 8q39 0 55 -64
q2 -7 14 -19l18 -18q14 -18 18 -53q1 -29 9 -84q12 -25 33 -80q12 -29 34 -90q2 -16 9 -48q6 -7 16 -21q4 -17 16 -52q4 -5 11 -14q0 -9 6 -28q17 -27 73 -27q7 -2 18.5 -4.5t18.5 -3.5q4 -17 4 -16v-21zM427 358q0 24 -5 33q-9 18 -18 37q-14 23 -30 23q-21 0 -39 -44
q-8 -28 -17 -55q-12 -39 -12 -38q0 -14 21 -21q16 -5 33 -5q37 0 62 28q5 6 5 42zM511 140q0 92 -92 92q-5 0 -36 -7t-36 -7q-4 0 -9 2t-10 2q-4 0 -10 -5q-9 -4 -11 -5q-35 -10 -47 -33q-6 -14 -6 -43q0 -24 4 -35q17 -11 49 -28q16 0 45 -6q31 -12 29 -12q5 0 12 6
q11 9 13 10t20 1q5 0 19 -2t17 -2q23 0 36 22t13 50zM242 763q0 20 37 48q47 12 52 12q4 0 23.5 -3t21.5 -3t67 -24l58 -8q3 0 38 11l29 27q18 -24 18 -27q0 -30 -50 -52q-29 -13 -66 -13q-12 0 -24 1q0 -2 -33.5 10.5t-34.5 12.5q-35 0 -52 12q-3 2 -7 2q-14 0 -34 -11
q-5 -2 -17.5 -11.5t-12.5 -11.5q0 -1 -5 12.5t-6.5 14t-1.5 1.5z" />
    <glyph glyph-name="Otilde" unicode="&#xd5;" horiz-adv-x="765" 
d="M722 367q0 -12 -17 -87q-21 -90 -39 -129q-19 -42 -66 -82q-30 -22 -94 -68q-15 -11 -44 -19q-24 -8 -34 -8q-78 0 -128 12q-9 2 -30.5 17.5t-26.5 15.5q-3 0 -12.5 -4t-14.5 -4q-26 0 -67 27q-13 9 -24 26l-18 28q-6 9 -28 24.5t-28 26.5q-32 62 -39 111q-1 4 4 17.5
t5 19.5q0 3 -1 6q-12 27 -12 85q0 29 17 58q20 34 41 67q16 28 33 56.5t37 47.5q34 31 72 41q42 12 70 30q20 12 46 12q19 0 152 -23q7 -8 30 -24q104 -46 175 -161q5 -8 23 -63.5zM558 279q0 81 -20 198q-11 68 -44 118q-11 16 -42 33q-26 15 -35 15q-5 0 -10 -2.5t-9 -3.5
q-15 3 -42 4q-14 -7 -35 -15q-4 -1 -25 -8t-25 -7q-1 0 -1 1t4 4q-23 -18 -33 -47q-19 -56 -37 -111q-15 -51 -15 -105q0 -46 23 -209q6 -43 38 -80q37 -42 81 -42q5 0 28.5 5.5t28.5 5.5t26 -3.5t25 -3.5q12 0 37 12t30 18q28 34 36 95q3 40 6 81q10 53 10 47zM182 763
q0 20 37 48q47 12 52 12q4 0 23.5 -3t21.5 -3t67 -24l58 -8q3 0 38 11l29 27q18 -24 18 -27q0 -30 -50 -52q-29 -13 -66 -13q-12 0 -24 1q0 -2 -33.5 10.5t-34.5 12.5q-35 0 -52 12q-3 2 -7 2q-14 0 -34 -11q-5 -2 -17.5 -11.5t-12.5 -11.5q0 -1 -5 12.5t-6.5 14t-1.5 1.5z
" />
    <glyph glyph-name="OE" unicode="&#x152;" horiz-adv-x="1171" 
d="M712 313q-12 -60 -26 -104q5 -13 11 -36q7 -30 14 -61q12 -40 37 -63q9 -7 48 -7q4 0 16.5 3.5t17.5 3.5q4 0 10.5 -2t10.5 -2q8 0 75 31q8 -1 22 2q16 10 55 50q17 28 34 57q33 55 43 55q22 0 36 -43q11 -32 11 -62q0 -19 -5 -38q-8 -17 -20 -47q-21 -66 -40 -66
q-4 0 -26 12.5t-28.5 14.5t-55.5 2q-4 0 -20 -5.5t-21 -5.5t-12.5 4.5t-11.5 5.5q-23 5 -75 5q-4 0 -8.5 -5t-9.5 -5q-49 -8 -95 -8q-4 0 -24 5l-32 8q-27 5 -59 5q-9 0 -26.5 -11t-38.5 -11q-11 0 -21 1q-39 -22 -70 -22q-78 0 -128 12q-9 2 -30.5 17.5t-26.5 15.5
q-3 0 -12.5 -4t-14.5 -4q-26 0 -67 27q-13 9 -24 26l-18 28q-6 9 -28 24.5t-28 26.5q-32 62 -39 111q-1 4 4 17.5t5 19.5q0 3 -1 6q-12 27 -12 85q0 29 17 58q20 34 41 67q16 28 33 56.5t37 47.5q34 31 72 41q42 12 70 30q20 12 46 12q19 0 152 -23q2 -1 5 -3q13 3 22 3
q4 0 26.5 -5.5t27.5 -5.5q3 0 20 5t23 5q12 0 38 1h28q4 0 29.5 -12.5t30.5 -12.5q4 0 20 3.5t21 3.5q4 0 13 -1.5t14 -1.5q4 0 44 9t44 9t38.5 -9t38.5 -9q5 0 32 7t31 7q18 0 43 -16q16 -11 17 -22q-2 -43 2 -125q6 -8 12 -22q2 -6 2 -20q0 -20 -12 -43h-15q-11 0 -27 35
q-9 21 -19 41q-23 29 -47 57q-29 35 -55 45q-22 9 -63 9q-19 0 -43 -2t-23 -2q-14 0 -44.5 -11.5t-35.5 -19.5q-11 -16 -12 -38.5t-1 -43.5q-3 -10 -9 -29q4 -12 12.5 -34.5t17.5 -53.5q8 -7 14 -7q7 0 47.5 18t58.5 32q5 4 8 21q4 30 4 32q4 16 7 23q7 17 19 25
q7 -2 19 -16q15 -17 15 -33q0 -4 -10.5 -57t-10.5 -58q0 -3 9 -40.5t9 -41.5q0 -27 -22 -27q-15 0 -20 5q-8 13 -33 37q-15 10 -46 25q-14 4 -71 12q-3 -2 -7 -6zM558 279q0 81 -20 198q-11 67 -44 117q-4 2 -7 2t-10 9.5t-11 9.5q-12 0 -14 1.5t-2 14.5q0 3 -9 3.5t-7 3.5
q-13 5 -17 5q-5 0 -10 -2.5t-9 -3.5q-15 3 -42 4q-14 -7 -35 -15q-4 -1 -25 -8t-25 -7q-1 0 -1 1t2 3q-22 -19 -31 -46q-19 -56 -37 -111q-15 -51 -15 -105q0 -46 23 -209q6 -43 38 -80q37 -42 81 -42q5 0 28.5 5.5t28.5 5.5t24.5 -3.5t23.5 -3.5q4 13 28 22q23 6 45 12
q26 33 33 93q3 39 6 79q10 53 10 47z" />
    <glyph glyph-name="oe" unicode="&#x153;" horiz-adv-x="839" 
d="M418 68q-27 -21 -49 -29q-9 -7 -28 -19q-10 -2 -29 -6q-6 -2 -19 -13t-18 -11q-4 0 -5 3.5t-6 3.5q-4 0 -9.5 -7t-9.5 -7q-5 0 -20 3.5t-20 3.5q-4 0 -14 -2t-15 -2q-40 0 -92 59q-21 25 -39 67q-15 36 -29 73q-12 26 -12 32q0 -2 5 22q3 13 -1 26l-5 4q0 45 10 65
q3 6 51 76q7 19 30 53q17 8 47 24q40 21 73 21q30 0 70 -11q31 -8 39 -13q5 -8 17.5 -25t36.5 -25q4 -3 10 -7q3 -6 12 -26q34 49 80 78q8 4 37 11.5t35 7.5q53 0 116 -16q29 -7 58 -29q7 -5 13 -20q7 -18 11 -23q30 -39 31 -40q12 -19 12 -41q0 -31 -9 -55q-13 -34 -39 -34
q-3 0 -36 5.5t-38 5.5q-4 0 -33.5 -7.5t-34.5 -7.5q-4 0 -37 2t-37 2q-14 0 -34 -29q-12 -15 -12 -51q0 -31 8 -45q35 -61 67 -61q4 0 38 -2t38 -2q6 0 9 3.5t6 6.5q19 -4 50 39q26 35 51 70q13 12 26 12q10 0 17 -10.5t7 -18.5q0 -13 -11 -30q-13 -21 -27 -42
q-29 -48 -61 -65q-45 -23 -78 -23q-4 0 -27.5 6.5t-30.5 7.5q-37 5 -73 10q-43 11 -73 52zM661 347q0 31 -20 67q-5 8 -34.5 22.5t-35.5 14.5q-34 0 -64 -46q-25 -39 -25 -65q0 -53 60 -53q9 0 77 13q14 3 30 14q12 8 12 33zM354 308q-6 38 -14 69q-4 15 -36 48
q-35 36 -54 36q-22 0 -54 -27q-21 -17 -29 -43q-14 -29 -28 -59q-20 -50 -20 -102q0 -38 11 -80q-1 -15 0 -40q4 -18 14.5 -25t26.5 -23q19 -20 20 -29h23.5h15.5q30 0 45 12q19 16 36.5 47t39.5 75q6 19 3 56q-9 19 -9 45q0 13 9 40z" />
    <glyph glyph-name="endash" unicode="&#x2013;" horiz-adv-x="524" 
d="M7 280q0 6 14 4q23 -4 17 -4q9 0 26 9q6 3 32 -6l49 -3q39 0 45 6h41q2 0 6.5 -1t12.5 -3l8 -2q9 0 26 9q6 3 32 -6l49 -3q39 0 45 6h41q3 0 12 -4.5t9 -6.5v-29q0 -35 -4.5 -35t-24.5 -20q-64 17 -66 14q-2 -2 -18.5 -6.5t-19.5 -4.5q-1 0 -44.5 3t-45.5 3.5t-9 6.5
q-7 -6 -17 -16q-64 17 -66 14q-2 -2 -18.5 -6.5t-19.5 -4.5q-1 0 -44.5 3t-45 3t-13.5 10.5t-12 12.5t6 23q-3 26 -3 34z" />
    <glyph glyph-name="emdash" unicode="&#x2014;" horiz-adv-x="913" 
d="M7 280q0 6 14 4q23 -4 17 -4q9 0 26 9q6 3 32 -6l49 -3q39 0 45 6h41q2 0 6.5 -1t12.5 -3l8 -2q9 0 26 9q6 3 32 -6l49 -3q39 0 45 6h41q2 0 4 -1q6 2 9 4q6 3 32 -6l49 -3q39 0 45 6h41q2 0 6.5 -1t12.5 -3l8 -2q9 0 26 9q6 3 32 -6l49 -3q39 0 45 6h41q3 0 12 -4.5
t9 -6.5v-29q0 -35 -4.5 -35t-24.5 -20q-64 17 -66 14q-2 -2 -18.5 -6.5t-19.5 -4.5q-1 0 -44.5 3t-45.5 3.5t-9 6.5q-7 -6 -17 -16q-64 17 -66 14q-2 -2 -18.5 -6.5t-19.5 -4.5q-1 0 -69 4q-4 -3 -7 -7q-64 17 -66 14q-2 -2 -18.5 -6.5t-19.5 -4.5q-1 0 -44.5 3t-45.5 3.5
t-9 6.5q-7 -6 -17 -16q-64 17 -66 14q-2 -2 -18.5 -6.5t-19.5 -4.5q-1 0 -44.5 3t-45 3t-13.5 10.5t-12 12.5t6 23q-3 26 -3 34z" />
    <glyph glyph-name="quotedblleft" unicode="&#x201c;" horiz-adv-x="423" 
d="M5 501q0 36 1 41q7 20 56 90q3 9 13 28q17 30 41 30q18 0 18 -25q0 -26 -21.5 -50t-21.5 -49q0 -23 29 -46t29 -51q0 -9 -16 -54q-3 -9 -21.5 -16t-29.5 -7q-26 0 -44 12q-8 6 -28 46q-5 11 -5 51zM205 501q0 36 1 41q7 20 56 90q3 9 13 28q17 30 41 30q18 0 18 -25
q0 -26 -21.5 -50t-21.5 -49q0 -23 35 -47t35 -51q0 -5 -14 -45q-3 -9 -28.5 -20t-36.5 -11q-26 0 -44 12q-8 6 -28 46q-5 11 -5 51z" />
    <glyph glyph-name="quotedblright" unicode="&#x201d;" horiz-adv-x="423" 
d="M361 581q0 -36 -1 -41q-7 -20 -56 -90q-3 -9 -13 -28q-17 -30 -41 -30q-18 0 -18 25q0 26 21.5 50.5t21.5 48.5q0 23 -29 46t-29 51q0 9 16 54q3 9 23 17q17 6 28 6q26 0 44 -12q8 -6 28 -46q5 -11 5 -51zM161 581q0 -36 -1 -41q-7 -20 -56 -90q-3 -9 -13 -28
q-17 -30 -41 -30q-18 0 -18 25q0 26 21.5 50.5t21.5 48.5q0 23 -35 47t-35 51q0 5 14 45q3 9 30 20q24 11 35 11q26 0 44 -12q8 -6 28 -46q5 -11 5 -51z" />
    <glyph glyph-name="quoteleft" unicode="&#x2018;" horiz-adv-x="204" 
d="M-3 501q0 36 2 41q7 20 55 90q4 9 13 28q17 30 42 30q18 0 18 -25q0 -26 -22 -50t-22 -49q0 -23 29 -46t29 -51q0 -9 -15 -54q-3 -9 -22 -16t-30 -7q-26 0 -44 12q-7 6 -28 46q-5 11 -5 51z" />
    <glyph glyph-name="quoteright" unicode="&#x2019;" horiz-adv-x="204" 
d="M141 581q0 -36 -1 -41q-7 -20 -56 -90q-3 -9 -13 -28q-17 -30 -41 -30q-18 0 -18 25q0 26 21.5 50.5t21.5 48.5q0 23 -29 46t-29 51q0 9 16 54q3 9 23 17q17 6 28 6q26 0 44 -12q8 -6 28 -46q5 -11 5 -51z" />
    <glyph glyph-name="divide" unicode="&#xf7;" horiz-adv-x="22" 
 />
    <glyph glyph-name="ydieresis" unicode="&#xff;" horiz-adv-x="524" 
d="M502 463q0 -35 -23 -50q-38 -24 -53 -45.5t-30 -41.5q-18 -27 -24 -45q-3 -10 -2 -33q2 -38 2 -37q0 -16 -2 -23q-7 -22 -51 -75q-25 -30 -37 -63q-2 -16 -8 -49q-5 -16 -20 -16q-13 0 -21 34q-4 21 -9 41q-23 31 -68 97q-2 3 -21 68q-11 36 -34 82l-27 33q-6 17 -21 49
q-17 16 -50 52q-9 10 -9 25t7 20t43 11q87 14 75 14q3 0 38 -3.5t56 -5.5q7 0 13.5 -11t6.5 -19q0 -5 -11 -23q-12 -22 -14 -26q-5 -11 -5 -35q0 -8 10 -55q11 -52 21 -81q2 -5 32 -35q4 -5 17 -5q12 0 16 7q20 31 52 89q5 12 5 63q0 12 -5 22t-26 41q-17 26 -17 31
q0 10 19.5 27t33.5 22q4 1 40 1q45 0 59 -5t36 -18q6 -6 6 -29zM241 -55q0 -27 -41 -81q-38 -50 -47 -50q-12 0 -36 -6t-28 -6q-46 0 -72.5 29t-26.5 68q0 22 22.5 46.5t43.5 24.5q41 0 64 -34t38 -34q25 0 44.5 28.5t33.5 27.5q5 -4 5 -13zM275 621q2 12 18 31t28 17
q25 -5 43 -26t14 -46q-3 -15 -18.5 -29.5t-32.5 -11.5q-6 1 -12 6q-20 -4 -32 20q-11 20 -8 39zM105 621q2 12 18 31t28 17q25 -5 43 -26t14 -46q-3 -15 -18.5 -29.5t-32.5 -11.5q-6 1 -12 6q-20 -4 -32 20q-11 20 -8 39z" />
    <glyph glyph-name="Ydieresis" unicode="&#x178;" horiz-adv-x="698" 
d="M530 449q-10 -32 -28.5 -58t-34.5 -72q-25 -74 -26 -78q-5 -11 -5 -30q0 -3 9 -43q9 -43 10 -59q1 -9 15 -28t30 -31q13 -1 26 -1q22 -5 19 -36q-2 -4 -11 -5q-6 0 -16 1l-10 1q-4 0 -19.5 5.5t-19.5 5.5q-5 0 -20 -7.5t-20 -7.5q-4 0 -15 6.5t-12 7.5q-23 8 -39 8
q-22 0 -63.5 -16t-49.5 -16q-58 0 -58 48q0 32 41 64q47 38 59 70q4 13 4 35l-13 57q-13 54 -60 133q-34 56 -68 111q-7 15 -14.5 29.5t-17.5 14.5q-4 0 -29 7.5t-29 7.5q-67 0 -67 57q0 18 12 33t30 15q4 0 38 -9t38 -9t43.5 9t43.5 9q5 0 68 -10.5t67 -10.5q48 0 94 10.5
t75 10.5q13 0 50 -5q2 0 11.5 -4.5t15.5 -4.5q4 0 15 2t16 2l25 10l18 -21v-30q0 -2 -27 -20q-30 -19 -31 -20q-31 -17 -43 -42q-5 -10 -15.5 -52t-11.5 -44zM505 504q0 52 -2 57q-15 12 -30 23q-40 33 -44 33h-40q-4 0 -18 1.5t-18 1.5q-46 0 -46 -98q0 -36 5 -44
q21 -29 52 -76q11 -29 37 -71q20 -16 32 -16q4 0 7 13q2 10 4 19q11 25 25 62q1 5 20 45q16 34 16 50zM385 781q2 12 18 31t28 17q25 -5 43 -26t14 -46q-3 -15 -18.5 -29.5t-32.5 -11.5q-6 1 -12 6q-20 -4 -32 20q-11 20 -8 39zM185 781q2 12 18 31t28 17q25 -5 43 -26
t14 -46q-3 -15 -18.5 -29.5t-32.5 -11.5q-6 1 -12 6q-20 -4 -32 20q-11 20 -8 39z" />
    <glyph glyph-name="currency" unicode="&#xa4;" horiz-adv-x="22" 
 />
    <glyph glyph-name="guilsinglleft" unicode="&#x2039;" horiz-adv-x="262" 
d="M184 425q-2 0 -25 -26t-25 -26t-22.5 -12t-20.5 -14.5t-48 -54.5l-41 -43q38 -41 40 -41t22.5 -18.5t22.5 -18.5t26 -16t28.5 -23t22.5 -25q38 -37 40 -37q3 0 18 20q-122 150 -122 156q43 73 101 158q-15 21 -17 21z" />
    <glyph glyph-name="guilsinglright" unicode="&#x203a;" horiz-adv-x="262" 
d="M40 70q2 0 25 26t25 26t22.5 12t20.5 14t48 55l41 43q-38 40 -40 40t-22.5 19t-22.5 19t-26 15.5t-28.5 22.5t-22.5 25q-38 38 -40 38q-3 0 -18 -21q122 -150 122 -155q-43 -74 -101 -159q15 -20 17 -20z" />
    <glyph glyph-name="daggerdbl" unicode="&#x2021;" horiz-adv-x="14" 
 />
    <glyph glyph-name="periodcentered" unicode="&#xb7;" horiz-adv-x="210" 
d="M76 416q17 0 45.5 -16t28.5 -33q0 -34 -22 -62q-25 -29 -59 -29q-20 0 -43 17t-23 40q0 8 6 16q-2 7 -2 14q0 21 24 37t45 16z" />
    <glyph glyph-name="periodcentered" unicode="&#x2219;" horiz-adv-x="210" 
d="M76 416q17 0 45.5 -16t28.5 -33q0 -34 -22 -62q-25 -29 -59 -29q-20 0 -43 17t-23 40q0 8 6 16q-2 7 -2 14q0 21 24 37t45 16z" />
    <glyph glyph-name="quotesinglbase" unicode="&#x201a;" horiz-adv-x="204" 
d="M141 41q0 -36 -1 -41q-7 -20 -56 -90q-3 -9 -13 -28q-17 -30 -41 -30q-18 0 -18 25q0 26 21.5 50.5t21.5 48.5q0 23 -29 46t-29 51q0 9 16 54q3 9 23 17q17 6 28 6q26 0 44 -12q8 -6 28 -46q5 -11 5 -51z" />
    <glyph glyph-name="quotedblbase" unicode="&#x201e;" horiz-adv-x="405" 
d="M341 41q0 -36 -1 -41q-7 -20 -56 -90q-3 -9 -13 -28q-17 -30 -41 -30q-18 0 -18 25q0 26 21.5 50.5t21.5 48.5q0 23 -29 46t-29 51q0 9 16 54q3 9 23 17q17 6 28 6q26 0 44 -12q8 -6 28 -46q5 -11 5 -51zM141 41q0 -36 -1 -41q-7 -20 -56 -90q-3 -9 -13 -28
q-17 -30 -41 -30q-18 0 -18 25q0 26 21.5 50.5t21.5 48.5q0 23 -35 47t-35 51q0 5 14 45q3 9 30 20q24 11 35 11q26 0 44 -12q8 -6 28 -46q5 -11 5 -51z" />
    <glyph glyph-name="perthousand" unicode="&#x2030;" horiz-adv-x="28" 
 />
    <glyph glyph-name="Acircumflex" unicode="&#xc2;" horiz-adv-x="807" 
d="M781 36q0 -2 -11 -15l-13 -15q-6 0 -9 -1q-28 -5 -60 -6q-23 -1 -48 0q-30 2 -25 2q-3 0 -25.5 10.5t-27.5 10.5q-4 0 -30.5 -9t-31 -9t-26.5 -2.5t-24 -2.5t-31 9q-2 1 -16.5 7.5t-19.5 6.5q-4 0 -38 -8q-38 -10 -49 -12q-45 -8 -82 -8q-4 0 -18.5 3.5t-18.5 3.5
q-56 11 -77 11q-13 0 -17.5 -5.5t-16.5 -4.5q7 -1 -28 -1q-47 0 -47 45q0 3 17 20q11 11 28 13q14 2 27 4q9 3 54 40q40 34 66 91q16 45 32 89q16 24 47 70q4 21 16 58q13 18 39 56q4 6 6 21q2 20 3 24q7 10 16 38q-1 18 5 52q14 33 36 49q11 8 45 8q39 0 55 -64
q2 -7 14 -19l18 -18q14 -18 18 -53q1 -29 9 -84q12 -25 33 -80q12 -29 34 -90q2 -16 9 -48q6 -7 16 -21q4 -17 16 -52q4 -5 11 -14q0 -9 6 -28q17 -27 73 -27q7 -2 18.5 -4.5t18.5 -3.5q4 -17 4 -16v-21zM427 358q0 24 -5 33q-9 18 -18 37q-14 23 -30 23q-21 0 -39 -44
q-8 -28 -17 -55q-12 -39 -12 -38q0 -14 21 -21q16 -5 33 -5q37 0 62 28q5 6 5 42zM511 140q0 92 -92 92q-5 0 -36 -7t-36 -7q-4 0 -9 2t-10 2q-4 0 -10 -5q-9 -4 -11 -5q-35 -10 -47 -33q-6 -14 -6 -43q0 -24 4 -35q17 -11 49 -28q16 0 45 -6q31 -12 29 -12q5 0 12 6
q11 9 13 10t20 1q5 0 19 -2t17 -2q23 0 36 22t13 50zM255 709l-12 15q3 9 3 11.5t20.5 13.5t31 13.5t33.5 26.5q3 3 23.5 17.5t23 14.5t40.5 20l68 -41l68 -38l36 -26q-12 -21 -12 -24q-50 6 -50 8.5t-22.5 15t-25 12.5t-31.5 3l-39 8q-44 -14 -46.5 -14t-55.5 -21z" />
    <glyph glyph-name="Ecircumflex" unicode="&#xca;" horiz-adv-x="753" 
d="M697 135q0 -19 -5 -38q-8 -17 -20 -47q-21 -66 -40 -66q-4 0 -26 12.5t-28.5 14.5t-55.5 2q-4 0 -20 -5.5t-21 -5.5t-12.5 4.5t-11.5 5.5q-23 5 -75 5q-4 0 -8.5 -5t-9.5 -5q-49 -8 -95 -8q-4 0 -24 5l-32 8q-27 5 -59 5q-9 0 -26.5 -11t-38.5 -11q-74 0 -83 31
q4 14 32 23q24 6 48 13q6 0 18 5q4 5 6 14q4 15 5 17q7 17 6 39q-1 27 0.5 35t8.5 29q6 18 6 22l-1.5 13.5t-1.5 37.5q-1 36 -1 93q0 4 -3 11t-3 11q0 10 4 50q4 32 1 50q-4 19 -29 75q-3 8 -20 20t-24 12q-4 0 -11.5 -5.5t-11.5 -5.5q-14 0 -25 12t-11 24q0 23 30 38
q24 12 44 12q4 0 26.5 -5.5t27.5 -5.5q3 0 20 5t23 5q12 0 38 1h28q4 0 29.5 -12.5t30.5 -12.5q4 0 20 3.5t21 3.5q4 0 13 -1.5t14 -1.5q4 0 44 9t44 9t38.5 -9t38.5 -9q5 0 32 7t31 7q18 0 43 -16q16 -11 17 -22q-2 -43 2 -125q6 -8 12 -22q2 -6 2 -20q0 -20 -12 -43h-15
q-11 0 -27 35q-9 21 -19 41q-23 29 -47 57q-29 35 -55 45q-22 9 -63 9q-19 0 -43 -2t-23 -2q-14 0 -44.5 -11.5t-35.5 -19.5q-11 -16 -12 -38.5t-1 -43.5q-1 -4 -5.5 -17.5t-4.5 -18.5q0 -21 23 -71q7 -17 22 -17q7 0 47.5 18t58.5 32q5 4 8 21q4 30 4 32q4 16 7 23
q7 17 19 25q7 -2 19 -16q15 -17 15 -33q0 -4 -10.5 -57t-10.5 -58q0 -3 9 -40.5t9 -41.5q0 -27 -22 -27q-15 0 -20 5q-8 13 -33 37q-15 10 -46 25q-14 4 -71 12q-11 -5 -23 -41.5t-12 -57.5q0 7 13 -47q7 -30 14 -61q12 -40 37 -63q9 -7 48 -7q4 0 16.5 3.5t17.5 3.5
q4 0 10.5 -2t10.5 -2q8 0 75 31q8 -1 22 2q16 10 55 50q17 28 34 57q33 55 43 55q22 0 36 -43q11 -32 11 -62zM175 712l-12 15q3 9 3 11.5t20.5 13.5t31 13.5t33.5 26.5q2 2 24.5 8.5t25.5 6.5t35 14l71 -29l67 -27l36 -26q-12 -21 -12 -24q-50 6 -50 8.5t-22.5 15t-25 12.5
t-31.5 3l-39 8q-44 -14 -46.5 -14t-55.5 -21z" />
    <glyph glyph-name="Aacute" unicode="&#xc1;" horiz-adv-x="807" 
d="M781 36q0 -2 -11 -15l-13 -15q-6 0 -9 -1q-28 -5 -60 -6q-23 -1 -48 0q-30 2 -25 2q-3 0 -25.5 10.5t-27.5 10.5q-4 0 -30.5 -9t-31 -9t-26.5 -2.5t-24 -2.5t-31 9q-2 1 -16.5 7.5t-19.5 6.5q-4 0 -38 -8q-38 -10 -49 -12q-45 -8 -82 -8q-4 0 -18.5 3.5t-18.5 3.5
q-56 11 -77 11q-13 0 -17.5 -5.5t-16.5 -4.5q7 -1 -28 -1q-47 0 -47 45q0 3 17 20q11 11 28 13q14 2 27 4q9 3 54 40q40 34 66 91q16 45 32 89q16 24 47 70q4 21 16 58q13 18 39 56q4 6 6 21q2 20 3 24q7 10 16 38q-1 18 5 52q14 33 36 49q11 8 45 8q39 0 55 -64
q2 -7 14 -19l18 -18q14 -18 18 -53q1 -29 9 -84q12 -25 33 -80q12 -29 34 -90q2 -16 9 -48q6 -7 16 -21q4 -17 16 -52q4 -5 11 -14q0 -9 6 -28q17 -27 73 -27q7 -2 18.5 -4.5t18.5 -3.5q4 -17 4 -16v-21zM427 358q0 24 -5 33q-9 18 -18 37q-14 23 -30 23q-21 0 -39 -44
q-8 -28 -17 -55q-12 -39 -12 -38q0 -14 21 -21q16 -5 33 -5q37 0 62 28q5 6 5 42zM511 140q0 92 -92 92q-5 0 -36 -7t-36 -7q-4 0 -9 2t-10 2q-4 0 -10 -5q-9 -4 -11 -5q-35 -10 -47 -33q-6 -14 -6 -43q0 -24 4 -35q17 -11 49 -28q16 0 45 -6q31 -12 29 -12q5 0 12 6
q11 9 13 10t20 1q5 0 19 -2t17 -2q23 0 36 22t13 50zM290 728l17 17q19 11 47 25q5 2 22 20t21.5 18t65.5 34q28 6 32 6q18 0 18 -31q0 -3 -6 -32q-17 -13 -38 -29q0 -1 -45.5 -8.5t-45.5 -10.5t-36.5 -16t-36.5 -14q-3 -3 -15 21z" />
    <glyph glyph-name="Edieresis" unicode="&#xcb;" horiz-adv-x="753" 
d="M697 135q0 -19 -5 -38q-8 -17 -20 -47q-21 -66 -40 -66q-4 0 -26 12.5t-28.5 14.5t-55.5 2q-4 0 -20 -5.5t-21 -5.5t-12.5 4.5t-11.5 5.5q-23 5 -75 5q-4 0 -8.5 -5t-9.5 -5q-49 -8 -95 -8q-4 0 -24 5l-32 8q-27 5 -59 5q-9 0 -26.5 -11t-38.5 -11q-74 0 -83 31
q4 14 32 23q24 6 48 13q6 0 18 5q4 5 6 14q4 15 5 17q7 17 6 39q-1 27 0.5 35t8.5 29q6 18 6 22l-1.5 13.5t-1.5 37.5q-1 36 -1 93q0 4 -3 11t-3 11q0 10 4 50q4 32 1 50q-4 19 -29 75q-3 8 -20 20t-24 12q-4 0 -11.5 -5.5t-11.5 -5.5q-14 0 -25 12t-11 24q0 23 30 38
q24 12 44 12q4 0 26.5 -5.5t27.5 -5.5q3 0 20 5t23 5q12 0 38 1h28q4 0 29.5 -12.5t30.5 -12.5q4 0 20 3.5t21 3.5q4 0 13 -1.5t14 -1.5q4 0 44 9t44 9t38.5 -9t38.5 -9q5 0 32 7t31 7q18 0 43 -16q16 -11 17 -22q-2 -43 2 -125q6 -8 12 -22q2 -6 2 -20q0 -20 -12 -43h-15
q-11 0 -27 35q-9 21 -19 41q-23 29 -47 57q-29 35 -55 45q-22 9 -63 9q-19 0 -43 -2t-23 -2q-14 0 -44.5 -11.5t-35.5 -19.5q-11 -16 -12 -38.5t-1 -43.5q-1 -4 -5.5 -17.5t-4.5 -18.5q0 -21 23 -71q7 -17 22 -17q7 0 47.5 18t58.5 32q5 4 8 21q4 30 4 32q4 16 7 23
q7 17 19 25q7 -2 19 -16q15 -17 15 -33q0 -4 -10.5 -57t-10.5 -58q0 -3 9 -40.5t9 -41.5q0 -27 -22 -27q-15 0 -20 5q-8 13 -33 37q-15 10 -46 25q-14 4 -71 12q-11 -5 -23 -41.5t-12 -57.5q0 7 13 -47q7 -30 14 -61q12 -40 37 -63q9 -7 48 -7q4 0 16.5 3.5t17.5 3.5
q4 0 10.5 -2t10.5 -2q8 0 75 31q8 -1 22 2q16 10 55 50q17 28 34 57q33 55 43 55q22 0 36 -43q11 -32 11 -62zM395 781q2 12 18 31t28 17q25 -5 43 -26t14 -46q-3 -15 -18.5 -29.5t-32.5 -11.5q-6 1 -12 6q-20 -4 -32 20q-11 20 -8 39zM195 781q2 12 18 31t28 17
q25 -5 43 -26t14 -46q-3 -15 -18.5 -29.5t-32.5 -11.5q-6 1 -12 6q-20 -4 -32 20q-11 20 -8 39z" />
    <glyph glyph-name="Egrave" unicode="&#xc8;" horiz-adv-x="753" 
d="M697 135q0 -19 -5 -38q-8 -17 -20 -47q-21 -66 -40 -66q-4 0 -26 12.5t-28.5 14.5t-55.5 2q-4 0 -20 -5.5t-21 -5.5t-12.5 4.5t-11.5 5.5q-23 5 -75 5q-4 0 -8.5 -5t-9.5 -5q-49 -8 -95 -8q-4 0 -24 5l-32 8q-27 5 -59 5q-9 0 -26.5 -11t-38.5 -11q-74 0 -83 31
q4 14 32 23q24 6 48 13q6 0 18 5q4 5 6 14q4 15 5 17q7 17 6 39q-1 27 0.5 35t8.5 29q6 18 6 22l-1.5 13.5t-1.5 37.5q-1 36 -1 93q0 4 -3 11t-3 11q0 10 4 50q4 32 1 50q-4 19 -29 75q-3 8 -20 20t-24 12q-4 0 -11.5 -5.5t-11.5 -5.5q-14 0 -25 12t-11 24q0 23 30 38
q24 12 44 12q4 0 26.5 -5.5t27.5 -5.5q3 0 20 5t23 5q12 0 38 1h28q4 0 29.5 -12.5t30.5 -12.5q4 0 20 3.5t21 3.5q4 0 13 -1.5t14 -1.5q4 0 44 9t44 9t38.5 -9t38.5 -9q5 0 32 7t31 7q18 0 43 -16q16 -11 17 -22q-2 -43 2 -125q6 -8 12 -22q2 -6 2 -20q0 -20 -12 -43h-15
q-11 0 -27 35q-9 21 -19 41q-23 29 -47 57q-29 35 -55 45q-22 9 -63 9q-19 0 -43 -2t-23 -2q-14 0 -44.5 -11.5t-35.5 -19.5q-11 -16 -12 -38.5t-1 -43.5q-1 -4 -5.5 -17.5t-4.5 -18.5q0 -21 23 -71q7 -17 22 -17q7 0 47.5 18t58.5 32q5 4 8 21q4 30 4 32q4 16 7 23
q7 17 19 25q7 -2 19 -16q15 -17 15 -33q0 -4 -10.5 -57t-10.5 -58q0 -3 9 -40.5t9 -41.5q0 -27 -22 -27q-15 0 -20 5q-8 13 -33 37q-15 10 -46 25q-14 4 -71 12q-11 -5 -23 -41.5t-12 -57.5q0 7 13 -47q7 -30 14 -61q12 -40 37 -63q9 -7 48 -7q4 0 16.5 3.5t17.5 3.5
q4 0 10.5 -2t10.5 -2q8 0 75 31q8 -1 22 2q16 10 55 50q17 28 34 57q33 55 43 55q22 0 36 -43q11 -32 11 -62zM460 728l-18 17q-19 11 -47 25q-4 2 -21.5 20t-21.5 18t-66 34q-27 6 -31 6q-18 0 -18 -31q0 -3 5 -32q18 -13 38 -29q1 -1 46.5 -8.5t45.5 -10.5t36 -16t37 -14
q3 -3 15 21z" />
    <glyph glyph-name="Iacute" unicode="&#xcd;" horiz-adv-x="427" 
d="M392 646q0 -15 -23 -27q-13 -6 -26 -11q-34 -15 -53 -31q-9 -7 -11 -28q-6 -78 -3 -98q7 -52 5 -63l-18 -68q-3 -12 -3 -74q0 -83 3 -105q12 -94 57 -94q4 0 11 4t11 4q17 0 17 -22q0 -25 -17 -31q-5 -2 -27 -2q-5 0 -18.5 2t-18.5 2q-4 0 -23 -5.5t-24 -5.5t-25.5 7
t-25.5 7q-4 0 -14.5 -6.5t-16.5 -6.5q-36 -5 -46 -5q-2 0 -28.5 5.5t-39.5 6.5q-12 8 -12 21q0 -7 5 21q25 9 76 23q9 18 26 76t17 71q0 4 -5 35t-5 42q3 27 1 80q0 3 -5 20q-4 14 -4 21q0 5 1 7q10 23 10 47q0 11 -2.5 29.5t-2.5 25.5q-1 21 -12 48.5t-62.5 34t-57.5 25.5
q-2 5 -2 14q0 18 1 21q4 11 23 14q32 5 102 5q4 0 31.5 -3.5t32.5 -3.5q4 0 28 5.5t28 5.5q5 0 23.5 -5.5t22.5 -5.5q5 0 25 3.5t24 3.5q50 0 50 -36zM94 728l18 17q20 9 49 20q4 2 20 22.5t20.5 20.5t53.5 34q44 -23 44 -26t6 -29q-15 -9 -32 -21q-1 -1 -46 -13.5
t-45 -15.5t-36.5 -16t-36.5 -14q-3 -3 -15 21z" />
    <glyph glyph-name="Icircumflex" unicode="&#xce;" horiz-adv-x="427" 
d="M392 646q0 -15 -23 -27q-13 -6 -26 -11q-34 -15 -53 -31q-9 -7 -11 -28q-6 -78 -3 -98q7 -52 5 -63l-18 -68q-3 -12 -3 -74q0 -83 3 -105q12 -94 57 -94q4 0 11 4t11 4q17 0 17 -22q0 -25 -17 -31q-5 -2 -27 -2q-5 0 -18.5 2t-18.5 2q-4 0 -23 -5.5t-24 -5.5t-25.5 7
t-25.5 7q-4 0 -14.5 -6.5t-16.5 -6.5q-36 -5 -46 -5q-2 0 -28.5 5.5t-39.5 6.5q-12 8 -12 21q0 -7 5 21q25 9 76 23q9 18 26 76t17 71q0 4 -5 35t-5 42q3 27 1 80q0 3 -5 20q-4 14 -4 21q0 5 1 7q10 23 10 47q0 11 -2.5 29.5t-2.5 25.5q-1 21 -12 48.5t-62.5 34t-57.5 25.5
q-2 5 -2 14q0 18 1 21q4 11 23 14q32 5 102 5q4 0 31.5 -3.5t32.5 -3.5q4 0 28 5.5t28 5.5q5 0 23.5 -5.5t22.5 -5.5q5 0 25 3.5t24 3.5q50 0 50 -36zM35 709l-12 15q3 9 3 11.5t20.5 13.5t31 13.5t33.5 26.5q3 3 23.5 17.5t23 14.5t40.5 20l68 -41l68 -38l36 -26
q-12 -21 -12 -24q-50 6 -50 8.5t-22.5 15t-25 12.5t-31.5 3l-39 8q-44 -14 -46.5 -14t-55.5 -21z" />
    <glyph glyph-name="Idieresis" unicode="&#xcf;" horiz-adv-x="427" 
d="M392 646q0 -15 -23 -27q-13 -6 -26 -11q-34 -15 -53 -31q-9 -7 -11 -28q-6 -78 -3 -98q7 -52 5 -63l-18 -68q-3 -12 -3 -74q0 -83 3 -105q12 -94 57 -94q4 0 11 4t11 4q17 0 17 -22q0 -25 -17 -31q-5 -2 -27 -2q-5 0 -18.5 2t-18.5 2q-4 0 -23 -5.5t-24 -5.5t-25.5 7
t-25.5 7q-4 0 -14.5 -6.5t-16.5 -6.5q-36 -5 -46 -5q-2 0 -28.5 5.5t-39.5 6.5q-12 8 -12 21q0 -7 5 21q25 9 76 23q9 18 26 76t17 71q0 4 -5 35t-5 42q3 27 1 80q0 3 -5 20q-4 14 -4 21q0 5 1 7q10 23 10 47q0 11 -2.5 29.5t-2.5 25.5q-1 21 -12 48.5t-62.5 34t-57.5 25.5
q-2 5 -2 14q0 18 1 21q4 11 23 14q32 5 102 5q4 0 31.5 -3.5t32.5 -3.5q4 0 28 5.5t28 5.5q5 0 23.5 -5.5t22.5 -5.5q5 0 25 3.5t24 3.5q50 0 50 -36zM245 791q2 12 18 31t28 17q25 -5 43 -26t14 -46q-3 -15 -18.5 -29.5t-32.5 -11.5q-6 1 -12 6q-20 -4 -32 20q-11 20 -8 39
zM45 791q2 12 18 31t28 17q25 -5 43 -26t14 -46q-3 -15 -18.5 -29.5t-32.5 -11.5q-6 1 -12 6q-20 -4 -32 20q-11 20 -8 39z" />
    <glyph glyph-name="Igrave" unicode="&#xcc;" horiz-adv-x="427" 
d="M392 646q0 -15 -23 -27q-13 -6 -26 -11q-34 -15 -53 -31q-9 -7 -11 -28q-6 -78 -3 -98q7 -52 5 -63l-18 -68q-3 -12 -3 -74q0 -83 3 -105q12 -94 57 -94q4 0 11 4t11 4q17 0 17 -22q0 -25 -17 -31q-5 -2 -27 -2q-5 0 -18.5 2t-18.5 2q-4 0 -23 -5.5t-24 -5.5t-25.5 7
t-25.5 7q-4 0 -14.5 -6.5t-16.5 -6.5q-36 -5 -46 -5q-2 0 -28.5 5.5t-39.5 6.5q-12 8 -12 21q0 -7 5 21q25 9 76 23q9 18 26 76t17 71q0 4 -5 35t-5 42q3 27 1 80q0 3 -5 20q-4 14 -4 21q0 5 1 7q10 23 10 47q0 11 -2.5 29.5t-2.5 25.5q-1 21 -12 48.5t-62.5 34t-57.5 25.5
q-2 5 -2 14q0 18 1 21q4 11 23 14q32 5 102 5q4 0 31.5 -3.5t32.5 -3.5q4 0 28 5.5t28 5.5q5 0 23.5 -5.5t22.5 -5.5q5 0 25 3.5t24 3.5q50 0 50 -36zM310 728l-18 17q-19 11 -47 25q-4 2 -21.5 20t-21.5 18t-66 34q-27 6 -31 6q-18 0 -18 -31q0 -3 5 -32q18 -13 38 -29
q1 -1 46.5 -8.5t45.5 -10.5t36 -16t37 -14q3 -3 15 21z" />
    <glyph glyph-name="Oacute" unicode="&#xd3;" horiz-adv-x="765" 
d="M722 367q0 -12 -17 -87q-21 -90 -39 -129q-19 -42 -66 -82q-30 -22 -94 -68q-15 -11 -44 -19q-24 -8 -34 -8q-78 0 -128 12q-9 2 -30.5 17.5t-26.5 15.5q-3 0 -12.5 -4t-14.5 -4q-26 0 -67 27q-13 9 -24 26l-18 28q-6 9 -28 24.5t-28 26.5q-32 62 -39 111q-1 4 4 17.5
t5 19.5q0 3 -1 6q-12 27 -12 85q0 29 17 58q20 34 41 67q16 28 33 56.5t37 47.5q34 31 72 41q42 12 70 30q20 12 46 12q19 0 152 -23q7 -8 30 -24q104 -46 175 -161q5 -8 23 -63.5zM558 279q0 81 -20 198q-11 68 -44 118q-11 16 -42 33q-26 15 -35 15q-5 0 -10 -2.5t-9 -3.5
q-15 3 -42 4q-14 -7 -35 -15q-4 -1 -25 -8t-25 -7q-1 0 -1 1t4 4q-23 -18 -33 -47q-19 -56 -37 -111q-15 -51 -15 -105q0 -46 23 -209q6 -43 38 -80q37 -42 81 -42q5 0 28.5 5.5t28.5 5.5t26 -3.5t25 -3.5q12 0 37 12t30 18q28 34 36 95q3 40 6 81q10 53 10 47zM250 728
l17 17q19 11 47 25q5 2 22 20t21.5 18t65.5 34q28 6 32 6q18 0 18 -31q0 -3 -6 -32q-17 -13 -38 -29q0 -1 -45.5 -8.5t-45.5 -10.5t-36.5 -16t-36.5 -14q-3 -3 -15 21z" />
    <glyph glyph-name="Ocircumflex" unicode="&#xd4;" horiz-adv-x="765" 
d="M722 367q0 -12 -17 -87q-21 -90 -39 -129q-19 -42 -66 -82q-30 -22 -94 -68q-15 -11 -44 -19q-24 -8 -34 -8q-78 0 -128 12q-9 2 -30.5 17.5t-26.5 15.5q-3 0 -12.5 -4t-14.5 -4q-26 0 -67 27q-13 9 -24 26l-18 28q-6 9 -28 24.5t-28 26.5q-32 62 -39 111q-1 4 4 17.5
t5 19.5q0 3 -1 6q-12 27 -12 85q0 29 17 58q20 34 41 67q16 28 33 56.5t37 47.5q34 31 72 41q42 12 70 30q20 12 46 12q19 0 152 -23q7 -8 30 -24q104 -46 175 -161q5 -8 23 -63.5zM558 279q0 81 -20 198q-11 68 -44 118q-11 16 -42 33q-26 15 -35 15q-5 0 -10 -2.5t-9 -3.5
q-15 3 -42 4q-14 -7 -35 -15q-4 -1 -25 -8t-25 -7q-1 0 -1 1t4 4q-23 -18 -33 -47q-19 -56 -37 -111q-15 -51 -15 -105q0 -46 23 -209q6 -43 38 -80q37 -42 81 -42q5 0 28.5 5.5t28.5 5.5t26 -3.5t25 -3.5q12 0 37 12t30 18q28 34 36 95q3 40 6 81q10 53 10 47zM195 709
l-12 15q3 9 3 11.5t20.5 13.5t31 13.5t33.5 26.5q3 3 23.5 17.5t23 14.5t40.5 20l68 -41l68 -38l36 -26q-12 -21 -12 -24q-50 6 -50 8.5t-22.5 15t-25 12.5t-31.5 3l-39 8q-44 -14 -46.5 -14t-55.5 -21z" />
    <glyph glyph-name="Ograve" unicode="&#xd2;" horiz-adv-x="765" 
d="M722 367q0 -12 -17 -87q-21 -90 -39 -129q-19 -42 -66 -82q-30 -22 -94 -68q-15 -11 -44 -19q-24 -8 -34 -8q-78 0 -128 12q-9 2 -30.5 17.5t-26.5 15.5q-3 0 -12.5 -4t-14.5 -4q-26 0 -67 27q-13 9 -24 26l-18 28q-6 9 -28 24.5t-28 26.5q-32 62 -39 111q-1 4 4 17.5
t5 19.5q0 3 -1 6q-12 27 -12 85q0 29 17 58q20 34 41 67q16 28 33 56.5t37 47.5q34 31 72 41q42 12 70 30q20 12 46 12q19 0 152 -23q7 -8 30 -24q104 -46 175 -161q5 -8 23 -63.5zM558 279q0 81 -20 198q-11 68 -44 118q-11 16 -42 33q-26 15 -35 15q-5 0 -10 -2.5t-9 -3.5
q-15 3 -42 4q-14 -7 -35 -15q-4 -1 -25 -8t-25 -7q-1 0 -1 1t4 4q-23 -18 -33 -47q-19 -56 -37 -111q-15 -51 -15 -105q0 -46 23 -209q6 -43 38 -80q37 -42 81 -42q5 0 28.5 5.5t28.5 5.5t26 -3.5t25 -3.5q12 0 37 12t30 18q28 34 36 95q3 40 6 81q10 53 10 47zM460 738
l-18 17q-19 11 -47 25q-4 2 -21.5 20t-21.5 18t-66 34q-27 6 -31 6q-18 0 -18 -31q0 -3 5 -32q18 -13 38 -29q1 -1 46.5 -8.5t45.5 -10.5t36 -16t37 -14q3 -3 15 21z" />
    <glyph glyph-name="Uacute" unicode="&#xda;" horiz-adv-x="678" 
d="M637 624q0 -27 -18 -35h-24q-18 0 -23 -14q-15 -37 -15 -96q0 -4 7 -56.5t7 -56.5q0 -64 -4 -116q-10 -46 -29 -147q-3 -18 -62 -67q-19 -17 -60 -51q-18 -5 -15 -5q-3 0 -18 7.5t-20 7.5q-4 0 -27 -7.5t-27 -7.5q-5 0 -14 4q-13 5 -16 6q-20 3 -60 13q-10 7 -31 19
q-13 2 -39 9q-25 11 -35 25l-24 36t-17 41q-5 29 -5 51l17 325q0 15 -8 37q-10 28 -23 28q-3 0 -11.5 -4t-13.5 -4q-27 0 -27 45q0 52 54 52q4 0 30.5 -3.5t30.5 -3.5t26.5 3.5t27.5 3.5q4 0 20.5 -7t21.5 -7q3 0 12.5 3.5t13.5 3.5t15.5 -9t15.5 -9q13 0 26 14h12
q11 -23 11 -28q0 -36 -22 -36q-4 0 -10.5 1.5t-10.5 1.5q-16 0 -40.5 -23.5t-24.5 -42.5q0 -4 4.5 -17t4.5 -18q9 -83 9 -175v-119q0 -50 37.5 -92t84.5 -42q30 0 67 17.5t47 39.5q6 12 12 71q12 106 12 99q0 12 -5 43t-4 47q1 10 7.5 38.5t6.5 32.5q0 67 -25 110
q-6 9 -43 30q-33 19 -33 34q0 16 35 31q29 12 38 12q4 0 24.5 -4t24.5 -4t19 7.5t19 7.5q2 0 21.5 -3.5t29.5 -3.5q4 0 12 -2q21 -26 21 -41zM210 728l17 17q19 11 47 25q5 2 22 20t21.5 18t65.5 34q28 6 32 6q18 0 18 -31q0 -3 -6 -32q-17 -13 -38 -29q0 -1 -45.5 -8.5
t-45.5 -10.5t-36.5 -16t-36.5 -14q-3 -3 -15 21z" />
    <glyph glyph-name="Ucircumflex" unicode="&#xdb;" horiz-adv-x="678" 
d="M637 624q0 -27 -18 -35h-24q-18 0 -23 -14q-15 -37 -15 -96q0 -4 7 -56.5t7 -56.5q0 -64 -4 -116q-10 -46 -29 -147q-3 -18 -62 -67q-19 -17 -60 -51q-18 -5 -15 -5q-3 0 -18 7.5t-20 7.5q-4 0 -27 -7.5t-27 -7.5q-5 0 -14 4q-13 5 -16 6q-20 3 -60 13q-10 7 -31 19
q-13 2 -39 9q-25 11 -35 25l-24 36t-17 41q-5 29 -5 51l17 325q0 15 -8 37q-10 28 -23 28q-3 0 -11.5 -4t-13.5 -4q-27 0 -27 45q0 52 54 52q4 0 30.5 -3.5t30.5 -3.5t26.5 3.5t27.5 3.5q4 0 20.5 -7t21.5 -7q3 0 12.5 3.5t13.5 3.5t15.5 -9t15.5 -9q13 0 26 14h12
q11 -23 11 -28q0 -36 -22 -36q-4 0 -10.5 1.5t-10.5 1.5q-16 0 -40.5 -23.5t-24.5 -42.5q0 -4 4.5 -17t4.5 -18q9 -83 9 -175v-119q0 -50 37.5 -92t84.5 -42q30 0 67 17.5t47 39.5q6 12 12 71q12 106 12 99q0 12 -5 43t-4 47q1 10 7.5 38.5t6.5 32.5q0 67 -25 110
q-6 9 -43 30q-33 19 -33 34q0 16 35 31q29 12 38 12q4 0 24.5 -4t24.5 -4t19 7.5t19 7.5q2 0 21.5 -3.5t29.5 -3.5q4 0 12 -2q21 -26 21 -41zM155 709l-12 15q3 9 3 11.5t20.5 13.5t31 13.5t33.5 26.5q3 3 23.5 17.5t23 14.5t40.5 20l68 -41l68 -38l36 -26q-12 -21 -12 -24
q-50 6 -50 8.5t-22.5 15t-25 12.5t-31.5 3l-39 8q-44 -14 -46.5 -14t-55.5 -21z" />
    <glyph glyph-name="Ugrave" unicode="&#xd9;" horiz-adv-x="678" 
d="M637 624q0 -27 -18 -35h-24q-18 0 -23 -14q-15 -37 -15 -96q0 -4 7 -56.5t7 -56.5q0 -64 -4 -116q-10 -46 -29 -147q-3 -18 -62 -67q-19 -17 -60 -51q-18 -5 -15 -5q-3 0 -18 7.5t-20 7.5q-4 0 -27 -7.5t-27 -7.5q-5 0 -14 4q-13 5 -16 6q-20 3 -60 13q-10 7 -31 19
q-13 2 -39 9q-25 11 -35 25l-24 36t-17 41q-5 29 -5 51l17 325q0 15 -8 37q-10 28 -23 28q-3 0 -11.5 -4t-13.5 -4q-27 0 -27 45q0 52 54 52q4 0 30.5 -3.5t30.5 -3.5t26.5 3.5t27.5 3.5q4 0 20.5 -7t21.5 -7q3 0 12.5 3.5t13.5 3.5t15.5 -9t15.5 -9q13 0 26 14h12
q11 -23 11 -28q0 -36 -22 -36q-4 0 -10.5 1.5t-10.5 1.5q-16 0 -40.5 -23.5t-24.5 -42.5q0 -4 4.5 -17t4.5 -18q9 -83 9 -175v-119q0 -50 37.5 -92t84.5 -42q30 0 67 17.5t47 39.5q6 12 12 71q12 106 12 99q0 12 -5 43t-4 47q1 10 7.5 38.5t6.5 32.5q0 67 -25 110
q-6 9 -43 30q-33 19 -33 34q0 16 35 31q29 12 38 12q4 0 24.5 -4t24.5 -4t19 7.5t19 7.5q2 0 21.5 -3.5t29.5 -3.5q4 0 12 -2q21 -26 21 -41zM415 719l-17 17q-19 12 -47 26q-4 1 -21.5 19t-21.5 18t-66 34q-28 7 -31 7q-19 0 -19 -32q0 -3 6 -32q18 -13 38 -29q1 -1 46 -8
t45 -10.5t36.5 -16.5t37.5 -14q2 -2 14 21z" />
    <glyph glyph-name="circumflex" unicode="&#x2c6;" horiz-adv-x="434" 
d="M83 719l-8 11q2 6 2 8t15.5 10.5t23 10t25.5 19.5q1 2 18.5 11.5t19 9.5t23.5 28l56 -39l50 -30l27 -20q-9 -15 -9 -17q-38 4 -38 6t-16.5 11t-18.5 9t-24 2l-29 7q-33 -11 -35 -11t-42 -15z" />
    <glyph glyph-name="tilde" unicode="&#x2dc;" horiz-adv-x="452" 
d="M42 763q0 20 37 48q47 12 52 12q4 0 23.5 -3t21.5 -3t67 -24l58 -8q3 0 38 11l29 27q18 -24 18 -27q0 -30 -50 -52q-29 -13 -66 -13q-12 0 -24 1q0 -2 -33.5 10.5t-34.5 12.5q-35 0 -52 12q-3 2 -7 2q-14 0 -34 -11q-5 -2 -17.5 -11.5t-12.5 -11.5q0 -1 -5 12.5t-6.5 14
t-1.5 1.5z" />
    <glyph glyph-name="macron" unicode="&#xaf;" horiz-adv-x="305" 
d="M17 817q0 -8 3 -15q-6 -20 -6 -23q0 -2 12 -12.5t13.5 -10.5t45 -3t44.5 -3q3 0 19.5 5t18.5 7t66 -15q20 20 24.5 20t4.5 35v9q0 2 -9 6.5t-12 4.5h-41q-6 -5 -45 -5q-3 0 -49 2q-26 9 -32 6q-17 -8 -26 -8q6 0 -17 3q-14 2 -14 -3z" />
    <glyph glyph-name="macron" unicode="&#x2c9;" horiz-adv-x="305" 
d="M17 817q0 -8 3 -15q-6 -20 -6 -23q0 -2 12 -12.5t13.5 -10.5t45 -3t44.5 -3q3 0 19.5 5t18.5 7t66 -15q20 20 24.5 20t4.5 35v9q0 2 -9 6.5t-12 4.5h-41q-6 -5 -45 -5q-3 0 -49 2q-26 9 -32 6q-17 -8 -26 -8q6 0 -17 3q-14 2 -14 -3z" />
    <glyph glyph-name="cedilla" unicode="&#xb8;" horiz-adv-x="230" 
d="M175 -70v1l6 -37q0 -6 -11 -49q-15 -12 -44 -37q-6 -6 -37 -15t-44 -9q-11 8 -11 18q0 9 11 22q9 0 30.5 5.5t23.5 7.5t36 31q1 4 5 23l1 4v2q-5 6 -12 17q-6 1 -24 6l-3 1q-16 -1 -48 -10q-4 -2 -6 2.5t-5 3.5q-9 -1 -7 12l10 49q9 42 9 34h40q0 -14 -4 -27
q-7 -21 -8 -27l3 1q17 3 27 0l36 -8q24 -7 26 -21z" />
    <glyph glyph-name="notequal" unicode="&#x2260;" horiz-adv-x="22" 
 />
    <glyph glyph-name="infinity" unicode="&#x221e;" horiz-adv-x="25" 
 />
    <glyph glyph-name="lessequal" unicode="&#x2264;" 
 />
    <glyph glyph-name="greaterequal" unicode="&#x2265;" 
 />
    <glyph glyph-name="partialdiff" unicode="&#x2202;" horiz-adv-x="293" 
d="M18 215l72 49v199q0 12 -9 52q-10 50 -21 71q-9 17 -41 33q-27 14 -27 25q0 24 28 24q4 0 6.5 -2t7.5 -2q14 0 47.5 13t49.5 13q64 0 64 -67q0 -5 -7.5 -61.5t-7.5 -61.5q0 -2 5 -27t5 -38q0 -5 2 -27t1 -34q0 -15 -2 -41l67 45q13 -8 13 -26q0 -11 -5 -29q-7 -25 -8 -27
l-70 -46q-1 -39 0 -71q7 -9 16 -25q-6 -17 -6 -31q0 -27 25.5 -53t25.5 -36q0 -27 -33 -27q-4 0 -7 2t-7 2q-5 0 -15.5 -5.5t-15.5 -5.5q-3 0 -15 3.5t-17 3.5q-4 0 -11 -1.5t-11 -1.5q-5 0 -27.5 5.5t-26.5 5.5t-15 -2t-16 -2q-11 0 -20 6.5t-9 11.5q0 6 8.5 17t14.5 14
q15 6 30.5 12.5t22.5 26.5q3 10 1 80l-50 -32q-33 19 -33 33q0 15 21 35z" />
    <glyph glyph-name="summation" unicode="&#x2211;" horiz-adv-x="556" 
d="M516 229q0 -74 -26 -126q-20 -40 -63 -77q-46 -39 -81 -39h-67q-52 0 -72.5 21.5t-50.5 21.5q-22 0 -57 -19q-47 -27 -57 -31q-11 12 -20 34.5t-9 37.5q0 3 7 17t8 20q-3 16 -4 68q3 60 18 104q1 5 11 12t16 7q17 0 29 -27q2 -3 13 -38q10 -17 26 -50q2 -16 13 -42
q18 -22 61 -46q60 -32 85 -32q4 0 15.5 6t17.5 7q46 1 80 32.5t34 73.5q0 23 -9.5 36t-49.5 44q-12 9 -59 20q-23 5 -38 10q-25 11 -50 21q-46 18 -65 18q-4 0 -12.5 -2t-12.5 -2q-24 0 -60 9q-18 40 -58 117q-20 39 -20 49q0 9 20 49q1 1 9 32q6 22 18 32l42 36
q25 20 47 27q55 14 123 14q24 0 39.5 -25t44.5 -25q15 0 60 15q5 1 18 9t18 8q11 0 20 -20.5t9 -31.5q0 -2 -5 -25t-6 -36l-6 -70q-10 -64 -37 -64q-12 0 -20 45q-5 16 -14 46q-10 34 -46 59l-50 28q-18 12 -64 12q-63 0 -97 -43q-7 -9 -7 -34q0 -53 47 -73q19 -2 52 -9
q3 -7 11 -16q98 -40 118 -40q4 0 17 2t18 2q18 0 26 -11q14 -18 17 -21q13 -7 25 -14q18 -10 27 -23q8 -21 31 -72q2 -3 2 -18zM411 841l12 -15q-3 -9 -3 -11.5t-20.5 -13.5t-29.5 -13q-12 -3 -35 -27q-2 -2 -24.5 -10.5t-25 -8.5t-37.5 -29l-69 48l-68 27l-35 26
q12 21 12 24q50 -6 50 -8.5t22 -15t25 -12.5t32 -3l38 -8q45 14 47.5 14t55.5 21z" />
    <glyph glyph-name="product" unicode="&#x220f;" horiz-adv-x="445" 
d="M396 197q0 -38 -23 -122q-6 -21 -68 -69q-11 -8 -35 -8q-9 0 -32 15q12 25 57 53q36 21 36 56q0 19 -46 42q-12 9 -36 23q-16 2 -50 9q-16 6 -50 16q-6 1 -50 6q-26 3 -36 18q-29 43 -35 76q-3 12 -3 35q0 -3 5 55q2 22 27 50q41 45 45 51q41 9 74 9q30 0 62 -20t52 -20
q4 0 29.5 9t29.5 9q12 0 23.5 -13.5t11.5 -16.5q0 -5 -11.5 -29.5t-12.5 -27.5q-4 -20 -4 -69q0 -36 20 -66.5t20 -70.5zM162 46q-2 -1 -1 -15.5t-4 -14.5q-4 0 -39.5 9t-39.5 9q-18 0 -30 5q-15 54 -15 86q0 53 23 53q8 0 11 -5q6 -14 17 -36l39 -54q14 -11 39 -37z
M299 343q0 11 -34 53q-33 39 -39 43q-3 1 -23 1q-46 0 -59 -4q-42 -12 -39 -57q1 -9 1 -10q2 -5 7 -7q15 -7 68 -35q43 -24 48 -24q17 0 40 10q30 12 30 30zM334 666l9 -15q-2 -9 -2 -11.5t-15.5 -13.5t-23 -13.5t-25.5 -25.5q-2 -2 -18.5 -10.5t-18.5 -8.5t-28 -29l-52 48
l-51 26l-26 26q9 21 9 24q37 -6 37 -8.5t17 -14.5t19 -12t24 -3l28 -9q34 15 36 15t42 20z" />
    <glyph glyph-name="pi" unicode="&#x3c0;" horiz-adv-x="698" 
d="M530 449q-10 -32 -28.5 -58t-34.5 -72q-25 -74 -26 -78q-5 -11 -5 -30q0 -3 9 -43q9 -43 10 -59q1 -9 15 -28t30 -31q13 -1 26 -1q22 -5 19 -36q-2 -4 -11 -5q-6 0 -16 1l-10 1q-4 0 -19.5 5.5t-19.5 5.5q-5 0 -20 -7.5t-20 -7.5q-4 0 -15 6.5t-12 7.5q-23 8 -39 8
q-22 0 -63.5 -16t-49.5 -16q-58 0 -58 48q0 32 41 64q47 38 59 70q4 13 4 35l-13 57q-13 54 -60 133q-34 56 -68 111q-7 15 -14.5 29.5t-17.5 14.5q-4 0 -29 7.5t-29 7.5q-67 0 -67 57q0 18 12 33t30 15q4 0 38 -9t38 -9t43.5 9t43.5 9q5 0 68 -10.5t67 -10.5q48 0 94 10.5
t75 10.5q13 0 50 -5q2 0 11.5 -4.5t15.5 -4.5q4 0 15 2t16 2l25 10l18 -21v-30q0 -2 -27 -20q-30 -19 -31 -20q-31 -17 -43 -42q-5 -10 -15.5 -52t-11.5 -44zM505 504q0 52 -2 57q-15 12 -30 23q-40 33 -44 33h-40q-4 0 -18 1.5t-18 1.5q-46 0 -46 -98q0 -36 5 -44
q21 -29 52 -76q11 -29 37 -71q20 -16 32 -16q4 0 7 13q2 10 4 19q11 25 25 62q1 5 20 45q16 34 16 50zM230 728l17 17q19 11 47 25q5 2 22 20t21.5 18t65.5 34q28 6 32 6q18 0 18 -31q0 -3 -6 -32q-17 -13 -38 -29q0 -1 -45.5 -8.5t-45.5 -10.5t-36.5 -16t-36.5 -14
q-3 -3 -15 21z" />
    <glyph glyph-name="integral" unicode="&#x222b;" horiz-adv-x="524" 
d="M502 463q0 -35 -23 -50q-38 -24 -53 -45.5t-30 -41.5q-18 -27 -24 -45q-3 -10 -2 -33q2 -38 2 -37q0 -16 -2 -23q-7 -22 -51 -75q-25 -30 -37 -63q-2 -16 -8 -49q-5 -16 -20 -16q-13 0 -21 34q-4 21 -9 41q-23 31 -68 97q-2 3 -21 68q-11 36 -34 82l-27 33q-6 17 -21 49
q-17 16 -50 52q-9 10 -9 25t7 20t43 11q87 14 75 14q3 0 38 -3.5t56 -5.5q7 0 13.5 -11t6.5 -19q0 -5 -11 -23q-12 -22 -14 -26q-5 -11 -5 -35q0 -8 10 -55q11 -52 21 -81q2 -5 32 -35q4 -5 17 -5q12 0 16 7q20 31 52 89q5 12 5 63q0 12 -5 22t-26 41q-17 26 -17 31
q0 10 19.5 27t33.5 22q4 1 40 1q45 0 59 -5t36 -18q6 -6 6 -29zM241 -55q0 -27 -41 -81q-38 -50 -47 -50q-12 0 -36 -6t-28 -6q-46 0 -72.5 29t-26.5 68q0 22 22.5 46.5t43.5 24.5q41 0 64 -34t38 -34q25 0 44.5 28.5t33.5 27.5q5 -4 5 -13zM146 564l18 18q19 11 46 25
q5 2 22 20t21.5 18t66.5 34l9 2t15 2q25 0 25 -30q0 -2 -6 -31q-17 -13 -37 -29q-1 -1 -46.5 -8.5t-45.5 -11t-36.5 -16t-36.5 -13.5q-3 -3 -15 20z" />
    <glyph glyph-name="Omega" unicode="&#x3a9;" horiz-adv-x="654" 
d="M-1 444h79q7 20 31 62q14 19 32 58q13 28 56 48q52 25 65.5 38.5t49.5 27.5q12 5 61 5q6 0 23 -6q10 4 35 4q95 0 123 -24q22 -20 22 -54q0 -38 -11 -42q-24 -9 -40 -9q-24 0 -40 28q-21 35 -40 45q-37 -2 -73 -6q-7 -8 -38 -31q-13 -8 -53 -54q-20 -23 -22 -25
q-11 -15 -14 -27q-4 -16 -5 -38h193q11 -11 11 -24q0 -14 -11 -26h-191q0 -6 1 -12q3 -25 -5 -58h195q8 -14 8 -28q0 -13 -8 -22l-198 -1q4 -46 10 -72q14 -57 32 -86.5t71 -46.5q44 -15 89 -15q4 0 12 3t12 3l27 2q1 -2 22 15.5t25 17.5q1 -1 1 -2q8 6 21 31q11 21 24 22
q4 3 9 3q16 0 27 -40q5 0 -58 -64q-23 -22 -62 -38q-31 -12 -43 -12q-4 0 -32 -4t-33 -4q-4 0 -35 6t-35 6q-24 0 -44 10q-2 2 -33 23q-8 2 -21 10q-31 27 -62 53q-36 33 -56 61q-15 20 -30 80q-1 3 -14 38l-57 -1q-17 26 -6 52h54q1 47 7 70h-43q-20 18 -20 31q0 9 5 19z
" />
    <glyph glyph-name="Omega" unicode="&#x2126;" horiz-adv-x="654" 
d="M-1 444h79q7 20 31 62q14 19 32 58q13 28 56 48q52 25 65.5 38.5t49.5 27.5q12 5 61 5q6 0 23 -6q10 4 35 4q95 0 123 -24q22 -20 22 -54q0 -38 -11 -42q-24 -9 -40 -9q-24 0 -40 28q-21 35 -40 45q-37 -2 -73 -6q-7 -8 -38 -31q-13 -8 -53 -54q-20 -23 -22 -25
q-11 -15 -14 -27q-4 -16 -5 -38h193q11 -11 11 -24q0 -14 -11 -26h-191q0 -6 1 -12q3 -25 -5 -58h195q8 -14 8 -28q0 -13 -8 -22l-198 -1q4 -46 10 -72q14 -57 32 -86.5t71 -46.5q44 -15 89 -15q4 0 12 3t12 3l27 2q1 -2 22 15.5t25 17.5q1 -1 1 -2q8 6 21 31q11 21 24 22
q4 3 9 3q16 0 27 -40q5 0 -58 -64q-23 -22 -62 -38q-31 -12 -43 -12q-4 0 -32 -4t-33 -4q-4 0 -35 6t-35 6q-24 0 -44 10q-2 2 -33 23q-8 2 -21 10q-31 27 -62 53q-36 33 -56 61q-15 20 -30 80q-1 3 -14 38l-57 -1q-17 26 -6 52h54q1 47 7 70h-43q-20 18 -20 31q0 9 5 19z
" />
    <glyph glyph-name="radical" unicode="&#x221a;" 
 />
    <glyph glyph-name="approxequal" unicode="&#x2248;" 
 />
    <glyph glyph-name="approxequal" unicode="&#x22f2;" 
 />
    <glyph glyph-name="Delta" unicode="&#x394;" 
 />
    <glyph glyph-name="Delta" unicode="&#x2206;" 
 />
    <glyph glyph-name="lozenge" unicode="&#x25ca;" horiz-adv-x="426" 
d="M199 519q-11 -12 -25.5 -35.5t-15.5 -27.5q-22 -20 -46 -43q-1 -1 -64 -74q9 -12 12 -14q7 -5 34 -36q17 -30 39 -66q38 -47 46 -50q4 -1 25 -28q23 30 29 32q10 24 26 54q4 6 52 52q3 15 14 35q19 13 25 21q-34 31 -71 65q-3 4 -19.5 32t-17.5 32t-43 51z" />
    <glyph glyph-name="fraction" unicode="&#x2044;" horiz-adv-x="17" 
 />
    <glyph glyph-name="fi" unicode="&#xf001;" horiz-adv-x="14" 
 />
    <glyph glyph-name="fl" unicode="&#xf002;" horiz-adv-x="19" 
 />
    <glyph glyph-name="apple" unicode="&#xf000;" horiz-adv-x="8" 
 />
    <glyph glyph-name="dotlessi" unicode="&#x131;" horiz-adv-x="299" 
d="M266 38q0 -15 -18.5 -28t-30.5 -13q-4 0 -30.5 3.5t-30.5 3.5q-19 0 -36 -3.5t-27 -3.5q-54 0 -54 27q0 4 13 16q17 15 22 21q9 12 21 60q12 43 12 54q0 113 -5 170q-3 37 -38 73q-4 4 -25 13q-16 7 -19 18q4 24 35 24q4 0 15 -2t15 -2q5 0 30.5 5.5t29.5 5.5
q45 0 51 -15q2 -22 9 -66q1 -2 5.5 -9.5t4.5 -11.5v-120q0 -5 -7 -25.5t-7 -24.5t7 -24t8 -30q-1 -20 4 -54q4 -10 27 -30q19 -16 19 -32z" />
    <glyph glyph-name="breve" unicode="&#x2d8;" horiz-adv-x="262" 
d="M217 789q0 -34 -30 -58t-65 -24t-64 24t-29 59h34q0 -38 59 -38q63 0 63 37h32z" />
    <glyph glyph-name="dotaccent" unicode="&#x2d9;" horiz-adv-x="250" 
d="M59 788q2 12 17.5 31.5t27.5 16.5q25 -4 43.5 -25t13.5 -46q-2 -15 -18 -30t-33 -12q-6 1 -11 7q-21 -4 -32.5 18t-7.5 40z" />
    <glyph glyph-name="ring" unicode="&#x2da;" horiz-adv-x="262" 
d="M122 863q29 0 51 -22t22 -52q0 -29 -21.5 -49t-51.5 -20q-29 0 -50 21t-21 50q0 30 21 51t50 21zM122 832q-41 0 -41 -40q0 -17 13 -28.5t31 -11.5q39 0 39 37q0 18 -12.5 30.5t-29.5 12.5z" />
    <glyph glyph-name="hungarumlaut" unicode="&#x2dd;" horiz-adv-x="316" 
d="M127 716l9 16q12 12 29 27q7 16 17 32q4 1 38 44q19 10 29 10q16 0 22 -22q1 -2 2 -24q-16 -10 -33 -22q0 -1 -26 -18t-25.5 -19.5t-23 -19l-23.5 -16.5q-2 -3 -15 12zM16 718l9 16q12 12 29 27q7 16 17 33q4 1 38 43q19 10 29 10q16 0 22 -21q1 -2 2 -25q-16 -9 -33 -22
q0 -1 -26 -18t-25.5 -19.5t-23 -18.5t-24.5 -17q-1 -3 -14 12z" />
    <glyph glyph-name="ogonek" unicode="&#x2db;" horiz-adv-x="224" 
d="M16 -40v1q0 -23 4 -57q1 -6 23 -44q18 -8 52 -25q8 -5 40 -5t45 3q6 8 6 16q0 11 -16 23q-18 -5 -55 -3q-3 2 -43 21q-3 4 -12 22l-2 3v2q4 7 7 20q3 2 7.5 22t15.5 26l2 2q21 5 23.5 5t9 1.5t9.5 1.5l-6 43l-20 -4l-20 -2q-7 0 -21 -12q-9 -6 -18 -13q-34 -21 -31 -47z
" />
    <glyph glyph-name="caron" unicode="&#x2c7;" horiz-adv-x="426" 
d="M358 840l12 -15q-3 -9 -3 -11.5t-21 -13.5t-29 -13q-12 -3 -35 -27q-3 -2 -25.5 -10.5t-25 -8.5t-37.5 -29l-68 48l-68 27l-35 26q12 21 12 24q50 -6 50 -8.5t22 -15t24.5 -12.5t32.5 -3l38 -8q44 14 47 14t56 21z" />
    </font>
</defs>
</svg>
