<?xml version="1.0" standalone="no"?>
<!DOCTYPE svg PUBLIC "-//W3C//DTD SVG 1.1//EN" "http://www.w3.org/Graphics/SVG/1.1/DTD/svg11.dtd" >
<svg>
<metadata>
Created by FontForge 20120731 at Wed Apr 17 21:14:09 2019
 By www-data
Digitized by Dan X. Solo. Software (c)2000 by Dover Publications, Inc., New York.
</metadata>
<defs>
<font id="LayoutGothic" horiz-adv-x="20" >
  <font-face 
    font-family="Layout Gothic"
    font-weight="400"
    font-stretch="normal"
    units-per-em="1000"
    panose-1="0 0 4 0 0 0 0 0 0 0"
    ascent="800"
    descent="-200"
    x-height="701"
    cap-height="716"
    bbox="-32 -219 1104 857"
    underline-thickness="20"
    underline-position="-123"
    unicode-range="U+0020-F002"
  />
<missing-glyph horiz-adv-x="500" 
d="M63 0v800h375v-800h-375zM125 63h250v675h-250v-675z" />
    <glyph glyph-name=".notdef" horiz-adv-x="500" 
d="M63 0v800h375v-800h-375zM125 63h250v675h-250v-675z" />
    <glyph glyph-name="glyph1" horiz-adv-x="0" 
 />
    <glyph glyph-name="glyph2" horiz-adv-x="264" 
 />
    <glyph glyph-name="space" unicode=" " horiz-adv-x="264" 
 />
    <glyph glyph-name="exclam" unicode="!" horiz-adv-x="334" 
d="M163 206q47 0 81 -28q38 -31 38 -79q0 -47 -38 -77q-34 -27 -81 -27t-83 28.5t-36 75.5q0 48 37 79q35 28 82 28zM68 662q2 -157 5 -157t23 20q-7 14 -10 32q2 6 29 32q0 21 6 44q2 1 31.5 4t33.5 5t16 20h-134zM187 264q0 2 48 0l3 67q-10 -27 -33 -38q-18 -9 -18 -29z
M255 246l1 -26h-15l-1 25h-144l3 -28h-18l-3 28v0v1h-35v18h35l-26 395h-40v15h37l-3 45h18l3 -41h183l3 30h15l-3 -34h58v-15h-60l-10 -395h37v-18h-35z" />
    <glyph glyph-name="quotedbl" unicode="&#x22;" horiz-adv-x="690" 
d="M641 660h-38l-29 -279h26v-17h-30l-4 -41h-12l4 41h-110l5 -44h-15l-5 44h-41v17h36l-29 279h-40v17h34l-4 44l15 -3l3 -41h183l5 47h14l-5 -47h1h36v-17zM331 660h-38l-29 -279h26v-17h-30l-4 -41h-12l4 41h-110l5 -44h-15l-5 44h-41v17h36l-29 279h-40v17h34l-4 44
l15 -3l3 -41h183l5 47h14l-5 -47h1h36v-17zM549 378l-44 64q-31 -26 -29 -26q1 0 -3 39q-5 45 -14 75q-13 43 -35 52q21 -201 23.5 -201t101.5 -3zM224 663q-29 0 -59 1q-60 -2 -60 -4q0 -3 14 -134q35 44 35 50q0 3 3 39t3 39q0 5 35 -23q0 3 29 32z" />
    <glyph glyph-name="numbersign" unicode="#" horiz-adv-x="684" 
d="M654 519l-20 -104h-105l-39 -169h121l-20 -104h-127l-32 -148h-115l33 148h-108l-38 -148h-114l37 148h-97l20 104h101l39 169h-104l20 104h106l37 158h114l-37 -158h109l37 158h113l-37 -158h106zM506 606q3 3 -11 58q-38 -155 -38 -144q0 7 24 46q21 36 25 40zM416 415
h-112l-38 -169h109zM186 505q0 3 -66 0l-12 -60q24 10 49 21q29 14 29 39zM371 234l-104 -6q-14 -60 -12 -60q3 0 116 66z" />
    <glyph glyph-name="dollar" unicode="$" horiz-adv-x="597" 
d="M512 638q-7 0 -34 -41q-6 -8 -12 -15h-37q-5 0 37 -69q49 125 46 125zM204 229q-19 11 -43 25q-3 1 -14 11t-13 10q-3 0 -21 -49l3 -33q37 33 42.5 33t45.5 3zM67 142l-32 24l8 12l30 -22l50 132l-35 26l6 13l31 -25q95 -78 178 -78q68 0 68 40q0 30 -54 39l-35 6
q-90 16 -136 53q-57 46 -57 133q0 142 166 197v92h-30v15h27v19h15v-19h99v19h18v-19h45v-15h-45v-3h-3l1 -83q67 -6 136 -42l11 34l18 -6l-13 -36l25 -12l-6 -14l-25 16l-52 -135l38 -15l-4 -13l-39 15v-1l-3 3l-5 2v2q-58 47 -132 47q-54 0 -54 -40q0 -21 26 -29
q6 -2 42 -7q103 -12 152 -47q65 -47 65 -144q0 -83 -52 -140t-132 -68q0 -56 1 -89h56v-15h-56v0h-1v-29h-12v29h-96v-41h-18v41h-48v15h48v89q-86 5 -175 64l-22 -46l-14 8z" />
    <glyph glyph-name="percent" unicode="%" horiz-adv-x="775" 
d="M739 178q0 -90 -46 -141q-43 -46 -107 -46q-65 0 -107 46q-47 51 -47 141q0 91 45 139q41 45 109 45t108 -45q45 -48 45 -139zM726 214l-18 58l-37 49l-43 23q29 -52 31 -52q1 0 -2 -16q-5 -19 -5 -28q0 -12 7 -11q10 2 23 15q9 9 9 5q0 -8 35 -43zM616 178q0 50 -30 50
q-31 0 -31 -50q0 -47 31 -47q30 0 30 47zM521 102q-14 0 -32 5q-3 13 -11 32q-6 5 -26 40q0 -4 6 -47q6 -46 8.5 -48t51.5 -63q6 78 3 81zM343 500q0 -90 -47 -141q-42 -45 -106 -45q-65 0 -107 45q-47 51 -47 141q0 91 45 140q41 44 109 44q67 0 108 -44q45 -49 45 -140z
M244 416q3 3 0 75q-12 40 -14 40t1 -18.5t2 -18.5q-3 0 -9 -38q-17 -22 -32 -14q9 -15 9 -17q0 -3 20 14q20 -26 23 -23zM220 500q0 50 -30 50q-31 0 -31 -50q0 -47 31 -47q30 0 30 47zM123 646q-16 -2 -32.5 -21t-16.5 -30q0 -3 -7.5 -23.5t-9.5 -20.5t-5 -30t-1 -30
q1 0 11.5 16t12 16t1.5 18.5t1.5 18.5t13.5 15.5t13.5 17t18.5 53.5zM566 661h-55l21 -46q-30 -70 -30 -84q0 -3 2 -3q11 3 62 133zM198 9h58q-15 15 -20 15q-4 0 9.5 31.5l13.5 31.5q0 3 -61 -78zM268 -2l-21 -41h-17l21 41h-59l-17 -26h-14l17 26h-35v11h41l312 652h-33
v14h40l15 32h14l-14 -32h53l13 26h15l-13 -26h19v-14h-22l-309 -652h28v-11h-34z" />
    <glyph glyph-name="ampersand" unicode="&#x26;" horiz-adv-x="702" 
d="M663 294h-34v-363h32v-13h-32v-32h-11v32h-178v-30h-13v30h-30v13h30v11h2v66q-58 -17 -101 -17q-114 0 -192 45q-97 57 -97 168q0 55 28 97t78 55v5q-37 16 -58 52t-21 78q0 95 91 149q75 43 172 43q171 0 238 -99l23 18l9 -13l-25 -17l1 -2l-1 -1l1 1l22 -41l-13 -9
l-20 42q-41 -28 -120 -88l21 -31l-13 -11l-18 30l-33 -24l-9 13l33 24q-20 32 -44 40q-13 5 -51 5q-19 0 -33 -18.5t-14 -39.5q0 -26 13 -43q15 -23 44 -20l7 1v19h11v-18v0v-3h34v-13h-34v-67h17v-11h-17v-23h-11v22q-7 -1 -20 -2q-67 -1 -67 -76q0 -24 23.5 -45.5
t47.5 -21.5q62 0 81 40q12 25 11 91h-3v47h11v-33h185v27h11v-26h36v-13zM556 572q-3 21 -5 21l-8.5 -3.5t-8.5 -2.5q0 2 -15 30l2 -47l-32 -39l4 -6zM620 167l-2 132h-112q16 0 28 -26q41 2 43 0t11 -15q-15 -29 -15 -35q0 -4 39 -23q2 -2 0.5 -15t-0.5 -13q2 0 8 -5z
M218 36q-2 10 -17 28q-53 35 -54 34q-3 -1 -14 -1q-10 0 -12.5 2.5t-11.5 18.5q-11 21 -11 31q0 3 1.5 5.5t1.5 3.5q0 5 -19 -1l-28 53l-4 -43l17 -45l13 -26q2 -2 37 -32l41 -24q-1 8 -2 17q2 -2 62 -21z" />
    <glyph glyph-name="quotesingle" unicode="'" horiz-adv-x="380" 
d="M260 364l-4 -41h-12l4 41h-110l5 -44h-15l-5 44h-41v17h36l-29 279h-40v17h34l-4 44l15 -3l3 -41h183l5 47h14l-5 -47h1h36v-17h-38l-29 -279h26v-17h-30zM109 655q8 -156 11 -156q2 0 7.5 20.5t7.5 20.5t5 23q2 24 0 26q-2 3 15 17q26 15 26 20v32z" />
    <glyph glyph-name="parenleft" unicode="(" horiz-adv-x="368" 
d="M166 754l154 -94q-40 -64 -61 -169q-19 -90 -19 -181q0 -222 80 -351l-154 -93l-37 80q-81 177 -81 364t81 364zM175 729q-20 -41 -20 -44t-27 -64q-30 -81 -27.5 -81t-6 -33.5t-6.5 -33.5q3 0 34 13q-6 22 -6 35t6 13q12 0 43 64q4 60 7 60t78 27z" />
    <glyph glyph-name="parenright" unicode=")" horiz-adv-x="356" 
d="M42 660l154 94l37 -80q81 -177 81 -364t-81 -364l-37 -80l-154 93q80 129 80 351q0 91 -19 181q-22 105 -61 169zM192 726l-81 -41q35 -54 54 -54q12 0 21 30q6 21 6 27q0 -3 26 -26zM195 -106q34 97 40.5 97t36.5 115q-30 -14 -30 -16.5t-10 -29t-10 -28t-25.5 -11
t-25.5 -13.5q0 -30 7 -50q3 -10 -44 -37z" />
    <glyph glyph-name="asterisk" unicode="*" horiz-adv-x="393" 
d="M237 410h-85l5 87l-66 -49l-43 72l83 46l-83 37l43 76l66 -53l-5 98h85l-2 -95l67 50l42 -76l-69 -37l69 -38l-42 -80l-70 54q0 -30 2.5 -53.5t2.5 -38.5z" />
    <glyph glyph-name="plus" unicode="+" horiz-adv-x="597" 
d="M81 399v-3h-2q-3 -17 2 -116l16 -17l-3 46l26 55l26 23q0 -3 20 -9q23 18 23 21q0 1 -108 0zM551 413h40v-14h-40v-139h29v-14h-29v-58h-15v58h-20v0h-126v-153h37v-14h-37v-1h-1v-48h-17v48h-127v-48h-8v48h-7v1h-42v14h42v153h-146v0h-6v-46h-17v46h-38l-6 14h44v136
h-55v14h55v40h17v-36h152v152h-37v17h38v49h14v-49h127v43h17v-43h41v-17h-40v-152h146v34h15v-35z" />
    <glyph glyph-name="comma" unicode="," horiz-adv-x="305" 
d="M129 -136h-161l97 313h207z" />
    <glyph glyph-name="hyphen" unicode="-" horiz-adv-x="397" 
d="M45 203v184h306v-184h-306zM178 220h156q2 0 0 121q-29 -61 -29 -64t-3.5 -23t-5.5 -20l-16 5t-24 5q-4 0 -6 -1q-8 -5 -72 -23z" />
    <glyph glyph-name="hyphen" unicode="&#x2010;" horiz-adv-x="397" 
d="M45 203v184h306v-184h-306zM178 220h156q2 0 0 121q-29 -61 -29 -64t-3.5 -23t-5.5 -20l-16 5t-24 5q-4 0 -6 -1q-8 -5 -72 -23z" />
    <glyph glyph-name="period" unicode="." horiz-adv-x="314" 
d="M157 219q47 0 81 -28q38 -31 38 -79q0 -47 -38 -77q-34 -27 -81 -27t-83 28.5t-36 75.5q0 48 37 79q35 28 82 28z" />
    <glyph glyph-name="slash" unicode="/" horiz-adv-x="574" 
d="M130 -73h-120l436 807h118zM454 718q-3 0 -91 -167q15 0 15 3.5t9.5 18t16.5 16.5q34 11 34 19q0 29 10 41q6 15 22 41q8 8 63 28h-79zM73 -56q45 -3 47 0q2 1 20 34q18 30 18 29q0 -3 -85 -63z" />
    <glyph glyph-name="zero" unicode="0" horiz-adv-x="686" 
d="M648 343q0 -156 -78 -252q-83 -101 -227 -101t-227 101q-79 96 -79 252q0 148 81 242q84 99 225 99t225 -99q80 -94 80 -242zM426 337q0 138 -83 138t-83 -138q0 -52 17 -93q22 -55 66 -55q43 0 66 55q17 41 17 93zM468 195q0 46 -12 58q-3 3 -3 9q0 5 4 19t4 20
q0 8 -4 12t-19 25l-3 -42q0 -35 -3.5 -37t-9.5 -21l-6 -19q-11 -15 -31 -30q-7 -5 -15 -10q14 -15 28 -15q9 0 26.5 27t22.5 27q2 -1 2 -3q0 -5 -6 -23.5t-5 -18.5q2 0 16 10t14 12zM126 314q0 49 -6 61q-5 5 -13 25q-9 45 -9 70q0 6 -6 18t-9 12t-15 -58q-9 -49 -9 -52v-64
q-3 -43 0 -46q1 -1 4 -17t5 -16t5.5 12t3.5 15q0 -6 6 31q3 18 14 18q4 0 4 -6v-24q0 -17 4 -17q3 0 6 4q15 21 15 34z" />
    <glyph glyph-name="one" unicode="1" horiz-adv-x="586" 
d="M515 656h-63v-644h46v-14h-46v0v0v-52l-12 -1v52l-202 1v-58h-17v58h-43v14h43l1 451l-84 1v-45h-15v45h-45v15h45v179h-52v14h52v49h15v-49h296v40l18 1v-40h63v-17zM218 483l-80 55v-55h80zM255 366l22 33l-37 65v-213l34 56zM444 165l-19 -25l-3 -46h-37l6 -37
l-27 -19l-41 -25h118z" />
    <glyph glyph-name="two" unicode="2" horiz-adv-x="728" 
d="M712 186h-38v-173l28 -1v-11h-28v-32h-10v32l-579 1v-3h-24l-25 -26h-13l28 26h-32l-3 8h43l258 215q38 32 81 95q50 74 50 114q0 24 -35 42q-38 20 -92 17q-44 -2 -112 -26q-75 -26 -107 -56v-60h-9v49l-2 -3v2l-36 -25v13l36 26v212h-3v1l-33 -10v11l33 12v41h15v-36
q115 40 232 41q120 1 219 -50q120 -62 120 -168q0 -87 -54 -158q-11 -15 -105 -108h149v30h10v-30h38v-12zM323 669l-55 -3q-3 0 -31.5 -4.5t-30 -4.5t-60.5 -15l-40 -17v-87q5 4 14 12q21 20 21 29l7 14.5t7 20t24.5 11t24.5 7.5t55 5q50 17 52.5 17t11.5 15zM364 13
q-168 15 -166 19t-1 15.5t-1 11.5q1 0 13 26q14 31 15 31q-10 -10 -130 -103h270z" />
    <glyph glyph-name="three" unicode="3" horiz-adv-x="637" 
d="M79 496h-50v9h50l2 159h-49v11h48v41h9v-41h474v39h6v-39h2h-1h38v-8h-43q-72 -101 -117 -155q-31 -39 -53 -73q88 -7 145.5 -64t57.5 -143q0 -113 -112 -183q-96 -59 -214 -59t-194 40l-30 199q38 -22 90 -39q58 -19 95 -19q43 0 81 13q52 19 52 54t-54 54
q-39 14 -81 14h-11h-9q-9 0 -119 -11l147 199l-148 -1v-39h-10v39h-2v3zM510 661h-141l40 -20q15 -24 15 -26q0 -3 86 46zM210 664q0 3 -116 0l-1 -106l31 57q24 -22 32 -22q4 0 8 20q3 20 0 25t21.5 15.5zM418 237l-29 26v38q-19 7 -30.5 16t-17.5 9t-21 -5q-3 -1 -46 -9
l63 -14q29 -18 31.5 -18t8.5 -18.5t6 -21.5t-14 -46l20 3z" />
    <glyph glyph-name="four" unicode="4" horiz-adv-x="716" 
d="M698 131h-44v-41h-9v41h-2v5h-73v-127h28v-10h-30v-30h-12v30h-170v-28h-11v28h-30v10h30v7h1l-2 120l-303 -1v-2h-13v-28h-9v28h-29v11h29v62q1 49 1 87l-31 -34v15l30 33v47h7v-38q1 1 2 1q5 8 52 76q93 136 187 272h-52v10h58l12 28h11l-12 -28h252v29h9v-29h45v-10
h-44v-357h67v52h10v-50h43l2 -10h-41v-158h41v-11zM566 603v61h-30q12 -7 18 -27q9 -29 12 -34zM413 667h-100q-47 -68 -45 -68q-1 0 5.5 -4t14.5 -4q7 0 15 3q17 6 17 8v12q2 10 11.5 22t11.5 12q1 0 7 -2.5t8 -2.5q6 0 12 11q3 3 9 8q1 1 14.5 -3.5l13.5 -4.5q2 0 6 13z
M375 305v185l-121 -185h121zM560 120l-15 -39q4 -25 4 -29l-19 -19q-14 -13 -37 -13t-37 21q0 -4 -66 -30h168zM145 143q-2 0 -31 16t-29 17.5t-6 19.5l-6 18q0 2 13 17l-28 38l2 -126h85z" />
    <glyph glyph-name="five" unicode="5" horiz-adv-x="591" 
d="M555 232q0 -113 -115 -183q-98 -60 -217 -60q-113 0 -187 38v193q86 -49 154 -49q43 0 81 13q52 19 52 54q0 50 -126 80q-14 4 -50 4q-45 0 -110 -6l1 359h459v-181h-244q3 -51 0 -53q50 3 96 0q88 -7 147 -65t59 -144zM470 509l-111 19q-14 24 -14 26q0 3 -87 -46z
M176 662q0 3 -120 0l-2 -108l35 62q25 -22 32 -22q5 0 8.5 20t0 25t21.5 14zM375 237l-18 23l-11 41q-9 3 -40 10q-8 2 -22 19q-1 2 -47 -12l57 -20q29 -23 31 -23t7 -17.5t5 -20.5t-8 -40l5 -27z" />
    <glyph glyph-name="six" unicode="6" horiz-adv-x="692" 
d="M654 661h-71l-193 -178q29 5 65 5q82 0 138 -70q53 -67 53 -155q0 -127 -92 -203q-84 -70 -209 -70q-126 0 -213 74q-93 80 -93 210q0 127 108 244l133 143h-47v11h54l35 41h18l-36 -41h274l24 29h12l-24 -29h64v-11zM569 663h-245q47 -44 52 -44t32 12t27 14q0 3 5.5 -5
t6 -10.5t3.5 -2.5q9 0 40 10q21 -3 24 -3q2 0 -15 -38zM426 301l3 -58q-18 -44 -18 -47t-29 -26l-32 -6q21 -12 24 -12q2 0 58 3q-12 6 -12 9q0 36 4.5 38.5t24.5 22.5q5 4 7 22q2 17 -0.5 22t-29.5 32zM421 261q0 36 -23.5 61.5t-57.5 25.5q-32 0 -55 -25t-23 -59
q0 -35 22.5 -59t56.5 -24q33 0 56.5 22.5t23.5 57.5z" />
    <glyph glyph-name="seven" unicode="7" horiz-adv-x="672" 
d="M90 660v-191q40 3 40 5t4 34l-19 32q-24 29 -20 29q3 0 30.5 18.5t28.5 18.5q2 0 -15 32q30 20 30 22t-79 0zM159 109l-64 -93l64 -3h154l-41 18q-23 29 -25 29q-20 0 -39 -10q-15 -7 -22 -7h-15q-2 0 -12 66zM602 517l30 43l7 -18l-37 -49v-85h-17v49l-244 -445h46v-11
h-36q-12 -1 -17 -1h-2v-51h-11v51l-236 1l1 -42h-12v42h-42v11h52q82 151 252 444h-246v-45h-15v45h-47v15h47v193h-52v11h52v46h15v-46q63 0 243 1q198 1 252 1v49h17v-49h47v-17h-47v-143zM519 660q0 -1 36 1t36 0v-69q-1 -68 -1 -67q0 15 -8.5 28t-22.5 13q-7 0 -16 -4
q1 1 10 24t10 23q0 32 -44 51z" />
    <glyph glyph-name="eight" unicode="8" horiz-adv-x="661" 
d="M331 686q102 0 178 -46q93 -56 93 -157q0 -46 -26 -81t-69 -49v-6q51 -13 83 -54t32 -96q0 -107 -102 -161q-80 -42 -189 -42q-110 0 -190 42q-102 54 -102 161q0 55 32 96t83 54v6q-43 14 -69 49t-26 81q0 101 93 157q76 46 179 46zM331 517q-21 0 -34.5 -15t-13.5 -37
q0 -21 14.5 -35t33.5 -14q18 0 32.5 14t14.5 35q0 22 -13.5 37t-33.5 15zM331 287q-25 0 -44 -18.5t-19 -45.5q0 -28 18 -48t45 -20q26 0 44 20t18 48q0 27 -19 45.5t-43 18.5zM77 502q-5 -12 -5 -25q0 -16 17 -50l31 -37l47 -26q4 88 1 88q-1 0 -1 -2q-5 -10 -15 -20.5
t-14 -10.5q-22 0 -40 36q-11 24 -21 47zM141 50q0 -2 47 -18q44 -14 55.5 -17t58.5 -6l63 3q3 0 75 15l-66 5l-29 21l-26 -23l-43 43q-32 -23 -32 -26t-31 -3q-72 8 -72 6z" />
    <glyph glyph-name="nine" unicode="9" horiz-adv-x="694" 
d="M431 409q0 35 -22.5 58.5t-56.5 23.5q-33 0 -56.5 -22t-23.5 -57q0 -36 24 -61.5t58 -25.5q32 0 54.5 25t22.5 59zM91 -28h-11l23 28h-64v12h72l192 178q-29 -5 -65 -5q-82 0 -138 70q-52 66 -52 154q0 127 91 204q85 70 209 70q126 0 213 -74q94 -80 94 -210
q0 -128 -109 -244l-133 -143h47v-12h-54l-35 -40h-17l35 40h-274zM134 11q3 3 242 0l-45 21q-40 6 -40 0q0 -5 -33 43q-48 -16 -48 -18.5t-22 -24.5q-2 -2 -29 -12q-13 -5 -25 -9zM373 508q49 -28 49 -30.5t5 -15.5t6.5 -14.5t3 -13t4 -11.5t2.5 -33l30 21l-6 21q11 8 24 21
q3 6 0 27q-14 12 -21 12q-5 0 -6 -5q-4 -18 -7 -18q-1 0 -2 1.5t-14 12t-13 19.5t-14 14t-14 1q0 -3 -27 -9z" />
    <glyph glyph-name="colon" unicode=":" horiz-adv-x="363" 
d="M182 243q47 0 81 -28q38 -31 38 -78q0 -48 -38 -77q-34 -28 -81 -28t-83 28.5t-36 76.5q0 47 37 78q35 28 82 28zM182 499q47 0 81 -29q38 -30 38 -78q0 -47 -38 -77q-34 -27 -81 -27t-83 28.5t-36 75.5q0 48 36 77.5t83 29.5z" />
    <glyph glyph-name="semicolon" unicode=";" horiz-adv-x="364" 
d="M180 -109h-161l97 313h207zM226 486q46 0 82.5 -29t36.5 -77t-38 -77q-34 -28 -81 -28t-82 28q-38 29 -38 77t38 78q35 28 82 28z" />
    <glyph glyph-name="less" unicode="&#x3c;" horiz-adv-x="485" 
d="M42 207v184l400 163v-178l-205 -76v-2l205 -76v-178zM298 119q121 -55 123 -55q1 1 1 5q3 23 5 122q-12 -42 -22 -56q-17 -23 -52 -23q-21 0 -55 7zM228 312l101 40q-34 8 -46 8q-5 0 -5.5 -3t-23.5 -24t-26 -21z" />
    <glyph glyph-name="equal" unicode="=" horiz-adv-x="561" 
d="M526 333h-490v148h490v-148zM526 91h-490v148h490v-148zM507 468q0 1 -30 0h-27q2 2 54 -58zM207 350q-31 8 -72 23q-2 1 -6 1q-8 0 -24 -5l-16 -5q-2 0 -5 21q-3 18 -3 21.5t-29 64.5q-3 -121 0 -121h155zM510 105v86l-37 -63l-390 -26z" />
    <glyph glyph-name="greater" unicode="&#x3e;" horiz-adv-x="463" 
d="M432 207v184l-400 163v-178l205 -76v-2l-205 -76v-178zM53 422q-1 51 0 106q1 3 50 -20q75 -36 79 -37q-15 -7 -39 -32q-20 -22 -32 -22q-16 0 -35 31q-4 5 -7 5q-9 0 -16 -31z" />
    <glyph glyph-name="question" unicode="?" horiz-adv-x="554" 
d="M282 195q47 0 81 -28q38 -31 38 -79q0 -47 -38 -77q-34 -27 -81 -27t-82 27q-38 30 -38 77q0 48 38 79q35 28 82 28zM367 256v-30h-159v178q8 -2 21 -1q17 3 20 3q30 0 50.5 17.5t20.5 48.5q0 42 -38 42q-19 0 -30 -16t-12 -38h-206q3 101 75 166q69 62 167 62
q105 0 172 -59q71 -63 71 -170q0 -158 -152 -203zM220 341l3 -101h86q-29 12 -31.5 12t-26.5 2q15 23 18 23q2 0 -26 18zM275 528q12 -3 31 -8q4 -2 11 -10t7 -10t5.5 -13.5t5.5 -12.5q0 -2 -4.5 -18t-4.5 -17q27 29 29 29q1 0 -3.5 9.5t-4.5 15.5q0 4 6 6.5t6 15.5
q0 15 -7 39l-23 -20l-29 9zM70 546l-12 -41l-5 -34h60q-32 26 -32 28.5t-11 46.5z" />
    <glyph glyph-name="at" unicode="@" horiz-adv-x="10" 
 />
    <glyph glyph-name="A" unicode="A" horiz-adv-x="828" 
d="M845 -82h-27v-2h-2l10 -40h-12l-10 40h-226l6 -40h-18l-6 40h-1l-1 2h-43v15h39l-31 149h-162l-15 -65h36v-16h-39v-1h-1l-11 -38h-19l11 38h-222l-19 -56l-18 -3l19 60h-43v16h48l215 643h-42v16h46l11 36h19l-12 -36h231l-14 39h16l14 -39h34v-16h-28l235 -727h32v-15z
M577 619l-19 44h-233q-13 -22 -13 -25q0 -27 16 -27q12 0 29 17q7 5 15 9q18 11 20 14q2 1 9 -34t7 -33t18 6t20 14.5t16 23.5q11 13 29 29q3 2 4 -22q1 -27 2 -29q3 -6 42 -6q0 3 -4 -39q35 26 35 29t7 29zM482 249q-15 63 -40 191l-39 -191h79zM107 13l106 1q20 19 23 19
q1 0 9 -9.5t10 -9.5h25q6 0 45 -1q-8 -4 -8 12q0 7 2 17q2 15 -6 15q-5 0 -10 -5q-2 -2 -25 12t-26 14q-24 0 -32 -13q-6 -9 -29 -32q-19 13 -19 16q0 30 -10 25q-19 -9 -19 -19q0 -6 -36 -42zM643 -71q149 -2 149 1t-40 132q-61 28 -64 22q-1 -3 0.5 -17.5t-0.5 -17.5
q-2 -4 -9.5 -45.5t-7.5 -44.5t-28 -30z" />
    <glyph glyph-name="B" unicode="B" horiz-adv-x="615" 
d="M260 421h21q35 0 50 6q24 10 24 41q0 51 -75 49l-20 -1v-95zM260 286v-126l26 -1q48 -2 67 11t19 53q0 69 -82 65zM64 665v-219l19 14q5 25 12 55q2 4 -2.5 33.5t-3.5 29.5q2 0 11 25q8 22 8 18q0 -19 12 -31q1 -1 -1 -8q-3 -10 -3 -13q0 -7 7 -6q21 4 21 36q0 6 8 6
q7 0 24 -5l13 -4q0 3 21.5 23t23.5 20t18 12t21 14q-23 -2 -209 0zM359 14q18 0 39 3q49 7 49 9t-7.5 9.5t-7.5 9.5q-19 0 -40 -6q-1 -2 -33 6q-11 2 -24 18h-52q-28 34 -37 34q-1 0 -2 -1.5t-16 -10.5q-10 -7 -8.5 -16t-11.5 -30q-11 -17 -18 -24q-1 -1 169 -1zM515 51
q27 21 48 52v0l-1 -1q-31 9 -34 6q-3 -4 -9 -4q-3 0 -7.5 1t-6.5 1q-16 0 -16 -43q0 -4 12 -9t14 -3zM64 2v-45h-12l1 44h-50v10h50v654l-39 1v9h37v41h12l1 -39h10q-14 1 241 0q253 -2 249 -184q-2 -47 -22 -82q-23 -40 -63 -53v-5q52 -19 82.5 -64t30.5 -104
q0 -94 -74 -143q-62 -40 -158 -40h-296z" />
    <glyph glyph-name="C" unicode="C" horiz-adv-x="599" 
d="M575 24l-39 -9v-24h-11v22q-59 -22 -153 -22q-139 0 -240.5 99t-101.5 238q0 142 105 250.5t247 108.5q72 0 143 -23v38h11v-42v-1l35 -13v-9l-36 13l1 -209l24 -18v-15l-24 19v-37l-9 3v45q-60 36 -125 36q-58 0 -99 -41t-41 -99t40.5 -97t98.5 -39q87 0 128 40v52h9
v-45l24 16v-13l-25 -16l-1 -204l39 9v-13zM526 451v98q-3 2 -8 3q-5 0 -17 -16.5t-30 -16.5q-3 0 -40 18v0q-11 -10 -34 -24q-8 -2 -15 -6q7 -3 7 -4q0 -8 -15 -8q-12 0 -18 10t-8 10q-3 0 -11 -9t-8 -13q0 -5 1 -14.5t1 -14.5q33 19 82 19q59 0 113 -32zM526 26v92v1
q-4 0 -21 -27q0 -28 -8 -28q-3 3 -6 3q-13 0 -20.5 -9t-8.5 -9q-4 0 -11.5 19t-14.5 19q-3 0 -11 -3.5t-11 -4.5q-10 -2 -19 -20.5t-13 -18.5q-3 0 -13.5 6.5t-18.5 6.5q-15 0 -23 -9q-12 18 -20 18q-1 0 -5.5 -3.5t-7.5 -3.5l-3 -3q0 -8 47 -45q7 -1 18.5 -4t18.5 -3
t23.5 1.5t19.5 1.5q9 1 48 6q20 6 60 17z" />
    <glyph glyph-name="D" unicode="D" horiz-adv-x="685" 
d="M663 333q0 -147 -89.5 -240t-229.5 -93h-136h-144v-38h-12v38h-42v11h43v648h-1v2h-42v14h42l1 43h14v-43l220 1q171 0 268 -80q108 -88 108 -263zM446 407q-17 27 -34 69q-7 -8 -13 -8q-7 0 -15 10.5t-11 10.5q-1 0 -4 -2q-5 -3 -34 28q-28 1 -44 -24q-5 -5 -9 -15
q2 -2 6 -2h44q29 -5 58 -20q38 -21 38 -47h18zM432 334q0 133 -135 133h-14v-267h14q60 0 97.5 35.5t37.5 98.5zM608 151q-4 1 -15.5 4t-17.5 3q-12 0 -17 -15.5t-9 -30.5q-27 -31 -35 -31q-11 0 -27 16l-2 -3q0 -16 -4 -20l-14 -14l-4 -16l2 -14q55 34 79 56q32 33 64 65z
M295 11q-19 9 -22.5 14.5t-5.5 24.5q-1 15 -23 29l-3 1q-7 0 -12 -4t-8 -4q-5 0 -21 7q-11 4 -19.5 8.5t-14.5 17.5q-4 9 -17 25.5t-20 16.5q-5 0 -13.5 -9t-15.5 -9q-8 0 -8 13q0 10 -6 25.5t-13 15.5q-8 -5 -8 -10q-1 -14 -1 -18v-27q0 -88 1 -117l25 15q30 38 35 38
q1 -1 1 -2q0 -8 -18 -47q2 -5 10 -5q3 0 10 1.5t11 1.5q3 0 9 -1.5t9 -1.5q1 0 9 16q18 -15 47 -15h82z" />
    <glyph glyph-name="E" unicode="E" horiz-adv-x="537" 
d="M516 0h-27v-2h-1v-16h-12v16h-408v-22h-12v24h-35v12h35v651h-35v12h36v27h12v-28l403 1v29h12v-31h23v-12h-23v-11h-2v-174h-12v17h-182v-69h165v23h11v-22h32v-12h-31v-152h31v-12h-32v-19h-11v21h-165v-71h188v30h12v-30h1v0h27v-12h-27v-156h27v-12zM465 509v80
l-12 -27q-2 -6 -14.5 -16t-17.5 -10h-36q-3 0 -36 -27q116 -3 116 0zM361 663l-292 1q1 -46 0 -126q22 27 22 29.5t15 38t15 36.5q0 2 8 -3t9 -5t11.5 -14.5t15.5 -12.5q5 1 24 12.5t22.5 11.5t18.5 4q19 5 24 10q9 9 30 0q10 -3 29 -1q15 1 21 4t27 15zM404 263
q0 -1 -44 13q-6 2 -13 3q-10 4 -12.5 11t-9.5 7q-4 0 -11 -2l-7 -2q-4 0 -22 -30q119 -2 119 0zM287 13q-15 8 -32 17q-2 2 -24 -4q-54 -3 -54 9q-58 22 -49 60q-6 -1 -11 -2q-13 -4 -15 -2q-1 0 -2 26t-9 30q-17 8 -17 15v-147z" />
    <glyph glyph-name="F" unicode="F" horiz-adv-x="549" 
d="M532 481h-39v-22h-17v22h-19v1h-157v-72h137v4h19v20h17v-20h29v-17h-29v-28h-3v-114h42v-17h-42l-1 -3l-1 -35h-16l1 35h-153v-220h52v-17h-52v-49h-17v51q-11 1 -200 0v-41h-17v42h-49v13h49v646h-49v15h49v29h13v-29h400l1 29h13v-29h39v-15h-38v-162h38v-17zM415 496
q-5 4 -28.5 12.5t-26.5 8.5q-4 0 -15.5 -4.5t-24.5 -4.5q-1 0 -3 9t-3 9v10q1 21 -5 21q-18 0 -17 -54v-7h123zM413 649v15l-331 -3l-1 -113q19 7 19 25q0 38 7 44q20 17 23 22.5t6 5.5t13.5 -6t19.5 -6q6 0 17 4.5t17 4.5q3 0 6 -6t10 -6q8 0 22.5 5t22.5 5q4 0 13 -4.5
t17 -4.5q7 0 17.5 4t13.5 4q9 0 20 -5q19 2 39 5q29 4 29 10zM375 397l-76 4v-46q0 4 14 15.5t19 11.5q4 0 7.5 -3t5.5 -3t30 21zM283 13v136q-3 17 -4 17l-7 -41q-9 -49 -28 -78q-2 -3 -4 -5v0q0 5 -6 22.5t-8 17.5h-1q-9 -11 -14 -11q3 0 -5 0q-4 0 -12 -17q-6 -8 -15 -21
q0 -1 -20.5 -10.5t-19.5 -9.5h144z" />
    <glyph glyph-name="G" unicode="G" horiz-adv-x="772" 
d="M777 381h-47q-2 -95 -12 -142q-16 -72 -65 -127.5t-121 -86.5t-147 -31q-150 0 -248 89q-102 94 -102 250q0 159 101 255q97 92 250 92q192 0 278 -116l3 2l2 -4l45 30l8 -15l-44 -31l21 -36l-17 -8l-22 35l-163 -85l24 -20l-15 -7l-25 21q-36 31 -86 31q-59 0 -95 -47
q-33 -43 -33 -107q0 -58 32.5 -100t86.5 -42q30 0 57.5 15t35.5 43h-88v-34h-18v35h-40v20h40v121h-46v18h46v28h18v-28h320v40h17v-40h49v-18zM650 546q-3 0 -66 -21q-32 14 -45 14q-7 0 -7 -5q0 -13 8 -35l-52 -37zM552 240h-52q-35 -46 -35 -49t32 0q40 20 40 22t8 14.5
t7 12.5zM356 482q-22 -3 -38 0q-11 2 -13 0q-2 -1 -1 -3q-15 -10 -35 -23q-3 -2 -2 -13q2 -17 2 -13q0 -2 -17 -26q-17 -29 -17 -31q0 -3 8 -35q-5 -10 -14 -23q-2 -2 0 -16q3 -17 3 -16t3.5 -21.5t2 -24.5t12 -6.5t16.5 -4.5t21 -6l-23 52l-9 63l17 61l26 49zM376 9
q-49 18 -51.5 18t-8 9.5t-7.5 11.5t-48 33q40 -60 40 -62.5t37.5 -7t37.5 -2.5zM232 35q-38 38 -38 41.5t-3.5 20.5t-7.5 19t-19.5 25.5t-15.5 26.5q0 2 7.5 -19.5t7.5 -23t1.5 -21t1.5 -24t28 -22.5z" />
    <glyph glyph-name="H" unicode="H" horiz-adv-x="716" 
d="M698 751h-56v-733h45v-20h-45v0v0v-49h-18v49h-185v-43h-18v43h-43v20h43v229h-138v-322h52v-17h-52v-46h-17v46h-187v-46h-18v46h-43v17h43v736h-32v14h32v32h18v-31h187v40h17v-41h29v-14h-29v-207h138v297h-43v14h43v38h18v-37h185v45h18v-45v0v-1h56v-14zM463 465v49
q0 4 -13.5 68t-13.5 65v-209h-77q28 -16 30.5 -16t15 -13t13 -16t3.5 -3q14 0 36 11q6 3 6 64zM199 661h-122q-3 0 0 -122l21 43q6 12 31 12q3 0 24 55l22 -55q22 67 24 67zM629 128q-28 -89 -32.5 -89t-14.5 -6t-11 -6q-2 0 -5 18t-5 18q-1 0 -13.5 -20t-13.5 -20
q-13 0 -22 10q-2 2 -4 2q-8 0 -17 -21l132 3zM163 -76q-13 9 -31 25q-1 1 -1 4q0 9 13 30q-28 -16 -34 -16q-5 0 0 127l4 43q-37 -40 -37 -43v-170h86z" />
    <glyph glyph-name="I" unicode="I" horiz-adv-x="373" 
d="M345 15l-6 -14h-37v-35l-18 -3v38h-199v-41h-14v41h-40l-3 14h42v646h-34v14h35v38h14v-38h199v41h18v-41h34v-14h-34v-646h43zM284 661h-27q15 -52 15 -49t12 49zM166 661h-82v-97l18 42q-8 39 -3 33q21 -21 28 -21q-2 5 -2 9q0 34 41 34zM287 65q-6 -17 -15 -37
q-3 -3 -9 18l-12 -18q-4 34 -6 34q-3 0 -16 -49h55zM139 13q-26 4 -39 19q-3 3 -19 30q-3 -49 0 -49h58z" />
    <glyph glyph-name="J" unicode="J" horiz-adv-x="493" 
d="M484 660h-41q0 -46 1 -113.5t1 -322.5q0 -100 -62 -167t-156 -67q-91 0 -175 62l-23 -43l-17 9l26 49l-29 18l8 15l28 -18l62 143l-37 23l6 15l36 -22l16 42l15 -11l-15 -41q5 -7 21 -15.5t26 -8.5q44 0 44 73l-2 380h-45v14h45v2h2v42h11v-42h196v48h17v-50h41v-14z
M443 660v14h-1v-14h1zM422 660h-193q-3 0 0 -117q21 87 29 79q8 -15 24 -35q5 -4 11 20t7 24t7.5 8t6.5 6q0 -3 8 -23.5t12 -20.5q6 0 18 35q70 27 70 24zM219 660v14h-2v-14h2zM252 237q0 2 -20 29v-35q0 -4 -6 -12.5t-8 -8.5t-11 -8.5t-10 -8.5q-11 -6 -23 -6
q-17 0 -38 12q10 -12 23 -29q2 -4 -0.5 -11t-5.5 -7q-4 0 23.5 -10.5t29.5 -6.5q2 5 11 43l32 -43l-2 67q0 1 2.5 17t2.5 18z" />
    <glyph glyph-name="K" unicode="K" horiz-adv-x="738" 
d="M778 -89h-49l18 -35l-16 -1l-17 35h-219l18 -40l-14 -2l-18 43h-49v14h43l-148 286q-12 24 -37 78l-10 -1l-2 -273h52v-14h-52v-46l-13 -3v48q-86 1 -191 1v-43h-15v43h-43v14h43v646h-37v15h37v49h15v-49h192v40h12v-40h29v-15h-29q2 -255 2 -275h5q2 14 31 71l103 204
h-34v15h44l23 46h13l-24 -46h220l21 44h12l-20 -44h43l-6 -14h-46l-184 -311l243 -426h54v-14zM649 664h-82q1 0 14 -25t14 -25t8.5 -5.5t7.5 -6.5q0 -2 -32 -18v-30q0 -2 -5 -14.5t-5 -13.5q0 -2 80 138zM229 666q0 2 -62 2l6 -88q0 -2 20 32q14 -62 12 -62q-1 0 11.5 58z
M145 664h-72q4 -100 2 -100t28 -40q-8 32 -8 34q0 1 6 19t6 21.5t3 23.5t3 21t32 21zM715 -76q-16 23 -34 50q1 -8 3 -16q4 -20 3 -22q-2 -4 -44 8l16 -24zM585 -78l-42 10q-38 54 -38 56q0 1 -4.5 -8t-5.5 -10q-2 -2 -40 26l34 -77zM267 204l-18 -122q-28 -28 -28 -26.5
t-2 -17.5t-2 -18q0 2 -17 13t-17 9t-16 -28l98 2z" />
    <glyph glyph-name="L" unicode="L" horiz-adv-x="533" 
d="M530 198h-52v-181h36v-17h-36v-46h-16v45h-393v-56h-17v57h-49v17h49v733h-38v14h38v30h19v-29h198v40h17v-41h63v-14h-63v-537h176v38h16v-36h52v-17zM272 676q2 0 0 76l-98 2q2 -8 8 -18q2 -1 4.5 -7.5t3.5 -6.5q10 0 18 12q2 3 11 2q10 -3 11 -2t7.5 -23.5t6.5 -28.5
t12 22zM238 10l-6 16q-26 -4 -28 -4q-1 0 -13.5 16t-12.5 14q0 -4 -14 -30q-30 22 -30 20t-16 -12q-36 60 -36 62t-16 -22v-56z" />
    <glyph glyph-name="M" unicode="M" horiz-adv-x="954" 
d="M14 -2h25l-6 -51h18l6 51h183l-6 -54h18l5 54h34v14h-27l30 361h5l15 -66l88 -295h-27v-13h31l15 -55h17l-15 55l98 1l-15 -43h17l15 43l27 1v11h-22l79 278l14 83h8l6 -81l25 -279h-44v-12h46v-1h3l11 -50h18l-12 50h187l8 -51h17l-7 52h38v12h-40l-1 5h-2l-99 644h81
v13h-81l-10 55h-14l8 -52l-12 -3v-1h-190l10 53h-18l-9 -53h-55v-15h48l-83 -335h-6l-16 88l-68 249h41v14h-41l-15 55h-17l13 -56l-204 -1l10 63h-17l-11 -63h-73v-12h74l-100 -643h-1l-1 -6h-27v-14zM149 590l12 70h95l-38 -47l-33 20l-14 -28zM334 641v18h34l32 -138
l-38 82l-22 12zM605 662h181l14 -90h-12l-28 53l-29 12l-30 -26l-55 10l16 12zM147 10l38 67l11 -45l66 173l-18 -193zM660 377l41 -60l-20 4l-9 -33zM441 14l47 31l26 50l45 43l-35 -122zM774 12l24 20l49 13l-20 18l30 97l8 -54l12 -72l-18 -24z" />
    <glyph glyph-name="N" unicode="N" horiz-adv-x="797" 
d="M288 678h-17v49h17v-49zM772 751h-63v-730h54v-20h-54v-41h-18v41h-28v0h-130v0h-29v-41h-17v41h-61l-3 17h57l-193 341h-7q12 -74 14 -216v-218h54v-14h-54v-32h-15v32h-187l-3 -52h-17v49h-61v14h63v736h-51v17h51v49h18v-49h259v-14h-48l199 -355h7q-20 116 -20 442
h-43v17h44v52h20v-52h181v52h15v-52h66v-14zM668 748q-17 2 -98 0q2 -4 15 -43q2 0 20 20q18 -4 27 -4t36 27zM691 361v373q-1 -9 -9 -34t-8 -30q0 -90 9 -147l-23 -58q5 -27 11 -54q8 -32 20 -50zM282 658h-61l21 -14q0 -1 1 -32q2 0 16.5 10.5t17 13t5.5 22.5zM175 658
h-86v-170q10 13 14 13v-2q0 -3 8 -8.5t12 -5.5v0q0 7 3 20.5t3 19.5q0 9 -3 27.5t-3 27.5q0 7 7.5 23.5t11.5 16.5t15 5t13.5 8t4.5 25zM276 -75q-12 42 -16 42q0 -1 -1 -2q-8 -11 -40 -28q-3 71 -10 169q-1 7 -4 20q0 1 -1 2q0 -1 -1 -3q-1 -5 -4 -16q-4 -16 -9.5 -81
t-5.5 -83q0 -3 -43 -20h135z" />
    <glyph glyph-name="O" unicode="O" horiz-adv-x="803" 
d="M780 335q0 -165 -109 -266q-104 -96 -262 -96q-159 0 -263 96q-109 101 -109 266q0 163 109 266q106 100 263 100q156 0 262 -100q109 -103 109 -266zM574 320q0 30 -22 60l-6 -21q0 -4 1.5 -13t1.5 -14q-5 -101 -73 -136l-40 -8q-35 -7 -35 -15q0 -15 17 -23
q13 -7 29 -7q46 0 88 67q39 61 39 110zM534 331q0 58 -34.5 98t-90.5 40q-57 0 -91.5 -40t-34.5 -98q0 -60 35 -97.5t91 -37.5q55 0 90 37.5t35 97.5zM213 617q-13 -5 -27 -10q-27 -18 -49 -42q-45 -50 -54 -91q-4 -16 -16 -48q2 1 19 15q8 7 10.5 14.5t4 9.5t9.5 18t11 16
q4 0 7.5 -7t4.5 -7q5 0 19.5 16.5t17.5 24.5q-10 6 -10 17q0 13 24.5 37t28.5 37z" />
    <glyph glyph-name="P" unicode="P" horiz-adv-x="611" 
d="M274 509v-144l43 -1q34 -1 56 17q27 20 27 58q0 36 -30 56q-26 16 -59 15zM276 8h46v-7h-46v-38h-12v37l-203 1v-44h-12v44h-40v11h40v652h-43v11h43v39h13v-39h283q117 0 186 -62q74 -66 74 -187q0 -103 -57 -163t-154 -60h-119q0 -58 1 -195zM192 664q0 -2 -130 -2
v-245q13 28 13 29v30l33 37q-33 -5 -33 -2q0 2 -2 8.5t-2 8.5q0 3 17 17q2 4 5 11q-1 10 0 22q1 1 13.5 5.5t12.5 5.5l-6 9t-5 14q1 7 6 16q0 4 4 12q3 3 16 5q30 -2 34 0q1 1 12.5 10.5t11.5 8.5zM164 10h100v130l-18 -49l-4 -35q-12 -8 -25 -16q-3 -3 -3 -17q0 -2 -50 -13
z" />
    <glyph glyph-name="Q" unicode="Q" horiz-adv-x="788" 
d="M670 131l82 -88l-133 -100l-74 87q-81 -37 -169 -37q-147 0 -243.5 96t-96.5 248q0 157 104 255q99 93 248 93q156 0 253 -92q100 -95 100 -256q0 -127 -71 -206zM422 195l-66 78l110 87q67 -83 68 -81q8 32 8 61q0 73 -50 115q-45 37 -104 34q-58 -2 -97 -44.5
t-38 -103.5q1 -54 43 -103t92 -49q18 0 34 6zM63 227q30 -70 61 -106q37 -42 97 -78q56 -33 125 -36q-7 5 -16 21q-2 7 -5 13q-10 5 -19 9q-15 7 -19 35q0 1 -31 -4.5t-31 -4.5q0 17 -20 21q-25 3 -32 17l3.5 11t3.5 19q0 19 -18 19h-38q-15 23 -15 30t-46 34zM623 -42
l87 68l-30 -15q-44 0 -44 -2q0 -9 -15 -9q-24 0 -61 26q0 -2 63 -68z" />
    <glyph glyph-name="R" unicode="R" horiz-adv-x="633" 
d="M678 -90h-26l15 -34h-8l-15 34h-230l14 -36l-9 -2l-15 38h-39l4 7h31l-124 301l-9 -1v-210h25v-7h-25v-36l-11 -2l1 38h-206v-36h-10v36h-47v7h47v14l1 639h-1v5h-40v10h40v44h10v-44h271q117 0 186 -54q79 -61 79 -181q0 -75 -28 -113t-95 -62q22 -18 24 -19
q7 -8 16 -26l142 -297v0l3 -6h29v-7zM373 428q-2 68 -81 71l-25 1v-134h21q39 0 57 9q29 14 28 53zM295 665h-243l-1 -309q11 18 11 19v99q0 9 5.5 48t5.5 43q0 33 27 49q11 7 28 7l14 -1q0 1 17.5 11.5t20.5 15.5q1 2 6 2q6 0 19 -4l13 -4h45q0 3 32 24zM257 102
q-21 -45 -49 -61l-72 -32l122 -1z" />
    <glyph glyph-name="S" unicode="S" horiz-adv-x="583" 
d="M579 604l-6 -13l-41 19l-54 -146l30 -18l-6 -12q-10 11 -16 13q-9 3 -18 5v5q-67 47 -128 47q-51 0 -51 -36q0 -22 47 -33l53 -13q169 -40 169 -192q0 -113 -87 -180q-77 -59 -190 -59t-221 49v-2l-12 7l-2 2l-20 -33h-16l25 40l-31 18v16l36 -22l70 158l-38 27v19
l40 -31v-2l6 -5q75 -62 145 -62q22 0 38 9q22 11 22 32q0 19 -18 28q-8 4 -34 9l-47 9q-71 14 -119 65q-51 54 -51 130q0 112 88 176q78 55 192 55q106 0 195 -54l13 46h15l-15 -55zM518 619q-25 13 -25 15.5t-77 24.5l-77 16q46 -47 48.5 -47t34.5 -6t34 -6t17 -11
t16.5 -11t6.5 -13t6 -11q3 2 16 49zM459 375l-46 22q-25 12 -47 12l-27.5 10t-27.5 8q0 -9 25 -33q7 -8 40 -19t38 -8.5t42 -6.5zM243 162q-34 8 -74 21q-6 6 -50 31q-37 -89 -40 -89t-2 -16q1 -15 5 -15q-6 0 25.5 26t45.5 26q4 0 45 -3t42 -3q3 0 3 22z" />
    <glyph glyph-name="T" unicode="T" horiz-adv-x="596" 
d="M593 462h-53v0h-2v-37h-14v36h-112v-446h40v-14h-40v-37h-15v37h-204v-32h-15v32h-34v14h34l2 446h-114v-60h-15v61h-43v14l40 -2v190h-46v11h46v44h13v-44h467v49h13v-49h44v-11h-44v-190h52v-12zM518 664h-458v-185q26 50 26 55v40q3 13 23 38q7 9 23 10q9 1 17 1
q20 11 46 23q18 2 44 6q8 3 26 -29q83 9 83 11.5t45 9.5t47 5q2 -1 16.5 -5.5t15.5 -5.5q2 -2 21.5 5t19.5 9.5t5 11.5zM397 18v127q-17 -58 -34 -82q-23 -31 -70 -45h104z" />
    <glyph glyph-name="U" unicode="U" horiz-adv-x="729" 
d="M698 754h-34v-6v0v-470q0 -143 -81 -216q-76 -69 -215 -69t-215 69q-81 73 -81 216v380h-2v6h-39v11h39v46h14v-46h206v36h14v-36h34v-11h-34v-363q0 -55 6 -68q11 -29 58 -31q47 -1 58 29q5 14 5 70v447h-1v6h-32v11h32v46h14v-46h206v36h14v-36h34v-11zM648 751
q0 3 -83 0q0 -62 25 -112q15 -29 52 -74zM227 661l-139 -3q-4 0 -1 -92q2 -91 1 -91q-2 0 11.5 50.5t13.5 54.5t9 18t9 23t19 16q14 5 21 5q3 0 44 6zM496 292q0 22 -9.5 42.5t-17.5 22.5q-16 6 -16 7q0 2 -3 -46t-3 -51t-6.5 -32t-9 -29t-55.5 -19q10 -12 28 -12
q75 0 71 12q-3 8 -7.5 37t-1.5 31l16 8q14 10 14 29z" />
    <glyph glyph-name="V" unicode="V" horiz-adv-x="827" 
d="M831 754h-45l-270 -742h37v-11h-41l-13 -46h-15l14 46h-166l12 -41h-15l-12 41h-49v11h45l-241 655h-46v11h42l-15 41h15l14 -41h212l-9 41h15l8 -41h46v-11h-41l83 -297q16 -58 16 -99h5q0 44 16 99l112 384h-42v14h47l10 44h15l-10 -44h211l12 41h14l-11 -41h40v-14z
M295 661h-204l170 -466l-6 91l-33 92q-73 128 -73 137q0 4 -15 67q-6 29 -13 58q2 -2 44.5 3.5t41.5 5.5q4 0 45 5t43 7zM536 113q-44 -10 -61 -32q-1 -2 -19 -40q-11 -23 -36 -32q-3 -1 38 -1q41 -1 41 1t18.5 54t18.5 50z" />
    <glyph glyph-name="W" unicode="W" horiz-adv-x="1128" 
d="M1104 665h-29l-220 -653h31v-11h-35l-9 -25h-11l10 25h-181l5 -29h-11l-4 29h-30v11h27l-71 354h-7q-2 -34 -12 -101l-62 -253h19v-11h-23l-8 -32h-11l8 32h-172l10 -30h-11l-9 30h-40v11h33l-217 651h-36v11h34l-11 35h11l10 -35h217l-5 34h10l5 -34h34v-11h-29l78 -391
h5q6 54 20 124l66 327h-29v9h31v1l4 31h11l-5 -31h158l-9 31h11l8 -32h32v-9h-30l85 -451h5q7 77 16 118l63 275h-26v7h27l8 30h11l-8 -29h223l7 29h10l-7 -30h25v-7zM1063 662h-107q1 0 12 -12.5t13 -12.5q-7 0 25 3q25 2 33 -1q2 -1 2 -6q0 -12 -15 -44
q-12 -28 -14.5 -30.5t-7.5 -71.5zM600 722h-105l-20 -71l71 21q6 16 14 34q1 1 10.5 -5t8.5 -8q11 14 21 29zM485 732v1v-1v0zM669 181q-21 17 -27 23q-26 26 -26 22t14 -83t16 -79q3 0 12 7t9 11q0 3 -8.5 15.5t-8.5 14.5q0 19 8 28q14 14 14 32q0 6 -3 9zM271 665l-185 -2
l47 -137q0 2 3.5 51t3.5 51q0 3 39 -14l37 28q0 -1 28 -3zM426 10q-108 14 -139 58l17 -55z" />
    <glyph glyph-name="X" unicode="X" horiz-adv-x="823" 
d="M807 1h-42l21 -46l-17 5l-18 41h-239l15 -38h-12l-16 38h-36v11h31l-2 6h1l-64 126q-10 19 -14 41h-6q-4 -15 -18 -47l-96 -216h43v-11h-48l-18 -41h-11l19 41h-242l-25 -44l-9 6l24 38h-41v11h45l247 436l-192 300h-5l-4 9h-37v8h32l-22 41l12 3l22 -44h242l-22 38l12 3
l22 -41h35v-8h-31l44 -90q10 -19 20 -55h5q4 20 20 55l80 177h-46v11h48l21 38l12 3l-22 -41h246l18 32l11 3l-17 -35h32v-11h-42l-235 -396l220 -344v0l1 -1v-1h48v-11zM587 754h-58l-106 -229l78 128q50 77 86 101zM365 606l-34 55h-95q72 -14 129 -55zM759 12v1v-1v0z
M216 661h-110q3 0 75 -121q-31 86 -26 86t61 35zM371 133q-90 -139 -90 -144.5t-9 -34.5l-135 -32q144 4 144 1.5t90 209.5z" />
    <glyph glyph-name="Y" unicode="Y" horiz-adv-x="787" 
d="M794 754h-42l-242 -466v-264h1v-15h35v-11h-35v-34h-12v34h-204v-34h-12v34h-39v11h39v279l-220 376h-41v8h37l-14 38l11 3l15 -41h238l-14 38l12 3l14 -41h44v-8h-40l69 -170h7q49 157 92 260h-39v12h34l15 34l11 3l-15 -37h243l17 34l12 3l-18 -37h41v-12zM736 751h-80
q18 -7 24 -16t5 -33l-15 -78zM342 592l-32 69h-66q45 -14 98 -69zM171 592q0 1 -20.5 25t-22.5 27q-2 5 38 14h-81l84 -141l-3 49q0 3 2.5 14t2.5 12zM417 9l-90 35q-26 40 -26 37v-66z" />
    <glyph glyph-name="Z" unicode="Z" horiz-adv-x="747" 
d="M766 664h-51l-268 -456h234v42h11v-38h44v-8h-43v-192h43v-8h-43v-3h-1v-34h-11v34h-596l-18 -38l-15 3l20 35h-2v1h-33v8h38l270 461l-211 1v-35h-11v34h-35v8h35q0 29 -1 62v117l1 -1v7h-51v11h51v35h11v-35h573l18 35h11l-15 -38h45v-8zM478 664l-335 -3q-8 0 -6 -76
l3 -77q6 17 13 35q15 40 16.5 46.5t44 25t46.5 22.5q15 15 36 15q2 0 59 -12l72 6q6 0 51 18zM682 95v101q-3 3 -240 3q66 -21 69 -21q7 0 27 -29q7 -10 20 -10q10 0 19 4q13 4 33 15q3 3 22.5 2t22.5 1l2 -16q-2 -27 -2 -20q0 -2 13.5 -15.5t13.5 -14.5z" />
    <glyph glyph-name="bracketleft" unicode="[" horiz-adv-x="294" 
d="M65 1v-41h-14v41h-40l-3 14h42v646h-34v14h35v38h14v-38q67 0 95 1t82 1v-39l-89 1l-1 -601h93v-38h-86q-21 1 -94 1zM146 661h-82v-97l18 42q-8 39 -3 33l30 -30q-1 5 -1 11q0 16 10.5 28.5t27.5 12.5zM119 13q-26 4 -39 19q-3 3 -19 30q-3 -49 0 -49h58z" />
    <glyph glyph-name="backslash" unicode="\" horiz-adv-x="27" 
 />
    <glyph glyph-name="bracketright" unicode="]" horiz-adv-x="294" 
d="M198 672v41h14v-41h40l3 -14h-42v-646h34v-14h-35v-38h-14v38q-67 0 -95 -1h-82v38l89 -1l1 601h-93v39q66 0 86.5 -1t93.5 -1zM117 13h82v96l-18 -42q8 -39 3 -33l-30 30q1 -5 1 -10q0 -17 -10.5 -29t-27.5 -12zM144 660q26 -4 39 -19q3 -2 19 -29q3 48 0 48h-58z" />
    <glyph glyph-name="asciicircum" unicode="^" horiz-adv-x="406" 
d="M339 730l-9 -23l-138 45l-137 -45l-10 20l147 92z" />
    <glyph glyph-name="underscore" unicode="_" horiz-adv-x="507" 
d="M-1 -115h508v-43h-508v43z" />
    <glyph glyph-name="grave" unicode="`" horiz-adv-x="361" 
d="M284 735l-238 105l-31 -68l257 -65z" />
    <glyph glyph-name="a" unicode="a" horiz-adv-x="828" 
d="M830 1h-27l1 -1h-3l11 -41h-12l-11 41h-226l7 -41h-18l-7 41h-1v1h-44v16h40l-17 65h-162l-15 -65h36v-16h-39v-1h-1l-11 -38h-19l11 38h-222l-19 -56l-18 -3l19 60h-43v16h48l215 643h-42v16h46l11 36h19l-12 -36h231l-14 39h16l14 -39h34v-16h-28l220 -643h32v-16z
M577 619l-19 44h-233q-13 -22 -13 -25q0 -27 16 -27q12 0 29 17q7 5 15 9q18 11 20 14q2 1 9 -34t7 -33t18 6t20 14.5t16 23.5q11 13 29 29q3 2 4 -22q1 -27 2 -29q3 -6 42 -6q0 3 -4 -39q35 26 35 29t7 29zM482 249q-15 63 -40 191l-39 -191h79zM107 13l106 1q20 19 23 19
q1 0 9 -9.5t10 -9.5h25q6 0 45 -1q-8 -4 -8 12q0 7 2 17q2 15 -6 15q-5 0 -10 -5q-2 -2 -25 12t-26 14q-24 0 -32 -13q-6 -9 -29 -32q-19 13 -19 16q0 30 -10 25q-19 -9 -19 -19q0 -6 -36 -42zM628 13q150 -2 150 1t-26 48q-61 28 -64 22q-1 -3 0.5 -17.5t-0.5 -17.5
q-1 -4 -16.5 -4.5t-15.5 -2.5t-28 -29z" />
    <glyph glyph-name="b" unicode="b" horiz-adv-x="615" 
d="M253 421h21q35 0 50 6q24 10 24 41q0 51 -75 49l-20 -1v-95zM253 286v-126l26 -1q48 -2 67 11t19 53q0 69 -82 65zM57 665v-219l19 14q5 25 12 55q2 4 -2.5 33.5t-3.5 29.5q2 0 11 25q8 22 8 18q0 -19 12 -31q1 -1 -1 -8q-3 -10 -3 -13q0 -7 7 -6q21 4 21 36q0 6 8 6
q7 0 24 -5l13 -4q0 3 21.5 23t23.5 20t18 12t21 14q-24 -2 -209 0zM352 14q18 0 39 3q49 7 49 9t-8 9.5t-8 9.5q-18 0 -39 -6q-1 -2 -33 6q-11 2 -24 18h-52q-28 34 -37 34q-1 0 -2 -1.5t-16 -10.5q-10 -7 -8.5 -16t-11.5 -30q-11 -17 -18 -24q-1 -1 169 -1zM508 51
q27 21 48 52v0l-1 -1q-31 9 -34 6q-3 -4 -10 -4q-2 0 -6.5 1t-6.5 1q-16 0 -16 -43q0 -4 12 -9t14 -3zM56 2v-45h-11l1 44h-50v10h50v654l-39 1v9h37v41h12l1 -39h10q-14 1 241 0q253 -2 248 -184q-1 -47 -21 -82q-23 -40 -63 -53v-5q52 -19 82.5 -64t30.5 -104
q0 -94 -75 -143q-62 -40 -157 -40h-297z" />
    <glyph glyph-name="c" unicode="c" horiz-adv-x="599" 
d="M575 24l-39 -9v-24h-11v22q-59 -22 -153 -22q-139 0 -240.5 99t-101.5 238q0 142 105 250.5t247 108.5q72 0 143 -23v38h11v-42v-1l35 -13v-9l-36 13l1 -209l24 -18v-15l-24 19v-37l-9 3v45q-60 36 -125 36q-58 0 -99 -41t-41 -99t40.5 -97t98.5 -39q87 0 128 40v52h9
v-45l24 16v-13l-25 -16l-1 -204l39 9v-13zM526 451v98q-3 2 -8 3q-5 0 -17 -16.5t-30 -16.5q-3 0 -40 18v0q-11 -10 -34 -24q-8 -2 -15 -6q7 -3 7 -4q0 -8 -15 -8q-12 0 -18 10t-8 10q-3 0 -11 -9t-8 -13q0 -5 1 -14.5t1 -14.5q33 19 82 19q59 0 113 -32zM526 26v92v1
q-4 0 -21 -27q0 -28 -8 -28q-3 3 -6 3q-13 0 -20.5 -9t-8.5 -9q-4 0 -11.5 19t-14.5 19q-3 0 -11 -3.5t-11 -4.5q-10 -2 -19 -20.5t-13 -18.5q-3 0 -13.5 6.5t-18.5 6.5q-15 0 -23 -9q-12 18 -20 18q-1 0 -5.5 -3.5t-7.5 -3.5l-3 -3q0 -8 47 -45q7 -1 18.5 -4t18.5 -3
t23.5 1.5t19.5 1.5q9 1 48 6q20 6 60 17z" />
    <glyph glyph-name="d" unicode="d" horiz-adv-x="685" 
d="M663 333q0 -147 -89.5 -240t-229.5 -93h-136h-144v-38h-12v38h-42v11h43v648h-1v2h-42v14h42l1 43h14v-43l220 1q171 0 268 -80q108 -88 108 -263zM446 407q-17 27 -34 69q-7 -8 -13 -8q-7 0 -15 10.5t-11 10.5q-1 0 -4 -2q-5 -3 -34 28q-28 1 -44 -24q-5 -5 -9 -15
q2 -2 6 -2h44q29 -5 58 -20q38 -21 38 -47h18zM432 334q0 133 -135 133h-14v-267h14q60 0 97.5 35t37.5 99zM608 151q-4 1 -15.5 4t-17.5 3q-12 0 -17 -15.5t-9 -30.5q-27 -31 -35 -31q-11 0 -27 16l-2 -3q0 -16 -4 -20l-14 -14l-4 -16l2 -14q55 34 79 56q32 33 64 65z
M295 11q-19 9 -22.5 14.5t-5.5 24.5q-1 15 -23 29l-3 1q-7 0 -12 -4t-8 -4q-5 0 -21 7q-11 4 -19.5 8.5t-14.5 17.5q-4 9 -17 25.5t-20 16.5q-5 0 -13.5 -9t-15.5 -9q-8 0 -8 13q0 10 -6 25.5t-13 15.5q-8 -5 -8 -10q-1 -14 -1 -18v-27q0 -88 1 -117l25 15q30 38 35 38
q1 -1 1 -2q0 -8 -18 -47q2 -5 10 -5q3 0 10 1.5t11 1.5q3 0 9 -1.5t9 -1.5q1 0 9 16q18 -15 47 -15h82z" />
    <glyph glyph-name="e" unicode="e" horiz-adv-x="537" 
d="M516 0h-27v-2h-1v-16h-12v16h-408v-22h-12v24h-35v12h35v651h-35v12h36v27h12v-28l403 1v29h12v-31h23v-12h-23v-11h-2v-174h-12v17h-182v-69h165v23h11v-22h32v-12h-31v-152h31v-12h-32v-19h-11v21h-165v-71h188v30h12v-30h1v0h27v-12h-27v-156h27v-12zM465 509v80
l-12 -27q-2 -6 -14.5 -16t-17.5 -10h-36q-3 0 -36 -27q116 -3 116 0zM361 663l-292 1q1 -46 0 -126q22 27 22 29.5t15 38t15 36.5q0 2 8 -3t9 -5t11.5 -14.5t15.5 -12.5q5 1 24 12.5t22.5 11.5t18.5 4q19 5 24 10q9 9 30 0q10 -3 29 -1q15 1 21 4t27 15zM404 263
q0 -1 -44 13q-6 2 -13 3q-10 4 -12.5 11t-9.5 7q-4 0 -11 -2l-7 -2q-4 0 -22 -30q119 -2 119 0zM287 13q-15 8 -32 17q-2 2 -24 -4q-54 -3 -54 9q-58 22 -49 60q-6 -1 -11 -2q-13 -4 -15 -2q-1 0 -2 26t-9 30q-17 8 -17 15v-147z" />
    <glyph glyph-name="f" unicode="f" horiz-adv-x="549" 
d="M532 481h-39v-22h-17v22h-19v1h-157v-72h137v4h19v20h17v-20h29v-17h-29v-28h-3v-114h42v-17h-42l-1 -3l-1 -35h-16l1 35h-153v-220h52v-17h-52v-49h-17v51q-11 1 -200 0v-41h-17v42h-49v13h49v646h-49v15h49v29h13v-29h400l1 29h13v-29h39v-15h-38v-162h38v-17zM415 496
q-5 4 -28.5 12.5t-26.5 8.5q-4 0 -15.5 -4.5t-24.5 -4.5q-1 0 -3 9t-3 9v10q1 21 -5 21q-18 0 -17 -54v-7h123zM413 649v15l-331 -3l-1 -113q19 7 19 25q0 38 7 44q20 17 23 22.5t6 5.5t13.5 -6t19.5 -6q6 0 17 4.5t17 4.5q3 0 6 -6t10 -6q8 0 22.5 5t22.5 5q4 0 13 -4.5
t17 -4.5q7 0 17.5 4t13.5 4q9 0 20 -5q19 2 39 5q29 4 29 10zM375 397l-76 4v-46q0 4 14 15.5t19 11.5q4 0 7.5 -3t5.5 -3t30 21zM283 13v136q-3 17 -4 17l-7 -41q-9 -49 -28 -78q-2 -3 -4 -5v0q0 5 -6 22.5t-8 17.5h-1q-9 -11 -14 -11q3 0 -5 0q-4 0 -12 -17q-6 -8 -15 -21
q0 -1 -20.5 -10.5t-19.5 -9.5h144z" />
    <glyph glyph-name="g" unicode="g" horiz-adv-x="772" 
d="M777 381h-47q-2 -95 -12 -142q-16 -72 -65 -127.5t-121 -86.5t-147 -31q-150 0 -248 89q-102 94 -102 250q0 159 101 255q97 92 250 92q192 0 278 -116l3 2l2 -4l45 30l8 -15l-44 -31l21 -36l-17 -8l-22 35l-163 -85l24 -20l-15 -7l-25 21q-36 31 -86 31q-59 0 -95 -47
q-33 -43 -33 -107q0 -58 32.5 -100t86.5 -42q30 0 57.5 15t35.5 43h-88v-34h-18v35h-40v20h40v121h-46v18h46v28h18v-28h320v40h17v-40h49v-18zM650 546q-3 0 -66 -21q-32 14 -45 14q-7 0 -7 -5q0 -13 8 -35l-52 -37zM552 240h-52q-35 -46 -35 -49t32 0q40 20 40 22t8 14.5
t7 12.5zM356 482q-22 -3 -38 0q-11 2 -13 0q-2 -1 -1 -3q-15 -10 -35 -23q-3 -2 -2 -13q2 -17 2 -13q0 -2 -17 -26q-17 -29 -17 -31q0 -3 8 -35q-5 -10 -14 -23q-2 -2 0 -16q3 -17 3 -16t3.5 -21.5t2 -24.5t12 -6.5t16.5 -4.5t21 -6l-23 52l-9 63l17 61l26 49zM376 9
q-49 18 -51.5 18t-8 9.5t-7.5 11.5t-48 33q40 -60 40 -62.5t37.5 -7t37.5 -2.5zM232 35q-38 38 -38 41.5t-3.5 20.5t-7.5 19t-19.5 25.5t-15.5 26.5q0 2 7.5 -19.5t7.5 -23t1.5 -21t1.5 -24t28 -22.5z" />
    <glyph glyph-name="h" unicode="h" horiz-adv-x="716" 
d="M698 661h-56v-643h45v-20h-45v0v0v-49h-18v49h-185v-43h-18v43h-43v20h43v229h-138v-232h52v-17h-52v-46h-17v46h-187v-46h-18v46h-43v17h43v646h-32v14h32v32h18v-31h187v40h17v-41h29v-14h-29v-207h138v207h-43v14h43v38h18v-37h185v45h18v-45v0v-1h56v-14zM463 465v49
q0 4 -13.5 23t-13.5 20v-119h-77q28 -16 30.5 -16t15 -13t13 -16t3.5 -3q14 0 36 11q6 3 6 64zM199 661h-122q-3 0 0 -122l21 43q6 12 31 12q3 0 24 55l22 -55q22 67 24 67zM629 128q-28 -89 -32.5 -89t-14.5 -6t-11 -6q-2 0 -5 18t-5 18q-1 0 -13.5 -20t-13.5 -20
q-13 0 -22 10q-2 2 -4 2q-8 0 -17 -21l132 3zM163 14q-13 9 -31 25q-1 1 -1 4q0 9 13 30q-28 -16 -34 -16q-5 0 0 37l4 43q-37 -40 -37 -43v-80h86z" />
    <glyph glyph-name="i" unicode="i" horiz-adv-x="373" 
d="M345 15l-6 -14h-37v-35l-18 -3v38h-199v-41h-14v41h-40l-3 14h42v646h-34v14h35v38h14v-38h199v41h18v-41h34v-14h-34v-646h43zM284 661h-27q15 -52 15 -49t12 49zM166 661h-82v-97l18 42q-8 39 -3 33q21 -21 28 -21q-2 5 -2 9q0 34 41 34zM287 65q-6 -17 -15 -37
q-3 -3 -9 18l-12 -18q-4 34 -6 34q-3 0 -16 -49h55zM139 13q-26 4 -39 19q-3 3 -19 30q-3 -49 0 -49h58z" />
    <glyph glyph-name="j" unicode="j" horiz-adv-x="493" 
d="M484 660h-41q0 -46 1 -113.5t1 -322.5q0 -100 -62 -167t-156 -67q-91 0 -175 62l-23 -43l-17 9l26 49l-29 18l8 15l28 -18l62 143l-37 23l6 15l36 -22l16 42l15 -11l-15 -41q5 -7 21 -15.5t26 -8.5q44 0 44 73l-2 380h-45v14h45v2h2v42h11v-42h196v48h17v-50h41v-14z
M443 660v14h-1v-14h1zM422 660h-193q-3 0 0 -117q21 87 29 79q8 -15 24 -35q5 -4 11 20t7 24t7.5 8t6.5 6q0 -3 8 -23.5t12 -20.5q6 0 18 35q70 27 70 24zM219 660v14h-2v-14h2zM252 237q0 2 -20 29v-35q0 -4 -6 -12.5t-8 -8.5t-11 -8.5t-10 -8.5q-11 -6 -23 -6
q-17 0 -38 12q10 -12 23 -29q2 -4 -0.5 -11t-5.5 -7q-4 0 23.5 -10.5t29.5 -6.5q2 5 11 43l32 -43l-2 67q0 1 2.5 17t2.5 18z" />
    <glyph glyph-name="k" unicode="k" horiz-adv-x="738" 
d="M728 1h-49l18 -35l-16 -1l-17 35h-219l18 -40l-14 -2l-18 43h-49v14h43l-98 196q-11 24 -37 78l-10 -1l-2 -273h52v-14h-52v-46l-13 -3v48q-86 1 -191 1v-43h-15v43h-43v14h43v646h-37v15h37v49h15v-49h192v40h12v-40h29v-15h-29q2 -255 2 -275h5q2 14 31 71l103 204h-34
v15h44l23 46h13l-24 -46h220l21 44h12l-20 -44h43l-6 -14h-46l-184 -311l193 -336h54v-14zM649 664h-82q1 0 14 -25t14 -25t8.5 -5.5t7.5 -6.5q0 -2 -32 -18v-30q0 -2 -5 -14.5t-5 -13.5q0 -2 80 138zM229 666q0 2 -62 2l6 -88q0 -2 20 32q14 -62 12 -62q-1 0 11.5 58z
M145 664h-72q4 -100 2 -100t28 -40q-8 32 -8 34q0 1 6 19t6 21.5t3 23.5t3 21t32 21zM665 14q-16 23 -34 50q1 -8 3 -16q4 -20 3 -22q-2 -4 -44 8l16 -24zM535 12l-42 10q-38 54 -38 56q0 1 -4.5 -8t-5.5 -10q-2 -2 -40 26l42 -74h88zM267 204l-18 -122q-28 -28 -28 -26.5
t-2 -17.5t-2 -18q0 2 -17 13t-17 9t-16 -28l98 2z" />
    <glyph glyph-name="l" unicode="l" horiz-adv-x="533" 
d="M530 198h-52v-181h36v-17h-36v-46h-16v45h-393v-56h-17v57h-49v17h49v643h-38v14h38v30h19v-29h198v40h17v-41h63v-14h-63v-447h176v38h16v-36h52v-17zM272 586q2 0 0 76l-98 2q2 -8 8 -18q2 -1 4.5 -7.5t3.5 -6.5q10 0 18 12q2 3 11 2q10 -3 11 -2t7.5 -23.5t6.5 -28.5
t12 22zM238 10l-6 16q-26 -4 -28 -4q-1 0 -13.5 16t-12.5 14q0 -4 -14 -30q-30 22 -30 20t-16 -12q-36 60 -36 62t-16 -22v-56z" />
    <glyph glyph-name="m" unicode="m" horiz-adv-x="954" 
d="M14 -2h25l-6 -51h18l6 51h183l-6 -54h18l5 54h34v14h-27l30 361h5l15 -66l88 -295h-27v-13h31l15 -55h17l-15 55l98 1l-15 -43h17l15 43l27 1v11h-22l79 278l14 83h8l6 -81l25 -279h-44v-12h46v-1h3l11 -50h18l-12 50h187l8 -51h17l-7 52h38v12h-40l-1 5h-2l-99 644h81
v13h-81l-10 55h-14l8 -52l-12 -3v-1h-190l10 53h-18l-9 -53h-55v-15h48l-83 -335h-6l-16 88l-68 249h41v14h-41l-15 55h-17l13 -56l-204 -1l10 63h-17l-11 -63h-73v-12h74l-100 -643h-1l-1 -6h-27v-14zM149 590l12 70h95l-38 -47l-33 20l-14 -28zM334 641v18h34l32 -138
l-38 82l-22 12zM605 662h181l14 -90h-12l-28 53l-29 12l-30 -26l-55 10l16 12zM147 10l38 67l11 -45l66 173l-18 -193zM660 377l41 -60l-20 4l-9 -33zM441 14l47 31l26 50l45 43l-35 -122zM774 12l24 20l49 13l-20 18l30 97l8 -54l12 -72l-18 -24z" />
    <glyph glyph-name="n" unicode="n" horiz-adv-x="797" 
d="M295 678h-17v49h17v-49zM779 661h-63v-640h55v-20h-55v-41h-18v41h-28v0h-130v0h-29v-41h-17v41h-61l-3 17h57l-193 341h-7q12 -74 14 -171v-173h54v-14h-54v-32h-15v32h-187l-3 -52h-17v49h-61v14h63v646h-51v17h52v49h17v-49h259v-14h-48l199 -355h7q-20 116 -20 352
h-43v17h44v52h20v-52h181v52h15v-52h66v-14zM675 658q-17 2 -98 0q2 -4 15 -43q2 0 20 20q18 -4 27 -4t36 27zM698 361v283q-1 -9 -9 -34t-8 -30l9 -57l-23 -58q5 -27 11 -54q8 -32 20 -50zM289 658h-60l20 -14q0 -1 1 -32q2 0 16.5 10.5t17 13t5.5 22.5zM182 658h-86v-170
q10 13 14 13v-2q0 -3 8 -8.5t12 -5.5h1q0 7 2.5 20.5t2.5 19.5q0 9 -2.5 27.5t-2.5 27.5q0 7 7 23.5t11 16.5t15 5t13.5 8t4.5 25zM283 15q-12 42 -16 42q0 -1 -1 -2q-8 -11 -40 -28q-6 51 -10 79q-1 7 -4 20q0 1 -1 2q0 -1 -1 -3q-1 -5 -4 -16q-15 -65 -15 -74
q0 -3 -43 -20h135z" />
    <glyph glyph-name="o" unicode="o" horiz-adv-x="803" 
d="M787 335q0 -165 -109 -266q-104 -96 -262 -96q-159 0 -263 96q-109 101 -109 266q0 163 109 266q106 100 263 100q156 0 262 -100q109 -103 109 -266zM573 281q0 80 -14 99l-6 -21q0 -4 1.5 -13t1.5 -14q-5 -101 -73 -136l-40 -8q-35 -7 -35 -15q0 -14 21 -24
q17 -8 34 -8q46 0 80 49q30 43 30 91zM541 331q0 58 -34.5 98t-90.5 40q-57 0 -91.5 -40t-34.5 -98q0 -60 35 -97.5t91 -37.5q55 0 90 37.5t35 97.5zM245 642q-4 -2 -52 -35q-27 -18 -49 -42q-45 -50 -54 -91q-4 -16 -15 -48q1 1 18 15q8 7 10.5 14.5t4 9.5t9.5 18t11 16
q4 0 7.5 -7t4.5 -7q5 0 19.5 16.5t17.5 24.5q-2 1 21.5 6t23.5 8q0 19 23 102z" />
    <glyph glyph-name="p" unicode="p" horiz-adv-x="611" 
d="M274 509v-144l43 -1q34 -1 56 17q27 20 27 58q0 36 -30 56q-26 16 -59 15zM276 8h46v-7h-46v-38h-12v37l-203 1v-44h-12v44h-40v11h40v652h-43v11h43v39h13v-39h283q117 0 186 -62q74 -66 74 -187q0 -103 -57 -163t-154 -60h-119q0 -58 1 -195zM192 664q0 -2 -130 -2
v-245q13 28 13 29v30l33 37q-33 -5 -33 -2q0 2 -2 8.5t-2 8.5q0 3 17 17q2 4 5 11q-1 10 0 22q1 1 13.5 5.5t12.5 5.5l-6 9t-5 14q1 7 6 16q0 4 4 12q3 3 16 5q30 -2 34 0q1 1 12.5 10.5t11.5 8.5zM164 10h100v130l-18 -49l-4 -35q-12 -8 -25 -16q-3 -3 -3 -17q0 -2 -50 -13
z" />
    <glyph glyph-name="q" unicode="q" horiz-adv-x="788" 
d="M670 131l82 -88l-133 -100l-74 87q-81 -37 -169 -37q-147 0 -243.5 96t-96.5 248q0 157 104 255q99 93 248 93q156 0 253 -92q100 -95 100 -256q0 -127 -71 -206zM422 195l-66 78l110 87q67 -83 68 -81q8 32 8 61q0 73 -50 115q-45 37 -104 34q-58 -2 -97 -44.5
t-38 -103.5q1 -54 43 -103t92 -49q18 0 34 6zM63 227q30 -70 61 -106q37 -42 97 -78q56 -33 125 -36q-7 5 -16 21q-2 7 -5 13q-10 5 -19 9q-15 7 -19 35q0 1 -31 -4.5t-31 -4.5q0 17 -20 21q-25 3 -32 17l3.5 11t3.5 19q0 19 -18 19h-38q-15 23 -15 30t-46 34zM623 -42
l87 68l-30 -15q-44 0 -44 -2q0 -9 -15 -9q-24 0 -61 26q0 -2 63 -68z" />
    <glyph glyph-name="r" unicode="r" horiz-adv-x="633" 
d="M648 0h-26l15 -34h-8l-15 34h-230l14 -36l-9 -2l-15 38h-39l4 7h31l-94 211l-9 -1v-210h25v-7h-25v-36l-11 -2l1 38h-206v-36h-10v36h-47v7h47v14l1 639h-1v5h-40v10h40v44h10v-44h271q117 0 186 -54q79 -61 79 -181q0 -75 -28 -113t-95 -62q22 -17 25.5 -21t14.5 -24
l112 -207v0l3 -6h29v-7zM373 428q-2 68 -81 71l-25 1v-134h21q39 0 57 9q29 14 28 53zM295 665h-243l-1 -309q11 18 11 19v99q0 9 5.5 48t5.5 43q0 33 27 49q11 7 28 7l14 -1q0 1 17.5 11.5t20.5 15.5q1 2 6 2q6 0 19 -4l13 -4h45q0 3 32 24zM257 102q-21 -45 -49 -61
l-72 -32l122 -1z" />
    <glyph glyph-name="s" unicode="s" horiz-adv-x="583" 
d="M586 604l-6 -13l-41 19l-53 -146l29 -18l-6 -12q-10 11 -16 13q-9 3 -18 5v5q-67 47 -128 47q-50 0 -50 -36q0 -22 46 -33l53 -13q169 -40 169 -192q0 -113 -86 -180q-78 -59 -191 -59t-221 49v-2l-12 7l-2 2l-20 -33h-15l24 40l-31 18v16l36 -22l70 158l-38 27v19
l40 -31v-2l6 -5q75 -62 145 -62q22 0 39 9q21 11 21 32q0 19 -18 28q-8 4 -34 9l-47 9q-71 14 -120 66.5t-49 128.5q0 112 87 176q78 55 192 55q107 0 195 -54l13 46h15l-15 -55zM525 619q-25 13 -25 15.5t-77 24.5l-77 16q46 -47 48.5 -47t35 -6t34 -6t17 -11t16.5 -11
t6 -13t6 -11q3 2 16 49zM466 375l-46 22q-25 12 -46 12q-1 0 -28.5 10t-27.5 8q0 -9 25 -33q7 -8 40 -19t38 -8.5t42 -6.5zM250 162q-34 8 -74 21q-6 6 -50 31q-37 -89 -39.5 -89t-2.5 -16q1 -15 5 -15q-6 0 25.5 26t45.5 26q4 0 45 -3t42 -3q3 0 3 22z" />
    <glyph glyph-name="t" unicode="t" horiz-adv-x="596" 
d="M593 462h-53v0h-2v-37h-14v36h-112v-446h40v-14h-40v-37h-15v37h-204v-32h-15v32h-34v14h34l2 446h-114v-60h-15v61h-43v14l40 -2v190h-46v11h46v44h13v-44h467v49h13v-49h44v-11h-44v-190h52v-12zM518 664h-458v-185q26 50 26 55v40q3 13 23 38q7 9 23 10q9 1 17 1
q20 11 46 23q18 2 44 6q8 3 26 -29q83 9 83 11.5t45 9.5t47 5q2 -1 16.5 -5.5t15.5 -5.5q2 -2 21.5 5t19.5 9.5t5 11.5zM397 18v127q-17 -58 -34 -82q-23 -31 -70 -45h104z" />
    <glyph glyph-name="u" unicode="u" horiz-adv-x="729" 
d="M698 664h-34v-6v0v-380q0 -143 -81 -216q-76 -69 -215 -69t-215 69q-81 73 -81 216v380h-2v6h-39v11h39v46h14v-46h206v36h14v-36h34v-11h-34v-363q0 -55 6 -68q11 -29 58 -31q47 -1 58 29q5 14 5 70v357h-1v6h-32v11h32v46h14v-46h206v36h14v-36h34v-11zM648 661
q0 3 -83 0q0 -42 12 -57q6 -8 29 -16t36 -23zM227 661l-139 -3q-4 0 -1 -92q2 -91 1 -91q-2 0 11.5 50.5t13.5 54.5t9 18t9 23t19 16q14 5 21 5q3 0 44 6zM496 292q0 22 -9.5 42.5t-17.5 22.5q-16 6 -16 7q0 2 -3 -46t-3 -51t-6.5 -32t-9 -29t-55.5 -19q10 -12 28 -12
q75 0 71 12q-3 8 -7.5 37t-1.5 31l16 8q14 10 14 29z" />
    <glyph glyph-name="v" unicode="v" horiz-adv-x="827" 
d="M801 664h-45l-240 -652h37v-11h-41l-13 -46h-15l14 46h-166l12 -41h-15l-12 41h-49v11h45l-241 655h-46v11h42l-15 41h15l14 -41h212l-9 41h15l8 -41h46v-11h-41l83 -297q16 -58 16 -99h5q0 41 16 99l82 294h-42v14h47l10 44h15l-10 -44h211l12 41h14l-11 -41h40v-14z
M295 661h-204l170 -466l-6 91l-33 92q-73 128 -73 137q0 4 -15 67q-6 29 -13 58q2 -2 44.5 3.5t41.5 5.5q4 0 45 5t43 7zM536 113q-44 -10 -61 -32q-1 -2 -19 -40q-11 -23 -36 -32q-3 -1 38 -1q41 -1 41 1t18.5 54t18.5 50z" />
    <glyph glyph-name="w" unicode="w" horiz-adv-x="1128" 
d="M1097 665h-29l-220 -653h31v-11h-35l-9 -25h-11l10 25h-181l5 -29h-11l-4 29h-30v11h27l-71 354h-7q-2 -34 -12 -101l-62 -253h19v-11h-23l-9 -32h-10l8 32h-172l10 -30h-11l-9 30h-40v11h33l-217 651h-36v11h34l-11 35h11l10 -35h217l-5 34h10l5 -34h34v-11h-29l78 -391
h5q8 76 20 124l65 267h-28v9h31v1l4 31h11l-5 -31h158l-9 31h11l8 -32h32v-9h-30l85 -391h5q7 77 16 118l63 275h-26v7h27l8 30h11l-8 -29h222l8 29h10l-7 -30h25v-7zM1056 662h-107q1 0 12 -12.5t13 -12.5q-7 0 25 3q25 2 33 -1q2 -1 2 -6q0 -12 -15 -44q-13 -28 -15 -30.5
t-7 -71.5zM593 662h-106l-19 -71l71 21q6 16 14 34q1 1 10.5 -5t8.5 -8q11 14 21 29zM478 672v1v-1v0zM662 181q-11 9 -27 23q-26 26 -26 22t14 -83t16 -79q3 0 12 7t9 11q0 3 -9 15.5t-9 14.5q0 19 9 28q14 14 14 32q0 6 -3 9zM264 665l-185 -2l47 -137q0 2 3.5 51t3.5 51
q0 3 39 -14l37 28q0 -1 28 -3zM419 10q-109 14 -139 58l17 -55z" />
    <glyph glyph-name="x" unicode="x" horiz-adv-x="823" 
d="M807 1h-42l21 -46l-17 5l-18 41h-239l15 -38h-12l-16 38h-36v11h31l-2 6h1l-64 126q-10 19 -14 41h-6q-7 -25 -18 -47l-66 -126h43v-11h-48l-18 -41h-11l19 41h-242l-25 -44l-9 6l24 38h-41v11h45l217 346l-192 300h-5l-4 9h-37v8h32l-22 41l12 3l22 -44h242l-22 38l12 3
l22 -41h35v-8h-31l44 -90q10 -19 20 -55h5q5 21 20 55l40 87h-46v11h48l21 38l12 3l-22 -41h246l18 32l11 3l-17 -35h32v-11h-42l-195 -306l220 -344v0l1 -1v-1h48v-11zM547 664h-58l-66 -139q36 58 58 83q25 29 66 56zM365 606l-34 55h-95q72 -14 129 -55zM759 12v1v-1v0z
M216 661h-110q3 0 75 -121q-31 86 -26 86t61 35zM371 133q-60 -49 -60 -54.5t-9 -34.5l-135 -32q135 3 135 0q0 -2 69 121z" />
    <glyph glyph-name="y" unicode="y" horiz-adv-x="787" 
d="M758 661h-41l-214 -373v-264h1v-15h35v-11h-35v-34h-12v34h-204v-34h-12v34h-40v11h40v279l-220 376h-41v8h37l-14 38l11 3l15 -41h238l-14 38l12 3l14 -41h44v-8h-40l69 -170h7q16 53 63 167h-39v11h34l15 35l12 3l-15 -38h242l18 35l11 3l-17 -38h40v-11zM701 658h-81
q18 -7 24 -16.5t5 -32.5l-20 -72zM335 592l-32 69h-67q46 -14 99 -69zM164 592q0 1 -20.5 25t-22.5 27q-2 5 38 14h-81l84 -141l-3 49q0 3 2.5 14t2.5 12zM409 9l-89 35q-26 40 -26 37v-66z" />
    <glyph glyph-name="z" unicode="z" horiz-adv-x="747" 
d="M738 664h-51l-268 -456h234v42h10v-38h45v-8h-44v-192h44v-8h-44v-3h-1v-34h-10v34h-597l-17 -38l-15 3l20 35h-2v1h-34v8h39l270 461l-211 1l-1 -35h-10v34h-36v8h36q0 29 -1 62v117l1 -1v7h-52v11h52v35h10v-35h574l18 35h10l-15 -38h46v-8zM450 664l-335 -3
q-8 0 -6 -76l3 -77q6 17 12 35q16 40 17.5 46.5t44 25t45.5 22.5q15 15 36 15q3 0 60 -12l72 6q6 0 51 18zM654 95v101q-3 3 -240 3q66 -21 69 -21q7 0 27 -29q6 -10 20 -10q9 0 20.5 4t31.5 15q3 3 22.5 2t22.5 1l2 -16q-2 -27 -2 -20q0 -2 13.5 -15.5t13.5 -14.5z" />
    <glyph glyph-name="braceleft" unicode="{" horiz-adv-x="525" 
d="M55 236v122q35 18 47 31q23 24 23 62v207q0 153 193 153h97v-140h-25q-30 0 -40 -19q-6 -12 -6 -41v-166q0 -56 -31 -95q-19 -23 -65 -52v-2q46 -29 65 -52q31 -39 31 -96v-166q0 -29 6 -41q10 -20 40 -20h25v-140h-97q-193 0 -193 155v206q0 38 -23 62q-13 14 -47 32z
" />
    <glyph glyph-name="bar" unicode="|" horiz-adv-x="10" 
 />
    <glyph glyph-name="braceright" unicode="}" horiz-adv-x="494" 
d="M415 236v122q-35 18 -47 31q-23 24 -23 62v207q0 153 -193 153h-97v-140h25q31 0 40 -19q6 -12 6 -41v-166q0 -56 32 -95q18 -23 64 -52v-2q-46 -29 -64 -52q-32 -39 -32 -96v-166q0 -29 -6 -41q-10 -20 -40 -20h-25v-140h97q193 0 193 155v206q0 38 23 62q13 14 47 32z
" />
    <glyph glyph-name="asciitilde" unicode="~" horiz-adv-x="797" 
d="M542 810l22 -27q-19 -21 -49 -37q-34 -19 -60 -19q-21 0 -66.5 17.5t-69.5 17.5q-21 0 -45.5 -11.5t-36.5 -25.5l-22 23q3 25 41 48.5t67 23.5q27 0 72 -18t69 -19q29 -3 50 10q14 8 28 17z" />
    <glyph glyph-name="Adieresis" unicode="&#xc4;" horiz-adv-x="828" 
d="M830 1h-27l1 -1h-3l11 -41h-12l-11 41h-226l7 -41h-18l-7 41h-1v1h-44v16h40l-17 65h-162l-15 -65h36v-16h-39v-1h-1l-11 -38h-19l11 38h-222l-19 -56l-18 -3l19 60h-43v16h48l215 643h-42v16h46l2 22h19l-3 -22h231l-5 16h15l6 -16h34v-16h-28l220 -643h32v-16zM577 619
l-19 44h-233q-13 -22 -13 -25q0 -27 16 -27q12 0 29 17q7 5 15 9q18 11 20 14q2 1 9 -34t7 -33t18 6t20 14.5t16 23.5q11 13 29 29q3 2 4 -22q1 -27 2 -29q3 -6 42 -6q0 3 -4 -39q35 26 35 29t7 29zM482 249q-15 63 -40 191l-39 -191h79zM107 13l106 1q20 19 23 19
q1 0 9 -9.5t10 -9.5h25q6 0 45 -1q-8 -4 -8 12q0 7 2 17q2 15 -6 15q-5 0 -10 -5q-2 -2 -25 12t-26 14q-24 0 -32 -13q-6 -9 -29 -32q-19 13 -19 16q0 30 -10 25q-19 -9 -19 -19q0 -6 -36 -42zM628 13q150 -2 150 1t-26 48q-61 28 -64 22q-1 -3 0.5 -17.5t-0.5 -17.5
q-1 -4 -16.5 -4.5t-15.5 -2.5t-28 -29zM487 776q0 19 14 33t33 14q20 0 33.5 -14t13.5 -33t-13.5 -33t-33.5 -14q-19 0 -33 14t-14 33zM307 776q0 19 14 33t33 14q20 0 33.5 -14t13.5 -33t-13.5 -33t-33.5 -14q-19 0 -33 14t-14 33z" />
    <glyph glyph-name="Aring" unicode="&#xc5;" horiz-adv-x="828" 
d="M830 1h-27l1 -1h-3l11 -41h-12l-11 41h-226l7 -41h-18l-7 41h-1v1h-44v16h40l-17 65h-162l-15 -65h36v-16h-39v-1h-1l-11 -38h-19l11 38h-222l-19 -56l-18 -3l19 60h-43v16h48l215 643h-42v16h46l11 36h19l-12 -36h231l-14 39h16l14 -39h34v-16h-28l220 -643h32v-16z
M577 619l-19 44h-233q-13 -22 -13 -25q0 -27 16 -27q12 0 29 17q7 5 15 9q18 11 20 14q2 1 9 -34t7 -33t18 6t20 14.5t16 23.5q11 13 29 29q3 2 4 -22q1 -27 2 -29q3 -6 42 -6q0 3 -4 -39q35 26 35 29t7 29zM482 249q-15 63 -40 191l-39 -191h79zM107 13l106 1q20 19 23 19
q1 0 9 -9.5t10 -9.5h25q6 0 45 -1q-8 -4 -8 12q0 7 2 17q2 15 -6 15q-5 0 -10 -5q-2 -2 -25 12t-26 14q-24 0 -32 -13q-6 -9 -29 -32q-19 13 -19 16q0 30 -10 25q-19 -9 -19 -19q0 -6 -36 -42zM628 13q150 -2 150 1t-26 48q-61 28 -64 22q-1 -3 0.5 -17.5t-0.5 -17.5
q-1 -4 -16.5 -4.5t-15.5 -2.5t-28 -29zM439 854q34 0 62.5 -17t28.5 -48q0 -30 -28.5 -47.5t-62.5 -17.5q-35 0 -61 17q-30 18 -30 48q0 31 30 49q26 16 61 16zM439 814q-25 0 -40 -10q-11 -8 -11 -15t11 -14q15 -11 40 -11t40 11q11 7 11 14t-11 15q-15 10 -40 10z" />
    <glyph glyph-name="Ccedilla" unicode="&#xc7;" horiz-adv-x="599" 
d="M453 -114q0 -48 -32 -73t-81 -25q-41 0 -78 17l2 57l50 -14q65 0 65 26q0 16 -25 26q-19 8 -38 8l-50 -4v104q-103 34 -169.5 122t-66.5 198q0 142 105 250.5t247 108.5q72 0 143 -23v38h11v-42v-1l35 -13v-9l-36 13l1 -209l24 -18v-15l-24 19v-37l-9 3v45
q-60 36 -125 36q-58 0 -99 -41t-41 -99t40.5 -97t98.5 -39q87 0 128 40v52h9v-45l24 16v-13l-25 -16l-1 -204l39 9v-13l-39 -9v-24h-11v22q-59 -22 -153 -22q-24 0 -48 3v-32q129 0 129 -76zM526 451v98q-3 2 -8 3q-5 0 -17 -16.5t-30 -16.5q-3 0 -40 18v0q-11 -10 -34 -24
q-8 -2 -15 -6q7 -3 7 -4q0 -8 -15 -8q-12 0 -18 10t-8 10q-3 0 -11 -9t-8 -13q0 -5 1 -14.5t1 -14.5q33 19 82 19q59 0 113 -32zM526 26v92v1q-4 0 -21 -27q0 -28 -8 -28q-3 3 -6 3q-13 0 -20.5 -9t-8.5 -9q-4 0 -11.5 19t-14.5 19q-3 0 -11 -3.5t-11 -4.5q-10 -2 -19 -20.5
t-13 -18.5q-3 0 -13.5 6.5t-18.5 6.5q-15 0 -23 -9q-12 18 -20 18q-1 0 -5.5 -3.5t-7.5 -3.5l-3 -3q0 -8 47 -45q7 -1 18.5 -4t18.5 -3t23.5 1.5t19.5 1.5q9 1 48 6q20 6 60 17z" />
    <glyph glyph-name="Eacute" unicode="&#xc9;" horiz-adv-x="537" 
d="M516 0h-27v-2h-1v-16h-12v16h-408v-22h-12v24h-35v12h35v651h-35v12h36v27h12v-28l403 1v29h12v-31h23v-12h-23v-11h-2v-174h-12v17h-182v-69h165v23h11v-22h32v-12h-31v-152h31v-12h-32v-19h-11v21h-165v-71h188v30h12v-30h1v0h27v-12h-27v-156h27v-12zM465 509v80
l-12 -27q-2 -6 -14.5 -16t-17.5 -10h-36q-3 0 -36 -27q116 -3 116 0zM361 663l-292 1q1 -46 0 -126q22 27 22 29.5t15 38t15 36.5q0 2 8 -3t9 -5t11.5 -14.5t15.5 -12.5q5 1 24 12.5t22.5 11.5t18.5 4q19 5 24 10q9 9 30 0q10 -3 29 -1q15 1 21 4t27 15zM404 263
q0 -1 -44 13q-6 2 -13 3q-10 4 -12.5 11t-9.5 7q-4 0 -11 -2l-7 -2q-4 0 -22 -30q119 -2 119 0zM287 13q-15 8 -32 17q-2 2 -24 -4q-54 -3 -54 9q-58 22 -49 60q-6 -1 -11 -2q-13 -4 -15 -2q-1 0 -2 26t-9 30q-17 8 -17 15v-147zM133 745l238 105l31 -68l-257 -65z" />
    <glyph glyph-name="Ntilde" unicode="&#xd1;" horiz-adv-x="797" 
d="M295 678h-17v19h17v-19zM779 661h-63v-640h55v-20h-55v-41h-18v41h-28v0h-130v0h-29v-41h-17v41h-61l-3 17h57l-193 341h-7q12 -74 14 -171v-173h54v-14h-54v-32h-15v32h-187l-3 -52h-17v49h-61v14h63v646h-51v17h52v49h17v-49h259v-14h-48l199 -355h7q-20 116 -20 352
h-43v17h44v22h20v-22h181v52h15v-52h66v-14zM675 658q-17 2 -98 0q2 -4 15 -43q2 0 20 20q18 -4 27 -4t36 27zM698 361v283q-1 -9 -9 -34t-8 -30l9 -57l-23 -58q5 -27 11 -54q8 -32 20 -50zM289 658h-60l20 -14q0 -1 1 -32q2 0 16.5 10.5t17 13t5.5 22.5zM182 658h-86v-170
q10 13 14 13v-2q0 -3 8 -8.5t12 -5.5h1q0 7 2.5 20.5t2.5 19.5q0 9 -2.5 27.5t-2.5 27.5q0 7 7 23.5t11 16.5t15 5t13.5 8t4.5 25zM283 15q-12 42 -16 42q0 -1 -1 -2q-8 -11 -40 -28q-6 51 -10 79q-1 7 -4 20q0 1 -1 2q0 -1 -1 -3q-1 -5 -4 -16q-15 -65 -15 -74
q0 -3 -43 -20h135zM542 810l22 -27q-19 -21 -49 -37q-34 -19 -60 -19q-21 0 -66.5 17.5t-69.5 17.5q-21 0 -45.5 -11.5t-36.5 -25.5l-22 23q3 25 41 48.5t67 23.5q27 0 72 -18t69 -19q29 -3 50 10q14 8 28 17z" />
    <glyph glyph-name="Odieresis" unicode="&#xd6;" horiz-adv-x="803" 
d="M780 335q0 -165 -109 -266q-104 -96 -262 -96q-159 0 -263 96q-109 101 -109 266q0 163 109 266q106 100 263 100q156 0 262 -100q109 -103 109 -266zM574 320q0 30 -22 60l-6 -21q0 -4 1.5 -13t1.5 -14q-5 -101 -73 -136l-40 -8q-35 -7 -35 -15q0 -15 17 -23
q13 -7 29 -7q46 0 88 67q39 61 39 110zM534 331q0 58 -34.5 98t-90.5 40q-57 0 -91.5 -40t-34.5 -98q0 -60 35 -97.5t91 -37.5q55 0 90 37.5t35 97.5zM213 617q-13 -5 -27 -10q-27 -18 -49 -42q-45 -50 -54 -91q-4 -16 -16 -48q2 1 19 15q8 7 10.5 14.5t4 9.5t9.5 18t11 16
q4 0 7.5 -7t4.5 -7q5 0 19.5 16.5t17.5 24.5q-10 6 -10 17q0 13 24.5 37t28.5 37zM447 776q0 19 14 33t33 14q20 0 33.5 -14t13.5 -33t-13.5 -33t-33.5 -14q-19 0 -33 14t-14 33zM267 776q0 19 14 33t33 14q20 0 33.5 -14t13.5 -33t-13.5 -33t-33.5 -14q-19 0 -33 14t-14 33
z" />
    <glyph glyph-name="Udieresis" unicode="&#xdc;" horiz-adv-x="729" 
d="M698 664h-34v-6v0v-380q0 -143 -81 -216q-76 -69 -215 -69t-215 69q-81 73 -81 216v380h-2v6h-39v11h39v46h14v-46h206v26h14v-26h34v-11h-34v-363q0 -55 6 -68q11 -29 58 -31q47 -1 58 29q5 14 5 70v357h-1v6h-32v11h32v36h14v-36h206v36h14v-36h34v-11zM648 661
q0 3 -83 0q0 -42 12 -57q6 -8 29 -16t36 -23zM227 661l-139 -3q-4 0 -1 -92q2 -91 1 -91q-2 0 11.5 50.5t13.5 54.5t9 18t9 23t19 16q14 5 21 5q3 0 44 6zM496 292q0 22 -9.5 42.5t-17.5 22.5q-16 6 -16 7q0 2 -3 -46t-3 -51t-6.5 -32t-9 -29t-55.5 -19q10 -12 28 -12
q75 0 71 12q-3 8 -7.5 37t-1.5 31l16 8q14 10 14 29zM407 776q0 19 14 33t33 14q20 0 33.5 -14t13.5 -33t-13.5 -33t-33.5 -14q-19 0 -33 14t-14 33zM227 776q0 19 14 33t33 14q20 0 33.5 -14t13.5 -33t-13.5 -33t-33.5 -14q-19 0 -33 14t-14 33z" />
    <glyph glyph-name="aacute" unicode="&#xe1;" horiz-adv-x="828" 
d="M830 1h-27l1 -1h-3l11 -41h-12l-11 41h-226l7 -41h-18l-7 41h-1v1h-44v16h40l-17 65h-162l-15 -65h36v-16h-39v-1h-1l-11 -38h-19l11 38h-222l-19 -56l-18 -3l19 60h-43v16h48l215 643h-42v16h46l-4 13h18l4 -13h231l-14 39h16l14 -39h34v-16h-28l220 -643h32v-16z
M577 619l-19 44h-233q-13 -22 -13 -25q0 -27 16 -27q12 0 29 17q7 5 15 9q18 11 20 14q2 1 9 -34t7 -33t18 6t20 14.5t16 23.5q11 13 29 29q3 2 4 -22q1 -27 2 -29q3 -6 42 -6q0 3 -4 -39q35 26 35 29t7 29zM482 249q-15 63 -40 191l-39 -191h79zM107 13l106 1q20 19 23 19
q1 0 9 -9.5t10 -9.5h25q6 0 45 -1q-8 -4 -8 12q0 7 2 17q2 15 -6 15q-5 0 -10 -5q-2 -2 -25 12t-26 14q-24 0 -32 -13q-6 -9 -29 -32q-19 13 -19 16q0 30 -10 25q-19 -9 -19 -19q0 -6 -36 -42zM628 13q150 -2 150 1t-26 48q-61 28 -64 22q-1 -3 0.5 -17.5t-0.5 -17.5
q-1 -4 -16.5 -4.5t-15.5 -2.5t-28 -29zM303 745l238 105l31 -68l-257 -65z" />
    <glyph glyph-name="agrave" unicode="&#xe0;" horiz-adv-x="828" 
d="M830 1h-27l1 -1h-3l11 -41h-12l-11 41h-226l7 -41h-18l-7 41h-1v1h-44v16h40l-17 65h-162l-15 -65h36v-16h-39v-1h-1l-11 -38h-19l11 38h-222l-19 -56l-18 -3l19 60h-43v16h48l215 643h-42v16h46l11 36h19l-12 -36h231l-9 10h16l9 -10h34v-16h-28l220 -643h32v-16z
M577 619l-19 44h-233q-13 -22 -13 -25q0 -27 16 -27q12 0 29 17q7 5 15 9q18 11 20 14q2 1 9 -34t7 -33t18 6t20 14.5t16 23.5q11 13 29 29q3 2 4 -22q1 -27 2 -29q3 -6 42 -6q0 3 -4 -39q35 26 35 29t7 29zM482 249q-15 63 -40 191l-39 -191h79zM107 13l106 1q20 19 23 19
q1 0 9 -9.5t10 -9.5h25q6 0 45 -1q-8 -4 -8 12q0 7 2 17q2 15 -6 15q-5 0 -10 -5q-2 -2 -25 12t-26 14q-24 0 -32 -13q-6 -9 -29 -32q-19 13 -19 16q0 30 -10 25q-19 -9 -19 -19q0 -6 -36 -42zM628 13q150 -2 150 1t-26 48q-61 28 -64 22q-1 -3 0.5 -17.5t-0.5 -17.5
q-1 -4 -16.5 -4.5t-15.5 -2.5t-28 -29zM574 745l-238 105l-31 -68l257 -65z" />
    <glyph glyph-name="acircumflex" unicode="&#xe2;" horiz-adv-x="828" 
d="M830 1h-27l1 -1h-3l11 -41h-12l-11 41h-226l7 -41h-18l-7 41h-1v1h-44v16h40l-17 65h-162l-15 -65h36v-16h-39v-1h-1l-11 -38h-19l11 38h-222l-19 -56l-18 -3l19 60h-43v16h48l215 643h-42v16h46l1 16h19l-2 -16h231l-4 19h16l4 -19h34v-16h-28l220 -643h32v-16zM577 619
l-19 44h-233q-13 -22 -13 -25q0 -27 16 -27q12 0 29 17q7 5 15 9q18 11 20 14q2 1 9 -34t7 -33t18 6t20 14.5t16 23.5q11 13 29 29q3 2 4 -22q1 -27 2 -29q3 -6 42 -6q0 3 -4 -39q35 26 35 29t7 29zM482 249q-15 63 -40 191l-39 -191h79zM107 13l106 1q20 19 23 19
q1 0 9 -9.5t10 -9.5h25q6 0 45 -1q-8 -4 -8 12q0 7 2 17q2 15 -6 15q-5 0 -10 -5q-2 -2 -25 12t-26 14q-24 0 -32 -13q-6 -9 -29 -32q-19 13 -19 16q0 30 -10 25q-19 -9 -19 -19q0 -6 -36 -42zM628 13q150 -2 150 1t-26 48q-61 28 -64 22q-1 -3 0.5 -17.5t-0.5 -17.5
q-1 -4 -16.5 -4.5t-15.5 -2.5t-28 -29zM579 730l-9 -23l-138 45l-137 -45l-10 20l147 92z" />
    <glyph glyph-name="adieresis" unicode="&#xe4;" horiz-adv-x="828" 
d="M830 1h-27l1 -1h-3l11 -41h-12l-11 41h-226l7 -41h-18l-7 41h-1v1h-44v16h40l-17 65h-162l-15 -65h36v-16h-39v-1h-1l-11 -38h-19l11 38h-222l-19 -56l-18 -3l19 60h-43v16h48l215 643h-42v16h46l2 22h19l-3 -22h231l-5 16h15l6 -16h34v-16h-28l220 -643h32v-16zM577 619
l-19 44h-233q-13 -22 -13 -25q0 -27 16 -27q12 0 29 17q7 5 15 9q18 11 20 14q2 1 9 -34t7 -33t18 6t20 14.5t16 23.5q11 13 29 29q3 2 4 -22q1 -27 2 -29q3 -6 42 -6q0 3 -4 -39q35 26 35 29t7 29zM482 249q-15 63 -40 191l-39 -191h79zM107 13l106 1q20 19 23 19
q1 0 9 -9.5t10 -9.5h25q6 0 45 -1q-8 -4 -8 12q0 7 2 17q2 15 -6 15q-5 0 -10 -5q-2 -2 -25 12t-26 14q-24 0 -32 -13q-6 -9 -29 -32q-19 13 -19 16q0 30 -10 25q-19 -9 -19 -19q0 -6 -36 -42zM628 13q150 -2 150 1t-26 48q-61 28 -64 22q-1 -3 0.5 -17.5t-0.5 -17.5
q-1 -4 -16.5 -4.5t-15.5 -2.5t-28 -29zM487 776q0 19 14 33t33 14q20 0 33.5 -14t13.5 -33t-13.5 -33t-33.5 -14q-19 0 -33 14t-14 33zM307 776q0 19 14 33t33 14q20 0 33.5 -14t13.5 -33t-13.5 -33t-33.5 -14q-19 0 -33 14t-14 33z" />
    <glyph glyph-name="atilde" unicode="&#xe3;" horiz-adv-x="828" 
d="M830 1h-27l1 -1h-3l11 -41h-12l-11 41h-226l7 -41h-18l-7 41h-1v1h-44v16h40l-17 65h-162l-15 -65h36v-16h-39v-1h-1l-11 -38h-19l11 38h-222l-19 -56l-18 -3l19 60h-43v16h48l215 643h-42v16h46l5 13h19l-6 -13h231l-5 16h15l6 -16h34v-16h-28l220 -643h32v-16zM577 619
l-19 44h-233q-13 -22 -13 -25q0 -27 16 -27q12 0 29 17q7 5 15 9q18 11 20 14q2 1 9 -34t7 -33t18 6t20 14.5t16 23.5q11 13 29 29q3 2 4 -22q1 -27 2 -29q3 -6 42 -6q0 3 -4 -39q35 26 35 29t7 29zM482 249q-15 63 -40 191l-39 -191h79zM107 13l106 1q20 19 23 19
q1 0 9 -9.5t10 -9.5h25q6 0 45 -1q-8 -4 -8 12q0 7 2 17q2 15 -6 15q-5 0 -10 -5q-2 -2 -25 12t-26 14q-24 0 -32 -13q-6 -9 -29 -32q-19 13 -19 16q0 30 -10 25q-19 -9 -19 -19q0 -6 -36 -42zM628 13q150 -2 150 1t-26 48q-61 28 -64 22q-1 -3 0.5 -17.5t-0.5 -17.5
q-1 -4 -16.5 -4.5t-15.5 -2.5t-28 -29zM557 806l18 -24q-16 -19 -41 -34q-28 -17 -50 -17q-18 0 -55.5 16t-57.5 16q-17 0 -38 -10.5t-30 -23.5l-19 22q2 22 34 43.5t57 21.5q22 0 59 -16.5t58 -17.5q24 -2 41 9q12 8 24 15z" />
    <glyph glyph-name="aring" unicode="&#xe5;" horiz-adv-x="828" 
d="M830 1h-27l1 -1h-3l11 -41h-12l-11 41h-226l7 -41h-18l-7 41h-1v1h-44v16h40l-17 65h-162l-15 -65h36v-16h-39v-1h-1l-11 -38h-19l11 38h-222l-19 -56l-18 -3l19 60h-43v16h48l215 643h-42v16h46l11 36h19l-12 -36h231l-14 39h16l14 -39h34v-16h-28l220 -643h32v-16z
M577 619l-19 44h-233q-13 -22 -13 -25q0 -27 16 -27q12 0 29 17q7 5 15 9q18 11 20 14q2 1 9 -34t7 -33t18 6t20 14.5t16 23.5q11 13 29 29q3 2 4 -22q1 -27 2 -29q3 -6 42 -6q0 3 -4 -39q35 26 35 29t7 29zM482 249q-15 63 -40 191l-39 -191h79zM107 13l106 1q20 19 23 19
q1 0 9 -9.5t10 -9.5h25q6 0 45 -1q-8 -4 -8 12q0 7 2 17q2 15 -6 15q-5 0 -10 -5q-2 -2 -25 12t-26 14q-24 0 -32 -13q-6 -9 -29 -32q-19 13 -19 16q0 30 -10 25q-19 -9 -19 -19q0 -6 -36 -42zM628 13q150 -2 150 1t-26 48q-61 28 -64 22q-1 -3 0.5 -17.5t-0.5 -17.5
q-1 -4 -16.5 -4.5t-15.5 -2.5t-28 -29zM439 854q34 0 62.5 -17t28.5 -48q0 -30 -28.5 -47.5t-62.5 -17.5q-35 0 -61 17q-30 18 -30 48q0 31 30 49q26 16 61 16zM439 814q-25 0 -40 -10q-11 -8 -11 -15t11 -14q15 -11 40 -11t40 11q11 7 11 14t-11 15q-15 10 -40 10z" />
    <glyph glyph-name="ccedilla" unicode="&#xe7;" horiz-adv-x="599" 
d="M453 -114q0 -48 -32 -73t-81 -25q-41 0 -78 17l2 57l50 -14q65 0 65 26q0 16 -25 26q-19 8 -38 8l-50 -4v104q-103 34 -169.5 122t-66.5 198q0 142 105 250.5t247 108.5q72 0 143 -23v38h11v-42v-1l35 -13v-9l-36 13l1 -209l24 -18v-15l-24 19v-37l-9 3v45
q-60 36 -125 36q-58 0 -99 -41t-41 -99t40.5 -97t98.5 -39q87 0 128 40v52h9v-45l24 16v-13l-25 -16l-1 -204l39 9v-13l-39 -9v-24h-11v22q-59 -22 -153 -22q-24 0 -48 3v-32q129 0 129 -76zM526 451v98q-3 2 -8 3q-5 0 -17 -16.5t-30 -16.5q-3 0 -40 18v0q-11 -10 -34 -24
q-8 -2 -15 -6q7 -3 7 -4q0 -8 -15 -8q-12 0 -18 10t-8 10q-3 0 -11 -9t-8 -13q0 -5 1 -14.5t1 -14.5q33 19 82 19q59 0 113 -32zM526 26v92v1q-4 0 -21 -27q0 -28 -8 -28q-3 3 -6 3q-13 0 -20.5 -9t-8.5 -9q-4 0 -11.5 19t-14.5 19q-3 0 -11 -3.5t-11 -4.5q-10 -2 -19 -20.5
t-13 -18.5q-3 0 -13.5 6.5t-18.5 6.5q-15 0 -23 -9q-12 18 -20 18q-1 0 -5.5 -3.5t-7.5 -3.5l-3 -3q0 -8 47 -45q7 -1 18.5 -4t18.5 -3t23.5 1.5t19.5 1.5q9 1 48 6q20 6 60 17z" />
    <glyph glyph-name="eacute" unicode="&#xe9;" horiz-adv-x="537" 
d="M516 0h-27v-2h-1v-16h-12v16h-408v-22h-12v24h-35v12h35v651h-35v12h36v27h12v-28l403 1v29h12v-31h23v-12h-23v-11h-2v-174h-12v17h-182v-69h165v23h11v-22h32v-12h-31v-152h31v-12h-32v-19h-11v21h-165v-71h188v30h12v-30h1v0h27v-12h-27v-156h27v-12zM465 509v80
l-12 -27q-2 -6 -14.5 -16t-17.5 -10h-36q-3 0 -36 -27q116 -3 116 0zM361 663l-292 1q1 -46 0 -126q22 27 22 29.5t15 38t15 36.5q0 2 8 -3t9 -5t11.5 -14.5t15.5 -12.5q5 1 24 12.5t22.5 11.5t18.5 4q19 5 24 10q9 9 30 0q10 -3 29 -1q15 1 21 4t27 15zM404 263
q0 -1 -44 13q-6 2 -13 3q-10 4 -12.5 11t-9.5 7q-4 0 -11 -2l-7 -2q-4 0 -22 -30q119 -2 119 0zM287 13q-15 8 -32 17q-2 2 -24 -4q-54 -3 -54 9q-58 22 -49 60q-6 -1 -11 -2q-13 -4 -15 -2q-1 0 -2 26t-9 30q-17 8 -17 15v-147zM133 745l238 105l31 -68l-257 -65z" />
    <glyph glyph-name="egrave" unicode="&#xe8;" horiz-adv-x="537" 
d="M516 0h-27v-2h-1v-16h-12v16h-408v-22h-12v24h-35v12h35v651h-35v12h36v27h12v-28l403 1v29h12v-31h23v-12h-23v-11h-2v-174h-12v17h-182v-69h165v23h11v-22h32v-12h-31v-152h31v-12h-32v-19h-11v21h-165v-71h188v30h12v-30h1v0h27v-12h-27v-156h27v-12zM465 509v80
l-12 -27q-2 -6 -14.5 -16t-17.5 -10h-36q-3 0 -36 -27q116 -3 116 0zM361 663l-292 1q1 -46 0 -126q22 27 22 29.5t15 38t15 36.5q0 2 8 -3t9 -5t11.5 -14.5t15.5 -12.5q5 1 24 12.5t22.5 11.5t18.5 4q19 5 24 10q9 9 30 0q10 -3 29 -1q15 1 21 4t27 15zM404 263
q0 -1 -44 13q-6 2 -13 3q-10 4 -12.5 11t-9.5 7q-4 0 -11 -2l-7 -2q-4 0 -22 -30q119 -2 119 0zM287 13q-15 8 -32 17q-2 2 -24 -4q-54 -3 -54 9q-58 22 -49 60q-6 -1 -11 -2q-13 -4 -15 -2q-1 0 -2 26t-9 30q-17 8 -17 15v-147zM404 745l-238 105l-31 -68l257 -65z" />
    <glyph glyph-name="ecircumflex" unicode="&#xea;" horiz-adv-x="537" 
d="M516 0h-27v-2h-1v-16h-12v16h-408v-22h-12v24h-35v12h35v651h-35v12h36v27h12v-28l403 1v29h12v-31h23v-12h-23v-11h-2v-174h-12v17h-182v-69h165v23h11v-22h32v-12h-31v-152h31v-12h-32v-19h-11v21h-165v-71h188v30h12v-30h1v0h27v-12h-27v-156h27v-12zM465 509v80
l-12 -27q-2 -6 -14.5 -16t-17.5 -10h-36q-3 0 -36 -27q116 -3 116 0zM361 663l-292 1q1 -46 0 -126q22 27 22 29.5t15 38t15 36.5q0 2 8 -3t9 -5t11.5 -14.5t15.5 -12.5q5 1 24 12.5t22.5 11.5t18.5 4q19 5 24 10q9 9 30 0q10 -3 29 -1q15 1 21 4t27 15zM404 263
q0 -1 -44 13q-6 2 -13 3q-10 4 -12.5 11t-9.5 7q-4 0 -11 -2l-7 -2q-4 0 -22 -30q119 -2 119 0zM287 13q-15 8 -32 17q-2 2 -24 -4q-54 -3 -54 9q-58 22 -49 60q-6 -1 -11 -2q-13 -4 -15 -2q-1 0 -2 26t-9 30q-17 8 -17 15v-147zM409 730l-9 -23l-138 45l-137 -45l-10 20
l147 92z" />
    <glyph glyph-name="edieresis" unicode="&#xeb;" horiz-adv-x="537" 
d="M516 0h-27v-2h-1v-16h-12v16h-408v-22h-12v24h-35v12h35v651h-35v12h36v27h12v-28l403 1v29h12v-31h23v-12h-23v-11h-2v-174h-12v17h-182v-69h165v23h11v-22h32v-12h-31v-152h31v-12h-32v-19h-11v21h-165v-71h188v30h12v-30h1v0h27v-12h-27v-156h27v-12zM465 509v80
l-12 -27q-2 -6 -14.5 -16t-17.5 -10h-36q-3 0 -36 -27q116 -3 116 0zM361 663l-292 1q1 -46 0 -126q22 27 22 29.5t15 38t15 36.5q0 2 8 -3t9 -5t11.5 -14.5t15.5 -12.5q5 1 24 12.5t22.5 11.5t18.5 4q19 5 24 10q9 9 30 0q10 -3 29 -1q15 1 21 4t27 15zM404 263
q0 -1 -44 13q-6 2 -13 3q-10 4 -12.5 11t-9.5 7q-4 0 -11 -2l-7 -2q-4 0 -22 -30q119 -2 119 0zM287 13q-15 8 -32 17q-2 2 -24 -4q-54 -3 -54 9q-58 22 -49 60q-6 -1 -11 -2q-13 -4 -15 -2q-1 0 -2 26t-9 30q-17 8 -17 15v-147zM317 776q0 19 14 33t33 14q20 0 33.5 -14
t13.5 -33t-13.5 -33t-33.5 -14q-19 0 -33 14t-14 33zM137 776q0 19 14 33t33 14q20 0 33.5 -14t13.5 -33t-13.5 -33t-33.5 -14q-19 0 -33 14t-14 33z" />
    <glyph glyph-name="iacute" unicode="&#xed;" horiz-adv-x="373" 
d="M345 15l-6 -14h-37v-35l-18 -3v38h-199v-41h-14v41h-40l-3 14h42v646h-34v14h35v8h14v-8h199v41h18v-41h34v-14h-34v-646h43zM284 661h-27q15 -52 15 -49t12 49zM166 661h-82v-97l18 42q-8 39 -3 33q21 -21 28 -21q-2 5 -2 9q0 34 41 34zM287 65q-6 -17 -15 -37
q-3 -3 -9 18l-12 -18q-4 34 -6 34q-3 0 -16 -49h55zM139 13q-26 4 -39 19q-3 3 -19 30q-3 -49 0 -49h58zM43 735l238 105l31 -68l-257 -65z" />
    <glyph glyph-name="igrave" unicode="&#xec;" horiz-adv-x="373" 
d="M345 15l-6 -14h-37v-35l-18 -3v38h-199v-41h-14v41h-40l-3 14h42v646h-34v14h35v38h14v-38h199v11h18v-11h34v-14h-34v-646h43zM284 661h-27q15 -52 15 -49t12 49zM166 661h-82v-97l18 42q-8 39 -3 33q21 -21 28 -21q-2 5 -2 9q0 34 41 34zM287 65q-6 -17 -15 -37
q-3 -3 -9 18l-12 -18q-4 34 -6 34q-3 0 -16 -49h55zM139 13q-26 4 -39 19q-3 3 -19 30q-3 -49 0 -49h58zM324 745l-238 105l-31 -68l257 -65z" />
    <glyph glyph-name="icircumflex" unicode="&#xee;" horiz-adv-x="373" 
d="M345 15l-6 -14h-37v-35l-18 -3v38h-199v-41h-14v41h-40l-3 14h42v646h-34v14h35v8h14v-8h199v11h18v-11h34v-14h-34v-646h43zM284 661h-27q15 -52 15 -49t12 49zM166 661h-82v-97l18 42q-8 39 -3 33q21 -21 28 -21q-2 5 -2 9q0 34 41 34zM287 65q-6 -17 -15 -37
q-3 -3 -9 18l-12 -18q-4 34 -6 34q-3 0 -16 -49h55zM139 13q-26 4 -39 19q-3 3 -19 30q-3 -49 0 -49h58zM334 730l-9 -23l-138 45l-137 -45l-10 20l147 92z" />
    <glyph glyph-name="idieresis" unicode="&#xef;" horiz-adv-x="373" 
d="M345 15l-6 -14h-37v-35l-18 -3v38h-199v-41h-14v41h-40l-3 14h42v646h-34v14h35v18h14v-18h199v21h18v-21h34v-14h-34v-646h43zM284 661h-27q15 -52 15 -49t12 49zM166 661h-82v-97l18 42q-8 39 -3 33q21 -21 28 -21q-2 5 -2 9q0 34 41 34zM287 65q-6 -17 -15 -37
q-3 -3 -9 18l-12 -18q-4 34 -6 34q-3 0 -16 -49h55zM139 13q-26 4 -39 19q-3 3 -19 30q-3 -49 0 -49h58zM227 776q0 19 14 33t33 14q20 0 33.5 -14t13.5 -33t-13.5 -33t-33.5 -14q-19 0 -33 14t-14 33zM47 776q0 19 14 33t33 14q20 0 33.5 -14t13.5 -33t-13.5 -33t-33.5 -14
q-19 0 -33 14t-14 33z" />
    <glyph glyph-name="ntilde" unicode="&#xf1;" horiz-adv-x="797" 
d="M295 678h-17v19h17v-19zM779 661h-63v-640h55v-20h-55v-41h-18v41h-28v0h-130v0h-29v-41h-17v41h-61l-3 17h57l-193 341h-7q12 -74 14 -171v-173h54v-14h-54v-32h-15v32h-187l-3 -52h-17v49h-61v14h63v646h-51v17h52v49h17v-49h259v-14h-48l199 -355h7q-20 116 -20 352
h-43v17h44v22h20v-22h181v52h15v-52h66v-14zM675 658q-17 2 -98 0q2 -4 15 -43q2 0 20 20q18 -4 27 -4t36 27zM698 361v283q-1 -9 -9 -34t-8 -30l9 -57l-23 -58q5 -27 11 -54q8 -32 20 -50zM289 658h-60l20 -14q0 -1 1 -32q2 0 16.5 10.5t17 13t5.5 22.5zM182 658h-86v-170
q10 13 14 13v-2q0 -3 8 -8.5t12 -5.5h1q0 7 2.5 20.5t2.5 19.5q0 9 -2.5 27.5t-2.5 27.5q0 7 7 23.5t11 16.5t15 5t13.5 8t4.5 25zM283 15q-12 42 -16 42q0 -1 -1 -2q-8 -11 -40 -28q-6 51 -10 79q-1 7 -4 20q0 1 -1 2q0 -1 -1 -3q-1 -5 -4 -16q-15 -65 -15 -74
q0 -3 -43 -20h135zM542 810l22 -27q-19 -21 -49 -37q-34 -19 -60 -19q-21 0 -66.5 17.5t-69.5 17.5q-21 0 -45.5 -11.5t-36.5 -25.5l-22 23q3 25 41 48.5t67 23.5q27 0 72 -18t69 -19q29 -3 50 10q14 8 28 17z" />
    <glyph glyph-name="oacute" unicode="&#xf3;" horiz-adv-x="803" 
d="M780 335q0 -165 -109 -266q-104 -96 -262 -96q-159 0 -263 96q-109 101 -109 266q0 163 109 266q106 100 263 100q156 0 262 -100q109 -103 109 -266zM574 320q0 30 -22 60l-6 -21q0 -4 1.5 -13t1.5 -14q-5 -101 -73 -136l-40 -8q-35 -7 -35 -15q0 -15 17 -23
q13 -7 29 -7q46 0 88 67q39 61 39 110zM534 331q0 58 -34.5 98t-90.5 40q-57 0 -91.5 -40t-34.5 -98q0 -60 35 -97.5t91 -37.5q55 0 90 37.5t35 97.5zM213 617q-13 -5 -27 -10q-27 -18 -49 -42q-45 -50 -54 -91q-4 -16 -16 -48q2 1 19 15q8 7 10.5 14.5t4 9.5t9.5 18t11 16
q4 0 7.5 -7t4.5 -7q5 0 19.5 16.5t17.5 24.5q-10 6 -10 17q0 13 24.5 37t28.5 37zM263 745l238 105l31 -68l-257 -65z" />
    <glyph glyph-name="ograve" unicode="&#xf2;" horiz-adv-x="803" 
d="M780 335q0 -165 -109 -266q-104 -96 -262 -96q-159 0 -263 96q-109 101 -109 266q0 163 109 266q106 100 263 100q156 0 262 -100q109 -103 109 -266zM574 320q0 30 -22 60l-6 -21q0 -4 1.5 -13t1.5 -14q-5 -101 -73 -136l-40 -8q-35 -7 -35 -15q0 -15 17 -23
q13 -7 29 -7q46 0 88 67q39 61 39 110zM534 331q0 58 -34.5 98t-90.5 40q-57 0 -91.5 -40t-34.5 -98q0 -60 35 -97.5t91 -37.5q55 0 90 37.5t35 97.5zM213 617q-13 -5 -27 -10q-27 -18 -49 -42q-45 -50 -54 -91q-4 -16 -16 -48q2 1 19 15q8 7 10.5 14.5t4 9.5t9.5 18t11 16
q4 0 7.5 -7t4.5 -7q5 0 19.5 16.5t17.5 24.5q-10 6 -10 17q0 13 24.5 37t28.5 37zM524 745l-238 105l-31 -68l257 -65z" />
    <glyph glyph-name="ocircumflex" unicode="&#xf4;" horiz-adv-x="803" 
d="M780 335q0 -165 -109 -266q-104 -96 -262 -96q-159 0 -263 96q-109 101 -109 266q0 163 109 266q106 100 263 100q156 0 262 -100q109 -103 109 -266zM574 320q0 30 -22 60l-6 -21q0 -4 1.5 -13t1.5 -14q-5 -101 -73 -136l-40 -8q-35 -7 -35 -15q0 -15 17 -23
q13 -7 29 -7q46 0 88 67q39 61 39 110zM534 331q0 58 -34.5 98t-90.5 40q-57 0 -91.5 -40t-34.5 -98q0 -60 35 -97.5t91 -37.5q55 0 90 37.5t35 97.5zM213 617q-13 -5 -27 -10q-27 -18 -49 -42q-45 -50 -54 -91q-4 -16 -16 -48q2 1 19 15q8 7 10.5 14.5t4 9.5t9.5 18t11 16
q4 0 7.5 -7t4.5 -7q5 0 19.5 16.5t17.5 24.5q-10 6 -10 17q0 13 24.5 37t28.5 37zM549 740l-9 -23l-138 45l-137 -45l-10 20l147 92z" />
    <glyph glyph-name="odieresis" unicode="&#xf6;" horiz-adv-x="803" 
d="M780 335q0 -165 -109 -266q-104 -96 -262 -96q-159 0 -263 96q-109 101 -109 266q0 163 109 266q106 100 263 100q156 0 262 -100q109 -103 109 -266zM574 320q0 30 -22 60l-6 -21q0 -4 1.5 -13t1.5 -14q-5 -101 -73 -136l-40 -8q-35 -7 -35 -15q0 -15 17 -23
q13 -7 29 -7q46 0 88 67q39 61 39 110zM534 331q0 58 -34.5 98t-90.5 40q-57 0 -91.5 -40t-34.5 -98q0 -60 35 -97.5t91 -37.5q55 0 90 37.5t35 97.5zM213 617q-13 -5 -27 -10q-27 -18 -49 -42q-45 -50 -54 -91q-4 -16 -16 -48q2 1 19 15q8 7 10.5 14.5t4 9.5t9.5 18t11 16
q4 0 7.5 -7t4.5 -7q5 0 19.5 16.5t17.5 24.5q-10 6 -10 17q0 13 24.5 37t28.5 37zM447 776q0 19 14 33t33 14q20 0 33.5 -14t13.5 -33t-13.5 -33t-33.5 -14q-19 0 -33 14t-14 33zM267 776q0 19 14 33t33 14q20 0 33.5 -14t13.5 -33t-13.5 -33t-33.5 -14q-19 0 -33 14t-14 33
z" />
    <glyph glyph-name="otilde" unicode="&#xf5;" horiz-adv-x="803" 
d="M780 335q0 -165 -109 -266q-104 -96 -262 -96q-159 0 -263 96q-109 101 -109 266q0 163 109 266q106 100 263 100q156 0 262 -100q109 -103 109 -266zM574 320q0 30 -22 60l-6 -21q0 -4 1.5 -13t1.5 -14q-5 -101 -73 -136l-40 -8q-35 -7 -35 -15q0 -15 17 -23
q13 -7 29 -7q46 0 88 67q39 61 39 110zM534 331q0 58 -34.5 98t-90.5 40q-57 0 -91.5 -40t-34.5 -98q0 -60 35 -97.5t91 -37.5q55 0 90 37.5t35 97.5zM213 617q-13 -5 -27 -10q-27 -18 -49 -42q-45 -50 -54 -91q-4 -16 -16 -48q2 1 19 15q8 7 10.5 14.5t4 9.5t9.5 18t11 16
q4 0 7.5 -7t4.5 -7q5 0 19.5 16.5t17.5 24.5q-10 6 -10 17q0 13 24.5 37t28.5 37zM552 820l22 -27q-19 -21 -49 -37q-34 -19 -60 -19q-21 0 -66.5 17.5t-69.5 17.5q-21 0 -45.5 -11.5t-36.5 -25.5l-22 23q3 25 41 48.5t67 23.5q27 0 72 -18t69 -19q29 -3 50 10q14 8 28 17z
" />
    <glyph glyph-name="uacute" unicode="&#xfa;" horiz-adv-x="729" 
d="M698 664h-34v-6v0v-380q0 -143 -81 -216q-76 -69 -215 -69t-215 69q-81 73 -81 216v380h-2v6h-39v11h39v46h14v-46h206v26h14v-26h34v-11h-34v-363q0 -55 6 -68q11 -29 58 -31q47 -1 58 29q5 14 5 70v357h-1v6h-32v11h32v46h14v-46h206v36h14v-36h34v-11zM648 661
q0 3 -83 0q0 -42 12 -57q6 -8 29 -16t36 -23zM227 661l-139 -3q-4 0 -1 -92q2 -91 1 -91q-2 0 11.5 50.5t13.5 54.5t9 18t9 23t19 16q14 5 21 5q3 0 44 6zM496 292q0 22 -9.5 42.5t-17.5 22.5q-16 6 -16 7q0 2 -3 -46t-3 -51t-6.5 -32t-9 -29t-55.5 -19q10 -12 28 -12
q75 0 71 12q-3 8 -7.5 37t-1.5 31l16 8q14 10 14 29zM223 745l238 105l31 -68l-257 -65z" />
    <glyph glyph-name="ugrave" unicode="&#xf9;" horiz-adv-x="729" 
d="M698 664h-34v-6v0v-380q0 -143 -81 -216q-76 -69 -215 -69t-215 69q-81 73 -81 216v380h-2v6h-39v11h39v46h14v-46h206v36h14v-36h34v-11h-34v-363q0 -55 6 -68q11 -29 58 -31q47 -1 58 29q5 14 5 70v357h-1v6h-32v11h32l3 19h14l-3 -19h206v36h14v-36h34v-11zM648 661
q0 3 -83 0q0 -42 12 -57q6 -8 29 -16t36 -23zM227 661l-139 -3q-4 0 -1 -92q2 -91 1 -91q-2 0 11.5 50.5t13.5 54.5t9 18t9 23t19 16q14 5 21 5q3 0 44 6zM496 292q0 22 -9.5 42.5t-17.5 22.5q-16 6 -16 7q0 2 -3 -46t-3 -51t-6.5 -32t-9 -29t-55.5 -19q10 -12 28 -12
q75 0 71 12q-3 8 -7.5 37t-1.5 31l16 8q14 10 14 29zM494 745l-238 105l-31 -68l257 -65z" />
    <glyph glyph-name="ucircumflex" unicode="&#xfb;" horiz-adv-x="729" 
d="M698 664h-34v-6v0v-380q0 -143 -81 -216q-76 -69 -215 -69t-215 69q-81 73 -81 216v380h-2v6h-39v11h39v46h14v-46h206v16h14v-16h34v-11h-34v-363q0 -55 6 -68q11 -29 58 -31q47 -1 58 29q5 14 5 70v357h-1v6h-32v11h32v26h14v-26h206v36h14v-36h34v-11zM648 661
q0 3 -83 0q0 -42 12 -57q6 -8 29 -16t36 -23zM227 661l-139 -3q-4 0 -1 -92q2 -91 1 -91q-2 0 11.5 50.5t13.5 54.5t9 18t9 23t19 16q14 5 21 5q3 0 44 6zM496 292q0 22 -9.5 42.5t-17.5 22.5q-16 6 -16 7q0 2 -3 -46t-3 -51t-6.5 -32t-9 -29t-55.5 -19q10 -12 28 -12
q75 0 71 12q-3 8 -7.5 37t-1.5 31l16 8q14 10 14 29zM519 730l-9 -23l-138 45l-137 -45l-10 20l147 92z" />
    <glyph glyph-name="udieresis" unicode="&#xfc;" horiz-adv-x="729" 
d="M698 664h-34v-6v0v-380q0 -143 -81 -216q-76 -69 -215 -69t-215 69q-81 73 -81 216v380h-2v6h-39v11h39v46h14v-46h206v26h14v-26h34v-11h-34v-363q0 -55 6 -68q11 -29 58 -31q47 -1 58 29q5 14 5 70v357h-1v6h-32v11h32v36h14v-36h206v36h14v-36h34v-11zM648 661
q0 3 -83 0q0 -42 12 -57q6 -8 29 -16t36 -23zM227 661l-139 -3q-4 0 -1 -92q2 -91 1 -91q-2 0 11.5 50.5t13.5 54.5t9 18t9 23t19 16q14 5 21 5q3 0 44 6zM496 292q0 22 -9.5 42.5t-17.5 22.5q-16 6 -16 7q0 2 -3 -46t-3 -51t-6.5 -32t-9 -29t-55.5 -19q10 -12 28 -12
q75 0 71 12q-3 8 -7.5 37t-1.5 31l16 8q14 10 14 29zM407 776q0 19 14 33t33 14q20 0 33.5 -14t13.5 -33t-13.5 -33t-33.5 -14q-19 0 -33 14t-14 33zM227 776q0 19 14 33t33 14q20 0 33.5 -14t13.5 -33t-13.5 -33t-33.5 -14q-19 0 -33 14t-14 33z" />
    <glyph glyph-name="dagger" unicode="&#x2020;" horiz-adv-x="10" 
 />
    <glyph glyph-name="degree" unicode="&#xb0;" horiz-adv-x="345" 
d="M170 729q58 0 99 -41t41 -99t-41 -99t-99 -41t-99 41t-41 99t41 99t99 41zM170 679q-37 0 -63.5 -26.5t-26.5 -63.5q0 -38 26.5 -64t63.5 -26q38 0 64 26t26 64q0 37 -26 63.5t-64 26.5z" />
    <glyph glyph-name="cent" unicode="&#xa2;" horiz-adv-x="386" 
d="M260 51h-84v87h13q-69 16 -114.5 71t-45.5 126q0 68 41.5 125.5t105.5 79.5v78h84v-68q34 -3 66 -13v23h7v-26v0l21 -8v-5l-22 7l1 -125l14 -11v-9l-14 11v-21l-6 2v26q-36 22 -75 22q-34 0 -59 -24.5t-25 -59.5t24.5 -58.5t59.5 -23.5q52 0 76 24v31h6v-26l14 9v-8
l-15 -9l-1 -123l24 6v-8l-24 -5v-15h-6v14q-24 -10 -66 -13v-83zM327 409v59q-2 1 -5 2q-3 0 -10 -10t-18 -10q-2 0 -24 11h-1q-6 -6 -20 -14q-4 -2 -9 -4l4 -2q0 -5 -9 -5q-7 0 -10.5 5.5t-4.5 5.5q-2 0 -7 -5t-5 -8t1 -8.5t1 -8.5q19 12 49 12q35 0 68 -20zM327 154v56h-1
q-2 0 -12 -16q0 -17 -5 -17q-2 2 -3 2q-8 0 -12.5 -5.5t-5.5 -5.5q-2 0 -6.5 11.5t-8.5 11.5q5 0 -13 -5q-6 -1 -11.5 -12t-8.5 -11q-2 0 -8 4t-11 4q-9 0 -14 -6q-7 11 -12 11q-1 0 -3.5 -2.5t-4.5 -2.5l-2 -1q1 -5 29 -27q4 -1 11 -3t11 -2q-8 0 26 3q5 0 28 3q12 4 37 10
z" />
    <glyph glyph-name="sterling" unicode="&#xa3;" horiz-adv-x="637" 
d="M108 14h141l-40 21q-14 23 -14 26q0 2 -87 -47zM409 11q0 -2 115 0l2 107l-31 -57q-25 21 -33 21q-4 0 -8 -20q-3 -20 0 -25q4 -5 -20.5 -15t-24.5 -11zM495 424h12v-38h47v-12h-47v-69h38v-13h-38v-38h-12v38h-169q2 -11 2 -19q0 -40 -49 -92l248 1v39h10v-39h2v-2h51
v-10h-51l-1 -158h48v-12h-47v-41h-10v41h-474v-39h-5v39h-2v0h-38v8h43l1 165q33 14 55.5 42t22.5 59q0 9 -2 18h-122v12h34l1 70h-31v12h62q-14 32 -14 57q0 114 112 183q96 59 214 59q73 0 138 -31l-5 31l14 1q3 -15 7 -40l1 -6l45 -18l-3 -15l-39 17l24 -162l41 -18v-12
l-39 17v-3q-58 34 -70 40q-41 19 -75 19q-45 0 -80 -11q-49 -16 -52 -50q-3 -29 15 -58h187v38zM110 540q-18 -29 -18 -33.5t-8.5 -27t-8.5 -23.5q0 -3 9 -47q1 -26 11 -26q11 0 47 8q-17 21 -44 50q-3 3 -3 13q0 14 6 37z" />
    <glyph glyph-name="section" unicode="&#xa7;" horiz-adv-x="10" 
 />
    <glyph glyph-name="bullet" unicode="&#x2022;" horiz-adv-x="443" 
d="M2 247q0 75 52.5 127.5t127.5 52.5t127.5 -52.5t52.5 -127.5q0 -74 -52.5 -127t-127.5 -53t-127.5 53t-52.5 127z" />
    <glyph glyph-name="paragraph" unicode="&#xb6;" horiz-adv-x="10" 
 />
    <glyph glyph-name="germandbls" unicode="&#xdf;" horiz-adv-x="10" 
 />
    <glyph glyph-name="registered" unicode="&#xae;" horiz-adv-x="425" 
d="M357 504q0 -73 -51.5 -125t-123.5 -52q-73 0 -124.5 52.5t-51.5 126.5q0 73 51.5 124.5t124.5 51.5t124 -52t51 -126zM266 410h-38l-57 86h-26v-86h-33v195h82q4 4 33 -5q34 -12 38 -45q5 -47 -55 -59zM233 557q0 21 -39 21h-51v-44h56q23 0 23 -1q11 4 11 24zM182 650
q-62 1 -103 -41.5t-41 -104.5q0 -60 43 -103t101 -43t100.5 43t42.5 103q0 61 -42 103t-101 43z" />
    <glyph glyph-name="copyright" unicode="&#xa9;" horiz-adv-x="814" 
d="M366 -16q-147 0 -249.5 103t-102.5 251t102.5 251.5t249.5 103.5t250 -103.5t103 -251.5q0 -147 -103 -250.5t-250 -103.5zM366 630q-118 0 -204 -85t-86 -207q0 -121 86 -206t204 -85t204 85t86 206q0 122 -86 207t-204 85zM480 402q-24 81 -104 81q-62 0 -98.5 -41
t-36.5 -103q0 -57 32 -97q37 -45 101 -45q84 0 107 79h63q-34 -142 -169 -142q-90 0 -143.5 58.5t-53.5 148.5q0 87 55 146.5t143 59.5q62 0 107 -36q48 -39 62 -109h-65z" />
    <glyph glyph-name="trademark" unicode="&#x2122;" horiz-adv-x="492" 
d="M382 472v161l-64 -161h-21l-60 156v-156h-33v201h50l54 -137l55 137h51v-201h-32zM98 639v-167h-33v167h-66v34h163v-34h-64z" />
    <glyph glyph-name="acute" unicode="&#xb4;" horiz-adv-x="354" 
d="M3 735l238 105l31 -68l-257 -65z" />
    <glyph glyph-name="dieresis" unicode="&#xa8;" horiz-adv-x="369" 
d="M187 776q0 19 14 33t33 14q20 0 33.5 -14t13.5 -33t-13.5 -33t-33.5 -14q-19 0 -33 14t-14 33zM7 776q0 19 14 33t33 14q20 0 33.5 -14t13.5 -33t-13.5 -33t-33.5 -14q-19 0 -33 14t-14 33z" />
    <glyph glyph-name="AE" unicode="&#xc6;" horiz-adv-x="1035" 
d="M801 -2l2 -39h-12l-2 39h-233l2 -39h-18q-4 36 -4 39v2h-35v1h-4l3 16h36v65h-158l-28 -65h35l-3 -16h-39l-1 -1h-1l-18 -38h-19l19 38h-222l-30 -56l-19 -3l32 60h-44l3 16h49l347 643h-42l4 16h46l19 36h18l-19 -36h141h345l1 28h12v-31h23v-12h-23v-11h-2v-174h-12v17
h-182v-69h165v23h11v-22h32v-12h-31v-152h31v-12h-32v-19h-11v21h-165v-71h188v30h12v-30h1v0h27v-12h-27v-156h27v-12h-27v-2h-1v-16h-12v16h-155zM945 509v80l-12 -27l-32 -26h-36l-36 -27q116 -3 116 0zM841 663l-127 -3l3 -23l17 8h30l51 3zM702 633l-10 28h-226
q-3 -63 62 -63q16 0 30 4q3 2 15 22q10 16 13 15l40 18l-1 -31l20 -19l45 24zM884 270q0 -2 -43 13q-7 1 -13 3q-10 4 -12.5 11t-9.5 7q-4 0 -11 -2t-8 -2q-4 0 -21 -30q118 -2 118 0zM533 249q-3 140 0 191l-96 -190zM767 13q-15 8 -32 17q-2 2 -24 -4q-54 -3 -54 9
q-9 -8 -24 -21zM322 13q-4 5 5 29q6 15 -2 15q-6 0 -12 -5q-2 -2 -22.5 12t-23.5 14q-23 0 -34 -13q-8 -9 -35 -32q-17 13 -16 16q1 5 1 15q-1 12 -5 10q-22 -9 -24 -19q-1 -6 -45 -42l107 1q23 19 26 19q2 0 8 -9.5t7 -9.5h26q5 0 39 -1z" />
    <glyph glyph-name="Oslash" unicode="&#xd8;" horiz-adv-x="803" 
d="M574 320q0 30 -22 60l-6 -21q0 -4 1.5 -13t1.5 -14q-5 -101 -73 -136l-40 -8q-35 -7 -35 -15q0 -15 17 -23q13 -7 29 -7q46 0 88 67q39 61 39 110zM213 617q-13 -5 -27 -10q-27 -18 -49 -42q-45 -50 -54 -91q-4 -16 -16 -48q2 1 19 15q8 7 10.5 14.5t4 9.5t9.5 18t11 16
q4 0 7.5 -7t4.5 -7q5 0 19.5 16.5t17.5 24.5q-10 6 -10 17q0 13 24.5 37t28.5 37zM302 255l150 206q-20 8 -43 8q-57 0 -91.5 -40t-34.5 -98q0 -43 19 -76zM516 405l-148 -203q19 -6 41 -6q55 0 90 37.5t35 97.5q0 41 -18 74zM639 719h108l-83 -112q116 -104 116 -272
q0 -165 -109 -266q-104 -96 -262 -96q-99 0 -180 40q-34 -45 -36 -48h-102l68 93q-122 102 -122 277q0 163 109 266q106 100 263 100q100 0 185 -45z" />
    <glyph glyph-name="plusminus" unicode="&#xb1;" horiz-adv-x="10" 
 />
    <glyph glyph-name="yen" unicode="&#xa5;" horiz-adv-x="787" 
d="M701 658h-81q18 -7 24 -16.5t5 -32.5l-20 -72zM335 592l-32 69h-67q46 -14 99 -69zM164 592q0 1 -20.5 25t-22.5 27q-2 5 38 14h-81l84 -141l-3 49q0 3 2.5 14t2.5 12zM409 9l-89 35q-26 40 -26 37v-66zM158 299h111l-213 365h-41v8h37l-14 38l11 3l15 -41h238l-14 38
l12 3l14 -41h44v-8h-40l69 -170h7q16 53 63 167h-39v11h34l15 35l12 3l-15 -38h242l18 35l11 3l-17 -38h40v-11h-41l-208 -362h122v-66h-128v-74h128v-66h-128v-69h1v-15h35v-11h-35v-34h-12v34h-204v-34h-12v34h-40v11h40v84h-118v66h118v74h-118v66z" />
    <glyph glyph-name="uni00B5" unicode="&#xb5;" horiz-adv-x="573" 
d="M449 415l-130 -70v-132h176v38h16v-36h52v-17h-52v-181h36v-17h-36v-46h-16v45h-393v-56h-17v57h-49v17h49v202l-84 -45v84l84 45v357h-38v14h38v30h19v-29h198v40h17v-41h63v-14h-63v-232l130 71v-84zM305 586q1 0 0 76h-97q1 -7 7 -16q2 -1 4.5 -7.5t3.5 -6.5
q10 0 18 12q2 3 11 2q10 -3 11 -2t7.5 -23.5t6.5 -28.5t12 22zM271 10l-6 16q-27 -4 -28 -4t-13.5 16t-12.5 14q0 -4 -14 -30q-30 22 -30 20t-16 -12q-36 60 -36 62t-16 -22v-56z" />
    <glyph glyph-name="uni00B5" unicode="&#x3bc;" horiz-adv-x="573" 
d="M449 415l-130 -70v-132h176v38h16v-36h52v-17h-52v-181h36v-17h-36v-46h-16v45h-393v-56h-17v57h-49v17h49v202l-84 -45v84l84 45v357h-38v14h38v30h19v-29h198v40h17v-41h63v-14h-63v-232l130 71v-84zM305 586q1 0 0 76h-97q1 -7 7 -16q2 -1 4.5 -7.5t3.5 -6.5
q10 0 18 12q2 3 11 2q10 -3 11 -2t7.5 -23.5t6.5 -28.5t12 22zM271 10l-6 16q-27 -4 -28 -4t-13.5 16t-12.5 14q0 -4 -14 -30q-30 22 -30 20t-16 -12q-36 60 -36 62t-16 -22v-56z" />
    <glyph glyph-name="ordfeminine" unicode="&#xaa;" horiz-adv-x="747" 
d="M738 664h-51l-268 -456h234v42h10v-38h45v-8h-44v-192h44v-8h-44v-3h-1v-34h-10v34h-597l-17 -38l-15 3l20 35h-2v1h-34v8h39l270 461l-211 1l-1 -35h-10v34h-36v8h36q0 29 -1 62v117l1 -1v7h-52v11h52v35h10v-35h574l18 35h10l-15 -38h46v-8zM450 664l-335 -3
q-8 0 -6 -76l3 -77q6 17 12 35q16 40 17.5 46.5t44 25t45.5 22.5q15 15 36 15q3 0 60 -12l72 6q6 0 51 18zM654 95v101q-3 3 -240 3q66 -21 69 -21q7 0 27 -29q6 -10 20 -10q9 0 20.5 4t31.5 15q3 3 22.5 2t22.5 1l2 -16q-2 -27 -2 -20q0 -2 13.5 -15.5t13.5 -14.5zM255 796
l10 23l137 -45l138 45l9 -20l-147 -92z" />
    <glyph glyph-name="ordmasculine" unicode="&#xba;" horiz-adv-x="747" 
d="M738 664h-51l-268 -456h234v42h10v-38h45v-8h-44v-192h44v-8h-44v-3h-1v-34h-10v34h-597l-17 -38l-15 3l20 35h-2v1h-34v8h39l270 461l-211 1l-1 -35h-10v34h-36v8h36q0 29 -1 62v117l1 -1v7h-52v11h52v35h10v-35h574l18 35h10l-15 -38h46v-8zM450 664l-335 -3
q-8 0 -6 -76l3 -77q6 17 12 35q16 40 17.5 46.5t44 25t45.5 22.5q15 15 36 15q3 0 60 -12l72 6q6 0 51 18zM654 95v101q-3 3 -240 3q66 -21 69 -21q7 0 27 -29q6 -10 20 -10q9 0 20.5 4t31.5 15q3 3 22.5 2t22.5 1l2 -16q-2 -27 -2 -20q0 -2 13.5 -15.5t13.5 -14.5zM255 796
l10 23l137 -45l138 45l9 -20l-147 -92z" />
    <glyph glyph-name="ae" unicode="&#xe6;" horiz-adv-x="1035" 
d="M801 -2l2 -39h-12l-2 39h-233l2 -39h-18q-4 36 -4 39v2h-35v1h-4l3 16h36v65h-158l-28 -65h35l-3 -16h-39l-1 -1h-1l-18 -38h-19l19 38h-222l-30 -56l-19 -3l32 60h-44l3 16h49l347 643h-42l4 16h46l19 36h18l-19 -36h141h345l1 28h12v-31h23v-12h-23v-11h-2v-174h-12v17
h-182v-69h165v23h11v-22h32v-12h-31v-152h31v-12h-32v-19h-11v21h-165v-71h188v30h12v-30h1v0h27v-12h-27v-156h27v-12h-27v-2h-1v-16h-12v16h-155zM945 509v80l-12 -27l-32 -26h-36l-36 -27q116 -3 116 0zM841 663l-127 -3l3 -23l17 8h30l51 3zM702 633l-10 28h-226
q-3 -63 62 -63q16 0 30 4q3 2 15 22q10 16 13 15l40 18l-1 -31l20 -19l45 24zM884 270q0 -2 -43 13q-7 1 -13 3q-10 4 -12.5 11t-9.5 7q-4 0 -11 -2t-8 -2q-4 0 -21 -30q118 -2 118 0zM533 249q-3 140 0 191l-96 -190zM767 13q-15 8 -32 17q-2 2 -24 -4q-54 -3 -54 9
q-9 -8 -24 -21zM322 13q-4 5 5 29q6 15 -2 15q-6 0 -12 -5q-2 -2 -22.5 12t-23.5 14q-23 0 -34 -13q-8 -9 -35 -32q-17 13 -16 16q1 5 1 15q-1 12 -5 10q-22 -9 -24 -19q-1 -6 -45 -42l107 1q23 19 26 19q2 0 8 -9.5t7 -9.5h26q5 0 39 -1z" />
    <glyph glyph-name="oslash" unicode="&#xf8;" horiz-adv-x="803" 
d="M574 320q0 30 -22 60l-6 -21q0 -4 1.5 -13t1.5 -14q-5 -101 -73 -136l-40 -8q-35 -7 -35 -15q0 -15 17 -23q13 -7 29 -7q46 0 88 67q39 61 39 110zM213 617q-13 -5 -27 -10q-27 -18 -49 -42q-45 -50 -54 -91q-4 -16 -16 -48q2 1 19 15q8 7 10.5 14.5t4 9.5t9.5 18t11 16
q4 0 7.5 -7t4.5 -7q5 0 19.5 16.5t17.5 24.5q-10 6 -10 17q0 13 24.5 37t28.5 37zM302 255l150 206q-20 8 -43 8q-57 0 -91.5 -40t-34.5 -98q0 -43 19 -76zM516 405l-148 -203q19 -6 41 -6q55 0 90 37.5t35 97.5q0 41 -18 74zM639 719h108l-83 -112q116 -104 116 -272
q0 -165 -109 -266q-104 -96 -262 -96q-99 0 -180 40q-34 -45 -36 -48h-102l68 93q-122 102 -122 277q0 163 109 266q106 100 263 100q100 0 185 -45z" />
    <glyph glyph-name="questiondown" unicode="&#xbf;" horiz-adv-x="554" 
d="M272 317q-47 0 -81 28q-38 31 -38 79q0 47 38 77q34 27 81 27t82 -27q37 -30 37 -77q0 -48 -36 -77.5t-83 -29.5zM187 256v30h159v-178q-8 2 -21 1q-17 -3 -20 -3q-30 0 -50.5 -17.5t-20.5 -48.5q0 -42 38 -42q19 0 30 16t12 38h205q-3 -101 -73.5 -164.5t-167.5 -63.5
q-105 0 -172 59q-72 63 -72 170q0 158 153 203zM334 171l-3 101h-86q29 -12 31.5 -12t25.5 -2q-14 -23 -17 -23t26 -18zM279 -16q-13 3 -31 8q-5 2 -11.5 10t-6.5 10t-5.5 13.5t-5.5 12.5q0 2 4 18t4 17q-26 -29 -28 -29q-1 0 3.5 -9.5t4.5 -15.5q0 -4 -6 -6.5t-6 -15.5
q0 -15 6 -39l23 20l29 -9zM484 -34l11 41l6 34h-60q31 -26 31 -28.5t12 -46.5z" />
    <glyph glyph-name="exclamdown" unicode="&#xa1;" horiz-adv-x="334" 
d="M172 298q-47 0 -82 29q-38 30 -38 78q0 47 38 77q34 27 82 27q47 0 81 -27q38 -30 38 -77q0 -48 -36.5 -77.5t-82.5 -29.5zM266 -158q-2 157 -4 157q-3 0 -24 -20q7 -13 11 -32q-3 -6 -29 -32q0 -21 -6 -44q-3 -1 -32 -4t-32 -5q-6 -2 -18 -20h134zM147 240q0 -2 -48 0
l-3 -67q10 27 33 38q18 9 18 29zM80 258l-2 26h15l1 -25h145l-4 28h18l3 -28h1v-1h34v-18h-34l26 -395h40v-15h-38l3 -45h-18l-3 41h-183l-3 -30h-14l3 34h-58v15h59l10 395h-36v18h35z" />
    <glyph glyph-name="logicalnot" unicode="&#xac;" horiz-adv-x="10" 
 />
    <glyph glyph-name="florin" unicode="&#x192;" horiz-adv-x="10" 
 />
    <glyph glyph-name="guillemotleft" unicode="&#xab;" horiz-adv-x="374" 
d="M282 529l27 -14l-54 -192l54 -192l-24 -14l-110 206zM142 529l27 -14l-54 -192l54 -192l-24 -14l-110 206z" />
    <glyph glyph-name="guillemotright" unicode="&#xbb;" horiz-adv-x="374" 
d="M74 529l-28 -14l54 -192l-54 -192l24 -14l110 206zM214 529l-28 -14l54 -192l-54 -192l24 -14l110 206z" />
    <glyph glyph-name="ellipsis" unicode="&#x2026;" horiz-adv-x="1136" 
d="M957 219q47 0 81 -28q38 -31 38 -79q0 -47 -38 -77q-34 -27 -81 -27t-83 28.5t-36 75.5q0 48 37 79q35 28 82 28zM557 219q47 0 81 -28q38 -31 38 -79q0 -47 -38 -77q-34 -27 -81 -27t-83 28.5t-36 75.5q0 48 37 79q35 28 82 28zM157 219q47 0 81 -28q38 -31 38 -79
q0 -47 -38 -77q-34 -27 -81 -27t-83 28.5t-36 75.5q0 48 37 79q35 28 82 28z" />
    <glyph glyph-name="uni00A0" unicode="&#xa0;" horiz-adv-x="1002" 
 />
    <glyph glyph-name="Agrave" unicode="&#xc0;" horiz-adv-x="828" 
d="M830 1h-27l1 -1h-3l11 -41h-12l-11 41h-226l7 -41h-18l-7 41h-1v1h-44v16h40l-17 65h-162l-15 -65h36v-16h-39v-1h-1l-11 -38h-19l11 38h-222l-19 -56l-18 -3l19 60h-43v16h48l215 643h-42v16h46l11 36h19l-12 -36h231l-9 10h16l9 -10h34v-16h-28l220 -643h32v-16z
M577 619l-19 44h-233q-13 -22 -13 -25q0 -27 16 -27q12 0 29 17q7 5 15 9q18 11 20 14q2 1 9 -34t7 -33t18 6t20 14.5t16 23.5q11 13 29 29q3 2 4 -22q1 -27 2 -29q3 -6 42 -6q0 3 -4 -39q35 26 35 29t7 29zM482 249q-15 63 -40 191l-39 -191h79zM107 13l106 1q20 19 23 19
q1 0 9 -9.5t10 -9.5h25q6 0 45 -1q-8 -4 -8 12q0 7 2 17q2 15 -6 15q-5 0 -10 -5q-2 -2 -25 12t-26 14q-24 0 -32 -13q-6 -9 -29 -32q-19 13 -19 16q0 30 -10 25q-19 -9 -19 -19q0 -6 -36 -42zM628 13q150 -2 150 1t-26 48q-61 28 -64 22q-1 -3 0.5 -17.5t-0.5 -17.5
q-1 -4 -16.5 -4.5t-15.5 -2.5t-28 -29zM574 745l-238 105l-31 -68l257 -65z" />
    <glyph glyph-name="Atilde" unicode="&#xc3;" horiz-adv-x="828" 
d="M830 1h-27l1 -1h-3l11 -41h-12l-11 41h-226l7 -41h-18l-7 41h-1v1h-44v16h40l-17 65h-162l-15 -65h36v-16h-39v-1h-1l-11 -38h-19l11 38h-222l-19 -56l-18 -3l19 60h-43v16h48l215 643h-42v16h46l5 13h19l-6 -13h231l-5 16h15l6 -16h34v-16h-28l220 -643h32v-16zM577 619
l-19 44h-233q-13 -22 -13 -25q0 -27 16 -27q12 0 29 17q7 5 15 9q18 11 20 14q2 1 9 -34t7 -33t18 6t20 14.5t16 23.5q11 13 29 29q3 2 4 -22q1 -27 2 -29q3 -6 42 -6q0 3 -4 -39q35 26 35 29t7 29zM482 249q-15 63 -40 191l-39 -191h79zM107 13l106 1q20 19 23 19
q1 0 9 -9.5t10 -9.5h25q6 0 45 -1q-8 -4 -8 12q0 7 2 17q2 15 -6 15q-5 0 -10 -5q-2 -2 -25 12t-26 14q-24 0 -32 -13q-6 -9 -29 -32q-19 13 -19 16q0 30 -10 25q-19 -9 -19 -19q0 -6 -36 -42zM628 13q150 -2 150 1t-26 48q-61 28 -64 22q-1 -3 0.5 -17.5t-0.5 -17.5
q-1 -4 -16.5 -4.5t-15.5 -2.5t-28 -29zM557 806l18 -24q-16 -19 -41 -34q-28 -17 -50 -17q-18 0 -55.5 16t-57.5 16q-17 0 -38 -10.5t-30 -23.5l-19 22q2 22 34 43.5t57 21.5q22 0 59 -16.5t58 -17.5q24 -2 41 9q12 8 24 15z" />
    <glyph glyph-name="Otilde" unicode="&#xd5;" horiz-adv-x="803" 
d="M780 335q0 -165 -109 -266q-104 -96 -262 -96q-159 0 -263 96q-109 101 -109 266q0 163 109 266q106 100 263 100q156 0 262 -100q109 -103 109 -266zM574 320q0 30 -22 60l-6 -21q0 -4 1.5 -13t1.5 -14q-5 -101 -73 -136l-40 -8q-35 -7 -35 -15q0 -15 17 -23
q13 -7 29 -7q46 0 88 67q39 61 39 110zM534 331q0 58 -34.5 98t-90.5 40q-57 0 -91.5 -40t-34.5 -98q0 -60 35 -97.5t91 -37.5q55 0 90 37.5t35 97.5zM213 617q-13 -5 -27 -10q-27 -18 -49 -42q-45 -50 -54 -91q-4 -16 -16 -48q2 1 19 15q8 7 10.5 14.5t4 9.5t9.5 18t11 16
q4 0 7.5 -7t4.5 -7q5 0 19.5 16.5t17.5 24.5q-10 6 -10 17q0 13 24.5 37t28.5 37zM552 820l22 -27q-19 -21 -49 -37q-34 -19 -60 -19q-21 0 -66.5 17.5t-69.5 17.5q-21 0 -45.5 -11.5t-36.5 -25.5l-22 23q3 25 41 48.5t67 23.5q27 0 72 -18t69 -19q29 -3 50 10q14 8 28 17z
" />
    <glyph glyph-name="OE" unicode="&#x152;" horiz-adv-x="1023" 
d="M955 509v80l-12 -27q-2 -6 -14.5 -16t-17.5 -10h-36q-3 0 -36 -27q116 -3 116 0zM894 263q0 -1 -44 13q-6 2 -13 3q-10 4 -12.5 11t-9.5 7q-4 0 -11 -2l-7 -2q-4 0 -22 -30q119 -2 119 0zM578 664q46 -22 83 -54q42 21 39 21q5 0 20 4q19 5 24 10q9 9 30 0q10 -3 29 -1
q15 1 21 4t27 15zM546 -4q-65 -23 -137 -23q-159 0 -263 96q-109 101 -109 266q0 163 109 266q106 100 263 100q73 0 138 -24v25h12v-28l403 1v29h12v-31h23v-12h-23v-11h-2v-174h-12v17h-182v-69h165v23h11v-22h32v-12h-31v-152h31v-12h-32v-19h-11v21h-165v-71h188v30h12
v-30h1v0h27v-12h-27v-156h27v-12h-27v-2h-1v-16h-12v16h-408v-22h-12v20zM644 47q-25 -18 -52 -32l185 -2q-15 8 -32 17q-2 2 -24 -4q-54 -3 -54 9q-10 2 -23 12zM546 307q-14 -82 -70 -111l-40 -8q-35 -7 -35 -15q0 -15 17 -23q13 -7 29 -7q54 0 99 86v78zM534 331
q0 58 -34.5 98t-90.5 40q-57 0 -91.5 -40t-34.5 -98q0 -60 35 -97.5t91 -37.5q55 0 90 37.5t35 97.5zM213 617q-13 -5 -27 -10q-27 -18 -49 -42q-45 -50 -54 -91q-4 -16 -16 -48q2 1 19 15q8 7 10.5 14.5t4 9.5t9.5 18t11 16q4 0 7.5 -7t4.5 -7q5 0 19.5 16.5t17.5 24.5
q-10 6 -10 17q0 13 24.5 37t28.5 37z" />
    <glyph glyph-name="oe" unicode="&#x153;" horiz-adv-x="1023" 
d="M955 509v80l-12 -27q-2 -6 -14.5 -16t-17.5 -10h-36q-3 0 -36 -27q116 -3 116 0zM894 263q0 -1 -44 13q-6 2 -13 3q-10 4 -12.5 11t-9.5 7q-4 0 -11 -2l-7 -2q-4 0 -22 -30q119 -2 119 0zM578 664q46 -22 83 -54q42 21 39 21q5 0 20 4q19 5 24 10q9 9 30 0q10 -3 29 -1
q15 1 21 4t27 15zM546 -4q-65 -23 -137 -23q-159 0 -263 96q-109 101 -109 266q0 163 109 266q106 100 263 100q73 0 138 -24v25h12v-28l403 1v29h12v-31h23v-12h-23v-11h-2v-174h-12v17h-182v-69h165v23h11v-22h32v-12h-31v-152h31v-12h-32v-19h-11v21h-165v-71h188v30h12
v-30h1v0h27v-12h-27v-156h27v-12h-27v-2h-1v-16h-12v16h-408v-22h-12v20zM644 47q-25 -18 -52 -32l185 -2q-15 8 -32 17q-2 2 -24 -4q-54 -3 -54 9q-10 2 -23 12zM546 307q-14 -82 -70 -111l-40 -8q-35 -7 -35 -15q0 -15 17 -23q13 -7 29 -7q54 0 99 86v78zM534 331
q0 58 -34.5 98t-90.5 40q-57 0 -91.5 -40t-34.5 -98q0 -60 35 -97.5t91 -37.5q55 0 90 37.5t35 97.5zM213 617q-13 -5 -27 -10q-27 -18 -49 -42q-45 -50 -54 -91q-4 -16 -16 -48q2 1 19 15q8 7 10.5 14.5t4 9.5t9.5 18t11 16q4 0 7.5 -7t4.5 -7q5 0 19.5 16.5t17.5 24.5
q-10 6 -10 17q0 13 24.5 37t28.5 37z" />
    <glyph glyph-name="endash" unicode="&#x2013;" horiz-adv-x="679" 
d="M10 222h45v149h-55v17h57v41h11v-41h529v49h13v-49h60v-17h-59v-149h54v-19h-54v0h-1v-68h-13v68h-529v-71h-11v71h-2v0h-45v19z" />
    <glyph glyph-name="emdash" unicode="&#x2014;" horiz-adv-x="983" 
d="M10 222h45v149h-55v17h57v41h11v-41h849v49h13v-49h60v-17h-59v-149h54v-19h-54v0h-1v-68h-13v68h-849v-71h-11v71h-2v0h-45v19z" />
    <glyph glyph-name="quotedblleft" unicode="&#x201c;" horiz-adv-x="535" 
d="M113 425h129l-78 251h-165zM353 425h129l-78 251h-165z" />
    <glyph glyph-name="quotedblright" unicode="&#x201d;" horiz-adv-x="535" 
d="M367 425h-128l77 251h166zM127 425h-128l77 251h166z" />
    <glyph glyph-name="quoteleft" unicode="&#x2018;" horiz-adv-x="305" 
d="M113 425h129l-78 251h-165z" />
    <glyph glyph-name="quoteright" unicode="&#x2019;" horiz-adv-x="305" 
d="M127 425h-128l77 251h166z" />
    <glyph glyph-name="divide" unicode="&#xf7;" horiz-adv-x="10" 
 />
    <glyph glyph-name="ydieresis" unicode="&#xff;" horiz-adv-x="787" 
d="M758 661h-41l-214 -373v-264h1v-15h35v-11h-35v-34h-12v34h-204v-34h-12v34h-40v11h40v279l-220 376h-41v8h37l-14 38l11 3l15 -41h238l-14 38l12 3l14 -41h44v-8h-40l69 -170h7q16 53 63 167h-39v11h34l15 35l12 3l-15 -38h242l18 35l11 3l-17 -38h40v-11zM701 658h-81
q18 -7 24 -16.5t5 -32.5l-20 -72zM335 592l-32 69h-67q46 -14 99 -69zM164 592q0 1 -20.5 25t-22.5 27q-2 5 38 14h-81l84 -141l-3 49q0 3 2.5 14t2.5 12zM409 9l-89 35q-26 40 -26 37v-66zM417 776q0 19 14 33t33 14q20 0 33.5 -14t13.5 -33t-13.5 -33t-33.5 -14
q-19 0 -33 14t-14 33zM237 776q0 19 14 33t33 14q20 0 33.5 -14t13.5 -33t-13.5 -33t-33.5 -14q-19 0 -33 14t-14 33z" />
    <glyph glyph-name="Ydieresis" unicode="&#x178;" horiz-adv-x="787" 
d="M758 661h-41l-214 -373v-264h1v-15h35v-11h-35v-34h-12v34h-204v-34h-12v34h-40v11h40v279l-220 376h-41v8h37l-14 38l11 3l15 -41h238l-14 38l12 3l14 -41h44v-8h-40l69 -170h7q16 53 63 167h-39v11h34l15 35l12 3l-15 -38h242l18 35l11 3l-17 -38h40v-11zM701 658h-81
q18 -7 24 -16.5t5 -32.5l-20 -72zM335 592l-32 69h-67q46 -14 99 -69zM164 592q0 1 -20.5 25t-22.5 27q-2 5 38 14h-81l84 -141l-3 49q0 3 2.5 14t2.5 12zM409 9l-89 35q-26 40 -26 37v-66zM417 776q0 19 14 33t33 14q20 0 33.5 -14t13.5 -33t-13.5 -33t-33.5 -14
q-19 0 -33 14t-14 33zM237 776q0 19 14 33t33 14q20 0 33.5 -14t13.5 -33t-13.5 -33t-33.5 -14q-19 0 -33 14t-14 33z" />
    <glyph glyph-name="currency" unicode="&#xa4;" horiz-adv-x="10" 
 />
    <glyph glyph-name="guilsinglleft" unicode="&#x2039;" horiz-adv-x="198" 
d="M132 529l27 -14l-54 -192l54 -192l-24 -14l-110 206z" />
    <glyph glyph-name="guilsinglright" unicode="&#x203a;" horiz-adv-x="198" 
d="M53 117l-28 14l54 192l-54 192l24 14l110 -206z" />
    <glyph glyph-name="daggerdbl" unicode="&#x2021;" horiz-adv-x="10" 
 />
    <glyph glyph-name="periodcentered" unicode="&#xb7;" horiz-adv-x="270" 
d="M54 354q0 27 20 46t49 19t49 -19t20 -46t-20 -46t-49 -19t-49 19t-20 46z" />
    <glyph glyph-name="periodcentered" unicode="&#x2219;" horiz-adv-x="270" 
d="M54 354q0 27 20 46t49 19t49 -19t20 -46t-20 -46t-49 -19t-49 19t-20 46z" />
    <glyph glyph-name="quotesinglbase" unicode="&#x201a;" horiz-adv-x="305" 
d="M129 -136h-161l97 313h207z" />
    <glyph glyph-name="quotedblbase" unicode="&#x201e;" horiz-adv-x="634" 
d="M429 -136h-161l97 313h207zM129 -136h-161l97 313h207z" />
    <glyph glyph-name="perthousand" unicode="&#x2030;" horiz-adv-x="10" 
 />
    <glyph glyph-name="Acircumflex" unicode="&#xc2;" horiz-adv-x="828" 
d="M830 1h-27l1 -1h-3l11 -41h-12l-11 41h-226l7 -41h-18l-7 41h-1v1h-44v16h40l-17 65h-162l-15 -65h36v-16h-39v-1h-1l-11 -38h-19l11 38h-222l-19 -56l-18 -3l19 60h-43v16h48l215 643h-42v16h46l1 16h19l-2 -16h231l-4 19h16l4 -19h34v-16h-28l220 -643h32v-16zM577 619
l-19 44h-233q-13 -22 -13 -25q0 -27 16 -27q12 0 29 17q7 5 15 9q18 11 20 14q2 1 9 -34t7 -33t18 6t20 14.5t16 23.5q11 13 29 29q3 2 4 -22q1 -27 2 -29q3 -6 42 -6q0 3 -4 -39q35 26 35 29t7 29zM482 249q-15 63 -40 191l-39 -191h79zM107 13l106 1q20 19 23 19
q1 0 9 -9.5t10 -9.5h25q6 0 45 -1q-8 -4 -8 12q0 7 2 17q2 15 -6 15q-5 0 -10 -5q-2 -2 -25 12t-26 14q-24 0 -32 -13q-6 -9 -29 -32q-19 13 -19 16q0 30 -10 25q-19 -9 -19 -19q0 -6 -36 -42zM628 13q150 -2 150 1t-26 48q-61 28 -64 22q-1 -3 0.5 -17.5t-0.5 -17.5
q-1 -4 -16.5 -4.5t-15.5 -2.5t-28 -29zM579 730l-9 -23l-138 45l-137 -45l-10 20l147 92z" />
    <glyph glyph-name="Ecircumflex" unicode="&#xca;" horiz-adv-x="537" 
d="M516 0h-27v-2h-1v-16h-12v16h-408v-22h-12v24h-35v12h35v651h-35v12h36v27h12v-28l403 1v29h12v-31h23v-12h-23v-11h-2v-174h-12v17h-182v-69h165v23h11v-22h32v-12h-31v-152h31v-12h-32v-19h-11v21h-165v-71h188v30h12v-30h1v0h27v-12h-27v-156h27v-12zM465 509v80
l-12 -27q-2 -6 -14.5 -16t-17.5 -10h-36q-3 0 -36 -27q116 -3 116 0zM361 663l-292 1q1 -46 0 -126q22 27 22 29.5t15 38t15 36.5q0 2 8 -3t9 -5t11.5 -14.5t15.5 -12.5q5 1 24 12.5t22.5 11.5t18.5 4q19 5 24 10q9 9 30 0q10 -3 29 -1q15 1 21 4t27 15zM404 263
q0 -1 -44 13q-6 2 -13 3q-10 4 -12.5 11t-9.5 7q-4 0 -11 -2l-7 -2q-4 0 -22 -30q119 -2 119 0zM287 13q-15 8 -32 17q-2 2 -24 -4q-54 -3 -54 9q-58 22 -49 60q-6 -1 -11 -2q-13 -4 -15 -2q-1 0 -2 26t-9 30q-17 8 -17 15v-147zM409 730l-9 -23l-138 45l-137 -45l-10 20
l147 92z" />
    <glyph glyph-name="Aacute" unicode="&#xc1;" horiz-adv-x="828" 
d="M830 1h-27l1 -1h-3l11 -41h-12l-11 41h-226l7 -41h-18l-7 41h-1v1h-44v16h40l-17 65h-162l-15 -65h36v-16h-39v-1h-1l-11 -38h-19l11 38h-222l-19 -56l-18 -3l19 60h-43v16h48l215 643h-42v16h46l-4 13h18l4 -13h231l-14 39h16l14 -39h34v-16h-28l220 -643h32v-16z
M577 619l-19 44h-233q-13 -22 -13 -25q0 -27 16 -27q12 0 29 17q7 5 15 9q18 11 20 14q2 1 9 -34t7 -33t18 6t20 14.5t16 23.5q11 13 29 29q3 2 4 -22q1 -27 2 -29q3 -6 42 -6q0 3 -4 -39q35 26 35 29t7 29zM482 249q-15 63 -40 191l-39 -191h79zM107 13l106 1q20 19 23 19
q1 0 9 -9.5t10 -9.5h25q6 0 45 -1q-8 -4 -8 12q0 7 2 17q2 15 -6 15q-5 0 -10 -5q-2 -2 -25 12t-26 14q-24 0 -32 -13q-6 -9 -29 -32q-19 13 -19 16q0 30 -10 25q-19 -9 -19 -19q0 -6 -36 -42zM628 13q150 -2 150 1t-26 48q-61 28 -64 22q-1 -3 0.5 -17.5t-0.5 -17.5
q-1 -4 -16.5 -4.5t-15.5 -2.5t-28 -29zM303 745l238 105l31 -68l-257 -65z" />
    <glyph glyph-name="Edieresis" unicode="&#xcb;" horiz-adv-x="537" 
d="M516 0h-27v-2h-1v-16h-12v16h-408v-22h-12v24h-35v12h35v651h-35v12h36v27h12v-28l403 1v29h12v-31h23v-12h-23v-11h-2v-174h-12v17h-182v-69h165v23h11v-22h32v-12h-31v-152h31v-12h-32v-19h-11v21h-165v-71h188v30h12v-30h1v0h27v-12h-27v-156h27v-12zM465 509v80
l-12 -27q-2 -6 -14.5 -16t-17.5 -10h-36q-3 0 -36 -27q116 -3 116 0zM361 663l-292 1q1 -46 0 -126q22 27 22 29.5t15 38t15 36.5q0 2 8 -3t9 -5t11.5 -14.5t15.5 -12.5q5 1 24 12.5t22.5 11.5t18.5 4q19 5 24 10q9 9 30 0q10 -3 29 -1q15 1 21 4t27 15zM404 263
q0 -1 -44 13q-6 2 -13 3q-10 4 -12.5 11t-9.5 7q-4 0 -11 -2l-7 -2q-4 0 -22 -30q119 -2 119 0zM287 13q-15 8 -32 17q-2 2 -24 -4q-54 -3 -54 9q-58 22 -49 60q-6 -1 -11 -2q-13 -4 -15 -2q-1 0 -2 26t-9 30q-17 8 -17 15v-147zM317 776q0 19 14 33t33 14q20 0 33.5 -14
t13.5 -33t-13.5 -33t-33.5 -14q-19 0 -33 14t-14 33zM137 776q0 19 14 33t33 14q20 0 33.5 -14t13.5 -33t-13.5 -33t-33.5 -14q-19 0 -33 14t-14 33z" />
    <glyph glyph-name="Egrave" unicode="&#xc8;" horiz-adv-x="537" 
d="M516 0h-27v-2h-1v-16h-12v16h-408v-22h-12v24h-35v12h35v651h-35v12h36v27h12v-28l403 1v29h12v-31h23v-12h-23v-11h-2v-174h-12v17h-182v-69h165v23h11v-22h32v-12h-31v-152h31v-12h-32v-19h-11v21h-165v-71h188v30h12v-30h1v0h27v-12h-27v-156h27v-12zM465 509v80
l-12 -27q-2 -6 -14.5 -16t-17.5 -10h-36q-3 0 -36 -27q116 -3 116 0zM361 663l-292 1q1 -46 0 -126q22 27 22 29.5t15 38t15 36.5q0 2 8 -3t9 -5t11.5 -14.5t15.5 -12.5q5 1 24 12.5t22.5 11.5t18.5 4q19 5 24 10q9 9 30 0q10 -3 29 -1q15 1 21 4t27 15zM404 263
q0 -1 -44 13q-6 2 -13 3q-10 4 -12.5 11t-9.5 7q-4 0 -11 -2l-7 -2q-4 0 -22 -30q119 -2 119 0zM287 13q-15 8 -32 17q-2 2 -24 -4q-54 -3 -54 9q-58 22 -49 60q-6 -1 -11 -2q-13 -4 -15 -2q-1 0 -2 26t-9 30q-17 8 -17 15v-147zM404 745l-238 105l-31 -68l257 -65z" />
    <glyph glyph-name="Iacute" unicode="&#xcd;" horiz-adv-x="373" 
d="M345 15l-6 -14h-37v-35l-18 -3v38h-199v-41h-14v41h-40l-3 14h42v646h-34v14h35v8h14v-8h199v41h18v-41h34v-14h-34v-646h43zM284 661h-27q15 -52 15 -49t12 49zM166 661h-82v-97l18 42q-8 39 -3 33q21 -21 28 -21q-2 5 -2 9q0 34 41 34zM287 65q-6 -17 -15 -37
q-3 -3 -9 18l-12 -18q-4 34 -6 34q-3 0 -16 -49h55zM139 13q-26 4 -39 19q-3 3 -19 30q-3 -49 0 -49h58zM43 735l238 105l31 -68l-257 -65z" />
    <glyph glyph-name="Icircumflex" unicode="&#xce;" horiz-adv-x="373" 
d="M345 15l-6 -14h-37v-35l-18 -3v38h-199v-41h-14v41h-40l-3 14h42v646h-34v14h35v8h14v-8h199v11h18v-11h34v-14h-34v-646h43zM284 661h-27q15 -52 15 -49t12 49zM166 661h-82v-97l18 42q-8 39 -3 33q21 -21 28 -21q-2 5 -2 9q0 34 41 34zM287 65q-6 -17 -15 -37
q-3 -3 -9 18l-12 -18q-4 34 -6 34q-3 0 -16 -49h55zM139 13q-26 4 -39 19q-3 3 -19 30q-3 -49 0 -49h58zM334 730l-9 -23l-138 45l-137 -45l-10 20l147 92z" />
    <glyph glyph-name="Idieresis" unicode="&#xcf;" horiz-adv-x="373" 
d="M345 15l-6 -14h-37v-35l-18 -3v38h-199v-41h-14v41h-40l-3 14h42v646h-34v14h35v18h14v-18h199v21h18v-21h34v-14h-34v-646h43zM284 661h-27q15 -52 15 -49t12 49zM166 661h-82v-97l18 42q-8 39 -3 33q21 -21 28 -21q-2 5 -2 9q0 34 41 34zM287 65q-6 -17 -15 -37
q-3 -3 -9 18l-12 -18q-4 34 -6 34q-3 0 -16 -49h55zM139 13q-26 4 -39 19q-3 3 -19 30q-3 -49 0 -49h58zM227 776q0 19 14 33t33 14q20 0 33.5 -14t13.5 -33t-13.5 -33t-33.5 -14q-19 0 -33 14t-14 33zM47 776q0 19 14 33t33 14q20 0 33.5 -14t13.5 -33t-13.5 -33t-33.5 -14
q-19 0 -33 14t-14 33z" />
    <glyph glyph-name="Igrave" unicode="&#xcc;" horiz-adv-x="373" 
d="M345 15l-6 -14h-37v-35l-18 -3v38h-199v-41h-14v41h-40l-3 14h42v646h-34v14h35v38h14v-38h199v11h18v-11h34v-14h-34v-646h43zM284 661h-27q15 -52 15 -49t12 49zM166 661h-82v-97l18 42q-8 39 -3 33q21 -21 28 -21q-2 5 -2 9q0 34 41 34zM287 65q-6 -17 -15 -37
q-3 -3 -9 18l-12 -18q-4 34 -6 34q-3 0 -16 -49h55zM139 13q-26 4 -39 19q-3 3 -19 30q-3 -49 0 -49h58zM324 745l-238 105l-31 -68l257 -65z" />
    <glyph glyph-name="Oacute" unicode="&#xd3;" horiz-adv-x="803" 
d="M780 335q0 -165 -109 -266q-104 -96 -262 -96q-159 0 -263 96q-109 101 -109 266q0 163 109 266q106 100 263 100q156 0 262 -100q109 -103 109 -266zM574 320q0 30 -22 60l-6 -21q0 -4 1.5 -13t1.5 -14q-5 -101 -73 -136l-40 -8q-35 -7 -35 -15q0 -15 17 -23
q13 -7 29 -7q46 0 88 67q39 61 39 110zM534 331q0 58 -34.5 98t-90.5 40q-57 0 -91.5 -40t-34.5 -98q0 -60 35 -97.5t91 -37.5q55 0 90 37.5t35 97.5zM213 617q-13 -5 -27 -10q-27 -18 -49 -42q-45 -50 -54 -91q-4 -16 -16 -48q2 1 19 15q8 7 10.5 14.5t4 9.5t9.5 18t11 16
q4 0 7.5 -7t4.5 -7q5 0 19.5 16.5t17.5 24.5q-10 6 -10 17q0 13 24.5 37t28.5 37zM263 745l238 105l31 -68l-257 -65z" />
    <glyph glyph-name="Ocircumflex" unicode="&#xd4;" horiz-adv-x="803" 
d="M780 335q0 -165 -109 -266q-104 -96 -262 -96q-159 0 -263 96q-109 101 -109 266q0 163 109 266q106 100 263 100q156 0 262 -100q109 -103 109 -266zM574 320q0 30 -22 60l-6 -21q0 -4 1.5 -13t1.5 -14q-5 -101 -73 -136l-40 -8q-35 -7 -35 -15q0 -15 17 -23
q13 -7 29 -7q46 0 88 67q39 61 39 110zM534 331q0 58 -34.5 98t-90.5 40q-57 0 -91.5 -40t-34.5 -98q0 -60 35 -97.5t91 -37.5q55 0 90 37.5t35 97.5zM213 617q-13 -5 -27 -10q-27 -18 -49 -42q-45 -50 -54 -91q-4 -16 -16 -48q2 1 19 15q8 7 10.5 14.5t4 9.5t9.5 18t11 16
q4 0 7.5 -7t4.5 -7q5 0 19.5 16.5t17.5 24.5q-10 6 -10 17q0 13 24.5 37t28.5 37zM549 740l-9 -23l-138 45l-137 -45l-10 20l147 92z" />
    <glyph glyph-name="Ograve" unicode="&#xd2;" horiz-adv-x="803" 
d="M780 335q0 -165 -109 -266q-104 -96 -262 -96q-159 0 -263 96q-109 101 -109 266q0 163 109 266q106 100 263 100q156 0 262 -100q109 -103 109 -266zM574 320q0 30 -22 60l-6 -21q0 -4 1.5 -13t1.5 -14q-5 -101 -73 -136l-40 -8q-35 -7 -35 -15q0 -15 17 -23
q13 -7 29 -7q46 0 88 67q39 61 39 110zM534 331q0 58 -34.5 98t-90.5 40q-57 0 -91.5 -40t-34.5 -98q0 -60 35 -97.5t91 -37.5q55 0 90 37.5t35 97.5zM213 617q-13 -5 -27 -10q-27 -18 -49 -42q-45 -50 -54 -91q-4 -16 -16 -48q2 1 19 15q8 7 10.5 14.5t4 9.5t9.5 18t11 16
q4 0 7.5 -7t4.5 -7q5 0 19.5 16.5t17.5 24.5q-10 6 -10 17q0 13 24.5 37t28.5 37zM524 745l-238 105l-31 -68l257 -65z" />
    <glyph glyph-name="Uacute" unicode="&#xda;" horiz-adv-x="729" 
d="M698 664h-34v-6v0v-380q0 -143 -81 -216q-76 -69 -215 -69t-215 69q-81 73 -81 216v380h-2v6h-39v11h39v46h14v-46h206v26h14v-26h34v-11h-34v-363q0 -55 6 -68q11 -29 58 -31q47 -1 58 29q5 14 5 70v357h-1v6h-32v11h32v46h14v-46h206v36h14v-36h34v-11zM648 661
q0 3 -83 0q0 -42 12 -57q6 -8 29 -16t36 -23zM227 661l-139 -3q-4 0 -1 -92q2 -91 1 -91q-2 0 11.5 50.5t13.5 54.5t9 18t9 23t19 16q14 5 21 5q3 0 44 6zM496 292q0 22 -9.5 42.5t-17.5 22.5q-16 6 -16 7q0 2 -3 -46t-3 -51t-6.5 -32t-9 -29t-55.5 -19q10 -12 28 -12
q75 0 71 12q-3 8 -7.5 37t-1.5 31l16 8q14 10 14 29zM223 745l238 105l31 -68l-257 -65z" />
    <glyph glyph-name="Ucircumflex" unicode="&#xdb;" horiz-adv-x="729" 
d="M698 664h-34v-6v0v-380q0 -143 -81 -216q-76 -69 -215 -69t-215 69q-81 73 -81 216v380h-2v6h-39v11h39v46h14v-46h206v16h14v-16h34v-11h-34v-363q0 -55 6 -68q11 -29 58 -31q47 -1 58 29q5 14 5 70v357h-1v6h-32v11h32v26h14v-26h206v36h14v-36h34v-11zM648 661
q0 3 -83 0q0 -42 12 -57q6 -8 29 -16t36 -23zM227 661l-139 -3q-4 0 -1 -92q2 -91 1 -91q-2 0 11.5 50.5t13.5 54.5t9 18t9 23t19 16q14 5 21 5q3 0 44 6zM496 292q0 22 -9.5 42.5t-17.5 22.5q-16 6 -16 7q0 2 -3 -46t-3 -51t-6.5 -32t-9 -29t-55.5 -19q10 -12 28 -12
q75 0 71 12q-3 8 -7.5 37t-1.5 31l16 8q14 10 14 29zM519 730l-9 -23l-138 45l-137 -45l-10 20l147 92z" />
    <glyph glyph-name="Ugrave" unicode="&#xd9;" horiz-adv-x="729" 
d="M698 664h-34v-6v0v-380q0 -143 -81 -216q-76 -69 -215 -69t-215 69q-81 73 -81 216v380h-2v6h-39v11h39v46h14v-46h206v36h14v-36h34v-11h-34v-363q0 -55 6 -68q11 -29 58 -31q47 -1 58 29q5 14 5 70v357h-1v6h-32v11h32l3 19h14l-3 -19h206v36h14v-36h34v-11zM648 661
q0 3 -83 0q0 -42 12 -57q6 -8 29 -16t36 -23zM227 661l-139 -3q-4 0 -1 -92q2 -91 1 -91q-2 0 11.5 50.5t13.5 54.5t9 18t9 23t19 16q14 5 21 5q3 0 44 6zM496 292q0 22 -9.5 42.5t-17.5 22.5q-16 6 -16 7q0 2 -3 -46t-3 -51t-6.5 -32t-9 -29t-55.5 -19q10 -12 28 -12
q75 0 71 12q-3 8 -7.5 37t-1.5 31l16 8q14 10 14 29zM494 745l-238 105l-31 -68l257 -65z" />
    <glyph glyph-name="circumflex" unicode="&#x2c6;" horiz-adv-x="406" 
d="M339 730l-9 -23l-138 45l-137 -45l-10 20l147 92z" />
    <glyph glyph-name="tilde" unicode="&#x2dc;" horiz-adv-x="395" 
d="M342 810l22 -27q-19 -21 -49 -37q-34 -19 -60 -19q-21 0 -66.5 17.5t-69.5 17.5q-21 0 -45.5 -11.5t-36.5 -25.5l-22 23q3 25 41 48.5t67 23.5q27 0 72 -18t69 -19q29 -3 50 10q14 8 28 17z" />
    <glyph glyph-name="macron" unicode="&#xaf;" horiz-adv-x="322" 
d="M34 813h245v-58h-245v58z" />
    <glyph glyph-name="macron" unicode="&#x2c9;" horiz-adv-x="322" 
d="M34 813h245v-58h-245v58z" />
    <glyph glyph-name="cedilla" unicode="&#xb8;" horiz-adv-x="325" 
d="M124 21v-59q129 0 129 -76q0 -48 -32 -73t-81 -25q-41 0 -78 17l2 57l50 -14q65 0 65 26q0 16 -25 26q-19 8 -38 8l-50 -4v121q21 -11 58 -4z" />
    <glyph glyph-name="Scaron" unicode="&#x160;" 
 />
    <glyph glyph-name="scaron" unicode="&#x161;" 
 />
    <glyph glyph-name="brokenbar" unicode="&#xa6;" 
 />
    <glyph glyph-name="Eth" unicode="&#xd0;" 
 />
    <glyph glyph-name="eth" unicode="&#xf0;" 
 />
    <glyph glyph-name="Yacute" unicode="&#xdd;" 
 />
    <glyph glyph-name="yacute" unicode="&#xfd;" 
 />
    <glyph glyph-name="Thorn" unicode="&#xde;" 
 />
    <glyph glyph-name="thorn" unicode="&#xfe;" 
 />
    <glyph glyph-name="uni00AD" unicode="&#xad;" 
 />
    <glyph glyph-name="uni00AD" unicode="&#x2212;" 
 />
    <glyph glyph-name="multiply" unicode="&#xd7;" 
 />
    <glyph glyph-name="uni00B9" unicode="&#xb9;" horiz-adv-x="0" 
 />
    <glyph glyph-name="uni00B2" unicode="&#xb2;" 
 />
    <glyph glyph-name="uni00B3" unicode="&#xb3;" 
 />
    <glyph glyph-name="onehalf" unicode="&#xbd;" 
 />
    <glyph glyph-name="onequarter" unicode="&#xbc;" 
 />
    <glyph glyph-name="threequarters" unicode="&#xbe;" 
 />
    <glyph glyph-name="Lslash" unicode="&#x141;" 
 />
    <glyph glyph-name="lslash" unicode="&#x142;" 
 />
    <glyph glyph-name="glyph220" 
 />
    <glyph glyph-name="glyph221" 
 />
    <glyph glyph-name="glyph222" 
 />
    <glyph glyph-name="Zcaron" unicode="&#x17d;" 
 />
    <glyph glyph-name="zcaron" unicode="&#x17e;" 
 />
    <glyph glyph-name="glyph225" 
 />
    <glyph glyph-name="glyph226" 
 />
    <glyph glyph-name="glyph227" 
 />
    <glyph glyph-name="glyph228" 
 />
    <glyph glyph-name="glyph229" 
 />
    <glyph glyph-name="glyph230" 
 />
    <glyph glyph-name="glyph231" 
 />
    <glyph glyph-name="glyph232" horiz-adv-x="1005" 
 />
    <glyph glyph-name="notequal" unicode="&#x2260;" horiz-adv-x="10" 
 />
    <glyph glyph-name="infinity" unicode="&#x221e;" horiz-adv-x="10" 
 />
    <glyph glyph-name="lessequal" unicode="&#x2264;" horiz-adv-x="10" 
 />
    <glyph glyph-name="greaterequal" unicode="&#x2265;" horiz-adv-x="10" 
 />
    <glyph glyph-name="partialdiff" unicode="&#x2202;" horiz-adv-x="573" 
d="M449 415l-130 -70v-132h176v38h16v-36h52v-17h-52v-181h36v-17h-36v-46h-16v45h-393v-56h-17v57h-49v17h49v202l-84 -45v84l84 45v357h-38v14h38v30h19v-29h198v40h17v-41h63v-14h-63v-232l130 71v-84zM305 586q1 0 0 76h-97q1 -7 7 -16q2 -1 4.5 -7.5t3.5 -6.5
q10 0 18 12q2 3 11 2q10 -3 11 -2t7.5 -23.5t6.5 -28.5t12 22zM271 10l-6 16q-27 -4 -28 -4t-13.5 16t-12.5 14q0 -4 -14 -30q-30 22 -30 20t-16 -12q-36 60 -36 62t-16 -22v-56z" />
    <glyph glyph-name="summation" unicode="&#x2211;" horiz-adv-x="583" 
d="M576 613l-5 -12l-42 17l-48 -147l30 -17l-6 -13q-10 11 -16 13l-18 4l-1 6q-68 43 -129 41q-50 -2 -49 -37q1 -22 48 -32l53 -10q171 -34 176 -186q4 -114 -81 -183q-75 -63 -188 -67q-113 -3 -223 42l1 -2l-12 7l-3 1l-19 -34h-15l23 41l-31 17l-1 16l37 -21l64 160
l-39 27v18l41 -29v-2l6 -5q77 -59 147 -56q22 0 38 10q21 11 20 32q-1 19 -19 28q-8 3 -34 7l-47 8q-72 11 -121 60q-53 53 -55 129q-4 112 81 178q76 59 190 63q106 3 197 -47l11 45l15 1l-13 -55zM515 627q-13 5 -25 14q0 3 -78 22l-78 13q48 -45 50 -44.5t35 -5t34.5 -5
t17 -10t17.5 -10.5q5 -14 13 -24q3 3 14 50zM465 381l-47 20q-25 11 -47 11q-1 -1 -29 9q-14 4 -27 7q0 -9 26 -33q8 -7 41 -17t37.5 -7.5t42.5 -5.5zM256 160q-34 7 -75 19q-6 6 -50 29q-17 -45 -37 -91q-3 0 -2 -15q2 -15 6 -15q12 13 24 27q31 27 45 28q4 0 45 -2t42 -1
q3 0 2 21zM175 796l10 23l137 -45l138 45l9 -20l-147 -92z" />
    <glyph glyph-name="product" unicode="&#x220f;" horiz-adv-x="583" 
d="M576 613l-5 -12l-42 17l-48 -147l30 -17l-6 -13q-10 11 -16 13l-18 4l-1 6q-68 43 -129 41q-50 -2 -49 -37q1 -22 48 -32l53 -10q171 -34 176 -186q4 -114 -81 -183q-75 -63 -188 -67q-113 -3 -223 42l1 -2l-12 7l-3 1l-19 -34h-15l23 41l-31 17l-1 16l37 -21l64 160
l-39 27v18l41 -29v-2l6 -5q77 -59 147 -56q22 0 38 10q21 11 20 32q-1 19 -19 28q-8 3 -34 7l-47 8q-72 11 -121 60q-53 53 -55 129q-4 112 81 178q76 59 190 63q106 3 197 -47l11 45l15 1l-13 -55zM515 627q-13 5 -25 14q0 3 -78 22l-78 13q48 -45 50 -44.5t35 -5t34.5 -5
t17 -10t17.5 -10.5q5 -14 13 -24q3 3 14 50zM465 381l-47 20q-25 11 -47 11q-1 -1 -29 9q-14 4 -27 7q0 -9 26 -33q8 -7 41 -17t37.5 -7.5t42.5 -5.5zM256 160q-34 7 -75 19q-6 6 -50 29q-17 -45 -37 -91q-3 0 -2 -15q2 -15 6 -15q12 13 24 27q31 27 45 28q42 -2 87 -3
q3 0 2 21zM175 796l10 23l137 -45l138 45l9 -20l-147 -92z" />
    <glyph glyph-name="pi" unicode="&#x3c0;" horiz-adv-x="787" 
d="M758 661h-41l-214 -373v-264h1v-15h35v-11h-35v-34h-12v34h-204v-34h-12v34h-40v11h40v279l-220 376h-41v8h37l-14 38l11 3l15 -41h238l-8 13l11 2l9 -15h44v-8h-40l69 -170h7q16 53 63 167h-39v11h34l15 35l12 3l-15 -38h242l18 35l11 3l-17 -38h40v-11zM701 658h-81
q18 -7 24 -16.5t5 -32.5l-20 -72zM335 592l-32 69h-67q46 -14 99 -69zM164 592q0 1 -20.5 25t-22.5 27q-2 5 38 14h-81l84 -141l-3 49q0 3 2.5 14t2.5 12zM409 9l-89 35q-26 40 -26 37v-66zM244 738l239 105l31 -68l-257 -65z" />
    <glyph glyph-name="integral" unicode="&#x222b;" horiz-adv-x="787" 
d="M758 661h-41l-214 -373v-264h1v-15h35v-11h-35v-34h-12v34h-204v-34h-12v34h-40v11h40v279l-220 376h-41v8h37l-14 38l11 3l15 -41h238l-8 13l11 2l9 -15h44v-8h-40l69 -170h7q16 53 63 167h-39v11h34l15 35l12 3l-15 -38h242l18 35l11 3l-17 -38h40v-11zM701 658h-81
q18 -7 24 -16.5t5 -32.5l-20 -72zM335 592l-32 69h-67q46 -14 99 -69zM164 592q0 1 -20.5 25t-22.5 27q-2 5 38 14h-81l84 -141l-3 49q0 3 2.5 14t2.5 12zM409 9l-89 35q-26 40 -26 37v-66zM244 738l239 105l31 -68l-257 -65z" />
    <glyph glyph-name="Omega" unicode="&#x3a9;" horiz-adv-x="631" 
d="M556 451v98q-3 2 -8 3q-5 0 -17 -16.5t-30 -16.5q-3 0 -40 18v0q-11 -10 -34 -24q-8 -2 -15 -6q7 -3 7 -4q0 -8 -15 -8q-12 0 -17.5 10t-8.5 10t-11 -9t-8 -13q0 -5 1 -14.5t1 -14.5q33 19 82 19q59 0 113 -32zM556 26v92v1q-4 0 -21 -27q0 -28 -8 -28q-3 3 -5 3
q-14 0 -21.5 -9t-8.5 -9q-4 0 -11.5 19t-14.5 19q-2 0 -10.5 -3.5t-11.5 -4.5q-9 -2 -18.5 -20.5t-12.5 -18.5q-4 0 -14.5 6.5t-18.5 6.5q-14 0 -23 -9q-12 18 -20 18q-1 0 -5.5 -3.5t-7.5 -3.5l-3 -3q0 -8 47 -45q7 -1 18.5 -4t18.5 -3t23.5 1.5t19.5 1.5q9 1 48 6
q20 6 60 17zM14 420h59q32 114 125 189q97 78 214 78q72 0 143 -23v38h11v-42v-1l35 -13v-9l-36 13l1 -209l24 -18v-15l-24 19v-37l-9 3v45q-60 36 -125 36q-68 0 -110 -54h155v-52h-181q-4 -17 -4 -34v-14h185v-52h-168q39 -70 122 -70q87 0 128 40v52h9v-45l24 16v-13
l-25 -16l-1 -204l39 9v-13l-39 -9v-24h-11v22q-59 -22 -152 -22q-123 0 -219 79t-119 198h-51v52h46v8q0 18 2 40h-48v52z" />
    <glyph glyph-name="Omega" unicode="&#x2126;" horiz-adv-x="631" 
d="M556 451v98q-3 2 -8 3q-5 0 -17 -16.5t-30 -16.5q-3 0 -40 18v0q-11 -10 -34 -24q-8 -2 -15 -6q7 -3 7 -4q0 -8 -15 -8q-12 0 -17.5 10t-8.5 10t-11 -9t-8 -13q0 -5 1 -14.5t1 -14.5q33 19 82 19q59 0 113 -32zM556 26v92v1q-4 0 -21 -27q0 -28 -8 -28q-3 3 -5 3
q-14 0 -21.5 -9t-8.5 -9q-4 0 -11.5 19t-14.5 19q-2 0 -10.5 -3.5t-11.5 -4.5q-9 -2 -18.5 -20.5t-12.5 -18.5q-4 0 -14.5 6.5t-18.5 6.5q-14 0 -23 -9q-12 18 -20 18q-1 0 -5.5 -3.5t-7.5 -3.5l-3 -3q0 -8 47 -45q7 -1 18.5 -4t18.5 -3t23.5 1.5t19.5 1.5q9 1 48 6
q20 6 60 17zM14 420h59q32 114 125 189q97 78 214 78q72 0 143 -23v38h11v-42v-1l35 -13v-9l-36 13l1 -209l24 -18v-15l-24 19v-37l-9 3v45q-60 36 -125 36q-68 0 -110 -54h155v-52h-181q-4 -17 -4 -34v-14h185v-52h-168q39 -70 122 -70q87 0 128 40v52h9v-45l24 16v-13
l-25 -16l-1 -204l39 9v-13l-39 -9v-24h-11v22q-59 -22 -152 -22q-123 0 -219 79t-119 198h-51v52h46v8q0 18 2 40h-48v52z" />
    <glyph glyph-name="radical" unicode="&#x221a;" horiz-adv-x="10" 
 />
    <glyph glyph-name="approxequal" unicode="&#x2248;" horiz-adv-x="10" 
 />
    <glyph glyph-name="approxequal" unicode="&#x22f2;" horiz-adv-x="10" 
 />
    <glyph glyph-name="Delta" unicode="&#x394;" horiz-adv-x="10" 
 />
    <glyph glyph-name="Delta" unicode="&#x2206;" horiz-adv-x="10" 
 />
    <glyph glyph-name="lozenge" unicode="&#x25ca;" horiz-adv-x="10" 
 />
    <glyph glyph-name="fraction" unicode="&#x2044;" horiz-adv-x="10" 
 />
    <glyph glyph-name="uniF001" unicode="&#xf001;" horiz-adv-x="10" 
 />
    <glyph glyph-name="uniF002" unicode="&#xf002;" horiz-adv-x="10" 
 />
    <glyph glyph-name="uniF000" unicode="&#xf000;" horiz-adv-x="10" 
 />
    <glyph glyph-name="dotlessi" unicode="&#x131;" horiz-adv-x="373" 
d="M345 15l-6 -14h-37v-35l-18 -3v38h-199v-41h-14v41h-40l-3 14h42v646h-34v14h35v38h14v-38h199v41h18v-41h34v-14h-34v-646h43zM284 661h-27q15 -52 15 -49t12 49zM166 661h-82v-97l18 42q-8 39 -3 33q21 -21 28 -21q-2 5 -2 9q0 34 41 34zM287 65q-6 -17 -15 -37
q-3 -3 -9 18l-12 -18q-4 34 -6 34q-3 0 -16 -49h55zM139 13q-26 4 -39 19q-3 3 -19 30q-3 -49 0 -49h58z" />
    <glyph glyph-name="breve" unicode="&#x2d8;" horiz-adv-x="316" 
d="M279 794q0 -40 -42 -65q-36 -21 -84 -21t-84 21q-42 25 -42 65h50q0 -11 18 -22q22 -14 58 -14t59 14q17 11 17 22h50z" />
    <glyph glyph-name="dotaccent" unicode="&#x2d9;" horiz-adv-x="198" 
d="M44 782q0 21 15.5 36.5t37.5 15.5t38 -15.5t16 -36.5q0 -22 -16 -37t-38 -15t-37.5 15t-15.5 37z" />
    <glyph glyph-name="ring" unicode="&#x2da;" horiz-adv-x="284" 
d="M139 854q34 0 62.5 -17t28.5 -48q0 -30 -28.5 -47.5t-62.5 -17.5q-35 0 -61 17q-30 18 -30 48q0 31 30 49q26 16 61 16zM139 814q-25 0 -40 -10q-11 -8 -11 -15t11 -14q15 -11 40 -11t40 11q11 7 11 14t-11 15q-15 10 -40 10z" />
    <glyph glyph-name="hungarumlaut" unicode="&#x2dd;" horiz-adv-x="250" 
d="M174 857h61l-82 -121h-38zM74 857h61l-82 -121h-38z" />
    <glyph glyph-name="ogonek" unicode="&#x2db;" horiz-adv-x="256" 
d="M213 -132q-31 -59 -86 -59q-48 0 -76 33.5t-28 86.5q0 51 32.5 85.5t81.5 34.5v-50q-64 0 -64 -70t54 -70q25 0 42 32z" />
    <glyph glyph-name="caron" unicode="&#x2c7;" horiz-adv-x="400" 
d="M45 796l10 23l137 -45l138 45l9 -20l-147 -92z" />
    </font>
</defs>
</svg>
