<?xml version="1.0" standalone="no"?>
<!DOCTYPE svg PUBLIC "-//W3C//DTD SVG 1.1//EN" "http://www.w3.org/Graphics/SVG/1.1/DTD/svg11.dtd" >
<svg>
<metadata>
Created by FontForge 20120731 at Wed Apr 17 21:17:51 2019
 By www-data
Digitized by Dan X. Solo. Software (c)2000 by Dover Publications, Inc., New York.
</metadata>
<defs>
<font id="NervousNellie" horiz-adv-x="20" >
  <font-face 
    font-family="Nervous Nellie"
    font-weight="400"
    font-stretch="normal"
    units-per-em="1000"
    panose-1="0 0 4 0 0 0 0 0 0 0"
    ascent="800"
    descent="-200"
    x-height="452"
    cap-height="674"
    bbox="-67 -263 972 872"
    underline-thickness="20"
    underline-position="-123"
    unicode-range="U+0020-F002"
  />
<missing-glyph horiz-adv-x="500" 
d="M63 0v800h375v-800h-375zM125 63h250v675h-250v-675z" />
    <glyph glyph-name=".notdef" horiz-adv-x="500" 
d="M63 0v800h375v-800h-375zM125 63h250v675h-250v-675z" />
    <glyph glyph-name=".null" horiz-adv-x="0" 
 />
    <glyph glyph-name="glyph2" horiz-adv-x="204" 
 />
    <glyph glyph-name="space" unicode=" " horiz-adv-x="204" 
 />
    <glyph glyph-name="exclam" unicode="!" horiz-adv-x="224" 
d="M129 33q-5 -1 -24 -16t-35 -15q-18 0 -39 16q0 8 -7.5 31t-7.5 27q0 3 12.5 11t12.5 13q0 2 -1 3q26 10 51 10q11 0 24 -36zM153 510q0 -4 -18 -33q-21 -33 -27 -44q-2 -5 0 -21q4 -21 4 -23q0 -21 1 -41t1 -43q-28 -8 -28 -22q0 -10 5 -45q6 -41 10 -50q-9 -3 -20.5 10
t-19.5 13q-5 0 -9 -2q-47 113 -47 127q0 11 18 31.5t19 27.5q4 19 -7 139q-12 130 -12 123l31 39h28q5 -14 13 -41q1 -1 3 -1q4 0 21.5 10t24.5 10q4 0 5 -3q8 -19 8 -71q0 -26 -2 -59t-2 -31z" />
    <glyph glyph-name="quotedbl" unicode="&#x22;" horiz-adv-x="311" 
d="M98 581q0 -4 -8 -29q-8 -28 -13 -37q-2 -4 -2 -31q0 -12 4 -23.5t4 -25.5q-10 -2 -10 -17q0 -29 7 -40q-7 -1 -19 1t-21 -2q-17 34 -17 74q0 7 5 21.5t5.5 17.5t0.5 58l-23 118q8 4 50 4q3 -14 25 -1q6 4 12 4q17 0 17 -12q0 -19 -8.5 -50t-8.5 -30zM242 581q0 -4 -7 -29
q-8 -28 -13 -37q-2 -4 -2 -31q0 -12 3.5 -23.5t3.5 -25.5q-9 -2 -9 -17q0 -4 12 -25q-6 -2 -23 1q-16 3 -26 -1q-14 27 -14 58q0 7 5 21.5t5 16.5q3 11 -6.5 41.5t-9.5 29.5l-6 106q9 4 50 4q4 -14 25 -1q5 3 11 3q16 0 23 -14q3 -4 3 -10q0 -15 -12.5 -41z" />
    <glyph glyph-name="numbersign" unicode="#" horiz-adv-x="482" 
d="M294 429q-18 -2 -34 1q-4 1 -18.5 8t-19.5 8q-2 0 -23.5 -9t-32.5 -9q-5 -1 -14 0q-1 -22 -3 -60q0 -15 -7 -43q-6 -9 -17 -44q11 7 20 9q24 6 50 2q14 -8 38 -16l33 12q0 24 1 37.5t7 41.5q6 11 11 22.5t9 39.5zM32 526q9 -3 27 -7q2 0 16.5 4t25.5 4q6 0 11 -1l1 1
q8 3 25 11q-4 38 -3 46q-1 6 8 20q-5 12 -7.5 37.5t-4.5 33.5l3 12l10 -2q45 -13 66 -44q7 -9 -5 -60q-7 -33 -21 -73q26 4 71 7q25 1 27 0q-2 58 1 73q7 29 37 91q4 -10 27 -56q16 -31 16 -48q0 -22 -20 -37l3.5 -7.5t3.5 -12.5q-1 -6 -2 -13q18 1 38 0q5 0 16 -6t17 -6
q3 0 10.5 3t12.5 3q10 0 10 -10q0 -23 -27 -59q-21 0 -44 5q-37 8 -45 9l-1 -1q-6 -23 -9 -36q3 -6 5 -16q10 -51 7 -67q-12 -11 -25 -30v-1q32 -2 57 -6q2 -6 12 -5t12 -5q14 4 35 0l-6 -81q-9 3 -27 7q-2 0 -16.5 -4t-26.5 -4t-21 4q-16 9 -18 10q-3 -16 -10 -44
q-8 -3 -25 -11q4 -38 2 -46q-3 -12 -18 -26q8 -9 21 -38l-3 -13l-10 3l-27 -17t-41 -17q-10 0 -14 6q-1 2 22 105q14 62 32 99q-30 -4 -43 -4q-35 0 -43.5 5t-34.5 15q5 -10 11 -29q2 -8 2 -44q1 -39 -2 -49q-6 -29 -36 -91q-10 24 -33 28q-17 3 -14 18q4 23 7 47
q8 41 17 48l-4 7.5t-3 12.5q2 21 10 55h-5q-6 0 -21 -10q-18 -13 -25 -16t-13 -3q-19 0 -19 28q0 34 15 66q22 0 81 -11v2q-2 6 -5 16q-9 51 -6 67q1 4 12.5 14.5t12.5 15.5q0 -1 -6 35q-7 1 -12 3.5t-14 17.5q-14 -4 -47 -10z" />
    <glyph glyph-name="dollar" unicode="$" horiz-adv-x="474" 
d="M414 461q-10 1 -21.5 -0.5t-12.5 -1.5q-33 0 -63 16q-4 -5 -17 -22q-4 15 -8.5 29t-20.5 14q-2 0 -22 7.5t-25 7.5q-3 0 -3 -1q0 -4 10 -29.5t10 -28.5t-8.5 -14t-8.5 -14v-21q-1 -14 0 -22q1 -10 5 -11q38 -14 85 -31q32 -10 57 -79q17 -31 43 -88q-17 -4 -43 -13
q0 4 1 -22q1 -16 -6 -22q-15 -13 -63 -21q-43 -6 -53 -23q-4 -5 -3 -18q2 -26 2 -23l-25 5q-6 -24 -6 -30q0 2 17 -33q-11 -3 -27 -3q-24 0 -27 2.5t-15 28.5q-2 3 0.5 12t2.5 13q0 17 -38 36q-27 13 -54 25q-50 28 -54 31q-24 19 -24 46q0 20 31 48q8 -6 51 -39
q32 -24 36 -24t20.5 -6.5t20.5 -6.5q3 0 3 2t-7 30t-7 33q0 3 7 32.5t7 33.5q-4 18 -4 27q0 7 2 8h1v0q-1 2 -2 3q-18 23 -65.5 45t-65.5 47q-10 14 -13 27.5t-7 28.5l6 39q7 1 25 9q7 12 27 32q14 3 35 14q2 3 13 5.5t15 10.5q-25 4 -42 12q23 8 46 15q39 13 40 20
q2 12 0 40q-2 37 -2 41q5 -3 31 -8q21 -4 28 -19q-6 14 -9 14q-1 -1 -1 -4q0 -13 10 -41q12 -33 24 -43l85 -15q11 0 31.5 -17t20.5 -29q0 -5 -20 -24q15 -14 44 -43zM175 467q-7 5 -12 22.5t-11 20.5l-52 -41q5 -19 22 -42q20 -27 33 -27q4 0 12 29.5t8 37.5zM307 196
q0 49 -86 92q-2 -5 1 -39q2 -40 2 -38q0 -1 -1 -22q-1 -17 0 -28q1 -15 6 -22q6 0 20 7.5t18.5 6.5t13 8t12 9t7 1.5t4.5 1.5q0 4 1.5 12t1.5 11z" />
    <glyph glyph-name="percent" unicode="%" horiz-adv-x="778" 
d="M608 670q-32 -67 -106 -182q-4 -7 -10 -9.5t-12 -9.5q-24 -28 -85 -124q-23 -34 -63 -103q-8 -30 -21 -68q-8 -12 -19 -18q-17 -9 -23 -14q-8 -18 -35.5 -62t-33.5 -49l-27 -23q-26 8 -57 22q-4 4 34.5 33.5t39.5 31.5q8 29 22 71q8 18 22 40q2 4 32 35.5t33 36.5
q4 16 13 46q14 31 42 76q22 24 53 58q73 95 143 193q6 4 10.5 15t16.5 15zM577 398v0q17 11 27 11q22 0 60 -41q31 -33 41 -53q9 -16 23 -48q0 -15 5 -45q1 -8 4 -23q2 -10 2 -17q0 -11 -4 -17q1 -20 -18 -31q-7 -3 -14 -8q-4 -24 0 -58q-10 -6 -42 -39q-23 -23 -43 -24
q-5 -6 -19 -7v-16q-17 11 -19 11q-6 -1 -11 -1q-8 0 -17 5t-17 6q-22 3 -56 36q-62 60 -62 141q0 1 -1.5 12t-1.5 20q1 14 5 28q9 14 21 35q-1 14 2 37q5 17 16 23q19 18 30 32q31 42 65 42q5 0 16 -7l7 -4h1zM154 673l1 1q16 11 27 11q22 0 60 -41q30 -33 40 -54
q9 -15 23 -48q1 -15 6 -44q5 -19 5 -22q0 -11 -15 -26q2 -18 -9 -32t-11 -16q-5 -24 -1 -58l-44 -32q-27 -20 -48 -21q-2 -5 -8 -7l-3 -1q-4 -2 -4 -11l-6 -3q-1 -17 -13 -5q-10 10 -15 13q-10 1 -26 2q-22 3 -57 36q-62 60 -62 140q0 56 29 129q40 101 107 101q5 0 16 -7
l7 -4q1 0 1 -1zM585 337l-1 -1q-21 -22 -26 -24q-11 -7 -38 -10q0 -19 -14 -29q6 -13 6 -25q0 -37 -8 -49.5t-8 -10.5q4 -10 9 -23q1 -20 2 -42q11 -19 30 -30l38 -22q18 14 28 20q28 17 28 35v18v17q0 8 7 29t7 36q0 2 -4 15q-4 17 -5 23.5t-21.5 37.5t-29.5 35zM142 346
l1 1q22 21 27 24q11 7 38 10q0 19 14 29q-6 13 -6 25q0 36 9 51q7 11 7 8q0 1 -1 2q-4 9 -10 35q1 13 -1 28q-11 20 -29.5 31t-37.5 21q-18 -14 -29 -20q-28 -16 -28 -34v-18q1 -15 1 -17q0 -9 -7 -29.5t-7 -36.5q0 -1 3 -15q4 -17 5 -23.5t22 -37t29 -34.5z" />
    <glyph glyph-name="ampersand" unicode="&#x26;" horiz-adv-x="563" 
d="M464 473q-4 -6 -30.5 -18.5t-35.5 -12.5q-17 0 -41 28q-22 25 -23 38q0 31 -6 81q-2 5 -12.5 24.5t-10.5 23.5q0 6 10 20.5t14 14.5q2 0 66 -24q17 -1 51 -8q-2 -23 -9 -78q-5 -49 -5 -52q0 -11 32 -37zM538 24q0 -15 -28.5 -38.5t-38.5 -23.5q-5 0 -44 29q-47 35 -64 45
q-24 -28 -52.5 -34.5t-55.5 -11.5v15q0 5 17.5 45t17.5 44q0 -4 -20 53l-28 82q-22 44 -74 52q-2 0 -11.5 3t-14.5 3q-14 0 -14 -11q0 -4 7 -27t7 -28q0 -3 -46 -49q49 -86 131 -127q-34 -55 -112 -55q-56 0 -92 93q-22 58 -22 119q0 28 10 45q13 21 53 46q1 19 -17 45v12
q18 4 54 15q12 7 35.5 33t23.5 39q0 4 -11 25.5t-11 25.5q0 27 52 75q15 -26 27 -58q6 -16 27 -28.5t34 -12.5q-3 0 43 6q12 -96 17 -116q23 -102 64 -102q23 0 29 9l16 36h62q4 0 4 -8q0 -5 -26.5 -58t-26.5 -57q0 -5 39 -75.5t39 -74.5z" />
    <glyph glyph-name="quotesingle" unicode="'" horiz-adv-x="158" 
d="M98 581q0 -4 -8 -29q-8 -28 -13 -37q-2 -4 -2 -31q0 -12 4 -23.5t4 -25.5q-10 -2 -10 -17q0 -4 13 -25q-20 -6 -46 -16q-17 34 -17 74q0 7 5 21.5t5.5 17.5t0.5 58l-23 118q8 4 50 4q3 -14 25 -1q5 3 10 3q22 0 22 -25q0 -15 -10 -40.5z" />
    <glyph glyph-name="parenleft" unicode="(" horiz-adv-x="257" 
d="M197 631q0 -34 -1 -28q-2 -4 -4 -11q-13 -11 -27.5 -22t-19.5 -24q-1 -15 -6 -46q-9 -11 -22 -39q-2 -19 -10 -53q-1 -3 -6.5 -8.5t-5.5 -10.5q0 -4 12 -41t12 -42q0 -4 -14 -31.5t-14 -31.5q0 -3 16 -52q19 -56 25 -79q-1 -10 -1 -31q1 -20 28 -72.5t27 -51.5l23 -72
q-7 -1 -26 6.5t-22 7.5q-4 0 -8.5 -21.5t-9.5 -23.5q-59 62 -97 177q-36 109 -36 210q0 77 23 158q26 86 52 173q5 18 43 48l64 48q5 -14 5 -37z" />
    <glyph glyph-name="parenright" unicode=")" horiz-adv-x="257" 
d="M21 -89q0 35 2 29q1 4 4 11q13 10 27 21.5t20 24.5q0 14 5 45q9 12 23 39q1 19 9 54q2 2 7.5 8t5.5 10q0 5 -12.5 42t-12.5 41t14 32t14 32q0 3 -16 52q-19 55 -25 78q1 11 2 32q-1 20 -28.5 72.5t-27.5 51.5l-22 72q6 0 25.5 -7t22.5 -7t7.5 21.5t9.5 22.5
q60 -62 98 -177q36 -108 36 -209q0 -78 -23 -158q-26 -87 -52 -173q-5 -19 -44 -48q-32 -25 -64 -49q-5 15 -5 37z" />
    <glyph glyph-name="asterisk" unicode="*" horiz-adv-x="348" 
d="M165 540q14 7 42 22q5 3 11 7l52 46q11 -7 27 -22q-6 -5 -2 -15q16 -8 5 -24q-5 -9 -23 -12q-10 -1 -20 -3q-16 -2 -45 -11q-18 -10 -30 -15q16 -6 26 -16q5 -4 27 -16l65 -22q0 -8 -14 -34v0q2 -21 -10 -23q-23 -3 -45 27q-1 2 -3 4q-9 12 -32 33q-8 4 -23 14l-5 4
q1 -5 1 -7q0 -8 -1 -26t-1 -28l14 -68q-3 -2 -6 -2q-5 0 -13.5 4.5t-12.5 4.5l-2 -1q-14 -12 -19 -12q-10 0 -15 10q-5 9 2 27.5t7 17.5q0 8 6 22.5t6 22.5q0 -1 0 8q0 7 2 25l-16 -10q-13 -6 -37 -20l-52 -46q-19 13 -26 24q3 2 2 7q0 5 -1 6q-16 8 -6 24q6 9 24 12
q10 1 20 3q16 2 45 11q6 4 20 11q4 2 9 5q-7 4 -16 9q-12 7 -36 22l-66 22q1 8 9 16l6 5q1 1 4 6q1 0 2 8t2.5 18t9.5 7q2 -2 5 -3q10 -1 22 -15l12 -16q10 -12 33 -33q6 -3 19 -12q4 -2 8 -5q1 3 1 8v26q1 16 0 26l-13 68q9 5 37 5q1 -5 7 -1q4 2 9 2q10 0 15 -10
q5 -9 -2 -26q-7 -20 -7 -19q0 -8 -6 -22.5t-7 -22.5q0 1 0 -8v-12q-1 -9 -1 -12z" />
    <glyph glyph-name="plus" unicode="+" horiz-adv-x="682" 
d="M504 416q13 0 22 -10q14 -14 21 -18q39 10 76 10h31q4 -1 4 -9q0 -12 -11 -40t-18 -32t-82 -25q-18 -4 -41 -4q-5 0 -42.5 13t-42.5 13q-4 0 -20.5 -10t-21.5 -11.5t-10 -2.5q1 -28 3.5 -42.5t15.5 -38.5t13 -28q0 -13 -10 -22q-15 -14 -18 -20q10 -40 10 -77v-31
q-1 -4 -9 -4q-15 0 -52 7q-40 8 -43.5 13.5t-1.5 44.5q2 41 0 47q-5 17 -5 40q0 5 13 42.5t13 42.5q0 4 -10 21q-24 9 -58 20q-22 4 -56 4q-16 0 -78 -3q-47 -2 -71 0q-6 6 -6 29.5t-7 35.5l4 6q42 7 90 21q24 7 64 7q8 0 12 -5.5t12 -7.5q25 -7 75 -8v3q0 10 10 37.5
t11 30.5q2 17 2 36q0 20 -5 74q-5 47 -3 73q7 6 32 17q29 12 39 19l22 -16q13 -71 14 -84q-1 7 -1 -58q0 -8 -6 -12.5t-8 -12.5q-8 -33 -8 -108q47 1 71 5q13 2 37 15t28 13z" />
    <glyph glyph-name="comma" unicode="," horiz-adv-x="237" 
d="M146 3q-7 -22 -24 -34q-5 -14 -11 -42l-10 -24q0 -10 -12 -19t-13 -12q-2 -19 -40 -14q-6 4 -29 16q13 18 27 36q24 32 26 66q-1 -7 -19 33.5t-16 59.5q6 50 66 50q23 0 48 -9q17 -17 17 -46q0 4 -3 -23.5t-7 -37.5z" />
    <glyph glyph-name="hyphen" unicode="-" horiz-adv-x="293" 
d="M7 212q-6 6 -2.5 21.5t-3.5 27.5l13 22q19 2 52 9q10 2 15 2q1 0 10 -4t30 -4q5 0 27 4q17 3 27 1l24 -14l29 3l-6 -57q-27 -3 -65 -17q-61 7 -78 6q-37 -3 -72 0z" />
    <glyph glyph-name="hyphen" unicode="&#x2010;" horiz-adv-x="293" 
d="M7 212q-6 6 -2.5 21.5t-3.5 27.5l13 22q19 2 52 9q10 2 15 2q1 0 10 -4t30 -4q5 0 27 4q17 3 27 1l24 -14l29 3l-6 -57q-27 -3 -65 -17q-61 7 -78 6q-37 -3 -72 0z" />
    <glyph glyph-name="period" unicode="." horiz-adv-x="237" 
d="M164 64q0 -12 -13.5 -33.5t-17.5 -22.5t-22 -1q-23 0 -50 21.5t-27 36.5q0 13 23.5 32t32.5 19q16 0 42 -15q32 -17 32 -37z" />
    <glyph glyph-name="slash" unicode="/" horiz-adv-x="287" 
d="M101 176q-5 -12 -15 -19q-14 -9 -19 -15q-19 -108 -23 -118l-10 -29q-2 -4 -8 -2q-7 2 -19 50q-10 41 -11 53q0 7 10 32.5t11 30.5q-3 19 -2 46q2 4 23.5 36.5t22.5 36.5q0 16 1 46q6 32 22 77q16 24 37 59q1 3 81 190q20 13 51 25l3 -5q-19 -86 -24 -103q-7 -28 -24 -74
q-3 -8 -8.5 -10.5t-9.5 -9.5q-16 -28 -51 -125q-14 -35 -35 -105q0 -29 -3 -67z" />
    <glyph glyph-name="zero" unicode="0" horiz-adv-x="570" 
d="M561 318q0 -4 -16 -16t-31 -24q1 -7 1 -14q0 -23 -18 -46t-19 -31q-9 -46 -3 -99q-39 -30 -79 -59q-47 -33 -85 -30q-4 -25 -4 -81q-19 21 -60 54q-8 5 -25 5q-25 0 -29 1q-35 4 -93 60q-107 103 -107 243q0 98 51 226q69 173 178 173q5 0 22.5 -11t21.5 -11q2 0 19.5 11
t30.5 11q34 0 97 -70q51 -57 69 -92q16 -27 41 -85q4 -11 5 -39.5t4 -40.5q2 -6 15.5 -18t13.5 -17zM407 176q0 5 -13 33.5t-13 32.5q0 11 13 45t13 74q0 5 -7 33.5t-9 38.5q-2 17 -45 80q-47 68 -69 68q-3 0 -27 -23q-26 -26 -39.5 -31.5t-70.5 -12.5q3 -7 3 -16
q0 -39 -32 -42q18 -34 18 -73q0 -32 -9 -56q-2 -5 -11.5 -18.5t-9.5 -16.5q0 -4 8 -21.5t9 -24.5q0 -35 7 -81q23 -42 67 -68q36 -20 73 -40q38 31 59 43q47 28 49 28q36 26 36 48z" />
    <glyph glyph-name="one" unicode="1" horiz-adv-x="346" 
d="M281 70q0 -61 -25 -66l-89 16l5 5q-5 68 -5 60v114q0 266 -92 276q-22 2 -66 9q11 18 44.5 46.5t49.5 33.5q38 12 55 32q14 16 24 51q51 -14 76 -25q9 -58 9 -100q0 -11 -16.5 -26.5t-16.5 -42.5q0 -19 19 -56q14 -25 28 -51v-12q-19 -6 -29 -17q16 -25 21 -66
q1 -33 3 -66q5 -74 5 -115z" />
    <glyph glyph-name="two" unicode="2" horiz-adv-x="519" 
d="M480 355q-71 -40 -71 -67q0 -9 7 -18q-70 -36 -86 -46q-55 -34 -89 -75q24 -33 75 -48q37 -9 75 -18q2 -13 2 -23q0 -77 -96 -77l-20 -3q4 31 -72 31q-4 0 -71 -10.5t-72 -10.5q-18 0 -34 33q-12 27 -12 44q0 5 58 52q53 42 89 68q35 23 69 45q40 27 58 50q3 4 7 35
t10 44q3 7 16.5 17t20.5 19q12 15 12 58q0 28 -22 80q-26 63 -55 63q-24 0 -71.5 -18.5t-51 -26.5t-2.5 -27t-4 -28q-10 -19 -34 -46q-32 -38 -37 -44q-16 10 -43 34t-27 30q0 5 4.5 13.5t4.5 10.5q-2 10 -3 20q-2 13 2 17q18 14 37 39q32 39 35 43q55 63 139 78q50 8 56 8
q27 0 46 -12q16 -11 37.5 -38.5t56.5 -78.5q49 -74 49 -92q0 -5 -1.5 -15t-1.5 -13q-9 -4 -25 -10q16 -29 35 -75v-12z" />
    <glyph glyph-name="three" unicode="3" horiz-adv-x="563" 
d="M517 220q-14 -12 -28 -25q-17 -17 -21 -32q4 -13 4 -40q-15 -58 -60 -126q-4 3 -21 19q-15 13 -17 13q-19 0 -65 -27q-22 -13 -56 -12h-57q-13 19 -48 26q-31 5 -62 11q-17 5 -48.5 48.5t-31.5 60.5q0 52 84 97q17 -40 34 -81q31 -66 62 -66q3 0 22 11t25 11
q4 0 57.5 -19.5t58.5 -19.5q3 0 19 19t16 25q0 5 -10.5 23.5t-10.5 23.5q0 4 10.5 23.5t10.5 24.5q0 14 -45 53q-43 36 -49 36q-4 0 -25 -2q-26 -3 -48 -5q-4 9 -4 23q0 41 5 48q18 27 76 36q62 10 79 28q4 5 4 58q0 48 -1 51q-10 25 -48 44q-64 34 -90 34q-13 0 -56 -28
q3 -12 1 -32q-16 -7 -45 -22q0 -30 -6 -56q-3 -13 -9 -36q-10 -1 -23 -1q-28 0 -48 26q-18 22 -18 40q0 42 40 84q49 44 99 89q-3 -27 6 -50q8 20 16.5 40.5t31.5 20.5q4 0 23.5 -7.5t28.5 -9.5q35 -3 104 -17q28 -9 57 -56q10 -16 15 -33q12 -42 12 -70q0 -9 -2 -27.5
t-2 -31.5v-115q0 -3 54 -100z" />
    <glyph glyph-name="four" unicode="4" horiz-adv-x="519" 
d="M480 192q-53 -60 -108 -66v-82h-55q-15 9 -28 35q-9 21 -19 42q-19 1 -50 6q-15 5 -51 23q-31 15 -36 15q-4 0 -37 -5.5t-38 -5.5q-23 0 -40 13t-17 36t17 45q23 24 47 49q13 19 41 60q5 2 12 7q4 29 20 82q19 19 48 58q10 25 34 74q13 -2 39 2q11 5 27 22q20 21 27 26
q20 12 58 34q5 -5 5 -105q13 -21 31 -64q4 -16 2 -48q-1 -37 0 -49q9 -24 24 -69q-17 -2 -50 -7q30 -63 97 -128zM283 283q0 42 -13 79q-17 50 -49 50q-19 0 -27 -5q2 -19 -27 -32l-48 -18q15 -32 20 -44q35 -84 69 -84q14 0 44.5 17.5t30.5 36.5z" />
    <glyph glyph-name="five" unicode="5" horiz-adv-x="501" 
d="M473 278q0 -17 -21 -47q-27 -38 -32 -51q-8 -22 -17 -66q-11 -50 -17 -69q-22 -73 -120 -73q-29 0 -95 54h-10h-111q-39 0 -66 45q-22 37 -21 71v58q25 -5 66 -19q14 -7 97 -76q3 -3 35 -15q5 -2 15 -22h23q22 0 57 10.5t37 17.5q8 19 3 47q35 22 36.5 24t1.5 32
q0 63 -34 112q-38 54 -108 73q-3 1 -13.5 10.5t-14.5 9.5q-32 0 -84 -39q-78 -58 -82 -60v230q0 28 21 76q28 62 66 62q5 0 34.5 -18t33.5 -18t16 11.5t26 16.5q23 9 55 6q4 0 14.5 1t13.5 1q49 0 76 -5q6 -2 21.5 -21.5t15.5 -25.5v-55q-24 2 -59 6q-28 4 -32 4
q-55 0 -132 -12q-23 -8 -67 -23v-52q5 -5 14 -12q35 -12 54 -12q5 0 34.5 2t33.5 2q21 0 35 -9q6 -10 21 -23q21 3 61 -5q27 -15 66 -60q36 -42 48 -69q5 -10 5 -25z" />
    <glyph glyph-name="six" unicode="6" horiz-adv-x="571" 
d="M522 173q-63 -61 -67 -154q-25 -3 -70 -13q-5 -2 -20.5 -19t-33.5 -17q-76 0 -72 1q-1 3 -3 28q-1 19 -5 19q-5 0 -38 -3.5t-37 -3.5q7 0 -17 -2q-12 -1 -17 3q-22 16 -57 62t-46 73q-4 12 -3 38.5t-3 38.5q-6 16 -11.5 30.5t-5.5 30.5q0 21 15 44.5t15 36.5
q0 5 -13 50.5t-13 50.5q0 66 60 129q58 60 132 76q24 5 95 5q64 0 81 -3q51 -9 70 -45q16 -33 16 -67v-38q-9 -4 -29 -4q-31 0 -46 20q-35 45 -62 68q-37 -26 -68 -26q-12 0 -41 8q-23 -32 -63 -45q-28 -9 -28 -42q0 -23 13.5 -38.5t25.5 -29.5q46 15 56 15q23 0 37 -6
q21 -10 42 -19q4 6 4.5 17.5t1.5 14.5h56q5 0 27 -13q54 -35 82 -101l40 -110v-60zM415 170q0 5 -7 21.5t-7 20.5q0 5 7 11t7 9q0 16 -26 60q-25 40 -34 48q-16 10 -41 36q-3 5 -2 34q-31 -33 -86 -70.5t-70 -53.5q-30 -32 -30 -76q0 -28 50 -79q39 -39 77 -78q12 42 38 42
q5 0 14.5 -5.5t12.5 -5.5q5 0 28 10.5t31 12.5q6 18 10 26q3 4 17 20q11 12 11 17z" />
    <glyph glyph-name="seven" unicode="7" horiz-adv-x="450" 
d="M464 617q0 -3 -32 -40q-37 -43 -51 -67q-3 -6 -5 -31q-1 -28 -5 -38q-1 -5 -12.5 -16t-11.5 -17q0 -5 8 -22q12 -26 14 -30q-18 -8 -37 -17q-23 -11 -36 -24q-6 -16 -20 -47q-8 -6 -21 -4q0 -9 2 -29.5t2 -32.5q-10 -7 -28 -26q-1 -7 -2 -21q-8 -8 -16 -29
q-2 -46 -26 -87q-29 -47 -80 -65q-6 4 -14.5 25.5t-8.5 31.5q0 4 2.5 14t2.5 15q3 52 36.5 110.5t81.5 92.5q4 31 8 63q5 39 23 49q11 3 31 12q1 20 6 51q6 17 30 52t24 39q0 8 -7 12t-26 7q-23 4 -28 6q-9 9 -26 23q-2 1 -23 1q-15 0 -21 -2q-21 -7 -42 -15q-2 0 -58 -6
q-47 -4 -83 -24q-8 34 -8 58q0 96 62 96q4 0 33.5 -7.5t34.5 -7.5q4 0 28 11q30 14 41 18l91 -29q7 5 29 28q18 20 21 20q7 0 62 -46.5t55 -54.5z" />
    <glyph glyph-name="eight" unicode="8" horiz-adv-x="577" 
d="M537 143q-18 -2 -31 -21q-23 -34 -34 -44q1 -6 2 -15q-11 -17 -37 -51q-31 0 -106 -6q-25 -4 -73 -27t-50 -23q-4 0 -22 17t-28 22q-30 8 -88 32q-33 17 -51 61q-14 35 -14 71q-6 9 -6 13q0 -5 31 93q33 13 40 30q2 6 2 33q0 16 -12 38q-15 27 -20 42q-7 24 5 69
q-20 27 -20 43q0 10 28.5 62t51.5 75q29 28 66 28q41 0 195 -26q15 16 11 51q7 -2 63.5 -72t56.5 -85q0 -63 -25.5 -119t-25.5 -59q0 -18 45.5 -126.5t45.5 -105.5zM373 489q0 37 -43 67q-37 26 -69 26q-13 0 -134 -30v-19q0 -21 23 -74q9 -21 33 -33q2 -1 52 -6
q35 -3 39 -28h23q16 -1 26 12q-1 11 -1 33q6 6 33 23q18 11 18 29zM391 139q0 30 -46 97q-51 75 -95 75q-5 0 -6 -2t-5 -2q-9 0 -27.5 8.5t-23.5 13.5h-12q-4 -10 -4 -40q1 -26 -7 -36q-25 -2 -38 -1q1 -1 20 -30q6 -8 6 -23q0 -36 -32 -52q-8 -2 -8 -11q16 -19 44 -33.5
t55 -27.5t25 -13q5 0 23 9.5t23 11.5q33 8 92 28q16 7 16 28z" />
    <glyph glyph-name="nine" unicode="9" horiz-adv-x="583" 
d="M538 412q-10 -8 -30 -27l19 -28q0 -7 -21 -19q-15 -9 -31 -18q4 -11 55 -124v-12q-14 -3 -37 -13q-4 -3 -5.5 -17t-6.5 -22q-2 -2 -38 -22q0 -3 -3 -10q2 -29 -34 -64q-25 -22 -49 -44q-5 4 -15 13.5t-15 12.5q-1 0 -39 -27q-25 -17 -45 -17q-7 0 -19 8q-15 9 -29 13
q-9 2 -46 0q-33 -1 -50 6q-21 9 -36 42q-12 29 -12 52q0 18 15 66q45 -31 90 -61.5t81 -30.5q30 0 73 24q52 27 52 61q0 14 -11.5 30.5t-21.5 16.5q-5 0 -26 -8q-27 -10 -39 -14q-3 9 -10 26q-25 -37 -53 -37q-15 0 -55 32q-72 58 -102 96q-41 52 -41 105q0 42 25.5 105
t23.5 108q6 7 25.5 7t25.5 2q13 6 34 28.5t25 22.5q5 0 21.5 -11t20.5 -11q5 0 14.5 6t13.5 7q34 5 46 5q50 0 78 -18q12 -8 86 -77q9 -2 24 -10q1 -27 10 -76q5 -11 62 -77zM406 411q-9 29 -38 74q-27 41 -55 82q-87 -18 -127 -41q-69 -38 -69 -109v-28q4 -16 24 -53
q29 -51 56 -51q5 0 39.5 13t39.5 13q9 0 24 -7t19 -15q13 8 30 23q0 23 6 62q8 17 51 37z" />
    <glyph glyph-name="colon" unicode=":" horiz-adv-x="237" 
d="M164 64q0 -12 -13.5 -33.5t-17.5 -22.5t-22 -1q-23 0 -50 21.5t-27 36.5q0 13 23.5 32t32.5 19q16 0 42 -15q32 -17 32 -37zM169 331q0 -11 -15 -26t-20 -16.5t-23 -1.5q-23 0 -55 21.5t-32 36.5q0 12 29 27q26 14 37 14q16 0 45 -16q34 -19 34 -39z" />
    <glyph glyph-name="semicolon" unicode=";" horiz-adv-x="237" 
d="M169 331q0 -11 -15 -26t-20 -16.5t-23 -1.5q-23 0 -55 21.5t-32 36.5q0 12 29 27q26 14 37 14q16 0 45 -16q34 -19 34 -39zM138 19q-2 -23 -4 -27q-4 -9 -22 -23q0 -14 -1 -42l-10 -24q0 -10 -12 -19t-13 -12q-4 -33 -13 -31q-15 10 -46 30q19 41 40 92q0 4 -3 36.5
t-2 36.5q4 34 30 34q-7 0 61 -6z" />
    <glyph glyph-name="less" unicode="&#x3c;" horiz-adv-x="550" 
d="M463 124q-19 -17 -22 -18v0v2v0l-7 -7q5 -12 5 -17q0 -4 -2.5 -6.5t-2.5 -5.5l-35 -17q-29 8 -44.5 8t-16.5 14q-1 19 -2 21q-5 5 -24.5 10.5t-22 11.5t-20 19.5t-17.5 18.5t-58.5 28t-58.5 27.5t-16.5 21t-19.5 23.5q-6 13 -55 47q-47 31 -47 35q0 10 80.5 34t81.5 29
q8 29 88 70q77 39 81 69q35 19 95 42l11 -5q17 -55 35 -55q1 0 4 1h3q7 0 7 -29q0 -9 -78 -43q-81 -36 -84 -44q-11 -25 -93.5 -53.5t-82.5 -30.5q0 -6 66 -49.5t104 -61.5t90 -48q64 -37 58 -42z" />
    <glyph glyph-name="equal" unicode="=" horiz-adv-x="504" 
d="M19 332q-13 7 -13 21q0 2 2 18q1 14 0 25l27 7q37 2 104 9q20 3 29 3q2 0 19.5 -4.5t60.5 -4.5q10 0 53 4q35 3 54 1l49 -13l58 3l-12 -58q-55 -2 -131 -17q-55 11 -104 11q-31 0 -51 -5q-28 -7 -75 -5q-35 3 -70 5zM7 162q-6 4 -6 8t7 13t7 15q0 7 -8 14l27 23
q37 2 104 8q20 3 28 3q3 0 20.5 -4.5t60.5 -4.5q10 0 53 4q35 3 54 1l49 -13l47 -1l-1 -54q-55 -2 -131 -16q-121 7 -156 5q-95 -3 -155 -1z" />
    <glyph glyph-name="greater" unicode="&#x3e;" horiz-adv-x="550" 
d="M17 515q18 16 22 17v0v-1v0l7 7q-5 11 -5 17q0 3 2.5 6t2.5 6l34 17q30 -9 45.5 -9t16.5 -14q0 -19 2 -20q5 -5 24.5 -11t22 -12t19.5 -19.5t17 -18t59 -28t59 -28t15 -19.5q17 -18 20 -24q7 -14 55 -46.5t48 -36.5q0 -9 -78.5 -37t-79.5 -33q-8 -28 -88.5 -65t-84.5 -67
q-35 -19 -96 -41l-10 4q-17 55 -35 55h-4q-3 -1 -4 -1q-6 0 -6 30q0 8 79 43t83 43q11 26 95 55q81 28 81 29q0 6 -66 50t-104 62t-90 48q-64 37 -58 42z" />
    <glyph glyph-name="question" unicode="?" horiz-adv-x="455" 
d="M423 477q0 -4 -99 -126q2 -2 3 -13v-12l-55 -18q-1 0 -5 6.5t-8 10.5q0 -5 8 -27l-93 -132h-58q-4 2 -4 11q0 8 3.5 26.5t4.5 24.5q-3 8 -5 25v92q20 13 58 32q5 2 48 2q23 1 34 5q3 1 34 1q3 5 3 20q0 2 -2 38q-2 41 -3 69t-43 75q-36 40 -55 87q1 5 9 5q44 0 105 -22
q72 -26 88 -29v-89q0 -4 16 -31t16 -31zM146 627q0 -44 -72 -87q-55 -33 -98 -42q9 27 33 80q13 6 36 35q2 4 13 68h11q7 0 36 -15.5t35 -23.5q6 -14 6 -15zM201 50q0 -19 -21 -34.5t-40 -15.5q-15 0 -43 38q-5 25 21 43q21 13 41 25q42 -48 42 -56z" />
    <glyph glyph-name="A" unicode="A" horiz-adv-x="580" 
d="M574 33q-29 -3 -41 -21q-7 -11 -11 -38.5t-11 -37.5q-18 49 -36 97q-22 57 -47 100q-16 27 -64 46q-54 21 -71 39q-1 0 -30 -20q-7 -4 -32 -4t-41.5 8.5l-16.5 8.5q-16 0 -43 -30q9 -11 24 -31q-40 -31 -65 -58q8 -33 -8 -84q-55 15 -73.5 32.5t-18.5 55.5q0 11 5 34
t10.5 29t19.5 11q20 7 21 7q8 4 14 43q5 36 21 107q29 15 45 77q18 72 56 109q1 1 1 4t-2.5 17t-2.5 21q0 8 2 12q9 21 44 60q42 48 78 65l4 -64q-20 -34 -20 -56q0 -31 22 -55q15 27 55 82q64 -60 64 -131q0 -15 -3 -29q-4 -14 24 -48t29 -48q1 -72 19 -123q10 -29 38 -79
q5 -10 26 -39q17 -23 17 -26zM350 377q0 6 -28.5 46t-27.5 56q-32 -24 -42 -24q-5 0 -13.5 3t-12.5 3q14 -21 14 -37q0 -5 -12 -31.5t-12 -30.5q0 -9 56 -65q21 11 47 37q31 29 31 43z" />
    <glyph glyph-name="B" unicode="B" horiz-adv-x="658" 
d="M608 226q0 -4 -9 -13q-20 -17 -21 -18q7 -23 5 -34q-3 -17 -43 -38q20 -23 20 -39q0 -33 -25 -46l-50 -14q-29 -9 -35 -33q5 0 -108 0q7 0 -84 11q19 16 51 44.5t74 35.5q54 9 106 40q9 6 9 44q0 44 -19 72q-22 31 -76 54q-11 5 -116 10l-89 5q-38 0 -49 -4
q-23 -8 -27 -38q-1 -13 -1 -35q0 -13 1 -15q12 -22 21 -43q3 -23 16 -65q4 -8 18.5 -21t20.5 -13q3 0 13 11q5 -4 15 -13t15 -13q-10 -23 -48 -38q-30 -12 -54 -12h-28q-35 0 -66 19q-38 23 -38 62q0 4 12 40.5t12 38.5q0 3 -8.5 20t-8.5 23q0 3 10.5 25.5t12.5 34.5
q8 47 8 117q0 63 -1 68q-3 10 -16.5 31.5t-13.5 25.5t7.5 14t8.5 12q3 13 12 93q3 21 31.5 44t47.5 23q16 0 37 -18t42 -35q-6 -6 -41 -36q-25 -21 -25 -26q0 -4 8.5 -14t8.5 -13v-101q0 -6 7 -19q8 -18 19 -19l90 -6q21 -2 68 -12q44 -11 47 -11q15 0 35 24h24q6 7 13 38
t7 45q0 9 -11 49q-9 37 -6 62q-3 2 -7 2q-5 0 -30.5 -13.5t-30.5 -13.5q-32 0 -32 45q0 61 58 61q4 0 27.5 -7.5t29.5 -8.5q15 0 42 -6q29 -11 59 -62l48 -82q-19 -14 -41 -42q0 -11 -1 -31q-2 -8 -22 -42q-1 -1 -1 -14q0 -41 32.5 -102t32.5 -65z" />
    <glyph glyph-name="C" unicode="C" horiz-adv-x="742" 
d="M700 504q-26 -25 -62 -25q-63 0 -101 34q-40 46 -81 92q-7 8 -53 8q-34 0 -58.5 -10.5t-48.5 -10.5q-3 0 -18.5 2t-23.5 2q-4 0 -4 8q0 9 5 34q7 31 16 46t92 15q59 0 78 -5q5 -6 17 -15q37 -8 110 -30q14 -5 50 -47q29 -33 82 -98zM668 84q-8 6 -39 41q-10 -8 -14 -27
q-6 -24 -9 -31q-21 -37 -58 -54q-10 -5 -25 -5q-52 0 -69 10q-1 -1 -33 -36q-10 -12 -32 -12q-32 0 -52 31q-9 -14 -34 -23q-21 -8 -38 -8q-33 0 -50 19q-8 8 -22.5 39t-31.5 44q-2 2 -24.5 2.5t-30.5 10.5q-12 12 -30 37q-84 160 -84 218q0 32 39 110t41 103q0 2 3.5 13
t3.5 19q17 -8 50 -64q31 -52 31 -59q0 -5 -19 -19l-35 -25q-1 -4 -1 -18q0 -19 15.5 -41.5t15.5 -23.5q0 -5 -20 -23l31 -62q-2 -4 -9.5 -16t-7.5 -16q0 -15 34 -59q28 -37 37 -44q20 -16 61 -41q25 -10 71 -21q41 -11 49 -11q3 0 23.5 10.5t24.5 10.5t13 -1.5t13 -1.5
q16 0 19 6q29 56 77 109q53 59 106 87z" />
    <glyph glyph-name="D" unicode="D" horiz-adv-x="646" 
d="M615 259q0 -31 -33.5 -55.5t-65.5 -47.5q-3 -3 -15 -56.5t-63 -53.5q-3 0 -11 1.5t-13 1.5q-4 0 -65 -25.5t-65 -25.5q4 0 -18 1.5t-68 1.5q-15 4 -17 4q-13 5 -21 17q-6 -12 -23 -30q-20 -11 -46 -11q-56 0 -72 35q-8 19 -8 76q0 86 13.5 127t13.5 97q0 3 -12 41
q-14 42 -18 62.5t-4 97.5q0 71 3 85q11 51 60 81q8 5 62 5q42 0 52 -1q5 -1 19 -10t19 -9q8 0 27 27q15 -11 45 -26q18 -5 41 -5h41q2 0 12 8.5t23 8.5q35 0 84 -64q37 -50 50 -84q4 -10 19 -86q1 -4 15 -27q17 -28 20 -41q0 -11 1 -22q-3 -20 2 -58q16 -37 16 -40zM464 338
q0 18 -4 47q-13 73 -67 148q-37 50 -50 54q-72 22 -104 22q-9 0 -14 -5q-12 -13 -14 -15q-19 -1 -34 0q-2 -10 -6 -25q-4 -2 -33 -9q-21 -6 -20 -10v-279q3 2 5 6t6 4q10 0 19 -5q-6 -7 -6 -6q-3 0 -4 2t-5 2q-6 0 -12 -52q-4 -40 -4 -54q61 -83 76 -83q4 0 16 3.5t15 3.5
q4 0 30.5 -7t31.5 -7q11 0 41 19q26 16 39 27q98 84 98 219z" />
    <glyph glyph-name="E" unicode="E" horiz-adv-x="497" 
d="M443 297q-18 2 -48 6q-25 4 -29 4t-32.5 -7t-32.5 -7q-10 0 -83 12q1 5 -7 5q5 0 -87 -30q0 -18 -2 -54.5t-2 -38.5q0 -51 5 -70q3 -14 22 -38q23 -26 39 -26q4 0 13.5 6t11.5 6q41 15 69 15q4 0 20.5 -5t20.5 -5t20.5 1.5t21.5 1.5q18 0 33 -15l44 -48q-2 -3 -8 -8
q-78 -1 -141 -9q-9 -6 -28 -15q-31 -11 -59 -11q-32 0 -63 20q-52 33 -54 34q-9 0 -24 2q-28 8 -34 47q-1 9 -1 58q0 4 -3.5 39t-3.5 39v99q0 4 -7 68t-7 68q0 58 32 130q38 85 97 128q9 -11 28 -31q23 9 64 20q38 11 45 11q31 0 139 -49l-4 -71q-18 3 -53 11q-5 1 -17 10
t-15 9t-17 -8.5t-22 -10.5q-61 -22 -102 -22q-3 0 -14 12t-15 12q-20 0 -25 -40q-1 -25 -2 -51q-1 -9 -12 -28t-11 -22q0 -15 20 -24l28 -8q3 -8 16 -25q47 -2 82 -32q26 31 67 31q4 0 19.5 -3.5t20.5 -3.5q3 0 15 3.5t17 3.5q23 0 55 -39v-57z" />
    <glyph glyph-name="F" unicode="F" horiz-adv-x="437" 
d="M421 668q-21 -35 -66 -74q-49 -44 -83 -52q-42 -1 -85 -1q-75 -5 -75 -29q0 -4 9 -18q11 -18 13 -22q7 -16 9 -52q39 -33 108 -48q59 -13 118 -10q1 -6 9 -22t8 -20q0 -13 -13 -20q-16 -8 -25 -30q-44 2 -74 2q-80 0 -115 -13q-41 -15 -41 -52v-128q0 -52 -38 -94h-12
q-14 14 -34 49q-22 66 -22 107q0 4 12 24t12 24t-9 20.5t-10.5 22.5t-1.5 58q0 54 1 58q20 85 20 80q0 -2 -8.5 22.5t-8.5 49.5q0 77 36 123q41 52 124 52q27 0 41 -5q19 -7 58 -22z" />
    <glyph glyph-name="G" unicode="G" horiz-adv-x="741" 
d="M666 501q-43 -4 -103 -4q-28 0 -61 28q-17 15 -61 66q-8 9 -16 33q-13 40 -15 47h17q4 0 27 -12q27 -14 38 -17q12 1 36 -2q34 -11 76 -54.5t62 -84.5zM676 134q-22 -15 -26 -51q0 -30 -1 -60q0 -16 -3 -27q-30 7 -45 15q-6 2 -25 17q-15 12 -20 12q-4 0 -44 -19
q-47 -21 -65 -28q0 1 -2 7t-2 11q0 7 4 57q1 11 14.5 24.5t24.5 13.5q9 0 29 -20q18 12 31.5 51.5t13.5 74.5q0 20 -36 56t-57 36h-15q-11 -31 -24 -51q-17 10 -48 32q-13 11 -15 33q-6 4 -19 12q6 4 14 4t13 9q9 18 11 21q5 -3 32 -7q19 -3 29 -13h9l136 10q27 0 43 -18
q12 -13 15.5 -27t14.5 -52q10 -33 10 -37q0 -2 -13 -43q0 -4 7.5 -20t8.5 -23zM366 632q-25 -25 -82 -55q-63 -33 -99 -33q-3 0 -11.5 1.5t-13.5 1.5t-5.5 -3t-1.5 -6q-2 -25 -4 -51q-7 -32 -33 -43q0 -5 -2 -16q-6 -11 -6 -21q0 -6 4 -19.5t2 -23.5q-15 -6 -42 -22
q7 -76 62 -157q59 -86 134 -118l40 -2q38 -7 38 -30q0 -7 -12.5 -30.5t-18.5 -27.5q-12 -8 -38 -8q-28 0 -47 34q-41 -10 -46 -10q-22 0 -28 4q-53 39 -76 59q-42 36 -64 68q-1 2 -1 7q0 4 4 31q3 24 2 36q-1 5 -13.5 34t-12.5 33t10 34t10 35q0 3 -11.5 31.5t-11.5 31.5
q0 27 20 64q24 45 61 67q5 3 40 52q29 40 63 63q11 7 32 11t28 7.5t19 18t17 14.5q4 0 17.5 -6.5t17.5 -6.5q5 0 19 13q18 18 22 20q4 -9 3 -24v-25q3 -17 15 -33z" />
    <glyph glyph-name="H" unicode="H" horiz-adv-x="633" 
d="M588 277q-9 -6 -26 -22q6 -75 1 -167q0 -14 -14 -24q-10 -8 -60 -24q-1 2 -9 23q-6 15 -5 25q4 36 4 66q0 89 -38.5 129.5t-123.5 40.5q-22 0 -33.5 -7.5t-41.5 -39.5q-3 2 -31 27q-11 10 -29 10q-17 0 -16 0q-8 -3 -18 -20q-5 -8 -7 -31q-2 -27 -5 -39q-15 -23 -29 -59
q0 -6 -1 -17q-7 -10 -15 -30q-1 -5 -1 -23l-4 -99q-19 10 -52 31q-9 8 -20 39.5t-11 45.5v139q0 4 4.5 9.5t4.5 8.5q11 47 11 66q0 4 -15 62.5t-15 63.5q0 10 11 20.5t22 21.5q-1 59 2 181q26 -14 53 -28q29 -17 29 -38q0 -5 -10 -35t-10 -34q0 -30 26 -87q28 -64 53 -64
q3 0 6 1q9 3 25 -7q2 -2 19 -15q12 -10 17 -10q4 0 19.5 10t19.5 12q10 5 41 5q33 0 55.5 -12t24.5 -12q27 0 74 90q14 26 14 72q0 12 -2 43q-1 25 0 38q3 42 -1 64q1 4 8 4t28.5 -9t31.5 -18q5 -4 8 -16q4 -18 5 -22q19 -51 19 -82q0 -23 -1.5 -26t-10 -10t-8.5 -12v-94
q0 -4 8.5 -13t10.5 -13q10 -17 9 -44q-1 -43 -1 -45z" />
    <glyph glyph-name="I" unicode="I" horiz-adv-x="219" 
d="M131 181q0 -13 -10 -22q-15 -14 -18 -20q10 -42 10 -77v-31q-1 -4 -9 -4q-11 0 -44 31q-28 27 -34 36q-12 18 -19 45q-5 17 -5 40q0 5 13 42.5t13 42.5q0 4 -9.5 20.5t-11.5 23.5q-8 31 -8 79q0 10 10 37.5t11 30.5q5 34 6 88q2 71 3 89q21 19 56 42l6 -5q8 -41 22 -90
q7 -24 7 -63q0 -8 -6 -12.5t-8 -12.5q-8 -32 -8 -135q0 -85 5 -110q2 -13 15 -37t13 -28z" />
    <glyph glyph-name="J" unicode="J" horiz-adv-x="295" 
d="M262 136q0 -1 -15 -19.5t-19 -48.5q-4 -26 -60 -50q-28 -12 -87 -34q-31 -11 -54 -11q-7 0 -24.5 24.5t-17.5 30.5q0 21 28 38q23 14 41 14q4 0 6.5 -2t6.5 -2q6 0 24 20.5t23 32.5q22 48 27 83q8 55 8 127l-7 186q-1 16 -4 47q-1 5 -7 19t-6 18q0 11 5 24q3 9 25.5 33.5
t33.5 24.5q13 0 31.5 -26t18.5 -31q0 -4 -11.5 -34t-11.5 -34q0 -5 3 -8l5 -5q2 -7 14 -27q8 -12 8 -39q0 -12 -24 -62q0 -4 24 -46q-4 -9 -20 -17q8 -11 18 -33l3 -81q0 -10 4.5 -32.5t4.5 -25.5q0 -4 -7 -12.5t-7 -12.5t10 -13.5t10 -15.5z" />
    <glyph glyph-name="K" unicode="K" horiz-adv-x="547" 
d="M530 620q-24 -24 -70 -75q-9 -24 -39 -74q-9 -13 -36 -28l-44 -26q-5 4 -14.5 14t-15.5 13q-2 3 -2 -5q0 -3 7.5 -15.5t8.5 -17.5q-1 -21 5 -60q12 -37 30 -63q35 -43 104 -130q17 -22 34 -43q25 -33 25 -49q0 -10 -17 -33q-20 -28 -21 -28q-26 14 -69 56q-39 37 -62 45
q-8 2 -18 21q-16 30 -18 32q-17 27 -35 54q-23 33 -46 51q-10 7 -30 10q-26 2 -32 5q-21 -28 -25 -34q-12 -19 -17 -35q1 -22 -5 -71q-1 -4 -8.5 -17t-7.5 -17q0 -12 27 -48v-12q-44 -17 -52 -17q-58 0 -58 47q0 4 8 27.5t8 27.5t-4 8q-7 5 -8 8q-6 12 -5 32q1 21 10 31
q-1 3 -11 18q-8 12 -8 17q8 53 8 141q0 97 -8 172q0 24 31 55q28 29 55 41q9 -34 20 -69t37 -63q-13 -12 -36 -37q7 -11 43 -45q38 -37 47 -37q16 0 31 56q7 28 22 38.5t42 19.5q34 11 44 16q-4 38 -4 35q0 22 13 35q20 20 67 23q74 4 77 4z" />
    <glyph glyph-name="L" unicode="L" horiz-adv-x="424" 
d="M384 71q0 -18 -18 -40t-33 -24q-154 -17 -163 -17q-4 0 -3 1.5t-3 1.5t-26.5 -8.5t-27.5 -8.5q-4 0 -17 6t-18 6q-72 9 -72 189l15 87l9 218v93q0 37 19 56q15 14 70 40l4 -12q-37 -73 -37 -78q0 -13 26 -28q17 -10 35 -20q-40 -70 -40 -71q0 -3 5.5 -15.5t6.5 -17.5
q8 -91 8 -77v-131q0 -33 4 -52q3 -15 27 -45q27 -34 47 -34q4 0 27.5 3t27.5 3q21 0 123 -17q4 0 4 -8z" />
    <glyph glyph-name="M" unicode="M" horiz-adv-x="794" 
d="M710 450q18 -32 15 -32q-19 32 -38 55q0 -5 3.5 -21t1.5 -24q-2 -12 -13 -35t-13 -33l26 -131q-2 -7 -12.5 -24t-10.5 -20t4 -13.5t4 -15.5q1 -11 4.5 -38.5t3.5 -31.5q0 10 -4 -51q-4 -6 -39.5 -19.5t-49.5 -13.5h-14v24q0 5 9.5 40.5t9.5 39.5q0 16 -14.5 38.5
t-14.5 32.5q0 17 13 32l26 22q-19 41 -25 54q-15 28 -35 51q-13 -6 -15 -26q-2 -30 -3 -32q-14 0 -21 1.5t-10 1.5t-9 -10q-6 -13 -9 -16q-8 -3 -22 -9q3 -54 -42 -127q-1 -15 -5 -41q-7 -10 -17 -30q-3 -11 -1 -31q2 -29 2 -35l-48 16q-34 11 -47 30q-3 4 -32 101
q-61 207 -133 220q-17 -17 -20 -44q-1 -7 -1 -48q0 -45 9.5 -61.5t9.5 -26.5q0 -4 -9.5 -23t-9.5 -23q0 -3 8.5 -16t9.5 -19q1 -21 4 -66q-7 -7 -11 -7q-37 0 -92 37q3 8 3 20t-5 37t-5 34q0 25 8 40q6 6 17 19q1 14 3 51q1 30 1 34q0 19 -2 27q-8 30 -13 53q-4 18 -4 122
q0 94 1 99q2 12 21 27q2 6 6 12q4 11 12 43q17 -4 50 -17q41 -21 69 -83q7 -16 30 -89q19 -30 69 -133q2 -4 -1 -24q-1 -8 7 -44q2 -13 23 -39q24 -32 42 -32q5 0 24 22q28 29 35 36q-1 13 9 31q8 14 16 27l-3 25q17 49 78 170q67 134 80 134l27.5 -3.5t49.5 -3.5q4 0 4 -7
q0 -4 -11.5 -15.5t-11.5 -15.5q0 -6 11 -21t20 -22q3 -29 5.5 -58t11.5 -58z" />
    <glyph glyph-name="N" unicode="N" horiz-adv-x="625" 
d="M545 231q-3 -6 -26 -20q-6 -39 26 -61q-4 -8 -32 -36q18 -31 22 -53q-20 -9 -22 -30.5t-4 -41.5h-11q-2 0 -59 20q-23 23 -69 68q-21 22 -43 64l-30 56q-92 145 -141 143q0 18 -4 42q-6 29 -13 29q-4 0 -16 -5q-15 -7 -19 -8.5t-4 -7.5q0 -4 13 -20.5t13 -20.5l-24 -26.5
t-24 -39.5q0 -5 8 -28.5t8 -27.5q0 -10 -13 -20q4 -7 12 -25q0 -9 2 -29q11 -9 44 -22v-12q-26 -9 -55 -28q4 -10 20 -26q-5 -8 -29 -24.5t-28 -16.5q-8 0 -43 22q-1 40 -7 120l-4 397q0 67 84 94q30 -35 60 -71q37 -48 32 -79q15 -11 40 -34t46 -47q38 -44 74 -97
q18 -32 54 -91q7 -9 18 -9q27 0 27 23q0 6 -1.5 14.5t-1.5 9.5v188q0 49 20 114q6 18 34 38l42 28q11 -26 11 -53q0 -26 -9.5 -39t-9.5 -18q0 11 18 -238q0 -3 -8 -23q8 -15 22 -42z" />
    <glyph glyph-name="O" unicode="O" horiz-adv-x="794" 
d="M208 -34q-17 7 -13 23q0 -10 3 -13q2 3 10 3v-13zM725 317q-1 -4 -17.5 -15t-18.5 -26q3 -37 -4 -111q-2 -6 -24 -20t-22 -30q0 -58 2 -28q-1 -17 -16 -25q11 -7 29 -22q-17 0 -52 -2.5t-43 -35.5q-1 0 -14 8q-9 1 -34 1q-19 0 -34 -1q-1 -4 -4 -10q-85 -27 -105 -27
q-4 0 -25 29q-6 -4 -19 -4q-24 0 -84 11q-8 5 -27 14q-7 -1 -20 3q-46 39 -93 79q-55 48 -62 73q-1 5 2 22.5t3 26.5q0 5 -1 10q-2 10 -16.5 34.5t-14.5 27.5t7 15.5t8 16.5q2 23 5 69q3 27 32 53q25 22 54 32q11 -25 11 -50q0 -18 -2 -23q-4 -14 -24 -32q17 -40 35 -80
t48 -75q-2 -13 2 -36q13 -27 43 -66q37 -47 66 -62q13 -1 45 -9q4 -1 20 -10q13 -8 18 -8q9 0 66 33q8 -15 26 -46q11 8 40 37q-28 6 -48 6q-3 11 10 21q74 55 90 128q6 27 6 146q0 -2 3 23t3 45q0 30 -7 46q-10 24 -102 102q-15 13 -25 16q-4 2 -36 2q-46 0 -113 -21
q-47 -15 -94 -29q-8 -5 -10 -5h-14q16 35 49 106q5 0 8 -1.5t7 -1.5t21.5 9.5t25.5 12.5q29 7 65 7q49 0 62 -13q6 8 19 19q9 4 20 4q9 0 53 -25q90 -53 138 -93q12 -11 38 -36q-5 -4 -26 -33zM217 7q-8 0 -6 -2q3 2 6 2z" />
    <glyph glyph-name="P" unicode="P" horiz-adv-x="616" 
d="M419 460l-4 -8l-5 2l5 8zM574 480q-7 -8 -40 -37q-27 -25 -27 -29t10 -24t10 -30l-62 -46q-53 -37 -75 -37q-2 0 -30 10t-38 10q-24 0 -46.5 -17t-40.5 -17q-4 0 -29 16q-34 22 -50 31q0 -6 7 -21v-12q-37 -6 -53 -13q-3 -12 4 -36q11 -37 12 -39q1 -6 1 -63
q0 -49 -4 -84q-23 2 -55 -23q-37 -29 -53 -33v24q-2 35 10 140q7 21 15 66q1 18 1 82q0 74 -1 83q-1 3 -11 43q-8 29 -8 63v150q1 0 47 4q33 3 46 12q1 3 -13 9q2 2 20 3.5t20 14.5q7 -6 21 -12q5 -1 80 -1h9q3 0 9.5 -1.5t10.5 -1.5q16 0 39.5 9.5t43.5 9.5q34 0 65 -14
q43 -19 43 -55q0 -9 -2 -19q2 -7 4 -22v-18q0 -4 -8 -4q3 0 -53 12q-50 11 -109 31q-96 33 -98 34q-1 -16 7 -49q-11 -6 -41.5 -8.5t-44.5 -11.5q6 -6 15 -19q8 -16 8 -25q0 -4 -11.5 -19t-11.5 -19q0 -26 39.5 -72t66.5 -46q4 0 24 8q24 9 34 11q38 3 112 15q8 2 22 25
q10 18 21 37q17 25 76 99q32 -30 62 -74z" />
    <glyph glyph-name="Q" unicode="Q" horiz-adv-x="733" 
d="M119 -2q-12 3 -26 17q12 -6 26 -17zM682 242q0 -3 -15 -17q-52 -48 -48 -95q18 -12 51 -33q-1 -16 2 -46q3 -33 3 -32q0 -13 -18 -60q-2 2 -45 37q-35 29 -43 29q-4 0 -39.5 -10t-39.5 -10q-5 0 -7.5 2t-19.5 25q-13 17 -13 21q0 17 28 33q36 20 37 21q-1 15 2 46
q9 12 25 34q8 12 13 29q7 27 7 72q0 132 -40 191q-1 2 -47 48q-28 29 -28 57q0 47 38 47q3 0 31.5 -2.5t41.5 -2.5q7 -12 22 -36q4 -7 15 -14q15 -9 22 -17q26 -25 33 -49q6 -17 10 -103l6 -109q0 -8 8 -30t8 -26zM420 632q-20 -7 -80 -38q-39 -20 -67 -20q-4 0 -21.5 5
t-21.5 5q1 0 -45 -19v-18q6 -6 7 -6q4 0 2.5 3.5t2.5 3.5t19.5 -8t21.5 -10q-6 -15 -20 -15h-11q-4 0 -10.5 8.5t-9.5 10.5q-10 4 -25 4q-20 0 -20 -8q0 -4 10 -22.5t10 -22.5t-26 -22q2 -8 2 -26q-2 -7 -17 -19q-18 -13 -24 -22q-14 -20 -14 -55q0 -41 17 -85
q27 -68 84 -120t119 -62q20 -4 64 -42q-23 -11 -47 -22q-10 -5 -40 -5q-43 0 -106 11q-22 8 -64 17q-5 4 -3 10q-113 78 -113 250q0 35 12 96t12 96q0 13 -1 26q11 3 22 7q16 6 23 19q1 3 1 43q7 3 37 5q4 10 15.5 27t35.5 45q8 -18 24 -53h3q4 1 2 8q-2 9 0 11
q41 67 146 67q4 0 7 -4q5 -7 7.5 -8t11.5 -1q5 0 10.5 1.5t9.5 1.5q8 0 48 -48zM213 530l-5 5l-4 -3l5 -5z" />
    <glyph glyph-name="R" unicode="R" horiz-adv-x="616" 
d="M500 351q-3 -2 -56 -27q-29 -14 -29 -42q0 -10 54 -103q35 -61 71 -122q0 -3 -4.5 -11t-5.5 -12q9 -12 20 -34q-11 -2 -41.5 -8t-34.5 -6q-7 0 -25 17q-29 28 -47 63q-11 25 -21 49q-22 40 -104 152q-21 -17 -41 -17q-23 0 -55 33q-32 -26 -57 -36q-20 -7 -22 -10t-2 -36
q0 -29 15 -73.5t15 -42.5q0 -5 -23 -19q8 -15 23 -43q-54 -11 -53 -11q-72 0 -72 96q0 25 3 127l20 199v85q0 4 -2 35t-2 35q0 22 14 43q17 25 41 25q3 0 15.5 -5t15.5 -5q30 0 129 6q0 -9 -4 -11q-95 -31 -95 -53q0 -4 11 -29q12 -30 15 -42l-40 40q-19 -43 -19 -71
q0 -7 1 -10q8 -11 21 -33q-1 -8 2 -23q10 -19 52 -52t51 -33q4 0 20.5 6.5t20.5 6.5h118q10 0 17 13q6 10 8 35q3 46 4 54t10 20t19 16q-1 17 -33 57t-48 40q-3 0 -23.5 -8t-26.5 -8q-9 0 -37 14q0 8 -7 54q100 28 114 28q48 0 88 -44q37 -44 74 -89l-14 -86
q-15 -77 -38 -94z" />
    <glyph glyph-name="S" unicode="S" horiz-adv-x="646" 
d="M605 176q0 -4 -6 -33q-6 -32 -8 -46q-43 -5 -76 -13q4 -10 10 -30q-18 -7 -57 -23q-16 1 -43 -5q-5 -9 -20 -25q-23 -14 -48 -14q-4 0 -15 3.5t-15 3.5t-42 -13.5t-42 -13.5q-7 0 -22 11.5t-19 23.5q-3 9 -3 71q-8 -2 -45 -18q-27 -12 -34 -12q-19 0 -52 58
q-29 51 -29 61q0 16 21.5 34.5t36.5 18.5q26 0 74 -58q30 -37 49 -70q18 1 109 -20q19 -4 91 -4q72 117 72 126q0 29 -45.5 55t-116.5 61.5t-78 35.5q-4 0 -4 -2v0q0 -1 -4 -1t-11.5 2.5t-10.5 2.5q-19 1 -39 2q-29 3 -47 14q-9 5 -16 18.5t-14 25.5q-16 2 -37 1
q-3 20 -3 55q0 38 2 46q7 26 41 66q-7 -3 -22 -4l-11 11q113 71 151 86q46 18 126 18q70 0 113 -26q15 -9 119 -94q-14 -29 -41 -85h-10q-8 4 -23 8q-26 -2 -83 59.5t-66 61.5q-3 0 -31.5 -8.5t-33.5 -8.5t-24 11q-25 14 -29 16l-122 -39q37 -51 75 -102q47 -57 92 -74
q34 0 93 -12q5 -2 18.5 -15t17.5 -13t18 1.5t18 1.5q76 0 125 -130q2 -6 15 -33q11 -21 11 -25z" />
    <glyph glyph-name="T" unicode="T" horiz-adv-x="485" 
d="M451 606q-32 -27 -41 -27q-3 0 -14 11.5t-16 11.5q-12 0 -73 -26q-2 17 -7 50q-16 -10 -31 -20q-19 -14 -19 -32l29 -80q-11 -8 -36 -23q0 -22 13 -50t13 -40q-8 -4 -17 -9.5t-12 -12.5q-4 -14 -4 -64q0 -26 21.5 -66t21.5 -42q0 -12 -17 -48q-13 -24 -25 -48
q-2 -19 -9 -56q-42 -18 -40 -18q-7 0 -23 12t-17 23q-1 7 -1 71q0 72 9 98q7 22 14 72q-8 9 -29 16q1 7 13.5 23.5t12.5 20.5q0 3 -6 29.5t-6 36.5q-3 29 -6 128q-6 7 -39.5 19.5t-38.5 12.5q-3 0 -10 -3t-11 -3q-9 0 -20.5 13.5t-11.5 22.5q0 17 14 32q7 0 24.5 7t21.5 7
q3 0 9.5 -3t9.5 -3q-3 0 31.5 13t58.5 13q21 0 51 -26q23 9 48 29q21 17 23 17h37q0 -2 12 -9t11 -9q50 0 55 1q21 -48 27 -72z" />
    <glyph glyph-name="U" unicode="U" horiz-adv-x="599" 
d="M560 263q-11 -18 -28 -20q-11 -2 -21 -3q27 -16 27 -61q0 -2 -23.5 -31t-25.5 -44t-9 -43q-5 -9 -20 -16q-2 -2 -19 -2q-7 0 -24 4l-118 -70q-17 4 -81 4q-98 32 -157 112q-53 72 -53 149q0 26 8 45q2 6 12 16q-33 43 -33 63q0 12 15 33t15 22l-10 14t-10 30q0 21 20 42
l38 36q23 -19 46 -57q25 -41 25 -65q0 -22 -14 -29q-26 -13 -33 -19q2 -9 11 -27.5t9 -22.5v-100q0 -11 11 -44.5t16 -39.5q10 -12 25 -18q23 -9 24 -10q16 -18 55 -44h48h47q44 16 75 73q27 50 27 92q0 28 -20 77v77q15 31 19 56q14 115 14 170q0 14 -16 31v12
q14 12 33.5 15t37.5 5q11 -60 28 -113q2 -5 11 -24.5t9 -22.5q0 -4 -12 -15.5t-12 -16.5q0 -4 9 -28q12 -30 14 -39q-9 -7 -29 -24q9 -29 25 -85q3 -12 -5 -20q8 -7 19 -24z" />
    <glyph glyph-name="V" unicode="V" horiz-adv-x="570" 
d="M540 645q0 -14 -5 -56q-7 -13 -19 -39q3 -18 -2 -49q-4 -6 -19 -15q-24 -13 -29 -17q21 -40 21 -45q0 -23 -21 -39q-21 -12 -43 -25q10 -16 46 -45q-87 -91 -95 -102q-21 -31 -21 -88q0 -4 7 -72t7 -72v-16q-14 10 -37 26q-1 15 -17 30q-8 -10 -28 -27q-2 -2 -22 -2
q-41 0 -74 58q-21 46 -41 91q-17 36 -21 45q-13 30 -16 51q-1 6 -4 64q-2 43 -12 69q-28 60 -56 119q-35 76 -35 122q0 20 23 38q20 16 37 16q40 0 62 -55q11 -36 21 -73q8 -21 17 -43q12 -30 27 -45q-3 -7 -25 -29q30 -28 39 -95q8 -70 41 -104q3 6 14 14q2 -7 11 -24
q39 21 57 70q8 23 15 74q24 8 52 20q-17 14 -17 21q0 4 14 45q17 50 23 75q3 12 -1 49q-1 3 2.5 13.5t3.5 14.5q0 11 -14 32q20 2 53 13q13 8 31 31q24 28 31 35l5 -23q3 -18 14 -20v-16z" />
    <glyph glyph-name="W" unicode="W" horiz-adv-x="1000" 
d="M970 650q3 -58 -8.5 -104t-53.5 -123q-51 -93 -64 -126q-4 -10 -1 -30q4 -24 3 -33q-8 -53 -4 -77q2 -13 -7 -23q-11 -13 -12 -16q1 -13 1 -40q-3 -1 -29 -8q-19 -4 -24 -16.5t-17 -38.5q-16 -23 -65 -22q-36 45 -74 139q-17 42 -24 84q-2 29 -13 92q-7 28 -37 67
q-36 48 -66 48q-3 0 -20 -3.5t-24 -3.5q-2 -6 -11 -83q-5 -42 -27 -82q-3 -5 -3.5 -30.5t-5.5 -33.5q-19 -13 -49 -45q2 -8 2 -18q0 -50 -87 -170q-50 90 -57 104q-25 52 -38 102q-26 57 -75 187q-2 26 -9 77q-10 43 -32 127q-16 52 -16 73q0 28 4 36.5t21 15.5t26 7
q17 0 24.5 -15t22 -47t22.5 -48q15 -21 34 -57q-31 -19 -31 -33q0 -19 51 -128q55 -119 84 -119q17 0 22 23q1 3 7 55q4 35 13 47q23 -1 29 15q11 28 33 111q19 75 38 114q2 5 0 16q-2 14 -2 16v22q14 2 39 8q7 2 24 13q15 7 19 7q47 0 52 -82q2 -28 16 -77q7 -26 38 -53.5
t32 -38.5q0 -27 6 -85q3 -17 25 -61q28 -57 52 -57q8 0 44.5 45t41.5 60q4 9 2 30q-4 29 -4 26v105q0 4 26 64q24 57 136 117v-26z" />
    <glyph glyph-name="X" unicode="X" horiz-adv-x="521" 
d="M494 48q0 -21 -33 -46q-26 -18 -43 -23q-3 5 -74 96q-50 65 -48.5 88.5t-28.5 23.5q-4 0 -22.5 -3.5t-23.5 -3.5t-25 31q-32 -20 -47 -33q-27 -22 -38 -43q-4 -9 -2 -35q4 -40 4 -42q0 -9 -25 -33.5t-34 -24.5q-2 0 -18.5 9t-23.5 9v29q0 4 4 24t5 30q1 15 18 27t30 10
q3 25 6 38q5 25 15 42t42 56q28 34 28 38t-16 33q-19 36 -22 44q-3 16 -9 46q-8 7 -19 28q-2 7 0 49l-76 68q-13 14 -13 63l4 9.5t4 23.5q2 -2 2 -18q20 -6 59 -21q1 -19 15 -62t21 -43q5 0 15 8.5t12 9.5q50 -48 53 -51q37 -28 66 -24q8 9 10.5 31.5t10.5 31.5
q11 13 55 39.5t64 51.5q4 5 19 10.5t22 4.5h18q3 -17 11 -62q-8 -2 -24 -20q2 -13 5 -36q-13 -7 -40 -25q-1 -11 -2 -31l-24 -16q-7 -5 -41 -52q-39 -52 -39 -67q0 -24 96.5 -146.5t96.5 -140.5z" />
    <glyph glyph-name="Y" unicode="Y" horiz-adv-x="557" 
d="M537 678q-11 -32 -22 -65t-10 -52q-17 -2 -46 -8q-3 -5 -3 -11q0 -7 5.5 -20.5t5.5 -20.5q-17 -5 -45 -18q-1 -33 -2 -67q-3 -38 -31 -55q-20 -4 -60 -14q11 -44 32 -92q-6 -6 -27.5 -14.5t-31.5 -20.5q-1 -6 -1 -24q14 -5 15 -14q-4 -47 -3 -60q0 -10 4.5 -29.5
t4.5 -23.5q0 -5 -18 -48q-23 -54 -29 -70q-56 38 -60 127v149q-6 9 -15 24q0 15 -6 43q-13 30 -48 90q-41 69 -55 96l5 22q6 27 -26 43q-23 8 -46 17q-22 51 -22 57v68q36 -10 67 -22q-3 -27 0.5 -45t26.5 -63q18 2 53 -2q23 -7 52 -45q17 -28 33 -56q19 -31 36 -31
q11 0 16 9.5t14 47.5q7 31 20 43q5 4 39 6q5 4 8 9q1 2 7 32q23 17 84 69q45 38 75 55z" />
    <glyph glyph-name="Z" unicode="Z" horiz-adv-x="539" 
d="M524 578q-73 -30 -90 -40q-61 -35 -61 -77q0 -10 4 -20q-4 -4 -39 -21q1 -7 4.5 -23t5.5 -23q-4 -2 -46 -10q-28 -6 -37 -22q-6 -8 -9 -28q-4 -23 -8 -32q-7 -15 -49.5 -36.5t-46.5 -33.5q-2 -16 -6 -45q-2 -15 -15.5 -21t-25.5 -11q-3 -28 13 -46.5t39 -18.5h161
q10 0 46 -32q15 20 44 26q14 2 53 2q6 0 27.5 -9t21.5 -13t-19.5 -32t-23.5 -29q-55 -19 -64 -18h-15q-2 12 -7 39q2 3 -6 3q-25 -24 -81 -64q-11 9 -36 43q-53 -22 -54 -22q-4 0 -30 3.5t-30 3.5q-23 0 -61 -13q-3 26 -7 81q-19 11 -38 21q-26 15 -38 29q43 62 43 101
q0 8 -1 17q20 3 26 25q10 -11 14 -11q13 0 35 39q19 32 24 53q16 -1 36 1q13 27 46 79q28 29 56 57q41 43 41 73q0 14 -10 39t-20 36q-6 -1 -21.5 -9t-20.5 -8q-12 0 -37.5 21t-29.5 21q-6 0 -35 -18t-41 -31q-4 3 -48 47v51q96 14 161 14q4 0 70.5 -8.5t70.5 -8.5
q3 0 43.5 14t48.5 14q12 0 17 -7q8 -12 11 -14t38 -11q4 -4 4 -10q0 -5 -9 -20.5t-9 -20.5t10 -18t11 -18z" />
    <glyph glyph-name="bracketleft" unicode="[" horiz-adv-x="253" 
d="M86 794h103v-78h-84q15 -82 15 -140q0 -8 -6 -12.5t-8 -12.5q-8 -32 -8 -195q0 -84 5 -110q2 -13 15 -37t13 -28q0 -24 -10 -117q-11 -102 -18 -115q4 -17 51 -17t47 2l-3 -92l-94 -5q-11 0 -44 31q-28 27 -34 36q-12 18 -19 45q-5 17 -5 230q0 5 13 42.5t13 42.5
q0 4 -9.5 20.5t-11.5 23.5q-8 31 -8 79q0 10 10 37.5t11 30.5q2 16 2 46q0 33 -6 131q-4 84 -2 110q10 16 20 33q17 22 51 19l1 -1v1z" />
    <glyph glyph-name="backslash" unicode="\" horiz-adv-x="287" 
d="M151 176q5 -12 15 -19q14 -9 19 -15q19 -108 23 -118l10 -29q2 -4 8 -2q7 2 19 50q10 41 11 53q0 7 -10 32.5t-10 30.5q2 19 1 46q-2 4 -23.5 36.5t-22.5 36.5q0 16 -1 46q-6 32 -22 77q-16 24 -37 59q-1 3 -81 190q-20 13 -51 25l-3 -5q19 -86 24 -103q7 -28 24 -74
q3 -8 8.5 -10.5t9.5 -9.5q16 -28 51 -125q14 -35 35 -105q0 -29 3 -67z" />
    <glyph glyph-name="bracketright" unicode="]" horiz-adv-x="253" 
d="M114 794h-104v-78h85q-15 -82 -15 -140q0 -8 6 -12.5t8 -12.5q8 -32 8 -195q0 -84 -5 -110q-2 -13 -15 -37t-13 -28q0 -24 10 -117q11 -102 18 -115q-4 -17 -52 -17q-46 0 -46 2l3 -92l94 -5q11 0 44 31q28 27 34 36q12 18 19 45q4 17 4 230q0 5 -12.5 42.5t-12.5 42.5
q0 4 9.5 20.5t11.5 23.5q8 31 8 79q0 10 -10 37.5t-11 30.5q-2 16 -2 46q0 33 5 131q5 84 3 110q-10 16 -20 33q-17 22 -51 19l-1 -1v1z" />
    <glyph glyph-name="asciicircum" unicode="^" horiz-adv-x="463" 
d="M356 723q5 -7 4 -8q-5 -1 -9.5 -2.5t-17.5 -0.5q-17 15 -32 19q-6 2 -12 3q-6 8 -22 18q-6 2 -12 5l-11 2q-5 0 -11 2q-3 6 -9 16q-5 -4 -10 -5.5l-10 -3t-10 -9.5q-1 1 -15 -6l-2 11l-10 -24q-12 -11 -18 -11q-4 0 -4.5 5.5t-1.5 4.5q-15 -5 -30 -18q-1 1 -19 -13
q-4 -7 -21 11l25 17l-6 3l25 14l17 22q12 16 19 17l21 19l-10 2l28 14l15 14q8 6 19 1h2l27 -22l4 -9l15 -6l18 -12q9 -5 3 -25l28 -12l4 -12l17 -6z" />
    <glyph glyph-name="underscore" unicode="_" horiz-adv-x="504" 
d="M-1 -68h505v-41h-505v41z" />
    <glyph glyph-name="grave" unicode="`" horiz-adv-x="273" 
d="M156 702q19 -11 52 -29q8 0 12.5 7.5t1.5 14.5q-5 10 -46 64q-44 58 -59 71q-11 9 -16 10q-9 2 -34 0q-31 -36 -31 -43q0 -3 3 -2l39 -32q37 -29 78 -61z" />
    <glyph glyph-name="a" unicode="a" horiz-adv-x="465" 
d="M412 296q0 -20 -13.5 -53.5t-13.5 -54.5q0 -4 10 -39t10 -39q0 -24 -45 -44q-37 -15 -55 -14h-75q47 32 63 48q32 33 28 71q-48 31 -129 33q7 -10 7 -20q-13 -4 -44.5 -3.5t-46.5 -6.5q0 -53 91 -142q-14 -8 -43.5 -19.5t-35.5 -11.5q-9 0 -25.5 23.5t-22.5 25.5
q-62 18 -62 103q0 24 10 32l34 26q70 60 143 60q8 0 26 1.5t28 0.5q15 -1 27 -5q26 34 26 67q0 48 -100 48q-12 0 -67 -26q-21 -4 -65 -15q-5 5 -5 10q0 4 5.5 22t7.5 27q6 49 68 63q29 7 107 7q58 0 110 -65q47 -60 47 -110z" />
    <glyph glyph-name="b" unicode="b" horiz-adv-x="532" 
d="M487 266q0 -3 -9 -33t-11 -42q2 -23 -6 -64q-8 -16 -51 -48q-49 -37 -58 -47q-4 -13 -15 -38q-113 13 -179 13q-4 0 -36 -5t-37 -5h-17q1 35 -10 43q-17 1 -24 9q-9 22 -23 64q-3 14 -2 37q1 36 1 39q26 15 29 27q8 35 8 84q0 60 -5 91q-1 5 -6.5 26t-5.5 25v91
q0 3 -3.5 13t-3.5 14q0 24 31 67q25 32 49 63q18 -60 18 -72v-85q0 -59 87 -67q4 0 27 -6t27 -6h9q4 0 23 6.5t23 6.5q26 0 80 -38.5t58 -64.5q3 -11 9 -40q0 -9 3 -24q2 -4 11 -16.5t9 -17.5zM395 202q0 17 -21 74q-17 47 -24 62q-15 29 -33 43q-11 8 -42 8q-95 0 -119 -48
q-3 -15 -14 -42q-18 -2 -31 -16q10 -24 12 -51q0 -19 3 -45q39 -67 66 -91q32 -28 76 -28q29 0 31 1q51 20 71 40q25 26 25 93z" />
    <glyph glyph-name="c" unicode="c" horiz-adv-x="493" 
d="M440 151q0 -18 -9.5 -43t-16.5 -32t-24 -16q-20 -10 -25.5 -13.5t-27.5 -31.5q-8 -3 -22 -13q6 -6 6 -8q-57 5 -77 2q-34 -4 -58 -5q2 2 7 5.5t7 5.5q-25 6 -50 14t-51 34q-3 4 -16 2q-14 -2 -18 0q-30 17 -30 52q0 12 6 20q-41 31 -41 63q0 4 17 27.5t17 27.5
q0 2 -8.5 21t-8.5 30q0 14 26 45q11 13 14 45q3 42 6 49q21 3 67 16q3 1 27 18q7 5 16 5q4 0 13.5 -3.5t13.5 -3.5q12 0 53 16q0 -3 -9 -31l2 -12q33 23 60 23q41 0 69 -27.5t28 -66.5q0 -23 -15 -71q-29 21 -84 78q-28 30 -69 30q-6 0 -87 -11q-14 -19 -36 -56
q-27 -46 -27 -60q0 -38 38 -112.5t63 -91.5q16 -11 46 -23q27 -11 34 -11t32 12t40 25q1 9 5 26q20 43 97 68v-18z" />
    <glyph glyph-name="d" unicode="d" horiz-adv-x="566" 
d="M528 236q0 -19 -14.5 -25.5t-27.5 -11.5q-16 -12 -16 -34q0 -9 3.5 -28.5t3.5 -28.5q0 -26 -24 -39q8 -14 20 -44q-56 -41 -91 -41q-34 0 -140 30h-10v-4q2 -7 7 -14l4 -3v-6h-11q-6 0 -36 12q-35 15 -50 26q-43 35 -118 132q-14 19 -14 40q0 66 35 135q42 83 114 113
q84 36 111 36q24 0 46.5 -24t29.5 -24q25 0 63 65l-37 120q33 18 65 18q18 0 24 -4q36 -170 36 -212q0 -4 -13.5 -44.5t-13.5 -45.5q0 -1 27 -35.5t27 -58.5zM396 256q-3 20 -19 44q-34 51 -50 78q-23 2 -52 15q-10 -20 -16 -20q-4 0 -17.5 10t-18.5 10q-16 0 -63 -25
q-1 -19 -8 -26t-19 -15t-14 -10l20 -48q13 -34 13 -54q0 -8 -17 -34q17 -17 17 -23q0 -12 -17 -27q36 -49 87 -107q0 37 15 37q4 0 17.5 -3t17.5 -3q21 0 25 4q10 15 34 39q11 8 56 19q3 14 9 41v98z" />
    <glyph glyph-name="e" unicode="e" horiz-adv-x="483" 
d="M441 94q-27 -36 -49 -36q-5 0 -8 2t-4 2q1 -13 -5 -34q-21 -23 -77 -43q-12 -5 -27 -5q-5 0 -12 8q-12 12 -12 13q-40 -23 -78 -37q-7 11 -21 36q-13 0 -34 5q-46 32 -82.5 103t-36.5 123q0 48 60 117q-1 3 -2 10q33 47 85 74q48 25 95 25q39 0 89 -20q42 -17 84 -35
q1 -41 9 -71q1 -6 8.5 -20.5t7.5 -19.5q0 -4 -8.5 -15t-8.5 -15q0 -5 9 -22q12 -21 15 -28q-66 -11 -130 -11q-4 0 -27 2t-27 2q-5 0 -19 -6q-17 -6 -22 -7q-50 -12 -57 -14q-50 -17 -50 -39q0 -34 47 -62q8 -5 28 -8t29 -8q5 -2 18 -13q3 -2 26 -2h22q22 13 58 59
q29 35 51 35q21 0 31 -13q23 -30 25 -32zM333 313q0 18 -49.5 44t-65.5 26q-6 0 -19 -7.5t-17 -8.5q-14 -4 -75 -12q23 -41 34 -76q18 -10 52 -31q9 15 27 33q43 -27 49 -27q16 0 40 19t24 40z" />
    <glyph glyph-name="f" unicode="f" horiz-adv-x="253" 
d="M218 677q-9 -30 -35 -84q-7 -11 -29.5 -29t-22.5 -22q0 -1 40.5 -55t40.5 -91q0 -7 -33 -41q-35 -37 -41 -56q-9 -26 -11 -53l-3 -47q3 -4 0 -85q1 -32 10.5 -44t9.5 -32q0 -19 -12 -33t-30 -14q-10 0 -25 11q-18 14 -21 52q0 -4 0 57q0 77 5 98q1 6 10 22t9 20
q0 19 -40.5 84t-40.5 78q0 25 15 33q25 13 31 21q12 14 14 41q2 32 5 39q1 2 5 8t4 10q0 10 -16 35v12q64 18 161 65z" />
    <glyph glyph-name="g" unicode="g" horiz-adv-x="554" 
d="M500 323q0 -4 -9.5 -12t-10.5 -12q-6 -20 -6 -57q-1 -45 -3 -57q0 -4 -9.5 -23t-9.5 -25q0 1 13.5 -27t13.5 -44q0 -17 -20 -37q20 -30 20 -37q0 -10 -26 -62q3 -9 6 -25v-12q-16 -9 -72 -15q-8 -10 -17 -45q-10 -6 -56 -38q-36 -24 -41 -24t-32 27q-5 -5 -13.5 -17
t-13.5 -17q-41 15 -119 55q-29 19 -55 106q27 15 49 15q20 0 37 -18q24 -27 45 -39q8 -5 30 -8q26 -4 37 -8q6 -2 30 -16q20 -12 31 -12q4 0 8 2q41 79 41 137q-8 6 -48 7q-13 0 -20 3q22 33 56 99q7 18 7 56v5q0 36 5 53q2 5 19.5 16.5t17.5 19.5q0 28 -38 85.5t-48 52.5
q-5 -4 -46 5q7 45 54 67l76 -31q32 11 39 11q27 0 54 -46q24 -39 24 -58zM253 32q-21 -7 -62 -31q-15 -14 -29 -14q-56 0 -109 83q-46 73 -45 114q-5 9 -5 11v82q21 26 22 27q13 18 13 30q-1 13 -1 40q0 1 14 37q14 1 37 6q7 4 24 20q15 13 19 13q5 0 23 -8t24 -9
q0 -7 2 -21.5t2 -18.5q0 -7 -11 -36q-12 -33 -25 -51q-7 -13 -22 -17q-21 -6 -27 -10q15 -96 35 -140q37 -86 114 -96q2 -2 7 -11z" />
    <glyph glyph-name="h" unicode="h" horiz-adv-x="503" 
d="M468 169q-28 -11 -56 -29q2 -7 15 -29.5t13 -27.5q0 -4 -8 -19q-9 -18 -11.5 -25.5t-2.5 -52.5q0 -4 -8 -4q-10 0 -50 25q-2 55 -11 186q-1 38 -2 75q-4 52 -17 79q-17 37 -55 37q-64 0 -126 -51q10 -18 31 -55v-12q-20 -4 -55 -18q0 -13 -2 -34q-16 -10 -23 -17
q4 -12 21 -58q14 -35 14 -40q0 -4 -17 -26q-3 -4 -4.5 -18t-4.5 -20q-9 -16 -30 -24l-34 -12q-11 80 -11 79q0 38 4 63q2 11 9.5 29t7.5 22t-5 13.5t-5 12.5q-22 105 -22 126q0 -4 14 30t14 58q0 3 -7.5 29.5t-9.5 39.5q-3 23 -2 63q2 76 2 64q0 3 -5.5 18t-5.5 25h15
q18 1 71 -19q30 -83 30 -80q0 -4 -10.5 -16t-10.5 -16q0 -5 15 -30q44 -70 98 -70q4 0 29.5 2t30.5 2q42 0 86 -28q50 -31 63.5 -78t13.5 -52q0 -25 -39 -55q3 -12 20 -29.5t33 -32.5z" />
    <glyph glyph-name="i" unicode="i" horiz-adv-x="196" 
d="M115 631q3 -28 -22.5 -40.5t-50.5 -23.5v15q0 7 5 33q6 32 13 48q5 11 51 29zM154 67q-22 -7 -63 -29q-6 -4 -6 -20q0 -4 1 -12v-12q0 -26 -16 -26h-17q-10 52 -20 105q-2 14 -2 64q0 30 2 60q1 14 6.5 41t5.5 31t-21 42.5t-21 43.5q0 4 27 50t34 46q5 0 51 -18
q0 -1 -6 -32q13 -13 37 -40q-23 0 -49 -2q-4 -8 -4 -26q-1 -21 -4 -31q0 -3 -6 -18t-6 -20q0 -1 34 -81q36 -83 43 -116z" />
    <glyph glyph-name="j" unicode="j" horiz-adv-x="224" 
d="M167 -32q0 -27 -17 -51q5 -6 13 2q0 -9 -22 -43q-26 -38 -29 -47q-3 -15 -13 -43q-15 -22 -59 -49h-12q-15 63 -15 61q0 28 28 47t56 37q-3 4 -19 18q-9 8 -9 20q0 22 28 46q-8 6 -17 12q-13 10 -13 19q1 8 1 21q-9 23 -10 34q-20 12 -20 33q0 22 24 32q-3 27 -16 92
q-12 58 -12 62q0 7 12.5 33t12.5 51v109h23q30 -64 74 -73v-13q-10 -12 -34 -38v-147q10 -25 23 -80q0 -4 -3 -12.5t-3 -23.5q0 -11 1 -27q1 -12 26 -55q1 -3 1 -27z" />
    <glyph glyph-name="k" unicode="k" horiz-adv-x="426" 
d="M397 46q0 -20 -7 -63l-9 -8q-28 34 -91 100q-81 85 -96 85q-13 0 -44 -23t-32 -31q-2 -36 -8 -106h-13q-78 76 -78 113v11q32 20 32 33q0 4 -6.5 20.5t-6.5 22.5q-1 3 8 36q2 9 -7 26.5t-9 25.5q0 4 8.5 35.5t8.5 36.5q0 11 -14 54.5t-14 73.5q0 3 12 39q14 40 18 62
q-3 18 -4 56q0 13 25 31q18 11 36 23q3 -59 19 -145q2 -8 10 -39q7 -26 7 -31q0 -4 -8 -13q-10 -12 -13 -16v-22q0 -29 24 -51q21 -19 41 -19q22 0 58 34q9 2 28 9l54 45q19 -17 33 -73q-27 -11 -57 -12q-52 -69 -52 -76q0 -25 38 -64q61 -62 71 -76q38 -51 38 -104z" />
    <glyph glyph-name="l" unicode="l" horiz-adv-x="175" 
d="M143 190q0 -16 -18 -39l-29 -13q-6 -4 -6 -9t24.5 -33t24.5 -32q0 -12 -35 -64q-5 0 -20.5 -5.5t-19.5 -5.5h-19q-7 44 -5 123q1 88 -2 123q-1 5 -11 24t-10 24q0 4 14 79.5t14 79.5q0 15 -21 43t-21 67q0 25 22 88q14 37 28 73h12q17 -23 33 -46q31 -44 31 -64
q0 -4 -16 -34t-16 -34t10.5 -26t10.5 -25q0 -4 -15.5 -31.5t-15.5 -31.5q0 -2 38 -59q0 -1 -35 -29q8 -14 20 -48q-1 -21 2 -56q3 -8 17 -21.5t14 -17.5z" />
    <glyph glyph-name="m" unicode="m" horiz-adv-x="754" 
d="M709 110q-21 -41 -100 -69l-15 4v187l21 93q-5 16 -29.5 46.5t-32.5 30.5q-3 0 -16.5 -3.5t-18.5 -3.5q-4 0 -25 6q-25 6 -35 8q-4 0 -4 9q0 8 30.5 38t35.5 30q4 0 7 -2t7 -2t19 9t20 9q4 0 19.5 -10.5t20.5 -10.5q4 0 6.5 1.5t7.5 1.5q14 0 25 -22q8 -27 26 -77
q2 -4 15 -22.5t13 -23.5q0 -4 -17 -33q-18 -33 -21 -44q-1 -3 -1 -38q0 -34 3 -41q19 -36 39 -71zM415 409q0 -37 -39 -62q25 -41 25 -57q0 -4 -10.5 -29t-13.5 -36q-3 -17 -3 -44q0 -25 3 -58.5l3 -33.5v-34h-9l-34 42q-24 30 -26 47q-4 35 -3 103t-3 100q-1 13 -42.5 46
t-59.5 33q-7 0 -27 -5q-24 -7 -35 -17q-15 -12 -17 -55q-2 -39 -27 -51q1 -5 6 -129q4 -77 4 -131q0 -17 -33 -84q-30 98 -30 105q0 22 12 46.5l12 24.5q0 5 -25 34q-33 37 -41 48h22q1 8 10.5 31.5t9.5 27.5q-46 73 -46 87q0 4 15.5 18t18.5 21q7 16 16 78q45 -11 85 -31
q9 7 17 31q26 3 74 12q6 1 20.5 10.5t20.5 9.5q18 0 30 -17.5t34 -17.5q5 0 7.5 1.5t6.5 1.5q27 0 49.5 -20t22.5 -46z" />
    <glyph glyph-name="n" unicode="n" horiz-adv-x="489" 
d="M411 366q-8 -5 -9 -11t5 -6q-16 -69 -16 -113q0 -46 16 -109q0 -6 -4.5 -8.5t-5.5 -2.5q0 -4 -3.5 -18t-3.5 -18q0 -5 7 -17t6 -16l9 -43l-70 27q-15 30 -15 49q0 5 7 31t7 30q0 15 -9 45q-10 40 -12 79.5t-5 53.5q-8 34 -57.5 69.5t-85.5 34.5q-4 -8 -8 -17
q-6 -12 -16 -17q7 -19 7 -29q0 -28 -25 -46q-33 -24 -37 -30.5t-5 -32.5q0 -40 -1 -44q0 -14 -3 -42q-7 -19 -16 -59q-2 -47 3 -97q-6 -2 -9 -1q-3 6 -28 44q-19 29 -19 33q9 67 9 151q0 78 -9 125q0 42 24 76q27 38 67 38q3 0 22 -3.5t26 -3.5q4 -12 11 -35q20 20 40 39
q29 28 48 28q5 0 26.5 -16t26.5 -16q3 0 8 2t9 2q32 0 79 -40q2 -18 -5 -59q7 -9 14 -7z" />
    <glyph glyph-name="o" unicode="o" horiz-adv-x="523" 
d="M499 288q0 -4 -9 -39q-9 -40 -11 -52q-1 -2 0 -28q0 -20 -6 -32q-17 -21 -51 -67q-9 -14 -13 -31q1 -5 1 -14q-1 -19 -68 -48q-61 -27 -83 -27q-44 0 -44 61q0 4 4 19.5t5 22.5q31 13 42 13q6 0 49 -28q7 14 24 44q4 6 22 18t25.5 22t7.5 47q0 89 -22 161q-8 23 -27 52
q-27 41 -51 41q-35 0 -59 -17l-74 -64l-7 7q-4 -5 -26 -26q-18 -17 -18 -21q0 -5 10.5 -30t10.5 -29t-10.5 -14.5t-10.5 -13.5q0 -5 35 -69.5t35 -69.5q0 -12 -54 -66q-26 14 -70 102.5t-44 128.5q0 51 49 120q47 66 83 76q3 -26 14 -77q29 58 58 129q26 -15 51 -15
q1 -1 8 -12t12 -11q4 0 33 7t34 7q42 0 96 -74q49 -68 49 -103z" />
    <glyph glyph-name="p" unicode="p" horiz-adv-x="537" 
d="M523 175q-15 -4 -30 -9q-21 -9 -29 -26q-6 -33 -23 -98q-11 -31 -78 -64q-3 4 -6 23q-3 16 -7 16q-5 0 -20.5 -3.5t-20.5 -3.5q-16 0 -80 13l108 60q60 41 60 95l-1 10t-2 32q-1 33 -1 89q0 11 -4 16q-15 20 -44.5 45t-36.5 25q-4 0 -15 -5.5t-17 -5.5q-10 0 -14.5 2
t-14.5 13l-3 3q-57 -28 -109 -62q-1 -5 -1 -33q0 -41 5 -96q0 -4 8.5 -16.5t8.5 -21.5q0 -8 -6.5 -23.5t-3.5 -21.5l30 -49q21 -34 21 -51q-5 -4 -42 -11q-30 -6 -37 -24q-12 -28 -7 -107q0 -7 4 -23t4 -24t-2 -14t-20.5 -15.5t-25.5 -9.5q-5 0 -14 10t-13 19q-1 2 5 27
q-34 65 -34 99l28 226q0 42 -4 58q-3 7 -12 31q-8 19 -8 23q0 3 9 28.5t11 36.5q0 23 5 70q3 11 12.5 23.5t28.5 21.5t39 9q4 0 31.5 -10.5t31.5 -10.5t59.5 17.5t59.5 17.5q6 0 38 -8.5t76 -48.5q48 -43 56 -81q11 -47 11 -49q0 -62 2 -69q4 -14 16 -33q16 -27 18 -32z" />
    <glyph glyph-name="q" unicode="q" horiz-adv-x="560" 
d="M533 -169q-36 -77 -81 -87q-6 36 0 64q-22 4 -34 41l-14 64q-12 44 -51 88q-6 -3 -21 -25q-13 11 -66 68q22 -1 58 4q12 11 35 29q14 9 28 17q21 14 24 26q5 22 5 96q0 73 -2 79q-3 16 -34 60q-37 52 -63 52q-1 0 -21 -9.5t-29 -6.5t-20 3q-38 0 -74.5 -34t-36.5 -73
q0 -5 2.5 -14t2.5 -13q0 -10 -14 -18l-18 -11q1 -4 2 -30q1 -13 5 -19q18 -23 73 -67q48 -40 48 -43q0 -1 -22 -43q-12 0 -36.5 -2t-27.5 -2q-25 0 -49 23q-12 11 -46 53q-16 21 -27 65q-10 39 -10 68q0 71 28 119q15 25 80 99q9 11 37 15q57 8 98 8q44 0 108.5 -16
t62.5 -16q3 0 68 25q-10 -106 -10 -220q0 -119 10 -189q0 -4 -7 -10t-7 -11q0 -4 6 -17.5t7 -21.5q1 -10 -2 -28q-3 -21 -3 -29q0 -41 13 -106q9 -1 25 -5z" />
    <glyph glyph-name="r" unicode="r" horiz-adv-x="312" 
d="M288 406q0 -7 -17 -31v16q-1 1 -1.5 3.5t-6.5 2.5q1 0 -24 -3q-19 -3 -30 -1q-9 -15 -29 -31q1 -15 1 -54q-13 -2 -36 -7q2 -5 9 -17.5t9 -17.5q-5 -2 -40 -6l-9 -12q0 -12 -10 -49q11 -19 11 -32q0 -11 -9.5 -20.5t-9.5 -13.5q0 -5 6 -16q8 -14 10 -18q9 -20 9 -41
q0 -20 -37 -35q-29 -12 -41 -12h-18q-12 81 -11 85q14 174 0 343q8 8 14 8q3 0 8 -2t10 -2q4 0 29 11t29 11t17 -4t17 -4q6 0 48 11q5 0 12 -14q44 11 49 11q18 0 31 -26q10 -20 10 -33zM272 367l-5 1l-8 -16l5 -2z" />
    <glyph glyph-name="s" unicode="s" horiz-adv-x="480" 
d="M420 164q2 -29 -5 -80q-13 -29 -44 -50q-16 -11 -74 -25q-20 1 -60 -6q-9 -4 -44 -22q-25 -13 -30 -13q-4 0 -16 8.5t-18 8.5q-57 -3 -97 54q-31 44 -40 99v12h18q23 0 63 -26q25 -17 49 -34q9 -2 28 -8q3 -9 10 -29q2 -3 10 -3q3 0 12.5 2t14.5 2q16 0 21 -11
q8 15 27 20l26 6q8 4 15 31q5 22 5 34q0 24 -21 38q-12 8 -49.5 19.5t-76.5 22.5q-56 18 -86 41q-42 32 -42 76q0 11 30 80q5 0 8.5 -2t8.5 -2q1 0 38 36t65 36q4 0 18 -4.5t20 -5.5l60 -4q38 -3 65 -13q20 -7 48 -39t28 -48q0 -6 -26 -64q-7 3 -21 18q-18 19 -23 23
q-14 12 -88 49q-2 3 -5 8t-8 5q-4 0 -26.5 -7t-27.5 -7q-4 0 -22 3.5t-22 3.5q-16 0 -31 -9q6 -49 29 -70q19 -18 58 -40q36 -20 44 -20q4 0 22 7t22 7q17 0 43 -9q33 -12 41.5 -28.5t27.5 -49.5q3 -6 28 -21z" />
    <glyph glyph-name="t" unicode="t" horiz-adv-x="264" 
d="M231 20q0 -48 -80 -48q-91 0 -91 91q0 2 13 33q7 18 8 49l4 139q0 44 -23 72q-12 15 -41 32q-22 13 -22 21q0 18 34 40q22 13 43 26q4 26 13 74q7 25 47 80q4 0 11 -12q28 -77 80 -233q-8 -8 -39 -16.5t-42 -23.5q-4 -6 -4 -51q0 -42 1 -44q16 -26 39 -82q-1 -22 7 -64
q8 -8 23 -25q19 -28 19 -58z" />
    <glyph glyph-name="u" unicode="u" horiz-adv-x="488" 
d="M450 170q-14 -18 -28.5 -37t-14.5 -34q0 -51 4 -119q-31 -15 -52 -15q-26 0 -40 24q-12 20 -12 45q0 26 14 47q20 30 28 54q1 4 1 14t-4 56q-3 42 -2 62q0 2 5 11.5t5 14.5t-9 18t-9 18q0 4 7.5 14.5t9.5 13.5q8 16 8 42q0 -1 -21 61q33 -8 43 -12q26 -9 33 -19.5
t14 -34.5q9 -30 13 -39q-9 -4 -25 -11q-1 -4 2.5 -12t3.5 -12t-11 -28l4 -3zM282 33q0 -16 -8 -21q-29 -17 -78 -39.5t-56 -22.5q-15 0 -56 43q-34 37 -40 48q-11 19 -25 57q-4 24 -4 60q0 50 12.5 92t12.5 58q0 12 -14.5 34t-14.5 23q0 5 84 89q21 -50 15 -123
q-3 -32 2 -57q3 -13 13.5 -31.5t10.5 -21.5v-105q0 -3 70 -73q1 1 10 11q8 7 13 7q14 0 31 -6q22 -9 22 -22z" />
    <glyph glyph-name="v" unicode="v" horiz-adv-x="432" 
d="M411 319q0 -12 -60.5 -82.5t-60.5 -80.5q0 -3 9 -16t9 -20q0 -11 -32 -60q-26 -41 -34 -50q-23 -25 -40 -36q-70 99 -132 251q0 20 -3 58q-1 6 -14.5 22.5t-18.5 26.5q-8 19 -17 51t-9 40v14q50 23 59 23q6 0 28.5 -20t25.5 -27q-1 -16 2 -40q29 -46 84 -138q36 17 76 87
q29 56 58 113q18 -12 43 -52q27 -43 27 -64z" />
    <glyph glyph-name="w" unicode="w" horiz-adv-x="736" 
d="M698 383q0 -2 -11 -59h-18.5h-20.5q0 1 -7 -6l7.5 -6t7.5 -11q0 -3 -7.5 -14.5t-7.5 -17.5q0 -9 11 -14q-15 -33 -33 -44q-41 -25 -47 -66l-4 -80q-2 -23 -30 -70q0 1 -15 37q-10 28 -19 28q-4 0 -8.5 -2t-9.5 -2q-29 0 -40 15q-20 40 -40 79q-38 72 -77 106
q-16 -6 -16 -27q0 -5 5 -20q7 -18 9 -23q-14 -2 -43 -11q4 -7 29 -32q-23 -2 -65 -11v-14q0 -4 20 -27q21 -27 27 -37q-41 -12 -118 -12q-20 0 -38.5 11t-21.5 30q-12 95 -30 153q-12 36 -32 82q-14 30 -37 62q-12 17 -12 42q0 45 48 45h23q12 -3 26.5 -16t14.5 -36
q0 -8 -2.5 -25t-1.5 -25q1 -9 9.5 -24t16.5 -29q31 -62 71 -88q33 30 56 94q3 9 32 115q50 12 66 12q17 0 51 -12q5 -16 19 -46q18 -14 44 -46q8 -17 8 -38q0 -7 -1 -19t-1 -18q0 -32 26 -56q14 10 29 21q22 16 31 15q5 1 13 5q-11 9 -11 16q0 13 18 28.5t33 20.5q3 6 3 24
q0 35 -32 78q0 8 5 13q45 -11 87 -23q11 -17 11 -25z" />
    <glyph glyph-name="x" unicode="x" horiz-adv-x="360" 
d="M317 336q-5 -3 -28.5 -5t-30.5 -10q3 -11 6 -31v-12q-24 -11 -40 -11q0 -2 -1.5 -4t-1.5 -3l82 -168q-3 -14 -15 -35q-11 -8 -40 -8q-5 0 -36.5 11t-35.5 11h-59q1 -17 -5 -46q-7 -14 -34 -21l-40 -8h-13v12q0 -3 9 22q7 19 48 102q18 37 18 88q0 42 -9 59q-17 21 -54 71
q-5 16 -23 39v13q17 14 61 50l116 -92q9 -1 13 3q9 12 43 72q60 -28 70 -99z" />
    <glyph glyph-name="y" unicode="y" horiz-adv-x="480" 
d="M436 375q-32 -14 -42 -25q0 -16 -2 -49q-1 -11 -19 -18q-23 -8 -26 -11q7 -17 21 -54q-10 -6 -63 -39q2 -10 -11 -31q-16 -24 -18 -30q-3 -13 -4 -50q-1 -52 -2 -60q-1 -21 -16 -36q-19 -19 -21 -22q-3 -7 -3 -49q0 -22 -6 -33.5t-46 -15.5q-5 -17 -19 -44q-4 -5 -18 -8
q-10 -3 -19.5 -6t-25 -18.5t-19.5 -15.5t-3.5 1.5t-3.5 1.5q-1 0 -65 -21q-5 1 -5 9t10 34q11 30 23 44q3 4 20 8t23 9q34 30 55 78q19 44 19 88q0 26 -23 68q-35 62 -36 67q-1 14 -6 50l-32 98q-28 88 -28 127q0 20 9 24q40 20 46 24q4 0 12 -11q34 -119 77 -189
q15 -25 48 -49q3 -1 10 -1q19 0 26 14q4 8 6.5 55.5t16.5 69.5q4 6 20 13q21 10 27 13q12 8 22 29l17 35q50 -24 74 -62v-12z" />
    <glyph glyph-name="z" unicode="z" horiz-adv-x="424" 
d="M356 477q0 -74 -16 -124q-3 -9 -25.5 -27t-35.5 -20q-3 -1 -13 -1q-4 0 -13 1h-12q-3 2 -3 -6q0 -5 10 -32q12 -33 15 -44q-18 -9 -56 -36q-55 -39 -55 -58q0 -21 32.5 -43t32.5 -28q0 -3 -16.5 -31t-20.5 -39q-48 -12 -65 -12q-16 0 -58 12q-17 4 -21 14q-12 26 -19 95
q26 11 52 23q23 12 23 50q1 31 25 47l22 6q16 5 27.5 21.5t13.5 22.5q22 77 22 87q0 31 -61 60q-33 15 -67 30q63 20 133 34q25 5 40 5q4 0 24 -3.5t24 -3.5q1 0 56 10q5 -4 5 -10zM356 16q0 -16 -2 -20q-3 -8 -18 -8q-4 0 -15 1.5t-15 1.5t-45 -5q-47 -7 -66 -9v12
q0 6 14.5 27.5t26 30.5t35.5 19.5t31 10.5q28 0 42 -23q12 -18 12 -38z" />
    <glyph glyph-name="braceleft" unicode="{" horiz-adv-x="360" 
d="M80 664q0 -1 -5 -19t-5 -33q0 -10 2 -20q12 -53 12 -184q0 -26 -40.5 -46t-40.5 -28q0 -5 39.5 -30t39.5 -54q-1 -38 1 -99q3 -72 3 -94q0 -73 -16 -123q8 -90 135 -90h49q8 0 23 -4t20 -4q22 0 22 47q0 6 2 15.5t2 12.5q0 12 -27 12q-15 0 -26.5 -2.5t-30.5 -2.5
q-16 0 -37 11t-21 24q0 24 12 22q-22 17 -22 28q0 4 4.5 12t4.5 14t-3 13v44q-1 44 -1 49q0 12 -6 33q-2 6 -2 30.5t-3.5 47.5t-3.5 48q0 7 -22 20t-22 20q0 4 12 14q16 14 25 28q5 8 14 33.5t9 28.5q-1 55 0 189q-4 -5 -4 7q0 45 34 60q15 6 34 6q10 0 24 -1.5t17 -1.5
q9 0 9 6t6.5 33t6.5 39q0 19 -13 19q-5 0 -34.5 -7t-34 -7t-12 -3.5t-10.5 -3.5q-5 0 -6 5l-24 4q-5 0 -25.5 -14t-25 -14t-13 -18.5t-12.5 -16.5q-14 -18 -14 -55zM142 85q16 0 14 64q-2 63 -3 63l-5 22h-14q-2 -4 3 -74q5 -78 5 -75z" />
    <glyph glyph-name="bar" unicode="|" horiz-adv-x="357" 
d="M252 -59q0 -26 -32 -26q-9 0 -24.5 2t-19.5 2q-38 0 -60 22q0 36 1 63l3 148q0 5 1 22q2 14 1 22q-2 12 -8 22q8 -8 10 -8t4 4q7 19 7 41q0 17 -5 41t-5 28q0 8 -2 45q-2 31 0 47q1 18 -1.5 46.5l-2.5 28.5q0 65 -19 190q-3 -1 -3 2t3 10.5t3 10.5q0 4 -4 5q5 3 5 7
q0 3 -3 10t-2 9q7 13 8.5 14t10.5 1q4 0 18 -5l36 -18q3 1 -7.5 10t-7.5 9q54 0 61 -2q21 -5 18 -49q-1 -6 -8 -4.5t-7 -0.5q5 -23 8 -58q-2 -17 -4.5 -73t-1.5 -61l12 -67l-17 23l5 -114l-8 -74l14 35l4 -69q-2 -51 -7 -104q-1 -3 26 -187z" />
    <glyph glyph-name="braceright" unicode="}" horiz-adv-x="360" 
d="M222 664q0 -1 5 -19t5 -33q0 -10 -2 -20q-12 -53 -12 -184q0 -26 40.5 -46t40.5 -28q0 -5 -39.5 -30t-39.5 -54q1 -38 -1 -99q-3 -72 -3 -94q0 -73 16 -123q-8 -90 -135 -90h-49q-8 0 -23 -4t-20 -4q-22 0 -22 47q0 6 -2 15.5t-2 12.5q0 12 27 12q15 0 26.5 -2.5
t30.5 -2.5q16 0 37 11t21 24q0 24 -12 22q22 17 22 28q0 4 -4.5 12t-4.5 14t3 13v44q1 44 1 49q0 12 6 33q2 6 2 30.5t3.5 47.5t3.5 48q0 7 22 20t22 20q0 4 -12 14q-16 14 -25 28q-5 8 -14 33.5t-9 28.5q1 55 0 189q4 -5 4 7q0 45 -34 60q-15 6 -34 6q-10 0 -24 -1.5
t-17 -1.5q-9 0 -9 6t-6.5 33t-6.5 39q0 19 13 19q5 0 34.5 -7t35.5 -7q3 0 10.5 -3.5t10.5 -3.5q5 0 6 5l24 4q5 0 25.5 -14t25 -14t13 -18.5t12.5 -16.5q14 -18 14 -55zM160 85q-16 0 -14 64q2 63 3 63l5 22h14q2 -4 -3 -74q-5 -78 -5 -75z" />
    <glyph glyph-name="asciitilde" unicode="~" horiz-adv-x="322" 
d="M25 707q-20 9 -20 21q0 4 3 8q16 24 31 40q32 23 35 20q1 -1 18 -1v0q18 0 22 -1q12 2 29 -5q4 -6 17.5 -13.5t20.5 -7.5q23 0 31 2q18 6 23 6l12 12l3 6.5t7 6.5q2 0 4 -2q6 -3 6 -8q0 -1 7.5 -5t7.5 -7t-11.5 -18.5t-11.5 -19t-15 -12.5t-17 -10q-6 -6 -41 -12
q-21 3 -46 9q-23 23 -29 23q1 0 -13 4t-15 2q-4 -9 -8 -9q-8 -2 -15 -3q-12 -4 -11 -8q1 -7 -1 -9q-5 -8 -23 -9z" />
    <glyph glyph-name="Adieresis" unicode="&#xc4;" horiz-adv-x="580" 
d="M574 33q-29 -3 -41 -21q-7 -11 -11 -38.5t-11 -37.5q-18 49 -36 97q-22 57 -47 100q-16 27 -64 46q-54 21 -71 39q-1 0 -30 -20q-7 -4 -32 -4t-41.5 8.5l-16.5 8.5q-16 0 -43 -30q9 -11 24 -31q-40 -31 -65 -58q8 -33 -8 -84q-55 15 -73.5 32.5t-18.5 55.5q0 11 5 34
t10.5 29t19.5 11q20 7 21 7q8 4 14 43q5 36 21 107q29 15 45 77q18 72 56 109q1 1 1 4t-2.5 17t-2.5 21q0 8 2 12q9 21 44 60q42 48 78 65l4 -64q-20 -34 -20 -56q0 -31 22 -55q15 27 55 82q64 -60 64 -131q0 -15 -3 -29q-4 -14 24 -48t29 -48q1 -72 19 -123q10 -29 38 -79
q5 -10 26 -39q17 -23 17 -26zM350 377q0 6 -28.5 46t-27.5 56q-32 -24 -42 -24q-5 0 -13.5 3t-12.5 3q14 -21 14 -37q0 -5 -12 -31.5t-12 -30.5q0 -9 56 -65q21 11 47 37q31 29 31 43zM405 724q-21 0 -34.5 15.5t-13.5 38.5q0 10 2 19q20 18 62 28q39 8 39 -52
q0 -20 -18 -34.5t-37 -14.5zM206 729q-53 0 -53 48q0 21 19.5 37t39.5 16q24 0 36 -27q5 -16 17 -47q-29 -27 -59 -27z" />
    <glyph glyph-name="Aring" unicode="&#xc5;" horiz-adv-x="580" 
d="M576 76l-2 -43q-29 -3 -41 -21q-7 -11 -11 -38.5t-11 -37.5q-18 49 -36 97q-22 57 -47 100q-16 27 -64 46q-54 21 -71 39q-1 0 -30 -20q-7 -4 -32 -4t-41.5 8.5l-16.5 8.5q-16 0 -43 -30q9 -11 24 -31q-40 -31 -65 -58q8 -33 -8 -84q-55 15 -73.5 32.5t-18.5 55.5
q0 11 5 34t10.5 29t19.5 11q20 7 21 7q8 4 14 43q5 36 21 107q29 15 45 77q18 72 56 109q1 1 1 4t-2.5 17t-2.5 21q0 8 2 12q9 21 44 60q42 48 78 65l4 -64q-20 -34 -20 -56q0 -31 22 -55q15 27 55 82q64 -60 64 -131q0 -15 -3 -29q-4 -14 24 -48t29 -48q1 -72 19 -123
q10 -29 38 -79q5 -10 26 -39q17 -23 17 -26zM350 377q0 6 -28.5 46t-27.5 56q-32 -24 -42 -24q-5 0 -13.5 3t-12.5 3q14 -21 14 -37q0 -5 -12 -31.5t-12 -30.5q0 -9 56 -65q21 11 47 37q31 29 31 43zM386 788q0 -34 -27.5 -59t-61.5 -25q-27 0 -57.5 26t-30.5 52q0 36 13 54
l8 2q3 9 7.5 18.5t16.5 7.5h1q3 0 19 4t23 4q19 0 40 -7q2 -3 26 -26q20 -19 20 -29v-1l-11 30v-2q-1 -8 6.5 -24.5t7.5 -24.5zM349 787q0 25 -12 27q-2 10 -16 17q-3 8 -21 8q-16 0 -28 -14q-10 0 -13 -11q-10 -2 -10 -28q0 -13 16 -30.5t28 -17.5q24 0 30 6q1 3 11 6
q15 22 15 37z" />
    <glyph glyph-name="Ccedilla" unicode="&#xc7;" horiz-adv-x="742" 
d="M700 504q-26 -25 -62 -25q-63 0 -101 34q-40 46 -81 92q-7 8 -53 8q-34 0 -58.5 -10.5t-48.5 -10.5q-3 0 -36 -11t-41 -11q31 26 31 34.5t5 33.5q7 31 16 46t92 15q59 0 78 -5q5 -6 17 -15q37 -8 110 -30q14 -5 50 -47q29 -33 82 -98zM491 -139q0 -5 -14 -25t-18 -22
t-57 -25l-54 2q-34 0 -34 5q0 3 9.5 29.5t9.5 27.5t12.5 -3.5t14 -3.5t17.5 -2t20 -3q10 0 22 12t12 21q0 7 -5 17t-5 12t-19.5 2t-20.5 2q-2 5 -40 -9l9 55l-1 12.5t-1 15.5q0 2 1 5q-6 6 -12 15q-9 -14 -34 -23q-21 -8 -38 -8q-33 0 -50 19q-8 8 -22.5 39t-31.5 44
q-2 2 -24.5 2.5t-30.5 10.5q-12 12 -30 37q-84 160 -84 218q0 32 39 110t41 103q0 2 3.5 13t3.5 19q17 -8 50 -64q31 -52 31 -59q0 -5 -19 -19l-35 -25q-1 -4 -1 -18q0 -19 15.5 -41.5t15.5 -23.5q0 -5 -20 -23l31 -62q-2 -4 -9.5 -16t-7.5 -16q0 -15 34 -59q28 -37 37 -44
q20 -16 61 -41q25 -10 71 -21q41 -11 49 -11q3 0 23.5 10.5t24.5 10.5t13 -1.5t13 -1.5q16 0 19 6q29 56 77 109q53 59 106 87l10 -178q-8 6 -39 41q-10 -8 -14 -27q-6 -24 -9 -31q-21 -37 -58 -54q-10 -5 -25 -5q-52 0 -69 10q-5 -4 -32 -35q-10 -12 -30 -13l-11 -25l52 -2
q2 0 48 -21q10 -39 10 -61z" />
    <glyph glyph-name="Eacute" unicode="&#xc9;" horiz-adv-x="497" 
d="M443 297q-18 2 -48 6q-25 4 -29 4t-32.5 -7t-32.5 -7q-10 0 -83 12q1 5 -7 5q5 0 -87 -30q0 -18 -2 -54.5t-2 -38.5q0 -51 5 -70q3 -14 22 -38q23 -26 39 -26q4 0 13.5 6t11.5 6q41 15 69 15q4 0 20.5 -5t20.5 -5t20.5 1.5t21.5 1.5q18 0 33 -15l44 -48q-2 -3 -8 -8
q-78 -1 -141 -9q-9 -6 -28 -15q-31 -11 -59 -11q-32 0 -63 20q-52 33 -54 34q-9 0 -24 2q-28 8 -34 47q-1 9 -1 58q0 4 -3.5 39t-3.5 39v99q0 4 -7 68t-7 68q0 161 88 246q29 -5 69 -19q23 9 64 20q38 11 45 11q31 0 139 -49l-4 -71q-18 3 -53 11q-5 1 -17 10t-15 9
t-17 -8.5t-22 -10.5q-61 -22 -102 -22q-3 0 -14 12t-15 12q-20 0 -25 -40q-1 -25 -2 -51q-1 -9 -12 -28t-11 -22q0 -15 20 -24l28 -8q3 -8 16 -25q47 -2 82 -32q26 31 67 31q4 0 19.5 -3.5t20.5 -3.5q3 0 15 3.5t17 3.5q23 0 55 -39v-57zM234 732q-19 -11 -52 -28
q-8 -1 -12.5 6.5t-1.5 15.5q5 9 46 63q44 58 59 71q11 9 16 10q9 3 34 0q31 -36 31 -43q0 -3 -3 -2l-39 -32q-37 -29 -78 -61z" />
    <glyph glyph-name="Ntilde" unicode="&#xd1;" horiz-adv-x="625" 
d="M545 231q-3 -6 -26 -20q-6 -39 26 -61q-4 -8 -32 -36q18 -31 22 -53q-20 -9 -22 -30.5t-4 -41.5h-11q-2 0 -59 20q-23 23 -69 68q-21 22 -43 64l-30 56q-92 145 -141 143q0 18 -4 42q-6 29 -13 29q-4 0 -16 -5q-15 -7 -19 -8.5t-4 -7.5q0 -4 13 -20.5t13 -20.5l-24 -26.5
t-24 -39.5q0 -5 8 -28.5t8 -27.5q0 -10 -13 -20q4 -7 12 -25q0 -9 2 -29q11 -9 44 -22v-12q-26 -9 -55 -28q4 -10 20 -26q-5 -8 -29 -24.5t-28 -16.5q-8 0 -43 22q-1 40 -7 120l-4 397q0 67 84 94q30 -35 60 -71q37 -48 32 -79q15 -11 40 -34t46 -47q38 -44 74 -97
q18 -32 54 -91q7 -9 18 -9q27 0 27 23q0 6 -1.5 14.5t-1.5 9.5v188q0 49 20 114q6 18 34 38l42 28q11 -26 11 -53q0 -26 -9.5 -39t-9.5 -18q0 11 18 -238q0 -3 -8 -23q8 -15 22 -42zM149 693q-20 9 -20 21q0 4 3 8q16 24 32 40q32 23 34 21t18 -2h1q17 0 22 -1q11 2 29 -5
q4 -6 17 -13.5t20 -7.5q23 0 32 3q17 5 23 5l11 12l3 6.5t7 6.5q2 0 6.5 -2t4.5 -8q0 -1 7 -4.5t7 -7.5q0 -3 -11.5 -18.5t-11.5 -19t-15 -12t-17 -10.5q-5 -6 -40 -12q-22 3 -46 9q-23 23 -29 23l-14 4t-15 2q-3 -8 -7 -9q-8 -2 -16 -3q-12 -3 -11 -9t-1 -8q-5 -8 -23 -9z
" />
    <glyph glyph-name="Odieresis" unicode="&#xd6;" horiz-adv-x="794" 
d="M208 -34q-17 7 -13 23q0 -10 3 -13q2 3 10 3v-13zM725 317q-1 -4 -17.5 -15t-18.5 -26q3 -37 -4 -111q-2 -6 -24 -20t-22 -30q0 -58 2 -28q-1 -17 -16 -25q11 -7 29 -22q-17 0 -52 -2.5t-43 -35.5q-1 0 -14 8q-9 1 -34 1q-19 0 -34 -1q-1 -4 -4 -10q-85 -27 -105 -27
q-4 0 -25 29q-6 -4 -19 -4q-24 0 -84 11q-8 5 -27 14q-7 -1 -20 3q-46 39 -93 79q-55 48 -62 73q-1 5 2 22.5t3 26.5q0 5 -1 10q-2 10 -16.5 34.5t-14.5 27.5t7 15.5t8 16.5q2 23 5 69q3 27 32 53q25 22 54 32q11 -25 11 -50q0 -18 -2 -23q-4 -14 -24 -32q17 -40 35 -80
t48 -75q-2 -13 2 -36q13 -27 43 -66q37 -47 66 -62q13 -1 45 -9q4 -1 20 -10q13 -8 18 -8q9 0 66 33q8 -15 26 -46q11 8 40 37q-28 6 -48 6q-3 11 10 21q74 55 90 128q6 27 6 146q0 -2 3 23t3 45q0 30 -7 46q-10 24 -102 102q-15 13 -25 16q-4 2 -36 2q-46 0 -113 -21
q-47 -15 -94 -29q-8 -5 -10 -5h-14q16 35 49 106q5 0 8 -1.5t7 -1.5t21.5 9.5t25.5 12.5q29 7 65 7q49 0 62 -13q6 8 19 19q9 4 20 4q9 0 53 -25q90 -53 138 -93q12 -11 38 -36q-5 -4 -26 -33zM217 7q-8 0 -6 -2q3 2 6 2zM485 724q-21 0 -34.5 15.5t-13.5 38.5q0 10 2 19
q20 18 62 28q39 8 39 -52q0 -20 -18 -34.5t-37 -14.5zM286 729q-53 0 -53 48q0 21 19.5 37t39.5 16q24 0 36 -27q5 -16 17 -47q-29 -27 -59 -27z" />
    <glyph glyph-name="Udieresis" unicode="&#xdc;" horiz-adv-x="599" 
d="M560 263q-11 -18 -28 -20q-11 -2 -21 -3q27 -16 27 -61q0 -2 -23.5 -31t-25.5 -44t-9 -43q-5 -9 -20 -16q-2 -2 -19 -2q-7 0 -24 4l-118 -70q-17 4 -81 4q-98 32 -157 112q-53 72 -53 149q0 26 8 45q2 6 12 16q-33 43 -33 63q0 12 15 33t15 22l-10 14t-10 30q0 21 20 42
l38 36q23 -19 46 -57q25 -41 25 -65q0 -22 -14 -29q-26 -13 -33 -19q2 -9 11 -27.5t9 -22.5v-100q0 -11 11 -44.5t16 -39.5q10 -12 25 -18q23 -9 24 -10q16 -18 55 -44h48h47q44 16 75 73q27 50 27 92q0 28 -20 77v77q15 31 19 56q14 115 14 170q0 14 -16 31v12
q14 12 33.5 15t37.5 5q11 -60 28 -113q2 -5 11 -24.5t9 -22.5q0 -4 -12 -15.5t-12 -16.5q0 -4 9 -28q12 -30 14 -39q-9 -7 -29 -24q9 -29 25 -85q3 -12 -5 -20q8 -7 19 -24zM375 704q-21 0 -34.5 15.5t-13.5 38.5q0 10 2 19q20 18 62 28q39 8 39 -52q0 -20 -18 -34.5
t-37 -14.5zM176 709q-53 0 -53 48q0 21 19.5 37t39.5 16q24 0 36 -27q5 -16 17 -47q-29 -27 -59 -27z" />
    <glyph glyph-name="aacute" unicode="&#xe1;" horiz-adv-x="465" 
d="M412 296q0 -20 -13.5 -53.5t-13.5 -54.5q0 -4 10 -39t10 -39q0 -24 -45 -44q-37 -15 -55 -14h-75q47 32 63 48q32 33 28 71q-48 31 -129 33q7 -10 7 -20q-13 -4 -44.5 -3.5t-46.5 -6.5q0 -53 91 -142q-14 -8 -43.5 -19.5t-35.5 -11.5q-9 0 -25.5 23.5t-22.5 25.5
q-62 18 -62 103q0 24 10 32l34 26q70 60 143 60q8 0 26 1.5t28 0.5q15 -1 27 -5q26 34 26 67q0 48 -100 48q-12 0 -67 -26q-21 -4 -65 -15q-5 5 -5 10q0 4 5.5 22t7.5 27q6 49 68 63q29 7 107 7q58 0 110 -65q47 -60 47 -110zM203 517q-19 -10 -52 -28q-8 -1 -12.5 6.5
t-1.5 15.5q5 10 46 63q44 58 59 71q11 9 16 10q9 3 34 0q31 -36 31 -43q0 -3 -3 -2l-39 -32q-37 -29 -78 -61z" />
    <glyph glyph-name="agrave" unicode="&#xe0;" horiz-adv-x="465" 
d="M412 296q0 -20 -13.5 -53.5t-13.5 -54.5q0 -4 10 -39t10 -39q0 -24 -45 -44q-37 -15 -55 -14h-75q47 32 63 48q32 33 28 71q-48 31 -129 33q7 -10 7 -20q-13 -4 -44.5 -3.5t-46.5 -6.5q0 -53 91 -142q-14 -8 -43.5 -19.5t-35.5 -11.5q-9 0 -25.5 23.5t-22.5 25.5
q-62 18 -62 103q0 24 10 32l34 26q70 60 143 60q8 0 26 1.5t28 0.5q15 -1 27 -5q26 34 26 67q0 48 -100 48q-12 0 -67 -26q-21 -4 -65 -15q-5 5 -5 10q0 4 5.5 22t7.5 27q6 49 68 63q29 7 107 7q58 0 110 -65q47 -60 47 -110zM226 517q19 -10 51 -28q9 -1 13.5 6.5t0.5 15.5
q-4 10 -45 63q-44 58 -59 71q-11 9 -16 10q-9 3 -34 0q-31 -36 -31 -43q0 -3 3 -2l39 -32q37 -29 78 -61z" />
    <glyph glyph-name="acircumflex" unicode="&#xe2;" horiz-adv-x="465" 
d="M412 296q0 -20 -13.5 -53.5t-13.5 -54.5q0 -4 10 -39t10 -39q0 -24 -45 -44q-37 -15 -55 -14h-75q47 32 63 48q32 33 28 71q-48 31 -129 33q7 -10 7 -20q-13 -4 -44.5 -3.5t-46.5 -6.5q0 -53 91 -142q-14 -8 -43.5 -19.5t-35.5 -11.5q-9 0 -25.5 23.5t-22.5 25.5
q-62 18 -62 103q0 24 10 32l34 26q70 60 143 60q8 0 26 1.5t28 0.5q15 -1 27 -5q26 34 26 67q0 48 -100 48q-12 0 -67 -26q-21 -4 -65 -15q-5 5 -5 10q0 4 5.5 22t7.5 27q6 49 68 63q29 7 107 7q58 0 110 -65q47 -60 47 -110zM360 506q-18 -5 -15 -5q-1 0 -12 1
q-28 24 -44 22q-19 16 -23 18q-8 4 -33 9l1 -1v0q0 1 -10 17q-21 -8 -21 -10q-4 -1 -9 -8l-15 -6l-2 11q-13 -35 -29 -35q-7 0 -5 10q-15 -5 -30 -18l-19 -13q-1 -2 -4 -2q-5 0 -17 13l25 17l-6 3q12 6 25 14q7 9 17 22l40 36l-10 2q6 3 28.5 18t24.5 15q1 0 9 -4h2
q31 -20 31 -31q24 -8 31 -15.5t5 -27.5l28 -12l4 -12q7 -1 20 -11t13 -17z" />
    <glyph glyph-name="adieresis" unicode="&#xe4;" horiz-adv-x="465" 
d="M412 296q0 -20 -13.5 -53.5t-13.5 -54.5q0 -4 10 -39t10 -39q0 -24 -45 -44q-37 -15 -55 -14h-75q47 32 63 48q32 33 28 71q-48 31 -129 33q7 -10 7 -20q-13 -4 -44.5 -3.5t-46.5 -6.5q0 -53 91 -142q-14 -8 -43.5 -19.5t-35.5 -11.5q-9 0 -25.5 23.5t-22.5 25.5
q-62 18 -62 103q0 24 10 32l34 26q70 60 143 60q8 0 26 1.5t28 0.5q15 -1 27 -5q26 34 26 67q0 48 -100 48q-12 0 -67 -26q-21 -4 -65 -15q-5 5 -5 10q0 4 5.5 22t7.5 27q6 49 68 63q29 7 107 7q58 0 110 -65q47 -60 47 -110zM305 524q-21 0 -34.5 15.5t-13.5 38.5
q0 10 2 19q20 18 62 28q39 8 39 -52q0 -20 -18 -34.5t-37 -14.5zM126 529q-53 0 -53 48q0 21 19.5 37t39.5 16q24 0 36 -27q5 -16 17 -47q-29 -27 -59 -27z" />
    <glyph glyph-name="atilde" unicode="&#xe3;" horiz-adv-x="465" 
d="M412 296q0 -20 -13.5 -53.5t-13.5 -54.5q0 -4 10 -39t10 -39q0 -24 -45 -44q-37 -15 -55 -14h-75q47 32 63 48q32 33 28 71q-48 31 -129 33q7 -10 7 -20q-13 -4 -44.5 -3.5t-46.5 -6.5q0 -53 91 -142q-14 -8 -43.5 -19.5t-35.5 -11.5q-9 0 -25.5 23.5t-22.5 25.5
q-62 18 -62 103q0 24 10 32l34 26q70 60 143 60q8 0 26 1.5t28 0.5q15 -1 27 -5q26 34 26 67q0 48 -100 48q-12 0 -67 -26q-21 -4 -65 -15q-5 5 -5 10q0 4 5.5 22t7.5 27q6 49 68 63q29 7 107 7q58 0 110 -65q47 -60 47 -110zM95 527q-20 9 -20 21q0 4 3 8q16 24 31 40
q32 23 35 20q1 -1 18 -1v0q18 0 22 -1q12 2 29 -5q4 -6 17.5 -13.5t20.5 -7.5q23 0 31 2q18 6 23 6l12 12l3 6.5t7 6.5q2 0 4 -2q6 -3 6 -8q0 -1 7.5 -5t7.5 -7t-11.5 -18.5t-11.5 -19t-15 -12.5t-17 -10q-6 -6 -41 -12q-21 3 -46 9q-23 23 -29 23q1 0 -13 4t-15 2
q-4 -9 -8 -9q-8 -2 -15 -3q-12 -4 -11 -8q1 -7 -1 -9q-5 -8 -23 -9z" />
    <glyph glyph-name="aring" unicode="&#xe5;" horiz-adv-x="465" 
d="M313 598q0 -12 -3 -19q-25 -65 -87 -65q-27 0 -50.5 19.5t-34.5 45.5q-3 8 -3 13q0 35 13 54l8 2l1 1q0 8 7 17t16 8q1 -1 2 0q2 3 7 3t16.5 2.5t17.5 2.5q22 0 40 -7q12 -12 24 -23q23 -23 23 -33v0l-12 29q0 -4 7.5 -25.5t7.5 -24.5zM412 296q0 -20 -13.5 -53.5
t-13.5 -54.5q0 -4 10 -39t10 -39q0 -24 -45 -44q-37 -15 -55 -14h-75q47 32 63 48q32 33 28 71q-48 31 -129 33q7 -10 7 -20q-13 -4 -44.5 -3.5t-46.5 -6.5q0 -53 91 -142q-14 -8 -43.5 -19.5t-35.5 -11.5q-9 0 -25.5 23.5t-22.5 25.5q-62 18 -62 103q0 24 10 32l34 26
q70 60 143 60q8 0 26 1.5t28 0.5q15 -1 27 -5q26 34 26 67q0 48 -100 48q-12 0 -67 -26q-21 -4 -65 -15q-5 5 -5 10q0 4 5.5 22t7.5 27q6 49 68 63q29 7 107 7q58 0 110 -65q47 -60 47 -110zM275 597q0 24 -11 27q-2 9 -16 16q-4 9 -21 9q-13 0 -16.5 -2t-12.5 -13
q-9 1 -12 -10q-11 -2 -11 -28q0 -14 16 -30q8 -7 16 -15q3 -3 16 -3q21 0 26 5q1 4 11 7q3 3 9 18.5t6 18.5z" />
    <glyph glyph-name="ccedilla" unicode="&#xe7;" horiz-adv-x="493" 
d="M317 -125q0 -5 -12.5 -17.5t-17 -14.5t-46.5 -29q-35 8 -43 8t-24.5 10t-16.5 14q0 2 6.5 14t6.5 13t12.5 -4t13.5 -3.5t17.5 -1.5t20.5 -3q9 0 21 11.5t12 21.5q0 7 -5 17t-5 12t-19.5 2t-20.5 2q-2 4 -40 -9l9 54q0 1 -1 13.5t-1 15.5q0 2 2 5q-37 10 -41 11
q-23 9 -46 33q-3 4 -16 2q-14 -2 -18 0q-30 17 -30 52q0 12 6 20q-41 31 -41 63q0 4 17 27.5t17 27.5q0 2 -8.5 21t-8.5 30q0 14 26 45q11 13 14 45q3 42 6 49q21 3 67 16q3 1 27 18q7 5 16 5q4 0 13.5 -3.5t13.5 -3.5q12 0 53 16q0 -3 -9 -31l2 -12q33 23 60 23
q41 0 69 -27.5t28 -66.5q0 -23 -15 -71q-29 21 -84 78q-28 30 -69 30q-6 0 -87 -11q-14 -19 -36 -56q-27 -46 -27 -60q0 -38 38 -112.5t63 -91.5q16 -11 46 -23q27 -11 34 -11t32 12t40 25q1 9 5 26q20 43 97 68v-18q0 -18 -9.5 -43t-16.5 -32t-24 -16q-20 -10 -25.5 -13.5
t-27.5 -31.5q-8 -3 -22 -13q6 -6 6 -8q-57 5 -91 0l-13 -29l52 -2q3 0 42 -30q6 -36 6 -58z" />
    <glyph glyph-name="eacute" unicode="&#xe9;" horiz-adv-x="483" 
d="M441 94q-27 -36 -49 -36q-5 0 -8 2t-4 2q1 -13 -5 -34q-21 -23 -77 -43q-12 -5 -27 -5q-5 0 -12 8q-12 12 -12 13q-40 -23 -78 -37q-7 11 -21 36q-13 0 -34 5q-46 32 -82.5 103t-36.5 123q0 48 60 117q-1 3 -2 10q33 47 85 74q48 25 95 25q39 0 89 -20q42 -17 84 -35
q1 -41 9 -71q1 -6 8.5 -20.5t7.5 -19.5q0 -4 -8.5 -15t-8.5 -15q0 -5 9 -22q12 -21 15 -28q-66 -11 -130 -11q-4 0 -27 2t-27 2q-5 0 -19 -6q-17 -6 -22 -7q-50 -12 -57 -14q-50 -17 -50 -39q0 -34 47 -62q8 -5 28 -8t29 -8q5 -2 18 -13q3 -2 26 -2h22q22 13 58 59
q29 35 51 35q21 0 31 -13q23 -30 25 -32zM333 313q0 18 -49.5 44t-65.5 26q-6 0 -19 -7.5t-17 -8.5q-14 -4 -75 -12q23 -41 34 -76q18 -10 52 -31q9 15 27 33q43 -27 49 -27q16 0 40 19t24 40zM203 517q-19 -10 -52 -28q-8 -1 -12.5 6.5t-1.5 15.5q5 10 46 63q44 58 59 71
q11 9 16 10q9 3 34 0q31 -36 31 -43q0 -3 -3 -2l-39 -32q-37 -29 -78 -61z" />
    <glyph glyph-name="egrave" unicode="&#xe8;" horiz-adv-x="483" 
d="M441 94q-27 -36 -49 -36q-5 0 -8 2t-4 2q1 -13 -5 -34q-21 -23 -77 -43q-12 -5 -27 -5q-5 0 -12 8q-12 12 -12 13q-40 -23 -78 -37q-7 11 -21 36q-13 0 -34 5q-46 32 -82.5 103t-36.5 123q0 48 60 117q-1 3 -2 10q33 47 85 74q48 25 95 25q39 0 89 -20q42 -17 84 -35
q1 -41 9 -71q1 -6 8.5 -20.5t7.5 -19.5q0 -4 -8.5 -15t-8.5 -15q0 -5 9 -22q12 -21 15 -28q-66 -11 -130 -11q-4 0 -27 2t-27 2q-5 0 -19 -6q-17 -6 -22 -7q-50 -12 -57 -14q-50 -17 -50 -39q0 -34 47 -62q8 -5 28 -8t29 -8q5 -2 18 -13q3 -2 26 -2h22q22 13 58 59
q29 35 51 35q21 0 31 -13q23 -30 25 -32zM333 313q0 18 -49.5 44t-65.5 26q-6 0 -19 -7.5t-17 -8.5q-14 -4 -75 -12q23 -41 34 -76q18 -10 52 -31q9 15 27 33q43 -27 49 -27q16 0 40 19t24 40zM226 517q19 -10 51 -28q9 -1 13.5 6.5t0.5 15.5q-4 10 -45 63q-44 58 -59 71
q-11 9 -16 10q-9 3 -34 0q-31 -36 -31 -43q0 -3 3 -2l39 -32q37 -29 78 -61z" />
    <glyph glyph-name="ecircumflex" unicode="&#xea;" horiz-adv-x="483" 
d="M441 94q-27 -36 -49 -36q-5 0 -8 2t-4 2q1 -13 -5 -34q-21 -23 -77 -43q-12 -5 -27 -5q-5 0 -12 8q-12 12 -12 13q-40 -23 -78 -37q-7 11 -21 36q-13 0 -34 5q-46 32 -82.5 103t-36.5 123q0 48 60 117q-1 3 -2 10q33 47 85 74q48 25 95 25q39 0 89 -20q42 -17 84 -35
q1 -41 9 -71q1 -6 8.5 -20.5t7.5 -19.5q0 -4 -8.5 -15t-8.5 -15q0 -5 9 -22q12 -21 15 -28q-66 -11 -130 -11q-4 0 -27 2t-27 2q-5 0 -19 -6q-17 -6 -22 -7q-50 -12 -57 -14q-50 -17 -50 -39q0 -34 47 -62q8 -5 28 -8t29 -8q5 -2 18 -13q3 -2 26 -2h22q22 13 58 59
q29 35 51 35q21 0 31 -13q23 -30 25 -32zM333 313q0 18 -49.5 44t-65.5 26q-6 0 -19 -7.5t-17 -8.5q-14 -4 -75 -12q23 -41 34 -76q18 -10 52 -31q9 15 27 33q43 -27 49 -27q16 0 40 19t24 40zM356 513q5 -7 4 -8q-5 -1 -9.5 -2.5t-17.5 -0.5q-17 15 -32 19q-6 2 -12 3
q-6 8 -22 18q-6 2 -12 5l-11 2q-5 0 -11 2q-3 6 -9 16q-5 -4 -10 -5.5l-10 -3t-10 -9.5q-1 1 -15 -6l-2 11l-10 -24q-12 -11 -18 -11q-4 0 -4.5 5.5t-1.5 4.5q-15 -5 -30 -18q-1 1 -19 -13q-4 -7 -21 11l25 17l-6 3l25 14l17 22q12 16 19 17l21 19l-10 2l28 14l15 14
q8 6 19 1h2l27 -22l4 -9l15 -6l18 -12q9 -5 3 -25l28 -12l4 -12l17 -6z" />
    <glyph glyph-name="edieresis" unicode="&#xeb;" horiz-adv-x="483" 
d="M441 94q-27 -36 -49 -36q-5 0 -8 2t-4 2q1 -13 -5 -34q-21 -23 -77 -43q-12 -5 -27 -5q-5 0 -12 8q-12 12 -12 13q-40 -23 -78 -37q-7 11 -21 36q-13 0 -34 5q-46 32 -82.5 103t-36.5 123q0 48 60 117q-1 3 -2 10q33 47 85 74q48 25 95 25q39 0 89 -20q42 -17 84 -35
q1 -41 9 -71q1 -6 8.5 -20.5t7.5 -19.5q0 -4 -8.5 -15t-8.5 -15q0 -5 9 -22q12 -21 15 -28q-66 -11 -130 -11q-4 0 -27 2t-27 2q-5 0 -19 -6q-17 -6 -22 -7q-50 -12 -57 -14q-50 -17 -50 -39q0 -34 47 -62q8 -5 28 -8t29 -8q5 -2 18 -13q3 -2 26 -2h22q22 13 58 59
q29 35 51 35q21 0 31 -13q23 -30 25 -32zM333 313q0 18 -49.5 44t-65.5 26q-6 0 -19 -7.5t-17 -8.5q-14 -4 -75 -12q23 -41 34 -76q18 -10 52 -31q9 15 27 33q43 -27 49 -27q16 0 40 19t24 40zM305 524q-21 0 -34.5 15.5t-13.5 38.5q0 10 2 19q20 18 62 28q39 8 39 -52
q0 -20 -18 -34.5t-37 -14.5zM126 529q-53 0 -53 48q0 21 19.5 37t39.5 16q24 0 36 -27q5 -16 17 -47q-29 -27 -59 -27z" />
    <glyph glyph-name="iacute" unicode="&#xed;" horiz-adv-x="196" 
d="M154 67q-22 -7 -63 -29q-6 -4 -6 -20q0 -4 1 -12v-12q0 -26 -16 -26h-17q-10 52 -20 105q-2 14 -2 64q0 30 2 60q1 15 -1 45.5t-2 29.5q0 4 -13.5 41t-13.5 42q0 4 27 50t34 46q5 0 51 -18q0 -1 -6 -32q13 -13 37 -40q-23 0 -49 -2q-4 -8 -4 -26q-1 -21 -4 -31
q0 -3 -6 -18t-6 -20q0 -1 34 -81q36 -83 43 -116zM53 517q-19 -10 -52 -28q-8 -1 -12.5 6.5t-1.5 15.5q5 10 46 63q44 58 59 71q11 9 16 10q9 3 34 0q31 -36 31 -43q0 -3 -3 -2l-39 -32q-37 -29 -78 -61z" />
    <glyph glyph-name="igrave" unicode="&#xec;" horiz-adv-x="196" 
d="M154 67q-22 -7 -63 -29q-6 -4 -6 -20q0 -4 1 -12v-12q0 -26 -16 -26h-17q-10 52 -20 105q-2 14 -2 64q0 30 2 60q1 14 6.5 41t5.5 31t-21 42.5t-21 43.5q0 4 27 50t34 46q5 0 51 -18q0 -1 -6 -32q13 -13 37 -40q-23 0 -49 -2q-4 -8 -4 -26q-1 -21 -4 -31q0 -3 -6 -18
t-6 -20q0 -1 34 -81q36 -83 43 -116zM106 517q19 -10 51 -28q9 -1 13.5 6.5t0.5 15.5q-4 10 -45 63q-44 58 -59 71q-11 9 -16 10q-9 3 -34 0q-31 -36 -31 -43q0 -3 3 -2l39 -32q37 -29 78 -61z" />
    <glyph glyph-name="icircumflex" unicode="&#xee;" horiz-adv-x="196" 
d="M154 67q-22 -7 -63 -29q-6 -4 -6 -20q0 -4 1 -12v-12q0 -26 -16 -26h-17q-10 52 -20 105q-2 14 -2 64q0 30 2 60q1 14 6.5 41t5.5 31t-21 42.5t-21 43.5q0 4 27 50t34 46q5 0 51 -18q0 -1 -6 -32q13 -13 37 -40q-23 0 -49 -2q-4 -8 -4 -26q-1 -21 -4 -31q0 -3 -6 -18
t-6 -20q0 -1 34 -81q36 -83 43 -116zM216 503q5 -7 4 -8q-5 -1 -9.5 -2.5t-17.5 -0.5q-17 15 -32 19q-6 2 -12 3q-6 8 -22 18q-6 2 -12 5l-11 2q-5 0 -11 2q-3 6 -9 16q-5 -4 -10 -5.5l-10 -3t-10 -9.5q-1 1 -15 -6l-2 11l-10 -24q-12 -11 -18 -11q-4 0 -4.5 5.5t-1.5 4.5
q-15 -5 -30 -18q-1 1 -19 -13q-4 -7 -21 11l25 17l-6 3l25 14l17 22q12 16 19 17l21 19l-10 2l28 14l15 14q8 6 19 1h2l27 -22l4 -9l15 -6l18 -12q9 -5 3 -25l28 -12l4 -12l17 -6z" />
    <glyph glyph-name="idieresis" unicode="&#xef;" horiz-adv-x="196" 
d="M154 67q-22 -7 -63 -29q-6 -4 -6 -20q0 -4 1 -12v-12q0 -26 -16 -26h-17q-10 52 -20 105q-2 14 -2 64q0 30 2 60q1 14 6.5 41t5.5 31t-21 42.5t-21 43.5q0 4 27 50t34 46q5 0 51 -18q0 -1 -6 -32q13 -13 37 -40q-23 0 -49 -2q-4 -8 -4 -26q-1 -21 -4 -31q0 -3 -6 -18
t-6 -20q0 -1 34 -81q36 -83 43 -116zM165 524q-21 0 -34.5 15.5t-13.5 38.5q0 10 2 19q20 18 62 28q39 8 39 -52q0 -20 -18 -34.5t-37 -14.5zM16 529q-53 0 -53 48q0 21 19.5 37t39.5 16q24 0 36 -27q5 -16 17 -47q-29 -27 -59 -27z" />
    <glyph glyph-name="ntilde" unicode="&#xf1;" horiz-adv-x="465" 
d="M95 527q-20 9 -20 21q0 4 3 8q16 24 31 40q32 23 35 20q1 -1 18 -1v0q18 0 22 -1q12 2 29 -5q4 -6 17.5 -13.5t20.5 -7.5q23 0 31 2q18 6 23 6l12 12l3 6.5t7 6.5q2 0 4 -2q6 -3 6 -8q0 -1 7.5 -5t7.5 -7t-11.5 -18.5t-11.5 -19t-15 -12.5t-17 -10q-6 -6 -41 -12
q-21 3 -46 9q-23 23 -29 23q1 0 -13 4t-15 2q-4 -9 -8 -9q-8 -2 -15 -3q-12 -4 -11 -8q1 -7 -1 -9q-5 -8 -23 -9zM411 366q-8 -5 -9 -11t5 -6q-16 -69 -16 -113q0 -46 16 -109q0 -6 -4.5 -8.5t-5.5 -2.5q0 -4 -3.5 -18t-3.5 -18q0 -5 7 -17t6 -16l9 -43l-70 27
q-15 30 -15 49q0 5 7 31t7 30q0 15 -9 45q-10 40 -12 79.5t-5 53.5q-8 34 -57.5 69.5t-85.5 34.5q-4 -8 -8 -17q-6 -12 -16 -17q7 -19 7 -29q0 -28 -25 -46q-33 -24 -37 -30.5t-5 -32.5q0 -40 -1 -44q0 -14 -3 -42q-7 -19 -16 -59q-2 -47 3 -97q-6 -2 -9 -1q-3 6 -28 44
q-19 29 -19 33q9 67 9 151q0 78 -9 125q0 42 24 76q27 38 67 38q3 0 22 -3.5t26 -3.5q4 -12 11 -35q20 20 40 39q29 28 48 28q5 0 26.5 -16t26.5 -16q3 0 8 2t9 2q32 0 79 -40q2 -18 -5 -59q7 -9 14 -7z" />
    <glyph glyph-name="oacute" unicode="&#xf3;" horiz-adv-x="523" 
d="M499 288q0 -4 -9 -39q-9 -40 -11 -52q-1 -2 0 -28q0 -20 -6 -32q-17 -21 -51 -67q-9 -14 -13 -31q1 -5 1 -14q-1 -19 -68 -48q-61 -27 -83 -27q-44 0 -44 61q0 4 4 19.5t5 22.5q31 13 42 13q6 0 49 -28q7 14 24 44q4 6 22 18t25.5 22t7.5 47q0 89 -22 161q-8 23 -27 52
q-27 41 -51 41q-35 0 -59 -17l-74 -64l-7 7q-4 -5 -26 -26q-18 -17 -18 -21q0 -5 10.5 -30t10.5 -29t-10.5 -14.5t-10.5 -13.5q0 -5 35 -69.5t35 -69.5q0 -12 -54 -66q-26 14 -70 102.5t-44 128.5q0 51 49 120q47 66 83 76q3 -26 14 -77q29 58 58 129q26 -15 51 -15
q1 -1 8 -12t12 -11q4 0 33 7t34 7q42 0 96 -74q49 -68 49 -103zM243 537q-19 -10 -52 -28q-8 -1 -12.5 6.5t-1.5 15.5q5 10 46 63q44 58 59 71q11 9 16 10q9 3 34 0q31 -36 31 -43q0 -3 -3 -2l-39 -32q-37 -29 -78 -61z" />
    <glyph glyph-name="ograve" unicode="&#xf2;" horiz-adv-x="523" 
d="M499 288q0 -4 -9 -39q-9 -40 -11 -52q-1 -2 0 -28q0 -20 -6 -32q-17 -21 -51 -67q-9 -14 -13 -31q1 -5 1 -14q-1 -19 -68 -48q-61 -27 -83 -27q-44 0 -44 61q0 4 4 19.5t5 22.5q31 13 42 13q6 0 49 -28q7 14 24 44q4 6 22 18t25.5 22t7.5 47q0 89 -22 161q-8 23 -27 52
q-27 41 -51 41q-35 0 -59 -17l-74 -64l-7 7q-4 -5 -26 -26q-18 -17 -18 -21q0 -5 10.5 -30t10.5 -29t-10.5 -14.5t-10.5 -13.5q0 -5 35 -69.5t35 -69.5q0 -12 -54 -66q-26 14 -70 102.5t-44 128.5q0 51 49 120q47 66 83 76q3 -26 14 -77q29 58 58 129q26 -15 51 -15
q1 -1 8 -12t12 -11q4 0 33 7t34 7q42 0 96 -74q49 -68 49 -103zM276 527q19 -10 51 -28q9 -1 13.5 6.5t0.5 15.5q-4 10 -45 63q-44 58 -59 71q-11 9 -16 10q-9 3 -34 0q-31 -36 -31 -43q0 -3 3 -2l39 -32q37 -29 78 -61z" />
    <glyph glyph-name="ocircumflex" unicode="&#xf4;" horiz-adv-x="523" 
d="M499 288q0 -4 -9 -39q-9 -40 -11 -52q-1 -2 0 -28q0 -20 -6 -32q-17 -21 -51 -67q-9 -14 -13 -31q1 -5 1 -14q-1 -19 -68 -48q-61 -27 -83 -27q-44 0 -44 61q0 4 4 19.5t5 22.5q31 13 42 13q6 0 49 -28q7 14 24 44q4 6 22 18t25.5 22t7.5 47q0 89 -22 161q-8 23 -27 52
q-27 41 -51 41q-35 0 -59 -17l-74 -64l-7 7q-4 -5 -26 -26q-18 -17 -18 -21q0 -5 10.5 -30t10.5 -29t-10.5 -14.5t-10.5 -13.5q0 -5 35 -69.5t35 -69.5q0 -12 -54 -66q-26 14 -70 102.5t-44 128.5q0 51 49 120q47 66 83 76q3 -26 14 -77q29 58 58 129q26 -15 51 -15
q1 -1 8 -12t12 -11q4 0 33 7t34 7q42 0 96 -74q49 -68 49 -103zM396 513q5 -7 4 -8q-5 -1 -9.5 -2.5t-17.5 -0.5q-17 15 -32 19q-6 2 -12 3q-6 8 -22 18q-6 2 -12 5l-11 2q-5 0 -11 2q-3 6 -9 16q-5 -4 -10 -5.5l-10 -3t-10 -9.5q-1 1 -15 -6l-2 11l-10 -24q-12 -11 -18 -11
q-4 0 -4.5 5.5t-1.5 4.5q-15 -5 -30 -18q-1 1 -19 -13q-4 -7 -21 11l25 17l-6 3l25 14l17 22q12 16 19 17l21 19l-10 2l28 14l15 14q8 6 19 1h2l27 -22l4 -9l15 -6l18 -12q9 -5 3 -25l28 -12l4 -12l17 -6z" />
    <glyph glyph-name="odieresis" unicode="&#xf6;" horiz-adv-x="523" 
d="M499 288q0 -4 -9 -39q-9 -40 -11 -52q-1 -2 0 -28q0 -20 -6 -32q-17 -21 -51 -67q-9 -14 -13 -31q1 -5 1 -14q-1 -19 -68 -48q-61 -27 -83 -27q-44 0 -44 61q0 4 4 19.5t5 22.5q31 13 42 13q6 0 49 -28q7 14 24 44q4 6 22 18t25.5 22t7.5 47q0 89 -22 161q-8 23 -27 52
q-27 41 -51 41q-35 0 -59 -17l-74 -64l-7 7q-4 -5 -26 -26q-18 -17 -18 -21q0 -5 10.5 -30t10.5 -29t-10.5 -14.5t-10.5 -13.5q0 -5 35 -69.5t35 -69.5q0 -12 -54 -66q-26 14 -70 102.5t-44 128.5q0 51 49 120q47 66 83 76q3 -26 14 -77q29 58 58 129q26 -15 51 -15
q1 -1 8 -12t12 -11q4 0 33 7t34 7q42 0 96 -74q49 -68 49 -103zM335 524q-21 0 -34.5 15.5t-13.5 38.5q0 10 2 19q20 18 62 28q39 8 39 -52q0 -20 -18 -34.5t-37 -14.5zM156 529q-53 0 -53 48q0 21 19.5 37t39.5 16q24 0 36 -27q5 -16 17 -47q-29 -27 -59 -27z" />
    <glyph glyph-name="otilde" unicode="&#xf5;" horiz-adv-x="523" 
d="M499 288q0 -4 -9 -39q-9 -40 -11 -52q-1 -2 0 -28q0 -20 -6 -32q-17 -21 -51 -67q-9 -14 -13 -31q1 -5 1 -14q-1 -19 -68 -48q-61 -27 -83 -27q-44 0 -44 61q0 4 4 19.5t5 22.5q31 13 42 13q6 0 49 -28q7 14 24 44q4 6 22 18t25.5 22t7.5 47q0 89 -22 161q-8 23 -27 52
q-27 41 -51 41q-35 0 -59 -17l-74 -64l-7 7q-4 -5 -26 -26q-18 -17 -18 -21q0 -5 10.5 -30t10.5 -29t-10.5 -14.5t-10.5 -13.5q0 -5 35 -69.5t35 -69.5q0 -12 -54 -66q-26 14 -70 102.5t-44 128.5q0 51 49 120q47 66 83 76q3 -26 14 -77q29 58 58 129q26 -15 51 -15
q1 -1 8 -12t12 -11q4 0 33 7t34 7q42 0 96 -74q49 -68 49 -103zM135 527q-20 9 -20 21q0 4 3 8q16 24 31 40q32 23 35 20q1 -1 18 -1v0q18 0 22 -1q12 2 29 -5q4 -6 17.5 -13.5t20.5 -7.5q23 0 31 2q18 6 23 6l12 12l3 6.5t7 6.5q2 0 4 -2q6 -3 6 -8q0 -1 7.5 -5t7.5 -7
t-11.5 -18.5t-11.5 -19t-15 -12.5t-17 -10q-6 -6 -41 -12q-21 3 -46 9q-23 23 -29 23q1 0 -13 4t-15 2q-4 -9 -8 -9q-8 -2 -15 -3q-12 -4 -11 -8q1 -7 -1 -9q-5 -8 -23 -9z" />
    <glyph glyph-name="uacute" unicode="&#xfa;" horiz-adv-x="488" 
d="M450 170q-14 -18 -28.5 -37t-14.5 -34q0 -51 4 -119q-31 -15 -52 -15q-26 0 -40 24q-12 20 -12 45q0 26 14 47q20 30 28 54q1 4 1 14t-4 56q-3 42 -2 62q0 2 5 11.5t5 14.5t-9 18t-9 18q0 4 7.5 14.5t9.5 13.5q8 16 8 42q0 -1 -21 61q33 -8 43 -12q26 -9 33 -19.5
t14 -34.5q9 -30 13 -39q-9 -4 -25 -11q-1 -4 2.5 -12t3.5 -12t-11 -28l4 -3zM282 33q0 -16 -8 -21q-29 -17 -78 -39.5t-56 -22.5q-15 0 -56 43q-34 37 -40 48q-11 19 -25 57q-4 24 -4 60q0 50 12.5 92t12.5 58q0 12 -14.5 34t-14.5 23q0 5 84 89q21 -50 15 -123
q-3 -32 2 -57q3 -13 13.5 -31.5t10.5 -21.5v-105q0 -3 70 -73q1 1 10 11q8 7 13 7q14 0 31 -6q22 -9 22 -22zM203 517q-19 -10 -52 -28q-8 -1 -12.5 6.5t-1.5 15.5q5 10 46 63q44 58 59 71q11 9 16 10q9 3 34 0q31 -36 31 -43q0 -3 -3 -2l-39 -32q-37 -29 -78 -61z" />
    <glyph glyph-name="ugrave" unicode="&#xf9;" horiz-adv-x="488" 
d="M450 170q-14 -18 -28.5 -37t-14.5 -34q0 -51 4 -119q-31 -15 -52 -15q-26 0 -40 24q-12 20 -12 45q0 26 14 47q20 30 28 54q1 4 1 14t-4 56q-3 42 -2 62q0 2 5 11.5t5 14.5t-9 18t-9 18q0 4 7.5 14.5t9.5 13.5q8 16 8 42q0 -1 -21 61q33 -8 43 -12q26 -9 33 -19.5
t14 -34.5q9 -30 13 -39q-9 -4 -25 -11q-1 -4 2.5 -12t3.5 -12t-11 -28l4 -3zM282 33q0 -16 -8 -21q-29 -17 -78 -39.5t-56 -22.5q-15 0 -56 43q-34 37 -40 48q-11 19 -25 57q-4 24 -4 60q0 50 12.5 92t12.5 58q0 12 -14.5 34t-14.5 23q0 5 84 89q21 -50 15 -123
q-3 -32 2 -57q3 -13 13.5 -31.5t10.5 -21.5v-105q0 -3 70 -73q1 1 10 11q8 7 13 7q14 0 31 -6q22 -9 22 -22zM226 517q19 -10 51 -28q9 -1 13.5 6.5t0.5 15.5q-4 10 -45 63q-44 58 -59 71q-11 9 -16 10q-9 3 -34 0q-31 -36 -31 -43q0 -3 3 -2l39 -32q37 -29 78 -61z" />
    <glyph glyph-name="ucircumflex" unicode="&#xfb;" horiz-adv-x="488" 
d="M450 170q-14 -18 -28.5 -37t-14.5 -34q0 -51 4 -119q-31 -15 -52 -15q-26 0 -40 24q-12 20 -12 45q0 26 14 47q20 30 28 54q1 4 1 14t-4 56q-3 42 -2 62q0 2 5 11.5t5 14.5t-9 18t-9 18q0 4 7.5 14.5t9.5 13.5q8 16 8 42q0 -1 -21 61q33 -8 43 -12q26 -9 33 -19.5
t14 -34.5q9 -30 13 -39q-9 -4 -25 -11q-1 -4 2.5 -12t3.5 -12t-11 -28l4 -3zM282 33q0 -16 -8 -21q-29 -17 -78 -39.5t-56 -22.5q-15 0 -56 43q-34 37 -40 48q-11 19 -25 57q-4 24 -4 60q0 50 12.5 92t12.5 58q0 12 -14.5 34t-14.5 23q0 5 84 89q21 -50 15 -123
q-3 -32 2 -57q3 -13 13.5 -31.5t10.5 -21.5v-105q0 -3 70 -73q1 1 10 11q8 7 13 7q14 0 31 -6q22 -9 22 -22zM356 513q5 -7 4 -8q-5 -1 -9.5 -2.5t-17.5 -0.5q-17 15 -32 19q-6 2 -12 3q-6 8 -22 18q-6 2 -12 5l-11 2q-5 0 -11 2q-3 6 -9 16q-5 -4 -10 -5.5l-10 -3t-10 -9.5
q-1 1 -15 -6l-2 11l-10 -24q-12 -11 -18 -11q-4 0 -4.5 5.5t-1.5 4.5q-15 -5 -30 -18q-1 1 -19 -13q-4 -7 -21 11l25 17l-6 3l25 14l17 22q12 16 19 17l21 19l-10 2l28 14l15 14q8 6 19 1h2l27 -22l4 -9l15 -6l18 -12q9 -5 3 -25l28 -12l4 -12l17 -6z" />
    <glyph glyph-name="udieresis" unicode="&#xfc;" horiz-adv-x="488" 
d="M450 170q-14 -18 -28.5 -37t-14.5 -34q0 -51 4 -119q-31 -15 -52 -15q-26 0 -40 24q-12 20 -12 45q0 26 14 47q20 30 28 54q1 4 1 14t-4 56q-3 42 -2 62q0 2 5 11.5t5 14.5t-9 18t-9 18q0 4 7.5 14.5t9.5 13.5q8 16 8 42q0 -1 -21 61q33 -8 43 -12q26 -9 33 -19.5
t14 -34.5q9 -30 13 -39q-9 -4 -25 -11q-1 -4 2.5 -12t3.5 -12t-11 -28l4 -3zM282 33q0 -16 -8 -21q-29 -17 -78 -39.5t-56 -22.5q-15 0 -56 43q-34 37 -40 48q-11 19 -25 57q-4 24 -4 60q0 50 12.5 92t12.5 58q0 12 -14.5 34t-14.5 23q0 5 84 89q21 -50 15 -123
q-3 -32 2 -57q3 -13 13.5 -31.5t10.5 -21.5v-105q0 -3 70 -73q1 1 10 11q8 7 13 7q14 0 31 -6q22 -9 22 -22zM305 524q-21 0 -34.5 15.5t-13.5 38.5q0 10 2 19q20 18 62 28q39 8 39 -52q0 -20 -18 -34.5t-37 -14.5zM126 529q-53 0 -53 48q0 21 19.5 37t39.5 16q24 0 36 -27
q5 -16 17 -47q-29 -27 -59 -27z" />
    <glyph glyph-name="dagger" unicode="&#x2020;" horiz-adv-x="387" 
d="M199 3q-1 -16 -4 -16q-1 0 -7.5 4t-12.5 4q-5 0 -7 -4t-3 -4q-3 0 -9 7q0 10 -2.5 43t-2.5 40q1 22 -9.5 68t-10.5 44q0 4 1 18q1 11 0 17q-1 10 -6 17q9 -9 11 -3q6 15 6 32q0 14 -4 33t-4 22q0 80 -4 120q-38 1 -46.5 4.5t-4.5 3.5q-6 0 11 -8q21 -9 21 -14q0 -2 -3 -3
q3 2 -98 23q-12 20 -12 45q0 20 9 39l116 7q-3 31 -9 75q-2 0 -2 2t2 8t2 8q0 4 -3 4q4 2 4 6q0 2 -2.5 7.5t-1.5 7.5q7 12 15 12q3 0 15 -5l28 -13q2 0 -6.5 7.5t-5.5 7.5q43 0 48 -2q17 -4 14 -39q0 -5 -6 -3.5t-6 -0.5q4 -23 7 -56q-1 -8 -2 -35q23 0 66 3q22 1 44 3
q20 0 20 -17q0 -4 -1.5 -12t-1.5 -11q0 -32 -19 -52q-44 0 -67 3t-18 3q-7 0 -23 -6l7 -38l-14 19l-4 -85l-10 -68l19 20l-5 -48q2 -86 0 -88q-1 -3 -9 -156z" />
    <glyph glyph-name="degree" unicode="&#xb0;" horiz-adv-x="367" 
d="M299 538q0 -5 -5 -33q-18 -35 -50 -79q-20 -13 -57 -23q-28 -7 -38 -7q-7 0 -35 9q-33 11 -53 24q-8 5 -25 33q-23 36 -28 43q-5 25 -5 21q2 25 5 50q6 37 18 42q4 2 12 2q-3 -2 -4 10q16 10 13 19q2 0 8 -1q4 -1 6 0t1 8q4 -2 8 2.5t8 4.5q2 -2 3 0q1 4 9 4
q4 0 12.5 1.5t11.5 1.5t16.5 8.5t17.5 8.5q3 0 23.5 -8.5t24 -8.5t6 -1.5t6.5 -1.5q8 0 9 -4q1 -2 3 0q4 0 8 -4.5t8 -2.5q-1 -7 1 -8t6 0q6 1 8 1q-3 -10 13 -19q-1 -3 0 -11q7 0 10 -2q23 -46 19 -46q-1 0 -2 1q-1 -8 3 -18t5 -16zM236 535q0 40 -19 45q-3 10 -9 17
q1 0 -9 4.5t-9 5.5l-3 7q-7 7 -35 7q-23 0 -28 -5l-5 -19q1 0 -11 0q-17 1 -21 -17q-11 -3 -13.5 -17t-4.5 -27q-1 -9 6 -22q10 -19 11 -21.5t12.5 -6t14.5 -7.5q9 -12 10 -20q5 -6 26 -6q36 0 43 9q9 4 19 10q2 15 6 36q3 8 11 16t8 11z" />
    <glyph glyph-name="cent" unicode="&#xa2;" horiz-adv-x="490" 
d="M424 525l-14 -8t-21 -20q-12 -19 -10 -47q-13 0 -49 32.5t-54 32.5q-12 0 -30.5 5.5t-26.5 5.5q-24 0 -55 -29l32 -35q2 -2 -14 -5.5t-15 -3.5q-17 1 -23 -23q-12 -2 -12 -15q0 -9 9 -32.5t9 -32.5q0 -4 -16.5 -17t-16.5 -23q0 -3 1.5 -7.5t55.5 -22t59 -24.5l-23 -7
t-23 -12q5 -6 39 -11q28 -4 41 -4q35 0 69.5 25t46.5 25q15 0 15 -44q0 -3 15.5 -12.5t15.5 -12.5q0 -2 -3 -3q-52 -25 -139 -59l-9 -32l9 -61q-11 3 -31 -8q-23 -13 -36 -15q0 2 4.5 26t4.5 41q-3 20 -6 52q-79 25 -123 53q-21 13 -96 114q-1 5 2 15t4 12q1 11 -11 85
q22 0 33 27q9 23 6 46q5 6 22 6q6 11 -4 31q5 -6 12 -1q0 14 -5 42q31 0 29 29q17 -2 49 -6q1 -1 1 -2q0 -5 -12.5 -15t-12.5 -12t7 -2q5 0 34 17.5t35 16.5l35 -5l4 43l-4 40q20 2 35.5 -7t23.5 -7v-76q48 11 50 11q14 0 53 -6q13 -2 24 -14q13 -15 13 -24q0 -2 -1.5 -11.5
t-1.5 -18.5z" />
    <glyph glyph-name="sterling" unicode="&#xa3;" horiz-adv-x="552" 
d="M390 388q23 1 23 -15q0 -3 -1 -11.5t-1 -12.5q0 -20 -24 -44q-54 0 -82 3.5t-23 3.5q-34 0 -60 -11v-49q-2 -18 -17 -40l-15 -22l-15 -46t-12 -46q29 21 47 21t18 -17q0 -7 26 -8q-56 1 41 1q2 0 14 10t14 10t15 -17t16 -17q2 0 10 13t12 12q29 0 34 9.5t8 17.5l12 1
q13 2 22 -6q6 -5 29 -8t23 -5t-3.5 -11.5t-4.5 -13.5q0 -3 1.5 -10.5t1.5 -11.5l-24 -88l-3 17q-5 25 -21 25q-2 0 -7 3t-7 3q-13 0 -26 -16q-4 -4 -14 -29q-4 2 -11 7q-30 33 -31.5 34.5t-25.5 2.5q-11 1 -14 1q-38 0 -68 -13q-7 -7 -20 -19q-4 0 -13 -2l-73 26h-8
q-6 -12 -10 -12q-6 0 -15.5 9t-19.5 9q-2 0 -50 -18h-7q-21 55 -21 51q0 14 7 18q21 7 72 27q3 1 -5 29q-9 33 -9 35q0 1 14 13t12 19t2 26q7 25 7 42q0 23 -9 48q-6 1 -18 1q-28 0 -79 -7q14 14 14 24q0 7 -10.5 19t-10.5 20q0 5 3 11l70 4q-5 45 -22 69q-3 5 0 23l6 30
q2 13 -8 13q-5 0 -17.5 -7.5t-13.5 -7.5q9 34 65 82q47 38 94 75q0 1 -2 1q-3 0 -20 -5t-22 -5q-3 0 -3 2q3 0 36.5 19.5t40.5 20.5q-2 -3 -11 -30q3 -2 91 -2q11 -3 54 -16q34 -10 39 -10q2 0 19.5 -13t30.5 -13q4 0 8 1q2 -3 24 -24q14 -12 14 -34q0 -71 -38 -95
q-13 13 -32 56q-16 35 -40 48q-16 8 -33 8q-5 0 -13.5 -3.5t-11.5 -3.5q-20 29 -34 29q-5 0 -12.5 -1.5t-12.5 -1.5l-46 1q-8 0 -15.5 -16t-4.5 -28q-7 -4 -28 -40t-21 -43q0 -15 17 -46q21 -38 25 -51q31 8 65 14q7 -3 32 -3q26 0 71 3q24 2 49 4z" />
    <glyph glyph-name="section" unicode="&#xa7;" 
 />
    <glyph glyph-name="bullet" unicode="&#x2022;" horiz-adv-x="529" 
d="M455 387q0 -71 -5 -105q-10 -57 -42 -116q-11 -15 -21 -31q-18 -28 -18 -34q-45 37 -65 44q-4 -6 19.5 -31t23.5 -29t-5 -4q-18 0 -51.5 -1t-49.5 -1q-106 0 -157 52q-16 16 -40 57q-33 55 -41 67q-6 8 -6 49q0 4 2 4q1 0 6.5 -5t7.5 -3q-8 18 -15 45q9 17 23 60
q13 38 23.5 54t53.5 41l66 38q-7 -18 -14 -35q-20 -41 -20 -46q0 -1 1 -1q3 1 49 39.5t52 38.5q48 0 99 -15q6 -2 43 -32q21 -17 43 -33q23 -20 32 -41q6 -13 6 -26z" />
    <glyph glyph-name="paragraph" unicode="&#xb6;" 
 />
    <glyph glyph-name="germandbls" unicode="&#xdf;" horiz-adv-x="522" 
d="M215 96q4 0 57.5 -20t58.5 -20q4 0 20 19.5t16 25.5q0 4 -11 23t-11 23q0 5 11 45.5t11 44.5q0 41 -26 65.5t-69 24.5h-2q1 1 0 1q-3 1 -25 -1q-4 8 -4 23q0 41 5 47q18 27 53 33q39 7 56 25q4 4 5 10q1 4 0 11t-1 9q0 -6 2 16q1 13 -3 21q-10 25 -48 44q-64 34 -90 34
q-18 0 -67 -29q-1 -5 -2 -2l2 2l3 11q-33 -27 -33 -39l-2 -58t-2 -95q0 -4 7.5 -28t7.5 -40q0 -11 -4 -21q-9 -27 -11 -53l-3 -47q4 -4 0 -86q2 -32 11 -44t9 -32q0 -19 -12 -33t-30 -14q-33 0 -35 2q-24 18 -24 127q0 2 18 90q1 6 10 21.5t9 19.5q0 34 -81 163q12 13 46 53
q12 15 14 41q2 32 5 40q1 2 5 7.5t4 10.5q0 9 -16 35v12q13 34 45 46q18 7 59 8.5t57 9.5l-1 -3v0q4 0 23.5 -7.5t29.5 -9.5q34 -3 103 -17q28 -9 57 -57q10 -15 15 -32q12 -42 12 -52q0 -2 -2 -11.5t-2 -23.5q-8 -34 -29 -50q-38 -29 -41 -33q6 2 12 2q37 0 65 -56
q14 -35 29 -71q-9 -8 -19 -49q-6 -29 -12 -57q4 -13 5 -40q-15 -58 -61 -126q-4 3 -19.5 17.5t-18.5 14.5q-19 0 -65 -27q-11 -7 -25 -7t-43 10t-41 9q-6 8 -6 18q0 8 4.5 20.5t4.5 16.5q0 11 -17 16q3 0 22 11.5t25 11.5z" />
    <glyph glyph-name="registered" unicode="&#xae;" horiz-adv-x="425" 
d="M182 322q-75 0 -128 54t-53 130q0 75 53 128t128 53t127.5 -53.5t52.5 -129.5q0 -75 -52.5 -128.5t-127.5 -53.5zM182 643q-58 1 -97 -39.5t-39 -99.5q0 -57 40.5 -98t95.5 -41t95 41t40 98t-40 97t-95 42zM187 600q11 4 32 -2q36 -11 36 -46q0 -45 -44 -54l49 -76h-45
l-49 75h-15v-75h-38v178h74zM188 568h-39v-29h44q25 0 25 18q0 11 -30 11z" />
    <glyph glyph-name="copyright" unicode="&#xa9;" horiz-adv-x="814" 
d="M366 -21q-149 0 -253 104.5t-104 254.5t104 255t253 105t253.5 -105t104.5 -255t-104.5 -254.5t-253.5 -104.5zM366 625q-116 0 -200.5 -84t-84.5 -203t84.5 -202.5t200.5 -83.5t200.5 83.5t84.5 202.5t-84.5 203t-200.5 84zM477 397q-23 81 -101 81q-60 0 -95 -39
t-35 -100q0 -55 31 -94q35 -43 97 -43q83 0 103 79h74q-17 -75 -63.5 -113.5t-112.5 -38.5q-92 0 -147 60t-55 152q0 89 56 150t147 61q65 0 112 -39q50 -42 63 -116h-74z" />
    <glyph glyph-name="trademark" unicode="&#x2122;" horiz-adv-x="492" 
d="M377 607l-56 -140h-27l-52 134v-134h-43v211h58l51 -129l52 129h59v-211h-42v140zM103 634v-167h-43v167h-66v44h173v-44h-64z" />
    <glyph glyph-name="acute" unicode="&#xb4;" horiz-adv-x="410" 
d="M162 724q-19 -10 -52 -28q-8 0 -12.5 7.5t-1.5 14.5q5 10 46 64q44 58 59 70q11 9 16 11q9 2 34 -1q31 -35 31 -43q0 -2 -3 -2l-39 -31q-1 -2 -38.5 -31t-39.5 -31zM264 776q9 10 22 20l13 -18z" />
    <glyph glyph-name="dieresis" unicode="&#xa8;" horiz-adv-x="375" 
d="M275 724q-21 0 -34.5 15.5t-13.5 38.5q0 10 2 19q20 18 62 28q39 8 39 -52q0 -20 -18 -34.5t-37 -14.5zM76 729q-53 0 -53 48q0 21 19.5 37t39.5 16q24 0 36 -27q5 -16 17 -47q-29 -27 -59 -27z" />
    <glyph glyph-name="AE" unicode="&#xc6;" horiz-adv-x="945" 
d="M546 15q-14 -11 -28 -41q-15 -33 -25 -43q-3 50 -6 99q-4 58 -16 102q-8 27 -50 46q-48 22 -60 40l-35 -20q-9 -4 -34 -4t-39 8.5l-14 8.5q-16 0 -52 -30q5 -11 14 -31q-49 -32 -83 -60q-2 -33 -35 -85q-71 21 -71 57q0 13 6 32q4 12 16.5 35.5t19.5 29.5t22 11
q22 6 24 7q10 4 26.5 42t54.5 111q35 15 70 78q41 74 90 111q2 2 5.5 24.5t9.5 30.5q16 22 63 62q58 49 98 65l-15 -65q-32 -35 -38 -57q-10 -31 5 -56q8 9 25 29q38 95 102 141q9 -11 28 -31q24 9 65 20q37 11 45 11q31 0 139 -49l-4 -71q-18 3 -53 11q-5 1 -17 10t-15 9
t-17 -7q-15 -10 -22 -12q-62 -22 -102 -22q-4 0 -14.5 12t-15.5 12q-19 0 -24 -40q-1 -25 -3 -51q-1 -9 -11.5 -28t-10.5 -22q0 -15 20 -24q13 -4 27 -8q3 -8 17 -25q46 -2 82 -32q25 31 67 31q3 0 19 -3.5t20 -3.5t15.5 3.5t17.5 3.5q23 0 54 -39v-57q-18 2 -48 6
q-25 4 -28 4q-5 0 -33 -7t-33 -7q-10 0 -83 12q2 5 -6 5q5 0 -87 -30q0 -18 -2 -54.5t-2 -38.5q0 -38 1 -53q7 -17 18 -44q26 -37 46 -37q5 0 14.5 6t10.5 6q42 15 70 15q4 0 20.5 -5t20.5 -5t20.5 1.5t20.5 1.5q19 0 33 -15l44 -48q-2 -3 -8 -8q-78 -1 -141 -9
q-9 -6 -27 -15q-31 -11 -59 -11q-32 0 -63 21q-44 29 -54 33h-2zM469 381q1 6 -13 41t-14 51q0 6 2 11q-39 -24 -50 -24q-4 0 -12 3t-12 3q8 -21 3 -38q-2 -4 -22.5 -31.5t-21.5 -31.5q-3 -10 15 -38l22 -28q24 12 58 38q40 29 45 44z" />
    <glyph glyph-name="Oslash" unicode="&#xd8;" horiz-adv-x="794" 
d="M208 -34q-17 7 -13 23q0 -10 3 -13q2 3 10 3v-13zM217 7q-3 0 -6 -2q-2 2 6 2zM525 522q-13 -18 -23 -34q-4 -7 -10 -9.5t-12 -9.5q-24 -28 -85 -124q-23 -34 -63 -103q-8 -30 -21 -68q-8 -12 -19 -18q-17 -9 -23 -14q-6 -12 -22 -40q27 -30 49 -41q13 -1 45 -9
q4 -1 20 -10q13 -8 18 -8q9 0 66 33q8 -15 26 -46q11 8 40 37q-28 6 -48 6q-3 11 10 21q74 55 90 128q6 27 6 146q0 -2 3 23t3 45q0 30 -7 46q-5 13 -43 49zM635 700q-24 -50 -53 -94q37 -25 60 -44q12 -11 38 -36q-5 -4 -26 -33l71 -176q-1 -4 -17.5 -15t-18.5 -26
q3 -37 -4 -111q-2 -6 -24 -20t-22 -30q0 -58 2 -28q-1 -17 -16 -25q1 -2 1 -4q0 -3 -8.5 -12t-6.5 -13q-16 1 -33 1q-12 0 -19 -32q-1 0 -14 8q-9 1 -34 1q-19 0 -34 -1q-1 -4 -4 -10q-85 -27 -105 -27q-4 0 -25 29q-6 -4 -19 -4q-24 0 -84 11q-8 5 -27 14q-7 0 -19 2
l-72 -79q-27 9 -58 22q-5 5 90 92q-57 47 -73 63q-37 34 -43 55q-1 5 2 22.5t3 26.5q0 5 -1 10q-2 10 -16.5 34.5t-14.5 27.5t7 15.5t8 16.5q2 23 5 69q3 27 32 53q25 22 54 32q11 -25 11 -50q0 -18 -2 -23q-4 -14 -24 -32q17 -40 35 -80t48 -75q-2 -13 2 -36q6 -14 21 -35
q2 8 4 12q8 18 22 40q2 4 32 35.5t33 36.5q4 16 13 46q14 31 42 76q22 24 53 58q24 31 78 101q-10 9 -19 16q-15 13 -25 16q-4 2 -36 2q-46 0 -113 -21q-47 -15 -94 -29q-8 -5 -10 -5h-14q16 35 49 106q5 0 8 -1.5t7 -1.5t21.5 9.5t25.5 12.5q29 7 65 7q49 0 62 -13
q6 8 19 19q9 4 20 4q9 0 53 -25q18 -11 37 -23q23 31 36 50q6 3 10.5 14.5t16.5 15.5z" />
    <glyph glyph-name="plusminus" unicode="&#xb1;" 
 />
    <glyph glyph-name="yen" unicode="&#xa5;" horiz-adv-x="557" 
d="M46 81q-7 4 -7 8t7.5 13t7.5 15q0 7 -8 14l27 23q37 2 103 8q27 4 36 2q6 37 3 63q-6 8 -15 24q-27 -7 -74 -5q-34 3 -68 5q-13 7 -13 21q0 2 2 18q1 13 0 25l27 7q37 2 102 8q-29 50 -85 150l5 22q6 27 -26 43q-23 8 -46 17q-22 50 -22 57v68q36 -10 67 -22
q-3 -27 1 -46q2 -12 17 -19.5t20 -16.5q7 -1 20.5 -13t21.5 -15q23 -7 52 -45q17 -28 33 -56q19 -31 36 -31q11 0 16 9.5t14 47.5q7 31 20 43q5 4 39 6q5 4 8 9q1 2 7 32q23 17 84 69q45 38 75 55l4 -16q-11 -32 -22 -65t-10 -52q-17 -2 -46 -8q-3 -5 -3 -11q0 -7 5.5 -20.5
t5.5 -20.5q-17 -5 -45 -18q-1 -33 -2 -67q-3 -38 -31 -55q-20 -4 -60 -14q2 -9 5 -18q40 3 60 1l49 -13l58 2l-12 -57q-55 -2 -131 -17q-1 1 -8 2l-24 -10q-15 -6 -24 -17q-1 -6 -1 -24q14 -5 15 -14q-1 -8 -2 -24q61 5 79 3l49 -13l46 -1v-54q-55 -2 -131 -16l-42 2
q3 -71 3 -83q0 -1 -35.5 -6t-44.5 -28q-45 30 -45 87q0 15 3 33q-94 -3 -150 -1z" />
    <glyph glyph-name="mu" unicode="&#xb5;" horiz-adv-x="442" 
d="M-7 112q-13 -3 -15 19q-2 30 -14 42l15 23q17 16 55 53l2 3l2 12l9 218v93q0 37 19 56q15 14 70 40l4 -12q-4 -8 -4 -18q0 -13 7.5 -31t7.5 -19q0 -48 13 -58q-40 -70 -40 -71q0 -3 5.5 -15.5t6.5 -17.5q8 -91 8 -77v-15q18 19 56 51l46 21l42 40l21 -69q-50 -45 -82 -80
q-23 -12 -83 -55v-24q0 -33 4 -52q3 -15 27 -45q27 -34 47 -34q4 0 27.5 3t27.5 3q21 0 123 -17q4 0 4 -8q0 -18 -18 -40t-33 -24q-154 -17 -163 -17q-4 0 -3 1.5t-3 1.5t-26.5 -8.5t-27.5 -8.5q-4 0 -17 6t-18 6q-61 8 -70 147q-12 -8 -32 -23z" />
    <glyph glyph-name="mu" unicode="&#x3bc;" horiz-adv-x="442" 
d="M-7 112q-13 -3 -15 19q-2 30 -14 42l15 23q17 16 55 53l2 3l2 12l9 218v93q0 37 19 56q15 14 70 40l4 -12q-4 -8 -4 -18q0 -13 7.5 -31t7.5 -19q0 -48 13 -58q-40 -70 -40 -71q0 -3 5.5 -15.5t6.5 -17.5q8 -91 8 -77v-15q18 19 56 51l46 21l42 40l21 -69q-50 -45 -82 -80
q-23 -12 -83 -55v-24q0 -33 4 -52q3 -15 27 -45q27 -34 47 -34q4 0 27.5 3t27.5 3q21 0 123 -17q4 0 4 -8q0 -18 -18 -40t-33 -24q-154 -17 -163 -17q-4 0 -3 1.5t-3 1.5t-26.5 -8.5t-27.5 -8.5q-4 0 -17 6t-18 6q-61 8 -70 147q-12 -8 -32 -23z" />
    <glyph glyph-name="ordfeminine" unicode="&#xaa;" horiz-adv-x="539" 
d="M524 578q-73 -30 -90 -40q-61 -35 -61 -77q0 -10 4 -20q-4 -4 -39 -21q1 -7 4.5 -23t5.5 -23q-4 -2 -46 -10q-28 -6 -37 -22q-6 -8 -9 -28q-4 -23 -8 -32q-7 -15 -49.5 -36.5t-46.5 -33.5q-2 -16 -6 -45q-2 -15 -15.5 -21t-25.5 -11q-3 -28 13 -46.5t39 -18.5h161
q10 0 46 -32q15 20 44 26q14 2 53 2q6 0 27.5 -9t21.5 -13t-19.5 -32t-23.5 -29q-55 -19 -64 -18h-15q-2 12 -7 39q2 3 -6 3q-25 -24 -81 -64q-11 9 -36 43q-53 -22 -54 -22q-4 0 -30 3.5t-30 3.5q-23 0 -61 -13q-3 26 -7 81q-19 11 -38 21q-26 15 -38 29q43 62 43 101
q0 8 -1 17q20 3 26 25q10 -11 14 -11q13 0 35 39q19 32 24 53q16 -1 36 1q13 27 46 79q28 29 56 57q41 43 41 73q0 14 -10 39t-20 36q-6 -1 -21.5 -9t-20.5 -8q-12 0 -37.5 21t-29.5 21q-6 0 -35 -18t-41 -31q-4 3 -48 47v51q96 14 161 14q4 0 70.5 -8.5t70.5 -8.5
q3 0 43.5 14t48.5 14q12 0 17 -7q8 -12 11 -14t38 -11q4 -4 4 -10q0 -5 -9 -20.5t-9 -20.5t10 -18t11 -18zM153 817q-5 7 -4 8q5 1 9 3q5 1 18 0q17 -15 31 -19q7 -1 13 -3q5 -7 22 -18q6 -2 11 -5l11 -2q5 0 11 -1q4 -7 10 -17q4 4 11 5q4 2 9 4t10 9q1 -1 14 6l3 -11
q5 12 10 25q12 10 18 10q4 0 4.5 -5.5t1.5 -4.5q15 5 30 19q0 -2 19 12q4 7 21 -11l-26 -17l6 -3l-25 -14l-16 -22q-4 -5 -19 -7l-22 -19l11 -2l-29 -14l-14 -14q-8 -6 -20 -1h-2l-27 22l-3 9l-15 6l-18 12q-7 4 -4 15l-27 12l-4 12l-17 7z" />
    <glyph glyph-name="ordmasculine" unicode="&#xba;" horiz-adv-x="424" 
d="M356 477q0 -74 -16 -124q-3 -9 -25.5 -27t-35.5 -20q-3 -1 -13 -1q-4 0 -13 1h-12q-3 2 -3 -6q0 -5 10 -32q12 -33 15 -44q-18 -9 -56 -36q-55 -39 -55 -58q0 -21 32.5 -43t32.5 -28q0 -3 -16.5 -31t-20.5 -39q-48 -12 -65 -12q-16 0 -58 12q-17 4 -21 14q-12 26 -19 95
q26 11 52 23q23 12 23 50q1 31 25 47l22 6q16 5 27.5 21.5t13.5 22.5q22 77 22 87q0 31 -61 60q-33 15 -67 30q63 20 133 34q25 5 40 5q4 0 24 -3.5t24 -3.5q1 0 56 10q5 -4 5 -10zM356 16q0 -16 -2 -20q-3 -8 -18 -8q-4 0 -15 1.5t-15 1.5t-45 -5q-47 -7 -66 -9v12
q0 6 14.5 27.5t26 30.5t35.5 19.5t31 10.5q28 0 42 -23q12 -18 12 -38zM79 634q17 5 15 5l12 -1q28 -24 44 -22q19 -16 24.5 -19t30.5 -7v0h-1q0 -1 11 -17q20 8 22.5 9.5t7.5 8.5l14 6l3 -11q13 35 29 35q7 0 5 -10q15 5 30 19l19 12q0 2 3 2q6 0 18 -13l-26 -17l6 -3
q-14 -4 -30 -22t-30 -21l-22 -19l11 -2q-6 -2 -28.5 -17.5t-24.5 -15.5q-1 0 -10 4h-2q-30 20 -30 31q-40 13 -37 33l-27 12l-4 12q-7 1 -20 11t-13 17z" />
    <glyph glyph-name="ae" unicode="&#xe6;" horiz-adv-x="780" 
d="M633 323q0 18 -49.5 44t-65.5 26q-6 0 -19 -7.5t-17 -8.5q-14 -4 -75 -12q23 -41 34 -76q18 -10 52 -31q9 15 27 33q43 -27 49 -27q16 0 40 19t24 40zM363 68q-36 -16 -58 -16h-75q40 27 53 39q29 25 36 53q-8 18 -13 36q-43 22 -114 24q7 -10 7 -20q-13 -4 -44.5 -3.5
t-46.5 -6.5q0 -53 91 -142q-14 -8 -43.5 -19.5t-35.5 -11.5q-9 0 -25.5 23.5t-22.5 25.5q-62 18 -62 103q0 24 10 32l34 26q70 60 143 60q8 0 26 1.5t28 0.5q15 -1 27 -5q26 34 26 67q0 48 -100 48q-12 0 -67 -26q-21 -4 -65 -15q-5 5 -5 10q0 4 5.5 22t7.5 27q6 49 68 63
q29 7 107 7q64 0 119 -78q69 74 159 74q39 0 89 -20q42 -17 84 -35q1 -41 9 -71q1 -6 8.5 -20.5t7.5 -19.5q0 -4 -8.5 -15t-8.5 -15q0 -5 9 -22q12 -21 15 -28q-66 -11 -130 -11q-4 0 -27 2t-27 2q-5 0 -19 -6q-17 -6 -22 -7q-50 -12 -57 -14q-50 -17 -50 -39q0 -34 47 -62
q8 -5 28 -8t29 -8q5 -2 18 -13q3 -2 26 -2h22q22 13 58 59q29 35 51 35q21 0 31 -13q23 -30 25 -32q-27 -36 -49 -36q-5 0 -8 2t-4 2q1 -13 -5 -34q-21 -23 -77 -43q-12 -5 -27 -5q-5 0 -12 8q-12 12 -12 13q-40 -23 -78 -37q-7 11 -21 36q-13 0 -34 5q-26 18 -51 53z" />
    <glyph glyph-name="oslash" unicode="&#xf8;" horiz-adv-x="523" 
d="M157 124q4 7 6.5 11.5t32.5 36t33 36.5q4 16 13 46q14 31 42 76q23 24 53 58l2 3q-24 32 -45 32q-35 0 -59 -17l-74 -64l-7 7q-4 -5 -26 -26q-18 -17 -18 -21q0 -5 10.5 -30t10.5 -29t-10.5 -14.5t-10.5 -13.5q0 -4 47 -91zM471 501q-24 -47 -24 -54q0 -1 1 -1h1h1
q-11 -19 -20 -31q28 -32 48.5 -70.5t20.5 -56.5q0 -4 -9 -39q-9 -40 -11 -52q-1 -2 0 -28q0 -20 -6 -32q-17 -21 -51 -67q-9 -14 -13 -31q1 -5 1 -14q-1 -19 -68 -48q-61 -27 -83 -27q-44 0 -44 61q0 4 4 19.5t5 22.5q31 13 42 13q6 0 49 -28q7 14 24 44q4 6 22 18t25.5 22
t7.5 47q0 89 -22 161q-2 4 -5 11q-8 -11 -42 -66q-23 -34 -63 -103q-8 -30 -21 -68q-8 -12 -19 -18q-17 -9 -23 -14q-8 -18 -35.5 -62t-33.5 -49l-27 -23q-26 8 -57 22q-4 4 25 26q22 17 44 33q-30 31 -66.5 109t-36.5 113q0 51 49 120q47 66 83 76q3 -26 14 -77
q29 58 58 129q26 -15 51 -15q1 -1 8 -12t12 -11q4 0 33 7t34 7q15 0 33 -11q10 13 13 17v0v0q1 -1 2 -1q2 1 10 13q6 3 11 14t17 15z" />
    <glyph glyph-name="questiondown" unicode="&#xbf;" horiz-adv-x="455" 
d="M-24 4q0 5 99 126q-2 2 -3 13v12l55 19q1 -1 5 -7.5t8 -10.5q0 5 -8 27l93 132h58q4 -2 4 -11q0 -8 -3.5 -26.5t-4.5 -24.5q3 -8 5 -25v-92q-20 -13 -58 -32q-5 -1 -48 -2q-23 -1 -34 -5q-3 -1 -34 -1q-3 -5 -3 -20q0 -2 2 -38q2 -41 3 -69t43 -75q36 -40 55 -87
q-1 -4 -9 -4q-44 0 -105 21q-72 26 -88 29v90q0 3 -16 30t-16 31zM253 -145q0 43 72 86q55 33 98 42q-9 -27 -33 -80q-13 -6 -37 -35q-1 -4 -12 -68h-11q-7 0 -36 15.5t-36 24.5q-5 13 -5 15zM198 431q0 19 21 34.5t40 15.5q15 0 43 -38q5 -25 -21 -43q-21 -13 -41 -25
q-42 48 -42 56z" />
    <glyph glyph-name="exclamdown" unicode="&#xa1;" horiz-adv-x="224" 
d="M32 465q5 2 26 18q18 13 34 13q18 0 39 -15q0 -8 7 -31.5t7 -26.5q0 -4 -12.5 -11.5t-12.5 -12.5q0 -2 1 -4q-25 -10 -51 -10q-10 0 -23 37q-7 22 -15 43zM8 -11q0 3 19 32q21 33 26 45q3 5 0 21q-3 21 -3 23q0 21 -1 41t-1 43q28 7 28 21q0 10 -5 46q-6 40 -11 49
q10 4 21.5 -9.5t19.5 -13.5q4 0 9 2q47 -113 47 -127q0 -10 -18 -30.5t-20 -27.5q-3 -20 8 -140q11 -129 11 -122l-31 -39q-1 -1 -27 -1q-5 15 -14 41q0 2 -2 2q-4 0 -22 -10t-24 -10q-4 0 -5 3q-8 19 -8 71q0 25 1.5 58.5t1.5 31.5z" />
    <glyph glyph-name="logicalnot" unicode="&#xac;" 
 />
    <glyph glyph-name="florin" unicode="&#x192;" 
 />
    <glyph glyph-name="guillemotleft" unicode="&#xab;" horiz-adv-x="371" 
d="M155 426q6 -21 6 -18q0 -1 -1 -14q-30 -35 -27 -53q-19 -23 -22 -28q-5 -9 -10 -39l1 1v0q-2 0 -20 -13q4 -6 8 -13q1 -6 3 -11.5t11 -11.5l7 -17l-14 -3q43 -16 43 -35q0 -8 -13 -5q7 -18 22 -37l15 -22q3 -1 3 -5q0 -6 -15 -20l-21 30l-4 -7q-7 14 -16 30l-27 19
l-44 49l-2 -13q-3 8 -21.5 35t-18.5 29l6 12v2q24 37 36 37q10 28 19 36.5t33 6.5l15 33l14 5q1 9 13.5 24.5t20.5 15.5zM315 426q6 -21 6 -18q0 -1 -1 -14q-30 -35 -27 -53q-19 -23 -22 -28q-5 -9 -10 -39l1 1v0q-2 0 -20 -13q4 -6 8 -13q1 -6 3 -11.5t11 -11.5l7 -17
l-14 -3q43 -16 43 -35q0 -8 -13 -5q7 -18 22 -37l15 -22q3 -1 3 -5q0 -6 -15 -20l-21 30l-4 -7q-7 14 -16 30l-27 19l-44 49l-2 -13q-3 8 -21.5 35t-18.5 29l6 12v2q24 37 36 37q10 28 19 36.5t33 6.5l15 33l14 5q1 9 13.5 24.5t20.5 15.5z" />
    <glyph glyph-name="guillemotright" unicode="&#xbb;" horiz-adv-x="371" 
d="M173 76q-6 22 -6 19l1 14q30 34 27 53q19 23 22 27q4 10 9 39v-1v0q1 0 20 13q-4 7 -7 13t-4.5 11.5t-10.5 11.5l-7 17l14 3q-43 16 -43 35q0 8 13 6q-7 18 -22 36l-15 23q-3 0 -3 4q0 7 15 21l21 -31l4 8q7 -14 16 -30l26 -20l44 -49l3 13q3 -8 21 -34.5t18 -29.5
l-5 -11v-3q-24 -36 -37 -36q-9 -29 -17 -36q-10 -10 -35 -8l-14 -33l-14 -5q-1 -8 -13.5 -23.5t-20.5 -16.5zM13 76q-6 22 -6 19l1 14q30 34 27 53q19 23 22 27q4 10 9 39v-1v0q1 0 20 13q-4 7 -7 13t-4.5 11.5t-10.5 11.5l-7 17l14 3q-43 16 -43 35q0 8 13 6q-7 18 -22 36
l-15 23q-3 0 -3 4q0 7 15 21l21 -31l4 8q7 -14 16 -30l26 -20l44 -49l3 13q3 -8 21 -34.5t18 -29.5l-5 -11v-3q-24 -36 -37 -36q-9 -29 -17 -36q-10 -10 -35 -8l-14 -33l-14 -5q-1 -8 -13.5 -23.5t-20.5 -16.5z" />
    <glyph glyph-name="ellipsis" unicode="&#x2026;" horiz-adv-x="843" 
d="M489 41q-42 -40 -88 -40q-35 0 -49 10t-23 44q-2 9 -2 18q0 33 29 58q26 22 55 22q80 0 78 -112zM197 37q-42 -39 -88 -39q-81 0 -81 72q0 31 30 55.5t61 24.5q33 0 52 -41zM780 61q-24 -59 -79 -59q-81 0 -81 72q0 31 38 58q35 24 69 24q31 0 43 -35q6 -18 10 -60z" />
    <glyph glyph-name="nonbreakingspace" unicode="&#xa0;" horiz-adv-x="999" 
 />
    <glyph glyph-name="Agrave" unicode="&#xc0;" horiz-adv-x="580" 
d="M574 33q-29 -3 -41 -21q-7 -11 -11 -38.5t-11 -37.5q-18 49 -36 97q-22 57 -47 100q-16 27 -64 46q-54 21 -71 39q-1 0 -30 -20q-7 -4 -32 -4t-41.5 8.5l-16.5 8.5q-16 0 -43 -30q9 -11 24 -31q-40 -31 -65 -58q8 -33 -8 -84q-55 15 -73.5 32.5t-18.5 55.5q0 11 5 34
t10.5 29t19.5 11q20 7 21 7q8 4 14 43q5 36 21 107q29 15 45 77q18 72 56 109q1 1 1 4t-2.5 17t-2.5 21q0 8 2 12q9 21 44 60q42 48 78 65l4 -64q-20 -34 -20 -56q0 -31 22 -55q15 27 55 82q64 -60 64 -131q0 -15 -3 -29q-4 -14 24 -48t29 -48q1 -72 19 -123q10 -29 38 -79
q5 -10 26 -39q17 -23 17 -26zM350 377q0 6 -28.5 46t-27.5 56q-32 -24 -42 -24q-5 0 -13.5 3t-12.5 3q14 -21 14 -37q0 -5 -12 -31.5t-12 -30.5q0 -9 56 -65q21 11 47 37q31 29 31 43zM326 702q19 -11 52 -29q8 0 12.5 7.5t1.5 14.5q-5 10 -46 64q-44 58 -59 71
q-11 9 -16 10q-9 2 -34 0q-31 -36 -31 -43q0 -3 3 -2l39 -32q37 -29 78 -61z" />
    <glyph glyph-name="Atilde" unicode="&#xc3;" horiz-adv-x="580" 
d="M574 33q-29 -3 -41 -21q-7 -11 -11 -38.5t-11 -37.5q-18 49 -36 97q-22 57 -47 100q-16 27 -64 46q-54 21 -71 39q-1 0 -30 -20q-7 -4 -32 -4t-41.5 8.5l-16.5 8.5q-16 0 -43 -30q9 -11 24 -31q-40 -31 -65 -58q8 -33 -8 -84q-55 15 -73.5 32.5t-18.5 55.5q0 11 5 34
t10.5 29t19.5 11q20 7 21 7q8 4 14 43q5 36 21 107q29 15 45 77q18 72 56 109q1 1 1 4t-2.5 17t-2.5 21q0 8 2 12q9 21 44 60q42 48 78 65l4 -64q-20 -34 -20 -56q0 -31 22 -55q15 27 55 82q64 -60 64 -131q0 -15 -3 -29q-4 -14 24 -48t29 -48q1 -72 19 -123q10 -29 38 -79
q5 -10 26 -39q17 -23 17 -26zM350 377q0 6 -28.5 46t-27.5 56q-32 -24 -42 -24q-5 0 -13.5 3t-12.5 3q14 -21 14 -37q0 -5 -12 -31.5t-12 -30.5q0 -9 56 -65q21 11 47 37q31 29 31 43zM149 713q-20 9 -20 21q0 4 3 8q16 24 32 40q32 23 34 21t18 -2h1q17 0 22 -1q11 2 29 -5
q4 -6 17 -13.5t20 -7.5q23 0 32 3q17 5 23 5l11 12l3 6.5t7 6.5q2 0 6.5 -2t4.5 -8q0 -1 7 -4.5t7 -7.5q0 -3 -11.5 -18.5t-11.5 -19t-15 -12t-17 -10.5q-5 -6 -40 -12q-22 3 -46 9q-23 23 -29 23l-14 4t-15 2q-3 -8 -7 -9q-8 -2 -16 -3q-12 -3 -11 -9t-1 -8q-5 -8 -23 -9z
" />
    <glyph glyph-name="Otilde" unicode="&#xd5;" horiz-adv-x="794" 
d="M208 -34q-17 7 -13 23q0 -10 3 -13q2 3 10 3v-13zM725 317q-1 -4 -17.5 -15t-18.5 -26q3 -37 -4 -111q-2 -6 -24 -20t-22 -30q0 -58 2 -28q-1 -17 -16 -25q11 -7 29 -22q-17 0 -52 -2.5t-43 -35.5q-1 0 -14 8q-9 1 -34 1q-19 0 -34 -1q-1 -4 -4 -10q-85 -27 -105 -27
q-4 0 -25 29q-6 -4 -19 -4q-24 0 -84 11q-8 5 -27 14q-7 -1 -20 3q-46 39 -93 79q-55 48 -62 73q-1 5 2 22.5t3 26.5q0 5 -1 10q-2 10 -16.5 34.5t-14.5 27.5t7 15.5t8 16.5q2 23 5 69q3 27 32 53q25 22 54 32q11 -25 11 -50q0 -18 -2 -23q-4 -14 -24 -32q17 -40 35 -80
t48 -75q-2 -13 2 -36q13 -27 43 -66q37 -47 66 -62q13 -1 45 -9q4 -1 20 -10q13 -8 18 -8q9 0 66 33q8 -15 26 -46q11 8 40 37q-28 6 -48 6q-3 11 10 21q74 55 90 128q6 27 6 146q0 -2 3 23t3 45q0 30 -7 46q-10 24 -102 102q-15 13 -25 16q-4 2 -36 2q-46 0 -113 -21
q-47 -15 -94 -29q-8 -5 -10 -5h-14q16 35 49 106q5 0 8 -1.5t7 -1.5t21.5 9.5t25.5 12.5q29 7 65 7q49 0 62 -13q6 8 19 19q9 4 20 4q9 0 53 -25q90 -53 138 -93q12 -11 38 -36q-5 -4 -26 -33zM217 7q-8 0 -6 -2q3 2 6 2zM249 713q-20 9 -20 21q0 4 3 8q16 24 32 40
q32 23 34 21t18 -2h1q17 0 22 -1q11 2 29 -5q4 -6 17 -13.5t20 -7.5q23 0 32 3q17 5 23 5l11 12l3 6.5t7 6.5q2 0 6.5 -2t4.5 -8q0 -1 7 -4.5t7 -7.5q0 -3 -11.5 -18.5t-11.5 -19t-15 -12t-17 -10.5q-5 -6 -40 -12q-22 3 -46 9q-23 23 -29 23l-14 4t-15 2q-3 -8 -7 -9
q-8 -2 -16 -3q-12 -3 -11 -9t-1 -8q-5 -8 -23 -9z" />
    <glyph glyph-name="OE" unicode="&#x152;" horiz-adv-x="1027" 
d="M660 279q-3 -17 -1.5 -55.5t-3.5 -58.5q-1 -4 -6 -8q1 -27 4.5 -42t22.5 -39q23 -26 39 -26q4 0 13.5 5.5t11.5 6.5q41 15 69 15q4 0 20.5 -5t20.5 -5t20.5 1.5t21.5 1.5q18 0 33 -15l44 -48q-2 -3 -8 -8q-78 -1 -141 -9q-9 -6 -27 -15q-32 -11 -59 -11q-33 0 -64 20
q-52 33 -54 34q-9 0 -24 3t-24 16q-32 -3 -39 -35q-1 0 -14 8q-9 1 -34 1q-19 0 -34 -1q-1 -4 -4 -10q-85 -27 -105 -27q-4 0 -25 29q-6 -4 -19 -4q-24 0 -84 11q-8 5 -27 14q-7 -1 -20 3q-46 39 -93 79q-55 48 -62 73q-1 5 2 22.5t3 26.5q0 5 -1 10q-2 10 -16.5 34.5
t-14.5 27.5t7 15.5t8 16.5q2 23 5 69q3 27 32 53q25 22 54 32q11 -25 11 -50q0 -18 -2 -23q-4 -14 -24 -32q17 -40 35 -80t48 -75q-2 -13 2 -36q13 -27 43 -66q37 -47 66 -62q13 -1 45 -9q4 -1 20 -10q13 -8 18 -8q9 0 66 33q8 -15 26 -46q11 8 40 37q-28 6 -48 6
q-3 11 10 21q74 55 90 128q6 27 6 146l3 19q-6 56 -6 60q0 15 3 34l-1 1q-9 24 -102 102q-15 13 -25 16q-4 2 -36 2q-46 0 -113 -21q-47 -15 -94 -29q-8 -5 -10 -5h-14q16 35 49 106q5 0 8 -1.5t7 -1.5t21.5 9.5t25.5 12.5q29 7 65 7q49 0 62 -13q6 8 19 19q9 4 20 4
q9 0 53 -25q59 -35 104 -67q35 71 87 108q9 -11 28 -31q23 9 64 20q38 11 45 11q31 0 139 -49l-4 -71q-18 3 -53 11q-5 1 -17 10t-15 9t-17 -8.5t-22 -10.5q-61 -22 -102 -22q-3 0 -14 12t-15 12q-20 0 -25 -40q-1 -25 -2 -51q-1 -8 -18 -38l15 -36q11 -3 28 -8q3 -8 16 -25
q47 -2 82 -32q26 31 67 31q4 0 19.5 -3.5t20.5 -3.5q3 0 15 3.5t17 3.5q23 0 55 -39v-57q-18 2 -48 6q-25 4 -29 4t-32.5 -7t-32.5 -7q-10 0 -83 11q1 6 -7 6q1 0 -80 -28z" />
    <glyph glyph-name="oe" unicode="&#x153;" horiz-adv-x="864" 
d="M723 323q0 18 -49.5 44t-65.5 26q-6 0 -19 -7.5t-17 -8.5q-14 -4 -75 -12q23 -41 34 -76q18 -10 52 -31q9 15 27 33q43 -27 49 -27q16 0 40 19t24 40zM437 90q-9 -11 -15 -20q-9 -14 -13 -31q1 -5 1 -14q-1 -19 -68 -48q-61 -27 -83 -27q-44 0 -44 61q0 4 4 19.5t5 22.5
q31 13 42 13q6 0 49 -28q7 14 24 44q4 6 22 18t25.5 22t7.5 47v18q-9 30 -9 54q0 9 2 19q-5 37 -15 70q-8 23 -27 52q-27 41 -51 41q-35 0 -59 -17l-74 -64l-7 7q-4 -5 -26 -26q-18 -17 -18 -21q0 -5 10.5 -30t10.5 -29t-10.5 -14.5t-10.5 -13.5q0 -5 35 -69.5t35 -69.5
q0 -12 -54 -66q-26 14 -70 102.5t-44 128.5q0 51 49 120q47 66 83 76q3 -26 14 -77q29 58 58 129q26 -15 51 -15q1 -1 8 -12t12 -11q4 0 33 7t34 7q45 0 101 -82q33 40 81 63q45 21 87 21q39 0 89 -20q42 -17 84 -35q1 -41 9 -71q1 -6 8.5 -20.5t7.5 -19.5q0 -4 -8.5 -15
t-8.5 -15q0 -5 9 -22q12 -21 15 -28q-66 -11 -130 -11q-4 0 -27 2t-27 2q-5 0 -19 -6q-17 -6 -22 -7q-50 -12 -57 -14q-50 -17 -50 -39q0 -34 47 -62q8 -5 28 -8t29 -8q5 -2 18 -13q3 -2 26 -2h22q22 13 58 59q29 35 51 35q21 0 31 -13q23 -30 25 -32q-27 -36 -49 -36
q-5 0 -8 2t-4 2q1 -13 -5 -34q-21 -23 -77 -43q-12 -5 -27 -5q-5 0 -12 8q-12 12 -12 13q-40 -23 -78 -37q-7 11 -21 36q-13 0 -34 5q-35 25 -67 75z" />
    <glyph glyph-name="endash" unicode="&#x2013;" horiz-adv-x="449" 
d="M416 315q24 0 24 -22q0 -5 -1 -15t-1 -14q0 -21 -25 -45q-55 0 -84 3.5t-24 3.5q-13 0 -55 -19q-38 -17 -55 -28q3 4 43 52l-20 -7q-18 -3 -38 -8q-56 0 -68 5t-7 5q-7 0 14 -10q27 -11 27 -18q0 -2 -3 -4q3 3 -124 30q-16 14 -16 40q0 21 11 46l179 10q9 1 26 -3t19 -6
q8 -4 38 -4t84 4z" />
    <glyph glyph-name="emdash" unicode="&#x2014;" horiz-adv-x="861" 
d="M416 315q17 0 22 -4l155 9q10 1 37 -3t29 -6q8 -4 34 -4t73 4l50 4q24 0 24 -10q0 -2 -1 -9t-1 -12q0 -41 -25 -65q-55 0 -84 3.5t-24 3.5q-15 0 -60 -12t-58 -20q3 3 32 30h-1q-18 -3 -38 -8q-56 0 -68 5t-7 5q-40 0 -55 -10q3 3 -31 8h-1q38 -22 74 -45
q-56 0 -124 23.5t-63 23.5q-116 0 -125 -10q-56 0 -68 5t-7 5q-3 0 -3 -1q0 -2 20.5 -14t20.5 -18q0 -3 -3 -5q4 3 -121 36q-16 14 -16 40q0 21 11 46l179 10q9 1 26 -3t19 -6q8 -4 38 -4t84 4z" />
    <glyph glyph-name="quotedblleft" unicode="&#x201c;" horiz-adv-x="319" 
d="M17 598q27 41 63 60q29 17 47 13q4 -2 0 -10q0 -4 -18.5 -20t-19 -20.5t-3.5 -35.5q34 -18 34 -47q0 -20 -15 -41q-17 -24 -40 -24q-11 0 -34.5 15.5t-25 27t-3.5 52.5q9 14 15 30zM164 598q27 41 63 60q29 17 47 13q4 -2 0 -10q0 -4 -18.5 -20t-19 -20.5t-3.5 -35.5
q34 -18 34 -47q0 -20 -15 -41q-17 -24 -40 -24q-11 0 -34.5 15.5t-25 27t-3.5 52.5q9 14 15 30z" />
    <glyph glyph-name="quotedblright" unicode="&#x201d;" horiz-adv-x="328" 
d="M111 545q-27 -41 -63 -61q-29 -16 -47 -12q-4 2 0 10q0 4 18.5 19.5t20.5 20.5q-1 5 1 36q-33 18 -33 47q0 20 16 42.5t39 22.5q11 0 34 -15.5t25 -27t4 -52.5q-9 -14 -15 -30zM251 545q-3 -22 -8 -47q-3 14 -9 24q-5 -8 -15 -20q-17 -16 -28 -17q-15 -1 -34 -15
q1 1 -8.5 4t-9.5 6q0 1 1 3.5t19.5 18t20.5 20.5q-1 5 1 36q-33 18 -33 47q0 20 16 42.5t39 22.5q11 0 34 -15.5t25 -27t4 -52.5q-9 -14 -15 -30z" />
    <glyph glyph-name="quoteleft" unicode="&#x2018;" horiz-adv-x="178" 
d="M25 589q26 40 62 60q30 16 48 13q4 -2 0 -10q-1 -4 -19.5 -20t-18.5 -20.5t-3 -35.5q33 -18 33 -48q0 -19 -14 -40q-17 -24 -40 -24q-12 0 -35 15.5t-25 27t-3 52.5q9 14 15 30z" />
    <glyph glyph-name="quoteright" unicode="&#x2019;" horiz-adv-x="175" 
d="M111 545q-3 -22 -8 -47q-3 14 -9 24q-5 -8 -15 -20q-17 -16 -28 -17q-15 -1 -34 -15q1 1 -8.5 4t-9.5 6q0 1 1 3.5t19.5 18t20.5 20.5q-1 5 1 36q-33 18 -33 47q0 20 16 42.5t39 22.5q11 0 34 -15.5t25 -27t4 -52.5q-9 -14 -15 -30z" />
    <glyph glyph-name="divide" unicode="&#xf7;" 
 />
    <glyph glyph-name="ydieresis" unicode="&#xff;" horiz-adv-x="421" 
d="M292 509q-20 0 -34 16t-14 39q0 9 3 18q19 19 62 28q38 9 38 -52q0 -19 -18 -34t-37 -15zM94 514q-53 0 -53 48q0 21 19.5 37t39.5 16q23 0 36 -27q5 -15 17 -46q-30 -28 -59 -28zM416 375q-32 -14 -42 -25q0 -16 -2 -49q-1 -11 -19 -18q-23 -8 -26 -11q7 -17 21 -54
q-10 -6 -63 -39q2 -10 -11 -31q-16 -24 -18 -30q-3 -13 -4 -50q-1 -52 -2 -60q-1 -21 -16 -36q-19 -19 -21 -22q-3 -7 -3 -49q0 -22 -6 -33.5t-46 -15.5q-5 -17 -19 -44q-4 -5 -18 -8q-10 -3 -19.5 -6t-25 -18.5t-19.5 -15.5t-3.5 1.5t-3.5 1.5q-1 0 -65 -21q-5 1 -5 9
t10 34q11 30 23 44q3 4 20 8t23 9q34 30 55 78q19 44 19 88q0 26 -23 68q-35 62 -36 67q-1 14 -6 50l-32 98q-28 88 -28 127q0 20 9 24q40 20 46 24q4 0 12 -11q34 -119 77 -189q15 -25 48 -49q3 -1 10 -1q19 0 26 14q4 8 6.5 55.5t16.5 69.5q4 6 20 13q21 10 27 13
q12 8 22 29l17 35q50 -24 74 -62v-12z" />
    <glyph glyph-name="Ydieresis" unicode="&#x178;" horiz-adv-x="557" 
d="M537 678q-11 -32 -22 -65t-10 -52q-17 -2 -46 -8q-3 -5 -3 -11q0 -7 5.5 -20.5t5.5 -20.5q-17 -5 -45 -18q-1 -33 -2 -67q-3 -38 -31 -55q-20 -4 -60 -14q11 -44 32 -92q-6 -6 -27.5 -14.5t-31.5 -20.5q-1 -6 -1 -24q14 -5 15 -14q-4 -47 -3 -60q0 -10 4.5 -29.5
t4.5 -23.5q0 -5 -18 -48q-23 -54 -29 -70q-56 38 -60 127v149q-6 9 -15 24q0 15 -6 43q-13 30 -48 90q-41 69 -55 96l5 22q6 27 -26 43q-23 8 -46 17q-22 51 -22 57v68q36 -10 67 -22q-3 -27 0.5 -45t26.5 -63q18 2 53 -2q23 -7 52 -45q17 -28 33 -56q19 -31 36 -31
q11 0 16 9.5t14 47.5q7 31 20 43q5 4 39 6q5 4 8 9q1 2 7 32q23 17 84 69q45 38 75 55zM355 724q-21 0 -34.5 15.5t-13.5 38.5q0 10 2 19q20 18 62 28q39 8 39 -52q0 -20 -18 -34.5t-37 -14.5zM156 729q-53 0 -53 48q0 21 19.5 37t39.5 16q24 0 36 -27q5 -16 17 -47
q-29 -27 -59 -27z" />
    <glyph glyph-name="currency" unicode="&#xa4;" 
 />
    <glyph glyph-name="guilsinglleft" unicode="&#x2039;" horiz-adv-x="371" 
d="M146 421q7 5 9 5q-1 0 4 -12q2 -5 1 -20q-18 -21 -23 -38q-2 -8 -4 -15q-9 -7 -21 -27q-3 -7 -6 -13l-2 -14q-1 -6 -3 -13q-8 -4 -19 -12q4 -5 6 -13q1 -4 5 -11q1 -6 11 -12q-2 0 7 -17l-14 -3q14 -6 29 -12q13 -15 13 -21q0 -5 -6.5 -6t-5.5 -1q7 -18 22 -37
q-2 0 15 -22q9 -5 -12 -25l-21 30l-4 -7l-16 30l-27 19q-20 15 -21 24l-23 25l-2 -13l-17 35l-16 18q-7 8 -6 12q2 6 5 11v2l26 32l10 5l8 18l14 22q3 3 16 4q11 0 14 -1l15 33l14 5l8 20zM306 421q7 5 9 5q-1 0 4 -12q2 -5 1 -20q-18 -21 -23 -38q-2 -8 -4 -15
q-9 -7 -21 -27q-3 -7 -6 -13l-2 -14q-1 -6 -3 -13q-8 -4 -19 -12q4 -5 6 -13q1 -4 5 -11q1 -6 11 -12q-2 0 7 -17l-14 -3q14 -6 29 -12q13 -15 13 -21q0 -5 -6.5 -6t-5.5 -1q7 -18 22 -37q-2 0 15 -22q9 -5 -12 -25l-21 30l-4 -7l-16 30l-27 19q-20 15 -21 24l-23 25l-2 -13
l-17 35l-16 18q-7 8 -6 12q2 6 5 11v2l26 32l10 5l8 18l14 22q3 3 16 4q11 0 14 -1l15 33l14 5l8 20z" />
    <glyph glyph-name="guilsinglright" unicode="&#x203a;" horiz-adv-x="371" 
d="M182 82q-7 -6 -9 -6q1 0 -4 12q-2 5 -1 21q18 21 23 38q2 7 4 15q9 6 21 27q3 6 6 13l2 13q1 6 2 13q9 4 20 12q-4 5 -6 13q-2 5 -6 12q0 5 -10 11q2 1 -7 17l14 3q-14 7 -30 12q-12 15 -12 22q0 5 6.5 5.5t5.5 1.5q-7 18 -22 36q1 1 -15 23q-9 4 12 25l21 -31l4 8
l16 -30l26 -20q21 -15 21 -23l23 -26l3 13l17 -34l16 -18q7 -8 6 -13q-2 -5 -5 -10v-3l-26 -32l-11 -4l-8 -18l-13 -22q-3 -4 -16 -5q-11 0 -15 1l-14 -33l-14 -5l-8 -20zM22 82q-7 -6 -9 -6q1 0 -4 12q-2 5 -1 21q18 21 23 38q2 7 4 15q9 6 21 27q3 6 6 13l2 13q1 6 2 13
q9 4 20 12q-4 5 -6 13q-2 5 -6 12q0 5 -10 11q2 1 -7 17l14 3q-14 7 -30 12q-12 15 -12 22q0 5 6.5 5.5t5.5 1.5q-7 18 -22 36q1 1 -15 23q-9 4 12 25l21 -31l4 8l16 -30l26 -20q21 -15 21 -23l23 -26l3 13l17 -34l16 -18q7 -8 6 -13q-2 -5 -5 -10v-3l-26 -32l-11 -4l-8 -18
l-13 -22q-3 -4 -16 -5q-11 0 -15 1l-14 -33l-14 -5l-8 -20z" />
    <glyph glyph-name="daggerdbl" unicode="&#x2021;" 
 />
    <glyph glyph-name="periodcentered" unicode="&#xb7;" horiz-adv-x="250" 
d="M180 281q-24 -59 -79 -59q-81 0 -81 72q0 31 38 58q35 24 69 24q31 0 43 -35q6 -18 10 -60z" />
    <glyph glyph-name="periodcentered" unicode="&#x2219;" horiz-adv-x="250" 
d="M180 281q-24 -59 -79 -59q-81 0 -81 72q0 31 38 58q35 24 69 24q31 0 43 -35q6 -18 10 -60z" />
    <glyph glyph-name="quotesinglbase" unicode="&#x201a;" horiz-adv-x="230" 
d="M151 -26q-38 -58 -89 -86q-42 -23 -68 -18q2 2 -1.5 4.5t-3.5 4.5t5 5q1 6 27.5 28.5t27.5 29.5q1 17 3 50q-47 26 -47 68q0 29 20 59q25 34 58 34q16 0 49 -22.5t36 -38.5t4 -75q2 -2 -10.5 -21.5t-10.5 -21.5z" />
    <glyph glyph-name="quotedblbase" unicode="&#x201e;" horiz-adv-x="436" 
d="M361 -26q-38 -58 -89 -86q-42 -23 -68 -18q2 2 -1.5 4.5t-3.5 4.5t5 5q1 6 27.5 28.5t27.5 29.5q1 17 3 50q-47 26 -47 68q0 29 20 59q25 34 58 34q16 0 49 -22.5t36 -38.5t4 -75q2 -2 -10.5 -21.5t-10.5 -21.5zM151 -26q-38 -58 -89 -86q-42 -23 -68 -18q2 2 -1.5 4.5
t-3.5 4.5t5 5q1 6 27.5 28.5t27.5 29.5q1 17 3 50q-47 26 -47 68q0 29 20 59q25 34 58 34q16 0 49 -22.5t36 -38.5t4 -75q2 -2 -10.5 -21.5t-10.5 -21.5z" />
    <glyph glyph-name="perthousand" unicode="&#x2030;" 
 />
    <glyph glyph-name="Acircumflex" unicode="&#xc2;" horiz-adv-x="580" 
d="M574 33q-29 -3 -41 -21q-7 -11 -11 -38.5t-11 -37.5q-18 49 -36 97q-22 57 -47 100q-16 27 -64 46q-54 21 -71 39q-1 0 -30 -20q-7 -4 -32 -4t-41.5 8.5l-16.5 8.5q-16 0 -43 -30q9 -11 24 -31q-40 -31 -65 -58q8 -33 -8 -84q-55 15 -73.5 32.5t-18.5 55.5q0 11 5 34
t10.5 29t19.5 11q20 7 21 7q8 4 14 43q5 36 21 107q29 15 45 77q18 72 56 109q1 1 1 4t-2.5 17t-2.5 21q0 8 2 12q9 21 44 60q42 48 78 65l4 -64q-20 -34 -20 -56q0 -31 22 -55q15 27 55 82q64 -60 64 -131q0 -15 -3 -29q-4 -14 24 -48t29 -48q1 -72 19 -123q10 -29 38 -79
q5 -10 26 -39q17 -23 17 -26zM350 377q0 6 -28.5 46t-27.5 56q-32 -24 -42 -24q-5 0 -13.5 3t-12.5 3q14 -21 14 -37q0 -5 -12 -31.5t-12 -30.5q0 -9 56 -65q21 11 47 37q31 29 31 43zM430 716q-18 -5 -15 -5q-1 0 -12 1q-28 24 -44 22q-19 16 -23 18q-8 4 -33 9l1 -1v0
q0 1 -10 17q-21 -8 -21 -10q-4 -1 -9 -8l-15 -6l-2 11q-13 -35 -29 -35q-7 0 -5 10q-15 -5 -30 -18l-19 -13q-1 -2 -4 -2q-5 0 -17 13l25 17l-6 3q12 6 25 14q7 9 17 22l40 36l-10 2q6 3 28.5 18t24.5 15q1 0 9 -4h2q31 -20 31 -31q24 -8 31 -15.5t5 -27.5l28 -12l4 -12
q7 -1 20 -11t13 -17z" />
    <glyph glyph-name="Ecircumflex" unicode="&#xca;" horiz-adv-x="497" 
d="M443 297q-18 2 -48 6q-25 4 -29 4t-32.5 -7t-32.5 -7q-10 0 -83 12q1 5 -7 5q5 0 -87 -30q0 -18 -2 -54.5t-2 -38.5q0 -51 5 -70q3 -14 22 -38q23 -26 39 -26q4 0 13.5 6t11.5 6q41 15 69 15q4 0 20.5 -5t20.5 -5t20.5 1.5t21.5 1.5q18 0 33 -15l44 -48q-2 -3 -8 -8
q-78 -1 -141 -9q-9 -6 -28 -15q-31 -11 -59 -11q-32 0 -63 20q-52 33 -54 34q-9 0 -24 2q-28 8 -34 47q-1 9 -1 58q0 4 -3.5 39t-3.5 39v99q0 4 -7 68t-7 68q0 58 32 130q38 85 97 128q9 -11 28 -31q23 9 64 20q38 11 45 11q31 0 139 -49l-4 -71q-18 3 -53 11q-5 1 -17 10
t-15 9t-17 -8.5t-22 -10.5q-61 -22 -102 -22q-3 0 -14 12t-15 12q-20 0 -25 -40q-1 -25 -2 -51q-1 -9 -12 -28t-11 -22q0 -15 20 -24l28 -8q3 -8 16 -25q47 -2 82 -32q26 31 67 31q4 0 19.5 -3.5t20.5 -3.5q3 0 15 3.5t17 3.5q23 0 55 -39v-57zM386 733q5 -7 4 -8
q-5 -1 -9.5 -2.5t-17.5 -0.5q-17 15 -32 19q-6 2 -12 3q-6 8 -22 18q-6 2 -12 5l-11 2q-5 0 -11 2q-3 6 -9 16q-5 -4 -10 -5.5l-10 -3t-10 -9.5q-1 1 -15 -6l-2 11l-10 -24q-12 -11 -18 -11q-4 0 -4.5 5.5t-1.5 4.5q-15 -5 -30 -18q-1 1 -19 -13q-4 -7 -21 11l25 17l-6 3
l25 14l17 22q12 16 19 17l21 19l-10 2l28 14l15 14q8 6 19 1h2l27 -22l4 -9l15 -6l18 -12q9 -5 3 -25l28 -12l4 -12l17 -6z" />
    <glyph glyph-name="Aacute" unicode="&#xc1;" horiz-adv-x="580" 
d="M574 33q-29 -3 -41 -21q-7 -11 -11 -38.5t-11 -37.5q-18 49 -36 97q-22 57 -47 100q-16 27 -64 46q-54 21 -71 39q-1 0 -30 -20q-7 -4 -32 -4t-41.5 8.5l-16.5 8.5q-16 0 -43 -30q9 -11 24 -31q-40 -31 -65 -58q8 -33 -8 -84q-55 15 -73.5 32.5t-18.5 55.5q0 11 5 34
t10.5 29t19.5 11q20 7 21 7q8 4 14 43q5 36 21 107q29 15 45 77q18 72 56 109q1 1 1 4t-2.5 17t-2.5 21q0 8 2 12q9 21 44 60q42 48 78 65l4 -64q-20 -34 -20 -56q0 -31 22 -55q15 27 55 82q64 -60 64 -131q0 -15 -3 -29q-4 -14 24 -48t29 -48q1 -72 19 -123q10 -29 38 -79
q5 -10 26 -39q17 -23 17 -26zM350 377q0 6 -28.5 46t-27.5 56q-32 -24 -42 -24q-5 0 -13.5 3t-12.5 3q14 -21 14 -37q0 -5 -12 -31.5t-12 -30.5q0 -9 56 -65q21 11 47 37q31 29 31 43zM254 712q-19 -11 -52 -28q-8 -1 -12.5 6.5t-1.5 15.5q5 9 46 63q44 58 59 71q11 9 16 10
q9 3 34 0q31 -36 31 -43q0 -3 -3 -2l-39 -32q-37 -29 -78 -61z" />
    <glyph glyph-name="Edieresis" unicode="&#xcb;" horiz-adv-x="497" 
d="M443 297q-18 2 -48 6q-25 4 -29 4t-32.5 -7t-32.5 -7q-10 0 -83 12q1 5 -7 5q5 0 -87 -30q0 -18 -2 -54.5t-2 -38.5q0 -51 5 -70q3 -14 22 -38q23 -26 39 -26q4 0 13.5 6t11.5 6q41 15 69 15q4 0 20.5 -5t20.5 -5t20.5 1.5t21.5 1.5q18 0 33 -15l44 -48q-2 -3 -8 -8
q-78 -1 -141 -9q-9 -6 -28 -15q-31 -11 -59 -11q-32 0 -63 20q-52 33 -54 34q-9 0 -24 2q-28 8 -34 47q-1 9 -1 58q0 4 -3.5 39t-3.5 39v99q0 4 -7 68t-7 68q0 58 32 130q38 85 97 128q9 -11 28 -31q23 9 64 20q38 11 45 11q31 0 139 -49l-4 -71q-18 3 -53 11q-5 1 -17 10
t-15 9t-17 -8.5t-22 -10.5q-61 -22 -102 -22q-3 0 -14 12t-15 12q-20 0 -25 -40q-1 -25 -2 -51q-1 -9 -12 -28t-11 -22q0 -15 20 -24l28 -8q3 -8 16 -25q47 -2 82 -32q26 31 67 31q4 0 19.5 -3.5t20.5 -3.5q3 0 15 3.5t17 3.5q23 0 55 -39v-57zM335 724q-21 0 -34.5 15.5
t-13.5 38.5q0 10 2 19q20 18 62 28q39 8 39 -52q0 -20 -18 -34.5t-37 -14.5zM136 729q-53 0 -53 48q0 21 19.5 37t39.5 16q24 0 36 -27q5 -16 17 -47q-29 -27 -59 -27z" />
    <glyph glyph-name="Egrave" unicode="&#xc8;" horiz-adv-x="497" 
d="M443 297q-18 2 -48 6q-25 4 -29 4t-32.5 -7t-32.5 -7q-10 0 -83 12q1 5 -7 5q5 0 -87 -30q0 -18 -2 -54.5t-2 -38.5q0 -51 5 -70q3 -14 22 -38q23 -26 39 -26q4 0 13.5 6t11.5 6q41 15 69 15q4 0 20.5 -5t20.5 -5t20.5 1.5t21.5 1.5q18 0 33 -15l44 -48q-2 -3 -8 -8
q-78 -1 -141 -9q-9 -6 -28 -15q-31 -11 -59 -11q-32 0 -63 20q-52 33 -54 34q-9 0 -24 2q-28 8 -34 47q-1 9 -1 58q0 4 -3.5 39t-3.5 39v99q0 4 -7 68t-7 68q0 189 91 255q28 -9 66 -28q23 9 64 20q38 11 45 11q31 0 139 -49l-4 -71q-18 3 -53 11q-5 1 -17 10t-15 9
t-17 -8.5t-22 -10.5q-61 -22 -102 -22q-3 0 -14 12t-15 12q-20 0 -25 -40q-1 -25 -2 -51q-1 -9 -12 -28t-11 -22q0 -15 20 -24l28 -8q3 -8 16 -25q47 -2 82 -32q26 31 67 31q4 0 19.5 -3.5t20.5 -3.5q3 0 15 3.5t17 3.5q23 0 55 -39v-57zM266 732q19 -11 52 -29
q8 0 12.5 7.5t1.5 14.5q-5 10 -46 64q-44 58 -59 71q-11 9 -16 10q-9 2 -34 0q-31 -36 -31 -43q0 -3 3 -2l39 -32q37 -29 78 -61z" />
    <glyph glyph-name="Iacute" unicode="&#xcd;" horiz-adv-x="219" 
d="M131 181q0 -13 -10 -22q-15 -14 -18 -20q10 -42 10 -77v-31q-1 -4 -9 -4q-11 0 -44 31q-28 27 -34 36q-12 18 -19 45q-5 17 -5 40q0 5 13 42.5t13 42.5q0 4 -9.5 20.5t-11.5 23.5q-8 31 -8 79q0 10 10 37.5t11 30.5q5 34 6 88q2 71 3 89q21 19 56 42l6 -5q8 -41 22 -90
q7 -24 7 -63q0 -8 -6 -12.5t-8 -12.5q-8 -32 -8 -135q0 -84 5 -110q2 -13 15 -37t13 -28zM44 702q-19 -11 -52 -28q-8 -1 -12.5 6.5t-1.5 15.5q5 9 46 63q44 58 59 71q11 9 16 10q9 3 34 0q31 -36 31 -43q0 -3 -3 -2l-39 -32q-37 -29 -78 -61z" />
    <glyph glyph-name="Icircumflex" unicode="&#xce;" horiz-adv-x="219" 
d="M131 181q0 -13 -10 -22q-15 -14 -18 -20q10 -42 10 -77v-31q-1 -4 -9 -4q-11 0 -44 31q-28 27 -34 36q-12 18 -19 45q-5 17 -5 40q0 5 13 42.5t13 42.5q0 4 -9.5 20.5t-11.5 23.5q-8 31 -8 79q0 10 10 37.5t11 30.5q5 34 6 88q2 71 3 89q21 19 56 42l6 -5q8 -41 22 -90
q7 -24 7 -63q0 -8 -6 -12.5t-8 -12.5q-8 -32 -8 -135q0 -84 5 -110q2 -13 15 -37t13 -28zM216 703q5 -7 4 -8q-5 -1 -9.5 -2.5t-17.5 -0.5q-17 15 -32 19q-6 2 -12 3q-6 8 -22 18q-6 2 -12 5l-11 2q-5 0 -11 2q-3 6 -9 16q-5 -4 -10 -5.5l-10 -3t-10 -9.5q-1 1 -15 -6l-2 11
l-10 -24q-12 -11 -18 -11q-4 0 -4.5 5.5t-1.5 4.5q-15 -5 -30 -18q-1 1 -19 -13q-4 -7 -21 11l25 17l-6 3l25 14l17 22q12 16 19 17l21 19l-10 2l28 14l15 14q8 6 19 1h2l27 -22l4 -9l15 -6l18 -12q9 -5 3 -25l28 -12l4 -12l17 -6z" />
    <glyph glyph-name="Idieresis" unicode="&#xcf;" horiz-adv-x="219" 
d="M131 181q0 -13 -10 -22q-15 -14 -18 -20q10 -42 10 -77v-31q-1 -4 -9 -4q-11 0 -44 31q-28 27 -34 36q-12 18 -19 45q-5 17 -5 40q0 5 13 42.5t13 42.5q0 4 -9.5 20.5t-11.5 23.5q-8 31 -8 79q0 10 10 37.5t11 30.5q5 34 6 88q2 71 3 89q21 19 56 42l6 -5q8 -41 22 -90
q7 -24 7 -63q0 -8 -6 -12.5t-8 -12.5q-8 -32 -8 -135q0 -84 5 -110q2 -13 15 -37t13 -28zM139 727q-21 0 -34.5 16t-13.5 39q0 9 2 19q20 18 62 27q39 9 39 -52q0 -19 -18 -34t-37 -15zM-14 729q-53 0 -53 48q0 21 19.5 37t39.5 16q24 0 36 -27q5 -16 17 -47
q-29 -27 -59 -27z" />
    <glyph glyph-name="Igrave" unicode="&#xcc;" horiz-adv-x="219" 
d="M131 181q0 -13 -10 -22q-15 -14 -18 -20q10 -42 10 -77v-31q-1 -4 -9 -4q-75 0 -79 6t-10 52q-7 50 -8 54q-5 17 -5 40q0 5 13 42.5t13 42.5q0 4 -9.5 20.5t-11.5 23.5q-8 31 -8 79q0 10 10 37.5t11 30.5q5 34 6 88q2 71 3 89q21 19 56 42l6 -5q8 -41 22 -90q7 -24 7 -63
q0 -8 -6 -12.5t-8 -12.5q-8 -32 -8 -135q0 -84 5 -110q2 -13 15 -37t13 -28zM96 702q19 -11 52 -29q8 0 12.5 7.5t1.5 14.5q-5 10 -46 64q-44 58 -59 71q-11 9 -16 10q-9 2 -34 0q-31 -36 -31 -43q0 -3 3 -2l39 -32q37 -29 78 -61z" />
    <glyph glyph-name="Oacute" unicode="&#xd3;" horiz-adv-x="794" 
d="M208 -34q-17 7 -13 23q0 -10 3 -13q2 3 10 3v-13zM725 317q-1 -4 -17.5 -15t-18.5 -26q3 -37 -4 -111q-2 -6 -24 -20t-22 -30q0 -58 2 -28q-1 -17 -16 -25q11 -7 29 -22q-17 0 -52 -2.5t-43 -35.5q-1 0 -14 8q-9 1 -34 1q-19 0 -34 -1q-1 -4 -4 -10q-85 -27 -105 -27
q-4 0 -25 29q-6 -4 -19 -4q-24 0 -84 11q-8 5 -27 14q-7 -1 -20 3q-46 39 -93 79q-55 48 -62 73q-1 5 2 22.5t3 26.5q0 5 -1 10q-2 10 -16.5 34.5t-14.5 27.5t7 15.5t8 16.5q2 23 5 69q3 27 32 53q25 22 54 32q11 -25 11 -50q0 -18 -2 -23q-4 -14 -24 -32q17 -40 35 -80
t48 -75q-2 -13 2 -36q13 -27 43 -66q37 -47 66 -62q13 -1 45 -9q4 -1 20 -10q13 -8 18 -8q9 0 66 33q8 -15 26 -46q11 8 40 37q-28 6 -48 6q-3 11 10 21q74 55 90 128q6 27 6 146q0 -2 3 23t3 45q0 30 -7 46q-10 24 -102 102q-15 13 -25 16q-4 2 -36 2q-46 0 -113 -21
q-47 -15 -94 -29q-8 -5 -10 -5h-14q16 35 49 106q5 0 8 -1.5t7 -1.5t21.5 9.5t25.5 12.5q29 7 65 7q49 0 62 -13q6 8 19 19q9 4 20 4q9 0 53 -25q90 -53 138 -93q12 -11 38 -36q-5 -4 -26 -33zM217 7q-8 0 -6 -2q3 2 6 2zM324 712q-19 -11 -52 -28q-8 -1 -12.5 6.5
t-1.5 15.5q5 9 46 63q44 58 59 71q11 9 16 10q9 3 34 0q31 -36 31 -43q0 -3 -3 -2l-39 -32q-37 -29 -78 -61z" />
    <glyph glyph-name="Ocircumflex" unicode="&#xd4;" horiz-adv-x="794" 
d="M208 -34q-17 7 -13 23q0 -10 3 -13q2 3 10 3v-13zM725 317q-1 -4 -17.5 -15t-18.5 -26q3 -37 -4 -111q-2 -6 -24 -20t-22 -30q0 -58 2 -28q-1 -17 -16 -25q11 -7 29 -22q-17 0 -52 -2.5t-43 -35.5q-1 0 -14 8q-9 1 -34 1q-19 0 -34 -1q-1 -4 -4 -10q-85 -27 -105 -27
q-4 0 -25 29q-6 -4 -19 -4q-24 0 -84 11q-8 5 -27 14q-7 -1 -20 3q-46 39 -93 79q-55 48 -62 73q-1 5 2 22.5t3 26.5q0 5 -1 10q-2 10 -16.5 34.5t-14.5 27.5t7 15.5t8 16.5q2 23 5 69q3 27 32 53q25 22 54 32q11 -25 11 -50q0 -18 -2 -23q-4 -14 -24 -32q17 -40 35 -80
t48 -75q-2 -13 2 -36q13 -27 43 -66q37 -47 66 -62q13 -1 45 -9q4 -1 20 -10q13 -8 18 -8q9 0 66 33q8 -15 26 -46q11 8 40 37q-28 6 -48 6q-3 11 10 21q74 55 90 128q6 27 6 146q0 -2 3 23t3 45q0 30 -7 46q-10 24 -102 102q-15 13 -25 16q-4 2 -36 2q-46 0 -113 -21
q-47 -15 -94 -29q-8 -5 -10 -5h-14q16 35 49 106q5 0 8 -1.5t7 -1.5t21.5 9.5t25.5 12.5q29 7 65 7q49 0 62 -13q6 8 19 19q9 4 20 4q9 0 53 -25q90 -53 138 -93q12 -11 38 -36q-5 -4 -26 -33zM217 7q-8 0 -6 -2q3 2 6 2zM496 723q5 -7 4 -8q-5 -1 -9.5 -2.5t-17.5 -0.5
q-17 15 -32 19q-6 2 -12 3q-6 8 -22 18q-6 2 -12 5l-11 2q-5 0 -11 2q-3 6 -9 16q-5 -4 -10 -5.5l-10 -3t-10 -9.5q-1 1 -15 -6l-2 11l-10 -24q-12 -11 -18 -11q-4 0 -4.5 5.5t-1.5 4.5q-15 -5 -30 -18q-1 1 -19 -13q-4 -7 -21 11l25 17l-6 3l25 14l17 22q12 16 19 17l21 19
l-10 2l28 14l15 14q8 6 19 1h2l27 -22l4 -9l15 -6l18 -12q9 -5 3 -25l28 -12l4 -12l17 -6z" />
    <glyph glyph-name="Ograve" unicode="&#xd2;" horiz-adv-x="794" 
d="M725 317q-1 -4 -17.5 -15t-18.5 -26q3 -37 -4 -111q-2 -6 -24 -20t-22 -30q0 -58 2 -28q-1 -17 -16 -25q11 -7 29 -22q-17 0 -52 -2.5t-43 -35.5q-1 0 -14 8q-9 1 -34 1q-19 0 -34 -1q-1 -4 -4 -10q-85 -27 -105 -27q-4 0 -25 29q-6 -4 -19 -4q-24 0 -84 11q-8 5 -27 14
q-7 -1 -20 3q-46 39 -93 79q-55 48 -62 73q-1 5 2 22.5t3 26.5q0 5 -1 10q-2 10 -16.5 34.5t-14.5 27.5t7 15.5t8 16.5q2 23 5 69q3 27 32 53q25 22 54 32q11 -25 11 -50q0 -18 -2 -23q-4 -14 -24 -32q17 -40 35 -80t48 -75q-2 -13 2 -36q13 -27 43 -66q37 -47 66 -62
q13 -1 45 -9q4 -1 20 -10q13 -8 18 -8q9 0 66 33q8 -15 26 -46q11 8 40 37q-28 6 -48 6q-3 11 10 21q74 55 90 128q6 27 6 146q0 -2 3 23t3 45q0 30 -7 46q-10 24 -102 102q-15 13 -25 16q-4 2 -36 2q-46 0 -113 -21q-47 -15 -94 -29q-8 -5 -10 -5h-14q16 35 49 106
q5 0 8 -1.5t7 -1.5t21.5 9.5t25.5 12.5q29 7 65 7q49 0 62 -13q6 8 19 19q9 4 20 4q9 0 53 -25q90 -53 138 -93q12 -11 38 -36q-5 -4 -26 -33zM376 722q19 -11 52 -29q8 0 12.5 7.5t1.5 14.5q-5 10 -46 64q-44 58 -59 71q-11 9 -16 10q-9 2 -34 0q-31 -36 -31 -43q0 -3 3 -2
l39 -32q37 -29 78 -61z" />
    <glyph glyph-name="Uacute" unicode="&#xda;" horiz-adv-x="604" 
d="M560 263q-11 -18 -28 -20q-11 -2 -21 -3q27 -16 27 -61q0 -2 -23.5 -31t-25.5 -44t-9 -43q-5 -9 -20 -16q-2 -2 -19 -2q-7 0 -24 4l-118 -70q-17 4 -81 4q-98 32 -157 112q-53 72 -53 149q0 26 8 45q2 6 12 16q-33 43 -33 63q0 12 16 76t16 65l-10 14t-10 30q0 21 20 43
q19 17 37 35q23 -19 47 -57q25 -41 25 -65q0 -29 -15.5 -72.5t-33.5 -61.5q2 -9 11 -27.5t9 -22.5v-100q0 -11 11 -44.5t16 -39.5q10 -12 25 -18q23 -9 24 -10q16 -18 55 -44h48h47q44 16 75 73q27 50 27 92q0 28 -20 77v77q15 31 19 56q14 115 14 170q0 14 -16 31v12
q14 12 33.5 15t37.5 5q11 -60 28 -113q2 -5 11 -24.5t9 -22.5q0 -4 -12 -15.5t-12 -16.5q0 -4 9 -28q12 -30 14 -39q-9 -7 -29 -24q9 -29 25 -85q3 -12 -5 -20q8 -7 19 -24zM234 692q-19 -11 -52 -28q-8 -1 -12.5 6.5t-1.5 15.5q5 9 46 63q44 58 59 71q11 9 16 10q9 3 34 0
q31 -36 31 -43q0 -3 -3 -2l-39 -32q-37 -29 -78 -61z" />
    <glyph glyph-name="Ucircumflex" unicode="&#xdb;" horiz-adv-x="599" 
d="M560 263q-11 -18 -28 -20q-11 -2 -21 -3q27 -16 27 -61q0 -2 -23.5 -31t-25.5 -44t-9 -43q-5 -9 -20 -16q-2 -2 -19 -2q-7 0 -24 4l-118 -70q-17 4 -81 4q-98 32 -157 112q-53 72 -53 149q0 26 8 45q2 6 12 16q-33 43 -33 63q0 12 13 68.5t13 57.5t-10 14.5t-10 30.5
q0 20 20 42q19 18 38 35q22 -19 46 -57q25 -41 25 -65q0 -29 -12.5 -65t-30.5 -54q2 -9 11 -27.5t9 -22.5v-100q0 -11 11 -44.5t16 -39.5q10 -12 25 -18q23 -9 24 -10q16 -18 55 -44h48h47q44 16 75 73q27 50 27 92q0 28 -20 77v77q15 31 19 56q14 115 14 170q0 14 -16 31
v12q14 12 33.5 15t37.5 5q11 -60 28 -113q2 -5 11 -24.5t9 -22.5q0 -4 -12 -15.5t-12 -16.5q0 -4 9 -28q12 -30 14 -39q-9 -7 -29 -24q9 -29 25 -85q3 -12 -5 -20q8 -7 19 -24zM406 703q5 -7 4 -8q-5 -1 -9.5 -2.5t-17.5 -0.5q-17 15 -32 19q-6 2 -12 3q-6 8 -22 18
q-6 2 -12 5l-11 2q-5 0 -11 2q-3 6 -9 16q-5 -4 -10 -5.5l-10 -3t-10 -9.5q-1 1 -15 -6l-2 11l-10 -24q-12 -11 -18 -11q-4 0 -4.5 5.5t-1.5 4.5q-15 -5 -30 -18q-1 1 -19 -13q-4 -7 -21 11l25 17l-6 3l25 14l17 22q12 16 19 17l21 19l-10 2l28 14l15 14q8 6 19 1h2l27 -22
l4 -9l15 -6l18 -12q9 -5 3 -25l28 -12l4 -12l17 -6z" />
    <glyph glyph-name="Ugrave" unicode="&#xd9;" horiz-adv-x="599" 
d="M560 263q-11 -18 -28 -20q-11 -2 -21 -3q27 -16 27 -61q0 -2 -23.5 -31t-25.5 -44t-9 -43q-5 -9 -20 -16q-2 -2 -19 -2q-7 0 -24 4l-118 -70q-17 4 -81 4q-98 32 -157 112q-53 72 -53 149q0 26 8 45q2 6 12 16q-11 14 -23 54q-10 36 -10 49q0 12 15 33t15 22l-10 29
t-10 45q0 21 20 42l38 36q20 -18 45.5 -72t25.5 -80q0 -22 -14 -29q-26 -13 -33 -19q1 -5 12 -48q8 -37 8 -42v-100q0 -11 11 -44.5t16 -39.5q10 -12 25 -18q23 -9 24 -10q16 -18 55 -44h48h47q44 16 75 73q27 50 27 92q0 28 -20 77v77q15 31 19 56q14 115 14 170
q0 14 -16 31v12q14 12 33.5 15t37.5 5q11 -60 28 -113q2 -5 11 -24.5t9 -22.5q0 -4 -12 -15.5t-12 -16.5q0 -4 9 -28q12 -30 14 -39q-9 -7 -29 -24q9 -29 25 -85q3 -12 -5 -20q8 -7 19 -24zM286 692q19 -11 52 -29q8 0 12.5 7.5t1.5 14.5q-5 10 -46 64q-44 58 -59 71
q-11 9 -16 10q-9 2 -34 0q-31 -36 -31 -43q0 -3 3 -2l39 -32q37 -29 78 -61z" />
    <glyph glyph-name="circumflex" unicode="&#x2c6;" horiz-adv-x="463" 
d="M356 723q5 -7 4 -8q-5 -1 -9.5 -2.5t-17.5 -0.5q-17 15 -32 19q-6 2 -12 3q-6 8 -22 18q-6 2 -12 5l-11 2q-5 0 -11 2q-3 6 -9 16q-5 -4 -10 -5.5l-10 -3t-10 -9.5q-1 1 -15 -6l-2 11l-10 -24q-12 -11 -18 -11q-4 0 -4.5 5.5t-1.5 4.5q-15 -5 -30 -18q-1 1 -19 -13
q-4 -7 -21 11l25 17l-6 3l25 14l17 22q12 16 19 17l21 19l-10 2l28 14l15 14q8 6 19 1h2l27 -22l4 -9l15 -6l18 -12q9 -5 3 -25l28 -12l4 -12l17 -6z" />
    <glyph glyph-name="tilde" unicode="&#x2dc;" horiz-adv-x="322" 
d="M25 707q-20 9 -20 21q0 4 3 8q16 24 31 40q32 23 35 20q1 -1 18 -1v0q18 0 22 -1q12 2 29 -5q4 -6 17.5 -13.5t20.5 -7.5q23 0 31 2q18 6 23 6l12 12l3 6.5t7 6.5q2 0 4 -2q6 -3 6 -8q0 -1 7.5 -5t7.5 -7t-11.5 -18.5t-11.5 -19t-15 -12.5t-17 -10q-6 -6 -41 -12
q-21 3 -46 9q-23 23 -29 23q1 0 -13 4t-15 2q-4 -9 -8 -9q-8 -2 -15 -3q-12 -4 -11 -8q1 -7 -1 -9q-5 -8 -23 -9z" />
    <glyph glyph-name="macron" unicode="&#xaf;" horiz-adv-x="285" 
d="M207 824q25 1 25 -21q0 -17 -4 -33l-4 2.5t-7 2.5q-6 0 -12 -7q-56 0 -80 3.5t-18 3.5q-41 0 -56 -9q4 3 -31 7q-4 -1 -7 -1q-9 0 -9 11q0 12 12 37z" />
    <glyph glyph-name="macron" unicode="&#x2c9;" horiz-adv-x="285" 
d="M207 824q25 1 25 -21q0 -17 -4 -33l-4 2.5t-7 2.5q-6 0 -12 -7q-56 0 -80 3.5t-18 3.5q-41 0 -56 -9q4 3 -31 7q-4 -1 -7 -1q-9 0 -9 11q0 12 12 37z" />
    <glyph glyph-name="cedilla" unicode="&#xb8;" horiz-adv-x="345" 
d="M142 19q-15 -22 -15 -26q0 -3 1.5 -15.5t1.5 -13.5q0 -2 -10 -54q38 14 41 9q1 -2 20.5 -2t19.5 -2t4.5 -12t4.5 -17q0 -10 -11.5 -21.5t-21.5 -11.5q-4 0 -20.5 3t-17.5 1.5t-13.5 3.5t-12.5 4t-9.5 -28t-9.5 -29q0 -5 33 -5q9 0 54 -2l58 25q4 2 18 22t14 25
q0 22 -11 61q-45 21 -47 21t-52 2l33 74z" />
    <glyph glyph-name="Scaron" unicode="&#x160;" 
 />
    <glyph glyph-name="scaron" unicode="&#x161;" 
 />
    <glyph glyph-name="brokenbar" unicode="&#xa6;" 
 />
    <glyph glyph-name="Eth" unicode="&#xd0;" 
 />
    <glyph glyph-name="eth" unicode="&#xf0;" 
 />
    <glyph glyph-name="Yacute" unicode="&#xdd;" 
 />
    <glyph glyph-name="yacute" unicode="&#xfd;" 
 />
    <glyph glyph-name="Thorn" unicode="&#xde;" 
 />
    <glyph glyph-name="thorn" unicode="&#xfe;" 
 />
    <glyph glyph-name="minus" unicode="&#xad;" 
 />
    <glyph glyph-name="minus" unicode="&#x2212;" 
 />
    <glyph glyph-name="multiply" unicode="&#xd7;" 
 />
    <glyph glyph-name="onesuperior" unicode="&#xb9;" 
 />
    <glyph glyph-name="twosuperior" unicode="&#xb2;" 
 />
    <glyph glyph-name="threesuperior" unicode="&#xb3;" 
 />
    <glyph glyph-name="onehalf" unicode="&#xbd;" 
 />
    <glyph glyph-name="onequarter" unicode="&#xbc;" 
 />
    <glyph glyph-name="threequarters" unicode="&#xbe;" 
 />
    <glyph glyph-name="Lslash" unicode="&#x141;" 
 />
    <glyph glyph-name="lslash" unicode="&#x142;" 
 />
    <glyph glyph-name="HT" 
 />
    <glyph glyph-name="LF" 
 />
    <glyph glyph-name="nonmarkingreturn" 
 />
    <glyph glyph-name="Zcaron" unicode="&#x17d;" 
 />
    <glyph glyph-name="zcaron" unicode="&#x17e;" 
 />
    <glyph glyph-name="DLE" 
 />
    <glyph glyph-name="DC1" 
 />
    <glyph glyph-name="DC2" 
 />
    <glyph glyph-name="DC3" 
 />
    <glyph glyph-name="DC4" 
 />
    <glyph glyph-name="RS" 
 />
    <glyph glyph-name="US" 
 />
    <glyph glyph-name="notequal" unicode="&#x2260;" 
 />
    <glyph glyph-name="infinity" unicode="&#x221e;" 
 />
    <glyph glyph-name="lessequal" unicode="&#x2264;" 
 />
    <glyph glyph-name="greaterequal" unicode="&#x2265;" 
 />
    <glyph glyph-name="partialdiff" unicode="&#x2202;" horiz-adv-x="220" 
d="M60 137q-21 -13 -55 -36q-12 -3 -12 7q0 2 1 8.5t1 10.5q0 16 -11 26l16 23q23 23 58 57v2q-1 5 -11 24t-10 24q0 4 14 79.5t14 79.5q0 15 -21 43t-21 67q0 51 30 143h36q14 -9 27 -18q24 -16 24 -36q0 -4 -11.5 -53t-11.5 -53t10.5 -26t10.5 -25q0 -4 -15.5 -31.5
t-15.5 -31.5q0 -2 38 -59q0 -1 -35 -29q1 0 14 -29q29 30 80 73q3 2 5 2q4 0 4 -12q0 -7 -2.5 -28.5t-2.5 -30.5q0 -16 6 -16q2 0 5 2q-18 -11 -72 -85q2 -1 2 -3q0 -4 -10.5 -10.5t-10.5 -8.5q0 -1 1 -10q1 -8 0 -13q0 -8 -4 -13q1 -4 -9 -13q-1 -1 8.5 -14t9.5 -17.5
t12.5 -21.5t12.5 -21q0 -12 -35 -64q-5 0 -21 -5.5t-19 -5.5h-19q-7 42 -5 148z" />
    <glyph glyph-name="summation" unicode="&#x2211;" horiz-adv-x="646" 
d="M605 176q0 -4 -6 -33q-6 -32 -8 -46q-43 -5 -76 -13q4 -10 10 -30q-18 -7 -57 -23q-16 1 -43 -5q-5 -9 -20 -25q-23 -14 -48 -14q-4 0 -15 3.5t-15 3.5t-42 -13.5t-42 -13.5q-7 0 -22 11.5t-19 23.5q-3 9 -3 71q-8 -2 -45 -18q-27 -12 -34 -12q-19 0 -52 58
q-29 51 -29 61q0 16 21.5 34.5t36.5 18.5q26 0 74 -58q30 -37 49 -70q18 1 109 -20q19 -4 91 -4q72 117 72 126q0 29 -45.5 55t-116.5 61.5t-78 35.5q-4 0 -4 -2v0q0 -1 -4 -1t-11.5 2.5t-10.5 2.5q-19 1 -39 2q-29 3 -47 14q-9 5 -16 18.5t-14 25.5q-16 2 -37 1
q-3 20 -3 55q0 38 2 46q7 26 41 66q-7 -3 -22 -4l-11 11q113 71 151 86q46 18 126 18q70 0 113 -26q15 -9 119 -94q-14 -29 -41 -85h-10q-8 4 -23 8q-26 -2 -83 59.5t-66 61.5q-3 0 -31.5 -8.5t-33.5 -8.5t-24 11q-25 14 -29 16l-122 -39q37 -51 75 -102q47 -57 92 -74
q34 0 93 -12q5 -2 18.5 -15t17.5 -13t18 1.5t18 1.5q76 0 125 -130q2 -6 15 -33q11 -21 11 -25zM163 817q-5 7 -4 8q5 1 9 3q5 1 18 0q17 -15 31 -19q7 -1 13 -3q5 -7 22 -18q6 -2 11 -5l11 -2q5 0 11 -1q4 -7 10 -17q4 4 11 5q4 2 9 4t10 9q1 -1 14 6l3 -11q5 12 10 25
q12 10 18 10q4 0 4.5 -5.5t1.5 -4.5q15 5 30 19q0 -2 19 12q4 7 21 -11l-26 -17l6 -3l-25 -14l-16 -22q-4 -5 -19 -7l-22 -19l11 -2l-29 -14l-14 -14q-8 -6 -20 -1h-2l-27 22l-3 9l-15 6l-18 12q-7 4 -4 15l-27 12l-4 12l-17 7z" />
    <glyph glyph-name="product" unicode="&#x220f;" horiz-adv-x="480" 
d="M420 164q2 -29 -5 -80q-13 -29 -44 -50q-16 -11 -74 -25q-20 1 -60 -6q-9 -4 -44 -22q-25 -13 -30 -13q-4 0 -16 8.5t-18 8.5q-57 -3 -97 54q-31 44 -40 99v12h18q23 0 63 -26q25 -17 49 -34q9 -2 28 -8q3 -9 10 -29q2 -3 10 -3q3 0 12.5 2t14.5 2q16 0 21 -11
q8 15 27 20l26 6q8 4 15 31q5 22 5 34q0 24 -21 38q-12 8 -49.5 19.5t-76.5 22.5q-56 18 -86 41q-42 32 -42 76q0 11 30 80q5 0 8.5 -2t8.5 -2q1 0 38 36t65 36q4 0 18 -4.5t20 -5.5l60 -4q38 -3 65 -13q20 -7 48 -39t28 -48q0 -6 -26 -64q-7 3 -21 18q-18 19 -23 23
q-14 12 -88 49q-2 3 -5 8t-8 5q-4 0 -26.5 -7t-27.5 -7q-4 0 -22 3.5t-22 3.5q-16 0 -31 -9q6 -49 29 -70q19 -18 58 -40q36 -20 44 -20q4 0 22 7t22 7q17 0 43 -9q33 -12 41.5 -28.5t27.5 -49.5q3 -6 28 -21zM69 634q17 5 15 5l12 -1q28 -24 44 -22q19 -16 24.5 -19
t30.5 -7v0h-1q0 -1 11 -17q20 8 22.5 9.5t7.5 8.5l14 6l3 -11q13 35 29 35q7 0 5 -10q15 5 30 19l19 12q0 2 3 2q6 0 18 -13l-26 -17l6 -3q-14 -4 -30 -22t-30 -21l-22 -19l11 -2q-6 -2 -28.5 -17.5t-24.5 -15.5q-1 0 -10 4h-2q-30 20 -30 31q-40 13 -37 33l-27 12l-4 12
q-7 1 -20 11t-13 17z" />
    <glyph glyph-name="pi" unicode="&#x3c0;" horiz-adv-x="557" 
d="M537 678q-11 -32 -22 -65t-10 -52q-17 -2 -46 -8q-3 -5 -3 -11q0 -7 5.5 -20.5t5.5 -20.5q-17 -5 -45 -18q-1 -33 -2 -67q-3 -38 -31 -55q-20 -4 -60 -14q11 -44 32 -92q-6 -6 -27.5 -14.5t-31.5 -20.5q-1 -6 -1 -24q14 -5 15 -14q-4 -47 -3 -60q0 -10 4.5 -29.5
t4.5 -23.5q0 -5 -18 -48q-23 -54 -29 -70q-56 38 -60 127v149q-6 9 -15 24q0 15 -6 43q-13 30 -48 90q-41 69 -55 96l5 22q6 27 -26 43q-23 8 -46 17q-22 51 -22 57v68q36 -10 67 -22q-3 -27 0.5 -45t26.5 -63q18 2 53 -2q23 -7 52 -45q17 -28 33 -56q19 -31 36 -31
q11 0 16 9.5t14 47.5q7 31 20 43q5 4 39 6q5 4 8 9q1 2 7 32q23 17 84 69q45 38 75 55zM262 724q-19 -10 -52 -28q-8 0 -12.5 7.5t-1.5 14.5q5 10 46 64q44 58 59 70q11 9 16 11q9 2 34 -1q31 -35 31 -43q0 -2 -3 -2l-39 -31q-37 -30 -78 -62zM364 776q9 10 22 20l13 -18z
" />
    <glyph glyph-name="integral" unicode="&#x222b;" horiz-adv-x="480" 
d="M436 375q-32 -14 -42 -25q0 -16 -2 -49q-1 -11 -19 -18q-23 -8 -26 -11q7 -17 21 -54q-10 -6 -63 -39q2 -10 -11 -31q-16 -24 -18 -30q-3 -13 -4 -50q-1 -52 -2 -60q-1 -21 -16 -36q-19 -19 -21 -22q-3 -7 -3 -49q0 -22 -6 -33.5t-46 -15.5q-5 -17 -19 -44q-4 -5 -18 -8
q-10 -3 -19.5 -6t-25 -18.5t-19.5 -15.5t-3.5 1.5t-3.5 1.5q-1 0 -65 -21q-5 1 -5 9t10 34q11 30 23 44q3 4 20 8t23 9q34 30 55 78q19 44 19 88q0 26 -23 68q-35 62 -36 67q-1 14 -6 50l-32 98q-28 88 -28 127q0 20 9 24q40 20 46 24q4 0 12 -11q34 -119 77 -189
q15 -25 48 -49q3 -1 10 -1q19 0 26 14q4 8 6.5 55.5t16.5 69.5q4 6 20 13q21 10 27 13q12 8 22 29l17 35q50 -24 74 -62v-12zM222 524q-19 -10 -52 -28q-8 0 -12.5 7.5t-1.5 14.5q5 10 46 64q44 58 59 70q11 9 16 11q9 2 34 -1q31 -35 31 -43q0 -2 -3 -2l-39 -31
q-37 -30 -78 -62zM324 576q9 10 22 20l13 -18z" />
    <glyph glyph-name="Omega" unicode="&#x3a9;" horiz-adv-x="715" 
d="M14 220q-6 3 -6 8q0 3 7 12.5t7 15.5q0 7 -8 14l24 22q18 2 32 3q-7 28 -7 45q0 19 9 46q-17 2 -47 4q-12 7 -12 21q0 2 2 18q1 13 1 24l23 8q27 3 66 5q28 62 30 87q0 2 75 59t75 65q11 -7 18 -25q5 21 11 32q8 15 83 15q53 0 70 -5q5 -6 15 -15q34 -8 99 -30
q13 -5 45 -47q13 -16 21 -35t18 -33q-7 -8 -10 -34q-3 -21 -11 -21q-57 0 -91 34l-72 92q-7 8 -49 8q-30 0 -52 -10.5t-43 -10.5q-3 0 -16 2t-20 2q-32 -48 -97 -131q12 -1 27 -1q9 0 48 4q32 3 49 1l44 -14l51 3l-10 -57q-49 -3 -118 -17q-49 11 -94 11q-20 0 -36 -3
q3 -16 15.5 -35.5t12.5 -21.5q0 -5 -19 -23l6 -14q16 -3 50 -3q9 0 48 4q31 3 49 1l43 -13l42 -1v-54q-49 -3 -118 -17q-30 3 -107 6v-3q0 -15 30 -59q26 -37 34 -44q18 -16 55 -41q22 -10 63 -21q37 -11 45 -11q3 0 21 10.5t22 10.5t12 -1.5t11 -1.5q15 0 18 6q12 27 44 46
q44 27 55 37q30 30 44 86q21 -35 27 -64.5t3 -86.5q-2 2 -4 2q-4 0 -12.5 -7t-12.5 -7t-7 4q-13 -17 -17 -17q-1 1 -2 1q-2 -1 -5 -8q-10 -20 -48 -39q-9 -5 -22 -5q-48 0 -62 10q-2 -1 -30 -36q-9 -12 -29 -12q-28 0 -46 31q-9 -14 -29.5 -22.5t-35.5 -8.5q-40 0 -57 37
q-26 55 -37 65q-2 2 -22 2.5t-29 11.5t-26 36q-26 56 -42 97q-53 0 -82 1z" />
    <glyph glyph-name="Omega" unicode="&#x2126;" horiz-adv-x="715" 
d="M14 220q-6 3 -6 8q0 3 7 12.5t7 15.5q0 7 -8 14l24 22q18 2 32 3q-7 28 -7 45q0 19 9 46q-17 2 -47 4q-12 7 -12 21q0 2 2 18q1 13 1 24l23 8q27 3 66 5q28 62 30 87q0 2 75 59t75 65q11 -7 18 -25q5 21 11 32q8 15 83 15q53 0 70 -5q5 -6 15 -15q34 -8 99 -30
q13 -5 45 -47q13 -16 21 -35t18 -33q-7 -8 -10 -34q-3 -21 -11 -21q-57 0 -91 34l-72 92q-7 8 -49 8q-30 0 -52 -10.5t-43 -10.5q-3 0 -16 2t-20 2q-32 -48 -97 -131q12 -1 27 -1q9 0 48 4q32 3 49 1l44 -14l51 3l-10 -57q-49 -3 -118 -17q-49 11 -94 11q-20 0 -36 -3
q3 -16 15.5 -35.5t12.5 -21.5q0 -5 -19 -23l6 -14q16 -3 50 -3q9 0 48 4q31 3 49 1l43 -13l42 -1v-54q-49 -3 -118 -17q-30 3 -107 6v-3q0 -15 30 -59q26 -37 34 -44q18 -16 55 -41q22 -10 63 -21q37 -11 45 -11q3 0 21 10.5t22 10.5t12 -1.5t11 -1.5q15 0 18 6q12 27 44 46
q44 27 55 37q30 30 44 86q21 -35 27 -64.5t3 -86.5q-2 2 -4 2q-4 0 -12.5 -7t-12.5 -7t-7 4q-13 -17 -17 -17q-1 1 -2 1q-2 -1 -5 -8q-10 -20 -48 -39q-9 -5 -22 -5q-48 0 -62 10q-2 -1 -30 -36q-9 -12 -29 -12q-28 0 -46 31q-9 -14 -29.5 -22.5t-35.5 -8.5q-40 0 -57 37
q-26 55 -37 65q-2 2 -22 2.5t-29 11.5t-26 36q-26 56 -42 97q-53 0 -82 1z" />
    <glyph glyph-name="radical" unicode="&#x221a;" 
 />
    <glyph glyph-name="approxequal" unicode="&#x2248;" 
 />
    <glyph glyph-name="approxequal" unicode="&#x22f2;" 
 />
    <glyph glyph-name="Delta" unicode="&#x394;" 
 />
    <glyph glyph-name="Delta" unicode="&#x2206;" 
 />
    <glyph glyph-name="lozenge" unicode="&#x25ca;" horiz-adv-x="380" 
d="M131 177l-4 -8q-7 14 -16 30q-26 24 -71 69l-2 -13q-10 26 -33 52q-8 9 -7 12l6 11v3q24 36 36 36q4 18 34 47q27 26 47 35q2 15 25 34q2 2 6.5 10t5.5 5q0 3 4.5 -5t6.5 -10q13 -10 16 -14q8 -9 9 -20l14 -5l15 -33h10q7 1 20 -4q15 -21 22 -40q12 0 37 -36l-1 -3l6 -11
q0 -2 -18.5 -29.5t-21.5 -34.5l-2 13q-28 -26 -70 -69q-7 -12 -16 -30l-5 8l-26 -37z" />
    <glyph glyph-name="fraction" unicode="&#x2044;" 
 />
    <glyph glyph-name="fi" unicode="&#xf001;" 
 />
    <glyph glyph-name="fl" unicode="&#xf002;" 
 />
    <glyph glyph-name="apple" unicode="&#xf000;" 
 />
    <glyph glyph-name="dotlessi" unicode="&#x131;" horiz-adv-x="196" 
d="M154 67q-22 -7 -63 -29q-6 -4 -6 -20q0 -4 1 -12v-12q0 -26 -16 -26h-17q-10 52 -20 105q-2 14 -2 64q0 30 2 60q1 14 6.5 41t5.5 31t-21 42.5t-21 43.5q0 4 27 50t34 46q5 0 51 -18q0 -1 -6 -32q13 -13 37 -40q-23 0 -49 -2q-4 -8 -4 -26q-1 -21 -4 -31q0 -3 -6 -18
t-6 -20q0 -1 34 -81q36 -83 43 -116z" />
    <glyph glyph-name="breve" unicode="&#x2d8;" horiz-adv-x="290" 
d="M218 834q6 3 10 3q8 0 8 -14q0 -8 -3.5 -26t-3.5 -23q0 -10 -34 -27t-66 -17q-69 0 -104 35q-17 7 -17 30q0 18 11 42q19 -17 37 -35q23 -19 45 -19q7 0 13 2q70 2 104 49z" />
    <glyph glyph-name="dotaccent" unicode="&#x2d9;" horiz-adv-x="184" 
d="M76 729q-53 0 -53 48q0 21 19.5 37t39.5 16q24 0 36 -27q5 -16 17 -47q-29 -27 -59 -27z" />
    <glyph glyph-name="ring" unicode="&#x2da;" horiz-adv-x="238" 
d="M190 787q0 -12 -3 -19q-25 -66 -87 -66q-27 0 -52 21q-22 18 -33 45q-3 7 -3 12q0 36 13 54l8 3v0q0 8 7 17t17 8q1 -1 2.5 1t6 2t16.5 2.5t18 2.5q21 0 40 -6l24 -24q22 -23 22 -32v-1l-11 30q-1 -5 7 -26t8 -24zM152 785q0 25 -12 27q-2 10 -15 17q-4 9 -22 9
q-13 0 -16 -2t-12 -13q-10 0 -13 -11q-10 -2 -10 -28q0 -13 16 -29q8 -8 16 -15q3 -3 16 -3q20 0 26 5q0 3 11 6q2 3 8.5 19t6.5 18z" />
    <glyph glyph-name="hungarumlaut" unicode="&#x2dd;" horiz-adv-x="319" 
d="M179 721q-15 -8 -41 -22q-7 -1 -11 6q-3 6 0 11q3 8 36 51q35 47 47.5 57.5t39.5 7.5q25 -29 25 -35q0 -2 -3 -1l-30 -26q-30 -23 -63 -49zM59 721q-15 -8 -41 -22q-7 -1 -11 6q-3 6 0 11q3 8 36 51q35 47 47.5 57.5t39.5 7.5q25 -29 25 -35q0 -2 -3 -1l-30 -26
q-30 -23 -63 -49z" />
    <glyph glyph-name="ogonek" unicode="&#x2db;" horiz-adv-x="293" 
d="M113 21q-11 -8 -18 -15q-19 -17 -21 -27t-14 -23t-12 -18q-11 -19 -11 -38q0 -23 18 -48q18 -21 47 -47q29 -9 46 -9q9 0 15 2q42 17 58 33q3 3 0 28l-33 -10q-43 14 -46 14t-14 16.5t-11 19t-7.5 24t-7.5 23.5q0 3 9.5 24.5t12.5 21.5t10.5 4.5t7.5 6.5q0 3 -29 18z" />
    <glyph glyph-name="caron" unicode="&#x2c7;" horiz-adv-x="463" 
d="M73 817q-5 7 -4 8q5 1 9 3q5 1 18 0q17 -15 31 -19q7 -1 13 -3q5 -7 22 -18q6 -2 11 -5l11 -2q5 0 11 -1q4 -7 10 -17q4 4 11 5q4 2 9 4t10 9q1 -1 14 6l3 -11q5 12 10 25q12 10 18 10q4 0 4.5 -5.5t1.5 -4.5q15 5 30 19q0 -2 19 12q4 7 21 -11l-26 -17l6 -3l-25 -14
l-16 -22q-4 -5 -19 -7l-22 -19l11 -2l-29 -14l-14 -14q-8 -6 -20 -1h-2l-27 22l-3 9l-15 6l-18 12q-7 4 -4 15l-27 12l-4 12l-17 7z" />
  </font>
</defs>
</svg>
