<?xml version="1.0" standalone="no"?>
<!DOCTYPE svg PUBLIC "-//W3C//DTD SVG 1.1//EN" "http://www.w3.org/Graphics/SVG/1.1/DTD/svg11.dtd" >
<svg>
<metadata>
Created by FontForge 20120731 at Wed Apr 17 21:19:04 2019
 By www-data
Digitized by Dan X. Solo. Software (c)2000 by Dover Publications, Inc., New York.
</metadata>
<defs>
<font id="Ninja" horiz-adv-x="20" >
  <font-face 
    font-family="Ninja"
    font-weight="400"
    font-stretch="normal"
    units-per-em="1000"
    panose-1="0 0 4 0 0 0 0 0 0 0"
    ascent="800"
    descent="-200"
    x-height="617"
    cap-height="725"
    bbox="-252 -225 1481 927"
    underline-thickness="20"
    underline-position="-123"
    unicode-range="U+0020-F002"
  />
<missing-glyph horiz-adv-x="500" 
d="M63 0v800h375v-800h-375zM125 63h250v675h-250v-675z" />
    <glyph glyph-name=".notdef" horiz-adv-x="500" 
d="M63 0v800h375v-800h-375zM125 63h250v675h-250v-675z" />
    <glyph glyph-name=".null" horiz-adv-x="0" 
 />
    <glyph glyph-name="glyph2" horiz-adv-x="268" 
 />
    <glyph glyph-name="space" unicode=" " horiz-adv-x="268" 
 />
    <glyph glyph-name="exclam" unicode="!" horiz-adv-x="259" 
d="M228 616q0 -13 -10 -26q-11 -17 -13 -22q-41 -121 -116 -367l6 -14q0 -13 -7 -49q-18 -4 -26 -4t-16 8q3 16 -3 22v3q21 33 48.5 123.5t27.5 127.5q0 10 22.5 95.5t26.5 94.5q14 7 28 34q13 24 23 26v-8l2 -32q7 -4 7 -12zM55 16l-8 -7l-10 9q-6 -6 -14 -6q-7 7 -7 10
q0 -3 24 55h15q-2 -11 -2 -24q0 -15 2 -37z" />
    <glyph glyph-name="quotedbl" unicode="&#x22;" horiz-adv-x="302" 
d="M50 468q0 10 -3 28t-3 27q-1 0 2 -1q5 0 5 25q0 6 -2.5 9.5t-2.5 6.5q0 4 3 16q5 1 5 6q0 -1 -7 11.5t-5 15.5q-5 17 -21 49q5 10 11 20q5 6 23 6q4 0 12 -3t12 -3q3 0 8 3.5t8 3.5t5 -21v-2q0 -1 3 0q7 2 9 2q3 0 3 -3t-4 -7t-4 -7t7 -6q-2 -8 -16 -38q-9 -18 -9 -59
v-31q-6 -5 -6 -22q0 -5 4 -12q7 -10 7 -11q-14 -29 -14 -34q0 -6 9 -11.5t9 -10.5q0 -3 -6 -23.5t-6 -27.5q0 -5 3 -6v-5q1 -10 -10 -10q-12 0 -31.5 15t-19.5 26q0 1 8 10t9 13q5 19 5 61zM180 468q0 10 -3 28t-3 27l2 -1q4 0 4 21q0 8 -5.5 13t-5.5 23q0 8 -10 18
q5 4 14 11q-7 18 -22 41q3 8 6.5 16.5t10.5 9.5q8 23 21 23q11 0 17 -5t9 -5q5 0 15 11v-1q0 -4 11 -8.5t11 -8.5q0 -3 -11 -14.5t-11 -17.5q0 -3 4 -5q-2 -7 -13 -27q-9 -16 -9 -34q0 -12 3 -34q4 -28 4 -33q-5 -4 -5 -68q-6 -14 -6 -18q0 -52 12 -56l1 -6q1 -14 -12 -14
q-11 0 -21 9.5t-10 20.5q0 4 -3 12.5t-3 13.5q0 9 4 28.5t4 29.5z" />
    <glyph glyph-name="numbersign" unicode="#" horiz-adv-x="534" 
d="M287 429q-13 -2 -23 -2q-14 0 -28 4q2 0 -24 0q-8 0 -25 5v-27q-15 -10 -15 -17q0 -15 9 -36q-1 -2 -1 -7q0 -3 1 -7q-5 -9 -5 -19q0 -6 6 -26q7 1 14 1q13 0 27 -4q-2 0 24 0q10 0 41 -9v4q14 11 14 17q0 16 -9 36q1 3 1 8q0 2 -1 7q5 9 5 19q0 6 -4 19t-4 19q0 4 2 8
q-2 4 -5 7zM44 499q44 -19 74 -19q1 0 15 3q10 1 15 -2q-2 23 -3 45q-1 27 1 46l-10 19l15 10q-5 13 -33 54q7 5 33 19.5t30 14.5l11 -7l15 10l-13 -28q1 -21 18 -26q-9 -27 -17.5 -54t-8.5 -57l1 -39q14 3 38 0q32 -3 38 -3q5 0 13 7t13 7q1 7 6.5 24t5.5 23q0 5 -10 6
q1 5 3.5 15t2.5 14q0 2 -4.5 3.5t-4.5 5.5q0 3 3 8l-1 15q14 19 16 25q4 11 2 31l19 24q23 -26 23 -32q0 -1 -1.5 -9.5t-1.5 -19.5t8 -19q-1 -4 1 -25q2 -15 -4 -30q14 -22 5 -33l2 -25l5 -2q4 0 5.5 5t4.5 5t9 -2l14 2q20 -12 27 -14q10 -2 31 2l25 -17q-22 -23 -26 -25
h-30q-13 0 -22 -10q-12 -4 -50 -2q-1 -19 -13 -53t-12 -52q0 -4 5 -42l11 -6h4q114 6 115 -37q-5 -9 -20 -17t-25 -8q-11 0 -37 9t-39 9q-6 0 -9 -2q-1 1 -2 1q-4 0 -4 -22q0 -8 3 -48q1 -28 -1 -47l10 -19l-15 -11q5 -12 33 -53q-7 -5 -33 -19.5t-30 -14.5l-11 7l-15 -10
l13 28q-1 21 -18 26q9 26 17.5 53t8.5 58v71q-30 -10 -35 -8l-11 -16l-37 24l-18 -18q0 -10 -6.5 -36.5t-6.5 -35.5q0 -5 9 -6q-1 -5 -3.5 -15t-2.5 -14q0 -2 4.5 -4t4.5 -6q0 -2 -3 -8l1 -14q-14 -19 -16 -26q-4 -10 -2 -31l-19 -23q-23 26 -23 32q0 1 1.5 9.5t1.5 18.5
q0 12 -8 20q1 3 -1 25q-2 15 4 30q-14 21 -5 32q-4 32 -3 50q-3 0 -9.5 2t-9.5 2t-4.5 -5.5t-5.5 -5.5l-8 3l-14 -3q-6 8 -22 18q-34 11 -34 18q27 14 27 31q0 5 -2 9q50 0 80 -9l13 7q7 17 14.5 36.5t7.5 34.5q0 8 -3 43q-2 24 1 43l-13 1q-10 1 -29.5 -5t-28.5 -6
q-76 0 -76 37q0 7 20 16q16 8 26 9z" />
    <glyph glyph-name="dollar" unicode="$" horiz-adv-x="495" 
d="M216 393q-4 30 -4 39q0 13 6 34.5t7 31.5l-18 -6q-2 0 -2.5 2.5t-2.5 2.5q-10 0 -29.5 -8t-30.5 -8q-2 0 -6 -3.5t-7 -3.5q-2 0 -2 1t-2 2q-52 -18 -52 -32q0 -4 6 -4q2 0 9.5 3.5t11.5 3.5v-2q0 -7 -3 -13q2 -4 4 -4t5.5 2.5t5.5 2.5q1 0 4 -7q8 1 17 1q12 0 14 -7
q1 0 4 -1h-4v0q0 -1 2.5 -2.5t9 -8t8.5 -6.5q1 0 3.5 1t4.5 1q6 0 16 -5.5t25 -6.5zM238 368q-7 -42 -14 -121q-5 -1 20 -1q8 0 24 4t24 4q2 0 2.5 -1.5t1.5 -1.5q5 0 6 3q2 0 5 -1h5t8 4t8 4q7 0 4 -5q18 9 55 26l5 -7l5 4l4 13l-7 4q-3 5 -10 14q-14 14 -33 20t-37 11
q-2 1 -15.5 8.5t-18.5 7.5q-2 0 -1.5 -1.5t-1.5 -1.5q-1 0 -6.5 4.5t-7 5t-25.5 4.5zM290 621l1 -6q1 -12 -8 -39q-10 -31 -11 -42l3 6q16 -5 24 1l3 -4l22 16l-3 -10q20 9 42 8l26 -1l9 -6q-9 -8 -24 -17l-7 5l-12 -11q-11 -1 -36 -9l-4 5l-23 -13l-4 3l-16 -7q-2 5 -6 2
q-17 -68 -26 -121l13 -2l6 -7h11q8 0 33 -10l5 -7l10 3l6 -7l61 -17l1 -7l19 -3q13 -23 26 -32q0 -2 -3 -9t-3 -11t4 -7l-2 -6l-30 -24l-3 4q-8 -5 -29 -14q-6 4 -10 4q-12 0 -26 -13l-4 14l-21 -9l-4 5l-13 -10l-10 7l-19 -1l-7 6q-12 -2 -20 -7l-9 2l-4 -33q10 -15 9 -50
v-13l-25 -8l-17 5q-7 23 -7 25q8 20 18 77l-4 3l-8 -7q-11 5 -38 5q-3 -4 -10 -2.5t-7 -3t-7 -5.5q-10 -1 -30 1q-24 2 -30 2q-31 0 -51 -5l-12 12l30 17l2 -9q7 7 10 -1h84l3 -2l-1 2q0 1 45 7l9 -6l3 12l7 -8l7 3q11 57 11 92q0 6 4.5 19t4.5 20l-3 1q5 1 3 3
q-20 2 -51 11q-40 11 -51 13q12 -8 13 -8l5 -5v0l-7 5l-11 -2q-22 0 -31 8h-18l-3 10q-9 2 -30 -7l4 14l-2 4l-7 -4q-2 8 -15 12q5 30 1 30q-2 0 -3 -2q2 9 16 8l10 14l11 3l6 -5q9 8 41 17q24 6 48 13l5 -3q49 4 64 18l4 -3l9 -1q0 6 -2 22q-2 13 -2 21q0 18 11 45
q12 9 22 38q9 26 19 30q2 -19 4 -27q4 -15 12 -24z" />
    <glyph glyph-name="percent" unicode="%" horiz-adv-x="687" 
d="M239 662l7 8l4 -19l12 2q1 -3 10 -19l8 -1q25 -45 23 -80l4 -3q3 -36 3 -31q0 -2 -3 -19q-2 -13 1 -19l-10 -25q-2 -3 -6 -5q-4 -21 -12 -28l2 -2q-8 -22 -39.5 -58.5t-53.5 -44.5l-6 3q-4 -6 -21 -8l-8 -8q-7 3 -15 5q-4 -2 -14 -5l-2 3q-18 2 -47 -3v7q-12 0 -15 7
q-9 4 -26 9q0 7 -2.5 9.5t-9.5 1.5l-1 12q-10 0 -12 15q-1 6 0 21l-4 2q0 5 2 33l-6 9q0 30 8 63q9 44 27 54q3 12 6.5 22t16.5 19q3 12 16 15q9 19 32 32l7 -3l-1 7l-2 -3l14 14q7 -2 8 -2q8 12 15 25q6 9 23 21v-13l4 4q4 -1 11 -5q1 -1 4 1t5 2q15 0 39 -9l3 -12z
M198 373q29 30 29 45q11 16 36 46q-1 9 -1 14t2 15t2 15v55l-5 6l5 3h-4q-7 0 -9 15q-15 2 -18 17h-2q-5 0 -10 3v4l-31 21v1q3 0 -11 -7l-10 5q2 -3 2 -5q0 -4 -5.5 -5.5t-9.5 -2.5t-18.5 -18t-26.5 -17q-3 0 -7 1q-17 -18 -20 -29l-4 1l-1 -5q-1 0 -6 1l-7 -34
q-8 -12 -15 -24q-14 -25 -14 -42q0 -10 6 -18q-7 -19 -7 -22v-9q8 -11 11 -27q14 -2 19 -10l6 3l8 -5q0 -8 1 -8l-3 -2q6 7 17 7q3 -5 7 -11q1 0 6 3.5t9 3.5q6 0 8 -5q14 2 43 2q7 5 21 17zM261 569v3v-3v0zM541 376l-1 10l-15 -12l-7 10q-3 -2 -21 -9l-7 5
q-50 -20 -69 -46h-4q-17 -22 -45 -53l-9 -25q0 -4 1 -9q-10 -18 -8 -28h-3q-10 -26 -10 -51q0 -11 5 -45q6 -37 9 -43l7 -2v-1q1 -7 12 -18v-12q8 -1 15 -5q1 -5 7 -13l4 1q15 -10 34 -33l5 6q9 -8 16 -5q9 -3 26 -9q4 6 8 6l7 -6l9 9q3 -2 8 -2q9 0 24 22l5 -1q2 4 20 26v0
q19 7 41 50.5t17 64.5l10 22q3 9 -2 24q-1 5 4 9q0 5 -6 14l4 18q0 5 -8 27l-7 2l5 5v-4v4l1 5l-3 10q-3 1 -7 4q0 5 2.5 16.5t2.5 17.5q0 4 -5 25l-8 -9v5q-6 3 -12 3l-1 2l-4 7q-4 7 -36 18l-10 -8h-1v1zM386 128q-2 24 -2 26q0 16 9 27q0 3 -1 8t-1 8q0 6 2.5 19.5
t1.5 23.5q13 11 33 37q25 36 28 39l8 3l-1 5q3 -4 6 -4q4 0 13 6q4 -2 10 -2q9 0 15 5q4 -5 11 -6l2 4q4 -2 9 -2t14.5 -1t14.5 -1l1 -5l3 -8q2 -3 11 -2q-6 -2 -6 -6q7 -10 8 -13.5t1 -7.5q-1 -8 -1 -14q0 -8 5.5 -21t11.5 -16q1 -25 -3 -35l4 -2l-3 -4q1 -1 6 -3
q-15 -28 -15 -42.5t-13 -39.5t-25 -28q-2 -8 -15 -28q-13 -3 -26 -14q-12 8 -20 5l-4 6l-9 2q-5 -6 -6 -6l2 -4q-1 10 -9 17l-6 -3t-6 -2q-8 19 -12 19q-2 0 -5 -2q-10 10 -31 29v7q0 1 -2.5 8.5t-3.5 11.5zM464 319l2 2l-2 -3v1zM497 501q-18 -10 -32 -15q-16 -38 -52 -74
q-56 -57 -60.5 -62.5t-28.5 -59.5q-30 -66 -151 -221q-2 -3 -9 -31t-7 -33q-11 -2 -54 -2q-3 0 -18 2q-10 1 -18 0q18 12 20 29q29 15 29 27q0 3 -3 5q62 64 150 209.5t143 204.5q12 12 -2 31q2 5 9.5 9.5t7.5 7.5t-6 8l12 41q13 10 42 28l6 14q23 10 33 18l9 46l30 -13
l6 -34q0 -6 -13 -20.5t-9 -29.5q-24 -34 -26 -38q-8 -16 -8 -47z" />
    <glyph glyph-name="ampersand" unicode="&#x26;" horiz-adv-x="614" 
d="M563 230l-4 -22q-9 -8 -27 -18q-35 7 -38 7l-25 -10l-3 16l-1 -24q-17 -14 -49 -41l-2 -10q-17 -12 -19 -23l-17 -2l-10 -11l-16 -2l-11 -11l-16 2l-26 -32q-21 -2 -30 -17l-11 10l-7 -13l-4 13q-9 -4 -44 -9q-27 -4 -39 -18h-19l-9 10l-19 -13l-14 10l-11 -4
q-14 7 -28 14.5t-21 19.5l-15 -10l5 30h-20v14l16 27v19l-5 5l-20 -16l-5 10q0 9 12 16q16 11 17 13q9 10 21 47q10 30 30 42l-7 10l5 -1q13 -1 28 21q11 17 21 33l7 -6q15 12 29 49l11 -3q21 15 31 28v12l-18 -7q-8 16 -51 17q-3 0 -3 2q0 12 -8 25t-19 16v38l16 27
q12 20 23 20q4 0 9 -3q11 10 30 33l3 -7q9 6 22 26l8 -6l9 26l7 -3l16 23l17 -7q12 0 23.5 14.5t23.5 14.5q5 0 13 -2l9 16l17 -13l3 17l7 -10q31 6 93 23l11 -7v-12q-6 -6 -34 -23q-21 -13 -27 -27l-8 6l-17 -16l-7 3l-24 -23l-11 10l-24 -17l-12 4q-18 -16 -25 -27l-22 7
l-11 -23q-22 -3 -34 -8l-3 -8l-22 -13v-29l5 -5l13 16l24 -16l9 7q12 -14 78 -17l18 16l13 -9q12 4 34 16q6 -8 13 -17t5 -19l4 -7l12 10v-12q0 -11 -17 -18t-20 -15l-8 -8l-18 14l-17 -17l-8 3l-18 -16l-6 3q-23 0 -59 -31t-42 -53q-21 -9 -43 -33q-19 -20 -37 -40l3 -13
q0 -29 -20 -43l9 -17l-10 3l-9 -29l2 -34l6 6h11l1 -17l6 -2l15 9q11 -6 30 -13l51 13l8 -3q26 10 38 17l9 -7h9l7 21l21 9l8 -7q22 34 32 55l17 2q9 10 26 31v9l-5 5l-12 -6l-46 10l-23 -10l-23 9l7 -1q21 0 39.5 11.5t23.5 29.5l31 -6q45 0 75 13l17 -7l16 14l7 -7l13 10
l13 -7l20 10l17 -31l-3 -28zM220 404q-12 0 -12 -11v-18q11 7 12 22v7z" />
    <glyph glyph-name="quotesingle" unicode="'" horiz-adv-x="169" 
d="M50 468q0 10 -3 28t-3 27l2 -1q5 0 5 25q0 4 -1 13.5t-1 18t-10 18.5q5 4 14 11q-4 12 -32 53q2 3 31 19t32 16q4 0 5.5 -4t5.5 -4q5 0 15 11q-13 -24 -13 -29q0 -20 17 -26q-2 -8 -16 -37q-9 -18 -9 -60v-31q-14 -11 -14 -17q0 -9 4.5 -25.5t4.5 -25.5q-5 -13 -5 -14
q0 -3 4 -7t4 -7t-4 -16t-3 -18q3 -12 3 -13q0 -15 -16 -15q-41 0 -41 56q0 10 12 22t12 32z" />
    <glyph glyph-name="parenleft" unicode="(" horiz-adv-x="323" 
d="M263 721q-1 -40 2 -46l-3 -6q-13 -5 -34 -20l-14 -2q-38 -37 -41 -40q-19 -23 -24 -51q-15 -10 -37 -40q-27 -38 -36 -47q4 -17 4 -34q0 -11 -15.5 -68.5t-13.5 -63.5l21 -112l9 -9l-2 -11q0 -6 5 -6l-3 1q-3 0 1 -7l12 -14q2 -8 4 -18h4q10 0 19.5 -11t9.5 -22
q0 -3 -1 -6q27 -7 53 -52.5t47 -49.5l30 -3l17 -8q-1 -32 1 -41l-12 -12l3 1l-17 10l-19 -7q-28 12 -82 35q0 4 -9 14.5t-9 14.5q0 16 -19 28q-1 9 -10 25l-12 -3l-20 32l-18 3q-29 47 -29 109q0 16 2 36l-9 9l-8 55h-5q0 20 2 57q2 34 4 52q2 20 2 0q0 -1 4.5 10t5.5 9
q-3 -1 -7 -3q2 0 27 4q2 10 -3.5 28.5t-5.5 26.5q0 5 1 9q3 1 11 7q15 50 33 48l-6 17l-5 -5l3 2q5 6 13 17q16 23 32 55q17 20 60 54q36 19 62 45l2 3l1 -1l11 -6q1 1 6.5 5.5t8.5 4.5z" />
    <glyph glyph-name="parenright" unicode=")" horiz-adv-x="323" 
d="M19 -67q1 40 -2 46l3 6q13 5 34 20l14 2q38 37 41 40q19 22 24 51q15 10 37 40q28 38 36 47q-4 17 -4 34q0 11 15.5 68.5t14.5 63.5l-22 112l-9 9l2 11q0 6 -5 6l3 -1q3 0 -1 7l-12 14q-2 8 -4 18h-4q-10 0 -19.5 11t-9.5 21q0 4 1 7q-27 7 -53 52.5t-47 49.5l-30 3
l-17 8q1 32 -1 41l12 12l-3 -1l17 -10l19 7q28 -12 82 -35q0 -4 9 -14.5t9 -14.5q0 -16 19 -28q1 -9 10 -25l12 3l20 -32l18 -3q29 -47 29 -109q0 -16 -2 -36l9 -9l8 -55h5q0 -111 -24 -174q20 20 20 36q0 2 -4 12l-2 1l-8 -4q-2 -22 -12 -64q-3 -1 -11 -7q-15 -50 -33 -48
l6 -17l5 5l-3 -2q-5 -6 -13 -18q-16 -22 -32 -54q-17 -20 -60 -54q-36 -19 -62 -45l-2 -3h-1l-11 7q-1 -1 -6.5 -5.5t-8.5 -4.5z" />
    <glyph glyph-name="asterisk" unicode="*" horiz-adv-x="360" 
d="M145 543l-14 73q-2 10 0 37q2 24 -3 35l43 -12l-1 -11q-1 -11 2.5 -30t3.5 -28t-3.5 -29t-3.5 -30q11 4 21 8q14 6 16 13l15 -1q4 6 15.5 11.5t17.5 17.5q3 0 8.5 6t9.5 6q2 0 4 -2q33 -7 33 -28q0 -9 -21.5 -14t-19.5 -14q-8 -8 -31 -20l-40 -13q10 -7 20 -15
q14 -9 21 -8l6 -13q8 -1 18 -8t24 -6q2 -5 9 -5.5t9 -4.5q4 -7 4 -29q0 -20 -11 -20q-6 0 -9 -16q-24 41 -30 41q-3 0 -5 -2q-11 4 -33 17l-46 42q-3 -23 1 -54l-8 -12q2 -6 1.5 -19.5t6.5 -23.5q-2 -3 0 -9q2 -8 2 -10q0 -5 -17.5 -15.5t-23.5 -10.5q-15 0 -15 9
q0 2 1.5 7.5t1.5 8.5q10 13 10 22l-6 8q1 6 -1 16t-2 13q0 1 18 78l-70 -58q-25 -11 -61 -38h-2q-11 -1 -11 24q0 10 2 20q10 4 52 36q11 8 38 18.5t39 18.5l-70 27q-17 13 -51 27q2 -2 3 -2q8 0 11 46v-1q15 -12 64 -33q11 -5 29.5 -20.5t28.5 -20.5z" />
    <glyph glyph-name="plus" unicode="+" horiz-adv-x="518" 
d="M253 436q0 -10 3 -36q2 -22 1 -36h7q99 -1 112 12l15 -6q4 1 6 1q3 0 6 -4.5t7 -4.5t16.5 5t18.5 5q8 0 18.5 -16.5t10.5 -24.5l-7 -11l11 -16q-25 14 -29 14q-20 0 -26 -18q-26 9 -51.5 17.5t-58.5 8.5l-61 -1v-3q-1 -101 11 -114l-14 -10q5 -12 32 -53q-7 -6 -33 -20.5
t-30 -14.5l-10 7l-16 -10q9 17 9 36q0 14 -13 19q9 25 17 50.5t8 59.5v53h-18l-17 15q-27 -4 -70 -4q-6 0 -18.5 -4t-19.5 -4q-63 0 -63 20q0 11 8 25t18 14q19 0 57.5 -11t58.5 -11q10 0 31 3t33 2v20l14 17q-5 37 -5 63q0 11 -11 28t-11 26q0 53 27 53q50 0 50 -53
q0 -11 -12 -40.5t-12 -47.5z" />
    <glyph glyph-name="comma" unicode="," horiz-adv-x="146" 
d="M22 -64q0 17 5.5 58t5.5 62q0 15 -2 26q-2 0 24 0q22 0 30 -3q0 -10 -3 -37.5t-3 -38.5q0 -15 -57 -67z" />
    <glyph glyph-name="hyphen" unicode="-" horiz-adv-x="272" 
d="M236 264l-104 -5q-5 4 -42 4q-75 0 -85 -4q-1 1 -1 7q0 49 1 47q17 -5 36 -5q12 0 36 6t36 6q32 0 126 -9z" />
    <glyph glyph-name="hyphen" unicode="&#x2010;" horiz-adv-x="272" 
d="M236 264l-104 -5q-5 4 -42 4q-75 0 -85 -4q-1 1 -1 7q0 49 1 47q17 -5 36 -5q12 0 36 6t36 6q32 0 126 -9z" />
    <glyph glyph-name="period" unicode="." horiz-adv-x="146" 
d="M97 8l-13 -12q-9 10 -37 10q-4 0 -9.5 -2.5t-8.5 -2.5q-15 15 -15 29q0 52 12 80l70 -11q-3 -17 -3 -37q0 -23 4 -54z" />
    <glyph glyph-name="slash" unicode="/" horiz-adv-x="401" 
d="M345 530q-16 -13 -29 -20q-9 -41 -38 -82q-45 -66 -48.5 -72.5t-18.5 -63.5q-17 -69 -109 -243q-2 -4 -4.5 -33t-0.5 -34q-22 -27 -34 -27l-37 17l-19 -5q16 15 16 33q23 17 23 29q0 4 -3 6q41 62 80 148q43 93 54 155q17 9 31 52q16 53 24 64.5t17 23.5q12 17 12 27
t-10 19q2 5 8.5 10.5t6.5 8.5t-8 7l5 42q11 13 37 36l3 14q21 14 29 24l4 34l40 22l1 -49q0 -8 -8 -21t-8 -21q0 -5 3 -11q-22 -45 -22 -61q0 -11 3 -29z" />
    <glyph glyph-name="zero" unicode="0" horiz-adv-x="695" 
d="M623 376q0 -31 -11 -65l8 -3q-7 -14 -19 -43l-11 -7q-5 -16 -11 -31q-9 -22 -21 -20l10 -8q-4 -4 -26 -39.5t-23 -36.5q-50 -37 -66 -50q-42 -32 -61 -53l-12 6q-10 -14 -47 -14l-14 -13l-27 7l-21 -10l-4 7h-91l-4 13l-8 -9q-39 24 -70 30q0 11 -6.5 18.5t-17.5 5.5
l-4 17l-15 7q-15 19 -6 55l-8 7q1 19 3 58l-11 12q7 29 7 37q0 2 -1.5 10.5t-1.5 24.5q0 26 20 73q22 51 43 61q3 17 15 48q3 5 26 22q17 13 14 25q20 5 26.5 11t12.5 26q12 9 41 25l7 -7q9 15 29 34l13 -3l9 2q12 11 26.5 36t31.5 36l7 -20l15 14l18 -10l19 6q28 0 69 -15
q3 -8 5.5 -16.5t8.5 -8.5q4 0 11 3l14 -24l17 3l20 -33l17 -2q6 -10 22 -30q2 -14 14 -49q9 -24 6 -60l8 -7q5 -61 5 -53zM555 357v103q-10 7 -7 24l-10 -2q-8 16 -11 27l-2 -1q-9 0 -20.5 9.5t-11.5 19.5q0 3 1 5h-24v10q-19 1 -32 23q-27 6 -41 19l-22 -14l-12 7
q-2 -5 -58.5 -42.5t-68.5 -42.5l-9 3q-43 -36 -50 -58l-4 -3l-7 4q-17 0 -26 -69q-7 -8 -18 -15q-38 -78 -38 -114q0 -18 8 -29q-13 -22 -12 -38l1 -19q15 -17 23 -56q39 0 39 -21q0 -3 -2 -6l22 13l8 -5l-2 -15l12 -3q7 7 22 10l10 -20h11q5 0 27 13l7 -6q5 0 17 -2t19 -2
q10 0 32 2t35 2l7 12q12 5 34 20l13 2q38 36 40 39q19 22 23 50q33 36 73 85q-4 17 -4 28q0 9 4 27t4 26z" />
    <glyph glyph-name="one" unicode="1" horiz-adv-x="495" 
d="M388 32q-10 -16 -46 -16q-23 0 -29 -11l-17 11l-28 -14l-16 3l-6 -17l-28 14q1 0 -8.5 -2t-28.5 -2l-49 11l-18 -7l-29 7q0 11 21 22q25 13 28 18l22 3l10 12l18 5q13 18 15 64q3 50 12 70l-14 11q8 16 20 51l-5 9l12 12q1 10 13 83q7 47 7 82q0 12 7 28l12 26
q-2 14 5 35v34l-6 6q-46 -8 -84 -39l-9 7l-42 -21l-15 4q-40 -22 -52 -18l-2 8q8 11 47 44q33 27 33 41q20 9 66 40q39 26 81 40l18 -7l13 7l12 -16q0 -13 1.5 -38.5t1.5 -37.5q0 -72 -25 -98l14 -12q-3 -23 -24 -37l4 -20l-11 -16l2 -7q0 -14 -12 -21q-1 -28 -10 -80.5
t-10 -77.5l-9 -3l11 -14q-20 -19 -20 -45q0 -15 5 -33l-14 -23q0 -6 4.5 -14.5t4.5 -12.5q0 -5 -2 -9l6 -2l6 10l12 -11q11 0 47 -1h47q8 -7 22 -13z" />
    <glyph glyph-name="two" unicode="2" horiz-adv-x="647" 
d="M617 596q0 7 -8 -57l-18 -15l-8 3q-5 -14 -21.5 -35t-20.5 -32l-10 7q-22 0 -46 -31q-55 -22 -94 -48q-10 -18 -88 -80q-100 -77 -135 -112q-70 -68 -67 -110v-3l10 14l14 -25q11 6 28 21l29 -17l24 14l34 -7q43 0 60 14l19 -11l61 10l15 -27q0 -13 -19 -43l-38 11
l-24 -7q-8 4 -28 4q-61 0 -80 -18l-9 3q-13 0 -48 -31l6 25l-9 6l-13 -24l-19 7l-17 -11l-14 7l-6 -10q-14 5 -37 -4l-40 30l16 47q19 13 29 24l2 14q214 246 426 410l-4 17q21 8 60 28l-11 11q20 1 18 26q-28 17 -48 7q-7 17 -19 17q-5 0 -25 -7l-7 7l-7 -3l-9 10l-17 -10
l-39 3q-24 -13 -38 -24l-12 10l-26 -14l-9 4l-33 -15l-26 4l-15 -14l-19 14q-34 -14 -52 -11l-5 5v20q38 21 111 67l18 -18q13 14 17 29l11 -14q7 4 13 17h20q4 -14 24 -14q24 0 67 14l14 -10l37 14l17 -4l15 11l33 -9l4 -9l19 3v-11l9 -6l15 7q1 -2 26 -31q17 -19 17 -34z
" />
    <glyph glyph-name="three" unicode="3" horiz-adv-x="647" 
d="M537 251l-20 -33l5 -18q-21 -22 -69 -57q-15 -32 -84 -78l-9 14l-34 -42l-19 7q-6 0 -51.5 -40.5t-51.5 -50.5q-10 1 -17 -5.5t-6 -15.5h-4q-16 0 -29 -38l3 -11l-10 -8l-25 10q-23 0 -73 -74l-40 12l-7 13l-22 -7q4 29 18 84h38l32 32l7 -3q11 13 36 38l-2 -14l16 14
l13 -3q20 0 35 32l12 -4l13 25l11 -7l8 9q9 -4 58 45t55 71q2 4 7 4q6 1 9 -2q26 22 54 56l13 -3q13 4 13 15q0 6 -6 11l21 14q-11 11 -37 23l-12 -7q-17 0 -27 25l-13 -14l-19 14l-9 -11q-11 8 -33 11l-21 -21l-19 14l-17 -11l-4 11l-23 -11l-11 4l-34 -12l-8 -10l-5 18
l-44 -10l-16 7l2 29l-9 15l8 32l21 15l-1 -15l5 -6q2 16 22 24l34 12q18 12 51 53t47 50l-14 -1q70 60 70 113l-5 3l-18 -14l-11 18l-21 -18l-7 14l-21 -14l-19 14l-27 -7l-63 18l-21 -7l-23 11l4 12q3 1 37 14q25 9 30 18q37 -1 47 19l5 -11l11 7q5 -3 13 -3q21 0 24 17
l10 -7l11 18l7 -25q11 7 30 7q10 0 19.5 -4.5t20.5 -4.5q8 0 19 2l11 -11l9 15l25 -32l15 3q18 -37 18 -45q0 -21 -11 -35q-14 -17 -17 -32l-13 10q-12 -7 -9 -23l-14 -33l-20 10q-5 0 -73 -57t-82 -75l6 -5l14 10l6 -14l15 1q39 2 49 -19l21 15l24 -9q1 -11 6 -12l10 7
q15 -14 49 -5l-3 -11l6 -6l5 10l14 -6l16 7l31 -21l11 3q11 -26 33 -21l-7 -14z" />
    <glyph glyph-name="four" unicode="4" horiz-adv-x="647" 
d="M577 307q0 -16 -47 -48l-12 14q-16 -7 -27 -17l-14 10q-45 -33 -39 -94l-8 -14q10 -21 -7 -57l5 -13q0 -84 -31 -165l13 -8q5 -20 12 -32l-13 -10l1 -7q0 -12 -14 -33q-20 -31 -21 -32h-15q-19 16 -2 33l-13 6v15q0 7 2 20.5t2 19.5l8 10q1 11 10 95q9 74 7 81
q17 13 10 46q27 29 27 95l-3 13l-7 3l-16 -14l-28 7l-9 -7l-11 3l-38 -14l-11 7q-51 -30 -123 -49l-12 7q-7 -22 -21 -26.5t-29 -8.5l-11 14l-35 -11l-23 16q45 33 61 78q12 0 139 133q124 130 145 160q12 30 46 89l11 -3l61 63q12 -4 13 -19q-1 17 -1 -25q0 -40 12 -56
l-12 -36l-12 -11q-1 -17 -3 -35t-11 -32l5 -28q-9 -24 -19 -35l-1 -37q-1 -15 2 -30q5 -23 15 -23q20 24 45 29q16 -8 44 -26zM453 548q-19 -9 -41 -28q-26 -24 -26 -40q-29 -15 -124 -111q-101 -102 -101 -126q0 -9 5 -12h14q6 0 17 8.5t17 8.5q3 0 7.5 -3.5t8.5 -3.5
q12 0 37 18q3 0 4 -1.5t5 -1.5q5 0 19.5 9t19.5 10q17 0 49 6q18 14 53 32q0 2 14 120q9 76 22 115z" />
    <glyph glyph-name="five" unicode="5" horiz-adv-x="647" 
d="M583 243q0 -12 -49 -66t-55 -55l-10 3q-16 -44 -70 -47l-21 -15q-30 -1 -35 -22l-14 3q-38 -28 -71 -26q-24 -12 -100 -53q-80 -44 -83 -47q-24 -1 -67 -25.5t-71 -22.5q-14 -19 -36 -19q-5 0 -10 1q-33 -12 -113 -51l-30 22l19 27l53 -4q22 -1 83 28q55 26 76 43l3 -11
q47 29 53 32q26 13 59 18l18 16q43 -1 152 72.5t123 74.5l34 31l8 -7l17 12l-11 6l8 15q33 9 36 64l13 17l-14 19l18 8l3 7l-25 35l-12 -3q-30 12 -95 12q-54 0 -80 -9l-12 11l-25 -22l-14 8l-14 -8l-12 8q-8 -4 -42 -14q-28 -8 -38 -18l-14 17l-46 -24l-25 7l-6 22l-16 8
l15 21l-8 23l21 23l-11 10q11 8 14 27.5t11 26.5q2 5 -5 7q-6 2 -9 -1l14 19q3 3 -3 6q-5 3 -7 -1l7 18l-11 4l13 15l-6 22q10 34 16 49q10 26 24 46l18 -7l62 18l26 -7l29 10l63 -17l11 10q11 -5 31 -5q36 0 66 12l12 -10q8 6 37 15q23 8 33 20l11 -7q10 4 17 4
q11 0 20 -13q12 -19 17 -24v-16l-14 -21l-44 -7l-18 10l-31 -28l-15 25q-18 -3 -53 -11l-6 14l-73 -5l-8 -5l-12 7l-15 -7l-10 7l-37 -22l-12 18h-12l-11 -10l-15 10l-15 -10v11l-36 -3l14 -49q-21 -36 -21 -92l6 -26l6 14l5 -39l-8 11l-9 -14l11 -9q-13 -11 -7 -31
q23 -4 63 15l27 -7l23 7l23 -7q10 8 33 8q26 0 48 -8l12 7q9 -2 55 -4q41 -1 47 -7l25 11l18 -11l10 4l47 -12l10 -28l17 -3q5 -22 1 -61l13 -6v-12z" />
    <glyph glyph-name="six" unicode="6" horiz-adv-x="554" 
d="M506 217l-8 3l-5 -6l6 -17l-9 -7l-9 13q-10 -21 -43 -68l-6 3q-20 -24 -31 -36l-24 -5l-17 -22l-21 -6l-13 -19l-18 7l-29 -20l-10 3l-24 -17l-38 3l-8 -10l-5 14l-12 3l-17 -17l-21 24l-20 -10l-39 30l-20 -6l1 9q0 15 -10 11l-10 10l-6 -10l-9 5q8 6 8 13q0 8 -10.5 19
t-11.5 19q16 17 16 49q0 25 14 30l2 27q13 17 57 125q44 105 45 106q23 24 56 70q43 59 54 73v6q14 23 48 44q28 16 57 32l5 -8q0 -10 -46 -68t-58 -62l5 -10q-52 -32 -122 -162t-68 -189h-4q0 -19 12.5 -44t11.5 -35q39 -2 38 -21l5 -2l16 10l12 -10l17 6l4 -13l25 10
l11 -13q52 -1 71 20l13 -7q19 14 47 40v4l8 -6l-1 20l14 1q43 50 49 60q11 22 11 76l-16 -1q-11 17 -19 25l1 9l-7 3l-10 -6l-19 10q-21 -4 -43 -8.5t-40 -15.5l-7 3q-8 0 -43 -40q-22 -26 -43 -51q-18 5 -53 14l-1 17l10 19l-5 17q26 5 82.5 45t59.5 40l10 -6l51 23l7 -3
l8 10q10 -7 38 -17l17 4l13 -7l14 7l10 -12l-1 -13q25 -17 27 -55l8 -6q4 -19 15 -27v-50z" />
    <glyph glyph-name="seven" unicode="7" horiz-adv-x="663" 
d="M590 632l-9 -10l1 -7q0 -13 -10 -32q-16 -29 -17 -30l-7 7l-19 -9l4 -31q-40 -4 -116 -130q-83 -138 -105 -153q-6 -28 -56 -115t-71 -109h-22l-7 30q0 19 24 36q54 38 124 176q77 152 106 182l4 27l16 6q13 53 14 57q12 38 24 49q-4 23 -39 16l-7 9l-37 -21l-27 7
l-27 -14l-8 7l-19 -13h-16l-12 10l-12 -10l-10 6q-23 -3 -32 -5q-14 -5 -29 -15l-10 7l-5 -7l-12 10l-31 -10q-11 0 -33.5 1.5t-32.5 1.5l-8 9q5 11 24 16q16 3 31 7l7 11l36 15l12 -7q14 6 20 17h11l1 -11l14 -6l31 24l13 -7q20 11 56 10l2 6l29 -6l9 9q22 9 35 2l37 17
l14 -4q16 10 30 24l16 -7l22 7l16 -10q0 10 17 13q23 5 26 7q-4 -5 -4 -10q0 -9 7.5 -18t16.5 -6v-26z" />
    <glyph glyph-name="eight" unicode="8" horiz-adv-x="671" 
d="M519 385q6 -7 17 -27l11 9l8 -11l-5 -20q13 -7 25 -2q2 -8 3 -25l12 -9q7 -35 7 -39q0 -48 -36 -97q-53 -70 -58 -82l-3 6q-12 -11 -37 -33q-8 6 -16 7l-7 -10l1 -7h-3l-24 -14q-1 0 -10 4q-21 -11 -35 -12q36 2 -35 2q-9 0 -25 -5q-22 -5 -26 -6l-15 11l-36 -7q2 0 -7 9
q-39 6 -63 -1l-12 16q-13 -2 -40 -6l-14 25l-13 5q-15 30 -34 28q-5 20 -2 31l-17 4q-7 25 -7 30q0 7 12 42.5t13 46.5q8 6 39 75l19 2q19 18 21 19t27 8q-6 16 -19 19q-5 1 -27 0q-3 11 -21 18l-28 10q1 0 5 13q-4 22 -19 20l4 49l-6 6l-2 1q0 7 43 66l-8 17q2 7 5 7v-2
l7 -13q14 14 28 36l5 -11q17 16 50 52q3 1 6.5 -1.5t3.5 -5.5l14 11l14 -4q34 10 45 23l10 -11q7 5 19 27l27 -16l29 11l9 -11q18 7 17 7t7 -10l14 6v-3q1 -8 6 -19l22 15q7 -2 14 -12t12 -19q7 5 19 15q5 -23 12.5 -30t31.5 -5q-1 1 -1 -35l2 -6l10 -5h6l5 -22l-9 -4
q-6 -21 -5 -37l-5 -9l-14 -1l13 -18l-3 -5q-28 -4 -37 -49q13 -25 19 -40l11 12l16 -8zM454 511v-1v20q-2 0 -5.5 -1.5t-5.5 -1.5h-2q-4 17 -17 48q-12 4 -38 21q-8 8 -13 10l-17 -9q-10 12 -18 12q-3 0 -19 -7t-27 -7q-3 0 -20 6q-20 7 -23 8q-16 -11 -49 -33q-4 2 -11 2
h-3l1 -4q1 -24 -40 -28q-2 -22 -8 -22l-17 5v-56q9 -5 9 -29q0 -7 13 -23q0 11 3 17q4 -5 2 -26l18 16q19 -16 25 -16q7 0 9 7q11 -9 33 -21q3 1 28 8q19 6 26 6q3 0 10 -3t11 -3q4 8 15 20q15 -7 14 -7q4 0 10 3l8 4q6 -4 18 -7q11 23 23 33q15 -9 23 -9q3 26 18.5 46.5
t15.5 21.5zM378 95l9 -2q1 0 17 10q7 -4 13 -4q11 0 32.5 22.5t36.5 27.5q16 45 49 134h-9q-8 -1 -13 8q-7 15 -8 17q-12 3 -35 17.5t-33 15.5q0 3 -7 12q-13 6 -38 18l-26 -14v2q-1 2 -9 9q-4 -10 -8 -17q-6 10 -20 13q-4 -6 -15 -13l-9 3q-7 -3 -14 -8q-7 5 -20 5
q-14 0 -30 -16q-2 0 -9 -2.5t-10 -2.5l-2 3v32q-13 -28 -50 -55q-46 -35 -55 -45q-27 -30 -27 -74q0 -3 2 -9.5t2 -10.5h6q6 1 7 -1q1 -1 0 -5q-2 -5 -2 -9q0 -27 43 -40v-13h17v-17q18 0 29 6q4 -5 15 -13l9 4q12 -5 27 -11l5 6l1 1q2 0 2 -13h19l23 14q5 -11 14 -11
q39 0 71 26z" />
    <glyph glyph-name="nine" unicode="9" horiz-adv-x="687" 
d="M569 319q-7 -7 -14 -10l2 -17l-26 -25l-2 -14q-18 -14 -23 -19q-12 -13 -15 -26q-53 -26 -70 -97l-52 -52q-39 -40 -38 -49l3 5l-1 -1l-22 -12l-1 -16q-26 -17 -61 -71t-59 -65l-21 9l-3 33q9 2 23 16h3q11 5 28 22.5t28 23.5q3 14 1 14l2 1q13 8 37 24l-5 18l-1 1l-3 -7
l12 3q32 39 63 62q0 9 17 36.5t17 30.5l-1 1q2 1 11 8q2 5 5 13q18 11 56 78q36 62 40 81l20 11v32l-23 12q-8 0 -21 -4q-14 -21 -14 -28q0 -6 7 -6l-15 7l-6 -19l1 -3l2 6h-2l-2 -1l-8 -3q-10 -15 -10 -17q0 -4 7 -4v1q0 8 -13 21q-19 -22 -56 -67l-5 5l-12 -12l-4 4
l-26 -16h8q0 2 -14 18q-11 -8 -33 -22q-59 12 -61 12q-14 0 -31 -5l-13 17q-16 -10 -46 0l4 -6l3 17q-15 7 -28 2q-6 -3 3 -3l-8 7q-3 1 -17 4.5t-17 2.5l2 22l-15 16l-7 -7q-2 8 -4 0t2 -8q3 0 2 9q-1 8 -5 43q-4 28 -4 44q0 2 10 28q21 11 27 27q3 11 1 39q20 14 48 72h1
l-5 7v-1l-1 -15l6 -15q17 11 46 41q34 37 45 46q16 0 32 8.5t15 23.5l-2 -4l2 1l11 -14q2 4 7 6q5 1 9 -2q9 3 18 7q13 5 6 5h1q43 12 44 12q3 0 13 -14q9 2 25 7l38 -13q7 -13 18 -23q2 1 8.5 7.5t10.5 6.5l4 -9q3 -4 21 -12t25 -7l20 -21v-4q0 -13 41 -46q0 -10 -1.5 -29
t-1.5 -28q0 -17 6 -24l4 -24q-6 -11 -4.5 -34t-1 -31t-11.5 -26q-6 -10 -6 -29zM312 310q3 -1 11 -1q11 15 33 23q20 4 40 9v1q0 17 46 52t47 62q2 3 8.5 29t6.5 30q0 5 -14 20.5t-16 29.5q-7 5 -30 7t-30 11q-8 51 -32 51q-1 0 -62 -33q-8 2 -26 3l-3 -19l-8 2
q-8 0 -23.5 -14.5t-44.5 -12.5q1 -10 -4 -24q-29 -3 -58 -65q-14 -3 -22 -12q2 -5 2 -8q0 -4 -7.5 -22.5t-7.5 -41.5q0 -8 -6 -19q-7 -14 -8 -18q28 0 42.5 -19t26.5 -19q25 0 40 9q5 -5 47 -27q4 14 8 17q1 0 19 3l6 10q5 -10 14 -20z" />
    <glyph glyph-name="colon" unicode=":" horiz-adv-x="146" 
d="M24 128h1q2 0 13 -7.5t15 -7.5q5 0 14.5 3t13.5 3q3 -3 3 -14q0 -47 -17 -88l-41 1q3 13 3 35q0 35 -5 75zM25 369q8 6 48 6q11 -11 11 -25q0 -30 -17 -73l-41 1q3 17 3 36q0 23 -4 55z" />
    <glyph glyph-name="semicolon" unicode=";" horiz-adv-x="146" 
d="M79 203l-12 -11q-10 9 -17 9q-6 0 -11.5 -2t-6.5 -2q-4 2 -8 4.5t-4 9.5q0 33 19 80l39 3q-3 -17 -3 -37q0 -22 4 -54zM30 -56q1 16 6 55q5 36 5 55q0 14 -2 26q-1 0 25 0q22 0 30 -3q0 -11 -3 -33t-3 -34q0 -15 -58 -66z" />
    <glyph glyph-name="less" unicode="&#x3c;" horiz-adv-x="553" 
d="M474 107q-50 17 -100 35q-66 24 -85 52l-16 -3q-15 15 -49 32q-27 13 -54 25q-8 5 -16.5 17t-11.5 14q-13 6 -35 25l-10 -5l-5 4v12l8 14q50 10 184 78q124 63 149 63q5 0 28 4.5t26 7.5q-5 13 -35 51l-14 -2q-22 -27 -165 -86.5t-157 -73.5l-20 1l-10 -11q-12 -2 -37 -5
l-8 -1l-10 -17q-24 -1 -24 -16q0 -59 50 -59q24 0 44.5 -31t35.5 -31l11 9l16 -18l10 1q32 -18 96 -57q7 2 18 2q17 0 64.5 -28t62.5 -45q6 -1 15.5 -5.5t15.5 -4.5h3q15 17 25 52z" />
    <glyph glyph-name="equal" unicode="=" horiz-adv-x="389" 
d="M123 267q5 0 78 -2q65 -3 67 -2q9 -2 12 -6q7 3 13 2q9 -2 11 -2q7 0 16 6h2q4 0 11 2t10 2q7 0 7 -39q0 -17 -14 -17q-6 0 -13 4t-10 4q-5 0 -7 -7q-43 10 -109 11q127 -1 -108 -1q-2 1 -6 1q-58 0 -69 -4q-12 7 -12 24q0 22 25 22q7 0 19.5 -1.5t17.5 -1.5q10 0 30 2.5
t29 2.5zM98 387q9 0 28 -3.5t29 -3.5q9 0 26.5 2.5t26.5 2.5q3 0 21 -3q13 -3 19 1q9 -2 12 -6q10 0 40 13q2 -1 16 -1q11 1 12 -6q22 -22 22 -37q0 -13 -13 -13q-7 0 -19 4.5t-18 4.5q-7 0 -9 -7q-27 7 -202 7q-2 1 -6 1q-49 0 -60 -4q-17 10 -17 32q0 12 9 14q-9 -2 20 -2
q11 0 32 2t31 2z" />
    <glyph glyph-name="greater" unicode="&#x3e;" horiz-adv-x="553" 
d="M20 482q50 -18 100 -35q66 -25 84 -52l16 2q16 -15 50 -31q27 -13 53 -26q9 -5 17.5 -17t10.5 -14q14 -6 36 -25l9 5l6 -4v-12l-8 -13q-50 -11 -184 -79q-124 -63 -149 -63q-5 0 -28 -4.5t-26 -6.5q5 -14 35 -52l14 2q22 27 165 87t157 73l20 -1l10 11q11 2 37 5l8 1
l10 17q24 1 24 16q0 59 -50 59q-24 0 -44.5 31t-35.5 32l-11 -10l-16 18l-10 -1l-96 57q-7 -2 -18 -2q-17 0 -65 28t-62 45q-6 1 -15.5 6t-15.5 5l-3 -1q-15 -17 -25 -51z" />
    <glyph glyph-name="question" unicode="?" horiz-adv-x="486" 
d="M452 528q-11 -8 -11 -15q0 -2 1 -4v-14l-11 -1q-2 -8 -6 -23l-7 10q-10 -11 -33 -40l-7 3l-44 -33l-3 14h-8q-7 -10 -17 -34l-7 4l-45 -43l-6 3q-9 -16 -36 -42l-9 -23l-6 1q-14 0 -30 -28q-17 -31 -28 -36l6 -16q1 0 -22 0q-15 0 -16 -13l4 -9q-9 -18 -9 -34
q-10 -4 -31 -14l-13 4l-21 24q30 49 103 148l13 2l-1 16q0 8 16.5 18t18.5 14q3 9 12 23l17 2q9 13 16 31q11 4 23.5 9t12.5 15h6q17 -1 21 14l8 -10q19 7 19 27q0 4 -2 8l17 7l2 -16q20 41 44 75q-13 18 -27 36q-12 15 -42 21l-22 -10l-24 7l-18 -20l-22 7l-31 -35l-10 8
l-102 -59h-11l-7 4q12 26 56 85l14 -10q3 2 16 29q22 6 70 31l7 -4l33 17l8 -4q28 10 39 20l9 -6l10 6l10 -6l11 6q11 -3 34 -8l8 -8l24 9l-7 -11q9 -8 7 -32q7 -2 22 1v-33q0 -22 14 -24v-41zM73 0l-12 -11q-9 10 -17 10q-4 0 -9.5 -2.5t-8.5 -2.5q-15 15 -15 28
q0 52 11 81l51 -12q-3 -17 -3 -36q0 -23 3 -55z" />
    <glyph glyph-name="A" unicode="A" horiz-adv-x="814" 
d="M888 224l-22 -43q-18 6 -27 6q-1 0 -42 -10q16 3 16 6q0 4 -32.5 5t-97.5 5l-17 -26q22 -50 40 -43q0 -22 9 -46q11 -29 29 -34l1 -18l21 -11l-21 -23l-37 8q-4 27 -33 52t-33 40l-21 2q-7 21 -15.5 44.5t-32.5 24.5l-13 30q-13 -16 -39 -16q-10 0 -41 6l-38 -17l-23 7
q-58 0 -113 -21l-10 14q-27 -20 -158 -199q-117 -158 -151 -155l-41 3l-6 -3v33q37 26 102 84t100 83l-8 10q75 59 85 115l27 24l-6 10l-31 2l-32 -14l-27 21l-29 -7l-97 24v20q37 1 99 11q74 11 90 24l29 -17q29 0 46 16.5t34 34.5l-11 20q31 55 43 84l12 7l3 38
q47 44 47 93q0 11 -3 21l19 19l2 16q21 9 39.5 49.5t41.5 49.5l5 -36l24 -10l-7 -39l20 -16l-10 -28l2 -13l19 -1l-7 -6v-22l24 -3l4 -17l-24 -21l9 -15l-2 -34l5 -3l22 10l-20 -66l19 -14q10 -29 -3 -73l21 -6l4 -9l-13 -20h15l6 -17q33 -14 76 -14q35 0 92 6q74 7 92 8z
M551 238q-5 2 -6 6t0 10q1 7 1 9v6q-17 13 -18 15v23l-1 10h-4q-17 0 -17 28q0 8 1.5 21t1.5 16q0 14 -5 21q-21 8 -32 78l-30 -76q-19 -44 -46 -68q-3 -11 -23 -50t-29 -48q11 -11 26 -11q8 0 21.5 3.5t20.5 3.5q5 0 12.5 -3t11 -4t85.5 -1q15 0 25 -9z" />
    <glyph glyph-name="B" unicode="B" horiz-adv-x="670" 
d="M69 221l1 11l-14 21q21 26 21 67q0 1 -6.5 15.5t-6.5 21.5l-11 -7l-12 10l-11 -3l-9 17q23 33 34 51q-8 29 -8 71q0 32 20 119l-6 6l-16 -14l-12 9l-25 1q-5 9 -18 9l-31 -6l-21 12q11 13 40.5 25t40.5 22l18 -10l14 10l7 -10l13 10l15 -14l45 11l11 -17l29 14l22 -7
l11 7l12 -11l7 4l12 -11l28 11l59 -21l14 10l12 -17l14 3q17 -5 34 -11q22 -7 30 -16l10 3l19 -14l7 4l19 -14l8 3l8 -35q0 -5 -3.5 -12t-3.5 -11t4 -10q-21 -2 -42 -26l-7 4l-5 -14l-7 7l-10 -17l-10 7l-3 -17l-38 -15l-10 4l-37 -28l-10 21q-34 -28 -51 -28q-10 0 -22 4
q-2 -12 -16 -30q9 -11 24 -11q7 0 30 6l19 -25l19 4q12 0 95 -17t89 -21l22 6l-3 -18l6 -6l17 11l19 -16l-10 -24l17 -17q-5 -30 -8 -38q-5 -21 -15 -36q-23 0 -29 -16t-12 -33q-25 -3 -52 -18l-10 3l-3 -23q-40 -15 -53 -21q-29 -14 -47 -32v12l-7 2q-30 -28 -48 -28
q-9 0 -20 4q-51 -24 -63 -24q-7 0 -13 3l-18 -11l-27 4q-30 -17 -41 -31l-19 14q-14 -4 -42 -14l-28 29l15 26q13 22 13 32q0 8 -7 11v11l16 11l-2 38l10 17l-8 21q3 13 17 36zM410 575l-2 -1q-10 0 -24 14q-13 1 -55 8q-34 5 -55 4q-7 6 -11 17q-30 -10 -31 -10q-4 0 -9 5
t-9 5q-6 0 -15.5 -7t-15.5 -7q-3 0 -17 17q-4 -1 -22 -8q-13 -6 -22 -6l-4 3v11q-17 -7 -17 -24q0 -16 10 -43q10 -31 12 -43q9 -3 13 -6q-9 -28 -11 -71q22 18 31 18q3 0 2 -3l4 -1q7 0 26 10q24 12 27 13q9 1 27 4l-1 8q0 20 25 20q3 0 5.5 -3.5t5.5 -3.5q8 0 18 4l7 17
q10 0 17 -3l12 30q5 8 31 8q7 0 16 13q14 1 32 11zM136 69h16q29 20 41 20q2 0 13.5 -1.5t23.5 -1.5q6 0 21.5 11.5t17.5 12.5l12 -10q47 38 51 38q3 0 7 -3.5t7 -3.5q10 0 25 19l-2 10l2 9q3 0 10.5 -1.5t11.5 -1.5q14 0 27 17q17 24 20.5 26.5t17.5 6.5q10 3 14 15h-4
q-9 -1 -9 11q0 29 34 39v12q-12 8 -39 21q-24 9 -72 19t-71 10q-16 0 -46.5 -9t-46.5 -9q-6 0 -32 18q-18 -18 -36.5 -20.5t-29.5 -15.5l-1 -25l1 -18q16 -8 16 -24q-7 -5 -7 -17q0 -9 13 -58q-9 -11 -9 -27q0 -10 5.5 -28t5.5 -27z" />
    <glyph glyph-name="C" unicode="C" horiz-adv-x="1032" 
d="M995 8l-19 -15l-62 -4l-12 7l-26 -11l-12 14h-283l-11 7l-10 -7q-26 11 -88 11q-58 1 -86 17l-16 -7l-36 21l-14 -4q-27 10 -40 14q-22 7 -41 8l-3 17l-28 -18l1 7q1 24 -17 24q-6 0 -29 -6l-17 31l-10 -7l-43 21v20l-7 -3q-40 27 -58 75q3 45 2 58l-24 -1v25
q18 23 46 71q56 32 52 69l9 8l18 -3q23 0 45 52l9 -4l9 5q7 15 42 31l18 37l20 -22l-16 -16l41 45l11 -3l9 13l18 -6q23 25 122 43q116 22 140 33l18 -3l50 17l9 -7l14 7l15 -7l14 7l11 -3l24 10q10 -7 35 -6t36 -5v-12l-38 -26l-12 7l-53 -34l-7 24l-23 -31l-11 14l-14 -7
l-17 7l-9 -17l-22 -4l-26 17q-26 -16 -98 -31l-18 7l-14 -28l-12 11l-13 -11l-14 7q-13 -17 -55 -37q-53 -26 -63 -32l-7 3q-12 0 -26 -27t-29 -27l19 15v9l-5 2q-15 0 -22 -20.5t-15 -20.5q-5 0 -10 3l-59 -51l-2 -10q-37 -22 -37 -83l5 -34l16 -14l-7 -12l34 -26l-4 -16
l4 -18l20 28q8 -15 31 -49l11 7l1 -18l41 -7l19 -20l6 4l56 -28l10 3q34 -13 49 -7v-14l33 -2l15 -11q31 0 86 -7q71 -9 74 -18l12 6q88 -8 177 -8q87 0 153 30l32 -18z" />
    <glyph glyph-name="D" unicode="D" horiz-adv-x="1144" 
d="M1053 378l-1 -19l-9 -11l1 -26l-10 -27l-14 7q-23 0 -28 -29q-6 -33 -14 -35.5t-17 -4.5t-12 -12l-12 11q-15 -18 -55 -58l-9 3l-37 -42q-22 4 -56 -31l-16 7l-31 -22l-24 7q-13 0 -23 -16t-25 -20l-7 18l-7 -7l-11 7l-32 -26l-9 7q-22 -18 -40 -18l-20 11l-58 -26
l-15 19l-23 -15l-26 7l-38 -14l-15 7q-30 -5 -60 -9q-38 -7 -56 -17l-13 11q-19 -18 -43 -25q-7 -2 -49 -8l-14 8l-22 -15l-9 7l-9 -11l-36 50l12 40q9 28 23 28l37 -26l14 11l16 -15h10l6 6l-28 29q-2 32 1 55l-14 11l5 17l11 -4l7 6l-19 21v57q11 15 18 45l-5 11l-12 -18
q15 46 15 62q0 21 -12 33q11 42 15 64q-19 9 -19 25q0 27 13 83l-6 14l8 9q0 36 -30 36q-13 0 -35 -6l-35 15l-20 -8q-16 4 -35 16v20q8 10 33.5 13t42.5 21l9 -4l21 15l-3 -12l6 -3l22 15q12 -11 42 -14q25 -2 44 3l35 -22l11 4l12 -11q25 -8 53 0l31 -22l23 21l21 -25
l15 4l11 -14q15 -2 71 -21q51 -17 76 -17q13 0 22 4q24 -12 141 -42q101 -26 124 -49q21 -2 55.5 -15t55.5 -13l14 -14l7 4q22 -25 41 -22l-2 -31l25 -10zM961 380v13q-19 30 -31 39q-1 2 -42 28l-8 -3l-24 18l-11 -4q-71 16 -178 50q-88 29 -176 57l-12 -4l-34 19l-43 -8
q-11 8 -33 10q-26 2 -35 5l-20 -7q-14 18 -37 18q-14 0 -31 -11l-23 22q-6 -8 -12.5 -15.5t-6.5 -17.5q0 -13 6 -59.5t8 -50.5q-6 -29 -7 -99q-2 -65 -11 -94q15 -24 15 -65q0 -12 -6 -36q-8 -31 -9 -37q11 -7 22 -24q-23 -18 -26 -52q12 -4 24 -20q11 8 30 11l9 -4l35 12
l16 -8l24 11l31 -7l83 29l22 -11l24 15l13 -4q22 11 33 22l11 -11l20 11l24 -3q13 15 45 12q9 19 21 24l13 -11q17 7 37 25t31 23l4 -14q7 9 15 20t19 9l11 25q15 8 31 17t25 23l9 2q16 25 29 41l-1 6q0 8 33 32q42 29 44 31z" />
    <glyph glyph-name="E" unicode="E" horiz-adv-x="935" 
d="M851 26l-20 -36l-20 7l-15 -4q-21 19 -123 19q-56 0 -387 -22l-12 7l-35 -18l-17 7l-61 -26q-2 14 -16 14q-7 0 -26 -5.5t-25 -4.5v15q-28 2 -85 7q20 46 75 46q9 0 17 -2l29 15l15 -11l24 18l23 -11l12 13l-6 17l-16 -7q12 40 1 53q6 18 13 60l-14 13l17 19l-5 33l21 40
l-2 6l-11 -8l-35 4v12l-25 -1l-14 15l-18 -4l-31 20l46 20l14 -7l34 18l7 -18q31 15 31 29q0 5 -7 35l11 8l-11 2q13 21 13 30q0 3 -3 13t-3 22q0 13 6 22l-6 12q12 20 1 42q18 41 18 62l-6 3l-37 -15l-11 29l-10 -11l-17 8q-5 -4 -17 -4q-43 0 -60 19v14q33 0 38 11l13 -4
q13 0 20 13t17 13t27 -7l37 14l11 -7q34 14 63 2l11 -17l23 15v-12q19 -3 57 1l13 -7l39 11q14 -10 47 -4t47 -4q20 10 48 10q13 0 39.5 -3t39.5 -3l53 15l15 -8l18 8l29 -9q-1 -18 11 -26q-26 -19 -203 -19q-72 0 -89 6l-22 -7l-13 7l-20 -11q-13 5 -31 5q-11 0 -32 -2.5
t-31 -2.5q-4 0 -25 -7l-27 -9l-18 -27l11 -6q-3 -9 -5 -44q-1 -26 -16 -42q0 -18 -4 -57.5t-4 -59.5q0 -3 6 -15.5t5 -20.5q6 -5 39 -9l43 -5l12 11l18 -11l25 11l16 -14l14 7l17 -7l22 7q27 -15 57 -11l20 11l22 -7l33 7l21 -7q19 6 32 18l16 -15l25 22q12 -10 24 -21
q15 -14 15 -26l-14 -32l-27 -9l-25 5l4 10h-43l-59 18q-15 -7 -37 -7q-13 0 -39.5 3.5t-37.5 3.5l-63 -14l-34 11l-31 -15l-12 15q-16 -4 -46 -11q2 -25 -3 -50l13 -11q0 -7 -2 -20t-2 -19l1 -7l7 3q-4 -47 5 -64q-23 -35 -15 -76q33 7 72 -18q16 13 47 13q19 0 55.5 -6.5
t47.5 -6.5q28 0 106 6q95 6 110 13l16 -8l81 19l15 -2z" />
    <glyph glyph-name="F" unicode="F" horiz-adv-x="1015" 
d="M908 289l-33 -5l-22 12l-28 -8q-29 11 -156 11q-18 0 -67 -6q-53 -7 -58 -12l-22 11l-33 -8l-31 12l-54 -12l-13 12l-11 -12l-15 15l-10 -11l-11 8l-21 -8l-24 8l-12 -11q9 -33 -4 -50l12 -56q-5 -8 -5 -25q0 -8 4 -48q3 -32 0 -47l22 -15q-12 -23 3 -29v-39
q-58 -11 -62 -11l-18 4q5 7 5 17q0 26 -20 56q7 41 15 64l-18 -1v14l14 6v157l-6 6l-29 -18q-20 7 -36 18l-11 -11q-37 11 -112 30v13l19 16l15 -7l19 11l11 -4q18 9 47 14q34 7 47 12l-4 -13l6 -6l19 11l13 -3l6 13l-18 28q5 37 5 75l-14 28l-17 7l4 24l9 7q5 29 -1 48
q14 21 10 35l-32 -11l-14 18q-16 -11 -46 -30l-31 22l-19 -7q-15 7 -50 11q-42 5 -54 8v25l18 -3l38 18l13 -4q41 18 60 33h13l3 -22l21 26l32 -22q20 12 43 -4l5 15h16q12 0 41 -7.5t45.5 -7.5t51 -9t50.5 -9h346q16 0 51.5 9.5t52.5 9.5q7 0 14 -1l5 -22q0 -23 -28 -37
l-19 23l-19 -11q-52 17 -264 8q-204 -10 -226 3l-16 -11l-11 3l-22 -11l-18 8l-6 -10l24 -27l8 3l5 -20q0 -26 -18 -74l10 -26l-11 -6l4 -4q-4 -16 -3 -29q6 -6 12 -47q8 -49 9 -52l6 -3l33 22l26 -14l22 14l40 -14l31 7q10 0 35 -3q21 -3 34 -2l11 -13l29 18l18 -22l15 11
l15 -11q28 -5 114 -6q94 0 114 10l25 -15l15 11l24 -20v-16z" />
    <glyph glyph-name="G" unicode="G" horiz-adv-x="956" 
d="M1009 245l-32 -19q-47 23 -120 23q-36 0 -71 -5q-12 11 -26 7l-6 -18q12 -26 12 -54q0 -12 -4 -19l17 -36q-10 -14 -10 -57l17 -28q-6 -38 -9 -46q-5 -17 -22 -39l7 -17q0 -59 -20 -99l-13 3l-16 -11l-30 20l-5 27l17 24l-1 36q17 15 10 56q-20 -2 -40 3l-32 -11l-18 11
l-24 -15l-46 11l-17 -7l-12 7l-24 -11l-16 11q-16 0 -51.5 -5.5t-52.5 -5.5l-43 11l-16 -7v12l-24 -5l-16 11l-27 -11l-18 11l-9 -4l-23 18l-14 -21l-46 32l-13 -3l-11 21l-12 -3q-7 10 -34 32q-24 19 -29 30q4 12 2 36q-13 4 -25 3q4 11 11 61q6 37 18 59l-12 -2l-6 9
q8 9 33 68q19 47 49 55l5 30l8 -4l15 18l17 -11q33 42 49 51q33 13 65 25q20 34 62 33l44 32l13 -4l40 27l18 3q11 18 58 21q13 24 31 24q5 0 11 -3q30 4 52 43l-2 -15l6 -6q15 14 31 29.5t33 24.5l25 -11l25 28q13 -11 26 -17l6 10q21 -11 50 8l16 -8l26 3v-12l-33 -23
l-8 4q-18 -35 -41 -35q-9 0 -19 6l-11 -21l-40 -22l-11 3l-20 -11l-16 8l-27 -18l-12 7l-38 -25l-16 7q-26 -8 -32 -29l-13 4q-42 -24 -47 -27q-28 -13 -51 -14q-23 -25 -64 -42.5t-54 -31.5l-9 3q-13 -16 -66 -44q-49 -26 -66 -52q-13 -36 -45 -93l1 -18l-13 -23l8 -44
l24 -10l-3 -30l50 -34q38 -26 50 -27l-10 -18l7 -2l27 14l16 -11q7 12 21 7l13 -25l13 7l9 -10l18 17l36 -25l21 8l13 -11l65 -7q9 0 30 5t32 5q14 0 24 -7q14 10 48 13t47 16l11 -14l49 20l-11 17l9 15l-6 32q9 9 9 55q18 14 17 58l-20 15q-23 -12 -58 -12q-26 0 -41 8
l-22 -11l-12 8l-16 -11l-17 11l-32 -11q-58 24 -120 26v16q18 18 50 18q22 0 39 15l11 -10l34 21l12 -14l14 7q38 2 54 -18l30 7l20 -11l16 8q59 -29 225 -29q30 0 58 18l10 -11l17 14l28 -22z" />
    <glyph glyph-name="H" unicode="H" horiz-adv-x="837" 
d="M1238 205q-54 -15 -83 -15l-46 18q-11 -3 -54 -3q-49 0 -165 5t-132 5l-38 -10v-120q0 -8 12 -87l13 -18l-15 -34l-12 14l-6 -18l-34 26q-11 36 -5 87v17l-4 5h-3q6 0 1 54q-1 12 5 37q8 33 9 38q-47 24 -282 24q-109 0 -132 -31q-17 -23 -17 -137q0 -15 3 -42t3 -40
q0 -28 -10 -53l9 -12q3 -21 -2 -43q-6 -31 -24 -31l-48 5l11 16v13l-17 -5q21 50 21 164q0 10 12.5 85t15.5 82l-10 18l-24 -11l-40 14l-22 -14l-7 14l-14 -10l-9 7l-18 -11q-19 17 -58 7q-18 11 -49 19q-25 5 -51 11l59 35l45 -4l16 11l11 -3l14 18l12 -22q21 3 44 -4l13 8
q71 -14 97 -1l4 38q-6 4 -5 13q0 8 5 13l-6 32l11 18q-17 18 -4 43l-10 6v42l21 10l-2 12l-30 -7q7 35 15 106l8 8l-9 29q22 7 12 28l32 66q10 -3 25 -64q14 -55 14 -74l-7 -15l4 -14q-4 -6 -12 -54q-9 -51 -18 -72q3 -13 22 -32q-13 -20 -36 -81l14 -37q-10 -15 -7 -25
q20 -13 37 -13q4 0 17 1.5t22 1.5q41 0 127.5 -7t129.5 -7l38 -8l24 10q-2 25 3 68q5 48 5 68q0 127 -18 194l10 30q-4 6 -4 14q0 25 18 39l9 70h16q18 -26 18 -57q0 -7 -2 -12q21 -15 21 -50q0 -3 -15 -38l15 -13q-10 -82 -10 -107q0 -26 5 -34q-20 -32 -20 -97
q0 -33 9 -39q-2 -40 -1 -43q25 -14 111 -14q43 0 108.5 4t69.5 4q92 0 120 -4q19 18 70 18l31 -8v-38z" />
    <glyph glyph-name="I" unicode="I" horiz-adv-x="213" 
d="M129 554q-11 -18 -21 -29q3 -25 3 -40q0 -28 -13 -70q-16 -49 -19 -66q-2 -12 -2 -128q0 -102 12 -114l-14 -10q5 -13 32 -54q-7 -5 -33 -19.5t-30 -14.5l-11 7l-15 -10l14 28q-2 21 -18 26l18 58q7 21 7 70v101l14 17q-4 26 -4 69q0 6 -3.5 18.5t-3.5 18.5q0 5 1 9
l-15 13q15 39 15 97q0 20 -18 22l-8 12q11 22 35 65l-1 15q13 19 16 25q4 10 1 31q11 17 19 24q22 -20 22 -31q0 -2 -1 -11.5t-1 -17.5q0 -12 8 -21q-4 -45 -4 -41q0 -18 18 -49z" />
    <glyph glyph-name="J" unicode="J" horiz-adv-x="749" 
d="M924 660q-56 -6 -113 -11q-97 -9 -145 -9q-36 0 -45 5l-20 -12q1 -38 25 -55q-23 -26 -23 -27q1 2 1 -28q0 -11 -12 -21l3 -13q-15 -16 -13 -43l-18 -21l1 -10q-64 -154 -122 -366h-4q-10 0 -25 -16q-17 -19 -24 -22q-10 -4 -36.5 -7t-41.5 -10l9 7l-25 13l-23 -4
q-11 0 -31 21l-21 -7l-5 15l-23 -1q-9 16 -43 15l6 11l-17 26l-31 10q0 10 -7.5 14.5t-16.5 2.5q-5 13 -20.5 24t-29.5 14l13 27l-3 21h-17q-1 25 3 40l-28 3v44l14 13l-26 13q9 6 29 37q22 35 36 49q24 25 52 26l24 -25l18 7v-38q-49 -24 -55 -32q-15 -16 -15 -62
q-1 -7 2 -5l10 7q10 -7 11 -32q2 -21 22 -25l-17 -11q21 -31 38 -31l-2 -18q0 -20 16 -27.5t14 -21.5h19l29 -20l15 4l18 -21l19 2q12 0 40 -11.5t41 -11.5q52 0 106 134q48 118 48 184q0 10 4 23t4 20q0 10 -6 23l20 25l-1 31l10 14q-4 39 10 60v10l-18 7q32 6 32 25
l-10 26h-9q-10 -14 -47 -14q-12 0 -17 4l-29 -15l-39 11l-16 -11l-9 4l-15 -18l-20 11l-22 -11l-27 18l-54 -7l-30 8q11 14 43 19.5t46 24.5l18 -6q32 10 50 10l20 -10l32 14l10 -7l25 10l14 -14l28 11q15 -7 40 -7q16 0 47 3.5t43 3.5q48 0 72 17l26 -10q25 9 53 9
q17 0 24 -6l11 7l14 -7l65 18l24 -26v-12z" />
    <glyph glyph-name="K" unicode="K" horiz-adv-x="640" 
d="M774 -163l-30 -33l-16 20l-14 -6q-64 58 -152 121q-80 55 -160 111q-14 7 -30 14.5t-22 21.5l-14 -6l-20 24l-13 -2q-23 0 -26 30q-15 3 -40 19t-40 18l-27 38l-12 -5q-3 -42 -11 -92q5 -48 10 -76q-11 -18 -6 -34q7 -26 7 -25q0 -10 -9 -21q18 -4 18 -20q0 -11 -22 -60
l-32 11l1 15l-13 5l-1 14q0 23 7 67.5t7 65.5q0 12 7 41.5t6 45.5l-2 44l-3 1l-8 -12q-15 -6 -33 -35q-22 -6 -67 -20l-5 25l-10 -2l-3 39q-1 9 33.5 38.5t40.5 28.5q19 27 64 75q-15 46 -17 139q-2 121 -5 144q8 10 23 57q17 52 25 66l12 -1q7 -41 1 -64q16 -12 16 -53
q0 -36 -9 -65l11 -8q-15 -19 -19 -47q-2 -12 -1 -53l1 -85q34 19 129.5 119.5t100.5 127.5l20 21q5 -1 45 28l11 -8l2 20q28 30 78 48l6 -22l-26 -46q-14 -26 -19 -51l-14 9q-1 -2 -109 -106l2 -15q-37 -15 -89.5 -85t-87.5 -87q-3 -17 -17 -23v21q-13 -14 -21 -39l7 -16
l9 2l11 -12l18 5l17 -23l7 2q25 -20 23 -34q35 -11 64 -51l7 3l32 -35l13 -4q23 -37 125 -94q109 -61 132 -88l11 6l13 -18l38 -17l13 6l13 -26q39 -5 38 -26v-6z" />
    <glyph glyph-name="L" unicode="L" horiz-adv-x="788" 
d="M764 15q-28 -33 -52 -33q-65 0 -184 12q-142 14 -186 16l-28 -10l-37 7q-65 0 -105 -21l-20 10l-28 -7l-17 7l-18 -7l-15 4l4 11q-28 0 -78 14v12l26 12l9 -4l41 17q5 31 10 49l-4 12q7 53 3 79l12 17q-1 7 -5 26q-4 16 -4 26q0 48 2.5 148.5t2.5 152.5q0 27 11 64
q9 30 19 61l19 -12l6 -55l8 -7l2 -18q6 -78 -25 -120q11 -9 11 -26q0 -28 -9 -86.5t-9 -91.5l-7 -8l9 -19q-2 -13 -2 -26q0 -12 3 -35.5t3 -36.5q0 -22 -2 -32t-4 -9q8 2 8 -10q0 -6 -2 -16.5t-2 -12.5l16 -17l14 7l22 -10l23 7l8 -10q19 -4 74 -4q41 0 150 -8
q121 -9 143 -17l6 10q18 -4 37 -4q4 0 98 15q6 1 16 -2t15 -3q6 0 12 5v-23z" />
    <glyph glyph-name="M" unicode="M" horiz-adv-x="799" 
d="M765 -96l-4 -22l-37 -7l-19 11l-2 47l-12 14l1 16q3 45 -14 62q-3 27 -53 203q-48 167 -48 203q0 7 2 11l-12 9l-15 -9q-20 -49 -42 -120q-26 -84 -28 -114l-18 -17q-1 -24 -12 -62q-13 -42 -26 -56l10 -2l-7 -20h-22l-28 14q0 24 3 44q-18 9 -35 17q-22 11 -22 28
l-11 10v12l21 19l-23 8l-14 25l6 20q-4 5 -30 50q-20 35 -37 39l-7 7q0 12 -6 32q-9 30 -9 31q-13 6 -23.5 27.5t-7.5 34.5q-29 10 -35 30l9 22q-6 14 -30 8l-6 31l-14 -13l1 -5q0 -13 -11 -32q3 -14 1 -47q-3 -44 -3 -48q0 -38 -11 -114t-11 -115q0 -26 4 -84q5 -66 9 -68
q-10 -20 -10 -50q0 -14 -4 -34l-35 -1q-9 0 -29 18q16 37 22 177l16 11q-7 10 -7 19q0 27 10 52l-7 13q14 25 14 127q0 60 -6 80l9 20q-5 18 -11 54l-9 6v35l9 14q-2 5 -2 12q0 9 4.5 28t4.5 27q0 11 -5 17q20 16 13 61l22 9l2 -28q16 -14 42 -46l24 -12l-1 -19l11 6
q10 -8 10 -18q0 -6 -6 -10l24 -13l-2 -21l11 -13q-10 -29 15 -31l-7 -10l13 1v-5q-1 -12 4.5 -20t15.5 -6l1 -41l20 -3l1 -34l25 -28l-2 -23l22 -22l6 -33l22 -10l17 -35h3q31 1 31 -21q0 -4 -3 -26l6 -5h15l6 -27h8q21 26 21 59q0 17 12 33.5t13 25.5q1 14 3 28.5t10 25.5
l-4 24q8 12 25 81q10 45 21 91l-13 16l12 12l-2 16l15 14l3 32l11 -7l12 13l-11 5q7 17 29 57q11 0 25 -40q11 -35 11 -50q0 -4 10 -22.5t10 -30.5l-13 -19q3 -17 -4 -50l17 -46l-14 -22l9 -17l-2 -39l13 6q7 -98 40 -251q43 -192 86 -217z" />
    <glyph glyph-name="N" unicode="N" horiz-adv-x="853" 
d="M762 -69q9 0 18 -14q11 -17 16 -20q-11 -21 -32 -21q-28 0 -34.5 19t-19.5 22q-24 -6 -18 -6l-1 3l10 10q-22 12 -51 59q-25 39 -64 46q-11 16 -11 29q0 7 4 11l-24 15q-12 54 -48 72l-6 23q-12 6 -35 43q-20 32 -36 28l4 6l-39 36l-2 20q-26 14 -73 63q-58 58 -74 71
q0 1 3 12q-17 11 -37 11t-41 -52l14 -29l-18 -54l16 -20q-9 -8 -13.5 -32t-14.5 -32l12 -8l-22 -18l1 -19q0 -9 -17 -20l19 -11l-7 -30l11 -15l-5 -4l10 -18q0 -4 -15 -19l2 -18l-10 -27q-14 6 -21 6q-3 0 -40 -13q-14 11 -37 37l26 20q-12 11 -17 22q6 15 49 101l-13 11
l14 14q0 10 -1 13q20 28 20 72q0 23 -6 47l12 25q-3 24 -29 20q1 11 9 27l-2 14q2 1 16 22q-18 9 -19 8l5 16l-12 6l9 9l-17 41l6 6l2 16l-25 10l-6 24q-10 7 -50 43l15 6q24 -11 73 -27l35 17l18 -7q-1 0 -4 -12q14 -14 46 -37l-8 -9q22 -13 39 -16q-1 -5 -2 -19
q15 -14 28 -35h16l8 -1q12 -10 31 -40t30 -40l-1 -15l20 -25q36 -11 53 -40q22 -35 37 -45l6 -24q4 -3 64 -76q51 -61 65 -61l18 17l4 15l29 21l-1 41q-1 40 16 68l-13 13q6 31 6 37q0 4 -4 16t-1 27q-11 7 -12 7l1 35l24 31q-10 3 -20 7q0 9 1 19q-9 8 -9 9q0 5 6.5 13.5
t6.5 10.5q-8 14 -13 20q3 19 17 45q10 18 8 57q25 11 33.5 20t13.5 32l20 5l20 -2v-17q-8 -7 -18 -26q12 -3 18 -3l-4 -5l19 -16q-16 -33 -25 -66l10 -15q-10 -15 -24 -43l13 -13l-11 -11l14 -11q-22 -20 -22 -50q0 -43 -21 -139q3 -6 13 -45q7 -30 16 -37q-8 -30 -8 -41v-3
q6 -7 11 -13q2 -3 2 -16q0 -4 12 -3q22 2 17 2q2 0 1 -5q-19 -13 -56 -42q9 -7 25 -13q-13 -10 -14 -43l-22 -25q7 -11 14.5 -21t6.5 -22q17 -18 60 -49z" />
    <glyph glyph-name="O" unicode="O" horiz-adv-x="976" 
d="M907 454q-12 -34 -12 -63q-9 -15 -36 -87q-20 -56 -51 -83l-11 3q-7 -43 -37 -37l-3 -17l-35 -31q-28 -5 -76 -28q-53 -27 -76 -34l-10 -16l-19 11l-58 -17l-10 3l-43 -14l-8 4l-26 -14l-10 7l-13 -7l-10 7l-17 -10l-17 17q-12 -9 -42 -24v11l-36 -1l-7 14l-18 -20v10
q-18 5 -43 23l-13 -10l-11 10l-11 -6l-4 23l-7 -3q-24 25 -49 25l-19 26l-22 -3l-6 24l-28 21q-3 12 -1 67l-20 3q-4 15 6 37l-13 21l9 15l-5 30l8 14l-1 13l18 17q-6 8 -6 21q0 41 30 58l1 20l27 11l5 -7q11 25 73 70q59 43 88 52l12 -3l19 23q27 0 59.5 19.5t40.5 19.5
q3 0 6 -1l27 37l16 -6l18 3l34 -14l17 4l54 -24l11 3l23 -10l9 4l12 -13q22 3 40 -14l21 10l14 -20q20 -2 57 -24l7 3l35 -27l7 3l22 -15l2 -16h2q13 1 22 -6t9 -20l14 9q2 -15 13.5 -25t26.5 -8l-6 -32q7 -18 31 -16zM828 407q-10 0 -34 39t-28 56l-9 -3l-13 10l-7 -4
l-23 20l-4 24l-17 -3q-11 0 -29.5 11.5t-18.5 22.5l-11 -3q-2 0 -32.5 16t-48.5 18q-10 20 -36 23l-12 -3l-32 13q-10 0 -117 -64l-24 7l-15 -10l-17 6l-46 -23l-7 3l-40 -37l-7 3q-19 -11 -49 -39t-44 -37q3 -3 3 -8q0 -7 -20.5 -45t-20.5 -49q0 -9 17 -23q-15 -10 -8 -37
l-5 -13l13 -22l-17 -14q7 -2 14.5 -4t9.5 -9l-6 -18q32 -6 32 -21q0 -6 -2 -13l33 -10l2 -17l33 -17l8 6l39 -34l20 7l16 -10l17 14q4 -8 27.5 -14.5t30.5 -16.5q14 14 26 14q5 0 15.5 -5.5t15.5 -5.5q24 0 68.5 14t62.5 15q16 10 47 26l15 -7l29 30l8 -3q20 0 42 27.5
t41 27.5l42 38q14 16 25 53l6 -4q18 0 31 43q11 35 11 59z" />
    <glyph glyph-name="P" unicode="P" horiz-adv-x="1000" 
d="M909 558q-3 -7 -5 -39q-1 -24 -16 -35l-2 14q-14 -3 -20 -23q-5 -16 -10 -33l-11 7l-16 -10l-9 3l-25 -21l-7 4l-13 -14l-18 7l-49 -28l-11 3l-65 -32l-12 11l-10 -10q-3 1 -152 -35q-152 -37 -165 -43l-12 4l-23 -11l-7 4l-24 -13h-8q-28 2 -44 -14q6 -17 21.5 -97
t14.5 -92l17 -3l-10 -29l13 -2v-12l-17 -19l-41 23q4 15 8 45l-11 10l1 39q0 13 -14.5 65t-22.5 67h-9q-30 -18 -102 -42l-13 16q0 23 53 34q71 14 74 15q-6 13 -7 58q-1 36 -21 50q-1 16 7 47q0 4 -6 7q-5 2 -8 -2q-5 36 -16 107l5 10l-13 6q7 19 17 58l-16 26l-16 -4
l-45 18l-11 -4l-21 13l35 26l16 -7l30 24h13l-3 -18l5 -2l14 13l29 -6l12 10q14 -1 29 -3.5t24 -10.5l21 4l16 -10q17 2 44 -5q35 -10 43 -11l18 -17l17 7q30 -8 58 -8q18 0 25 5l19 -13h21q34 1 100 -6t98 -7q7 0 25.5 -4.5t29.5 -4.5q6 0 28.5 -5t33.5 -5q14 0 21 6
l44 -17l21 10l6 -18l15 -14l1 -28zM804 562q-119 30 -130 30q-7 0 -9 -2q-26 22 -155 22q-11 0 -32 -1h-32q-108 0 -123 17q-11 -5 -33 -14l-13 14q-36 -17 -37 -17q-29 0 -57 14l-27 -15l-5 -34q24 -30 21 -44l-14 -72q0 -24 11 -80q9 -52 8 -77l10 -15q31 5 84 18
q65 16 75 26q19 2 42 8l9 -3q31 22 82 33l12 11q33 11 102 27q6 13 13 20l17 -7l49 25l7 -4q52 47 68 47q30 18 36 36q9 24 21 37z" />
    <glyph glyph-name="Q" unicode="Q" horiz-adv-x="1258" 
d="M1150 332l-20 -61l5 -17l-26 -18l3 -10q-6 -52 -113 -108q-77 -36 -154 -71q24 -49 114 -116q3 -15 24.5 -23t25.5 -21l10 11l15 -37q-10 -27 -22 -44l-23 24q-17 4 -31 15q-17 14 -13 29q-2 6 -10 8q-9 1 -12 -6l-9 33l-22 7q-9 17 -41 53q-35 39 -47 42l-12 13
l-158 -32l-28 11l-12 -6q-36 5 -46 -12q-22 22 -166 15q-14 0 -48 3q-37 4 -51 4l7 8q-22 16 -48 5q-26 23 -63 22l-21 21l-10 -8q-6 29 -64 33l-35 38l-11 -4l-5 40q-8 3 -31 -1q-13 13 -7 76l13 14q-1 17 13 42t14 32q30 26 76 76.5t71 71.5q43 36 95 57l3 13l31 4l10 11
l7 -4l25 18l7 -4q13 5 49 28q31 21 51 23q26 4 36 6q18 5 33 17l14 -4l38 18l9 -4l17 18l25 -7l56 21l51 -14l22 17l19 -17l16 11l52 -31q-41 -17 -58 -17q-7 0 -14 2l-31 -18l-13 4l-11 -10h-13l3 8l-7 2l-30 -14q-2 5 -11 5q-8 1 -10 -5l-14 7l-41 -25l-15 14l-16 -17
l-19 7q-144 -31 -305 -126q-199 -117 -199 -227q19 -10 25 -45q32 -24 63 -48q39 -30 58 -53l21 11l29 -36l38 7l10 -21l36 7l17 -14l21 7l11 -14l12 7q21 -16 65 -7q18 -11 46 -16q25 -2 50 -5q10 8 43 11q24 2 62 1q59 -1 48 -1q10 0 36.5 6.5t32.5 13.5v16q-19 11 -53 17
l7 15l-15 11q1 1 1 2q0 3 -5.5 5.5t-8.5 1.5q1 28 -22.5 58.5t-23.5 49.5l12 4l51 -39l13 4q25 -30 50 -59q36 -44 36 -62l29 -12l25 19l34 2l47 38l10 -7q30 53 73 54q17 14 26 48.5t21 47.5l-1 38l8 8q1 12 6.5 39t5.5 41q0 10 -11 57t-15 53l-7 -3l-50 39l-11 -3
q1 10 -16 17q-23 10 -26 13l-54 12l16 44l15 7l3 13l10 -23l7 4l37 -21l9 7q50 -13 93 -53l4 -24l9 3l5 -46q18 -13 24 -62q8 -68 9 -71l-7 14l-5 -9z" />
    <glyph glyph-name="R" unicode="R" horiz-adv-x="890" 
d="M785 514q0 -26 -53 -77l-11 -2q-18 -17 -61 -40t-57 -39l-18 7q-26 -21 -34 -36l-11 10l-32 1q-9 0 -68.5 -17.5t-68.5 -23.5v-13l23 -10l6 -14l19 -7l1 -14q5 -5 24 -41q14 -27 26 -27q3 0 6 1l-1 -7q-1 -25 31 -92t53 -87l2 -11q14 -18 47 -49v-3q-2 -19 24 -40t48 -23
v-22l24 -7l-37 -41q-38 64 -126 175q-100 124 -144 153l1 18q1 17 -8 23l-19 -7l-5 40l-15 11q-5 33 -25 93q-49 -9 -73 -21l-10 3l-34 -14l-12 11l-25 -11q-2 3 -9 3q-6 0 -6 -5q0 -13 1 -55q1 -39 0 -60q-2 -33 -8 -51l9 -12l5 -39l-20 -23l-18 5q-12 22 -28 31l-1 10
q17 21 17 50q0 10 2 37t2 41q0 70 -41 77l-5 9l46 68l-13 29l-26 6l29 8v58l-14 7q14 39 14 43q0 13 -14 9v29q0 -1 11.5 23t8.5 41l-15 5l-13 -3q-1 0 -45 16q-33 12 -39 21l23 19l23 -7l31 14l13 -10l41 7l11 10q19 -17 46 -17q20 0 40 10l11 -21l56 4q28 1 80 -10
q40 -9 80 -19l14 7q19 -12 70 -21q59 -11 76 -17l12 3q32 0 70 -24l12 3l14 -10l7 3l8 -10l26 -6zM715 526q-127 58 -218 58l-15 11q-39 2 -78 3q-60 4 -70 10q-4 0 -12 -3.5t-13 -3.5q-4 0 -10 5.5t-11 5.5q-14 0 -43.5 -7t-44.5 -7q-3 0 -7.5 3.5t-7.5 3.5l-21 -5
q4 -8 5 -31.5t12 -32.5v-98q0 -3 -13 -17q2 -13 2 -25q0 -7 -5 -20t-5 -17q0 -7 2 -21t2 -21q6 3 15 3q7 0 21 -5t20 -5q13 0 41 8.5t41 8.5q12 0 25 -7l11 13q8 1 24 5q13 3 24 3t29.5 9t30.5 9q6 0 76.5 42t76.5 42q3 0 3 -2t4 -1q18 13 48 42l11 -7q20 17 50 51z" />
    <glyph glyph-name="S" unicode="S" horiz-adv-x="1127" 
d="M1050 203l-47 -57l-7 6q-13 -13 -50 -39l-15 4q-24 0 -48 -36l-17 23l-36 -26l-9 6l-20 -23l-23 7l-35 -10l-18 7q-43 -7 -54 -22q-48 4 -60 -11l-20 6q-29 -13 -72.5 -13t-279.5 -59q-229 -58 -285 -81l-27 15l49 44l27 -10q3 5 9 6q7 1 11 -3l238 59l8 -3q60 11 120 23
q69 14 117 32l22 -6l39 23l16 -10q33 23 101 41q84 23 109 34l8 -4l9 9l20 2l30 22l6 -7l94 72l14 -10l8 9v26q-10 -2 -23 7l-18 16q-30 21 -153 21q-10 0 -34 6.5t-37 6.5q-15 0 -27 -7l-32 10h-130q-71 0 -212 -5l-33 -21l-19 13q-16 -11 -60 -11.5t-61 -8.5l-13 17
q-6 -4 -29 -10q-15 -4 -24 -16v27l-6 5l-12 -10q-8 13 -34 14q-6 53 -14 53q-3 0 -6 -4q13 5 26 20.5t14 29.5l20 11l13 -7q14 18 72 49l86 46l11 -3q28 9 63 27q41 21 51 35l9 -4l20 4q5 9 37 24t44 40q33 -1 45 14l8 -7l33 39l1 -19q36 27 128 45l19 -7q-12 -18 -37 -42
l-16 7l-17 -25q-22 -8 -65 -34l-12 7l-37 -33l-10 4l-26 -20l-6 3l-20 -13q-4 4 -12 4q-34 0 -84 -40l-11 7q-63 -34 -131 -75l-8 3q-28 -17 -81 -55l-3 -15l11 -14l40 22l1 -27l9 -5l22 13l10 -10q17 7 48 13l14 -9q55 -2 64 -3q30 -4 62 -20q12 9 36 9q20 0 70 -7.5
t74 -7.5q23 0 40 6l16 -10q24 7 48 6l63 -3l12 -10l19 10l15 -10h126l6 -13l39 4q37 -35 66 -43q0 -5 -1 -14q-1 -12 -1 -16q0 -16 12 -19v-11z" />
    <glyph glyph-name="T" unicode="T" horiz-adv-x="812" 
d="M789 635q-22 -17 -92 -17q-37 0 -103.5 5.5t-80.5 5.5q-11 0 -20.5 -7.5t-9.5 -17.5l17 -61l-13 -43l12 -3q0 -18 -6.5 -41t-6.5 -34q0 -14 6 -30q-41 -120 -41 -248q0 -9 4 -26.5t4 -27.5q0 -7 -2 -14l9 -13l-2 -25q0 -24 12 -43l-2 -13l13 -17l-21 -72l-13 -11l-8 1
l-10 21l-26 12l15 30l-8 12q1 16 11 79q8 47 8 80v186l-9 43l5 16l-12 6l-7 32q13 19 13 31q0 8 -7 12v99q0 16 13 39q18 33 20 38l-5 6q-10 -5 -23 -5q-7 0 -20 2t-19 2q-13 0 -21 -6l-15 7l-76 -26l-23 13l-44 -13l-42 16l-7 -10l-8 7l-31 -17l-26 16l-31 -2q-16 -1 -47 4
t-46 5l-5 12l10 20q29 -1 62 20l23 -6q31 12 48 26l6 -13l30 16l20 -8l-7 -19l11 -6l9 18l41 18l6 -22l15 6l19 -13l18 16q27 -10 36 -22l10 13q11 -14 50 -17l18 7l11 -6q25 3 56 3q35 0 107.5 -5t105.5 -5l23 -7l70 13l25 -3l4 -4v-15z" />
    <glyph glyph-name="U" unicode="U" horiz-adv-x="618" 
d="M545 666q-19 -44 -35 -118l5 -12l-8 -21q6 -9 6 -31q0 -44 -13 -76l13 -19q-2 -36 -10 -62q-12 -27 -23 -55l23 -7q-10 -13 -31 -40v-20q-10 -13 -18 -33q-14 -34 -14 -35l-16 -4l-5 -6l6 -9q-12 -9 -49 -40l-11 3q-16 -7 -27 -13l-6 10q-10 -7 -29 -23l-25 6l-26 -10
l-10 4l-10 -10q-1 1 -18 26l-29 -20q-19 5 -30 4q-5 20 -12 32l-12 -12h-18l-7 16l-26 4l9 13l-18 26v17l-13 19v14q-2 12 0 35q-8 17 -10 44q-2 39 -3 45l8 15q-12 10 -12 21q0 4 2.5 14t2.5 17q0 6 -7.5 25t-10.5 25l13 21l-17 17l7 7l-20 18l30 18q-13 12 -33 22l18 21
q5 25 17 49q17 33 38 33l11 -1q12 -12 12 -21l-8 -12v-19l16 -7l-12 -20l4 -26l-8 -12h19l-8 -12l-9 3l-5 -5l22 -5l-16 -24l13 -5q-16 -22 -19 -83q10 -18 11 -35q0 7 0 -37q0 -28 18 -34l-7 -21l16 -2q-6 -23 -3 -37l-4 -3l4 -3l-2 -16l22 -17q-7 -8 -7 -17q0 -11 22 -37
l24 16l16 -9l9 3l27 -10q23 9 41 9q7 0 10 -2q3 11 22 9l-4 12q25 9 48.5 34t30.5 50l17 11q4 17 9.5 34.5t16.5 27.5q2 27 8 82l11 -3l3 2l-4 37q14 21 5 67l13 23l-4 12l9 18v83q-31 31 -33 29q6 24 14.5 29.5t32.5 5.5q17 0 31 -4l-3 -23q7 -2 32 0z" />
    <glyph glyph-name="V" unicode="V" horiz-adv-x="822" 
d="M733 697l-25 -9q-4 -9 -42 -119.5t-39 -112.5l-17 -16q-5 -20 -20 -36l-5 -45q-18 -16 -43 -64t-30 -51l2 -31q-18 -32 -57 -95l1 -11l-18 -16l9 -11q0 -16 -28 -34t-32 -29q1 -17 -2 -46q-3 -7 -27 -12q-31 -8 -32 -8q-12 28 -34 33q1 4 -5 46l-11 9l1 21
q-23 27 -76 165q-50 129 -84 156l1 13q-17 12 -28 43q-11 27 -29 35l3 24q0 27 -23 27q-5 0 -9 -2l1 20q-4 13 -5 42l-17 11l20 7l3 7q1 27 -16 41l26 12q22 -18 36 -31l-7 -18l12 -13l14 3q16 -24 16 -57q0 -9 -2 -16l17 -19v-4q0 -10 4 -17.5t14 -7.5l-6 -16l24 -34
q1 -31 10 -45q1 -54 69 -190q73 -145 74 -152l13 -9h13l4 6l-5 10l13 12l-13 12q30 25 56 63l-4 2q13 12 31 40t30 37l-3 16q27 18 57.5 80.5t31.5 95.5q36 22 29 68q19 11 37 64q21 62 34 79v38l-13 4l16 17v12l-12 2l-1 28l-9 16l34 37l-2 -23l51 10l17 -7q-4 -7 -4 -16
q0 -13 11 -41z" />
    <glyph glyph-name="W" unicode="W" horiz-adv-x="926" 
d="M894 771l-11 -34l6 -13q-11 -38 -43 -72l-6 -29l-17 -11l3 -11q0 -12 -11 -15l7 -5q-42 -55 -47 -105l-14 -11l-19 -55q-5 -2 -30.5 -59t-27.5 -67q-6 -4 -35.5 -76t-29.5 -81l-11 -10l8 -23l-6 -32q-36 -8 -36 -23q0 -7 10 -15l3 -23q-40 -24 -109 -28q-9 9 -10.5 37
t-12.5 43q3 4 3 12q0 7 -9 29.5t-9 33.5q0 10 6 16l-1 24l-13 9q-3 21 -3 59q0 49 -20 76h-8q-23 -42 -22 -53l18 7q-17 -28 -30 -41l-8 -30l17 -12q-24 -11 -24 -59q0 -14 -24 -49l8 -14q-34 -60 -33 -60l-3.5 1t-6.5 1q-17 0 -49 -14q-2 2 -107 236l-11 6l6 14
q-12 9 -17 26q-8 25 -10 29q-11 7 -28 36l2 16l-23 26l3 9l-15 10l6 10q-19 11 -19 26q0 6 3 11l-16 5l3 27l-26 7q14 7 4 33q8 55 7 72l31 10l1 -30l27 -22l1 -16l9 -3l21 9l-20 -18l12 -15l-1 -29q2 -4 7 -5t7 2l1 -23l6 -6l20 9q-8 -6 -17 -13t-9 -17q0 -7 14 -28.5
t11 -45.5q15 -10 17.5 -44t16.5 -41q7 -41 30 -83q2 -4 48 -75l8 -1l22 9l-7 9q7 7 11 25t22 28q-6 6 -6 13q0 8 11 20t13 16l-5 11q1 1 9 31q4 19 20 20l-7 16h14q-1 28 13 59q13 27 26 55l-14 14l23 31l-21 -4l51 54l11 -6l11 6l29 -23l-5 -11l12 -16l-4 -15l12 7l8 -8
l-22 -23l13 -7q-13 -7 -13 -22q1 35 2 -28l-16 -25l12 -8q0 -1 2 -66l8 -10l-4 -29l11 -10q-3 -6 -3 -13q0 -9 5.5 -21.5t10.5 -23.5l-5 -20l4 -33l11 -12q23 10 35 64q19 15 43.5 54.5t27.5 63.5q25 29 40 39q6 21 15 62l18 10l-1 8q13 15 121 285l-8 16l15 20v9l13 11
l-1 22l26 26l5 1z" />
    <glyph glyph-name="X" unicode="X" horiz-adv-x="838" 
d="M727 -3l-16 -21h-23l-33 14l3 20l-12 7q-11 43 -105.5 141t-104.5 132q-24 12 -31 33q-5 16 -16 16q-23 0 -165 -175q-157 -193 -179 -210l1 -24q-6 -3 -26 -25q-14 -15 -30 -15l-31 7l-4 8q12 26 22 37l-1 13q15 10 44 31l6 16q41 7 36 32q66 55 164 159
q106 113 141 174l-25 12l-2 20q9 4 9 9q0 6 -17.5 10.5t-26.5 4.5q-1 15 -22 40t-22 42l-27 6l-11 -7l3 11q0 27 -33 32q-13 33 -25 65q-15 40 -15 66l12 4q89 -59 100 -79l10 -1l-2 -11l-8 -7l10 -11l26 3q8 -21 16.5 -43t28.5 -30q7 -11 15 -37q6 -19 28 -40l-3 -17
q0 -11 9 -14q12 8 43 51t33 53q30 19 39 64l11 -10l20 23l2 13q35 10 66 75q22 1 94 51h17l-6 -32l-26 -20l-13 -33l2 -16h-16l13 -17l-4 1q-16 0 -133 -107.5t-117 -118.5q0 -12 17.5 -23t20.5 -17.5t42 -62.5t43 -57q6 -14 68 -82t72 -70q0 -15 22 -31.5t22 -31.5z" />
    <glyph glyph-name="Y" unicode="Y" horiz-adv-x="513" 
d="M435 667q-12 -29 -15 -36q-5 -17 -6 -41q-17 -19 -40 -55q-27 -43 -27 -60q-26 -34 -32.5 -45.5t-25.5 -56.5q-21 -4 -23 -25q-3 -33 -4 -35q-10 -12 -35 -33l16 -11l-2 -27l6 -9q-3 -40 -3 -45q-3 -26 -10 -44l13 -11v-21l-11 -14v-4l11 6l2 -17l-8 -15q0 -24 23 -24
q-9 -20 -62 -29l-24 21v15l13 13q-2 10 -23 11l17 15l-13 5v17q0 35 16 52l-13 26q9 27 13 86l-13 21l6 14q0 2 -41 55q-45 59 -50 67l1 8q-9 15 -19.5 30t-27.5 24q-6 17 -12 35.5t-21 26.5q-4 17 -18 50l12 17q-4 10 -4 23l3 21h15q7 -10 14 -33l18 -11l6 -24
q5 -15 15 -15l-3 -9l4 -30q10 -7 35 -52q23 -40 31 -61l12 -3v-4q-1 -11 27 -41l38 -40l36 42q22 27 23 49l13 13l-4 7q12 -1 16 13q3 10 1 24q11 11 22 46q16 50 18 53q13 9 13 18q0 4 -4 7q34 22 70 58h11z" />
    <glyph glyph-name="Z" unicode="Z" horiz-adv-x="723" 
d="M773 -57l-7 -4q-12 5 -20 24q-6 16 -19 16q-7 0 -18 -4q-21 19 -56 33q-31 11 -63 22l-10 -4q-14 9 -85 25l-9 -3l-26 18l-13 -7q-17 4 -114 13l-12 -6l-26 11l-28 -11l-17 22q-15 -11 -25 -22h-12l-10 14l-22 -18l-23 18l-20 -21l-5 21l-39 -18l-18 4l-34 -25l-18 29
l-16 -4l7 23l-13 -1q4 21 -7 32l8 14q4 55 34 60q15 19 21 31l8 4l10 -7q10 11 19 33l7 -4l4 6q19 31 67 67q55 41 73 61l8 -3q11 13 39 37q5 16 24.5 36.5t25.5 31.5l3 -22q14 13 9 31l21 -5q11 0 21 18q8 15 16 29l3 -15q34 30 34 52l-7 6l-28 -11l-19 11l-10 -7l-28 11
l-35 -18l-30 11q-10 -13 -16 -26l-7 8l-11 -8l-20 15l-13 -7q-35 -1 -45 14l-11 -7l-12 7l-8 -4l-20 24q0 15 36 35l9 -11q14 17 47 47l-1 -26l12 26l21 -22l23 22q29 -11 43 -22l20 15l38 -19l19 11l5 -21q25 5 29 21v-5q0 -14 16 -20l29 14l24 -10q17 14 27 25l17 -11l7 4
l13 -13q1 -20 11 -69q-8 -24 -26 -51q-21 -32 -27 -45l-21 14q-13 -7 -12 -32l-15 -3l-9 24q-18 -33 -43 -39l-7 7q-17 -18 -46 -58l-10 21q-6 -8 -38.5 -32.5t-32.5 -28.5l-8 3l-26 -12l-10 -15q-16 -9 -48 -26q-4 -26 -26 -75q8 -16 28 -46q17 2 27 10q2 -20 13 -29
q8 -6 31 -10l22 18q0 -17 24 -32l10 3q23 -6 39 -25l14 3q14 0 105 -24.5t97 -29.5l14 4q10 -6 60.5 -19.5t62.5 -13.5l12 9l7 -13l33 15q9 -28 7 -55z" />
    <glyph glyph-name="bracketleft" unicode="[" horiz-adv-x="213" 
d="M118 615q1 -8 -6 -44q-7 -39 -13 -46q10 -54 1 -80q0 -9 -1 -28q-6 -72 -13 -165q-1 -11 12 -36t15 -32q1 -6 -5 -28q-6 -27 -7 -33q-1 -31 -10 -98q2 -5 11 -18q-8 -14 -19 -33q4 -8 47 -20.5t51 -22.5q-1 -2 1 -22q1 -17 -5 -19q-51 9 -115 17q-4 -1 -5 2.5t-6 3.5
t-15 -11q13 25 12 29q-1 20 -19 25q8 13 18 42q4 18 1 87l-6 101q14 11 14 17q-1 16 -11 36q3 7 0 14q3 9 3 29q0 21 -4.5 67t-4.5 58q0 8 1 11q-1 8 -16 12q4 10 8 27q-1 10 0.5 31.5t1.5 24.5q-1 22 -2 24q-3 11 -17 12q11 48 18 100q6 10 2.5 18.5t2.5 19.5q-2 6 -2 15
q13 20 17 33q3 10 -3 24q3 10 18 25q4 -3 48 -4.5t46 -5t2 -6.5t-2.5 -8t-2.5 -7q0 -6 8 -14q0 -7 -34.5 -16.5t-33.5 -18.5q10 -40 19 -89z" />
    <glyph glyph-name="backslash" unicode="\" horiz-adv-x="401" 
d="M345 146q-2 6 -29 21q-12 53 -31 73q-3 9 -11 26q-17 18 -45 56q-6 11 -18 62q-1 5 -18 36q-10 18 -20 59q-10 37 -20 52q0 1 -27 46t-24 51q-1 4 -1 8q2 9 -1 10q-5 12 -3 48q-8 8 -15 16q-12 12 -19 11q-12 -6 -37 -16q-4 -2 -9 2t-10 3q-1 -1 -1 -2q0 -9 13 -15
q4 -3 3.5 -8t0 -7t12 -13t11.5 -17q0 -4 -3 -7q24 -44 59 -102q10 -15 34 -79l34 -95q2 -9 7 -27q1 -2 9 -8t8 -13q5 -6 5 -14q12 -12 13.5 -33.5t7.5 -27.5q0 -2 6 -7.5t6 -8.5q0 -2 -1 -3q13 -17 28 -40q2 -4 2 -7q0 -6 -5.5 -13t-4.5 -11q3 -6 9 -11.5t6 -7.5t-8 -7
q4 -18 5 -42q8 -10 37 -36q0 -5 3 -14q21 -14 29 -23q4 -5 4 -34q6 -9 40 -22q3 5 2 24l-1 25q0 5 -8 18.5t-8 22.5q0 6 3 11q-8 15 -21 47q3 17 2 43z" />
    <glyph glyph-name="bracketright" unicode="]" horiz-adv-x="212" 
d="M11 772q10 0 33 1t35 1q19 -1 35 -4q-2 0 5 -20q2 -8 4 -15l-5 -5q4 -12 7.5 -43t10.5 -45v-189q-6 -3 -6 -10q0 -5 6.5 -17t6.5 -16t-3.5 -15.5t-3.5 -16.5q-7 0 -13 -6q6 -17 6 -16q-9 -50 -9 -43v-184q0 -61 4 -102q7 -20 15 -59q-9 -11 -8 -12q6 -10 15 -30
q-11 -4 -27 -12q-3 -8 -9 -21q-3 0 -8 -1q-42 5 -86 12q-3 10 -3 24q0 9 1.5 21t1.5 13q0 -19 20 -19q14 0 32.5 8t19.5 11q-5 20 -9 43q4 6 4 11t-12 13.5t-13 17.5q1 2 8.5 23t7.5 23q0 3 -2 22q-2 16 -1 21v43q0 -3 6.5 43t6.5 80q0 38 -21 100q14 20 14 44q0 15 -6 27
q-9 18 -7 40q5 27 14 56q-10 40 -10 73q0 4 1.5 30.5t1.5 31.5q0 24 -35 24q-7 0 -19 -1t-15 -1q3 0 4 23t5 23z" />
    <glyph glyph-name="asciicircum" unicode="^" horiz-adv-x="386" 
d="M222 811h-7q4 -4 14 -11q13 -11 15 -7v2q11 -3 32 -13q12 -8 15 -16t9 -12q15 -11 27 -31q-7 -19 -12 -16q-1 1 -6 8q-9 3 -21 9q-1 4 -6 11q-4 1 -9 3.5t-12.5 12t-12.5 12.5q-4 3 -14 -3l-18 13q-25 18 -40 18t-40 -18l-17 -13q-10 6 -14 3q-5 -3 -12.5 -12.5
t-12.5 -13.5q-4 0 -10 -2q-2 -2 -2.5 -6t-2.5 -5q-9 -2 -21 -9q-2 -3 -6 -8q-5 -3 -13 16q6 10 28 31q5 4 8.5 12t14.5 16q11 3 32 13l1 -2q1 -4 15 7q4 3 14 11h-7q4 0 11 6q1 3 -1 6q-1 2 0 5q2 4 29 23l2 7l4 -2q3 2 4 2l3 -7q27 -19 29 -23q1 -3 -1 -5q-1 -3 0 -6
q2 -3 11 -6z" />
    <glyph glyph-name="underscore" unicode="_" horiz-adv-x="486" 
d="M-1 -123h490v-49h-490v49z" />
    <glyph glyph-name="grave" unicode="`" horiz-adv-x="340" 
d="M181 782q-6 4 -19.5 6.5t-20.5 6.5v-2q-2 -4 -19 7q-3 1 -9 5.5t-12 7.5q-1 1 -3 6q-4 -2 -13 -5q-6 8 -24 44q-2 0 -24.5 -14t-24.5 -16q-1 -3 1 -5q1 -3 0 -6q-2 -3 -13 -6q9 1 25 -2q6 -4 4 -15q12 -3 29 -3t48 -18l22 -13q13 6 18 3q6 -3 15.5 -12.5t15.5 -13.5
q4 0 12 -2q2 -2 3.5 -6t3.5 -5q10 -2 26 -9q2 -3 7 -8q11 -6 17 6q6 9 6 16q0 9 -27 24q-8 4 -18.5 12.5t-25.5 16.5z" />
    <glyph glyph-name="a" unicode="a" horiz-adv-x="635" 
d="M520 204l-14 -21q12 -36 28 -36q2 0 5 2q-1 -16 8 -37q9 -25 22 -28l1 -14l17 -9l-17 -18l-30 6l-15 36q-26 14 -37 38l-17 2q-1 1 -12 34q-7 20 -26 20l-11 25q-11 -13 -34 -13q-14 0 -30 5l-31 -14l-18 6q-46 0 -91 -17l-8 11q-10 -7 -68 -83q-67 -86 -80 -100t-37 -52
q-2 -3 -17 -15q-11 -9 -8 -16l-37 -17l-33 3l-4 -3v27q80 56 131 110q8 2 16 10q12 12 14 13l-6 8q61 48 68 92l21 19l-4 9l-25 1l-25 -12l-22 17l-24 -5q-4 0 -36 8q-38 10 -41 11v16q23 1 79 10q64 10 72 18l23 -13q27 0 37 10q14 15 27 30l-8 16q12 23 34 68l9 5l3 30
q37 36 37 77q0 8 -2 15l15 15l2 12q16 8 31 40.5t33 39.5q14 -6 5 -29l19 -8q-6 -18 -6 -31q0 -15 9 -15q3 0 7 2q-8 -12 -8 -24l2 -9l15 -1l-5 -5v-17l18 -2l4 -4v-10l-19 -17l7 -12l-2 -27l4 -2l18 7l-16 -53l15 -11l6 -34q-8 -14 -8 -25q0 -5 3 -6q2 0 7.5 1t6.5 1l3 -7
l-11 -16h13l4 -13q28 -12 59 -12q12 0 36 2t38 2q1 0 13 1q10 1 14 0q6 -2 6 -7q0 -4 -23 -11.5t-28 -7.5q-24 3 -71 8zM414 240q-4 1 -5 5q0 3 1 8t1 7v5l-15 10v20q0 5 -1 8h-3q-9 0 -11.5 9t-1.5 24q2 20 2 19q0 11 -4 17q-16 6 -25 63l-24 -62q-15 -34 -38 -54
q-1 -7 -18.5 -40t-22.5 -38q9 -9 21 -9q6 0 17 3t16 3q4 0 10 -3t10.5 -3.5t48.5 -0.5h17q14 0 22 -7z" />
    <glyph glyph-name="b" unicode="b" horiz-adv-x="551" 
d="M96 223l1 9q1 9 -11 18q16 20 16 53l-5 11.5t-5 17.5l-9 -5l-10 8l-9 -3l-6 14q18 26 27 41q-6 23 -6 56q0 14 8 55q8 38 7 41l-5 4l-12 -11l-10 7l-20 2q-5 8 -18 7q-10 -3 -21 -5l-17 10q9 10 32.5 19.5t32.5 17.5l14 -8l12 8l5 -8l11 8l12 -11l36 9l8 -14q9 5 23 11
l18 -6l9 6l10 -8l5 2l10 -8l22 8l47 -16l12 8l9 -14l11 3q21 -6 52 -22l8 2l15 -11l6 3l15 -11l6 3l6 -28q0 -4 -3 -9.5t-3 -8.5q0 -4 4 -8q-17 -2 -34 -21l-5 3l-4 -11l-6 5l-8 -14l-8 6l-2 -14l-30 -11l-9 2l-29 -22l-8 17q-29 -23 -43 -23q-8 0 -15 3q-1 -8 -13 -23
q11 -14 43 -4l15 -20l15 3q69 -12 148 -31l17 6l-2 -15l5 -5l13 9l15 -12l-8 -20l14 -14l-6 -30t-12 -29q-19 0 -24 -12.5t-9 -26.5q-20 -2 -42 -14l-8 2l-2 -19q-32 -11 -43 -17q-23 -11 -37 -25v9l-6 2q-25 -23 -41 -23q-7 0 -13 4q-41 -19 -51 -19q-6 0 -10 2l-14 -8
l-22 3q-24 -14 -33 -25l-15 11q-11 -3 -33 -11l-24 23q1 2 13 22q10 17 10 25q0 6 -6 8v9l13 9l-1 30l8 14l-7 17q3 11 14 28zM369 507l-2 -1q-8 0 -19 11q-10 1 -44 6q-28 5 -44 4q-6 5 -9 13q-24 -8 -25 -8q-3 0 -7 4t-7 4q-4 0 -12 -5.5t-13 -5.5q-1 0 -13 14
q-4 -1 -18 -7q-10 -4 -18 -4q-1 0 -3 2v9q-13 -6 -13 -19q0 -12 7 -34q9 -26 10 -35q7 -2 11 -5q-7 -22 -9 -57l24 14q2 0 2 -1.5t3 -1.5q5 0 21 8q21 11 22 11q7 0 22 3q-1 3 -1 7q0 16 20 16q3 0 4 -3t4 -3q7 0 15 3l5 14q9 0 14 -3q5 13 10 25q4 6 24 6q6 0 13 10
q11 1 26 9zM150 102h12q2 0 15 8t17 8q5 0 15.5 -1.5t15.5 -1.5q4 0 15 9q15 10 16 11l9 -8q38 30 42 30q2 0 5 -2.5t6 -2.5q7 0 19 15q-1 4 -1 8l2 7q2 0 8 -1.5t9 -1.5q11 0 21 14q14 19 16.5 21t14.5 5q8 2 12 13l-4 -1q-7 0 -7 9q0 23 27 31v11q-10 6 -31 16
q-65 23 -114 23q-12 0 -37.5 -7t-37.5 -7q-5 0 -25 14q-17 -17 -35 -17q-8 0 -18 -12l-1 -17q-1 -7 1 -17q13 -6 13 -19q0 -1 -3 -4.5t-3 -8.5q0 -8 10 -47q-7 -9 -7 -22q0 -8 4.5 -22.5t4.5 -21.5t-6 -11z" />
    <glyph glyph-name="c" unicode="c" horiz-adv-x="762" 
d="M703 56l-15 -12l-50 -3l-10 5l-20 -8l-10 11q-51 -10 -80 -10q-65 0 -85 15l-8 -5q-21 8 -71 9q-46 0 -68 13l-13 -5l-29 16l-11 -3q-21 8 -65 17l-2 14l-22 -14v6q1 19 -13 19q-2 0 -24 -5l-14 25l-7 -6l-35 17v16l-6 -2l-26 25q2 13 -20 34q0 -4 -2 20q-1 16 4 17v10
l-19 -1v21q14 18 37 56q45 25 41 55l8 7l14 -3q18 0 36 42l7 -3l7 3q7 20 34 25q1 11 14 30q1 -17 -1 -28l4 -2l33 36l9 -3l7 11l15 -5q11 12 61 26q45 13 64 13q37 0 84 22l14 -3l41 14l7 -6l11 6l12 -6l11 6l9 -3l19 8q8 -5 27.5 -4t29.5 -5v-9l-31 -20l-9 5l-42 -28
l-6 20q-15 -6 -19 -25l-8 11l-11 -6l-14 6l-8 -14l-17 -3l-21 14q-20 -13 -78 -25l-15 6l-11 -23l-9 9l-11 -9l-11 6q-9 -11 -44 -29q-43 -21 -50 -27l-6 3q-7 0 -20 -21.5t-24 -21.5l15 12v7l-4 2q-13 0 -17.5 -16.5t-11.5 -16.5q-4 0 -9 2l-46 -41l-2 -7q-29 -18 -29 -67
l3 -27l13 -11l-5 -10q19 -10 26 -21l-2 -13q0 -8 3 -14l16 23q6 -12 25 -39l9 5v-14q12 -4 33 -6l15 -16l5 3l45 -22l8 3q20 -15 39 -6v-12l26 -1l12 -9q24 0 69 -6q57 -7 60 -14l9 5q4 -1 7.5 -2t4.5 -1h8q9 0 26 -2t25 -2q15 0 42 4t41 4q28 0 40 17l25 -15z" />
    <glyph glyph-name="d" unicode="d" horiz-adv-x="803" 
d="M754 360l-1 -16l-6 -9l1 -20l-7 -21l-10 5q-17 0 -21 -23q-4 -26 -10 -28t-12.5 -4t-8.5 -9l-8 8q-11 -15 -40 -47l-6 3l-27 -34l-14 -2l-26 -23l-11 6l-23 -17l-17 5q-9 0 -16.5 -13t-18.5 -16l-5 15l-5 -6l-8 6l-23 -21l-6 6q-16 -14 -29 -15l-15 9l-41 -20l-11 14
l-17 -11l-18 5l-28 -11l-11 6q-31 -5 -83 -21l-9 9q-15 -15 -31 -20q-5 -2 -36 -7l-10 6l-16 -11l-6 5l-7 -8l-25 39l8 32q7 22 17 23l26 -21l10 9l12 -12h7l4 5l-20 22q-1 26 1 45l-10 9l3 13l9 -3l4 5l-13 17v45q8 12 13 36l-4 9l-8 -15q11 38 11 50q0 16 -10 27
q8 33 11 51q-13 7 -13 19q0 22 9 67l-4 11l5 8q0 29 -21 29q-9 0 -25 -6l-25 12l-15 -6q-11 4 -25 13v16q6 8 24 10.5t30 16.5l7 -3l15 12l-2 -10l4 -2l16 12l23 -12l39 3l26 -18l7 3l9 -8q18 -7 38 0q14 -9 22 -18l17 17l15 -20l11 3l8 -11q14 -2 50 -13q29 -9 54.5 -9
t108.5 -30t100 -48q14 -1 39 -11.5t40 -11.5l10 -10l5 3q16 -20 30 -18l-2 -25l18 -8zM688 361v11q-14 23 -22 31q-1 1 -31 23l-5 -3l-17 15l-8 -3q-9 2 -119 46q-96 40 -129 40q-10 0 -16 -4l-25 15l-30 -6l-12 6q-21 0 -37 6l-15 -6q-10 14 -26 14q-10 0 -23 -8l-16 17
q-5 -6 -9.5 -12.5t-4.5 -13.5q0 -15 5 -45t5 -44q0 -106 -13 -154q11 -19 11 -52q0 -10 -5 -29q-5 -24 -6 -29q8 -6 16 -19q-17 -15 -19 -42l18 -16q8 6 21 9l6 -3l26 9l12 -6l17 9l22 -6l60 23l16 -8l17 11l9 -3q16 9 24 18l8 -9l15 9l17 -3l11 8l21 2q6 15 15 20l10 -9
q12 6 26 19.5t22 18.5l3 -12q5 8 11 17t14 7l8 19q11 7 22.5 14t17.5 19l7 2q11 20 20 32v6q0 6 24 25q29 23 31 24z" />
    <glyph glyph-name="e" unicode="e" horiz-adv-x="696" 
d="M657 87l-16 -29l-17 6l-11 -3q-17 14 -99 14q-44 0 -309 -17l-10 6l-28 -15l-13 6l-49 -21q-2 11 -13 11q-6 0 -21 -4.5t-20 -3.5v12q-22 2 -67 6q16 36 60 36q6 0 13 -1l23 12l12 -9l19 15l19 -9l9 10l-5 13l-12 -5q9 32 0 42q5 15 11 49l-12 10l14 15l-4 26l17 33l-2 4
l-8 -6l-28 3v10l-20 -1l-11 12l-15 -3l-25 16l37 16l12 -6l27 15l5 -15q25 12 25 24q0 4 -6 28l9 6l-9 2q11 16 11 24q0 2 -2.5 10t-2.5 17q0 11 5 18l-5 9q10 17 1 34q14 33 14 50l-5 2l-30 -12l-8 24l-8 -9l-14 6q-4 -4 -14 -4q-34 0 -48 16v11q27 0 31 9l10 -3
q10 0 16 10t14 10t22 -5l29 11l9 -5q27 11 51 1l8 -13l19 11v-9q15 -3 46 1l10 -6l31 9q11 -8 37.5 -3t37.5 -3q16 8 38 8q11 0 32 -2.5t31 -2.5l43 12l12 -6l14 6l24 -7q-1 -15 9 -21q-22 -15 -163 -15q-57 0 -71 4l-18 -6l-10 6l-16 -9q-15 6 -38 4q-38 -4 -37 -4
q-3 0 -20 -5q-20 -7 -22 -7l-14 -22l8 -4q-2 -8 -3 -36q-2 -20 -13 -33q-1 -15 -4 -46.5t-3 -47.5q0 -3 5 -13t4 -16q5 -4 31 -7l35 -4l9 9l15 -9l20 9l12 -12l12 6l13 -6l18 6q21 -12 45 -9l17 9l17 -6l27 6l16 -6q16 6 26 15l12 -12l21 18q9 -9 19 -17q12 -11 12 -21
l-11 -26l-22 -7l-20 4l3 8h-34l-47 15q-12 -6 -30 -6q-10 0 -31.5 3t-30.5 3l-50 -12l-28 9l-24 -12l-10 12q-12 -3 -36 -8q1 -21 -2 -40l10 -9q0 -6 -2 -16.5t-2 -15.5l1 -5l6 2q-3 -37 4 -51q-19 -28 -12 -61q26 6 57 -14q13 10 38 10q15 0 44 -5t39 -5q22 0 84 4
q76 5 88 11l13 -6l65 15l12 -2z" />
    <glyph glyph-name="f" unicode="f" horiz-adv-x="705" 
d="M637 297l-24 -3l-16 9l-20 -6q-21 9 -112 9q-13 0 -38.5 -3.5t-39.5 -3.5l-12 -8l-16 9l-24 -6l-23 9l-38 -9l-10 9l-7 -9l-11 12l-7 -9l-9 6l-14 -6l-17 6l-9 -8q2 -10 0 -22q-3 -15 -3 -19q0 -2 8 -44q-3 -7 -3 -21q0 -7 3 -39q2 -24 0 -37l15 -11q-8 -19 3 -23v-32
q-42 -9 -45 -9l-13 4q3 6 3 14q0 20 -14 44q6 33 11 51l-13 -1v11l10 6v125l-4 5l-21 -15q-14 6 -26 15l-8 -9q-27 9 -81 24v11l15 12l10 -6l13 9l8 -3q14 7 36 12t32 9l-3 -10l4 -5l15 9l8 -3l5 10l-13 23q4 30 4 60l-11 23l-12 5l4 19l6 6q4 23 -1 38q10 18 7 29l-23 -10
l-10 15q-11 -9 -33 -24l-23 18l-13 -6q-10 5 -36 9q-31 4 -39 6v20l13 -3l28 15l9 -3q30 15 43 26h10l2 -17l15 20l23 -17q14 9 31 -3l3 11h12q8 0 29 -5.5t33 -5.5t36.5 -7.5t36.5 -7.5q42 0 127.5 4t126.5 4q12 0 37.5 8t38.5 8q5 0 10 -1l3 -18q0 -18 -20 -29l-14 18
l-14 -19l-41 8q-89 0 -136 -13l-54 15q-7 0 -40 -2.5t-51 -2.5q-27 0 -35 5l-12 -8l-8 3l-16 -9l-13 6l-4 -8l17 -22l6 3l3 -16q0 -21 -12 -59l7 -21l-8 -5l3 -3q-3 -13 -2 -23q4 -5 9 -38q5 -40 6 -41l4 -3l24 18l18 -12l16 12l29 -12l23 6q6 0 23 -2.5t26 -1.5l8 -11
l21 15l13 -18l11 9l10 -9q153 7 165 13l18 -11l11 8l17 -25v-14z" />
    <glyph glyph-name="g" unicode="g" horiz-adv-x="745" 
d="M730 252l-26 -15q-42 21 -103 14q-9 9 -21 6l-5 -14q18 -39 7 -59l14 -29q-8 -11 -8 -46l13 -22q-5 -30 -7 -36q-4 -14 -18 -32l6 -13q0 -48 -16 -80l-11 3l-12 -9l-24 16l-4 22l13 19l-1 29q14 12 8 44q-15 -1 -31 3l-26 -9l-15 9l-18 -12l-38 9l-13 -6l-10 6l-19 -9
l-13 9q-12 -1 -41 -5t-42 -4l-35 9l-12 -6v9l-19 -3l-13 8l-22 -8l-14 8l-7 -2l-19 14l-11 -17l-36 26l-11 -3l-9 17l-9 -3q-6 8 -28 26q-19 15 -23 24q3 9 2 29q-10 3 -20 2q3 33 23 96l-10 -1l-5 7q11 11 24 50q12 31 42 48l4 24l7 -3l11 15l14 -9q26 32 39 40
q26 10 53 21q15 27 49 26q8 11 35 25l10 -3l32 22l15 2q13 13 46 17q10 19 25 19q4 0 9 -2q24 3 42 34l-2 -12l5 -5q15 16 51 43l20 -8l20 23q10 -10 20 -15l6 9q16 -9 39 6l13 -6l21 2v-10l-27 -18l-5 3q-16 -28 -33 -28q-8 0 -16 5l-9 -17l-32 -18l-8 3l-16 -8l-13 5
l-22 -14l-10 6l-30 -20l-13 5q-20 -6 -25 -22l-11 2q-33 -19 -37 -21q-23 -11 -41 -11q-19 -21 -51.5 -34.5t-42.5 -25.5l-8 3q-10 -13 -51 -34.5t-54 -42.5q-11 -29 -36 -74l1 -15l-11 -18l7 -36l19 -8l-2 -23q32 -24 80 -49l-9 -15l6 -2l22 12l12 -9q6 10 17 6l11 -20
l10 6l7 -9l15 14l28 -20l18 6l10 -9l51 -5q7 0 24.5 4t25.5 4q12 0 19 -5q11 7 38.5 9.5t38.5 13.5l9 -12l38 17l-8 13l7 12l-5 25q7 8 7 45q15 11 14 46l-16 12q-19 -10 -46 -10q-21 0 -33 7l-18 -9l-10 6l-13 -9l-13 9l-26 -9q-46 20 -96 21v13q15 15 39 15q19 0 32 12
l10 -9l27 18l9 -12l11 6q31 1 43 -15l25 6l16 -8l13 5q47 -23 126 -23q28 0 50 15l8 -9l14 11l22 -17z" />
    <glyph glyph-name="h" unicode="h" horiz-adv-x="641" 
d="M34 299l10 6l57 -6l22 5l2 31l-4 9l4 12l-4 5l8 15q-13 14 -3 34l-8 5v33l17 9l-2 9l-23 -5q5 28 12 84l6 6l-7 24q17 6 9 22l26 53q8 -2 20 -51q11 -44 11 -59l-5 -12l3 -12q-9 -13 -4 -38.5t-1 -32.5t-12.5 -13.5t-6.5 -15.5t17 -26q-9 -10 -19 -22t-10 -23l12 -29
q-8 -13 -6 -20q13 -8 23 -10q7 -2 19 0q15 2 23 2q31 0 99.5 -6t101.5 -6l31 -6l19 8q-1 17 2.5 46.5t3.5 42.5q0 101 -14 155l8 24q-3 4 -3 11q0 21 14 32v6q0 2 8 49h13q19 -28 13 -55q16 -12 16 -42q0 -25 -12 -28l12 -10q0 -9 -4.5 -41.5t-4.5 -47.5q0 -18 5 -25
q-16 -24 -16 -57q0 -26 7 -31q-2 -41 27 -41q8 0 30 4t35 4l12 -28q-14 0 -41 2t-40 2q-14 0 -30 -8v-116q0 -6 9 -69l11 -15l-12 -27l-9 11l-6 -14q-39 27 -34 64q1 8 2 15q2 14 2 21q-1 10 -6 8q2 4 5 11q1 71 7 112q-18 9 -44 9q-18 0 -52 -5.5t-51 -5.5q-28 0 -86 6
t-87 6q-12 0 -19 -65q-6 -49 -6 -80l7 -37q-12 -31 -2 -41l-8 -31l7 -9v-19q2 -40 -21 -40l-39 4l9 12v11l-13 -4q17 41 17 131q0 14 9 79t13 75l-8 14l-19 -8l-32 11l-18 -11l-5 11l-12 -9l-7 6l-14 -8l-14 7q-6 15 -6 28q0 23 31 23q12 0 23 -4z" />
    <glyph glyph-name="i" unicode="i" horiz-adv-x="163" 
d="M107 486q-8 -14 -16 -23q2 -20 2 -32q0 -22 -11 -56q-12 -39 -14 -53q-2 -9 -2 -102q0 -82 9 -91l-11 -9q4 -9 26 -42q-37 -28 -50 -28l-9 6l-12 -8l10 22q-1 17 -14 21q8 23 15 47q5 18 5 54v82l12 14q-3 21 -3 55q0 4 -5 19q-3 11 0 18l-12 10q11 31 11 78q0 16 -13 18
l-7 9q9 17 28 52l-1 12q16 22 14 45q9 13 15 19q16 -15 17 -22q-1 12 -1 -26q0 -10 6 -16q-3 -37 -3 -34q0 -14 14 -39z" />
    <glyph glyph-name="j" unicode="j" horiz-adv-x="610" 
d="M627 554q-95 -10 -119 1l-15 -10q0 -30 19 -43q-18 -21 -18 -22q0 2 0 -23q0 -8 -9 -16l3 -10q-13 -14 -11 -35l-15 -17l1 -8q-14 -24 -29 -56l-3 -63q-2 -25 -24 -84q-21 -54 -19 -87l-3 1q-13 0 -32 -14q-23 -17 -30 -20q-20 -1 -62 -13l7 5l-20 10l-18 -3q-9 0 -25 17
l-17 -5l-4 11h-18q-8 13 -35 11l5 10l-13 20l-25 8q0 8 -6 12t-14 2q-3 9 -16 18.5t-24 11.5l11 22l-2 17h-14q-1 19 2 31l-22 3v35l11 11l-21 10q2 1 37 50q27 39 57 39q13 -10 19 -20l14 6v-30q-38 -20 -44 -25q-12 -13 -12 -50q0 -6 2 -4l8 5q8 -5 9 -26q1 -16 18 -19
l-14 -9q17 -25 31 -25l-2 -13q0 -17 12.5 -23t11.5 -17l15 -1l23 -15l12 2l15 -16l15 1q10 0 32.5 -9t32.5 -9q37 0 52 27q10 19 12 61q4 46 9 59q0 1 32 69q23 47 23 73q0 10 -3 18l15 20l-1 25l9 11l-2 17q-1 16 10 31v8l-15 6q26 4 26 20q0 9 -8 21h-7q-5 -7 -25 -10
q-19 -3 -26 1l-24 -11l-31 8l-13 -8l-7 3l-12 -14l-16 8l-18 -8l-21 14l-43 -6q-13 0 -24 7q8 11 33.5 15.5t37.5 19.5l14 -5q26 8 40 8l16 -8l26 11l8 -6l20 9l11 -12l22 9l28 -6q14 0 53 3q31 2 53 0l8 8l12 -8l-7 4l10 -5l5 5l7 -5l31 14q16 -21 12 -31z" />
    <glyph glyph-name="k" unicode="k" horiz-adv-x="477" 
d="M454 2q-15 19 -25 19q-4 0 3 -9q-4 10 -15 28l-5 -1q-22 23 -22 24q1 0 3 -1q13 -5 11 -5l-2 1l-16 16q-16 10 -47 31l2 -7l-1 -1q-4 0 -42.5 28t-42.5 34l-10 -4l-15 17l-9 -2q-17 14 -30 23q-32 24 -46 26l-19 27l-9 -3q-2 -31 -8 -67q6 -57 6 -82t-5 -30q13 -3 13 -15
q0 -11 -16 -43l-22 8v11l-9 3l-1 11q0 16 5 48t5 48q0 8 5 29.5t5 32.5l-2 32h-2l-6 -8q-16 -6 -23 -25q-17 -5 -49 -15l-3 18l-7 -2l-3 28q0 8 25 29t29 20q14 19 45 54q-2 12 -10 35q3 29 3 60q0 34 -8 109q6 8 17 41q11 37 17 47l9 -1q5 -29 0 -46q12 -8 12 -37
q0 -26 -7 -48l9 -5q-15 -18 -15 -72l1 -61q36 19 97 92q81 98 83 101q4 -1 32 20l8 -6l2 14q11 10 23 20q8 6 33 15l4 -16q-10 -17 -19 -33q-11 -19 -13 -36l-10 6q-1 -2 -79 -77l2 -10q-26 -11 -65 -59q-43 -52 -63 -65q-2 -13 -12 -17v15q-9 -9 -15 -27l5 -12l7 1l7 -8
l14 3l11 -17l6 2q17 -14 16 -24q25 -8 46 -37l6 2l23 -25l9 -3q6 -10 56 -45q47 -33 63 -41l3 -11l8 4l9 -13q11 -4 13 -2q1 2 2 6l9 -18q28 -4 28 -20q0 -12 -22 -27z" />
    <glyph glyph-name="l" unicode="l" horiz-adv-x="492" 
d="M95 102l9 6l18 -9l19 6l6 -8q9 -1 31 -2q18 -2 30 -2q-4 0 55 -10q23 -3 57 -9l3 8l26 -6q13 0 41.5 7.5t42.5 6.5l18 -3q6 -1 19 5v-24q-24 -28 -44 -28q-29 0 -87 10q-70 11 -89 13l-22 -9q-31 6 -30 6q-51 0 -84 -17l-16 9l-22 -6l-14 6l-4 -2l-10 -4q-19 3 -15 3
q0 4 2 9q-21 0 -61 12v13l23 10l6 -3q15 0 31 12v2q0 9 9 37l-4 8q7 50 3 65l9 13q0 5 -4 21q-2 13 -2 21q0 20 5.5 59.5t5.5 59.5t-4 61.5t-4 60.5q0 21 9 51q8 25 16 51l20 -11l4 -45l7 -5l1 -16q0 -68 -19 -95q8 -8 8 -21q0 -20 -7 -67t-7 -76q-6 -4 -6 -6q0 8 8 -15
q-4 -19 -2 -54q3 -37 1 -54l-1 -3q0 -37 14 -41z" />
    <glyph glyph-name="m" unicode="m" horiz-adv-x="619" 
d="M599 -16l-3 -18l-29 -6l-16 9l-1 38l-9 11v13q2 36 -11 49q-3 22 -43 163q-38 133 -38 162q0 6 1 9l-9 7l-12 -7q-53 -131 -56 -188l-14 -13q-1 -19 -10 -49q-10 -34 -21 -45l8 -2l-6 -16h-17l-22 11q-1 19 2 36q-14 6 -28 13q-18 9 -17 23l-9 7v10l16 15l-18 7l-11 19
l5 17q-3 3 -24 40q-16 27 -30 31l-5 5q-4 17 -13 51q-10 5 -18.5 22t-5.5 28q-23 7 -29 23l8 18q-5 12 -24 7l-5 24l-11 -10v-4q1 -10 -8 -26q2 -11 1 -37q-3 -36 -3 -39q0 -30 -9 -90.5t-9 -92.5q0 -21 4 -67q4 -53 7 -55q-8 -15 -8 -39q0 -11 -3 -28h-28q-7 0 -23 14
q13 29 17 141l13 9q-5 9 -5 16q0 21 7 41l-5 10q11 21 11 102q0 48 -5 64l7 16q-4 14 -9 43l-7 5v28l7 11q-1 4 -1 10q0 7 3.5 22.5t3.5 21.5q0 9 -4 13q17 14 11 49l17 7l2 -22q13 -11 34 -37l18 -9v-16l8 6q17 -13 4 -23l19 -10l-2 -17l9 -11q-8 -23 12 -24l-5 -8h10v-4
q-1 -9 3.5 -15.5t12.5 -4.5l1 -33l16 -3l1 -27l19 -22l-1 -19l18 -17l4 -26l18 -9l14 -28h2q20 1 24 -9q1 -5 -1 -28l4 -4l12 -1l5 -21h7q16 21 16 47q0 14 9.5 27t10.5 20q1 12 2.5 23.5t8.5 20.5l-4 19q5 6 37 138l-11 13l10 9l-1 13l12 11l2 25l9 -5l9 10l-8 4
q6 14 23 46q9 0 20 -32q9 -28 9 -40q0 -3 8 -18t8 -24l-11 -16q2 -14 -3 -40l14 -36l-11 -18l7 -14l-2 -31l11 5q5 -79 32 -201q34 -153 68 -173z" />
    <glyph glyph-name="n" unicode="n" horiz-adv-x="603" 
d="M538 -7l8 42l-20 13v0l-1 2l-17 25l18 20q1 12 2 18q3 11 10 16q-2 0 -20 11q10 10 45 33v4q0 1 -17 -2l-8 3l2 6q0 2 -12 17q0 10 6 36q-7 10 -13 31q-6 27 -10 34q17 76 17 122q0 13 17 29l-11 9l9 9l-11 11q12 21 20 34l-8 12q7 26 20 52l-16 13l4 4l-3 -1l-11 4
q7 14 14 20v14l-16 2l-16 -4q-8 -36 -38 -42q2 -18 1 -20q-8 -21 -21 -62q5 -4 11 -16q-1 -1 -6 -8t-5 -11q0 -1 7 -7q0 -8 -1 -15l16 -6q-2 -11 -18 -24l-1 -29l9 -5l-1 -18q3 -11 0 -46l11 -11q-13 -23 -12 -87l-23 -16l-3 -12l-15 -14q-11 0 -52 49q-48 58 -51 61l-5 19
q-12 8 -29 36q-14 23 -43 31l-16 20l1 12q-15 24 -49 65h-12l-7 1q-11 17 -22 27q0 6 1 16q-13 2 -31 12l6 8q-11 5 -37 29q1 5 4 10l-14 5l-29 -13q-19 7 -58 22l-12 -6q12 -11 40 -34l5 -19l20 -8l-2 -12l-5 -6l14 -33l-8 -6l10 -6l-4 -12q1 0 16 -7q-4 -7 -13 -17l2 -12
q-5 -3 -8 -21h7q14 2 16 -16l-9 -20q5 -15 5 -33q0 -39 -17 -62q1 -2 1 -11l-11 -11l11 -9q-15 -26 -39 -80q3 -9 13 -18l-21 -16q7 -11 29 -30q28 10 33 10q8 0 16 -4q13 21 7 36q12 12 12 15l-8 15l4 3l-9 12l6 24l-16 9q12 7 14 11q1 4 0 20l17 14l-10 6q9 7 12 26t11 26
q-5 4 -13 16l14 43l-11 23q17 42 33 42t30 -9q-1 -4 -3 -9q13 -11 59 -58q38 -38 59 -50l2 -16l31 -28l-4 -5h6q9 0 24 -24q16 -27 27 -33l5 -19q29 -14 38 -57l20 -12q-3 -3 -3 -8q0 -11 8 -24q31 -6 51 -37q24 -37 41 -47z" />
    <glyph glyph-name="o" unicode="o" horiz-adv-x="658" 
d="M591 416q-11 -49 -21 -97q-14 -59 -42 -90l-7 3q-4 -35 -24 -30l-2 -13l-22 -25q-18 -4 -49 -23q-34 -21 -49 -26l-6 -13l-13 8l-36 -13l-7 2l-27 -11l-6 3l-16 -11l-6 6l-9 -6l-6 6l-11 -8l-11 13q-8 -7 -27 -19v9l-23 -1l-4 11l-12 -16v9q-18 10 -27 18l-9 -8l-7 8
l-7 -5l-2 19l-5 -3q-15 19 -31 20l-12 21l-15 -3l-3 19l-18 17q-1 4 -1 54l-13 2q-1 6 1.5 16t2.5 14l-8 17l5 12l-3 23q9 12 5 22l11 14q-3 7 -3 17q0 32 19 46v16l18 9l3 -5q7 19 45 54t58 43l8 -2l12 18q25 0 41 16.5t20 16.5q3 0 7 -3l17 30l10 -5l12 3l22 -11l10 2
l35 -19l7 3l15 -8l5 3l8 -11l13 -1l13 -10l13 8l9 -16q13 -2 36 -19l5 3l23 -22l4 3l14 -12l1 -14l3 1q8 0 13.5 -6.5t4.5 -15.5l9 8q3 -30 26 -27l-4 -25q0 -15 20 -13zM541 378q-7 1 -24 33t-16 44l-6 -3l-8 8l-5 -3l-15 16l-2 19l-11 -2q-8 0 -19.5 9.5t-11.5 17.5l-7 -3
q-1 0 -19.5 13t-32.5 15q-5 15 -23 18l-7 -2l-21 10q-6 0 -75 -51l-15 5l-10 -8l-11 6l-29 -19l-4 2l-26 -29l-5 2q-12 -9 -31 -31t-28 -30q2 -2 2 -7q0 -7 -13 -35.5t-13 -38.5q0 -8 11 -19q-8 -7 -6.5 -20.5t-2.5 -18.5l9 -18l-11 -11q6 -1 15 -11l-4 -14q15 -3 18.5 -7.5
t0.5 -19.5l21 -8l2 -14l21 -14l5 5l25 -27l13 6l10 -8l11 10q2 -6 17.5 -11t19.5 -13q7 8 17 11l19 -8q32 10 85 22q9 8 29 21l10 -5l18 24l6 -3q11 0 24 17q19 25 20 26l8 2q14 15 28 31q9 12 15 41l5 -3q11 1 20 36q7 27 7 45z" />
    <glyph glyph-name="p" unicode="p" horiz-adv-x="644" 
d="M593 497q-2 -5 -3 -31q-1 -19 -11 -28l-1 11q-9 -2 -13 -19l-6 -26l-7 6l-11 -9l-5 3l-16 -17l-4 3l-9 -11l-12 6l-31 -23l-7 3l-41 -25l-8 8l-7 -8l-22 -1q-18 -16 -84 -32q-76 -19 -96 -29l-8 3l-15 -9l-4 3l-16 -10h-5q-18 1 -28 -11q7 -23 15 -77q10 -59 8 -74l11 -3
l-7 -23l9 -2v-10l-11 -15l-36 19l5 36l-7 8q3 72 -23 137h-6q-19 -15 -65 -34l-8 13q0 31 70 33l11 6q-5 12 -3 31q4 29 4 32l-9 24q-1 12 4 37q1 3 -3 6q-5 2 -5 -2q-1 4 -5 38q-4 31 -4 44q0 9 2 11l-9 6q4 14 11 46l-10 21l-11 -3l-29 14l-6 -3l-14 10l22 21l11 -6
q17 9 19 20h8l-2 -15l4 -2l8 11l19 -5l8 8q8 -2 26 -4l7 -7l14 3l10 -8q11 2 28 -4q23 -8 28 -9l11 -13l12 6l39 -9l13 6l12 -11l14 1q22 0 64 -5.5t63 -5.5l21 -10l14 3l41 -9l12 6l28 -14l14 8q0 -16 13 -26l1 -22zM526 500q-1 7 -81 25l-8 -3q-11 12 -112.5 17.5
t-106.5 13.5q-7 -4 -21 -11l-8 11l-24 -14q-19 0 -37 11l-17 -11l-3 -28q13 -21 13 -35q0 -10 -4.5 -29t-4.5 -29q0 -19 6.5 -61.5t5.5 -63.5l7 -12q20 4 54 14q41 13 48 21q12 1 26 7l6 -3q20 17 53 26l7 10q21 8 65 21q3 6 9 16l11 -6l31 20l5 -3q33 38 43 38q20 15 23 29
q6 19 14 29z" />
    <glyph glyph-name="q" unicode="q" horiz-adv-x="791" 
d="M734 351v-3l11 -31q-12 -51 -12 -52q0 -7 2 -11l-17 -15l3 -7q-4 -41 -69 -85q-51 -30 -102 -59q16 -38 72 -90q1 -5 31 -32l9 12q-1 -8 3 -19q5 -15 6 -19q-8 -23 -16 -38l-18 20q-33 11 -29 38v1q-5 6 -12 -5l-7 31l-14 4q-16 40 -62 86q-34 -9 -101 -25l-18 8
q-3 0 -6 -4l-16 -1l-14 -11q-15 20 -108 14q-8 6 -68 6l6 8l-11 5l-16 -3q-17 18 -42 18l-12 16l-6 -6q-13 13 -19 18q-11 7 -24 9q-11 21 -20 29l-9 -2l-4 34l-20 -4q-8 13 -5 65q3 2 14.5 34.5t11.5 35.5l70 90q42 53 86 76l1 10l22 4l7 8l5 -3l15 14l5 -3q51 27 107 59
l9 -2l25 14l5 -4l1 1l10 15l17 -7l36 17l32 -11l13 14l13 -12l10 6q15 -7 38 -27q-14 -8 -40 -17l-10 3l-20 -14q-8 7 -15 -5h-11l1 8h-1l-19 -12q-13 7 -23 6l-25 -19l-11 10l-8 -13q-5 2 -14 5q-98 -26 -201 -105q-119 -91 -119 -175q7 -4 10 -16q4 -15 6 -18
q9 -15 37 -39.5t38 -39.5l14 8l19 -28q8 1 24 6l7 -17l23 5l9 -11l14 6l7 -10l7 4q15 -14 42 -6q9 -11 62 -17q7 9 30 9q33 -1 34 0q9 1 15 5l18 -5q16 2 42 14v11q-12 4 -34 14l4 13l-10 6q3 4 0 6t-7 1q0 20 -15.5 48t-14.5 42q1 3 11 5l32 -31l10 2q16 -24 33 -48
q22 -35 23 -49l16 -9l14 15l23 2l31 31l7 -6l16 21t29 22q10 11 15.5 37.5t13.5 37.5l-1 31l5 6q1 9 4.5 30.5t3.5 32.5q0 28 -12 77l-2 9l-5 -3l-32 31l-10 -2q1 8 -8 13.5t-17 10.5h-6q-30 -1 -30 12l10 37q8 5 8.5 8t3.5 7h5l4 -16l5 3l23 -16l5 5q16 -6 34.5 -22
t28.5 -22l-1 -14l2 -4q3 1 7 2q23 -97 23 -132q0 -20 -4 -36q0 19 -2 30z" />
    <glyph glyph-name="r" unicode="r" horiz-adv-x="657" 
d="M617 447q0 -20 -43 -61l-8 -1q-15 -14 -49 -32.5t-46 -31.5l-14 6q-21 -17 -27 -28l-9 7l-26 1q-7 0 -54.5 -14t-55.5 -19v-10l19 -8l4 -12l16 -5l1 -11q2 -3 21 -36q12 -22 23 -18v-5q-1 -21 24.5 -74.5t42.5 -69.5l2 -8q11 -15 37 -40v-2q-1 -16 19.5 -32.5t37.5 -18.5
v-17l20 -5l-30 -33q-30 51 -101 139q-79 100 -115 123l1 14q1 14 -7 19l-14 -6l-4 32l-13 9q-3 26 -20 74q-38 -6 -58 -17l-8 3l-27 -11l-10 8l-19 -8q-3 2 -7 2q-6 0 -5 -4q-1 -10 0 -42.5t0 -49.5q-2 -26 -7 -41l8 -9l4 -32l-16 -18l-15 4q-9 18 -22 25l-1 8q14 16 14 40
q0 8 1.5 29.5t1.5 32.5q0 57 -32 62l-4 7l36 55l-11 23l-20 5l23 6v47l-11 5q11 31 11 34q0 11 -11 8v23q0 -1 9 18.5t7 32.5l-12 4l-10 -3q-30 9 -68 30l19 15l18 -5l25 11l10 -8l33 6l9 8q15 -14 37 -14q16 0 31 8l9 -17l45 3q23 1 64 -8q32 -7 64 -15l11 6q16 -10 56 -17
q48 -9 61 -14l10 3q25 0 56 -20l10 3l11 -8l6 3l6 -8l20 -5zM561 458q-102 46 -175 46l-12 9l-62 2q-48 3 -56 8q-4 0 -10 -2.5t-10 -2.5q-3 0 -8 4t-9 4q-11 0 -34.5 -5.5t-35.5 -5.5q-3 0 -6.5 2.5t-6.5 2.5l-16 -3q3 -7 4 -25.5t10 -26.5v-78q0 -2 -11 -14q2 -10 2 -19
q0 -6 -4 -16.5t-4 -13.5q0 -6 1.5 -17t1.5 -17q5 3 12 3q6 0 17 -4.5t16 -4.5q10 0 32.5 7t33.5 7q9 0 19 -5l9 10q6 1 20 4q10 3 18.5 3t23.5 7t25 7q5 0 61 33.5t61 33.5q3 0 3 -1.5t3 -1.5q14 11 38 34l8 -5q16 13 41 41z" />
    <glyph glyph-name="s" unicode="s" horiz-adv-x="723" 
d="M670 159l-38 -39l-3 5q-10 -9 -37 -25q-7 4 -12 4q-14 0 -32 -22l-8 19l-26 -16l-5 6l-15 -16l-14 8l-24 -4l-10 7q-29 0 -37 -11l-29 3l-23 -10l1 13q-25 -16 -72 -18q11 0 -76 0q-14 0 -42 -6t-41 -6q-7 0 -18 5t-18 5q-28 0 -77 -14q-53 -15 -79 -16l-15 14l37 30
l16 -11q2 3 6 3q5 1 7 -3l158 20l4 -3l80 4q46 4 78 13l12 -8l28 14l9 -10q27 17 69 17q19 0 74 19l5 -3l7 5h12l22 14l3 -6l69 46l8 -9l6 6l4 20l-10 3q-25 40 -95 40q-10 0 -28 8t-30 8l-14 13q-40 1 -116 20q-86 22 -119 26l-24 -14l-11 13l-15 -5q-33 0 -41 7l-22 -4
l-6 14q-6 -3 -21 -4q-8 0 -16 -11l4 22l-4 5l-8 -7q-3 11 -20 15q4 44 -2 44q-2 0 -4 -4q14 13 33 35l14 7l7 -6q10 11 52 30q30 13 61 26l6 -3q62 13 81 36l4 -4l14 1q4 8 30 16t30 25h19l11 6l4 -6l27 27l-3 -15q27 17 87 21l11 -8q-10 -13 -29 -28l-9 7l-14 -18
q-15 -3 -46 -19l-6 6l-28 -21l-6 3l-19 -12l-4 3l-14 -8l-4 3q-25 5 -62 -21l-6 7q-44 -20 -92 -45l-5 4q-20 -11 -59 -35l-4 -11l5 -13l28 14l-3 -22l6 -5l15 8l5 -9q11 3 32 5l7 -9q37 -8 41 -9q17 -6 36 -23l11 5q17 0 33 -13l22 1q10 1 34.5 -10t37.5 -8l9 -9l14 2
q14 0 57 -12l6 -9l13 6l8 -10l80 -14l1 -11l25 -2q19 -30 36 -41q0 -3 -3 -13t-3 -15q0 -8 6 -11z" />
    <glyph glyph-name="t" unicode="t" horiz-adv-x="673" 
d="M627 566q-18 -14 -74 -14q-30 0 -83 4.5t-65 4.5q-23 0 -23 -20l13 -49l-11 -34l11 -2q0 -15 -5.5 -33t-5.5 -28q0 -11 5 -23q-33 -96 -33 -199q0 -6 4 -26q4 -16 1 -28l7 -11l-2 -20q0 -19 10 -34l-1 -10l10 -14l-17 -58l-10 -8h-7l-8 17l-21 9l12 25l-6 9q1 13 9 63
q6 37 6 64v150l-7 34l4 13l-10 4l-5 26q10 15 10 25q0 6 -5 9v79q0 14 10 32q14 26 16 30l-4 5q-12 -5 -34.5 -2.5t-31.5 -3.5l-12 6l-61 -21l-19 10l-35 -10l-34 13l-5 -8l-6 5l-25 -13l-21 12l-26 -1q-12 0 -36.5 3.5t-37.5 3.5l-3 10l8 16q23 -1 49 16l19 -5q25 10 38 21
l5 -11l24 13l16 -6l-5 -15l8 -5l8 14l32 15l5 -18l12 5l16 -11l14 13q21 -8 29 -18l7 11q9 -11 41 -13l14 5l8 -5q31 4 81 1q67 -4 80 -4q10 0 27.5 6.5t28.5 6.5l17 -10l-1 1q0 3 18 5q11 0 31.5 -4t27.5 -5l4 -3v-12z" />
    <glyph glyph-name="u" unicode="u" horiz-adv-x="442" 
d="M411 607q-15 -36 -27 -95l3 -10l-6 -16q5 -7 5 -25q0 -35 -11 -61l11 -15q-2 -32 -27 -94l19 -5q-8 -11 -25 -32v-16q-8 -11 -15 -27q-11 -27 -11 -28l-13 -3l-4 -4l5 -8q-9 -7 -39 -32l-9 2q-12 -5 -21 -10l-5 8l-24 -18l-19 5l-21 -8l-8 3l-8 -8q-1 0 -14 21l-23 -16
q-16 4 -25 3q-4 16 -9 26l-10 -10h-15l-5 12l-21 4l8 11l-15 20v13l-11 16l1 11q-2 10 -1 28q-5 14 -7 35q-2 32 -3 36l6 12q-9 8 -9 17q0 3 2 11.5t2 13.5q0 18 -15 40l11 16l-13 14l5 6l-16 15l24 13q-10 10 -26 18l14 17q4 20 14 40q14 26 30 26l9 -1q10 -10 10 -17
l-7 -9v-16l13 -5l-10 -17l4 -20l-7 -10l15 1l-6 -10l-7 2l-5 -4l18 -4l-12 -19l10 -4q-13 -18 -16 -67q9 -15 9 -57q0 -22 15 -28l-5 -16l12 -2q-5 -18 -2 -30l-4 -2l4 -2l-2 -13l18 -13q-6 -7 -6 -14q0 -9 18 -30l19 13l13 -7l7 2l22 -8q32 12 40 6q3 8 18 7l-4 10
q21 7 39.5 26.5t24.5 40.5l14 9q3 13 7 27t14 22q1 22 6 66l9 -3l2 2l-4 30q12 17 5 53l10 19l-3 10l7 13v67q-25 25 -26 23q5 19 11.5 23.5t25.5 4.5q14 0 25 -3l-3 -18q6 -2 26 0z" />
    <glyph glyph-name="v" unicode="v" horiz-adv-x="597" 
d="M561 630l-20 -7q-4 -8 -34 -96t-30 -90l-15 -13q-3 -15 -15 -28l-4 -37q-15 -12 -35 -50.5t-24 -40.5l1 -25q-14 -26 -45 -76l1 -9l-15 -12l8 -9q0 -13 -22.5 -27.5t-26.5 -23.5q1 -14 -1 -37q-2 -5 -21 -10q-25 -6 -26 -6q-10 23 -27 27q0 3 -4 36l-9 8l1 16
q-19 22 -61 133q-40 103 -68 124l1 11q-13 10 -22 33t-23 29l2 19q0 22 -18 22q-4 0 -8 -2l2 17q-3 10 -5 33l-13 9l16 6l2 5q1 21 -13 33l21 9q18 -14 29 -25l-5 -14l9 -11l11 3q20 -29 12 -58l14 -16l-1 -3q0 -8 3.5 -14t10.5 -6l-5 -12l20 -28q0 -20 57 -148
q60 -136 66 -162l10 -6h10l3 4l-4 8l10 10l-10 10q24 20 45 50l-3 2q11 9 25 31t23 30l-1 13q21 14 45.5 58.5t25.5 70.5q29 18 23 66q15 9 29 52q17 49 28 63v30l-11 3l13 14v9l-9 2l-1 22l-8 13l28 30l-2 -18l40 8l15 -6q-7 -12 5 -46z" />
    <glyph glyph-name="w" unicode="w" horiz-adv-x="721" 
d="M714 692l-9 -27l5 -10q-9 -31 -35 -58l-4 -23l-14 -9l3 -8q0 -10 -9 -12l5 -4q-33 -44 -37 -85l-12 -8l-14 -44q-4 -2 -24.5 -47.5t-22.5 -53.5q-4 -3 -28 -60.5t-24 -64.5l-9 -8l6 -19l-4 -26q-29 -6 -29 -18q0 -6 8 -12l2 -18q-31 -20 -87 -23q-7 7 -8.5 29.5
t-9.5 34.5q2 3 2 9q0 7 -7 25t-7 26t5 13l-2 19l-9 7q-2 28 -3 56q-2 33 -16 52h-6q-19 -33 -18 -42l14 5q-13 -22 -24 -33l-6 -23l14 -10q-20 -9 -20 -47q0 -11 -19 -39l7 -12q-28 -47 -27 -47h-3q-2 1 -5 1q-13 0 -39 -11q-2 2 -85 189l-10 4l5 12q-9 7 -13 21
q-7 19 -8 22q-9 6 -22 29l1 13l-19 21l3 7l-12 8l5 9q-16 8 -16 20q0 5 3 9l-13 4l3 21l-21 6q11 6 3 26q7 45 5 58l25 8l1 -24l22 -18v-12l8 -3l16 7l-15 -14l9 -12l-1 -23q2 -3 6 -4t6 2l1 -19l4 -5l16 8q-6 -5 -13 -10.5t-7 -14.5q0 -5 11 -22t9 -37q12 -8 14 -35t13 -32
q5 -33 24 -67q1 -3 38 -60l7 -1l17 7l-6 8q6 5 9 19.5t18 22.5q-5 4 -5 10q0 7 9 16.5t10 12.5l-3 9q0 1 6 25q4 15 17 16l-6 13h11q-1 22 10 45t21 45l-11 12l19 25l-17 -4l40 44l9 -5l9 5l24 -19l-5 -9l10 -12l-3 -12l10 5l6 -6l-18 -19l10 -5q-10 -6 -10 -18q1 28 1 -22
l-12 -20l10 -7q0 -1 1 -52l7 -8l-4 -23l9 -9q-2 -4 -2 -10l12 -36l-3 -16l2 -26l9 -9q18 7 28 50q16 12 35.5 44t21.5 51q20 23 33 31q4 17 11 50l15 8l-1 6q10 12 97 228l-7 12l12 17v7l11 8l-1 18l20 21l5 1z" />
    <glyph glyph-name="x" unicode="x" horiz-adv-x="592" 
d="M550 58l-13 -17h-19l-26 11l3 17l-10 5q-9 32 -85 113.5t-83 105.5q-19 9 -25 26q-4 13 -13 13q-11 0 -35 -35q-16 -23 -31 -45q-21 -18 -58 -58q-1 -1 -23 -39q-17 -28 -17 -21v0q-5 0 -11 -9q-17 -28 -41 -48l1 -18q-5 -3 -21 -20q-11 -12 -24 -12l-25 5l-3 7
q10 20 18 29l-1 11q12 7 36 24l4 13q10 4 20.5 9t7.5 17q5 5 15 10v-1q4 0 24 31q11 17 23 35q11 14 65 66q43 42 59 71l-20 9l-2 17q7 3 7 6q0 6 -13.5 9.5t-20.5 3.5q-2 12 -18.5 32t-17.5 33l-22 5l-9 -5l3 9q0 21 -26 25q-10 26 -21 52q-11 32 -11 53l9 3q71 -47 80 -63
l8 -1l-1 -9l-7 -5l8 -9l21 2q6 -16 13 -33.5t23 -24.5q6 -9 12 -30q5 -15 22 -32l-2 -11q0 -11 7 -13q17 10 53 63t39 71l9 -8l16 18l2 11q28 15 52 60q18 1 75 40h15q-12 -16 -6 -25l-20 -16l-11 -26l2 -14h-13l11 -13l-4 1q-15 0 -33 -21q-14 -16 -27 -32l-80 -60
q-60 -47 -60 -68q0 -10 14.5 -18.5t16.5 -14t33.5 -50t33.5 -45.5q5 -11 55 -65.5t57 -56.5q0 -11 18 -24.5t18 -25.5z" />
    <glyph glyph-name="y" unicode="y" horiz-adv-x="454" 
d="M408 641q-12 -26 -14 -33q-5 -16 -6 -37q-16 -18 -37 -51q-24 -40 -25 -55q-30 -40 -53 -94q-20 -4 -21 -23q-3 -31 -4 -33q-9 -11 -32 -30l15 -10l-2 -25l6 -8q-2 -28 -13 -82l12 -10v-20l-10 -12v-4l10 6l2 -16l-7 -14q0 -22 21 -22q-9 -18 -57 -26l-22 19v13l12 12
q-2 9 -21 11l15 13l-12 5v16q0 31 15 47l-12 24q8 25 12 79l-12 20l6 12q0 2 -38 52q-41 53 -46 61l1 7q-9 14 -18.5 28t-24.5 22q-6 16 -11.5 32.5t-19.5 24.5q-4 15 -16 46l11 16q-4 9 -4 21l3 19h13q7 -9 14 -31l16 -9l6 -22q4 -14 14 -14l-3 -8l3 -28q10 -7 33 -48
q21 -37 28 -56l11 -2v-5q-1 -10 25 -37q17 -19 35 -37q16 20 33 39q20 24 21 44l12 13l-4 6q11 -1 15 12q3 10 1 22q10 10 21 43q14 45 15 48q12 8 12 17q0 4 -3 7q31 19 64 53h11z" />
    <glyph glyph-name="z" unicode="z" horiz-adv-x="609" 
d="M526 41q-26 5 -36 9q-17 7 -29 21l-8 -3l-24 17l-12 -7q-15 4 -104 12l-11 -5l-25 10l-25 -10l-16 20q-14 -10 -23 -20h-11l-10 13l-19 -17l-21 17l-19 -20l-4 20l-37 -17l-16 4l-31 -24l-17 27l-14 -3l5 21l-11 -1q4 20 -7 30l8 12q2 31 19 48q25 23 31 36l7 4l10 -7
q9 11 18 30l6 -3l3 6q18 28 62 61q51 38 67 57l7 -4q11 13 36 34q6 15 23.5 34t23.5 29l3 -20q12 12 8 28l19 -5q10 0 19 18q8 13 15 26l3 -14q31 28 31 48l-6 6l-26 -10l-18 10l-9 -7l-26 10l-32 -16l-27 10q-10 -12 -15 -24l-6 7l-11 -7l-18 14l-12 -7q-32 -1 -41 13
l-11 -6l-11 6l-7 -3l-18 22q0 13 33 31l8 -10q13 16 43 44l-1 -24l12 24l19 -20q9 7 21 20q27 -10 39 -20l18 13l35 -17l18 10l5 -20q23 6 27 21l-1 -5q0 -13 15 -19l27 13l22 -10q16 13 25 24l16 -10l6 3l12 -12q1 -18 10 -63q-5 -15 -20.5 -33t-19.5 -29l-19 13
q-12 -6 -11 -29l-14 -3l-8 22l-29 -52l-20 -11l-6 7q-16 -17 -42 -54l-10 20q-5 -7 -37 -31q-28 -21 -28 -25l-7 3l-24 -11l-10 -15q-14 -8 -43 -24q-4 -23 -76 -95q22 -10 56 -33q15 2 25 10l25 -3q10 -12 36 -16l21 16q0 -15 22 -29l9 3q21 -5 36 -23l12 3q14 0 97.5 -23
t89.5 -27l12 3l31 -12q3 -10 3 -17q0 -29 -38 -28h-2z" />
    <glyph glyph-name="braceleft" unicode="{" horiz-adv-x="261" 
d="M137 615q2 -13 3 -26q3 -26 3 -41q0 -19 -4 -23q7 -38 -7 -76.5t-24 -54.5q-20 -33 -52 -44q82 -60 78 -96q-2 -18 6 -60q6 -31 1 -71q-1 -31 -10 -98q2 -5 11 -18q1 -19 -2 -41q7 -15 32.5 -32t51.5 -17q-1 -2 0 -16q0 -11 -6 -13q-28 8 -69 15q-26 -2 -45 27
q-18 26 -18 56q0 6 1 12q4 18 1 87l-6 101q13 10 12 19q-1 18 -9 34q3 7 0 14q1 3 1 5q0 16 -45 52.5t-42 44.5q42 37 78 75q5 10 10 27q-1 10 0.5 31.5t1.5 26t3.5 22t3.5 25.5q0 14 -10 15q1 35 -1 72q4 6 4 10q0 3 -3.5 7t-3.5 7q0 5 2.5 11t6.5 26q0 26 32 49
q80 20 88 20q5 0 6 -2l1 -27q0 -3 -38 -17.5t-37 -42.5q-3 -33 -6 -75z" />
    <glyph glyph-name="bar" unicode="|" horiz-adv-x="213" 
d="M114 574q-1 -14 -2 -37q-1 -9 -4 -12q3 -25 3 -40q0 -57 -12 -136q-2 -12 2 -60q5 -55 5 -63q0 -5 -3.5 -55.5t-3.5 -75.5q0 -27 4 -31l-3 -46q3 -8 1 -27q-3 -28 -3 -32q0 -12 5 -19q-7 -5 -43 -5l-11 7l-15 -10l13 28q0 4 4 16.5t4 17.5t-4 7q16 63 11 193l-3 95l3 61
q-1 11 0 12q2 1 4.5 1.5t2.5 11.5q0 6 -3.5 18.5t-3.5 18.5q0 5 1 9l-4 38q7 18 6 35q-2 48 -2 37q0 4 2.5 10t2.5 7q0 3 -6 3l-3 23q6 9 6 19q0 4 -1 12t-1 11q0 11 5 19l-9 32q11 14 11 21q-3 13 -5 25q3 4 11 6.5t11 5.5q22 -20 22 -31q0 -2 -1 -11.5t-1 -17.5
q0 -12 8 -21q-4 -45 -4 -42t-2 -14q0 -5 5 -14z" />
    <glyph glyph-name="braceright" unicode="}" horiz-adv-x="261" 
d="M86 615q-1 -13 -3 -26q-2 -26 -2 -41q0 -19 3 -23q-7 -38 7.5 -76.5t23.5 -54.5q20 -33 52 -44q-81 -60 -78 -96q2 -18 -6 -60q-5 -31 -1 -71q1 -31 10 -98q-1 -5 -11 -18q0 -19 2 -41q-7 -15 -31 -31q-27 -18 -53 -18q1 -2 0.5 -14.5t5.5 -14.5q28 8 70 15q25 -2 44 27
q18 26 18 56q0 6 -1 12q-3 18 0 87l5 101q-12 10 -12 19q1 18 9 34q-2 7 1 14q-1 3 -1 5q0 16 45 52.5t42 44.5q-43 37 -78 75q-6 10 -11 27q1 10 0 31q-2 22 -1.5 26.5t-3.5 22t-4 25.5q0 14 11 15q-2 35 0 72q-3 6 -3 10q0 3 3.5 7t3.5 7q0 5 -3 11t-7 26q0 26 -31 49
q-81 20 -88 20q-6 0 -6 -2l-2 -27q0 -3 38.5 -17.5t36.5 -42.5q3 -33 6 -75z" />
    <glyph glyph-name="asciitilde" unicode="~" horiz-adv-x="349" 
d="M9 752l-1 1q-1 -10 5 -15l6 7l-8 1q9 -16 31 -10l24 25l-13 3l3 -6q-1 0 -1 -1h-1q4 0 13 5l3 8l17 14l-5 1l6 2l21 -1v1q7 1 14 0q3 -1 2 -4q9 -3 14 -11l16 -3q2 -4 8 -9l2 -2q3 -3 5 -8l9 -3q1 -2 3 -4l1 -6l7 -2l12 -6q4 0 9 -2q6 -9 40 -9q10 0 21 5l23 8q6 3 16 12
q14 12 12 18q5 2 7 4q19 19 20 36q1 14 -16 16q-8 1 -26 -2l-1 -11q-1 -1 -11 -18h-7l-1 -8l-29 -7l16 -4q-5 -1 -35 -8l6 -1h-4l-7 1q-3 3 -9 6.5t-15 6.5q-2 2 -5 5.5t-12 8.5l-2 1l19 7l-39 8l-9 10h-4l-1 2q-4 1 -13 3l-4 2q-9 5 -42 9q-17 -6 -32.5 -12t-30.5 -21
q-15 -1 -9 -13q-6 1 -9 -3q-4 -4 0 -13q-5 -4 -9 -9v-5z" />
    <glyph glyph-name="Adieresis" unicode="&#xc4;" horiz-adv-x="856" 
d="M863 172.5q-14 -3.5 -19 -3.5t-53 5t-53 5q-18 0 -21 -26q0 -11 12 -28t27 -17q5 0 10 2q3 -8 6 -36q6 -11 21 -34q6 -3 18 -10q2 -3 2 -18q7 -2 16 -4t9 -7q0 -10 -9 -16.5t-16 -6.5q-5 0 -21.5 4t-23.5 4q-15 9 -23 45q-16 7 -43 28q-3 7 -13 19q-8 0 -25 2
q-1 1 -17 42q-10 25 -41 27l-6.5 19.5t-9.5 10.5q-5 0 -10.5 -5.5t-9.5 -6.5q-11 -5 -26 -5q-5 0 -25 3.5t-25 3.5t-22.5 -8.5t-23.5 -8.5q-4 0 -13 3.5t-14 3.5q-2 0 -30.5 -1t-45.5 -1q-9 0 -27 -7q-29 -11 -33 -12q-2 2 -6 7t-6 7q-19 -11 -39 -40q-13 -21 -27 -43
q-8 -4 -23 -14q-3 -10 -15 -28q-41 -36 -118 -104q-28 -25 -57 -66q-8 -12 -25 -20q-13 -6 -13 -12q0 -2 1 -5q-48 -22 -54 -22q-4 0 -22 1.5t-28 1.5l-6 -3v33q26 11 71 33q17 10 125 106q12 1 24 11q16 14 21 17q0 2 -8 10q14 9 44 35q18 19 50 56q2 9 7 24q6 10 32 24
q0 7 -7 10q-12 2 -37 2q-5 0 -19 -6.5t-19 -7.5q-22 21 -33 21q-3 0 -16 -3.5t-19 -3.5t-48 9q-51 12 -68 15q-8 7 0 20q1 1 35 1q24 0 99 16l46 4q32 3 47 14q1 -17 35 -17q40 0 54 12q21 19 42 39q-1 1 -7 8t-6 12q0 4 21 35q24 36 30 49q6 2 14 7q5 33 4 38q3 5 15 12.5
t15 12.5q25 46 25 75q0 8 -2 14q1 5 23 19q1 5 2 16q24 9 45.5 49.5t51.5 49.5q14 -5 14 -18q0 -10 -8 -18q13 -13 29 -10q-10 -18 -10 -39q0 -19 14 -19q8 0 12 3q0 -4 -6.5 -14.5t-6.5 -16.5t4 -10q3 2 11 2q8 -1 11 -3q0 -2 -4 -1.5t-4 -4.5v-22q5 -3 28 -3l5 -4v-13
q-29 -15 -29 -21q0 -5 4 -8.5t7 -6.5q1 -5 -1 -17.5t-2 -16.5q-3 -3 7 -3q5 0 13.5 5t12.5 5q-4 -11 -12 -33.5t-12 -32.5q18 -7 23 -14q-1 -17 9 -44q-12 -30 -12 -29q0 -10 11 -10q6 0 9 2t5 2q5 -1 5 -9q0 -4 -7.5 -11t-9.5 -9q4 -4 19 0q7 -3 7 -17q13 -6 39 -12
q65 -5 100 -5q4 0 29.5 3.5t30.5 3.5q20 0 32 -7q8 1 13 1q16 0 -5 -9t-27.5 -9t-20.5 -3.5zM579 224q-8 3 -8 9q0 2 2 11q2 7 0 11q-8 3 -22 13q1 14 0 35q-25 -2 -25 24q0 7 1.5 21t1.5 21q0 13 -5 20q-25 8 -39 78l-28 -64q-26 -52 -64 -80q0 -3 -10 -23q-11 -11 -26 -40
q-13 -25 -26 -35q14 -11 32 -11q5 0 25 3.5t25 3.5q6 0 15 -3.5t12 -3.5q39 0 116 -1q7 -3 18 -9zM359 762q0 19 16.5 33t39.5 14q24 0 40.5 -14t16.5 -33q0 -20 -16.5 -33.5t-40.5 -13.5q-23 0 -39.5 13.5t-16.5 33.5zM575 760q0 20 18 34.5t43 14.5t43 -14.5t18 -34.5
t-18 -34.5t-43 -14.5t-43 14.5t-18 34.5z" />
    <glyph glyph-name="Aring" unicode="&#xc5;" horiz-adv-x="803" 
d="M542 782q0 -29 -22.5 -48t-52.5 -19t-52.5 19t-22.5 48t22.5 48t52.5 19t52.5 -19t22.5 -48zM856 207q9 1 13 1q16 0 -5 -9t-27.5 -9t-20 -3.5t-19.5 -3.5q-5 0 -53 5t-53 5q-18 0 -21 -26q0 -11 12 -28t27 -17q5 0 10 2q3 -8 6 -36q7 -11 21 -34q6 -3 18 -10q2 -3 2 -18
q8 -2 16.5 -4t8.5 -7q0 -10 -8.5 -16.5t-16.5 -6.5q-5 0 -21.5 4t-22.5 4q-16 9 -24 45q-16 7 -43 28q-2 7 -13 19q-8 0 -25 2q-1 1 -17 42q-10 25 -40 27q-4 9 -7.5 19.5t-9.5 10.5q-5 0 -10.5 -5.5t-9.5 -6.5q-11 -5 -26 -5q-5 0 -24.5 3.5t-25.5 3.5q-5 0 -22.5 -8.5
t-22.5 -8.5t-14 3.5t-14 3.5q-2 0 -30.5 -1t-45.5 -1q-8 0 -27 -7q-28 -11 -32 -12q-2 2 -6.5 7t-6.5 7q-19 -11 -39 -40q-13 -21 -27 -43q-8 -4 -23 -14q-3 -10 -15 -28q-41 -36 -118 -104q-28 -25 -56 -66q-9 -12 -26 -20q-13 -6 -13 -12q0 -2 1 -6q-47 -21 -54 -21
q-4 0 -22 1.5t-27 1.5l-7 -3v33q26 11 71 33q17 10 125 106q13 1 24 11q17 14 21 17q0 2 -8 10q15 9 45 35q17 19 49 56q2 9 7 24q6 10 32 24q0 7 -7 10q-11 2 -37 2q-5 0 -17 -6q-16 -7 -21 -8q-22 21 -32 21q-4 0 -17 -3.5t-19 -3.5q-5 0 -47 9q-52 12 -68 15q-9 7 -1 20
q1 1 35 1q25 0 99 16l46 4q33 3 47 14q1 -17 35 -17q40 0 54 12q21 19 42 39q-1 1 -7 8t-6 12q0 4 21 35q24 35 31 49q5 2 14 7q5 33 5.5 38t12.5 12.5t15 12.5q26 46 26 75q0 8 -3 14q1 5 23 19q1 5 3 16q23 9 45 49.5t51 49.5q15 -5 15 -18q0 -10 -9 -18q13 -13 29 -10
q-10 -18 -10 -39q0 -19 15 -19q7 0 11 3q0 -4 -6 -14.5t-6 -17.5q0 -5 3 -9q3 2 11 2q8 -1 11 -3q0 -2 -4 -1.5t-4 -4.5v-22q6 -3 28 -3l5 -4v-13q-29 -15 -29 -21q0 -5 4 -8.5t7 -6.5q1 -5 -1 -17.5t-2 -16.5q-3 -3 7 -3q5 0 14 5t13 5q-4 -11 -12.5 -33.5t-12.5 -32.5
q18 -7 23 -14q-1 -17 9 -44q-12 -30 -12 -29q0 -10 11 -10q6 0 9.5 2t4.5 2q5 -1 5 -9q0 -4 -7.5 -11t-9.5 -9q4 -4 19 0q7 -3 7 -17q13 -6 39 -12q66 -5 100 -5q4 0 29.5 3.5t30.5 3.5q20 0 32 -7zM533 238q-8 3 -8 9q0 2 1.5 10t0.5 12q-9 3 -22 13q1 14 -1 35
q-25 -2 -25 24q0 7 1.5 21t1.5 20q0 14 -5 21q-25 8 -39 78q-13 -32 -27 -64q-27 -52 -64 -80q-1 -4 -11 -23q-11 -11 -26 -40q-13 -25 -25 -35q13 -11 31 -11q5 0 25 3.5t25 3.5q6 0 15 -3.5t13 -3.5q39 0 116 -1q6 -3 17 -9zM467 814q-17 0 -28.5 -9.5t-11.5 -22.5
q0 -12 11.5 -22t28.5 -10q18 0 29 10t11 22q0 13 -11 22.5t-29 9.5z" />
    <glyph glyph-name="Ccedilla" unicode="&#xc7;" horiz-adv-x="1091" 
d="M701 -187q-43 -30 -49 -30h-62q-5 0 -24.5 -2.5t-20.5 -2.5q-3 0 -27 10.5t-28 13.5q-13 11 -13 22q0 2 13 16q39 -27 42 -27h36q33 8 52 6q12 -2 13 14q-1 -8 -1 18q0 2 4 19q-23 19 -23 21t-13 8.5t-13 8t-19 5t-23 3.5q-3 0 -26 -8q3 16 3 19q0 8 -13 8q-3 0 27 48
l-9 18q1 4 5 17q-21 1 -43 3q-6 1 -21 7t-21 6q-4 0 -8.5 -3.5t-9.5 -3.5q-6 0 -22.5 10.5t-21.5 10.5t-8.5 -1.5t-8.5 -1.5q-4 0 -30 8q-30 9 -40 11t-27 2q0 11 -4 17q-6 -2 -16.5 -9t-16.5 -8q-2 2 -3 20q-1 11 -15 11l-36 -7q-2 6 -21 31q-3 0 -11 -7q-18 8 -52 22
q0 2 2 8t2 8q0 4 -5 4t-4 -2t-4 -2q-4 0 -18 14q-18 16 -22 18q-1 6 -3 15l-27 28q-2 5 0 11q-3 11 -3 18q0 6 3 9t3 8v12q-12 6 -28 0v25q0 4 23 30q26 30 32 41q67 31 62 69q7 8 11 8t10 -2t11 -2q15 0 31.5 26.5t22.5 26.5q5 0 5 -2t6 -2t8 2t3 2q4 7 17 19q4 2 33 12
q1 1 5 13q14 5 17 17q1 -18 -2 -28q-4 -2 6 -2q5 0 25 22.5t25 22.5t6 -2t7 -2q11 0 11 14q1 0 9 -3.5t13 -3.5q6 0 8.5 4.5t3.5 4.5q30 7 112 35q24 8 45 8q5 0 9 -1.5t9 -1.5q39 0 83 11q7 2 23 9.5t21 7.5q4 0 10 -2t11 -2q6 0 31 9t30 9t5 -3.5t5 -3.5t8.5 3.5t8.5 3.5
t9 -3.5t10 -3.5q5 0 8 3.5t8 3.5t6 -2t7 -2q4 0 13.5 5.5t15.5 5.5q3 0 13 -7q-1 1 33 2q23 1 39 -7v-12q-28 -25 -46 -25q-5 0 -7 3.5t-7 3.5q-6 0 -28 -13q-29 -19 -35 -22q-2 9 -9 25q-13 -5 -18.5 -14.5t-9.5 -17.5q-2 2 -6.5 7t-6.5 7q-8 -7 -16 -7q4 0 -21 7
q-11 -4 -11 -17q-4 0 -12.5 -2t-14.5 -2q-4 0 -14.5 9t-16.5 9q-5 0 -13.5 -6t-12.5 -7q-70 -19 -91 -19q-13 0 -22 7q-6 -8 -17 -27l-13 10q-2 0 -6.5 -5t-9.5 -5q-8 0 -17 7q-17 -19 -44 -25q-36 -10 -51 -18q-3 -2 -26 -17q-14 -10 -21 -10q-5 0 -4 2t-4 2
q-11 0 -30.5 -27t-36.5 -28q4 2 24 15v9q3 3 -7 3q-21 0 -26.5 -21t-17.5 -21q-5 0 -6 2t-6 2q-4 0 -30 -21q-37 -28 -39 -31t-4 -10q-29 -7 -34 -31q-10 -37 -10 -51q0 -4 2.5 -17t3.5 -17.5t19 -13.5q0 -5 -8 -12q0 -8 17.5 -14.5t22.5 -12.5q1 -3 -1.5 -10t-2.5 -11
q0 -6 4 -12q16 8 24 28q29 -49 38 -49q6 0 9 3.5t4 3.5q9 -6 1 -19q20 -5 49 -7q2 -1 11 -11q6 -8 11 -8q6 0 4.5 1.5t4.5 1.5q5 0 33 -14t33 -14q6 0 7 2t6 2q4 0 15 -5t16 -5t14 1t13 1v-6.5v-7.5q10 -3 40 -1q2 0 17 -11q52 -5 154 -12q22 -2 32 -7.5t7 -5.5q3 0 14 6
q7 -1 15 -3q5 -1 15 -1q19 0 77 -5q10 0 34 1q28 2 31 2t18.5 5t19.5 5t10 -1.5t11 -1.5q43 0 60 21q14 -11 38 -18q1 -10 10 -26q-6 -13 -22 -14q-43 -5 -76 -5q-5 0 -7 3.5t-7 3.5q-15 0 -30 -10q-6 -1 -15 14q-78 -13 -120 -13q-40 0 -115 13q-5 0 -6.5 3.5t-6.5 3.5
t-6 -3.5t-6 -3.5q-6 0 -16 4t-13 5q-17 1 -41 2q2 -12 2 -14q0 -3 -10 -54q4 0 45 -23l55 -22q26 -27 23 -27v-32v-33z" />
    <glyph glyph-name="Eacute" unicode="&#xc9;" horiz-adv-x="979" 
d="M955 6q0 -5 -10.5 -18.5t-12.5 -18.5q-16 8 -25 8q-6 0 -9.5 -2t-8.5 -2q-7 0 -10 3.5t-6 6.5q-76 8 -132 8q-5 0 -8.5 -3.5t-8.5 -3.5t-39.5 -2t-40.5 -2q-4 0 -20 4t-24 4q-5 0 -24.5 -4t-24.5 -4q-4 0 -25.5 4t-27.5 4q-5 0 -57 -5.5t-57.5 -5.5t-53 -4t-52.5 -4
q-6 0 -8 4t-8 4q-4 0 -19.5 -9.5t-22.5 -9.5q-4 0 -9 4t-11 4q-5 0 -36 -13t-36 -13q-3 0 -9 7.5t-22 7.5q-6 0 -14 -5.5t-13 -5.5h-23v15q-33 2 -102 7q-1 5 4 13t11 11q44 23 73 23q4 0 10.5 -1.5t11.5 -1.5t17.5 7.5t17.5 7.5q6 0 9 -6t9 -6q5 0 14.5 9.5t14.5 9.5
q20 0 27 -11q14 -1 14 13q0 6 -6 16q-9 -7 -19 -7q-5 17 6 39q5 9 -6 15q17 37 17 60q0 5 -18 13q5 3 20 19q-7 28 -6 33q9 12 26 40q2 2 -3 5q-8 -7 -13 -7q-3 0 -18 3t-23 1v12q1 -1 -31 -1q-6 14 -16 14q-6 0 -11.5 -1.5t-10.5 -1.5q-13 0 -38 20q5 4 26 12t30 8
q5 0 8.5 -3.5t8.5 -3.5q8 0 41 18q-2 -11 8 -18q39 15 39 30q0 4 -5.5 15t-5.5 19l14 8q-3 2 -13 2q7 8 15 23q1 7 -3 21t-4 22q0 12 8 21q0 1 -4 3.5t-4 8.5q0 4 3.5 11t3.5 9q2 6 -6 22q11 18 21 44v18q4 2 -6 2q-19 0 -45 -14q-2 9 -13 29l-12 -11q-4 0 -9.5 3.5
t-11.5 3.5q-5 0 -6 -1.5t-7 -1.5q-35 0 -51 4q-10 6 -28 15v13q24 0 35 6l11 6q5 0 7.5 -2t7.5 -2q15 0 23.5 13t27.5 13q6 0 13.5 -4t13.5 -4q5 0 21.5 7.5t22.5 7.5q5 0 6 -3.5t7 -3.5q5 0 22 3.5t22 3.5q-1 0 32 -5q2 -5 13 -17q4 0 12 6.5t15 7.5v-11q14 -2 39 -1
q36 2 30 2q6 0 8 -4t8 -4q4 0 22 5.5t24 5.5q5 0 14 -3.5t15 -3.5q5 0 28.5 3.5t28.5 3.5t13 -3.5t14 -3.5q5 0 27 5.5t28 5.5q5 0 48 -3.5t49 -3.5q5 0 32 7t32 7t8.5 -3.5t9.5 -3.5q5 0 11 3.5t11 3.5q15 0 35 -8q-3 -17 13 -26q-20 -12 -72 -13q-45 -1 -89 -2
q-24 1 -75 -1q-9 -1 -40 -5q-27 -3 -33 -3q-4 0 -19.5 5.5t-22.5 5.5q-5 0 -13 -4t-13 -4q-6 0 -8 4t-8 4q-5 0 -12 -5.5t-12 -5.5t-25 3.5t-26 3.5q-4 0 -19 -5.5t-20 -5.5t-11 2t-11 2q-6 0 -29 -7q-27 -8 -35 -9q-6 -8 -20 -27q0 -6 13 -6q-4 -9 -5 -43q-1 -25 -21 -43
q0 -22 -4.5 -68.5t-4.5 -48.5q0 -5 5.5 -13.5t6.5 -10t1 -12.5q11 -8 36 -8h39q13 -1 24 -6l14 11q10 -11 21 -11q4 0 31 11q11 1 18 -15q9 8 18 8q4 0 8 -4t12 -4q5 0 12.5 4t13.5 4t18.5 -5t16 -5.5t33.5 -0.5q5 0 11.5 5.5t13.5 5.5q5 0 13 -4t13 -4t19.5 4t20.5 4
q5 0 12 -4t12 -4q15 0 39 19q1 0 19 -15q8 3 30 22q15 -11 31 -24t16 -24q0 -7 -16 -32q-2 0 -14 -4t-19 -4q-3 0 -13.5 3t-16.5 1q4 4 4 11h-27.5h-23.5q-6 0 -36 9t-35 9q-3 0 -16.5 -3.5t-20.5 -3.5q-6 0 -50 3.5t-49 3.5t-37.5 -7.5t-37.5 -7.5t-21 5.5t-21 5.5
q-11 0 -37 -14q-7 -2 -15 14q-18 -3 -55 -10q2 -26 -3 -50q6 -4 15 -11q-4 -16 -4 -47q6 4 10 4q0 -5 -2 -22.5t-1 -26.5q8 -8 8 -15q0 -5 -9 -18.5t-9 -17.5v-40q13 1 38 -1q5 -1 24 -9t24 -8t12 3.5t12.5 3.5t58.5 2t58 2q4 0 17.5 -5.5t22.5 -5.5q6 0 36.5 5.5t36.5 5.5
q5 0 24.5 -2t26.5 -2q46 0 114 5q1 0 7.5 3.5t12.5 3.5t10.5 -4t9.5 -4q6 0 49 9.5t48 9.5q14 0 17 -3t14 -12.5t11 -14.5zM406 770q10 5 27 16.5t26 16.5l1 -2q3 -4 29 8q7 5 31 17q2 1 4 8q6 -3 20 -7q9 10 36 55q4 0 37.5 -17.5t35.5 -20.5t0 -6q-3 -3 -1 -7q3 -4 20 -8
q-13 2 -40 -3q-8 -4 -4 -18q-19 -4 -43 -4q-27 0 -73 -22l-33 -16q-19 7 -26 4q-9 -5 -23.5 -16.5t-23.5 -16.5q-6 0 -18 -3q-3 -2 -5 -7t-5 -7q-16 -2 -39 -11q-3 -3 -12 -9q-15 -7 -24 5.5t-9 23.5q0 21 41 41q8 4 14 4q5 0 14 -2.5t15 -2.5q13 0 28 7z" />
    <glyph glyph-name="Ntilde" unicode="&#xd1;" horiz-adv-x="905" 
d="M844 -46q-1 2 -15.5 8.5t-14.5 7.5v0q-8 7 -17 15t-9 18q0 8 9 14t18 11q0 16 3 24q4 13 14 19l-7 1q-13 4 -24 12q17 14 38 26q10 5 30 16v5l-2 1q-6 0 -10 -2q-7 -1 -12 -1q-10 0 -13 4q-1 2 2 5l1 2q4 4 -10 15l-4 2l-4 4q-1 13 9 45q-6 5 -13 17q-2 15 -6 44
q-1 2 -8 8.5t-7 12.5q0 4 11.5 23t11.5 24q0 83 -1 68q2 46 16 60q5 5 13 14l-4 2q-7 3 -13 9q9 7 14 10q-13 6 -16 14q9 15 29 42q-13 8 -12 16q11 32 30 65q-10 4 -15 7t-8 9l5 5l-5 -1q-9 -1 -16 5q3 8 9 14q10 9 12 11v17q-9 3 -25 3q-17 0 -23 -5q-2 -16 -7 -24
q-16 -23 -50 -29q4 -42 -7 -59q-23 -35 -23 -43q0 -2 6 -6q10 -7 10 -14q0 -6 -9 -16l-3 -2q-4 -4 -4 -6t4.5 -4t6.5 -5q1 -5 -1 -13l-1 -6q2 -1 7 -1q9 -2 18 -6q-4 -17 -29 -30q-2 -12 -1 -36h1q5 0 13 -7q-7 -9 -1 -22q8 -20 8 -21q0 -5 -3.5 -18t-4.5 -18q18 -6 16 -14
q-16 -23 -19 -54q1 9 1 -55q-6 -4 -13 -7t-22 -13q-2 -7 -4 -16q-7 -16 -23 -16q-19 0 -51 33q-26 27 -36 47q-11 2 -20 12.5t-17 20.5q-11 7 -30 24q-5 5 -7 23l-3 2l-5 2q-8 4 -10 7q-29 42 -49 59q-9 7 -41 15q-11 8 -24 25q-1 4 0 12l1 3q-27 17 -33 29q-20 37 -41 51
q-2 1 -9 1h-9q-4 0 -10 1q-10 13 -33 34q-1 7 1 14l1 5l-20 5q-13 3 -27 11q8 7 9 9q-55 23 -55 38q0 7 4 11h1q-12 7 -21 7q-6 0 -21.5 -8.5t-21.5 -8.5t-45 14t-42 14q-10 0 -18 -7q11 -9 33 -28q9 -3 27 -14q6 -7 7 -25q2 -1 17 -5q5 -1 13 -5q-3 -4 -1.5 -9t-1 -6.5
t-6.5 -6.5q5 -6 14 -28q2 -6 6 -13q-5 -4 -11 -8q9 -3 14 -7q0 -8 -6 -15h2q11 -1 21 -9q-5 -10 -19 -21q-4 -3 3 -15l-5 -6q-5 -7 -6 -21q2 1 10 1q24 0 24 -20q0 -15 -13 -25q6 -17 6 -42q0 -49 -24 -77q2 -11 1 -14q-6 -4 -17 -14q7 -3 16 -11q-58 -97 -58 -100
q0 -8 20 -23q-14 -7 -31 -20q7 -10 23 -23.5t21 -13.5q6 0 23.5 6.5t24.5 6.5q-4 0 25 -5q2 13 12 26q-6 10 -2 19l18 18q0 3 -4 7q-8 6 -8 12q2 2 5 4q-13 5 -13 14q0 5 5.5 15t3.5 16q-13 0 -23 10q7 6 14 8q1 0 3 1v1l1 4q1 4 2 7q-4 11 0 18q9 6 26 18q-7 1 -14 8
q10 7 13 14q2 14 5 28t15 23q-7 5 -20 20q6 5 14 25t8 29q0 3 -8 13t-8 15q0 6 15 27q19 26 33 26q25 0 45 -12q0 -6 -3 -10l-1 -1q26 -16 76 -51q39 -28 54 -55q4 -8 8 -11t17 -8q8 -2 22 -10q1 -1 3 -20q7 -5 20.5 -16t26.5 -19q-6 -5 -5 -7q25 5 46 -37q5 -10 8 -15
q25 -8 31 -18q2 -4 4 -14q1 -4 3 -10q10 -4 26 -17q9 -13 19 -26q12 -18 12 -29q16 -1 30 -14q-6 -5 -6 -14q0 -18 14 -27q10 -1 28 -5q22 -9 43 -34q17 -22 34 -42t43 -32q-2 0 6 28zM189 725l-1 1q-3 -13 6 -19l9 9l-12 1q15 -20 48 -13l35 32l-19 4l4 -7l-2 -2h-2
q7 0 20 6l5 11l25 17l-7 1l9 3l31 -2v1q10 2 22 0q4 0 3 -5q13 -4 21 -13l23 -4q3 -5 12 -11l3 -2q5 -4 8 -10l13 -4l5 -5l1 -8l11 -3l18 -7q6 0 13 -1v-1q10 -12 60 -11q15 0 32 5l34 10q10 4 25 15q20 15 17 23q9 3 11 5q28 24 30 45q1 20 -32 20q-10 0 -31 -3l-1 -14
q-2 -1 -18 -21l-10 -1l-1 -9l-44 -9l25 -6q-7 -1 -53 -9l9 -2h-5l-11 1q-5 4 -14 8.5t-22 7.5q-4 3 -8 5q-5 7 -18 13l-3 2l29 9l-59 9l-14 12l-5 1l-1 2q-7 1 -21 4l-6 3q-14 6 -63 11q-25 -7 -51 -15q-21 -7 -44 -26q-14 -1 -14 -11q0 -3 2 -6q-17 3 -17 -10q0 -4 2 -9
q-7 -5 -13 -12z" />
    <glyph glyph-name="Odieresis" unicode="&#xd6;" horiz-adv-x="976" 
d="M888 421q-11 -34 -11 -62q-3 -5 -8 -14q-1 -14 -8 -41q-15 -33 -49 -98q-10 -18 -18 -18q-5 0 -7.5 2t-3.5 2q-4 -4 -3 -10q0 -9 -1 -10q-15 -21 -32 -18q-3 -2 -3 -16q-6 1 -18 -10.5t-15 -20.5q-1 2 -5 2q-17 0 -48.5 -23t-92.5 -41q-4 -1 -10 -16q-10 10 -18 10
q-4 0 -27.5 -8.5t-28.5 -8.5q-4 0 -4.5 1.5t-4.5 1.5t-20.5 -6.5t-20.5 -6.5t-4 1.5t-4 1.5t-12.5 -6.5t-12.5 -6.5t-4.5 3t-4.5 3t-6.5 -3t-6.5 -3t-5 3t-5 3q-7 0 -16 -10l-17 17q-11 -9 -40 -23v10q2 0 -34 0q-4 0 -4 5t-3 8q-5 -7 -17 -20v11q-18 4 -41 23
q-5 -4 -13 -10q-1 0 -10 10q-6 -6 -11 -6q5 23 -4 23q-4 0 -3 -2t-3 -2l-26 20q-8 1 -22 6q-11 25 -18 25l-21 -3q-2 2 -6 24q-9 9 -27 21q-1 5 -1 68q-6 3 -19 2q-2 9 2 20.5t4 16.5q0 12 -13 21q-1 9 9 16q-1 10 -5 29q0 1 8 15q-1 5 -1 12q8 6 17 18q-5 8 -5 20
q0 21 14 48q4 2 14 11q6 9 1 19q22 12 26 12q5 0 4.5 -3t0.5 -4q5 4 8 13t5 12q28 21 84 60q5 7 16 18q27 19 42 19q4 0 5.5 -1.5t5.5 -1.5q17 0 18 23q35 -1 40 1q9 4 27 24q15 16 26 16q4 0 4.5 -1.5t4.5 -1.5q5 0 13 13q12 22 13 24q6 -7 15 -7q4 0 9 1.5t9 1.5t16 -6.5
t17 -6.5q3 0 7.5 1.5t8.5 1.5t26 -11.5t26 -11.5t5 1.5t5 1.5t11 -5t11 -5t4 1.5t5 1.5q4 0 6 -4q3 -7 6 -9q7 1 19 -2q2 -1 8 -6.5t11 -5.5l19 10q9 -3 15 -20q10 -1 31 -12.5t23 -11.5q4 0 3 2t3 2q3 0 16.5 -14t18.5 -14q4 0 3 2t3 2t11.5 -7.5t9.5 -7.5q2 -3 2 -17
q9 -2 20.5 -5t10.5 -21q10 10 14 10q5 -38 38 -34q9 -11 -5 -32q4 -11 15 -13q7 -1 14 -3zM813 345v29q-11 1 -16 14l-8 20q-10 7 -24 20q-12 26 -12 41q0 -3 -8 -3q-4 0 -6.5 5t-6.5 5t-3 -1.5t-4 -1.5q-3 0 -22 20q-5 5 -4 23q-1 0 -6 -1t-10 -1q-11 0 -28.5 12t-17.5 21
q-4 -3 -11 -3q-11 0 -20 10l-12 12q-21 13 -45 13q-6 7 -13 15q-23 8 -22 8q-4 0 -5.5 -2t-5.5 -2t-15.5 7t-15.5 7q-13 0 -19 -5q-8 -9 -26 -22q-10 -4 -37.5 -21t-30.5 -17q-4 0 -11 3.5t-11 3.5t-7.5 -5t-7.5 -5q-3 0 -8 3.5t-8 3.5q-4 0 -22.5 -12t-21.5 -12
q-4 0 -3.5 1.5t-3.5 1.5t-20 -18.5t-19 -18.5q-4 0 -3 2t-3 2q-13 0 -56 -38q-12 -16 -34 -38q4 -4 4 -9t-21 -35q2 -17 -3 -27q-16 -27 -16 -31q0 -10 5.5 -14.5t11.5 -9.5q-10 -7 -10 -18q0 -4 1.5 -10.5t0.5 -8.5q-5 -9 -5 -12q0 -9 13 -22q-7 -6 -17 -14q3 -1 16 -4
q4 -1 7 -9q-7 -15 -6 -19q20 -3 21 -4q10 -4 10 -17q0 -5 -2 -12q19 0 32 -10q0 -7 2 -17q4 -2 16 -10t15 -8q4 0 4 3.5t4 3.5t19 -17t19 -17q3 0 9.5 3.5t9.5 3.5q4 0 8 -5t7 -5q14 13 16 13q7 0 10 -9q20 -2 32 -9q2 -2 7.5 -7t6.5 -5q13 13 25 13q5 0 16 -5t14 -5
q7 0 75 11q18 8 51 17q37 26 45 26t14 -7l14 18q10 13 14 13t4 -1.5t4 -1.5q18 0 31 16q22 27 35 37q5 0 13 2q20 17 48 47q3 5 8 26q4 17 8 17t3.5 -1.5t3.5 -1.5q11 0 27 35q14 31 13 37zM254 751q0 20 16.5 33.5t39.5 13.5t39.5 -13.5t16.5 -33.5q0 -19 -16.5 -32.5
t-39.5 -13.5t-39.5 13.5t-16.5 32.5zM470 750q0 20 17.5 34t42.5 14q26 0 43.5 -14t17.5 -34q0 -21 -17.5 -35t-43.5 -14q-25 0 -42.5 14t-17.5 35z" />
    <glyph glyph-name="Udieresis" unicode="&#xdc;" horiz-adv-x="682" 
d="M639 655q-21 -41 -26 -58l-16 -60l5 -12l-9 -21q7 -9 7 -31q0 -45 -16 -76l16 -20q-2 -35 -12 -61q-14 -28 -27 -55l27 -7q-11 -13 -36 -40l-1 -20q-12 -13 -22 -33q-16 -34 -17 -35l-19 -4l-6 -6l8 -9q-15 -9 -59 -41l-14 4q-18 -7 -31 -13l-8 9q-12 -6 -35 -22l-29 6
l-32 -10l-11 4l-13 -10q-1 1 -21 26l-35 -20q-24 5 -36 4q-6 20 -15 32l-14 -13h-22l-8 17l-32 4l12 13l-22 25v17l-16 20l1 14q-3 12 -1 35q-9 17 -11 44q-4 39 -5 44l10 15q-14 11 -14 22q0 4 3 14t3 17q0 6 -9 25t-13 25l15 20l-19 17l8 8l-24 18l35 18q-15 12 -39 22
l22 21q5 25 21 49q20 33 45 33l13 -1q15 -12 15 -21l-10 -12v-19l19 -7l-15 -20l6 -26l-10 -12h23l-10 -12l-11 3l-6 -5l27 -5l-19 -24l15 -5q-19 -22 -23 -83q13 -19 14 -35q-1 7 -1 -37q0 -28 22 -34l-8 -21l19 -2q-8 -23 -3 -38l-6 -2l6 -3l-3 -16l26 -17q-8 -8 -8 -17
q0 -12 26 -37l29 16l20 -9l10 3l33 -10q28 9 49 9q8 0 11 -2q4 10 27 9l-5 12q30 9 58 33.5t37 50.5l21 11q5 16 11 34t20 28q2 27 9 82l14 -3l3 2l-5 37q17 21 6 67l16 23l-5 12l10 17v84q-10 10 -20 19q-15 14 -19 10q8 24 18 29.5t39 5.5q21 0 37 -4l-4 -23q9 -2 39 0z
M138 747q0 19 16.5 33t40.5 14q23 0 39.5 -14t16.5 -33q0 -20 -16.5 -33.5t-39.5 -13.5q-24 0 -40.5 13.5t-16.5 33.5zM355 745q0 20 17.5 34.5t42.5 14.5t43 -14.5t18 -34.5t-18 -34.5t-43 -14.5t-42.5 14.5t-17.5 34.5z" />
    <glyph glyph-name="aacute" unicode="&#xe1;" horiz-adv-x="635" 
d="M603.5 198.5q-9.5 -2.5 -12.5 -2.5q-4 0 -35.5 4t-35.5 4q-12 0 -14 -21q0 -9 8 -21q8 -15 18 -15q4 0 7 2q2 -7 4 -29q4 -9 14 -28q4 -2 12 -8q1 -2 1 -14q5 -1 11 -3t6 -6q0 -18 -17 -18q-3 0 -14 3t-16 3q-10 8 -15 36q-11 6 -29 23q-2 5 -8 15q-6 0 -17 2
q-1 1 -12 33q-6 20 -26 21q-10 25 -11 25q-4 0 -7.5 -4.5t-6.5 -5.5q-7 -4 -17 -4q-4 0 -17 3t-16 3q-4 0 -15.5 -7t-15.5 -7q-3 0 -9 3t-9 3q-1 0 -20.5 -1t-30.5 -1q2 0 -40 -15q-1 1 -3.5 5.5t-4.5 5.5q-13 -9 -44 -66q-5 -3 -15 -11q-2 -8 -10 -23q-28 -28 -79 -83
q-18 -20 -37 -52q-6 -10 -20 -18q-8 -5 -5 -13q-32 -17 -37 -17q-2 0 -14 1.5t-19 1.5l-4 -3v27q17 8 48 26q11 8 83 84q8 2 16 9q11 12 14 14q0 2 -6 8q10 8 30 28q12 15 33 45q1 7 5 19q4 8 21 19q0 6 -4 9q-8 1 -25 1q-4 0 -13 -5t-12 -7q-15 17 -22 17q-3 0 -11.5 -2.5
t-12.5 -2.5q11 0 -77 19q-5 6 0 16q0 1 23 1q16 0 66 12q16 2 31 3q21 3 31 12q1 -13 23 -13q27 0 37 10q14 15 27 30q-8 19 -8 16q0 3 14 28q16 29 20 40q4 1 9 5q4 27 3 30q8 6 20 20q17 37 17 60q0 7 -2 12q1 3 15 15q1 4 2 12q16 8 30.5 40.5t33.5 39.5q21 -9 5 -29
q8 -10 19 -8q-7 -14 -7 -31q0 -16 10 -16q5 0 7 3q0 -3 -4 -11.5t-4 -13.5q0 -4 2 -8q7 7 15 -1q0 -1 -2.5 -1t-2.5 -4v-17q3 -2 18 -2l4 -4v-10q-19 -12 -19 -17l7 -12q0 -4 -1 -14t-1 -13q-2 -2 4 -2q4 0 10 3.5t8 3.5q-5 -18 -16 -53q12 -4 15 -11q0 -13 6 -34l-8 -24
q0 -7 8 -7q4 0 6 1t3 1q3 0 3 -7q0 -3 -5 -8.5t-6 -7.5q3 -3 13 0q4 -3 4 -13q9 -5 26 -10q44 -4 67 -4q3 0 19.5 3t20.5 3q13 0 21 -6q7 0 13 -1q-2 -3 -12.5 -8t-14 -5t-13 -2.5zM414 240q-6 3 -5 10q2 12 2 15q-6 2 -15 10q1 11 -1 28q-16 -1 -16 20q0 5 1 16t1 16
q0 11 -4 17q-16 6 -25 63q-10 -26 -19 -52q-17 -41 -43 -64q0 -3 -7 -18q-7 -9 -16.5 -30.5t-17.5 -29.5q9 -9 21 -9q4 0 17 3t16 3q5 0 10.5 -3t8.5 -3q26 0 77 -1q5 -2 12 -7zM291 688q6 4 17.5 13.5t17.5 13.5l1 -2q2 -4 19 7q5 3 21 13q1 1 2 6q5 -2 13 -5q7 8 25 44
q2 0 24.5 -14t23.5 -16q2 -3 0 -5.5t0 -5.5t13 -6q-9 1 -25 -2q-7 -4 -4 -15q-13 -3 -30 -3t-48 -18l-21 -13q-13 6 -18 3q-6 -3 -15.5 -12.5t-15.5 -13.5q-5 0 -12 -2q-2 -2 -3.5 -6t-3.5 -5q-11 -2 -26 -9q-2 -3 -8 -8q-10 -6 -16 6q-6 9 -6 17q0 11 13 23.5t24 12.5
q-5 0 15 -3q10 -2 23 5z" />
    <glyph glyph-name="agrave" unicode="&#xe0;" horiz-adv-x="635" 
d="M603.5 198.5q-9.5 -2.5 -12.5 -2.5q-4 0 -35.5 4t-35.5 4q-12 0 -14 -21q0 -9 8 -21q8 -15 18 -15q4 0 7 2q2 -7 4 -29q4 -9 14 -28q4 -2 12 -8q1 -2 1 -14q5 -1 11 -3t6 -6q0 -18 -17 -18q-3 0 -14 3t-16 3q-10 8 -15 36q-11 6 -29 23q-2 5 -8 15q-6 0 -17 2
q-1 1 -12 33q-6 20 -26 21q-10 25 -11 25q-4 0 -7.5 -4.5t-6.5 -5.5q-7 -4 -17 -4q-4 0 -17 3t-16 3q-4 0 -15.5 -7t-15.5 -7q-3 0 -9 3t-9 3q-1 0 -20.5 -1t-30.5 -1q2 0 -40 -15q-1 1 -3.5 5.5t-4.5 5.5q-13 -9 -44 -66q-5 -3 -15 -11q-2 -8 -10 -23q-28 -28 -79 -83
q-18 -20 -37 -52q-6 -10 -20 -18q-8 -5 -5 -13q-32 -17 -37 -17q-2 0 -14 1.5t-19 1.5l-4 -3v27q17 8 48 26q11 8 83 84q8 2 16 9q11 12 14 14q0 2 -6 8q10 8 30 28q12 15 33 45q1 7 5 19q4 8 21 19q0 6 -4 9q-8 1 -25 1q-4 0 -13 -5t-12 -7q-15 17 -22 17q-3 0 -11.5 -2.5
t-12.5 -2.5q11 0 -77 19q-5 6 0 16q0 1 23 1q16 0 66 12q16 2 31 3q21 3 31 12q1 -13 23 -13q27 0 37 10q14 15 27 30q-8 19 -8 16q0 3 14 28q16 29 20 40q4 1 9 5q4 27 3 30q8 6 20 20q17 37 17 60q0 7 -2 12q1 3 15 15q1 4 2 12q16 8 30.5 40.5t33.5 39.5q21 -9 5 -29
q8 -10 19 -8q-7 -14 -7 -31q0 -16 10 -16q5 0 7 3q0 -3 -4 -11.5t-4 -13.5q0 -4 2 -8q7 7 15 -1q0 -1 -2.5 -1t-2.5 -4v-17q3 -2 18 -2l4 -4v-10q-19 -12 -19 -17l7 -12q0 -4 -1 -14t-1 -13q-2 -2 4 -2q4 0 10 3.5t8 3.5q-5 -18 -16 -53q12 -4 15 -11q0 -13 6 -34l-8 -24
q0 -7 8 -7q4 0 6 1t3 1q3 0 3 -7q0 -3 -5 -8.5t-6 -7.5q3 -3 13 0q4 -3 4 -13q9 -5 26 -10q44 -4 67 -4q3 0 19.5 3t20.5 3q13 0 21 -6q7 0 13 -1q-2 -3 -12.5 -8t-14 -5t-13 -2.5zM414 240q-6 3 -5 10q2 12 2 15q-6 2 -15 10q1 11 -1 28q-16 -1 -16 20q0 5 1 16t1 16
q0 11 -4 17q-16 6 -25 63q-10 -26 -19 -52q-17 -41 -43 -64q0 -3 -7 -18q-7 -9 -16.5 -30.5t-17.5 -29.5q9 -9 21 -9q4 0 17 3t16 3q5 0 10.5 -3t8.5 -3q26 0 77 -1q5 -2 12 -7zM441 702q-6 4 -19.5 6.5t-20.5 6.5v-2q-2 -4 -19 7q-5 3 -21 13q-1 1 -3 6q-4 -2 -13 -5
q-6 8 -24 44q-2 0 -24.5 -14t-24.5 -16q-1 -3 1 -5q1 -3 0 -6q-2 -3 -13 -6q9 1 25 -2q6 -4 4 -15q12 -3 29 -3t48 -18l22 -13q13 6 18 3q6 -3 15.5 -12.5t15.5 -13.5q4 0 12 -2q2 -2 3.5 -6t3.5 -5q10 -2 26 -9q2 -3 7 -8q7 -3 16 16q-7 10 -34 31q-7 4 -11 12t-19 16z" />
    <glyph glyph-name="acircumflex" unicode="&#xe2;" horiz-adv-x="635" 
d="M603.5 198.5q-9.5 -2.5 -12.5 -2.5q-4 0 -35.5 4t-35.5 4q-12 0 -14 -21q0 -9 8 -21q8 -15 18 -15q4 0 7 2q2 -7 4 -29q4 -9 14 -28q4 -2 12 -8q1 -2 1 -14q5 -1 11 -3t6 -6q0 -18 -17 -18q-3 0 -14 3t-16 3q-10 8 -15 36q-11 6 -29 23q-2 5 -8 15q-6 0 -17 2
q-1 1 -12 33q-6 20 -26 21q-10 25 -11 25q-4 0 -7.5 -4.5t-6.5 -5.5q-7 -4 -17 -4q-4 0 -17 3t-16 3q-4 0 -15.5 -7t-15.5 -7q-3 0 -9 3t-9 3q-1 0 -20.5 -1t-30.5 -1q2 0 -40 -15q-1 1 -3.5 5.5t-4.5 5.5q-13 -9 -44 -66q-5 -3 -15 -11q-2 -8 -10 -23q-28 -28 -79 -83
q-18 -20 -37 -52q-6 -10 -20 -18q-8 -5 -5 -13q-32 -17 -37 -17q-2 0 -14 1.5t-19 1.5l-4 -3v27q17 8 48 26q11 8 83 84q8 2 16 9q11 12 14 14q0 2 -6 8q10 8 30 28q12 15 33 45q1 7 5 19q4 8 21 19q0 6 -4 9q-8 1 -25 1q-4 0 -13 -5t-12 -7q-15 17 -22 17q-3 0 -11.5 -2.5
t-12.5 -2.5q11 0 -77 19q-5 6 0 16q0 1 23 1q16 0 66 12q16 2 31 3q21 3 31 12q1 -13 23 -13q27 0 37 10q14 15 27 30q-8 19 -8 16q0 3 14 28q16 29 20 40q4 1 9 5q4 27 3 30q8 6 20 20q17 37 17 60q0 7 -2 12q1 3 15 15q1 4 2 12q16 8 30.5 40.5t33.5 39.5q21 -9 5 -29
q8 -10 19 -8q-7 -14 -7 -31q0 -16 10 -16q5 0 7 3q0 -3 -4 -11.5t-4 -13.5q0 -4 2 -8q7 7 15 -1q0 -1 -2.5 -1t-2.5 -4v-17q3 -2 18 -2l4 -4v-10q-19 -12 -19 -17l7 -12q0 -4 -1 -14t-1 -13q-2 -2 4 -2q4 0 10 3.5t8 3.5q-5 -18 -16 -53q12 -4 15 -11q0 -13 6 -34l-8 -24
q0 -7 8 -7q4 0 6 1t3 1q3 0 3 -7q0 -3 -5 -8.5t-6 -7.5q3 -3 13 0q4 -3 4 -13q9 -5 26 -10q44 -4 67 -4q3 0 19.5 3t20.5 3q13 0 21 -6q7 0 13 -1q-2 -3 -12.5 -8t-14 -5t-13 -2.5zM414 240q-6 3 -5 10q2 12 2 15q-6 2 -15 10q1 11 -1 28q-16 -1 -16 20q0 5 1 16t1 16
q0 11 -4 17q-16 6 -25 63q-10 -26 -19 -52q-17 -41 -43 -64q0 -3 -7 -18q-7 -9 -16.5 -30.5t-17.5 -29.5q9 -9 21 -9q4 0 17 3t16 3q5 0 10.5 -3t8.5 -3q26 0 77 -1q5 -2 12 -7zM412 731h-7q4 -4 14 -11q13 -11 15 -7v2q11 -3 32 -13q12 -8 15 -16t9 -12q15 -11 27 -31
q-7 -19 -12 -16q-1 1 -6 8q-9 3 -21 9q-1 4 -6 11q-4 1 -9 3.5t-12.5 12t-12.5 12.5q-4 3 -14 -3l-18 13q-25 18 -40 18t-40 -18l-17 -13q-10 6 -14 3q-5 -3 -12.5 -12.5t-12.5 -13.5q-4 0 -10 -2q-2 -2 -2.5 -6t-2.5 -5q-9 -2 -21 -9q-2 -3 -6 -8q-5 -3 -13 16q6 10 28 31
q5 4 8.5 12t14.5 16q11 3 32 13l1 -2q1 -4 15 7q4 3 14 11h-7q4 0 11 6q1 3 -1 6q-1 2 0 5q2 4 29 23l2 7l4 -2q3 2 4 2l3 -7q27 -19 29 -23q1 -3 -1 -5q-1 -3 0 -6q2 -3 11 -6z" />
    <glyph glyph-name="adieresis" unicode="&#xe4;" horiz-adv-x="635" 
d="M603.5 198.5q-9.5 -2.5 -12.5 -2.5q-4 0 -35.5 4t-35.5 4q-12 0 -14 -21q0 -9 8 -21q8 -15 18 -15q4 0 7 2q2 -7 4 -29q4 -9 14 -28q4 -2 12 -8q1 -2 1 -14q5 -1 11 -3t6 -6q0 -18 -17 -18q-3 0 -14 3t-16 3q-10 8 -15 36q-11 6 -29 23q-2 5 -8 15q-6 0 -17 2
q-1 1 -12 33q-6 20 -26 21q-10 25 -11 25q-4 0 -7.5 -4.5t-6.5 -5.5q-7 -4 -17 -4q-4 0 -17 3t-16 3q-4 0 -15.5 -7t-15.5 -7q-3 0 -9 3t-9 3q-1 0 -20.5 -1t-30.5 -1q2 0 -40 -15q-1 1 -3.5 5.5t-4.5 5.5q-13 -9 -44 -66q-5 -3 -15 -11q-2 -8 -10 -23q-28 -28 -79 -83
q-18 -20 -37 -52q-6 -10 -20 -18q-8 -5 -5 -13q-32 -17 -37 -17q-2 0 -14 1.5t-19 1.5l-4 -3v27q17 8 48 26q11 8 83 84q8 2 16 9q11 12 14 14q0 2 -6 8q10 8 30 28q12 15 33 45q1 7 5 19q4 8 21 19q0 6 -4 9q-8 1 -25 1q-4 0 -13 -5t-12 -7q-15 17 -22 17q-3 0 -11.5 -2.5
t-12.5 -2.5q11 0 -77 19q-5 6 0 16q0 1 23 1q16 0 66 12q16 2 31 3q21 3 31 12q1 -13 23 -13q27 0 37 10q14 15 27 30q-8 19 -8 16q0 3 14 28q16 29 20 40q4 1 9 5q4 27 3 30q8 6 20 20q17 37 17 60q0 7 -2 12q1 3 15 15q1 4 2 12q16 8 30.5 40.5t33.5 39.5q21 -9 5 -29
q8 -10 19 -8q-7 -14 -7 -31q0 -16 10 -16q5 0 7 3q0 -3 -4 -11.5t-4 -13.5q0 -4 2 -8q7 7 15 -1q0 -1 -2.5 -1t-2.5 -4v-17q3 -2 18 -2l4 -4v-10q-19 -12 -19 -17l7 -12q0 -4 -1 -14t-1 -13q-2 -2 4 -2q4 0 10 3.5t8 3.5q-5 -18 -16 -53q12 -4 15 -11q0 -13 6 -34l-8 -24
q0 -7 8 -7q4 0 6 1t3 1q3 0 3 -7q0 -3 -5 -8.5t-6 -7.5q3 -3 13 0q4 -3 4 -13q9 -5 26 -10q44 -4 67 -4q3 0 19.5 3t20.5 3q13 0 21 -6q7 0 13 -1q-2 -3 -12.5 -8t-14 -5t-13 -2.5zM414 240q-6 3 -5 10q2 12 2 15q-6 2 -15 10q1 11 -1 28q-16 -1 -16 20q0 5 1 16t1 16
q0 11 -4 17q-16 6 -25 63q-10 -26 -19 -52q-17 -41 -43 -64q0 -3 -7 -18q-7 -9 -16.5 -30.5t-17.5 -29.5q9 -9 21 -9q4 0 17 3t16 3q5 0 10.5 -3t8.5 -3q26 0 77 -1q5 -2 12 -7zM268 670q0 16 11 27t26 11q16 0 27 -11t11 -27q0 -15 -11 -26t-27 -11q-15 0 -26 11t-11 26z
M412 669q0 16 12 27.5t28 11.5q17 0 29 -11.5t12 -27.5t-12 -27.5t-29 -11.5q-16 0 -28 11.5t-12 27.5z" />
    <glyph glyph-name="atilde" unicode="&#xe3;" horiz-adv-x="635" 
d="M603.5 198.5q-9.5 -2.5 -12.5 -2.5q-4 0 -35.5 4t-35.5 4q-12 0 -14 -21q0 -9 8 -21q8 -15 18 -15q4 0 7 2q2 -7 4 -29q4 -9 14 -28q4 -2 12 -8q1 -2 1 -14q5 -1 11 -3t6 -6q0 -18 -17 -18q-3 0 -14 3t-16 3q-10 8 -15 36q-11 6 -29 23q-2 5 -8 15q-6 0 -17 2
q-1 1 -12 33q-6 20 -26 21q-10 25 -11 25q-4 0 -7.5 -4.5t-6.5 -5.5q-7 -4 -17 -4q-4 0 -17 3t-16 3q-4 0 -15.5 -7t-15.5 -7q-3 0 -9 3t-9 3q-1 0 -20.5 -1t-30.5 -1q2 0 -40 -15q-1 1 -3.5 5.5t-4.5 5.5q-13 -9 -44 -66q-5 -3 -15 -11q-2 -8 -10 -23q-28 -28 -79 -83
q-18 -20 -37 -52q-6 -10 -20 -18q-8 -5 -5 -13q-32 -17 -37 -17q-2 0 -14 1.5t-19 1.5l-4 -3v27q17 8 48 26q11 8 83 84q8 2 16 9q11 12 14 14q0 2 -6 8q10 8 30 28q12 15 33 45q1 7 5 19q4 8 21 19q0 6 -4 9q-8 1 -25 1q-4 0 -13 -5t-12 -7q-15 17 -22 17q-3 0 -11.5 -2.5
t-12.5 -2.5q11 0 -77 19q-5 6 0 16q0 1 23 1q16 0 66 12q16 2 31 3q21 3 31 12q1 -13 23 -13q27 0 37 10q14 15 27 30q-8 19 -8 16q0 3 14 28q16 29 20 40q4 1 9 5q4 27 3 30q8 6 20 20q17 37 17 60q0 7 -2 12q1 3 15 15q1 4 2 12q16 8 30.5 40.5t33.5 39.5q21 -9 5 -29
q8 -10 19 -8q-7 -14 -7 -31q0 -16 10 -16q5 0 7 3q0 -3 -4 -11.5t-4 -13.5q0 -4 2 -8q7 7 15 -1q0 -1 -2.5 -1t-2.5 -4v-17q3 -2 18 -2l4 -4v-10q-19 -12 -19 -17l7 -12q0 -4 -1 -14t-1 -13q-2 -2 4 -2q4 0 10 3.5t8 3.5q-5 -18 -16 -53q12 -4 15 -11q0 -13 6 -34l-8 -24
q0 -7 8 -7q4 0 6 1t3 1q3 0 3 -7q0 -3 -5 -8.5t-6 -7.5q3 -3 13 0q4 -3 4 -13q9 -5 26 -10q44 -4 67 -4q3 0 19.5 3t20.5 3q13 0 21 -6q7 0 13 -1q-2 -3 -12.5 -8t-14 -5t-13 -2.5zM414 240q-6 3 -5 10q2 12 2 15q-6 2 -15 10q1 11 -1 28q-16 -1 -16 20q0 5 1 16t1 16
q0 11 -4 17q-16 6 -25 63q-10 -26 -19 -52q-17 -41 -43 -64q0 -3 -7 -18q-7 -9 -16.5 -30.5t-17.5 -29.5q9 -9 21 -9q4 0 17 3t16 3q5 0 10.5 -3t8.5 -3q26 0 77 -1q5 -2 12 -7zM199 652l-1 1q-1 -10 5 -15l6 7l-8 1q9 -16 31 -10l24 25l-13 3l3 -6q-1 0 -1 -1h-1q4 0 13 5
l3 8l17 14l-5 1l6 2l21 -1v1q7 1 14 0q3 -1 2 -4q9 -3 14 -11l16 -3q2 -4 8 -9l2 -2q3 -3 5 -8l9 -3q1 -2 3 -4l1 -6l7 -2l12 -6q4 0 9 -2q6 -9 40 -9q10 0 21 5l23 8q6 3 16 12q14 12 12 18q5 2 7 4q19 19 20 36q1 14 -16 16q-8 1 -26 -2l-1 -11q-1 -1 -11 -18h-7l-1 -8
l-29 -7l16 -4q-5 -1 -35 -8l6 -1h-4l-7 1q-3 3 -9 6.5t-15 6.5q-2 2 -5 5.5t-12 8.5l-2 1l19 7l-39 8l-9 10h-4l-1 2q-4 1 -13 3l-4 2q-9 5 -42 9q-17 -6 -32.5 -12t-30.5 -21q-15 -1 -9 -13q-6 1 -9 -3q-4 -4 0 -13q-5 -4 -9 -9v-5z" />
    <glyph glyph-name="aring" unicode="&#xe5;" horiz-adv-x="635" 
d="M452 722q0 -29 -22.5 -48t-52.5 -19t-52.5 19t-22.5 48t22.5 48t52.5 19t52.5 -19t22.5 -48zM630 215q7 0 13 -1q-2 -3 -12.5 -8t-14 -5t-13 -2.5t-12.5 -2.5q-4 0 -35.5 4t-35.5 4q-12 0 -14 -21q0 -9 8 -21q8 -15 18 -15q4 0 7 2q2 -7 4 -29q4 -9 14 -28q4 -2 12 -8
q1 -2 1 -14q5 -1 11 -3t6 -6q0 -18 -17 -18q-3 0 -14 3t-16 3q-10 8 -15 36q-11 6 -29 23q-2 5 -8 15q-6 0 -17 2q-1 1 -12 33q-6 20 -26 21q-10 25 -11 25q-4 0 -7.5 -4.5t-6.5 -5.5q-7 -4 -17 -4q-4 0 -17 3t-16 3q-4 0 -15.5 -7t-15.5 -7q-3 0 -9 3t-9 3q-1 0 -20.5 -1
t-30.5 -1q2 0 -40 -15q-1 1 -3.5 5.5t-4.5 5.5q-13 -9 -44 -66q-5 -3 -15 -11q-2 -8 -10 -23q-28 -28 -79 -83q-18 -20 -37 -52q-6 -10 -20 -18q-8 -5 -5 -13q-32 -17 -37 -17q-2 0 -14 1.5t-19 1.5l-4 -3v27q17 8 48 26q11 8 83 84q8 2 16 9q11 12 14 14q0 2 -6 8
q10 8 30 28q12 15 33 45q1 7 5 19q4 8 21 19q0 6 -4 9q-8 1 -25 1q-4 0 -13 -5t-12 -7q-15 17 -22 17q-3 0 -11.5 -2.5t-12.5 -2.5q11 0 -77 19q-5 6 0 16q0 1 23 1q16 0 66 12q16 2 31 3q21 3 31 12q1 -13 23 -13q27 0 37 10q14 15 27 30q-8 19 -8 16q0 3 14 28
q16 29 20 40q4 1 9 5q4 27 3 30q8 6 20 20q17 37 17 60q0 7 -2 12q1 3 15 15q1 4 2 12q16 8 30.5 40.5t33.5 39.5q21 -9 5 -29q8 -10 19 -8q-7 -14 -7 -31q0 -16 10 -16q5 0 7 3q0 -3 -4 -11.5t-4 -13.5q0 -4 2 -8q7 7 15 -1q0 -1 -2.5 -1t-2.5 -4v-17q3 -2 18 -2l4 -4v-10
q-19 -12 -19 -17l7 -12q0 -4 -1 -14t-1 -13q-2 -2 4 -2q4 0 10 3.5t8 3.5q-5 -18 -16 -53q12 -4 15 -11q0 -13 6 -34l-8 -24q0 -7 8 -7q4 0 6 1t3 1q3 0 3 -7q0 -3 -5 -8.5t-6 -7.5q3 -3 13 0q4 -3 4 -13q9 -5 26 -10q44 -4 67 -4q3 0 19.5 3t20.5 3q13 0 21 -6zM414 240
q-6 3 -5 10q2 12 2 15q-6 2 -15 10q1 11 -1 28q-16 -1 -16 20q0 5 1 16t1 16q0 11 -4 17q-16 6 -25 63q-10 -26 -19 -52q-17 -41 -43 -64q0 -3 -7 -18q-7 -9 -16.5 -30.5t-17.5 -29.5q9 -9 21 -9q4 0 17 3t16 3q5 0 10.5 -3t8.5 -3q26 0 77 -1q5 -2 12 -7zM377 754
q-17 0 -28.5 -9.5t-11.5 -22.5q0 -12 11.5 -22t28.5 -10q18 0 29 10t11 22q0 13 -11 22.5t-29 9.5z" />
    <glyph glyph-name="ccedilla" unicode="&#xe7;" horiz-adv-x="762" 
d="M506 -117q-38 -32 -43 -32h-55q-5 0 -22.5 -3l-17.5 -3q-3 0 -24 11t-25 15q-12 12 -12 23q0 3 12 17q35 -28 37 -28h32q30 8 46 5q11 -2 12 15q0 -8 0 20q0 3 2 20q-20 20 -20 22.5t-11.5 9.5t-11.5 8.5t-17 5t-20 3.5t-23 -9q3 18 3 21q0 8 -12 8q-3 0 9 18l-6 14
q1 3 3 14q-14 1 -29 3q-4 0 -14 5t-13 5t-6 -2.5t-7 -2.5q-3 0 -14.5 8t-14.5 8t-5.5 -1.5t-5.5 -1.5t-20 7q-20 7 -26.5 8.5t-18.5 1.5q0 9 -2 14q-4 -1 -11 -6.5t-11 -7.5q-2 2 -3 16q0 9 -9 9q-1 0 -25 -5q-1 4 -14 25q-1 0 -7 -6q-12 6 -35 17l3 10q2 6 -3 6
q-3 0 -2.5 -1t-3.5 -1q-2 0 -12.5 11.5t-12.5 14.5t-3 10q0 1 -18 23q-1 4 0 9q-3 15 -1 20q3 6 3 8v10q-8 4 -19 -1v21q0 3 16.5 25t20.5 31q45 25 41 55q5 7 8 7q2 0 6 -1.5t8 -1.5q10 0 20.5 21t15.5 21q3 0 3 -1.5t4 -1.5q-6 0 7 3q3 6 11 15q3 2 23 10q0 1 3 10
q9 4 11 14q1 -15 -1 -22q-3 -2 4 -2q3 0 16.5 18t16.5 18q4 0 4.5 -1.5t4.5 -1.5q7 0 7 11q1 0 6 -2.5t9 -2.5t5.5 3.5t2.5 3.5q20 5 75 28q16 6 29 6q4 0 6.5 -1t6.5 -1q25 0 55 9q5 1 15.5 7t13.5 6t7 -1.5t7 -1.5q4 0 20.5 7t20.5 7q3 0 3 -3t4 -3q3 0 5 3t6 3q3 0 6 -3
t6 -3q4 0 6 3t5 3q4 0 4.5 -1.5t4.5 -1.5q2 0 8.5 4t10.5 4q2 0 9 -5q-1 1 22 2q15 1 26 -6v-9q-19 -20 -31 -20q-3 0 -4.5 2.5t-4.5 2.5q-4 0 -19 -11q-19 -14 -23 -17q-2 7 -6 20q-9 -4 -12.5 -11.5t-6.5 -13.5q-1 1 -4 5.5t-4 5.5q-6 -6 -11 -6q2 0 -14 6q-8 -3 -8 -14
q-2 0 -8 -1.5t-9 -1.5t-10 7t-11 7q-3 0 -9 -4.5t-9 -5.5q-46 -15 -60 -15q-9 0 -15 6q-4 -7 -11 -23l-9 9q-1 0 -4 -4.5t-7 -4.5q-5 0 -11 6q-11 -14 -29 -20q-24 -7 -34 -14q-32 -22 -31 -22q-4 0 -3 1.5t-3 1.5q-7 0 -20 -21.5t-24 -21.5q2 1 15 12v7q2 2 -4 2
q-14 0 -18 -16.5t-11 -16.5q-4 0 -4.5 1t-4.5 1q2 0 -46 -41q-1 -2 -2 -7q-19 -7 -23 -25q-6 -30 -6 -42q0 -3 1.5 -13.5t2 -13.5t12.5 -11q0 -4 -5 -10q0 -6 11.5 -11t14.5 -10q-3 -7 1 -27q10 7 16 23q19 -39 25 -39q4 0 6 2.5t3 2.5q5 -5 0 -14q13 -4 33 -6q1 -1 6 -8.5
t9 -7.5q3 0 2.5 1.5t2.5 1.5q4 0 22.5 -11t22.5 -11q3 0 4 1.5t4 1.5t10 -4.5t11 -4.5q3 0 9 1.5t9 1.5v-6v-6q7 -3 26 -1q2 0 12 -9q34 -4 102 -10q18 -1 27 -10q2 0 9 5q11 -1 10 -2q5 -1 10 -1q13 0 51 -4q7 0 24 1t19.5 1t12.5 4.5t13 4.5t6.5 -1.5t7.5 -1.5q28 0 40 17
q9 -9 25 -15q1 -7 7 -20q-4 -11 -15 -12q-28 -3 -50 -3q-4 0 -5 2.5t-5 2.5q-10 0 -20 -8q-4 -1 -10 11q-52 -10 -80 -10q-27 0 -76 10q-4 0 -5 2.5t-4 2.5q-4 0 -4.5 -2.5t-3.5 -2.5q-4 0 -10.5 3.5t-9.5 3.5q-11 1 -27 2q1 -9 1 -11.5t3 -28.5q3 0 55 -14l49 -23
q23 -29 20 -29v-35v-34z" />
    <glyph glyph-name="eacute" unicode="&#xe9;" horiz-adv-x="696" 
d="M657 87q0 -4 -7.5 -15t-8.5 -14q-10 6 -17 6q-3 0 -5.5 -1.5t-5.5 -1.5q-5 0 -7 2.5t-4 4.5q-50 7 -88 7q-4 0 -6 -3t-5.5 -3t-26.5 -1.5t-27 -1.5q-2 0 -12.5 3t-16.5 3q-3 0 -16 -3t-16 -3q-4 0 -18 3t-18 3q-3 0 -37.5 -4t-38.5 -4t-35.5 -3t-35.5 -3q-3 0 -4.5 3
t-5.5 3q-3 0 -13.5 -7.5t-14.5 -7.5q-3 0 -6 3t-7 3t-24.5 -10.5t-24.5 -10.5q-2 0 -6 6t-14 6q-4 0 -9.5 -4.5t-8.5 -4.5h-16v12q-22 2 -67 6q-3 11 9 19q30 19 49 19q3 0 7.5 -1.5t7.5 -1.5t11 6t12 6t6 -4.5t6 -4.5q3 0 9.5 7.5t9.5 7.5q14 0 19 -9q9 -1 9 10q0 5 -5 13
q-5 -5 -12 -5q-3 13 4 31q3 7 -4 11q11 30 11 49q0 4 -12 10q4 3 14 15q-5 23 -4 26q5 11 17 33q1 1 -2 4q-6 -6 -8 -6t-14 3q-9 2 -14 0v10q1 -1 -20 -1q-4 12 -11 12q-4 0 -7.5 -1.5t-7.5 -1.5q-9 0 -25 16q3 3 17 9.5t20 6.5q3 0 5.5 -3t6.5 -3q5 0 27 15q-1 -9 5 -15
q26 13 26 24q0 4 -3.5 12.5t-3.5 15.5l9 6q-2 2 -9 2q5 6 11 18q0 5 -2.5 16.5t-2.5 17.5q0 10 5 17q0 1 -2.5 3t-2.5 6q0 -7 5 17q1 4 -4 17q7 14 14 36v14q2 2 -5 2q-12 0 -30 -12q-1 7 -8 24l-8 -9q-3 0 -6.5 3t-7.5 3t-4.5 -1.5t-4.5 -1.5q-23 0 -34 3q-7 5 -19 12v11
q16 0 23.5 4.5l7.5 4.5q4 0 5.5 -1.5t4.5 -1.5q10 0 15.5 10.5t18.5 10.5q4 0 9 -3t9 -3q3 0 14.5 5.5t14.5 5.5q4 0 4.5 -2.5t4.5 -2.5q3 0 14.5 2.5t14.5 2.5q-1 0 22 -4q1 -4 8 -13q3 0 8.5 5t10.5 6v-9q-3 1 46 1q3 0 4.5 -3t5.5 -3q3 0 15 4.5t16 4.5q3 0 9 -3t10 -3
t19 3t19 3q3 0 8.5 -3t9.5 -3q3 0 18 4.5t19 4.5q3 0 32 -3t32 -3q4 0 22 6t21 6q4 0 6 -3t6 -3q3 0 7 3t7 3q11 0 24 -7q-2 -14 9 -21q-13 -9 -49 -11q-29 0 -58 -1q-17 0 -50 -1q-7 0 -26 -3.5t-23 -3.5q-3 0 -13.5 4.5t-14.5 4.5t-9 -3t-9 -3q-3 0 -4.5 3t-5.5 3
q-3 0 -8 -4.5t-8 -4.5q-4 0 -17 3t-17 3q-3 0 -13 -4t-14 -4q-3 0 -6.5 1t-7.5 1t-19 -5q-18 -6 -23 -7q-4 -7 -14 -22q0 -4 8 -4q-2 -8 -3 -35q0 -20 -13 -34q-1 -18 -4 -55t-3 -39q0 -4 4 -11t4.5 -7.5t0.5 -10.5q7 -6 24 -6h26q9 -1 16 -5l9 9q7 -9 15 -9q2 0 20 9
q7 0 12 -12q6 6 12 6q3 0 5.5 -3t7.5 -3q4 0 9 3t9 3t12 -4t10.5 -4.5t22.5 -0.5q3 0 7.5 4.5t9.5 4.5q3 0 8.5 -3t8.5 -3t13 3t14 3q3 0 7.5 -3t8.5 -3q10 0 26 15q1 0 12 -12q6 3 21 18q10 -9 19 -18q12 -12 12 -20q0 -7 -11 -26q-1 0 -9.5 -3.5t-12.5 -3.5q-2 0 -9 3
t-11 1q3 3 3 8h-18.5h-15.5q-4 0 -24 7.5t-23 7.5t-12 -3t-13 -3t-33.5 3t-33.5 3q-3 0 -24.5 -6t-25.5 -6q-3 0 -13.5 4.5t-14.5 4.5q-6 0 -24 -12q-5 -1 -10 12q-12 -3 -36 -8q1 -21 -2 -40q4 -3 10 -9q-3 -13 -3 -37q3 2 6 2q0 -3 -1 -17.5t-1 -21.5q6 -7 6 -12
q0 -4 -6 -14.5t-6 -14.5v-32q8 1 25 0q3 -1 17 -8q11 -6 15 -6q3 0 8 3t8.5 3t39 1.5t38.5 1.5t12 -4.5t15 -4.5q3 0 24 4.5t24 4.5t16.5 -1.5t17.5 -1.5q31 0 77 4l4.5 2.5t8.5 2.5t6.5 -3t6.5 -3t32.5 7.5t32.5 7.5q9 0 11 -2t9.5 -10t7.5 -12zM291 698q6 4 17.5 13.5
t17.5 13.5l1 -2q2 -4 19 7q2 1 8.5 5.5t12.5 7.5q1 1 2 6q5 -2 13 -5q7 8 25 44q2 0 24.5 -14t23.5 -16q2 -3 0 -5.5t0 -5.5t13 -6q-9 1 -25 -2q-7 -4 -4 -15q-13 -3 -30 -3t-48 -18l-21 -13q-13 6 -18 3q-6 -3 -15.5 -12.5t-15.5 -13.5q-5 0 -12 -2q-2 -2 -3.5 -6t-3.5 -5
q-11 -2 -26 -9q-2 -3 -8 -8q-10 -6 -16 6q-6 9 -6 17q0 11 13 23.5t24 12.5q-5 0 15 -3q10 -2 23 5z" />
    <glyph glyph-name="egrave" unicode="&#xe8;" horiz-adv-x="696" 
d="M657 87q0 -4 -7.5 -15t-8.5 -14q-10 6 -17 6q-3 0 -5.5 -1.5t-5.5 -1.5q-5 0 -7 2.5t-4 4.5q-50 7 -88 7q-4 0 -6 -3t-5.5 -3t-26.5 -1.5t-27 -1.5q-2 0 -12.5 3t-16.5 3q-3 0 -16 -3t-16 -3q-4 0 -18 3t-18 3q-3 0 -37.5 -4t-38.5 -4t-35.5 -3t-35.5 -3q-3 0 -4.5 3
t-5.5 3q-3 0 -13.5 -7.5t-14.5 -7.5q-3 0 -6 3t-7 3t-24.5 -10.5t-24.5 -10.5q-2 0 -6 6t-14 6q-4 0 -9.5 -4.5t-8.5 -4.5h-16v12q-22 2 -67 6q-3 11 9 19q30 19 49 19q3 0 7.5 -1.5t7.5 -1.5t11 6t12 6t6 -4.5t6 -4.5q3 0 9.5 7.5t9.5 7.5q14 0 19 -9q9 -1 9 10q0 5 -5 13
q-5 -5 -12 -5q-3 13 4 31q3 7 -4 11q11 30 11 49q0 4 -12 10q4 3 14 15q-5 23 -4 26q5 11 17 33q1 1 -2 4q-6 -6 -8 -6t-14 3q-9 2 -14 0v10q1 -1 -20 -1q-4 12 -11 12q-4 0 -7.5 -1.5t-7.5 -1.5q-9 0 -25 16q3 3 17 9.5t20 6.5q3 0 5.5 -3t6.5 -3q5 0 27 15q-1 -9 5 -15
q26 13 26 24q0 4 -3.5 12.5t-3.5 15.5l9 6q-2 2 -9 2q5 6 11 18q0 5 -2.5 16.5t-2.5 17.5q0 10 5 17q0 1 -2.5 3t-2.5 6q0 -7 5 17q1 4 -4 17q7 14 14 36v14q2 2 -5 2q-12 0 -30 -12q-1 7 -8 24l-8 -9q-3 0 -6.5 3t-7.5 3t-4.5 -1.5t-4.5 -1.5q-23 0 -34 3q-7 5 -19 12v11
q16 0 23.5 4.5l7.5 4.5q4 0 5.5 -1.5t4.5 -1.5q10 0 15.5 10.5t18.5 10.5q4 0 9 -3t9 -3q3 0 14.5 5.5t14.5 5.5q4 0 4.5 -2.5t4.5 -2.5q3 0 14.5 2.5t14.5 2.5q-1 0 22 -4q1 -4 8 -13q3 0 8.5 5t10.5 6v-9q-3 1 46 1q3 0 4.5 -3t5.5 -3q3 0 15 4.5t16 4.5q3 0 9 -3t10 -3
t19 3t19 3q3 0 8.5 -3t9.5 -3q3 0 18 4.5t19 4.5q3 0 32 -3t32 -3q4 0 22 6t21 6q4 0 6 -3t6 -3q3 0 7 3t7 3q11 0 24 -7q-2 -14 9 -21q-13 -9 -49 -11q-29 0 -58 -1q-17 0 -50 -1q-7 0 -26 -3.5t-23 -3.5q-3 0 -13.5 4.5t-14.5 4.5t-9 -3t-9 -3q-3 0 -4.5 3t-5.5 3
q-3 0 -8 -4.5t-8 -4.5q-4 0 -17 3t-17 3q-3 0 -13 -4t-14 -4q-3 0 -6.5 1t-7.5 1t-19 -5q-18 -6 -23 -7q-4 -7 -14 -22q0 -4 8 -4q-2 -8 -3 -35q0 -20 -13 -34q-1 -18 -4 -55t-3 -39q0 -4 4 -11t4.5 -7.5t0.5 -10.5q7 -6 24 -6h26q9 -1 16 -5l9 9q7 -9 15 -9q2 0 20 9
q7 0 12 -12q6 6 12 6q3 0 5.5 -3t7.5 -3q4 0 9 3t9 3t12 -4t10.5 -4.5t22.5 -0.5q3 0 7.5 4.5t9.5 4.5q3 0 8.5 -3t8.5 -3t13 3t14 3q3 0 7.5 -3t8.5 -3q10 0 26 15q1 0 12 -12q6 3 21 18q10 -9 19 -18q12 -12 12 -20q0 -7 -11 -26q-1 0 -9.5 -3.5t-12.5 -3.5q-2 0 -9 3
t-11 1q3 3 3 8h-18.5h-15.5q-4 0 -24 7.5t-23 7.5t-12 -3t-13 -3t-33.5 3t-33.5 3q-3 0 -24.5 -6t-25.5 -6q-3 0 -13.5 4.5t-14.5 4.5q-6 0 -24 -12q-5 -1 -10 12q-12 -3 -36 -8q1 -21 -2 -40q4 -3 10 -9q-3 -13 -3 -37q3 2 6 2q0 -3 -1 -17.5t-1 -21.5q6 -7 6 -12
q0 -4 -6 -14.5t-6 -14.5v-32q8 1 25 0q3 -1 17 -8q11 -6 15 -6q3 0 8 3t8.5 3t39 1.5t38.5 1.5t12 -4.5t15 -4.5q3 0 24 4.5t24 4.5t16.5 -1.5t17.5 -1.5q31 0 77 4l4.5 2.5t8.5 2.5t6.5 -3t6.5 -3t32.5 7.5t32.5 7.5q9 0 11 -2t9.5 -10t7.5 -12zM381 722q-6 4 -19.5 6.5
t-20.5 6.5v-2q-2 -4 -19 7q-3 1 -9 5.5t-12 7.5q-1 1 -3 6q-4 -2 -13 -5q-6 8 -24 44q-2 0 -24.5 -14t-24.5 -16q-1 -3 1 -5q1 -3 0 -6q-2 -3 -13 -6q9 1 25 -2q6 -4 4 -15q12 -3 29 -3t48 -18l22 -13q13 6 18 3q6 -3 15.5 -12.5t15.5 -13.5q4 0 12 -2q2 -2 3.5 -6t3.5 -5
q10 -2 26 -9q2 -3 7 -8q7 -3 16 16q-7 10 -34 31q-7 4 -11 12t-19 16z" />
    <glyph glyph-name="ecircumflex" unicode="&#xea;" horiz-adv-x="696" 
d="M657 87q0 -4 -7.5 -15t-8.5 -14q-10 6 -17 6q-3 0 -5.5 -1.5t-5.5 -1.5q-5 0 -7 2.5t-4 4.5q-50 7 -88 7q-4 0 -6 -3t-5.5 -3t-26.5 -1.5t-27 -1.5q-2 0 -12.5 3t-16.5 3q-3 0 -16 -3t-16 -3q-4 0 -18 3t-18 3q-3 0 -37.5 -4t-38.5 -4t-35.5 -3t-35.5 -3q-3 0 -4.5 3
t-5.5 3q-3 0 -13.5 -7.5t-14.5 -7.5q-3 0 -6 3t-7 3t-24.5 -10.5t-24.5 -10.5q-2 0 -6 6t-14 6q-4 0 -9.5 -4.5t-8.5 -4.5h-16v12q-22 2 -67 6q-3 11 9 19q30 19 49 19q3 0 7.5 -1.5t7.5 -1.5t11 6t12 6t6 -4.5t6 -4.5q3 0 9.5 7.5t9.5 7.5q14 0 19 -9q9 -1 9 10q0 5 -5 13
q-5 -5 -12 -5q-3 13 4 31q3 7 -4 11q11 30 11 49q0 4 -12 10q4 3 14 15q-5 23 -4 26q5 11 17 33q1 1 -2 4q-6 -6 -8 -6t-14 3q-9 2 -14 0v10q1 -1 -20 -1q-4 12 -11 12q-4 0 -7.5 -1.5t-7.5 -1.5q-9 0 -25 16q3 3 17 9.5t20 6.5q3 0 5.5 -3t6.5 -3q5 0 27 15q-1 -9 5 -15
q26 13 26 24q0 4 -3.5 12.5t-3.5 15.5l9 6q-2 2 -9 2q5 6 11 18q0 5 -2.5 16.5t-2.5 17.5q0 10 5 17q0 1 -2.5 3t-2.5 6q0 -7 5 17q1 4 -4 17q7 14 14 36v14q2 2 -5 2q-12 0 -30 -12q-1 7 -8 24l-8 -9q-3 0 -6.5 3t-7.5 3t-4.5 -1.5t-4.5 -1.5q-23 0 -34 3q-7 5 -19 12v11
q16 0 23.5 4.5l7.5 4.5q4 0 5.5 -1.5t4.5 -1.5q10 0 15.5 10.5t18.5 10.5q4 0 9 -3t9 -3q3 0 14.5 5.5t14.5 5.5q4 0 4.5 -2.5t4.5 -2.5q3 0 14.5 2.5t14.5 2.5q-1 0 22 -4q1 -4 8 -13q3 0 8.5 5t10.5 6v-9q-3 1 46 1q3 0 4.5 -3t5.5 -3q3 0 15 4.5t16 4.5q3 0 9 -3t10 -3
t19 3t19 3q3 0 8.5 -3t9.5 -3q3 0 18 4.5t19 4.5q3 0 32 -3t32 -3q4 0 22 6t21 6q4 0 6 -3t6 -3q3 0 7 3t7 3q11 0 24 -7q-2 -14 9 -21q-13 -9 -49 -11q-29 0 -58 -1q-17 0 -50 -1q-7 0 -26 -3.5t-23 -3.5q-3 0 -13.5 4.5t-14.5 4.5t-9 -3t-9 -3q-3 0 -4.5 3t-5.5 3
q-3 0 -8 -4.5t-8 -4.5q-4 0 -17 3t-17 3q-3 0 -13 -4t-14 -4q-3 0 -6.5 1t-7.5 1t-19 -5q-18 -6 -23 -7q-4 -7 -14 -22q0 -4 8 -4q-2 -8 -3 -35q0 -20 -13 -34q-1 -18 -4 -55t-3 -39q0 -4 4 -11t4.5 -7.5t0.5 -10.5q7 -6 24 -6h26q9 -1 16 -5l9 9q7 -9 15 -9q2 0 20 9
q7 0 12 -12q6 6 12 6q3 0 5.5 -3t7.5 -3q4 0 9 3t9 3t12 -4t10.5 -4.5t22.5 -0.5q3 0 7.5 4.5t9.5 4.5q3 0 8.5 -3t8.5 -3t13 3t14 3q3 0 7.5 -3t8.5 -3q10 0 26 15q1 0 12 -12q6 3 21 18q10 -9 19 -18q12 -12 12 -20q0 -7 -11 -26q-1 0 -9.5 -3.5t-12.5 -3.5q-2 0 -9 3
t-11 1q3 3 3 8h-18.5h-15.5q-4 0 -24 7.5t-23 7.5t-12 -3t-13 -3t-33.5 3t-33.5 3q-3 0 -24.5 -6t-25.5 -6q-3 0 -13.5 4.5t-14.5 4.5q-6 0 -24 -12q-5 -1 -10 12q-12 -3 -36 -8q1 -21 -2 -40q4 -3 10 -9q-3 -13 -3 -37q3 2 6 2q0 -3 -1 -17.5t-1 -21.5q6 -7 6 -12
q0 -4 -6 -14.5t-6 -14.5v-32q8 1 25 0q3 -1 17 -8q11 -6 15 -6q3 0 8 3t8.5 3t39 1.5t38.5 1.5t12 -4.5t15 -4.5q3 0 24 4.5t24 4.5t16.5 -1.5t17.5 -1.5q31 0 77 4l4.5 2.5t8.5 2.5t6.5 -3t6.5 -3t32.5 7.5t32.5 7.5q9 0 11 -2t9.5 -10t7.5 -12zM382 771h-7q4 -4 14 -11
q13 -11 15 -7v2q11 -3 32 -13q12 -8 15 -16t9 -12q15 -11 27 -31q-7 -19 -12 -16q-1 1 -6 8q-9 3 -21 9q-2 1 -3 5t-4 5.5l-8 4t-12.5 12t-12.5 12.5q-4 3 -14 -3l-18 13q-25 18 -40 18t-40 -18l-17 -13q-10 6 -14 3q-5 -3 -12.5 -12.5t-12.5 -13.5q-4 0 -10 -2
q-2 -2 -2.5 -6t-2.5 -5q-9 -2 -21 -9q-2 -3 -6 -8q-5 -3 -13 16q6 10 28 31q5 4 8.5 12t14.5 16q11 3 32 13l1 -2q1 -4 15 7q4 3 14 11h-7q4 0 11 6q-2 3 -1 11q2 4 29 23l2 7l4 -2q3 2 4 2l3 -7q27 -19 29 -23q1 -3 -1 -5q-1 -3 0 -6q2 -3 11 -6z" />
    <glyph glyph-name="edieresis" unicode="&#xeb;" horiz-adv-x="696" 
d="M657 87q0 -4 -7.5 -15t-8.5 -14q-10 6 -17 6q-3 0 -5.5 -1.5t-5.5 -1.5q-5 0 -7 2.5t-4 4.5q-50 7 -88 7q-4 0 -6 -3t-5.5 -3t-26.5 -1.5t-27 -1.5q-2 0 -12.5 3t-16.5 3q-3 0 -16 -3t-16 -3q-4 0 -18 3t-18 3q-3 0 -37.5 -4t-38.5 -4t-35.5 -3t-35.5 -3q-3 0 -4.5 3
t-5.5 3q-3 0 -13.5 -7.5t-14.5 -7.5q-3 0 -6 3t-7 3t-24.5 -10.5t-24.5 -10.5q-2 0 -6 6t-14 6q-4 0 -9.5 -4.5t-8.5 -4.5h-16v12q-22 2 -67 6q-3 11 9 19q30 19 49 19q3 0 7.5 -1.5t7.5 -1.5t11 6t12 6t6 -4.5t6 -4.5q3 0 9.5 7.5t9.5 7.5q14 0 19 -9q9 -1 9 10q0 5 -5 13
q-5 -5 -12 -5q-3 13 4 31q3 7 -4 11q11 30 11 49q0 4 -12 10q4 3 14 15q-5 23 -4 26q5 11 17 33q1 1 -2 4q-6 -6 -8 -6t-14 3q-9 2 -14 0v10q1 -1 -20 -1q-4 12 -11 12q-4 0 -7.5 -1.5t-7.5 -1.5q-9 0 -25 16q3 3 17 9.5t20 6.5q3 0 5.5 -3t6.5 -3q5 0 27 15q-1 -9 5 -15
q26 13 26 24q0 4 -3.5 12.5t-3.5 15.5l9 6q-2 2 -9 2q5 6 11 18q0 5 -2.5 16.5t-2.5 17.5q0 10 5 17q0 1 -2.5 3t-2.5 6q0 -7 5 17q1 4 -4 17q7 14 14 36v14q2 2 -5 2q-12 0 -30 -12q-1 7 -8 24l-8 -9q-3 0 -6.5 3t-7.5 3t-4.5 -1.5t-4.5 -1.5q-23 0 -34 3q-7 5 -19 12v11
q16 0 23.5 4.5l7.5 4.5q4 0 5.5 -1.5t4.5 -1.5q10 0 15.5 10.5t18.5 10.5q4 0 9 -3t9 -3q3 0 14.5 5.5t14.5 5.5q4 0 4.5 -2.5t4.5 -2.5q3 0 14.5 2.5t14.5 2.5q-1 0 22 -4q1 -4 8 -13q3 0 8.5 5t10.5 6v-9q-3 1 46 1q3 0 4.5 -3t5.5 -3q3 0 15 4.5t16 4.5q3 0 9 -3t10 -3
t19 3t19 3q3 0 8.5 -3t9.5 -3q3 0 18 4.5t19 4.5q3 0 32 -3t32 -3q4 0 22 6t21 6q4 0 6 -3t6 -3q3 0 7 3t7 3q11 0 24 -7q-2 -14 9 -21q-13 -9 -49 -11q-29 0 -58 -1q-17 0 -50 -1q-7 0 -26 -3.5t-23 -3.5q-3 0 -13.5 4.5t-14.5 4.5t-9 -3t-9 -3q-3 0 -4.5 3t-5.5 3
q-3 0 -8 -4.5t-8 -4.5q-4 0 -17 3t-17 3q-3 0 -13 -4t-14 -4q-3 0 -6.5 1t-7.5 1t-19 -5q-18 -6 -23 -7q-4 -7 -14 -22q0 -4 8 -4q-2 -8 -3 -35q0 -20 -13 -34q-1 -18 -4 -55t-3 -39q0 -4 4 -11t4.5 -7.5t0.5 -10.5q7 -6 24 -6h26q9 -1 16 -5l9 9q7 -9 15 -9q2 0 20 9
q7 0 12 -12q6 6 12 6q3 0 5.5 -3t7.5 -3q4 0 9 3t9 3t12 -4t10.5 -4.5t22.5 -0.5q3 0 7.5 4.5t9.5 4.5q3 0 8.5 -3t8.5 -3t13 3t14 3q3 0 7.5 -3t8.5 -3q10 0 26 15q1 0 12 -12q6 3 21 18q10 -9 19 -18q12 -12 12 -20q0 -7 -11 -26q-1 0 -9.5 -3.5t-12.5 -3.5q-2 0 -9 3
t-11 1q3 3 3 8h-18.5h-15.5q-4 0 -24 7.5t-23 7.5t-12 -3t-13 -3t-33.5 3t-33.5 3q-3 0 -24.5 -6t-25.5 -6q-3 0 -13.5 4.5t-14.5 4.5q-6 0 -24 -12q-5 -1 -10 12q-12 -3 -36 -8q1 -21 -2 -40q4 -3 10 -9q-3 -13 -3 -37q3 2 6 2q0 -3 -1 -17.5t-1 -21.5q6 -7 6 -12
q0 -4 -6 -14.5t-6 -14.5v-32q8 1 25 0q3 -1 17 -8q11 -6 15 -6q3 0 8 3t8.5 3t39 1.5t38.5 1.5t12 -4.5t15 -4.5q3 0 24 4.5t24 4.5t16.5 -1.5t17.5 -1.5q31 0 77 4l4.5 2.5t8.5 2.5t6.5 -3t6.5 -3t32.5 7.5t32.5 7.5q9 0 11 -2t9.5 -10t7.5 -12zM238 720q0 16 11 27t26 11
q16 0 27 -11t11 -27q0 -15 -11 -26t-27 -11q-15 0 -26 11t-11 26zM382 719q0 16 12 27.5t28 11.5q17 0 29 -11.5t12 -27.5t-12 -27.5t-29 -11.5q-16 0 -28 11.5t-12 27.5z" />
    <glyph glyph-name="iacute" unicode="&#xed;" horiz-adv-x="143" 
d="M51 711l1 -1q1 -3 15 5q4 3 17 11q1 1 2 5q3 -1 10 -4q6 6 20 35q2 0 20 -11t19 -13q-2 -2 -1 -8q2 -3 11 -6q-8 1 -20 -1q-6 -3 -4 -12q-10 -3 -22 -3q-15 0 -40 -14l-17 -10q-10 4 -14 2q-5 -3 -12.5 -10.5t-11.5 -9t-11 -3.5q-1 -1 -2 -4t-3 -4q-8 -2 -21 -7
q-1 -3 -6 -7q-8 -4 -13 4t-5 15q0 9 10.5 19t19.5 10q-4 0 12 -3q8 -1 17.5 5.5zM115 487q-8 -14 -16 -23q2 -20 2 -32q0 -22 -10 -55q-13 -40 -15 -54q-2 -9 -2 -102q0 -81 10 -91l-12 -8q4 -10 26 -43q-37 -27 -50 -27l-9 5l-12 -8l11 23q-2 16 -15 21q8 23 15 46
q5 17 5 55v81l12 14q-3 21 -3 55q0 4 -4 19q-4 11 -1 18l-12 10q12 31 12 78q0 16 -14 18l-7 9q9 18 28 53l-1 11q16 23 14 45q9 13 15 19q17 -14 18 -22q-2 12 -2 -26q0 -10 6 -16q-3 -37 -3 -33q0 -15 14 -40z" />
    <glyph glyph-name="igrave" unicode="&#xec;" horiz-adv-x="163" 
d="M107 486q0 -5 -16 -23q5 -44 -3 -64q0 -7 -2 -22q-8 -19 -18 -55q-2 -10 4 -51q1 -8 -2.5 -26t-3.5 -25q0 -10 2 -28.5t2 -27.5q0 -11 -2 -20q1 -5 7 -15q-3 0 -11 -9q4 -9 26 -42q-4 -8 -21 -12q-6 -4 -11 -8q-12 -8 -18 -8q-4 0 -4.5 3t-4.5 3t-12 -8q10 19 10 22
q0 17 -14 21q7 10 16 33q4 14 4 69v81q12 9 12 14q0 12 -7 28q2 6 0 12q4 7 4 15q0 6 -3 16t-3 14t1 7q-1 7 -12 10q0 2 3.5 10.5t3.5 10.5q0 8 2 25t2 20v19q-2 9 -13 11q-2 3 -7 9q9 17 28 52q-1 5 -1 12q1 9 6 27l5 9q4 6 3 9q2 7 15 19q19 -16 19 -27q0 -3 -1.5 -10
t-1.5 -11q0 -10 6 -16q-3 -37 -3 -41q1 -5 7.5 -16.5t6.5 -15.5zM131 702q-6 4 -19.5 6.5t-20.5 6.5v-2q-2 -4 -19 7q-3 1 -9 5.5t-12 7.5q-1 1 -3 6q-4 -2 -13 -5q-6 8 -24 44q-2 0 -24.5 -14t-24.5 -16q-1 -3 1 -5q1 -3 0 -6q-2 -3 -13 -6q9 1 25 -2q6 -4 4 -15
q12 -3 29 -3t48 -18l22 -13q13 6 18 3q6 -3 15.5 -12.5t15.5 -13.5q4 0 12 -2q2 -2 3.5 -6t3.5 -5q10 -2 26 -9q2 -3 7 -8q7 -3 16 16q-7 10 -34 31q-7 4 -11 12t-19 16z" />
    <glyph glyph-name="icircumflex" unicode="&#xee;" horiz-adv-x="163" 
d="M100 495q0 -5 -17 -23q6 -43 -3 -63q0 -8 -2 -23q-7 -19 -18 -55q-1 -9 4 -51q1 -8 -2 -26t-3 -25q0 -10 2 -28.5t2 -26.5q0 -12 -3 -21q1 -5 8 -15q-3 0 -12 -8q4 -10 26 -43q-4 -8 -21 -11q-5 -4 -11 -9q-12 -8 -18 -8q-4 0 -4.5 3t-4.5 3t-12 -8q11 19 11 23
q0 16 -14 21q6 9 16 32q3 14 4 69v81q11 9 11 14q0 12 -7 29q3 5 0 11q4 8 4 15q0 6 -3 16t-3 14t1 7q0 7 -12 10q0 3 4 11t4 11q0 8 2 24.5t2 19.5q0 18 -1 19q-2 9 -13 11q-2 3 -7 9q9 18 28 52q-1 5 -1 12q12 16 16 26q3 8 -2 19q3 8 16 19q18 -16 18 -27q0 -3 -1.5 -10
t-1.5 -11q0 -10 7 -16q-3 -37 -3 -40q1 -6 7.5 -17.5t6.5 -15.5zM103 755h-6q4 -3 11 -9q12 -8 13 -6v2q9 -2 26 -10q9 -7 11.5 -13t7.5 -10q11 -8 21 -24q-6 -16 -10 -13l-5 6q-6 2 -16 7q-2 1 -2.5 4.5t-3 4.5t-6.5 3t-10 9.5t-10 10.5q-3 2 -12 -3l-13 10q-20 15 -32 15
t-33 -15l-13 -10q-9 5 -12 3q-3 -3 -9.5 -10.5t-9.5 -9t-8 -3.5q-1 -4 -5 -9q-6 -1 -16 -7q-2 -2 -5 -6q-4 -3 -10 13q4 7 22 24q4 4 6.5 10t12.5 13q8 2 25 10v-2q2 -2 13 6q3 2 11 9h-6q4 0 9 5q-1 2 -1 8q2 3 23 19l2 5q1 0 4 -1q2 1 3 1l2 -5q21 -16 23 -19q-1 -2 -1 -8
q2 -3 9 -5z" />
    <glyph glyph-name="idieresis" unicode="&#xef;" horiz-adv-x="147" 
d="M-1 697q0 30 30 30t30 -30t-30 -30t-30 30zM107 696q0 31 32 31t32 -31t-32 -31t-32 31zM116 476q-8 -15 -16 -24q2 -19 2 -31q0 -23 -10 -56q-13 -40 -15 -53q-2 -9 -2 -102q0 -82 10 -91l-12 -9q4 -10 26 -43q-37 -27 -50 -27l-9 6l-12 -9l11 23q-1 17 -14 21l14 46
q6 17 6 56v81l11 13q-3 22 -3 56q0 4 -4 17t-1 20l-12 10q12 31 12 77q0 16 -14 18l-7 9q9 18 28 53l-1 11q17 23 14 46q9 13 15 19q17 -15 18 -22q-2 11 -2 -26q0 -10 7 -17q-4 -36 -4 -33q0 -15 14 -39z" />
    <glyph glyph-name="ntilde" unicode="&#xf1;" horiz-adv-x="603" 
d="M546 35q0 2 -10 7t-10 6v0q-18 19 -18 27q0 6 6.5 10.5t11.5 9.5q1 12 2 18q3 11 10 16l-4 1q-9 3 -16 10l45 33v4l-1 1q-5 -1 -8.5 -2t-7.5 -1q-6 0 -8 3q-1 2 1 5l1 1q3 4 -7 12l-2 2l-3 3q0 10 6 36q-4 4 -9 13q-1 13 -4 36q0 1 -5 6.5t-5 9.5t7.5 19t7.5 19
q0 90 11 103q3 3 8 10l-2 2q-5 3 -9 7l9 9q-8 4 -11 11q7 12 20 34q-9 5 -8 12q7 26 20 52q-6 3 -16 13l4 4l-3 -1q-6 -1 -11 4q4 6 14 20v14q-6 2 -16 2q-12 0 -16 -4q-1 -13 -5 -19q-11 -19 -33 -23q3 -34 -4 -47q-16 -28 -16 -35q0 -1 5.5 -6t5.5 -10t-6 -12l-2 -3
q-3 -2 -3 -4t3 -3.5t4 -3.5q1 -5 0 -11l-1 -4q5 -2 16 -6q-2 -14 -18 -24q-2 -10 -1 -29h1q3 0 8 -5q-4 -8 -1 -18l6 -16q0 -5 -2.5 -15t-3.5 -15q12 -5 11 -11q-11 -18 -12 -43q0 7 0 -44q-4 -3 -8 -5q-7 -3 -16 -15q-5 -22 -17 -22q-13 0 -34 27q-18 21 -25 37
q-6 1 -24 27q-7 6 -20 19q-3 4 -5 19l-2 1l-3 2q-5 3 -6 5q-20 34 -33 47q-6 6 -28 12q-7 7 -16 20v10l1 2q-18 14 -22 23q-19 43 -34 42h-5q-3 0 -7 1q-6 10 -22 27q-1 6 0 12l1 4q-20 5 -31 12q5 6 6 8q-37 18 -37 29q0 6 4 10q-8 5 -14 5q-4 0 -14.5 -6.5t-14.5 -6.5
t-30 11t-28 11q-6 0 -12 -6l22 -22q6 -2 18 -12q4 -5 5 -19q1 -1 11 -4q3 -1 9 -4q0 -5 -2 -12q-1 -2 -5 -6q4 -5 10 -23q1 -4 4 -10q-3 -3 -8 -6q7 -2 10 -6q0 -6 -4 -12h1q8 -1 15 -7q-4 -8 -13 -17q-3 -2 2 -12l-4 -4q-3 -6 -4 -17h7q16 0 16 -16q0 -11 -9 -20
q5 -13 5 -33q0 -39 -17 -62q2 -9 1 -11q-4 -3 -11 -11q5 -3 11 -9q-39 -77 -39 -80q0 -6 13 -18q-9 -6 -21 -16q5 -8 15.5 -19t13.5 -11q4 0 16 5.5t17 5.5q-3 0 16 -5q1 11 8 21q-4 9 -1 15l12 15q0 2 -4 6t-4 9q2 1 4 3q-9 4 -9 12q0 3 3.5 11.5t2.5 12.5q-9 0 -16 9
q5 2 12 6v2l1 3q0 3 1 5q-3 9 0 15q5 4 17 14q-5 1 -10 6q8 6 9 12q2 10 4 21.5t10 18.5q-5 5 -13 16q14 17 14 43q0 3 -5.5 11t-5.5 12q0 5 11.5 23.5t21.5 18.5q16 0 30 -9q0 -5 -3 -8v-1q17 -13 50 -40q26 -24 36 -45q4 -9 14 -14q15 -7 18 -9q0 -1 2 -16l13 -13t18 -15
q-4 -4 -4 -5q18 4 31 -30q4 -9 6 -12q21 -8 23 -26q1 -3 2 -8q7 -3 17 -13q10 -15 21 -44q11 -1 20 -12q-4 -4 -4 -11q0 -14 9 -21q7 -1 19 -4q15 -8 29 -28l22 -34q6 -8 29 -20q-1 0 4 20zM109 652l-1 1l-1 -6q0 -5 6 -9l6 7l-8 1q7 -12 20 -12l11 2l24 25l-13 3l3 -6
q-1 -1 -2 -1q4 0 13 5q0 10 20 22l-5 1l6 2l21 -1v1q17 0 16 -4q9 -3 14 -11l16 -3q5 -6 15 -19l9 -3l3 -4l1 -6q4 -1 33 -12q18 -7 35 -7q14 0 42 14q34 15 30 29q27 14 27 42q0 14 -21 14q-7 0 -21 -2l-1 -11q-1 -1 -11 -18h-7l-1 -8l-29 -7l16 -4l-35 -8l6 -1h-4
q-6 0 -25.5 11.5t-24.5 17.5l19 7l-39 8l-9 10q-3 0 -5 2q-7 1 -29 8q-18 6 -30 6t-32.5 -11.5t-30.5 -21.5q-15 -1 -9 -13h-3q-6 1 -7 -5q-1 -4 1 -11q-6 -4 -9 -9v-5z" />
    <glyph glyph-name="oacute" unicode="&#xf3;" horiz-adv-x="658" 
d="M591 416q-8 -27 -8 -50q-1 -4 -5 -11q-1 -11 -6 -33q-10 -26 -32 -78q-7 -15 -12 -15q-3 0 -5 1.5l-2 1.5l-3 -15q-10 -17 -21 -15q-2 -1 -2 -13q-4 1 -12 -8.5t-10 -16.5q-1 2 -4 2q-11 0 -32 -18t-62 -33q-3 -1 -6 -13q-7 8 -13 8q-2 0 -18 -6.5t-18 -6.5q-3 0 -3.5 1
t-3.5 1t-14 -5.5t-13 -5.5q-3 0 -3 1.5t-3 1.5q-2 0 -7.5 -5.5t-8.5 -5.5t-3.5 3t-2.5 3q-3 0 -4.5 -3t-4.5 -3t-3.5 3t-2.5 3q-5 0 -11 -8l-11 13q-8 -7 -27 -19v9q1 -1 -23 -1q-2 0 -2 6q-1 3 -2 5q-4 -5 -12 -16v9q-11 3 -27 18q-3 -3 -9 -8l-7 8q-4 -5 -7 -5q3 19 -2 19
q-3 0 -2.5 -1.5t-2.5 -1.5l-17 15q-5 1 -14 5q-8 21 -12 21l-15 -3q0 2 -3 19q-6 7 -18 17q-1 4 -1 54q-4 3 -13 2q-1 7 1.5 16t2.5 14q0 9 -8 17q-1 7 5 12q0 8 -3 23q0 1 6 12q-1 4 -1 10q5 5 11 14q-10 19 6 55q3 1 10 8q4 8 0 16q15 9 18 9q-1 0 3 -5q2 6 8 20
q19 16 56 48q4 5 11 15q18 14 28 14q3 0 4 -1t4 -1q11 0 12 18q23 -1 27.5 2t15.5 17t18 14q3 0 3.5 -1.5t3.5 -1.5t8 11q8 18 9 19q4 -5 10 -5q2 0 5.5 1.5t6.5 1.5t11 -5.5t11 -5.5q2 0 5 1t5 1q3 0 17.5 -9.5t17.5 -9.5t3.5 1.5t3.5 1.5t7.5 -4t7.5 -4t3 1.5t2 1.5
q3 0 5 -4.5t3 -6.5q5 1 13 -1q2 -1 6 -5.5t7 -4.5l13 8q5 -3 9 -16q7 -1 21 -10t15 -9q3 0 2.5 1.5t2.5 1.5q2 0 11 -11t12 -11q2 0 1.5 1.5t2.5 1.5t7.5 -6t6 -7t1.5 -13q6 -1 14 -3.5t7 -17.5q7 8 9 8q3 -30 26 -27q6 -8 -4 -25q3 -9 9 -10.5t11 -2.5zM541 355v23
q-8 1 -11 10t-5 17q-7 6 -16 16q-9 21 -8 34q0 -3 -6 -3q-2 0 -4 4t-4 4q-3 0 -2.5 -1.5t-2.5 -1.5q-2 0 -15 16q-3 4 -2 19q-1 0 -4.5 -1t-6.5 -1q-7 0 -19 9.5t-12 17.5q-2 -3 -7 -3q-7 0 -14 8q-3 5 -7 10q-14 10 -31 10q-3 6 -8 12l-15 6q-2 0 -3.5 -1t-3.5 -1
q-3 0 -10.5 5t-10.5 5q-9 0 -12 -4q-6 -7 -18 -17q-7 -3 -25 -16.5t-20 -13.5q-3 0 -7.5 2.5t-7.5 2.5t-5 -4t-5 -4q-2 0 -5 3t-6 3q-2 0 -14.5 -9.5t-14.5 -9.5q-3 0 -2.5 1t-1.5 1q-3 0 -13.5 -14.5t-12.5 -14.5q-3 0 -2.5 1t-2.5 1q-8 0 -37 -30q-7 -13 -22 -31
q2 -2 2 -6t-14 -29q2 -13 -2 -21q-10 -22 -10 -25q0 -8 11 -19q-8 -6 -7 -16q1 -15 2 -13q-4 -8 -4 -10q0 -7 9 -18q-5 -4 -11 -11q2 -1 10 -3q3 -1 5 -8q-5 -11 -4 -14q20 -5 20 -17q0 -5 -1 -10q13 0 21 -8q1 -6 2 -14q2 -1 10 -7.5t11 -6.5q2 0 2 2.5t3 2.5t12.5 -13.5
t12.5 -13.5q2 0 6.5 3t6.5 3q3 0 5.5 -4t4.5 -4q9 11 11 10q4 0 6 -7q14 -1 21 -7q13 -10 10 -10q9 11 17 11q3 0 10 -4t9 -4q5 0 50 9q13 6 35 13q24 21 29 21q6 0 10 -5q5 7 10.5 15.5t7.5 8.5q3 0 3 -1.5t3 -1.5q12 0 21 14q14 21 23 29q3 0 8 2q14 13 33 37q2 4 5 21
q3 14 5 14q3 0 2.5 -1.5t2.5 -1.5q7 0 18 28q9 25 9 30zM241 688q6 4 17.5 13.5t17.5 13.5l1 -2q2 -4 19 7q2 1 8.5 5.5t12.5 7.5q1 1 2 6q5 -2 13 -5q7 8 25 44q2 0 24.5 -14t23.5 -16q2 -3 0 -5.5t0 -5.5t13 -6q-9 1 -25 -2q-7 -4 -4 -15q-13 -3 -30 -3t-48 -18l-21 -13
q-13 6 -18 3q-6 -3 -15.5 -12.5t-15.5 -13.5q-5 0 -12 -2q-2 -2 -3.5 -6t-3.5 -5q-11 -2 -26 -9q-2 -3 -8 -8q-10 -6 -16 6q-6 9 -6 17q0 11 13 23.5t24 12.5q-5 0 15 -3q10 -2 23 5z" />
    <glyph glyph-name="ograve" unicode="&#xf2;" horiz-adv-x="658" 
d="M591 416q-8 -27 -8 -50q-1 -4 -5 -11q-1 -11 -6 -33q-10 -26 -32 -78q-7 -15 -12 -15q-3 0 -5 1.5l-2 1.5l-3 -15q-10 -17 -21 -15q-2 -1 -2 -13q-4 1 -12 -8.5t-10 -16.5q-1 2 -4 2q-11 0 -32 -18t-62 -33q-3 -1 -6 -13q-7 8 -13 8q-2 0 -18 -6.5t-18 -6.5q-3 0 -3.5 1
t-3.5 1t-14 -5.5t-13 -5.5q-3 0 -3 1.5t-3 1.5q-2 0 -7.5 -5.5t-8.5 -5.5t-3.5 3t-2.5 3q-3 0 -4.5 -3t-4.5 -3t-3.5 3t-2.5 3q-5 0 -11 -8l-11 13q-8 -7 -27 -19v9q1 -1 -23 -1q-2 0 -2 6q-1 3 -2 5q-4 -5 -12 -16v9q-11 3 -27 18q-3 -3 -9 -8l-7 8q-4 -5 -7 -5q3 19 -2 19
q-3 0 -2.5 -1.5t-2.5 -1.5l-17 15q-5 1 -14 5q-8 21 -12 21l-15 -3q0 2 -3 19q-6 7 -18 17q-1 4 -1 54q-4 3 -13 2q-1 7 1.5 16t2.5 14q0 9 -8 17q-1 7 5 12q0 8 -3 23q0 1 6 12q-1 4 -1 10q5 5 11 14q-10 19 6 55q3 1 10 8q4 8 0 16q15 9 18 9q-1 0 3 -5q2 6 8 20
q19 16 56 48q4 5 11 15q18 14 28 14q3 0 4 -1t4 -1q11 0 12 18q23 -1 27.5 2t15.5 17t18 14q3 0 3.5 -1.5t3.5 -1.5t8 11q8 18 9 19q4 -5 10 -5q2 0 5.5 1.5t6.5 1.5t11 -5.5t11 -5.5q2 0 5 1t5 1q3 0 17.5 -9.5t17.5 -9.5t3.5 1.5t3.5 1.5t7.5 -4t7.5 -4t3 1.5t2 1.5
q3 0 5 -4.5t3 -6.5q5 1 13 -1q2 -1 6 -5.5t7 -4.5l13 8q5 -3 9 -16q7 -1 21 -10t15 -9q3 0 2.5 1.5t2.5 1.5q2 0 11 -11t12 -11q2 0 1.5 1.5t2.5 1.5t7.5 -6t6 -7t1.5 -13q6 -1 14 -3.5t7 -17.5q7 8 9 8q3 -30 26 -27q6 -8 -4 -25q3 -9 9 -10.5t11 -2.5zM541 355v23
q-8 1 -11 10t-5 17q-7 6 -16 16q-9 21 -8 34q0 -3 -6 -3q-2 0 -4 4t-4 4q-3 0 -2.5 -1.5t-2.5 -1.5q-2 0 -15 16q-3 4 -2 19q-1 0 -4.5 -1t-6.5 -1q-7 0 -19 9.5t-12 17.5q-2 -3 -7 -3q-7 0 -14 8q-3 5 -7 10q-14 10 -31 10q-3 6 -8 12l-15 6q-2 0 -3.5 -1t-3.5 -1
q-3 0 -10.5 5t-10.5 5q-9 0 -12 -4q-6 -7 -18 -17q-7 -3 -25 -16.5t-20 -13.5q-3 0 -7.5 2.5t-7.5 2.5t-5 -4t-5 -4q-2 0 -5 3t-6 3q-2 0 -14.5 -9.5t-14.5 -9.5q-3 0 -2.5 1t-1.5 1q-3 0 -13.5 -14.5t-12.5 -14.5q-3 0 -2.5 1t-2.5 1q-8 0 -37 -30q-7 -13 -22 -31
q2 -2 2 -6t-14 -29q2 -13 -2 -21q-10 -22 -10 -25q0 -8 11 -19q-8 -6 -7 -16q1 -15 2 -13q-4 -8 -4 -10q0 -7 9 -18q-5 -4 -11 -11q2 -1 10 -3q3 -1 5 -8q-5 -11 -4 -14q20 -5 20 -17q0 -5 -1 -10q13 0 21 -8q1 -6 2 -14q2 -1 10 -7.5t11 -6.5q2 0 2 2.5t3 2.5t12.5 -13.5
t12.5 -13.5q2 0 6.5 3t6.5 3q3 0 5.5 -4t4.5 -4q9 11 11 10q4 0 6 -7q14 -1 21 -7q13 -10 10 -10q9 11 17 11q3 0 10 -4t9 -4q5 0 50 9q13 6 35 13q24 21 29 21q6 0 10 -5q5 7 10.5 15.5t7.5 8.5q3 0 3 -1.5t3 -1.5q12 0 21 14q14 21 23 29q3 0 8 2q14 13 33 37q2 4 5 21
q3 14 5 14q3 0 2.5 -1.5t2.5 -1.5q7 0 18 28q9 25 9 30zM351 702q-6 4 -19.5 6.5t-20.5 6.5v-2q-2 -4 -19 7q-3 1 -9 5.5t-12 7.5q-1 1 -3 6q-4 -2 -13 -5q-6 8 -24 44q-2 0 -24.5 -14t-24.5 -16q-1 -3 1 -5q1 -3 0 -6q-2 -3 -13 -6q9 1 25 -2q6 -4 4 -15q12 -3 29 -3
t48 -18l22 -13q13 6 18 3q6 -3 15.5 -12.5t15.5 -13.5q4 0 12 -2q2 -2 3.5 -6t3.5 -5q10 -2 26 -9q2 -3 7 -8q7 -3 16 16q-7 10 -34 31q-7 4 -11 12t-19 16z" />
    <glyph glyph-name="ocircumflex" unicode="&#xf4;" horiz-adv-x="658" 
d="M591 416q-8 -27 -8 -50q-1 -4 -5 -11q-1 -11 -6 -33q-10 -26 -32 -78q-7 -15 -12 -15q-3 0 -5 1.5l-2 1.5l-3 -15q-10 -17 -21 -15q-2 -1 -2 -13q-4 1 -12 -8.5t-10 -16.5q-1 2 -4 2q-11 0 -32 -18t-62 -33q-3 -1 -6 -13q-7 8 -13 8q-2 0 -18 -6.5t-18 -6.5q-3 0 -3.5 1
t-3.5 1t-14 -5.5t-13 -5.5q-3 0 -3 1.5t-3 1.5q-2 0 -7.5 -5.5t-8.5 -5.5t-3.5 3t-2.5 3q-3 0 -4.5 -3t-4.5 -3t-3.5 3t-2.5 3q-5 0 -11 -8l-11 13q-8 -7 -27 -19v9q1 -1 -23 -1q-2 0 -2 6q-1 3 -2 5q-4 -5 -12 -16v9q-11 3 -27 18q-3 -3 -9 -8l-7 8q-4 -5 -7 -5q3 19 -2 19
q-3 0 -2.5 -1.5t-2.5 -1.5l-17 15q-5 1 -14 5q-8 21 -12 21l-15 -3q0 2 -3 19q-6 7 -18 17q-1 4 -1 54q-4 3 -13 2q-1 7 1.5 16t2.5 14q0 9 -8 17q-1 7 5 12q0 8 -3 23q0 1 6 12q-1 4 -1 10q5 5 11 14q-10 19 6 55q3 1 10 8q4 8 0 16q15 9 18 9q-1 0 3 -5q2 6 8 20
q19 16 56 48q4 5 11 15q18 14 28 14q3 0 4 -1t4 -1q11 0 12 18q23 -1 27.5 2t15.5 17t18 14q3 0 3.5 -1.5t3.5 -1.5t8 11q8 18 9 19q4 -5 10 -5q2 0 5.5 1.5t6.5 1.5t11 -5.5t11 -5.5q2 0 5 1t5 1q3 0 17.5 -9.5t17.5 -9.5t3.5 1.5t3.5 1.5t7.5 -4t7.5 -4t3 1.5t2 1.5
q3 0 5 -4.5t3 -6.5q5 1 13 -1q2 -1 6 -5.5t7 -4.5l13 8q5 -3 9 -16q7 -1 21 -10t15 -9q3 0 2.5 1.5t2.5 1.5q2 0 11 -11t12 -11q2 0 1.5 1.5t2.5 1.5t7.5 -6t6 -7t1.5 -13q6 -1 14 -3.5t7 -17.5q7 8 9 8q3 -30 26 -27q6 -8 -4 -25q3 -9 9 -10.5t11 -2.5zM541 355v23
q-8 1 -11 10t-5 17q-7 6 -16 16q-9 21 -8 34q0 -3 -6 -3q-2 0 -4 4t-4 4q-3 0 -2.5 -1.5t-2.5 -1.5q-2 0 -15 16q-3 4 -2 19q-1 0 -4.5 -1t-6.5 -1q-7 0 -19 9.5t-12 17.5q-2 -3 -7 -3q-7 0 -14 8q-3 5 -7 10q-14 10 -31 10q-3 6 -8 12l-15 6q-2 0 -3.5 -1t-3.5 -1
q-3 0 -10.5 5t-10.5 5q-9 0 -12 -4q-6 -7 -18 -17q-7 -3 -25 -16.5t-20 -13.5q-3 0 -7.5 2.5t-7.5 2.5t-5 -4t-5 -4q-2 0 -5 3t-6 3q-2 0 -14.5 -9.5t-14.5 -9.5q-3 0 -2.5 1t-1.5 1q-3 0 -13.5 -14.5t-12.5 -14.5q-3 0 -2.5 1t-2.5 1q-8 0 -37 -30q-7 -13 -22 -31
q2 -2 2 -6t-14 -29q2 -13 -2 -21q-10 -22 -10 -25q0 -8 11 -19q-8 -6 -7 -16q1 -15 2 -13q-4 -8 -4 -10q0 -7 9 -18q-5 -4 -11 -11q2 -1 10 -3q3 -1 5 -8q-5 -11 -4 -14q20 -5 20 -17q0 -5 -1 -10q13 0 21 -8q1 -6 2 -14q2 -1 10 -7.5t11 -6.5q2 0 2 2.5t3 2.5t12.5 -13.5
t12.5 -13.5q2 0 6.5 3t6.5 3q3 0 5.5 -4t4.5 -4q9 11 11 10q4 0 6 -7q14 -1 21 -7q13 -10 10 -10q9 11 17 11q3 0 10 -4t9 -4q5 0 50 9q13 6 35 13q24 21 29 21q6 0 10 -5q5 7 10.5 15.5t7.5 8.5q3 0 3 -1.5t3 -1.5q12 0 21 14q14 21 23 29q3 0 8 2q14 13 33 37q2 4 5 21
q3 14 5 14q3 0 2.5 -1.5t2.5 -1.5q7 0 18 28q9 25 9 30zM332 731h-7q4 -4 14 -11q13 -11 15 -7v2q11 -3 32 -13q12 -8 15 -16t9 -12q15 -11 27 -31q-7 -19 -12 -16q-1 1 -6 8q-9 3 -21 9q-2 1 -3 5t-4 5.5l-8 4t-12.5 12t-12.5 12.5q-4 3 -14 -3l-18 13q-25 18 -40 18
t-40 -18l-17 -13q-10 6 -14 3q-5 -3 -12.5 -12.5t-12.5 -13.5q-4 0 -10 -2q-2 -2 -2.5 -6t-2.5 -5q-9 -2 -21 -9q-2 -3 -6 -8q-5 -3 -13 16q6 10 28 31q5 4 8.5 12t14.5 16q11 3 32 13l1 -2q1 -4 15 7q4 3 14 11h-7q4 0 11 6q-2 3 -1 11q2 4 29 23l2 7l4 -2q3 2 4 2l3 -7
q27 -19 29 -23q1 -3 -1 -5q-1 -3 0 -6q2 -3 11 -6z" />
    <glyph glyph-name="odieresis" unicode="&#xf6;" horiz-adv-x="658" 
d="M591 416q-8 -27 -8 -50q-1 -4 -5 -11q-1 -11 -6 -33q-10 -26 -32 -78q-7 -15 -12 -15q-3 0 -5 1.5l-2 1.5l-3 -15q-10 -17 -21 -15q-2 -1 -2 -13q-4 1 -12 -8.5t-10 -16.5q-1 2 -4 2q-11 0 -32 -18t-62 -33q-3 -1 -6 -13q-7 8 -13 8q-2 0 -18 -6.5t-18 -6.5q-3 0 -3.5 1
t-3.5 1t-14 -5.5t-13 -5.5q-3 0 -3 1.5t-3 1.5q-2 0 -7.5 -5.5t-8.5 -5.5t-3.5 3t-2.5 3q-3 0 -4.5 -3t-4.5 -3t-3.5 3t-2.5 3q-5 0 -11 -8l-11 13q-8 -7 -27 -19v9q1 -1 -23 -1q-2 0 -2 6q-1 3 -2 5q-4 -5 -12 -16v9q-11 3 -27 18q-3 -3 -9 -8l-7 8q-4 -5 -7 -5q3 19 -2 19
q-3 0 -2.5 -1.5t-2.5 -1.5l-17 15q-5 1 -14 5q-8 21 -12 21l-15 -3q0 2 -3 19q-6 7 -18 17q-1 4 -1 54q-4 3 -13 2q-1 7 1.5 16t2.5 14q0 9 -8 17q-1 7 5 12q0 8 -3 23q0 1 6 12q-1 4 -1 10q5 5 11 14q-10 19 6 55q3 1 10 8q4 8 0 16q15 9 18 9q-1 0 3 -5q2 6 8 20
q19 16 56 48q4 5 11 15q18 14 28 14q3 0 4 -1t4 -1q11 0 12 18q23 -1 27.5 2t15.5 17t18 14q3 0 3.5 -1.5t3.5 -1.5t8 11q8 18 9 19q4 -5 10 -5q2 0 5.5 1.5t6.5 1.5t11 -5.5t11 -5.5q2 0 5 1t5 1q3 0 17.5 -9.5t17.5 -9.5t3.5 1.5t3.5 1.5t7.5 -4t7.5 -4t3 1.5t2 1.5
q3 0 5 -4.5t3 -6.5q5 1 13 -1q2 -1 6 -5.5t7 -4.5l13 8q5 -3 9 -16q7 -1 21 -10t15 -9q3 0 2.5 1.5t2.5 1.5q2 0 11 -11t12 -11q2 0 1.5 1.5t2.5 1.5t7.5 -6t6 -7t1.5 -13q6 -1 14 -3.5t7 -17.5q7 8 9 8q3 -30 26 -27q6 -8 -4 -25q3 -9 9 -10.5t11 -2.5zM541 355v23
q-8 1 -11 10t-5 17q-7 6 -16 16q-9 21 -8 34q0 -3 -6 -3q-2 0 -4 4t-4 4q-3 0 -2.5 -1.5t-2.5 -1.5q-2 0 -15 16q-3 4 -2 19q-1 0 -4.5 -1t-6.5 -1q-7 0 -19 9.5t-12 17.5q-2 -3 -7 -3q-7 0 -14 8q-3 5 -7 10q-14 10 -31 10q-3 6 -8 12l-15 6q-2 0 -3.5 -1t-3.5 -1
q-3 0 -10.5 5t-10.5 5q-9 0 -12 -4q-6 -7 -18 -17q-7 -3 -25 -16.5t-20 -13.5q-3 0 -7.5 2.5t-7.5 2.5t-5 -4t-5 -4q-2 0 -5 3t-6 3q-2 0 -14.5 -9.5t-14.5 -9.5q-3 0 -2.5 1t-1.5 1q-3 0 -13.5 -14.5t-12.5 -14.5q-3 0 -2.5 1t-2.5 1q-8 0 -37 -30q-7 -13 -22 -31
q2 -2 2 -6t-14 -29q2 -13 -2 -21q-10 -22 -10 -25q0 -8 11 -19q-8 -6 -7 -16q1 -15 2 -13q-4 -8 -4 -10q0 -7 9 -18q-5 -4 -11 -11q2 -1 10 -3q3 -1 5 -8q-5 -11 -4 -14q20 -5 20 -17q0 -5 -1 -10q13 0 21 -8q1 -6 2 -14q2 -1 10 -7.5t11 -6.5q2 0 2 2.5t3 2.5t12.5 -13.5
t12.5 -13.5q2 0 6.5 3t6.5 3q3 0 5.5 -4t4.5 -4q9 11 11 10q4 0 6 -7q14 -1 21 -7q13 -10 10 -10q9 11 17 11q3 0 10 -4t9 -4q5 0 50 9q13 6 35 13q24 21 29 21q6 0 10 -5q5 7 10.5 15.5t7.5 8.5q3 0 3 -1.5t3 -1.5q12 0 21 14q14 21 23 29q3 0 8 2q14 13 33 37q2 4 5 21
q3 14 5 14q3 0 2.5 -1.5t2.5 -1.5q7 0 18 28q9 25 9 30zM168 680q0 16 11 27t26 11q16 0 27 -11t11 -27q0 -15 -11 -26t-27 -11q-15 0 -26 11t-11 26zM312 679q0 16 12 27.5t28 11.5q17 0 29 -11.5t12 -27.5t-12 -27.5t-29 -11.5q-16 0 -28 11.5t-12 27.5z" />
    <glyph glyph-name="otilde" unicode="&#xf5;" horiz-adv-x="658" 
d="M591 416q-8 -27 -8 -50q-1 -4 -5 -11q-1 -11 -6 -33q-10 -26 -32 -78q-7 -15 -12 -15q-3 0 -5 1.5l-2 1.5l-3 -15q-10 -17 -21 -15q-2 -1 -2 -13q-4 1 -12 -8.5t-10 -16.5q-1 2 -4 2q-11 0 -32 -18t-62 -33q-3 -1 -6 -13q-7 8 -13 8q-2 0 -18 -6.5t-18 -6.5q-3 0 -3.5 1
t-3.5 1t-14 -5.5t-13 -5.5q-3 0 -3 1.5t-3 1.5q-2 0 -7.5 -5.5t-8.5 -5.5t-3.5 3t-2.5 3q-3 0 -4.5 -3t-4.5 -3t-3.5 3t-2.5 3q-5 0 -11 -8l-11 13q-8 -7 -27 -19v9q1 -1 -23 -1q-2 0 -2 6q-1 3 -2 5q-4 -5 -12 -16v9q-11 3 -27 18q-3 -3 -9 -8l-7 8q-4 -5 -7 -5q3 19 -2 19
q-3 0 -2.5 -1.5t-2.5 -1.5l-17 15q-5 1 -14 5q-8 21 -12 21l-15 -3q0 2 -3 19q-6 7 -18 17q-1 4 -1 54q-4 3 -13 2q-1 7 1.5 16t2.5 14q0 9 -8 17q-1 7 5 12q0 8 -3 23q0 1 6 12q-1 4 -1 10q5 5 11 14q-10 19 6 55q3 1 10 8q4 8 0 16q15 9 18 9q-1 0 3 -5q2 6 8 20
q19 16 56 48q4 5 11 15q18 14 28 14q3 0 4 -1t4 -1q11 0 12 18q23 -1 27.5 2t15.5 17t18 14q3 0 3.5 -1.5t3.5 -1.5t8 11q8 18 9 19q4 -5 10 -5q2 0 5.5 1.5t6.5 1.5t11 -5.5t11 -5.5q2 0 5 1t5 1q3 0 17.5 -9.5t17.5 -9.5t3.5 1.5t3.5 1.5t7.5 -4t7.5 -4t3 1.5t2 1.5
q3 0 5 -4.5t3 -6.5q5 1 13 -1q2 -1 6 -5.5t7 -4.5l13 8q5 -3 9 -16q7 -1 21 -10t15 -9q3 0 2.5 1.5t2.5 1.5q2 0 11 -11t12 -11q2 0 1.5 1.5t2.5 1.5t7.5 -6t6 -7t1.5 -13q6 -1 14 -3.5t7 -17.5q7 8 9 8q3 -30 26 -27q6 -8 -4 -25q3 -9 9 -10.5t11 -2.5zM541 355v23
q-8 1 -11 10t-5 17q-7 6 -16 16q-9 21 -8 34q0 -3 -6 -3q-2 0 -4 4t-4 4q-3 0 -2.5 -1.5t-2.5 -1.5q-2 0 -15 16q-3 4 -2 19q-1 0 -4.5 -1t-6.5 -1q-7 0 -19 9.5t-12 17.5q-2 -3 -7 -3q-7 0 -14 8q-3 5 -7 10q-14 10 -31 10q-3 6 -8 12l-15 6q-2 0 -3.5 -1t-3.5 -1
q-3 0 -10.5 5t-10.5 5q-9 0 -12 -4q-6 -7 -18 -17q-7 -3 -25 -16.5t-20 -13.5q-3 0 -7.5 2.5t-7.5 2.5t-5 -4t-5 -4q-2 0 -5 3t-6 3q-2 0 -14.5 -9.5t-14.5 -9.5q-3 0 -2.5 1t-1.5 1q-3 0 -13.5 -14.5t-12.5 -14.5q-3 0 -2.5 1t-2.5 1q-8 0 -37 -30q-7 -13 -22 -31
q2 -2 2 -6t-14 -29q2 -13 -2 -21q-10 -22 -10 -25q0 -8 11 -19q-8 -6 -7 -16q1 -15 2 -13q-4 -8 -4 -10q0 -7 9 -18q-5 -4 -11 -11q2 -1 10 -3q3 -1 5 -8q-5 -11 -4 -14q20 -5 20 -17q0 -5 -1 -10q13 0 21 -8q1 -6 2 -14q2 -1 10 -7.5t11 -6.5q2 0 2 2.5t3 2.5t12.5 -13.5
t12.5 -13.5q2 0 6.5 3t6.5 3q3 0 5.5 -4t4.5 -4q9 11 11 10q4 0 6 -7q14 -1 21 -7q13 -10 10 -10q9 11 17 11q3 0 10 -4t9 -4q5 0 50 9q13 6 35 13q24 21 29 21q6 0 10 -5q5 7 10.5 15.5t7.5 8.5q3 0 3 -1.5t3 -1.5q12 0 21 14q14 21 23 29q3 0 8 2q14 13 33 37q2 4 5 21
q3 14 5 14q3 0 2.5 -1.5t2.5 -1.5q7 0 18 28q9 25 9 30zM109 692l-1 1q-1 -10 5 -15l6 7l-8 1q9 -16 31 -10l24 25l-13 3l3 -6q-1 0 -1 -1h-1q4 0 13 5l3 8l17 14l-5 1l6 2l21 -1v1q7 1 14 0q3 -1 2 -4q9 -3 14 -11l16 -3q2 -4 8 -9l2 -2q3 -3 5 -8l9 -3q1 -2 3 -4l1 -6
l7 -2l12 -6q4 0 9 -2q6 -9 40 -9q10 0 21 5l23 8q6 3 16 12q14 12 12 18q5 2 7 4q19 19 20 36q1 14 -16 16q-8 1 -26 -2l-1 -11q-1 -1 -11 -18h-7l-1 -8l-29 -7l16 -4q-5 -1 -35 -8l6 -1h-4l-7 1q-3 3 -9 6.5t-15 6.5q-2 2 -5 5.5t-12 8.5l-2 1l19 7l-39 8l-9 10h-4l-1 2
q-4 1 -13 3l-4 2q-9 5 -42 9q-17 -6 -32.5 -12t-30.5 -21q-15 -1 -9 -13q-6 1 -9 -3q-4 -4 0 -13q-5 -4 -9 -9v-5z" />
    <glyph glyph-name="uacute" unicode="&#xfa;" horiz-adv-x="442" 
d="M411 607q-8 -11 -20 -32q-1 -21 -7 -63q-1 -3 3 -10q2 -7 -6 -16q0 -1 3 -7q2 -17 -2 -61q0 -2 -3.5 -8.5t-3.5 -9.5t5.5 -7.5t5.5 -7.5q0 -34 -7 -58q-7 -11 -20 -36q9 -5 19 -5q-9 -12 -25 -32q3 -10 0 -16q-4 -4 -9.5 -16t-16.5 -39q-3 -4 -13 -3l-4 -4q0 -2 5 -8
q-2 -1 -21 -19q-15 -13 -18 -13t-4.5 1t-4.5 1q-4 0 -21 -10q-1 1 -2.5 4t-2.5 4q-2 -2 -11 -10t-13 -8q-2 0 -9 2.5t-10 2.5q-4 0 -11 -4t-10 -4t-3.5 1.5t-4.5 1.5q-8 0 -8 -8q-1 0 -14 21q-4 -1 -12 -8.5t-11 -7.5q-4 0 -8.5 1.5t-7.5 1.5h-9q-4 16 -9 26l-10 -10h-15
q1 2 -5 12q-14 0 -21 4q8 8 8 11q0 4 -8.5 12t-6.5 21q-1 2 -6 7.5t-5 8.5q0 24 -1 29q0 4 1 10q-6 16 -8 37q-2 32 -2 34q7 7 6 12q-9 9 -9 18q0 4 2 11.5t2 11.5q0 6 -3 11q-3 11 -12 30q3 0 7 7t4 9q0 8 -13 14q0 1 5 6q-3 9 -16 15q3 -1 11.5 4t12.5 9q-10 10 -26 18
q6 6 14 17q1 8 5 23q4 12 17 27.5t22 15.5q6 0 9 -1q10 -10 10 -15q0 -4 -3.5 -7t-3.5 -4v-16q5 -1 13 -5q-1 -7 -10 -17l4 -20q-7 -11 -7 -10t15 1q0 -10 -6 -10q-4 0 -5 1t-2 1l-5 -4q5 -5 18 -4q-3 -8 -12 -19q4 -4 10 -4q0 -2 -4.5 -6.5t-5.5 -8.5q-6 -24 -6 -52
q0 -3 3 -6t4 -6q4 -10 3 -27q-1 -21 0 -25q2 -9 14 -21q1 -4 -5 -16q2 -2 12 -2q-5 -16 -2 -30l-4 -2l4 -2q0 -1 -1 -5.5t-1 -7.5q4 -5 18 -13q-6 -7 -6 -14q0 -9 18 -30q1 1 8.5 7t10.5 6t6.5 -3.5t6.5 -3.5t3 1t4 1q3 0 10.5 -4t11.5 -4q3 0 15.5 4t15.5 4t4.5 -1t4.5 -1
l4.5 4t13.5 3q3 3 -4 10q21 7 40 27.5t24 39.5q5 2 14 9l6 24q5 17 15 25q3 66 6 66l9 -3l2 2q0 4 -2 15t-2 15q0 1 7 12q2 28 -2 41q4 7 10 19q2 6 -3 10q-2 5 7 13v67q-8 6 -18 21q4 4 -2 4q-4 0 -4.5 -1t-1.5 -1q3 6 6 19q8 9 31 9q15 0 25 -3q-3 -5 -3 -18q3 -3 26 0z
M161 688q6 4 17.5 13.5t17.5 13.5l1 -2q2 -4 19 7q2 1 8.5 5.5t12.5 7.5q1 1 2 6q5 -2 13 -5q7 8 25 44q2 0 24.5 -14t23.5 -16q2 -3 0 -5.5t0 -5.5t13 -6q-9 1 -25 -2q-7 -4 -4 -15q-13 -3 -30 -3t-48 -18l-21 -13q-13 6 -18 3q-6 -3 -15.5 -12.5t-15.5 -13.5q-5 0 -12 -2
q-2 -2 -3.5 -6t-3.5 -5q-11 -2 -26 -9q-2 -3 -8 -8q-10 -6 -16 6q-6 9 -6 17q0 11 13 23.5t24 12.5q-5 0 15 -3q10 -2 23 5z" />
    <glyph glyph-name="ugrave" unicode="&#xf9;" horiz-adv-x="442" 
d="M411 607q-8 -11 -20 -32q-1 -21 -7 -63q-1 -3 3 -10q2 -7 -6 -16q0 -1 3 -7q2 -17 -2 -61q0 -2 -3.5 -8.5t-3.5 -9.5t5.5 -7.5t5.5 -7.5q0 -34 -7 -58q-7 -11 -20 -36q9 -5 19 -5q-9 -12 -25 -32q3 -10 0 -16q-4 -4 -9.5 -16t-16.5 -39q-3 -4 -13 -3l-4 -4q0 -2 5 -8
q-2 -1 -21 -19q-15 -13 -18 -13t-4.5 1t-4.5 1q-4 0 -21 -10q-1 1 -2.5 4t-2.5 4q-2 -2 -11 -10t-13 -8q-2 0 -9 2.5t-10 2.5q-4 0 -11 -4t-10 -4t-3.5 1.5t-4.5 1.5q-8 0 -8 -8q-1 0 -14 21q-4 -1 -12 -8.5t-11 -7.5q-4 0 -8.5 1.5t-7.5 1.5h-9q-4 16 -9 26l-10 -10h-15
q1 2 -5 12q-14 0 -21 4q8 8 8 11q0 4 -8.5 12t-6.5 21q-1 2 -6 7.5t-5 8.5q0 24 -1 29q0 4 1 10q-6 16 -8 37q-2 32 -2 34q7 7 6 12q-9 9 -9 18q0 4 2 11.5t2 11.5q0 6 -3 11q-3 11 -12 30q3 0 7 7t4 9q0 8 -13 14q0 1 5 6q-3 9 -16 15q3 -1 11.5 4t12.5 9q-10 10 -26 18
q6 6 14 17q1 8 5 23q4 12 17 27.5t22 15.5q6 0 9 -1q10 -10 10 -15q0 -4 -3.5 -7t-3.5 -4v-16q5 -1 13 -5q-1 -7 -10 -17l4 -20q-7 -11 -7 -10t15 1q0 -10 -6 -10q-4 0 -5 1t-2 1l-5 -4q5 -5 18 -4q-3 -8 -12 -19q4 -4 10 -4q0 -2 -4.5 -6.5t-5.5 -8.5q-6 -24 -6 -52
q0 -3 3 -6t4 -6q4 -10 3 -27q-1 -21 0 -25q2 -9 14 -21q1 -4 -5 -16q2 -2 12 -2q-5 -16 -2 -30l-4 -2l4 -2q0 -1 -1 -5.5t-1 -7.5q4 -5 18 -13q-6 -7 -6 -14q0 -9 18 -30q1 1 8.5 7t10.5 6t6.5 -3.5t6.5 -3.5t3 1t4 1q3 0 10.5 -4t11.5 -4q3 0 15.5 4t15.5 4t4.5 -1t4.5 -1
l4.5 4t13.5 3q3 3 -4 10q21 7 40 27.5t24 39.5q5 2 14 9l6 24q5 17 15 25q3 66 6 66l9 -3l2 2q0 4 -2 15t-2 15q0 1 7 12q2 28 -2 41q4 7 10 19q2 6 -3 10q-2 5 7 13v67q-8 6 -18 21q4 4 -2 4q-4 0 -4.5 -1t-1.5 -1q3 6 6 19q8 9 31 9q15 0 25 -3q-3 -5 -3 -18q3 -3 26 0z
M241 702q-6 4 -19.5 6.5t-20.5 6.5v-2q-2 -4 -19 7q-3 1 -9 5.5t-12 7.5q-1 1 -3 6q-4 -2 -13 -5q-6 8 -24 44q-2 0 -24.5 -14t-24.5 -16q-1 -3 1 -5q1 -3 0 -6q-2 -3 -13 -6q9 1 25 -2q6 -4 4 -15q12 -3 29 -3t48 -18l22 -13q13 6 18 3q6 -3 15.5 -12.5t15.5 -13.5
q4 0 12 -2q2 -2 3.5 -6t3.5 -5q10 -2 26 -9q2 -3 7 -8q7 -3 16 16q-7 10 -34 31q-7 4 -11 12t-19 16z" />
    <glyph glyph-name="ucircumflex" unicode="&#xfb;" horiz-adv-x="442" 
d="M411 587q-8 -11 -20 -32q-1 -11 -7 -43q-1 -3 3 -10q2 -7 -6 -16q0 -1 3 -7q2 -17 -2 -61q0 -2 -3.5 -8.5t-3.5 -9.5t5.5 -7.5t5.5 -7.5q0 -34 -7 -58q-7 -11 -20 -36q9 -5 19 -5q-9 -12 -25 -32q3 -10 0 -16q-4 -4 -9.5 -16t-16.5 -39q-3 -4 -13 -3l-4 -4q0 -2 5 -8
q-2 -1 -21 -19q-15 -13 -18 -13t-4.5 1t-4.5 1q-4 0 -21 -10q-1 1 -2.5 4t-2.5 4q-2 -2 -11 -10t-13 -8q-2 0 -9 2.5t-10 2.5q-4 0 -11 -4t-10 -4t-3.5 1.5t-4.5 1.5q-8 0 -8 -8q-1 0 -14 21q-4 -1 -12 -8.5t-11 -7.5q-4 0 -8.5 1.5t-7.5 1.5h-9q-4 16 -9 26l-10 -10h-15
q1 2 -5 12q-14 0 -21 4q8 8 8 11q0 4 -8.5 12t-6.5 21q-1 2 -6 7.5t-5 8.5q0 24 -1 29q0 4 1 10q-6 16 -8 37q-2 32 -2 34q7 7 6 12q-9 9 -9 18q0 4 2 11.5t2 11.5q0 6 -3 11q-3 11 -12 30q3 0 7 7t4 9q0 8 -13 14q0 1 5 6q-3 9 -16 15q3 -1 11.5 4t12.5 9q-10 10 -26 18
q6 6 14 17q1 8 5 23q4 12 17 27.5t22 15.5q6 0 9 -1q10 -10 10 -15q0 -4 -3.5 -7t-3.5 -4v-16q5 -1 13 -5q-1 -7 -10 -17l4 -20q-7 -11 -7 -10t15 1q0 -10 -6 -10q-4 0 -5 1t-2 1l-5 -4q5 -5 18 -4q-3 -8 -12 -19q4 -4 10 -4q0 -2 -4.5 -6.5t-5.5 -8.5q-6 -24 -6 -52
q0 -3 3 -6t4 -6q4 -10 3 -27q-1 -21 0 -25q2 -9 14 -21q1 -4 -5 -16q2 -2 12 -2q-5 -16 -2 -30l-4 -2l4 -2q0 -1 -1 -5.5t-1 -7.5q4 -5 18 -13q-6 -7 -6 -14q0 -9 18 -30q1 1 8.5 7t10.5 6t6.5 -3.5t6.5 -3.5t3 1t4 1q3 0 10.5 -4t11.5 -4q3 0 15.5 4t15.5 4t4.5 -1t4.5 -1
l4.5 4t13.5 3q3 3 -4 10q21 7 40 27.5t24 39.5q5 2 14 9l6 24q5 17 15 25q3 66 6 66l9 -3l2 2q0 4 -2 15t-2 15q0 1 7 12q2 28 -2 41q4 7 10 19q2 6 -3 10q-2 5 7 13v47q-8 6 -18 21q4 4 -2 4q-4 0 -4.5 -1t-1.5 -1q3 6 6 19q8 9 31 9q15 0 25 -3q-3 -5 -3 -18q3 -3 26 0z
M234 736h-8q5 -4 14 -11q14 -10 16 -7v2q11 -3 32 -13q12 -8 15 -16t9 -12q15 -10 27 -31q-7 -19 -12 -16q-1 1 -6 8q-8 3 -19 9q-2 1 -4 5t-5 5.5l-8 4t-13 12t-12 12.5t-14 -3l-18 13q-25 18 -40 18t-40 -18l-17 -13q-11 6 -14 3q-5 -3 -12.5 -12.5t-12.5 -13.5
q-4 0 -10 -2q-2 -2 -3 -6t-2 -5q-9 -2 -21 -9q-2 -3 -6 -8q-5 -3 -13 16q6 10 27 31q6 4 9.5 12t14.5 16q11 3 32 13l1 -2q1 -3 15 7q3 3 14 11h-7q4 1 10 7q-1 2 0 10q2 4 29 23l2 7q1 -1 4 -2q3 2 4 2l3 -7q27 -19 28 -23q2 -3 0.5 -5.5t-0.5 -4.5q2 -4 11 -7z" />
    <glyph glyph-name="udieresis" unicode="&#xfc;" horiz-adv-x="442" 
d="M411 607q-15 -36 -27 -95l3 -10l-6 -16q5 -7 5 -25q0 -35 -11 -61l11 -15q-2 -32 -27 -94l19 -5q-8 -11 -25 -32v-16q-8 -11 -15 -27q-10 -27 -11 -28l-13 -3l-4 -4l5 -8q-9 -7 -39 -32l-9 2q-12 -5 -21 -10l-5 8l-24 -18l-19 5l-21 -8l-8 3l-8 -8q-1 0 -14 21l-23 -16
q-16 4 -25 3q-4 16 -9 26l-10 -10h-15l-5 12l-21 4l8 11l-15 20v13l-11 16l1 11q-2 10 -1 28q-5 14 -7 35q-2 32 -3 36l6 12q-9 8 -9 17q0 3 2 11.5t2 13.5q0 18 -15 40l11 16l-13 14l5 6l-16 15l24 13q-10 10 -26 18l14 17q4 20 14 40q14 26 30 26l9 -1q10 -10 10 -17
l-7 -9v-16l13 -5l-10 -17l4 -20l-7 -10l15 1l-6 -10l-7 2l-5 -4l18 -4l-12 -19l10 -4q-13 -18 -16 -67q9 -15 9 -57q0 -22 15 -28l-5 -16l12 -2q-5 -18 -2 -30l-4 -2l4 -2l-2 -13l18 -13q-6 -7 -6 -14q0 -9 18 -30l19 13l13 -7l7 2l22 -8q32 12 40 6q3 8 18 7l-4 10
q21 7 39.5 26.5t24.5 40.5l14 9q3 13 7 27t14 22q1 22 6 66l9 -3l2 2l-4 30q12 17 5 53l10 19l-3 10l7 13v67q-25 25 -26 23q5 19 11.5 23.5t25.5 4.5q14 0 25 -3l-3 -18q6 -2 26 0zM78 680q0 16 11 27t26 11q16 0 27 -11t11 -27q0 -15 -11 -26t-27 -11q-15 0 -26 11t-11 26
zM222 679q0 16 12 27.5t28 11.5q17 0 29 -11.5t12 -27.5q0 -17 -12 -28t-29 -11q-16 0 -28 11t-12 28z" />
    <glyph glyph-name="dagger" unicode="&#x2020;" horiz-adv-x="381" 
d="M98 567q17 0 35 -3q7 10 10 33t9 33l-1 15q8 11 8 18q0 3 -3 12.5t-4 19.5q7 11 20 19q7 6 15 11q22 -20 22 -31q0 -2 -1 -11.5t-1 -17.5q0 -12 8 -21q-4 -45 -4 -41q0 -17 13 -40q17 -4 24 0q9 -2 12 -6q10 0 40 13q2 -1 16 -1q11 1 12 -6q6 -6 14 -26t8 -31
q0 -13 -13 -13q-7 0 -19 4.5t-18 4.5q-7 0 -9 -7q-22 5 -81 7q1 -9 1 -17q0 -30 -9 -72q-13 -63 -14 -69q-1 -11 2 -55q5 -49 5 -58q0 -7 -4.5 -47t-4.5 -58q0 -15 3 -19l-4 -38q4 -9 2 -15q-3 -10 -3 -11q0 -4 4 -11q-3 -3 -9.5 -41.5t-9.5 -38.5l-14 34l-8 25l-5 23
q-1 4 2.5 16t3.5 17q0 7 -5 8q7 24 7 35q0 5 -5.5 24.5t-5.5 53.5v101l10 40q-3 15 -2 23q2 14 2 23q0 6 -3.5 18.5t-3.5 18.5q0 5 1 9l-15 13q11 28 14 68h-33h-20q-2 1 -6 1q-49 0 -60 -4q-17 10 -17 52q0 12 9 14q-9 -2 20 -2q11 0 32 2t31 2z" />
    <glyph glyph-name="degree" unicode="&#xb0;" horiz-adv-x="354" 
d="M266 544v5q-18 24 -18 32q0 4 5 2l-22 12v0q-8 4 -15 10.5t-20 12.5l-9 8l3 1l-6 1h-10l-7 -4q-10 -8 -28 -21l-7 3l-6 -6l-7 4l-10 -7l-17 -19l-3 2l-3 -3q-3 -3 -8 -9l-1 -1q-4 -11 -12 -31l-1 1l-2 -28q1 4 4 6v2q1 -6 1 -8v-2l-1 -2l-9 2q10 -4 14 -17q6 -4 8 -12
l4 -1l1 1l17 -18l5 1l14 -11h-3l15 -3q-2 1 -4 3q4 2 14 4l10 -4q10 4 32 9q4 4 22 15l9 11l7 -3l3 4q3 5 11 13h3l5 5q5 6 14 45zM64 507q-1 -10 3 -11q5 -1 12 7zM184 628l-6 5q0 -1 1 -2l2 -2l3 -2v1zM287 576l17 -18q0 -42 -19 -56q-3 -9 -27 -38h-4q-14 -20 -26 -23
l-13 -17l-10 5q-1 -1 -8 -7q-9 0 -28 -5t-31 -4l-6 -4q-9 4 -15 8q-4 3 -2 -1q-1 1 -2 1l-4 1q-13 5 -17 16l33 -6l-18 -19l-10 8l-9 -3l-9 10l-30 20l-1 11q-4 4 -7 10v-2l2 -3l-14 16l-21 11l17 17l1 13q0 -2 -2 -5v12q-2 5 -2 12q0 4 13 37q3 -4 3 -9l4 29q11 12 37 36
l16 18l5 -4l14 9l4 -2l4 3l8 -3l12 8q9 7 32 15l9 -3q17 -3 26 -13q7 -3 21 -13q-5 0 -8 2q-1 0 -2 -1l26 -17v5q-2 0 -5 1h-2q3 0 24 5l3 -21l9 -9l-21 4q7 -2 32 -19q4 -11 10 -20q-3 0 -9 2z" />
    <glyph glyph-name="cent" unicode="&#xa2;" horiz-adv-x="487" 
d="M216 221q4 26 10 75q0 7 -4 26q1 -4 5 26q3 14 -3 38q-7 29 -7 42q0 8 1 15q3 13 8 36q1 9 0 18v1q-1 0 -2.5 -3t-4.5 -3t-7 4q-7 -10 -18 -14q-15 -5 -21 -10l-20 -15q-2 0 -1.5 1t-1.5 1q-5 0 -13 -14.5t-15 -14.5q2 0 10 8v5q1 1 -3 1q-9 0 -11 -11.5t-7 -11.5
q-2 0 -2.5 1t-2.5 1q1 0 -30 -28q0 -2 -1 -6q-12 -4 -14 -17q-4 -20 -4 -28q0 -2 1 -9.5t1.5 -9.5t7.5 -7q0 -3 -3 -7q0 -4 7.5 -7.5t9.5 -7.5q-2 -4 0 -18q7 4 10 15q12 -26 16 -26q2 0 3.5 1.5l1.5 1.5q4 -3 1 -10q8 -3 20 -4q11 -10 9 -10h2q-1 1 2 1q2 0 13.5 -7.5
t13.5 -7.5q3 0 3 1t3 1q1 0 5.5 -3t7.5 -3q2 0 5.5 1t5.5 1v-8q4 -2 13 -1zM283 615q2 -12 -4 -32l-8 -20v-26q6 2 11 3q2 1 9 5t9 4t4.5 -1t4.5 -1t12.5 5t12.5 5t2 -2t2 -2t3.5 2t3.5 2t4 -2t4 -2t3.5 2t3.5 2t2.5 -1t2.5 -1t6 3t6 3t6 -4q9 2 30 -3v-6q-12 -14 -19 -14
q-2 0 -3 2t-3 2q2 0 -27 -19q0 4 -3 13q-6 -2 -8 -7.5t-4 -9.5q-1 1 -2.5 3.5t-2.5 3.5q-4 -3 -7 -3q2 0 -9 3q-4 -2 -4 -9q-2 0 -5.5 -1t-5.5 -1t-6.5 4.5t-6.5 4.5t-5.5 -3t-5.5 -4q-7 -2 -17 -5q-1 -5 -1 -10q-4 -21 -12 -67q-10 -68 -14 -217q7 -2 29 -5q11 -1 16 -7
q1 0 6 3q8 -1 2 -2h2q19 0 44 -3q4 0 15 1t12.5 1t7.5 2.5t8 2.5t4.5 -1t4.5 -1q18 0 25 12q6 -6 16 -10q0 -5 4 -14q-3 -7 -9 -8q-18 -2 -32 -2q-2 0 -3 1.5t-3 1.5q-6 0 -13 -5q-2 -1 -6 7h-101q-2 0 -2.5 2t-3.5 2q-2 0 -2.5 -2t-2.5 -2t-6 2.5t-6.5 3t-6.5 0.5v-14
q0 -1 4 -5t5 -7q3 -13 4 -50q-8 -4 -24 -9q-10 -3 -17 4q-1 8 -9 20l-1 4q6 16 12 45q-1 7 0 14h-4q-3 1 -9 4.5t-9 3.5q-2 0 -3.5 -2t-3.5 -2q-3 0 -10 5.5t-9 5.5t-3 -1t-4 -1t-17 6t-23 6q0 6 -2 9q-4 -3 -13 -9q-1 1 -2 11q0 6 -6 6l-15 -4q-1 3 -9 17q-1 0 -5 -4
l-21 12v11q-2 0 -2 -1t-2 -1q-1 0 -8 8t-8 10.5t-2 7.5l-11 16q-1 2 0 5q-2 11 -1 14q2 5 2 6v7q-5 3 -12 -1v14q0 2 10.5 17.5t12.5 21.5q29 17 26 38q3 4 5 4h4q3 -1 5 -1q6 0 13 14t9 14q3 0 3 -1t2 -1q-4 0 4 3q2 3 7 10l14 7q1 0 2 7q6 2 7 9q1 -10 -1 -15q-1 -2 3 -2
q2 0 10.5 12.5t10.5 12.5t2.5 -1t2.5 -1q5 0 5 8l3.5 -2t5.5 -2q-2 0 5 5q8 2 47 19q-4 25 -1 42q3 6 6 11q3 9 1 10q13 12 20 41q5 25 15 30q3 -13 11 -39q4 -1 10 -11z" />
    <glyph glyph-name="sterling" unicode="&#xa3;" horiz-adv-x="540" 
d="M365 68q-2 1 27.5 14.5t34.5 12.5v-2q1 -7 3 -12q8 -9 32 -27q1 -1 6 -17t5 -22q0 -5 -38 -12q-34 -7 -44 -7q-2 0 -11.5 3t-15.5 3q-4 9 -16 9q-9 0 -15 -8q1 1 0 2q-7 9 -16 9q-8 0 -15 -4l-2 4q-1 2 -3 6.5t-11 16.5l-11 -11l-1 -1h2l-7 -10q-22 17 -35 17
q-7 0 -11 -3q-4 4 -16 11q-9 4 -55 -24l-6 -4q-5 0 -16.5 3.5t-17.5 3.5t-14 -3.5t-11 -3.5t-11 3.5t-13 3.5q-9 0 -34 -8q-13 18 -13 30q0 -3 12 17h1q26 39 29 86q2 37 33 64q8 8 29 27q7 22 7 35q0 10 -4 13q1 -1 2.5 4t8.5 30h-36q-7 2 -17 1q-17 -2 -19 -2h-9
q-7 1 -11 1q-14 0 -23 -2q-15 11 -15 29q0 5 2 6q37 -4 97 3q3 25 1 31q-4 23 -25 23q-7 0 -11 -3q0 3 1 6q-8 11 -16 15l-2 1q-1 16 -2 45q-2 16 -14 16q-7 0 -11 -1q-4 3 -4 8q-14 15 -13 35q0 8 5 56q0 13 31 48l5 4q5 -3 12 -3q15 0 18 16l4 -1q3 -1 10 -1q3 3 8 22l1 2
q1 0 10 1.5t13 2.5l1 -3q5 -8 14 -8q3 0 10.5 6.5t10 7.5t4.5 1t14 -6q16 -8 23 -8q12 0 18 9q5 -1 17 -7q9 -5 16 -4q6 1 8 1q-4 0 19 -6q19 -5 26 6h7l1 -2q2 -7 20 -18l7 7q7 -14 22 -21q7 8 9.5 10.5t3.5 1.5l12 -12q21 -16 28 -31q5 -11 15 -58v-14h-12q3 0 1 8
q-6 22 -18 22q-6 0 -13 -1v6l-10 10h2l-2 2q-2 2 -1.5 6.5t-3 4.5t-15.5 7.5t-19 7.5t-11 -4q-2 2 -6 5q-11 10 -22 9l-8 -8q-14 12 -43.5 22.5l-29.5 10.5q-9 8 -18 8q-4 -4 -6 -8q-3 1 -6 1q-9 0 -12 -6l-1 1q-8 5 -15 5q-4 0 -12 -6q-11 -7 -12 -8q-6 -3 -11 -13
q-4 1 -15 1q-7 0 -17 -4q-5 -7 -24 -19q3 -9 1 -15q-3 -5 -8 -17q-12 -27 4 -34l15 -25q7 -4 3 -17q-4 -16 10 -24q6 -10 29 -22l5 -3h1q13 -10 22 -35q6 -16 9 -20q5 -12 13 -17q2 -1 9 -13q17 2 45 4q20 2 69 -10q-10 3 -17 5q4 0 8 2q3 -1 8 -2q13 0 22 1t33 10
q2 -1 18 0q5 0 5 1q0 -2 4 -6l3 -3q9 -10 19 -27q1 -13 -3 -13q-10 -2 -25 3q-9 3 -14 3q-19 4 -28 -6q-7 0 -29.5 4t-50.5 5q1 0 -32 0h-20q-1 -33 -20 -60q-75 -104 -115 -206q16 -2 19 -2q9 0 17 8q2 2 3 2l2 -1l2 -2q9 -7 17 -7q2 0 59 23q9 3 10 3q5 0 17 3.5t16 3.5
q3 0 13 -8q4 -3 12 -8q5 4 7 3l2 -2q5 -4 10 -5q7 -4 16 -1q7 2 14 5q11 1 15 -0.5t14 -4.5q29 -10 37 7zM48 638q2 2 1 0h-1z" />
    <glyph glyph-name="section" unicode="&#xa7;" 
 />
    <glyph glyph-name="bullet" unicode="&#x2022;" horiz-adv-x="318" 
d="M27 315q0 47 33 79.5t79 32.5q47 0 80 -32.5t33 -79.5t-33 -79.5t-80 -32.5q-46 0 -79 32.5t-33 79.5z" />
    <glyph glyph-name="paragraph" unicode="&#xb6;" 
 />
    <glyph glyph-name="germandbls" unicode="&#xdf;" 
 />
    <glyph glyph-name="registered" unicode="&#xae;" horiz-adv-x="416" 
d="M362 566l-10 -4v-4q0 -4 5 -10.5t5 -11.5q0 -10 -10 -42t-18 -41l6 -1q-1 0 -4 1q-3 -5 -3 -11q0 -10 -12 -7l1 -10q-24 -21 -80 -52l-4 -6l-16 4q-7 -14 -20 -8l-17 -7q-1 0 -12 6l-3 -2l-4 3q-3 -1 -6 -3l-4 3l-7 -4l-6 9q-6 -6 -15 -11v2q-9 3 -16 1q1 1 -3 8l-5 -7
q-9 3 -20 13l-5 -5l-4 6l-1 -1v0l-5 8l-4 -2q-3 0 -8.5 5.5t-8.5 6.5q-1 8 -9 13l-8 -1l-1 11l-11 11q-1 2 -1 33l-8 3l3 15l-6 12l4 6l-2 16q4 9 3 12l7 9q-2 5 -2 11q0 10 6 23q1 0 5 5l2 10l7 4l2 -5q5 5 8 15q1 2 20 29q15 22 26 22q3 0 6 -1q4 8 23.5 21.5t29.5 16.5
l3 -4q11 0 16 6l12 4l14 -7l7 1l21 -11l4 1q-5 0 10 -5l3 2l1 -1l3 -5q10 -2 17 -8q4 2 8 5l4 -9q8 -5 25 -13l3 1q4 0 8 -5.5t6 -6.5l3 1l6 -7v-7l10 -3q-1 -3 -2 -17l7 9q4 -16 16 -16q0 -4 -3 -13q2 -6 8 -9zM337 543q0 9 -10.5 23.5t-10.5 25.5h-5l1 1h-2l-4 4
q-9 0 -8 21q-3 0 -9 -1q-17 9 -17 21l-5 -6h-2q-7 6 -14 11.5t-17 5.5q-5 9 -15 12l-5 -2l-13 7l-9 -4q-18 6 -20 5q-9 -6 -31 -17l-2 -4q-1 -1 -25 -5l-1 -5h1l-1 -3q-10 -6 -12 -4q-7 -5 -11 -10l6 -10q-1 -1 -4 -1q-8 -5 -41 -40l1 -10l-7 -12v-3q0 -6 -3 -13
q-4 -10 -5 -13q1 -5 6 -12q-1 -8 -4 -25q1 -5 4 -11l-7 -7l11 -6l-2 -11q14 -2 11 -18q6 0 13 -3l2 -10l15 -9l4 3q7 -11 15 -17q9 4 8 4l2 -3l5 -2l6 6l2 -4l14 -4q2 -4 8 -7q5 6 10 7l26 -12q9 0 32 11.5t29 11.5q4 0 6 -2q2 5 11.5 11t11.5 14q14 0 16 14l8 10l5 1
q32 37 32 96zM261 587l7 -2q6 -13 6 -14q0 -9 -15 -26l-3 -1q0 -4 -3 -12l1 -2q0 -2 -12 -12q-3 0 -3 2q0 3 2 4l2 -2h1q1 -10 1 -7l-1 -4l-4 1h-2q-1 1 -3 1q-12 0 -30 -12v-2h2l4 -3l2 -5q2 -1 6 -1v-5q4 -4 9 -21q-2 0 6 1v-1q0 -6 16 -15t16 -17q0 -3 -6 -5q1 -2 1 -3
q0 -3 -5 -3q-3 0 -8 1t-8 1v1l-2 -1q-6 7 -21 20v12q-2 -2 -7 -2q0 4 -5 8t-6 6l-4 4q0 4 -6 23l-12 2l-6 -4l-3 2l-9 -5l-4 3v0l-7 -3q0 -17 -3 -51l3 -4q1 -19 1 -13q0 -10 -7 -10q4 0 -7 2q-5 5 -14 18q0 3 1 11t1 14t3.5 17t2.5 17l-6 2l-2 1h1q-1 1 -2 4q0 4 12 22
q-1 4 -3 6t-6 5v5l6 -1v16q-1 1 -4 1q5 16 4 18q-1 -1 -4 -2v13l3 7t3 12h-2v0q-1 0 -3 -1q-3 0 -2 3q0 2 2 3q-9 1 -13 8q0 3 5 7h3v3l6 -2l10 2l4 5q3 -3 12 -7q7 1 14 5v-3l1 -6l15 2q27 0 50 -10q6 -1 13 -9l3 1q4 -5 4 -6q0 -2 -3 -5l-2 2l4 2l4 -4l-2 -2l3 4l4 -4v0z
M242 550h-1q0 5 4 15l3 -3q0 4 2 12q-2 6 -11 14q-9 2 -19 8q3 1 7 1q2 0 9 -1q0 -2 -1 -5q-2 0 -4 4q-13 1 -38 4q-4 -2 -7 -2q-1 0 -5 3q-28 -4 -24 -4q-2 0 -4 2q-2 -1 -6 -1l2 3q0 -7 5 -21q-4 -19 -4 -21v-12q1 -8 1 -12q0 -3 -1 -10t-1 -12l-2 -1q1 1 4 1q2 0 6 -1.5
t5 -1.5q4 0 11.5 2.5t10.5 2.5q4 0 8 -2l-3 -1q3 3 9.5 7t8.5 1q14 10 16 5q1 3 8.5 15t9.5 12q3 0 3 -3v-1q-1 1 -2 3z" />
    <glyph glyph-name="copyright" unicode="&#xa9;" horiz-adv-x="778" 
d="M709 442q-4 -13 -2 -29q3 -24 3 -30l-2 -7q-3 -4 -4 -7.5t-3 -20.5q-3 -27 -7 -36q-6 -24 -28 -81q-7 -15 -10 -15q-1 0 4 -1t7 -2v1l-2 1q-1 1 -6 1q-6 -6 -6 -14v-8q-1 -20 -24 -15q-3 -3 -1 -9q4 -8 4 -11q-18 -7 -40 -26q-7 0 -20.5 -13t-25.5 -24q-27 -23 -75 -40
q-4 -2 -8 -11q-10 8 -33 8q-1 0 -2.5 -5t-7.5 -8q-9 -3 -22 -8q-1 4 -7 4t-18 -6.5t-16 -7.5q-1 4 -7 4q-1 0 -7.5 5.5t-9.5 3.5q-2 -3 -6 -6q-2 7 -9 7q-2 0 -10 -7q-2 7 -9 7t-13 -7l-14 16q-12 -12 -28 -22v5q-9 4 -20 3q-5 -1 -12 -2v2q0 5 -8 15q-6 -8 -10 -14
q-16 5 -39 27q-4 -6 -8 -9l-2 -2q-2 2 -8 11l-2 -2v1q1 15 -11 15q-5 0 -7 -2q-5 6 -16 17q-6 1 -18 5q-10 28 -19 28l-14 -3l-3 21q-7 8 -23 22q-1 11 -1 29q1 44 1 38q-8 5 -17 5q0 5 3 16t3 16q0 12 -11 23q1 6 8 11q-2 12 -5 33q3 5 6 11q1 4 0 10v3q5 4 15 19
q-5 9 -5 22q0 20 11 45q4 1 11 10t3 20q5 3 14 8q1 -3 6 -9q9 10 11 18q1 4 4 12q10 8 23.5 32.5t25.5 33.5q4 7 13 19q28 23 33 17q2 -3 8 -3q17 0 20 24q23 6 30 16q5 4 15 13q13 14 18 14q1 0 25 8l6 -8q20 0 30 14q2 -1 5.5 1t6 2t7 1.5t6.5 1.5t12.5 -7t15.5 -7
q3 0 7 2t6 2t20.5 -12t23.5 -12q6 0 8 4q1 0 6 -4l2 -2q6 -5 11 -5t7 3v-1q1 -3 7 -11q4 -1 7 -1h4q5 0 8 -3q10 -10 15 -10q7 0 17 8q3 -4 8 -18q10 -1 39 -20q7 -4 10 -4q4 0 6 2q3 -4 9 -11q13 -15 19 -15q4 0 7 3q3 -5 11 -13q1 -2 1 -15q6 -2 19 -7q1 0 0 -6
q-3 -11 -3 -27q5 7 13 17q8 -31 33 -30q3 -9 -7 -27q4 -15 16 -18h-2zM660 393q-6 0 -6 7q-1 11 -1 12q-2 7 -7 21q-3 5 -12 12l-7 7q-11 25 -10 40h-9q1 1 1 2q-3 -2 -5 2q-3 8 -10 8q5 0 3 -3q-5 7 -13 17q-3 4 -2 26q-7 0 -9 -1l-3 -1q-3 -1 -6 -1q-9 0 -21.5 13.5
t-13.5 29.5l-9 -12h-4q-7 0 -14 8q-8 12 -9 13q-18 12 -39 13q-4 7 -11 15l-20 8q-6 0 -9 -3q-4 1 -11 6q-11 7 -16 7q-13 0 -19 -6q0 -2 -13 4q-19 8 -25 5q-13 -8 -40 -25q-1 -2 -4 -3q-15 0 -18 -7l-2 -4q-1 -1 -2 -3q3 -4 5 -9q-4 0 -19 -5q-2 0 -18.5 2t-17.5 2h-2
q-8 -5 -1 -9q1 0 3 -2l15 -16q-4 -2 -16.5 1t-15.5 1l-3 -2q-2 3 -7 3q-6 0 -21 -21q-2 -3 5 -11t6 -9t-2 -3q-2 2 -6 2q-13 0 -50 -39q-4 -5 -13.5 -20t-18.5 -21q8 -9 2 -21q-5 -8 -14 -23q2 -17 -2 -25q-13 -29 -13 -34q0 -14 7 -20l4 -3q-7 -9 -6 -21q2 -21 2 -14l-1 -1
q-4 -6 -4 -14q0 -9 9 -20l1 -2q-2 -1 -8 -8q-2 -1 -7 -7q10 -6 15 -7q2 1 6 -4q-5 -15 -4 -23q9 -1 21 -5q6 -5 2 -30q18 0 27 -7q1 -7 2 -18q5 -2 8 -5q19 -14 23 -14q7 0 8 5q22 -33 30 -33q4 0 9.5 3.5t6.5 3.5t3 -3l1 -2q4 -5 11 -5q4 4 9 11q0 2 1 3q3 0 5 -9
q19 -2 27 -8q1 -1 7 -7.5t11 -6.5q11 14 19 14q3 0 11.5 -5.5t12.5 -5.5q1 0 12.5 -7t18.5 -5q9 1 36 6q7 2 23 10q10 7 26 13q20 17 23 17q19 0 23 -5q6 7 10 13q6 3 14 9q2 3 13 9q1 -1 4.5 8.5t4.5 9.5q21 0 29 12q-1 6 4.5 17t14.5 19q1 0 7 1q1 0 3.5 2t23.5 25
q8 18 19 45q11 21 13 41q2 40 3 45zM491 231h2q0 6 3 4t9 -12q10 -18 0 -26q-18 -15 -51 -28q-2 -7 -5 -15q-9 12 -11 12t-14 -5.5t-16 -5.5t-6 2q-2 -1 -9.5 -5t-11.5 -4q-3 0 -5 2v-1l-2 -2q-6 -5 -10 -5t-6 2q-2 -2 -6 -2q-5 0 -7 3l-1 -1l-6 -7l-9 11q-5 -4 -26 -17v12
q-2 0 -7 -1h-7q-6 0 -6 8v1v0l-1 1h8q-2 -1 -4.5 -5.5t-13.5 -17.5v17q-8 3 -17 11l-2 -1l-3 -3q-5 0 -9 4q-4 -2 -10 -2q1 5 2 13h-2q-2 0 -17 14q-4 0 -12 4q-2 4 -5 11v3l-15 -2q-3 7 -5 19q-4 4 -14 12q-1 9 -1 43h-9q-2 10 0 17q2 8 2 12q0 5 -6 11q-2 8 3 14
q0 5 -2 16q0 3 5 12q0 1 -1 2v2q0 2 2.5 5.5t5.5 8.5q-3 8 0 25q2 19 9 24q2 1 5 4q2 3 -1 12q16 10 20 10q5 0 6 -3l1 5l-3 -3q-2 -1 -2 0q1 7 3 11q15 14 46 39q2 4 8 12q16 13 26 13q4 0 6 -3q4 1 5 15h23q23 14 30 14q4 0 6 -3q0 1 12 20q6 -8 8 -8t5 1t5 1h8q6 -1 8 -1
q0 1 1 1l1 2q5 5 9 5t15 -7.5t13 -7.5q1 2 5 2q5 0 10 -5l1 -1h1q2 1 5 1q5 0 9 -8q7 0 11 -2q6 -4 -5.5 -22t-21.5 -18q-2 1 -15 16q-3 2 -9 5q-5 -5 -20 -5q-2 0 -5 1l-4 1q-2 1 -1 1q-4 -4 -14 -6l-7 -1q-6 -1 -17.5 -9.5t-14.5 -8.5q6 0 -11 4v0q-4 -6 -9 -6q-3 0 -6 2
l-1 1l-1 1q-1 0 -10.5 -7.5t-13.5 -7.5q-3 0 -5 1q-1 -2 -5 -9q-10 -14 -14 -14q-3 0 -5 2q-15 -8 -29 -27q-3 -6 -11 -17q2 -8 -11 -28q2 -12 -3.5 -23t-5.5 -13q0 -5 1 -6v-1l2 -1l8 -8q-9 -7 -8 -13q1 -10 1 -12l-2 -2v-1q-1 -1 -1 -3q0 -4 4 -8l5 -6q-4 -4 -6 -7v0
q5 -1 8 -11q-1 -2 -3 -7h2q15 -3 14 -21q8 -2 15 -9q1 -1 1 -10q5 -3 11 -8v0q2 3 6 3q5 0 14 -13l6 -9l3.5 2.5t6.5 2.5q5 0 8 -4l1 1q4 5 8 5v0q5 -1 8 -6q14 -3 20 -10l1 -1q7 6 14 6q1 0 16 -7q2 0 16 3q11 1 36 10q8 4 13 5q20 17 26 17q4 0 7 -1q10 16 15 16h7.5h6.5z
" />
    <glyph glyph-name="trademark" unicode="&#x2122;" horiz-adv-x="593" 
d="M511 540q2 1 6 1q1 -24 10 -72q3 -10 3.5 -18.5t5.5 -18.5l6 -30q3 -6 9 -19q1 -5 5 -16t13 -17q-3 -6 -3 -14q-13 -4 -19 -4q-8 0 -13 8q0 6 -1 18q-1 2 -5 6q0 -2 -5 20q-2 8 -4.5 19.5t-9.5 29.5q-11 29 -10 42v15q0 6 -2 16q-1 1 -7 11q-5 7 -5 13q0 13 -2 20t-1 11
q-1 -8 -4 -24q-1 -2 -11 -20q0 -5 -1 -12q-1 -3 -3 -7l-2 -3q-5 -8 -6 -17q0 -3 -1 -11q-7 -4 -8 -12.5t-3 -12.5q-1 -8 -7 -23q0 -7 -5 -17h-6.5h-4.5q-3 0 -6 2l-2 1q-3 3 -9 3q0 14 1 20q-7 3 -14.5 7t-7.5 11v0l-4 4v11q3 1 5 2h-4q0 4 -8 10q0 6 2 11q-7 5 -11.5 18
t-12.5 15l-5 5q0 4 -6 24q-13 10 -13 27q-3 1 -9 4v4l-4 1q-1 7 1 12h-1q-3 -1 -9 1v0q-1 -2 -1 -14q0 -1 -4 -11q0 -1 1 -7.5t1 -9.5q0 -9 -1 -22q-1 -3 -3 -10.5t-2 -9.5v-37q0 -2 -1.5 -6.5t-1.5 -6.5q0 -1 1 -12.5t1 -16.5q0 -1 1 -4q2 -5 0 -14q-1 -6 1 -8.5t2 -5.5
q0 -1 -5 -10v-4v-5q1 -6 -2 -18q-3 -1 -20 -2q-3 0 -7 3q0 1 -7 7q3 3 3 22q-2 10 -2 13t3 7l1 2h1q1 10 2 34q4 0 5 1l-1 2q-2 24 -3 25.5t-1 4.5q0 2 5 11q-1 -5 -1 21q0 7 3 21t3 22q0 -1 -2 5q-1 4 2 8q1 1 2 3q0 1 -2 8.5t-3 10.5h-3v19q0 4 3 7q-1 4 3 22q1 5 -4 11
q7 6 7 12q0 12 1 14q6 6 16 6q3 -4 3 -14q5 -5 15 -16q6 -2 12 -7q-1 -3 -1 -5h-4q-1 -1 -2 -1l1 1v1l6 6q1 -4 5 -9.5t2 -9.5l8 -4q0 -13 -2 -9q1 -1 3 -4.5t1.5 -7t4.5 -3.5h8l-8 -9h-1l-4 -1l-1 2l1 1q-1 1 3 4h4q3 -4 4 -12q0 -1 7 0v-18h2q-2 0 6 0v-17q4 -7 9 -10
q2 -5 1 -10q2 -1 4 -4t5 -5q1 3 2 -13q2 -1 7 -2q2 -6 7 -14q13 0 15 -8q1 -6 0 -12h11l-4 -8q5 8 5 12q-1 5 -1 7q0 6 7 15q3 5 3 11t5 16q-1 15 -1 11l3 6q15 64 15 61l-5 5q0 5 5 8q-1 3 -1 6q2 4 6 7q-1 6 4 20q2 -3 7 -7h-1l2 -3h-8q13 32 19 32q8 0 12 -15
q8 -18 7 -23v-1l4 -8t4 -15q0 -4 -4 -8l-1 -1q0 -3 -1 -9.5t-1 -8.5q0 -1 3.5 -8.5t3.5 -10.5q0 -4 -4 -9q1 -3 2 -7q-2 -3 -2 -8zM215 668q2 1 8 2q4 0 7 -4.5t2 -11.5q0 -2 -2 -10v-2l-3 -1t-37 1q-39 3 -36 3q-15 0 -12 0q-4 0 -4 -5q0 -1 3 -11t3 -13q0 -2 -2 -8l-1 -5
h3q1 -16 -1 -20q-8 -17 -1 -26q-3 -8 -7 -23.5t-3 -43.5q0 -8 1 -18v-9q0 -4 3.5 -14t1.5 -15q-1 -2 -1 -4q0 -3 2 -8q-1 -2 -6 -15q-1 -4 0.5 -7t1.5 -5l-1 -2l1 -1q4 -3 4 -7q0 -5 -9 -31q-2 -3 -7 -7q-3 0 -9 1q0 4 -7 10q-4 1 -10 5q2 5 6 14q0 1 -2 4q2 8 4.5 24.5
t2.5 40.5v74q0 3 -2 10t-1 11h-3q0 3 -1.5 9t-1.5 9q0 2 4 11q1 2 -1 3v44q5 11 11 25q-4 -1 -8 -1q-2 0 -5.5 1.5t-5.5 1.5q-1 0 -4 -1.5t-5 -1.5q-4 0 -6 2l-1 1q-1 -1 -10 -4q-18 -7 -20 -7q-29 0 -24 2q-5 -2 -9 -2q-14 0 -17 19q-4 23 7 26l1 -5q3 6 9 7t13 4
q1 -3 3 -8h3q4 0 8 -5l5 8q5 -2 15 -8q2 1 5 4q4 -3 7 -6q20 -2 13 -2q5 2 7 2q5 0 7 -3q8 3 21 1h27h16q16 -3 22 0q11 5 20 5q3 0 8 -4z" />
    <glyph glyph-name="acute" unicode="&#xb4;" horiz-adv-x="287" 
d="M81 768q6 4 17.5 13.5t17.5 13.5l1 -2q2 -4 19 7q5 3 21 13q1 1 2 6q5 -2 13 -5q7 8 25 44q2 0 24.5 -14t23.5 -16q2 -3 0 -5.5t0 -5.5t13 -6q-9 1 -25 -2q-7 -4 -4 -15q-13 -3 -30 -3t-48 -18l-21 -13q-13 6 -18 3q-6 -3 -15.5 -12.5t-15.5 -13.5q-5 0 -12 -2
q-2 -2 -3.5 -6t-3.5 -5q-11 -2 -26 -9q-2 -3 -8 -8q-10 -6 -16 6q-6 9 -6 17q0 11 13 23.5t24 12.5q-5 0 15 -3q10 -2 23 5z" />
    <glyph glyph-name="dieresis" unicode="&#xa8;" horiz-adv-x="276" 
d="M8 750q0 16 11 27t26 11q16 0 27 -11t11 -27q0 -15 -11 -26t-27 -11q-15 0 -26 11t-11 26zM152 749q0 16 12 27.5t28 11.5q17 0 29 -11.5t12 -27.5t-12 -27.5t-29 -11.5q-16 0 -28 11.5t-12 27.5z" />
    <glyph glyph-name="AE" unicode="&#xc6;" horiz-adv-x="1125" 
d="M618 124q-5 -14 -16 -42q-4 -21 -2 -36q2 -1 3 -2q34 5 70 -18q16 13 47 13q19 0 55.5 -6.5t47.5 -6.5q21 0 71 6q60 6 75 13l16 -8l81 19l15 -2l20 -28l-20 -36l-20 7l-15 -4q-21 19 -123 19q-74 0 -157 -8q-133 -13 -160 -14l-9 5l-3 -3l-7 2l-28 -15l-17 7l-61 -26
q-2 14 -8 14q-2 0 -12.5 -6t-16.5 -4v15q-23 4 -55 7q20 46 47 46q7 0 15 -2l19 15l15 -11l4 18l23 -11l12 13l-6 17l-16 -7q12 40 1 53q6 17 11 44q-4 1 -9 2l-6 30q-17 -16 -42 -16q-10 0 -40 6l-43 -17l-20 7q-59 0 -119 -21l-7 14q-37 -23 -124 -134q-74 -93 -106 -90
l-41 3l-6 -3l9 33q78 47 104 67q59 45 80 95l33 24l-3 10l-30 2l-36 -14l-22 21l-31 -7q-5 0 -9 11t-11 13l5 20q29 1 66 11q41 10 62 24l25 -17q29 0 50 16.5t42 34.5l-5 20q45 55 65 84l13 7l13 38q76 58 73 114l24 19l6 16q17 7 31 23l-9 26l-10 -11l-17 8q-5 -4 -17 -4
q-43 0 -60 19v14q33 0 38 11l13 -4q13 0 20 13t17 13t27 -7l37 14l11 -7q34 14 63 2l11 -17l23 15v-12q19 -3 57 1l13 -7l39 11q13 -9 13 -6q-1 2 -1 4q0 3 12 -6q20 10 48 10q13 0 39.5 -3t39.5 -3l53 15l15 -8l18 8l29 -9q-1 -18 11 -26q-26 -19 -152 -19q-53 0 -70 6
l-22 -7l-13 7l-20 -11q-13 5 -31 5q-11 0 -32 -2.5t-31 -2.5q-4 0 -25 -7l-27 -9l-18 -27l11 -6q-4 -11 -5 -40q-1 -23 -9 -37l11 -2v-17l-19 -14q-2 -19 -5 -57l18 8l-20 -36v-8q7 -11 11 -36q6 -5 39 -9l43 -5l12 11l18 -11l25 11l16 -14l14 7l17 -7l22 7q3 -2 3 -4
q0 -5 -16 -7l20 11l22 -7l33 7l21 -7q19 6 32 18l16 -15l25 22q12 -10 24 -21q15 -14 15 -26l-14 -32l-27 -9l-25 5l4 10h-43l-59 18q-15 -7 -18 -7q-1 0 -6.5 3.5t-19.5 3.5l-63 -14l-34 11l-31 -15l-12 15q-16 -4 -46 -11q2 -25 -3 -50l13 -11q0 -7 -2 -20t-2 -19l1 -7
l7 3q-4 -45 3 -61q1 0 4 1zM502 238q-4 2 -4 6q0 3 3 10t3 9l1 6q-7 6 -14 15h-4l-2 27q-14 11 -14 23q0 11 16 20q4 11 10 28q3 14 1 21q-19 8 -12 78l-50 -76q-30 -44 -63 -68q-6 -11 -36.5 -50t-40.5 -48q8 -11 23 -11q7 0 22 3.5t22 3.5q4 0 11 -3t10 -4t85 -1
q15 0 23 -9z" />
    <glyph glyph-name="Oslash" unicode="&#xd8;" horiz-adv-x="976" 
d="M164 144q110 100 157 177q18 3 46 39q34 44 43 51q13 9 26 17q17 12 20 21q4 10 -2 22q3 4 11.5 7.5t8.5 6.5t-5 8l22 27q6 1 93 81q-18 8 -31 10q-10 20 -36 23l-12 -3l-32 13q-10 0 -117 -64l-24 7l-15 -10l-17 6l-46 -23l-7 3l-40 -37l-7 3q-19 -11 -49 -39t-44 -37
q3 -3 3 -8q0 -7 -20.5 -45t-20.5 -49q0 -9 17 -23q-15 -10 -8 -37l-5 -13l13 -22l-17 -14q7 -2 14.5 -4t9.5 -9l-6 -18q32 -6 32 -21q0 -6 -2 -13l33 -10l2 -17zM146 67q-22 -41 -23 -52q-50 -32 -58 -29l-32 12l1 32q20 9 25 26q33 10 33 22q0 3 -1 5l16 12q-11 5 -19 5
l-19 26l-22 -3l-6 24l-28 21q-3 12 -1 67l-20 3q-4 15 6 37l-13 21l9 15l-5 30l8 14l-1 13l18 17q-6 8 -6 21q0 41 30 58l1 20l27 11l5 -7q11 25 73 70q59 43 88 52l12 -3l19 23q27 0 59.5 19.5t40.5 19.5q3 0 6 -1l27 37l16 -6l18 3l34 -14l17 4l54 -24l11 3l23 -10l9 4
l12 -13q19 2 37 -12l2 3q24 6 36 12l34 49l49 -20l-39 -37q-10 -7 -25 -24q13 -5 38 -19l7 3l35 -27l7 3l22 -15l2 -16h2q13 1 22 -6t9 -20l14 9q2 -15 13.5 -25t26.5 -8l-6 -32q7 -18 31 -16q-12 -34 -12 -63q-9 -15 -36 -87q-20 -56 -51 -83l-11 3q-7 -43 -37 -37l-3 -17
l-35 -31q-28 -5 -76 -28q-53 -27 -76 -34l-10 -16l-19 11l-58 -17l-10 3l-43 -14l-8 4l-26 -14l-10 7l-13 -7l-10 7l-17 -10l-17 17q-12 -9 -42 -24v11l-36 -1l-7 14l-18 -20v10q-18 5 -43 23l-13 -10l-11 10l-11 -6zM544 444q-19 -7 -34 -9q-23 -35 -64 -64
q-65 -46 -70.5 -51t-38.5 -53q-36 -54 -130 -140l25 -22l20 7l16 -10l17 14q4 -8 27.5 -14.5t30.5 -16.5q14 14 26 14q5 0 15.5 -5.5t15.5 -5.5q24 0 68.5 14t62.5 15q16 10 47 26l15 -7l29 30l8 -3q20 0 42 27.5t41 27.5l42 38q14 16 25 53l6 -4q18 0 31 43q11 35 11 59
q-10 0 -34 39t-28 56l-9 -3l-13 10l-7 -4l-23 20l-4 24l-17 -3q-9 0 -24 8.5t-22 17.5q-96 -91 -103 -128z" />
    <glyph glyph-name="plusminus" unicode="&#xb1;" 
 />
    <glyph glyph-name="yen" unicode="&#xa5;" horiz-adv-x="513" 
d="M143 277q8 1 26 -2q22 -4 29 -5v6q0 10 -13 21q6 7 6 14q0 14 -16 25q-21 15 -22 18.5t-2 11.5q-18 21 -51 67q1 2 1 8q-1 1 -21 34q-10 17 -26 20q-6 17 -11.5 35t-21.5 27q-2 8 -10 27t-8 23l-2 13q-1 8 2 12q-1 3 -1 7q0 5 5.5 15t6.5 14h15q14 -20 14 -33
q5 -5 18 -11q2 -4 8 -28q3 -11 13 -11q-3 -3 -3 -9q0 -4 2 -14q2 -13 2 -16q20 -13 28 -30q-1 -7 2 -20q14 -21 36 -63q2 -3 12 -3q-2 -13 20 -37q40 -42 45 -48q20 22 57 72q0 6 2 19q6 3 13 13q-1 2 -4 7q14 -1 16 15q1 11 1 22q5 5 11 13q16 57 29 86l16 22q14 20 14 29
q0 4 -3 6q11 7 27 11q12 2 25 15h11q4 0 4 -8q0 1 -19 -44q0 -11 -2 -33q-12 -12 -27 -36q-1 -2 -3 -7q-21 -22 -27 -49q-10 -15 -10 -23q-12 -8 -30 -27q-9 -15 -15 -42q0 -2 -7 -15t-6 -18q-21 -4 -24 -26q-1 -17 -3 -34q-9 -12 -35 -33q2 -3 5 -6q22 3 39 -2q5 -3 17 1
q0 -2 5.5 -3t6.5 -3q9 0 40 13q1 -1 14 -0.5t14 -6.5q10 -10 21 -34q2 -14 -9 -16q9 1 -17 1q-2 0 -10.5 4t-12.5 4q-7 0 -9 -7q-9 -1 -35 2q-21 5 -49 5q0 -10 -4 -56q31 1 48 -4q5 -3 17 1q0 -2 5.5 -3t6.5 -3q7 3 19 1q9 -3 21 5q3 -1 11.5 1.5t11.5 2.5q4 0 5 -4
q1 -9 2 -32q2 -19 -19 -19q-2 0 -8.5 3.5t-9.5 3.5q-5 0 -7 -7q-7 0 -29.5 5t-69.5 5v-20q-5 -5 -11 -14v-4q7 6 11 6q2 -6 2 -17q-8 -7 -8 -35q0 -15 8 -18.5t15 -5.5q-9 -20 -62 -29q-8 18 -20 18l-4 3v15l13 13q-3 15 -23 11q5 16 17 35q-6 5 -13 5v17q0 5 2 20h-45
q-2 2 -12 1q-15 -3 -17 -3q-42 0 -46 -1q-12 7 -12 24q0 18 10 22q43 -7 80 -2q35 5 41 4q5 -1 9 -1q-7 10 -7 14t4 13.5t4 14.5l2 14h-56q-2 2 -12 1q-15 -3 -17 -3q-33 0 -37 -1q-17 10 -17 32q0 11 6 14q29 -5 81 2z" />
    <glyph glyph-name="mu" unicode="&#xb5;" horiz-adv-x="677" 
d="M373 381q-30 -30 -114 -80q-66 -37 -133 -75q-1 -14 2.5 -39t3.5 -38q0 -22 -2 -32q0 -3 -2 -8q6 0 6 -11q0 -6 -2 -16.5t-2 -12.5l16 -17l14 7l22 -10l23 7l8 -10q19 -4 74 -4q37 0 99 -6q71 -6 93 -14l7 10q17 -5 36 -5q4 0 98 16q6 1 16 -2t15 -3q6 0 12 4v-22
q-28 -33 -52 -33q-62 0 -133 9q-86 12 -136 14l-28 -10l-37 7q-65 0 -105 -21l-20 10l-28 -7l-17 7l-18 -7l-15 4l4 11q-28 0 -78 14v12l26 12l9 -4l41 17q5 31 10 49l-4 12q7 52 3 77q-21 -33 -23 -40l-30 -18q-24 -13 -30 -10l-7 54l-5 20h10q3 0 6 6q42 4 36 20
q21 11 48 26q-2 7 -2 13q0 48 2.5 148.5t2.5 152.5q0 27 11 64q9 30 19 61l19 -12l6 -55l8 -7l2 -18q6 -78 -25 -120q11 -9 11 -26q0 -28 -9 -86.5t-9 -91.5l-4 -4q171 102 230 170q3 2 16 -12t13 -27q0 -11 -8 -20z" />
    <glyph glyph-name="mu" unicode="&#x3bc;" horiz-adv-x="677" 
d="M373 381q-30 -30 -114 -80q-66 -37 -133 -75q-1 -14 2.5 -39t3.5 -38q0 -22 -2 -32q0 -3 -2 -8q6 0 6 -11q0 -6 -2 -16.5t-2 -12.5l16 -17l14 7l22 -10l23 7l8 -10q19 -4 74 -4q37 0 99 -6q71 -6 93 -14l7 10q17 -5 36 -5q4 0 98 16q6 1 16 -2t15 -3q6 0 12 4v-22
q-28 -33 -52 -33q-62 0 -133 9q-86 12 -136 14l-28 -10l-37 7q-65 0 -105 -21l-20 10l-28 -7l-17 7l-18 -7l-15 4l4 11q-28 0 -78 14v12l26 12l9 -4l41 17q5 31 10 49l-4 12q7 52 3 77q-21 -33 -23 -40l-30 -18q-24 -13 -30 -10l-7 54l-5 20h10q3 0 6 6q42 4 36 20
q21 11 48 26q-2 7 -2 13q0 48 2.5 148.5t2.5 152.5q0 27 11 64q9 30 19 61l19 -12l6 -55l8 -7l2 -18q6 -78 -25 -120q11 -9 11 -26q0 -28 -9 -86.5t-9 -91.5l-4 -4q171 102 230 170q3 2 16 -12t13 -27q0 -11 -8 -20z" />
    <glyph glyph-name="ordfeminine" unicode="&#xaa;" horiz-adv-x="723" 
d="M773 -57l-7 -4q-12 5 -20 24q-6 16 -19 16q-7 0 -18 -4q-21 19 -56 33q-31 11 -63 22l-10 -4q-14 9 -85 25l-9 -3l-26 18l-13 -7q-17 4 -114 13l-12 -6l-26 11l-28 -11l-17 22q-15 -11 -25 -22h-12l-10 14l-22 -18l-23 18l-20 -21l-5 21l-39 -18l-18 4l-34 -25l-18 29
l-16 -4l7 23l-13 -1q4 21 -7 32l8 14q4 55 34 60q15 19 21 31l8 4l10 -7q10 11 19 33l7 -4l4 6q19 31 67 67q55 41 73 61l8 -3q11 13 39 37q5 16 24.5 36.5t25.5 31.5l3 -22q14 13 9 31l21 -5q11 0 21 18q8 15 16 29l3 -15q34 30 34 52l-7 6l-28 -11l-19 11l-10 -7l-28 11
l-35 -18l-30 11q-10 -13 -16 -26l-7 8l-11 -8l-20 15l-13 -7q-35 -1 -45 14l-11 -7l-12 7l-8 -4l-20 24q0 15 36 35l9 -11q14 17 47 47l-1 -26l12 26l21 -22l23 22q29 -11 43 -22l20 15l38 -19l19 11l5 -21q25 5 29 21v-5q0 -14 16 -20l29 14l24 -10q17 14 27 25l17 -11l7 4
l13 -13q1 -20 11 -69q-8 -24 -26 -51q-21 -32 -27 -45l-21 14q-13 -7 -12 -32l-15 -3l-9 24q-18 -33 -43 -39l-7 7q-17 -18 -46 -58l-10 21q-6 -8 -38.5 -32.5t-32.5 -28.5l-8 3l-26 -12l-10 -15q-16 -9 -48 -26q-4 -26 -26 -75q8 -16 28 -46q17 2 27 10q2 -20 13 -29
q8 -6 31 -10l22 18q0 -17 24 -32l10 3q23 -6 39 -25l14 3q14 0 105 -24.5t97 -29.5l14 4q10 -6 60.5 -19.5t62.5 -13.5l12 9l7 -13l33 15q9 -28 7 -55zM341 754l7 -1q-5 4 -14 12q-14 10 -15 7t-1 -2q-11 2 -32 12q-11 9 -14.5 16.5t-8.5 11.5q-15 11 -28 31q8 20 13 16
q1 0 6 -7q8 -3 21 -9q2 -2 2.5 -6t4 -5t8.5 -3.5t12.5 -12t12.5 -13.5q4 -2 14 3l17 -12q25 -18 40 -18t40 18l18 12q10 -5 14 -3q5 4 12.5 13.5t11.5 11.5t10 4q2 1 3 5t3 6q8 2 21 9q1 2 6 7q5 4 12 -16q-5 -9 -27 -31q-6 -4 -9 -11.5t-15 -16.5q-11 -2 -32 -12v2
q-2 3 -15 -7q-4 -3 -14 -12q6 1 7 1q-4 -1 -11 -7q-1 -3 0 -5q2 -3 1 -5q-2 -4 -29 -24l-3 -6q-1 0 -4 2q-3 -2 -4 -2l-2 6q-27 20 -29 24q-1 2 0 5q2 2 1 5q-2 4 -11 7z" />
    <glyph glyph-name="ordmasculine" unicode="&#xba;" horiz-adv-x="609" 
d="M526 41q-26 5 -36 9q-17 7 -29 21l-8 -3l-24 17l-12 -7q-15 4 -104 12l-11 -5l-25 10l-25 -10l-16 20q-14 -10 -23 -20h-11l-10 13l-19 -17l-21 17l-19 -20l-4 20l-37 -17l-16 4l-31 -24l-17 27l-14 -3l5 21l-11 -1q4 20 -7 30l8 12q2 31 19 48q25 23 31 36l7 4l10 -7
q9 11 18 30l6 -3l3 6q18 28 62 61q51 38 67 57l7 -4q11 13 36 34q6 15 23.5 34t23.5 29l3 -20q12 12 8 28l19 -5q10 0 19 18q8 13 15 26l3 -14q31 28 31 48l-6 6l-26 -10l-18 10l-9 -7l-26 10l-32 -16l-27 10q-10 -12 -15 -24l-6 7l-11 -7l-18 14l-12 -7q-32 -1 -41 13
l-11 -6l-11 6l-7 -3l-18 22q0 13 33 31l8 -10q13 16 43 44l-1 -24l12 24l19 -20q9 7 21 20q27 -10 39 -20l18 13l35 -17l18 10l5 -20q23 6 27 21l-1 -5q0 -13 15 -19l27 13l22 -10q16 13 25 24l16 -10l6 3l12 -12q1 -18 10 -63q-5 -15 -20.5 -33t-19.5 -29l-19 13
q-12 -6 -11 -29l-14 -3l-8 22l-29 -52l-20 -11l-6 7q-16 -17 -42 -54l-10 20q-5 -7 -37 -31q-28 -21 -28 -25l-7 3l-24 -11l-10 -15q-14 -8 -43 -24q-4 -23 -76 -95q22 -10 56 -33q15 2 25 10l25 -3q10 -12 36 -16l21 16q0 -15 22 -29l9 3q21 -5 36 -23l12 3q14 0 97.5 -23
t89.5 -27l12 3l31 -12q3 -10 3 -17q0 -29 -38 -28h-2zM310 709h6q-4 3 -11 9q-12 8 -13 6v-2q-9 2 -26 10q-9 7 -11.5 13t-7.5 10q-12 8 -21 24q6 16 9 13q1 0 5 -6q7 -2 17 -7q2 -1 2.5 -4.5t3 -4.5t6.5 -2q6 -7 20 -21q3 -2 11 3l14 -10q20 -15 32 -15t32 15l14 10
q9 -5 11 -3q4 3 10.5 10.5t10.5 10.5q2 0 7 2q2 1 2.5 4.5t1.5 4.5q7 2 17 7q1 2 5 6q4 3 10 -13q-4 -7 -22 -24q-4 -4 -7 -10t-12 -13q-8 -2 -25 -10l-1 2t-12 -6q-3 -2 -11 -9h6q-4 0 -9 -5q-1 -2 0 -4t1 -4q-2 -3 -24 -19l-2 -5q-1 0 -3 1q-2 -1 -3 -1l-2 5
q-21 16 -23 19q-1 2 0 4q2 2 1 4q-2 3 -9 5z" />
    <glyph glyph-name="ae" unicode="&#xe6;" horiz-adv-x="897" 
d="M480 163q-5 -11 -13 -33q-3 -17 -1 -29q1 -1 2 -1q27 3 55 -15q14 10 38 10q15 0 44.5 -5t38.5 -5q16 0 57 4q47 5 59 11l13 -6l65 15l12 -2l16 -22l-16 -29l-16 6l-12 -3q-17 14 -99 14q-59 0 -125 -6q-107 -10 -128 -11l-7 4l-3 -2l-5 1l-23 -12l-13 6l-49 -21
q-2 11 -6 11q-2 0 -10 -4.5t-14 -3.5v12q-18 3 -43 6q16 36 37 36q5 0 12 -1l15 12l12 -9l3 15l19 -9l9 10l-4 14l-13 -6q9 32 0 43q5 13 9 35q-3 1 -7 1l-4 25q-14 -13 -34 -13q-8 0 -32 5l-34 -14l-17 5q-47 0 -95 -16l-5 11q-30 -19 -100 -107q-59 -75 -85 -73l-32 3
l-5 -2l7 26q62 38 83 54q48 36 65 76l26 19l-3 8l-24 1l-28 -11l-18 17l-25 -6q-4 0 -7 9t-9 11l4 16q64 1 103 28l19 -14q23 0 40 13t35 28l-5 16q36 44 52 67l10 6l11 30q61 46 58 91l19 15l5 13q14 6 26 19l-8 21l-8 -9l-14 6q-4 -3 -13 -3q-35 0 -48 15v11q26 0 30 9
l10 -3q11 0 16.5 10t13.5 10t22 -5l29 12l9 -6q27 11 51 1l9 -13l18 11v-9q15 -3 46 1l10 -6l31 9q8 -6 10.5 -3.5t8.5 -2.5q16 8 38 8q11 0 32 -2.5t32 -2.5l42 12l12 -6l15 6l23 -7q-1 -14 9 -21q-21 -15 -122 -15q-42 0 -56 4l-18 -5l-10 5l-16 -8q-15 6 -37 3l-38 -3
q-3 0 -21 -6l-21 -7l-14 -22l9 -4q-3 -9 -4 -32q-1 -19 -8 -30l10 -2v-13l-16 -11q-2 -15 -4 -46l15 6l-17 -29v-6q6 -9 9 -29q5 -4 32 -7l34 -4l9 9l15 -9l20 9l13 -12l11 6l13 -6l18 6q3 -1 3 -3q0 -4 -13 -6l16 9l17 -6l27 6l16 -6q16 6 26 15l13 -12l20 18q9 -8 20 -18
t11 -20l-11 -26l-22 -7l-20 4l3 9l-34 -1l-47 15q-12 -6 -15 -6l-4.5 3t-15.5 3l-50 -12l-28 9l-25 -12l-10 12q-12 -3 -36 -8q1 -21 -2 -40l10 -9q0 -6 -2 -16.5t-2 -15.5l1 -5l6 2q-3 -36 3 -49q1 0 3 1zM387 254q-5 3 -3 9t5 12v4q-5 5 -11 12h-3l-1 22q-12 9 -12 18
t13 16q11 33 9 40q-16 6 -10 62q-20 -31 -40 -61q-24 -35 -51 -54q-4 -9 -28.5 -40.5t-32.5 -38.5q6 -8 19 -8q5 0 17 2.5t17 2.5q4 0 9.5 -2.5t8 -3t68.5 -0.5q12 0 18 -8z" />
    <glyph glyph-name="oslash" unicode="&#xf8;" horiz-adv-x="658" 
d="M106 187q129 110 183 201q19 2 46 38q34 44 44 51q19 11 45 37q-1 1 -1 3l-7 -3q-1 0 -19.5 13t-32.5 15q-5 15 -23 18l-7 -2l-21 10q-6 0 -75 -51l-15 5l-10 -8l-11 6l-29 -19l-4 2l-26 -29l-5 2q-12 -9 -31 -31t-28 -30q2 -2 2 -7q0 -7 -13 -35.5t-13 -38.5
q0 -8 11 -19q-8 -7 -6.5 -20.5t-2.5 -18.5l9 -18l-11 -11q6 -1 15 -11l-4 -14q15 -3 18.5 -7.5t0.5 -19.5zM103 111q-11 -25 -12 -30q-50 -31 -58 -28l-32 11l1 33q20 9 26 25q31 10 32 22l-5 10l-15 -3l-3 19l-18 17q-1 4 -1 54l-13 2q-1 6 1.5 16t2.5 14l-8 17l5 12l-3 23
q9 12 5 22l11 14q-3 7 -3 17q0 32 19 46v16l18 9l3 -5q7 19 45 54t58 43l8 -2l12 18q25 0 41 16.5t20 16.5q3 0 7 -3l17 30l10 -5l12 3l22 -11l10 2l35 -19l7 3l15 -8l5 3l8 -11l13 -1l13 -10l13 8l9 -16q3 0 5 -1q-1 2 -4 5l14 15q6 2 27 12l11 14q5 0 20 6l5 17l56 -20
l-17 -11q-7 -5 -15 -10q-1 -2 0 -19q-10 -10 -30 -18q-9 -3 -13 -28l23 -9l1 -14l3 1q8 0 13.5 -6.5t4.5 -15.5l9 8q3 -30 26 -27l-4 -25q0 -15 20 -13q-11 -49 -21 -97q-14 -59 -42 -90l-7 3q-4 -35 -24 -30l-2 -13l-22 -25q-18 -4 -49 -23q-34 -21 -49 -26l-6 -13l-13 8
l-36 -13l-7 2l-27 -11l-6 3l-16 -11l-6 6l-9 -6l-6 6l-11 -8l-11 13q-8 -7 -27 -19v9l-23 -1l-4 11l-12 -16v9q-18 10 -27 18l-9 -8l-7 8l-7 -5zM455 488q-14 -16 -112 -103q-5 -4 -38 -52q-40 -60 -166 -174l20 -22l13 6l10 -8l11 10q2 -6 17.5 -11t19.5 -13q7 8 17 11
l19 -8q32 10 85 22q9 8 29 21l10 -5l18 24l6 -3q11 0 24 17q19 25 20 26l8 2q14 15 28 31q9 12 15 41l5 -3q11 1 20 36q7 27 7 45q-7 1 -24 33t-16 44l-6 -3l-8 8l-5 -3l-10 17z" />
    <glyph glyph-name="questiondown" unicode="&#xbf;" horiz-adv-x="486" 
d="M11 -63q11 7 11 14q0 2 -2 4v14l12 1q1 8 6 23l7 -9q10 10 33 39l7 -3l43 33l4 -13h8q7 9 17 33l7 -4l44 43l7 -3q9 16 36 42l9 23l6 -1q14 0 30.5 29.5t27.5 34.5l-6 16q-1 0 22 0q15 0 16 13l-4 9q9 19 9 35q10 3 31 13l13 -4l21 -23q-31 -50 -104 -149l-12 -1l1 -17
q0 -8 -15 -17q-18 -11 -20 -15q-3 -9 -12 -23l-17 -2q-9 -13 -16 -31q-11 -4 -22 -7q-14 -7 -14 -17h-6q-17 2 -21 -14l-8 10q-20 -7 -20 -26q0 -5 2 -9l-16 -7l-2 16q-20 -41 -44 -75q13 -18 26 -34.5t43 -22.5l21 10l25 -7l18 20l22 -7l31 35l10 -8l102 59h11l7 -4
q-12 -26 -56 -85l-15 10q-2 -2 -16 -29q-21 -6 -69 -30l-7 3l-33 -17l-8 4q-28 -10 -40 -20l-8 6l-10 -6l-10 6l-11 -6q-12 3 -35 8l-7 8l-24 -8l6 10q-8 8 -6 32q-7 2 -23 0q1 -1 1 32q0 23 -14 24v42zM389 464l13 11q9 -10 17 -10q4 0 9.5 2.5t8.5 2.5q15 -15 15 -28
q0 -52 -11 -81l-51 12q3 17 3 37q0 22 -4 54z" />
    <glyph glyph-name="exclamdown" unicode="&#xa1;" horiz-adv-x="259" 
d="M16 -139q0 12 10.5 27.5t12.5 20.5q41 121 115 367l-5 14q0 13 7 49q17 4 26 4q8 0 15 -8q-2 -16 4 -22v-3q-21 -33 -48.5 -123.5t-27.5 -127.5q0 -10 -22.5 -96t-27.5 -94q-14 -8 -27 -33.5t-24 -26.5l1 8l-2 32q-7 3 -7 12zM188 460l9 8l9 -10q7 7 14 7q8 -7 8 -10
q0 3 -24 -56h-15q2 12 2 25q0 15 -3 36z" />
    <glyph glyph-name="logicalnot" unicode="&#xac;" 
 />
    <glyph glyph-name="florin" unicode="&#x192;" 
 />
    <glyph glyph-name="guillemotleft" unicode="&#xab;" horiz-adv-x="331" 
d="M149 318h2h-2zM178 368q0 -1 -1 -8q5 5 12 14q10 14 7 16q-3 0 -2 0q3 11 13 32q8 12 15.5 15t11.5 9q11 15 31 27q20 -7 16 -12q0 -1 -7 -6q-3 -9 -9 -21q-4 -1 -11 -6q-1 -4 -3 -9q-9 -8 -26 -25q-2 -4 3 -14l-12 -18q-18 -25 -18 -40t18 -40l12 -17q-5 -11 -3 -14
q4 -5 13.5 -12.5t11.5 -12t4 -10.5q1 -2 5.5 -3t5.5 -2q2 -9 9 -21q2 -2 7 -6q4 -5 -16 -13q-9 6 -31 27q-4 6 -11.5 9.5t-15.5 14.5q-3 11 -13 32l2 1q3 1 -7 15q-3 4 -12 14l1 -7q-1 4 -7 11q-2 -2 -10 -1q-4 2 -23 28q-4 -1 -3 0q-1 1 0 9l2 5q20 27 24 28q2 2 5 0.5
t5 -0.5q4 2 7 11zM34 367q0 -1 4 6q2 3 4 5q7 11 18 26q1 2 4 -6l2 -8q-3 0 -2 0q3 11 13 32q8 12 15.5 15t11.5 9q11 15 31 27q20 -7 16 -12q0 -1 -7 -6q-3 -9 -9 -21q-1 -2 -5.5 -3t-5.5 -4t-3.5 -8t-12 -13t-13.5 -12q-2 -4 3 -14l-12 -18q-18 -25 -18 -40t18 -40l12 -17
q-5 -11 -3 -14q4 -5 13.5 -12.5t11.5 -12t4 -10.5q1 -2 5.5 -3t5.5 -2q2 -9 9 -21q2 -2 7 -6q4 -5 -16 -13q-9 6 -31 27q-4 6 -11.5 9.5t-15.5 14.5q-3 11 -13 32l2 1q3 1 -7 15q-3 4 -12 14l1 -7q-1 4 -7 11q-2 1 -5 -1q-3 -1 -5 0q-4 2 -24 29l-6 2q0 1 2 4q-2 3 -2 4l6 3
q20 27 24 28q-2 1 -3 1h-3q7 3 9 9z" />
    <glyph glyph-name="guillemotright" unicode="&#xbb;" horiz-adv-x="331" 
d="M133 326h-2h2zM104 277l1 7q-4 -5 -12 -14q-10 -14 -7 -15t2 -1q-2 -11 -12 -32q-9 -11 -16.5 -14.5t-11.5 -9.5q-11 -14 -31 -27q-20 8 -16 13l7 6q3 8 9 21q2 1 6 2t5 4l3 9q9 7 26 25q3 3 -3 14l12 17q18 25 18 40t-18 40l-12 18q6 10 3 14q-4 4 -13.5 12t-11.5 12
t-4 10q-4 1 -11 6q-2 8 -9 21q-2 1 -7 6q-4 5 16 12q10 -5 31 -27q4 -6 11.5 -9t16.5 -15q2 -11 12 -32h-2q-3 -2 7 -16q3 -3 12 -14q-1 7 -1 8q1 -5 7 -11q3 1 10 0q4 -1 23 -28q4 1 4 0q1 -1 0 -8l-3 -5q-20 -27 -24 -29q-2 -1 -5 0q-2 2 -5 1q-4 -2 -7 -11zM249 278
q-1 1 -5 -6l-4 -6q-7 -11 -17 -26q-2 -2 -5 7l-2 8q3 -1 2 -1q-2 -11 -12 -32q-9 -11 -16.5 -14.5t-11.5 -9.5q-11 -14 -31 -27q-20 8 -16 13l7 6q3 8 9 21q5 1 11 5q1 4 3 10q9 7 26 25q3 3 -3 14l12 17q18 25 18 40t-18 40l-12 18q6 10 3 14q-4 4 -13.5 12t-11.5 12t-4 10
q-1 2 -5 3t-6 3q-2 8 -9 21q-2 1 -7 6q-4 5 16 12q10 -5 31 -27q4 -6 11.5 -9t16.5 -15q2 -11 12 -32h-2q-3 -2 7 -16q3 -3 12 -14q-1 7 -1 8q1 -5 7 -11q3 -1 5.5 0.5t4.5 -0.5q4 -1 24 -28l6 -3q0 -1 -2 -4q2 -3 2 -4l-6 -2q-20 -27 -24 -29h3q2 -1 3 -1q-7 -3 -8 -8z" />
    <glyph glyph-name="ellipsis" unicode="&#x2026;" horiz-adv-x="610" 
d="M327 8l-13 -12q-9 10 -37 10q-4 0 -9.5 -2.5t-8.5 -2.5q-15 15 -15 29q0 52 12 80l70 -11q-3 -17 -3 -37q0 -23 4 -54zM557 8l-13 -12q-9 10 -37 10q-4 0 -9.5 -2.5t-8.5 -2.5q-15 15 -15 29q0 52 12 80l70 -11q-3 -17 -3 -37q0 -23 4 -54zM97 8l-13 -12q-9 10 -37 10
q-4 0 -9.5 -2.5t-8.5 -2.5q-15 15 -15 29q0 52 12 80l70 -11q-3 -17 -3 -37q0 -23 4 -54z" />
    <glyph glyph-name="nonbreakingspace" unicode="&#xa0;" horiz-adv-x="268" 
 />
    <glyph glyph-name="Agrave" unicode="&#xc0;" horiz-adv-x="851" 
d="M853 203.5q-14 -3.5 -19 -3.5t-53 5.5t-53 5.5q-18 0 -21 -26q0 -12 12 -29t27 -17q5 0 10 2q3 -8 6 -35q6 -12 21 -35q6 -3 18 -10q2 -3 2 -18q7 -2 16 -4t9 -7q0 -10 -9 -16.5t-16 -6.5q-5 0 -21.5 4t-23.5 4q-15 9 -23 45q-16 8 -43 28q-3 7 -13 19q-8 1 -25 2
q-1 2 -17 42q-10 26 -41 27q-3 9 -6.5 20t-9.5 11q-5 0 -10.5 -6t-9.5 -7q-11 -5 -26 -5q-5 0 -25 3.5t-25 3.5t-22.5 -8.5t-23.5 -8.5q-4 0 -13 3.5t-14 3.5q-2 0 -31 -1h-45q-9 0 -27 -8q-29 -11 -33 -12q-2 2 -6 7t-6 7q-19 -11 -39 -40q-13 -21 -27 -42q-8 -5 -23 -15
q-3 -9 -15 -27q-41 -36 -118 -105q-28 -25 -57 -65q-8 -12 -25 -20q-13 -7 -13 -12q0 -3 1 -6q-48 -22 -54 -22q-4 0 -22 1.5t-28 1.5l-6 -2v33q26 10 71 32q17 10 125 106q12 2 24 11q16 15 21 17q0 3 -8 10q14 10 44 36q18 19 50 55q2 9 7 24q6 10 32 25q0 6 -7 10
q-12 1 -37 1q-5 0 -19 -6.5t-19 -7.5q-22 21 -33 21q-3 0 -16 -3.5t-19 -3.5t-48 10q-51 11 -68 14q-8 7 0 20q1 1 35 1q24 0 99 16l46 4q32 3 47 15q1 -18 35 -18q40 0 54 12q21 20 42 39q-1 2 -8 10q-5 5 -5 11q0 3 21 34q24 36 30 50q6 1 14 6q5 34 4 38q3 5 15 12.5
t15 12.5q25 46 25 75q0 8 -2 14q1 5 23 19q1 5 2 16q24 9 45.5 49.5t51.5 49.5q14 -5 14 -18q0 -10 -8 -18q13 -12 29 -10q-10 -17 -10 -39q0 -19 14 -19q8 0 12 3q0 -4 -6.5 -14.5t-6.5 -16.5q0 -5 4 -10q3 2 11 2q8 -1 11 -3q0 -1 -4 -1t-4 -5v-22q5 -2 28 -2l5 -5v-12
q-29 -15 -29 -22q0 -5 4 -8.5t7 -6.5q1 -5 -1 -16q-2 -14 -2 -18q-3 -3 7 -3q5 0 13.5 5t12.5 5q-4 -10 -12 -33t-12 -33q18 -6 23 -14q-1 -16 9 -43q-12 -31 -12 -30q0 -9 11 -9q6 0 9 1.5t5 1.5q5 -1 5 -9q0 -4 -7.5 -11t-9.5 -9q4 -4 19 0q7 -3 7 -17q13 -6 39 -12
q65 -4 100 -4q4 0 29.5 3.5t30.5 3.5q20 0 32 -7q8 1 13 1q16 0 -5 -9.5t-27.5 -9.5t-20.5 -3.5zM569 255q-8 3 -8 10q0 1 2 10q2 7 0 11q-8 4 -22 14q1 13 0 34q-25 -1 -25 25q0 6 1.5 20t1.5 21q0 13 -5 20q-25 8 -39 79q-14 -32 -28 -65q-26 -52 -64 -79q0 -4 -10 -24
q-11 -11 -25 -38t-27 -37q14 -11 32 -11q5 0 25 3.5t25 3.5q6 0 15 -3l12 -4q39 0 116 -1q7 -3 18 -9zM610 833q-10 5 -30.5 8t-29.5 8l-1 -3q-3 -4 -29 9q-7 4 -31 17q-2 1 -4 8q-6 -3 -19 -7q-10 10 -37 54q-4 0 -37.5 -17t-35.5 -20t1 -6q2 -4 0 -7q-3 -5 -20 -8
q14 1 40 -4q8 -3 4 -17q19 -4 44.5 -4t71.5 -23l33 -15q19 7 26 3q9 -4 23.5 -16t23.5 -16q7 0 18 -3q3 -2 5 -7t5 -7q16 -2 39 -11q3 -3 12 -9q9 -5 23 19q-10 13 -51 39q-11 5 -17 15t-27 20z" />
    <glyph glyph-name="Atilde" unicode="&#xc3;" horiz-adv-x="810" 
d="M813 149.5q-14 -3.5 -19 -3.5t-53 5.5t-53 5.5q-18 0 -21 -26q0 -12 11 -27q13 -19 28 -19q5 0 10 2q3 -8 6 -35q6 -12 21 -35q6 -3 18 -10q2 -2 2 -18q7 -1 16 -3.5t9 -7.5q0 -9 -9 -15.5t-16 -6.5q-5 0 -21.5 3.5t-23.5 3.5q-15 10 -23 45q-16 8 -43 28q-3 7 -13 19
q-8 1 -25 2q-1 2 -17 43q-10 25 -41 26q-3 10 -6.5 20.5t-9.5 10.5q-5 0 -10.5 -6t-9.5 -7q-11 -4 -26 -4q-5 0 -25 3t-25 3t-22.5 -8.5t-23.5 -8.5q-4 0 -13 3.5t-14 3.5q-2 0 -31 -1h-45q-9 0 -27 -8q-29 -10 -33 -12q-2 2 -6 7t-6 7q-19 -11 -39 -39q-13 -22 -27 -43
q-8 -5 -23 -15q-3 -9 -15 -27q-41 -36 -118 -104q-28 -26 -57 -66q-8 -12 -25 -20q-13 -7 -13 -12q0 -3 1 -6q-48 -22 -54 -22q-4 0 -22 2t-28 2l-6 -3v33q26 11 71 33q17 9 125 105q12 2 24 11q16 15 21 17q0 3 -8 10q14 10 44 36q18 19 50 55q2 9 7 24q6 10 32 25
q0 6 -7 10q-12 1 -37 1q-5 0 -19 -6t-19 -8q-22 21 -33 21q-3 0 -16 -3.5t-19 -3.5t-48 10q-51 11 -68 15q-8 7 0 20h35q24 0 99 16l46 4q32 3 47 15q1 -17 35 -17q40 0 54 11q21 20 42 39q-1 2 -7 9t-6 12q0 3 21 34q24 36 30 50q6 1 14 7q5 33 4 37q3 5 15 12.5t15 12.5
q25 46 25 75q0 8 -2 15q1 4 23 18q1 5 2 16q24 9 45.5 49.5t51.5 49.5q14 -5 14 -17q0 -10 -8 -19q13 -12 29 -9q-10 -18 -10 -40q0 -19 14 -19q8 0 12 4q0 -5 -6.5 -15.5t-6.5 -16.5q0 -5 4 -10q3 3 11 2q8 0 11 -3q0 -1 -4 -1t-4 -5v-22q5 -2 28 -2l5 -4v-13
q-29 -15 -29 -21t4 -9.5t7 -5.5q1 -6 -1 -17q-2 -14 -2 -18q-3 -2 7 -2q5 0 13.5 4.5t12.5 4.5q-4 -10 -12 -33t-12 -33q18 -6 23 -14q-1 -16 9 -43l-12 -30q0 -9 11 -9q6 0 9 1.5t5 1.5q5 0 5 -8q0 -5 -7.5 -12t-9.5 -9q4 -4 19 0q7 -3 7 -17q13 -5 39 -12q65 -4 100 -4
q4 0 29.5 3.5t30.5 3.5q20 0 32 -7q8 1 13 1q16 0 -5 -9.5t-27.5 -9.5t-20.5 -3.5zM529 201q-8 3 -8 10q0 2 2 10q2 7 0 11q-8 4 -22 14q1 13 0 34q-25 -1 -25 25q0 6 1.5 20t1.5 21q0 14 -5 20q-25 8 -39 79l-28 -64q-26 -52 -64 -80q0 -4 -10 -24q-11 -11 -25 -38t-27 -36
q14 -11 32 -11q5 0 25 3.5t25 3.5q6 0 15 -3.5t12 -3.5q39 0 116 -2q7 -2 18 -9zM207 716l-2 2q-2 -13 7 -19l9 9l-12 1q14 -20 47 -13l36 32l-20 4l4 -8l-1 -1h-2q7 -1 20 6l5 10l24 17l-6 2l9 3l30 -2l1 1q10 2 22 0q4 -1 3 -5q13 -4 21 -13l23 -4q3 -5 12 -11l3 -3
q4 -3 8 -9l13 -4q2 -3 5 -6l1 -7l11 -3l18 -7q6 0 12 -1l1 -1q10 -12 60 -12q15 1 32 6l34 10q9 4 25 15q20 15 17 23q8 3 11 5q28 24 29 45q2 20 -31 20q-10 0 -32 -3l-1 -14q-1 -1 -17 -21l-10 -1l-1 -9l-44 -10l25 -5q-8 -1 -54 -9l10 -2h-6l-10 1q-5 4 -15 6
q-8 7 -22 10q-3 3 -7 5q-5 7 -19 13l-2 2l28 8l-58 10l-14 12h-5l-2 3q-7 1 -20 4l-6 3q-14 6 -63 11q-26 -8 -51 -15q-21 -7 -44 -26q-14 -1 -14 -11q0 -3 2 -6q-17 3 -17 -10q0 -4 2 -9q-7 -5 -13 -12z" />
    </font>
</defs>
</svg>
