<?xml version="1.0" standalone="no"?>
<!DOCTYPE svg PUBLIC "-//W3C//DTD SVG 1.1//EN" "http://www.w3.org/Graphics/SVG/1.1/DTD/svg11.dtd" >
<svg>
<metadata>
Created by FontForge 20120731 at Wed Apr 17 21:20:20 2019
 By www-data
Digitized by Dan X. Solo. Software (c)2000 by Dover Publications, Inc., New York.
</metadata>
<defs>
<font id="PelhamBold" horiz-adv-x="20" >
  <font-face 
    font-family="Pelham Bold"
    font-weight="400"
    font-stretch="normal"
    units-per-em="1000"
    panose-1="0 0 4 0 0 0 0 0 0 0"
    ascent="800"
    descent="-200"
    x-height="361"
    cap-height="712"
    bbox="-105 -393 1258.3 871.783"
    underline-thickness="20"
    underline-position="-123"
    unicode-range="U+0020-F002"
  />
<missing-glyph horiz-adv-x="500" 
d="M63 0v800h375v-800h-375zM125 63h250v675h-250v-675z" />
    <glyph glyph-name=".notdef" horiz-adv-x="500" 
d="M63 0v800h375v-800h-375zM125 63h250v675h-250v-675z" />
    <glyph glyph-name="glyph1" horiz-adv-x="0" 
 />
    <glyph glyph-name="glyph2" horiz-adv-x="266" 
 />
    <glyph glyph-name="space" unicode=" " horiz-adv-x="266" 
 />
    <glyph glyph-name="exclam" unicode="!" horiz-adv-x="395" 
d="M311 566q0 -130 -8 -163q-7 -26 -45 -103.5t-38 -79.5q0 -4 17 -30.5t17 -29.5q0 -12 -10.5 -20.5t-23.5 -8.5q-22 0 -45 17q-7 -7 -15 -26q-8 -22 -15 -31q-25 13 -54 40q-32 29 -34 49q2 22 4 70q-1 27 -15 57q-17 36 -19 46q-7 36 -7 111q0 35 7 81q12 71 57 137
q11 16 35 36.5t39 26.5q20 8 25 8q9 0 48 -34q80 -70 80 -153zM364 -31q0 -47 -52.5 -104.5t-99.5 -57.5q-33 0 -44 4q-35 13 -66 62q-29 43 -29 69q0 53 38.5 92.5t97.5 39.5q49 0 95 -23q60 -30 60 -82zM193 507q0 90 -8 112q-2 3 -11 3q-44 -149 -44 -218q0 -52 23 -52
q40 0 40 155zM250 -44l-7 8q-2 0 -14 1.5t-22 1.5q4 -40 8 -46q24 12 35 35z" />
    <glyph glyph-name="quotedbl" unicode="&#x22;" horiz-adv-x="287" 
d="M208 678l42 -14q15 -6 11 -20q-1 -49 -70 -188q-4 -15 -19 -11l-22 6q-16 4 -11 19q39 82 50 196q4 17 19 12zM73 678l42 -14q15 -5 11 -20q-1 -49 -69 -188q-5 -15 -20 -11l-22 6q-15 4 -11 19q39 82 50 197q4 16 19 11z" />
    <glyph glyph-name="numbersign" unicode="#" horiz-adv-x="507" 
d="M356 407q1 -19 11 -123q62 4 67 4q29 0 45 -32q12 -23 12 -47q0 -30 -42 -44l-75 18q5 -88 -2 -165q-24 -30 -49 -30q-28 0 -34 33q-4 8 -9 26q-4 56 -10 153l9 -7q0 3 1 4l-8 -5h-1q-7 4 -35 -1q-10 -2 -22 -2q-3 0 -20 -1v-41l9 -110q4 -54 -43 -54q-27 0 -42 46
q-11 34 -12 70q0 24 -5 80q-16 -2 -41 -9q-21 -7 -26 -7q-31 0 -31 38q0 30 25 50q20 16 49 20q8 1 17 2q-4 42 -11 123q-5 -1 -34 -11q-24 -7 -30 -7q-31 0 -31 37q0 30 31 53q26 19 57 23q-4 81 3 154q24 30 49 30q28 0 34 -33q4 -8 9 -26q3 -46 8 -118q26 1 78 1v17
l-9 110q-4 54 43 54q27 0 42 -45q11 -34 12 -71q0 -23 3 -61q77 5 84 5q29 0 45 -32q12 -23 12 -47q0 -33 -52 -24zM261 401v8q-8 4 -28 1q-9 -2 -21 -2q-4 0 -28 -1l7 -128q25 0 74 1q-1 43 -4 114v7z" />
    <glyph glyph-name="dollar" unicode="$" horiz-adv-x="594" 
d="M554 214q0 -63 -63 -102l-15.5 -2t-19.5 -9l54 -109q-7 -23 -16 -28q-23 -12 -59.5 -25.5t-42.5 -13.5h-13q0 90 -28 146q-2 4 -23 14q-2 -8 2 -25q5 -20 5 -28q0 -18 -16 -29q-6 -4 -32 -4q-62 0 -76 30q0 11 -2 30q-8 7 -63 21q-19 4 -46 27q-30 25 -35 45q10 3 60 6
q10 1 32 -3.5l22 -4.5h11q2 2 2 6q0 14 -9 61q-13 62 -30 91q-6 10 -81 47q-67 34 -67 64q0 18 16 24q20 7 53 13q46 9 53 10q-12 65 -12 101q0 30 13 55q13 -7 22 -7q0 -6 8 -24q7 -94 43 -94q4 0 54 20q-4 10 -4 20q0 21 12.5 36.5t32.5 15.5q16 0 29 -27q20 -40 20 -41
q56 19 161 80q4 -7 4 -19q0 -63 -50 -105q-29 -25 -102 -59q2 -2 29 -63q8 1 24 -4q50 -30 99 -59q44 -32 44 -78zM263 355q-4 22 -16 64q-5 13 -22 13q-27 0 -27 -33q0 -50 33 -50q4 0 16.5 3t15.5 3zM430 214q0 28 -27 28t-27 -28t27 -28t27 28zM323 193q0 4 -8 18
q-10 18 -11 21q-7 16 -26 16q-26 0 -26 -31q0 -21 10 -35q12 -17 31 -17q10 0 16 3q6 -6 6 -8q-1 13 3.5 21t4.5 12z" />
    <glyph glyph-name="percent" unicode="%" horiz-adv-x="746" 
d="M613 -4q-24 -14 -59 -14q-9 0 -31 5q-74 16 -97 88q-17 54 -17 102t6 90q27 77 47 106q28 41 72 41q14 0 38 -8q20 -8 26 -12q95 -69 95 -186q0 -50 -21 -115q-25 -77 -59 -97zM547 617q-1 -3 -19 -34q-35 -59 -108 -190q-34 -63 -164 -319q-21 -40 -23 -43
q-8 -12 -28 -32q-25 -24 -35 -24q-8 0 -8 16q0 19 17 75q13 44 88 196q45 92 89 183q53 108 99 177q10 15 36.5 49t42.5 34q2 0 11 -5q20 -11 20 -32q0 -16 -18 -51zM211 276q-18 -18 -68 -18h-34q-73 16 -96 89q-20 63 -20 93q0 71 6 87v23q47 136 130 136q27 0 56 -20
q95 -69 95 -187q0 -53 -21 -114t-48 -89zM566 303l-19 2q-15 -2 -18 -3q-8 -3 -15 -12q-24 -31 -24 -128q0 -25 11 -38q28 -33 50 -33t37.5 33t15.5 70q0 30 -11.5 65t-26.5 44zM151 569q-75 5 -75 -135q0 -22 12 -35q31 -37 50 -37q21 0 37 33t16 70q0 29 -12 62t-28 42z
" />
    <glyph glyph-name="ampersand" unicode="&#x26;" horiz-adv-x="674" 
d="M719 -58q-14 -18 -48 -30q-3 -1 -16 -1q-25 0 -46 11q-7 3 -45 32q-28 21 -48 23q-23 4 -48 4q-17 0 -35.5 -2l-18.5 -2q-80 0 -186 21q-46 10 -100 35q-27 7 -77 29q-17 11 -34 39t-17 49t19.5 54.5t44.5 52.5q15 12 47 26q26 12 53 24q-18 35 -39 91q-28 74 -28 101
q0 92 64 150q60 54 146 54q9 0 29 -5q90 -20 137 -83q22 -28 22 -82q0 -76 -48 -148t-136 -125q4 -1 41 -2q25 -1 38 -11q48 -46 157 -135q6 -4 31 -4q4 0 7.5 1.5t7.5 1.5q22 0 34 -6q1 -4 17 -28q2 -4 5 -7q4 -7 3 -11l-11 -35q9 3 14 5l36 -21q7 -13 20 -33q5 -6 5.5 -17
t2.5 -16zM378 517q0 28 -33 44q-25 12 -51 12q-37 0 -58.5 -25t-21.5 -59q0 -23 19 -57l32 -50q41 25 43 27q25 18 38 37q9 14 20.5 40t11.5 31zM351 112l-109 103q-37 -17 -111 -52q0 -2 -1 -7q26 -20 106 -26q34 -2 115 -18z" />
    <glyph glyph-name="quotesingle" unicode="'" horiz-adv-x="195" 
d="M73 678l62 -14q15 -4 11 -20q-3 -49 -39 -108l-50 -80q-5 -15 -20 -11l-22 6q-15 4 -11 19q39 82 50 197q4 15 19 11z" />
    <glyph glyph-name="parenleft" unicode="(" horiz-adv-x="293" 
d="M161 -65q-39 0 -76 41q-27 30 -49 93q-25 69 -32 164q-1 19 -1 34q0 38 2 86q6 122 45 231q23 65 58 98q23 22 37 22q28 0 48 -14q14 -10 23 -25t16 -38q2 -12 2 -14q0 2 -2 -10q-2 -15 -12 -9q-8 5 -13 5q-7 0 -37 -25q-8 -8 -27 -37q-27 -41 -40 -113q-7 -36 -10 -75
q-1 -18 -1 -49q0 -12 1 -43q3 -60 23 -110q15 -34 29 -69q15 -31 31 -37q25 -9 46 -9q4 0 10.5 -11.5t6.5 -27.5q0 -8 -2 -16q-9 -44 -57 -44q-7 0 -19 2z" />
    <glyph glyph-name="parenright" unicode=")" horiz-adv-x="293" 
d="M76 -65q40 0 77 41q27 30 49 93q24 69 32 164q1 19 1 34q0 38 -3 86q-6 122 -44 231q-23 65 -58 98q-23 22 -37 22q-28 0 -48 -14q-14 -10 -23.5 -25t-15.5 -38q-2 -12 -2 -14q0 2 2 -10q2 -15 12 -9q7 5 13 5q7 0 36 -25q9 -8 28 -37q27 -41 40 -113q7 -36 10 -75
q1 -18 1 -49q0 -12 -1 -43q-3 -60 -24 -110q-14 -34 -28 -69q-15 -31 -32 -37q-24 -9 -45 -9q-5 0 -11 -11.5t-6 -27.5q0 -8 2 -16q9 -44 57 -44q7 0 18 2z" />
    <glyph glyph-name="asterisk" unicode="*" horiz-adv-x="336" 
d="M121 704h28q10 0 12 -12q8 -38 15 -83q43 28 77 46q9 7 15 -4l14 -24q5 -9 -4 -16q-36 -17 -81 -49q59 -28 99 -53q10 -5 4 -15l-14 -25q-5 -8 -16 -4q-33 23 -83 46q5 -64 3 -111q1 -11 -12 -11h-28q-9 0 -11 11q3 49 -4 117q-50 -40 -88 -80q-4 -3 -12 0q-9 3 -11 7
l-14 24q-5 9 4 16q35 32 80 66q-48 18 -90 28q-4 2 -6 11q-2 8 0 12l15 25q5 8 15 4q45 -14 97 -36q-9 51 -21 93q-1 5 5.5 11t11.5 6z" />
    <glyph glyph-name="plus" unicode="+" horiz-adv-x="613" 
d="M559 311q-90 9 -217 4q12 -136 12 -231q0 -8 -12.5 -15.5t-21.5 -7.5l-57 -3q-21 -1 -22 20q9 94 3 232q-119 -8 -222 -26q-19 -1 -24 25l-2 36q-2 21 21 24q83 19 222 35q-10 118 -27 220q-1 21 20 22l57 3q7 1 9 -3q1 -3 0 -9q-1 -7 -1 -8q13 -67 35 -216
q126 11 221 12q8 0 15.5 -13t7.5 -22l3 -57q1 -21 -20 -22z" />
    <glyph glyph-name="comma" unicode="," horiz-adv-x="249" 
d="M213 54q0 -49 -29 -83q-31 -37 -80 -37q-57 0 -73 8q-44 20 -44 32q0 3 5.5 10.5t3.5 13.5q32 2 54 15q18 11 36 23q-4 38 -30 87q-24 45 -24 72q0 28 4.5 34t25.5 6q10 0 42 -5q21 -3 31 -14q24 -24 50 -77q28 -56 28 -85z" />
    <glyph glyph-name="hyphen" unicode="-" horiz-adv-x="331" 
d="M24 279q149 -22 172 -22q44 0 96 12q16 0 16 -16v-76q0 -16 -16 -16q-22 -3 -54 -3q-41 0 -114 5q-86 7 -100 8q-6 0 -11 20q-5 16 -5 26v46q0 16 16 16z" />
    <glyph glyph-name="hyphen" unicode="&#x2010;" horiz-adv-x="331" 
d="M24 279q149 -22 172 -22q44 0 96 12q16 0 16 -16v-76q0 -16 -16 -16q-22 -3 -54 -3q-41 0 -114 5q-86 7 -100 8q-6 0 -11 20q-5 16 -5 26v46q0 16 16 16z" />
    <glyph glyph-name="period" unicode="." horiz-adv-x="353" 
d="M289 61q0 -46 -33.5 -76.5t-78.5 -30.5q-39 0 -91 25q-65 31 -65 74q0 41 35.5 71.5t80.5 30.5q29 0 54 -5q18 -4 53 -13q19 -6 27 -17q18 -27 18 -59zM184 47q-4 34 -36 34q-4 0 -25 -5q-2 -1 -7 -1l-3 -3q-6 -4 -6 -14q0 -8 13.5 -18.5t23.5 -14.5t18 -4q25 0 22 26z
" />
    <glyph glyph-name="slash" unicode="/" horiz-adv-x="317" 
d="M210 620q47 82 70 82q3 0 5 -1q12 -6 23 -11q17 -12 15 -33q-1 -17 -24 -71q-29 -59 -87 -190q-68 -178 -140 -363q-8 -13 -24 -31q-21 -24 -32 -24q-13 0 -13 35q0 13 4 50q11 95 48 198q91 248 155 359z" />
    <glyph glyph-name="zero" unicode="0" horiz-adv-x="570" 
d="M519 364q0 -81 -40.5 -176.5t-90.5 -136.5q-38 -30 -123 -30q-16 0 -59 7q-3 1 -36 9q-42 11 -82 44t-56 74q-35 86 -35 141q0 103 45 177q0 3 -12 8q43 101 84 143q51 51 126 51q47 0 97 -29q90 -52 138 -132q44 -73 44 -150zM405 341q0 61 -33 126q-38 74 -90 84l1 -36
q0 -23 -12 -32q-29 1 -66 -5q-66 -44 -91 -93q-19 -39 -19 -96q0 -16 6 -43q7 -33 16 -41q74 -69 141 -69t110 74q37 62 37 131z" />
    <glyph glyph-name="one" unicode="1" horiz-adv-x="278" 
d="M234 104q0 -3 -6 -31q-7 -31 -9 -44q-40 -35 -91 -35q-36 0 -41 20q-6 8 -12 25q-33 318 -33 392v77l-12 109q0 46 50 46q35 0 53 -42q12 -30 13 -66q1 -55 21 -195q18 -124 14 -196q53 -13 53 -60z" />
    <glyph glyph-name="two" unicode="2" horiz-adv-x="585" 
d="M531 402q0 -129 -74 -212q30 -21 59 -42q57 -44 57 -61v-34q-18 -5 -77 17q-64 23 -84 23q-9 0 -15 -3q-27 -22 -80 -61q-100 -60 -167 -60q-28 0 -43 33q-12 26 -12 58q0 85 81 130q62 34 140 34q4 0 19 -1.5t18 -1.5q7 0 22 29q47 90 47 172q0 17 -7 53q-6 27 -35 54.5
t-58 27.5q-50 0 -122 -35q-81 -38 -102 -85q14 -15 57 -42q-18 -22 -60 -22q-41 0 -66.5 26.5t-25.5 66.5q0 87 132 150q107 50 187 50q60 0 114.5 -41t78.5 -111q16 -46 16 -112zM315 109q-5 24 -10 38q-21 -6 -70 -49q23 4 80 11z" />
    <glyph glyph-name="three" unicode="3" horiz-adv-x="585" 
d="M536 199q0 -24 -7.5 -54t-17.5 -42q-32 -38 -83 -53q-116 -33 -185 -33q-51 0 -216 41q-4 4 -4 9q0 14 16 38t28 24q4 0 27.5 -1.5t28.5 -1.5h85q7 0 71 9q72 11 110 19q26 5 26 42q0 42 -63 55q-42 3 -84 7q-32 7 -101 22q-61 12 -61 58q0 43 67 78q62 26 124 53
q67 31 67 62q0 29 -31 29q-26 0 -91 -11q-68 -10 -81.5 -16t-59.5 -51t-65 -53q-22 21 -22 64q0 57 46 98q56 50 138 66q48 9 139 9q61 0 100 -33q43 -36 43 -99q0 -112 -149 -169q3 -1 8 -4q197 -17 197 -162z" />
    <glyph glyph-name="four" unicode="4" horiz-adv-x="575" 
d="M539 344q0 -13 -7 -91q-9 -95 -18 -143q-13 -75 -59 -90q-13 -4 -49 -9q-18 34 -18 65q0 -6 3.5 55.5t3.5 109.5q0 12 5 28q-6 -6 -19 -14q-34 -7 -114 -7h-58q-113 0 -160 57q-41 50 -41 160q0 81 17 114q0 5 3 12q-2 15 -5 29q-1 18 4 28q16 30 55 30q27 0 52 -28.5
t25 -54.5q0 -2 -16 -59.5t-16 -82.5q0 -48 38 -74q10 -7 46 -10q20 -2 34 -2l98 6q4 0 23.5 -3t22.5 -3q10 0 15 20q5 14 5 26q0 3 -10.5 63.5t-10.5 63.5q0 31 27 31q74 0 104 -164q2 -9 11 -34t9 -29z" />
    <glyph glyph-name="five" unicode="5" horiz-adv-x="575" 
d="M591 593q0 -37 -17 -45q-6 -3 -39 -3q-4 0 -23.5 1.5t-22.5 1.5q-7 0 -33 -4q-1 0 -23 -10q-69 -28 -137 -57q-82 -34 -133 -63q-20 -12 -20 -29q0 -26 19 -29q88 -11 170 -58q108 -62 108 -150q0 -67 -46 -100q-37 -28 -100 -28t-132 28q-82 32 -130 91q-26 33 -25 46
v13h10q24 0 117 -41.5t131 -41.5q53 0 53 30q0 40 -85 73l-116 34q-69 27 -79 84q-5 8 -12.5 22.5t-7.5 31.5q0 26 80 146q69 103 82 116.5t28 20t29 12.5q16 -31 20 -52q2 -9 2 -44v-9q2 -2 6 -2q3 0 23 18q24 21 31 25q32 20 72.5 30t73.5 10q20 0 33 -2q21 -3 62 -14
q18 -7 27 -20q4 -7 4 -32z" />
    <glyph glyph-name="six" unicode="6" horiz-adv-x="576" 
d="M543 244q0 -101 -105 -179q-92 -69 -181 -69q-21 0 -75 20q-92 33 -137 109q-36 62 -36 142q0 47 29 102q15 41 55 121q10 15 61 74t70 89q3 5 14 12t17 7q20 0 32 -19q10 -15 10 -33q0 -43 -25 -88q-11 -19 -64 -95q-26 -32 -49 -87q-25 -62 -25 -103q0 -19 8 -44
q11 -30 26 -41q1 0 6 8q9 74 70 125q58 48 124 48q68 0 115 -21q60 -26 60 -78zM418 214q0 22 -28 22q-36 0 -82 -41.5t-52 -76.5h15q48 0 123 67q24 22 24 29z" />
    <glyph glyph-name="seven" unicode="7" horiz-adv-x="556" 
d="M514 478q0 -62 -28 -151q-14 -46 -51 -139q-28 -70 -28 -86q0 -8 12 -33q-123 -67 -121 -67q-5 0 -18.5 16.5t-19.5 29.5q-13 28 -13 52q0 3 28 50q33 55 49 89q69 149 69 235q0 45 -18 66.5t-64 21.5q-37 0 -103 -18q-42 -12 -83 -30q-10 -4 -45 -24q-30 -16 -34 -16
q-25 0 -37.5 17t-12.5 37q0 52 45 89q14 12 48 21q26 7 115 25q117 24 153 24q83 0 126 -78q31 -58 31 -131z" />
    <glyph glyph-name="eight" unicode="8" horiz-adv-x="556" 
d="M515 561q0 -10 2 -19q1 -6 0 -12q-1 -8 -9 -31q-10 -30 -36 -60q-6 -8 -67 -52q-26 -18 -85 -78l8 -6q58 -12 93 -45.5t35 -84.5q0 -68 -37 -113q-40 -48 -145 -48q-65 0 -105 26q-48 32 -48 98q0 49 30 109q0 3 -5 6q-74 28 -105.5 64t-31.5 95q0 76 54 147
q59 76 151 99q28 8 82 8q183 0 212 -67q7 -15 7 -36zM417 529q-7 12 -44 21q-29 7 -49 7q-49 0 -120 -42q-83 -48 -83 -105q0 -20 7.5 -28t48.5 -21q37 -12 48 -12t48 51q22 31 44 63q16 18 37 31q1 0 36 15q23 10 27 20zM343 172q0 23 -33 36q-26 11 -51 11q-13 0 -28 -12
q-18 -13 -18 -28q0 -5 5 -13.5t6 -10.5q7 -34 60 -34q59 0 59 51z" />
    <glyph glyph-name="nine" unicode="9" horiz-adv-x="542" 
d="M535 89q-9 0 -26.5 -23t-28.5 -27q-18 -7 -34 -4q-29 3 -30 3q-8 0 -21.5 7t-17.5 12q-20 25 -21 45q-2 52 -7 154q0 100 -2 102h-3q-20 -37 -80 -56q-46 -15 -96 -15q-49 0 -75 16q-32 20 -56 77q-17 39 -17 51q0 45 1 47q4 11 4 29q2 26 3 34t11 23q17 27 17 28
q22 38 104 67q71 25 124 25q38 0 51.5 -14.5t13.5 -48.5q0 -30 -16 -67q-23 6 -45 6q-24 0 -31 -7q-27 -15 -53 -31q-38 -28 -47 -80q-1 -2 -1 -7q0 -35 18 -35q16 0 69 28q14 6 27 12q20 10 31 24q13 20 20 36q14 34 28 69q30 56 68 56q51 0 51 -71q0 -14 -2 -38
q-2 -19 -2 -23l3 -248q0 1 15 1q5 -31 19 -87q11 -23 34 -70z" />
    <glyph glyph-name="colon" unicode=":" horiz-adv-x="287" 
d="M309 81q0 -46 -33.5 -76.5t-78.5 -30.5q-39 0 -91 25q-65 31 -65 74q0 41 35.5 71.5t80.5 30.5q29 0 54 -5q18 -4 53 -13q19 -6 27 -17q18 -27 18 -59zM204 67q-4 34 -36 34q-4 0 -25 -5q-2 -1 -7 -1l-3 -3q-6 -4 -6 -14q0 -8 13.5 -18.5t23.5 -14.5t18 -4q25 0 22 26z
M196 397q0 -25 -14 -45q-16 -23 -41 -23q-29 0 -84 17q-72 24 -72 56q0 16 42 63q16 19 40 26q16 5 37 5h38q38 -35 41 -38q13 -19 13 -61zM122 368q-3 11 -11 27q-21 21 -41 20h-14q40 -42 66 -47z" />
    <glyph glyph-name="semicolon" unicode=";" horiz-adv-x="289" 
d="M196 397q0 -25 -14 -45q-16 -23 -41 -23q-29 0 -84 17q-72 24 -72 56q0 16 42 63q16 19 40 26q16 5 37 5h38q38 -35 41 -38q13 -19 13 -61zM283 54q0 -49 -29 -83q-31 -37 -80 -37t-81 14q-1 1 -34 45q14 11 48 23q39 15 49 20q-4 38 -30 87q-24 45 -24 72q0 28 4.5 34
t25.5 6q10 0 42 -5q21 -3 31 -14q24 -24 50 -77q28 -56 28 -85zM122 368q-3 11 -11 27q-21 21 -41 20h-14q40 -42 66 -47z" />
    <glyph glyph-name="less" unicode="&#x3c;" horiz-adv-x="426" 
d="M353 128q1 -7 1 -13q0 -18 -12.5 -27t-23.5 -9q-53 0 -92 46l-104 92q-36 33 -110 112q-14 12 -14 26q0 17 20 32q100 81 250 189q19 11 46 11q41 0 41 -41q0 -7 -2 -12q-11 -30 -29 -37q-58 -25 -173 -121q-18 -18 -7 -47q48 -47 119 -109q21 -12 52 -42q34 -33 38 -50z
" />
    <glyph glyph-name="equal" unicode="=" horiz-adv-x="443" 
d="M21 403h358q16 0 16 -16v-46q0 -16 -16 -16h-358q-16 0 -16 16v46q0 16 16 16zM21 243h358q16 0 16 -16v-46q0 -16 -16 -16h-358q-16 0 -16 16v46q0 16 16 16z" />
    <glyph glyph-name="greater" unicode="&#x3e;" horiz-adv-x="426" 
d="M12 536q-1 6 -1 12q0 18 14 29q11 8 22 8q54 0 92 -46l104 -92q36 -33 110 -113q14 -11 14 -25q0 -18 -20 -33q-100 -80 -250 -189q-19 -11 -46 -11q-41 0 -41 42q0 7 2 12q11 29 29 37q58 24 173 121q18 18 7 46q-47 48 -119 110q-21 12 -51 41q-35 33 -39 51z" />
    <glyph glyph-name="question" unicode="?" horiz-adv-x="622" 
d="M586 638q0 -84 -140 -159q-83 -44 -169 -68q-15 -7 -47 -21q-6 -3 -53 -9q-12 -2 -32 -10q-27 -11 -27 -22q0 -21 29 -26q89 -18 106 -22q65 -14 104 -27q12 -4 35 -24.5t23 -26.5q0 -12 -35 -37t-53 -30q-3 -1 -24 -1q-25 0 -44 4q-31 6 -90 27q-110 55 -149 106
q-33 44 -33 77q0 48 79 89l96 38q53 17 171 61q26 10 123 73h-164q-64 -5 -112 -12q-20 -3 -96 -58q-3 -2 -39 -11q-21 43 -21 69q0 16 12 39.5t22 30.5q30 20 66 30q29 7 59 14q19 3 60 10q7 1 75 1q57 0 79 -2q81 -10 83 -10q51 -9 82 -29q9 -7 23 -47q1 -4 1 -17zM469 21
q0 -46 -33.5 -76.5t-78.5 -30.5q-39 0 -91 25q-65 31 -65 74q0 41 35.5 71.5t80.5 30.5q29 0 54 -5q18 -4 53 -13q19 -6 27 -17q18 -27 18 -59zM325 24q-6 0 -14.5 2t-11.5 2q-4 -5 -4 -10q0 -13 26 -23q0 -1 2 7t2 22z" />
    <glyph glyph-name="A" unicode="A" horiz-adv-x="717" 
d="M22 -2q-2 14 -2 30q0 27 14 100.5t14 120.5q0 61 10 179q12 136 25 168l27 18q3 2 6 2q10 0 30 -17l28 -22q12 25 25 50q19 32 41 32q50 0 159 -138q89 -113 184 -272q88 -149 99 -195q7 -49 -43 -49q-28 0 -60 15q-116 218 -272 218q-9 0 -105 -20q-9 -25 -25 -108
q-14 -72 -30 -102q-26 -46 -73 -46q-32 0 -39 4.5t-13 31.5zM228 519v-61q0 -21 -6.5 -56t-6.5 -57q0 -12 1 -23q76 9 98 9q12 0 36 -1t36 -1q-55 64 -158 190z" />
    <glyph glyph-name="B" unicode="B" horiz-adv-x="856" 
d="M794 193q0 -46 -21 -71q-17 -20 -41 -34q-18 -12 -74 -32l-90 -32q-109 -40 -256 -40q-87 0 -118 13q-27 12 -52 34q-6 0 -16 2q-23 15 -41 39q-21 28 -21 50q0 3 8 36t8 38q0 6 -27 130q-13 59 -59 183q-4 11 -4 34q0 3 1.5 20.5t1.5 25.5l-2 5h39q3 0 41 -9
q6 15 24 34.5t34 25.5q136 46 295 46q174 0 245 -110q25 -39 25 -85q0 -79 -90 -141q15 -8 40 -10q69 -7 111 -53q39 -43 39 -99zM559 501q0 40 -41 59q-31 15 -76 15q-40 0 -116 -15l-78 -10q-52 -9 -80 -36q-5 -5 -11 -33.5t-6 -38.5q0 -18 16 -58q24 -62 27 -69
q82 33 245 98q120 50 120 88zM652 214q0 38 -89 49q-53 3 -105 7l-236 -46q8 -30 10 -75q1 -30 10 -38q12 -12 57 -12q60 0 185 32q108 28 148 47q17 7 20 18v18z" />
    <glyph glyph-name="C" unicode="C" horiz-adv-x="645" 
d="M559 -9q-91 3 -205 26q-186 37 -290 163q-73 89 -73 200q0 56 11 81q36 83 138 143q80 48 167 66q95 20 156 23q34 9 65 -5q39 -17 39 -48q0 -2 -8 -42q-12 -15 -20 -19q-9 -12 -30 -26q1 0 -52 6q-45 5 -66 2q-36 -3 -104 -17q-61 -19 -103 -54q-62 -52 -62 -136
q0 -137 195 -199q122 -39 266 -39q5 1 9 1q17 0 28 -38q4 -12 4 -27q0 -66 -42 -66q-10 0 -23 5z" />
    <glyph glyph-name="D" unicode="D" horiz-adv-x="1000" 
d="M960 306q0 -56 -11 -81q-36 -83 -138 -143q-80 -48 -167 -66q-112 -23 -156 -23l-217 -7q-62 0 -143 15q-84 16 -115 35q0 13 -5 38q-8 23 -34 55q-3 12 9 12q-13 0 105 -9q15 0 31 1q17 -1 24 -15q1 1 1 8q0 17 -37 180l-36 134q-33 129 -33 172v20q28 1 118 16
q1 -7 6 -19q28 27 60 37q83 27 174 27q54 0 110 -8q131 -21 189 -43q114 -42 192 -136q73 -88 73 -200zM829 332q0 138 -194 200q-122 39 -264 39h-56q-36 -4 -54 -21q-12 -11 -21 -59q-7 -42 -38 -59l67 -268q1 -12 -7.5 -30t-8.5 -21q0 -7 4 -7q5 -4 25 -4l153 13
q64 0 126 10q52 9 109 27q72 23 97 44q62 52 62 136z" />
    <glyph glyph-name="E" unicode="E" horiz-adv-x="823" 
d="M795 640q0 -27 -42 -40q-14 -4 -59 -9q-214 -25 -264 -32q-151 -21 -220 -42q9 -155 9 -140q10 -2 41 -2q7 0 9 5t6 17q12 20 26 51q6 7 10 7q5 0 91 -20q42 -10 60 -16q38 -13 63 -30q29 -20 29 -50q0 -43 -27 -53q-52 -20 -164 -33q-6 0 -67 -3q-42 -2 -64 -9
q9 -70 61 -97q7 -4 22 -6q42 -7 91 -7q7 0 76 3l50 -1q8 1 23 6q19 11 49 11q29 0 55 -13q33 -16 33 -42q0 -57 -109 -79q-55 -11 -122 -11q-51 0 -76 2q-44 3 -89 6q-51 6 -88 22q-6 3 -40 35q-40 37 -55 84q-6 16 -10 29q-25 73 -25 192q0 45 2 55q3 24 18 65q2 2 -5 2
q-3 0 -31.5 -9.5t-34.5 -9.5q-26 0 -26 29q0 108 61 108q8 -2 18 3q7 25 25 71q10 17 25 17q17 0 28 -8q6 -4 32 -46q2 -1 7 -1l355 49q39 -1 69.5 1t25.5 2q148 0 148 -63z" />
    <glyph glyph-name="F" unicode="F" horiz-adv-x="520" 
d="M496 372q0 -35 -57 -50q-34 -8 -73 -8l-170 -16q0 -2 5 -6t7 -8q5 -9 5 -26v-94q0 -4 8 -47.5t8 -47.5q0 -35 -14 -76q-70 -5 -104 75q-24 55 -24 124q0 53 26 88q-19 9 -38 19q-33 19 -32 33v20q5 2 23 4q12 14 12 33q0 29 -13 93q-2 2 -7 2q-3 0 -19.5 -9.5t-20.5 -9.5
h-27q0 1 -1.5 4t-1.5 7q0 35 78 105q72 65 97 69q14 6 42 13q11 1 41 6q35 6 114 26q72 17 75 17q32 0 32 -30q0 -62 -115 -107q-87 -35 -125 -34q3 0 -19 -3q-27 -4 -40 -11q12 -20 21 -54q11 -42 17 -53q88 9 176 9q56 0 74 -5q40 -11 40 -52z" />
    <glyph glyph-name="G" unicode="G" horiz-adv-x="774" 
d="M740 205q0 -31 -11.5 -50t-59.5 -58q-62 -51 -123 -72q-43 -16 -68 -20q-44 -7 -100 -7q9 0 -96 7q-77 6 -163 75q-89 72 -103 148q-12 61 -12 63q0 121 98 217q83 80 250 153q101 44 120 44q32 0 55 -33q20 -28 20 -54q0 -18 -5 -22q-22 -18 -78 -35q-39 -12 -79 -24
q-100 -37 -168 -94q-88 -72 -88 -152q0 -22 18 -53q49 -85 187 -111q21 -4 43 -4h24q32 0 113 33q98 38 98 75q0 64 -170 64q-15 0 -31 -1q-17 0 -16 0q-4 0 -50.5 -1.5t-49.5 -1.5q-8 0 -8 12q0 34 100 54q68 14 104 14q82 0 152 -32q97 -45 97 -134z" />
    <glyph glyph-name="H" unicode="H" horiz-adv-x="846" 
d="M791 66q0 -91 -41 -165q-6 -9 -26 -16q-16 -5 -27 -5q-34 0 -64 20q-36 24 -36 62q0 22 15 32q8 -4 23 -13q12 4 12 28q0 63 -12 146q-12 93 -29 119q-10 15 -79 35q-27 8 -81 16q-47 8 -56 8q-85 0 -85 -27l30 -245q0 -47 -8 -62q-11 -25 -51 -25q-33 0 -57 12
q-32 16 -32 48q0 24 15 46t15 37q0 8 -10 61q-13 61 -24 99q-5 16 -31 21q-38 8 -60 8q-4 0 -42 -5t-42 -5h-35q0 1 -2 7t-2 9q0 18 32 42q23 18 33 21q58 22 96 41q-2 13 -29 123q-22 90 -18 109q22 14 35 14q41 0 90 -96q22 -50 44 -99q4 -6 9 -8q4 -1 9 0q7 2 9.5 2
t28.5 1.5t30 1.5l216 -17q0 17 -8.5 30t-16.5 25q-15 21 -69 70q-19 13 -37 27q-31 25 -31 38q0 25 26 40q21 12 43 12q91 0 164 -105q44 -63 90 -185q2 -6 25.5 -17t29 -24t5.5 -30q0 -20 -12 -38t-12 -16q40 -152 40 -208z" />
    <glyph glyph-name="I" unicode="I" horiz-adv-x="317" 
d="M247 58q0 -107 -36 -107q-7 0 -26 25q-11 18 -23 36q-9 12 -25 18q-12 2 -25 13q-6 65 -28 208q-14 72 -52 237q-34 144 -34 147q0 19 8 43q11 34 28 34q21 0 66 -71q55 -87 82 -195q65 -260 65 -388z" />
    <glyph glyph-name="J" unicode="J" horiz-adv-x="946" 
d="M893 660q0 -39 -59 -73q-42 -24 -80 -31q-59 -11 -121 -11q-26 0 -40 3q-1 -2 -4 -2.5t-5 -2.5q67 -73 115 -174q50 -106 50 -183q0 -90 -47.5 -148t-128.5 -69q-93 -12 -89 -12q-61 0 -184 35q-8 4 -23 11q-86 26 -138 70q-30 24 -61 69q-34 51 -34 82q0 32 20 32
q-1 0 79 -43q92 -51 166 -81q107 -44 173 -44q133 0 133 96q0 33 -15 77q-18 53 -83 152q-81 125 -131 125l-189 -20q-81 -4 -109 -4q-100 0 -151 41v23q12 13 31 19q61 20 165 34q79 9 157 19q158 19 209 19l344 27q50 0 50 -36z" />
    <glyph glyph-name="K" unicode="K" horiz-adv-x="684" 
d="M634 31q0 -45 -53 -71q-40 -19 -83 -19q-31 0 -55 24v18q20 6 58 18q6 6 6 8q0 19 -34 41l-46 26q-71 51 -176 89q-2 -1 -5 -5q-4 -84 -4 -86q-4 -49 -15 -86l-6 -6q-21 -11 -38 -11q-34 0 -78 33q-48 36 -48 76q0 21 13.5 40t33.5 19q8 0 28 -7q6 5 6 12q0 16 -38 123
l-42 118q-41 144 -41 208q0 12 9 27q11 19 24 19q41 0 70 -44q25 -40 50 -81q44 50 87 100q82 88 109 88q11 0 17 -9t6 -16q0 -19 -39 -79q-24 -35 -47 -69q-23 -39 -46 -77q-29 -53 -29 -82q0 -27 106 -85q159 -89 195 -115q105 -74 105 -139z" />
    <glyph glyph-name="L" unicode="L" horiz-adv-x="762" 
d="M783 115q0 -17 -24 -32q-87 -57 -226 -88q-71 -16 -104 -20q-59 -8 -138 -8q-240 0 -240 197l21 208q0 52 -8 104l-14 84q-1 9 -11.5 50t-10.5 45q0 14 15 30.5t30 16.5q28 0 59 -44q77 -109 77 -264l-2 -39q-2 -34 -9 -98q-19 -89 -19 -88q0 -41 60 -64q38 -12 76 -23
q2 -1 55 -1q139 0 247 18q24 4 75 23.5t52 19.5q13 0 26 -7.5t13 -19.5z" />
    <glyph glyph-name="M" unicode="M" horiz-adv-x="1000" 
d="M953 -77q0 -1 -4 -42q-3 -25 -20 -44q-12 -1 -33 -1q-31 0 -33 1q-13 7 -27.5 29t-15.5 39q-4 55 -12 164q-6 64 -24 161q-2 9 -17 50q-4 12 -13 37q-5 12 -13 34q-12 29 -37 80q-10 16 -18 16q-4 0 -10 -6q-11 -12 -12 -14q-25 -22 -76 -83q-11 -13 -27 -40
q-28 -47 -46 -88q-17 -37 -34 -47q-12 -6 -52 -8q-9 0 -16 -2q-31 193 -33 198q-28 116 -84 152q-3 6 -13 20q-8 0 -11 -4q-41 -139 -41 -204q0 1 20.5 -90t20.5 -168q0 -57 -4 -71q-11 -38 -55 -38q-21 0 -31 11q-15 16 -20 34q-16 54 -31 109q-18 67 -18 109q-1 35 -10 70
l-38 120q-35 112 -35 127q0 31 11.5 44t32.5 25t28 12q13 0 24 -18q8 -21 27 -63q10 34 21 68q12 39 39 69q17 21 39 21q20 0 53 -22q73 -48 109 -96q25 -32 44 -76l30 -68q32 35 85 77q57 45 96.5 63t51.5 18q7 0 27 -15q42 -32 60 -60.5t36 -57.5q21 -35 30 -61.5
t18 -77.5q13 -77 15 -85q23 -111 19 -161z" />
    <glyph glyph-name="N" unicode="N" horiz-adv-x="935" 
d="M879 404q0 -47 -36 -174q-28 -98 -60 -153q-49 -87 -130 -129q-27 -14 -69 -14q-23 0 -63 11q-47 13 -101 54q-96 73 -166 211q-13 25 -70 110l-2 -3q1 -36 7 -120q5 -79 5 -80q0 -45 -16 -100q-23 -73 -57 -73q-94 0 -94 181q0 61 4 99q2 17 9 56q7 36 7 40
q0 14 -18.5 30t-18.5 35q0 14 8 39q10 30 19 35q15 5 40 19q13 22 44 62q5 5 25 5q17 0 27 -5q16 -7 43 -30.5t37 -39.5q37 -49 101 -151q70 -132 131 -191q9 -15 34 -39q26 -18 48 -18q14 0 39.5 15t53.5 52q25 34 37 67q10 25 23 73q11 74 11 124q0 149 -63 149l-80 -10
q-8 9 -8 39q0 96 91 96q9 0 59 -13q30 -8 61 -30q35 -25 46 -52q23 -56 34 -105q8 -35 8 -72z" />
    <glyph glyph-name="O" unicode="O" horiz-adv-x="711" 
d="M655 321q-23 -79 -72 -167q-73 -133 -160 -184q-34 -19 -46 -19h-48q-147 0 -241 108q-85 99 -85 236q0 48 30 109q7 13 7 22q0 5 -8 17q-29 50 -29 61q0 19 27 57q24 33 48 55q20 19 68 39.5t70 20.5q16 0 46.5 3t32.5 3q125 0 249 -75q133 -82 133 -185q0 -27 -22 -101
zM427 533q-81 18 -104 18q-11 0 -17 -2q-16 -5 -23 -18.5t-9 -26.5q-1 -2 -4 -4q-59 -29 -106 -113q-40 -73 -40 -119q0 -30 16 -77.5t32 -62.5q28 -27 83 -51q26 -12 48 -12q29 0 75 18q13 5 33 22q42 35 92 133q54 103 54 162q0 34 -54 83q-48 44 -76 50z" />
    <glyph glyph-name="P" unicode="P" horiz-adv-x="661" 
d="M611 468q0 -20 -5 -46q-18 -113 -103 -131q-15 -4 -41 -10q-90 -14 -82 -14q-39 0 -107 -7q-5 -5 -5 -6q0 -3 5 -20t6 -25q17 -110 17 -131q0 -31 -18.5 -58t-46.5 -27h-10q-51 0 -106 81q-48 70 -48 103v17h10q15 1 67 -44q6 -6 19 -25q1 2 1 11q0 24 -9 68
q-9 41 -17 57q-5 12 -24 21q-26 12 -28 14q-20 16 -41 57l44 22q-23 37 -65 112q-1 8 -5 26q-4 4 -15 3q171 155 284 177q39 7 98 7q-7 0 54 -15q87 -21 133 -89q38 -56 38 -128zM485 458q0 46 -43.5 81.5t-90.5 35.5q-35 0 -97 -33q-58 -31 -83 -59q-3 -20 17 -59.5
t37 -52.5q9 -7 40 -7q17 0 105 21.5t99 28.5q16 10 16 44z" />
    <glyph glyph-name="Q" unicode="Q" horiz-adv-x="871" 
d="M819 342q0 -59 -32 -121q-36 -70 -95 -103q-18 -10 -18 -21q0 1 44 -72t44 -103t-26 -30q-25 0 -90 72.5t-64 72.5q-4 0 -23 -7q-23 -8 -34 -11q-95 -23 -160 -23q-87 0 -179 43q-102 47 -158 124q-1 1 -18 45q-12 29 -12 84q0 78 33 147q3 6 21.5 26.5t18.5 24.5
t-6.5 29t-6.5 29q0 25 21 58.5t48.5 48t92.5 27.5q87 18 119 18q119 0 228 -43q123 -48 197 -140q24 -30 39.5 -80.5t15.5 -94.5zM690 329q0 82 -76 151q-70 64 -167 86q-52 12 -64 12h-51q12 -63 15 -99q-7 -6 -51 -24.5t-49 -18.5q-1 0 -7 23t-14 28q-43 -23 -73 -86
q-26 -54 -26 -98q0 -37 17 -70q19 -39 93.5 -72t141.5 -33q44 0 91 9q51 10 69 23q-5 14 -21 51q-13 31 -13 35q0 33 34 33q20 0 42 -30q14 -23 28 -45h11q70 55 70 125z" />
    <glyph glyph-name="R" unicode="R" horiz-adv-x="839" 
d="M843 -19q0 -32 -35 -32q10 0 -131 24q-181 31 -393 90q-23 7 -106 59q-8 -41 -17 -83q-16 -55 -49 -55q-55 0 -93 92q-21 53 -29 110q-2 14 -2 35q0 120 29 177q155 299 320 299q47 0 103 -31q70 -38 95 -95q19 -41 19 -111q0 -99 -66 -160q-41 -39 -189 -117
q9 -15 48 -22l70 -12q65 -13 217 -48q209 -52 209 -120zM100 -23q2 -2 -2 -4t-7 0q6 4 9 4zM428 466q0 39 -25 72q-29 37 -71 37q-41 0 -86 -46t-68 -106q-12 -21 -25 -43q-21 -36 -21 -54q0 -4 11 -28q14 -30 16 -34t10 -4q17 13 73 42l126 60q60 37 60 104z" />
    <glyph glyph-name="S" unicode="S" horiz-adv-x="621" 
d="M577 155q0 -83 -92 -134q-73 -40 -147 -40q-31 0 -103 10q-95 13 -95 32q0 27 85 50q66 18 88 18q3 0 3 -2t4 -2q12 0 22 5q30 7 61 14q54 18 54 52q0 50 -40 79q-19 14 -94 49q-18 9 -53 23q-47 15 -133 47q-33 13 -87 48q-80 52 -80 84q0 74 155 113q58 16 186 51
q24 5 68 21q5 6 16 17q13 7 29 7q21 0 33.5 -15.5t12.5 -31.5q0 -97 -159 -124q-48 -8 -181 -41q104 -42 310 -129q24 -10 39 -22q98 -81 98 -179z" />
    <glyph glyph-name="T" unicode="T" horiz-adv-x="681" 
d="M653 601q0 -36 -51 -52l-130 32q-105 -7 -122 -6q-6 -6 -6 -7q0 -2 9.5 -23t11.5 -31q30 -139 30 -188q0 -48 -32 -169q-42 -154 -92 -154q-24 0 -24 36l25 261q0 64 1.5 92.5t1.5 20.5q0 4 -18 153q-5 2 -18 2q-83 0 -182 -17q-9 -1 -48.5 -14t-45.5 -13q-33 0 -33 43
q0 38 40 67q35 25 74 31q81 11 199 18l200 12q126 9 139 9q35 0 55 -40q16 -31 16 -63z" />
    <glyph glyph-name="U" unicode="U" horiz-adv-x="774" 
d="M727 443q0 -111 -36 -210q-8 -23 -36 -69q-30 -50 -52 -73q-67 -70 -157 -91q-17 -4 -32 -4q-36 0 -83 7.5t-107 41.5q-65 37 -112 88q-62 66 -93 166q-21 67 -21 107q0 82 13 139q10 41 25 70q13 23 35 43q12 5 13 5q-2 0 11 -6t7 -34q-7 -33 -7 -75q0 -67 18 -129
q15 -54 50 -122q30 -58 36 -68q28 -45 64 -65t73 -29q17 -4 47 -4q11 0 40 4q24 3 54.5 23t50.5 45q37 48 69 141.5t32 153.5q0 45 -14 92t-14 59q0 19 10.5 35t28.5 16q45 0 71 -126q16 -83 16 -131z" />
    <glyph glyph-name="V" unicode="V" horiz-adv-x="629" 
d="M612 576q-7 -1 -23.5 2.5t-25.5 3.5q-14 0 -23 -6q5 -20 5 -51q0 -55 -14 -116q-8 -43 -17 -86q-13 -66 -29 -109q-28 -73 -46 -105q-39 -71 -86 -90q-18 -7 -48 -7q-17 0 -22 1q-16 3 -32 16q-20 17 -28 28q-143 203 -200 365q-24 68 -24 83t8.5 28t24.5 13q3 0 16 -4
q27 -9 42 -26q45 -51 59 -84q39 -93 160 -294q49 52 78 137q18 53 35 151q4 19 9 103q5 71 16 107q6 21 11 30q9 21 23 30q11 8 24 8q25 0 66 -44.5t41 -60.5v-23z" />
    <glyph glyph-name="W" unicode="W" horiz-adv-x="985" 
d="M953 584q0 -12 -22 -37q1 -4 0 -10q-14 -3 -14 -25q0 -4 6.5 -58.5t6.5 -58.5q0 -88 -29 -220q-30 -140 -69 -210q-8 -14 -36 -25q-23 -9 -38 -9q-70 0 -187 103q-84 78 -169 156q-5 5 -19 5q-13 0 -21 -7l-12 -18t-11 -34q-4 -80 -4 -138q-17 -7 -44 -7q-39 0 -68.5 24
t-69.5 87q-136 218 -160 408q-9 68 -9 61q0 75 35 75q26 0 58 -58q6 -12 31 -70q63 -147 132 -316h3q26 45 53 89q40 61 81 61q33 0 142 -84q92 -71 118 -101q22 -25 43 -50q41 -46 53 -46q17 0 25 22q2 22 9 67q29 112 29 120v167q0 5 -3.5 37t-3.5 54q0 111 89 111
q41 0 56 -10q19 -14 19 -55z" />
    <glyph glyph-name="X" unicode="X" horiz-adv-x="598" 
d="M535 16q-33 0 -127 99q-35 37 -83 95q-12 14 -20 14q-11 0 -45 -41q-20 -26 -64 -79q-95 -111 -135 -111q-14 0 -35 26q0 47 58 132q46 66 110 132q10 19 18 43q-4 3 -15 12q-18 15 -58 51l-137 123q-11 10 -11 29q0 23 28 41.5t50 18.5q48 0 80 -25q15 -12 55 -63
q19 -25 80 -100q32 63 86 178q42 96 47 101t14 5q22 0 48 -31.5t26 -47.5q0 -44 -113 -238l-13 -22q-7 -11 -7 -16q0 -18 67 -94q60 -67 81 -83q81 -59 81 -72q0 -25 -23 -51t-43 -26z" />
    <glyph glyph-name="Y" unicode="Y" horiz-adv-x="450" 
d="M417 389q0 -127 -93 -180q-1 -21 -9 -37q-14 -21 -38 -63q-1 -12 -8 -34q-28 -57 -45 -73q-25 -25 -76 -25q-45 0 -45 27q0 -4 19 49q4 23 15 64q1 2 50 89q-90 71 -123 110q-10 12 -19 44q-15 50 -19 88q-2 31 -5 63q-11 62 -28 185q12 7 45 7q66 0 90 -105l16 -124
q7 -21 20 -63q6 -19 40 -51q37 -35 56 -35q24 0 29 52v57q2 42 4 83q8 60 35 66q11 3 24 3q20 0 44 -75q21 -68 21 -122z" />
    <glyph glyph-name="Z" unicode="Z" horiz-adv-x="825" 
d="M779 116q-7 -8 -11.5 -42t-15.5 -44q-13 -14 -40 -32q-17 -1 -51 -5q-37 -6 -84 -6h-143q-4 0 -60 3.5t-61 3.5q-65 0 -87 8q-85 29 -147 74q-85 62 -85 130q0 89 112 183q78 65 217 136q75 38 149 76q-15 5 -37 6q-14 0 -39 -1q-30 -1 -39 -1l-83 -9q-14 0 -24 -7
q-27 -1 -86 -39t-63 -38q-19 0 -36 31q-14 26 -14 36q0 62 163 106q125 35 193 35q48 0 164 -25q155 -32 155 -74q0 -24 -67 -68q-43 -29 -71 -42q-42 -18 -120 -53q-304 -143 -343 -239q-1 -3 -1 -12q66 -54 135.5 -68.5t165.5 -14.5h136q59 0 86.5 7t51.5 7q11 0 24 3
t18 3q17 0 38 -28z" />
    <glyph glyph-name="bracketleft" unicode="[" horiz-adv-x="228" 
d="M145 -104h-98q-7 0 -12 2h-6q-26 0 -26 26v793q0 26 26 26h20q6 0 12 -3h84q26 0 26 -26v-22q0 -26 -26 -26h-70v-696h70q26 0 26 -26v-22q0 -26 -26 -26z" />
    <glyph glyph-name="backslash" unicode="\" horiz-adv-x="755" 
d="M527 258l74 -212q4 -10 4 -20q0 -39 -37 -39q-17 0 -33 13l-216 177l-244 -94q-12 -5 -22 -5q-38 0 -38 37q0 13 8 26l103 196q-123 104 -137 125q-2 11 -2 19q0 40 35 40q31 0 91 -13q46 -10 92 -21q33 65 87 166q32 54 54 54q24 0 52 -78q19 -54 66 -192l206 -40
q40 -8 40 -40q0 -28 -33 -41zM449 355q-41 9 -58 30q-11 15 -25 62q-8 30 -32 106l-4 -8q-30 -58 -43 -78q-34 -57 -76 -57q-18 0 -67 13q25 -17 61 -43q14 -11 14 -31q0 -26 -27 -74q-21 -37 -43 -73q36 16 71 33q70 30 106 30q18 0 27 -7q45 -41 128 -114q-34 90 -34 119
q0 30 31 52q16 10 59 28q-67 8 -88 12z" />
    <glyph glyph-name="bracketright" unicode="]" horiz-adv-x="241" 
d="M145 -104h-20q-6 0 -12 2h-84q-26 0 -26 26v23q0 26 26 26h70v695h-70q-26 0 -26 26v23q0 26 26 26h98q7 0 12 -3h6q26 0 26 -26v-792q0 -26 -26 -26z" />
    <glyph glyph-name="asciicircum" unicode="^" horiz-adv-x="351" 
d="M163 766l-125 -49q-10 -4 -16 11l-5 10q-7 16 5 24l133 80q4 2 8 2t8 -2l133 -80q13 -8 5 -24l-4 -10q-7 -15 -16 -11z" />
    <glyph glyph-name="underscore" unicode="_" horiz-adv-x="541" 
d="M-5 -109h545v-60h-545v60z" />
    <glyph glyph-name="grave" unicode="`" horiz-adv-x="309" 
d="M29 851l-21 -43q-10 -21 7 -26l208 -62q14 -5 23 11l6 12q11 18 -7 26l-190 89q-18 9 -26 -7z" />
    <glyph glyph-name="a" unicode="a" horiz-adv-x="453" 
d="M420 22q0 -14 -22 -14h-19q-13 0 -22.5 10.5t-29.5 35.5l-10 4q-3 0 -17.5 -17t-23.5 -23q-30 -19 -91 -19t-110 24q-69 35 -69 105q0 64 61.5 138t129.5 91q3 1 27 8q20 7 25 7q12 0 20 -7t16 -15q19 12 31 12q36 0 66 -57q26 -49 26 -83q0 -3 -12.5 -40.5t-12.5 -41.5
t18.5 -59t18.5 -59zM258 159q0 4 -5 21.5t-6 25.5q-3 14 -2 54q-18 -5 -42 -21q-24 -19 -47 -38q-44 -39 -44 -58q0 -32 61 -32q19 0 47 10q38 15 38 38z" />
    <glyph glyph-name="b" unicode="b" horiz-adv-x="571" 
d="M514 190q0 -201 -219 -201q-2 0 -31 3q-33 3 -56 4q-34 2 -107 41q-90 49 -90 100q0 15 7 38q8 29 21 29q-2 0 29 -10q2 2 2 8l-63 328q2 40 17 62q47 0 61 -14q22 -22 37 -61q5 -13 20 -69q11 -47 35 -142q27 27 71 43q37 13 70 13q144 0 182 -106q14 -43 14 -66z
M390 210q-49 25 -72 25q-21 0 -84 -40.5t-65 -55.5q42 -12 84 -25q46 -13 75 -13q36 0 53 43q12 32 9 66z" />
    <glyph glyph-name="c" unicode="c" horiz-adv-x="370" 
d="M345 103q0 -55 -86 -79q-48 -13 -104 -13q-65 0 -107 38q-45 40 -45 107q0 22 2 28q4 11 28 44q46 64 110 105.5t121 41.5q69 0 69 -62q0 -18 -12 -53q-13 -41 -26 -41q-4 0 -31 12.5t-31 12.5q-17 0 -66 -39q-52 -41 -52 -62q0 -23 46 -23q4 0 68 14t68 14
q18 0 33 -13.5t15 -31.5z" />
    <glyph glyph-name="d" unicode="d" horiz-adv-x="446" 
d="M380 253q-1 -5 -9 -26t-8 -26q0 -8 7.5 -30.5t7.5 -28.5q0 -17 -11 -30t-23 -13q-2 0 -7 1.5t-9 1.5q-6 0 -26.5 -26t-29.5 -33q-15 -11 -52.5 -21t-59.5 -10q-2 0 -9.5 3t-12.5 2q-45 -3 -92.5 39t-47.5 83q0 53 70 115q61 56 125 78q-55 133 -55 189q0 33 17 79
q21 53 45 53q60 0 120 -101q51 -84 56 -133q1 -9 7 -45q4 -29 4 -46q0 -43 -7 -75zM237 523q-17 -18 -14 -45q1 -9 9 -43q3 -3 7 -11q19 -41 35 -41q4 0 10 2q1 32 -11 77q-15 52 -36 61zM225 230q-10 0 -66 -27q-64 -30 -64 -49q0 -14 29 -27q25 -12 41 -12q28 0 54 22
q31 24 31 57q0 6 -8 21t-17 15z" />
    <glyph glyph-name="e" unicode="e" horiz-adv-x="502" 
d="M284 -4h-55q-83 0 -151 48q-72 51 -72 120q0 54 54 111q51 54 120 82q17 7 52 7q49 0 86 -26q43 -29 43 -79q0 -77 -77 -110q-21 -9 -57 -15q-21 -2 -71 -12q7 -17 24 -22t46 -5q71 0 106 23q19 13 38.5 25t43.5 12q23 0 36.5 -15.5t13.5 -35.5q0 -49 -79 -83
q-59 -25 -101 -25zM218 276q-29 0 -62 -37v-20q16 -11 35 -11q25 0 35.5 11t20.5 46q-6 3 -14.5 7t-14.5 4z" />
    <glyph glyph-name="f" unicode="f" horiz-adv-x="549" 
d="M567 572q0 -26 -16.5 -43.5t-42.5 -17.5q-4 0 -20.5 6t-19.5 6q-10 0 -91 -58q-36 -23 -72 -47q-47 -34 -70 -68q-13 -19 -13 -52q0 -17 2 -23q10 0 29 3q38 11 126 29q16 1 48 11t34 10q22 0 33 -18.5t11 -41.5q0 -31 -26 -42q-30 -13 -147 -33q-11 -2 -40 -10t-33 -8
l-13 3q-9 2 -9 -3q0 -21 13 -57.5t19 -38.5q1 0 8 -8.5t12 -8.5q12 0 23 -18t11 -30q0 -4 -2 -6q-9 -18 -26 -38q-31 -8 -83 -3q-7 0 -33 27q-44 80 -44 142q3 9 1 19l-75 12q-13 2 -35 15q-33 20 -33 45v20q22 23 44 23q7 0 14.5 -2.5t8.5 -2.5q-6 0 44 -6q3 37 10 104
q0 3 17 35q29 57 138 146q30 24 109 61q86 40 121 40q32 0 52 -26q16 -21 16 -47z" />
    <glyph glyph-name="g" unicode="g" horiz-adv-x="538" 
d="M502 63q0 -62 -20 -136q-20 -78 -45.5 -101t-80.5 -73q-47 -41 -61 -49q-26 -14 -73 -14q-104 0 -146 64q-5 8 -12.5 28.5t-6.5 26.5v42h10q-3 0 51 -26.5t79 -26.5q9 0 37 11q56 22 105 97q46 69 46 112v37l-5 5q-36 -17 -60 -21q-9 -1 -50 -1q-78 0 -143 27
q-96 39 -96 120q0 38 38 81t86 61q71 27 130 27q42 0 99.5 -12t81 -24t23.5 -42q0 -19 -10 -48q-11 -32 -25 -41q30 -47 35 -59q13 -27 13 -65zM391 213q-57 24 -77 24q-2 0 -16 -2q-10 -2 -15 -1q-12 4 -68 -12q-67 -18 -67 -48q0 -29 76 -29q77 0 132 36q4 8 15 20
q7 3 20 12z" />
    <glyph glyph-name="h" unicode="h" horiz-adv-x="570" 
d="M544 5q0 -4 -2 -13t-2 -14q-65 0 -103 -3q-9 16 -22 79.5t-27 91.5q-24 43 -67 43q-29 0 -58 -44q-22 -32 -31 -62q-12 -38 -14 -77h-51q-7 0 -26 7t-29 17q-25 22 -37 70q-9 41 -19 81q-6 21 -42 183q-42 187 -42 222v30h20q4 0 8.5 -3t8.5 -3q41 -1 71 -52
q24 -41 29 -89q1 -10 13 -38q18 -44 19 -47q16 -42 22 -90q8 -57 13 -76q32 56 61 79q33 25 79 25q50 0 102 -43q49 -41 83 -106q16 -29 29.5 -80t13.5 -88z" />
    <glyph glyph-name="i" unicode="i" horiz-adv-x="213" 
d="M94 469q0 -89 -36 -122h-13q-4 0 -18.5 15t-20 23.5t-9.5 26.5q-1 3 -1 11q0 29 27 48q24 15 52 15q6 0 12.5 -5.5t6.5 -11.5zM194 4l-4 2q-10 0 -33 -1.5t-25 -1.5q-58 0 -72 20q-10 14 -14 43l-4 52q-2 17 -8 57q-6 35 -6 38q0 10 16 65h16q6 0 14 -5t25 -13
q27 -11 53 -65q8 -15 25 -82q18 -70 17 -86v-23z" />
    <glyph glyph-name="j" unicode="j" horiz-adv-x="265" 
d="M189 476q1 -22 -4 -36q-13 -35 -33 -75q-35 -68 -58 -68q-19 0 -25 24q-2 14 -4 27q-22 15 -49 25v10q-1 5 39 48q19 21 51.5 36.5t55.5 15.5q16 0 27 -7zM252 -27q0 -59 -28 -107q-35 -59 -96 -59q-54 0 -99 40q-48 42 -48 98q0 42 32 86q3 0 7 -1q19 -27 37 -54
q39 -52 56 -52q13 0 16 38q0 17 -11 93q-3 24 -12 44q-5 10 -23 29q-22 25 -29 34q-13 19 -13 43q0 54 19 54q-3 0 49 -15q70 -20 111 -119q32 -78 32 -152z" />
    <glyph glyph-name="k" unicode="k" horiz-adv-x="517" 
d="M511 110q0 -25 -36 -41q-27 -12 -48 -12q-15 0 -28 17q-20 23 -30 29q-59 38 -143 83q-2 -20 -5 -58q-11 -125 -47 -125q-42 0 -60 99q-1 31 -6 92q-5 49 -25 148q-5 18 -55 118q-45 88 -45 116q0 19 13 40q14 25 32 25t60 -37q37 -33 42 -46q21 -53 64 -160q20 3 32 21
q8 13 8 28q0 8 -3.5 21.5t-3.5 19.5q0 13 10.5 23t23.5 10q35 0 60 -58q19 -43 19 -65q0 -33 -24.5 -55t-67.5 -23q11 -15 69 -49q109 -64 114 -67q19 -12 47 -43q33 -35 33 -51z" />
    <glyph glyph-name="l" unicode="l" horiz-adv-x="236" 
d="M204 73q0 -30 -21 -47t-51 -17q-29 0 -38 23q-17 49 -21 93q-1 21 -10 59q-11 46 -13 61q-8 71 -27 211q-4 22 -19 77q-15 49 -15 55q0 63 36 75q30 -15 58 -53t33 -68q14 -43 36 -126q15 -73 35 -211q17 -121 17 -132z" />
    <glyph glyph-name="m" unicode="m" horiz-adv-x="775" 
d="M735 155q0 -40 -16 -93t-39 -87q-81 17 -81 64q0 4 8 55.5t8 55.5q0 41 -13 89q-18 64 -47 64q-47 0 -101 -66q-49 -59 -52 -97q-1 -9 -7 -19q-3 -6 -20.5 -13t-25.5 -7q-25 0 -41 28q-11 23 -23 45q-16 24 -51 69q-42 -22 -67 -87q-17 -56 -34 -111q-3 -8 -17.5 -14
t-25.5 -6q-50 0 -75 99q-16 66 -16 130q0 49 45 49q22 0 51 -41q28 38 56 75q44 58 75 58q25 0 65 -43l50 -58q105 135 217 135q23 0 30 -1q12 -1 35 -13q53 -48 84 -126q28 -70 28 -134z" />
    <glyph glyph-name="n" unicode="n" horiz-adv-x="547" 
d="M508 43q0 -52 -15 -64q-24 -19 -54 -19q-26 0 -37 25q-4 9 -7 85.5t-15 115.5q-18 59 -62 59q-35 0 -73 -51q-2 -3 -48 -79q-10 -17 -19 -50q-13 -50 -15 -54q-21 3 -36 3q2 0 -51 -9q-2 2 -6 7q-7 93 -34 154q-3 6 -17 28q-12 18 -12 21q0 5 15 16q54 38 84 38
q12 0 21 -11q6 -9 12 -19q45 45 89 91q43 37 87 37q118 0 165 -129q28 -77 28 -195z" />
    <glyph glyph-name="o" unicode="o" horiz-adv-x="374" 
d="M172 22q-53 0 -111 55q-61 57 -61 116q0 82 12 105q6 14 31 43q11 11 11 16q42 18 111 18q28 0 102 -40t74 -118q-9 -90 -56.5 -142.5t-112.5 -52.5zM229 197q0 27 -15.5 48t-41.5 21q-7 0 -11 -2q-17 -10 -44 -31q-4 -5 -4 -22q0 -31 18 -54q22 -28 59 -28q39 0 39 68z
" />
    <glyph glyph-name="p" unicode="p" horiz-adv-x="555" 
d="M91 227q57 86 98 114.5t106 28.5q77 0 136 -40q70 -47 80 -131q-3 -50 -9 -71q-11 -35 -39 -57t-55 -43q-19 -14 -59 -14q-50 -9 -124 -9q-6 -5 -2 -13q3 -8 3 -24q0 -60 -30 -132q-34 -84 -76 -84q-16 0 -37 31q-47 66 -47 153q0 4 6 41t6 41q0 3 -8 10t-12 13t-28 56
q20 2 48 9q1 3 1 7q0 10 -9 41.5t-9 48.5q0 22 14 33q39 0 46 -9zM395 186q0 35 -24 55q-21 16 -80 16q-67 0 -102 -75q-11 -24 -11 -22q0 -9 25 -48q51 3 103 7q89 15 89 67zM142 -14h-13q-13 -14 -13 -39q0 -28 7 -40q8 -5 18 -15q-3 60 1 94z" />
    <glyph glyph-name="q" unicode="q" horiz-adv-x="468" 
d="M26 216q15 45 122 114q104 66 146 66q26 0 30 -10t10 -26q-2 -1 -1 -5q9 0 15 -8q42 -50 42 -117q0 -33 -4 -55q-1 -5 -7 -20.5t-6 -19.5q0 -27 72 -127q77 -107 116 -107q18 0 37 42q3 19 39 19q52 0 63 -27q-42 -144 -126 -144q-117 0 -274 234q-33 -20 -43 -23h-28
q-43 0 -66 6q-137 41 -153 110q-3 -10 -3 24q0 55 19 74zM260 147q0 4 -10.5 21t-10.5 34q0 11 8 69q-23 -10 -70 -47q-54 -43 -54 -61q0 -22 31 -38q25 -14 46 -14q17 0 38.5 10.5t21.5 25.5z" />
    <glyph glyph-name="r" unicode="r" horiz-adv-x="388" 
d="M353 266q0 -24 -17 -53q-20 -35 -50 -41q-4 53 -28 81q-8 8 -14 8q-26 0 -61 -55q-30 -48 -31 -62q0 -16 3 -48q5 -35 5 -50q0 -4 -14 -23t-19 -22q-15 -8 -27 -8q-9 0 -34 8q-15 23 -22 59q-10 53 -12 60q-4 12 -20 44q-12 22 -12 44q0 35 -1 28q2 7 16.5 23.5
t21.5 16.5q8 0 42 -27q103 131 172 131q41 0 73 -39q29 -37 29 -75z" />
    <glyph glyph-name="s" unicode="s" horiz-adv-x="436" 
d="M207 108v-1q1 1 2.5 1.5t7.5 6.5q-18 11 -51 25q-19 8 -56 25q-65 32 -65 64q0 58 132 98q97 30 151 30q29 0 50.5 -15t21.5 -39q0 -50 -78 -57h-24q-3 0 -21 1t-22 1q-5 0 -15 -3q-6 -1 -21 -6q-1 -10 5 -14q45 -17 87 -46q56 -40 56 -75q0 -55 -70 -79q-42 -14 -98 -14
q-111 0 -165 24q-6 3 -14 31t-8 34v13q34 -2 75 -5q36 -3 37 -3q6 0 9 4q2 -4 8 -4h62z" />
    <glyph glyph-name="t" unicode="t" horiz-adv-x="342" 
d="M67 488q-14 32 -28 65q-21 48 -21 57q0 5 8 11.5t13 6.5q62 0 97 -44q27 -32 44 -100q9 1 18 0q11 0 6 -2q64 -4 81 -9q54 -12 54 -46q0 -28 -39 -42q-28 -10 -62 -10l-19 5h-13q41 -195 41 -321q0 -28 -3 -45l-16 -3q-52 0 -83.5 32t-31.5 84q0 33 9 46l13 2
q-9 51 -19 102q-11 59 -34 96l-106 14q-43 10 -52 58l-3 23q55 30 96 30z" />
    <glyph glyph-name="u" unicode="u" horiz-adv-x="515" 
d="M484 232q0 -46 -36 -118q-33 -67 -66 -99q-14 -14 -48 -21q-17 -4 -34 -4h-23q-24 0 -62 13q-41 13 -99 56q-64 47 -88 89q-15 25 -18 38q-1 5 -1 28q0 31 11 68q17 55 48 55q14 0 26 -19q7 -35 31 -100q13 -23 19 -33q13 -20 27 -32q38 -34 74 -47q11 -3 19 -3
q27 0 48.5 12.5t33.5 45.5q31 86 31 105q0 1 -9 25.5t-9 29.5q0 40 43 40q41 0 65 -55q17 -40 17 -74z" />
    <glyph glyph-name="v" unicode="v" horiz-adv-x="436" 
d="M415 376q0 -31 -60 -181q-53 -132 -63 -148q-4 -7 -13 -20.5t-16 -17.5q-28 -16 -47 -16q-17 0 -26 7q-26 21 -56 62q-43 56 -124 166q-10 15 -10 38q0 57 61 57q17 0 18 -2q16 -12 59 -64q21 -29 61 -83q8 -12 28 -35q5 5 12 23q18 46 41.5 141.5t40.5 140.5q2 1 6 5
q17 10 33 10q28 0 43 -29q12 -23 12 -54z" />
    <glyph glyph-name="w" unicode="w" horiz-adv-x="712" 
d="M696 318q0 -9 -7 -30q-8 -29 -29 -86q-17 -35 -50 -78q-50 -66 -83 -66q-16 0 -85.5 44.5t-97.5 44.5q-21 0 -35 -71q-7 -44 -14 -87q-1 -4 -14.5 -9.5t-20.5 -5.5h-63q-6 51 -26 85q-17 31 -86 143q-26 33 -53 66q-35 45 -35 71q0 16 13 25.5t27 9.5q49 0 116 -89
l80 -116q2 -1 3 2q44 92 98 92q43 0 81 -24q23 -16 52 -46q23 -24 28 -24q28 0 71 85q14 34 29 68q23 44 55 44q20 0 33 -15.5t13 -32.5z" />
    <glyph glyph-name="x" unicode="x" horiz-adv-x="375" 
d="M379 81q0 -17 -15 -35t-31 -18q-30 0 -139 76q-1 0 -23 -16q-31 -20 -95 -74q-28 -24 -56 -24q-6 0 -13.5 11t-7.5 15q0 49 121 173q-40 32 -115 96q-9 8 -9 23q0 17 18 28t33 11q40 0 69 -19.5t76 -75.5l4 6q5 -1 7 2q24 87 31 135q2 0 7 1.5t9 1.5q40 0 40 -61
q0 -29 -35 -141q0 -12 75 -68l22 -10q16 -8 23 -20q4 -7 4 -17z" />
    <glyph glyph-name="y" unicode="y" horiz-adv-x="359" 
d="M322 310q0 -53 -37.5 -172t-37.5 -115q0 -6 -13 -43q-32 -90 -35 -97q-37 -84 -72 -84q-48 0 -48 44q0 6 7.5 33.5t15.5 42.5q5 12 42 104q18 45 43 62l-1 1q-52 -4 -54 -4q-37 0 -63 12q-15 7 -41.5 78.5t-26.5 105.5q0 47 38 47q29 0 45 -37q10 -34 22.5 -70t37.5 -36
q24 0 52 43q18 27 27 51q11 29 38 84q8 11 25 11q36 0 36 -61z" />
    <glyph glyph-name="z" unicode="z" horiz-adv-x="466" 
d="M440 42q-57 -35 -194 -35h-77q-46 0 -89 9q-22 4 -35 17q-21 21 -21 51q0 15 30 51q25 30 31 33q10 6 40.5 36.5t58.5 47.5q-33 0 -74 -3.5t-38 -3.5q-72 0 -72 37q0 12 12.5 26t33.5 18q43 6 132 18q21 4 70 15l31 6q13 3 14 3q37 0 37 -51q0 -42 -144 -187
q-9 -6 -17 -12.5t-9 -24.5q13 -7 45 -5q27 2 21 2l170 16q68 0 68 -32q0 -17 -24 -32z" />
    <glyph glyph-name="braceleft" unicode="{" horiz-adv-x="1306" 
d="M104 206q12 37 33 104q7 38 22 100q-32 25 -62 25q-8 0 -16 -3q-41 -124 -66 -208q-7 -19 -15 -60q-4 -50 44 -50q9 0 44 2h44q12 -3 43 -3q33 0 45 3q13 0 87 -6q63 -53 131 -76q27 -10 146 -35q15 -3 67 -18q35 -10 55 -10q50 0 101 58q44 30 48 34q26 23 26 46
q0 18 -14 38q48 34 45 74q92 2 227 24q56 9 90 43q29 30 29 66q0 29 -20 47.5t-57 18.5q-79 0 -342 36q31 15 33 16q61 43 61 77q0 32 -63 45q-25 5 -187 -15q-166 -21 -194 -36q-56 -30 -215 -30q-123 0 -186 20q-6 7 -15 7q-19 0 -33.5 -19.5t-14.5 -39.5q0 -37 45 -37
q75 -21 203 -21q183 0 259 40q34 18 285 53l-3 -4l-55 -38q-40 -7 -53 -13q-31 -14 -30 -41q0 -21 17 -28q20 -3 40 -7q40 -4 120 -13q68 -7 305 -29q1 -2 2 -5q0 1 -5 0q-28 -7 -99 -12q-63 -4 -97 -15q-44 1 -132 1q-80 -3 -80 -45q0 -30 50 -62q-11 -15 -21 -30
q-13 -18 -13 -32t10 -27l-23 -17l-8 -7q-18 -22 -34 -31q-36 17 -162 40q-108 20 -147 51q-60 48 -78 48q-35 0 -108 3q-69 3 -109 3z" />
    <glyph glyph-name="bar" unicode="|" horiz-adv-x="742" 
d="M539 335q26 -41 52 -83q33 -52 57 -76q34 -34 34 -59q0 -38 -56 -38q-19 0 -37 6q-170 57 -264 97l-191 -156q-15 -13 -33 -13q-36 0 -36 39q0 6 1 12q7 54 49 234q-45 21 -70 36q-48 28 -53 49q-2 6 -2 12q0 19 14 30t28 11q23 0 77 12q39 9 79 19q14 55 46 154
q22 57 50 57q14 0 30 -16q67 -53 122 -127q127 23 241 27q47 1 47 -37q0 -19 -18 -36zM426 448q-9 -2 -23.5 4t-19.5 13q-35 51 -78 93q-20 -73 -28 -94q-25 -72 -49 -75l-91 -12l9 -5q60 -30 60 -56q0 -9 -16 -72q-20 -72 -21 -82q33 31 66 61q57 49 88 49q7 0 13 -3
q119 -53 213 -85q-42 56 -100 134q-5 8 -5 18q0 31 51 77q4 3 81 65z" />
    <glyph glyph-name="braceright" unicode="}" horiz-adv-x="1306" 
d="M1154 206q-12 37 -33 104q-7 38 -22 100q32 25 62 25q8 0 16 -3q40 -124 66 -208q7 -19 15 -60q4 -50 -45 -50q-8 0 -43 2h-44q-12 -3 -43 -3q-33 0 -45 3q-13 0 -87 -6q-63 -53 -131 -76q-27 -10 -146 -35q-15 -3 -67 -18q-35 -10 -55 -10q-50 0 -102 58q-43 30 -47 34
q-26 23 -26 46q0 18 14 38q-48 34 -46 74q-92 2 -226 24q-56 9 -90 43q-30 30 -30 66q0 29 20.5 47.5t56.5 18.5q80 0 343 36q-32 15 -34 16q-60 43 -60 77q0 32 63 45q25 5 187 -15q166 -21 194 -36q56 -30 215 -30q123 0 185 20q7 7 16 7q19 0 33.5 -19.5t14.5 -39.5
q0 -37 -45 -37q-75 -21 -203 -21q-184 0 -259 40q-34 18 -285 53l2 -4l56 -38q40 -7 53 -13q31 -14 30 -41q-1 -21 -17 -28q-20 -3 -41 -7q-39 -4 -119 -13q-69 -7 -305 -29q-1 -2 -2 -5q0 1 5 0q28 -7 98 -12q64 -4 98 -15q44 1 132 1q80 -3 80 -45q0 -30 -50 -62
q10 -15 21 -30q13 -18 13 -32t-11 -27l24 -17l7 -7q19 -22 35 -31q36 17 162 40q108 20 147 51q60 48 78 48q35 0 108 3q69 3 109 3z" />
    <glyph glyph-name="asciitilde" unicode="~" horiz-adv-x="935" 
d="M484 732q7 14 23 14q30 0 30 -27q0 -38 -38 -64q-34 -23 -73 -23q-15 0 -32 3q-27 11 -100 42q-39 0 -45 -2q-15 -5 -23 -32q-5 -17 -22 -17q-25 0 -25 23q0 3 1 7q14 49 40 67q23 16 67 16q13 0 57.5 -13.5t56 -20.5t25.5 -7q42 0 58 34z" />
    <glyph glyph-name="Adieresis" unicode="&#xc4;" horiz-adv-x="717" 
d="M22 -2q-2 14 -2 30q0 27 14 100.5t14 120.5q0 61 10 179q12 136 25 168l27 18q3 2 6 2q10 0 30 -17l28 -22q12 25 25 50q19 32 41 32q50 0 159 -138q89 -113 184 -272q88 -149 99 -195q7 -49 -43 -49q-28 0 -60 15q-116 218 -272 218q-9 0 -105 -20q-9 -25 -25 -108
q-14 -72 -30 -102q-26 -46 -73 -46q-32 0 -39 4.5t-13 31.5zM228 519v-61q0 -21 -6.5 -56t-6.5 -57q0 -12 1 -23q76 9 98 9q12 0 36 -1t36 -1q-55 64 -158 190zM45 765q0 20 15 34.5t37 14.5q21 0 36.5 -14.5t15.5 -34.5q0 -21 -15.5 -35t-36.5 -14q-22 0 -37 14t-15 35z
M213 766q0 21 16 36t38 15t37.5 -15t15.5 -36t-15.5 -35.5t-37.5 -14.5t-38 14.5t-16 35.5z" />
    <glyph glyph-name="Aring" unicode="&#xc5;" horiz-adv-x="717" 
d="M22 -2q-2 14 -2 30q0 27 14 100.5t14 120.5q0 61 10 179q12 136 25 168l27 18q3 2 6 2q10 0 30 -17l28 -22q12 25 25 50q19 32 41 32q50 0 159 -138q89 -113 184 -272q88 -149 99 -195q7 -49 -43 -49q-28 0 -60 15q-116 218 -272 218q-9 0 -105 -20q-9 -25 -25 -108
q-14 -72 -30 -102q-26 -46 -73 -46q-32 0 -39 4.5t-13 31.5zM228 519v-61q0 -21 -6.5 -56t-6.5 -57q0 -12 1 -23q76 9 98 9q12 0 36 -1t36 -1q-55 64 -158 190zM179 815q31 0 53 -22t22 -53t-22 -52.5t-53 -21.5t-53 21.5t-22 52.5t22 53t53 22zM179 775q-14 0 -24.5 -10
t-10.5 -25q0 -14 10.5 -24t24.5 -10q15 0 25 10t10 24q0 15 -10 25t-25 10z" />
    <glyph glyph-name="Ccedilla" unicode="&#xc7;" horiz-adv-x="645" 
d="M348 -25q7 0 19.5 1t18.5 1q35 0 46 -11l3 -3q3 -2 7 -4q30 -13 30 -62q0 -57 -1 -58q-37 -75 -121 -75q-11 0 -36 6q-30 6 -37 12q-1 3 -4 5l-2 2q-10 7 -10 15q-6 26 18 46q52 -14 68 -14q23 0 44 19q11 30 2 42q-14 9 -29 17h-27l-35 -11l-23 34q13 46 27 92
q-154 40 -248 153q-74 89 -74 201q0 56 11 81q37 83 139 143q79 48 167 66q95 20 156 23q33 8 65 -5q39 -17 39 -48q0 -3 -8 -43q-12 -14 -20 -19q-9 -11 -30 -26l-52 7q-46 5 -67 1q-36 -3 -104 -16q-61 -20 -102 -55q-62 -52 -62 -135q0 -138 194 -199q123 -40 267 -40
q4 2 8 2q17 0 29 -39q3 -11 3 -26q0 -67 -41 -67q-11 0 -23 6q-63 2 -114 10q-19 4 -58 9l-25 2z" />
    <glyph glyph-name="Eacute" unicode="&#xc9;" horiz-adv-x="823" 
d="M795 640q0 -27 -42 -40q-14 -4 -59 -9q-214 -25 -264 -32q-151 -21 -220 -42q9 -155 9 -140q10 -2 41 -2q7 0 9 5t6 17q12 20 26 51q6 7 10 7q5 0 91 -20q42 -10 60 -16q38 -13 63 -30q29 -20 29 -50q0 -43 -27 -53q-52 -20 -164 -33q-6 0 -67 -3q-42 -2 -64 -9
q9 -70 61 -97q7 -4 22 -6q42 -7 91 -7q7 0 76 3l50 -1q8 1 23 6q19 11 49 11q29 0 55 -13q33 -16 33 -42q0 -57 -109 -79q-55 -11 -122 -11q-51 0 -76 2q-44 3 -89 6q-51 6 -88 22q-6 3 -40 35q-40 37 -55 84q-6 16 -10 29q-25 73 -25 192q0 45 2 55q3 24 18 65q2 2 -5 2
q-3 0 -31.5 -9.5t-34.5 -9.5q-26 0 -26 29q0 108 61 108q8 -2 18 3q7 25 25 71q10 17 25 17q17 0 28 -8q6 -4 32 -46q2 -1 7 -1l355 49q39 -1 69.5 1t25.5 2q148 0 148 -63zM491 851l21 -43q10 -21 -7 -26l-208 -62q-14 -5 -23 11l-6 12q-11 18 7 26l190 89q18 9 26 -7z" />
    <glyph glyph-name="Ntilde" unicode="&#xd1;" horiz-adv-x="935" 
d="M879 404q0 -47 -36 -174q-28 -98 -60 -153q-49 -87 -130 -129q-27 -14 -69 -14q-23 0 -63 11q-47 13 -101 54q-96 73 -166 211q-13 25 -70 110l-2 -3q1 -36 7 -120q5 -79 5 -80q0 -45 -16 -100q-23 -73 -57 -73q-94 0 -94 181q0 61 4 99q2 17 9 56q7 36 7 40
q0 14 -18.5 30t-18.5 35q0 14 8 39q10 30 19 35q15 5 40 19q13 22 44 62q5 5 25 5q17 0 27 -5q16 -7 43 -30.5t37 -39.5q37 -49 101 -151q70 -132 131 -191q9 -15 34 -39q26 -18 48 -18q14 0 39.5 15t53.5 52q25 34 37 67q10 25 23 73q11 74 11 124q0 149 -63 149l-80 -10
q-8 9 -8 39q0 96 91 96q9 0 59 -13q30 -8 61 -30q35 -25 46 -52q23 -56 34 -105q8 -35 8 -72zM484 732q7 14 23 14q30 0 30 -27q0 -38 -38 -64q-34 -23 -73 -23q-16 0 -32 3q-27 11 -100 42q-39 0 -45 -2q-15 -5 -23 -32q-5 -17 -22 -17q-25 0 -25 23q0 3 1 7q14 49 40 67
q23 16 67 16q13 0 57.5 -13.5t56 -20.5t25.5 -7q42 0 58 34z" />
    <glyph glyph-name="Odieresis" unicode="&#xd6;" horiz-adv-x="711" 
d="M655 321q-23 -79 -72 -167q-73 -133 -160 -184q-34 -19 -46 -19h-48q-147 0 -241 108q-85 99 -85 236q0 48 30 109q7 13 7 22q0 5 -8 17q-29 50 -29 61q0 19 27 57q24 33 48 55q20 19 68 39.5t70 20.5q16 0 46.5 3t32.5 3q125 0 249 -75q133 -82 133 -185q0 -27 -22 -101
zM427 533q-81 18 -104 18q-11 0 -17 -2q-16 -5 -23 -18.5t-9 -26.5q-1 -2 -4 -4q-59 -29 -106 -113q-40 -73 -40 -119q0 -30 16 -77.5t32 -62.5q28 -27 83 -51q26 -12 48 -12q29 0 75 18q13 5 33 22q42 35 92 133q54 103 54 162q0 34 -54 83q-48 44 -76 50zM155 775
q0 20 15 34.5t37 14.5q21 0 36.5 -14.5t15.5 -34.5q0 -21 -15.5 -35t-36.5 -14q-22 0 -37 14t-15 35zM333 776q0 21 16 36t38 15t37.5 -15t15.5 -36t-15.5 -35.5t-37.5 -14.5t-38 14.5t-16 35.5z" />
    <glyph glyph-name="Udieresis" unicode="&#xdc;" horiz-adv-x="774" 
d="M727 443q0 -111 -36 -210q-8 -23 -36 -69q-30 -50 -52 -73q-67 -70 -157 -91q-17 -4 -32 -4q-36 0 -83 7.5t-107 41.5q-65 37 -112 88q-62 66 -93 166q-21 67 -21 107q0 82 13 139q10 41 25 70q13 23 35 43q12 5 13 5q-2 0 11 -6t7 -34q-7 -33 -7 -75q0 -67 18 -129
q15 -54 50 -122q30 -58 36 -68q28 -45 64 -65t73 -29q17 -4 47 -4q11 0 40 4q24 3 54.5 23t50.5 45q37 48 69 141.5t32 153.5q0 45 -14 92t-14 59q0 19 10.5 35t28.5 16q45 0 71 -126q16 -83 16 -131zM205 765q0 20 15 34.5t37 14.5q21 0 36.5 -14.5t15.5 -34.5
q0 -21 -15.5 -35t-36.5 -14q-22 0 -37 14t-15 35zM383 766q0 21 16 36t38 15t37.5 -15t15.5 -36t-15.5 -35.5t-37.5 -14.5t-38 14.5t-16 35.5z" />
    <glyph glyph-name="aacute" unicode="&#xe1;" horiz-adv-x="453" 
d="M420 22q0 -14 -22 -14h-19q-13 0 -22.5 10.5t-29.5 35.5l-10 4q-3 0 -17.5 -17t-23.5 -23q-30 -19 -91 -19t-110 24q-69 35 -69 105q0 64 61.5 138t129.5 91q3 1 27 8q20 7 25 7q12 0 20 -7t16 -15q19 12 31 12q36 0 66 -57q26 -49 26 -83q0 -3 -12.5 -40.5t-12.5 -41.5
t18.5 -59t18.5 -59zM258 159q0 4 -5 21.5t-6 25.5q-3 14 -2 54q-18 -5 -42 -21q-24 -19 -47 -38q-44 -39 -44 -58q0 -32 61 -32q19 0 47 10q38 15 38 38zM361 531l21 -43q10 -21 -7 -26l-208 -62q-14 -5 -23 11l-6 12q-11 18 7 26l190 89q18 9 26 -7z" />
    <glyph glyph-name="agrave" unicode="&#xe0;" horiz-adv-x="453" 
d="M420 22q0 -14 -22 -14h-19q-13 0 -22.5 10.5t-29.5 35.5l-10 4q-3 0 -17.5 -17t-23.5 -23q-30 -19 -91 -19t-110 24q-69 35 -69 105q0 64 61.5 138t129.5 91q3 1 27 8q20 7 25 7q12 0 20 -7t16 -15q19 12 31 12q36 0 66 -57q26 -49 26 -83q0 -3 -12.5 -40.5t-12.5 -41.5
t18.5 -59t18.5 -59zM258 159q0 4 -5 21.5t-6 25.5q-3 14 -2 54q-18 -5 -42 -21q-24 -19 -47 -38q-44 -39 -44 -58q0 -32 61 -32q19 0 47 10q38 15 38 38zM119 552l-21 -43q-10 -21 7 -27l207 -62q14 -4 23 12l7 11q10 19 -7 27l-190 89q-19 8 -26 -7z" />
    <glyph glyph-name="acircumflex" unicode="&#xe2;" horiz-adv-x="453" 
d="M420 22q0 -14 -22 -14h-19q-13 0 -22.5 10.5t-29.5 35.5l-10 4q-3 0 -17.5 -17t-23.5 -23q-30 -19 -91 -19t-110 24q-69 35 -69 105q0 64 61.5 138t129.5 91q3 1 27 8q20 7 25 7q12 0 20 -7t16 -15q19 12 31 12q36 0 66 -57q26 -49 26 -83q0 -3 -12.5 -40.5t-12.5 -41.5
t18.5 -59t18.5 -59zM258 159q0 4 -5 21.5t-6 25.5q-3 14 -2 54q-18 -5 -42 -21q-24 -19 -47 -38q-44 -39 -44 -58q0 -32 61 -32q19 0 47 10q38 15 38 38zM243 456l-125 -49q-10 -4 -16 11l-5 10q-7 16 5 24l133 80q4 2 8 2t8 -2l133 -80q13 -8 5 -24l-4 -10q-7 -15 -16 -11z
" />
    <glyph glyph-name="adieresis" unicode="&#xe4;" horiz-adv-x="453" 
d="M420 22q0 -14 -22 -14h-19q-13 0 -22.5 10.5t-29.5 35.5l-10 4q-3 0 -17.5 -17t-23.5 -23q-30 -19 -91 -19t-110 24q-69 35 -69 105q0 64 61.5 138t129.5 91q3 1 27 8q20 7 25 7q12 0 20 -7t16 -15q19 12 31 12q36 0 66 -57q26 -49 26 -83q0 -3 -12.5 -40.5t-12.5 -41.5
t18.5 -59t18.5 -59zM258 159q0 4 -5 21.5t-6 25.5q-3 14 -2 54q-18 -5 -42 -21q-24 -19 -47 -38q-44 -39 -44 -58q0 -32 61 -32q19 0 47 10q38 15 38 38zM105 465q0 20 15 34.5t37 14.5q21 0 36.5 -14.5t15.5 -34.5q0 -21 -15.5 -35t-36.5 -14q-22 0 -37 14t-15 35zM273 466
q0 21 16 36t38 15t37.5 -15t15.5 -36t-15.5 -35.5t-37.5 -14.5t-38 14.5t-16 35.5z" />
    <glyph glyph-name="atilde" unicode="&#xe3;" horiz-adv-x="453" 
d="M420 22q0 -14 -22 -14h-19q-13 0 -22.5 10.5t-29.5 35.5l-10 4q-3 0 -17.5 -17t-23.5 -23q-30 -19 -91 -19t-110 24q-69 35 -69 105q0 64 61.5 138t129.5 91q3 1 27 8q20 7 25 7q12 0 20 -7t16 -15q19 12 31 12q36 0 66 -57q26 -49 26 -83q0 -3 -12.5 -40.5t-12.5 -41.5
t18.5 -59t18.5 -59zM258 159q0 4 -5 21.5t-6 25.5q-3 14 -2 54q-18 -5 -42 -21q-24 -19 -47 -38q-44 -39 -44 -58q0 -32 61 -32q19 0 47 10q38 15 38 38zM321 496q6 11 19 11q10 0 18 -8t5 -20q-18 -63 -88 -63q-13 0 -26 2q-21 9 -80 34q-31 0 -36 -2q-12 -4 -18 -25
q-4 -14 -18 -14q-10 0 -16 7t-3 17q11 39 32 54q18 12 54 12q10 0 45.5 -10.5t45 -16.5t20.5 -6q33 0 46 28z" />
    <glyph glyph-name="aring" unicode="&#xe5;" horiz-adv-x="453" 
d="M420 22q0 -14 -22 -14h-19q-13 0 -22.5 10.5t-29.5 35.5l-10 4q-3 0 -17.5 -17t-23.5 -23q-30 -19 -91 -19t-110 24q-69 35 -69 105q0 64 61.5 138t129.5 91q3 1 27 8q20 7 25 7q12 0 20 -7t16 -15q19 12 31 12q36 0 66 -57q26 -49 26 -83q0 -3 -12.5 -40.5t-12.5 -41.5
t18.5 -59t18.5 -59zM258 159q0 4 -5 21.5t-6 25.5q-3 14 -2 54q-18 -5 -42 -21q-24 -19 -47 -38q-44 -39 -44 -58q0 -32 61 -32q19 0 47 10q38 15 38 38zM239 575q31 0 53 -22t22 -53t-22 -52.5t-53 -21.5t-53 21.5t-22 52.5t22 53t53 22zM239 535q-14 0 -24.5 -10
t-10.5 -25q0 -14 10.5 -24t24.5 -10q15 0 25 10t10 24q0 15 -10 25t-25 10z" />
    <glyph glyph-name="ccedilla" unicode="&#xe7;" horiz-adv-x="370" 
d="M259 -63q0 -24 -6 -35q-23 -46 -70 -46q-29 0 -37 7q0 2 -4.5 5t-4.5 5q-4 13 7 23q33 -3 32 -3q14 1 27 13q9 25 4 31q-2 1 -7.5 6.5t-6.5 5.5h-18l-18 -6l-10 16q6 25 15 52h-7q-65 -1 -107 38q-45 40 -45 107q0 22 2 28q4 11 28 44q46 64 110 105.5t121 41.5
q69 0 69 -62q0 -18 -12 -53q-13 -41 -26 -41q-4 0 -31 12.5t-31 12.5q-17 0 -66 -39q-52 -41 -52 -62q0 -23 46 -23q4 0 68 14t68 14q18 0 33 -13.5t15 -31.5q0 -81 -158 -92l-9 -33h28q17 0 22 -3.5t9 -6.5q22 -9 22 -31z" />
    <glyph glyph-name="eacute" unicode="&#xe9;" horiz-adv-x="502" 
d="M284 -4h-55q-83 0 -151 48q-72 51 -72 120q0 54 54 111q51 54 120 82q17 7 52 7q49 0 86 -26q43 -29 43 -79q0 -77 -77 -110q-21 -9 -57 -15q-21 -2 -71 -12q7 -17 24 -22t46 -5q71 0 106 23q19 13 38.5 25t43.5 12q23 0 36.5 -15.5t13.5 -35.5q0 -49 -79 -83
q-59 -25 -101 -25zM218 276q-29 0 -62 -37v-20q16 -11 35 -11q25 0 35.5 11t20.5 46q-6 3 -14.5 7t-14.5 4zM341 531l21 -43q10 -21 -7 -26l-208 -62q-14 -5 -23 11l-6 12q-11 18 7 26l190 89q18 9 26 -7z" />
    <glyph glyph-name="egrave" unicode="&#xe8;" horiz-adv-x="502" 
d="M284 -4h-55q-83 0 -151 48q-72 51 -72 120q0 54 54 111q51 54 120 82q17 7 52 7q49 0 86 -26q43 -29 43 -79q0 -77 -77 -110q-21 -9 -57 -15q-21 -2 -71 -12q7 -17 24 -22t46 -5q71 0 106 23q19 13 38.5 25t43.5 12q23 0 36.5 -15.5t13.5 -35.5q0 -49 -79 -83
q-59 -25 -101 -25zM218 276q-29 0 -62 -37v-20q16 -11 35 -11q25 0 35.5 11t20.5 46q-6 3 -14.5 7t-14.5 4zM109 532l-21 -43q-10 -21 7 -27l207 -62q14 -4 23 12l7 11q10 19 -7 27l-190 89q-19 8 -26 -7z" />
    <glyph glyph-name="ecircumflex" unicode="&#xea;" horiz-adv-x="502" 
d="M284 -4h-55q-83 0 -151 48q-72 51 -72 120q0 54 54 111q51 54 120 82q17 7 52 7q49 0 86 -26q43 -29 43 -79q0 -77 -77 -110q-21 -9 -57 -15q-21 -2 -71 -12q7 -17 24 -22t46 -5q71 0 106 23q19 13 38.5 25t43.5 12q23 0 36.5 -15.5t13.5 -35.5q0 -49 -79 -83
q-59 -25 -101 -25zM218 276q-29 0 -62 -37v-20q16 -11 35 -11q25 0 35.5 11t20.5 46q-6 3 -14.5 7t-14.5 4zM223 456l-125 -49q-10 -4 -16 11l-5 10q-7 16 5 24l133 80q4 2 8 2t8 -2l133 -80q13 -8 5 -24l-4 -10q-7 -15 -16 -11z" />
    <glyph glyph-name="edieresis" unicode="&#xeb;" horiz-adv-x="502" 
d="M284 -4h-55q-83 0 -151 48q-72 51 -72 120q0 54 54 111q51 54 120 82q17 7 52 7q49 0 86 -26q43 -29 43 -79q0 -77 -77 -110q-21 -9 -57 -15q-21 -2 -71 -12q7 -17 24 -22t46 -5q71 0 106 23q19 13 38.5 25t43.5 12q23 0 36.5 -15.5t13.5 -35.5q0 -49 -79 -83
q-59 -25 -101 -25zM218 276q-29 0 -62 -37v-20q16 -11 35 -11q25 0 35.5 11t20.5 46q-6 3 -14.5 7t-14.5 4zM85 465q0 20 15 34.5t37 14.5q21 0 36.5 -14.5t15.5 -34.5q0 -21 -15.5 -35t-36.5 -14q-22 0 -37 14t-15 35zM253 466q0 21 16 36t38 15t37.5 -15t15.5 -36
t-15.5 -35.5t-37.5 -14.5t-38 14.5t-16 35.5z" />
    <glyph glyph-name="iacute" unicode="&#xed;" horiz-adv-x="213" 
d="M194 4l-4 2q-10 0 -33 -1.5t-25 -1.5q-58 0 -72 20q-10 14 -14 43l-4 52q-2 17 -8 57q-6 35 -6 38q0 10 16 65h16q6 0 14 -5t25 -13q27 -11 53 -65q8 -15 25 -82q18 -70 17 -86v-23zM191 471l21 -43q10 -21 -7 -26l-208 -62q-14 -5 -23 11l-6 12q-11 18 7 26l190 89
q18 9 26 -7z" />
    <glyph glyph-name="igrave" unicode="&#xec;" horiz-adv-x="213" 
d="M194 4l-4 2q-10 0 -33 -1.5t-25 -1.5q-58 0 -72 20q-10 14 -14 43l-4 52q-2 17 -8 57q-6 35 -6 38q0 10 16 65h16q6 0 14 -5t25 -13q27 -11 53 -65q8 -15 25 -82q18 -70 17 -86v-23zM-11 432l-21 -43q-10 -21 7 -27l207 -62q14 -4 23 12l7 11q10 19 -7 27l-190 89
q-19 8 -26 -7z" />
    <glyph glyph-name="icircumflex" unicode="&#xee;" horiz-adv-x="213" 
d="M194 4l-4 2q-10 0 -33 -1.5t-25 -1.5q-58 0 -72 20q-10 14 -14 43l-4 52q-2 17 -8 57q-6 35 -6 38q0 10 16 65h16q6 0 14 -5t25 -13q27 -11 53 -65q8 -15 25 -82q18 -70 17 -86v-23zM63 366l-77 -31q-10 -4 -16 11l-5 10q-7 15 5 24l85 62q3 2 8 2t8 -2l93 -60
q12 -8 5 -24l-4 -10q-7 -14 -16 -11z" />
    <glyph glyph-name="idieresis" unicode="&#xef;" horiz-adv-x="213" 
d="M194 4l-4 2q-10 0 -33 -1.5t-25 -1.5q-58 0 -72 20q-10 14 -14 43l-4 52q-2 17 -8 57q-6 35 -6 38q0 10 16 65h16q6 0 14 -5t25 -13q27 -11 53 -65q8 -15 25 -82q18 -70 17 -86v-23zM-55 415q0 20 15 34.5t37 14.5q21 0 36.5 -14.5t15.5 -34.5q0 -21 -15.5 -35t-36.5 -14
q-22 0 -37 14t-15 35zM93 416q0 21 16 36t38 15t37.5 -15t15.5 -36t-15.5 -35.5t-37.5 -14.5t-38 14.5t-16 35.5z" />
    <glyph glyph-name="ntilde" unicode="&#xf1;" horiz-adv-x="539" 
d="M322 504q4 10 14 10q12 0 21 -11t6 -24q-18 -63 -88 -63q-13 0 -26 2q-20 9 -40.5 12t-39.5 12q-31 0 -36 -2q-12 -4 -18 -25q-4 -11 -14 -11t-18.5 9.5t-4.5 21.5q11 39 32 54q18 12 54 12q12 0 47.5 -7t44 -12t19.5 -5q34 0 47 27zM508 43q0 -52 -15 -64
q-24 -19 -54 -19q-26 0 -37 25q-4 9 -7 85.5t-15 115.5q-18 59 -62 59q-35 0 -73 -51q-2 -3 -48 -79q-10 -17 -19 -50q-13 -50 -15 -54q-21 3 -36 3q2 0 -51 -9q-2 2 -6 7q-7 93 -34 154q-3 6 -17 28q-12 18 -12 21q0 5 15 16q54 38 84 38q12 0 21 -11q6 -9 12 -19
q45 45 89 91q43 37 87 37q118 0 165 -129q28 -77 28 -195z" />
    <glyph glyph-name="oacute" unicode="&#xf3;" horiz-adv-x="374" 
d="M172 22q-53 0 -111 55q-61 57 -61 116q0 82 12 105q6 14 31 43q11 11 11 16q42 18 111 18q28 0 102 -40t74 -118q-9 -90 -56.5 -142.5t-112.5 -52.5zM229 197q0 27 -15.5 48t-41.5 21q-7 0 -11 -2q-17 -10 -44 -31q-4 -5 -4 -22q0 -31 18 -54q22 -28 59 -28q39 0 39 68z
M241 531l21 -43q10 -21 -7 -26l-208 -62q-14 -5 -23 11l-6 12q-11 18 7 26l190 89q18 9 26 -7z" />
    <glyph glyph-name="ograve" unicode="&#xf2;" horiz-adv-x="374" 
d="M172 22q-53 0 -111 55q-61 57 -61 116q0 82 12 105q4 13 22 40q20 14 20 19q42 18 111 18q28 0 102 -40t74 -118q-9 -90 -56.5 -142.5t-112.5 -52.5zM229 197q0 27 -15.5 48t-41.5 21q-7 0 -11 -2q-17 -10 -44 -31q-4 -5 -4 -22q0 -31 18 -54q22 -28 59 -28q39 0 39 68z
M59 532l-21 -43q-10 -21 7 -27l207 -62q14 -4 23 12l7 11q10 19 -7 27l-190 89q-19 8 -26 -7z" />
    <glyph glyph-name="ocircumflex" unicode="&#xf4;" horiz-adv-x="374" 
d="M172 22q-53 0 -111 55q-61 57 -61 116q0 82 12 105q6 14 31 43q11 11 11 16q42 18 111 18q28 0 102 -40t74 -118q-9 -90 -56.5 -142.5t-112.5 -52.5zM229 197q0 27 -15.5 48t-41.5 21q-7 0 -11 -2q-17 -10 -44 -31q-4 -5 -4 -22q0 -31 18 -54q22 -28 59 -28q39 0 39 68z
M143 456l-125 -49q-10 -4 -16 11l-5 10q-7 16 5 24l133 80q4 2 8 2t8 -2l133 -80q13 -8 5 -24l-4 -10q-7 -15 -16 -11z" />
    <glyph glyph-name="odieresis" unicode="&#xf6;" horiz-adv-x="374" 
d="M172 22q-53 0 -111 55q-61 57 -61 116q0 82 12 105q3 14 19 43q23 11 23 16q42 18 111 18q28 0 102 -40t74 -118q-9 -90 -56.5 -142.5t-112.5 -52.5zM229 197q0 27 -15.5 48t-41.5 21q-7 0 -11 -2q-17 -10 -44 -31q-4 -5 -4 -22q0 -31 18 -54q22 -28 59 -28q39 0 39 68z
M15 465q0 20 15 34.5t37 14.5q21 0 36.5 -14.5t15.5 -34.5q0 -21 -15.5 -35t-36.5 -14q-22 0 -37 14t-15 35zM183 466q0 21 16 36t38 15t37.5 -15t15.5 -36t-15.5 -35.5t-37.5 -14.5t-38 14.5t-16 35.5z" />
    <glyph glyph-name="otilde" unicode="&#xf5;" horiz-adv-x="374" 
d="M172 22q-53 0 -111 55q-61 57 -61 116q0 82 12 105q6 14 31 43q11 11 11 16q42 18 111 18q28 0 102 -40t74 -118q-9 -90 -56.5 -142.5t-112.5 -52.5zM229 197q0 27 -15.5 48t-41.5 21q-7 0 -11 -2q-17 -10 -44 -31q-4 -5 -4 -22q0 -31 18 -54q22 -28 59 -28q39 0 39 68z
M251 496q6 11 19 11q10 0 18 -8t5 -20q-18 -63 -88 -63q-13 0 -26 2q-21 9 -80 34q-31 0 -36 -2q-12 -4 -18 -25q-4 -14 -18 -14q-10 0 -16 7t-3 17q11 39 32 54q18 12 54 12q10 0 45.5 -10.5t45 -16.5t20.5 -6q33 0 46 28z" />
    <glyph glyph-name="uacute" unicode="&#xfa;" horiz-adv-x="515" 
d="M484 232q0 -46 -36 -118q-33 -67 -66 -99q-14 -14 -48 -21q-17 -4 -34 -4h-23q-24 0 -62 13q-41 13 -99 56q-64 47 -88 89q-15 25 -18 38q-1 5 -1 28q0 31 11 68q17 55 48 55q14 0 26 -19q7 -35 31 -100q13 -23 19 -33q13 -20 27 -32q38 -34 74 -47q11 -3 19 -3
q27 0 48.5 12.5t33.5 45.5q31 86 31 105q0 1 -9 25.5t-9 29.5q0 40 43 40q41 0 65 -55q17 -40 17 -74zM331 531l21 -43q10 -21 -7 -26l-208 -62q-14 -5 -23 11l-6 12q-11 18 7 26l190 89q18 9 26 -7z" />
    <glyph glyph-name="ugrave" unicode="&#xf9;" horiz-adv-x="515" 
d="M484 232q0 -46 -36 -118q-33 -67 -66 -99q-14 -14 -48 -21q-17 -4 -34 -4h-23q-24 0 -62 13q-41 13 -99 56q-64 47 -88 89q-15 25 -18 38q-1 5 -1 28q0 31 11 68q17 55 48 55q14 0 26 -19q7 -35 31 -100q13 -23 19 -33q13 -20 27 -32q38 -34 74 -47q11 -3 19 -3
q27 0 48.5 12.5t33.5 45.5q31 86 31 105q0 1 -9 25.5t-9 29.5q0 40 43 40q41 0 65 -55q17 -40 17 -74zM139 532l-21 -43q-10 -21 7 -27l207 -62q14 -4 23 12l7 11q10 19 -7 27l-190 89q-19 8 -26 -7z" />
    <glyph glyph-name="ucircumflex" unicode="&#xfb;" horiz-adv-x="515" 
d="M484 232q0 -46 -36 -118q-33 -67 -66 -99q-14 -14 -48 -21q-17 -4 -34 -4h-23q-24 0 -62 13q-41 13 -99 56q-64 47 -88 89q-15 25 -18 38q-1 5 -1 28q0 31 11 68q17 55 48 55q14 0 26 -19q7 -35 31 -100q13 -23 19 -33q13 -20 27 -32q38 -34 74 -47q11 -3 19 -3
q27 0 48.5 12.5t33.5 45.5q31 86 31 105q0 1 -9 25.5t-9 29.5q0 40 43 40q41 0 65 -55q17 -40 17 -74zM223 456l-125 -49q-10 -4 -16 11l-5 10q-7 16 5 24l133 80q4 2 8 2t8 -2l133 -80q13 -8 5 -24l-4 -10q-7 -15 -16 -11z" />
    <glyph glyph-name="udieresis" unicode="&#xfc;" horiz-adv-x="515" 
d="M484 232q0 -46 -36 -118q-33 -67 -66 -99q-14 -14 -48 -21q-17 -4 -34 -4h-23q-24 0 -62 13q-41 13 -99 56q-64 47 -88 89q-15 25 -18 38q-1 5 -1 28q0 31 11 68q17 55 48 55q14 0 26 -19q7 -35 31 -100q13 -23 19 -33q13 -20 27 -32q38 -34 74 -47q11 -3 19 -3
q27 0 48.5 12.5t33.5 45.5q31 86 31 105q0 1 -9 25.5t-9 29.5q0 40 43 40q41 0 65 -55q17 -40 17 -74zM75 465q0 20 15 34.5t37 14.5q21 0 36.5 -14.5t15.5 -34.5q0 -21 -15.5 -35t-36.5 -14q-22 0 -37 14t-15 35zM243 466q0 21 16 36t38 15t37.5 -15t15.5 -36t-15.5 -35.5
t-37.5 -14.5t-38 14.5t-16 35.5z" />
    <glyph glyph-name="dagger" unicode="&#x2020;" horiz-adv-x="379" 
d="M21 512q47 -7 81 -10q0 126 1 132q8 46 71 46q11 0 22 -2q18 -3 23 -29q3 -19 -6 -105q-1 -17 0 -43q45 3 99 14q16 0 16 -16v-55q0 -16 -16 -16q-33 -5 -96 -6q-5 -72 -10 -213q-1 -104 -4 -220q-11 -62 -49 -68q-37 28 -34 220q0 11 -6.5 59.5t-7.5 71.5q-1 57 -2 150
q-43 1 -82 2q-6 1 -11 10t-5 16v46q0 16 16 16z" />
    <glyph glyph-name="degree" unicode="&#xb0;" horiz-adv-x="374" 
d="M146 377q-47 0 -102 51.5t-55 104.5v49q2 32 10 49q2 4 28 39q4 4 11 15q40 15 101 15q24 0 94 -38q66 -36 67 -105q-8 -85 -54 -134q-42 -46 -100 -46zM146 621q-10 0 -19 -4q-9 -8 -23 -17q-9 -5 -24 -17q-8 -8 -8 -32q0 -36 22 -64q26 -33 70 -33q26 0 41 30
q13 24 13 53q0 33 -19.5 58.5t-52.5 25.5z" />
    <glyph glyph-name="cent" unicode="&#xa2;" horiz-adv-x="374" 
d="M180 675h25q16 0 16 -16v-66q21 5 40 5q68 0 68 -62q0 -18 -11 -53q-13 -40 -26 -40q-4 0 -31 12t-31 12q-17 0 -66 -38q-52 -41 -52 -63q0 -23 46 -23q4 0 68 14t68 14q18 0 33 -13.5t15 -31.5q0 -66 -121 -86v-1v-123q0 -16 -16 -16h-25q-8 0 -17 5t-9 11v118h-12
q-64 0 -103 38.5t-39 106.5q0 22 2 28q4 12 28 44q63 87 124 119v89q0 6 9 11t17 5z" />
    <glyph glyph-name="sterling" unicode="&#xa3;" horiz-adv-x="569" 
d="M29 371h59q-44 74 -44 150q0 72 60 110q51 33 129 33q58 0 102 -16q24 -9 75 -45q69 -50 69 -85q0 -27 -28 -27t-79 25l-48 24q-25 9 -33 8q-1 0 -22.5 3t-38.5 3q-73 0 -73 -65q0 -32 16 -56q11 -21 43 -62h162q16 0 16 -16v-46q0 -8 -5 -17t-11 -9h-130q-5 -18 -50 -78
q-41 -55 -41 -74q0 -8 5 -13q59 3 178 17q45 8 76 8q90 0 116 -70q2 -7 2 -15q0 -35 -29 -45q-15 -6 -30 -3q-7 5 -20 10q-12 2 -72 -4q-68 -4 -192 -15q-33 -3 -57 -3q-103 0 -126 59q-4 9 -4 19q0 33 60.5 103t62.5 104h-98q-6 0 -11 9t-5 17v46q0 16 16 16z" />
    <glyph glyph-name="section" unicode="&#xa7;" horiz-adv-x="778" 
d="M651 322q-36 -34 -86 -82q10 -51 21 -103q12 -62 12 -103t-29 -41q-22 0 -102 42q-53 29 -106 57q-53 -28 -105 -57q-81 -42 -103 -42q-28 0 -28 41t12 103q10 52 20 103q-45 44 -91 87q-69 69 -69 90q0 26 71 40q35 5 80 11l87 12q48 101 56 117q48 91 70 91
q23 0 70 -91q9 -16 56 -117l87 -12q23 -2 80 -11q71 -14 71 -40q0 -22 -74 -95zM453 400q-27 4 -59 69q-16 38 -33 76l-54 -112q-17 -29 -49 -36q-62 -8 -124 -17q29 -23 57 -47q53 -51 53 -83q0 -16 -23 -136l121 63q5 3 19 3t20 -3l120 -63l-12 61q-11 59 -11 75
q0 32 53 83q29 24 57 47z" />
    <glyph glyph-name="bullet" unicode="&#x2022;" horiz-adv-x="302" 
d="M-6 285q0 53 37.5 91t90.5 38t90.5 -38t37.5 -91t-37.5 -90.5t-90.5 -37.5t-90.5 37.5t-37.5 90.5z" />
    <glyph glyph-name="paragraph" unicode="&#xb6;" 
 />
    <glyph glyph-name="germandbls" unicode="&#xdf;" horiz-adv-x="635" 
d="M602 146q0 -51 -23 -92q-45 -76 -71 -87q-30 -15 -61 -30q-48 -23 -69 -23q-33 0 -29 -1l-34 4q-17 6 -17 31q0 77 17 77q46 0 76 9q4 2 67 29q32 14 32 55q0 9 -1.5 21.5t-1.5 15.5q2 34 -24 53q-19 14 -68 29q-42 13 -42 59q0 42 28 77q27 26 54 53q28 31 28 62
q0 36 -79 36q-49 0 -111 -13q-40 -18 -42 -64q-4 -54 -4 -92q0 -27 16 -157q15 -124 13 -138q-10 -79 -54 -79q-24 0 -52 24q-8 35 -16 71q-4 21 -4 62q-1 36 -9 73q-11 2 -43 0t-44 0q-13 2 -26.5 28t-13.5 48q0 25 21 23q19 5 41 5q-1 0 17 3q15 2 30 0q2 10 1 18
q-3 10 0 26q3 20 -3 99q15 70 53 106q37 33 126 63q83 11 95 11q72 0 118 -38q51 -40 51 -112q0 -107 -69 -153q-7 -6 -7 -14q0 -11 16 -14q54 -10 75 -29q43 -38 43 -135z" />
    <glyph glyph-name="registered" unicode="&#xae;" horiz-adv-x="408" 
d="M371 568q6 -42 6 -68q0 -58 -25 -102q-26 -48 -87 -84q-3 -2 -33.5 -10t-32.5 -8h-28q-85 0 -145 67q-57 63 -57 141q0 44 18 90.5t47 73.5q34 31 67 42q22 8 60 8q74 0 134 -38q67 -43 76 -112zM330 560q-6 47 -58.5 80.5t-114.5 33.5q-17 0 -43 -7q-21 -6 -50 -32
q-20 -19 -34 -54q-16 -38 -16 -77q0 -62 47 -112.5t110 -50.5h28q3 0 21.5 5t21.5 7q50 29 71 67t21 88q0 22 -4 52zM240 403q0 -1 -7 1q-24 4 -51 11q-5 2 -22 7q-6 2 -43 26v-12q1 -8 1 -12q0 -27 -15 -27q-30 0 -40 71v13q0 20 9 65q6 28 36 60q34 36 69 36q17 0 36 -11
q40 -22 40 -72q0 -34 -28 -56q-8 -7 -57 -33q14 -10 38 -15q4 -1 29 -7q9 -2 27 -9q16 -10 16 -26q0 -10 -27 -10h-11zM175 592q-12 0 -28.5 -15t-23.5 -33q-9 -24 -9 -29v-18l2 2l5 1l22 11q20 9 39 17q21 13 21 33q0 11 -8 21t-20 10z" />
    <glyph glyph-name="copyright" unicode="&#xa9;" horiz-adv-x="711" 
d="M588 429q-10 80 -89.5 135t-180.5 55q-92 0 -167 -69q-33 -31 -57 -90q-26 -63 -26 -127q0 -104 78 -188t183 -84h48q3 0 34.5 8.5t36.5 10.5q83 49 118 112q31 56 31 133q0 39 -9 104zM631 156q-44 -81 -145 -140q-5 -3 -55.5 -16.5t-53.5 -13.5h-48q-141 0 -241 111
q-95 105 -95 236q0 73 29 148q30 80 79 125q21 19 57.5 42t55.5 28q45 12 98 12q123 0 224 -63q112 -71 127 -186q9 -70 9 -113q0 -97 -41 -170zM462 165q-3 -8 -17.5 -17.5t-21.5 -9.5q-38 -2 -111 20q-77 22 -103 46q-48 44 -62 61q-29 38 -29 77q0 22 8 45q17 48 104 105
q83 55 136 61q1 0 9.5 5t17.5 5q13 0 32 -8q14 -6 19 -24q4 -15 0 -27q-8 -20 -30 -30l-118 -44q-65 -29 -81 -70q-2 -7 -2 -14q0 -29 40 -62q32 -26 65 -38q50 -19 64 -21q26 -3 53 -6q32 -6 32 -31q0 -10 -5 -23z" />
    <glyph glyph-name="trademark" unicode="&#x2122;" horiz-adv-x="480" 
d="M249 655l1 4q8 26 24 26q21 0 45 -32q6 -9 15 -29l4 6q13 19 38 44q11 5 15 5q13 0 26 -21t14 -24q5 -10 8 -27q9 -54 9 -62l6 -38q1 -7 -8 -26h-11q-9 0 -10 1q-12 6 -13.5 20t-3.5 42q-3 33 -8 45l-2 6l-3 9l-2 5q-2 -1 -11 3q-3 -4 -11 -12q-16 -18 -27 -41
q-7 -17 -20 -17h-3q-4 0 -11 -2q-2 19 -9 55q-10 42 -18 38l-10 -6q-3 -8 -1 -20q2 -17 2 -20q0 1 5 -22t5 -42q0 -33 -20 -33q-13 0 -17 15q-6 19 -13 56q0 9 -12 46q-8 29 -8 33q0 10 4 15q9 11 19 11q7 0 12 -11zM78 630q-20 0 -44 -4q-2 -1 -5 -1l-7 -3q-11 -3 -13 -3
q-13 0 -13 16q0 24 33 29q10 1 100 8q32 2 35 2q23 0 23 -31q0 -12 -18 -18l-33 8q-16 -1 -25 -1v-1q11 -23 11 -57q0 -12 -10 -44q-12 -42 -26 -42q-11 0 -11 15l7 65v23t0 5q0 2 -4 34z" />
    <glyph glyph-name="acute" unicode="&#xb4;" horiz-adv-x="207" 
d="M224 821l17 -36q9 -18 -6 -22l-173 -52q-11 -3 -18 10l-6 10q-9 15 6 21l158 74q16 8 22 -5z" />
    <glyph glyph-name="dieresis" unicode="&#xa8;" horiz-adv-x="284" 
d="M5 765q0 20 15 34.5t37 14.5q21 0 36.5 -14.5t15.5 -34.5q0 -21 -15.5 -35t-36.5 -14q-22 0 -37 14t-15 35zM173 766q0 21 16 36t38 15t37.5 -15t15.5 -36t-15.5 -35.5t-37.5 -14.5t-38 14.5t-16 35.5z" />
    <glyph glyph-name="AE" unicode="&#xc6;" horiz-adv-x="1155" 
d="M506 318l-3 49q-5 33 -18 78.5t-18 75.5q-14 -22 -37 -61q-12 -19 -49 -64q-31 -39 -48 -71q83 3 104 1q23 -3 69 -8zM1098 609q0 -27 -43 -39q-14 -4 -59 -10q-207 -25 -354 -68q9 -63 12 -142q9 -1 34 -1q7 0 10 5q13 2 29 11q6 6 20 28q2 3 16.5 13t20.5 10
q16 0 46 -8q42 -10 60 -16q38 -12 63 -29q29 -20 29 -50q0 -43 -27 -54q-52 -19 -164 -32q-5 0 -67 -3q-42 -2 -64 -10q9 -69 61 -96q7 -4 22 -7q42 -7 91 -7q7 0 76 3l56 -12q5 7 17 17q19 12 49 12q29 0 56 -13q32 -16 32 -42q0 -57 -109 -79q-55 -11 -122 -11
q-51 0 -76 2q-47 3 -94 7q-63 7 -87 23q-22 -38 -64 -38q-30 0 -56 20q2 23 2 44q0 185 -140 197q-9 1 -119 -12q-32 -32 -77 -105t-67 -96q-40 -42 -87 -38q-38 3 -38 14q0 6 8 26q45 109 127 244q37 60 120 178q95 134 128 165l38 16q3 1 6 1q10 0 20 -18q7 -13 15 -26
q28 24 65 49q38 48 45 48q17 0 28 -8q6 -4 32 -46q2 -1 7 -1l287 43q38 -1 40 2q-3 2 -2 2q148 0 148 -63z" />
    <glyph glyph-name="Oslash" unicode="&#xd8;" horiz-adv-x="711" 
d="M165 137q36 75 58 114q66 114 189 285q-75 15 -89 15q-11 0 -17 -2q-16 -5 -23 -18.5t-9 -26.5q-1 -2 -4 -4q-59 -29 -106 -113q-40 -73 -40 -119q0 -26 13 -67.5t28 -63.5zM496 489q-72 -94 -95 -132q-42 -67 -161 -274l15 -6q27 -12 48 -12q29 0 75 18q13 5 33 22
q42 35 92 133q54 103 54 162q0 37 -61 89zM489 636q51 59 72 59q4 0 7 -3l18 -12q14 -11 14 -27q0 -18 -30 -64q107 -76 107 -167q0 -27 -22 -101q-23 -79 -72 -167q-73 -133 -160 -184q-34 -19 -46 -19h-48q-79 0 -146 33q-26 -46 -28 -48q-6 -7 -22 -17q-19 -12 -31 -12
q-14 0 -14 21q0 16 9 49q6 21 19 53q-113 103 -113 265q0 48 30 109q7 13 7 22q0 5 -8 17q-29 50 -29 61q0 19 27 57q24 33 48 55q20 19 68 39.5t70 20.5q16 0 46.5 3t32.5 3q92 0 194 -46z" />
    <glyph glyph-name="plusminus" unicode="&#xb1;" 
 />
    <glyph glyph-name="yen" unicode="&#xa5;" horiz-adv-x="491" 
d="M61 163h117q-2 17 -6 52h-111q-16 0 -16 16v46q0 16 16 16h114l1 1q-10 8 -58 38q-35 22 -54 44q-10 12 -19 44q-15 50 -19 88q-2 31 -5 62t-14 63.5t-14 62.5q12 7 45 7q66 0 90 -75l16 -94q7 -21 20 -63q6 -20 35 -51q32 -35 51 -35q24 0 56 97q27 80 29 102q3 48 4 53
q7 30 35 36q11 3 24 3q20 0 44 -75q2 -7 2 -17q0 -22 -13.5 -73t-13.5 -62q0 -87 -111 -151v-5h113q16 0 16 -16v-46q0 -16 -16 -16h-110q0 -36 -3 -41.5t-3 -10.5h116q16 0 16 -16v-46q0 -16 -16 -16h-109q1 -41 1 -43q-7 -40 -11 -49t-16 -9q-3 0 -16 1t-24 1
q-19 0 -39 8.5t-20 22t-3 31.5q-2 13 -6 37h-115q-16 0 -16 16v46q0 16 16 16z" />
    <glyph glyph-name="mu" unicode="&#xb5;" horiz-adv-x="640" 
d="M285 536q6 14 18 14q6 0 12.5 -2.5l6.5 -2.5q25 0 25 -54q0 -3 -4 -20t-4 -20t-41 -49q-42 -49 -45 -55t-50 -47q-2 -26 -5 -43q-19 -89 -19 -88q0 -41 60 -64q38 -12 76 -23q2 -1 55 -1q-2 0 20 -5.5t48 -5.5q23 0 50 4q23 4 56 15q29 9 32 9q12 0 25 -7.5t13 -19.5
q0 -16 -24 -32q-37 -24 -61 -34t-28 -14q0 -1 -29 -7q-6 -3 -43 -9q-59 -8 -138 -8q-222 0 -238 169q-34 -38 -37 -40q-16 0 -28 14q-1 -4 -1 2q-1 1 0 1q0 24 11 32q1 3 60 83l14 144q0 52 -8 104l-14 84q-1 9 -11.5 50t-10.5 45q0 14 15 30.5t30 16.5q28 0 59 -44
q65 -91 76 -227z" />
    <glyph glyph-name="mu" unicode="&#x3bc;" horiz-adv-x="640" 
d="M285 536q6 14 18 14q6 0 12.5 -2.5l6.5 -2.5q25 0 25 -54q0 -3 -4 -20t-4 -20t-41 -49q-42 -49 -45 -55t-50 -47q-2 -26 -5 -43q-19 -89 -19 -88q0 -41 60 -64q38 -12 76 -23q2 -1 55 -1q-2 0 20 -5.5t48 -5.5q23 0 50 4q23 4 56 15q29 9 32 9q12 0 25 -7.5t13 -19.5
q0 -16 -24 -32q-37 -24 -61 -34t-28 -14q0 -1 -29 -7q-6 -3 -43 -9q-59 -8 -138 -8q-222 0 -238 169q-34 -38 -37 -40q-16 0 -28 14q-1 -4 -1 2q-1 1 0 1q0 24 11 32q1 3 60 83l14 144q0 52 -8 104l-14 84q-1 9 -11.5 50t-10.5 45q0 14 15 30.5t30 16.5q28 0 59 -44
q65 -91 76 -227z" />
    <glyph glyph-name="ordfeminine" unicode="&#xaa;" horiz-adv-x="825" 
d="M779 116q-7 -8 -11.5 -42t-15.5 -44q-13 -14 -40 -32q-17 -1 -51 -5q-37 -6 -84 -6h-143q-4 0 -60 3.5t-61 3.5q-65 0 -87 8q-85 29 -147 74q-85 62 -85 130q0 89 100 174q70 58 197 120q68 33 137 66q-27 9 -108 9l-91 -14q-21 0 -27 -4q-52 -2 -76 -14
q-16 -7 -19.5 -19t-5.5 -12q-19 0 -36 31q-14 26 -14 36q0 61 156 88q92 16 186 16q333 0 333 -62q0 -24 -67 -68q-43 -29 -71 -42q-42 -18 -120 -53q-304 -143 -343 -239q-1 -3 -1 -12q66 -54 135.5 -68.5t165.5 -14.5h136q59 0 86.5 7t51.5 7q11 0 24 3t18 3q17 0 38 -28z
M383 797l126 49q9 3 16 -11l4 -10q8 -17 -4 -24l-133 -80q-4 -2 -9 -2q-4 0 -8 2l-133 80q-12 7 -5 24l5 10q6 14 16 11z" />
    <glyph glyph-name="ordmasculine" unicode="&#xba;" horiz-adv-x="434" 
d="M396 27q-36 -22 -80 -22q-11 0 -34 1t-36 1h-77q-46 0 -89 9q-22 4 -35 17q-21 21 -21 51q0 15 30 51q25 30 31 33q10 6 40.5 36.5t58.5 47.5q-33 0 -74 -3.5t-38 -3.5q-72 0 -72 37q0 12 12.5 26t33.5 18q43 6 132 18q21 4 70 15l31 6q13 3 14 3q37 0 37 -51
q0 -42 -144 -187q-9 -6 -17 -12.5t-9 -24.5q13 -7 45 -5q27 2 21 2h126q68 0 68 -31q0 -17 -24 -32zM192 464l126 48q9 4 16 -10l4 -11q8 -16 -5 -23l-132 -80q-5 -3 -9 -2q-4 -1 -8 2l-133 80q-12 7 -5 23l5 11q6 14 16 10z" />
    <glyph glyph-name="ae" unicode="&#xe6;" horiz-adv-x="748" 
d="M258 159q0 62 2 56q-2 8 -8.5 22t-6.5 23q-18 -5 -42 -21q-24 -19 -47 -38q-44 -39 -44 -58q0 -32 61 -32q19 0 47 10q38 15 38 38zM554 -4h-55q-42 0 -84 14q-3 -2 -8 -8.5t-6 -6.5q-4 0 -27.5 -1.5t-27.5 -1.5q-3 0 -3.5 6.5t-3.5 9.5t-4.5 21t-7.5 25l-10 4
q-3 0 -17.5 -17t-23.5 -23q-30 -19 -91 -19t-110 24q-69 35 -69 105q0 65 57 137t124 88q5 1 26 10q18 8 23 8q10 0 10 -25v-33q1 -8 5 -12q3 2 33 33q27 28 32 28q32 0 60 -47q35 26 74 42q17 7 52 7q49 0 86 -26q43 -29 43 -79q0 -77 -77 -110q-21 -9 -57 -15
q-21 -2 -71 -12q7 -17 24 -22t46 -5q71 0 106 23q19 13 38.5 25t43.5 12q23 0 36.5 -15.5t13.5 -35.5q0 -49 -79 -83q-59 -25 -101 -25zM488 276q-17 0 -44 -14q-23 -12 -31.5 -20.5t-8.5 -16.5t17 -19q6 -4 14 -4q6 0 15 3t11 3q25 0 35.5 11t20.5 46q-6 3 -14.5 7t-14.5 4
z" />
    <glyph glyph-name="oslash" unicode="&#xf8;" horiz-adv-x="374" 
d="M112 162l70 112h-1q-4 0 -16.5 2t-13.5 2q-14 -5 -28 -11q-22 -9 -26 -26v-42q0 -20 15 -37zM221 251q-30 -51 -68 -116q18 -6 37 -6q21 0 35 24q11 21 11 43q0 31 -15 55zM241 366q8 14 17 28q13 20 23 20q5 0 9.5 -3t10.5 -7.5t6 -15.5q0 -6 -2.5 -16t-14.5 -21
q-16 -15 -19 -18q70 -41 70 -116q-9 -90 -56.5 -142.5t-112.5 -52.5q-33 0 -75 26q-26 -50 -38 -50q-6 0 -6 11q0 17 18 59q-71 59 -71 125q0 82 12 105q6 14 31 43q22 11 22 16q42 18 100 18q15 0 65 -22z" />
    <glyph glyph-name="questiondown" unicode="&#xbf;" horiz-adv-x="622" 
d="M-13 -181q0 84 140 159q83 44 169 68q15 7 47 21q7 3 54 9q11 2 31 10q27 11 27 23q0 20 -28 25q-90 18 -106 22q-66 14 -105 27q-11 4 -34.5 24.5t-23.5 26.5q0 13 35 38t53 30h24q26 0 44 -4q31 -6 90 -27q111 -55 149 -106q33 -44 33 -77q0 -47 -79 -88
q-48 -20 -96 -39q-52 -17 -171 -60q-26 -11 -122 -74h163q64 5 112 12q20 3 97 58q3 2 38 11q21 -42 21 -69q0 -16 -12 -39.5t-22 -30.5q-30 -19 -65 -29q-30 -8 -59 -15q-20 -3 -61 -10q-7 -1 -75 -1q-57 0 -79 2q-81 10 -83 10q-51 9 -81 30q-10 6 -23 46q-2 4 -2 17z
M104 436q0 46 35 77q32 30 77 30q39 0 91 -25q65 -31 65 -73t-35.5 -72t-79.5 -30q-30 0 -54 4q-19 4 -54 14q-19 5 -26 16q-19 27 -19 59zM249 433q5 0 13.5 -1.5t11.5 -1.5q4 4 4 10q0 13 -26 23q0 1 -1.5 -7t-1.5 -23z" />
    <glyph glyph-name="exclamdown" unicode="&#xa1;" horiz-adv-x="395" 
d="M73 -206q0 130 8 163q7 26 45 105q37 76 37 78q0 4 -16.5 30.5t-16.5 29.5q0 13 10.5 21t22.5 8q22 0 45 -17q8 7 16 27.5t14 29.5q26 -12 55 -39q31 -30 33 -49q-2 -23 -3 -71q1 -26 15 -56q16 -37 18 -47q8 -36 8 -111q0 -35 -8 -80q-11 -71 -57 -138
q-10 -15 -34.5 -36t-38.5 -27q-20 -8 -26 -8q-8 0 -47 34q-80 70 -80 153zM20 391q0 48 52.5 105t99.5 57q32 0 44 -4q34 -13 66 -61q29 -44 29 -70q0 -53 -38.5 -92.5t-97.5 -39.5q-49 0 -96 23q-59 30 -59 82zM190 -147q0 -90 8 -111q3 -4 12 -4q44 149 44 218
q0 52 -24 52q-40 0 -40 -155zM133 404l8 -8q2 0 14 -1.5t21 -1.5q-3 40 -7 46q-24 -12 -36 -35z" />
    <glyph glyph-name="logicalnot" unicode="&#xac;" 
 />
    <glyph glyph-name="florin" unicode="&#x192;" 
 />
    <glyph glyph-name="guillemotleft" unicode="&#xab;" horiz-adv-x="351" 
d="M285 379q-23 -17 -67 -82q-4 -9 -1 -23q37 -65 45.5 -74t22.5 -32t16 -38q2 -20 -5.5 -32.5t-18.5 -12.5q-27 0 -46 37q-37 58 -41 64q-15 24 -44 79q-7 10 -7 23q0 15 10 29q40 57 101 133q10 11 25 11q26 0 26 -39q0 -31 -16 -43zM145 379q-23 -17 -67 -82
q-4 -9 -1 -23q37 -65 45.5 -74t22.5 -32t16 -38q2 -20 -5.5 -32.5t-18.5 -12.5q-27 0 -46 37q-37 58 -41 64q-15 24 -44 79q-7 10 -7 23q0 15 10 29q40 57 101 133q10 11 25 11q26 0 26 -39q0 -31 -16 -43z" />
    <glyph glyph-name="guillemotright" unicode="&#xbb;" horiz-adv-x="351" 
d="M296 227q-40 -57 -101 -134q-10 -10 -25 -10q-26 0 -26 38q0 32 16 44q23 16 67 81q5 9 1 24q-37 65 -45.5 74t-21.5 30q-15 25 -16 39q-3 21 4.5 33.5t18.5 12.5q27 0 46 -37q37 -58 41 -65q15 -24 44 -78q7 -11 7 -23q0 -16 -10 -29zM156 227q-40 -57 -101 -134
q-10 -10 -25 -10q-26 0 -26 38q0 32 16 44q23 16 67 81q5 9 1 24q-37 65 -45.5 74t-21.5 30q-15 25 -16 39q-3 21 4.5 33.5t18.5 12.5q27 0 46 -37q37 -58 41 -65q15 -24 44 -78q7 -11 7 -23q0 -16 -10 -29z" />
    <glyph glyph-name="ellipsis" unicode="&#x2026;" horiz-adv-x="825" 
d="M694 -4q-29 0 -50 19.5t-21 47.5t21 47.5t50 19.5q30 0 51 -19.5t21 -47.5t-21 -47.5t-51 -19.5zM394 -4q-29 0 -50 19.5t-21 47.5t21 47.5t50 19.5q30 0 51 -19.5t21 -47.5t-21 -47.5t-51 -19.5zM94 -4q-29 0 -50 19.5t-21 47.5t21 47.5t50 19.5q30 0 51 -19.5t21 -47.5
t-21 -47.5t-51 -19.5z" />
    <glyph glyph-name="nonbreakingspace" unicode="&#xa0;" horiz-adv-x="1269" 
 />
    <glyph glyph-name="Agrave" unicode="&#xc0;" horiz-adv-x="717" 
d="M22 -2q-2 14 -2 30q0 27 14 100.5t14 120.5q0 61 10 179q12 136 25 168l27 18q3 2 6 2q10 0 30 -17l28 -22q12 25 25 50q19 32 41 32q50 0 159 -138q89 -113 184 -272q88 -149 99 -195q7 -49 -43 -49q-28 0 -60 15q-116 218 -272 218q-9 0 -105 -20q-9 -25 -25 -108
q-14 -72 -30 -102q-26 -46 -73 -46q-32 0 -39 4.5t-13 31.5zM228 519v-61q0 -21 -6.5 -56t-6.5 -57q0 -12 1 -23q76 9 98 9q12 0 36 -1t36 -1q-55 64 -158 190zM109 832l-21 -43q-10 -21 7 -27l207 -62q14 -4 23 12l7 11q10 19 -7 27l-190 89q-19 8 -26 -7z" />
    <glyph glyph-name="Atilde" unicode="&#xc3;" horiz-adv-x="717" 
d="M22 -2q-2 14 -2 30q0 27 14 100.5t14 120.5q0 61 10 179q12 136 25 168l27 18q3 2 6 2q10 0 30 -17l28 -22q12 25 25 50q19 32 41 32q50 0 159 -138q89 -113 184 -272q88 -149 99 -195q7 -49 -43 -49q-28 0 -60 15q-116 218 -272 218q-9 0 -105 -20q-9 -25 -25 -108
q-14 -72 -30 -102q-26 -46 -73 -46q-32 0 -39 4.5t-13 31.5zM228 519v-61q0 -21 -6.5 -56t-6.5 -57q0 -12 1 -23q76 9 98 9q12 0 36 -1t36 -1q-55 64 -158 190zM304 792q7 14 23 14q30 0 30 -27q0 -38 -38 -64q-34 -23 -73 -23q-15 0 -32 3q-27 11 -100 42q-39 0 -45 -2
q-15 -5 -23 -32q-5 -17 -22 -17q-25 0 -25 23q0 3 1 7q14 49 40 67q23 16 67 16q13 0 57.5 -13.5t56 -20.5t25.5 -7q42 0 58 34z" />
    <glyph glyph-name="Otilde" unicode="&#xd5;" horiz-adv-x="711" 
d="M655 321q-23 -79 -72 -167q-73 -133 -160 -184q-34 -19 -46 -19h-48q-147 0 -241 108q-85 99 -85 236q0 48 30 109q7 13 7 22q0 5 -8 17q-29 50 -29 61q0 19 27 57q24 33 48 55q20 19 68 39.5t70 20.5q16 0 46.5 3t32.5 3q125 0 249 -75q133 -82 133 -185q0 -27 -22 -101
zM427 533q-81 18 -104 18q-11 0 -17 -2q-16 -5 -23 -18.5t-9 -26.5q-1 -2 -4 -4q-59 -29 -106 -113q-40 -73 -40 -119q0 -30 16 -77.5t32 -62.5q28 -27 83 -51q26 -12 48 -12q29 0 75 18q13 5 33 22q42 35 92 133q54 103 54 162q0 34 -54 83q-48 44 -76 50zM404 822
q7 14 23 14q30 0 30 -27q0 -38 -38 -64q-34 -23 -73 -23q-15 0 -32 3q-27 11 -100 42q-39 0 -45 -2q-15 -5 -23 -32q-5 -17 -22 -17q-25 0 -25 23q0 3 1 7q14 49 40 67q23 16 67 16q13 0 57.5 -13.5t56 -20.5t25.5 -7q42 0 58 34z" />
    <glyph glyph-name="OE" unicode="&#x152;" horiz-adv-x="1192" 
d="M548 349q0 50 5 69q-12 34 -60 74q-43 36 -66 41q-81 18 -104 18q-11 0 -17 -2q-16 -5 -23 -18.5t-9 -26.5q-1 -2 -4 -4q-59 -29 -106 -113q-40 -73 -40 -119q0 -30 16 -77.5t32 -62.5q28 -27 83 -51q26 -12 48 -12q29 0 75 18q13 5 33 22q33 27 76.5 103t60.5 141z
M1123 596q0 -26 -38 -37q-32 -6 -63 -12q-85 -23 -191 -34q-102 -11 -151 -26q9 -155 9 -140q10 -2 41 -2q7 0 9 5t6 17q12 20 26 51q6 7 10 7q5 0 91 -20q42 -10 60 -16q38 -13 63 -30q29 -20 29 -50q0 -43 -27 -53q-52 -20 -164 -33q-6 0 -67 -3q-42 -2 -64 -9
q9 -70 61 -97q7 -4 22 -6q42 -7 91 -7q7 0 76 3l42 4q25 -3 31 1q19 11 49 11q29 0 55 -13q33 -16 33 -42q0 -57 -109 -79q-55 -11 -122 -11q-51 0 -76 2q-44 3 -89 6q-51 6 -88 22q-6 3 -40 35q-40 37 -55 84l-6 18q-73 -124 -154 -172q-34 -19 -46 -19h-48
q-147 0 -241 108q-85 99 -85 236q0 48 30 109q7 13 7 22q0 5 -8 17q-29 50 -29 61q0 19 27 57q24 33 48 55q20 19 68 39.5t70 20.5q16 0 46.5 3t32.5 3q133 0 260 -82q5 21 20 59q10 17 25 17q17 0 28 -8q6 -4 32 -46q2 -1 7 -1l193 32q39 0 69.5 1.5t25.5 1.5
q168 0 168 -60z" />
    <glyph glyph-name="oe" unicode="&#x153;" horiz-adv-x="697" 
d="M226 172q1 6 2 12.5t1 12.5q0 27 -15.5 48t-41.5 21q-7 0 -11 -2q-17 -10 -44 -31q-4 -5 -4 -22q0 -31 18 -54q22 -28 59 -28q28 0 36 43zM504 -4h-55q-103 0 -175 68q-44 -42 -102 -42q-53 0 -111 55q-61 57 -61 116q0 82 12 105q6 14 31 43q11 11 11 16q42 18 111 18
q28 0 101 -39q26 -14 43 -34q42 35 91 55q17 7 52 7q49 0 86 -26q43 -29 43 -79q0 -77 -77 -110q-21 -9 -57 -15q-21 -2 -71 -12q7 -17 24 -22t46 -5q71 0 106 23q19 13 38.5 25t43.5 12q23 0 36.5 -15.5t13.5 -35.5q0 -49 -79 -83q-59 -25 -101 -25zM438 276q-29 0 -62 -37
v-20q16 -11 35 -11q25 0 35.5 11t20.5 46q-6 3 -14.5 7t-14.5 4z" />
    <glyph glyph-name="endash" unicode="&#x2013;" horiz-adv-x="436" 
d="M21 243h358q16 0 16 -16v-46q0 -16 -16 -16h-358q-16 0 -16 16v46q0 16 16 16z" />
    <glyph glyph-name="emdash" unicode="&#x2014;" horiz-adv-x="753" 
d="M21 243l665 1q16 0 16 -16v-46q0 -16 -16 -16l-665 -1q-16 0 -16 16v46q0 16 16 16z" />
    <glyph glyph-name="quotedblleft" unicode="&#x201c;" horiz-adv-x="359" 
d="M250 422q-6 -20 -26 -15l-62 14q-20 5 -15 25q5 58 39 132q31 66 63 101q4 14 19 14q17 0 30 -7q17 -9 13 -25q-21 -44 -39 -118q-18 -69 -22 -121zM105 441q-5 -20 -26 -15l-61 14q-20 5 -15 25q4 57 38 132q31 66 63 101q5 14 19 14q18 0 31 -7q16 -10 12 -25
q-21 -44 -39 -118q-17 -69 -22 -121z" />
    <glyph glyph-name="quotedblright" unicode="&#x201d;" horiz-adv-x="359" 
d="M210 420q-5 -13 -20 -13q-17 0 -30 7q-17 9 -12 25q20 43 39 118q17 68 22 121q5 20 25 15l62 -14q20 -5 15 -26q-4 -57 -39 -131q-30 -67 -62 -102zM50 410q-5 -13 -20 -13q-17 0 -30 7q-17 9 -12 25q20 43 39 118q17 68 22 121q5 20 25 15l62 -14q20 -5 15 -26
q-4 -57 -39 -131q-30 -67 -62 -102z" />
    <glyph glyph-name="quoteleft" unicode="&#x2018;" horiz-adv-x="195" 
d="M90 412q-6 -20 -26 -15l-62 14q-20 5 -15 25q5 58 39 132q31 66 63 101q4 14 19 14q17 0 30 -7q17 -9 13 -25q-21 -44 -39 -118q-18 -69 -22 -121z" />
    <glyph glyph-name="quoteright" unicode="&#x2019;" horiz-adv-x="195" 
d="M50 410q-5 -13 -20 -13q-17 0 -30 7q-17 9 -12 25q20 43 39 118q17 68 22 121q5 20 25 15l62 -14q20 -5 15 -26q-4 -57 -39 -131q-30 -67 -62 -102z" />
    <glyph glyph-name="divide" unicode="&#xf7;" 
 />
    <glyph glyph-name="ydieresis" unicode="&#xff;" horiz-adv-x="359" 
d="M322 310q0 -53 -37.5 -172t-37.5 -115q0 -6 -13 -43q-32 -90 -35 -97q-37 -84 -72 -84q-48 0 -48 44q0 6 7.5 33.5t15.5 42.5q5 12 42 104q18 45 43 62l-1 1q-52 -4 -54 -4q-37 0 -63 12q-15 7 -41.5 78.5t-26.5 105.5q0 47 38 47q29 0 45 -37q10 -34 22.5 -70t37.5 -36
q24 0 52 43q18 27 27 51q11 29 38 84q8 11 25 11q36 0 36 -61zM15 465q0 20 15 34.5t37 14.5q21 0 36.5 -14.5t15.5 -34.5q0 -21 -15.5 -35t-36.5 -14q-22 0 -37 14t-15 35zM183 466q0 21 16 36t38 15t37.5 -15t15.5 -36t-15.5 -35.5t-37.5 -14.5t-38 14.5t-16 35.5z" />
    <glyph glyph-name="Ydieresis" unicode="&#x178;" horiz-adv-x="450" 
d="M417 389q0 -127 -93 -180q-1 -21 -9 -37q-14 -21 -38 -63q-1 -12 -8 -34q-28 -57 -45 -73q-25 -25 -76 -25q-45 0 -45 27q0 -4 19 49q4 23 15 64q1 2 50 89q-90 71 -123 110q-10 12 -19 44q-15 50 -19 88q-2 31 -5 63q-11 62 -28 185q12 7 45 7q66 0 90 -105l16 -124
q7 -21 20 -63q6 -19 40 -51q37 -35 56 -35q24 0 29 52v57q2 57 4 115q8 88 35 94q11 3 24 3q20 0 44 -75q7 -24 15 -93q6 -62 6 -89zM75 765q0 20 15 34.5t37 14.5q21 0 36.5 -14.5t15.5 -34.5q0 -21 -15.5 -35t-36.5 -14q-22 0 -37 14t-15 35zM243 766q0 21 16 36t38 15
t37.5 -15t15.5 -36t-15.5 -35.5t-37.5 -14.5t-38 14.5t-16 35.5z" />
    <glyph glyph-name="currency" unicode="&#xa4;" 
 />
    <glyph glyph-name="guilsinglleft" unicode="&#x2039;" horiz-adv-x="210" 
d="M145 379q-23 -17 -67 -82q-4 -9 -1 -23q37 -65 45.5 -74t22.5 -32t16 -38q2 -20 -5.5 -32.5t-18.5 -12.5q-27 0 -46 37q-37 58 -41 64q-15 24 -44 79q-7 10 -7 23q0 15 10 29q40 57 101 133q10 11 25 11q26 0 26 -39q0 -31 -16 -43z" />
    <glyph glyph-name="guilsinglright" unicode="&#x203a;" horiz-adv-x="210" 
d="M156 227q-40 -57 -101 -134q-10 -10 -25 -10q-26 0 -26 38q0 32 16 44q23 16 67 81q5 9 1 24q-37 65 -45.5 74t-21.5 30q-15 25 -16 39q-3 21 4.5 33.5t18.5 12.5q27 0 46 -37q37 -58 41 -65q15 -24 44 -78q7 -11 7 -23q0 -16 -10 -29z" />
    <glyph glyph-name="daggerdbl" unicode="&#x2021;" 
 />
    <glyph glyph-name="periodcentered" unicode="&#xb7;" horiz-adv-x="235" 
d="M16 309q0 31 22 53t53 22t53 -22t22 -53t-23.5 -54.5t-54.5 -23.5q-30 0 -51 23.5t-21 54.5z" />
    <glyph glyph-name="periodcentered" unicode="&#x2219;" horiz-adv-x="235" 
d="M16 309q0 31 22 53t53 22t53 -22t22 -53t-23.5 -54.5t-54.5 -23.5q-30 0 -51 23.5t-21 54.5z" />
    <glyph glyph-name="quotesinglbase" unicode="&#x201a;" horiz-adv-x="195" 
d="M50 -120q-5 -13 -20 -13q-17 0 -30 7q-17 9 -12 25q20 43 39 118q17 68 22 121q5 20 25 15l62 -14q20 -5 15 -26q-4 -57 -39 -131q-30 -67 -62 -102z" />
    <glyph glyph-name="quotedblbase" unicode="&#x201e;" horiz-adv-x="359" 
d="M210 -110q-5 -13 -20 -13q-17 0 -30 7q-17 9 -12 25q20 43 39 118q17 68 22 121q5 20 25 15l62 -14q20 -5 15 -26q-4 -57 -39 -131q-30 -67 -62 -102zM50 -120q-5 -13 -20 -13q-17 0 -30 7q-17 9 -12 25q20 43 39 118q17 68 22 121q5 20 25 15l62 -14q20 -5 15 -26
q-4 -57 -39 -131q-30 -67 -62 -102z" />
    <glyph glyph-name="perthousand" unicode="&#x2030;" 
 />
    <glyph glyph-name="Acircumflex" unicode="&#xc2;" horiz-adv-x="717" 
d="M22 -2q-2 14 -2 30q0 27 14 100.5t14 120.5q0 61 10 179q12 136 25 168l27 18q3 2 6 2q10 0 30 -17l28 -22q12 25 25 50q19 32 41 32q50 0 159 -138q89 -113 184 -272q88 -149 99 -195q7 -49 -43 -49q-28 0 -60 15q-116 218 -272 218q-9 0 -105 -20q-9 -25 -25 -108
q-14 -72 -30 -102q-26 -46 -73 -46q-32 0 -39 4.5t-13 31.5zM228 519v-61q0 -21 -6.5 -56t-6.5 -57q0 -12 1 -23q76 9 98 9q12 0 36 -1t36 -1q-55 64 -158 190zM200 744l-126 -49q-9 -3 -16 11l-4 10q-8 17 4 24l133 80q4 2 9 2q4 0 8 -2l133 -80q12 -7 5 -24l-5 -10
q-6 -14 -16 -11z" />
    <glyph glyph-name="Ecircumflex" unicode="&#xca;" horiz-adv-x="823" 
d="M795 640q0 -27 -42 -40q-14 -4 -59 -9q-214 -25 -264 -32q-151 -21 -220 -42q9 -155 9 -140q10 -2 41 -2q7 0 9 5t6 17q12 20 26 51q6 7 10 7q5 0 91 -20q42 -10 60 -16q38 -13 63 -30q29 -20 29 -50q0 -43 -27 -53q-52 -20 -164 -33q-6 0 -67 -3q-42 -2 -64 -9
q9 -70 61 -97q7 -4 22 -6q42 -7 91 -7q7 0 76 3l50 -1q8 1 23 6q19 11 49 11q29 0 55 -13q33 -16 33 -42q0 -57 -109 -79q-55 -11 -122 -11q-51 0 -76 2q-44 3 -89 6q-51 6 -88 22q-6 3 -40 35q-40 37 -55 84q-6 16 -10 29q-25 73 -25 192q0 45 2 55q3 24 18 65q2 2 -5 2
q-3 0 -31.5 -9.5t-34.5 -9.5q-26 0 -26 29q0 108 61 108q8 -2 18 3q7 25 25 71q10 17 25 17q17 0 28 -8q6 -4 32 -46q2 -1 7 -1l355 49q39 -1 69.5 1t25.5 2q148 0 148 -63zM363 776l-125 -49q-10 -4 -16 11l-5 10q-7 16 5 24l133 80q4 2 8 2t8 -2l133 -80q13 -8 5 -24
l-4 -10q-7 -15 -16 -11z" />
    <glyph glyph-name="Aacute" unicode="&#xc1;" horiz-adv-x="717" 
d="M22 -2q-2 14 -2 30q0 27 14 100.5t14 120.5q0 61 10 179q12 136 25 168l27 18q3 2 6 2q10 0 30 -17l28 -22q12 25 25 50q19 32 41 32q50 0 159 -138q89 -113 184 -272q88 -149 99 -195q7 -49 -43 -49q-28 0 -60 15q-116 218 -272 218q-9 0 -105 -20q-9 -25 -25 -108
q-14 -72 -30 -102q-26 -46 -73 -46q-32 0 -39 4.5t-13 31.5zM228 519v-61q0 -21 -6.5 -56t-6.5 -57q0 -12 1 -23q76 9 98 9q12 0 36 -1t36 -1q-55 64 -158 190zM291 841l21 -43q10 -21 -7 -26l-208 -62q-14 -5 -23 11l-6 12q-11 18 7 26l190 89q18 9 26 -7z" />
    <glyph glyph-name="Edieresis" unicode="&#xcb;" horiz-adv-x="823" 
d="M795 640q0 -27 -42 -40q-14 -4 -59 -9q-214 -25 -264 -32q-151 -21 -220 -42q9 -155 9 -140q10 -2 41 -2q7 0 9 5t6 17q12 20 26 51q6 7 10 7q5 0 91 -20q42 -10 60 -16q38 -13 63 -30q29 -20 29 -50q0 -43 -27 -53q-52 -20 -164 -33q-6 0 -67 -3q-42 -2 -64 -9
q9 -70 61 -97q7 -4 22 -6q42 -7 91 -7q7 0 76 3l50 -1q8 1 23 6q19 11 49 11q29 0 55 -13q33 -16 33 -42q0 -57 -109 -79q-55 -11 -122 -11q-51 0 -76 2q-44 3 -89 6q-51 6 -88 22q-6 3 -40 35q-40 37 -55 84q-6 16 -10 29q-25 73 -25 192q0 45 2 55q3 24 18 65q2 2 -5 2
q-3 0 -31.5 -9.5t-34.5 -9.5q-26 0 -26 29q0 108 61 108q8 -2 18 3q7 25 25 71q10 17 25 17q17 0 28 -8q6 -4 32 -46q2 -1 7 -1l355 49q39 -1 69.5 1t25.5 2q148 0 148 -63zM245 785q0 20 15 34.5t37 14.5q21 0 36.5 -14.5t15.5 -34.5q0 -21 -15.5 -35t-36.5 -14
q-22 0 -37 14t-15 35zM433 786q0 21 16 36t38 15t37.5 -15t15.5 -36t-15.5 -35.5t-37.5 -14.5t-38 14.5t-16 35.5z" />
    <glyph glyph-name="Egrave" unicode="&#xc8;" horiz-adv-x="823" 
d="M795 640q0 -27 -42 -40q-14 -4 -59 -9q-214 -25 -264 -32q-151 -21 -220 -42q9 -155 9 -140q10 -2 41 -2q7 0 9 5t6 17q12 20 26 51q6 7 10 7q5 0 91 -20q42 -10 60 -16q38 -13 63 -30q29 -20 29 -50q0 -43 -27 -53q-52 -20 -164 -33q-6 0 -67 -3q-42 -2 -64 -9
q9 -70 61 -97q7 -4 22 -6q42 -7 91 -7q7 0 76 3l50 -1q8 1 23 6q19 11 49 11q29 0 55 -13q33 -16 33 -42q0 -57 -109 -79q-55 -11 -122 -11q-51 0 -76 2q-44 3 -89 6q-51 6 -88 22q-6 3 -40 35q-40 37 -55 84q-6 16 -10 29q-25 73 -25 192q0 45 2 55q3 24 18 65q2 2 -5 2
q-3 0 -31.5 -9.5t-34.5 -9.5q-26 0 -26 29q0 108 61 108q8 -2 18 3q7 25 25 71q10 17 25 17q17 0 28 -8q6 -4 32 -46q2 -1 7 -1l355 49q39 -1 69.5 1t25.5 2q148 0 148 -63zM269 862l-21 -43q-10 -21 7 -27l207 -62q14 -4 23 12l7 11q10 19 -7 27l-190 89q-19 8 -26 -7z" />
    <glyph glyph-name="Iacute" unicode="&#xcd;" horiz-adv-x="317" 
d="M247 58q0 -107 -36 -107q-7 0 -26 25q-11 18 -23 36q-9 12 -25 18q-12 2 -25 13q-6 65 -28 208q-1 9 -49 198q-37 148 -37 186q0 19 8 43q11 34 28 34q21 0 66 -71q55 -87 82 -195q65 -260 65 -388zM141 851l21 -43q10 -21 -7 -26l-208 -62q-14 -5 -23 11l-6 12
q-11 18 7 26l190 89q18 9 26 -7z" />
    <glyph glyph-name="Icircumflex" unicode="&#xce;" horiz-adv-x="317" 
d="M247 58q0 -107 -36 -107q-8 0 -27 12.5t-26 22.5q-12 17 -24 22q-5 1 -12.5 14.5t-9.5 20.5q-6 65 -28 208q-14 72 -52 237q-34 144 -34 147q0 19 8 43q11 34 28 34q21 0 66 -71q55 -87 82 -195q65 -260 65 -388zM53 766l-125 -49q-10 -4 -16 11l-5 10q-7 16 5 24l133 80
q4 2 8 2t8 -2l133 -80q13 -8 5 -24l-4 -10q-7 -15 -16 -11z" />
    <glyph glyph-name="Idieresis" unicode="&#xcf;" horiz-adv-x="317" 
d="M247 58q0 -107 -36 -107q-9 0 -34 11.5t-31 20.5q-1 14 -12 31q-5 2 -12.5 12t-9.5 17q-6 65 -28 208q-14 72 -52 237q-34 144 -34 147q0 19 8 43q11 34 28 34q21 0 66 -71q55 -87 82 -195q65 -260 65 -388zM-105 785q0 20 15 34.5t37 14.5q21 0 36.5 -14.5t15.5 -34.5
q0 -21 -15.5 -35t-36.5 -14q-22 0 -37 14t-15 35zM63 786q0 21 16 36t38 15t37.5 -15t15.5 -36t-15.5 -35.5t-37.5 -14.5t-38 14.5t-16 35.5z" />
    <glyph glyph-name="Igrave" unicode="&#xcc;" horiz-adv-x="317" 
d="M247 58q0 -107 -36 -107q-8 0 -30 15.5t-29 26.5q-4 5 -21 12q-4 1 -10.5 15.5t-8.5 22.5q-6 65 -28 208q-14 72 -52 237q-34 144 -34 147q0 19 8 43q11 34 28 34q21 0 66 -71q55 -87 82 -195q65 -260 65 -388zM-31 862l-21 -43q-10 -21 7 -27l207 -62q14 -4 23 12l7 11
q10 19 -7 27l-190 89q-19 8 -26 -7z" />
    <glyph glyph-name="Oacute" unicode="&#xd3;" horiz-adv-x="711" 
d="M655 321q-23 -79 -72 -167q-73 -133 -160 -184q-34 -19 -46 -19h-48q-147 0 -241 108q-85 99 -85 236q0 48 30 109q7 13 7 22q0 5 -8 17q-29 50 -29 61q0 19 27 57q24 33 48 55q20 19 68 39.5t70 20.5q16 0 46.5 3t32.5 3q125 0 249 -75q133 -82 133 -185q0 -27 -22 -101
zM427 533q-81 18 -104 18q-11 0 -17 -2q-16 -5 -23 -18.5t-9 -26.5q-1 -2 -4 -4q-59 -29 -106 -113q-40 -73 -40 -119q0 -30 16 -77.5t32 -62.5q28 -27 83 -51q26 -12 48 -12q29 0 75 18q13 5 33 22q42 35 92 133q54 103 54 162q0 34 -54 83q-48 44 -76 50zM421 851l21 -43
q10 -21 -7 -26l-208 -62q-14 -5 -23 11l-6 12q-11 18 7 26l190 89q18 9 26 -7z" />
    <glyph glyph-name="Ocircumflex" unicode="&#xd4;" horiz-adv-x="711" 
d="M655 321q-23 -79 -72 -167q-73 -133 -160 -184q-34 -19 -46 -19h-48q-147 0 -241 108q-85 99 -85 236q0 48 30 109q7 13 7 22q0 5 -8 17q-29 50 -29 61q0 19 27 57q24 33 48 55q20 19 68 39.5t70 20.5q16 0 46.5 3t32.5 3q125 0 249 -75q133 -82 133 -185q0 -27 -22 -101
zM427 533q-81 18 -104 18q-11 0 -17 -2q-16 -5 -23 -18.5t-9 -26.5q-1 -2 -4 -4q-59 -29 -106 -113q-40 -73 -40 -119q0 -30 16 -77.5t32 -62.5q28 -27 83 -51q26 -12 48 -12q29 0 75 18q13 5 33 22q42 35 92 133q54 103 54 162q0 34 -54 83q-48 44 -76 50z" />
    <glyph glyph-name="Ograve" unicode="&#xd2;" horiz-adv-x="711" 
d="M655 321q-23 -79 -72 -167q-73 -133 -160 -184q-34 -19 -46 -19h-48q-147 0 -241 108q-85 99 -85 236q0 48 30 109q7 13 7 22q0 5 -8 17q-29 50 -29 61q0 19 27 57q24 33 48 55q20 19 68 39.5t70 20.5q16 0 46.5 3t32.5 3q125 0 249 -75q133 -82 133 -185q0 -27 -22 -101
zM427 533q-81 18 -104 18q-11 0 -17 -2q-16 -5 -23 -18.5t-9 -26.5q-1 -2 -4 -4q-59 -29 -106 -113q-40 -73 -40 -119q0 -30 16 -77.5t32 -62.5q28 -27 83 -51q26 -12 48 -12q29 0 75 18q13 5 33 22q42 35 92 133q54 103 54 162q0 34 -54 83q-48 44 -76 50zM209 852l-21 -43
q-10 -21 7 -27l207 -62q14 -4 23 12l7 11q10 19 -7 27l-190 89q-19 8 -26 -7z" />
    <glyph glyph-name="Uacute" unicode="&#xda;" horiz-adv-x="774" 
d="M727 443q0 -111 -36 -210q-8 -23 -36 -69q-30 -50 -52 -73q-67 -70 -157 -91q-17 -4 -32 -4q-36 0 -83 7.5t-107 41.5q-65 37 -112 88q-62 66 -93 166q-21 67 -21 107q0 82 13 139q10 41 25 70q13 23 35 43q12 5 13 5q-2 0 11 -6t7 -34q-7 -33 -7 -75q0 -67 18 -129
q15 -54 50 -122q30 -58 36 -68q28 -45 64 -65t73 -29q17 -4 47 -4q11 0 40 4q24 3 54.5 23t50.5 45q37 48 69 141.5t32 153.5q0 45 -14 92t-14 59q0 19 10.5 35t28.5 16q45 0 71 -126q16 -83 16 -131zM451 851l21 -43q10 -21 -7 -26l-208 -62q-14 -5 -23 11l-6 12
q-11 18 7 26l190 89q18 9 26 -7z" />
    <glyph glyph-name="Ucircumflex" unicode="&#xdb;" horiz-adv-x="774" 
d="M727 443q0 -111 -36 -210q-8 -23 -36 -69q-30 -50 -52 -73q-67 -70 -157 -91q-17 -4 -32 -4q-36 0 -83 7.5t-107 41.5q-65 37 -112 88q-62 66 -93 166q-21 67 -21 107q0 82 13 139q10 41 25 70q13 23 35 43q12 5 13 5q-2 0 11 -6t7 -34q-7 -33 -7 -75q0 -67 18 -129
q15 -54 50 -122q30 -58 36 -68q28 -45 64 -65t73 -29q17 -4 47 -4q11 0 40 4q24 3 54.5 23t50.5 45q37 48 69 141.5t32 153.5q0 45 -14 92t-14 59q0 19 10.5 35t28.5 16q45 0 71 -126q16 -83 16 -131zM335 734l-126 -49q-9 -3 -16 11l-4 11q-8 16 5 23l132 80q5 3 9 2
q4 1 8 -2l133 -80q12 -7 5 -23l-5 -11q-6 -14 -16 -11z" />
    <glyph glyph-name="Ugrave" unicode="&#xd9;" horiz-adv-x="774" 
d="M727 443q0 -111 -36 -210q-8 -23 -36 -69q-30 -50 -52 -73q-67 -70 -157 -91q-17 -4 -32 -4q-36 0 -83 7.5t-107 41.5q-65 37 -112 88q-62 66 -93 166q-21 67 -21 107q0 82 13 139q10 41 25 70q13 23 35 43q12 5 13 5q-2 0 11 -6t7 -34q-7 -33 -7 -75q0 -67 18 -129
q15 -54 50 -122q30 -58 36 -68q28 -45 64 -65t73 -29q17 -4 47 -4q11 0 40 4q24 3 54.5 23t50.5 45q37 48 69 141.5t32 153.5q0 45 -14 92t-14 59q0 19 10.5 35t28.5 16q45 0 71 -126q16 -83 16 -131zM249 832l-21 -43q-10 -21 7 -27l207 -62q14 -4 23 12l7 11q10 19 -7 27
l-190 89q-19 8 -26 -7z" />
    <glyph glyph-name="circumflex" unicode="&#x2c6;" horiz-adv-x="351" 
d="M163 766l-125 -49q-10 -4 -16 11l-5 10q-7 16 5 24l133 80q4 2 8 2t8 -2l133 -80q13 -8 5 -24l-4 -10q-7 -15 -16 -11z" />
    <glyph glyph-name="tilde" unicode="&#x2dc;" horiz-adv-x="935" 
d="M484 732q7 14 23 14q30 0 30 -27q0 -38 -38 -64q-34 -23 -73 -23q-15 0 -32 3q-27 11 -100 42q-39 0 -45 -2q-15 -5 -23 -32q-5 -17 -22 -17q-25 0 -25 23q0 3 1 7q14 49 40 67q23 16 67 16q13 0 57.5 -13.5t56 -20.5t25.5 -7q42 0 58 34z" />
    <glyph glyph-name="macron" unicode="&#xaf;" horiz-adv-x="210" 
d="M15 776h144q16 0 16 -16v-25q0 -16 -16 -16h-144q-16 0 -16 16v25q0 16 16 16z" />
    <glyph glyph-name="macron" unicode="&#x2c9;" horiz-adv-x="210" 
d="M15 776h144q16 0 16 -16v-25q0 -16 -16 -16h-144q-16 0 -16 16v25q0 16 16 16z" />
    <glyph glyph-name="cedilla" unicode="&#xb8;" horiz-adv-x="224" 
d="M66 46q-18 -58 -32 -111l17 -26l29 9q2 1 30 1q-3 0 34 -19q13 -15 0 -52q-21 -19 -45 -19q-9 0 -26 3q-20 4 -31 4q-18 -15 -11 -37q-1 -4 6 -9t8 -9q7 -6 61 -6q39 0 56 8q28 13 49 56v56q0 44 -26 55q-8 5 -16 11t-36 6q8 0 -26 -2q-10 1 -21 2l6 64z" />
    <glyph glyph-name="Scaron" unicode="&#x160;" 
 />
    <glyph glyph-name="scaron" unicode="&#x161;" 
 />
    <glyph glyph-name="brokenbar" unicode="&#xa6;" 
 />
    <glyph glyph-name="Eth" unicode="&#xd0;" 
 />
    <glyph glyph-name="eth" unicode="&#xf0;" 
 />
    <glyph glyph-name="Yacute" unicode="&#xdd;" 
 />
    <glyph glyph-name="yacute" unicode="&#xfd;" 
 />
    <glyph glyph-name="Thorn" unicode="&#xde;" 
 />
    <glyph glyph-name="thorn" unicode="&#xfe;" 
 />
    <glyph glyph-name="minus" unicode="&#xad;" 
 />
    <glyph glyph-name="minus" unicode="&#x2212;" 
 />
    <glyph glyph-name="multiply" unicode="&#xd7;" 
 />
    <glyph glyph-name="onesuperior" unicode="&#xb9;" 
 />
    <glyph glyph-name="twosuperior" unicode="&#xb2;" 
 />
    <glyph glyph-name="threesuperior" unicode="&#xb3;" 
 />
    <glyph glyph-name="onehalf" unicode="&#xbd;" 
 />
    <glyph glyph-name="onequarter" unicode="&#xbc;" 
 />
    <glyph glyph-name="threequarters" unicode="&#xbe;" 
 />
    <glyph glyph-name=".null" 
 />
    <glyph glyph-name="Lslash" unicode="&#x141;" 
 />
    <glyph glyph-name="lslash" unicode="&#x142;" 
 />
    <glyph glyph-name="HT" 
 />
    <glyph glyph-name="LF" 
 />
    <glyph glyph-name="nonmarkingreturn" 
 />
    <glyph glyph-name="Zcaron" unicode="&#x17d;" 
 />
    <glyph glyph-name="zcaron" unicode="&#x17e;" 
 />
    <glyph glyph-name="DLE" 
 />
    <glyph glyph-name="DC1" 
 />
    <glyph glyph-name="DC2" 
 />
    <glyph glyph-name="DC3" 
 />
    <glyph glyph-name="DC4" 
 />
    <glyph glyph-name="RS" 
 />
    <glyph glyph-name="US" 
 />
    <glyph glyph-name="notequal" unicode="&#x2260;" horiz-adv-x="24" 
 />
    <glyph glyph-name="infinity" unicode="&#x221e;" 
 />
    <glyph glyph-name="lessequal" unicode="&#x2264;" horiz-adv-x="17" 
 />
    <glyph glyph-name="greaterequal" unicode="&#x2265;" 
 />
    <glyph glyph-name="partialdiff" unicode="&#x2202;" horiz-adv-x="279" 
d="M188 423q6 14 18 14q5 0 11.5 -3l6.5 -3q26 0 26 -53q0 -3 -4.5 -20t-4.5 -20t-24 -27.5t-27 -30t-13 -11.5q27 -176 27 -196q0 -30 -21 -47t-51 -17q-29 0 -38 23q-17 49 -21 93q-1 13 -4 30q-49 -56 -53 -59q-16 0 -28 14q-1 -4 -1 2q-1 1 0 1q0 24 11 32q1 4 55 83
q-8 41 -16 114q-9 83 -14 114q-4 22 -19 77q-15 49 -15 55q0 63 36 75q30 -15 58 -53t33 -68q14 -43 36 -126q3 -16 7 -35z" />
    <glyph glyph-name="summation" unicode="&#x2211;" horiz-adv-x="621" 
d="M577 155q0 -83 -92 -134q-73 -40 -147 -40q-31 0 -103 10q-95 13 -95 32q0 27 85 50q66 18 88 18q3 0 3 -2t4 -2q12 0 22 5q30 7 61 14q54 18 54 52q0 50 -40 79q-19 14 -94 49q-18 9 -53 23q-47 15 -133 47q-33 13 -87 48q-80 52 -80 84q0 74 155 113q58 16 186 51
q24 5 68 21q5 6 16 17q13 7 29 7q21 0 33.5 -15.5t12.5 -31.5q0 -97 -159 -124q-48 -8 -181 -41q104 -42 310 -129q24 -10 39 -22q98 -81 98 -179zM222 754l126 48q9 4 16 -10l4 -11q8 -16 -5 -23l-132 -80q-5 -3 -9 -2q-4 -1 -8 2l-133 80q-12 7 -5 23l5 11q6 14 16 10z
" />
    <glyph glyph-name="product" unicode="&#x220f;" horiz-adv-x="436" 
d="M207 108v-1q1 1 2.5 1.5t7.5 6.5q-18 11 -51 25q-19 8 -56 25q-65 32 -65 64q0 58 132 98q97 30 151 30q29 0 50.5 -15t21.5 -39q0 -50 -78 -57h-24q-3 0 -21 1t-22 1q-5 0 -15 -3q-6 -1 -21 -6q-1 -10 5 -14q45 -17 87 -46q56 -40 56 -75q0 -55 -70 -79q-42 -14 -98 -14
q-111 0 -165 24q-6 3 -14 31t-8 34v13q34 -2 75 -5q36 -3 37 -3q6 0 9 4q2 -4 8 -4h62zM222 474l126 48q9 4 16 -10l4 -11q8 -16 -5 -23l-132 -80q-5 -3 -9 -2q-4 -1 -8 2l-133 80q-12 7 -5 23l5 11q6 14 16 10z" />
    <glyph glyph-name="pi" unicode="&#x3c0;" horiz-adv-x="450" 
d="M417 389q0 -127 -93 -180q-1 -21 -9 -37q-14 -21 -38 -63q-1 -12 -8 -34q-28 -57 -45 -73q-25 -25 -76 -25q-45 0 -45 27q0 -4 19 49q4 23 15 64q1 2 50 89q-90 71 -123 110q-10 12 -19 44q-15 50 -19 88q-2 31 -5 63q-11 62 -28 185q12 7 45 7q66 0 90 -105l16 -124
q7 -21 20 -63q6 -19 40 -51q37 -35 56 -35q24 0 29 52v57q2 42 4 83q8 60 35 66q11 3 24 3q20 0 44 -75q21 -68 21 -122zM324 771l17 -36q9 -18 -6 -22l-173 -52q-11 -3 -18 10l-6 10q-9 15 6 21l158 74q16 8 22 -5z" />
    <glyph glyph-name="integral" unicode="&#x222b;" horiz-adv-x="359" 
d="M322 310q0 -53 -37.5 -172t-37.5 -115q0 -6 -13 -43q-32 -90 -35 -97q-37 -84 -72 -84q-48 0 -48 44q0 6 7.5 33.5t15.5 42.5q5 12 42 104q18 45 43 62l-1 1q-52 -4 -54 -4q-37 0 -63 12q-15 7 -41.5 78.5t-26.5 105.5q0 47 38 47q29 0 45 -37q10 -34 22.5 -70t37.5 -36
q24 0 52 43q18 27 27 51q11 29 38 84q8 11 25 11q36 0 36 -61zM234 491l17 -36q9 -18 -6 -22l-173 -52q-11 -3 -18 10l-6 10q-9 15 6 21l158 74q16 8 22 -5z" />
    <glyph glyph-name="Omega" unicode="&#x3a9;" horiz-adv-x="683" 
d="M-1 448h56q2 6 3 10q36 81 136 140q79 47 164 65q112 23 156 23q32 8 61 -4q35 -16 35 -42q0 -2 -8 -39q-10 -12 -16 -15.5t-20 -6.5q-74 -2 -127 -11t-110 -27q-73 -23 -100 -46q-23 -19 -39 -47h278q16 0 16 -16v-26q0 -16 -16 -16h-300q-3 -18 -3 -36q0 -12 1 -23h321
q16 0 16 -16v-27q0 -16 -16 -16h-302q51 -95 225 -137q110 -27 224 -27q13 4 19 -5q4 -5 10 -26q3 -12 3 -26q0 -58 -34 -58q-10 0 -21 6q-52 0 -115 10q-67 11 -95 16q-52 11 -92 26q-113 41 -189 133q-33 40 -52 88h-49q-16 0 -16 16v27q0 16 16 16h33q-4 24 -4 49v10h-49
q-16 0 -16 16v26q0 16 16 16z" />
    <glyph glyph-name="Omega" unicode="&#x2126;" horiz-adv-x="683" 
d="M-1 448h56q2 6 3 10q36 81 136 140q79 47 164 65q112 23 156 23q32 8 61 -4q35 -16 35 -42q0 -2 -8 -39q-10 -12 -16 -15.5t-20 -6.5q-74 -2 -127 -11t-110 -27q-73 -23 -100 -46q-23 -19 -39 -47h278q16 0 16 -16v-26q0 -16 -16 -16h-300q-3 -18 -3 -36q0 -12 1 -23h321
q16 0 16 -16v-27q0 -16 -16 -16h-302q51 -95 225 -137q110 -27 224 -27q13 4 19 -5q4 -5 10 -26q3 -12 3 -26q0 -58 -34 -58q-10 0 -21 6q-52 0 -115 10q-67 11 -95 16q-52 11 -92 26q-113 41 -189 133q-33 40 -52 88h-49q-16 0 -16 16v27q0 16 16 16h33q-4 24 -4 49v10h-49
q-16 0 -16 16v26q0 16 16 16z" />
    <glyph glyph-name="radical" unicode="&#x221a;" 
 />
    <glyph glyph-name="approxequal" unicode="&#x2248;" 
 />
    <glyph glyph-name="approxequal" unicode="&#x22f2;" 
 />
    <glyph glyph-name="Delta" unicode="&#x394;" 
 />
    <glyph glyph-name="Delta" unicode="&#x2206;" 
 />
    <glyph glyph-name="lozenge" unicode="&#x25ca;" 
 />
    <glyph glyph-name="fraction" unicode="&#x2044;" 
 />
    <glyph glyph-name="fi" unicode="&#xf001;" 
 />
    <glyph glyph-name="fl" unicode="&#xf002;" 
 />
    <glyph glyph-name="apple" unicode="&#xf000;" 
 />
    <glyph glyph-name="dotlessi" unicode="&#x131;" horiz-adv-x="213" 
d="M194 4l-4 2q-10 0 -33 -1.5t-25 -1.5q-58 0 -72 20q-10 14 -14 43l-4 52q-2 17 -8 57q-6 35 -6 38q0 10 16 65h16q6 0 14 -5t25 -13q27 -11 53 -65q8 -15 25 -82q18 -70 17 -86v-23z" />
    <glyph glyph-name="breve" unicode="&#x2d8;" horiz-adv-x="273" 
d="M265 807q0 -38 -49 -58q-37 -16 -80 -16q-130 0 -130 66q-1 9 7.5 16.5t20.5 7.5q16 0 23 -16l2 -2q19 -22 77 -22q57 0 79 24q13 16 29 16q17 0 21 -16z" />
    <glyph glyph-name="dotaccent" unicode="&#x2d9;" horiz-adv-x="210" 
d="M37 765q0 21 14.5 36.5t35.5 15.5t35.5 -15.5t14.5 -36.5q0 -22 -14.5 -37t-35.5 -15t-35.5 15t-14.5 37z" />
    <glyph glyph-name="ring" unicode="&#x2da;" horiz-adv-x="203" 
d="M89 815q31 0 53 -22t22 -53t-22 -52.5t-53 -21.5t-53 21.5t-22 52.5t22 53t53 22zM89 775q-14 0 -24.5 -10t-10.5 -25q0 -14 10.5 -24t24.5 -10q15 0 25 10t10 24q0 15 -10 25t-25 10z" />
    <glyph glyph-name="hungarumlaut" unicode="&#x2dd;" horiz-adv-x="331" 
d="M272 841l16 -22q8 -10 -6 -21l-110 -87q-9 -7 -18 10l-6 10q-6 10 6 21l96 95q11 10 22 -6zM162 841l16 -22q8 -10 -6 -21l-110 -87q-9 -7 -18 10l-6 10q-6 10 6 21l96 95q11 10 22 -6z" />
    <glyph glyph-name="ogonek" unicode="&#x2db;" horiz-adv-x="221" 
d="M169 -123q-6 -20 -26 -36t-40 -16q-29 0 -50.5 30t-21.5 65q0 38 15 66q17 32 45 32v-28q-22 0 -22 -67q0 -31 11 -46.5t23 -15.5q30 0 39 28q9 6 14 6h1q9 0 12 -18z" />
    <glyph glyph-name="caron" unicode="&#x2c7;" horiz-adv-x="351" 
d="M163 795l126 49q9 3 16 -11l4 -10q8 -17 -5 -24l-133 -80q-4 -2 -8 -2t-8 2l-133 80q-12 7 -5 24l5 10q6 14 16 11z" />
    </font>
</defs>
</svg>
