<?xml version="1.0" standalone="no"?>
<!DOCTYPE svg PUBLIC "-//W3C//DTD SVG 1.1//EN" "http://www.w3.org/Graphics/SVG/1.1/DTD/svg11.dtd" >
<svg>
<metadata>
Created by FontForge 20120731 at Wed Apr 17 21:23:36 2019
 By www-data
Digitized by Dan X. Solo. Software (c)2000 by Dover Publications, Inc., New York.
</metadata>
<defs>
<font id="Penciling" horiz-adv-x="20" >
  <font-face 
    font-family="Penciling"
    font-weight="400"
    font-stretch="normal"
    units-per-em="1000"
    panose-1="0 0 4 0 0 0 0 0 0 0"
    ascent="800"
    descent="-200"
    x-height="413"
    cap-height="708"
    bbox="-71 -276 848 873"
    underline-thickness="20"
    underline-position="-123"
    unicode-range="U+0020-F002"
  />
<missing-glyph horiz-adv-x="500" 
d="M63 0v800h375v-800h-375zM125 63h250v675h-250v-675z" />
    <glyph glyph-name=".notdef" horiz-adv-x="500" 
d="M63 0v800h375v-800h-375zM125 63h250v675h-250v-675z" />
    <glyph glyph-name=".null" horiz-adv-x="0" 
 />
    <glyph glyph-name="glyph2" horiz-adv-x="195" 
 />
    <glyph glyph-name="space" unicode=" " horiz-adv-x="195" 
 />
    <glyph glyph-name="exclam" unicode="!" horiz-adv-x="228" 
d="M140 498l-13 -92q-13 -95 -15 -137q-1 -51 -3 -102q-1 -23 -11 -23q-12 0 -20 18q-7 14 -7 22v114q0 190 -15 263q-2 13 -18.5 39t-16.5 30q0 15 21 32t32 17q38 0 56 -88q10 -51 10 -93zM137 48q1 -20 -10.5 -35t-30.5 -16q-20 -2 -35 14t-13 37q1 20 15 33t33 11
q38 -4 41 -44z" />
    <glyph glyph-name="quotedbl" unicode="&#x22;" horiz-adv-x="307" 
d="M206 378q-11 0 -27 18q0 168 -11 219q-8 42 -8 60q0 9 66 9q19 0 24.5 -4t5.5 -21q0 -16 -6 -38q-9 -28 -10 -36q-7 -46 -16 -138q-4 -69 -18 -69zM56 378q-11 0 -27 18q0 168 -11 219q-8 42 -8 60q0 9 66 9q19 0 24.5 -4t5.5 -21q0 -16 -6 -38q-9 -28 -10 -36
q-7 -46 -16 -138q-4 -69 -18 -69z" />
    <glyph glyph-name="numbersign" unicode="#" horiz-adv-x="435" 
d="M286 447l-115 2l-44 -196l115 -2zM78 520l56 -1l33 147q2 10 12 10l32 -1q10 0 8 -10l-33 -147l115 -2l33 147q2 10 12 10l32 -1q10 0 8 -10l-33 -147l65 -1q10 0 8 -10l-11 -50q-2 -10 -12 -9l-65 1l-44 -196l64 -1q10 -1 7 -11l-11 -49q-2 -10 -12 -10l-63 1l-40 -178
q-2 -10 -12 -10h-32q-10 0 -8 10l40 179l-116 2l-39 -179q-3 -10 -13 -9h-32q-10 0 -7 10l40 179l-58 1q-10 0 -8 10l11 50q2 10 12 9l58 -1l44 196l-57 1q-10 1 -7 11l11 49q2 10 12 10z" />
    <glyph glyph-name="dollar" unicode="$" horiz-adv-x="352" 
d="M310 261l-11 -25q-39 -5 -117 -20q0 -23 2.5 -70t2.5 -70q0 -24 -6 -49q-9 -35 -25 -35q-18 0 -32.5 18t-14.5 36q0 10 11.5 78.5t15.5 81.5q-20 -1 -61.5 -28.5t-61.5 -27.5q-6 0 -12 13t-6 20q0 32 57 48q70 19 78 28l1 122q-33 22 -66 45q-41 29 -41 64q0 40 33 65
q17 13 68 34q0 34 5 101q10 13 21 13q8 0 21 -9q15 2 15 -28q0 -14 -4 -41.5t-4 -31.5q38 -18 75 -36q43 -23 43 -64q0 -21 -18 -21t-44.5 29.5t-46.5 29.5q-1 0 -5.5 2.5t-6.5 1.5q3 -46 10 -133q38 -32 75 -63q49 -46 49 -78zM132 443q-4 84 0 97l-31 -9q-7 -2 -14 -13.5
t-7 -19.5q0 -16 19 -34q16 -16 33 -21zM247 272v11q-19 24 -29 33q-20 20 -36 21l-1 -73q0 -3 5 -3q41 0 61 11z" />
    <glyph glyph-name="percent" unicode="%" horiz-adv-x="613" 
d="M467 660l-331 -649q-5 -10 -10 -10h-20q-15 0 -10 10l330 650q5 10 10 10h20q5 0 9 -4t2 -7zM438 10q-58 0 -93 51q-31 44 -31 103q0 85 68 177q4 5 11 16q-5 5 -12 19q-3 4 -3 11q0 15 35 19q15 -23 19 -23q1 0 4 2l2 2q10 10 18 10t15.5 -9t7.5 -16t-10 -20
q91 -120 91 -198q0 -53 -33 -97q-35 -47 -89 -47zM120 288q-58 0 -93 51q-31 44 -31 103q0 85 68 177q4 5 11 16q-10 10 -13 19q-3 6 -3 11q0 15 36 19q15 -23 19 -23q1 0 4 2l2 2q9 10 18 10q8 0 15 -9t7 -16t-9 -20q91 -119 91 -198q0 -53 -33 -97q-35 -47 -89 -47z
M431 319q-22 -18 -44 -74q-20 -51 -20 -80q0 -41 20 -69q22 -31 59 -31q25 0 44 32q17 28 17 58q0 33 -24 84t-52 80zM113 597q-22 -18 -44 -74q-20 -51 -20 -80q0 -41 20 -69q21 -31 58 -31q26 0 45 32q17 28 17 58q0 33 -24 84t-52 80z" />
    <glyph glyph-name="ampersand" unicode="&#x26;" horiz-adv-x="488" 
d="M397 -5q-21 0 -38 31q-13 24 -25 49q-27 -38 -79 -59q-47 -18 -98 -18q-57 0 -104 57q-45 54 -45 113q0 95 39 144l64 64q-7 18 -51 76q-39 52 -39 70q0 35 46 35q12 0 35.5 -3t30.5 -3q25 0 73 10t73 10q21 0 34.5 -16t13.5 -37q0 -47 -133 -158q27 -41 55 -82
q33 -47 63 -77q14 39 14 40q0 25 -49 62q10 10 29 10q35 0 56 -40q18 -33 18 -71q0 -9 -8 -28.5t-8 -29.5q0 -3 33 -55q40 -61 41 -62q0 -32 -41 -32zM232 516q-15 0 -55 -4q-34 -3 -54 -2q-12 -6 -12 -17q0 -16 22.5 -48.5t38.5 -34.5q15 11 48 42q39 37 39 45t-9 13.5
t-18 5.5zM145 323q-85 -55 -85 -152q0 -35 35 -70t71 -35q35 0 73 17q44 22 44 53q0 13 -60 93t-78 94z" />
    <glyph glyph-name="quotesingle" unicode="'" horiz-adv-x="155" 
d="M46 378q-11 0 -27 18q0 168 -11 219q-8 42 -8 60q0 9 66 9q19 0 24.5 -4t5.5 -21q0 -16 -6 -38q-9 -28 -10 -36q-7 -46 -16 -138q-4 -69 -18 -69z" />
    <glyph glyph-name="parenleft" unicode="(" horiz-adv-x="315" 
d="M240 -189q-15 0 -63 56q-77 91 -126 216q-49 129 -49 245q0 137 47 279q53 159 143 240q4 -4 22 -14q-81 -123 -113 -213q-38 -105 -38 -237q0 -147 55 -284q38 -94 103 -183q55 -76 55 -75q0 -13 -12.5 -21.5t-23.5 -8.5z" />
    <glyph glyph-name="parenright" unicode=")" horiz-adv-x="315" 
d="M253 361q0 -157 -58 -300q-58 -146 -168 -255l-19 12q103 134 142 221q53 115 53 256q0 121 -48 257q-33 97 -87 193q-48 85 -48 78q0 33 40 33q68 0 135 -216q58 -185 58 -279z" />
    <glyph glyph-name="asterisk" unicode="*" horiz-adv-x="388" 
d="M334 407q-14 -29 -21 -33q-3 -2 -6 -2q-10 0 -26 14l-21 21q-30 23 -81 60q3 -36 20 -112q6 -26 6 -37q0 -10 -24 -11q-34 -2 -40.5 2t-6.5 17q0 9 4.5 26.5t4.5 19.5q4 27 8 82q0 6 1 12q-29 -20 -83 -70q-20 -18 -29 -24q-8 -4 -22 16q-18 28 -18 35q0 12 23 20
q16 5 33 10q26 11 75 34q6 3 11 5q-32 15 -102 37q-25 8 -35 14q-8 4 2 26q8 15 22 34q3 1 6 1q10 0 26 -14q11 -10 22 -21q21 -17 66 -48l6 -4q-3 57 -13 105q-6 26 -6 37q0 9 22 12q32 3 39 -1.5t7 -17.5q0 -9 -4 -25q-5 -19 -5 -21q-5 -27 -11 -82q0 -3 -1 -12
q51 32 89 67q20 19 29 24q8 5 21 -14q19 -26 19 -34q-1 -12 -24 -20l-32 -10q-27 -9 -77 -31q-3 -2 -10 -6q53 -27 102 -43q25 -8 35 -13q8 -5 -1 -25z" />
    <glyph glyph-name="plus" unicode="+" horiz-adv-x="556" 
d="M234 583h29q10 0 10 -10v-205h205q10 0 10 -10v-29q0 -10 -10 -10l-205 -1v-203q0 -10 -10 -10h-29q-10 0 -10 10v203l-205 1q-10 0 -10 10v29q0 10 10 10h205v205q0 10 10 10z" />
    <glyph glyph-name="comma" unicode="," horiz-adv-x="184" 
d="M103 68q0 -20 -17 -61l-28 -62q-4 -11 -33 -36q-11 0 -18 9q1 8 10.5 39t9.5 46q0 12 -8.5 37t-8.5 37q0 21 13 38.5t36 17.5q21 0 34 -31q10 -21 10 -34z" />
    <glyph glyph-name="hyphen" unicode="-" horiz-adv-x="311" 
d="M13 260h245q10 0 10 -10v-32q0 -10 -10 -10h-245q-10 0 -10 10v32q0 10 10 10z" />
    <glyph glyph-name="hyphen" unicode="&#x2010;" horiz-adv-x="311" 
d="M13 260h245q10 0 10 -10v-32q0 -10 -10 -10h-245q-10 0 -10 10v32q0 10 10 10z" />
    <glyph glyph-name="period" unicode="." horiz-adv-x="184" 
d="M100 49q0 -52 -62 -52q-14 0 -26 17q-11 14 -11 28q0 54 57 54q13 0 27.5 -14t14.5 -33z" />
    <glyph glyph-name="slash" unicode="/" horiz-adv-x="299" 
d="M254 697h32q14 0 10 -10l-241 -705q-3 -10 -10 -10h-32q-13 0 -10 10l241 705q4 10 10 10z" />
    <glyph glyph-name="zero" unicode="0" horiz-adv-x="432" 
d="M382 184q-7 -84 -60 -146q-60 -68 -140 -61q-41 3 -77 26q-106 67 -106 218q0 81 34 160q22 52 63 111q35 49 36 55q0 4 -12 16t-12 17q1 2 -2 8t-3 9q0 13 41 14q5 0 19 -18.5t19 -19.5q5 0 20 12.5t20 11.5q11 -1 20 -14q6 -10 6 -15q-1 -10 -19 -32q77 -102 112 -173
q48 -98 41 -179zM319 197q5 55 -40.5 154t-95.5 142q-33 -11 -74 -99.5t-47 -155.5q-5 -61 23 -117q36 -71 105 -77q55 -5 92 47q32 44 37 106z" />
    <glyph glyph-name="one" unicode="1" horiz-adv-x="282" 
d="M206 81q0 -65 -34 -67q-10 0 -21.5 12t-12.5 22q-2 23 -2 50q0 32 5 96.5t5 95.5q0 93 -2 106q-66 -54 -93 -54q-4 0 -22 15q-6 12 -6 18q0 7 7 13t23.5 12t43.5 25q8 6 39 51q27 41 42 44q20 4 25 -65q1 -9 1 -87z" />
    <glyph glyph-name="two" unicode="2" horiz-adv-x="425" 
d="M366 388q0 -47 -43 -104q-26 -35 -90 -96t-83 -86q1 -1 188 42q23 -9 23 -28q0 -21 -21 -34q-15 -9 -147 -41t-152 -32q-10 0 -14 4v29q0 25 68 93q121 120 127 127q68 76 68 122q0 31 -27 57.5t-58 26.5q-62 0 -93 -36q-16 -19 -32 -68q-13 -36 -29 -36q-12 0 -20 11
t-8 23q0 48 17 128q22 98 49 98q25 0 24 -43q-13 -13 -13 -33q0 -5 2 -7q-1 -4 2 -7.5t10 -3.5q0 -1 7 2t8 4q19 12 52.5 24t52.5 12q55 0 95 -47q37 -45 37 -101z" />
    <glyph glyph-name="three" unicode="3" horiz-adv-x="475" 
d="M403 137q0 -88 -60 -152.5t-147 -64.5q-61 0 -125 58t-64 118q0 13 14.5 22.5t27.5 9.5q26 0 26 -15q0 -51 37.5 -90t88.5 -39q45 0 89.5 50.5t44.5 95.5t-40 98q-43 56 -86 56q-7 0 -23.5 -24t-24.5 -24q-38 0 -38 32q0 15 70 106q80 104 86 115q-20 6 -38 6
q-47 0 -66 -5q-27 -7 -53 -35q-17 9 -34 29.5t-17 36.5q0 15 19 25q16 9 31 9q-8 0 103 -3q61 -2 114 4q41 5 41 -33q0 -15 -62 -92q-39 -49 -78 -97q54 -15 105 -68q59 -62 59 -129z" />
    <glyph glyph-name="four" unicode="4" horiz-adv-x="433" 
d="M298 242q-7 -87 -15 -173q-14 -138 -39 -138q-22 0 -37.5 11.5t-15.5 28.5q0 47 23 132q26 97 30 133q-126 -5 -159 0q-9 1 -14.5 -29t-23.5 -30q-14 0 -14 21q0 8 2 22t3 16q-41 0 -40 29q14 26 31 26q6 0 14 -2q2 17 2 45q0 63 -10 177q5 7 9.5 14.5t12.5 7.5
q23 0 40 -14.5t17 -38.5q0 -109 -18 -194l58 -3l90 3q8 50 6 123q-4 139 -4 123q0 80 38 80q31 0 31 -139q0 -127 -15 -184h18q14 0 35.5 4.5t38.5 4.5q10 1 19.5 -7.5t9.5 -18.5q0 -32 -78 -32q-12 0 -28 1t-17 1z" />
    <glyph glyph-name="five" unicode="5" horiz-adv-x="433" 
d="M368 180q0 -91 -60.5 -148t-150.5 -57q-44 0 -96 42q-56 43 -56 85q0 17 13.5 35.5t30.5 18.5q10 0 25 -29q19 -38 36 -54q30 -29 77 -29q45 0 80.5 43t35.5 90q0 77 -22 116q-29 50 -100 50q-47 0 -55 -16q-2 -4 -7 -62q-11 -10 -17 -10q-6 -1 -22 5q-11 14 -23 27
q-12 17 -12 32q0 17 10.5 38.5t12.5 32.5q4 19 4 39q0 24 -13 104l-3 15q-1 24 31 24q14 0 32 -5q13 -4 64 -9t56 -3q42 -4 89 32q9 3 16.5 -11t7.5 -23q0 -25 -23 -41.5t-49 -16.5q-47 -5 -95 0q-8 0 -28.5 6.5t-32.5 5.5q-2 -4 1 -20q3 -19 3 -21q0 -21 -3 -71q38 10 80 8
q78 -5 124 -78q39 -63 39 -145z" />
    <glyph glyph-name="six" unicode="6" horiz-adv-x="372" 
d="M311 191q0 -58 -38 -117q-42 -66 -97 -66q-82 0 -129 80q-40 67 -40 154q0 37 13 86q12 41 25 83q-13 13 -35 27q0 43 30 43q12 0 28 -6q127 191 172 220q16 0 29 -11t13 -26q0 -13 -76 -94q-80 -85 -91 -115q95 -55 136 -101q60 -67 60 -157zM251 184l-1 30
q-1 44 -56 106.5t-99 69.5q-28 -99 -28 -141q0 -60 21 -106q27 -61 79 -61q37 0 62 34q23 30 22 68z" />
    <glyph glyph-name="seven" unicode="7" horiz-adv-x="342" 
d="M280 526q-99 -262 -99 -370q0 -79 20 -128q7 -16 31 -55q20 -32 20 -38q0 -18 -29 -18q-31 0 -38 5q-25 20 -42 72q-22 71 -22 134q0 145 105 400q0 2 -7.5 3t-9.5 2q-33 5 -129 12q-17 -78 -49 -77q-20 0 -20 25q0 1 10 47q-32 0 -32 23q0 27 16 30q13 -2 35 3
q8 5 10 18q3 18 4.5 21t4 8.5t15.5 5.5q33 0 33 -19q0 -14 -10 -36q62 -1 183 -9q27 -4 35 -22q0 -38 -35 -37z" />
    <glyph glyph-name="eight" unicode="8" horiz-adv-x="377" 
d="M343 169q0 -77 -50.5 -126.5t-128.5 -49.5q-53 0 -107 49.5t-54 104.5q0 90 31 145q30 52 108 106q-8 14 -69 63q-56 45 -58 61q5 20 31 29q23 -1 136 -114q56 75 56 106q0 29 -20.5 56t-47.5 27l-52 -15q-10 -3 -23 6t-13 20q0 24 35 40q29 14 57 14q52 0 91.5 -41.5
t39.5 -94.5q0 -45 -20 -79q-11 -18 -39 -46q-20 -21 -20 -32q117 -140 117 -229zM277 166q0 41 -36 103q-30 54 -65 89q-107 -102 -107 -189q0 -37 32 -75t69 -38q41 0 74 34.5t33 75.5z" />
    <glyph glyph-name="nine" unicode="9" horiz-adv-x="411" 
d="M233 -4q-55 -75 -84 -75q-11 0 -20 9t-9 20q1 -1 1 0l6 8q178 237 178 410q0 76 -25 131q-34 74 -105 74q-47 0 -81.5 -44.5t-34.5 -92.5q0 -50 16 -89q21 -55 65 -55q64 0 73 97q28 -6 28 -62q0 -33 -36 -63.5t-71 -30.5q-56 0 -98 74q-36 65 -36 129q0 84 45 139
q48 60 129 57q194 -7 194 -255q0 -199 -135 -381z" />
    <glyph glyph-name="colon" unicode=":" horiz-adv-x="184" 
d="M100 59q0 -52 -62 -52q-14 0 -26 17q-11 14 -11 28q0 54 57 54q13 0 27.5 -14t14.5 -33zM100 319q0 -52 -62 -52q-14 0 -26 17q-11 14 -11 28q0 54 57 54q13 0 27.5 -14t14.5 -33z" />
    <glyph glyph-name="semicolon" unicode=";" horiz-adv-x="184" 
d="M100 319q0 -52 -62 -52q-14 0 -26 17q-11 14 -11 28q0 54 57 54q13 0 27.5 -14t14.5 -33zM103 68q0 -20 -17 -61l-28 -62q-4 -11 -33 -36q-11 0 -18 9q1 8 10.5 39t9.5 46q0 12 -8.5 37t-8.5 37q0 21 13 38.5t36 17.5q21 0 34 -31q10 -21 10 -34z" />
    <glyph glyph-name="less" unicode="&#x3c;" horiz-adv-x="388" 
d="M115 333l195 -137q10 -7 3 -17l-22 -31q-7 -10 -16 -3l-241 169q-13 9 -13 19t13 19l241 169q9 7 16 -3l22 -31q7 -10 -3 -17z" />
    <glyph glyph-name="equal" unicode="=" horiz-adv-x="446" 
d="M10 234h385q10 0 10 -10v-32q0 -10 -10 -10h-385q-10 0 -10 10v32q0 10 10 10zM10 364h385q10 0 10 -10v-32q0 -10 -10 -10h-385q-10 0 -10 10v32q0 10 10 10z" />
    <glyph glyph-name="greater" unicode="&#x3e;" horiz-adv-x="388" 
d="M220 333l-196 -137q-9 -7 -3 -17l22 -31q7 -10 17 -3l241 169q13 9 13 19t-13 19l-241 169q-10 7 -17 -3l-22 -31q-6 -10 3 -17z" />
    <glyph glyph-name="question" unicode="?" horiz-adv-x="320" 
d="M186 27q-2 -18 -15 -30.5t-31 -11.5t-29.5 14.5t-11.5 32.5t13.5 32.5t32.5 12.5q19 0 31 -15.5t10 -34.5zM256 544q0 -58 -62 -161t-62 -170q0 -31 19 -31q7 0 16.5 4t12.5 4q18 0 18 -30l-7 -21q-33 -16 -46 -16q-62 0 -62 101q0 56 49.5 153t49.5 151q0 96 -58 96
q-33 0 -43.5 -24.5t-21.5 -24.5t-32.5 17.5t-21.5 27.5q0 25 46 49q41 21 69 21q53 0 94.5 -46t41.5 -100z" />
    <glyph glyph-name="at" unicode="@" horiz-adv-x="28" 
 />
    <glyph glyph-name="A" unicode="A" horiz-adv-x="577" 
d="M546 26q0 -14 -9.5 -25.5t-23.5 -11.5q-34 0 -49 35q-9 21 -15.5 71.5t-13.5 65.5q-6 11 -27 27q-16 12 -32 23q-19 15 -63 37q-47 24 -65 24l-3 -1q-1 -97 -37 -192q-47 -125 -125 -125q-37 0 -66 23t-29 59q0 29 21 48t50 19q41 0 41 -32q0 -19 -35 -40q1 -23 11 -23
q53 0 82 54q21 40 29 115l8 108q-43 12 -80 39q-46 35 -46 72q0 22 16.5 44.5t37.5 22.5q10 0 20 -10t10 -20q0 -8 -7 -23.5t-7 -23.5q0 -34 55 -51q3 20 3 64q0 30 -2.5 89t-2.5 89q0 41 22 51q10 4 58 4q34 0 89.5 29.5t75.5 29.5q32 0 32 -46q0 -15 -2.5 -43.5
t-2.5 -42.5q0 -147 24 -293q4 -27 33 -122q25 -80 25 -118zM423 260v40q0 34 -8.5 102.5t-8.5 102.5q0 14 1 41t1 40q0 17 -5 29q-55 -42 -156 -50q5 -49 5 -124q0 -70 -5 -115q60 -16 176 -66z" />
    <glyph glyph-name="B" unicode="B" horiz-adv-x="588" 
d="M539 162q0 -120 -48 -194q-50 -79 -160 -119q-45 -17 -78 -17q-16 0 -46 7t-45 7q-2 0 -9.5 -8.5t-14.5 -8.5q-22 0 -25 11v28q-44 31 -74 74q-34 50 -34 98t19 86q24 47 67 47q18 0 31 -15t13 -32q0 -11 -14 -26t-24 -15q-5 0 -12 3.5t-11 3.5q-17 0 -17 -30
q0 -44 19 -82q22 -44 61 -56q13 10 29 110q15 90 15 124v126q0 43 -5 108q-5 54 -9 109l-2 2q-7 0 -18.5 -5t-16.5 -5q-97 0 -97 57q0 27 36 27q7 0 22.5 -14.5t37.5 -14.5q16 0 26 14q2 18 3 36q5 18 27 18q15 0 20 -14.5t8 -14.5q22 0 104 58t96 58q43 0 70 -80
q20 -62 20 -118q0 -82 -57 -159q30 -27 61 -85q32 -62 32 -99zM478 126q0 59 -22 97q-27 39 -55 78q-6 -3 -54 -33q-34 -21 -57 -21q-11 0 -17 11.5t-11 22.5q7 7 37 24q60 34 99 88q43 60 43 122q0 31 -11 67q-14 47 -37 47q-9 0 -89 -48.5t-80 -57.5q0 -63 10.5 -190
t10.5 -191q0 -112 -23 -170q-16 -28 -34 -68l4 -8q44 -15 63 -15q79 0 152 84q71 81 71 161z" />
    <glyph glyph-name="C" unicode="C" horiz-adv-x="504" 
d="M472 130q0 -26 -36 -43q-18 -8 -95 -20q-98 -14 -193 -52l-64 -30q-42 -18 -65 -18q-24 0 -24 21q0 18 26.5 33.5t28.5 24.5q26 123 26 348q0 44 -7 132q-5 2 -12 1q-12 -2 -13 -2q-10 0 -19.5 8t-9.5 18t26 22l34 14q0 10 5 29q10 8 20 8q6 0 14.5 -7.5t13.5 -7.5
q3 0 83.5 40.5t123.5 40.5q40 0 69.5 -29t29.5 -69q0 -30 -18.5 -52t-48.5 -22q-17 0 -36.5 16t-19.5 33q0 19 15.5 30.5t34.5 12.5l6 5q-8 16 -20 16q-29 0 -111 -34q-74 -31 -108 -53q18 -241 18 -287v-117q0 -19 -8 -75q74 31 147 61q98 41 145 41q16 0 29 -11t13 -26z
" />
    <glyph glyph-name="D" unicode="D" horiz-adv-x="503" 
d="M398 560q1 16 -4 27q-7 15 -22 12q-44 -23 -106 -47q-80 -31 -107 -42q0 -48 -1 -156q-2 -99 -1 -156q0 -86 5 -155q50 16 110 44q80 37 93 61.5t16 52.5q1 5 3 54l2 91q5 142 12 214zM465 117q2 -15 -5 -23.5t-18 -7.5q-3 0 -12.5 1.5t-14.5 1.5q-54 0 -200 -77
q-111 -59 -195 -116q-19 3 -19 28q0 19 35 45q41 30 47 43q15 29 15 410q0 43 -2 68q-120 0 -120 40q0 41 32 40q23 -20 43 -24q1 0 49 -1q2 22 7 29q7 11 27 10q5 6 11 6t11.5 -9.5t12.5 -9.5q20 0 118.5 49t122.5 49q44 0 44 -186q0 -52 -4 -128.5t-4 -82.5q0 -94 19 -155
z" />
    <glyph glyph-name="E" unicode="E" horiz-adv-x="463" 
d="M441 159q0 -35 -63 -56q-18 -5 -130 -29q-81 -17 -107 -38q-10 -74 -51 -74q-30 0 -34 47l-45 -16q-21 0 -21 27q0 17 30 32q22 11 45 22q27 140 27 314q0 49 -6 125q-38 -3 -35 -3q-35 0 -35 29q0 -2 16 25q10 3 60 3q3 7 2 17l-2 17q0 21 33 21q15 0 22 -40
q17 5 129 53q103 43 112 43q10 0 20.5 -8t10.5 -18q0 -52 -111 -90q-45 -15 -158 -37l-4 -156q75 39 109 39q20 0 40.5 -12t20.5 -30q0 -10 -14 -30t-23 -20q-8 0 -32.5 12.5t-28.5 12.5q-78 0 -78 -135q0 -81 4 -109q40 20 134 55q105 38 131 38q32 0 32 -31z" />
    <glyph glyph-name="F" unicode="F" horiz-adv-x="426" 
d="M415 676q0 -50 -118 -88q-96 -32 -163 -32q20 -84 14 -170q46 14 142 42q33 0 34 -34q1 -18 -11 -32t-31 -14q-1 0 -49 12q-52 -7 -85 -20q0 -151 -13 -260q-26 -203 -92 -203q-19 0 -32.5 20t-13.5 40q0 11 32 79q37 77 41 88q16 46 20 112q1 3 5 113q-10 -1 -33 -9
t-36 -8q-17 0 -17 26q0 13 35 23q25 7 51 14v48q0 66 -15 127l-28 -3q-34 0 -34 24q0 23 51 25l-9 26q-1 12 7 17t19 2q20 -1 37 -34q29 6 147 52q110 44 122 44q23 0 23 -27z" />
    <glyph glyph-name="G" unicode="G" horiz-adv-x="488" 
d="M391 122v-44q0 -21 12.5 -60t12.5 -60l-33 -16q-33 25 -42 77q-4 46 -8 91q-302 -122 -312 -122q-8 0 -13 12t-5 19q0 32 15 103t15 108q0 63 -3.5 188.5t-3.5 188.5q0 89 36 89q16 0 108.5 -47.5t132.5 -47.5q21 0 21 10q0 3 -2.5 12t-2.5 15q0 30 35 30q15 0 26.5 -18
t11.5 -35q0 -25 -24.5 -42t-50.5 -17q-77 0 -204 60q-30 -5 -30 -28q0 -54 9.5 -161.5t9.5 -161.5q0 -25 -4 -73t-4 -72q0 -30 33 -30q80 32 203 71l-3 134l-20 -20q-13 -12 -25 -12l-20 17q1 21 77 95.5t97 75.5l14 -18q0 -32 -29 -56.5t-29 -45.5v-156q20 -4 39 -8
q27 -8 27 -23q0 -25 -37 -25q-13 0 -30 3z" />
    <glyph glyph-name="H" unicode="H" horiz-adv-x="522" 
d="M421 401q8 -67 16 -133q10 -80 10 -134q0 -29 -11 -55q-15 -32 -40 -32q-44 0 -44 81q0 35 12 110q12 71 11 110l-1 33q-106 -47 -237 -138l-1 -48q-1 -33 5.5 -96t6.5 -92q0 -19 -16 -44q-17 -28 -34 -28q-41 0 -41 85q0 31 19 193l-41 -16q-14 0 -26 8.5t-12 22.5
q0 22 29 37l50 20l-2 206q-2 141 34 141q33 0 33 -118q0 -40 -5 -113q-4 -65 -3 -77l1 -17q163 66 234 130q-5 104 -5 195q0 64 27 64q33 0 33 -118q0 -30 -2.5 -74.5t-2.5 -47.5q45 37 78 37q18 0 18 -29q0 -37 -93 -63z" />
    <glyph glyph-name="I" unicode="I" horiz-adv-x="285" 
d="M254 678q0 -37 -103 -73q23 -197 23 -345q0 -98 -9 -182q44 14 58 14q24 0 24 -25l-12 -26q-41 -11 -117 -45.5t-94 -38.5q-2 -1 -11 -1q-20 0 -20 30q0 14 52 43q41 23 68 33q3 75 3 158q0 222 -21 361q-51 -19 -64 -19q-25 0 -25 26q0 20 24 30q84 21 194 88q5 2 8 2
q8 0 15 -10.5t7 -19.5z" />
    <glyph glyph-name="J" unicode="J" horiz-adv-x="337" 
d="M308 702q-1 -21 -30 -45q-23 -17 -46 -35v-23q-1 -97 17 -281q19 -190 19 -280q0 -76 -56 -150q-60 -79 -133 -79q-29 0 -47.5 17.5t-18.5 46.5q0 41 30 41q38 0 45 -60q101 1 101 287q0 285 -17 443q-82 -54 -118 -54l-36 10q-4 6 -4 13q0 21 43 37q28 11 122 77
q88 62 103 63z" />
    <glyph glyph-name="K" unicode="K" horiz-adv-x="506" 
d="M529 -107l-22 -9q-75 109 -149 218q-109 167 -104 214l-43 -38l-6 29q122 123 140 283q-1 27 6 79q4 15 31 36t42 21q19 0 19 -33q0 -160 -160 -358q91 -112 144 -209q46 -84 102 -233zM157 555q1 -17 11 -93q7 -58 7 -92v-100q0 -61 -28 -158q-33 -120 -75 -120
q-31 0 -31 37q0 26 17 64q23 50 26 62q35 124 35 279q0 56 -14 98q-21 -12 -42 -25q-26 -16 -45 -16q-22 0 -22 23q0 25 43 39q52 16 60 27q-1 5 -8 21q-5 12 -5 21q0 34 17 34q4 0 22 -5l18 -37q72 61 81 61q22 0 22 -25q0 -48 -89 -95z" />
    <glyph glyph-name="L" unicode="L" horiz-adv-x="535" 
d="M501 39q0 -9 -4 -14t-11 -3q-79 37 -192 37q-60 0 -133 -35q-67 -33 -115 -79q-7 -2 -13 -2q-26 0 -22 29q36 42 62 109t26 118q13 133 0 334q-2 32 -16 74l-65 -28q-3 -1 -6 -1q-17 0 -17 27q0 22 16 30q86 37 95 42q50 24 92 50q5 3 9 3q17 0 17 -36q0 -38 -75 -69
q24 -211 24 -295v-113q0 -20 -5.5 -60.5t-5.5 -60.5q84 23 146 23q38 0 88 -7q-5 11 -6 23q0 8 1.5 21.5t1.5 18.5q0 44 14 95q20 68 51 68q11 0 21.5 -7.5t10.5 -18.5q0 -14 -20.5 -38t-20.5 -64q0 -84 52 -171z" />
    <glyph glyph-name="M" unicode="M" horiz-adv-x="603" 
d="M550 65q0 -68 -42 -68q-67 0 -67 166q0 83 23.5 236t23.5 210q0 25 -10 30q-60 -76 -91 -151q-20 -51 -39 -140q-22 -110 -38 -163l-25 -13l-14 13q9 78 -56 216q-61 130 -125 190q12 -73 23 -145q13 -88 13 -145q0 -400 -92 -400q-23 0 -38.5 18.5t-15.5 41.5
q0 12 19 58q21 52 24 63q42 175 42 311q0 43 -22 125t-22 123q0 15 12.5 29t27.5 14q45 0 123 -118q52 -81 103 -162q48 94 97 187q77 134 134 134q26 0 22 -35q-25 -201 -25 -346q0 -47 17.5 -139.5t17.5 -139.5z" />
    <glyph glyph-name="N" unicode="N" horiz-adv-x="526" 
d="M508 -109q2 -20 -9.5 -33.5t-26.5 -13.5q-87 41 -115 211q-14 85 -14 260q0 47 12 146q12 95 11 143l-104 -88q-67 -51 -121 -53l9 -382q1 -40 -27 -70q-24 -26 -48 -26t-31 30q-3 13 -3 54q0 111 54 389q-10 1 -22 12.5t-12 23.5t14 20q8 0 19 2l1 23q1 23 -12 61
q-15 -8 -29.5 -43t-32.5 -39q-16 7 -17 28q14 41 37 88q33 67 54 67q24 0 35 -80q8 -59 5 -99l19 2q37 0 96 47q32 26 95 88q48 48 57 49q5 3 11 3q11 0 17.5 -10t3.5 -23q-28 -128 -28 -218q0 -241 65 -476q18 -45 37 -93z" />
    <glyph glyph-name="O" unicode="O" horiz-adv-x="460" 
d="M414 111q0 -28 -77 -40q-51 -7 -102 -13q-25 -5 -106 -46q-77 -39 -86 -39q-42 0 -42 82q0 50 16.5 167.5t16.5 167.5q0 29 -24 187q-2 12 12.5 25.5t25.5 13.5q17 0 19 -3t2 -21q113 44 286 105q12 3 13 3q26 0 26 -42q0 -47 -14 -139.5t-14 -138.5q0 -39 24 -134.5
t24 -134.5zM338 155q0 27 -12 110q-12 80 -11 112l4 123q1 13 5 40t4 40q0 36 -17 36q-7 0 -31 -10q-39 -15 -100 -29q-94 -21 -101 -23v-27q0 -37 7.5 -110t7.5 -109q0 -26 -3.5 -98t-3.5 -98q0 -40 27 -40q32 0 118 23q106 29 106 60z" />
    <glyph glyph-name="P" unicode="P" horiz-adv-x="483" 
d="M428 238q-1 -24 -20.5 -28t-39.5 -6q-69 -9 -148 -46q-60 -29 -91 -54q-2 -48 -1 -67l8 -184q1 -24 -21 -51t-46 -26q-21 1 -34 24t-13 47q0 7 1 12q13 53 26 107q17 74 14 106l-60 -36q-26 1 -26 26q0 18 20 41q80 33 75 49q14 133 12 323q-6 -1 -17 -3.5t-19 -2.5
q-35 2 -38 22q-4 22 38 36q25 9 36 10q-2 60 26 58q11 1 19 -11.5t14 -23.5q46 22 110 65q53 37 105 74q28 -2 31 -37q4 -46 6 -158q2 -102 10 -159q1 -13 14 -53q10 -32 9 -54zM358 271q-12 122 -16 164q-7 93 -8 166q-123 -73 -189 -106q-1 -12 -8 -160q-5 -123 -5 -164
q66 54 226 100z" />
    <glyph glyph-name="Q" unicode="Q" horiz-adv-x="464" 
d="M414 22q-1 -17 -111 -114q-27 -5 -45 31q-12 23 -25 76q-12 49 -17 57l-179 -74q-9 -4 -15 -4q-18 0 -18 41q0 24 19 107.5t19 128.5q0 76 -28 279q-3 23 14 33q16 7 33 14q9 -3 28 -3q62 0 140 37q66 31 133 63q11 6 19 6q21 0 19 -41q-5 -72 -5 -217v-99q0 -68 24 -181
q2 -15 -10 -30t-24 -15q-35 -9 -112 -30l38 -88q4 -4 10 -4q10 0 38.5 20t45.5 22zM355 194q-12 70 -19 191t-4 199q-1 21 -15 21q-6 0 -17 -3q-156 -76 -220 -69v-16q0 -34 11 -103t11 -104q0 -84 -11 -203q-2 -20 17 -20q5 0 11 3q27 11 80 35q-1 10 -11.5 40t-10.5 36
q0 17 28 17q13 0 30 -32q10 -24 20 -47q101 26 100 55z" />
    <glyph glyph-name="R" unicode="R" horiz-adv-x="506" 
d="M478 -40q0 -28 -31 -28q-67 0 -123 191q-40 136 -51 258l-5 9q-80 -25 -136 -48l1 -34v-63q0 -279 -73 -279q-14 0 -25 12t-8 27l28 166q21 128 17 156l-60 -26q-13 -3 -22 6t-9 21q0 17 16 23q28 16 77 32q11 108 -13 177l-45 -8q-20 0 -20 29q0 15 8 13q6 5 23 8.5
t22 9.5q-12 15 -12 30q0 39 31 39q10 0 21 -7q4 -12 16 -43q47 1 240 125q8 2 15 2q41 0 41 -46q0 -60 27 -155.5t27 -85.5q0 -24 -34 -37q-9 -4 -63 -15q-35 -8 -35 -19q0 -54 40 -164q25 -68 75 -180q40 -90 40 -96zM387 510q-22 70 -37 156q-2 17 -29 17q-11 0 -16 -4
q-50 -38 -98 -60q-25 -12 -96 -37q20 -117 18 -187q73 23 223 73q40 13 35 42z" />
    <glyph glyph-name="S" unicode="S" horiz-adv-x="452" 
d="M430 689q0 -58 -134 -120q-60 -27 -189 -69q-11 -90 -11 -134q-1 -13 7.5 -20.5t22.5 -4.5q15 3 170 50q5 2 42 19.5t39 17.5q31 -10 31 -44q0 -17 -6 -33l-20 -3q9 -70 25 -214q1 -6 1 -11q0 -32 -36 -38q-216 -9 -302 -107q-3 -4 -33 -58q-22 -41 -39 -41
q-18 0 -35.5 17.5t-17.5 35.5q0 104 395 217l-8 189q-41 0 -146 -37q-52 -19 -105 -37q-50 -2 -50 29q0 38 8 101q11 74 13 101q-24 7 -24 21q0 21 5.5 31.5t25.5 26.5l27 -5q17 -6 26 -6q62 0 126 39q32 20 95 74q48 41 67 43q30 -13 30 -30z" />
    <glyph glyph-name="T" unicode="T" horiz-adv-x="464" 
d="M453 683q0 -20 -76 -59q-66 -34 -100 -42l-1 -100l34 -352q0 -155 -62 -157q-34 -1 -42 44q-2 11 -2 59l26 361q0 9 -4 128q-17 -2 -47 -14q-79 -29 -119 -29q-64 0 -64 41q0 16 14 29t27 13q5 0 53.5 -5.5t52.5 -5.5q17 0 69 12q1 10 4 24q1 11 9.5 22t21.5 11
q11 0 24 -11q3 -2 3 -11.5t5 -9.5q-1 0 24 10q37 14 80 44q37 26 42 26q28 0 28 -28z" />
    <glyph glyph-name="U" unicode="U" horiz-adv-x="550" 
d="M549 192q0 -15 -76.5 -98.5t-93.5 -83.5q-18 0 -27 77q-10 88 -12 93q-80 -56 -159 -113q-131 -91 -146 -91q-9 0 -17.5 7.5t-8.5 17.5q0 24 9 66l14 66q44 225 44 385q0 15 -10 29q-7 -5 -32.5 -36t-29.5 -31q-12 0 -12 17q0 25 40 76.5t66 64.5q28 -8 28 -161
q0 -59 -3 -177t-3 -176q0 -15 13 -23q105 38 208 135l-3 64v305q0 32 10 61q13 40 39 40q14 0 29.5 -20.5t15.5 -34.5v-102q0 -65 -15.5 -196.5t-15.5 -196.5q0 -21 22 -21q20 0 56 37.5t52 37.5q18 0 18 -18z" />
    <glyph glyph-name="V" unicode="V" horiz-adv-x="586" 
d="M579 658q0 -26 -14 -37q-7 -6 -28.5 -11t-29 -13.5t-64.5 -143.5q-55 -131 -63 -158q-54 -166 -54 -241q0 -57 -53 -57q-14 0 -41 19q-7 19 -5 50q2 41 1 51q-9 80 -82 249q-82 189 -132 189q-8 0 -16.5 6t-8.5 14q0 17 16 38t31 21q94 0 258 -477q45 180 91 308
q85 237 152 237q16 0 29 -14t13 -30z" />
    <glyph glyph-name="W" unicode="W" horiz-adv-x="771" 
d="M524 38l-26 3q-16 2 -23 21q-18 45 -55 181q-30 113 -66 180q-38 -69 -104 -215q23 -94 23 -132q0 -53 -3 -67q-9 -39 -43 -39q-62 0 -62 69q0 17 7 50t7 50q0 42 -17 100q-30 98 -47 146q-30 83 -62 138q-12 20 -17 19q-28 -5 -21 -5q-10 0 -18 16t-8 27q0 17 10.5 29.5
t26.5 12.5q55 0 197 -332q17 39 99 201l-38 80q-4 8 9 16q10 6 19 7q25 -25 35 -42q5 5 17 31q8 18 26 18q17 0 26 -25l-34 -84l116 -235q34 120 91 247q83 184 143 184q30 0 30 -29q0 -3 -33 -45q-35 -46 -40 -54q-105 -178 -140 -370q-1 -10 -1 -21q0 -15 4.5 -40t4.5 -35
q0 -33 -33 -56z" />
    <glyph glyph-name="X" unicode="X" horiz-adv-x="509" 
d="M506 -9q0 -18 -30 -18q-91 0 -193 203q-18 35 -52 106q-17 -18 -36 -53q-15 -30 -31 -61q-64 -112 -154 -277q-27 -49 -56 -44q-25 5 -25 25q0 19 19 38l250 439q-14 49 -42 112q-38 82 -59 82q-3 0 -23.5 -20t-30.5 -20q-20 0 -23 1q-16 6 -14 28q2 26 34 62.5t55 36.5
q-1 0 10 2q8 1 13 -1q9 -3 16 -14q11 -15 37 -64q20 -43 65 -130q15 11 34 48q26 52 33 62q27 54 53 109q40 78 79 78q43 0 43 -40q0 -18 -17 -29q-26 -16 -34 -27q-43 -53 -102 -164q-52 -99 -52 -110q0 -7 46 -91q49 -87 75 -123q35 -34 98 -105q14 -19 14 -41z" />
    <glyph glyph-name="Y" unicode="Y" horiz-adv-x="430" 
d="M526 660q0 -44 -43 -44q-27 0 -29.5 25.5t-11.5 25.5q-7 0 -23.5 -15.5t-24.5 -30.5q-41 -75 -61 -169q-18 -62 -44 -186q-3 -25 -3 -106q0 -4 12.5 -79t12.5 -80q0 -30 -10 -58q-14 -46 -46 -46q-51 0 -51 89q0 21 3 47.5t3 24.5q0 5 3.5 30.5t3.5 32.5v69q-3 41 -10 76
q-16 76 -49 150q-35 78 -73 120l-17 9q-2 -2 -14 -29q-8 -17 -24 -15q-24 3 -24 13q0 2 1.5 10t1.5 15q0 13 37 72q39 63 56 63q22 0 22 -25q0 -9 -3 -24t-2 -17q0 -15 9 -43q30 -44 77 -137q13 -31 52 -103v3q35 159 59 225q64 175 149 175q30 0 47 -22q14 -19 14 -46z" />
    <glyph glyph-name="Z" unicode="Z" horiz-adv-x="639" 
d="M608 695q0 -3 -67 -86q-80 -100 -105 -133q-29 -35 -92 -119q-57 -85 -185 -270q-19 -22 -15 -22q111 13 388 96q11 4 20 4q21 0 36 -19q12 -16 12 -34q0 -58 -96 -58q-4 0 -19 2t-21 2q-105 0 -199 -26q-59 -17 -129 -50q-57 -27 -69 -27q-2 0 -17.5 -9t-25.5 -9
q-12 0 -20 12q-16 21 -16 26q0 2 8 15q73 96 216 289q60 81 120 163q78 105 112 165q-22 -3 -138 -32q-98 -24 -163 -24q-77 0 -77 39q0 15 18.5 36.5t31.5 21.5q5 0 71 -6t71 -6q70 0 138 21l84 32q66 26 93 26q35 0 35 -20z" />
    <glyph glyph-name="bracketleft" unicode="[" horiz-adv-x="601" 
d="M493 422l-4 -368q8 -19 19 -19q10 0 13 19l5 427l-6 22q-15 10 -24 7l-2 -5l-6 -12q-14 -34 -75 -179l-58 -138q-8 92 -29 275q-2 15 -17 17q-11 0 -31 -51q-21 -58 -66 -181q-38 128 -42.5 128t-13.5 16q-21 1 -18 -15q-13 -23 -36 -63q-14 -19 -41 -57q-9 -9 -9 -21
q0 -6 2 -13h19q13 0 77 110l49 -146q4 -14 13 -14q10 0 11 12l52 141q9 25 27 76q3 -37 10 -110q6 -53 18 -196q3 -11 12 -11q5 0 7 7z" />
    <glyph glyph-name="backslash" unicode="\" horiz-adv-x="497" 
d="M224 298q-39 1 -77 7q20 -15 46 -49q21 -29 42 -59q-8 52 -11 101zM262 445q-12 -47 -11 -116q49 0 136 11q19 3 19 -18q0 -18 -15 -13q-82 -12 -139 -12q4 -66 18 -160q4 -18 7 -35q2 -9 -2 -20q-18 7 -19 12q-5 19 -7 22q-58 112 -159 195q-23 19 -23 28q0 7 12 7
q5 0 12 -1q73 -15 131 -16q-3 77 9 123q11 11 17 11q8 0 14 -18z" />
    <glyph glyph-name="bracketright" unicode="]" horiz-adv-x="601" 
d="M107 422l4 -368q-9 -19 -19 -19t-13 19l-5 427l6 22q15 10 24 7l2 -5l6 -12q14 -34 75 -179l58 -138q7 92 29 275q2 15 16 17q12 0 32 -51q21 -58 66 -181q38 128 42 128t14 16q20 1 18 -15q13 -23 36 -63q14 -19 41 -57q9 -9 9 -21q0 -6 -2 -13h-19q-13 0 -77 110
l-49 -146q-5 -14 -13 -14q-11 0 -12 12q1 0 -51 141q-9 25 -27 76q-3 -37 -11 -110q-5 -53 -17 -196q-3 -11 -12 -11q-5 0 -7 7z" />
    <glyph glyph-name="asciicircum" unicode="^" horiz-adv-x="347" 
d="M154 827q-18 -5 -109 -70q-6 -7 -6 -16q0 -19 20 -19q34 16 96 49q38 -19 105 -55q15 0 19.5 3t9.5 17q-38 35 -88 73l-21 13q-10 7 -12 8q-2 0 -14 -3z" />
    <glyph glyph-name="underscore" unicode="_" horiz-adv-x="484" 
d="M9 -132h465q10 0 10 -10v-23q0 -10 -10 -10h-465q-10 0 -10 10v23q0 10 10 10z" />
    <glyph glyph-name="grave" unicode="`" horiz-adv-x="305" 
d="M126 830l134 -111l-6 -14l-23 -6l-197 101l8 24l55 29z" />
    <glyph glyph-name="a" unicode="a" horiz-adv-x="389" 
d="M334 29q0 -39 -26 -39q-28 0 -36 37q-6 27 -11 55l-222 -77q-27 8 -27 63q-10 84 -10 155q0 38 3 69q-3 102 13.5 125t36.5 23q5 0 9 -1q8 -4 87 -47q73 -40 108 -51q0 10 -1 26.5t-1 20.5q0 27 30 27q12 0 33 -21q-9 -129 -4 -235q2 -39 10 -89t8 -41zM255 139v131
q-66 36 -182 95q-15 -46 -15 -108q0 -56 18 -184q110 37 179 66z" />
    <glyph glyph-name="b" unicode="b" horiz-adv-x="401" 
d="M265 129l-12 216q-98 -53 -158 -53q6 0 -20 -5v-94q0 -31 3 -70q28 -6 85 -30.5t84 -30.5q1 4 11 33q7 23 7 34zM326 223q0 -183 -21 -225q-24 -7 -34 -7q-32 0 -89 36t-89 37l-18 1q-2 -4 -4 -46q-2 -29 -22 -29q-35 0 -35 38q0 48 2.5 145t2.5 146q0 200 -3 235
q-1 9 -8.5 30.5t-7.5 31.5q0 18 18 37t37 19q21 0 40 -34q-20 -66 -20 -200v-99q53 3 210 76q31 0 39 -84q2 -22 2 -108z" />
    <glyph glyph-name="c" unicode="c" horiz-adv-x="304" 
d="M251 81q0 -32 -42 -32q-38 0 -96.5 -33.5t-81.5 -33.5q-14 0 -23.5 11.5t-9.5 25.5v315q0 21 77 41q91 24 103 33q4 3 16 23q10 15 22 15q8 0 16 -7t8 -14q0 -92 -34 -92q-5 0 -14 6t-15 6q-20 0 -42 -10q-21 -5 -69 -21v-242q0 -4 8 -4q24 0 75 19.5t75 19.5
q10 0 18.5 -8t8.5 -18z" />
    <glyph glyph-name="d" unicode="d" horiz-adv-x="386" 
d="M341 -53l-5 -25l-25 -7q-26 0 -49 76q-18 60 -20 101l-5 3q-24 -4 -102 -56q-74 -49 -101 -49q-19 0 -29 15t-8 33q10 89 11 167q2 79 -6 177q8 32 42 41l198 -81l2 229q-8 -10 -15 -19q-10 -12 -21 -12l-20 23q75 125 100 125q14 0 22.5 -10t7.5 -23q-16 -227 -16 -551
q0 -76 39 -157zM239 155v122l-173 79q5 -140 5 -160q0 -57 -5 -120l92 38q71 30 81 41z" />
    <glyph glyph-name="e" unicode="e" horiz-adv-x="266" 
d="M245 -231q0 -17 -11 -31t-28 -14q-13 0 -26 14t-13 27q0 10 16 43q-180 156 -180 248q0 50 32 85t82 46q-40 48 -54 70q-28 45 -28 82q0 38 35.5 74.5t73.5 36.5q25 0 41.5 -16t16.5 -39q0 -8 -7 -23q-8 -18 -15 -18q-2 1 -3 2q-22 28 -35 28q-7 0 -17.5 -4t-19 -24.5
t-8.5 -32.5q0 -35 44.5 -95.5t45.5 -75.5q-14 -21 -27 -21q-3 0 -12.5 1.5t-17.5 1.5q-25 0 -42.5 -22t-17.5 -48q0 -51 45 -104q42 -44 85 -89q45 -52 45 -102z" />
    <glyph glyph-name="f" unicode="f" horiz-adv-x="313" 
d="M268 583q0 -24 -12 -43q-13 -24 -35 -24q-17 0 -39 33q0 14 16 27q14 10 27 20q-2 9 -14.5 17.5t-20.5 8.5q-53 0 -48 -84q-3 -60 0 -180l41 40q18 19 35 37q14 6 23 6q17 0 17 -20q0 -11 -6 -26q-20 -24 -68 -73l-32 -34q7 -108 6 -206q0 -45 -6 -115q-4 -26 -7 -52
q0 -42 -30 -101q-33 -66 -68 -66q-10 0 -20 9t-10 24q0 10 5 21q42 84 58 155q15 67 15 165q0 -2 -4 45q-3 36 1 58q-17 -21 -33 -42q-26 -31 -34 -31q-23 0 -28 12q0 11 -1 21q92 96 92 124q0 5 -3 6q0 87 -1 230q0 48 23 85q29 47 85 45q32 -2 54 -30t22 -62z" />
    <glyph glyph-name="g" unicode="g" horiz-adv-x="395" 
d="M308 -185q0 -77 -45 -77q-10 0 -21 4q-200 41 -200 77q0 15 14.5 29.5t28.5 9.5q36 -12 71 -25q57 -20 66 -18q4 -1 8 -1q14 0 14 29l1 202l-190 -63q-30 5 -40 17.5t-10 55.5l1 336q0 22 12 36.5t34 10.5q29 -1 103 -29l82 -32q4 10 4 22q0 6 -3 32q-2 19 0 31
q5 18 8.5 22.5t22.5 13.5q7 4 23 -12t16 -24v-647zM238 95v233l-129 34q-23 2 -28 -13t-9 -31q1 -88 0 -136v-84q0 -41 27 -36q139 23 139 33z" />
    <glyph glyph-name="h" unicode="h" horiz-adv-x="403" 
d="M338 -100q0 -24 -23 -24q-34 0 -54 97q-14 69 -14 127q0 78 23 273l-17 17q-43 -30 -169 -73q-1 -93 -2 -185q-8 -148 -47 -148q-12 0 -20.5 16t-7.5 29q9 110 17 221q10 129 10 250q0 22 -9 66.5t-9 67.5q0 48 41 48q36 0 36 -184q0 -55 -3 -88l-3 -43l33 6q54 17 76 30
l64 47l44 32q9 0 14 -12t5 -22q0 -31 -8 -92.5t-8 -93.5q0 -195 17 -298q1 -8 8 -32q6 -19 6 -32z" />
    <glyph glyph-name="i" unicode="i" horiz-adv-x="182" 
d="M95 315q0 -157 -2 -195q-10 -160 -49 -160q-8 0 -23 9.5t-15 16.5q0 16 8 41q11 33 13 41q9 49 9 126q0 26 -2 79.5t-2 80.5q0 20 7 38q9 23 26 23q23 0 28 -41q2 -13 2 -59zM56 566q-33 2 -33 37q0 15 11 26t26 10q31 -1 32 -34q1 -16 -10 -28t-26 -11z" />
    <glyph glyph-name="j" unicode="j" horiz-adv-x="170" 
d="M94 627q0 -41 -39 -41q-31 0 -31 31q0 16 11 27.5t26 11.5q8 0 20.5 -10.5t12.5 -18.5zM-2 -198q-35 0 -35 20q0 6 2 15q46 92 56 144q7 37 7 168q0 15 -3 121q-1 77 1 117v22q5 18 32 18q18 0 22 -14q4 -9 4 -40v-263q0 -132 -11 -193q-18 -115 -75 -115z" />
    <glyph glyph-name="k" unicode="k" horiz-adv-x="383" 
d="M310 -145q-22 166 -122 337q-23 -13 -87 -62q0 -3 1.5 -26.5t1.5 -40.5q0 -94 -41 -94q-36 0 -36 34q0 57 13 193t13 196q0 100 -2 121q-7 98 -36 94l-14 10q-1 5 -1 10q0 20 16 34.5t33 14.5q24 0 40 -79q10 -51 13 -102q-1 3 -1 -293l7 -6q66 30 94 109q19 71 38 143
q3 21 21 21q24 0 24 -25q0 -5 -2 -11q1 -85 -63 -208q80 -125 90 -144q49 -91 65 -194q3 -18 -8.5 -33t-27.5 -15t-29 16z" />
    <glyph glyph-name="l" unicode="l" horiz-adv-x="182" 
d="M94 85q4 -102 -35 -102q-4 0 -8 2q-28 7 -33 26q-4 15 -3 92l7 471q1 21 -10 51q-17 2 -17 10q0 23 7 32q11 13 39 13q44 0 44 -67q0 -11 -4.5 -33t-3.5 -32z" />
    <glyph glyph-name="m" unicode="m" horiz-adv-x="585" 
d="M556 -159q0 -24 -28 -24q-88 0 -88 183q0 37 4 94.5t4 69.5l-6 162q-66 -59 -135 -96q2 -35 4 -106l-2 -101q0 -31 -35 -36q-12 3 -23 5q-6 4 -12 31q17 164 17 244q0 8 1 26q1 13 0 25q2 18 -9 18q-4 0 -10 -4q-43 -32 -135 -98q-1 -15 -1 -41l4 -111q4 -93 -45 -93
q-33 0 -33 57q0 34 11.5 101t11.5 120q0 33 -4 70l-38 -5q-11 4 -11 16q0 9 12 18q48 38 63 38q17 0 20 -45q4 -56 8 -63q23 9 95 66q65 53 79 53q32 0 32 -69v-61q48 34 133 107q2 3 7 36q4 25 25 24q52 -2 52 -23q0 -7 -10 -29.5t-9 -34.5l-1 -313q0 -48 26 -124t26 -87z
" />
    <glyph glyph-name="n" unicode="n" horiz-adv-x="392" 
d="M362 -46q2 -26 -10 -34q-7 -5 -28 -5q-20 0 -45 50q-22 43 -25 69q-8 63 -8 281q-38 -25 -76 -49q-45 -28 -81 -39q0 -30 8 -88.5t8 -87.5q0 -56 -36 -56q-23 0 -33 38q-8 27 -6 57l15 237q-3 1 -8 -3t-8 -4q-18 0 -18 26q0 22 21 47.5t43 25.5q18 0 18 -57
q0 -18 -2 -44.5t-2 -29.5t10 -3q36 0 93 49q43 37 77 81q13 8 19 8q11 0 13 -30q8 -20 8 -85q0 -44 -4 -114t-4 -71q0 -50 30 -102t31 -67z" />
    <glyph glyph-name="o" unicode="o" horiz-adv-x="354" 
d="M50 -7q-51 0 -51 164q0 25 1 58t1 38v38q4 22 20 37q22 19 95 55q77 37 103 38q41 2 53 -40q5 -19 5 -73v-198q-3 -38 -54 -62q-21 -10 -87 -31q-70 -24 -86 -24zM225 317q0 35 -23 35q-5 0 -12 -2q-128 -52 -128 -75q0 -2 -1 -29v-48q0 -136 28 -136q25 0 78 24
q58 26 58 46v185z" />
    <glyph glyph-name="p" unicode="p" horiz-adv-x="409" 
d="M319 40q0 -30 -33 -30q-5 0 -86.5 20.5t-86.5 20.5l-17 1l-11 -157q0 -32 -13 -69q-16 -48 -45 -48q-22 0 -27 11q-4 18 -7 35l48 228q-11 1 -32 3q-12 2 -15.5 -3t-4.5 -4q-14 14 -14 28q0 13 13 24t31 11q14 0 29 -7l-2 149q0 -1 -7 -1t-9 18q-5 7 -5 12q0 7 12 10.5
l12 3.5q-1 -6 -1 37q0 28 -4 77l-2 64q-6 40 -37 54q-2 13 23 35.5t41 24.5q25 4 31 -45q-4 -19 -3 -49q0 -38 -1 -49v-129q49 18 161 60q11 4 19 4q26 0 32 -42q15 -89 15 -110v-117q0 -4 -2 -35t-2 -36zM263 123q0 178 1 96q-1 91 -14 97q-31 -8 -76 -26q-68 -26 -78 -29
q10 -75 4 -157l55 -11q32 -10 99 -27q9 36 9 57z" />
    <glyph glyph-name="q" unicode="q" horiz-adv-x="386" 
d="M340 -147q0 -12 -23 -54.5t-34 -42.5q-40 0 -40 46q0 338 2 491q-39 10 -133 36l-24 12q-21 0 -21 -26q0 -244 16 -245q14 -1 58 23t63 24q16 0 16 -22q0 -5 -1 -10q-5 -18 -85 -51q-76 -31 -100 -31t-24 30v346q0 41 36 41q-5 0 67.5 -33.5t135.5 -40.5v36q2 22 27 22
q9 0 19.5 -7t10.5 -15l-1 -507q0 -7 8 -14l12 14h12z" />
    <glyph glyph-name="r" unicode="r" horiz-adv-x="322" 
d="M261 373q0 -28 -31 -30q-16 7 -27 7q-25 0 -63 -23q-41 -25 -41 -47v-162q0 -23 4 -67.5t4 -66.5q0 -136 -42 -136q-39 0 -39 75q0 53 10 161t10 162q0 44 -10 70q-5 13 -19 29q-10 13 -10 25q0 9 23 29.5t31 20.5q13 0 24 -26q16 -35 17 -36q26 0 59.5 32.5t49.5 32.5
q19 0 34.5 -15t15.5 -35z" />
    <glyph glyph-name="s" unicode="s" horiz-adv-x="345" 
d="M275 477q0 -36 -44 -64q-22 -14 -91 -41q-56 -23 -71 -40q-5 -5 -5 -47q0 -57 18 -57q25 0 68.5 24.5t62.5 24.5q41 0 41 -46q0 -8 -1 -22.5t-1 -20.5q0 -22 5 -64t5 -63q0 -12 -14.5 -24.5t-27.5 -13.5q-62 -4 -127.5 -40t-68.5 -36q-29 0 -29 27q0 25 71 61
q59 30 99 39q33 7 34 38l1 66q0 36 -15 36q-4 0 -58.5 -24t-67.5 -24q-43 0 -43 67q0 9 1 24v21q0 56 1 61q4 39 28 48q67 26 101 45q42 24 91 66q6 6 18 6q19 0 19 -27z" />
    <glyph glyph-name="t" unicode="t" horiz-adv-x="219" 
d="M177 501q0 -26 -73 -75l23 -276q3 -37 -6 -93q-13 -71 -38 -71q-27 0 -33 77q-2 24 2 61q6 49 6 68l8 210q-46 -32 -46.5 -32t-4 -1.5t-6.5 -0.5t-6 7q-8 13 2 24q0 11 56 47q-11 96 -11 125q0 37 26 37q23 0 23 -42q0 -10 -1.5 -25.5t-1.5 -18.5q0 -36 6 -51
q17 17 50 45q8 14 17 0q8 -5 8 -15z" />
    <glyph glyph-name="u" unicode="u" horiz-adv-x="357" 
d="M329 143q0 -15 -67 -38q22 -67 22 -75q0 -16 -5 -20q-13 -11 -20 -1q-23 33 -23 34q-12 20 -15 42q-18 -10 -73 -51q-27 -25 -55 -50q-50 -46 -61 -46q-28 0 -28 65q0 5 5 73.5t5 73.5l-12 220q6 16 28 16q28 0 39 -151q2 -34 2 -59v-123q-3 -3 6 -3q5 0 62 34
q62 36 73 51q0 1 -3 46q-3 51 -3 89q0 157 50 157q25 0 28 -37l-26 -166q-6 -38 -1 -70q30 14 41 14t21 -8t10 -17z" />
    <glyph glyph-name="v" unicode="v" horiz-adv-x="450" 
d="M409 323q0 -27 -24.5 -58t-46.5 -31q-23 0 -36 15t-13 33q0 47 61 42q2 1 6 6v10q0 9 -10 15t-19 6q-28 0 -49 -44q-5 -10 -20 -56q-42 -127 -52 -238q-3 -26 -18 -35q-15 0 -21 8q-33 104 -66 179q-14 34 -55.5 108t-47.5 87q-2 4 -2 9q0 31 50 31q13 0 21 -21l8 -26
q32 -74 97 -222q1 1 4 6q31 116 38 136q50 130 113 130q36 0 59 -28t23 -62z" />
    <glyph glyph-name="w" unicode="w" horiz-adv-x="614" 
d="M600 437q0 -13 -10 -22t-20 -16q-55 -46 -106 -191q-11 -60 -21 -120q-20 -95 -49 -97q-25 -1 -75 141.5t-71 140.5q-45 -88 -55 -160q-16 -115 -22 -137l-24 -9q-20 8 -24 35q-1 5 -1 45q0 73 -32 149q-18 41 -60 109q-32 52 -32 68t6 21t22 5q29 0 76 -101
q39 -84 50 -131l40 108q31 74 68 74q15 0 69 -87l64 -110q27 91 69 182q63 139 106 139q32 0 32 -36z" />
    <glyph glyph-name="x" unicode="x" horiz-adv-x="354" 
d="M335 -41q2 -3 2 -7q0 -9 -11 -18.5t-23 -9.5q-19 0 -48 49q-16 30 -33 60q-29 45 -83 126q-41 -46 -55 -86.5t-19 -49.5q-17 -32 -42 -32q-20 0 -27 12q-2 34 9 54q13 26 49 77q39 57 50 76l-78 138q-5 7 -5 15q0 11 8 20t18 9q12 0 20 -12q25 -40 73 -113l60 90
q41 60 70 60q7 0 15.5 -8.5t8.5 -15.5q0 -16 -27 -52l-42 -54q-14 -18 -29 -35q-18 -23 -21 -38q82 -157 160 -255z" />
    <glyph glyph-name="y" unicode="y" horiz-adv-x="348" 
d="M331 -83q0 -11 -37 -50.5t-50 -39.5q-24 0 -29 50v68q0 142 3 176q-4 -3 -85 -68q-65 -52 -83 -52q-32 0 -32 41q0 18 4 57t3 59l-3 159q0 10 -9 31t-9 32q0 38 26 38q52 1 52 -134q0 -36 -4 -87.5t-4 -54.5q0 -47 18 -47q8 0 123 78q-5 46 -5 98q0 138 40 138
q10 0 19 -7t9 -16q-11 -363 -11 -370q0 -88 21 -88l27 11q16 -9 16 -22z" />
    <glyph glyph-name="z" unicode="z" horiz-adv-x="430" 
d="M359 96q0 -33 -31 -42q-36 -11 -153 -43q-132 -36 -143 -36q-31 0 -31 26q0 8 4 18q10 27 173 247q33 34 66 73q-1 1 8 16t7 15q-24 0 -82.5 -25t-82.5 -25q-22 0 -30 4q-13 6 -13 27q0 16 23 27q7 3 120.5 32t121.5 29q43 0 43 -23q0 -32 -11 -46q-64 -76 -127 -152
q-101 -122 -101 -152q0 -5 9 -5q17 0 91.5 29t105.5 29q33 0 33 -23z" />
    <glyph glyph-name="braceleft" unicode="{" horiz-adv-x="620" 
d="M366 283q66 2 110 10q-71 92 -110 141v-151zM537 236q2 -16 2 -24q-8 -8 -14 -16l-37 -29q-33 -27 -98 -107q-53 -66 -66 -66q-5 0 -7 5l1 237q-188 -9 -288 16q-14 9 -14 24q0 14 14 24q121 -20 288 -18v213q-2 6 -2 11q0 19 19 19q17 0 30 -14q32 -36 197 -252
q-99 -13 -196 -20v-126l34 50q4 6 41.5 34.5t46.5 33.5q27 13 40 13q10 0 9 -8z" />
    <glyph glyph-name="bar" unicode="|" horiz-adv-x="605" 
d="M529 361q-23 -21 -122 -101q18 -45 66 -139l30 -58l12 -24q1 -4 1 -7q0 -21 -23 -21q-6 0 -12 4q-107 110 -171 168q-117 -92 -124 -92q-16 0 -16 10q0 19 45 59q31 26 63 52q-35 31 -70 59q-42 -98 -81 -156l-1 -2q-5 -7 -7 -7q-3 0 -18 6l-3 22q41 65 83 159
q-75 59 -127 93l-7 5q-15 10 -17 18q14 11 32 10q44 -1 167 -9q28 74 85 215q16 -119 44 -222q88 -3 155 -1l22 -19zM369 365q10 -32 22 -64q25 23 81 67zM297 496q-15 -37 -35 -88q31 -2 57 -3q-12 43 -22 91zM329 368l-81 5q-13 -36 -23 -59q42 -33 87 -74q23 18 48 38
q-17 45 -31 90zM376 236l-32 -26q32 -31 79 -78q-28 58 -47 104zM112 385q32 -20 84 -56q4 10 19 46z" />
    <glyph glyph-name="braceright" unicode="}" horiz-adv-x="620" 
d="M211 283q-66 2 -109 10q70 92 109 141v-151zM41 236q-2 -16 -2 -24q8 -8 14 -16l36 -29q33 -27 98 -107q54 -66 67 -66q4 0 7 5l-1 237q188 -9 288 16q14 9 14 24q0 14 -14 24q-122 -20 -289 -18l1 213q2 6 2 11q0 19 -19 19q-18 0 -31 -14q-32 -36 -196 -252
q99 -13 196 -20v-126l-34 50q-4 6 -41.5 34.5t-47.5 33.5q-27 13 -39 13q-10 0 -9 -8z" />
    <glyph glyph-name="asciitilde" unicode="~" horiz-adv-x="337" 
d="M37 745q46 57 90 57q11 0 39 -16t52 -16q26 0 37 27q2 1 22 1q4 0 11 -4.5t7 -7.5q0 -9 -25 -31t-36 -27q-17 -9 -39 -3q-20 4 -40 9q-23 7 -36 17q-25 0 -31 -4q-2 -1 -20 -25q-29 5 -31 23z" />
    <glyph glyph-name="Adieresis" unicode="&#xc4;" horiz-adv-x="577" 
d="M546 26q0 -14 -9.5 -25.5t-23.5 -11.5q-34 0 -49 35q-9 21 -15.5 71.5t-13.5 65.5q-6 11 -27 27q-16 12 -32 23q-19 15 -63 37q-47 24 -65 24l-3 -1q-1 -97 -37 -192q-47 -125 -125 -125q-37 0 -66 23t-29 59q0 29 21 48t50 19q41 0 41 -32q0 -19 -35 -40q1 -23 11 -23
q53 0 82 54q21 40 29 115l8 108q-43 12 -80 39q-46 35 -46 72q0 22 16.5 44.5t37.5 22.5q10 0 20 -10t10 -20q0 -8 -7 -23.5t-7 -23.5q0 -34 55 -51q3 20 3 64q0 30 -2.5 89t-2.5 89q0 41 22 51q10 4 58 4q34 0 89.5 29.5t75.5 29.5q32 0 32 -46q0 -15 -2.5 -43.5
t-2.5 -42.5q0 -147 24 -293q4 -27 33 -122q25 -80 25 -118zM423 260v40q0 34 -8.5 102.5t-8.5 102.5q0 14 1 41t1 40q0 17 -5 29q-55 -42 -156 -50q5 -49 5 -124q0 -70 -5 -115q60 -16 176 -66zM210 764q0 16 12 27t28 11q17 0 29 -11t12 -27q0 -15 -12 -26.5t-29 -11.5
q-16 0 -28 11.5t-12 26.5zM352 762q0 16 11.5 27t27.5 11q17 0 28.5 -11t11.5 -27t-11.5 -27t-28.5 -11q-16 0 -27.5 11t-11.5 27z" />
    <glyph glyph-name="Aring" unicode="&#xc5;" horiz-adv-x="577" 
d="M546 26q0 -14 -9.5 -25.5t-23.5 -11.5q-34 0 -49 35q-9 21 -15.5 71.5t-13.5 65.5q-6 11 -27 27q-16 12 -32 23q-19 15 -63 37q-47 24 -65 24l-3 -1q-1 -97 -37 -192q-47 -125 -125 -125q-37 0 -66 23t-29 59q0 29 21 48t50 19q41 0 41 -32q0 -19 -35 -40q1 -23 11 -23
q53 0 82 54q21 40 29 115l8 108q-43 12 -80 39q-46 35 -46 72q0 22 16.5 44.5t37.5 22.5q10 0 20 -10t10 -20q0 -8 -7 -23.5t-7 -23.5q0 -34 55 -51q3 20 3 64q0 30 -2.5 89t-2.5 89q0 41 22 51q10 4 58 4q34 0 89.5 29.5t75.5 29.5q32 0 32 -46q0 -15 -2.5 -43.5
t-2.5 -42.5q0 -147 24 -293q4 -27 33 -122q25 -80 25 -118zM423 260v40q0 34 -8.5 102.5t-8.5 102.5q0 14 1 41t1 40q0 17 -5 29q-55 -42 -156 -50q5 -49 5 -124q0 -70 -5 -115q60 -16 176 -66zM313 814q24 0 40.5 -16.5t16.5 -40.5t-16.5 -40.5t-40.5 -16.5t-40.5 16.5
t-16.5 40.5t16.5 40.5t40.5 16.5zM313 789q-32 0 -32 -32t32 -32t32 32t-32 32z" />
    <glyph glyph-name="Ccedilla" unicode="&#xc7;" horiz-adv-x="504" 
d="M334 -97q0 -2 -8 -25t-10 -27t-27 -15t-33 -11q-64 0 -66 2t-15.5 9.5t-13.5 8.5q0 10 6 15q14 12 17 14h37l43 -1q3 25 3 30t-5.5 14.5t-11.5 11.5q-26 9 -38 9q-5 0 -43 -6q1 -2 0 0v0q-3 19 -3 37q0 3 21 41l12 24q-25 -9 -51 -19l-64 -30q-42 -18 -65 -18
q-24 0 -24 21q0 18 26.5 33.5t28.5 24.5q26 123 26 348q0 44 -7 132q-5 2 -12 1q-12 -2 -13 -2q-10 0 -19.5 8t-9.5 18t26 22l34 14q0 10 5 29q10 8 20 8q6 0 14.5 -7.5t13.5 -7.5q3 0 83.5 40.5t123.5 40.5q40 0 69.5 -29t29.5 -69q0 -30 -18.5 -52t-48.5 -22
q-17 0 -36.5 16t-19.5 33q0 19 15.5 30.5t34.5 12.5l6 5q-8 16 -20 16q-29 0 -111 -34q-74 -31 -108 -53q18 -241 18 -287v-117q0 -19 -8 -75q74 31 147 61q98 41 145 41q16 0 29 -11t13 -26q0 -26 -36 -43q-18 -8 -95 -20q-53 -7 -105 -22l8 -1q-34 -76 -29 -75q24 6 46 6
q18 -2 33 -12q7 -5 14 -11q26 -13 26 -49z" />
    <glyph glyph-name="Eacute" unicode="&#xc9;" horiz-adv-x="463" 
d="M441 159q0 -35 -63 -56q-18 -5 -130 -29q-81 -17 -107 -38q-10 -74 -51 -74q-30 0 -34 47l-45 -16q-21 0 -21 27q0 17 30 32q22 11 45 22q27 140 27 314q0 49 -6 125q-38 -3 -35 -3q-35 0 -35 29q0 -2 16 25q10 3 60 3q3 7 2 17l-2 17q0 21 33 21q15 0 22 -40
q17 5 129 53q103 43 112 43q10 0 20.5 -8t10.5 -18q0 -52 -111 -90q-45 -15 -158 -37l-4 -156q75 39 109 39q20 0 40.5 -12t20.5 -30q0 -10 -14 -30t-23 -20q-8 0 -32.5 12.5t-28.5 12.5q-78 0 -78 -135q0 -81 4 -109q40 20 134 55q105 38 131 38q32 0 32 -31zM261 810
l-133 -111l6 -14l23 -6l197 101l-8 24l-56 29z" />
    <glyph glyph-name="Ntilde" unicode="&#xd1;" horiz-adv-x="526" 
d="M508 -109q2 -20 -9.5 -33.5t-26.5 -13.5q-87 41 -115 211q-14 85 -14 260q0 47 12 146q12 95 11 143l-104 -88q-67 -51 -121 -53l9 -382q1 -40 -27 -70q-24 -26 -48 -26t-31 30q-3 13 -3 54q0 111 54 389q-10 1 -22 12.5t-12 23.5t14 20q8 0 19 2l1 23q1 23 -12 61
q-15 -8 -29.5 -43t-32.5 -39q-16 7 -17 28q14 41 37 88q33 67 54 67q24 0 35 -80q8 -59 5 -99l19 2q37 0 96 47q32 26 95 88q48 48 57 49q5 3 11 3q11 0 17.5 -10t3.5 -23q-28 -128 -28 -218q0 -241 65 -476q18 -45 37 -93zM107 746q46 57 90 57q11 0 39 -15.5t52 -15.5
q26 0 37 26q2 1 22 1q4 0 11 -4t7 -8q0 -8 -25 -30.5t-36 -27.5q-17 -9 -39 -3q-20 5 -40 9q-23 7 -36 17q-25 0 -31 -4q-2 -1 -20 -24q-29 4 -31 22z" />
    <glyph glyph-name="Odieresis" unicode="&#xd6;" horiz-adv-x="460" 
d="M414 111q0 -28 -77 -40q-51 -7 -102 -13q-25 -5 -106 -46q-77 -39 -86 -39q-42 0 -42 82q0 50 16.5 167.5t16.5 167.5q0 29 -24 187q-2 12 12.5 25.5t25.5 13.5q17 0 19 -3t2 -21q113 44 286 105q12 3 13 3q26 0 26 -42q0 -47 -14 -139.5t-14 -138.5q0 -39 24 -134.5
t24 -134.5zM338 155q0 27 -12 110q-12 80 -11 112l4 123q1 13 5 40t4 40q0 36 -17 36q-7 0 -31 -10q-39 -15 -100 -29q-94 -21 -101 -23v-27q0 -37 7.5 -110t7.5 -109q0 -26 -3.5 -98t-3.5 -98q0 -40 27 -40q32 0 118 23q106 29 106 60zM80 764q0 16 12 27t28 11
q17 0 29 -11t12 -27q0 -15 -12 -26.5t-29 -11.5q-16 0 -28 11.5t-12 26.5zM222 762q0 16 11.5 27t27.5 11q17 0 28.5 -11t11.5 -27t-11.5 -27t-28.5 -11q-16 0 -27.5 11t-11.5 27z" />
    <glyph glyph-name="Udieresis" unicode="&#xdc;" horiz-adv-x="550" 
d="M549 192q0 -15 -76.5 -98.5t-93.5 -83.5q-18 0 -27 77q-10 88 -12 93q-80 -56 -159 -113q-131 -91 -146 -91q-9 0 -17.5 7.5t-8.5 17.5q0 24 9 66l14 66q44 225 44 385q0 15 -10 29q-7 -5 -32.5 -36t-29.5 -31q-12 0 -12 17q0 25 40 76.5t66 64.5q28 -8 28 -161
q0 -59 -3 -177t-3 -176q0 -15 13 -23q105 38 208 135l-3 64v305q0 32 10 61q13 40 39 40q14 0 29.5 -20.5t15.5 -34.5v-102q0 -65 -15.5 -196.5t-15.5 -196.5q0 -21 22 -21q20 0 56 37.5t52 37.5q18 0 18 -18zM120 764q0 16 12 27t28 11q17 0 29 -11t12 -27q0 -15 -12 -26.5
t-29 -11.5q-16 0 -28 11.5t-12 26.5zM262 762q0 16 11.5 27t27.5 11q17 0 28.5 -11t11.5 -27t-11.5 -27t-28.5 -11q-16 0 -27.5 11t-11.5 27z" />
    <glyph glyph-name="aacute" unicode="&#xe1;" horiz-adv-x="389" 
d="M334 29q0 -39 -26 -39q-28 0 -36 37q-6 27 -11 55l-222 -77q-27 8 -27 63q-10 84 -10 155q0 38 3 69q-3 102 13.5 125t36.5 23q5 0 9 -1q8 -4 87 -47q73 -40 108 -51q0 10 -1 26.5t-1 20.5q0 27 30 27q12 0 33 -21q-9 -129 -4 -235q2 -39 10 -89t8 -41zM255 139v131
q-66 36 -182 95q-15 -46 -15 -108q0 -56 18 -184q110 37 179 66zM191 590l-133 -111l6 -14l23 -6l197 101l-8 24l-56 29z" />
    <glyph glyph-name="agrave" unicode="&#xe0;" horiz-adv-x="389" 
d="M334 29q0 -39 -26 -39q-28 0 -36 37q-6 27 -11 55l-222 -77q-27 8 -27 63q-10 84 -10 155q0 38 3 69q-3 102 13.5 125t36.5 23q5 0 9 -1q8 -4 87 -47q73 -40 108 -51q0 10 -1 26.5t-1 20.5q0 27 30 27q12 0 33 -21q-9 -129 -4 -235q2 -39 10 -89t8 -41zM255 139v131
q-66 36 -182 95q-15 -46 -15 -108q0 -56 18 -184q110 37 179 66zM136 580l134 -111l-6 -14l-23 -6l-197 101l8 24l55 29z" />
    <glyph glyph-name="acircumflex" unicode="&#xe2;" horiz-adv-x="389" 
d="M334 29q0 -39 -26 -39q-28 0 -36 37q-6 27 -11 55l-222 -77q-27 8 -27 63q-10 84 -10 155q0 38 3 69q-3 102 13.5 125t36.5 23q5 0 9 -1q8 -4 87 -47q73 -40 108 -51q0 10 -1 26.5t-1 20.5q0 27 30 27q12 0 33 -21q-9 -129 -4 -235q2 -39 10 -89t8 -41zM255 139v131
q-66 36 -182 95q-15 -46 -15 -108q0 -56 18 -184q110 37 179 66zM163 587q-19 -5 -110 -70q-5 -7 -5 -15q0 -20 20 -20q33 16 96 50q37 -20 104 -56q16 0 20.5 3.5t8.5 17.5q-38 34 -87 73l-21 13q-11 7 -13 7q-1 0 -13 -3z" />
    <glyph glyph-name="adieresis" unicode="&#xe4;" horiz-adv-x="389" 
d="M334 29q0 -39 -26 -39q-28 0 -36 37q-6 27 -11 55l-222 -77q-27 8 -27 63q-10 84 -10 155q0 38 3 69q-3 102 13.5 125t36.5 23q5 0 9 -1q8 -4 87 -47q73 -40 108 -51q0 10 -1 26.5t-1 20.5q0 27 30 27q12 0 33 -21q-9 -129 -4 -235q2 -39 10 -89t8 -41zM255 139v131
q-66 36 -182 95q-15 -46 -15 -108q0 -56 18 -184q110 37 179 66zM52 520q0 15 12 26.5t28 11.5q17 0 29 -11.5t12 -26.5q0 -16 -12 -27t-29 -11q-16 0 -28 11t-12 27zM194 517q0 16 11.5 27t27.5 11q17 0 28.5 -11t11.5 -27q0 -15 -11.5 -26.5t-28.5 -11.5q-16 0 -27.5 11.5
t-11.5 26.5z" />
    <glyph glyph-name="atilde" unicode="&#xe3;" horiz-adv-x="389" 
d="M334 29q0 -39 -26 -39q-28 0 -36 37q-6 27 -11 55l-222 -77q-27 8 -27 63q-10 84 -10 155q0 38 3 69q-3 102 13.5 125t36.5 23q5 0 9 -1q8 -4 87 -47q73 -40 108 -51q0 10 -1 26.5t-1 20.5q0 27 30 27q12 0 33 -21q-9 -129 -4 -235q2 -39 10 -89t8 -41zM255 139v131
q-66 36 -182 95q-15 -46 -15 -108q0 -56 18 -184q110 37 179 66zM37 505q46 57 90 57q11 0 39 -16t52 -16q26 0 37 27q2 1 22 1q4 0 11 -4.5t7 -7.5q0 -9 -25 -31t-36 -27q-17 -9 -39 -3q-20 4 -40 9q-23 7 -36 17q-25 0 -31 -4q-2 -1 -20 -25q-29 5 -31 23z" />
    <glyph glyph-name="aring" unicode="&#xe5;" horiz-adv-x="389" 
d="M334 29q0 -39 -26 -39q-28 0 -36 37q-6 27 -11 55l-222 -77q-27 8 -27 63q-10 84 -10 155q0 38 3 69q-3 102 13.5 125t36.5 23q5 0 9 -1q8 -4 87 -47q73 -40 108 -51q0 10 -1 26.5t-1 20.5q0 27 30 27q12 0 33 -21q-9 -129 -4 -235q2 -39 10 -89t8 -41zM255 139v131
q-66 36 -182 95q-15 -46 -15 -108q0 -56 18 -184q110 37 179 66zM163 574q24 0 40.5 -16.5t16.5 -40.5t-16.5 -40.5t-40.5 -16.5t-40.5 16.5t-16.5 40.5t16.5 40.5t40.5 16.5zM163 549q-32 0 -32 -32t32 -32t32 32t-32 32z" />
    <glyph glyph-name="ccedilla" unicode="&#xe7;" horiz-adv-x="304" 
d="M84 -66v0v0zM224 -90q0 -15 -15 -44q-2 -4 -23 -13.5t-29 -9.5q-53 0 -55 2t-13.5 8t-11.5 8q0 8 5 12q12 10 14 12h32l32 5q7 15 7 20q0 17 -14 22q-23 7 -32 7q-5 0 -37 -5v0v0q-3 16 -3 32q0 2 18 34l5 11q-49 -29 -73 -29q-14 0 -23.5 11.5t-9.5 25.5v315q0 21 77 41
q91 24 103 33q4 3 16 23q10 15 22 15q8 0 16 -7t8 -14q0 -92 -34 -92q-5 0 -14 6t-15 6q-20 0 -42 -10q-21 -5 -69 -21v-242q0 -4 8 -4q24 0 75 19.5t75 19.5q10 0 18.5 -8t8.5 -18q0 -32 -42 -32q-31 0 -69 -19h8q-30 -65 -25 -64q21 5 39 5q16 -2 28 -10l12 -10
q22 -11 22 -41z" />
    <glyph glyph-name="eacute" unicode="&#xe9;" horiz-adv-x="266" 
d="M245 -231q0 -17 -11 -31t-28 -14q-13 0 -26 14t-13 27q0 10 16 43q-180 156 -180 248q0 50 32 85t82 46q-40 48 -54 70q-28 45 -28 82q0 38 35.5 74.5t73.5 36.5q25 0 41.5 -16t16.5 -39q0 -8 -7 -23q-8 -18 -15 -18q-2 1 -3 2q-22 28 -35 28q-7 0 -17.5 -4t-19 -24.5
t-8.5 -32.5q0 -35 44.5 -95.5t45.5 -75.5q-14 -21 -27 -21q-3 0 -12.5 1.5t-17.5 1.5q-25 0 -42.5 -22t-17.5 -48q0 -51 45 -104q42 -44 85 -89q45 -52 45 -102zM171 590l-133 -111l6 -14l23 -6l197 101l-8 24l-56 29z" />
    <glyph glyph-name="egrave" unicode="&#xe8;" horiz-adv-x="266" 
d="M245 -231q0 -17 -11 -31t-28 -14q-13 0 -26 14t-13 27q0 10 16 43q-180 156 -180 248q0 50 32 85t82 46q-40 48 -54 70q-28 45 -28 82q0 38 35.5 74.5t73.5 36.5q25 0 41.5 -16t16.5 -39q0 -8 -7 -23q-8 -18 -15 -18q-2 1 -3 2q-22 28 -35 28q-7 0 -17.5 -4t-19 -24.5
t-8.5 -32.5q0 -35 44.5 -95.5t45.5 -75.5q-14 -21 -27 -21q-3 0 -12.5 1.5t-17.5 1.5q-25 0 -42.5 -22t-17.5 -48q0 -51 45 -104q42 -44 85 -89q45 -52 45 -102zM96 620l134 -111l-6 -14l-23 -6l-197 101l8 24l55 29z" />
    <glyph glyph-name="ecircumflex" unicode="&#xea;" horiz-adv-x="266" 
d="M245 -231q0 -17 -11 -31t-28 -14q-13 0 -26 14t-13 27q0 10 16 43q-180 156 -180 248q0 50 32 85t82 46q-40 48 -54 70q-28 45 -28 82q0 38 35.5 74.5t73.5 36.5q25 0 41.5 -16t16.5 -39q0 -8 -7 -23q-8 -18 -15 -18q-2 1 -3 2q-22 28 -35 28q-7 0 -17.5 -4t-19 -24.5
t-8.5 -32.5q0 -35 44.5 -95.5t45.5 -75.5q-14 -21 -27 -21q-3 0 -12.5 1.5t-17.5 1.5q-25 0 -42.5 -22t-17.5 -48q0 -51 45 -104q42 -44 85 -89q45 -52 45 -102zM113 587q-19 -5 -110 -70q-5 -7 -5 -15q0 -20 20 -20q33 16 96 50q37 -20 104 -56q16 0 20.5 3.5t8.5 17.5
q-38 34 -87 73l-21 13q-11 7 -13 7q-1 0 -13 -3z" />
    <glyph glyph-name="edieresis" unicode="&#xeb;" horiz-adv-x="266" 
d="M245 -231q0 -17 -11 -31t-28 -14q-13 0 -26 14t-13 27q0 10 16 43q-180 156 -180 248q0 50 32 85t82 46q-40 48 -54 70q-28 45 -28 82q0 38 35.5 74.5t73.5 36.5q25 0 41.5 -16t16.5 -39q0 -8 -7 -23q-8 -18 -15 -18q-2 1 -3 2q-22 28 -35 28q-7 0 -17.5 -4t-19 -24.5
t-8.5 -32.5q0 -35 44.5 -95.5t45.5 -75.5q-14 -21 -27 -21q-3 0 -12.5 1.5t-17.5 1.5q-25 0 -42.5 -22t-17.5 -48q0 -51 45 -104q42 -44 85 -89q45 -52 45 -102zM32 520q0 15 12 26.5t28 11.5q17 0 29 -11.5t12 -26.5q0 -16 -12 -27t-29 -11q-16 0 -28 11t-12 27zM174 517
q0 16 11.5 27t27.5 11q17 0 28.5 -11t11.5 -27q0 -15 -11.5 -26.5t-28.5 -11.5q-16 0 -27.5 11.5t-11.5 26.5z" />
    <glyph glyph-name="iacute" unicode="&#xed;" horiz-adv-x="182" 
d="M95 315q0 -157 -2 -195q-10 -160 -49 -160q-8 0 -23 9.5t-15 16.5q0 16 8 41q11 33 13 41q9 49 9 126q0 26 -2 79.5t-2 80.5q0 20 7 38q9 23 26 23q23 0 28 -41q2 -13 2 -59zM91 580l-133 -111l6 -14l23 -6l197 101l-8 24l-56 29z" />
    <glyph glyph-name="igrave" unicode="&#xec;" horiz-adv-x="182" 
d="M95 315q0 -157 -2 -195q-10 -160 -49 -160q-8 0 -23 9.5t-15 16.5q0 16 8 41q11 33 13 41q9 49 9 126q0 26 -2 79.5t-2 80.5q0 20 7 38q9 23 26 23q23 0 28 -41q2 -13 2 -59zM26 570l134 -111l-6 -14l-23 -6l-197 101l8 24l55 29z" />
    <glyph glyph-name="icircumflex" unicode="&#xee;" horiz-adv-x="182" 
d="M95 315q0 -157 -2 -195q-10 -160 -49 -160q-8 0 -23 9.5t-15 16.5q0 16 8 41q11 33 13 41q9 49 9 126q0 26 -2 79.5t-2 80.5q0 20 7 38q9 23 26 23q23 0 28 -41q2 -13 2 -59zM73 557q-19 -5 -110 -70q-5 -7 -5 -15q0 -20 20 -20q33 16 96 50q37 -20 104 -56
q16 0 20.5 3.5t8.5 17.5q-38 34 -87 73l-21 13q-11 7 -13 7q-1 0 -13 -3z" />
    <glyph glyph-name="idieresis" unicode="&#xef;" horiz-adv-x="182" 
d="M95 315q0 -157 -2 -195q-10 -160 -49 -160q-8 0 -23 9.5t-15 16.5q0 16 8 41q11 33 13 41q9 49 9 126q0 26 -2 79.5t-2 80.5q0 20 7 38q9 23 26 23q23 0 28 -41q2 -13 2 -59zM-48 510q0 15 12 26.5t28 11.5q17 0 29 -11.5t12 -26.5q0 -16 -12 -27t-29 -11q-16 0 -28 11
t-12 27zM94 507q0 16 11.5 27t27.5 11q17 0 28.5 -11t11.5 -27q0 -15 -11.5 -26.5t-28.5 -11.5q-16 0 -27.5 11.5t-11.5 26.5z" />
    <glyph glyph-name="ntilde" unicode="&#xf1;" horiz-adv-x="392" 
d="M362 -46q2 -26 -10 -34q-7 -5 -28 -5q-20 0 -45 50q-22 43 -25 69q-8 63 -8 281q-38 -25 -76 -49q-45 -28 -81 -39q0 -30 8 -88.5t8 -87.5q0 -56 -36 -56q-23 0 -33 38q-8 27 -6 57l15 237q-3 1 -8 -3t-8 -4q-18 0 -18 26q0 22 21 47.5t43 25.5q18 0 18 -57
q0 -18 -2 -44.5t-2 -29.5t10 -3q36 0 93 49q43 37 77 81q13 8 19 8q11 0 13 -30q8 -20 8 -85q0 -44 -4 -114t-4 -71q0 -51 29 -101q31 -53 32 -68zM37 505q46 57 90 57q11 0 39 -16t52 -16q26 0 37 27q2 1 22 1q4 0 11 -4.5t7 -7.5q0 -9 -25 -31t-36 -27q-17 -9 -39 -3
q-20 4 -40 9q-23 7 -36 17q-25 0 -31 -4q-2 -1 -20 -25q-29 5 -31 23z" />
    <glyph glyph-name="oacute" unicode="&#xf3;" horiz-adv-x="354" 
d="M50 -7q-51 0 -51 164q0 25 1 58t1 38v38q4 22 20 37q22 19 95 55q77 37 103 38q41 2 53 -40q5 -19 5 -73v-198q-3 -38 -54 -62q-21 -10 -87 -31q-70 -24 -86 -24zM225 317q0 35 -23 35q-5 0 -12 -2q-128 -52 -128 -75q0 -2 -1 -29v-48q0 -136 28 -136q25 0 78 24
q58 26 58 46v185zM151 570l-133 -111l6 -14l23 -6l197 101l-8 24l-56 29z" />
    <glyph glyph-name="ograve" unicode="&#xf2;" horiz-adv-x="354" 
d="M50 -7q-51 0 -51 164q0 25 1 58t1 38v38q4 22 20 37q22 19 95 55q77 37 103 38q41 2 53 -40q5 -19 5 -73v-198q-3 -38 -54 -62q-21 -10 -87 -31q-70 -24 -86 -24zM225 317q0 35 -23 35q-5 0 -12 -2q-128 -52 -128 -75q0 -2 -1 -29v-48q0 -136 28 -136q25 0 78 24
q58 26 58 46v185zM106 580l134 -111l-6 -14l-23 -6l-197 101l8 24l55 29z" />
    <glyph glyph-name="ocircumflex" unicode="&#xf4;" horiz-adv-x="354" 
d="M50 -7q-51 0 -51 164q0 25 1 58t1 38v38q4 22 20 37q22 19 95 55q77 37 103 38q41 2 53 -40q5 -19 5 -73v-198q-3 -38 -54 -62q-21 -10 -87 -31q-70 -24 -86 -24zM225 317q0 35 -23 35q-5 0 -12 -2q-128 -52 -128 -75q0 -2 -1 -29v-48q0 -136 28 -136q25 0 78 24
q58 26 58 46v185zM123 567q-19 -5 -110 -70q-5 -7 -5 -15q0 -20 20 -20q33 16 96 50q37 -20 104 -56q16 0 20.5 3.5t8.5 17.5q-38 34 -87 73l-21 13q-11 7 -13 7q-1 0 -13 -3z" />
    <glyph glyph-name="odieresis" unicode="&#xf6;" horiz-adv-x="354" 
d="M50 -7q-51 0 -51 164q0 25 1 58t1 38v38q4 22 20 37q22 19 95 55q77 37 103 38q41 2 53 -40q5 -19 5 -73v-198q-3 -38 -54 -62q-21 -10 -87 -31q-70 -24 -86 -24zM225 317q0 35 -23 35q-5 0 -12 -2q-128 -52 -128 -75q0 -2 -1 -29v-48q0 -136 28 -136q25 0 78 24
q58 26 58 46v185zM22 510q0 15 12 26.5t28 11.5q17 0 29 -11.5t12 -26.5q0 -16 -12 -27t-29 -11q-16 0 -28 11t-12 27zM164 507q0 16 11.5 27t27.5 11q17 0 28.5 -11t11.5 -27q0 -15 -11.5 -26.5t-28.5 -11.5q-16 0 -27.5 11.5t-11.5 26.5z" />
    <glyph glyph-name="otilde" unicode="&#xf5;" horiz-adv-x="354" 
d="M50 -7q-51 0 -51 164q0 25 1 58t1 38v38q4 22 20 37q22 19 95 55q77 37 103 38q41 2 53 -40q5 -19 5 -73v-198q-3 -38 -54 -62q-21 -10 -87 -31q-70 -24 -86 -24zM225 317q0 35 -23 35q-5 0 -12 -2q-128 -52 -128 -75q0 -2 -1 -29v-48q0 -136 28 -136q25 0 78 24
q58 26 58 46v185zM7 495q46 57 90 57q11 0 39 -16t52 -16q26 0 37 27q2 1 22 1q4 0 11 -4.5t7 -7.5q0 -9 -25 -31t-36 -27q-17 -9 -39 -3q-20 4 -40 9q-23 7 -36 17q-25 0 -31 -4q-2 -1 -20 -25q-29 5 -31 23z" />
    <glyph glyph-name="uacute" unicode="&#xfa;" horiz-adv-x="357" 
d="M329 143q0 -15 -67 -38q22 -67 22 -75q0 -16 -5 -20q-13 -11 -20 -1q-23 33 -23 34q-12 20 -15 42q-18 -10 -73 -51q-27 -25 -55 -50q-50 -46 -61 -46q-28 0 -28 65q0 5 5 73.5t5 73.5l-12 220q6 16 28 16q28 0 39 -151q2 -34 2 -59v-123q-3 -3 6 -3q5 0 62 34
q62 36 73 51q0 1 -3 46q-3 51 -3 89q0 157 50 157q25 0 28 -37l-26 -166q-6 -38 -1 -70q30 14 41 14t21 -8t10 -17zM151 570l-133 -111l6 -14l23 -6l197 101l-8 24l-56 29z" />
    <glyph glyph-name="ugrave" unicode="&#xf9;" horiz-adv-x="357" 
d="M329 143q0 -15 -67 -38q22 -67 22 -75q0 -16 -5 -20q-13 -11 -20 -1q-23 33 -23 34q-12 20 -15 42q-18 -10 -73 -51q-27 -25 -55 -50q-50 -46 -61 -46q-28 0 -28 65q0 5 5 73.5t5 73.5l-12 220q6 16 28 16q28 0 39 -151q2 -34 2 -59v-123q-3 -3 6 -3q5 0 62 34
q62 36 73 51q0 1 -3 46q-3 51 -3 89q0 157 50 157q25 0 28 -37l-26 -166q-6 -38 -1 -70q30 14 41 14t21 -8t10 -17zM116 590l134 -111l-6 -14l-23 -6l-197 101l8 24l55 29z" />
    <glyph glyph-name="ucircumflex" unicode="&#xfb;" horiz-adv-x="357" 
d="M329 143q0 -15 -67 -38q22 -67 22 -75q0 -16 -5 -20q-13 -11 -20 -1q-23 33 -23 34q-12 20 -15 42q-18 -10 -73 -51q-27 -25 -55 -50q-50 -46 -61 -46q-28 0 -28 65q0 5 5 73.5t5 73.5l-12 220q6 16 28 16q28 0 39 -151q2 -34 2 -59v-123q-3 -3 6 -3q5 0 62 34
q62 36 73 51q0 1 -3 46q-3 51 -3 89q0 157 50 157q25 0 28 -37l-26 -166q-6 -38 -1 -70q30 14 41 14t21 -8t10 -17zM133 577q-19 -5 -110 -70q-5 -7 -5 -15q0 -20 20 -20q33 16 96 50q37 -20 104 -56q16 0 20.5 3.5t8.5 17.5q-38 34 -87 73l-21 13q-11 7 -13 7q-1 0 -13 -3z
" />
    <glyph glyph-name="udieresis" unicode="&#xfc;" horiz-adv-x="357" 
d="M329 143q0 -15 -67 -38q22 -67 22 -75q0 -16 -5 -20q-13 -11 -20 -1q-23 33 -23 34q-12 20 -15 42q-18 -10 -73 -51q-27 -25 -55 -50q-50 -46 -61 -46q-28 0 -28 65q0 5 5 73.5t5 73.5l-12 220q6 16 28 16q28 0 39 -151q2 -34 2 -59v-123q-3 -3 6 -3q5 0 62 34
q62 36 73 51q0 1 -3 46q-3 51 -3 89q0 157 50 157q25 0 28 -37l-26 -166q-6 -38 -1 -70q30 14 41 14t21 -8t10 -17zM22 510q0 15 12 26.5t28 11.5q17 0 29 -11.5t12 -26.5q0 -16 -12 -27t-29 -11q-16 0 -28 11t-12 27zM164 507q0 16 11.5 27t27.5 11q17 0 28.5 -11t11.5 -27
q0 -15 -11.5 -26.5t-28.5 -11.5q-16 0 -27.5 11.5t-11.5 26.5z" />
    <glyph glyph-name="dagger" unicode="&#x2020;" horiz-adv-x="376" 
d="M358 592q0 -16 -75 -56q-47 -23 -93 -46q-10 -6 -37 -25v-43l19 -363q0 -75 -39 -75q-22 0 -31 25q-4 17 -7 34l12 396q-22 -1 -53 -26.5t-48 -25.5q-9 0 -19 9q-5 32 -5 26q0 16 19 23q34 13 109 46q-7 35 -7 65q0 58 30 58q22 0 23 -41v-53q153 87 173 92q4 1 8 1
q21 0 21 -21z" />
    <glyph glyph-name="degree" unicode="&#xb0;" horiz-adv-x="287" 
d="M107 685q47 0 79.5 -34.5t32.5 -81.5q0 -48 -32.5 -81t-79.5 -33t-79 33t-32 81q0 47 32 81.5t79 34.5zM107 642q-25 0 -46.5 -21.5t-21.5 -48.5q0 -28 23 -51t48 -23t45.5 23.5t20.5 51.5q0 27 -21.5 48t-47.5 21z" />
    <glyph glyph-name="cent" unicode="&#xa2;" horiz-adv-x="304" 
d="M104 242v253q-18 -3 -50 -13l3 -225q0 -2 7.5 -10.5t9.5 -8.5q13 0 30 4zM114 638l19 13q3 2 6.5 -2t3.5 -8v-78q25 8 35 15q4 3 16 23q10 15 22 15q8 0 16 -7t8 -14q0 -92 -34 -92q-5 0 -14 6t-15 6q-13 0 -34 -7l-1 -253q58 22 82 22q10 0 18.5 -8t8.5 -18
q0 -32 -42 -32q-30 0 -67 -17v-102q0 -5 -10 -10l-18 -9q-10 -5 -10 10v90q-49 -29 -73 -29q-14 0 -23.5 11.5t-9.5 25.5v315q0 22 106 49v75q0 3 10 10z" />
    <glyph glyph-name="sterling" unicode="&#xa3;" horiz-adv-x="483" 
d="M3 430q0 88 62 149t150 61q60 0 124 -58.5t64 -117.5q0 -31 -31 -31q-8 0 -24 9t-16 17q0 51 -36.5 89t-87.5 41q-70 4 -111 -52q-33 -45 -33 -101q-1 -75 54 -115h202q10 0 10 -10l2 -22q1 -9 -19 -9h-166q29 -36 29 -49q0 -30 -30 -82q-27 -47 -62 -85q49 8 144 0
q81 -6 91 -6q43 0 65 38q46 -23 46 -58q0 -14 -27 -27q-22 -10 -34 -10q-21 0 -94.5 5.5t-118.5 5.5q-60 0 -104 -8q-43 -9 -43 31q0 45 52 99.5t52 89.5q0 19 -9 39q-6 6 -19 17l-64 -5q-5 -1 -13 7.5t-8 12.5l2 16q1 10 10 10h35q-44 43 -44 109z" />
    <glyph glyph-name="section" unicode="&#xa7;" 
 />
    <glyph glyph-name="bullet" unicode="&#x2022;" horiz-adv-x="282" 
d="M7 286q0 43 29 72.5t69 29.5q41 0 69.5 -29.5t28.5 -72.5q0 -42 -28.5 -72t-69.5 -30q-40 0 -69 30t-29 72z" />
    <glyph glyph-name="paragraph" unicode="&#xb6;" 
 />
    <glyph glyph-name="germandbls" unicode="&#xdf;" horiz-adv-x="469" 
d="M268 583q0 -24 -12 -43q-13 -24 -35 -24q-17 0 -39 33q0 14 16 27q14 10 27 20q-2 9 -14.5 17.5t-20.5 8.5q-53 0 -48 -84q7 -112 10 -181q25 28 64.5 55.5t58.5 31.5q41 6 73.5 -29t32.5 -75q0 -38 -28 -82q-14 -22 -54 -70q50 -11 81.5 -46t31.5 -85q0 -92 -179 -248
q16 -33 16 -43q0 -13 -13 -27t-26 -14q-17 0 -28 14t-11 31q0 50 45 102q42 44 85 89q45 53 45 104q0 26 -17.5 48t-42.5 22q-8 0 -18 -2t-13 -2q-12 0 -26 21q0 16 45 76t45 96q0 46 -28 57q-30 11 -136 -94q4 -99 3 -205q0 -44 -6.5 -112.5t-6.5 -54.5q0 -43 -30 -102
q-33 -65 -68 -65q-10 0 -19 8q-12 10 -12 25q0 10 6 21q42 85 57.5 154.5t15.5 165.5q0 -2 -4 45q-3 36 1 58q-17 -21 -33 -42q-26 -31 -34 -31q-23 0 -28 12q0 11 -1 21q92 96 92 124q0 5 -3 6q0 87 -1 230q0 48 23 85q29 47 85 45q32 -2 54 -30t22 -62z" />
    <glyph glyph-name="registered" unicode="&#xae;" horiz-adv-x="443" 
d="M182 327q-73 0 -124.5 52.5t-51.5 126.5q0 73 51.5 124.5t124.5 51.5t124 -52t51 -126q0 -73 -51.5 -125t-123.5 -52zM182 648q-61 1 -101 -41t-40 -103q0 -59 42 -101.5t99 -42.5t98.5 42.5t41.5 101.5q0 60 -41.5 101t-98.5 43zM217 427l-48 75h-23v-75h-28v168h70
q10 4 29 -2q33 -10 33 -41q0 -41 -48 -50l49 -75h-34zM188 573h-44v-39h49q14 0 20 2q10 5 10 21t-35 16z" />
    <glyph glyph-name="copyright" unicode="&#xa9;" horiz-adv-x="815" 
d="M366 -11q-145 0 -246 101.5t-101 247.5t101 248t246 102t246.5 -102t101.5 -248q0 -145 -101.5 -247t-246.5 -102zM366 635q-120 0 -207.5 -86.5t-87.5 -210.5q0 -123 87.5 -209.5t207.5 -86.5t207.5 86.5t87.5 209.5q0 124 -87.5 210.5t-207.5 86.5zM484 407
q-26 81 -108 81q-65 0 -102.5 -42.5t-37.5 -106.5q0 -59 33 -100q38 -47 105 -47q86 0 111 79h53q-36 -132 -163 -132q-88 0 -140 57t-52 145q0 85 53.5 143t139.5 58q58 0 103 -35t60 -100h-55z" />
    <glyph glyph-name="trademark" unicode="&#x2122;" horiz-adv-x="501" 
d="M382 472v161l-64 -161h-21l-60 156v-156h-33v201h50l54 -137l55 137h51v-201h-32zM98 639v-167h-33v167h-66v34h163v-34h-64z" />
    <glyph glyph-name="acute" unicode="&#xb4;" horiz-adv-x="305" 
d="M161 830l-133 -111l6 -14l23 -6l197 101l-8 24l-56 29z" />
    <glyph glyph-name="dieresis" unicode="&#xa8;" horiz-adv-x="284" 
d="M10 764q0 16 12 27t28 11q17 0 29 -11t12 -27q0 -15 -12 -26.5t-29 -11.5q-16 0 -28 11.5t-12 26.5zM152 762q0 16 11.5 27t27.5 11q17 0 28.5 -11t11.5 -27t-11.5 -27t-28.5 -11q-16 0 -27.5 11t-11.5 27z" />
    <glyph glyph-name="AE" unicode="&#xc6;" horiz-adv-x="872" 
d="M437 585q-2 11 -6 27q-56 -36 -184 -47q5 -49 5 -124q0 -70 -5 -115q63 -17 179 -70l-3 44q-5 116 4 205q3 27 10 80zM817 192q3 -35 -60 -55q-18 -6 -131 -28q-81 -16 -106 -38q-1 -18 -5 -33q-1 -49 -33 -49q-34 0 -45 35q-8 21 -9 71.5t-7 65.5q-4 11 -24 27
q-15 12 -30 23q-17 15 -57 37q-45 24 -62 24l-3 -1q-1 -97 -37 -192q-47 -125 -125 -125q-37 0 -66 23t-29 59q0 29 21 48t50 19q41 0 41 -32q0 -19 -35 -40q1 -23 11 -23q53 0 82 54q21 40 29 115l8 108q-43 12 -80 39q-46 35 -46 72q0 22 16.5 44.5t37.5 22.5q10 0 20 -10
t10 -20q0 -8 -7 -23.5t-7 -23.5q0 -34 55 -51q3 20 3 64q0 30 -2.5 89t-2.5 89q0 41 22 51q10 4 58 4q34 0 109 29.5t96 29.5q32 0 27 -46q-1 -12 -4 -27q18 6 127 53q95 40 105 40q9 0 20 -8.5t12 -17.5q3 -52 -110 -88q-39 -13 -161 -36l-11 -125q0 -4 -1 -30
q70 36 104 36q20 0 41.5 -12t23.5 -31q0 -9 -12.5 -29t-21.5 -20q-8 0 -33.5 13t-29.5 13q-62 0 -70 -81q4 -84 15 -134q6 -21 9 -33q37 19 139 56q111 40 138 39q31 0 33 -31z" />
    <glyph glyph-name="Oslash" unicode="&#xd8;" horiz-adv-x="460" 
d="M88 98l161 497q-57 -13 -170 -41v-27q0 -37 7.5 -110t7.5 -109q0 -26 -3.5 -98t-3.5 -98q0 -7 1 -14zM309 616l-175 -542q67 11 123 29q81 26 81 52q0 27 -12 110q-12 80 -11 112l4 123q1 13 5 40t4 40q0 36 -17 36h-2zM349 740l-16 -50q13 4 23.5 7t11.5 3q26 0 26 -42
q0 -47 -14 -139.5t-14 -138.5q0 -39 24 -134.5t24 -134.5q0 -28 -77 -40q-51 -7 -102 -13q-25 -5 -124 -55l-25 -78q-3 -10 -10 -10h-34q-13 0 -10 10l16 49q-3 -1 -5 -1q-42 0 -42 82q0 50 16.5 167.5t16.5 167.5q0 29 -24 187q-2 12 12.5 25.5t25.5 13.5q17 0 19 -3t2 -21
q67 26 204 77l23 71q3 10 10 10h33q14 0 10 -10z" />
    <glyph glyph-name="plusminus" unicode="&#xb1;" 
 />
    <glyph glyph-name="yen" unicode="&#xa5;" horiz-adv-x="524" 
d="M101 177h109q0 23 -3 49h-123q-10 0 -10 10v20q0 10 10 10h116q-16 76 -49 150q-35 78 -73 120l-17 9q-2 -2 -14 -29q-8 -17 -24 -15q-24 3 -24 13q0 2 1.5 10t1.5 15q0 13 37 72q39 63 56 63q22 0 22 -25q0 -9 -3 -24t-2 -17q0 -15 9 -43q29 -44 77 -137q13 -31 52 -103
v3q35 159 59 225q64 175 149 175q30 0 47 -22q14 -19 14 -46q0 -44 -43 -44q-27 0 -29.5 25.5t-11.5 25.5q-7 0 -23.5 -15.5t-24.5 -30.5q-41 -75 -61 -169q-18 -62 -44 -186h119q10 0 10 -10v-20q0 -10 -10 -10h-122q-1 -23 -1 -49h112q10 0 10 -10v-12q0 -4 -6.5 -11
t-11.5 -7h-100l20 -128q0 -11 -34 -12q31 1 -70 1q-32 0 -32 13q0 9 18.5 27.5t18.5 19.5q0 5 3.5 30.5t3.5 32.5v16h-110q-9 0 -9 16v14q0 10 10 10z" />
    <glyph glyph-name="mu" unicode="&#xb5;" horiz-adv-x="535" 
d="M7 223l97 88q2 109 -5 222q-2 32 -16 74l-65 -28q-3 -1 -6 -1q-17 0 -17 28q0 22 16 29q48 21 95 43q51 24 92 49q5 3 9 3q17 0 17 -36q0 -38 -75 -69q9 -77 23 -254l104 93q3 3 13.5 -7.5t10.5 -14.5v-33q0 -2 -10 -10l-117 -94v-88q0 -20 -5.5 -60.5t-5.5 -60.5
q84 23 146 23q38 0 88 -7q-5 11 -6 23q0 8 1.5 21.5t1.5 18.5q0 44 14 95q20 68 51 68q11 0 21.5 -7.5t10.5 -18.5q0 -14 -20.5 -38t-20.5 -64q0 -84 52 -171q0 -9 -4 -14t-11 -3q-79 37 -192 37q-60 0 -133 -35q-67 -33 -115 -79q-7 -2 -13 -2q-26 0 -22 29q36 42 62 109
t26 118q2 22 3 49l-95 -77q-3 -3 -6.5 1t-3.5 9v32q0 1 10 10z" />
    <glyph glyph-name="mu" unicode="&#x3bc;" horiz-adv-x="535" 
d="M7 223l97 88q2 109 -5 222q-2 32 -16 74l-65 -28q-3 -1 -6 -1q-17 0 -17 28q0 22 16 29q48 21 95 43q51 24 92 49q5 3 9 3q17 0 17 -36q0 -38 -75 -69q9 -77 23 -254l104 93q3 3 13.5 -7.5t10.5 -14.5v-33q0 -2 -10 -10l-117 -94v-88q0 -20 -5.5 -60.5t-5.5 -60.5
q84 23 146 23q38 0 88 -7q-5 11 -6 23q0 8 1.5 21.5t1.5 18.5q0 44 14 95q20 68 51 68q11 0 21.5 -7.5t10.5 -18.5q0 -14 -20.5 -38t-20.5 -64q0 -84 52 -171q0 -9 -4 -14t-11 -3q-79 37 -192 37q-60 0 -133 -35q-67 -33 -115 -79q-7 -2 -13 -2q-26 0 -22 29q36 42 62 109
t26 118q2 22 3 49l-95 -77q-3 -3 -6.5 1t-3.5 9v32q0 1 10 10z" />
    <glyph glyph-name="ordfeminine" unicode="&#xaa;" horiz-adv-x="639" 
d="M608 695q0 -3 -67 -86q-80 -100 -105 -133q-29 -35 -92 -119q-57 -85 -185 -270q-19 -22 -15 -22q111 13 388 96q11 4 20 4q21 0 36 -19q12 -16 12 -34q0 -58 -96 -58q-4 0 -19 2t-21 2q-105 0 -199 -26q-59 -17 -129 -50q-57 -27 -69 -27q-2 0 -17.5 -9t-25.5 -9
q-12 0 -20 12q-16 21 -16 26q0 2 8 15q73 96 216 289q60 81 120 163q78 105 112 165q-22 -3 -138 -32q-98 -24 -163 -24q-77 0 -77 39q0 15 18.5 36.5t31.5 21.5q5 0 71 -6t71 -6q70 0 138 21l84 32q66 26 93 26q35 0 35 -20zM332 703q10 3 55 41q27 22 53 44q4 5 4 10
q0 15 -26 15q-50 -29 -88 -52q-38 23 -88 52q-15 0 -19.5 -3t-9.5 -17l56 -54q43 -41 63 -36z" />
    <glyph glyph-name="ordmasculine" unicode="&#xba;" horiz-adv-x="430" 
d="M359 96q0 -33 -31 -42q-36 -11 -153 -43q-132 -36 -143 -36q-31 0 -31 26q0 8 4 18q10 27 173 247q33 34 66 73q-1 1 8 16t7 15q-24 0 -82.5 -25t-82.5 -25q-22 0 -30 4q-13 6 -13 27q0 16 23 27q7 3 120.5 32t121.5 29q43 0 43 -23q0 -32 -11 -46q-64 -76 -127 -152
q-101 -122 -101 -152q0 -5 9 -5q17 0 91.5 29t105.5 29q33 0 33 -23zM222 463q10 3 55 41q27 22 53 44q4 5 4 10q0 15 -26 15q-50 -29 -88 -52q-38 23 -88 52q-15 0 -19.5 -3t-9.5 -17l56 -54q43 -41 63 -36z" />
    <glyph glyph-name="ae" unicode="&#xe6;" horiz-adv-x="564" 
d="M255 139v64l-184 40q-16 -32 -16 -70q0 -42 21 -108q10 3 179 74zM452 253l-1 73q-2 9 -5 16.5t-12 7.5q-12 0 -37 -11q-24 -5 -74 -21v-100zM498 350l1 -132q0 -10 -10 -10h-13l-156 -42l5 -93q0 -4 8 -4q24 0 75 19.5t75 19.5q10 0 18.5 -8t8.5 -18q0 -38 -41 -38
q-36 0 -73 -18q-47 -22 -59 -25q-8 -6 -36 -6q-27 0 -34 33q-5 25 -9 51l-197 -84q-36 -3 -54 67q-13 50 -13 116q0 21 2 30q-1 6 4 32q7 32 15 44q17 24 37 24q5 0 9 -2q17 -7 87 -22q78 -17 108 -26q0 11 -4 36q3 22 -30 34q-37 13 -117 26q-35 5 -71 11q-10 2 -10 10v39
q0 12 10 10l212 -36q10 -2 32 -26q26 13 72 25q65 18 66 19q26 9 47 9q32 0 35 -36v-29z" />
    <glyph glyph-name="oslash" unicode="&#xf8;" horiz-adv-x="354" 
d="M66 104l93 233q-97 -42 -97 -62q0 -146 4 -171zM208 351l-115 -289q31 4 78 26q54 25 54 44v185q0 31 -17 34zM219 472h23q14 0 10 -10l-17 -42q30 -6 39 -46q3 -16 3 -66v-198q-3 -38 -54 -62q-66 -31 -156 -52l-15 -37q-4 -10 -10 -10h-23q-14 0 -10 10l18 45
q-28 32 -28 153q0 25 1 58t1 38v38q4 22 20.5 37t72.5 43.5t95 42.5l20 48q4 10 10 10z" />
    <glyph glyph-name="questiondown" unicode="&#xbf;" horiz-adv-x="320" 
d="M75 448q2 18 15 30.5t31 11.5t30 -14.5t11 -32.5q0 -19 -13.5 -32.5t-32.5 -12.5q-18 0 -30.5 15.5t-10.5 34.5zM5 -69q0 58 62 161t62 170q0 31 -19 31q-7 0 -16.5 -4t-12.5 -4q-18 0 -18 30l7 21q33 16 46 16q62 0 62 -101q0 -56 -49.5 -153t-49.5 -151q0 -96 58 -96
q33 0 43.5 24.5t21.5 24.5t32.5 -17.5t21.5 -27.5q0 -25 -46 -49q-41 -21 -69 -21q-53 0 -94.5 46t-41.5 100z" />
    <glyph glyph-name="exclamdown" unicode="&#xa1;" horiz-adv-x="209" 
d="M21 -23l13 93.5t15 135.5q1 51 3 102q1 23 11 23q12 0 20 -18q7 -13 7 -22v-113q0 -191 15 -264q2 -13 18.5 -38.5t16.5 -29.5q0 -16 -20.5 -32.5t-32.5 -16.5q-38 0 -56 87q-10 52 -10 93zM24 427q-1 20 10.5 35t30.5 17q21 1 35.5 -15t13.5 -37q-2 -19 -16 -32t-33 -12
q-38 4 -41 44z" />
    <glyph glyph-name="logicalnot" unicode="&#xac;" 
 />
    <glyph glyph-name="florin" unicode="&#x192;" 
 />
    <glyph glyph-name="guillemotleft" unicode="&#xab;" horiz-adv-x="389" 
d="M172 480l-11 29q-30 2 -32 -1l-118 -177q-4 -7 -9 -18q13 -19 29 -45l98 -139q2 -3 13.5 -15.5t12.5 -10.5q20 10 20 29q0 9 -4 25q2 4 1 3l-103 148l99 154q1 9 4 18zM312 480l-11 29q-20 2 -22 -1l-128 -177q-4 -7 -9 -18q-6 4 -7 5q-1 0 -1 -1t9.5 -13t9.5 -14
l116 -161q2 -3 13.5 -15.5t12.5 -10.5q30 15 30 44q0 7 -3 15q1 3 -9 17l-104 129l99 154q1 9 4 18z" />
    <glyph glyph-name="guillemotright" unicode="&#xbb;" horiz-adv-x="392" 
d="M143 132l12 -29q29 -1 31 2l118 177q4 6 9 17q-13 20 -29 45l-98 139q-2 3 -13.5 15.5t-12.5 10.5q-20 -10 -20 -29q0 -9 4 -25q-2 -4 -1 -3l103 -148l-98 -154q-1 -8 -5 -18zM3 132l12 -29q19 -2 21 1l128 178q4 6 9 17q6 -4 7 -5q1 0 1 1t-9.5 13t-9.5 14l-116 161
q-2 3 -13.5 15.5t-12.5 10.5q-20 -10 -20 -29q0 -9 4 -25q-3 -7 -2 -22l104 -129l-98 -154q-1 -8 -5 -18z" />
    <glyph glyph-name="ellipsis" unicode="&#x2026;" horiz-adv-x="607" 
d="M350 49q0 -52 -62 -52q-14 0 -26 17q-11 14 -11 28q0 54 57 54q13 0 27.5 -14t14.5 -33zM550 49q0 -52 -62 -52q-14 0 -26 17q-11 14 -11 28q0 54 57 54q13 0 27.5 -14t14.5 -33zM150 49q0 -52 -62 -52q-14 0 -26 17q-11 14 -11 28q0 54 57 54q13 0 27.5 -14t14.5 -33z
" />
    <glyph glyph-name="nonbreakingspace" unicode="&#xa0;" horiz-adv-x="999" 
 />
    <glyph glyph-name="Agrave" unicode="&#xc0;" horiz-adv-x="577" 
d="M546 26q0 -14 -9.5 -25.5t-23.5 -11.5q-34 0 -49 35q-9 21 -15.5 71.5t-13.5 65.5q-6 11 -27 27q-16 12 -32 23q-19 15 -63 37q-47 24 -65 24l-3 -1q-1 -97 -37 -192q-47 -125 -125 -125q-37 0 -66 23t-29 59q0 29 21 48t50 19q41 0 41 -32q0 -19 -35 -40q1 -23 11 -23
q53 0 82 54q21 40 29 115l8 108q-43 12 -80 39q-46 35 -46 72q0 22 16.5 44.5t37.5 22.5q10 0 20 -10t10 -20q0 -8 -7 -23.5t-7 -23.5q0 -34 55 -51q3 20 3 64q0 30 -2.5 89t-2.5 89q0 41 22 51q10 4 58 4q34 0 89.5 29.5t75.5 29.5q32 0 32 -46q0 -15 -2.5 -43.5
t-2.5 -42.5q0 -147 24 -293q4 -27 33 -122q25 -80 25 -118zM423 260v40q0 34 -8.5 102.5t-8.5 102.5q0 14 1 41t1 40q0 17 -5 29q-55 -42 -156 -50q5 -49 5 -124q0 -70 -5 -115q60 -16 176 -66zM276 830l134 -111l-6 -14l-23 -6l-197 101l8 24l55 29z" />
    <glyph glyph-name="Atilde" unicode="&#xc3;" horiz-adv-x="577" 
d="M546 26q0 -14 -9.5 -25.5t-23.5 -11.5q-34 0 -49 35q-9 21 -15.5 71.5t-13.5 65.5q-6 11 -27 27q-16 12 -32 23q-19 15 -63 37q-47 24 -65 24l-3 -1q-1 -97 -37 -192q-47 -125 -125 -125q-37 0 -66 23t-29 59q0 29 21 48t50 19q41 0 41 -32q0 -19 -35 -40q1 -23 11 -23
q53 0 82 54q21 40 29 115l8 108q-43 12 -80 39q-46 35 -46 72q0 22 16.5 44.5t37.5 22.5q10 0 20 -10t10 -20q0 -8 -7 -23.5t-7 -23.5q0 -34 55 -51q3 20 3 64q0 30 -2.5 89t-2.5 89q0 41 22 51q10 4 58 4q34 0 89.5 29.5t75.5 29.5q32 0 32 -46q0 -15 -2.5 -43.5
t-2.5 -42.5q0 -147 24 -293q4 -27 33 -122q25 -80 25 -118zM423 260v40q0 34 -8.5 102.5t-8.5 102.5q0 14 1 41t1 40q0 17 -5 29q-55 -42 -156 -50q5 -49 5 -124q0 -70 -5 -115q60 -16 176 -66zM197 746q46 57 90 57q11 0 39 -15.5t52 -15.5q26 0 37 26q2 1 22 1q4 0 11 -4
t7 -8q0 -8 -25 -30.5t-36 -27.5q-17 -9 -39 -3q-20 5 -40 9q-23 7 -36 17q-25 0 -31 -4q-2 -1 -20 -24q-29 4 -31 22z" />
    <glyph glyph-name="Otilde" unicode="&#xd5;" horiz-adv-x="460" 
d="M414 111q0 -28 -77 -40q-51 -7 -102 -13q-25 -5 -106 -46q-77 -39 -86 -39q-42 0 -42 82q0 50 16.5 167.5t16.5 167.5q0 29 -24 187q-2 12 12.5 25.5t25.5 13.5q17 0 19 -3t2 -21q113 44 286 105q12 3 13 3q26 0 26 -42q0 -47 -14 -139.5t-14 -138.5q0 -39 24 -134.5
t24 -134.5zM338 155q0 27 -12 110q-12 80 -11 112l4 123q1 13 5 40t4 40q0 36 -17 36q-7 0 -31 -10q-39 -15 -100 -29q-94 -21 -101 -23v-27q0 -37 7.5 -110t7.5 -109q0 -26 -3.5 -98t-3.5 -98q0 -40 27 -40q32 0 118 23q106 29 106 60zM67 746q46 57 90 57q11 0 39 -15.5
t52 -15.5q26 0 37 26q2 1 22 1q4 0 11 -4t7 -8q0 -8 -25 -30.5t-36 -27.5q-17 -9 -39 -3q-20 5 -40 9q-23 7 -36 17q-25 0 -31 -4q-2 -1 -20 -24q-29 4 -31 22z" />
    <glyph glyph-name="OE" unicode="&#x152;" horiz-adv-x="751" 
d="M304 66q-28 -2 -69 -8q-25 -5 -106 -46q-77 -39 -86 -39q-42 0 -42 82q0 50 16.5 167.5t16.5 167.5q0 29 -24 187q-2 12 12.5 25.5t25.5 13.5q17 0 19 -3t2 -21q113 44 286 105q12 3 13 3q26 0 26 -42q0 -19 -2 -39q1 -3 2 -7q17 5 129 53q102 43 112 43t20.5 -8
t10.5 -17q0 -53 -111 -91q-45 -15 -158 -37l-4 -156q74 39 109 39q20 0 40.5 -12t20.5 -30q0 -10 -14 -30t-23 -20q-8 0 -32.5 12.5t-28.5 12.5q-78 0 -78 -135q0 -80 4 -109q40 20 134 55q104 39 131 39q32 0 32 -31q0 -36 -63 -56q-18 -6 -130 -29q-81 -17 -107 -39
q-10 -74 -51 -74q-28 0 -34 47zM333 558q-5 12 -5 22q0 36 -17 36q-7 0 -31 -10q-39 -15 -100 -29q-94 -21 -101 -23v-27q0 -37 7.5 -110t7.5 -109q0 -26 -3.5 -98t-3.5 -98q0 -40 27 -40q17 0 80 14q77 17 114 37q31 202 31 295q0 80 -6 140z" />
    <glyph glyph-name="oe" unicode="&#x153;" horiz-adv-x="559" 
d="M436 253v91q-8 5 -13 5q-40 0 -62 -10q-21 -5 -69 -21v-100zM50 -7q-51 0 -51 164q0 25 1 58t1 38v38q4 22 20 37q20 17 96.5 47t104.5 31q41 2 51 -31q16 5 85 18q54 10 66 19q16 12 35 12q8 0 16 -6.5t8 -14.5q0 -11 -1 -18q4 0 4 -2v-162q0 -10 -10 -10h-13l-171 -42
v-93q0 -4 8 -4q24 0 85 19.5t85 19.5q10 0 18.5 -8t8.5 -18q0 -38 -41 -38q-37 0 -106 -27.5t-93 -27.5q-33 0 -33 31v25h-1q-21 -10 -87 -31q-70 -24 -86 -24zM224 334q-3 7 -31 1q-37 -12 -73 -24q-58 -21 -58 -36q0 -2 -1 -29v-48q0 -136 28 -136q22 0 72 21q54 23 63 43
v208z" />
    <glyph glyph-name="endash" unicode="&#x2013;" horiz-adv-x="475" 
d="M13 260h425q10 0 10 -10v-32q0 -10 -10 -10h-425q-10 0 -10 10v32q0 10 10 10z" />
    <glyph glyph-name="emdash" unicode="&#x2014;" horiz-adv-x="884" 
d="M838 260q10 0 10 -10v-32q0 -10 -10 -10h-825q-10 0 -10 10v32q0 10 10 10h825z" />
    <glyph glyph-name="quotedblleft" unicode="&#x201c;" horiz-adv-x="296" 
d="M7 523q0 20 17 61q14 31 28 63q4 10 33 36q11 0 18 -10q-1 -8 -10.5 -38.5t-9.5 -46.5q0 -12 8 -37t8 -37q0 -20 -13 -37.5t-35 -17.5q-21 0 -35 30q-9 21 -9 34zM137 523q0 20 17 61q14 31 28 63q4 10 33 36q11 0 18 -10q-1 -8 -10.5 -38.5t-9.5 -46.5q0 -12 8 -37
t8 -37q0 -20 -13 -37.5t-35 -17.5q-21 0 -35 30q-9 21 -9 34z" />
    <glyph glyph-name="quotedblright" unicode="&#x201d;" horiz-adv-x="296" 
d="M233 618q0 -20 -17 -61l-28 -62q-4 -11 -33 -36q-11 0 -18 9q1 8 10.5 39t9.5 46q0 12 -8.5 37t-8.5 37q0 21 13 38.5t36 17.5q21 0 34 -31q10 -21 10 -34zM103 618q0 -20 -17 -61l-28 -62q-4 -11 -33 -36q-11 0 -18 9q1 8 10.5 39t9.5 46q0 12 -8.5 37t-8.5 37
q0 21 13 38.5t36 17.5q21 0 34 -31q10 -21 10 -34z" />
    <glyph glyph-name="quoteleft" unicode="&#x2018;" horiz-adv-x="161" 
d="M7 523q0 63 45 124q14 19 33 36q11 0 18 -10q-1 -8 -10.5 -38.5t-9.5 -46.5q0 -12 8 -37t8 -37q0 -20 -13 -37.5t-35 -17.5q-21 0 -35 30q-9 21 -9 34z" />
    <glyph glyph-name="quoteright" unicode="&#x2019;" horiz-adv-x="161" 
d="M103 618q0 -20 -17 -61l-28 -62q-4 -11 -33 -36q-11 0 -18 9q1 8 10.5 39t9.5 46q0 12 -8.5 37t-8.5 37q0 21 13 38.5t36 17.5q21 0 34 -31q10 -21 10 -34z" />
    <glyph glyph-name="divide" unicode="&#xf7;" 
 />
    <glyph glyph-name="ydieresis" unicode="&#xff;" horiz-adv-x="348" 
d="M331 -83q0 -11 -37 -50.5t-50 -39.5q-24 0 -29 50v68q0 142 3 176q-4 -3 -85 -68q-65 -52 -83 -52q-32 0 -32 41q0 18 4 57t3 59l-3 159q0 10 -9 31t-9 32q0 38 26 38q52 1 52 -134q0 -36 -4 -87.5t-4 -54.5q0 -47 18 -47q8 0 123 78q-5 46 -5 98q0 138 40 138
q10 0 19 -7t9 -16q-11 -363 -11 -370q0 -88 21 -88l27 11q16 -9 16 -22zM42 510q0 15 12 26.5t28 11.5q17 0 29 -11.5t12 -26.5q0 -16 -12 -27t-29 -11q-16 0 -28 11t-12 27zM184 507q0 16 11.5 27t27.5 11q17 0 28.5 -11t11.5 -27q0 -15 -11.5 -26.5t-28.5 -11.5
q-16 0 -27.5 11.5t-11.5 26.5z" />
    <glyph glyph-name="Ydieresis" unicode="&#x178;" horiz-adv-x="430" 
d="M519 660q0 -44 -43 -44q-27 0 -29.5 25.5t-11.5 25.5q-7 0 -23.5 -15.5t-24.5 -30.5q-41 -75 -61 -169q-18 -62 -44 -186q-3 -25 -3 -106q0 -4 12.5 -79t12.5 -80q0 -30 -10 -58q-15 -46 -46 -46q-51 0 -51 89q0 21 3 47.5t3 24.5q0 5 3.5 30.5t3.5 32.5v69q-3 41 -10 76
q-16 76 -49 150q-35 78 -73 120l-17 9q-2 -2 -14 -29q-8 -17 -24 -15q-24 3 -24 13q0 2 1.5 10t1.5 15q0 13 37 72q39 63 56 63q22 0 22 -25q0 -9 -3 -24t-2 -17q0 -15 9 -43q29 -44 77 -137q13 -31 52 -103v3q35 159 59 225q64 175 149 175q30 0 47 -22q14 -19 14 -46z
M130 764q0 16 12 27t28 11q17 0 29 -11t12 -27q0 -15 -12 -26.5t-29 -11.5q-16 0 -28 11.5t-12 26.5zM272 762q0 16 11.5 27t27.5 11q17 0 28.5 -11t11.5 -27t-11.5 -27t-28.5 -11q-16 0 -27.5 11t-11.5 27z" />
    <glyph glyph-name="currency" unicode="&#xa4;" 
 />
    <glyph glyph-name="guilsinglleft" unicode="&#x2039;" horiz-adv-x="245" 
d="M173 132l-12 -29q-20 -2 -22 1l-128 178q-3 6 -8 17q-6 -4 -8 -5v1t9 13t10 14l115 161q2 3 14 15.5t12 10.5q21 -10 21 -29q0 -9 -4 -25q1 -4 1 -3l-103 -148l98 -154q1 -8 5 -18z" />
    <glyph glyph-name="guilsinglright" unicode="&#x203a;" horiz-adv-x="245" 
d="M3 480l12 29q19 2 21 -1l128 -177q4 -7 9 -18q6 4 7 5q1 0 1 -1t-9.5 -13t-9.5 -14l-116 -161q-2 -3 -13.5 -15.5t-12.5 -10.5q-20 10 -20 29q0 9 4 25q-2 4 -1 3l103 148l-98 154q-1 9 -5 18z" />
    <glyph glyph-name="daggerdbl" unicode="&#x2021;" 
 />
    <glyph glyph-name="periodcentered" unicode="&#xb7;" 
 />
    <glyph glyph-name="periodcentered" unicode="&#x2219;" 
 />
    <glyph glyph-name="quotesinglbase" unicode="&#x201a;" horiz-adv-x="184" 
d="M103 68q0 -20 -17 -61l-28 -62q-4 -11 -33 -36q-11 0 -18 9q1 8 10.5 39t9.5 46q0 12 -8.5 37t-8.5 37q0 21 13 38.5t36 17.5q21 0 34 -31q10 -21 10 -34z" />
    <glyph glyph-name="quotedblbase" unicode="&#x201e;" horiz-adv-x="311" 
d="M233 68q0 -20 -17 -61l-28 -62q-4 -11 -33 -36q-11 0 -18 9q1 8 10.5 39t9.5 46q0 12 -8.5 37t-8.5 37q0 21 13 38.5t36 17.5q21 0 34 -31q10 -21 10 -34zM103 68q0 -20 -17 -61l-28 -62q-4 -11 -33 -36q-11 0 -18 9q1 8 10.5 39t9.5 46q0 12 -8.5 37t-8.5 37
q0 21 13 38.5t36 17.5q21 0 34 -31q10 -21 10 -34z" />
    <glyph glyph-name="perthousand" unicode="&#x2030;" 
 />
    <glyph glyph-name="Acircumflex" unicode="&#xc2;" horiz-adv-x="577" 
d="M546 26q0 -14 -9.5 -25.5t-23.5 -11.5q-34 0 -49 35q-9 21 -15.5 71.5t-13.5 65.5q-6 11 -27 27q-16 12 -32 23q-19 15 -63 37q-47 24 -65 24l-3 -1q-1 -97 -37 -192q-47 -125 -125 -125q-37 0 -66 23t-29 59q0 29 21 48t50 19q41 0 41 -32q0 -19 -35 -40q1 -23 11 -23
q53 0 82 54q21 40 29 115l8 108q-43 12 -80 39q-46 35 -46 72q0 22 16.5 44.5t37.5 22.5q10 0 20 -10t10 -20q0 -8 -7 -23.5t-7 -23.5q0 -34 55 -51q3 20 3 64q0 30 -2.5 89t-2.5 89q0 41 22 51q10 4 58 4q34 0 89.5 29.5t75.5 29.5q32 0 32 -46q0 -15 -2.5 -43.5
t-2.5 -42.5q0 -147 24 -293q4 -27 33 -122q25 -80 25 -118zM423 260v40q0 34 -8.5 102.5t-8.5 102.5q0 14 1 41t1 40q0 17 -5 29q-55 -42 -156 -50q5 -49 5 -124q0 -70 -5 -115q60 -16 176 -66zM314 827q-18 -5 -109 -70q-6 -7 -6 -16q0 -19 20 -19q34 16 96 49
q38 -19 105 -55q15 0 19.5 3t9.5 17q-38 35 -88 73l-21 13q-10 7 -12 8q-2 0 -14 -3z" />
    <glyph glyph-name="Ecircumflex" unicode="&#xca;" horiz-adv-x="463" 
d="M441 159q0 -35 -63 -56q-18 -5 -130 -29q-81 -17 -107 -38q-10 -74 -51 -74q-30 0 -34 47l-45 -16q-21 0 -21 27q0 17 30 32q22 11 45 22q27 140 27 314q0 49 -6 125q-38 -3 -35 -3q-35 0 -35 29q0 -2 16 25q10 3 60 3q3 7 2 17l-2 17q0 21 33 21q15 0 22 -40
q17 5 129 53q103 43 112 43q10 0 20.5 -8t10.5 -18q0 -52 -111 -90q-45 -15 -158 -37l-4 -156q75 39 109 39q20 0 40.5 -12t20.5 -30q0 -10 -14 -30t-23 -20q-8 0 -32.5 12.5t-28.5 12.5q-78 0 -78 -135q0 -81 4 -109q40 20 134 55q105 38 131 38q32 0 32 -31zM214 817
q-18 -5 -109 -70q-6 -7 -6 -16q0 -19 20 -19q34 16 96 49q38 -19 105 -55q15 0 19.5 3t9.5 17q-38 35 -88 73l-21 13q-10 7 -12 8q-2 0 -14 -3z" />
    <glyph glyph-name="Aacute" unicode="&#xc1;" horiz-adv-x="577" 
d="M546 26q0 -14 -9.5 -25.5t-23.5 -11.5q-34 0 -49 35q-9 21 -15.5 71.5t-13.5 65.5q-6 11 -27 27q-16 12 -32 23q-19 15 -63 37q-47 24 -65 24l-3 -1q-1 -97 -37 -192q-47 -125 -125 -125q-37 0 -66 23t-29 59q0 29 21 48t50 19q41 0 41 -32q0 -19 -35 -40q1 -23 11 -23
q53 0 82 54q21 40 29 115l8 108q-43 12 -80 39q-46 35 -46 72q0 22 16.5 44.5t37.5 22.5q10 0 20 -10t10 -20q0 -8 -7 -23.5t-7 -23.5q0 -34 55 -51q3 20 3 64q0 30 -2.5 89t-2.5 89q0 41 22 51q10 4 58 4q34 0 89.5 29.5t75.5 29.5q32 0 32 -46q0 -15 -2.5 -43.5
t-2.5 -42.5q0 -147 24 -293q4 -27 33 -122q25 -80 25 -118zM423 260v40q0 34 -8.5 102.5t-8.5 102.5q0 14 1 41t1 40q0 17 -5 29q-55 -42 -156 -50q5 -49 5 -124q0 -70 -5 -115q60 -16 176 -66zM361 810l-133 -111l6 -14l23 -6l197 101l-8 24l-56 29z" />
    <glyph glyph-name="Edieresis" unicode="&#xcb;" horiz-adv-x="463" 
d="M441 159q0 -35 -63 -56q-18 -5 -130 -29q-81 -17 -107 -38q-10 -74 -51 -74q-30 0 -34 47l-45 -16q-21 0 -21 27q0 17 30 32q22 11 45 22q27 140 27 314q0 49 -6 125q-38 -3 -35 -3q-35 0 -35 29q0 -2 16 25q10 3 60 3q3 7 2 17l-2 17q0 21 33 21q15 0 22 -40
q17 5 129 53q103 43 112 43q10 0 20.5 -8t10.5 -18q0 -52 -111 -90q-45 -15 -158 -37l-4 -156q75 39 109 39q20 0 40.5 -12t20.5 -30q0 -10 -14 -30t-23 -20q-8 0 -32.5 12.5t-28.5 12.5q-78 0 -78 -135q0 -81 4 -109q40 20 134 55q105 38 131 38q32 0 32 -31zM110 754
q0 16 12 27t28 11q17 0 29 -11t12 -27q0 -15 -12 -26.5t-29 -11.5q-16 0 -28 11.5t-12 26.5zM252 752q0 16 11.5 27t27.5 11q17 0 28.5 -11t11.5 -27t-11.5 -27t-28.5 -11q-16 0 -27.5 11t-11.5 27z" />
    <glyph glyph-name="Egrave" unicode="&#xc8;" horiz-adv-x="463" 
d="M441 159q0 -35 -63 -56q-18 -5 -130 -29q-81 -17 -107 -38q-10 -74 -51 -74q-30 0 -34 47l-45 -16q-21 0 -21 27q0 17 30 32q22 11 45 22q27 140 27 314q0 49 -6 125q-38 -3 -35 -3q-35 0 -35 29q0 -2 16 25q10 3 60 3q3 7 2 17l-2 17q0 21 33 21q15 0 22 -40
q17 5 129 53q103 43 112 43q10 0 20.5 -8t10.5 -18q0 -52 -111 -90q-45 -15 -158 -37l-4 -156q75 39 109 39q20 0 40.5 -12t20.5 -30q0 -10 -14 -30t-23 -20q-8 0 -32.5 12.5t-28.5 12.5q-78 0 -78 -135q0 -81 4 -109q40 20 134 55q105 38 131 38q32 0 32 -31zM176 820
l134 -111l-6 -14l-23 -6l-197 101l8 24l55 29z" />
    <glyph glyph-name="Iacute" unicode="&#xcd;" horiz-adv-x="285" 
d="M254 678q0 -37 -103 -73q23 -197 23 -345q0 -98 -9 -182q44 14 58 14q24 0 24 -25l-12 -26q-41 -11 -117 -45.5t-94 -38.5q-2 -1 -11 -1q-20 0 -20 30q0 14 52 43q41 23 68 33q3 75 3 158q0 222 -21 361q-51 -19 -64 -19q-25 0 -25 26q0 20 24 30q84 21 194 88q5 2 8 2
q8 0 15 -10.5t7 -19.5zM141 830l-133 -111l6 -14l23 -6l197 101l-8 24l-56 29z" />
    <glyph glyph-name="Icircumflex" unicode="&#xce;" horiz-adv-x="285" 
d="M254 678q0 -37 -103 -73q23 -197 23 -345q0 -98 -9 -182q44 14 58 14q24 0 24 -25l-12 -26q-41 -11 -117 -45.5t-94 -38.5q-2 -1 -11 -1q-20 0 -20 30q0 14 52 43q41 23 68 33q3 75 3 158q0 222 -21 361q-51 -19 -64 -19q-25 0 -25 26q0 20 24 30q84 21 194 88q5 2 8 2
q8 0 15 -10.5t7 -19.5zM114 837q-18 -5 -109 -70q-6 -7 -6 -16q0 -19 20 -19q34 16 96 49q38 -19 105 -55q15 0 19.5 3t9.5 17q-38 35 -88 73l-21 13q-10 7 -12 8q-2 0 -14 -3z" />
    <glyph glyph-name="Idieresis" unicode="&#xcf;" horiz-adv-x="285" 
d="M254 678q0 -37 -103 -73q23 -197 23 -345q0 -98 -9 -182q44 14 58 14q24 0 24 -25l-12 -26q-41 -11 -117 -45.5t-94 -38.5q-2 -1 -11 -1q-20 0 -20 30q0 14 52 43q41 23 68 33q3 75 3 158q0 222 -21 361q-51 -19 -64 -19q-25 0 -25 26q0 20 24 30q84 21 194 88q5 2 8 2
q8 0 15 -10.5t7 -19.5zM10 764q0 16 12 27t28 11q17 0 29 -11t12 -27q0 -15 -12 -26.5t-29 -11.5q-16 0 -28 11.5t-12 26.5zM152 762q0 16 11.5 27t27.5 11q17 0 28.5 -11t11.5 -27t-11.5 -27t-28.5 -11q-16 0 -27.5 11t-11.5 27z" />
    <glyph glyph-name="Igrave" unicode="&#xcc;" horiz-adv-x="285" 
d="M254 678q0 -37 -103 -73q23 -197 23 -345q0 -98 -9 -182q44 14 58 14q24 0 24 -25l-12 -26q-41 -11 -117 -45.5t-94 -38.5q-2 -1 -11 -1q-20 0 -20 30q0 14 52 43q41 23 68 33q3 75 3 158q0 222 -21 361q-51 -19 -64 -19q-25 0 -25 26q0 20 24 30q84 21 194 88q5 2 8 2
q8 0 15 -10.5t7 -19.5zM96 850l134 -111l-6 -14l-23 -6l-197 101l8 24l55 29z" />
    <glyph glyph-name="Oacute" unicode="&#xd3;" horiz-adv-x="460" 
d="M414 111q0 -28 -77 -40q-51 -7 -102 -13q-25 -5 -106 -46q-77 -39 -86 -39q-42 0 -42 82q0 50 16.5 167.5t16.5 167.5q0 29 -24 187q-2 12 12.5 25.5t25.5 13.5q17 0 19 -3t2 -21q113 44 286 105q12 3 13 3q26 0 26 -42q0 -47 -14 -139.5t-14 -138.5q0 -39 24 -134.5
t24 -134.5zM338 155q0 27 -12 110q-12 80 -11 112l4 123q1 13 5 40t4 40q0 36 -17 36q-7 0 -31 -10q-39 -15 -100 -29q-94 -21 -101 -23v-27q0 -37 7.5 -110t7.5 -109q0 -26 -3.5 -98t-3.5 -98q0 -40 27 -40q32 0 118 23q106 29 106 60zM221 810l-133 -111l6 -14l23 -6
l197 101l-8 24l-56 29z" />
    <glyph glyph-name="Ocircumflex" unicode="&#xd4;" horiz-adv-x="460" 
d="M414 111q0 -28 -77 -40q-51 -7 -102 -13q-25 -5 -106 -46q-77 -39 -86 -39q-42 0 -42 82q0 50 16.5 167.5t16.5 167.5q0 29 -24 187q-2 12 12.5 25.5t25.5 13.5q17 0 19 -3t2 -21q113 44 286 105q12 3 13 3q26 0 26 -42q0 -47 -14 -139.5t-14 -138.5q0 -39 24 -134.5
t24 -134.5zM338 155q0 27 -12 110q-12 80 -11 112l4 123q1 13 5 40t4 40q0 36 -17 36q-7 0 -31 -10q-39 -15 -100 -29q-94 -21 -101 -23v-27q0 -37 7.5 -110t7.5 -109q0 -26 -3.5 -98t-3.5 -98q0 -40 27 -40q32 0 118 23q106 29 106 60zM184 827q-18 -5 -109 -70
q-6 -7 -6 -16q0 -19 20 -19q34 16 96 49q38 -19 105 -55q15 0 19.5 3t9.5 17q-38 35 -88 73l-21 13q-10 7 -12 8q-2 0 -14 -3z" />
    <glyph glyph-name="Ograve" unicode="&#xd2;" horiz-adv-x="460" 
d="M414 111q0 -28 -77 -40q-51 -7 -102 -13q-25 -5 -106 -46q-77 -39 -86 -39q-42 0 -42 82q0 50 16.5 167.5t16.5 167.5q0 29 -24 187q-2 12 12.5 25.5t25.5 13.5q17 0 19 -3t2 -21q113 44 286 105q12 3 13 3q26 0 26 -42q0 -47 -14 -139.5t-14 -138.5q0 -39 24 -134.5
t24 -134.5zM338 155q0 27 -12 110q-12 80 -11 112l4 123q1 13 5 40t4 40q0 36 -17 36q-7 0 -31 -10q-39 -15 -100 -29q-94 -21 -101 -23v-27q0 -37 7.5 -110t7.5 -109q0 -26 -3.5 -98t-3.5 -98q0 -40 27 -40q32 0 118 23q106 29 106 60zM156 830l134 -111l-6 -14l-23 -6
l-197 101l8 24l55 29z" />
    <glyph glyph-name="Uacute" unicode="&#xda;" horiz-adv-x="550" 
d="M549 192q0 -15 -76.5 -98.5t-93.5 -83.5q-18 0 -27 77q-10 88 -12 93q-80 -56 -159 -113q-131 -91 -146 -91q-9 0 -17.5 7.5t-8.5 17.5q0 24 9 66l14 66q44 225 44 385q0 15 -10 29q-7 -5 -32.5 -36t-29.5 -31q-12 0 -12 17q0 25 40 76.5t66 64.5q28 -8 28 -161
q0 -59 -3 -177t-3 -176q0 -15 13 -23q105 38 208 135l-3 64v305q0 32 10 61q13 40 39 40q14 0 29.5 -20.5t15.5 -34.5v-102q0 -65 -15.5 -196.5t-15.5 -196.5q0 -21 22 -21q20 0 56 37.5t52 37.5q18 0 18 -18zM261 820l-133 -111l6 -14l23 -6l197 101l-8 24l-56 29z" />
    <glyph glyph-name="Ucircumflex" unicode="&#xdb;" horiz-adv-x="550" 
d="M549 192q0 -15 -76.5 -98.5t-93.5 -83.5q-18 0 -27 77q-10 88 -12 93q-80 -56 -159 -113q-131 -91 -146 -91q-9 0 -17.5 7.5t-8.5 17.5q0 24 9 66l14 66q44 225 44 385q0 15 -10 29q-7 -5 -32.5 -36t-29.5 -31q-12 0 -12 17q0 25 40 76.5t66 64.5q28 -8 28 -161
q0 -59 -3 -177t-3 -176q0 -15 13 -23q105 38 208 135l-3 64v305q0 32 10 61q13 40 39 40q14 0 29.5 -20.5t15.5 -34.5v-102q0 -65 -15.5 -196.5t-15.5 -196.5q0 -21 22 -21q20 0 56 37.5t52 37.5q18 0 18 -18zM204 827q-18 -5 -109 -70q-6 -7 -6 -16q0 -19 20 -19
q34 16 96 49q38 -19 105 -55q15 0 19.5 3t9.5 17q-38 35 -88 73l-21 13q-10 7 -12 8q-2 0 -14 -3z" />
    <glyph glyph-name="Ugrave" unicode="&#xd9;" horiz-adv-x="550" 
d="M549 192q0 -15 -76.5 -98.5t-93.5 -83.5q-18 0 -27 77q-10 88 -12 93q-80 -56 -159 -113q-131 -91 -146 -91q-9 0 -17.5 7.5t-8.5 17.5q0 24 9 66l14 66q44 225 44 385q0 15 -10 29q-7 -5 -32.5 -36t-29.5 -31q-12 0 -12 17q0 25 40 76.5t66 64.5q28 -8 28 -161
q0 -59 -3 -177t-3 -176q0 -15 13 -23q105 38 208 135l-3 64v305q0 32 10 61q13 40 39 40q14 0 29.5 -20.5t15.5 -34.5v-102q0 -65 -15.5 -196.5t-15.5 -196.5q0 -21 22 -21q20 0 56 37.5t52 37.5q18 0 18 -18zM186 820l134 -111l-6 -14l-23 -6l-197 101l8 24l55 29z" />
    <glyph glyph-name="circumflex" unicode="&#x2c6;" horiz-adv-x="347" 
d="M154 827q-18 -5 -109 -70q-6 -7 -6 -16q0 -19 20 -19q34 16 96 49q38 -19 105 -55q15 0 19.5 3t9.5 17q-38 35 -88 73l-21 13q-10 7 -12 8q-2 0 -14 -3z" />
    <glyph glyph-name="tilde" unicode="&#x2dc;" horiz-adv-x="314" 
d="M17 746q46 57 90 57q11 0 39 -15.5t52 -15.5q26 0 37 26q2 1 22 1q4 0 11 -4t7 -8q0 -8 -25 -30.5t-36 -27.5q-17 -9 -39 -3q-20 5 -40 9q-23 7 -36 17q-25 0 -31 -4q-2 -1 -20 -24q-29 4 -31 22z" />
    <glyph glyph-name="macron" unicode="&#xaf;" horiz-adv-x="199" 
d="M16 762h123q20 0 20 -20v-1q0 -20 -20 -20h-123q-20 0 -20 20v1q0 20 20 20z" />
    <glyph glyph-name="macron" unicode="&#x2c9;" horiz-adv-x="199" 
d="M16 762h123q20 0 20 -20v-1q0 -20 -20 -20h-123q-20 0 -20 20v1q0 20 20 20z" />
    <glyph glyph-name="cedilla" unicode="&#xb8;" horiz-adv-x="215" 
d="M186 -106q0 -2 -7.5 -25t-9.5 -27t-27 -15t-33 -11q-64 0 -66 2t-16 9.5t-14 8.5q0 10 7 15q14 12 17 14h37l37 6q9 18 9 23t-5.5 14.5t-11.5 11.5q-26 9 -38 9q-5 0 -43 -6q-3 11 -3 37q0 3 20 41l21 37l37 -3q-35 -76 -29 -75q24 6 46 6q18 -2 33 -12q7 -5 14 -11
q25 -13 25 -49z" />
    <glyph glyph-name="Scaron" unicode="&#x160;" 
 />
    <glyph glyph-name="scaron" unicode="&#x161;" 
 />
    <glyph glyph-name="brokenbar" unicode="&#xa6;" 
 />
    <glyph glyph-name="Eth" unicode="&#xd0;" 
 />
    <glyph glyph-name="eth" unicode="&#xf0;" 
 />
    <glyph glyph-name="Yacute" unicode="&#xdd;" 
 />
    <glyph glyph-name="yacute" unicode="&#xfd;" 
 />
    <glyph glyph-name="Thorn" unicode="&#xde;" 
 />
    <glyph glyph-name="thorn" unicode="&#xfe;" 
 />
    <glyph glyph-name="minus" unicode="&#xad;" 
 />
    <glyph glyph-name="minus" unicode="&#x2212;" 
 />
    <glyph glyph-name="multiply" unicode="&#xd7;" 
 />
    <glyph glyph-name="onesuperior" unicode="&#xb9;" 
 />
    <glyph glyph-name="twosuperior" unicode="&#xb2;" 
 />
    <glyph glyph-name="threesuperior" unicode="&#xb3;" 
 />
    <glyph glyph-name="onehalf" unicode="&#xbd;" 
 />
    <glyph glyph-name="onequarter" unicode="&#xbc;" 
 />
    <glyph glyph-name="threequarters" unicode="&#xbe;" 
 />
    <glyph glyph-name="Lslash" unicode="&#x141;" 
 />
    <glyph glyph-name="lslash" unicode="&#x142;" 
 />
    <glyph glyph-name="HT" 
 />
    <glyph glyph-name="LF" 
 />
    <glyph glyph-name="nonmarkingreturn" 
 />
    <glyph glyph-name="Zcaron" unicode="&#x17d;" 
 />
    <glyph glyph-name="zcaron" unicode="&#x17e;" 
 />
    <glyph glyph-name="DLE" 
 />
    <glyph glyph-name="DC1" 
 />
    <glyph glyph-name="DC2" 
 />
    <glyph glyph-name="DC3" 
 />
    <glyph glyph-name="DC4" 
 />
    <glyph glyph-name="RS" 
 />
    <glyph glyph-name="US" 
 />
    <glyph glyph-name="notequal" unicode="&#x2260;" 
 />
    <glyph glyph-name="infinity" unicode="&#x221e;" 
 />
    <glyph glyph-name="lessequal" unicode="&#x2264;" 
 />
    <glyph glyph-name="greaterequal" unicode="&#x2265;" 
 />
    <glyph glyph-name="partialdiff" unicode="&#x2202;" horiz-adv-x="217" 
d="M7 223l51 47l4 304q1 21 -10 51q-17 2 -17 10q0 23 7 32q11 13 39 13q44 0 44 -67q0 -11 -4.5 -33t-3.5 -32l8 -216l53 49q3 3 13.5 -7.5t10.5 -14.5v-33q0 -2 -10 -10l-65 -51l7 -180q4 -102 -35 -102q-4 0 -8 2q-28 7 -33 26q-4 15 -3 92l2 107l-50 -39q-3 -2 -6.5 1.5
t-3.5 8.5v32q0 1 10 10z" />
    <glyph glyph-name="summation" unicode="&#x2211;" horiz-adv-x="452" 
d="M430 689q0 -58 -134 -120q-60 -27 -189 -69q-11 -90 -11 -134q-1 -13 7.5 -20.5t22.5 -4.5q15 3 170 50q5 2 42 19.5t39 17.5q31 -10 31 -44q0 -17 -6 -33l-20 -3q9 -70 25 -214q1 -6 1 -11q0 -32 -36 -38q-216 -9 -302 -107q-3 -4 -33 -58q-22 -41 -39 -41
q-18 0 -35.5 17.5t-17.5 35.5q0 104 395 217l-8 189q-41 0 -146 -37q-52 -19 -105 -37q-50 -2 -50 29q0 38 8 101q11 74 13 101q-24 7 -24 21q0 21 5.5 31.5t25.5 26.5l27 -5q17 -6 26 -6q62 0 126 39q32 20 95 74q48 41 67 43q30 -13 30 -30zM195 693q11 3 56 41l52 44
q4 5 4 10q0 15 -25 15q-51 -29 -88 -52q-38 23 -88 52q-16 0 -20.5 -3t-8.5 -17q28 -27 55 -55q44 -40 63 -35z" />
    <glyph glyph-name="product" unicode="&#x220f;" horiz-adv-x="345" 
d="M275 477q0 -36 -44 -64q-22 -14 -91 -41q-56 -23 -71 -40q-5 -5 -5 -47q0 -57 18 -57q25 0 68.5 24.5t62.5 24.5q41 0 41 -46q0 -8 -1 -22.5t-1 -20.5q0 -22 5 -64t5 -63q0 -12 -14.5 -24.5t-27.5 -13.5q-62 -4 -127.5 -40t-68.5 -36q-29 0 -29 27q0 25 71 61
q59 30 99 39q33 7 34 38l1 66q0 36 -15 36q-4 0 -58.5 -24t-67.5 -24q-43 0 -43 67q0 9 1 24v21q0 56 1 61q4 39 28 48q67 26 101 45q42 24 91 66q6 6 18 6q19 0 19 -27zM152 513q10 3 55 41q27 22 53 44q4 5 4 10q0 15 -26 15q-50 -29 -88 -52q-38 23 -88 52
q-15 0 -19.5 -3t-9.5 -17l56 -54q43 -41 63 -36z" />
    <glyph glyph-name="pi" unicode="&#x3c0;" horiz-adv-x="430" 
d="M519 660q0 -44 -43 -44q-27 0 -29.5 25.5t-11.5 25.5q-7 0 -23.5 -15.5t-24.5 -30.5q-41 -75 -61 -169q-18 -62 -44 -186q-3 -25 -3 -106q0 -4 12.5 -79t12.5 -80q0 -30 -10 -58q-15 -46 -46 -46q-51 0 -51 89q0 21 3 47.5t3 24.5q0 5 3.5 30.5t3.5 32.5v69q-3 41 -10 76
q-16 76 -49 150q-35 78 -73 120l-17 9q-2 -2 -14 -29q-8 -17 -24 -15q-24 3 -24 13q0 2 1.5 10t1.5 15q0 13 37 72q39 63 56 63q22 0 22 -25q0 -9 -3 -24t-2 -17q0 -15 9 -43q29 -44 77 -137q13 -31 52 -103v3q35 159 59 225q64 175 149 175q30 0 47 -22q14 -19 14 -46z
M291 820l-133 -111l6 -14l23 -6l197 101l-8 24l-56 29z" />
    <glyph glyph-name="integral" unicode="&#x222b;" horiz-adv-x="348" 
d="M331 -83q0 -11 -37 -50.5t-50 -39.5q-24 0 -29 50v68q0 142 3 176q-4 -3 -85 -68q-65 -52 -83 -52q-32 0 -32 41q0 18 4 57t3 59l-3 159q0 10 -9 31t-9 32q0 38 26 38q52 1 52 -134q0 -36 -4 -87.5t-4 -54.5q0 -47 18 -47q8 0 123 78q-5 46 -5 98q0 138 40 138
q10 0 19 -7t9 -16q-11 -363 -11 -370q0 -88 21 -88l27 11q16 -9 16 -22zM191 590l-133 -111l6 -14l23 -6l197 101l-8 24l-56 29z" />
    <glyph glyph-name="Omega" unicode="&#x3a9;" horiz-adv-x="486" 
d="M449 88q-69 -94 -163 -94q-88 0 -150.5 66.5t-82.5 177.5l-46 -13q-10 -3 -10 10v28q0 7 10 10l40 12q-3 23 -3 47q0 8 1 16l-35 -10q-10 -3 -10 10v28q0 8 10 10l38 11q16 122 80.5 198t157.5 76q83 0 148 -75q1 -4 1 -9q0 -27 -27 -27q-6 0 -12 3q-50 58 -110 58
q-63 0 -108 -52q-48 -55 -63 -152l177 50q10 3 10 -10v-28q0 -7 -10 -10l-182 -52q-2 -19 -2 -38q0 -13 1 -26l180 51q10 3 10 -10v-28q0 -7 -10 -10l-175 -50q15 -102 70 -160q50 -55 116 -55q52 0 109 77q9 12 21 12q23 0 23 -25q0 -8 -4 -17z" />
    <glyph glyph-name="Omega" unicode="&#x2126;" horiz-adv-x="486" 
d="M449 88q-69 -94 -163 -94q-88 0 -150.5 66.5t-82.5 177.5l-46 -13q-10 -3 -10 10v28q0 7 10 10l40 12q-3 23 -3 47q0 8 1 16l-35 -10q-10 -3 -10 10v28q0 8 10 10l38 11q16 122 80.5 198t157.5 76q83 0 148 -75q1 -4 1 -9q0 -27 -27 -27q-6 0 -12 3q-50 58 -110 58
q-63 0 -108 -52q-48 -55 -63 -152l177 50q10 3 10 -10v-28q0 -7 -10 -10l-182 -52q-2 -19 -2 -38q0 -13 1 -26l180 51q10 3 10 -10v-28q0 -7 -10 -10l-175 -50q15 -102 70 -160q50 -55 116 -55q52 0 109 77q9 12 21 12q23 0 23 -25q0 -8 -4 -17z" />
    <glyph glyph-name="radical" unicode="&#x221a;" 
 />
    <glyph glyph-name="approxequal" unicode="&#x2248;" 
 />
    <glyph glyph-name="approxequal" unicode="&#x22f2;" 
 />
    <glyph glyph-name="Delta" unicode="&#x394;" 
 />
    <glyph glyph-name="Delta" unicode="&#x2206;" 
 />
    <glyph glyph-name="lozenge" unicode="&#x25ca;" 
 />
    <glyph glyph-name="fraction" unicode="&#x2044;" 
 />
    <glyph glyph-name="fi" unicode="&#xf001;" 
 />
    <glyph glyph-name="fl" unicode="&#xf002;" 
 />
    <glyph glyph-name="apple" unicode="&#xf000;" 
 />
    <glyph glyph-name="dotlessi" unicode="&#x131;" horiz-adv-x="182" 
d="M95 315q0 -157 -2 -195q-10 -160 -49 -160q-8 0 -23 9.5t-15 16.5q0 16 8 41q11 33 13 41q9 49 9 126q0 26 -2 79.5t-2 80.5q0 20 7 38q9 23 26 23q23 0 28 -41q2 -13 2 -59z" />
    <glyph glyph-name="breve" unicode="&#x2d8;" horiz-adv-x="214" 
d="M183 774q0 -26 -36 -46q-30 -16 -57 -16q-26 0 -54 16q-33 19 -33 46q4 10 17 10q9 0 16 -7q0 -12 24 -21q20 -7 33 -7q14 0 32 6q23 7 23 19q6 8 20 8q12 0 15 -8z" />
    <glyph glyph-name="dotaccent" unicode="&#x2d9;" horiz-adv-x="175" 
d="M53 814q24 0 40.5 -16.5t16.5 -40.5t-16.5 -40.5t-40.5 -16.5t-40.5 16.5t-16.5 40.5t16.5 40.5t40.5 16.5z" />
    <glyph glyph-name="ring" unicode="&#x2da;" horiz-adv-x="169" 
d="M63 824q24 0 40.5 -16.5t16.5 -40.5t-16.5 -40.5t-40.5 -16.5t-40.5 16.5t-16.5 40.5t16.5 40.5t40.5 16.5zM63 799q-32 0 -32 -32t32 -32t32 32t-32 32z" />
    <glyph glyph-name="hungarumlaut" unicode="&#x2dd;" horiz-adv-x="287" 
d="M80 809l-86 -66q1 -4 6 -14q3 -6 23 -6q2 0 64.5 38t62.5 40q0 1 -9 7t-9 8t-26 8zM201 809l-86 -67q1 -4 5 -14q3 -6 23 -6q3 0 65 38t62 40q0 1 -8.5 7t-8.5 8t-26 8z" />
    <glyph glyph-name="ogonek" unicode="&#x2db;" horiz-adv-x="166" 
d="M146 -143q-8 -19 -30 -34t-42 -15q-31 0 -50.5 34t-19.5 78t19.5 78t50.5 34v-25q-14 0 -17 -21q-3 -15 -3 -63q0 -36 11 -54q7 -12 15 -12q38 0 46 17z" />
    <glyph glyph-name="caron" unicode="&#x2c7;" horiz-adv-x="452" 
d="M202 683q10 3 55 41q27 22 53 44q4 5 4 10q0 15 -26 15q-50 -29 -88 -52q-38 23 -88 52q-15 0 -19.5 -3t-9.5 -17l56 -54q43 -41 63 -36z" />
    </font>
</defs>
</svg>
