<?xml version="1.0" standalone="no"?>
<!DOCTYPE svg PUBLIC "-//W3C//DTD SVG 1.1//EN" "http://www.w3.org/Graphics/SVG/1.1/DTD/svg11.dtd" >
<svg>
<metadata>
Created by FontForge 20120731 at Wed Apr 17 21:24:41 2019
 By www-data
Digitized by Dan X. Solo. Software (c)2000 by Dover Publications, Inc., New York.
</metadata>
<defs>
<font id="RansomNoteReversedNormal" horiz-adv-x="423" >
  <font-face 
    font-family="Ransom Note Reversed"
    font-weight="400"
    font-stretch="normal"
    units-per-em="1000"
    panose-1="0 0 4 0 0 0 0 0 0 0"
    ascent="800"
    descent="-200"
    x-height="645"
    cap-height="801"
    bbox="-71 -210 944 892"
    underline-thickness="20"
    underline-position="-123"
    unicode-range="U+0020-F002"
  />
<missing-glyph horiz-adv-x="500" 
d="M63 0v800h375v-800h-375zM125 63h250v675h-250v-675z" />
    <glyph glyph-name=".notdef" horiz-adv-x="500" 
d="M63 0v800h375v-800h-375zM125 63h250v675h-250v-675z" />
    <glyph glyph-name=".null" horiz-adv-x="0" 
 />
    <glyph glyph-name="nonmarkingreturn" horiz-adv-x="254" 
 />
    <glyph glyph-name="space" unicode=" " horiz-adv-x="254" 
 />
    <glyph glyph-name="exclam" unicode="!" horiz-adv-x="422" 
d="M435 157q-21 -42 -21 -140l-52 -1h-75q-22 0 -81 6q-52 4 -83 3l-21 19l-15 99l1 29q-14 26 -15 29q0 4 1 27q-54 61 -54 144q0 16 -10 53l12 38q0 16 -10.5 51.5t-10.5 52.5q0 15 7.5 43.5t7.5 39.5q0 41 -50 124q30 4 85 4q6 0 16.5 -2.5t15.5 -2.5q9 0 17 5
q30 -10 64 -10q12 0 39 2t43 2l24 -4q16 -18 41 -57l11 -4l11 3l33 -12l8 -27q0 -26 -13.5 -75.5t-13.5 -77.5l4 -20l12 -8q1 -6 21 -41q11 -20 21 -71q12 -55 20 -73q5 -10 5 -68q0 -61 5 -80zM249 514q0 30 -9 81l-98 -4l3 -71q6 -48 25 -143l2 -20q2 -15 8 -16
q32 -4 49 4q20 88 20 169zM258 182l-3 98l-92 2v-103z" />
    <glyph glyph-name="quotedbl" unicode="&#x22;" horiz-adv-x="405" 
d="M373 44q-5 0 -39 -5q-23 -4 -59 -4q-3 0 -8.5 1.5t-8.5 1.5q-4 0 -15.5 -4.5t-14.5 -4.5t-9.5 4.5t-9.5 4.5t-10.5 -4.5t-10.5 -4.5q-4 0 -4 2v0q0 1 -4 1q-3 0 -15.5 -7t-15.5 -7t-8 2t-8 2h-13q-9 -1 -13 -1q-3 0 -7.5 3.5t-6.5 3.5q-22 2 -61 14q-26 15 -30 39l9 409
q6 21 16 61q6 19 6 25q0 97 -1 83q1 16 3 21q5 12 18 12l272 3q4 0 24.5 -1.5t30.5 -2.5q8 -4 12 -17q3 -13 0 -23q6 -7 5 -16q-2 -10 -3 -19q-3 -27 0 -71q0 -4 6 -53q6 -44 6 -68q0 -1 -7 -23q2 -75 2 -222q1 -148 -2 -150q-3 0 -12.5 7.5t-13.5 7.5zM260 356l18 263h-72
l14 -260zM140 356l18 263h-72l14 -260z" />
    <glyph glyph-name="numbersign" unicode="#" horiz-adv-x="519" 
d="M548 683q0 -12 -6.5 -35.5t-6.5 -35.5q0 -33 -23.5 -117.5t-23.5 -142.5q0 -23 -4 -96q-4 -59 -1 -95l1 -17q-12 -15 -12 -58q0 -12 -11 -78q-17 -16 -55 -27q-33 -9 -61 -9q-20 0 -58 9q-29 6 -58 13q-88 17 -144 17l-31 -3l-38 20q-4 21 -27 42v150l9 21q4 126 7 252
q5 156 33 246q26 12 33 29l22 -8l62 11q7 0 21 -5.5t21 -5.5q8 0 24.5 4t25.5 4q8 0 15 -2q4 2 91.5 21.5t92.5 19.5q14 0 40 -6q33 -8 41 -9q13 -13 13 -31q0 -10 -2 -16q10 -42 10 -62zM461 557h-72l29 151h-66l-30 -151h-103l29 151h-66l-30 -151h-62l-12 -59h62
l-47 -221h-63l-12 -59h63l-34 -173h66l35 173h103l-34 -173h66l35 173h72l12 59h-73l48 221h72zM300 498l-47 -221h-104l48 221h103z" />
    <glyph glyph-name="dollar" unicode="$" horiz-adv-x="358" 
d="M380 115q-6 -10 -29 -12h-34l-284 -20q-42 -3 -42 25v102q16 27 16 74q0 24 -7 36q1 9 6 44q5 28 5 45q0 16 -6.5 52t-5.5 55q1 11 5 37q3 23 3 36q0 16 -13 54q7 16 12 55q4 35 18 56q29 9 33 23l7 -2q8 0 17.5 15.5t20.5 15.5q4 0 16.5 -7t17.5 -7q36 0 70 26l20 -3
l41 8l16 -15l-6 -20l2 -34l4 -6l-1 -20q16 -26 16 -36q0 -2 -1.5 -12t-1.5 -21q0 -33 19 -98.5t19 -100.5q0 -22 9 -68t9 -71q0 -21 8.5 -62.5t8.5 -63.5q0 -15 5 -40q6 -32 7 -40zM170 484q-48 48 -48 93q0 27 6 37q8 15 34 15q16 0 27 -10.5t11 -23.5q0 -4 3 -46l63 2
l-3 26q-11 58 -25 82q-21 37 -64 39l1 40h-54q-1 -6 4 -45q-33 -14 -54 -52q-19 -34 -19 -70q0 -61 52 -120q35 -38 71 -77q35 -47 35 -97q0 -17 -13.5 -28.5t-31.5 -11.5q-40 0 -49 35q-3 27 -5 54l-61 -2q0 -66 18 -100q22 -43 78 -51l4 -57h56l-4 64q43 20 58 39
q19 25 19 73q0 62 -33 109q-12 18 -76 83z" />
    <glyph glyph-name="percent" unicode="%" horiz-adv-x="590" 
d="M585 631q0 -9 8.5 -34t8.5 -35q0 -27 -12.5 -89.5t-12.5 -108.5q0 -21 -4 -63.5t-4 -63.5q0 -14 1 -26l1 -14q-14 -11 -14 -46q0 -23 -16 -68q-99 -19 -136 -19q-38 0 -141 13.5t-171 13.5l-37 -3l-28 36q-2 7 -11 9q-13 2 -19 5l-13 134l3 3q13 116 35 411q14 1 25 2
q25 3 28 9l27 -7l74 9q9 0 25.5 -4.5t24.5 -4.5q10 0 30 3.5t30 3.5t18 -2q5 1 110.5 17t110.5 16q16 0 28 -4.5t26 -5.5q15 -11 15 -25q0 -8 -2 -13q1 -3 1 -7q0 -7 -4.5 -21t-4.5 -21zM527 270q0 69 -31.5 119.5t-83.5 50.5q-43 0 -73 -55q-27 -49 -27 -105q0 -21 12 -75
l-5 -7q44 -81 85 -81q40 0 75 28q43 34 43 90q0 6 2.5 17.5t2.5 17.5zM471 659h-52l-318 -537l47 -2zM247 486q0 69 -31.5 119.5t-83.5 50.5q-43 0 -73 -55q-27 -49 -27 -105q0 -21 12 -75l-5 -7q44 -81 85 -81q40 0 75 28q43 34 43 90q0 6 2.5 17.5t2.5 17.5zM464 286
q0 -24 -7 -54q-9 -39 -21 -42q-2 1 -9 1l-4 -5l-2 -2q-17 0 -32 23t-15 49q0 122 44 122l5 -3t9 -3q10 0 21 -30t11 -56zM184 502q0 -24 -7 -54q-9 -39 -21 -42q-2 1 -9 1l-4 -5l-2 -2q-17 0 -32 23t-15 49q0 122 44 122l5 -3t9 -3q10 0 21 -30t11 -56z" />
    <glyph glyph-name="ampersand" unicode="&#x26;" horiz-adv-x="502" 
d="M406 168l-34 60q-31 57 -29 67q9 26 18 57l38 96h-75l-31 -73q-31 55 -30 67q1 9 25 49.5t29 88.5q4 34 -10 65q-21 45 -73 49q-48 3 -80 -32q-26 -28 -30 -62q-1 -9 -1 -19q0 -46 25 -103t25 -58q-14 -23 -22 -42q-23 -49 -27 -82q-4 -38 8 -74q20 -58 76 -61
q36 -3 55 4t36 29q3 4 9.5 -14t10.5 -18q12 -1 46 2.5t41 3.5zM243 567q-5 -39 -24 -50l-11.5 23t-12.5 26q-1 6 2 30q2 15 4 20q5 9 19 11q29 -5 23 -60zM264 260q-2 -19 -37 -17q-32 2 -26 56q1 6 15 51q49 -77 48 -90zM495 15q-55 10 -162 25q-24 2 -65 -1q-33 -3 -65 -5
l-48 21l-11 -2l-23 6q-12 21 -36 61q-2 0 -28 3q-16 3 -24 12l-4 29q2 25 16.5 73t17.5 75q1 13 -10.5 38.5t-20.5 34.5q0 7 -12 71q-13 69 -17 76q1 30 4 92q3 35 -6 55q25 49 29 134l351 -31l39 -7l16 -19q0 -9 -2 -30.5t-1 -32.5q1 -17 6 -31q-3 -10 -5 -23q0 -8 8 -28.5
t5 -43.5q43 -66 43 -163q0 -17 -2 -34q0 -6 -7 -18.5t-8 -19.5q-4 -50 11 -107q-4 -15 -9 -46q-13 -13 -16 -37q-2 -27 12 -64q12 -32 24 -63z" />
    <glyph glyph-name="quotesingle" unicode="'" horiz-adv-x="241" 
d="M253 599q0 -2 -5 -34q-5 -35 -5 -43q0 -14 -6 -55t-6 -60q0 -23 6 -35q-13 -17 -25 -105q-11 -79 -11 -134q0 -13 1 -21q-15 -9 -47 -27l-168 -24q14 143 4 309q-1 12 19 43t20 44q0 -1 -2 48q-2 38 0 43q-20 46 -20 84q0 16 -3 56q-3 30 0 57l23 38v9l22 7q10 0 28 -6
t40 -6q12 0 43 6t45 6q29 0 38 -17q-16 -28 -11 -59zM140 476l18 263h-72l14 -260z" />
    <glyph glyph-name="parenleft" unicode="(" horiz-adv-x="300" 
d="M254 96q-76 130 -76 237q0 103 76 261l-12 12h-68q-43 -37 -69 -114q-23 -68 -23 -133q0 -62 25 -147q29 -97 67 -128h68zM306 424q0 -23 -3 -74.5t-3 -76.5l-1 -244l-26 15l-39 -5q-4 -1 -4 -2h4l8 -1l33 -1l-17 3l-30 -9l-19 9l-21 -9l-8 3l-31 -14q-15 8 -42 3
q-32 9 -65 18q-46 15 -45 42l14 409q1 13 11.5 42.5t10.5 43.5q0 19 -4.5 56.5t-4.5 54.5q0 4 9 4l192 4q69 2 69 -29q0 -7 -2 -15q6 -7 5 -13q-4 -24 -4 -51t6.5 -81t6.5 -82z" />
    <glyph glyph-name="parenright" unicode=")" horiz-adv-x="414" 
d="M176 670h-68l-12 -12q76 -158 76 -260q0 -107 -76 -237l12 -12h68q39 30 68 128q25 85 25 146q0 65 -23 133q-26 77 -70 114zM362 667q0 -6 -3.5 -20.5t-3.5 -22.5q0 -13 -10 -39t-10 -38q0 -13 5.5 -40.5t5.5 -41.5q0 -18 -9 -54.5t-9 -57.5q0 -5 -15 -63q7 -25 28 -76
q-9 -23 -9 -51q0 -13 3 -41.5t3 -43.5q0 -5 -4 -14.5t-4 -16.5q0 -8 4 -17q-35 -32 -96 -39q-25 -4 -107 -4q-38 0 -48 27q-4 12 -4 58q0 9 -23.5 58.5t-23.5 82.5q0 8 13 37l18 38q-4 9 -6 79q-11 8 -16 34t-19 33l-12 34q0 23 9 42q-11 28 8 57q-15 23 -18 30q-5 12 -5 35
q-8 11 -8 95l11 34q10 2 51 18q34 13 47 13l3 -5q27 13 83 22q43 7 87 14h-1q0 -3 24 -7q5 -12 19 -33q2 -20 22 -58.5t20 -57.5z" />
    <glyph glyph-name="asterisk" unicode="*" horiz-adv-x="357" 
d="M369 714q0 -77 -19 -129q-9 -24 -9 -63q0 -12 1 -37t1 -37q0 -33 -7 -53l-5 -11q6 -16 6 -20q0 -18 -12 -62t-13 -65q0 -9 4 -27.5t4 -27.5q0 -41 -19 -77q-20 -40 -54 -53l-6 3q-24 -34 -43 -34q-17 17 -51 17q-33 0 -61 -17q-19 4 -46 -3l-24 22q11 18 11 64
q0 25 -6 74t-6 74q0 8 -7 17q0 21 -3 63t-3 63q0 18 -4.5 54t-4.5 54q0 9 5 28.5t5 27.5q1 14 -3 39t-4 36v101l23 9q18 0 86 3q72 3 113 3q102 0 144 -16zM316 489q3 -1 3 16q0 8 -8 12q-23 0 -65 5q-26 5 -46 19q11 7 23 14q17 9 37 12q6 1 15 -1t13 -2q10 0 25 9
q7 13 0 24q-6 15 -24 40l-6.5 6t-12.5 6q-4 0 -7 -2q-12 -20 -38 -54q-17 -19 -39 -30q1 28 15 64q5 9 10 19t4 30q-7 13 -21 13q-44 0 -45 -0.5t-12.5 -4.5t-10.5 -14q11 -20 28 -59q8 -25 7 -50q-24 16 -49 46q-5 9 -11 18t-24 18q-15 0 -23 -12t-21 -40q-3 1 -3 -16
q0 -9 8 -12q22 -1 65 -5q25 -6 46 -19q-25 -13 -64 -19q-10 -1 -21 -1.5t-28 -11.5q-7 -13 0 -24q6 -15 24 -40l6.5 -6t12.5 -6q4 0 7 2q12 19 37 54q17 19 40 30v-27q-1 -19 -8 -37q-1 -3 -14 -19q-8 -11 -7 -30q7 -13 21 -13q43 0 46 1q0 -1 11.5 3.5t10.5 14.5
q-11 20 -28 59q-8 25 -7 49q12 -6 23 -13q17 -10 29 -25q2 -2 10 -21q4 -13 22 -22q15 0 21 11q10 13 23 41z" />
    <glyph glyph-name="plus" unicode="+" horiz-adv-x="622" 
d="M641 493q-18 -43 -31 -147q-12 -96 -33 -135q-2 -3 -17 -21q-11 -13 -11 -22q0 -80 -7 -106l-13 -9q-15 0 -58 -2q-37 -2 -59 -2q-284 0 -394 19q-19 3 -20 25q-1 27 -8 32q19 44 19 141q0 31 -2 85.5t-2 73.5q0 13 7 38.5t7 38.5q0 22 -3.5 68t-3.5 67v70l14 19h23
l38 -9q31 7 117 9q81 1 94 6l28 -9q5 3 40 6t53 12q127 -16 137 -19q75 -19 75 -66q0 -20 -6 -61t-6 -61q0 -12 22 -41zM540 299v115h-169v169h-115v-169h-169v-115h169v-169h115v169h169z" />
    <glyph glyph-name="comma" unicode="," horiz-adv-x="211" 
d="M238 789q0 -9 -13 -36q-1 -1 4 -22q-4 -5 -9 -12q-1 -92 -7 -198q-6 -9 -15 -28q-20 -73 -20 -92q0 8 9 -42q-1 -17 2 -51q9 -44 -9 -71q8 -9 22 -31q-1 -15 0 -48q1 -11 -10 -81.5t-9 -84.5l-168 -37q-37 5 -37 14q0 4 6.5 11t6.5 10q0 -4 2 68q1 63 0 76q-5 61 -4 70
q1 2 7.5 13t6.5 18q0 1 -2.5 5.5t-3.5 8.5q-2 10 6 70l6 48q-1 16 -1 45q4 8 9 25q2 10 -16 31.5t-19 31.5q-1 16 27 194q1 13 12.5 28.5t13.5 28.5v23q8 4 12 19.5t13 15.5q48 2 85 -8t41 -10q3 0 17.5 7.5t17.5 7.5q17 0 17 -17zM162 171q0 89 -73 89q-33 0 -52 -29
q-16 -24 -16 -54q0 -33 16 -55q19 -26 55 -26q4 -32 -44 -76q59 7 90 61q24 42 24 90z" />
    <glyph glyph-name="hyphen" unicode="-" horiz-adv-x="326" 
d="M361 207q0 -30 -23 -97q-6 -6 -13 -19q2 -15 -4 -43q-11 -17 -38 -17q-3 0 -14 2.5t-14 2.5q-2 0 -17 -5q-19 -6 -39 -9q-2 -1 -10 -6t-12 -5q-80 0 -117 -1q-3 -1 -7.5 -2t-25.5 -3q-14 -1 -22 7l-3 171q7 1 7 86q0 100 -9 289q-8 173 -10 173l282 1q13 -5 21 -15
q-10 -47 -1 -67q11 -26 9 -65l-2.5 -8.5t-1.5 -13.5q13 -30 13 -40q0 -13 -8 -25v-74q9 -8 22 -25q-3 -7 -4 -23q4 -28 24 -87q17 -49 17 -82zM285 315v115h-263v-115h263z" />
    <glyph glyph-name="hyphen" unicode="&#x2010;" horiz-adv-x="326" 
d="M361 207q0 -30 -23 -97q-6 -6 -13 -19q2 -15 -4 -43q-11 -17 -38 -17q-3 0 -14 2.5t-14 2.5q-2 0 -17 -5q-19 -6 -39 -9q-2 -1 -10 -6t-12 -5q-80 0 -117 -1q-3 -1 -7.5 -2t-25.5 -3q-14 -1 -22 7l-3 171q7 1 7 86q0 100 -9 289q-8 173 -10 173l282 1q13 -5 21 -15
q-10 -47 -1 -67q11 -26 9 -65l-2.5 -8.5t-1.5 -13.5q13 -30 13 -40q0 -13 -8 -25v-74q9 -8 22 -25q-3 -7 -4 -23q4 -28 24 -87q17 -49 17 -82zM285 315v115h-263v-115h263z" />
    <glyph glyph-name="period" unicode="." horiz-adv-x="264" 
d="M273 332q-22 -31 -22 -193q0 -51 4 -69q-14 -10 -45 -31l-201 14q1 45 7 116q4 62 4 103q0 42 -3 94q-1 12 4 42t4 44l-7 92q-13 24 -16 79q-2 24 1 144l-8 8v9q8 4 22 8q10 1 30.5 -2.5t41.5 -2.5q36 3 87 -9q60 -14 75 -37q-14 -29 -7 -59l28 -122q-3 -32 -4 -78
q1 -14 -2 -47q-3 -39 -3 -54q0 -34 10 -49zM172 200q0 33 -20.5 55t-48.5 22t-47 -22t-19 -55q0 -34 19.5 -57.5t47.5 -23.5t48 23.5t20 57.5z" />
    <glyph glyph-name="slash" unicode="/" horiz-adv-x="428" 
d="M428 500q0 -3 -6.5 -24.5t-7.5 -30.5q1 -10 0 -49q-1 -20 2 -61q3 -48 3 -62q0 -5 -4 -14q-6 -13 -7 -15q-1 -6 -1 -26q0 -40 1 -54q0 3 -2 -23q-1 -7 -4 -144q-3 -120 -9 -142q12 -18 3 -52q-6 -13 -39 -13q-4 0 -70 11.5t-70 11.5q-3 0 -8.5 -1.5t-8.5 -1.5t-25 6
t-25 6q-4 0 -5.5 -1.5t-4.5 -1.5q12 0 -170 30q-10 7 -10 12q0 3 3.5 10.5t4.5 9.5q8 126 27 289q0 1 4 9t4 13v38q0 19 3 40q5 7 10 20q1 17 -2 30t-3 17q0 7 5 19t6 18q8 54 10 114q1 96 9 262q7 32 21 95q4 23 -5 31v10q13 6 23 6q14 0 26.5 -10t15.5 -10t12 3t14 3
q3 0 22.5 -3t29.5 -4q9 -6 29 -15q35 -12 67 -12q2 0 12.5 2.5t15.5 2.5q29 0 85 -21q4 -2 9 -18t3 -20q-1 -3 -4 -9l-6 -100q-5 -83 -3 -101q3 -14 11.5 -45.5t8.5 -34.5zM69 -83l316 877l-64 21l-317 -877z" />
    <glyph glyph-name="zero" unicode="0" horiz-adv-x="391" 
d="M374 461q0 -2 2.5 -9.5t2.5 -11.5q0 -9 -9 -15zM275 374q0 10 -5 -42q1 2 2 -34q1 -22 -9 -41q-7 -12 -27 -12q-10 0 -23.5 9.5t-9.5 19.5l3 214q0 25 1 51q4 33 35 33q10 0 21.5 -6t11.5 -14v-178zM364 587h-10q-13 26 -59 41q-37 11 -75 11q-108 0 -108 -211
q0 -22 1 -56.5t1 -44.5q0 -149 127 -149q71 0 99 48q22 37 22 112q0 11 2.5 32.5t2.5 31.5l11 6v-70q0 -32 7 -94.5t7 -96.5l3 -2l-5 -9q10 -21 -5 -32l-26 -6l-6 2q-24 -11 -61 -11q-17 0 -80 -12t-96 -14l-11 -18h-9q-18 0 -18 35q0 13 3 36t3 27q0 57 -63 158
q1 14 -12.5 41t-13.5 41q0 5 4 19t4 15l-14 162q-1 13 8 42.5t8 45.5l26 -1q43 -1 124 8q85 9 124 9q47 0 56 -2q37 -5 37 -29q0 -29 -8 -65z" />
    <glyph glyph-name="one" unicode="1" horiz-adv-x="405" 
d="M373 44q-5 0 -39 -5q-23 -4 -59 -4q-3 0 -8.5 1.5t-8.5 1.5q-4 0 -15.5 -4.5t-14.5 -4.5t-9.5 4.5t-9.5 4.5t-10.5 -4.5t-10.5 -4.5q-4 0 -4 2v0q0 1 -4 1q-3 0 -15.5 -7t-15.5 -7t-8 2t-8 2h-13q-9 -1 -13 -1q-3 0 -7.5 3.5t-6.5 3.5q-22 2 -61 14q-26 15 -30 39l9 409
q6 21 16 61q6 19 6 25q0 97 -1 83q1 16 3 21q5 12 18 12l272 3q4 0 24.5 -1.5t30.5 -2.5q8 -4 12 -17q3 -13 0 -23q6 -7 5 -16q-2 -10 -3 -19q-3 -27 0 -71q0 -4 6 -53q6 -44 6 -68q0 -1 -7 -23q2 -75 2 -222q1 -148 -2 -150q-3 0 -12.5 7.5t-13.5 7.5zM269 90v174
q0 4 -3 21.5t-3 20.5v277h-72q-4 0 -12 -4q-5 -7 -15 -18l-40 -24q-1 -15 -1 -20q0 -19 6 -28q10 0 20 -1q14 -1 16 -7q4 -9 10 -74l3 -317h91z" />
    <glyph glyph-name="two" unicode="2" horiz-adv-x="445" 
d="M447 126q-7 -7 -10 -7q-4 0 -7 3t-6 3t-15 -14q-13 -17 -23 -22q-34 -18 -69 -18h-27h-37q-3 0 -7.5 2.5t-8.5 2.5t-42 -4t-41 -4q-57 0 -62 5v74l248 2q-2 20 -3 72q-1 1 -4 3q-43 1 -98 3q-14 0 -43 2q-7 1 -15 9q4 23 12 36q31 49 92 98q34 27 58 72.5t24 81.5
q0 3 -2 10t-3 9q-6 58 -55 86q-39 22 -93 22q-131 0 -131 -152q0 -16 5 -22q17 -4 60 -4q3 0 10.5 -1.5t10.5 -1.5q15 0 15 32v11q-1 7 -1 11q0 56 38 56q17 0 30 -19q10 -15 10 -30q0 -47 -66 -120q-83 -91 -101 -127h-10q-7 16 -31 41q-2 5 -1 9q-34 67 -33 92q4 10 3 14
q-6 20 -16 60q-17 93 -17 115q0 5 3.5 21.5t3.5 25.5q0 13 -7 20l353 7q41 0 76 -13q6 -16 7 -53q-1 -28 -1 -55q2 -26 8 -44q3 -9 -4 -35q3 -13 4 -34q-2 -22 2 -44q4 -26 4 -31q0 -76 6 -120q1 -7 -1 -21q-2 -17 -2 -24q0 -19 10 -33v-58z" />
    <glyph glyph-name="three" unicode="3" horiz-adv-x="357" 
d="M303 374q0 13 -31.5 38.5t-31.5 33.5q0 10 26 31.5t27 29.5q1 5 1 53q0 54 -4 60q-26 40 -74 65q-6 4 -21 4q-10 0 -25 -1l-15 -1l-15 1.5t-25 0.5q-14 0 -21 -4q-50 -29 -66 -65q-3 -9 -3 -67q0 -6 6 -13l52 3q25 0 36 4q1 43 5 48.5t35 5.5q37 0 44 -11v-94
q-8 -7 -11.5 -8.5t-11 -3t-11.5 -1.5h-17q-14 -1 -21 -1v-79q61 0 71 -11q3 -22 3 -58q0 -8 1 -19t1 -15q0 -21 -45 -21q-35 0 -40 10q-2 3 -3 56h-88q0 8 -4 -19q-3 -22 0 -57q1 -12 37 -44t52 -32h102q10 0 15 4q14 9 38.5 33t27.5 33.5t3 22.5q0 9 -2 31q-3 19 -2 30
q0 4 2.5 14t2.5 13zM369 714q0 -77 -19 -129q-9 -24 -9 -63q0 -12 1 -37t1 -37q0 -33 -7 -53l-5 -11q6 -16 6 -20q0 -18 -12 -62t-13 -65q0 -9 4 -27.5t4 -27.5q0 -41 -19 -77q-20 -40 -54 -53l-6 3q-24 -34 -43 -34q-17 17 -51 17q-33 0 -61 -17q-19 4 -46 -3l-24 22
q11 18 11 64q0 25 -6 74t-6 74q0 8 -7 17q0 21 -3 63t-3 63q0 18 -4.5 54t-4.5 54q0 9 5 28.5t5 27.5q1 14 -3 39t-4 36v101l23 9q18 0 86 3q72 3 113 3q102 0 144 -16z" />
    <glyph glyph-name="four" unicode="4" horiz-adv-x="364" 
d="M17 663l199 -45q27 -1 85 -10l12 -44q-11 -23 -11 -35q0 -4 5.5 -23t4.5 -23q-7 -34 -7 -26q0 -12 10 -30.5t11 -26.5t-2.5 -21t-3.5 -19q0 -31 12 -61q19 -45 22 -55q5 -17 2 -43q-3 -41 -3 -44q0 -7 7 -24t8 -23q-3 -18 4 -67q-23 -21 -32 -34q-5 -1 -43 -7
q-26 -5 -42 -5q-25 0 -77 5.5t-78 5.5l-65 -14l-28 42l14 32q-6 28 -10 123l5 4l13 -39q82 10 128 14q7 -10 12 -42q5 -37 10 -48h10q48 -2 63.5 3t15.5 22q0 5 -3.5 30t-3.5 45q11 4 33 14q-1 45 -2 49q-5 16 -33 16q-13 0 -25 90q-13 99 -22 110l-16 -2t-10 -8
q-8 -34 -30 -100q-16 -41 -16 -46t4 -17t4 -19l-3 -18q-18 -10 -45 -10l-18 4v11q0 22 32 124.5t32 155.5q0 23 -18 23q-22 0 -82 -14l-2 -5q2 -19 2 -47q0 -137 -31 -260q-22 14 -22 81l11 46q-8 20 -10 31q-1 9 0 22q1 19 1 30q0 8 -4.5 16t-4.5 12q2 9 -3 25q2 16 0 36
q-3 27 -3 36q0 2 2 44q1 28 -2 44q30 10 37 9z" />
    <glyph glyph-name="five" unicode="5" horiz-adv-x="443" 
d="M445 113q0 -22 -14 -27.5t-30 -11.5l1 -7q0 -9 -1 -15l-27 -12q-15 0 -46.5 4.5t-47.5 4.5q-10 0 -31 -3t-32 -3q-14 0 -42.5 -7t-42.5 -7q-21 0 -28 24q-3 20 -7 39l9 4q60 -25 103 -25q69 0 102 77q23 55 23 136q0 135 -106 135q-22 0 -54 -8l-7 12q6 42 12 65l17 4
l121 -14h12q6 12 8 35q1 18 3 36q-7 8 -227 32q-8 -17 -35 -249q14 -9 40 -12l41 -4q21 31 41 31q39 0 39 -59q0 -44 -8 -82q-13 -57 -40 -57q-37 0 -37 48q0 6 1 22q1 14 0 21v7q-8 8 -42 10q-24 2 -47 4q-10 -34 -11 -73h-10q-9 7 -2 46q-6 10 -22.5 86t-16.5 89
q0 6 -5.5 20.5t-5.5 23.5q0 26 -20 75.5t-20 75.5q0 32 27 32q28 0 66 -19q13 -6 122 -6q11 0 74 17q72 20 85 22l13 -5l34 5l7 -7l24 -5q9 -21 9 -57q-1 -49 0 -57q3 -29 11 -39q-4 -17 -4 -22q0 -34 6 -102t6 -102q0 -64 9 -86q-3 -9 -3 -18q0 -7 3 -20t3 -22z" />
    <glyph glyph-name="six" unicode="6" horiz-adv-x="414" 
d="M325 252q3 31 3 55q0 129 -89 139q-18 1 -33 -1q-4 -1 -13.5 -5.5t-12.5 -4.5q-11 1 -11 18q1 11 3 22q7 66 43 63q24 -3 30 -25q1 -14 6 -38q29 -3 85 -3q2 1 5 9q-2 6 -4 14q5 51 -35 81q-30 23 -76 28q-15 1 -29 1q-59 0 -86.5 -33t-34.5 -108l-14 -155q0 -8 -1 -31
q-1 -19 -1 -30q0 -85 54 -119q28 -18 63 -21q33 -4 59 3q43 10 60 35q21 32 29 106zM229 249q-7 -70 -42 -67q-18 2 -24.5 10.5t-11.5 33.5l8 98q6 59 45 55q26 -3 28 -18q4 -47 -3 -112zM415 -11l-20 -27h-32l-15 7q-42 -4 -102 3l-218 22q-26 3 -33 21q-2 8 -2 41
q0 414 29 633q17 16 34 33q10 7 45 7q11 0 53.5 6.5t63.5 6.5q22 0 32 -6l95 12q26 4 45 -17t19 -47q0 -49 -7 -146.5t-7 -145.5q0 -6 7.5 -28t7.5 -34q0 -14 -6.5 -36.5t-6.5 -35.5q0 -23 13.5 -55t13.5 -46q0 -20 -4 -62.5t-4 -64.5q0 -8 -7 -23z" />
    <glyph glyph-name="seven" unicode="7" horiz-adv-x="395" 
d="M278 581q0 25 -12 78h-22q18 -1 -202 -21q-2 -2 -6 -5q3 -21 3 -64l-3 -5h29q4 0 52.5 5.5t52.5 5.5q21 0 17 1q13 -2 13 -15q0 -2 -18 -58q-20 -61 -26 -91q-9 -42 -17 -83.5t-8 -104.5q0 -29 3 -43q10 -7 22 -7h18q20 0 42 9q5 6 11 12q1 47 4 117q6 62 9 82
q6 41 20 104q18 76 18 83zM414 658q0 -6 -2.5 -20.5t-2.5 -22.5q0 -13 -10 -39t-10 -38q0 -13 5.5 -40.5t5.5 -41.5q0 -18 -9 -54.5t-9 -56.5q0 -6 -15 -64q7 -25 28 -75q-11 -27 -11 -67q0 -21 4 -62t4 -58q0 -5 -4 -14.5t-4 -16.5q0 -8 4 -17q-8 -7 -82 -29t-84 -22h-64
q-59 0 -72 38q-3 11 -3 86q0 8 -30 99.5t-37 106.5l11 29q-5 9 -7 79q-10 8 -15 34t-19 33l-12 34q0 23 9 42q-11 28 8 57q-30 35 -24 65q-8 12 -38 95l12 34q35 9 70.5 19t65.5 10q17 0 35 -3q10 5 83.5 20.5t86.5 15.5q33 0 72 -7q6 -12 20 -33q2 -19 21 -58t19 -58z" />
    <glyph glyph-name="eight" unicode="8" horiz-adv-x="483" 
d="M405 325q0 43 -53 88q20 12 36.5 40.5t16.5 48.5q0 45 -58 77q-48 27 -89 27q-53 0 -66 -4q-93 -29 -93 -107q0 -22 15.5 -44.5t15.5 -25.5q0 1 -32 -27t-32 -59q0 -26 6 -43q4 -10 15 -25q7 -10 45.5 -32t55.5 -22q3 0 29.5 -3t29.5 -3q55 0 97 21q61 30 61 93zM311 491
q0 -24 -18.5 -36.5t-43.5 -12.5q-23 0 -43 13.5t-20 36.5q0 50 68 50q16 0 36.5 -17t20.5 -34zM305 336q0 -21 -18.5 -35.5t-35.5 -15.5l-7 -4q-31 0 -53 17q-25 19 -25 47q0 21 26 37q21 13 38 13q29 0 52 -15.5t23 -43.5zM466 140q-17 -9 -66 -31q-54 -23 -63 -23
q-13 0 -39 7q-30 8 -39 9q-32 4 -83 1q-70 -4 -83 -4t-26 24l1 22q0 21 -13.5 55.5t-11.5 56.5q-16 22 -18 32q-1 1 -1 34q0 29 -8 82.5t-8 79.5q0 31 -14 94t-14 93q0 48 31 48q19 0 53 -18.5t53 -18.5q10 0 20 3q40 -14 73 -14q21 0 63 9.5t63 9.5q18 0 34 -5l14 6
q19 -6 58 -6q17 0 17 -33q0 -10 -1.5 -25.5t-1.5 -17.5q0 -71 10 -80v-390z" />
    <glyph glyph-name="nine" unicode="9" 
d="M349 299q0 3 -4 33t-4 39q-4 93 -8 139q-1 15 -4 39q-4 14 -8 29.5t-15 25.5q-6 7 -19 17q-36 21 -56 21q-71 0 -102.5 -32t-31.5 -103q0 -3 3 -36q3 -38 4 -50q1 -19 19 -52q22 -41 48 -41h25q18 0 30 4q4 1 12 7t11 6q14 0 14 -53q0 -44 -36 -44q-4 0 -16 7t-14 15.5
t-7 26.5h-42q-27 1 -28 1q-3 0 -9 -7v-20q0 -37 37.5 -63.5t78.5 -26.5q25 0 56 13q35 15 50.5 37t15.5 68zM255 421q0 -13 -15 -22q-11 -7 -18 -7q-42 0 -42 129q0 28 3 37q7 17 30 17q28 0 34 -33q2 -23 5 -46q0 -40 1.5 -59.5t1.5 -15.5zM437 670q0 -44 -15 -133
t-15 -133q0 -18 -5 -54t-5 -54q0 -12 1 -22q-4 -7 -8 -60.5t-2 -61.5q-27 -38 -136 -38q-23 0 -68.5 6.5t-69.5 6.5q-13 0 -25 -2q-6 8 -6 28q0 13 2.5 36.5t2.5 30.5q0 20 -35.5 97t-35.5 76q-21 42 -23 55q-1 7 -1 58q0 20 -10.5 59.5t-10.5 58.5q0 21 8 55q10 38 11 54
q2 -5 90 -15l265 -32q42 -5 71 -10q20 -4 20 -6z" />
    <glyph glyph-name="colon" unicode=":" horiz-adv-x="264" 
d="M273 332q-22 -31 -22 -193q0 -51 4 -69q-14 -10 -45 -31l-201 14q1 45 7 116q4 62 4 103q0 42 -3 94q-1 12 4 42t4 44l-7 92q-13 24 -16 79q-2 24 1 144l-8 8v9q8 4 22 8q10 1 30.5 -2.5t41.5 -2.5q36 3 87 -9q60 -14 75 -37q-14 -29 -7 -59l28 -122q-3 -32 -4 -78
q1 -14 -2 -47q-3 -39 -3 -54q0 -34 10 -49zM172 500q0 33 -20.5 55t-48.5 22t-47 -22t-19 -55q0 -34 19.5 -57.5t47.5 -23.5t48 23.5t20 57.5zM172 200q0 33 -20.5 55t-48.5 22t-47 -22t-19 -55q0 -34 19.5 -57.5t47.5 -23.5t48 23.5t20 57.5z" />
    <glyph glyph-name="semicolon" unicode=";" horiz-adv-x="211" 
d="M238 789q0 -9 -13 -36q-1 -1 4 -22q-4 -5 -9 -12q-1 -92 -7 -198q-6 -9 -15 -28q-20 -73 -20 -92q0 8 9 -42q-1 -17 2 -51q9 -44 -9 -71q8 -9 22 -31q-1 -15 0 -48q1 -11 -10 -81.5t-9 -84.5l-168 -37q-37 5 -37 14q0 4 6.5 11t6.5 10q0 -4 2 68q1 63 0 76q-5 61 -4 70
q1 2 7.5 13t6.5 18q0 1 -2.5 5.5t-3.5 8.5q-2 10 6 70l6 48q-1 16 -1 45q4 8 9 25q2 10 -16 31.5t-19 31.5q-1 16 27 194q1 13 12.5 28.5t13.5 28.5v23q8 4 12 19.5t13 15.5q48 2 85 -8t41 -10q3 0 17.5 7.5t17.5 7.5q17 0 17 -17zM159 437q0 32 -17.5 55t-42.5 23
t-42.5 -23t-17.5 -55q0 -33 17.5 -56t42.5 -23t42.5 23t17.5 56zM162 171q0 89 -73 89q-33 0 -52 -29q-16 -24 -16 -54q0 -33 16 -55q19 -26 55 -26q4 -32 -44 -76q59 7 90 61q24 42 24 90z" />
    <glyph glyph-name="less" unicode="&#x3c;" horiz-adv-x="19" 
 />
    <glyph glyph-name="equal" unicode="=" horiz-adv-x="579" 
d="M601 207q-3 -24 -23 -97q-6 -6 -13 -19q2 -15 -4 -43q-11 -17 -38 -17q-3 0 -14 2.5t-14 2.5q-2 0 -17 -5q-19 -6 -39 -9q-3 -1 -109.5 -6t-112.5 -5q-80 0 -117 -1q-3 -1 -8 -2t-46 -3q-32 -2 -41 7l-3 171q7 1 7 86q0 100 -9 289q-8 173 -10 173l522 1q18 -5 41 -15
q-10 -47 -1 -67q11 -26 9 -65l-2.5 -8.5t-1.5 -13.5q13 -30 13 -40q0 -13 -8 -25v-74q9 -8 22 -25q-13 -7 -24 -23q10 -62 41 -169zM525 215v75h-463v-75h463zM525 355v75h-463v-75h463z" />
    <glyph glyph-name="greater" unicode="&#x3e;" horiz-adv-x="14" 
 />
    <glyph glyph-name="question" unicode="?" horiz-adv-x="420" 
d="M423 504q-11 -43 -20 -147q-8 -96 -22 -135q-1 -4 -11 -21q-7 -13 -7 -23q0 -79 -5 -106l-9 -9q-10 0 -39 -2q-25 -1 -39 -1q-190 0 -263 18q-13 3 -13.5 27.5t-4.5 30.5q12 44 12 140q0 31 -1.5 86t-1.5 73q0 13 5 38.5t5 38.5q0 23 -2.5 68.5t-2.5 67.5v69l10 19h15
l25 -8q21 7 78 8q54 1 63 6l19 -8q3 2 26 5.5t35 11.5q85 -16 92 -18q50 -19 50 -67q0 -20 -4 -61t-4 -60q0 -13 14 -41zM166 246q0 13 -7 18q-50 4 -41 5l-19 2v-88q41 -6 45 -6q17 0 17 23q0 5 -1 12.5l-1 7.5q5 1 6.5 5.5t1.5 11.5zM336 572q-2 30 -40.5 57.5t-69.5 27.5
q-67 0 -95 -26q-31 -28 -44 -111q37 -14 48 -14h19q16 82 60 82q43 0 43 -42q0 -36 -61 -85q-66 -54 -72 -100q0 -4 -5 -15t-5 -16v-22q30 -7 40 -7q18 0 27 23q4 12 15 35q17 23 59 57t57 54q25 34 25 76q0 13 -1 26z" />
    <glyph glyph-name="at" unicode="@" horiz-adv-x="514" 
d="M520 40q-19 -12 -46 -12q-4 0 -18.5 4.5t-17.5 4.5t-7.5 -1.5t-8.5 -1.5t-14 6.5t-15.5 7.5t-79.5 24q-26 7 -80 7q-60 -1 -114 12q-19 5 -38 9q-33 9 -36.5 16t-3.5 33q0 3 17.5 23t17.5 24q0 3 -16 23.5t-16 24.5q0 3 16 10.5t16 11.5q0 1 -22 30t-22 37q0 4 6 20.5
t6 19.5q0 4 -5 14t-6 14q0 4 3.5 15t3.5 15q0 9 -13 32l-20 34q3 15 0 26q-4 14 -4 12q0 4 6 25.5t6 25.5q0 3 -9 31t-9 31q0 11 5 26t5 20q0 8 -6 13q-1 3 -1 11q5 3 61.5 12t67.5 9q3 0 10.5 -2.5t9.5 -2.5q21 -1 56 0q47 1 57 1q3 0 11.5 -3.5t12.5 -3.5q29 -1 84 -3
q6 0 22.5 -3.5t20.5 -3.5q3 0 25.5 4.5t26.5 4.5h21q16 -29 16 -37q0 -3 -7 -12.5t-7.5 -15t-0.5 -36.5q0 4 5 -19q-2 -6 -4 -18q5 -79 9 -122q4 -4 10 -11q1 -8 1 -35q0 -3 -1 -15.5t-1 -18.5t-6.5 -18t-6.5 -15q0 2 11 -41q2 -11 -1 -30q-4 -25 -4 -33q0 -3 3.5 -10.5
t4.5 -10.5q0 -36 3 -107q3 -27 10 -82zM489 257l-47 -1q-11 -25 -29 -46q-55 -62 -124 -62q-77 0 -131 67t-54 163q0 111 67 175q50 47 110 47q70 0 118 -56t48 -130q0 -84 -61 -138q-16 -14 -25 -14q-14 0 -14 13q0 3 8 31l56 212q-26 -2 -48 -2h-18l-7 -19q-23 32 -62 32
q-58 0 -100 -75q-34 -62 -34 -126q0 -42 21 -75q23 -39 63 -39q26 0 45 16l20 16q16 -29 52 -29q43 0 86 47q57 60 57 153q0 90 -56 159q-59 72 -148 72q-43 0 -84 -21q-68 -36 -102 -92q-36 -59 -36 -137q0 -20 2 -40q16 -118 72 -183q65 -78 153 -78q91 0 158 80
q29 35 44 80zM322 453q0 -7 -4 -20l-33 -123q-15 -56 -51 -56q-26 0 -26 37q0 55 27 128q26 70 61 70q26 0 26 -36z" />
    <glyph glyph-name="A" unicode="A" horiz-adv-x="391" 
d="M173 316l7 53q1 4 7.5 36t7.5 43l2 48q5 45 20 83l50 -263h-94zM363 194l-101 458q-41 0 -97 -1q-4 1 -9 2q-17 -71 -35 -192q-23 -162 -32 -210q-31 23 -32 53q0 8 2 23.5t2 22.5q0 12 -9 27.5t-9 26.5t6 24q-4 18 -2 44q-13 17 -12 52q-10 16 -27 50l-18 8l-14 34
l14 34q-8 15 -8 60q0 -3 -14 38q8 6 6 16q0 3 -2 17q83 8 193 12q91 2 182 5q37 1 53 -17q13 -16 13 -51q-1 -12 -1 -35q-1 -68 -4 -239q-3 -152 -3 -238q0 -16 4.5 -47t4.5 -46q0 -20 -12 -43q-5 -9 -5 -15q0 -5 6.5 -13.5t6.5 -19.5q0 10 -8 -43q-46 -9 -47 -9
q-136 0 -247 33l-18 31v127q13 11 25 13q3 1 27 1q5 0 8 -1q3 21 6 43t12 43q79 3 107 3q13 -17 15.5 -38t4.5 -41q12 1 68 -2z" />
    <glyph glyph-name="B" unicode="B" horiz-adv-x="479" 
d="M350 327q0 40 -4 53q-10 32 -47 50v5q51 12 51 99q0 79 -33 107q-31 25 -114 25h-120l-15 -487h197q22 0 48 21.5t30 44.5q7 45 7 82zM249 533q0 -69 -40 -69q-4 0 -10 2t-9 2q-3 7 -3 20q0 70 9 101q36 3 47 -15q6 -10 6 -41zM249 327q0 -71 -49 -71q-8 0 -16 1
q-10 16 -3 27q0 2 -3 2q0 74 12 104q59 7 59 -63zM466 33q-18 -12 -46 -12q-6 0 -19.5 4.5t-20.5 4.5q-6 0 -12 -3q-85 44 -196 44q-64 0 -88 8q-46 14 -46 62l15 48l-12 48l12 22q-6 36 -24 67l12 40l-11 28l7 29q0 12 -13 34l-20 32q5 26 -5 39l12 51q0 7 -9 31t-9 31
q0 6 5 22t5 23q0 9 -6 14l-1 11q66 21 79 21q47 0 142 -10.5t142 -10.5q10 0 37 6q23 5 37 3q6 -12 15 -37q-15 -29 -15 -50q0 -63 10 -173l10 -12q2 -8 2 -28q0 -38 -15 -73q5 -20 6 -37q1 -12 1 -31q-2 -27 -2 -36q0 -14 5 -47.5t5 -49.5q0 -12 11 -113z" />
    <glyph glyph-name="C" unicode="C" horiz-adv-x="365" 
d="M365 43l-16 -10q-91 1 -181 2q-106 2 -180 10l-7 18l11 22q-4 21 -4 52q0 26 8 39q14 24 17 31q6 17 6 43q0 14 -2.5 41t-2.5 39l9 3l11 -7q2 -80 25 -115q30 -44 108 -44q63 0 101 31t38 93q0 9 -2 38q-2 24 -1 38l-5 11q-28 0 -97 -6q-5 -9 -5 -23q0 -11 4 -33t4 -32
q0 -16 -9.5 -29.5t-25.5 -13.5q-35 0 -43 134q-3 85 -5 170q-3 41 28 41q28 0 33 -35q2 -27 5 -55q10 -5 48 -5q44 0 59 14q-10 79 -33 112q-31 44 -103 44q-67 0 -114 -36q2 4 5 26q2 16 10 23v6q0 33 36 54q56 33 62 40l56 -18q35 0 49 19q19 -2 66 5l19 -20l-12 -18v-80
q0 -36 15 -113.5t15 -112.5v-393zM32 420q0 -4 -4.5 -10t-4.5 -9v-31q-5 -3 -9 -4q0 2 -6 89q8 0 11 -1q13 -23 13 -34zM18 340h-5v17h5v-17z" />
    <glyph glyph-name="D" unicode="D" horiz-adv-x="432" 
d="M448 797l-27 -605l-4.5 -61t-5.5 -88q-8 -10 -46 -10q-4 0 -23.5 1.5t-22.5 1.5l-201 12q2 14 2 40q-6 26 -17 44v11q-1 0 121 0q37 0 69 15q46 22 53 67.5t7 64.5l-6 185q-12 156 -106 156h-172v-289q-21 14 -25 28q-1 6 2.5 18t2.5 18q-5 17 -15 53q-4 3 -10 9
q-11 16 -30 54q-19 45 -19 79q0 22 16 79q4 8 10 21q-1 18 2 53q168 26 149 26q3 0 43 -3t43 -3q4 0 13 1.5t13 1.5q-1 0 18 1.5t32 1.5q19 -1 29 -4.5t15 -10.5q2 -3 19 -3q35 0 45 12q3 8 12 23h14zM246 269q0 -10 -8 -27q-9 -22 -21 -21h-35l-7 326q6 7 22 7q29 0 33 -13
q9 -31 13 -158z" />
    <glyph glyph-name="E" unicode="E" horiz-adv-x="372" 
d="M371 72q0 -12 -17 -30q-8 -8 -16 -17q-3 -18 -11 -18q-3 0 -6.5 3.5t-7.5 3.5q-7 2 -32 2q-3 0 -39.5 -9t-40.5 -9q-34 0 -109 15q-1 1 -9.5 4.5t-12.5 3.5q-3 0 -4.5 -1.5t-5.5 -1.5q-9 0 -24.5 7t-17 15.5t-5.5 8.5q-1 0 -5 -2q-2 -2 -2 1t1 9q6 30 5 34q-7 15 -18 49
q-6 30 -6 67q0 11 6 33q4 2 9 8q15 35 12 51q-9 36 -7 53q5 10 12 29q5 38 19 110q5 9 15 32q2 11 0 32q-2 25 -1 34q1 16 21 39q2 -5 5 -13q-5 -56 -5 -77q0 -50 12 -238q1 -10 7 -16q29 0 88 3t57 3l35 -4q29 0 29 14q0 5 -4 22.5t-5 31.5q-6 5 -13 5h-31q-71 0 -76 13
q-5 50 -4 105q2 3 7 8q12 4 53 5q35 1 35 38t-29 39q-30 -1 -59 -2q-5 4 -9 9q0 9 -1.5 32t-1.5 26q0 46 24 46q4 0 14 -1t16 -1q28 0 55 12v60q-6 7 -32 7l-137 -6q-21 0 -21 25v33h244q41 1 41 -17q0 -1 -11.5 -15.5t-11.5 -29.5q0 -29 26 -45v-628z" />
    <glyph glyph-name="F" unicode="F" horiz-adv-x="342" 
d="M97 82q-6 0 -19.5 -4.5t-20.5 -4.5q11 0 -49 13l-11 10q4 15 16 46l-4 21q10 6 10 43q0 18 18.5 65t18.5 75q0 100 -36 155l6 20q-21 33 -22 34q-3 21 -6 41l3 8l-16 82q-14 9 -14 28q0 13 5 36q123 19 140 19q48 0 123 -6l124 -10q-32 -10 -32 -32q0 -6 4 -24t4 -30
t-7.5 -32.5t-7.5 -31.5t12 -19q2 -15 4.5 -30.5t18.5 -21.5q-15 -15 -16 -25q2 21 2 -31q0 -16 -5.5 -48t-5.5 -48q0 -6 -3 -21t-3 -25q0 -2 -5.5 -38t-5.5 -68q0 -11 -10 -38.5t-10 -43.5q0 -7 -5 -19t-5 -19q0 -5 2 -10q-8 -7 -16 -15.5t-5 -20.5l-35 2l-38 -8
q-82 26 -98 26zM284 650q-8 1 -38 2q-24 1 -38 1h-116q-5 -134 0 -459l56 -1l22 1l3 120q0 11 -1 79l95 1q1 -4 1 67q-8 1 -61 1q-26 0 -32 6v115l109 2q0 -3 0 65z" />
    <glyph glyph-name="G" unicode="G" horiz-adv-x="386" 
d="M421 376q0 3 -14 -34q-2 -7 1 -37q4 -36 4 -42q-17 2 -31 -40q-11 -34 -11 -57q0 -21 13 -64q17 -62 18 -67q-42 5 -130 5q-11 0 -34.5 -6t-35.5 -5l-23 1q-22 32 -27 38q-18 19 -38 19q-39 0 -39 39q0 20 7 57.5t7 58.5l7 4q35 -21 76 -21q23 0 61 27l12 -18l23 -3
q18 0 51 6l5 7q-6 14 -8 109q-1 63 -2 125l-7 5q-77 0 -113 -3l-2 -2v-63q9 -10 33 -14q7 -32 7 -58q0 -54 -37 -54q-46 0 -46 164q0 35 2 75t2 37q-2 71 37 71q22 0 29 -24q3 -8 6 -44q2 -24 11 -24h49q14 0 28 7v17q4 135 -121 135q-137 0 -137 -195q0 -33 4.5 -91
t4.5 -78q-25 5 -47 131q-13 77 -26 153q12 38 12 129h354q0 -10 -1.5 -29t-1.5 -28q0 -21 8 -34l-5 -28q11 -18 13 -26q1 -4 1 -27q0 -14 12.5 -32t13.5 -40q25 -28 25 -132z" />
    <glyph glyph-name="H" unicode="H" horiz-adv-x="436" 
d="M431 45q-21 0 -68.5 7.5t-71.5 7.5q-26 0 -45 -6q-26 11 -88 11l-27 -7q-6 -8 -12 -10l-69 69l2 30q-28 28 -28 98q0 5 -2.5 15.5t-2.5 16.5q-10 15 -21 30q-7 12 -7 43l14 113q1 13 -1 41q-2 35 -2 43q-12 13 -12 109q0 28 35 110q47 8 72 7q70 -1 139 -3q116 -4 125 -9
q12 -29 12 -44q0 -38 -12 -50h-56l-20 -171l-67 9l12 160l-87 13l-32 -361l-11 -77l92 -14l23 187l64 -12l-18 -178q90 -14 96 -12q16 113 25 334l6 3l15 -15q32 -179 32 -259q0 -19 6 -57.5t6 -57.5q0 -21 -6 -57q-5 -29 -10 -57z" />
    <glyph glyph-name="I" unicode="I" horiz-adv-x="303" 
d="M158 646l-86 1q-8 -410 -4 -447h90v446zM28 460v92q-12 26 -12 81q0 27 7 72q8 63 9 72l-7 8v10l22 6q10 0 28 -5.5t40 -5.5q38 0 101 -16q74 -20 87 -43q-16 -28 -11 -59l20 -124q0 -1 -5 -35t-5 -42q0 -13 -6 -54.5t-6 -60.5q0 -23 6 -35q-13 -17 -26 -104
q-11 -80 -11 -134q0 -14 1 -21q-14 -10 -47 -28l-229 30q2 16 19 148q11 75 11 163q0 12 7 41.5t7 43.5z" />
    <glyph glyph-name="J" unicode="J" horiz-adv-x="352" 
d="M292 574l-5 -3q-18 0 -43 4.5t-37 4.5q-2 -2 -5 -29q-18 -149 -28 -257q-2 -29 -10 -86q-3 -12 -18 -12q-22 0 -22 30q0 1 2.5 35t2.5 50q-13 2 -82 6q-12 -58 -12 -88q0 -49 39 -77q33 -23 79 -23q63 0 89 45q22 35 23 112q0 11 4 34t4 25zM372 474q-5 -12 -29 -170
t-24 -180q0 -49 -14 -60l-31 -4h-221q-15 0 -42 15q-4 23 -2 59q2 57 2 58q0 18 -10 53.5t-9 51.5l10 375l16 19l31 -9q24 10 73.5 10.5t60.5 6.5q8 -5 21 -5q28 0 54 16q24 -4 49 -8q28 -7 28 -29q0 -11 23 -10q6 -10 6 -73q-1 -60 -5 -75z" />
    <glyph glyph-name="K" unicode="K" horiz-adv-x="440" 
d="M366 621q-4 -5 -25 -5t-51 5l-29 -47q-21 -36 -42 -78q-10 -17 -12 -17l-6 15l11 129l-88 9l-35 -427l95 -11l14 153l23 5l49 -164l84 -6q-15 42 -42 123q-12 44 -34 138zM452 27q-8 -3 -72 -12l-14 -18q-67 -17 -139 -17q-15 0 -47 2.5t-47 2.5q-120 0 -149 22
q-35 26 -35 135q0 24 32.5 89.5t32.5 111.5q0 10 18.5 41.5t18.5 47.5q0 10 18.5 43.5t18.5 58.5q0 19 -14 33.5t-14 20.5l12 14l9 -3q21 18 21 88q0 7 4.5 25.5t3.5 31.5q17 8 20 36v43v5l24 7q19 0 56.5 -10t54.5 -10q25 0 71 6q53 7 71 8l17 -17q9 -11 9 -20
q0 -19 -9.5 -52.5t-9.5 -50.5q0 -33 24 -66q-5 -27 -5 -47q0 -18 14 -80q-10 -20 -16 -56.5t-14 -52.5l12 -15v-17q-1 -15 9 -36t12 -32q-5 -38 -19 -46q1 -29 -20 -56q12 -22 12 -71q0 -20 15 -45t15 -39z" />
    <glyph glyph-name="L" unicode="L" horiz-adv-x="402" 
d="M370 259q9 -18 -3 -33q-7 3 -7 15q2 12 10 18zM369 217l-4 -8l-3 2l3 7zM426 695q-21 -40 -55 -394l-26 -6l-150 -12q-9 53 -40 314q-14 4 -54 -3l-56 -8l5 -38l38 -372l240 21q28 -2 36 4l4 -27q0 -18 -14.5 -74.5t-14.5 -79.5q0 -19 7 -28q-21 -15 -29 -12l-37 22
l-23 -5q-28 0 -82 13.5t-85 13.5q-26 0 -81 20q-16 27 -17 45q2 -36 2 47q0 20 -8 58.5t-8 56.5q0 33 6.5 99t6.5 99q0 17 5 49.5t5 50.5l5 10q-5 5 -5 175q0 34 39 34q67 0 184 -22q95 -18 190 -37z" />
    <glyph glyph-name="M" unicode="M" horiz-adv-x="533" 
d="M548 683q0 -12 -6.5 -35.5t-6.5 -35.5q0 -33 -23.5 -117.5t-23.5 -142.5q0 -23 -4 -96q-4 -59 -1 -95l1 -17q-12 -15 -12 -58q0 -12 -11 -78q-17 -16 -55 -27q-33 -9 -61 -9q-20 0 -58 9q-29 6 -58 13q-88 17 -144 17l-31 -3l-38 20q-4 21 -27 42v150l9 21q4 126 7 252
q5 156 33 246q26 12 33 29l22 -8l62 11q7 0 21 -5.5t21 -5.5q8 0 24.5 4t25.5 4q8 0 15 -2q4 2 91.5 21.5t92.5 19.5q14 0 40 -6q33 -8 41 -9q13 -13 13 -31q0 -10 -2 -16q10 -42 10 -62zM126 129l-15 299l131 -205l111 228l17 -321l86 4l-25 487l-86 -4l-111 -235l-137 227
l-74 -4l25 -480z" />
    <glyph glyph-name="N" unicode="N" horiz-adv-x="458" 
d="M336 649l-98 -3l9 -250l-26 75q-27 76 -59 176l-99 -1q0 -87 2 -224q3 -186 3 -225h93v210l5 2l77 -208l44 -1h58q-8 91 -8 224q-1 113 -1 225zM466 105q1 -42 -59 -51q-13 -2 -97 -2q-31 0 -96.5 7t-98.5 7q-60 0 -83 28q-17 21 -17 68q0 11 1 35.5t1 37.5q0 28 -13 70
t-13 70.5t-15 39.5v83q0 3 8.5 25t8.5 35q0 8 -10 31t-10 46q16 28 16 52q0 20 -12 39.5t-12 20.5q0 9 74 9q16 0 90.5 7t93.5 7q13 0 35 14.5t35 14.5q102 0 132 -32q23 -24 23 -98v-20v-22q0 -30 1 -54q-8 -64 -8 -145q0 -154 25 -323z" />
    <glyph glyph-name="O" unicode="O" 
d="M356 214v224q0 72 -11 101q-19 49 -82 71q-23 8 -38 8q-56 0 -98 -28q-51 -33 -52 -94l2 -253q3 -69 47 -105q38 -32 97 -32q44 0 84 24q51 31 51 84zM256 211q-4 -22 -16 -27q-4 -2 -22 -2q-43 0 -43 70v263q0 13 15 23.5t24 10.5q34 0 39 -53zM428 500q-14 -43 -14 -98
q0 -21 2.5 -64t2.5 -65q0 -3 -5 -15t-6 -14q-6 -29 -3 -78q5 -75 5 -81q0 -31 -6 -53q7 -12 7 -26q0 -46 -43 -39q-122 20 -157 20q-10 0 -30 4.5t-30 4.5q-31 0 -85 11q-80 17 -85 18l-10 12q17 40 29 150q11 93 11 152q0 6 5 18t6 17q6 34 7 73q1 28 0 72q-2 56 -2 74
t11 42t10 28q-6 26 -6 27l23 7q24 0 41 -20q4 1 5.5 -10.5t5.5 -11.5q29 0 92.5 -15t99.5 -15q4 0 20 4q12 2 20 -1l30 -3q3 2 7 4q13 11 17 11q2 -1 2 -3q0 -57 23 -137z" />
    <glyph glyph-name="P" unicode="P" horiz-adv-x="471" 
d="M398 451q0 81 -29 113q-32 36 -117 36q-3 0 -52 -4q-52 -3 -75 -4q-3 -8 -11 -22l10 -481q92 -7 101 10v190q0 9 11 13q76 6 91 10q52 16 64 65q7 30 7 74zM291 450q0 -34 -6 -48q-10 -23 -40 -23q-23 0 -23 33v105q7 7 23 7q32 0 41 -26q5 -14 5 -48zM480 68
q0 -12 -3.5 -35t-3.5 -34q-20 -26 -31 -24q-88 18 -175 36q-108 21 -176 21q-13 0 -68 22q0 16 4.5 48.5t4.5 51.5q0 14 23 53q-2 45 -11 87q-12 57 -14 74l4 10q-11 38 -28 125q-17 81 -30 123q5 14 23 86q10 37 32 50q29 17 104 17q45 0 133.5 -7.5t132.5 -7.5
q25 0 48 -23q-3 -50 -14 -85q-2 -6 -34 -80q1 -1 31 -118q14 -50 14 -135q15 -22 26 -72q8 -43 8 -78v-105z" />
    <glyph glyph-name="Q" unicode="Q" horiz-adv-x="467" 
d="M358 244v256q0 47 -41 85.5t-89 38.5q-18 0 -46 -4q-51 -8 -82 -49q-26 -35 -26 -75v-280q0 -26 19 -53.5t51 -41.5q16 -5 36 -16q7 -12 7 -32q1 -31 1 -34q2 -13 22 -21.5t42 -8.5q4 0 16 2t17 2q0 5 1.5 18t1.5 16q0 31 -20.5 31.5t-20.5 17.5q0 10 19 18q11 3 21 7
q30 14 47 40q24 37 24 83zM251 212q0 -10 -13 -21t-21 -11q-36 0 -39 48l3 281q-1 13 10.5 28t22.5 15q10 0 23.5 -8.5t13.5 -18.5v-313zM473 150q-17 -18 -17 -43q0 -16 -5 -45t-5 -43q0 -33 13 -43q-4 -29 -8 -44l-13 -5q-20 0 -116 13q-87 11 -89 9q-55 12 -113 12
q-13 0 -83 21q6 29 6 57q0 58 -23 113q-23 11 -34 22q16 50 33 99q13 44 13 93q0 16 -1 33q11 16 11 85q0 29 -6 76q-5 37 -9 75q-1 5 8 43q10 42 11 50h104q105 0 183 41l10 21q68 5 73 5q15 0 32 -21l2 -28l7 -6q-5 -28 5 -105q-2 0 -4 -10v-39q0 -15 -4.5 -71.5
t-4.5 -85.5q0 -49 10 -68l-10 -14l7 -18q-3 -10 -3 -23q0 -24 10 -78q10 -57 10 -78z" />
    <glyph glyph-name="R" unicode="R" horiz-adv-x="400" 
d="M345 125v52q0 108 -23 174q-4 10 -19 24t-15 16q0 4 12.5 15.5t14.5 15.5q15 27 17 40v29q0 78 -32.5 110t-113.5 32l-134 -4q-2 -2 -6 -7q-1 -5 2 -79q4 -83 4 -79v-69l19 -273h84q10 5 10 14v198q7 9 25 9q44 0 50 -55q1 -43 3 -86q1 -28 12 -73q7 -4 30 -4h26.5h33.5z
M231 486q0 -32 -7 -45q-10 -20 -41 -20q-24 0 -24 21q0 42 -1.5 66.5t-1.5 21.5q0 16 5 21.5t23 5.5q47 0 47 -71zM392 593l9 -22q-12 -26 -12 -72l9 -13q-10 -19 -22 -61q12 -29 12 -56q0 -8 -1.5 -27.5t-1.5 -32.5q0 -8 3 -40q2 -20 -2 -41q12 -16 21 -46q-14 -29 -16 -40
v-41q0 -8 -5 -32t-5 -36q0 -69 -93 -69q-20 0 -56 3.5t-48 2.5q-21 0 -76 -7q-48 -5 -75 -5q-35 0 -35 33q0 21 6.5 62.5t6.5 61.5t-9.5 44.5t-9.5 28.5q0 31 13 40q-1 35 8 106q10 76 10 106q0 39 -9 134q-9 86 -6 134l-4 4l10 4l-9 29q7 16 25 45h18l1 -14l5 -4
q10 0 34 -4q21 -3 33 -3q8 0 41.5 6.5t34.5 6.5l183 -32q-1 3 -1 6q-3 7 -3 10q0 2 2 3q21 -16 31 -25q-3 -13 -6 -77q-2 -57 -11 -70z" />
    <glyph glyph-name="S" unicode="S" horiz-adv-x="385" 
d="M392 588q0 -4 -5 -17t-7 -20q-18 -81 -15 -157q0 -7 3 -39q1 -25 1 -37q0 -21 -3 -67q0 -11 3.5 -34t3.5 -25q0 -14 -6 -44t-6 -47q0 -3 9.5 -24.5t9.5 -25.5q-5 -11 -10 -19q-12 -20 -22 -25q-7 3 -13 19q-134 15 -169 15q-24 0 -66 -17q-38 -15 -52 -28q-3 -1 -12 -1
q-10 0 -13 1q-40 36 -40 67q0 19 6 43q3 17 23 58q1 3 -3 12t-4 12q9 9 13 31q4 29 8 37q6 -1 17 -24q13 -27 21 -35q20 -19 60 -28q3 -1 35 -1h44q4 0 12.5 3.5t10.5 4.5q33 6 59 48q22 36 22 64q0 43 -31 90q-19 27 -75 71l-66 50q-34 30 -34 60q0 39 38 39q29 0 37 -31
q6 -26 12 -51q26 3 83 9v38q-1 22 -21 53q-17 28 -30 36q-31 19 -77 19q-56 0 -101 -30h-10l-7 7q8 9 8 25q0 7 -3 23t-3 23q0 22 20 30q60 22 183 39q93 13 118 13q33 0 40 -14q4 -8 4 -45l-1.5 -36.5t-1.5 -54.5q0 -9 -16 -15q2 -8 10.5 -26.5t8.5 -21.5zM207 283
q0 -42 -41 -42q-28 0 -36 25q-2 5 -7 46q-2 26 -16 26q-4 0 -27.5 -3t-27.5 -3q-30 0 -30 50q0 6 3 21.5t3 22.5q0 9 -3 16q-1 2 3 6.5t9 4.5q3 0 36 -27q43 -31 87 -63q47 -38 47 -80z" />
    <glyph glyph-name="T" unicode="T" 
d="M344 564v71q1 10 -10 10l-273 -9q-7 -7 -7 -15q0 -52 10 -66q17 3 55 3q27 0 28 -8q6 -69 15 -298q0 -30 2 -81q-3 -12 -3 -26q5 -1 22 1.5t19 2.5q59 0 57 0l-5 371v32q11 9 42 11q24 0 48 1zM449 51q-30 -18 -214 -36q-117 -10 -235 -21q-13 12 -13 38q0 10 2.5 29.5
t2.5 27.5q0 14 -5.5 42.5t-5.5 42.5q0 83 20 110q-5 33 -5 47q0 26 6.5 76t6.5 76q0 1 10 31q3 6 -2 34q-5 33 -5 39q0 7 11 55t15 54l-5 23l6 10q3 1 54 23q28 12 61 12q7 0 22.5 6t22.5 6q17 0 52.5 -10.5t52.5 -10.5q7 0 22.5 4.5t22.5 4.5l68 -16q1 -30 -14 -47l4 -22
q0 -10 -5 -34.5t-4 -37.5q-35 -60 -35 -130q0 -69 43 -243t43 -183z" />
    <glyph glyph-name="U" unicode="U" horiz-adv-x="376" 
d="M397 574q0 -26 -7 -51q-6 -12 -16 -35q-1 -10 -5 -33q1 -16 1 -50q-8 -31 -19 -92q3 -18 6 -74q-1 -19 -8.5 -61t-7.5 -43q0 -17 4 -38q0 -3 4 -8.5t4 -9.5t-5 -11t-6 -10.5t-3 -3.5q-1 0 -2.5 5.5t-2.5 5.5q-1 -1 -3 -7q-5 -18 -23 -38q-2 -2 -14 -4.5t-16 -14.5
q-7 0 -13 6q-1 -1 -18 -21q-11 -12 -19 -12q-3 0 -24.5 9t-25.5 9q-16 0 -34 -4q-5 -1 -14 -9t-13 -8q-3 0 -12.5 3t-14.5 3q-3 0 -15.5 -3t-16.5 -3q-8 0 -15 6.5t-7 11.5q0 1 7 14q4 75 4 65q0 1 -5.5 10.5t-7.5 26.5q-3 52 -18 145q-1 3 2 12.5t3 12.5v76q0 4 -12 33.5
t-12 33.5l15 191q0 2 3 10t3 16q45 7 69 7l216 -3q-2 0 13 1q13 1 22 0q13 -1 19 -4.5t14 -16.5q3 -7 16 -25q10 -16 10 -20zM320 243v358h-104q-3 -161 1 -236q2 -42 2 -61q0 -112 -37 -110q-38 3 -38 94q0 15 1 41t1 33q-3 74 0 239h-101l2 -263q1 -120 13 -154
q26 -72 122 -72q62 0 100 34.5t38 96.5z" />
    <glyph glyph-name="V" unicode="V" horiz-adv-x="522" 
d="M530 90q-46 -18 -74 -18q-3 0 -9 1.5t-10 1.5q-43 0 -83 -13q-29 -9 -85 -44q-4 -3 -7.5 -13t-7.5 -12q-8 -4 -63 -4q-4 0 -24.5 -3t-24.5 -3q-8 0 -11 1q-15 10 -18 21q0 4 -2 14q-5 5 -13 16q3 15 -5 39q-11 34 -13 41q-1 16 -5 50q-4 10 -10 30q-13 102 -19 163
q-5 6 -10 18q-1 21 -5 62q-6 10 -19 32q-7 26 -23 75q-1 3 -7 12.5t-6 12.5q0 4 8.5 16.5t8.5 16.5q0 3 -4 11t-4 11q0 72 -17 106q-4 8 -4 47q42 14 57 12q22 -3 41 -3q16 0 38 3t33 3q3 0 19 -3t19 -3q4 0 12 2.5t11 2.5q43 3 91 3q4 0 34 -2q24 -1 38 0q4 0 13.5 3
t13.5 3q3 0 7.5 -2.5t7.5 -2.5q8 -1 48 -1v-36q0 -30 13 -74t28 -56q20 -1 25.5 -8t5.5 -25q0 -14 -13.5 -44.5t-13.5 -45.5l26 -284q7 -4 5 -14l-1 -13q9 -21 8 -42v-61zM420 625v13q-33 1 -49 1q-37 0 -47 -7q-18 -100 -44 -256q-2 -10 -9 -13q-4 4 -7 8q-7 93 -23 264
q-1 2 -5 5q-37 7 -60 7q-4 0 -11.5 -1.5t-10.5 -1.5q-3 -6 -3 -22q0 -32 45 -418q2 -15 9 -34q55 -9 54 -9q4 0 27.5 2t32.5 2q10 21 12 30q18 93 56 273q34 157 33 157z" />
    <glyph glyph-name="W" unicode="W" horiz-adv-x="541" 
d="M6 557q8 32 8 102q0 45 -2 57q0 5 -13 76h22q8 0 29 -11.5t20 -11.5q3 0 8.5 3t9.5 3t7 -1.5t6 -1.5q4 0 31.5 4.5t31.5 4.5q1 0 19.5 -10.5t31.5 -10.5q-5 0 55 11q40 7 88 7q7 0 77 -21q80 -23 121 -40q6 -3 15 -20t9 -26q0 -25 -19 -56q-6 -7 -16 -23q-7 -27 -17 -74
q0 -15 -2 -45q-11 -68 -11 -60q0 -4 6 -44t6 -44q0 -3 -7 -12.5t-7 -14.5q-1 -11 -11 -95q-4 -32 -3 -47q3 -46 3 -125q0 -12 -7 -38q-7 -30 -9 -42q-1 -7 -1 -57q-4 -3 -13 -3q-3 0 -14 4t-14 4q-4 0 -28.5 -5.5t-27.5 -5.5t-19.5 3.5t-24.5 3.5q-26 2 -76 11q-43 9 -72 8
q-4 0 -13 4.5t-14 4.5q-3 0 -9 -1.5t-10 -1.5q-19 0 -29 4q-2 1 -9.5 6t-11.5 5t-8.5 -3t-8.5 -3q-3 0 -15 6.5t-15 7.5q-15 3 -44 11q-6 7 -12 21q-2 18 -1 60q2 61 2 71q0 9 -4 41q1 10 2 30q-5 13 -11 41q-1 22 10 144q13 128 13 143q-3 18 -2 52zM472 540v19l-5 -3
q-9 0 -31.5 2t-25.5 2q-4 0 -12.5 -2.5t-9.5 -2.5q-16 -52 -33 -140q-23 -116 -26 -132q0 -7 -7 -14h-8q-2 4 -7 11q-2 89 -2 124q0 10 -1 29.5t-1 20.5v111q-17 10 -40 9h-42q-21 -85 -61 -291q-3 -5 -6 -5q-14 7 -14 28v202q0 -8 -4 68q-2 5 -20.5 9t-27.5 4h-40v-60
q-1 -47 22 -365q2 -38 16 -47q31 -5 95 -14q12 40 32 138q14 67 23 67q4 0 6 -1.5t5 -1.5v-208q40 -3 106 -9q3 3 8 10q18 68 53 211q6 18 16 50q41 186 42 181z" />
    <glyph glyph-name="X" unicode="X" horiz-adv-x="416" 
d="M426 640q1 -8 -5 -51q1 -15 -2 -42q-9 -10 -21 -33q-9 -46 -9 -96q0 -3 4.5 -20t5.5 -23q-3 -10 -4 -28q3 -7 7 -23l12 -92v-109q0 -3 -6 -9t-7 -8q-4 -17 -8 -35q-7 -26 -24 -38q-7 0 -22 -4q-2 -3 -6 -7q-15 -4 -48 -4l-147 12q-15 0 -15 -6q1 8 -9 10q-44 10 -64 10
q-2 0 -12.5 -1.5t-15.5 -1.5q-16 0 -36 20q-4 4 -4 20q0 27 23.5 75.5t23.5 50.5q0 11 -6 61q-9 13 -21 42q-3 22 -1 60q3 46 2 63q-5 8 -12 25q-6 33 -12 118v81q5 23 11 46q6 28 18 39q7 0 23 -1q202 -44 363 -81q5 -6 24 -20zM361 556v9q-27 3 -80 9q-25 -39 -41 -87
q-3 -5 -8 -5q-7 13 -15.5 50t-15.5 49q-45 10 -53 10q-7 0 -18 -6l36 -196l-109 -236q32 -12 55 -12h34l51 113q5 11 11 10q1 0 7 -10q4 -61 24 -126q60 -9 71 -9q4 0 7.5 1.5t4.5 1.5l-47 245z" />
    <glyph glyph-name="Y" unicode="Y" horiz-adv-x="351" 
d="M381 60q0 7 -4 -27q-3 -1 -8 -5q-46 -7 -80 -7h-94q-3 0 -31.5 -2.5t-31.5 -2.5t-32.5 -1.5t-32.5 -1.5h-37q-24 0 -34 6q-7 36 -9 92q-2 85 -2 87q-2 29 2 54l-6 393q0 -2 2 38t2 61q7 15 74 15q4 0 26.5 -4.5t25.5 -4.5t19.5 1.5t19.5 1.5q26 0 40 -4q5 -3 16 -6
q22 -4 26 -5q16 -4 23 -12.5t7 -18.5v-23q-1 -16 -1 -25q0 -5 2.5 -17.5t2.5 -15.5t-1.5 -17.5t-1.5 -22.5q-6 -6 -8 -6q-4 0 -22.5 2.5t-22.5 2.5q-21 0 -27.5 -21t-13.5 -42t-24 -62q-5 0 -9 6q-5 34 -24 123q-26 8 -58 8q-18 0 -25 -5q24 -85 57 -245q0 2 -6 -193
q3 -2 8 -4.5t16.5 -5.5t14.5 -3q4 0 18 1.5t18 2.5q1 0 4 4q4 69 18 187q11 22 29 67q31 79 55 115h16q1 -2 5 -6q-2 -5 3 -15t13 -13q-3 -35 0 -65q8 -11 17 -39q-1 -24 2 -69q8 -44 22 -70q1 -2 25 -30q17 -19 17 -38q0 -3 -7 -16t-7 -17q0 -3 3.5 -8.5t3.5 -8.5
q0 -48 -1 -39q0 -3 4 -11.5t4 -12.5z" />
    <glyph glyph-name="Z" unicode="Z" horiz-adv-x="403" 
d="M-11 765l342 1q14 -4 21 -15q-9 -47 -1 -66q11 -27 9 -65q0 -1 -3 -10q-2 -7 0 -12q12 -31 12 -41q0 -13 -8 -24v-75q9 -8 22 -25q-3 -7 -4 -22q4 -28 25 -88q16 -49 16 -82q0 -29 -23 -96q-6 -7 -12 -20q1 -15 -5 -42q-11 -18 -38 -18q-3 0 -13.5 3t-14.5 3
q-30 0 -116 -15q-1 0 -9.5 -5t-12.5 -5q-80 0 -117 -1q-3 -1 -9 -4q-3 1 -24 -1q-14 -2 -22 6l-3 172q7 0 7 85q0 101 -9 289q-8 173 -10 173zM297 225q-107 0 -140 -1l68 153l69 169l-1 42l-225 1v-73h125l-136 -281v-91l240 -1v82z" />
    <glyph glyph-name="bracketleft" unicode="[" horiz-adv-x="458" 
d="M466 33q-18 -12 -46 -12q-3 0 -17.5 4.5t-18.5 4.5q-2 0 -7 -1.5t-9 -1.5q-3 0 -13.5 6.5t-15.5 7.5t-80 24q-25 7 -79 7q-60 -1 -114 12q-14 4 -24 24q-4 8 -4 33q0 4 7.5 24t7.5 24q0 3 -6 23.5t-6 24.5q0 3 6 10.5t6 11.5q0 11 -7 37q-1 3 -9 14t-8 16q0 4 6 20t6 20
t-5.5 14t-5.5 14q-1 4 3 14.5t4 14.5q0 10 -13 32l-20 34q3 16 -1 28t-4 11q0 4 6 25.5t6 25.5q0 3 -9 31t-9 31q0 10 5.5 25.5t5.5 20.5q0 8 -7 13q-1 3 -1 11q6 3 37.5 12t41.5 9q4 0 11 -2.5t10 -2.5q21 -1 55 0q48 1 58 1q2 0 10.5 -3.5t13.5 -3.5q28 -1 83 -3
q6 0 22.5 -3.5t20.5 -3.5t26.5 4.5t26.5 4.5h21q15 -29 15 -37q0 -3 -6.5 -12.5t-7.5 -14.5v-37q0 4 4 -19q-2 -6 -4 -18q5 -79 9 -122q4 -4 10 -12q1 -7 1 -34q0 -3 -1 -15.5t-1 -18.5t-6 -18t-6 -15q0 2 10 -42q3 -10 0 -29q-5 -25 -5 -33q0 -4 4 -11.5t4 -9.5
q0 -36 3 -107q4 -27 10 -82z" />
    <glyph glyph-name="backslash" unicode="\" 
d="M428 500q0 -3 -6.5 -24.5t-7.5 -30.5q1 -10 0 -49q-1 -20 2 -61q3 -48 3 -62q0 -5 -4 -14q-6 -13 -7 -15q-1 -6 -1 -26q0 -40 1 -54q0 3 -2 -23q-2 -16 0 -39q2 -29 2 -37q0 -18 -4 -33q12 -19 3 -53q-6 -12 -39 -12q-4 0 -70 11.5t-70 11.5q-3 0 -8.5 -1.5t-8.5 -1.5
q-4 0 -25.5 5.5t-24.5 5.5q-4 0 -5.5 -1t-4.5 -1q12 0 -170 29q-10 7 -10 12q0 4 3.5 11t4.5 10q3 37 16 112q0 1 4 9t4 13v38q0 19 3 40q5 7 10 20q1 17 -2 30t-3 17q0 7 5 19t6 18q8 54 10 114q-4 40 -3 150q8 32 21 95q5 23 -4 31v10q13 6 23 6q14 0 26 -10t15 -10
t12.5 3t13.5 3q3 0 23 -3t29 -4q10 -6 29 -16q35 -12 67 -12q3 0 13.5 3t15.5 3q28 0 84 -21q5 -2 10 -18.5t2 -20.5q0 -3 -3 -8q-3 -55 2 -89q3 -14 11.5 -45.5t8.5 -34.5z" />
    <glyph glyph-name="bracketright" unicode="]" horiz-adv-x="339" 
d="M355 531q-12 -12 -14 -18q1 -13 1 -37q0 -22 -4 -41.5t-8 -36.5q2 -8 1 -21l-9 -19q0 -2 2.5 -11.5t1.5 -14.5q-1 -6 -8.5 -25t-7.5 -28q0 -6 3 -28q3 -18 1 -30q-4 -7 -12 -23q-2 -12 -8 -35q1 -6 1 -17q-3 -7 -10 -23q1 -8 1 -24l-14 -14q-10 -10 -7 -21l-32 3
q-4 0 -19 -4.5t-19 -4.5t-24 7.5t-23 7.5q-4 0 -4.5 -1.5t-4.5 -1.5t-6 2.5t-4 4.5q-17 7 -32 7q-3 0 -20 -4.5t-20 -4.5q9 0 -48 13q-3 3 -9 8q3 13 15 45q-2 7 -3 21q9 5 9 25v29q1 9 5 15q9 13 20 37q12 88 12 78q0 22 -4.5 70.5t-7.5 53.5q-8 8 -20 26q-1 1 -3 6l6 20
q-12 11 -26 35q0 13 -3 38q1 3 4 9q-9 49 -17 83q-4 5 -12 17q-1 2 -1 21q0 14 4 23q122 19 138 19l233 -16q-20 -6 -20 -28q0 -3 5 -30q5 -29 0 -47q-13 -41 -13 -38q0 -10 4 -16t9 -9q1 -14 3 -28q3 -18 18 -24z" />
    <glyph glyph-name="asciicircum" unicode="^" horiz-adv-x="404" 
d="M298 727l-114 72l-114 -74l13 -11l98 33l104 -34z" />
    <glyph glyph-name="underscore" unicode="_" horiz-adv-x="14" 
 />
    <glyph glyph-name="grave" unicode="`" horiz-adv-x="571" 
d="M273 799l95 -108l-49 -1l-158 109h112z" />
    <glyph glyph-name="a" unicode="a" horiz-adv-x="333" 
d="M359 249l-15 -191q0 -2 -3.5 -20t-3.5 -26q-45 -7 -69 -7l-215 3q4 0 -18 -1q-16 -1 -26 1q-13 1 -13 6q0 1 8 8t6 12q-2 4 -2 8t3.5 8t3.5 7l-8 26q-9 23 -6 31q1 23 6 58q1 10 6 33q-1 25 -1 68q1 11 -4 38t-3 43q-4 18 -6 74q1 19 8 60.5t7 43.5q0 17 -3 38
q-1 3 -4.5 8.5t-3.5 9.5t4.5 11t6.5 11q2 18 11 59q4 18 22 38q2 2 16 5q11 2 14 14q8 0 13 -6q1 1 18 21q11 12 19 12q4 0 25.5 -9t25.5 -9q16 0 33 4q5 1 14.5 9t12.5 8q4 0 13 -3t14 -3q4 0 16.5 3t16.5 3q8 0 15 -6.5t7 -11.5q0 -1 -8 -14q-4 -75 -4 -65q0 -3 6 -40
q6 -42 7 -57q4 -52 19 -145q1 -3 -2 -12.5t-3 -12.5v-76q0 -4 12 -33.5t12 -33.5zM295 73q-7 9 -13 19q-13 23 -13 44l-9 264q-5 94 -73 91q-31 0 -98 -3q-63 -6 -61 -66l5 -123l87 72q-2 9 -2 17q0 27 23 28q22 1 24 -33q0 -16 -59 -63q-62 -49 -69 -72q-8 -33 -8 -32
q0 -34 2 -91q2 -35 9 -45q12 -16 49 -14h48q21 4 41 25q3 -4 2 -11t0 -11q20 0 115 4zM176 176q1 -13 -5.5 -25.5t-19.5 -12.5q-23 0 -26 28q0 6 -2 46q0 20 8 28l26 20l16 19z" />
    <glyph glyph-name="b" unicode="b" horiz-adv-x="354" 
d="M377 556q-2 -15 -6 -42l-22 -33q-10 -17 -12 -31q-4 -50 3 -120q-3 -5 -7 -13q-2 -80 -2 -72q0 -4 10.5 -75.5t10.5 -75.5t-5 -14t-6 -15q0 -9 13 -31t12 -34q-24 -4 -56 -8q-1 2 -8 4q-3 0 -1 -2q2 -3 2 -4t-3 -1q-7 0 -23 1t-19 1q-7 0 -41 -13q-42 -14 -67 -29
q-1 -8 -9 -21q-19 1 -57 -1q-4 -3 -16 -6q-10 0 -20.5 7t-12.5 12q0 9 -2 28q-3 2 -8 6q2 8 3 26q0 11 -11 79q3 3 -1 56q0 22 2 46t2 27q2 93 1 123q-4 8 -11 21q5 4 9 15q0 4 -3.5 9.5t-3.5 8.5q6 28 1 53q-3 4 -8 12q-4 29 -14 85q-2 7 -3 28q0 3 7.5 13t8.5 17
q-1 17 1 50q6 45 6 52q-2 11 -5 30q-4 2 -9 13q-1 17 6 44q3 3 13 5q17 -2 41 -5q3 0 13 2t14 2t64 -8.5t64 -8.5q1 1 9 3q4 0 26 -4q27 -4 38 -5q10 2 40 0q9 -2 11 -7.5t13 -8.5q-1 -6 -12 -57q-7 -34 -7 -57q0 -30 12 -56q23 -10 35 -21zM256 272q-3 28 -40 65
q25 16 32 38q5 14 6 48q3 22 9 64q6 48 8 104l-53 58h-130q-29 -30 -29 -35l20 -232v-63l-17 -250l35 -41l121 4l53 58zM193 420q0 -33 -7 -45q-11 -17 -43 -17q-10 0 -10 12q0 2 2 36q3 39 4 55q1 24 1 48q1 20 8 45l22 2q17 -16 17 -32q1 -22 4 -64q2 -37 2 -40zM193 256
q0 -3 -1 -32q-3 -35 -4 -57q-2 -8 -6 -23q-5 -21 -21 -21q-6 0 -15 3l-13 179q0 3 1 6.5t1 6.5h15q43 0 43 -62z" />
    <glyph glyph-name="c" unicode="c" horiz-adv-x="460" 
d="M486 618q0 -3 -14 -31.5t-12 -58.5q1 -3 -13.5 -15.5t-15.5 -15.5q-2 -5 5 -28q7 -26 7 -27q0 1 -9 -20.5t-8 -37.5q6 -11 18 -31q0 -11 2 -32q5 -7 14 -21q0 -7 3 -20q1 -3 1 -7q0 -8 -10.5 -27t-7.5 -27q4 -19 8 -37q5 -23 16 -33q-4 -7 -5 -15q0 -12 -1 -15
q-4 -3 -9 -12q-3 -17 -3 -40v-9q0 -24 -7 -32q-9 -11 -39 -11l-16 5t-36 4q-27 -2 -61 3q-37 5 -34 5l-130 -20q-4 0 -27.5 19.5t-27.5 19.5q-23 0 -47 17q-4 3 -4 19q0 47 14 81q1 4 -23 37q21 15 21 29q0 7 -12.5 21t-14.5 22q-4 16 7.5 56.5t9.5 57.5q-7 6 -14 20t-14 43
q-11 90 -11 114q0 47 11 73q7 18 32 18q127 0 270 -18q23 -3 88 -4q60 0 92 -6q7 -8 7 -13zM398 216q0 68 -52 68q-17 0 -27 -8q3 -16 3 -40q0 -97 -44 -97q-64 0 -64 151v116q0 36 13 79q17 57 43 57q51 0 51 -97q0 -8 -2 -45l16 -6q58 0 58 68q0 23 -6 68t-6 68
q-27 -22 -35 -22t-45 17t-41 17q-163 0 -178 -232q-45 1 -45 -66q0 -39 -2 -33q6 24 24 24q20 0 35 -64q19 -85 37 -117q37 -63 110 -63q19 0 50 14.5t46 14.5q9 0 22 -6.5t18 -7.5q2 20 12 71q9 45 9 71z" />
    <glyph glyph-name="d" unicode="d" horiz-adv-x="451" 
d="M466 33q-18 -12 -46 -12q-3 0 -17.5 4.5t-18.5 4.5q-2 0 -7 -1.5t-9 -1.5q-3 0 -13.5 6.5t-15.5 7.5t-80 24q-25 7 -79 7q-60 -1 -114 12q-14 4 -24 24q-4 8 -4 33q0 4 7.5 24t7.5 24q0 3 -6 23.5t-6 24.5q0 3 6 10.5t6 11.5q0 11 -7 37q-1 3 -9 14t-8 16q0 4 6 20t6 20
t-5.5 14t-5.5 14q-1 4 3 14.5t4 14.5q0 10 -13 32l-20 34q3 16 -1 28t-4 11q0 4 6 25.5t6 25.5q0 3 -9 31t-9 31q0 10 5.5 25.5t5.5 20.5q0 8 -7 13q-1 3 -1 11q6 3 37.5 12t41.5 9q4 0 11 -2.5t10 -2.5q21 -1 55 0q48 1 58 1q2 0 10.5 -3.5t13.5 -3.5q28 -1 83 -3
q6 0 22.5 -3.5t20.5 -3.5t26.5 4.5t26.5 4.5h21q15 -29 15 -37q0 -3 -6.5 -12.5t-7.5 -14.5v-37q0 4 4 -19q-2 -6 -4 -18q5 -79 9 -122q4 -4 10 -12q1 -7 1 -34q0 -3 -1 -15.5t-1 -18.5t-6 -18t-6 -15q0 2 10 -42q3 -10 0 -29q-5 -25 -5 -33q0 -4 4 -11.5t4 -9.5
q0 -36 3 -107q4 -27 10 -82zM417 391q-7 90 -54 155.5t-109 62.5q-64 -5 -207 -14v-10q28 -7 29 -28l24 -354q2 -31 -23 -35v-9l217 15q52 1 90.5 66t32.5 151zM335 393q3 -46 -10 -91q-20 -64 -65 -69q-34 -3 -83 -6l-7 112q1 54 42 68q-2 -6 -2 -12q2 -20 28 -18
q27 1 25 28q-3 37 -41 34q-16 -1 -34 -13.5t-22 -27.5l-10 140q25 1 79 6q43 4 73 -57q24 -47 27 -94z" />
    <glyph glyph-name="e" unicode="e" horiz-adv-x="351" 
d="M360 607q-11 -21 -14 -57l11 -16q-9 -21 -22 -64q12 -21 12 -39q0 -6 -2.5 -21t-2.5 -27q0 -15 10 -42t7 -47l9 -11l-8 -66q-6 -46 -14 -60l2 -42q0 -9 -6 -33q-26 -19 -142 -33q-88 -10 -153 -11q-9 23 -10 57q1 -29 1 58q0 42 -22 83l11 68q0 31 -18 214.5t-23 200.5
l10 17l-1 26q8 10 15 25q4 -18 20 -18h47q13 0 40.5 9t39.5 9l174 -9q-5 0 -5 -14q0 -20 4 -60.5t4 -60t20 -13.5zM73 296q0 -50 18.5 -71.5t69.5 -21.5q43 0 61 30q1 2 24 68l-51 11q-13 -49 -41 -49q-22 0 -22 35q0 11 6 43.5t10 32.5q16 0 52 -9.5t53 -9.5q24 98 24 136
q0 88 -95 88q-50 0 -70 -63q-13 -41 -26 -109q-13 -73 -13 -111zM206 418l-45 10q6 57 16 79q4 10 23 10q21 0 21 -22q0 -5 -15 -77z" />
    <glyph glyph-name="f" unicode="f" horiz-adv-x="325" 
d="M342 597q-1 -14 -6 -41q-12 -19 -27 -58q0 -13 -2 -41q-2 -8 1 -30q2 -28 2 -39q0 -2 -3.5 -10.5t-3.5 -12.5q0 -21 18 -162q5 -41 5 -33q0 -4 -5 -15.5t-6 -16t-1 -51.5q-11 -2 -23.5 -4.5t-17 -9t-4.5 -21.5q-20 -6 -64 -25q-4 -7 -14 -21q-3 0 -12 -2t-13 -2h-80
q-18 0 -28 21q0 6 -2 18q-4 4 -9 14q1 9 1 26q-15 72 -21 136q1 16 1 50q-3 70 -8 112q-1 3 -5.5 9t-4.5 9t3 26q2 20 1 31q-5 7 -15 32q-12 46 -12 99q0 55 1 49q10 18 10 25q0 3 -5.5 19t-5.5 20q0 10 10 92q17 8 39 8q4 0 11 -2.5t9 -3.5q10 -1 80 -1q8 0 25.5 -5.5
t20.5 -5.5t12 1.5t13 1.5q18 0 34.5 -8.5t19.5 -8.5q-2 0 22 5l4 -90q6 -54 38 -70q6 -3 17 -14zM228 646q-18 9 -66 9q-73 0 -73 -110q0 -14 1 -25l-35 3l-6 -64h38l-14 -303l83 -2l17 302l35 -3l6 64l-35 3q1 21 3 52q3 10 13 10q6 0 16 -4t11 -4q7 35 6 72z" />
    <glyph glyph-name="g" unicode="g" horiz-adv-x="337" 
d="M356 0q-6 -1 -20 0l-16 2q-4 0 -28.5 -7t-27.5 -7q-43 0 -119 16t-73 16q-3 0 -20 -4.5t-20 -4.5t-8.5 1.5t-8.5 1.5q0 14 -12.5 55t-12.5 42q0 3 4.5 11t5.5 12q12 46 12 72l3 100q0 4 -8.5 43.5t-8.5 43.5q0 3 5 11t5 11q10 54 10 125q0 1 -12 74q-1 4 0.5 13.5
t1.5 11.5q0 7 -10 21.5t-10 17.5q0 1 5 9q-1 -6 -1 23q0 6 8 20t8 23q-1 25 2 73q3 11 25 12q2 0 72.5 -2.5t73.5 -2.5t9.5 -3t10.5 -3q13 0 13 11q4 -4 10 -11q10 1 31 -1l6 -6t8 -5q4 0 7 3t6 3q-9 0 23 -4q16 -15 19 -49v-64q-1 -25 6 -78q-3 -7 -4 -23q1 -4 15 -46
q-2 -9 -4 -27q2 -34 6 -105q5 -67 5 -68t-7.5 -56t-9.5 -83q3 -3 0 -87q1 -3 5 -61q3 -44 20 -70zM303 655q-9 1 -33.5 8t-32.5 7q-2 0 -3.5 -10.5t-3.5 -10.5q-3 0 -6.5 5t-6.5 10q-14 14 -43 14q-13 0 -32 -12t-24 -29q-8 -22 -22 -112q-16 -94 -16 -126q0 -30 15.5 -51
t45.5 -21q6 0 28 5q17 3 17 0q0 -33 -14 -92q-1 -2 -13.5 -8t-16.5 -4q-21 10 -21 22q0 4 3 33q-5 5 -52 13q-6 -16 -6 -35q0 -35 23 -58.5t59 -23.5q25 0 54 18q9 5 22 35q10 23 13 36q22 97 66 387zM194 393q-1 -4 -9 -11.5t-9 -7.5q-30 0 -30 32q0 11 10 86q11 86 21 118
q5 15 21 15q25 0 25 -33q0 -9 -10 -82q-11 -83 -19 -117z" />
    <glyph glyph-name="h" unicode="h" horiz-adv-x="326" 
d="M361 207q0 -30 -23 -97q-6 -6 -13 -19q2 -15 -4 -43q-11 -17 -38 -17q-3 0 -14 2.5t-14 2.5q-2 0 -17 -5q-19 -6 -39 -9q-2 -1 -10 -6t-12 -5q-80 0 -117 -1q-3 -1 -7.5 -2t-25.5 -3q-14 -1 -22 7l-3 171q7 1 7 86q0 100 -9 289q-8 173 -10 173l282 1q13 -5 21 -15
q-10 -47 -1 -67q11 -26 9 -65l-2.5 -8.5t-1.5 -13.5q13 -30 13 -40q0 -13 -8 -25v-74q9 -8 22 -25q-3 -7 -4 -23q4 -28 24 -87q17 -49 17 -82zM266 81q-15 32 -15 60v283q0 11 -1 33q-5 51 -60 51q-26 0 -44 -24l-7 -2v106q-1 33 3 44t9 22h-101q9 -35 10 -38q0 -16 1 -32
v-440q0 -25 -5.5 -38t-11.5 -25h108q-14 25 -14 66l1 237q-1 43 19 43t16 -47v-299h92z" />
    <glyph glyph-name="i" unicode="i" horiz-adv-x="303" 
d="M-1 284q0 2 7 13t7 18q0 1 -3 5t-4 8q-2 11 7 71q1 16 5 48q-1 15 -1 45q4 8 10 25q2 12 -1 31q-5 31 -5 34q0 4 5.5 14t5.5 14q3 27 11 79q-1 7 0 23q18 14 53 33q7 2 79 7q3 1 10.5 4.5t11.5 3.5q25 0 49 -12l10 -10q9 -9 18 -9q3 0 17 7t18 7q17 0 17 -17
q0 -8 -14 -35q0 -1 4 -22q-3 -5 -8 -12q0 -21 -6 -56q-6 -10 -15 -28q-20 -73 -20 -93q0 9 9 -41q0 -18 3 -51q8 -44 -10 -72q9 -8 22 -30v-48q1 -11 -10 -81.5t-9 -84.5l-248 -37q-36 5 -36 14q0 4 6 11t6 10q0 -4 2 68q1 63 0 76q-5 61 -3 70zM187 546v77l-79 1v-80
q32 0 51 2h28zM193 139v360l-86 2v-362h86z" />
    <glyph glyph-name="j" unicode="j" horiz-adv-x="294" 
d="M303 484q-10 -13 -12 -19q1 -13 1 -39q0 -6 -11 -81q2 -8 1 -22l-8 -20q0 -2 2 -11.5t1 -15.5q-1 -5 -8 -27q-6 -18 -6 -27q1 -7 3.5 -28t0.5 -33q-3 -7 -10 -24q-2 -12 -8 -36q1 -6 1 -18q-3 -8 -8 -24q1 -8 1 -24q-7 -8 -13 -15q-8 -10 -6 -22l-28 3q-3 0 -16.5 -4.5
t-16.5 -4.5q-4 0 -21.5 7.5t-20.5 7.5t-4 -1.5t-4 -1.5t-5 2.5t-4 5.5q-15 7 -27 7q-4 0 -18.5 -4.5t-17.5 -4.5q8 0 -43 13q-2 3 -8 8q3 14 14 47q-2 8 -3 21q8 6 9 27v30q0 9 3 15q9 13 18 39q11 91 11 81q0 23 -4 73t-7 56l-18 27q0 1 -2 6l6 21q-11 12 -24 36
q0 14 -2 40l3 9q-3 63 -12 155q-4 5 -11 18v21q0 15 3 24q107 20 121 20l205 -16q-17 -7 -17 -30q0 -2 4 -30q2 -11 1 -58q-1 -50 -3 -60q-12 -42 -12 -40q0 -10 4 -16.5t7 -9.5q2 -14 3 -29q3 -19 16 -24zM225 686q0 22 -18.5 38t-43.5 16q-26 0 -44.5 -16t-18.5 -38
t18.5 -38t44.5 -16q25 0 43.5 16t18.5 38zM227 594q0 11 -16 11h-50q-21 1 -49 1q-18 0 -18 -12q0 -25 9 -108l12 -108q0 -144 -8 -208q-2 -16 -13 -31t-24 -15q-9 0 -24 7q-17 7 -17 -30q0 -32 31 -35q35 -3 58 -3q21 1 48 4q38 8 50 57q6 25 6 84q0 25 -6 80.5t-6 84.5
q17 179 17 221z" />
    <glyph glyph-name="k" unicode="k" horiz-adv-x="449" 
d="M428 500q0 -3 -6.5 -24.5t-7.5 -30.5q1 -10 0 -49q-1 -20 2 -61q3 -48 3 -62q0 -5 -4 -14q-6 -13 -7 -15q-1 -6 -1 -26q0 -40 1 -54q0 3 -2 -23q-2 -16 0 -39q2 -29 2 -37q0 -18 -4 -33q12 -19 3 -53q-6 -12 -39 -12q-4 0 -70 11.5t-70 11.5q-3 0 -8.5 -1.5t-8.5 -1.5
q-4 0 -25.5 5.5t-24.5 5.5q-4 0 -5.5 -1t-4.5 -1q-73 0 -148 12q-9 7 -9 12q0 3 3.5 10.5t3.5 9.5q4 38 17 112q0 1 4 9.5t4 13.5v37q0 5 -10.5 27.5t-9.5 30.5q5 7 10 20q1 17 -2 30t-3 17q0 7 5 19t6 18q8 54 10 114q0 6 -19 49t-16 84q0 4 13 67q4 23 -5 31v10q13 6 23 6
q44 0 129 -2t127 -2q3 0 13.5 3t15.5 3q28 0 84 -21q5 -2 10 -18.5t2 -20.5q0 -3 -3 -8q-3 -55 2 -89q3 -14 11.5 -45.5t8.5 -34.5zM335 67q-39 47 -39 78q0 14 1 43t1 43q0 53 -17.5 87.5t-60.5 68.5q0 -23 60 59q21 29 21 51q0 12 -14.5 37t-24.5 25q-6 0 -66 -38
q1 -4 13 -28q8 -15 8 -29q0 -60 -74 -104v185l-98 -1q17 -15 20 -36v-398q26 -1 80 1v217l17 10q4 -6 78 -155q62 -126 80 -126z" />
    <glyph glyph-name="l" unicode="l" horiz-adv-x="333" 
d="M348 152q0 -53 -28 -53q1 0 -17 2q-14 2 -23 0q-27 -5 -47 -7q-5 0 -22 -3t-21 -3q-3 0 -6.5 3t-7.5 3q-3 0 -8 -3t-8 -3q-4 0 -8 3t-8 3q-3 0 -18 -3t-19 -3q-13 0 -19 4q-19 11 -34.5 12t-31.5 2q-9 7 -9 22q0 35 17 35l183 -21q13 57 12 69l-110 12q19 176 43 366
l-86 9l-46 -373q0 -7 -6 -20q-6 0 -14 11q-2 37 2 80q4 48 4 57q0 26 -9 43q1 -3 4 15q1 9 -2 60q-2 58 -2 61q0 18 -3.5 56.5t-3.5 39.5q0 27 10 29q65 15 100 15q3 0 9 -1.5t9 -1.5q19 0 39 12q1 0 13 9q9 7 13 7q3 0 33.5 -5.5t33.5 -5.5t13 1t14 1q7 0 17 -9.5t11 -16.5
q-3 -15 -4 -47q8 -17 20 -55q9 -32 11 -72q-1 -3 -4 -9q0 -1 2.5 -2.5t2.5 -5.5q0 2 -3 -4q-2 -5 1 -18q-1 -4 0 -8q-9 -50 -9 -61q0 -1 4.5 -28t5.5 -44q-1 -3 -4 -9q-1 -21 7 -65q-1 -9 -1 -25q1 -11 4.5 -32.5t3.5 -24.5z" />
    <glyph glyph-name="m" unicode="m" horiz-adv-x="580" 
d="M585 66q0 -3 -8 -10q-11 -10 -13 -13q-2 -6 -8 -19q-15 -20 -43 -20q-4 0 -17 1.5t-16 1.5q-4 0 -65 -9.5t-65 -9.5q-3 0 -13.5 1t-15.5 1q-3 0 -63.5 -11t-63.5 -11q-14 0 -92 15q-16 3 -36 22q-1 1 -6 22q-3 7 -7 20q2 12 1 36q-4 16 -6 47q-2 4 -7 11q1 5 1 16
q-5 14 -4 36q2 28 1 36q-12 82 -3 120q1 5 -4.5 19t-5.5 19q-1 5 4 56q4 43 -28 82q-15 18 -19 36q1 20 1 58q0 7 -7 32t-7 28q0 21 11 63q-1 -3 -1 20q0 14 13 26q15 2 53 9q33 6 37 6q3 0 33.5 -9.5t34.5 -9.5h21q20 -1 32 -1t39 -6q5 -1 21.5 -8t20.5 -7q3 0 9.5 1.5
t10.5 1.5q3 0 25.5 -4.5t25.5 -4.5q4 0 23 5.5t23 5.5t34.5 -5.5t33.5 -5.5q-3 0 25 9q2 -1 11 -15q2 -4 25 -14q12 -34 19 -139l26 -370q3 -4 9 -11v-150zM530 112q-4 59 -21.5 175.5t-20.5 175.5q-5 84 12 143q4 11 -5 14l-114 -7q-9 -1 -11 -4q-4 -9 -6.5 -11t-28.5 -112
q-28 -115 -50 -149q-14 27 -42 140q-27 106 -36 118l-2.5 4.5t-9.5 3.5l-113 -6q-3 2 -13.5 -6t-10.5 -14q11 -33 25 -109q2 -21 2 -44q0 -42 -6 -128t-6 -129q0 -24 2 -46q3 -65 15 -64l110 6q7 3 5 12l-34 116q-19 70 -22 120q-2 41 2 66q0 9 9 6q5 -2 22 -58l22 -68
q15 -40 30 -79q12 -21 46 -21q11 0 28 2l24 2q18 1 10 27q-5 17 -20 48q25 72 55 164q0 7 6 7q15 -3 19 -88l6 -110q1 -22 -5 -62t-5 -63q-1 -4 1.5 -7.5t6.5 -3.5l115 6q10 0 10 15q0 -9 -1 18z" />
    <glyph glyph-name="n" unicode="n" horiz-adv-x="383" 
d="M390 598q0 -4 -4 -25l-4 -32q-1 -5 1 -22.5t2 -25.5q0 -20 -5 -64q0 -1 -5 -9t-5 -13q1 -5 5 -28q3 -17 2 -27q-1 -9 -7 -32t-6 -26q0 -18 3 -28q8 -22 0 -58q-2 -10 3 -29q5 -23 5 -31q0 -22 -9 -66q-4 -5 -10 -15q-1 -5 4 -20q-15 -27 -29 -27q-4 0 -9 3t-8 3
q-17 0 -29.5 -11.5t-26.5 -11.5q-4 0 -32 4t-32 4q-3 0 -10.5 -2.5t-10.5 -2.5t-7 2.5t-8 2.5t-10 -2.5t-10 -2.5q-3 0 -34 5.5t-35 5.5q-3 0 -8 -1.5t-9 -1.5q-20 0 -49 16q-7 58 -7 98l9 175q0 3 -7.5 135.5t-7.5 137.5q0 4 1.5 16t1.5 16v77q0 -3 3 40q2 37 0 45
q13 10 29 12q-3 -1 31 -1q4 0 12.5 -1t12.5 -1q3 0 47 7t48 7q3 0 15.5 -1.5t15.5 -1.5q37 0 54 6q1 1 9 17h14q7 0 67 -21q7 -3 17.5 -13t11.5 -16q3 -25 2 -118q0 -3 3 -9l4 -8q1 -6 1 -30zM254 655h-63l-1 -251q-12 32 -63 254h-55v-539l62 -1l-2 286l55 -289l67 4v536z
" />
    <glyph glyph-name="o" unicode="o" horiz-adv-x="395" 
d="M397 9q-15 -11 -39 -11q-3 0 -15 4t-15 4t-6.5 -1.5t-7.5 -1.5q-3 0 -11.5 5.5t-13 6.5t-68.5 20q-21 7 -67 6q-51 0 -97 11q-4 1 -11 29q-8 32 -9 34q-4 7 -4 28q0 3 6.5 20.5t6.5 20.5t-5 20t-5 20t5 9.5t5 9.5q0 9 -6 31q-1 3 -7.5 12.5t-6.5 13.5q0 3 5 17t5 17
t-4.5 12t-5.5 12q0 3 3 12.5t3 12.5q0 8 -11 27q-8 15 -17 29q3 13 0 23q-4 11 -4 10q0 3 5 21.5t5 21.5t-7.5 26.5t-7.5 26.5q0 9 4.5 21.5t4.5 17.5q0 6 -5 11q-1 3 -1 9q5 3 32 10.5t35 7.5q3 0 9 -2t9 -2q-16 1 96 1q2 0 9 -3t11 -3q24 -1 71 -3q5 0 19 -2.5t17 -2.5
t22.5 3.5t22.5 3.5h18q13 -25 13 -31q0 -3 -5.5 -11t-6.5 -12v-32q0 4 4 -16q-2 -5 -4 -15q5 -68 8 -104q3 -3 8 -10q1 -6 1 -29q0 -3 -1 -13.5t-1 -15.5t-5 -15t-5 -13q0 2 9 -35q2 -9 -1 -26q-3 -20 -3 -28q0 -2 3 -8.5t3 -8.5q0 -31 3 -91q3 -45 8 -112zM346 371
q-2 104 -43 162q-39 53 -102 53q-75 0 -114 -72q-33 -60 -33 -149q0 -249 147 -249q150 0 145 255zM280 338q0 -144 -75 -144q-81 0 -81 168q0 51 15 90q21 55 66 55q75 0 75 -169z" />
    <glyph glyph-name="p" unicode="p" horiz-adv-x="396" 
d="M219 462v-101l-35 -29h-52v162h55zM413 109q0 -8 -4 -16q-15 -25 -17 -28q8 -24 8 -22q-3 -34 -9 -105q-1 0 -5 -2t-9 -2q-3 0 -44 4q-46 5 -63 6q-5 2 -16 5q-154 10 -290 33q-6 6 -5 20l58 377v-332h113v187h89l99 78l7 180l-103 98h-154q4 0 -23 10q7 64 22 191
q2 17 25 17q40 0 81 -11q11 -6 31 -14q24 -1 73 -8q10 -3 82 -32q5 -2 11 -15.5t6 -17.5q0 -6 -12 -56q4 -6 7 -18q-11 -112 -10 -136q-1 -1 -2.5 -3t-1.5 -6q0 -24 0 -22q1 -1 10 -8.5t9 -12.5q0 -3 -9 -15q-1 -7 -4 -25t-3 -21q0 -4 8 -28.5t8 -28.5l-11 -25q3 -5 3 -12
q0 -6 -4 -18t-4 -18q0 -4 4 -11.5t4 -10.5q-1 -12 -1 -37q1 -12 9 -29q12 -26 13 -28q7 -4 23 -19q1 -3 1 -13z" />
    <glyph glyph-name="q" unicode="q" horiz-adv-x="449" 
d="M466 124q-5 -8 -5 -19q0 -15 -1 -18q-4 -4 -9 -15q-7 -57 -13 -67q-11 -19 -56 -19q-3 0 14 2h-5q-97 -8 -119 -8l-171 15q-3 0 -32 -4.5t-33 -4.5q-3 0 -5.5 11t-7.5 16t-5 25q0 26 12 58q22 55 22 56q2 5 11 21q-3 24 -13 69q-11 14 -25 46q-1 33 -6 108q-15 12 -32 34
q-2 10 3 34t4 33q-1 13 -1 77q0 43 6 62q6 23 29 23q-6 0 42.5 5.5t91.5 5.5q20 0 59 -4.5t59 -4.5q9 0 37 1q24 1 39 1q21 -1 39 -5q7 -10 7 -17q0 -4 -8 -16t-6 -49q0 -4 9.5 -20.5t7.5 -21.5q-1 -5 -15.5 -14t-14.5 -12t4 -40q4 -40 6 -59q5 -13 16 -39q0 -14 2 -40
l13 -26q-1 -8 2 -25q10 -22 25 -67q4 -23 8 -47q4 -27 15 -41zM355 325q0 77 -35 152q-44 91 -110 91q-70 0 -110 -85q-31 -65 -32 -146q-3 -139 86 -234q-45 -23 -45 -32q0 2 3 -9q9 0 28 4.5t28 4.5q22 0 59.5 -21t52.5 -21q7 0 29 31t27 44q-39 -10 -67 -10q-10 0 -14 4
q100 82 100 227zM243 178q0 -17 -9 -37q-11 -24 -26 -24q-16 0 -26 30q-8 23 -8 44v270q0 78 37 78q12 0 23 -31q9 -26 9 -42v-288z" />
    <glyph glyph-name="r" unicode="r" horiz-adv-x="414" 
d="M170 442h-2q0 53 5 180h32q58 0 58 -70v-20q0 -58 -18.5 -76t-74.5 -14zM417 -11q-192 9 -208 3q-28 9 -32 9q-3 0 -30 -6q-15 6 -22 6q-35 0 -76 -22l5 2q-1 27 -2 34q-4 20 -14 31q-1 24 2 39q-25 28 -29 71q-2 40 -3 79q-12 11 -30 48q16 95 16 129q0 6 7 14t8 11
q-11 56 -13 133q0 -14 0 134q0 29 8 74q286 0 308 -7q14 -34 14 -42q0 -16 -8 -75q-45 29 -105 37q-8 1 -115 7l-20 -548l36 -4l33 1q7 148 15 227l28 4q66 0 66 -102q0 -27 -5 -73q-6 -50 -6 -62l72 1q11 133 11 167q0 105 -47 103q41 30 49 50q5 14 5 71q0 14 2 24
q23 -21 30 -47q4 -17 4 -55q0 -22 24 -156t24 -186z" />
    <glyph glyph-name="s" unicode="s" horiz-adv-x="445" 
d="M465 173q-4 -9 -5 -20q0 -14 -1 -17q-4 -4 -8 -15q-8 -57 -13 -67q-12 -19 -56 -19q-3 0 13 2h-4q-98 -8 -120 -8l-171 15q-3 0 -17.5 -1.5t-18.5 -1.5q-21 0 -43 22q-4 4 -4 23q0 27 12 58q22 55 22 56q2 6 12 21q-4 24 -14 70q-11 14 -25 45q-4 23 -3 65q0 46 -2 66
q-6 7 -12 24.5t-13 53.5q-10 112 -10 143q0 58 10 91q6 23 29 23q54 0 134 -10q127 -16 134 -16q33 1 104 -7q6 -8 6 -80q0 -4 -8 -15.5t-6 -49.5l1 -25q-1 -3 -7.5 -21t-6.5 -22q0 -2 4 -39q5 -40 6 -59q6 -14 16 -39q0 -14 2 -40q5 -9 13 -27q0 -8 2 -24q10 -23 26 -67
q3 -24 7 -47q5 -28 15 -41zM362 221l-1 164l-72 75h-113v116h75v-55h90q1 47 0 66l-75 78q-25 1 -109 -1l-70 -80v-135l63 -76h116v-147q-63 8 -81 3v72h-94v-72l68 -81h124z" />
    <glyph glyph-name="t" unicode="t" horiz-adv-x="357" 
d="M-12 247q0 3 4 10.5t4 10.5q0 4 -6 20.5t-6 20.5t5 13t6 13q23 85 29 139q2 41 15 119q10 15 22 48q4 37 7 75q6 48 20 48q-3 0 16 -1.5t60 -1.5q24 -6 109 -11q63 -4 88 -21q4 -3 4 -36l4 -4q0 -4 -4 -18.5t-5 -20.5q-4 -57 -4 -121v-76q0 -5 -14 -22q6 -53 -9 -112
q-2 -34 -8 -108q0 -38 -4 -116q-1 -12 -1 -25q-4 -21 -15 -21q-3 0 -14 6t-15 6q-3 0 -6.5 -4.5t-6.5 -4.5q-4 0 -14 3t-14 3q-3 0 -12.5 -3t-13.5 -3t-10.5 4.5t-10.5 4.5t-32 -8t-31 -8q-8 0 -51 12q-49 12 -71 23q-9 74 -15 167zM242 554h-39l-2 106h-87v-109h-43v-56
l43 4v-236q6 -59 56 -68q20 -4 32 -4q3 0 15.5 1.5t17.5 1.5q4 28 -2 65q-33 -2 -33 35q0 5 1 14t1 11l1 176l39 4v55z" />
    <glyph glyph-name="u" unicode="u" horiz-adv-x="383" 
d="M391 83q-46 -18 -74 -18q-3 0 -9 1.5t-10 1.5q8 0 8 -7q0 -3 -11 -6q-29 -10 -85 -44q-4 -3 -7.5 -13t-7.5 -12q-8 -4 -63 -4q-4 0 -24.5 -3t-24.5 -3h-12q-6 0 1 1q-15 9 -18 21q0 4 -2 14q-5 5 -13 16q3 15 -5 39q-11 34 -13 41q-1 16 -5 50q-4 10 -10 30q-2 17 -2 37
q0 17 2 49.5t2 48.5q0 15 -1 28q-5 6 -10 18q-1 10 13 17.5t12 17.5q-10 49 -17 64q-2 4 4 23q8 23 8 34q0 6 -1.5 10.5t-8 13.5t-6.5 13q0 3 9 6t9 6q0 4 -4.5 12t-4.5 11q0 -24 -8 -24q-4 0 -9 10q-3 7 -3 46q4 1 19 9q9 4 18 3q20 -2 28 -2q6 0 6 3.5t13 3.5q3 0 19 -3
t20 -3q3 0 11 2t11 3q24 1 91 3l131 -12q23 -49 23 -69q0 -15 -13.5 -35t-13.5 -36l26 -284q7 -3 5 -13l-1 -13q9 -21 8 -42v-61zM325 531q-41 3 -126 9q9 -29 10 -38q1 -7 -1 -42q-2 -61 -11 -217q-2 -50 -29 -48q-22 1 -20 52q5 97 12 232q2 22 6 64l-120 6q21 -37 19 -73
l-12 -234q-6 -117 44 -124l46 -2q19 -1 33 12q6 8 13 17l12 -32l106 -5q-19 33 -20 34q-3 10 -2 38l15 279q1 31 14 57q6 7 11 15z" />
    <glyph glyph-name="v" unicode="v" horiz-adv-x="449" 
d="M454 285l-12 -99l-14 -111q-1 -20 -1 -22q-3 -15 -12 -18q-30 -13 -41 -13q1 0 -16.5 2t-26.5 1q-1 0 -14 -3t-17 -3q-3 0 -28.5 5t-35.5 6q-27 1 -83 4h-57q-38 1 -61 18q-1 1 5 6t6 8q0 1 -6.5 11.5t-6.5 17.5q-1 12 1 48q2 40 2 59q0 45 -8 65q-5 4 -12 13
q-6 14 -6 35v14v13q0 29 -15 40v84q0 3 6 13t7 14q4 9 4 32q0 11 -5 18q-8 11 -11.5 20.5t-3.5 39.5q0 2 12.5 24.5t15.5 34.5q2 18 13 52q4 7 22 13q15 5 23 5q4 0 31 -3t31 -3t34 8.5t33 8.5t17 -2.5t18 -2.5q11 0 35 14t35 14q2 0 25.5 -2t34.5 -2q4 0 13.5 -4.5
t13.5 -4.5q-13 1 -13 -3q0 -1 3 -2q15 -7 30 -30q17 -28 20 -59q-3 -59 -6 -125l8 -136q5 -93 13 -113zM398 562v10h-153v-9q35 -8 36 -46l-56 -331l-72 334q0 33 33 41v10h-146v-10q23 -11 29 -43q18 -93 79 -368q3 -26 -27 -41l-2 -7h204l-1 6q-31 19 -27 43l71 371
q0 31 32 40z" />
    <glyph glyph-name="w" unicode="w" horiz-adv-x="347" 
d="M347 219q-2 -14 -5 -42q-2 -18 0 -49q1 -16 2 28q-1 13 -1 27q-6 -17 -15 -52q-2 -8 -5 -28t-6 -41q-7 -31 -21 -37q-27 -12 -31 -12q-1 0 -10.5 4.5t-12.5 5.5q-7 0 -13 -7q-8 -12 -10 -13q-11 -9 -23 -7q-7 1 -174 52q-14 42 -18 186q0 4 3.5 6.5t3.5 6.5l-5 181
q0 15 -8 47l1 51q7 -13 16 -52q11 -53 15 -66l39 -128l56 8l17 180l8 -1q11 -51 40 -172l63 4l36 352q-1 3 -30 1q-28 -2 -32 -4q-9 -79 -21 -176q-5 0 -8 8q-9 48 -38 168l-57 -2q0 -46 -2 -62q-3 -44 -14 -124q-3 0 -6 8q-14 70 -41 170q-2 -1 -8 -2q-2 1 -9 0t-9 -1
q-17 2 -18 36l-2 102q-1 18 3.5 29.5t11.5 10.5q10 -1 43 -10q8 -5 21 -11q2 -1 28.5 5t28.5 6t10 -6.5t11 -6.5q2 0 9.5 4.5t9.5 3.5q2 0 26 -11.5t27.5 -11.5t32.5 -9q17 -1 53 -9q5 -11 18 -31q7 -31 7 -46q0 -6 -2.5 -15t-1.5 -17l2 -104q3 -12 8 -36q0 -14 2 -42
q1 -6 4 -15q-1 8 -1 -32q0 14 2 -85q1 -42 0 -115z" />
    <glyph glyph-name="x" unicode="x" horiz-adv-x="349" 
d="M361 63q-46 -18 -44 -18q-3 0 -9 1.5t-10 1.5q8 0 8 -7q0 -3 -11 -6q-29 -10 -85 -44q-4 -3 -7.5 -13t-7.5 -12q-8 -4 -63 -4q-4 0 -24.5 -3t-24.5 -3h-12q-6 0 1 1q-15 9 -18 21q0 4 -2 14q-5 5 -13 16q3 15 -5 39q-11 34 -13 41q-1 16 -5 50q-4 10 -10 30q-2 17 -2 37
q0 17 2 49.5t2 48.5q0 15 -1 28q-5 6 -10 18q-1 10 13 17.5t12 17.5q-10 49 -17 64q-2 4 4 23q8 23 8 34q0 6 -1.5 10.5t-8 13.5t-6.5 13q0 3 9 16t9 16q0 4 -4.5 12t-4.5 11q0 71 -17 106q-3 7 -3 46q4 1 19 9q9 4 18 3q20 -2 28 -2q6 0 6 3.5t13 3.5q3 0 19 -3t20 -3
q3 0 11 2t11 3q24 1 91 3l101 -12q23 -169 23 -189q0 -15 -13.5 -45t-13.5 -46l26 -284q7 -3 5 -13l-1 -13q9 -21 8 -42v-61zM309 102l-102 282l47 68q37 53 37 73q0 12 -20.5 36t-30.5 24q-7 0 -61 -53q12 -10 25 -21q13 -14 13 -28q0 -40 -24 -60q-39 97 -60 148h-91
l81 -230l-48 -89q-42 -78 -42 -87q0 -35 53 -72l63 64q-13 11 -25 33.5t-12 37.5t8 39t17 31l77 -196h95z" />
    <glyph glyph-name="y" unicode="y" horiz-adv-x="403" 
d="M414 588q-2 -9 -14 -24t-15 -24q-1 -5 1 -17q3 -16 3 -22q0 -25 -2 -36q-7 -11 -16 -28q-7 -36 -26 -106q-8 -11 -18 -34q0 -18 -2 -55q-1 -10 -11 -28q-12 -21 -14 -28q-4 -2 -10 -9q0 -19 -3 -53q0 -2 -4 -10.5t-4 -12.5q0 -31 3 -52q1 -7 8.5 -23t7.5 -19q0 -8 -4 -22
q-5 -21 -14 -21q-1 0 -32.5 4.5t-48.5 5.5q-49 0 -145 2q-16 4 -18 31l-13 201q0 9 2.5 25t2.5 26q0 12 -5.5 48t-5.5 52q-1 35 -7 109l-5 70v69q0 -1 -4 39t-4 62v73q0 8 11 24t24 16q3 0 11 -2.5t11 -2.5t37.5 14t37.5 14t28 -7t28 -7q4 0 11 2t8 2q70 10 87 10
q3 0 17.5 -4.5t17.5 -4.5q4 0 6.5 1.5t6.5 1.5q12 0 33 -7q26 -9 25 -19l6 -32q3 -20 0 -33q8 -59 16 -124q-1 -12 -5 -35zM316 581h-80l-49 -248q1 41 -37 248q-15 -4 -81 -1q24 -139 57 -327q3 -19 3 -34q0 -42 -28 -42q-17 0 -18 3v-61h71q45 0 62 35q3 6 22.5 87
t77.5 340z" />
    <glyph glyph-name="z" unicode="z" horiz-adv-x="499" 
d="M504 285l-12 -99l-14 -111q-1 -20 -1 -22q-3 -15 -12 -18q-30 -13 -61 -13q1 0 -16.5 2t-26.5 1q-1 0 -14 -3t-17 -3q-3 0 -28.5 5t-35.5 6q-27 1 -83 4h-57q-38 1 -61 18q-7 5 -19 18t-13 25t1 48q2 40 2 59q0 45 -8 65q-5 4 -12 13q-6 14 -6 35v14v13q0 29 -15 40v84
q0 3 6 13t7 14q4 9 4 32q0 11 -5 18q-8 11 -11.5 20.5t-3.5 39.5q0 2 12.5 24.5t15.5 34.5q2 18 13 52q4 7 22 13q15 5 23 5q4 0 31 -3t31 -3t34 8.5t33 8.5t17 -2.5t18 -2.5q11 0 35 14t35 14q2 0 25.5 -2t34.5 -2q4 0 13.5 -4.5t13.5 -4.5q13 -1 40 -5q15 -7 30 -30
q17 -28 20 -59q1 -11 -2 -67q-4 -60 -4 -58zM450 558q-26 14 -48 14q-31 0 -64 -30q-15 28 -56 28q-28 0 -80 -9t-80 -9q-13 0 -32 9q-26 12 -33 13q6 -16 6 -42q0 -11 -7.5 -35t-7.5 -35q0 -26 14 -44.5t38 -18.5t42 13q-12 39 -12 44q0 57 77 57q12 0 28 -5q21 -6 21 -15
q0 -5 -28 -58t-35 -64q1 -2 -17 -32l-20 -34q-14 -27 -53 -87q-48 -74 -62 -79q12 -19 40 -19q35 0 79 37q17 -33 66 -33q26 0 76.5 10t75.5 10q21 0 46 -20q-3 15 -3 28q0 24 12 52t12 41q0 60 -52 60l-38 -9q8 -28 8 -40q0 -31 -29 -49q-24 -15 -57 -15q-26 0 -39 11
q23 57 96 184q83 144 116 171z" />
    <glyph glyph-name="braceleft" unicode="{" horiz-adv-x="352" 
d="M372 474q-5 -12 -29 -170t-24 -180q0 -49 -14 -60l-31 -4h-221q-15 0 -42 15q-4 23 -2 59q2 57 2 58q0 18 -10 53.5t-9 51.5l10 375l16 19l31 -9q24 10 73.5 10.5t60.5 6.5q8 -5 21 -5q28 0 54 16q24 -4 49 -8q28 -7 28 -29q0 -11 23 -10q6 -10 6 -73q-1 -60 -5 -75z" />
    <glyph glyph-name="bar" unicode="|" horiz-adv-x="449" 
d="M466 174q-5 -8 -5 -19q0 -15 -1 -18q-4 -4 -9 -15q-7 -57 -13 -67q-11 -19 -56 -19q-3 0 14 2h-5q-97 -8 -119 -8l-171 15q-3 0 -32 -4.5t-33 -4.5q-3 0 -5.5 11t-7.5 16t-5 25q0 26 12 58q22 55 22 56q2 5 11 21q-3 24 -13 69q-11 14 -25 46q-1 33 -6 108q-15 12 -32 34
q-2 10 3 34t4 33q-1 13 -1 77q0 43 6 62q6 23 29 23q-6 0 42.5 5.5t91.5 5.5q20 0 59 -4.5t59 -4.5q9 0 37 1q24 1 39 1q21 -1 39 -5q7 -10 7 -17q0 -4 -8 -16t-6 -49q0 -4 9.5 -20.5t7.5 -21.5q-1 -5 -15.5 -14t-14.5 -12t4 -40q4 -40 6 -59q5 -13 16 -39q0 -14 2 -40
l13 -26q-1 -8 2 -25q10 -22 25 -67q4 -23 8 -47q4 -27 15 -41z" />
    <glyph glyph-name="braceright" unicode="}" horiz-adv-x="383" 
d="M390 598q0 -4 -4 -25l-4 -32q-1 -5 1 -22.5t2 -25.5q0 -20 -5 -64q0 -1 -5 -9t-5 -13q1 -5 5 -28q3 -17 2 -27q-1 -9 -7 -32t-6 -26q0 -18 3 -28q8 -22 0 -58q-2 -10 3 -29q5 -23 5 -31q0 -22 -9 -66q-4 -5 -10 -15q-1 -5 4 -20q-15 -27 -29 -27q-4 0 -9 3t-8 3
q-17 0 -29.5 -11.5t-26.5 -11.5q-4 0 -32 4t-32 4q-3 0 -10.5 -2.5t-10.5 -2.5t-7 2.5t-8 2.5t-10 -2.5t-10 -2.5q-3 0 -34 5.5t-35 5.5q-3 0 -8 -1.5t-9 -1.5q-20 0 -49 16q-7 58 -7 98l9 175q0 3 -7.5 135.5t-7.5 137.5q0 4 1.5 16t1.5 16v77q0 -3 3 40q2 37 0 45
q13 10 29 12q-3 -1 31 -1q4 0 12.5 -1t12.5 -1q3 0 47 7t48 7q3 0 15.5 -1.5t15.5 -1.5q37 0 54 6q1 1 9 17h14q7 0 67 -21q7 -3 17.5 -13t11.5 -16q3 -25 2 -118q0 -3 3 -9l4 -8q1 -6 1 -30z" />
    <glyph glyph-name="asciitilde" unicode="~" horiz-adv-x="541" 
d="M372 780q-20 -27 -51 -25q-19 1 -48.5 19t-44.5 19q-21 1 -42 -17t-30 -46h25q9 19 25 19q9 0 20 -5q39 -20 47 -23q24 -10 46 -12q40 -2 67 70z" />
    <glyph glyph-name="Adieresis" unicode="&#xc4;" horiz-adv-x="347" 
d="M361 63q-46 -18 -64 -18q-3 0 -9 1.5t-10 1.5q8 0 8 -7q0 -3 -11 -6q-29 -10 -85 -44q-4 -3 -7.5 -13t-7.5 -12q-8 -4 -63 -4q-4 0 -24.5 -3t-24.5 -3h-12q-6 0 1 1q-15 9 -18 21q0 4 -2 14q-5 5 -13 16q3 15 -5 39q-11 34 -13 41q-1 16 -5 50q6 10 10 30q-2 17 -2 37
q0 17 2 49.5t2 48.5q0 15 -1 28q-5 6 -10 18q-1 10 3 17.5t2 17.5q5 25 3 64q-1 22 -10 68q-2 5 2 14.5t4 11.5q0 3 -1 16t-1 16q0 4 5.5 12t5.5 11q0 71 -17 106q-3 7 -3 46q9 3 9.5 8t7.5 4q20 -2 28 -2q6 0 6 3.5t13 3.5q3 0 19 -3t20 -3q3 0 11 2t11 3q24 1 91 3
l121 -12q23 -169 23 -189q0 -15 -13.5 -45t-13.5 -46l26 -284q7 -3 5 -13l-1 -13q9 -21 8 -42v-61zM255 616q0 13 -10.5 23t-24.5 10q-35 0 -35 -33q0 -13 10 -23t25 -10q35 0 35 33zM150 616q0 13 -10 23t-24 10q-36 0 -36 -33q0 -14 10.5 -23.5t24.5 -9.5q15 0 25 10
t10 23zM276 130q0 1 -12 30t-12 36q0 62 -10 137q-2 18 -17 82q-13 52 -13 83q0 10 5 27.5t5 24.5l-7 6q-43 -3 -106 -17q8 -16 8 -43q0 -28 -11 -67l-18 -66q-7 -29 -11 -78q-6 -60 -9 -79q-2 -14 -15 -37t-14 -32l5 -4q31 7 76 0l7 5q0 5 -3.5 14.5t-3.5 14.5q0 8 3.5 24
t3.5 24q0 18 1 22q4 11 18 11q16 0 33.5 -27t17.5 -43q0 -37 -10 -66l5 -4q33 12 63 15q21 2 21 7zM185 300q0 -8 -6 -8q-5 0 -17 8.5t-14 12.5q-4 10 -4 26q0 11 5 31q6 25 13 25q9 0 10 -15l3 -33l6 -24q4 -15 4 -23z" />
    <glyph glyph-name="Aring" unicode="&#xc5;" horiz-adv-x="467" 
d="M454 285l27 -103l-11 -86q-1 -9 -22.5 -33t-32.5 -28q-30 -13 -41 -13q1 0 -16.5 2t-26.5 1q-1 0 -14 -3t-17 -3q-3 0 -28.5 5t-35.5 6q-27 1 -83 4h-57q-38 1 -61 18q-1 1 5 6t6 8q0 1 -6.5 11.5t-6.5 17.5q-1 12 1 48q2 40 2 59q0 45 -8 65q-5 4 -12 13q-6 14 -6 35v14
v13q0 29 -15 40v84q0 3 6 13t7 14q4 9 4 32q0 11 -5 18q-8 11 -11.5 20.5t-3.5 39.5q0 2 12.5 24.5t15.5 34.5q2 18 13 52q4 7 22 13q15 5 23 5q4 0 31 -3t31 -3t34 8.5t33 8.5t17 -2.5t18 -2.5q11 0 35 14t35 14q2 0 25.5 -2t34.5 -2q4 0 13.5 -4.5t13.5 -4.5q-13 1 -13 -3
q0 -1 3 -2q15 -7 30 -30q17 -28 20 -59q1 -11 -2 -67q-4 -60 -4 -58zM275 678q-2 20 -24.5 34.5t-41.5 12.5q-20 -2 -38 -17q-21 -17 -19 -37q1 -20 24 -34t42 -12q20 1 39.5 18t17.5 35zM468 173l-240 426l-11 -1l-162 -461l126 11l14 55l123 11l24 -52zM247 677
q1 -7 -11.5 -12.5t-20.5 -6.5t-22 4.5t-14 11.5q-1 7 13 13q11 5 20 6q7 1 21 -4t14 -12zM278 304l-59 -6l22 86z" />
    <glyph glyph-name="Ccedilla" unicode="&#xc7;" horiz-adv-x="436" 
d="M427 406q0 -3 -6.5 -24.5t-6.5 -30.5q1 -10 0 -49q-2 -19 10 -64t12 -62v-54q-3 -10 -3 -47q0 -7 -7 -5q-6 3 -13 5l-5 -5q0 -1 5 -19.5t4 -23.5q-1 -26 -14 -89q12 -19 3 -53q-5 -12 -39 -12q-4 0 -70 11.5t-69 11.5q-4 0 -9 -1.5t-9 -1.5q-3 0 -24.5 6t-25.5 6
q-3 0 -4.5 -1.5t-5.5 -1.5q12 0 -170 29q-10 7 -10 12q0 4 4 11t4 10q3 37 16 112q1 1 5 9t4 14v37q0 19 3 40q4 7 9 20q2 17 -1.5 30t-3.5 17q0 7 5 19.5t6 17.5q8 54 11 115q0 4 -11 56t-7 94q1 8 17 42.5t19 51.5q4 23 -5 31v10q13 6 23 6q14 0 26.5 -10t15.5 -10t12 3
t14 3q3 0 22.5 -3t29.5 -4q9 -6 29 -16q35 -12 67 -12q2 0 12.5 3t15.5 3q29 0 85 -21q5 -2 25 -25.5t17 -26.5q-5 -16 -12 -35q-1 -13 -5 -22.5t-1 -24.5q6 -45 6 -82zM408 195l-58 1q-6 -54 -58 -54h-59q-23 0 -40.5 15.5t-17.5 38.5v271q0 23 17.5 38.5t40.5 15.5h59
q51 0 58 -54h58q-6 108 -116 108h-117q-47 0 -82 -31t-35 -77v-271q0 -46 35 -77t82 -31h29v-55h29q30 0 30 -27t-28 -27q-5 0 -13 2l-22 -50q24 -6 37 -6q35 0 59.5 23.5t24.5 57.5q0 35 -26 58.5t-62 23.5h59q109 0 116 107z" />
    <glyph glyph-name="Eacute" unicode="&#xc9;" horiz-adv-x="305" 
d="M355 531q-12 -12 -14 -18q1 -13 1 -37q0 -22 -4 -41.5t-8 -36.5q2 -8 1 -21l-9 -19q0 -2 2.5 -11.5t1.5 -14.5q-1 -6 -8.5 -25t-7.5 -28q0 -6 3 -28q3 -18 1 -30q-4 -7 -12 -23q-2 -12 -8 -35q1 -6 1 -17q-3 -7 -10 -23q1 -8 1 -24l-14 -14q-10 -10 -7 -21l-32 3
q-4 0 -19 -4.5t-19 -4.5t-24 7.5t-23 7.5q-4 0 -4.5 -1.5t-4.5 -1.5t-6 2.5t-4 4.5q-17 7 -32 7q-3 0 -20 -4.5t-20 -4.5q9 0 -48 13q-3 3 -9 8q3 13 15 45q-2 7 -3 21q9 5 9 25v29q1 9 5 15q9 13 20 37q2 16 -2 55q-5 44 -5 41q0 12 5 61q4 41 2 45q-8 8 -20 26q-1 1 -3 6
l6 20q-12 11 -26 35q0 13 -3 38q1 3 4 9q-9 49 -17 83q-4 5 -12 17q-1 2 -1 -19q0 14 4 23q122 19 138 19l233 -16q-20 -6 -20 -7t2 -4t3 -7q5 -29 0 -47q-13 -41 -13 -38q0 -10 4 -16t9 -9q1 -14 3 -28q3 -18 18 -24zM224 630q1 6 -2.5 13.5t-14.5 9.5q-9 1 -31 -13
l-80 -54l9 -9l99 33q18 6 20 20zM277 145q-14 23 -23 58l-6 5l-51 -14q-14 -4 -39.5 7t-25.5 25q0 15 2 39q2 32 3 40q0 6 -2 24.5t-2 29.5q0 50 33 50q43 0 93 -14l3 3l-27 70l-6 2l-38 -9q-37 0 -55 6l-4 14q0 10 10 19t21 9q26 0 73 -14q3 0 6 4q-4 27 -13 60l-8 3
l-38 -5q-91 0 -110 2l-8 -7q12 -34 12 -67l-8 -110q-2 -28 2 -77q5 -57 5 -76q0 -55 -15 -79l8 -5q27 5 75 3l76 -4q31 0 50 -4z" />
    <glyph glyph-name="Ntilde" unicode="&#xd1;" horiz-adv-x="365" 
d="M390 598q0 -4 -4 -25l-4 -32q-1 -5 1 -22.5t2 -25.5q0 -20 -5 -64q0 -1 -5 -9t-5 -13q1 -5 5 -28q3 -17 2 -27q-1 -9 -7 -32t-6 -26q0 -18 3 -28q8 -22 0 -58q-2 -10 3 -29q5 -23 5 -31q0 -22 -9 -66q-4 -5 -10 -15q-1 -5 4 -20q-15 -27 -29 -27q-4 0 -9 3t-8 3
q-17 0 -29.5 -11.5t-26.5 -11.5q-4 0 -32 4t-32 4q-3 0 -10.5 -2.5t-10.5 -2.5t-7 2.5t-8 2.5t-10 -2.5t-10 -2.5q-3 0 -34 5.5t-35 5.5q-3 0 -8 -1.5t-9 -1.5q-20 0 -49 16q-7 58 -7 98l9 175q0 3 -7.5 135.5t-7.5 137.5q0 4 1.5 16t1.5 16v77q0 -3 3 40q2 37 0 45
q13 10 29 12q-3 -1 31 -1q4 0 12.5 -1t12.5 -1q3 0 47 7t48 7q3 0 15.5 -1.5t15.5 -1.5q37 0 54 6q1 1 9 17h14q7 0 67 -21q7 -3 17.5 -13t11.5 -16q3 -25 2 -118q0 -3 3 -9l4 -8q1 -6 1 -30zM288 753h-47q-6 -24 -36 -24q-15 0 -45 13.5t-48 13.5q-58 0 -73 -79h45
q9 24 30 24q17 0 45 -13.5t46 -13.5q33 0 56 24t27 55zM272 119v536h-75l-1 -251q-15 32 -77 254h-65v-539l74 -1l-2 286l66 -289z" />
    <glyph glyph-name="Odieresis" unicode="&#xd6;" horiz-adv-x="567" 
d="M575 66q0 -3 -8 -10q-11 -10 -13 -13q-2 -6 -8 -19q-15 -20 -43 -20q-4 0 -17 1.5t-16 1.5q-4 0 -65 -9.5t-65 -9.5q-3 0 -13.5 1t-15.5 1q-3 0 -63.5 -11t-63.5 -11q-14 0 -92 15q-16 3 -36 22q-1 1 -6 22q-3 7 -7 20q2 12 1 36q-4 16 -6 47q-2 4 -7 11q1 5 1 16
q-5 14 -4 36q2 28 1 36q-12 82 -3 120q1 5 -4.5 19t-5.5 19q-1 5 4 56q4 43 -28 82q-15 18 -19 36q1 20 1 58q0 7 -7 32t-7 28q0 21 11 63q-1 -3 -1 20q0 14 13 26q15 2 53 9q33 6 37 6q3 0 33.5 -9.5t34.5 -9.5h21q20 -1 32 -1t39 -6q5 -1 21.5 -8t20.5 -7q3 0 9.5 1.5
t10.5 1.5q3 0 25.5 -4.5t25.5 -4.5q4 0 23 5.5t23 5.5t34.5 -5.5t33.5 -5.5q-3 0 25 9q2 -1 11 -15q2 -4 25 -14q12 -34 19 -139l26 -370q3 -4 9 -11v-150zM377 669q0 19 -12 32.5t-29 13.5t-29.5 -13.5t-12.5 -32.5t12.5 -32.5t29.5 -13.5t29 13.5t12 32.5zM251 669
q0 19 -12 32.5t-29 13.5t-29.5 -13.5t-12.5 -32.5t12.5 -32.5t29.5 -13.5t29 13.5t12 32.5zM502 357q0 108 -66 179t-159 71t-158 -70q-67 -73 -67 -180q0 -106 66.5 -178t158.5 -72q93 0 159 71.5t66 178.5zM360 357q0 -40 -24 -69.5t-58 -29.5q-36 0 -61.5 29t-25.5 70
q0 42 25.5 71t60.5 29q36 0 59.5 -29.5t23.5 -70.5z" />
    <glyph glyph-name="Udieresis" unicode="&#xdc;" horiz-adv-x="321" 
d="M361 207q0 -30 -23 -97q-6 -6 -13 -19q2 -15 -4 -43q-11 -17 -38 -17q-3 0 -14 2.5t-14 2.5q-2 0 -17 -5q-19 -6 -39 -9q-2 -1 -10 -6t-12 -5q-80 0 -117 -1q-3 -1 -7.5 -2t-25.5 -3q-14 -1 -22 7l-3 171q7 1 7 86q0 100 -9 289q-8 173 -10 173l282 1q13 -5 21 -15
q-10 -47 -1 -67q11 -26 9 -65l-2.5 -8.5t-1.5 -13.5q13 -30 13 -40q0 -13 -8 -25v-74q9 -8 22 -25q-3 -7 -4 -23q4 -28 24 -87q17 -49 17 -82zM209 647q0 14 -9 24.5t-21 10.5q-30 0 -30 -36q0 -14 8.5 -24t21.5 -10q30 0 30 35zM114 650q0 14 -9 24.5t-21 10.5
q-30 0 -30 -36q0 -34 30 -34t30 35zM231 560q-34 -1 -63 3q-14 2 -14 -13q0 -10 6.5 -32.5t5.5 -32.5l-2 -104q0 -23 3.5 -70.5t3.5 -70.5q0 -8 -2 -20q-2 -15 -2 -20q-2 -17 -6 -21.5t-18 -4.5q-24 0 -24 58q0 16 1 55q1 34 0 54q0 14 -2 45t-2 47v73q0 11 7 34l6 17
q3 9 3 13q0 13 -12 13q-3 0 -11 -2l-21 -5q-30 -7 -42 -8l-7 -6q0 -9 7 -34.5t7 -37.5q0 -22 -2.5 -66t-2.5 -66q0 -3 1.5 -9t1.5 -9q0 -51 3 -120q-2 -7 -2 -33q0 3 3 -13q15 -82 94 -82q55 0 77 42q15 28 13 45l-6 64v85q0 7 2 23t2 24q0 16 -4 50t-4 51q0 35 15 71
q-5 14 -13 13z" />
    <glyph glyph-name="aacute" unicode="&#xe1;" horiz-adv-x="571" 
d="M30 259q-17 2 -19 44q-1 7 0 32q1 26 -15 37v91q0 7 6 19l5 8q6 10 6 33q0 4 -8 17q-12 20 -12 60q0 6 13 31t15 32q2 19 15 56q15 25 38 25q4 0 31 -2.5t31 -2.5q1 0 29 8q33 9 38 9q6 0 17.5 -3t17.5 -3q7 0 31 14.5t39 14.5q2 0 25 -2t35 -2q7 0 15.5 -4.5t12.5 -5.5
q15 -1 44 -5q19 -10 37 -37q19 -30 23 -65q1 -8 24 -76q15 -42 15 -78l-24 -218l46 -80l27 -140q-1 -24 -99 -43l-44 -11q-27 -7 -45 -7q-5 0 -19 2t-22 1q-43 -6 -34 -6q-2 0 -39 7q-19 4 -108 8q-18 -1 -57 -1q-21 1 -33.5 9.5t-25.5 18.5q-27 21 -28 48q-1 16 1 52
q2 42 2 59q0 37 -7 56zM322 704l-84 -82l48 2l131 79zM300 570l5 4l-229 -454h117l23 57h168l23 -57h117zM243 247l56 147l58 -147h-114z" />
    <glyph glyph-name="agrave" unicode="&#xe0;" horiz-adv-x="548" 
d="M20 259q-17 2 -19 44q-1 7 0 32q1 26 -15 37v91q0 7 6 19l5 8q6 10 6 33q0 4 -8 17q-12 20 -12 60q0 6 13 31t15 32q2 19 15 56q15 25 48 25q4 0 31 -2.5t31 -2.5q1 0 29 8q33 9 38 9q6 0 17.5 -3t17.5 -3q7 0 31 14.5t39 14.5q2 0 25 -2t35 -2q7 0 15.5 -4.5t12.5 -5.5
q15 -1 44 -5q19 -10 37 -37q19 -30 23 -65q1 -8 24 -76q25 -71 25 -78l-34 -218l26 -80l27 -140q-1 -28 -79 -43l-44 -11q-27 -7 -45 -7q-5 0 -19 2t-22 1q-43 -6 -34 -6q-2 0 -39 7q-19 4 -108 8q-18 -1 -57 -1q-34 2 -69 28q-27 21 -28 48q-1 16 1 52q2 42 2 59
q0 37 -7 56zM291 698l-74 3l95 -75l32 6zM283 583l5 3l-229 -453h117l23 57h169l22 -57h118zM226 260l57 147l58 -147h-115z" />
    <glyph glyph-name="acircumflex" unicode="&#xe2;" horiz-adv-x="540" 
d="M30 264q-18 0 -23 42q-1 6 -2 31.5t-18 36.5l-6 91q-1 7 5 19l4 8q5 10 4 33q0 5 -9 17q-14 19 -17 59q0 6 11.5 31.5t12.5 32.5q1 20 12 60q13 24 25 25q4 0 31 -1q28 -1 31 0q2 0 29 10q32 11 38 11q5 1 17 -1t17 -2q7 1 30 17t39 17q1 0 24 -1q24 0 35 1q7 0 16 -4
t13 -4q15 0 45 -2q20 -8 39 -34q21 -29 27 -63q2 -8 30 -75q33 -77 36 -103q7 -84 14 -169l14 -104l35 -134q1 -24 -95 -50q-29 -11 -88 -24q-14 1 -41 0q-11 -4 -33 -8q-2 0 -39 4q-15 2 -26 2q-27 0 -83 -1q-18 -2 -57 -5q-44 -1 -80 22q-7 4 -7 13q0 4 3 16t2 19
q-1 5 -3 86q-2 58 -12 81zM214 616l4 4l-146 -486l115 20l12 61l166 29l33 -53l115 20zM214 288l30 154l83 -134zM314 638l-80 66l-58 -8l-60 -86l65 10l29 43l39 -34z" />
    <glyph glyph-name="adieresis" unicode="&#xe4;" horiz-adv-x="546" 
d="M568 66q-1 -28 -79 -43l-44 -11q-27 -7 -45 -7q-5 0 -19 2t-22 1q-43 -6 -34 -6q-2 0 -39 7q-19 4 -108 8q-18 -1 -57 -1q-44 2 -79 28q-8 7 -9 21q1 14 0.5 28.5t1.5 50.5q2 42 2 59q0 37 -7 56q-17 2 -19 44q-1 7 0 32q1 26 -15 37v91q0 7 6 19l5 8q6 10 6 33
q0 4 -8 17q-12 20 -12 60q0 6 13 31t15 32q2 19 15 56q15 25 38 25q4 0 31 -2.5t31 -2.5q1 0 29 8q33 9 38 9q6 0 17.5 -3t17.5 -3q7 0 31 14.5t39 14.5q2 0 25 -2t35 -2q7 0 15.5 -4.5t12.5 -5.5q15 -1 44 -5q19 -10 37 -37q19 -30 23 -65q1 -8 24 -76q25 -71 25 -77
l-11 -112l4 -190zM381 670q0 16 -10 27t-24 11t-24 -11t-10 -27q0 -17 10 -28t24 -11t24 11t10 28zM255 670q0 16 -10 27t-24 11t-24 -11t-10 -27q0 -17 10 -28t24 -11t24 11t10 28zM511 141l-224 451l4 3l-229 -454h118l22 58h169l22 -58h118zM344 269h-115l57 146z" />
    <glyph glyph-name="atilde" unicode="&#xe3;" horiz-adv-x="541" 
d="M30 259q-17 2 -19 44q-1 7 0 32q1 26 -15 37v91q0 7 6 19l5 8q6 10 6 33q0 4 -8 17q-12 20 -12 60q0 6 13 31t15 32q2 19 15 56q15 25 38 25q4 0 31 -2.5t31 -2.5q1 0 29 8q33 9 38 9q6 0 17.5 -3t17.5 -3q7 0 31 14.5t39 14.5q2 0 25 -2t35 -2q7 0 15.5 -4.5t12.5 -5.5
q15 -1 44 -5q19 -10 37 -37q19 -30 23 -65q1 -8 24 -76q25 -71 25 -78l-34 -218l26 -80l27 -140q-1 -28 -79 -43l-44 -11q-27 -7 -45 -7q-5 0 -19 2t-22 1q-43 -6 -34 -6q-2 0 -39 7q-19 4 -108 8q-18 -1 -57 -1q-44 2 -79 28q-8 7 -9 21q1 14 0.5 28.5t1.5 50.5q2 42 2 59
q0 37 -7 56zM405 685q-16 -23 -42 -21q-16 1 -41 16t-37 16q-18 1 -35 -14t-24 -38h20q8 16 21 16q7 0 16 -5q33 -16 40 -19q20 -8 38 -10q33 -2 56 58zM319 590l5 3l-260 -437l116 -8l27 56l168 -12l19 -59l117 -8zM239 272l67 142l47 -150z" />
    <glyph glyph-name="aring" unicode="&#xe5;" horiz-adv-x="543" 
d="M550 223v-157q0 -9 -12.5 -20.5t-13.5 -14.5q-1 -9 -6 -16q-3 -3 -3 -7t2.5 -9t2.5 -7q0 -3 -7 -3q-4 0 -17 1.5t-16 1.5t-64 -9.5t-66 -9.5q-3 0 -13.5 1t-15.5 1q-2 0 -62 -11t-65 -11q-16 0 -95 15q-20 4 -44 25q-6 7 -7 17q-2 14 -3 16q-3 6 -7 19q-4 29 -29 55.5
t-25 47.5q0 17 10 41q11 28 10 34q-2 12 -2 24q0 23 19 105l-5 15t-5 19q-1 6 3.5 57.5t4.5 40.5q0 20 -9 31q-17 21 -22 43q2 20 1 60q-1 9 -7.5 31t-6.5 30q0 11 7 37q6 23 4 33q-3 30 20 54q18 4 61 13q12 2 16 2t58 -16q9 -3 10 -3q80 0 107.5 -11t26.5 -11q3 0 9.5 1.5
t10.5 1.5q9 0 26 -4.5t25 -4.5q5 0 21.5 5.5t24.5 5.5q5 0 37 -5q29 -6 31 -6q-5 0 25 10q14 -5 21 -17l1 -3q3 -5 7 -7q2 0 -15 -2t-17 -4q0 -1 2 -2q13 -41 21 -147l26 -366q3 -5 9 -10zM325 675q0 20 -13.5 33t-33.5 13t-38 -15t-18 -34q0 -20 21 -36.5t41 -16.5
q19 0 30 17t11 39zM501 147l-224 451l4 3l-229 -454h118l22 58h169l22 -58h118zM299 669q0 -22 -21 -22q-22 0 -22 25q0 21 22 21q21 0 21 -24zM334 275h-115l57 146z" />
    <glyph glyph-name="ccedilla" unicode="&#xe7;" horiz-adv-x="570" 
d="M621 20q0 -13 -6.5 -37.5t-5.5 -35.5q4 -29 -19 -51q-5 -1 -81 -14q-12 -2 -16 -2t-59 17q-8 3 -9 3q-80 0 -107.5 11t-26.5 11q-4 0 -10.5 -1.5t-9.5 -1.5q-9 0 -26 4t-26 4q-5 0 -21 -5.5t-24 -5.5q-5 0 -35.5 5.5t-33.5 5.5q5 0 -25 -9q-13 5 -20 17l-2 3q-1 3 -26 14
q-14 42 -21 148l-26 366q-3 5 -9 10v157q0 9 12.5 20.5t12.5 14.5q2 9 7 16q20 26 55 26q3 0 16 -1.5t17 -1.5q3 0 63.5 9.5t65.5 9.5q4 0 14 -1.5t15 -1.5q3 0 61 11q62 11 67 11q15 0 94 -14q20 -4 44 -26q7 -6 8 -16q2 -14 3 -16q8 -21 6 -41q-2 -10 -1 -12q4 -17 6 -46
l3 -4q1 -2 4 -6q1 -6 0 -14l-1 -5v1q6 -15 4 -38q-2 -27 0 -37q8 -57 8 -77q0 -24 -6 -47q0 -1 5.5 -15.5t5.5 -18.5q1 -6 -4 -58q-3 -37 25 -71q17 -22 21 -44q-1 -19 0 -59q0 -9 7 -31t7 -30zM336 -2q5 15 5 31q0 32 -19 53t-55 21q2 5 3 17q-2 6 -4 17q154 4 196 145
l-101 32q-26 -55 -85 -55q-43 0 -70.5 34t-27.5 80t27.5 80t70.5 34q60 0 85 -54l98 42q-47 133 -187 133q-83 0 -144 -68t-61 -167q0 -83 45.5 -146t119.5 -84l-5 -66q-8 -17 -8 -23q0 -4 4 -4q3 0 13.5 5t14.5 6q9 2 17 2q33 0 33 -32q0 -10 -3 -19.5t-24 -12.5
q-19 -3 -27 2q0 -1 -10 8l-10 8l-13 -23q0 -36 50 -36q58 0 72 40z" />
    <glyph glyph-name="eacute" unicode="&#xe9;" horiz-adv-x="444" 
d="M418 750q14 -41 22 -148l26 -368q3 -14 -14 -20l-3 -1q-1 -125 0 -139l1 -2q12 -20 0 -35q-2 -6 -7 -18q-20 -26 -55 -26q-4 0 -7 1.5t-7 1.5l1 -2q-17 -17 -27 -17q-3 0 -13.5 1.5t-14.5 1.5q-3 0 -63 -11t-65 -11q-16 0 -95 14q-19 4 -43 26q-7 6 -8 16q-2 14 -3 17
q-8 20 -6 40q1 10 1 13q-4 16 -6 45l-3 4q-1 2 -4 6q-1 6 0 14v5h1q-6 15 -4 37q2 27 0 37q-8 57 -8 77q0 24 5 48l-5 14.5t-5 18.5q-1 6 4 58q3 37 -25 72q-17 21 -22 43q2 20 1 59q-1 9 -7.5 31t-6.5 30q0 11 6.5 36t4.5 34q-3 31 20 54q5 1 81 14q12 2 16 2t58 -17
q9 -3 10 -3q80 0 107.5 -11t26.5 -11q3 0 9.5 1.5t10.5 1.5q122 0 122 -13q0 -3 -5 -8.5t-5 -7.5q0 -3 3 -5zM240 719l-66 -93h57l93 93h-84zM368 204h-174v96h170v89h-170v97h174v83h-283v-444h283v79z" />
    <glyph glyph-name="egrave" unicode="&#xe8;" horiz-adv-x="447" 
d="M28 153q-6 15 -4 38q1 27 0 36q-8 58 -8 78q0 24 5 47l-5 15t-5 19q-1 11 6 30.5t8 27.5q3 37 -25 71q-17 21 -22 43q2 20 1 60q-1 9 -7.5 31t-6.5 30q0 11 7 37q6 23 4 33q-3 30 20 54q23 4 71 13q12 2 16 2t58 -16q9 -3 10 -3q80 0 107.5 -11t26.5 -11q3 0 9.5 1.5
t10.5 1.5q9 0 26 -4.5t25 -4.5q5 0 21.5 5.5t24.5 5.5q2 0 -10 -2q-15 -3 -14 -6q5 2 17 7q14 -5 21 -17l1 -3q2 -3 27 -15q12 -38 11 -73q-1 -52 -1 -54q2 -24 2 -53q0 -40 -5 -131t-5 -136q0 -38 3 -69q3 -4 8 -9v-157q0 -11 -14.5 -23.5t-13.5 -15.5t-21.5 -20.5
t-36.5 -17.5q-4 0 3 1.5t4 1.5v-1q-19 -16 -28 -16q-3 0 -13.5 1t-15.5 1q-2 0 -62 -11t-65 -11q-16 0 -95 15q-20 4 -44 25q-6 7 -7 17q-2 14 -3 16q-9 21 -6 41q1 9 1 12q-4 17 -7 46l-2 3q-1 2 -4 6q-1 7 0 15v4h1zM224 688l-89 1l103 -69h46zM372 201h-174v97h170v88
h-170v97h174v83h-283v-443h283v78z" />
    <glyph glyph-name="ecircumflex" unicode="&#xea;" horiz-adv-x="400" 
d="M142 3q-4 -2 -11 -2q-75 0 -154 12q-18 14 -18 27q0 7 3.5 14t4.5 8q3 33 7 65q5 43 15 62q2 4 2 6v37q0 2 -10.5 25t-9.5 35q1 6 7 15l3 5q1 22 -3 33q-2 7 -2 13q0 7 5 19.5t6 18.5q8 49 10 113q0 2 -18 41.5t-18 73.5q0 17 14 87q2 8 2 11q0 4 -7 10v26q25 12 38 12
q44 0 129 -2t127 -2q4 0 13.5 3t15.5 3q31 0 90 -22q8 -4 15 -19.5t7 -29.5q0 -7 -3 -11v-2l-1 -2l-1 -1q-1 -51 3 -82q1 -7 17 -68q3 -11 3 -15q0 -8 -6.5 -28t-7.5 -28q1 -10 0 -49q-1 -20 2 -61q3 -47 3 -61q0 -8 -6 -21t-6 -19v-15q0 -39 1 -52q0 2 -2 -27
q3 -35 -1 -105q11 -22 1 -60q-10 -22 -53 -22q-5 0 -73 12q-64 11 -67 11t-8.5 -1.5t-8.5 -1.5q-9 0 -25 5.5t-24 5.5zM134 11l4 -2l-3 7q1 -3 -1 -5zM342 209h-174v97h170v88h-170v97h174v83h-283v-444h283v79zM300 627l-70 76h-58l-72 -76h66l34 38l34 -38h66z" />
    <glyph glyph-name="edieresis" unicode="&#xeb;" horiz-adv-x="419" 
d="M428 500q0 -3 -6.5 -24.5t-7.5 -30.5q1 -10 0 -49q-1 -20 2 -61q3 -48 3 -62q0 -5 -4 -14q-6 -13 -7 -15q-1 -6 -1 -26q0 -40 1 -54q0 3 -2 -23q-2 -16 0 -39q2 -29 2 -37q0 -18 -4 -33q12 -19 3 -53q-6 -12 -39 -12q-4 0 -70 11.5t-70 11.5q-3 0 -8.5 -1.5t-8.5 -1.5
q-4 0 -25.5 5.5t-24.5 5.5q-4 0 -5.5 -1t-4.5 -1q-73 0 -148 12q-9 7 -9 12q0 3 3.5 10.5t3.5 9.5q4 38 17 112q0 1 4 9.5t4 13.5v37q0 5 -14.5 27t-13.5 30q9 8 18 21q1 12 -4.5 23.5t-10.5 21.5q-2 7 9 20t12 19q3 21 1 55q-2 43 -1 56q0 5 -14 50t-11 86q0 4 13 67
q3 15 -12 28l7 13q13 6 23 6q44 0 129 -2t127 -2q3 0 13.5 3t15.5 3q28 0 84 -21q5 -2 10 -18.5t2 -20.5q0 -3 -3 -8q-3 -55 2 -89q3 -14 11.5 -45.5t8.5 -34.5zM293 646q0 16 -10.5 27t-24.5 11t-24.5 -11t-10.5 -27q0 -15 10.5 -26t24.5 -11t24.5 11t10.5 26zM166 652
q0 15 -9.5 25t-22.5 10t-22.5 -10t-9.5 -25q0 -14 9.5 -24t22.5 -10t22.5 10t9.5 24zM378 240l-6 1q-38 -28 -76 -57q-44 -31 -85 -31q-52 0 -67 43q-9 25 -9 98q0 4 1 7h42q53 0 83 -46q5 0 5 5q0 -2 -10 31q-7 23 -7 49q0 14 4 39.5t4 37.5h-6q-28 -26 -53 -33
q-18 -5 -60 -5q-10 0 -10 28q0 103 88 103q63 0 144 -78l5 4q0 1 -8 35q-6 22 -6 35q0 33 16 70q-5 3 -7 3q-1 0 -18.5 -6.5t-30.5 -6.5q-18 0 -53 9t-52 9q-43 0 -74 -9q-1 0 -27 -9q-18 -6 -27 -6q-13 0 -50 14v-7q27 -29 25 -97q3 -98 -1 -295q-1 -22 -30 -77l4 -4
q38 15 58 15q9 0 84 -20q16 -4 31 -4q23 0 58 9t51 9q14 0 67 -16q-12 25 -12 81q0 32 15 72zM255 271h-1l-1 3h1z" />
    <glyph glyph-name="iacute" unicode="&#xed;" horiz-adv-x="244" 
d="M326 726q0 -8 -14 -35q0 -1 4 -22q-3 -5 -8 -12q0 -21 -6 -56q-6 -10 -15 -28q-20 -73 -20 -93q0 9 9 -41q0 -18 3 -51q8 -44 -10 -72q9 -8 22 -30v-48q1 -11 -10 -81.5t-9 -84.5l-248 -37q-36 5 -36 14q0 4 6 11t6 10q0 -4 2 68q1 63 0 76q-5 61 -3 70q0 2 7 13t7 18
q0 1 -3 5t-4 8q-2 11 7 71q1 16 5 48q-1 15 -1 45q4 8 10 25q2 12 -1 31q-5 31 -5 34q0 4 5.5 14t5.5 14q3 27 11 79q-1 7 0 23q18 14 53 33q7 2 79 7q3 1 10.5 4.5t11.5 3.5q25 0 49 -12l10 -10q9 -9 18 -9q3 0 17 7t18 7q17 0 17 -17zM265 648h-99l-84 -96l66 3zM193 139
v360l-86 2v-362h86z" />
    <glyph glyph-name="igrave" unicode="&#xec;" horiz-adv-x="289" 
d="M326 726q0 -8 -14 -35q0 -1 4 -22q-3 -5 -8 -12q0 -21 -6 -56q-6 -10 -15 -28q-20 -73 -20 -93q0 9 9 -41q0 -18 3 -51q8 -44 -10 -72q9 -8 22 -30v-48q1 -11 -10 -81.5t-9 -84.5l-248 -37q-36 5 -36 14q0 4 6 11t6 10q0 -4 2 68q1 63 0 76q-5 61 -3 70q0 2 7 13t7 18
q0 1 -3 5t-4 8q-2 11 7 71q1 16 5 48q-1 15 -1 45q4 8 10 25q2 10 -16 31t-19 32q-1 4 11.5 26t12.5 26q2 13 13 28.5t14 28.5q-1 7 0 23q18 14 53 33q7 2 79 7q3 1 10.5 4.5t11.5 3.5q25 0 49 -12l10 -10q9 -9 18 -9q3 0 17 7t18 7q17 0 17 -17zM188 605l-68 61h-81l96 -61
h53zM202 574q-1 4 -2 5q-77 -13 -87 -13q-35 0 -70 16h-4q-2 -6 -2 -8q4 -3 8 -8q13 -12 20 -32l6 -27q-2 -3 -2 -5q0 1 2.5 -7.5t2.5 -31.5v-220q0 -64 -41 -103q4 -4 7 -4q-2 0 26 7q25 6 51 6q25 0 51 -6q11 -4 24 -8q3 0 4 2q-35 48 -35 98v243q0 44 17 67q24 33 24 29z
" />
    <glyph glyph-name="icircumflex" unicode="&#xee;" horiz-adv-x="273" 
d="M286 0q-6 -1 -20 0l-16 2q-4 0 -13.5 -7t-12.5 -7q-43 0 -99 16t-53 16q-3 0 -20 -4.5t-20 -4.5t-8.5 1.5t-8.5 1.5q0 14 -12.5 55t-12.5 42q0 3 4.5 11t5.5 12q12 46 12 72l3 100q0 4 -8.5 43.5t-8.5 43.5q0 3 5 11t5 11q10 54 10 125q0 2 -11.5 30t-13.5 42
q-1 4 1 13.5t2 12.5q0 7 -4 22t-4 18q0 1 5 9q-1 -6 -1 23q0 6 8 20t8 23q1 9 -9 11q-3 1 -3 4t2 7q2 11 24 13q3 0 73 -3t73.5 -3t10 -3t9.5 -3q63 -1 66 -72q-1 -25 6 -78q-3 -7 -4 -23q0 -4 15 -46q-2 -9 -4 -27q2 -34 6 -105q5 -67 5 -68t-7.5 -56t-9.5 -83q3 -3 0 -87
q1 -3 5 -61q3 -44 20 -70zM210 627l-70 76h-58l-72 -76h66l34 38l34 -38h66zM173 125v474h-119v-474h119z" />
    <glyph glyph-name="idieresis" unicode="&#xef;" horiz-adv-x="267" 
d="M281 70q-47 -19 -44 -19q-13 0 -45.5 -8t-54.5 -8q-4 0 -24.5 -3t-24.5 -3q-7 0 -12 1q-6 0 1 0q-15 10 -18 21q-2 7 -18.5 13.5t-18.5 23t-6 50.5q-4 10 -10 30q-2 17 -2 37q0 17 2 49.5t2 48.5q0 15 -1 28q-5 6 -10 18q-1 10 13 17.5t12 17.5q-10 49 -17 64q-2 4 4 23
q8 23 8 34q0 6 -1.5 10.5t-8 13.5t-6.5 13q0 3 9 16t9 16q0 4 -4.5 12t-4.5 11q0 71 -17 106q-3 7 -3 46q4 1 19 9q9 4 18 3q20 -2 28 -2q6 0 6 3.5t13 3.5q3 0 19 -3t20 -3q3 0 11 2t11 3q24 1 91 3l20 -5q23 -169 23 -189q0 -15 -13 -45.5t-13 -45.5l26 -284q7 -4 5 -14
q-1 -12 -1 -13q9 -20 8 -42v-60zM217 670q0 19 -12 32.5t-30 13.5q-17 0 -29 -13.5t-12 -32.5t12 -33t29 -14q18 0 30 14t12 33zM91 670q0 19 -12 32.5t-30 13.5q-17 0 -29 -13.5t-12 -32.5t12 -33t29 -14q18 0 30 14t12 33zM173 126v474h-109v-474h109z" />
    <glyph glyph-name="ntilde" unicode="&#xf1;" horiz-adv-x="457" 
d="M459 529l-5 -249l-12 -100l-15 -110q0 -21 -1 -23q-2 -14 -11 -18q-30 -12 -41 -12q1 0 -16.5 2t-26.5 1q-2 0 -14.5 -3t-17.5 -3q-2 0 -27.5 5t-35.5 5q-27 2 -83 5q-29 0 -57 -1q-38 2 -61 19q-6 11 -17 29q-5 6 -5 20q-1 15 9 65t10 73q0 17 -4 28q-5 4 -12 12
q-7 14 -7 36q0 5 1 14v13q0 29 -15 40v83q0 4 5 12q7 12 8 15q4 10 4 33q0 11 -5 17q-8 11 -11.5 21t-3.5 39q0 3 12.5 25.5t14.5 33.5q3 19 14 53q4 7 22 13q14 5 23 5q4 0 31 -3t31 -3q3 0 33.5 8.5t33.5 8.5t17 -3t18 -3q11 0 34.5 14.5t35.5 14.5q2 0 25 -2t35 -2
q3 0 12.5 -4.5t13.5 -5.5q-12 2 -12 -3q0 -1 3 -1q19 -10 39 -31q28 -30 31 -59v-124zM347 698l-40 3q-8 -24 -33 -22q-13 1 -37.5 16t-40.5 16q-49 3 -67 -74l38 -3q9 24 27 22q15 -1 38 -16t38 -16q29 -2 51 22q20 21 26 52zM438 570v8h-5l-74 -13l-61 11h-2q-1 -1 -2 -1
q-2 0 -6 1q41 -45 41 -117v-117q0 -30 -3 -35q-10 10 -113 151q-33 45 -33 65q0 16 10.5 34.5t11.5 16.5v9q-15 -9 -50 -18q-19 -5 -43 -5h-19q9 0 -38 9q-6 -1 -17 0q34 -40 34 -86l1 -274q-1 -69 -26 -108q2 -1 0 -6l76 20q8 -1 22 -2q10 -1 42 -13q-27 30 -34 75l-6 74
v166q21 -25 107 -139q36 -49 65 -97q12 -19 31 -58q2 -8 7 -24q1 -2 4 -4l32 11q12 -1 35 -5q-10 28 -15 74q-2 32 -4 63l-1 238q2 28 33 96z" />
    <glyph glyph-name="oacute" unicode="&#xf3;" horiz-adv-x="310" 
d="M342 597q-2 -22 -15 -51q-15 -33 -18 -48q-6 -34 -6 -133q0 -32 11.5 -98t11.5 -97q0 -12 -6 -39.5t-6 -43.5l-32 -6q-10 -5 -13 -29l-44 -16t-34 -30l-25 -4h-80q-19 0 -26 21q-10 29 -13 32l1 26q1 30 -9.5 90.5t-10.5 90.5q0 37 -6 94q-6 70 -8 93v5q-27 39 -27 106
q0 82 1 74l10 25l-11 39q0 10 10 92l39 8q28 0 85.5 -7.5t87 -7.5t52.5 -17l22 5q3 -24 3 -51v-13v-11q0 -28 9 -46q11 -22 47 -53zM244 682q0 30 -25 30q-10 0 -28 -16l-75 -63l15 -20l92 39q21 9 21 30zM289 363q-1 59 -8 101q-24 129 -114 129q-95 0 -103 -193
q-1 -17 -1 -62q0 -79 16 -137q26 -95 90 -95q73 0 101 59q18 39 18 120v34q1 26 1 44zM178 190q-51 0 -51 143q0 62 10.5 114t24.5 54q30 4 42 -31q7 -21 7 -60q0 -23 1 -62.5t1 -64.5q0 -27 -7 -55q-9 -38 -28 -38z" />
    <glyph glyph-name="ograve" unicode="&#xf2;" horiz-adv-x="570" 
d="M591 350q0 -48 -14 -126q-12 -63 -23 -126q-7 -46 -7 -67t-21 -17q-12 2 -42 25q-36 29 -40.5 32t-7.5 8q6 7 11 -1q0 2 2 4v-10q-18 -4 -31 -6q-7 -1 -9.5 -2t-4.5 -25q-19 -6 -51 -18q-20 -8 -33 -32q-33 -5 -34 -5h-79q-28 0 -87.5 22.5t-78.5 39.5l2 33q1 32 -9 90
q-11 62 -11 90q0 36 -5 94q-7 71 -9 93q-27 43 -27 111q0 82 1 77l9 23q-10 31 -10 38q0 11 11 105q52 10 53 10q28 0 140.5 -7.5t140.5 -7.5q32 0 59 -17l39 2q6 -5 7 -5l6 6q25 26 46 26q29 0 67 -33q-3 -26 23 -148q27 -126 23 -146q-6 -33 -6 -130zM284 701l-47 -74
l45 1l103 70zM293 578q-86 0 -148 -67t-62 -168t62.5 -168t147.5 -67q87 0 148.5 66.5t61.5 168.5t-61.5 168.5t-148.5 66.5zM294 228q-43 0 -72.5 34t-29.5 81t29.5 80.5t72.5 33.5q42 0 70 -34t28 -80t-27 -79q-29 -36 -71 -36z" />
    <glyph glyph-name="ocircumflex" unicode="&#xf4;" horiz-adv-x="535" 
d="M555 524q-7 -14 -16 -44q-6 -33 -6 -130q0 -33 11 -98.5t11 -97.5q0 -13 -6 -40.5t-5 -54.5q-19 -4 -32 -6q-7 -1 -9.5 -2t-4.5 -25q-19 -6 -51 -18q-19 -8 -32 -31q-33 -5 -34 -5h-290q-28 0 -38 23q-14 35 -17 39l1 32q1 32 -9 90q-10 62 -10 90q0 36 -6 94
q-7 71 -8 94q-28 42 -28 110q0 82 1 77l10 23q-10 32 -10 38q0 11 10 105q53 10 55 10q157 -21 255 -21q37 0 75 3.5t49 3.5q31 0 57 -17l32 8q5 -39 5 -80v-6q0 -18 2 -27q4 -29 55 -73q-3 -32 -17 -64zM254 716l-95 -3l104 -74l63 2zM269 590q-86 0 -147 -65
q-63 -68 -63 -170q0 -100 64 -168q61 -66 146 -66q87 0 148.5 66.5t61.5 167.5q0 103 -61.5 169t-148.5 66zM270 241q-43 0 -72.5 33.5t-29.5 80.5t29.5 81t72.5 34q42 0 70 -34t28 -81q0 -45 -28 -79.5t-70 -34.5z" />
    <glyph glyph-name="odieresis" unicode="&#xf6;" horiz-adv-x="576" 
d="M579 1q-15 -3 -23 -3q-28 0 -224.5 6.5t-224.5 6.5q-31 0 -57 16l-32 -8q-6 48 -2 78q3 13 6 38q3 29 -45 70q3 37 13 109q6 32 6 130q0 32 -11 98t-11 97q0 12 6 66q7 50 6 77q19 5 52 1l1 15q26 12 58 4q8 -2 17 15q32 5 34 5l357 1q28 0 38 -23q14 -35 17 -39l-1 -33
q-1 -31 9 -91t10 -89q0 -35 6 -93q7 -71 8 -94q6 -10 6 -22q0 -15 -14 -45t-14 -43q0 -82 -1 -77l-11 -25q0 -11 -2.5 -32.5t-2.5 -32.5q0 -6 16 -15q20 -11 28 -20q15 -17 12 -41q-9 -2 -30 -7zM289 588q-86 0 -148 -66.5t-62 -168.5q0 -101 64 -169q61 -66 146 -66
q87 0 148.5 66.5t61.5 168.5t-63 170q-60 65 -147 65zM290 239q-43 0 -72.5 33.5t-29.5 80.5t29.5 81t72.5 34q42 0 70 -34t28 -81q0 -45 -28 -79.5t-70 -34.5zM380 627l-70 76h-58l-72 -76h66l34 38l34 -38h66z" />
    <glyph glyph-name="otilde" unicode="&#xf5;" horiz-adv-x="572" 
d="M560 338l9 -72l15 5q3 -14 -13 -49v-158q0 -8 -8 -17q18 -8 18 -18q0 -13 -21.5 -24.5t-37.5 -11.5q-4 0 -16.5 1.5t-16.5 1.5q-3 0 -64 -10t-66 -10q-3 0 -13.5 1.5t-14.5 1.5q-3 0 -63 -11t-65 -11q-16 0 -95 15q-19 4 -43 25q-7 6 -8 16q-2 14 -3 17q-9 21 -6 41
q1 9 1 12q-4 16 -6 46l-3 3q-1 2 -4 6q-1 6 0 14v5h1q-6 15 -4 37q2 28 0 37q-8 57 -8 78q0 24 5 47l-5 15t-5 19q-1 5 4 58q3 37 -25 71q-17 21 -22 43q2 20 1 60q-1 9 -7.5 31t-6.5 30q0 10 6.5 35t4.5 35q-3 30 20 54q5 0 81 13q12 2 16 2t58 -16q9 -3 10 -3
q80 0 107.5 -11t26.5 -11q3 0 9.5 1.5t10.5 1.5q9 0 26 -4.5t26 -4.5q4 0 20.5 5.5t24.5 5.5q5 0 37 -5q29 -6 32 -6q-6 0 24 9q14 -5 21 -16l2 -4q1 -2 26 -14q14 -41 21 -148q1 -15 1 -29q0 -29 -9 -73t-9 -90q0 -32 3 -72zM509 354q0 102 -63 170q-60 65 -147 65
q-86 0 -148 -66.5t-62 -168.5q0 -101 64 -169q61 -66 146 -66q87 0 148.5 66.5t61.5 168.5zM398 354q0 -45 -28 -79.5t-70 -34.5q-43 0 -72.5 33.5t-29.5 80.5t29.5 81t72.5 34q42 0 70 -34t28 -81zM358 702q-12 0 -21.5 -10.5t-9.5 -25.5q0 -16 9.5 -26t21.5 -10
q13 0 22.5 10t9.5 26q0 15 -9.5 25.5t-22.5 10.5zM232 702q-12 0 -21.5 -10.5t-9.5 -25.5q0 -16 9.5 -26t21.5 -10q13 0 22.5 10t9.5 26q0 15 -9.5 25.5t-22.5 10.5z" />
    <glyph glyph-name="uacute" unicode="&#xfa;" horiz-adv-x="561" 
d="M517 633q5 -15 4 -37q-2 -28 -1 -37q8 -57 8 -77q0 -24 -5 -48l5 -14.5t6 -18.5q0 -6 -5 -59q-3 -37 25 -71q18 -21 22 -43q-1 -20 -1 -60q1 -8 7.5 -30.5t6.5 -30.5q0 -12 -6 -36.5t-5 -35.5q4 -29 -20 -51q-4 -1 -81 -14q-12 -2 -15 -2q-9 0 -29 18q-1 1 0 1
q-80 0 -107.5 11t-26.5 11q-3 0 -9.5 -1t-9.5 -1q-9 0 -26.5 4t-25.5 4q-5 0 -21.5 -5.5t-24.5 -5.5q-5 0 -35.5 5.5t-32.5 5.5q5 0 -25 -9q-14 5 -20 17l-2 3q-1 2 -26 14q-14 42 -22 148l-26 366q-3 5 -8 9v157q0 10 12 21t13 15q2 9 6 15q20 26 55 26q4 0 17 -1.5
t17 -1.5q2 0 63 10t66 10q3 0 13.5 -1.5t15.5 -1.5q2 0 62 11t66 11q5 0 23.5 -6t37.5 -12t37 -22q6 -6 8 -16q1 -14 2 -17q9 -21 6 -40q-1 -10 0 -13q4 -16 6 -45l2 -4q1 -2 5 -6q1 -6 -1 -14v-5v0zM265 728l-61 -86l61 2l109 84h-109zM432 584h-109v-246q0 -46 -9 -67
q-14 -33 -54 -33q-38 0 -52 31q-10 22 -10 69v246h-109v-259q0 -105 42 -150t130 -45t129.5 45t41.5 150v259z" />
    <glyph glyph-name="ugrave" unicode="&#xf9;" horiz-adv-x="544" 
d="M126 809q26 -1 52 -1q31 -2 51 -10q27 -11 26 -11q3 0 9.5 1.5t10.5 1.5q9 0 26 -4.5t25 -4.5q5 0 21.5 5.5t24.5 5.5q5 0 37 -5q29 -6 31 -6q-5 0 25 10q14 -5 21 -17l1 -3q2 -3 27 -15q13 -41 21 -147l26 -366q3 -5 9 -10v-157q0 -9 -12.5 -20.5t-13.5 -14.5
q-1 -9 -6 -16q-20 -26 -55 -26q-4 0 -17 1.5t-16 1.5t-64 -9.5t-66 -9.5q-3 0 -13.5 1t-15.5 1q-2 0 -62 -11t-65 -11q-4 0 -20.5 6.5t-22.5 7.5q-20 4 -44 26q-7 6 -9 16q-2 15 -3 17q-9 21 -6 41q1 9 1 12q-4 17 -7 46l-2 3q-1 2 -4 6q-1 7 0 15v4h1q-6 15 -4 38
q1 27 0 36q-8 58 -8 78q0 24 5 47l-5 15t-5 19q-1 6 4 58q3 37 -25 71q-17 21 -22 43q2 20 1 60q-1 9 -7.5 31t-6.5 30q0 11 7 37q6 23 4 33q-3 30 20 54q5 0 81 13q12 2 16 2q16 0 23 -19zM267 729h-103l110 -87h64zM442 584h-109v-246q0 -46 -9 -67q-14 -33 -54 -33
q-38 0 -52 31q-10 22 -10 69v246h-109v-259q0 -105 42 -150t130 -45t129.5 45t41.5 150v259z" />
    <glyph glyph-name="ucircumflex" unicode="&#xfb;" horiz-adv-x="319" 
d="M324 66l-5 5q-7 8 -10 8t-5 -9l-3 -12q-9 -20 -27 -20q-2 0 -10.5 1.5t-10.5 1.5q-3 0 -12 -9.5t-11 -9.5t-9 1t-10 1q-2 0 -40.5 -11t-40.5 -11q-9 0 -59 15q-10 3 -23 22q-1 1 -4 22q-2 7 -5 20q1 1 2 3q1 -2 3 -4v3q-2 16 -3 47q-2 4 -5 11q1 5 1 16q-4 14 -3 36
q1 28 1 36q-8 82 -2 120q0 5 -3 19t-4 19q0 5 3 56q2 43 -18 82q-10 18 -12 36q1 20 1 58q-1 7 -5 32t-4 28q0 2 2 -3t4 -5q2 1 3 7q0 -2 0 21q0 14 8 26q10 2 34 9q21 6 23 6q3 0 22.5 -9.5t21 -9.5t14.5 -1h19q9 0 26 -6q3 -1 13.5 -8t13.5 -7q2 0 6 1.5t6 1.5
q3 0 17 -4.5t16 -4.5q3 0 15 5.5t15 5.5q2 0 -8.5 -5.5t-8.5 -5.5q-1 0 16 9q2 -1 7 -15q2 -4 16 -15q8 -33 8 -40q1 -17 2 -35l17 -370q1 -4 5 -11v-150zM242 600q-71 77 -71 79t-72 -79l13 -1l59 24l57 -23h14zM257 551q-34 -1 -62 3q-15 1 -15 -14q0 -9 6.5 -32t6.5 -33
q-3 -103 -3 -104q0 -23 3.5 -70t3.5 -71q0 -7 -2 -20.5t-2 -19.5q-1 -17 -5 -21t-18 -4q-25 0 -25 58q0 15 1 54q1 34 1 54q0 14 -2.5 45t-2.5 47v74q0 10 8 33l5 17q3 9 3 13q0 13 -12 13q-3 0 -11 -2l-21 -4q-30 -7 -42 -8l-6 -7q-1 -9 6 -34.5t7 -36.5q0 -22 -2 -66
t-2 -66q0 -4 1 -9.5t1 -9.5q0 -51 4 -119q-3 -9 -3 -33q0 2 3 -14q16 -82 95 -82q54 0 76 42q15 29 14 46l-6 63v85q0 8 1.5 23.5t1.5 23.5q0 16 -4 50t-4 51q0 35 15 72q-4 13 -13 13z" />
    <glyph glyph-name="udieresis" unicode="&#xfc;" horiz-adv-x="451" 
d="M472 593q1 -17 -8 -53.5t-9 -57.5q0 -16 7.5 -37.5t7.5 -45.5q0 -9 -12 -33q0 4 10 -37q1 -6 1 -13q0 -12 -5.5 -37.5t-5.5 -36.5q3 -6 7 -19q3 -16 -3 -47t-5 -46q3 -52 11 -140q-30 -20 -62 -20q-7 0 -19.5 4.5t-16.5 4.5q-3 0 -8 -1.5t-8 -1.5q-8 0 -18 7t-13 7
q-17 3 -59 17q-37 12 -60 13q-12 1 -39 1q-62 -1 -117 13q-8 2 -47 81q-5 11 -5 40q0 8 7.5 26t7.5 22q0 1 -6 19q-6 22 -6 28q0 7 11 23q0 23 -7 35q-16 24 -16 32q0 7 7.5 25t7.5 21l-8 16q-7 12 0 29q3 9 3 12q0 31 -13 59q3 18 0 25q-4 10 -4 16q0 8 6 26t6 24
q0 1 -9 27q-9 30 -9 36q0 10 9 38q2 7 -4 12q-2 10 -2 27q12 8 42 18t42 10q4 0 11 -2.5t10 -2.5q21 -1 55 0q47 1 58 1q5 0 13 -3t12 -4q35 1 106 -7q13 -2 19 -2q7 0 25.5 4t26.5 4h31q21 -40 21 -52q0 -7 -7 -17.5t-7 -11.5q0 -2 8.5 -16.5t8.5 -21.5q0 -10 3 -13
q8 -6 17 -24zM402 314v259h-109v-246q0 -46 -9 -67q-14 -33 -54 -33q-38 0 -52 31q-10 22 -10 69v246h-109v-259q0 -105 42 -150t130 -45t128 43q43 47 43 152zM304 694q-14 0 -24 -11t-10 -28q0 -16 10 -27.5t24 -11.5t24 11.5t10 27.5q0 17 -10 28t-24 11zM144 694
q-13 0 -23.5 -11t-10.5 -28q0 -16 10.5 -27t23.5 -11q14 0 24 11t10 27q0 17 -10 28t-24 11z" />
    <glyph glyph-name="dagger" unicode="&#x2020;" 
d="M344 564v71q1 10 -10 10l-273 -9q-7 -7 -7 -15q0 -52 10 -66q17 3 55 3q27 0 28 -8q6 -69 15 -298q0 -30 2 -81q-3 -12 -3 -26q5 -1 22 1.5t19 2.5q59 0 57 0l-5 371v32q11 9 42 11q24 0 48 1zM449 51q-30 -18 -214 -36q-117 -10 -235 -21q-13 12 -13 38q0 10 2.5 29.5
t2.5 27.5q0 14 -1 42v43q0 3 -2 37q-1 25 1 40q2 21 11 33q-5 33 -5 47q0 26 6.5 76t6.5 76q0 1 10 31q3 6 -2 34q-5 33 -5 39q0 7 11 55t15 54l-5 23l6 10q3 1 54 23q28 12 61 12q7 0 22.5 6t22.5 6q17 0 52.5 -10.5t52.5 -10.5q7 0 22.5 4.5t22.5 4.5l68 -16
q1 -30 -14 -47l4 -22q0 -10 -5 -34.5t-4 -37.5q-18 -30 -18 -147q0 -69 34.5 -234.5t34.5 -174.5zM72 727l114 -72l114 74l-13 11l-98 -33l-103 34z" />
    <glyph glyph-name="degree" unicode="&#xb0;" horiz-adv-x="327" 
d="M343 584q-3 -22 -16 -51q-14 -32 -17 -48q-6 -34 -6 -133q0 -32 11 -97.5t11 -97.5q0 -12 -6 -39.5t-5 -43.5l-32 -6q-11 -5 -13 -29q-22 -8 -44.5 -16t-34.5 -30l-24 -4h-80q-20 0 -27 21q-9 29 -13 32l1 26q1 31 -9 89q-10 63 -10 92q0 37 -6 94q-7 70 -8 93v5
q-27 39 -27 106q0 82 0 75l11 24l-11 39q0 10 9 92l40 8q27 0 85 -7.5t85 -7.5q31 0 55 -17l21 5q4 -24 4 -51v-12.5v-11.5q0 -28 8 -46q12 -22 48 -53zM301 533q0 63 -43 107.5t-106 44.5t-106.5 -44t-43.5 -108t43.5 -108t107.5 -44q62 0 105 45t43 107zM229 536
q0 -33 -23 -57t-55 -24q-34 0 -57 23.5t-23 57.5q0 33 23 56.5t57 23.5q33 0 55.5 -23.5t22.5 -56.5z" />
    <glyph glyph-name="cent" unicode="&#xa2;" horiz-adv-x="403" 
d="M413 210q3 -14 -6 -24t-9 -13q0 -5 5 -11q-5 -8 -7 -27q-2 -23 -2 -25q-1 -22 -3 -52q1 -28 1 -56q-2 -18 -40 -18q-3 0 13 2h-4q-21 -2 -53 -6q-26 -3 -30 -3l-170 16q-3 0 -32 -5t-33 -5q-3 0 -5.5 11t-7.5 16t-5 25q0 75 9 104q1 5 5 43q19 30 19 49q0 4 -1 8
q-12 14 -26 46q0 33 -5 108q-15 12 -32 34q-2 10 3 34t4 33q-1 13 -1 78q0 42 6 61q6 23 29 23q-6 0 42.5 5.5t91.5 5.5q45 0 82 -6q20 -4 43 -2q34 3 38 3q19 0 38 -4q7 -10 7 -17q0 -3 -2 -14q-2 -9 0 -47q0 -1 4 -23q3 -17 1 -23q2 4 2 -29q0 -2 4 -39q4 -41 5 -60
q6 -13 17 -39q1 -4 -18 -18.5t-18 -20.5q5 -9 14 -27q-1 -8 1 -24q11 -23 26 -67zM332 128q0 35 -37 56q-38 17 -75 35q-44 25 -55 70q-18 74 -18 99q0 30 9 53q13 32 39 32q39 0 39 -44q0 -8 -2.5 -24t-2.5 -24q0 -12 9 -26q39 6 64 55q22 41 22 86q0 28 -11 50
q-14 27 -39 27q-8 0 -23 -2.5t-23 -2.5h-12v88h-40v-84q-12 1 -21 1q-21 0 -29 -3q-34 -17 -53 -103q-14 -64 -14 -123q0 -22 3 -50q12 -95 18 -114q21 -67 76 -67q9 0 20 1v-109h40v115q6 1 11 1q15 0 44.5 -5.5t44.5 -5.5q16 0 16 18z" />
    <glyph glyph-name="sterling" unicode="&#xa3;" horiz-adv-x="387" 
d="M391 63q-46 -18 -74 -18q-3 0 -9 1.5t-10 1.5q8 0 8 -7q0 -3 -11 -6q-29 -10 -85 -44q-4 -3 -7.5 -13t-7.5 -12q-8 -4 -63 -4q-4 0 -24.5 -3t-24.5 -3h-12q-6 0 1 1q-15 9 -18 21q0 4 -2 14q-5 5 -13 16q3 15 -5 39q-11 34 -13 41q-1 16 -5 50q-4 10 -10 30q-2 17 -2 37
q0 17 2 49.5t2 48.5q0 15 -1 28q-5 6 -10 18q-1 10 13 17.5t12 17.5q-10 49 -17 64q-2 4 4 23q8 23 8 34q0 6 -1.5 10.5t-8 13.5t-6.5 13q0 3 9 16t9 16q0 4 -4.5 12t-4.5 11q0 71 -17 106q-3 7 -3 46q4 1 19 9q9 4 18 3q20 -2 28 -2q6 0 6 3.5t13 3.5q3 0 19 -3t20 -3
q3 0 11 2t11 3q24 1 91 3l131 -12l16 -50q15 -52 15 -90q0 -28 -8 -49q-11 -25 -11 -125l10 -250q7 -3 5 -13l-1 -13q9 -21 8 -42v-61zM361 107v102h-129q16 37 16 60l-5 21h73v97h-111q-14 27 -14 51q0 49 57 49q32 0 57 -28l52 72q-28 63 -139 63q-58 0 -103 -40
q-50 -43 -50 -109q0 -29 11 -58h-38v-97h85q9 -13 9 -27q0 -62 -77 -62v-94h306z" />
    <glyph glyph-name="section" unicode="&#xa7;" 
d="M356 174v224q0 72 -11 101q-19 49 -82 71q-23 8 -38 8q-56 0 -98 -28q-51 -33 -52 -94l2 -253q3 -69 47 -105q38 -32 97 -32q44 0 84 24q51 31 51 84zM256 171q-4 -22 -16 -27q-4 -2 -22 -2q-43 0 -43 70v263q0 13 15 23.5t24 10.5q34 0 39 -53zM428 500q-14 -43 -14 -98
q0 -21 2.5 -64t2.5 -65q0 -3 -5 -15t-6 -14q-6 -29 -3 -78q5 -75 5 -81q0 -31 -6 -53q7 -12 7 -26q0 -46 -43 -39q-122 20 -157 20q-10 0 -30 4.5t-30 4.5q-31 0 -85 11q-80 17 -85 18l-10 12q17 40 29 150q11 93 11 152q0 6 5 18t6 17q6 34 7 73q1 28 0 72q-2 56 -2 74
q0 17 11 76q10 55 9 59q-7 27 -6 28l22 7q25 0 42 -20q4 0 5.5 -11t5.5 -11q29 0 93 -3t100 -3q4 0 20 4q12 2 20 -1l30 -3q3 2 7 4q13 11 17 11q2 -1 2 -3q0 -42 7 -114q7 -82 16 -113zM280 693q-57 -93 -54 -93h30q0 3 81 93q-57 -3 -57 0zM199 693q-42 -93 -39 -93h26
q0 3 66 93q-53 -3 -53 0z" />
    <glyph glyph-name="bullet" unicode="&#x2022;" horiz-adv-x="439" 
d="M454 285l-12 -99l-14 -111q-1 -20 -1 -22q-3 -15 -12 -18q-30 -13 -41 -13q1 0 -16.5 2t-26.5 1q-1 0 -14 -3t-17 -3q-3 0 -28.5 5t-35.5 6q-27 1 -83 4h-57q-38 1 -61 18q-1 1 5 6t6 8q0 1 -6.5 11.5t-6.5 17.5q-1 12 1 48q2 40 2 59q0 45 -8 65q-5 4 -12 13
q-6 14 -6 35v14v13q0 29 -15 40v84q0 3 6 13t7 14q4 9 4 32q0 11 -5 18q-8 11 -11.5 20.5t-3.5 39.5q0 2 12.5 24.5t15.5 34.5q2 18 13 52q4 7 22 13q15 5 23 5q4 0 31 -3t31 -3t34 8.5t33 8.5t17 -2.5t18 -2.5q11 0 35 14t35 14q2 0 25.5 -2t34.5 -2q4 0 13.5 -4.5
t13.5 -4.5q-13 1 -13 -3q0 -1 3 -2q15 -7 30 -30q17 -28 20 -59q-3 -59 -6 -125l8 -136q5 -93 13 -113zM337 357q0 53 -33.5 90.5t-81.5 37.5t-81.5 -37.5t-33.5 -90.5t33.5 -91t81.5 -38t81.5 38t33.5 91z" />
    <glyph glyph-name="paragraph" unicode="&#xb6;" horiz-adv-x="451" 
d="M472 593q1 -17 -8 -53.5t-9 -57.5q0 -16 7.5 -37.5t7.5 -45.5q0 -9 -12 -33q0 4 10 -37q1 -6 1 -13q0 -12 -5.5 -37.5t-5.5 -36.5q3 -6 7 -19q3 -16 -3 -47t-5 -46q3 -52 11 -140q-30 -20 -62 -20q-7 0 -19.5 4.5t-16.5 4.5q-3 0 -8 -1.5t-8 -1.5q-8 0 -18 7t-13 7
q-17 3 -59 17q-37 12 -60 13q-12 1 -39 1q-62 -1 -117 13q-8 2 -47 81q-5 11 -5 40q0 8 7.5 26t7.5 22q0 1 -6 19q-6 22 -6 28q0 7 11 23q0 23 -7 35q-16 24 -16 32q0 7 7.5 25t7.5 21l-8 16q-7 12 0 29q3 9 3 12q0 31 -13 59q3 18 0 25q-4 10 -4 16q0 8 6 26t6 24
q0 1 -9 27q-9 30 -9 36q0 10 9 38q2 7 -4 12q-2 10 -2 27q12 8 42 18t42 10q4 0 11 -2.5t10 -2.5q21 -1 55 0q47 1 58 1q5 0 13 -3t12 -4q35 1 106 -7q13 -2 19 -2q7 0 25.5 4t26.5 4h31q21 -40 21 -52q0 -7 -7 -17.5t-7 -11.5q0 -2 8.5 -16.5t8.5 -21.5q0 -10 3 -13
q8 -6 17 -24zM402 314v259h-109v-246q0 -46 -9 -67q-14 -33 -54 -33q-38 0 -52 31q-10 22 -10 69v246h-109v-259q0 -105 42 -150t130 -45t128 43q43 47 43 152zM280 713q-57 -93 -54 -93h30q0 3 81 93q-57 -3 -57 0zM199 713q-42 -93 -39 -93h26q0 3 66 93q-53 -3 -53 0z
" />
    <glyph glyph-name="germandbls" unicode="&#xdf;" horiz-adv-x="445" 
d="M465 173q-4 -9 -5 -20q0 -14 -1 -17q-4 -4 -8 -15q-8 -57 -13 -67q-12 -19 -56 -19q-3 0 13 2h-4q-98 -8 -120 -8l-171 15q-3 0 -17.5 -1.5t-18.5 -1.5q-21 0 -43 22q-4 4 -4 23q0 27 12 58q22 55 22 56q2 6 12 21q-4 24 -14 70q-11 14 -25 45q-4 23 -3 65q0 46 -2 66
q-6 7 -12 24.5t-13 53.5q-10 112 -10 143q0 58 10 91q6 23 29 23q88 0 219 -19l1 1l103 11l29 -11q7 0 8 -6t12 -9q6 -8 6 -80q0 -4 -8 -15.5t-6 -49.5l1 -25q-1 -3 -7.5 -21t-6.5 -22q0 -2 4 -39q5 -40 6 -59q6 -14 16 -39q0 -14 2 -40q5 -9 13 -27q0 -8 2 -24
q10 -23 26 -67q3 -24 7 -47q5 -28 15 -41zM362 221l-1 164l-72 75h-113v116h75v-55h90q1 47 0 66l-75 78q-25 1 -109 -1l-70 -80v-135l63 -76h116v-147q-63 8 -81 3v72h-94v-72l68 -81h124zM248 772l-70 -81l49 -1l134 82h-113z" />
    <glyph glyph-name="registered" unicode="&#xae;" horiz-adv-x="535" 
d="M586 170q0 -21 -11 -63q1 3 1 -20q0 -14 -13 -27q-15 -2 -53 -8q-33 -7 -36 -7q-4 0 -34.5 10t-34.5 10h-21q-20 1 -32 1t-38 5q-6 2 -22.5 9t-20.5 7q-3 0 -9.5 -1.5t-10.5 -1.5q-3 0 -25 4t-26 4t-23 -5.5t-23 -5.5t-34.5 5.5t-33.5 5.5q3 0 -25 -8q-2 1 -11 15
q-2 3 -25 14q-11 34 -19 138l-26 371q-3 4 -8 11v150q0 3 7 10q11 10 13 12q2 7 8 20q16 20 43 20q4 0 17 -1.5t17 -1.5q3 0 64 9.5t65 9.5q3 0 13.5 -1t15.5 -1q4 0 64 11t64 11q13 0 91 -15q16 -3 37 -22q1 -1 5 -23q3 -6 7 -19q-2 -13 -1 -36q4 -16 6 -47q3 -4 7 -11
q-1 -5 -1 -16q5 -14 4 -36q-2 -28 -1 -37q12 -81 3 -119q-1 -5 4.5 -19t6.5 -19q0 -5 -5 -56q-3 -43 29 -82q15 -18 18 -36q-1 -20 -1 -59q1 -6 7.5 -31t6.5 -28zM469 575q0 95 -69 161t-164 64q-92 -2 -156 -66.5t-65 -156.5q-1 -93 63.5 -159t157.5 -68q95 -2 164 64.5
t69 160.5zM436 575q0 -81 -59.5 -138t-140.5 -54q-79 2 -134 58t-55 134t54 133.5t133 58.5q82 4 142 -53t60 -139zM339 450v77q0 48 -50 48q50 6 50 50v25q0 21 -15 35.5t-35 14.5h-150v-250h50v100h50q21 0 35.5 -14.5t14.5 -35.5v-50h50zM289 625q0 -25 -25 -25h-75v50
h75q25 0 25 -25z" />
    <glyph glyph-name="copyright" unicode="&#xa9;" horiz-adv-x="918" 
d="M944 -59q-38 -15 -94 -15q-7 0 -36.5 5.5t-36.5 5.5q-6 0 -15 -2t-18 -2q-7 0 -28 8t-30 9q-19 2 -41 2q-21 0 -57 -2.5t-50 -2.5q-17 0 -28 2q-99 18 -154 18q-44 -1 -113 13q-106 21 -116 22q-29 4 -49 29q-8 9 -8 40q0 4 15.5 28t15.5 29q0 4 -12.5 28t-12.5 29
q0 4 12.5 13t12.5 14q0 13 -15 44q-2 4 -18 17.5t-16 18.5t12 24.5t12 23.5t-10.5 16.5t-11.5 17.5q-2 4 6 17t8 18q0 11 -27 38q-20 21 -40 41q3 9 3 16q0 10 -6.5 19.5t-6.5 11.5q0 4 12.5 30t12.5 31q0 4 -18.5 37.5t-18.5 37.5q0 12 10.5 30t10.5 24q0 9 -13 16
q-1 4 -1 13q11 4 76 14.5t84 10.5q7 0 22 -3t21 -3q42 -1 113 0q96 2 117 2q5 0 22 -4t27 -5q58 -1 170 -3q12 -1 47 -5q32 -4 41 -4q7 0 53 5.5t54 5.5h43q32 -35 32 -44q0 -4 -14 -15.5t-15 -18t-1 -43.5q0 -5 4 -12q5 -10 5 -11q-4 -7 -8 -22q10 -95 18 -146q8 -5 21 -14
q2 -9 2 -42q0 -3 -2.5 -18t-2.5 -22t-12.5 -21.5t-12.5 -18.5q0 -7 12 -29t12 -34q0 -9 -6 -30t-6 -32q0 -4 7.5 -13t8.5 -12q5 -22 4 -64q-1 -45 2 -64q7 -33 20 -98zM841 368q0 154 -108.5 262.5t-261.5 108.5q-154 0 -262.5 -108.5t-108.5 -262.5q0 -153 108.5 -261.5
t262.5 -108.5q153 0 261.5 108.5t108.5 261.5zM792 368q0 -132 -93.5 -225t-225.5 -93t-225 93t-93 225t93 225.5t225 93.5t225.5 -93.5t93.5 -225.5zM633 333h-83q-9 -83 -83 -83q-35 0 -59.5 24.5t-24.5 58.5v84q0 34 25 58.5t59 24.5q74 0 83 -83h83q-9 166 -161 166
q-76 0 -124 -50q-51 -54 -49 -117l1 -83q2 -70 50 -118t118 -48q155 0 165 166z" />
    <glyph glyph-name="trademark" unicode="&#x2122;" horiz-adv-x="539" 
d="M542 64q-22 -15 -55 -15q-4 0 -21.5 5.5t-21.5 5.5q-3 0 -8.5 -2t-10.5 -2q-4 0 -16.5 8t-19 9t-95.5 29q-30 9 -96 8q-72 -1 -136 15q-17 4 -29 29q-5 9 -5 40q0 4 14.5 -21.5t14.5 -20.5q0 3 -7 27.5t-7 29.5q0 3 7 12.5t7 13.5q0 13 -8 45q-1 4 -10.5 17t-9.5 19
q0 4 7 24t7 24t-6.5 16.5t-6.5 17.5q-1 4 3.5 17t4.5 18q0 11 -15 38q-12 21 -24 41q1 8 1 16q0 10 -3.5 19.5t-3.5 11.5q0 4 7 30t7 30t-10.5 37.5t-10.5 37.5q0 12 6 30.5t6 24.5q0 9 -7 16q-1 4 -1 13q6 4 44.5 14.5t49.5 10.5q4 0 13 -3t12 -3q25 -2 67 0q56 1 69 1
q3 0 13 -4t15 -4q34 -1 100 -4q8 0 27.5 -4t24.5 -4q4 0 31 5.5t32 5.5h26q18 -36 18 -45q0 -4 -8 -15.5t-9 -17.5t-1 -43q0 5 6 -23q-3 -7 -5 -22q6 -95 11 -146q5 -5 12 -14q1 -9 1 -42q0 -3 -1 -18t-1 -22.5t-7.5 -21.5t-7.5 -18q0 -8 7 -30t7 -33q0 -9 -3.5 -30
t-3.5 -32q0 -4 4.5 -13t4.5 -12q1 -9 1 -13q0 -5 -3 -2l-4 4q-3 0 -2 -18q4 -33 12 -98zM482 531v200h-26l-87 -100l-88 100h-25v-200h50v100l63 -75l63 75v-100h50zM206 681v50h-150v-50h50v-150h50v150h50z" />
    <glyph glyph-name="acute" unicode="&#xb4;" horiz-adv-x="571" 
d="M273 799l-95 -108l49 -1l158 109h-112z" />
    <glyph glyph-name="dieresis" unicode="&#xa8;" horiz-adv-x="377" 
d="M77 756q0 17 12 28.5t28 11.5q17 0 29 -11.5t12 -28.5t-12 -28.5t-29 -11.5q-16 0 -28 11.5t-12 28.5zM221 759q0 17 12 28.5t28 11.5q17 0 29 -11.5t12 -28.5t-12 -28.5t-29 -11.5q-16 0 -28 11.5t-12 28.5z" />
    <glyph glyph-name="AE" unicode="&#xc6;" horiz-adv-x="513" 
d="M514 93q0 1 -19 -20q-1 -7 -7 -18q-13 -18 -38 -18q-4 0 -15.5 1.5t-14.5 1.5q-4 0 -58.5 -9t-58.5 -9q-2 0 -11.5 1.5t-14.5 1.5q-3 0 -57 -10t-58 -10q-12 0 -82 13q-14 3 -33 20q-1 1 -5 20q-3 6 -6 18q1 11 1 32q-4 15 -6 42q-2 4 -6 10q1 5 1 15q-5 12 -3 32
q1 25 0 33q-11 74 -3 107q1 5 -3.5 17.5t-5.5 17.5q0 4 4 50q3 39 -26 74q-13 16 -16 33q1 17 1 52q-1 6 -7 28.5t-6 25.5q0 1 13.5 -2.5t19.5 -3.5q10 0 12 7q-1 -3 -1 18q0 13 11 24q14 2 48 8q30 5 33 5t30.5 -8.5t31.5 -8.5q1 0 2 30q0 24 10 24q11 0 35 -5
q5 -1 20 -7.5t18 -6.5t9 1.5t9 1.5q4 0 23.5 -4t23.5 -4q3 0 20 5t21 5q3 0 30.5 -5t31.5 -5q-3 0 21 8q3 -1 10 -13q3 -4 23 -14q19 -55 21 -61q9 -33 11 -57q3 -46 3.5 -163t5.5 -176q2 -4 7 -10v-135zM471 165q0 25 -30 25q-19 0 -55.5 -7t-54.5 -7t-18 21q0 33 10 73
q11 47 29 61q1 1 46 17q35 12 35 28q0 11 -32 20q-46 12 -60 19q-32 16 -33 49q-1 21 29 21q15 0 47 -5t49 -5q32 0 32 26q0 5 -1.5 17t-1.5 17q0 3 2 11.5t1 12.5q-3 2 -7 2l-17.5 -4t-36.5 -1q-42 5 -74 5q-22 0 -55.5 -3.5t-55.5 -3.5q-15 0 -43.5 3.5t-43.5 3.5
q-31 0 -25 0q-19 -2 -19 -13q0 -3 7.5 -15t7.5 -24q0 -19 -9.5 -60.5t-9.5 -66.5q0 -29 3 -119q1 -26 -8 -76.5t-9 -75.5l1 -12q11 7 21 7q6 0 16.5 -4t16.5 -4q32 0 32 40q0 25 -5 74.5t-5 74.5q0 40 40 40q43 0 49 -2q22 -7 22 -42q0 -23 -4 -55q-12 -56 -12 -90
q0 -42 29 -42q17 0 53 4q1 -1 3 -2v3q40 4 58 4q12 0 33 -3t33 -3h17q-6 21 -6 26q0 7 4.5 20t4.5 20zM258 416q0 -31 -19 -31q-8 0 -22.5 1.5t-21.5 1.5q-5 0 -15.5 -1.5t-15.5 -1.5q-24 0 -24 31q0 72 59 72t59 -72z" />
    <glyph glyph-name="Oslash" unicode="&#xd8;" horiz-adv-x="429" 
d="M446 33q-18 -12 -46 -12q-3 0 -7.5 4.5t-8.5 4.5q-2 0 -7 -1.5t-9 -1.5q-3 0 -13.5 6.5t-15.5 7.5t-80 24q-25 7 -79 7q-60 -1 -114 12q-14 4 -24 24q-4 8 -4 33q0 4 7.5 26.5t7.5 26.5q0 3 -6 21t-6 22q0 3 6 13t6 14q0 6 -7 32q-1 3 -9 14t-8 16q0 4 6 20t6 20t-5.5 14
t-5.5 14q-1 4 3 14.5t4 14.5q0 10 -13 32l-20 34q3 16 -1 28t-4 11q0 4 6 25.5t6 25.5q0 3 -9 31t-9 31q0 10 5.5 25.5t5.5 20.5q0 8 -7 13q-1 3 -1 11q6 3 37.5 12t41.5 9q4 0 11 -2.5t10 -2.5q21 -1 55 0q48 1 58 1q2 0 10.5 -3.5t13.5 -3.5q28 -1 83 -3q6 0 22.5 -3.5
t20.5 -3.5t16.5 4.5t16.5 4.5h21q15 -29 15 -37q0 -3 -6.5 -12.5t-7.5 -14.5v-37q0 4 4 -19q-2 -6 -4 -18q5 -79 9 -122q4 -4 10 -12q1 -7 1 -34q0 -3 -1 -15.5t-1 -18.5t-6 -18t-6 -15q0 2 10 -42q3 -10 0 -29q-5 -25 -5 -33q0 -4 4 -11.5t4 -9.5q0 -36 3 -107
q4 -27 10 -82zM354 375q0 95 -43 161l33 74h-52l-16 -35q-29 22 -62 22q-59 0 -99.5 -65.5t-40.5 -156.5q0 -93 42 -159l-32 -70h52l14 31q30 -24 64 -24q59 0 99.5 65.5t40.5 156.5zM244 502l-90 -196q-9 33 -9 71q0 62 20.5 103.5t45.5 41.5q17 0 33 -20zM277 377
q0 -62 -20 -104t-46 -42q-14 0 -31 20l97 203q3 -12 2 -37q-2 -42 -2 -40z" />
    <glyph glyph-name="plusminus" unicode="&#xb1;" horiz-adv-x="460" 
d="M492 705q0 -2 -17 -74t-15 -103q1 -3 -13.5 -15.5t-15.5 -15.5q-2 -5 5 -28q7 -26 7 -27q0 1 -9 -20.5t-8 -37.5q6 -11 18 -31q0 -11 2 -32q5 -7 14 -21q0 -7 3 -20q1 -3 1 -7q0 -8 -10.5 -27t-7.5 -27q4 -19 8 -37q5 -23 16 -33q-4 -7 -5 -15q0 -12 -1 -15q-4 -3 -9 -12
q-3 -17 -3 -40v-9q0 -24 -7 -32q-9 -11 -39 -11l-16 5t-36 4q-27 -2 -61 3q-37 5 -34 5l-130 -20q-4 0 -27.5 19.5t-27.5 19.5q-23 0 -47 17q-4 3 -4 19q0 47 14 81q1 4 -23 37q21 15 21 29q0 7 -12.5 21t-14.5 22q-4 16 7.5 56.5t9.5 57.5q-7 6 -14 20t-14 43
q-11 90 -11 114q0 7 9 61q11 58 16 72q8 18 33 18q-9 0 72.5 10t141.5 10q35 0 61.5 -3.5t85.5 -1.5q56 1 86 -4q1 -2 1 -25zM398 216q0 68 -52 68q-17 0 -27 -8q3 -16 3 -40q0 -97 -44 -97q-64 0 -64 151v116q0 36 13 79q17 57 43 57q51 0 51 -97q0 -8 -2 -45l16 -6
q58 0 58 68q0 23 -6 68t-6 68q-27 -22 -35 -22t-45 17t-41 17q-163 0 -178 -232q-45 1 -45 -66q0 -39 -2 -33q6 24 24 24q20 0 35 -64q19 -85 37 -117q37 -63 110 -63q19 0 50 14.5t46 14.5q9 0 22 -6.5t18 -7.5q2 20 12 71q9 45 9 71zM254 713l-73 -86l49 -1l134 87h-110z
" />
    <glyph glyph-name="yen" unicode="&#xa5;" horiz-adv-x="474" 
d="M495 66q0 -3 -8 -10q-11 -10 -13 -13q-2 -6 -8 -19q-15 -20 -43 -20q-4 0 -17 1.5t-16 1.5q-4 0 -20 -9.5t-20 -9.5q-3 0 -13.5 1t-15.5 1q-3 0 -63.5 -11t-63.5 -11q-14 0 -92 15q-16 3 -36 22q-1 1 -6 22q-3 7 -7 20q2 12 1 36q-4 16 -6 47q-2 4 -7 11q1 5 1 16
q-5 14 -4 36q2 28 1 36q-12 82 -3 120q1 5 -4.5 19t-5.5 19q-1 5 4 56q4 43 -28 82q-15 18 -19 36q1 20 1 58q-1 7 -7.5 12t-6.5 8q0 21 11 63q-1 -3 -1 20q0 14 13 26q15 2 53 9q33 6 37 6q3 0 33.5 -9.5t34.5 -9.5h21q20 -1 32 -1t39 -6q5 -1 21.5 -8t20.5 -7
q3 0 9.5 21.5t10.5 21.5q3 0 16.5 -2t17.5 -2q3 0 31 3t32 3q0 -1 -1 -1.5t-1 -1.5q1 0 5 1q3 -1 -11.5 -17t-13.5 -18q4 -6 26 -14q14 -4 27 -9q15 -44 19 -57q6 -24 8 -53l26 -370q3 -4 9 -11v-150zM386 561q0 44 -21 44q-10 0 -27.5 -5t-26.5 -5q-17 0 -67 10
q6 -11 6 -24q0 -9 -5 -25.5t-5 -25.5q0 -24 17 -24q2 0 36 1q5 -4 5 -14q0 -62 -50 -130q-19 -27 -18 -27q-21 0 -54 177q-2 24 -5 48q-4 31 -17 40q-5 4 -14 4q-8 0 -23.5 -3.5t-23.5 -3.5q6 0 -20 5q-1 -8 -1 -15q0 -40 16 -95q15 -46 30 -91q1 -4 43 -103h-50
q-15 0 -15 -17q0 -16 15 -16h62q8 -25 8 -42v0h-70q-15 0 -15 -17t15 -17h68q-1 -3 -10 -54q-5 -32 -5 -54q0 -34 45 -34q11 0 33.5 4t33.5 4q7 0 21.5 -1.5t22.5 -1.5q-2 7 -2 14q0 9 5.5 26.5t5.5 26.5q0 34 -47 34q-2 0 -7.5 -1.5t-8.5 -1.5q-8 0 -15 10.5t-7 19.5v9h88
q15 0 15 17t-15 17h-85q3 13 17 42h68q15 0 15 16q0 17 -15 17h-49q60 106 69 125q34 74 34 137z" />
    <glyph glyph-name="mu" unicode="&#xb5;" horiz-adv-x="451" 
d="M459 529l-5 -249l-12 -100l-15 -110q0 -21 -1 -23q-2 -14 -11 -18q-30 -12 -41 -12q1 0 -16.5 2t-26.5 1q-2 0 -14.5 -3t-17.5 -3q-2 0 -27.5 5t-35.5 5q-27 2 -83 5q-29 0 -57 -1q-38 2 -61 19q-6 11 -17 29q-5 6 -5 20q-1 15 9 65t10 73q0 17 -4 28q-5 4 -12 12
q-7 14 -7 36q0 5 1 14v13q0 29 -15 40v83q0 4 5 12q7 12 8 15q4 10 4 33q0 11 -5 17q-8 11 -11.5 21t-3.5 39q0 3 12.5 25.5t14.5 33.5q3 19 14 53q4 7 22 13q14 5 23 5q4 0 31 -3t31 -3q3 0 33.5 8.5t33.5 8.5t17 -3t18 -3q11 0 34.5 14.5t35.5 14.5q2 0 25 -2t35 -2
q3 0 12.5 -4.5t13.5 -5.5q-12 2 -12 -3q0 -1 3 -1q19 -10 39 -31q28 -30 31 -59v-124zM318 328q-8 14 -8 21q0 11 11 11h3h3q5 0 12 4q4 42 4 58q0 8 -5 17t-12 9q-24 0 -48 -34q-14 -20 -14 -63q0 -17 8.5 -50t8.5 -51q0 -70 -52 -70q-49 0 -49 85q0 50 4 134l51 65l-2 65
l-46 -62q4 61 8 117q1 21 -17 24h-62q-22 -3 -19 -28q7 -58 7 -141q0 -9 1.5 -29t1.5 -30q0 -8 -1 -22l-32 -43v-56l30 38v-26q0 -28 -18 -145q17 0 45 4.5t42 4.5q19 0 56 -6t55 -6q39 0 56 19q14 14 26 53q1 5 1 9q0 31 -16 65q-16 29 -33 59z" />
    <glyph glyph-name="mu" unicode="&#x3bc;" horiz-adv-x="451" 
d="M459 529l-5 -249l-12 -100l-15 -110q0 -21 -1 -23q-2 -14 -11 -18q-30 -12 -41 -12q1 0 -16.5 2t-26.5 1q-2 0 -14.5 -3t-17.5 -3q-2 0 -27.5 5t-35.5 5q-27 2 -83 5q-29 0 -57 -1q-38 2 -61 19q-6 11 -17 29q-5 6 -5 20q-1 15 9 65t10 73q0 17 -4 28q-5 4 -12 12
q-7 14 -7 36q0 5 1 14v13q0 29 -15 40v83q0 4 5 12q7 12 8 15q4 10 4 33q0 11 -5 17q-8 11 -11.5 21t-3.5 39q0 3 12.5 25.5t14.5 33.5q3 19 14 53q4 7 22 13q14 5 23 5q4 0 31 -3t31 -3q3 0 33.5 8.5t33.5 8.5t17 -3t18 -3q11 0 34.5 14.5t35.5 14.5q2 0 25 -2t35 -2
q3 0 12.5 -4.5t13.5 -5.5q-12 2 -12 -3q0 -1 3 -1q19 -10 39 -31q28 -30 31 -59v-124zM318 328q-8 14 -8 21q0 11 11 11h3h3q5 0 12 4q4 42 4 58q0 8 -5 17t-12 9q-24 0 -48 -34q-14 -20 -14 -63q0 -17 8.5 -50t8.5 -51q0 -70 -52 -70q-49 0 -49 85q0 50 4 134l51 65l-2 65
l-46 -62q4 61 8 117q1 21 -17 24h-62q-22 -3 -19 -28q7 -58 7 -141q0 -9 1.5 -29t1.5 -30q0 -8 -1 -22l-32 -43v-56l30 38v-26q0 -28 -18 -145q17 0 45 4.5t42 4.5q19 0 56 -6t55 -6q39 0 56 19q14 14 26 53q1 5 1 9q0 31 -16 65q-16 29 -33 59z" />
    <glyph glyph-name="ordfeminine" unicode="&#xaa;" horiz-adv-x="456" 
d="M459 529l-5 -249l-12 -100l-15 -110q0 -21 -1 -23q-2 -14 -11 -18q-30 -12 -41 -12q1 0 -16.5 2t-26.5 1q-2 0 -14.5 -3t-17.5 -3q-2 0 -27.5 5t-35.5 5q-27 2 -83 5q-29 0 -57 -1q-38 2 -61 19q-6 11 -17 29q-5 6 -5 20q-1 15 9 65t10 73q0 17 -4 28q-5 4 -12 12
q-7 14 -7 36q0 5 1 14v13q0 29 -15 40v83q0 4 5 12q7 12 8 15q4 10 4 33q0 11 -5 17q-8 11 -11.5 21t-3.5 39q0 3 12.5 25.5t14.5 33.5q3 19 14 53q4 7 22 13q14 5 23 5q4 0 31 -3t31 -3q3 0 33.5 8.5t33.5 8.5t17 -3t18 -3q11 0 34.5 14.5t35.5 14.5q2 0 25 -2t35 -2
q3 0 12.5 -4.5t13.5 -5.5q-12 2 -12 -3q0 -1 3 -1q19 -10 39 -31q28 -30 31 -59v-124zM324 710q10 10 2 13q-8 2 -13 -4q-10 -7 -31 -11.5t-30 -9.5l-73 22q-16 5 -16 -4q0 -4 5 -7q16 -14 33 -28q34 -27 45 -29q24 1 78 58zM230 625q-63 0 -129 -22q-1 -16 -6.5 -39.5
t-7.5 -53.5q72 54 147 54q17 0 20 -1l-196 -424l5 -11h308q8 82 21 124l-3 11q-30 5 -52 -20q-17 -24 -33 -48q-10 -12 -18 -12q-20 -1 -76 0h-20l2 4q27 62 96 212q81 169 118 194q-78 32 -176 32z" />
    <glyph glyph-name="ordmasculine" unicode="&#xba;" horiz-adv-x="487" 
d="M459 529l-5 -249l-12 -100l-15 -110q0 -21 -1 -23q-2 -14 -11 -18q-30 -12 -41 -12q1 0 -16.5 2t-26.5 1q-2 0 -14.5 -3t-17.5 -3q-2 0 -27.5 5t-35.5 5q-27 2 -83 5q-29 0 -57 -1q-38 2 -61 19q-6 11 -17 29q-5 6 -5 20q-1 15 9 65t10 73q0 17 -4 28q-5 4 -12 12
q-7 14 -7 36q0 5 1 14v13q0 29 -15 40v83q0 4 5 12q7 12 8 15q4 10 4 33q0 11 -5 17q-8 11 -11.5 21t-3.5 39q0 3 12.5 25.5t14.5 33.5q3 19 14 53q4 7 22 13q14 5 23 5q4 0 31 -3t31 -3q3 0 33.5 8.5t33.5 8.5t17 -3t18 -3q11 0 34.5 14.5t35.5 14.5q2 0 25 -2t35 -2
q3 0 12.5 -4.5t13.5 -5.5q-12 2 -12 -3q0 -1 3 -1q19 -10 39 -31q28 -30 31 -59v-124zM335 698h-59l-29 -37l-28 37h-60l52 -69h71zM403 601h-319v-125l128 5l-141 -352l328 -1v126l-136 -8q48 118 140 355z" />
    <glyph glyph-name="ae" unicode="&#xe6;" horiz-adv-x="582" 
d="M587 527l-5 -246l-12 -98l-14 -110q-1 -20 -1 -22q-2 -14 -12 -18q-2 -1 -4.5 -6.5t-5.5 -5.5q-1 0 -2.5 2t-10.5 1q-4 -1 -118.5 -4t-121.5 -3q-3 0 -28.5 5t-34.5 5q-27 2 -83 5q-28 -1 -56 -1q-38 2 -60 18q-6 11 -17 29q-5 6 -5 20q-1 36 -2 73q-1 49 -11 75
q9 12 16 28q-6 14 -6 36v13.5v13.5q0 28 -15 39v83q0 3 6 13t7 13q4 10 4 32q0 11 -5 18q-8 11 -11 20q-1 2 -2 3q-2 0 -2 -14q0 2 12.5 24.5t14.5 34.5q3 18 14 51q4 8 20 13t24 5q4 0 31 -2.5t31 -2.5q3 0 33 8.5t33 8.5t17 -3t17 -3q12 0 14.5 10t13.5 10q2 0 25 -2
t34 -2q27 0 39 -1q-13 1 -13 -3q1 -1 4 -2l128 -30q117 -30 120 -58v-73zM252 322q-42 -11 -67 0l61 161q3 -54 6 -161zM328 321q24 -2 31 -21q2 -6 5 -41h44q-12 78 -1 178h-39q-2 -12 -6 -31q-6 -24 -27 -28h-11q-2 9 1 47.5t8 52.5q9 29 39 29q35 0 48 -22.5t13 -71.5h54
q-10 59 -7 109q3 22 6 55q-69 -8 -140 -8q-82 0 -129 12q-18 -86 -64 -198q-27 -64 -77 -189q-7 -17 -12.5 -21t-26.5 -8q2 -13 4 -37q1 -18 -6 -41q53 12 82 12q25 0 68 -9q-9 29 -8 39q0 2 6 32q-42 0 -38 25q2 12 29 81q34 -7 71 -1q2 -22 2 -34v-43q-7 -30 -47 -29
q8 -17 8 -30q0 -15 -12 -40q44 8 169 8q71 0 128 -5q-2 17 -6 68q-4 67 3 120q-22 0 -55 -3q-1 -16 -3 -45q-7 -69 -54 -69q-38 0 -42 35q-2 15 -6 81q-3 39 -2 41z" />
    <glyph glyph-name="oslash" unicode="&#xf8;" horiz-adv-x="429" 
d="M446 112q0 -10 -5 -25t-5 -21q0 -8 6 -13q1 -3 1 -11q-5 -3 -37 -12t-42 -9q-3 0 -10.5 2.5t-10.5 2.5q-20 1 -55 0q-47 -1 -58 -1q-2 0 -10.5 3.5t-12.5 3.5q-29 1 -84 3q-6 0 -22.5 3.5t-20.5 3.5t-16.5 -4.5t-15.5 -4.5h-22q-15 30 -15 37q0 3 6.5 12.5t7.5 15t1 36.5
q0 -4 -5 19q2 6 4 18q-5 79 -9 122q-4 4 -10 12q-1 7 -1 34q0 3 1 15.5t1 18.5t6.5 18t6.5 15q0 -2 -11 42q-2 10 1 29q4 25 4 33q0 4 -4 11.5t-4 9.5q0 36 -3 107q-3 27 -10 82q19 12 46 12q4 0 8.5 -4.5t7.5 -4.5t7.5 1.5t8.5 1.5t14 -6.5t15.5 -7.5t79.5 -23q25 -8 80 -7
q60 0 114 -13q14 -4 24 -24q4 -8 4 -33q0 -4 -7.5 -26.5t-7.5 -26.5q0 -3 6 -21t6 -22q0 -3 -6 -13t-6 -14q0 -6 7 -32q1 -3 8.5 -14t7.5 -16q0 -4 -5.5 -20t-5.5 -20q0 -3 5 -13.5t6 -14.5q0 -4 -3.5 -14.5t-3.5 -14.5q0 -10 13 -32q10 -17 19 -34q-3 -16 1 -28t4 -11
q0 -4 -6 -25.5t-6 -25.5q0 -3 9 -31t9 -31zM319 531l36 81h-68l-14 -31q-28 18 -59 18q-64 0 -105.5 -68.5t-41.5 -160.5q0 -93 40 -160l-34 -77h68l12 27q29 -20 61 -20q64 0 107 70q41 67 41 160q0 94 -43 161zM157 328q-4 23 -4 49q0 60 20 101q18 36 38 36q9 0 24 -18z
M211 239q-9 0 -22 13l83 173v-8q-1 -4 -2 -20v-20q0 -61 -20 -102q-18 -36 -39 -36z" />
    <glyph glyph-name="questiondown" unicode="&#xbf;" horiz-adv-x="604" 
d="M470 513l-6 -246l-11 -99l-15 -109q0 -21 -1 -23q-2 -14 -11 -18q-2 -1 -5 -6.5t-6 -5.5q-1 0 -2.5 2t-9.5 1q-4 0 -57 4t-55.5 4t-28 5t-34.5 5q-27 2 -83 5q-28 -1 -56 -1q-38 2 -60 18q-6 11 -17 29q-5 6 -5 20q-1 36 -2 73q-1 49 -11 75q9 12 16 28q-6 14 -6 36v13.5
v13.5q0 28 -15 39v83q0 3 6 13t7 13q4 10 4 32q0 11 -5 18q-8 11 -11.5 20.5t-3.5 38.5q0 2 12.5 24.5t14.5 34.5q3 18 14 51q4 8 20 13t24 5q4 0 31 -2.5t31 -2.5q3 0 33 8.5t33 8.5t17 -3t17 -3q-7 -29 72 -48q54 -12 141 -18q45 -4 49 -4q1 -10 -12 -77t-13 -68zM307 425
v119h-139v-119h139zM402 186l-103 59q-11 -54 -38 -54q-29 0 -29 37q0 18 30 64t30 99h-110q-7 -50 -48.5 -92.5t-41.5 -90.5q0 -76 48 -113q41 -32 110 -32q119 0 152 123z" />
    <glyph glyph-name="exclamdown" unicode="&#xa1;" horiz-adv-x="302" 
d="M304 199q0 -2 -6 -24.5t-8 -34.5q-1 -18 -6 -51q-5 -18 -22 -18q-2 0 -15.5 3t-15.5 3t-17 -8.5t-16 -8.5q-2 0 -9 2.5t-9 2.5q-5 0 -17 -14t-17 -14q-1 0 -12.5 2t-17.5 2q-2 0 1 4.5t1 4.5q6 -1 6 3q0 1 -2 2l-64 30q-58 30 -60 58v123l3 246l13 208q-1 17 6 40
q1 1 2 6.5t3 5.5q1 0 2 -2q0 -2 5 0q2 0 59 3t61 3q1 0 14 -5t17 -5q14 -2 41 -5q15 1 29 1q19 -1 30 -18q3 -11 8 -29q3 -6 3 -20q-1 -53 6 -148q-4 -12 -8 -28q4 -15 3 -38q0 -31 1 -38q1 -17 7 -26v-83q0 7 -7 -26q-2 -10 -2 -32q0 -11 3 -18q3 -10 5 -20t2 -39zM202 507
v118h-139v-118h139zM202 152v195l-32 118h-77l-30 -118v-195h139z" />
    <glyph glyph-name="logicalnot" unicode="&#xac;" horiz-adv-x="478" 
d="M452 788l24 -595l-4 -59q-5 -63 -6 -90q-3 -4 -50 -8q-38 -3 -51 -3q-4 0 -23.5 1.5t-22.5 1.5l-201 12q2 14 2 40q-6 26 -17 44v11q-1 0 121 0q37 0 69 15q46 22 53 67.5t7 64.5l-6 185q-12 156 -106 156h-172v-289q-21 14 -25 28q-1 6 2.5 18t2.5 18q-5 17 -15 53
q-4 3 -10 9q-11 16 -30 54q-19 45 -19 79q0 22 16 79q4 8 10 21q-1 18 2 53q168 26 149 26q3 0 43 -3t43 -3q4 0 13 1.5t13 1.5q-1 0 18 1.5t32 1.5q19 -1 29 -4.5t15 -10.5q2 -3 19 -3q46 0 49 3q3 8 12 23h14zM246 269q0 -10 -8 -27q-9 -22 -21 -21h-35l-7 326q6 7 22 7
q29 0 33 -13q9 -31 13 -158zM361 623q33 -242 36 -242h20q3 0 17 242h-73z" />
    <glyph glyph-name="florin" unicode="&#x192;" horiz-adv-x="372" 
d="M273 196q33 1 33 28q0 -9 -6 52h-23h-32q-4 0 -26 -2q-20 -1 -29 0q-14 1 -17 8q-8 78 -7 120q3 2 96 3l-2 78q-91 -2 -93 1l-4 95l114 3l-6 70l-172 -3q-16 111 -16 125v33h244q41 0 41 -17q0 -1 -11.5 -15.5t-11.5 -29.5q0 -29 26 -45v-628q0 -12 -17 -30
q-8 -8 -16 -17q-3 -18 -11 -18q-3 0 -6.5 3.5t-7.5 3.5q-7 2 -32 2q-3 0 -39.5 -9t-40.5 -9q-34 0 -109 15q-5 3 -17 7q-8 1 -5 1q2 0 5 -1h6q-31 7 -33 20q-1 9 -5 9q-1 0 -5 -2q-2 -2 -2 1t1 9q6 30 5 34q-7 15 -18 49q-6 30 -6 67q0 11 6 33q4 2 9 8q2 5 4 2q0 6 1 12
q-10 10 -18 29q5 38 19 110q5 9 15 32q2 11 0 32q-2 25 -1 34q1 16 21 39q2 -5 5 -13q-5 -56 -5 -77q0 -50 12 -238q1 -10 7 -16q34 0 120 4q-23 -39 -23 -73q0 -44 23.5 -67.5t62.5 -23.5q22 0 46 22.5t24 44.5q0 16 -18 16q-11 0 -15 -11q-15 -38 -37 -38q-49 0 -49 60
q0 55 44 67h-15q-7 0 17 1z" />
    <glyph glyph-name="guillemotleft" unicode="&#xab;" horiz-adv-x="482" 
d="M387 548l-181 -196l183 -219q23 18 26 18t-96 199l94 181zM197 548l-181 -196l183 -219q23 18 26 18t-96 199l94 181zM487 527l-5 -246l-12 -98l-14 -110q-1 -20 -1 -22q-2 -14 -12 -18q-2 -1 -4.5 -6.5t-5.5 -5.5q-1 0 -2.5 2t-10.5 1q-50 -7 -120 -7q-3 0 -28.5 5
t-34.5 5q-27 2 -83 5q-28 -1 -56 -1q-38 2 -60 18q-6 11 -17 29q-5 6 -5 20q-1 36 -2 73q-1 49 -11 75q9 12 16 28q-6 14 -6 36v13.5v13.5q0 28 -15 39v83q0 3 6 13t7 13q4 10 4 32q0 11 -5 18q-8 11 -11.5 20.5t-3.5 38.5q0 2 12.5 24.5t14.5 34.5q3 18 14 51q4 8 20 13
t24 5q4 0 31 -2.5t31 -2.5q3 0 33 8.5t33 8.5t17 -3t17 -3q12 0 35.5 14t34.5 14q2 0 25 -2t34 -2q3 0 0 -3q-5 -4 -5 -5t2 -1q-13 1 -13 -3q1 -1 4 -2l68 -30q57 -30 60 -58v-123z" />
    <glyph glyph-name="guillemotright" unicode="&#xbb;" horiz-adv-x="482" 
d="M75 165l181 196l-183 219q-23 -17 -26 -17t96 -199l-94 -182zM265 165l181 196l-183 219q-23 -17 -26 -17t96 -199l-94 -182zM-5 246l5 246l12 99l15 109v22q3 14 12 18q2 1 5 6.5t6 5.5q1 0 2 -2q2 -2 10 0q50 6 121 6q2 0 27.5 -5t34.5 -5q27 -2 83 -5q28 1 56 1
q38 -1 61 -18q5 -11 16 -29q5 -6 6 -20l2 -72q3 -49 13 -75q-10 -12 -18 -29q6 -14 6 -36q0 -4 -1 -13v-13q0 -29 15 -40v-83q0 -3 -5 -11q-6 -11 -8 -15q-4 -10 -4 -32q0 -11 5 -18q8 -10 11.5 -20t3.5 -39q0 -2 -12.5 -24.5t-14.5 -34.5q-2 -18 -14 -51q-4 -8 -20 -13
t-24 -5q-4 0 -31 3t-30 3q-4 0 -34 -8.5t-33 -8.5t-17 2.5t-17 2.5q-12 0 -35 -14t-35 -14q-1 0 -24.5 2t-34.5 2q-3 0 1.5 3.5t4.5 4.5q-1 1 -3 1q13 -1 13 3q0 1 -3 2q-35 15 -69 30q-57 30 -60 58v123z" />
    <glyph glyph-name="ellipsis" unicode="&#x2026;" horiz-adv-x="878" 
d="M894 -59q-38 -15 -94 -15q-7 0 -36.5 5.5t-36.5 5.5q-6 0 -15 -2t-18 -2q-7 0 -28 8t-30 9q-19 2 -41 2q-21 0 -57 -2.5t-50 -2.5q-17 0 -28 2q-99 18 -154 18q-44 -1 -113 13q-106 21 -116 22q-29 4 -49 29q-8 9 -8 40q0 4 15.5 28t15.5 29q0 4 -12.5 28t-12.5 29
q0 4 12.5 13t12.5 14q0 13 -15 44q-2 4 -18 17.5t-16 18.5t12 24.5t12 23.5t9.5 16t8 17t6.5 18t8 18q0 11 -27 38q-20 21 -40 41q3 9 3 16q0 10 -6.5 19.5t-6.5 11.5q0 4 12.5 30t12.5 31q0 4 -18.5 37.5t-18.5 37.5q0 12 10.5 30t10.5 24q0 9 -13 16q-1 4 -1 13
q13 5 55 15q47 10 65 10q7 0 22 -3t21 -3q42 -1 113 0q96 2 117 2q5 0 22 -4t27 -5q58 -1 170 -3q12 -1 47 -5q32 -4 41 -4q7 0 53 5.5t54 5.5h43q32 -35 32 -44q0 -4 -14 -15.5t-15 -18t-1 -43.5q0 -5 4 -12q5 -10 5 -11q-4 -7 -8 -22q10 -95 18 -146q8 -5 21 -14
q2 -9 2 -42q0 -3 -2.5 -18t-2.5 -22t-12.5 -21.5t-12.5 -18.5q0 -7 12 -29t12 -34q0 -9 -6 -30t-6 -32q0 -4 7.5 -13t8.5 -12q5 -22 4 -64q-1 -45 2 -64q7 -33 20 -98zM808 46v138h-139v-138h139zM544 46v138h-139v-138h139zM280 46v138h-139v-138h139z" />
    <glyph glyph-name="nonbreakingspace" unicode="&#xa0;" horiz-adv-x="1004" 
 />
    <glyph glyph-name="Agrave" unicode="&#xc0;" horiz-adv-x="302" 
d="M327 724q0 -8 -13 -35q-1 -1 4 -23q-4 -4 -9 -11q0 -21 -5 -56q-7 -10 -15 -28q-21 -73 -21 -93q0 9 9 -42q0 -17 3 -50q8 -44 -10 -72q9 -8 23 -30q-1 -16 0 -48q0 -11 -11 -82t-8 -84l-249 -37q-36 5 -36 14q0 3 6.5 10t6.5 11q0 -4 1 67q2 64 1 77q-5 61 -4 70
q1 2 7.5 13t6.5 17q0 2 -3 6t-3 8q-2 11 6 71q2 15 6 48q-2 15 -1 45q4 8 9 25q2 10 -16 31t-19 32q0 4 12 26t13 26q2 13 13 28.5t13 28.5v23q19 14 54 33q6 2 79 7q2 0 9.5 4t11.5 4q25 0 50 -12q5 -6 10 -11q8 -8 17 -8q3 0 17.5 7t17.5 7q17 0 17 -17zM179 296
q0 -9 -5 -9q-4 0 -14.5 9t-12.5 13q-3 11 -3 28q0 12 4 33q5 27 12 27t8 -13.5t3 -37.5q0 -4 4 -23.5t4 -26.5zM139 675q-12 10 -24 7q-13 -2 -17 -13t-3 -20q2 -16 23 -25l89 -40l15 20zM247 117l-7 21q-10 30 -10 37q0 67 -9 148q-2 20 -15 88q-10 55 -10 89q0 3 7 42
q1 8 1 18l-11 11q-4 -1 -50 -9q-35 -5 -50 -17q5 -13 6 -25v-22q0 -29 -9 -71q-8 -35 -16 -71q-6 -31 -9 -84q-5 -65 -7 -85q-1 -6 -20 -56q-5 -10 -6 -21l9 -12q30 9 70 1l12 10q0 10 -3 20t-3 15q0 8 3 25.5t3 25.5q0 19 1 22q1 7 7 7q9 0 23 -26.5t14 -42.5
q0 -36 -10 -73l11 -11q32 15 57 18q4 0 12 1q13 4 13 14q-1 5 -4 13z" />
    <glyph glyph-name="Atilde" unicode="&#xc3;" horiz-adv-x="394" 
d="M425 707q0 -9 -18 -36q-1 -1 5 -22q-5 -4 -11 -11q0 -22 -7 -57q-8 -9 -20 -28q-26 -72 -26 -92q0 8 12 -42q-1 -17 3 -51q5 -19 5 -29q0 -22 -18 -42q12 -9 30 -30q-1 -16 0 -49q0 -11 -14 -81.5t-11 -83.5l-323 -38q-47 6 -47 15q0 3 8.5 10t8.5 10q0 -4 1 68
q2 64 1 77q-7 61 -5 69q1 3 9.5 14t8.5 17q0 1 -3.5 5.5t-4.5 8.5q-3 11 9 71q1 15 7 47q-2 16 -2 45q5 9 13 26q2 10 -20 30q-25 22 -26 33q0 4 15.5 26t16.5 26q3 12 17 27.5t17 28.5q0 8 1 23q23 14 69 34q8 2 103 7q3 0 12.5 4t14.5 4q33 0 65 -13q7 -5 13 -10
q11 -8 23 -8q4 0 22.5 7t23.5 7q22 0 22 -17zM288 664q0 22 -12 24q-6 2 -9 -1l-1 -1q-1 -1 -2 -1q-15 -30 -28 -30q-9 0 -37.5 20t-43.5 20q-30 0 -53 -55q0 -24 16 -24q3 0 8 1q15 31 29 31q9 0 37.5 -20t42.5 -20q31 0 53 56zM324 135q0 52 -10 160q-8 86 1 157
q4 26 4 108q0 25 -26 25q-13 0 -40 -3.5t-41 -3.5q-15 0 -43.5 3.5t-42.5 3.5q-31 0 -26 0q-18 -2 -18 -13q0 -3 7.5 -15t7.5 -24q0 -19 -10 -60.5t-10 -66.5q0 -29 4 -119q1 -26 -8.5 -76.5t-9.5 -75.5l2 -13q10 8 20 8q6 0 16.5 -4t16.5 -4q32 0 32 40q0 25 -5 74.5
t-5 74.5q0 40 40 40q43 0 49 -2q22 -7 22 -43q0 -26 -6.5 -77.5t-6.5 -77.5q0 -29 29 -29q7 0 20 3t18 3q9 0 15 -6zM251 440q0 -32 -19 -32q-8 0 -22 2t-22 2q-5 0 -15.5 -2t-15.5 -2q-23 0 -23 32q0 72 58 72q59 0 59 -72z" />
    <glyph glyph-name="Otilde" unicode="&#xd5;" horiz-adv-x="369" 
d="M415 726q0 -8 -18 -35q0 -1 5 -22q-4 -5 -10 -12q-1 -21 -8 -56q-8 -10 -19 -28q-27 -73 -27 -93q0 9 12 -41q0 -18 4 -51q4 -20 4 -30q0 -22 -17 -42q13 -8 32 -30q2 -5 0 -21q-4 -20 -3 -27q1 -11 -13.5 -81.5t-11.5 -84.5l-323 -37q-47 5 -47 14q0 4 8.5 11t8.5 10
q0 -4 2 68q1 63 0 76q-7 61 -4 70q0 2 9 13t9 18q0 1 -4 5t-5 8q-3 11 9 71q2 16 7 48q-2 15 -1 45q5 8 12 25q3 10 -20.5 31t-25.5 32q0 4 15.5 26t16.5 26q3 13 17.5 28.5t17.5 28.5q-1 7 0 23q24 14 69 33q9 2 103 7q3 1 13 4.5t15 3.5q33 0 65 -12l12 -10q11 -9 23 -9
q4 0 22.5 7t23.5 7q22 0 22 -17zM276 662q1 22 -12 25q-6 1 -9 -2l-1 -1l-2 -1q-14 -30 -28 -30q-9 0 -37.5 20t-42.5 20q-31 0 -53 -55q-1 -24 15 -24q4 0 8 2q15 31 29 31q9 0 37.5 -20t42.5 -20q31 0 53 55zM316 363q0 106 -58 195q-16 25 -30 25q-8 0 -23.5 -3t-23.5 -3
q-9 0 -26 4t-26 4q-14 0 -13 -15q1 -4 9.5 -15t8.5 -13q0 -3 -17 -35q-19 -37 -19 -39q-27 -60 -27 -133q0 -62 15 -107q14 -41 42 -75q33 -40 65 -40q38 0 78 69q34 61 39.5 113.5t5.5 67.5zM251 323q0 -29 -9 -65q-11 -47 -30 -47q-6 0 -19.5 12t-17.5 20q-38 63 -38 137
q0 29 9 67q11 49 28 49q24 0 50.5 -54t26.5 -119z" />
    <glyph glyph-name="OE" unicode="&#x152;" horiz-adv-x="505" 
d="M520 726q0 -8 -25 -35q-2 -3 1 -9.5t6 -12.5q-6 -5 -15 -12q-1 -21 -10 -56q-3 -4 11 -14t12 -14q-37 -73 -37 -93q0 -3 7 -17q8 -18 10 -24q-1 -18 5 -51q6 -20 6 -30q0 -22 -24 -42q16 -8 40 -30q4 -5 2 -21q-2 -21 -2 -27q2 -11 -18 -81.5t-16 -84.5l-427 -37
q-65 5 -65 14q0 4 11.5 11t11.5 10q0 -4 2 68q3 63 1 76q-9 59 -9 53q0 9 3 17q5 16 5 31q0 1 -5.5 5t-6.5 8t-1 10q0 10 13 61q2 16 10 48q-3 15 -2 45q7 8 17 25q4 11 -17 44q-24 36 -25 45q-1 4 10.5 13t12.5 13q4 13 24 28.5t24 28.5q-1 7 0 23q33 14 96 33q12 2 143 7
q4 1 17.5 4.5t20.5 3.5q45 0 89 -12l18 -10q15 -9 32 -9q5 0 6 7t7 7q31 0 31 -17zM447 211q0 24 -30 24q-19 0 -55.5 -6.5t-54.5 -6.5t-18 20q0 32 8 68q10 44 29 59q22 9 45 19q35 15 35 34q0 15 -31 23q-51 13 -58 17q-32 15 -33 47q-1 21 29 21q15 0 47 -5t49 -5
q32 0 32 26q0 6 -1.5 17.5t-1.5 17.5q0 3 3 9t2 10q-9 8 -56 4q-85 -7 -134 2q-4 1 -11 -6q-9 -10 -10 -10q-17 16 -22 16q-8 0 -21 -2t-20 -2q-9 0 -26 3.5t-26 3.5q-12 0 -12 -11q0 -4 8 -17t8 -15q0 -3 -16 -35q-19 -37 -20 -38q-27 -61 -27 -134q0 -62 16 -107
q13 -41 42 -75q33 -40 65 -40q19 0 41 20q6 -16 25 -16q18 0 57 5t57 5q12 0 33 -3t33 -3h18q-7 20 -7 26q0 7 4.5 20t4.5 20zM239 340q0 -30 -9 -65q-12 -47 -30 -47q-6 0 -19.5 12t-18.5 20q-37 63 -37 137q0 29 8 67q12 49 29 49q11 0 27 -15.5t23 -30.5q27 -55 27 -127z
" />
    <glyph glyph-name="oe" unicode="&#x153;" horiz-adv-x="597" 
d="M610 218q1 -5 -7 -71.5t-9.5 -72.5t-6.5 -6q-6 0 -26.5 16.5t-27.5 16.5q-4 0 -6 -5q-4 0 -9 -9q-33 -14 -96 -33q-12 -2 -143 -8q-4 0 -17.5 -4t-20.5 -4q-45 0 -89 13l-28 10q-25 8 -42 8q-5 0 -31 -7t-32 -7q-31 0 -31 17q0 9 25 36q2 3 -1 9.5t-6 12.5q6 4 15 11
q1 22 10 57q3 8 12 25q4 9 4 23q0 18 -8 45t-8 28.5t-6 15.5q-8 18 -10 25q0 17 -5 50q-7 19 -7 30q0 22 25 42q-4 9 -17 31q-4 5 -2 21q2 20 1.5 28.5t4.5 63.5q6 60 6 81q0 14 -2 20l533 37q65 -6 65 -15q0 -3 -11.5 -10t-11.5 -10q0 4 -2 -68q-3 -64 -1 -77q9 -58 9 -52
q0 -10 -3 -17q0 -3 -12.5 -14t-12.5 -17q0 -1 5.5 -5.5t6.5 -8.5t1 -10q0 -10 -13 -61q-1 -5 11 -14t10 -18q-3 -19 -9 -52q-2 -16 -8 -40q-4 -11 13 -27q20 -19 21 -30zM277 156l-1 -3l15 -10q26 9 63 9q20 0 58.5 -5t58.5 -5q34 0 59 14q34 19 34 58q0 26 -17.5 43
t-40.5 17q-19 0 -32 -15q-4 -64 -39 -64q-44 0 -58 36q-10 25 -10 90q0 76 35 76q13 0 38 -26q18 24 40 60q0 14 -21 27q-17 12 -28 12q-19 0 -35 -11q-2 -2 -27 -24v48q0 53 10 74q12 27 48 27q27 0 34 -10t8 -41q2 0 17 -6q11 -4 14 -4q20 0 36 15t16 38q0 36 -32 51
q-24 11 -54 8l-123 -12q-5 0 -28 6q-24 6 -29 -2t-1 -31q-36 39 -88 39q-26 0 -47 -17q-24 -20 -24 -50q0 -11 6 -22q8 -15 20 -15q4 0 9 3q26 12 35 12q76 0 98 -124q2 -10 4 -30q1 -17 -1 -44q-4 -35 -5 -43q-15 -64 -66 -64q-47 0 -74 53q-23 46 -23 109q0 87 36 87
q10 0 10 -11l-2 -21q11 -7 23 -7t21 11t9 24q0 23 -18 38.5t-38 15.5q-52 0 -83 -71q-25 -57 -25 -118q0 -81 38 -144q43 -70 112 -70q37 0 65 19z" />
    <glyph glyph-name="endash" unicode="&#x2013;" horiz-adv-x="556" 
d="M586 30q0 -21 -11 -63q1 3 1 -20q0 -14 -13 -27q-15 -2 -53 -8q-33 -7 -36 -7q-4 0 -34.5 10t-34.5 10h-21q-20 1 -32 1t-38 5q-6 2 -22.5 9t-20.5 7q-3 0 -9.5 -1.5t-10.5 -1.5q-3 0 -25 4t-26 4t-23 -5.5t-23 -5.5t-34.5 5.5t-33.5 5.5q3 0 -25 -8q-2 1 -11 15
q-2 3 -25 14q-11 34 -19 138l-26 371q-3 4 -8 11v150q0 3 7 10q11 10 13 12q2 7 8 20q16 20 43 20q4 0 17 -1.5t17 -1.5q3 0 64 9.5t65 9.5q3 0 13.5 -1t15.5 -1q4 0 64 11t64 11q13 0 91 -15q16 -3 37 -22q1 -1 5 -23q3 -6 7 -19q-2 -13 -1 -36q4 -16 6 -47q3 -4 7 -11
q-1 -5 -1 -16q5 -14 4 -36q-2 -28 -1 -37q12 -81 3 -119q-1 -5 4.5 -19t6.5 -19q0 -5 -5 -56q-3 -43 29 -82q15 -18 18 -36q-1 -20 -1 -59q1 -6 7.5 -31t6.5 -28zM431 326h-360q-12 0 -27 -23.5t-15 -45.5q0 -31 34 -31h359q6 0 21 26q17 30 17 50q0 24 -29 24z" />
    <glyph glyph-name="emdash" unicode="&#x2014;" horiz-adv-x="885" 
d="M857 -40q-13 -5 -26.5 -19.5t-30.5 -14.5q-7 0 -36.5 5.5t-36.5 5.5q-6 0 -15 -2t-18 -2q-7 0 -28 8t-30 9q-19 2 -41 2q-21 0 -57 -2.5t-50 -2.5q-17 0 -28 2q-99 18 -154 18q-44 -1 -113 13q-106 21 -116 22q-29 4 -49 29q-8 9 -8 40q0 4 15.5 28t15.5 29q0 4 -12.5 28
t-12.5 29q0 4 12.5 13t12.5 14q0 13 -15 44q-2 4 -18 17.5t-16 18.5t12 24.5t12 23.5t9.5 16t8 17t6.5 18t8 18q0 11 -27 38q-20 21 -40 41q3 9 3 16q0 10 -6.5 19.5t-6.5 11.5q0 4 12.5 30t12.5 31q0 4 -18.5 37.5t-18.5 37.5q0 12 10.5 30t10.5 24q0 9 -13 16q-1 4 -1 13
q13 5 55 15q47 10 65 10q7 0 22 -3t21 -3q42 -1 113 0q96 2 117 2q5 0 22 -4t27 -5q58 -1 170 -3q12 -1 47 -5q32 -4 41 -4q7 0 53 5.5t54 5.5h43q32 -35 32 -44q0 -4 -14 -15.5t-15 -18t-1 -43.5q0 -5 4 -12q5 -10 5 -11q-4 -7 -8 -22q10 -95 18 -146q8 -5 21 -14
q2 -9 2 -42q0 -3 -2.5 -18t-2.5 -22t-12.5 -21.5t-12.5 -18.5q0 -7 12 -29t12 -34q0 -9 -6 -30t-6 -32q0 -4 7.5 -13t8.5 -12q5 -22 4 -64q-1 -45 2 -64q2 -12 -9.5 -36.5t-7.5 -42.5zM773 321h-640q-12 0 -27 -24t-15 -46q0 -31 34 -31h639q6 0 22 28t16 48q0 25 -29 25z
" />
    <glyph glyph-name="quotedblleft" unicode="&#x201c;" horiz-adv-x="304" 
d="M322 727q0 -9 -13 -36q-1 0 4 -22q-4 -4 -9 -11q0 -21 -5 -56q-7 -10 -15 -28q-21 -73 -21 -93q0 8 9 -42q0 -17 3 -50q8 -44 -10 -72q9 -8 23 -30q-1 -16 0 -48q0 -11 -11 -82t-8 -84l-249 -37q-36 5 -36 14q0 3 6.5 10t6.5 11q0 -6 1 67q2 64 1 77q-5 65 -4 70
q0 2 7 13t7 17q0 1 -3 5.5t-4 8.5q-2 11 7 71q1 15 6 48q-2 15 -1 45q4 8 9 25q2 10 -16 31t-19 32q0 4 12 26t13 26q1 12 12.5 28t13.5 28v23q19 14 54 34q6 2 79 7q2 0 9.5 4t11.5 4q25 0 50 -13l10 -10q8 -8 17 -8q3 0 17.5 7t17.5 7q17 0 17 -17zM272 619q0 4 -15 4
q-14 0 -43 -26t-35.5 -41.5t-6.5 -46.5q0 -17 16.5 -34.5t29.5 -17.5q50 0 50 54q0 14 -8 33.5t-8 24.5q0 20 20 50zM140 619q0 4 -15 4q-14 0 -43 -26t-35.5 -41.5t-6.5 -46.5q0 -17 16.5 -34.5t29.5 -17.5q50 0 50 54q0 14 -8 33.5t-8 24.5q0 20 20 50z" />
    <glyph glyph-name="quotedblright" unicode="&#x201d;" horiz-adv-x="314" 
d="M327 724q0 -8 -13 -35q-1 -1 4 -23q-4 -4 -9 -11q0 -21 -5 -56q-7 -10 -15 -28q-21 -73 -21 -93q0 9 9 -42q0 -17 3 -50q8 -44 -10 -72q9 -8 23 -30q-1 -16 0 -48q0 -11 -11 -82t-8 -84l-249 -37q-36 5 -36 14q0 3 6.5 10t6.5 11q0 -4 1 67q2 64 1 77q-5 61 -4 70
q1 2 7.5 13t6.5 17q0 2 -3 6t-3 8q-2 11 6 71q2 15 6 48q-2 15 -1 45q4 8 9 25q2 10 -16 31t-19 32q0 4 12 26t13 26q2 13 13 28.5t13 28.5v23q19 14 54 33q6 2 79 7q2 0 9.5 4t11.5 4q25 0 50 -12q5 -6 10 -11q8 -8 17 -8q3 0 17.5 7t17.5 7q17 0 17 -17zM266 626h-92
q0 -11 3 -32.5t3 -32.5q0 -10 -3.5 -31t-3.5 -31q26 10 32 10q3 0 5 -2q-14 -37 -35 -75l5 -10q54 58 81 74q-3 28 -3 59q0 12 4 35.5t4 35.5zM146 626h-92q0 -11 3 -32.5t3 -32.5q0 -10 -3.5 -31t-3.5 -31q26 10 32 10q3 0 5 -2q-14 -37 -35 -75l5 -10q54 58 81 74
q-3 28 -3 59q0 12 4 35.5t4 35.5z" />
    <glyph glyph-name="quoteleft" unicode="&#x2018;" horiz-adv-x="235" 
d="M247 724q0 -8 -13 -35q-1 -1 4 -23q-4 -4 -9 -11q0 -21 -5 -56q-7 -10 -15 -28q-21 -73 -21 -93q0 9 9 -42q0 -17 3 -50q8 -44 -10 -72q9 -8 23 -30q-1 -16 0 -48q0 -11 -11 -82t-8 -84l-169 -37q-36 5 -36 14q0 3 6.5 10t6.5 11q0 -4 1 67q2 64 1 77q-5 61 -4 70
q1 2 7.5 13t6.5 17q0 2 -3 6t-3 8q-2 11 6 71q2 15 6 48q-2 15 -1 45q4 8 9 25q2 10 -16 31t-19 32q0 4 12 26t13 26q2 13 13 28.5t13 28.5v23q8 3 12 20q4 14 13 15q48 1 85 -8.5t41 -9.5q3 0 17.5 7t17.5 7q17 0 17 -17zM166 574q0 26 -16.5 46.5t-41.5 20.5
q-27 0 -44.5 -22.5t-17.5 -50.5q0 -27 22 -67q26 -48 58 -48q14 0 14 15q0 4 -13 15.5t-14 22.5q23 5 38 24.5t15 43.5z" />
    <glyph glyph-name="quoteright" unicode="&#x2019;" horiz-adv-x="235" 
d="M252 724q0 -2 -20.5 -15.5t-23.5 -19.5q0 -1 4 -23q-4 -4 -8 -11q-1 -21 -6 -56q-1 -4 7.5 -14t7.5 -14q-20 -73 -20 -93q0 9 9 -42q0 -17 2 -50q9 -44 -9 -72q8 -8 22 -30v-48q1 -11 -10 -82t-9 -84l-178 -37q-37 5 -37 14q0 3 6.5 10t6.5 11q0 -4 2 67q1 64 0 77
q-5 61 -4 70q1 2 7.5 13t6.5 17q0 2 -2.5 6t-3.5 8q-2 11 6 71q2 15 6 48q-1 15 -1 45q4 8 10 25q2 10 -16.5 31t-19.5 32q0 4 12 26t13 26q2 13 13 28.5t13 28.5q0 7 1 23q18 14 53 33q6 2 7 3l-8 3q1 1 10 1q2 0 9.5 4t11.5 4q26 0 50 -12q5 -6 10 -11q8 -8 18 -8
q2 0 1.5 7t3.5 7q9 0 28 -6.5t19 -10.5zM151 567q0 29 -14 50q-17 24 -45 24q-25 0 -41.5 -20.5t-16.5 -46.5q0 -44 51 -72q-3 -5 -16 -17.5t-13 -16.5q0 -15 14 -15q30 0 57 42q24 39 24 72z" />
    <glyph glyph-name="divide" unicode="&#xf7;" horiz-adv-x="376" 
d="M397 574q0 -26 -7 -51q-6 -12 -16 -35q-1 -10 -5 -33q1 -16 1 -50q-8 -31 -19 -92q3 -18 6 -74q-1 -19 -8.5 -61t-7.5 -43q0 -17 4 -38q0 -3 4 -8.5t4 -9.5t-5 -11t-6 -10.5t-3 -3.5q-1 0 -2.5 5.5t-2.5 5.5q-1 -1 -3 -7q-5 -18 -23 -38q-2 -2 -14 -4.5t-16 -14.5
q-7 0 -13 6q-1 -1 -18 -21q-11 -12 -19 -12q-3 0 -24.5 9t-25.5 9q-16 0 -34 -4q-5 -1 -14 -9t-13 -8q-3 0 -12.5 3t-14.5 3q-3 0 -15.5 -3t-16.5 -3q-8 0 -15 6.5t-7 11.5q0 1 7 14q4 75 4 65q0 1 -5.5 10.5t-7.5 26.5q-3 52 -18 145q-1 3 2 12.5t3 12.5v76q0 4 -12 33.5
t-12 33.5l15 191q0 2 6 56t6 62q10 2 38 7q24 5 27 5l216 -18q25 0 53 -17q4 -2 8 -40q4 -41 5 -45q3 -7 16 -25q10 -16 10 -20zM320 243v358h-104q-3 -161 1 -236q2 -42 2 -61q0 -112 -37 -110q-38 3 -38 94q0 15 1 41t1 33q-3 74 0 239h-101l2 -263q1 -120 13 -154
q26 -72 122 -72q62 0 100 34.5t38 96.5zM235 678q-2 20 -24.5 34.5t-41.5 12.5q-20 -2 -38 -17q-21 -17 -19 -37q1 -20 24 -34t42 -12q20 1 39.5 18t17.5 35zM200 677q1 -7 -8.5 -12.5t-16.5 -6.5t-16 5.5t-10 13.5q-1 14 23 16q7 1 17 -4.5t11 -11.5z" />
    <glyph glyph-name="ydieresis" unicode="&#xff;" horiz-adv-x="475" 
d="M477 527l-5 -246l-12 -98l-14 -110q-1 -20 -1 -22q-2 -14 -12 -18q-2 -1 -4.5 -6.5t-5.5 -5.5q-1 0 -2.5 2t-10.5 1q-50 -7 -120 -7q-3 0 -28.5 5t-34.5 5q-27 2 -83 5q-28 -1 -56 -1q-38 2 -60 18q-6 11 -17 29q-5 6 -5 20q-1 36 -2 73q-1 49 -11 75q9 12 16 28
q-6 14 -6 36v13.5v13.5q0 28 -15 39v83q0 3 6 13t7 13q4 10 4 32q0 11 -5 18q-8 11 -11.5 20.5t-3.5 38.5q0 2 12.5 24.5t14.5 34.5q3 18 14 51q4 8 20 13t24 5q4 0 31 -2.5t31 -2.5q3 0 33 8.5t33 8.5t17 -3t17 -3q12 0 35.5 14t34.5 14q2 0 25 -2t34 -2q3 0 0 -3
q-5 -4 -5 -5t2 -1q-13 1 -13 -3q1 -1 4 -2l68 -30q57 -30 60 -58v-123zM337 657q0 16 -10 27t-24 11t-23.5 -11t-9.5 -27t9.5 -27t23.5 -11t24 11t10 27zM223 657q0 16 -10 27t-24 11t-23.5 -11t-9.5 -27t9.5 -27t23.5 -11t24 11t10 27zM434 582q-92 -16 -153 0v-71
q36 -1 34 -17q-2 -11 -21 -53t-31 -60q-48 93 -48 109q0 24 30 18v73q-49 -8 -96 -8q-52 0 -92 10v-75q30 4 39 -2q15 -10 33 -49l63 -134q14 -29 15 -49q-1 -7 -1 -21q0 -32 -1 -44q-2 -29 -8.5 -34t-18.5 -7q-6 -1 -29 -1v-74q107 15 201 0v75q-30 -6 -40 5q-14 13 -14 74
q0 62 7 78q28 64 41 90q26 50 54 83q10 12 36 10v74z" />
    <glyph glyph-name="Ydieresis" unicode="&#x178;" horiz-adv-x="481" 
d="M487 527l-5 -246l-12 -98l-14 -110q-1 -20 -1 -22q-2 -14 -12 -18q-2 -1 -4.5 -6.5t-5.5 -5.5q-1 0 -2.5 2t-10.5 1q-50 -7 -120 -7q-3 0 -28.5 5t-34.5 5q-27 2 -83 5q-28 -1 -56 -1q-38 2 -60 18q-6 11 -17 29q-5 6 -5 20q-1 36 -2 73q-1 49 -11 75q9 12 16 28
q-6 14 -6 36v13.5v13.5q0 28 -15 39v83q0 3 6 13t7 13q4 10 4 32q0 11 -5 18q-8 11 -11.5 20.5t-3.5 38.5q0 2 12.5 24.5t14.5 34.5q3 18 14 51q4 8 20 13t24 5q4 0 31 -2.5t31 -2.5q3 0 33 8.5t33 8.5t17 -3t17 -3q12 0 35.5 14t34.5 14q2 0 25 -2t34 -2q3 0 0 -3
q-5 -4 -5 -5t2 -1q-13 1 -13 -3q1 -1 4 -2l68 -30q57 -30 60 -58v-123zM364 650q0 19 -12.5 32.5t-29.5 13.5t-29 -13.5t-12 -32.5q0 -20 12 -33.5t29 -13.5t29.5 13.5t12.5 33.5zM238 650q0 19 -12.5 32.5t-29.5 13.5t-29 -13.5t-12 -32.5q0 -20 12 -33.5t29 -13.5
t29.5 13.5t12.5 33.5zM332 570l-67 -201l-75 201h-138l146 -323v-131h123v131l137 323h-126z" />
    <glyph glyph-name="currency" unicode="&#xa4;" horiz-adv-x="432" 
d="M448 797l-27 -605l-4.5 -61t-5.5 -88q-8 -10 -46 -10q-4 0 -23.5 1.5t-22.5 1.5l-201 12q2 14 2 40q-6 26 -17 44v11q-1 0 121 0q37 0 69 15q46 22 53 67.5t7 64.5l-6 185q-12 156 -106 156h-172v-289q-21 14 -25 28q-1 6 2.5 18t2.5 18q-5 17 -15 53q-4 3 -10 9
q-11 16 -30 54q-19 45 -19 79q0 22 16 79q4 8 10 21q-1 18 2 53q168 26 149 26q3 0 43 -3t43 -3q4 0 13 1.5t13 1.5q-1 0 18 1.5t32 1.5q19 -1 29 -4.5t15 -10.5q2 -3 19 -3q35 0 45 12q3 8 12 23h14zM246 269q0 -10 -8 -27q-9 -22 -21 -21h-35l-7 326q6 7 22 7q29 0 33 -13
q9 -31 13 -158zM83 745l113 -73l114 75l-13 11l-98 -34l-103 35z" />
    <glyph glyph-name="guilsinglleft" unicode="&#x2039;" horiz-adv-x="328" 
d="M357 529q-11 -12 -13 -18q1 -13 1 -37q0 -23 -4 -42t-8 -36q2 -8 1 -21q-9 -19 -9 -20t2 -10.5t1 -14.5q-1 -6 -8 -25t-7 -28q0 -6 3 -28q2 -18 1 -30q-4 -7 -12 -23q-3 -12 -9 -35q2 -6 2 -17q-4 -8 -10 -23q1 -8 1 -24q-7 -7 -15 -14q-9 -10 -6 -21l-32 3
q-4 0 -19.5 -4.5t-18.5 -4.5q-4 0 -24 7.5t-24 7.5q-3 0 -3.5 -1.5t-4.5 -1.5t-6.5 2.5t-3.5 4.5q-18 7 -32 7q-3 0 -20 -4.5t-20 -4.5q9 0 -49 13q-3 3 -9 8q4 13 16 45q-2 7 -4 21q9 5 10 25v29q1 9 4 15q10 12 21 37q2 16 -2 55q-5 44 -5 41q0 12 5 61q4 41 2 45
q-8 8 -21 26q0 1 -3 5q0 1 7 20q-12 12 -26 36q-1 13 -3 38q1 3 4 9q-9 49 -17 83q-4 5 -12 17q-1 2 -1 -19q0 14 3 23q123 19 138 19l234 -16q-20 -6 -20 -7t2 -4t3 -7q5 -29 0 -47q-13 -41 -13 -38q0 -10 4 -16t8 -9l4 -28q3 -18 17 -24zM280 143q-14 23 -23 58l-6 5
l-51 -14q-14 -4 -39.5 7t-25.5 25q0 15 2 39q2 32 2 40q1 6 -1 24.5t-2 29.5q0 50 32 50q44 0 93 -14l4 3l-27 70l-6 2l-39 -9q-36 0 -54 6l-4 14q0 10 10 19t21 9q26 0 73 -14q3 0 5 4q-3 27 -12 60l-8 3l-38 -5q-91 0 -110 1l-8 -6q12 -34 12 -67l-8 -110q-2 -29 2 -77
q4 -57 4 -76q0 -55 -15 -79l8 -5q28 5 75 3q77 -4 76 -4q31 0 51 -4zM43 664l113 -72l114 74l-13 11l-98 -33l-103 34z" />
    <glyph glyph-name="guilsinglright" unicode="&#x203a;" horiz-adv-x="409" 
d="M336 649l-98 -3l9 -250l-26 75q-27 76 -59 176l-99 -1q0 -87 2 -224q3 -186 3 -225h93v210l5 2l77 -208l44 -1h58q-8 91 -8 224q-1 113 -1 225zM416 105q1 -43 -34 -51q-8 -2 -72 -2q-31 0 -96.5 7t-98.5 7q-55 0 -76 23q-17 18 -17 57q0 12 2.5 42.5t2.5 46.5
q0 28 -13 70t-13 70.5t-15 39.5v83q0 3 8.5 25t8.5 35q0 8 -10 31t-10 46q16 28 16 52q0 20 -12 39.5t-12 20.5q0 9 74 9q16 0 85.5 7t88.5 7q13 0 35 14.5t35 14.5q71 0 98 -15q23 -13 23 -44q0 -11 -9 -70q-8 -54 -6 -97q-8 -64 -8 -145q0 -154 25 -323zM76 739l114 -72
l114 74l-13 11l-98 -33l-104 34z" />
    <glyph glyph-name="daggerdbl" unicode="&#x2021;" horiz-adv-x="367" 
d="M316 -8q-21 -15 -29 -12l-37 22l-23 -5q-28 0 -82 13.5t-85 13.5q-8 0 -20 8q-16 11 -21 12q-16 27 -17 45q2 -36 2 47q0 20 -8 58.5t-8 56.5q0 33 6.5 99t6.5 99q0 17 5 49.5t5 50.5l5 10q-5 5 -5 175q0 9 -5 19.5t-5 11.5q0 3 9 3q67 0 179 -22q92 -18 185 -37l12 -14
q-12 -23 -28 -286q-15 -256 -13 -262q0 -18 -17.5 -66t-17.5 -67q0 -14 6 -22zM283 280q-34 0 -118 3q12 55 12 146q0 76 -9 162q-13 4 -54 -3l-55 6l-6 -50l5 -368l228 -3q-1 1 -1 5q0 6 3 34.5t3 43.5q0 24 -8 24zM164 739l-95 -109l49 -1l151 92z" />
    <glyph glyph-name="periodcentered" unicode="&#xb7;" horiz-adv-x="369" 
d="M354 240q7 -18 -6 -33q-7 4 -6 16q4 11 12 17zM349 197l-5 -6l-4 2l5 6zM375 662q-14 -22 -14 -161q0 -98 6 -224l-26 -3l-150 7q-5 123 -2 317q-13 5 -54 3l-56 -1v-38l-8 -374l241 -9q27 -5 36 0l1 -28q-2 -16 -26 -78q-22 -57 -22 -81q0 -11 4 -19q-23 -12 -30 -8
l-35 27l-23 -3q-27 3 -79 23.5t-83 24.5q-8 1 -13.5 8t-11.5 10q-14 26 -26.5 51.5t-9.5 52.5q2 20 6 46.5t6 44.5q4 33 1 110t1 110q2 18 11 49.5t11 48.5l6 10q-8 11 -22 43q-19 43 -17 64q2 12 32 12q6 0 63 -7q26 -3 52 -3q22 0 60 3t57 3q51 0 104 -16zM228 597
q10 -99 23 -201q3 -3 27 -3q5 0 29 201z" />
    <glyph glyph-name="periodcentered" unicode="&#x2219;" horiz-adv-x="369" 
d="M354 240q7 -18 -6 -33q-7 4 -6 16q4 11 12 17zM349 197l-5 -6l-4 2l5 6zM375 662q-14 -22 -14 -161q0 -98 6 -224l-26 -3l-150 7q-5 123 -2 317q-13 5 -54 3l-56 -1v-38l-8 -374l241 -9q27 -5 36 0l1 -28q-2 -16 -26 -78q-22 -57 -22 -81q0 -11 4 -19q-23 -12 -30 -8
l-35 27l-23 -3q-27 3 -79 23.5t-83 24.5q-8 1 -13.5 8t-11.5 10q-14 26 -26.5 51.5t-9.5 52.5q2 20 6 46.5t6 44.5q4 33 1 110t1 110q2 18 11 49.5t11 48.5l6 10q-8 11 -22 43q-19 43 -17 64q2 12 32 12q6 0 63 -7q26 -3 52 -3q22 0 60 3t57 3q51 0 104 -16zM228 597
q10 -99 23 -201q3 -3 27 -3q5 0 29 201z" />
    <glyph glyph-name="quotesinglbase" unicode="&#x201a;" horiz-adv-x="211" 
d="M238 689q0 -9 -13 -36q-1 -1 4 -22q-4 -5 -9 -12q-1 -92 -7 -198q-6 -9 -15 -28q-20 -73 -20 -92q0 8 9 -42q-1 -17 2 -51q9 -44 -9 -71q8 -9 22 -31q-1 -15 0 -48q1 -11 -10 -81.5t-9 -84.5l-168 -37q-37 5 -37 14q0 4 6.5 11t6.5 10q0 -4 2 68q1 63 0 76q-5 61 -4 70
q1 2 7.5 13t6.5 18q0 1 -2.5 5.5t-3.5 8.5q-2 10 6 70l6 48q-1 16 -1 45q4 8 9 25q2 10 -16 31.5t-19 31.5q-1 16 27 194q1 13 12.5 28.5t13.5 28.5v23q8 4 12 19.5t13 15.5q48 2 85 -8t41 -10q3 0 17.5 7.5t17.5 7.5q17 0 17 -17zM162 71q0 89 -73 89q-33 0 -52 -29
q-16 -24 -16 -54q0 -33 16 -55q19 -26 55 -26q4 -32 -44 -76q59 7 90 61q24 42 24 90z" />
    <glyph glyph-name="quotedblbase" unicode="&#x201e;" horiz-adv-x="407" 
d="M408 497l-5 -346l-12 -99l-14 -109q-1 -21 -1 -23q-2 -14 -12 -17q-2 -1 -4.5 -7t-5.5 -6q-2 0 -3 3q-2 1 -10 0q-50 -7 -70 -7q-3 0 -28.5 5t-34.5 6q-27 1 -83 4h-41q-23 1 -45 18q-6 11 -17 29q-5 6 -5 19q-1 37 -2 73q-1 50 -11 75q9 12 16 29q-7 14 -7 35q0 5 1 14
v13q0 29 -15 40v82q0 4 6 13.5t7 13.5q4 9 4 32q0 21 -5 67q-5 55 -11 71q-4 9 -4 39q0 2 12.5 24.5t14.5 33.5q3 18 14 52q4 7 20 12.5t24 5.5q4 0 16 -3t15 -3q4 0 34 8.5t33 8.5t17 -2.5t17 -2.5q12 0 35.5 14t34.5 14q2 0 1 -1q-2 -1 -1 -2t9 -1q3 0 0 -3q-5 -4 -5 -5
t2 -2q13 0 41 -4q22 -11 43 -30q32 -29 35 -58v-123zM352 71q0 89 -73 89q-33 0 -52 -29q-16 -24 -16 -54q0 -33 16 -55q19 -26 55 -26q4 -32 -44 -76q59 7 90 61q24 42 24 90zM182 71q0 89 -73 89q-33 0 -52 -29q-16 -24 -16 -54q0 -33 16 -55q19 -26 55 -26q4 -32 -44 -76
q59 7 90 61q24 42 24 90z" />
    <glyph glyph-name="perthousand" unicode="&#x2030;" horiz-adv-x="438" 
d="M345 125v52q0 108 -23 174q-4 10 -19 24t-15 16q0 4 12.5 15.5t14.5 15.5q14 26 16 46q-1 -8 -1 35q0 77 -30.5 103.5t-113.5 26.5q-58 0 -134 -4q-2 -2 -1 -16l20 -491h84q10 5 10 14v198q7 9 25 9q44 0 50 -55q1 -43 3 -86q1 -28 12 -73q7 -4 30 -4h26.5h33.5zM231 486
q0 -32 -7 -45q-10 -20 -41 -20q-24 0 -24 21q0 42 -1.5 66.5t-1.5 21.5q0 16 5 21.5t23 5.5q47 0 47 -71zM432 593l9 -22q-12 -26 -12 -72l9 -13q-10 -19 -22 -61q12 -29 12 -56q0 -8 -1.5 -27.5t-1.5 -32.5q0 -8 3 -40q2 -20 -2 -41q12 -16 21 -46q-14 -29 -16 -40v-41
q0 -8 -5 -32t-5 -36q0 -69 -117 -69q-25 0 -67 3.5t-53 2.5q-22 0 -76 -7q-48 -5 -75 -5q-35 0 -35 33q0 21 6.5 62.5t6.5 61.5t-9.5 44.5t-9.5 28.5q0 31 13 40q-1 35 8 106q10 76 10 106q0 39 -9 134q-9 86 -6 134l-4 4l10 4l-9 29q7 16 25 45h18l1 -14l5 -4q10 0 34 -4
q21 -3 33 -3q8 0 41.5 6.5t34.5 6.5l183 -32q5 -1 38 19q21 -16 31 -25q-3 -13 -6 -77q-2 -57 -11 -70zM62 737l114 -73l114 75l-13 11l-99 -34l-103 35z" />
    <glyph glyph-name="Acircumflex" unicode="&#xc2;" horiz-adv-x="404" 
d="M390 517l9 -235l-12 -99l-14 -110q-1 -21 -1 -23q-3 -14 -12 -18q-30 -13 -41 -13q9 0 12 1q-2 0 -14.5 -3t-17.5 -3q-2 0 -27.5 5t-35.5 5q-27 2 -83 5q-29 0 -57 -1q-38 2 -61 19q-6 11 -17 29q-5 6 -5 20q-1 15 9 65t10 73q0 17 -4 28q-5 4 -12 12q-7 14 -7 36
q0 5 1 14v13q0 29 -15 40v83q0 4 5 12q7 12 8 15q4 10 4 33q0 11 -5 17q-8 11 -11.5 21t-3.5 39q0 3 12.5 25.5t14.5 33.5q3 19 14 53q4 7 22 13q14 5 23 5q4 0 31 -3t31 -3q3 0 33.5 8.5t33.5 8.5t17 -3t18 -3q11 0 34.5 14.5t35.5 14.5q2 0 -2 -1q-4 0 7 0q4 0 13.5 -5
t13.5 -5q-13 1 -13 -3q0 -1 3 -2q19 -9 40 -31q27 -29 30 -59q2 -11 -6 -73zM262 621q-16 14 -33 28q-34 27 -45 29q-24 -1 -78 -58q-10 -10 -2 -13t13 4q22 10 67 31l67 -32q4 -2 7 -2q9 0 9 6q0 4 -5 7zM314 132q0 52 -10 160q-8 86 1 157q4 26 4 108q0 25 -26 25
q-13 0 -40 -3.5t-41 -3.5q-15 0 -43.5 3.5t-42.5 3.5q-31 0 -26 0q-18 -2 -18 -13q0 -3 7.5 -15t7.5 -24q0 -19 -10 -60.5t-10 -66.5q0 -29 4 -119q1 -26 -8.5 -76.5t-9.5 -75.5l2 -12q10 7 20 7q6 0 16.5 -4t16.5 -4q32 0 32 40q0 25 -5 74.5t-5 74.5q0 40 40 40
q43 0 49 -2q22 -7 22 -42q0 -27 -6.5 -78.5t-6.5 -77.5q0 -29 29 -29q7 0 20 3t18 3q9 0 15 -6zM241 437q0 -32 -19 -32q-8 0 -22 2t-22 2q-5 0 -15.5 -2t-15.5 -2q-23 0 -23 32q0 72 58 72q59 0 59 -72z" />
    <glyph glyph-name="Ecircumflex" unicode="&#xca;" horiz-adv-x="367" 
d="M389 164l-15 -110q-1 -21 -1 -23q-2 -14 -11 -18q-30 -12 -41 -12q-2 0 0 3q3 5 3 6q0 3 -5 2.5t-11 0.5t-8.5 1t-28 5t-35.5 5q-27 2 -83 5q-29 0 -57 -1q-38 2 -61 19q-6 11 -17 29q-5 6 -5 20q-1 15 9 65t10 73q0 17 -4 28q-5 4 -12 12q-7 14 -7 36q0 5 1 14v13
q0 29 -15 40v83q0 4 5 12q7 12 8 15q4 10 4 33q0 11 -5 17q-8 11 -11.5 21t-3.5 39q0 3 12.5 25.5t14.5 33.5q3 19 14 53q4 7 22 13q14 5 23 5q4 0 31 -3t31 -3q3 0 33.5 8.5t33.5 8.5t17 -3t18 -3q11 0 34.5 14.5t35.5 14.5q1 0 1 -1t-1.5 -6t-1.5 -7q0 -6 8 -6
q4 0 13.5 -4.5t13.5 -5.5q-13 2 -13 -3q1 -1 4 -2q25 -12 32 -84q2 -11 -9 -76l-11 -65l9 -70zM218 658q-35 28 -50 31q-19 -1 -53 -31q-13 -11 -30 -30q-18 -18 1 -25q12 -4 20 5q21 9 62 28l64 -30q14 -7 23 2q11 12 -4 22q-8 8 -33 28zM259 218q-19 0 -55.5 -7t-54.5 -7
q-11 0 -11 13q0 33 10 71q11 45 26 57q1 1 44 16q40 14 40 36q0 14 -24 23q-31 9 -63 18q-37 15 -38 46q0 14 22 14q15 0 47 -5t48 -5q40 0 40 33q0 6 -1.5 17.5t-1.5 17.5q0 1 2.5 10t0.5 17q-10 9 -20 5q-21 -7 -39 -6q-48 1 -139 6q-16 1 -27 -10t-11 -30
q0 -32 13.5 -94.5t13.5 -94.5q0 -34 -14.5 -100t-14.5 -100q0 -50 36 -50q18 0 57.5 4.5t57.5 4.5q12 0 33 -3t33 -3q17 0 27 1q-9 28 -9 33q0 6 4.5 19t4.5 21q0 32 -37 32z" />
    <glyph glyph-name="Aacute" unicode="&#xc1;" horiz-adv-x="453" 
d="M459 178q0 -2 -12.5 -25t-15.5 -34q-2 -19 -13 -53q-4 -7 -22 -13q-14 -5 -23 -5q-4 0 -31 3t-31 3q-3 0 -33.5 -8.5t-33.5 -8.5t-17 3t-18 3q-11 0 -34.5 -14.5t-35.5 -14.5q-2 0 -25 2t-35 2q-3 0 -12.5 4.5t-14.5 5.5q13 -2 13 3q0 1 -3 1q-19 10 -39 31
q-28 30 -31 59v124l5 249l12 100l15 110q0 21 1 23q2 14 11 18q32 13 34 13q-1 0 20 -2.5t30 -1.5q2 1 16 3q11 3 16 3q2 0 27.5 -5t35.5 -5q27 -2 83 -5q29 0 57 1q38 -2 61 -19q5 -11 17 -29q5 -6 5 -20q1 -15 -9 -65t-10 -73q0 -17 4 -28q5 -4 12 -12q6 -14 6 -36v-14
v-13q0 -29 15 -40v-83q0 -4 -5 -12q-7 -12 -8 -15q-4 -10 -4 -33q0 -11 5 -17q8 -11 11.5 -20.5t3.5 -39.5zM288 653q0 2 -22 51l-109 -67l9 -22q122 36 122 38zM249 343q-40 -11 -68 0l35 161q12 -53 33 -161zM403 190q-40 0 -48 27q-59 202 -72 385q-31 -9 -54 -9
q-22 0 -58 9q-4 -87 -31 -200q-16 -64 -46 -189q-4 -19 -19 -22q-5 -1 -22 -4q1 -13 2 -35q0 -16 -3 -39q43 11 77 11q31 0 81 -10q-2 24 -1 75h-21q-23 2 -23 19q0 12 15 80q35 -7 71 0q15 -61 15 -76q0 -25 -38 -25q2 -45 -1 -72q81 16 176 0q-2 24 0 75z" />
    <glyph glyph-name="Edieresis" unicode="&#xcb;" horiz-adv-x="409" 
d="M429 178q0 -2 -12.5 -25t-15.5 -34q-2 -19 -13 -53q-10 -18 -15 -18q-4 0 -31 3t-31 3q-3 0 -33.5 -8.5t-33.5 -8.5t-17 3t-18 3q-11 0 -34.5 -14.5t-35.5 -14.5q-2 0 -25 2t-35 2q-3 0 -12.5 4.5t-14.5 5.5q13 -2 13 3q0 1 -3 1q-19 10 -39 31q-28 30 -31 59v124l5 249
l12 100l15 110q0 21 1 23q2 14 11 18q32 13 34 13q-1 0 20 -2.5t30 -1.5q2 1 16 3q11 3 16 3q2 0 27.5 -5t35.5 -5q27 -2 83 -5q21 0 42 1q23 -2 46 -19q5 -11 17 -29q5 -6 5 -20q1 -15 -9 -65t-10 -73q0 -17 4 -28q5 -4 12 -12q6 -14 6 -36v-14v-13q0 -29 15 -40v-83
q0 -4 -5 -12q-7 -12 -8 -15q-4 -10 -4 -33q0 -11 5 -17q8 -11 11.5 -20.5t3.5 -39.5zM283 657q0 16 -10 27t-24 11q-13 0 -23 -11t-10 -27t10 -27t23 -11q14 0 24 11t10 27zM169 657q0 16 -10 27t-24 11q-13 0 -23 -11t-10 -27t10 -27t23 -11q14 0 24 11t10 27zM172 343
q25 -1 31 -20q3 -6 6 -42h43q-12 78 -1 178h-39q-2 -12 -6 -30q-6 -24 -27 -29h-10q-3 9 0 48q4 38 8 53q9 28 37 28q63 0 63 -93h54q-10 59 -7 109q3 22 6 54q-117 -13 -286 0q8 -40 0 -77q25 7 28 7q13 0 18 -64q2 -20 2 -88v-139q-4 -57 -22 -58q-5 3 -29 15
q12 -41 1 -81q122 16 295 1q-2 17 -6 69q-3 67 3 120q-22 0 -55 -3q-1 -16 -3 -46q-7 -69 -53 -69q-55 0 -51 83q-1 24 0 74z" />
    <glyph glyph-name="Egrave" unicode="&#xc8;" horiz-adv-x="426" 
d="M429 178q0 -2 -12.5 -25t-15.5 -34q-2 -19 -13 -53q-10 -18 -15 -18q-4 0 -31 3t-31 3q-3 0 -33.5 -8.5t-33.5 -8.5t-17 3t-18 3q-11 0 -34.5 -14.5t-35.5 -14.5q-2 0 -25 2t-35 2q-3 0 -12.5 4.5t-14.5 5.5q13 -2 13 3q0 1 -3 1q-19 10 -39 31q-28 30 -31 59v124l5 249
l12 100l15 110q0 21 1 23q2 14 11 18q32 13 34 13q-1 0 20 -2.5t30 -1.5q2 1 16 3q11 3 16 3q2 0 27.5 -5t35.5 -5q27 -2 83 -5q21 0 42 1q23 -2 46 -19q5 -11 17 -29q5 -6 5 -20v-65q0 -43 9 -68q-7 -20 -12 -45q6 -14 6 -36v-14v-13q0 -29 15 -40v-83q0 -4 -5 -12
q-7 -12 -8 -15q-4 -10 -4 -33q0 -11 5 -17q8 -11 11.5 -20.5t3.5 -39.5zM287 657q0 16 -10 27t-24 11t-23.5 -11t-9.5 -27t9.5 -27t23.5 -11t24 11t10 27zM173 657q0 16 -10 27t-24 11t-23.5 -11t-9.5 -27t9.5 -27t23.5 -11t24 11t10 27zM381 537v57q-84 -14 -137 -1v-54
q37 -2 34 -25q-2 -14 -26.5 -66t-34.5 -59q-6 11 -28 57q-27 55 -27 65q0 31 30 27v55q-102 -16 -172 1v-56q25 2 35 -4q17 -12 37 -53l62 -134q15 -30 16 -52q-1 -11 -2 -21q1 -75 -11 -84t-45 -9v-58q46 6 96 6t89 -6v56q-25 -3 -37 10q-16 15 -16 79q0 63 8 81
q28 65 41 91q26 51 55 84q12 13 33 13z" />
    <glyph glyph-name="Iacute" unicode="&#xcd;" horiz-adv-x="426" 
d="M429 178q0 -2 -12.5 -25t-15.5 -34q-2 -19 -13 -53q-10 -18 -15 -18q-4 0 -31 3t-31 3q-3 0 -33.5 -8.5t-33.5 -8.5t-17 3t-18 3q-11 0 -34.5 -14.5t-35.5 -14.5q-2 0 -25 2t-35 2q-3 0 -12.5 4.5t-14.5 5.5q13 -2 13 3q0 1 -3 1q-19 10 -39 31q-28 30 -31 59v124l5 249
l12 100l15 110q0 21 1 23q2 14 11 18q32 13 34 13q-1 0 20 -2.5t30 -1.5q2 1 16 3q11 3 16 3q2 0 27.5 -5t35.5 -5q27 -2 83 -5q21 0 42 1q23 -2 46 -19q5 -11 17 -29q5 -6 5 -20q1 -15 -9 -65t-10 -73q0 -17 4 -28q5 -4 12 -12q6 -14 6 -36v-14v-13q0 -29 15 -40v-83
q0 -4 -5 -12q-7 -12 -8 -15q-4 -10 -4 -33q0 -11 5 -17q8 -11 11.5 -20.5t3.5 -39.5zM297 657q0 16 -10 27t-24 11t-23.5 -11t-9.5 -27t9.5 -27t23.5 -11t24 11t10 27zM183 657q0 16 -10 27t-24 11t-23.5 -11t-9.5 -27t9.5 -27t23.5 -11t24 11t10 27zM391 537v57
q-84 -14 -137 -1v-54q37 -2 34 -25q-2 -14 -26.5 -66t-34.5 -59q-6 11 -28 57q-27 55 -27 65q0 31 30 27v55q-102 -16 -172 1v-56q25 2 35 -4q17 -12 37 -53l62 -134q15 -30 16 -52q-1 -11 -2 -21q1 -75 -11 -84t-45 -9v-58q46 6 96 6t89 -6v56q-25 -3 -37 10q-16 15 -16 79
q0 63 8 81q28 65 41 91q26 51 55 84q12 13 33 13z" />
    <glyph glyph-name="Icircumflex" unicode="&#xce;" horiz-adv-x="296" 
d="M304 178q0 -2 -9 -25t-11 -34q-1 -19 -9 -53q-7 -18 -11 -18q-2 0 -21.5 3t-21.5 3q-3 0 -24 -8.5t-23 -8.5t-12 3t-12 3q-8 0 -24.5 -14.5t-25.5 -14.5q-1 0 -17 2t-24 2q-3 0 -9.5 4.5t-9.5 5.5q9 -2 9 3q0 1 -3 1q-13 10 -27 31q-19 30 -22 59v124l4 249l8 100l11 110
v23q2 14 8 18q23 13 24 13l14.5 -2.5t20.5 -1.5q30 6 22 6q2 0 20 -5t25 -5q19 -2 58 -5q15 0 29 1q16 -2 32 -19q4 -11 12 -29q4 -6 4 -20q1 -15 -6.5 -65t-7.5 -73q0 -17 3 -28q4 -4 9 -12q4 -15 4 -38v-39q2 -17 10 -26v-83q0 6 -9 -27q-3 -10 -3 -33q0 -11 4 -17
q5 -11 8 -20.5t3 -39.5zM247 631l-103 66l-94 -66l6 -13l92 30l96 -33zM232 121q-5 19 -5 31q0 14 5 23q-37 -2 -48 53q-5 27 -6 128q-1 99 3 129q7 56 50 53q-9 22 0 53q-89 -15 -170 -1q9 -31 0 -52q43 3 50 -53q4 -30 3 -129q-1 -102 -5 -128q-11 -55 -48 -53
q5 -18 3 -36q-2 -9 -3 -18q45 9 81 9q34 0 90 -9z" />
    <glyph glyph-name="Idieresis" unicode="&#xcf;" horiz-adv-x="466" 
d="M466 557l-4 -246l-10 -98l-11 -110q-1 -20 -1 -22q-2 -14 -9 -18q-2 -1 -4 -6.5t-5 -5.5q-1 0 -2 2t-8 1q-3 -1 -94.5 -4t-97.5 -3q-2 0 -22.5 5t-27.5 5q-22 2 -66 5q-23 -1 -45 -1q-30 2 -49 18q6 11 7 29q-4 6 -4 20q-1 36 -1 73q-2 49 -9 75q7 12 12 28q-5 15 -5 38
q1 31 0 38q-2 17 -11 26v83q0 -6 10 26q3 10 3 32q0 11 -4 18q-6 11 -9 20q-1 2 -1 3q-2 0 -2 -14q0 2 10 24.5t12 34.5q1 6 -5 21t-6 22q0 5 2 8q3 8 16 13t20 5q2 0 24 -2.5t24 -2.5q3 0 27 8.5t27 8.5q2 0 13 -3t14 -3q9 0 11 10t11 10q2 0 20.5 -2t27.5 -2q21 0 31 -1
q-11 1 -11 -3q1 -1 3 -2q52 -15 103 -30q94 -30 96 -58v-73zM327 657q0 16 -10 27t-24 11t-23.5 -11t-9.5 -27t9.5 -27t23.5 -11t24 11t10 27zM213 657q0 16 -10 27t-24 11t-23.5 -11t-9.5 -27t9.5 -27t23.5 -11t24 11t10 27zM421 537v57q-84 -14 -137 -1v-54q37 -2 34 -25
q-2 -14 -26.5 -66t-34.5 -59q-6 11 -28 57q-27 55 -27 65q0 31 30 27v55q-102 -16 -172 1v-56q25 2 35 -4q17 -12 37 -53l62 -134q15 -30 16 -52q-1 -11 -2 -21q1 -75 -11 -84t-45 -9v-58q46 6 96 6t89 -6v56q-25 -3 -37 10q-16 15 -16 79q0 63 8 81q28 65 41 91
q26 51 55 84q12 13 33 13z" />
    <glyph glyph-name="Igrave" unicode="&#xcc;" horiz-adv-x="509" 
d="M475 528q8 -111 17 -230l25 -95l-14 -110q-1 -20 -1 -22q-2 -14 -11 -18q-3 -1 -5.5 -6.5t-5.5 -5.5q-1 0 -2.5 2t-10.5 1q-4 -1 -118.5 -4t-121.5 -3q-3 0 -28.5 5t-34.5 5q-27 2 -82 5q-14 -1 -27 -1q-7 1 -30 18q-6 11 -17 29q-5 6 -5 20q-1 36 -1 73q-2 49 -12 75
q9 12 16 28q-6 14 -6 36v13.5v13.5q0 28 -15 39v83q0 3 6 13t7 13q4 10 4 32q0 11 -5 18q-7 11 -11 20q-1 2 -2 3q-2 0 -2 -14q0 2 12.5 24.5t15.5 34.5q2 18 13 51q4 7 -9 13q-8 5 -7 5q4 0 31 -2.5t31 -2.5q3 0 33 8.5t33 8.5t17 -3t18 -3q11 0 13.5 10t13.5 10q2 0 25 -2
t34 -2q27 0 39 -1q-13 1 -13 -3q1 -1 4 -2q15 -7 218 -53q-29 -121 -29 -127zM334 657q0 16 -10 27t-23 11q-14 0 -24 -11t-10 -27t10 -27t24 -11q13 0 23 11t10 27zM220 657q0 16 -10 27t-23 11q-14 0 -24 -11t-10 -27t10 -27t24 -11q13 0 23 11t10 27zM429 537v57
q-85 -14 -138 -1v-54q37 -2 34 -25q-2 -14 -26.5 -66t-34.5 -59q-6 11 -28 57q-26 55 -26 65q0 31 30 27v55q-103 -16 -173 1v-56q25 2 35 -4q18 -12 37 -53l62 -134q15 -30 16 -52q-1 -11 -1 -21q0 -75 -12 -84t-45 -9v-58q46 6 96 6t90 -6v56q-26 -3 -38 10q-16 15 -16 79
q0 63 8 81q28 65 42 91q26 51 54 84q12 13 34 13z" />
    <glyph glyph-name="Oacute" unicode="&#xd3;" horiz-adv-x="459" 
d="M457 557l-5 -246l8 -98l-14 -110q-1 -20 -1 -22q-2 -14 -12 -18q-2 -1 -4.5 -6.5t-5.5 -5.5q-1 0 -2.5 2t-10.5 1q-2 -1 -84 -19t-86 -18q-3 0 -28.5 5t-34.5 5q-27 2 -83 5q-15 -1 -31 -1q-12 1 -35 18q-6 11 -17 29q-5 6 -5 20q-1 12 1 44q3 36 3 53q0 32 -7 51
q9 12 16 28q-6 14 -6 36v13.5v13.5q0 28 -15 39v83q0 3 6 13t7 13q4 10 4 32q0 11 -5 18q-8 11 -11 20q-1 2 -2 3q-2 0 -2 -14q0 3 7.5 25.5t9.5 33.5q3 18 14 51q10 18 24 18q4 0 16 -2.5t16 -2.5q3 0 33 8.5t33 8.5t17 -3t17 -3q12 0 14.5 10t13.5 10q2 0 25 -2t34 -2
q27 0 39 -1q-13 1 -13 -3q1 -1 4 -2q41 -7 83 -15q72 -15 75 -43v-73zM295 650v35q-11 5 -26 12q-3 2 -95 -72l7 -10zM230 606q-87 0 -133 -77q-39 -65 -39 -159q0 -101 31 -168q44 -98 146 -98q176 0 169 267q-3 94 -41 157q-46 78 -133 78zM234 196q-52 0 -74 66
q-16 44 -16 106q0 50 19 93q24 56 69 56q44 0 68 -56q18 -43 18 -93q0 -172 -84 -172z" />
    <glyph glyph-name="Ocircumflex" unicode="&#xd4;" horiz-adv-x="471" 
d="M477 567l-5 -246l-12 -98l-14 -110q-1 -20 -1 -22q-2 -14 -12 -18q-2 -1 -4.5 -6.5t-5.5 -5.5q-1 0 -2.5 2t-10.5 1q-4 -1 -84 -4t-86 -3q-3 0 -28.5 5t-34.5 5q-27 2 -83 5q-13 -1 -26 -1q-7 1 -30 18q-6 11 -17 29q-5 6 -5 20q-1 36 -2 73q-1 49 -11 75q9 12 16 28
q-6 14 -6 36v13.5v13.5q0 28 -15 39v83q0 3 6 13t7 13q4 10 4 32q0 11 -5 18q-8 11 -11 20q-1 2 -2 3q-2 0 -2 -14q0 2 12.5 24.5t14.5 34.5q3 18 14 51q4 8 20 13t24 5q4 0 1 -2.5t1 -2.5q3 0 33 8.5t33 8.5t17 -3t17 -3q12 0 14.5 10t13.5 10q2 0 25 -2t34 -2q27 0 39 -1
q-13 1 -13 -3q1 -1 4 -2q46 -15 93 -30q82 -30 85 -58v-73zM335 671l-103 66l-94 -66l7 -13l91 29l96 -32zM394 246q-16 70 -16 161q0 51 12 152q-36 25 -37 26q-22 19 -33 47q-52 -10 -92 -10q-44 0 -79 11q5 -5 -23 -37.5t-51 -33.5q2 -10 7 -72q6 -66 6 -84
q0 -55 -13 -161q48 -30 79 -83l79 8q26 -2 80 -9q4 18 29 45t52 40zM308 411q0 -85 -8 -119q-16 -70 -68 -70q-75 0 -75 186q0 169 80 169q71 0 71 -166z" />
    <glyph glyph-name="Ograve" unicode="&#xd2;" horiz-adv-x="357" 
d="M368 538l-34 -249l17 -95l-14 -110q-1 -20 -1 -22q-2 -14 -12 -18q-2 -1 -4.5 -6.5t-5.5 -5.5q-1 0 -3 2q-1 2 -10 0q-2 0 -30 -8.5t-31 -8.5t-28.5 5t-34.5 5q-27 2 -83 5q-15 -1 -31 -1q-12 1 -35 18q-6 11 -17 29q-5 6 -5 20q-1 36 -2 73q-1 49 -11 75q9 12 16 28
q-6 14 -6 36v13.5v13.5q0 28 -15 39v83q0 3 6 13t7 13q4 10 4 32q0 11 -5 18q-8 11 -11 20q-1 2 -2 3q-2 0 -2 -14q0 2 12.5 24.5t14.5 34.5q2 6 -17.5 23t-19.5 24q0 9 19 16q16 6 26 6q4 0 31 -2.5t31 -2.5q3 0 33 8.5t33 8.5t17 -3t17 -3q12 0 14.5 10t13.5 10q2 0 25 -2
t34 -2q27 0 39 -1q-1 2 -3 5q-5 4 -16 11q-4 2 -10 6l69 -77q20 -93 20 -100zM230 602l-57 64q-6 9 -13.5 17.5t-18.5 8.5q-24 0 -24 -24q0 -18 15 -26l74 -43zM306 363q0 106 -58 194q-16 26 -30 26q-8 0 -23.5 -3t-23.5 -3q-9 0 -26 4t-26 4q-14 0 -13 -16q1 -3 9.5 -14
t8.5 -14q0 -2 -17 -34q-19 -37 -19 -39q-27 -60 -27 -133q0 -62 15 -108q14 -40 42 -74q33 -41 65 -41q38 0 78 70q34 61 40 111q5 55 5 70zM241 323q0 -30 -9 -65q-11 -47 -30 -47q-6 0 -19.5 12t-17.5 20q-38 62 -38 137q0 29 9 67q11 49 28 49q24 0 50.5 -54t26.5 -119z
" />
    <glyph glyph-name="Uacute" unicode="&#xda;" horiz-adv-x="394" 
d="M401 556l-6 -246l-11 -98l-15 -110q0 -20 -1 -22q-2 -14 -11 -18q-2 -1 -5 -6.5t-6 -5.5q-1 0 -2.5 2t-9.5 1q-19 -3 -38 -3q-2 0 -27.5 5t-35.5 5q-27 2 -82 5q-28 0 -57 -1q-37 2 -60 18q-5 11 -17 30q-4 6 -5 19q-1 37 -1 73q-2 50 -12 75q9 12 16 29q-6 14 -6 35v14
q1 9 1 13q0 28 -16 39v83q0 3 6 13t7 14q4 9 4 32q0 11 -4 17q-8 11 -12 21q-1 2 -2 2q-2 0 -2 -13q0 2 12.5 24.5t15.5 33.5q2 18 13 52q4 7 22 13q14 5 23 5q3 0 27 7.5t28 7.5q3 0 36 -2t36.5 -2t17 -3t17.5 -3q11 0 13.5 10.5t14.5 10.5q1 0 24 -2t35 -2q27 0 38 -1.5
t24 -7.5q4 -23 13 -90v-73zM245 680q0 23 -21 23q-9 0 -20.5 -12t-72.5 -78h25q29 15 74 41q15 8 15 26zM295 596h-68q-13 1 -17 -12q-3 -9 0 -24q14 -79 14 -113q0 -4 -3 -162q-1 -23 -6 -38t-32 -37.5t-41 -22.5q-42 0 -42 64q0 23 10 53q9 26 17 51q21 67 21 141
q0 20 -9 81q-3 19 -16 19h-63q-16 0 -16 -16q0 -2 11 -32q6 -16 13 -69q6 -48 6 -72q0 -36 -19 -103.5t-19 -102.5q0 -41 22 -67.5t59 -26.5q58 0 96 51v-21q0 -24 19 -24h55q21 0 21 23q0 -1 -4 27q-7 52 -7 76v169q0 94 12 137q4 15 4 25q0 26 -18 26z" />
    <glyph glyph-name="Ucircumflex" unicode="&#xdb;" horiz-adv-x="371" 
d="M371 556l-6 -246l-11 -98l-15 -110q0 -20 -1 -22q-2 -14 -11 -18q-2 -1 -5 -6.5t-6 -5.5q-1 0 -2.5 2t-9.5 1q-4 -1 -4 -2t-4 -1q-2 0 -27.5 5t-35.5 5q-27 2 -82 5q-28 0 -57 -1q-37 2 -60 18q-5 11 -17 30q-4 6 -5 19q-1 37 -1 73q-2 50 -12 75q9 12 16 29q-6 14 -6 35
v14q1 9 1 13q0 28 -16 39v83q0 3 6 13t7 14q4 9 4 32q0 11 -4 17q-8 11 -12 21q-1 2 -2 2q-2 0 -2 -13q0 2 12.5 24.5t15.5 33.5q2 18 13 52q4 7 22 13q14 5 23 5q3 0 27 7.5t28 7.5q3 0 36 -2t36.5 -2t17 -3t17.5 -3q11 0 13.5 10.5t14.5 10.5q1 0 24 -2t35 -2q-3 0 8 -1.5
t24 -7.5q4 -23 13 -90v-73zM232 627l-59 58q-8 16 -17 2q-17 -20 -57 -55q1 -1 2 -1q-9 0 -9 -10q0 -13 12 -13q8 0 60 41l55 -41q3 -2 7 -2q10 0 10 12q0 5 -4 9zM285 596l-68 1q-13 0 -17 -13q-3 -9 0 -24q14 -79 14 -113q0 -4 -3 -162q-1 -23 -6 -38t-32 -37.5t-41 -22.5
q-42 0 -42 65q0 22 10 52q8 26 17 51q21 67 21 141q0 20 -9 81q-3 19 -16 19h-63q-16 0 -16 -16q0 -2 11 -32q6 -16 13 -69q5 -48 5 -72q0 -36 -19 -103.5t-19 -102.5q0 -41 22.5 -67.5t59.5 -26.5q58 0 96 51v-21q0 -24 19 -24h55q21 0 21 23q0 -1 -4 27q-7 52 -7 76v169
q0 94 12 137q4 15 4 25q0 26 -18 26z" />
    <glyph glyph-name="Ugrave" unicode="&#xd9;" horiz-adv-x="383" 
d="M384 212l-15 -110q0 -20 -1 -22q-2 -14 -11 -18q-2 -1 -5 -6.5t-6 -5.5q-1 0 -2.5 2t-9.5 1q-19 -3 -38 -3q-2 0 -27.5 5t-35.5 5q-27 2 -82 5q-28 0 -57 -1q-37 2 -60 18q-5 11 -17 30q-4 6 -5 19q-1 37 -1 73q-2 50 -12 75q9 12 16 29q-6 14 -6 35v14q1 9 1 13
q0 28 -16 39v83q0 3 6 13t7 14q4 9 4 32q0 11 -4 17q-8 11 -12 21q-1 2 -2 2q-2 0 -2 -13q0 2 12.5 24.5t15.5 33.5q4 28 16 71q5 7 22 13q14 4 23 4q3 0 25.5 -1.5t26 -1.5t36.5 -2t36.5 -2t17 -3t17.5 -3q11 0 13.5 10.5t14.5 10.5q1 0 24 -2t35 -2q3 0 6.5 2t7.5 1
q11 -1 24 -8q4 -22 13 -89v-73l-6 -246zM215 590l-56 64q-7 9 -14.5 17t-18.5 8q-24 0 -24 -24q0 -17 15 -26l74 -42zM92 466q-50 -103 -50 -208q0 -67 26 -114q31 -57 88 -57q11 0 31 3t31 3q10 0 29.5 -4t29.5 -4q26 0 26 39q0 12 -4.5 35t-5.5 33q-5 72 -5 113q0 44 0 38
l16 196q3 25 -11 25q-4 0 -9 -2l-4 -1q-4 -2 -6 -2q-6 0 -16.5 2t-15.5 2q-37 0 -37 -59v-25l15 -273q2 -44 -24 -44q-19 0 -39 30q-19 27 -23 55q-6 36 -6 64q0 70 23 148q3 11 12 37q9 30 9 37q0 32 -36 32q-6 0 -17 -3t-17 -3q-2 0 -19 5t-26 0l-10 -6q9 -15 10 -19
q-1 -3 -7 -23q-6 -16 -6 -20q0 -31 35 -31l12 1h1z" />
    <glyph glyph-name="circumflex" unicode="&#x2c6;" horiz-adv-x="404" 
d="M298 727l-114 72l-114 -74l13 -11l98 33l104 -34z" />
    <glyph glyph-name="tilde" unicode="&#x2dc;" horiz-adv-x="541" 
d="M372 780q-20 -27 -51 -25q-19 1 -48.5 19t-44.5 19q-21 1 -42 -17t-30 -46h25q9 19 25 19q9 0 20 -5q39 -20 47 -23q24 -10 46 -12q40 -2 67 70z" />
    <glyph glyph-name="macron" unicode="&#xaf;" horiz-adv-x="343" 
d="M41 785h254v-46h-254v46z" />
    <glyph glyph-name="macron" unicode="&#x2c9;" horiz-adv-x="343" 
d="M41 785h254v-46h-254v46z" />
    <glyph glyph-name="cedilla" unicode="&#xb8;" horiz-adv-x="570" 
d="M222 60q77 -16 77 -44q0 -3 -1 -6q-3 -8 -24 -11q-19 -3 -27 2q0 -1 -10 8l-10 8l-13 -23q0 -36 50 -36q58 0 72 40q5 15 5 31q0 32 -19 53t-55 21q2 12 3 33q0 8 -16.5 10l-16.5 2q-21 -44 -15 -88z" />
    <glyph glyph-name="notequal" unicode="&#x2260;" horiz-adv-x="14" 
 />
    <glyph glyph-name="infinity" unicode="&#x221e;" horiz-adv-x="20" 
 />
    <glyph glyph-name="lessequal" unicode="&#x2264;" horiz-adv-x="458" 
d="M336 649l-98 -3l9 -250l-26 75q-27 76 -59 176l-99 -1q0 -87 2 -224q3 -186 3 -225h93v210l5 2l77 -208l44 -1h58q-8 91 -8 224q-1 113 -1 225zM466 105q1 -42 -59 -51q-13 -2 -97 -2q-31 0 -96.5 7t-98.5 7q-60 0 -83 28q-17 21 -17 68q0 11 1 35.5t1 37.5q0 28 -13 70
t-13 70.5t-15 39.5v83q0 3 8.5 25t8.5 35q0 8 -10 31t-10 46q16 28 16 52q0 20 -12 39.5t-12 20.5q0 9 74 9q16 0 90.5 7t93.5 7q13 0 35 14.5t35 14.5q102 0 132 -32q23 -24 23 -98v-20v-22q0 -30 1 -54q-8 -64 -8 -145q0 -154 25 -323zM221 759l-83 -88l49 -1l141 89h-107
z" />
    <glyph glyph-name="greaterequal" unicode="&#x2265;" horiz-adv-x="400" 
d="M345 125v52q0 108 -23 174q-4 10 -19 24t-15 16q0 4 12.5 15.5t14.5 15.5q15 27 17 40v29q0 78 -32.5 110t-113.5 32l-134 -4q-2 -2 -6 -7q-1 -5 2 -79q4 -83 4 -79v-69l19 -273h84q10 5 10 14v198q7 9 25 9q44 0 50 -55q1 -43 3 -86q1 -28 12 -73q7 -4 30 -4h26.5h33.5z
M231 486q0 -32 -7 -45q-10 -20 -41 -20q-24 0 -24 21q0 42 -1.5 66.5t-1.5 21.5q0 16 5 21.5t23 5.5q47 0 47 -71zM392 593l9 -22q-12 -26 -12 -72l9 -13q-10 -19 -22 -61q12 -29 12 -56q0 -8 -1.5 -27.5t-1.5 -32.5q0 -8 3 -40q2 -20 -2 -41q12 -16 21 -46q-14 -29 -16 -40
v-41q0 -8 -5 -32t-5 -36q0 -69 -93 -69q-20 0 -56 3.5t-48 2.5q-21 0 -76 -7q-48 -5 -75 -5q-35 0 -35 33q0 21 6.5 62.5t6.5 61.5t-9.5 44.5t-9.5 28.5q0 31 13 40q-1 35 8 106q10 76 10 106q0 39 -9 134q-9 86 -6 134l-4 4l10 4l-9 29q7 16 25 45h18l1 -14l5 -4
q10 0 34 -4q21 -3 33 -3q8 0 41.5 6.5t34.5 6.5l183 -32q-1 3 -1 6q-3 7 -3 10q0 2 2 3q21 -16 31 -25q-3 -13 -6 -77q-2 -57 -11 -70zM209 746l-86 -90l49 -1l134 94z" />
    <glyph glyph-name="partialdiff" unicode="&#x2202;" horiz-adv-x="445" 
d="M459 178q0 -2 -12.5 -25t-15.5 -34q-2 -19 -13 -53q-4 -7 -22 -13q-14 -5 -23 -5q-4 0 -31 3t-31 3q-3 0 -33.5 -8.5t-33.5 -8.5t-17 3t-18 3q-11 0 -34.5 -14.5t-35.5 -14.5q-2 0 -25 2t-35 2q-3 0 -12.5 4.5t-14.5 5.5q13 -2 13 3q0 1 -3 1q-19 10 -39 31
q-28 30 -31 59v124l5 249l12 100l15 110q0 21 1 23q2 14 11 18q30 12 41 12q-1 0 18 -2q16 -2 25 -1q2 1 16 3q11 3 16 3q2 0 27.5 -5t35.5 -5q27 -2 83 -5q29 0 57 1q38 -2 61 -19q5 -11 17 -29q5 -6 5 -20q1 -15 -9 -65t-10 -73q0 -17 4 -28q5 -4 12 -12q6 -14 6 -36v-14
v-13q0 -29 15 -40v-83q0 -4 -5 -12q-7 -12 -8 -15q-4 -10 -4 -33q0 -11 5 -17q8 -11 11.5 -20.5t3.5 -39.5zM299 216q-12 -9 -22 -9h-45q-19 0 -24 13q-3 7 -3 30v164q26 29 53 58q2 0 10 66l-63 -67v81q0 29 8 44t37 30q-56 22 -99 22q-45 0 -80 -26q8 -9 20 -22
q16 -19 16 -49v-183l-37 -39v-36l8 -1q2 -8 4 -6l1 1l3 2l7 8l14 14v-66q0 -42 -41 -90h315q9 79 29 143q-36 -13 -61.5 -36.5t-49.5 -45.5z" />
    <glyph glyph-name="summation" unicode="&#x2211;" horiz-adv-x="453" 
d="M459 529l-5 -249l-12 -100l-15 -110q0 -21 -1 -23q-2 -14 -11 -18q-30 -12 -41 -12q1 0 -16.5 2t-26.5 1q-2 0 -14.5 -3t-17.5 -3q-2 0 -27.5 5t-35.5 5q-27 2 -83 5q-29 0 -57 -1q-38 2 -61 19q-6 11 -17 29q-5 6 -5 20q-1 15 9 65t10 73q0 17 -4 28q-5 4 -12 12
q-7 14 -7 36q0 5 1 14v13q0 29 -15 40v83q0 4 5 12q7 12 8 15q4 10 4 33q0 11 -5 17q-8 11 -11.5 21t-3.5 39q0 3 12.5 25.5t14.5 33.5q3 19 14 53q4 7 22 13q14 5 23 5q4 0 31 -3t31 -3q3 0 33.5 8.5t33.5 8.5t17 -3t18 -3q11 0 34.5 14.5t35.5 14.5q2 0 25 -2t35 -2
q3 0 12.5 -4.5t13.5 -5.5q-12 2 -12 -3q0 -1 3 -1q19 -10 39 -31q28 -30 31 -59v-124zM288 663q0 1 -1 1q9 0 9 10q0 13 -12 13q-8 0 -60 -29l-55 29q-3 1 -7 1q-10 0 -10 -11q0 -5 4 -9l58 -58q9 -16 18 -2q17 20 56 55zM207 433q-70 22 -70 64q0 33 28 33q15 0 45 -21
q35 -24 66 -24q25 0 44 18t19 46q0 12 -7 30t-17 18q-3 0 -8 -3q-17 -9 -27 -9q-14 0 -42 8t-42 8q-51 0 -79.5 -37.5t-28.5 -94.5q0 -98 88 -144q10 -6 68 -26q42 -15 64 -38q17 -19 17 -40q0 -43 -35 -43q-22 0 -61 28q-44 30 -70 30q-75 0 -75 -72q0 -13 9 -34
q11 -24 20 -24q-1 0 21 12q18 9 33 9q16 0 49.5 -12.5t49.5 -12.5q51 0 82 50q26 44 26 103q0 84 -47 124q-30 26 -120 54z" />
    <glyph glyph-name="product" unicode="&#x220f;" horiz-adv-x="451" 
d="M459 529l-5 -249l-12 -100l-15 -110q0 -21 -1 -23q-2 -14 -11 -18q-30 -12 -41 -12q1 0 -16.5 2t-26.5 1q-2 0 -14.5 -3t-17.5 -3q-2 0 -27.5 5t-35.5 5q-27 2 -83 5q-29 0 -57 -1q-38 2 -61 19q-6 11 -17 29q-5 6 -5 20q-1 15 9 65t10 73q0 17 -4 28q-5 4 -12 12
q-7 14 -7 36q0 5 1 14v13q0 29 -15 40v83q0 4 5 12q7 12 8 15q4 10 4 33q0 11 -5 17q-8 11 -11.5 21t-3.5 39q0 3 12.5 25.5t14.5 33.5q3 19 14 53q4 7 22 13q14 5 23 5q4 0 31 -3t31 -3q3 0 33.5 8.5t33.5 8.5t17 -3t18 -3q11 0 34.5 14.5t35.5 14.5q2 0 25 -2t35 -2
q3 0 12.5 -4.5t13.5 -5.5q-12 2 -12 -3q0 -1 3 -1q19 -10 39 -31q28 -30 31 -59v-124zM301 682q9 10 1 12q-8 3 -12 -3q-23 -10 -67 -31l-68 32q-3 2 -7 2q-8 0 -8 -7q0 -3 4 -7q17 -14 33 -28q34 -27 46 -29q24 2 78 59zM363 265q0 71 -50 112q-10 9 -91 53q-49 26 -49 62
q0 58 48 58q40 0 77 -56l35 94q-21 -8 -24 -8q-12 0 -39 9.5t-42 9.5q-50 0 -86 -23q-45 -29 -45 -83q0 -48 49 -81q45 -26 91 -52q49 -34 49 -81q0 -37 -21.5 -59t-53.5 -22q-31 0 -50 15q-23 18 -23 52q0 26 10.5 38.5t21.5 25.5q-11 9 -23 9q-37 0 -60.5 -27.5
t-23.5 -70.5q0 -65 50 -101q42 -31 101 -31q62 0 105.5 43t43.5 114z" />
    <glyph glyph-name="pi" unicode="&#x3c0;" horiz-adv-x="404" 
d="M409 529l-5 -249l-12 -100l-15 -110q0 -21 -1 -23q-2 -14 -11 -18q-30 -12 -41 -12q-2 0 7 2v1q-2 0 -14.5 -3t-17.5 -3q-2 0 -27.5 5t-35.5 5q-27 2 -83 5q-29 0 -57 -1q-38 2 -61 19q-6 11 -17 29q-5 6 -5 20q-1 15 9 65t10 73q0 17 -4 28q-5 4 -12 12q-7 14 -7 36
q0 5 1 14v13q0 29 -15 40v83q0 4 5 12q7 12 8 15q4 10 4 33q0 11 -5 17q-8 11 -11.5 21t-3.5 39q0 3 12.5 25.5t14.5 33.5q3 19 14 53q4 7 22 13q14 5 23 5q4 0 31 -3t31 -3q3 0 33.5 8.5t33.5 8.5t17 -3t18 -3q11 0 34.5 14.5t35.5 14.5q2 0 1 -1q-2 -1 -1 -2t10 -1t45 -37
q39 -42 42 -67q2 -21 0 -124zM248 670q0 24 -24 24q-11 0 -18.5 -8.5t-14.5 -17.5l-56 -64l24 -3l74 43q15 8 15 26zM294 576q-8 0 -23 -4t-22 -4q-11 0 -25 2q-8 2 -41 8q9 -15 9 -19q-1 -17 -5.5 -31t-4.5 -22q0 -28 22 -28q6 0 26 1q1 -2 1 -5q0 -48 -40 -104
q-3 -3 -8 -12l-2 -6q-11 0 -37 141l-4 42q-5 27 -17 36q-7 5 -16 5q-7 0 -20 -3t-20 -3q-2 0 -5.5 1t-17.5 4q-2 -15 -2 -21q0 -34 14 -80q12 -39 25 -77q3 -14 31 -76q21 -48 21 -71q0 -19 -7 -58t-7 -59q0 -37 45 -37q9 0 28 3.5t28 3.5q4 0 19 -1t27 -1q-4 14 -4 19
q0 7 4.5 21.5t4.5 22.5q0 36 -46 36q-2 0 -6.5 -1.5t-6.5 -1.5q-3 0 -7 6t-4 12q0 33 5 45l72 130q41 78 41 141q0 45 -25 45z" />
    <glyph glyph-name="integral" unicode="&#x222b;" horiz-adv-x="453" 
d="M459 529l-5 -249l-12 -100l-15 -110q0 -21 -1 -23q-2 -14 -11 -18q-30 -12 -41 -12q1 0 -16.5 2t-26.5 1q-2 0 -14.5 -3t-17.5 -3q-2 0 -27.5 5t-35.5 5q-27 2 -83 5q-29 0 -57 -1q-38 2 -61 19q-6 11 -17 29q-5 6 -5 20q-1 15 9 65t10 73q0 17 -4 28q-5 4 -12 12
q-7 14 -7 36q0 5 1 14v13q0 29 -15 40v83q0 4 5 12q7 12 8 15q4 10 4 33q0 11 -5 17q-8 11 -11.5 21t-3.5 39q0 3 12.5 25.5t14.5 33.5q3 19 14 53q4 7 22 13q14 5 23 5q4 0 31 -3t31 -3q3 0 33.5 8.5t33.5 8.5t17 -3t18 -3q11 0 34.5 14.5t35.5 14.5q2 0 25 -2t35 -2
q3 0 12.5 -4.5t13.5 -5.5q-12 2 -12 -3q0 -1 3 -1q19 -10 39 -31q28 -30 31 -59v-124zM331 698h-76q3 -3 -20 -36q-17 -13 -38 -34l26 4q45 7 69 22q9 6 39 44zM257 420q-59 118 -59 137q0 10 12 19q2 1 18 13q-40 20 -91 20q-71 0 -93 -33q29 -10 84 -104t55 -127v-143
q0 -54 -47 -88l191 1q-48 35 -48 85v153q0 7 46.5 95.5t56.5 102.5q16 23 52 33q-33 23 -71 23q-29 0 -67 -17l17 -13q11 -10 11 -18q0 -12 -30 -71q-14 -26 -37 -68z" />
    <glyph glyph-name="Omega" unicode="&#x3a9;" horiz-adv-x="608" 
d="M607 527l-5 -246l-12 -98l-14 -110q-1 -20 -1 -22q-2 -14 -12 -18q-2 -1 -4.5 -6.5t-5.5 -5.5q-1 0 -2.5 2t-10.5 1q-4 -1 -118.5 -4t-121.5 -3q-3 0 -28.5 5t-34.5 5q-27 2 -83 5q-28 -1 -56 -1q-38 2 -60 18q-6 11 -17 29q-5 6 -5 20q-1 36 -2 73q-1 49 -11 75
q9 12 16 28q-6 14 -6 36v13.5v13.5q0 28 -15 39v83q0 3 6 13t7 13q4 10 4 32q0 11 -5 18q-8 11 -11.5 20.5t-3.5 38.5q0 2 12.5 24.5t14.5 34.5q3 18 14 51q4 8 20 13t24 5q4 0 31 -2.5t31 -2.5q3 0 33 8.5t33 8.5t17 -3t17 -3q12 0 35.5 14t34.5 14q2 0 25 -2t34 -2
q3 0 0 -3q-5 -4 -5 -5t2 -1q-13 1 -13 -3q1 -1 4 -2l128 -30q117 -30 120 -58v-123zM494 110l-3 104q0 -3 -119 1q-87 2 -134 73h157v57h-180q-3 15 -3 30q0 17 3 34h180v56h-156q50 74 133 70l113 -4l-2 95h-116q-77 0 -139.5 -44.5t-90.5 -116.5h-65v-56h50q-3 -20 -3 -41
q0 -11 1 -23h-48v-57h60q24 -79 89 -128.5t146 -49.5h127z" />
    <glyph glyph-name="Omega" unicode="&#x2126;" horiz-adv-x="608" 
d="M607 527l-5 -246l-12 -98l-14 -110q-1 -20 -1 -22q-2 -14 -12 -18q-2 -1 -4.5 -6.5t-5.5 -5.5q-1 0 -2.5 2t-10.5 1q-4 -1 -118.5 -4t-121.5 -3q-3 0 -28.5 5t-34.5 5q-27 2 -83 5q-28 -1 -56 -1q-38 2 -60 18q-6 11 -17 29q-5 6 -5 20q-1 36 -2 73q-1 49 -11 75
q9 12 16 28q-6 14 -6 36v13.5v13.5q0 28 -15 39v83q0 3 6 13t7 13q4 10 4 32q0 11 -5 18q-8 11 -11.5 20.5t-3.5 38.5q0 2 12.5 24.5t14.5 34.5q3 18 14 51q4 8 20 13t24 5q4 0 31 -2.5t31 -2.5q3 0 33 8.5t33 8.5t17 -3t17 -3q12 0 35.5 14t34.5 14q2 0 25 -2t34 -2
q3 0 0 -3q-5 -4 -5 -5t2 -1q-13 1 -13 -3q1 -1 4 -2l128 -30q117 -30 120 -58v-123zM494 110l-3 104q0 -3 -119 1q-87 2 -134 73h157v57h-180q-3 15 -3 30q0 17 3 34h180v56h-156q50 74 133 70l113 -4l-2 95h-116q-77 0 -139.5 -44.5t-90.5 -116.5h-65v-56h50q-3 -20 -3 -41
q0 -11 1 -23h-48v-57h60q24 -79 89 -128.5t146 -49.5h127z" />
    <glyph glyph-name="radical" unicode="&#x221a;" horiz-adv-x="391" 
d="M173 316l7 53q1 4 7.5 36t7.5 43l2 48q5 45 20 83l50 -263h-94zM363 194l-101 458q-41 0 -97 -1q-4 1 -9 2q-17 -71 -35 -192q-23 -162 -32 -210q-31 23 -32 53q0 8 2 23.5t2 22.5q0 12 -9 27.5t-9 26.5t6 24q-4 18 -2 44q-13 17 -12 52q-10 16 -27 50l-18 8l-14 34
l14 34q-8 15 -8 60q0 -3 -14 38q8 6 6 16q0 3 -2 17q83 8 193 12q91 2 182 5q37 1 53 -17q13 -16 13 -51q-1 -12 -1 -35q-1 -68 -4 -239q-3 -152 -3 -238q0 -16 4.5 -47t4.5 -46q0 -20 -12 -43q-5 -9 -5 -15q0 -5 6.5 -13.5t6.5 -19.5q0 10 -8 -43q-46 -9 -47 -9
q-136 0 -247 33l-18 31v127q13 11 25 13q3 1 27 1q5 0 8 -1q3 21 6 43t12 43q79 3 107 3q7 -10 12 -28q7 -23 8 -26q-26 0 -52 -29q-29 -32 -29 -73q0 -43 29 -68t69 -25q22 0 46 22t24 44q0 17 -18 17q-11 0 -15 -11q-15 -38 -37 -38q-46 0 -46 59q0 76 44 76q22 0 53 -1z
" />
    <glyph glyph-name="approxequal" unicode="&#x2248;" horiz-adv-x="403" 
d="M420 241q0 -29 -23 -96q-6 -7 -12 -20q1 -15 -5 -42q-11 -18 -38 -18q-3 0 -13.5 3t-14.5 3q-30 0 -116 -15q-1 0 -9.5 -5t-12.5 -5q-80 0 -117 -1q-3 -1 -9 -4q-3 1 -24 -1q-14 -2 -22 6l-3 172q7 0 7 85q0 101 -9 289q-8 173 -10 173l342 1q14 -4 21 -15q-9 -47 -1 -66
q11 -27 9 -65q0 -1 -3 -10q-2 -7 0 -12q12 -31 12 -41q0 -13 -8 -24v-75q9 -8 22 -25q-3 -7 -4 -22q4 -28 25 -88q16 -49 16 -82zM222 668q0 19 -12 32t-29 13q-18 0 -30 -13t-12 -32q0 -18 12 -31.5t30 -13.5q17 0 29 13.5t12 31.5zM297 143v82q-107 0 -140 -1l68 153
l69 169l-1 42l-225 1v-73h125l-136 -281v-91z" />
    <glyph glyph-name="approxequal" unicode="&#x22f2;" horiz-adv-x="403" 
d="M420 241q0 -29 -23 -96q-6 -7 -12 -20q1 -15 -5 -42q-11 -18 -38 -18q-3 0 -13.5 3t-14.5 3q-30 0 -116 -15q-1 0 -9.5 -5t-12.5 -5q-80 0 -117 -1q-3 -1 -9 -4q-3 1 -24 -1q-14 -2 -22 6l-3 172q7 0 7 85q0 101 -9 289q-8 173 -10 173l342 1q14 -4 21 -15q-9 -47 -1 -66
q11 -27 9 -65q0 -1 -3 -10q-2 -7 0 -12q12 -31 12 -41q0 -13 -8 -24v-75q9 -8 22 -25q-3 -7 -4 -22q4 -28 25 -88q16 -49 16 -82zM222 668q0 19 -12 32t-29 13q-18 0 -30 -13t-12 -32q0 -18 12 -31.5t30 -13.5q17 0 29 13.5t12 31.5zM297 143v82q-107 0 -140 -1l68 153
l69 169l-1 42l-225 1v-73h125l-136 -281v-91z" />
    <glyph glyph-name="Delta" unicode="&#x394;" horiz-adv-x="403" 
d="M420 241q0 -29 -23 -96q-6 -7 -12 -20q1 -15 -5 -42q-11 -18 -38 -18q-3 0 -13.5 3t-14.5 3q-30 0 -116 -15q-1 0 -9.5 -5t-12.5 -5q-80 0 -117 -1q-3 -1 -9 -4q-3 1 -24 -1q-14 -2 -22 6l-3 172q7 0 7 85q0 101 -9 289q-8 173 -10 173l342 1q14 -4 21 -15q-9 -47 -1 -66
q11 -27 9 -65q0 -1 -3 -10q-2 -7 0 -12q12 -31 12 -41q0 -13 -8 -24v-75q9 -8 22 -25q-3 -7 -4 -22q4 -28 25 -88q16 -49 16 -82zM297 143v82q-107 0 -140 -1l68 153l69 169l-1 42l-225 1v-73h125l-136 -281v-91zM212 715l-81 -92l42 -1l134 93h-95z" />
    <glyph glyph-name="Delta" unicode="&#x2206;" horiz-adv-x="403" 
d="M420 241q0 -29 -23 -96q-6 -7 -12 -20q1 -15 -5 -42q-11 -18 -38 -18q-3 0 -13.5 3t-14.5 3q-30 0 -116 -15q-1 0 -9.5 -5t-12.5 -5q-80 0 -117 -1q-3 -1 -9 -4q-3 1 -24 -1q-14 -2 -22 6l-3 172q7 0 7 85q0 101 -9 289q-8 173 -10 173l342 1q14 -4 21 -15q-9 -47 -1 -66
q11 -27 9 -65q0 -1 -3 -10q-2 -7 0 -12q12 -31 12 -41q0 -13 -8 -24v-75q9 -8 22 -25q-3 -7 -4 -22q4 -28 25 -88q16 -49 16 -82zM297 143v82q-107 0 -140 -1l68 153l69 169l-1 42l-225 1v-73h125l-136 -281v-91zM212 715l-81 -92l42 -1l134 93h-95z" />
    <glyph glyph-name="lozenge" unicode="&#x25ca;" horiz-adv-x="407" 
d="M199 225l66 149l-64 146l-66 -145zM407 527l-5 -246l-12 -98l-14 -110q-1 -20 -1 -22q-2 -14 -12 -18q-2 -1 -4.5 -6.5t-5.5 -5.5q-1 0 -2.5 2t-10.5 1q-50 -7 -70 -7q-3 0 -28.5 5t-34.5 5q-27 2 -83 5q-20 -1 -41 -1q-23 2 -45 18q-6 11 -17 29q-5 6 -5 20q-1 36 -2 73
q-1 49 -11 75q9 12 16 28q-6 14 -6 36v13.5v13.5q0 28 -15 39v83q0 3 6 13t7 13q4 10 4 32q0 11 -5 18q-8 11 -11.5 20.5t-3.5 38.5q0 2 12.5 24.5t14.5 34.5q3 18 14 51q4 8 20 13t24 5q4 0 16 -2.5t16 -2.5q3 0 33 8.5t33 8.5t17 -3t17 -3q12 0 35.5 14t34.5 14q2 0 1 -1
q-2 -1 -1 -2t9 -1q3 0 0 -3q-5 -4 -5 -5t2 -1q13 -1 41 -5q22 -11 43 -30q32 -29 35 -58v-123z" />
    <glyph glyph-name="fraction" unicode="&#x2044;" horiz-adv-x="460" 
d="M486 618q0 -3 -14 -31.5t-12 -58.5q1 -3 -13.5 -15.5t-15.5 -15.5q-2 -5 5 -28q7 -26 7 -27q0 1 -9 -20.5t-8 -37.5q6 -11 18 -31q0 -11 2 -32q5 -7 14 -21q0 -7 3 -20q1 -3 1 -7q0 -8 -10.5 -27t-7.5 -27q4 -19 8 -37q5 -23 16 -33q-4 -7 -5 -15q0 -12 -1 -15
q-4 -3 -9 -12q-3 -17 -3 -40v-9q0 -24 -7 -32q-9 -11 -39 -11l-16 5t-36 4q-27 -2 -61 3q-37 5 -34 5l-130 -20q-4 0 -27.5 19.5t-27.5 19.5q-23 0 -47 17q-4 3 -4 19q0 47 14 81q1 4 -23 37q21 15 21 29q0 7 -12.5 21t-14.5 22q-4 16 7.5 56.5t9.5 57.5q-7 6 -14 20t-14 43
q-11 90 -11 114q0 117 11 143q7 18 32 18q-14 0 51 2q59 2 109 1q70 -2 117 -8q23 -3 58 -3h26q46 0 77 -5q3 -3 11 -47.5t8 -50.5zM398 216q0 68 -52 68q-17 0 -27 -8q3 -16 3 -40q0 -97 -44 -97q-64 0 -64 151v116q0 36 13 79q17 57 43 57q51 0 51 -97q0 -8 -2 -45l16 -6
q58 0 58 68q0 23 -6 68t-6 68q-27 -22 -35 -22t-45 17t-41 17q-163 0 -178 -232q-45 1 -45 -66q0 -39 -2 -33q6 24 24 24q20 0 35 -64q19 -85 37 -117q37 -63 110 -63q19 0 50 14.5t46 14.5q9 0 22 -6.5t18 -7.5q2 20 12 71q9 45 9 71zM135 705l113 -73l114 74l-12 11
l-99 -33l-103 35z" />
    <glyph glyph-name="fi" unicode="&#xf001;" horiz-adv-x="5" 
 />
    <glyph glyph-name="fl" unicode="&#xf002;" horiz-adv-x="5" 
 />
    <glyph glyph-name="apple" unicode="&#xf000;" horiz-adv-x="14" 
 />
    <glyph glyph-name="dotlessi" unicode="&#x131;" horiz-adv-x="225" 
d="M117 679q12 -1 77 4q10 -12 18 -25q18 -31 21 -63v-26l-6 -283l-21 -104l22 -123q-1 -10 -17 -32t-28 -27q-8 -3 -12 -3q-3 0 -5 3t-5 3q2 0 -15.5 -2t-37.5 -1q-15 0 -31 1q-7 2 -35 23q-6 12 -19 33q-6 7 -7 23q0 42 -1 84q-2 57 -13 86q10 14 18 33q-7 16 -7 41v15.5
v15.5q0 32 -17 45v95q0 4 6.5 15t8.5 16t1 14l-2 13q0 7 -4 9.5t-9 13.5q-3 8 -1 20q1 20 1 17q0 21 7 53q1 6 10 6q3 0 12 -1.5t14 -1.5q11 0 15 7q2 0 29 2t33 1zM164 124q0 32 -3 92q-4 66 -4 91q0 15 6 170q1 14 -7 17q-3 2 -7 1h-52q-7 -1 -12.5 -2.5t-5.5 -14.5
q0 -28 5 -87q5 -62 5 -84q1 -28 -4 -92q-5 -68 -5 -91q0 -20 12 -22h63q9 -1 9 22zM24 613l96 -83l97 86l-15 12l-78 -38l-85 40z" />
    <glyph glyph-name="breve" unicode="&#x2d8;" horiz-adv-x="346" 
d="M268 820q0 -40 -37.5 -64.5t-85.5 -24.5t-83 24q-39 25 -39 65q0 20 20 20t20 -18.5t22.5 -34.5t59.5 -16t60 16t23 34.5t20 18.5t20 -20z" />
    <glyph glyph-name="dotaccent" unicode="&#x2d9;" horiz-adv-x="356" 
d="M135 752q0 18 14 31t34 13q19 0 33 -13t14 -31q0 -19 -14 -32t-33 -13q-20 0 -34 13t-14 32z" />
    <glyph glyph-name="ring" unicode="&#x2da;" horiz-adv-x="376" 
d="M235 678q-2 20 -24.5 34.5t-41.5 12.5q-20 -2 -38 -17q-21 -17 -19 -37q1 -20 24 -34t42 -12q20 1 39.5 18t17.5 35zM200 677q1 -7 -8.5 -12.5t-16.5 -6.5t-16 5.5t-10 13.5q-1 14 23 16q7 1 17 -4.5t11 -11.5z" />
    <glyph glyph-name="hungarumlaut" unicode="&#x2dd;" 
d="M240 753q-57 -93 -54 -93h30q0 3 81 93q-57 -3 -57 0zM159 753q-42 -93 -39 -93h26q0 3 66 93q-53 -3 -53 0z" />
    <glyph glyph-name="ogonek" unicode="&#x2db;" horiz-adv-x="346" 
d="M181 -198q-80 0 -80 94q0 46 19.5 75t56.5 29q17 0 17 -17t-17 -17q-42 0 -42 -70q0 -60 46 -60q22 0 36 38q5 11 16 11q17 0 17 -16q0 -22 -23.5 -44.5t-45.5 -22.5z" />
    <glyph glyph-name="caron" unicode="&#x2c7;" horiz-adv-x="404" 
d="M70 785l114 -72l114 74l-13 11l-99 -33l-103 34z" />
  </font>
</defs>
</svg>
