<?xml version="1.0" standalone="no"?>
<!DOCTYPE svg PUBLIC "-//W3C//DTD SVG 1.1//EN" "http://www.w3.org/Graphics/SVG/1.1/DTD/svg11.dtd" >
<svg>
<metadata>
Created by FontForge 20120731 at Wed Apr 17 21:32:45 2019
 By www-data
Digitized by Dan X. Solo. Software (c)2000 by Dover Publications, Inc., New York.
</metadata>
<defs>
<font id="VersatileScript" horiz-adv-x="20" >
  <font-face 
    font-family="Versatile Script"
    font-weight="400"
    font-stretch="normal"
    units-per-em="1000"
    panose-1="0 0 4 0 0 0 0 0 0 0"
    ascent="800"
    descent="-200"
    x-height="318"
    cap-height="690"
    bbox="-100 -333 877 817"
    underline-thickness="20"
    underline-position="-123"
    unicode-range="U+0020-F002"
  />
<missing-glyph horiz-adv-x="500" 
d="M63 0v800h375v-800h-375zM125 63h250v675h-250v-675z" />
    <glyph glyph-name=".notdef" horiz-adv-x="500" 
d="M63 0v800h375v-800h-375zM125 63h250v675h-250v-675z" />
    <glyph glyph-name="glyph1" horiz-adv-x="0" 
 />
    <glyph glyph-name="glyph2" horiz-adv-x="216" 
 />
    <glyph glyph-name="space" unicode=" " horiz-adv-x="216" 
 />
    <glyph glyph-name="exclam" unicode="!" horiz-adv-x="386" 
d="M386 753l-286 -577q-6 0 -13.5 8.5t-8.5 16.5l275 591q9 -2 21 -15.5t12 -23.5zM78 46q0 -17 -33 -49q-31 -28 -36 -27q-4 4 -4 10q0 14 17 48q20 38 34 38q7 0 14.5 -7t7.5 -13z" />
    <glyph glyph-name="quotedbl" unicode="&#x22;" horiz-adv-x="215" 
d="M184 692q8 -1 18 -6t8 -11l-65 -208q-5 -14 -16 -13q-17 2 -13 16l52 209q4 14 16 13zM84 692q7 -1 14 -6t6 -11l-59 -208q-4 -14 -16 -13q-17 2 -13 16l52 209q4 14 16 13z" />
    <glyph glyph-name="numbersign" unicode="#" horiz-adv-x="495" 
d="M348 358l-117 3l-88 -177l122 -4zM461 354l-75 3q-48 -91 -91 -178l114 -4l-14 -25l-114 1q-59 -120 -88 -192q-15 1 -17 29l76 164l-124 2l-88 -178q-6 0 -13.5 8.5t-8.5 16.5l71 153l-83 1l28 32l70 -2l83 178l-101 3l15 26l99 -1l93 201q9 -2 21 -15.5t12 -23.5
l-81 -162l118 -1l80 172q9 -2 21 -15.5t12 -23.5q-33 -57 -73 -134h81z" />
    <glyph glyph-name="dollar" unicode="$" horiz-adv-x="590" 
d="M537 319q0 -29 -86 -95q-30 -21 -59 -42q-35 -26 -54 -50q-11 -15 -33 -98q-20 -73 -31 -116q8 -5 25 -15q2 -5 2 -10q0 -25 -37 -65h-11q-10 27 -10 36q0 3 2.5 13.5t2.5 14.5q0 71 39 205q-2 2 -6 2q-5 0 -50 -25t-82 -25q-39 0 -39 24q0 19 56 63q53 41 66 42h11v-11
q0 -6 -29 -31q-21 -18 -41 -36v-8q-2 -2 5 -2q25 0 69 22q48 24 58 47q9 20 17 64q6 34 6 46q0 14 -12 14q-23 0 -94 -30t-79 -30q-3 0 -17.5 -1.5t-18.5 -1.5q-51 0 -51 23q0 8 67 56q64 43 127 85q78 53 125 104q26 29 37 88q1 1 8 54q3 23 14 41q5 11 21 11q5 0 18 -8.5
t13 -15.5v-33q-28 6 -37 -24q-57 -198 -58 -227v-19l6 -6q63 16 88 16q52 0 52 -46zM483 324h-20q-19 1 -80 -11q-5 -1 -19 -41.5t-13 -60.5v-13q98 57 132 126zM366 408v17q-107 -66 -214 -143q-4 -3 -4 -11l14 -4q46 21 105 37q28 6 64 18q15 11 22 36q4 18 7 37q6 7 6 13
z" />
    <glyph glyph-name="percent" unicode="%" horiz-adv-x="481" 
d="M25 9q-3 -3 -8 -3q-8 0 -14 22l377 430q-48 -27 -83 -43q-27 -50 -99 -97t-127 -47q-22 0 -37.5 12.5t-15.5 33.5q0 60 57 141q54 77 111 110l7 -23q-52 -33 -98 -100q-49 -72 -49 -127q0 -16 32 -16t91 33q56 32 86 63q-50 -18 -79 -18q-32 0 -44.5 11t-11.5 41
q1 40 41.5 83t80.5 43q34 0 52 -26.5t18 -61.5q0 -13 -3 -25q25 15 77 42q22 10 44 32q5 0 11 2t20 0q-10 -25 -207 -254q-192 -223 -229 -258zM245 530q-51 0 -81 -49q-17 -27 -17 -47q0 -26 13 -27q55 -2 117 23q14 26 14 47t-13.5 37t-32.5 16zM299 219q-36 -33 -69 -104
q-21 -44 -21 -63q0 -7 8.5 -11.5t14.5 -4.5h9q16 0 86 31q24 11 74 58q46 43 46 85q0 11 -4 20.5t-14 26.5q-6 7 -22 7q-51 0 -81 -49q-7 -15 -25 -49h-13v12q0 20 11 41zM233 5q-53 0 -53 46q0 3 7 24q3 12 8 31q9 40 58 104q56 71 98 71q5 0 8 -2q25 13 46 13q33 0 54 -31
q17 -26 17 -52q0 -76 -96 -144q-85 -60 -147 -60z" />
    <glyph glyph-name="ampersand" unicode="&#x26;" horiz-adv-x="628" 
d="M590 305q0 -29 -51 -64q-35 -20 -70 -41l-58 -30q-42 -24 -57 -57q0 -1 -40 -119q-19 -57 -51 -71q48 170 48 164q0 15 -7 15q-8 0 -89.5 -36.5t-98.5 -36.5h-45q-31 0 -50 16.5t-19 43.5q0 17 8 30q1 3 23 31q18 24 85 100q55 61 80 103q-4 2 -11 0q-11 -1 -13 -1
q-23 0 -23 18q0 30 67 94q54 53 77 65q2 2 24 2q5 0 3 -4q-1 -5 0 -6q2 5 5 10q1 4 -6 8v4q8 6 43 23q30 13 42 27q5 6 22 58q15 45 35 52v-18q0 -3 -5 -26q-6 -26 -7 -40q3 -4 8 -13q1 -3 1 -7q0 -6 -4 -14q-3 -4 -5 -9q-11 -10 -51 -26q-44 -19 -65 -33q-35 -24 -48 -57
q2 -2 10 -2q16 0 51 18q23 14 46 27q10 5 35 11q4 -4 4 -13q0 -25 -70 -71q-36 -21 -73 -43q-12 -7 -33 -23q-38 -31 -118 -125q-101 -117 -101 -155q0 -22 18 -22h12q35 0 133 36q86 32 107 45q8 11 27 28q18 7 54 27q-1 5 -1 10q0 43 67 90q62 44 106 44q29 0 29 -37z
M556 308h-24q-15 0 -48 -24q-27 -19 -34.5 -30t-19.5 -32h16q90 50 110 86z" />
    <glyph glyph-name="quotesingle" unicode="'" horiz-adv-x="127" 
d="M87 689q6 -1 17 -14.5t9 -19.5q-56 -98 -65 -190q-5 -15 -16 -14q-17 2 -13 17l52 208q3 14 16 13z" />
    <glyph glyph-name="parenleft" unicode="(" horiz-adv-x="548" 
d="M521 508q-107 -1 -205 -40q-119 -47 -193 -142q-11 -15 -24 -52.5t-13 -54.5q0 -60 55.5 -108.5t145.5 -71.5q109 -27 141 -44q-1 -15 -29 -15q-4 0 -14.5 2t-14.5 3q-15 3 -43 7q-87 6 -178 70q-96 68 -96 140q0 64 45 134.5t115 108.5q3 2 2 4q37 25 87 50.5t169 37.5
q-3 -4 -3 -7q3 -2 7 -2t8.5 5t8.5 5q9 0 18 -9t11 -21z" />
    <glyph glyph-name="parenright" unicode=")" horiz-adv-x="515" 
d="M473 433q0 -63 -35 -117q-68 -106 -265 -242q-106 -74 -178 -94q12 26 76 69q54 35 107 71q127 92 174 139q94 94 94 181q0 28 -25 44q-27 13 -53 26q-67 34 -120 53q-25 7 -49 14q-37 11 -57 28q0 3 3 12h57q2 0 84 -34q5 -5 14 -11q57 -23 114 -47q59 -31 59 -92z" />
    <glyph glyph-name="asterisk" unicode="*" horiz-adv-x="334" 
d="M150 677h2q15 -1 13 -16l-11 -110l101 45q13 6 19 -8l1 -1q6 -14 -8 -20l-100 -45l89 -65q12 -9 3 -21l-1 -1q-9 -12 -21 -4l-89 65l-11 -109q-2 -15 -17 -14h-2q-15 2 -13 17l12 110l-101 -45q-14 -6 -20 7l-1 2q-6 14 8 20l101 45l-90 64q-12 9 -3 21l1 2q9 12 21 3
l89 -65l12 110q1 15 16 13z" />
    <glyph glyph-name="plus" unicode="+" horiz-adv-x="501" 
d="M466 358q1 -11 -14 -11l-223 -1l-20 -234q-2 -15 -16 -13q-14 1 -13 16l20 231l-205 -1q-15 0 -16 13q-1 6 3.5 11t10.5 5l209 -1l19 213q1 14 15 13q15 -2 13 -16l-18 -210l219 -2q15 0 16 -13z" />
    <glyph glyph-name="comma" unicode="," horiz-adv-x="179" 
d="M79 132q0 -14 -1 -35q-47 -164 -137 -270q-2 5 -2 12q0 25 43.5 108.5t43.5 116.5q0 12 -5 17q-9 7 -18 15q-3 6 -3 12q0 16 19 26q16 8 33 8q15 0 27 -10z" />
    <glyph glyph-name="hyphen" unicode="-" horiz-adv-x="273" 
d="M11 231h218l-21 -26l-206 -6q-6 10 -6 16q0 11 15 16z" />
    <glyph glyph-name="hyphen" unicode="&#x2010;" horiz-adv-x="273" 
d="M11 231h218l-21 -26l-206 -6q-6 10 -6 16q0 11 15 16z" />
    <glyph glyph-name="period" unicode="." horiz-adv-x="236" 
d="M77 69q-71 -61 -83 -61h-24q-4 1 -4 9q0 28 35 55q29 22 48 24q30 6 30 -19q0 -4 -2 -8z" />
    <glyph glyph-name="slash" unicode="/" horiz-adv-x="312" 
d="M280 636q-249 -580 -249 -634q0 -5 3 -3q-19 -26 -27 -26q-10 0 -22 30l276 671q2 0 5 5.5t10 5.5q4 0 10 -1q0 -3 -3 -23.5t-3 -24.5z" />
    <glyph glyph-name="zero" unicode="0" horiz-adv-x="524" 
d="M78 -42q-35 0 -57 16q-27 19 -27 55q0 27 26 93q59 150 188 271q28 27 55 55q42 40 58 40q20 0 22 -23q-90 -55 -170 -151q-70 -84 -110 -170q-38 -79 -38 -114q0 -18 21 -30q17 -9 29 -9h16q31 0 155 56q81 37 146 98q58 54 73 122q3 1 8 3q-1 3 -5 0q6 58 -2 75
q-18 38 -33 50q-17 16 -50 16q-95 0 -151 -91q-13 -26 -41 -81h-8v11q0 69 69 132q65 60 127 60q52 0 86 -51q29 -42 29 -86q0 -87 -82 -173q-70 -74 -175 -126q-98 -48 -159 -48z" />
    <glyph glyph-name="one" unicode="1" horiz-adv-x="222" 
d="M126 314q-63 -165 -79 -227q-10 -41 -9 -88q0 -30 -22 -43q-1 -1 -2 -1l-3 -2q-4 -1 -7 -1q-11 36 -11 33q0 48 36 153l52 156q4 14 11 40q7 40 20 82q25 81 50 81q7 0 14.5 -9t7.5 -16q0 -6 -58 -158z" />
    <glyph glyph-name="two" unicode="2" horiz-adv-x="507" 
d="M337 218q-37 -35 -104 -91q-77 -64 -105 -90q0 -1 1.5 -2.5t5.5 -1.5q13 0 70 31q93 49 223 128q12 -10 12 -18q0 -17 -38 -43q-28 -16 -55 -32q-167 -97 -275 -126q-5 10 -5 23q0 46 87 121q62 52 181 155q19 17 56 54q28 29 33 51q-7 2 -28 2q-81 0 -176 -50
q-49 -25 -156 -100q-40 -28 -51 -28h-20q-5 5 -5 15q0 21 78 72q56 38 108.5 64.5t122.5 45.5q77 22 132 22q33 0 33 -42q0 -19 -57 -86q-41 -48 -68 -74z" />
    <glyph glyph-name="three" unicode="3" horiz-adv-x="558" 
d="M431 164l-154 -106q-96 -65 -169 -105q-55 -30 -104 -41l-5 5v29q144 66 267 146q137 90 210 175q-11 13 -28 13q-45 0 -135 -20q-45 -11 -108 -26q-24 -6 -92 -25l-43 -13q-18 -5 -21 -5h-15v15q0 17 71 63q46 27 92 55q94 58 156 139q-6 6 -16 6q-29 0 -87.5 -23
t-103.5 -53q-7 -5 -39 -34q-27 -26 -33 -26h-30q0 4 -2 10.5t-2 10.5q0 24 78 66q11 7 35 19q107 44 115 47q77 27 117 27q14 0 24.5 -10.5t10.5 -23.5q0 -15 -63 -71q-21 -19 -92 -72q-59 -44 -88 -75q2 -1 6 -4l252 54q43 -7 76 -7q0 -5 1.5 -15t1.5 -14q0 -54 -83 -111z
" />
    <glyph glyph-name="four" unicode="4" horiz-adv-x="503" 
d="M216 87q-2 -1 -4 -1q-5 0 -68 -30t-69 -30h-21q-52 0 -52 51q0 48 169 261q165 207 185 207q7 0 14.5 -6t7.5 -13q0 -5 -2 -8l-1 -1h-1q0 -1 -1 -2q-51 -52 -184 -215q-156 -191 -156 -220v-12q4 -4 11 -4q20 0 102.5 35.5t101.5 55.5q1 1 27 62q18 48 37 96q23 56 47 91
q13 -17 13 -30q0 -30 -27 -84q-28 -57 -30 -92q4 -4 9 -4q14 0 73.5 31.5t78.5 31.5q6 0 12.5 -7.5t6.5 -14.5q0 -9 -23 -29q-52 -44 -80 -44q-3 0 -14.5 3.5t-15.5 3.5q-40 0 -69.5 -31t-32.5 -77q-1 -4 -7 -23t-30 -37q-18 18 -14 44q1 3 4.5 14t3.5 15v11q-1 1 -1 2z" />
    <glyph glyph-name="five" unicode="5" horiz-adv-x="435" 
d="M233 40q-104 -86 -154 -86q-40 0 -40 33q0 14 19 37.5t37 26.5q6 -23 1 -46l7 -7q72 28 161 116q93 91 98 149q-14 10 -33 10q-68 0 -161.5 -44t-152.5 -100q-16 -4 -15 -4q-5 5 -5 15q0 31 58 160q38 84 105 207q23 -9 23 -20q0 -5 -34 -74q1 -1 2 -1l234 115
q16 0 17 -14v-26q-27 -17 -78 -39q-62 -22 -124 -43q-72 -30 -97 -83q-9 -17 -25 -53q-8 -16 -21 -54v0q1 -1 2 -1.5t4 -0.5q-2 0 108.5 47.5t170.5 47.5q24 0 41 -11q22 -13 22 -37q0 -41 -80 -130q-52 -58 -90 -90z" />
    <glyph glyph-name="six" unicode="6" horiz-adv-x="410" 
d="M209 -28q-44 -35 -61 -51q3 -1 24 -1q-3 -15 -17.5 -29t-27.5 -14q-10 0 -26.5 14t-24.5 16q-83 18 -83 78q0 54 64 175q45 93 89 187q61 124 107 167q8 7 37 15q2 -8 1 -11q-43 -61 -139 -232q-128 -232 -128 -302q0 -39 28 -39q6 0 7 3l1 2q30 58 101 172q51 68 100 86
t58 18q23 0 36 -20q12 -16 12 -35q0 -52 -57 -112q-28 -30 -101 -87zM317 187.5q-12 1.5 -15 1.5q-19 0 -90 -50q-28 -20 -45 -42q-32 -40 -49 -90q-14 -43 -14 -39q0 -4 0.5 -4.5l1.5 -1.5l1 -1v0l4 2q41 9 95.5 50t87.5 87q9 11 23 37q19 33 19 43q0 5 -3.5 5.5t-15.5 2z
" />
    <glyph glyph-name="seven" unicode="7" horiz-adv-x="363" 
d="M308 337q-60 -77 -84 -113q-56 -82 -77 -120q-47 -82 -51 -130q-3 -38 -71 -85q-8 15 -8 22q0 59 162 302q20 32 62 93q13 16 25 36l17 28q-2 0 -13 -3.5t-15 -3.5q-28 0 -163 -92q-26 -19 -82 -51q-1 4 -2 6l-2 5q-2 6 -2 11q0 20 107 84q30 18 90 50q21 11 46 22
q70 29 88 29q9 0 16.5 -8t7.5 -14q0 -3 -51 -68z" />
    <glyph glyph-name="eight" unicode="8" horiz-adv-x="497" 
d="M322 267q7 -4 22 -11q55 -25 55 -53q0 -63 -124 -188t-184 -125q-24 0 -37 54q55 158 169 277l-2 3q-2 1 -5 1h-7q-59 -4 -115 1q-91 8 -91 38q36 51 141 125q112 78 164 78q12 0 20.5 -16.5t8.5 -28.5t-18 -33q-14 16 -10 28l-6 4q-44 -1 -135 -57q-84 -52 -122 -94
q15 -10 52 -10q152 0 176 19q14 11 92 104q65 79 96 87l5 -11q-17 -38 -71 -96q-56 -61 -74 -96zM299 232q-49 0 -129 -119q-78 -114 -79 -171h18q56 0 133 86q61 67 96 136q18 35 18 41q0 13 -22 21q-17 6 -35 6z" />
    <glyph glyph-name="nine" unicode="9" horiz-adv-x="520" 
d="M451 353q-11 -5 -15 -7q-111 -73 -318 -579l33 -17q-23 -73 -56 -73l-30 13q7 104 101 291q75 141 151 281l-3 1q-10 0 -130 -60t-150 -60q-37 0 -37 46q0 53 79.5 145t184.5 162q116 77 201 85q12 1 21 -24q7 -20 7 -35q0 -20 -22 -58q-18 -27 -36 -55q15 -4 26 -5
q-2 0 28 1l4 -17q0 -16 -39 -35zM432 528q-80 0 -219 -115q-132 -108 -171 -190q-13 -26 -12 -31h19q39 0 146 53q84 42 143 80q1 4 1 28q0 8 16 27q52 60 59 69q33 43 42 79h-24z" />
    <glyph glyph-name="colon" unicode=":" horiz-adv-x="203" 
d="M148 368q-72 -61 -84 -61h-24q-6 0 -6 10q0 28 49 59q40 25 62 27q5 -6 5 -20q0 -10 -2 -15zM4 7h-24q-6 0 -6 10q0 29 36 56q30 23 49 24q31 6 31 -20q0 -5 -2 -9q-72 -61 -84 -61z" />
    <glyph glyph-name="semicolon" unicode=";" horiz-adv-x="210" 
d="M138 368q-72 -61 -84 -61h-24q-6 0 -6 10q0 28 49 59q40 25 62 27q5 -6 5 -20q0 -10 -2 -15zM89 97q-47 -164 -139 -273q-2 6 -2 14q0 25 28 83q21 42 43 84q15 37 15 59q0 12 -7 18l-4 3l-12 10q-2 7 -2 13q0 18 22 28q16 8 31 8t28 -12q1 -14 -1 -35z" />
    <glyph glyph-name="less" unicode="&#x3c;" horiz-adv-x="276" 
d="M179 365l-52 -48q-19 -21 -48 -52q2 -49 124 -192v-24l-194 217l225 176v-24q-7 -9 -55 -53z" />
    <glyph glyph-name="equal" unicode="=" horiz-adv-x="437" 
d="M1 308q-6 10 -7 16q0 13 17 18l364 -8l23 -23zM349 203l-368 -5q-6 10 -7 16q0 13 17 18h381z" />
    <glyph glyph-name="greater" unicode="&#x3e;" horiz-adv-x="276" 
d="M9 50v23q8 10 56 54l51 48q20 21 49 51q-3 50 -124 192v25l194 -218z" />
    <glyph glyph-name="question" unicode="?" horiz-adv-x="559" 
d="M181 270q21 2 74.5 41t61.5 39q7 0 13.5 -6.5t6.5 -13.5q0 -17 -70 -68q-63 -46 -95 -60.5t-52 -14.5q-13 0 -23 9v2h-1l-1 1q-3 3 -3 8q0 46 181 215l123 115q28 25 91 83v12q-14 -1 -41 -1q-7 1 -19 1h-12q-3 0 -30 -5l-47 -10q-172 -67 -257 -146q-3 -9 -12 -24
q-13 -11 -36 -37q-10 -1 -20.5 11t-10.5 20q0 16 65 66q50 39 70 50q191 112 328 112q60 0 65 -49l-349 -341v-9zM62 -3q8 84 166 130l6 -5v-27q-84 -51 -172 -98z" />
    <glyph glyph-name="A" unicode="A" horiz-adv-x="536" 
d="M466 309q-17 -5 -51 -20q-13 -117 -27 -331q-28 18 -27 32l11 277q-2 1 -2 2q-1 6 -8 6q-6 0 -76 -21q-25 -7 -51 -14q-30 -10 -43 -28q-1 -1 -7 -14l-16 -34q-112 -237 -150 -237h-17v17l139 246l-2 3h-1q-1 1 -3 2q-12 -1 -8 -1q-4 0 -42 -19t-42 -19q-25 0 -27 13
q0 5 2 14t2 12q90 25 161 57q7 4 27 36q9 16 29 52l62 124q38 75 113 222q24 -16 24 -22l-15 -63q-3 -12 -3 -15v-246q1 -1 1.5 -3t2.5 -1h1h5q5 0 37 9q38 12 41 12h10q1 -33 -50 -48zM244 281h18q57 16 111 43q4 74 17 236z" />
    <glyph glyph-name="B" unicode="B" horiz-adv-x="569" 
d="M19 -61q-5 -1 -13 0q-7 5 -20 13v0q2 24 7 72l-4 1v-3l2 -19h3l-7 5h-12l-11 8q2 2 22 13q15 8 22 28t20 86.5t13 85.5q-24 -20 -48 -24l-1 4q0 17 28 47l42 44q5 6 26 90q13 50 25 100q-22 -17 -68 -45l-5 14q9 26 42 48q48 32 53 37t12 41t19 49h10l-2 -42v-15l17 -11
q18 6 137 64q95 46 136 46q42 0 42 -38q0 -33 -70 -109q-49 -52 -98 -105q71 18 126 18q46 0 46 -25q0 -71 -32.5 -149t-83.5 -123q-66 -58 -176 -93q-89 -23 -178 -47q-14 -4 -17 -28zM159 505l-24 -88q-15 -52 -32 -85q101 55 192 125q117 91 155 163q-13 14 -22 14
q-37 0 -269 -129zM419 403q-82 0 -181 -40q-115 -46 -141 -109q-15 -39 -28 -99q-10 -50 -21 -101h30q11 0 32 7q25 8 31 10q117 23 213 101q111 90 104 194l-1 25q-20 12 -38 12z" />
    <glyph glyph-name="C" unicode="C" horiz-adv-x="630" 
d="M124 25q-6 -1 -20 1.5t-19 2.5q-11 0 -40.5 22.5t-34.5 33.5q-20 46 -20 69q0 127 212 300q151 124 288 190q26 4 26 -22v-6v-4q0 -24 -30.5 -58.5t-56.5 -42.5h-9q9 17 10 24q1 9 -7 10l-12 -1q-6 -1 -9 4q-96 -47 -224 -163q-157 -142 -157 -232q0 -46 36 -72
q30 -22 74 -22h29q8 0 11 5v1q1 0 1 1q192 60 412 254h13q1 0 2 -6q-56 -69 -143 -137q-166 -130 -332 -152z" />
    <glyph glyph-name="D" unicode="D" horiz-adv-x="698" 
d="M31 17q-17 0 -29 9t-12 22q0 2 57 23q63 23 85 40q53 26 140 97q72 59 126 115q46 46 88 99q71 87 71 121q0 43 -59 70q-53 24 -121 24q-19 0 -36 -2q-39 -10 -105 -23q-20 -46 -59 -170q-49 -152 -49 -194q0 -16 5.5 -18t18.5 -8q-2 -24 -28 -61q-29 -41 -51 -41
q-9 0 -9 14q0 8 3 19q59 260 125 441q-4 4 -24 -1l-26 -8q-54 -10 -105 -42l-7 -5q-1 0 -2 -1q-16 0 -16 12q0 5 5 13q-2 8 10 15q3 1 28 13q30 14 61.5 28t64.5 23q75 19 114 24t118 5q56 0 108 -30q65 -38 65 -102t-115 -195q-107 -121 -239 -221q-139 -105 -201 -105z
" />
    <glyph glyph-name="E" unicode="E" horiz-adv-x="587" 
d="M184 323q-53 -177 -53 -183l3 -3q360 148 366 146q7 -3 7 -13q0 -20 -168 -93q-202 -88 -206 -91q-9 -16 -18.5 -51t-18.5 -52q-40 -3 -40 19q0 10 7 28l14 34q-21 -5 -48 -27q-32 -27 -43 -34h-19q-4 16 -4 15q0 38 121 96q28 118 47 188q-32 -21 -89 -42q-7 10 -7 19
q0 18 49 37q53 21 60 42q28 80 56 183l-4 9l-17 10l-139 -42q-8 3 -9 20l5 17l448 139l17 -4q3 -2 3 -6q0 -18 -110 -56q-15 -5 -139 -44q-56 -201 -56 -207l3 -4q88 39 177 78q150 63 165 57q8 -8 8 -17q0 -15 -163 -84q-103 -42 -205 -84z" />
    <glyph glyph-name="F" unicode="F" horiz-adv-x="544" 
d="M490 397q-8 -28 -29 -34l-295 -88l-90 -260l3 -3l3 -3q4 -5 9 -7q12 -4 30 20q6 -4 13 -4h3q4 0 4 -12q0 -14 -20 -42t-37 -37t-38 -9q-22 0 -22 42q0 25 38 145l47 149q-9 0 -77 -24q-12 -4 -15 -4l-35 -7q-4 16 0 24q2 5 15.5 16t47.5 22q26 8 52 17q21 7 35 14
q5 3 40 118l40 133l-9 9l-184 -60q-23 6 -23 19q0 19 83 46q122 37 367 113q20 3 20 -14q1 -6 -1 -14q-2 -11 -2 -14q-64 -19 -204 -72l-72 -250l292 90q8 3 11 -2t0 -17z" />
    <glyph glyph-name="G" unicode="G" horiz-adv-x="690" 
d="M550 320q-16 -43 -42 -125q-49 -172 -94 -262q-26 10 -26 44q0 28 10 48q15 27 40 86q-6 5 -34 -12q-3 -1 -6 -3l-169 -72q-112 -48 -173 -48q-56 0 -56 67q0 180 190 397q83 95 280 209q116 68 153 69l30 1v0q3 -3 7 -11q5 -12 -6 -24q-14 -8 -42 -16q-31 -8 -42 -13
q-90 -40 -180 -102q-93 -64 -152 -129q-93 -104 -118.5 -147t-57.5 -153q-9 -31 -9 -51q0 -51 52 -47q25 2 134 46q60 23 163 75q4 2 25 18q19 13 23 13q3 0 4 -1v-1q2 -2 9 -2q6 22 18 62.5t19 64.5q-19 -1 -90 -30l-49 -20q-21 -8 -24 -9q-27 -9 -43 -9q-17 0 -17 8
q-1 13 26 29l369 146q16 0 18.5 -11.5t5.5 -22.5q-40 -30 -146 -62z" />
    <glyph glyph-name="H" unicode="H" horiz-adv-x="628" 
d="M599 366q-24 -4 -81 -13q-64 -10 -72 -21q-13 -18 -46 -151q-13 -69 -45 -212q-17 -2 -25 -2q-24 0 -24 29q0 15 12 60q6 19 18 63q21 66 59 196q-6 6 -123 -30q-101 -31 -147 -49q-6 -2 -19 -46q-8 -27 -16 -53l4 -4q4 -5 13 -5q13 0 31 17l9 9q-16 -55 -22 -66
q-13 -29 -43 -57q-15 -8 -24 -9q-14 -2 -17 10q-10 32 -10 42q0 35 11 59q6 10 12 32l10 36q-4 4 -16 -1.5t-16 -5.5q-28 0 -28 -14v-9q-1 -5 -6 -8q-9 -5 -24 -5q-23 0 -23 30q0 34 64 58q34 13 67 18l98 235q13 33 26 65q18 41 35 60q28 5 27 -13q0 -3 -1.5 -16
t-68.5 -156q-53 -113 -53 -138q0 -6 3 -9q6 2 266 79q86 258 140 409q7 6 12 6q8 0 11.5 -12.5t3.5 -35.5q0 -13 -118 -352q109 25 124 24l26 -3q2 -4 9 -8l2 -2q4 -2 6 -5q0 -11 -10.5 -16.5t-20.5 -9.5z" />
    <glyph glyph-name="I" unicode="I" horiz-adv-x="251" 
d="M98 244l1 -16q5 -2 13 -8q12 11 37 33l2 -30q2 -33 -35 -124t-63 -117l-16 -1q-23 24 -23 33q-3 43 22 141q20 72 40 143q28 104 47 171q36 124 70 217q6 4 11 4q24 0 24 -38q0 -6 -2 -10z" />
    <glyph glyph-name="J" unicode="J" horiz-adv-x="523" 
d="M332 579h-1q-21 0 -55 -26q-16 -13 -22 -13q-12 0 -20.5 10.5t-8.5 23.5q0 11 6 20q18 21 81 39q34 10 140 40q33 9 56 9q21 0 34 -62q-33 -7 -78 -9q-39 -3 -78 -13q-23 5 -23 -6q0 -6 16 -21.5t16 -18.5q0 -19 -28 -107q-16 -55 -33 -110q-29 -89 -58 -155
q-84 -196 -168 -198q-82 -2 -145 30t-63 77q0 20 26 31q21 8 45 8q35 0 35 -35q0 -5 -14 -17l-11 -11q50 -29 53 -30q26 -11 62 -10q69 1 150 193q25 60 73 206q9 29 17 80q10 62 15 82q-18 -3 -19 -7z" />
    <glyph glyph-name="K" unicode="K" horiz-adv-x="545" 
d="M128 267q0 -24 128 -112q122 -84 133 -83q32 -11 46 -11q17 0 34 7l16 -9q1 -39 -39 -39q-106 0 -220 96q-65 61 -131 122q-39 -62 -75 -146q5 -8 18 -17l22 3q-8 -44 -22 -63q-17 -23 -57 -33l-33 11l-1 24q-2 18 61 153q95 202 122 267q69 161 78 237q10 8 19 8l15 -4
l4 -20q-2 -71 -42 -167q-36 -80 -72 -159q68 32 192 142q173 153 188 166l23 -23q-30 -47 -190 -179q-126 -105 -217 -171z" />
    <glyph glyph-name="L" unicode="L" horiz-adv-x="510" 
d="M39 -9q-39 14 -39 59q0 56 221 538q10 24 20.5 48.5t32.5 42.5q18 2 29 -5t9 -24q-4 -49 -42 -124q-6 -12 -66 -117q-33 -57 -74 -158q-48 -121 -67 -161q1 -1 0 -5q-1 -7 -1 -10q1 -16 23 -16q24 0 95 37l98 52q44 25 87 50q51 29 94 37q21 -4 21 -32q0 -19 -19 -27z
" />
    <glyph glyph-name="M" unicode="M" horiz-adv-x="700" 
d="M592 97q14 -12 38 -48l-13 -32q-6 -13 -20.5 -20.5t-28.5 -13.5q-11 11 -24 33.5t-11 32.5l69 448q-11 1 -51 -61q-108 -171 -123 -192q-97 -137 -143 -137q-22 0 -42.5 13.5t-19.5 33.5l9 221q3 60 3 58q-29 -17 -62 -90q-20 -54 -41 -108q-63 -160 -114 -160
q-19 0 -19 20q0 9 112 235q114 230 134 254q3 7 15 13l22 -13q-1 -20 -10 -186q-6 -114 -6 -187q0 -31 27 -31q55 0 196 237q33 59 94 162q43 72 52 72q19 0 19 -49q0 -85 -30 -252q-31 -172 -32 -253z" />
    <glyph glyph-name="N" unicode="N" horiz-adv-x="529" 
d="M487 562q-6 -32 -19 -66q-16 -39 -33 -101q-25 -91 -28 -102q-9 -30 -17 -45q-10 -26 -46 -106q-51 -105 -86 -110l-12 -1q-16 -3 -31 43q-12 34 -14 61q-15 136 -44 246q-19 -39 -37 -99l-48 -168q-34 -99 -77 -152q-22 7 -23 21q-1 6 124 359q38 109 53 213q4 24 18 40
q9 11 19 11q20 0 26 -41q0 -3 -9.5 -26t-9.5 -33q-1 -27 5 -66q4 -33 9 -65q5 -44 16 -118q4 -46 17 -117q2 -2 5 -22.5t8 -24.5q69 66 119 236q17 59 63 271q21 96 35 132q17 11 23 11q9 0 13 -31q1 -6 -6 -64.5t-13 -85.5z" />
    <glyph glyph-name="O" unicode="O" horiz-adv-x="550" 
d="M73 -54q-80 0 -98 145q-6 54 49 191.5t127 240.5q82 120 139 120q5 0 19 -12q-107 -88 -204 -266t-97 -286q0 -28 12 -55q16 -33 42 -33q87 0 184 113q84 98 147 240q60 138 60 222q0 15 -12 23.5t-26 8.5q-54 0 -107 -82q-35 -64 -69 -129l-6 -1q-9 11 -9 36
q0 76 74 146q64 61 144 83q18 -3 29 -34q10 -25 10 -49q0 -91 -62 -239q-64 -155 -152 -261q-102 -122 -194 -122z" />
    <glyph glyph-name="P" unicode="P" horiz-adv-x="804" 
d="M432 250q-34 -14 -98 -45q-42 -24 -119 -43q-10 -47 -28 -96q-35 -96 -76 -104q-16 1 -16 25q0 8 11 34l19 46q28 65 28 72q0 6 -11 13l-5 4q-14 10 -14 14q0 23 12 31q6 4 34 9q24 51 52 128q38 105 47 128q5 14 56 153q-4 4 -13 2q-10 -3 -14 -3q-43 0 -112 -33
q-62 -30 -94 -59q-22 -20 -26 -78q-2 -19 -5 -20l-1 -1q-6 -4 -13 -4q-24 0 -24 31q2 132 210 194q145 43 334 43q195 0 195 -109q0 -76 -144 -200q-115 -100 -185 -132zM698 622q-32 19 -76 24q-20 2 -80 2q-126 0 -174 -22q-30 -101 -60 -201q-40 -127 -77 -213
q20 8 91 34q51 18 79 37q175 115 252 197q61 66 65 93q2 15 -5 30t-15 19z" />
    <glyph glyph-name="Q" unicode="Q" horiz-adv-x="678" 
d="M659 133q-8 7 -77 26q-86 22 -96 19q-75 -80 -164 -135q-103 -64 -180 -64q-55 0 -86 48q-24 37 -24 81q0 82 76 208q47 79 166 197q137 136 195 136q25 0 25 -22q0 -11 -8.5 -12.5t-17.5 -2.5q-42 -10 -131 -91q-84 -76 -118 -128q46 40 145 119q99 71 150 65
q113 -11 113 -140q0 -84 -69 -191l-42 -32q15 -8 47 -11q46 -6 49 -6q64 -13 69 -55q-8 -4 -22 -9zM555 521q-27 16 -57 16q-85 0 -220 -151q-24 -27 -67 -72l-15 2q1 30 8 55q-34 -31 -85 -126q-54 -101 -54 -145q0 -38 32 -59q27 -17 66 -17q47 0 110 36q38 22 113 80
q1 1 5 6l9 12q14 16 14 22q-50 6 -163 15q-8 1 -15.5 8t-7.5 13q0 21 29 21l191 -19q12 0 65 48q25 24 49.5 83t24.5 96q0 17 -9 40q-9 27 -23 36z" />
    <glyph glyph-name="R" unicode="R" horiz-adv-x="725" 
d="M682 575q-16 -21 -53 -56q-217 -208 -390 -294q0 -2 -3 -3.5t-10 -5.5q-4 -3 0 -6l76 -19q43 -12 73 -27q66 -32 120 -105q5 -7 5 -13q0 -16 -22 -16q-7 0 -9 3q-48 42 -93 75q-23 16 -75 35q-58 20 -96 20h-28q-12 0 -29 -6q-20 -8 -25 -18q-14 -30 -29 -97
q-10 -41 -35 -61q-16 7 -16 28q0 14 7 38q8 29 10 38q3 24 -6 36q-4 5 -13 1q-4 -2 -13 -5q-14 -4 -14 23q0 32 86 66q22 89 41.5 128.5t40.5 103.5q34 104 34 106q-5 7 -16 7q-22 0 -56 -22q-11 12 -11 24q0 13 14 22q13 6 56 17q38 9 40 15q7 20 13 39q10 26 24 29
q12 -5 11 -26.5t20 -21.5q3 0 13 2l31 7q70 15 139 29q92 19 132 19q20 0 50 -13q37 -15 37 -37t-31 -59zM168 263v1l-14 -36q166 68 399 287q19 18 55 54q32 32 32 39q0 10 -10 30q-21 3 -81 -7q-12 -2 -15 -2q-9 0 -77 -12q-74 -13 -120 -24q-22 -5 -61 -26
q-10 -10 -16 -28t-10 -34l-53 -154q-28 -81 -29 -88z" />
    <glyph glyph-name="S" unicode="S" horiz-adv-x="637" 
d="M478 588l-27 13q-39 0 -137.5 -67t-175.5 -143q-85 -86 -85 -128v-9q5 -22 30 -25q41 -3 43 -4l407 100q3 1 11.5 -5.5t8.5 -10.5q0 -14 -31 -37q-22 -14 -44 -29q-99 -68 -110 -77q-58 -47 -83 -103q-9 -18 -44 -46.5t-53 -28.5t-18 31q0 36 61 93q47 39 94 79
q31 27 33 43l-27 -4q-30 -3 -110 -26q-69 -19 -111 -19q-45 0 -66 12q-28 16 -28 60q0 62 120 176q107 102 246.5 188.5t199.5 86.5q7 0 14 -11.5t7 -19.5q0 -26 -125 -89z" />
    <glyph glyph-name="T" unicode="T" horiz-adv-x="811" 
d="M820 659q-35 -11 -201 -85q-1 6 7 18l4 4q1 3 2 4q3 7 -5 7q-10 0 -38 -8q-31 -8 -34 -15q-25 -50 -70 -152q-39 -100 -121 -300q-11 -26 -35 -78q-23 -43 -37 -43t-23 6q40 134 218 554q-2 7 -45 -7q-9 -3 -12 -3q-15 0 -195 -61q-63 -25 -198 -71q-8 9 -8 24
q0 27 81 57q17 6 111 33q49 14 67 23l532 125l2 -2q6 -6 6 -14q0 -9 -8 -16z" />
    <glyph glyph-name="U" unicode="U" horiz-adv-x="625" 
d="M572 455q-5 -10 -13 -28l-143 -406q-10 -2 -18 -2q-23 0 -16 36q9 47 31 111q19 55 37 109q4 12 5 17q2 9 -3 9q-5 -4 -15 -14l-35 -33q-258 -250 -301 -250q-15 0 -37 20.5t-22 38.5q0 61 59 218q56 148 92 198l4 8l6 13q38 82 73 83q18 0 28 -12t10 -24q0 -17 -9 -22
q-54 -36 -80 -82q-43 -79 -98 -218q-32 -81 -32 -99q-4 -25 -4 -36q2 -28 25 -25q25 5 98 68q62 54 94 91q15 17 93 90q67 64 95 103q24 35 75 162q7 17 26 17q6 0 12.5 -10t6.5 -18q0 1 -44 -113z" />
    <glyph glyph-name="V" unicode="V" horiz-adv-x="531" 
d="M475 563q-31 -36 -64 -73q-69 -87 -156 -236q-115 -200 -144 -244q-48 1 -46 85l4 183q0 53 1 167q-9 72 -7 76q-4 38 17 38q10 0 22 -14q6 -8 12 -33.5t5 -44.5l-9 -327q4 0 6 -13q0 -9 1 -18q0 -3 1 -5q3 -3 6 1q186 380 375 551q15 8 24 8q14 0 14 -20q0 -9 -62 -81z
" />
    <glyph glyph-name="W" unicode="W" horiz-adv-x="781" 
d="M719 545q-14 -33 -42 -93q-24 -53 -71 -154q-16 -42 -66 -151q-66 -130 -108 -130q-35 0 -52 73q-6 24 -12 86q-4 48 0 115q3 38 10 125q-16 -33 -48 -95q-26 -51 -78 -111q-85 -96 -89 -101q-69 -71 -102 -71q-16 0 -26 35q-8 24 -8 35q0 28 66.5 229.5t92.5 252.5
q8 17 27 48q27 17 33 4q1 -9 6 -25q-21 -31 -42 -91l-32 -98q-33 -98 -97 -298q2 -21 10 -21q7 0 14 11q85 66 156 184q26 42 112 215q27 53 37 40q10 -11 11 -65q-5 -60 -5 -145q0 -147 11 -228q0 -20 9 -29q36 41 66 97l52 104q38 74 91 194q51 115 51 124q-1 3 -3 11
l-8 18q-10 27 -10 33q0 23 34 56t59 33q30 0 30 -34q0 -21 -33 -90q-23 -47 -46 -93z" />
    <glyph glyph-name="X" unicode="X" horiz-adv-x="706" 
d="M667 625q-48 -16 -186 -137t-138 -153q0 -18 58 -116l40 -68q17 -31 17 -37q0 -17 -10 -42q-12 -29 -25 -30l-16 9q-29 84 -98 257q-99 -117 -136 -165q-72 -95 -114 -180q-26 -51 -54 -51q-13 0 -22.5 8.5t-9.5 20.5l312 418q-9 25 -53 76l-66 76q-19 24 -20 33
q-4 28 23 28q11 0 72 -82q32 -45 76 -105q145 146 161 162q131 125 164 125q28 0 28 -19z" />
    <glyph glyph-name="Y" unicode="Y" horiz-adv-x="578" 
d="M454 539q-37 -53 -156 -240q-73 -105 -208 -322q-11 -22 -23 -44q-18 -33 -27 -33q-33 -2 -34.5 0t-3.5 11q-2 13 -5 23q27 34 95 122q86 117 86 139q0 28 -31 81l-50 76q-19 31 -51 121q-34 99 -29 127q4 8 18 11q15 4 26 0q13 -9 14 -43q0 -21 4 -59q7 -25 21 -73
q43 -128 117 -186q81 120 236 358q13 22 40 70q25 42 33 42q38 0 38 -33q0 -2 -33 -44q-45 -58 -77 -104z" />
    <glyph glyph-name="Z" unicode="Z" horiz-adv-x="691" 
d="M49 38q-10 -13 -11 -25q-6 -13 14 -13q5 2 26 11l240 115q264 125 280 125q4 0 12 -10.5t8 -16.5q0 -11 -86 -47q-243 -102 -363 -160q-40 -21 -79 -41q-60 -30 -78 -30q-44 0 -44 36q0 19 22 49q18 21 35 43q31 40 109 136q15 18 68 75l319 342l-16 15q-94 -36 -188 -71
q-109 -42 -184 -82q-28 -15 -32 -15q-6 0 -14 5.5t-8 8.5q0 23 91 69q102 51 174 74q115 38 172 51q37 12 84 25q5 1 26 5q9 1 10 1q2 -1 2 -6q0 -1 1 -3t1.5 -4.5t1.5 -13.5q-408 -405 -593 -648z" />
    <glyph glyph-name="bracketleft" unicode="[" horiz-adv-x="293" 
d="M54 -50q1 -16 23 -12q30 6 41 -1q0 -13 -6.5 -26.5t-16.5 -14.5q-20 -2 -55 6q-40 8 -41 19q-6 73 101 464q109 401 151 404q10 1 51.5 -4.5t41.5 -10.5q0 4 -9 -38q-1 -1 -4 -1q-6 0 -30 5t-32 5q-7 0 -8 -3l-124 -398q-91 -304 -83 -394z" />
    <glyph glyph-name="backslash" unicode="\" horiz-adv-x="396" 
d="M378 -36l-35 -10l-184 735l37 -1z" />
    <glyph glyph-name="bracketright" unicode="]" horiz-adv-x="293" 
d="M290 735q-1 16 -24 12q-29 -6 -40 1q0 13 6.5 26.5t15.5 14.5q21 2 56 -6q39 -8 40 -19q7 -73 -100 -464q-109 -401 -151 -404q-10 -1 -50 4q-43 6 -44 11q1 -5 10 38q1 1 4 1q5 0 29.5 -5t32.5 -5q7 0 7 3q63 199 125 398q91 304 83 394z" />
    <glyph glyph-name="asciicircum" unicode="^" horiz-adv-x="301" 
d="M142 754q-12 0 -61 -37q-53 -40 -58 -42q-13 -1 -13 10q0 6 4 13q22 15 55.5 49.5t53.5 48.5l9 9l11 -1q53 -34 117 -73q2 -6 2 -11q0 -9 -14 -11q-90 45 -106 45z" />
    <glyph glyph-name="underscore" unicode="_" horiz-adv-x="506" 
d="M-4 -88h511v-32h-511v32z" />
    <glyph glyph-name="grave" unicode="`" horiz-adv-x="316" 
d="M241 666q-1 0 -73 54.5t-73 55.5q-6 2 -12 2q-20 0 -20 -20q0 -9 6 -18q148 -90 159 -90z" />
    <glyph glyph-name="a" unicode="a" horiz-adv-x="301" 
d="M313 284q0 -11 -11 -36q-14 -30 -51.5 -82t-50.5 -79q-11 -21 -16 -35q-3 -8 -3 -12q0 -3 4 -3t5 -1q1 -7 22 6q7 -7 7 -9q0 -14 -21.5 -32t-31.5 -18q-12 0 -22 17q-7 14 -14 27q-17 -11 -34 -23q-20 -13 -38 -13q-38 0 -62 49q-7 12 -7 51q0 74 100 175t171 101
q11 0 20 -3l7 -10q-89 -42 -168 -114q-96 -90 -96 -163q0 -15 12 -32t27 -17q14 0 53 36q64 58 108 126q25 39 66 124q8 -3 16 -13t8 -17z" />
    <glyph glyph-name="b" unicode="b" horiz-adv-x="334" 
d="M355 288q0 -62 -74 -139q-66 -70 -139 -101q-31 -16 -61 -32q-45 -23 -70 -23h-9.5h-10.5q-1 1 -8 6.5t-7 13.5q0 7 5 18l263 604q8 2 14 2q10 0 12 -7.5t4 -14.5q-50 -118 -101 -235q-59 -142 -54 -142q154 86 204 86q32 0 32 -36zM325 277q-2 17 -16 16q-32 1 -134 -54
q-115 -61 -115 -109q0 -4 15.5 -17t17.5 -30q1 -4 -14.5 -23t-14.5 -22q87 37 158 99q80 69 103 140z" />
    <glyph glyph-name="c" unicode="c" horiz-adv-x="377" 
d="M376 221q0 -12 -56 -58q-46 -37 -73 -55q-60 -37 -103 -62q-15 -9 -45 -19q-33 -12 -46 -12q-53 0 -52 59q1 37 34 78q64 79 109 114q16 12 70 45q71 44 89 44l16 -1l4 -16q0 -12 -13 -19q-23 -11 -66 -34q-30 -18 -84 -53q-19 -13 -61 -59q-56 -61 -57 -90
q-1 -25 19 -25q36 0 165.5 87.5t135.5 87.5q14 0 14 -12z" />
    <glyph glyph-name="d" unicode="d" horiz-adv-x="409" 
d="M504 695l-228 -661l-21 -4q-11 -2 -11 12q0 9 6.5 30.5t6.5 24.5q-2 3 -92 -51q-94 -56 -118 -56q-29 0 -43 30q-12 24 -12 56q0 59 76 139q65 70 134 107q47 25 57 24q32 -1 49 -35q7 -18 14 -37q68 193 149 421q8 12 17 12q11 0 16 -12zM293 228q0 13 -8 41
q-12 39 -29 39q-5 0 -29 -11q-73 -37 -130 -105q-61 -72 -61 -130q2 -32 33 -32q6 0 72 36.5t108 63.5q14 9 29 32t15 66z" />
    <glyph glyph-name="e" unicode="e" horiz-adv-x="405" 
d="M352 317q0 -76 -127 -156q-108 -67 -175 -74q-18 -1 -18 -25q0 -41 46 -41q42 0 129 51q5 3 115 75q8 7 13 7q8 0 8 -18q0 -14 -68 -61q-48 -33 -75 -47q-69 -38 -116 -38q-29 0 -54 16q-31 19 -31 51q0 3 6 15t6 15q0 5 -7 10.5t-6 15.5q3 14 13 15h15q51 122 148 192
q65 48 127 48q51 0 51 -51zM319 313q0 19 -36 19q-33 0 -88 -35q-21 -14 -69 -66q-55 -60 -55 -82l-7 -18l31 6q28 -1 122 64q102 70 102 112z" />
    <glyph glyph-name="f" unicode="f" horiz-adv-x="266" 
d="M261 676l-141 -436q21 23 45 24q59 2 61 -69q2 -53 -38 -171q-38 -110 -67 -154q-37 -55 -39 -57q-30 -38 -58 -40q-52 -4 -52 68q0 59 58 242q33 99 67 199q3 10 59 205q42 146 70 200q7 14 30 13q9 -3 9 -10q0 -2 -4 -14zM194 192q0 28 -27 27t-41 -19.5t-24 -61.5
q3 -13 11 -14q14 -1 15 -2q1 -9 -8.5 -22.5t-29.5 -14.5q-12 0 -18 15q-7 -16 -35 -118q-31 -112 -30 -133q1 -35 13 -35q46 2 113 164q64 153 61 214z" />
    <glyph glyph-name="g" unicode="g" horiz-adv-x="419" 
d="M407 151q-6 -2 -76 -33q-31 -13 -50 -30l-8 -47q-3 -16 -5 -70q-2 -38 -15 -79q-16 -46 -68.5 -85t-88.5 -33q-61 11 -70 14q-21 9 -23 32q-6 97 65 171q61 63 188 118q1 1 11 49l-61 -38q-15 -12 -46 -33q-100 -60 -113 -60q-18 0 -29.5 13.5t-8.5 35.5q7 47 128 168
q38 38 97 82q48 36 82 36q18 0 37 -31q16 -27 16 -37q0 -4 -14 -23q-18 -26 -21 -31q-27 -43 -27 -70l-10 -38q7 8 82 43q7 2 14 2q17 0 17 -14q0 -6 -3 -12zM323 308l-16 16q-32 -6 -74 -43q-35 -30 -70 -61q-17 -13 -62 -63q-54 -59 -54 -77q0 -17 18 -10q27 0 96 53
q46 36 71 61q71 72 91 124zM247 70q-96 -30 -152 -87q-62 -64 -62 -150q0 -34 48 -34q17 0 36 5q62 13 92 65q21 37 28 103z" />
    <glyph glyph-name="h" unicode="h" horiz-adv-x="291" 
d="M189 664l-133 -502q47 91 121 137q12 4 19 4q25 0 32 -83q-2 -50 -3 -107q3 -23 27 -22q-14 -47 -42 -51q-19 -3 -23 25q-2 15 2 56q4 54 5 87q0 49 -13 47q-53 -7 -108 -136q-11 -24 -47 -131q-6 -19 -22 -23q-15 -3 -19.5 5t-7.5 15l178 697q3 2 6.5 6t9.5 4q5 0 11 -4
q0 -1 3.5 -7.5t3.5 -16.5z" />
    <glyph glyph-name="i" unicode="i" horiz-adv-x="170" 
d="M195 526q-10 -44 -33 -44q-6 0 -12 6q-11 -1 -17 13q-4 11 -7 21q9 9 17 18q2 1 31 4q4 1 10 -5.5t11 -12.5zM135 356l-5 -61l-83 -252q5 -9 14 -9q13 0 21 9q2 -21 -22.5 -49.5t-46.5 -30.5q-11 0 -18 18q-4 13 -8 27l107 303q7 22 9 48q1 11 1 22q2 4 5 4q10 0 26 -29z
" />
    <glyph glyph-name="j" unicode="j" horiz-adv-x="308" 
d="M234 464q0 1 -15 -29q1 1 -19 1q-3 0 -10 12t-7 24q0 16 11 32q12 5 19 5q6 0 15 -11q1 -4 3.5 -16.5t2.5 -17.5zM308 224q0 -13 -33 -33l-40 -22q-11 -6 -23 -12q-15 -8 -22 -20q-3 -27 -11 -78q-12 -48 -33 -143q-13 -55 -53 -131q-63 -118 -131 -118q-60 0 -60 103
q0 146 114 272q41 46 139 125q11 38 25 99q5 31 17 83q15 0 19 -2q10 -7 10 -35q0 -9 -12 -56q-15 -58 -17 -66q23 13 45.5 27t45.5 21h17zM140 79l3 16q2 11 -2 13q-100 -61 -156 -163q-46 -86 -46 -165q0 -75 34 -75q7 0 34 22t34 32q18 36 45 88q14 23 33 104
q21 85 21 128z" />
    <glyph glyph-name="k" unicode="k" horiz-adv-x="355" 
d="M339 356q1 -9 -129.5 -138.5t-128.5 -142.5q2 -17 48 -17q20 0 48 4q43 5 76 17q56 22 59 23h4q16 -11 17 -21q2 -14 -70 -54q-65 -36 -73 -37q26 24 45 45q-38 -11 -74 -12h-62q-19 4 -45 7q-3 0 -16 -49q-13 -52 -27 -65q-9 -18 -23 -18q-22 0 -22 30q0 7 2 14
q52 154 134 402q22 81 90 296q7 20 9 23q9 19 20 20q11 -6 4 -32q-86 -331 -147 -512l245 227q7 3 10 3q5 0 6 -13z" />
    <glyph glyph-name="l" unicode="l" horiz-adv-x="140" 
d="M73 70q3 -33 4 -37q4 -15 21 -25q0 -11 -14.5 -21.5t-26.5 -11.5q-14 -1 -26 36q-9 28 -11 51q-6 71 65 322q73 260 115 264q13 1 14 -15q2 -18 -38 -131q-52 -150 -72 -222q-37 -137 -31 -210z" />
    <glyph glyph-name="m" unicode="m" horiz-adv-x="400" 
d="M390 299q0 -3 -10 -31q-12 -33 -15 -44q-31 -108 -31 -178q0 -14 1 -29q-2 -29 -15 -29q-11 0 -11 16q-12 27 -12 75q0 5 8.5 52t8.5 51l10 61l-15 -13q-68 -89 -122 -211q-18 4 -16 26q5 62 22 170l-15 -9q-43 -32 -96 -128q-48 -86 -80 -99h-12q-16 11 0 47
q0 18 47 163l16 60q14 47 34 83q4 16 13 16q6 0 12 -9t5 -20q0 -25 -44 -157l-14 -52q7 6 30.5 41.5t36.5 45.5q22 24 44 47q31 34 47 34q10 0 10 -30q0 -91 -1 -79q17 44 52 92q49 68 89 68q9 0 16 -10t7 -20z" />
    <glyph glyph-name="n" unicode="n" horiz-adv-x="341" 
d="M319 262q-17 -47 -44 -137q-11 -42 -11 -104q0 -21 -32 -26q-14 0 -17 12l-4 16l63 235q2 28 -7 28q-4 0 -17 -9q-46 -31 -92 -85q-9 -11 -75 -97l-36 -50q-31 -41 -46 -41q-5 0 -11.5 5t-6.5 10q0 3 15.5 30t17.5 35q29 90 59 226q0 10 11 20q8 4 22 3q4 -7 4 -27
t-15 -71q-11 -37 -22 -75q47 49 95 97q75 75 109 75q21 0 32 -19.5t8 -50.5z" />
    <glyph glyph-name="o" unicode="o" horiz-adv-x="349" 
d="M341 290q0 -77 -107 -211q-110 -137 -183 -137q-28 0 -46 14q-22 17 -22 49q0 69 85.5 211t146.5 171q5 2 10 2q15 0 7 -26q-209 -237 -210 -363q4 -5 7 -9q6 -8 22 -9q59 -5 154 118q92 118 97 189q1 14 1 16q-2 4 -11 9q-27 0 -68 -62q-54 -82 -57 -85q-19 2 -19 23
q27 58 62 105q51 67 92 67q39 -1 39 -72z" />
    <glyph glyph-name="p" unicode="p" horiz-adv-x="381" 
d="M-81 -218l176 528l20 3q11 2 11 -11q0 -10 -6 -30q-6 -23 -7 -25q31 33 85 66q66 40 112 40q31 0 52 -34q17 -27 17 -51q0 -59 -76 -140q-65 -69 -134 -106q-47 -25 -58 -25q-31 2 -48 35l-14 38l-96 -288q-8 -12 -18 -12q-11 0 -16 12zM78 115q0 -13 8 -41
q12 -39 29 -39q5 0 29 12q73 37 130 105q61 71 61 130q-2 31 -33 31q-44 0 -90 -31q-46 -34 -91 -69q-15 -11 -29 -33t-14 -65z" />
    <glyph glyph-name="q" unicode="q" horiz-adv-x="416" 
d="M384 30q0 -18 -48 -93q-21 -32 -58 -71q-114 -118 -156 -118q-15 0 -23 5q-4 5 -9 9q-16 12 -16 44q0 29 114 241l8 17q-27 -17 -76 -48v14q3 16 14 22q40 22 63 38q5 3 27 40q44 74 40 78q-40 -37 -106 -96q-37 -32 -112 -92q-40 -29 -59 -29q-9 0 -17.5 11t-8.5 16
q0 12 29 62.5t42 63.5q55 58 111 116q94 92 126 92q19 0 25 -16q1 -4 1 -9q0 -10 -7.5 -22t-7.5 -11q-6 4 -9 13t-6 9q-15 0 -75 -54q-42 -38 -68 -66q-31 -33 -63 -67q-39 -46 -43 -75q1 -8 7 -8q5 0 17 8l276 230q5 4 7 4q3 0 6.5 -5.5t4.5 -6.5q-29 -43 -70 -138
q6 3 17 5t20 2q83 0 83 -115zM354 36q2 22 -12 48q-16 30 -40 30q-39 0 -58 -22q-12 -14 -37 -72q-24 -45 -53 -108q-13 -23 -26 -47q-18 -36 -18 -62q0 -19 18 -21q62 44 71 52q30 25 78 84q20 24 41 49q33 44 36 69z" />
    <glyph glyph-name="r" unicode="r" horiz-adv-x="278" 
d="M289 295q-17 -7 -65 -13q-40 -5 -58 -20q-8 -42 -18 -77q-23 -85 -50 -121q-48 -61 -91 -61q-8 0 -18.5 17t-10.5 27q0 77 147 224q-6 17 -39 33t-33 23q0 6 7.5 11t15.5 3q34 -4 72 -50q48 36 108 36q10 0 20 -1q24 -3 24 -15q0 -9 -11 -16zM131 231v3l-72 -90
q-49 -65 -49 -93q0 -15 8 -15q5 0 18 8q27 18 61 86t34 101z" />
    <glyph glyph-name="s" unicode="s" horiz-adv-x="323" 
d="M345 370q0 -19 -8 -24q-22 -14 -59 -31q-43 -19 -65 -31q-76 -43 -104 -68q-18 -15 -43 -46q5 -10 13 -10q3 0 26.5 8t29.5 8l124 34q7 2 12 2q10 0 15 -5l9 -9q2 -11 -2 -30q-38 -49 -139.5 -110t-138.5 -58q-10 14 109 87q123 76 123 81q-1 2 -4 2q-29 0 -96 -23
t-98 -23q-32 0 -32 24q0 18 34 54q25 26 43 39q36 26 63 44q13 9 75 44q73 42 83 42q2 0 6 4t8 4q6 0 16 -9z" />
    <glyph glyph-name="t" unicode="t" horiz-adv-x="237" 
d="M323 377q2 -18 -4 -26.5t-14 -10.5q-5 -1 -12 0q-8 2 -9 1q-4 0 -19 3t-19 2q-2 0 -61 -24q-15 -7 -46 -29q-16 -39 -43 -115q-10 -31 -26 -99q2 -17 8 -17q12 1 20.5 10t10.5 9q2 -1 3 -2q-2 -27 -8 -42q-21 -61 -38 -62l-12 -2q-26 7 -26 41q0 10 2 19q-4 25 27 127
q17 53 33 106q-2 1 -20 -16q-22 -22 -26 -24l-9 -1q-13 9 -3 22q-3 19 82 72q25 86 50 173q31 106 69 178q5 10 15 12l13 -7l-107 -334q37 16 111 45q28 15 52 8q4 -7 6 -17z" />
    <glyph glyph-name="u" unicode="u" horiz-adv-x="289" 
d="M292 296l-35 -74t-39 -93q-3 -24 -6 -47q-7 -34 -22 -34q-12 0 -12 28q0 11 4 31.5t4 30.5q-26 -28 -83 -73q-69 -55 -89 -55q-21 0 -21 28q0 49 40 148q37 93 71 139h4q6 0 12 -7.5t6 -13.5q0 -5 -23 -50q-14 -27 -29 -54q-35 -73 -48 -133q3 -8 10 -8q14 0 87 66
q65 59 86 84q2 3 28 58q22 45 35 45h11q9 0 9 -16z" />
    <glyph glyph-name="v" unicode="v" horiz-adv-x="246" 
d="M22 0q-11 0 -18 22q-5 16 -5 30q0 46 10 126q11 90 25 120q8 9 16 9q15 0 12 -23q-2 -19 -17 -94q-11 -58 -11 -93q0 -17 2 -33q48 70 97 140q80 114 93 114q7 0 12.5 -7t5.5 -13q-206 -298 -222 -298z" />
    <glyph glyph-name="w" unicode="w" horiz-adv-x="416" 
d="M414 333q-2 -49 -74 -190q-73 -145 -104 -145q-42 0 -42 64q0 23 5.5 68.5t6.5 66.5q-72 -94 -82 -106q-68 -76 -111 -76q-15 0 -15 32q0 15 46.5 142.5t59.5 152.5q21 8 16 8q15 0 15 -27q0 -1 -42.5 -101.5t-46.5 -135.5l4 -12q54 35 157 183q10 25 39 69q7 2 12 2
q14 0 14 -14q0 -8 -9 -25.5t-10 -25.5q-25 -152 -25 -191q0 -26 6 -26q23 0 84 132l74 170q8 4 12 4q6 0 7 -7q2 -11 3 -12z" />
    <glyph glyph-name="x" unicode="x" horiz-adv-x="330" 
d="M318 333q0 -23 -143 -155q38 -110 38 -148q0 -28 -27 -28q-11 0 -11 30q0 16 -10.5 58.5t-17.5 53.5q-12 -8 -63 -74q-44 -56 -61 -56t-17 20q0 14 57 77q35 37 70 75q-61 132 -58 152q12 6 18 6q20 0 68 -130l72 78q60 63 70 63q15 0 15 -22z" />
    <glyph glyph-name="y" unicode="y" horiz-adv-x="254" 
d="M331 376q0 -10 -11 -17q-16 -11 -44 -36q-46 -57 -133 -173q-30 -44 -86 -128q-34 -48 -95 -200q-8 -21 -23 -32q-7 -1 -21 -1q-12 6 -12 17q0 7 3 16q29 64 82 157q61 106 106 167l-52 184q0 26 17 26q7 0 13 -8q15 -35 31 -104q15 -62 17 -64q23 33 65 81
q56 66 66.5 80t35.5 45q7 12 23 12q18 0 18 -22z" />
    <glyph glyph-name="z" unicode="z" horiz-adv-x="338" 
d="M234 46q-37 -127 -65 -180q-56 -110 -135 -110q-23 0 -41.5 23t-19.5 50q-2 71 29 112q23 33 83 65t121 64q18 28 18 60q0 24 -34 24q-21 0 -61 -28q-33 -23 -54 -46q-13 2 -13 18q0 1 89 99.5t89 106.5q0 7 -4 7q-25 0 -101 -59l-100 -80h-12l-6 16q0 30 112 101.5
t147 71.5q15 0 15 -21q0 -16 -51 -81q-33 -40 -66 -81q34 6 28 6q48 0 48 -31q0 -28 -8 -67q30 14 89 44l13 -12q-8 -14 -49 -38q-31 -17 -61 -34zM194 24q-6 -1 -17.5 -4t-55.5 -31q-32 -20 -62.5 -39t-41.5 -41q-14 -25 -14 -71q0 -19 8 -34q10 -19 26 -19q58 0 108 92
q41 76 49 147z" />
    <glyph glyph-name="braceleft" unicode="{" horiz-adv-x="313" 
d="M113 70q3 -33 4 -37q4 -15 21 -25q0 -23 -31 -26q-14 -1 -26 33q-10 26 -12 47q-5 59 48 243q2 4 2 10q0 25 -40 82q21 6 55 35l30 26q1 -3 62 198q35 52 75 52q24 0 24 -16q0 -6 -4 -14q0 -1 -26.5 -12t-33.5 -29q-42 -112 -69 -192q-12 -37 -69 -57q30 -35 30 -64
q0 -5 -1 -10q-46 -165 -39 -244z" />
    <glyph glyph-name="bar" unicode="|" horiz-adv-x="140" 
d="M32 -43l-35 9l208 728l32 -19z" />
    <glyph glyph-name="braceright" unicode="}" horiz-adv-x="313" 
d="M197 620q-2 33 -3 36q-5 15 -21 26q-1 22 30 25q14 1 27 -33q10 -26 11 -47q6 -59 -48 -242q-1 -5 -1 -10q0 -26 40 -83q-21 -6 -55 -35q-30 -26 -30.5 -24.5t-62.5 -199.5q-34 -52 -74 -52q-25 0 -25 16q0 6 4 14q1 1 27.5 12t33.5 29q42 113 68 192q12 37 69 58
q-30 35 -30 63q0 5 1 10q46 165 39 245z" />
    <glyph glyph-name="asciitilde" unicode="~" horiz-adv-x="285" 
d="M23 719q9 18 19 35q14 24 44 26q27 2 49.5 -13t33.5 -15q25 0 34 8q11 13 22 27q1 5 6 5q12 0 12 -15q0 -5 -4 -10l-26 -32q-10 -8 -44 -8q-18 0 -40.5 15t-41.5 13q-18 -1 -28 -21q-16 -30 -18 -32q-8 -3 -14 1t-4 16z" />
    <glyph glyph-name="Adieresis" unicode="&#xc4;" horiz-adv-x="536" 
d="M244 281l19 5q75 20 110 38q4 74 17 236zM444 757q0 15 12 25.5t28 10.5q17 0 28.5 -10.5t11.5 -25.5q0 -16 -11.5 -26.5t-28.5 -10.5q-16 0 -28 10.5t-12 26.5zM306 734q0 17 11 28.5t27 11.5t27 -11.5t11 -28.5q0 -16 -11 -28t-27 -12t-27 12t-11 28zM415 289
q-13 -118 -27 -331q-3 2 -15 2q-22 0 -24 32l23 275q-7 1 -20 3q-37 -8 -86 -25q-64 -22 -74 -39l-80 -164q-63 -115 -110 -115v17l139 246q-4 5 -6 5q-13 0 -50.5 -19.5t-41.5 -19.5q-20 0 -23 2.5t-3 18.5l3 18q24 7 74 27.5t87 29.5q16 5 117 203q57 116 114 231
q17 -8 24 -22q0 -1 -4 -72l-14 -252l4 -4q14 0 47 11.5t47 9.5q1 -27 -39 -44z" />
    <glyph glyph-name="Aring" unicode="&#xc5;" horiz-adv-x="536" 
d="M466 309q-17 -5 -51 -20q-13 -117 -27 -331q-28 18 -27 32l11 277q-2 1 -2 2q-1 6 -8 6q-6 0 -76 -21q-25 -7 -51 -14q-30 -10 -43 -28q-1 -1 -7 -14l-16 -34q-112 -237 -150 -237h-17v17l139 246l-2 3h-1q-1 1 -3 2q-12 -1 -8 -1q-4 0 -42 -19t-42 -19q-25 0 -27 13
q0 5 2 14t2 12q90 25 161 57q7 4 27 36q9 16 29 52l62 124q38 75 113 222q24 -16 24 -22l-15 -63q-3 -12 -3 -15v-246q1 -1 1.5 -3t2.5 -1h1h5q5 0 37 9q38 12 41 12h10q1 -33 -50 -48zM244 281h18q57 16 111 43q4 74 17 236zM419 815q28 0 49 -15t21 -39t-21 -39t-49 -15
q-27 0 -48.5 15t-21.5 39t21.5 39t48.5 15zM419 790q-20 0 -32.5 -9t-12.5 -20q0 -10 12.5 -19.5t32.5 -9.5t32.5 9.5t12.5 19.5q0 11 -12.5 20t-32.5 9z" />
    <glyph glyph-name="Ccedilla" unicode="&#xc7;" horiz-adv-x="630" 
d="M584 320h13q1 0 2 -6q-227 -278 -470 -293q-33 -116 -81 -193q-66 -106 -114 -32q-9 13 -9 70q0 69 26 74q13 -103 37 -103q4 0 8 3q25 17 56 80q24 50 48 101q-16 4 -51 29t-39 35q-20 46 -20 69q0 127 212 300q151 124 288 190q26 4 26 -22v-6v-4q0 -24 -30.5 -58.5
t-56.5 -42.5h-9q7 13 7 21q0 10 -12 13q-6 1 -13 3q-98 -48 -223 -161q-156 -140 -153 -229q4 -96 101 -96q73 0 186 54q98 46 183 110q82 63 88 94z" />
    <glyph glyph-name="Eacute" unicode="&#xc9;" horiz-adv-x="587" 
d="M184 323q-53 -177 -53 -183l3 -3q360 148 366 146q7 -3 7 -13q0 -20 -168 -93q-202 -88 -206 -91q-9 -16 -18.5 -51t-18.5 -52q-40 -3 -40 19q0 10 7 28l14 34q-21 -5 -48 -27q-32 -27 -43 -34h-19q-4 16 -4 15q0 38 121 96q28 118 47 188q-32 -21 -89 -42q-7 10 -7 19
q0 18 49 37q53 21 60 42q28 80 56 183l-4 9l-17 10l-139 -42q-8 3 -9 20l5 17l448 139l17 -4q3 -2 3 -6q0 -18 -110 -56q-15 -5 -139 -44q-56 -201 -56 -207l3 -4q88 39 177 78q150 63 165 57q8 -8 8 -17q0 -15 -163 -84q-103 -42 -205 -84z" />
    <glyph glyph-name="Ntilde" unicode="&#xd1;" horiz-adv-x="529" 
d="M506 712q1 -6 -6 -64.5t-13 -85.5q-6 -32 -19 -66q-16 -39 -33 -101q-25 -91 -28 -102q-9 -30 -17 -45q-10 -26 -46 -106q-51 -105 -86 -110l-12 -1q-16 -3 -31 43q-12 34 -14 61q-15 136 -44 246q-19 -39 -37 -99l-48 -168q-34 -99 -77 -152q-22 7 -23 21q-1 6 124 359
q38 109 53 213q4 24 18 40q9 11 19 11q20 0 26 -41q0 -3 -9.5 -26t-9.5 -33q-1 -27 5 -66q4 -33 9 -65q5 -44 16 -118q4 -46 17 -117q2 -2 5 -22.5t8 -24.5q69 66 119 236q17 59 63 271q21 96 35 132q17 11 23 11q9 0 13 -31zM408 742v5q0 4 -3 2q-19 -16 -60 -16
q-19 0 -42 15t-38 13q-18 -1 -35 -38q1 -10 -4 -27q-5 -2 -10 -2q-25 0 -20 28q6 12 19 36q18 30 56 30q26 0 47.5 -14t30.5 -14q22 0 30 7q10 12 19 23q4 11 15 11q18 0 18 -16q0 -7 -6 -14q-20 -22 -17 -29z" />
    <glyph glyph-name="Odieresis" unicode="&#xd6;" horiz-adv-x="550" 
d="M73 -54q-80 0 -98 145q-6 54 49 191.5t127 240.5q82 120 139 120q5 0 19 -12q-107 -88 -204 -266t-97 -286q0 -28 12 -55q16 -33 42 -33q87 0 184 113q84 98 147 240q60 138 60 222q0 15 -12 23.5t-26 8.5q-54 0 -107 -82q-35 -64 -69 -129l-6 -1q-9 11 -9 36
q0 76 74 146q64 61 144 83q18 -3 29 -34q10 -25 10 -49q0 -91 -62 -239q-64 -155 -152 -261q-102 -122 -194 -122zM384 757q0 15 12 25.5t28 10.5q17 0 28.5 -10.5t11.5 -25.5q0 -16 -11.5 -26.5t-28.5 -10.5q-16 0 -28 10.5t-12 26.5zM246 734q0 17 11 28.5t27 11.5
t27 -11.5t11 -28.5q0 -16 -11 -28t-27 -12t-27 12t-11 28z" />
    <glyph glyph-name="Udieresis" unicode="&#xdc;" horiz-adv-x="625" 
d="M572 455q-5 -10 -13 -28l-143 -406q-10 -2 -18 -2q-23 0 -16 36q9 47 31 111q19 55 37 109q4 12 5 17q2 9 -3 9q-5 -4 -15 -14l-35 -33q-258 -250 -301 -250q-15 0 -37 20.5t-22 38.5q0 61 59 218q56 148 92 198l4 8l6 13q38 82 73 83q18 0 28 -12t10 -24q0 -17 -9 -22
q-54 -36 -80 -82q-43 -79 -98 -218q-32 -81 -32 -99q-4 -25 -4 -36q2 -28 25 -25q25 5 98 68q62 54 94 91q15 17 93 90q67 64 95 103q24 35 75 162q7 17 26 17q6 0 12.5 -10t6.5 -18q0 1 -44 -113zM494 697q0 15 12 25.5t28 10.5q17 0 28.5 -10.5t11.5 -25.5
q0 -16 -11.5 -26.5t-28.5 -10.5q-16 0 -28 10.5t-12 26.5zM356 674q0 17 11 28.5t27 11.5t27 -11.5t11 -28.5q0 -16 -11 -28t-27 -12t-27 12t-11 28z" />
    <glyph glyph-name="aacute" unicode="&#xe1;" horiz-adv-x="301" 
d="M313 284q0 -11 -11 -36q-14 -30 -51.5 -82t-50.5 -79q-11 -21 -16 -35q-3 -8 -3 -12q0 -3 4 -3t5 -1q1 -7 22 6q7 -7 7 -9q0 -14 -21.5 -32t-31.5 -18q-12 0 -22 17q-7 14 -14 27q-17 -11 -34 -23q-20 -13 -38 -13q-38 0 -62 49q-7 12 -7 51q0 74 100 175t171 101
q11 0 20 -3l7 -10q-89 -42 -168 -114q-96 -90 -96 -163q0 -15 12 -32t27 -17q14 0 53 36q64 58 108 126q25 39 66 124q8 -3 16 -13t8 -17zM156 409q1 0 72.5 55t73.5 55q6 3 11 3q20 0 20 -21q0 -9 -5 -17q-149 -91 -159 -91z" />
    <glyph glyph-name="agrave" unicode="&#xe0;" horiz-adv-x="301" 
d="M313 284q0 -11 -11 -36q-14 -30 -51.5 -82t-50.5 -79q-11 -21 -16 -35q-3 -8 -3 -12q0 -3 4 -3t5 -1q1 -7 22 6q7 -7 7 -9q0 -14 -21.5 -32t-31.5 -18q-12 0 -22 17q-7 14 -14 27q-17 -11 -34 -23q-20 -13 -38 -13q-38 0 -62 49q-7 12 -7 51q0 74 100 175t171 101
q11 0 20 -3l7 -10q-89 -42 -168 -114q-96 -90 -96 -163q0 -15 12 -32t27 -17q14 0 53 36q64 58 108 126q25 39 66 124q8 -3 16 -13t8 -17zM330 407q-1 0 -73 55t-73 55q-6 3 -12 3q-19 0 -19 -21q0 -9 5 -17q148 -91 159 -91z" />
    <glyph glyph-name="acircumflex" unicode="&#xe2;" horiz-adv-x="301" 
d="M313 284q0 -11 -11 -36q-14 -30 -51.5 -82t-50.5 -79q-11 -21 -16 -35q-3 -8 -3 -12q0 -3 4 -3t5 -1q1 -7 22 6q7 -7 7 -9q0 -14 -21.5 -32t-31.5 -18q-12 0 -22 17q-7 14 -14 27q-17 -11 -34 -23q-20 -13 -38 -13q-38 0 -62 49q-7 12 -7 51q0 74 100 175t171 101
q11 0 20 -3l7 -10q-89 -42 -168 -114q-96 -90 -96 -163q0 -15 12 -32t27 -17q14 0 53 36q64 58 108 126q25 39 66 124q8 -3 16 -13t8 -17zM236 450q-12 1 -63 -33q-55 -36 -60 -38q-13 0 -13 10q0 6 6 14q23 13 58.5 45t55.5 45q5 4 9 7q1 1 13 0q50 -38 111 -82q2 -5 2 -9
q0 -11 -16 -12q-42 26 -103 53z" />
    <glyph glyph-name="adieresis" unicode="&#xe4;" horiz-adv-x="301" 
d="M313 284q0 -11 -11 -36q-14 -30 -51.5 -82t-50.5 -79q-11 -21 -16 -35q-3 -8 -3 -12q0 -3 4 -3t5 -1q1 -7 22 6q7 -7 7 -9q0 -14 -21.5 -32t-31.5 -18q-12 0 -22 17q-7 14 -14 27q-17 -11 -34 -23q-20 -13 -38 -13q-38 0 -62 49q-7 12 -7 51q0 74 100 175t171 101
q11 0 20 -3l7 -10q-89 -42 -168 -114q-96 -90 -96 -163q0 -15 12 -32t27 -17q14 0 53 36q64 58 108 126q25 39 66 124q8 -3 16 -13t8 -17zM284 447q0 15 12 25.5t28 10.5q17 0 28.5 -10.5t11.5 -25.5q0 -16 -11.5 -26.5t-28.5 -10.5q-16 0 -28 10.5t-12 26.5zM146 434
q0 17 11 28.5t27 11.5t27 -11.5t11 -28.5q0 -16 -11 -28t-27 -12t-27 12t-11 28z" />
    <glyph glyph-name="atilde" unicode="&#xe3;" horiz-adv-x="301" 
d="M313 284q0 -11 -11 -36q-14 -30 -51.5 -82t-50.5 -79q-11 -21 -16 -35q-3 -8 -3 -12q0 -3 4 -3t5 -1q1 -7 22 6q7 -7 7 -9q0 -14 -21.5 -32t-31.5 -18q-12 0 -22 17q-7 14 -14 27q-17 -11 -34 -23q-20 -13 -38 -13q-38 0 -62 49q-7 12 -7 51q0 74 100 175t171 101
q11 0 20 -3l7 -10q-89 -42 -168 -114q-96 -90 -96 -163q0 -15 12 -32t27 -17q14 0 53 36q64 58 108 126q25 39 66 124q8 -3 16 -13t8 -17zM296 419q-1 0 -1 4.5t-2 2.5q-20 -16 -61 -16q-19 0 -39.5 14t-35.5 13q-22 -2 -24 -17q-3 -19 -8 -22q-10 -2 -17 -2q-17 0 -17 12
q0 8 11 28q18 30 57 30q26 0 47 -14.5t30 -14.5q22 0 31 7l18 24q5 10 15 10q18 0 18 -16q0 -7 -6 -14q-16 -18 -16 -29z" />
    <glyph glyph-name="aring" unicode="&#xe5;" horiz-adv-x="301" 
d="M313 284q0 -11 -11 -36q-14 -30 -51.5 -82t-50.5 -79q-11 -21 -16 -35q-3 -8 -3 -12q0 -3 4 -3t5 -1q1 -7 22 6q7 -7 7 -9q0 -14 -21.5 -32t-31.5 -18q-12 0 -22 17q-7 14 -14 27q-17 -11 -34 -23q-20 -13 -38 -13q-38 0 -62 49q-7 12 -7 51q0 74 100 175t171 101
q11 0 20 -3l7 -10q-89 -42 -168 -114q-96 -90 -96 -163q0 -15 12 -32t27 -17q14 0 53 36q64 58 108 126q25 39 66 124q8 -3 16 -13t8 -17zM279 515q28 0 49 -15t21 -39t-21 -39t-49 -15q-27 0 -48.5 15t-21.5 39t21.5 39t48.5 15zM279 490q-20 0 -32.5 -9t-12.5 -20
q0 -10 12.5 -19.5t32.5 -9.5t32.5 9.5t12.5 19.5q0 11 -12.5 20t-32.5 9z" />
    <glyph glyph-name="ccedilla" unicode="&#xe7;" horiz-adv-x="377" 
d="M122 35q-16 -56 -40 -103q-32 -62 -60 -62q-14 0 -27 19q-6 9 -6 46q0 45 17 48q8 -67 24 -67q14 0 40 49l30 62q-34 -12 -47 -12q-53 0 -52 59q1 37 34 78q64 79 109 114q17 13 70 46q72 44 89 43l16 -1l4 -16q0 -12 -13 -19q-23 -11 -66 -34q-30 -18 -84 -53
q-19 -13 -61 -59q-56 -61 -57 -90q-1 -25 19 -25q36 0 165.5 87.5t135.5 87.5q14 0 14 -12t-56 -58q-46 -37 -73 -55q-60 -37 -103 -62q-8 -5 -22 -11z" />
    <glyph glyph-name="eacute" unicode="&#xe9;" horiz-adv-x="405" 
d="M352 317q0 -76 -127 -156q-108 -67 -175 -74q-18 -1 -18 -25q0 -41 46 -41q42 0 129 51q5 3 115 75q8 7 13 7q8 0 8 -18q0 -14 -68 -61q-48 -33 -75 -47q-69 -38 -116 -38q-29 0 -54 16q-31 19 -31 51q0 3 6 15t6 15q0 5 -7 10.5t-6 15.5q3 14 13 15h15q51 122 148 192
q65 48 127 48q51 0 51 -51zM319 313q0 19 -36 19q-33 0 -88 -35q-21 -14 -69 -66q-55 -60 -55 -82l-7 -18l31 6q28 -1 122 64q102 70 102 112zM156 409q1 0 72.5 55t73.5 55q6 3 11 3q20 0 20 -21q0 -9 -5 -17q-149 -91 -159 -91z" />
    <glyph glyph-name="egrave" unicode="&#xe8;" horiz-adv-x="405" 
d="M352 317q0 -76 -127 -156q-108 -67 -175 -74q-18 -1 -18 -25q0 -41 46 -41q42 0 129 51q5 3 115 75q8 7 13 7q8 0 8 -18q0 -14 -68 -61q-48 -33 -75 -47q-69 -38 -116 -38q-29 0 -54 16q-31 19 -31 51q0 3 6 15t6 15q0 5 -7 10.5t-6 15.5q3 14 13 15h15q51 122 148 192
q65 48 127 48q51 0 51 -51zM319 313q0 19 -36 19q-33 0 -88 -35q-21 -14 -69 -66q-55 -60 -55 -82l-7 -18l31 6q28 -1 122 64q102 70 102 112zM360 407q-1 0 -73 55t-73 55q-6 3 -12 3q-19 0 -19 -21q0 -9 5 -17q148 -91 159 -91z" />
    <glyph glyph-name="ecircumflex" unicode="&#xea;" horiz-adv-x="405" 
d="M352 317q0 -76 -127 -156q-108 -67 -175 -74q-18 -1 -18 -25q0 -41 46 -41q42 0 129 51q5 3 115 75q8 7 13 7q8 0 8 -18q0 -14 -68 -61q-48 -33 -75 -47q-69 -38 -116 -38q-29 0 -54 16q-31 19 -31 51q0 3 6 15t6 15q0 5 -7 10.5t-6 15.5q3 14 13 15h15q51 122 148 192
q65 48 127 48q51 0 51 -51zM319 313q0 19 -36 19q-33 0 -88 -35q-21 -14 -69 -66q-55 -60 -55 -82l-7 -18l31 6q28 -1 122 64q102 70 102 112zM286 450q-12 1 -63 -33q-55 -36 -60 -38q-13 0 -13 10q0 6 6 14q23 13 58.5 45t55.5 45q5 4 9 7q1 1 13 0q50 -38 111 -82
q2 -5 2 -9q0 -11 -16 -12q-42 26 -103 53z" />
    <glyph glyph-name="edieresis" unicode="&#xeb;" horiz-adv-x="405" 
d="M352 317q0 -76 -127 -156q-108 -67 -175 -74q-18 -1 -18 -25q0 -41 46 -41q42 0 129 51q5 3 115 75q8 7 13 7q8 0 8 -18q0 -14 -68 -61q-48 -33 -75 -47q-69 -38 -116 -38q-29 0 -54 16q-31 19 -31 51q0 3 6 15t6 15q0 5 -7 10.5t-6 15.5q3 14 13 15h15q51 122 148 192
q65 48 127 48q51 0 51 -51zM319 313q0 19 -36 19q-33 0 -88 -35q-21 -14 -69 -66q-55 -60 -55 -82l-7 -18l31 6q28 -1 122 64q102 70 102 112zM284 447q0 15 12 25.5t28 10.5q17 0 28.5 -10.5t11.5 -25.5q0 -16 -11.5 -26.5t-28.5 -10.5q-16 0 -28 10.5t-12 26.5zM146 434
q0 17 11 28.5t27 11.5t27 -11.5t11 -28.5q0 -16 -11 -28t-27 -12t-27 12t-11 28z" />
    <glyph glyph-name="iacute" unicode="&#xed;" horiz-adv-x="170" 
d="M135 356l-5 -61l-83 -252q5 -9 14 -9q13 0 21 9q2 -21 -22.5 -49.5t-46.5 -30.5q-11 0 -18 18q-4 13 -8 27l107 303q7 22 9 48q1 11 1 22q2 4 5 4q10 0 26 -29zM46 409q1 0 72.5 55t73.5 55q6 3 11 3q20 0 20 -21q0 -9 -5 -17q-149 -91 -159 -91z" />
    <glyph glyph-name="igrave" unicode="&#xec;" horiz-adv-x="170" 
d="M135 356l-5 -61l-83 -252q5 -9 14 -9q13 0 21 9q2 -21 -22.5 -49.5t-46.5 -30.5q-11 0 -18 18q-4 13 -8 27l107 303q7 22 9 48q1 11 1 22q2 4 5 4q10 0 26 -29zM230 407q-1 0 -73 55t-73 55q-6 3 -12 3q-19 0 -19 -21q0 -9 5 -17q148 -91 159 -91z" />
    <glyph glyph-name="icircumflex" unicode="&#xee;" horiz-adv-x="170" 
d="M135 356l-5 -61l-83 -252q5 -9 14 -9q13 0 21 9q2 -21 -22.5 -49.5t-46.5 -30.5q-11 0 -18 18q-4 13 -8 27l107 303q7 22 9 48q1 11 1 22q2 4 5 4q10 0 26 -29zM136 450q-12 1 -63 -33q-55 -36 -60 -38q-13 0 -13 10q0 6 6 14q23 13 58.5 45t55.5 45q5 4 9 7q1 1 13 0
q50 -38 111 -82q2 -5 2 -9q0 -11 -16 -12q-42 26 -103 53z" />
    <glyph glyph-name="idieresis" unicode="&#xef;" horiz-adv-x="170" 
d="M135 356l-5 -61l-83 -252q5 -9 14 -9q13 0 21 9q2 -21 -22.5 -49.5t-46.5 -30.5q-11 0 -18 18q-4 13 -8 27l107 303q7 22 9 48q1 11 1 22q2 4 5 4q10 0 26 -29zM144 467q0 15 12 25.5t28 10.5q17 0 28.5 -10.5t11.5 -25.5q0 -16 -11.5 -26.5t-28.5 -10.5q-16 0 -28 10.5
t-12 26.5zM6 454q0 17 11 28.5t27 11.5t27 -11.5t11 -28.5q0 -16 -11 -28t-27 -12t-27 12t-11 28z" />
    <glyph glyph-name="ntilde" unicode="&#xf1;" horiz-adv-x="341" 
d="M319 262q-17 -47 -44 -137q-11 -42 -11 -104q0 -21 -32 -26q-14 0 -17 12l-4 16l63 235q2 28 -7 28q-4 0 -17 -9q-46 -31 -92 -85q-9 -11 -75 -97l-36 -50q-31 -41 -46 -41q-5 0 -11.5 5t-6.5 10q0 3 15.5 30t17.5 35q29 90 59 226q0 10 11 20q8 4 22 3q4 -7 4 -27
t-15 -71q-11 -37 -22 -75q47 49 95 97q75 75 109 75q21 0 32 -19.5t8 -50.5zM296 399q-1 0 -1 4.5t-2 2.5q-20 -16 -61 -16q-19 0 -39.5 14t-35.5 13q-22 -2 -24 -17q-3 -19 -8 -22q-10 -2 -17 -2q-17 0 -17 12q0 8 11 28q18 30 57 30q26 0 47 -14.5t30 -14.5q22 0 31 7
l18 24q5 10 15 10q18 0 18 -16q0 -7 -6 -14q-15 -16 -16 -29z" />
    <glyph glyph-name="oacute" unicode="&#xf3;" horiz-adv-x="349" 
d="M341 290q0 -77 -107 -211q-110 -137 -183 -137q-28 0 -46 14q-22 17 -22 49q0 69 85.5 211t146.5 171q5 2 10 2q15 0 7 -26q-209 -237 -210 -363q4 -5 7 -9q6 -8 22 -9q59 -5 154 118q92 118 97 189q1 14 1 16q-2 4 -11 9q-27 0 -68 -62q-54 -82 -57 -85q-19 2 -19 23
q27 58 62 105q51 67 92 67q39 -1 39 -72zM176 419q1 0 72.5 55t73.5 55q6 3 11 3q20 0 20 -21q0 -9 -5 -17q-149 -91 -159 -91z" />
    <glyph glyph-name="ograve" unicode="&#xf2;" horiz-adv-x="349" 
d="M341 290q0 -77 -107 -211q-110 -137 -183 -137q-28 0 -46 14q-22 17 -22 49q0 69 85.5 211t146.5 171q5 2 10 2q15 0 7 -26q-209 -237 -210 -363q4 -5 7 -9q6 -8 22 -9q59 -5 154 118q92 118 97 189q1 14 1 16q-2 4 -11 9q-27 0 -68 -62q-54 -82 -57 -85q-19 2 -19 23
q27 58 62 105q51 67 92 67q39 -1 39 -72zM380 407q-1 0 -73 55t-73 55q-6 3 -12 3q-19 0 -19 -21q0 -9 5 -17q148 -91 159 -91z" />
    <glyph glyph-name="ocircumflex" unicode="&#xf4;" horiz-adv-x="349" 
d="M341 290q0 -77 -107 -211q-110 -137 -183 -137q-28 0 -46 14q-22 17 -22 49q0 26 26 100q33 90 78 159q59 91 128 123q5 2 10 2q15 0 7 -26q-209 -237 -210 -363q4 -5 7 -9q6 -8 22 -9q59 -5 154 118q92 118 97 189q1 14 1 16q-2 4 -11 9q-27 0 -68 -62q-54 -82 -57 -85
q-19 2 -19 23q27 58 62 105q51 67 92 67q39 -1 39 -72zM256 460q-12 1 -63 -33q-55 -36 -60 -38q-13 0 -13 10q0 6 6 14q23 13 58.5 45t55.5 45q5 4 9 7q1 1 13 0q50 -38 111 -82q2 -5 2 -9q0 -11 -16 -12q-42 26 -103 53z" />
    <glyph glyph-name="odieresis" unicode="&#xf6;" horiz-adv-x="349" 
d="M341 290q0 -77 -107 -211q-110 -137 -183 -137q-28 0 -46 14q-22 17 -22 49q0 69 85.5 211t146.5 171q5 2 10 2q15 0 7 -26q-209 -237 -210 -363q4 -5 7 -9q6 -8 22 -9q59 -5 154 118q92 118 97 189q1 14 1 16q-2 4 -11 9q-27 0 -68 -62q-54 -82 -57 -85q-19 2 -19 23
q27 58 62 105q51 67 92 67q39 -1 39 -72zM304 467q0 15 12 25.5t28 10.5q17 0 28.5 -10.5t11.5 -25.5q0 -16 -11.5 -26.5t-28.5 -10.5q-16 0 -28 10.5t-12 26.5zM166 454q0 17 11 28.5t27 11.5t27 -11.5t11 -28.5q0 -16 -11 -28t-27 -12t-27 12t-11 28z" />
    <glyph glyph-name="otilde" unicode="&#xf5;" horiz-adv-x="349" 
d="M341 290q0 -77 -107 -211q-110 -137 -183 -137q-28 0 -46 14q-22 17 -22 49q0 69 85.5 211t146.5 171q5 2 10 2q15 0 7 -26q-209 -237 -210 -363q4 -5 7 -9q6 -8 22 -9q59 -5 154 118q92 118 97 189q1 14 1 16q-2 4 -11 9q-27 0 -68 -62q-54 -82 -57 -85q-19 2 -19 23
q27 58 62 105q51 67 92 67q39 -1 39 -72zM376 439q-1 0 -1 4.5t-2 2.5q-20 -16 -61 -16q-19 0 -39.5 14t-35.5 13q-22 -2 -24 -17q-3 -19 -8 -22q-10 -2 -17 -2q-17 0 -17 12q0 8 11 28q18 30 57 30q26 0 47 -14.5t30 -14.5q22 0 31 7l18 24q5 10 15 10q18 0 18 -16
q0 -7 -6 -14q-16 -18 -16 -29z" />
    <glyph glyph-name="uacute" unicode="&#xfa;" horiz-adv-x="289" 
d="M292 296l-35 -74t-39 -93q-3 -24 -6 -47q-7 -34 -22 -34q-12 0 -12 28q0 11 4 31.5t4 30.5q-26 -28 -83 -73q-69 -55 -89 -55q-21 0 -21 28q0 49 40 148q37 93 71 139h4q6 0 12 -7.5t6 -13.5q0 -5 -23 -50q-14 -27 -29 -54q-35 -73 -48 -133q3 -8 10 -8q14 0 87 66
q65 59 86 84q2 3 28 58q22 45 35 45h11q9 0 9 -16zM126 399q1 0 72.5 55t73.5 55q6 3 11 3q20 0 20 -21q0 -9 -5 -17q-149 -91 -159 -91z" />
    <glyph glyph-name="ugrave" unicode="&#xf9;" horiz-adv-x="289" 
d="M292 296l-35 -74t-39 -93q-3 -24 -6 -47q-7 -34 -22 -34q-12 0 -12 28q0 11 4 31.5t4 30.5q-26 -28 -83 -73q-69 -55 -89 -55q-21 0 -21 28q0 49 40 148q37 93 71 139h4q6 0 12 -7.5t6 -13.5q0 -5 -23 -50q-14 -27 -29 -54q-35 -73 -48 -133q3 -8 10 -8q14 0 87 66
q65 59 86 84q2 3 28 58q22 45 35 45h11q9 0 9 -16zM320 367q-1 0 -73 55t-73 55q-6 3 -12 3q-19 0 -19 -21q0 -9 5 -17q148 -91 159 -91z" />
    <glyph glyph-name="ucircumflex" unicode="&#xfb;" horiz-adv-x="289" 
d="M292 296l-35 -74t-39 -93q-3 -24 -6 -47q-7 -34 -22 -34q-12 0 -12 28q0 11 4 31.5t4 30.5q-26 -28 -83 -73q-69 -55 -89 -55q-21 0 -21 28q0 49 40 148q37 93 71 139h4q6 0 12 -7.5t6 -13.5q0 -5 -23 -50q-14 -27 -29 -54q-35 -73 -48 -133q3 -8 10 -8q14 0 87 66
q65 59 86 84q2 3 28 58q22 45 35 45h11q9 0 9 -16zM206 450q-12 1 -63 -33q-55 -36 -60 -38q-13 0 -13 10q0 6 6 14q23 13 58.5 45t55.5 45q5 4 9 7q1 1 13 0q50 -38 111 -82q2 -5 2 -9q0 -11 -16 -12q-42 26 -103 53z" />
    <glyph glyph-name="udieresis" unicode="&#xfc;" horiz-adv-x="289" 
d="M292 296l-35 -74t-39 -93q-3 -24 -6 -47q-7 -34 -22 -34q-12 0 -12 28q0 11 4 31.5t4 30.5q-26 -28 -83 -73q-69 -55 -89 -55q-21 0 -21 28q0 49 40 148q37 93 71 139h4q6 0 12 -7.5t6 -13.5q0 -5 -23 -50q-14 -27 -29 -54q-35 -73 -48 -133q3 -8 10 -8q14 0 87 66
q65 59 86 84q2 3 28 58q22 45 35 45h11q9 0 9 -16zM254 427q0 15 12 25.5t28 10.5q17 0 28.5 -10.5t11.5 -25.5q0 -16 -11.5 -26.5t-28.5 -10.5q-16 0 -28 10.5t-12 26.5zM116 414q0 17 11 28.5t27 11.5t27 -11.5t11 -28.5q0 -16 -11 -28t-27 -12t-27 12t-11 28z" />
    <glyph glyph-name="dagger" unicode="&#x2020;" 
 />
    <glyph glyph-name="degree" unicode="&#xb0;" horiz-adv-x="259" 
d="M93 701q41 0 70 -30t29 -72t-29 -72t-70 -30t-70 30t-29 72t29 72t70 30zM93 676q-30 0 -52 -22.5t-22 -54.5t22 -54.5t52 -22.5t52 22.5t22 54.5t-22 54.5t-52 22.5z" />
    <glyph glyph-name="cent" unicode="&#xa2;" horiz-adv-x="457" 
d="M160 242q17 51 39 116q-118 -52 -133 -88q-10 -24 10 -31q21 -8 84 3zM269 554l34 4q-8 -31 -40 -142q95 22 127 22q10 0 14 -2l15 -7l-2 -16q-4 -11 -19 -14q-25 -2 -73 -9q-25 -4 -74 -15q-20 -67 -38 -122q23 6 132 34q66 17 73 14q13 -5 9 -16q-4 -12 -72 -36
q-56 -19 -88 -26q-38 -8 -69 -14q-51 -151 -67 -151q-11 0 -13 24q-2 19 29 117q-63 -9 -94 3q-35 12 -35 43q0 13 7 30q13 34 58 61q81 49 132 67q27 78 54 151z" />
    <glyph glyph-name="sterling" unicode="&#xa3;" horiz-adv-x="419" 
d="M20 233q9 1 77 38q-55 77 -55 120q0 64 45 123q48 63 110 63q92 0 127 -79l15 -69l-25 -2q-7 122 -113 122q-64 0 -101 -54q-32 -47 -32 -115q0 -34 49 -99q49 28 133 75l13 -22q-38 -22 -132 -73q29 -43 29 -79q0 -44 -28 -98l-48 -90q71 43 141 86q108 66 139 79l9 -24
q-34 -14 -295 -176q-6 0 -19 13.5t-13 17.5q18 27 41 68l30 60q18 37 18 64q0 30 -24 68q-77 -41 -91 -42v25z" />
    <glyph glyph-name="section" unicode="&#xa7;" 
 />
    <glyph glyph-name="bullet" unicode="&#x2022;" horiz-adv-x="285" 
d="M16 291q0 41 29 70t70 29t70 -29t29 -70t-29 -70t-70 -29t-70 29t-29 70z" />
    <glyph glyph-name="paragraph" unicode="&#xb6;" 
 />
    <glyph glyph-name="germandbls" unicode="&#xdf;" horiz-adv-x="326" 
d="M7 378l54 -9q56 218 82.5 238.5t59.5 20.5q40 0 72 -29t37 -72q0 -127 -123 -180q8 -21 33 -54q22 -31 31 -58q14 -42 14 -110q0 -20 -1 -44q-2 -36 -14 -64q-31 -76 -86 -108q-46 -26 -133 -33l-2 25q79 6 117 30q43 26 72 96q10 24 11 56q5 83 -15 146q-13 39 -60 130
q65 25 94 61q31 40 31 110q-9 71 -65 71q-25 0 -46 -16q-28 -21 -85 -270q-35 -155 -69 -311l-40 10q22 99 80 336l-50 9z" />
    <glyph glyph-name="registered" unicode="&#xae;" horiz-adv-x="437" 
d="M389 529q0 -69 -49 -118t-119 -49q-69 0 -118 49t-49 118q0 70 49 119t118 49q70 0 119 -49t49 -119zM373 529q0 63 -44.5 107.5t-107.5 44.5q-62 0 -106.5 -44.5t-44.5 -107.5t44.5 -107t106.5 -44q63 0 107.5 44t44.5 107zM211 614q55 13 80 13q7 0 17.5 -5.5
t10.5 -12.5q0 -19 -57 -62q-42 -32 -77 -51l-1 9l4 -1q75 -23 75 -48q0 -8 -15 -8q-38 34 -74 34q-9 0 -12 -15.5t-3 -17.5q-3 -9 -10 -15q-8 0 -12.5 2.5t-2.5 8.5l1 2q0 10 5 25v-1q-2 -1 -4 -1q-9 0 -9 11q0 10 23 21l27 78l-14 -4q-4 7 -4 12q0 7 29 18q2 8 4.5 13
t9.5 6q9 -5 9 -10v-1zM177 513q48 24 106 83q3 2 7 6q0 4 -12 3q-34 -5 -74 -17q-2 -1 -6 -14l-14 -40q-6 -17 -7 -21z" />
    <glyph glyph-name="copyright" unicode="&#xa9;" horiz-adv-x="725" 
d="M132 210q-3 19 -3 36q0 89 62 161q48 54 136 101q65 31 131 62q26 4 26 -22v-6q-1 -4 -1 -5q0 -24 -28.5 -62t-54.5 -46l-12 8q33 62 14 62q-2 0 -34 -9q-42 -12 -108 -65q-102 -82 -97 -179q6 -105 106 -105q57 0 132 34q66 30 109 67h12q1 0 3 -6q-37 -45 -109 -85
q-84 -45 -152 -45q-49 0 -86 28.5t-46 75.5zM338 676q141 0 240.5 -99.5t99.5 -240.5t-99.5 -240.5t-240.5 -99.5t-240.5 99.5t-99.5 240.5t99.5 240.5t240.5 99.5zM338 651q-129 0 -215.5 -91.5t-86.5 -223.5t86.5 -223.5t215.5 -91.5t215.5 91.5t86.5 223.5t-86.5 223.5
t-215.5 91.5z" />
    <glyph glyph-name="trademark" unicode="&#x2122;" horiz-adv-x="523" 
d="M413 430q5 -5 16 -21l-7 -15q-3 -8 -11 -11q-3 -2 -14 -7q-20 20 -18 33l26 167q-14 -23 -43 -69q-52 -81 -77 -81q-31 0 -30 25q1 33 5 100q-5 -7 -36 -80q-24 -57 -46 -57q-12 0 -12 13q0 4 45.5 96t53.5 103q3 3 11 7l13 -8q-7 -164 -7 -152q0 -7 6 -7q17 0 59 67
q26 45 53 90q19 31 25 31q13 0 13 -24q0 -34 -12 -101t-13 -99zM199 639q-17 -2 -18 -5q-10 -20 -29 -61q-15 -40 -48 -120q-23 -52 -33 -51q-7 0 -15 5q17 58 86 220q-5 -5 -16 -5q-5 0 -76 -24q-17 -6 -53 -16q-6 7 -6 15q0 15 30 24q23 6 47 12l215 51q7 -6 7 -12t-6 -11
q-14 -4 -86 -36q-2 9 1 14z" />
    <glyph glyph-name="acute" unicode="&#xb4;" horiz-adv-x="578" 
d="M206 649q1 0 72.5 55t73.5 55q6 3 11 3q20 0 20 -21q0 -9 -5 -17q-149 -91 -159 -91z" />
    <glyph glyph-name="dieresis" unicode="&#xa8;" horiz-adv-x="587" 
d="M334 757q0 15 12 25.5t28 10.5q17 0 28.5 -10.5t11.5 -25.5q0 -16 -11.5 -26.5t-28.5 -10.5q-16 0 -28 10.5t-12 26.5zM196 734q0 17 11 28.5t27 11.5t27 -11.5t11 -28.5q0 -16 -11 -28t-27 -12t-27 12t-11 28z" />
    <glyph glyph-name="AE" unicode="&#xc6;" horiz-adv-x="821" 
d="M534 650q-6 -15 -15 -66l231 54l16 -4l3 -6q0 -18 -112 -49q-69 -19 -138 -37l-57 -207l3 -3q32 13 327 111l16 -6l7 -17q0 -15 -164 -70q-202 -67 -204 -68l-53 -184l3 -3q43 18 193 67q159 51 173 49l8 -13q0 -18 -179 -80q-202 -71 -217 -80l-2 -3q-11 -42 -21 -87
q-2 2 -4 5l-2 -5q-17 -3 -19 -2q-7 1 -7 15q22 135 63 297q-28 -4 -184 -47q-137 -277 -208 -274l-28 14l182 240q-16 -6 -34 -12q-13 1 -41 -12t-32 -13q-18 1 -22 21l9 26q113 26 170 51q20 8 306 423q7 -4 33 -25zM457 550l-193 -272q89 18 134 36q6 21 17 63
q13 58 42 173z" />
    <glyph glyph-name="Oslash" unicode="&#xd8;" horiz-adv-x="550" 
d="M9 62q11 -71 53 -71q115 0 241 189q113 168 143 328zM479 542q-9 -100 -71 -239q-65 -148 -149 -244q-98 -113 -186 -113q-62 0 -87 92l-42 -42l-18 17l53 54l-4 24q-6 54 49 191.5t127 240.5q82 120 139 120q5 0 19 -12q-102 -84 -196.5 -252.5t-103.5 -281.5l443 453
q1 8 1 16q0 15 -12 23.5t-26 8.5q-54 0 -107 -82q-35 -64 -69 -129l-6 -1q-9 11 -9 36q0 76 74 146q64 61 144 83q32 -6 38 -72l69 70l18 -18z" />
    <glyph glyph-name="plusminus" unicode="&#xb1;" 
 />
    <glyph glyph-name="yen" unicode="&#xa5;" horiz-adv-x="559" 
d="M92 176h107q-9 26 -47 90q-18 28 -55 86q-19 31 -51 121q-34 99 -29 127q4 8 18 11q15 4 26 0q13 -9 14 -43q0 -21 4 -59q7 -25 21 -73q43 -128 117 -186q40 64 94 141q57 82 92 138q13 23 41 70q25 42 33 42q38 0 38 -32q0 1 -9 -6q-17 -13 -53 -65t-155 -239
q-31 -49 -43 -123h97l-4 -26h-97q-2 -18 -8 -54h102l-3 -26l-105 -1q-11 -42 -31.5 -78.5t-37.5 -36.5q-13 0 -21 24q31 69 39 91h-116l16 27h108q2 9 8 54h-119z" />
    <glyph glyph-name="mu" unicode="&#xb5;" horiz-adv-x="510" 
d="M70 245q64 153 151 343q10 24 20.5 48.5t32.5 42.5q18 2 29 -5t9 -24q-4 -49 -42 -124q-6 -12 -66 -117q-26 -44 -52 -104l13 9l181 132q19 -6 19 -25q0 -13 -8 -27q-27 -11 -55 -25q-65 -34 -122 -75l-46 -33l-4 -10q-20 -53 -67 -161q1 -1 0 -5q-1 -7 -1 -10
q1 -16 23 -16q24 0 95 37l98 52q44 25 87 50q51 29 94 37q21 -4 21 -32q0 -19 -19 -27l-422 -185q-39 14 -39 59q0 24 52 152q-59 -43 -59 -47q-19 -3 -19 10q0 5 3.5 10t92.5 70z" />
    <glyph glyph-name="mu" unicode="&#x3bc;" horiz-adv-x="510" 
d="M70 245q64 153 151 343q10 24 20.5 48.5t32.5 42.5q18 2 29 -5t9 -24q-4 -49 -42 -124q-6 -12 -66 -117q-26 -44 -52 -104l13 9l181 132q19 -6 19 -25q0 -13 -8 -27q-27 -11 -55 -25q-65 -34 -122 -75l-46 -33l-4 -10q-20 -53 -67 -161q1 -1 0 -5q-1 -7 -1 -10
q1 -16 23 -16q24 0 95 37l98 52q44 25 87 50q51 29 94 37q21 -4 21 -32q0 -19 -19 -27l-422 -185q-39 14 -39 59q0 24 52 152q-59 -43 -59 -47q-19 -3 -19 10q0 5 3.5 10t92.5 70z" />
    <glyph glyph-name="ordfeminine" unicode="&#xaa;" horiz-adv-x="691" 
d="M49 38q-10 -13 -11 -25q-6 -13 14 -13q5 2 26 11l240 115q264 125 280 125q4 0 12 -10.5t8 -16.5q0 -11 -86 -47q-243 -102 -363 -160q-40 -21 -79 -41q-60 -30 -78 -30q-44 0 -44 36q0 19 22 49q18 21 35 43q31 40 109 136q15 18 68 75l319 342l-16 15q-94 -36 -188 -71
q-109 -42 -184 -82q-28 -15 -32 -15q-6 0 -14 5.5t-8 8.5q0 23 91 69q102 51 174 74q115 38 172 51q37 12 84 25q5 1 26 5q9 1 10 1q2 -1 2 -6q0 -1 1 -3t1.5 -4.5t1.5 -13.5q-408 -405 -593 -648zM331 725q12 0 62.5 38.5t55.5 40.5q13 1 13 -10q0 -5 -4 -13
q-22 -14 -55.5 -49t-52.5 -48l-9 -9h-12q-53 34 -116 74q-3 6 -3 10q0 9 15 11q89 -45 106 -45z" />
    <glyph glyph-name="ordmasculine" unicode="&#xba;" horiz-adv-x="338" 
d="M234 46q-95 -327 -223 -327q-23 0 -41.5 23.5t-19.5 49.5q-2 71 35 122q29 41 94 82q63 37 127 74q18 28 18 60q0 24 -34 24q-21 0 -61 -28q-33 -23 -54 -46q-13 2 -13 18q0 1 89 99.5t89 106.5q0 7 -4 7q-25 0 -101 -59l-100 -80h-12l-6 16q0 30 112 101.5t147 71.5
q15 0 15 -21q0 -16 -51 -81q-33 -40 -66 -81q34 6 28 6q48 0 48 -31q0 -28 -8 -67q30 14 89 44l13 -12q-8 -14 -49 -38q-31 -17 -61 -34zM194 24q-6 -1 -17.5 -4t-55.5 -31q-73 -47 -99 -76q-42 -47 -42 -112q0 -18 8 -34q10 -19 26 -19q58 0 119 111q53 95 61 165zM151 415
q12 0 62.5 38.5t55.5 40.5q13 1 13 -10q0 -5 -4 -13q-22 -14 -55.5 -49t-52.5 -48l-9 -9h-12q-53 34 -116 74q-3 6 -3 10q0 9 15 11q89 -45 106 -45z" />
    <glyph glyph-name="ae" unicode="&#xe6;" horiz-adv-x="569" 
d="M522 317q0 -77 -116 -149q-82 -50 -186 -81q-18 -5 -18 -25q0 -16 14.5 -28.5t31.5 -12.5q48 0 153 66q52 34 104 67q8 -7 8 -18q0 -30 -109.5 -88t-149.5 -58q-50 0 -67 17q-12 19 -24 39l-50 -32q-37 -23 -55 -23q-30 0 -50 27q-19 24 -19 55q0 83 95 188.5t176 105.5
q9 0 20 -3l7 -10q-88 -41 -166 -113q-98 -90 -98 -164q0 -16 12 -32.5t27 -16.5q46 0 130 121q59 86 97 165q13 -6 22 -21q81 75 160 75q51 0 51 -51zM489 313q0 19 -36 19q-52 0 -123 -65q-64 -59 -88 -114q-2 -7 -8 -22l31 6q45 8 131 70q93 68 93 106z" />
    <glyph glyph-name="oslash" unicode="&#xf8;" horiz-adv-x="349" 
d="M26 36q-4 -19 -4 -36q4 -5 7 -9q6 -8 22 -9q45 -4 119 76q67 72 108 156zM341 290v0l40 28l15 -20l-60 -43q-27 -90 -121 -199q-100 -114 -164 -114q-27 0 -46 14q-22 17 -22 49l-38 -27l-14 21l56 40q20 83 96 201q78 122 132 147q5 2 10 2q15 0 7 -26
q-152 -172 -194 -289l257 183q6 18 7 32t1 16q-2 4 -11 9q-27 0 -68 -62q-54 -82 -57 -85q-19 2 -19 23q27 58 62 105q51 67 92 67q40 -1 39 -72z" />
    <glyph glyph-name="questiondown" unicode="&#xbf;" horiz-adv-x="559" 
d="M351 196q-22 -2 -73 -40q-55 -40 -64 -40q-6 0 -12.5 6.5t-6.5 13.5q0 17 69 68q63 46 95.5 60.5t52.5 14.5q13 0 23 -9q-1 -1 0 -2v0l1 -1q4 -3 4 -8q0 -46 -181 -215l-123 -115q-28 -26 -92 -84v-12q15 2 41 1h20q9 -1 11 -1q4 0 30 6l48 10q171 67 257 146q3 9 11 23
q13 12 36 38q11 0 21.5 -11.5t10.5 -19.5q0 -16 -66 -66q-50 -39 -70 -51q-191 -111 -328 -111q-59 0 -64 49l349 341v9zM469 469q-7 -84 -166 -131l-5 6v26q84 52 171 99z" />
    <glyph glyph-name="exclamdown" unicode="&#xa1;" horiz-adv-x="386" 
d="M5 -192l285 578q6 -1 14 -9.5t8 -15.5l-275 -591q-9 2 -21 15.5t-11 22.5zM312 515q0 18 34 49q31 29 35 28q5 -5 5 -10q0 -15 -18 -49q-19 -38 -34 -38q-6 0 -14 7t-8 13z" />
    <glyph glyph-name="logicalnot" unicode="&#xac;" 
 />
    <glyph glyph-name="florin" unicode="&#x192;" 
 />
    <glyph glyph-name="guillemotleft" unicode="&#xab;" horiz-adv-x="301" 
d="M161 287q-1 5 4 5l1 -1q0 -4 7 -22.5t20 -54.5l33 -87q4 -13 -10 -20l-92 188q0 3 54.5 64.5t69.5 75.5q10 9 10 -3v-17q-94 -128 -97 -128zM61 287q-1 5 4 5l1 -1q0 -4 7 -22.5t20 -54.5l33 -87q4 -13 -10 -20l-92 188q0 3 54.5 64.5t69.5 75.5q10 9 10 -3v-17
q-94 -128 -97 -128z" />
    <glyph glyph-name="guillemotright" unicode="&#xbb;" horiz-adv-x="301" 
d="M217 254h-1v0q-1 4 -7.5 23t-19.5 54l-33 87q-5 13 10 21l92 -189q0 -2 -54.5 -63.5t-70.5 -76.5q-9 -9 -9 3v18q36 49 93 123zM117 254h-1v0q-1 4 -7.5 23t-19.5 54l-33 87q-5 13 10 21l92 -189q0 -2 -54.5 -63.5t-70.5 -76.5q-9 -9 -9 3v18q36 49 93 123z" />
    <glyph glyph-name="ellipsis" unicode="&#x2026;" horiz-adv-x="668" 
d="M387 69q-71 -61 -83 -61h-24q-4 1 -4 9q0 28 35 55q29 22 48 24q30 6 30 -19q0 -4 -2 -8zM597 69q-71 -61 -83 -61h-24q-4 1 -4 9q0 28 35 55q29 22 48 24q30 6 30 -19q0 -4 -2 -8zM177 69q-71 -61 -83 -61h-24q-4 1 -4 9q0 28 35 55q29 22 48 24q30 6 30 -19q0 -4 -2 -8
z" />
    <glyph glyph-name="nonbreakingspace" unicode="&#xa0;" horiz-adv-x="1002" 
 />
    <glyph glyph-name="Agrave" unicode="&#xc0;" horiz-adv-x="536" 
d="M473 309q-17 -5 -51 -20q-13 -117 -27 -331q-28 18 -27 32l11 277l-2 2q-1 6 -8 6q-6 0 -75 -21l-52 -14q-30 -10 -43 -28q-1 -1 -7 -14l-16 -34q-112 -237 -150 -237h-17v17l140 246l-3 3h-1q-1 1 -3 2q-11 -1 -8 -1q-4 0 -42 -19t-42 -19q-25 0 -26 13q-1 5 1 14t3 12
q89 25 160 57q7 4 27 36q9 16 29 52q22 42 62 124q38 75 113 222q24 -16 24 -22l-15 -63q-3 -12 -3 -15v-246q1 -1 1.5 -3t2.5 -1h1h5q6 0 37 9q39 12 42 12h9q1 -33 -50 -48zM251 281h18q57 16 112 43q3 74 16 236zM500 704q-1 0 -73 55t-73 55q-6 3 -11 3q-20 0 -20 -21
q0 -8 5 -17q149 -91 159 -91z" />
    <glyph glyph-name="Atilde" unicode="&#xc3;" horiz-adv-x="536" 
d="M466 309q-17 -5 -51 -20q-13 -117 -27 -331q-28 18 -27 32l11 277q-2 1 -2 2q-1 6 -8 6q-6 0 -76 -21q-25 -7 -51 -14q-30 -10 -43 -28q-1 -1 -7 -14l-16 -34q-112 -237 -150 -237h-17v17l139 246l-2 3h-1q-1 1 -3 2q-12 -1 -8 -1q-4 0 -42 -19t-42 -19q-25 0 -27 13
q0 5 2 14t2 12q90 25 161 57q7 4 27 36q9 16 29 52l62 124q38 75 113 222q24 -16 24 -22l-15 -63q-3 -12 -3 -15v-246q1 -1 1.5 -3t2.5 -1h1h5q5 0 37 9q38 12 41 12h10q1 -33 -50 -48zM244 281h18q57 16 111 43q4 74 17 236zM498 742v5q0 4 -3 2q-19 -16 -60 -16
q-19 0 -42 15t-38 13q-18 -1 -35 -38q1 -10 -4 -27q-5 -2 -10 -2q-25 0 -20 28q6 12 19 36q18 30 56 30q26 0 47.5 -14t30.5 -14q22 0 30 7q10 12 19 23q4 11 15 11q18 0 18 -16q0 -7 -6 -14q-15 -16 -17 -29z" />
    <glyph glyph-name="Otilde" unicode="&#xd5;" horiz-adv-x="550" 
d="M73 -54q-80 0 -98 145q-6 54 49 191.5t127 240.5q82 120 139 120q5 0 19 -12q-107 -88 -204 -266t-97 -286q0 -28 12 -55q16 -33 42 -33q87 0 184 113q84 98 147 240q60 138 60 222q0 15 -12 23.5t-26 8.5q-54 0 -107 -82q-35 -64 -69 -129l-6 -1q-9 11 -9 36
q0 76 74 146q64 61 144 83q18 -3 29 -34q10 -25 10 -49q0 -91 -62 -239q-64 -155 -152 -261q-102 -122 -194 -122zM418 742v5q0 4 -3 2q-19 -16 -60 -16q-19 0 -42 15t-38 13q-18 -1 -35 -38q1 -10 -4 -27q-5 -2 -10 -2q-25 0 -20 28q6 12 19 36q18 30 56 30q26 0 47.5 -14
t30.5 -14q22 0 30 7q10 12 19 23q4 11 15 11q18 0 18 -16q0 -7 -6 -14q-15 -16 -17 -29z" />
    <glyph glyph-name="OE" unicode="&#x152;" horiz-adv-x="795" 
d="M422 300q-52 -177 -52 -183l3 -4q359 149 365 147q8 -4 8 -14q0 -19 -169 -92q-201 -88 -206 -91q-8 -16 -17.5 -51t-18.5 -52q-40 -3 -40 19q0 10 7 28l14 34q-14 -3 -15 -3t-3.5 -1.5t-5.5 -2.5h-18l-5 15q0 21 17.5 28t35.5 14q10 42 22 87q-139 -232 -271 -232
q-80 0 -98 145q-6 54 49 191.5t127 240.5q82 120 139 120q5 0 19 -12q-107 -88 -204 -266t-97 -286q0 -28 12 -55q16 -33 42 -33q87 0 184 113q85 98 147 241q31 102 47 159l9 77q-11 17 -34 17q-54 0 -107 -82q-35 -64 -69 -129l-6 -1q-9 11 -9 36q0 76 74 146
q64 61 144 83q25 -5 36 -57l245 77l17 -4q2 -2 2 -6q0 -18 -109 -56q-15 -6 -139 -45q-57 -200 -57 -207l3 -3l178 78q150 63 165 57q7 -8 7 -17q0 -15 -162 -84z" />
    <glyph glyph-name="oe" unicode="&#x153;" horiz-adv-x="606" 
d="M341 290v-6q21 20 43 36q65 48 127 48q51 0 51 -51q0 -76 -127 -156q-108 -67 -175 -74q-18 -1 -18 -25q0 -41 46 -41q42 0 129 51q5 3 115 75q8 7 13 7q8 0 8 -18q0 -14 -68 -61q-48 -33 -75 -47q-84 -46 -124 -46t-68 26q-20 18 -21 28q-84 -94 -146 -94q-28 0 -46 14
q-22 17 -22 49q0 69 85.5 211t146.5 171q5 2 10 2q15 0 7 -26q-209 -237 -210 -363q4 -5 7 -9q6 -8 22 -9q58 -5 154 120q92 120 97 187q1 14 1 16q-2 4 -11 9q-27 0 -68 -62q-54 -82 -57 -85q-19 2 -19 23q27 58 62 105q51 67 92 67q39 -1 39 -72zM529 313q0 19 -36 19
q-33 0 -88 -35q-31 -20 -86 -85q-8 -18 -33 -61l-9 -22l28 8q28 -1 122 64q102 70 102 112z" />
    <glyph glyph-name="endash" unicode="&#x2013;" horiz-adv-x="393" 
d="M11 231h358l-21 -26l-346 -6q-6 10 -6 16q0 11 15 16z" />
    <glyph glyph-name="emdash" unicode="&#x2014;" horiz-adv-x="923" 
d="M11 231l866 -4l-21 -26l-854 -2q-6 10 -6 16q0 11 15 16z" />
    <glyph glyph-name="quotedblleft" unicode="&#x201c;" horiz-adv-x="263" 
d="M1 407q-1 14 1 35q47 164 137 270q2 -5 2 -12q0 -25 -43.5 -108.5t-43.5 -116.5q0 -12 5 -17q9 -8 18 -15q2 -6 2 -12q0 -16 -17.5 -25t-34.5 -9q-14 0 -26 10zM121 427q-1 14 1 35q47 164 137 270q2 -5 2 -12q0 -25 -43.5 -108.5t-43.5 -116.5q0 -12 5 -17q9 -8 18 -15
q2 -6 2 -12q0 -16 -17.5 -25t-34.5 -9q-14 0 -26 10z" />
    <glyph glyph-name="quotedblright" unicode="&#x201d;" horiz-adv-x="263" 
d="M239 722q0 -14 -1 -35q-47 -164 -137 -270q-2 5 -2 12q0 25 43.5 108.5t43.5 116.5q0 12 -5 17q-9 7 -18 15q-3 6 -3 12q0 16 19 26q16 8 33 8q15 0 27 -10zM119 702q0 -14 -1 -35q-47 -164 -137 -270q-2 5 -2 12q0 25 43.5 108.5t43.5 116.5q0 12 -5 17q-9 7 -18 15
q-3 6 -3 12q0 16 19 26q16 8 33 8q15 0 27 -10z" />
    <glyph glyph-name="quoteleft" unicode="&#x2018;" horiz-adv-x="199" 
d="M1 387q-1 14 1 35q47 164 137 270q2 -5 2 -12q0 -25 -43.5 -108.5t-43.5 -116.5q0 -12 5 -17q9 -8 18 -15q2 -6 2 -12q0 -16 -17.5 -25t-34.5 -9q-14 0 -26 10z" />
    <glyph glyph-name="quoteright" unicode="&#x2019;" horiz-adv-x="189" 
d="M132 672q0 -14 -1 -35q-48 -164 -137 -270q-2 5 -2 12q0 25 43.5 108.5t43.5 116.5q0 12 -5 17q-9 7 -18 15q-3 6 -3 12q0 16 19 26q16 8 33 8q14 0 27 -10z" />
    <glyph glyph-name="divide" unicode="&#xf7;" 
 />
    <glyph glyph-name="ydieresis" unicode="&#xff;" horiz-adv-x="254" 
d="M331 376q0 -10 -11 -17q-16 -11 -44 -36q-46 -57 -133 -173q-30 -44 -86 -128q-34 -48 -95 -200q-8 -21 -23 -32q-7 -1 -21 -1q-12 6 -12 17q0 7 3 16q29 64 82 157q61 106 106 167l-52 184q0 26 17 26q7 0 13 -8q15 -35 31 -104q15 -62 17 -64q23 33 65 81
q56 66 66.5 80t35.5 45q7 12 23 12q18 0 18 -22zM203 468q0 15 12 26t28 11q17 0 28.5 -11t11.5 -26t-11.5 -26t-28.5 -11q-16 0 -28 11t-12 26zM64 446q0 16 11.5 28t27.5 12t27 -12t11 -28q0 -17 -11 -28.5t-27 -11.5t-27.5 11.5t-11.5 28.5z" />
    <glyph glyph-name="Ydieresis" unicode="&#x178;" horiz-adv-x="578" 
d="M454 539q-37 -53 -156 -240q-73 -105 -208 -322q-11 -22 -23 -44q-18 -33 -27 -33q-33 -2 -34.5 0t-3.5 11q-2 13 -5 23q27 34 95 122q86 117 86 139q0 28 -31 81l-50 76q-19 31 -51 121q-34 99 -29 127q4 8 18 11q15 4 26 0q13 -9 14 -43q0 -21 4 -59q7 -25 21 -73
q43 -128 117 -186q81 120 236 358q13 22 40 70q25 42 33 42q38 0 38 -33q0 -2 -33 -44q-45 -58 -77 -104zM299 725q0 15 11.5 25.5t28.5 10.5q16 0 28 -10.5t12 -25.5t-12 -26t-28 -11q-17 0 -28.5 11t-11.5 26zM160 702q0 17 11 28.5t27 11.5t27 -11.5t11 -28.5
q0 -16 -11 -28t-27 -12t-27 12t-11 28z" />
    <glyph glyph-name="currency" unicode="&#xa4;" 
 />
    <glyph glyph-name="guilsinglleft" unicode="&#x2039;" horiz-adv-x="208" 
d="M61 287q-1 5 4 5l1 -1q0 -4 7 -22.5t20 -54.5l33 -87q4 -13 -10 -20l-92 188q0 3 54.5 64.5t69.5 75.5q10 9 10 -3v-17q-94 -128 -97 -128z" />
    <glyph glyph-name="guilsinglright" unicode="&#x203a;" horiz-adv-x="208" 
d="M117 254h-1v0q-1 4 -7.5 23t-19.5 54l-33 87q-5 13 10 21l92 -189q0 -2 -54.5 -63.5t-70.5 -76.5q-9 -8 -9 3v18q36 50 93 123z" />
    <glyph glyph-name="daggerdbl" unicode="&#x2021;" 
 />
    <glyph glyph-name="periodcentered" unicode="&#xb7;" horiz-adv-x="189" 
d="M32 271q0 22 13.5 37.5t33.5 15.5q19 0 32.5 -15.5t13.5 -37.5t-13.5 -37.5t-32.5 -15.5q-20 0 -33.5 15.5t-13.5 37.5z" />
    <glyph glyph-name="periodcentered" unicode="&#x2219;" horiz-adv-x="189" 
d="M32 271q0 22 13.5 37.5t33.5 15.5q19 0 32.5 -15.5t13.5 -37.5t-13.5 -37.5t-32.5 -15.5q-20 0 -33.5 15.5t-13.5 37.5z" />
    <glyph glyph-name="quotesinglbase" unicode="&#x201a;" horiz-adv-x="214" 
d="M119 132q0 -14 -1 -35q-47 -164 -137 -270q-2 5 -2 12q0 25 43.5 108.5t43.5 116.5q0 12 -5 17q-9 7 -18 15q-3 6 -3 12q0 16 19 26q16 8 33 8q15 0 27 -10z" />
    <glyph glyph-name="quotedblbase" unicode="&#x201e;" horiz-adv-x="263" 
d="M239 152q0 -14 -1 -35q-47 -164 -137 -270q-2 5 -2 12q0 25 43.5 108.5t43.5 116.5q0 12 -5 17q-9 7 -18 15q-3 6 -3 12q0 16 19 26q16 8 33 8q15 0 27 -10zM119 132q0 -14 -1 -35q-47 -164 -137 -270q-2 5 -2 12q0 25 43.5 108.5t43.5 116.5q0 12 -5 17q-9 7 -18 15
q-3 6 -3 12q0 16 19 26q16 8 33 8q15 0 27 -10z" />
    <glyph glyph-name="perthousand" unicode="&#x2030;" 
 />
    <glyph glyph-name="Acircumflex" unicode="&#xc2;" horiz-adv-x="536" 
d="M244 281h18q57 16 111 43q4 74 17 236zM402 754q-12 0 -61 -37q-53 -40 -58 -42q-13 -1 -13 10q0 6 4 13q22 15 55.5 49.5t53.5 48.5l9 9l11 -1q53 -34 117 -73q2 -6 2 -11q0 -9 -14 -11q-90 45 -106 45zM415 289q-13 -118 -27 -331q-11 4 -21 8q-14 7 -18 29l23 272
q-1 3 -10 8q-152 -31 -170 -63q-40 -83 -81 -167q-62 -118 -109 -118l-8 20l147 243q-4 5 -6 5q-13 0 -50.5 -19.5t-41.5 -19.5q-22 0 -27 13l4 26q20 9 79 27q55 17 82 30q15 8 109 203q53 113 107 227q17 -4 39 -18q-1 -26 -4 -75l-14 -249l4 -4q14 0 47 11.5t47 9.5
q1 -27 -39 -44z" />
    <glyph glyph-name="Ecircumflex" unicode="&#xca;" horiz-adv-x="591" 
d="M214 323q-53 -177 -53 -183l3 -3q360 148 366 146q7 -3 7 -13q0 -20 -168 -93q-202 -88 -206 -91q-9 -16 -18.5 -51t-18.5 -52q-40 -3 -40 19q0 10 7 28l14 34q-21 -5 -48 -27q-32 -27 -43 -34h-19q-4 16 -4 15q0 38 121 96q28 118 47 188q-32 -21 -89 -42q-7 10 -7 19
q0 18 49 37q53 21 60 42q28 80 56 183l-4 9l-17 10l-139 -42q-3 2 -6 5q-14 9 -15 15q-4 14 14 18l451 138q20 0 20 -10q0 -18 -110 -56q-15 -5 -139 -44q-56 -201 -56 -207l3 -4q88 39 177 78q150 63 165 57q8 -8 8 -17q0 -15 -163 -84q-103 -42 -205 -84zM302 754
q-12 0 -61 -37q-53 -40 -58 -42q-13 -1 -13 10q0 6 4 13q22 15 55.5 49.5t53.5 48.5l9 9l11 -1q53 -34 117 -73q2 -6 2 -11q0 -9 -14 -11q-90 45 -106 45z" />
    <glyph glyph-name="Aacute" unicode="&#xc1;" horiz-adv-x="536" 
d="M415 289q-13 -118 -27 -331h-22q-13 1 -17 31q3 89 22 290l-179 -67q-119 -285 -190 -285v17q147 259 146 259q-13 0 -57 -23.5t-48 -23.5q-22 0 -27 13l4 26q50 14 161 57l231 434q17 -8 24 -22q-10 -46 -11 -75l-7 -249l4 -4q14 0 47 11.5t47 9.5q1 -27 -39 -44z
M244 281l28 8q67 18 101 35q4 78 17 236zM296 699q40 32 81 63q65 50 76 50q20 0 20 -21q0 -8 -5 -17q-2 -3 -77.5 -47t-81.5 -44z" />
    <glyph glyph-name="Edieresis" unicode="&#xcb;" horiz-adv-x="587" 
d="M184 323q-53 -177 -53 -183l3 -3q360 148 366 146q7 -3 7 -13q0 -20 -168 -93q-202 -88 -206 -91q-9 -16 -18.5 -51t-18.5 -52q-40 -3 -40 19q0 10 7 28l14 34q-21 -5 -48 -27q-32 -27 -43 -34h-19q-4 16 -4 15q0 38 121 96q28 118 47 188q-32 -21 -89 -42q-7 10 -7 19
q0 18 49 37q53 21 60 42q28 80 56 183l-4 9l-17 10l-139 -42q-8 3 -9 20l5 17l448 139l17 -4q3 -2 3 -6q0 -18 -110 -56q-15 -5 -139 -44q-56 -201 -56 -207l3 -4q88 39 177 78q150 63 165 57q8 -8 8 -17q0 -15 -163 -84q-103 -42 -205 -84zM334 757q0 15 12 25.5t28 10.5
q17 0 28.5 -10.5t11.5 -25.5q0 -16 -11.5 -26.5t-28.5 -10.5q-16 0 -28 10.5t-12 26.5zM196 734q0 17 11 28.5t27 11.5t27 -11.5t11 -28.5q0 -16 -11 -28t-27 -12t-27 12t-11 28z" />
    <glyph glyph-name="Egrave" unicode="&#xc8;" horiz-adv-x="587" 
d="M184 323q-53 -177 -53 -183l3 -3q360 148 366 146q7 -3 7 -13q0 -20 -168 -93q-202 -88 -206 -91q-9 -16 -18.5 -51t-18.5 -52q-40 -3 -40 19q0 10 7 28l14 34q-21 -5 -48 -27q-32 -27 -43 -34h-19q-4 16 -4 15q0 38 121 96q28 118 47 188q-32 -21 -89 -42q-7 10 -7 19
q0 18 49 37q53 21 60 42q28 80 56 183l-4 9l-17 10l-139 -42q-8 3 -9 20l5 17l448 139l17 -4q3 -2 3 -6q0 -18 -110 -56q-15 -5 -139 -44q-56 -201 -56 -207l3 -4q88 39 177 78q150 63 165 57q8 -8 8 -17q0 -15 -163 -84q-103 -42 -205 -84zM319 701q-1 0 -73 55t-73 55
q-5 2 -10 2q-21 0 -21 -23q0 -10 6 -19q148 -86 158 -86z" />
    <glyph glyph-name="Iacute" unicode="&#xcd;" horiz-adv-x="251" 
d="M98 244l1 -16q5 -2 13 -8q12 11 37 33l2 -30q2 -33 -35 -124t-63 -117l-16 -1q-23 24 -23 33q-3 43 22 141q20 72 40 143q28 104 47 171q36 124 70 217q6 4 11 4q24 0 24 -38q0 -6 -2 -10zM116 699q40 32 81 63q65 50 76 50q20 0 20 -21q0 -8 -5 -17q-2 -3 -77.5 -47
t-81.5 -44z" />
    <glyph glyph-name="Icircumflex" unicode="&#xce;" horiz-adv-x="251" 
d="M98 244l1 -16q5 -2 13 -8q12 11 37 33l2 -30q2 -33 -35 -124t-63 -117l-16 -1q-23 24 -23 33q-3 43 22 141q20 72 40 143q28 104 47 171q36 124 70 217q6 4 11 4q24 0 24 -38q0 -6 -2 -10zM222 754q-12 0 -61 -37q-53 -40 -58 -42q-13 -1 -13 10q0 6 4 13
q22 15 55.5 49.5t53.5 48.5l9 9l11 -1q53 -34 117 -73q2 -6 2 -11q0 -9 -14 -11q-90 45 -106 45z" />
    <glyph glyph-name="Idieresis" unicode="&#xcf;" horiz-adv-x="251" 
d="M98 244l1 -16q5 -2 13 -8q12 11 37 33l2 -30q2 -33 -35 -124t-63 -117l-16 -1q-23 24 -23 33q-3 43 22 141q20 72 40 143q28 104 47 171q36 124 70 217q6 4 11 4q24 0 24 -38q0 -6 -2 -10zM224 757q0 15 12 25.5t28 10.5q17 0 28.5 -10.5t11.5 -25.5q0 -16 -11.5 -26.5
t-28.5 -10.5q-16 0 -28 10.5t-12 26.5zM86 734q0 17 11 28.5t27 11.5t27 -11.5t11 -28.5q0 -16 -11 -28t-27 -12t-27 12t-11 28z" />
    <glyph glyph-name="Igrave" unicode="&#xcc;" horiz-adv-x="251" 
d="M98 244l1 -16q5 -2 13 -8q12 11 37 33l2 -30q2 -33 -35 -124t-63 -117l-16 -1q-23 24 -23 33q-3 43 22 141q20 72 40 143q28 104 47 171q36 124 70 217q6 4 11 4q24 0 24 -38q0 -6 -2 -10zM319 701q-1 0 -73 55t-73 55q-5 2 -10 2q-21 0 -21 -23q0 -10 6 -19
q148 -86 158 -86z" />
    <glyph glyph-name="Oacute" unicode="&#xd3;" horiz-adv-x="550" 
d="M73 -54q-80 0 -98 145q-6 54 49 191.5t127 240.5q82 120 139 120q5 0 19 -12q-107 -88 -204 -266t-97 -286q0 -28 12 -55q16 -33 42 -33q87 0 184 113q84 98 147 240q60 138 60 222q0 15 -12 23.5t-26 8.5q-54 0 -107 -82q-35 -64 -69 -129l-6 -1q-9 11 -9 36
q0 76 74 146q64 61 144 83q18 -3 29 -34q10 -25 10 -49q0 -91 -62 -239q-64 -155 -152 -261q-102 -122 -194 -122zM296 699q40 32 81 63q65 50 76 50q20 0 20 -21q0 -8 -5 -17q-2 -3 -77.5 -47t-81.5 -44z" />
    <glyph glyph-name="Ocircumflex" unicode="&#xd4;" horiz-adv-x="550" 
d="M73 -54q-80 0 -98 145q-6 54 49 191.5t127 240.5q82 120 139 120q5 0 19 -12q-107 -88 -204 -266t-97 -286q0 -28 12 -55q16 -33 42 -33q87 0 184 113q84 98 147 240q60 138 60 222q0 15 -12 23.5t-26 8.5q-54 0 -107 -82q-35 -64 -69 -129l-6 -1q-9 11 -9 36
q0 76 74 146q64 61 144 83q18 -3 29 -34q10 -25 10 -49q0 -91 -62 -239q-64 -155 -152 -261q-102 -122 -194 -122zM352 734q-12 0 -61 -37q-53 -40 -58 -42q-13 -1 -13 10q0 6 4 13q22 15 55.5 49.5t53.5 48.5l9 9l11 -1q53 -34 117 -73q2 -6 2 -11q0 -9 -14 -11
q-90 45 -106 45z" />
    <glyph glyph-name="Ograve" unicode="&#xd2;" horiz-adv-x="550" 
d="M73 -54q-80 0 -98 145q-6 54 49 191.5t127 240.5q82 120 139 120q5 0 19 -12q-107 -88 -204 -266t-97 -286q0 -28 12 -55q16 -33 42 -33q87 0 184 113q84 98 147 240q60 138 60 222q0 15 -12 23.5t-26 8.5q-54 0 -107 -82q-35 -64 -69 -129l-6 -1q-9 11 -9 36
q0 76 74 146q64 61 144 83q18 -3 29 -34q10 -25 10 -49q0 -91 -62 -239q-64 -155 -152 -261q-102 -122 -194 -122zM429 701q-1 0 -73 55t-73 55q-5 2 -10 2q-21 0 -21 -23q0 -10 6 -19q148 -86 158 -86z" />
    <glyph glyph-name="Uacute" unicode="&#xda;" horiz-adv-x="625" 
d="M572 455q-5 -10 -13 -28l-143 -406q-10 -2 -18 -2q-23 0 -16 36q9 47 31 111q19 55 37 109q4 12 5 17q2 9 -3 9q-5 -4 -15 -14l-35 -33q-258 -250 -301 -250q-15 0 -37 20.5t-22 38.5q0 61 59 218q56 148 92 198l4 8l6 13q38 82 73 83q18 0 28 -12t10 -24q0 -17 -9 -22
q-54 -36 -80 -82q-43 -79 -98 -218q-32 -81 -32 -99q-4 -25 -4 -36q2 -28 25 -25q25 5 98 68q62 54 94 91q15 17 93 90q67 64 95 103q24 35 75 162q7 17 26 17q6 0 12.5 -10t6.5 -18q0 1 -44 -113zM366 639q40 32 81 63q65 50 76 50q20 0 20 -21q0 -8 -5 -17
q-2 -3 -77.5 -47t-81.5 -44z" />
    <glyph glyph-name="Ucircumflex" unicode="&#xdb;" horiz-adv-x="625" 
d="M572 455q-5 -10 -13 -28l-143 -406q-10 -2 -18 -2q-23 0 -16 36q9 47 31 111q19 55 37 109q4 12 5 17q2 9 -3 9q-5 -4 -15 -14l-35 -33q-258 -250 -301 -250q-15 0 -37 20.5t-22 38.5q0 61 59 218q56 148 92 198l4 8l6 13q38 82 73 83q18 0 28 -12t10 -24q0 -17 -9 -22
q-54 -36 -80 -82q-43 -79 -98 -218q-32 -81 -32 -99q-4 -25 -4 -36q2 -28 25 -25q25 5 98 68q62 54 94 91q15 17 93 90q67 64 95 103q24 35 75 162q7 17 26 17q6 0 12.5 -10t6.5 -18q0 1 -44 -113zM432 734q-12 0 -61 -37q-53 -40 -58 -42q-13 -1 -13 10q0 6 4 13
q22 15 55.5 49.5t53.5 48.5l9 9l11 -1q53 -34 117 -73q2 -6 2 -11q0 -9 -14 -11q-90 45 -106 45z" />
    <glyph glyph-name="Ugrave" unicode="&#xd9;" horiz-adv-x="625" 
d="M416 21l-18 -2q-17 0 -17 32q0 30 31 108q38 98 42 114l7 32q-301 -301 -360 -301q-17 0 -36.5 20.5t-22.5 38.5q-8 42 36 173q43 128 99 231q62 116 99 116q15 0 26.5 -10.5t11.5 -25.5q0 -2 -12.5 -11t-13.5 -11q-63 -41 -131 -200q-66 -152 -66 -235q0 -25 25 -25
q29 0 193 158q154 147 187 194q25 35 75 162q5 17 25 17q12 0 19 -7.5t1 -20.5q-32 -101 -98 -274q-76 -198 -102 -273zM519 641q-148 112 -156 112q-21 0 -21 -23q0 -9 6 -19q1 -2 76.5 -44t81.5 -42z" />
    <glyph glyph-name="circumflex" unicode="&#x2c6;" horiz-adv-x="301" 
d="M142 754q-12 0 -61 -37q-53 -40 -58 -42q-13 -1 -13 10q0 6 4 13q22 15 55.5 49.5t53.5 48.5l9 9l11 -1q53 -34 117 -73q2 -6 2 -11q0 -9 -14 -11q-90 45 -106 45z" />
    <glyph glyph-name="tilde" unicode="&#x2dc;" horiz-adv-x="285" 
d="M23 719q10 18 21 37q16 26 46 28q27 2 47 -15t32 -17q25 0 34 8q11 13 22 27q1 4 6 4q17 0 17 -18q0 -5 -4 -9q-14 -17 -29 -34q-14 -10 -48 -10q-18 0 -39.5 16.5t-40.5 15.5q-19 -2 -28 -19q-17 -30 -18 -31q-8 -3 -14 1t-4 16z" />
    <glyph glyph-name="macron" unicode="&#xaf;" horiz-adv-x="224" 
d="M0 774h192v-35h-192v35z" />
    <glyph glyph-name="macron" unicode="&#x2c9;" horiz-adv-x="224" 
d="M0 774h192v-35h-192v35z" />
    <glyph glyph-name="cedilla" unicode="&#xb8;" horiz-adv-x="259" 
d="M76 -160q-4 -3 -8 -3q-24 0 -38 103q-25 -6 -25 -75q0 -56 9 -70q19 -29 42 -29q42 0 91 96q37 72 62 159l-11 25q-13 -26 -16 -26q-24 -50 -49 -101q-32 -63 -57 -79z" />
    <glyph glyph-name="Scaron" unicode="&#x160;" 
 />
    <glyph glyph-name="scaron" unicode="&#x161;" 
 />
    <glyph glyph-name="brokenbar" unicode="&#xa6;" 
 />
    <glyph glyph-name="Eth" unicode="&#xd0;" 
 />
    <glyph glyph-name="eth" unicode="&#xf0;" 
 />
    <glyph glyph-name="Yacute" unicode="&#xdd;" 
 />
    <glyph glyph-name="yacute" unicode="&#xfd;" 
 />
    <glyph glyph-name="Thorn" unicode="&#xde;" 
 />
    <glyph glyph-name="thorn" unicode="&#xfe;" 
 />
    <glyph glyph-name="minus" unicode="&#xad;" 
 />
    <glyph glyph-name="minus" unicode="&#x2212;" 
 />
    <glyph glyph-name="multiply" unicode="&#xd7;" 
 />
    <glyph glyph-name="onesuperior" unicode="&#xb9;" 
 />
    <glyph glyph-name="twosuperior" unicode="&#xb2;" 
 />
    <glyph glyph-name="threesuperior" unicode="&#xb3;" 
 />
    <glyph glyph-name="onehalf" unicode="&#xbd;" 
 />
    <glyph glyph-name="onequarter" unicode="&#xbc;" 
 />
    <glyph glyph-name="threequarters" unicode="&#xbe;" 
 />
    <glyph glyph-name=".null" 
 />
    <glyph glyph-name="Lslash" unicode="&#x141;" 
 />
    <glyph glyph-name="lslash" unicode="&#x142;" 
 />
    <glyph glyph-name="HT" 
 />
    <glyph glyph-name="LF" 
 />
    <glyph glyph-name="nonmarkingreturn" 
 />
    <glyph glyph-name="Zcaron" unicode="&#x17d;" 
 />
    <glyph glyph-name="zcaron" unicode="&#x17e;" 
 />
    <glyph glyph-name="DLE" 
 />
    <glyph glyph-name="DC1" 
 />
    <glyph glyph-name="DC2" 
 />
    <glyph glyph-name="DC3" 
 />
    <glyph glyph-name="DC4" 
 />
    <glyph glyph-name="RS" 
 />
    <glyph glyph-name="US" 
 />
    <glyph glyph-name="notequal" unicode="&#x2260;" 
 />
    <glyph glyph-name="infinity" unicode="&#x221e;" 
 />
    <glyph glyph-name="lessequal" unicode="&#x2264;" 
 />
    <glyph glyph-name="greaterequal" unicode="&#x2265;" 
 />
    <glyph glyph-name="partialdiff" unicode="&#x2202;" horiz-adv-x="224" 
d="M-7 189q5 2 53 42q33 151 76 273q49 141 78 144q13 1 14 -15q2 -18 -38 -130q-51 -149 -71 -221l106 93q13 -1 13 -17q0 -12 -10 -28l-119 -86q-27 -111 -22 -174q3 -33 4 -37q4 -15 21 -25q0 -11 -14.5 -21.5t-26.5 -11.5q-14 -1 -26 36q-9 28 -11 51q-3 31 18 132
q-35 -31 -41 -33z" />
    <glyph glyph-name="summation" unicode="&#x2211;" horiz-adv-x="637" 
d="M478 588l-27 13q-39 0 -137.5 -67t-175.5 -143q-85 -86 -85 -128v-9q5 -22 30 -25q41 -3 43 -4l407 100q3 1 11.5 -5.5t8.5 -10.5q0 -14 -31 -37q-22 -14 -44 -29q-99 -68 -110 -77q-58 -47 -83 -103q-9 -18 -44 -46.5t-53 -28.5t-18 31q0 36 61 93q47 39 94 79
q31 27 33 43l-27 -4q-30 -3 -110 -26q-69 -19 -111 -19q-45 0 -66 12q-28 16 -28 60q0 62 120 176q107 102 246.5 188.5t199.5 86.5q7 0 14 -11.5t7 -19.5q0 -26 -125 -89zM331 725q12 0 62.5 38.5t55.5 40.5q13 1 13 -10q0 -5 -4 -13q-22 -14 -55.5 -49t-52.5 -48l-9 -9
h-12q-53 34 -116 74q-3 6 -3 10q0 9 15 11q89 -45 106 -45z" />
    <glyph glyph-name="product" unicode="&#x220f;" horiz-adv-x="323" 
d="M345 370q0 -19 -8 -24q-22 -14 -59 -31q-43 -19 -65 -31q-76 -43 -104 -68q-18 -15 -43 -46q5 -10 13 -10q3 0 26.5 8t29.5 8l124 34q7 2 12 2q10 0 15 -5l9 -9q2 -11 -2 -30q-38 -49 -139.5 -110t-138.5 -58q-10 14 109 87q123 76 123 81q-1 2 -4 2q-29 0 -96 -23
t-98 -23q-32 0 -32 24q0 18 34 54q25 26 43 39q36 26 63 44q13 9 75 44q73 42 83 42q2 0 6 4t8 4q6 0 16 -9zM171 415q12 0 62.5 38.5t55.5 40.5q13 1 13 -10q0 -5 -4 -13q-22 -14 -55.5 -49t-52.5 -48l-9 -9h-12q-53 34 -116 74q-3 6 -3 10q0 9 15 11q89 -45 106 -45z" />
    <glyph glyph-name="pi" unicode="&#x3c0;" horiz-adv-x="578" 
d="M454 539q-37 -53 -156 -240q-73 -105 -208 -322q-11 -22 -23 -44q-18 -33 -27 -33q-33 -2 -34.5 0t-3.5 11q-2 13 -5 23q27 34 95 122q86 117 86 139q0 28 -31 81l-50 76q-19 31 -51 121q-34 99 -29 127q4 8 18 11q15 4 26 0q13 -9 14 -43q0 -21 4 -59q7 -25 21 -73
q43 -128 117 -186q81 120 236 358q13 22 40 70q25 42 33 42q38 0 38 -33q0 -2 -33 -44q-45 -58 -77 -104zM206 649q1 0 72.5 55t73.5 55q6 3 11 3q20 0 20 -21q0 -9 -5 -17q-149 -91 -159 -91z" />
    <glyph glyph-name="integral" unicode="&#x222b;" horiz-adv-x="254" 
d="M331 376q0 -10 -11 -17q-16 -11 -44 -36q-46 -57 -133 -173q-30 -44 -86 -128q-34 -48 -95 -200q-8 -21 -23 -32q-7 -1 -21 -1q-12 6 -12 17q0 7 3 16q29 64 82 157q61 106 106 167l-52 184q0 26 17 26q7 0 13 -8q15 -35 31 -104q15 -62 17 -64q23 33 65 81
q56 66 66.5 80t35.5 45q7 12 23 12q18 0 18 -22zM106 399q1 0 72.5 55t73.5 55q6 3 11 3q20 0 20 -21q0 -9 -5 -17q-149 -91 -159 -91z" />
    <glyph glyph-name="Omega" unicode="&#x3a9;" horiz-adv-x="673" 
d="M351 282l-170 -23l-81 -16q-32 -51 -32 -90q0 -46 36 -72q30 -22 74 -22h29q8 0 10 5l1 1q1 0 1 1q192 60 412 254h12q1 0 3 -6q-57 -69 -143 -137q-166 -130 -332 -152q-6 -1 -20 1.5t-19 2.5q-11 0 -40.5 22.5t-34.5 33.5q-20 46 -20 69q0 38 19 81l-34 -17l-19 -3
q-3 0 -13 18l16 17q11 2 65 13q19 32 48 67q-37 -9 -78 -19q-11 7 -11 14q0 9 14 18q35 5 103 18q83 88 217 179q101 70 173 104q26 4 26 -22v-6v-4q0 -24 -30.5 -58.5t-56.5 -42.5h-9q9 17 10 24q1 9 -7 10l-12 -1q-6 -1 -9 4q-103 -51 -234 -172q56 16 168 44
q9 1 20.5 -3.5t11.5 -15.5q-1 -4 -7 -8t-6 -5h-2q-18 -2 -167 -34l-52 -11q-36 -37 -61 -71l234 49q16 -7 16 -17q0 -14 -19 -22z" />
    <glyph glyph-name="Omega" unicode="&#x2126;" horiz-adv-x="673" 
d="M351 282l-170 -23l-81 -16q-32 -51 -32 -90q0 -46 36 -72q30 -22 74 -22h29q8 0 10 5l1 1q1 0 1 1q192 60 412 254h12q1 0 3 -6q-57 -69 -143 -137q-166 -130 -332 -152q-6 -1 -20 1.5t-19 2.5q-11 0 -40.5 22.5t-34.5 33.5q-20 46 -20 69q0 38 19 81l-34 -17l-19 -3
q-3 0 -13 18l16 17q11 2 65 13q19 32 48 67q-37 -9 -78 -19q-11 7 -11 14q0 9 14 18q35 5 103 18q83 88 217 179q101 70 173 104q26 4 26 -22v-6v-4q0 -24 -30.5 -58.5t-56.5 -42.5h-9q9 17 10 24q1 9 -7 10l-12 -1q-6 -1 -9 4q-103 -51 -234 -172q56 16 168 44
q9 1 20.5 -3.5t11.5 -15.5q-1 -4 -7 -8t-6 -5h-2q-18 -2 -167 -34l-52 -11q-36 -37 -61 -71l234 49q16 -7 16 -17q0 -14 -19 -22z" />
    <glyph glyph-name="radical" unicode="&#x221a;" 
 />
    <glyph glyph-name="approxequal" unicode="&#x2248;" 
 />
    <glyph glyph-name="approxequal" unicode="&#x22f2;" 
 />
    <glyph glyph-name="Delta" unicode="&#x394;" 
 />
    <glyph glyph-name="Delta" unicode="&#x2206;" 
 />
    <glyph glyph-name="lozenge" unicode="&#x25ca;" 
 />
    <glyph glyph-name="fraction" unicode="&#x2044;" 
 />
    <glyph glyph-name="fi" unicode="&#xf001;" 
 />
    <glyph glyph-name="fl" unicode="&#xf002;" 
 />
    <glyph glyph-name="apple" unicode="&#xf000;" 
 />
    <glyph glyph-name="dotlessi" unicode="&#x131;" horiz-adv-x="170" 
d="M135 356l-5 -61l-83 -252q5 -9 14 -9q13 0 21 9q2 -21 -22.5 -49.5t-46.5 -30.5q-11 0 -18 18q-4 13 -8 27l107 303q7 22 9 48q1 11 1 22q2 4 5 4q10 0 26 -29z" />
    <glyph glyph-name="breve" unicode="&#x2d8;" horiz-adv-x="237" 
d="M179 776q0 -29 -25.5 -47t-58.5 -18q-34 0 -59.5 18t-25.5 47h25q0 -27 61 -27q58 0 58 27h25z" />
    <glyph glyph-name="dotaccent" unicode="&#x2d9;" horiz-adv-x="230" 
d="M159 790q-20 0 -32.5 -9t-12.5 -20q0 -10 12.5 -19.5t32.5 -9.5t32.5 9.5t12.5 19.5q0 11 -12.5 20t-32.5 9z" />
    <glyph glyph-name="ring" unicode="&#x2da;" horiz-adv-x="323" 
d="M159 815q28 0 49 -15t21 -39t-21 -39t-49 -15q-27 0 -48.5 15t-21.5 39t21.5 39t48.5 15zM159 790q-20 0 -32.5 -9t-12.5 -20q0 -10 12.5 -19.5t32.5 -9.5t32.5 9.5t12.5 19.5q0 11 -12.5 20t-32.5 9z" />
    <glyph glyph-name="hungarumlaut" unicode="&#x2dd;" horiz-adv-x="225" 
d="M81 809h31l-78 -99h-16zM145 813l29 2l-78 -111h-17z" />
    <glyph glyph-name="ogonek" unicode="&#x2db;" horiz-adv-x="199" 
d="M176 36q2 -4 2 -10q0 -21 -48.5 -78.5t-48.5 -91.5q0 -15 18 -15q26 0 90 31q1 -3 1 -7q0 -23 -51 -56q-47 -30 -62 -30q-56 0 -56 39q0 43 68 127q53 66 87 91z" />
    <glyph glyph-name="caron" unicode="&#x2c7;" horiz-adv-x="301" 
d="M131 725q12 0 62.5 38.5t55.5 40.5q13 1 13 -10q0 -5 -4 -13q-22 -14 -55.5 -49t-52.5 -48l-9 -9h-12q-53 34 -116 74q-3 6 -3 10q0 9 15 11q89 -45 106 -45z" />
    </font>
</defs>
</svg>
