<?xml version="1.0" standalone="no"?>
<!DOCTYPE svg PUBLIC "-//W3C//DTD SVG 1.1//EN" "http://www.w3.org/Graphics/SVG/1.1/DTD/svg11.dtd" >
<svg>
<metadata>
Created by FontForge 20120731 at Wed Apr 17 21:35:54 2019
 By www-data
Generated by Fontographer 4.1.4
</metadata>
<defs>
<font id="Whirligig" horiz-adv-x="547" >
  <font-face 
    font-family="Whirligig"
    font-weight="400"
    font-stretch="normal"
    units-per-em="1000"
    panose-1="0 0 4 0 0 0 0 0 0 0"
    ascent="800"
    descent="-200"
    x-height="411"
    cap-height="656"
    bbox="-215 -281 919 873"
    underline-thickness="20"
    underline-position="-123"
    unicode-range="U+0020-F002"
  />
<missing-glyph horiz-adv-x="500" 
d="M63 0v800h375v-800h-375zM125 63h250v675h-250v-675z" />
    <glyph glyph-name=".notdef" horiz-adv-x="500" 
d="M63 0v800h375v-800h-375zM125 63h250v675h-250v-675z" />
    <glyph glyph-name=".null" horiz-adv-x="0" 
 />
    <glyph glyph-name="nonmarkingreturn" horiz-adv-x="215" 
 />
    <glyph glyph-name="space" unicode=" " horiz-adv-x="215" 
 />
    <glyph glyph-name="exclam" unicode="!" horiz-adv-x="205" 
d="M142 627q0 -11 -8 -22t-9 -15q0 -16 -2 -49l-8 -310q-1 -15 -6 -49q-1 -5 -7.5 -8.5t-14.5 -3.5q-35 0 -35 41l11 357q0 29 -1 31q-8 24 -8 29q0 43 42 43q20 0 33 -13.5t13 -30.5zM136 66q0 -6 -6.5 -18.5t-22.5 -29.5q-11 -6 -27 -6q-23 0 -36 14.5t-13 33.5
q0 20 14 33.5t34 13.5q18 0 37.5 -12.5t19.5 -28.5z" />
    <glyph glyph-name="quotedbl" unicode="&#x22;" horiz-adv-x="267" 
d="M216 645q0 -9 -6.5 -18t-7.5 -13q0 -13 -1 -41l-7 -140q-1 -13 -5 -41q-1 -5 -6.5 -7.5t-12.5 -2.5q-30 0 -30 34l10 179q0 25 -1 27q-7 21 -7 25q0 36 35 36q17 0 28 -11.5t11 -26.5zM95 636q0 -9 -6.5 -18.5t-7.5 -12.5q0 -14 -2 -42l-6 -139q-2 -13 -6 -42
q-1 -5 -6.5 -7.5t-11.5 -2.5q-30 0 -30 34l9 180v26q-8 21 -8 25q0 37 36 37q17 0 28 -12t11 -26z" />
    <glyph glyph-name="numbersign" unicode="#" horiz-adv-x="464" 
d="M282 387q-47 1 -115 1l-30 -170q70 -1 115 -2zM424 410q-4 -35 -41 -35q-3 0 -8 2t-17 7q-4 1 -30 2l-29 -170q16 0 20.5 2t17.5 7q3 1 10 1q16 -1 25.5 -12t7.5 -27q-3 -35 -40 -34h-9q-4 4 -16 9q-4 1 -25 2l-20 -116q0 -2 3 -15.5t3 -15.5q-4 -32 -38 -32
q-14 0 -22 10.5t-7 23.5q5 8 12 23q3 8 15 79l7 44q-46 0 -115 1l-19 -117q-1 -2 2 -15.5t3 -14.5q-4 -33 -38 -32q-13 0 -21.5 10t-6.5 23q5 9 12 24q2 8 14 79l8 43q-17 0 -26 -2q-5 0 -14.5 -3.5t-11.5 -3.5q-16 0 -25.5 12t-8.5 26q2 14 14 25.5t27 11.5q7 0 19 -6
q2 -3 8 -5q10 -1 27 -2l29 170q-13 -1 -19.5 -2t-16 -4t-11.5 -3q-15 0 -25 12t-9 25q2 15 14 26t27 11q7 0 20 -6q1 -2 8 -4t22 -2l18 106l-3.5 7.5t-2.5 16.5q4 33 36 33q15 -1 23.5 -12.5t6.5 -22.5q-5 -8 -13 -24q-3 -8 -15 -79l-5 -27q70 -1 116 -1l19 107
q0 1 -3.5 8.5t-2.5 15.5q3 33 36 33q15 0 23 -11.5t7 -23.5q-6 -8 -14 -24q-2 -7 -14 -78l-5 -27h24q6 3 20 8q2 1 9 1q16 0 25.5 -11.5t8.5 -26.5z" />
    <glyph glyph-name="dollar" unicode="$" horiz-adv-x="313" 
d="M227 428q-15 0 -26.5 10t-11.5 25l-14 8q-9 0 -40 -9q-9 -3 -26.5 -19.5t-17.5 -24.5q0 -18 18 -28q7 -4 34 -11q66 -20 87 -63q16 -33 16 -54q0 -41 -36 -85t-79 -58l-6 -47q-2 -19 -19 -19h-11q-19 0 -19 25q0 -6 6 39q-39 11 -61 66q-1 3 -10 15q-6 8 -6 17
q0 14 10.5 24t24.5 10t25 -9.5t11 -24.5q0 -4 -2 -10.5t-2 -9.5q0 -9 10.5 -18.5t20.5 -9.5q26 0 57.5 34.5t31.5 61.5q0 40 -42 58l-78 28q-42 22 -42 71q0 31 36 60q30 24 71 36l6 45q2 19 19 19h11q19 0 19 -24q0 4 -5 -34q23 -4 25 -4q18 0 36 -28q16 -10 16 -28
q0 -15 -11.5 -24.5t-25.5 -9.5z" />
    <glyph glyph-name="percent" unicode="%" horiz-adv-x="765" 
d="M713 205q0 -52 -19 -102q-24 -64 -70 -92q-35 -21 -63 -21q-25 0 -59 18q-47 24 -73 75q-23 44 -23 93q0 65 35 122q39 64 93 61q7 0 12 2q30 12 50 12q15 0 38 -10q39 -18 61 -72q18 -43 18 -86zM662 207q0 32 -8 55q-19 55 -48 59q-14 3 -8 3h-9q-4 -34 -36 -34
q-13 0 -25 7q-16 9 -11 9q-5 0 -21 -17q-39 -44 -39 -112q0 -81 61 -122q23 -15 42 -15q34 0 64 38t33 78q1 8 3 30q2 19 2 21zM313 425q0 -52 -19 -102q-24 -64 -70 -92q-35 -21 -63 -21q-25 0 -59 18q-47 24 -73 75q-23 44 -23 93q0 65 35 122q39 64 93 61q7 0 12 2
q30 12 50 12q15 0 38 -10q39 -18 61 -72q18 -43 18 -86zM262 427q0 32 -8 55q-19 55 -48 59q-14 3 -8 3h-9q-4 -34 -36 -34q-13 0 -25 7q-16 9 -11 9q-5 0 -21 -17q-39 -44 -39 -112q0 -81 61 -122q23 -15 42 -15q34 0 64 38t33 78q1 8 3 30q2 19 2 21zM119 1l415 576
l29 -23l-410 -568z" />
    <glyph glyph-name="ampersand" unicode="&#x26;" horiz-adv-x="616" 
d="M523 305q-7 0 -19.5 7t-24.5 7h-26q-26 -1 -41 -1q0 -20 2 -56.5t2 -34.5q0 -37 -6 -70q-2 -11 -9 -29l-4 -12q-2 -6 -2 -8q1 -3 4 -8l7 -14q12 -25 22 -51q1 -1 2 -3.5t2 -7.5l1 -7q4 -16 12 -24l3 -3q9 -9 9 -26q0 -15 -10.5 -26t-26.5 -11q-39 0 -39 41q0 2 4 12t4 12
q0 9 -9.5 32.5t-15.5 30.5q-85 -99 -159 -99q-78 0 -127 34q-57 38 -57 113q0 41 7 69q9 34 26 67q14 26 53 87l24 37q10 16 11 21q0 3 -27 50q-28 52 -38 75t-10 48q0 45 31.5 79t75.5 34q33 0 60 -25.5t36 -60.5q4 -18 4 -41q0 -54 -56 -138q-11 -17 -11 -22q0 -12 49 -69
q1 61 39 61q1 0 17.5 -4.5t19.5 -4.5l137 1q9 0 26 3q6 4 15 9q2 2 13 2q16 0 27.5 -11.5t11.5 -27.5q0 -15 -11.5 -26t-27.5 -11zM173 619q-25 0 -41 -24q-13 -20 -13 -39q0 -39 57 -124q13 22 33 60q13 27 13 54t-11 47q-13 26 -38 26zM366 239q0 15 -3 38q-4 32 -5 39
h-28q-13 -14 -17 -15.5t-15 -1.5q-2 0 -24 3l-7 -9l99 -130v76zM215 285q-14 20 -41 49q-24 -37 -67 -105q-31 -55 -31 -101q0 -106 121 -106q65 0 121 59q16 18 16 24q0 7 -119 180z" />
    <glyph glyph-name="quotesingle" unicode="'" horiz-adv-x="140" 
d="M95 636q0 -9 -6.5 -18.5t-7.5 -12.5q0 -14 -2 -42l-6 -139q-2 -13 -6 -42q-1 -5 -6.5 -7.5t-11.5 -2.5q-30 0 -30 34l9 180v26q-8 21 -8 25q0 37 36 37q17 0 28 -12t11 -26z" />
    <glyph glyph-name="parenleft" unicode="(" horiz-adv-x="271" 
d="M290 728q0 -21 -17 -32q-8 -2 -19 -7q-104 -96 -161 -255q-4 -10 -12.5 -52.5t-8.5 -51.5v-79q0 -2 1 -8t2 -8q4 -68 27 -118q26 -59 36 -76q35 -65 73 -101q1 0 22.5 -8t21.5 -36q0 -19 -14.5 -29.5t-30.5 -10.5q-15 0 -23 13t-15 25q-94 105 -140 245q-22 65 -22 152
q0 107 38 198q57 137 160 241q1 5 4 15q7 14 15 19q12 6 22 6q17 0 29 -13t12 -29z" />
    <glyph glyph-name="parenright" unicode=")" horiz-adv-x="365" 
d="M18 728q0 -21 17 -32q8 -2 18 -7q104 -96 162 -255q4 -10 12.5 -52.5t8.5 -51.5v-79q0 -2 -1.5 -8t-1.5 -8q-5 -68 -27 -118q-27 -59 -36 -76q-35 -65 -74 -101l-21.5 -8t-21.5 -36q0 -19 16 -30q13 -10 29 -10q15 0 23 13t15 25q94 105 140 245q22 65 22 152
q0 107 -38 198q-57 137 -160 241q-1 5 -4 15q-7 14 -15 19q-12 6 -22 6q-17 0 -29 -13t-12 -29z" />
    <glyph glyph-name="asterisk" unicode="*" horiz-adv-x="308" 
d="M129 672h21q17 0 17 -17l-4 -76l66 34q15 8 24 -6l10 -18q9 -15 -6 -23l-68 -36l63 -39q14 -10 6 -24l-10 -18q-9 -15 -24 -6l-64 41l-3 -74q-1 -17 -17 -17h-21q-18 0 -17 17l3 76l-66 -34q-15 -8 -23 6l-11 18q-8 15 7 23l68 36l-63 40q-15 9 -7 23l11 18q9 15 23 6
l65 -41l3 74q1 17 17 17z" />
    <glyph glyph-name="plus" unicode="+" horiz-adv-x="622" 
d="M527 286q-16 0 -23 7t-35 8l-147 3l-3 -114q-2 -53 2 -65q7 -23 7 -24q0 -43 -42 -43q-19 0 -31 13t-12 31q0 16 7 22.5t8 35.5l4 146q-42 1 -83 5q-37 4 -47 4q-23 0 -55 -10q-18 -6 -20 -6q-16 0 -28.5 13t-12.5 28q0 18 13.5 31.5t30.5 13.5l35 -15l168 -4q1 42 6 83
q3 37 3 47q0 24 -10 56q-6 17 -6 20q0 16 13 28.5t29 12.5q17 0 31 -13.5t14 -30.5q0 -1 -15 -36l-5 -169l116 -3q53 -1 65 3q22 7 24 7q42 0 42 -43q0 -19 -12.5 -30.5t-30.5 -11.5z" />
    <glyph glyph-name="comma" unicode="," horiz-adv-x="162" 
d="M112 19q-2 -21 -41.5 -64t-53.5 -43q-12 0 -15 2.5t-3 13.5q0 31 43 68l-15 20q-5 8 -5 29q0 19 14 33t34 14q28 0 42 -32q5 -12 4 -21z" />
    <glyph glyph-name="hyphen" unicode="-" horiz-adv-x="348" 
d="M269 335q0 -41 -43 -41h-10q-6 4 -21 10q-11 3 -49 3q-42 0 -55 -3q-5 -1 -16 -4.5t-13 -3.5q-19 0 -32 13.5t-13 30.5t13 30.5t30 13.5q8 0 23 -7q3 -3 9 -6q35 -2 62 -2h37q7 4 23 10q2 1 10 1q19 0 32 -13.5t13 -31.5z" />
    <glyph glyph-name="hyphen" unicode="&#x2010;" horiz-adv-x="348" 
d="M269 335q0 -41 -43 -41h-10q-6 4 -21 10q-11 3 -49 3q-42 0 -55 -3q-5 -1 -16 -4.5t-13 -3.5q-19 0 -32 13.5t-13 30.5t13 30.5t30 13.5q8 0 23 -7q3 -3 9 -6q35 -2 62 -2h37q7 4 23 10q2 1 10 1q19 0 32 -13.5t13 -31.5z" />
    <glyph glyph-name="period" unicode="." horiz-adv-x="202" 
d="M133 36q0 -17 -14.5 -29.5t-30.5 -12.5q-18 0 -31.5 14.5t-13.5 30.5q0 18 13 30.5t30 12.5q20 0 33.5 -13.5t13.5 -32.5z" />
    <glyph glyph-name="slash" unicode="/" horiz-adv-x="313" 
d="M-24 -41q0 28 30 32l255 616q-4 8 -4 17q0 15 9.5 25.5t23.5 10.5t24 -10.5t10 -25.5q0 -27 -26 -34l-258 -613q6 -8 6 -18q0 -13 -10 -22.5t-25 -9.5t-25 9.5t-10 22.5z" />
    <glyph glyph-name="zero" unicode="0" 
d="M483 296q0 -110 -55 -202q-65 -108 -169 -108q-95 0 -150 99q-45 81 -45 184q0 100 62 199q69 112 163 112q55 0 85 -62q109 -41 109 -222zM428 297q0 43 -10 87q-15 60 -42 70q-15 -17 -33 -17t-36 10q-23 11 -23 27q0 13 17 23t17 13q0 5 -10 10.5t-16 5.5
q-74 0 -126 -95q-46 -82 -46 -163q0 -80 31 -144q39 -83 110 -83q77 0 126 94q41 78 41 162z" />
    <glyph glyph-name="one" unicode="1" 
d="M314 34q0 -40 -39 -40q-19 0 -30.5 12.5t-11.5 28.5q0 5 5.5 15.5t6.5 13.5q0 14 2 43l7 388q-4 6 -10 16q-11 31 -11 30q0 15 15 25q12 8 24 8q18 0 29.5 -12t11.5 -28l-9 -439v-33q2 -2 6 -9t4 -19z" />
    <glyph glyph-name="two" unicode="2" 
d="M455 472q0 -69 -107 -229q-15 -22 -145 -200l215 -2q30 0 30 -29q0 -27 -39 -29l-243 2q-4 -1 -13 -7t-21 -6q-17 0 -28 12t-11 29q0 22 18 35q9 1 23 6q23 20 71 88q101 142 127 185q64 106 64 147q0 38 -47 68q-10 5 -34 5q-52 0 -86 -38q1 -5 0 -14q-7 -31 -41 -31
q-17 0 -28.5 12.5t-11.5 29.5q0 20 19 33q35 23 61 40q41 25 86 25q56 0 98.5 -38t42.5 -94z" />
    <glyph glyph-name="three" unicode="3" 
d="M466 197q0 -63 -33 -121q-40 -69 -112 -98q-46 -18 -75 -18q-55 0 -105 32q-60 37 -60 96q0 21 21 64q1 4 3 11q1 4 7 11q11 12 28 12q18 0 28.5 -12t10.5 -28q0 -21 -17 -32q-6 -1 -19 -6q-6 -5 -6 -20q0 -36 44 -56q32 -16 62 -16q33 0 69 20q98 53 98 163q0 53 -32 86
t-85 33q-44 0 -70.5 -19.5t-33.5 -19.5q-11 0 -22 14.5t-11 24.5q0 12 18 22l26 14q52 46 161 152q-10 3 -21 3h-44l-113 5q-2 0 -18.5 -4.5t-19.5 -4.5q-17 0 -28 12t-11 28q0 15 11.5 26t26.5 11q14 0 23 -6q3 -3 10 -8q5 0 15 -2l153 -3q18 2 61 2q16 -1 34 -12.5
t18 -26.5q0 -10 -8 -18q-11 -10 -21 -19q-41 -37 -122 -114q1 0 4 -2q75 -7 117 -62q38 -49 38 -114z" />
    <glyph glyph-name="four" unicode="4" 
d="M489 211q0 -18 -12 -29t-27 -11q-10 0 -19 6t-22 6q-15 0 -15 -6v-170q0 1 4 -6q6 -10 6 -20q0 -17 -11.5 -28t-26.5 -11q-18 0 -29 12t-11 28q0 13 6 21t6 9v167h-252q-6 0 -17 15t-11 20q0 9 7 16q5 1 14 7q30 44 92 130q55 71 165 214q2 8 11 21q12 10 28 10
q39 0 39 -40q0 -8 -17 -36l-3 -268q0 -20 1 -22q2 -7 16 -7q8 0 18 6t20 6q14 0 27 -12.5t13 -27.5zM339 492q-123 -153 -189 -255h177q2 0 5 1l3 1l3 -2z" />
    <glyph glyph-name="five" unicode="5" 
d="M468 561q0 -17 -12 -28t-26 -11q-8 0 -24 7q-3 3 -7.5 5t-13.5 2l-200 -4q-24 0 -24 -5v-88l79 10q86 0 146 -70q55 -63 55 -138q0 -81 -43 -150q-50 -81 -139 -101q-20 -4 -34 -4q-41 0 -78 20q-45 25 -56 70q-1 4 -6.5 17t-5.5 17q0 16 12.5 27.5t27.5 11.5
q16 0 28 -12.5t12 -27.5q0 -2 -5 -15t-5 -15q0 -18 29 -29q24 -8 46 -8q71 0 123 72q38 53 38 128q0 54 -43 103.5t-99 49.5q-43 0 -84 -18q-2 -4 -6.5 -12.5t-18.5 -8.5q-13 0 -39 26q-6 5 -6 15q0 3 6.5 10.5t6.5 10.5q3 8 3 39v78q0 30 2 38q5 22 27 22q10 0 15 -2t14 -6
l204 1q22 0 34 2q5 1 14.5 5.5t11.5 4.5q16 0 28.5 -12t12.5 -27z" />
    <glyph glyph-name="six" unicode="6" 
d="M497 213q0 -149 -130 -203q-37 -16 -76 -16q-50 0 -91 18q-11 6 -30 17q-63 36 -90 133q-3 22 -13 66q-5 4 -13 14q-4 7 -4 12q0 4 9 15.5t10 14.5q2 10 6 28t16 53q44 98 112 151t146 53q52 0 90 -27q7 -2 24 -12q12 -11 12 -28q0 -15 -11.5 -25.5t-26.5 -10.5t-26 11.5
t-11 27.5q-15 13 -49 13q-119 0 -204 -157q-3 -8 -3 -14q75 47 152 47q22 0 68 -11q68 -16 103 -68q30 -45 30 -102zM444 213q0 89 -83 117q-38 13 -63 13q-102 0 -177 -84v-39q0 -15 14 -58q37 -115 157 -115q32 0 65 16q87 41 87 150z" />
    <glyph glyph-name="seven" unicode="7" 
d="M478 567q0 -19 -13 -30q-18 -14 -23 -26q-47 -115 -124 -289l-46 -104q-27 -61 -40 -104q-3 -10 -2 -14q4 -9 4 -18q0 -37 -38 -37t-38 39q0 10 6 18l12 16q4 16 14 46q14 35 153 357q20 46 47 112l-163 -2q-27 -1 -83 -6q-4 -4 -12 -11q-11 -7 -24 -7q-16 0 -27.5 11.5
t-11.5 27.5q0 17 13 27t25 10q2 0 17.5 -2t17.5 -2l186 9h75q4 3 13.5 10.5t21.5 7.5q18 0 29 -11.5t11 -27.5z" />
    <glyph glyph-name="eight" unicode="8" 
d="M492 464q0 -102 -93 -157q0 -1 1 -3q68 -67 68 -145q0 -30 -16 -69q-27 -63 -84 -96q-48 -27 -104 -27q-79 0 -136 45q-62 50 -62 133q0 85 68 144q0 1 -3 3q-34 17 -56 60q-20 38 -20 71q0 72 71 120q61 42 127 42q31 0 51 -5t23 -5q2 0 8.5 2.5t9.5 3.5q19 4 32 4
q54 0 86 -38q29 -33 29 -83zM438 466q0 23 -13 42q-16 25 -46 25q-11 0 -26 -6q-1 -3 -9 -23q-7 -15 -30 -15q-33 0 -42 42q-6 1 -14 1q-46 0 -93 -29q-54 -33 -54 -80q0 -11 9 -41q11 -34 46 -44q20 -7 67 -7q41 0 95 7q7 3 17 6q28 5 56 32.5t31 52.5q0 7 3 21t3 16z
M415 161q0 30 -18 62q-20 36 -53 54q-12 1 -33 3q-13 1 -10 1q-2 0 -13.5 -1.5t-13.5 -1.5h-45q-22 0 -61 -35q-42 -36 -43 -65q-1 -7 -2.5 -20t-1.5 -15q0 -60 46 -93q39 -29 97 -29q42 0 79 22q44 26 60 72q12 32 12 46z" />
    <glyph glyph-name="nine" unicode="9" 
d="M504 343q0 -8 -4 -16t-5 -12q0 1 0 -41q0 -88 -84 -182q-81 -89 -169 -111q-2 0 -6 -2q-10 -19 -33 -19q-16 0 -27.5 12t-11.5 28q0 15 11.5 26t25.5 11q4 0 11.5 -2.5t11.5 -2.5q12 0 65 28.5t100 90.5q50 67 50 123q-111 -64 -207 -64q-77 0 -131 43q-58 46 -58 122
q0 75 69.5 139t145.5 64q71 0 140 -55.5t82 -125.5q5 -25 16 -34q8 -7 8 -20zM437 343q0 8 -13 51q-16 52 -63 90q-50 40 -102 40q-54 0 -107.5 -48t-53.5 -101q0 -52 42 -83q37 -28 92 -28q80 0 160 46q45 26 45 33z" />
    <glyph glyph-name="colon" unicode=":" horiz-adv-x="194" 
d="M123 338q0 -19 -14.5 -33t-35.5 -14q-18 0 -33.5 14t-15.5 34q0 19 15 33t33 14q23 0 37 -15t14 -33zM123 36q0 -17 -14.5 -29.5t-30.5 -12.5q-18 0 -31.5 14.5t-13.5 30.5q0 18 13 30.5t30 12.5q20 0 33.5 -13.5t13.5 -32.5z" />
    <glyph glyph-name="semicolon" unicode=";" horiz-adv-x="182" 
d="M120 334q0 -19 -14.5 -33t-34.5 -14q-18 0 -34 14t-16 34t15 33.5t34 13.5q22 0 36 -14.5t14 -33.5zM132 19q-2 -21 -41.5 -64t-53.5 -43q-12 0 -15 2.5t-3 13.5q0 31 43 68q-7 8 -16.5 21t-9.5 30q0 18 16.5 31.5t37.5 13.5q28 0 42 -32q5 -12 4 -21z" />
    <glyph glyph-name="less" unicode="&#x3c;" horiz-adv-x="313" 
d="M227 497q0 2 -219 -182l213 -202q32 38 32 41q0 1 -88 80.5t-88 80.5q0 3 181 147q-31 32 -31 35z" />
    <glyph glyph-name="equal" unicode="=" horiz-adv-x="484" 
d="M17 358h392q17 0 17 -17v-29q0 -17 -17 -17h-392q-17 0 -17 17v29q0 17 17 17zM16 226h393q17 0 17 -17v-30q0 -17 -17 -17h-393q-17 0 -17 17v30q0 17 17 17z" />
    <glyph glyph-name="greater" unicode="&#x3e;" horiz-adv-x="313" 
d="M44 497q0 2 219 -182l-213 -202q-32 38 -32 41q0 1 88 80.5t88 80.5q0 3 -182 147q32 32 32 35z" />
    <glyph glyph-name="question" unicode="?" horiz-adv-x="409" 
d="M375 494q0 -70 -51 -116q-48 -34 -95 -68q-52 -40 -52 -94q0 -10 4 -29t4 -29q0 -12 -11.5 -20.5t-23.5 -7.5h-8q-27 18 -27 86q0 59 34 99q19 21 74 58q52 34 73 63q11 15 12.5 29.5t2.5 29.5q0 5 3 9q-13 46 -48 79q-39 37 -84 37q-33 0 -65 -18q-37 -21 -40 -51
l-28 -22l-12 -1q-18 -1 -30.5 12.5t-12.5 32.5q0 31 75 70q71 37 111 37q70 0 132.5 -58t62.5 -128zM200 37q0 -20 -15 -33.5t-35 -13.5q-18 0 -33.5 16t-15.5 34q0 19 14.5 33t32.5 14q20 0 36 -15t16 -35z" />
    <glyph glyph-name="at" unicode="@" horiz-adv-x="31" 
 />
    <glyph glyph-name="A" unicode="A" horiz-adv-x="679" 
d="M605 -43q-18 0 -28.5 14.5t-10.5 34.5q0 10 2 19l-71 198h-318q-42 -72 -71 -138q2 -10 1 -29q-5 -17 -14 -25.5t-27 -8.5q-19 0 -31 12.5t-12 30.5q0 23 22 36q9 5 13 12q14 21 28 52q7 18 25 57q-20 12 -20 27q0 30 20 30h29q64 126 187 374q2 5 0 10q-6 16 -3 27
q7 27 47 27q16 0 28 -14t12 -32q0 -4 -1 -9q-2 -11 0 -19q38 -118 119 -353q2 -4 10 -4q19 1 27 -11q10 -18 7 -28q-2 -3 -16 -18q5 -16 16 -51q15 -45 48 -133q6 -5 17 -15q8 -10 8 -31q0 -19 -14 -30.5t-29 -11.5zM371 591q-11 -6 -85.5 -150t-73.5 -162h267z" />
    <glyph glyph-name="B" unicode="B" horiz-adv-x="540" 
d="M463 102q-63 -159 -253 -159q-24 0 -71 11.5t-71 11.5q-3 0 -10.5 -3.5t-12.5 -3.5q-41 0 -41 44q0 16 6 25q0 1 6 5q11 9 12 23t2 27l1 214q-37 6 -37 37q0 32 37 38l-1 276q-16 33 -16 39q0 17 13 30t29 13q12 0 29 -10q5 -3 7 -3q1 0 6 1l11 3q84 21 124 21
q83 0 146 -57q67 -61 67 -150q0 -100 -102 -177q134 -62 134 -180q0 -38 -15 -76zM227 684q-18 0 -72 -13q-27 -6 -67 -15v-290h64q136 0 203 80q33 40 33 91q0 67 -52 109q-47 38 -109 38zM244 310l-158 -5v-219q0 -2 -2 -26t-2 -27q0 -9 8 -14q97 -20 119 -20
q151 0 201 122q12 28 12 58q0 70 -67 106q-51 27 -111 25z" />
    <glyph glyph-name="C" unicode="C" horiz-adv-x="528" 
d="M440 502q-19 0 -31.5 16.5t-8.5 43.5q-9 25 -42 42q-29 14 -57 14q-46 0 -101 -44q-131 -106 -131 -287q0 -153 83 -232q42 -39 102 -39q26 0 60.5 16.5t48.5 40.5q-6 13 -6 24q0 20 15.5 35t38.5 15q22 0 38 -15t16 -35q0 -19 -14 -35.5t-35 -19.5q-55 -83 -162 -83
q-64 0 -117 36q-124 84 -124 294q0 56 20 135q24 93 105.5 172.5t160.5 79.5q100 0 151 -81q8 -7 21 -21q10 -14 10 -30q0 -18 -12.5 -30t-28.5 -12z" />
    <glyph glyph-name="D" unicode="D" horiz-adv-x="618" 
d="M311 -12q-44 -27 -124 -40q-41 -7 -64 -7q-2 0 -24.5 2t-25.5 2t-6 -1l-10 -1q-13 -2 -15 -2q-15 0 -29 12t-14 27t23 43q3 5 3 13l10 568q-1 2 -1 13q-33 14 -33 44q0 20 15.5 34t36.5 14q19 0 34 -11l5 -2l120 9q18 1 35 1q126 0 204 -62q104 -85 104 -272
q0 -232 -244 -384zM240 653q-31 0 -39 -1q-62 -6 -103 -15q-3 -5 -7 -9l-6 -378q0 -3 -2 -24.5t-2 -24.5v-202h25.5h15.5q146 0 258 114.5t112 268.5q0 118 -60 190q-66 81 -192 81z" />
    <glyph glyph-name="E" unicode="E" horiz-adv-x="476" 
d="M388 -10q-4 0 -20 3.5t-22 3.5l-261 -5q-30 -14 -34 -14q-17 0 -29 14t-12 32l13 39q3 8 4 12q1 75 4 254q-30 4 -30 34t34 33q2 111 2 177q0 10 -7.5 28t-7.5 29q0 13 14.5 23t32.5 10q5 0 20.5 -4.5t21.5 -4.5l209 1q9 0 27 6.5t27 6.5q18 0 31 -13.5t13 -30.5
q0 -16 -14 -29t-30 -13q-9 0 -28.5 7.5t-31.5 7.5l-220 -1l-6 -206q163 -2 173 3q33 16 40 16q17 0 30 -13.5t13 -31.5q0 -25 -42 -42q-41 14 -44 14q-49 0 -173 4v-290q192 -5 270 10q3 5 15.5 11.5t17.5 6.5q18 0 30 -13t12 -31t-12 -31t-30 -13z" />
    <glyph glyph-name="F" unicode="F" horiz-adv-x="464" 
d="M408 603l-46 17l-247 -5q-3 1 -9 1q-10 -1 -10 -13v-231l4 -5q23 -3 54 0q34 3 139 3q3 0 15 8q9 6 21 6q18 0 30.5 -13.5t12.5 -30.5t-14 -29t-29 -12q-10 0 -16 2q-1 1 -7 6.5t-11 5.5h-195l-13 -12v-319q0 -4 5.5 -10t6.5 -8q5 -9 5 -21q0 -19 -12.5 -31.5
t-29.5 -12.5q-19 0 -30 16q-11 13 -11 29q0 7 10 31l6 321q-24 7 -24 35q0 31 26 36l2 224q1 9 -6 18l-3 5q-9 11 -9 26q0 20 16 32q13 10 29 10q5 0 6.5 -0.5t7.5 -4.5q13 -9 38 -8q7 0 17 1l234 6q36 12 35 12q15 0 25 -16t10 -36t-33 -33z" />
    <glyph glyph-name="G" unicode="G" horiz-adv-x="721" 
d="M663 374q-6 -143 -40 -213q-46 -97 -147 -152q-87 -47 -179 -47q-38 0 -84 16q-99 36 -158 143q-49 90 -49 184q0 129 78 231q68 88 163 140q89 48 172 48q60 0 109 -27q61 -34 65 -97q4 -7 9 -20v-11q0 -39 -40 -39q-18 0 -29 12t-11 27q0 13 12 31q3 5 3 7q0 33 -54 51
q-36 12 -64 12q-73 0 -149 -45q-103 -61 -158 -149q-50 -81 -50 -170q0 -100 57 -186q69 -103 180 -103q104 0 186 61q95 70 115 192q9 52 8 93q-9 5 -23 5l-257 -8q-5 -1 -10 -6l-5 -4q-12 -12 -28 -12q-20 0 -31 16q-10 12 -10 27q0 16 12 28t27 12q2 0 11.5 -3.5t13.5 -4
t18 -0.5h17l296 10q36 1 36 -30q0 -9 -12 -19z" />
    <glyph glyph-name="H" unicode="H" horiz-adv-x="732" 
d="M621 -30q-17 0 -31 14.5t-14 31.5q0 7 4 20t4 22l-6 309h-468l-6 -7q-10 -109 -24 -309q15 -17 15 -40q0 -43 -45 -43q-19 0 -32 13t-13 33q0 11 8 34.5t9 33.5q2 24 20 283q-9 6 -21 16q-2 4 -2 20q0 19 32 31q12 15 14 97q1 47 6 129q-1 10 -5 25t-4 18q0 17 13 30.5
t30 13.5q19 0 32.5 -13t13.5 -32q0 -20 -20 -40q-21 -138 -21 -232h464q0 113 -15 256q-4 3 -10 17t-6 20q0 17 13 30t30 13q18 0 32.5 -13.5t14.5 -32.5q0 -6 -5.5 -20.5t-5.5 -22.5q0 -47 5 -121q8 -108 9 -124q23 -14 23 -35q0 -11 -19 -32l9 -309q19 -33 19 -39
q0 -19 -14 -32t-33 -13z" />
    <glyph glyph-name="I" unicode="I" horiz-adv-x="193" 
d="M108 570l-11 -406q0 -7 -1 -30q-1 -32 4 -48q8 -26 8 -27q0 -44 -44 -44q-19 0 -31 13t-12 32q0 16 4 21l4 4q8 9 9 43l11 440q0 5 -6.5 23t-6.5 22q0 17 13 30t29 13q19 0 33 -14t14 -32q0 -6 -7 -20z" />
    <glyph glyph-name="J" unicode="J" horiz-adv-x="546" 
d="M481 625q-30 0 -47 19l-20 1l-4 -261q-1 -132 -77 -254q-87 -138 -210 -138q-53 0 -87 44q-30 40 -34 99q-6 107 64 167l7 41q6 24 18 30q12 20 39 20q16 0 28 -13.5t12 -33.5t-12 -34t-28 -14q-6 0 -15 3q-12 -25 -38 -78t-26 -75q0 -104 69 -104q113 0 181 140
q56 113 56 235v227h-76q-12 -16 -32 -16q-14 0 -24.5 11.5t-10.5 25.5t10 24t24 10q7 0 22.5 -5t24.5 -5q31 0 147 8q16 14 36 14q21 0 35.5 -14t14.5 -33q0 -41 -47 -41z" />
    <glyph glyph-name="K" unicode="K" horiz-adv-x="550" 
d="M411 506h-6q-4 1 -6 1l-276 -144q172 -184 283 -293q8 -2 24 -11q14 -14 14 -31q0 -16 -12.5 -25.5t-26.5 -9.5q-19 0 -31 16q-1 11 -9 28q-66 69 -199 206q-37 40 -83 81q-4 -14 -4 -26v-49l-5 -157q-1 -24 4 -41l2 -6q1 -2 1 -4q0 -36 -37 -36t-37 37q0 9 7.5 20.5
t7.5 20.5q0 -7 0 12q0 4 1 8l1 492q0 9 -4.5 21.5t-4.5 19.5q0 36 37 36q16 0 27 -12t11 -26q0 -9 -6 -19q-8 -14 -9 -18l1 -194q10 3 12.5 3t64.5 32q70 36 209 112q5 3 13 12t14 13q9 8 20 8q18 0 29 -13.5t11 -27.5t-12 -25t-26 -11z" />
    <glyph glyph-name="L" unicode="L" horiz-adv-x="366" 
d="M274 -7q-5 0 -34 12l-167 5q-2 0 -14 -2l-8 -2q-4 -1 -6 -1q-36 0 -36 39q0 8 6 21.5t8 18.5l12 481q0 3 1 14q1 19 -5 27q-8 13 -8 24q0 13 11 25t25 12q15 0 26.5 -11.5t11.5 -26.5q0 -7 -5.5 -19t-6.5 -17l-10 -526q10 -10 27 -9q21 1 27 -1l101 -2q9 0 14 1l8.5 5.5
t21.5 5.5q15 0 26.5 -12t11.5 -26q0 -13 -11.5 -24.5t-26.5 -11.5z" />
    <glyph glyph-name="M" unicode="M" horiz-adv-x="828" 
d="M726 16q-12 0 -17 2q-24 10 -24 40q0 15 6 27l-86 423l-157 -382q0 -10 -2 -17q-5 -17 -29 -25q-2 -1 -4 -1q-15 0 -19 1q-14 2 -25 22q-10 18 1 38l-155 385q-8 0 -10 -5l-1 -2l-1 -1q-43 -158 -116 -453q-1 -3 0 -33q0 -20 -12 -32q-7 -7 -18 -9h-10q-42 0 -42 43
q0 14 14.5 30t14.5 33q21 71 48 182q32 114 87 326q1 4 -1 16.5t-2 18.5q0 4 8.5 14.5t12.5 11.5q15 5 18 5q5 0 21 -5q7 -2 14.5 -13t7.5 -17q-3 -11 -2 -36q18 -44 53 -130.5t102 -254.5l2 -4q2 -1 8 -8q53 120 163 377v5q-4 10 -4 20q0 20 14 34t35 14q20 0 34 -14
t14 -34t-15 -36q19 -95 27 -137q12 -58 35 -173q10 -54 35 -167q0 -3 5 -7l2 -3q12 -11 12 -29q0 -40 -42 -40z" />
    <glyph glyph-name="N" unicode="N" horiz-adv-x="689" 
d="M607 678q13 13 27 13q16 0 27 -12t11 -29q0 -38 -37 -41q-5 -7 -8 -12q-8 -14 -10 -39q-3 -21 -5 -41q-1 -5 -16 -103l-50 -317q-1 -5 1 -15.5t2 -13.5q0 -5 -2 -12.5t-11.5 -19t-17.5 -12.5q-18 0 -12 0h-11q-19 7 -24 17q-3 4 -10 28q-1 6 -8 14q-172 196 -357 398h-2
h-10l2 -393q0 -3 5.5 -21t5.5 -20q0 -17 -13.5 -30.5t-30.5 -13.5q-16 0 -30 13.5t-14 30.5q0 9 8 21q10 18 11 19l-2 407q0 17 -3 52q-4 5 -11 16q-5 7 -5 20q0 42 42 42q25 0 37 -19q2 -2 7 -25q1 -5 20 -27q133 -152 368 -415h4q4 0 7 5q7 32 18 106q9 57 57 352l1 16
l22 46q1 1 7 6l5 5q3 2 5 4v0z" />
    <glyph glyph-name="O" unicode="O" horiz-adv-x="552" 
d="M225 -2q-106 0 -168 111q-51 92 -51 208q0 113 70 225q78 126 184 126q60 0 94 -71q123 -47 123 -249q0 -125 -62 -229q-73 -121 -190 -121zM358 530q-18 -19 -37 -19q-20 0 -42 11.5t-22 27.5q0 14 18.5 25t18.5 15q0 8 -12 15t-19 7q-85 0 -146 -109q-52 -95 -52 -187
q0 -91 35 -165q45 -95 128 -95q89 0 145 107q47 90 47 186q0 49 -12 99q-17 69 -50 82z" />
    <glyph glyph-name="P" unicode="P" horiz-adv-x="625" 
d="M30 567q-1 6 -10 22t-9 25q0 39 33 39q6 0 17.5 -1.5t16.5 -1.5q19 0 104 22t135 22q112 0 174 -56q63 -59 63 -171q0 -274 -388 -274q-40 0 -84 3v-173q13 -15 13 -34q0 -16 -11.5 -27t-26.5 -11t-26.5 12.5t-11.5 27.5q0 5 5.5 17.5t5.5 18.5v180q-25 13 -25 32
q8 11 25 28v300zM323 645q-115 0 -235 -47l-8 -24q1 -30 -1 -97q-3 -71 -3 -105q0 -78 9 -123q76 -9 108 -9q127 0 210 51q101 61 101 179q0 85 -48 130t-133 45z" />
    <glyph glyph-name="Q" unicode="Q" horiz-adv-x="724" 
d="M642 -67l-28 11q-30 33 -90 98q-106 -102 -218 -102q-136 0 -222 116q-79 105 -79 245q0 151 94 279q103 140 249 140q80 0 135 -66q172 -19 172 -274q0 -179 -97 -299q18 -20 61.5 -54.5t62.5 -56.5q0 -16 -11.5 -26.5t-28.5 -10.5zM503 597l-43 -21q-51 22 -51 44
q0 2 13 26q-33 23 -67 23q-129 0 -218 -124q-80 -112 -80 -246q0 -119 62 -208q70 -100 184 -100q50 0 98.5 23t77.5 61q-50 33 -95 31l-23 -1q-20 -20 -37 -20q-15 0 -27 11.5t-12 27.5q0 15 12 26t26 11q108 0 195 -49q87 110 87 269q0 74 -18 128q-26 76 -84 88z" />
    <glyph glyph-name="R" unicode="R" horiz-adv-x="540" 
d="M216 326q-31 -6 -108 -26l280 -142h5l3 1q3 1 5 1q24 0 37 -23q12 -12 12 -27q0 -16 -13.5 -27.5t-32.5 -11.5q-20 0 -33 11.5t-13 27.5q-58 37 -267 139q-3 -11 -5.5 -21t-2.5 -13q0 -23 2 -72q0 -33 -1 -101q1 -5 7.5 -16.5t6.5 -19.5q0 -15 -12.5 -27t-27.5 -12
q-16 0 -28.5 14t-12.5 28q0 -7 13 35l6 214q1 24 -12 34l-2 2q-7 5 -7 23q0 12 14 23q2 2 8 7q0 12 1 36l11 217q1 12 -4 24q-1 3 -5 7l-2 3q-8 9 -8 21q0 17 12.5 29t29.5 12q2 0 8.5 -1t8.5 -1q3 0 7 1l12 4q87 24 166 24q48 0 99 -22q63 -26 82 -70q20 -49 20 -74
q0 -90 -79 -149q-59 -44 -180 -82zM257 665q-62 0 -146 -19q-13 -20 -13 -24q0 -49 -3 -133q-2 -102 -3 -137q30 5 86 17q42 11 97 33q147 60 147 153q0 110 -165 110z" />
    <glyph glyph-name="S" unicode="S" horiz-adv-x="497" 
d="M178 -48q-82 0 -113 55q-24 56 -47 111q-4 6 -4 19q0 16 11.5 27t27.5 11q15 0 27.5 -12.5t12.5 -25.5q0 -2 -7 -18.5t-7 -20.5q0 -20 18 -48t40 -38q19 -8 42 -8q79 0 140 70q59 67 59 141q0 59 -42 90q-21 15 -79 29q-10 3 -107 31q-57 16 -90 55t-33 84q0 22 13 56
q21 57 70 91q45 31 94 31q58 0 123 -35q13 -7 18 -7q2 0 9 1t9 1q16 0 29 -11t13 -28q0 -16 -12.5 -28t-29.5 -12q-10 0 -20 8.5t-18 16.5q-19 16 -55.5 28.5t-65.5 12.5q-50 0 -86.5 -40.5t-36.5 -88.5q0 -26 20.5 -48.5t49.5 -32.5q63 -17 125 -34q82 -23 110 -54
q46 -51 46 -116q0 -101 -77 -182t-177 -81z" />
    <glyph glyph-name="T" unicode="T" horiz-adv-x="582" 
d="M480 580q-13 0 -17 4t-14 9q-15 3 -44 3l-98 -2l-2 -2l-2 -1q-4 -3 -4 -9v-505q0 -3 7 -14.5t7 -21.5q0 -16 -13.5 -27.5t-27.5 -11.5q-17 0 -28.5 15t-11.5 28q0 1 7 16.5t7 17.5v513h-129q-24 0 -34 -3q-4 -1 -13.5 -6.5t-20.5 -5.5q-38 0 -38 41q0 16 11.5 27.5
t27.5 11.5q5 0 16 -5q15 -7 16 -8q5 -1 17 -1q6 0 14 1l330 4q8 4 26 11h10q40 0 40 -40q0 -39 -39 -39z" />
    <glyph glyph-name="U" unicode="U" horiz-adv-x="567" 
d="M458 -38q-18 0 -29.5 11.5t-11.5 27.5q0 2 4 16l8 25l4 196q0 13 -6 38q-27 -50 -83 -145q-67 -99 -157 -123q-16 -4 -38 -4q-84 0 -121 90q-25 60 -25 145q0 71 21 163q7 29 44 160q1 5 -1 13t-2 11q0 26 15 36q11 8 24 8q18 0 29.5 -14t11.5 -28q0 -13 -11 -25
q-16 -17 -20 -38q-10 -31 -28 -92q-29 -105 -29 -196q0 -58 13 -102q23 -77 79 -77q19 0 40 8q17 7 51 32q73 54 134 204q55 137 55 230q0 20 -6 33l-2 4q-4 6 -4 15q0 16 11.5 28t27.5 12t28 -13.5t12 -29.5q0 -10 -12 -33l-2 -467q0 -40 1 -47q0 -3 6.5 -12.5t6.5 -21.5
q0 -38 -38 -38z" />
    <glyph glyph-name="V" unicode="V" horiz-adv-x="528" 
d="M497 640q0 -9 -7 -18q-1 -1 -9 -6.5t-10 -10.5q-18 -59 -57 -175q-65 -165 -157 -401q0 -13 -1 -37q-1 -8 -11 -17t-18 -10q-3 0 -8 -1q-43 13 -37 57q-5 22 -17 68q-11 43 -65 235q-19 71 -62 214q-5 5 -15.5 16.5t-10.5 25.5q0 16 14 29q13 10 25 10q9 0 17 -4
q14 -7 19 -16.5t4 -22.5q-3 -23 -2 -27q43 -149 131 -455q11 11 18 31q43 108 86 217q49 128 74 207q9 24 22 72q-1 13 1 40q4 20 25 23q4 1 11 1q41 0 40 -45z" />
    <glyph glyph-name="W" unicode="W" horiz-adv-x="771" 
d="M706 565q-13 -38 -26 -99q-11 -51 -22 -101q-26 -104 -77 -309q0 -2 3 -29q2 -19 -11 -31.5t-31 -12.5t-29.5 12.5t-10.5 29.5q1 12 0 17q-20 52 -57 149q-34 89 -77 188q-9 -7 -12 -13q0 -1 -3 -7q-51 -108 -144 -327q-1 -2 1.5 -17.5t0.5 -20.5q-6 -29 -40 -29
q-17 0 -29 14.5t-12 27.5q0 1 5 15.5t5 17.5q0 16 -28 162l-33 168q-16 95 -48 239q-1 3 -7 10l-5 5q-9 10 -9 26t11.5 29t29.5 13q19 0 30 -14.5t11 -33.5q0 -14 -7 -24l99 -500q55 116 69 149q44 96 71 169q2 3 -1 16q-1 11 0 15q6 33 40 33q32 0 41 -31q-2 -11 1 -33
q42 -103 125 -311q8 0 12 7q8 35 23 94q8 31 32 129q19 75 51 216q0 -1 -3 33q-1 18 11 31t29 13q18 0 31 -12t13 -30q0 -10 -10 -22q-11 -15 -13 -21z" />
    <glyph glyph-name="X" unicode="X" horiz-adv-x="538" 
d="M463.5 613.5q-13.5 -8.5 -16.5 -12.5q-19 -24 -100 -153q-27 -36 -65 -98q-4 -11 4.5 -24.5t16.5 -25.5q35 -57 69 -114q43 -69 77 -109q2 -3 12 -9q29 -16 16 -49q-10 -25 -38 -25q-8 0 -15 3q-24 10 -26 30l1 7t-2 12q-49 78 -147 235l-10 5l-148 -215q-2 -14 -5 -34
q-10 -24 -36 -24q-18 0 -31 13t-13 32q0 7 3 14.5t21 20.5q11 7 20 19q41 58 82 115q60 84 71 112q3 7 -48 93q-48 79 -82 129q-2 2 -14 10t-16 14q-12 16 -3 40q10 25 37 25q22 0 32 -18q2 -5 11 -38q2 -8 51 -87q22 -35 66 -102q6 -3 10 0l2 2q51 77 140 212q8 12 8 21
q3 47 38 47q13 0 30 -7q4 -1 9.5 -15.5t6.5 -18.5q0 -11 -2.5 -17.5t-16 -15z" />
    <glyph glyph-name="Y" unicode="Y" horiz-adv-x="549" 
d="M480 596q-18 -19 -35 -53q-15 -28 -30 -57q-140 -243 -140 -240v-323q11 -10 13 -18q1 -3 1 -15q0 -34 -26 -34q-37 0 -46 13q-18 28 -10 45q15 33 15 43l-1 264q0 26 -17 62l-30 58q-10 19 -29 57q-34 69 -104 208q-5 10 -12 15q-25 16 -25 39q0 15 11.5 27.5t27.5 12.5
q37 0 43 -32q0 -3 -1 -14q0 -11 2 -17q33 -72 159 -316q8 0 11 5q62 102 169 292q1 3 0 22q-2 26 9 33q5 3 31 3q18 0 29.5 -12.5t11.5 -28.5q0 -11 -27 -39z" />
    <glyph glyph-name="Z" unicode="Z" horiz-adv-x="506" 
d="M440 572q-21 -19 -131 -192l-127 -195q-12 -16 -19 -25l-3 -5q-6 -8 -6 -10q1 -10 9 -3q1 0 4 3q-1 1 -1.5 2.5t-4.5 4.5q-2 -4 -43 -58l186 9q-5 0 18 -1q18 -1 26 3.5l24 13.5h10q43 0 43 -41q0 -18 -12.5 -29.5t-29.5 -11.5q-1 0 -17 7t-19 7q-2 0 -23 -1.5t-28 -1.5
q-67 -3 -203 -12q-8 -5 -24 -13q-9 -2 -16 -2q-18 0 -29.5 12.5t-11.5 28.5q0 21 18 37q2 2 12.5 4t14.5 6q25 24 61 82q88 139 261 397h-181q-71 0 -107 -9q-7 -5 -20 -11q-14 -2 -13 -2q-16 0 -28 14t-12 30q0 24 41 40l40 -14l83 6q41 3 107 1q81 -2 108 -1q2 0 21 11
q6 3 10 3q51 1 51 -41q0 -17 -13 -26t-26 -17z" />
    <glyph glyph-name="bracketleft" unicode="[" horiz-adv-x="205" 
d="M154 -86q0 -17 -17 -17h-91q-14 0 -26 3q-17 4 -17 17v816q0 17 17 17q3 0 9 1h9h93q17 0 17 -17v-21q0 -17 -17 -17h-68v-747h74q17 0 17 -17v-18z" />
    <glyph glyph-name="backslash" unicode="\" horiz-adv-x="313" 
d="M324 -41q0 28 -30 32l-255 616q4 8 4 17q0 15 -9.5 25.5t-23.5 10.5t-24 -10.5t-10 -25.5q0 -27 26 -34l258 -613q-6 -8 -6 -18q0 -13 10 -22.5t25 -9.5q14 0 24.5 9.5t10.5 22.5z" />
    <glyph glyph-name="bracketright" unicode="]" horiz-adv-x="205" 
d="M3 -86q0 -17 17 -17h91q14 0 26 3q17 4 17 17v816q0 17 -17 17q-4 0 -9 1h-9h-93q-17 0 -17 -17v-21q0 -17 17 -17h68v-747h-74q-17 0 -17 -17v-18z" />
    <glyph glyph-name="asciicircum" unicode="^" horiz-adv-x="311" 
d="M50 742q-5 -4 -7 -6v0q61 42 99 75l108 -82q7 -5 7 -12q0 -16 -19 -16q-7 0 -12 3l-81 49q-10 -8 -48 -28.5t-47 -20.5q-18 0 -18 19t18 19z" />
    <glyph glyph-name="underscore" unicode="_" horiz-adv-x="550" 
d="M-1 -92h551v-57h-551v57z" />
    <glyph glyph-name="grave" unicode="`" horiz-adv-x="549" 
d="M281 812l-91 -20q-14 -3 -14 -11q0 -2 3 -3l153 -78q2 -1 8 -6.5t12 -4.5l23 3q16 2 3 14l-71 69q-1 2 -12 22q-9 16 -14 15z" />
    <glyph glyph-name="a" unicode="a" horiz-adv-x="392" 
d="M335 254q0 -2 -7 -18.5t-7 -30.5q0 -35 -8 -105t-8 -104q0 -6 3.5 -18t3.5 -18q0 -16 -11.5 -27t-27.5 -11t-26 12t-10 27q0 13 8 25.5t8 37.5q-45 -16 -96 -16q-152 0 -152 128q0 70 71 120q65 46 138 46q9 0 27.5 -3.5t28.5 -3.5q1 2 1 5q0 32 -15 54q-18 25 -49 25
q-25 0 -65 -18.5t-50 -38.5q0 -8 -4 -23q-8 -22 -35 -22q-16 0 -26 11.5t-10 27.5q0 19 30 37q14 14 47 40q60 38 115 38q46 0 79 -35q23 -24 28 -56t9 -64q1 -3 5.5 -11t4.5 -11zM269 238q-31 10 -44 10q-33 0 -50 -4q-43 -10 -78 -39q-39 -33 -39 -72q0 -73 98 -73
q20 0 54 7q43 8 47 19q11 27 12 75v77z" />
    <glyph glyph-name="b" unicode="b" horiz-adv-x="440" 
d="M385 204q0 -79 -60.5 -137t-136.5 -58q-67 0 -122 46q-3 -4 -3 -12q0 -2 3.5 -14t3.5 -14q0 -16 -11.5 -26.5t-26.5 -10.5t-26.5 12.5t-11.5 26.5q0 8 7.5 19t8.5 15t8 76q19 206 19 185q0 2 -4 11t-4 12q0 8 5 16q2 1 6 4l12 141q0 2 -4.5 16t-4.5 15q0 37 37 37
q15 0 27 -10.5t12 -25.5q0 -8 -7 -18t-7 -14q-10 -57 -11 -119v-5l3 -3q75 16 104 16q85 0 136 -54q48 -51 48 -127zM332 205q0 7 -9.5 47.5t-52.5 62.5q-33 18 -69 18q-21 0 -58.5 -7.5t-52.5 -14.5q-17 -188 -17 -179q0 -8 11 -20q44 -50 102 -50q55 0 100.5 42.5
t45.5 100.5z" />
    <glyph glyph-name="c" unicode="c" horiz-adv-x="416" 
d="M366 96q0 -23 -33 -40q-7 -8 -22 -23q-18 -19 -34 -28q-41 -25 -95 -25q-91 0 -140 61q-43 54 -43 140q0 148 123 240q8 6 36.5 16.5t59.5 10.5q39 0 72 -20q43 -25 49 -73q2 -4 5 -11q4 -13 4 -19q0 -16 -11 -27t-26 -11q-14 0 -26 11.5t-12 26.5q0 2 5.5 15t5.5 15
q0 19 -25 31q-20 9 -41 9q-47 0 -87.5 -36.5t-64.5 -95.5q-15 -39 -15 -82q0 -10 8 -53q9 -50 48 -75q32 -21 74 -21q73 0 109 59q0 7 3 18q12 25 36 25q37 0 37 -38z" />
    <glyph glyph-name="d" unicode="d" horiz-adv-x="511" 
d="M449 563q0 -11 -7.5 -20t-7.5 -14q-3 -56 -8 -168l-2 -56q0 -16 6.5 -23.5t6.5 -20.5q0 -11 -8 -23.5l-8 -12.5v-174q0 -32 5 -57l10 -15q6 -7 6 -21q0 -37 -38 -37q-16 0 -26.5 11.5t-10.5 25.5q0 2 3 13t3 13t-2.5 24t-2.5 24v39l-4 73q-37 -50 -83 -89
q-52 -45 -94 -55q-22 -5 -37 -5q-68 0 -108 59q-32 49 -32 110q0 38 21 98q28 81 85.5 132.5t124.5 51.5q15 0 28 -2q60 -11 103 -57q1 0 2 3l7 133q0 16 -4 27t-4 13q0 14 10.5 25.5t24.5 11.5q15 0 28 -10.5t13 -26.5zM370 274q0 9 -6 22q-35 83 -80 88q-4 2 -10 4
q-16 4 -31 4q-77 0 -132 -86q-47 -73 -47 -142q0 -39 16 -70q22 -45 68 -45q31 0 72 27q83 53 146 167q4 7 4 31z" />
    <glyph glyph-name="e" unicode="e" horiz-adv-x="466" 
d="M413 233q0 -28 -26 -28q-2 0 -7 1.5t-8 1.5h-146q-143 0 -157 -8v-4q-1 -48 28 -99q33 -58 77 -65q10 -1 23 -1q58 0 66 1q44 7 54 39q0 2 -4 10.5t-4 15.5q0 14 11.5 25.5t25.5 11.5q39 0 39 -34q0 1 -12 -35q-9 -14 -21 -35q-19 -54 -154 -54q-116 0 -171 150
q-6 16 -8 43q-2 31 -5 43q-1 3 -5 10t-4 11q0 6 7.5 13t8.5 9t12 36q17 53 72 91t111 38q38 0 77 -17t62 -44q17 -21 27 -47t19 -52q1 -3 8 -12q4 -7 4 -15zM344 261v7q0 4 -2 7q-2 20 -24 45t-41 33q-29 13 -60 13q-36 0 -71.5 -21t-52.5 -54q-13 -24 -13 -29q1 -4 2 -5
q106 6 262 4z" />
    <glyph glyph-name="f" unicode="f" horiz-adv-x="280" 
d="M339 610q0 -16 -10.5 -26.5t-26.5 -10.5q-42 0 -36 54q-19 23 -40 23q-117 0 -117 -273q23 -8 91 -8q3 0 9.5 1.5t9.5 1.5q11 0 20.5 -8.5t9.5 -18.5q0 -13 -8.5 -23t-20.5 -10q-3 0 -8.5 2t-7.5 2q-5 1 -93 7l-7 -11l-1 -280q0 -2 4 -11t4 -16q0 -15 -11.5 -26.5
t-26.5 -11.5q-14 0 -26 13t-12 27q0 9 8.5 20.5t8.5 25.5v271l-9 2l-16 -1q-28 16 -28 30q0 11 9 21t19 10q4 0 11.5 -3.5t10.5 -3.5q5 1 6 3q14 149 16 160q20 92 78 135q33 24 75 24q54 0 94 -55q7 -7 14 -15t7 -21z" />
    <glyph glyph-name="g" unicode="g" horiz-adv-x="475" 
d="M337 229q0 68 -17 95q-20 32 -85 43q-23 4 -36 4q-64 0 -105 -49q-37 -46 -37 -112q0 -65 26 -107q31 -50 92 -50q53 0 100 43l36 30q23 20 23 37q0 11 1.5 32.5t1.5 33.5zM388 179h2q21 0 21 -28q0 -30 -21 -29h-2q-1 -147 -34 -243q-50 -143 -167 -143q-40 0 -75 22.5
t-45 60.5q-4 13 -4 54q0 2 2 6t2 7t-2 10.5t-2 11.5q0 13 12 23t25 10q15 0 27 -12t12 -26q0 -15 -11.5 -26t-11.5 -27q0 -28 20.5 -45t49.5 -17q89 0 128 141q20 74 20 120l-1 27q-90 -77 -164 -77q-78 0 -124 67q-41 60 -41 141q0 91 50 151q54 66 142 66q41 0 73 -13
q12 -5 64 -33v5q0 3 -1 8.5t-1 7.5q0 16 10.5 27t26.5 11t27 -11t11 -27q0 -11 -6.5 -19.5t-12.5 -16.5q-7 -11 -7 -55q0 -116 8 -129z" />
    <glyph glyph-name="h" unicode="h" horiz-adv-x="468" 
d="M405 280q0 -12 -3.5 -46.5t-14.5 -112.5q-9 -68 -9 -70q0 -1 3.5 -11.5t3.5 -15.5q0 -38 -38 -38q-18 0 -29 12t-11 27q0 12 9 25.5t11 33t15 100.5q9 59 9 95q0 72 -16 90q-29 34 -91 34q-46 0 -82 -30q-23 -18 -76 -84q-4 -4 -4 -52v-173q0 5 9 -14q5 -9 5 -18
q0 -17 -12 -28.5t-27 -11.5q-17 0 -28.5 13t-11.5 27q0 2 5.5 16.5t5.5 16.5v189q0 1 -3 2t-5 4q-8 11 -8 24q0 8 8.5 16.5t9.5 14.5q2 16 4 49q8 96 20 268q-2 8 -4 24q1 13 13.5 23.5t24.5 10.5q17 0 28.5 -12t11.5 -28q0 -11 -9 -25q-5 -4 -7.5 -10t-21.5 -220l2 -23
q39 32 79 64q30 21 71 21q35 0 76 -13q56 -18 76 -70q11 -32 11 -94z" />
    <glyph glyph-name="i" unicode="i" horiz-adv-x="174" 
d="M111 503q0 -15 -12.5 -26t-27.5 -11q-39 0 -39 38q0 17 11.5 28t27.5 11q18 0 29 -12t11 -28zM104 366q0 -10 -8.5 -23t-8.5 -25q-1 -40 -5.5 -119t-4.5 -76q0 -2 5 -17t5 -17q0 -18 -13 -27.5t-27 -9.5q-38 0 -38 38q0 9 4.5 16.5t6.5 12.5q0 2 3 41q9 127 9 164
q0 18 -3 25.5t-3 17.5q0 38 38 38q18 0 29 -11.5t11 -27.5z" />
    <glyph glyph-name="j" unicode="j" horiz-adv-x="214" 
d="M117 532q0 -16 -11 -27.5t-27 -11.5q-18 0 -29.5 12t-11.5 28t12 27.5t28 11.5t27.5 -12.5t11.5 -27.5zM85 245q-1 38 -10 113q-3 5 -8 14t-5 20q0 39 38 39q17 0 28.5 -12.5t11.5 -27.5q0 -2 -4 -15t-4 -15l11 -179l-1 -90q-2 -97 -39 -203q-58 -170 -172 -170
q-20 0 -45 9q-65 24 -86 124q-4 6 -11 17q-4 8 -4 17q0 15 11.5 27.5t27.5 12.5q17 0 28.5 -12t11.5 -29q0 -2 -3.5 -13.5t-3.5 -13.5t1 -6.5t2 -5.5q1 -28 24 -50.5t47 -22.5q42 0 77 49q26 36 43 87q7 23 19 66q11 50 16 132q0 64 -1 138z" />
    <glyph glyph-name="k" unicode="k" horiz-adv-x="401" 
d="M381 466q0 -28 -25 -35q-8 1 -25 -3q-123 -61 -229 -124q71 -60 217 -179q8 -1 22 -6q19 -12 19 -33q0 -16 -13 -26.5t-27 -10.5q-21 0 -32 15q-2 9 -9 22q-55 53 -203 166l-13 -192q0 -15 4.5 -25t4.5 -18q0 -15 -11.5 -25.5t-27.5 -10.5t-27.5 11.5t-11.5 27.5
q0 5 5 14t8 16q4 14 4 38q0 20 1 40q27 496 27 457q0 7 -5 19t-5 17q0 14 11.5 27.5t26.5 13.5q18 0 29 -13.5t11 -27.5q0 -11 -4 -18q-3 -3 -5.5 -9.5t-4.5 -39.5q-5 -85 -11 -175l-8 -19q-1 1 11 1q3 0 83 41q86 43 134 70q1 1 7.5 17t31.5 16q16 0 28 -12t12 -27z" />
    <glyph glyph-name="l" unicode="l" horiz-adv-x="149" 
d="M109 631q0 -5 -6.5 -15t-6.5 -13q-2 -9 -7 -94l-29 -494q0 -2 5 -18t5 -17q0 -17 -12 -28t-28 -11t-27 12t-11 27q0 5 5 15.5t6 13.5q2 9 7 93l31 503l-5 9t-5 19q0 16 10.5 27.5t27.5 11.5t28.5 -14t11.5 -27z" />
    <glyph glyph-name="m" unicode="m" horiz-adv-x="584" 
d="M515 249q0 -43 -15 -115q-10 -46 -20 -91q-1 -4 1.5 -15t2.5 -16q0 -24 -22 -31q-12 -4 -17 -4q-16 0 -27.5 12t-11.5 27q0 12 9 26q5 3 11 11l22 94q13 62 13 106q0 108 -104 108q3 0 -13 -2q-23 -4 -55 -26q9 -63 9 -65q0 -6 -3 -50q-4 -48 -10 -96q-1 -7 -5 -27.5
t-4 -22.5t3 -13.5t3 -14.5q0 -36 -39 -36q-17 0 -28 12t-11 25q0 7 7 18t10 17q5 17 10 51q11 84 11 133q0 95 -76 99q-7 0 -20 -1q-16 -2 -46 -8q-7 -2 -21 -8q-3 -47 -9 -142l-3 -117q0 -9 6.5 -21t6.5 -20q0 -36 -39 -36t-39 36q0 10 5 18t5 13l2 108l7 131q0 17 -8.5 24
t-8.5 24q0 18 12 29t27 11q2 0 10.5 -2.5t10.5 -2.5q1 0 18 6q11 3 23 5q19 2 64 7l91 -35l18 9q28 14 46 18.5t35 4.5q77 0 118 -48q38 -44 38 -117z" />
    <glyph glyph-name="n" unicode="n" horiz-adv-x="393" 
d="M332 278q0 -45 -32 -169q-12 -48 -12 -60q0 -3 2 -9t2 -10q0 -32 -37 -32q-14 0 -24.5 10t-10.5 25q0 7 7 17q10 14 11 16q11 25 27 101t16 104q0 98 -93 98q-22 0 -63 -9q-49 -9 -56 -21q-2 -4 -2 -11v-273q1 -2 12 -16q8 -10 8 -17q0 -14 -11 -24.5t-26 -10.5
q-14 0 -27.5 11.5t-13.5 25.5q0 5 6 15.5t6 18.5v260q0 8 -8.5 17t-8.5 21q0 14 10 24t24 10q3 0 8 -1.5t8 -1.5q-6 0 22 9q76 23 108 23q20 0 35 -6q14 -2 40 -11q33 -17 53 -51.5t20 -72.5z" />
    <glyph glyph-name="o" unicode="o" horiz-adv-x="494" 
d="M434 240q0 -105 -58 -186q-65 -90 -165 -90q-87 0 -143 58.5t-56 144.5q0 60 31 127q32 72 79 104q44 29 66 29q9 0 24.5 -4.5t21.5 -4.5q46 19 66 19q68 0 104 -68q30 -55 30 -129zM385 242q0 52 -17 93q-23 55 -67 55q-8 0 -26 -6l-1 -15q-18 -29 -40 -29
q-14 0 -24.5 12.5t-7.5 25.5h-7q-52 0 -96 -81q-39 -71 -39 -129q0 -65 42 -111t107 -46q80 0 132 78q44 69 44 153z" />
    <glyph glyph-name="p" unicode="p" horiz-adv-x="432" 
d="M364 253q0 -95 -77 -166q-71 -66 -152 -66q-2 0 -25.5 3t-25.5 3h-5q-1 -5 -3 -16l-3 -141q0 -9 4.5 -19.5t4.5 -17.5q0 -35 -36 -35q-34 0 -34 36q0 3 10 28q2 4 2 21q2 63 2 186l1 3t1 5q2 27 5 127l5 128q0 6 -10 16.5t-10 23.5q0 14 11.5 23.5t24.5 9.5q2 0 11.5 -2
t10.5 -2q2 0 5.5 1t4.5 1q23 4 47 8q35 5 62 5q74 0 121.5 -45t47.5 -118zM314 255q0 52 -32.5 82t-85.5 30q-11 0 -88 -10q-9 -1 -19 -4l-8 -275q35 -7 53 -7q69 0 124.5 57t55.5 127z" />
    <glyph glyph-name="q" unicode="q" horiz-adv-x="422" 
d="M367 366q0 -10 -7.5 -18.5t-7.5 -11.5q-10 -59 -10 -149q0 -6 6.5 -13.5t6.5 -14.5q0 -8 -8 -17.5t-9 -20.5q-3 -58 -9 -172l-2 -63v-27q2 -5 8 -13q4 -4 4 -18q0 -34 -34 -34q-15 0 -25.5 10t-10.5 25q0 2 7 24v47l10 178l-3 2q-14 -11 -44 -34q-54 -38 -89 -38
q-38 0 -77 20q-74 36 -74 137q0 38 16 82q62 165 218 165q8 0 23 -1.5t34 -5.5q30 -7 24 -7q2 0 8.5 1.5t8.5 1.5q14 0 25 -11t11 -24zM301 332q0 11 -2 17q-11 6 -22 8q-23 6 -43 6q-78 0 -133 -67q-52 -61 -52 -134q0 -33 7 -49q10 -25 40 -41q25 -13 50 -13q29 0 78 39
q37 29 62 56q3 3 4 8q11 150 11 170z" />
    <glyph glyph-name="r" unicode="r" horiz-adv-x="263" 
d="M241 350q-3 -35 -34 -35q-5 0 -11 2q-9 3 -19 14q-5 6 -6 30l-8 2l-39 1q-9 -6 -37 -20q-14 -5 -17 -15t-8 -46v-196v-30q3 -4 7 -11q5 -10 5 -19q0 -16 -10.5 -26t-24.5 -10q-16 0 -25.5 11t-9.5 26q0 3 7 30l2 231q0 32 -6 64q-1 8 -1 15q0 18 10 23q6 3 26 2l22 -9
q27 18 49 23q8 2 53 6l42 -14q36 -18 33 -49z" />
    <glyph glyph-name="s" unicode="s" horiz-adv-x="363" 
d="M225 382l-21 12q-12 0 -51 -11q-12 -4 -34 -24.5t-22 -32.5q0 -29 33.5 -41t68.5 -24q44 -18 62.5 -56.5t18.5 -61.5q0 -55 -54 -112t-108 -57q-41 0 -62 27q-17 28 -33 56q-15 23 -15 30q0 14 10.5 24t24.5 10q15 0 26 -10t11 -24q0 -4 -2.5 -11.5t-2.5 -11.5
q0 -14 14 -26.5t28 -12.5q33 0 71.5 42t38.5 76q0 50 -49 72q-46 17 -91 34q-50 24 -50 79q0 44 62 82q56 33 104 33q7 0 21 -3t22 -3q18 0 38 -31q17 -10 17 -29q0 -14 -11.5 -24t-26.5 -10q-16 0 -28 11.5t-10 27.5z" />
    <glyph glyph-name="t" unicode="t" horiz-adv-x="350" 
d="M230 377q13 16 33 16q18 0 30.5 -13t12.5 -31q0 -19 -12.5 -32t-30.5 -13q-15 0 -22.5 7t-13.5 14l-109 5q-30 -166 -30 -210q0 -92 56 -92q15 0 33 8q25 10 25 25q0 -1 -9 14q-5 9 -5 19q0 13 11 23.5t23 10.5q14 0 25 -11t11 -24q0 -1 -3.5 -12.5t-3.5 -15.5
q2 -34 -25 -57q-22 -19 -51 -25q-17 -4 -32 -4q-19 0 -38 7q-67 25 -67 136q0 21 2.5 39t11.5 118l12 46v7l-6 1l-16 -7l-9 -1q-7 -4 -15 -4q-15 0 -25.5 12t-10.5 29q0 16 10.5 28t25.5 12q16 0 27 -13l30 -7l3 4q9 29 30 108v29q0 4 6.5 13t13.5 10q11 2 13 2q15 0 26 -11
t11 -25q0 -9 -9 -22q-5 -3 -12 -10q-15 -39 -28 -99l20 -3l70 -4z" />
    <glyph glyph-name="u" unicode="u" horiz-adv-x="404" 
d="M348 35q0 -14 -10 -24.5t-25 -10.5q-14 0 -25 11.5t-11 23.5q0 2 4 14.5t4 14.5q0 20 -4 34q-19 -26 -64 -73q-30 -23 -57 -27q-12 -2 -23 -2q-13 0 -31 3q-35 7 -65 42q-26 32 -33 67q-4 18 -4 47q0 48 17 111t42 109v11q0 3 1 10t10.5 16.5t16.5 10.5q8 0 7 0
q36 0 36 -36q0 -6 -3 -17q-2 -5 -12 -10.5t-12 -9.5q-21 -36 -36.5 -93t-15.5 -103q0 -28 6 -52q4 -14 21 -32t30 -21.5t21 -3.5q2 0 17 2q23 2 52 33q38 41 50 79q17 56 17 97q0 52 -3 81l-5 9.5t-5 16.5q0 13 9.5 24.5t24.5 11.5t26.5 -11t11.5 -26q0 -7 -5.5 -16
t-5.5 -26l1 -57q1 -5 4 -53t13 -146q5 -7 12 -20q1 -2 1 -9z" />
    <glyph glyph-name="v" unicode="v" horiz-adv-x="332" 
d="M309 376q0 -10 -8 -18q-12 -12 -15 -18q-16 -27 -33 -72q-25 -65 -29 -74q-23 -51 -66 -154q0 -8 -2 -22q-7 -22 -32 -22q-29 0 -34 26q2 10 1 30q0 1 -70 256q-1 4 -9 18q-8 11 -8 20q0 14 11 24t24 10q14 0 24.5 -11t10.5 -25q0 -9 -4 -17q-1 -1 -1 -5l60 -219
q4 3 8 13q33 79 101 237q1 11 3 34q2 10 12.5 17.5t20.5 7.5q15 0 25 -11.5t10 -24.5z" />
    <glyph glyph-name="w" unicode="w" horiz-adv-x="483" 
d="M451 373q0 -1 -1.5 -8.5t-1.5 -10.5q0 -32 -15 -79q-14 -42 -27 -83q-16 -47 -42 -136q1 -8 0 -25q-6 -26 -34 -26q-17 0 -27 13.5t-6 32.5l-65 175q-41 -77 -85 -180q0 -2 -1 -15q0 -17 -10.5 -25t-23.5 -8q-12 0 -23 9.5t-11 25.5q0 5 2 12q2 5 0 13q-18 99 -64 294
q-2 3 -8 11.5t-6 18.5q0 13 11 24t24 11q14 0 24.5 -11.5t10.5 -26.5q0 -9 -4 -17q-1 -1 -1 -4l50 -245l3 -3q50 93 81 170q0 8 1 24q9 24 33 24q32 0 34 -57q0 -3 20 -53q11 -36 39 -103q11 27 39 115q32 99 32 109q0 1 -9 13t-9 22q0 14 10.5 24t23.5 10q36 0 36 -35z" />
    <glyph glyph-name="x" unicode="x" horiz-adv-x="379" 
d="M317 378q0 -10 -9 -17.5t-18 -15.5q-26 -24 -64 -80q-34 -49 -34 -54q0 -6 89 -133l10 -5q15 -10 15 -29q0 -33 -34 -33q-28 0 -33 26q1 6 -1 17q-16 27 -76 114q-39 -44 -88 -117q-1 -7 -4 -19q-7 -19 -32 -19q-14 0 -24 10t-10 24q0 18 27 32q4 3 32 40l69 94
q0 11 -74 107q-4 2 -12 7q-14 10 -14 28q0 15 10.5 24.5t24.5 9.5q39 0 34 -44q18 -28 61 -90q31 39 86 117q0 9 6 27q10 15 28 15q35 0 35 -36z" />
    <glyph glyph-name="y" unicode="y" horiz-adv-x="460" 
d="M390 367q-33 -72 -98 -215q-54 -112 -144 -307v-20q0 -34 -40 -34q-39 0 -39 40q0 13 12 23q18 17 19 18q4 6 37 75l57 120q0 6 -39 84q-33 69 -103 207q-6 5 -15.5 17t-9.5 25q0 38 36 38q28 0 38 -26q1 -4 0 -16q-2 -13 1 -19q13 -32 122 -244q22 44 65 132
q37 76 55 131q0 2 -2.5 13.5t-1.5 15.5q0 7 9.5 18t16.5 12h11q18 0 29.5 -11.5t11.5 -26.5q0 -11 -11 -25q-15 -19 -17 -25z" />
    <glyph glyph-name="z" unicode="z" horiz-adv-x="388" 
d="M285 2q-9 0 -19.5 7t-12.5 7q-6 1 -21 1h-16l-149 -6q-13 0 -26 7.5t-13 18.5q0 8 42 69q60 83 164 239q-3 8 -9 7h-4q-89 0 -130 -8q-3 -2 -10 -6.5t-19 -4.5q-18 0 -29 11.5t-11 26.5q0 38 37 38q9 0 20 -5.5t21 -4.5l132 5q15 0 37 3l4 2q5 2 7 2q11 0 35 -24
q4 -4 4 -12q0 -10 -7 -14q-10 -6 -10 -7q-14 -24 -44 -72q-48 -69 -147 -214h144q2 0 6 3q15 10 22 10q16 0 28.5 -13.5t12.5 -27.5q0 -15 -12 -26.5t-27 -11.5z" />
    <glyph glyph-name="braceleft" unicode="{" horiz-adv-x="260" 
d="M214 -86q0 -17 -17 -17h-74q-22 0 -39.5 15t-20.5 38q0 -13 0 79v149v79q1 26 -13 41q-26 22 -52 45q60 42 65 87v263q0 46 63 58h65q17 0 17 -17v-21q0 -17 -17 -17h-34q-34 0 -34 -32v-248q4 0 -9.5 -31t-44.5 -40q55 -30 55 -69v-293q0 -24 30 -34h43q17 0 17 -17v-18
z" />
    <glyph glyph-name="bar" unicode="|" horiz-adv-x="221" 
d="M75 695h52v-732h-52v732z" />
    <glyph glyph-name="braceright" unicode="}" horiz-adv-x="260" 
d="M-2 -86q0 -17 17 -17h74q22 0 39.5 15t20.5 38q0 -13 0 79v149v79q-1 26 13 41q26 22 52 45q-60 42 -65 87v263q0 46 -63 58h-65q-17 0 -17 -17v-21q0 -17 17 -17h35q33 0 33 -32v-248q-4 0 9.5 -31t44.5 -40q-55 -30 -55 -69q0 -118 1 -293q0 -24 -31 -34h-43
q-17 0 -17 -17v-18z" />
    <glyph glyph-name="asciitilde" unicode="~" horiz-adv-x="256" 
d="M21 738q4 20 21.5 36.5t37.5 20.5q20 3 49 -18t35 -20q8 1 19 11.5t14 22.5q4 6 14 6q18 0 20 -16q-6 -20 -24 -38t-38 -21t-49.5 18t-33.5 20q-25 -4 -30 -29q-23 -15 -35 7z" />
    <glyph glyph-name="Adieresis" unicode="&#xc4;" horiz-adv-x="679" 
d="M591 -43q-18 0 -29 14.5t-11 34.5q0 10 3 19l-71 198h-318q-42 -72 -71 -138q2 -10 1 -29q-5 -17 -14 -25.5t-27 -8.5q-19 0 -31 12.5t-12 30.5q0 23 21 36q10 5 14 12q14 21 28 52q7 18 25 57q-20 12 -20 27q0 30 20 30h29q64 126 186 374q3 5 1 10q-7 16 -3 27
q7 27 47 27q16 0 28 -14t12 -32q0 -4 -1 -9q-2 -11 0 -19q38 -118 119 -353q2 -4 9 -4q20 1 28 -11q10 -18 7 -28q-2 -3 -17 -18q6 -16 17 -51q15 -45 48 -133q6 -5 17 -15q8 -10 8 -31q0 -19 -14 -30.5t-29 -11.5zM357 591q-11 -6 -85.5 -150t-73.5 -162h267z" />
    <glyph glyph-name="Aring" unicode="&#xc5;" horiz-adv-x="679" 
d="M591 -43q-18 0 -29 14.5t-11 34.5q0 10 3 19l-71 198h-318q-42 -72 -71 -138q2 -10 1 -29q-5 -18 -14 -26t-27 -8q-19 0 -31 12.5t-12 30.5q0 23 21 36q10 5 14 12q14 21 28 52q7 18 25 57q-20 12 -20 27q0 30 20 30h29q64 126 186 374q3 5 1 10q-7 16 -3 27q7 27 47 27
q16 0 28 -14t12 -32q0 -4 -1 -9q-2 -11 0 -19q38 -118 119 -353q2 -4 9 -4q20 1 28 -11q10 -18 7 -28q-2 -3 -17 -18q6 -16 17 -51q15 -45 48 -133q6 -5 17 -15q8 -10 8 -31q0 -19 -14 -30.5t-29 -11.5zM357 591q-11 -6 -85.5 -150t-73.5 -162h267zM353 863q29 0 51 -17.5
t22 -44.5t-22 -44.5t-51 -17.5q-28 0 -50 17.5t-22 44.5t22 44.5t50 17.5zM353 828q-17 0 -27 -8.5t-10 -18.5t10 -18.5t27 -8.5q18 0 28 8.5t10 18.5t-10 18.5t-28 8.5z" />
    <glyph glyph-name="Ccedilla" unicode="&#xc7;" horiz-adv-x="522" 
d="M248 -160q17 0 27.5 9t10.5 19q0 11 -10.5 19.5t-27.5 8.5h-19l5 64q-52 5 -97 35q-124 84 -124 294q0 56 20 135q24 93 105.5 172.5t160.5 79.5q100 0 151 -81q8 -7 21 -21q10 -14 10 -30q0 -18 -12.5 -30t-28.5 -12q-19 0 -31.5 16.5t-8.5 43.5q-9 25 -42 42
q-29 14 -57 14q-46 0 -101 -44q-131 -106 -131 -287q0 -153 83 -232q42 -39 102 -39q26 0 60.5 16.5t48.5 40.5q-6 13 -6 24q0 20 15.5 35t38.5 15q22 0 38 -15t16 -35q0 -19 -14 -35.5t-35 -19.5q-50 -76 -146 -82l-3 -31q54 -13 54 -61q0 -27 -22 -45t-51 -18
q-40 0 -61 28q-4 5 -4 11q0 18 18 18q5 0 17 -11t30 -11z" />
    <glyph glyph-name="Eacute" unicode="&#xc9;" horiz-adv-x="470" 
d="M388 -10q-4 0 -20 3.5t-22 3.5l-261 -5q-30 -14 -34 -14q-17 0 -29 14t-12 32l13 39q3 8 4 12q1 75 4 254q-30 4 -30 34t34 33q2 111 2 177q0 10 -7.5 28t-7.5 29q0 13 14.5 23t32.5 10q5 0 20.5 -4.5t21.5 -4.5l209 1q9 0 27 6.5t27 6.5q18 0 31 -13.5t13 -30.5
q0 -16 -14 -29t-30 -13q-9 0 -28.5 7.5t-31.5 7.5l-220 -1l-6 -206q163 -2 173 3q33 16 40 16q17 0 30 -13.5t13 -31.5q0 -25 -42 -42q-41 14 -44 14q-49 0 -173 4v-290q192 -5 270 10q3 5 15.5 11.5t17.5 6.5q18 0 30 -13t12 -31t-12 -31t-30 -13zM243 812l91 -20
q14 -3 14 -11q0 -2 -3 -3l-153 -78q-2 -1 -8.5 -6.5t-11.5 -4.5l-23 3q-17 2 -3 14l79 70q3 2 8 21q5 16 10 15z" />
    <glyph glyph-name="Ntilde" unicode="&#xd1;" horiz-adv-x="676" 
d="M607 678q13 13 27 13q16 0 27 -12t11 -29q0 -38 -37 -41q-5 -7 -8 -12q-8 -14 -10 -39q-3 -21 -5 -41q-1 -6 -16 -103l-50 -317q-1 -5 1 -15.5t2 -13.5q0 -5 -2 -12.5t-11.5 -19t-17.5 -12.5q-18 0 -12 0h-11q-19 7 -24 17q-3 4 -10 28q-1 6 -8 14q-172 196 -357 398h-2
h-10l2 -393q0 -3 5.5 -21t5.5 -20q0 -17 -13.5 -30.5t-30.5 -13.5q-16 0 -30 13.5t-14 30.5q0 9 8 21q10 18 11 19l-2 407q0 17 -3 52q-4 5 -11 16q-5 7 -5 20q0 42 42 42q25 0 37 -19q2 -2 7 -25q1 -5 20 -27q133 -152 368 -415h4q4 0 7 5q7 32 18 106q9 57 57 352l1 16
l22 46q1 1 7 6l5 5q3 2 5 4v0zM191 638q4 19 30.5 41t47.5 25q20 3 64.5 -14t50.5 -16q14 1 29 3q21 4 24 14q4 6 14 6q18 0 20 -16q-6 -19 -28.5 -37.5t-43.5 -21.5q-20 -3 -74 18.5t-58 20.5q-11 -2 -25.5 -11.5t-15.5 -18.5q-23 -15 -35 7z" />
    <glyph glyph-name="Odieresis" unicode="&#xd6;" horiz-adv-x="544" 
d="M225 -2q-106 0 -168 111q-51 92 -51 208q0 113 70 225q78 126 184 126q60 0 94 -71q123 -47 123 -249q0 -125 -62 -229q-73 -121 -190 -121zM358 530q-18 -19 -37 -19q-20 0 -42 11.5t-22 27.5q0 14 18.5 25t18.5 15q0 8 -12 15t-19 7q-85 0 -146 -109q-52 -95 -52 -187
q0 -91 35 -165q45 -95 128 -95q89 0 145 107q47 90 47 186q0 49 -12 99q-17 69 -50 82zM121 747q0 19 13 33t31 14q19 0 32 -14t13 -33t-13 -32.5t-32 -13.5q-18 0 -31 13.5t-13 32.5zM297 752q0 19 13.5 33t32.5 14t32.5 -14t13.5 -33q0 -20 -13.5 -34t-32.5 -14t-32.5 14
t-13.5 34z" />
    <glyph glyph-name="Udieresis" unicode="&#xdc;" horiz-adv-x="565" 
d="M458 -38q-18 0 -29.5 11.5t-11.5 27.5q0 2 4 16l8 25l4 196q0 13 -6 38q-27 -50 -83 -145q-67 -99 -157 -123q-16 -4 -38 -4q-84 0 -121 90q-25 60 -25 145q0 71 21 163q7 29 44 160q1 5 -1 13t-2 11q0 26 15 36q11 8 24 8q18 0 29.5 -14t11.5 -28q0 -13 -11 -25
q-16 -17 -20 -38q-10 -31 -28 -92q-29 -105 -29 -196q0 -58 13 -102q23 -77 79 -77q19 0 40 8q17 7 51 32q73 54 134 204q55 137 55 230q0 20 -6 33l-2 4q-4 6 -4 15q0 16 11.5 28t27.5 12t28 -13.5t12 -29.5q0 -10 -12 -33l-2 -467q0 -40 1 -47q0 -3 6.5 -12.5t6.5 -21.5
q0 -38 -38 -38zM141 737q0 19 13 33t31 14q19 0 32 -14t13 -33t-13 -32.5t-32 -13.5q-18 0 -31 13.5t-13 32.5zM317 742q0 19 13.5 33t32.5 14t32.5 -14t13.5 -33q0 -20 -13.5 -34t-32.5 -14t-32.5 14t-13.5 34z" />
    <glyph glyph-name="aacute" unicode="&#xe1;" horiz-adv-x="392" 
d="M335 254q0 -2 -7 -18.5t-7 -30.5q0 -35 -8 -105t-8 -104q0 -6 3.5 -18t3.5 -18q0 -16 -11.5 -27t-27.5 -11t-26 12t-10 27q0 13 8 25.5t8 37.5q-45 -16 -96 -16q-152 0 -152 128q0 70 71 120q65 46 138 46q9 0 27.5 -3.5t28.5 -3.5q1 2 1 5q0 32 -15 54q-18 25 -49 25
q-25 0 -65 -18.5t-50 -38.5q0 -8 -4 -23q-8 -22 -35 -22q-16 0 -26 11.5t-10 27.5q0 19 30 37q14 14 47 40q60 38 115 38q46 0 79 -35q23 -24 28 -56t9 -64q1 -3 5.5 -11t4.5 -11zM269 238q-31 10 -44 10q-33 0 -50 -4q-43 -10 -77 -39q-40 -33 -40 -72q0 -73 98 -73
q20 0 54 7q43 8 47 19q11 27 12 75v77zM178 590l90 -19q15 -4 15 -11q0 -2 -3 -4l-153 -77q-3 -1 -9 -6.5t-11 -4.5l-23 2q-17 3 -4 15l80 69q3 3 8 20t10 16z" />
    <glyph glyph-name="agrave" unicode="&#xe0;" horiz-adv-x="392" 
d="M335 254q0 -2 -7 -18.5t-7 -30.5q0 -35 -8 -105t-8 -104q0 -6 3.5 -18t3.5 -18q0 -16 -11.5 -27t-27.5 -11t-26 12t-10 27q0 13 8 25.5t8 37.5q-45 -16 -96 -16q-152 0 -152 128q0 70 71 120q65 46 138 46q9 0 27.5 -3.5t28.5 -3.5q1 2 1 5q0 32 -15 54q-18 25 -49 25
q-25 0 -65 -18.5t-50 -38.5q0 -8 -4 -23q-8 -22 -35 -22q-16 0 -26 11.5t-10 27.5q0 19 30 37q14 14 47 40q60 38 115 38q46 0 79 -35q23 -24 28 -56t9 -64q1 -3 5.5 -11t4.5 -11zM269 238q-31 10 -44 10q-33 0 -50 -4q-43 -10 -77 -39q-40 -33 -40 -72q0 -73 98 -73
q20 0 54 7q43 8 47 19q11 27 12 75v77zM191 582l-91 -20q-14 -3 -14 -11q0 -2 3 -3l153 -78q2 -1 8 -6.5t12 -4.5l23 3q16 2 3 14l-71 69q-1 2 -12 22q-9 16 -14 15z" />
    <glyph glyph-name="acircumflex" unicode="&#xe2;" horiz-adv-x="392" 
d="M335 254q0 -2 -7 -18.5t-7 -30.5q0 -35 -8 -105t-8 -104q0 -6 3.5 -18t3.5 -18q0 -16 -11.5 -27t-27.5 -11t-26 12t-10 27q0 13 8 25.5t8 37.5q-45 -16 -96 -16q-152 0 -152 128q0 70 71 120q65 46 138 46q9 0 27.5 -3.5t28.5 -3.5q1 2 1 5q0 32 -15 54q-18 25 -49 25
q-25 0 -65 -18.5t-50 -38.5q0 -8 -4 -23q-8 -22 -35 -22q-16 0 -26 11.5t-10 27.5q0 19 30 37q14 14 47 40q60 38 115 38q46 0 79 -35q23 -24 28 -56t9 -64q1 -3 5.5 -11t4.5 -11zM269 238q-31 10 -44 10q-33 0 -50 -4q-43 -10 -77 -39q-40 -33 -40 -72q0 -73 98 -73
q20 0 54 7q43 8 47 19q11 27 12 75v77zM90 522q-5 -4 -7 -6v0q61 42 99 75l108 -82q7 -5 7 -12q0 -16 -19 -16q-7 0 -12 3l-81 49q-10 -8 -48 -28.5t-47 -20.5q-18 0 -18 19t18 19z" />
    <glyph glyph-name="adieresis" unicode="&#xe4;" horiz-adv-x="392" 
d="M335 254q0 -2 -7 -18.5t-7 -30.5q0 -35 -8 -105t-8 -104q0 -6 3.5 -18t3.5 -18q0 -16 -11.5 -27t-27.5 -11t-26 12t-10 27q0 13 8 25.5t8 37.5q-45 -16 -96 -16q-152 0 -152 128q0 70 71 120q65 46 138 46q9 0 27.5 -3.5t28.5 -3.5q1 2 1 5q0 32 -15 54q-18 25 -49 25
q-25 0 -65 -18.5t-50 -38.5q0 -8 -4 -23q-8 -22 -35 -22q-16 0 -26 11.5t-10 27.5q0 19 30 37q14 14 47 40q60 38 115 38q46 0 79 -35q23 -24 28 -56t9 -64q1 -3 5.5 -11t4.5 -11zM269 238q-31 10 -44 10q-33 0 -50 -4q-43 -10 -77 -39q-40 -33 -40 -72q0 -73 98 -73
q20 0 54 7q43 8 47 19q11 27 12 75v77zM41 517q0 19 13 33t31 14q19 0 32 -14t13 -33t-13 -32.5t-32 -13.5q-18 0 -31 13.5t-13 32.5zM217 522q0 19 13.5 33t32.5 14t32.5 -14t13.5 -33q0 -20 -13.5 -34t-32.5 -14t-32.5 14t-13.5 34z" />
    <glyph glyph-name="atilde" unicode="&#xe3;" horiz-adv-x="392" 
d="M335 254q0 -2 -7 -18.5t-7 -30.5q0 -35 -8 -105t-8 -104q0 -6 3.5 -18t3.5 -18q0 -16 -11.5 -27t-27.5 -11t-26 12t-10 27q0 13 8 25.5t8 37.5q-45 -16 -96 -16q-152 0 -152 128q0 70 71 120q65 46 138 46q9 0 27.5 -3.5t28.5 -3.5q1 2 1 5q0 32 -15 54q-18 25 -49 25
q-25 0 -65 -18.5t-50 -38.5q0 -8 -4 -23q-8 -22 -35 -22q-16 0 -26 11.5t-10 27.5q0 19 30 37q14 14 47 40q60 38 115 38q46 0 79 -35q23 -24 28 -56t9 -64q1 -3 5.5 -11t4.5 -11zM269 238q-31 10 -44 10q-33 0 -50 -4q-43 -10 -77 -39q-40 -33 -40 -72q0 -73 98 -73
q20 0 54 7q43 8 47 19q11 27 12 75v77zM31 488q4 19 30.5 41t47.5 25q20 3 64.5 -14t50.5 -16q14 1 29 3q21 4 24 14q4 6 14 6q18 0 20 -16q-6 -19 -28.5 -37.5t-43.5 -21.5q-20 -3 -74 18.5t-58 20.5q-11 -2 -25.5 -11.5t-15.5 -18.5q-23 -15 -35 7z" />
    <glyph glyph-name="aring" unicode="&#xe5;" horiz-adv-x="392" 
d="M335 254q0 -2 -7 -18.5t-7 -30.5q0 -35 -8 -105t-8 -104q0 -6 3.5 -18t3.5 -18q0 -16 -11.5 -27t-27.5 -11t-26 12t-10 27q0 13 8 25.5t8 37.5q-45 -16 -96 -16q-152 0 -152 128q0 70 71 120q65 46 138 46q9 0 27.5 -3.5t28.5 -3.5q1 2 1 5q0 32 -15 54q-18 25 -49 25
q-25 0 -65 -18.5t-50 -38.5q0 -8 -4 -23q-8 -22 -35 -22q-16 0 -26 11.5t-10 27.5q0 19 30 37q14 14 47 40q60 38 115 38q46 0 79 -35q23 -24 28 -56t9 -64q1 -3 5.5 -11t4.5 -11zM269 238q-31 10 -44 10q-33 0 -50 -4q-43 -10 -77 -39q-40 -33 -40 -72q0 -73 98 -73
q20 0 54 7q43 8 47 19q11 27 12 75v77zM183 593q29 0 51 -17.5t22 -44.5t-22 -44.5t-51 -17.5q-28 0 -50 17.5t-22 44.5t22 44.5t50 17.5zM183 558q-17 0 -27 -8.5t-10 -18.5t10 -18.5t27 -8.5q18 0 28 8.5t10 18.5t-10 18.5t-28 8.5z" />
    <glyph glyph-name="ccedilla" unicode="&#xe7;" horiz-adv-x="416" 
d="M168 -140q17 0 27.5 9t10.5 19q0 11 -10.5 19.5t-27.5 8.5h-19l6 65q-78 9 -120 69q-36 52 -36 131q0 148 123 240q8 6 36.5 16.5t59.5 10.5q39 0 72 -20q43 -25 49 -73q2 -4 5 -11q4 -13 4 -19q0 -16 -11 -27t-26 -11q-14 0 -26 11.5t-12 26.5q0 2 5.5 15t5.5 15
q0 19 -25 31q-20 9 -41 9q-47 0 -87.5 -36.5t-64.5 -95.5q-15 -39 -15 -82q0 -10 8 -53q16 -89 112 -95q-1 -1 10 -1q73 0 109 59q0 7 3 18q12 25 36 25q37 0 37 -38q0 -23 -33 -40q-7 -8 -22 -23q-18 -19 -34 -28q-37 -23 -87 -25l-3 -31q54 -13 54 -61q0 -27 -22 -45
t-51 -18q-40 0 -61 28q-4 5 -4 11q0 18 18 18q5 0 17 -11t30 -11z" />
    <glyph glyph-name="eacute" unicode="&#xe9;" horiz-adv-x="466" 
d="M413 233q0 -28 -26 -28q-2 0 -7 1.5t-8 1.5h-146q-143 0 -157 -8v-4q-1 -48 28 -99q33 -58 77 -65q10 -1 23 -1q58 0 66 1q44 7 54 39q0 2 -4 10.5t-4 15.5q0 14 11.5 25.5t25.5 11.5q39 0 39 -34q0 1 -12 -35q-9 -14 -21 -35q-19 -54 -154 -54q-116 0 -171 150
q-6 16 -8 43q-2 31 -5 43q-1 3 -5 10t-4 11q0 6 7.5 13t8.5 9t12 36q17 53 72 91t111 38q38 0 77 -17t62 -44q17 -21 27 -47t19 -52q1 -3 8 -12q4 -7 4 -15zM344 261v7q0 4 -2 7q-2 20 -24 45t-41 33q-29 13 -60 13q-36 0 -71.5 -21t-52.5 -54q-13 -24 -13 -29q1 -4 2 -5
q106 6 262 4zM248 590l90 -19q15 -4 15 -11q0 -2 -3 -4l-153 -77q-3 -1 -9 -6.5t-11 -4.5l-23 2q-17 3 -4 15l80 69q3 3 8 20t10 16z" />
    <glyph glyph-name="egrave" unicode="&#xe8;" horiz-adv-x="466" 
d="M413 233q0 -28 -26 -28q-2 0 -7 1.5t-8 1.5h-146q-143 0 -157 -8v-4q-1 -48 28 -99q33 -58 77 -65q10 -1 23 -1q58 0 66 1q44 7 54 39q0 2 -4 10.5t-4 15.5q0 14 11.5 25.5t25.5 11.5q39 0 39 -34q0 1 -12 -35q-9 -14 -21 -35q-19 -54 -154 -54q-116 0 -171 150
q-6 16 -8 43q-2 31 -5 43q-1 3 -5 10t-4 11q0 6 7.5 13t8.5 9t12 36q17 53 72 91t111 38q38 0 77 -17t62 -44q17 -21 27 -47t19 -52q1 -3 8 -12q4 -7 4 -15zM344 261v7q0 4 -2 7q-2 20 -24 45t-41 33q-29 13 -60 13q-36 0 -71.5 -21t-52.5 -54q-13 -24 -13 -29q1 -4 2 -5
q106 6 262 4zM191 582l-91 -20q-14 -3 -14 -11q0 -2 3 -3l153 -78q2 -1 8 -6.5t12 -4.5l23 3q16 2 3 14l-71 69q-1 2 -12 22q-9 16 -14 15z" />
    <glyph glyph-name="ecircumflex" unicode="&#xea;" horiz-adv-x="466" 
d="M413 233q0 -28 -26 -28q-2 0 -7 1.5t-8 1.5h-146q-143 0 -157 -8v-4q-1 -48 28 -99q33 -58 77 -65q10 -1 23 -1q58 0 66 1q44 7 54 39q0 2 -4 10.5t-4 15.5q0 14 11.5 25.5t25.5 11.5q39 0 39 -34q0 1 -12 -35q-9 -14 -21 -35q-19 -54 -154 -54q-116 0 -171 150
q-6 16 -8 43q-2 31 -5 43q-1 3 -5 10t-4 11q0 6 7.5 13t8.5 9t12 36q17 53 72 91t111 38q38 0 77 -17t62 -44q17 -21 27 -47t19 -52q1 -3 8 -12q4 -7 4 -15zM344 261v7q0 4 -2 7q-2 20 -24 45t-41 33q-29 13 -60 13q-36 0 -71.5 -21t-52.5 -54q-13 -24 -13 -29q1 -4 2 -5
q106 6 262 4zM130 512q-5 -4 -7 -6v0q61 42 99 75l108 -82q7 -5 7 -12q0 -16 -19 -16q-7 0 -12 3l-81 49q-10 -8 -48 -28.5t-47 -20.5q-18 0 -18 19t18 19z" />
    <glyph glyph-name="edieresis" unicode="&#xeb;" horiz-adv-x="466" 
d="M413 233q0 -28 -26 -28q-2 0 -7 1.5t-8 1.5h-146q-143 0 -157 -8v-4q-1 -48 28 -99q33 -58 77 -65q10 -1 23 -1q58 0 66 1q44 7 54 39q0 2 -4 10.5t-4 15.5q0 14 11.5 25.5t25.5 11.5q39 0 39 -34q0 1 -12 -35q-9 -14 -21 -35q-19 -54 -154 -54q-116 0 -171 150
q-6 16 -8 43q-2 31 -5 43q-1 3 -5 10t-4 11q0 6 7.5 13t8.5 9t12 36q17 53 72 91t111 38q38 0 77 -17t62 -44q17 -21 27 -47t19 -52q1 -3 8 -12q4 -7 4 -15zM344 261v7q0 4 -2 7q-2 20 -24 45t-41 33q-29 13 -60 13q-36 0 -71.5 -21t-52.5 -54q-13 -24 -13 -29q1 -4 2 -5
q106 6 262 4zM81 517q0 19 13 33t31 14q19 0 32 -14t13 -33t-13 -32.5t-32 -13.5q-18 0 -31 13.5t-13 32.5zM257 522q0 19 13.5 33t32.5 14t32.5 -14t13.5 -33q0 -20 -13.5 -34t-32.5 -14t-32.5 14t-13.5 34z" />
    <glyph glyph-name="iacute" unicode="&#xed;" horiz-adv-x="174" 
d="M104 366q0 -10 -8.5 -23t-8.5 -25q-1 -40 -5.5 -119t-4.5 -76q0 -2 5 -17t5 -17q0 -18 -13 -27.5t-27 -9.5q-38 0 -38 38q0 9 4.5 16.5t6.5 12.5q0 2 3 41q9 127 9 164q0 18 -3 25.5t-3 17.5q0 38 38 38q18 0 29 -11.5t11 -27.5zM78 590l90 -19q15 -4 15 -11q0 -2 -3 -4
l-153 -77q-3 -1 -9 -6.5t-11 -4.5l-23 2q-17 3 -4 15l80 69q3 3 8 20t10 16z" />
    <glyph glyph-name="igrave" unicode="&#xec;" horiz-adv-x="174" 
d="M104 366q0 -10 -8.5 -23t-8.5 -25q-1 -40 -5.5 -119t-4.5 -76q0 -2 5 -17t5 -17q0 -18 -13 -27.5t-27 -9.5q-38 0 -38 38q0 9 4.5 16.5t6.5 12.5q0 2 3 41q9 127 9 164q0 18 -3 25.5t-3 17.5q0 38 38 38q18 0 29 -11.5t11 -27.5zM61 582l-91 -20q-14 -3 -14 -11
q0 -2 3 -3l153 -78q2 -1 8 -6.5t12 -4.5l23 3q16 2 3 14l-71 69q-1 2 -12 22q-9 16 -14 15z" />
    <glyph glyph-name="icircumflex" unicode="&#xee;" horiz-adv-x="174" 
d="M104 366q0 -10 -8.5 -23t-8.5 -25q-1 -40 -5.5 -119t-4.5 -76q0 -2 5 -17t5 -17q0 -18 -13 -27.5t-27 -9.5q-38 0 -38 38q0 9 4.5 16.5t6.5 12.5q0 2 3 41q9 127 9 164q0 18 -3 25.5t-3 17.5q0 38 38 38q18 0 29 -11.5t11 -27.5zM-20 502q-5 -4 -7 -6v0q61 42 99 75
l108 -82q7 -5 7 -12q0 -16 -19 -16q-7 0 -12 3l-81 49q-10 -8 -48 -28.5t-47 -20.5q-18 0 -18 19t18 19z" />
    <glyph glyph-name="idieresis" unicode="&#xef;" horiz-adv-x="174" 
d="M104 366q0 -10 -8.5 -23t-8.5 -25q-1 -40 -5.5 -119t-4.5 -76q0 -2 5 -17t5 -17q0 -18 -13 -27.5t-27 -9.5q-38 0 -38 38q0 9 4.5 16.5t6.5 12.5q0 2 3 41q9 127 9 164q0 18 -3 25.5t-3 17.5q0 38 38 38q18 0 29 -11.5t11 -27.5zM-39 517q0 19 13 33t31 14q19 0 32 -14
t13 -33t-13 -32.5t-32 -13.5q-18 0 -31 13.5t-13 32.5zM97 522q0 19 13.5 33t32.5 14t32.5 -14t13.5 -33q0 -20 -13.5 -34t-32.5 -14t-32.5 14t-13.5 34z" />
    <glyph glyph-name="ntilde" unicode="&#xf1;" horiz-adv-x="393" 
d="M332 278q0 -45 -32 -169q-12 -48 -12 -60q0 -3 2 -9t2 -10q0 -32 -37 -32q-14 0 -24.5 10t-10.5 25q0 7 7 17q10 14 11 16q11 25 27 101t16 104q0 98 -93 98q-22 0 -63 -9q-49 -9 -56 -21q-2 -4 -2 -11v-273q1 -2 12 -16q8 -10 8 -17q0 -14 -11 -24.5t-26 -10.5
q-14 0 -27.5 11.5t-13.5 25.5q0 5 6 15.5t6 18.5v260q0 8 -8.5 17t-8.5 21q0 14 10 24t24 10q3 0 8 -1.5t8 -1.5q-6 0 22 9q76 23 108 23q20 0 35 -6q14 -2 40 -11q33 -17 53 -51.5t20 -72.5zM31 488q4 19 30.5 41t47.5 25q20 3 64.5 -14t50.5 -16q14 1 29 3q21 4 24 14
q4 6 14 6q18 0 20 -16q-6 -19 -28.5 -37.5t-43.5 -21.5q-20 -3 -74 18.5t-58 20.5q-11 -2 -25.5 -11.5t-15.5 -18.5q-23 -15 -35 7z" />
    <glyph glyph-name="oacute" unicode="&#xf3;" horiz-adv-x="494" 
d="M434 240q0 -105 -58 -186q-65 -90 -165 -90q-87 0 -143 58.5t-56 144.5q0 60 31 127q32 72 79 104q44 29 66 29q9 0 24.5 -4.5t21.5 -4.5q46 19 66 19q68 0 104 -68q30 -55 30 -129zM385 242q0 52 -17 93q-23 55 -67 55q-8 0 -26 -6l-1 -15q-18 -29 -40 -29
q-14 0 -24.5 12.5t-7.5 25.5h-7q-52 0 -96 -81q-39 -71 -39 -129q0 -65 42 -111t107 -46q80 0 132 78q44 69 44 153zM248 590l90 -19q15 -4 15 -11q0 -2 -3 -4l-153 -77q-3 -1 -9 -6.5t-11 -4.5l-23 2q-17 3 -4 15l80 69q3 3 8 20t10 16z" />
    <glyph glyph-name="ograve" unicode="&#xf2;" horiz-adv-x="494" 
d="M434 240q0 -105 -58 -186q-65 -90 -165 -90q-87 0 -143 58.5t-56 144.5q0 60 31 127q32 72 79 104q44 29 66 29q9 0 24.5 -4.5t21.5 -4.5q46 19 66 19q68 0 104 -68q30 -55 30 -129zM385 242q0 52 -17 93q-23 55 -67 55q-8 0 -26 -6l-1 -15q-18 -29 -40 -29
q-14 0 -24.5 12.5t-7.5 25.5h-7q-52 0 -96 -81q-39 -71 -39 -129q0 -65 42 -111t107 -46q80 0 132 78q44 69 44 153zM261 582l-91 -20q-14 -3 -14 -11q0 -2 3 -3l153 -78q2 -1 8 -6.5t12 -4.5l23 3q16 2 3 14l-71 69q-1 2 -12 22q-9 16 -14 15z" />
    <glyph glyph-name="ocircumflex" unicode="&#xf4;" horiz-adv-x="494" 
d="M434 240q0 -105 -58 -186q-65 -90 -165 -90q-87 0 -143 58.5t-56 144.5q0 60 31 127q32 72 79 104q44 29 66 29q9 0 24.5 -4.5t21.5 -4.5q46 19 66 19q68 0 104 -68q30 -55 30 -129zM385 242q0 52 -17 93q-23 55 -67 55q-8 0 -26 -6l-1 -15q-18 -29 -40 -29
q-14 0 -24.5 12.5t-7.5 25.5h-7q-52 0 -96 -81q-39 -71 -39 -129q0 -65 42 -111t107 -46q80 0 132 78q44 69 44 153zM150 522q-5 -4 -7 -6v0q61 42 99 75l108 -82q7 -5 7 -12q0 -16 -19 -16q-7 0 -12 3l-81 49q-10 -8 -48 -28.5t-47 -20.5q-18 0 -18 19t18 19z" />
    <glyph glyph-name="odieresis" unicode="&#xf6;" horiz-adv-x="494" 
d="M434 240q0 -105 -58 -186q-65 -90 -165 -90q-87 0 -143 58.5t-56 144.5q0 60 31 127q32 72 79 104q44 29 66 29q9 0 24.5 -4.5t21.5 -4.5q46 19 66 19q68 0 104 -68q30 -55 30 -129zM385 242q0 52 -17 93q-23 55 -67 55q-8 0 -26 -6l-1 -15q-18 -29 -40 -29
q-14 0 -24.5 12.5t-7.5 25.5h-7q-52 0 -96 -81q-39 -71 -39 -129q0 -65 42 -111t107 -46q80 0 132 78q44 69 44 153zM121 517q0 19 13 33t31 14q19 0 32 -14t13 -33t-13 -32.5t-32 -13.5q-18 0 -31 13.5t-13 32.5zM297 522q0 19 13.5 33t32.5 14t32.5 -14t13.5 -33
q0 -20 -13.5 -34t-32.5 -14t-32.5 14t-13.5 34z" />
    <glyph glyph-name="otilde" unicode="&#xf5;" horiz-adv-x="494" 
d="M434 240q0 -105 -58 -186q-65 -90 -165 -90q-87 0 -143 58.5t-56 144.5q0 60 31 127q32 72 79 104q44 29 66 29q9 0 24.5 -4.5t21.5 -4.5q46 19 66 19q68 0 104 -68q30 -55 30 -129zM385 242q0 52 -17 93q-23 55 -67 55q-8 0 -26 -6l-1 -15q-18 -29 -40 -29
q-14 0 -24.5 12.5t-7.5 25.5h-7q-52 0 -96 -81q-39 -71 -39 -129q0 -65 42 -111t107 -46q80 0 132 78q44 69 44 153zM121 488q4 19 30.5 41t47.5 25q20 3 64.5 -14t50.5 -16q14 1 29 3q21 4 24 14q4 6 14 6q18 0 20 -16q-6 -19 -28.5 -37.5t-43.5 -21.5q-20 -3 -74 18.5
t-58 20.5q-11 -2 -25.5 -11.5t-15.5 -18.5q-23 -15 -35 7z" />
    <glyph glyph-name="uacute" unicode="&#xfa;" horiz-adv-x="404" 
d="M348 35q0 -14 -10 -24.5t-25 -10.5q-14 0 -25 11.5t-11 23.5q0 2 4 14.5t4 14.5q0 20 -4 34q-19 -26 -64 -73q-30 -23 -57 -27q-12 -2 -23 -2q-13 0 -31 3q-35 7 -65 42q-26 32 -33 67q-4 18 -4 47q0 48 17 111t42 109v11q0 3 1 10t10.5 16.5t16.5 10.5q8 0 7 0
q36 0 36 -36q0 -6 -3 -17q-2 -5 -12 -10.5t-12 -9.5q-21 -36 -36.5 -93t-15.5 -103q0 -28 6 -52q4 -14 21 -32t30 -21.5t21 -3.5q2 0 17 2q23 2 52 33q38 41 50 79q17 56 17 97q0 52 -3 81l-5 9.5t-5 16.5q0 13 9.5 24.5t24.5 11.5t26.5 -11t11.5 -26q0 -7 -5.5 -16
t-5.5 -26l1 -57q1 -5 4 -53t13 -146q5 -7 12 -20q1 -2 1 -9zM218 590l90 -19q15 -4 15 -11q0 -2 -3 -4l-153 -77q-3 -1 -9 -6.5t-11 -4.5l-23 2q-17 3 -4 15l80 69q3 3 8 20t10 16z" />
    <glyph glyph-name="ugrave" unicode="&#xf9;" horiz-adv-x="404" 
d="M348 35q0 -14 -10 -24.5t-25 -10.5q-14 0 -25 11.5t-11 23.5q0 2 4 14.5t4 14.5q0 20 -4 34q-19 -26 -64 -73q-30 -23 -57 -27q-12 -2 -23 -2q-13 0 -31 3q-35 7 -65 42q-26 32 -33 67q-4 18 -4 47q0 48 17 111t42 109v11q0 3 1 10t10.5 16.5t16.5 10.5q8 0 7 0
q36 0 36 -36q0 -6 -3 -17q-2 -5 -12 -10.5t-12 -9.5q-21 -36 -36.5 -93t-15.5 -103q0 -28 6 -52q4 -14 21 -32t30 -21.5t21 -3.5q2 0 17 2q23 2 52 33q38 41 50 79q17 56 17 97q0 52 -3 81l-5 9.5t-5 16.5q0 13 9.5 24.5t24.5 11.5t26.5 -11t11.5 -26q0 -7 -5.5 -16
t-5.5 -26l1 -57q1 -5 4 -53t13 -146q5 -7 12 -20q1 -2 1 -9zM191 582l-91 -20q-14 -3 -14 -11q0 -2 3 -3l153 -78q2 -1 8 -6.5t12 -4.5l23 3q16 2 3 14l-71 69q-1 2 -12 22q-9 16 -14 15z" />
    <glyph glyph-name="ucircumflex" unicode="&#xfb;" horiz-adv-x="404" 
d="M348 35q0 -14 -10 -24.5t-25 -10.5q-14 0 -25 11.5t-11 23.5q0 2 4 14.5t4 14.5q0 20 -4 34q-19 -26 -64 -73q-30 -23 -57 -27q-12 -2 -23 -2q-13 0 -31 3q-35 7 -65 42q-26 32 -33 67q-4 18 -4 47q0 48 17 111t42 109v11q0 3 1 10t10.5 16.5t16.5 10.5q8 0 7 0
q36 0 36 -36q0 -6 -3 -17q-2 -5 -12 -10.5t-12 -9.5q-21 -36 -36.5 -93t-15.5 -103q0 -28 6 -52q4 -14 21 -32t30 -21.5t21 -3.5q2 0 17 2q23 2 52 33q38 41 50 79q17 56 17 97q0 52 -3 81l-5 9.5t-5 16.5q0 13 9.5 24.5t24.5 11.5t26.5 -11t11.5 -26q0 -7 -5.5 -16
t-5.5 -26l1 -57q1 -5 4 -53t13 -146q5 -7 12 -20q1 -2 1 -9zM100 512q-5 -4 -7 -6v0q61 42 99 75l108 -82q7 -5 7 -12q0 -16 -19 -16q-7 0 -12 3l-81 49q-10 -8 -48 -28.5t-47 -20.5q-18 0 -18 19t18 19z" />
    <glyph glyph-name="udieresis" unicode="&#xfc;" horiz-adv-x="404" 
d="M348 35q0 -14 -10 -24.5t-25 -10.5q-14 0 -25 11.5t-11 23.5q0 2 4 14.5t4 14.5q0 20 -4 34q-19 -26 -64 -73q-30 -23 -57 -27q-12 -2 -23 -2q-13 0 -31 3q-35 7 -65 42q-26 32 -33 67q-4 18 -4 47q0 48 17 111t42 109v11q0 3 1 10t10.5 16.5t16.5 10.5q8 0 7 0
q36 0 36 -36q0 -6 -3 -17q-2 -5 -12 -10.5t-12 -9.5q-21 -36 -36.5 -93t-15.5 -103q0 -28 6 -52q4 -14 21 -32t30 -21.5t21 -3.5q2 0 17 2q23 2 52 33q38 41 50 79q17 56 17 97q0 52 -3 81l-5 9.5t-5 16.5q0 13 9.5 24.5t24.5 11.5t26.5 -11t11.5 -26q0 -7 -5.5 -16
t-5.5 -26l1 -57q1 -5 4 -53t13 -146q5 -7 12 -20q1 -2 1 -9zM51 507q0 19 13 33t31 14q19 0 32 -14t13 -33t-13 -32.5t-32 -13.5q-18 0 -31 13.5t-13 32.5zM227 512q0 19 13.5 33t32.5 14t32.5 -14t13.5 -33q0 -20 -13.5 -34t-32.5 -14t-32.5 14t-13.5 34z" />
    <glyph glyph-name="dagger" unicode="&#x2020;" horiz-adv-x="314" 
d="M260 505q0 -41 -43 -41h-10q-6 4 -21 10q-9 2 -23 3q-1 -65 -8 -240q-5 -154 -5 -222q0 -2 2.5 -19.5t2.5 -18.5q0 -33 -25 -33q-24 0 -24 33q0 4 5.5 18.5t5.5 18.5q1 25 1 59q0 50 -4 192q-4 138 -3 212q-19 -1 -29 -3q-5 -1 -16 -4.5t-13 -3.5q-19 0 -32 13.5
t-13 30.5t13 30.5t30 13.5q8 0 23 -7q3 -3 9 -6q11 -1 28 -1v65l-5 9t-5 19q0 16 10.5 27.5t27.5 11.5t28.5 -14t11.5 -27q0 -5 -6.5 -14.5t-6.5 -13.5q-1 -29 -2 -65q11 0 18 2.5t23 8.5q2 1 10 1q19 0 32 -13.5t13 -31.5z" />
    <glyph glyph-name="degree" unicode="&#xb0;" horiz-adv-x="339" 
d="M158 668l3 1q25 10 38 10q45 0 69 -45q18 -35 18 -80q0 -64 -36 -115q-40 -57 -104 -57q-55 0 -90.5 37t-35.5 91q0 46 24.5 91t63.5 65q14 7 24 7q6 0 14 -2.5t12 -2.5zM133 628q-25 -3 -48 -46q-22 -39 -22 -71q0 -36 23 -61t59 -25q43 0 72 43q25 39 25 87
q0 81 -43 81q-2 0 -8 -2v-5q-14 -23 -32 -23q-21 0 -26 22z" />
    <glyph glyph-name="cent" unicode="&#xa2;" horiz-adv-x="381" 
d="M303 164q-3 -1 -8 -7l-4 -6q-15 -17 -35 -30q-25 -15 -59 -20l-4 -73q1 -16 -23 -16q-29 0 -29 16l4 73q-67 8 -102 60q-32 46 -32 114q0 128 107 208q14 10 46 19l3 63q2 14 24 14q23 0 28 -14l-3 -59q36 -6 56 -27q14 -14 41 -61q5 -9 5 -21q0 -16 -11 -26.5t-25 -10.5
q-15 0 -26.5 11.5t-11.5 25.5q0 3 5 13.5t5 12.5q0 14 -17.5 21.5t-34.5 7.5q-37 0 -70.5 -30t-53.5 -80q-12 -31 -12 -67q0 -8 6 -44q14 -77 99 -77q24 0 52 12q35 14 37 36q0 5 2 14q12 24 35 24q37 0 37 -37q0 -23 -31 -39z" />
    <glyph glyph-name="sterling" unicode="&#xa3;" horiz-adv-x="481" 
d="M21 266h21q-19 31 -21 69q-3 63 27 123q36 71 106 103q44 20 85 22q58 3 104 -17q59 -27 63 -85l2 -24q0 -8 -7 -25q-1 -4 -2 -9.5t-6 -12.5q-10 -13 -28 -14q-17 -1 -28.5 10.5t-12.5 27.5q-1 21 16 33q0 1 9.5 4t9.5 5h-5q-4 1 -4 3q-3 53 -106 48q-43 -2 -78 -23
q-95 -58 -89 -168q2 -39 31 -70h181q17 0 17 -17v-21q0 -17 -17 -17h-120q12 -28 12 -70q0 -81 -39 -97q6 -14 31 -14q12 0 25 3h162q17 6 37 11q17 1 29 -10.5t12 -27.5q1 -15 -10 -26.5t-25 -11.5q-15 -1 -24 4q-3 3 -10 7q-5 0 -15 1l-203 -4q-8 0 -28 -3t-33 -3
q-16 0 -33 10q-20 11 -20 26q-1 11 8 20l19 19q21 19 43 38q16 15 21 47q-4 23 -7 45q-6 25 -18 36h-82q-17 0 -17 17v21q0 17 17 17z" />
    <glyph glyph-name="section" unicode="&#xa7;" horiz-adv-x="45" 
 />
    <glyph glyph-name="bullet" unicode="&#x2022;" horiz-adv-x="331" 
d="M25 267q0 50 35 85t85 35q49 0 84 -35t35 -85q0 -49 -35 -84t-84 -35q-50 0 -85 35t-35 84z" />
    <glyph glyph-name="paragraph" unicode="&#xb6;" horiz-adv-x="583" 
d="M367 629q-69 16 -136 16q-84 0 -132.5 -45t-48.5 -130q0 -119 96 -180q80 -51 204 -50h17v389zM415 242q7 1 54 6q2 43 5 326l-7 24q-27 11 -52 18v-374zM415 -144q0 -17 -17 -17h-14q-17 0 -17 17v336q-367 8 -367 275q0 112 64 171q61 56 174 56q49 0 134.5 -22
t104.5 -22q5 0 16.5 1.5t16.5 1.5q34 0 34 -39q0 -9 -9 -25t-11 -22v1l1 -301q8 -4 24 -28q1 -19 -24 -32v-310q0 -6 5.5 -18.5t5.5 -17.5q0 -15 -11.5 -27.5t-26.5 -12.5q-16 0 -27.5 11t-11.5 27q0 19 14 34v303q-19 -2 -58 -4v-336z" />
    <glyph glyph-name="germandbls" unicode="&#xdf;" horiz-adv-x="569" 
d="M512 7q0 -63 -34 -121q-39 -69 -111 -98q-46 -18 -76 -18q-62 0 -112 22q-66 29 -66 87q0 5 -2 16t-1 18q2 10 9 24t16 24.5t27 10.5q17 0 28 -12t11 -28q0 -21 -17 -33q-5 0 -16 -5q-4 -3 0 -8q5 -7 5 -8q0 -52 116 -52q32 0 69 20q98 53 98 163q0 53 -32 86t-85 33
q-45 0 -71 -19.5t-34 -19.5q-11 0 -22 14.5t-11 24.5q0 12 18 22q13 7 27 14q28 26 80 90q57 69 81 92q-10 3 -22 3l-268 -1v6q-11 -151 -14 -322q0 -2 4 -11t4 -16q0 -15 -11.5 -26.5t-26.5 -11.5q-14 0 -26 13t-12 27q0 9 8.5 20.5t8.5 25.5v301l-9 2l-16 -1
q-28 16 -28 30q0 11 9 21t19 10q4 0 11.5 -3.5t10.5 -3.5q2 0 3 0.5t3 2.5q12 127 16 145q19 77 78 120q33 24 75 24q54 0 94 -55q7 -7 14 -15t7 -21q0 -16 -10.5 -26.5t-26.5 -10.5q-42 0 -36 54q-19 23 -40 23q-20 0 -40 -14q-35 -25 -46 -82q-9 -43 -18 -147q9 0 25 -5
l243 1q19 2 62 2q16 -1 33.5 -12.5t17.5 -26.5q0 -10 -9 -19t-20 -18q-20 -19 -61 -72t-61 -72q2 0 5 -2q74 -7 117 -62q38 -49 38 -114z" />
    <glyph glyph-name="registered" unicode="&#xae;" horiz-adv-x="440" 
d="M188 289q-75 0 -129.5 57t-54.5 133q0 101 45 158q51 63 150 63q82 0 136 -59t54 -141q0 -90 -55 -149q-56 -62 -146 -62zM199 670q-84 0 -126 -54q-39 -49 -39 -136q0 -62 45.5 -111t107.5 -49q76 0 124 54q46 51 46 128q0 65 -47 116.5t-111 51.5zM167 475q5 -2 49 -34
q32 -22 51 -22q9 0 15.5 -11t6.5 -20q0 -26 -25 -26q-20 0 -29 19q-28 22 -88 63q-1 -12 -1 -38q0 -5 2.5 -13.5t2.5 -12.5q0 -26 -26 -26q-27 0 -27 27q0 6 5.5 14.5t5.5 12.5q0 8 1 24.5t1 24.5q0 6 -6 15.5t-6 15.5q0 4 8 15v3q0 15 2 43.5t2 42.5q0 2 -3 8.5t-3 11.5
q0 25 47 25q138 0 138 -75q0 -45 -39 -66q-27 -14 -84 -21zM152 598q-1 -19 -2 -86l16 -2q27 0 53 13q30 15 30 38q0 39 -61 39q-20 0 -36 -2z" />
    <glyph glyph-name="copyright" unicode="&#xa9;" horiz-adv-x="705" 
d="M292 -7q-130 0 -219 90.5t-89 220.5q0 178 73 278q84 115 255 115q141 0 232 -91t91 -234q0 -158 -91 -265q-97 -114 -252 -114zM316 649q-148 0 -222 -100q-67 -88 -67 -242q0 -111 76.5 -190.5t186.5 -79.5q135 0 220 103q79 97 79 235q0 116 -80 195t-193 79zM473 224
q0 -16 -10 -25q-2 -2 -22 -14.5t-44 -36.5q-20 -22 -37 -29q-25 -12 -70 -12q-88 0 -138 58q-46 54 -46 143q0 98 59 179q65 88 160 88q52 0 91 -35.5t39 -87.5q0 -15 -11 -26.5t-26 -11.5q-14 0 -26 11.5t-12 26.5q0 3 5.5 15t5.5 15q0 19 -24 31q-20 9 -42 9
q-70 0 -121 -74q-46 -67 -46 -140q0 -66 32 -105q34 -43 98 -43q49 0 79 26q13 11 36 49q16 26 33 26q16 0 26.5 -10.5t10.5 -26.5z" />
    <glyph glyph-name="trademark" unicode="&#x2122;" horiz-adv-x="604" 
d="M561 409q0 -23 -23 -23q-6 0 -10 2q-22 9 -11 34l-35 176q-65 -143 -65 -156t-4 -17q-8 -8 -16 -8q-3 -1 -9 0q-9 1 -15 12q-4 9 0 20l-67 165q-19 -70 -51 -201v-18q-3 -19 -20 -19h-3q-23 0 -23 24q0 8 6.5 15t6.5 14q9 33 22.5 83.5t38.5 145.5q-1 6 -2 15q2 12 13 16
q7 2 10 2t10 -2q13 -4 14 -18q-2 -5 -2 -15q8 -19 23.5 -57.5t45.5 -113.5q25 58 70 162q-2 5 -2 10q0 26 27 26q26 0 26 -26q0 -9 -7 -17q6 -27 28 -138q4 -24 15 -75q1 0 3 -2q6 -6 6 -16zM142 644l1 -227q6 -11 6 -16q0 -22 -23 -22q-22 0 -22 24q0 2 1 4l2 4q1 3 3 7
v226h-54q-13 0 -16 -2q-8 -5 -14 -5q-22 0 -22 23q0 22 22 22q-2 0 16 -6h12l148 2q20 5 15 5q25 0 25 -22t-23 -22q-7 0 -10.5 2.5t-4.5 3.5q-6 1 -18 1z" />
    <glyph glyph-name="acute" unicode="&#xb4;" horiz-adv-x="470" 
d="M243 812l91 -20q14 -3 14 -11q0 -2 -3 -3l-153 -78q-2 -1 -8.5 -6.5t-11.5 -4.5l-23 3q-17 2 -3 14l79 70q3 2 8 21q5 16 10 15z" />
    <glyph glyph-name="dieresis" unicode="&#xa8;" horiz-adv-x="367" 
d="M51 747q0 19 13 33t31 14q19 0 32 -14t13 -33t-13 -32.5t-32 -13.5q-18 0 -31 13.5t-13 32.5zM227 752q0 19 13.5 33t32.5 14t32.5 -14t13.5 -33q0 -20 -13.5 -34t-32.5 -14t-32.5 14t-13.5 34z" />
    <glyph glyph-name="AE" unicode="&#xc6;" horiz-adv-x="956" 
d="M577 3q-8 -17 -25 -27.5t-31 -11.5q-26 0 -26 28q0 13 7 28q-3 8 -4 16q0 5 5 30l-3 127h-286q-38 -42 -114 -138q-2 -11 -9 -30q-22 -35 -63 -35q-30 -1 -30 27q0 8 2 16q8 23 34 36q11 5 18 12q13 17 41 52q13 18 45 58q-15 12 -10 27q10 30 30 30l29 1q96 130 293 383
q3 4 3 9q0 2 -1 6q-1 8 8 22q17 27 56 28q27 0 28 -30q9 -2 14 -2l207 1q10 0 27.5 6t27.5 6q17 0 30.5 -13.5t13.5 -30.5q1 -16 -13 -29t-30 -12q-10 0 -29 7.5t-31 7.5l-218 -1l-3 -206q164 -4 173 1q33 16 40 16q17 0 30.5 -13.5t13.5 -31.5q0 -25 -42 -42q-19 7 -44 15
q-49 0 -173 5l5 -290q192 -6 270 8q3 5 15.5 11t17.5 6q18 0 30.5 -13t12.5 -31t-11.5 -30.5t-29.5 -12.5q-5 0 -20.5 3.5t-21.5 3.5zM500 253v316q-67 -85 -115 -148q-116 -152 -121 -168h236z" />
    <glyph glyph-name="Oslash" unicode="&#xd8;" horiz-adv-x="544" 
d="M323 511l-194 -406q40 -49 99 -49q89 0 145 107q47 90 47 186q0 49 -12 99q-17 69 -50 82q-18 -19 -35 -19zM103 145l178 376q-24 13 -24 29q0 14 18.5 25t18.5 15q0 8 -12 15t-19 7q-85 0 -146 -109q-52 -95 -52 -187q0 -96 38 -171zM19 -14q0 24 24 32l31 64
q-68 96 -68 235q0 113 70 225q78 126 184 126q44 0 73 -36l18 38q-2 7 -2 15q0 36 30 36t30 -36q0 -26 -20 -35l-27 -56q115 -51 115 -246q0 -125 -62 -229q-73 -121 -190 -121q-71 0 -123 51l-19 -41q8 -9 8 -22t-10.5 -23t-25.5 -10t-25.5 10t-10.5 23z" />
    <glyph glyph-name="plusminus" unicode="&#xb1;" horiz-adv-x="20" 
 />
    <glyph glyph-name="yen" unicode="&#xa5;" horiz-adv-x="549" 
d="M96 264h125q-1 24 -15 54q-28 59 -81 144q-59 95 -84 144q-5 10 -12 15q-25 16 -25 39q0 15 11.5 27.5t27.5 12.5q37 0 43 -32q0 -3 -1 -14q0 -11 2 -17q27 -58 77 -138q58 -91 82 -138q11 0 11 1q20 33 87 127q57 80 82 129q1 3 0 22q-2 26 9 33q5 3 31 3
q18 0 29.5 -12.5t11.5 -28.5q0 -11 -27 -39q-13 -13 -76 -105q-61 -88 -76 -111q-53 -90 -53 -94v-22h127q17 0 17 -17v-12q0 -20 -19 -20h-125v-61h127q17 0 17 -17v-12q0 -20 -19 -20h-125v-101q11 -10 13 -18q1 -3 1 -15q0 -34 -26 -34q-37 0 -46 13q-18 28 -10 45
q15 33 15 43v67h-128q-15 0 -15 20v12q0 17 17 17h125v61h-127q-15 0 -15 20v12q0 17 17 17z" />
    <glyph glyph-name="mu" unicode="&#xb5;" horiz-adv-x="397" 
d="M20 197l47 49l8 319q0 3 1 14q1 19 -5 27q-8 13 -8 24q0 13 11 25t25 12q15 0 26.5 -11.5t11.5 -26.5q0 -7 -5.5 -19t-6.5 -17l-6 -292l129 134q1 2 3 2q14 0 14 -19v-30q0 -5 -6 -9q-10 -6 -11 -8l-130 -136l-3 -168q10 -10 27 -9q21 1 27 -1l101 -2q9 0 14 1l8.5 5.5
t21.5 5.5q15 0 26.5 -12t11.5 -26q0 -13 -11.5 -24.5t-26.5 -11.5q-5 0 -34 12l-167 5q-2 0 -14 -2l-8 -2q-4 -1 -6 -1q-36 0 -36 39q0 8 6 21.5t8 18.5l2 96l-45 -47q-1 -2 -3 -2q-14 0 -14 19v30q0 6 6 9q10 7 11 8z" />
    <glyph glyph-name="mu" unicode="&#x3bc;" horiz-adv-x="397" 
d="M20 197l47 49l8 319q0 3 1 14q1 19 -5 27q-8 13 -8 24q0 13 11 25t25 12q15 0 26.5 -11.5t11.5 -26.5q0 -7 -5.5 -19t-6.5 -17l-6 -292l129 134q1 2 3 2q14 0 14 -19v-30q0 -5 -6 -9q-10 -6 -11 -8l-130 -136l-3 -168q10 -10 27 -9q21 1 27 -1l101 -2q9 0 14 1l8.5 5.5
t21.5 5.5q15 0 26.5 -12t11.5 -26q0 -13 -11.5 -24.5t-26.5 -11.5q-5 0 -34 12l-167 5q-2 0 -14 -2l-8 -2q-4 -1 -6 -1q-36 0 -36 39q0 8 6 21.5t8 18.5l2 96l-45 -47q-1 -2 -3 -2q-14 0 -14 19v30q0 6 6 9q10 7 11 8z" />
    <glyph glyph-name="ordfeminine" unicode="&#xaa;" horiz-adv-x="480" 
d="M440 572q-21 -19 -131 -192l-127 -195q-12 -16 -19 -25l-3 -5q-6 -8 -6 -10q1 -10 9 -3q1 0 4 3q-1 1 -1.5 2.5t-4.5 4.5q-2 -4 -43 -58l186 9q-5 0 18 -1q18 -1 26 3.5l24 13.5h10q43 0 43 -41q0 -18 -12.5 -29.5t-29.5 -11.5q-1 0 -17 7t-19 7q-2 0 -23 -1.5t-28 -1.5
q-67 -3 -203 -12q-8 -5 -24 -13q-9 -2 -16 -2q-18 0 -29.5 12.5t-11.5 28.5q0 21 18 37q2 2 12.5 4t14.5 6q25 24 61 82q88 139 261 397h-181q-71 0 -107 -9q-7 -5 -20 -11q-14 -2 -13 -2q-16 0 -28 14t-12 30q0 24 41 40l40 -14l83 6q41 3 107 1q81 -2 108 -1q2 0 21 11
q6 3 10 3q51 1 51 -41q0 -17 -13 -26t-26 -17zM346 758q5 3 8 6v0q-61 -43 -100 -75l-108 81q-7 5 -7 12q0 17 20 17q6 0 12 -4l80 -49q10 9 48 29t47 20q18 0 18 -18q0 -19 -18 -19z" />
    <glyph glyph-name="ordmasculine" unicode="&#xba;" horiz-adv-x="388" 
d="M285 2q-9 0 -19.5 7t-12.5 7q-6 1 -21 1h-16l-149 -6q-13 0 -26 7.5t-13 18.5q0 8 42 69q60 83 164 239q-3 8 -9 7h-4q-89 0 -130 -8q-3 -2 -10 -6.5t-19 -4.5q-18 0 -29 11.5t-11 26.5q0 38 37 38q9 0 20 -5.5t21 -4.5l132 5q15 0 37 3l4 2q5 2 7 2q11 0 35 -24
q4 -4 4 -12q0 -10 -7 -14q-10 -6 -10 -7q-14 -24 -44 -72q-48 -69 -147 -214h144q2 0 6 3q15 10 22 10q16 0 28.5 -13.5t12.5 -27.5q0 -15 -12 -26.5t-27 -11.5zM256 508q5 3 8 6v0q-61 -43 -100 -75l-108 81q-7 5 -7 12q0 17 20 17q6 0 12 -4l80 -49q10 9 48 29t47 20
q18 0 18 -18q0 -19 -18 -19z" />
    <glyph glyph-name="ae" unicode="&#xe6;" horiz-adv-x="719" 
d="M269 222q-4 7 -4 11q0 3 1 6q-28 9 -41 9q-33 0 -50 -4q-43 -10 -77 -39q-40 -33 -40 -72q0 -73 98 -73q20 0 54 7q43 8 47 19q10 25 12 66v70zM673 233q0 -28 -26 -28q-2 0 -7 1.5t-8 1.5h-146q-143 0 -157 -8v-4q-1 -48 28 -99q33 -58 77 -65q10 -1 23 -1q58 0 66 1
q44 7 54 39q0 2 -4 10.5t-4 15.5q0 14 11.5 25.5t25.5 11.5q39 0 39 -34q0 1 -12 -35q-9 -14 -21 -35q-19 -54 -154 -54q-96 0 -148 97q-5 -46 -5 -57q0 -6 3.5 -18t3.5 -18q0 -16 -11.5 -27t-27.5 -11t-26 12t-10 27q0 13 8 15.5t8 27.5q-45 -16 -96 -16q-152 0 -152 128
q0 70 71 120q65 46 138 46q9 0 27.5 -3.5t28.5 -3.5q1 2 1 5q0 32 -15 54q-18 25 -49 25q-25 0 -65 -18.5t-50 -38.5q0 -8 -4 -23q-8 -22 -35 -22q-16 0 -26 11.5t-10 27.5q0 19 30 37q14 14 47 40q60 38 115 38q46 0 79 -35q24 -25 29 -60q28 37 72.5 60.5t86.5 23.5
q38 0 77 -17t62 -44q17 -21 27 -47t19 -52q1 -3 8 -12q4 -7 4 -15zM604 261v7q0 4 -2 7q-2 20 -24 45t-41 33q-29 13 -60 13q-36 0 -71.5 -21t-52.5 -54q-13 -24 -13 -29q1 -4 2 -5q106 6 262 4z" />
    <glyph glyph-name="oslash" unicode="&#xf8;" horiz-adv-x="494" 
d="M275 383v1v0v-1zM122 39l139 314q-13 -13 -27 -13t-24.5 12.5t-7.5 25.5h-7q-52 0 -96 -81q-39 -71 -39 -129q0 -83 62 -129zM319 388l-163 -367q25 -10 53 -10q80 0 132 78q44 69 44 153q0 45 -13 84q-18 51 -53 62zM318 471h25q13 0 9 -9l-14 -31q48 -17 74 -79
q22 -51 22 -112q0 -105 -58 -186q-65 -90 -165 -90q-40 0 -74 13l-11 -25q-4 -9 -9 -9h-25q-13 0 -9 9l19 42q-90 58 -90 173q0 60 31 127q32 72 79 104q44 29 66 29q9 0 24.5 -4.5t21.5 -4.5q20 9 65 19l10 25q4 9 9 9z" />
    <glyph glyph-name="questiondown" unicode="&#xbf;" horiz-adv-x="409" 
d="M-6 -24q0 69 51 115l96 68q51 40 51 94q0 10 -3.5 29.5t-3.5 28.5q0 12 11 20.5t23 7.5h8q27 -18 27 -86q0 -59 -34 -98q-18 -22 -74 -59q-52 -34 -73 -63q-11 -15 -12.5 -29t-1.5 -29q-1 -6 -3 -9q12 -46 49 -81t82 -35q34 0 66 18q36 20 39 50l28 23h12q19 1 31 -12.5
t12 -32.5q0 -31 -75 -70q-71 -36 -111 -36q-70 0 -132.5 58t-62.5 128zM170 433q0 19 15 33t34 14t34.5 -16t15.5 -35q0 -18 -14.5 -32.5t-33.5 -14.5q-20 0 -35.5 15.5t-15.5 35.5z" />
    <glyph glyph-name="exclamdown" unicode="&#xa1;" horiz-adv-x="205" 
d="M31 -144q0 11 8 22t9 15q0 16 2 49l7 310q2 15 7 49q1 5 9 9q5 3 12 3q36 0 36 -41l-11 -357v-31q9 -24 9 -29q0 -43 -42 -43q-20 0 -33 13.5t-13 30.5zM37 417q0 6 6.5 18.5t21.5 29.5q12 6 28 6q23 0 36 -14.5t13 -33.5q0 -20 -14 -33.5t-34 -13.5q-18 0 -37.5 12.5
t-19.5 28.5z" />
    <glyph glyph-name="logicalnot" unicode="&#xac;" horiz-adv-x="20" 
 />
    <glyph glyph-name="florin" unicode="&#x192;" horiz-adv-x="20" 
 />
    <glyph glyph-name="guillemotleft" unicode="&#xab;" horiz-adv-x="329" 
d="M203 275l87 -140q4 -7 0 -13l-9 -15q-5 -9 -13 0l-134 164q-5 7 0 13l129 169q5 7 13 0l11 -10q4 -4 0 -13zM73 275l87 -140q4 -7 0 -13l-9 -15q-5 -9 -13 0l-134 164q-5 7 0 13l129 169q5 7 13 0l11 -10q4 -4 0 -13z" />
    <glyph glyph-name="guillemotright" unicode="&#xbb;" horiz-adv-x="329" 
d="M91 275l-87 -140q-4 -7 0 -13l9 -15q5 -9 13 0l134 164q5 7 0 13l-129 169q-5 7 -13 0l-11 -10q-5 -4 0 -13zM221 275l-87 -140q-4 -7 0 -13l9 -15q5 -9 13 0l134 164q5 7 0 13l-129 169q-5 7 -13 0l-11 -10q-5 -4 0 -13z" />
    <glyph glyph-name="ellipsis" unicode="&#x2026;" horiz-adv-x="579" 
d="M333 36q0 -17 -14.5 -29.5t-30.5 -12.5q-18 0 -31.5 14.5t-13.5 30.5q0 18 13 30.5t30 12.5q20 0 33.5 -13.5t13.5 -32.5zM533 36q0 -17 -14.5 -29.5t-30.5 -12.5q-18 0 -31.5 14.5t-13.5 30.5q0 18 13 30.5t30 12.5q20 0 33.5 -13.5t13.5 -32.5zM133 36
q0 -17 -14.5 -29.5t-30.5 -12.5q-18 0 -31.5 14.5t-13.5 30.5q0 18 13 30.5t30 12.5q20 0 33.5 -13.5t13.5 -32.5z" />
    <glyph glyph-name="nonbreakingspace" unicode="&#xa0;" horiz-adv-x="1214" 
 />
    <glyph glyph-name="Agrave" unicode="&#xc0;" horiz-adv-x="679" 
d="M591 -43q-18 0 -29 14.5t-11 34.5q0 10 3 19l-71 198h-318q-42 -72 -71 -138q2 -10 1 -29q-5 -18 -14 -26t-27 -8q-19 0 -31 12.5t-12 30.5q0 23 21 36q10 5 14 12q14 21 28 52q7 18 25 57q-20 12 -20 27q0 30 20 30h29q64 126 186 374q3 5 1 10q-7 16 -3 27q7 27 47 27
q16 0 28 -14t12 -32q0 -4 -1 -9q-2 -11 0 -19q38 -118 119 -353q2 -4 9 -4q20 1 28 -11q10 -18 7 -28q-2 -3 -17 -18q6 -16 17 -51q15 -45 48 -133q6 -5 17 -15q8 -10 8 -31q0 -19 -14 -30.5t-29 -11.5zM357 591q-11 -6 -85.5 -150t-73.5 -162h267zM375 842l-91 -20
q-15 -3 -15 -11q0 -2 3 -3l154 -78q2 -1 8 -6.5t12 -4.5l23 3q17 2 3 14l-80 70q-3 2 -8 21q-4 16 -9 15z" />
    <glyph glyph-name="Atilde" unicode="&#xc3;" horiz-adv-x="679" 
d="M591 -43q-18 0 -29 14.5t-11 34.5q0 10 3 19l-71 198h-318q-42 -72 -71 -138q2 -10 1 -29q-5 -18 -14.5 -26t-26.5 -8q-19 0 -31 12.5t-12 30.5q0 23 21 36q10 5 14 12q14 21 28 52q7 18 25 57q-20 12 -20 27q0 30 20 30h29q64 126 186 374q3 5 1 10q-7 16 -3 27
q7 27 47 27q16 0 28 -14t12 -32q0 -4 -1 -9q-2 -11 0 -19q38 -118 119 -353q2 -4 9 -4q20 1 28 -11q10 -18 7 -28q-2 -3 -17 -18q6 -16 17 -51q15 -45 48 -133q6 -5 17 -15q8 -10 8 -31q0 -19 -14 -30.5t-29 -11.5zM357 591q-11 -6 -85.5 -150t-73.5 -162h267zM221 748
q4 19 30.5 41t47.5 25q20 3 64.5 -14t50.5 -16q14 1 29 3q21 4 24 14q4 6 14 6q18 0 20 -16q-6 -19 -28.5 -37.5t-43.5 -21.5q-20 -3 -74 18.5t-58 20.5q-11 -2 -25.5 -11.5t-15.5 -18.5q-23 -15 -35 7z" />
    <glyph glyph-name="Otilde" unicode="&#xd5;" horiz-adv-x="544" 
d="M225 -2q-106 0 -168 111q-51 92 -51 208q0 113 70 225q78 126 184 126q60 0 94 -71q123 -47 123 -249q0 -125 -62 -229q-73 -121 -190 -121zM358 530q-18 -19 -37 -19q-20 0 -42 11.5t-22 27.5q0 14 18.5 25t18.5 15q0 8 -12 15t-19 7q-85 0 -146 -109q-52 -95 -52 -187
q0 -91 35 -165q45 -95 128 -95q89 0 145 107q47 90 47 186q0 49 -12 99q-17 69 -50 82zM111 728q4 19 30.5 41t47.5 25q20 3 64.5 -14t50.5 -16q14 1 29 3q21 4 24 14q4 6 14 6q18 0 20 -16q-6 -19 -28.5 -37.5t-43.5 -21.5q-20 -3 -74 18.5t-58 20.5q-11 -2 -25.5 -11.5
t-15.5 -18.5q-23 -15 -35 7z" />
    <glyph glyph-name="OE" unicode="&#x152;" horiz-adv-x="869" 
d="M225 -2q-106 0 -168 111q-51 92 -51 208q0 113 70 225q78 126 184 126q60 0 94 -71q44 -16 73 -54v30q0 10 -7.5 28t-7.5 29q0 13 14.5 23t32.5 10q5 0 20.5 -4.5t21.5 -4.5l209 1q9 0 27 6.5t27 6.5q18 0 31 -13.5t13 -30.5q0 -16 -14 -29t-30 -13q-9 0 -28.5 7.5
t-31.5 7.5l-220 -1l-6 -206q163 -2 173 3q33 16 40 16q17 0 30 -13.5t13 -31.5q0 -25 -42 -42q-41 14 -44 14q-50 0 -171 4q0 -16 -2 -33v-257q192 -5 270 10q3 5 15.5 11.5t17.5 6.5q18 0 30 -13t12 -31t-12 -31t-30 -13q-4 0 -20 3.5t-22 3.5l-261 -5q-30 -14 -34 -14
q-17 0 -29 14t-12 32l13 39q5 14 6 63q-73 -128 -194 -128zM358 530q-18 -19 -37 -19q-20 0 -42 11.5t-22 27.5q0 14 18.5 25t18.5 15q0 8 -12 15t-19 7q-85 0 -146 -109q-52 -95 -52 -187q0 -91 35 -165q45 -95 128 -95q84 0 139 97q46 80 53 177q-1 34 -3 65
q-13 117 -59 135z" />
    <glyph glyph-name="oe" unicode="&#x153;" horiz-adv-x="799" 
d="M694 261v7q0 4 -2 7q-2 20 -24 45t-41 33q-29 13 -60 13q-36 0 -71.5 -21t-52.5 -54q-13 -24 -13 -29q1 -4 2 -5q106 6 262 4zM422 201q-1 -9 -3 -18q4 -47 32 -92q31 -52 73 -59q10 -1 23 -1q58 0 66 1q44 7 54 39q0 2 -4 10.5t-4 15.5q0 14 11.5 25.5t25.5 11.5
q39 0 39 -34q0 1 -12 -35q-9 -14 -21 -35q-19 -54 -154 -54q-105 0 -158 118q-65 -130 -189 -130q-87 0 -143 58.5t-56 144.5q0 60 31 127q32 72 79 104q44 29 66 29q9 0 24.5 -4.5t21.5 -4.5q46 19 66 19q83 0 118 -100q28 37 72 60t86 23q38 0 77 -17t62 -44
q17 -21 27 -47t19 -52q1 -3 8 -12q4 -7 4 -15q0 -28 -26 -28q-2 0 -7 1.5t-8 1.5q-69 0 -139 1q-137 -1 -161 -8zM374 244q0 52 -17 93q-23 55 -67 55q-8 0 -26 -7l-1 -14q-17 -30 -40 -30q-14 0 -24.5 12.5t-7.5 25.5h-6q-52 1 -97 -80q-39 -72 -39 -129q0 -66 42 -111.5
t107 -45.5q81 0 132 78q44 68 44 153z" />
    <glyph glyph-name="endash" unicode="&#x2013;" horiz-adv-x="386" 
d="M8 277h325q9 0 9 -9v-39q0 -9 -9 -9h-325q-9 0 -9 9v39q0 9 9 9z" />
    <glyph glyph-name="emdash" unicode="&#x2014;" horiz-adv-x="698" 
d="M663 277l9 -9v-39l-9 -9h-655l-9 9v39l9 9q5 -2 331 -2q325 0 324 2z" />
    <glyph glyph-name="quotedblleft" unicode="&#x201c;" horiz-adv-x="336" 
d="M232 587q3 -6 14 -17.5t11 -27.5q0 -21 -13 -35t-34 -14q-23 0 -38 16t-15 38q0 30 33 79.5t57 49.5q23 0 23 -27q0 -10 -15 -32q-11 -15 -23 -30zM92 587q3 -6 14 -17.5t11 -27.5q0 -21 -13 -35t-34 -14q-23 0 -38 16t-15 38q0 30 33 79.5t57 49.5q23 0 23 -27
q0 -10 -15 -32q-11 -15 -23 -30z" />
    <glyph glyph-name="quotedblright" unicode="&#x201d;" horiz-adv-x="326" 
d="M181 493q-24 0 -24 27q0 10 16 32l22 30q-2 5 -13 17t-11 28q0 20 13 34.5t34 14.5q22 0 37 -16t15 -39q0 -29 -32.5 -78.5t-56.5 -49.5zM41 493q-24 0 -24 27q0 10 16 32l22 30q-2 5 -13 17t-11 28q0 20 13 34.5t34 14.5q22 0 37 -16t15 -39q0 -29 -32.5 -78.5
t-56.5 -49.5z" />
    <glyph glyph-name="quoteleft" unicode="&#x2018;" horiz-adv-x="196" 
d="M92 587q3 -6 14 -17.5t11 -27.5q0 -21 -13 -35t-34 -14q-23 0 -38 16t-15 38q0 30 33 79.5t57 49.5q23 0 23 -27q0 -10 -15 -32q-11 -15 -23 -30z" />
    <glyph glyph-name="quoteright" unicode="&#x2019;" horiz-adv-x="186" 
d="M41 493q-24 0 -24 27q0 10 16 32l22 30q-2 5 -13 17t-11 28q0 20 13 34.5t34 14.5q22 0 37 -16t15 -39q0 -29 -32.5 -78.5t-56.5 -49.5z" />
    <glyph glyph-name="divide" unicode="&#xf7;" horiz-adv-x="22" 
 />
    <glyph glyph-name="ydieresis" unicode="&#xff;" horiz-adv-x="460" 
d="M390 367q-33 -72 -98 -215q-54 -112 -144 -307v-20q0 -34 -40 -34q-39 0 -39 40q0 13 12 23q18 17 19 18q4 6 37 75l57 120q0 6 -39 84q-33 69 -103 207q-6 5 -15.5 17t-9.5 25q0 38 36 38q28 0 38 -26q1 -4 0 -16q-2 -13 1 -19q13 -32 122 -244q22 44 65 132
q37 76 55 131q0 2 -2.5 13.5t-1.5 15.5q0 7 9.5 18t16.5 12h11q18 0 29.5 -11.5t11.5 -26.5q0 -11 -11 -25q-15 -19 -17 -25zM81 527q0 19 13 33t31 14q19 0 32 -14t13 -33t-13 -32.5t-32 -13.5q-18 0 -31 13.5t-13 32.5zM257 532q0 19 13.5 33t32.5 14t32.5 -14t13.5 -33
q0 -20 -13.5 -34t-32.5 -14t-32.5 14t-13.5 34z" />
    <glyph glyph-name="Ydieresis" unicode="&#x178;" horiz-adv-x="549" 
d="M484 593q-18 -19 -36 -53l-30 -58q-140 -242 -140 -240v-322q11 -11 13 -19q1 -3 1 -15q0 -34 -26 -34q-37 0 -45 13q-19 29 -11 46q15 33 15 43l-1 264q0 26 -17 62l-30 58q-10 19 -29 56q-34 70 -103 209q-5 9 -13 14q-24 16 -24 40q0 15 11 30.5t26 15.5
q12 0 27 -11.5t17 -27.5q1 -2 0 -13q-1 -12 2 -18q33 -72 159 -315q7 0 10 5q62 101 169 292q2 2 0 22q-2 25 10 33q4 3 31 3q18 0 29.5 -12.5t11.5 -28.5q0 -11 -27 -39zM121 747q0 19 13 33t31 14q19 0 32 -14t13 -33t-13 -32.5t-32 -13.5q-18 0 -31 13.5t-13 32.5z
M297 752q0 19 13.5 33t32.5 14t32.5 -14t13.5 -33q0 -20 -13.5 -34t-32.5 -14t-32.5 14t-13.5 34z" />
    <glyph glyph-name="currency" unicode="&#xa4;" horiz-adv-x="28" 
 />
    <glyph glyph-name="guilsinglleft" unicode="&#x2039;" horiz-adv-x="213" 
d="M73 275l87 -140q4 -7 0 -13l-9 -15q-5 -9 -13 0l-134 164q-5 7 0 13l129 169q5 7 13 0l11 -10q4 -4 0 -13z" />
    <glyph glyph-name="guilsinglright" unicode="&#x203a;" horiz-adv-x="213" 
d="M91 275l-87 -140q-4 -7 0 -13l9 -15q5 -9 13 0l134 164q5 7 0 13l-129 169q-5 7 -13 0l-11 -10q-5 -4 0 -13z" />
    <glyph glyph-name="daggerdbl" unicode="&#x2021;" horiz-adv-x="22" 
 />
    <glyph glyph-name="periodcentered" unicode="&#xb7;" horiz-adv-x="276" 
d="M48 295q0 32 23.5 55t55.5 23q33 0 56.5 -23t23.5 -55t-23.5 -55t-56.5 -23q-32 0 -55.5 23t-23.5 55z" />
    <glyph glyph-name="periodcentered" unicode="&#x2219;" horiz-adv-x="276" 
d="M48 295q0 32 23.5 55t55.5 23q33 0 56.5 -23t23.5 -55t-23.5 -55t-56.5 -23q-32 0 -55.5 23t-23.5 55z" />
    <glyph glyph-name="quotesinglbase" unicode="&#x201a;" horiz-adv-x="206" 
d="M41 -77q-24 0 -24 27q0 10 16 32l22 30q-2 5 -13 17t-11 28q0 20 13 34.5t34 14.5q22 0 37 -16t15 -39q0 -29 -32.5 -78.5t-56.5 -49.5z" />
    <glyph glyph-name="quotedblbase" unicode="&#x201e;" horiz-adv-x="346" 
d="M181 -77q-24 0 -24 27q0 10 16 32l22 30q-2 5 -13 17t-11 28q0 20 13 34.5t34 14.5q22 0 37 -16t15 -39q0 -29 -32.5 -78.5t-56.5 -49.5zM41 -77q-24 0 -24 27q0 10 16 32l22 30q-2 5 -13 17t-11 28q0 20 13 34.5t34 14.5q22 0 37 -16t15 -39q0 -29 -32.5 -78.5
t-56.5 -49.5z" />
    <glyph glyph-name="perthousand" unicode="&#x2030;" horiz-adv-x="19" 
 />
    <glyph glyph-name="Acircumflex" unicode="&#xc2;" horiz-adv-x="679" 
d="M591 -43q-18 0 -29 14.5t-11 34.5q0 10 3 19l-71 198h-318q-42 -72 -71 -138q2 -10 1 -29q-5 -18 -14 -26t-27 -8q-19 0 -31 12.5t-12 30.5q0 23 21 36q10 5 14 12q14 21 28 52q7 18 25 57q-20 12 -20 27q0 30 20 30h29q64 126 186 374q3 5 1 10q-7 16 -3 27q7 27 47 27
q16 0 28 -14t12 -32q0 -4 -1 -9q-2 -11 0 -19q38 -118 119 -353q2 -4 9 -4q20 1 28 -11q10 -18 7 -28q-2 -3 -17 -18q6 -16 17 -51q15 -45 48 -133q6 -5 17 -15q8 -10 8 -31q0 -19 -14 -30.5t-29 -11.5zM357 591q-11 -6 -85.5 -150t-73.5 -162h267zM260 762q-5 -4 -7 -6v0
q61 42 99 75l108 -82q7 -5 7 -12q0 -16 -19 -16q-7 0 -12 3l-81 49q-10 -8 -48 -28.5t-47 -20.5q-18 0 -18 19t18 19z" />
    <glyph glyph-name="Ecircumflex" unicode="&#xca;" horiz-adv-x="470" 
d="M388 -10q-4 0 -20 3.5t-22 3.5l-261 -5q-30 -14 -34 -14q-17 0 -29 14t-12 32l13 39q3 8 4 12q1 75 4 254q-30 4 -30 34t34 33q2 111 2 177q0 10 -7.5 28t-7.5 29q0 13 14.5 23t32.5 10q5 0 20.5 -4.5t21.5 -4.5l209 1q9 0 27 6.5t27 6.5q18 0 31 -13.5t13 -30.5
q0 -16 -14 -29t-30 -13q-9 0 -28.5 7.5t-31.5 7.5l-220 -1l-6 -206q163 -2 173 3q33 16 40 16q17 0 30 -13.5t13 -31.5q0 -25 -42 -42q-41 14 -44 14q-49 0 -173 4v-290q192 -5 270 10q3 5 15.5 11.5t17.5 6.5q18 0 30 -13t12 -31t-12 -31t-30 -13zM130 742q-5 -4 -7 -6v0
q61 42 99 75l108 -82q7 -5 7 -12q0 -16 -19 -16q-7 0 -12 3l-81 49q-10 -8 -48 -28.5t-47 -20.5q-18 0 -18 19t18 19z" />
    <glyph glyph-name="Aacute" unicode="&#xc1;" horiz-adv-x="679" 
d="M591 -43q-18 0 -29 14.5t-11 34.5q0 10 3 19l-71 198h-318q-42 -72 -71 -138q2 -10 1 -29q-5 -18 -14 -26t-27 -8q-19 0 -31 12.5t-12 30.5q0 23 21 36q10 5 14 12q14 21 28 52q7 18 25 57q-20 12 -20 27q0 30 20 30h29q64 126 186 374q3 5 1 10q-7 16 -3 27q7 27 47 27
q16 0 28 -14t12 -32q0 -4 -1 -9q-2 -11 0 -19q38 -118 119 -353q2 -4 9 -4q20 1 28 -11q10 -18 7 -28q-2 -3 -17 -18q6 -16 17 -51q15 -45 48 -133q6 -5 17 -15q8 -10 8 -31q0 -19 -14 -30.5t-29 -11.5zM357 591q-11 -6 -85.5 -150t-73.5 -162h267zM333 832l91 -20
q14 -3 14 -11q0 -2 -3 -3l-153 -78q-2 -1 -8.5 -6.5t-11.5 -4.5l-23 3q-17 2 -3 14l79 70q3 2 8 21q5 16 10 15z" />
    <glyph glyph-name="Edieresis" unicode="&#xcb;" horiz-adv-x="470" 
d="M388 -10q-4 0 -20 3.5t-22 3.5l-261 -5q-30 -14 -34 -14q-17 0 -29 14t-12 32l13 39q3 8 4 12q1 75 4 254q-30 4 -30 34t34 33q2 111 2 177q0 10 -7.5 28t-7.5 29q0 13 14.5 23t32.5 10q5 0 20.5 -4.5t21.5 -4.5l209 1q9 0 27 6.5t27 6.5q18 0 31 -13.5t13 -30.5
q0 -16 -14 -29t-30 -13q-9 0 -28.5 7.5t-31.5 7.5l-220 -1l-6 -206q163 -2 173 3q33 16 40 16q17 0 30 -13.5t13 -31.5q0 -25 -42 -42q-41 14 -44 14q-49 0 -173 4v-290q192 -5 270 10q3 5 15.5 11.5t17.5 6.5q18 0 30 -13t12 -31t-12 -31t-30 -13zM91 747q0 19 13 33t31 14
q19 0 32 -14t13 -33t-13 -32.5t-32 -13.5q-18 0 -31 13.5t-13 32.5zM267 752q0 19 13.5 33t32.5 14t32.5 -14t13.5 -33q0 -20 -13.5 -34t-32.5 -14t-32.5 14t-13.5 34z" />
    <glyph glyph-name="Egrave" unicode="&#xc8;" horiz-adv-x="470" 
d="M388 -10q-4 0 -20 3.5t-22 3.5l-261 -5q-30 -14 -34 -14q-17 0 -29 14t-12 32l13 39q3 8 4 12q1 75 4 254q-30 4 -30 34t34 33q2 111 2 177q0 10 -7.5 28t-7.5 29q0 13 14.5 23t32.5 10q5 0 20.5 -4.5t21.5 -4.5l209 1q9 0 27 6.5t27 6.5q18 0 31 -13.5t13 -30.5
q0 -16 -14 -29t-30 -13q-9 0 -28.5 7.5t-31.5 7.5l-220 -1l-6 -206q163 -2 173 3q33 16 40 16q17 0 30 -13.5t13 -31.5q0 -25 -42 -42q-41 14 -44 14q-49 0 -173 4v-290q192 -5 270 10q3 5 15.5 11.5t17.5 6.5q18 0 30 -13t12 -31t-12 -31t-30 -13zM205 812l-91 -20
q-15 -3 -15 -11q0 -2 3 -3l154 -78q2 -1 8 -6.5t12 -4.5l23 3q17 2 3 14l-80 70q-3 2 -8 21q-4 16 -9 15z" />
    <glyph glyph-name="Iacute" unicode="&#xcd;" horiz-adv-x="193" 
d="M108 570l-11 -406q0 -7 -1 -30q-1 -32 4 -48q8 -26 8 -27q0 -44 -44 -44q-19 0 -31 13t-12 32q0 16 4 21l4 4q8 9 9 43l11 440q0 5 -6.5 23t-6.5 22q0 17 13 30t29 13q19 0 33 -14t14 -32q0 -6 -7 -20zM83 812l91 -20q14 -3 14 -11q0 -2 -3 -3l-153 -78q-2 -1 -8.5 -6.5
t-11.5 -4.5l-23 3q-17 2 -3 14l79 70q3 2 8 21q5 16 10 15z" />
    <glyph glyph-name="Icircumflex" unicode="&#xce;" horiz-adv-x="193" 
d="M108 570l-11 -406q0 -7 -1 -30q-1 -32 4 -48q8 -26 8 -27q0 -44 -44 -44q-19 0 -31 13t-12 32q0 16 4 21l4 4q8 9 9 43l11 440q0 5 -6.5 23t-6.5 22q0 17 13 30t29 13q19 0 33 -14t14 -32q0 -6 -7 -20zM-10 732q-5 -4 -7 -6v0q61 42 99 75l108 -82q7 -5 7 -12
q0 -16 -19 -16q-7 0 -12 3l-81 49q-10 -8 -48 -28.5t-47 -20.5q-18 0 -18 19t18 19z" />
    <glyph glyph-name="Idieresis" unicode="&#xcf;" horiz-adv-x="193" 
d="M108 570l-11 -406q0 -7 -1 -30q-1 -32 4 -48q8 -26 8 -27q0 -44 -44 -44q-19 0 -31 13t-12 32q0 16 4 21l4 4q8 9 9 43l11 440q0 5 -6.5 23t-6.5 22q0 17 13 30t29 13q19 0 33 -14t14 -32q0 -6 -7 -20zM-39 747q0 19 13 33t31 14q19 0 32 -14t13 -33t-13 -32.5t-32 -13.5
q-18 0 -31 13.5t-13 32.5zM87 752q0 19 13.5 33t32.5 14t32.5 -14t13.5 -33q0 -20 -13.5 -34t-32.5 -14t-32.5 14t-13.5 34z" />
    <glyph glyph-name="Igrave" unicode="&#xcc;" horiz-adv-x="193" 
d="M108 570l-11 -406q0 -7 -1 -30q-1 -32 4 -48q8 -26 8 -27q0 -44 -44 -44q-19 0 -31 13t-12 32q0 16 4 21l4 4q8 9 9 43l11 440q0 5 -6.5 23t-6.5 22q0 17 13 30t29 13q19 0 33 -14t14 -32q0 -6 -7 -20zM85 802l-91 -20q-15 -3 -15 -11q0 -2 3 -3l154 -78q2 -1 8 -6.5
t12 -4.5l23 3q17 2 3 14l-80 70q-3 2 -8 21q-4 16 -9 15z" />
    <glyph glyph-name="Oacute" unicode="&#xd3;" horiz-adv-x="544" 
d="M225 -2q-106 0 -168 111q-51 92 -51 208q0 113 70 225q78 126 184 126q60 0 94 -71q123 -47 123 -249q0 -125 -62 -229q-73 -121 -190 -121zM358 530q-18 -19 -37 -19q-20 0 -42 11.5t-22 27.5q0 14 18.5 25t18.5 15q0 8 -12 15t-19 7q-85 0 -146 -109q-52 -95 -52 -187
q0 -91 35 -165q45 -95 128 -95q89 0 145 107q47 90 47 186q0 49 -12 99q-17 69 -50 82zM253 812l91 -20q14 -3 14 -11q0 -2 -3 -3l-153 -78q-2 -1 -8.5 -6.5t-11.5 -4.5l-23 3q-17 2 -3 14l79 70q3 2 8 21q5 16 10 15z" />
    <glyph glyph-name="Ocircumflex" unicode="&#xd4;" horiz-adv-x="544" 
d="M225 -2q-106 0 -168 111q-51 92 -51 208q0 113 70 225q78 126 184 126q60 0 94 -71q123 -47 123 -249q0 -125 -62 -229q-73 -121 -190 -121zM358 530q-18 -19 -37 -19q-20 0 -42 11.5t-22 27.5q0 14 18.5 25t18.5 15q0 8 -12 15t-19 7q-85 0 -146 -109q-52 -95 -52 -187
q0 -91 35 -165q45 -95 128 -95q89 0 145 107q47 90 47 186q0 49 -12 99q-17 69 -50 82zM160 732q-5 -4 -7 -6v0q61 42 99 75l108 -82q7 -5 7 -12q0 -16 -19 -16q-7 0 -12 3l-81 49q-10 -8 -48 -28.5t-47 -20.5q-18 0 -18 19t18 19z" />
    <glyph glyph-name="Ograve" unicode="&#xd2;" horiz-adv-x="544" 
d="M225 -2q-106 0 -168 111q-51 92 -51 208q0 113 70 225q78 126 184 126q60 0 94 -71q123 -47 123 -249q0 -125 -62 -229q-73 -121 -190 -121zM358 530q-18 -19 -37 -19q-20 0 -42 11.5t-22 27.5q0 14 18.5 25t18.5 15q0 8 -12 15t-19 7q-85 0 -146 -109q-52 -95 -52 -187
q0 -91 35 -165q45 -95 128 -95q89 0 145 107q47 90 47 186q0 49 -12 99q-17 69 -50 82zM275 822l-91 -20q-15 -3 -15 -11q0 -2 3 -3l154 -78q2 -1 8 -6.5t12 -4.5l23 3q17 2 3 14l-80 70q-3 2 -8 21q-4 16 -9 15z" />
    <glyph glyph-name="Uacute" unicode="&#xda;" horiz-adv-x="565" 
d="M458 -38q-18 0 -29.5 11.5t-11.5 27.5q0 2 4 16l8 25l4 196q0 13 -6 38q-27 -50 -83 -145q-67 -99 -157 -123q-16 -4 -38 -4q-84 0 -121 90q-25 60 -25 145q0 71 21 163q7 29 44 160q1 5 -1 13t-2 11q0 26 15 36q11 8 24 8q18 0 29.5 -14t11.5 -28q0 -13 -11 -25
q-16 -17 -20 -38q-10 -31 -28 -92q-29 -105 -29 -196q0 -58 13 -102q23 -77 79 -77q19 0 40 8q17 7 51 32q73 54 134 204q55 137 55 230q0 20 -6 33l-2 4q-4 6 -4 15q0 16 11.5 28t27.5 12t28 -13.5t12 -29.5q0 -10 -12 -33l-2 -467q0 -40 1 -47q0 -3 6.5 -12.5t6.5 -21.5
q0 -38 -38 -38zM293 792l91 -20q14 -3 14 -11q0 -2 -3 -3l-153 -78q-2 -1 -8.5 -6.5t-11.5 -4.5l-23 3q-17 2 -3 14l79 70q3 2 8 21q5 16 10 15z" />
    <glyph glyph-name="Ucircumflex" unicode="&#xdb;" horiz-adv-x="565" 
d="M458 -38q-18 0 -29.5 11.5t-11.5 27.5q0 2 4 16l8 25l4 196q0 13 -6 38q-27 -50 -83 -145q-67 -99 -157 -123q-16 -4 -38 -4q-84 0 -121 90q-25 60 -25 145q0 71 21 163q7 29 44 160q1 5 -1 13t-2 11q0 26 15 36q11 8 24 8q18 0 29.5 -14t11.5 -28q0 -13 -11 -25
q-16 -17 -20 -38q-10 -31 -28 -92q-29 -105 -29 -196q0 -58 13 -102q23 -77 79 -77q19 0 40 8q17 7 51 32q73 54 134 204q55 137 55 230q0 20 -6 33l-2 4q-4 6 -4 15q0 16 11.5 28t27.5 12t28 -13.5t12 -29.5q0 -10 -12 -33l-2 -467q0 -40 1 -47q0 -3 6.5 -12.5t6.5 -21.5
q0 -38 -38 -38zM180 732q-5 -4 -7 -6v0q61 42 99 75l108 -82q7 -5 7 -12q0 -16 -19 -16q-7 0 -12 3l-81 49q-10 -8 -48 -28.5t-47 -20.5q-18 0 -18 19t18 19z" />
    <glyph glyph-name="Ugrave" unicode="&#xd9;" horiz-adv-x="565" 
d="M458 -38q-18 0 -29.5 11.5t-11.5 27.5q0 2 4 16l8 25l4 196q0 13 -6 38q-27 -50 -83 -145q-67 -99 -157 -123q-16 -4 -38 -4q-84 0 -121 90q-25 60 -25 145q0 71 21 163q7 29 44 160q1 5 -1 13t-2 11q0 26 15 36q11 8 24 8q18 0 29.5 -14t11.5 -28q0 -13 -11 -25
q-16 -17 -20 -38q-10 -31 -28 -92q-29 -105 -29 -196q0 -58 13 -102q23 -77 79 -77q19 0 40 8q17 7 51 32q73 54 134 204q55 137 55 230q0 20 -6 33l-2 4q-4 6 -4 15q0 16 11.5 28t27.5 12t28 -13.5t12 -29.5q0 -10 -12 -33l-2 -467q0 -40 1 -47q0 -3 6.5 -12.5t6.5 -21.5
q0 -38 -38 -38zM275 812l-91 -20q-15 -3 -15 -11q0 -2 3 -3l154 -78q2 -1 8 -6.5t12 -4.5l23 3q17 2 3 14l-80 70q-3 2 -8 21q-4 16 -9 15z" />
    <glyph glyph-name="circumflex" unicode="&#x2c6;" horiz-adv-x="311" 
d="M50 742q-5 -4 -7 -6v0q61 42 99 75l108 -82q7 -5 7 -12q0 -16 -19 -16q-7 0 -12 3l-81 49q-10 -8 -48 -28.5t-47 -20.5q-18 0 -18 19t18 19z" />
    <glyph glyph-name="tilde" unicode="&#x2dc;" horiz-adv-x="256" 
d="M21 738q4 20 21.5 36.5t37.5 20.5q20 3 49 -18t35 -20q8 1 19 11.5t14 22.5q4 6 14 6q18 0 20 -16q-6 -20 -24 -38t-38 -21t-49.5 18t-33.5 20q-25 -4 -30 -29q-23 -15 -35 7z" />
    <glyph glyph-name="macron" unicode="&#xaf;" horiz-adv-x="322" 
d="M72 794h163q9 0 9 -9v-31q0 -9 -9 -9h-163q-9 0 -9 9v31q0 9 9 9z" />
    <glyph glyph-name="macron" unicode="&#x2c9;" horiz-adv-x="322" 
d="M72 794h163q9 0 9 -9v-31q0 -9 -9 -9h-163q-9 0 -9 9v31q0 9 9 9z" />
    <glyph glyph-name="cedilla" unicode="&#xb8;" horiz-adv-x="192" 
d="M48 -160q17 0 27.5 9t10.5 19q0 11 -10.5 19.5t-27.5 8.5h-19l9 101q1 16 17 16q20 0 18 -19l-6 -65q54 -13 54 -61q0 -27 -22 -45t-51 -18q-40 0 -61 28q-4 5 -4 11q0 18 18 18q5 0 17 -11t30 -11z" />
    <glyph glyph-name="notequal" unicode="&#x2260;" horiz-adv-x="34" 
 />
    <glyph glyph-name="infinity" unicode="&#x221e;" horiz-adv-x="20" 
 />
    <glyph glyph-name="lessequal" unicode="&#x2264;" horiz-adv-x="20" 
 />
    <glyph glyph-name="greaterequal" unicode="&#x2265;" horiz-adv-x="20" 
 />
    <glyph glyph-name="partialdiff" unicode="&#x2202;" horiz-adv-x="172" 
d="M13 198l34 33l24 374l-5 9t-5 19q0 16 10.5 27.5t27.5 11.5t28.5 -14t11.5 -27q0 -5 -6.5 -15t-6.5 -13q-2 -8 -7 -94l-14 -223l28 26q1 1 3 1q14 0 14 -18v-27q0 -6 -6 -10l-11 -7l-32 -30l-11 -206q0 -2 5 -18t5 -17q0 -17 -12 -28t-28 -11t-27 12t-11 27q0 5 5 15.5
t6 14t7 102.5l3 54l-30 -29q-2 -1 -4 -1q-13 0 -13 18v27q0 6 6 10z" />
    <glyph glyph-name="summation" unicode="&#x2211;" horiz-adv-x="483" 
d="M178 -48q-82 0 -113 55q-24 56 -47 111q-4 6 -4 19q0 16 11.5 27t27.5 11q15 0 27.5 -12.5t12.5 -25.5q0 -2 -7 -18.5t-7 -20.5q0 -20 18 -48t40 -38q19 -8 42 -8q79 0 140 70q59 67 59 141q0 59 -42 90q-21 15 -79 29q-10 3 -107 31q-57 16 -90 55t-33 84q0 22 13 56
q21 57 70 91q45 31 94 31q58 0 123 -35q13 -7 18 -7q2 0 9 1t9 1q16 0 29 -11t13 -28q0 -16 -12.5 -28t-29.5 -12q-10 0 -20 8.5t-18 16.5q-19 16 -55.5 28.5t-65.5 12.5q-50 0 -86.5 -40.5t-36.5 -88.5q0 -26 20.5 -48.5t49.5 -32.5q63 -17 125 -34q82 -23 110 -54
q46 -51 46 -116q0 -101 -77 -182t-177 -81zM316 778q5 3 8 6v0q-61 -43 -100 -75l-108 81q-7 5 -7 12q0 17 20 17q6 0 12 -4l80 -49q10 9 48 29t47 20q18 0 18 -18q0 -19 -18 -19z" />
    <glyph glyph-name="product" unicode="&#x220f;" horiz-adv-x="363" 
d="M225 382l-21 12q-12 0 -51 -11q-12 -4 -34 -24.5t-22 -32.5q0 -29 33.5 -41t68.5 -24q44 -18 62.5 -56.5t18.5 -61.5q0 -55 -54 -112t-108 -57q-41 0 -62 27q-17 28 -33 56q-15 23 -15 30q0 14 10.5 24t24.5 10q15 0 26 -10t11 -24q0 -4 -2.5 -11.5t-2.5 -11.5
q0 -14 14 -26.5t28 -12.5q33 0 71.5 42t38.5 76q0 50 -49 72q-46 17 -91 34q-50 24 -50 79q0 44 62 82q56 33 104 33q7 0 21 -3t22 -3q18 0 38 -31q17 -10 17 -29q0 -14 -11.5 -24t-26.5 -10q-16 0 -28 11.5t-10 27.5zM286 548q5 3 8 6v0q-61 -43 -100 -75l-108 81
q-7 5 -7 12q0 17 20 17q6 0 12 -4l80 -49q10 9 48 29t47 20q18 0 18 -18q0 -19 -18 -19z" />
    <glyph glyph-name="pi" unicode="&#x3c0;" horiz-adv-x="549" 
d="M480 596q-18 -19 -35 -53q-15 -28 -30 -57q-140 -242 -140 -240v-323q11 -10 13 -18q1 -3 1 -15q0 -34 -26 -34q-37 0 -46 13q-18 28 -10 45q15 33 15 43l-1 264q0 26 -17 62l-30 58q-10 19 -29 57q-34 69 -104 208q-5 10 -12 15q-25 16 -25 39q0 15 11.5 27.5t27.5 12.5
q37 0 43 -32q0 -3 -1 -14q0 -11 2 -17q33 -72 159 -316q8 0 11 5q62 102 169 292q1 3 0 22q-2 26 9 33q5 3 31 3q18 0 29.5 -12.5t11.5 -28.5q0 -11 -27 -39zM273 812l91 -20q14 -3 14 -11q0 -2 -3 -3l-153 -78q-2 -1 -8.5 -6.5t-11.5 -4.5l-23 3q-16 2 -3 14l70 69
q2 2 13 22q9 16 14 15z" />
    <glyph glyph-name="integral" unicode="&#x222b;" horiz-adv-x="460" 
d="M390 367q-33 -72 -98 -215q-54 -112 -144 -307v-20q0 -34 -40 -34q-39 0 -39 40q0 13 12 23q18 17 19 18q4 6 37 75l57 120q0 6 -39 84q-33 69 -103 207q-6 5 -15.5 17t-9.5 25q0 38 36 38q28 0 38 -26q1 -4 0 -16q-2 -13 1 -19q13 -32 122 -244q22 44 65 132
q37 76 55 131q0 2 -2.5 13.5t-1.5 15.5q0 7 9.5 18t16.5 12h11q18 0 29.5 -11.5t11.5 -26.5q0 -11 -11 -25q-15 -19 -17 -25zM233 582l91 -20q14 -3 14 -11q0 -2 -3 -3l-153 -78q-2 -1 -8.5 -6.5t-11.5 -4.5l-23 3q-16 2 -3 14l70 69q2 2 13 22q9 16 14 15z" />
    <glyph glyph-name="Omega" unicode="&#x3a9;" horiz-adv-x="590" 
d="M19 413h61l3 11q24 93 105.5 172.5t160.5 79.5q100 0 151 -81q8 -7 21 -21q10 -14 10 -30q0 -18 -12.5 -30t-28.5 -12q-19 0 -31.5 16.5t-8.5 43.5q-9 25 -42 42q-29 14 -57 14q-46 0 -101 -44q-81 -65 -112 -161h181q17 0 17 -17v-18q0 -17 -17 -17h-194q-6 -33 -6 -68
h200q17 0 17 -17v-18q0 -17 -17 -17h-198q11 -120 81 -186q42 -39 102 -39q26 0 60.5 16.5t48.5 40.5q-6 13 -6 24q0 20 15.5 35t38.5 15q22 0 38 -15t16 -35q0 -19 -14 -35.5t-35 -19.5q-55 -83 -162 -83q-64 0 -117 36q-108 73 -122 246h-46q-17 0 -17 17v18q0 17 17 17
h44q0 35 6 68h-50q-17 0 -17 17v18q0 17 17 17z" />
    <glyph glyph-name="Omega" unicode="&#x2126;" horiz-adv-x="590" 
d="M19 413h61l3 11q24 93 105.5 172.5t160.5 79.5q100 0 151 -81q8 -7 21 -21q10 -14 10 -30q0 -18 -12.5 -30t-28.5 -12q-19 0 -31.5 16.5t-8.5 43.5q-9 25 -42 42q-29 14 -57 14q-46 0 -101 -44q-81 -65 -112 -161h181q17 0 17 -17v-18q0 -17 -17 -17h-194q-6 -33 -6 -68
h200q17 0 17 -17v-18q0 -17 -17 -17h-198q11 -120 81 -186q42 -39 102 -39q26 0 60.5 16.5t48.5 40.5q-6 13 -6 24q0 20 15.5 35t38.5 15q22 0 38 -15t16 -35q0 -19 -14 -35.5t-35 -19.5q-55 -83 -162 -83q-64 0 -117 36q-108 73 -122 246h-46q-17 0 -17 17v18q0 17 17 17
h44q0 35 6 68h-50q-17 0 -17 17v18q0 17 17 17z" />
    <glyph glyph-name="radical" unicode="&#x221a;" horiz-adv-x="20" 
 />
    <glyph glyph-name="approxequal" unicode="&#x2248;" horiz-adv-x="20" 
 />
    <glyph glyph-name="approxequal" unicode="&#x22f2;" horiz-adv-x="20" 
 />
    <glyph glyph-name="Delta" unicode="&#x394;" horiz-adv-x="20" 
 />
    <glyph glyph-name="Delta" unicode="&#x2206;" horiz-adv-x="20" 
 />
    <glyph glyph-name="lozenge" unicode="&#x25ca;" horiz-adv-x="285" 
d="M131 520l99 -140q3 -3 3 -6t-3 -6l-99 -140q-2 -3 -6 -3q-5 0 -7 3l-99 140q-2 3 -2 6t2 6l99 140q2 3 7 3q4 0 6 -3z" />
    <glyph glyph-name="fraction" unicode="&#x2044;" horiz-adv-x="22" 
 />
    <glyph glyph-name="fi" unicode="&#xf001;" horiz-adv-x="34" 
 />
    <glyph glyph-name="fl" unicode="&#xf002;" horiz-adv-x="34" 
 />
    <glyph glyph-name="apple" unicode="&#xf000;" horiz-adv-x="22" 
 />
    <glyph glyph-name="dotlessi" unicode="&#x131;" horiz-adv-x="174" 
d="M104 366q0 -10 -8.5 -23t-8.5 -25q-1 -40 -5.5 -119t-4.5 -76q0 -2 5 -17t5 -17q0 -18 -13 -27.5t-27 -9.5q-38 0 -38 38q0 9 4.5 16.5t6.5 12.5q0 2 3 41q9 127 9 164q0 18 -3 25.5t-3 17.5q0 38 38 38q18 0 29 -11.5t11 -27.5z" />
    <glyph glyph-name="breve" unicode="&#x2d8;" horiz-adv-x="322" 
d="M252 784q0 -35 -30 -58.5t-69 -23.5t-69 23.5t-30 58.5q0 20 20 20t20 -20q0 -15 16.5 -28.5t42.5 -13.5q27 0 43 13.5t16 28.5q0 20 20 20t20 -20z" />
    <glyph glyph-name="dotaccent" unicode="&#x2d9;" horiz-adv-x="250" 
d="M123 843q29 0 51 -17.5t22 -44.5t-22 -44.5t-51 -17.5q-28 0 -50 17.5t-22 44.5t22 44.5t50 17.5z" />
    <glyph glyph-name="ring" unicode="&#x2da;" horiz-adv-x="241" 
d="M113 873q29 0 51 -17.5t22 -44.5t-22 -44.5t-51 -17.5q-28 0 -50 17.5t-22 44.5t22 44.5t50 17.5zM113 838q-17 0 -27 -8.5t-10 -18.5t10 -18.5t27 -8.5q18 0 28 8.5t10 18.5t-10 18.5t-28 8.5z" />
    <glyph glyph-name="hungarumlaut" unicode="&#x2dd;" horiz-adv-x="319" 
d="M212 812l-81 -107q29 -2 35 0q2 2 58.5 55.5t56.5 51.5q0 -3 -69 0zM112 812l-81 -107q29 -2 35 0q2 2 58.5 55.5t56.5 51.5q0 -3 -69 0z" />
    <glyph glyph-name="ogonek" unicode="&#x2db;" horiz-adv-x="302" 
d="M234 -150q-26 -63 -79 -63q-42 0 -73 38t-31 86q0 67 55 114q5 5 11 5q18 0 18 -18q0 -8 -6 -13q-32 -27 -32 -83q0 -82 52 -82q41 0 53 29q5 11 16 11q18 0 18 -17q0 -3 -2 -7z" />
    <glyph glyph-name="caron" unicode="&#x2c7;" horiz-adv-x="311" 
d="M239 770q5 3 8 6v0q-61 -43 -100 -75l-108 81q-7 5 -7 12q0 17 20 17q6 0 12 -4l80 -49q10 9 48 29t47 20q18 0 18 -18q0 -19 -18 -19z" />
    </font>
</defs>
</svg>
