<svg xmlns="http://www.w3.org/2000/svg"
    width="130" height="130" viewBox="0 0 650 650" >
    <rect x="0" y="0" width="650" height="650" fill="blue" stroke="blue" />
    <path d="M 620.45 325.00 L620.45 325.00 L620.38 322.05 L620.16 319.10 L619.79 316.15 L619.27 313.22 L618.61 310.31 L617.80 307.41 L616.85 304.54 L615.75 301.69 L614.50 298.87 L613.12 296.09 L611.59 293.35 L609.92 290.64 L608.12 287.99 L606.17 285.38 L604.09 282.82 L601.87 280.32 L599.53 277.88 L597.05 275.50 L594.44 273.18 L591.71 270.94 L588.85 268.76 L585.87 266.66 L582.77 264.64 L579.56 262.71 L576.23 260.85 L572.78 259.08 L569.23 257.41 L565.58 255.82 L561.82 254.33 L557.96 252.94 L554.00 251.64 L549.95 250.45 L545.81 249.37 L541.59 248.39 L537.28 247.51 L532.89 246.75 L528.42 246.10 L523.88 245.57 L519.27 245.14 L514.60 244.84 L509.86 244.65 L505.07 244.59 L500.22 244.64 L495.32 244.82 L490.37 245.12 L485.39 245.54 L480.36 246.08 L475.30 246.75 L470.21 247.55 L465.09 248.47 L459.95 249.51 L454.80 250.68 L449.62 251.98 L444.44 253.40 L439.25 254.95 L434.06 256.62 L428.87 258.42 L423.69 260.34 L418.52 262.38 L413.36 264.55 L408.22 266.84 L403.10 269.24 L398.01 271.77 L392.95 274.41 L387.92 277.17 L382.93 280.04 L377.98 283.03 L373.07 286.13 L368.21 289.33 L363.41 292.65 L358.66 296.07 L353.97 299.59 L349.34 303.21 L344.78 306.94 L340.29 310.75 L335.87 314.67 L331.53 318.67 L327.27 322.76 L323.09 326.93 L318.99 331.19 L314.98 335.53 L311.06 339.94 L307.24 344.42 L303.51 348.98 L299.88 353.60 L296.35 358.28 L292.92 363.03 L289.59 367.83 L286.38 372.68 L283.27 377.58 L280.28 382.53 L277.39 387.52 L274.63 392.54 L271.97 397.61 L269.44 402.70 L267.02 407.81 L264.73 412.95 L262.55 418.11 L260.50 423.28 L258.57 428.46 L256.76 433.65 L255.08 438.84 L253.52 444.03 L252.09 449.21 L250.78 454.38 L249.60 459.54 L248.55 464.68 L247.62 469.80 L246.81 474.90 L246.13 479.96 L245.58 484.99 L245.14 489.98 L244.84 494.93 L244.65 499.83 L244.59 504.68 L244.64 509.48 L244.82 514.22 L245.12 518.90 L245.53 523.51 L246.05 528.06 L246.70 532.53 L247.45 536.93 L248.31 541.25 L249.28 545.48 L250.36 549.63 L251.55 553.68 L252.83 557.65 L254.22 561.51 L255.70 565.28 L257.28 568.95 L258.95 572.50 L260.71 575.96 L262.56 579.29 L264.49 582.52 L266.50 585.63 L268.59 588.62 L270.76 591.48 L273.00 594.23 L275.31 596.84 L277.68 599.33 L280.12 601.69 L282.62 603.92 L285.17 606.01 L287.78 607.97 L290.43 609.78 L293.13 611.46 L295.87 613.00 L298.65 614.40 L301.46 615.65 L304.31 616.77 L307.18 617.73 L310.08 618.55 L312.99 619.23 L315.92 619.75 L318.86 620.14 L321.81 620.37 L324.76 620.45 L327.72 620.39 L330.67 620.18 L333.61 619.82 L336.54 619.32 L339.46 618.67 L342.36 617.87 L345.23 616.93 L348.08 615.84 L350.90 614.61 L353.69 613.23 L356.44 611.72 L359.14 610.06 L361.80 608.26 L364.42 606.33 L366.98 604.26 L369.48 602.06 L371.93 599.72 L374.32 597.25 L376.64 594.65 L378.89 591.93 L381.07 589.08 L383.17 586.11 L385.20 583.02 L387.14 579.82 L389.00 576.49 L390.78 573.06 L392.46 569.52 L394.06 565.87 L395.55 562.12 L396.96 558.27 L398.26 554.32 L399.46 550.28 L400.55 546.15 L401.54 541.93 L402.42 537.62 L403.19 533.24 L403.85 528.78 L404.40 524.24 L404.83 519.64 L405.14 514.97 L405.34 510.24 L405.41 505.45 L405.37 500.61 L405.20 495.71 L404.91 490.77 L404.50 485.79 L403.97 480.76 L403.31 475.70 L402.52 470.62 L401.61 465.50 L400.58 460.36 L399.41 455.21 L398.13 450.04 L396.71 444.85 L395.18 439.67 L393.51 434.48 L391.73 429.29 L389.82 424.10 L387.78 418.93 L385.63 413.77 L383.35 408.63 L380.95 403.51 L378.44 398.41 L375.80 393.35 L373.05 388.32 L370.19 383.32 L367.21 378.37 L364.12 373.46 L360.92 368.60 L357.62 363.79 L354.21 359.04 L350.69 354.34 L347.08 349.71 L343.36 345.14 L339.55 340.65 L335.65 336.22 L331.66 331.87 L327.57 327.60 L323.40 323.42 L319.15 319.31 L314.82 315.30 L310.42 311.37 L305.94 307.54 L301.39 303.80 L296.77 300.16 L292.09 296.62 L287.35 293.19 L282.56 289.86 L277.71 286.63 L272.81 283.52 L267.87 280.51 L262.88 277.62 L257.86 274.84 L252.80 272.18 L247.71 269.64 L242.60 267.21 L237.46 264.91 L232.30 262.72 L227.13 260.66 L221.95 258.72 L216.76 256.90 L211.57 255.21 L206.38 253.64 L201.20 252.20 L196.03 250.88 L190.87 249.69 L185.72 248.63 L180.60 247.68 L175.51 246.87 L170.44 246.18 L165.41 245.62 L160.42 245.17 L155.47 244.86 L150.56 244.66 L145.70 244.59 L140.90 244.64 L136.15 244.80 L131.47 245.09 L126.85 245.49 L122.30 246.01 L117.82 246.64 L113.42 247.38 L109.09 248.24 L104.85 249.20 L100.70 250.27 L96.64 251.45 L92.67 252.72 L88.79 254.10 L85.02 255.58 L81.34 257.15 L77.77 258.81 L74.32 260.56 L70.97 262.41 L67.73 264.33 L64.62 266.34 L61.62 268.42 L58.74 270.58 L55.99 272.82 L53.36 275.12 L50.86 277.49 L48.49 279.93 L46.25 282.42 L44.15 284.97 L42.19 287.57 L40.36 290.22 L38.67 292.91 L37.12 295.65 L35.71 298.43 L34.44 301.24 L33.32 304.08 L32.34 306.95 L31.51 309.84 L30.82 312.76 L30.28 315.69 L29.89 318.63 L29.64 321.58 L29.55 324.53 L29.60 327.48 L29.80 330.43 L30.14 333.38 L30.63 336.31 L31.27 339.23 L32.06 342.13 L32.99 345.01 L34.07 347.86 L35.29 350.68 L36.65 353.47 L38.16 356.22 L39.80 358.93 L41.59 361.59 L43.51 364.21 L45.57 366.78 L47.76 369.29 L50.09 371.74 L52.55 374.13 L55.14 376.45 L57.85 378.71 L60.69 380.90 L63.65 383.01 L66.73 385.04 L69.92 386.99 L73.24 388.86 L76.66 390.64 L80.19 392.33 L83.83 393.93 L87.58 395.44 L91.42 396.85 L95.36 398.16 L99.40 399.36 L103.52 400.47 L107.74 401.47 L112.03 402.36 L116.41 403.13 L120.86 403.80 L125.39 404.36 L129.99 404.80 L134.66 405.12 L139.38 405.32 L144.17 405.41 L149.01 405.38 L153.90 405.22 L158.84 404.94 L163.82 404.54 L168.84 404.01 L173.89 403.36 L178.98 402.59 L184.09 401.69 L189.23 400.66 L194.38 399.51 L199.55 398.23 L204.73 396.83 L209.92 395.30 L215.11 393.65 L220.30 391.87 L225.48 389.97 L230.66 387.95 L235.82 385.80 L240.96 383.54 L246.08 381.15 L251.18 378.64 L256.25 376.02 L261.28 373.28 L266.28 370.42 L271.24 367.45 L276.15 364.37 L281.02 361.18 L285.83 357.89 L290.59 354.48 L295.29 350.98 L299.92 347.37 L304.50 343.66 L309.00 339.86 L313.43 335.96 L317.78 331.98 L322.06 327.90 L326.25 323.74 L330.36 319.49 L334.39 315.17 L338.32 310.77 L342.16 306.30 L345.91 301.75 L349.55 297.14 L353.10 292.47 L356.54 287.73 L359.88 282.94 L363.12 278.09 L366.24 273.20 L369.25 268.26 L372.15 263.28 L374.94 258.26 L377.61 253.20 L380.17 248.12 L382.60 243.00 L384.92 237.87 L387.11 232.71 L389.18 227.55 L391.13 222.36 L392.96 217.18 L394.66 211.99 L396.24 206.80 L397.69 201.61 L399.02 196.44 L400.22 191.28 L401.29 186.13 L402.24 181.01 L403.07 175.91 L403.77 170.85 L404.34 165.81 L404.80 160.81 L405.12 155.86 L405.33 150.95 L405.41 146.09 L405.37 141.28 L405.22 136.53 L404.94 131.84 L404.55 127.22 L404.04 122.66 L403.41 118.17 L402.68 113.77 L401.83 109.44 L400.88 105.19 L399.82 101.03 L398.65 96.96 L397.38 92.98 L396.01 89.10 L394.54 85.31 L392.98 81.63 L391.32 78.05 L389.58 74.59 L387.74 71.23 L385.83 67.99 L383.83 64.86 L381.75 61.85 L379.59 58.96 L377.36 56.20 L375.06 53.56 L372.70 51.05 L370.27 48.68 L367.78 46.43 L365.24 44.31 L362.64 42.34 L359.99 40.50 L357.30 38.80 L354.57 37.23 L351.79 35.81 L348.99 34.54 L346.15 33.40 L343.28 32.41 L340.39 31.57 L337.48 30.87 L334.55 30.32 L331.61 29.92 L328.66 29.66 L325.71 29.55 L322.75 29.59 L319.80 29.77 L316.86 30.11 L313.92 30.59 L311.00 31.22 L308.10 31.99 L305.22 32.91 L302.37 33.98 L299.54 35.19 L296.75 36.54 L294.00 38.03 L291.29 39.67 L288.62 41.44 L286.00 43.35 L283.43 45.40 L280.91 47.58 L278.45 49.90 L276.06 52.35 L273.73 54.93 L271.47 57.63 L269.27 60.46 L267.16 63.41 L265.12 66.48 L263.16 69.67 L261.29 72.97 L259.50 76.38 L257.80 79.91 L256.19 83.54 L254.68 87.28 L253.26 91.11 L251.94 95.04 L250.73 99.07 L249.62 103.19 L248.61 107.40 L247.71 111.69 L246.92 116.06 L246.25 120.51 L245.68 125.03 L245.23 129.62 L244.90 134.28 L244.69 139.00 L244.59 143.78 L244.62 148.62 L244.76 153.51 L245.03 158.44 L245.42 163.42 L245.94 168.44 L246.58 173.49 L247.35 178.57 L248.24 183.68 L249.25 188.82 L250.39 193.97 L251.66 199.14 L253.05 204.32 L254.57 209.51 L256.21 214.70 L257.98 219.89 L259.87 225.07 L261.88 230.25 L264.02 235.41 L266.28 240.55 L268.66 245.68 L271.15 250.78 L273.77 255.85 L276.50 260.88 L279.35 265.89 L282.31 270.85 L285.38 275.76 L288.56 280.63 L291.85 285.45 L295.24 290.21 L298.74 294.91 L302.34 299.56 L306.04 304.13 L309.83 308.64 L313.72 313.08 L317.70 317.44 L321.77 321.72 L325.93 325.92 L330.16 330.04 L334.48 334.07 L338.88 338.01 L343.34 341.86 L347.88 345.61 L352.49 349.27 L357.16 352.82 L361.89 356.27 L366.68 359.62 L371.52 362.86 L376.41 366.00 L381.34 369.02 L386.32 371.93 L391.34 374.72 L396.39 377.40 L401.48 379.97 L406.59 382.41 L411.72 384.74 L416.87 386.94 L422.04 389.02 L427.22 390.98 L432.41 392.82 L437.60 394.53 L442.79 396.12 L447.97 397.58 L453.15 398.92 L458.31 400.13 L463.46 401.21 L468.58 402.17 L473.68 403.01 L478.75 403.72 L483.79 404.30 L488.79 404.76 L493.75 405.10 L498.66 405.32 L503.53 405.41 L508.34 405.38 L513.09 405.23 L517.79 404.97 L522.42 404.58 L526.98 404.08 L531.47 403.47 L535.89 402.74 L540.22 401.90 L544.48 400.96 L548.64 399.90 L552.72 398.75 L556.71 397.49 L560.60 396.12 L564.39 394.66 L568.08 393.11 L571.66 391.46 L575.14 389.72 L578.51 387.89 L581.76 385.98 L584.90 383.99 L587.91 381.91 L590.81 379.76 L593.58 377.54 L596.23 375.25 L598.75 372.89 L601.14 370.47 L603.40 367.98 L605.52 365.44 L607.51 362.85 L609.36 360.21 L611.07 357.52 L612.65 354.79 L614.08 352.02 L615.37 349.21 L616.51 346.37 L617.51 343.51 L618.37 340.62 L619.08 337.71 L619.64 334.78 L620.06 331.84 L620.33 328.89 L620.45 325.94 Z"
        fill="none" stroke="white" stroke-width="30"/>
</svg>