<svg xmlns="http://www.w3.org/2000/svg"
    width="39" height="39" viewBox="0 0 650 650" >
    <path d="M 325.00 325.00 L325.00 325.00 L330.91 324.94 L336.81 324.76 L342.71 324.47 L348.59 324.06 L354.46 323.53 L360.31 322.88 L366.13 322.12 L371.92 321.24 L377.68 320.25 L383.40 319.14 L389.09 317.92 L394.73 316.59 L400.31 315.15 L405.85 313.61 L411.33 311.95 L416.75 310.19 L422.11 308.33 L427.40 306.37 L432.62 304.30 L437.76 302.14 L442.83 299.89 L447.81 297.54 L452.71 295.10 L457.52 292.57 L462.24 289.96 L466.87 287.26 L471.40 284.48 L475.83 281.63 L480.16 278.70 L484.38 275.70 L488.49 272.63 L492.49 269.50 L496.37 266.30 L500.14 263.04 L503.80 259.73 L507.33 256.37 L510.74 252.96 L514.03 249.50 L517.18 246.00 L520.22 242.46 L523.12 238.89 L525.89 235.29 L528.52 231.66 L531.03 228.01 L533.40 224.33 L535.63 220.64 L537.73 216.94 L539.68 213.23 L541.50 209.52 L543.18 205.81 L544.72 202.10 L546.12 198.39 L547.38 194.70 L548.50 191.03 L549.48 187.37 L550.32 183.74 L551.02 180.13 L551.58 176.55 L552.00 173.01 L552.28 169.51 L552.42 166.05 L552.43 162.64 L552.30 159.27 L552.03 155.96 L551.64 152.71 L551.10 149.52 L550.44 146.39 L549.65 143.33 L548.73 140.34 L547.69 137.43 L546.52 134.60 L545.23 131.85 L543.82 129.18 L542.29 126.60 L540.64 124.11 L538.88 121.72 L537.01 119.42 L535.03 117.23 L532.95 115.13 L530.76 113.14 L528.47 111.27 L526.08 109.50 L523.60 107.84 L521.03 106.30 L518.37 104.88 L515.62 103.58 L512.80 102.40 L509.89 101.35 L506.91 100.42 L503.85 99.62 L500.73 98.94 L497.55 98.40 L494.30 97.99 L490.99 97.72 L487.63 97.58 L484.22 97.57 L480.77 97.71 L477.27 97.98 L473.73 98.39 L470.16 98.93 L466.55 99.62 L462.92 100.45 L459.26 101.42 L455.59 102.52 L451.90 103.77 L448.20 105.16 L444.49 106.69 L440.78 108.36 L437.06 110.17 L433.35 112.11 L429.65 114.20 L425.96 116.42 L422.29 118.78 L418.63 121.27 L415.00 123.90 L411.39 126.66 L407.82 129.55 L404.28 132.57 L400.78 135.72 L397.32 138.99 L393.90 142.39 L390.53 145.92 L387.22 149.56 L383.96 153.32 L380.76 157.20 L377.62 161.19 L374.54 165.29 L371.54 169.50 L368.60 173.82 L365.74 178.24 L362.96 182.76 L360.26 187.38 L357.64 192.10 L355.10 196.90 L352.65 201.79 L350.30 206.77 L348.03 211.83 L345.87 216.97 L343.79 222.18 L341.82 227.47 L339.95 232.82 L338.18 238.23 L336.52 243.71 L334.97 249.24 L333.52 254.83 L332.18 260.46 L330.95 266.14 L329.84 271.86 L328.84 277.62 L327.95 283.41 L327.18 289.23 L326.52 295.07 L325.98 300.94 L325.56 306.82 L325.26 312.72 L325.07 318.62 L325.00 324.53 L325.05 330.44 L325.22 336.34 L325.50 342.24 L325.91 348.12 L326.43 353.99 L327.07 359.84 L327.82 365.67 L328.69 371.46 L329.67 377.22 L330.77 382.95 L331.98 388.64 L333.30 394.28 L334.73 399.87 L336.27 405.41 L337.91 410.90 L339.66 416.32 L341.52 421.69 L343.47 426.98 L345.53 432.21 L347.68 437.36 L349.93 442.43 L352.27 447.42 L354.71 452.33 L357.23 457.14 L359.83 461.87 L362.52 466.51 L365.29 471.04 L368.14 475.48 L371.06 479.81 L374.06 484.04 L377.12 488.16 L380.25 492.17 L383.44 496.07 L386.69 499.85 L390.00 503.51 L393.36 507.05 L396.77 510.47 L400.22 513.77 L403.72 516.94 L407.25 519.98 L410.82 522.89 L414.42 525.67 L418.05 528.32 L421.70 530.83 L425.37 533.21 L429.06 535.46 L432.76 537.56 L436.47 539.53 L440.18 541.36 L443.90 543.05 L447.61 544.60 L451.31 546.02 L455.00 547.29 L458.68 548.42 L462.34 549.41 L465.97 550.26 L469.58 550.97 L473.16 551.54 L476.71 551.97 L480.21 552.26 L483.67 552.41 L487.09 552.43 L490.46 552.31 L493.77 552.06 L497.03 551.67 L500.23 551.15 L503.36 550.50 L506.43 549.72 L509.42 548.81 L512.34 547.78 L515.18 546.62 L517.94 545.33 L520.61 543.93 L523.20 542.41 L525.69 540.77 L528.10 539.02 L530.40 537.16 L532.60 535.19 L534.71 533.12 L536.70 530.94 L538.59 528.65 L540.37 526.28 L542.03 523.80 L543.58 521.24 L545.01 518.58 L546.32 515.85 L547.51 513.02 L548.58 510.12 L549.51 507.15 L550.33 504.10 L551.01 500.98 L551.56 497.80 L551.98 494.56 L552.26 491.26 L552.42 487.90 L552.43 484.50 L552.31 481.04 L552.05 477.55 L551.65 474.01 L551.12 470.44 L550.44 466.84 L549.62 463.21 L548.67 459.56 L547.57 455.88 L546.33 452.19 L544.95 448.49 L543.44 444.78 L541.78 441.07 L539.98 437.36 L538.05 433.65 L535.97 429.94 L533.76 426.25 L531.41 422.58 L528.93 418.92 L526.32 415.29 L523.57 411.68 L520.69 408.10 L517.68 404.56 L514.54 401.05 L511.27 397.59 L507.88 394.17 L504.37 390.80 L500.73 387.48 L496.98 384.21 L493.11 381.01 L489.13 377.86 L485.04 374.78 L480.83 371.77 L476.53 368.83 L472.11 365.97 L467.60 363.18 L462.99 360.47 L458.28 357.84 L453.48 355.30 L448.60 352.85 L443.63 350.48 L438.57 348.21 L433.44 346.03 L428.24 343.96 L422.96 341.98 L417.61 340.10 L412.20 338.32 L406.73 336.65 L401.20 335.09 L395.62 333.63 L389.99 332.28 L384.31 331.05 L378.60 329.92 L372.84 328.91 L367.05 328.02 L361.23 327.23 L355.39 326.57 L349.53 326.02 L343.65 325.59 L337.75 325.28 L331.85 325.08 L325.94 325.00 L320.03 325.04 L314.13 325.20 L308.23 325.48 L302.34 325.87 L296.47 326.38 L290.62 327.01 L284.80 327.75 L279.00 328.61 L273.23 329.59 L267.50 330.68 L261.81 331.88 L256.17 333.19 L250.57 334.61 L245.03 336.14 L239.54 337.78 L234.11 339.52 L228.74 341.37 L223.44 343.31 L218.21 345.36 L213.05 347.51 L207.97 349.75 L202.98 352.08 L198.06 354.51 L193.24 357.02 L188.50 359.62 L183.86 362.31 L179.31 365.07 L174.87 367.91 L170.53 370.83 L166.29 373.82 L162.16 376.88 L158.14 380.00 L154.24 383.19 L150.45 386.43 L146.78 389.74 L143.22 393.09 L139.80 396.49 L136.49 399.95 L133.31 403.44 L130.26 406.97 L127.34 410.54 L124.55 414.13 L121.89 417.76 L119.36 421.41 L116.97 425.08 L114.72 428.77 L112.60 432.47 L110.62 436.18 L108.78 439.89 L107.08 443.60 L105.51 447.31 L104.09 451.02 L102.81 454.71 L101.67 458.39 L100.67 462.05 L99.81 465.69 L99.09 469.30 L98.50 472.88 L98.06 476.42 L97.76 479.93 L97.59 483.40 L97.56 486.82 L97.67 490.19 L97.92 493.51 L98.29 496.78 L98.80 499.98 L99.44 503.11 L100.21 506.18 L101.11 509.18 L102.14 512.11 L103.29 514.96 L104.56 517.72 L105.95 520.40 L107.46 523.00 L109.09 525.50 L110.83 527.91 L112.69 530.22 L114.65 532.43 L116.72 534.54 L118.89 536.55 L121.16 538.44 L123.53 540.23 L126.00 541.90 L128.55 543.46 L131.20 544.90 L133.93 546.22 L136.75 547.42 L139.64 548.49 L142.61 549.44 L145.65 550.27 L148.77 550.96 L151.94 551.52 L155.18 551.95 L158.48 552.25 L161.83 552.41 L165.23 552.43 L168.68 552.32 L172.17 552.08 L175.71 551.69 L179.27 551.16 L182.87 550.50 L186.50 549.69 L190.15 548.75 L193.82 547.66 L197.51 546.44 L201.21 545.07 L204.92 543.56 L208.63 541.92 L212.35 540.13 L216.06 538.21 L219.76 536.14 L223.45 533.94 L227.13 531.61 L230.79 529.14 L234.42 526.53 L238.03 523.79 L241.61 520.92 L245.16 517.92 L248.67 514.79 L252.14 511.54 L255.56 508.16 L258.93 504.65 L262.26 501.03 L265.53 497.29 L268.74 493.43 L271.89 489.45 L274.97 485.37 L277.99 481.17 L280.94 476.87 L283.81 472.47 L286.60 467.96 L289.32 463.36 L291.95 458.66 L294.50 453.87 L296.96 448.99 L299.33 444.03 L301.61 438.98 L303.80 433.85 L305.88 428.65 L307.87 423.38 L309.76 418.04 L311.54 412.63 L313.22 407.17 L314.79 401.64 L316.26 396.07 L317.61 390.44 L318.86 384.77 L319.99 379.05 L321.01 373.30 L321.92 367.51 L322.71 361.70 L323.38 355.86 L323.94 350.00 L324.38 344.12 L324.70 338.22 L324.91 332.32 L325.00 326.41 L324.97 320.50 L324.82 314.60 L324.55 308.70 L324.17 302.81 L323.66 296.94 L323.04 291.09 L322.31 285.26 L321.46 279.46 L320.49 273.69 L319.41 267.96 L318.22 262.27 L316.92 256.62 L315.51 251.02 L313.99 245.47 L312.36 239.97 L310.62 234.54 L308.78 229.16 L306.84 223.86 L304.80 218.62 L302.67 213.46 L300.43 208.38 L298.11 203.37 L295.69 198.45 L293.18 193.62 L290.59 188.87 L287.91 184.23 L285.15 179.67 L282.32 175.22 L279.41 170.87 L276.42 166.62 L273.37 162.49 L270.25 158.46 L267.07 154.54 L263.83 150.75 L260.53 147.06 L257.18 143.50 L253.78 140.06 L250.33 136.75 L246.84 133.56 L243.31 130.50 L239.75 127.56 L236.15 124.76 L232.53 122.09 L228.88 119.56 L225.21 117.16 L221.53 114.89 L217.83 112.76 L214.12 110.77 L210.41 108.92 L206.69 107.21 L202.98 105.63 L199.28 104.20 L195.58 102.91 L191.90 101.75 L188.24 100.74 L184.60 99.87 L180.99 99.14 L177.41 98.55 L173.86 98.09 L170.34 97.78 L166.87 97.60 L163.45 97.56 L160.07 97.66 L156.75 97.89 L153.48 98.26 L150.28 98.76 L147.13 99.39 L144.06 100.15 L141.05 101.04 L138.12 102.05 L135.27 103.19 L132.50 104.45 L129.81 105.84 L127.21 107.34 L124.70 108.96 L122.28 110.69 L119.96 112.53 L117.74 114.49 L115.62 116.55 L113.61 118.71 L111.70 120.98 L109.91 123.34 L108.23 125.80 L106.66 128.35 L105.21 130.99 L103.88 133.71 L102.67 136.52 L101.59 139.41 L100.63 142.37 L99.79 145.41 L99.09 148.52 L98.52 151.69 L98.08 154.92 L97.77 158.21 L97.60 161.56 L97.56 164.96 L97.66 168.40 L97.90 171.89 L98.28 175.42 L98.79 178.99 L99.44 182.59 L100.24 186.21 L101.17 189.86 L102.25 193.53 L103.46 197.22 L104.82 200.92 L106.31 204.62 L107.95 208.34 L109.72 212.05 L111.64 215.76 L113.69 219.47 L115.88 223.16 L118.20 226.84 L120.66 230.50 L123.26 234.14 L125.99 237.75 L128.85 241.33 L131.84 244.88 L134.95 248.39 L138.20 251.86 L141.57 255.29 L145.06 258.67 L148.68 262.00 L152.41 265.27 L156.26 268.49 L160.23 271.64 L164.30 274.73 L168.49 277.75 L172.78 280.70 L177.18 283.58 L181.68 286.38 L186.27 289.11 L190.96 291.75 L195.75 294.30 L200.62 296.77 L205.58 299.15 L210.62 301.43 L215.74 303.63 L220.93 305.72 L226.20 307.72 L231.53 309.61 L236.93 311.40 L242.40 313.09 L247.92 314.67 L253.49 316.15 L259.11 317.51 L264.78 318.76 L270.49 319.91 L276.24 320.93 L282.02 321.85 L287.84 322.65 L293.68 323.33 L299.54 323.90 L305.42 324.35 L311.31 324.68 L317.21 324.90 L323.12 324.99 Z"
        fill="none" stroke="blue" stroke-width="30"/>
</svg>