<?xml version="1.0" standalone="no"?>
<!DOCTYPE svg PUBLIC "-//W3C//DTD SVG 1.1//EN" "http://www.w3.org/Graphics/SVG/1.1/DTD/svg11.dtd" >
<svg>
<metadata>
Created by FontForge 20120731 at Tue Apr 16 15:28:50 2019
 By www-data
Digitized by Dan X. Solo. Software (c) 2001 by Dover Publications, Inc. New York.
</metadata>
<defs>
<font id="Accord" horiz-adv-x="20" >
  <font-face 
    font-family="Accord"
    font-weight="400"
    font-stretch="normal"
    units-per-em="1000"
    panose-1="0 0 4 0 0 0 0 0 0 0"
    ascent="800"
    descent="-200"
    x-height="517"
    cap-height="509"
    bbox="-60 -280 979 800"
    underline-thickness="20"
    underline-position="-123"
    unicode-range="U+0020-F002"
  />
<missing-glyph horiz-adv-x="500" 
d="M63 0v800h375v-800h-375zM125 63h250v675h-250v-675z" />
    <glyph glyph-name=".notdef" horiz-adv-x="500" 
d="M63 0v800h375v-800h-375zM125 63h250v675h-250v-675z" />
    <glyph glyph-name=".null" horiz-adv-x="0" 
 />
    <glyph glyph-name="glyph2" horiz-adv-x="169" 
 />
    <glyph glyph-name="space" unicode=" " horiz-adv-x="169" 
 />
    <glyph glyph-name="exclam" unicode="!" horiz-adv-x="212" 
d="M142 509q-1 -8 -10 -26q-7 -14 -8 -78l-2 -119q0 -22 -17 -142h-40q-6 43 -17 145q0 36 -4 115q-3 40 -5 52q-7 35 -24 53h127zM86 120q13 -15 27 -31.5t31 -27.5l-64 -64q-7 10 -22 28q-11 7 -36 32z" />
    <glyph glyph-name="quotedbl" unicode="&#x22;" horiz-adv-x="230" 
d="M115 675l78 18q-18 -52 -22 -133q-1 -7 -3 -107h-29q-3 84 -7 115q-4 47 -17 107zM5 675l78 18q-18 -52 -22 -133q-1 -7 -3 -107h-29q-3 84 -7 115q-4 47 -17 107z" />
    <glyph glyph-name="numbersign" unicode="#" horiz-adv-x="422" 
d="M143 209h82l24 129h-81zM40 145l-40 -17l69 78l5 3h31l24 129h-51l-41 -17l70 78l4 3h30l23 127h40l-24 -127h81l23 127h40l-24 -127h57l45 22l-87 -86h-27l-25 -129l66 -1l46 23l-87 -86h-37l-28 -146h-37l27 146h-82l-28 -146h-37l27 146h-53z" />
    <glyph glyph-name="dollar" unicode="$" horiz-adv-x="307" 
d="M119 512h24v-54q60 0 102 -12q11 -3 11 -19q0 -17 -11 -34.5t-25 -17.5q-6 0 -12 5q-30 57 -87 57q-49 0 -49 -38q0 -37 48 -62q44 -21 89 -41q48 -27 48 -69q0 -43 -36 -72q-30 -25 -78 -35v-57h-24v54q-9 -1 -18 -1q-73 0 -94 24q-16 17 -8 42q11 35 35 37
q14 -36 44.5 -58.5t67.5 -22.5q52 0 52 51q0 41 -51 67q-47 21 -94 41q-49 27 -46 71q2 38 38 63q30 20 74 26v55z" />
    <glyph glyph-name="percent" unicode="%" horiz-adv-x="739" 
d="M265 -1h-37l185 510h40zM689 162q0 -40 -32 -88t-65.5 -64.5t-73.5 -16.5q-55 0 -97 42q-45 43 -45 109q0 32 11 65q37 110 155 110q58 0 99 -38q48 -44 48 -119zM633 130q0 116 -77 154q-28 14 -48 14q-38 0 -60.5 -27t-22.5 -74q0 -45 12 -74q20 -46 58 -75
q34 -26 63 -26q75 0 75 108zM309 362q0 -40 -32 -88t-65.5 -64.5t-73.5 -16.5q-55 0 -97 42q-45 43 -45 109q0 32 11 65q37 110 155 110q58 0 99 -38q48 -44 48 -119zM253 330q0 116 -77 154q-28 14 -48 14q-38 0 -60.5 -27t-22.5 -74q0 -45 12 -74q20 -46 58 -75
q34 -26 63 -26q75 0 75 108z" />
    <glyph glyph-name="ampersand" unicode="&#x26;" horiz-adv-x="553" 
d="M453 113q9 -106 -157 -121q-27 -2 -56 -2q-225 0 -236 126q-6 61 57 105q45 32 107 46q-44 12 -79 48t-37 63q-6 69 48 108q39 28 93 33q39 3 65 3q166 0 176 -119q2 -26 -14 -50t-45 -26q-51 -5 -86 11q46 23 46 57q0 47 -29.5 77t-75.5 26q-42 -4 -65.5 -36t-19.5 -74
q4 -51 24 -77q14 -19 41 -28q20 -5 40 -11q-22 -7 -44 -13q-46 -14 -70 -40q-35 -38 -30 -103q5 -57 53 -83q38 -21 85 -17q117 11 109 102q-3 32 -17 46q-20 15 -39 30h-38l-41 -17l69 77l5 3h175l46 23l-87 -86h-27q49 -21 54 -81z" />
    <glyph glyph-name="quotesingle" unicode="'" horiz-adv-x="127" 
d="M5 675l78 18q-18 -52 -22 -133q-1 -7 -3 -107h-29q-3 84 -7 115q-4 47 -17 107z" />
    <glyph glyph-name="parenleft" unicode="(" horiz-adv-x="245" 
d="M164 21l33 -73l-94 92q-92 163 -92 324q0 150 82 255l100 76l-39 -61q-83 -167 -83 -286q0 -124 93 -327z" />
    <glyph glyph-name="parenright" unicode=")" horiz-adv-x="245" 
d="M45 21l-34 -73l95 92q91 163 91 324q0 150 -81 255l-101 76l40 -61q83 -167 83 -286q0 -124 -93 -327z" />
    <glyph glyph-name="asterisk" unicode="*" horiz-adv-x="403" 
d="M207 358l17 -40l-61 74v75l-89 -52l-28 -42l42 101l51 29l-84 49l-51 4l108 13l52 -29v97l-23 46l66 -87v-54l87 50l26 36l-34 -90l-60 -35l92 -53l43 -5l-94 -16l-60 35v-106z" />
    <glyph glyph-name="plus" unicode="+" horiz-adv-x="498" 
d="M266 48l13 -29l-56 50l-3 3l1 155h-183l-29 -13l50 57l3 2h159v179l-17 33l62 -63v-149h176l33 16l-63 -62h-146v-179z" />
    <glyph glyph-name="comma" unicode="," horiz-adv-x="181" 
d="M70 129q5 -13 14 -22q6 -9 25 -31q18 -17 18 -18q-1 -2 -2 -3l-58 -58q-13 -13 -20 -27.5t-16 -23.5l-17 12l22 31q6 12 15 27v0q-2 6 -18 26q-13 9 -28 23z" />
    <glyph glyph-name="hyphen" unicode="-" horiz-adv-x="305" 
d="M30 217l-41 -17l70 78l4 3h175l46 22l-87 -86h-167z" />
    <glyph glyph-name="hyphen" unicode="&#x2010;" horiz-adv-x="305" 
d="M30 217l-41 -17l70 78l4 3h175l46 22l-87 -86h-167z" />
    <glyph glyph-name="period" unicode="." horiz-adv-x="184" 
d="M67 118q13 -16 27 -32t32 -27l-65 -64q-7 10 -22 28q-11 7 -36 31z" />
    <glyph glyph-name="slash" unicode="/" horiz-adv-x="332" 
d="M33 -1h-37l245 676h40z" />
    <glyph glyph-name="zero" unicode="0" horiz-adv-x="680" 
d="M625 266q0 -66 -63.5 -146.5t-133.5 -108.5q-64 -26 -145 -26q-110 0 -194 68q-89 74 -89 182q0 55 22 109q39 99 139 147q76 36 169 36q117 0 200 -63q95 -73 95 -198zM513 213q0 77 -30 139q-40 83 -124 117q-57 23 -95 23q-77 0 -122 -45t-45 -123q0 -75 25 -123
q39 -77 115 -126q68 -43 127 -43q76 0 115 53q34 47 34 128z" />
    <glyph glyph-name="one" unicode="1" horiz-adv-x="406" 
d="M271 528q-25 -47 -23 -146q2 -125 0 -382h-95q3 223 -1 321q-1 38 -1 77q-5 45 -33 75q-5 2 -14 16q64 -3 167 39z" />
    <glyph glyph-name="two" unicode="2" horiz-adv-x="533" 
d="M419 -1h-397q13 74 23 100q17 42 57 72q12 8 103 63q71 44 101 75q26 29 26 74q0 50 -38 86q-35 32 -74 32q-42 0 -72 -28.5t-30 -65.5q0 -21 4 -29q7 -13 34 -28q-44 -18 -85 -18q-56 0 -56 66q0 124 207 124q74 0 130 -24q79 -35 80 -108q0 -58 -73 -107
q-21 -13 -130 -65q-125 -60 -125 -170q0 -11 2 -19q114 1 183 0q63 -1 93 19q19 13 29.5 40.5t20.5 32.5z" />
    <glyph glyph-name="three" unicode="3" horiz-adv-x="500" 
d="M449 116q-11 -126 -237 -126q-29 0 -56 2q-166 15 -157 121q8 91 108 91q26 0 52 -7l-42 -32q-15 -14 -18 -47q-8 -91 109 -102q47 -4 85 17q48 26 53 83q5 66 -40 102q-32 27 -93 39q-37 7 -74 13q98 10 119 21q43 21 49 97q4 42 -19.5 74t-65.5 36q-46 4 -75.5 -26
t-29.5 -77q0 -34 46 -57q-35 -16 -86 -11q-29 2 -45 26t-14 50q10 119 176 119q26 0 65 -3q54 -5 93 -33q54 -39 48 -108q-2 -27 -35 -62q-37 -37 -81 -49q62 -14 107 -46q63 -44 58 -105z" />
    <glyph glyph-name="four" unicode="4" horiz-adv-x="564" 
d="M555 189q-39 -47 -60 -62q-26 -18 -71 -23q-6 0 -14 -3l-1 -106q-31 3 -50 3q-48 0 -111 -20q0 5 17 20t21 21q15 23 16 54v27l-212 19q-45 0 -88 -12q48 50 71 79q86 108 263 324h74q-6 -249 -2 -347q67 -3 95 4q1 1 52 22zM304 161q0 -2 2 76q1 69 1 110q-2 60 -8 71
q-68 -102 -186 -236q60 5 191 -21z" />
    <glyph glyph-name="five" unicode="5" horiz-adv-x="523" 
d="M478 191q0 -107 -88 -164q-74 -47 -166 -41q-65 4 -121 35q-68 38 -102 107q41 5 86 32q9 -32 19 -65q13 -40 37 -60q33 -28 97 -29q55 0 95.5 57t40.5 125q0 62 -38 99q-43 43 -126 39q-61 -2 -110 -36l-76 -56q8 83 30 277l327 -1q2 0 60 7q-36 -37 -55 -103
q-30 48 -51 62q-15 11 -182 8l-32 -162q45 22 61 27q28 9 78 9q80 0 140 -35q76 -44 76 -132z" />
    <glyph glyph-name="six" unicode="6" horiz-adv-x="638" 
d="M583 206q0 -95 -84 -156q-76 -55 -176 -58q-310 -11 -310 270q0 135 102 204q87 59 228 59q121 0 193 -26q-42 -49 -49 -84q-18 50 -55 69q-31 15 -88 15q-90 0 -149 -38q-67 -42 -79 -126q89 65 247 65q84 0 150 -55q70 -58 70 -139zM477 208q0 63 -57.5 113t-121.5 50
q-68 0 -122 -29q-67 -34 -67 -94q0 -94 46 -158q51 -71 141 -71q79 0 130 54.5t51 134.5z" />
    <glyph glyph-name="seven" unicode="7" horiz-adv-x="555" 
d="M533 510q0 -3 -3 -8q-101 -48 -195 -191.5t-94 -246.5q0 -23 13 -41q11 -13 23 -26h-164q48 173 83 247q68 141 195 240h-220q-5 0 -15 1h-16q-35 0 -35 -28q0 -14 12 -27q16 -14 33 -28q-69 -20 -97 -18q-50 3 -50 66q0 32 39 50q29 12 63 12z" />
    <glyph glyph-name="eight" unicode="8" horiz-adv-x="584" 
d="M538 154q0 -88 -102 -135q-78 -36 -172 -36q-87 0 -161 36q-98 47 -98 135q0 60 51 95q18 12 73 33q-23 13 -38 29q-38 39 -39 83q0 65 91 100q67 25 124 23q57 2 128 -23q96 -35 96 -100q-1 -66 -77 -112q55 -21 73 -33q51 -35 51 -95zM389 396q0 33 -31 63
q-36 34 -90 34q-54 -1 -87 -35q-27 -28 -27 -62q0 -36 35 -69.5t75 -33.5h15q40 0 75 33.5t35 69.5zM433 159q0 59 -61 87q-44 20 -101 20q-58 0 -101 -20q-61 -28 -61 -87q0 -67 53 -111q46 -37 104 -40q59 3 109 40q58 44 58 111z" />
    <glyph glyph-name="nine" unicode="9" horiz-adv-x="624" 
d="M3 305q0 95 84 157q77 57 176 57q310 0 310 -270q0 -136 -102 -205q-87 -58 -228 -58q-121 0 -193 26q42 49 49 83q18 -49 55 -68q31 -15 88 -15q90 0 149 37q67 43 79 126q-89 -64 -247 -64q-84 0 -150 54q-70 58 -70 140zM109 303q0 -63 57.5 -113t121.5 -50
q68 0 122 28q67 35 67 95q0 94 -46 157q-51 72 -141 72q-79 0 -130 -55t-51 -134z" />
    <glyph glyph-name="colon" unicode=":" horiz-adv-x="184" 
d="M67 418q13 -16 27 -32t32 -27l-65 -64q-7 10 -22 28q-11 7 -36 31zM67 118q13 -16 27 -32t32 -27l-65 -64q-7 10 -22 28q-11 7 -36 31z" />
    <glyph glyph-name="semicolon" unicode=";" horiz-adv-x="184" 
d="M67 418q13 -16 27 -32t32 -27l-65 -64q-7 10 -22 28q-11 7 -36 31zM70 129q5 -13 14 -22q6 -9 25 -31q18 -17 18 -18q-1 -2 -2 -3l-58 -58q-13 -13 -20 -27.5t-16 -23.5l-17 12l22 31q6 12 15 27v0q-2 6 -18 26q-13 9 -28 23z" />
    <glyph glyph-name="less" unicode="&#x3c;" horiz-adv-x="247" 
d="M205 121l-32 -32l-173 173l171 171l32 -33l-138 -139z" />
    <glyph glyph-name="equal" unicode="=" horiz-adv-x="437" 
d="M40 287l-41 -17l70 78l4 3l265 -1l56 23l-80 -85zM40 167l-41 -17l70 78l10 2l269 1l46 22l-87 -86h-267z" />
    <glyph glyph-name="greater" unicode="&#x3e;" horiz-adv-x="247" 
d="M0 401l32 32l173 -173l-171 -171l-32 33l139 138z" />
    <glyph glyph-name="question" unicode="?" horiz-adv-x="489" 
d="M306 309q26 29 26 74q0 50 -38 86q-35 32 -74 32q-42 0 -72 -28.5t-30 -65.5q0 -21 4 -29q7 -13 34 -28q-44 -18 -85 -18q-56 0 -56 66q0 124 207 124q74 0 130 -24q79 -35 80 -108q0 -58 -60 -98q-9 -6 -116 -58q-36 -17 -49 -73h-32q-2 4 -2 9q0 26 30 61q36 43 103 78
zM197 118q13 -16 27 -32t32 -27l-65 -64q-7 10 -22 28q-11 7 -36 31z" />
    <glyph glyph-name="at" unicode="@" horiz-adv-x="688" 
d="M389 148q-42 -69 -114 -69q-46 0 -76 31q-34 33 -34 90q0 85 59 147q55 58 118 58q60 0 83 -58l13 43h88l-46 -161q-16 -56 -16 -72q0 -15 6 -22q12 -13 35 -8q47 8 76 70q25 51 25 105q0 98 -74 155q-67 51 -165 51q-55 0 -105 -18q-95 -34 -150 -134q-33 -60 -33 -143
q0 -119 74.5 -187.5t193.5 -68.5q110 0 222 69l18 -30q-123 -79 -264 -79q-135 0 -223 87q-84 81 -90 199q-7 123 74 221q48 58 127 90q76 31 159 31q115 0 191 -58q84 -65 84 -181q0 -106 -59 -171q-50 -57 -114 -57q-72 0 -83 70zM258 174q-1 -50 41 -50q12 0 24 5
q28 13 54 75q24 57 26 93q1 40 -16 52q-13 10 -26 10q-39 0 -73 -77q-29 -64 -30 -108z" />
    <glyph glyph-name="A" unicode="A" horiz-adv-x="675" 
d="M632 -2h-155l-140 239q-129 -78 -321 -247h-20q31 48 68 141q40 100 64 141q9 15 66 64l54 48q0 26 -38.5 67.5t-67.5 48.5v10q31 4 73 3q72 -3 81 -3q30 -19 95 -139q61 -111 121 -222q73 -124 120 -151zM331 253q-23 38 -68 113q-64 -77 -138 -255z" />
    <glyph glyph-name="B" unicode="B" horiz-adv-x="526" 
d="M476 139q0 -66 -84 -108q-70 -36 -143 -36q-62 0 -194 11l8 264q2 68 -9 129q-16 90 -57 92q157 24 248 24q53 0 94 -31q46 -34 46 -86q0 -68 -68 -118q31 -8 63 -16q43 -14 65 -38q31 -32 31 -87zM294 336q0 51 -36 100q-39 53 -91 53h-26v-211q23 1 56 0h54q27 0 36 15
q7 12 7 43zM374 90q0 62 -53.5 117t-115.5 55q-71 0 -64 -1q-1 -15 -3 -83q-2 -51 -2 -83q0 -44 52 -66q39 -17 91 -17q37 0 66 21t29 57z" />
    <glyph glyph-name="C" unicode="C" horiz-adv-x="510" 
d="M467 483q-16 -43 -50 -128q-28 108 -189 112q-143 5 -143 -141q0 -107 73.5 -183t179.5 -76q41 0 125 31l2 -3q-109 -99 -215 -99q-119 0 -191 99q-61 83 -60 182q2 118 118 185q94 55 211 55q29 0 73 -9q55 -11 66 -25z" />
    <glyph glyph-name="D" unicode="D" horiz-adv-x="602" 
d="M546 305q0 -115 -101.5 -210.5t-216.5 -95.5q-97 0 -164 69.5t-67 167.5q0 133 93 206q86 69 222 67l2 5q-75 63 -118 84q-51 25 -140 36q17 14 57.5 29t61.5 15q125 0 248 -123.5t123 -249.5zM443 231q0 99 -40 169q-49 84 -141 84q-80 0 -129 -47t-49 -127
q0 -99 71.5 -172.5t170.5 -73.5q117 0 117 167z" />
    <glyph glyph-name="E" unicode="E" horiz-adv-x="531" 
d="M475 503q-27 -42 -40 -115q-20 37 -77 57q-45 15 -98 15q-144 0 -172 -151q10 0 22 -3q57 -16 147 -22q128 -8 153 -12q-30 -12 -53 -17q-72 -17 -126 -20q-29 -3 -58 -5q-40 -2 -70 5q-1 -1 2 -2t3 -5q0 -25 46 -72q38 -38 65 -54q58 -35 132 -34q43 1 118 22
q-59 -52 -106 -73t-106 -21q-73 0 -133 37q-70 43 -106 128q-12 30 -12 85q0 14 7 46t14 45q49 91 158 138q86 38 175 38z" />
    <glyph glyph-name="F" unicode="F" horiz-adv-x="460" 
d="M401 477q0 -25 -23 -96q-8 94 -197 94q-58 0 -52 -17l-1 -320q0 3 -2 -20q-2 -13 3 -17q63 -1 114 -1q92 0 155 11q-50 -40 -93 -102q0 29 -4 36q-7 11 -39 19q-26 6 -46 6h-87l-16 -92q-22 -98 -90 -166h-19q26 67 39 255v296l-6 72q-6 44 -38 64l243 12q58 1 109 4
q42 2 41 2h31z" />
    <glyph glyph-name="G" unicode="G" horiz-adv-x="587" 
d="M524 481q0 -2 -14 -26q-16 -28 -20 -37q-8 -19 -17 -53q-14 58 -116 87q-71 21 -142 21q-70 0 -106 -57q-28 -45 -28 -105q0 -113 86 -191q81 -75 189 -75q42 0 76 15q28 13 88 55q-20 -85 -57 -136q-20 -27 -130 -108q49 91 79 156q-8 1 -23 -8q-19 -13 -25 -15
q-40 -14 -115 -14q-104 0 -169 56q-37 33 -59 95q-19 53 -19 105q0 129 99 207q88 69 210 69q84 0 153 -16q60 -14 60 -25z" />
    <glyph glyph-name="H" unicode="H" horiz-adv-x="539" 
d="M488 261q0 -104 -41 -190q-52 -110 -163 -165q107 99 107 277q0 93 -31 165q-43 100 -133 100q-25 0 -59 -19q-40 -23 -58 -56q-4 -8 -3 -40q1 -56 1 -50q-1 -48 -1 -77q0 -104 4 -141q0 -5 3.5 -21.5t3.5 -19.5v-18q-62 -16 -107 -37l16 245v320q0 85 -31 115l115 20
v-243q116 86 196 86q92 0 142 -91q39 -71 39 -160z" />
    <glyph glyph-name="I" unicode="I" horiz-adv-x="212" 
d="M138 509q-3 -52 -8 -52q-1 0 -2 1q-4 0 -4 -53v-321q0 -35 4 -82q-66 -38 -104 -70q19 53 24 157q-1 87 1 226q1 43 -7 101q-10 75 -27 93h123z" />
    <glyph glyph-name="J" unicode="J" horiz-adv-x="203" 
d="M138 460q0 -17 -3 -46q-4 -36 -4 -46q-3 -41 -3 -98v-38.5v-38.5q0 -133 -23 -205q-34 -102 -134 -174q70 125 70 221v411q0 5 -9 25t-14 25l120 12v-48z" />
    <glyph glyph-name="K" unicode="K" horiz-adv-x="574" 
d="M565 0q-14 -1 -61 -8q-39 -5 -62 -5q-41 0 -114 66q-61 59 -121 119q-64 61 -83 56l-5 -22v-117q0 -30 15 -75l-104 -35l11 285v214q0 41 -7 75q-12 56 -38 52q89 23 134 22l-8 -175v-191l5 -5q40 16 131 99q96 88 96 120l-12 21l61 2l70 -2l-237 -195q24 -47 150.5 -162
t178.5 -139z" />
    <glyph glyph-name="L" unicode="L" horiz-adv-x="440" 
d="M423 50q-98 -66 -198 -66q-42 0 -108 7q-54 6 -108 11q28 47 28 298q0 50 -1 110l-1 56q0 38 -9 78q-12 49 -31 71q50 2 124 18l-4 -544q0 -16 68 -29q54 -10 86 -10h154z" />
    <glyph glyph-name="M" unicode="M" horiz-adv-x="936" 
d="M879 278q0 -91 -56 -182q-54 -86 -134 -138q86 146 86 271q0 89 -57 152.5t-146 63.5q-26 0 -46 -15.5t-20 -40.5v-294q5 -2 5 -20q0 -14 -5 -41l-98 -38l11 171q1 25 1 49q0 263 -181 263q-142 0 -142 -165q0 -112 77.5 -190.5t189.5 -73.5q-74 -51 -146 -51
q-93 0 -156 75q-60 72 -60 166q0 127 98 209q93 77 222 77q52 0 101 -23t79 -64l82 44q47 23 91 23q88 0 148 -72q56 -67 56 -156z" />
    <glyph glyph-name="N" unicode="N" horiz-adv-x="615" 
d="M559 515q0 -3 -3.5 -18.5t-4.5 -22.5q-13 -117 -13 -198l-30 -302q-81 51 -190 158l-182 184l-2 -187q-9 -88 -15 -118q-14 -68 -48 -128l10 161v235q0 45 -24 105q-28 70 -64 75q18 6 76 29q50 20 52 20q5 0 7 -4.5t3 -8.5q75 -109 179 -222q115 -124 182 -158
q3 113 2 164q-7 64 -14 127q-14 70 -69 80l148 45v-16z" />
    <glyph glyph-name="O" unicode="O" horiz-adv-x="677" 
d="M625 266q0 -66 -63.5 -146.5t-133.5 -108.5q-64 -26 -145 -26q-110 0 -194 68q-89 74 -89 182q0 55 22 109q39 99 139 147q76 36 169 36q117 0 200 -63q95 -73 95 -198zM513 213q0 77 -30 139q-40 83 -124 117q-57 23 -95 23q-77 0 -122 -45t-45 -123q0 -75 25 -123
q39 -77 115 -126q68 -43 127 -43q76 0 115 53q34 47 34 128z" />
    <glyph glyph-name="P" unicode="P" horiz-adv-x="648" 
d="M565 293q6 -127 -74 -207q-77 -76 -203 -83q-22 -1 -49 10q-31 12 -40 30q44 -13 87 -10q82 4 130 74q44 64 39 148q-5 91 -61 147.5t-146 52.5q-15 -1 -45 -19q-26 -15 -41 -29q-22 -20 -22 -177q0 -63 10 -256q2 -45 -34 -89q-34 -35 -68 -71h-10q23 68 28 174
q1 32 1 179v202q0 31 -16 58q-19 30 -47 34q17 12 64 27q35 11 69 22q3 -22 7 -67l6 -2q74 63 161 67q103 6 175.5 -53.5t78.5 -161.5z" />
    <glyph glyph-name="Q" unicode="Q" horiz-adv-x="619" 
d="M558 474q-30 -40 -30 -350q0 -63 1 -150q1 -79 1 -89q-45 -29 -87 -82q4 34 4 99v164q-53 -37 -94 -52q-47 -16 -114 -16q-110 0 -176 77q-62 73 -62 185q0 124 104 197q93 65 223 65q48 0 116 -18zM443 429q-33 23 -83 42q-54 20 -89 20q-81 0 -130 -40
q-54 -44 -54 -124q0 -110 73.5 -186t183.5 -76q66 0 86 28q16 22 16 92q0 172 -3 244z" />
    <glyph glyph-name="R" unicode="R" horiz-adv-x="499" 
d="M477 15q-63 -25 -103 -25q-51 0 -108 49q-22 19 -86 90q-42 47 -59 44q-4 -4 -3 -38v-43q-13 -104 -116 -198q37 94 37 270q0 23 -1 66.5t-1 63.5v105q-4 75 -30 89q65 17 116 35l1 -50l17 4q28 12 56.5 22t62.5 8q62 -4 105 -46.5t43 -102.5q0 -74 -56 -121
q-20 -16 -92 -52q66 -75 97 -103q64 -57 120 -67zM302 312q0 56 -34 102q-38 51 -91 51q-15 0 -56 -18q-1 -19 0 -176v-73l75 -6q43 -4 76 38q30 39 30 82z" />
    <glyph glyph-name="S" unicode="S" horiz-adv-x="449" 
d="M405 163q0 -82 -89 -132q-75 -42 -164 -42q-91 0 -155 27v9q0 10 9.5 27.5t11.5 23.5q6 25 18 74q22 -55 74.5 -90.5t111.5 -35.5q39 0 64.5 21t25.5 59q0 63 -80 104q-73 33 -145 65q-78 42 -73 110q4 73 92 111q66 29 144 29q68 0 129 -15q-13 -21 -23 -58
q-9 -31 -17 -62q-23 45 -62 74q-43 32 -89 32q-37 0 -53 -12q-20 -13 -20 -50q0 -58 75 -97q70 -33 140 -65q75 -42 75 -107z" />
    <glyph glyph-name="T" unicode="T" horiz-adv-x="581" 
d="M580 516q-32 -28 -91 -56q-66 -30 -103 -30q-16 0 -61 8v-301v-22q-1 -16 -1 -24q0 -69 46 -91q-10 0 -43 2q-26 2 -41 2q-40 0 -69 -10q9 33 18 67q3 16 9 67l-1 241q0 57 -4 69q-3 8 -38 13h-77q-74 0 -128 -20q-1 7 10 17q77 75 175 75l274 -25q20 -1 62 7
q54 10 63 11z" />
    <glyph glyph-name="U" unicode="U" horiz-adv-x="632" 
d="M609 5q-40 1 -83 -2q-46 -3 -37 -3l-42 -6v40q1 28 1 43q-118 -87 -212 -87q-112 0 -177 73q-60 68 -60 171q0 53 20 110q26 70 74 117q12 12 15 24q-5 8 -23 9h-26q-10 1 -11 7q67 5 181 11q-64 -24 -106 -94q-38 -64 -38 -128q0 -93 63 -161q68 -74 176 -75
q62 -1 97 30.5t35 86.5l-1 240q0 19 -14 50q-14 35 -31 47h78q15 3 51 9l-1 -422q0 -27 20.5 -53t50.5 -37z" />
    <glyph glyph-name="V" unicode="V" horiz-adv-x="642" 
d="M619 505q0 -18 -88 -185l-90 -180q-54 -104 -100 -162q2 0 -10 15q-85 148 -169 295q-96 163 -153 215l134 33l242 -434q4 4 12 23q104 248 104 324q0 34 -38 52q88 7 160 24q2 -1 -1 -8.5t-3 -11.5z" />
    <glyph glyph-name="W" unicode="W" horiz-adv-x="934" 
d="M862 511q-21 -46 -105 -271q-62 -168 -121 -261l-220 388q-89 -167 -211 -385l-78 270q-60 189 -117 235q116 35 136 33l112 -402q18 31 73 151q58 127 58 144q0 38 -65 71q16 4 144 28q100 -216 204 -400q22 19 47 151q22 118 22 169q0 35 -27 61z" />
    <glyph glyph-name="X" unicode="X" horiz-adv-x="653" 
d="M601 -5q-28 1 -93 -8q-82 9 -137 77q-53 77 -106 155q-75 -80 -151 -161q-92 -91 -174 -134q121 123 297 335q-45 77 -90 155q-70 104 -126 105q32 10 113 10q45 0 79 -32q23 -21 54 -73q34 -56 52 -75q62 53 124 107q85 66 140 73q-15 -44 -36 -133q-34 39 -60 39
q-36 0 -81 -49q-9 -9 -62 -78q5 -43 107 -169q104 -129 150 -144z" />
    <glyph glyph-name="Y" unicode="Y" horiz-adv-x="705" 
d="M664 541q-66 -75 -156 -280q-126 -287 -151 -335q-91 -171 -181 -206q40 57 79 115q53 84 53 121q0 63 -118 267q-120 208 -177 231l-1 7l132 63q74 -143 219 -430l6 3q35 82 69 165q48 112 92 173q61 84 134 106z" />
    <glyph glyph-name="Z" unicode="Z" horiz-adv-x="541" 
d="M467 507l-329 -468q42 -4 95 -4q42 0 115 3q83 3 113 4q-20 -12 -46 -39.5t-36 -33.5q2 26 -187 31q-92 1 -184 1q163 195 323 467q-171 0 -331 1v11l69 98q11 -46 35 -60q20 -11 75 -11h288z" />
    <glyph glyph-name="bracketleft" unicode="[" horiz-adv-x="806" 
d="M415 -82l37 -81l-105 101l1 644l111 84l-44 -67v-681z" />
    <glyph glyph-name="backslash" unicode="\" horiz-adv-x="332" 
d="M244 -1h37l-245 676h-40z" />
    <glyph glyph-name="bracketright" unicode="]" horiz-adv-x="806" 
d="M391 -82l-37 -81l105 101v644l-112 84l44 -67v-681z" />
    <glyph glyph-name="asciicircum" unicode="^" horiz-adv-x="632" 
d="M313 610l-147 -69l-5 9l137 125l139 -125l-9 -6z" />
    <glyph glyph-name="underscore" unicode="_" horiz-adv-x="515" 
d="M-7 -89h525v-46h-525v46z" />
    <glyph glyph-name="grave" unicode="`" horiz-adv-x="304" 
d="M102 663l139 -113q-6 -6 -9 -6q-2 0 -197 90z" />
    <glyph glyph-name="a" unicode="a" horiz-adv-x="675" 
d="M632 -2h-155l-140 239q-129 -78 -321 -247h-20q31 48 68 141q40 100 64 141q9 15 66 64l54 48q0 26 -38.5 67.5t-67.5 48.5v10q31 4 73 3q72 -3 81 -3q30 -19 95 -139q61 -111 121 -222q73 -124 120 -151zM331 253q-23 38 -68 113q-64 -77 -138 -255z" />
    <glyph glyph-name="b" unicode="b" horiz-adv-x="526" 
d="M476 139q0 -66 -84 -108q-70 -36 -143 -36q-62 0 -194 11l8 264q2 68 -9 129q-16 90 -57 92q157 24 248 24q53 0 94 -31q46 -34 46 -86q0 -68 -68 -118q31 -8 63 -16q43 -14 65 -38q31 -32 31 -87zM294 336q0 51 -36 100q-39 53 -91 53h-26v-211q23 1 56 0h54q27 0 36 15
q7 12 7 43zM374 90q0 62 -53.5 117t-115.5 55q-71 0 -64 -1q-1 -15 -3 -83q-2 -51 -2 -83q0 -44 52 -66q39 -17 91 -17q37 0 66 21t29 57z" />
    <glyph glyph-name="c" unicode="c" horiz-adv-x="510" 
d="M467 483q-16 -43 -50 -128q-28 108 -189 112q-143 5 -143 -141q0 -107 73.5 -183t179.5 -76q41 0 125 31l2 -3q-109 -99 -215 -99q-119 0 -191 99q-61 83 -60 182q2 118 118 185q94 55 211 55q29 0 73 -9q55 -11 66 -25z" />
    <glyph glyph-name="d" unicode="d" horiz-adv-x="602" 
d="M546 305q0 -115 -101.5 -210.5t-216.5 -95.5q-97 0 -164 69.5t-67 167.5q0 133 93 206q86 69 222 67l2 5q-75 63 -118 84q-51 25 -140 36q17 14 57.5 29t61.5 15q125 0 248 -123.5t123 -249.5zM443 231q0 99 -40 169q-49 84 -141 84q-80 0 -129 -47t-49 -127
q0 -99 71.5 -172.5t170.5 -73.5q117 0 117 167z" />
    <glyph glyph-name="e" unicode="e" horiz-adv-x="531" 
d="M475 503q-27 -42 -40 -115q-20 37 -77 57q-45 15 -98 15q-144 0 -172 -151q10 0 22 -3q57 -16 147 -22q128 -8 153 -12q-30 -12 -53 -17q-72 -17 -126 -20q-29 -3 -58 -5q-40 -2 -70 5q-1 -1 2 -2t3 -5q0 -25 46 -72q38 -38 65 -54q58 -35 132 -34q43 1 118 22
q-59 -52 -106 -73t-106 -21q-73 0 -133 37q-70 43 -106 128q-12 30 -12 85q0 14 7 46t14 45q49 91 158 138q86 38 175 38z" />
    <glyph glyph-name="f" unicode="f" horiz-adv-x="460" 
d="M401 477q0 -25 -23 -96q-8 94 -197 94q-58 0 -52 -17l-1 -320q0 3 -2 -20q-2 -13 3 -17q63 -1 114 -1q92 0 155 11q-50 -40 -93 -102q0 29 -4 36q-7 11 -39 19q-26 6 -46 6h-87l-16 -92q-22 -98 -90 -166h-19q26 67 39 255v296l-6 72q-6 44 -38 64l243 12q58 1 109 4
q42 2 41 2h31z" />
    <glyph glyph-name="g" unicode="g" horiz-adv-x="587" 
d="M524 481q0 -2 -14 -26q-16 -28 -20 -37q-8 -19 -17 -53q-14 58 -116 87q-71 21 -142 21q-70 0 -106 -57q-28 -45 -28 -105q0 -113 86 -191q81 -75 189 -75q42 0 76 15q28 13 88 55q-20 -85 -57 -136q-20 -27 -130 -108q49 91 79 156q-8 1 -23 -8q-19 -13 -25 -15
q-40 -14 -115 -14q-104 0 -169 56q-37 33 -59 95q-19 53 -19 105q0 129 99 207q88 69 210 69q84 0 153 -16q60 -14 60 -25z" />
    <glyph glyph-name="h" unicode="h" horiz-adv-x="539" 
d="M488 261q0 -104 -41 -190q-52 -110 -163 -165q107 99 107 277q0 93 -31 165q-43 100 -133 100q-25 0 -59 -19q-40 -23 -58 -56q-4 -8 -3 -40q1 -56 1 -50q-1 -48 -1 -77q0 -104 4 -141q0 -5 3.5 -21.5t3.5 -19.5v-18q-62 -16 -107 -37l16 245v320q0 85 -31 115l115 20
v-243q116 86 196 86q92 0 142 -91q39 -71 39 -160z" />
    <glyph glyph-name="i" unicode="i" horiz-adv-x="212" 
d="M138 509q-3 -52 -8 -52q-1 0 -2 1q-4 0 -4 -53v-321q0 -35 4 -82q-66 -38 -104 -70q19 53 24 157q-1 87 1 226q1 43 -7 101q-10 75 -27 93h123z" />
    <glyph glyph-name="j" unicode="j" horiz-adv-x="203" 
d="M138 460q0 -17 -3 -46q-4 -36 -4 -46q-3 -41 -3 -98v-38.5v-38.5q0 -133 -23 -205q-34 -102 -134 -174q70 125 70 221v411q0 5 -9 25t-14 25l120 12v-48z" />
    <glyph glyph-name="k" unicode="k" horiz-adv-x="574" 
d="M565 0q-14 -1 -61 -8q-39 -5 -62 -5q-41 0 -114 66q-61 59 -121 119q-64 61 -83 56l-5 -22v-117q0 -30 15 -75l-104 -35l11 285v214q0 41 -7 75q-12 56 -38 52q89 23 134 22l-8 -175v-191l5 -5q40 16 131 99q96 88 96 120l-12 21l61 2l70 -2l-237 -195q24 -47 150.5 -162
t178.5 -139z" />
    <glyph glyph-name="l" unicode="l" horiz-adv-x="440" 
d="M423 50q-98 -66 -198 -66q-42 0 -108 7q-54 6 -108 11q28 47 28 298q0 50 -1 110l-1 56q0 38 -9 78q-12 49 -31 71q50 2 124 18l-4 -544q0 -16 68 -29q54 -10 86 -10h154z" />
    <glyph glyph-name="m" unicode="m" horiz-adv-x="936" 
d="M879 278q0 -91 -56 -182q-54 -86 -134 -138q86 146 86 271q0 89 -57 152.5t-146 63.5q-26 0 -46 -15.5t-20 -40.5v-294q5 -2 5 -20q0 -14 -5 -41l-98 -38l11 171q1 25 1 49q0 263 -181 263q-142 0 -142 -165q0 -112 77.5 -190.5t189.5 -73.5q-74 -51 -146 -51
q-93 0 -156 75q-60 72 -60 166q0 127 98 209q93 77 222 77q52 0 101 -23t79 -64l82 44q47 23 91 23q88 0 148 -72q56 -67 56 -156z" />
    <glyph glyph-name="n" unicode="n" horiz-adv-x="615" 
d="M559 515q0 -3 -3.5 -18.5t-4.5 -22.5q-13 -117 -13 -198l-30 -302q-81 51 -190 158l-182 184l-2 -187q-9 -88 -15 -118q-14 -68 -48 -128l10 161v235q0 45 -24 105q-28 70 -64 75q18 6 76 29q50 20 52 20q5 0 7 -4.5t3 -8.5q75 -109 179 -222q115 -124 182 -158
q3 113 2 164q-7 64 -14 127q-14 70 -69 80l148 45v-16z" />
    <glyph glyph-name="o" unicode="o" horiz-adv-x="677" 
d="M625 266q0 -66 -63.5 -146.5t-133.5 -108.5q-64 -26 -145 -26q-110 0 -194 68q-89 74 -89 182q0 55 22 109q39 99 139 147q76 36 169 36q117 0 200 -63q95 -73 95 -198zM513 213q0 77 -30 139q-40 83 -124 117q-57 23 -95 23q-77 0 -122 -45t-45 -123q0 -75 25 -123
q39 -77 115 -126q68 -43 127 -43q76 0 115 53q34 47 34 128z" />
    <glyph glyph-name="p" unicode="p" horiz-adv-x="648" 
d="M565 293q6 -127 -74 -207q-77 -76 -203 -83q-22 -1 -49 10q-31 12 -40 30q44 -13 87 -10q82 4 130 74q44 64 39 148q-5 91 -61 147.5t-146 52.5q-15 -1 -45 -19q-26 -15 -41 -29q-22 -20 -22 -177q0 -63 10 -256q2 -45 -34 -89q-34 -35 -68 -71h-10q23 68 28 174
q1 32 1 179v202q0 31 -16 58q-19 30 -47 34q17 12 64 27q35 11 69 22q3 -22 7 -67l6 -2q74 63 161 67q103 6 175.5 -53.5t78.5 -161.5z" />
    <glyph glyph-name="q" unicode="q" horiz-adv-x="619" 
d="M558 474q-30 -40 -30 -350q0 -63 1 -150q1 -79 1 -89q-45 -29 -87 -82q4 34 4 99v164q-53 -37 -94 -52q-47 -16 -114 -16q-110 0 -176 77q-62 73 -62 185q0 124 104 197q93 65 223 65q48 0 116 -18zM443 429q-33 23 -83 42q-54 20 -89 20q-81 0 -130 -40
q-54 -44 -54 -124q0 -110 73.5 -186t183.5 -76q66 0 86 28q16 22 16 92q0 172 -3 244z" />
    <glyph glyph-name="r" unicode="r" horiz-adv-x="499" 
d="M477 15q-63 -25 -103 -25q-51 0 -108 49q-22 19 -86 90q-42 47 -59 44q-4 -4 -3 -38v-43q-13 -104 -116 -198q37 94 37 270q0 23 -1 66.5t-1 63.5v105q-4 75 -30 89q65 17 116 35l1 -50l17 4q28 12 56.5 22t62.5 8q62 -4 105 -46.5t43 -102.5q0 -74 -56 -121
q-20 -16 -92 -52q66 -75 97 -103q64 -57 120 -67zM302 312q0 56 -34 102q-38 51 -91 51q-15 0 -56 -18q-1 -19 0 -176v-73l75 -6q43 -4 76 38q30 39 30 82z" />
    <glyph glyph-name="s" unicode="s" horiz-adv-x="449" 
d="M405 163q0 -82 -89 -132q-75 -42 -164 -42q-91 0 -155 27v9q0 10 9.5 27.5t11.5 23.5q6 25 18 74q22 -55 74.5 -90.5t111.5 -35.5q39 0 64.5 21t25.5 59q0 63 -80 104q-73 33 -145 65q-78 42 -73 110q4 73 92 111q66 29 144 29q68 0 129 -15q-13 -21 -23 -58
q-9 -31 -17 -62q-23 45 -62 74q-43 32 -89 32q-37 0 -53 -12q-20 -13 -20 -50q0 -58 75 -97q70 -33 140 -65q75 -42 75 -107z" />
    <glyph glyph-name="t" unicode="t" horiz-adv-x="581" 
d="M580 516q-32 -28 -91 -56q-66 -30 -103 -30q-16 0 -61 8v-301v-22q-1 -16 -1 -24q0 -69 46 -91q-10 0 -43 2q-26 2 -41 2q-40 0 -69 -10q9 33 18 67q3 16 9 67l-1 241q0 57 -4 69q-3 8 -38 13h-77q-74 0 -128 -20q-1 7 10 17q78 75 175 75l274 -25q20 -1 62 7
q54 10 63 11z" />
    <glyph glyph-name="u" unicode="u" horiz-adv-x="632" 
d="M609 5q-40 1 -83 -2q-46 -3 -37 -3l-42 -6v40q1 28 1 43q-118 -87 -212 -87q-112 0 -177 73q-60 68 -60 171q0 53 20 110q26 70 74 117q12 12 15 24q-5 8 -23 9h-26q-10 1 -11 7q67 5 181 11q-64 -24 -106 -94q-38 -64 -38 -128q0 -93 63 -161q68 -74 176 -75
q62 -1 97 30.5t35 86.5l-1 240q0 19 -14 50q-14 35 -31 47h78q15 3 51 9l-1 -422q0 -27 20.5 -53t50.5 -37z" />
    <glyph glyph-name="v" unicode="v" horiz-adv-x="642" 
d="M619 505q0 -18 -88 -185l-90 -180q-54 -104 -100 -162q2 0 -10 15q-85 148 -169 295q-96 163 -153 215l134 33l242 -434q4 4 12 23q104 248 104 324q0 34 -38 52q88 7 160 24q2 -1 -1 -8.5t-3 -11.5z" />
    <glyph glyph-name="w" unicode="w" horiz-adv-x="934" 
d="M862 511q-21 -46 -105 -271q-62 -168 -121 -261l-220 388q-89 -167 -211 -385l-78 270q-60 189 -117 235q116 35 136 33l112 -402q18 31 73 151q58 127 58 144q0 38 -65 71q16 4 144 28q100 -216 204 -400q22 19 47 151q22 118 22 169q0 35 -27 61z" />
    <glyph glyph-name="x" unicode="x" horiz-adv-x="653" 
d="M601 -5q-28 1 -93 -8q-82 9 -137 77q-53 77 -106 155q-75 -80 -151 -161q-92 -91 -174 -134q121 123 297 335q-45 77 -90 155q-70 104 -126 105q32 10 113 10q45 0 79 -32q23 -21 54 -73q34 -56 52 -75q62 53 124 107q85 66 140 73q-15 -44 -36 -133q-34 39 -60 39
q-36 0 -81 -49q-9 -9 -62 -78q5 -43 107 -169q104 -129 150 -144z" />
    <glyph glyph-name="y" unicode="y" horiz-adv-x="705" 
d="M664 541q-66 -75 -156 -280q-126 -287 -151 -335q-91 -171 -181 -206q40 57 79 115q53 84 53 121q0 63 -118 267q-120 208 -177 231l-1 7l132 63q74 -143 219 -430l6 3q35 82 69 165q48 112 92 173q61 84 134 106z" />
    <glyph glyph-name="z" unicode="z" horiz-adv-x="541" 
d="M467 507l-329 -468q42 -4 95 -4q42 0 115 3q83 3 113 4q-20 -12 -46 -39.5t-36 -33.5q2 26 -187 31q-92 1 -184 1q163 195 323 467q-171 0 -331 1v11l69 98q11 -46 35 -60q20 -11 75 -11h288z" />
    <glyph glyph-name="braceleft" unicode="{" horiz-adv-x="552" 
d="M498 281q0 -15 -12 -35q-8 36 -25 36q-14 0 -19 -25q-8 -37 -14 -46q-15 -26 -52 -26q-29 0 -52 24q-19 -24 -19 -65q0 -30 71 -64q-17 22 -17 46q0 15 12 26.5t26 11.5q30 0 30 -23q0 -6 -6.5 -15t-11.5 -9q-9 0 -12 9t-5 17q-16 1 -16 -20q0 -29 22 -44q12 -8 49 -19
q33 -10 46 -22q0 -6 -7 -13.5t-14 -7.5q-10 0 -47.5 17.5t-56.5 17.5q-38 0 -38 -28q0 -18 17 -17q1 23 13 24q12 -2 18 -16q0 -10 -10.5 -18t-20.5 -8q-35 0 -35 36q0 28 37 39q-13 11 -25.5 21.5t-28.5 10.5q-29 0 -57 -18q-31 -21 -31 -47q0 -40 30 -40l14 7l-1 9h-18
l-4 12q4 14 21 17q26 0 26 -28q0 -12 -13 -22t-26 -10q-21 0 -34 17.5t-13 39.5q0 34 33 57q29 20 64 20l9 5q-22 22 -43 44q-20 17 -55 25q0 -31 -19.5 -53t-49.5 -22q-15 0 -41 9.5t-32 9.5q-23 0 -23 -17t4 -23l-2 -1q-7 0 -15.5 26t-8.5 36q0 38 30.5 71.5t68.5 33.5
t60 -24q10 -13 19 -25q16 -3 50 -17l11 -4q-11 21 -19 59q-13 57 -15 62q-14 0 -30 -10t-16 -23q0 -15 20 -20l-5 11l11 10q14 0 14 -18q0 -20 -19 -20q-35 0 -35 38q0 40 57 45q-55 18 -55 68q0 29 13 54t13 42q0 20 -23 36l-40 22q89 -21 119 -38q57 -34 57 -107
q0 -56 -63 -81q32 -17 37 -23q12 -13 12 -47q0 -20 -21 -66q3 -2 27 -28q6 32 20 69q-4 23 -4 34q0 37 38 65q35 27 73 27q37 1 60 -16.5t23 -47.5zM268 240q0 26 -6.5 38.5t-29.5 21.5q3 -11 8 -29q1 -6 2 -15q4 -26 15 -51q11 10 11 35z" />
    <glyph glyph-name="bar" unicode="|" horiz-adv-x="169" 
d="M48 675h35v-675h-35v675z" />
    <glyph glyph-name="braceright" unicode="}" horiz-adv-x="552" 
d="M10 281q0 -15 12 -35q9 36 25 36q14 0 19 -25q8 -37 14 -46q15 -26 52 -26q29 0 52 24q19 -24 19 -65q0 -30 -71 -64q17 22 17 46q0 15 -11.5 26.5t-26.5 11.5q-30 0 -30 -23q0 -6 6.5 -15t11.5 -9q9 0 12 9t5 17q16 1 16 -20q0 -29 -22 -44q-12 -8 -49 -19
q-33 -10 -46 -22q0 -6 7 -13.5t14 -7.5q10 0 47.5 17.5t56.5 17.5q38 0 38 -28q0 -18 -17 -17q-1 23 -13 24q-12 -2 -18 -16q0 -10 10.5 -18t20.5 -8q35 0 35 36q0 28 -36 39q12 11 24.5 21.5t29.5 10.5q28 0 56 -18q31 -21 31 -47q0 -40 -30 -40l-14 7l1 9h18l4 12
q-4 14 -21 17q-26 0 -26 -28q0 -12 13 -22t26 -10q21 0 34.5 17.5t13.5 39.5q0 34 -33 57q-30 20 -65 20l-8 5l42 44q20 17 55 25q0 -31 19.5 -53t49.5 -22q15 0 41 9.5t32 9.5q23 0 23 -17t-4 -23l2 -1q7 0 15.5 26t8.5 36q0 38 -30.5 71.5t-67.5 33.5q-39 0 -61 -24
q-10 -13 -19 -25q-16 -3 -50 -17l-11 -4q11 21 20 59q12 57 14 62q14 0 30 -10t16 -23q0 -15 -19 -20l4 11l-10 10q-15 0 -15 -18q0 -20 19 -20q35 0 35 38q0 40 -57 45q55 18 55 68q0 29 -13 54t-13 42q0 20 23 36q20 11 41 22q-90 -21 -119 -38q-58 -34 -58 -107
q0 -56 63 -81q-32 -17 -37 -23q-12 -13 -12 -47q0 -20 21 -66q-3 -2 -27 -28q-6 32 -20 69q4 23 4 34q0 37 -36.5 64.5t-74.5 27.5q-37 1 -60 -16.5t-23 -47.5zM241 240q0 26 6.5 38.5t28.5 21.5q-3 -11 -8 -29q-1 -6 -2 -15q-4 -26 -15 -51q-10 10 -10 35z" />
    <glyph glyph-name="asciitilde" unicode="~" horiz-adv-x="426" 
d="M137 597q-72 0 -72 -22h-12q0 28 33 52q30 24 60 24q29 0 51.5 -16t43.5 -16q51 0 48 0q20 2 39 23h14q0 -27 -35.5 -52.5t-65.5 -25.5q-24 0 -50 16.5t-54 16.5z" />
    <glyph glyph-name="Adieresis" unicode="&#xc4;" horiz-adv-x="675" 
d="M632 -2h-155l-140 239q-129 -78 -321 -247h-20q31 48 68 141q40 100 64 141q9 15 66 64l54 48q0 26 -38.5 67.5t-67.5 48.5v10q31 4 73 3q72 -3 81 -3q30 -19 95 -139q61 -111 121 -222q73 -124 120 -151zM331 253q-23 38 -68 113q-64 -77 -138 -255zM329 656
q14 -19 52 -52l-57 -57q-6 9 -20 24q-9 7 -31 29zM157 660q14 -18 51 -52l-56 -56q-6 8 -20 24q-9 7 -31 28z" />
    <glyph glyph-name="Aring" unicode="&#xc5;" horiz-adv-x="675" 
d="M632 -2h-155l-140 239q-129 -78 -321 -247h-20q31 48 68 141q40 100 64 141q9 15 66 64l54 48q0 26 -38.5 67.5t-67.5 48.5v10q31 4 73 3q72 -3 81 -3q30 -19 95 -139q61 -111 121 -222q73 -124 120 -151zM331 253q-23 38 -68 113q-64 -77 -138 -255zM229 697
q30 0 51 -21.5t21 -50.5q0 -30 -21 -51.5t-51 -21.5t-51 21.5t-21 51.5q0 29 21 50.5t51 21.5zM229 662q-15 0 -26 -11t-11 -26q0 -16 11 -27t26 -11q16 0 26.5 11t10.5 27q0 15 -10.5 26t-26.5 11z" />
    <glyph glyph-name="Ccedilla" unicode="&#xc7;" horiz-adv-x="510" 
d="M250 -4v-35q20 4 36 4q77 0 77 -71q0 -32 -26 -51.5t-69 -19.5q-13 0 -27 2t-33 13q-24 14 -29 29l7 12q24 -17 65 -17q43 0 43 34q0 36 -40 36q-9 0 -40 7q5 17 12 58q-108 10 -173 106q-55 81 -54 174q2 118 118 185q94 55 211 55q29 0 73 -9q55 -11 66 -25
q-16 -43 -50 -128q-28 108 -189 112q-143 5 -143 -141q0 -107 73.5 -183t179.5 -76q41 0 125 31l2 -3q-109 -99 -215 -99z" />
    <glyph glyph-name="Eacute" unicode="&#xc9;" horiz-adv-x="531" 
d="M475 503q-27 -42 -40 -115q-20 37 -77 57q-45 15 -98 15q-144 0 -172 -151q10 0 22 -3q57 -16 147 -22q128 -8 153 -12q-30 -12 -53 -17q-72 -17 -126 -20q-29 -3 -58 -5q-40 -2 -70 5q-1 -1 2 -2t3 -5q0 -25 46 -72q38 -38 65 -54q58 -35 132 -34q43 1 118 22
q-59 -52 -106 -73t-106 -21q-73 0 -133 37q-70 43 -106 128q-12 30 -12 85q0 14 7 46t14 45q49 91 158 138q86 38 175 38zM383 653l-139 -113q6 -6 9 -6q2 0 197 90z" />
    <glyph glyph-name="Ntilde" unicode="&#xd1;" horiz-adv-x="615" 
d="M559 515q0 -3 -3.5 -18.5t-4.5 -22.5q-13 -117 -13 -198l-30 -302q-81 51 -190 158l-182 184l-2 -187q-9 -88 -15 -118q-14 -68 -48 -128l10 161v235q0 45 -24 105q-28 70 -64 75q18 6 76 29q50 20 52 20q5 0 7 -4.5t3 -8.5q75 -109 179 -222q115 -124 182 -158
q3 113 2 164q-7 64 -14 127q-14 70 -69 80l148 45v-16zM237 597q-72 0 -72 -22h-12q0 28 33 52q30 24 60 24q29 0 51.5 -16t43.5 -16q51 0 48 0q20 2 39 23h14q0 -27 -35.5 -52.5t-65.5 -25.5q-24 0 -50 16.5t-54 16.5z" />
    <glyph glyph-name="Odieresis" unicode="&#xd6;" horiz-adv-x="677" 
d="M625 266q0 -66 -63.5 -146.5t-133.5 -108.5q-64 -26 -145 -26q-110 0 -194 68q-89 74 -89 182q0 55 22 109q39 99 139 147q76 36 169 36q117 0 200 -63q95 -73 95 -198zM513 213q0 77 -30 139q-40 83 -124 117q-57 23 -95 23q-77 0 -122 -45t-45 -123q0 -75 25 -123
q39 -77 115 -126q68 -43 127 -43q76 0 115 53q34 47 34 128zM399 656q14 -19 52 -52l-57 -57q-6 9 -20 24q-9 7 -31 29zM227 660q14 -18 51 -52l-56 -56q-6 8 -20 24q-9 7 -31 28z" />
    <glyph glyph-name="Udieresis" unicode="&#xdc;" horiz-adv-x="632" 
d="M609 5q-40 1 -83 -2q-46 -3 -37 -3l-42 -6v40q1 28 1 43q-118 -87 -212 -87q-112 0 -177 73q-60 68 -60 171q0 53 20 110q26 70 74 117q12 12 15 24q-5 8 -23 9h-26q-10 1 -11 7q67 5 181 11q-64 -24 -106 -94q-38 -64 -38 -128q0 -93 63 -161q68 -74 176 -75
q62 -1 97 30.5t35 86.5l-1 240q0 19 -14 50q-14 35 -31 47h78q15 3 51 9l-1 -422q0 -27 20.5 -53t50.5 -37zM379 656q14 -19 52 -52l-57 -57q-6 9 -20 24q-9 7 -31 29zM207 660q14 -18 51 -52l-56 -56q-6 8 -20 24q-9 7 -31 28z" />
    <glyph glyph-name="aacute" unicode="&#xe1;" horiz-adv-x="675" 
d="M632 -2h-155l-140 239q-129 -78 -321 -247h-20q31 48 68 141q40 100 64 141q9 15 66 64l54 48q0 26 -38.5 67.5t-67.5 48.5v10q31 4 73 3q72 -3 81 -3q30 -19 95 -139q61 -111 121 -222q73 -124 120 -151zM331 253q-23 38 -68 113q-64 -77 -138 -255zM283 663l-139 -113
q6 -6 9 -6q2 0 197 90z" />
    <glyph glyph-name="agrave" unicode="&#xe0;" horiz-adv-x="675" 
d="M632 -2h-155l-140 239q-129 -78 -321 -247h-20q31 48 68 141q40 100 64 141q9 15 66 64l54 48q0 26 -38.5 67.5t-67.5 48.5v10q31 4 73 3q72 -3 81 -3q30 -19 95 -139q61 -111 121 -222q73 -124 120 -151zM331 253q-23 38 -68 113q-64 -77 -138 -255zM162 663l139 -113
q-6 -6 -9 -6q-2 0 -197 90z" />
    <glyph glyph-name="acircumflex" unicode="&#xe2;" horiz-adv-x="675" 
d="M632 -2h-155l-140 239q-129 -78 -321 -247h-20q31 48 68 141q40 100 64 141q9 15 66 64l54 48q0 26 -38.5 67.5t-67.5 48.5v10q31 4 73 3q72 -3 81 -3q30 -19 95 -139q61 -111 121 -222q73 -124 120 -151zM331 253q-23 38 -68 113q-64 -77 -138 -255zM243 600l-147 -69
l-5 9l137 125l139 -125l-9 -6z" />
    <glyph glyph-name="adieresis" unicode="&#xe4;" horiz-adv-x="675" 
d="M632 -2h-155l-140 239q-129 -78 -321 -247h-20q31 48 68 141q40 100 64 141q9 15 66 64l54 48q0 26 -38.5 67.5t-67.5 48.5v10q31 4 73 3q72 -3 81 -3q30 -19 95 -139q61 -111 121 -222q73 -124 120 -151zM331 253q-23 38 -68 113q-64 -77 -138 -255zM329 656
q14 -19 52 -52l-57 -57q-6 9 -20 24q-9 7 -31 29zM157 660q14 -18 51 -52l-56 -56q-6 8 -20 24q-9 7 -31 28z" />
    <glyph glyph-name="atilde" unicode="&#xe3;" horiz-adv-x="675" 
d="M632 -2h-155l-140 239q-129 -78 -321 -247h-20q31 48 68 141q40 100 64 141q9 15 66 64l54 48q0 26 -38.5 67.5t-67.5 48.5v10q31 4 73 3q72 -3 81 -3q30 -19 95 -139q61 -111 121 -222q73 -124 120 -151zM331 253q-23 38 -68 113q-64 -77 -138 -255zM167 597
q-72 0 -72 -22h-12q0 28 33 52q30 24 60 24q29 0 51.5 -16t43.5 -16q51 0 48 0q20 2 39 23h14q0 -27 -35.5 -52.5t-65.5 -25.5q-24 0 -50 16.5t-54 16.5z" />
    <glyph glyph-name="aring" unicode="&#xe5;" horiz-adv-x="675" 
d="M632 -2h-155l-140 239q-129 -78 -321 -247h-20q31 48 68 141q40 100 64 141q9 15 66 64l54 48q0 26 -38.5 67.5t-67.5 48.5v10q31 4 73 3q72 -3 81 -3q30 -19 95 -139q61 -111 121 -222q73 -124 120 -151zM331 253q-23 38 -68 113q-64 -77 -138 -255zM229 697
q30 0 51 -21.5t21 -50.5q0 -30 -21 -51.5t-51 -21.5t-51 21.5t-21 51.5q0 29 21 50.5t51 21.5zM229 662q-15 0 -26 -11t-11 -26q0 -16 11 -27t26 -11q16 0 26.5 11t10.5 27q0 15 -10.5 26t-26.5 11z" />
    <glyph glyph-name="ccedilla" unicode="&#xe7;" horiz-adv-x="510" 
d="M250 -4v-35q20 4 36 4q77 0 77 -71q0 -32 -26 -51.5t-69 -19.5q-13 0 -27 2t-33 13q-24 14 -29 29l7 12q24 -17 65 -17q43 0 43 34q0 36 -40 36q-9 0 -40 7q5 17 12 58q-108 10 -173 106q-55 81 -54 174q2 118 118 185q94 55 211 55q29 0 73 -9q55 -11 66 -25
q-16 -43 -50 -128q-28 108 -189 112q-143 5 -143 -141q0 -107 73.5 -183t179.5 -76q41 0 125 31l2 -3q-109 -99 -215 -99z" />
    <glyph glyph-name="eacute" unicode="&#xe9;" horiz-adv-x="531" 
d="M475 503q-27 -42 -40 -115q-20 37 -77 57q-45 15 -98 15q-144 0 -172 -151q10 0 22 -3q57 -16 147 -22q128 -8 153 -12q-30 -12 -53 -17q-72 -17 -126 -20q-29 -3 -58 -5q-40 -2 -70 5q-1 -1 2 -2t3 -5q0 -25 46 -72q38 -38 65 -54q58 -35 132 -34q43 1 118 22
q-59 -52 -106 -73t-106 -21q-73 0 -133 37q-70 43 -106 128q-12 30 -12 85q0 14 7 46t14 45q49 91 158 138q86 38 175 38zM383 653l-139 -113q6 -6 9 -6q2 0 197 90z" />
    <glyph glyph-name="egrave" unicode="&#xe8;" horiz-adv-x="531" 
d="M475 503q-27 -42 -40 -115q-20 37 -77 57q-45 15 -98 15q-144 0 -172 -151q10 0 22 -3q57 -16 147 -22q128 -8 153 -12q-30 -12 -53 -17q-72 -17 -126 -20q-29 -3 -58 -5q-40 -2 -70 5q-1 -1 2 -2t3 -5q0 -25 46 -72q38 -38 65 -54q58 -35 132 -34q43 1 118 22
q-59 -52 -106 -73t-106 -21q-73 0 -133 37q-70 43 -106 128q-12 30 -12 85q0 14 7 46t14 45q49 91 158 138q86 38 175 38zM235 665l139 -113q-6 -6 -8 -6q-3 0 -197 90z" />
    <glyph glyph-name="ecircumflex" unicode="&#xea;" horiz-adv-x="531" 
d="M475 503q-27 -42 -40 -115q-20 37 -77 57q-45 15 -98 15q-144 0 -172 -151q10 0 22 -3q57 -16 147 -22q128 -8 153 -12q-30 -12 -53 -17q-72 -17 -126 -20q-29 -3 -58 -5q-40 -2 -70 5q-1 -1 2 -2t3 -5q0 -25 46 -72q38 -38 65 -54q58 -35 132 -34q43 1 118 22
q-59 -52 -106 -73t-106 -21q-73 0 -133 37q-70 43 -106 128q-12 30 -12 85q0 14 7 46t14 45q49 91 158 138q86 38 175 38zM313 600l-147 -69l-5 9l137 125l139 -125l-9 -6z" />
    <glyph glyph-name="edieresis" unicode="&#xeb;" horiz-adv-x="531" 
d="M475 503q-27 -42 -40 -115q-20 37 -77 57q-45 15 -98 15q-144 0 -172 -151q10 0 22 -3q57 -16 147 -22q128 -8 153 -12q-30 -12 -53 -17q-72 -17 -126 -20q-29 -3 -58 -5q-40 -2 -70 5q-1 -1 2 -2t3 -5q0 -25 46 -72q38 -38 65 -54q58 -35 132 -34q43 1 118 22
q-59 -52 -106 -73t-106 -21q-73 0 -133 37q-70 43 -106 128q-12 30 -12 85q0 14 7 46t14 45q49 91 158 138q86 38 175 38zM359 656q14 -19 52 -52l-57 -57q-6 9 -20 24q-9 7 -31 29zM187 660q14 -18 51 -52l-56 -56q-6 8 -20 24q-9 7 -31 28z" />
    <glyph glyph-name="iacute" unicode="&#xed;" horiz-adv-x="212" 
d="M138 509q-3 -52 -8 -52q-1 0 -2 1q-4 0 -4 -53v-321q0 -35 4 -82q-66 -38 -104 -70q19 53 24 157q-1 87 1 226q1 43 -7 101q-10 75 -27 93h123zM133 663l-139 -113q6 -6 9 -6q2 0 197 90z" />
    <glyph glyph-name="igrave" unicode="&#xec;" horiz-adv-x="212" 
d="M138 509q-3 -52 -8 -52q-1 0 -2 1q-4 0 -4 -53v-321q0 -35 4 -82q-66 -38 -104 -70q19 53 24 157q-1 87 1 226q1 43 -7 101q-10 75 -27 93h123zM45 665l139 -113q-6 -6 -8 -6q-3 0 -197 90z" />
    <glyph glyph-name="icircumflex" unicode="&#xee;" horiz-adv-x="212" 
d="M138 509q-3 -52 -8 -52q-1 0 -2 1q-4 0 -4 -53v-321q0 -35 4 -82q-66 -38 -104 -70q19 53 24 157q-1 87 1 226q1 43 -7 101q-10 75 -27 93h123zM103 600l-147 -69l-5 9l137 125l139 -125l-9 -6z" />
    <glyph glyph-name="idieresis" unicode="&#xef;" horiz-adv-x="212" 
d="M138 509q-3 -52 -8 -52q-1 0 -2 1q-4 0 -4 -53v-321q0 -35 4 -82q-66 -38 -104 -70q19 53 24 157q-1 87 1 226q1 43 -7 101q-10 75 -27 93h123zM159 656q14 -19 52 -52l-57 -57q-6 9 -20 24q-9 7 -31 29zM17 660q14 -18 51 -52l-56 -56q-6 8 -20 24q-9 7 -31 28z" />
    <glyph glyph-name="ntilde" unicode="&#xf1;" horiz-adv-x="615" 
d="M559 515q0 -3 -3.5 -18.5t-4.5 -22.5q-13 -117 -13 -198l-30 -302q-81 51 -190 158l-182 184l-2 -187q-9 -88 -15 -118q-14 -68 -48 -128l10 161v235q0 45 -24 105q-28 70 -64 75q18 6 76 29q50 20 52 20q5 0 7 -4.5t3 -8.5q75 -109 179 -222q115 -124 182 -158
q3 113 2 164q-7 64 -14 127q-14 70 -69 80l148 45v-16zM237 597q-72 0 -72 -22h-12q0 28 33 52q30 24 60 24q29 0 51.5 -16t43.5 -16q51 0 48 0q20 2 39 23h14q0 -27 -35.5 -52.5t-65.5 -25.5q-24 0 -50 16.5t-54 16.5z" />
    <glyph glyph-name="oacute" unicode="&#xf3;" horiz-adv-x="677" 
d="M625 266q0 -66 -63.5 -146.5t-133.5 -108.5q-64 -26 -145 -26q-110 0 -194 68q-89 74 -89 182q0 55 22 109q39 99 139 147q76 36 169 36q117 0 200 -63q95 -73 95 -198zM513 213q0 77 -30 139q-40 83 -124 117q-57 23 -95 23q-77 0 -122 -45t-45 -123q0 -75 25 -123
q39 -77 115 -126q68 -43 127 -43q76 0 115 53q34 47 34 128zM383 663l-139 -113q6 -6 9 -6q2 0 197 90z" />
    <glyph glyph-name="ograve" unicode="&#xf2;" horiz-adv-x="677" 
d="M625 266q0 -66 -63.5 -146.5t-133.5 -108.5q-64 -26 -145 -26q-110 0 -194 68q-89 74 -89 182q0 55 22 109q39 99 139 147q76 36 169 36q117 0 200 -63q95 -73 95 -198zM513 213q0 77 -30 139q-40 83 -124 117q-57 23 -95 23q-77 0 -122 -45t-45 -123q0 -75 25 -123
q39 -77 115 -126q68 -43 127 -43q76 0 115 53q34 47 34 128zM255 665l139 -113q-6 -6 -8 -6q-3 0 -197 90z" />
    <glyph glyph-name="ocircumflex" unicode="&#xf4;" horiz-adv-x="677" 
d="M625 266q0 -66 -63.5 -146.5t-133.5 -108.5q-64 -26 -145 -26q-110 0 -194 68q-89 74 -89 182q0 55 22 109q39 99 139 147q76 36 169 36q117 0 200 -63q95 -73 95 -198zM513 213q0 77 -30 139q-40 83 -124 117q-57 23 -95 23q-77 0 -122 -45t-45 -123q0 -75 25 -123
q39 -77 115 -126q68 -43 127 -43q76 0 115 53q34 47 34 128zM323 610l-147 -69l-5 9l137 125l139 -125l-9 -6z" />
    <glyph glyph-name="odieresis" unicode="&#xf6;" horiz-adv-x="677" 
d="M625 266q0 -66 -63.5 -146.5t-133.5 -108.5q-64 -26 -145 -26q-110 0 -194 68q-89 74 -89 182q0 55 22 109q39 99 139 147q76 36 169 36q117 0 200 -63q95 -73 95 -198zM513 213q0 77 -30 139q-40 83 -124 117q-57 23 -95 23q-77 0 -122 -45t-45 -123q0 -75 25 -123
q39 -77 115 -126q68 -43 127 -43q76 0 115 53q34 47 34 128zM399 656q14 -19 52 -52l-57 -57q-6 9 -20 24q-9 7 -31 29zM227 660q14 -18 51 -52l-56 -56q-6 8 -20 24q-9 7 -31 28z" />
    <glyph glyph-name="otilde" unicode="&#xf5;" horiz-adv-x="677" 
d="M625 266q0 -66 -63.5 -146.5t-133.5 -108.5q-64 -26 -145 -26q-110 0 -194 68q-89 74 -89 182q0 55 22 109q39 99 139 147q76 36 169 36q117 0 200 -63q95 -73 95 -198zM513 213q0 77 -30 139q-40 83 -124 117q-57 23 -95 23q-77 0 -122 -45t-45 -123q0 -75 25 -123
q39 -77 115 -126q68 -43 127 -43q76 0 115 53q34 47 34 128zM257 597q-72 0 -72 -22h-12q0 28 33 52q30 24 60 24q29 0 51.5 -16t43.5 -16q51 0 48 0q20 2 39 23h14q0 -27 -35.5 -52.5t-65.5 -25.5q-24 0 -50 16.5t-54 16.5z" />
    <glyph glyph-name="uacute" unicode="&#xfa;" horiz-adv-x="632" 
d="M609 5q-40 1 -83 -2q-46 -3 -37 -3l-42 -6v40q1 28 1 43q-118 -87 -212 -87q-112 0 -177 73q-60 68 -60 171q0 53 20 110q26 70 74 117q12 12 15 24q-5 8 -23 9h-26q-10 1 -11 7q67 5 181 11q-64 -24 -106 -94q-38 -64 -38 -128q0 -93 63 -161q68 -74 176 -75
q62 -1 97 30.5t35 86.5l-1 240q0 19 -14 50q-14 35 -31 47h78q15 3 51 9l-1 -422q0 -27 20.5 -53t50.5 -37zM373 663l-139 -113q6 -6 9 -6q2 0 197 90z" />
    <glyph glyph-name="ugrave" unicode="&#xf9;" horiz-adv-x="632" 
d="M609 5q-40 1 -83 -2q-46 -3 -37 -3l-42 -6v40q1 28 1 43q-118 -87 -212 -87q-112 0 -177 73q-60 68 -60 171q0 53 20 110q26 70 74 117q12 12 15 24q-5 8 -23 9h-26q-10 1 -11 7q67 5 181 11q-64 -24 -106 -94q-38 -64 -38 -128q0 -93 63 -161q68 -74 176 -75
q62 -1 97 30.5t35 86.5l-1 240q0 19 -14 50q-14 35 -31 47h78q15 3 51 9l-1 -422q0 -27 20.5 -53t50.5 -37zM245 665l139 -113q-6 -6 -8 -6q-3 0 -197 90z" />
    <glyph glyph-name="ucircumflex" unicode="&#xfb;" horiz-adv-x="632" 
d="M609 5q-40 1 -83 -2q-46 -3 -37 -3l-42 -6v40q1 28 1 43q-118 -87 -212 -87q-112 0 -177 73q-60 68 -60 171q0 53 20 110q26 70 74 117q12 12 15 24q-5 8 -23 9h-26q-10 1 -11 7q67 5 181 11q-64 -24 -106 -94q-38 -64 -38 -128q0 -93 63 -161q68 -74 176 -75
q62 -1 97 30.5t35 86.5l-1 240q0 19 -14 50q-14 35 -31 47h78q15 3 51 9l-1 -422q0 -27 20.5 -53t50.5 -37zM313 610l-147 -69l-5 9l137 125l139 -125l-9 -6z" />
    <glyph glyph-name="udieresis" unicode="&#xfc;" horiz-adv-x="632" 
d="M609 5q-40 1 -83 -2q-46 -3 -37 -3l-42 -6v40q1 28 1 43q-118 -87 -212 -87q-112 0 -177 73q-60 68 -60 171q0 53 20 110q26 70 74 117q12 12 15 24q-5 8 -23 9h-26q-10 1 -11 7q67 5 181 11q-64 -24 -106 -94q-38 -64 -38 -128q0 -93 63 -161q68 -74 176 -75
q62 -1 97 30.5t35 86.5l-1 240q0 19 -14 50q-14 35 -31 47h78q15 3 51 9l-1 -422q0 -27 20.5 -53t50.5 -37zM379 656q14 -19 52 -52l-57 -57q-6 9 -20 24q-9 7 -31 29zM207 660q14 -18 51 -52l-56 -56q-6 8 -20 24q-9 7 -31 28z" />
    <glyph glyph-name="dagger" unicode="&#x2020;" horiz-adv-x="212" 
d="M9 555h77q-3 52 -1 120l88 2q-5 -1 -6 -24q-1 -17 -1 -50l1 -48h83v-47h-83l-4 -77q-1 -23 -27 -486h-22l-27 491q1 36 -1 72h-77v47z" />
    <glyph glyph-name="degree" unicode="&#xb0;" horiz-adv-x="279" 
d="M119 664q49 0 83 -35.5t34 -85.5t-34 -86t-83 -36t-83 36t-34 86t34 85.5t83 35.5zM119 629q-34 0 -58 -25t-24 -61t24 -61.5t58 -25.5t58 25.5t24 61.5t-24 61t-58 25z" />
    <glyph glyph-name="cent" unicode="&#xa2;" horiz-adv-x="315" 
d="M162 123v-60h-25v57h-1q-65 0 -102 59q-32 50 -31 113q0 62 41 105q35 38 87 51v64h25v-60q12 2 24 2q15 0 39 -6q29 -7 35 -16q10 -13 10 -30q0 -41 -36 -47q-13 47 -33 59q-12 8 -54 9q-26 1 -58 -25q-36 -32 -36 -74q0 -68 39.5 -113t97.5 -45q22 0 68 19l1 -2
q-48 -51 -91 -60z" />
    <glyph glyph-name="sterling" unicode="&#xa3;" horiz-adv-x="483" 
d="M258 223h-116q4 -71 -43 -194q114 1 183 0q64 -1 93 19q19 13 29.5 40.5t21.5 32.5l-13 -122h-398q8 44 35 130q25 80 27 94v0h-75v31h66q-4 9 -35 60q-18 30 -17 76q1 73 80 108q55 24 129 24q207 0 207 -124q0 -66 -56 -66q-65 0 -85 18q28 15 34 28q5 8 5 29
q0 37 -30 65.5t-72 28.5q-44 0 -87 -29q-50 -33 -50 -82q0 -50 14 -74q25 -42 32 -62h121v-31z" />
    <glyph glyph-name="section" unicode="&#xa7;" 
 />
    <glyph glyph-name="bullet" unicode="&#x2022;" horiz-adv-x="236" 
d="M28 266q0 29 21 49t51 20t51 -20t21 -49t-21 -49t-51 -20t-51 20t-21 49z" />
    <glyph glyph-name="paragraph" unicode="&#xb6;" 
 />
    <glyph glyph-name="germandbls" unicode="&#xdf;" 
 />
    <glyph glyph-name="registered" unicode="&#xae;" horiz-adv-x="374" 
d="M162 383q-62 0 -106 45t-44 108q0 62 44 106t106 44t104.5 -44.5t42.5 -107.5t-42.5 -107t-104.5 -44zM162 406q51 0 88 37.5t37 90.5t-37 90.5t-88 37.5q-54 1 -90 -36t-36 -92q0 -53 37.5 -90.5t88.5 -37.5zM176 534l47 -72h-26l-47 72h-26v-72h-22v157h68q-6 0 -5 1h7
q52 0 52 -40q0 -44 -48 -46zM126 557h45q30 0 30 23q0 17 -34 17h-41v-40z" />
    <glyph glyph-name="copyright" unicode="&#xa9;" horiz-adv-x="772" 
d="M346 -11q-143 0 -242.5 100t-99.5 244q0 145 99.5 245t242.5 100t243 -100t100 -245q0 -144 -100 -244t-243 -100zM346 635q-122 0 -211 -88t-89 -214q0 -125 89 -213t211 -88t211 88t89 213q0 126 -89 214t-211 88zM355 139q-86 0 -136.5 55t-50.5 142q0 83 52 139.5
t136 56.5q59 0 103 -34t54 -91h-45q-22 81 -112 81q-67 0 -106 -44t-39 -110q0 -60 34 -103q40 -49 109 -49q94 0 115 79h43q-13 -57 -55.5 -89.5t-101.5 -32.5z" />
    <glyph glyph-name="trademark" unicode="&#x2122;" horiz-adv-x="481" 
d="M401 650v-196h-27v167h-2l-66 -167h-17l-65 167v0v-167h-28v196h46l56 -141l57 141h46zM159 650v-29h-64v-167h-28v167h-65v29h157z" />
    <glyph glyph-name="acute" unicode="&#xb4;" horiz-adv-x="298" 
d="M183 663l-139 -113q6 -6 9 -6q2 0 197 90z" />
    <glyph glyph-name="dieresis" unicode="&#xa8;" horiz-adv-x="705" 
d="M449 656q14 -19 52 -52l-57 -57q-6 9 -20 24q-9 7 -31 29zM247 660q14 -18 51 -52l-56 -56q-6 8 -20 24q-9 7 -31 28z" />
    <glyph glyph-name="AE" unicode="&#xc6;" horiz-adv-x="876" 
d="M331 253q-23 38 -68 113q-64 -77 -138 -255zM839 503q-27 -42 -40 -115q-20 37 -77 57q-45 15 -98 15q-144 0 -172 -151q10 0 22 -3q57 -16 147 -22q128 -8 153 -12q-30 -12 -53 -17q-72 -17 -126 -20q-29 -3 -58 -5q-40 -2 -70 5q1 1 1 -16v-11l11 -24q11 -51 56 -76
q27 -33 99 -33q35 0 67 7q47 -1 132 8q-59 -52 -106 -73t-106 -21q-16 0 -31 2q-126 0 -181 93q-23 30 -29 70q-12 21 -43 76q-129 -78 -321 -247h-20q31 48 68 141q40 100 64 141q9 15 66 64l54 48q0 26 -38.5 67.5t-67.5 48.5v10q31 4 73 3q72 -3 81 -3q31 -19 105 -157
q53 84 156 128q88 38 167 32z" />
    <glyph glyph-name="Oslash" unicode="&#xd8;" horiz-adv-x="677" 
d="M174 127l248 305q-28 23 -63 37q-57 23 -95 23q-77 0 -122 -45t-45 -123q0 -75 25 -123q20 -40 52 -74zM438 416l-247 -305q86 -79 173 -79q76 0 115 53q34 47 34 128q0 127 -75 203zM511 541h29l-45 -55q130 -71 130 -220q0 -66 -63.5 -146.5t-133.5 -108.5
q-64 -26 -145 -26q-85 0 -159 44l-54 -66h-29l64 79q-105 74 -105 193q0 55 22 109q39 99 139 147q76 36 169 36q77 0 145 -30z" />
    <glyph glyph-name="plusminus" unicode="&#xb1;" 
 />
    <glyph glyph-name="yen" unicode="&#xa5;" horiz-adv-x="653" 
d="M136 243h125q0 33 1 37q-115 236 -241 239q32 10 113 10q44 0 79 -38q22 -23 54.5 -82.5t51.5 -79.5q62 58 124 117q86 76 140 83q-15 -44 -36 -133q-34 39 -60 39q-35 0 -83 -57q-32 -43 -65 -86v-49h147v-29h-147l1 -51h146v-29h-146q0 -48 1 -78q1 -38 7 -55l-86 -3
l-1 136h-125v29h125v51h-125v29z" />
    <glyph glyph-name="mu" unicode="&#xb5;" horiz-adv-x="475" 
d="M443 50q-98 -66 -198 -66q-42 0 -108 7q-54 6 -108 11q20 33 26 170q-9 -3 -17 -3q-22 0 -34 20q24 14 53 35q-1 113 -2 242q0 38 -9 78q-12 49 -31 71q50 2 124 18q0 -12 -3 -343q47 44 137 121q-8 -20 -24 -54q-33 -53 -54 -77q-27 -31 -60 -59v-132q0 -16 68 -29
q54 -10 86 -10h154z" />
    <glyph glyph-name="mu" unicode="&#x3bc;" horiz-adv-x="475" 
d="M443 50q-98 -66 -198 -66q-42 0 -108 7q-54 6 -108 11q20 33 26 170q-9 -3 -17 -3q-22 0 -34 20q24 14 53 35q-1 113 -2 242q0 38 -9 78q-12 49 -31 71q50 2 124 18q0 -12 -3 -343q47 44 137 121q-8 -20 -24 -54q-33 -53 -54 -77q-27 -31 -60 -59v-132q0 -16 68 -29
q54 -10 86 -10h154z" />
    <glyph glyph-name="ordfeminine" unicode="&#xaa;" horiz-adv-x="541" 
d="M467 507l-329 -468q42 -4 95 -4q42 0 115 3q83 3 113 4q-20 -12 -46 -39.5t-36 -33.5q2 26 -187 31q-92 1 -184 1q163 195 323 467q-171 0 -331 1v11l69 98q11 -46 35 -60q20 -11 75 -11h288zM245 616l147 69l5 -9l-137 -125l-139 125l9 6z" />
    <glyph glyph-name="ordmasculine" unicode="&#xba;" horiz-adv-x="541" 
d="M467 507l-329 -468q42 -4 95 -4q42 0 115 3q83 3 113 4q-20 -12 -46 -39.5t-36 -33.5q2 26 -187 31q-92 1 -184 1q163 195 323 467q-171 0 -331 1v11l69 98q11 -46 35 -60q20 -11 75 -11h288zM245 616l147 69l5 -9l-137 -125l-139 125l9 6z" />
    <glyph glyph-name="ae" unicode="&#xe6;" horiz-adv-x="876" 
d="M331 253q-23 38 -68 113q-64 -77 -138 -255zM839 503q-27 -42 -40 -115q-20 37 -77 57q-45 15 -98 15q-144 0 -172 -151q10 0 22 -3q57 -16 147 -22q128 -8 153 -12q-30 -12 -53 -17q-72 -17 -126 -20q-29 -3 -58 -5q-40 -2 -70 5q1 1 1 -16v-11l11 -24q11 -51 56 -76
q27 -33 99 -33q35 0 67 7q47 -1 132 8q-59 -52 -106 -73t-106 -21q-16 0 -31 2q-126 0 -181 93q-23 30 -29 70q-12 21 -43 76q-129 -78 -321 -247h-20q31 48 68 141q40 100 64 141q9 15 66 64l54 48q0 26 -38.5 67.5t-67.5 48.5v10q31 4 73 3q72 -3 81 -3q31 -19 105 -157
q53 84 156 128q88 38 167 32z" />
    <glyph glyph-name="oslash" unicode="&#xf8;" horiz-adv-x="677" 
d="M174 127l248 305q-28 23 -63 37q-57 23 -95 23q-77 0 -122 -45t-45 -123q0 -75 25 -123q20 -40 52 -74zM438 416l-247 -305q86 -79 173 -79q76 0 115 53q34 47 34 128q0 127 -75 203zM511 541h29l-45 -55q130 -71 130 -220q0 -66 -63.5 -146.5t-133.5 -108.5
q-64 -26 -145 -26q-85 0 -159 44l-54 -66h-29l64 79q-105 74 -105 193q0 55 22 109q39 99 139 147q76 36 169 36q77 0 145 -30z" />
    <glyph glyph-name="questiondown" unicode="&#xbf;" horiz-adv-x="489" 
d="M141 108q-27 -29 -27 -75q0 -49 39 -85q34 -33 74 -33q42 0 72 29t30 65q0 22 -4 30q-7 13 -34 28q43 18 85 18q56 0 56 -66q0 -124 -207 -124q-75 0 -130 24q-79 35 -80 108q0 58 60 98q9 6 116 57q36 17 49 74h32q1 -4 1 -9q0 -26 -29 -61q-36 -44 -103 -78zM250 299
l-28 32t-31 27l64 64q7 -10 23 -28q10 -7 35 -32z" />
    <glyph glyph-name="exclamdown" unicode="&#xa1;" horiz-adv-x="212" 
d="M17 -103q1 9 10 27q7 13 8 77l2 119q0 22 18 142h39q6 -43 17 -145q0 -36 4 -115q3 -39 5 -52q7 -35 24 -53h-127zM73 286q-13 16 -27 32t-31 27l64 64q7 -10 23 -27q10 -8 35 -32z" />
    <glyph glyph-name="logicalnot" unicode="&#xac;" 
 />
    <glyph glyph-name="florin" unicode="&#x192;" horiz-adv-x="560" 
d="M402 236q-19 -8 -55 -21q-79 -19 -106 -20q-113 -7 -102 -7q22 -45 96 -88q55 -33 156 -32q43 1 118 22q-59 -52 -106 -73t-106 -21q-73 0 -133 37q-70 43 -106 128q-6 15 -9 42q-38 16 -44 50q17 -5 41 -8v1q0 15 7 47q-52 17 -60 57q28 -8 74 -12q51 92 158 140
q91 41 175 35l115 -10q-27 -42 -40 -115q-20 37 -77 57q-45 15 -98 15q-45 0 -98.5 -39.5t-72.5 -86.5q112 1 293 -8q-19 -8 -55 -21q-72 -17 -126 -20q-92 -6 -121 -4q0 -22 4 -41q25 -1 148 1q89 1 130 -5z" />
    <glyph glyph-name="guillemotleft" unicode="&#xab;" horiz-adv-x="319" 
d="M270 434q-50 -118 -120 -180q42 -37 120 -178l10 14q-22 111 -56 169q41 68 56 160zM120 434q-50 -118 -120 -180q42 -37 120 -178l10 14q-22 111 -56 169q41 68 56 160z" />
    <glyph glyph-name="guillemotright" unicode="&#xbb;" horiz-adv-x="319" 
d="M11 76q50 117 119 179q-42 37 -120 179l-9 -14q21 -112 56 -169q-42 -68 -57 -160zM161 76q50 117 119 179q-42 37 -120 179l-9 -14q21 -112 56 -169q-42 -68 -57 -160z" />
    <glyph glyph-name="ellipsis" unicode="&#x2026;" horiz-adv-x="757" 
d="M407 118q13 -16 27 -32t32 -27l-65 -64q-7 10 -22 28q-11 7 -36 31zM637 118q13 -16 27 -32t32 -27l-65 -64q-7 10 -22 28q-11 7 -36 31zM177 118q13 -16 27 -32t32 -27l-65 -64q-7 10 -22 28q-11 7 -36 31z" />
    <glyph glyph-name="nonbreakingspace" unicode="&#xa0;" horiz-adv-x="171" 
 />
    <glyph glyph-name="Agrave" unicode="&#xc0;" horiz-adv-x="675" 
d="M632 -2h-155l-140 239q-129 -78 -321 -247h-20q31 48 68 141q40 100 64 141q9 15 66 64l54 48q0 26 -38.5 67.5t-67.5 48.5v10q31 4 73 3q72 -3 81 -3q30 -19 95 -139q61 -111 121 -222q73 -124 120 -151zM331 253q-23 38 -68 113q-64 -77 -138 -255zM162 663l139 -113
q-6 -6 -9 -6q-2 0 -197 90z" />
    <glyph glyph-name="Atilde" unicode="&#xc3;" horiz-adv-x="675" 
d="M632 -2h-155l-140 239q-129 -78 -321 -247h-20q31 48 68 141q40 100 64 141q9 15 66 64l54 48q0 26 -38.5 67.5t-67.5 48.5v10q31 4 73 3q72 -3 81 -3q30 -19 95 -139q61 -111 121 -222q73 -124 120 -151zM331 253q-23 38 -68 113q-64 -77 -138 -255zM167 597
q-72 0 -72 -22h-12q0 28 33 52q30 24 60 24q29 0 51.5 -16t43.5 -16q51 0 48 0q20 2 39 23h14q0 -27 -35.5 -52.5t-65.5 -25.5q-24 0 -50 16.5t-54 16.5z" />
    <glyph glyph-name="Otilde" unicode="&#xd5;" horiz-adv-x="677" 
d="M625 266q0 -66 -63.5 -146.5t-133.5 -108.5q-64 -26 -145 -26q-110 0 -194 68q-89 74 -89 182q0 55 22 109q39 99 139 147q76 36 169 36q117 0 200 -63q95 -73 95 -198zM513 213q0 77 -30 139q-40 83 -124 117q-57 23 -95 23q-77 0 -122 -45t-45 -123q0 -75 25 -123
q39 -77 115 -126q68 -43 127 -43q76 0 115 53q34 47 34 128zM257 597q-72 0 -72 -22h-12q0 28 33 52q30 24 60 24q29 0 51.5 -16t43.5 -16q51 0 48 0q20 2 39 23h14q0 -27 -35.5 -52.5t-65.5 -25.5q-24 0 -50 16.5t-54 16.5z" />
    <glyph glyph-name="OE" unicode="&#x152;" horiz-adv-x="1019" 
d="M520 210q5 95 -24 154q-35 72 -129 110q-45 18 -103 18q-77 0 -122 -45t-45 -123q0 -75 25 -123q39 -77 115 -126q68 -43 127 -43q73 0 115 53q38 49 41 125zM979 509q-27 -42 -40 -115q-20 37 -77 57q-45 15 -98 15q-47 0 -89 -25q-47 -29 -70 -82l-6 -24q-1 -9 6 -29
q55 -14 152 -21q132 -9 157 -13q-30 -12 -53 -17q-72 -17 -126 -20q-97 -6 -124 -2q3 -7 4 -19q11 -28 52 -71q36 -39 56 -51q58 -35 132 -34q43 1 118 22q-59 -52 -106 -73t-106 -21q-57 0 -112 30q-58 32 -98 91q-59 -71 -123 -96.5t-145 -25.5q-110 0 -194 68
q-89 74 -89 182q0 55 22 109q39 99 139 147q76 36 169 36q76 0 143 -29q72 -33 111 -91q60 57 144 90q79 31 139 26q30 -2 60 -3q34 -2 52 -11z" />
    <glyph glyph-name="oe" unicode="&#x153;" horiz-adv-x="1019" 
d="M520 210q5 95 -24 154q-35 72 -129 110q-45 18 -103 18q-77 0 -122 -45t-45 -123q0 -75 25 -123q39 -77 115 -126q68 -43 127 -43q73 0 115 53q38 49 41 125zM979 509q-27 -42 -40 -115q-20 37 -77 57q-45 15 -98 15q-47 0 -89 -25q-47 -29 -70 -82l-6 -24q-1 -9 6 -29
q55 -14 152 -21q132 -9 157 -13q-30 -12 -53 -17q-72 -17 -126 -20q-97 -6 -124 -2q3 -7 4 -19q11 -28 52 -71q36 -39 56 -51q58 -35 132 -34q43 1 118 22q-59 -52 -106 -73t-106 -21q-57 0 -112 30q-58 32 -98 91q-59 -71 -123 -96.5t-145 -25.5q-110 0 -194 68
q-89 74 -89 182q0 55 22 109q39 99 139 147q76 36 169 36q76 0 143 -29q72 -33 111 -91q60 57 144 90q79 31 139 26q30 -2 60 -3q34 -2 52 -11z" />
    <glyph glyph-name="endash" unicode="&#x2013;" horiz-adv-x="458" 
d="M30 217l-41 -17l70 78l4 3h325l46 22l-87 -86h-317z" />
    <glyph glyph-name="emdash" unicode="&#x2014;" horiz-adv-x="806" 
d="M30 217l-41 -17l70 78l4 3h655l46 22l-87 -86h-647z" />
    <glyph glyph-name="quotedblleft" unicode="&#x201c;" horiz-adv-x="354" 
d="M60 476q-6 15 -16 25q-6 10 -28 35q-19 19 -19 20q0 2 2 3l64 64q14 15 22 31t19 26l18 -13l-25 -34q-6 -14 -16 -30v-1q7 -6 9.5 -13.5t9.5 -15.5q15 -10 32 -25zM230 476q-6 15 -16 25q-6 10 -28 35q-19 19 -19 20q0 2 2 3l64 64q14 15 22 31t19 26l18 -13l-25 -34
q-6 -14 -16 -30v-1q7 -6 9.5 -13.5t9.5 -15.5q15 -10 32 -25z" />
    <glyph glyph-name="quotedblright" unicode="&#x201d;" horiz-adv-x="354" 
d="M241 680q5 -15 15 -26q7 -9 28 -34q19 -19 19 -20q0 -2 -1 -3l-65 -64q-14 -15 -22 -31.5t-18 -25.5l-19 13l25 34q7 14 16 30v0q-7 7 -9.5 14.5t-9.5 15.5q-15 10 -31 25zM71 680q5 -15 15 -26q7 -9 28 -34q19 -19 19 -20q0 -2 -1 -3l-65 -64q-14 -15 -22 -31.5
t-18 -25.5l-19 13l25 34q7 14 16 30v0q-7 7 -9.5 14.5t-9.5 15.5q-15 10 -31 25z" />
    <glyph glyph-name="quoteleft" unicode="&#x2018;" horiz-adv-x="179" 
d="M61 476q-5 15 -13.5 25t-29.5 35q-19 19 -19 20q0 2 1 3l65 64q14 15 22 31t18 26l19 -13l-25 -34q-7 -14 -16 -30v-1q7 -6 9.5 -13.5t9.5 -15.5q15 -10 31 -25z" />
    <glyph glyph-name="quoteright" unicode="&#x2019;" horiz-adv-x="179" 
d="M71 680q5 -15 15 -26q7 -9 28 -34q19 -19 19 -20q0 -2 -1 -3l-65 -64q-14 -15 -22 -31.5t-18 -25.5l-19 13l25 34q7 14 16 30v0q-7 7 -9.5 14.5t-9.5 15.5q-15 10 -31 25z" />
    <glyph glyph-name="divide" unicode="&#xf7;" 
 />
    <glyph glyph-name="ydieresis" unicode="&#xff;" horiz-adv-x="705" 
d="M664 541q-66 -75 -156 -280q-126 -287 -151 -335q-91 -171 -181 -206q40 57 79 115q53 84 53 121q0 63 -118 267q-120 208 -177 231l-1 7l132 63q74 -143 219 -430l6 3q35 82 69 165q48 112 92 173q61 84 134 106zM449 656q14 -19 52 -52l-57 -57q-6 9 -20 24
q-9 7 -31 29zM247 660q14 -18 51 -52l-56 -56q-6 8 -20 24q-9 7 -31 28z" />
    <glyph glyph-name="Ydieresis" unicode="&#x178;" horiz-adv-x="705" 
d="M664 541q-66 -75 -156 -280q-126 -287 -151 -335q-91 -171 -181 -206q40 57 79 115q53 84 53 121q0 63 -118 267q-120 208 -177 231l-1 7l132 63q74 -143 219 -430l6 3q35 82 69 165q48 112 92 173q61 84 134 106zM449 656q14 -19 52 -52l-57 -57q-6 9 -20 24
q-9 7 -31 29zM247 660q14 -18 51 -52l-56 -56q-6 8 -20 24q-9 7 -31 28z" />
    <glyph glyph-name="currency" unicode="&#xa4;" horiz-adv-x="25" 
 />
    <glyph glyph-name="guilsinglleft" unicode="&#x2039;" horiz-adv-x="175" 
d="M120 434q-50 -118 -120 -180q42 -37 120 -178l10 14q-22 111 -56 169q41 68 56 160z" />
    <glyph glyph-name="guilsinglright" unicode="&#x203a;" horiz-adv-x="175" 
d="M11 76q50 117 119 179q-42 37 -120 179l-9 -14q21 -112 56 -169q-42 -68 -57 -160z" />
    <glyph glyph-name="daggerdbl" unicode="&#x2021;" 
 />
    <glyph glyph-name="periodcentered" unicode="&#xb7;" 
 />
    <glyph glyph-name="periodcentered" unicode="&#x2219;" 
 />
    <glyph glyph-name="quotesinglbase" unicode="&#x201a;" horiz-adv-x="172" 
d="M71 140q5 -15 15 -26q7 -9 28 -34q19 -19 19 -20q0 -2 -1 -3l-65 -64q-14 -15 -22 -31.5t-18 -25.5l-19 13l25 34q7 14 16 30v0q-7 7 -9.5 14.5t-9.5 15.5q-15 10 -31 25z" />
    <glyph glyph-name="quotedblbase" unicode="&#x201e;" horiz-adv-x="354" 
d="M241 140q5 -15 15 -26q7 -9 28 -34q19 -19 19 -20q0 -2 -1 -3l-65 -64q-14 -15 -22 -31.5t-18 -25.5l-19 13l25 34q7 14 16 30v0q-7 7 -9.5 14.5t-9.5 15.5q-15 10 -31 25zM71 140q5 -15 15 -26q7 -9 28 -34q19 -19 19 -20q0 -2 -1 -3l-65 -64q-14 -15 -22 -31.5
t-18 -25.5l-19 13l25 34q7 14 16 30v0q-7 7 -9.5 14.5t-9.5 15.5q-15 10 -31 25z" />
    <glyph glyph-name="perthousand" unicode="&#x2030;" 
 />
    <glyph glyph-name="Acircumflex" unicode="&#xc2;" horiz-adv-x="675" 
d="M632 -2h-155l-140 239q-129 -78 -321 -247h-20q31 48 68 141q40 100 64 141q9 15 66 64l54 48q0 26 -38.5 67.5t-67.5 48.5v10q31 4 73 3q72 -3 81 -3q30 -19 95 -139q61 -111 121 -222q73 -124 120 -151zM331 253q-23 38 -68 113q-64 -77 -138 -255zM243 600l-147 -69
l-5 9l137 125l139 -125l-9 -6z" />
    <glyph glyph-name="Ecircumflex" unicode="&#xca;" horiz-adv-x="531" 
d="M475 503q-27 -42 -40 -115q-20 37 -77 57q-45 15 -98 15q-144 0 -172 -151q10 0 22 -3q57 -16 147 -22q128 -8 153 -12q-30 -12 -53 -17q-72 -17 -126 -20q-29 -3 -58 -5q-40 -2 -70 5q-1 -1 2 -2t3 -5q0 -25 46 -72q38 -38 65 -54q58 -35 132 -34q43 1 118 22
q-59 -52 -106 -73t-106 -21q-73 0 -133 37q-70 43 -106 128q-12 30 -12 85q0 14 7 46t14 45q49 91 158 138q86 38 175 38zM313 600l-147 -69l-5 9l137 125l139 -125l-9 -6z" />
    <glyph glyph-name="Aacute" unicode="&#xc1;" horiz-adv-x="675" 
d="M632 -2h-155l-140 239q-129 -78 -321 -247h-20q31 48 68 141q40 100 64 141q9 15 66 64l54 48q0 26 -38.5 67.5t-67.5 48.5v10q31 4 73 3q72 -3 81 -3q30 -19 95 -139q61 -111 121 -222q73 -124 120 -151zM331 253q-23 38 -68 113q-64 -77 -138 -255zM283 663l-139 -113
q6 -6 9 -6q2 0 197 90z" />
    <glyph glyph-name="Edieresis" unicode="&#xcb;" horiz-adv-x="531" 
d="M475 503q-27 -42 -40 -115q-20 37 -77 57q-45 15 -98 15q-144 0 -172 -151q10 0 22 -3q57 -16 147 -22q128 -8 153 -12q-30 -12 -53 -17q-72 -17 -126 -20q-29 -3 -58 -5q-40 -2 -70 5q-1 -1 2 -2t3 -5q0 -25 46 -72q38 -38 65 -54q58 -35 132 -34q43 1 118 22
q-59 -52 -106 -73t-106 -21q-73 0 -133 37q-70 43 -106 128q-12 30 -12 85q0 14 7 46t14 45q49 91 158 138q86 38 175 38zM359 656q14 -19 52 -52l-57 -57q-6 9 -20 24q-9 7 -31 29zM187 660q14 -18 51 -52l-56 -56q-6 8 -20 24q-9 7 -31 28z" />
    <glyph glyph-name="Egrave" unicode="&#xc8;" horiz-adv-x="531" 
d="M475 503q-27 -42 -40 -115q-20 37 -77 57q-45 15 -98 15q-144 0 -172 -151q10 0 22 -3q57 -16 147 -22q128 -8 153 -12q-30 -12 -53 -17q-72 -17 -126 -20q-29 -3 -58 -5q-40 -2 -70 5q-1 -1 2 -2t3 -5q0 -25 46 -72q38 -38 65 -54q58 -35 132 -34q43 1 118 22
q-59 -52 -106 -73t-106 -21q-73 0 -133 37q-70 43 -106 128q-12 30 -12 85q0 14 7 46t14 45q49 91 158 138q86 38 175 38zM235 665l139 -113q-6 -6 -8 -6q-3 0 -197 90z" />
    <glyph glyph-name="Iacute" unicode="&#xcd;" horiz-adv-x="212" 
d="M138 509q-3 -52 -8 -52q-1 0 -2 1q-4 0 -4 -53v-321q0 -35 4 -82q-66 -38 -104 -70q19 53 24 157q-1 87 1 226q1 43 -7 101q-10 75 -27 93h123zM133 663l-139 -113q6 -6 9 -6q2 0 197 90z" />
    <glyph glyph-name="Icircumflex" unicode="&#xce;" horiz-adv-x="212" 
d="M138 509q-3 -52 -8 -52q-1 0 -2 1q-4 0 -4 -53v-321q0 -35 4 -82q-66 -38 -104 -70q19 53 24 157q-1 87 1 226q1 43 -7 101q-10 75 -27 93h123zM103 600l-147 -69l-5 9l137 125l139 -125l-9 -6z" />
    <glyph glyph-name="Idieresis" unicode="&#xcf;" horiz-adv-x="212" 
d="M138 509q-3 -52 -8 -52q-1 0 -2 1q-4 0 -4 -53v-321q0 -35 4 -82q-66 -38 -104 -70q19 53 24 157q-1 87 1 226q1 43 -7 101q-10 75 -27 93h123zM159 656q14 -19 52 -52l-57 -57q-6 9 -20 24q-9 7 -31 29zM17 660q14 -18 51 -52l-56 -56q-6 8 -20 24q-9 7 -31 28z" />
    <glyph glyph-name="Igrave" unicode="&#xcc;" horiz-adv-x="212" 
d="M138 509q-3 -52 -8 -52q-1 0 -2 1q-4 0 -4 -53v-321q0 -35 4 -82q-66 -38 -104 -70q19 53 24 157q-1 87 1 226q1 43 -7 101q-10 75 -27 93h123zM45 665l139 -113q-6 -6 -8 -6q-3 0 -197 90z" />
    <glyph glyph-name="Oacute" unicode="&#xd3;" horiz-adv-x="677" 
d="M625 266q0 -66 -63.5 -146.5t-133.5 -108.5q-64 -26 -145 -26q-110 0 -194 68q-89 74 -89 182q0 55 22 109q39 99 139 147q76 36 169 36q117 0 200 -63q95 -73 95 -198zM513 213q0 77 -30 139q-40 83 -124 117q-57 23 -95 23q-77 0 -122 -45t-45 -123q0 -75 25 -123
q39 -77 115 -126q68 -43 127 -43q76 0 115 53q34 47 34 128zM383 663l-139 -113q6 -6 9 -6q2 0 197 90z" />
    <glyph glyph-name="Ocircumflex" unicode="&#xd4;" horiz-adv-x="677" 
d="M625 266q0 -66 -63.5 -146.5t-133.5 -108.5q-64 -26 -145 -26q-110 0 -194 68q-89 74 -89 182q0 55 22 109q39 99 139 147q76 36 169 36q117 0 200 -63q95 -73 95 -198zM513 213q0 77 -30 139q-40 83 -124 117q-57 23 -95 23q-77 0 -122 -45t-45 -123q0 -75 25 -123
q39 -77 115 -126q68 -43 127 -43q76 0 115 53q34 47 34 128zM323 610l-147 -69l-5 9l137 125l139 -125l-9 -6z" />
    <glyph glyph-name="Ograve" unicode="&#xd2;" horiz-adv-x="677" 
d="M625 266q0 -66 -63.5 -146.5t-133.5 -108.5q-64 -26 -145 -26q-110 0 -194 68q-89 74 -89 182q0 55 22 109q39 99 139 147q76 36 169 36q117 0 200 -63q95 -73 95 -198zM513 213q0 77 -30 139q-40 83 -124 117q-57 23 -95 23q-77 0 -122 -45t-45 -123q0 -75 25 -123
q39 -77 115 -126q68 -43 127 -43q76 0 115 53q34 47 34 128zM255 665l139 -113q-6 -6 -8 -6q-3 0 -197 90z" />
    <glyph glyph-name="Uacute" unicode="&#xda;" horiz-adv-x="632" 
d="M609 5q-40 1 -83 -2q-46 -3 -37 -3l-42 -6v40q1 28 1 43q-118 -87 -212 -87q-112 0 -177 73q-60 68 -60 171q0 53 20 110q26 70 74 117q12 12 15 24q-5 8 -23 9h-26q-10 1 -11 7q67 5 181 11q-64 -24 -106 -94q-38 -64 -38 -128q0 -93 63 -161q68 -74 176 -75
q62 -1 97 30.5t35 86.5l-1 240q0 19 -14 50q-14 35 -31 47h78q15 3 51 9l-1 -422q0 -27 20.5 -53t50.5 -37zM373 663l-139 -113q6 -6 9 -6q2 0 197 90z" />
    <glyph glyph-name="Ucircumflex" unicode="&#xdb;" horiz-adv-x="632" 
d="M609 5q-40 1 -83 -2q-46 -3 -37 -3l-42 -6v40q1 28 1 43q-118 -87 -212 -87q-112 0 -177 73q-60 68 -60 171q0 53 20 110q26 70 74 117q12 12 15 24q-5 8 -23 9h-26q-10 1 -11 7q67 5 181 11q-64 -24 -106 -94q-38 -64 -38 -128q0 -93 63 -161q68 -74 176 -75
q62 -1 97 30.5t35 86.5l-1 240q0 19 -14 50q-14 35 -31 47h78q15 3 51 9l-1 -422q0 -27 20.5 -53t50.5 -37zM313 610l-147 -69l-5 9l137 125l139 -125l-9 -6z" />
    <glyph glyph-name="Ugrave" unicode="&#xd9;" horiz-adv-x="632" 
d="M609 5q-40 1 -83 -2q-46 -3 -37 -3l-42 -6v40q1 28 1 43q-118 -87 -212 -87q-112 0 -177 73q-60 68 -60 171q0 53 20 110q26 70 74 117q12 12 15 24q-5 8 -23 9h-26q-10 1 -11 7q67 5 181 11q-64 -24 -106 -94q-38 -64 -38 -128q0 -93 63 -161q68 -74 176 -75
q62 -1 97 30.5t35 86.5l-1 240q0 19 -14 50q-14 35 -31 47h78q15 3 51 9l-1 -422q0 -27 20.5 -53t50.5 -37zM245 665l139 -113q-6 -6 -8 -6q-3 0 -197 90z" />
    <glyph glyph-name="circumflex" unicode="&#x2c6;" horiz-adv-x="632" 
d="M313 610l-147 -69l-5 9l137 125l139 -125l-9 -6z" />
    <glyph glyph-name="tilde" unicode="&#x2dc;" horiz-adv-x="426" 
d="M137 597q-72 0 -72 -22h-12q0 28 33 52q30 24 60 24q29 0 51.5 -16t43.5 -16q51 0 48 0q20 2 39 23h14q0 -27 -35.5 -52.5t-65.5 -25.5q-24 0 -50 16.5t-54 16.5z" />
    <glyph glyph-name="macron" unicode="&#xaf;" horiz-adv-x="280" 
d="M21 630l257 1l-24 -52h-253z" />
    <glyph glyph-name="macron" unicode="&#x2c9;" horiz-adv-x="280" 
d="M21 630l257 1l-24 -52h-253z" />
    <glyph glyph-name="cedilla" unicode="&#xb8;" horiz-adv-x="510" 
d="M226 9h24v-48q20 4 36 4q77 0 77 -71q0 -32 -26 -51.5t-69 -19.5q-13 0 -27 2t-33 13q-24 14 -29 29l7 12q24 -17 65 -17q43 0 43 34q0 36 -40 36q-9 0 -40 7q13 49 12 70z" />
    <glyph glyph-name="Scaron" unicode="&#x160;" 
 />
    <glyph glyph-name="scaron" unicode="&#x161;" 
 />
    <glyph glyph-name="brokenbar" unicode="&#xa6;" 
 />
    <glyph glyph-name="Eth" unicode="&#xd0;" 
 />
    <glyph glyph-name="eth" unicode="&#xf0;" 
 />
    <glyph glyph-name="Yacute" unicode="&#xdd;" 
 />
    <glyph glyph-name="yacute" unicode="&#xfd;" 
 />
    <glyph glyph-name="Thorn" unicode="&#xde;" 
 />
    <glyph glyph-name="thorn" unicode="&#xfe;" 
 />
    <glyph glyph-name="minus" unicode="&#xad;" 
 />
    <glyph glyph-name="minus" unicode="&#x2212;" 
 />
    <glyph glyph-name="multiply" unicode="&#xd7;" 
 />
    <glyph glyph-name="onesuperior" unicode="&#xb9;" 
 />
    <glyph glyph-name="twosuperior" unicode="&#xb2;" 
 />
    <glyph glyph-name="threesuperior" unicode="&#xb3;" 
 />
    <glyph glyph-name="onehalf" unicode="&#xbd;" 
 />
    <glyph glyph-name="onequarter" unicode="&#xbc;" 
 />
    <glyph glyph-name="threequarters" unicode="&#xbe;" 
 />
    <glyph glyph-name="Lslash" unicode="&#x141;" 
 />
    <glyph glyph-name="lslash" unicode="&#x142;" 
 />
    <glyph glyph-name="HT" 
 />
    <glyph glyph-name="LF" 
 />
    <glyph glyph-name="nonmarkingreturn" 
 />
    <glyph glyph-name="Zcaron" unicode="&#x17d;" 
 />
    <glyph glyph-name="zcaron" unicode="&#x17e;" 
 />
    <glyph glyph-name="DLE" 
 />
    <glyph glyph-name="DC1" 
 />
    <glyph glyph-name="DC2" 
 />
    <glyph glyph-name="DC3" 
 />
    <glyph glyph-name="DC4" 
 />
    <glyph glyph-name="RS" 
 />
    <glyph glyph-name="US" 
 />
    <glyph glyph-name="notequal" unicode="&#x2260;" 
 />
    <glyph glyph-name="infinity" unicode="&#x221e;" 
 />
    <glyph glyph-name="lessequal" unicode="&#x2264;" 
 />
    <glyph glyph-name="greaterequal" unicode="&#x2265;" 
 />
    <glyph glyph-name="partialdiff" unicode="&#x2202;" horiz-adv-x="475" 
d="M443 50q-98 -66 -198 -66q-42 0 -108 7q-54 6 -108 11q20 33 26 170q-9 -3 -17 -3q-22 0 -34 20q24 14 53 35q-1 113 -2 242q0 38 -9 78q-12 49 -31 71q50 2 124 18q0 -12 -3 -343q47 44 137 121q-8 -20 -24 -54q-33 -53 -54 -77q-27 -31 -60 -59v-132q0 -16 68 -29
q54 -10 86 -10h154z" />
    <glyph glyph-name="summation" unicode="&#x2211;" horiz-adv-x="449" 
d="M405 163q0 -82 -89 -132q-75 -42 -164 -42q-91 0 -155 27v9q0 10 9.5 27.5t11.5 23.5q6 25 18 74q22 -55 74.5 -90.5t111.5 -35.5q39 0 64.5 21t25.5 59q0 63 -80 104q-73 33 -145 65q-78 42 -73 110q4 73 92 111q66 29 144 29q68 0 129 -15q-13 -21 -23 -58
q-9 -31 -17 -62q-23 45 -62 74q-43 32 -89 32q-37 0 -53 -12q-20 -13 -20 -50q0 -58 75 -97q70 -33 140 -65q75 -42 75 -107zM215 616l147 69l5 -9l-137 -125l-139 125l9 6z" />
    <glyph glyph-name="product" unicode="&#x220f;" horiz-adv-x="449" 
d="M405 163q0 -82 -89 -132q-75 -42 -164 -42q-91 0 -155 27v9q0 10 9.5 27.5t11.5 23.5q6 25 18 74q22 -55 74.5 -90.5t111.5 -35.5q39 0 64.5 21t25.5 59q0 63 -80 104q-73 33 -145 65q-78 42 -73 110q4 73 92 111q66 29 144 29q68 0 129 -15q-13 -21 -23 -58
q-9 -31 -17 -62q-23 45 -62 74q-43 32 -89 32q-37 0 -53 -12q-20 -13 -20 -50q0 -58 75 -97q70 -33 140 -65q75 -42 75 -107zM215 616l147 69l5 -9l-137 -125l-139 125l9 6z" />
    <glyph glyph-name="pi" unicode="&#x3c0;" horiz-adv-x="705" 
d="M664 541q-66 -75 -156 -280q-126 -287 -151 -335q-91 -171 -181 -206q40 57 79 115q53 84 53 121q0 63 -118 267q-120 208 -177 231l-1 7l132 63q74 -143 219 -430l6 3q35 82 69 165q48 112 92 173q61 84 134 106zM393 673l-139 -113q6 -6 9 -6q2 0 205 78z" />
    <glyph glyph-name="integral" unicode="&#x222b;" horiz-adv-x="705" 
d="M664 541q-66 -75 -156 -280q-126 -287 -151 -335q-91 -171 -181 -206q40 57 79 115q53 84 53 121q0 63 -118 267q-120 208 -177 231l-1 7l132 63q74 -143 219 -430l6 3q35 82 69 165q48 112 92 173q61 84 134 106zM393 673l-139 -113q6 -6 9 -6q2 0 205 78z" />
    <glyph glyph-name="Omega" unicode="&#x3a9;" horiz-adv-x="560" 
d="M402 236q-19 -8 -55 -21q-79 -19 -106 -20q-113 -7 -102 -7q22 -45 96 -88q55 -33 156 -32q43 1 118 22q-59 -52 -106 -73t-106 -21q-73 0 -133 37q-70 43 -106 128q-6 15 -9 42q-38 16 -44 50q17 -5 41 -8v1q0 15 7 47q-52 17 -60 57q28 -8 74 -12q51 92 158 140
q91 41 175 35l115 -10q-27 -42 -40 -115q-20 37 -77 57q-45 15 -98 15q-45 0 -98.5 -39.5t-72.5 -86.5q112 1 293 -8q-19 -8 -55 -21q-72 -17 -126 -20q-92 -6 -121 -4q0 -22 4 -41q25 -1 148 1q89 1 130 -5z" />
    <glyph glyph-name="Omega" unicode="&#x2126;" horiz-adv-x="560" 
d="M402 236q-19 -8 -55 -21q-79 -19 -106 -20q-113 -7 -102 -7q22 -45 96 -88q55 -33 156 -32q43 1 118 22q-59 -52 -106 -73t-106 -21q-73 0 -133 37q-70 43 -106 128q-6 15 -9 42q-38 16 -44 50q17 -5 41 -8v1q0 15 7 47q-52 17 -60 57q28 -8 74 -12q51 92 158 140
q91 41 175 35l115 -10q-27 -42 -40 -115q-20 37 -77 57q-45 15 -98 15q-45 0 -98.5 -39.5t-72.5 -86.5q112 1 293 -8q-19 -8 -55 -21q-72 -17 -126 -20q-92 -6 -121 -4q0 -22 4 -41q25 -1 148 1q89 1 130 -5z" />
    <glyph glyph-name="radical" unicode="&#x221a;" 
 />
    <glyph glyph-name="approxequal" unicode="&#x2248;" 
 />
    <glyph glyph-name="approxequal" unicode="&#x22f2;" 
 />
    <glyph glyph-name="Delta" unicode="&#x394;" 
 />
    <glyph glyph-name="Delta" unicode="&#x2206;" 
 />
    <glyph glyph-name="lozenge" unicode="&#x25ca;" horiz-adv-x="270" 
d="M10 251q77 50 110 110q29 -76 110 -110q-78 -46 -110 -110q-46 78 -110 110z" />
    <glyph glyph-name="fraction" unicode="&#x2044;" 
 />
    <glyph glyph-name="fi" unicode="&#xf001;" 
 />
    <glyph glyph-name="fl" unicode="&#xf002;" 
 />
    <glyph glyph-name="apple" unicode="&#xf000;" 
 />
    <glyph glyph-name="dotlessi" unicode="&#x131;" horiz-adv-x="212" 
d="M138 509q-3 -52 -8 -52q-1 0 -2 1q-4 0 -4 -53v-321q0 -35 4 -82q-66 -38 -104 -70q19 53 24 157q-1 87 1 226q1 43 -7 101q-10 75 -27 93h123z" />
    <glyph glyph-name="breve" unicode="&#x2d8;" horiz-adv-x="326" 
d="M45 664q3 -14 35 -34q36 -22 73 -21q82 1 120 55l29 -20q-63 -89 -151 -85q-50 2 -90.5 27t-46.5 61z" />
    <glyph glyph-name="dotaccent" unicode="&#x2d9;" horiz-adv-x="275" 
d="M64 615q0 22 16.5 38t38.5 16q23 0 39 -16t16 -38q0 -23 -16 -39t-39 -16q-22 0 -38.5 16t-16.5 39z" />
    <glyph glyph-name="ring" unicode="&#x2da;" horiz-adv-x="238" 
d="M109 697q30 0 51 -21.5t21 -50.5q0 -30 -21 -51.5t-51 -21.5t-51 21.5t-21 51.5q0 29 21 50.5t51 21.5zM109 662q-15 0 -26 -11t-11 -26q0 -16 11 -27t26 -11q16 0 26.5 11t10.5 27q0 15 -10.5 26t-26.5 11z" />
    <glyph glyph-name="hungarumlaut" unicode="&#x2dd;" horiz-adv-x="398" 
d="M94 564l-18 16l53 87q18 31 38 31q15 0 26 -12t11 -29q0 -25 -44 -52zM221 564l-17 16l52 87q19 31 39 31q15 0 25.5 -12t10.5 -29q0 -25 -43 -52z" />
    <glyph glyph-name="ogonek" unicode="&#x2db;" horiz-adv-x="447" 
d="M196 0h76q-33 -19 -52 -33q-31 -22 -31 -61q0 -20 19.5 -32t39.5 -12q44 0 105 20l18 -35q-80 -38 -162 -38q-37 0 -73 24q-33 21 -33 55q0 49 37 75q14 12 56 37z" />
    <glyph glyph-name="caron" unicode="&#x2c7;" horiz-adv-x="632" 
d="M285 606l147 69l5 -9l-137 -125l-139 125l9 6z" />
    </font>
</defs>
</svg>
