<?xml version="1.0" standalone="no"?>
<!DOCTYPE svg PUBLIC "-//W3C//DTD SVG 1.1//EN" "http://www.w3.org/Graphics/SVG/1.1/DTD/svg11.dtd" >
<svg>
<metadata>
Created by FontForge 20120731 at Tue Apr 16 15:31:05 2019
 By www-data
Generated by Fontographer 4.1.5
</metadata>
<defs>
<font id="Barkham" horiz-adv-x="20" >
  <font-face 
    font-family="Barkham"
    font-weight="400"
    font-stretch="normal"
    units-per-em="1000"
    panose-1="0 0 4 0 0 0 0 0 0 0"
    ascent="800"
    descent="-200"
    x-height="359"
    cap-height="673"
    bbox="-107 -345 1007 877"
    underline-thickness="20"
    underline-position="-123"
    unicode-range="U+0020-F002"
  />
<missing-glyph horiz-adv-x="500" 
d="M63 0v800h375v-800h-375zM125 63h250v675h-250v-675z" />
    <glyph glyph-name=".notdef" horiz-adv-x="500" 
d="M63 0v800h375v-800h-375zM125 63h250v675h-250v-675z" />
    <glyph glyph-name=".null" horiz-adv-x="0" 
 />
    <glyph glyph-name="glyph2" horiz-adv-x="187" 
 />
    <glyph glyph-name="space" unicode=" " horiz-adv-x="187" 
 />
    <glyph glyph-name="exclam" unicode="!" horiz-adv-x="199" 
d="M33 626l-17 26l124 37l-39 -527l-38 -10zM139 107l-34 -77l-81 -27l29 74z" />
    <glyph glyph-name="quotedbl" unicode="&#x22;" horiz-adv-x="402" 
d="M250 673h100l-20 -285h-52zM91 673h99l-20 -285h-52z" />
    <glyph glyph-name="numbersign" unicode="#" horiz-adv-x="568" 
d="M392 468h-136l-63 -244h136zM168 544h73l34 129h34l-33 -129h135l34 129h34l-33 -129h70l-20 -76h-70l-63 -244h70l-19 -76h-70l-38 -148h-35l38 148h-135l-38 -148h-35l38 148h-73l20 76h73l63 244h-73z" />
    <glyph glyph-name="dollar" unicode="$" horiz-adv-x="333" 
d="M145 630h21v-55q19 3 33 2q49 -3 89 -44l-41 -39q-68 46 -111 46q-25 0 -44 -13q-23 -15 -23 -40q0 -42 96 -58q58 -10 82 -24q33 -21 34 -64q1 -55 -31 -86q-19 -18 -84 -51v-90h-21v80q-8 -2 -33 -2t-52 16q-30 18 -38 43q-2 4 15 20q13 11 25 22q26 -42 45 -54
q15 -9 51 -9q64 0 64 59q0 43 -55 62q-50 13 -101 26q-54 19 -54 64q0 46 39 77q23 19 94 51v61z" />
    <glyph glyph-name="percent" unicode="%" horiz-adv-x="766" 
d="M641 48q-47 -48 -91 -48q-60 0 -91 56q-27 48 -28 124q-2 106 40 171.5t116 65.5q125 0 125 -163q0 -72 -14 -115q-16 -49 -57 -91zM655 221q0 23 1 30q-9 68 -21 93q-19 41 -64 41q-82 0 -82 -180q0 -167 89 -167q78 0 78 152q0 -1 -1 31zM281 308q-47 -48 -91 -48
q-60 0 -91 56q-27 48 -28 124q-2 106 40 171.5t116 65.5q125 0 125 -163q0 -72 -14 -115q-16 -49 -57 -91zM295 481q0 23 1 30q-9 68 -21 93q-19 41 -64 41q-82 0 -82 -180q0 -167 89 -167q78 0 78 152q0 -1 -1 31zM559 673h62l-420 -673h-42z" />
    <glyph glyph-name="ampersand" unicode="&#x26;" horiz-adv-x="744" 
d="M723 84q-12 -31 -62.5 -72t-81.5 -41q-34 0 -82 37l-72 60q-23 -24 -81 -50q-64 -29 -105 -29q-84 0 -157 53q-82 58 -82 143q0 65 48 104q32 26 126 64l-38 78q-20 45 -20 88q0 66 76 116q66 43 124 43q44 0 86 -66q38 -59 38 -100q0 -46 -53 -90q-2 -1 -97 -64
l184 -204q14 7 26.5 41t12.5 64q0 41 -14 59q-21 29 -82 23q10 20 34 34l221 2q-19 -20 -38 -39h-84q17 -15 18 -34q-1 16 -1 -33q0 -35 -35 -90q-33 -50 -32 -51q58 -87 125 -98q14 -2 77 65q23 -7 21 -13zM371 483q0 37 -35 89q-39 57 -78 57q-33 0 -56.5 -24.5
t-23.5 -61.5q0 -30 27 -84q31 -62 65 -62q38 0 69.5 25t31.5 61zM399 94q-156 159 -190 217q-5 7 -42 7q-38 0 -62 -24t-24 -58q0 -74 79 -134q73 -55 144 -55q65 0 95 47z" />
    <glyph glyph-name="quotesingle" unicode="'" horiz-adv-x="240" 
d="M90 673h100l-20 -285h-52z" />
    <glyph glyph-name="parenleft" unicode="(" horiz-adv-x="312" 
d="M208 693l35 -7q-118 -174 -118 -340q0 -169 122 -366h-39q-160 178 -160 359t160 354z" />
    <glyph glyph-name="parenright" unicode=")" horiz-adv-x="312" 
d="M97 -20l-35 8q118 173 118 340q0 168 -122 365h39q160 -177 160 -359q0 -181 -160 -354z" />
    <glyph glyph-name="asterisk" unicode="*" horiz-adv-x="458" 
d="M260 311h-57l12 151l-125 -86l-28 50l134 66l-134 64l28 49l125 -83l-12 148h57l-9 -146l122 81l29 -49l-134 -64l134 -66l-29 -50l-123 84z" />
    <glyph glyph-name="plus" unicode="+" horiz-adv-x="665" 
d="M64 337h239v239h41v-239h239v-41h-239v-239h-41v239h-239v41z" />
    <glyph glyph-name="comma" unicode="," horiz-adv-x="158" 
d="M119 107l-86 -186l-61 -26l61 182z" />
    <glyph glyph-name="hyphen" unicode="-" horiz-adv-x="273" 
d="M243 332l-28 -64l-204 -65l18 54z" />
    <glyph glyph-name="hyphen" unicode="&#x2010;" horiz-adv-x="273" 
d="M243 332l-28 -64l-204 -65l18 54z" />
    <glyph glyph-name="period" unicode="." horiz-adv-x="158" 
d="M119 97l-34 -77l-81 -27l29 74z" />
    <glyph glyph-name="slash" unicode="/" horiz-adv-x="518" 
d="M419 693h62l-450 -733h-42z" />
    <glyph glyph-name="zero" unicode="0" horiz-adv-x="649" 
d="M588 415q0 -119 -29 -191q-32 -78 -118 -147q-94 -78 -181 -78q-119 0 -181 90q-53 77 -57 202q-4 175 81.5 281t233.5 106q251 0 251 -263zM492 308q0 -3 -2 51q-2 42 1 49q-18 116 -44 160q-43 73 -144 73q-110 0 -153 -107q-28 -71 -28 -202q0 -286 197 -286
q96 0 140 88q33 68 33 174z" />
    <glyph glyph-name="one" unicode="1" horiz-adv-x="405" 
d="M348 30l-31 -30l-81 1h-207l35 31h59q27 0 27 26l-1 480q1 12 2 23q1 25 -1 40q-2 21 -10 21q-4 0 -39.5 -15.5t-38.5 -15.5l-23 -9q5 23 29 42q18 3 59 21q58 27 63 28q14 7 35 14h22l-1 -655z" />
    <glyph glyph-name="two" unicode="2" horiz-adv-x="583" 
d="M518 155l-90 -155h-422q14 25 46 68q13 6 37 21q46 36 91 71q52 42 87 78q126 130 125 245q-1 70 -38.5 109t-105.5 39q-49 -1 -77 -24q-22 -18 -37 -59.5t-30 -83.5q-2 -5 -84 -43q5 19 17 57l14 38q10 24 22 38q25 28 83.5 67t71.5 45q33 18 66 18q87 1 139 -37
q61 -44 62 -135q0 -79 -54 -148q-35 -44 -157 -150q-16 -13 -164 -130q16 -1 318 -1l57 68z" />
    <glyph glyph-name="three" unicode="3" horiz-adv-x="547" 
d="M424 112q-41 -43 -100 -82q-70 -45 -114 -45q-14 -1 -35 -1q-48 0 -96 29q-55 32 -79 84q14 14 27 28q17 15 31 21q28 -57 87 -85q49 -23 107 -23q11 -1 34 1q49 12 71 67q15 39 14 84q-1 142 -133 158q-20 2 -53 2q-11 0 -31 -3q13 18 41 45q8 5 46 11t57 20
q49 38 48 122q0 51 -37 77q-30 20 -73 19q-77 0 -121 -130l-82 -31q7 20 13 38q17 41 32 59q27 30 102 71q46 24 65 28q3 1 48 3q63 3 104 -24q49 -31 49 -93q1 -97 -145 -160q7 -5 60 -22q49 -16 73 -42q38 -40 38 -101q0 -74 -48 -125z" />
    <glyph glyph-name="four" unicode="4" horiz-adv-x="583" 
d="M544 237l-65 -63h-63v-142h92l-48 -32h-267l36 31l97 1l1 140h-314l1 21l303 464l103 43v-464zM326 616l-223 -382l224 1z" />
    <glyph glyph-name="five" unicode="5" horiz-adv-x="526" 
d="M481 710q-24 -43 -72 -127l-256 2l-40 -130l92 8q85 -3 149 -31q109 -47 113 -151q3 -78 -33 -137q-39 -63 -109 -108q-74 -49 -144 -49q-75 0 -127 46q-41 36 -41 49t49 66q25 -58 85 -87q49 -24 107 -24q64 0 95 60q24 47 24 118q0 24 -6 59q-7 39 -16.5 53.5
t-38.5 43.5q-18 12 -59 22t-71 10q-21 0 -56 -6q-57 -10 -72 -12q10 27 86 288l296 1q5 13 19 32q4 3 12.5 2t13.5 2z" />
    <glyph glyph-name="six" unicode="6" horiz-adv-x="566" 
d="M29 267q0 97 24 180q31 104 93 150q59 43 77 54q46 26 90 26q50 0 100.5 -22t78.5 -60l-47 -60q-92 98 -198 98q-62 0 -98 -118q-27 -88 -27 -169q0 -27 3 -44q75 69 83 75q45 31 105 31q77 0 132.5 -49.5t55.5 -126.5q0 -106 -71 -173.5t-179 -67.5q-222 0 -222 276z
M128 221q0 -83 35 -138q41 -64 120 -64q124 0 124 181q0 159 -129 159q-60 0 -105 -39.5t-45 -98.5z" />
    <glyph glyph-name="seven" unicode="7" horiz-adv-x="527" 
d="M483 673q-57 -89 -102 -176q-42 -82 -121 -239q-31 -66 -108 -235q-45 -19 -106 -42q38 76 117 226q101 173 230 374h-316l-34 -48l-26 1q23 40 79 139h387z" />
    <glyph glyph-name="eight" unicode="8" horiz-adv-x="533" 
d="M485 243q1 -64 -33 -109q-60 -79 -174 -133q-15 -7 -67 -8q-77 -2 -138 44q-65 48 -67 121q-1 98 66 148q22 16 92 40q-26 17 -52 33q-52 39 -53 101q-2 60 25.5 94t92 69.5t103.5 36.5q66 1 115 -27q59 -35 60 -100q1 -47 -37 -90q-26 -30 -85 -72q150 -56 152 -148z
M370 531q-1 58 -39.5 87t-94.5 28q-44 -1 -67.5 -30t-23.5 -70q2 -64 34 -91q19 -16 55 -34q40 -20 58 -20q43 1 64 55q15 37 14 75zM227 325q-3 0 -15 5.5t-16 5.5q-11 -1 -37 -15q-58 -31 -56 -131q3 -153 173 -151q37 1 78 35.5t44 70.5q1 16 1 30q0 62 -35.5 92
t-136.5 58z" />
    <glyph glyph-name="nine" unicode="9" horiz-adv-x="558" 
d="M501 401q0 -97 -24 -180q-31 -104 -91.5 -148.5t-78.5 -55.5q-46 -26 -90 -26q-51 0 -99 21q-52 23 -80 61l47 60q92 -98 198 -98q62 0 98 118q27 89 27 170q0 26 -3 44q-75 -70 -83 -75q-45 -32 -105 -32q-77 0 -132.5 49.5t-55.5 126.5q0 106 71 173.5t179 67.5
q222 0 222 -276zM402 447q0 84 -35 138q-41 65 -120 65q-124 0 -124 -182q0 -158 129 -158q60 0 105 39t45 98z" />
    <glyph glyph-name="colon" unicode=":" horiz-adv-x="158" 
d="M119 367l-34 -77l-81 -27l29 74zM119 97l-34 -77l-81 -27l29 74z" />
    <glyph glyph-name="semicolon" unicode=";" horiz-adv-x="158" 
d="M119 367l-34 -77l-81 -27l29 74zM119 107l-86 -186l-61 -26l61 182z" />
    <glyph glyph-name="less" unicode="&#x3c;" horiz-adv-x="413" 
d="M348 474l-294 -200l301 -163l2 38l-209 118l202 142z" />
    <glyph glyph-name="equal" unicode="=" horiz-adv-x="665" 
d="M64 227h519v-41h-519v41zM64 367h519v-41h-519v41z" />
    <glyph glyph-name="greater" unicode="&#x3e;" horiz-adv-x="413" 
d="M63 111l294 201l-301 162l-2 -38l209 -117l-202 -142z" />
    <glyph glyph-name="question" unicode="?" horiz-adv-x="558" 
d="M239 292q2 2 48 42q33 28 43 46q15 24 37 67q13 41 13 67q-1 50 -40 85q-41 39 -107 38q-70 -1 -98 -54q-15 -31 -23 -109q0 -7 -49 -25l-58 -22q5 19 17 57q8 19 15 38q9 24 21 38q25 28 84 67q54 36 75 47q37 18 70 19q81 0 137 -40t56 -104q0 -77 -57 -140
q-12 -13 -159 -140q-33 -29 -30 -95l-44 -18q-2 83 49 136zM261 109l-35 -77l-81 -27l30 74z" />
    <glyph glyph-name="at" unicode="@" horiz-adv-x="826" 
d="M467 207q-51 -82 -137 -82q-55 0 -92 37q-40 40 -40 108q0 102 71 177q65 69 141 69q72 0 100 -70l16 53h105l-55 -194q-19 -68 -19 -87q0 -18 7 -26q14 -15 43 -10q56 10 90 84q30 62 30 127q0 117 -89 185q-80 61 -197 61q-67 0 -127 -21q-114 -40 -180 -161
q-39 -72 -39 -172q0 -142 89 -224.5t233 -82.5q131 0 266 83l22 -36q-148 -94 -317 -94q-162 0 -268 104q-100 98 -108 239q-9 147 89 265q91 109 256 138q163 28 283 -41q134 -76 134 -239q0 -127 -70 -205q-61 -68 -138 -68q-86 0 -99 83zM310 239q-1 -27 12.5 -44
t36.5 -17q14 0 29 7q33 15 65 90q29 68 30 111q2 49 -18 63q-16 11 -32 11q-47 0 -88 -92q-34 -77 -35 -129z" />
    <glyph glyph-name="A" unicode="A" horiz-adv-x="767" 
d="M733 36l-30 -36l-277 1l35 38l80 1l-75 223h-200q-27 -64 -55 -129q-36 -77 -88 -95q39 -2 126 0l-35 -39h-191q18 20 37 38q19 -3 19 1q49 12 138 224h-37q9 0 -32 -5q13 12 59 41h24q54 149 129 346q5 11 78 61q39 -147 112 -368l98 -286q5 -16 21 -16h64zM460 297
l-81 282l-99 -282h180z" />
    <glyph glyph-name="B" unicode="B" horiz-adv-x="629" 
d="M566 233q0 -75 -110 -158q-98 -75 -149 -75h-317q15 21 33 40h49q34 0 43 29q7 24 8 146q1 94 -1 130q10 3 -54 2q7 11 50 37l1 251h-116l45 39h312q76 -2 127 -36q58 -40 58 -111q0 -87 -129 -151q150 -36 150 -143zM446 514q0 122 -186 120q-14 0 -40 1l1 -250
q-3 0 105 -1q51 0 87 45q33 40 33 85zM479 191q0 156 -192 156h-67l-2 -141q-1 -58 -8 -83q-13 -47 -54 -84h137q72 0 123 34q63 42 63 118z" />
    <glyph glyph-name="C" unicode="C" horiz-adv-x="660" 
d="M606 611l-127 -137l-9 31l57 58q-14 29 -92 49q-62 16 -109 16q-104 0 -156 -101q-41 -79 -41 -194q0 -126 57 -206q65 -91 186 -91q63 0 127 67q60 63 71 128q26 -7 26 -30q0 -6 -8 -27q-35 -90 -153 -163q-12 -7 -33 -16q-61 -11 -82 -11q-119 0 -199 69t-94 187
q-7 62 -7 87q0 64 29 121q40 79 143.5 152t191.5 80q63 5 132.5 -16t89.5 -53z" />
    <glyph glyph-name="D" unicode="D" horiz-adv-x="716" 
d="M653 381q0 -118 -64 -211q-22 -33 -113 -95q-110 -75 -176 -75h-307l44 39h38q31 0 39 39l2 557h-96l55 38h274q134 0 219 -80.5t85 -211.5zM314 635q-65 0 -73 -2q-20 -4 -23 -28q-2 -9 -2 -86v-408q5 -42 -59 -72q22 -3 55 -3q23 0 52 1.5t27 1.5q129 0 197 86
q63 80 63 221q0 128 -53 203q-61 86 -184 86z" />
    <glyph glyph-name="E" unicode="E" horiz-adv-x="581" 
d="M522 673l-110 -110l-11 29l43 43h-225q-14 -19 -14 -91v-161h273l-95 -113l-11 28l36 44h-201l1 -211q1 -44 -13 -63q-17 -14 -33 -29h280l66 77l31 3q-31 -50 -78 -118h-465l39 38q6 1 13 1q61 0 60 46v256h-78l37 36h41v196q-7 35 31 53l12 8h-135l40 38h466z" />
    <glyph glyph-name="F" unicode="F" horiz-adv-x="572" 
d="M532 673q-34 -34 -110 -113l-9 29l41 46h-225q-14 -19 -14 -91v-161h273l-95 -113l-11 28l36 44h-203l1 -211q1 -44 -12 -63q-2 -2 -32 -29h117l-34 -39h-259l39 39h60q12 1 16.5 10t6.5 37v256h-78l37 36h41v173q-4 55 25 70l21 14h-138l40 38h466z" />
    <glyph glyph-name="G" unicode="G" horiz-adv-x="720" 
d="M363 -6q58 24 92 47q23 14 71 49q27 22 88 54v174l46 -1l43 42h-266l-44 -42l115 1l1 -101q0 -4 1 -38q1 -24 0 -37q-2 -19 -7 -28q-15 -24 -79 -60q-26 -14 -53 -15q-120 0 -182 90q-53 77 -53 204q0 115 41 194q52 101 156 101q47 0 109 -16q78 -20 92 -49l-57 -58
l9 -27l127 133q-18 29 -102 51q-71 18 -120 18q-86 0 -193 -77q-101 -74 -142 -155q-28 -56 -28 -124q0 -30 6 -84q14 -118 93.5 -186t199.5 -68q15 -1 36 8z" />
    <glyph glyph-name="H" unicode="H" horiz-adv-x="691" 
d="M53 364h38v270h-92l36 39h255l-35 -38h-70v-271l298 1l-1 230q4 24 6 28l14 12h-101l33 38h241l-35 -38h-62v-596h86l-39 -39h-247l32 39h73v285h-299v-84q1 -63 1 -153q-5 -35 -23 -48h114l-32 -39h-250l31 39q16 -3 66 0v285h-73z" />
    <glyph glyph-name="I" unicode="I" horiz-adv-x="305" 
d="M182 88q-4 -35 -23 -49h114l-32 -39h-251l37 39h59v596l-91 -1l35 39h257l-35 -38h-70v-547z" />
    <glyph glyph-name="J" unicode="J" horiz-adv-x="500" 
d="M381 172q0 -32 -88.5 -107t-113.5 -75q-60 0 -111 57t-51 120q0 28 68 108q-1 -10 -1 -21q0 -70 38 -126q43 -64 110 -64q36 0 45 29q4 11 4 53v489l-93 -1l35 39h257l-35 -38h-63z" />
    <glyph glyph-name="K" unicode="K" horiz-adv-x="646" 
d="M198 93q-5 -42 -22 -54h114l-32 -39h-251l31 39q16 -3 65 0l-1 596h-87l38 38h251l-38 -38h-68l-2 -273l266 273q-17 0 -49 -1h-48q15 12 41 39h216l-41 -38h-70q-76 -82 -226 -240q11 4 42 4q40 0 86 -89l72 -166q39 -89 63 -89q19 0 54 43q1 0 17 -10q-19 -35 -54 -62
q-40 -32 -74 -32q-49 0 -97 95l-74 176q-39 94 -68 94q-9 0 -56 -47z" />
    <glyph glyph-name="L" unicode="L" horiz-adv-x="540" 
d="M-2 0l25 39q4 -1 34 0q47 0 51 49v547h-93l33 38h257l-33 -38h-69v-535l-6 -30q-7 -20 -29 -31h124q88 -1 86 -1l107 141h31q-43 -80 -102 -178z" />
    <glyph glyph-name="M" unicode="M" horiz-adv-x="859" 
d="M814 673h-210l-184 -550q-58 169 -178 550h-174l-41 -38h97v-533q-27 -63 -54 -63h-27l-44 -39h205l47 39h-117q32 22 32 58v516q51 -143 195 -617l65 48l189 560v-565q0 -4 -81 0l-38 -39h277l41 39h-105v596h64z" />
    <glyph glyph-name="N" unicode="N" horiz-adv-x="685" 
d="M664 673l-37 -39l-73 1v-603l-68 -53l-342 628v-568h116l-35 -39h-229l38 39h70l-1 595l-96 1l32 38h173l301 -553v515h-108l29 38h230z" />
    <glyph glyph-name="O" unicode="O" horiz-adv-x="778" 
d="M732 403q0 -167 -123 -292.5t-276 -125.5q-154 0 -244 85.5t-90 235.5q0 164 121 276q118 109 284 109q145 0 229 -64q99 -74 99 -224zM627 362q0 140 -62 215q-71 87 -217 77q-127 -8 -194 -118q-56 -90 -56 -215q0 -113 63 -194q74 -94 204 -94q144 0 211 109
q51 85 51 220z" />
    <glyph glyph-name="P" unicode="P" horiz-adv-x="606" 
d="M123 309h-72l32 38h40l1 288h-99q32 38 46 38h306q69 0 124 -39q59 -43 61 -105q2 -67 -76 -145t-149 -78h-116v-236q-2 -16 -8 -21t-14 -10h114l-32 -39h-281l31 39q16 -3 60 0q24 0 30 31q0 1 1 29q1 14 1 210zM467 507q-2 81 -73 110q-43 18 -127 18h-45l-1 -288h69
q96 0 132 25q49 34 45 135z" />
    <glyph glyph-name="Q" unicode="Q" horiz-adv-x="770" 
d="M718 387q0 -84 -46 -169q-52 -98 -148 -156q23 -26 93 -84l-35 -34q-94 98 -98 98q-86 -52 -172 -52q-142 0 -227 97q-78 89 -78 218q0 172 130 282q123 103 296 103q130 0 210 -94q75 -87 75 -209zM613 387q-6 118 -83 191q-74 70 -177 70q-127 0 -191 -102
q-50 -79 -50 -189q0 -122 48 -204q66 -115 209 -115q31 0 92 24q-13 13 -48 41l36 35q19 -21 55 -53q53 43 84 125q22 58 25 104q3 33 0 73z" />
    <glyph glyph-name="R" unicode="R" horiz-adv-x="661" 
d="M646 61q-11 -45 -49 -66q-28 -16 -60 -16q-54 0 -100 87q-38 80 -77 160q-50 87 -117 87h-20v-225q0 -30 -27 -49h120l-35 -39h-274l40 39h57q20 -3 24 23v249h-77l41 35h39v289q-22 1 -19 1t-82 -1l53 38h267q204 0 204 -147q0 -120 -186 -207q43 0 85 -72
q33 -66 66 -133q39 -72 74 -72q14 0 22 8q10 15 20 29q12 -12 11 -18zM457 493q0 78 -58 114q-45 28 -117 28h-59v-286h121q52 0 85 49q28 43 28 95z" />
    <glyph glyph-name="S" unicode="S" horiz-adv-x="532" 
d="M465 612q-18 -24 -62 -67q-54 -54 -63 -64q-3 5 -6 36l58 45q-28 41 -43 50q-38 22 -132 17q-41 -2 -76 -32q-38 -33 -36 -76q3 -61 99 -91q89 -26 178 -51q96 -42 101 -131q4 -86 -92 -175q-91 -85 -172 -87q-66 -1 -122 21q-74 28 -77 84q0 10 98 130l11 -29
q-43 -37 -42 -51q2 -47 84 -75q61 -20 100 -18q61 3 94 36t33 82q0 10 -1 21q-8 54 -78 88q-30 15 -116 40q-154 37 -160 148q-5 89 86 158q81 60 168 65q36 2 87.5 -21t80.5 -53z" />
    <glyph glyph-name="T" unicode="T" horiz-adv-x="567" 
d="M318 632q86 3 147 -8v-157l44 33v174l-475 1v-212l43 54v107q53 11 142 8v-594l-66 1l-37 -39h261l32 39h-114q19 14 23 49v544z" />
    <glyph glyph-name="U" unicode="U" horiz-adv-x="710" 
d="M674 673l-42 -38h-52v-568l-92 -67v123q-64 -67 -90 -85q-62 -45 -132 -45q-111 0 -155 124q-22 63 -22 132v386h-78l50 38h228l-50 -38h-54l1 -372q0 -62 11 -107q27 -107 109 -107q184 0 184 255q0 15 -1 37v27q1 127 -1 267h-80l51 38h215z" />
    <glyph glyph-name="V" unicode="V" horiz-adv-x="664" 
d="M654 673l-39 -38h-69l-193 -549l6 -19l-80 -73l-197 641h-95l44 38h272l-46 -38h-63l150 -515l156 515l-96 -1l42 39h208z" />
    <glyph glyph-name="W" unicode="W" horiz-adv-x="1025" 
d="M330 635l48 38h269l-39 -38h-73q-12 45 152 -515l156 515l-96 -1l42 39h208l-39 -38h-69l-193 -549l6 -19l-80 -73l-144 467l-132 -375l6 -19l-80 -73l-197 641h-95l44 39h272l-46 -39h-63l150 -515l122 404l-34 111h-95z" />
    <glyph glyph-name="X" unicode="X" horiz-adv-x="683" 
d="M643 673l-35 -38h-67l-179 -256l194 -340h82l-43 -40h-265l35 40h73l-129 244l-156 -244h116l-38 -39h-231l39 39h56l195 275l-188 321h-100l35 38h285l-33 -38h-64l120 -222l141 222h-104l35 38h226z" />
    <glyph glyph-name="Y" unicode="Y" horiz-adv-x="691" 
d="M268 302l-185 333q-46 3 -89 0q15 13 42 38h266l-42 -38q-55 2 -65 0l145 -276l174 276h-109l36 38h231q-13 -11 -42 -38h-64l-197 -310l-1 -239q0 -30 -28 -47h120l-34 -39h-275l40 39h77v263z" />
    <glyph glyph-name="Z" unicode="Z" horiz-adv-x="629" 
d="M458 635h-229q-31 7 -57 -19q-9 -8 -70 -74l-17 16l75 115h393q26 4 26 -13q0 -6 -6 -13q-149 -224 -396 -608h225q39 -7 65 19q8 8 86 121l15 -18l-89 -161h-420q-20 0 -16 20q0 11 415 615z" />
    <glyph glyph-name="bracketleft" unicode="[" horiz-adv-x="256" 
d="M97 -2q-4 -35 -23 -49h134l-32 -39h-176v803h207l-40 -38h-70v-677z" />
    <glyph glyph-name="backslash" unicode="\" horiz-adv-x="518" 
d="M51 693h-62l450 -733h42z" />
    <glyph glyph-name="bracketright" unicode="]" horiz-adv-x="256" 
d="M110 626q4 34 23 48h-133l32 39h176v-803l-207 1l39 38h70v677z" />
    <glyph glyph-name="asciicircum" unicode="^" horiz-adv-x="468" 
d="M348 725l-7 -19l-122 43l-121 -43l-6 16l125 95l2 -1l3 1l1 -2z" />
    <glyph glyph-name="underscore" unicode="_" horiz-adv-x="596" 
d="M0 -83h596v-38h-596v38z" />
    <glyph glyph-name="grave" unicode="`" horiz-adv-x="581" 
d="M239 838q155 -130 154 -133q0 -3 -3.5 -8.5t-5.5 -3.5q-93 39 -190 83q-10 10 -10 24q0 16 11.5 29.5t26.5 13.5q9 0 17 -5z" />
    <glyph glyph-name="a" unicode="a" horiz-adv-x="418" 
d="M421 55q-20 -17 -38 -30q-41 -29 -57 -29q-43 -1 -59 39q-6 14 -16 47q-67 -88 -120 -89q-55 -1 -90 45q-29 38 -30 84q-1 86 74 168q72 79 142 80q-3 0 60 -11t95 -10q-15 -17 -52 -43v-185q1 -78 37 -78q7 1 44 29zM255 313q-52 16 -71 16q-63 -1 -87 -82
q-13 -46 -12 -111q0 -31 13 -57q18 -37 54 -37q52 1 80 44q24 36 22 86q1 70 1 141z" />
    <glyph glyph-name="b" unicode="b" horiz-adv-x="430" 
d="M401 225q2 -82 -64.5 -153t-134.5 -72h-204l27 32h41v588l-54 -22l-9 26l138 60l1 -376q27 16 53 33q30 18 74 19q63 1 99 -39q32 -37 33 -96zM328 190q-1 52 -23 86q-28 44 -83 43q-62 -1 -79 -54q-8 -24 -7 -89l-1 -138q23 -7 67 -6q17 1 42 1q42 1 66 60q19 47 18 97z
" />
    <glyph glyph-name="c" unicode="c" horiz-adv-x="339" 
d="M310 320l-47 -45q-49 64 -97 63q-49 -1 -74 -69q-18 -46 -17 -84q1 -61 31 -100q33 -42 92 -41q45 1 101 60l13 -18q-28 -37 -74 -64q-51 -31 -92 -28q-68 4 -109 59q-35 46 -36 102q-1 85 61.5 150.5t147.5 64.5q53 -1 100 -50z" />
    <glyph glyph-name="d" unicode="d" horiz-adv-x="415" 
d="M407 46l-132 -46q-2 21 0 58q-1 0 -4 -2q-42 -34 -63 -44q-34 -18 -75 -18q-58 0 -94 53q-33 47 -33 108q0 78 56 146.5t133 68.5q21 0 41 -9t39 -18l-1 283q-20 -5 -55 -24l-8 22l134 56v-632l62 24v-26zM197 344q-52 0 -86 -51q-30 -45 -30 -100q0 -56 21 -99
q27 -54 77 -54q56 0 82 63q18 44 18 111q0 130 -82 130z" />
    <glyph glyph-name="e" unicode="e" horiz-adv-x="353" 
d="M337 277q1 -24 -31 -41q-24 -13 -42 -14h-177q-5 5 -4 -52q1 -46 19 -82q27 -51 83 -50q44 1 73 16t63 56l16 -14q-23 -24 -43 -42q-49 -44 -79 -54q-16 -5 -50 -6q-73 -1 -115 53q-38 49 -38 117q0 52 23 88q27 49 82 84q52 32 92 32q37 0 76 -20q52 -26 52 -71z
M257 274q0 28 -30 45q-24 14 -51 14q-27 -1 -54 -25t-33 -60h164q5 5 4 26z" />
    <glyph glyph-name="f" unicode="f" horiz-adv-x="306" 
d="M306 650l-54 -51q-22 50 -58 49q-35 -1 -43 -75q0 -47 -1 -93q-1 -38 0 -121h88l-27 -31h-62l1 -296l81 -1l-30 -31h-201l34 32h50v296h-84l26 31h58q1 98 0 165q-1 68 32 110q40 51 123 48q44 -2 67 -32z" />
    <glyph glyph-name="g" unicode="g" horiz-adv-x="381" 
d="M365 365q-36 -46 -32 -103v-364q-2 -59 -74 -132.5t-134 -73.5q-59 0 -103 36t-44 87q0 43 41 84t88 49l21 -19q-30 -14 -59 -28q-23 -15 -23 -58q0 -48 30 -76.5t88 -28.5q44 0 67 36q17 27 23 72q3 25 5 51q3 14 3 39q0 21 -3 63.5t-3 55.5q0 18 3 22q-34 -49 -54 -67
q-31 -27 -69 -27q-60 0 -100 61q-34 52 -34 110q0 77 59 142q64 71 158 71q32 -11 76 -11q36 0 70 9zM275 323q-57 10 -94 10q-56 0 -82 -72q-18 -48 -18 -107q0 -122 84 -122q48 0 72 81q18 62 18 155q0 17 6 29q11 19 14 26z" />
    <glyph glyph-name="h" unicode="h" horiz-adv-x="482" 
d="M476 31l-26 -30h-180l32 30l30 1v179q-1 54 -13 78q-19 38 -71 38q-59 0 -102 -87l-3 -208h75l-30 -32h-194l27 32h49v614q-18 -6 -59 -19q0 1 -1.5 6.5t-1.5 10.5q40 15 133 51v-398q74 67 139 67q47 0 85 -32t40 -80q-1 -56 0 -166v-55h71z" />
    <glyph glyph-name="i" unicode="i" horiz-adv-x="242" 
d="M168 537l-35 -77l-71 -27l30 74zM212 32l-31 -32h-175l30 32h46v278l-56 -24v28l124 60l-1 -342h63z" />
    <glyph glyph-name="j" unicode="j" horiz-adv-x="228" 
d="M165 364v-385q7 -86 -26 -117q-86 -81 -142 -81q-29 0 -58 21t-46 53q60 44 63 40q58 -73 103 -73q35 0 35 104q0 24 -2 46l1 334l-64 -26l-9 22zM169 537l-34 -77l-71 -27l29 74z" />
    <glyph glyph-name="k" unicode="k" horiz-adv-x="467" 
d="M459 59q-49 -46 -56 -51q-25 -20 -40 -16q-29 -4 -50 52q-35 95 -40 105q-33 55 -90 51q-14 -2 -33 -28v-140h79l-32 -32l-199 1l33 31q30 1 46 0l-1 608l-67 -29l-15 26l158 64l1 -484l128 110l-71 1l45 31h178l-26 -32h-79l-111 -99q8 2 18 2q12 0 60 -11q23 -4 61 -89
t47 -85q4 0 6 5l30 26z" />
    <glyph glyph-name="l" unicode="l" horiz-adv-x="250" 
d="M235 31l-35 -31h-203l41 31h45v594l-58 -26l-14 24l149 66l-1 -658h76z" />
    <glyph glyph-name="m" unicode="m" horiz-adv-x="750" 
d="M736 33l-18 -33h-183l25 32h44v150q0 66 -5 82q-14 55 -72 55q-67 0 -116 -86v-201h69l-25 -32h-183l28 33l42 -1v221q0 34 -26 55q-22 18 -51 18q-74 0 -114 -77v-217h55l-33 -32h-179l31 32h52l-1 276l-64 -20l-9 17l146 58v-60q101 59 151 59q43 0 71 -21
q19 -14 29.5 -36.5t9.5 -22.5q26 24 49 40q57 40 102 41q72 3 97 -47q15 -30 15 -98l-1 -186z" />
    <glyph glyph-name="n" unicode="n" horiz-adv-x="494" 
d="M413 32h67l-25 -32h-183l28 33l42 -1v221q0 34 -26 55q-22 18 -51 18q-74 0 -114 -77v-217h55l-33 -32h-179l31 32h52l-1 276l-64 -20l-9 17l146 58v-60q101 59 151 59q62 0 93 -41q22 -29 19 -50z" />
    <glyph glyph-name="o" unicode="o" horiz-adv-x="387" 
d="M371 231q0 -91 -69.5 -163t-160.5 -72q-66 0 -105 53q-34 45 -34 103q0 80 71.5 147t153.5 67q59 0 101.5 -36t42.5 -99zM300 188q0 51 -27 91q-34 50 -95 50q-96 0 -96 -158q0 -53 23 -90q28 -48 84 -48q62 0 90 56q21 41 21 99z" />
    <glyph glyph-name="p" unicode="p" horiz-adv-x="467" 
d="M435 229q0 -99 -77 -166q-71 -63 -165 -63h-37l-1 -45l1 -210h92l-30 -32h-220l29 32h62v255h-67l42 31l23 1v264l-62 -32l-11 23l129 76h18q-2 -18 0 -62q7 2 60 39q39 27 84 27q63 0 98 -43q32 -39 32 -95zM350 196q0 54 -12 80q-20 42 -77 42q-46 0 -76 -34t-29 -80
v-172h44q150 0 150 164z" />
    <glyph glyph-name="q" unicode="q" horiz-adv-x="401" 
d="M441 -278q-15 -13 -29 -25q-10 -7 -26 -7q-70 0 -116 4q0 7 3 30.5t3 26.5v105l2 193q-12 -6 -73 -43q-33 -20 -60 -20q-64 0 -106 47q-39 43 -39 101q0 92 80 161q76 66 167 66q-14 0 81 -3q74 -2 74 1q0 -4 -16 -23q-19 -23 -24 -31q-12 -18 -12 -111l1 -471
q18 1 90 -1zM302 326q-18 2 -54 1q-45 -3 -38 -3q-131 0 -131 -167q0 -24 21 -67q26 -55 63 -55q64 0 89.5 28t25.5 89q0 102 -1 86q3 52 25 88z" />
    <glyph glyph-name="r" unicode="r" horiz-adv-x="325" 
d="M320 357l-46 -69q-43 17 -52 17q-70 0 -70 -104l1 -169q3 -3 104 0q-6 -10 -22 -32h-243l17 32q42 -4 74 0v283q-70 -26 -78 -26q-2 15 -4 31q44 14 147 57q10 -12 8 -26v-46q7 -4 26 14q30 29 38 35q26 20 48 20q28 0 52 -17z" />
    <glyph glyph-name="s" unicode="s" horiz-adv-x="294" 
d="M283 336l-47 -42q-39 27 -48 32q-27 14 -54 14q-25 0 -44 -13q-23 -15 -23 -40q0 -42 95 -58q59 -10 83 -24q34 -21 34 -64q0 -47 -37 -83q-29 -28 -96 -62q-8 -4 -56 -4q-25 0 -54 17t-37 42q-1 4 16 20q13 11 25 22q24 -40 51 -52q17 -7 58 -7q71 0 71 55q0 43 -55 62
q-51 13 -101 26q-55 19 -55 64q0 47 41 79q23 17 98 51q21 10 43 10q14 0 92 -45z" />
    <glyph glyph-name="t" unicode="t" horiz-adv-x="284" 
d="M272 68q0 -8 -43 -42q-34 -28 -45 -35t-26 -7q-30 0 -56.5 28.5t-25.5 55.5q1 36 0 92q-2 76 -2 91v64h-82l20 44h61v139l67 27l1 -166h109l-26 -46h-82v-201q0 -69 62 -69q30 0 55 40q3 0 8 -4.5t5 -10.5z" />
    <glyph glyph-name="u" unicode="u" horiz-adv-x="476" 
d="M63 324l-67 -20v30l137 40v-264q0 -34 25 -54q22 -19 51 -19q74 0 114 77v207l-58 -20v33l131 40v-324l70 33v-27l-141 -56v61q-101 -60 -151 -60q-62 0 -93 41q-21 29 -18 51v231z" />
    <glyph glyph-name="v" unicode="v" horiz-adv-x="439" 
d="M426 359l-28 -33h-46l-120 -270l8 -29q-17 -19 -50 -50l-139 349q-21 2 -68 0l32 33h201l-30 -33h-56l90 -239l102 239h-62l27 33h139z" />
    <glyph glyph-name="w" unicode="w" horiz-adv-x="626" 
d="M214 87q44 115 65 153q10 18 20 37l-20 49l52 37l99 -276l92 239h-56l25 33h125l-26 -33h-41l-109 -270l8 -29q-15 -19 -44 -50l-95 267l-85 -188l8 -29q-15 -19 -44 -50l-125 349q-19 2 -62 0l30 33h179l-27 -33h-50z" />
    <glyph glyph-name="x" unicode="x" horiz-adv-x="451" 
d="M345 326h55l16 31h-137l-18 -31h50l-80 -97l-59 97h40l22 33h-191l-23 -33h62l104 -159l-114 -135h-55l-17 -31h138l17 31h-49l97 113l72 -113h-40l-22 -32h190l23 32h-62l-118 177z" />
    <glyph glyph-name="y" unicode="y" horiz-adv-x="467" 
d="M436 326h-51l-132 -262l12 -36l-37 -23l-74 -169h95l-28 -36h-187l28 36h59l77 164l-132 326h-69l22 33h196l-25 -33h-43l92 -231l111 232l-76 -1l20 33h160z" />
    <glyph glyph-name="z" unicode="z" horiz-adv-x="425" 
d="M105 70h215q13 11 44 39q4 0 19 -11l-92 -99l-291 1q7 13 55 65q81 75 239 230h-202l-55 -40l-14 16l103 88h279z" />
    <glyph glyph-name="braceleft" unicode="{" horiz-adv-x="300" 
d="M134 307q81 -48 81 -170q0 -20 -2.5 -58t-2.5 -54q0 -49 15 -72q18 -30 64 -34v-19h-18q-71 0 -100 39q-22 30 -22 94q0 18 2.5 58t2.5 59q0 119 -81 146v22q81 28 81 136q0 21 -3.5 64t-3.5 63q0 64 26 95q33 39 117 39v-20q-47 -4 -65 -34q-15 -23 -15 -71
q0 -17 2.5 -55t2.5 -58q0 -122 -81 -170z" />
    <glyph glyph-name="bar" unicode="|" horiz-adv-x="135" 
d="M20 -119v846h63v-846h-63z" />
    <glyph glyph-name="braceright" unicode="}" horiz-adv-x="301" 
d="M213 307q-80 -48 -80 -170q0 -20 2 -58t2 -54q0 -49 -15 -72q-18 -30 -64 -34v-19h18q72 0 100 39q22 30 22 94q0 18 -2.5 58t-2.5 59q0 119 81 146v22q-81 28 -81 136q0 21 3.5 64t3.5 63q0 64 -26 95q-33 39 -117 39v-20q47 -4 66 -34q14 -23 14 -71q0 -17 -2 -55
t-2 -58q0 -122 80 -170z" />
    <glyph glyph-name="asciitilde" unicode="~" horiz-adv-x="685" 
d="M258 755q-60 0 -60 -21l-23 -1q0 28 33 53q31 22 60 22q25 0 54.5 -18t62.5 -18q30 0 55 28h24q0 -28 -35.5 -53t-65.5 -25q-23 0 -50.5 16.5t-54.5 16.5z" />
    <glyph glyph-name="Adieresis" unicode="&#xc4;" horiz-adv-x="767" 
d="M733 36l-30 -36l-277 1l35 38l80 1l-75 223h-200q-27 -64 -55 -129q-36 -77 -88 -95q39 -2 126 0l-35 -39h-191q18 20 37 38q19 -3 19 1q49 12 138 224h-37q9 0 -32 -5q13 12 59 41h24q54 149 129 346q5 11 78 61q39 -147 112 -368l98 -286q5 -16 21 -16h64zM460 297
l-81 282l-99 -282h180zM444 775q0 22 16.5 38t38.5 16q23 0 39 -16t16 -38q0 -23 -16 -39t-39 -16q-22 0 -38.5 16t-16.5 39zM254 775q0 22 16.5 38t38.5 16q23 0 39 -16t16 -38q0 -23 -16 -39t-39 -16q-22 0 -38.5 16t-16.5 39z" />
    <glyph glyph-name="Aring" unicode="&#xc5;" horiz-adv-x="767" 
d="M733 36l-30 -36l-277 1l35 38l80 1l-75 223h-200q-27 -64 -55 -129q-36 -77 -88 -95q39 -2 126 0l-35 -39h-191q18 20 37 38q19 -3 19 1q49 12 138 224h-37q9 0 -32 -5q13 12 59 41h24q54 149 129 346q5 11 78 61q39 -147 112 -368l98 -286q5 -16 21 -16h64zM460 297
l-81 282l-99 -282h180zM409 877q30 0 51 -21.5t21 -50.5q0 -30 -21 -51.5t-51 -21.5t-51 21.5t-21 51.5q0 29 21 50.5t51 21.5zM409 842q-15 0 -26 -11t-11 -26q0 -16 11 -27t26 -11q16 0 26.5 11t10.5 27q0 15 -10.5 26t-26.5 11z" />
    <glyph glyph-name="Ccedilla" unicode="&#xc7;" horiz-adv-x="660" 
d="M293 -208q-11 0 -79 22l21 31q31 -18 76 -18q61 0 61 49q0 31 -56 31q-10 0 -59 1q5 26 14 79q-101 14 -166.5 81t-77.5 172q-7 62 -7 87q0 64 29 121q40 79 143.5 152t191.5 80q63 5 132.5 -16t89.5 -53l-127 -137l-9 31l57 58q-14 29 -92 49q-62 16 -109 16
q-104 0 -156 -101q-41 -79 -41 -194q0 -126 57 -206q65 -91 186 -91q63 0 127 67q60 63 71 128q26 -7 26 -30q0 -6 -8 -27q-35 -90 -153 -163q-12 -7 -33 -16q-61 -11 -82 -11h-14l-11 -46q60 9 56 9q45 0 61 -21q11 -15 11 -50q0 -84 -130 -84z" />
    <glyph glyph-name="Eacute" unicode="&#xc9;" horiz-adv-x="581" 
d="M522 673l-110 -110l-11 29l43 43h-225q-14 -19 -14 -91v-161h273l-95 -113l-11 28l36 44h-201l1 -211q1 -44 -13 -63q-17 -14 -33 -29h280l66 77l31 3q-31 -50 -78 -118h-465l39 38q6 1 13 1q61 0 60 46v256h-78l37 36h41v196q-7 35 31 53l12 8h-135l40 38h466zM339 838
q-155 -130 -155 -133q1 -3 4.5 -8.5t5.5 -3.5q93 39 190 83q9 10 9 24q0 16 -11 29.5t-27 13.5q-8 0 -16 -5z" />
    <glyph glyph-name="Ntilde" unicode="&#xd1;" horiz-adv-x="685" 
d="M664 673l-37 -39l-73 1v-603l-68 -53l-342 628v-568h116l-35 -39h-229l38 39h70l-1 595l-96 1l32 38h173l301 -553v515h-108l29 38h230zM258 755q-60 0 -60 -21l-23 -1q0 28 33 53q31 22 60 22q25 0 54.5 -18t62.5 -18q30 0 55 28h24q0 -28 -35.5 -53t-65.5 -25
q-23 0 -50.5 16.5t-54.5 16.5z" />
    <glyph glyph-name="Odieresis" unicode="&#xd6;" horiz-adv-x="778" 
d="M732 403q0 -167 -123 -292.5t-276 -125.5q-154 0 -244 85.5t-90 235.5q0 164 121 276q118 109 284 109q145 0 229 -64q99 -74 99 -224zM627 362q0 140 -62 215q-71 87 -217 77q-127 -8 -194 -118q-56 -90 -56 -215q0 -113 63 -194q74 -94 204 -94q144 0 211 109
q51 85 51 220zM424 775q0 22 16.5 38t38.5 16q23 0 39 -16t16 -38q0 -23 -16 -39t-39 -16q-22 0 -38.5 16t-16.5 39zM234 775q0 22 16.5 38t38.5 16q23 0 39 -16t16 -38q0 -23 -16 -39t-39 -16q-22 0 -38.5 16t-16.5 39z" />
    <glyph glyph-name="Udieresis" unicode="&#xdc;" horiz-adv-x="710" 
d="M674 673l-42 -38h-52v-568l-92 -67v123q-64 -67 -90 -85q-62 -45 -132 -45q-111 0 -155 124q-22 63 -22 132v386h-78l50 38h228l-50 -38h-54l1 -372q0 -62 11 -107q27 -107 109 -107q184 0 184 255q0 15 -1 37v27q1 127 -1 267h-80l51 38h215zM374 775q0 22 16.5 38
t38.5 16q23 0 39 -16t16 -38q0 -23 -16 -39t-39 -16q-22 0 -38.5 16t-16.5 39zM184 775q0 22 16.5 38t38.5 16q23 0 39 -16t16 -38q0 -23 -16 -39t-39 -16q-22 0 -38.5 16t-16.5 39z" />
    <glyph glyph-name="aacute" unicode="&#xe1;" horiz-adv-x="418" 
d="M421 55q-20 -17 -38 -30q-41 -29 -57 -29q-43 -1 -59 39q-6 14 -16 47q-67 -88 -120 -89q-55 -1 -90 45q-29 38 -30 84q-1 86 74 168q72 79 142 80q-3 0 60 -11t95 -10q-15 -17 -52 -43v-185q1 -78 37 -78q7 1 44 29zM255 313q-52 16 -71 16q-63 -1 -87 -82
q-13 -46 -12 -111q0 -31 13 -57q18 -37 54 -37q52 1 80 44q24 36 22 86q1 70 1 141zM266 533q-127 -114 -126 -116q0 -3 3 -8t4 -3q80 31 162 65q8 8 8 20q0 16 -12 30.5t-27 14.5q-6 0 -12 -3z" />
    <glyph glyph-name="agrave" unicode="&#xe0;" horiz-adv-x="418" 
d="M421 55q-20 -17 -38 -30q-41 -29 -57 -29q-43 -1 -59 39q-6 14 -16 47q-67 -88 -120 -89q-55 -1 -90 45q-29 38 -30 84q-1 86 74 168q72 79 142 80q-3 0 60 -11t95 -10q-15 -17 -52 -43v-185q1 -78 37 -78q7 1 44 29zM255 313q-52 16 -71 16q-63 -1 -87 -82
q-13 -46 -12 -111q0 -31 13 -57q18 -37 54 -37q52 1 80 44q24 36 22 86q1 70 1 141zM175 533q127 -114 126 -116q0 -3 -3 -8t-4 -3q-80 31 -162 65q-8 8 -8 20q0 16 12 30.5t27 14.5q6 0 12 -3z" />
    <glyph glyph-name="acircumflex" unicode="&#xe2;" horiz-adv-x="418" 
d="M421 55q-20 -17 -38 -30q-41 -29 -57 -29q-43 -1 -59 39q-6 14 -16 47q-67 -88 -120 -89q-55 -1 -90 45q-29 38 -30 84q-1 86 74 168q72 79 142 80q-3 0 60 -11t95 -10q-15 -17 -52 -43v-185q1 -78 37 -78q7 1 44 29zM255 313q-52 16 -71 16q-63 -1 -87 -82
q-13 -46 -12 -111q0 -31 13 -57q18 -37 54 -37q52 1 80 44q24 36 22 86q1 70 1 141zM339 433l-8 -19l-121 43l-121 -43l-6 16l125 96l2 -1l2 1l1 -3z" />
    <glyph glyph-name="adieresis" unicode="&#xe4;" horiz-adv-x="418" 
d="M421 55q-20 -17 -38 -30q-41 -29 -57 -29q-43 -1 -59 39q-6 14 -16 47q-67 -88 -120 -89q-55 -1 -90 45q-29 38 -30 84q-1 86 74 168q72 79 142 80q-3 0 60 -11t95 -10q-15 -17 -52 -43v-185q1 -78 37 -78q7 1 44 29zM255 313q-52 16 -71 16q-63 -1 -87 -82
q-13 -46 -12 -111q0 -31 13 -57q18 -37 54 -37q52 1 80 44q24 36 22 86q1 70 1 141zM246 474q0 19 14 32.5t33 13.5t32.5 -13.5t13.5 -32.5t-13.5 -33t-32.5 -14t-33 14t-14 33zM85 474q0 19 13.5 32.5t32.5 13.5q20 0 33.5 -13.5t13.5 -32.5t-13.5 -33t-33.5 -14
q-19 0 -32.5 14t-13.5 33z" />
    <glyph glyph-name="atilde" unicode="&#xe3;" horiz-adv-x="418" 
d="M421 55q-20 -17 -38 -30q-41 -29 -57 -29q-43 -1 -59 39q-6 14 -16 47q-67 -88 -120 -89q-55 -1 -90 45q-29 38 -30 84q-1 86 74 168q72 79 142 80q-3 0 60 -11t95 -10q-15 -17 -52 -43v-185q1 -78 37 -78q7 1 44 29zM255 313q-52 16 -71 16q-63 -1 -87 -82
q-13 -46 -12 -111q0 -31 13 -57q18 -37 54 -37q52 1 80 44q24 36 22 86q1 70 1 141zM159 449q-61 0 -61 -21l-22 -1q0 28 33 52q30 23 60 23q24 0 53.5 -18t63.5 -18q29 0 55 28h24q0 -28 -35.5 -53t-65.5 -25q-23 0 -50.5 16.5t-54.5 16.5z" />
    <glyph glyph-name="aring" unicode="&#xe5;" horiz-adv-x="418" 
d="M421 55q-20 -17 -38 -30q-41 -29 -57 -29q-43 -1 -59 39q-6 14 -16 47q-67 -88 -120 -89q-55 -1 -90 45q-29 38 -30 84q-1 86 74 168q72 79 142 80q-3 0 60 -11t95 -10q-15 -17 -52 -43v-185q1 -78 37 -78q7 1 44 29zM255 313q-52 16 -71 16q-63 -1 -87 -82
q-13 -46 -12 -111q0 -31 13 -57q18 -37 54 -37q52 1 80 44q24 36 22 86q1 70 1 141zM209 557q30 0 51 -21.5t21 -50.5q0 -30 -21 -51.5t-51 -21.5t-51 21.5t-21 51.5q0 29 21 50.5t51 21.5zM209 522q-15 0 -26 -11t-11 -26q0 -16 11 -27t26 -11q16 0 26.5 11t10.5 27
q0 15 -10.5 26t-26.5 11z" />
    <glyph glyph-name="ccedilla" unicode="&#xe7;" horiz-adv-x="339" 
d="M310 320l-47 -45q-49 64 -97 63q-49 -1 -74 -69q-18 -46 -17 -84q1 -61 31 -100q33 -42 92 -41q45 1 101 60l13 -18q-26 -34 -68 -60q-46 -30 -86 -32l-9 -39q47 7 45 7q36 0 48 -17q9 -12 9 -40q0 -66 -104 -66q-9 0 -63 17l17 25q25 -15 60 -15q49 0 49 39q0 25 -44 25
q-8 0 -48 1q5 22 11 65q-60 10 -96 62q-31 45 -32 97q-1 85 61.5 150.5t147.5 64.5q53 -1 100 -50z" />
    <glyph glyph-name="eacute" unicode="&#xe9;" horiz-adv-x="353" 
d="M337 277q1 -24 -31 -41q-24 -13 -42 -14h-177q-5 5 -4 -52q1 -46 19 -82q27 -51 83 -50q44 1 73 16t63 56l16 -14q-23 -24 -43 -42q-49 -44 -79 -54q-16 -5 -50 -6q-73 -1 -115 54q-38 48 -38 116q0 52 23 88q27 49 82 84q52 32 92 32q37 0 76 -20q52 -26 52 -71z
M257 274q0 29 -30 45q-24 14 -51 14q-27 -1 -54 -25t-33 -60h164q5 5 4 26zM236 533q-127 -114 -126 -116q0 -3 3 -8t4 -3q80 31 162 65q8 8 8 20q0 16 -12 30.5t-27 14.5q-6 0 -12 -3z" />
    <glyph glyph-name="egrave" unicode="&#xe8;" horiz-adv-x="353" 
d="M337 277q1 -24 -31 -41q-24 -13 -42 -14h-177q-5 5 -4 -52q1 -46 19 -82q27 -51 83 -50q44 1 73 16t63 56l16 -14q-23 -24 -43 -42q-49 -44 -79 -54q-16 -5 -50 -6q-73 -1 -115 53q-38 49 -38 117q0 52 23 88q27 49 82 84q52 32 92 32q37 0 76 -20q52 -26 52 -71z
M257 274q0 28 -30 45q-24 14 -51 14q-27 -1 -54 -25t-33 -60h164q5 5 4 26zM135 533q127 -114 126 -116q0 -3 -3 -8t-4 -3q-80 31 -162 65q-8 8 -8 20q0 16 12 30.5t27 14.5q6 0 12 -3z" />
    <glyph glyph-name="ecircumflex" unicode="&#xea;" horiz-adv-x="353" 
d="M337 277q1 -24 -31 -41q-24 -13 -42 -14h-177q-5 5 -4 -52q1 -46 19 -82q27 -51 83 -50q44 1 73 16t63 56l16 -14q-23 -24 -43 -42q-49 -44 -79 -54q-16 -5 -50 -6q-73 -1 -115 53q-38 49 -38 117q0 52 23 88q27 49 82 84q52 32 92 32q37 0 76 -20q52 -26 52 -71z
M257 274q0 28 -30 45q-24 14 -51 14q-27 -1 -54 -25t-33 -60h164q5 5 4 26zM309 433l-8 -19l-121 43l-121 -43l-6 16l125 96l2 -1l2 1l1 -3z" />
    <glyph glyph-name="edieresis" unicode="&#xeb;" horiz-adv-x="353" 
d="M337 277q1 -24 -31 -41q-24 -13 -42 -14h-177q-5 5 -4 -52q1 -46 19 -82q27 -51 83 -50q44 1 73 16t63 56l16 -14q-23 -24 -43 -42q-49 -44 -79 -54q-16 -5 -50 -6q-73 -1 -115 53q-38 49 -38 117q0 52 23 88q27 49 82 84q52 32 92 32q37 0 76 -20q52 -26 52 -71z
M257 274q0 28 -30 45q-24 14 -51 14q-27 -1 -54 -25t-33 -60h164q5 5 4 26zM226 474q0 19 14 32.5t33 13.5t32.5 -13.5t13.5 -32.5t-13.5 -33t-32.5 -14t-33 14t-14 33zM65 474q0 19 13.5 32.5t32.5 13.5q20 0 33.5 -13.5t13.5 -32.5t-13.5 -33t-33.5 -14q-19 0 -32.5 14
t-13.5 33z" />
    <glyph glyph-name="iacute" unicode="&#xed;" horiz-adv-x="242" 
d="M212 32l-31 -32h-175l30 32h46v278l-56 -24v28l124 60l-1 -342h63zM126 533q-127 -114 -126 -116q0 -3 3 -8t4 -3q80 31 162 65q8 8 8 20q0 16 -12 30.5t-27 14.5q-6 0 -12 -3z" />
    <glyph glyph-name="igrave" unicode="&#xec;" horiz-adv-x="242" 
d="M212 32l-31 -32h-175l30 32h46v278l-56 -24v28l124 60l-1 -342h63zM65 533q127 -114 126 -116q0 -3 -3 -8t-4 -3q-80 31 -162 65q-8 8 -8 20q0 16 12 30.5t27 14.5q6 0 12 -3z" />
    <glyph glyph-name="icircumflex" unicode="&#xee;" horiz-adv-x="242" 
d="M212 32l-31 -32h-175l30 32h46v278l-56 -24v28l124 60l-1 -342h63zM229 433l-8 -19l-121 43l-121 -43l-6 16l125 96l2 -1l2 1l1 -3z" />
    <glyph glyph-name="idieresis" unicode="&#xef;" horiz-adv-x="242" 
d="M212 32l-31 -32h-175l30 32h46v278l-56 -24v28l124 60l-1 -342h63zM126 474q0 19 14 32.5t33 13.5t32.5 -13.5t13.5 -32.5t-13.5 -33t-32.5 -14t-33 14t-14 33zM-15 474q0 19 13.5 32.5t32.5 13.5q20 0 33.5 -13.5t13.5 -32.5t-13.5 -33t-33.5 -14q-19 0 -32.5 14
t-13.5 33z" />
    <glyph glyph-name="ntilde" unicode="&#xf1;" horiz-adv-x="494" 
d="M413 32h67l-25 -32h-183l28 33l42 -1v221q0 34 -26 55q-22 18 -51 18q-74 0 -114 -77v-217h55l-33 -32h-179l31 32h52l-1 276l-64 -20l-9 17l146 58v-60q101 59 151 59q62 0 93 -41q22 -29 19 -50zM159 449q-61 0 -61 -21l-22 -1q0 28 33 52q30 23 60 23q24 0 53.5 -18
t63.5 -18q29 0 55 28h24q0 -28 -35.5 -53t-65.5 -25q-23 0 -50.5 16.5t-54.5 16.5z" />
    <glyph glyph-name="oacute" unicode="&#xf3;" horiz-adv-x="387" 
d="M371 231q0 -91 -69.5 -163t-160.5 -72q-66 0 -105 53q-34 45 -34 103q0 80 71.5 147t153.5 67q59 0 101.5 -36t42.5 -99zM300 188q0 51 -27 91q-34 50 -95 50q-96 0 -96 -158q0 -53 23 -90q28 -48 84 -48q62 0 90 56q21 41 21 99zM236 533q-127 -114 -126 -116q0 -3 3 -8
t4 -3q80 31 162 65q8 8 8 20q0 16 -12 30.5t-27 14.5q-6 0 -12 -3z" />
    <glyph glyph-name="ograve" unicode="&#xf2;" horiz-adv-x="387" 
d="M371 231q0 -91 -69.5 -163t-160.5 -72q-66 0 -105 53q-34 45 -34 103q0 80 71.5 147t153.5 67q59 0 101.5 -36t42.5 -99zM300 188q0 51 -27 91q-34 50 -95 50q-96 0 -96 -158q0 -53 23 -90q28 -48 84 -48q62 0 90 56q21 41 21 99zM155 533q127 -114 126 -116q0 -3 -3 -8
t-4 -3q-80 31 -162 65q-8 8 -8 20q0 16 12 30.5t27 14.5q6 0 12 -3z" />
    <glyph glyph-name="ocircumflex" unicode="&#xf4;" horiz-adv-x="387" 
d="M371 231q0 -91 -69.5 -163t-160.5 -72q-66 0 -105 53q-34 45 -34 103q0 80 71.5 147t153.5 67q59 0 101.5 -36t42.5 -99zM300 188q0 51 -27 91q-34 50 -95 50q-96 0 -96 -158q0 -53 23 -90q28 -48 84 -48q62 0 90 56q21 41 21 99zM319 433l-8 -19l-121 43l-121 -43l-6 16
l125 96l2 -1l2 1l1 -3z" />
    <glyph glyph-name="odieresis" unicode="&#xf6;" horiz-adv-x="387" 
d="M371 231q0 -91 -69.5 -163t-160.5 -72q-66 0 -105 53q-34 45 -34 103q0 80 71.5 147t153.5 67q59 0 101.5 -36t42.5 -99zM300 188q0 51 -27 91q-34 50 -95 50q-96 0 -96 -158q0 -53 23 -90q28 -48 84 -48q62 0 90 56q21 41 21 99zM236 474q0 19 14 32.5t33 13.5
t32.5 -13.5t13.5 -32.5t-13.5 -33t-32.5 -14t-33 14t-14 33zM75 474q0 19 13.5 32.5t32.5 13.5q20 0 33.5 -13.5t13.5 -32.5t-13.5 -33t-33.5 -14q-19 0 -32.5 14t-13.5 33z" />
    <glyph glyph-name="otilde" unicode="&#xf5;" horiz-adv-x="387" 
d="M371 231q0 -91 -69.5 -163t-160.5 -72q-66 0 -105 53q-34 45 -34 103q0 80 71.5 147t153.5 67q59 0 101.5 -36t42.5 -99zM300 188q0 51 -27 91q-34 50 -95 50q-96 0 -96 -158q0 -53 23 -90q28 -48 84 -48q62 0 90 56q21 41 21 99zM149 449q-61 0 -61 -21l-22 -1
q0 28 33 52q30 23 60 23q24 0 53.5 -18t63.5 -18q29 0 55 28h24q0 -28 -35.5 -53t-65.5 -25q-23 0 -50.5 16.5t-54.5 16.5z" />
    <glyph glyph-name="uacute" unicode="&#xfa;" horiz-adv-x="476" 
d="M63 324l-67 -20v30l137 40v-264q0 -34 25 -54q22 -19 51 -19q74 0 114 77v207l-58 -20v33l131 40v-324l70 33v-27l-141 -56v61q-101 -60 -151 -60q-62 0 -93 41q-21 29 -18 51v231zM266 533q-127 -114 -126 -116q0 -3 3 -8t4 -3q80 31 162 65q8 8 8 20q0 16 -12 30.5
t-27 14.5q-6 0 -12 -3z" />
    <glyph glyph-name="ugrave" unicode="&#xf9;" horiz-adv-x="476" 
d="M63 324l-67 -20v30l137 40v-264q0 -34 25 -54q22 -19 51 -19q74 0 114 77v207l-58 -20v33l131 40v-324l70 33v-27l-141 -56v61q-101 -60 -151 -60q-62 0 -93 41q-21 29 -18 51v231zM175 533q127 -114 126 -116q0 -3 -3 -8t-4 -3q-80 31 -162 65q-8 8 -8 20q0 16 12 30.5
t27 14.5q6 0 12 -3z" />
    <glyph glyph-name="ucircumflex" unicode="&#xfb;" horiz-adv-x="476" 
d="M63 324l-67 -20v30l137 40v-264q0 -34 25 -54q22 -19 51 -19q74 0 114 77v207l-58 -20v33l131 40v-324l70 33v-27l-141 -56v61q-101 -60 -151 -60q-62 0 -93 41q-21 29 -18 51v231zM339 433l-8 -19l-121 43l-121 -43l-6 16l125 96l2 -1l2 1l1 -3z" />
    <glyph glyph-name="udieresis" unicode="&#xfc;" horiz-adv-x="476" 
d="M63 324l-67 -20v30l137 40v-264q0 -34 25 -54q22 -19 51 -19q74 0 114 77v207l-58 -20v33l131 40v-324l70 33v-27l-141 -56v61q-101 -60 -151 -60q-62 0 -93 41q-21 29 -18 51v231zM246 474q0 19 14 32.5t33 13.5t32.5 -13.5t13.5 -32.5t-13.5 -33t-32.5 -14t-33 14
t-14 33zM85 474q0 19 13.5 32.5t32.5 13.5q20 0 33.5 -13.5t13.5 -32.5t-13.5 -33t-33.5 -14q-19 0 -32.5 14t-13.5 33z" />
    <glyph glyph-name="dagger" unicode="&#x2020;" horiz-adv-x="32" 
 />
    <glyph glyph-name="degree" unicode="&#xb0;" horiz-adv-x="328" 
d="M159 686q51 0 86.5 -36t35.5 -86q0 -51 -35.5 -87t-86.5 -36t-86.5 36t-35.5 87q0 50 35.5 86t86.5 36zM159 661q-40 0 -68.5 -28.5t-28.5 -68.5q0 -41 28.5 -69.5t68.5 -28.5t68.5 28.5t28.5 69.5q0 40 -28.5 68.5t-68.5 28.5z" />
    <glyph glyph-name="cent" unicode="&#xa2;" horiz-adv-x="427" 
d="M225 630h21v-67q13 1 26 1q54 -1 100 -50l-47 -45q-48 64 -97 63t-74 -69q-17 -46 -17 -84q1 -60 32.5 -98t90.5 -37q45 1 102 60l12 -18q-51 -68 -128 -88v-84h-21v80h-17q-67 4 -109 59q-34 46 -35 102q-2 71 44.5 129.5t116.5 74.5v71z" />
    <glyph glyph-name="sterling" unicode="&#xa3;" horiz-adv-x="550" 
d="M359 355l-75 -83l-31 -1l35 43q-106 1 -130 1q30 -58 39 -86q18 -51 21 -119q-4 -17 -9 -35q-9 -25 -31 -36l234 1l74 96h32q-35 -58 -84 -135l-436 -1l25 39q24 -1 54 0q48 1 52 45q-4 72 -29 125l-50 106h-57l29 40h14q-19 66 -19 106q0 104 95 170q78 54 164 55
q65 1 118 -21q68 -28 71 -84q1 -10 -97 -130l-12 29q43 38 43 51q-3 48 -82 80q-61 25 -96 24q-123 -7 -123 -116q0 -12 1 -26q8 -71 39 -138h221z" />
    <glyph glyph-name="section" unicode="&#xa7;" horiz-adv-x="388" 
d="M373 -137q0 -89 -106 -154q-90 -54 -170 -54q-68 0 -123 36q-66 42 -66 116q0 153 195 197q-96 36 -96 135q0 88 58.5 154.5t138.5 71.5l102 -16q24 0 42 9q-3 -7 -14 -101t-11 -112q0 -32 25 -137t25 -145zM267 302q-70 19 -86 19q-105 0 -105 -160q0 -45 24 -75
q28 -34 81 -34q64 0 75 61q-5 38 -5 81q0 71 16 108zM299 -137q0 32 -18 109q-16 67 -24 86q-17 -19 -44 -34q-41 -22 -43 -24q9 1 22 -11.5t10 -19.5q-17 1 -35 7.5t-30 6.5q-61 0 -107 -34q-54 -41 -54 -108q0 -65 54 -107q49 -39 112 -39q68 0 112.5 49t44.5 119z" />
    <glyph glyph-name="bullet" unicode="&#x2022;" horiz-adv-x="322" 
d="M34 316q0 43 30 73t72 30q43 0 72.5 -30t29.5 -73q0 -42 -29.5 -72t-72.5 -30q-42 0 -72 30t-30 72z" />
    <glyph glyph-name="paragraph" unicode="&#xb6;" horiz-adv-x="608" 
d="M477 635h63l43 39h-397q-68 0 -123 -40q-60 -42 -62 -105q-2 -67 76 -145t149 -78q6 0 122 -1q-2 -82 -1 -266h-75l-37 -39h317l38 39q-16 -3 -112 0zM95 507q2 81 73 110q43 18 127 18h52v-290q-36 -2 -77 -2q-95 0 -131 27q-48 36 -44 137zM385 640h32v-601h-32v601z
" />
    <glyph glyph-name="germandbls" unicode="&#xdf;" horiz-adv-x="452" 
d="M392 568q1 -97 -101 -159q5 -6 42 -23q34 -16 51 -42q26 -40 26 -101q0 -73 -33 -125q-43 -64 -53 -77q-34 -41 -63 -41q-4 0 -58 -4l22 36h45q35 0 59 68q18 53 18 98q-1 66 -16 102q-21 50 -76 64q-7 2 -4 45q16 7 45 30q20 22 25 56q2 12 2 57q-1 51 -27 76
q-20 20 -51 20h-61q-35 -1 -43 -75q-1 -12 -1 -93v-448l61 -1l-30 -31h-161l34 32h30v492q-1 73 22 110q32 51 113 48h41q49 3 90 -22q52 -31 52 -92z" />
    <glyph glyph-name="registered" unicode="&#xae;" horiz-adv-x="374" 
d="M162 383q-62 0 -106 45t-44 108q0 62 44 106t106 44t104.5 -44.5t42.5 -107.5t-42.5 -107t-104.5 -44zM162 406q51 0 88 37.5t37 90.5t-37 90.5t-88 37.5q-54 1 -90 -36t-36 -92q0 -53 37.5 -90.5t88.5 -37.5zM176 534l47 -72h-26l-47 72h-26v-72h-22v157h68q-6 0 -5 1h7
q52 0 52 -40q0 -44 -48 -46zM126 557h45q30 0 30 23q0 17 -34 17h-41v-40z" />
    <glyph glyph-name="copyright" unicode="&#xa9;" horiz-adv-x="772" 
d="M346 -11q-143 0 -242.5 100t-99.5 244q0 145 99.5 245t242.5 100t243 -100t100 -245q0 -144 -100 -244t-243 -100zM346 635q-122 0 -211 -88t-89 -214q0 -125 89 -213t211 -88t211 88t89 213q0 126 -89 214t-211 88zM355 139q-86 0 -136.5 55t-50.5 142q0 83 52 139.5
t136 56.5q59 0 103 -34t54 -91h-45q-22 81 -112 81q-67 0 -106 -44t-39 -110q0 -60 34 -103q40 -49 109 -49q94 0 115 79h43q-13 -57 -55.5 -89.5t-101.5 -32.5z" />
    <glyph glyph-name="trademark" unicode="&#x2122;" horiz-adv-x="481" 
d="M401 650v-196h-27v167h-2l-66 -167h-17l-65 167v0v-167h-28v196h46l56 -141l57 141h46zM159 650v-29h-64v-167h-28v167h-65v29h157z" />
    <glyph glyph-name="acute" unicode="&#xb4;" horiz-adv-x="400" 
d="M231 835q-149 -134 -148 -136q0 -3 4 -9t5 -4q93 36 190 76q9 9 9 24q0 19 -14 36t-31 17q-8 0 -15 -4z" />
    <glyph glyph-name="dieresis" unicode="&#xa8;" horiz-adv-x="710" 
d="M374 775q0 22 16.5 38t38.5 16q23 0 39 -16t16 -38q0 -23 -16 -39t-39 -16q-22 0 -38.5 16t-16.5 39zM184 775q0 22 16.5 38t38.5 16q23 0 39 -16t16 -38q0 -23 -16 -39t-39 -16q-22 0 -38.5 16t-16.5 39z" />
    <glyph glyph-name="AE" unicode="&#xc6;" horiz-adv-x="921" 
d="M459 565q1 11 0 14l-143 -282h144zM874 673l-110 -110l-11 29l43 43h-217q-20 -8 -26 -37q2 -215 1 -215h276l-95 -113l-11 28l36 44h-204l1 -303h237l66 77l32 3q-32 -51 -78 -119h-495l40 38l87 1q14 13 16 24l-1 200h-164q-36 -64 -73 -129q-47 -77 -102 -95
q39 -2 127 0l-42 -39h-211q22 20 43 38q38 -3 39 1q51 12 170 224h-37q9 0 -33 -5q15 12 65 41h24q75 149 178 346q4 7 107 66l1 -38h321z" />
    <glyph glyph-name="Oslash" unicode="&#xd8;" horiz-adv-x="769" 
d="M156 134l385 468q-70 60 -192 52q-127 -8 -195 -118q-55 -90 -55 -215q0 -107 57 -187zM573 568l-387 -468q71 -67 180 -67q144 0 210 109q52 85 52 220q0 132 -55 206zM617 694h59l-50 -61q106 -74 106 -230q0 -167 -122.5 -292.5t-275.5 -125.5q-118 0 -200 51l-36 -44
h-59l59 71q-98 87 -98 243q0 164 121 276q118 109 284 109q106 0 181 -35z" />
    <glyph glyph-name="yen" unicode="&#xa5;" horiz-adv-x="713" 
d="M514 171l-30 -31h-112v-54q0 -30 -18 -47h120l-34 -39h-275l41 39h76v101h-137l30 31h107v49h-137l30 31h107v51q-197 333 -195 333q-46 2 -89 -1q15 14 43 39h265l-42 -38q-55 2 -64 0l158 -282l170 282h-109l36 38h232q-14 -11 -43 -38h-64l-209 -327l1 -57h142
l-30 -31h-112v-49h142z" />
    <glyph glyph-name="mu" unicode="&#xb5;" horiz-adv-x="525" 
d="M41 211l88 88l-1 336h-93l33 38h257l-33 -38h-69v-242l109 109v-52l-109 -107v-243l-6 -30q-7 -20 -29 -31l224 1l74 96h32q-35 -58 -84 -135l-436 -1l25 39q24 -1 54 0q48 1 51 49q1 7 1 161l-88 -87v49z" />
    <glyph glyph-name="mu" unicode="&#x3bc;" horiz-adv-x="525" 
d="M41 211l88 88l-1 336h-93l33 38h257l-33 -38h-69v-242l109 109v-52l-109 -107v-243l-6 -30q-7 -20 -29 -31l224 1l74 96h32q-35 -58 -84 -135l-436 -1l25 39q24 -1 54 0q48 1 51 49q1 7 1 161l-88 -87v49z" />
    <glyph glyph-name="ordfeminine" unicode="&#xaa;" horiz-adv-x="629" 
d="M458 635h-229q-31 7 -57 -19q-9 -8 -70 -74l-17 16l75 115h393q26 4 26 -13q0 -6 -6 -13q-149 -224 -396 -608h225q39 -7 65 19q8 8 86 121l15 -18l-89 -161h-420q-20 0 -16 20q0 11 415 615zM471 800l-4 11l-122 -43l-121 43l-2 -11l121 -100l2 1l3 -1l1 2z" />
    <glyph glyph-name="ordmasculine" unicode="&#xba;" horiz-adv-x="425" 
d="M105 70h215q13 11 44 39q4 0 19 -11l-92 -99l-291 1q7 13 55 65q81 75 239 230h-202l-55 -40l-14 16l103 88h279zM348 494l-3 10l-104 -37l-103 37l-2 -10l104 -85l1 1l2 -1l1 2z" />
    <glyph glyph-name="ae" unicode="&#xe6;" horiz-adv-x="603" 
d="M497 274q0 29 -30 45q-24 14 -51 14q-27 -1 -54 -25t-33 -60h164q5 5 4 26zM312 0q-32 -1 -62 0q3 51 1 82q-67 -88 -120 -89q-55 -1 -90 45q-29 38 -30 84q-1 86 74 168q72 79 142 80q7 0 97 -11l-1 -50q67 59 126 59q37 0 76 -20q52 -26 52 -71q1 -24 -31 -41
q-24 -13 -42 -14h-177q-5 5 -4 -52q1 -46 19 -82q27 -51 83 -50q44 1 73 16t63 56l16 -14q-23 -24 -43 -42q-49 -44 -79 -54q-16 -5 -50 -6q-30 0 -89 38q1 -16 -4 -32zM255 313q-52 16 -71 16q-63 -1 -87 -82q-13 -46 -12 -111q0 -31 13 -57q18 -37 54 -37q45 1 73 34
q23 28 28 71q-2 25 2 49v117z" />
    <glyph glyph-name="oslash" unicode="&#xf8;" horiz-adv-x="387" 
d="M100 89q28 35 84 104q38 46 81 96q-32 40 -87 40q-96 0 -96 -158q0 -46 18 -82zM280 268q-41 -48 -77 -91q-29 -37 -89 -110q28 -34 75 -34q62 0 90 56q21 41 21 99q0 43 -20 80zM360 359q-5 -6 -28 -32q39 -37 39 -96q0 -91 -69.5 -163t-160.5 -72q-39 0 -70 20
q-14 -17 -28 -33q-1 -1 -3 -2q-1 0 -3 9.5t-7 9.5q-2 -2 -6 0q14 15 27 31q-49 47 -49 121q0 80 71.5 147t153.5 67q48 0 85 -24l29 32z" />
    <glyph glyph-name="questiondown" unicode="&#xbf;" horiz-adv-x="558" 
d="M246 206q-2 -2 -48 -42q-33 -28 -43 -46q-15 -24 -37 -67q-13 -41 -13 -67q1 -50 40 -85q41 -39 107 -38q70 1 98 54q15 31 23 108q0 8 49 26l58 22q-5 -19 -17 -57q-8 -19 -15 -38q-9 -24 -21 -38q-25 -28 -84 -67q-54 -36 -75 -47q-37 -18 -71 -19q-80 0 -136 40
t-56 104q0 77 57 140q12 13 159 140q33 29 30 95l44 18q2 -83 -49 -136zM224 389l35 77l81 27l-30 -74z" />
    <glyph glyph-name="exclamdown" unicode="&#xa1;" horiz-adv-x="199" 
d="M122 -134l18 -26l-124 -37l38 527l38 10zM16 385l35 77l81 27l-30 -74z" />
    <glyph glyph-name="logicalnot" unicode="&#xac;" horiz-adv-x="63" 
 />
    <glyph glyph-name="florin" unicode="&#x192;" horiz-adv-x="701" 
d="M38 425h54q35 89 144.5 172t200.5 83q50 0 120 -18q85 -22 103 -51l-60 -74q-46 53 -93.5 72t-126.5 19q-154 0 -190 -203h202l-34 -41h-173q-3 -28 -3 -51v-9h199l-35 -41h-161q11 -108 68 -173q64 -74 173 -74q64 0 125 59q58 56 69 121q26 -7 26 -31l-4 -11
q-35 -90 -154 -163q-12 -7 -32 -16q-61 -11 -82 -11q-120 0 -200 69t-93 187q-2 14 -5 43h-79l29 41h48v3q0 29 6 57h-71z" />
    <glyph glyph-name="guillemotleft" unicode="&#xab;" horiz-adv-x="397" 
d="M305 523l24 -12l-64 -189l70 -195l-24 -9l-148 201l1 3l-1 4l3 1zM140 523l24 -12l-64 -189l70 -195l-24 -9l-148 201l1 3l-1 4l3 1z" />
    <glyph glyph-name="guillemotright" unicode="&#xbb;" horiz-adv-x="397" 
d="M27 523l-23 -12l63 -189l-69 -195l23 -9l149 201l-2 3l2 4l-4 1zM192 523l-23 -12l63 -189l-69 -195l23 -9l149 201l-2 3l2 4l-4 1z" />
    <glyph glyph-name="ellipsis" unicode="&#x2026;" horiz-adv-x="676" 
d="M409 97l-34 -77l-81 -27l29 74zM619 97l-34 -77l-81 -27l29 74zM199 97l-34 -77l-81 -27l29 74z" />
    <glyph glyph-name="nonbreakingspace" unicode="&#xa0;" horiz-adv-x="187" 
 />
    <glyph glyph-name="Agrave" unicode="&#xc0;" horiz-adv-x="767" 
d="M733 36l-30 -36l-277 1l35 38l80 1l-75 223h-200q-27 -64 -55 -129q-36 -77 -88 -95q39 -2 126 0l-35 -39h-191q18 20 37 38q19 -3 19 1q49 12 138 224h-37q9 0 -32 -5q13 12 59 41h24q54 149 129 346q5 11 78 61q39 -147 112 -368l98 -286q5 -16 21 -16h64zM460 297
l-81 282l-99 -282h180zM369 858q155 -130 154 -133q0 -3 -3.5 -8.5t-5.5 -3.5q-93 39 -190 83q-10 10 -10 24q0 16 11.5 29.5t26.5 13.5q9 0 17 -5z" />
    <glyph glyph-name="Atilde" unicode="&#xc3;" horiz-adv-x="767" 
d="M733 36l-30 -36l-277 1l35 38l80 1l-75 223h-200q-27 -64 -55 -129q-36 -77 -88 -95q39 -2 126 0l-35 -39h-191q18 20 37 38q19 -3 19 1q49 12 138 224h-37q9 0 -32 -5q13 12 59 41h24q54 149 129 346q5 11 78 61q39 -147 112 -368l98 -286q5 -16 21 -16h64zM460 297
l-81 282l-99 -282h180zM348 765q-60 0 -60 -21l-23 -1q0 28 33 53q31 22 60 22q25 0 54.5 -18t62.5 -18q30 0 55 28h24q0 -28 -35.5 -53t-65.5 -25q-23 0 -50.5 16.5t-54.5 16.5z" />
    <glyph glyph-name="Otilde" unicode="&#xd5;" horiz-adv-x="780" 
d="M298 775q-60 0 -60 -21l-23 -1q0 28 33 53q31 22 60 22q25 0 54.5 -18t62.5 -18q30 0 55 28h24q0 -28 -35.5 -53t-65.5 -25q-23 0 -50.5 16.5t-54.5 16.5zM732 403q0 -167 -123 -292.5t-276 -125.5q-154 0 -244 85.5t-90 235.5q0 164 121 276q118 109 284 109
q145 0 229 -64q99 -74 99 -224zM627 362q0 140 -62 215q-71 87 -217 77q-127 -8 -194 -118q-56 -90 -56 -215q0 -113 63 -194q74 -94 204 -94q144 0 211 109q51 85 51 220z" />
    <glyph glyph-name="OE" unicode="&#x152;" horiz-adv-x="1065" 
d="M1007 119q-32 -50 -79 -118l-507 -1q-158 0 -252 78q-99 82 -99 228q0 164 114 267q111 100 277 100h528l-110 -110l-11 29l43 43h-225q-14 -19 -14 -91v-161h273l-95 -113l-11 28l36 44h-201l1 -211q1 -44 -13 -63q-17 -14 -33 -29h280l66 77zM618 635h-193
q-128 -9 -197 -109q-59 -85 -59 -205q0 -113 61 -191q72 -91 202 -91l83 1q61 0 60 46v488q-7 35 31 53z" />
    <glyph glyph-name="oe" unicode="&#x153;" horiz-adv-x="648" 
d="M297 152q-1 22 2 44q-2 50 -29 87q-33 46 -92 46q-96 0 -96 -158q0 -53 23 -90q28 -48 84 -48q92 0 108 119zM622 277q1 -24 -31 -41q-24 -13 -42 -14h-177l-1 1q-1 -15 -3 -29q-1 -10 0 -24q1 -46 19 -82q27 -51 83 -50q44 1 73 16t63 56l16 -14q-23 -24 -43 -42
q-49 -44 -79 -54q-16 -5 -50 -6q-96 -2 -136 88q-72 -86 -173 -86q-66 0 -105 53q-34 45 -34 103q0 80 71.5 147t153.5 67q89 0 128 -68q31 31 70.5 50.5t68.5 19.5q37 0 76 -20q52 -26 52 -71zM542 274q0 28 -30 45q-24 14 -51 14q-27 -1 -54 -25t-33 -60h164q5 5 4 26z
" />
    <glyph glyph-name="endash" unicode="&#x2013;" horiz-adv-x="482" 
d="M21 256h405v-48h-405v48z" />
    <glyph glyph-name="emdash" unicode="&#x2014;" horiz-adv-x="838" 
d="M21 256h765v-48h-765v48z" />
    <glyph glyph-name="quotedblleft" unicode="&#x201c;" horiz-adv-x="326" 
d="M12 667l86 -186l61 -26l-62 182zM152 667l86 -186l61 -26l-62 182z" />
    <glyph glyph-name="quotedblright" unicode="&#x201d;" horiz-adv-x="326" 
d="M299 667l-86 -186l-61 -26l61 182zM159 667l-86 -186l-61 -26l61 182z" />
    <glyph glyph-name="quoteleft" unicode="&#x2018;" horiz-adv-x="158" 
d="M2 687l86 -186l61 -26l-62 182z" />
    <glyph glyph-name="quoteright" unicode="&#x2019;" horiz-adv-x="158" 
d="M149 687l-86 -186l-61 -26l61 182z" />
    <glyph glyph-name="divide" unicode="&#xf7;" horiz-adv-x="42" 
 />
    <glyph glyph-name="ydieresis" unicode="&#xff;" horiz-adv-x="467" 
d="M436 326h-51l-132 -262l12 -36l-37 -23l-74 -169h95l-28 -36h-187l28 36h59l77 164l-132 326h-69l22 33h196l-25 -33h-43l92 -231l111 232l-76 -1l20 33h160zM256 474q0 19 14 32.5t33 13.5t32.5 -13.5t13.5 -32.5t-13.5 -33t-32.5 -14t-33 14t-14 33zM95 474
q0 19 13.5 32.5t32.5 13.5q20 0 33.5 -13.5t13.5 -32.5t-13.5 -33t-33.5 -14q-19 0 -32.5 14t-13.5 33z" />
    <glyph glyph-name="Ydieresis" unicode="&#x178;" horiz-adv-x="691" 
d="M268 302l-185 333q-46 3 -89 0q15 13 42 38h266l-42 -38q-55 2 -65 0l145 -276l174 276h-109l36 38h231q-13 -11 -42 -38h-64l-197 -310l-1 -239q0 -30 -28 -47h120l-34 -39h-275l40 39h77v263zM374 775q0 22 16.5 38t38.5 16q23 0 39 -16t16 -38q0 -23 -16 -39t-39 -16
q-22 0 -38.5 16t-16.5 39zM184 775q0 22 16.5 38t38.5 16q23 0 39 -16t16 -38q0 -23 -16 -39t-39 -16q-22 0 -38.5 16t-16.5 39z" />
    <glyph glyph-name="currency" unicode="&#xa4;" horiz-adv-x="49" 
 />
    <glyph glyph-name="guilsinglleft" unicode="&#x2039;" horiz-adv-x="220" 
d="M138 523l23 -12l-63 -189l69 -195l-23 -9l-149 201l2 3l-2 4l4 1z" />
    <glyph glyph-name="guilsinglright" unicode="&#x203a;" horiz-adv-x="220" 
d="M25 523l-24 -12l64 -189l-70 -195l24 -9l148 201l-1 3l1 4l-3 1z" />
    <glyph glyph-name="periodcentered" unicode="&#xb7;" horiz-adv-x="229" 
d="M49 271q0 23 16.5 39t39.5 16t39 -16t16 -39q0 -24 -16 -40t-39 -16t-39.5 16t-16.5 40z" />
    <glyph glyph-name="periodcentered" unicode="&#x2219;" horiz-adv-x="229" 
d="M49 271q0 23 16.5 39t39.5 16t39 -16t16 -39q0 -24 -16 -40t-39 -16t-39.5 16t-16.5 40z" />
    <glyph glyph-name="quotesinglbase" unicode="&#x201a;" horiz-adv-x="158" 
d="M119 107l-86 -186l-61 -26l61 182z" />
    <glyph glyph-name="quotedblbase" unicode="&#x201e;" horiz-adv-x="302" 
d="M259 107l-86 -186l-61 -26l61 182zM119 107l-86 -186l-61 -26l61 182z" />
    <glyph glyph-name="perthousand" unicode="&#x2030;" horiz-adv-x="46" 
 />
    <glyph glyph-name="Acircumflex" unicode="&#xc2;" horiz-adv-x="767" 
d="M733 36l-30 -36l-277 1l35 38l80 1l-75 223h-200q-27 -64 -55 -129q-36 -77 -88 -95q39 -2 126 0l-35 -39h-191q18 20 37 38q19 -3 19 1q49 12 138 224h-37q9 0 -32 -5q13 12 59 41h24q54 149 129 346q5 11 78 61q39 -147 112 -368l98 -286q5 -16 21 -16h64zM460 297
l-81 282l-99 -282h180zM538 725l-7 -19l-122 43l-121 -43l-6 16l125 95l2 -1l3 1l1 -2z" />
    <glyph glyph-name="Ecircumflex" unicode="&#xca;" horiz-adv-x="581" 
d="M522 673l-110 -110l-11 29l43 43h-225q-14 -19 -14 -91v-161h273l-95 -113l-11 28l36 44h-201l1 -211q1 -44 -13 -63q-17 -14 -33 -29h280l66 77l31 3q-31 -50 -78 -118h-465l39 38q6 1 13 1q61 0 60 46v256h-78l37 36h41v196q-7 35 31 53l12 8h-135l40 38h466zM408 725
l-7 -19l-122 43l-121 -43l-6 16l125 95l2 -1l3 1l1 -2z" />
    <glyph glyph-name="Aacute" unicode="&#xc1;" horiz-adv-x="767" 
d="M733 36l-30 -36l-277 1l35 38l80 1l-75 223h-200q-27 -64 -55 -129q-36 -77 -88 -95q39 -2 126 0l-35 -39h-191q18 20 37 38q19 -3 19 1q49 12 138 224h-37q9 0 -32 -5q13 12 59 41h24q54 149 129 346q5 11 78 61q39 -147 112 -368l98 -286q5 -16 21 -16h64zM460 297
l-81 282l-99 -282h180zM449 838q-155 -130 -155 -133q1 -3 4.5 -8.5t5.5 -3.5q93 39 190 83q9 10 9 24q0 16 -11 29.5t-27 13.5q-8 0 -16 -5z" />
    <glyph glyph-name="Edieresis" unicode="&#xcb;" horiz-adv-x="581" 
d="M522 673l-110 -110l-11 29l43 43h-225q-14 -19 -14 -91v-161h273l-95 -113l-11 28l36 44h-201l1 -211q1 -44 -13 -63q-17 -14 -33 -29h280l66 77l31 3q-31 -50 -78 -118h-465l39 38q6 1 13 1q61 0 60 46v256h-78l37 36h41v196q-7 35 31 53l12 8h-135l40 38h466zM324 775
q0 22 16.5 38t38.5 16q23 0 39 -16t16 -38q0 -23 -16 -39t-39 -16q-22 0 -38.5 16t-16.5 39zM134 775q0 22 16.5 38t38.5 16q23 0 39 -16t16 -38q0 -23 -16 -39t-39 -16q-22 0 -38.5 16t-16.5 39z" />
    <glyph glyph-name="Egrave" unicode="&#xc8;" horiz-adv-x="581" 
d="M522 673l-110 -110l-11 29l43 43h-225q-14 -19 -14 -91v-161h273l-95 -113l-11 28l36 44h-201l1 -211q1 -44 -13 -63q-17 -14 -33 -29h280l66 77l31 3q-31 -50 -78 -118h-465l39 38q6 1 13 1q61 0 60 46v256h-78l37 36h41v196q-7 35 31 53l12 8h-135l40 38h466zM229 838
q155 -130 154 -133q0 -3 -3.5 -8.5t-5.5 -3.5q-93 39 -190 83q-10 10 -10 24q0 16 11.5 29.5t26.5 13.5q9 0 17 -5z" />
    <glyph glyph-name="Iacute" unicode="&#xcd;" horiz-adv-x="305" 
d="M182 88q-4 -35 -23 -49h114l-32 -39h-251l37 39h59v596l-91 -1l35 39h257l-35 -38h-70v-547zM199 838q-155 -130 -155 -133q1 -3 4.5 -8.5t5.5 -3.5q93 39 190 83q9 10 9 24q0 16 -11 29.5t-27 13.5q-8 0 -16 -5z" />
    <glyph glyph-name="Icircumflex" unicode="&#xce;" horiz-adv-x="305" 
d="M182 88q-4 -35 -23 -49h114l-32 -39h-251l37 39h59v596l-91 -1l35 39h257l-35 -38h-70v-547zM268 725l-7 -19l-122 43l-121 -43l-6 16l125 95l2 -1l3 1l1 -2z" />
    <glyph glyph-name="Idieresis" unicode="&#xcf;" horiz-adv-x="305" 
d="M182 88q-4 -35 -23 -49h114l-32 -39h-251l37 39h59v596l-91 -1l35 39h257l-35 -38h-70v-547zM174 775q0 22 16.5 38t38.5 16q23 0 39 -16t16 -38q0 -23 -16 -39t-39 -16q-22 0 -38.5 16t-16.5 39zM-16 775q0 22 16.5 38t38.5 16q23 0 39 -16t16 -38q0 -23 -16 -39
t-39 -16q-22 0 -38.5 16t-16.5 39z" />
    <glyph glyph-name="Igrave" unicode="&#xcc;" horiz-adv-x="305" 
d="M182 88q-4 -35 -23 -49h114l-32 -39h-251l37 39h59v596l-91 -1l35 39h257l-35 -38h-70v-547zM89 848q155 -130 154 -133q0 -3 -3.5 -8.5t-5.5 -3.5q-93 39 -190 83q-10 10 -10 24q0 16 11.5 29.5t26.5 13.5q9 0 17 -5z" />
    <glyph glyph-name="Oacute" unicode="&#xd3;" horiz-adv-x="778" 
d="M732 403q0 -167 -123 -292.5t-276 -125.5q-154 0 -244 85.5t-90 235.5q0 164 121 276q118 109 284 109q145 0 229 -64q99 -74 99 -224zM627 362q0 140 -62 215q-71 87 -217 77q-127 -8 -194 -118q-56 -90 -56 -215q0 -113 63 -194q74 -94 204 -94q144 0 211 109
q51 85 51 220zM429 838q-155 -130 -155 -133q1 -3 4.5 -8.5t5.5 -3.5q93 39 190 83q9 10 9 24q0 16 -11 29.5t-27 13.5q-8 0 -16 -5z" />
    <glyph glyph-name="Ocircumflex" unicode="&#xd4;" horiz-adv-x="778" 
d="M732 403q0 -167 -123 -292.5t-276 -125.5q-154 0 -244 85.5t-90 235.5q0 164 121 276q118 109 284 109q145 0 229 -64q99 -74 99 -224zM627 362q0 140 -62 215q-71 87 -217 77q-127 -8 -194 -118q-56 -90 -56 -215q0 -113 63 -194q74 -94 204 -94q144 0 211 109
q51 85 51 220zM518 725l-7 -19l-122 43l-121 -43l-6 16l125 95l2 -1l3 1l1 -2z" />
    <glyph glyph-name="Ograve" unicode="&#xd2;" horiz-adv-x="778" 
d="M732 403q0 -167 -123 -292.5t-276 -125.5q-154 0 -244 85.5t-90 235.5q0 164 121 276q118 109 284 109q145 0 229 -64q99 -74 99 -224zM627 362q0 140 -62 215q-71 87 -217 77q-127 -8 -194 -118q-56 -90 -56 -215q0 -113 63 -194q74 -94 204 -94q144 0 211 109
q51 85 51 220zM339 858q155 -130 154 -133q0 -3 -3.5 -8.5t-5.5 -3.5q-93 39 -190 83q-10 10 -10 24q0 16 11.5 29.5t26.5 13.5q9 0 17 -5z" />
    <glyph glyph-name="Uacute" unicode="&#xda;" horiz-adv-x="710" 
d="M674 673l-42 -38h-52v-568l-92 -67v123q-64 -67 -90 -85q-62 -45 -132 -45q-111 0 -155 124q-22 63 -22 132v386h-78l50 38h228l-50 -38h-54l1 -372q0 -62 11 -107q27 -107 109 -107q184 0 184 255q0 15 -1 37v27q1 127 -1 267h-80l51 38h215zM399 838
q-155 -130 -155 -133q1 -3 4.5 -8.5t5.5 -3.5q93 39 190 83q9 10 9 24q0 16 -11 29.5t-27 13.5q-8 0 -16 -5z" />
    <glyph glyph-name="Ucircumflex" unicode="&#xdb;" horiz-adv-x="710" 
d="M674 673l-42 -38h-52v-568l-92 -67v123q-64 -67 -90 -85q-62 -45 -132 -45q-111 0 -155 124q-22 63 -22 132v386h-78l50 38h228l-50 -38h-54l1 -372q0 -62 11 -107q27 -107 109 -107q184 0 184 255q0 15 -1 37v27q1 127 -1 267h-80l51 38h215zM458 725l-7 -19l-122 43
l-121 -43l-6 16l125 95l2 -1l3 1l1 -2z" />
    <glyph glyph-name="Ugrave" unicode="&#xd9;" horiz-adv-x="710" 
d="M674 673l-42 -38h-52v-568l-92 -67v123q-64 -67 -90 -85q-62 -45 -132 -45q-111 0 -155 124q-22 63 -22 132v386h-78l50 38h228l-50 -38h-54l1 -372q0 -62 11 -107q27 -107 109 -107q184 0 184 255q0 15 -1 37v27q1 127 -1 267h-80l51 38h215zM259 838q155 -130 154 -133
q0 -3 -3.5 -8.5t-5.5 -3.5q-93 39 -190 83q-10 10 -10 24q0 16 11.5 29.5t26.5 13.5q9 0 17 -5z" />
    <glyph glyph-name="circumflex" unicode="&#x2c6;" horiz-adv-x="468" 
d="M348 725l-7 -19l-122 43l-121 -43l-6 16l125 95l2 -1l3 1l1 -2z" />
    <glyph glyph-name="tilde" unicode="&#x2dc;" horiz-adv-x="685" 
d="M258 755q-60 0 -60 -21l-23 -1q0 28 33 53q31 22 60 22q25 0 54.5 -18t62.5 -18q30 0 55 28h24q0 -28 -35.5 -53t-65.5 -25q-23 0 -50.5 16.5t-54.5 16.5z" />
    <glyph glyph-name="macron" unicode="&#xaf;" horiz-adv-x="280" 
d="M24 790h233v-52h-233v52z" />
    <glyph glyph-name="macron" unicode="&#x2c9;" horiz-adv-x="280" 
d="M24 790h233v-52h-233v52z" />
    <glyph glyph-name="cedilla" unicode="&#xb8;" horiz-adv-x="660" 
d="M293 -208q-11 0 -79 22l21 31q31 -18 76 -18q61 0 61 49q0 31 -56 31q-10 0 -59 1q0 5 7.5 42t6.5 50h38l-14 -62q60 9 56 9q45 0 61 -21q11 -15 11 -50q0 -84 -130 -84z" />
    <glyph glyph-name="Scaron" unicode="&#x160;" 
 />
    <glyph glyph-name="scaron" unicode="&#x161;" 
 />
    <glyph glyph-name="brokenbar" unicode="&#xa6;" 
 />
    <glyph glyph-name="Eth" unicode="&#xd0;" 
 />
    <glyph glyph-name="eth" unicode="&#xf0;" 
 />
    <glyph glyph-name="Yacute" unicode="&#xdd;" 
 />
    <glyph glyph-name="yacute" unicode="&#xfd;" 
 />
    <glyph glyph-name="Thorn" unicode="&#xde;" 
 />
    <glyph glyph-name="thorn" unicode="&#xfe;" 
 />
    <glyph glyph-name="minus" unicode="&#xad;" 
 />
    <glyph glyph-name="minus" unicode="&#x2212;" 
 />
    <glyph glyph-name="multiply" unicode="&#xd7;" 
 />
    <glyph glyph-name="onesuperior" unicode="&#xb9;" 
 />
    <glyph glyph-name="twosuperior" unicode="&#xb2;" 
 />
    <glyph glyph-name="threesuperior" unicode="&#xb3;" 
 />
    <glyph glyph-name="onehalf" unicode="&#xbd;" 
 />
    <glyph glyph-name="onequarter" unicode="&#xbc;" 
 />
    <glyph glyph-name="threequarters" unicode="&#xbe;" 
 />
    <glyph glyph-name="Lslash" unicode="&#x141;" 
 />
    <glyph glyph-name="lslash" unicode="&#x142;" 
 />
    <glyph glyph-name="HT" 
 />
    <glyph glyph-name="LF" 
 />
    <glyph glyph-name="nonmarkingreturn" 
 />
    <glyph glyph-name="Zcaron" unicode="&#x17d;" 
 />
    <glyph glyph-name="zcaron" unicode="&#x17e;" 
 />
    <glyph glyph-name="DLE" 
 />
    <glyph glyph-name="DC1" 
 />
    <glyph glyph-name="DC2" 
 />
    <glyph glyph-name="DC3" 
 />
    <glyph glyph-name="DC4" 
 />
    <glyph glyph-name="RS" 
 />
    <glyph glyph-name="US" 
 />
    <glyph glyph-name="DEL" horiz-adv-x="1000" 
 />
    <glyph glyph-name="notequal" unicode="&#x2260;" horiz-adv-x="49" 
 />
    <glyph glyph-name="partialdiff" unicode="&#x2202;" horiz-adv-x="265" 
d="M221 321l-62 -40v-250h76l-35 -31h-203l41 31h45v202l-58 -36v43l58 38v347l-58 -26l-14 24l148 66v-363l62 41v-46z" />
    <glyph glyph-name="summation" unicode="&#x2211;" horiz-adv-x="532" 
d="M465 612q-18 -24 -62 -67q-54 -54 -63 -64q-3 5 -6 36l58 45q-28 41 -43 50q-38 22 -132 17q-41 -2 -76 -32q-38 -33 -36 -76q3 -61 99 -91q89 -26 178 -51q96 -42 101 -131q4 -86 -92 -175q-91 -85 -172 -87q-66 -1 -122 21q-74 28 -77 84q0 10 98 130l11 -29
q-43 -37 -42 -51q2 -47 84 -75q61 -20 100 -18q61 3 94 36t33 82q0 10 -1 21q-8 54 -78 88q-30 15 -116 40q-154 37 -160 148q-5 89 86 158q81 60 168 65q36 2 87.5 -21t80.5 -53zM401 810l-4 11l-122 -43l-121 43l-2 -11l121 -100l2 1l3 -1l1 2z" />
    <glyph glyph-name="product" unicode="&#x220f;" horiz-adv-x="294" 
d="M283 336l-47 -42q-39 27 -48 32q-27 14 -54 14q-25 0 -44 -13q-23 -15 -23 -40q0 -42 95 -58q59 -10 83 -24q34 -21 34 -64q0 -47 -37 -83q-29 -28 -96 -62q-8 -4 -56 -4q-25 0 -54 17t-37 42q-1 4 16 20q13 11 25 22q24 -40 51 -52q17 -7 58 -7q71 0 71 55q0 43 -55 62
q-51 13 -101 26q-55 19 -55 64q0 47 41 79q23 17 98 51q21 10 43 10q14 0 92 -45zM268 504l-3 10l-104 -37l-103 37l-2 -10l104 -85l1 1l2 -1l1 2z" />
    <glyph glyph-name="pi" unicode="&#x3c0;" horiz-adv-x="691" 
d="M268 302l-185 333q-46 3 -89 0q15 13 42 38h266l-42 -38q-55 2 -65 0l145 -276l174 276h-109l36 38h231q-13 -11 -42 -38h-64l-197 -310l-1 -239q0 -30 -28 -47h120l-34 -39h-275l40 39h77v263zM381 845q-149 -134 -148 -136q0 -3 4 -9t5 -4q93 36 190 76q9 9 9 24
q0 19 -14 36t-31 17q-8 0 -15 -4z" />
    <glyph glyph-name="integral" unicode="&#x222b;" horiz-adv-x="467" 
d="M436 326h-51l-132 -262l12 -36l-37 -23l-74 -169h95l-28 -36h-187l28 36h59l77 164l-132 326h-69l22 33h196l-25 -33h-43l92 -231l111 232l-76 -1l20 33h160zM266 533q-127 -114 -126 -116q0 -3 3 -8t4 -3q80 31 162 65q8 8 8 20q0 16 -12 30.5t-27 14.5q-6 0 -12 -3z
" />
    <glyph glyph-name="Omega" unicode="&#x3a9;" horiz-adv-x="701" 
d="M38 425h54q35 89 144.5 172t200.5 83q50 0 120 -18q85 -22 103 -51l-60 -74q-46 53 -93.5 72t-126.5 19q-154 0 -190 -203h202l-34 -41h-173q-3 -28 -3 -51v-9h199l-35 -41h-161q11 -108 68 -173q64 -74 173 -74q64 0 125 59q58 56 69 121q26 -7 26 -31l-4 -11
q-35 -90 -154 -163q-12 -7 -32 -16q-61 -11 -82 -11q-120 0 -200 69t-93 187q-2 14 -5 43h-79l29 41h48v3q0 29 6 57h-71z" />
    <glyph glyph-name="Omega" unicode="&#x2126;" horiz-adv-x="701" 
d="M38 425h54q35 89 144.5 172t200.5 83q50 0 120 -18q85 -22 103 -51l-60 -74q-46 53 -93.5 72t-126.5 19q-154 0 -190 -203h202l-34 -41h-173q-3 -28 -3 -51v-9h199l-35 -41h-161q11 -108 68 -173q64 -74 173 -74q64 0 125 59q58 56 69 121q26 -7 26 -31l-4 -11
q-35 -90 -154 -163q-12 -7 -32 -16q-61 -11 -82 -11q-120 0 -200 69t-93 187q-2 14 -5 43h-79l29 41h48v3q0 29 6 57h-71z" />
    <glyph glyph-name="radical" unicode="&#x221a;" horiz-adv-x="66" 
 />
    <glyph glyph-name="approxequal" unicode="&#x2248;" horiz-adv-x="53" 
 />
    <glyph glyph-name="approxequal" unicode="&#x22f2;" horiz-adv-x="53" 
 />
    <glyph glyph-name="Delta" unicode="&#x394;" horiz-adv-x="53" 
 />
    <glyph glyph-name="Delta" unicode="&#x2206;" horiz-adv-x="53" 
 />
    <glyph glyph-name="lozenge" unicode="&#x25ca;" horiz-adv-x="342" 
d="M39 335l117 157l117 -157l-117 -157z" />
    <glyph glyph-name="fraction" unicode="&#x2044;" horiz-adv-x="49" 
 />
    <glyph glyph-name="fi" unicode="&#xf001;" horiz-adv-x="21" 
 />
    <glyph glyph-name="fl" unicode="&#xf002;" horiz-adv-x="49" 
 />
    <glyph glyph-name="apple" unicode="&#xf000;" horiz-adv-x="42" 
 />
    <glyph glyph-name="dotlessi" unicode="&#x131;" horiz-adv-x="242" 
d="M212 32l-31 -32h-175l30 32h46v278l-56 -24v28l124 60l-1 -342h63z" />
    <glyph glyph-name="breve" unicode="&#x2d8;" horiz-adv-x="326" 
d="M45 824q3 -14 35 -34q36 -22 73 -21q82 1 120 55l29 -20q-63 -89 -151 -85q-50 2 -90.5 27t-46.5 61z" />
    <glyph glyph-name="dotaccent" unicode="&#x2d9;" horiz-adv-x="660" 
d="M134 745q0 22 16.5 38t38.5 16q23 0 39 -16t16 -38q0 -23 -16 -39t-39 -16q-22 0 -38.5 16t-16.5 39z" />
    <glyph glyph-name="ring" unicode="&#x2da;" horiz-adv-x="238" 
d="M109 837q30 0 51 -21.5t21 -50.5q0 -30 -21 -51.5t-51 -21.5t-51 21.5t-21 51.5q0 29 21 50.5t51 21.5zM109 802q-15 0 -26 -11t-11 -26q0 -16 11 -27t26 -11q16 0 26.5 11t10.5 27q0 15 -10.5 26t-26.5 11z" />
    <glyph glyph-name="hungarumlaut" unicode="&#x2dd;" horiz-adv-x="398" 
d="M82 704l-20 16l58 87q21 31 43 31q17 0 29 -12t12 -29q0 -25 -48 -52zM223 704l-19 16l58 87q21 31 43 31q17 0 29 -12t12 -29q0 -25 -49 -52z" />
    <glyph glyph-name="ogonek" unicode="&#x2db;" horiz-adv-x="447" 
d="M210 0h62q-33 -19 -52 -33q-31 -22 -31 -61q0 -20 19.5 -32t39.5 -12q44 0 105 20l18 -35q-80 -38 -162 -38q-37 0 -73 24q-33 21 -33 55q0 49 37 75q14 10 28 21q20 12 42 16z" />
    <glyph glyph-name="caron" unicode="&#x2c7;" horiz-adv-x="512" 
d="M341 800l-4 11l-122 -43l-121 43l-2 -11l121 -100l2 1l3 -1l1 2z" />
    </font>
</defs>
</svg>
