<?xml version="1.0" standalone="no"?>
<!DOCTYPE svg PUBLIC "-//W3C//DTD SVG 1.1//EN" "http://www.w3.org/Graphics/SVG/1.1/DTD/svg11.dtd" >
<svg>
<metadata>
Created by FontForge 20120731 at Tue Apr 16 15:44:50 2019
 By www-data
Digitized by Dan X. Solo. Software (c) 2001 by Dover Publications, Inc., New York.
</metadata>
<defs>
<font id="CertificatextNormal" horiz-adv-x="205" >
  <font-face 
    font-family="Certificatext"
    font-weight="400"
    font-stretch="normal"
    units-per-em="1000"
    panose-1="0 0 4 0 0 0 0 0 0 0"
    ascent="800"
    descent="-200"
    x-height="433"
    cap-height="678"
    bbox="-46 -304 921 864"
    underline-thickness="20"
    underline-position="-123"
    unicode-range="U+0020-F002"
  />
<missing-glyph horiz-adv-x="500" 
d="M63 0v800h375v-800h-375zM125 63h250v675h-250v-675z" />
    <glyph glyph-name=".notdef" horiz-adv-x="500" 
d="M63 0v800h375v-800h-375zM125 63h250v675h-250v-675z" />
    <glyph glyph-name=".null" horiz-adv-x="0" 
 />
    <glyph glyph-name="glyph2" 
 />
    <glyph glyph-name="space" unicode=" " 
 />
    <glyph glyph-name="exclam" unicode="!" horiz-adv-x="252" 
d="M225 32q1 -8 -26 -30.5t-44 -22.5q-35 0 -51 31q-4 -3 -19 -11l-10 14l67 69q0 -9 2 -18q9 -11 18 -21t22 -10t36 8zM116 135l-16 314q0 12 -2 34t-2 33q0 36 17 67q-34 16 -60 42q-8 -6 -37 -31l-5 11q26 32 76 93q0 -13 10.5 -26t35.5 -27q22 -13 30 -13q4 0 17.5 9
t18.5 11l6 -13q-33 -27 -37 -80l-17 -424h-35z" />
    <glyph glyph-name="quotedbl" unicode="&#x22;" horiz-adv-x="277" 
d="M227 678l-18 -291h-31l-20 291h69zM97 678l-18 -291h-31l-20 291h69z" />
    <glyph glyph-name="numbersign" unicode="#" horiz-adv-x="467" 
d="M416 437h-77l-59 -222h73l-8 -46h-78l-44 -171h-47l46 171h-83l-45 -171h-46l45 171h-91l10 46h93l59 222h-79l8 46h83l44 172h48l-46 -172h83l45 172h46l-46 -172h76zM211 437l-61 -222h83l59 222h-81z" />
    <glyph glyph-name="dollar" unicode="$" horiz-adv-x="341" 
d="M330 531q0 -12 -36.5 -44.5t-44.5 -33.5q-34 -4 -24 -4q-12 0 -31 6l-3 -2v-68q65 -28 80 -39q36 -24 36 -62q0 -35 -57.5 -95t-57.5 -64v-106q0 -13 -42 -34q-2 7 2.5 16t5.5 12q4 37 4 76q0 40 -1 42q-9 19 -38 33.5t-50 14.5q-16 0 -33 -15q-23 -22 -28 -24l-8 8
q34 47 55 65q29 25 62 25q14 0 36 -3q1 1 4 5q1 -3 1 25q0 24 -4 33q-2 2 -8 5q-40 7 -73 31q-40 29 -40 64q0 28 48 74q61 59 73 78q7 11 7 28q0 8 -5 43q-4 27 0 43q3 12 40 31q6 -6 3 -12q-13 -9 -15 -32q0 2 0 -33q0 -37 1 -46q2 -16 35 -38.5t50 -22.5q9 0 48 33
q8 -8 8 -13zM162 400v67q-7 28 -21 28q-20 0 -41 -55q0 -13 18 -28.5t34 -15.5q6 0 10 4zM248 243q-17 48 -35 48h-21v-74q0 -17 21 -25q35 34 35 51z" />
    <glyph glyph-name="percent" unicode="%" horiz-adv-x="705" 
d="M257 -45l-37 11l219 762l34 -9zM564 25q-21 -20 -37 -39q-9 7 -12 13.5t-5 8.5q-7 8 -59 54q-21 19 -33 42q-18 34 -18 104q0 63 24 98q12 19 38 45q10 11 66 66q13 -8 16 -15.5t9 -13.5q15 -11 48 -39q36 -32 41 -54q13 -57 13 -78q0 -83 -14 -111q-11 -21 -77 -81z
M592 225q-2 9 -3 24q-2 30 -44 62q-22 17 -42 43q-41 -38 -42 -85q-1 -10 1 -66.5t11 -68.5q12 -17 38 -41q30 -29 39 -40q44 33 44 105q0 35 -2 67zM214 305q-21 -20 -37 -39q-9 7 -12 13.5t-5 8.5q-7 8 -59 54q-21 19 -33 42q-18 34 -18 104q0 63 24 98q12 19 38 45
q10 11 66 66q13 -8 16 -15.5t9 -13.5q15 -11 48 -39q36 -32 41 -54q13 -57 13 -78q0 -83 -14 -111q-11 -21 -77 -81zM242 505q-2 9 -3 24q-2 30 -44 62q-22 17 -42 43q-41 -38 -42 -85q-1 -10 1 -66.5t11 -68.5q12 -17 38 -41q30 -29 39 -40q44 33 44 105q0 35 -2 67z" />
    <glyph glyph-name="ampersand" unicode="&#x26;" horiz-adv-x="738" 
d="M681 110l10 -13q-51 -109 -154 -109q-50 0 -92 37q-27 24 -64 79q-110 -116 -227 -116q-56 0 -95 31q-43 34 -43 89q0 85 79 147q43 34 155 85q-45 74 -151 121v3l250 215l66 -52q28 -30 28 -79q0 -51 -38 -100q-23 -30 -79 -76q68 -113 102 -181q96 134 146 217
q46 -59 72 -59q14 0 39 14l5 -12q-31 -74 -87 -74q-37 0 -71 32l-94 -133q27 -52 52 -75q34 -31 84 -31q58 0 107 40zM259 328q-80 -52 -107 -82q-46 -50 -46 -123q0 -42 29 -69.5t71 -27.5q71 0 168 94q-38 70 -115 208zM286 600l-113 -96q79 -14 145 -114q58 46 58 111
q0 36 -26.5 64t-63.5 35z" />
    <glyph glyph-name="quotesingle" unicode="'" horiz-adv-x="157" 
d="M97 678l-18 -291h-31l-20 291h69z" />
    <glyph glyph-name="parenleft" unicode="(" horiz-adv-x="301" 
d="M252 702v-28q-152 -111 -152 -441t152 -441v-28q-109 65 -175 204q-61 130 -61 265t61 265q66 139 175 204z" />
    <glyph glyph-name="parenright" unicode=")" horiz-adv-x="308" 
d="M51 -226v28q152 111 152 441t-152 441v28q109 -65 175 -204q61 -130 61 -265t-61 -265q-66 -139 -175 -204z" />
    <glyph glyph-name="asterisk" unicode="*" horiz-adv-x="387" 
d="M182 501q-24 -14 -38 -29q-14 -18 -27 -34.5t-32 -16.5q-34 0 -34 34q0 36 63 41q26 2 59 21q-16 9 -51 21q-38 4 -46 7q-25 9 -25 35q0 33 34 33q24 0 50 -39q15 -23 47 -41v14q0 20 -13 50t-13 40q0 16 10 27.5t25 11.5q16 0 26 -11.5t10 -27.5q0 -7 -13 -40t-13 -64
q15 9 43 35q19 26 22 30q15 15 32 15q34 0 34 -33q0 -35 -63 -41q-27 -2 -59 -22q30 -17 51 -20q36 -4 46 -8q25 -9 25 -35q0 -31 -32 -31q-23 0 -51 38q-16 22 -48 40v-13q0 -19 12.5 -49.5t12.5 -41.5q0 -38 -35 -38q-15 0 -25 11.5t-10 26.5q0 7 13 40t13 64z" />
    <glyph glyph-name="plus" unicode="+" horiz-adv-x="661" 
d="M294 25v280h-280v42h280v281h42v-281h280v-42h-280v-280h-42z" />
    <glyph glyph-name="comma" unicode="," horiz-adv-x="250" 
d="M48 -143l-9 13q63 40 63 98q0 53 -52 64l-31 -22l-10 14l103 76q26 -6 42 -31t16 -53q0 -94 -122 -159z" />
    <glyph glyph-name="hyphen" unicode="-" horiz-adv-x="206" 
d="M28 254l-14 -48l30 20h152l18 52l-31 -24h-155z" />
    <glyph glyph-name="hyphen" unicode="&#x2010;" horiz-adv-x="206" 
d="M28 254l-14 -48l30 20h152l18 52l-31 -24h-155z" />
    <glyph glyph-name="period" unicode="." horiz-adv-x="282" 
d="M15 20l-12 13l97 77h20l59 -44l28 21l10 -11l-94 -78h-20l-56 43z" />
    <glyph glyph-name="slash" unicode="/" horiz-adv-x="264" 
d="M27 -34l216 752l40 -11l-216 -753z" />
    <glyph glyph-name="zero" unicode="0" horiz-adv-x="474" 
d="M437 252q0 7 -10 -37q-7 -37 -43 -78q-21 -24 -74.5 -73t-75.5 -75q-7 5 -10 14t-7 13q-12 16 -99 92q-34 30 -53 67q-28 54 -28 167q0 101 37 158q26 38 166 174q9 -5 14.5 -17t17.5 -23l78 -66q58 -50 65 -83l14 -52q8 -37 8 -76v-105zM356 259q0 58 -3 111
q-3 15 -6 41q-2 32 -18 55t-59 55.5t-73 75.5q-59 -52 -74 -107q-5 -22 -5 -90q0 4 2 -67q2 -96 19 -118q22 -31 71 -78q52 -50 64 -64q54 38 72 95q10 34 10 91z" />
    <glyph glyph-name="one" unicode="1" horiz-adv-x="340" 
d="M299 89l-100 -110l-8 6q-2 15 6 28q-7 14 -35.5 34t-39.5 20q-4 0 -17 -11q-18 -14 -21 -15q-1 0 -5 2t-6 2v10q0 1 15 20q19 23 30 45q16 33 16 65l-1 311q0 32 28 66q-1 1 -26 11.5t-41 32.5q-10 -9 -48 -49l-13 12l90 110q10 -1 15.5 -10t11.5 -17.5t28 -16.5
q19 -6 26 -6q16 0 24 8q14 12 21 15q8 -8 8 -11l-22 -33t-25 -51v-276v-77q-5 -47 -39 -79q11 -6 32 -20q23 -17 42 -41q13 9 44 37z" />
    <glyph glyph-name="two" unicode="2" horiz-adv-x="431" 
d="M396 115q0 -3 -80 -123q-4 1 -12 8.5t-13 7.5q-4 0 -19.5 -1.5t-19.5 -1.5t-69 6.5t-69 6.5q-26 0 -30 -4q-17 -16 -22 -16q-11 5 -11 17q0 -6 16 48q26 92 154 224q80 82 80 129q0 26 -11 40q-5 7 -62 64q-44 43 -54 70q-58 -55 -62 -60q-11 -15 -11 -47
q0 -25 16.5 -54.5t34.5 -29.5q3 0 19.5 10t23.5 13v-19q-47 -46 -47 -47q-23 -19 -42 -19q-33 0 -54 33q-17 28 -17 55q0 64 68 134q15 15 128 110q4 -6 3.5 -18t4.5 -15q138 -103 138 -181q0 -79 -103 -173q-130 -119 -161 -186q4 0 45 7l163 -23q23 4 42.5 25.5t29.5 23.5
q0 -1 1.5 -5t1.5 -9z" />
    <glyph glyph-name="three" unicode="3" horiz-adv-x="445" 
d="M418 213q0 -55 -61.5 -117.5t-123.5 -123.5h-12q-4 31 -46 53q-38 19 -74 19q-22 0 -35 -12q-27 -25 -31 -27q-4 4 -8 4v13q0 8 35 40.5t52 40t41 7.5q66 0 114 -56q70 59 70 115q0 60 -44.5 102.5t-99.5 42.5q-14 0 -44 -17q-10 -1 -16 15l175 236q-187 22 -168 22
q-23 0 -41 -14l-46 -42q-5 5 -5 13q0 12 87 129q3 -2 17 -24q34 7 49 7q4 0 74 -10t74 -10q25 0 42 23q12 -5 12 -18l-187 -255q2 -1 59 -5q35 -2 52 -12q36 -22 62.5 -62t26.5 -77z" />
    <glyph glyph-name="four" unicode="4" horiz-adv-x="445" 
d="M419 294q0 -6 -16.5 -31t-31.5 -38q-15 -6 -43 -22q-3 -37 -9 -54q-8 -30 -31 -54q35 -18 54 -48q16 13 44 33q0 -1 2 -4.5t2 -8.5q0 -17 -77 -95q-6 9 -13 20q-11 17 -33.5 33t-34.5 16q-6 0 -27 -16l-12 8q14 21 32 47q14 17 20 73q5 53 -2 58q-32 7 -103 13
q-58 6 -71 6q-24 0 -17 2q-5 -1 -32 -20q-8 8 -8 15l310 438q4 1 9.5 -3t5.5 -10q0 -4 -9 -21.5t-11 -26.5l7 -318q7 -8 30 -8q17 0 21.5 2t35.5 27q8 -8 8 -13zM244 291v213l-155 -217q21 14 54 14q4 0 39 -4q40 -4 62 -6z" />
    <glyph glyph-name="five" unicode="5" horiz-adv-x="410" 
d="M385 664q0 -13 -44 -60q-40 -43 -47 -47h-11q-2 3 7 21q-20 -1 -58 0q-85 12 -71 12q-14 0 -16 -30q-2 -20 -4 -41q0 -127 2 -129q43 30 82 30q50 0 96.5 -44t46.5 -94q0 -64 -65 -150l-120 -150q-11 0 -14 11l-2 16q-9 16 -50 33q-37 15 -56 15q-16 0 -29 -12
q-22 -23 -34 -30q-8 8 -8 11q0 11 34.5 48.5t49.5 40.5q23 5 31 5q26 0 57 -13q38 -15 57 -40q32 28 56 80.5t24 89.5q0 47 -39.5 85t-86.5 38q-27 0 -48 -13q-28 -20 -55 -39q0 1 -2 4.5t-2 8.5q0 4 5 11t5 10l-1 145q-4 37 14 66q17 19 33 39q-13 8 -30 8q-7 0 -48 -16
q-4 4 -4 10q0 10 30 39q26 25 33 28q17 8 40 8l166 -23q29 -3 60 30q11 0 13.5 -1.5t2.5 -10.5z" />
    <glyph glyph-name="six" unicode="6" horiz-adv-x="474" 
d="M427 232q0 -54 -63 -124q-62 -61 -124 -123q-8 13 -31 37q-100 76 -134 144q-28 56 -28 145q0 103 46 177q37 61 163 186q7 0 11 -7q4 -6 0 -18q11 -15 40 -30t47 -15q24 0 57 33h12q0 -1 2 -4t2 -7q0 -6 -33.5 -40.5t-45.5 -41.5q-8 -4 -31 -4q-64 0 -104 50
q-63 -52 -78 -110q-7 -27 -7 -113q0 -69 5 -93q103 105 149 105q61 0 103 -44.5t42 -102.5zM359 187q0 37 -30 82q-37 53 -87 53q-13 0 -16 -2q-13 -7 -49 -39q-39 -35 -39 -43q0 -30 56 -88q74 -77 83 -91q47 46 62 68q20 29 20 60z" />
    <glyph glyph-name="seven" unicode="7" horiz-adv-x="417" 
d="M418 653q0 -3 -62 -88q-74 -102 -115 -178q-62 -114 -62 -185q0 -23 13 -71q19 -65 44 -65q4 0 22 14t24 16q1 -1 3.5 -5.5t4.5 -5.5q-23 -26 -45 -52q-31 -34 -54 -34q-44 0 -68 59q-18 44 -18 85q0 93 71 215q32 55 141 203q-7 2 -24 1q-23 -2 -22 -2q-4 0 -80.5 12
t-80.5 12q-25 0 -33.5 -5t-20.5 -19q-18 -22 -20 -23q-8 8 -8 15q0 10 39 63q21 28 43 56q7 -3 14 -20q20 3 43 3l174 -27q4 -1 8 -1q19 0 49 38h12q8 -8 8 -11z" />
    <glyph glyph-name="eight" unicode="8" horiz-adv-x="452" 
d="M390 207q0 -51 -64 -117l-111 -111h-12q-3 5 -5 27l-68 40q-42 27 -64 60.5t-22 68.5q0 75 88 141q-43 21 -68 59q-23 35 -23 69q0 62 58 122q20 21 135 115q8 -4 8 -11q0 -2 -2 -8q-2 -5 0 -9l98 -84q39 -37 39 -88q0 -33 -22 -65q-17 -23 -69 -76l52 -36q32 -25 41 -44
q11 -26 11 -53zM323 436q0 33 -62 83q-68 55 -77 81q-32 -13 -61 -43q-32 -34 -32 -64q0 -25 21 -53.5t58 -46.5q82 -41 88 -41q13 0 39 37t26 47zM327 172q0 27 -15 43.5t-74 52.5q-62 37 -78 37q-14 0 -36.5 -30.5t-22.5 -52.5q0 -33 28 -63q16 -16 60 -47.5t61 -50.5
q3 -1 8 -1q43 44 49 53q20 26 20 59z" />
    <glyph glyph-name="nine" unicode="9" horiz-adv-x="431" 
d="M386 335q0 -126 -59 -202q-73 -81 -147 -161h-12q-7 30 -42 50q-31 17 -61 17q-19 0 -22 -1q-10 -5 -28 -29h-12v22q65 82 111 82q74 0 106 -50q82 51 82 242q0 49 -6 70q-33 -42 -67 -84q-27 -30 -62 -30q-66 0 -111.5 50t-45.5 111q0 68 56 127q70 64 139 128h13
q0 3 0 -18q0 -4 44 -51q55 -59 72 -79q25 -30 34 -54q18 -50 18 -140zM298 406v11q-9 49 -97 133q-23 22 -42 50q-89 -71 -89 -119t33 -96q40 -57 100 -57q26 0 46 26t39 51q3 1 10 1z" />
    <glyph glyph-name="colon" unicode=":" horiz-adv-x="271" 
d="M3 33l97 77h20l59 -44l28 21l10 -11l-94 -78h-20l-56 43l-32 -21zM3 307l97 77h20l59 -44l28 21l10 -11l-94 -78h-20l-56 43l-32 -21z" />
    <glyph glyph-name="semicolon" unicode=";" horiz-adv-x="243" 
d="M51 -143l-9 13q63 40 63 98q0 53 -52 64l-31 -22l-10 14l101 73h8q25 -6 38.5 -30t13.5 -51q0 -94 -122 -159zM-17 307l97 77h20l59 -44l28 21l10 -11l-94 -78h-20l-56 43l-32 -21z" />
    <glyph glyph-name="less" unicode="&#x3c;" horiz-adv-x="333" 
d="M-3 337l256 -255l30 30l-227 226l227 227l-30 29z" />
    <glyph glyph-name="equal" unicode="=" horiz-adv-x="481" 
d="M14 397h412v-42h-412v42zM14 267h412v-42h-412v42z" />
    <glyph glyph-name="greater" unicode="&#x3e;" horiz-adv-x="343" 
d="M293 337l-257 -255l-29 30l226 226l-226 227l29 29z" />
    <glyph glyph-name="question" unicode="?" horiz-adv-x="431" 
d="M278 287q80 82 80 129q0 26 -11 40q-5 7 -62 64q-44 43 -54 70q-58 -55 -62 -60q-11 -15 -11 -47q0 -25 16.5 -54.5t34.5 -29.5q3 0 19.5 10t24.5 13v-19q-48 -46 -48 -47q-23 -19 -42 -19q-33 0 -54 33q-17 28 -17 55q0 64 68 134q15 15 128 110q4 -6 3.5 -18t4.5 -15
q138 -103 138 -181q0 -72 -116 -178q-59 -54 -58 -129q-30 1 -30 -1q1 0 4 1q2 34 3 68q7 35 41 71zM325 49q1 -8 -26 -30.5t-43 -22.5q-36 0 -52 31q-4 -4 -19 -11l-9 13l66 70q0 -9 3 -19q8 -11 17 -20.5t22 -9.5t36 7z" />
    <glyph glyph-name="at" unicode="@" horiz-adv-x="826" 
d="M467 207q-51 -82 -137 -82q-55 0 -92 37q-40 40 -40 108q0 102 71 177q65 69 141 69q72 0 100 -70l16 53h105l-55 -194q-19 -68 -19 -87q0 -18 7 -26q14 -15 43 -10q56 10 90 84q30 62 30 127q0 117 -89 185q-80 61 -197 61q-67 0 -127 -21q-114 -40 -180 -161
q-39 -72 -39 -172q0 -142 89 -224.5t233 -82.5q131 0 266 83l22 -36q-148 -94 -317 -94q-162 0 -268 104q-100 98 -108 239q-9 147 89 265q91 109 256 138q163 28 283 -41q134 -76 134 -239q0 -127 -70 -205q-61 -68 -138 -68q-86 0 -99 83zM310 239q-1 -27 12.5 -44
t36.5 -17q14 0 29 7q33 15 65 90q29 68 30 111q2 49 -18 63q-16 11 -32 11q-47 0 -88 -92q-34 -77 -35 -129z" />
    <glyph glyph-name="A" unicode="A" horiz-adv-x="528" 
d="M543 97l-93 -115v5q0 19 -29 31q-23 10 -46 10q-22 0 -37.5 -16t-21.5 -16h-4q3 42 57 78q27 15 55 30l-34 102q-17 49 -25 49q-2 0 -21.5 -14.5t-27.5 -12.5l-110 25l-26 -5q-15 -53 -47 -158l51 -37q2 1 16 18q11 12 19 12q2 0 7 -2l-83 -108q-10 5 -10 17
q-6 13 -34 23t-45 10q-14 0 -37 -18q-30 -25 -35 -28q10 67 65 94l58 22q3 6 29.5 93t26.5 92q0 16 -24 26q-19 8 -39 8q-18 0 -40 -20q-18 -16 -35 -32q3 30 42.5 72t68.5 42q19 0 55 -21l71 226q2 5 -20 19t-29 14q-16 0 -53 -56l-9 8l96 128q5 -9 24 -27q27 -19 74 -19
q14 0 24 8q19 13 21 15l-54 -72q41 -117 81 -235q62 -183 62 -216q0 -14 -9 -30q-6 -11 -12 -21q0 -5 17 -14.5t23 -9.5q4 0 17 14t22 14q3 0 8 -2zM354 289q-26 91 -78 257l-80 -252q18 18 57 18q4 0 101 -23z" />
    <glyph glyph-name="B" unicode="B" horiz-adv-x="543" 
d="M287 679q-2 -21 -42 -52.5t-62 -31.5q-21 0 -73 16.5t-71 16.5q-7 0 -21 -13.5t-21 -13.5h-4q0 20 40 49.5t62 30.5q20 2 72 -13q31 -9 61 -18q10 -3 31.5 12t27.5 17zM536 214q0 -59 -74 -126q-60 -49 -120 -99q-9 36 -78 53q-46 11 -105 11q-49 0 -81 -16
q-26 -12 -68 -50q-3 3 -3 9q0 18 36 46q55 43 68 56q37 40 37 84q0 21 -1 62.5t-1 61.5q0 15 -28 28q-24 10 -42 10q-16 0 -32.5 -12.5t-31.5 -23.5q1 20 34.5 55.5t53.5 37.5q19 2 43 -8v57q0 52 44 100q3 3 85 76q-5 -11 -37 -54q-23 -31 -23 -51v-308q0 -44 -16 -67
q-5 -8 -40 -41q7 2 15 3q15 -5 38 23t23 50l1 322q0 50 56 109q25 26 99 85q1 -2 1 -16t34 -35q45 -28 64 -51q34 -41 34 -102q0 -38 -32 -75q-8 -10 -61 -59q108 -32 108 -145zM453 463q0 39 -8 65q-7 23 -46 56.5t-65 35.5q-13 1 -26.5 -23.5t-13.5 -47.5v-204q5 2 29 23
q18 15 32 15q1 0 20 -8t21 -8q57 36 57 96zM448 138q12 30 12 53q0 22 -12 52q0 24 -55 55q-51 29 -77 29q-11 0 -20 -13l-2 -79q-1 -37 -26 -69q-30 -38 -32 -47q40 -7 80 -15q35 -9 74 -42q21 1 58 76z" />
    <glyph glyph-name="C" unicode="C" horiz-adv-x="515" 
d="M549 638l-190 -236q-158 -199 -158 -213q0 1 63.5 -53t71.5 -79l160 166q6 -11 5 -18q-3 -26 -89 -113q-55 -55 -110 -109q-8 6 -19 24t-19 24q-16 13 -49 39q-88 64 -120 107q-45 61 -45 150q0 80 77 170q28 32 140 134q67 61 69 57q10 -22 47 -53q43 -36 77 -36
q20 0 41 19q17 16 33 33q15 -5 15 -13zM446 553q-43 -11 -45 -11q-35 0 -68 20.5t-50 52.5q-11 -1 -20.5 -21.5t-9.5 -32.5v-251zM205 549q-102 -82 -102 -188q0 -93 77 -146q12 20 12 36l-3 244q0 28 16 54z" />
    <glyph glyph-name="D" unicode="D" horiz-adv-x="553" 
d="M281 671q-1 -19 -39 -53q-42 -37 -71 -34l-139 26q-6 2 -22 -7q-21 -12 -30 -14q2 20 42.5 53t62.5 30l129 -30q11 -1 33 11q32 18 34 18zM520 208q-4 -41 -37 -84q-18 -24 -65 -69.5t-63 -70.5q-12 6 -20 26q-4 8 -32 21t-39 13q-77 4 -65 4q-63 0 -108 -23
q-16 -8 -39 -32q-17 -17 -25 -15q15 32 69 80q42 36 42 81l-3 115q1 41 -17 57q-15 13 -55 13q-10 0 -26 -13q-23 -17 -34 -22q3 24 35.5 55.5t58.5 31.5q3 0 11 2q7 1 11 0q5 0 11 -5l1 53q-5 52 44 108q34 37 78 63q-15 -18 -43 -68q-14 -34 -9 -56v-256v-43
q7 -55 -47 -93q76 3 76 91v323q-1 45 53 105q17 20 90 86q-1 -9 4 -23q80 -62 98 -82q51 -55 46 -114zM449 198l1 217q0 62 -4 76q-5 20 -31 43l-90 76q-29 -24 -29 -83v-289q0 -69 -13 -86q-6 -9 -32 -34q-21 -20 -19 -22q13 5 26 6q9 1 18 0q11 -2 10 -2q25 0 57 -13
t48 -30q58 48 58 141z" />
    <glyph glyph-name="E" unicode="E" horiz-adv-x="526" 
d="M551 671q-40 -94 -111 -89q-61 4 -109 48q-48 -41 -46 -85l7 -189q5 -1 29.5 19t37.5 20q20 -1 44 -11.5t36 -9.5q12 -1 27.5 11t32.5 25q-6 -35 -39 -66t-60 -31l-76 26q-29 0 -32 -21v-68q-1 -57 -87 -151q70 9 96 2q48 0 94 -16q34 -13 45 -24l78 81l5 -12l-134 -146
q-3 25 -69 42q-48 13 -84 14l-92 1q-34 1 -70 -20q-27 -17 -54 -33q9 26 58.5 66.5t58.5 73.5q2 5 2 31v137q-27 35 -71 36q-9 3 -25 -9q-21 -17 -33 -21q44 78 93 77q14 0 18.5 -1t14.5 -9q1 19 1 69q1 45 52 105q41 49 73 66q-38 -49 -44 -59q-18 -30 -19 -64l10 -261
q-2 -86 -66 -134l23 3q45 29 57 70q3 11 4 47l-7 269q1 54 51 116q4 5 97 103q9 -9 24 -26q4 -7 36.5 -21t50.5 -14q17 -1 31 7q21 13 41 26zM275 667q0 -20 -44 -50.5t-69 -25.5l-120 33q-19 -1 -46 -19q-23 -15 -28 -12q18 35 61.5 62t74.5 21l112 -35q5 -2 10 -2
q10 0 24 11q18 14 25 17z" />
    <glyph glyph-name="F" unicode="F" horiz-adv-x="536" 
d="M276 667q1 -20 -42.5 -51t-68.5 -27l-115 31q-19 -1 -49 -19q-25 -16 -30 -13q17 35 60 62.5t74 23.5l113 -34q4 -1 9 -1q11 0 24 10q19 15 25 18zM544 673q-5 -29 -38 -60.5t-61 -30.5q-46 1 -79 25l-28 24q-2 0 -10 -8q-25 -26 -30 -39q-2 -7 -3 -41v-187q42 35 66 31
q11 -1 33 -9.5t54 -8.5q10 0 26 15q20 18 26 21q3 -1 5 -7q-8 -22 -40 -52q-35 -31 -56 -31q-18 2 -55 13q-30 10 -41 8q-13 -1 -16 -11q-1 -3 -2 -19v-58q-3 -73 -61 -120q-31 -21 -63 -42q18 4 61 -14q34 -14 37 -17l64 58q7 -6 7 -10l-110 -120q-2 10 -11 24
q-48 29 -105 31q-31 1 -53 -12.5t-44 -27.5q-9 2 -6 6q0 1 67 65q57 54 58 88v65q1 62 -6 80q-13 41 -66 43q-15 0 -32.5 -12t-32.5 -23q-1 15 33.5 50t58.5 35q27 0 45 -8v82q1 38 53 91q41 41 73 57q1 -2 2 -10q-15 -18 -30 -37q-30 -37 -31 -69l-1 -305q-5 -41 -34 -69
q-25 -20 -51 -41l17 3q34 3 66 41q28 34 29 56l-3 316q0 46 143 194q12 -22 26 -33q28 -22 79 -24q19 -1 41 15q26 18 29 19z" />
    <glyph glyph-name="G" unicode="G" horiz-adv-x="483" 
d="M466 272q0 -55 -48 -111q-6 -7 -114 -110q-23 -22 -47 -52q-12 -14 -36 -28q0 7 2 13t2 11q0 19 -59 68q-79 66 -110 104q-59 73 -59 148q0 95 89 191q99 93 197 186q-1 -5 -1 -9q0 -28 39 -51q34 -20 60 -20q29 0 44.5 16.5t26.5 19.5l-171 -249q23 8 59 8q57 0 94 -44
q32 -39 32 -91zM366 553h-44q-29 0 -58 23q-22 17 -33 36q-19 -5 -31 -42q-9 -29 -9 -48v-197zM402 229q0 42 -41 89q-44 51 -94 51q-22 0 -128 -172q32 -28 57 -54q61 -61 75 -99q49 49 97 98q34 41 34 87zM168 566q-120 -113 -120 -194q0 -42 23 -91t53 -63q6 16 10 37
l1 203q0 32 13 63q10 22 20 45z" />
    <glyph glyph-name="H" unicode="H" horiz-adv-x="596" 
d="M277 668q1 -15 -37 -48q-40 -36 -64 -31l-130 28q-3 1 -6 1q-9 0 -25 -15.5t-26 -14.5q17 34 47 58q35 27 73 23l93 -23q6 -1 13 -1q13 0 32 9q24 12 30 14zM638 677q-1 -20 -32 -52q-35 -34 -67 -35q-4 -1 -10 -13t-8 -20q-2 -203 0 -203q1 0 -1 -165q-2 -16 -21 -42
q-32 -42 -36 -49q18 0 40 -9.5t21 -9.5q4 0 45 39l14 -5l-96 -114q-4 35 -76 35q-19 0 -31 -7q-27 -15 -38 -20q21 25 58 58q33 29 43 43q15 22 13 49v191q-34 -32 -49 -30l-85 16q-10 1 -22 -9q0 -82 -12 -120q-22 -70 -95 -111q42 -8 66 -33l50 48l11 -6l-99 -120
q-9 6 -13 27q-19 27 -87 27q-36 0 -49 -11q-17 -15 -29 -18q13 20 45.5 54t44.5 53q19 30 18 63l1 125q-4 14 -31 25q-23 10 -42 10q-17 0 -25 -8q-13 -12 -25 -24q5 25 27 52q25 32 49 31l44 -10v88q0 23 48 79q45 54 57 55q0 1 -19 -32t-21 -87l1 -228q0 -49 -10 -72
q-12 -27 -65 -88h23q25 0 53 46q24 40 24 55l1 305q3 42 32 90q27 45 57 65q-8 -21 -17 -43q-11 -29 -13 -58l-1 -204q31 43 52 37q50 -4 69 -15q6 -4 20 0q14 5 14 13l-2 112q1 23 18.5 50t41.5 43l-62 33l-36 -39l-9 7l81 109q0 -16 36 -36q33 -18 51 -18q19 0 34.5 10
t30.5 21z" />
    <glyph glyph-name="I" unicode="I" horiz-adv-x="386" 
d="M305 671q-7 -23 -41 -49t-60 -26q-2 0 -7.5 1.5t-9.5 1.5l-100 30q-13 4 -34 -13q-27 -22 -33 -25q-4 20 36 55t65 32q24 1 63 -12q44 -16 56 -17q20 7 65 22zM3 -2q12 6 48 36q18 15 50 13q18 -1 36.5 -13.5t18.5 -29.5q76 62 109 97q61 65 61 113l-1 322q0 36 24 77.5
t25 53.5q-113 -93 -108 -185l-1 -270q0 -49 -30 -84t-80 -37q67 41 64 109v315q2 26 19 50q31 45 34 50q-72 -60 -91 -84q-30 -39 -30 -89v-52l-32 13q-25 3 -62.5 -36t-41.5 -67q12 9 39 33q13 13 29 13q20 0 44.5 -14t28.5 -29l-1 -175q-17 -34 -68.5 -53.5t-83.5 -76.5z
" />
    <glyph glyph-name="J" unicode="J" horiz-adv-x="389" 
d="M327 676q-60 -85 -113 -77l-128 34q-17 -12 -69 -36q8 21 46 54.5t62 33.5q4 0 7 -2l132 -34q11 -2 26 7q25 15 37 20zM292 615q-3 -5 -34 -50q-17 -24 -19 -50v-390q0 -39 -35 -84q-28 -38 -56 -53h-4q-1 -1 -1 2q9 12 16 27q16 32 17 59v227q-4 15 -28.5 29t-44.5 14
q-16 0 -29 -13q-27 -24 -39 -33q4 28 41.5 67t62.5 36l32 -13v52q0 50 30 89q19 24 91 84zM393 675q0 2 -31 -41t-31 -67l1 -493q0 -59 -59 -134q-57 -63 -114 -127q1 -2 2 -3q1 0 -3 17t-5 9q-13 13 -45 28q-37 18 -62 18q-16 0 -40 -16.5t-49 -34.5q-3 3 -3 8q0 6 24 30
q69 70 115 70q38 0 75 -24.5t34 -24.5q11 0 39 47t25 58l1 515q1 40 45 96q36 46 77 77q4 -2 4 -8z" />
    <glyph glyph-name="K" unicode="K" horiz-adv-x="652" 
d="M311 675q-14 -26 -47 -55q-39 -34 -61 -31l-129 30q-17 1 -34.5 -13.5t-35.5 -29.5q-8 6 -8 11q0 17 52 53.5t68 34.5q47 -11 127 -29q25 13 68 29zM658 649q-12 -34 -45 -56q-28 -18 -48 -18q-3 0 -12 1t-11 1q-8 0 -68 -74q-57 -70 -87 -113q82 -29 96 -37
q63 -34 63 -87v-79q0 -33 -19.5 -52t-39.5 -37q16 1 46 -14q26 -13 42 -26l55 44q4 -3 4 -7l-101 -115q-6 6 -2 24q-4 14 -36.5 27t-54.5 13q-8 0 -40 -32q-11 6 -11 12q0 1 40 42.5t40 67.5v64q2 26 -5 68q-17 32 -121 65l-24 -21l1 -90q0 -29 -50.5 -80.5t-50.5 -52.5
q0 -4 30.5 -15t30.5 -12l60 58q6 -2 10 -12l-111 -124q1 -3 1 24q-34 29 -106 29q-27 0 -47 -18t-38 -37q-9 -2 -9 10q0 14 64.5 79.5t64.5 99.5v115q-5 50 -72 50q-26 0 -40 -13.5t-26 -27.5q-5 2 -5 7q0 19 45 54.5t60 34.5l29 -5v45v46q-4 52 124 139q-39 -53 -42 -58
q-17 -30 -16 -58l-1 -273q0 -51 -6 -63.5t-53 -60.5q3 -3 30 -3q61 58 61 106q0 7 -1 14l-2 305q5 36 44 84q32 41 74 73l1.5 -2.5t1.5 -6.5l-29.5 -42.5t-29.5 -73.5v-206l192 241l-36 24l-41 -36q-4 1 -10 7l94 100q6 -23 30.5 -38.5t53.5 -15.5q17 0 26.5 4t32.5 26
q3 -3 0 -12z" />
    <glyph glyph-name="L" unicode="L" horiz-adv-x="497" 
d="M285 659q-3 -19 -42 -46t-63 -24l-129 32q-27 3 -47.5 -13.5t-21.5 -16.5q12 27 47.5 55.5t59.5 27.5l138 -36q13 -2 29 7q22 12 29 14zM533 686q-19 -40 -68 -78q-19 -14 -58 -14q-27 0 -51.5 16t-21.5 16q-12 0 -26.5 -26t-12.5 -35v-328q-1 -68 -71 -121
q-26 -12 -21 -12q36 15 86 15q106 0 171 -49l55 70l12 -9l-106 -141q-2 10 -15 26q-12 8 -78 18q-62 9 -87 9q-64 -1 -77 -2q-59 -4 -93 -19q-19 -14 -65 -36q38 40 77 81q63 68 63 99v142q-6 8 -33 20.5t-45 12.5q-12 0 -25 -9q-23 -15 -31 -19q22 44 29 53q23 29 60 27
q10 -3 40 -6v59q-1 4 -1 8q0 30 44 82q38 44 82 78q-1 -12 -28 -48t-26 -50l-1 -307q1 -27 -28 -61q-25 -27 -51 -54q47 5 74 38t27 80v302q0 34 63 103q43 45 86 89q3 -4 1 -12t0 -11q9 -11 36 -22.5t41 -11.5q13 0 27 9z" />
    <glyph glyph-name="M" unicode="M" horiz-adv-x="840" 
d="M324 695q-3 -21 -49 -59t-71 -34l-138 38q-9 0 -32 -23q-26 -26 -34 -29q-3 3 -3 8q0 20 53 58.5t69 34.5l132 -35q14 -4 37.5 17.5t35.5 23.5zM807 217q-10 -128 -139 -258h-14q46 76 52 89q25 49 24 89l-5 333q-1 13 -12 39q-91 96 -93 96q-17 0 -40 -39
q-19 -33 -19 -40v-145q0 -13 47 -13q23 0 40 18q21 20 25 22q0 -1 1.5 -3.5t1.5 -5.5l-39 -53q-17 -25 -41 -31q-30 -8 -32 -9q0 -12 1 -34q1 -25 1 -36q0 -82 -56 -129q17 -11 70 -29q6 0 23 18.5t28 20.5q3 -6 3 -9l-98 -110q-4 4 -3 15l2 14q-21 20 -73 20q-25 0 -39 -13
q-26 -23 -39 -31q15 40 45 67l46 34q20 16 18 36l-2 173q-3 10 -18.5 17.5t-24.5 7.5q-15 0 -29 -13q-23 -19 -41 -29q-2 7 23 36q22 25 39 40q2 2 46 21q0 3 4 66q2 37 15 67q2 -1 -19 -1q-36 0 -77.5 25t-55.5 57q-16 -7 -24 -44l5 -332q-3 -31 -39 -78q-1 -2 -48 -55
l54 -32q7 4 29 28q19 22 32 26v-20l-107 -116q-4 0 -12 8q7 12 7 17q-10 12 -50.5 23t-69.5 11q-38 0 -48 -15q-24 -31 -49 -48q-3 4 -3 9q0 19 55 64q31 23 63 47.5t32 89.5l-5 116q-3 16 -26 29.5t-43 13.5q-26 0 -44 -23q-21 -27 -29 -30l-1.5 3t-1.5 6q0 17 45.5 59.5
t62.5 41.5l24 -7q10 6 10 36v39q0 29 51 85q41 45 70 67q4 -6 -22 -38q-29 -36 -32 -53q-6 -30 -4 -78q3 -82 3 -78l5 -151q0 -42 -19 -66q-36 -45 -45 -64q2 1 37 1q15 0 34 36q18 32 16 40l-5 330q-7 27 45 84l84 90q11 2 14 -9l3 -17q13 -18 62.5 -47.5t71.5 -29.5
q14 0 74 50q32 28 65 56q4 -7 0 -22q0 -11 35 -40q20 -15 39 -31q42 -40 46 -97q2 -53 5 -106z" />
    <glyph glyph-name="N" unicode="N" horiz-adv-x="599" 
d="M283 696q-8 -27 -45.5 -57.5t-63.5 -29.5l-126 35q-10 -2 -34.5 -20.5t-28.5 -14.5q5 20 44 56.5t63 36.5q4 0 7 -2l122 -37q10 -3 26 9q26 19 36 24zM529 250q0 -82 -25 -133q-28 -59 -116 -147q-14 -13 -24 -8q57 82 73.5 127.5t16.5 118.5v292q0 14 -7 29t-30 30
q-31 20 -33 21q-29 27 -58 55q-13 0 -24 -23q-8 -16 -9 -30l2 -344q1 -34 -28 -75q-27 -33 -54 -65l42 -32q7 2 26 21q15 16 25 14l-103 -112q4 9 3 23q-31 35 -104 42q-34 0 -48 -16q-20 -21 -36 -27q28 49 63 72q22 14 45 29q17 17 17 63v131q0 24 -25 41q-22 14 -43 14
q-19 0 -36 -15.5t-27 -16.5q7 24 40.5 55t57.5 31q11 0 25 -9q15 13 9 47q-1 8 -1 15q0 73 126 171q-1 -6 -41 -60q-26 -34 -26 -80v-249q0 -95 -50 -136q12 -10 33 -10q16 0 32 32q13 28 13 39v344q0 44 49 98q47 48 94 95q6 -5 3 -14.5t1 -13.5q58 -48 116 -95
q36 -36 36 -105v-234z" />
    <glyph glyph-name="O" unicode="O" horiz-adv-x="556" 
d="M536 359q0 -67 -48 -133q-33 -46 -114 -120q-101 -93 -135 -129q-1 1 -1 28q0 11 -60 59q-75 60 -111 108q-60 78 -60 164q0 93 102 201q61 64 197 163q0 -8 -2.5 -13.5t-2.5 -11.5q0 -17 61 -65q80 -64 113 -103q61 -73 61 -148zM475 321q0 67 -64 137q-69 66 -137 132
v-550q69 68 139 137q62 71 62 144zM249 101v524q-12 -1 -27 -18t-14 -30v-255q-4 -55 -63 -117zM162 564q-62 -46 -99 -139q-3 -22 -3 -43q0 -102 77 -164q10 20 10 26v251q0 11 1 22q2 21 14 47z" />
    <glyph glyph-name="P" unicode="P" horiz-adv-x="523" 
d="M271 661q-2 -19 -36.5 -50t-56.5 -31q-4 0 -7 1l-126 30q-3 1 -6 1q-9 0 -27 -17t-27 -15q13 28 44 53q35 29 65 30l115 -34q9 1 29.5 15.5t32.5 16.5zM515 453q0 -56 -38 -103l-110 -112q-6 1 -6 6q0 2 4 12q2 8 0 12q-5 12 -30 27.5t-34 15.5q-12 0 -12 -19l-1 -82
q0 -24 -30 -60q-25 -28 -50 -55l73 -40l56 57q6 -5 6 -10l-97 -120h-10q0 2 1 8t1 9q0 20 -120 40q-37 0 -75 -41h-8q-3 3 -3 7q0 9 56 58t59 83q-2 49 0 157q-60 31 -76 31q-15 0 -30 -17q-20 -23 -22 -24q-5 5 -5 8q0 24 41 56q38 30 56 30q13 0 23 -7h8v35q0 66 26 101
q9 13 106 105v-2.5v-4.5q0 -11 -20 -31q-26 -25 -37 -46q-19 -37 -16 -91l2 -257q-2 -21 -25 -53q-28 -40 -30 -45h13q24 3 45 47q17 37 17 60l-1 281q-1 47 53 107l104 102q0 -7 3 -21q73 -51 85 -62q46 -43 47 -94zM451 392v46q0 57 -12 86q-18 47 -74 69q-8 3 -17.5 15
t-12.5 14q-52 -45 -51 -81v-204q17 5 32 17q10 10 28 10q17 0 36 -14.5t37 -29.5q34 27 34 72z" />
    <glyph glyph-name="Q" unicode="Q" horiz-adv-x="546" 
d="M517 359q0 -56 -32 -111q-21 -35 -61 -76q-32 -34 -32 -38q0 -10 27 -35.5t37 -25.5q11 0 23 11q19 18 29 23l1 -2.5t1 -6.5q0 -12 -39 -44.5t-49 -32.5q-15 0 -42 26q-31 31 -37 33l-101 -96q-7 2 -6.5 15.5t-4.5 19.5q-78 74 -155 149q-60 69 -60 160q0 64 42 129
q32 49 103 117q64 61 129 121q0 -2 -1 -8v-10q0 -26 59 -72q83 -65 110 -96q59 -69 59 -150zM456 312q0 63 -32 108q-16 24 -80 83.5t-104 116.5q-34 0 -34 -79l2 -216q1 -39 -27 -84q29 15 58 15q34 0 66 -26q19 -15 45 -48q21 -26 27 -26q24 0 53 65q26 60 26 91zM158 542
q-53 -52 -74 -88q-24 -40 -24 -87q0 -58 59 -129q15 -18 19 -18q11 0 11 58v217zM327 102q-82 118 -128 118q-8 0 -23 -6.5t-15 -15.5q0 -4 35 -38q50 -49 60 -59q11 -21 29 -46z" />
    <glyph glyph-name="R" unicode="R" horiz-adv-x="530" 
d="M245 669q-1 -17 -39 -49t-62 -30l-123 34q-22 -16 -59 -35q2 21 39.5 53.5t61.5 30.5l121 -34q22 12 61 30zM567 99l-83 -101q-42 39 -73 39q-20 0 -28 -6q-13 -12 -26 -17q-5 3 -5 8q0 2 19 26q22 29 30 43q10 18 10 82q0 52 -9 73q-16 38 -65 46q-2 1 -27.5 9t-34.5 8
q-7 0 -15 -9v-36q0 -67 -3 -77q-9 -27 -70 -101q25 -14 50 -29q2 0 44 49q4 -5 9 -3l-96 -117q-4 3 -5.5 12t-4.5 12q-37 31 -110 31q-12 0 -36 -19q-28 -23 -38 -27q-2 1 -2 7l62 60q50 49 56 88l-2 148q-6 45 -68 45q-14 0 -27 -13q-20 -19 -30 -26q-1 19 33.5 53.5
t57.5 35.5l24 -6q6 6 6 34v38q2 17 7 28q11 23 50 67q44 50 63 54q-18 -28 -37 -55q-23 -37 -24 -55v-311q-4 -44 -22 -60q-30 -29 -33 -36l33 1q14 0 33 31q17 28 18 38l1 325q0 52 45 108q25 31 100 99q-4 -22 31 -47.5t70 -49.5q37 -32 35 -66q0 -19 2 -38q1 -15 1 -17
q-4 -36 -14 -55q-21 -38 -81 -76q4 -9 22 -14q24 -7 30 -11q40 -22 40 -91v-62q0 -10 -16 -35q-23 -38 -26 -42q44 0 88 -23l32 38zM411 425v68q-5 43 -38 63q-57 36 -82 64q-30 -34 -30 -94v-196q4 2 26 26q17 17 32 13l44 -15q13 2 30 27t18 44z" />
    <glyph glyph-name="S" unicode="S" horiz-adv-x="510" 
d="M462 660l-183 -282h50q47 1 81 -47q29 -41 29 -82q0 -64 -73 -141q-10 -11 -146 -133q-3 28 -55 57q-48 26 -81 26q-25 0 -41 -16q-19 -22 -37 -44q-12 4 -11 14l187 275q-3 4 -8 4q-3 0 -13 -1t-13 -1q-54 0 -90 42q-33 38 -33 87q0 71 89 153q78 66 155 131
q-1 2 -1 -24q0 -22 46 -48q40 -23 55 -23q23 0 43 18q12 10 41 45q11 -3 9 -10zM367 556l-39 -4q-69 0 -116 69q-22 0 -68.5 -62t-46.5 -95t26 -69q31 -44 75 -44q54 0 169 205zM379 202q0 50 -42 84q-37 30 -83 30q-31 0 -169 -214q45 11 70 11q36 0 66 -16
q21 -11 36 -28.5t14 -17.5q3 0 11.5 8.5t10.5 9.5q35 26 60.5 64.5t25.5 68.5z" />
    <glyph glyph-name="T" unicode="T" horiz-adv-x="488" 
d="M523 659q-7 -27 -47 -63t-69 -36q-5 0 -10 1l-115 21l2 -520l162 130q-1 -12 -6 -28q-29 -33 -94 -87q-68 -56 -102 -93q-5 4 -5.5 15t-2.5 13l-161 161q-63 72 -63 153q0 110 187 269q-2 17 -104 17q-27 0 -49 -19q-27 -24 -42 -29q11 31 55 71q48 44 81 44q6 0 12 -2
l289 -51q13 -2 42 13q35 19 40 20zM254 106v482q-13 5 -18 5q-13 0 -17 -23q-2 -15 -4 -31l5 -205q3 -29 -17 -65q-9 -17 -43 -63zM157 526q-92 -74 -92 -154q0 -72 53 -129q19 -21 23 -21q13 0 15 57q1 45 -3 71l-2 118z" />
    <glyph glyph-name="U" unicode="U" horiz-adv-x="635" 
d="M279 672q-16 -31 -42 -53q-29 -23 -55 -23q-19 0 -18 0l-107 28q-10 1 -28 -13q-23 -18 -32 -22q4 27 42 58.5t64 29.5l121 -28q7 1 28 13t27 10zM676 696q-11 -32 -50 -64t-83 -44q-12 -3 -18 -60l5 -291q-6 -36 -19 -64q45 -35 88 -85l48 41v-17l-98 -112q0 1 -1 1
q-5 6 -3 11l2 10q1 20 -30 52t-55 42l-136 -141q-6 4 -8 11q4 4 4 10q0 24 -69 69q-64 41 -83 41q-9 0 -36 -11q2 10 14 35t15 35l-3 118q0 8 -1.5 23.5t-1.5 19.5q-53 30 -79 30q-11 0 -27.5 -13.5t-28.5 -16.5q6 18 32 44.5t42 32.5q10 3 23 3q3 0 15.5 -2t15.5 -2
q6 0 6 17v32q-7 38 47 106q26 32 97 103h9q1 -11 -10.5 -25t-22.5 -26q8 -9 4 -28l7 -327q0 -33 -2 -44q-7 -29 -34 -48q0 1 6 33l-6 382q-25 -16 -31 -54l5 -293q-3 -17 -16 -69q39 -5 81 -31q49 -30 75 -74q100 78 100 158q0 13 -2 25l-2 245q2 52 57 111q-15 10 -54 35
l-48 -34l92 111q5 -5 5 -13.5t1 -10.5q5 -11 31.5 -21.5t44.5 -10.5q22 0 37 11q41 29 49 34z" />
    <glyph glyph-name="V" unicode="V" horiz-adv-x="589" 
d="M283 677q-10 -24 -42 -53q-37 -33 -59 -26q-19 -2 -66.5 12t-54.5 14q-36 -7 -64 -31q0 1 -2 1q-1 1 0 4q7 24 41 49.5t59 25.5q17 0 59 -11.5t56 -11.5q41 5 73 27zM284 599q-11 -12 -9 -32l1 -334q-4 -22 -9 -32q-10 -21 -32 -28q4 11 11 42l-1 315q0 25 7 37.5
t32 31.5zM549 313q0 -53 -37 -112q-20 -33 -82 -107t-90 -120q-9 1 -9 12q-1 16 -2 18q-7 12 -72 58q-69 49 -89 49q-14 0 -35 -7q9 14 25 52q3 8 3 19l-1 138q1 14 -25.5 27t-43.5 13q-16 0 -30 -9q-37 -23 -43 -27q13 31 40 59q31 32 57 32q10 0 41 -7v83q0 27 58 89
q53 57 74 66q-23 -30 -47 -60q-19 -29 -19 -63v-298q-5 -16 -15 -51q38 -8 89 -40.5t76 -68.5q47 45 76.5 106t29.5 115v206q0 61 -57 118l-62 -61l-9 5l120 134q4 -8 4 -20q0 -7 27 -39q29 -35 31 -40q17 -39 17 -90v-179z" />
    <glyph glyph-name="W" unicode="W" horiz-adv-x="834" 
d="M278 684q-5 -22 -40 -50.5t-58 -28.5q-18 0 -65.5 12.5t-55.5 12.5q-26 7 -60 -37q-3 0 -5 -1v1v5q0 21 44.5 53t58.5 27l113 -25q27 -2 68 31zM804 484v-188q6 -66 -83 -168q-69 -75 -139 -150q-6 4 -5 15q1 12 0 13q-16 30 -62 72t-66 42l-140 -135q2 24 -56.5 79.5
t-90.5 55.5l-33 -10q0 9 12 26.5t12 59.5l1 123q-6 41 -73 41q-23 0 -30 -11q-8 -14 -28 -18q14 28 39 52q29 29 53 29q5 0 36 -4v62q0 37 60 105q54 59 89 77q1 -8 -11 -23q-14 -18 -16 -22q-10 -30 -6 -74v-308l-6 -26q-6 -18 -22 -32q50 -22 113 -102q22 0 61 59
q35 53 35 68v130q0 40 -42 40q-16 0 -35.5 -19.5t-31.5 -21.5q39 65 56 79q12 10 47 12q0 18 1 54q1 62 55 114l-54 38q-9 1 -22 -17.5t-25 -15.5l79 106q2 -1 11 -19q5 -9 31 -19t44 -10q16 0 31 8l36 19q-18 -41 -51 -62q-23 -12 -47 -25q-19 -14 -17 -46v-128
q12 -11 46 -23q18 -1 33 9q19 13 32 17q-3 -18 -27 -48.5t-41 -35.5q-6 -1 -43 6q1 -14 3 -39q1 -60 -7 -77q-9 -20 -19 -40q36 -10 69 -39q20 -17 42 -47q18 -22 21 -22q22 0 61 68q36 62 37 84q6 23 13 61v187q2 60 -64 132l-56 -55q-11 5 -11 13l114 120q2 -11 49 -87
q42 -69 38 -109zM240 205l-1 370q-5 -3 -14 -19q-10 -19 -10 -35v-295q0 -41 -12 -53l16 -1q21 17 21 33z" />
    <glyph glyph-name="X" unicode="X" horiz-adv-x="531" 
d="M148 354h82q-122 260 -149 260q-19 0 -66 -59l-8 8l93 117q9 -4 12 -12q38 -8 70 -48q46 -88 115 -262l105 225q0 2 -17 8t-20 15q-6 0 -19 -12t-20 -12q-2 0 -5 1l85 106q3 -9 11 -23q6 -9 25.5 -18.5t35.5 -9.5q19 0 34 9.5t30 18.5q-15 -81 -116 -89l-103 -223h60
l31 24l-18 -52h-88l-1 -2q9 -13 41 -88t56 -112q38 -56 78 -58q13 -1 26 14.5t30 19.5q2 -13 -32.5 -57t-51.5 -47q-54 13 -107 93q-37 57 -71 143q-13 37 -27 74l-108 -216q4 -4 20.5 -9t22.5 -13l28 38l9 -6l-77 -119q-10 3 -11 11v13q-6 11 -35 22t-47 11q-14 0 -26 -12
q-15 -14 -29 -18q6 31 44 56.5t72 27.5q46 91 122 236l-70 -2l-30 -20z" />
    <glyph glyph-name="Y" unicode="Y" horiz-adv-x="650" 
d="M267 672q2 -20 -44 -56t-72 -31l-69 25q-24 3 -41.5 -8.5t-34.5 -23.5q2 23 41 56.5t67 33.5q16 -1 42.5 -14t41.5 -14q13 0 35 13q17 9 34 19zM276 593q-11 -35 -8 -58v-345q-5 -34 -41 -48q10 33 10 45v316q-1 64 39 90zM667 679q-22 -56 -64 -87q-29 -20 -44 -20
q-16 -21 -16 -54v-518q0 -24 -18 -74q-4 -11 -26 -36q-156 -181 -167 -181q-10 0 -10 10q0 4 2 10.5l2 6.5q-61 59 -132 53q-19 -1 -42 -18q-31 -21 -61 -42q22 49 72 84.5t91 35.5q7 0 13 -1q18 -4 108 -51q4 0 28 28.5t37 48.5q30 44 30 68v161l-159 -160q-8 3 -9 13
q-2 7 -3 14q-10 21 -67 67q-60 47 -83 47q-6 0 -12 -4.5t-16 -6.5q-4 3 8 26q15 30 17 40l1 148q-1 15 -32 29q-27 13 -46 13q-21 0 -35.5 -11t-28.5 -23q0 27 32 58t59 31q11 0 47 -15l1 69q-2 56 44 114q27 35 109 109q-10 -25 -52 -75q-33 -40 -34 -71v-314
q-2 -17 -3 -35q-4 -23 -13 -32q38 -7 87.5 -43t64.5 -73q70 66 94.5 99.5t29.5 67.5q1 10 1 85v214q0 18 20 47.5t44 44.5q-2 1 -38 15q-26 10 -33 21l-64 -66l-7 8l124 140l2 -23q30 -28 76 -28q22 0 39 16q11 12 21 24q2 2 4 -1t7 -3z" />
    <glyph glyph-name="Z" unicode="Z" horiz-adv-x="505" 
d="M527 653l-222 -301q40 -15 48 -15q29 0 69 37l8 -4q-75 -105 -115 -94l-49 15l-165 -217q34 12 50 12q12 0 26 -3l245 -45q44 -8 75 45l16 -9q-32 -46 -37 -51q-43 -50 -82 -50q-6 0 -12 1l-294 46q-38 5 -71 -29q-5 2 -10 8l226 304q0 1 -20 7.5t-25 6.5q-32 0 -51 -16
l-24 -24q0 1 -10 1q4 23 42 60q43 41 78 37l50 -14l161 217q-29 -15 -71 -8l-263 43q-36 5 -79 -67q-4 1 -15 3l87 146q4 -2 8 -11t3 -15q8 6 17 8q6 1 16 0q13 -2 17 -2l287 -46q23 -3 78 39q8 -7 8 -15z" />
    <glyph glyph-name="bracketleft" unicode="[" horiz-adv-x="312" 
d="M45 672h215v-30h-144v-770h146v-30h-217v830z" />
    <glyph glyph-name="backslash" unicode="\" horiz-adv-x="264" 
d="M283 -34l-216 752l-40 -11l216 -753z" />
    <glyph glyph-name="bracketright" unicode="]" horiz-adv-x="311" 
d="M258 -158h-215v30h144v770h-146v30h217v-830z" />
    <glyph glyph-name="asciicircum" unicode="^" horiz-adv-x="274" 
d="M23 735l102 75h13l105 -77l-6 -14l-107 30l-101 -26z" />
    <glyph glyph-name="underscore" unicode="_" horiz-adv-x="445" 
d="M0 -107h477v-29h-477v29z" />
    <glyph glyph-name="grave" unicode="`" horiz-adv-x="254" 
d="M210 711l9 10l-122 72q-27 16 -36 16q-14 0 -24.5 -11t-10.5 -25q0 -19 20 -26q8 -3 37 -6z" />
    <glyph glyph-name="a" unicode="a" horiz-adv-x="409" 
d="M475 87q-67 -45 -85 -91q-3 13 -12 38q-10 15 -29 34t-25 19q-5 0 -50 -38l-72 -60q1 8 -2 20l-100 102q-40 46 -40 95q0 44 58 107q92 98 110 124q8 5 13 5q6 0 7.5 -8t2.5 -15q59 -46 92 -47q31 0 69 42l8 -6q-16 -41 -53 -66q-33 -23 -66 -22q-54 0 -96 46
q-28 -27 -47 -49q-48 -53 -48 -72q0 -42 45 -89q83 -88 90 -97q76 54 77 106q0 68 -1 73q-5 3 -22 20l96 81q4 -12 3 -16q-22 -20 -17 -82q3 -37 -7 -99q32 -25 58 -66q14 9 37 20q6 -6 6 -9z" />
    <glyph glyph-name="b" unicode="b" horiz-adv-x="411" 
d="M431 222q0 -48 -73 -130l-116 -124q-3 2 -8 8q7 14 2 22q-10 17 -58 58q-54 45 -74 46q-4 0 -15 -11.5t-18 -14.5l-4.5 2t-4.5 7q11 21 29 62v347q0 22 7 31q10 16 11 19q-23 27 -55 55q-4 0 -21 -19q-20 -22 -28 -26q-5 4 -5 10t92 98l24 -36q22 -31 42 -31l30 20
q8 -8 8 -12q0 -2 -18 -17t-21 -38v-183q0 -35 5 -45q26 20 68 60q38 37 60 52q-2 -12 4 -31q46 -44 92 -90t45 -89zM378 182q0 41 -44 83q-82 78 -92 91q-32 -26 -82 -77l-1 -90q0 -8 -6 -30q31 -12 60 -39q36 -35 73 -70q92 84 92 132z" />
    <glyph glyph-name="c" unicode="c" horiz-adv-x="370" 
d="M395 411q0 -5 -27 -36.5t-44.5 -42t-36.5 -10.5q-45 0 -93 57q-14 -5 -50 -52q-39 -50 -39 -75q0 -41 61 -91q78 -64 93 -88q30 31 93 86l12 -12q-78 -71 -148 -151l-8 9q4 5 8 17q0 4 -41 33q-49 36 -75 65q-40 46 -40 90q1 80 182 241q3 -4 8 -8q3 -3 -1 -6t-4 -6
q6 -15 35 -37.5t44 -22.5q26 0 60 49q2 -1 11 -9z" />
    <glyph glyph-name="d" unicode="d" horiz-adv-x="461" 
d="M510 99q0 -5 -36 -45q-46 -52 -52 -60l-15 8q-1 3 8.5 14t8.5 14q-15 21 -31 42q-19 24 -35 34q-30 -26 -107 -110l-11 6q-4 0 5.5 8.5t8.5 11.5q-49 41 -99 82q-66 62 -66 103q1 45 40 103q36 53 78 80q12 8 32 28.5t30 26.5q1 -21 28 -46.5t46 -25.5q9 0 13 7
q2 18 0 44q-2 34 -2 43q0 60 45 103q-33 13 -59 33q-10 9 -21 18q-3 0 -18.5 -17t-23.5 -22q-11 4 -11 8q0 -1 41.5 43t48.5 63q1 -4 7.5 -3.5t6.5 -2.5q0 2 -6.5 -1t-4.5 -19q44 -40 68 -40q8 0 25 16q7 0 12 -5q-13 -18 -25 -37q-18 -26 -16 -42l1 -341q0 -27 -17 -60
q8 -8 63 -82q5 3 15 15t14 15q4 -1 7.5 -3t3.5 -7zM356 201l2 151q-34 -23 -49 -23q-31 0 -56 22q-14 13 -27 26q-27 -12 -59 -53t-32 -60q-1 -41 61 -93q75 -64 92 -97q51 46 62 70q6 14 6 57z" />
    <glyph glyph-name="e" unicode="e" horiz-adv-x="352" 
d="M368 310q0 -33 -58 -89q-46 -45 -92 -89q2 -3 32 -23q22 -15 29 -39q14 11 35 34q25 27 38 38q8 -8 8 -13q0 -6 -57 -62q-69 -66 -73 -71l-11 6q3 9 0 23q-49 48 -99 97q-46 52 -46 102q0 37 80 123q65 71 111 104q0 -5 5 -17q34 -32 66.5 -64.5t31.5 -59.5zM315 272
q0 14 -27 41q-18 16 -35 32q-11 12 -28 46q-57 -57 -68 -70q-34 -40 -35 -66q0 -47 83 -111q9 20 44 51q24 20 47 40q19 21 19 37z" />
    <glyph glyph-name="f" unicode="f" horiz-adv-x="315" 
d="M337 670q-44 -82 -86 -82q-3 0 -26 10t-27 10q-29 0 -29 -92q0 -3 2 -37q2 -37 2 -57q12 -6 27 -6q20 0 65 17l1 -8q-11 -15 -33 -39q-3 0 -11.5 3t-12.5 3q-18 0 -37 -9v-99q0 -149 -20 -174q12 -5 37 -24q10 -13 27 -37q5 1 37 32q-1 -2 8 -13q1 -3 -40 -41.5
t-51 -41.5q0 9 -5 25q-7 8 -27 26q-27 24 -39 24q-5 0 -28 -13q-5 0 -5 8q0 3 14.5 20.5t19.5 28.5q8 20 8 78v199q-5 11 -38 11q-18 0 -32 -8q-19 -11 -23 -12l-5 7q21 20 37 44q10 -7 30 -7q29 0 29 4q-3 39 5 118q5 20 51 68q72 73 78 80q2 -2 8 -6q-2 -6 1 -17
q9 -14 11 -14q5 -4 26 -6q19 -2 38 27h13z" />
    <glyph glyph-name="g" unicode="g" horiz-adv-x="422" 
d="M435 329q0 -4 -6 -13t-7 -14v-38v-323q0 -65 -3 -79q-5 -23 -32 -56l-96 -110q-8 3 -13 20q-12 35 -57 35q-35 0 -56 -23q-5 -5 -18 -23q-12 -4 -12 4q0 15 46 58q35 33 69 33q37 0 68 -34q39 33 39 69q0 6 -1 19t-1 21v224q1 0 -6 6q-40 -37 -116 -120q-24 36 -69 72
q-54 44 -65 56q-29 33 -29 76q0 59 57 125q63 61 126 123q4 -1 11 -4q-2 -3 -1 -14q37 -55 102 -54q22 1 30 11q10 14 27 20q0 -1 3 -1.5t3 -4.5q0 -7 -24.5 -32.5t-42 -34.5t-41.5 -9q-48 0 -105 51q-18 -9 -59 -56.5t-41 -60.5q0 -6 -1.5 -14t-1.5 -11q0 -11 14 -27
t68 -64q43 -38 66 -75q74 57 86 91q2 5 7 47v55q-12 -11 -15 -11q-3 3 -4 13q41 41 96 89q5 -5 5 -12z" />
    <glyph glyph-name="h" unicode="h" horiz-adv-x="393" 
d="M407 105q0 -57 -20 -87q-42 -49 -83 -98q-13 -3 -13 10q0 4 15 26q17 26 21 35q12 27 12 109q0 136 -1 160.5t-50 62.5q-14 13 -48 44q-13 -9 -49 -44q-39 -38 -39 -46v-114q0 -4 -12 -22.5t-12 -23.5q0 -2 11 -6q15 -5 28 -21q8 -13 23 -33q13 10 38 34q8 -8 8 -12
q0 -10 -90 -101q-5 4 -8 4q0 3 1 10.5t1 11.5q0 10 -24 34t-34 24q-4 0 -11 -6t-9 -7q-1 0 -6 1.5t-5 6.5q0 4 10 18q13 18 17 26q7 16 7 66l1 334q8 34 30 61l-36 22q-28 17 -34 32q-7 -3 -21.5 -19t-20.5 -19q0 1 -2 4t-2 8q0 8 90 94q-5 -19 20 -40t46 -22q9 0 18 7
q14 12 23 17q5 -5 5 -10q0 -3 -18 -19.5t-24 -30.5q-9 -20 -9 -128v-148q12 16 65 65.5t65 64.5q1 -1 4 -28q12 -15 47 -39t48 -39q24 -25 26 -57z" />
    <glyph glyph-name="i" unicode="i" horiz-adv-x="208" 
d="M194 559q1 -8 -26 -30.5t-43 -22.5q-36 0 -52 31q-4 -4 -19 -11l-10 13l67 70q0 -9 3 -19q8 -11 17 -20.5t22 -9.5t36 7zM221 90q-20 -15 -45 -48q-31 -39 -40 -48l-6 5q0 3 1.5 11t1.5 13q0 15 -63 55q-3 0 -11.5 -8.5t-11.5 -7.5q-4 -2 -4 6q0 5 8.5 11t9.5 8
q5 5 13 31q1 3 1 34v139q0 11 20 38q-9 6 -27 16q-10 10 -29 31q-10 -9 -33 -24l-6 12l76 77h12q0 -20 21 -39t33 -19q3 0 24 10l8 -9q-1 -2 -23 -25q-15 -17 -15 -22v-176q0 -1 -10 -33q18 -17 57 -50q11 9 31 20q1 -1 5 -2.5t4 -2.5q0 -2 -2 -3z" />
    <glyph glyph-name="j" unicode="j" horiz-adv-x="229" 
d="M137 261q1 15 27 68q-20 14 -63 54q-13 -11 -38 -31q-8 8 -8 12q0 7 91 87q0 -10 5 -24q41 -41 60 -41q3 0 14 11t14 13q2 2 3.5 -1t3.5 -3q-32 -58 -41 -82q-13 -36 -10 -74l1 -299q11 -94 11 -86q0 -23 -22 -52q-1 -1 -90 -106q-11 34 -48 34q-21 0 -35 -21
q-12 -4 -12 4q0 18 29.5 43t50.5 25q28 0 44 -18q25 31 25 64q0 14 -13 66zM237 559q1 -8 -26.5 -30.5t-43.5 -22.5q-36 0 -52 31q-4 -4 -18 -11l-10 13l67 70q0 -9 2 -19q9 -11 17.5 -20.5t21.5 -9.5t37 7z" />
    <glyph glyph-name="k" unicode="k" horiz-adv-x="385" 
d="M413 412q-30 -42 -43 -53q-19 -15 -56 -20q-7 -1 -24 3q-18 -16 -52 -54q83 -35 131 -73q12 -9 15 -27q1 -13 1 -99q0 -42 -23 -75q-8 -11 -74 -84q-1 1 -4.5 1t-3.5 5q0 -2 18 22.5t21 48.5q5 34 5 56q0 59 -1 66q-3 48 -18 54q-103 62 -113 58q-9 -5 -32 -28
q1 -41 -8 -60q-2 -5 -11 -15t-9 -15q0 -4 23 -23q28 -23 37 -33q9 7 28 20q5 -5 5 -10t-24 -34q-37 -45 -39 -48h-12q1 18 -5 24q-40 45 -62 45q-4 0 -18 -9.5t-18 -11.5l-4 10q45 39 44 70l1 345q-3 51 30 106q-36 13 -47 21l-23 23q-15 -12 -38 -31l-10 7q31 34 92 98
q-1 -10 2 -28q6 -10 29 -24.5t33 -14.5q5 0 36 21q10 -3 5 -9q-6 -6 -27 -35q-12 -17 -12 -55v-306q39 35 107 113q-6 7 -18 18q-5 -4 -15.5 -12.5t-15.5 -11.5q-3 3 -9 6q21 26 37 45q39 45 48 48q2 -8 9 -26q11 -19 19 -24q10 -8 30 -8q15 0 63 23z" />
    <glyph glyph-name="l" unicode="l" horiz-adv-x="222" 
d="M238 86q-29 -35 -85 -98l-9 2q5 16 -28 48t-44 32q-4 0 -12 -5t-11 -5q-4 1 -4 9q0 2 17 21t22 32q11 29 5 73v254q0 55 1 62q3 34 22 68q-45 21 -69 46q-9 -6 -38 -31l-5 11q26 32 76 93q0 -13 10.5 -26t34.5 -26.5t31 -13.5q5 0 16 8q16 10 20 12l6 -13
q-33 -27 -37 -80l1 -322q1 -6 1 -13q0 -43 -36 -97q29 -11 44 -30q11 -17 23 -33q9 5 38 30z" />
    <glyph glyph-name="m" unicode="m" horiz-adv-x="638" 
d="M614 163q0 -55 -19 -87q-22 -35 -99 -98h-15q-1 10 18 35q14 16 28 33q18 23 18 65q0 5 2 42t2 61q0 60 -12 76q-15 20 -51 46q-57 40 -58 40q-15 -6 -29 -29t-14 -38q6 -124 3 -151q-1 -5 -7.5 -15.5t-6.5 -13.5q19 -6 34 -28q13 -17 16 -31q18 15 35 21q0 -1 2 -4t2 -8
q0 -14 -80 -84q-2 10 -10 28q-36 51 -54 51q-8 0 -15 -7q-2 2 -4.5 6t-4.5 6q12 15 24 38v180q-23 16 -46 31q-29 21 -48 47q-54 -32 -54 -64q0 -4 1 -9v-131q0 -17 -24 -47q39 -24 60 -64q13 10 35 24q4 -1 4 -8t-29.5 -36t-50.5 -45q-3 9 -10 25q-8 11 -28 27.5t-31 16.5
q-2 0 -13 -3q-10 -2 -16 0q27 35 32 52q3 9 3 45v123q0 15 16 31q-31 14 -60 50q-10 3 -22 -8q-17 -15 -19 -16q0 3 -6 8q32 36 92 96q0 -25 6 -34q44 -46 56 -46q5 0 96 89l8 -8q-1 -5 -2 -12q92 -73 105 -73q5 0 42 35q47 44 61 55q5 -1 11 -6q-4 -6 -6 -15q7 -8 64 -51
q49 -36 56 -57q4 -8 13 -27z" />
    <glyph glyph-name="n" unicode="n" horiz-adv-x="425" 
d="M402 195q0 -93 -8 -117q-18 -57 -100 -121q-3 1 -9 5q45 59 45 119v164q-3 20 -7 45q-9 24 -96 88q-12 -6 -23 -14q-25 -16 -35 -33v-162q0 -33 -30 -54q32 -11 59 -52q8 3 25 20l3 -1.5t5 -7.5q-27 -31 -81 -85l-8 3q0 3 1.5 10.5t1.5 11.5q0 8 -23 29t-32 21
q-3 0 -11.5 -5t-11.5 -5q-2 9 14.5 30.5t17.5 30.5q4 20 2 78q-3 63 0 92q2 22 13 33q-24 11 -60 54q-13 -10 -39 -24v16q24 26 73 79h12q-1 -19 28 -45t46 -26q11 0 52 35l40 36h12q-2 -23 50 -55q57 -35 65.5 -61.5t9.5 -64.5q-1 60 -1 -67z" />
    <glyph glyph-name="o" unicode="o" horiz-adv-x="407" 
d="M419 214q0 -35 -39 -81q-24 -29 -81 -79t-72 -68q-1 10 -9 27q-52 44 -103 88q-45 42 -45 91q0 58 56 123q62 62 123 125h11q1 0 1.5 -9.5t3.5 -11.5q54 -50 109 -100q45 -47 45 -105zM363 185q0 32 -29 60t-60 56q-44 44 -60 71q-101 -89 -101 -134q0 -40 64 -90
q74 -56 89 -91q97 79 97 128z" />
    <glyph glyph-name="p" unicode="p" horiz-adv-x="445" 
d="M448 236q0 -71 -178 -240q0 11 -7 31q-12 14 -34 32t-29 18q-16 0 -18 -10q-3 -10 1 -63q2 -20 2 -38q0 -73 -27 -104q2 -2 30 -18q20 -12 32 -31q11 10 36 30q8 -8 8 -13q0 -6 -36 -46.5t-52 -45.5q-2 12 -9 31q-5 8 -23.5 21t-26.5 13q4 0 -28 -7v11q0 2 12 19.5
t13 25.5q6 45 1 98v242q0 68 26 113q-9 10 -34.5 25.5t-35.5 27.5q-18 -14 -34 -20q-4 1 -4 8t81 90q1 -9 5 -25q5 -9 31.5 -30.5t37.5 -21.5q7 0 53 40q51 46 53 47q1 -10 6 -24q52 -44 103 -89q45 -46 45 -97zM392 199q0 41 -45 83q-83 75 -94 88q-3 1 -8 2
q-63 -53 -63 -94q0 -6 1 -20.5t1 -24.5l-1 -30q-2 -33 -2 -57q0 -34 1 -52q13 12 26.5 24.5t25.5 12.5q20 0 47 -23l34 -34q77 78 77 125z" />
    <glyph glyph-name="q" unicode="q" horiz-adv-x="435" 
d="M466 -162q0 -15 -82 -89q4 22 -18.5 43t-38.5 21q-3 0 -15 -10t-17 -11l-7 9q19 24 38.5 49.5t21.5 45.5q2 24 2 88l-5 134q-62 -59 -111 -119l-11 3q4 0 2 7q-3 9 -2 12q-9 13 -73 62q-57 44 -72 83q-8 20 -8 41q0 49 65 122q58 60 117 121q3 -1 9 -2q-1 -19 1 -23
q12 -19 44 -34.5t51 -15.5q23 0 42 15t36 29q4 0 4 -8q0 -18 -48.5 -57.5t-58.5 -39.5q-21 0 -57 15q-44 17 -65 43q-28 -29 -57 -58q-34 -37 -34 -66q0 -41 56 -91q45 -40 91 -80q62 54 77 87q11 23 11 82q0 5 -17 22q29 28 90 90h12v-12q0 -3 -10.5 -17.5t-12.5 -26.5
l3 -335q-3 -28 -17 -62q-2 -3 -10.5 -14t-8.5 -16t16 -19q27 -24 29 -26q12 8 33 20q5 -5 5 -12z" />
    <glyph glyph-name="r" unicode="r" horiz-adv-x="308" 
d="M330 308q0 -34 -85 -98q-4 0 -4 8q0 -2 11.5 21t11.5 48q0 37 -15 47q-38 28 -50 42q-11 -7 -24 -22q-16 -18 -16 -31q3 -55 1 -159q0 -7 -9 -21t-9 -18q0 -5 58 -54q11 10 37 26q0 -1 2 -4.5t2 -8.5q0 -6 -35.5 -43t-52.5 -45q-1 6 -7 19t-50 48q-11 4 -10 4
q-5 0 -12 -5t-10 -5q-5 5 -5 10q0 4 16.5 23t16.5 23v91q0 7 -1 22t-1 24q0 39 19 70q-5 5 -29 18t-33 31q-13 -14 -42 -41q-5 5 -5 10q0 6 35 47q27 31 59 58q1 -7 2 -21q5 -9 28.5 -26t33.5 -17q8 0 46 36q19 19 39 38q2 -2 6 -7q-1 -5 -1 -14q26 -18 70 -61
q12 -15 12 -63z" />
    <glyph glyph-name="s" unicode="s" horiz-adv-x="299" 
d="M310 406q0 -12 -27 -39.5t-36 -29.5q-2 -1 -13 -5.5t-15 -4.5q-18 0 -42 15t-34 34q-18 -8 -33 -28t-15 -35q0 -28 56 -48q51 -17 103 -35q56 -27 56 -73q0 -39 -63 -108q-54 -61 -75 -69q-1 7 -2 20q-13 15 -41 31t-44 16q-19 0 -38 -14q-29 -20 -37 -23v16
q28 26 57 50.5t56 24.5q53 0 93 -51q44 38 44 65q0 32 -53.5 48t-105.5 31q-55 25 -55 77q0 40 45 87q83 86 88 92q1 -3 4.5 -7t4.5 -14q14 -14 27.5 -26.5t42.5 -14.5q16 0 21 7q10 12 27 21q0 -1 2 -3t2 -7z" />
    <glyph glyph-name="t" unicode="t" horiz-adv-x="228" 
d="M224 416q-5 -15 -34 -52q-20 10 -25 10l-13 3q-9 1 -12 -3q0 -18 2.5 -58.5l2.5 -40.5v-96q0 -3 -17 -25q-19 -25 -25 -37q45 -13 67 -51q7 3 21.5 15t21.5 16q4 -5 4 -11q0 -5 -24 -32q-40 -45 -49 -56q-11 4 -20 21q-4 8 -27.5 29.5t-31.5 21.5t-22 -22l-13 5
q18 26 48 80q1 2 1 35l-1 206h-38q-6 0 -15.5 -7t-12.5 -12h-12q14 29 41 57q2 -4 7 -11h22v96q-8 -6 -23 -14q-4 5 -4 10q0 12 116 122q12 0 12 -8q0 -7 -14.5 -22t-14.5 -29v-149q4 -4 24 -4q21 0 50 16z" />
    <glyph glyph-name="u" unicode="u" horiz-adv-x="455" 
d="M470 101q0 -9 -41 -52q-36 -38 -46 -45q-7 6 -10 17q-1 7 -3.5 15.5t-24 30.5t-32.5 22q-5 0 -42 -36q-53 -52 -61 -59h-12q-1 10 -8 28q-9 11 -46 40q-41 30 -52 30q-4 0 -12 -3t-11 -3q-3 3 -3 7q0 6 8.5 22.5t9.5 23.5q-1 46 0 139q1 21 18 51q-20 11 -60 43l-30 -24
q-2 0 -6 2t-6 2v16q28 27 72 79h13q-1 -15 21 -33t40 -18q11 0 47 24q8 -9 8 -14q0 -4 -20.5 -27.5t-20.5 -28.5v-151q0 -22 -17 -44q4 -6 18 -15q22 -13 26 -15q28 -21 57 -56q73 56 73 103q0 11 -4 21q4 4 0 96q1 23 21 44q-18 13 -53 42q-16 -13 -45 -34q-4 5 -4 12
q0 5 82 97h13q-3 -17 18.5 -35.5t39.5 -18.5q7 0 39 17q5 -5 5 -10q0 -4 -18.5 -29.5t-18.5 -29.5v-141q0 -20 -24 -51q12 -8 33 -24q9 -7 31 -36q3 1 22 21h12q4 -5 4 -12z" />
    <glyph glyph-name="v" unicode="v" horiz-adv-x="360" 
d="M378 283q0 -58 -68 -147q-59 -75 -117 -149q-102 92 -118 92q-4 0 -14 -4.5t-16 -5.5q0 1 -2 3t-2 7q0 3 13 17.5t16 22t4 18.5q0 8 -1.5 19.5t-1.5 13.5v115q0 3 17 41q-16 11 -49 39q-7 -3 -20.5 -11.5t-20.5 -12.5q-5 5 -5 12q0 10 40 51l43 43q9 -6 12 -14
q4 -13 4 -14q7 -11 26 -21q16 -9 25 -9q4 0 16.5 6.5t16.5 7.5q4 -5 4 -10q0 -3 -15.5 -25t-17.5 -32q-1 -9 1 -29l2 -25v-100q0 -3 -17 -46q55 -28 80 -71q59 64 76 90q31 45 31 89q0 20 -29 57q-44 56 -44 58q-7 -4 -22.5 -16t-22.5 -15q-1 1 -3.5 5.5t-4.5 6.5
q54 75 101 104q2 -10 9 -25q14 -13 38 -37q36 -40 36 -99z" />
    <glyph glyph-name="w" unicode="w" horiz-adv-x="554" 
d="M569 280q0 -55 -65 -146q-50 -66 -100 -133q-10 -16 -24 -21l-6 4q2 27 -34 62q-28 27 -62 46q-10 -9 -59 -62q-26 -29 -51 -40q-2 10 -12 28q-13 15 -37 33q-28 21 -41 21q-4 0 -10 -1.5t-9 -1.5q-4 4 -4 10q0 4 15 24.5t15 25.5v149q0 7 14 31q-21 16 -60 49
q-5 -3 -17 -13.5t-17 -13.5q-5 5 -5 14q0 10 37 49q33 35 40 39q7 -6 12 -21q3 -7 24 -25t30 -18q5 0 18 9q17 12 22 15q5 -5 5 -11q0 -4 -15.5 -26t-15.5 -26v-161q0 -10 -21 -37q25 -20 74 -67q22 20 44 41.5t22 39.5v139q0 4 6 15q7 15 8 19q-15 9 -46 36
q-11 -12 -38 -31q-8 9 -8 14t31 39q40 45 48 56q10 0 15 -8q1 -11 21.5 -28.5t34.5 -17.5q4 0 14 8t12 9l8 -8q-3 -6 -21 -29q-13 -17 -13 -22v-114q0 -51 -10 -65q-4 -17 -4 -12q25 -17 84 -71q35 31 62.5 82.5t27.5 88.5q0 20 -12 41q-9 14 -28 35q-26 28 -30 33
q-4 -1 -33 -30h-12q0 1 -2 4.5t-2 8.5q0 2 83 95h12q3 -11 58 -72q27 -31 27 -81z" />
    <glyph glyph-name="x" unicode="x" horiz-adv-x="411" 
d="M402 403q0 -6 -21.5 -30.5t-37.5 -33.5q-4 -2 -21 -2.5t-27 -6.5q-19 -12 -43 -46q-21 -30 -21 -38q0 -21 23 -21h24l26 4q-1 -6 -16 -29q-19 0 -21 2h-13q-2 2 -2 -6q0 -11 30 -70q32 -64 48 -64q3 0 60 34q5 -5 5 -10q0 -12 -37 -47t-50 -35q-43 0 -79 74
q-20 46 -41 93q-23 -22 -56 -71v-9q12 -6 33 -22l26 27h13v-16q0 -4 -76 -90q-6 3 -11 12q-3 6 -6 13q-7 9 -27.5 19.5t-31.5 10.5q-9 0 -28 -19l-23 -26v22q-2 19 19.5 41.5t41.5 27.5q15 1 37 9q24 23 67 96h-27q-14 0 -14 4q0 6 9 6v-1q-1 -2 -13.5 -10t-17.5 -8
q-2 0 -2 3q0 8 4 23.5t9 15.5q4 0 10 -2t10 -2h23q1 1 3.5 1.5t2.5 5.5q0 6 -24 53.5t-41 75.5q-6 9 -21 9q-22 0 -61 -40h-12q0 1 -2 3t-2 7q0 2 96 98q1 0 19 -13q6 1 17 -2q29 -14 50 -63q33 -79 34 -80q14 18 49 60q-3 4 -11 12.5t-11 12.5q-7 -3 -11 -5t-11 -5
q0 1 -2 4t-2 8q0 13 57 70q11 -7 13 -18q34 -30 62 -30q5 0 21 9q21 12 28 15q0 -1 2 -3t2 -7z" />
    <glyph glyph-name="y" unicode="y" horiz-adv-x="413" 
d="M443 387q-14 -13 -37 -38q-14 -20 -14 -46v-131q0 -4 3.5 -33.5t3.5 -33.5v-155q0 -33 -68 -104q-47 -47 -93 -94h-12q0 10 -5 31q-11 10 -34.5 20t-36.5 10q-21 0 -37 -13q-32 -27 -40 -32q-5 5 -5 11q0 14 41 48q37 31 56 39q3 1 26 1q46 0 87 -34q14 9 30 29
q19 25 19 42v206l-127 -113h-12q-2 9 -8 24q-11 14 -40 38q-33 27 -45 27q-4 0 -10.5 -3.5t-11.5 -3.5q-6 5 -4 12q10 10 22 31q3 16 0 112q-2 70 22 102q-18 9 -57 39l-28 -24q-18 -16 -24 -13q-3 3 -4 10q43 45 97 99q9 -8 9 -21q35 -30 56 -30q5 0 21 9q23 14 24 15
q0 -2 2 -4t2 -6q0 -3 -20 -25t-23 -35q-4 -22 -4 -50v-32q1 -20 1 -31q0 -55 -18 -92q12 -5 36 -20q35 -24 52 -60q4 0 45 41q44 45 44 60v91q0 25 31 69q-22 13 -67 43q-5 -4 -17 -14t-17 -14q-3 3 -8 14q20 25 37 44q39 44 50 48q1 -8 5 -21q12 -17 53 -40q12 -3 40 16h12
v-15z" />
    <glyph glyph-name="z" unicode="z" horiz-adv-x="325" 
d="M327 421l-136 -180q5 -5 14 -5q19 0 60 20q4 -5 4 -10q0 -6 -45 -51q-9 -2 -15 9q-4 1 -21 1q-29 0 -54 -36q-38 -55 -45 -62q0 -6 2 -8q7 4 30 4q4 0 72.5 -10.5t72.5 -10.5q12 0 26.5 14.5t23.5 16.5q8 -8 8 -12q0 -12 -79 -100h-16q-4 4 -4 14q-8 -1 -26 -1l-143 24
q-7 -2 -44 -21l-12 12l126 171q-8 8 -20 8q-16 0 -27 -6q-13 -9 -26 -17q-5 4 -5 10q0 4 16 22.5t19 23.5q3 2 6 5t8 3q2 0 15 -9q3 -1 19 -1q27 0 48 28q41 57 50 67v15q-29 3 -98 14q-59 9 -63 9q-23 0 -48 -37h-13q0 1 -2 4t-2 8q0 14 84 107q7 -3 15 -21q7 0 10.5 2
t6.5 2q5 0 52.5 -8.5t51.5 -8.5h41q27 0 44 13h15q4 -4 4 -12z" />
    <glyph glyph-name="braceleft" unicode="{" horiz-adv-x="244" 
d="M93 -77v207q0 48 -11 70q-14 30 -54 43q40 13 54 43q11 22 11 70v197q0 72 24 103q27 36 95 36v-12q-48 -22 -48 -122v-187q0 -59 -16 -84q-19 -31 -74 -43v-2q55 -12 74 -43q16 -25 16 -84v-197q0 -100 48 -122v-12q-68 0 -95 36q-24 31 -24 103z" />
    <glyph glyph-name="bar" unicode="|" horiz-adv-x="99" 
d="M6 715h35v-754h-35v754z" />
    <glyph glyph-name="braceright" unicode="}" horiz-adv-x="258" 
d="M170 553v-197q0 -48 11 -70q14 -30 54 -43q-40 -13 -54 -43q-11 -22 -11 -70v-207q0 -72 -24 -103q-27 -36 -95 -36v12q48 22 48 122v197q0 59 16 84q19 31 74 43v2q-55 12 -74 43q-16 25 -16 84v187q0 100 -48 122v12q68 0 95 -36q24 -31 24 -103z" />
    <glyph glyph-name="asciitilde" unicode="~" horiz-adv-x="351" 
d="M311 779q-6 -24 -35 -47.5t-54 -23.5q-10 0 -53 19.5t-62 19.5q-15 0 -33.5 -9.5t-26.5 -21.5q-4 2 -13 7q1 18 35 44.5t53 26.5q23 0 64.5 -21t49.5 -21q16 0 60 33q4 0 15 -6z" />
    <glyph glyph-name="Adieresis" unicode="&#xc4;" horiz-adv-x="506" 
d="M543 97l-93 -115v5q0 19 -29 31q-23 10 -46 10q-22 0 -37.5 -16t-21.5 -16h-4q3 42 57 78q27 15 55 30l-34 102q-17 49 -25 49q-2 0 -21.5 -14.5t-27.5 -12.5l-110 25l-26 -5q-15 -53 -47 -158l51 -37q2 1 16 18q11 12 19 12q2 0 7 -2l-83 -108q-10 5 -10 17
q-6 13 -34 23t-45 10q-14 0 -37 -18q-30 -25 -35 -28q10 67 65 94l58 22q3 6 29.5 93t26.5 92q0 16 -24 26q-19 8 -39 8q-18 0 -40 -20q-18 -16 -35 -32q3 30 42.5 72t68.5 42q19 0 55 -21l71 226q2 5 -20 19t-29 14q-16 0 -53 -56l-9 8l96 128q5 -9 24 -27q27 -19 74 -19
q14 0 24 8q19 13 21 15l-54 -72q41 -117 81 -235q62 -183 62 -216q0 -14 -9 -30q-6 -11 -12 -21q0 -5 17 -14.5t23 -9.5q4 0 17 14t22 14q3 0 8 -2zM354 289q-26 91 -78 257l-80 -252q18 18 57 18q4 0 101 -23zM303 760q0 17 12.5 28t29.5 11t29.5 -11t12.5 -28
q0 -18 -12 -29t-30 -11q-17 0 -29.5 11.5t-12.5 28.5zM163 760q0 17 12.5 28t29.5 11t29.5 -11t12.5 -28q0 -18 -12 -29t-30 -11q-17 0 -29.5 11.5t-12.5 28.5z" />
    <glyph glyph-name="Aring" unicode="&#xc5;" horiz-adv-x="506" 
d="M543 97l-93 -115v5q0 19 -29 31q-23 10 -46 10q-22 0 -37.5 -16t-21.5 -16h-4q3 42 57 78q27 15 55 30l-34 102q-17 49 -25 49q-2 0 -21.5 -14.5t-27.5 -12.5l-110 25l-26 -5q-15 -53 -47 -158l51 -37q2 1 16 18q11 12 19 12q2 0 7 -2l-83 -108q-10 5 -10 17
q-6 13 -34 23t-45 10q-14 0 -37 -18q-30 -25 -35 -28q10 67 65 94l58 22q3 6 29.5 93t26.5 92q0 16 -24 26q-19 8 -39 8q-18 0 -40 -20q-18 -16 -35 -32q3 30 42.5 72t68.5 42q19 0 55 -21l71 226q2 5 -20 19t-29 14q-16 0 -53 -56l-9 8l96 128q5 -9 24 -27q27 -19 74 -19
q14 0 24 8q19 13 21 15l-54 -72q41 -117 81 -235q62 -183 62 -216q0 -14 -9 -30q-6 -11 -12 -21q0 -5 17 -14.5t23 -9.5q4 0 17 14t22 14q3 0 8 -2zM354 289q-26 91 -78 257l-80 -252q18 18 57 18q4 0 101 -23zM291 864q31 0 52 -21t21 -52q0 -30 -21.5 -51.5t-51.5 -21.5
q-31 0 -52 21t-21 52t21 52t52 21zM291 834q-18 0 -30.5 -12.5t-12.5 -30.5t12.5 -30.5t30.5 -12.5t30.5 12.5t12.5 30.5t-12.5 30.5t-30.5 12.5z" />
    <glyph glyph-name="Ccedilla" unicode="&#xc7;" horiz-adv-x="480" 
d="M326 -95q-6 -94 -81 -94q-20 0 -38 5l-9 25h3l9 -4q9 -4 14 -4q16 0 33 16.5t17 32.5q0 21 -29 30q-21 4 -43 9l47 84q-16 26 -69 65q-89 64 -120 107q-45 61 -45 150q0 80 77 170q27 32 140 134q67 61 69 57q9 -22 46 -53q44 -36 78 -36q20 0 41 19l33 33q15 -5 15 -13
l-190 -236q-159 -199 -159 -213q0 1 64 -53t72 -79l159 166q7 -11 6 -18q-3 -26 -86 -109q-55 -55 -110 -109l-8 -15q29 -7 42 -21.5t22 -45.5zM411 553q-43 -11 -45 -11q-35 0 -68 20.5t-51 52.5q-10 -1 -19.5 -21.5t-9.5 -32.5v-251zM170 549q-102 -82 -102 -188
q0 -93 77 -146q11 20 11 36l-2 244q0 28 16 54z" />
    <glyph glyph-name="Eacute" unicode="&#xc9;" horiz-adv-x="526" 
d="M551 671q-40 -94 -111 -89q-61 4 -109 48q-48 -41 -46 -85l7 -189q5 -1 29.5 19t37.5 20q20 -1 44 -11.5t36 -9.5q12 -1 27.5 11t32.5 25q-6 -35 -39 -66t-60 -31l-76 26q-29 0 -32 -21v-68q-1 -57 -87 -151q70 9 96 2q48 0 94 -16q34 -13 45 -24l78 81l5 -12l-134 -146
q-3 25 -69 42q-48 13 -84 14l-92 1q-34 1 -70 -20q-27 -17 -54 -33q9 26 58.5 66.5t58.5 73.5q2 5 2 31v137q-27 35 -71 36q-9 3 -25 -9q-21 -17 -33 -21q44 78 93 77q14 0 18.5 -1t14.5 -9q1 19 1 69q1 45 52 105q41 49 73 66q-38 -49 -44 -59q-18 -30 -19 -64l10 -261
q-2 -86 -66 -134l23 3q45 29 57 70q3 11 4 47l-7 269q1 54 51 116q4 5 97 103q9 -9 24 -26q4 -7 36.5 -21t50.5 -14q17 -1 31 7q21 13 41 26zM275 667q0 -20 -44 -50.5t-69 -25.5l-120 33q-19 -1 -46 -19q-23 -15 -28 -12q18 35 61.5 62t74.5 21l112 -35q5 -2 10 -2
q10 0 24 11q18 14 25 17zM208 721l-9 10l122 72q27 16 36 16q14 0 24.5 -11t10.5 -25q0 -19 -20 -26q-7 -3 -37 -6z" />
    <glyph glyph-name="Ntilde" unicode="&#xd1;" horiz-adv-x="564" 
d="M283 696q-8 -27 -45.5 -57.5t-63.5 -29.5l-126 35q-10 -2 -34.5 -20.5t-28.5 -14.5q5 20 44 56.5t63 36.5q4 0 7 -2l122 -37q10 -3 26 9q26 19 36 24zM529 250q0 -82 -25 -133q-28 -59 -116 -147q-14 -13 -24 -8q57 82 73.5 127.5t16.5 118.5v292q0 14 -7 29t-30 30
q-31 20 -33 21q-29 27 -58 55q-13 0 -24 -23q-8 -16 -9 -30l2 -344q1 -34 -28 -75q-27 -33 -54 -65l42 -32q7 2 26 21q15 16 25 14l-103 -112q4 9 3 23q-31 35 -104 42q-34 0 -48 -16q-20 -21 -36 -27q28 49 63 72q22 14 45 29q17 17 17 63v131q0 24 -25 41q-22 14 -43 14
q-19 0 -36 -15.5t-27 -16.5q7 24 40.5 55t57.5 31q11 0 25 -9q15 13 9 47q-1 8 -1 15q0 73 126 171q-1 -6 -41 -60q-26 -34 -26 -80v-249q0 -95 -50 -136q12 -10 33 -10q16 0 32 32q13 28 13 39v344q0 44 49 98q47 48 94 95q6 -5 3 -14.5t1 -13.5q58 -48 116 -95
q36 -36 36 -105v-234zM411 809q-6 -24 -35 -47.5t-54 -23.5q-10 0 -53 19.5t-62 19.5q-15 0 -33.5 -9.5t-26.5 -21.5q-4 2 -13 7q1 18 35 44.5t53 26.5q23 0 64.5 -21t49.5 -21q16 0 60 33q4 0 15 -6z" />
    <glyph glyph-name="Odieresis" unicode="&#xd6;" horiz-adv-x="556" 
d="M536 359q0 -67 -48 -133q-33 -46 -114 -120q-101 -93 -135 -129q-1 1 -1 28q0 11 -60 59q-75 60 -111 108q-60 78 -60 164q0 93 102 201q61 64 197 163q0 -8 -2.5 -13.5t-2.5 -11.5q0 -17 61 -65q80 -64 113 -103q61 -73 61 -148zM475 321q0 67 -64 137q-69 66 -137 132
v-550q69 68 139 137q62 71 62 144zM249 101v524q-12 -1 -27 -18t-14 -30v-255q-4 -55 -63 -117zM162 564q-62 -46 -99 -139q-3 -22 -3 -43q0 -102 77 -164q10 20 10 26v251q0 11 1 22q2 21 14 47zM303 770q0 16 12.5 27.5t29.5 11.5t29.5 -11t12.5 -28q0 -18 -12 -29
t-30 -11q-17 0 -29.5 11.5t-12.5 28.5zM163 770q0 16 12.5 27.5t29.5 11.5t29.5 -11t12.5 -28q0 -18 -12 -29t-30 -11q-17 0 -29.5 11.5t-12.5 28.5z" />
    <glyph glyph-name="Udieresis" unicode="&#xdc;" horiz-adv-x="673" 
d="M393 770q0 16 12.5 27.5t29.5 11.5t29.5 -11t12.5 -28q0 -18 -12 -29t-30 -11q-17 0 -29.5 11.5t-12.5 28.5zM253 770q0 16 12.5 27.5t29.5 11.5t29.5 -11t12.5 -28q0 -18 -12 -29t-30 -11q-17 0 -29.5 11.5t-12.5 28.5zM279 672q-16 -31 -42 -53q-29 -23 -55 -23
q-19 0 -18 0l-107 28q-10 1 -28 -13q-23 -18 -32 -22q4 27 42 58.5t64 29.5l121 -28q7 1 28 13t27 10zM676 696q-11 -32 -50 -64t-83 -44q-12 -3 -18 -60l5 -291q-6 -36 -19 -64q45 -35 88 -85l48 41v-17l-98 -112q0 1 -1 1q-5 6 -3 11l2 10q1 20 -30 52t-55 42l-136 -141
q-6 4 -8 11q4 4 4 10q0 24 -69 69q-64 41 -83 41q-9 0 -36 -11q2 10 14 35t15 35l-3 118q0 8 -1.5 23.5t-1.5 19.5q-53 30 -79 30q-11 0 -27.5 -13.5t-28.5 -16.5q6 18 32 44.5t42 32.5q10 3 23 3q3 0 15.5 -2t15.5 -2q6 0 6 17v32q-7 38 47 106q26 32 97 103h9
q1 -11 -10.5 -25t-22.5 -26q8 -9 4 -28l7 -327q0 -33 -2 -44q-7 -29 -34 -48q0 1 6 33l-6 382q-25 -16 -31 -54l5 -293q-3 -17 -16 -69q39 -5 81 -31q49 -30 75 -74q100 78 100 158q0 13 -2 25l-2 245q2 52 57 111q-15 10 -54 35l-48 -34l92 111q5 -5 5 -13.5t1 -10.5
q5 -11 31.5 -21.5t44.5 -10.5q22 0 37 11q41 29 49 34z" />
    <glyph glyph-name="aacute" unicode="&#xe1;" horiz-adv-x="442" 
d="M475 87q-67 -45 -85 -91q-3 13 -12 38q-10 15 -29 34t-25 19q-5 0 -50 -38l-72 -60q1 8 -2 20l-100 102q-40 46 -40 95q0 44 58 107q92 98 110 124q8 5 13 5q6 0 7.5 -8t2.5 -15q59 -46 92 -47q31 0 69 42l8 -6q-16 -41 -53 -66q-33 -23 -66 -22q-54 0 -96 46
q-28 -27 -47 -49q-48 -53 -48 -72q0 -42 45 -89q83 -88 90 -97q76 54 77 106q0 68 -1 73q-5 3 -22 20l96 81q4 -12 3 -16q-22 -20 -17 -82q3 -37 -7 -99q32 -25 58 -66q14 9 37 20q6 -6 6 -9zM193 471l-9 10l122 72q27 16 36 16q14 0 24.5 -11t10.5 -25q0 -19 -20 -26
q-8 -3 -37 -6z" />
    <glyph glyph-name="agrave" unicode="&#xe0;" horiz-adv-x="449" 
d="M475 87q-67 -45 -85 -91q-3 13 -12 38q-10 15 -29 34t-25 19q-5 0 -50 -38l-72 -60q1 8 -2 20l-100 102q-40 46 -40 95q0 44 58 107q92 98 110 124q8 5 13 5q6 0 7.5 -8t2.5 -15q59 -46 92 -47q31 0 69 42l8 -6q-16 -41 -53 -66q-33 -23 -66 -22q-54 0 -96 46
q-28 -27 -47 -49q-48 -53 -48 -72q0 -42 45 -89q83 -88 90 -97q76 54 77 106q0 68 -1 73q-5 3 -22 20l96 81q4 -12 3 -16q-22 -20 -17 -82q3 -37 -7 -99q32 -25 58 -66q14 9 37 20q6 -6 6 -9zM363 471l9 10l-122 72q-28 16 -36 16q-15 0 -25 -11t-10 -25q0 -19 20 -26
q7 -3 37 -6z" />
    <glyph glyph-name="acircumflex" unicode="&#xe2;" horiz-adv-x="449" 
d="M475 87q-67 -45 -85 -91q-3 13 -12 38q-10 15 -29 34t-25 19q-5 0 -50 -38l-72 -60q1 8 -2 20l-100 102q-40 46 -40 95q0 44 58 107q92 98 110 124q8 5 13 5q6 0 7.5 -8t2.5 -15q59 -46 92 -47q31 0 69 42l8 -6q-16 -41 -53 -66q-33 -23 -66 -22q-54 0 -96 46
q-28 -27 -47 -49q-48 -53 -48 -72q0 -42 45 -89q83 -88 90 -97q76 54 77 106q0 68 -1 73q-5 3 -22 20l96 81q4 -12 3 -16q-22 -20 -17 -82q3 -37 -7 -99q32 -25 58 -66q14 9 37 20q6 -6 6 -9zM153 495l102 75h13l105 -77l-6 -14l-107 30l-101 -26z" />
    <glyph glyph-name="adieresis" unicode="&#xe4;" horiz-adv-x="449" 
d="M475 87q-67 -45 -85 -91q-3 13 -12 38q-10 15 -29 34t-25 19q-5 0 -50 -38l-72 -60q1 8 -2 20l-100 102q-40 46 -40 95q0 44 58 107q92 98 110 124q8 5 13 5q6 0 7.5 -8t2.5 -15q59 -46 92 -47q31 0 69 42l8 -6q-16 -41 -53 -66q-33 -23 -66 -22q-54 0 -96 46
q-28 -27 -47 -49q-48 -53 -48 -72q0 -42 45 -89q83 -88 90 -97q76 54 77 106q0 68 -1 73q-5 3 -22 20l96 81q4 -12 3 -16q-22 -20 -17 -82q3 -37 -7 -99q32 -25 58 -66q14 9 37 20q6 -6 6 -9zM293 520q0 16 12.5 27.5t29.5 11.5t29.5 -11t12.5 -28q0 -18 -12 -29t-30 -11
q-17 0 -29.5 11.5t-12.5 28.5zM153 520q0 16 12.5 27.5t29.5 11.5t29.5 -11t12.5 -28q0 -18 -12 -29t-30 -11q-17 0 -29.5 11.5t-12.5 28.5z" />
    <glyph glyph-name="atilde" unicode="&#xe3;" horiz-adv-x="455" 
d="M475 87q-67 -45 -85 -91q-3 13 -12 38q-10 15 -29 34t-25 19q-5 0 -50 -38l-72 -60q1 8 -2 20l-100 102q-40 46 -40 95q0 44 58 107q92 98 110 124q8 5 13 5q6 0 7.5 -8t2.5 -15q59 -46 92 -47q31 0 69 42l8 -6q-16 -41 -53 -66q-33 -23 -66 -22q-54 0 -96 46
q-28 -27 -47 -49q-48 -53 -48 -72q0 -42 45 -89q83 -88 90 -97q76 54 77 106q0 68 -1 73q-5 3 -22 20l96 81q4 -12 3 -16q-22 -20 -17 -82q3 -37 -7 -99q32 -25 58 -66q14 9 37 20q6 -6 6 -9zM411 549q-6 -24 -35 -47.5t-54 -23.5q-10 0 -53 19.5t-62 19.5q-15 0 -33.5 -9.5
t-26.5 -21.5q-4 2 -13 7q1 18 35 44.5t53 26.5q23 0 64.5 -21t49.5 -21q16 0 60 33q4 0 15 -6z" />
    <glyph glyph-name="aring" unicode="&#xe5;" horiz-adv-x="455" 
d="M475 87q-67 -45 -85 -91q-3 13 -12 38q-10 15 -29 34t-25 19q-5 0 -50 -38l-72 -60q1 8 -2 20l-100 102q-40 46 -40 95q0 44 58 107q92 98 110 124q8 5 13 5q6 0 7.5 -8t2.5 -15q59 -46 92 -47q31 0 69 42l8 -6q-16 -41 -53 -66q-33 -23 -66 -22q-54 0 -96 46
q-28 -27 -47 -49q-48 -53 -48 -72q0 -42 45 -89q83 -88 90 -97q76 54 77 106q0 68 -1 73q-5 3 -22 20l96 81q4 -12 3 -16q-22 -20 -17 -82q3 -37 -7 -99q32 -25 58 -66q14 9 37 20q6 -6 6 -9zM271 624q31 0 52 -21t21 -52q0 -30 -21.5 -51.5t-51.5 -21.5q-31 0 -52 21
t-21 52t21 52t52 21zM271 594q-18 0 -30.5 -12.5t-12.5 -30.5t12.5 -30.5t30.5 -12.5t30.5 12.5t12.5 30.5t-12.5 30.5t-30.5 12.5z" />
    <glyph glyph-name="ccedilla" unicode="&#xe7;" horiz-adv-x="445" 
d="M283 -78q-6 -85 -79 -85q-20 0 -38 5l-9 25h3l9 -4q9 -4 14 -4q16 0 33 16.5t17 32.5q0 36 -24 43q-21 4 -43 9l42 71q-43 33 -86 67q-62 58 -62 112q1 80 182 241q3 -4 8 -8q3 -3 -1 -6t-4 -6q6 -15 35 -37.5t44 -22.5q26 0 60 49q6 -3 11 -9q0 -5 -27 -36.5t-44.5 -42
t-36.5 -10.5q-45 0 -93 57q-14 -5 -50 -52q-39 -50 -39 -75q0 -41 61 -91q78 -64 93 -88q30 31 93 86l12 -12q-69 -63 -131 -132l-15 -31q17 -4 42 -16q14 -14 23 -46z" />
    <glyph glyph-name="eacute" unicode="&#xe9;" horiz-adv-x="352" 
d="M326 310q0 -33 -58 -89q-47 -45 -93 -89q3 -3 33 -23q22 -15 28 -39q15 11 36 34q24 27 38 38q8 -8 8 -13q0 -6 -58 -62q-68 -66 -72 -71l-11 6q2 9 0 23q-50 48 -98 98.5t-47 100.5q0 37 80 123q65 71 111 104q0 -5 5 -17q33 -32 65.5 -64.5t32.5 -59.5zM273 272
q0 14 -28 41l-34 32q-12 12 -29 46q-57 -57 -68 -70q-34 -40 -34 -66q0 -47 82 -111q10 20 45 51l46 40q19 21 20 37zM131 471l-9 10l122 72q27 16 36 16q14 0 24.5 -11t10.5 -25q0 -19 -21 -26q-7 -3 -36 -6z" />
    <glyph glyph-name="egrave" unicode="&#xe8;" horiz-adv-x="391" 
d="M368 310q0 -33 -58 -89q-46 -45 -92 -89q2 -3 32 -23q22 -15 29 -39q14 11 35 34q25 27 38 38q8 -8 8 -13q0 -6 -57 -62q-69 -66 -73 -71l-11 6q3 9 0 23q-49 48 -99 97q-46 52 -46 102q0 37 80 123q65 71 111 104q0 -5 5 -17q34 -32 66.5 -64.5t31.5 -59.5zM315 272
q0 14 -27 41q-18 16 -35 32q-11 12 -28 46q-57 -57 -68 -70q-34 -40 -35 -66q0 -47 83 -111q9 20 44 51q24 20 47 40q19 21 19 37zM337 471l9 10l-122 72q-27 16 -36 16q-14 0 -24.5 -11t-10.5 -25q0 -19 21 -26q7 -3 36 -6z" />
    <glyph glyph-name="ecircumflex" unicode="&#xea;" horiz-adv-x="400" 
d="M368 310q0 -33 -58 -89q-46 -45 -92 -89q2 -3 32 -23q22 -15 29 -39q14 11 35 34q25 27 38 38q8 -8 8 -13q0 -6 -57 -62q-69 -66 -73 -71l-11 6q3 9 0 23q-49 48 -99 97q-46 52 -46 102q0 37 80 123q65 71 111 104q0 -5 5 -17q34 -32 66.5 -64.5t31.5 -59.5zM315 272
q0 14 -27 41q-18 16 -35 32q-11 12 -28 46q-57 -57 -68 -70q-34 -40 -35 -66q0 -47 83 -111q9 20 44 51q24 20 47 40q19 21 19 37zM123 495l102 75h13l105 -77l-6 -14l-107 30l-101 -26z" />
    <glyph glyph-name="edieresis" unicode="&#xeb;" horiz-adv-x="397" 
d="M368 310q0 -33 -58 -89q-46 -45 -92 -89q2 -3 32 -23q22 -15 29 -39q14 11 35 34q25 27 38 38q8 -8 8 -13q0 -6 -57 -62q-69 -66 -73 -71l-11 6q3 9 0 23q-49 48 -99 97q-46 52 -46 102q0 37 80 123q65 71 111 104q0 -5 5 -17q34 -32 66.5 -64.5t31.5 -59.5zM315 272
q0 14 -27 41q-18 16 -35 32q-11 12 -28 46q-57 -57 -68 -70q-34 -40 -35 -66q0 -47 83 -111q9 20 44 51q24 20 47 40q19 21 19 37zM293 520q0 16 12.5 27.5t29.5 11.5t29.5 -11t12.5 -28q0 -18 -12 -29t-30 -11q-17 0 -29.5 11.5t-12.5 28.5zM153 520q0 16 12.5 27.5
t29.5 11.5t29.5 -11t12.5 -28q0 -18 -12 -29t-30 -11q-17 0 -29.5 11.5t-12.5 28.5z" />
    <glyph glyph-name="iacute" unicode="&#xed;" horiz-adv-x="223" 
d="M221 90q-20 -15 -45 -48q-31 -39 -40 -48l-6 5q0 3 1.5 11t1.5 13q0 15 -63 55q-3 0 -11.5 -8.5t-11.5 -7.5q-4 -2 -4 6q0 5 8.5 11t9.5 8q5 5 13 31q1 3 1 34v139q0 11 20 38q-9 6 -27 16q-10 10 -29 31q-10 -9 -33 -24l-6 12l76 77h12q0 -20 21 -39t33 -19q3 0 24 10
l8 -9q-1 -2 -23 -25q-15 -17 -15 -22v-176q0 -1 -10 -33q18 -17 57 -50q11 9 31 20q1 -1 5 -2.5t4 -2.5q0 -2 -2 -3zM13 471l-9 10l122 72q27 16 36 16q14 0 24.5 -11t10.5 -25q0 -19 -20 -26q-8 -3 -37 -6z" />
    <glyph glyph-name="igrave" unicode="&#xec;" horiz-adv-x="223" 
d="M221 90q-20 -15 -45 -48q-31 -39 -40 -48l-6 5q0 3 1.5 11t1.5 13q0 15 -63 55q-3 0 -11.5 -8.5t-11.5 -7.5q-4 -2 -4 6q0 5 8.5 11t9.5 8q5 5 13 31q1 3 1 34v139q0 11 20 38q-9 6 -27 16q-10 10 -29 31q-10 -9 -33 -24l-6 12l76 77h12q0 -20 21 -39t33 -19q3 0 24 10
l8 -9q-1 -2 -23 -25q-15 -17 -15 -22v-176q0 -1 -10 -33q18 -17 57 -50q11 9 31 20q1 -1 5 -2.5t4 -2.5q0 -2 -2 -3zM180 471l9 10l-122 72q-27 16 -36 16q-14 0 -24.5 -11t-10.5 -25q0 -19 21 -26q7 -3 36 -6z" />
    <glyph glyph-name="icircumflex" unicode="&#xee;" horiz-adv-x="223" 
d="M221 90q-20 -15 -45 -48q-31 -39 -40 -48l-6 5q0 3 1.5 11t1.5 13q0 15 -63 55q-3 0 -11.5 -8.5t-11.5 -7.5q-4 -2 -4 6q0 5 8.5 11t9.5 8q5 5 13 31q1 3 1 34v139q0 11 20 38q-9 6 -27 16q-10 10 -29 31q-10 -9 -33 -24l-6 12l76 77h12q0 -20 21 -39t33 -19q3 0 24 10
l8 -9q-1 -2 -23 -25q-15 -17 -15 -22v-176q0 -1 -10 -33q18 -17 57 -50q11 9 31 20q1 -1 5 -2.5t4 -2.5q0 -2 -2 -3zM-7 495l102 75h13l105 -77l-6 -14l-107 30l-101 -26z" />
    <glyph glyph-name="idieresis" unicode="&#xef;" horiz-adv-x="220" 
d="M221 90q-20 -15 -45 -48q-31 -39 -40 -48l-6 5q0 3 1.5 11t1.5 13q0 15 -63 55q-3 0 -11.5 -8.5t-11.5 -7.5q-4 -2 -4 6q0 5 8.5 11t9.5 8q5 5 13 31q1 3 1 34v139q0 11 20 38q-9 6 -27 16q-10 10 -29 31q-10 -9 -33 -24l-6 12l76 77h12q0 -20 21 -39t33 -19q3 0 24 10
l8 -9q-1 -2 -23 -25q-15 -17 -15 -22v-176q0 -1 -10 -33q18 -17 57 -50q11 9 31 20q1 -1 5 -2.5t4 -2.5q0 -2 -2 -3zM123 520q0 16 12.5 27.5t29.5 11.5t29.5 -11t12.5 -28q0 -18 -12 -29t-30 -11q-17 0 -29.5 11.5t-12.5 28.5zM-17 520q0 16 12.5 27.5t29.5 11.5t29.5 -11
t12.5 -28q0 -18 -12 -29t-30 -11q-17 0 -29.5 11.5t-12.5 28.5z" />
    <glyph glyph-name="ntilde" unicode="&#xf1;" horiz-adv-x="468" 
d="M402 195q0 -93 -8 -117q-18 -57 -100 -121q-3 1 -9 5q45 59 45 119v164q-3 20 -7 45q-9 24 -96 88q-12 -6 -23 -14q-25 -16 -35 -33v-162q0 -33 -30 -54q32 -11 59 -52q8 3 25 20l3 -1.5t5 -7.5q-27 -31 -81 -85l-8 3q0 3 1.5 10.5t1.5 11.5q0 8 -23 29t-32 21
q-3 0 -11.5 -5t-11.5 -5q-2 9 14.5 30.5t17.5 30.5q4 20 2 78q-3 63 0 92q2 22 13 33q-24 11 -60 54q-13 -10 -39 -24v16q24 26 73 79h12q-1 -19 28 -45t46 -26q11 0 52 35l40 36h12q-2 -23 50 -55q57 -35 65.5 -61.5t9.5 -64.5q-1 60 -1 -67zM351 549q-6 -24 -35 -47.5
t-54 -23.5q-10 0 -53 19.5t-62 19.5q-15 0 -33.5 -9.5t-26.5 -21.5q-4 2 -13 7q1 18 35 44.5t53 26.5q23 0 64.5 -21t49.5 -21q16 0 60 33q4 0 15 -6z" />
    <glyph glyph-name="oacute" unicode="&#xf3;" horiz-adv-x="449" 
d="M419 214q0 -35 -39 -81q-24 -29 -81 -79t-72 -68q-1 10 -9 27q-52 44 -103 88q-45 42 -45 91q0 58 56 123q62 62 123 125h11q1 0 1.5 -9.5t3.5 -11.5q54 -50 109 -100q45 -47 45 -105zM363 185q0 32 -29 60t-60 56q-44 44 -60 71q-101 -89 -101 -134q0 -40 64 -90
q74 -56 89 -91q97 79 97 128zM173 471l-9 10l122 72q27 16 36 16q14 0 24.5 -11t10.5 -25q0 -19 -20 -26q-8 -3 -37 -6z" />
    <glyph glyph-name="ograve" unicode="&#xf2;" horiz-adv-x="455" 
d="M419 214q0 -35 -39 -81q-24 -29 -81 -79t-72 -68q-1 10 -9 27q-52 44 -103 88q-45 42 -45 91q0 58 56 123q62 62 123 125h11q1 0 1.5 -9.5t3.5 -11.5q54 -50 109 -100q45 -47 45 -105zM363 185q0 32 -29 60t-60 56q-44 44 -60 71q-101 -89 -101 -134q0 -40 64 -90
q74 -56 89 -91q97 79 97 128zM331 471l9 10l-122 72q-27 16 -36 16q-14 0 -24.5 -11t-10.5 -25q0 -19 21 -26q7 -3 36 -6z" />
    <glyph glyph-name="ocircumflex" unicode="&#xf4;" horiz-adv-x="455" 
d="M419 214q0 -35 -39 -81q-24 -29 -81 -79t-72 -68q-1 10 -9 27q-52 44 -103 88q-45 42 -45 91q0 58 56 123q62 62 123 125h11q1 0 1.5 -9.5t3.5 -11.5q54 -50 109 -100q45 -47 45 -105zM363 185q0 32 -29 60t-60 56q-44 44 -60 71q-101 -89 -101 -134q0 -40 64 -90
q74 -56 89 -91q97 79 97 128zM143 495l102 75h13l105 -77l-6 -14l-107 30l-101 -26z" />
    <glyph glyph-name="odieresis" unicode="&#xf6;" horiz-adv-x="449" 
d="M419 214q0 -35 -39 -81q-24 -29 -81 -79t-72 -68q-1 10 -9 27q-52 44 -103 88q-45 42 -45 91q0 58 56 123q62 62 123 125h11q1 0 1.5 -9.5t3.5 -11.5q54 -50 109 -100q45 -47 45 -105zM363 185q0 32 -29 60t-60 56q-44 44 -60 71q-101 -89 -101 -134q0 -40 64 -90
q74 -56 89 -91q97 79 97 128zM283 520q0 16 12.5 27.5t29.5 11.5t29.5 -11t12.5 -28q0 -18 -12 -29t-30 -11q-17 0 -29.5 11.5t-12.5 28.5zM143 520q0 16 12.5 27.5t29.5 11.5t29.5 -11t12.5 -28q0 -18 -12 -29t-30 -11q-17 0 -29.5 11.5t-12.5 28.5z" />
    <glyph glyph-name="otilde" unicode="&#xf5;" horiz-adv-x="452" 
d="M419 214q0 -35 -39 -81q-24 -29 -81 -79t-72 -68q-1 10 -9 27q-52 44 -103 88q-45 42 -45 91q0 58 56 123q62 62 123 125h11q1 0 1.5 -9.5t3.5 -11.5q54 -50 109 -100q45 -47 45 -105zM363 185q0 32 -29 60t-60 56q-44 44 -60 71q-101 -89 -101 -134q0 -40 64 -90
q74 -56 89 -91q97 79 97 128zM391 549q-6 -24 -35 -47.5t-54 -23.5q-10 0 -53 19.5t-62 19.5q-15 0 -33.5 -9.5t-26.5 -21.5q-4 2 -13 7q1 18 35 44.5t53 26.5q23 0 64.5 -21t49.5 -21q16 0 60 33q4 0 15 -6z" />
    <glyph glyph-name="uacute" unicode="&#xfa;" horiz-adv-x="481" 
d="M470 101q0 -9 -41 -52q-36 -38 -46 -45q-7 6 -10 17q-1 7 -3.5 15.5t-24 30.5t-32.5 22q-5 0 -42 -36q-53 -52 -61 -59h-12q-1 10 -8 28q-9 11 -46 40q-41 30 -52 30q-4 0 -12 -3t-11 -3q-3 3 -3 7q0 6 8.5 22.5t9.5 23.5q-1 46 0 139q1 21 18 51q-20 11 -60 43l-30 -24
q-2 0 -6 2t-6 2v16q28 27 72 79h13q-1 -15 21 -33t40 -18q11 0 47 24q8 -9 8 -14q0 -4 -20.5 -27.5t-20.5 -28.5v-151q0 -22 -17 -44q4 -6 18 -15q22 -13 26 -15q28 -21 57 -56q73 56 73 103q0 11 -4 21q4 4 0 96q1 23 21 44q-18 13 -53 42q-16 -13 -45 -34q-4 5 -4 12
q0 5 82 97h13q-3 -17 18.5 -35.5t39.5 -18.5q7 0 39 17q5 -5 5 -10q0 -4 -18.5 -29.5t-18.5 -29.5v-141q0 -20 -24 -51q12 -8 33 -24q9 -7 31 -36q3 1 22 21h12q4 -5 4 -12zM153 471l-9 10l122 72q27 16 36 16q14 0 24.5 -11t10.5 -25q0 -19 -20 -26q-8 -3 -37 -6z" />
    <glyph glyph-name="ugrave" unicode="&#xf9;" horiz-adv-x="491" 
d="M470 101q0 -9 -41 -52q-36 -38 -46 -45q-7 6 -10 17q-1 7 -3.5 15.5t-24 30.5t-32.5 22q-5 0 -42 -36q-53 -52 -61 -59h-12q-1 10 -8 28q-9 11 -46 40q-41 30 -52 30q-4 0 -12 -3t-11 -3q-3 3 -3 7q0 6 8.5 22.5t9.5 23.5q-1 46 0 139q1 21 18 51q-20 11 -60 43l-30 -24
q-2 0 -6 2t-6 2v16q28 27 72 79h13q-1 -15 21 -33t40 -18q11 0 47 24q8 -9 8 -14q0 -4 -20.5 -27.5t-20.5 -28.5v-151q0 -22 -17 -44q4 -6 18 -15q22 -13 26 -15q28 -21 57 -56q73 56 73 103q0 11 -4 21q4 4 0 96q1 23 21 44q-18 13 -53 42q-16 -13 -45 -34q-4 5 -4 12
q0 5 82 97h13q-3 -17 18.5 -35.5t39.5 -18.5q7 0 39 17q5 -5 5 -10q0 -4 -18.5 -29.5t-18.5 -29.5v-141q0 -20 -24 -51q12 -8 33 -24q9 -7 31 -36q3 1 22 21h12q4 -5 4 -12zM311 471l9 10l-122 72q-27 16 -36 16q-14 0 -24.5 -11t-10.5 -25q0 -19 20 -26q7 -3 37 -6z" />
    <glyph glyph-name="ucircumflex" unicode="&#xfb;" horiz-adv-x="491" 
d="M470 101q0 -9 -41 -52q-36 -38 -46 -45q-7 6 -10 17q-1 7 -3.5 15.5t-24 30.5t-32.5 22q-5 0 -42 -36q-53 -52 -61 -59h-12q-1 10 -8 28q-9 11 -46 40q-41 30 -52 30q-4 0 -12 -3t-11 -3q-3 3 -3 7q0 6 8.5 22.5t9.5 23.5q-1 46 0 139q1 21 18 51q-20 11 -60 43l-30 -24
q-2 0 -6 2t-6 2v16q28 27 72 79h13q-1 -15 21 -33t40 -18q11 0 47 24q8 -9 8 -14q0 -4 -20.5 -27.5t-20.5 -28.5v-151q0 -22 -17 -44q4 -6 18 -15q22 -13 26 -15q28 -21 57 -56q73 56 73 103q0 11 -4 21q4 4 0 96q1 23 21 44q-18 13 -53 42q-16 -13 -45 -34q-4 5 -4 12
q0 5 82 97h13q-3 -17 18.5 -35.5t39.5 -18.5q7 0 39 17q5 -5 5 -10q0 -4 -18.5 -29.5t-18.5 -29.5v-141q0 -20 -24 -51q12 -8 33 -24q9 -7 31 -36q3 1 22 21h12q4 -5 4 -12zM123 495l102 75h13l105 -77l-6 -14l-107 30l-101 -26z" />
    <glyph glyph-name="udieresis" unicode="&#xfc;" horiz-adv-x="491" 
d="M470 101q0 -9 -41 -52q-36 -38 -46 -45q-7 6 -10 17q-1 7 -3.5 15.5t-24 30.5t-32.5 22q-5 0 -42 -36q-53 -52 -61 -59h-12q-1 10 -8 28q-9 11 -46 40q-41 30 -52 30q-4 0 -12 -3t-11 -3q-3 3 -3 7q0 6 8.5 22.5t9.5 23.5q-1 46 0 139q1 21 18 51q-20 11 -60 43l-30 -24
q-2 0 -6 2t-6 2v16q28 27 72 79h13q-1 -15 21 -33t40 -18q11 0 47 24q8 -9 8 -14q0 -4 -20.5 -27.5t-20.5 -28.5v-151q0 -22 -17 -44q4 -6 18 -15q22 -13 26 -15q28 -21 57 -56q73 56 73 103q0 11 -4 21q4 4 0 96q1 23 21 44q-18 13 -53 42q-16 -13 -45 -34q-4 5 -4 12
q0 5 82 97h13q-3 -17 18.5 -35.5t39.5 -18.5q7 0 39 17q5 -5 5 -10q0 -4 -18.5 -29.5t-18.5 -29.5v-141q0 -20 -24 -51q12 -8 33 -24q9 -7 31 -36q3 1 22 21h12q4 -5 4 -12zM253 520q0 16 12.5 27.5t29.5 11.5t29.5 -11t12.5 -28q0 -18 -12 -29t-30 -11q-17 0 -29.5 11.5
t-12.5 28.5zM113 520q0 16 12.5 27.5t29.5 11.5t29.5 -11t12.5 -28q0 -18 -12 -29t-30 -11q-17 0 -29.5 11.5t-12.5 28.5z" />
    <glyph glyph-name="dagger" unicode="&#x2020;" horiz-adv-x="361" 
d="M187 522q19 1 57 13.5t55 12.5q39 0 39 -35q0 -39 -42 -39q-18 0 -54.5 12.5t-54.5 13.5q0 -84 36 -132q-26 -62 -31 -162q-1 -20 -1 -166l-31 -1q0 119 -3 166q-6 100 -32 163q36 48 36 132q-18 -1 -54.5 -13.5t-54.5 -12.5q-42 0 -42 39q0 35 39 35q17 0 55 -12.5
t57 -13.5q0 21 -14.5 62t-14.5 60q0 40 42 40t42 -40q0 -19 -14.5 -60t-14.5 -62z" />
    <glyph glyph-name="degree" unicode="&#xb0;" horiz-adv-x="244" 
d="M207 558q0 -36 -26.5 -60.5t-62.5 -24.5t-62.5 24.5t-26.5 60.5q0 37 26 61.5t63 24.5q36 0 62.5 -25t26.5 -61zM183 558q0 27 -19 45.5t-46 18.5t-46 -18.5t-19 -45.5q0 -26 19.5 -44.5t45.5 -18.5t45.5 18.5t19.5 44.5z" />
    <glyph glyph-name="cent" unicode="&#xa2;" horiz-adv-x="336" 
d="M360 510q-14 -17 -37 -43q-10 -11 -31.5 -23t-33.5 -12q-4 0 -11 2t-11 2q-13 0 -13 -34l3 -173q-2 -6 4 -17t17 -15q57 46 95 88q12 -6 12 -22q0 -20 -51 -62q-27 -22 -74 -77v-97q0 -9 -17 -21.5t-26 -12.5q-1 7 8 38q2 4 2 45q0 -1 1 14q1 13 0 23q-1 13 -6 21.5
t-21 20.5q-24 17 -28 20q-86 75 -90 115t-4 32q0 53 37 105q23 31 70 73q37 34 37 42v131q6 6 36 28q0 -10 -2.5 -40t-2.5 -34q0 -36 4 -72q1 -12 31 -35.5t45 -23.5t28.5 15t24.5 19q0 -1 2 -8.5t2 -11.5zM192 444q0 7 -5 18t-13 11q-3 0 -28 -23q-48 -45 -48 -88
q0 -26 29 -57q25 -28 61 -47z" />
    <glyph glyph-name="sterling" unicode="&#xa3;" horiz-adv-x="484" 
d="M354 596q-33 0 -69 31l-4 2q-13 0 -28 -27t-13 -37l-1 -181h124v-30h-124v-117q0 -67 -69 -119q-7 -3 -12 -5.5t-11 -6.5q-2 -4 4 -4q35 15 85 15q105 0 171 -50l56 69l7 -5l-102 -137q-4 9 -18 24q-14 9 -52 18q-44 11 -82 11q-15 0 -28 -2q-74 -11 -167 -41
q75 117 75 162v188h-83v30h83l1 77q0 48 34 85q14 15 73 59q-14 -22 -29 -43q-18 -29 -18 -46l-2 -307q0 -38 -45 -93q-7 -9 -29 -35q38 14 68 48q34 39 34 83v302q0 32 59 99q43 44 86 89q-2 -7 0 -20q9 -12 38 -24q26 -11 41 -11q14 0 35 12q16 10 32 21q-45 -84 -120 -84
z" />
    <glyph glyph-name="section" unicode="&#xa7;" 
 />
    <glyph glyph-name="bullet" unicode="&#x2022;" horiz-adv-x="379" 
d="M310 330q0 -49 -35 -84t-84 -35t-84 35t-35 84t35 84t84 35t84 -35t35 -84z" />
    <glyph glyph-name="paragraph" unicode="&#xb6;" horiz-adv-x="445" 
d="M18 462q0 -83 59 -134q56 -49 140 -49l1 -146v-68q0 -14 1 -33v-21q0 -67 -10 -84q-15 -28 -73 -28q10 16 10 27q0 18 -13 30t-31 12t-30 -11.5t-12 -29.5q0 -58 99 -58q36 0 99 39v737q-112 -3 -167 -36q-73 -43 -73 -147zM305 640h115v-18q-17 0 -37.5 -27t-22.5 -46
q-4 -38 0 -380q1 -46 3 -92q0 -42 -10 -70q-13 -34 -48 -72v705z" />
    <glyph glyph-name="germandbls" unicode="&#xdf;" horiz-adv-x="415" 
d="M355 648q18 0 30 23q8 -5 8 -18l-131 -256q2 0 42 -4q24 -2 36 -13q25 -22 43 -60q20 -41 20 -78q0 -55 -67 -147l-110 -150q-2 14 -20 12q141 205 141 241q0 59 -31 103q-31 41 -70 41q-9 0 -31 -16q-6 -1 -10 15l122 236q-14 2 -69 20.5t-64 24.5q-17 -3 -35 -5
q-29 -9 -39 -47q-7 -25 2 -54l-2 -294q5 -85 -16 -110q8 -1 28 -16q7 -5 20 -22q8 2 30 18q0 -1 9 -12q1 -3 -40 -41.5t-51 -41.5q0 9 -5 24q-29 39 -44 39q-4 0 -27 -13q-5 0 -5 8q0 3 14.5 20.5t18.5 28.5q8 20 8 78q0 -3 -1 100q-1 96 -1 155q1 85 5 101q23 93 133 126
q13 3 29 3q20 0 63.5 -9.5t66.5 -9.5z" />
    <glyph glyph-name="registered" unicode="&#xae;" horiz-adv-x="385" 
d="M172 383q-63 0 -106.5 45t-43.5 108q0 62 44 106t106 44q63 0 105 -44.5t42 -107.5t-42 -107t-105 -44zM172 406q52 0 88.5 38t36.5 90q0 53 -36 90t-89 38q-55 1 -90.5 -36t-35.5 -92q0 -52 37 -90t89 -38zM186 534l47 -72h-26l-47 72h-26v-72h-22v157h68q-6 0 -5 1h7
q52 0 52 -40q0 -44 -48 -46zM136 557h45q30 0 30 23q0 17 -34 17h-41v-40z" />
    <glyph glyph-name="copyright" unicode="&#xa9;" horiz-adv-x="738" 
d="M366 -6q-144 0 -243 99.5t-99 244.5t98.5 245t243.5 100t244 -100t99 -245q0 -144 -99.5 -244t-243.5 -100zM366 640q-125 0 -212.5 -88.5t-87.5 -213.5q0 -124 88 -212.5t212 -88.5t212 88.5t88 212.5q0 125 -87.5 213.5t-212.5 88.5zM375 144q-86 0 -136.5 55
t-50.5 142q0 84 52 140t136 56q59 0 103 -34t54 -91h-45q-22 81 -112 81q-66 0 -105.5 -43.5t-39.5 -110.5q0 -66 39 -109t104 -43q94 0 115 79h43q-13 -57 -55.5 -89.5t-101.5 -32.5z" />
    <glyph glyph-name="trademark" unicode="&#x2122;" horiz-adv-x="450" 
d="M401 670v-196h-27v167h-2l-66 -167h-17l-65 167v-167h-28v196h46l56 -141l57 141h46zM159 670v-29h-64v-167h-28v167h-65v29h157z" />
    <glyph glyph-name="acute" unicode="&#xb4;" horiz-adv-x="409" 
d="M123 711l-9 10l122 72q27 16 36 16q14 0 24.5 -11t10.5 -25q0 -19 -20 -26q-8 -3 -37 -6z" />
    <glyph glyph-name="dieresis" unicode="&#xa8;" horiz-adv-x="409" 
d="M233 770q0 16 12.5 27.5t29.5 11.5t29.5 -11t12.5 -28q0 -18 -12 -29t-30 -11q-17 0 -29.5 11.5t-12.5 28.5zM93 770q0 16 12.5 27.5t29.5 11.5t29.5 -11t12.5 -28q0 -18 -12 -29t-30 -11q-17 0 -29.5 11.5t-12.5 28.5z" />
    <glyph glyph-name="AE" unicode="&#xc6;" horiz-adv-x="893" 
d="M241 258l-81 -22q65 61 108 65l203 298h-11q-16 -3 -20 3l-78 22q-19 -1 -46 -19q-23 -15 -28 -12q18 35 61.5 62t74.5 21l112 -35q5 -1 9 -1q11 0 25 10q19 14 25 17q0 -20 -37.5 -48.5t-61.5 -24.5q-52 -83 -198 -288q17 13 47 8q1 0 32.5 -15.5t50.5 -15.5q13 0 22 6
q-3 141 -3 149q1 45 52 105q41 49 73 66q-40 -52 -44 -59q-19 -30 -19 -64l4 -270q1 -50 -17 -81q-12 -21 -43 -44l23 3q46 29 57 70q4 14 4 47l-4 273q-1 54 49 114q48 50 96 101q9 -9 24 -26q4 -7 36.5 -21t50.5 -14q17 -1 31 7q21 13 41 26q-40 -94 -111 -89
q-61 4 -109 48q-47 -41 -46 -85l7 -189q5 -1 29.5 19t37.5 20q20 -1 44 -11.5t36 -9.5q12 -1 27.5 11t32.5 25q-6 -35 -39 -66t-60 -31l-76 26q-29 0 -32 -21v-68q0 -57 -87 -151q70 9 96 2q48 0 94 -16q34 -13 45 -24l78 81l5 -12l-134 -146q-3 25 -69 42q-48 13 -84 14
l-92 1q-34 1 -70 -20q-27 -17 -54 -33q9 26 58.5 66.5t58.5 73.5q2 4 2 31q1 57 1 94q-19 -29 -39 -29q-10 0 -23 5q-23 14 -65 30q-34 10 -53 -3q-40 -54 -115 -160q31 -17 45 -32q2 1 22 16q13 10 21 10q3 0 7 -2l-118 -103q-8 5 -4 17q-19 34 -69 36q-14 0 -34 -15
q-25 -20 -35 -24q32 65 87 88q28 9 55 18q19 20 109 153z" />
    <glyph glyph-name="Oslash" unicode="&#xd8;" horiz-adv-x="556" 
d="M536 359q0 -67 -48 -133q-33 -46 -114 -120q-101 -93 -135 -129q-1 1 -1 28q0 11 -34 38q-67 56 -75 63l-72 -106l-29 9l79 117q-100 100 -100 210q0 93 102 201q61 64 197 163q0 -8 -2.5 -13.5t-2.5 -11.5q0 -16 48 -56q30 -24 61 -48l66 96h32l-77 -114
q105 -97 105 -194zM365 505q-30 27 -91 85v-220zM475 321q0 76 -90 164l-111 -165v-280q69 68 139 137q62 71 62 144zM249 334v291q-11 -1 -26 -18t-15 -30v-226q0 -22 -18 -62q-21 -44 -50 -73l14 -21zM249 101v183l-74 -109zM162 564q-62 -46 -99 -139q-3 -22 -3 -43
q0 -102 77 -164q10 20 10 26v251q0 11 1 22q2 21 14 47z" />
    <glyph glyph-name="plusminus" unicode="&#xb1;" 
 />
    <glyph glyph-name="yen" unicode="&#xa5;" horiz-adv-x="505" 
d="M128 244h108v52h-92l-30 -20l14 48h107q-39 83 -77 167q-59 123 -77 123q-19 0 -66 -59l-8 8l93 117q9 -4 12 -12q38 -8 70 -48q46 -88 115 -262l105 225q0 2 -17 8t-20 15q-6 0 -19 -12t-20 -12q-2 0 -5 1l85 106q3 -9 11 -23q6 -9 25.5 -18.5t35.5 -9.5q19 0 34 9.5
t30 18.5q-15 -81 -116 -89q-38 -85 -117 -253h94l31 24l-18 -52l-115 -1v-51h102l31 24l-18 -52l-116 -1v-26q-3 -17 -18 -40l-30 -46q18 0 45.5 -12t26.5 -12q4 0 45 39l14 -5l-96 -114q-4 35 -76 35q-19 0 -31 -7q-27 -15 -38 -20l72 80q25 32 22 70v59h-92l-30 -20z" />
    <glyph glyph-name="mu" unicode="&#xb5;" horiz-adv-x="497" 
d="M285 659q-3 -19 -42 -46t-63 -24l-129 32q-27 3 -47.5 -13.5t-21.5 -16.5q12 27 47.5 55.5t59.5 27.5l138 -36q13 -2 29 7q22 12 29 14zM233 293l-22 -15v-69q0 -27 -28 -61q-26 -27 -51 -54q47 5 74 38t27 80v81zM400 399l-105 -67v-95q0 -68 -71 -121q-26 -12 -21 -12
q36 15 86 15q106 0 171 -49l55 70l12 -9l-106 -141q-2 10 -15 26q-12 8 -78 18q-62 9 -87 9q-64 -1 -77 -2q-59 -4 -93 -19q-19 -14 -65 -36q38 40 77 81q63 68 63 99v71l-94 -60v45l93 60q-1 105 0 156q-1 4 -1 9q0 31 42 86q38 49 80 81q-1 -12 -28.5 -51.5t-27.5 -53.5
v-186l23 15v176q0 34 63 103q43 45 86 89q3 -4 1 -12t0 -11q9 -11 36 -22.5t41 -11.5q13 0 27 9l46 28q-19 -40 -68 -78q-19 -14 -58 -14q-27 0 -51.5 16t-21.5 16q-12 0 -26.5 -26t-12.5 -35v-188l105 68v-46z" />
    <glyph glyph-name="mu" unicode="&#x3bc;" horiz-adv-x="497" 
d="M285 659q-3 -19 -42 -46t-63 -24l-129 32q-27 3 -47.5 -13.5t-21.5 -16.5q12 27 47.5 55.5t59.5 27.5l138 -36q13 -2 29 7q22 12 29 14zM233 293l-22 -15v-69q0 -27 -28 -61q-26 -27 -51 -54q47 5 74 38t27 80v81zM400 399l-105 -67v-95q0 -68 -71 -121q-26 -12 -21 -12
q36 15 86 15q106 0 171 -49l55 70l12 -9l-106 -141q-2 10 -15 26q-12 8 -78 18q-62 9 -87 9q-64 -1 -77 -2q-59 -4 -93 -19q-19 -14 -65 -36q38 40 77 81q63 68 63 99v71l-94 -60v45l93 60q-1 105 0 156q-1 4 -1 9q0 31 42 86q38 49 80 81q-1 -12 -28.5 -51.5t-27.5 -53.5
v-186l23 15v176q0 34 63 103q43 45 86 89q3 -4 1 -12t0 -11q9 -11 36 -22.5t41 -11.5q13 0 27 9l46 28q-19 -40 -68 -78q-19 -14 -58 -14q-27 0 -51.5 16t-21.5 16q-12 0 -26.5 -26t-12.5 -35v-188l105 68v-46z" />
    <glyph glyph-name="ordfeminine" unicode="&#xaa;" horiz-adv-x="505" 
d="M527 653l-222 -301q40 -15 48 -15q29 0 69 37l8 -4q-75 -105 -115 -94l-49 15l-165 -217q34 12 50 12q12 0 26 -3l245 -45q44 -8 75 45l16 -9q-32 -46 -37 -51q-43 -50 -82 -50q-6 0 -12 1l-294 46q-38 5 -71 -29q-5 2 -10 8l226 304q0 1 -20 7.5t-25 6.5q-32 0 -51 -16
l-24 -24q0 1 -10 1q4 23 42 60q43 41 78 37l50 -14l161 217q-29 -15 -71 -8l-263 43q-36 5 -79 -67q-4 1 -15 3l87 146q4 -2 8 -11t3 -15q8 6 17 8q6 1 16 0q13 -2 17 -2l287 -46q23 -3 78 39q8 -7 8 -15zM383 792l-97 -63h-21l-102 64l6 14l107 -30l101 26z" />
    <glyph glyph-name="ordmasculine" unicode="&#xba;" horiz-adv-x="325" 
d="M327 421l-136 -180q5 -5 14 -5q19 0 60 20q4 -5 4 -10q0 -6 -45 -51q-9 -2 -15 9q-4 1 -21 1q-29 0 -54 -36q-38 -55 -45 -62q0 -6 2 -8q7 4 30 4q4 0 72.5 -10.5t72.5 -10.5q12 0 26.5 14.5t23.5 16.5q8 -8 8 -12q0 -12 -79 -100h-16q-4 4 -4 14q-8 -1 -26 -1l-143 24
q-7 -2 -44 -21l-12 12l126 171q-8 8 -20 8q-16 0 -27 -6q-13 -9 -26 -17q-5 4 -5 10q0 4 16 22.5t19 23.5q3 2 6 5t8 3q2 0 15 -9q3 -1 19 -1q27 0 48 28q41 57 50 67v15q-29 3 -98 14q-59 9 -63 9q-23 0 -48 -37h-13q0 1 -2 4t-2 8q0 14 84 107q7 -3 15 -21q7 0 10.5 2
t6.5 2q5 0 52.5 -8.5t51.5 -8.5h41q27 0 44 13h15q4 -4 4 -12zM293 552l-97 -63h-21l-102 64l6 14l107 -30l101 26z" />
    <glyph glyph-name="ae" unicode="&#xe6;" horiz-adv-x="635" 
d="M597 310q0 -33 -58 -89q-46 -45 -93 -89q3 -3 33 -23q22 -15 29 -39q14 11 35 34q24 27 38 38q8 -8 8 -13q0 -6 -57 -62q-69 -66 -73 -71l-11 6q3 9 0 23q-8 9 -35 45q-16 21 -50 46q3 -5 5 -65q0 -13 9.5 -31.5t8.5 -19.5q-1 2 -6 2t-21 -4.5t-23 -4.5q-6 0 -8 4
q-22 33 -21 45q3 45 1 45q-5 0 -127 -98q1 8 -2 20l-100 102q-41 46 -40 95q0 44 58 107q92 98 109 124q9 5 14 5q6 0 7.5 -8t2.5 -15q58 -46 92 -47q31 0 69 42l8 -6q-16 -41 -53 -66q-33 -23 -66 -22q-54 0 -96 46q-28 -27 -48 -49q-47 -53 -47 -72q0 -42 45 -89
q82 -88 89 -97q77 54 77 106q1 68 0 73q-5 3 -23 20l97 81v-1q69 76 120 113q0 -5 5 -17q33 -32 67 -64q31 -33 31 -60zM544 272q0 14 -28 41l-34 32q-11 12 -28 46q-57 -57 -68 -70q-35 -40 -35 -66q0 -47 83 -111q9 20 44 51q23 20 47 40q19 21 19 37z" />
    <glyph glyph-name="oslash" unicode="&#xf8;" horiz-adv-x="407" 
d="M419 214q0 -35 -39 -81q-24 -29 -81 -79t-72 -68q-1 10 -9 27q-22 20 -59 50l-42 -63l-29 9l49 72q-67 56 -67 111q0 58 56 123q62 62 123 125h11q1 0 1.5 -9.5t3.5 -11.5q21 -22 63 -57l40 57h33l-52 -76q70 -63 70 -129zM281 294q-47 45 -67 78q-101 -89 -101 -134
q0 -41 68 -92zM363 185q0 27 -18 49q-9 12 -42 41l-99 -147q48 -38 62 -71q97 79 97 128z" />
    <glyph glyph-name="questiondown" unicode="&#xbf;" horiz-adv-x="428" 
d="M207 178q-80 -82 -80 -129q0 -26 11 -40q6 -7 63 -64q43 -44 53 -70q59 55 62 60q12 15 12 47q0 25 -17 54.5t-34 29.5q-4 0 -18 -9q-18 -11 -26 -14v18l48 47q23 20 42 20q32 0 53 -34q18 -27 18 -55q0 -63 -69 -133q-14 -16 -127 -110q-4 5 -4 17.5t-4 15.5
q-138 103 -138 181q0 72 116 178q58 54 58 129q29 -1 29 1q0 -1 -3 -1l-4 -68q-6 -36 -41 -71zM160 416q-1 8 26.5 30.5t43.5 22.5q36 0 52 -31q4 3 19 11l9 -14l-67 -69q0 9 -2 18q-9 11 -17.5 21t-21.5 10t-37 -8z" />
    <glyph glyph-name="exclamdown" unicode="&#xa1;" horiz-adv-x="252" 
d="M11 445q-1 8 26 30.5t44 22.5q35 0 52 -31q3 3 18 11l10 -14l-67 -69q0 9 -2 18q-9 11 -18 21t-22 10t-36 -8zM120 342l16 -313q0 -13 2 -35t2 -33q0 -36 -17 -67q34 -16 60 -42q8 6 37 31l5 -11q-26 -32 -76 -93q0 13 -10.5 26t-34 26.5t-31.5 13.5q-4 0 -16 -8
q-15 -10 -20 -12l-6 13q33 27 38 80l16 424h35z" />
    <glyph glyph-name="logicalnot" unicode="&#xac;" 
 />
    <glyph glyph-name="florin" unicode="&#x192;" horiz-adv-x="542" 
d="M343 306h-234q30 -78 86 -117q0 1 64 -53t72 -79l159 166q7 -11 6 -18q-3 -26 -90 -113q-54 -55 -109 -109q-9 6 -19.5 24t-18.5 24q-16 13 -49 39q-84 61 -115 100q-45 57 -50 136h-41v32h41q2 33 17 68h-58v32h75q29 49 87 105q5 6 96 88q67 61 69 57q10 -23 45 -54
q43 -38 76 -38q19 0 29 14q19 28 20 28q14 -5 14 -15q0 -16 -37 -44t-37 -26q-43 -11 -45 -11q-74 0 -111 67q-10 0 -39 -28q-18 -17 -36 -33q-67 -55 -94 -110h227v-32h-239q-6 -22 -6 -45q0 -11 2 -23h243v-32z" />
    <glyph glyph-name="guillemotleft" unicode="&#xab;" horiz-adv-x="395" 
d="M168 243q165 159 172 159q11 0 11 -11t-96 -148q95 -130 95 -147q0 -11 -11 -11q-9 0 -82 71q-30 29 -89 87zM8 243q165 159 172 159q11 0 11 -11t-96 -148q95 -130 95 -147q0 -11 -11 -11q-9 0 -82 71q-30 29 -89 87z" />
    <glyph glyph-name="guillemotright" unicode="&#xbb;" horiz-adv-x="423" 
d="M239 233q-165 159 -172 159q-11 0 -11 -11t96 -148q-95 -130 -95 -147q0 -11 11 -11q9 0 82 71q30 29 89 87zM399 233q-165 159 -172 159q-11 0 -11 -11t96 -148q-95 -130 -95 -147q0 -11 11 -11q9 0 82 71q30 29 89 87z" />
    <glyph glyph-name="ellipsis" unicode="&#x2026;" horiz-adv-x="932" 
d="M45 20l-12 13l97 77h20l59 -44l28 21l10 -11l-94 -78h-20l-56 43zM665 20l-12 13l97 77h20l59 -44l28 21l10 -11l-94 -78h-20l-56 43zM355 20l-12 13l97 77h20l59 -44l28 21l10 -11l-94 -78h-20l-56 43z" />
    <glyph glyph-name="nonbreakingspace" unicode="&#xa0;" 
 />
    <glyph glyph-name="Agrave" unicode="&#xc0;" horiz-adv-x="506" 
d="M543 97l-93 -115v5q0 19 -29 31q-23 10 -46 10q-22 0 -37.5 -16t-21.5 -16h-4q3 42 57 78q27 15 55 30l-34 102q-17 49 -25 49q-2 0 -21.5 -14.5t-27.5 -12.5l-110 25l-26 -5q-15 -53 -47 -158l51 -37q2 1 16 18q11 12 19 12q2 0 7 -2l-83 -108q-10 5 -10 17
q-6 13 -34 23t-45 10q-14 0 -37 -18q-30 -25 -35 -28q10 67 65 94l58 22q3 6 29.5 93t26.5 92q0 16 -24 26q-19 8 -39 8q-18 0 -40 -20q-18 -16 -35 -32q3 30 42.5 72t68.5 42q19 0 55 -21l71 226q2 5 -20 19t-29 14q-16 0 -53 -56l-9 8l96 128q5 -9 24 -27q27 -19 74 -19
q14 0 24 8q19 13 21 15l-54 -72q41 -117 81 -235q62 -183 62 -216q0 -14 -9 -30q-6 -11 -12 -21q0 -5 17 -14.5t23 -9.5q4 0 17 14t22 14q3 0 8 -2zM354 289q-26 91 -78 257l-80 -252q18 18 57 18q4 0 101 -23zM360 721l9 10l-122 72q-27 16 -36 16q-14 0 -24.5 -11
t-10.5 -25q0 -19 20 -26q8 -3 37 -6z" />
    <glyph glyph-name="Atilde" unicode="&#xc3;" horiz-adv-x="506" 
d="M543 97l-93 -115v5q0 19 -29 31q-23 10 -46 10q-22 0 -37.5 -16t-21.5 -16h-4q3 42 57 78q27 15 55 30l-34 102q-17 49 -25 49q-2 0 -21.5 -14.5t-27.5 -12.5l-110 25l-26 -5q-15 -53 -47 -158l51 -37q2 1 16 18q11 12 19 12q2 0 7 -2l-83 -108q-10 5 -10 17
q-6 13 -34 23t-45 10q-14 0 -37 -18q-30 -25 -35 -28q10 67 65 94l58 22q3 6 29.5 93t26.5 92q0 16 -24 26q-19 8 -39 8q-18 0 -40 -20q-18 -16 -35 -32q3 30 42.5 72t68.5 42q19 0 55 -21l71 226q2 5 -20 19t-29 14q-16 0 -53 -56l-9 8l96 128q5 -9 24 -27q27 -19 74 -19
q14 0 24 8q19 13 21 15l-54 -72q41 -117 81 -235q62 -183 62 -216q0 -14 -9 -30q-6 -11 -12 -21q0 -5 17 -14.5t23 -9.5q4 0 17 14t22 14q3 0 8 -2zM354 289q-26 91 -78 257l-80 -252q18 18 57 18q4 0 101 -23zM411 789q-6 -24 -35 -47.5t-54 -23.5q-10 0 -53 19.5t-62 19.5
q-15 0 -33.5 -9.5t-26.5 -21.5q-4 2 -13 7q1 18 35 44.5t53 26.5q23 0 64.5 -21t49.5 -21q16 0 60 33q4 0 15 -6z" />
    <glyph glyph-name="Otilde" unicode="&#xd5;" horiz-adv-x="556" 
d="M536 359q0 -67 -48 -133q-33 -46 -114 -120q-101 -93 -135 -129q-1 1 -1 28q0 11 -60 59q-75 60 -111 108q-60 78 -60 164q0 93 102 201q61 64 197 163q0 -8 -2.5 -13.5t-2.5 -11.5q0 -17 61 -65q80 -64 113 -103q61 -73 61 -148zM475 321q0 67 -64 137q-69 66 -137 132
v-550q69 68 139 137q62 71 62 144zM249 101v524q-12 -1 -27 -18t-14 -30v-255q-4 -55 -63 -117zM162 564q-62 -46 -99 -139q-3 -22 -3 -43q0 -102 77 -164q10 20 10 26v251q0 11 1 22q2 21 14 47zM411 799q-6 -24 -35 -47.5t-54 -23.5q-10 0 -53 19.5t-62 19.5
q-15 0 -33.5 -9.5t-26.5 -21.5q-4 2 -13 7q1 18 35 44.5t53 26.5q23 0 64.5 -21t49.5 -21q16 0 60 33q4 0 15 -6z" />
    <glyph glyph-name="OE" unicode="&#x152;" horiz-adv-x="906" 
d="M509 214q-33 -42 -111 -114q-94 -85 -129 -123q-1 1 -1 28q0 11 -60 59q-75 60 -111 108q-60 78 -60 164q0 93 102 201q61 64 197 163q0 -8 -2.5 -13.5t-2.5 -11.5q0 -17 70 -72q85 -68 120 -117q18 38 57 78q32 34 54 45q-42 -54 -45 -59q-19 -30 -18 -64l10 -261
q2 -83 -66 -134l23 3q46 29 57 70q4 15 4 47l-7 269q-1 54 50 116q49 51 98 103q9 -9 24 -26q4 -7 36.5 -21t50.5 -14q17 -1 31 7q21 13 41 26q-40 -94 -111 -89q-61 4 -109 48q-47 -41 -46 -85l7 -189q5 -1 29.5 19t37.5 20q20 -1 44 -11.5t36 -9.5q12 -1 27.5 11t32.5 25
q-6 -35 -39 -66t-60 -31l-76 26q-29 0 -32 -21v-68q0 -57 -87 -151q70 9 96 2q48 0 94 -16q34 -13 45 -24l78 81l5 -12l-134 -146q-3 25 -69 42q-48 13 -84 14l-92 1q-34 1 -70 -20q-27 -17 -54 -33q9 26 58.5 66.5t58.5 73.5q2 6 2 31v55zM505 321q0 67 -64 137
q-69 66 -137 132v-550q69 68 139 137q62 71 62 144zM279 101v524q-11 -1 -26 -18t-15 -30v-255q0 -51 -63 -117zM192 564q-62 -46 -99 -139q-3 -22 -3 -43q0 -102 77 -164q10 20 10 26v251q0 11 1 22q2 21 14 47z" />
    <glyph glyph-name="oe" unicode="&#x153;" horiz-adv-x="625" 
d="M370 259q5 -13 6 -29q20 -42 76 -86q10 20 45 51l46 40q19 21 20 37q0 14 -28 41l-34 32q-12 12 -29 46q-55 -55 -66 -67q-33 -39 -36 -65zM349 146q-25 -32 -86 -86q-64 -56 -79 -74q-1 10 -9 27q-51 44 -103 88q-44 42 -44 91q0 58 56 123q61 62 123 125h10
q2 0 2.5 -9.5t2.5 -11.5q17 -16 77 -69q40 -35 56 -59q31 43 85 96q46 45 73 64q0 -5 5 -17q33 -32 65.5 -64.5t32.5 -59.5q0 -33 -58 -89q-47 -45 -93 -89q3 -3 33 -23q22 -15 28 -39q15 11 36 34q24 27 38 38q8 -8 8 -13q0 -6 -58 -62q-68 -66 -72 -71l-11 6q2 9 0 23
q-45 41 -118 121zM321 185q0 32 -28 61q-31 27 -61 55q-44 44 -61 71q-100 -89 -100 -134q0 -40 64 -90q74 -56 88 -91q98 79 98 128z" />
    <glyph glyph-name="endash" unicode="&#x2013;" horiz-adv-x="448" 
d="M34 267h412v-42h-412v42z" />
    <glyph glyph-name="emdash" unicode="&#x2014;" horiz-adv-x="818" 
d="M34 267h782v-42h-782v42z" />
    <glyph glyph-name="quotedblleft" unicode="&#x201c;" horiz-adv-x="459" 
d="M161 670l9 -13q-63 -40 -63 -98q0 -54 52 -64l31 22l10 -14l-103 -76q-26 6 -42 31t-16 53q0 94 122 159zM361 670l9 -13q-63 -40 -63 -98q0 -54 52 -64l31 22l10 -14l-103 -76q-26 6 -42 31t-16 53q0 94 122 159z" />
    <glyph glyph-name="quotedblright" unicode="&#x201d;" horiz-adv-x="460" 
d="M278 427l-9 13q63 40 63 98q0 53 -52 64l-31 -22l-10 14l103 76q26 -6 42 -31t16 -53q0 -94 -122 -159zM78 427l-9 13q63 40 63 98q0 53 -52 64l-31 -22l-10 14l103 76q26 -6 42 -31t16 -53q0 -94 -122 -159z" />
    <glyph glyph-name="quoteleft" unicode="&#x2018;" horiz-adv-x="259" 
d="M161 670l9 -13q-63 -40 -63 -98q0 -54 52 -64l31 22l10 -14l-103 -76q-26 6 -42 31t-16 53q0 94 122 159z" />
    <glyph glyph-name="quoteright" unicode="&#x2019;" horiz-adv-x="260" 
d="M78 427l-9 13q63 40 63 98q0 53 -52 64l-31 -22l-10 14l103 76q26 -6 42 -31t16 -53q0 -94 -122 -159z" />
    <glyph glyph-name="divide" unicode="&#xf7;" 
 />
    <glyph glyph-name="ydieresis" unicode="&#xff;" horiz-adv-x="413" 
d="M443 387q-14 -13 -37 -38q-14 -20 -14 -46v-131q0 -4 3.5 -33.5t3.5 -33.5v-155q0 -33 -68 -104q-47 -47 -93 -94h-12q0 10 -5 31q-11 10 -34.5 20t-36.5 10q-21 0 -37 -13q-32 -27 -40 -32q-5 5 -5 11q0 14 41 48q37 31 56 39q3 1 26 1q46 0 87 -34q14 9 30 29
q19 25 19 42v206l-127 -113h-12q-2 9 -8 24q-11 14 -40 38q-33 27 -45 27q-4 0 -10.5 -3.5t-11.5 -3.5q-6 5 -4 12q10 10 22 31q3 16 0 112q-2 70 22 102q-18 9 -57 39l-28 -24q-18 -16 -24 -13q-3 3 -4 10q43 45 97 99q9 -8 9 -21q35 -30 56 -30q5 0 21 9q23 14 24 15
q0 -2 2 -4t2 -6q0 -3 -20 -25t-23 -35q-4 -22 -4 -50v-32q1 -20 1 -31q0 -55 -18 -92q12 -5 36 -20q35 -24 52 -60q4 0 45 41q44 45 44 60v91q0 25 31 69q-22 13 -67 43q-5 -4 -17 -14t-17 -14q-3 3 -8 14q20 25 37 44q39 44 50 48q1 -8 5 -21q12 -17 53 -40q12 -3 40 16h12
v-15zM273 530q0 16 12.5 27.5t29.5 11.5t29.5 -11t12.5 -28q0 -18 -12 -29t-30 -11q-17 0 -29.5 11.5t-12.5 28.5zM133 530q0 16 12.5 27.5t29.5 11.5t29.5 -11t12.5 -28q0 -18 -12 -29t-30 -11q-17 0 -29.5 11.5t-12.5 28.5z" />
    <glyph glyph-name="Ydieresis" unicode="&#x178;" horiz-adv-x="622" 
d="M267 672q2 -20 -44 -56t-72 -31l-69 25q-24 3 -41.5 -8.5t-34.5 -23.5q2 23 41 56.5t67 33.5q16 -1 42.5 -14t41.5 -14q13 0 35 13q17 9 34 19zM276 593q-11 -35 -8 -58v-345q-5 -34 -41 -48q10 33 10 45v316q-1 64 39 90zM667 679q-22 -56 -64 -87q-29 -20 -44 -20
q-16 -21 -16 -54v-518q0 -24 -18 -74q-4 -11 -26 -36q-156 -181 -167 -181q-10 0 -10 10q0 4 2 10.5l2 6.5q-61 59 -132 53q-19 -1 -42 -18q-31 -21 -61 -42q22 49 72 84.5t91 35.5q7 0 13 -1q18 -4 108 -51q4 0 28 28.5t37 48.5q30 44 30 68v161l-159 -160q-8 3 -9 13
q-2 7 -3 14q-10 21 -67 67q-60 47 -83 47q-6 0 -12 -4.5t-16 -6.5q-4 3 8 26q15 30 17 40l1 148q-1 15 -32 29q-27 13 -46 13q-21 0 -35.5 -11t-28.5 -23q0 27 32 58t59 31q11 0 47 -15l1 69q-2 56 44 114q27 35 109 109q-10 -25 -52 -75q-33 -40 -34 -71v-314
q-2 -17 -3 -35q-4 -23 -13 -32q38 -7 87.5 -43t64.5 -73q70 66 94.5 99.5t29.5 67.5q1 10 1 85v214q0 18 20 47.5t44 44.5q-2 1 -38 15q-26 10 -33 21l-64 -66l-7 8l124 140l2 -23q30 -28 76 -28q22 0 39 16q11 12 21 24q2 2 4 -1t7 -3zM379 760q0 20 15 33.5t35 13.5
q21 0 35.5 -13.5t14.5 -33.5q0 -21 -14.5 -34.5t-35.5 -13.5t-35.5 14t-14.5 34zM211 760q0 20 15 33.5t35 13.5q21 0 35.5 -13.5t14.5 -33.5q0 -21 -14.5 -34.5t-35.5 -13.5t-35.5 14t-14.5 34z" />
    <glyph glyph-name="currency" unicode="&#xa4;" 
 />
    <glyph glyph-name="guilsinglleft" unicode="&#x2039;" horiz-adv-x="235" 
d="M8 243q165 159 172 159q11 0 11 -11t-96 -148q95 -130 95 -147q0 -11 -11 -11q-9 0 -82 71q-30 29 -89 87z" />
    <glyph glyph-name="guilsinglright" unicode="&#x203a;" horiz-adv-x="237" 
d="M204 243q-165 159 -172 159q-11 0 -11 -11t96 -148q-95 -130 -95 -147q0 -11 11 -11q9 0 82 71z" />
    <glyph glyph-name="daggerdbl" unicode="&#x2021;" horiz-adv-x="383" 
d="M194 506q18 1 55 16t54 15t27.5 -12.5t10.5 -29.5q0 -19 -11.5 -32.5t-30.5 -13.5q-14 0 -50.5 15t-55.5 15q0 -98 36 -151q-36 -53 -36 -152q19 0 54.5 15t52.5 15q18 0 29.5 -13.5t11.5 -32.5q0 -17 -10.5 -29.5t-27.5 -12.5t-54.5 15t-55.5 16q0 -25 14 -73t14 -72
q0 -47 -41 -47t-41 48q0 23 14 71t14 73q-18 -1 -55 -16t-54 -15q-39 0 -39 42q0 19 12 32.5t30 13.5q17 0 52 -15t54 -15q0 99 -35 152q35 53 35 151q-18 0 -54.5 -15t-51.5 -15q-18 0 -30 13.5t-12 32.5q0 42 39 42q17 0 54 -15t55 -16q0 25 -14 73t-14 71q0 48 41 48
t41 -47q0 -21 -14.5 -68.5t-12.5 -76.5z" />
    <glyph glyph-name="periodcentered" unicode="&#xb7;" horiz-adv-x="236" 
d="M160 312q0 -12 -24.5 -38t-36.5 -26q-13 0 -37.5 28.5t-24.5 41.5q0 12 25.5 36t37.5 24q14 0 37 -25.5t23 -40.5z" />
    <glyph glyph-name="periodcentered" unicode="&#x2219;" horiz-adv-x="236" 
d="M160 312q0 -12 -24.5 -38t-36.5 -26q-13 0 -37.5 28.5t-24.5 41.5q0 12 25.5 36t37.5 24q14 0 37 -25.5t23 -40.5z" />
    <glyph glyph-name="quotesinglbase" unicode="&#x201a;" horiz-adv-x="280" 
d="M78 -113l-9 13q63 40 63 98q0 53 -52 64l-31 -22l-10 14l103 76q26 -6 42 -31t16 -53q0 -94 -122 -159z" />
    <glyph glyph-name="quotedblbase" unicode="&#x201e;" horiz-adv-x="480" 
d="M278 -113l-9 13q63 40 63 98q0 53 -52 64l-31 -22l-10 14l103 76q26 -6 42 -31t16 -53q0 -94 -122 -159zM78 -113l-9 13q63 40 63 98q0 53 -52 64l-31 -22l-10 14l103 76q26 -6 42 -31t16 -53q0 -94 -122 -159z" />
    <glyph glyph-name="perthousand" unicode="&#x2030;" 
 />
    <glyph glyph-name="Acircumflex" unicode="&#xc2;" horiz-adv-x="506" 
d="M543 97l-93 -115v5q0 19 -29 31q-23 10 -46 10q-22 0 -37.5 -16t-21.5 -16h-4q3 42 57 78q27 15 55 30l-34 102q-17 49 -25 49q-2 0 -21.5 -14.5t-27.5 -12.5l-110 25l-26 -5q-15 -53 -47 -158l51 -37q2 1 16 18q11 12 19 12q2 0 7 -2l-83 -108q-10 5 -10 17
q-6 13 -34 23t-45 10q-14 0 -37 -18q-30 -25 -35 -28q10 67 65 94l58 22q3 6 29.5 93t26.5 92q0 16 -24 26q-19 8 -39 8q-18 0 -40 -20q-18 -16 -35 -32q3 30 42.5 72t68.5 42q19 0 55 -21l71 226q2 5 -20 19t-29 14q-16 0 -53 -56l-9 8l96 128q5 -9 24 -27q27 -19 74 -19
q14 0 24 8q19 13 21 15l-54 -72q41 -117 81 -235q62 -183 62 -216q0 -14 -9 -30q-6 -11 -12 -21q0 -5 17 -14.5t23 -9.5q4 0 17 14t22 14q3 0 8 -2zM354 289q-26 91 -78 257l-80 -252q18 18 57 18q4 0 101 -23zM183 735l102 75h13l105 -77l-6 -14l-107 30l-101 -26z" />
    <glyph glyph-name="Ecircumflex" unicode="&#xca;" horiz-adv-x="526" 
d="M551 671q-40 -94 -111 -89q-61 4 -109 48q-48 -41 -46 -85l7 -189q5 -1 29.5 19t37.5 20q20 -1 44 -11.5t36 -9.5q12 -1 27.5 11t32.5 25q-6 -35 -39 -66t-60 -31l-76 26q-29 0 -32 -21v-68q-1 -57 -87 -151q70 9 96 2q48 0 94 -16q34 -13 45 -24l78 81l5 -12l-134 -146
q-3 25 -69 42q-48 13 -84 14l-92 1q-34 1 -70 -20q-27 -17 -54 -33q9 26 58.5 66.5t58.5 73.5q2 5 2 31v137q-27 35 -71 36q-9 3 -25 -9q-21 -17 -33 -21q44 78 93 77q14 0 18.5 -1t14.5 -9q1 19 1 69q1 45 52 105q41 49 73 66q-38 -49 -44 -59q-18 -30 -19 -64l10 -261
q-2 -86 -66 -134l23 3q45 29 57 70q3 11 4 47l-7 269q1 54 51 116q4 5 97 103q9 -9 24 -26q4 -7 36.5 -21t50.5 -14q17 -1 31 7q21 13 41 26zM275 667q0 -20 -44 -50.5t-69 -25.5l-120 33q-19 -1 -46 -19q-23 -15 -28 -12q18 35 61.5 62t74.5 21l112 -35q5 -2 10 -2
q10 0 24 11q18 14 25 17zM183 735l102 75h13l105 -77l-6 -14l-107 30l-101 -26z" />
    <glyph glyph-name="Aacute" unicode="&#xc1;" horiz-adv-x="506" 
d="M543 97l-93 -115v5q0 19 -29 31q-23 10 -46 10q-22 0 -37.5 -16t-21.5 -16h-4q3 42 57 78q27 15 55 30l-34 102q-17 49 -25 49q-2 0 -21.5 -14.5t-27.5 -12.5l-110 25l-26 -5q-15 -53 -47 -158l51 -37q2 1 16 18q11 12 19 12q2 0 7 -2l-83 -108q-10 5 -10 17
q-6 13 -34 23t-45 10q-14 0 -37 -18q-30 -25 -35 -28q10 67 65 94l58 22q3 6 29.5 93t26.5 92q0 16 -24 26q-19 8 -39 8q-18 0 -40 -20q-18 -16 -35 -32q3 30 42.5 72t68.5 42q19 0 55 -21l71 226q2 5 -20 19t-29 14q-16 0 -53 -56l-9 8l96 128q5 -9 24 -27q27 -19 74 -19
q14 0 24 8q19 13 21 15l-54 -72q41 -117 81 -235q62 -183 62 -216q0 -14 -9 -30q-6 -11 -12 -21q0 -5 17 -14.5t23 -9.5q4 0 17 14t22 14q3 0 8 -2zM354 289q-26 91 -78 257l-80 -252q18 18 57 18q4 0 101 -23zM186 721l-9 10l122 72q27 16 36 16q14 0 24.5 -11t10.5 -25
q0 -19 -21 -26q-7 -3 -36 -6z" />
    <glyph glyph-name="Edieresis" unicode="&#xcb;" horiz-adv-x="526" 
d="M551 671q-40 -94 -111 -89q-61 4 -109 48q-48 -41 -46 -85l7 -189q5 -1 29.5 19t37.5 20q20 -1 44 -11.5t36 -9.5q12 -1 27.5 11t32.5 25q-6 -35 -39 -66t-60 -31l-76 26q-29 0 -32 -21v-68q-1 -57 -87 -151q70 9 96 2q48 0 94 -16q34 -13 45 -24l78 81l5 -12l-134 -146
q-3 25 -69 42q-48 13 -84 14l-92 1q-34 1 -70 -20q-27 -17 -54 -33q9 26 58.5 66.5t58.5 73.5q2 5 2 31v137q-27 35 -71 36q-9 3 -25 -9q-21 -17 -33 -21q44 78 93 77q14 0 18.5 -1t14.5 -9q1 19 1 69q1 45 52 105q41 49 73 66q-38 -49 -44 -59q-18 -30 -19 -64l10 -261
q-2 -86 -66 -134l23 3q45 29 57 70q3 11 4 47l-7 269q1 54 51 116q4 5 97 103q9 -9 24 -26q4 -7 36.5 -21t50.5 -14q17 -1 31 7q21 13 41 26zM275 667q0 -20 -44 -50.5t-69 -25.5l-120 33q-19 -1 -46 -19q-23 -15 -28 -12q18 35 61.5 62t74.5 21l112 -35q5 -2 10 -2
q10 0 24 11q18 14 25 17zM303 770q0 16 12.5 27.5t29.5 11.5t29.5 -11t12.5 -28q0 -18 -12 -29t-30 -11q-17 0 -29.5 11.5t-12.5 28.5zM163 770q0 16 12.5 27.5t29.5 11.5t29.5 -11t12.5 -28q0 -18 -12 -29t-30 -11q-17 0 -29.5 11.5t-12.5 28.5z" />
    <glyph glyph-name="Egrave" unicode="&#xc8;" horiz-adv-x="526" 
d="M551 671q-40 -94 -111 -89q-61 4 -109 48q-48 -41 -46 -85l7 -189q5 -1 29.5 19t37.5 20q20 -1 44 -11.5t36 -9.5q12 -1 27.5 11t32.5 25q-6 -35 -39 -66t-60 -31l-76 26q-29 0 -32 -21v-68q-1 -57 -87 -151q70 9 96 2q48 0 94 -16q34 -13 45 -24l78 81l5 -12l-134 -146
q-3 25 -69 42q-48 13 -84 14l-92 1q-34 1 -70 -20q-27 -17 -54 -33q9 26 58.5 66.5t58.5 73.5q2 5 2 31v137q-27 35 -71 36q-9 3 -25 -9q-21 -17 -33 -21q44 78 93 77q14 0 18.5 -1t14.5 -9q1 19 1 69q1 45 52 105q41 49 73 66q-38 -49 -44 -59q-18 -30 -19 -64l10 -261
q-2 -86 -66 -134l23 3q45 29 57 70q3 11 4 47l-7 269q1 54 51 116q4 5 97 103q9 -9 24 -26q4 -7 36.5 -21t50.5 -14q17 -1 31 7q21 13 41 26zM275 667q0 -20 -44 -50.5t-69 -25.5l-120 33q-19 -1 -46 -19q-23 -15 -28 -12q18 35 61.5 62t74.5 21l112 -35q5 -2 10 -2
q10 0 24 11q18 14 25 17zM360 731l9 10l-122 72q-27 16 -36 16q-14 0 -24.5 -11t-10.5 -25q0 -19 20 -26q8 -3 37 -6z" />
    <glyph glyph-name="Iacute" unicode="&#xcd;" horiz-adv-x="386" 
d="M305 671q-7 -23 -41 -49t-60 -26q-2 0 -7.5 1.5t-9.5 1.5l-100 30q-13 4 -34 -13q-27 -22 -33 -25q-4 20 36 55t65 32q24 1 63 -12q44 -16 56 -17q20 7 65 22zM3 -2q12 6 48 36q18 15 50 13q18 -1 36.5 -13.5t18.5 -29.5q76 62 109 97q61 65 61 113l-1 322q0 36 24 77.5
t25 53.5q-113 -93 -108 -185l-1 -270q0 -49 -30 -84t-80 -37q67 41 64 109v315q2 26 19 50q31 45 34 50q-72 -60 -91 -84q-30 -39 -30 -89v-52l-32 13q-25 3 -62.5 -36t-41.5 -67q12 9 39 33q13 13 29 13q20 0 44.5 -14t28.5 -29l-1 -175q-17 -34 -68.5 -53.5t-83.5 -76.5z
M138 721l-9 10l122 72q27 16 36 16q14 0 24.5 -11t10.5 -25q0 -19 -20 -26q-7 -3 -37 -6z" />
    <glyph glyph-name="Icircumflex" unicode="&#xce;" horiz-adv-x="386" 
d="M305 671q-7 -23 -41 -49t-60 -26q-2 0 -7.5 1.5t-9.5 1.5l-100 30q-13 4 -34 -13q-27 -22 -33 -25q-4 20 36 55t65 32q24 1 63 -12q44 -16 56 -17q20 7 65 22zM3 -2q12 6 48 36q18 15 50 13q18 -1 36.5 -13.5t18.5 -29.5q76 62 109 97q61 65 61 113l-1 322q0 36 24 77.5
t25 53.5q-113 -93 -108 -185l-1 -270q0 -49 -30 -84t-80 -37q67 41 64 109v315q2 26 19 50q31 45 34 50q-72 -60 -91 -84q-30 -39 -30 -89v-52l-32 13q-25 3 -62.5 -36t-41.5 -67q12 9 39 33q13 13 29 13q20 0 44.5 -14t28.5 -29l-1 -175q-17 -34 -68.5 -53.5t-83.5 -76.5z
M93 735l102 75h13l105 -77l-6 -14l-107 30l-101 -26z" />
    <glyph glyph-name="Idieresis" unicode="&#xcf;" horiz-adv-x="386" 
d="M305 671q-7 -23 -41 -49t-60 -26q-2 0 -7.5 1.5t-9.5 1.5l-100 30q-13 4 -34 -13q-27 -22 -33 -25q-4 20 36 55t65 32q24 1 63 -12q44 -16 56 -17q20 7 65 22zM3 -2q12 6 48 36q18 15 50 13q18 -1 36.5 -13.5t18.5 -29.5q76 62 109 97q61 65 61 113l-1 322q0 36 24 77.5
t25 53.5q-113 -93 -108 -185l-1 -270q0 -49 -30 -84t-80 -37q67 41 64 109v315q2 26 19 50q31 45 34 50q-72 -60 -91 -84q-30 -39 -30 -89v-52l-32 13q-25 3 -62.5 -36t-41.5 -67q12 9 39 33q13 13 29 13q20 0 44.5 -14t28.5 -29l-1 -175q-17 -34 -68.5 -53.5t-83.5 -76.5z
M233 760q0 16 12.5 27.5t29.5 11.5t29.5 -11t12.5 -28q0 -18 -12 -29t-30 -11q-17 0 -29.5 11.5t-12.5 28.5zM93 760q0 16 12.5 27.5t29.5 11.5t29.5 -11t12.5 -28q0 -18 -12 -29t-30 -11q-17 0 -29.5 11.5t-12.5 28.5z" />
    <glyph glyph-name="Igrave" unicode="&#xcc;" horiz-adv-x="386" 
d="M305 671q-7 -23 -41 -49t-60 -26q-2 0 -7.5 1.5t-9.5 1.5l-100 30q-13 4 -34 -13q-27 -22 -33 -25q-4 20 36 55t65 32q24 1 63 -12q44 -16 56 -17q20 7 65 22zM3 -2q12 6 48 36q18 15 50 13q18 -1 36.5 -13.5t18.5 -29.5q76 62 109 97q61 65 61 113l-1 322q0 36 24 77.5
t25 53.5q-113 -93 -108 -185l-1 -270q0 -49 -30 -84t-80 -37q67 41 64 109v315q2 26 19 50q31 45 34 50q-72 -60 -91 -84q-30 -39 -30 -89v-52l-32 13q-25 3 -62.5 -36t-41.5 -67q12 9 39 33q13 13 29 13q20 0 44.5 -14t28.5 -29l-1 -175q-17 -34 -68.5 -53.5t-83.5 -76.5z
M290 721l9 10l-122 72q-27 16 -36 16q-14 0 -24.5 -11t-10.5 -25q0 -19 20 -26q8 -3 37 -6z" />
    <glyph glyph-name="Oacute" unicode="&#xd3;" horiz-adv-x="556" 
d="M536 359q0 -67 -48 -133q-33 -46 -114 -120q-101 -93 -135 -129q-1 1 -1 28q0 11 -60 59q-75 60 -111 108q-60 78 -60 164q0 93 102 201q61 64 197 163q0 -8 -2.5 -13.5t-2.5 -11.5q0 -17 61 -65q80 -64 113 -103q61 -73 61 -148zM475 321q0 67 -64 137q-69 66 -137 132
v-550q69 68 139 137q62 71 62 144zM249 101v524q-12 -1 -27 -18t-14 -30v-255q-4 -55 -63 -117zM162 564q-62 -46 -99 -139q-3 -22 -3 -43q0 -102 77 -164q10 20 10 26v251q0 11 1 22q2 21 14 47zM198 721l-9 10l122 72q27 16 36 16q14 0 24.5 -11t10.5 -25q0 -19 -20 -26
q-7 -3 -37 -6z" />
    <glyph glyph-name="Ocircumflex" unicode="&#xd4;" horiz-adv-x="556" 
d="M536 359q0 -67 -48 -133q-33 -46 -114 -120q-101 -93 -135 -129q-1 1 -1 28q0 11 -60 59q-75 60 -111 108q-60 78 -60 164q0 93 102 201q61 64 197 163q0 -8 -2.5 -13.5t-2.5 -11.5q0 -17 61 -65q80 -64 113 -103q61 -73 61 -148zM475 321q0 67 -64 137q-69 66 -137 132
v-550q69 68 139 137q62 71 62 144zM249 101v524q-12 -1 -27 -18t-14 -30v-255q-4 -55 -63 -117zM162 564q-62 -46 -99 -139q-3 -22 -3 -43q0 -102 77 -164q10 20 10 26v251q0 11 1 22q2 21 14 47zM173 735l102 75h13l105 -77l-6 -14l-107 30l-101 -26z" />
    <glyph glyph-name="Ograve" unicode="&#xd2;" horiz-adv-x="556" 
d="M536 359q0 -67 -48 -133q-33 -46 -114 -120q-101 -93 -135 -129q-1 1 -1 28q0 11 -60 59q-75 60 -111 108q-60 78 -60 164q0 93 102 201q61 64 197 163q0 -8 -2.5 -13.5t-2.5 -11.5q0 -17 61 -65q80 -64 113 -103q61 -73 61 -148zM475 321q0 67 -64 137q-69 66 -137 132
v-550q69 68 139 137q62 71 62 144zM249 101v524q-12 -1 -27 -18t-14 -30v-255q-4 -55 -63 -117zM162 564q-62 -46 -99 -139q-3 -22 -3 -43q0 -102 77 -164q10 20 10 26v251q0 11 1 22q2 21 14 47zM360 721l9 10l-122 72q-27 16 -36 16q-14 0 -24.5 -11t-10.5 -25
q0 -19 20 -26q8 -3 37 -6z" />
    <glyph glyph-name="Uacute" unicode="&#xda;" horiz-adv-x="635" 
d="M279 672q-16 -31 -42 -53q-29 -23 -55 -23q-19 0 -18 0l-107 28q-10 1 -28 -13q-23 -18 -32 -22q4 27 42 58.5t64 29.5l121 -28q7 1 28 13t27 10zM676 696q-11 -32 -50 -64t-83 -44q-12 -3 -18 -60l5 -291q-6 -36 -19 -64q45 -35 88 -85l48 41v-17l-98 -112q0 1 -1 1
q-5 6 -3 11l2 10q1 20 -30 52t-55 42l-136 -141q-6 4 -8 11q4 4 4 10q0 24 -69 69q-64 41 -83 41q-9 0 -36 -11q2 10 14 35t15 35l-3 118q0 8 -1.5 23.5t-1.5 19.5q-53 30 -79 30q-11 0 -27.5 -13.5t-28.5 -16.5q6 18 32 44.5t42 32.5q10 3 23 3q3 0 15.5 -2t15.5 -2
q6 0 6 17v32q-7 38 47 106q26 32 97 103h9q1 -11 -10.5 -25t-22.5 -26q8 -9 4 -28l7 -327q0 -33 -2 -44q-7 -29 -34 -48q0 1 6 33l-6 382q-25 -16 -31 -54l5 -293q-3 -17 -16 -69q39 -5 81 -31q49 -30 75 -74q100 78 100 158q0 13 -2 25l-2 245q2 52 57 111q-15 10 -54 35
l-48 -34l92 111q5 -5 5 -13.5t1 -10.5q5 -11 31.5 -21.5t44.5 -10.5q22 0 37 11q41 29 49 34zM291 721l-9 10l122 72q27 16 36 16q14 0 24.5 -11t10.5 -25q0 -19 -20 -26q-8 -3 -37 -6z" />
    <glyph glyph-name="Ucircumflex" unicode="&#xdb;" horiz-adv-x="635" 
d="M279 672q-16 -31 -42 -53q-29 -23 -55 -23q-19 0 -18 0l-107 28q-10 1 -28 -13q-23 -18 -32 -22q4 27 42 58.5t64 29.5l121 -28q7 1 28 13t27 10zM676 696q-11 -32 -50 -64t-83 -44q-12 -3 -18 -60l5 -291q-6 -36 -19 -64q45 -35 88 -85l48 41v-17l-98 -112q0 1 -1 1
q-5 6 -3 11l2 10q1 20 -30 52t-55 42l-136 -141q-6 4 -8 11q4 4 4 10q0 24 -69 69q-64 41 -83 41q-9 0 -36 -11q2 10 14 35t15 35l-3 118q0 8 -1.5 23.5t-1.5 19.5q-53 30 -79 30q-11 0 -27.5 -13.5t-28.5 -16.5q6 18 32 44.5t42 32.5q10 3 23 3q3 0 15.5 -2t15.5 -2
q6 0 6 17v32q-7 38 47 106q26 32 97 103h9q1 -11 -10.5 -25t-22.5 -26q8 -9 4 -28l7 -327q0 -33 -2 -44q-7 -29 -34 -48q0 1 6 33l-6 382q-25 -16 -31 -54l5 -293q-3 -17 -16 -69q39 -5 81 -31q49 -30 75 -74q100 78 100 158q0 13 -2 25l-2 245q2 52 57 111q-15 10 -54 35
l-48 -34l92 111q5 -5 5 -13.5t1 -10.5q5 -11 31.5 -21.5t44.5 -10.5q22 0 37 11q41 29 49 34zM233 735l102 75h13l105 -77l-6 -14l-107 30l-101 -26z" />
    <glyph glyph-name="Ugrave" unicode="&#xd9;" horiz-adv-x="635" 
d="M279 672q-16 -31 -42 -53q-29 -23 -55 -23q-19 0 -18 0l-107 28q-10 1 -28 -13q-23 -18 -32 -22q4 27 42 58.5t64 29.5l121 -28q7 1 28 13t27 10zM676 696q-11 -32 -50 -64t-83 -44q-12 -3 -18 -60l5 -291q-6 -36 -19 -64q45 -35 88 -85l48 41v-17l-98 -112q0 1 -1 1
q-5 6 -3 11l2 10q1 20 -30 52t-55 42l-136 -141q-6 4 -8 11q4 4 4 10q0 24 -69 69q-64 41 -83 41q-9 0 -36 -11q2 10 14 35t15 35l-3 118q0 8 -1.5 23.5t-1.5 19.5q-53 30 -79 30q-11 0 -27.5 -13.5t-28.5 -16.5q6 18 32 44.5t42 32.5q10 3 23 3q3 0 15.5 -2t15.5 -2
q6 0 6 17v32q-7 38 47 106q26 32 97 103h9q1 -11 -10.5 -25t-22.5 -26q8 -9 4 -28l7 -327q0 -33 -2 -44q-7 -29 -34 -48q0 1 6 33l-6 382q-25 -16 -31 -54l5 -293q-3 -17 -16 -69q39 -5 81 -31q49 -30 75 -74q100 78 100 158q0 13 -2 25l-2 245q2 52 57 111q-15 10 -54 35
l-48 -34l92 111q5 -5 5 -13.5t1 -10.5q5 -11 31.5 -21.5t44.5 -10.5q22 0 37 11q41 29 49 34zM430 721l9 10l-122 72q-27 16 -36 16q-14 0 -24.5 -11t-10.5 -25q0 -19 20 -26q8 -3 37 -6z" />
    <glyph glyph-name="circumflex" unicode="&#x2c6;" horiz-adv-x="274" 
d="M23 735l102 75h13l105 -77l-6 -14l-107 30l-101 -26z" />
    <glyph glyph-name="tilde" unicode="&#x2dc;" horiz-adv-x="351" 
d="M311 779q-6 -24 -35 -47.5t-54 -23.5q-10 0 -53 19.5t-62 19.5q-15 0 -33.5 -9.5t-26.5 -21.5q-4 2 -13 7q1 18 35 44.5t53 26.5q23 0 64.5 -21t49.5 -21q16 0 60 33q4 0 15 -6z" />
    <glyph glyph-name="macron" unicode="&#xaf;" horiz-adv-x="273" 
d="M48 788h185v-40h-185v40z" />
    <glyph glyph-name="macron" unicode="&#x2c9;" horiz-adv-x="273" 
d="M48 788h185v-40h-185v40z" />
    <glyph glyph-name="cedilla" unicode="&#xb8;" horiz-adv-x="163" 
d="M51 -83q22 -5 43 -9q29 -9 29 -30q0 -16 -17 -32.5t-33 -16.5q-5 0 -14 4l-9 4h-3l9 -25q18 -5 38 -5q75 0 81 94q-9 30 -22 45t-42 22l20 35l-32 -1z" />
    <glyph glyph-name="Scaron" unicode="&#x160;" 
 />
    <glyph glyph-name="scaron" unicode="&#x161;" 
 />
    <glyph glyph-name="brokenbar" unicode="&#xa6;" 
 />
    <glyph glyph-name="Eth" unicode="&#xd0;" 
 />
    <glyph glyph-name="eth" unicode="&#xf0;" 
 />
    <glyph glyph-name="Yacute" unicode="&#xdd;" 
 />
    <glyph glyph-name="yacute" unicode="&#xfd;" 
 />
    <glyph glyph-name="Thorn" unicode="&#xde;" 
 />
    <glyph glyph-name="thorn" unicode="&#xfe;" 
 />
    <glyph glyph-name="minus" unicode="&#xad;" 
 />
    <glyph glyph-name="minus" unicode="&#x2212;" 
 />
    <glyph glyph-name="multiply" unicode="&#xd7;" 
 />
    <glyph glyph-name="onesuperior" unicode="&#xb9;" 
 />
    <glyph glyph-name="twosuperior" unicode="&#xb2;" 
 />
    <glyph glyph-name="threesuperior" unicode="&#xb3;" 
 />
    <glyph glyph-name="onehalf" unicode="&#xbd;" 
 />
    <glyph glyph-name="onequarter" unicode="&#xbc;" 
 />
    <glyph glyph-name="threequarters" unicode="&#xbe;" 
 />
    <glyph glyph-name="Lslash" unicode="&#x141;" 
 />
    <glyph glyph-name="lslash" unicode="&#x142;" 
 />
    <glyph glyph-name="HT" 
 />
    <glyph glyph-name="LF" 
 />
    <glyph glyph-name="nonmarkingreturn" 
 />
    <glyph glyph-name="Zcaron" unicode="&#x17d;" 
 />
    <glyph glyph-name="zcaron" unicode="&#x17e;" 
 />
    <glyph glyph-name="DLE" 
 />
    <glyph glyph-name="DC1" 
 />
    <glyph glyph-name="DC2" 
 />
    <glyph glyph-name="DC3" 
 />
    <glyph glyph-name="DC4" 
 />
    <glyph glyph-name="RS" 
 />
    <glyph glyph-name="US" 
 />
    <glyph glyph-name="notequal" unicode="&#x2260;" 
 />
    <glyph glyph-name="infinity" unicode="&#x221e;" 
 />
    <glyph glyph-name="lessequal" unicode="&#x2264;" 
 />
    <glyph glyph-name="greaterequal" unicode="&#x2265;" 
 />
    <glyph glyph-name="partialdiff" unicode="&#x2202;" horiz-adv-x="222" 
d="M23 271l66 45v133q0 55 1 62q3 34 22 68q-45 21 -69 46q-9 -6 -38 -31l-5 11q26 32 76 93q0 -13 10.5 -26t34.5 -26.5t31 -13.5q5 0 16 8q16 10 20 12l6 -13q-37 -30 -37 -80v-196l62 43v-45l-62 -43l1 -81q1 -6 1 -13q0 -43 -36 -97q29 -11 44 -30q11 -17 23 -33
q9 5 38 30l10 -8q-29 -35 -85 -98l-9 2q5 16 -28 48t-44 32q-4 0 -12 -5t-11 -5q-4 1 -4 9q0 2 17 21t22 32q11 29 5 73v76l-66 -46v46z" />
    <glyph glyph-name="summation" unicode="&#x2211;" horiz-adv-x="467" 
d="M462 660l-183 -282h50q47 1 81 -47q29 -41 29 -82q0 -64 -73 -141q-10 -11 -146 -133q-3 28 -55 57q-48 26 -81 26q-25 0 -41 -16q-19 -22 -37 -44q-12 4 -11 14l187 275q-3 4 -8 4q-3 0 -13 -1t-13 -1q-54 0 -90 42q-33 38 -33 87q0 71 89 153q78 66 155 131
q-1 2 -1 -24q0 -22 46 -48q40 -23 55 -23q23 0 43 18q12 10 41 45q11 -3 9 -10zM367 556l-39 -4q-69 0 -116 69q-22 0 -68.5 -62t-46.5 -95t26 -69q31 -44 75 -44q54 0 169 205zM379 202q0 50 -42 84q-37 30 -83 30q-31 0 -169 -214q45 11 70 11q36 0 66 -16
q21 -11 36 -28.5t14 -17.5q3 0 11.5 8.5t10.5 9.5q35 26 60.5 64.5t25.5 68.5zM373 792l-97 -63h-21l-102 64l6 14l107 -30l101 26z" />
    <glyph glyph-name="product" unicode="&#x220f;" horiz-adv-x="299" 
d="M310 406q0 -12 -27 -39.5t-36 -29.5q-2 -1 -13 -5.5t-15 -4.5q-18 0 -42 15t-34 34q-18 -8 -33 -28t-15 -35q0 -28 56 -48q51 -17 103 -35q56 -27 56 -73q0 -39 -63 -108q-54 -61 -75 -69q-1 7 -2 20q-13 15 -41 31t-44 16q-19 0 -38 -14q-29 -20 -37 -23v16
q28 26 57 50.5t56 24.5q53 0 93 -51q44 38 44 65q0 32 -53.5 48t-105.5 31q-55 25 -55 77q0 40 45 87q83 86 88 92q1 -3 4.5 -7t4.5 -14q14 -14 27.5 -26.5t42.5 -14.5q16 0 21 7q10 12 27 21q0 -1 2 -3t2 -7zM303 552l-97 -63h-21l-102 64l6 14l107 -30l101 26z" />
    <glyph glyph-name="pi" unicode="&#x3c0;" horiz-adv-x="622" 
d="M267 672q2 -20 -44 -56t-72 -31l-69 25q-24 3 -41.5 -8.5t-34.5 -23.5q2 23 41 56.5t67 33.5q16 -1 42.5 -14t41.5 -14q13 0 35 13q17 9 34 19zM276 593q-11 -35 -8 -58v-345q-5 -34 -41 -48q10 33 10 45v316q-1 64 39 90zM667 679q-22 -56 -64 -87q-29 -20 -44 -20
q-16 -21 -16 -54v-518q0 -24 -18 -74q-4 -11 -26 -36q-156 -181 -167 -181q-10 0 -10 10q0 4 2 10.5l2 6.5q-61 59 -132 53q-19 -1 -42 -18q-31 -21 -61 -42q22 49 72 84.5t91 35.5q7 0 13 -1q18 -4 108 -51q4 0 28 28.5t37 48.5q30 44 30 68v161l-159 -160q-8 3 -9 13
q-2 7 -3 14q-10 21 -67 67q-60 47 -83 47q-6 0 -12 -4.5t-16 -6.5q-4 3 8 26q15 30 17 40l1 148q-1 15 -32 29q-27 13 -46 13q-21 0 -35.5 -11t-28.5 -23q0 27 32 58t59 31q11 0 47 -15l1 69q-2 56 44 114q27 35 109 109q-10 -25 -52 -75q-33 -40 -34 -71v-314
q-2 -17 -3 -35q-4 -23 -13 -32q38 -7 87.5 -43t64.5 -73q70 66 94.5 99.5t29.5 67.5q1 10 1 85v214q0 18 20 47.5t44 44.5q-2 1 -38 15q-26 10 -33 21l-64 -66l-7 8l124 140l2 -23q30 -28 76 -28q22 0 39 16q11 12 21 24q2 2 4 -1t7 -3zM273 721l-9 10l122 72q27 16 36 16
q14 0 24.5 -11t10.5 -25q0 -19 -20 -26q-8 -3 -37 -6z" />
    <glyph glyph-name="integral" unicode="&#x222b;" horiz-adv-x="413" 
d="M443 387q-14 -13 -37 -38q-14 -20 -14 -46v-131q0 -4 3.5 -33.5t3.5 -33.5v-155q0 -33 -68 -104q-47 -47 -93 -94h-12q0 10 -5 31q-11 10 -34.5 20t-36.5 10q-21 0 -37 -13q-32 -27 -40 -32q-5 5 -5 11q0 14 41 48q37 31 56 39q3 1 26 1q46 0 87 -34q14 9 30 29
q19 25 19 42v206l-127 -113h-12q-2 9 -8 24q-11 14 -40 38q-33 27 -45 27q-4 0 -10.5 -3.5t-11.5 -3.5q-6 5 -4 12q10 10 22 31q3 16 0 112q-2 70 22 102q-18 9 -57 39l-28 -24q-18 -16 -24 -13q-3 3 -4 10q43 45 97 99q9 -8 9 -21q35 -30 56 -30q5 0 21 9q23 14 24 15
q0 -2 2 -4t2 -6q0 -3 -20 -25t-23 -35q-4 -22 -4 -50v-32q1 -20 1 -31q0 -55 -18 -92q12 -5 36 -20q35 -24 52 -60q4 0 45 41q44 45 44 60v91q0 25 31 69q-22 13 -67 43q-5 -4 -17 -14t-17 -14q-3 3 -8 14q20 25 37 44q39 44 50 48q1 -8 5 -21q12 -17 53 -40q12 -3 40 16h12
v-15zM153 481l-9 10l122 72q27 16 36 16q14 0 24.5 -11t10.5 -25q0 -19 -20 -26q-8 -3 -37 -6z" />
    <glyph glyph-name="Omega" unicode="&#x3a9;" horiz-adv-x="542" 
d="M343 306h-234q30 -78 86 -117q0 1 64 -53t72 -79l159 166q7 -11 6 -18q-3 -26 -90 -113q-54 -55 -109 -109q-9 6 -19.5 24t-18.5 24q-16 13 -49 39q-84 61 -115 100q-45 57 -50 136h-41v32h41q2 33 17 68h-58v32h75q29 49 87 105q5 6 96 88q67 61 69 57q10 -23 45 -54
q43 -38 76 -38q19 0 29 14q19 28 20 28q14 -5 14 -15q0 -16 -37 -44t-37 -26q-43 -11 -45 -11q-74 0 -111 67q-10 0 -39 -28q-18 -17 -36 -33q-67 -55 -94 -110h227v-32h-239q-6 -22 -6 -45q0 -11 2 -23h243v-32z" />
    <glyph glyph-name="Omega" unicode="&#x2126;" horiz-adv-x="542" 
d="M343 306h-234q30 -78 86 -117q0 1 64 -53t72 -79l159 166q7 -11 6 -18q-3 -26 -90 -113q-54 -55 -109 -109q-9 6 -19.5 24t-18.5 24q-16 13 -49 39q-84 61 -115 100q-45 57 -50 136h-41v32h41q2 33 17 68h-58v32h75q29 49 87 105q5 6 96 88q67 61 69 57q10 -23 45 -54
q43 -38 76 -38q19 0 29 14q19 28 20 28q14 -5 14 -15q0 -16 -37 -44t-37 -26q-43 -11 -45 -11q-74 0 -111 67q-10 0 -39 -28q-18 -17 -36 -33q-67 -55 -94 -110h227v-32h-239q-6 -22 -6 -45q0 -11 2 -23h243v-32z" />
    <glyph glyph-name="radical" unicode="&#x221a;" 
 />
    <glyph glyph-name="approxequal" unicode="&#x2248;" 
 />
    <glyph glyph-name="approxequal" unicode="&#x22f2;" 
 />
    <glyph glyph-name="Delta" unicode="&#x394;" 
 />
    <glyph glyph-name="Delta" unicode="&#x2206;" 
 />
    <glyph glyph-name="lozenge" unicode="&#x25ca;" horiz-adv-x="315" 
d="M260 284q-19 -17 -51 -59q-35 -46 -50 -62q-33 45 -101 121q22 19 52 59q41 53 49 62q33 -44 101 -121z" />
    <glyph glyph-name="fraction" unicode="&#x2044;" 
 />
    <glyph glyph-name="fi" unicode="&#xf001;" 
 />
    <glyph glyph-name="fl" unicode="&#xf002;" 
 />
    <glyph glyph-name="apple" unicode="&#xf000;" horiz-adv-x="10" 
 />
    <glyph glyph-name="dotlessi" unicode="&#x131;" horiz-adv-x="208" 
d="M221 90q-20 -15 -45 -48q-31 -39 -40 -48l-6 5q0 3 1.5 11t1.5 13q0 15 -63 55q-3 0 -11.5 -8.5t-11.5 -7.5q-4 -2 -4 6q0 5 8.5 11t9.5 8q5 5 13 31q1 3 1 34v139q0 11 20 38q-9 6 -27 16q-10 10 -29 31q-10 -9 -33 -24l-6 12l76 77h12q0 -20 21 -39t33 -19q3 0 24 10
l8 -9q-1 -2 -23 -25q-15 -17 -15 -22v-176q0 -1 -10 -33q18 -17 57 -50q11 9 31 20q1 -1 5 -2.5t4 -2.5q0 -2 -2 -3z" />
    <glyph glyph-name="breve" unicode="&#x2d8;" horiz-adv-x="177" 
d="M4 790q52 -35 97 -32q27 -1 88 37l-3 -11q-40 -69 -89 -65q-28 2 -56 16q-34 18 -34 42q0 3 -3 13z" />
    <glyph glyph-name="dotaccent" unicode="&#x2d9;" horiz-adv-x="246" 
d="M80 763q0 20 13.5 35.5t33.5 15.5q21 0 34.5 -15t13.5 -36t-13.5 -35.5t-34.5 -14.5q-20 0 -33.5 15t-13.5 35z" />
    <glyph glyph-name="ring" unicode="&#x2da;" horiz-adv-x="245" 
d="M101 864q31 0 52 -21t21 -52q0 -30 -21.5 -51.5t-51.5 -21.5q-31 0 -52 21t-21 52t21 52t52 21zM101 834q-18 0 -30.5 -12.5t-12.5 -30.5t12.5 -30.5t30.5 -12.5t30.5 12.5t12.5 30.5t-12.5 30.5t-30.5 12.5z" />
    <glyph glyph-name="hungarumlaut" unicode="&#x2dd;" horiz-adv-x="352" 
d="M38 714l-13 16l73 88q27 32 45 32q25 0 25 -30q0 -34 -56 -65zM159 713l-13 16l74 88q27 32 44 32q26 0 26 -30q0 -33 -57 -65z" />
    <glyph glyph-name="ogonek" unicode="&#x2db;" horiz-adv-x="206" 
d="M113 -190q-35 0 -58 21t-23 56q0 42 30 74q14 15 43 35h43q-22 -18 -30 -27q-30 -33 -30 -64q0 -54 50 -54q23 0 68 22l12 -26q-52 -37 -105 -37z" />
    <glyph glyph-name="caron" unicode="&#x2c7;" horiz-adv-x="279" 
d="M243 791l-97 -62h-21l-102 64l6 14l107 -30l101 25z" />
    </font>
</defs>
</svg>
