<?xml version="1.0" standalone="no"?>
<!DOCTYPE svg PUBLIC "-//W3C//DTD SVG 1.1//EN" "http://www.w3.org/Graphics/SVG/1.1/DTD/svg11.dtd" >
<svg>
<metadata>
Created by FontForge 20120731 at Tue Apr 16 15:47:50 2019
 By www-data
Digitized by Dan X. Solo. Software (c) 2000 by Dover Publications, Inc., New York.
</metadata>
<defs>
<font id="DavisFancy" horiz-adv-x="20" >
  <font-face 
    font-family="Davis Fancy"
    font-weight="400"
    font-stretch="normal"
    units-per-em="1000"
    panose-1="0 0 4 0 0 0 0 0 0 0"
    ascent="800"
    descent="-200"
    x-height="398"
    cap-height="737"
    bbox="-34 -295 1228 837"
    underline-thickness="20"
    underline-position="-123"
    unicode-range="U+0020-F002"
  />
<missing-glyph horiz-adv-x="500" 
d="M63 0v800h375v-800h-375zM125 63h250v675h-250v-675z" />
    <glyph glyph-name=".notdef" horiz-adv-x="500" 
d="M63 0v800h375v-800h-375zM125 63h250v675h-250v-675z" />
    <glyph glyph-name=".null" horiz-adv-x="0" 
 />
    <glyph glyph-name="nonmarkingreturn" horiz-adv-x="174" 
 />
    <glyph glyph-name="space" unicode=" " horiz-adv-x="174" 
 />
    <glyph glyph-name="exclam" unicode="!" horiz-adv-x="247" 
d="M127 200q-1 -9 -9 -9h-36q-8 0 -9 9l-8 238q-10 167 -44 220q1 10 11 10h126q10 0 9 -9zM108 8q-7 -7 -13 0l-57 57q-2 2 -2 6t2 6l55 55q6 7 13 0l57 -56q3 -3 3 -8q0 -4 -3 -7z" />
    <glyph glyph-name="quotedbl" unicode="&#x22;" horiz-adv-x="302" 
d="M154 674h81q8 0 7 -7l-20 -235q-2 -7 -7 -7h-36q-5 0 -7 7q-2 61 -4 121q-4 86 -22 112q-2 9 8 9zM14 674h81q8 0 7 -7l-20 -235q-2 -7 -7 -7h-36q-5 0 -7 7q-2 61 -4 121q-4 86 -22 112q-2 9 8 9z" />
    <glyph glyph-name="numbersign" unicode="#" horiz-adv-x="406" 
d="M244 450h-78l-40 -229h78zM82 531h46l23 128q3 14 16 14h24q15 0 12 -14l-23 -128h78l23 128q3 14 16 14h24q15 0 12 -14l-23 -128h46q14 0 12 -14l-9 -53q-4 -14 -17 -14h-46l-40 -229h46q13 0 11 -14l-9 -53q-2 -14 -16 -14h-47l-22 -126q-2 -14 -16 -14h-24
q-14 0 -12 14l22 126h-78l-22 -126q-2 -14 -16 -14h-24q-14 0 -12 14l22 126h-46q-15 0 -12 14l10 53q3 14 16 14h47l40 229h-46q-14 0 -12 14l9 53q2 14 17 14z" />
    <glyph glyph-name="dollar" unicode="$" horiz-adv-x="371" 
d="M95 275l-2 -4q-10 -22 15 -22h134q37 0 37 38q0 27 -43 58q-20 14 -92 53q-129 71 -129 121q0 37 101 148h23v47q0 9 9 9h28q9 0 9 -9v-47h103q23 0 16 -20q-5 -17 -64 -70q-2 23 -15 23q-56 1 -117 0q-30 0 -30 -25q0 -5 2 -12q6 -21 67 -61q31 -18 67 -40l56 -34
q31 -21 48 -44t17 -53t-38 -89q-41 -63 -70 -63h-42v-72q0 -9 -9 -9h-28q-9 0 -9 9v72h-114q-16 0 -11 9q27 46 81 87z" />
    <glyph glyph-name="percent" unicode="%" horiz-adv-x="650" 
d="M599 215q0 -71 -36 -139q-41 -80 -103 -80q-29 0 -57 21q-22 17 -42 53q-32 58 -32 129q0 49 18 98q20 57 59 90q29 25 57 25q65 0 105 -77q31 -61 31 -120zM546 171q0 46 -20 99q-27 75 -77 75q-64 0 -64 -107q0 -43 19 -93q27 -75 78 -75q34 0 51 35q13 27 13 66z
M269 485q0 -71 -36 -139q-41 -80 -103 -80q-29 0 -57 21q-22 17 -42 53q-32 58 -32 129q0 49 18 98q20 57 59 90q29 25 57 25q65 0 105 -77q31 -61 31 -120zM216 441q0 46 -20 99q-27 75 -77 75q-64 0 -64 -107q0 -43 19 -93q27 -75 78 -75q34 0 51 35q13 27 13 66zM486 674
h22q7 0 12 -4.5t2 -9.5l-401 -646q-9 -14 -14 -14h-22q-6 0 -11.5 4.5t-2.5 9.5l401 646q9 14 14 14z" />
    <glyph glyph-name="ampersand" unicode="&#x26;" horiz-adv-x="602" 
d="M525 88v-1q0 -9 -29 -40q-23 -24 -33 -31.5t-27 -7.5q-24 0 -57 41q-19 28 -56 81q-8 0 -17 -2q-73 -97 -120 -115q-24 -9 -43 -9q-50 0 -90.5 41t-40.5 89q0 51 49 113q44 56 93 84l3 1q8 4 8 18q0 5 -32 51q-28 42 -28 73q0 24 33 84q38 70 70 69l219 -4
q9 -2 17.5 -14.5t8.5 -21.5q0 -39 -154 -178q-32 -30 -32 -36q0 -20 85 -125l43 66q21 31 38 51q43 52 74 52q22 0 22 -32q0 -15 -18 -49q-21 -36 -36 -36q-2 0 -8 3q-10 5 -19 5q-20 0 -50 -30t-30 -51q0 -17 47 -76t59 -64t25 -5q1 0 26 6zM312 573q-16 2 -46 2h-13
q-9 1 -13 1q-70 1 -70 -52q0 -19 29 -64q31 -48 54 -56l34 30q21 21 36 37q40 45 40 72q0 5 -1 10q-14 16 -50 20zM188 315q-41 -27 -67 -67q-24 -36 -24 -63q0 -38 23 -70q28 -38 72 -38q26 0 64.5 29.5t38.5 57.5q0 15 -107 151z" />
    <glyph glyph-name="quotesingle" unicode="'" horiz-adv-x="163" 
d="M14 674h81q8 0 7 -7l-20 -235q-2 -7 -7 -7h-36q-5 0 -7 7q-2 61 -4 121q-4 86 -22 112q-2 9 8 9z" />
    <glyph glyph-name="parenleft" unicode="(" horiz-adv-x="270" 
d="M129 670h49q-106 -199 -106 -334q0 -134 106 -336h-49q-124 153 -124 334t124 336z" />
    <glyph glyph-name="parenright" unicode=")" horiz-adv-x="270" 
d="M54 670h-49q105 -200 105 -334q0 -136 -105 -336h49q124 153 124 334q0 179 -124 336z" />
    <glyph glyph-name="asterisk" unicode="*" horiz-adv-x="342" 
d="M139 542l-18 126h56l-17 -124l100 76l28 -48l-118 -48l118 -49l-28 -48l-100 78l17 -127h-56l18 128l-102 -79l-28 48l118 49l-118 48l28 48z" />
    <glyph glyph-name="plus" unicode="+" horiz-adv-x="598" 
d="M299 308v-227h-66v227h-227v65h227v227h66v-227h227v-65h-227z" />
    <glyph glyph-name="comma" unicode="," horiz-adv-x="203" 
d="M139 62q-5 -27 -8 -37q-10 -35 -39 -59q-30 -19 -60 -39q-6 -6 -12 -6q-14 0 -14 20q0 4 1 8q11 14 23 28.5t14 32.5q2 14 -8 30t-10 19q0 21 30 34q23 11 47 11q36 0 36 -42z" />
    <glyph glyph-name="hyphen" unicode="-" horiz-adv-x="245" 
d="M14 313h167q14 0 14 -14v-35q0 -14 -14 -14h-167q-14 0 -14 14v35q0 14 14 14z" />
    <glyph glyph-name="hyphen" unicode="&#x2010;" horiz-adv-x="245" 
d="M14 313h167q14 0 14 -14v-35q0 -14 -14 -14h-167q-14 0 -14 14v35q0 14 14 14z" />
    <glyph glyph-name="period" unicode="." horiz-adv-x="196" 
d="M15 81l54 55q10 11 21 0l57 -57q4 -4 4 -10t-4 -11l-55 -54q-11 -10 -21 0l-56 57q-4 4 -4 10t4 10z" />
    <glyph glyph-name="slash" unicode="/" horiz-adv-x="327" 
d="M222 693h20q18 0 14 -14l-200 -691q-4 -14 -14 -14h-20q-6 0 -11 4.5t-3 9.5l200 691q4 14 14 14z" />
    <glyph glyph-name="zero" unicode="0" horiz-adv-x="519" 
d="M228 -8q-46 0 -92 35q-35 26 -69 87q-53 97 -53 211q0 83 29 163q34 94 97 148q46 39 92 39q106 0 171 -126q51 -99 51 -196q0 -119 -59 -231q-68 -130 -167 -130zM193 602q-105 0 -105 -212q0 -69 40 -168q55 -138 144 -138q61 0 91 61q22 46 22 111q0 76 -45 193
q-60 153 -147 153z" />
    <glyph glyph-name="one" unicode="1" horiz-adv-x="338" 
d="M264 75q-17 -24 -46 -49q-32 -29 -48 -29q-15 0 -18 13q-2 5 -2 34l-1 523q-2 25 -16 25q-7 0 -64 -55l-19 2q-2 1 -2 2q1 2 8.5 18.5t54.5 57.5q44 38 68 50q18 10 32 10q7 0 16 -9t8 -19v-540q0 -32 29 -34z" />
    <glyph glyph-name="two" unicode="2" horiz-adv-x="507" 
d="M437 69q-7 -11 -22 -32q-10 -12 -28 -30h-357q-15 0 -20 16q0 10 48 58q138 138 174 181q101 122 101 213q0 52 -24 93q-33 56 -99 54q-43 0 -70.5 -28t-27.5 -68q0 -32 26 -71q-27 -22 -88 -70q-8 13 -19 39q-3 10 -3 46q0 92 83 152q74 53 163 53q74 0 120.5 -46
t46.5 -116q0 -79 -73 -174q-42 -55 -136 -143q-36 -33 -109 -102l4 -4q-4 -6 1 -7q2 -1 10 -1h24h78q155 2 185 2q16 0 16 -6q0 -4 -5 -11q-4 -4 4 -7q4 -6 9 0z" />
    <glyph glyph-name="three" unicode="3" horiz-adv-x="470" 
d="M287 10l-274 -1q-3 1 -9.5 7t-6.5 10q0 23 90 83q0 -36 51 -36h147q18 0 36 52q17 47 17 74q0 54 -48 92q-45 35 -100 35q-12 0 -38 -5q0 1 -1 1v6l16 16q101 103 101 180q0 38 -29.5 61.5t-69.5 19.5q-36 -2 -77 -30l-68 -50q-10 3 -10 7q0 20 56 73q50 46 83 57.5
t68 11.5q55 0 97.5 -33t42.5 -84q0 -23 -44 -82q-49 -65 -92 -87q11 1 21 1q67 0 115 -45t44 -96q-6 -61 -50 -149.5t-68 -88.5z" />
    <glyph glyph-name="four" unicode="4" horiz-adv-x="512" 
d="M450 262q-60 -46 -73 -78l-1 -71q0 -1 -1 -3v-5q0 -8 3 -14q7 -13 32 -10q-12 -22 -48 -49q-40 -28 -64 -28q-6 0 -11 2q-7 10 -7 15q1 -9 1 26v166q-11 -16 -39 -18q-12 -1 -62 -1q-27 1 -65 1q-34 1 -35 1q-29 0 -27 -1q-12 1 -19 4q-14 7 -14 39q0 99 117 263
q121 168 200 168q27 0 32 -24q2 -23 3 -46l-1 -337h79zM284 548q0 37 -19 37q-40 0 -100 -115q-54 -102 -57 -148q-4 -43 7 -55q8 -8 34 -8h135v289z" />
    <glyph glyph-name="five" unicode="5" horiz-adv-x="484" 
d="M389 601h-220q-23 -37 -51 -111q125 8 206.5 -56.5t81.5 -171.5q0 -55 -40.5 -136.5t-85.5 -117.5h-240q-8 1 -8 9q0 17 40 47q18 13 44 29q1 -16 21 -20h31h118q51 53 51 132q0 104 -91 161q-70 44 -151 44q-11 0 -27.5 -4t-31.5 -4q-8 1 0 18q-2 8 113 246h282
q9 0 4 -8q-15 -28 -46 -57z" />
    <glyph glyph-name="six" unicode="6" horiz-adv-x="484" 
d="M216 -2q-94 0 -150 120q-44 94 -42 185q6 214 194 360q55 44 70 44q7 -1 7 -3q-4 -7 -9 -10q-15 -10 -69 -73q-19 -22 -44 -67q-28 -48 -37 -77q-3 -6 -4 -13q0 -9 7 -11q6 -1 13 4q48 49 96 49q80 0 132 -93q42 -72 42 -137q0 -92 -61 -181q-66 -97 -145 -97zM198 447
q-97 0 -97 -146q0 -58 35 -131q47 -97 122 -97q52 0 77 52q19 38 19 85q0 72 -40 147q-47 90 -116 90z" />
    <glyph glyph-name="seven" unicode="7" horiz-adv-x="434" 
d="M210 100q-56 -40 -93 -116q-8 11 -21 35.5t-13 76.5q0 62 39 148q23 51 83 154q58 98 77 142q4 8 4 18q0 43 -51 43h-133q-42 0 -72 -70q-2 -5 -9 -6q-8 -1 -9 6q0 10 11 37q4 14 11 42q10 35 20 56h313h12q3 1 4 0q2 -1 -7 -23l-112 -228q-74 -157 -74 -230
q0 -43 20 -85z" />
    <glyph glyph-name="eight" unicode="8" horiz-adv-x="498" 
d="M349 8h-250q-34 0 -56.5 21.5t-22.5 49.5q0 39 80 139q84 104 84 111t-69 82q-65 72 -65 105q0 28 58 99q11 15 24 32t28 18q2 1 8 1h164q33 0 58.5 -27t20.5 -56q-6 -29 -131 -207q12 -17 43 -51q19 -20 56 -62q69 -80 68 -106q-2 -32 -36 -88q-35 -61 -62 -61zM274 601
h-131q-31 0 -33 -27q1 0 1 -9q0 -21 67 -92l63 -63q6 -6 13 -15q89 109 89 151q0 35 -21 46q-14 9 -48 9zM299 219q-16 18 -70 72q-7 8 -14 17q-26 -31 -66 -85q-49 -67 -52 -83q-2 -10 -2 -18q0 -49 59 -49h197q26 0 26 34q0 12 -5 22q-4 17 -73 90z" />
    <glyph glyph-name="nine" unicode="9" horiz-adv-x="470" 
d="M215 12q-55 -44 -71 -44q-5 0 -5 3q3 7 7 10q21 14 70 73q19 23 45 67q28 49 36 78q3 6 3 12q1 11 -9 11q-5 0 -10 -5q-50 -47 -96 -47q-81 0 -133 92q-41 72 -41 137q0 91 61 181q66 97 145 97q94 0 149 -120q44 -94 42 -185q-5 -214 -193 -360zM174 603q-51 0 -77 -53
q-17 -38 -17 -85q0 -72 38 -147q47 -89 116 -89q98 0 98 145q0 58 -36 131q-47 98 -122 98z" />
    <glyph glyph-name="colon" unicode=":" horiz-adv-x="196" 
d="M15 81l54 55q10 11 21 0l57 -57q4 -4 4 -10t-4 -11l-55 -54q-11 -10 -21 0l-56 57q-4 4 -4 10t4 10zM15 351l54 55q10 11 21 0l57 -57q4 -4 4 -10t-4 -11l-55 -54q-11 -10 -21 0l-56 57q-4 4 -4 10t4 10z" />
    <glyph glyph-name="semicolon" unicode=";" horiz-adv-x="210" 
d="M139 62q-5 -27 -8 -37q-10 -35 -39 -59q-30 -19 -60 -39q-6 -6 -12 -6q-14 0 -14 20q0 4 1 8q11 14 23 28.5t14 32.5q2 14 -8 30t-10 19q0 21 30 34q23 11 47 11q36 0 36 -42zM15 351l54 55q10 11 21 0l57 -57q4 -4 4 -10t-4 -11l-55 -54q-11 -10 -21 0l-56 57
q-4 4 -4 10t4 10z" />
    <glyph glyph-name="less" unicode="&#x3c;" horiz-adv-x="339" 
d="M232 558l48 -49l-192 -192l192 -193l-47 -47l-239 242z" />
    <glyph glyph-name="equal" unicode="=" horiz-adv-x="414" 
d="M351 413q14 0 14 -14v-35q0 -14 -14 -14h-337q-14 0 -14 14v35q0 14 14 14h337zM351 293q14 0 14 -14v-35q0 -14 -14 -14h-337q-14 0 -14 14v35q0 14 14 14h337z" />
    <glyph glyph-name="greater" unicode="&#x3e;" horiz-adv-x="318" 
d="M42 77l-48 48l192 193l-192 192l47 48l239 -242z" />
    <glyph glyph-name="question" unicode="?" horiz-adv-x="507" 
d="M235 209q0 -11 4 -23q-5 -11 -27 -11q-38 0 -38 11q0 61 24 98q14 23 52 50q46 33 62 61q19 32 19 85q0 51 -24 89q-32 52 -97 51q-42 -1 -69 -28t-27 -66q0 -33 27 -71q-27 -23 -92 -73q-8 14 -21 42q-3 9 -3 46q0 93 84 154q75 53 165 53q75 0 122 -46.5t47 -117.5
q0 -50 -36 -97q-21 -27 -76 -75.5t-75.5 -76.5t-20.5 -55zM218 8q-7 -7 -13 0l-57 57q-2 2 -2 6t2 6l55 55q6 7 13 0l57 -56q3 -3 3 -8q0 -4 -3 -7z" />
    <glyph glyph-name="at" unicode="@" horiz-adv-x="826" 
d="M467 207q-51 -82 -137 -82q-55 0 -92 37q-40 40 -40 108q0 102 71 177q65 69 141 69q72 0 100 -70l16 53h105l-55 -194q-19 -68 -19 -87q0 -18 7 -26q14 -15 43 -10q56 10 90 84q30 62 30 127q0 117 -89 185q-80 61 -197 61q-67 0 -127 -21q-114 -40 -180 -161
q-39 -72 -39 -172q0 -142 89 -224.5t233 -82.5q131 0 266 83l22 -36q-148 -94 -317 -94q-162 0 -268 104q-100 98 -108 239q-9 147 89 265q91 109 256 138q163 28 283 -41q134 -76 134 -239q0 -127 -70 -205q-61 -68 -138 -68q-86 0 -99 83zM310 239q-1 -27 12.5 -44
t36.5 -17q14 0 29 7q33 15 65 90q29 68 30 111q2 49 -18 63q-16 11 -32 11q-47 0 -88 -92q-34 -77 -35 -129z" />
    <glyph glyph-name="A" unicode="A" horiz-adv-x="896" 
d="M694 130q0 -6 -15 -22.5t-24 -22.5q-16 -9 -32 -26h-12q2 5 2 10q0 11 -11 21t-21 10q-4 0 -14 -2.5t-16 -3.5q31 34 52 34q15 0 23 -10.5t15 -20.5q21 1 21 19q0 5 -22 32q-27 33 -35 46q-27 -15 -77 -45q3 7 41 43q-11 15 -11 36q6 8 41 25q2 -8 -10 -19q6 -12 18 -12
q7 0 21.5 6.5t20.5 6.5q4 0 6 -1q-3 -3 -10 -9t-10 -9q2 -10 32 -43q27 -30 27 -43zM898 -66h-45q-14 0 -16.5 -1t-8.5 -5.5t-11 -4.5t-7 4t-4 7h-512q0 -7 -1 -12q-4 -13 -14 -15v29l-211 1q-20 -13 -26 -13q0 2 1.5 7t1.5 7q-17 4 -45 3q0 9 4 14q10 -4 30 -4
q30 0 47.5 15.5t55.5 15.5q3 0 20 -1.5t21 -1.5q15 0 45 19.5t30 35.5q0 9 -28 27t-28 32q0 4 9 29t9 29q0 14 -17 23q-12 6 -25 6q-3 0 -11.5 2.5t-12.5 2.5q30 20 92 65q-34 18 -68 37q-49 26 -49 53q0 22 37 53q23 18 46 35q14 9 42 28q-14 8 -30 28.5t-16 35.5
q0 18 19 36q24 19 48 39q-13 8 -37 30q-28 38 -59 50q-9 3 -38.5 -17t-38.5 -20q-5 0 -7 5q27 18 55 36q37 22 59 22q30 0 85 -63l-1 83l16 -2l-1 -100q24 16 65 42q4 2 15 2q24 0 29 -17q0 -1 2 -36q1 -17 14 -17q10 0 36 17q0 -11 -1 -13q-16 -13 -155 -117q10 -5 25 -5
q19 0 83 24q-11 -18 -49 -45q-64 -45 -66 -47v-20q29 -19 47 -37q13 -13 14.5 -18.5t8.5 -12.5q3 -9 -4.5 -25t-18.5 -20q-4 9 -14 28q-21 -15 -33 -30q20 -11 39 -23q24 -17 24 -39q0 -4 -22.5 -33t-22.5 -33t22.5 -33t28.5 -42q5 3 15.5 10.5t15.5 10.5q3 -16 -25.5 -34
t-28.5 -27q0 -31 47 -49q32 -12 53 -12q13 0 59 28t54 28q4 0 63 -28t64 -28q30 0 86 41q-42 28 -51 52q-12 31 -12 61v163q-7 -8 -21 -20q-8 -7 -23 -7q-3 0 -50 7q-52 7 -78 9q-18 -3 -27 -16q-1 -58 0 -190q1 -5 -5 -21t-11 -18q-33 -19 -75 -37l-1 417q-49 -38 -49 -43
t-6 13q21 25 56 50l-1 37q0 46 54 92l76 54q-1 4 -19.5 10t-24.5 6q60 48 91 48q31 1 96 -51q58 -47 85 -84.5t27 -85.5l1 -283q0 -36 4 -48q6 -16 26.5 -39t29.5 -23q5 0 13.5 -3.5t9.5 -3.5q-3 -7 -30 -33q-30 -28 -45 -28q-3 0 -11.5 3.5t-12.5 3.5q-6 0 -12.5 -6.5
t-6.5 -13.5q0 -23 64 -23q8 0 42 18l8 -2q-8 -7 -24 -24q8 -3 38 -3v-13zM714 451q0 20 -4 40q-4 14 -54 58q-54 48 -80 48q-27 0 -48 -30q-18 -26 -18 -50q0 -5 -1 -12v-9q90 69 103 69q8 0 5 -2q-2 -7 -24 -27q8 -5 28 -28q18 -19 22 -19q13 0 28 17q3 -3 2 -5
q-5 -15 -21 -27q11 -19 36 -51h22q0 4 2 14t2 14zM603 459q-2 8 -17 27.5t-24 19.5q-5 0 -22 -12q-20 -12 -26 -14l-5 -25q18 10 54 29q6 -9 22 -38zM710 351q1 55 0 62q-42 -32 -48 -32q-3 0 -3 4q0 9 1 11q-17 17 -44 48q-16 -10 -42 -29l-29 40q-30 -13 -36 -13v-94
q38 20 44 20zM402 567q-27 10 -29 37t-16 32q-29 -18 -54 -40q0 -85 3 -98q48 32 96 69zM287 586q-48 -24 -48 -43q0 -26 48 -57v100zM322 443h-17v-12q6 0 17 12zM759 -48q-4 3 -12.5 13t-12.5 10q-5 0 -16 -9q-15 -12 -17 -14h58zM315 315l-13 11v-28q14 6 13 17zM288 293
q-3 10 -5 46q-27 32 -27 34q0 12 31 44v26q-1 0 -6.5 2t-10.5 2q-8 0 -58 -34q-53 -37 -53 -51q0 -20 40 -41q20 -8 41 -17q28 -17 43 -19q0 3 5 8zM624 -48q-87 44 -88 44q-14 0 -35 -18q-24 -22 -33 -25q81 -6 156 -1zM329 194q0 4 -6 14t-13 10h-12v-55q10 1 20.5 11.5
t10.5 19.5zM284 228q-15 15 -28 15q-17 -12 -47 -36q15 -7 29 -13q11 -7 11 -21q0 -4 -10 -29t-10 -30q0 -8 19 -18l32 -16zM336 52q0 14 -41 45q0 -43 2 -64.5t2 -15.5q37 30 37 35zM364 -48q-35 29 -54 55l-15 -15v-40h69zM280 1v26q-30 -26 -83 -72h83v24q-7 -4 -22 -11
l-5 6z" />
    <glyph glyph-name="B" unicode="B" horiz-adv-x="904" 
d="M847 -60q0 -3 -4 -10q-5 3 -31 3h-16q0 -1 -19 -13h-13q2 13 -2 13l-453 1q-9 -8 -14 -32q-2 10 -4 19q-3 13 -14 16h-190q-12 -7 -34 -17q0 9 3 12q-9 8 -26 7q-32 -1 -30 -1q4 13 17 13q5 0 17 -1.5t16 -1.5q20 0 28 8q12 13 38 22q29 0 84 2q13 1 37 20.5t24 32.5
t-27.5 27t-27.5 32q0 5 10.5 30t10.5 30q0 11 -16.5 18.5t-29.5 7.5q-11 0 -24 -6q9 16 87 71v9q-33 17 -66 33q-42 22 -42 50q0 29 48 66q35 25 70 51q-2 4 -23 31q-15 18 -15 32q0 26 15 41q24 19 48 39q-16 11 -48 41q-31 37 -48 37q-5 0 -34 -13q-38 -17 -46 -21
q19 21 53 41q38 21 65 21q8 0 34 -26q31 -31 39 -37q2 27 7 84q9 -18 9 -92l6 -5q9 5 26.5 15.5t25.5 15.5q5 -7 3 -9l-32 -22q-19 -14 -28 -28q-4 -6 -4 -47q0 -25 6 -51q19 9 58 38q28 21 41 21q-32 -25 -95 -81q34 -12 68 4h12q-1 -5 -44 -39.5t-43 -43.5q0 -16 26.5 -34
t26.5 -32q0 -10 -18 -26.5t-35 -31.5q2 -2 39 -26q24 -15 24 -37q0 -4 -22.5 -34.5t-22.5 -35.5q0 -6 29 -35t35 -29q5 0 8.5 5.5t8.5 5.5t2 -4q-3 -6 -1 -7l5 6q-5 38 -7 108q-1 49 0 120q1 95 1 88q-10 -7 -41 -18l-2 15q21 7 44 18q1 32 -1 114l69 67q-9 4 -24 4
q-44 0 -75 -18q37 61 76 82q31 17 84 17q51 0 124 -20q80 -23 103 -49q33 -39 33 -102q0 -43 -27 -69q-13 -12 -85 -55q-1 -5 13 -7q81 -13 115 -54q6 -9 16 -41.5t10 -50.5q0 -59 -57 -108q-63 -47 -125 -95q-14 -11 -26 -14q-31 -8 -61 -8q-112 0 -156 67q-4 0 -14 -13
q1 -5 1 -10q0 -12 -9 -31q-12 -26 -15 -34q50 24 64 24q4 0 76.5 -20.5t76.5 -20.5q14 0 63.5 37t62.5 35q-13 -12 -38 -39q6 -9 20 -22q18 -11 47 -21q26 -8 34 -8q4 0 23 7.5t25 9.5q-2 -7 -17 -22q5 -1 15.5 -3t15.5 -3zM715 461q0 5 -4 24t-4 23q-9 69 -193 85
q-5 -8 -11 -22q-1 -11 -1 -109q0 -73 5 -127l38 33q18 16 41 16q4 0 3.5 -2t3.5 -2q26 0 67 20q55 25 55 61zM670 285q-70 22 -117 22q-24 0 -47 -11q0 -62 2 -101.5t2 -30.5q15 7 41.5 26.5t34.5 31.5q-25 22 -25 36q0 8 11.5 23.5t25.5 15.5q7 0 7 -4q0 -1 -4 -8.5
t-4 -11.5q14 -25 29 -25q5 0 22 14t22 23zM757 166q0 86 -65 113q-18 -17 -43 -44q42 -35 42 -41q0 -24 -27.5 -49.5t-53.5 -25.5q-43 0 -56 48q-15 -9 -41 -25q0 -18 57.5 -43.5t93.5 -25.5q18 0 49 24q27 20 39 36q5 7 5 33zM295 586q-10 -3 -26 -15q-22 -16 -22 -30
q0 -13 14.5 -32t30.5 -24q15 36 3 101zM659 170q-50 39 -52 39q-15 0 -28 -22q6 -10 21 -23q20 -17 31 -17q15 0 28 23zM331 442h-16q-6 -7 0 -13q7 5 16 13zM320 320h-12v-23q9 8 10 12.5t2 10.5zM677 -51q-6 5 -15.5 15t-14.5 15q-15 -11 -37 -30h67zM296 328
q0 7 -15.5 20.5t-15.5 26.5q0 10 15.5 27t15.5 25q0 23 -21 23q-5 0 -58 -41t-53 -48q0 -16 22 -28q90 -50 100 -50t10 45zM338 194q0 12 -30 26q0 -12 -2 -59q32 18 32 33zM291 81v145q-11 15 -23 15q-5 0 -23.5 -15t-21.5 -23q9 0 22 -7.5t13 -12.5q0 -4 -7 -34
q-9 -34 -10 -47q31 -18 50 -21zM509 -51q-90 30 -92 30q-20 0 -58 -27q28 0 150 -3zM349 51q-18 13 -41 36q-6 -39 0 -76q33 24 41 40zM370 19q0 12 -13 12q-21 -14 -53 -38v-42l15 -3q12 6 31.5 32t19.5 39zM289 -25q1 0 -22 -10l-6 6q6 11 19 21q10 7 10 21q0 6 -2 15
q-27 -24 -79 -76q-1 0 7 -1t21 -1q19 0 48 1zM694 464q-6 -12 -20 -27t-20 -15h-9q-15 0 -27 28q-42 -21 -48 -21q-22 0 -32 26.5t-13 26.5q-5 0 -9.5 -1.5t-5.5 -1.5v12l95 71q5 -5 9 -5q-13 -12 -38 -37q-4 -3 -4 -23q0 -43 21 -43q5 0 30 17q34 23 42 28q0 -3 -5 -12.5
t-5 -16.5q0 -10 13 -20q4 2 13 7t13 7z" />
    <glyph glyph-name="C" unicode="C" horiz-adv-x="867" 
d="M732 237q0 -8 -33.5 -43t-45.5 -35q-14 0 -28 10q-17 12 -17 28q0 8 12 23t26 24h8q-1 -3 -6.5 -13t-5.5 -14q0 -6 9.5 -17.5t16.5 -11.5q4 0 18.5 12t14.5 17q0 3 -12.5 25.5t-12.5 25.5t7.5 25.5t9.5 31.5q-2 5 -34.5 13t-47.5 8q-10 0 -27 -16q10 -2 29 -9
q20 -13 20 -41q0 -24 -44 -60q-29 -21 -57 -41q-10 0 -5 10l40 32q29 26 29 42q0 18 -12 28.5t-28 10.5q-13 0 -27 -7q-3 0 -3 6q0 4 53 44q0 3 -6 7q-17 5 -34 9q-20 7 -20 26q0 14 5 19q23 17 70 53q0 9 -10 32q-12 27 -23 27q-13 0 -74 -45q0 8 1 11q24 18 48 37
q30 21 48 21q15 0 28 -23q16 -27 22 -30q38 30 63 44q2 -1 6 -4q-8 -8 -40 -34q-26 -21 -26 -24q0 -13 13.5 -31.5t24.5 -18.5q3 0 7.5 1t8.5 1v-8q-11 -10 -32 -29q5 -7 25 -12t30 -19q4 -5 4 -16q0 -3 -5 -22t-5 -22q0 -12 12 -30.5t12 -27.5zM385 413l-36 -29l-5 7l42 33
zM836 -45v-14l-59 -1q-7 -6 -22 -14q-4 3 -3 13h-458l-3 -37l-13 3v36h-202q-3 0 -11.5 -7.5t-13.5 -9.5q-2 2 0 13l-51 -1v14q14 0 57 2q48 30 53 30h84q11 0 35.5 21.5t24.5 34.5q0 6 -29 23t-29 34q0 2 8.5 28.5t8.5 29.5q0 11 -19 19q-15 7 -24 7q1 0 -22 -5q7 12 35 32
q41 30 52 39q-7 8 -67 37q-45 23 -45 51q0 17 8 26q24 26 114 93q-6 9 -29 31q-13 13 -13 28q0 24 16 39q21 18 42 35q-9 7 -25 21q-15 18 -30 35q-22 23 -34 23q-11 0 -39 -16q-32 -17 -38 -18q-2 0 -6 3l52 34q34 21 56 21q21 0 42.5 -21t42.5 -42q2 1 0 75l12 10v-100
l12 8q13 9 26 19q26 19 41 19q43 0 45 -70l68 49l8 -6l-191 -153q6 -6 11 -6q10 0 43 8.5t43 7.5q-1 -1 -44 -37q-16 -11 -33 -23q-28 -21 -28 -33q0 -15 25.5 -31t25.5 -32q0 -10 -20 -29l-34 -28q0 -2 4.5 -3t5.5 -1q32 -18 38 -23q16 -13 16 -31q0 -15 -19.5 -38
t-19.5 -31q0 -10 28.5 -38.5t34.5 -28.5q3 0 47 35q0 1 -3 4.5t-4 4.5q-37 55 -37 180q0 84 13 134l10 40q8 28 19 43.5t100.5 82t105.5 69.5q6 1 23 -5q31 -10 90 -43q83 -47 83 -76q0 -7 -58 -76l-4 16q-3 5 -7 9q-37 34 -86 64q-63 40 -98 40q-29 0 -77 -49
q-16 -16 -19 -34q-10 -61 -10 -133q0 -46 9 -103.5t18 -76.5q20 -43 106 -81q78 -35 133 -35h21q9 0 42 22q3 -1 3 -6q0 -1 -27 -32q-31 -35 -46 -46q-18 -13 -51 -13h-9h-11q-4 -24 38 -38q32 -11 62 -11q25 0 57 17q0 -2 4 -12q-6 -5 -20 -15h39zM650 401q-13 5 -32 15
q-7 11 -23 27q-14 -10 -27 -20q-17 -12 -18 -21q16 -10 28 -10q3 0 22.5 -2.5t22.5 -2.5q20 0 27 14zM390 563q-22 8 -25 32q-3 39 -5 42h-8q-9 -10 -34 -25q-21 -12 -23 -19q1 -46 -1 -107l10 8q31 24 86 69zM282 484q0 87 2 102q-15 -5 -32 -22.5t-17 -30.5q0 -12 14 -29
t33 -27v7zM315 438l-27 3q2 -4 7 -21q16 8 20 18zM314 308q-2 4 -19 19v-36q8 6 19 17zM640 -42q-15 17 -16 17q-9 0 -20 -17h36zM281 422q0 21 -20 21q-6 0 -23 -13q-83 -65 -83 -76q0 -15 13 -22q93 -49 107 -49q5 0 6 -4v54l-26 22q-3 4 -3 16q0 14 14.5 27.5t14.5 23.5z
M642 13q-108 24 -158 54q-7 5 -28 22q-18 14 -20 14q-4 0 -24.5 -17t-22.5 -23q2 -13 0 -21q-5 -18 -24 -55q5 2 54 29q30 17 55 17q20 0 66.5 -29t49.5 -29q14 0 52 38zM327 197q0 5 -13 13.5t-19 10.5v-57q9 1 20.5 13t11.5 20zM519 -44q-48 45 -85 45q-19 0 -88 -45h173z
M281 226q-19 13 -26 13t-23 -12t-21 -18q33 -15 33 -37q0 -2 -6 -26q-7 -27 -8 -37q18 -13 51 -33v150zM339 49q0 4 -40 42q-6 -6 -6 -11q0 -61 3 -64q9 1 26 14.5t17 18.5zM358 22q0 10 -11 16l-42 -32q-12 -10 -12 -31q0 -22 10 -22q15 0 35 26.5t20 42.5zM278 -12
q-6 -2 -25 -19l-1 7l26 24v34q-28 -27 -77 -81l77 2v33z" />
    <glyph glyph-name="D" unicode="D" horiz-adv-x="937" 
d="M405 428q-50 -42 -57 -44l-3 3v9q20 18 60 48q1 25 8 79q3 17 31 38l36 27q0 1 -8 3t-9 3q-19 1 -30 1q-61 0 -56 0v6q0 8 33 38.5t45 32t37 1.5q100 0 198 -28q55 -17 87.5 -43.5t59.5 -76.5t27 -164q0 -66 -13.5 -129.5t-105.5 -134.5q-29 -27 -90 -73q-31 -19 -79 -19
q-38 0 -87 16q-55 18 -66.5 42.5t-13.5 70.5q-3 68 -4 72v222zM663 409q-22 5 -32 15q-2 2 -8.5 14t-12.5 12q-2 0 -23 -15t-25 -22q3 -2 3 -6q39 -13 47 -13h20q29 0 31 15zM771 293q0 59 -19 151q-17 85 -103 110q-114 34 -130 34q-9 0 -14 -11.5t-5 -17.5v-56l10 5
q67 45 84 45q18 0 31 -20q9 -17 19 -33q7 3 25 15q15 10 18 10q5 0 6 -2q-2 -9 -21 -23t-19 -20q0 -5 11 -27q8 -16 15 -20q1 -1 13 -1q11 0 19 3v-9q-4 -3 -23 -19q-13 -11 -13 -14l30.5 -12t30.5 -36q0 -3 -6.5 -23.5t-6.5 -23.5t12.5 -27.5t12.5 -28.5q0 -9 -3 -14
q-11 -17 -40.5 -42t-42.5 -25q-14 0 -26.5 12.5t-12.5 25.5q0 22 43 52l4 -4q-15 -30 -15 -27q0 -6 9 -16t18 -10t21.5 9t12.5 19q0 2 -11.5 21.5t-11.5 31.5q0 10 7.5 29.5t7.5 20.5v9q-10 5 -46 12q-32 6 -39 6q-16 -8 -20 -17q9 -3 25 -11q20 -21 20 -35t-8 -26
q-13 -17 -60.5 -57t-57.5 -40q-3 0 -5 1q2 7 48 44q43 34 43 55q0 17 -11 29t-27 12t-27 -7q-6 -2 -8 1q4 12 27.5 29t27.5 23q-18 6 -35 11q-25 9 -25 30q0 18 39 46t39 32q0 7 -13 31.5t-22 24.5q-4 0 -31 -17q-31 -19 -42 -24v-189q0 -32 5 -113q1 -24 10 -48
q8 -19 66 -41q55 -21 81 -21q23 0 35.5 10.5t25.5 21.5q9 8 21 27.5t13 27.5q14 76 14 131zM869 -56q-3 -6 -13 -8.5t-35 -0.5q-22 2 -24 0l-10 -10q-7 -8 -11 -8q-3 0 -5 8t-4 10h-404q-1 0 -19.5 -1.5t-30.5 -1.5q-6 0 -9 -4q0 -13 -9 -33q-2 10 -3 21q-3 16 -12 16h-146
q-39 0 -55 -3q-6 -6 -17 -14h-9q0 1 1 5t1 5q-5 5 -21 6h-23q-7 0 -11 2q0 4 6 9h65q3 0 25.5 16.5t25.5 16.5h72q13 0 41.5 21t28.5 37q0 7 -29 24.5t-29 34.5q0 3 7.5 29.5t7.5 29.5q0 27 -39 27h-13q-10 -1 -16 -1q15 12 45 36.5t45 36.5q-3 4 -66 35q-47 24 -47 53
q0 24 25 46q23 17 46 33q18 13 50 41q-40 33 -40 63q0 21 14 37q9 11 46 39q-9 7 -20 17q-17 19 -35 38q-28 29 -39 29q2 0 -78 -40q-2 0 -6 3q80 62 112 62q18 0 41 -22q41 -39 44 -41q2 6 2 21q0 6 1 20t1 21q-1 11 -5 21h14q1 -41 0 -93q1 0 3.5 -1t6.5 -1q2 0 54 34
q-8 -19 -57 -57q-6 -90 -4 -104q-2 -2 4 -2q7 0 62 46q11 9 54 36l7 -7q-44 -32 -122 -91q6 -6 15 -6q3 0 25 5q27 7 41 10q-6 -10 -50 -48q-38 -32 -38 -48q0 -12 26 -31t26 -31q0 -14 -17 -29t-33 -28q3 -8 32 -24t29 -37q0 -14 -20.5 -41t-20.5 -32q0 -13 29 -40.5
t37 -27.5q2 0 8 2.5t9 2.5v-10q-11 -4 -10 -11q3 -22 -5 -42l-17 -33q-2 -2 3 -2q2 0 25 14q18 11 39 11q25 0 82.5 -20t66.5 -20q15 0 55 29q23 18 46 35q11 8 22 11q1 -9 -13.5 -21.5t-14.5 -18.5q0 -4 15 -20q9 -9 40.5 -19.5t47.5 -10.5q15 0 50 20v-9q-4 -5 -14 -18
q28 2 42 -4zM293 498v92h-11q-39 -26 -39 -47q0 -14 13 -30.5t29 -25.5q1 1 8 11zM329 447h-22l2 -12q8 -2 20 12zM319 314q0 6 -6 12h-9l-1 -25q4 0 10 4.5t6 8.5zM678 -49q-15 14 -29 29q-18 -11 -36 -29h65zM291 432q0 18 -17 18q-9 0 -16 -4.5t-22 -14.5
q-73 -51 -73 -70q0 -14 10.5 -21t53.5 -29q48 -25 55 -25q6 0 9 4v46q-3 5 -20 20q-10 9 -10 22q0 15 15 27.5t15 26.5zM336 196q0 6 -3 12q-9 13 -18 13h-11v-60q6 2 19 14t13 21zM291 81v144q-3 5 -15 12t-17 7q-8 0 -41 -35q35 -7 35 -34q0 -3 -6 -28q-7 -28 -8 -41
q32 -28 46 -28q6 0 6 3zM507 -49q-8 4 -42 16q-38 13 -51 13q-11 0 -29 -10.5t-26 -21.5q7 -1 148 3zM349 45q0 11 -44 43q-4 -18 -4 -31t6 -47q5 2 23.5 15.5t18.5 19.5zM369 18q0 10 -9 15q-20 -14 -39.5 -27t-19.5 -35q0 -26 14 -26q13 0 33.5 29t20.5 44zM291 -2v27h-9
l-74 -78h80v28l-20 -10l-4 4q7 11 27 29z" />
    <glyph glyph-name="E" unicode="E" horiz-adv-x="841" 
d="M722 565q-4 -7 -43 -41.5t-39 -39.5q0 -8 14.5 -32t18.5 -26q17 13 34 16q-2 -6 -24.5 -27t-27.5 -21q-14 0 -31 30t-23 30q-7 0 -30 -18.5t-29 -15.5q1 14 8 18q-1 4 -8.5 11t-13.5 7h-7q-6 -1 -11 -1q5 9 18 19t23 10q15 0 31 -20q3 -1 8 3.5t5 8.5q0 12 -14.5 30
t-25.5 18q-6 0 -31 -18t-32 -20q21 30 54 59q37 30 66 39q-3 -7 -25 -29q4 -3 27 -30q16 -19 19 -19t42 29.5t47 29.5zM810 661q-20 -30 -40 -59q-16 -23 -44 -23l-168 15q-57 0 -72 -51q-6 -20 -6 -83q0 -1 2 -97q0 -8 7 -14q8 11 29 31q18 14 40 14l151 -15q28 0 36 2v-11
q0 -26 -33.5 -51t-57.5 -25l-151 10q-6 0 -13 -7q4 -101 23 -126q11 15 32 32q-2 4 -18 19q-12 12 -12 24q0 9 9 22.5t23 17.5q-4 -14 5 -33q10 -22 25 -22q3 0 34.5 21.5t40.5 20.5q-37 -46 -37 -45q0 -10 8.5 -17t16.5 -7q3 0 25.5 6t25.5 6q9 0 16.5 -11.5t7.5 -18.5
q0 -12 -16.5 -29t-27.5 -13q1 4 7.5 14.5t6.5 12.5q0 13 -16 13q-4 0 -25.5 -5t-25.5 -5q-17 0 -24 10.5t-13 21.5q-21 -14 -64 -41q17 -33 106 -55q69 -17 152 -22q-45 -81 -113 -81q-8 0 -16 2q-1 -2 -1 -6q0 -20 34 -29q21 -5 40 -5q35 0 59 29h12q-2 -5 -11 -17.5
t-12 -13.5q4 -9 10 -8q3 0 5.5 1t6.5 1q5 0 11 -6q-7 -9 -36 -17q-23 -7 -33 -7q-1 0 -14 4t-15 4l-393 -3q-7 -5 -9 -15l-4 -20q-12 13 -9 31q-4 4 -9 4l-197 -2l-30 -18q-6 5 -1 14q-31 12 -50 -1v14q26 0 73 6q15 14 40 29q39 2 79 5q68 11 68 52q0 9 -30 26t-30 34
q0 3 8.5 29.5t8.5 29.5q0 13 -19 21q-15 6 -23 6q-3 0 -12.5 -2t-13.5 -2q1 9 34 33q40 28 52 43q-31 16 -63 33q-50 29 -50 54q0 27 47 63l76 60q-43 35 -43 60q0 30 20 44q33 24 40 33q-34 30 -65 64q-13 14 -30 18l-77 -36q1 11 44.5 36t61.5 25q20 0 41.5 -20.5
t43.5 -42.5q4 -1 4 5v77q5 5 9 5q2 -12 2 -49q0 -31 5 -48q21 7 43 26q17 14 33 14q24 0 29 -28q6 -39 8 -42q14 -4 38 16q32 27 51 33l-201 -168q6 -4 24 -4q15 0 31 6q33 11 45 14q-2 -3 -54 -47q-48 -41 -48 -48q0 -13 26 -32.5t26 -32.5q0 -14 -16.5 -29.5t-33.5 -31.5
q1 -1 35 -23q28 -18 28 -38q0 -11 -20 -36.5t-20 -33.5q0 -10 27 -39t36 -29q3 0 10 4t11 5q-4 -16 -32 -97q66 23 60 23q21 0 82 -20t69 -20q9 0 47 26q-161 22 -207 76q-36 43 -36 175v146q-11 -6 -42 -22q5 16 22 26q12 6 24 13q1 11 9 79q3 22 92 101q92 83 126 83z
M390 578q-21 12 -23 40.5t-11 35.5q-59 -40 -59 -49v-98h12q33 26 81 71zM285 583q0 5 -7 11q-3 -4 -30 -24q-11 -9 -11 -25q0 -15 11 -28.5t23 -16.5q3 1 10 -6q0 -6 2 20.5t2 68.5zM317 441v3l-14 6l-1 -4zM312 323q-6 6 -9 6l-3 -19q5 -6 11 -2zM285 435q0 16 -19 16
q-12 0 -60.5 -37t-48.5 -50q0 -20 61 -48q43 -21 63 -26l4 51q-5 7 -22 21q-8 8 -8 23q0 11 15 25t15 25zM611 -40v0v0v0zM332 199q0 19 -29 25v-57q6 1 17.5 13.5t11.5 18.5zM287 84v139q0 7 -10.5 14t-18.5 7q-10 0 -41 -31q11 -7 23 -15t12 -20q0 -4 -8.5 -30.5
t-8.5 -29.5q0 -12 25 -24q19 -9 27 -10zM502 -46q-78 30 -94 30q-9 0 -27 -12t-24 -18h145zM347 50q-15 14 -41 41q-13 -49 -1 -75q27 16 42 34zM365 23q0 5 -9 13q-35 -23 -42 -31q-14 -14 -14 -31q0 -23 13 -23q15 0 33.5 28.5t18.5 43.5zM287 2l-3 25l-77 -78h66
q8 0 14 5l-2 23q-2 0 -9.5 -4t-10.5 -4q-4 0 -5 1q10 11 27 32z" />
    <glyph glyph-name="F" unicode="F" horiz-adv-x="833" 
d="M632 -52q-3 -6 -12.5 -9t-17.5 -5q-35 0 -56 1q-15 0 -22 1t-6 1v11h114zM818 661q-19 -31 -37 -62q-13 -17 -47 -17q-3 0 -52 5t-51 5q-3 0 -14 -13q-16 -18 -19 -21q46 -47 47 -47q3 0 26 18q27 21 37 27q-1 -12 -29.5 -38t-28.5 -29q0 -5 15 -31.5t21 -26.5l29 15
q-19 -31 -51 -52q-11 10 -25 32q-17 26 -23 33q-28 -16 -42 -30q-8 -8 -12 -8q-3 0 -9 1q7 13 7 19q0 18 -17 18q-4 0 -11 -2.5t-9 -2.5q-1 9 15.5 20.5t25.5 11.5q7 0 31 -20q10 0 10 13q0 14 -13.5 30.5t-25.5 16.5q-11 0 -34 -21t-34 -19l110 102q-11 4 -27 4
q-2 0 -6.5 1t-8.5 1q-29 0 -53.5 -25.5t-24.5 -54.5q0 -91 14 -170q12 14 23 27q16 15 48 15l148 -12q3 0 16.5 1t18.5 1l-36 -64q-16 -21 -52 -21q-3 0 -39 1.5t-39 1.5q-18 0 -21 -1q-9 -2 -9 -13q0 -10 12.5 -24.5t23.5 -14.5q7 0 21.5 7.5t22.5 9.5q-8 -10 -36 -35
q-24 -22 -24 -25q0 -6 13 -18q-4 -1 -14 4l-8 -20q6 4 20 6q4 0 7 6q47 -21 47 -47q0 -16 -29.5 -51.5t-44.5 -43.5q1 11 -6 19t-19 8q3 0 -29 -7q0 11 17 25.5t31 14.5q3 0 15.5 -6.5t15.5 -6.5q12 0 22 28q0 7 -27 24q-14 8 -28 17q-3 10 -12 29q-20 -16 -37 -17
q1 8 16.5 21t29.5 25q-9 12 -18 24.5t-9 22.5q0 19 17 35q-9 9 -32 9q-20 0 -20 -19q0 -3 2.5 -51t2.5 -51v-83q0 -3 2.5 -12.5t2.5 -12.5v-135q0 -35 -23 -55q-6 -5 -71 -46q0 47 -1.5 75t-1.5 25q-7 -3 -17 -3q-8 0 -26 2.5t-27 2.5q-38 0 -39 -37q-7 7 -8 25q0 10 -17 10
l-188 -3q-10 -2 -22 -14h-12q0 8 2 10q-5 5 -20 5h-22q-10 1 -15 5q0 9 9 9h69q-3 0 18.5 16.5t48.5 16.5q3 0 14 -1.5t15 -1.5q21 0 52 14q39 18 39 44q0 10 -29 23.5t-29 38.5q0 3 7.5 29t7.5 29q0 11 -19 19q-14 6 -21 6q-2 0 -11.5 -2.5t-14.5 -2.5q8 14 30 30
q44 33 56 44q-18 14 -80 46q-32 17 -32 44q0 26 39 57.5t78 62.5q-13 16 -26.5 33.5t-13.5 32.5q0 22 22 43q19 15 38 31q-15 18 -49 48q-37 33 -44 33q-10 0 -37.5 -16.5t-38.5 -13.5q67 60 116 55q16 -6 40.5 -31.5t33.5 -26.5v44q0 28 8 39q5 -13 6 -93q5 -4 8 -4
q2 0 30 20t46 20q29 0 29 -30q0 -4 -1 -11v-11q0 -18 14 -18q9 0 38 23.5t32 28.5q6 0 11.5 -1.5l5.5 -1.5l-203 -166q3 -4 19 -4q17 0 79 17q-3 -3 -55 -46q-48 -38 -48 -49q0 -14 28 -33.5t28 -31.5q0 -13 -17.5 -27.5t-33.5 -27.5q7 -9 38 -30q23 -16 23 -38
q0 -16 -20.5 -37.5t-20.5 -31.5t29 -40t34 -30q8 0 15 7l-7 313q-4 1 -17.5 -8t-20.5 -7q2 9 15.5 18.5t22.5 9.5q1 20 2 41q2 27 8 41q14 31 98 104q92 82 134 82q28 0 85 -10q51 -8 88 -6zM397 576q-20 12 -22 40.5t-9 35.5q-59 -37 -61 -52q0 -92 4 -96q78 50 88 72z
M287 493q3 95 -1 99q-44 -24 -44 -49q0 -13 15.5 -31.5t29.5 -18.5zM325 443v4h-15v-4h15zM320 310v11q-5 5 -12 5v-22q6 0 12 6zM292 316q0 23 -16 37t-16 28q0 12 15 26.5t15 26.5q0 20 -19 20q-9 0 -59 -40.5t-50 -52.5q0 -14 55 -44q51 -28 62 -28h11q0 4 1 14.5t1 12.5
zM340 198q0 4 -7.5 12.5t-11.5 8.5h-11v-52q30 13 30 31zM292 82v146q-12 13 -26 13q-8 0 -25 -12.5t-18 -19.5q34 -9 34 -35q0 -2 -6.5 -28t-7.5 -39q28 -18 49 -25zM410 -8q2 21 -4 67q1 -26 -23 -75q22 8 27 8zM355 45q-22 26 -44 41q-4 -36 0 -72q24 12 44 31zM409 -56
v32q-24 -8 -43 -26q29 0 43 -6zM373 19q0 9 -4 12l-44 -24q-18 -12 -18 -37q0 -16 4 -21h15q12 0 30 33q17 29 17 37zM292 -3l-3 27q-56 -51 -74 -75q80 0 77 0q0 18 -3 27q-20 -10 -18 -10q-3 0 -4.5 1l-1.5 1q-1 9 9 16t18 13z" />
    <glyph glyph-name="G" unicode="G" horiz-adv-x="929" 
d="M870 190q0 -38 -94 -116t-127 -78q-15 0 -38 6q-27 7 -90 41q-78 42 -103 122q-13 43 -13 128q0 94 16 153q11 43 13 47q8 25 24 42q14 14 73 59q17 14 52 41q32 24 63 33q12 4 15 4q31 0 104 -37q85 -43 85 -86q0 -8 -21.5 -38t-33.5 -30q-3 0 -25 23q-30 29 -37 35
q-2 0 -6 -4q-4 -7 -5 -8q-39 -32 -67 -51q-7 -5 -7 -11q0 -12 12.5 -29t23.5 -17q8 0 25 10h11q-23 -35 -56 -43q-2 5 -8 12q-5 1 -12.5 5t-21.5 23q-11 15 -14 15q-13 0 -50 -45q0 -9 30 -23.5t30 -28.5t-25 -44t-25 -40q0 -8 5 -19q7 -15 18 -15q-2 0 10 3q13 12 47 31
q4 -3 4 -5q-9 -16 -9 -22q0 -3 8.5 -25t8.5 -25q0 -8 -1 -11q-21 -46 -46 -49l-3 10q20 25 20 30q0 10 -24 46q-37 -25 -66 -47q32 -42 134 -88q18 -8 35 -8q20 0 49.5 24t29.5 44q0 24 -33 88q-37 74 -69 74q-4 0 -19 -9h-12q3 17 29 37q22 16 44 31q8 6 23 6q45 0 85 -72
q34 -61 34 -99zM405 401q2 -15 -38 -37q-6 0 -9 3q-2 9 35 34h12zM845 -49q-1 -9 -28 -13q-36 -7 -51 -14q-6 2 -10 12h-454q-6 -7 -5 -18.5t-11 -18.5l-4 30q-3 10 -23 10l-178 -3q-9 -2 -22 -14h-11v17q-24 -4 -48 0q4 9 21 10h25q12 0 22 2.5t26.5 16t19.5 13.5h77
q16 0 40 13t24 25q0 11 -27.5 24.5t-27.5 36.5q0 3 7.5 29.5t7.5 29.5q0 11 -14.5 18t-26.5 7q-3 0 -12 -2t-14 -2q10 16 37 36q46 34 50 37q-5 8 -61 38q-49 26 -49 53q0 26 44 64l76 60q-40 44 -40 66q0 27 60 71q-22 23 -44 45q-38 39 -49 39q-3 0 -29 -13
q-34 -16 -48 -22q4 12 45 37.5t65 25.5q12 0 38 -25q39 -37 41 -38q3 3 3 14v62q0 9 10 9l8 -98h8q12 10 24 19q24 19 45 19q27 0 29 -27q4 -36 11 -43q10 -3 41.5 20.5t46.5 26.5q-8 -11 -81 -69q-111 -85 -122 -94q4 -4 18 -4q29 0 102 37v-11q-32 -24 -65 -47
q-60 -45 -60 -60q0 -14 26.5 -32.5t26.5 -35.5q0 -11 -24.5 -30.5t-25.5 -28.5q19 -12 37 -24q23 -17 23 -37q0 -13 -21.5 -38.5t-21.5 -32.5q0 -9 29 -38.5t36 -29.5l52 38q0 -1 2 -3t2 -6q0 -2 -18 -18q-22 -18 -28 -27q2 -4 2 -8q0 -6 -10 -19.5t-12 -25.5q24 8 47.5 15
t53.5 7q14 0 21 -4q29 -7 83 -31q8 -5 17 -5h7q11 2 51 15q2 -5 9 -5t11 -2q30 -21 88 -21q4 0 26 3q9 5 31 13l3 -10l-10 -9q10 -3 30 -7zM645 -46h-30q2 11 19 17q4 -6 11 -17zM720 545q-42 33 -91 48q-20 6 -36 6q-69 0 -90 -92q-8 -36 -8 -119q0 -189 39 -217
q10 10 24 29q-25 23 -25 43q0 18 18 40q33 37 37 42q-6 5 -40 25q-20 11 -20 29q0 17 30 43q22 17 45 35q-13 43 -29 57q-9 0 -31 -15q-26 -18 -31 -20q-5 4 -5 8q36 32 67 49q7 3 16 3t16 -3q11 -6 20 -25t15 -25q13 9 40 29.5t39 29.5zM395 563q-20 8 -22 34l-4 42
q-69 -15 -69 -83q0 -9 1.5 -25.5t1.5 -23.5q0 -8 -1 -14q53 26 93 70zM287 482q0 65 -2 87q0 12 -1 10q-14 -10 -28 -19q-16 -13 -16 -27q0 -17 14 -35t33 -16zM320 436h-15q0 -5 -3 -8q4 -4 10 -4q8 8 8 12zM312 295v11q-5 5 -9 5q-4 -13 0 -22q4 0 9 6zM287 421
q0 20 -18 20q-7 0 -58 -39q-54 -40 -54 -52q0 -20 60 -49q47 -23 64 -26l4 48q-3 4 -20 21q-10 10 -10 22q0 15 16 29.5t16 25.5zM330 181q0 17 -27 25l-3 -54q30 10 30 29zM285 213q-16 16 -25 16q-3 0 -22 -15.5t-20 -18.5q32 -11 32 -35q0 -3 -9 -31t-9 -31q0 -10 25 -21
q22 -10 25 -9zM522 -47q-9 12 -38 25t-43 13q-12 0 -47 -15q-31 -14 -39 -21zM342 30q0 5 -15 20.5t-24 20.5q-11 -22 -3 -72q4 0 23 12.5t19 18.5zM362 3q0 8 -6 13q-10 -8 -41 -15q-18 -4 -18 -27t12 -23q14 0 33.5 18.5t19.5 33.5zM285 -2q0 3 -1.5 6.5t-1.5 4.5
q-9 -8 -38 -25q-25 -14 -39 -29q41 -4 77 -1v24q-8 -3 -21 -9q-1 1 -3 2t-3 2q2 9 10 9h5q3 -1 5 -1q10 0 10 17z" />
    <glyph glyph-name="H" unicode="H" horiz-adv-x="943" 
d="M932 63q-3 -12 -31 -41q-30 -33 -43 -33q-24 0 -82 50q-15 13 -28.5 38.5t-13.5 40.5v132q0 43 1 23q0 14 -10 14q-2 0 -14.5 -1.5t-15.5 -1.5l-155 18q-14 0 -14 -34v-64q0 -97 -6 -150q-2 -15 -28 -32q-44 -30 -71 -45h-9q-1 5 2.5 13t3.5 9q4 19 4 68l-5 338
q-5 4 -7 4q3 0 -36 -23q-6 6 -6 9q0 16 49 39v85q0 18 -23 53q-25 40 -46 40q-3 0 -7 -1t-8 -1v8q0 5 51 57q7 6 20 6q14 0 44 -23t31 -23q3 0 18 12q21 16 25 19q4 -4 4 -8q0 -6 -36 -34q10 -12 25 -38q2 -6 15 -65q33 24 101 70q2 0 9 -2q-2 -5 -18 -21q9 -7 29 -31
q16 -19 20 -19q-1 0 52 36h9v-9q-15 -12 -29 -24q-27 -22 -27 -27q0 -7 13 -32q14 -28 21 -28q6 0 16 6l6 -7q-38 -37 -48 -37q-6 0 -11 11q-6 4 -14 13q-6 15 -23 45q-20 -14 -61 -38q1 9 1 26q-1 15 -18 15q-10 0 -19 -3q-1 3 -3 6l26 20q10 7 22 7q10 0 16 -6
q12 -11 16 -14q12 4 12 10q0 12 -14 30t-27 18q-7 0 -27.5 -15.5t-31.5 -12.5v-124h4t13 7.5t28 7.5l150 -23q11 4 14 7v63q0 1 1.5 27t1.5 39q0 2 -1 44q-1 28 1 44q2 23 8 35q3 6 38 29q22 15 54 32h9q-7 -25 -7 -34l-1 -511q0 -17 6 -30.5t32 -38t35 -24.5q-1 0 18 5z
M956 -65q-4 -12 -35 -12q-3 0 -15.5 1.5t-16.5 1.5q-3 0 -23 -4q-2 0 -8 -4.5t-9 -4.5q-4 0 -10.5 5t-8.5 5l-455 -5q-4 0 -18.5 1.5t-17.5 1.5q-20 0 -25 -2q-8 -4 -8 -17q0 -6 1 -14q-1 0 -6 -1t-6 -1v32h-215q-6 -4 -20 -15h-9q0 7 2 9q-5 7 -24 7q-24 1 -29 2v12
q2 -2 67 0q6 1 15 9l17 13q17 12 44 12q3 0 14 -1.5t14 -1.5q22 0 43 6q4 1 27 21.5t23 28.5q0 10 -29.5 27.5t-29.5 36.5q0 2 8 29t8 30q0 14 -17 21q-13 6 -24 6q-1 0 -25 -5v9q53 39 89 69q0 2 -5 5q-34 17 -69 34q-43 24 -43 53q0 19 9.5 29t112.5 93q-7 6 -22 24
q-19 27 -19 44q0 24 17 39q22 19 44 37q-15 11 -45 40q-35 43 -52 43q-8 0 -72 -36l-8 3q3 0 4 5t3 6q26 15 51 30q35 20 53 20q16 0 41 -25q39 -37 41 -39q7 14 5.5 42.5t1.5 41.5q7 0 10 -3v-87q1 -2 4 -7q-4 0 26 5q-2 -9 -16 -20t-14 -24q0 6 1.5 -17.5t1.5 -68.5l4 -4
q14 9 41.5 29t41.5 29l4 -3v-9q-33 -23 -81 -68q2 -1 18 -1q17 0 39 7q17 5 33 11l6 -7q-1 -3 -55 -44q-49 -38 -49 -51q0 -16 27 -33t27 -35q0 -14 -17 -28.5t-34 -29.5q1 -2 35 -25q26 -17 26 -41q0 -13 -20.5 -38.5t-20.5 -31.5q0 -9 10 -18l13 -13t27 -40h7q7 4 19 10
l3 -12q-2 -1 -30 -23q-18 -14 -18 -25q0 -21 35 -40q25 -13 40.5 -16.5t24.5 -3.5q21 0 61.5 30.5t55.5 30.5q17 0 68.5 -28t64.5 -28q14 0 49 29q33 26 40 21q-2 -5 -2 -10q0 -18 26 -35q23 -15 40 -15q11 0 42 20h9q-1 -2 -20 -28q8 -3 29 -2.5t32 -5.5zM706 143
q0 -17 -27 -43q-1 -1 -45 -39h-9q0 2 1.5 7.5t1.5 8.5q0 8 -16.5 18.5t-19.5 10.5q-4 0 -16 -10h-12v10q11 9 23.5 18.5t26.5 9.5q27 0 43 -28q19 7 19 21q0 3 -19 20q-23 20 -27 24q-6 9 -22 30q-11 -7 -35 -22t-36 -22q-4 4 -4 8q0 6 16.5 18.5t19.5 18.5q-10 15 -10 21
q0 13 8 21l26 20l12 -3q-4 -7 -11 -21q10 -9 15 -9q6 0 60 41l17 -4q-5 -6 -26 -25q-17 -15 -17 -18q0 -4 31.5 -35t31.5 -47zM287 493q7 49 -1 99l-30 -22t-15 -25q0 -4 3 -11.5t16 -24t18 -16.5h9zM322 441l-9 4l-6 -7q8 -4 15 3zM783 -58q-15 25 -22 25q-11 0 -32 -25h54
zM320 305v9l-12 3v-17q6 0 12 5zM292 301q0 26 -3.5 33t-16.5 21t-13 17q0 19 30 45v27q-11 6 -16 6q-9 0 -60 -39.5t-51 -51.5q0 -19 51 -46l54 -24q12 -7 14 -7h8q3 6 3 19zM643 -58q-76 42 -87 42q-24 0 -66 -45q21 -1 153 3zM338 188q0 3 -6.5 13t-13.5 9h-11v-52
q5 -3 10 -1q8 9 16 17q5 6 5 14zM292 74v143q0 5 -11 12t-16 7q-4 0 -21.5 -14t-20.5 -21l24 -14q9 -7 9 -21q0 -3 -7.5 -29.5t-7.5 -30.5q0 -9 4 -12q25 -21 38 -20h9zM345 40q0 9 -13.5 25t-23.5 18q0 -52 2 -78q7 2 21 14.5t14 20.5zM376 -60q-9 6 -31 29q-19 20 -23 20
q-15 0 -15 -29q0 -15 3 -24q38 0 66 4zM292 -12l-3 24q-54 -48 -76 -75h40q26 -1 39 -1v25q-3 0 -10.5 -3.5t-9.5 -3.5t-6 4q8 14 26 30z" />
    <glyph glyph-name="I" unicode="I" horiz-adv-x="648" 
d="M610 51q-3 -2 -33 -39q-20 -23 -32 -23q-22 0 -66 41q-39 36 -49 54q-5 11 -11 44l3 460q0 16 8 42q7 8 52 24q41 15 48 15l10 -3q-3 0 -4.5 -9.5t-4.5 -24.5l-2 -443v-22q0 -28 8 -46q3 -8 26 -34q25 -29 34 -29l13 2v-9zM600 207q-13 -25 -60 -50l-4 3v10q20 14 57 41
q2 -1 7 -4zM618 -22q0 -7 -36 -36q4 -6 17.5 -5.5t18.5 -4.5q-5 -3 -11 -8q-102 0 -286 -4q-7 -1 -7 -16q0 -19 -7 -24q-5 8 -5.5 16.5t-1 16.5t-15.5 8l-198 -3l-20 -12h-8q-3 14 -23 13h-36v11q2 1 44 1q38 0 55 18t47 18q3 0 22.5 -1.5t23.5 -1.5q22 0 51 22t29 36
q0 8 -30.5 26.5t-30.5 38.5q0 3 9 28.5t9 29.5q0 12 -17 19q-13 6 -27 6q-12 0 -27 -5q7 14 38 36q38 27 53 42q-5 6 -66 37q-51 26 -51 54t51 67l74 58q-8 7 -26 25.5t-18 41.5q0 21 18.5 39t37.5 36q-22 25 -44 49q-30 34 -47 34q-12 0 -36 -14q-16 -10 -31 -19h-12
q3 12 45.5 36.5t59.5 24.5q23 0 44.5 -21t42.5 -43q2 0 6 4q1 53 1 63q1 18 6 22l5 -8q1 -3 1 -92q4 -4 6 -4t35 24q39 29 54 39h9q-14 -14 -56 -48q-35 -28 -35 -32q0 -11 26 -34t36 -23q3 0 11.5 4.5t11.5 5.5l4 -3v-7q-59 -43 -92 -73q2 -6 19 -6q11 0 67 13v-10
q-28 -21 -89 -71q-4 -4 -4 -17q0 -10 27.5 -28t27.5 -34q0 -11 -20 -30q-16 -15 -33 -30q8 -9 32 -20q32 -14 32 -45q0 -13 -20.5 -39t-20.5 -31q0 -9 28 -38t38 -29q6 0 14 7h11v-9q-5 -4 -14 -13q4 -28 -29 -88q-2 -1 4 -1q-1 0 32.5 16.5t43.5 16.5q16 0 51.5 -19.5
t51.5 -19.5q13 0 21 7q15 12 24 16q4 0 4 -6zM348 533q-13 8 -35 18v-45q21 8 35 27zM297 493v80q-5 11 -16 11t-21.5 -13.5t-10.5 -24.5q0 -15 15 -32.5t33 -20.5zM333 450h-9q-11 -4 -8 -13h8q9 9 9 13zM328 308q-4 6 -9 12q-6 0 -6 -9q0 -8 3 -11q3 0 12 8zM300 297
q0 33 -4 41t-19 19q-10 9 -10 20q0 12 9.5 22t20.5 21v27q-3 0 -9.5 2.5t-9.5 2.5q-6 0 -54 -35.5t-53 -44.5q-3 -5 -3 -13q0 -26 79 -58q44 -19 45 -19q8 0 8 15zM346 190q0 3 -7 13t-13 10h-11q-3 -31 1 -56q9 3 19.5 14.5t10.5 18.5zM300 74v136q0 11 -9 18.5t-20 7.5
q-7 0 -24 -14t-21 -21q36 -12 36 -35q0 -2 -7 -29t-8 -40q40 -24 42 -23h11zM506 -58q-52 27 -63 27q-12 0 -33 -11t-26 -19q90 -4 122 3zM361 36q-22 28 -43 42q-10 -29 -2 -76q22 11 45 34zM381 10q0 9 -9 12q-22 -14 -43 -29q-16 -14 -16 -37q0 -20 13 -20q14 0 34.5 29
t20.5 45zM300 0q0 9 -4 15q-32 -29 -80 -78q5 -1 83 -1v28q-3 -1 -10.5 -5.5t-10.5 -4.5q-2 0 -6 4q4 9 16 18t12 24z" />
    <glyph glyph-name="J" unicode="J" horiz-adv-x="618" 
d="M516 658q4 -10 -30 -33l-3 9q12 15 33 24zM414 304q-14 -18 -44 -42h-9q0 14 15 28l32 22q1 -1 3 -4t3 -4zM580 197q-6 -14 -51 -49q-3 -29 -3 -96v-125q0 -7 -5 -24q-7 -21 -14 -30q-24 -29 -75 -77q-63 -58 -81 -58q-25 0 -57.5 32t-32.5 58q-1 4 -4 12q-5 25 -2 59
q0 4 2.5 11t2.5 11q-44 -5 -65 -5h-105q-3 0 -16 -8t-20 -10l-1 13q-9 5 -13 5h-40q0 7 3 9q11 3 39 2q24 -1 40 7q9 8 25 21q14 9 29 9q3 0 19 -1.5t19 -1.5q24 0 43 6q6 2 29 23.5t23 30.5q0 10 -30.5 25t-30.5 38q0 2 8 27.5t8 29.5q0 26 -41 26h-14q-11 -1 -17 -1
q31 24 92 74q0 5 -5 8q-33 16 -67 32q-45 24 -45 53q0 21 9 30q14 14 113 94q0 1 -1 3q-42 39 -42 65q0 19 20.5 38t42.5 38q-26 24 -83 75q-9 8 -17 8q-3 0 -30 -15q-36 -19 -44 -23q-2 0 -9 3q81 60 113 60q19 0 40 -20q34 -31 49 -41q13 20 13 30q0 6 -8.5 11.5
t-8.5 12.5q0 10 12 30q6 -17 6 -18v-74l5 -5h6q16 11 42 26q3 -3 6 -3q-3 -5 -34 -27q-25 -19 -25 -34q0 7 1 -13q2 -24 2 -74q4 -4 6 -4q4 0 31 21q37 29 45 35q6 0 9 -4q-8 -13 -33.5 -33t-50.5 -39q0 -2 4 -4t17 -2q15 0 38 7q19 5 38 11v-9q-14 -12 -44 -36
q-17 -12 -34 -23q-21 -16 -21 -31q0 -20 28 -34.5t28 -34.5q0 -10 -25 -31q-27 -24 -29 -26q0 -4 2 -6q38 -20 42 -23q20 -15 20 -36q0 -14 -20.5 -39.5t-20.5 -32.5q0 -10 30 -37.5t38 -27.5q1 0 9 2q7 1 10 0v-9q0 -4 -3.5 -5.5t-3.5 -2.5q3 -26 -26 -83q-2 -1 4 -1
q3 0 12.5 5.5t12.5 6.5l4 -3v-9q-17 -10 -49 -34q17 -3 46 -2l5 -6q0 -4 -6 -9q-27 -1 -95 0q0 2 -3 6q6 3 16 9q7 6 25 30.5t18 32.5v19q-1 0 -2.5 1t-5.5 1q-3 0 -11 -4.5t-11 -5.5q-3 3 -3 7q0 3 6 9.5t6 9.5q0 7 -40 40q-1 0 -6 -4v-79q-4 -8 -12 -8q-1 5 -2 15t-2 15
q-53 -48 -83 -80q4 -4 7 -4q2 0 6 1t8 1q-4 0 24 -3q1 -3 5 -9q32 37 53 56q2 -1 7 -4q-13 -23 -13 -31q0 -21 19 -65q22 -51 44 -46q2 -4 8 -9q13 -11 24 -11q30 0 30 72l-13 629q-2 12 -9 35q-9 18 -47 52q-6 6 -21 7q-2 -1 -2 5q0 4 19 23.5t32 30.5q5 3 15 3
q16 0 45 -25q52 -43 64 -67q8 -16 8 -64l3 -338l4 -4q14 11 40 33zM600 -68q-3 -3 -9 -8q-4 -1 -28 -1h-12h-14q-3 3 -6 7q12 8 19 8h31h13zM289 491q0 -7 0 103q-50 -28 -50 -50q0 -14 19.5 -33t30.5 -20zM330 447h-20v-12h9zM323 305v12q-5 2 -13 3q-1 -12 3 -23q2 1 10 8
zM295 282v47q0 4 -16.5 19t-16.5 29q0 15 15 26.5t15 25.5q0 21 -20 21q-10 0 -61 -40.5t-51 -52.5q0 -20 45 -42l60 -26q14 -10 22 -10q4 0 5.5 1.5t2.5 1.5zM346 189q0 8 -14 16.5t-18 7.5q-1 0 -1 -58q5 1 19 14.5t14 19.5zM297 166q-1 8 -3 54q-13 16 -26 16
q-6 0 -24.5 -15t-22.5 -22q38 -9 38 -34q0 -4 -7.5 -30.5t-7.5 -29.5q0 -9 18.5 -21.5t26.5 -12.5h8q0 -13 0 95z" />
    <glyph glyph-name="K" unicode="K" horiz-adv-x="914" 
d="M414 422q0 -5 -20 -19t-27 -16l-3 11q28 23 41 31q9 0 9 -7zM936 -59q-7 -14 -29 -14q-2 0 -21.5 1t-23.5 1q-3 0 -13 -6.5t-13 -6.5q-1 0 -12 10q-14 0 -49 2q-30 1 -33 1l-406 -5q-37 0 -37 -4q0 -1 1.5 -5.5t1.5 -8.5q0 -9 -6 -20q-6 15 -8 34q-10 4 -94 4
q-88 0 -98 -1q-16 -2 -46 -16q0 3 5 11q-7 5 -26 5q-22 0 -29 2q2 12 9 12h62q-4 0 19 16t59 16q3 0 18 -1t19 -1q20 0 46 21.5t26 38.5q0 9 -27.5 23.5t-27.5 34.5q0 3 7.5 28.5t7.5 28.5q0 14 -13 22.5t-27 8.5q-3 0 -13 -2.5t-14 -2.5q10 13 42.5 36.5t44.5 37.5
q-5 7 -63 38q-50 26 -50 53q0 20 56 68q32 27 65 54q-12 12 -23 25q-15 18 -15 39q0 24 14 37l46 40l-46 44q-39 37 -49 37l-80 -36q3 8 45.5 36t60.5 28q23 0 44 -24q28 -31 44 -39q2 2 2 69q-1 11 9 16q-1 4 -1 -55q0 -42 12 -42q3 0 14 6.5t14 7.5h12q-9 -9 -48 -41v-97
q1 -2 4 -7q14 7 45 32q28 22 46 29q-12 -19 -38 -39q-37 -28 -49 -41q5 -6 17 -6q22 0 83 25q-3 -7 -56 -51q-49 -41 -49 -53q0 -17 26 -34t26 -39q0 -3 -25 -25t-25 -25q0 -5 30 -22.5t30 -41.5q0 -13 -21 -39t-21 -32q0 -3 20 -29q25 -32 31 -41q11 6 31 18v-12
q0 -4 -27.5 -24.5t-27.5 -27.5q0 -27 47 -47q35 -15 58 -15q18 0 55.5 29t58.5 29q22 0 68 -26.5t62 -26.5q31 0 66 49q-61 41 -61 76v67q0 38 -29 65q-22 20 -77 47q-2 -1 -2 -6q0 -8 39 -36t39 -42q0 -20 -26.5 -41t-44.5 -21t-37 26.5t-25 26.5q-11 0 -25 -14v-93
q0 -26 -38 -50q-30 -16 -59 -31l2 523q-2 28 -26.5 60t-51.5 40v11q16 18 32.5 36t28.5 18q14 0 42.5 -24t30.5 -24q3 0 15.5 10.5t20.5 14.5q2 -8 -12.5 -19.5t-14.5 -16.5q30 -42 30 -65v-198q1 -3 4 -7q9 10 66 101q-1 2 -11 2t-18 8t-8 16q0 -10 7 29q7 0 -25 -7
q21 30 92 69q-1 -7 -19 -27q0 -19 -7.5 -37.5t-7.5 -19.5v-9q4 -5 6 -5t76 103t102 103q16 0 45 -11q37 -15 37 -34q0 -16 -31 -78q-33 30 -74 30q-25 0 -60 -42q-25 -30 -44 -64q39 3 39 -31q0 -10 -4 -32q-3 -18 -2 -25q4 -4 8 -4q3 0 19.5 9t22.5 11q-2 -10 -23 -26
q-29 -22 -37 -30q7 -6 59 -33q40 -21 56 -52q5 -11 7 -53q1 -32 3 -63q2 -23 37 -55.5t56 -32.5q-7 -12 -30 -35q-28 -27 -41 -27q1 0 -30 8q-1 -2 -1 -6q0 -17 29 -32q24 -12 35 -12q10 0 23 8.5t28 10.5q-2 -3 -10 -12.5t-10 -12.5q12 -8 28 -6q21 2 27 1zM660 363
q-17 6 -17 34q0 -1 3 30q2 18 -4 24h-14q-47 -63 -55 -87q7 2 18 2q3 0 29 -7.5t29 -7.5q12 0 11 12zM648 164q-25 18 -49 37q-37 29 -37 46q0 8 18 30q-32 16 -44 16q-21 0 -21 -59q0 -14 5 -49q6 3 28 18q18 12 20 12q49 -65 57 -65q10 0 23 14zM288 490v97
q-47 -19 -47 -47q0 -7 11 -28q15 -26 29 -26q4 0 7 4zM321 441h-14l-3 -9q17 4 17 9zM773 -55q-9 12 -24 27q-13 -10 -31 -27h55zM319 309q-10 10 -15 9q0 -13 2 -20q3 2 13 11zM289 426q0 20 -21 20q-8 0 -58 -38.5t-50 -52.5q0 -20 52 -43q37 -15 73 -30l4 38
q-5 14 -19 28q-12 10 -12 24q0 16 15.5 29.5t15.5 24.5zM635 -58q-5 5 -39 25q-37 22 -48 22q-25 0 -69 -47h156zM334 189q0 21 -30 23v-54q30 14 30 31zM288 211q5 7 -7.5 15.5t-19.5 8.5q-6 0 -23.5 -14t-19.5 -17q11 -7 23 -15t12 -21q0 -4 -8.5 -31.5t-8.5 -30.5
q0 -8 21.5 -19.5t27.5 -10.5zM341 45q0 18 -37 42q-5 -23 -5 -32q0 -16 5 -43q6 0 21.5 12t15.5 21zM371 -57q-8 6 -30 29q-19 20 -22 20q-18 0 -18 -23q0 -10 6 -30q61 0 64 4zM289 2q0 3 -2 8t-2 7q-40 -37 -77 -77h40q28 -1 40 -1v25q-9 -4 -25 -9q0 13 13 26t13 21z" />
    <glyph glyph-name="L" unicode="L" horiz-adv-x="788" 
d="M750 97q-37 -70 -51.5 -81.5t-65.5 -11.5l-117 5q-4 -4 -4 -5q0 -24 39 -38q30 -12 60 -12q9 0 27 9q25 11 32 14q0 -8 -11.5 -19t-11.5 -14q5 -2 38 -3q17 -1 25 -5q-7 -10 -16 -9h-72q-11 -13 -22 -13q-3 0 -8.5 6.5t-8.5 6.5h-268q-14 0 -17 -11q-3 -19 -6 -22
q-3 10 -10 30h-194q-8 0 -17 -6q-14 -9 -20 -12q-2 2 -1 13q-30 6 -50 6q4 8 21 9q13 0 26 -1q11 1 21 4q1 0 25 18q20 14 42 14q3 0 17 -1t17 -1q20 0 49 14q38 18 38 43q0 12 -29 28.5t-29 33.5q0 3 9 28.5t9 29.5q0 13 -17 22q-13 7 -25 7q-1 0 -11.5 -2.5t-14.5 -2.5
q5 5 90 76q-34 18 -68 35q-47 26 -47 52q0 24 44 61q38 30 76 61q-13 16 -26.5 32.5t-13.5 34.5q0 21 19.5 39.5t40.5 36.5q-32 27 -66 64q-16 17 -30 17q-3 0 -34 -17.5t-32 -16.5h-13q24 21 56 40q39 22 62 22q7 0 36 -27q31 -30 40 -35q3 2 2 7q-2 20 0 66q0 5 6 11
q4 -12 3 -39q0 -34 1 -42q1 -13 6 -16q19 8 44 27q17 13 34 13q24 0 27 -36.5t15 -36.5q13 0 43 27h16l-175 -144q3 -4 15 -4q22 0 95 30q-2 -2 -61 -54q-54 -47 -54 -57q0 -15 26 -34t26 -33q0 -11 -22 -29q-25 -20 -28 -27q4 -9 22.5 -17t26.5 -18q12 -14 12 -38l1 -1h0.5
h2.5q4 0 22.5 9.5t22.5 9.5q-4 -8 -45 -35q-45 -30 -65 -52q-1 -15 -5 -49q3 -2 0 -63q1 -5 2 -11.5t7 -6.5q29 -1 82 -19.5t63 -18.5q17 0 28 11q13 16 27 32q-102 10 -124 10q-25 0 -44 -3l-12 3q12 48 51 76t43 38l-2 275q-5 5 -7 5t-19 -13.5t-27 -16.5q8 24 52 49
q0 10 2 37q2 24 2 38q-1 20 82.5 92t112.5 72q22 0 49 -15q31 -17 31 -38q0 -11 -22 -39q-19 -23 -30 -31q-3 20 -39 38q-32 17 -54 17q-46 0 -46 -57l16 -245q26 10 55.5 31.5t29.5 28.5q0 4 -8.5 12.5t-12.5 8.5q-3 0 -9 -1t-10 -1q2 9 22 29q-4 13 -13 15t-9 20
q0 14 18 37.5t35 33.5q-2 -5 -14 -28q-9 -18 -9 -22q0 -9 8.5 -17t15.5 -8q-5 0 18 7q-1 -9 -11.5 -19.5t-10.5 -14.5q0 -1 9 -12.5t9 -24.5q0 -18 -20.5 -32.5t-20.5 -26.5q0 -3 13 -26q15 -30 19 -39q-2 0 18 5q-1 -12 -23 -30q-25 -20 -29 -26q4 -5 10 -3q20 0 39 -16
t19 -37q0 -11 -5 -18q-8 -10 -16 -21q-6 3 -6.5 13.5t-3.5 14.5q-28 38 -56 38q-2 0 -15.5 -2.5t-20.5 -2.5q-1 11 28 34.5t29 29.5q0 2 -36 69q-13 -7 -39 -20q1 -123 -8 -143q-14 -14 -27 -29zM394 573q-24 8 -25 26q-3 40 -6 49q-14 -3 -40.5 -22.5t-26.5 -25.5v-98
q3 0 6 -3q54 39 92 74zM286 566q0 13 -6 23q-44 -32 -44 -47q0 -9 12 -30q14 -26 30 -26q8 0 8 80zM318 444h-14q-5 -6 -5 -10q3 -3 9 -3q11 4 10 13zM314 304q0 4 -5.5 9t-9.5 5l3 -20q6 0 12 6zM286 286v24q0 21 -16.5 35t-16.5 28q0 12 15.5 27t15.5 27q0 19 -18 19
q-7 0 -58 -37q-53 -40 -53 -53q0 -16 54 -45q50 -28 67 -28q6 0 10 3zM331 190q0 9 -12 17.5t-18 7.5l-2 -57q10 1 21 12.5t11 19.5zM502 -58q-9 15 -16 15q-8 0 -17 -12q2 -1 5 -3t4 -3q9 3 24 3zM286 142q0 96 -29 96q-10 0 -44 -34q35 -15 35 -34q0 -5 -7.5 -33t-7.5 -30
q0 -5 17.5 -18.5t24.5 -13.5h10q1 -5 1 67zM376 -57q-48 24 -61 23h-16q0 -10 1 -17.5t1 -6.5q-5 1 75 1zM283 -7l-3 24q-26 -25 -74 -78h21q5 0 56 54zM286 -55v16h-12q-13 -6 -18 -19q2 0 7.5 -1.5t8.5 -1.5q9 0 14 6z" />
    <glyph glyph-name="M" unicode="M" horiz-adv-x="1260" 
d="M1228 61q-5 -12 -10 -15q-26 -18 -51 -36q-5 -3 -12 -3q-48 0 -84 65q-29 53 -29 91l10 279q0 31 -42 90q-46 65 -85 65q-9 0 -19 -8q-51 -40 -59 -69q-4 -10 -9 -32q1 -4 7 -4q3 0 27.5 11.5t27.5 11.5q14 0 26 -9q5 -4 15.5 -18t13.5 -14q-1 0 45 30q0 1 14 4l3 -10
q-1 -1 -51 -36q-4 -4 -4 -9q0 -11 14.5 -32.5t25.5 -21.5q2 0 10 1t12 1q-1 -8 -19 -19.5t-21 -23.5q9 -6 18 -11q14 -11 19 -22q1 -2 1 -9q0 -3 -12.5 -37.5t-12.5 -37.5t13.5 -27.5t13.5 -29.5q0 -11 -8 -23q-6 -8 -39.5 -27.5t-39.5 -14.5q3 7 22 20.5t24.5 20.5t5.5 11
q0 3 -11 20t-11 31t15 41.5t15 37.5q0 15 -55 28q-11 0 -31 -17q13 -10 32 -32q6 -10 6 -27q0 -14 -6 -22q-39 -51 -98 -67q3 10 23 25q16 11 31 22q4 5 14 17q1 2 1 9q0 13 -13.5 32.5t-24.5 19.5q-3 0 -9 -1t-9 -1q2 11 25 27q17 11 33 21q0 7 -15.5 15t-20.5 17
q-1 1 -6 15q-4 9 -7 9q-31 0 -31 -35q0 -7 1.5 -17.5t1.5 -13.5v-171q0 -21 -4 -78q-1 -26 -41 -47q-28 -13 -55 -27l-6 413q-1 22 -6 63q-7 33 -27 54q-13 15 -42 42q-37 28 -50 28q-7 0 -13 -4q-32 -25 -55 -63q-6 -11 -10 -31l6 -7q19 17 40 24q3 1 13 1t13 -1
q13 -4 21 -18q5 -8 10 -17q3 -4 8 -4q4 0 21 11q21 14 33 19v-12q-47 -38 -47 -39q0 -12 14 -33t26 -21q-5 0 24 7q2 -6 -17 -23l-30 -24q2 -4 21 -18.5t19 -28.5q0 -5 -2 -10l18 -2q3 -8 -1 -12q-18 -12 -29 -24q-3 -12 -3 -9q0 -9 14 -28.5t14 -35.5q0 -5 -1 -8
q-7 -21 -21 -32q-9 -7 -19 -14.5t-27 -11.5q4 12 15 21q15 14 19 18q3 9 3 10q0 3 -12 24q-13 25 -18 36q-16 -5 -57 -34q-43 -32 -63 -39q-3 -77 -12 -105q-21 -63 -91 -79v518q0 24 -23 58q-26 37 -55 42q33 62 59 62q8 0 21 -6q5 -3 22 -16q14 -10 17 -10q-2 0 27 19
q8 2 12 1q-3 -12 -27 -29q24 -36 41 -67q31 39 105 112q11 9 27 9q11 0 32 -9q44 -18 72 -45q51 -50 63 -77q36 38 107 109q11 10 26 16t29 6q64 0 121 -75q52 -68 52 -126l-13 -288q0 -27 3 -37q6 -18 32 -47q28 -32 46 -36zM1198 -62q-13 -11 -46.5 -10.5t-50.5 -15.5
l-11 11q-35 4 -28 4l-749 -5q-7 -8 -7 -30q-5 -5 -9 -5q-2 11 -4 23t-19 12l-187 -3q-10 -5 -34 -15q0 6 2 9q-6 8 -26 8q-23 -1 -29 2q12 11 30 11q3 0 10 -1t10 -1q20 0 45 16l25 16h82q12 0 37 24t25 34t-29 24t-29 37q0 3 7.5 29.5t7.5 28.5q0 12 -20 20q-14 7 -23 7
q-3 0 -12.5 -2.5t-14.5 -2.5q30 24 90 76q-31 16 -61 32q-54 32 -54 55q0 24 42 59q72 58 78 65q-13 14 -26.5 30t-13.5 35q0 20 17 38q4 4 43 38q-24 22 -48 45q-38 36 -47 36q-3 0 -33 -14q-36 -18 -47 -22q0 10 44 35.5t62 25.5q22 0 36 -14q37 -35 52 -46q1 1 1 67
q0 10 9 13q4 -3 4 -79q-1 -3 4 -14h9q2 0 20.5 13t26.5 12q-5 -9 -30 -27.5t-28 -28.5l2 -97l90 63q5 0 9 -3q-6 -12 -43 -38q-39 -29 -50 -45q2 -2 12 -2q39 0 100 33q-6 -10 -65 -59q-52 -43 -52 -56t26.5 -32.5t26.5 -35.5q0 -9 -22 -28q-14 -12 -29 -24q0 -2 31.5 -23
t31.5 -45q0 -7 -21.5 -35.5t-21.5 -30.5q0 -3 22 -29q25 -31 33 -44q5 2 20 11t20 11q-3 -8 -33.5 -35t-30.5 -32q0 -26 44 -45q35 -15 57 -15q18 0 22 3q28 20 75 51q7 3 17 3q12 0 25 -6q21 -10 58 -31q32 -18 44 -18q5 0 36 13q1 -9 -8 -17q-10 -11 -12 -14q3 -2 13 -2
q11 0 13 2q18 20 58 57q17 14 31 14q7 0 40 -15q76 -33 84 -33q11 0 26 11q10 9 30 26q9 3 11 3q0 -7 4 -20q9 -14 29 -19q36 -11 46 -11q21 0 33 3q1 1 17 9q13 7 20 6q-7 -8 -18 -26q4 -1 46 -8zM427 400q-14 -13 -47 -34q-3 3 -6 3q0 19 50 37q0 -2 3 -6zM969 367
q-16 6 -27 26q-14 24 -19 28q-7 -4 -18 -13q-4 -13 -4 -11q0 -8 23 -22t35 -14q4 0 10 6zM916 439q-4 27 -25 41l-10 4q-7 0 -39 -16q-2 -3 -6 -7v-67q6 -5 9 -5q38 25 71 50zM650 369q-15 22 -41 57q-14 -2 -29 -26q5 -5 6 -8q42 -23 46 -23h18zM603 445q-12 28 -23 41
q-3 3 -10 3q-4 0 -43 -23v-146q0 -11 6 -32q2 2 38 23q23 14 26 26q-12 8 -26 17t-18 21q-1 2 -1 10q0 7 1 9q10 18 50 51zM1007 -58q-12 17 -17 17q-3 0 -11.5 -7t-9.5 -7zM678 300q-46 26 -57 26q-3 0 -15 -8t-13 -9v-5q14 -6 26 -28t12 -30q53 29 47 54zM289 576
q-4 4 -10 8q-41 -33 -41 -50q0 -16 17 -33t30 -18zM595 233q0 12 -12 28.5t-29 16.5q-9 0 -24 -6q-1 -76 4 -97q20 13 55 39q6 5 6 19zM894 -57q-21 11 -59 30q-12 6 -23 6q-5 0 -8 -1q-25 -18 -38 -36q29 -5 40 -5l35.5 3t52.5 3zM324 438h-17l-3 -12q17 6 20 12zM319 307
q-2 2 -6.5 4.5t-5.5 4.5l-3 -23q15 5 15 14zM291 294q0 25 -17.5 47t-17.5 29q0 6 16.5 23t16.5 28q0 23 -22 23q-8 0 -58.5 -43.5t-50.5 -52.5q0 -14 59 -44q54 -28 65 -28q9 0 9 18zM635 -60q-23 15 -66 41q-10 6 -19 6q-8 0 -25 -11q-34 -24 -40 -39q23 1 37 -2
q-4 -4 -4 -8q19 10 57 11zM336 185q0 8 -9.5 17t-19.5 8v-57q7 1 18 13.5t11 18.5zM291 199q3 6 -6 20t-23 14q-3 0 -22 -15t-21 -22q35 -12 35 -35q0 -3 -8 -29.5t-8 -29.5q0 -10 23 -21q16 -7 27 -10zM346 40q0 8 -14.5 25t-24.5 20q-4 -20 -2 -43q2 -19 4 -37
q12 3 24.5 14.5t12.5 20.5zM376 -62q-19 18 -53 54q-7 -7 -14 -11l1 -43h66zM294 -60l-3 21q-4 0 -11 -3.5t-11 -2.5q-2 11 5 16q14 9 17 14l-3 29l-76 -78h54q20 1 28 4z" />
    <glyph glyph-name="N" unicode="N" horiz-adv-x="933" 
d="M905 66q0 -4 -6 -8q-18 -12 -35.5 -26.5t-29.5 -14.5q-9 0 -20 5q-26 13 -53 40q-31 30 -38 55q-7 22 -7 53l2 22.5t3 36.5q5 169 5 202v5q-1 4 -1 5q2 37 -19 75q-13 23 -49 57q-42 39 -63 39q-17 0 -45.5 -28.5t-33.5 -42.5q-7 -18 -11 -33q-1 -2 -3 -4q0 -6 -1 -19
v-13q0 -24 6 -68q1 -1 3 -5q15 17 32 31q33 25 33 30q0 2 -5 9q-8 12 -26 28q-5 1 -7 1q-1 0 -9.5 -3t-10.5 -3q-6 0 -6 7q0 14 33 23h10l4 1q16 0 33 -17.5t19 -17.5q1 0 27.5 21t30.5 21q5 0 5 -7t-26.5 -27t-26.5 -27q0 -9 12 -24q18 -23 27 -26q3 -1 7 -1q21 0 17 1
l2 -5q0 -8 -17 -19q-6 -6 -19 -18q10 -6 27 -15q17 -15 17 -31q0 -7 -10 -38t-10 -35q0 -10 15.5 -27t15.5 -32q0 -12 -5 -18q0 -1 -27 -25q-16 -14 -29 -18h-5q-1 2 -1 4q0 5 17 18.5t17 25.5q0 5 -9 16q-12 14 -15.5 20.5t-3.5 12.5q0 14 13.5 43t13.5 36t-8 11
q-2 1 -24 8.5t-27 7.5q-4 0 -5 -1q-22 -16 -22 -20q0 -1 12 -9t19 -19q9 -16 9 -29q0 -27 -30 -52q-21 -18 -66 -49q-5 4 -5 9q0 3 29.5 27.5l29.5 24.5q9 10 9 21q0 12 -15 30.5t-28 18.5l-14 -3q-3 3 -3 6q0 6 26.5 26.5t26.5 25.5q0 2 -14 10q-6 2 -18 11t-15 25l-2 2
q-2 0 -8 -3t-8 -3q-1 0 -9 4q-2 -2 -3 -4q0 -14 1 -42q0 -32 0 -28v-242q0 -10 -3 -22q-2 -7 -13 -20q-80 -49 -89 -49q-6 0 -6 5q0 1 5 13q3 7 2 21q0 3 1 11.5t1 12.5v112q0 6 1.5 21t1.5 16v151q0 21 -5 58q-1 1 -3 1q-1 0 -19.5 -12.5t-20.5 -12.5h-4q-1 1 -2 1v8
q0 3 14 15t18.5 13.5l16.5 5.5q-2 32 0 33l-3 30v4q4 49 -53 105q-5 5 -12 5h-11q-3 2 -3 6q0 6 21 29q16 18 22 24q14 12 25 12q13 0 39.5 -20.5t27.5 -20.5t29 23q3 4 10 10q1 0 4 1h4l1 -2t1 -4q0 -6 -19.5 -23t-19.5 -18q0 3 9 -12.5t23 -44.5q3 -1 6 2q68 75 119 107
q14 8 30 8q30 0 70 -30q107 -78 112 -146l-11 -316v-23q3 -25 29 -55.5t50 -40.5q2 -2 2 -4zM909 -56q-3 -4 -5 -4.5t-7 -2t-6 -1.5h-43q-1 0 -10 -5.5t-11 -5.5q-5 0 -6.5 4t-4.5 6q-13 1 -11 1l-499 -6q-11 -2 -11 -14q0 -17 -6 -25h-5q-6 5 -4 17q1 14 0 16q-3 6 -21 6
l-164 5q-15 0 -25 -9t-15 -9q1 0 -4 2q0 -1 1 8v7h-46q1 0 -6 3v7q6 6 12 6h43q20 0 34.5 13.5t42.5 13.5q2 0 22 -1t21 -1q7 0 25 4q12 3 32.5 23.5t20.5 30.5q0 9 -30 25q-7 4 -19 13q-5 7 -5 21q0 11 7.5 32t7.5 28q0 12 -18 19q-12 6 -21 6t-22 -6h-5q-2 2 -2 6
q0 7 25 25q24 15 63 49q-1 2 -4 4l-70 34q-42 23 -42 53q0 2 2 6q-3 16 26 41l50 40q37 29 37 34q0 2 -11 12t-12 11q-11 15 -16 28q-2 6 -2 18q0 25 29 47.5t29 26.5q0 3 -2 4q-17 8 -30.5 22.5t-27.5 29.5q-24 25 -36 25q-9 0 -41 -19t-35 -19h-5q-2 2 -2 5t66 45
q14 9 24 13q7 3 22 3q20 0 58 -37q26 -26 28 -25l2 2q0 25 1 73l5 10h4q1 -2 3 -5q1 -37 1 -87q0 2 3 -7q8 0 21.5 9l13.5 9h9q1 0 1 -3q0 -4 -16 -17q-10 -7 -19 -14q-4 -4 -10 -11q-1 -5 -1 -14q0 5 4 -85q1 -2 5 -2t35.5 25.5t35.5 25.5q1 0 9 -4q0 -2 -3 -7
q-26 -20 -74 -61q3 -5 8 -4q6 0 46 5q3 2 11 4q24 6 22 6q3 0 7 -2v-7q0 -2 -27 -24q-14 -9 -40 -29q-10 -8 -28 -25q-1 -2 -1 -9q0 -13 2 -17q15 -10 30 -21q23 -17 23 -30q0 -15 -24.5 -35.5t-24.5 -22.5q0 -8 29 -18q30 -22 30 -44q0 -17 -20.5 -40.5t-20.5 -32.5
q0 -7 12.5 -20t13.5 -13q3 -4 8 -12t15 -25h3q2 0 16 11h6q3 -3 3 -6q0 -6 -25.5 -26t-25.5 -26q0 -17 24 -34q38 -27 76 -27q17 0 55 28q17 13 49 30q7 2 19 2q11 0 61 -27t59 -27q19 0 51 28t38 28q8 0 8 -8q0 -2 -4 -7.5t-4 -6.5q0 -17 29 -31q24 -12 36 -12
q11 0 24.5 9.5t14.5 9.5q5 0 9 -5q-1 -2 -19 -20q0 -3 2 -4q13 -1 34 -2v-7zM634 391q-20 9 -43 43q-3 4 -7 4q-5 0 -11.5 -8t-6.5 -14q0 -11 8 -16q41 -16 49 -16q9 0 11 7zM275 499v96h-8q-41 -23 -41 -44q0 -30 31 -48q12 -7 13 -7q3 0 5 3zM309 449q-1 0 -3 1h-4
q3 0 -6 -5q0 -1 1 -2.5t1 -2.5q2 0 6.5 3.5t4.5 5.5zM767 -46q-12 11 -22 25q-21 -6 -36 -27q10 -1 38 -1q8 0 20 3zM312 315q0 8 -10 11q-6 -11 0 -21h3q7 6 7 10zM284 297q0 10 -4 45q-8 4 -19.5 14.5t-11.5 25.5q0 12 14.5 26t14.5 23q0 22 -19 22q-9 0 -25 -13
q-11 -9 -21 -18q-16 -11 -28 -21q-32 -29 -32 -40q0 -16 41 -36q21 -9 43 -19q28 -17 40 -17q7 0 7 8zM628 -48q-5 6 -15 11q-14 7 -15 7q-40 27 -54 27q-12 0 -31 -14.5t-38 -28.5v-5h149q1 0 4 3zM331 196q0 8 -11 16.5t-17 7.5q-5 -4 -5 -41q0 -9 3 -15h4q26 19 26 32z
M284 195q0 6 -2 30q0 7 -8 11.5t-15 4.5q-6 0 -23 -12.5t-21 -18.5q35 -11 35 -40q0 -3 -8 -26.5t-8 -30.5t3 -10t14 -8q28 -14 24 -14h4l2 4q1 46 1 77q0 6 1 19t1 14zM336 48q0 8 -13 24t-22 20q-5 -11 -5 -28v-7q1 -5 1 -7q-1 -11 3 -34h4q32 33 32 32zM362 -52
q0 1 -18 16q-3 3 -16 15q-3 5 -7 10q-7 10 -10 10q-15 0 -15 -39q0 -15 10 -15q18 0 56 3zM282 9q0 1 -1 6.5t-1 7.5h-4l-72 -73q0 -2 1 -4q28 -1 74 3q0 2 1 6v6q0 9 -4 10q-19 -12 -21 -11q-4 4 -4 7q0 5 15.5 18t15.5 24z" />
    <glyph glyph-name="O" unicode="O" horiz-adv-x="976" 
d="M402 421q0 -5 -16.5 -17t-18.5 -12h-6q0 1 -1 2.5t-1 3.5q0 4 16.5 16.5t19.5 12.5q7 0 7 -6zM910 326q0 -14 -9 -71q-5 -31 -11 -51t-13.5 -35t-25.5 -31q-56 -50 -137 -112q-3 -3 -35 -20v-5q0 -1 4 -6q12 -16 27 -21q27 -8 39 -10q21 -3 42 -3q20 0 30 4q25 11 20 11
h9q3 -3 3 -5q0 2 -2 -2.5t-11 -10.5q0 -1 -2 -3v-1q2 -2 6.5 -2t18.5 -2l1 -6q0 -5 -23 -8q-1 0 -5 1h-5q-13 0 -17 -1.5t-12.5 -7.5t-10.5 -6q-3 0 -6 3q0 1 1 4v5q-1 0 -3 2q-44 0 -120 -1q-208 -4 -316 -4q-32 0 -36 -6q2 -12 -4 -32h-7q-1 10 -4 31q0 2 -4 4t-20 2
l-184 -2q-1 0 -14 -8t-15 -8q2 0 -6 2q-1 4 4 10q-1 2 -2 3q-17 1 -20 1h-11q-10 -1 -11 -1q-7 0 -13 4v4q0 5 7 6q4 0 39 -1q23 -1 35 5q8 8 28 23q10 7 33 7l39 -1q22 0 33 4t27 19q10 9 25 28q1 2 1 6v5q-3 4 -15 13q-10 5 -20 11q-16 9 -21 20q-2 3 -2 12t7.5 30.5
t7.5 30.5q0 12 -18 19q-13 6 -24 6l-10 -2q-1 0 -4 -2t-5 -2h-5q-3 3 -3 4q0 5 45.5 37.5t45.5 38.5q0 2 -3.5 3.5t-31.5 14.5q-51 23 -73 46l-3 3q-4 11 -4 21q0 25 41 58q5 5 15 12q22 17 66 52v2q-25 26 -26 27q-9 12 -14 26v13v12q2 6 5 12q6 12 28 29t29 25
q-7 4 -19 11.5t-26 23.5q-9 10 -26 29q-9 9 -17 12.5t-14 3.5t-27 -11q-17 -10 -51 -28q-4 5 -4 4q0 8 58 39q11 7 32 18q8 5 24 5q18 0 35 -15q4 -3 29 -30q6 -6 18 -17h3q4 0 5 8q1 5 0 14q-1 11 -1 10v45l4 9h5q2 -5 3 -15q-1 -20 -1 -60q-1 -10 5 -23q6 -2 4 -2
q5 0 19 11t27 21t29 10q6 0 9 -1q13 -2 19 -19q2 -7 2 -19q0 -25 8 -33q15 -2 37 17q14 12 34 23l11 -1q-13 -20 -88 -76q-49 -37 -99 -74q-5 -4 -8 -9q1 -2 3 -3q15 -2 11 -2q13 0 28 3q10 2 33 10.5t20 8.5q2 0 3 -1l1 -1v-7q0 1 -18 -14q-28 -20 -82 -68q-2 -1 -2 -12
q0 -10 2 -12q21 -14 48 -42q3 -7 3 -14q0 -6 -3.5 -11t-14.5 -14t-31 -26q-3 -2 -3 -6q0 -3 4 -5q9 -6 29 -17q4 -2 13 -7q9 -8 12.5 -17.5t3.5 -14.5q0 -15 -20.5 -40t-20.5 -32t5 -14q18 -23 47 -43q3 -4 9.5 -7.5t4.5 -3.5q1 0 23.5 16.5t24.5 16.5q3 0 4 -2l1 -5
q0 -2 -23 -22q-9 -5 -21 -18q2 -7 2 -13q0 -12 -26 -64v-4q1 -1 3 -1q-3 0 43 26q24 14 38 18t28 4q16 0 30 -7q19 -9 58 -35q6 -5 19 -13q8 -4 14 -4q2 0 7 2q14 4 39 30q-5 5 -17 6q-17 1 -19 1q-7 2 -19 6q-35 11 -65 27q-14 11 -42 30q-54 32 -75 80q-14 33 -20 87
q-2 17 -4 50l-1 50q0 11 1 37q0 1 8 56q7 52 23 87q9 22 65 65l60 50q37 31 64 42q12 6 33 6q17 0 27 -3q26 -8 56 -21q55 -24 98 -59.5t58 -104.5l6 -24q1 -6 6 -44q4 -28 4 -42v-58zM677 414q-10 3 -23 7q-19 10 -24 30q-2 7 -8 7q-3 0 -26 -17.5t-23 -22.5q0 1 2.5 -3.5
t8 -6.5t14.5 -4q30 -6 52 -6q8 0 9 1q9 4 18 15zM717 554q-42 34 -101 54q-16 6 -31 6q-6 0 -14 -4q-48 -21 -65 -53q-6 -11 -8 -19q-3 -16 -5 -34q-4 -56 -4 -50v-74l9 -85q0 -10 8 -57q6 -39 30 -56h5q3 6 22 21q24 18 54 52q3 7 3 16q0 11 -10.5 25t-21.5 14
q-12 0 -17.5 -1t-12.5 -5t-8 -4q1 0 -5 1v8q1 3 33 27q12 8 25 23q-13 4 -34 10t-27 19q-3 7 -3 13q0 16 38.5 44t38.5 34q0 9 -9 26q-4 9 -12 23q-3 2 -8 6q-2 1 -5 1q-6 0 -37 -23q-37 -27 -42 -27t-5 5q0 -1 2.5 4t14.5 13q19 15 39 30q25 19 40 24h7q9 0 13 -2
q14 -6 30 -40q6 -12 10 -12q7 0 22 12t41 35zM819 280q0 52 -3 90q-6 61 -21 102q-8 22 -27 42q-10 11 -29 26q-7 6 -9 6t-22 -16q-23 -20 -30.5 -25.5t-12 -9.5t-4.5 -8q0 -5 3 -9l11 -22t15 -17q3 -1 12 -1h8q6 4 15 8h4q2 -2 2 -4l-2.5 -4t-23.5 -21t-21 -22
q16 -5 33.5 -11.5t25.5 -21.5q3 -5 3 -13q0 -1 -5.5 -24t-5.5 -25q0 -10 12 -28.5t12 -27.5q0 -16 -11 -26q-29 -30 -55 -49q-7 -5 -12 -6h-6q-16 0 -28.5 12.5t-12.5 28.5q0 8 5 15q9 11 31 30q3 3 7 3t5 -3q-14 -23 -14 -27q0 -7 9 -17.5t19 -10.5q6 0 18.5 12t12.5 19
q0 3 -12 22t-12 31q0 8 9 31l9 23q0 -5 -3 7q-1 1 -5 4q-69 14 -80 14l-5 -2q-16 -9 -21 -18q9 -1 25 -6q11 -5 23 -27q3 -5 3 -15q0 -5 -2 -11t-13 -22q-12 -19 -44 -43q-27 -21 -53 -41q9 -11 54 -40q1 -1 3.5 -3t44.5 -25q6 -3 23 -10q14 -6 41 -15q8 -2 11 -2q9 0 17 3
q12 4 28 17q29 23 33 32q6 16 10 46q2 14 5 41q3 75 3 64zM404 582q0 1 -4 4q-14 2 -17 21t-4 45q0 7 -7 7q-5 0 -14 -5q-12 -8 -32 -23.5t-20 -20.5q0 4 1 -10v-43q0 -31 2 -46q1 -1 3 -2q3 0 7 2q25 20 71 56q14 11 14 15zM296 509v77q0 -5 -2 9q0 1 -3 4q-6 -3 -15 -8
q-2 -3 -5 -6q-22 -10 -25 -26q-2 -8 -2 -11q0 -9 5 -17.5t7 -10.5q13 -14 25 -22q3 -1 8 -1q7 0 7 12zM333 452q-2 0 -4 1t-3 1q-7 0 -15 -5v-7q3 -3 5 -3q12 7 17 13zM325 317q0 10 -9 10q-7 0 -7 -14q0 -5 4 -9h3q9 9 9 13zM668 -47q-1 1 -2 4q-7 6 -9 11q-2 2 -4 2t-8 -3
q-9 -5 -15 -14q1 -1 2.5 -2t4.5 -2h5q14 0 26 4zM296 293v36q0 10 -3 14q-10 7 -24 22q-4 7 -4 17q0 12 15 26.5t15 27.5q0 19 -18 19q-8 0 -15 -4q-11 -8 -32 -25q-8 -6 -20 -16q-24 -18 -37 -31q-3 -4 -8 -10v-5q0 -9 3 -13q6 -9 12 -14q16 -11 44.5 -23t44.5 -20
q11 -5 18 -5q5 0 9 4zM343 196q0 6 -7 14t-23 12q-5 -4 -4 -17q0 3 0 -9v-15q1 -9 1 -15l-1 -2h7q14 11 20.5 18.5t6.5 13.5zM546 -50q-15 12 -60 38q-9 6 -19 8q-2 1 -11 1q-10 0 -11 -1q-18 -8 -52 -28q-1 -1 -3 -4q-9 -1 -23 -16q1 -1 2 -3zM296 133q0 24 -2 94
q-1 2 -2 5q-11 9 -19 11q-1 1 -5 1t-28 -17q-17 -12 -17 -16l17.5 -10t17.5 -26q0 -10 -7.5 -35.5t-7.5 -27.5q0 -9 7 -13q31 -19 40 -19q3 0 5 1q0 -4 1 17q1 17 0 35zM357 45q0 3 -4 7q-15 15 -32 31q-4 3 -8 3q-4 -8 -4 -16v-42v-6q1 -5 1 -6q2 -2 -1 -4h8q9 5 24.5 17
t15.5 16zM377 19q0 12 -8 12q-3 0 -5 -1q-37 -20 -51 -40q-3 -4 -3 -25q0 -20 9 -20q12 0 22 9q1 1 18 26q4 5 10 13q8 13 8 26zM297 -45q0 15 -4 19q-25 -10 -20 -10q-5 -1 -5 5q0 3 14 15t14 13v26q-1 0 -3 1q-35 -28 -73 -68q-6 -6 -6 -11l64 -1q19 3 19 11z" />
    <glyph glyph-name="P" unicode="P" horiz-adv-x="801" 
d="M739 518q0 -17 -3 -30q-2 -6 -5 -18q-3 -17 -39 -53q-10 -9 -29 -26q-25 -23 -71 -64q-6 -4 -17.5 -9.5t-23.5 -5.5q-5 0 -25 3q-9 1 -29.5 5t-21.5 4q-4 0 -8 -2l-1 -1v-13q-1 -8 -1 -10q0 -1 1 -17q1 -25 7 -76q0 -1 2 -3q10 6 33 25q4 3 4 6l-11 11t-11 23q0 9 23 25
q15 10 16 10q5 0 5 -4q0 -1 -6.5 -9t-6.5 -9t2 -3q5 -8 17 -16q4 -2 6 -2t9 3q17 14 46 31q1 0 1 -3q0 -7 -18 -22t-18 -19q0 -1 13 -13t13 -27q0 -7 -3 -12q-17 -29 -44 -49h-4q-2 2 -1 13q-9 15 -26 15q2 0 -21 -6q-4 4 -4 6q0 4 11 13q2 3 9 7q13 8 23 8q8 0 20 -7.5
t10 -7.5h1q4 1 4 5q0 5 -9 12q-23 16 -28 16q-4 0 -38 -25q-7 -5 -10 -5q-8 0 -7 0l-1 -5q0 -7 7 -18q24 -37 49 -51q1 -1 17 -4v-5q0 -2 -41 -50q-8 -9 -18 -9h-4q-17 0 -56 35q-9 7 -23 23q-11 12 -12 12q-9 0 -25 -20q2 -7 2 -14q0 -13 -9.5 -30.5t-18.5 -33.5l2 -2
q19 11 53 27q7 3 20 3q9 0 14 -2t12 -5q15 -9 32.5 -18t30.5 -9q9 0 11 1q7 5 28 21q18 14 19 14h7q2 -5 2 -4l-3 -4t-3 -10q0 -4 1 -6q8 -13 28 -20q5 -1 9 -1q2 0 13.5 6t13.5 6q5 0 5 -4q0 -3 -13 -13v-4q11 0 33 -3v-4q-2 -1 -5 -4q-16 -3 -25 -3h-5q-4 1 -6 1
q-11 0 -15 -2q-21 -7 -15 -7q-1 0 -5.5 4t-10.5 4l-268 -3q-6 0 -15 -1q-2 0 -4.5 -3.5t-2.5 -17.5q0 -5 -6 -10q-5 1 -6 10t-2 17q-2 4 -29 4l-160 -2q-4 0 -11 -6q-11 -8 -12 -9h-6q1 -3 1 12q-3 3 -49 3v7q1 0 5 3q9 3 15 3q1 0 16 -1t16 -1q13 0 19 4q11 11 34 25
q11 2 27 2h22q20 -1 21 -1q18 0 36 18q9 6 26 25q3 8 3 10q0 6 -6 11t-15 8q-2 1 -5 3q-9 3 -24 20q-2 6 -2 11q0 8 7.5 31t7.5 26q0 4 -4 8q-13 15 -35 15q-5 0 -7 -0.5t-6.5 -3t-5.5 -2.5h-4l-2 3q3 8 10 14q19 13 57 41q15 11 15 15q0 3 -4 5q-9 3 -25 11q-22 8 -66 38
q-10 9 -10 19q0 23 7 31q10 12 84 71q20 16 20 18q0 1 -8.5 8t-10.5 9q-5 6 -13 20q-6 11 -6 23q0 8 4 16q6 13 23 28q15 12 30 25q0 2 -2 3q-21 12 -33.5 26.5t-39.5 40.5q-5 4 -14 4q-5 0 -13 -4q-12 -7 -34.5 -19l-22.5 -12h-6q-1 0 -1 3q0 2 1.5 3.5l1.5 1.5
q5 4 18 12.5t39 23.5q12 8 21 11q13 5 23 5q5 0 15 -4q5 -2 22 -17q10 -9 32 -33q3 -3 7 -3t4 2q0 -4 0 27v23q-1 7 4 23q7 0 6 -18v-41v-12q1 -10 2.5 -13t5.5 -3q-1 0 5 1q8 5 21.5 15t16.5 10h6l1 -1v-4q-20 -13 -55 -44q-2 -3 -2 -19v-13q1 -13 1 -14v-47l3 -3
q26 20 79 58q12 8 16 8h5q1 -1 1 -3q0 -4 -14 -15q-2 0 -5 -3q-29 -21 -80 -63v-1q2 -3 13 -3q14 0 26 3q8 1 25 7t18 6h3q3 -1 3 -6q0 -3 -2 -4l-18 -15q-24 -16 -70 -53q-1 -1 -1 -11t2 -12q4 -5 21 -16q11 -7 17 -13q11 -9 11 -20q0 -8 -6 -14t-39 -32q-5 -3 -5 -7
q0 -1 1 -2q4 -4 13 -8q13 -5 23 -12q15 -11 20 -26q2 -6 2 -7q0 -15 -19 -36.5t-19 -30.5q0 -4 2 -7q10 -13 32 -33q8 -6 22 -19q1 -1 4 -1q4 0 8.5 3t18.5 15q-11 28 -12 71q0 39 -1 78l-1 136l-3 1q2 0 -33 -23h-7q-1 1 -1 3q0 6 4 9q26 25 32 25q2 0 2.5 -1t1.5 -1
q3 0 4 3.5t1 22.5v35q0 24 5 46q3 12 22 28q15 13 31 25q-2 5 -7 5q-14 2 -30 2q-7 0 -61 -12q-2 2 -2 5q0 -1 2 5q6 9 17 20l25 28q14 15 30 20q29 8 53 8l70 1q-6 0 64 -6q5 -1 16 -3q28 -5 41 -10t26 -10.5t28 -19.5q21 -19 29 -57q6 -30 6 -48zM660 439q0 21 -4 46
l-6 21q-6 21 -9 28q-8 20 -19 27q-23 13 -76 23q-62 10 -75 10q-4 0 -10 -4.5t-7 -25.5v-21v-28q0 -8 6 -17q9 6 33 25q18 13 52 40q13 10 16 10t5 -3t2 -2q0 -2 -2 -4q-8 -6 -20.5 -15.5t-32.5 -28.5q-2 -5 -2 -17q0 -11 5 -29q2 -7 9 -12q1 -1 4 -1t4 1q17 9 25 15
q4 3 12 9.5t25 19.5q7 4 15 9h4l2 -5l-1 -4q-23 -21 -23 -29q0 -10 8 -16q6 -2 5 -2q1 0 9 4.5t9 4.5q2 0 4 -2v-3q-18 -17 -28 -24q-6 -5 -15 -5q-6 0 -11.5 3t-11.5 17q-2 3 -4 3t-12.5 -6.5t-15.5 -8.5q-9 -4 -17 -4q-7 0 -11 2q-9 3 -16 13.5t-10 29.5l-4 4q1 0 -11 -2
q-1 0 -4 -5v-13l7 -99h7q14 14 39 29q15 0 9 0q2 0 49 -7.5t48 -7.5q6 0 8 1q7 1 18 11t14 16q5 14 5 29zM264 495v91h-7q-3 0 -26 -20q-4 -3 -7 -7q-5 -7 -5 -16q0 -2 1 -9q2 -11 22 -31q9 -10 18 -10q3 0 4 2zM422 337q0 -2 -1 4q-3 0 -5 -4h6zM298 451v3l-6 2
q-5 0 -13 -5v-9l2 -1q9 3 17 10zM293 331q0 3 -4.5 7t-6.5 4q2 0 -4 -1v-6q-1 -5 -1 -6v-7q2 -5 6 -5l2 2q8 9 8 12zM267 308q0 20 -4 48q-10 5 -25 25q-1 4 -1 11q0 11 14.5 24t14.5 22q0 7 -3 15q-11 5 -16 5t-9.5 -3t-20.5 -16q-23 -16 -63 -50q-9 -8 -9 -15q0 -8 5 -13
q13 -14 47 -29q13 -6 38 -18q20 -10 25 -10q3 0 4 1zM549 -1q-1 1 -1 3q-10 10 -11 10t-5 -1q-6 -4 -13 -12q3 -3 4 -3l2 1q21 0 15 0q6 0 9 2zM309 221q0 7 -4 11q-12 14 -19 14h-5q-4 -13 -4 -26v-4.5v-5.5q0 -18 5 -20q8 6 14 12q13 13 13 19zM267 243q-1 5 -4 12
q-6 3 -17 9h-4q-4 0 -8 -2t-24 -17q-5 -3 -11 -11q9 -4 18 -9t14 -14q1 -3 1 -8q0 -10 -6.5 -31t-6.5 -25q0 5 1 -10q33 -22 42 -22q2 0 4 2zM452 -1q-19 13 -40 22q-9 4 -19 4h-7q-14 -4 -22 -9q-11 -6 -26 -19q8 -3 10 -3h60q1 0 10 1t12 1q9 0 22 3zM322 85q0 2 -1 1
q-2 4 -11.5 13.5t-26.5 23.5q-4 -1 -4 -4t-1 -8t-1 -6q0 3 1 -9v-36q0 -6 5 -8q39 23 39 33zM339 57q0 8 -4 14q-1 1 -3 1q-4 0 -7 -2q-15 -11 -24.5 -18t-20.5 -19q-2 -5 -2 -20q0 6 2 -15q1 -1 3 -4q14 0 17 2q8 5 19 20q8 11 20 36v5zM267 54q0 9 -2 13h-4l-71 -71
q2 -4 6 -4l61 1q4 0 8 2q0 1 2 3v21l-5 1q-14 -9 -15 -9t-3 2v5q7 6 21 21q2 2 2 15z" />
    <glyph glyph-name="Q" unicode="Q" horiz-adv-x="979" 
d="M397 411l-44 -32l-2 4l43 31zM901 22q-12 -20 -32 -38q-23 -21 -35 -21q-18 0 -57.5 39.5t-52.5 39.5q-7 0 -31.5 -18.5t-24.5 -21.5q0 -18 24 -33q20 -14 35 -14q-4 0 35 11q-2 -14 -10 -18q1 -6 15 -7q21 -1 23 -1q-5 -6 -48 -8q-9 0 -15 -2q-2 -1 -7.5 -5t-9.5 -4
q-3 0 -8 5t-8 5l-388 -5q-1 -13 -11 -38q-2 12 -10 38h-195q-11 -6 -34 -18q0 5 1 13q-19 1 -57 5q0 4 8 12h67q3 0 22.5 16t22.5 16h81q16 0 38.5 25t20.5 38q-4 4 -38 25q-17 9 -17 27q0 3 7.5 29t7.5 29q0 28 -41 28q-4 0 -26 -5q19 22 39 36q37 28 50 39q-10 8 -77 41
q-37 18 -37 45q0 24 43 59q38 32 76 63q-12 15 -25 29q-14 18 -14 38t18 38l44 36q-25 23 -51 46q-39 35 -46 35q-3 0 -36 -16q-36 -18 -46 -20q78 63 112 63q15 0 42 -26q20 -19 39 -38q9 0 3 6q2 38 6 81q3 -4 4 -36q-1 -19 -1 -39q1 -12 3 -22q1 0 2.5 -1.5t5.5 -1.5
t30.5 21.5t44.5 21.5q26 0 26 -29q0 -3 -1 -11v-10q0 -22 17 -22q10 0 36 20t35 20l-188 -156q4 -5 12 -6q23 0 51 12q43 18 50 20l-63 -53q-55 -47 -55 -59q0 -16 26 -32t26 -32q0 -13 -16 -26q-24 -20 -34 -34q21 -12 40.5 -25t19.5 -34q0 -14 -20 -38.5t-20 -31.5
q0 -8 27 -36.5t39 -28.5q2 0 20 12.5t28 16.5q-6 -13 -20 -24q-20 -18 -21 -19q2 -6 2 -13q0 -12 -9 -32q-15 -35 -15 -36q9 2 48 26q36 22 56 22q23 0 69.5 -30t51.5 -30q13 0 26 11.5t25 22.5q-2 7 -8 7h-13q-234 44 -234 270v81q0 18 16 86q16 64 20 69q32 41 95 93
q79 66 118 66q108 0 181 -87q68 -80 68 -179v-124q0 -106 -97 -181q10 -5 50 -45q37 -38 42 -38q3 0 7 2.5t5 2.5zM663 403q-24 8 -58 43q-21 -16 -48 -44q4 -6 31 -12q23 -4 38 -4q26 0 37 17zM807 248q0 86 -15 162q-23 121 -76 125q-1 -1 -43 -36q-27 -22 -27 -26
q0 -10 13 -30t25 -20q-4 0 34 13v-8q-22 -18 -50 -46q62 -18 62 -43q0 -3 -6 -24t-6 -23q0 -4 13.5 -30.5t13.5 -28.5q0 -13 -36 -45t-52 -32q-14 0 -26 13t-12 25q0 13 18.5 31t25.5 17q-2 -11 -5.5 -17.5t-3.5 -11.5q0 -4 6 -14q9 -13 18 -13q4 0 18 9.5t14 19.5
q0 5 -11 23t-11 29q0 3 7 26.5t8 32.5q-8 6 -35 12t-34 6q-27 0 -42 -19q12 1 30 -12q22 -15 22 -32q0 -25 -49 -68q-45 -42 -61 -42q4 14 40 44q32 28 32 45q0 15 -11.5 26t-27.5 11q-3 0 -12.5 -2.5t-12.5 -2.5q-9 0 -8 6q7 6 55 47q-19 6 -37 12q-25 8 -25 30q0 15 33 41
q21 15 41 30q1 8 -9 33q-12 29 -24 29q-6 0 -38 -22.5t-34 -22.5t-6 4q69 66 99 66q17 0 34 -26t18 -26q23 13 64 51q-94 58 -127 58q-103 0 -103 -229q0 -64 23 -159q10 -40 90 -90t122 -50q97 0 97 174zM398 566q-25 11 -27 35q-1 21 -3 43q-12 -2 -31.5 -17t-37.5 -28
v-98q2 -3 6 -8zM286 480q2 4 2 53q0 48 -2 51q-32 -20 -32 -21q-14 -12 -14 -28q0 -15 16.5 -34.5t29.5 -20.5zM327 440h-16q-4 0 -9 -5q0 -1 1.5 -5.5t1.5 -6.5q16 11 22 17zM316 295l-2 19l-12 3v-25q5 0 9.5 1.5zM661 -54q-2 2 -12 14q-7 8 -10 8q-10 0 -25 -22h47z
M289 423q0 20 -21 20q-7 0 -57 -40q-53 -41 -53 -51q0 -22 63 -50q50 -22 65 -23l3 42q-7 12 -23 29q-9 9 -9 23q0 8 16 23t16 27zM334 191q0 2 -6.5 12t-12.5 10h-13v-59q32 17 32 37zM532 -54q-66 46 -88 46t-88 -48q3 -1 15 -1zM289 212q0 8 -10.5 15.5t-15.5 7.5
t-25 -14.5t-23 -19.5q37 -13 37 -35q0 -8 -8.5 -34t-5.5 -35q3 -2 48 -25zM349 41q0 4 -18 22t-29 18q-3 -20 -1 -42l4 -34q6 2 25 16.5t19 19.5zM369 6q0 14 -12 21l-42 -30q-13 -11 -13 -34q0 -3 1.5 -11.5t1.5 -10.5h15q7 -1 28 29t21 36zM289 -7l-3 27q-41 -38 -78 -78
h81v28q-8 -4 -24 -9q-4 7 8 17z" />
    <glyph glyph-name="R" unicode="R" horiz-adv-x="878" 
d="M869 -63q-15 -8 -38.5 -8.5t-36.5 -10.5q-2 1 -6 7t-7 6l-460 -3q-19 0 -17 -31q-5 -6 -9 -6q-1 29 -11 35q-4 2 -28 2l-155 -2q-21 0 -26.5 -7.5t-18.5 -10.5q-3 7 1 11q-9 8 -28 8q-22 -1 -29 2q0 6 3 9h72q1 0 20.5 16t32.5 16h78q14 0 35 25t21 32q0 11 -27 25.5
t-27 36.5q0 3 7.5 28t7.5 28q0 12 -13.5 19t-26.5 7q-15 0 -27 -5q9 17 34 35q46 32 55 40q-32 18 -64 35q-52 29 -52 48q0 28 48 68q37 29 73 58q-3 5 -24 27q-16 17 -16 37q0 19 16 37q10 10 44 37l-47 47q-39 38 -49 38q-2 0 -71 -39h-12q79 64 111 64q17 0 38 -20.5
t41 -41.5h9v78q0 3 6 9q3 -4 3 -95q7 -7 9 -7q6 0 24 15.5t29 14.5q-3 -8 -32.5 -30t-29.5 -30q0 2 2 -17q2 -24 4 -78q12 2 35 21q29 24 48 32q-3 -10 -32 -33q-47 -38 -49 -40q4 -8 20 -8q13 0 66 12l-48 -41q-41 -34 -41 -49q0 -16 25 -32t25 -31q0 -17 -16 -28
q-26 -20 -34 -30l38 -24q24 -19 24 -38q0 -11 -19.5 -36t-19.5 -34q0 -3 20 -29q24 -32 31 -44l18 6t7 15l-6 316q-4 -2 -17.5 -9t-24.5 -13q-1 7 17.5 22t26.5 12q4 15 4 38q0 7 -1 22v22q0 65 41 88q-4 4 -21 4q-1 0 -19.5 -1t-33.5 -1q18 57 65 76q26 10 86 10
q120 0 174 -21q88 -35 88 -136q0 -62 -36 -98q-17 -16 -115 -78q4 -3 58 -35q43 -25 50 -49q2 -40 12 -106q3 -11 33 -43q35 -36 53 -36l15 2q-13 -20 -26 -41q-21 -30 -37 -30q-8 0 -22 5q-4 -4 -4 -10q0 -13 19.5 -27.5t27.5 -14.5t23 10h11q0 1 -10 -18q11 -2 35 -8z
M701 447q0 74 -60 110q-48 27 -125 27q-23 0 -27 -14q-1 -4 -1 -38q0 -27 3 -44q8 4 57 38q46 31 51 31q6 0 8 -1q-11 -13 -40 -35q-15 -12 -15 -30q0 -43 19 -43q10 0 41.5 22.5t36.5 22.5q1 0 5 -4q-18 -17 -18 -27q0 -12 11 -21q17 8 27 12q2 -2 2 -6q-37 -34 -47 -34
q-15 0 -28 30q-40 -20 -48 -20q-19 0 -30 21q-10 18 -8 34h-13q-6 0 -12 -6l3 -139q0 -10 9 -14q4 15 56 27q69 17 93 30q50 25 50 71zM288 582q-25 -13 -32 -18q-14 -11 -14 -29q0 -8 13 -29q14 -26 30 -26q54 43 54 72q0 26 -51 30zM629 226q-15 10 -53 30q-47 24 -63 24
h-15v-73q-1 -13 5 -53q23 11 44 28q-20 22 -20 31q0 7 10 20q11 17 25 17q6 0 7 -2q0 -3 -6 -9.5t-6 -9.5q0 -5 10.5 -13t17.5 -8q6 0 22.5 9t21.5 9zM327 440h-17l-5 -14zM616 132q0 8 -19.5 23.5t-28.5 15.5q-8 0 -16 -9q12 -9 26 -32q13 -19 18 -21q20 14 20 23zM753 -54
q-10 16 -24 24q-24 -18 -26 -24q25 -4 50 0zM750 11q-52 20 -71 66q-6 16 -18 84q-8 48 -31 64q-7 -14 -23 -28q11 -10 22.5 -20.5t11.5 -30.5q0 -16 -37.5 -49t-55.5 -33q-5 0 -6 2q15 25 15 28q0 14 -14.5 29.5t-28.5 15.5q-8 0 -11 -4v-57v-22q-1 -15 -9 -24.5
t-41.5 -30.5t-37.5 -21q-5 0 -9 4l-3 39l-3 39l-26 -18q-20 -15 -20 -23q0 -26 46 -45q34 -13 54 -13q22 0 59 28.5t54 28.5q16 0 62 -26t59 -26t35.5 16.5t26.5 26.5zM316 316h-14q0 -10 1.5 -17l1.5 -7q1 0 5.5 1.5t5.5 1.5v21zM292 283q1 19 -6 51q-6 9 -19 19
q-7 6 -7 17q0 13 15 25t15 30t-19 18q-9 0 -59.5 -40t-50.5 -50q0 -19 59 -49q53 -27 65 -27q1 0 7 6zM634 -55q-75 47 -87 47q-11 0 -38 -20q-21 -16 -31 -27h156zM337 191q0 17 -31 24q-1 -19 -1 -59q8 3 20 14t12 21zM292 74v145q-16 19 -28 19q-5 0 -23.5 -16.5
t-20.5 -20.5q35 -10 35 -35q0 -2 -6.5 -28t-8.5 -39q33 -25 41 -25h11zM344 43q0 18 -36 46q-6 -34 -6 -43q0 -29 11 -36q31 31 31 33zM376 -56q-10 6 -29 27q-22 23 -26 26q-6 -4 -14 -10l1 -45q65 -1 68 2zM292 4q0 3 -1.5 8.5t-1.5 7.5q-44 -40 -79 -78h82q0 11 -1.5 20
t-1.5 8q-16 -10 -21 -9q3 14 13.5 23t10.5 20z" />
    <glyph glyph-name="S" unicode="S" horiz-adv-x="883" 
d="M388 419q2 -6 -12 -17.5t-24 -15.5v12q8 6 18.5 14t17.5 7zM829 -55q0 -6 -19 -10q-35 -8 -47 -12q0 2 -1 6q-1 1 -4 2.5t-18 1.5l-431 -5q-9 -4 -8.5 -16.5t-4.5 -18.5q-5 3 -6 12q0 14 -1 16q-9 7 -20 7l-186 -2q-7 -2 -28 -18v16q-32 5 -55 5q6 6 51 7q16 1 23 4.5
t27 20.5q11 9 31 9q3 0 22 -1t22 -1q21 0 50 16q34 20 34 43q0 6 -29.5 25.5t-29.5 31.5q0 3 8.5 30.5t8.5 30.5q0 12 -17 19q-13 7 -26 7q-10 0 -24 -5q6 12 36 34q38 27 53 44q-35 17 -70 35q-46 24 -46 50q0 22 48 61q36 30 73 59q-13 15 -26.5 30t-13.5 36q0 26 17 40
q21 18 43 35q-24 23 -47 45q-38 36 -48 36q-11 0 -40 -16q-37 -19 -41 -21q7 14 46.5 38t58.5 24q25 0 42 -19q33 -36 43 -43q1 0 6 4v82q9 -3 9 -96q1 0 2 -1.5t5 -1.5l59 39q5 4 11 4q11 0 17 -4q14 -9 15 -29q2 -30 3 -35q7 -4 12 -4q7 0 13 3q18 15 62 38l-191 -157
q2 -6 10 -6q14 0 68 15q6 -3 6 -8q0 -4 -44.5 -38t-44.5 -48q0 -13 26 -32t26 -35q0 -2 -3 -11q-1 -1 -46 -42q2 -6 28.5 -22t34.5 -39q18 15 57 38q4 2 11 2q3 0 13 -3.5t13 -3.5q5 0 51 39q6 6 14 2q-1 -11 -21 -26q-30 -24 -36 -29q11 -25 30 -53q3 -5 11 -5q1 0 24 15
q27 20 53 40q34 25 48 24q-13 -15 -42 -39q2 -22 15 -36q15 -5 43 -22q4 -3 4 -12q0 -8 -7.5 -15.5t-27.5 -21.5l-12 3q2 5 13 16q-1 9 -15 11q-17 2 -21.5 10t-4.5 23q-1 12 -11 19q-9 1 -16 -4q-14 -11 -44 -33q-10 -6 -20 -6q-11 0 -19 9q-1 1 -30 44q-2 2 -5 2
q1 0 -28 -14l-2 11q10 5 22 19q-3 9 -12 9q-15 0 -52 -36t-37 -48q0 -15 32 -44q28 -26 33 -26q6 0 8 5q10 14 34 41q7 7 32 14l213 -55q25 0 61 39q8 9 8 21t-6 23q-48 91 -87 105q-52 17 -97 27q-23 4 -71.5 17.5t-77.5 90.5q-8 21 -10 40q-3 29 -3 37q0 55 94 125
q85 65 123 65q36 0 102 -37q77 -42 77 -85q0 -10 -5 -14q-16 -15 -61 -43q-2 21 -43 51q-32 23 -66 38q-52 23 -75 23q-12 0 -44 -19.5t-32 -35.5q0 -55 41 -114q47 -67 105 -67q6 0 8 1q7 14 34 31q1 6 -10 16q2 2 -4 2q-3 0 -14.5 -5t-15.5 -5q-5 0 -7 1q-14 4 -18 17
q-2 7 -7 70q-2 15 -5 23t-15 8q-3 0 -67 -35q15 17 45 40l54 42h12q-1 -5 -20 -23q26 -16 28 -55q3 -50 13 -67q8 7 13 31q5 28 11 39q12 21 39 25q-9 -14 -18 -33v-24q1 0 2 -1t5 -1q3 0 10 3.5t12 3.5q-1 -5 -9 -14.5t-12 -11.5v-12q4 -7 27 -7l-69 -62q16 -7 65 -18
q38 -8 61 -27q20 -16 36 -44q10 -16 13 -25q11 -34 11 -50q0 -46 -89 -120q-85 -72 -127 -72q-20 0 -43 6q-69 19 -144 39h-14q-11 -22 -22 -70q26 19 48 27q3 1 12 1q-4 0 48 -8l96 -32q22 3 62 33q49 39 64 46q2 -8 -25 -31q-5 -5 -5 -7q0 -25 45 -40q32 -11 53 -11
q7 0 48 14q0 -2 -12 -20q6 -1 19 -4zM394 566q-24 6 -27 33q-2 22 -4 45q-32 -9 -67 -48q-1 -5 -1 -13q0 1 2 -21q2 -27 3 -69q34 24 94 73zM285 551q1 21 -4 33q-46 -29 -46 -47q0 -19 16.5 -37.5t30.5 -17.5zM324 440q-19 0 -27 -8q1 -1 3 -4t3 -5q8 7 21 17zM314 304
q0 9 -14 15l-3 -27h12q5 6 5 12zM673 -54q-3 3 -18 19q-12 13 -15 13q-6 0 -41 -32q41 -3 74 0zM287 283q0 3 -3 50q-29 18 -29 37q0 14 30 39v29q-13 8 -21 8q-10 0 -59 -45.5t-49 -48.5q0 -20 57 -49q51 -26 66 -26q2 0 8 6zM334 192q0 6 -3 5q-12 19 -31 18v-61q-3 0 9 3
q18 17 21.5 26.5t3.5 8.5zM287 72v145q0 3 -10.5 12t-17.5 9q-5 0 -24.5 -15t-21.5 -24q37 -7 37 -33q0 -7 -7.5 -30t-7.5 -39q35 -20 52 -25zM505 -53q-85 28 -93 28q-10 0 -23 -6q-16 -8 -35 -28q46 0 78.5 1t26.5 1q30 0 46 4zM366 13q0 10 -8 21q-24 31 -56 50v-143h16
q12 -1 31 33q17 30 17 39zM290 -30q0 11 -6 52q-57 -57 -78 -81h23h55q6 8 6 29z" />
    <glyph glyph-name="T" unicode="T" horiz-adv-x="792" 
d="M292 610q-2 -5 -9 -11q-3 7 -3 91q0 11 9 21zM614 468q3 -5 -12.5 -21t-29.5 -31q-3 -3 -3 -11q0 -6 5.5 -15t13.5 -9l21 7q-4 -5 -26 -32q-16 -19 -16 -23q0 -8 23.5 -35.5t23.5 -43.5t-19 -37q-22 -26 -60 -46q4 13 19 27q23 22 28 28t5 10q0 5 -22.5 34.5t-22.5 41.5
q0 6 1 9q5 15 19 32q-7 8 -19 26q-3 7 -3 18q0 8 5 14q30 32 69 57zM416 406q-14 -11 -44 -30q-1 1 -6 4q6 10 22.5 23t25.5 14zM701 -66q-11 -8 -38.5 -7.5t-41.5 -13.5l-11 9h-304q-4 -4 -5 -22q-1 -8 -8 -14q-3 11 -10 35h-200q-9 -6 -29 -18q-4 8 0 12q-3 7 -35 7
q-12 0 -19 2q0 9 9 9h63q24 21 40 29q9 3 8 3h79q14 0 36 23t22 33t-28.5 24t-28.5 34q0 5 7.5 30.5t7.5 27.5q0 12 -15 20.5t-24 8.5q-6 0 -27 -7q9 15 40 38q37 26 49 39q-10 6 -57 27q-32 15 -52 34q-8 8 -8 22q0 21 8 30q12 12 111 91q-1 4 -16 19q-13 12 -23 40
q-1 2 -1 9q0 12 14 29.5t14 24.5q0 28 -49 48q-36 14 -55 14q1 0 -46 -22q14 35 54 48q3 1 13 1q24 0 65 -20q50 -24 50 -53q0 -2 -15 -24t-15 -25q0 -7 3 -15q5 -12 36 -41h9q4 6 5 37q0 17 5 27q4 -7 3 -25.5t5 -26.5q33 20 75 58q-53 9 -99 -3q9 23 17 45q6 11 28 45
l10 4t22.5 4.5t20.5 2.5l217 -5q76 0 85 1q6 0 27 6q-6 -30 -8 -36q-9 -25 -35 -49q-9 -8 -54 -8h-73q-3 0 -12 -9l8 -384q0 -32 5 -44q8 -17 30 -38q27 -27 46 -24q-17 -23 -52 -55q-4 -4 -16 -4q-54 0 -88 65q-27 51 -27 103v314q0 26 3 42q5 9 15 29q-22 5 -36 5
q-6 0 -19 -5q-4 -10 -34 -35q-46 -38 -53 -43l3 -3q0 -1 11 -1q14 0 27 3q18 4 73 31q0 -9 -14.5 -20.5t-27.5 -21.5q-25 -18 -74 -61q-3 -2 -3 -13q0 -15 26 -30.5t26 -36.5q0 -2 -3 -11q-16 -13 -46 -40q3 -8 26 -19.5t29.5 -23t6.5 -21.5q0 -12 -18.5 -36.5t-18.5 -32.5
t27 -37t35 -29q7 0 30 21q4 1 9 1q1 -9 -9 -18q-18 -15 -20 -18q3 -19 -6 -40.5t-18 -42.5q17 9 56 27q3 1 13 1t13 -1q15 -4 42.5 -20t42.5 -16q-1 0 11 3q16 13 47 36h11q-7 -14 -7 -19q0 -12 17 -21q13 -7 21 -7q-9 0 34 10q3 -7 -10 -18q12 -1 40 -8zM317 430h-17
q-4 -7 -3 -14q12 4 20 14zM312 296q-9 15 -17 13v-22q12 3 17 9zM282 311q-1 6 -4 13q-8 7 -23 22q-5 7 -5 17q0 -3 3 9q11 17 26 27v29q-8 8 -17 8t-59 -40t-50 -53q0 -11 6 -16q24 -21 67 -36q19 -8 52 -20zM579 -62q-4 15 -12 15q-10 0 -17 -15h29zM329 182
q0 4 -6.5 13.5t-14.5 9.5h-11v-56h9q18 17 22 28q1 2 1 5zM284 177q0 4 -3 38q-11 13 -25 13q-1 0 -10 -4q-22 -16 -36 -30q17 -6 22 -9q13 -8 15 -18v-9q0 -3 -7 -29t-7 -29q0 3 3 -10q25 -18 46 -22q0 106 2 109zM480 -61q-27 19 -53 28q-10 3 -12 3q-7 0 -13 -3
q-40 -22 -45 -31q9 0 62 1q57 0 61 2zM344 39q-15 13 -44 35q0 5 0 -74q36 13 44 39zM364 5q-1 15 -10 15q-16 0 -35.5 -24t-19.5 -37q0 -15 3 -23h19q31 36 39 55q4 8 4 14zM287 -8q0 3 -1.5 11t-1.5 12l-79 -79q3 -1 22 -1q1 0 25 1h35v26q-19 -7 -22 -6q-3 4 -2 5
q1 3 14 17q10 11 10 14z" />
    <glyph glyph-name="U" unicode="U" horiz-adv-x="952" 
d="M740 345q0 -6 -21 -24.5t-21 -30.5q33 -42 33 -60q0 -16 -15.5 -35t-36.5 -29q-1 1 -4 3t-5 3q31 33 31 40q0 3 -14.5 26t-18.5 34q-2 2 -5 2l-104 -83q-1 1 -4 3t-5 3q5 7 34 33q24 21 24 34q0 16 -19 31.5t-36 13.5q3 13 21 30q16 14 31 28q-17 11 -34.5 22.5
t-17.5 29.5q0 17 23.5 37t23.5 23q0 7 -13.5 24.5t-19.5 17.5q-3 0 -18 -7q-5 0 -9 3q17 29 45 29q18 0 33.5 -18.5t18.5 -18.5q2 0 38 27.5t44 28.5q-2 -8 -38 -39.5t-36 -36.5q0 -12 15.5 -31t25.5 -19q9 0 27 7q-2 -6 -22.5 -26t-20.5 -24q0 -2 16 -12.5t21 -17.5
q1 -10 7 -30q6 8 20 13q2 -1 6 -4zM425 446q-1 -10 -19.5 -23t-28.5 -14q-1 8 12 18t25 19h11zM931 83q-2 -9 -25.5 -33t-34.5 -24q-25 0 -66 39.5t-46 60.5q-6 -4 -83 -69q-48 -41 -77 -41q-19 0 -72 38q-49 35 -66 57q-18 -10 -55 -44q2 -5 2 -11q0 -13 -10 -35l-16 -34
q18 6 55 29q27 17 53 17q19 0 67 -30t52 -30q12 0 41 24t37 26q1 -4 -1.5 -12t-2.5 -11q0 -19 39 -29q29 -8 57 -8q25 0 61 15q1 -2 1 -4q0 -3 -4.5 -8t-5.5 -9q4 -5 13 -5q13 -1 16 -2q-1 -7 -26 -10q-35 -5 -55 -14q2 12 -8 12l-440 -2q-18 0 -21 -8q-9 -21 -11 -25l-4 22
t-12 11l-192 -3q-11 -6 -35 -17q-2 2 -1 13q-7 4 -28 5t-27 3q3 3 8 9h63q2 0 24.5 16t26.5 16h79q15 0 39.5 24.5t24.5 33.5q0 8 -30 25t-30 35q0 3 9 29.5t9 29.5q0 13 -17 20q-13 6 -25 6q-1 0 -28 -4q6 10 32 29q47 36 60 46q-29 22 -88 47q-29 12 -29 42q0 22 48 62
l74 60q-3 4 -28 31q-14 16 -14 34q0 19 16 38q9 10 44 39l-48 46q-35 33 -47 33q-7 0 -40 -18q-17 -10 -34 -19h-11q11 14 49 36q42 26 63 26q25 0 43 -18q38 -38 43 -42q6 6 8 57q0 18 5 25q0 -31 10 -95q18 10 61 33q1 -5 -33 -30.5t-34 -58.5q0 -29 4 -70l98 63
q-9 -17 -44 -44q-39 -29 -48 -41q3 -4 11 -4q28 0 101 32q-3 -5 -63 -56q-54 -47 -54 -56q0 -18 27.5 -34t27.5 -33q0 -12 -22 -29q-27 -22 -31 -28l38 -24q25 -17 25 -35q0 -14 -21.5 -42.5t-21.5 -31.5q0 -8 29.5 -37t37.5 -29q4 0 28.5 19t24.5 23q0 2 -11 21t-13 31
q-3 22 -3 51q0 3 2.5 39.5t2.5 39.5v70l5 120q0 50 -16 75q-13 19 -62 52q7 8 33 27q30 22 41 22q12 0 31.5 -15t23.5 -15q3 0 15 9t18 11q-1 -11 -11.5 -19t-10.5 -13q0 4 19 -26t19 -68v-263q0 4 -3 -22q-2 -20 1 -30q8 -31 59.5 -82.5t77.5 -51.5q32 0 60 55q23 43 23 63
l-5 258q1 60 -9 92q-18 55 -71 81q3 8 29 27q30 22 47 22q12 0 38 -20t28 -20t13.5 7.5t16.5 9.5v-11q-6 -5 -20 -17q24 -28 25 -72q2 -73 3 -76l2 -157q4 -18 4 -42q0 -11 -1 -33t-1 -33q0 -98 81 -137zM655 409q-13 7 -29 27q-9 12 -19 25q-24 -14 -24 -27q0 -7 25 -18.5
t34 -11.5q7 0 13 5zM688 327q0 11 -26 23q-22 11 -33 11q-16 0 -31 -27q13 -2 28 -23t15 -30q15 10 31 20.5t16 25.5zM293 588q0 8 -9 8q-44 -28 -44 -51q0 -9 15.5 -27.5t20.5 -21.5h16q1 12 1 92zM330 453h-14q-11 -3 -8 -12q13 2 22 12zM323 316q0 8 -12 12l-3 -24
q15 7 15 12zM660 -46q-10 17 -16 19q-16 -10 -21 -19h37zM293 435q0 21 -20 21q-10 0 -60 -39q-53 -40 -53 -53q0 -18 56 -46q51 -27 68 -27q5 0 9 3v46q-10 9 -20 19q-13 12 -13 25q0 8 16.5 24t16.5 27zM340 200q0 14 -29 26l-3 -57q9 -1 20.5 11t11.5 20zM538 -46
q-58 47 -86 47q-16 0 -49 -23l-38 -26q4 0 12 -1h10zM292 84v144q1 5 -9.5 11.5t-16.5 6.5q-16 0 -46 -34q38 -17 38 -32q0 -3 -9 -32t-9 -32q0 -10 23 -21q17 -9 29 -11zM353 50q0 7 -20 23t-25 18v-75q9 0 27 14t18 20zM375 26q0 4 -4.5 7t-7.5 3l-42 -32q-13 -11 -13 -33
q0 -4 1.5 -11t1.5 -8t2 -2.5t6 -1.5q16 0 37 34q19 30 19 44zM295 16q0 3 -1.5 6t-1.5 4q-36 -30 -45 -37q-26 -24 -34 -40q46 0 79 2q5 14 0 27q-8 -4 -22 -9q7 14 19 28q6 7 6 19z" />
    <glyph glyph-name="V" unicode="V" horiz-adv-x="934" 
d="M532 656q-6 -19 -32 -27v9q7 6 13 11t19 7zM873 453v-58q-2 -42 -4.5 -84t-21.5 -72q-30 -46 -117 -133q-93 -93 -119 -93q-35 0 -93 45t-57 45q-35 0 -76 -127q4 2 55 32q29 18 56 18q25 0 68 -30t50 -30q13 0 40 23t43 27q0 -2 -4.5 -11t-4.5 -13q0 -24 88 -36h18
q14 0 53 15q1 -3 -12 -21q11 -4 28 -5q-7 -11 -33 -11t-44 -13q0 2 -3 10h-468q-3 -13 -8 -40q-7 1 -8.5 12t-1.5 21q-12 7 -60 7l-148 -3q-10 -6 -31 -17q-5 5 -1 13q-7 6 -27 5q-23 0 -30 2q0 10 9 10h64q-1 0 22.5 16t48.5 16q2 0 26.5 -1t28.5 -1q14 0 41 22.5t27 37.5
q0 8 -28.5 25t-28.5 34q0 3 8.5 30t8.5 30q0 11 -15 18.5t-26 7.5q-4 0 -28 -4q7 11 39 34q41 30 53 41l-64 34q-54 31 -54 56q0 24 49 62q38 29 76 59q-13 13 -25 27q-17 21 -17 39q0 25 22 44l40 32q-23 22 -47 43q-42 38 -50 38q-5 0 -41.5 -16.5t-41.5 -17.5
q17 16 52 36q41 23 61 23q19 0 81 -62q10 6 10 26q0 5 -1 17t-1 17q0 18 7 25q4 -3 4 -96l2 -1t6 -1q2 0 26.5 15t30.5 16q-4 -8 -27 -26q-31 -25 -38 -31v-93q0 -1 4 -11q29 20 93 62l-89 -78q4 -6 11 -6q16 0 44 9.5t54 18.5q-4 -7 -62 -54q-52 -44 -52 -58
q0 -13 27.5 -29.5t27.5 -31.5q0 -13 -19 -28t-36 -29q3 -5 36 -25q26 -16 26 -40q0 -13 -20 -37.5t-20 -33.5t29.5 -38.5t36.5 -29.5q3 0 22 15q26 20 32 24q-28 50 -28 108q0 17 3 44t3 36v134q-9 -4 -39 -27h-11q2 5 20 21t23 16q4 0 5 -1.5t2 -1.5q5 11 5 43
q0 92 -80 130q0 9 29 32t41 23q26 0 68 -41q38 -37 40.5 -65.5t3.5 -78.5q0 -35 -1 -80t-1 -39v-95q0 -5 -1.5 -15t-1.5 -16q0 -23 17 -48q1 2 47 38q29 22 29 38q0 20 -20.5 35t-37.5 15q5 9 22 24q31 26 33 29q-29 33 -52 51q-3 0 -10.5 -4t-11.5 -4q3 13 35 38t32 31
q0 11 -16 25t-22 14q-2 0 -13 -3.5t-16 -3.5q0 9 18.5 19.5t28.5 10.5q20 0 36 -19t19 -19q2 0 41.5 28.5t45.5 31.5q-3 -7 -41.5 -40t-38.5 -37q0 -18 25 -38t35 -18q-11 -16 -32 -34q-1 -2 20 -15q22 -16 22 -34q0 -3 -11 -37t-11 -37t15 -22.5t15 -32.5
q0 -18 -28.5 -40.5t-43.5 -22.5q-1 5 19 22t20 27q0 8 -12.5 23.5t-12.5 29.5q0 3 14 37t14 37q0 11 -27 22q-21 8 -31 8q-8 0 -30 -19q2 -8 21 -23t19 -40q0 -19 -34.5 -47.5t-67.5 -55.5q8 -17 44 -52q43 -41 66 -41q24 0 64 52q32 43 37 60q4 10 7 67q2 32 2 36
q0 62 -7 148q-6 81 -12 101q-4 17 -27 44t-47 38q50 52 70 52q18 0 42.5 -22.5t27.5 -22.5q6 0 21 13.5t23 10.5q0 -7 -10.5 -16t-20.5 -17q25 -39 30 -97q2 -40 5 -80zM675 407q-19 16 -51 57q-19 -14 -19 -27q0 -11 22 -22t35 -11q3 0 8 1.5zM300 500v91h-12
q-41 -30 -41 -48q0 -10 16 -32t28 -22q9 0 9 11zM337 448q-9 0 -15.5 -1l-6.5 -1v-12q11 -1 22 14zM330 312q-5 11 -14 14l-3 -27q7 5 17 13zM670 -51q-7 8 -21 19q-10 -6 -21 -19h42zM300 316q0 20 -16.5 35t-16.5 26q0 13 16.5 28t16.5 27q0 22 -24 22q-10 0 -59.5 -45
t-49.5 -49q0 -24 63 -52q53 -23 65 -23q5 22 5 31zM345 195q0 4 -6.5 13.5t-15.5 9.5h-13v-57q11 -2 23 12.5t12 21.5zM548 -50q-3 1 -47 29q-27 17 -45 17q-14 0 -48 -22q-21 -15 -43 -30l161 2q15 0 22 4zM297 228q-16 13 -25 13q-7 0 -26.5 -14.5t-20.5 -19.5
q22 -11 28.5 -16t6.5 -19q0 -2 -7 -30t-8 -41q39 -24 49 -23zM358 43q0 13 -45 43l-3 -77q6 0 25 12q23 14 23 22zM380 18q0 8 -11 13q-23 -17 -47 -34q-12 -11 -12 -31q0 -14 3 -23h15q11 0 31.5 32.5t20.5 42.5zM297 -3l-3 26q-52 -44 -81 -79h41.5h42.5v27q-26 -6 -24 -7
q-4 6 7 16q17 16 17 17z" />
    <glyph glyph-name="W" unicode="W" horiz-adv-x="1216" 
d="M1035 211q0 -13 -4 -17q-11 -12 -64 -53h-12q4 8 21 23q21 19 25 23.5t4 12.5t-12.5 25.5t-12.5 25.5q0 1 27 69q1 3 1 12q-4 5 -12 8q-44 16 -46 16t-28 -19q12 -11 34 -39q7 -10 7 -21q0 -13 -12 -28q-22 -30 -59 -50h-12q17 16 47 49q3 4 3 16q0 10 -15 27.5t-26 17.5
q-3 0 -7.5 -1.5t-8.5 -1.5q0 2 -3 6l58 48q-2 2 -30 21q-19 14 -15 31q-1 0 -2 1t-5 1q1 0 -23 -10q2 14 40 44q27 20 27 27q0 10 -13 24.5t-22 14.5q-2 0 -26 -11q-4 -1 -9 2q6 16 33 25q17 6 22 6q10 0 19 -6q6 -3 17.5 -17t14.5 -14q1 0 30 21q26 19 31 17
q-1 -8 -26.5 -29.5t-25.5 -27.5t11.5 -25t17.5 -23q14 -6 23 -6q1 -9 -13 -21t-16 -17q12 -8 23 -15q18 -12 18 -20q1 -3 1 -11q0 -3 -11 -35.5t-11 -35.5q0 -10 13.5 -25t13.5 -35zM1153 649q0 -9 -11 -18.5t-22 -17.5q21 -32 26 -81l4 -82q0 -52 1.5 -75.5t1.5 -17.5
q0 5 -5 -55q-1 -21 -7 -47q-1 -9 -4 -28q-16 -70 -145 -174q-23 -20 -63 -46q-12 -6 -25 -6q-36 0 -88 46q-46 41 -65 76q-32 -38 -114 -114q-14 -11 -28 -11q-4 0 -16 4q-26 7 -43 17q-33 21 -69 57q-43 44 -48 74q-3 16 -3 61l12 278q0 18 -1 23q-1 9 -10 27
q-23 29 -32 39q-25 26 -39 29q5 11 26 26q19 11 37 22q5 4 13 4q14 0 26 -9q32 -25 69 -66q15 16 38 27q2 -8 -11 -18.5t-23 -12.5q14 -37 8 -95q-1 -6 -1 -27v-148q0 -4 -2.5 -40.5t-2.5 -39.5q0 -30 42 -94q45 -70 80 -70q8 0 16 8q44 41 51 71q11 42 10 57q0 12 1 37
q0 27 0 26v327q0 10 11 26q5 7 37 25.5t54 27.5q-5 -45 -4 -101q2 -99 2 -133q-2 -88 -1 -92q1 -16 1 -32t-2 -41.5t-2 -36.5q0 -32 12 -57q1 -1 19 -25t36 -42q25 -25 52 -40q5 -3 16 -3q43 0 72 69q20 50 20 82l-7 198q0 14 -11 105q-2 15 -8 25q-35 63 -66 65
q8 11 29.5 33t29.5 25q4 1 11 1q18 0 45 -25t31 -25q3 0 18 12t21 16zM729 313q-3 -6 -16.5 -15t-16.5 -21q-1 5 -1 -6q0 -9 13.5 -26.5t13.5 -35.5q0 -15 -6.5 -25.5t-19.5 -21.5q-16 -13 -26 -10q25 33 25 38q0 3 -11 20q-13 21 -14.5 26.5t-4.5 15.5l-112 -71q0 9 20 26
q24 20 28 28q1 2 1 11q0 28 -26 43t-26 11l57 50q-16 9 -44 32q-3 4 -3 19v12q1 12 19 26q14 10 28 21q-5 11 -9 22q-7 12 -18 21q-8 3 -7 3q-2 0 -8.5 -2.5t-9.5 -2.5l-5 2q0 5 5 10q10 7 23 12q3 1 14 1q13 0 15 -1q8 -5 37 -39l78 55q1 -11 -25 -34q-14 -10 -43 -33
q-2 -2 -2 -5q0 -12 13 -31q14 -22 26 -22q7 0 21 2q-2 -3 -42 -43q3 -6 22 -17q16 -10 19 -25q-1 7 -1 -17q0 -2 4 -2q12 0 15 -1zM1145 -62q-8 -11 -35 -11t-49 -14q0 1 -2.5 5.5t-5.5 7.5l-718 -5q-30 0 -30 -16v-4q1 -4 1 -5q0 -8 -8 -10q-2 11 -8 32h-202
q-11 -6 -34 -17q1 -1 1 13q-8 4 -42 4h-13q-4 4 3 10h67q1 0 22.5 16.5t35.5 16.5h72q15 0 39.5 22t24.5 37q0 10 -28.5 24.5t-28.5 33.5q0 3 7.5 30t7.5 29q0 14 -18 23q-13 6 -25 6q4 0 -24 -7q8 13 36 35q49 37 53 41q-27 22 -83 48q-32 14 -32 39q0 30 46 66
q39 30 77 60q-14 14 -27 28q-16 16 -16 35q0 28 20 43q37 28 43 36q-10 8 -57 51q-29 28 -43 28q-11 0 -43 -18.5t-40 -15.5q26 17 52 35q39 24 62 24q19 0 46 -26q38 -36 39 -37q2 2 4 9v76q9 -13 9 -46q0 -36 5 -49h9l43 30h12q-16 -15 -66 -54l3 -104q10 0 41 25
q51 39 53 41q3 -3 9 -3q-33 -27 -98 -84q2 -3 10 -3q26 0 68 15q31 12 35 12l-62 -50q-56 -45 -56 -57q0 -18 27.5 -34t27.5 -33q0 -13 -22 -28q-27 -19 -33 -29q2 -2 42 -26q23 -14 23 -35q0 -14 -21 -41.5t-21 -31.5q0 -10 31.5 -39t36.5 -29q4 0 21 12q23 15 33 21
q-2 -10 -19 -21q-20 -13 -25 -23q0 -16 -4 -40q-1 -3 -10.5 -15.5t-9.5 -20.5q0 -3 1 -5q17 11 50 29q10 3 22 3q10 0 39 -8q8 -2 20 -8q17 -6 48 -20q26 -11 38 -11q9 0 12.5 2t68.5 53h12q0 -3 -4 -10t-4 -10q0 -11 17 -22q14 -8 20 -8q5 0 11 5q18 19 48 39q21 3 17 3
q3 0 58 -22.5t58 -22.5q11 0 17 3q17 13 51 35q0 -15 4 -21q11 -13 59 -26q11 -3 29 -3q11 0 19 4t23 12q8 3 12 2q-1 -6 -20 -25q2 -6 35 -6zM430 434l-51 -36l-2 3l51 36zM978 400q-15 17 -49 56l-18 -18q-4 -13 -4 -9q0 -10 25 -22.5t34 -12.5q5 0 12 6zM660 390
q-16 8 -25 21q-5 10 -16 27q-2 3 -7 3q-4 0 -15.5 -10.5t-11.5 -14.5q0 -7 27 -21t34 -14q11 0 14 9zM687 311q0 5 -25.5 17.5t-32.5 12.5q-6 0 -9 -1q-9 -8 -23 -23q45 -20 41 -58q30 20 43 35q6 7 6 17zM970 -61q-1 5 -14 22q-16 -11 -23 -19zM289 584
q-16 -11 -31.5 -22.5t-15.5 -30.5q0 -15 13.5 -31t32.5 -20q8 28 1 104zM860 -62q-6 8 -13 12q-56 28 -68 28q-6 0 -8 -1q-25 -18 -35 -29q-2 -5 -3 -10h127zM329 440q-9 -1 -22 -7l2 -11q18 5 20 18zM325 302q-5 8 -15 14q-1 -4 -2.5 -12t-2.5 -12q3 -3 9 -3q4 5 11 13z
M677 -61q-6 11 -18 29q-25 -8 -43 -31q46 -5 61 2zM295 425q0 16 -22 16q-8 0 -61 -40t-53 -52q0 -20 59 -49q52 -26 68 -26q5 0 8 3v48q-11 11 -21.5 21t-10.5 21q0 15 16.5 28t16.5 30zM342 185q0 10 -32 26q-4 -10 -1 -62q11 3 22 15.5t11 20.5zM295 192q-3 12 -5 24
q-5 15 -23 15q-7 0 -26 -15t-24 -22q14 -5 28 -11q9 -6 9 -25q0 -2 -6.5 -28t-7.5 -39q25 -18 51 -26zM530 -62q-27 13 -79 34q-11 4 -23 4q-13 0 -45 -24q-14 -10 -18 -18q27 -4 165 4zM357 32q-19 23 -47 44q-5 -18 -5 -14q0 -21 5 -66q22 11 47 36zM377 5q0 8 -9 16
q-24 -17 -48 -33q-13 -10 -13 -33q0 -18 6 -23q15 0 39.5 28t24.5 45zM295 -4q0 11 -4 17q-56 -51 -81 -81h84v31q-7 -4 -24 -9q6 11 18 22q7 6 7 20z" />
    <glyph glyph-name="X" unicode="X" horiz-adv-x="925" 
d="M902 66q0 -19 -77 -69q-82 0 -144 81q-56 74 -67 169q-31 -66 -62 -133q-64 -122 -110 -122q-12 0 -111 29q13 25 27 50q19 28 43 28q3 0 39 -7.5t39 -7.5q29 0 75 103q40 89 44 125q-4 4 -6 4q-5 0 -34 -21t-31 -31q-21 -111 -86 -111q-18 0 -31 25q-2 0 -14 -2
q3 13 36 38q28 21 56 43q1 15 -17 28t-31 13q-12 0 -31 -12q-25 -15 -32 -18q-1 7 27 33.5t28 35.5q0 11 -49 18q-36 5 -62 5q-2 0 -9 -7v-50q4 -5 5 -5q3 0 20 13q22 17 26 20h11q-3 -10 -27 -29q-28 -21 -33 -28q7 -7 42 -26q21 -12 21 -35q0 -17 -33 -50t-32 -50
q1 -29 -1 -49q-2 -23 -2 -19q0 -17 5 -46q8 -1 81 -21q69 -19 74 -19q16 0 37 21.5t44 21.5q16 0 36 -12q35 -20 51 -28q12 -1 36 20q40 35 44 38l11 -4q-17 -24 -17 -27q0 -18 39 -31q31 -10 54 -10q-2 0 57 19q-3 -5 -25 -28q4 -3 35 -5q10 -1 18 -5q-7 -4 -12 -4.5
t-60 -1.5q-7 -5 -22 -13q-2 4 -8 13h-468q-6 -4 -9 -29q0 -8 -7 -12q-3 14 -11 41h-207q-8 -5 -31 -18q0 1 1 5.5t1 7.5q-8 6 -27 6q-22 -1 -29 2q-1 2 7 10h70q3 0 21.5 15t21.5 15h80q12 0 40.5 21.5t28.5 37.5q0 12 -28.5 26.5t-28.5 33.5q0 3 8.5 32t8.5 32q0 13 -19 21
q-14 6 -24 6q-6 0 -27 -7l90 77q-35 20 -69 39q-46 27 -46 52q0 24 51 67q37 29 74 59q-14 15 -28 31.5t-14 36.5q0 22 20.5 40t41.5 35q-25 24 -50 47q-39 36 -48 36q-2 0 -39.5 -17t-42.5 -18q10 14 51.5 37.5t59.5 23.5q22 0 42 -20.5t39 -41.5h8v73q0 7 9 12q4 -4 4 -96
q4 -4 7 -4q4 0 19.5 9t20.5 11q-1 -2 -28 -22q-19 -14 -19 -28l2 -99q17 7 52 34t52 33q-6 -14 -41 -41q-45 -34 -58 -46q6 -4 13 -4q30 0 92 25q-3 -9 -54 -49.5t-51 -50.5q0 -13 20 -15q-7 0 27 0q27 0 56 -8q41 -13 41 -36q0 -12 -11 -25q49 -10 70 -43q22 18 68 53
q-21 92 -81 168q-64 83 -142 104q46 71 72 71q10 0 36.5 -13t28.5 -13q3 0 19 12q21 15 32 21q-6 -18 -39 -42q56 -35 88 -98q21 -55 43 -110l58 138q55 113 102 113q20 0 45 -17q29 -20 29 -42q0 -9 -16.5 -33t-22.5 -28q-23 35 -66 35q-33 0 -73 -97q-29 -70 -37 -112
q28 21 85 64q5 -12 -75 -74q-4 0 -6 2.5l-2 2.5q-10 -14 -7 -24q52 -263 230 -293q11 0 11 -5zM296 497q3 99 0 103q-47 -32 -47 -50t16.5 -35t30.5 -18zM334 451h-17l-2 -9q7 -3 19 9zM503 233q0 3 -6 9q-13 -4 -32 -20t-24 -27l31 -4q31 22 31 42zM706 -61q-12 6 -31 27
q-23 -17 -29 -30q21 -2 60 3zM299 307q0 9 -15 85q0 7 9 25t6 29q-11 11 -20 11q-7 0 -60 -41.5t-53 -53.5q0 -21 61 -51q40 -19 69 -28q3 10 3 24zM347 195q0 6 -21 24h-11v-64q8 5 20 19t12 21zM583 -60q-47 34 -57 34q-7 0 -22.5 -16t-18.5 -22q65 0 98 4zM299 79v147
q-2 4 -13 10t-14 6q-6 0 -24.5 -15t-20.5 -23q10 0 23.5 -11t13.5 -22q0 -3 -8 -30.5t-9 -40.5q39 -26 45 -26q1 0 7 5zM397 -60q-28 10 -82 26l-3 -27q4 -2 43 -2q39 1 42 3zM299 5q0 9 -3 15q-56 -52 -79 -81q2 -1 18 -1q14 0 39 25.5t25 41.5zM299 -58q0 3 -1.5 9t-1.5 7
q-26 -12 -26 -22h24z" />
    <glyph glyph-name="Y" unicode="Y" horiz-adv-x="932" 
d="M527 669l-34 -28l-2 3l34 28zM419 431q0 -8 -18 -20q-14 -9 -29 -18q-2 5 35 38h12zM900 -62q-2 -5 -16.5 -10t-20.5 -5q-4 0 -15 5l3 10h49zM857 686q-2 -21 -6 -60l-1 -610q1 -28 -8 -82q-14 -42 -106 -133q-97 -96 -138 -96q-31 0 -100 33q-84 41 -84 86q0 17 46 78
q4 -4 4 -11q0 -30 95 -76q83 -41 99 -41q24 0 57 34q29 30 34 50q9 33 9 108l-3 137q0 5 -4 16q-41 -34 -82 -69q-52 -43 -81 -43q-46 0 -142 92q-4 0 -21 -13t-26 -27q1 -13 -4 -38q-7 -14 -23 -45q7 3 52 29q30 17 56 17q25 0 69.5 -30.5t52.5 -30.5q11 0 30 16
q30 24 34 27q1 -1 4.5 -3t4.5 -3q-10 -7 -10 -18t14 -21.5t22 -10.5q4 0 17.5 6.5t18.5 6.5q1 -4 -12 -17q0 -1 18 -12q-6 -6 -21 -6q-18 0 -21.5 -1t-8.5 -5.5t-8 -4.5q-4 0 -9.5 4.5t-8.5 5.5l-335 3q-23 0 -24 -1q-5 -4 -13 -35q-3 4 -7 24q-2 14 -15 12l-174 2
q-23 0 -27 -5t-21 -10q1 3 5 11q-5 5 -21 5h-24q-6 1 -10 3q4 9 30 9q3 0 15.5 -1.5t15.5 -1.5q10 0 30 17t42 17q3 0 19 -1.5t20 -1.5q20 0 50 14q39 18 39 46q0 10 -29 25t-29 37q0 2 9 30t9 31q0 11 -20 21q-15 8 -23 8q-4 0 -25 -7q14 17 28 28q31 23 62 47q-7 6 -75 43
q-40 21 -40 54q0 20 57 66l66 52q-13 15 -26.5 31.5t-13.5 36.5q0 26 19.5 43t40.5 34q-24 24 -47 48q-38 38 -47 38q1 0 -82 -38q14 14 49 36q41 25 60 25q20 0 41 -21.5t40 -42.5h8v78q7 6 10 6v-95q2 -2 8 -2q5 0 26.5 15t28.5 14q-3 -9 -29.5 -28t-33.5 -33l2 -100
l99 65l-96 -83q4 -6 14 -6q31 0 89 25q-6 -9 -60 -55q-48 -41 -48 -52q0 -15 26.5 -34t26.5 -33q0 -16 -20 -32q-27 -22 -33 -30q1 0 36 -21q27 -17 27 -41q0 -11 -20 -36.5t-20 -35.5t27.5 -39.5t36.5 -29.5q3 0 21 15q23 19 28 23q-7 17 -15 34q-8 22 -8 54l18 333
q0 23 -33 58q-29 32 -45 36q3 5 35 27.5t44 22.5q20 0 57 -46q31 -40 34 -52q6 -28 6 -56q4 -4 6 -4q-1 0 20.5 15.5t34.5 15.5q22 0 37 -20.5t17 -20.5q4 0 34 21q39 28 53 37q2 -9 -38.5 -41t-40.5 -38q0 -9 13.5 -31t25.5 -22q9 0 23 4q0 -8 -17 -22q-21 -18 -25 -25
q6 -9 25 -19q12 -7 12 -24v-15q4 -4 5 -4q3 0 10.5 3.5t9.5 3.5q-2 -8 -19.5 -26t-17.5 -21q0 -8 15 -29t15 -40q0 -14 -16 -34t-35 -31h-12q1 4 18 23t17 23q0 -3 -32 63q-21 -6 -63 -39.5t-62 -39.5q2 7 36 36q31 28 31 35q0 15 -13 31q-15 21 -40 21q-6 0 -12 -2
q16 16 65 60l-36 24q-14 10 -14 28q0 19 48 58q0 11 -11 29t-22 18q-12 0 -45 -27q0 -11 -3 -33l-5 -240q0 -33 47 -90q48 -60 80 -60q26 0 67 53q36 48 36 61q2 49 -1 97l-3 175q2 56 2 85q0 85 105 142zM665 407q-25 10 -44 52q-32 -12 -32 -25q0 -9 25.5 -22.5
t37.5 -13.5q6 0 13 9zM690 322q0 11 -20.5 23t-34.5 12q-7 0 -19.5 -9t-13.5 -16q18 -6 31 -25.5t11 -33.5q30 18 32 19q14 12 14 30zM291 501v101q-50 -17 -50 -50q0 -9 15.5 -32t28.5 -23q5 0 6 4zM328 456h-13q-4 -1 -8 -13q12 -4 21 13zM319 316q0 13 -15 15
q-4 -17 0 -30q15 2 15 15zM291 445q0 17 -19 17q-10 0 -61 -41.5t-51 -52.5q0 -21 53 -50q36 -19 72 -31l3 56q-30 33 -30 41q0 13 16.5 27.5t16.5 33.5zM644 -59q-6 15 -13 15q-13 0 -16 -15h29zM336 197q0 10 -14 19q-11 6 -18 8v-64q32 21 32 37zM291 202q0 45 -29 45
q-5 0 -46 -35q37 -16 37 -39q0 -3 -8.5 -30.5t-8.5 -30.5q0 -21 49 -35zM532 -56q-72 48 -88 48q-15 0 -48 -20q-28 -18 -42 -31q73 -2 178 3zM346 43q0 9 -42 43l-3 -79q9 3 27 16t18 20zM366 13q0 4 -1.5 9l-1.5 5q-25 -14 -50 -29q-15 -11 -15 -40q0 -7 6 -17h15
q11 0 29 32t18 40zM288 -5v27l-85 -78q78 -3 83 0q0 25 -1 27q-3 -1 -10 -5.5t-10 -4.5q-6 0 -4 2q-1 8 13 18.5t14 13.5z" />
    <glyph glyph-name="Z" unicode="Z" horiz-adv-x="839" 
d="M697 149q-3 -14 -27 -29q-6 -3 -12 -3q-12 0 -15 8q-2 18 -11 54q-4 7 -8 7q-8 0 -17 -10q13 -19 13 -28q0 -2 -3.5 -12t-17 -20.5t-26.5 -12.5q-3 3 -2 5q19 20 19 24q0 7 -5.5 13.5t-9.5 6.5q-9 0 -28 -19q-2 -1 -14 -3q-1 10 10 19q25 19 78 56q14 9 22 9q4 0 6 -1
q14 -9 15 -18q1 -19 13 -53q1 1 20 7zM798 670q-25 -42 -26 -43q-20 -29 -40 -41q-27 -16 -60 -99q-49 -121 -52 -126q9 -10 30 -14q31 -5 35 -6q-12 -41 -30 -58q-7 -7 -30 -7q-3 0 -16 4.5t-17 4.5q-2 0 -15.5 -21.5t-16.5 -26.5l-30 -68q-21 -47 -42 -76q8 -2 43 -2h60
l158 2q20 0 53 16q-15 -30 -31 -60q-23 -42 -42 -50h-27h-36.5h-36.5q-19 0 -19 -18q0 -14 35 -24q27 -7 47 -7q1 0 61 15q-3 -5 -13 -11t-15 -12q5 -3 18 -3t20 -5q-9 -6 -28 -6h-13q-17 0 -25 -4q-19 -9 -17 -9q-2 0 -9 9q-7 3 -12 3l-315 3q-37 0 -39 -7q-2 -11 -3 -21
q-2 -15 -10 -15q-1 18 -3 39q-2 4 -14 4h-195q-3 0 -13 -8.5t-13 -9.5q-2 7 2 14q-6 5 -34 5q-15 0 -22 6q12 1 12 5q0 2 -5 5t-7 2t23 -5t31 -4q14 0 35.5 11.5t51.5 11.5q3 0 10.5 -1t10.5 -1q22 0 55 12q47 17 47 45q0 13 -29 27.5t-29 36.5q0 3 7.5 30.5t7.5 30.5
q0 8 -14.5 19t-24.5 11q-3 0 -6.5 -2.5t-6.5 -2.5t-7.5 -1t-5.5 -1q14 19 42 40q34 25 46 37l-64 34q-52 29 -52 53q0 32 49 69q73 55 74 56q-2 9 -23 27q-17 15 -17 45q0 24 20.5 40t42.5 34q-23 23 -46 47q-38 38 -46 38q2 0 -81 -38q5 11 47.5 37.5t58.5 26.5t38 -22.5
t43 -44.5q7 5 7 30q1 45 2 60q9 -9 9 -19q1 -49 -2 -69q0 -2 5 -13q6 -3 19 6t21 9q-2 -9 -22.5 -24.5t-22.5 -26.5l2 -96q14 3 48.5 39t46.5 36q-32 -35 -92 -94q6 -6 14 -6q16 0 30 3q27 12 79 35v-12q-23 -18 -91 -68q-29 -20 -37 -41q3 -4 20.5 -9t25.5 -5h10
q14 10 42 31q16 13 62 42q-7 -13 -7 -20q0 -9 8.5 -17t14.5 -8q3 0 21 11q23 14 28 17q-3 -12 -22 -30t-31 -23q-7 -3 -14 -3q-11 0 -18 7t-12 22q0 4 -4 4q-10 0 -44 -35q3 -6 18 -9q10 -2 19 -3q10 -4 20 -23q1 -3 1 -11q0 -7 -1 -10q-3 -14 -24 -36q8 -5 20 -18.5
t12 -24.5q0 -7 -3 -13q-25 -45 -61 -59q11 16 31 47q3 6 3 11q0 11 -11.5 23.5t-19.5 12.5q-3 0 -10 -4.5t-13 -4.5q-1 0 0 5t5 8q52 42 52 49q0 20 -79 26q-19 0 -39 -30l2 -22q9 -1 23.5 10.5t22.5 13.5q1 -8 -19 -24q-23 -19 -27 -26q16 -11 39 -32q9 -13 9 -18t-11 -25
t-11 -30t15 -30.5t15 -27.5q0 -16 -30.5 -41.5t-30.5 -37.5v-57q0 -7 7 -9q4 -1 12 0.5t7 1.5q10 0 15 4q17 8 58 29q7 3 17 3q2 0 2 2q-1 2 -1 1q0 1 3 0q17 -5 53 -22q17 -5 52 -16q3 -1 9 -1q8 0 13 3q17 8 52 30q0 2 -4 5q-14 4 -20 4q-152 0 -141 0q-66 -4 -84 0
q22 103 87 94q42 72 107 200q-21 9 -36 10q6 -1 -37 -2q21 54 43 66q19 10 30 10q4 0 14.5 -4.5t15.5 -3.5q4 4 12 22q10 26 31 77l20 52q15 38 37 59l-200 2q-27 0 -74 -4q-2 0 -7.5 -1.5t-9.5 -1.5l-15 -1q11 25 55 95zM291 594q-10 -3 -30 -20t-20 -27q0 -17 18.5 -38.5
t29.5 -19.5zM326 445q-3 2 -10.5 -1t-11.5 -10q3 -3 9 -3q6 4 13 14zM291 299q-6 2 -17 6q2 9 10 16q5 5 5 17q0 13 -11.5 24.5t-11.5 18.5q0 10 23 33v34q-4 0 -9.5 1.5t-8.5 1.5q-8 0 -59 -41.5t-51 -52.5q0 -15 52 -48q49 -32 60 -31h16q0 18 2 21zM592 -59q0 3 -16 22
q-18 -12 -21 -22h37zM327 192q0 4 -8 11t-12 8l-2 -51q22 22 22 32zM291 68v147q0 5 -10.5 13.5t-16.5 8.5q-5 0 -23 -15t-22 -23q35 -7 35 -34q0 -2 -7 -30q-7 -31 -8 -44l39 -23h13zM329 83q0 6 -9.5 18.5t-15.5 14.5q0 -52 2 -58q4 1 13.5 10.5t9.5 14.5zM472 -58
q-17 11 -44 21q-23 8 -30 8q-1 0 -11 -4q-15 -6 -43 -25h128zM291 -7q0 6 -5 16q-12 -5 -12 -15q0 -11 12 -15zM256 -54q-6 6 -16 17q-11 -4 -21.5 -9t-12.5 -11q17 -3 50 3z" />
    <glyph glyph-name="bracketleft" unicode="[" horiz-adv-x="184" 
d="M120 -59q0 -7 -13 -7h-65h-11q0 1 -9 1q-17 0 -17 17v765q0 14 14 14h90q13 0 12 -16l-1 -18q-1 -10 -13 -10h-47v-711h47q15 0 14 -14z" />
    <glyph glyph-name="backslash" unicode="\" horiz-adv-x="327" 
d="M42 693h-20q-18 0 -14 -14l200 -691q4 -14 14 -14h20q18 0 14 14l-200 691q-4 14 -14 14z" />
    <glyph glyph-name="bracketright" unicode="]" horiz-adv-x="184" 
d="M4 -59q0 -7 13 -7h64h12q1 1 9 1q5 0 11 5.5t6 11.5v765q0 14 -14 14h-90q-13 0 -12 -16l1 -18q1 -10 13 -10h47v-711h-47q-15 0 -14 -14z" />
    <glyph glyph-name="asciicircum" unicode="^" horiz-adv-x="536" 
d="M346 728l-11 -19l-118 54l-115 -59l-13 15l128 109z" />
    <glyph glyph-name="underscore" unicode="_" horiz-adv-x="397" 
d="M-4 -60h403v-49h-403v49z" />
    <glyph glyph-name="grave" unicode="`" horiz-adv-x="600" 
d="M167 774l207 -69l13 30l-192 100z" />
    <glyph glyph-name="a" unicode="a" horiz-adv-x="399" 
d="M377 37q-44 -42 -55 -42q-23 0 -46.5 27t-23.5 50q0 28 -2 24q-14 -29 -51 -63q-40 -37 -62 -37q-49 0 -91 73q-38 66 -38 123q0 52 18 87q15 29 61 76q51 52 74 52q43 0 89 -76q-2 39 1.5 48t38.5 28q18 8 35 17q-1 -5 -1 -77q0 -48 1 -134t1 -90t-1 -12v-12
q0 -32 52 -62zM252 175q0 6 -1 17t-1 16q0 30 -52 86.5t-81 56.5q-23 0 -35 -28q-8 -20 -8 -46q0 -81 25 -132q12 -23 37 -52q31 -35 48 -35q26 0 48 46q20 41 20 71z" />
    <glyph glyph-name="b" unicode="b" horiz-adv-x="401" 
d="M351 205q0 -48 -7 -73q-6 -21 -69.5 -73.5t-86.5 -52.5q-25 0 -51 23q-19 21 -39 42q-1 0 0 -32l-79 -58v633q-4 17 13 25q0 2 77 52q-15 -25 -15 -44l3 -320q66 80 105 80q60 0 107 -73q42 -66 42 -129zM155 349q-29 0 -46 -38q-12 -28 -14 -62l-2 -40q0 -17 5 -39
q6 -26 59.5 -68t80.5 -42q19 0 34 18.5t15 37.5q0 71 -19 118q-21 51 -72 94q-24 21 -41 21z" />
    <glyph glyph-name="c" unicode="c" horiz-adv-x="324" 
d="M288 328q0 -14 -30 -65q-1 27 -49.5 60.5t-76.5 33.5q-32 0 -49 -29q-14 -24 -14 -57q0 -82 22 -131q13 -29 67 -58q51 -27 87 -27q6 0 30 12l5 -2q-45 -71 -74 -71q-10 0 -63 14q-137 35 -137 189q0 45 11 84q7 25 69 77t88 52t70 -29t44 -53z" />
    <glyph glyph-name="d" unicode="d" horiz-adv-x="411" 
d="M399 40l-51 -44q-41 2 -87 94q-59 -97 -102 -97q-55 0 -102 68q-43 63 -43 121q0 49 7 80q8 35 66 90t91 55q27 0 79 -44v165q0 65 -57 85q-5 1 -22 -2l63 50q35 -10 65 -47t30 -76q0 25 7 -327q1 -90 2 -94q7 -56 43 -77q3 1 11 0zM266 226q0 46 -46 84t-93 38
q-50 0 -50 -58q0 -75 15 -117q10 -26 48 -70q42 -49 64 -49q25 0 50 51q12 24 12 121z" />
    <glyph glyph-name="e" unicode="e" horiz-adv-x="342" 
d="M311 304q0 -23 -42.5 -69.5t-67.5 -44.5q-36 2 -123 0v-13q0 -40 69 -85q65 -42 108 -42q-4 0 33 18l2 -6q-32 -37 -38 -43q-27 -25 -50 -25q-59 0 -123 48q-69 51 -69 109v67q0 15 6.5 43t15.5 37q101 109 147 109q36 0 84 -35t48 -68zM259 261q0 22 -52.5 58t-77.5 36
q-28 0 -44 -28q-12 -23 -12 -54q0 -44 3 -55q1 1 20 19q13 12 27 12q61 0 122 -5q5 0 9.5 6t4.5 11z" />
    <glyph glyph-name="f" unicode="f" horiz-adv-x="228" 
d="M231 615q0 -17 -14 -33q-8 -9 -40 -37q9 27 9 31q0 10 -13 32t-25 22q-6 0 -14.5 -6.5t-8.5 -14.5q5 -104 0 -207l98 -1l-39 -29q-8 1 -57 0l1 -398v-31q-2 -14 -13 -28q-28 -23 -82 -61q20 51 17 82v433l-64 -1l24 34q37 4 42 79q1 14 0 56q-1 30 62 87q59 54 75 54
q19 0 32 -23q10 -19 10 -40zM49 421q-3 -7 -13 -19h13v19z" />
    <glyph glyph-name="g" unicode="g" horiz-adv-x="399" 
d="M340 431q-16 -24 -11 -45l-1 -427q1 -28 -5 -37q-36 -57 -145 -146q-6 -4 -21 -4q-26 0 -62 32q-30 27 -44 51q-8 14 2 34q14 18 39 47q0 -20 44 -65.5t65 -45.5q11 0 29.5 19.5t19 27t0.5 29.5q2 64 0 199q-66 -92 -101 -92q-27 0 -70 41q-35 35 -57 71.5t-22 79.5
q0 64 23 100q18 27 78 72q16 13 32 27q13 10 30 10q23 0 52.5 -19.5t38.5 -43.5q1 0 0 22q1 7 2.5 14.5t11.5 11.5q54 26 72 37zM252 201q0 33 -5 44q-18 39 -51 74q-42 43 -76 39q-21 -2 -39 -42q-12 -29 -14 -47q-1 -13 -1 -26q0 -74 50 -129q45 -50 73 -47q14 2 32 23
q15 18 20 31q11 31 11 80z" />
    <glyph glyph-name="h" unicode="h" horiz-adv-x="392" 
d="M377 35q-3 -7 -30 -30.5t-33 -23.5q-18 0 -44 29.5t-26 48.5q0 197 1 218q0 16 -27 42.5t-42 26.5q-12 0 -34 -25q-30 -35 -38 -50q-12 -20 -9 -39l-1 -178q0 -23 -9 -27q-21 -15 -64 -40v620q0 18 32 41q24 16 49 32q-3 -9 -8 -27l1 -358l56 68q40 43 66 43
q25 0 57 -28.5t47 -61.5q5 -11 5 -42l-1 -196q0 -24 32 -45q3 -2 10 -1z" />
    <glyph glyph-name="i" unicode="i" horiz-adv-x="158" 
d="M129 528q-8 -17 -16 -35q-13 -23 -27 -23q-6 0 -26 13.5t-31 13.5q-5 0 -13 -4q26 62 50 62q5 0 24.5 -14t26.5 -14q2 0 5.5 1t4.5 1zM139 40q-8 -12 -25 -27q-20 -16 -30 -16q-20 0 -40 24.5t-20 44.5v272q0 31 85 75q-14 -25 -14 -38v-275q0 -21 12 -39t32 -21z" />
    <glyph glyph-name="j" unicode="j" horiz-adv-x="257" 
d="M124 -89q1 -44 -7 -59q-10 -19 -23 -19q-18 0 -40 66q-47 -32 -47 -59q0 -19 13 -36q15 -20 35 -20q19 0 45 26q81 76 94 113q7 18 5 46v410q1 12 8 35q-21 -11 -83 -69v-434zM223 528q-8 -17 -16 -35q-13 -23 -27 -23q-6 0 -26 13.5t-31 13.5q-5 0 -13 -4q26 62 50 62
q5 0 24.5 -14t26.5 -14q2 0 5.5 1t4.5 1z" />
    <glyph glyph-name="k" unicode="k" horiz-adv-x="372" 
d="M363 44q-3 -11 -22.5 -28.5t-30.5 -17.5q-18 0 -41.5 13t-28.5 22.5t-22 66.5q-5 14 -35 32q-44 26 -66 26q-2 0 -6 -4q0 -43 1 -72t1 -22q0 -26 -25.5 -43.5t-50.5 -33.5h-6v54v86l-8 424q0 66 2 83q2 12 30 29q4 2 38 24h7l7 -362q0 -4 3 -8q28 28 56 57q43 38 65 38
q23 0 52.5 -30.5t29.5 -51.5q0 -15 -17 -48q-13 -25 -21.5 -35.5t-27.5 -20.5q-29 -14 -33 -17q18 -7 52 -27q13 -10 17 -29q2 -14 3 -28q4 -24 27.5 -49t49.5 -28zM248 263q0 18 -22 50t-43 32q-27 0 -59 -51q0 -5 -1 -13q-14 -30 -14 -58q0 -24 5 -29q23 23 40 23
q3 0 10 -1t9 -1q16 0 42 12q33 16 33 36z" />
    <glyph glyph-name="l" unicode="l" horiz-adv-x="177" 
d="M149 45q-26 -41 -52 -41q-16 0 -40.5 20.5t-30.5 41.5q-5 15 -5 49q0 52 -1 56q-1 25 -1 51q0 -19 0 149l-2 213q0 47 14 63q6 6 63 39l4 -3q-1 -8 -1 -35l6 -540q1 -16 15 -35t31 -28z" />
    <glyph glyph-name="m" unicode="m" horiz-adv-x="639" 
d="M612 52q0 -7 -27.5 -27.5t-35.5 -20.5q-11 0 -36 24q-22 20 -26 27q-10 15 -10 47l13 164q0 13 -5 23q-8 17 -35 42q-29 29 -44 29t-33 -33q-14 -25 -15 -34q-3 -17 -7 -61l-2 -149q1 -17 -7 -43q-11 -12 -31.5 -22t-40.5 -20l1 277q4 16 -23.5 48t-44.5 32
q-19 0 -41.5 -37t-22.5 -54v-206q0 -26 -25 -42q-29 -13 -57 -26v320q0 15 -21 39.5t-36 25.5q44 37 58 37q17 0 40 -19q17 -15 25 -27q3 -5 15 -44h4l46 54q32 36 56 36q26 0 60 -25.5t46 -54.5q23 26 45 51q30 33 53 33q30 0 66 -29q31 -26 51 -59q9 -16 9 -46l-10 -165
v-26q4 -17 23 -36q4 -5 10 -5q3 0 7 1t8 1z" />
    <glyph glyph-name="n" unicode="n" horiz-adv-x="435" 
d="M403 52q0 -3 -21.5 -23.5t-30.5 -20.5q-27 0 -69 47q-4 4 -9 28l6 185q0 21 -3 27q-8 18 -34 39t-41 21q-21 0 -47 -41q-22 -36 -22 -52v-169q0 -50 -9 -60q-32 -21 -64 -41h-7v320q0 13 -23 39.5t-34 21.5q3 7 25 24t32 17q12 0 36 -17q13 -10 26 -27q2 -3 19 -48l55 55
q39 37 59 37q22 0 61 -27t52 -52q7 -13 7 -39l-12 -181q0 -45 48 -63z" />
    <glyph glyph-name="o" unicode="o" horiz-adv-x="376" 
d="M328 194q0 -4 -8 -60q-4 -36 -69 -88.5t-101 -52.5q-27 0 -78 41q-43 33 -58 70q-14 33 -14 90q0 87 36 124q91 91 128 91q63 0 116 -78q48 -71 48 -137zM259 121q0 76 -42 141q-17 27 -45 57q-36 38 -55 38q-25 0 -40 -31q-12 -25 -12 -54q0 -74 16 -112q19 -43 75 -86
q38 -29 52 -29q24 0 39 28q12 23 12 48z" />
    <glyph glyph-name="p" unicode="p" horiz-adv-x="455" 
d="M394 188v-18q0 -47 -57 -115t-103 -68q-13 0 -41.5 9t-42.5 9q-6 0 -11 -1v-163q0 -17 29 -47.5t46 -31.5q-47 -45 -59 -45q-100 0 -100 210q0 23 1.5 54.5t1.5 38.5q-19 8 -56 19l-2 5q9 10 17 33t18 32q7 1 13 2q3 1 3 5q-3 47 -1 132q3 123 3 133q0 31 26 54
q9 8 53 34q-3 -15 -1 -76l2 -71l3 -1q1 0 38.5 36.5t67.5 36.5q60 0 108 -75q43 -66 44 -131zM333 108q0 104 -55 164q-60 66 -87 66q-30 0 -46 -45q-12 -33 -12 -69q0 -104 7 -142q18 -7 73 -23q59 -16 72 -16q20 0 34 22t14 43z" />
    <glyph glyph-name="q" unicode="q" horiz-adv-x="403" 
d="M376 -197q-20 -32 -28 -41q-19 -22 -42 -22q-24 0 -74 10t-75 9q30 77 82 69q23 26 23 77v169l-3 4q-23 -26 -45 -52q-30 -34 -51 -34q-57 0 -105 67q-44 62 -44 122q0 64 14 99q10 27 70 75t86 48q27 0 46 -20q10 -11 29 -44q7 5 10.5 26.5t15.5 28.5q6 4 56 31v-510
q0 -27 -24 -52q-4 -4 -47 -39l4 -4q71 -16 99 -12zM264 215q0 25 -55 78.5t-82 53.5q-46 0 -46 -76q0 -105 33 -145q15 -19 43 -43q35 -29 49 -29q15 0 37 39q21 36 21 53v69z" />
    <glyph glyph-name="r" unicode="r" horiz-adv-x="305" 
d="M282 358q0 -31 -16 -65q-17 -39 -42 -47v7q0 7 8.5 27t8.5 30t-17.5 19.5t-29.5 9.5q-43 0 -54 -89q-3 -25 -3 -122q0 -32 11 -59q15 -37 43 -30q-38 -52 -57 -52q-30 0 -55 44q-22 39 -22 72q0 28 2.5 83.5t2.5 83.5q0 37 -11 55q-9 14 -43 40l1 6q38 30 52 30
q45 0 78 -77q7 5 42 51q26 35 55 35q46 0 46 -52z" />
    <glyph glyph-name="s" unicode="s" horiz-adv-x="346" 
d="M306 134q0 -24 -61 -84t-87 -60q-21 0 -74 18q-64 22 -77 25q33 58 53 58q25 0 73 -19.5t73 -19.5q11 0 27.5 12.5t16.5 23.5q0 9 -16 30q-37 47 -74 47q-6 0 -27 -1.5t-37 -1.5q-34 0 -65 30.5t-31 64.5q0 36 65 94.5t102 58.5q32 0 70 -25q43 -27 43 -56
q0 -8 -14 -25.5t-23 -25.5h-7l-2 12q-19 20 -58 40q-42 22 -68 22q-16 0 -35 -16.5t-19 -32.5q0 -15 21 -40t35.5 -29t33.5 -5q12 -1 34.5 0.5t31.5 1.5q34 0 65 -31.5t31 -65.5z" />
    <glyph glyph-name="t" unicode="t" horiz-adv-x="311" 
d="M286 404q-5 -33 -36 -41q-12 -4 -57 -4l-6 -7v-28q0 -1 -2 -43q-1 -33 -1 -57q0 -181 60 -196q-34 -53 -56 -53q-25 0 -53 34.5t-28 60.5v286h-107q11 25 63 60q44 30 44 67q0 23 29 46q9 8 49 33h8q-9 -33 -9 -54l3 -104q6 -6 48 -5q40 1 51 5zM107 412q0 8 -6 12
q-8 -5 -19 -21l19 -3q6 5 6 12z" />
    <glyph glyph-name="u" unicode="u" horiz-adv-x="451" 
d="M425 34q-34 -46 -54 -46q-46 0 -79 89q-3 0 -45 -47.5t-63 -47.5q-35 0 -87.5 49t-50.5 83l16 188q2 18 -21 41t-41 24q54 42 65 42q29 0 56 -31.5t26 -60.5l-9 -162q-2 -29 30.5 -67.5t61.5 -38.5q7 0 24.5 17.5t22.5 25.5q20 36 24 109q1 54 1 109q1 19 -14.5 38
t-34.5 24q44 37 64 37q22 0 46.5 -28t23.5 -51l-9 -221q-2 -58 47 -75z" />
    <glyph glyph-name="v" unicode="v" horiz-adv-x="426" 
d="M383 240q0 -54 -73.5 -156t-108.5 -102q-46 0 -98.5 51.5t-49.5 97.5l14 166q1 20 -23 43t-44 18q48 44 67 44q37 0 63 -35q23 -33 21 -70l-9 -144q-1 -25 37.5 -67t61.5 -42q33 0 52 59q14 43 14 85q0 193 -69 179q49 46 63 46q82 0 82 -173z" />
    <glyph glyph-name="w" unicode="w" horiz-adv-x="627" 
d="M581 273v-23q0 -57 -77.5 -161.5t-121.5 -104.5q-30 0 -65 36q-29 28 -47 62q-24 -28 -49 -56q-36 -40 -55 -40q-35 0 -83 47.5t-45 81.5l16 195q1 17 -18.5 40t-35.5 21q39 38 55 38q36 0 61 -36q22 -34 20 -70l-9 -139q-2 -31 25.5 -73t56.5 -42q53 0 53 156
q0 25 -1.5 61.5t-1.5 42.5q0 62 19 76q34 17 69 35q-4 -40 -4 -32q0 -5 -1 -38q-2 -36 -2 -63q0 -243 92 -243q37 0 57 66q14 47 14 95q0 55 -8 99q-15 78 -49 78q-5 0 -10 -1l-4 2l30 22q21 15 32 15q48 0 71 -54q16 -39 16 -93z" />
    <glyph glyph-name="x" unicode="x" horiz-adv-x="389" 
d="M359 368q0 -9 -12 -34t-14 -26q-2 10 -16.5 19t-26.5 9q-11 0 -16 -5q-10 -9 -33 -53q-24 -47 -24 -62q0 -1 13 -51q17 -62 67 -90l45 -24q8 0 8 4q3 0 3 -5q0 -4 -16.5 -29t-23 -28.5t-16.5 -3.5q-19 0 -46 12.5t-36 26.5q-21 33 -31 94q-1 2 -5 7q-3 0 -4 -1
q-19 -41 -37 -81q-29 -56 -55 -56q-2 0 -33 4q-34 4 -50 5q11 24 23.5 46t38.5 22q2 0 19.5 -2.5t20.5 -2.5q10 0 13 3q9 7 14 16q41 78 41 91q0 16 -18 59q-12 27 -15 32q-11 22 -25 36q-11 11 -35 23.5t-40 12.5q-7 0 -20 -4l26 42q19 28 36 28q27 0 62.5 -24.5
t41.5 -46.5q3 -6 7 -20q1 -5 3.5 -13t4.5 -21t7 -20q11 13 25 57q8 25 34.5 57.5t44.5 32.5t34 -10.5t16 -25.5z" />
    <glyph glyph-name="y" unicode="y" horiz-adv-x="416" 
d="M359 -2q2 -41 -3 -95q-2 -23 -20.5 -40.5t-55.5 -50.5q-23 -22 -45 -45q-41 -37 -58 -37q-27 0 -67 38.5t-40 66.5q0 25 43 54q-3 -20 45 -60t71 -40q15 0 31 23t16 36v239q2 2 -3 2q-2 0 -43 -49t-57 -49q-29 0 -70.5 34t-53.5 63q-7 16 -7 50l13 161q0 32 -40 60
q-5 3 -15 3q1 8 24 24t32 16q19 0 48 -27q26 -25 29 -37t3 -33l-9 -138q0 -28 7 -42.5t33 -40.5q29 -29 43 -29q8 0 30 26t35 71q3 9 3 15v135q0 3 1 7v7q0 43 9 57q3 7 33 25q10 7 38 20v-420z" />
    <glyph glyph-name="z" unicode="z" horiz-adv-x="348" 
d="M314 59q0 -7 -33 -52q-10 -13 -30 -13l-191 6q-3 0 -16 1t-20 1q-27 -3 -22 -4h-9q10 24 21 47q14 28 37 30q11 1 14 6q18 24 55 90q-8 6 -28 6q-11 0 -22 -4q10 21 21 41q17 25 37 25q2 0 12.5 -2.5t12.5 -2.5q12 0 17 10l11 22q10 15 33 46q-5 7 -20 7l-162 7
q-20 0 -39 -6q0 8 3 12q15 24 30 49q14 17 49 17l232 -14q-7 -20 -28 -53q-17 -8 -48 -30q-6 -7 -40 -70q15 -2 40 -8l-24 -40q-9 -15 -30 -15q-2 0 -8 1t-9 1q-5 0 -28 -39q-17 -29 -33 -57q13 -4 53 -4h5q2 0 21 -1.5t27 -1.5q72 -3 103 -2q2 0 6 5v-11z" />
    <glyph glyph-name="braceleft" unicode="{" horiz-adv-x="300" 
d="M54 307q80 -48 80 -171q0 -20 -2 -57.5t-2 -53.5q0 -48 15 -72q18 -30 64 -34v-19h-18q-72 0 -100 39q-22 30 -22 94q0 18 2.5 57.5t2.5 59.5q0 118 -81 146v22q81 28 81 137q0 21 -3.5 63.5t-3.5 62.5q0 64 26 95q33 39 117 39v-20q-47 -4 -65 -34q-15 -23 -15 -72
q0 -16 2.5 -54t2.5 -57q0 -123 -81 -171z" />
    <glyph glyph-name="bar" unicode="|" horiz-adv-x="135" 
d="M20 -119v846h63v-846h-63z" />
    <glyph glyph-name="braceright" unicode="}" horiz-adv-x="301" 
d="M163 307q-80 -48 -80 -170q0 -20 2 -58t2 -54q0 -49 -14 -72q-19 -30 -65 -34v-19h18q72 0 100 39q22 30 22 94q0 18 -2.5 57.5t-2.5 59.5q0 118 81 146v22q-81 28 -81 137q0 21 3.5 63.5t3.5 62.5q0 64 -26 95q-33 39 -117 39v-20q47 -4 66 -34q14 -23 14 -72
q0 -16 -2 -54t-2 -58q0 -122 80 -170z" />
    <glyph glyph-name="asciitilde" unicode="~" horiz-adv-x="326" 
d="M282 761q-36 -46 -82 -46q-22 0 -46 14.5t-44 14.5q-36 0 -51 -17l-17 27q33 45 82 45q21 0 45.5 -14.5t44.5 -14.5q40 0 55 18z" />
    <glyph glyph-name="Adieresis" unicode="&#xc4;" 
 />
    <glyph glyph-name="Aring" unicode="&#xc5;" 
 />
    <glyph glyph-name="Ccedilla" unicode="&#xc7;" 
 />
    <glyph glyph-name="Eacute" unicode="&#xc9;" 
 />
    <glyph glyph-name="Ntilde" unicode="&#xd1;" 
 />
    <glyph glyph-name="Odieresis" unicode="&#xd6;" 
 />
    <glyph glyph-name="Udieresis" unicode="&#xdc;" 
 />
    <glyph glyph-name="aacute" unicode="&#xe1;" horiz-adv-x="390" 
d="M282 513l-175 -58l-11 25l163 85zM369 37q-44 -42 -56 -42q-22 0 -45.5 27t-23.5 50q0 28 -2 24q-14 -29 -51 -63q-40 -37 -62 -37q-49 0 -91 73q-38 66 -38 123q0 52 18 87q15 29 61 76q51 52 73 52q44 0 89 -76q-1 39 2.5 48t38.5 28q18 8 35 17q-1 -5 -1 -77
q0 -48 1 -134t1 -90t-1 -12v-12q0 -32 52 -62zM243 175v17q-1 11 -1 16q0 30 -52.5 86.5t-81.5 56.5q-22 0 -34 -28q-8 -20 -8 -46q0 -81 25 -132q11 -23 37 -52q31 -35 47 -35q27 0 49 46q19 41 19 71z" />
    <glyph glyph-name="agrave" unicode="&#xe0;" horiz-adv-x="390" 
d="M369 37q-44 -42 -56 -42q-22 0 -45.5 27t-23.5 50q0 28 -2 24q-14 -29 -51 -63q-40 -37 -62 -37q-49 0 -91 73q-38 66 -38 123q0 52 18 87q15 29 61 76q51 52 73 52q44 0 89 -76q-1 39 2.5 48t38.5 28q18 8 35 17q-1 -5 -1 -77q0 -48 1 -134t1 -90t-1 -12v-12
q0 -32 52 -62zM243 175v17q-1 11 -1 16q0 30 -52.5 86.5t-81.5 56.5q-22 0 -34 -28q-8 -20 -8 -46q0 -81 25 -132q11 -23 37 -52q31 -35 47 -35q27 0 49 46q19 41 19 71zM68 513l176 -58l11 25l-163 85z" />
    <glyph glyph-name="acircumflex" unicode="&#xe2;" horiz-adv-x="390" 
d="M369 37q-44 -42 -56 -42q-22 0 -45.5 27t-23.5 50q0 28 -2 24q-14 -29 -51 -63q-40 -37 -62 -37q-49 0 -91 73q-38 66 -38 123q0 52 18 87q15 29 61 76q51 52 73 52q44 0 89 -76q-1 39 2.5 48t38.5 28q18 8 35 17q-1 -5 -1 -77q0 -48 1 -134t1 -90t-1 -12v-12
q0 -32 52 -62zM243 175v17q-1 11 -1 16q0 30 -52.5 86.5t-81.5 56.5q-22 0 -34 -28q-8 -20 -8 -46q0 -81 25 -132q11 -23 37 -52q31 -35 47 -35q27 0 49 46q19 41 19 71zM293 482l-15 -26l-100 46l-98 -50l-14 23l111 83z" />
    <glyph glyph-name="adieresis" unicode="&#xe4;" horiz-adv-x="390" 
d="M369 37q-44 -42 -56 -42q-22 0 -45.5 27t-23.5 50q0 28 -2 24q-14 -29 -51 -63q-40 -37 -62 -37q-49 0 -91 73q-38 66 -38 123q0 52 18 87q15 29 61 76q51 52 73 52q44 0 89 -76q-1 39 2.5 48t38.5 28q18 8 35 17q-1 -5 -1 -77q0 -48 1 -134t1 -90t-1 -12v-12
q0 -32 52 -62zM243 175v17q-1 11 -1 16q0 30 -52.5 86.5t-81.5 56.5q-22 0 -34 -28q-8 -20 -8 -46q0 -81 25 -132q11 -23 37 -52q31 -35 47 -35q27 0 49 46q19 41 19 71zM215 504q0 16 11.5 27.5t27.5 11.5t27.5 -11.5t11.5 -27.5t-11.5 -27.5t-27.5 -11.5t-27.5 11.5
t-11.5 27.5zM79 504q0 16 11.5 27.5t27.5 11.5t27.5 -11.5t11.5 -27.5t-11.5 -27.5t-27.5 -11.5t-27.5 11.5t-11.5 27.5z" />
    <glyph glyph-name="atilde" unicode="&#xe3;" horiz-adv-x="390" 
d="M369 37q-44 -42 -56 -42q-22 0 -45.5 27t-23.5 50q0 28 -2 24q-14 -29 -51 -63q-40 -37 -62 -37q-49 0 -91 73q-38 66 -38 123q0 52 18 87q15 29 61 76q51 52 73 52q44 0 89 -76q-1 39 2.5 48t38.5 28q18 8 35 17q-1 -5 -1 -77q0 -48 1 -134t1 -90t-1 -12v-12
q0 -32 52 -62zM243 175v17q-1 11 -1 16q0 30 -52.5 86.5t-81.5 56.5q-22 0 -34 -28q-8 -20 -8 -46q0 -81 25 -132q11 -23 37 -52q31 -35 47 -35q27 0 49 46q19 41 19 71zM297 503q-37 -46 -82 -46q-22 0 -46.5 14.5t-43.5 14.5q-37 0 -52 -16l-16 17q33 45 82 45
q21 0 45 -14.5t45 -14.5q39 0 55 18z" />
    <glyph glyph-name="aring" unicode="&#xe5;" horiz-adv-x="390" 
d="M369 37q-44 -42 -56 -42q-22 0 -45.5 27t-23.5 50q0 28 -2 24q-14 -29 -51 -63q-40 -37 -62 -37q-49 0 -91 73q-38 66 -38 123q0 52 18 87q15 29 61 76q51 52 73 52q44 0 89 -76q-1 39 2.5 48t38.5 28q18 8 35 17q-1 -5 -1 -77q0 -48 1 -134t1 -90t-1 -12v-12
q0 -32 52 -62zM243 175v17q-1 11 -1 16q0 30 -52.5 86.5t-81.5 56.5q-22 0 -34 -28q-8 -20 -8 -46q0 -81 25 -132q11 -23 37 -52q31 -35 47 -35q27 0 49 46q19 41 19 71zM175 452q-31 0 -52.5 20t-21.5 48t22.5 47.5t52.5 19.5q31 0 53.5 -19.5t22.5 -47.5t-23 -48t-54 -20z
M177 552q-16 0 -27 -9.5t-11 -22.5t10.5 -23t25.5 -10q16 0 27 10t11 23t-11 22.5t-25 9.5z" />
    <glyph glyph-name="ccedilla" unicode="&#xe7;" horiz-adv-x="324" 
d="M231 -87q0 -24 -23 -45q-24 -24 -56 -24q-23 0 -55 16l15 34q26 -11 39 -11q10 0 22.5 11t12.5 20q0 10 -12.5 20.5t-23.5 10.5q-12 0 -22 -2l1 15l12 50q-135 36 -135 189q0 45 11 84q7 25 69 77t88 52t70 -29t44 -53q0 -14 -30 -65q-1 27 -49.5 60.5t-76.5 33.5
q-32 0 -49 -29q-14 -24 -14 -57q0 -82 22 -131q13 -29 67 -58q51 -27 87 -27q6 0 30 12l5 -2q-45 -71 -74 -71q-10 0 -26 3l-6 -22q25 -4 41 -23t16 -39z" />
    <glyph glyph-name="eacute" unicode="&#xe9;" horiz-adv-x="332" 
d="M301 304q0 -23 -42.5 -69.5t-67.5 -44.5q-36 2 -123 0v-13q0 -40 69 -85q65 -42 108 -42q-4 0 33 18l2 -6q-32 -37 -38 -43q-27 -25 -50 -25q-59 0 -123 48q-69 51 -69 109v67q0 15 6.5 43t15.5 37q101 109 147 109q36 0 84 -35t48 -68zM249 261q0 22 -52.5 58t-77.5 36
q-28 0 -44 -28q-12 -23 -12 -54q0 -44 3 -55q1 1 20 19q13 12 27 12q61 0 122 -5q5 0 9.5 6t4.5 11zM242 513l-175 -58l-11 25l163 85z" />
    <glyph glyph-name="egrave" unicode="&#xe8;" horiz-adv-x="332" 
d="M301 304q0 -23 -42.5 -69.5t-67.5 -44.5q-36 2 -123 0v-13q0 -40 69 -85q65 -42 108 -42q-4 0 33 18l2 -6q-32 -37 -38 -43q-27 -25 -50 -25q-59 0 -123 48q-69 51 -69 109v67q0 15 6.5 43t15.5 37q101 109 147 109q36 0 84 -35t48 -68zM249 261q0 22 -52.5 58t-77.5 36
q-28 0 -44 -28q-12 -23 -12 -54q0 -44 3 -55q1 1 20 19q13 12 27 12q61 0 122 -5q5 0 9.5 6t4.5 11zM57 513l175 -58l11 25l-163 85z" />
    <glyph glyph-name="ecircumflex" unicode="&#xea;" horiz-adv-x="332" 
d="M301 304q0 -23 -42.5 -69.5t-67.5 -44.5q-36 2 -123 0v-13q0 -40 69 -85q65 -42 108 -42q-4 0 33 18l2 -6q-32 -37 -38 -43q-27 -25 -50 -25q-59 0 -123 48q-69 51 -69 109v67q0 15 6.5 43t15.5 37q101 109 147 109q36 0 84 -35t48 -68zM249 261q0 22 -52.5 58t-77.5 36
q-28 0 -44 -28q-12 -23 -12 -54q0 -44 3 -55q1 1 20 19q13 12 27 12q61 0 122 -5q5 0 9.5 6t4.5 11zM273 482l-15 -26l-100 46l-98 -50l-14 23l111 83z" />
    <glyph glyph-name="edieresis" unicode="&#xeb;" horiz-adv-x="332" 
d="M301 304q0 -23 -42.5 -69.5t-67.5 -44.5q-36 2 -123 0v-13q0 -40 69 -85q65 -42 108 -42q-4 0 33 18l2 -6q-32 -37 -38 -43q-27 -25 -50 -25q-59 0 -123 48q-69 51 -69 109v67q0 15 6.5 43t15.5 37q101 109 147 109q36 0 84 -35t48 -68zM249 261q0 22 -52.5 58t-77.5 36
q-28 0 -44 -28q-12 -23 -12 -54q0 -44 3 -55q1 1 20 19q13 12 27 12q61 0 122 -5q5 0 9.5 6t4.5 11zM185 494q0 16 11.5 27.5t27.5 11.5t27.5 -11.5t11.5 -27.5t-11.5 -27.5t-27.5 -11.5t-27.5 11.5t-11.5 27.5zM49 494q0 16 11.5 27.5t27.5 11.5t27.5 -11.5t11.5 -27.5
t-11.5 -27.5t-27.5 -11.5t-27.5 11.5t-11.5 27.5z" />
    <glyph glyph-name="iacute" unicode="&#xed;" horiz-adv-x="172" 
d="M139 40q-8 -12 -25 -27q-20 -16 -30 -16q-20 0 -40 24.5t-20 44.5v272q0 31 85 75q-14 -25 -14 -38v-275q0 -21 12 -39t32 -21zM172 513l-175 -58l-11 25l163 85z" />
    <glyph glyph-name="igrave" unicode="&#xec;" horiz-adv-x="172" 
d="M139 40q-8 -12 -25 -27q-20 -16 -30 -16q-20 0 -40 24.5t-20 44.5v272q0 31 85 75q-14 -25 -14 -38v-275q0 -21 12 -39t32 -21zM-21 513l176 -58l11 25l-163 85z" />
    <glyph glyph-name="icircumflex" unicode="&#xee;" horiz-adv-x="172" 
d="M139 40q-8 -12 -25 -27q-20 -16 -30 -16q-20 0 -40 24.5t-20 44.5v272q0 31 85 75q-14 -25 -14 -38v-275q0 -21 12 -39t32 -21zM193 482l-15 -26l-100 46l-98 -50l-14 23l111 83z" />
    <glyph glyph-name="idieresis" unicode="&#xef;" horiz-adv-x="172" 
d="M139 40q-8 -12 -25 -27q-20 -16 -30 -16q-20 0 -40 24.5t-20 44.5v272q0 31 85 75q-14 -25 -14 -38v-275q0 -21 12 -39t32 -21zM95 494q0 16 11.5 27.5t27.5 11.5t27.5 -11.5t11.5 -27.5t-11.5 -27.5t-27.5 -11.5t-27.5 11.5t-11.5 27.5zM-31 494q0 16 11.5 27.5
t27.5 11.5t27.5 -11.5t11.5 -27.5t-11.5 -27.5t-27.5 -11.5t-27.5 11.5t-11.5 27.5z" />
    <glyph glyph-name="ntilde" unicode="&#xf1;" horiz-adv-x="435" 
d="M403 52q0 -3 -21.5 -23.5t-30.5 -20.5q-19 0 -58 43q-13 14 -15 92q0 3 1 125q0 21 -3 27q-8 19 -30.5 37.5t-38.5 18.5q-21 0 -50 -39q-25 -35 -25 -50v-169q0 -50 -9 -60q-32 -21 -64 -41h-7v320q0 13 -23 38t-34 19q3 8 25 27.5t31 19.5q28 0 63 -46q2 -3 19 -48
l55 55q39 37 59 37q22 0 56 -26.5t48 -52.5q7 -13 7 -39l-1 -180q0 -47 46 -64zM297 503q-37 -46 -82 -46q-22 0 -46.5 14.5t-43.5 14.5q-37 0 -52 -16l-16 17q33 45 82 45q21 0 45 -14.5t45 -14.5q39 0 55 18z" />
    <glyph glyph-name="oacute" unicode="&#xf3;" horiz-adv-x="376" 
d="M328 194q0 -4 -8 -60q-4 -36 -69 -88.5t-101 -52.5q-27 0 -78 41q-43 33 -58 70q-14 33 -14 90q0 87 36 124q91 91 128 91q63 0 116 -78q48 -71 48 -137zM259 121q0 76 -42 141q-17 27 -45 57q-36 38 -55 38q-25 0 -40 -31q-12 -25 -12 -54q0 -74 16 -112q19 -43 75 -86
q38 -29 52 -29q24 0 39 28q12 23 12 48zM252 513l-175 -58l-11 25l163 85z" />
    <glyph glyph-name="ograve" unicode="&#xf2;" horiz-adv-x="376" 
d="M328 194q0 -4 -8 -60q-4 -36 -69 -88.5t-101 -52.5q-27 0 -78 41q-43 33 -58 70q-14 33 -14 90q0 87 36 124q91 91 128 91q63 0 116 -78q48 -71 48 -137zM259 121q0 76 -42 141q-17 27 -45 57q-36 38 -55 38q-25 0 -40 -31q-12 -25 -12 -54q0 -74 16 -112q19 -43 75 -86
q38 -29 52 -29q24 0 39 28q12 23 12 48zM62 513l175 -58l12 25l-163 85z" />
    <glyph glyph-name="ocircumflex" unicode="&#xf4;" horiz-adv-x="376" 
d="M328 194q0 -4 -8 -60q-4 -36 -69 -88.5t-101 -52.5q-27 0 -78 41q-43 33 -58 70q-14 33 -14 90q0 87 36 124q91 91 128 91q63 0 116 -78q48 -71 48 -137zM259 121q0 76 -42 141q-17 27 -45 57q-36 38 -55 38q-25 0 -40 -31q-12 -25 -12 -54q0 -74 16 -112q19 -43 75 -86
q38 -29 52 -29q24 0 39 28q12 23 12 48zM273 482l-15 -26l-100 46l-98 -50l-14 23l111 83z" />
    <glyph glyph-name="odieresis" unicode="&#xf6;" horiz-adv-x="376" 
d="M328 194q0 -4 -8 -60q-4 -36 -69 -88.5t-101 -52.5q-27 0 -78 41q-43 33 -58 70q-14 33 -14 90q0 87 36 124q91 91 128 91q63 0 116 -78q48 -71 48 -137zM259 121q0 76 -42 141q-17 27 -45 57q-36 38 -55 38q-25 0 -40 -31q-12 -25 -12 -54q0 -74 16 -112q19 -43 75 -86
q38 -29 52 -29q24 0 39 28q12 23 12 48zM185 494q0 16 11.5 27.5t27.5 11.5t27.5 -11.5t11.5 -27.5t-11.5 -27.5t-27.5 -11.5t-27.5 11.5t-11.5 27.5zM49 494q0 16 11.5 27.5t27.5 11.5t27.5 -11.5t11.5 -27.5t-11.5 -27.5t-27.5 -11.5t-27.5 11.5t-11.5 27.5z" />
    <glyph glyph-name="otilde" unicode="&#xf5;" horiz-adv-x="376" 
d="M328 194q0 -4 -8 -60q-4 -36 -69 -88.5t-101 -52.5q-27 0 -78 41q-43 33 -58 70q-14 33 -14 90q0 87 36 124q91 91 128 91q63 0 116 -78q48 -71 48 -137zM259 121q0 76 -42 141q-17 27 -45 57q-36 38 -55 38q-25 0 -40 -31q-12 -25 -12 -54q0 -74 16 -112q19 -43 75 -86
q38 -29 52 -29q24 0 39 28q12 23 12 48zM287 503q-37 -46 -82 -46q-22 0 -46.5 14.5t-43.5 14.5q-37 0 -52 -16l-16 17q33 45 82 45q21 0 45 -14.5t45 -14.5q39 0 55 18z" />
    <glyph glyph-name="uacute" unicode="&#xfa;" horiz-adv-x="465" 
d="M371 -9q-44 0 -77 89q-5 -7 -18 -23q-10 -9 -30 -30q-37 -43 -62 -43q-34 0 -84 48.5t-48 81.5l13 188q1 17 -19.5 39.5t-39.5 27.5q49 37 59 37q28 0 54.5 -30.5t24.5 -58.5l-9 -162q-1 -30 32 -69.5t63 -39.5q8 0 26 18t23 27q20 36 24 107l2 112q0 19 -14 37.5
t-32 25.5q43 33 58 33q21 0 44.5 -26.5t22.5 -49.5l-9 -221q-2 -58 46 -76q-33 -42 -50 -42zM302 513l-175 -58l-11 25l163 85z" />
    <glyph glyph-name="ugrave" unicode="&#xf9;" horiz-adv-x="465" 
d="M371 -9q-44 0 -77 89q-5 -7 -18 -23q-10 -9 -30 -30q-37 -43 -62 -43q-34 0 -84 48.5t-48 81.5l13 188q1 17 -19.5 39.5t-39.5 27.5q49 37 59 37q28 0 54.5 -30.5t24.5 -58.5l-9 -162q-1 -30 32 -69.5t63 -39.5q8 0 26 18t23 27q20 36 24 107l2 112q0 19 -14 37.5
t-32 25.5q43 33 58 33q21 0 44.5 -26.5t22.5 -49.5l-9 -221q-2 -58 46 -76q-33 -42 -50 -42zM92 513l175 -58l11 25l-163 85z" />
    <glyph glyph-name="ucircumflex" unicode="&#xfb;" horiz-adv-x="465" 
d="M371 -9q-44 0 -77 89q-5 -7 -18 -23q-10 -9 -30 -30q-37 -43 -62 -43q-34 0 -84 48.5t-48 81.5l13 188q1 17 -19.5 39.5t-39.5 27.5q49 37 59 37q28 0 54.5 -30.5t24.5 -58.5l-9 -162q-1 -30 32 -69.5t63 -39.5q8 0 26 18t23 27q20 36 24 107l2 112q0 19 -14 37.5
t-32 25.5q43 33 58 33q21 0 44.5 -26.5t22.5 -49.5l-9 -221q-2 -58 46 -76q-33 -42 -50 -42zM303 482l-15 -26l-100 46l-98 -50l-14 23l111 83z" />
    <glyph glyph-name="udieresis" unicode="&#xfc;" horiz-adv-x="465" 
d="M371 -9q-44 0 -77 89q-5 -7 -18 -23q-10 -9 -30 -30q-37 -43 -62 -43q-34 0 -84 48.5t-48 81.5l13 188q1 17 -19.5 39.5t-39.5 27.5q49 37 59 37q28 0 54.5 -30.5t24.5 -58.5l-9 -162q-1 -30 32 -69.5t63 -39.5q8 0 26 18t23 27q20 36 24 107l2 112q0 19 -14 37.5
t-32 25.5q43 33 58 33q21 0 44.5 -26.5t22.5 -49.5l-9 -221q-2 -58 46 -76q-33 -42 -50 -42zM215 494q0 16 11.5 27.5t27.5 11.5t27.5 -11.5t11.5 -27.5t-11.5 -27.5t-27.5 -11.5t-27.5 11.5t-11.5 27.5zM79 494q0 16 11.5 27.5t27.5 11.5t27.5 -11.5t11.5 -27.5
t-11.5 -27.5t-27.5 -11.5t-27.5 11.5t-11.5 27.5z" />
    <glyph glyph-name="dagger" unicode="&#x2020;" horiz-adv-x="370" 
d="M194 492q19 1 53.5 14t50.5 13q15 0 25.5 -11t10.5 -26q0 -40 -40 -40q-16 0 -48.5 13t-51.5 14q0 -87 33 -135q-24 -65 -30 -158q-3 -39 -3 -161h-25q0 123 -2 161q-6 91 -30 158q33 49 33 135q-19 -1 -51.5 -14t-48.5 -13q-40 0 -40 40q0 37 37 37q16 0 50 -13t53 -14
q0 23 -13.5 64.5t-13.5 60.5q0 41 39 41t39 -41q0 -20 -13.5 -61t-13.5 -64z" />
    <glyph glyph-name="degree" unicode="&#xb0;" horiz-adv-x="264" 
d="M114 674q45 1 78 -28t33 -74q0 -41 -31.5 -72t-73.5 -32q-45 -1 -78.5 31.5t-30.5 77.5q3 42 32 69t71 28zM118 645q-30 0 -51 -20.5t-21 -50.5q0 -29 21.5 -49.5t50.5 -20.5t50 20.5t21 49.5q0 30 -21 50.5t-50 20.5z" />
    <glyph glyph-name="cent" unicode="&#xa2;" horiz-adv-x="371" 
d="M198 175l-3 -3v-64q0 -9 -9 -9h-28q-9 0 -9 9v65q-67 16 -107 99q-34 70 -34 149q0 73 30 150q25 66 55 97h56v47q0 9 9 9h28q9 0 9 -9v-47h96q29 0 29 -19q0 -38 -84 -81l1 1v13q-1 21 -23 19h-102q-23 -22 -23 -110q0 -81 26 -149q35 -92 105 -92q19 0 53 26
q24 20 49 40q5 0 6 -2q0 -3 -4 -14q1 -10 -50.5 -62.5t-75.5 -62.5z" />
    <glyph glyph-name="sterling" unicode="&#xa3;" horiz-adv-x="467" 
d="M296 556q-7 35 -29 41q-23 32 -44 32q-16 0 -41 -10q-27 -21 -27 -56v-184h112q4 0 4 -4v-37q0 -4 -4 -4h-111v-43q0 -107 -2 -137t-71 -79h293q12 0 12 -2q0 -17 -41.5 -55t-59.5 -38q-1 1 -3 5l-1 4q-6 16 -16 16h-252q-10 0 -10 8q2 2 7 8q44 55 44 79v234h-52
q-4 0 -4 4v37q0 4 4 4h52q1 59 1 167v4q0 19 52.5 68.5t73.5 49.5h143q65 0 65 -25q0 -16 -35.5 -46.5t-59.5 -40.5z" />
    <glyph glyph-name="section" unicode="&#xa7;" 
 />
    <glyph glyph-name="bullet" unicode="&#x2022;" horiz-adv-x="310" 
d="M136 208q-44 0 -75.5 31.5t-31.5 75.5t31.5 75.5t75.5 31.5q45 0 76.5 -31.5t31.5 -75.5t-31.5 -75.5t-76.5 -31.5z" />
    <glyph glyph-name="paragraph" unicode="&#xb6;" horiz-adv-x="500" 
d="M154 8v19q63 -1 63 36v279q-182 0 -182 175q0 83 39.5 118.5t121.5 35.5h235v-19q-26 -2 -36 -7q-16 -8 -16 -30v-527q0 -41 7.5 -50t44.5 -11v-19h-277zM217 642q-51 1 -69 -26q-14 -19 -14 -67v-87q0 -94 68 -94h15v274zM307 642h-48v-615h48v615z" />
    <glyph glyph-name="germandbls" unicode="&#xdf;" horiz-adv-x="434" 
d="M84 591q1 -344 4 -620q-6 -21 -21 -54q-23 -24 -74 -63q16 39 20 90q-2 281 -1 593q3 30 64 87q58 54 73 54q9 3 32 1q29 -3 27 -3q56 0 98 -32q44 -35 44 -87q0 -23 -42 -83q-46 -64 -81 -82q8 1 16 1q61 0 108.5 -46.5t42.5 -99.5q-5 -61 -49.5 -150.5t-70.5 -89.5
q-134 0 -133 0q-5 0 -12 7t-7 12q0 17 51 56q18 14 36 26l8 5q-3 -38 48 -38h7q17 0 34 51q16 46 16 73q0 53 -46 90q-44 34 -99 34q-11 0 -38 -5l-1 1q-3 3 -3 9q27 28 58 62q59 72 59 134q0 37 -45.5 71t-84.5 31q-7 0 -22.5 -13t-15.5 -22z" />
    <glyph glyph-name="registered" unicode="&#xae;" horiz-adv-x="377" 
d="M339 517q0 -68 -47.5 -116t-114.5 -48t-114.5 47.5t-47.5 116.5t47.5 116t114.5 47t114.5 -47.5t47.5 -115.5zM308 517q0 57 -38.5 97t-92.5 40q-55 0 -92.5 -39.5t-37.5 -97.5t37.5 -98t92.5 -40q54 0 92.5 40t38.5 98zM250 426h-37l-15 28q-17 31 -32 45q-4 6 -11 6
v-79h-30v182h55q60 0 60 -52q0 -21 -12.5 -35.5t-32.5 -14.5q9 -4 28 -36zM209 556q0 28 -38 28h-16v-58h15q22 0 30.5 8.5t8.5 21.5z" />
    <glyph glyph-name="copyright" unicode="&#xa9;" horiz-adv-x="749" 
d="M692 335q0 -147 -102.5 -249.5t-246.5 -102.5t-245.5 102t-101.5 250q0 147 101.5 249t245.5 102t246.5 -102t102.5 -249zM625 335q0 123 -82.5 208.5t-199.5 85.5t-198.5 -85t-81.5 -209q0 -123 81.5 -209.5t198.5 -86.5q116 0 199 86.5t83 209.5zM455 168
q-47 -35 -108 -35q-77 0 -133 65q-54 61 -54 139q0 77 55 139t134 62q63 0 97 -30l-29 -43q-22 16 -66 16q-51 0 -82 -49q-28 -42 -28 -95q0 -56 26 -97q31 -47 84 -47t72 16z" />
    <glyph glyph-name="trademark" unicode="&#x2122;" horiz-adv-x="507" 
d="M437 428h-37l-1 194l-3 -1l-59 -193h-24l-59 193l-3 1v-194h-40v247h63l51 -156l51 156h61v-247zM171 633h-55v-205h-45v205h-56v42h156v-42z" />
    <glyph glyph-name="acute" unicode="&#xb4;" horiz-adv-x="600" 
d="M399 774l-207 -69l-13 30l192 100z" />
    <glyph glyph-name="dieresis" unicode="&#xa8;" horiz-adv-x="537" 
d="M290 754q0 19 13.5 32.5t32.5 13.5t32.5 -13.5t13.5 -32.5t-13.5 -32.5t-32.5 -13.5t-32.5 13.5t-13.5 32.5zM130 754q0 19 13.5 32.5t32.5 13.5t32.5 -13.5t13.5 -32.5t-13.5 -32.5t-32.5 -13.5t-32.5 13.5t-13.5 32.5z" />
    <glyph glyph-name="AE" unicode="&#xc6;" horiz-adv-x="0" 
 />
    <glyph glyph-name="Oslash" unicode="&#xd8;" horiz-adv-x="0" 
 />
    <glyph glyph-name="plusminus" unicode="&#xb1;" horiz-adv-x="0" 
 />
    <glyph glyph-name="yen" unicode="&#xa5;" horiz-adv-x="591" 
d="M95 335h130q-15 84 -82 172.5t-137 109.5q45 60 64 60q107 0 178 -177q4 -11 31 -85l6 22q4 18 66 146q52 105 106 105q18 0 42 -18t24 -35q0 -5 -34 -53q-33 33 -75 33l-16 -4q-23 -21 -60.5 -113t-37.5 -120v-43h133v-37h-133v-73h133v-37h-133l-1 -184h-70v184h-134
v37h134v73h-134v37z" />
    <glyph glyph-name="mu" unicode="&#xb5;" 
 />
    <glyph glyph-name="mu" unicode="&#x3bc;" 
 />
    <glyph glyph-name="ordfeminine" unicode="&#xaa;" 
 />
    <glyph glyph-name="ordmasculine" unicode="&#xba;" horiz-adv-x="348" 
d="M307 59q0 -7 -33 -52q-10 -13 -30 -13l-191 6q-3 0 -16 1t-20 1q-27 -3 -22 -4h-9q10 24 21 47q14 28 37 30q11 1 14 6q19 35 55 100q-8 6 -28 6q-11 0 -22 -4q10 21 21 41q17 25 37 25q2 0 12.5 -2.5t12.5 -2.5q12 0 17 10l11 22q10 15 33 46q-5 7 -20 7l-162 7
q-20 0 -39 -6q0 8 3 12q15 24 30 49q14 17 49 17l232 -14q-7 -20 -28 -53q-17 -8 -48 -30q-6 -7 -40 -70q15 -2 40 -8l-24 -40q-9 -15 -30 -15q-2 0 -8 1t-9 1q-5 0 -28 -44q-32 -60 -33 -62q13 -4 53 -4h5q2 0 21 -1.5t26 -1.5q73 -3 104 -2q2 0 6 5v-11zM57 538l7 17
l99 -46l93 44l8 -18l-105 -88z" />
    <glyph glyph-name="ae" unicode="&#xe6;" horiz-adv-x="572" 
d="M240 150v1v69q-11 34 -58 82.5t-74 48.5q-22 0 -34 -28q-8 -20 -8 -46q0 -81 25 -132q11 -23 37 -52q31 -35 47 -35q22 0 41 32q16 26 24 60zM541 304q0 -23 -42.5 -69.5t-67.5 -44.5q-34 2 -128 0q-2 -18 2 -28.5t7 -18.5q18 -35 80 -66q56 -27 93 -27q-4 0 33 18l2 -6
q-32 -37 -38 -43q-27 -25 -50 -25q-31 0 -86 30q-23 8 -48 26q-35 25 -44 56q-15 -29 -58 -68q-45 -42 -67 -42q-49 0 -91 73q-38 66 -38 123q0 52 18 87q15 29 61 76q51 52 73 52q44 0 89 -76q-1 39 2.5 48t32.5 28q15 9 30 17q-9 -22 -4 -84q77 67 107 67q36 0 84 -35
t48 -68zM489 261q0 22 -52.5 58t-77.5 36q-28 0 -44 -28q-12 -23 -12 -54q0 -24 3 -54v-1q1 1 20 19q13 12 27 12q61 0 122 -5q5 0 9.5 6t4.5 11z" />
    <glyph glyph-name="oslash" unicode="&#xf8;" horiz-adv-x="376" 
d="M328 194q0 -4 -8 -60q-4 -36 -69 -88.5t-101 -52.5q-21 0 -61 27l-21 -42h-38l32 63q-37 32 -50 67q-12 32 -12 86q0 87 36 124q91 91 128 91q35 0 70 -27l22 45h38l-35 -69q31 -35 50 -81.5t19 -82.5zM191 297q-50 60 -74 60q-25 0 -40 -31q-12 -25 -12 -54
q0 -100 38 -149zM259 121q0 78 -42 141l-4 5l-85 -170q12 -11 28 -23q38 -29 52 -29q24 0 39 28q12 23 12 48z" />
    <glyph glyph-name="questiondown" unicode="&#xbf;" horiz-adv-x="507" 
d="M233 275q0 12 -4 23q5 11 27 11q38 0 38 -10q0 -61 -24 -98q-14 -23 -52 -51q-46 -33 -62 -60q-19 -32 -19 -85q0 -51 24 -90q32 -52 97 -50q42 0 69 27t27 67q0 32 -27 71q27 23 92 73q8 -14 21 -42q3 -10 3 -46q0 -94 -84 -154q-75 -53 -165 -53q-75 0 -122 46t-47 118
q0 49 36 96q21 27 77 77q54 47 74.5 75.5t20.5 54.5zM250 477q7 7 13 0l57 -57q2 -2 2 -6q0 -5 -2 -7l-55 -55q-6 -7 -13 0l-57 57q-3 3 -3 7t3 7z" />
    <glyph glyph-name="exclamdown" unicode="&#xa1;" horiz-adv-x="247" 
d="M61 275q1 10 9 10h36q8 0 9 -10q4 -119 8 -237q10 -168 44 -220q-1 -10 -11 -10h-126q-10 0 -9 8zM79 468q8 7 14 0l57 -57q2 -2 2 -6q0 -5 -2 -7l-55 -55q-6 -7 -14 0l-56 57q-3 3 -3 7t3 7z" />
    <glyph glyph-name="logicalnot" unicode="&#xac;" 
 />
    <glyph glyph-name="florin" unicode="&#x192;" horiz-adv-x="548" 
d="M2 333h53v9q0 20 3 50h-56v41h62q13 70 31 96q16 23 102.5 84.5t107.5 61.5q41 0 116 -43q79 -47 79 -80q0 -9 -21 -33q-5 -6 -29 -31q-16 34 -91 77t-112 43q-55 0 -90 -64q-29 -52 -29 -107v-4h191v-41h-191v-35q0 -9 2 -24h189v-41h-184q15 -107 35 -130
q39 -43 116 -74q74 -30 134 -30q29 0 55 15q-16 -18 -51 -52q-31 -25 -76 -25q-136 0 -213 68q-80 72 -80 206v22h-53v41z" />
    <glyph glyph-name="guillemotleft" unicode="&#xab;" horiz-adv-x="362" 
d="M148 422v-31l-70 -119l73 -134v-31l-145 161zM298 422v-31l-70 -119l73 -134v-31l-145 161z" />
    <glyph glyph-name="guillemotright" unicode="&#xbb;" horiz-adv-x="362" 
d="M158 422v-31l70 -119l-72 -134v-31l145 161zM8 422v-31l70 -119l-72 -134v-31l145 161z" />
    <glyph glyph-name="ellipsis" unicode="&#x2026;" horiz-adv-x="769" 
d="M345 81l54 55q10 11 21 0l57 -57q4 -4 4 -10t-4 -11l-55 -54q-11 -10 -21 0l-56 57q-4 4 -4 10t4 10zM575 81l54 55q10 11 21 0l57 -57q4 -4 4 -10t-4 -11l-55 -54q-11 -10 -21 0l-56 57q-4 4 -4 10t4 10zM115 81l54 55q10 11 21 0l57 -57q4 -4 4 -10t-4 -11l-55 -54
q-11 -10 -21 0l-56 57q-4 4 -4 10t4 10z" />
    <glyph glyph-name="nonbreakingspace" unicode="&#xa0;" horiz-adv-x="175" 
 />
    <glyph glyph-name="oe" unicode="&#x153;" horiz-adv-x="602" 
d="M259 121q0 76 -42 141q-17 27 -45 57q-36 38 -55 38q-25 0 -40 -31q-12 -25 -12 -54q0 -74 16 -112q19 -43 75 -86q38 -29 52 -29q24 0 39 28q12 23 12 48zM561 304q0 -23 -42.5 -69.5t-67.5 -44.5q-36 2 -123 0v-13q0 -40 69 -85q65 -42 108 -42q-4 0 33 18l2 -6
q-32 -37 -38 -43q-27 -25 -50 -25q-38 0 -86 24.5t-78 61.5q-30 -33 -72 -60t-66 -27q-27 0 -78 41q-43 33 -58 70q-14 33 -14 90q0 87 36 124q91 91 128 91q74 0 129 -99q90 97 136 97q36 0 84 -35t48 -68zM509 261q0 22 -52.5 58t-77.5 36q-28 0 -44 -28q-12 -23 -12 -54
q0 -44 3 -55q1 1 20 19q13 12 27 12q61 0 122 -5q5 0 9.5 6t4.5 11z" />
    <glyph glyph-name="endash" unicode="&#x2013;" horiz-adv-x="414" 
d="M351 313q14 0 14 -14v-35q0 -14 -14 -14h-337q-14 0 -14 14v35q0 14 14 14h337z" />
    <glyph glyph-name="emdash" unicode="&#x2014;" horiz-adv-x="734" 
d="M14 250q-14 0 -14 14v35q0 14 14 14h667q14 0 14 -14v-35q0 -14 -14 -14h-667z" />
    <glyph glyph-name="quotedblleft" unicode="&#x201c;" horiz-adv-x="334" 
d="M6 533q5 29 7 37q10 35 39 59q30 19 60 39q6 6 12 6q14 0 14 -20q0 -4 -1 -8q-11 -14 -23 -29t-14 -33q-2 -14 8 -29.5t10 -18.5q0 -21 -29 -34q-24 -11 -48 -11q-35 0 -35 42zM156 533q5 29 7 37q10 35 39 59q30 19 60 39q6 6 12 6q14 0 14 -20q0 -4 -1 -8
q-11 -14 -23 -29t-14 -33q-2 -14 8 -29.5t10 -18.5q0 -21 -29 -34q-24 -11 -48 -11q-35 0 -35 42z" />
    <glyph glyph-name="quotedblright" unicode="&#x201d;" horiz-adv-x="334" 
d="M289 632q-5 -27 -8 -37q-10 -35 -39 -59q-30 -19 -60 -39q-6 -6 -12 -6q-14 0 -14 20q0 4 1 8q11 14 23 28.5t14 32.5q2 14 -8 30t-10 19q0 21 30 34q23 11 47 11q36 0 36 -42zM139 632q-5 -27 -8 -37q-10 -35 -39 -59q-30 -19 -60 -39q-6 -6 -12 -6q-14 0 -14 20
q0 4 1 8q11 14 23 28.5t14 32.5q2 14 -8 30t-10 19q0 21 30 34q23 11 47 11q36 0 36 -42z" />
    <glyph glyph-name="quoteleft" unicode="&#x2018;" horiz-adv-x="192" 
d="M7 539q5 30 7 37q10 35 39 59q31 19 61 39q6 6 12 6q14 0 14 -20q0 -4 -1 -8q-11 -14 -23 -28.5t-14 -32.5q-2 -14 7.5 -30t9.5 -19q0 -21 -29 -34q-24 -11 -48 -11q-35 0 -35 42z" />
    <glyph glyph-name="quoteright" unicode="&#x2019;" horiz-adv-x="192" 
d="M139 632q-5 -27 -8 -37q-10 -35 -39 -59q-30 -19 -60 -39q-6 -6 -12 -6q-14 0 -14 20q0 4 1 8q11 14 23 28.5t14 32.5q2 14 -8 30t-10 19q0 21 30 34q23 11 47 11q36 0 36 -42z" />
    <glyph glyph-name="divide" unicode="&#xf7;" horiz-adv-x="18" 
 />
    <glyph glyph-name="ydieresis" unicode="&#xff;" horiz-adv-x="430" 
d="M359 -2q2 -41 -3 -95q-2 -23 -20.5 -40.5t-55.5 -50.5q-23 -22 -45 -45q-41 -37 -58 -37q-27 0 -67 38.5t-40 66.5q0 25 43 54q-3 -20 45 -60t71 -40q15 0 31 23t16 36v239q2 2 -3 2q-2 0 -43 -49t-57 -49q-29 0 -70.5 34t-53.5 63q-7 16 -7 50l13 161q0 32 -40 60
q-5 3 -15 3q1 8 24 24t32 16q19 0 48 -27q26 -25 29 -37t3 -33l-9 -138q0 -28 7 -42.5t33 -40.5q29 -29 43 -29q8 0 31 27q28 35 40 71v16v203q15 9 40 26q10 7 38 20v-420zM220 514q0 19 13.5 32.5t32.5 13.5t32.5 -13.5t13.5 -32.5t-13.5 -32.5t-32.5 -13.5t-32.5 13.5
t-13.5 32.5zM60 514q0 19 13.5 32.5t32.5 13.5t32.5 -13.5t13.5 -32.5t-13.5 -32.5t-32.5 -13.5t-32.5 13.5t-13.5 32.5z" />
    <glyph glyph-name="Ydieresis" unicode="&#x178;" 
 />
    <glyph glyph-name="currency" unicode="&#xa4;" 
 />
    <glyph glyph-name="guilsinglleft" unicode="&#x2039;" horiz-adv-x="213" 
d="M148 422v-31l-70 -119l73 -134v-31l-145 161z" />
    <glyph glyph-name="guilsinglright" unicode="&#x203a;" horiz-adv-x="213" 
d="M8 422v-31l70 -119l-72 -134v-31l145 161z" />
    <glyph glyph-name="daggerdbl" unicode="&#x2021;" horiz-adv-x="25" 
 />
    <glyph glyph-name="periodcentered" unicode="&#xb7;" horiz-adv-x="210" 
d="M15 341l54 55q10 11 21 0l57 -57q4 -4 4 -10t-4 -11l-55 -54q-11 -10 -21 0l-56 57q-4 4 -4 10t4 10z" />
    <glyph glyph-name="periodcentered" unicode="&#x2219;" horiz-adv-x="210" 
d="M15 341l54 55q10 11 21 0l57 -57q4 -4 4 -10t-4 -11l-55 -54q-11 -10 -21 0l-56 57q-4 4 -4 10t4 10z" />
    <glyph glyph-name="quotesinglbase" unicode="&#x201a;" horiz-adv-x="203" 
d="M139 62q-5 -27 -8 -37q-10 -35 -39 -59q-30 -19 -60 -39q-6 -6 -12 -6q-14 0 -14 20q0 4 1 8q11 14 23 28.5t14 32.5q2 14 -8 30t-10 19q0 21 30 34q23 11 47 11q36 0 36 -42z" />
    <glyph glyph-name="quotedblbase" unicode="&#x201e;" horiz-adv-x="371" 
d="M309 62q-5 -27 -8 -37q-10 -35 -39 -59q-30 -19 -60 -39q-6 -6 -12 -6q-14 0 -14 20q0 4 1 8q11 14 23 28.5t14 32.5q2 14 -8 30t-10 19q0 21 30 34q23 11 47 11q36 0 36 -42zM139 62q-5 -27 -8 -37q-10 -35 -39 -59q-30 -19 -60 -39q-6 -6 -12 -6q-14 0 -14 20q0 4 1 8
q11 14 23 28.5t14 32.5q2 14 -8 30t-10 19q0 21 30 34q23 11 47 11q36 0 36 -42z" />
    <glyph glyph-name="perthousand" unicode="&#x2030;" horiz-adv-x="22" 
 />
    <glyph glyph-name="Acircumflex" unicode="&#xc2;" 
 />
    <glyph glyph-name="Ecircumflex" unicode="&#xca;" 
 />
    <glyph glyph-name="Aacute" unicode="&#xc1;" 
 />
    <glyph glyph-name="Edieresis" unicode="&#xcb;" 
 />
    <glyph glyph-name="Egrave" unicode="&#xc8;" 
 />
    <glyph glyph-name="Iacute" unicode="&#xcd;" 
 />
    <glyph glyph-name="Icircumflex" unicode="&#xce;" 
 />
    <glyph glyph-name="Idieresis" unicode="&#xcf;" 
 />
    <glyph glyph-name="Igrave" unicode="&#xcc;" 
 />
    <glyph glyph-name="Oacute" unicode="&#xd3;" 
 />
    <glyph glyph-name="Ocircumflex" unicode="&#xd4;" 
 />
    <glyph glyph-name="Ograve" unicode="&#xd2;" 
 />
    <glyph glyph-name="Uacute" unicode="&#xda;" 
 />
    <glyph glyph-name="Ucircumflex" unicode="&#xdb;" 
 />
    <glyph glyph-name="Ugrave" unicode="&#xd9;" 
 />
    <glyph glyph-name="circumflex" unicode="&#x2c6;" horiz-adv-x="536" 
d="M346 728l-11 -19l-118 54l-115 -59l-13 15l128 109z" />
    <glyph glyph-name="tilde" unicode="&#x2dc;" horiz-adv-x="326" 
d="M282 761q-36 -46 -82 -46q-22 0 -46 14.5t-44 14.5q-36 0 -51 -17l-17 27q33 45 82 45q21 0 45.5 -14.5t44.5 -14.5q40 0 55 18z" />
    <glyph glyph-name="macron" unicode="&#xaf;" horiz-adv-x="290" 
d="M249 726h-196v44l196 1v-45z" />
    <glyph glyph-name="macron" unicode="&#x2c9;" horiz-adv-x="290" 
d="M249 726h-196v44l196 1v-45z" />
    <glyph glyph-name="cedilla" unicode="&#xb8;" horiz-adv-x="236" 
d="M211 -97q0 -24 -23 -45q-24 -24 -56 -24q-23 0 -55 16l15 34q26 -11 39 -11q10 0 22.5 11t12.5 20q0 10 -12.5 20.5t-23.5 10.5q-12 0 -22 -2l1 15l13 52l41 -4l-9 -31q25 -4 41 -23t16 -39z" />
    <glyph glyph-name="infinity" unicode="&#x221e;" horiz-adv-x="0" 
 />
    <glyph glyph-name="lessequal" unicode="&#x2264;" horiz-adv-x="0" 
 />
    <glyph glyph-name="greaterequal" unicode="&#x2265;" horiz-adv-x="0" 
 />
    <glyph glyph-name="partialdiff" unicode="&#x2202;" horiz-adv-x="198" 
d="M3 225l30 23l1 398l73 37v-378l71 56v-49l-71 -56v-146q0 -16 15.5 -36t33.5 -29q-31 -44 -46 -44q-11 0 -32 24q-16 20 -33 41q-11 14 -12 49v84l-30 -24v50z" />
    <glyph glyph-name="summation" unicode="&#x2211;" 
 />
    <glyph glyph-name="product" unicode="&#x220f;" horiz-adv-x="346" 
d="M306 134q0 -24 -61 -84t-87 -60q-21 0 -74 18q-64 22 -77 25q33 58 53 58q25 0 73 -19.5t73 -19.5q11 0 27.5 12.5t16.5 23.5q0 9 -16 30q-37 47 -74 47q-6 0 -27 -1.5t-37 -1.5q-34 0 -65 30.5t-31 64.5q0 36 65 94.5t102 58.5q32 0 70 -25q43 -27 43 -56q0 -12 -19 -32
t-33 -28l5 25q-19 20 -59 39t-66 19q-16 0 -35 -16.5t-19 -32.5q0 -15 21 -40t35.5 -29t33.5 -5q12 -1 34.5 0.5t31.5 1.5q34 0 65 -31.5t31 -65.5zM57 538l7 17l99 -46l93 44l8 -18l-105 -88z" />
    <glyph glyph-name="pi" unicode="&#x3c0;" 
 />
    <glyph glyph-name="integral" unicode="&#x222b;" horiz-adv-x="430" 
d="M359 -2q2 -41 -3 -95q-2 -23 -21 -41q-16 -21 -51 -57q-23 -20 -47 -41q-42 -34 -60 -34q-27 0 -67 38.5t-40 66.5q0 25 43 54q-3 -20 45 -60t71 -40q15 0 31 23t16 36v239q2 2 -3 2q-2 0 -43 -49t-57 -49q-29 0 -70.5 34t-53.5 63q-7 16 -7 50l13 161q0 32 -40 60
q-5 3 -15 3q1 8 24 24t32 16q19 0 48 -27q26 -25 29 -37t3 -33l-9 -138q0 -28 7 -42.5t33 -40.5q29 -29 43 -29q8 0 31 27q28 35 40 71v16v203q29 20 78 46v-420zM282 513l-175 -58l-11 25l163 85z" />
    <glyph glyph-name="Omega" unicode="&#x3a9;" horiz-adv-x="548" 
d="M2 333h53v9q0 20 3 50h-56v41h62q13 70 31 96q16 23 102.5 84.5t107.5 61.5q41 0 116 -43q79 -47 79 -80q0 -9 -21 -33q-5 -6 -29 -31q-16 34 -91 77t-112 43q-55 0 -90 -64q-29 -52 -29 -107v-4h191v-41h-191v-35q0 -9 2 -24h189v-41h-184q15 -107 35 -130
q39 -43 116 -74q74 -30 134 -30q29 0 55 15q-16 -18 -51 -52q-31 -25 -76 -25q-136 0 -213 68q-80 72 -80 206v22h-53v41z" />
    <glyph glyph-name="Omega" unicode="&#x2126;" horiz-adv-x="548" 
d="M2 333h53v9q0 20 3 50h-56v41h62q13 70 31 96q16 23 102.5 84.5t107.5 61.5q41 0 116 -43q79 -47 79 -80q0 -9 -21 -33q-5 -6 -29 -31q-16 34 -91 77t-112 43q-55 0 -90 -64q-29 -52 -29 -107v-4h191v-41h-191v-35q0 -9 2 -24h189v-41h-184q15 -107 35 -130
q39 -43 116 -74q74 -30 134 -30q29 0 55 15q-16 -18 -51 -52q-31 -25 -76 -25q-136 0 -213 68q-80 72 -80 206v22h-53v41z" />
    <glyph glyph-name="radical" unicode="&#x221a;" 
 />
    <glyph glyph-name="approxequal" unicode="&#x2248;" 
 />
    <glyph glyph-name="approxequal" unicode="&#x22f2;" 
 />
    <glyph glyph-name="Delta" unicode="&#x394;" 
 />
    <glyph glyph-name="Delta" unicode="&#x2206;" 
 />
    <glyph glyph-name="lozenge" unicode="&#x25ca;" horiz-adv-x="293" 
d="M8 336l106 107q5 4 10 4q6 0 10 -4l107 -107q4 -4 4 -9q0 -6 -4 -10l-107 -107q-4 -4 -10 -4q-5 0 -10 4l-106 107q-4 4 -4 10q0 5 4 9z" />
    <glyph glyph-name="fraction" unicode="&#x2044;" 
 />
    <glyph glyph-name="fi" unicode="&#xf001;" 
 />
    <glyph glyph-name="fl" unicode="&#xf002;" 
 />
    <glyph glyph-name="apple" unicode="&#xf000;" horiz-adv-x="19" 
 />
    <glyph glyph-name="dotlessi" unicode="&#x131;" horiz-adv-x="172" 
d="M139 40q-8 -12 -25 -27q-20 -16 -30 -16q-20 0 -40 24.5t-20 44.5v272q0 31 85 75q-14 -25 -14 -38v-275q0 -21 12 -39t32 -21z" />
    <glyph glyph-name="breve" unicode="&#x2d8;" horiz-adv-x="333" 
d="M270 790q-59 -83 -116 -83t-116 83l21 29q61 -57 101 -57q23 0 54 24q18 17 37 33z" />
    <glyph glyph-name="dotaccent" unicode="&#x2d9;" horiz-adv-x="196" 
d="M149 759q0 -20 -14.5 -34.5t-34.5 -14.5q-19 0 -32.5 16t-13.5 36q0 19 14 32t33 13t33.5 -14t14.5 -34z" />
    <glyph glyph-name="ring" unicode="&#x2da;" horiz-adv-x="259" 
d="M125 702q-31 0 -52.5 20t-21.5 48t22.5 47.5t52.5 19.5q31 0 53.5 -19.5t22.5 -47.5t-23 -48t-54 -20zM127 802q-16 0 -27 -9.5t-11 -22.5t10.5 -23t25.5 -10q16 0 27 10t11 23t-11 22.5t-25 9.5z" />
    <glyph glyph-name="hungarumlaut" unicode="&#x2dd;" horiz-adv-x="401" 
d="M293 801l-75 -92l-24 17l59 101zM189 811l-57 -105l-27 13l42 110z" />
    <glyph glyph-name="ogonek" unicode="&#x2db;" horiz-adv-x="264" 
d="M201 -148q-28 -16 -56 -16q-33 0 -58 19t-25 43q0 33 28 75t53 52l37 -21q-24 -7 -43 -39.5t-19 -57.5q0 -11 9 -21.5t20 -10.5q13 0 39 11z" />
    <glyph glyph-name="caron" unicode="&#x2c7;" horiz-adv-x="354" 
d="M20 804l15 30l117 -54l109 51l17 -27l-131 -97z" />
    </font>
</defs>
</svg>
