<?xml version="1.0" standalone="no"?>
<!DOCTYPE svg PUBLIC "-//W3C//DTD SVG 1.1//EN" "http://www.w3.org/Graphics/SVG/1.1/DTD/svg11.dtd" >
<svg>
<metadata>
Created by FontForge 20120731 at Tue Apr 16 15:55:15 2019
 By www-data
Digitized by Dan X. Solo. Software (c) 2001 by Dover Publications, Inc., New York.
</metadata>
<defs>
<font id="EspaniaNormal" horiz-adv-x="20" >
  <font-face 
    font-family="Espania"
    font-weight="400"
    font-stretch="normal"
    units-per-em="1000"
    panose-1="0 0 4 0 0 0 0 0 0 0"
    ascent="800"
    descent="-200"
    x-height="385"
    cap-height="676"
    bbox="-120.8 -263 1310 902.079"
    underline-thickness="20"
    underline-position="-123"
    unicode-range="U+0020-F002"
  />
<missing-glyph horiz-adv-x="500" 
d="M63 0v800h375v-800h-375zM125 63h250v675h-250v-675z" />
    <glyph glyph-name=".notdef" horiz-adv-x="500" 
d="M63 0v800h375v-800h-375zM125 63h250v675h-250v-675z" />
    <glyph glyph-name=".null" horiz-adv-x="0" 
 />
    <glyph glyph-name="glyph2" horiz-adv-x="191" 
 />
    <glyph glyph-name="space" unicode=" " horiz-adv-x="191" 
 />
    <glyph glyph-name="exclam" unicode="!" horiz-adv-x="262" 
d="M87 47q0 21 14.5 36.5t34.5 15.5q21 0 35 -15.5t14 -36.5q0 -22 -14 -37t-35 -15q-20 0 -34.5 15t-14.5 37zM149 133l-29 3l-23 426q0 19 -24 32l-40 18q16 11 46 32q1 0 32 32q11 -17 41 -36q36 -22 61 -19q-12 -22 -35 -61z" />
    <glyph glyph-name="quotedbl" unicode="&#x22;" horiz-adv-x="348" 
d="M128 674l-35 -258l-43 3l-18 164q-5 36 -23 91h119zM288 674l-35 -258l-43 3l-18 164q-5 36 -23 91h119z" />
    <glyph glyph-name="numbersign" unicode="#" horiz-adv-x="471" 
d="M289 451h-128l-24 -231h128zM47 530h70l14 144h23l31 8l-16 -152h128l15 144h22l31 8l-16 -152h81l-8 -79h-81l-24 -231h81l-8 -79h-81q-1 -10 -16 -141h-62l18 63l8 78h-128q-1 -10 -16 -141h-62l18 63l8 78h-70l8 79h70l24 231h-70z" />
    <glyph glyph-name="dollar" unicode="$" horiz-adv-x="386" 
d="M162 441v123q-78 -8 -78 -58q0 -53 78 -65zM194 360v-124q79 26 79 79q0 21 -18 33.5t-40 12.5q-2 0 -21 -1zM162 675h31v-63h10q96 0 96 -28q0 -5 -15 -42q-5 1 -43 14q-26 9 -48 9l1 -127q16 0 38 -1q119 -3 119 -102q0 -118 -157 -146l1 -99h-32v95q-18 -2 -34 -2
q-93 0 -127 21q-7 25 -7 44q0 46 11 58h15q2 -5 5 -12q3 -47 31 -62q18 -10 60 -10q19 0 46 6l-1 131l-42 -1q-19 0 -43 11q-45 22 -45 90q0 61 40 101q35 36 90 48v67z" />
    <glyph glyph-name="percent" unicode="%" horiz-adv-x="703" 
d="M627 54q-64 -57 -124 -57q-65 0 -97 75q-25 59 -25 149q0 51 8 87q9 41 58 79.5t100 40.5q56 1 89 -47q38 -55 38 -170q0 -20 -1 -43q-5 -77 -46 -114zM191 -1h-52l345 681h52zM247 314q-64 -57 -124 -57q-65 0 -97 75q-25 59 -25 149q0 51 8 87q9 41 58 79.5t100 40.5
q56 1 89 -47q38 -55 38 -170q0 -20 -1 -43q-5 -77 -46 -114zM517 366q-32 -1 -47 -10q-10 -6 -18 -42t-8 -80q0 -72 21 -119q26 -56 76 -56q36 0 51.5 26t15.5 135q0 148 -91 146zM137 626q-32 -1 -47 -10q-10 -6 -18 -42t-8 -80q0 -72 21 -119q26 -56 76 -56q36 0 51.5 26
t15.5 135q0 148 -91 146z" />
    <glyph glyph-name="ampersand" unicode="&#x26;" horiz-adv-x="677" 
d="M297 -11q-107 -1 -196 57q-102 67 -102 171q0 73 41 118q20 22 91 66q-27 17 -42 54q-14 33 -14 68q0 72 63 121q57 45 134 48q68 3 102 -21q4 0 13.5 5.5t15.5 4.5q25 -1 51 -2q39 -8 83 -66q3 -3 2 -9q-1 -5 -5 -5q-3 0 -15 15.5t-31 25.5q-29 14 -74 14l-21 -3
q31 -34 31 -76q0 -43 -23 -74q-26 -33 -68 -33q-29 0 -49 24.5t-20 55.5q0 34 19.5 65.5t50.5 45.5q-11 10 -63 10q-54 0 -84 -47q-26 -40 -26 -98q0 -50 30 -92q33 17 62 17q77 0 77 -49q0 -47 -67 -47q-73 0 -105 31q-57 -74 -57 -160q0 -91 59.5 -147t149.5 -56
q55 0 100 33t56 85q-39 -20 -91 -23q-56 -4 -99 25q-49 32 -49 88q0 45 42 69q34 20 82 20q80 0 127 -61q64 50 108 50q18 0 50 -6l3 -17q-95 -32 -134 -108q-15 -81 -69 -132q-57 -54 -139 -55zM400 575q0 16 -11 42q-12 31 -25 31q-33 0 -54 -36q-19 -32 -19 -67
q0 -16 13.5 -35.5t28.5 -19.5q33 0 51 27q16 23 16 58zM252 430q-12 0 -50 -13q39 -39 81 -39q25 0 25 22q0 30 -56 30zM446 231q-27 42 -43 52q-19 12 -63 12q-35 0 -58 -15q-27 -18 -27 -50q0 -37 32 -51q22 -9 69 -9q20 0 58 26.5t32 34.5z" />
    <glyph glyph-name="quotesingle" unicode="'" horiz-adv-x="189" 
d="M121 674l-35 -258l-43 3l-18 164q-5 36 -23 91h119z" />
    <glyph glyph-name="parenleft" unicode="(" horiz-adv-x="244" 
d="M132 687h32q-79 -215 -79 -360q0 -158 80 -341h-32q-132 181 -132 347q0 165 131 354z" />
    <glyph glyph-name="parenright" unicode=")" horiz-adv-x="244" 
d="M34 -14h-32q78 215 78 360q0 158 -79 341h32q132 -181 132 -347q0 -165 -131 -354z" />
    <glyph glyph-name="asterisk" unicode="*" horiz-adv-x="320" 
d="M50 630l87 -72l-16 111h66l-15 -110l83 67l33 -57l-97 -40l100 -39l-33 -57l-87 67l16 -110h-66l17 110l-91 -71l-33 58l109 42l-106 43z" />
    <glyph glyph-name="plus" unicode="+" horiz-adv-x="480" 
d="M12 338v52h189v188h52v-188h196v-52h-196v-196h-52v196h-189z" />
    <glyph glyph-name="comma" unicode="," horiz-adv-x="157" 
d="M113 30q0 -16 -5 -29q-9 -27 -43 -61t-64 -50q-4 1 -4 8q0 2 15 32.5t15 60.5q0 34 -24 82q0 4 25.5 21.5t39.5 23.5q3 1 9 -1t8 -2q17 -17 23 -48q5 -19 5 -37z" />
    <glyph glyph-name="hyphen" unicode="-" horiz-adv-x="294" 
d="M237 287l-27 -66h-191l29 66h189z" />
    <glyph glyph-name="hyphen" unicode="&#x2010;" horiz-adv-x="294" 
d="M237 287l-27 -66h-191l29 66h189z" />
    <glyph glyph-name="period" unicode="." horiz-adv-x="174" 
d="M147 53q-31 -30 -61 -47h-20q-9 0 -29 28t-20 33q0 7 36 32.5t42 25.5q7 0 16 -10q25 -29 36 -47q1 -2 -0.5 -8t0.5 -7z" />
    <glyph glyph-name="slash" unicode="/" horiz-adv-x="411" 
d="M347 675h41l-340 -671h-40z" />
    <glyph glyph-name="zero" unicode="0" horiz-adv-x="476" 
d="M421 286q0 -49 -13 -80q-16 -38 -63 -91q-28 -33 -66 -68q-55 -50 -79 -52q-15 -1 -66 37q-42 31 -53 42q-68 74 -68 155q0 128 176 304q1 1 1 2t-1.5 3.5t-1.5 5.5q0 8 7 23q16 32 82 73q1 -12 -2.5 -29l-3.5 -17q0 -54 40 -96q47 -49 78 -106q33 -61 33 -106zM343 202
q0 60 -52 127q-70 91 -91 140q-1 11 -6 26q-39 -30 -72 -81t-33 -87q0 -33 4 -62q7 -55 44 -107q45 -62 103 -62q39 0 71 33.5t32 72.5z" />
    <glyph glyph-name="one" unicode="1" horiz-adv-x="367" 
d="M292 575q-47 -58 -52 -143v-69v-91q0 9 0 -50q1 -50 0 -75q-1 -56 -34 -115q-52 -53 -67 -53h-15q-4 1 -4 7q0 2 12 24t13 32q10 69 10 67v110q0 4 -3 37t-3 36l1 11t1 33q1 32 1 85q3 15 15 52q-2 2 -6 2q-5 0 -36 -19q-23 -13 -51 -52q-38 -53 -40 -55q-4 5 -4 12
q0 29 34 74q29 38 48 50q104 63 176 100z" />
    <glyph glyph-name="two" unicode="2" horiz-adv-x="467" 
d="M432 142q0 -10 -8 -34q0 -6 -2 -17q-12 -43 -50 -76t-75 -33q-45 0 -85 26q-12 7 -58 48q-30 25 -50 25q-35 0 -46 -86q-1 -2 -6 -7q-33 20 -33 84q0 119 137 194q110 61 110 161q0 41 -31.5 75t-73.5 34q-4 0 -20 -8v-9q3 -4 7 -10l4 -32t3 -27q0 -42 -19 -77
q-24 -44 -69 -44q-69 0 -69 81q0 34 28 75q25 37 60 61q-11 15 -50 36q9 6 15 6q23 0 46.5 -16t28.5 -16q4 0 24.5 1.5t24 1.5t4 1.5t4.5 1.5q48 0 100 -19q72 -26 87 -75q4 -14 4 -37q0 -98 -170 -173q-10 -7 -35 -24q-19 -13 -39 -25q-27 -18 -43 -36q-5 -7 -14 -17.5
t-22 -38.5l2 -21q48 47 51 50q19 14 49 14q32 0 42 -4q21 -9 77 -56q46 -39 77 -39q28 0 43 39q11 28 11 54q0 9 -17 57v10q18 -5 33 -35q13 -26 13 -44zM129 459q-11 65 -26 65q-11 0 -20 -10q-27 -32 -33 -53q-2 -7 -2 -37q0 -57 32 -57q26 0 39 34q10 26 10 58z" />
    <glyph glyph-name="three" unicode="3" horiz-adv-x="486" 
d="M439 186q0 -55 -46.5 -110.5t-105.5 -68.5q-4 -3 -13.5 -5.5t-32.5 -6.5q-19 -4 -23 -4h-35q-74 0 -127 33q-65 42 -65 123q0 62 41 94q35 27 91 27q35 0 72.5 -15.5t44.5 -35.5q1 -3 1 -19q0 -27 -10 -43q-8 -12 -29 -22.5t-36 -10.5q-7 0 -26 6v10q-1 3 5.5 9.5
t7.5 8.5q7 12 7 30q0 47 -61 47q-85 0 -85 -92q0 -35 28 -69q42 -52 137 -52q33 0 49 4q7 4 20 9q44 15 71 65q21 41 21 81q0 28 -12 58q-10 22 -45 48t-59 26q-19 0 -43 -11q-31 -15 -41 -17l-1.5 2.5t-1.5 6.5q0 19 44 76q16 20 53 48q54 41 55 41q11 10 11 18q3 0 -56 0
q-28 0 -82 14.5t-76 14.5q-46 0 -46 -35q0 -20 21 -32q17 -9 39 -9q14 0 34.5 10.5t41.5 21.5q4 -1 4 -7q0 -20 -46 -36q-36 -12 -50 -12q-30 0 -51.5 21t-21.5 49q0 22 19 49q30 42 102 53q14 2 28 2q28 0 79 -17t72 -17t42 17l30 23l4 -16q-3 -7 -11 -24q0 -5 -2 -14
q-1 -2 -14 -29q-16 -30 -75 -80q-64 -52 -79 -74q1 -1 5 -4q85 2 152 -38q76 -45 76 -120z" />
    <glyph glyph-name="four" unicode="4" horiz-adv-x="581" 
d="M545 287q-33 -52 -138 -84q-7 -30 -24 -89q-8 -23 -40 -61q-35 -41 -55 -44v21q0 3 3.5 14t4.5 15q5 22 11 62q1 10 3 35q1 22 1 26q0 14 -7 18q-14 4 -38 13q-12 6 -51 33q-30 22 -40 22q-1 0 -50.5 -45.5t-89.5 -45.5q-41 0 -41 34q0 45 59 78q52 29 93 26q5 3 7 7
q37 87 65 130q49 76 112 106q45 21 95 21q21 0 47 -9q-2 -3 -40 -40q-30 -30 -32 -48q-7 -47 -7 -52v-118q0 -31 6 -71q8 -5 17 -5q27 0 62 20q30 17 59 35zM381 541h-13q-107 -45 -164 -235q90 -62 94 -62q5 0 7 2t3 2q0 38 2 114q3 38 14 96q3 18 25 45zM125 276
q-7 3 -17 3q-22 0 -52 -17q-36 -21 -36 -47q0 -14 16 -14q20 0 51.5 27.5t37.5 47.5z" />
    <glyph glyph-name="five" unicode="5" horiz-adv-x="478" 
d="M468 562q0 -56 -40.5 -95.5t-92.5 -39.5q-39 0 -86.5 37.5t-54.5 37.5q-20 0 -24 -25v-34q3 -10 1 -13h-3q0 -58 10 -58q17 -4 53 -9q54 0 114 -48.5t63 -98.5q0 -3 2.5 -9t2.5 -9t-2.5 -7.5t-2.5 -7.5q0 -28 1 -23q-2 -9 -16 -44q-22 -57 -90 -91q-58 -30 -118 -30
q-71 0 -118 25q-65 33 -65 107q0 73 89 104l24 -3q0 -5 -6 -10q-35 -7 -56.5 -33.5t-21.5 -56.5q0 -12 9 -37q11 -30 49 -47q29 -14 57 -14q25 0 49 7q28 7 59 41q30 31 41 62q7 19 7 68q0 22 -7 42q-12 36 -48 68q-12 11 -32.5 20.5t-27.5 9.5q-15 0 -15 -7
q-1 -30 -35.5 -70t-57.5 -40q-15 0 -25.5 13.5t-10.5 26.5q0 27 31 56t57 36q11 3 13 13q2 39 5 79q4 52 19 79q22 35 68 35q28 0 83.5 -30.5t81.5 -30.5q24 0 40 33q19 40 23 43q4 -8 4 -22zM142 329v10h-14q-22 -10 -40.5 -31t-18.5 -37q0 -7 4 -10h21q13 10 30.5 35
t17.5 33z" />
    <glyph glyph-name="six" unicode="6" horiz-adv-x="489" 
d="M441 201q-5 -102 -67 -160t-162 -53q-106 6 -163 104q-49 83 -47 194q3 120 85.5 210.5t193.5 82.5q34 -2 66.5 -31t30.5 -61q-2 -41 -37 -53l-7 5q5 15 11 44q1 29 -19 49.5t-46 21.5q-93 5 -139 -94q-33 -72 -35 -180q-3 -99 33 -173q40 -84 113 -88q78 -4 85 130
q3 61 -12 106q-20 64 -71 66q-40 2 -60 -28.5t-18 -71.5q4 -55 33 -74q-1 -12 -4 -15.5t-15 -2.5q-44 36 -40 112q3 58 49 98t103 37q67 -4 106 -57q37 -49 33 -118z" />
    <glyph glyph-name="seven" unicode="7" horiz-adv-x="498" 
d="M424 549q0 -40 -87 -137q-26 -24 -70 -66q-82 -81 -82 -201q0 -100 75 -100q24 0 65 37q56 52 57 53v-17q0 -13 -26 -45l-32 -36q-10 -14 -46 -30.5t-52 -16.5q-30 0 -73 23q-75 41 -75 142q0 2 2.5 12t2.5 15q0 44 57 111q52 61 100 87q13 10 41 34q20 15 51 45
q-5 4 -8 4t-17.5 -4.5t-18 -4.5t-14 -1.5t-14.5 -1.5q-34 0 -47 4q-22 7 -75 36q-44 24 -62 24q-25 0 -46 -24q-36 -42 -45 -49v23q0 12 28 50q24 34 29 37q51 35 89 35q39 0 71 -10q26 -15 78 -41q25 -9 58 -9q11 0 41 19q36 22 45 26v-23z" />
    <glyph glyph-name="eight" unicode="8" horiz-adv-x="498" 
d="M390 164q0 -49 -57 -105t-103 -58q-1 0 -6 -2.5t-9 -2.5h-42q-19 0 -59.5 15t-54.5 29q-52 50 -52 110q0 77 96 155q-50 40 -67 66.5t-17 64.5q0 20 17 51q25 45 79 69q43 19 85 19q78 0 118 -46v-17l-58 26q-22 10 -47 10q-5 0 -49 -10q-10 -3 -19 -18.5t-9 -24.5
q0 -15 15 -60q2 -5 24 -29q25 -27 34 -27q1 0 48.5 33t66.5 71q15 31 15 80q0 24 -7 43q-16 44 -62 66q-38 13 -77 26v6h39q4 0 22 -6q22 -8 33 -11q39 -10 62 -44.5t23 -69.5q0 -105 -120 -217q3 -8 14 -16q71 -49 97.5 -86t26.5 -90zM294 135q0 10 -13 56q-6 21 -57 58
t-72 37q-19 0 -44.5 -43.5t-25.5 -71.5q0 -16 8.5 -49t13.5 -41q13 -20 39 -34q23 -12 42 -13q3 0 8 -2.5t8 -2.5q38 0 65.5 33.5t27.5 72.5z" />
    <glyph glyph-name="nine" unicode="9" horiz-adv-x="489" 
d="M2 366q6 103 63.5 161t157.5 53q106 -6 167 -104q53 -85 51 -194q-2 -120 -83 -209q-84 -92 -196 -85q-33 3 -65.5 32t-31.5 61q2 41 37 52l8 -4q-5 -15 -11 -45q-2 -28 18.5 -48.5t46.5 -22.5q93 -4 138 95q33 72 36 180q2 99 -33 172q-40 84 -113 88q-78 4 -85 -130
q-3 -60 11 -105q21 -64 71 -66q40 -3 62 30q19 28 16 70q-3 54 -32 74q0 12 3 15.5t16 2.5q44 -37 40 -113q-3 -58 -49.5 -97.5t-103.5 -36.5q-66 3 -105 56q-37 50 -34 118z" />
    <glyph glyph-name="colon" unicode=":" horiz-adv-x="203" 
d="M154 53q-30 -30 -61 -47h-20q-9 0 -29 28t-20 33q0 7 36 32.5t42 25.5q7 0 16 -10q25 -29 36 -47q1 -2 -0.5 -8t0.5 -7zM154 353q-30 -30 -61 -47h-20q-9 0 -29 28t-20 33q0 7 36 32.5t42 25.5q7 0 16 -10q25 -29 36 -47q1 -2 -0.5 -8t0.5 -7z" />
    <glyph glyph-name="semicolon" unicode=";" horiz-adv-x="199" 
d="M158 30q0 -16 -4 -29q-9 -27 -43.5 -61t-64.5 -50q-4 1 -4 8q0 2 15 32.5t15 60.5q0 34 -24 82q0 4 25.5 21.5t40.5 23.5q2 1 8 -1t8 -2q17 -17 24 -48q4 -19 4 -37zM155 353q-30 -30 -61 -47h-20q-8 0 -28.5 28t-20.5 33q0 7 36 32.5t42 25.5q7 0 16 -10q25 -29 36 -47
q2 -2 0.5 -8t-0.5 -7z" />
    <glyph glyph-name="less" unicode="&#x3c;" horiz-adv-x="371" 
d="M0 320l261 210l44 -44l-211 -160l211 -172l-44 -44z" />
    <glyph glyph-name="equal" unicode="=" horiz-adv-x="386" 
d="M347 367l-27 -66h-301l29 66h299zM347 237l-27 -66h-301l29 66h299z" />
    <glyph glyph-name="greater" unicode="&#x3e;" horiz-adv-x="371" 
d="M305 320l-261 210l-44 -44l211 -160l-211 -172l44 -44z" />
    <glyph glyph-name="question" unicode="?" horiz-adv-x="419" 
d="M262 376q4 20 4 101q0 42 -29 74.5t-71 32.5q-13 0 -25 -6q2 -7 7 -19l4 -32t3 -27q0 -44 -19 -82q-25 -49 -69 -49q-69 0 -69 91q0 36 26 73t65 57q-17 22 -53 42q3 3 15 6q30 1 66 -37q59 11 66 11q81 0 132 -41q54 -45 54 -123q0 -115 -125 -170q-10 -12 -35 -34
q-6 -4 -16 -25q-14 -26 -12 -48q1 -8 -1 -17.5t-2 -17.5l-35 -3q-1 -6 -1 45q0 75 53.5 108t66.5 90zM129 509q4 61 -17 61q-14 0 -29 -18q-28 -33 -33 -46q-2 -6 -2 -32q0 -67 32 -67q26 0 39 39q10 29 10 63zM117 47q0 21 14.5 36.5t34.5 15.5q21 0 35 -15.5t14 -36.5
q0 -22 -14 -37t-35 -15q-20 0 -34.5 15t-14.5 37z" />
    <glyph glyph-name="at" unicode="@" horiz-adv-x="854" 
d="M486 186q-51 -84 -139 -84q-56 0 -93 38q-40 41 -40 110q0 84 56 161q61 83 143 86q87 3 116 -69l16 53h107l-56 -196q-19 -68 -19 -88q0 -18 7 -27q14 -15 43 -10q57 11 92 85q29 63 29 129q0 119 -89 187q-81 62 -200 62q-67 0 -128 -21q-116 -41 -182 -163
q-40 -73 -40 -174q0 -144 92 -229q88 -82 234 -82q133 0 269 84l22 -37q-150 -95 -320 -95q-180 0 -285 117q-95 105 -95 252q0 139 89 246q64 77 156 113q88 35 187 35q142 0 234 -69q104 -79 104 -222q0 -128 -71 -207q-61 -69 -139 -69q-88 0 -100 84zM327 218
q-1 -27 12.5 -44t36.5 -17q14 0 30 7q33 15 65 91q29 68 31 112q2 49 -19 64q-16 11 -32 11q-47 0 -89 -93q-34 -78 -35 -131z" />
    <glyph glyph-name="A" unicode="A" horiz-adv-x="1000" 
d="M972 144q0 -71 -43.5 -114.5t-114.5 -43.5q-110 0 -171 99q-52 83 -52 200q-34 25 -78 32l-7 -31q-10 -42 -37 -126q-70 -169 -234 -175q-234 -9 -234 168q0 83 77 133q65 43 144 43q26 0 45 -6q-3 1 42 13q54 15 131 15q26 0 54 -1q26 82 59 134q30 49 92 110
q-62 -21 -123 -21q-46 0 -127.5 29t-124.5 29q-49 0 -79 -27.5t-30 -76.5q0 -45 34 -81.5t79 -36.5q35 0 56 32q19 29 19 66q0 31 -42 63q6 2 18 2q29 0 55 -27.5t26 -55.5q0 -47 -41 -76q-37 -25 -86 -25q-59 0 -99 41t-40 100q0 69 60 115q55 42 127 42q61 0 138.5 -39.5
t108.5 -39.5q46 0 132 32q83 31 127 29h6q-149 -94 -156 -370l27 -1q48 0 87 28q43 32 43 79q0 48 -82 86l24 3q42 0 75 -27t33 -68q0 -62 -75 -101q-66 -34 -132 -29v-22q0 -82 35 -148q43 -80 117 -80q55 0 85 38q28 35 28 92q0 40 -25 65t-65 25q-34 0 -58 -23.5
t-24 -56.5q0 -34 27 -46q6 -3 55 -13q-7 -6 -13.5 -10.5t-20.5 -4.5q-26 0 -49 23.5t-23 48.5q0 48 30.5 75.5t78.5 27.5q49 0 80 -32t31 -83zM726 612q-72 -9 -134 -104q-50 -75 -72 -163q26 -5 72 -25q18 161 134 292zM268 297q-29 0 -49 -34q-17 -30 -17 -60
q0 -28 16 -51q19 -26 47 -26q31 0 49 32q16 27 16 60q0 31 -15 53q-17 26 -47 26zM488 326q-25 5 -70 5q-28 -3 -55 -6q-44 -5 -61 -15q54 -35 54 -94q0 -41 -26 -75q-29 -36 -69 -36q-37 0 -61 32q-22 29 -22 67q0 27 15 55.5t39 40.5l-31 3q-68 0 -121 -47
q-56 -48 -56 -115q0 -63 60 -102q52 -34 118 -34q140 0 209 96q49 69 77 225z" />
    <glyph glyph-name="B" unicode="B" horiz-adv-x="825" 
d="M787 183q0 -74 -60 -134.5t-135 -60.5q-62 0 -98 30q-39 33 -39 94q0 49 28 79t77 30q32 0 58 -18q29 -21 29 -52q0 -30 -24.5 -55t-54.5 -25q-21 0 -21 9q17 12 33.5 25.5t16.5 36.5q0 52 -52 52q-24 0 -44 -27t-20 -52q0 -40 22 -70q25 -33 63 -33q67 0 104 58
q33 50 33 120q0 32 -16 81q-19 60 -43 60q-70 -31 -103 -31q-22 0 -45 11q-28 13 -28 32q0 48 106 48q4 0 74 -15l13 45q0 29 -39 92t-39 90q0 8 2 15q-90 -42 -105 -55q-45 -35 -45 -102q0 -34 11 -103t11 -102q0 -105 -63 -184q-67 -85 -169 -85q-81 0 -132 32
q-61 39 -61 115q0 60 36.5 95.5t95.5 35.5q38 0 70.5 -24t32.5 -60q0 -30 -27.5 -51t-57.5 -21q-15 0 -36 8l36 20q25 15 25 45q0 28 -19 43.5t-47 15.5q-36 0 -60 -31.5t-24 -69.5q0 -63 53 -99q45 -31 111 -31q141 0 141 188q0 35 -5 97t-5 83q0 84 21 135q17 40 73 114
q-68 -54 -159 -54q-29 0 -82 17t-80 17q-47 0 -74 -38q-24 -34 -24 -83q0 -51 36.5 -89t86.5 -38q35 0 59 25t24 60q0 58 -106 77q25 20 61 20q40 0 71.5 -26t31.5 -65q0 -51 -45 -85q-41 -30 -93 -30q-68 0 -109 43t-41 111q0 81 62 128q56 43 139 43q21 0 68 -13.5
t72 -13.5q22 0 115 29l-7 -25q25 28 55 34q-52 -65 -61 -113q13 18 101 68q93 53 124 83q-16 -47 -16 -64q0 -19 33 -66.5t33 -74.5q0 -97 -42 -140q48 -27 78 -77t30 -104zM624 347q-9 9 -32.5 17t-37.5 8q-17 0 -35 -7q-22 -8 -22 -21q0 -23 47 -23q36 0 80 26z" />
    <glyph glyph-name="C" unicode="C" horiz-adv-x="689" 
d="M648 167q-13 -188 -272 -176q-116 4 -190 90q-70 82 -71 200q-51 11 -85.5 70.5t-29.5 124.5q5 67 60 136.5t118 86.5q-57 -36 -99 -93q-45 -63 -50 -124q-3 -45 20 -97q26 -61 66 -66q-4 146 92 253q101 114 250 103q64 -4 109 -41q51 -42 50 -109q0 -75 -55 -129
t-128 -54q-20 0 -40 4q-97 -85 -179 -80q10 -113 48 -171q48 -72 151 -79q71 -5 138 38q73 47 77 115q3 43 -30.5 75t-76.5 35q-31 2 -55 -13q-28 -17 -30 -46q-1 -20 15.5 -37t36.5 -19q21 -1 65 25q-2 -30 -31.5 -50t-60.5 -18q-33 3 -59 25.5t-23 55.5q3 44 53 73
q44 25 92 22q54 -4 91 -40t33 -90zM445 465q2 21 -10 47.5t-31 28.5q-26 2 -42 -27q-12 -22 -14 -51q-2 -30 7 -54q11 -32 36 -34q13 -1 33 37t21 53zM556 530q3 44 -29.5 84t-75.5 43q-105 8 -179 -94q-67 -93 -67 -208q0 -30 6 -56q91 -1 155 55q-46 42 -40 116
q2 35 25 63.5t57 26.5q27 -2 44 -34q14 -28 12 -57q-3 -40 -40 -100q55 0 94 55q34 48 38 106z" />
    <glyph glyph-name="D" unicode="D" horiz-adv-x="919" 
d="M892 507q0 -41 -28 -79.5t-68 -51.5l56 62q20 28 20 80q0 48 -44 87.5t-92 39.5q-23 0 -62 -13q-42 -14 -56 -29q61 -48 94 -127q31 -73 31 -156q0 -138 -76 -232q-83 -102 -218 -102q-34 0 -70 12q-7 2 -40 17q-49 -21 -66 -21q-10 0 -29 -1.5t-29 -1.5q-35 0 -70 15
q-45 19 -45 49q0 32 41 48q29 11 68 11q52 0 104 -30l48 -26q78 25 78 159v128q0 82 7 106q9 35 34 74q28 45 55 58q-34 35 -94 55q-54 19 -108 19q-113 0 -182 -62q-72 -65 -72 -176q0 -57 45 -116q48 -63 103 -63q63 0 96 37.5t33 100.5q0 50 -29 93q-32 48 -80 48
q-31 0 -51.5 -20.5t-20.5 -52.5q0 -30 20 -47t50 -17q7 0 19 -4q-23 -11 -41 -11q-29 0 -49 24t-20 53q0 43 32 74t76 31q62 0 105 -44.5t43 -106.5q0 -80 -56.5 -132t-137.5 -52q-87 0 -143.5 62.5t-56.5 150.5q0 127 105 196q91 60 224 60q130 0 240 -56q41 36 144 36
q67 0 115 -44.5t48 -111.5zM556 559q-17 -8 -27 -48q-9 -32 -9 -58q0 -33 4 -99t4 -99q0 -140 -137 -218q17 -10 35 -20t44 -10q92 0 140 105q37 80 37 184q0 75 -18 143q-25 88 -73 120zM313 33q-62 47 -143 47q-40 0 -40 -27q0 -21 37 -32q25 -8 54 -8h33q13 0 32 5
q24 6 27 15z" />
    <glyph glyph-name="E" unicode="E" horiz-adv-x="637" 
d="M586 311q0 -45 -17 -85q-20 -48 -57 -60q-12 -81 -70 -128.5t-145 -48.5q-110 -1 -200 54q-104 64 -101 167q2 66 43 116q30 36 92 75q-27 17 -42 54q-14 33 -14 68q0 72 63 121q57 45 134 48q68 3 102 -21q13 2 33 2q44 0 97 -21q66 -26 66 -63q0 -14 -3 -14t-23 21
q-23 24 -48 37q-37 21 -82 21l-21 -3q31 -34 31 -76q0 -43 -23 -74q-26 -33 -68 -33q-29 0 -49 24.5t-20 55.5q0 34 19.5 65.5t50.5 45.5q-11 10 -63 10q-54 0 -84 -47q-26 -40 -26 -98q0 -50 30 -92q33 17 62 17q77 0 77 -49q0 -47 -67 -47q-73 0 -105 31q-57 -74 -57 -160
q0 -91 59.5 -147t149.5 -56q55 0 100 33t56 85q-39 -20 -91 -23q-56 -4 -99 25q-49 32 -49 88q0 45 42 69q34 20 82 20q53 0 102 -35q51 -38 56 -89q20 11 37 50q14 35 14 61q0 47 -12 69q-26 46 -28 52q26 -2 47 -43q19 -37 19 -72zM400 575q0 16 -11 42q-12 31 -25 31
q-33 0 -54 -36q-19 -32 -19 -67q0 -16 13.5 -35.5t28.5 -19.5q33 0 51 27q16 23 16 58zM252 430q-12 0 -50 -13q39 -39 81 -39q25 0 25 22q0 30 -56 30zM469 186q0 47 -40 78t-89 31q-35 0 -58 -15q-27 -18 -27 -50q0 -39 34 -65q31 -24 71 -24q109 0 109 45z" />
    <glyph glyph-name="F" unicode="F" horiz-adv-x="667" 
d="M602 592q-48 0 -77 -76q-24 -62 -21 -120l2 -38q32 -5 54 -25q-3 38 18 66.5t58 28.5q22 0 36.5 -14t14.5 -36q0 -32 -25.5 -57t-57.5 -25q-10 0 -20 3q4 -16 4 -30q0 -50 -26 -59q5 19 5 41q0 19 -7 56q-13 10 -53 23q1 -178 -48 -257q-62 -100 -227 -100q-87 0 -153 39
q-79 47 -79 128q0 93 83 140q68 38 168 34q67 49 168 47l-1 20q-1 67 46 129q40 53 105 92q-107 53 -215 53q-70 0 -129 -36q-69 -41 -69 -106q0 -46 31.5 -77t77.5 -31q39 0 65 29.5t26 68.5q0 68 -65 68q-20 0 -53 -7q24 32 76 32q38 0 69.5 -22t31.5 -60q0 -52 -47.5 -91
t-100.5 -39q-52 0 -91 31q-43 34 -43 84q0 104 103 158q87 46 205 42q51 -1 131 -28.5t133 -27.5q108 0 153 59q-28 -123 -166 -123q-15 0 -29.5 1.5t-31 6.5t-29.5 5zM632 401q-47 0 -50 -76q7 -5 22 -5q54 0 54 57q0 24 -26 24zM268 291q-32 0 -32 -62q0 -24 15.5 -45.5
t38.5 -21.5q20 0 32 16t11 39q-1 24 -17 47q-20 27 -48 27zM419 339l-15 1q-64 3 -118 -33q36 -3 58.5 -33t22.5 -67q0 -26 -20.5 -53.5t-45.5 -27.5q-38 0 -64 26.5t-26 64.5q0 48 23 75h-14q-69 2 -112 -33q-46 -37 -46 -105q0 -76 57 -117q50 -37 129 -37q175 0 175 215
q0 16 -3 62q-2 39 -1 62z" />
    <glyph glyph-name="G" unicode="G" horiz-adv-x="495" 
d="M16 -100q29 -3 44 -3q101 0 158 86q-31 -6 -50 -3q-64 7 -109 41q-51 39 -51 95q0 46 33.5 73t84.5 25q59 -1 101.5 -46t39.5 -105q-1 -9 -11 -50q13 4 24 9q28 13 40 27q42 45 39 105q-3 73 11 101q-67 -33 -147 -33q-84 0 -140 37q-65 42 -77 124q-4 24 -4 46
q0 122 96 190q83 60 202 60q62 0 109 -35q52 -39 52 -98q0 -62 -60 -111q-54 -45 -108 -45q-42 0 -72.5 28t-30.5 73q0 43 28.5 76.5t70.5 35.5q8 0 9 -1t1 -11q-36 -28 -41 -33q-18 -21 -18 -49q0 -37 24.5 -62t59.5 -22q85 8 85 120q0 53 -42 84q-36 26 -84 26
q-87 0 -141 -69q-49 -62 -49 -147q0 -76 41 -126q46 -55 128 -55q81 0 192 80q4 -4 4 -8q0 -2 -11.5 -18.5t-12.5 -25.5q-4 -25 -3 -67q1 -49 -1 -67q-9 -119 -177 -164q-10 -16 -19 -31q-24 -36 -58 -57q-49 -31 -116 -31q-46 0 -56 1q-29 4 -64.5 22t-47.5 31
q-16 18 -12 45q12 -23 51.5 -43.5t84.5 -24.5zM242 71q0 37 -39.5 75.5t-80.5 38.5q-67 0 -67 -64q0 -50 43 -83t96 -33q17 0 32.5 4t15.5 62z" />
    <glyph glyph-name="H" unicode="H" horiz-adv-x="1026" 
d="M1016 225l-1 -23l-50 -47q-10 -79 -74 -125q-59 -42 -141 -42q-126 0 -179 121q-40 91 -35 235q-34 18 -105 34q-4 -141 -7 -172q-12 -99 -52 -151q-51 -65 -155 -65q-68 0 -118 33q-59 38 -59 103q0 42 31.5 76t73.5 41q-1 72 64 118q51 37 131 49q1 85 44 139
q33 41 120 92l3 -5q-77 -50 -77 -161l1 -74q55 -6 108 -29q4 127 90.5 216.5t213.5 89.5q45 0 85 -27q45 -31 45 -74q0 -54 -44 -90q-39 -33 -96 -39q-15 -56 -86 -89q-63 -29 -125 -24l-2 -53q-4 -99 25 -172q39 -98 125 -98q55 0 101 36.5t64 89.5q-38 -17 -68 -17
q-52 0 -90 32q-41 33 -41 84q0 39 27 65t67 26q62 0 98.5 -42t35.5 -106zM472 657q-17 -32 -57 -53t-79 -21q-52 0 -125.5 28t-103.5 28q-36 0 -60.5 -21t-24.5 -56q0 -37 26 -64.5t63 -27.5q27 0 51.5 18.5t24.5 45.5q0 21 -18 34q11 5 24 5q26 0 41.5 -17t15.5 -44
q0 -33 -39 -52q-32 -17 -68 -17q-60 0 -99 29q-44 32 -44 90q0 52 54 87q49 32 104 32q41 0 119.5 -24.5t120.5 -24.5q29 0 74 25zM948 577q0 39 -39 62q-33 20 -76 20q-131 0 -181 -117q-27 -63 -31 -182q70 1 108 15q49 19 81 70q-34 -3 -66 21t-32 59q0 24 14 41.5
t37 17.5q36 0 57 -30q18 -26 18 -64q0 -10 -2 -20q42 9 74 36q38 32 38 71zM819 488q0 27 -12 48q-15 26 -40 26q-32 0 -32 -34q0 -15 6 -25q11 -16 30 -28q23 -14 44 -11q4 1 4 24zM939 164q0 58 -26 96q-30 43 -85 43q-25 0 -45.5 -19.5t-20.5 -45.5q0 -39 32 -66.5
t72 -27.5q18 0 73 20zM168 229q1 -21 16 -38t37 -17q32 0 32 21q0 15 -17 27t-33 12q-5 0 -17 -2.5t-18 -2.5zM341 382q-60 1 -112 -34q-59 -40 -61 -98q15 3 30 3q76 0 76 -62q0 -38 -51 -38q-65 0 -76 70q-35 -4 -61 -34t-26 -65q0 -51 48 -85q44 -30 97 -30q68 0 105 45
q34 41 34 111q0 133 -3 217z" />
    <glyph glyph-name="I" unicode="I" horiz-adv-x="506" 
d="M493 626l-6 -15q-25 -39 -50 -79q-27 -44 -24 -91q7 -157 7 -142q0 -104 -68 -208q-75 -116 -175 -116l-17 3l8 12q109 33 141 161q17 64 17 226q0 60 14 95q11 29 41.5 60t63.5 64l-8 4q-51 -19 -125 -19q-67 0 -112 25.5t-81 25.5q-39 0 -66 -30.5t-27 -69.5
q0 -30 22 -53t52 -23q24 0 51 20t27 43q0 2 -16 47l8 4q15 0 33.5 -18.5t18.5 -33.5q0 -44 -31 -75t-75 -31q-39 0 -78 30.5t-39 68.5q0 69 48.5 117t117.5 48q17 0 34 -3q73 -15 147 -31q83 -16 147 -16z" />
    <glyph glyph-name="J" unicode="J" horiz-adv-x="611" 
d="M590 637q-12 -29 -35 -62t-30 -50q-13 -32 -13 -82q0 -22 5.5 -67t5.5 -66q0 -129 -79 -224q-83 -101 -210 -101q-86 0 -151 40q-77 46 -77 128q0 83 63 134q57 46 134 46q146 0 146 -108q0 -42 -27.5 -67.5t-69.5 -25.5q-29 0 -57 25t-28 54l8 3q32 -27 59 -27
q60 0 60 61q0 32 -29 49q-25 15 -59 15q-58 0 -92 -42.5t-34 -102.5q0 -65 47 -109.5t113 -44.5q125 0 163 107q22 59 22 212q0 90 21 148q25 68 87 121l-14 4q-26 -5 -51 -10q-32 -6 -50 -6q-44 0 -113.5 25.5t-109.5 25.5q-32 0 -56.5 -28t-24.5 -65q0 -33 23 -58t57 -25
q27 0 54 21.5t27 47.5q0 -5 -19 41l11 4q19 0 35.5 -21t16.5 -40q0 -34 -34.5 -65.5t-69.5 -31.5q-55 0 -90 34.5t-35 89.5q0 74 64 110q54 31 131 25q41 -4 138 -25q85 -18 137 -18q15 0 30 1z" />
    <glyph glyph-name="K" unicode="K" horiz-adv-x="890" 
d="M734 -14q-115 9 -154 55q-29 35 -29 122v46q1 32 1 51q0 29 -5 41q-41 -3 -95 17q2 -21 2 -45q0 -109 -43 -181q-64 -106 -209 -106q-81 0 -137 38q-64 43 -64 121q0 62 50 104t113 42q50 0 88 -25q45 -28 45 -75q0 -32 -36.5 -58.5t-70.5 -26.5q-29 0 -50 20
q39 13 52 21q29 17 29 44q0 70 -81 70q-49 0 -80.5 -31t-31.5 -81q0 -65 56 -106q50 -38 118 -38q162 0 162 253q0 39 -4 104t-4 86q0 46 27 82q15 21 64 64l-5 4q-34 -17 -76 -17q-38 0 -108 27.5t-109 27.5q-37 0 -65 -24.5t-28 -60.5q0 -43 28 -69t72 -26q95 0 95 58
q0 21 -13 46q54 0 54 -52q0 -45 -45 -67q-34 -17 -84 -17q-48 0 -88.5 39t-40.5 87q0 66 65 102q53 30 125 30q28 0 87 -25q63 -26 94 -29q23 2 72 2l-3 -20l43 20l-1 -7q-41 -39 -57 -83q-13 -37 -12 -99q1 -51 0 -73q16 5 32 5q33 0 99 -34q17 22 17 59q0 11 -1.5 31.5
t-1.5 30.5q0 127 53.5 185.5t180.5 58.5q46 0 84 -22q45 -25 45 -68q0 -49 -33.5 -79t-83.5 -30t-89 39v13h9q44 -30 64 -30q42 0 71 19q35 21 35 61q0 51 -46 68q-26 10 -89 10q-66 0 -88 -56q-14 -33 -14 -108v-74q0 -26 -28 -70.5t-51 -54.5l-15 -3q34 -32 41 -110
q10 -112 14 -125q18 -62 82 -71q44 -6 81 40q32 41 32 82q0 7 -2 13q17 -11 17 -36q0 -43 -37 -84q-41 -45 -91 -42zM535 324q-3 12 -16 22.5t-25 10.5q-32 0 -31 0q-11 -2 -16 -15q2 -6 26 -12q21 -7 30 -6h32z" />
    <glyph glyph-name="L" unicode="L" horiz-adv-x="839" 
d="M797 151q0 -90 -86 -143q-74 -46 -170 -46q-105 0 -254 63q-53 -32 -85 -43q-43 -15 -97 -15q-105 0 -105 71q0 50 65 77q50 22 108 22q32 0 80 -12q52 -11 76 -26q29 44 29 134q-33 -7 -66 -7q-105 0 -184.5 75t-79.5 180q0 128 127 212q9 2 11 -2q3 -3 -2 -10
q-50 -27 -80 -89q-28 -56 -28 -115q0 -92 84 -158q77 -60 173 -60q21 0 40 3q-55 150 -55 203q0 72 65.5 137t138.5 74q34 4 36 4q88 0 146 -41q65 -46 65 -131q0 -64 -40.5 -102t-105.5 -41q-27 -36 -75.5 -69t-93.5 -47q-1 -47 -19 -91q-21 -53 -57 -71q95 -40 115 -47
q63 -20 123 -20q73 0 121 31q56 37 56 107q0 39 -38.5 71t-78.5 32q-30 0 -53.5 -20.5t-23.5 -49.5q0 -28 21 -49t48 -21q9 0 36 4q-41 -46 -70 -46q-34 0 -57 28t-23 62q0 43 39 76.5t83 33.5q55 0 98 -36.5t43 -91.5zM606 471q0 33 -14 58q-16 31 -47 31q-20 0 -32 -18
t-12 -39q0 -34 24 -70q26 -40 58 -40q23 0 23 78zM687 518q0 62 -44.5 101.5t-107.5 39.5q-73 0 -114 -50t-41 -125q0 -37 22 -101q26 -70 29 -101q19 1 79 36.5t60 48.5q0 2 -21 16q-24 16 -26 18q-44 38 -44 102q0 28 18 51.5t46 23.5q88 0 88 -105q0 -50 -18 -86
q74 7 74 131zM263 35q-89 53 -173 53q-24 0 -43 -10q-23 -12 -23 -34q0 -55 80 -55q112 0 159 46z" />
    <glyph glyph-name="M" unicode="M" horiz-adv-x="1219" 
d="M1190 162q0 -74 -60.5 -122.5t-143.5 -48.5q-122 0 -199 94q-71 87 -71 213q0 70 34 138q22 45 79 121q-29 26 -57 51q-32 28 -60 28t-55 -21t-27 -48q0 -532 1 -567h-75q1 97 1 494q0 67 -4 89q-12 57 -53 57l-22 -8q-21 -13 -43 -27q-31 -19 -36 -33q45 -82 45 -219
q0 -154 -67 -252q-77 -113 -220 -107q-60 2 -102 47.5t-42 103.5q0 50 33.5 88t80.5 38q41 0 80.5 -29t39.5 -70q0 -30 -25 -56.5t-54 -26.5l-34 9q48 44 48 70q0 27 -18.5 50.5t-44.5 23.5q-35 0 -58 -31.5t-23 -67.5q0 -58 42 -92.5t101 -34.5q101 0 150 140q35 99 35 223
q0 105 -53 185q-60 91 -160 91q-54 0 -94.5 -42t-40.5 -96q0 -40 25 -75t64 -35q28 0 53 26t25 53q0 60 -67 75l31 13q37 0 69 -26.5t32 -62.5q0 -45 -38.5 -74t-86.5 -29q-122 0 -131 136q-5 76 49 120q50 41 130 41q120 0 213 -92q49 44 71 58q44 29 85 31q39 2 58 -12
q13 -10 19 -27.5t11 -17.5q22 28 58 47q40 21 79 21q27 0 67 -26q35 -22 56 -47q2 1 56 24q34 14 59 14q20 0 38 -13.5t18 -33.5q0 -35 -53 -52q-41 -13 -97 -13q-25 0 -39 2q-48 -72 -62 -122q-13 -45 -13 -132q0 -95 49 -174q56 -91 145 -93q72 -2 125.5 44t51.5 108
q-2 57 -38.5 101t-85.5 44q-33 0 -53.5 -23.5t-20.5 -56.5q0 -59 76 -59q12 0 25 1l4 -8q-15 -43 -68 -43q-43 0 -72.5 27.5t-29.5 71.5q0 47 39 79t88 32q77 0 119 -51q39 -47 39 -126zM1034 610q0 7 -13.5 12.5t-21.5 5.5q-23 0 -45.5 -12t-43.5 -25q5 -5 38 -10
q28 -4 42 -4t29 10t15 23z" />
    <glyph glyph-name="N" unicode="N" horiz-adv-x="1024" 
d="M995 164q0 -86 -44 -135q-46 -52 -133 -52q-111 0 -188 83q-74 80 -74 192q0 99 29 168q21 51 61 88q29 23 57 45q-44 5 -79 24q-23 14 -45 29q-26 16 -51 16q-38 0 -95 -70q16 -22 44 -140q9 -34 9 -82q0 -150 -57 -227q-46 -65 -90 -91q-50 -30 -123 -30q-56 0 -98 33
q-45 37 -45 95t41 96q38 35 90 35q18 0 35 -6q34 -10 55.5 -42.5t21.5 -69.5q0 -14 -3 -26q-6 -21 -26.5 -35.5t-41.5 -14.5q-51 0 -66.5 26t-15.5 29q0 8 5 21q12 0 17 -7t18 -7q18 0 29 19q9 14 9 28q0 54 -60 54q-40 0 -64 -36q-20 -29 -20 -61q0 -58 49 -85
q35 -19 87 -19q156 0 156 286q0 39 -4 114q-4 68 -44 147q-44 90 -96 103q-19 5 -38 5q-53 0 -91 -32q-41 -34 -41 -87q0 -48 29 -86q33 -43 84 -43q28 0 51 18.5t23 46.5q0 82 -75 83q8 17 10 17q36 0 64.5 -30t28.5 -63q0 -50 -46 -85q-40 -30 -82 -30q-68 0 -113 49
q-42 46 -42 108q0 79 75 122q62 37 146 37q40 0 93 -28q57 -29 80 -67q7 -6 21 -21q4 0 26 28q26 33 52 51q42 27 96 27q35 0 55 -11q0 -1 60 -45q7 -6 16 -13t22 -7t51 19h10q0 -4 -1 -10q-73 -61 -114 -164q-38 -95 -38 -196q0 -108 43 -176q47 -75 130 -75q66 0 105 51
q36 46 36 114q0 47 -38.5 86.5t-76.5 35.5q-28 -2 -48 -28t-20 -55q0 -53 61 -53q23 0 53 9q-8 -13 -18 -23q-23 -23 -50 -25q-40 -2 -72 22q-36 26 -36 65q0 52 46 84q38 28 81 28q55 0 100 -49q42 -46 42 -99z" />
    <glyph glyph-name="O" unicode="O" horiz-adv-x="654" 
d="M610 502q2 -32 -12.5 -62.5t-14.5 -31.5q0 -16 5.5 -48t5.5 -49q0 -134 -74 -229q-81 -103 -210 -103q-124 0 -215 114q-89 111 -87 248q2 156 100 254t242 98q98 0 170 -46q86 -52 90 -145zM545 420q0 -3 -15 33q-25 58 -92 58q-68 0 -81 -58q-4 -21 -4 -15
q0 -30 28 -50.5t59 -20.5q23 0 62 17q43 19 43 36zM579 511q-6 67 -85 113q-67 40 -132 40q-99 0 -172 -61q-75 -64 -81 -164q-6 -5 -6 -87q0 -120 52 -220q64 -123 174 -123q101 0 170 97q63 88 63 195q0 36 -9 82q-64 -38 -115 -38q-44 0 -77 21q-41 24 -41 66q0 45 38 76
q35 29 81 28q-6 13 -39.5 23.5t-51.5 10.5q-62 0 -103 -44t-41 -106q0 -53 34 -106q38 -58 88 -58q27 0 53 20t28 21l6 -5q-16 -39 -44 -64q-33 -29 -72 -29q-72 0 -115 58q-38 52 -38 125q0 80 59 145q62 69 146 68q81 -1 139 -46q42 -31 80 -95q13 29 11 57z" />
    <glyph glyph-name="P" unicode="P" horiz-adv-x="788" 
d="M789 621q-16 0 -46.5 7.5t-46.5 7.5q-25 0 -42 -15q42 -31 69 -82.5t27 -102.5q0 -85 -53 -142.5t-138 -63.5v-15q0 -83 -87.5 -165t-171.5 -82q-122 0 -179 71q-11 13 -13 22l3 3q-48 0 -79 52q-27 45 -27 97q0 37 31 78.5t67 40.5l3 -12q-79 -46 -79 -120
q0 -82 70 -103q-2 22 -2 26q0 68 49 119t117 51q47 0 82 -28q38 -31 38 -76q0 -66 -65 -104q-55 -32 -125 -32h-42q6 -28 62 -46q43 -13 82 -13q95 0 139 82q33 63 33 167q-3 3 -13 9q-22 15 -34 41q-2 8 -8 24q3 -2 23 -24q15 -16 29 -17q6 61 12 121q8 69 26 113
q23 57 72 98q-45 45 -188 45q-102 0 -172 -46q-82 -53 -82 -150q0 -49 40 -83q37 -31 88 -31q48 0 77 29.5t29 77.5q0 49 -20.5 71.5t-69.5 22.5q-10 0 -26 -5q-20 -7 -25 -8v10q34 32 79 32q44 0 80 -37t36 -80q0 -65 -56 -104q-50 -35 -117 -35q-58 0 -102 42.5t-44 99.5
q0 120 115 181q92 50 222 50q119 0 194 -50q11 7 42 14q28 5 45 5q19 0 56 -7t56 -7q-2 0 72 31q-25 -55 -112 -55zM592 594q-39 -27 -39 -134q0 -27 4 -82.5t4 -82.5q0 -20 -2 -38q51 19 79.5 62.5t28.5 98.5q0 109 -75 176zM246 267q-48 0 -86 -48.5t-38 -98.5
q0 -25 12 -32q9 -6 34 -6h37q48 0 81.5 29.5t33.5 76.5q0 34 -20 56.5t-54 22.5z" />
    <glyph glyph-name="Q" unicode="Q" horiz-adv-x="663" 
d="M668 126q-7 -27 -69 -78q-28 -23 -74.5 -41.5t-80.5 -22.5q-23 -3 -46 -2q-38 2 -40 2q-10 0 -64 17.5l-54 17.5q-64 -32 -124 -32q-111 0 -110 55q1 77 147 77q59 0 100 -13q19 -7 39 -14q28 -10 31 -9q29 15 70 80q59 94 59 229q0 111 -30 170q-44 86 -154 86
q-39 0 -88 -24q-44 -21 -67 -45q28 10 52 6q80 3 132 -44q49 -46 49 -117q0 -72 -49.5 -122.5t-122.5 -50.5q-62 0 -106 53q-40 48 -40 103q0 90 35 132q-70 -26 -109 -106q-14 0 -12 8q26 89 133 126q28 41 87 72t113 30q152 -3 223 -97q52 -68 52 -155q0 -89 -57 -195
q-31 -57 -150 -148q83 -40 134 -37q67 3 191 89zM277 415q0 56 -31 94q-36 46 -103 46q-43 0 -50 -10q-40 -56 -40 -121q0 -32 10 -65t43.5 -58.5t68.5 -25.5q20 0 36 10q40 24 54 55q12 27 12 75zM225 31l-11 5q-59 35 -120 35q-68 0 -68 -32q0 -17 37 -28q28 -8 47 -8
q23 0 65 10.5t50 17.5z" />
    <glyph glyph-name="R" unicode="R" horiz-adv-x="1000" 
d="M901 613q-34 0 -100 22.5t-102 22.5q-57 0 -75 -18q32 -21 56 -64.5t24 -79.5q0 -53 -17 -82q-12 -22 -57 -59q29 -22 42 -84q3 -66 7 -131q7 -87 48 -113q36 -23 79 -23q63 0 110.5 44t46.5 114q-1 45 -29 80t-73 35q-31 0 -50.5 -18t-19.5 -49q0 -21 14 -36.5t34 -15.5
q16 0 52 13q-35 -54 -71 -54q-35 0 -60 19.5t-25 54.5q0 49 31.5 81t81.5 32q60 0 99.5 -41t39.5 -101q0 -78 -51.5 -128.5t-129.5 -50.5q-58 0 -106 21q-59 26 -83 80q-18 43 -18 117q0 16 3 47.5t3 47.5q0 40 -17 40q-5 0 -13.5 -2t-13.5 -2q-32 0 -55 18q3 -114 -10 -157
q-29 -100 -111 -154q-77 -50 -182 -50q-210 0 -202 189q2 61 61 105q56 42 121 42q19 0 37 -5q104 -28 104 -117q0 -39 -30 -67t-69 -28q-22 0 -43 9q-25 11 -29 29q13 -1 23 -1q33 0 56 20.5t23 53.5q0 39 -25 60.5t-65 21.5q-54 0 -98 -41t-44 -94q0 -82 57 -122
q48 -34 125 -34q60 0 120 38q70 44 81 117q10 57 10 89v84q1 57 1 85q0 113 121 199q-17 22 -74 35q-53 12 -106 10q-99 -4 -170 -46q-88 -51 -88 -140q0 -46 34.5 -84.5t84.5 -38.5q47 0 79 51q29 45 29 95q0 38 -22.5 59t-56.5 21q-15 0 -31 -5l-1 7q25 24 68 24
q48 0 77 -39q27 -35 27 -85q0 -60 -38 -100q-45 -46 -127 -46q-70 0 -110 45q-34 40 -34 100q0 61 34 106q40 51 129 83q79 28 158 28q111 0 191 -39q68 21 107 21q38 0 106 -25t106 -25q27 0 55 19.5t35 19.5q-14 -26 -42 -43t-57 -17zM629 451q1 42 -18.5 89.5t-52.5 66.5
q-36 -29 -47 -85q-5 -26 -5 -91v-56q12 11 49 16q19 2 31 -3q18 -7 21 -7q7 15 14 31t8 39zM601 360l-27 12q-29 10 -52 -9q7 -14 38 -14q23 0 41 11z" />
    <glyph glyph-name="S" unicode="S" horiz-adv-x="599" 
d="M640 741l-6 -1q-12 0 -35.5 5t-35.5 5q-55 0 -105 -20q-57 -23 -84 -64q48 -3 91.5 -41t43.5 -85q0 -39 -25 -64t-64 -25q-46 0 -74 41q-25 37 -25 86q0 40 20 65h-8q-37 0 -69.5 -34t-32.5 -71q0 -57 89 -105q82 -44 164 -89q89 -63 89 -157q0 -98 -95 -157
q-82 -51 -186 -51q-170 0 -206 132l-40 34q-38 38 -38 98q0 59 39 101q37 39 96 52l3 -13q-116 -39 -116 -135q0 -69 54 -104q0 62 57 104q51 39 115 39q41 0 77 -25q39 -28 39 -67q0 -57 -52 -92q-46 -31 -106 -31q-58 0 -101 28q16 -52 71 -78q46 -23 107 -23q75 0 134 38
q66 44 66 116q0 70 -84 123q-78 44 -157 87q-84 56 -84 135q0 72 55 120t128 48q74 101 212 101q63 0 79 -26zM462 536q0 40 -31 73.5t-72 31.5q-18 -29 -18 -68q0 -34 22 -65q24 -34 57 -34q42 0 42 62zM308 191q0 25 -24 44t-50 19q-49 0 -87 -35.5t-40 -84.5
q52 -32 94 -32q107 0 107 89z" />
    <glyph glyph-name="T" unicode="T" horiz-adv-x="686" 
d="M996 756q0 -14 -19 -54q-61 -133 -223 -133q-20 0 -61 7.5t-53 7.5q-14 0 -33 -18t-28 -41q-16 -39 -16 -91q0 -11 3 -69q1 -43 0 -71q-7 -143 -77.5 -226.5t-190.5 -83.5q-70 0 -121 39q-47 38 -59 94q-11 6 -49 33q-50 38 -61 94q-7 39 2 75q6 0 8 -3q4 -26 16 -75
q27 -66 78 -88q-3 17 -3 32q0 87 82 137q40 24 89 24q54 0 89.5 -26.5t35.5 -74.5q0 -69 -70 -113q-59 -38 -125 -38q-17 0 -58 10q1 -29 44 -62q48 -36 105 -36q103 0 145 74q23 39 26 73q1 48 1 95q-4 26 -2 75q1 34 3 68q1 132 133 200q-8 1 -110 25q-72 17 -114 17
q-20 0 -37 -3q-49 -10 -90.5 -55.5t-41.5 -91.5q0 -30 24 -59.5t52 -29.5q48 0 75 32q24 30 24 75q0 51 -29 87q19 4 38 -11q15 -12 22 -29q10 -23 10 -49q0 -50 -34.5 -88.5t-85.5 -38.5q-56 0 -90.5 32.5t-34.5 85.5q0 31 20.5 68t51.5 62q92 71 228 69q55 -1 159 -26.5
t160 -25.5q98 0 149 68q15 25 41 63q2 -1 2 -12zM350 232q0 32 -26 54.5t-59 22.5q-58 0 -91.5 -38.5t-33.5 -91.5q0 -34 4 -42q7 -17 76 -17q44 0 83 26q47 32 47 86z" />
    <glyph glyph-name="U" unicode="U" horiz-adv-x="1000" 
d="M980 150q0 -70 -57 -115q-53 -43 -124 -43q-85 0 -143.5 48t-80.5 131l-179 -189q0 197 -165 203q95 87 105 100q44 55 44 136q0 92 -55.5 148.5t-147.5 56.5q-61 0 -105 -52.5t-44 -114.5q0 -45 32.5 -87t75.5 -42q37 0 62 35q22 32 22 70q0 77 -89 79q26 22 62 22
q43 0 72 -28.5t29 -70.5q0 -56 -51 -96q-47 -36 -104 -36q-60 0 -100 46t-40 107q0 103 73 161q67 54 172 54q88 0 155.5 -70t67.5 -158q0 -139 -142 -223q52 -9 85 -40q16 -16 58 -75q22 16 50 50q35 41 48 53q-4 27 -4 63q0 126 39 240q53 156 154 156q55 0 55 -81
q0 -60 -43 -149q-30 -63 -79 -136q-43 -64 -43 -62q0 -16 8 -57q34 -168 157 -168q54 0 100 40t46 93q0 48 -29 82t-76 34q-28 0 -42 -28q-12 -22 -12 -52q0 -62 78 -79q-18 -23 -46 -23q-34 0 -61 29t-27 63q0 42 35 78.5t77 36.5q59 0 93 -40.5t34 -99.5zM745 644
q-25 0 -53 -55q-21 -43 -29 -80q-27 -132 -27 -174q0 -41 1 -52q53 67 94 145q52 99 52 159q0 57 -38 57z" />
    <glyph glyph-name="V" unicode="V" horiz-adv-x="749" 
d="M932 739q4 -121 -89 -191q-62 -47 -123 -52v-63q0 -65 -35 -161.5t-75.5 -146.5t-104.5 -90q-60 -39 -108 -49l-8 6q48 19 64 92q7 38 7 124q0 124 -47 233q-56 127 -155 171q-29 13 -61 13q-65 0 -114 -44q-52 -46 -52 -111q0 -56 35 -90q31 -29 73 -29q36 0 61 22.5
t25 64.5q0 77 -88 75q22 25 63 25q63 0 83 -55q6 -16 6 -34q0 -51 -41.5 -91t-101.5 -38q-68 2 -106.5 44.5t-36.5 107.5q2 85 76 141q68 53 156 52q125 -1 204 -96q71 -85 88 -219q3 -22 3 -47q0 -72 -18.5 -150.5t-39.5 -104.5q39 15 79 54q31 30 48 58q93 151 93 302
q0 18 -2 36q-52 -1 -105 32q-59 38 -59 89q0 24 17 40t45 13q67 -7 100 -71q8 -14 27 -80q90 7 144 75q48 60 48 135q0 60 -48 105t-105 45q-25 0 -40 -6q-18 -9 -35 -18q-2 2 -5 16q9 8 21 14q28 14 66 15q60 2 114 -46.5t57 -116.5zM685 524q-3 36 -36 79q-35 47 -71 47
q-28 0 -28 -33q0 -41 31 -57q72 -36 104 -36z" />
    <glyph glyph-name="W" unicode="W" horiz-adv-x="1139" 
d="M1310 650q0 -82 -74 -130q-64 -42 -143 -40q-5 -155 -80 -300q-33 -63 -84 -120q-64 -71 -113 -75q-2 1 -2 2q0 2 6 14t7 17q3 13 3 27q0 50 -40 111q-2 3 -69 75q-36 -48 -71 -95q-73 -103 -86 -148q-20 49 -47 80q-44 53 -102 67q-6 1 -28 3q-17 0 -38 -2
q47 25 78.5 96t31.5 150q0 108 -59 175q-69 79 -204 76q-105 -2 -159 -90q-16 -25 -16 -58q0 -40 21 -74.5t52 -42.5q-4 80 47 134q48 51 110 48q34 -1 60.5 -26.5t26.5 -59.5q0 -52 -67 -96q-61 -40 -121 -40q-17 0 -29 4q12 -39 53 -63.5t90 -22.5q40 3 47 -1
q-6 -6 -28 -12t-34 -5q-66 7 -99.5 32t-50.5 76q-103 33 -103 142q0 78 65 131q80 66 205 63q112 -2 189.5 -75.5t77.5 -174.5q0 -81 -22 -123q-25 -49 -87 -125q28 8 54 5q66 -9 124 -67q16 40 51 85q23 30 46 59q0 -7 -37.5 78.5t-40.5 142.5q-3 58 25 114q35 71 100 74
q50 2 80 -50q24 -42 24 -95q0 -50 -18 -97q-12 -32 -33 -64q-18 -26 -18 -27q0 -7 24 -38q39 -48 65 -115q10 -25 10 -69q0 -20 -3 -47q-2 -21 -1 -22q32 19 77 86q57 86 98 237q12 48 16 117q-57 7 -95 35q-45 34 -45 87q0 61 59 59q47 -2 82 -59q32 -53 26 -101
q65 0 110 21q79 36 79 130q0 106 -151 155q-9 3 -9 8q0 7 7 7q70 -7 123 -54q57 -50 57 -119zM1072 502v23q-4 35 -29 70q-29 40 -62 40q-28 0 -28 -29q0 -25 22 -54.5t48 -37.5q39 -12 49 -12zM823 519q0 34 -16 71q-24 51 -65 51q-47 0 -57 -82q-1 -10 -1 -20
q0 -48 23 -101q22 -49 55 -84q29 26 46 76q15 44 15 89zM273 458q0 25 -18 40.5t-45 15.5q-38 0 -69 -52q-28 -46 -28 -86q0 -8 2 -14q10 -8 22 -8q55 0 92 23q44 28 44 81z" />
    <glyph glyph-name="X" unicode="X" horiz-adv-x="999" 
d="M952 188q0 -94 -76 -148q-67 -47 -167 -47q-109 0 -172 63q-46 47 -92 163q-25 -97 -98 -161q-76 -66 -174 -66q-73 0 -124 38q-56 42 -56 112q0 68 53 109q48 38 118 38q48 0 87 -25q45 -28 45 -74q0 -38 -25 -63.5t-63 -25.5q-22 0 -42.5 14.5t-20.5 35.5l1 2
q5 -1 14.5 -4.5t15.5 -3.5q16 0 32 12t16 28q0 32 -26 55t-59 23q-49 0 -84.5 -35t-35.5 -84q0 -61 43 -97t104 -36q106 0 183.5 84t77.5 190q0 21 -6 53q-29 8 -39 8q-49 0 -101 -31q-7 3 -7 5v4q23 24 66 40t75 12q-19 126 -56 192q-55 98 -161 98q-82 0 -130 -39
q-52 -43 -52 -124q0 -52 35.5 -92t86.5 -40q43 0 72 31t29 75q0 42 -34 72q-14 12 -42 16l-46 4q28 31 76 31q39 0 74 -36t35 -75q0 -61 -52 -103q-48 -40 -111 -40q-69 0 -108 45.5t-39 115.5q0 88 61 138q56 47 147 47q123 0 193 -64q63 -58 95 -182q25 114 88 179
q72 72 182 72q70 0 122 -39q57 -43 57 -111q0 -66 -46 -109t-113 -43q-50 0 -83.5 28.5t-33.5 77.5q0 51 33.5 82.5t84.5 31.5q58 0 69 -34l-2 -5l-1 1q-4 0 -8 -4q-28 23 -59 23q-42 0 -66 -24t-24 -67q0 -36 25.5 -60t62.5 -24q51 0 87 37.5t36 88.5q0 59 -45 92
q-40 30 -101 30q-139 0 -213 -149q-39 -79 -39 -132q0 -13 5 -26q36 -24 92 -24q26 0 70 18l2 -9q-10 -15 -35.5 -27t-44.5 -12q-43 0 -77 12q34 -139 65 -195q58 -103 161 -103q68 0 125 45q61 48 61 114q0 51 -30 91q-32 44 -80 44q-37 0 -68 -21q-33 -24 -33 -59
q0 -27 19.5 -46.5t46.5 -19.5q44 0 72 66q5 -15 5 -30q0 -34 -25 -57t-58 -23q-97 0 -97 100q0 52 44 85q40 28 94 28q60 0 98.5 -44t38.5 -107z" />
    <glyph glyph-name="Y" unicode="Y" horiz-adv-x="816" 
d="M881 610q0 -58 -36 -116q-26 -42 -69 -84l-46 -40q-2 -53 -12 -149q-25 -141 -111 -197q-79 -51 -230 -45q-66 3 -113 29q-66 36 -65 107q1 46 29.5 79.5t77.5 33.5q41 0 72.5 -22.5t31.5 -60.5q0 -30 -21.5 -49t-50.5 -19q23 24 23 61q0 66 -61 66q-33 0 -57 -30
q-20 -26 -20 -51q0 -63 59 -96q49 -28 126 -28q82 0 135 29q60 33 81 115q10 35 18 142q-45 -42 -110 -116q-11 -18 -25 -34q-10 26 -20 52.5t-39 47.5q-25 18 -72 29q108 63 108 136q0 103 -94 168q-79 55 -168 55q-67 0 -122 -29q-72 -38 -77 -111q-4 -77 53 -100
q-3 14 -3 27q0 65 54 110q47 41 101 41q44 0 66 -26.5t18 -65.5q-5 -67 -68 -100q-46 -24 -105 -24q-23 0 -31 3q30 -63 113 -61q50 1 87 25q17 0 16 2q-23 -40 -106 -47q-53 -4 -93 25q-36 25 -43 63q-11 3 -36 18q-46 40 -47 110q-1 93 99 148q85 47 184 43q98 -4 169 -58
q78 -59 78 -152q0 -92 -73 -169q75 -6 103 -64l83 81q-2 155 -1 180q4 90 49 138t118 48q32 0 52.5 -18.5t20.5 -49.5zM858 609q0 19 -14.5 34.5t-35.5 15.5q-38 0 -61 -49q-18 -39 -19 -84q-3 -129 2 -129q55 43 91.5 102.5t36.5 109.5zM284 474q0 64 -57 61
q-51 -2 -90.5 -39.5t-39.5 -85.5q0 -31 5 -36q20 -7 39 -7q47 0 90 25q53 31 53 82z" />
    <glyph glyph-name="Z" unicode="Z" horiz-adv-x="903" 
d="M870 201q-1 -107 -124 -167q-96 -47 -206 -47q-132 0 -259 40q-66 -32 -133 -32q-39 0 -77 14q-50 18 -50 50q0 31 52 50q45 16 86 14q33 -3 81 -12q41 -8 81 -16q51 45 85 186q-70 -35 -145 -33q-63 1 -115 37q-55 38 -70 96q-77 47 -77 136q0 86 84 132q67 38 160 38
q74 0 164 -29q50 -16 156 -61q98 77 193 77q49 0 70 -44q-16 -110 -247 -110q-11 0 -16 -3q-24 -33 -42 -78q-14 -40 -29 -80q76 47 174 47q27 0 54 -12q34 -14 40 -38q-63 29 -97 29q-77 0 -122 -25q-18 -11 -69 -58q-35 -150 -116 -214l20 -6q69 -23 104 -31
q57 -14 107 -16q101 -4 173 35q84 46 84 132q0 52 -44 84q-41 29 -99 28q-32 -1 -59 -28t-27 -57q0 -33 20 -55t48 -21q36 1 61 19q1 1 39 37l-1 -11q-30 -84 -118 -84q-50 0 -79.5 31.5t-29.5 80.5q0 54 53 89q46 30 98 30q63 0 113 -41q51 -44 51 -103zM802 617
q0 17 -24 26q-18 7 -38 7q-26 0 -71 -20q-48 -21 -57 -43q54 -11 69 -11q121 0 121 41zM516 532l-44 16q-4 2 -136 60q-87 39 -130 39q-70 0 -121 -29q-63 -35 -63 -101q0 -71 51 -105q2 69 56 116q52 44 121 43q101 -2 100 -78q-1 -62 -58 -97q-50 -31 -124 -31
q-34 0 -65 8q53 -100 157 -100q65 0 153 42q12 26 25.5 73t25.5 71q18 39 52 73zM295 489q0 25 -20 41t-45 16q-53 0 -95.5 -46t-38.5 -97q22 -12 85 -12q39 0 76.5 29.5t37.5 68.5zM240 37q-6 10 -56 23q-46 12 -64 12q-67 0 -67 -23q0 -14 35 -24q27 -8 43 -8q36 0 109 20
z" />
    <glyph glyph-name="bracketleft" unicode="[" horiz-adv-x="155" 
d="M100 739v-28h-58v-742h58v-28h-98v797z" />
    <glyph glyph-name="backslash" unicode="\" horiz-adv-x="411" 
d="M48 675h-40l339 -671h41z" />
    <glyph glyph-name="bracketright" unicode="]" horiz-adv-x="155" 
d="M2 739v-28h58v-742h-58v-29l98 1v797z" />
    <glyph glyph-name="asciicircum" unicode="^" horiz-adv-x="468" 
d="M348 725l-7 -19l-122 43l-121 -43l-6 16l125 95l2 -1l3 1l1 -2z" />
    <glyph glyph-name="underscore" unicode="_" horiz-adv-x="613" 
d="M-8 -96h623v-45h-623v45z" />
    <glyph glyph-name="grave" unicode="`" horiz-adv-x="637" 
d="M219 818q174 -90 173 -93q-4 -21 -6 -18q-97 29 -199 59q-15 5 -15 21q0 13 9.5 24.5t22.5 11.5q7 0 15 -5z" />
    <glyph glyph-name="a" unicode="a" horiz-adv-x="350" 
d="M323 55q-10 -8 -42 -41q-23 -25 -27 -25q-30 0 -62 68q-75 -69 -95 -69q-3 0 -6 1q-85 41 -90 149q-4 91 99 183q54 48 92 67l112 -70q-17 -12 -22 -17q-13 -12 -13 -26l-1 -134q0 -52 18 -64q9 -8 37 -22zM194 113l1 174q-4 6 -56 38q-81 -69 -78 -146q1 -35 25 -72
q30 -44 71 -48q14 -1 25.5 19t11.5 35z" />
    <glyph glyph-name="b" unicode="b" horiz-adv-x="338" 
d="M307 165q0 -48 -60 -95q-4 -4 -83 -53q-46 -28 -53 -28q-43 0 -75.5 44.5t-33.5 101.5q0 217 2 331q2 78 56 113q3 2 101 40q56 21 58 66q1 18 -13.5 30t-39.5 9q-3 0 -3 6q0 17 37 17q33 0 51 -24q15 -20 3 -62q-5 -18 -27 -33q-16 -10 -31 -19q-20 -15 -51 -24t-41 -16
q-18 -13 -25 -48q2 -15 3 -38q0 -21 -2 -177q13 4 31 11q51 24 84 50q15 12 33 25q0 -12 4 -25q2 -8 5 -15q3 -19 40 -74q31 -47 30 -113zM248 128q1 5 -4 29t-9 30q-14 25 -44 73q-23 31 -23 64q-21 -14 -89 -43v-73q0 -45 3 -61q5 -32 33 -59.5t58 -27.5q24 0 48.5 19.5
t26.5 48.5z" />
    <glyph glyph-name="c" unicode="c" horiz-adv-x="332" 
d="M300 362q-41 -77 -102 -77q-39 0 -77 37q-57 -31 -57 -116q0 -61 51 -100q46 -36 107 -36q12 0 34 19l24 24l5 -13q-7 -12 -53 -53q-15 -13 -45 -36q-7 -6 -54 -54q-4 -5 -12 8q0 -2 17 21q-22 6 -59 31t-54 49q-9 12 -17.5 39.5t-8.5 46.5q0 62 30 106q17 25 78 81
q75 68 81 61q7 -14 13 -29q17 -25 46 -25q15 1 53 16z" />
    <glyph glyph-name="d" unicode="d" horiz-adv-x="365" 
d="M319 216q0 -54 -42 -103q-26 -32 -79 -78q-49 -42 -55 -42q-48 0 -100.5 60.5t-54.5 122.5q-2 49 35 99q25 33 70 68q38 30 38 31q0 3 -8 22.5t-9 24.5q-6 35 -6 44q0 38 32 79q27 36 65 59l5 -5q-32 -58 -32 -88q0 -25 8 -51q12 -35 77 -118q56 -70 56 -125zM251 191
q-2 27 -47 80q-56 67 -62 78q-31 -15 -55.5 -46t-24.5 -76q0 -54 38 -107q39 -56 83 -56q10 0 32 21q19 19 24 30q16 35 12 76z" />
    <glyph glyph-name="e" unicode="e" horiz-adv-x="362" 
d="M74 157q42 38 127 115h-9q-38 0 -71 50q-59 -32 -57 -116q1 -27 10 -49zM298 356q-1 -1 6 -8q-77 -70 -222 -207q21 -33 61 -53q37 -18 79 -18q12 0 34 19l24 24l7 -10q-8 -14 -55 -56q-15 -13 -45 -36q-7 -6 -54 -54q-4 -5 -12 8q0 -2 17 21q-22 6 -59 31t-54 49
q-9 12 -17.5 39.5t-8.5 46.5q0 62 30 106q17 25 78 81q75 68 81 61q7 -17 13 -34q17 -30 46 -30q14 3 51 20z" />
    <glyph glyph-name="f" unicode="f" horiz-adv-x="267" 
d="M149 538l-30 -28q-9 -8 -9 -25q0 -37 37 -102q22 -13 52 -13q62 0 84 32q0 -1 5 -5q-5 -24 -36 -46q-27 -21 -44 -21q-42 0 -59 10v-269q0 -55 -2 -71q-5 -47 -28 -95q-33 -69 -88 -104l-8 8q28 24 35 52q3 13 9 139v342q-12 -1 -23 -4q-25 -10 -39 -33q-10 10 -9 17
q5 38 68 56q-25 21 -25 49q0 29 28 59q30 38 99 117q22 23 30 62q0 -44 30.5 -75t68.5 -31q47 0 69 49q-28 -103 -117 -103q-26 0 -53 8q-21 7 -36 16t-9 9z" />
    <glyph glyph-name="g" unicode="g" horiz-adv-x="395" 
d="M332 272l2 -148q2 -112 0 -145q-16 -242 -214 -242q-61 0 -102 24q-49 30 -49 87q0 42 40 71q36 25 80 25q30 0 56 -13q32 -17 32 -43q0 -41 -47 -56q-5 3 -9 20t-13 24q-15 13 -51 13q-21 0 -40.5 -16.5t-19.5 -37.5q0 -41 41 -63q33 -17 77 -17q79 0 109 51
q21 36 23 121q3 139 2 139q-9 0 -61 -42t-66 -42q1 0 -6 2q-38 14 -73 64t-37 91q-4 69 42 148q22 39 55 67q42 36 81 34q39 -1 64.5 -25.5t23.5 -24.5l32.5 25t60.5 24q-20 -17 -24 -26q-9 -23 -9 -89zM249 104v198q0 63 -63 63q-46 0 -76 -54q-26 -46 -26 -96
q0 -100 64 -136q20 -12 28 -12q24 0 45 7q28 10 28 30z" />
    <glyph glyph-name="h" unicode="h" horiz-adv-x="399" 
d="M314 -5q-31 10 -59 63q-27 50 -30 95q-2 21 -2 39q0 58 31 140q-9 10 -142 -74l-1 -176q10 -6 25 -17q8 -8 21 -9.5t17 -3.5l-54 -33q-21 -15 -25 -30q-2 0 -15 9t-21 13.5t-16 9.5q-11 5 -34 8q-2 0 9.5 10t13.5 18q1 -3 4 29l-2 380q2 77 54 113q49 22 99.5 46t50.5 76
q0 33 -29 33q-7 0 -19 -1q-3 0 -3 5q0 9 14.5 16t31.5 7q34 0 47 -26q14 -28 -2 -59q-8 -15 -62 -57q-18 -13 -47 -26q-25 -11 -34 -21q-15 -16 -22 -51q0 -14 -2 -36l1 -193q-2 -2 3 -2q2 0 82.5 45t87.5 50h8q3 -1 3 -6q0 -2 -12.5 -44.5t-12.5 -76.5q0 -58 25 -106
q33 -63 93 -58q-23 -20 -75 -99z" />
    <glyph glyph-name="i" unicode="i" horiz-adv-x="186" 
d="M132 495q0 -5 -15.5 -19t-20.5 -17q-24 -12 -40 -12q-11 0 -30 7q-22 8 -22 16q0 5 22 31t27 26q3 0 13.5 -8t15.5 -10q13 -6 47 -6q0 -1 1.5 -2.5t1.5 -5.5zM177 89q-9 -16 -33 -44q-27 -30 -34 -42q-5 -7 -11 -7q-13 0 -34 30q-19 27 -20 35q-3 20 -3 44t5 80
q5 53 4 79q0 16 -2 23q-5 16 -17 28q-1 2 -9.5 6t-10.5 7q1 4 28.5 29.5t36.5 25.5q13 0 28 -19t15 -35q0 -31 -4.5 -85.5t-4.5 -82.5q0 -17 1 -32t11.5 -32t20.5 -17q8 0 22 9h11z" />
    <glyph glyph-name="j" unicode="j" horiz-adv-x="227" 
d="M192 498q4 -15 -23 -32.5t-55 -19.5q-9 0 -26 6t-24 14q47 61 51 61q3 0 14 -9q15 -10 20 -12q2 -1 43 -8zM71 -75q9 12 6 98q-6 207 -6 244q0 41 30.5 78.5t71.5 44.5q-23 -50 -22 -69q1 -11 4 -321l-3 -33q-5 -40 -43 -83q-44 -52 -100 -52q-10 0 -21 2q48 26 69 59z
" />
    <glyph glyph-name="k" unicode="k" horiz-adv-x="395" 
d="M538 -26q-52 -54 -134 -54q-25 0 -44 5q-38 13 -69 51t-36 72q-5 15 -11.5 45t-10.5 61q-15 47 -54 47q-20 0 -42 -10q-6 3 -17 -2l-1 -78q10 -19 54 -46q-23 -11 -51 -43q-24 -28 -25 -28q8 0 -23 18t-65 28q0 7 18 22t14 39v349q3 26 5.5 51.5t18.5 48.5q-60 45 -77 96
q-13 40 -13 84q0 58 27 88l4 -8q-12 -23 -12 -59q0 -66 29 -110q13 -20 32 -40q11 -11 23 -22q6 11 16 22q22 27 55 45q70 39 166 44q45 2 86 -13q56 -21 56 -68q0 -63 -81 -93q-58 -21 -134 -21q-69 0 -120 26q-3 2 -4 -2q0 -3 0.5 -12t-0.5 -14l-1 -203q8 21 14 28
q9 13 33 34q38 31 94 31q20 0 41 -14q26 -18 26 -43q0 -54 -101 -112q51 -25 68 -43t29 -56q21 -67 37 -98q30 -56 103 -56q26 0 74 19q0 -2 3 -6zM391 598q0 24 -21 45.5t-51 21.5q-71 0 -123 -27q-60 -31 -70 -89q36 -31 129 -31q24 0 60.5 11t56 26t19.5 43zM249 292
q0 44 -38 44q-18 0 -41 -18q-8 -4 -27 -24q-24 -32 -24 -53v-29q130 13 130 80z" />
    <glyph glyph-name="l" unicode="l" horiz-adv-x="212" 
d="M257 628q-15 -2 -42 -7q-52 -10 -78 -57q-22 -40 -22 -98l1 -362q0 -19 32 -32l48 -18q-16 -9 -46 -27q-3 -2 -37 -39q2 0 -39 19.5t-64 17.5q35 43 35 60v378q0 60 53 113q50 50 113 58q27 4 43 4q3 0 3 -3v-7z" />
    <glyph glyph-name="m" unicode="m" horiz-adv-x="560" 
d="M300 275q21 17 40 30q47 31 80 33l-11 -40q-18 -67 -18 -118q0 -92 43 -151q21 -29 40 -35l80 81q-31 16 -51 34q-64 57 -64 157q0 42 13 81q0 1 16 39q-2 0 -6 3q-115 -38 -160 -81v3q2 4 1 6q0 70 -58 65q-11 -1 -59 -34q-42 -29 -60 -44l-4 36q-1 14 -14.5 29
t-23.5 15q-6 0 -40 -25t-34 -32q0 -3 12.5 -14.5t14.5 -15.5q11 -19 11 -41q0 -19 -1 -39l1 -131q0 -15 8 -44q1 -7 17 -25q17 -21 28 -21q4 0 26 21l35 35q-38 25 -38 57v170q48 30 59 30q27 0 32 -33q1 -4 1 -41q-2 0 0 -153q0 -71 57 -84q4 -1 25 20l34 34q-34 23 -34 66
q-4 47 2 157z" />
    <glyph glyph-name="n" unicode="n" horiz-adv-x="378" 
d="M286 389q4 -3 6 -3q-7 -16 -16 -39q-13 -39 -13 -81q0 -100 64 -157q20 -18 51 -34l-80 -81q-19 6 -40 35q-43 59 -43 151q0 51 18 118q2 8 11 40q-49 -3 -120 -61v-168q0 -32 38 -57l-35 -35q-22 -21 -26 -21q-11 0 -28 21q-16 18 -17 25q-8 29 -8 44t-1 131q1 20 1 39
q0 22 -11 41q-2 4 -14.5 15.5t-12.5 14.5q0 7 34 32t40 25q10 0 23.5 -15t14.5 -29q1 -4 0 -32q44 41 164 81z" />
    <glyph glyph-name="o" unicode="o" horiz-adv-x="316" 
d="M281 136q-17 -42 -55 -81q-70 -72 -84 -72q-5 0 -34 15.5t-42 26.5q-28 23 -47 58.5t-19 67.5q0 46 21 92q23 52 64 78q9 6 30 29q8 37 17.5 52t40.5 39q-4 -31 -2 -42q6 -17 11 -34q7 -21 49.5 -62.5t52.5 -67.5q7 -18 6 -50q-1 -31 -9 -49zM232 145q0 13 -6 29
q-7 21 -37 56q-23 27 -46 53q-6 6 -11 13q-10 13 -11 27q-1 9 -32 -33q-25 -32 -25 -74t33 -100q36 -64 76 -64q7 0 26 13q33 23 33 80z" />
    <glyph glyph-name="p" unicode="p" horiz-adv-x="366" 
d="M336 166q0 -78 -74 -132q-67 -49 -135 -42q-2 1 -3 -35.5t-36 -75.5t-70 -47q-4 -3 -4 3q0 -2 17 27q24 41 24 87q0 12 -2 60q-16 -3 -28 15q-8 13 -17 27q-6 11 -7 25l5 8q12 -15 23 -30q9 -8 27 -14l1 236q0 28 -45 48q1 6 24 33q26 31 36 31q4 0 16 -10t16 -15
q16 -22 18 -27q7 -14 7 -40q21 18 70 48q62 39 81 51q-2 -10 -2 -57q0 -38 29 -88t29 -86zM262 124q0 30 -23 83t-23 88q0 14 2 28l-58 -30q-33 -22 -33 -50v-226l28 -2q44 -3 75.5 27.5t31.5 81.5z" />
    <glyph glyph-name="q" unicode="q" horiz-adv-x="342" 
d="M403 -144q-2 -3 -17 -3q-47 0 -98 38q-47 35 -72 80q-18 32 -29 94q-57 -72 -77 -72q-4 0 -18 9q-40 26 -66 68q-30 45 -30 89q0 97 87 166.5t99 69.5q3 0 17.5 -16t33.5 -18q8 -1 18 4.5t18 5.5q-3 -26 -33 -46t-56 -20q-4 0 -24 13t-24 12q-31 -4 -48 -44
q-16 -35 -16 -81q0 -23 5 -43q6 -27 30.5 -53t41.5 -27q41 -3 42 35q1 169 117 242h5q-49 -86 -49 -218q0 -109 44 -180q27 -45 99 -105z" />
    <glyph glyph-name="r" unicode="r" horiz-adv-x="337" 
d="M334 399q0 -46 -38.5 -82.5t-88.5 -36.5q-12 0 -54 26q-12 -9 -34 -25v-170q0 -19 19 -34.5t38 -17.5q-15 -17 -29 -34q-29 -33 -36 -33q-20 0 -43.5 28t-23.5 49v189q0 16 -2 21q-6 16 -34 42q3 8 33.5 36.5t33.5 26.5q27 -16 37 -49q3 -15 5 -29q33 16 53 39
q17 22 34 43l10 -18.5t31 -19.5q26 -2 44.5 14t18.5 43q0 63 -100 91q7 4 21 4q37 0 67 -22q38 -29 38 -81z" />
    <glyph glyph-name="s" unicode="s" horiz-adv-x="336" 
d="M308 145q4 -68 -32.5 -110.5t-94.5 -42.5q-45 0 -88 33t-50 33q-20 0 -19 0q-1 -1 -22 -16q15 71 79 71q40 0 80 -43t60 -43q48 0 48 51q0 39 -80 70q-50 17 -99 33q-34 22 -48 39q-20 25 -20 61q0 45 31 75.5t76 30.5q22 0 62 -8.5t57 -8.5q11 0 22.5 7t23.5 15
q0 -25 -19.5 -47.5t-43.5 -23.5q-52 -3 -87 18t-43 20q-29 -5 -29 -42q0 -39 76 -60q5 -2 48 -18q54 -20 77 -37q33 -23 35 -57z" />
    <glyph glyph-name="t" unicode="t" horiz-adv-x="255" 
d="M241 367q0 -23 -18 -35.5t-37 -12.5q-16 0 -32.5 8.5t-21.5 16.5v-224q0 -17 20 -34q16 -15 26 -15q1 0 6 -2t19 -2q-18 -22 -57 -72l-19.5 3.5t-40.5 23.5q-24 25 -28 56t-4 205q0 5 2 69q-18 5 -26 5q-10 0 -49 -15q0 5 -5 15q25 25 80 23q-1 20 4 38q9 38 18 55
q14 26 47 52q19 16 70 31q-12 -12 -34 -38q-24 -33 -30 -77q-1 -9 -1 -63q4 -9 14.5 -12.5t22.5 -6.5q10 -3 19 2.5t11.5 12.5t1.5 15q-3 13 -3 19q17 0 31 -12t14 -29z" />
    <glyph glyph-name="u" unicode="u" horiz-adv-x="381" 
d="M384 84q-69 -101 -88 -90q-12 4 -34 21q-13 16 -25 32t-12 43q-6 -1 -22 -21q-18 -23 -25 -27q-3 -1 -38 -30q-26 -21 -35 -21q-7 0 -28.5 16.5t-26.5 25.5q-13 20 -14 66q1 73 0 197q-1 26 -34 36q-6 2 25.5 33t39.5 29q12 -4 26 -22q11 -14 12 -18q8 -31 8 -95v-156
q1 -30 44 -30q8 0 38.5 18t29.5 26q1 99 0 202q-3 29 94 75q-13 -20 -13 -115v-176q0 -12 12.5 -24t23.5 -10q10 1 33 24q1 -2 9 -9z" />
    <glyph glyph-name="v" unicode="v" horiz-adv-x="355" 
d="M296 160q-73 -113 -167 -170q2 25 9 51q5 22 5 38q0 21 -6 58q-28 84 -85 131l-54 40q-1 4 36 41t43 37q16 0 43 -38q23 -33 37 -67q26 -66 22 -147q-3 -46 -20 -94q41 21 73 81q30 54 30 89q0 39 -6 57q-10 32 -48 58q73 64 79 63q10 -2 27.5 -38t17.5 -62
q3 -67 -36 -128z" />
    <glyph glyph-name="w" unicode="w" horiz-adv-x="533" 
d="M495 191q-15 -102 -151 -191q-13 -9 -34 -19q-13 -1 -52.5 33.5t-38.5 34.5q-14 0 -53 -33t-45 -33q-18 0 -48 34q-29 31 -29 40v212q-7 22 -19 34q-6 5 -31 22q13 16 27 32q25 30 31 29q31 -5 49 -37l18 -40q21 19 66 45t56 26q52 0 61 -67l-1 -143q0 -62 1 -69
q2 -10 29 -26q32 -21 37 -21q7 0 20.5 10.5t20.5 21.5q14 25 17 37q2 9 2 40q0 18 -48 116q-9 19 -7 50q1 18 15.5 42t35.5 38l35 28q-12 -18 -13.5 -35t-2.5 -35q-1 -27 18 -63q23 -45 26 -61q9 -42 8 -52zM225 103v184q-8 36 -28 36q-8 0 -19 -4q-30 -10 -56 -42v-176
q8 -14 16 -24q18 -24 32 -25q14 -2 34.5 19t20.5 32z" />
    <glyph glyph-name="x" unicode="x" horiz-adv-x="432" 
d="M428 59q-23 -36 -44 -47q-37 -20 -60 -21q-86 -5 -124 70q-2 4 -13 35q-13 -39 -42 -70q-33 -35 -66 -33q-32 1 -52 22t-20 48q0 57 44 86q-8 -27 -8 -53q0 -24 17.5 -38.5t35.5 -14.5q23 0 53.5 29t28.5 50q-2 13 -9.5 39.5t-12.5 25.5q-19 -2 -23 -4l-22 -16
q-3 19 13 35q8 8 10 15q0 2 14 5q-1 10 -19 59q-15 42 -52 42q-20 0 -60 -50q-1 50 33 82q29 27 63 29q41 2 65 -40l22 -56q18 -44 18 -53q4 -1 8 17l4 20q13 43 38 75q31 38 65 38q24 0 42 -15q20 -18 20 -47q0 -43 -30 -74l-3 4q3 31 -10 54.5t-34 23.5q-31 0 -58 -46
q-21 -34 -27 -63l8 -11l8 -1t17 -3q7 0 21 9q0 -34 -32 -44q-7 -2 -17 1t-8 5q13 -63 52 -106q36 -40 71 -40q40 0 71 35z" />
    <glyph glyph-name="y" unicode="y" horiz-adv-x="521" 
d="M480 395q-26 -37 -26 -93q0 -41 1 -146v-135q0 -32 -6 -55q-40 -161 -194 -161q-19 0 -86 34q-39 20 -56 20q-18 0 -55 -22q-2 -1 -15 -14q-9 -9 -24 -11q5 19 22 50l40 40q27 22 58 22q8 0 16 -1q29 -5 60 -36t42 -34q35 -9 44 -8q55 5 66 45q3 10 6 108q3 58 0 96
q-23 0 -71 -52.5t-49 -52.5q-12 0 -92 63q5 4 12 28q1 13 0 153q0 64 -52 96q57 58 72 57q14 -1 33 -29q16 -23 21 -38q7 -20 7 -214q1 -8 18.5 -18.5t20.5 -8.5q19 18 82 50v174q0 32 34 60q30 24 71 33z" />
    <glyph glyph-name="z" unicode="z" horiz-adv-x="343" 
d="M292 115q11 -17 22 -54q11 -40 11 -63q0 -71 -42 -140q-52 -83 -132 -83q-56 0 -88 44q-29 38 -29 92q0 60 51.5 126.5t115.5 82.5q-9 25 -50 26q-24 0 -42 -13q-30 -23 -32 -24q-1 1 -7 0q-3 1 -5 2q8 48 45 96q23 29 66 65q34 29 34 35q-19 -1 -56 5q-12 3 -42 16
q-25 10 -28 10q-27 0 -53.5 -23.5t-25.5 -25.5q-4 14 3 22q5 40 61 69q21 11 42 11q18 0 52 -12t55 -12q15 0 62 23h8q3 0 3 -6t-13 -32t-15 -28q-39 -38 -129 -128q-12 -19 -19 -36q27 19 59 18q42 -1 66 -17q18 -14 37 -27l59 14q2 -10 -20 -21zM230 26q-1 9 -8.5 37
t-12.5 34q-35 -12 -50 -24q-94 -77 -94 -161q0 -33 13 -64q19 -43 56 -43q97 0 97 183q0 19 -1 38z" />
    <glyph glyph-name="braceleft" unicode="{" horiz-adv-x="300" 
d="M134 307q81 -48 81 -170q0 -20 -2.5 -58t-2.5 -54q0 -49 15 -72q18 -30 64 -34v-19h-18q-71 0 -100 39q-22 30 -22 94q0 18 2.5 58t2.5 59q0 119 -81 146v22q81 28 81 136q0 21 -3.5 64t-3.5 63q0 64 26 95q33 39 117 39v-20q-47 -4 -65 -34q-15 -23 -15 -71
q0 -17 2.5 -55t2.5 -58q0 -122 -81 -170z" />
    <glyph glyph-name="bar" unicode="|" horiz-adv-x="135" 
d="M20 -119v846h63v-846h-63z" />
    <glyph glyph-name="braceright" unicode="}" horiz-adv-x="301" 
d="M213 307q-80 -48 -80 -170q0 -20 2 -58t2 -54q0 -49 -15 -72q-18 -30 -64 -34v-19h18q72 0 100 39q22 30 22 94q0 18 -2.5 58t-2.5 59q0 119 81 146v22q-81 28 -81 136q0 21 3.5 64t3.5 63q0 64 -26 95q-33 39 -117 39v-20q47 -4 66 -34q14 -23 14 -71q0 -17 -2 -55
t-2 -58q0 -122 80 -170z" />
    <glyph glyph-name="asciitilde" unicode="~" horiz-adv-x="685" 
d="M258 755q-60 0 -60 -21l-23 -1q0 28 33 53q31 22 60 22q25 0 54.5 -18t62.5 -18q30 0 55 28h24q0 -28 -35.5 -53t-65.5 -25q-23 0 -50.5 16.5t-54.5 16.5z" />
    <glyph glyph-name="Adieresis" unicode="&#xc4;" horiz-adv-x="1000" 
d="M972 144q0 -71 -43.5 -114.5t-114.5 -43.5q-110 0 -171 99q-52 83 -52 200q-34 25 -78 32l-7 -31q-10 -42 -37 -126q-70 -169 -234 -175q-234 -9 -234 168q0 83 77 133q65 43 144 43q26 0 45 -6q-3 1 42 13q54 15 131 15q26 0 54 -1q26 82 59 134q30 49 92 110
q-62 -21 -123 -21q-46 0 -127.5 29t-124.5 29q-49 0 -79 -27.5t-30 -76.5q0 -45 34 -81.5t79 -36.5q35 0 56 32q19 29 19 66q0 31 -42 63q6 2 18 2q29 0 55 -27.5t26 -55.5q0 -47 -41 -76q-37 -25 -86 -25q-59 0 -99 41t-40 100q0 69 60 115q55 42 127 42q61 0 138.5 -39.5
t108.5 -39.5q46 0 132 32q83 31 127 29h6q-149 -94 -156 -370l27 -1q48 0 87 28q43 32 43 79q0 48 -82 86l24 3q42 0 75 -27t33 -68q0 -62 -75 -101q-66 -34 -132 -29v-22q0 -82 35 -148q43 -80 117 -80q55 0 85 38q28 35 28 92q0 40 -25 65t-65 25q-34 0 -58 -23.5
t-24 -56.5q0 -34 27 -46q6 -3 55 -13q-7 -6 -13.5 -10.5t-20.5 -4.5q-26 0 -49 23.5t-23 48.5q0 48 30.5 75.5t78.5 27.5q49 0 80 -32t31 -83zM726 612q-72 -9 -134 -104q-50 -75 -72 -163q26 -5 72 -25q18 161 134 292zM268 297q-29 0 -49 -34q-17 -30 -17 -60
q0 -28 16 -51q19 -26 47 -26q31 0 49 32q16 27 16 60q0 31 -15 53q-17 26 -47 26zM488 326q-25 5 -70 5q-28 -3 -55 -6q-44 -5 -61 -15q54 -35 54 -94q0 -41 -26 -75q-29 -36 -69 -36q-37 0 -61 32q-22 29 -22 67q0 27 15 55.5t39 40.5l-31 3q-68 0 -121 -47
q-56 -48 -56 -115q0 -63 60 -102q52 -34 118 -34q140 0 209 96q49 69 77 225zM574 775q0 22 16.5 38t38.5 16q23 0 39 -16t16 -38q0 -23 -16 -39t-39 -16q-22 0 -38.5 16t-16.5 39zM384 775q0 22 16.5 38t38.5 16q23 0 39 -16t16 -38q0 -23 -16 -39t-39 -16q-22 0 -38.5 16
t-16.5 39z" />
    <glyph glyph-name="Aring" unicode="&#xc5;" horiz-adv-x="1000" 
d="M972 144q0 -71 -43.5 -114.5t-114.5 -43.5q-110 0 -171 99q-52 83 -52 200q-34 25 -78 32l-7 -31q-10 -42 -37 -126q-70 -169 -234 -175q-234 -9 -234 168q0 83 77 133q65 43 144 43q26 0 45 -6q-3 1 42 13q54 15 131 15q26 0 54 -1q26 82 59 134q30 49 92 110
q-62 -21 -123 -21q-46 0 -127.5 29t-124.5 29q-49 0 -79 -27.5t-30 -76.5q0 -45 34 -81.5t79 -36.5q35 0 56 32q19 29 19 66q0 31 -42 63q6 2 18 2q29 0 55 -27.5t26 -55.5q0 -47 -41 -76q-37 -25 -86 -25q-59 0 -99 41t-40 100q0 69 60 115q55 42 127 42q61 0 138.5 -39.5
t108.5 -39.5q46 0 132 32q83 31 127 29h6q-149 -94 -156 -370l27 -1q48 0 87 28q43 32 43 79q0 48 -82 86l24 3q42 0 75 -27t33 -68q0 -62 -75 -101q-66 -34 -132 -29v-22q0 -82 35 -148q43 -80 117 -80q55 0 85 38q28 35 28 92q0 40 -25 65t-65 25q-34 0 -58 -23.5
t-24 -56.5q0 -34 27 -46q6 -3 55 -13q-7 -6 -13.5 -10.5t-20.5 -4.5q-26 0 -49 23.5t-23 48.5q0 48 30.5 75.5t78.5 27.5q49 0 80 -32t31 -83zM726 612q-72 -9 -134 -104q-50 -75 -72 -163q26 -5 72 -25q18 161 134 292zM268 297q-29 0 -49 -34q-17 -30 -17 -60
q0 -28 16 -51q19 -26 47 -26q31 0 49 32q16 27 16 60q0 31 -15 53q-17 26 -47 26zM488 326q-25 5 -70 5q-28 -3 -55 -6q-44 -5 -61 -15q54 -35 54 -94q0 -41 -26 -75q-29 -36 -69 -36q-37 0 -61 32q-22 29 -22 67q0 27 15 55.5t39 40.5l-31 3q-68 0 -121 -47
q-56 -48 -56 -115q0 -63 60 -102q52 -34 118 -34q140 0 209 96q49 69 77 225zM579 837q30 0 51 -21.5t21 -50.5q0 -30 -21 -51.5t-51 -21.5t-51 21.5t-21 51.5q0 29 21 50.5t51 21.5zM579 802q-15 0 -26 -11t-11 -26q0 -16 11 -27t26 -11q16 0 26.5 11t10.5 27
q0 15 -10.5 26t-26.5 11z" />
    <glyph glyph-name="Ccedilla" unicode="&#xc7;" horiz-adv-x="689" 
d="M488 -107q0 -71 -111 -71q-9 0 -68 19l18 26q27 -16 65 -16q52 0 52 42q0 26 -47 26q-9 0 -51 1q5 25 12 72q-109 11 -177 95q-65 81 -66 194q-51 11 -85.5 70.5t-29.5 124.5q5 67 60 136.5t118 86.5q-57 -36 -99 -93q-45 -62 -50 -124q-3 -45 20 -97q26 -61 66 -66
q-4 146 92 253q101 114 250 103q64 -4 109 -41q51 -42 50 -109q0 -75 -55 -129t-128 -54q-20 0 -40 4q-97 -85 -179 -80q10 -113 48 -171q48 -72 151 -79q71 -5 138 38q73 47 77 115q3 43 -30.5 75t-76.5 35q-31 2 -55 -13q-28 -17 -30 -46q-1 -20 15.5 -37t36.5 -19
q21 -1 65 25q-2 -30 -31.5 -50t-60.5 -18q-33 3 -59 25.5t-23 55.5q3 44 53 73q44 25 92 22q54 -4 91 -40t33 -90q-13 -183 -259 -177l-10 -44q50 7 48 7q38 0 51 -18q10 -12 10 -42zM556 530q3 44 -29.5 84t-75.5 43q-105 8 -179 -94q-67 -93 -67 -208q0 -30 6 -56
q91 -1 155 55q-46 42 -40 116q2 35 25 63.5t57 26.5q27 -2 44 -34q14 -28 12 -57q-3 -40 -40 -100q55 0 94 55q34 48 38 106zM445 465q2 21 -10 47.5t-31 28.5q-26 2 -42 -27q-12 -22 -14 -51q-2 -30 7 -54q11 -32 36 -34q13 -1 33 37t21 53z" />
    <glyph glyph-name="Eacute" unicode="&#xc9;" horiz-adv-x="637" 
d="M593 311q0 -45 -17 -85q-20 -48 -57 -60q-12 -81 -70 -128.5t-145 -48.5q-109 -1 -200 54q-104 64 -101 167q2 66 43 116q30 36 93 75q-27 17 -43 54q-13 33 -13 68q0 72 62 121q57 45 134 48q69 3 102 -21q13 2 33 2q44 0 98 -21q65 -26 65 -63q0 -14 -3 -14t-22 21
q-24 24 -49 37q-37 21 -82 21l-21 -3q31 -34 31 -76q0 -43 -24 -75t-66 -32q-30 0 -50 24.5t-20 55.5q0 34 20 65.5t50 45.5q-11 10 -62 10q-55 0 -85 -47q-26 -40 -26 -98q0 -50 30 -92q33 17 63 17q76 0 76 -49q0 -47 -67 -47q-73 0 -105 31q-56 -74 -56 -160
q0 -91 59 -147t150 -56q54 0 99 33t57 85q-40 -20 -91 -23q-57 -4 -100 25q-48 32 -48 88q0 45 41 69q34 20 82 20q53 0 102 -35q52 -38 56 -89q21 11 37 50q14 35 14 61q0 47 -12 69q-25 46 -27 52q26 -2 46 -43q19 -37 19 -72zM407 575q0 16 -11 42q-12 31 -25 31
q-32 0 -54 -36q-19 -32 -19 -67q0 -16 13.5 -35.5t28.5 -19.5q33 0 51 27q16 23 16 58zM259 430q-12 0 -50 -13q39 -39 81 -39q25 0 25 22q0 30 -56 30zM476 186q0 47 -40 78t-89 31q-35 0 -58 -15q-26 -18 -26 -50q0 -39 32 -64t72 -25q109 0 109 45zM345 818
q-174 -90 -173 -93q3 -21 6 -18q96 29 199 59q15 5 15 21q0 13 -9.5 24.5t-22.5 11.5q-8 0 -15 -5z" />
    <glyph glyph-name="Ntilde" unicode="&#xd1;" horiz-adv-x="1024" 
d="M995 164q0 -86 -44 -135q-46 -52 -133 -52q-111 0 -188 83q-74 80 -74 192q0 99 29 168q21 51 61 88q29 23 57 45q-44 5 -79 24q-23 14 -45 29q-26 16 -51 16q-38 0 -95 -70q16 -22 44 -140q9 -34 9 -82q0 -150 -57 -227q-46 -65 -90 -91q-50 -30 -123 -30q-56 0 -98 33
q-45 37 -45 95t41 96q38 35 90 35q18 0 35 -6q34 -10 55.5 -42.5t21.5 -69.5q0 -14 -3 -26q-6 -21 -26.5 -35.5t-41.5 -14.5q-51 0 -66.5 26t-15.5 29q0 8 5 21q12 0 17 -7t18 -7q18 0 29 19q9 14 9 28q0 54 -60 54q-40 0 -64 -36q-20 -29 -20 -61q0 -58 49 -85
q35 -19 87 -19q156 0 156 286q0 39 -4 114q-4 68 -44 147q-44 90 -96 103q-19 5 -38 5q-53 0 -91 -32q-41 -34 -41 -87q0 -48 29 -86q33 -43 84 -43q28 0 51 18.5t23 46.5q0 82 -75 83q8 17 10 17q36 0 64.5 -30t28.5 -63q0 -50 -46 -85q-40 -30 -82 -30q-68 0 -113 49
q-42 46 -42 108q0 79 75 122q62 37 146 37q40 0 93 -28q57 -29 80 -67q7 -6 21 -21q4 0 26 28q26 33 52 51q42 27 96 27q35 0 55 -11q0 -1 60 -45q7 -6 16 -13t22 -7t51 19h10q0 -4 -1 -10q-73 -61 -114 -164q-38 -95 -38 -196q0 -108 43 -176q47 -75 130 -75q66 0 105 51
q36 46 36 114q0 47 -38.5 86.5t-76.5 35.5q-28 -2 -48 -28t-20 -55q0 -53 61 -53q23 0 53 9q-8 -13 -18 -23q-23 -23 -50 -25q-40 -2 -72 22q-36 26 -36 65q0 52 46 84q38 28 81 28q55 0 100 -49q42 -46 42 -99zM402 748q-61 0 -61 -21l-23 -1q0 28 33 53q31 22 60 22
q25 0 54.5 -18t62.5 -18q30 0 55 28h24q0 -28 -35.5 -53t-65.5 -25q-23 0 -50.5 16.5t-53.5 16.5z" />
    <glyph glyph-name="Odieresis" unicode="&#xd6;" horiz-adv-x="654" 
d="M610 502q2 -32 -12.5 -62.5t-14.5 -31.5q0 -16 5.5 -48t5.5 -49q0 -134 -74 -229q-81 -103 -210 -103q-131 0 -220 99q-93 104 -89 268q4 154 106 252q98 95 243 95q98 0 170 -46q86 -52 90 -145zM545 420q0 -3 -15 33q-25 58 -92 58q-68 0 -81 -58q-4 -21 -4 -15
q0 -30 28 -50.5t59 -20.5q23 0 62 17q43 19 43 36zM579 511q-6 67 -85 113q-67 40 -132 40q-99 0 -172 -61q-75 -64 -81 -164q-6 -5 -6 -87q0 -120 52 -220q64 -123 174 -123q101 0 170 97q63 88 63 195q0 36 -9 82q-64 -38 -115 -38q-44 0 -77 21q-41 24 -41 66q0 45 38 76
q35 29 81 28q-6 13 -39.5 23.5t-51.5 10.5q-62 0 -103 -44t-41 -106q0 -53 34 -106q38 -58 88 -58q27 0 53 20t28 21l6 -5q-16 -39 -44 -64q-33 -29 -72 -29q-72 0 -115 58q-38 52 -38 125q0 80 59 145q62 69 146 68q81 -1 139 -46q42 -31 80 -95q13 29 11 57zM374 775
q0 22 16.5 38t38.5 16q23 0 39 -16t16 -38q0 -23 -16 -39t-39 -16q-22 0 -38.5 16t-16.5 39zM184 775q0 22 16.5 38t38.5 16q23 0 39 -16t16 -38q0 -23 -16 -39t-39 -16q-22 0 -38.5 16t-16.5 39z" />
    <glyph glyph-name="Udieresis" unicode="&#xdc;" horiz-adv-x="1000" 
d="M980 150q0 -70 -57 -115q-53 -43 -124 -43q-85 0 -143.5 48t-80.5 131l-179 -189q0 197 -165 203q95 87 105 100q44 55 44 136q0 92 -55.5 148.5t-147.5 56.5q-61 0 -105 -52.5t-44 -114.5q0 -45 32.5 -87t75.5 -42q37 0 62 35q22 32 22 70q0 77 -89 79q26 22 62 22
q43 0 72 -28.5t29 -70.5q0 -56 -51 -96q-47 -36 -104 -36q-60 0 -100 46t-40 107q0 103 73 161q67 54 172 54q88 0 155.5 -70t67.5 -158q0 -139 -142 -223q52 -9 85 -40q16 -16 58 -75q22 16 50 50q35 41 48 53q-4 27 -4 63q0 126 39 240q53 156 154 156q55 0 55 -81
q0 -60 -43 -149q-30 -63 -79 -136q-43 -64 -43 -62q0 -16 8 -57q34 -168 157 -168q54 0 100 40t46 93q0 48 -29 82t-76 34q-28 0 -42 -28q-12 -22 -12 -52q0 -62 78 -79q-18 -23 -46 -23q-34 0 -61 29t-27 63q0 42 35 78.5t77 36.5q59 0 93 -40.5t34 -99.5zM745 644
q-25 0 -53 -55q-21 -43 -29 -80q-27 -132 -27 -174q0 -41 1 -52q53 67 94 145q52 99 52 159q0 57 -38 57zM524 775q0 22 16.5 38t38.5 16q23 0 39 -16t16 -38q0 -23 -16 -39t-39 -16q-22 0 -38.5 16t-16.5 39zM334 775q0 22 16.5 38t38.5 16q23 0 39 -16t16 -38
q0 -23 -16 -39t-39 -16q-22 0 -38.5 16t-16.5 39z" />
    <glyph glyph-name="aacute" unicode="&#xe1;" horiz-adv-x="350" 
d="M323 55q-10 -8 -42 -41q-23 -25 -27 -25q-30 0 -62 68q-75 -69 -95 -69q-3 0 -6 1q-85 41 -90 149q-4 91 99 183q54 48 92 67l112 -70q-17 -12 -22 -17q-13 -12 -13 -26l-1 -134q0 -52 18 -64q9 -8 37 -22zM194 113l1 174q-4 6 -56 38q-81 -69 -78 -146q1 -35 25 -72
q30 -44 71 -48q14 -1 25.5 19t11.5 35zM231 515q-153 -85 -153 -87q4 -21 6 -18q87 25 179 53q15 5 15 21q0 13 -9.5 24.5t-22.5 11.5q-8 0 -15 -5z" />
    <glyph glyph-name="agrave" unicode="&#xe0;" horiz-adv-x="350" 
d="M323 55q-10 -8 -42 -41q-23 -25 -27 -25q-30 0 -62 68q-75 -69 -95 -69q-3 0 -6 1q-85 41 -90 149q-4 91 99 183q54 48 92 67l112 -70q-17 -12 -22 -17q-13 -12 -13 -26l-1 -134q0 -52 18 -64q9 -8 37 -22zM194 113l1 174q-4 6 -56 38q-81 -69 -78 -146q1 -35 25 -72
q30 -44 71 -48q14 -1 25.5 19t11.5 35zM115 515q153 -85 153 -87q-4 -21 -6 -18q-87 25 -179 53q-15 5 -15 21q0 13 9.5 24.5t22.5 11.5q7 0 15 -5z" />
    <glyph glyph-name="acircumflex" unicode="&#xe2;" horiz-adv-x="350" 
d="M323 55q-10 -8 -42 -41q-23 -25 -27 -25q-30 0 -62 68q-75 -69 -95 -69q-3 0 -6 1q-85 41 -90 149q-4 91 99 183q54 48 92 67l112 -70q-17 -12 -22 -17q-13 -12 -13 -26l-1 -134q0 -52 18 -64q9 -8 37 -22zM194 113l1 174q-4 6 -56 38q-81 -69 -78 -146q1 -35 25 -72
q30 -44 71 -48q14 -1 25.5 19t11.5 35zM284 433l-6 -17l-103 37l-103 -37l-5 14l106 81l2 -1l2 1v-2z" />
    <glyph glyph-name="adieresis" unicode="&#xe4;" horiz-adv-x="350" 
d="M323 55q-10 -8 -42 -41q-23 -25 -27 -25q-30 0 -62 68q-75 -69 -95 -69q-3 0 -6 1q-85 41 -90 149q-4 91 99 183q54 48 92 67l112 -70q-17 -12 -22 -17q-13 -12 -13 -26l-1 -134q0 -52 18 -64q9 -8 37 -22zM194 113l1 174q-4 6 -56 38q-81 -69 -78 -146q1 -35 25 -72
q30 -44 71 -48q14 -1 25.5 19t11.5 35zM198 477q0 19 13.5 33t33.5 14q19 0 32.5 -14t13.5 -33t-13.5 -33t-32.5 -14q-20 0 -33.5 14t-13.5 33zM54 477q0 19 13.5 33t32.5 14q20 0 33.5 -14t13.5 -33t-13.5 -33t-33.5 -14q-19 0 -32.5 14t-13.5 33z" />
    <glyph glyph-name="atilde" unicode="&#xe3;" horiz-adv-x="350" 
d="M323 55q-10 -8 -42 -41q-23 -25 -27 -25q-30 0 -62 68q-75 -69 -95 -69q-3 0 -6 1q-85 41 -90 149q-4 91 99 183q54 48 92 67l112 -70q-17 -12 -22 -17q-13 -12 -13 -26l-1 -134q0 -52 18 -64q9 -8 37 -22zM194 113l1 174q-4 6 -56 38q-81 -69 -78 -146q1 -35 25 -72
q30 -44 71 -48q14 -1 25.5 19t11.5 35zM117 443q-52 0 -52 -18l-19 -2q0 25 27 45t52 20q21 0 46 -15.5t53 -15.5q25 0 47 24h21q0 -24 -30.5 -45.5t-55.5 -21.5q-20 0 -43.5 14.5t-45.5 14.5z" />
    <glyph glyph-name="aring" unicode="&#xe5;" horiz-adv-x="350" 
d="M323 55q-10 -8 -42 -41q-23 -25 -27 -25q-30 0 -62 68q-75 -69 -95 -69q-3 0 -6 1q-85 41 -90 149q-4 91 99 183q54 48 92 67l112 -70q-17 -12 -22 -17q-13 -12 -13 -26l-1 -134q0 -52 18 -64q9 -8 37 -22zM194 113l1 174q-4 6 -56 38q-81 -69 -78 -146q1 -35 25 -72
q30 -44 71 -48q14 -1 25.5 19t11.5 35zM159 577q30 0 51 -21.5t21 -50.5q0 -30 -21 -51.5t-51 -21.5t-51 21.5t-21 51.5q0 29 21 50.5t51 21.5zM159 542q-15 0 -26 -11t-11 -26q0 -16 11 -27t26 -11q16 0 26.5 11t10.5 27q0 15 -10.5 26t-26.5 11z" />
    <glyph glyph-name="ccedilla" unicode="&#xe7;" horiz-adv-x="332" 
d="M228 -97q0 -61 -84 -61q-19 0 -27 3q-12 5 -30 13l15 22q23 -13 55 -13q30 0 27 32q6 26 -23 26q-7 0 -43 1q5 23 10 64q-25 9 -55 31q-33 24 -48 45q-9 12 -17.5 39.5t-8.5 46.5q0 62 30 106q17 25 78 81q75 68 81 61q7 -14 13 -29q17 -25 46 -25q15 1 53 16
q-41 -77 -102 -77q-39 0 -77 37q-57 -31 -57 -116q0 -61 51 -100q46 -36 107 -36q12 0 34 19l24 24l5 -13q-7 -12 -53 -53q-15 -13 -45 -36q-15 -13 -34 -33l-7 -31q6 1 15.5 4t14.5 3q52 0 52 -51z" />
    <glyph glyph-name="eacute" unicode="&#xe9;" horiz-adv-x="340" 
d="M74 157q42 38 127 115h-9q-38 0 -71 50q-59 -32 -57 -116q1 -27 10 -49zM298 356q-1 -1 6 -8q-77 -70 -222 -207q21 -33 61 -53q37 -18 79 -18q12 0 34 19l24 24l7 -10q-8 -14 -55 -56q-15 -13 -45 -36q-7 -6 -54 -54q-4 -5 -12 8q0 -2 17 21q-22 6 -59 31t-54 49
q-9 12 -17.5 39.5t-8.5 46.5q0 62 30 106q17 25 78 81q75 68 81 61q7 -17 13 -34q17 -30 46 -30q14 3 51 20zM231 515q-153 -85 -153 -87q4 -21 6 -18q87 25 179 53q15 5 15 21q0 13 -9.5 24.5t-22.5 11.5q-8 0 -15 -5z" />
    <glyph glyph-name="egrave" unicode="&#xe8;" horiz-adv-x="340" 
d="M74 157q42 38 127 115h-9q-38 0 -71 50q-59 -32 -57 -116q1 -27 10 -49zM298 356q-1 -1 6 -8q-77 -70 -222 -207q21 -33 61 -53q37 -18 79 -18q12 0 34 19l24 24l7 -10q-8 -14 -55 -56q-15 -13 -45 -36q-7 -6 -54 -54q-4 -5 -12 8q0 -2 17 21q-22 6 -59 31t-54 49
q-9 12 -17.5 39.5t-8.5 46.5q0 62 30 106q17 25 78 81q75 68 81 61q7 -17 13 -34q17 -30 46 -30q14 3 51 20zM125 515q153 -85 152 -87q-4 -21 -6 -18q-86 25 -179 53q-15 5 -15 21q0 13 9.5 24.5t22.5 11.5q8 0 16 -5z" />
    <glyph glyph-name="ecircumflex" unicode="&#xea;" horiz-adv-x="340" 
d="M74 157q42 38 127 115h-9q-38 0 -71 50q-59 -32 -57 -116q1 -27 10 -49zM298 356q-1 -1 6 -8q-77 -70 -222 -207q21 -33 61 -53q37 -18 79 -18q12 0 34 19l24 24l7 -10q-8 -14 -55 -56q-15 -13 -45 -36q-7 -6 -54 -54q-4 -5 -12 8q0 -2 17 21q-22 6 -59 31t-54 49
q-9 12 -17.5 39.5t-8.5 46.5q0 62 30 106q17 25 78 81q75 68 81 61q7 -17 13 -34q17 -30 46 -30q14 3 51 20z" />
    <glyph glyph-name="edieresis" unicode="&#xeb;" horiz-adv-x="340" 
d="M74 157q42 38 127 115h-9q-38 0 -71 50q-59 -32 -57 -116q1 -27 10 -49zM298 356q-1 -1 6 -8q-77 -70 -222 -207q21 -33 61 -53q37 -18 79 -18q12 0 34 19l24 24l7 -10q-8 -14 -55 -56q-15 -13 -45 -36q-7 -6 -54 -54q-4 -5 -12 8q0 -2 17 21q-22 6 -59 31t-54 49
q-9 12 -17.5 39.5t-8.5 46.5q0 62 30 106q17 25 78 81q75 68 81 61q7 -17 13 -34q17 -30 46 -30q14 3 51 20zM198 477q0 19 13.5 33t33.5 14q19 0 32.5 -14t13.5 -33t-13.5 -33t-32.5 -14q-20 0 -33.5 14t-13.5 33zM54 477q0 19 13.5 33t32.5 14q20 0 33.5 -14t13.5 -33
t-13.5 -33t-33.5 -14q-19 0 -32.5 14t-13.5 33z" />
    <glyph glyph-name="iacute" unicode="&#xed;" horiz-adv-x="186" 
d="M177 89q-9 -16 -33 -44q-27 -30 -34 -42q-5 -7 -11 -7q-13 0 -34 30q-19 27 -20 35q-3 20 -3 44t5 80q5 53 4 79q0 16 -2 23q-5 16 -17 28q-1 2 -9.5 6t-10.5 7q1 4 28.5 29.5t36.5 25.5q13 0 28 -19t15 -35q0 -31 -4.5 -85.5t-4.5 -82.5q0 -17 1 -32t11.5 -32t20.5 -17
q8 0 22 9h11zM131 515q-153 -85 -153 -87q4 -21 6 -18q87 25 179 53q15 5 15 21q0 13 -9.5 24.5t-22.5 11.5q-8 0 -15 -5z" />
    <glyph glyph-name="igrave" unicode="&#xec;" horiz-adv-x="186" 
d="M177 89q-9 -16 -33 -44q-27 -30 -34 -42q-5 -7 -11 -7q-13 0 -34 30q-19 27 -20 35q-3 20 -3 44t5 80q5 53 4 79q0 16 -2 23q-5 16 -17 28q-1 2 -9.5 6t-10.5 7q1 4 28.5 29.5t36.5 25.5q13 0 28 -19t15 -35q0 -31 -4.5 -85.5t-4.5 -82.5q0 -17 1 -32t11.5 -32t20.5 -17
q8 0 22 9h11zM24 515q153 -85 153 -87q-4 -21 -6 -18q-87 25 -179 53q-15 5 -15 21q0 13 9.5 24.5t22.5 11.5q8 0 15 -5z" />
    <glyph glyph-name="icircumflex" unicode="&#xee;" horiz-adv-x="186" 
d="M177 89q-9 -16 -33 -44q-27 -30 -34 -42q-5 -7 -11 -7q-13 0 -34 30q-19 27 -20 35q-3 20 -3 44t5 80q5 53 4 79q0 16 -2 23q-5 16 -17 28q-1 2 -9.5 6t-10.5 7q1 4 28.5 29.5t36.5 25.5q13 0 28 -19t15 -35q0 -31 -4.5 -85.5t-4.5 -82.5q0 -17 1 -32t11.5 -32t20.5 -17
q8 0 22 9h11zM181 436l-6 -17l-93 37l-93 -37l-5 14l96 81l2 -1l2 1l1 -2z" />
    <glyph glyph-name="idieresis" unicode="&#xef;" horiz-adv-x="186" 
d="M177 89q-9 -16 -33 -44q-27 -30 -34 -42q-5 -7 -11 -7q-13 0 -34 30q-19 27 -20 35q-3 20 -3 44t5 80q5 53 4 79q0 16 -2 23q-5 16 -17 28q-1 2 -9.5 6t-10.5 7q1 4 28.5 29.5t36.5 25.5q13 0 28 -19t15 -35q0 -31 -4.5 -85.5t-4.5 -82.5q0 -17 1 -32t11.5 -32t20.5 -17
q8 0 22 9h11zM108 477q0 19 13.5 33t33.5 14q19 0 32.5 -14t13.5 -33t-13.5 -33t-32.5 -14q-20 0 -33.5 14t-13.5 33zM-36 477q0 19 13.5 33t32.5 14q20 0 33.5 -14t13.5 -33t-13.5 -33t-33.5 -14q-19 0 -32.5 14t-13.5 33z" />
    <glyph glyph-name="ntilde" unicode="&#xf1;" horiz-adv-x="378" 
d="M286 389q4 -3 6 -3q-7 -16 -16 -39q-13 -39 -13 -81q0 -100 64 -157q20 -18 51 -34l-80 -81q-19 6 -40 35q-43 59 -43 151q0 51 18 118q2 8 11 40q-49 -3 -120 -61v-168q0 -32 38 -57l-35 -35q-22 -21 -26 -21q-11 0 -28 21q-16 18 -17 25q-8 29 -8 44t-1 131q1 20 1 39
q0 22 -11 41q-2 4 -14.5 15.5t-12.5 14.5q0 7 34 32t40 25q10 0 23.5 -15t14.5 -29q1 -4 0 -32q44 41 164 81zM107 443q-52 0 -52 -18l-19 -2q0 25 27 45t52 20q21 0 46 -15.5t53 -15.5q25 0 47 24h21q0 -24 -30.5 -45.5t-55.5 -21.5q-20 0 -43.5 14.5t-45.5 14.5z" />
    <glyph glyph-name="oacute" unicode="&#xf3;" horiz-adv-x="316" 
d="M281 136q-17 -42 -55 -81q-70 -72 -84 -72q-5 0 -34 15.5t-42 26.5q-28 23 -47 58.5t-19 67.5q0 46 21 92q23 52 64 78q9 6 30 29q4 22 7 26q6 9 36 32q-1 -10 -1 -16q0 -10 10 -10t15 -17q7 -21 49.5 -62.5t52.5 -67.5q7 -18 6 -50q-1 -31 -9 -49zM232 145q0 13 -6 29
q-7 21 -37 56q-23 27 -46 53q-6 6 -11 13q-10 13 -11 27q-1 9 -32 -33q-25 -32 -25 -74t33 -100q36 -64 76 -64q7 0 26 13q33 23 33 80zM211 516q-153 -85 -152 -88q3 -20 6 -17q82 24 170 50q17 5 17 26q0 33 -26 33q-7 0 -15 -4z" />
    <glyph glyph-name="ograve" unicode="&#xf2;" horiz-adv-x="316" 
d="M281 136q-17 -42 -55 -81q-70 -72 -84 -72q-5 0 -34 15.5t-42 26.5q-28 23 -47 58.5t-19 67.5q0 46 21 92q23 52 64 78q9 6 32 28q2 26 5 31q6 11 36 33q-2 -15 -2 -23q0 -11 5 -16q9 -9 12 -14q9 -15 56 -58q44 -38 55 -67q7 -18 6 -50q-1 -31 -9 -49zM232 145
q0 13 -6 29q-7 21 -37 56q-23 27 -46 53q-6 6 -11 13q-10 13 -11 27q-1 9 -32 -33q-25 -32 -25 -74t33 -100q36 -64 76 -64q7 0 26 13q33 23 33 80zM99 525q153 -85 153 -87q-4 -21 -6 -18q-87 26 -179 53q-15 5 -15 21q0 13 9.5 24.5t22.5 11.5q8 0 15 -5z" />
    <glyph glyph-name="ocircumflex" unicode="&#xf4;" horiz-adv-x="316" 
d="M281 136q-17 -42 -55 -81q-70 -72 -84 -72q-5 0 -34 15.5t-42 26.5q-28 23 -47 58.5t-19 67.5q0 46 21 92q23 52 64 78q9 6 30 29q6 29 19 41.5t27 24.5q2 -33 4 -38q9 -19 11 -23q6 -21 52 -57.5t56 -62.5q7 -18 6 -50q-1 -31 -9 -49zM232 145q0 13 -6 29q-7 21 -37 56
q-23 27 -46 53q-6 6 -11 13q-10 13 -11 27q-1 9 -32 -33q-25 -32 -25 -74t33 -100q36 -64 76 -64q7 0 26 13q33 23 33 80zM264 433l-6 -17l-103 37l-103 -37l-5 14l106 81l2 -1l2 1v-2z" />
    <glyph glyph-name="odieresis" unicode="&#xf6;" horiz-adv-x="316" 
d="M281 136q-17 -42 -55 -81q-70 -72 -84 -72q-5 0 -34 15.5t-42 26.5q-28 23 -47 58.5t-19 67.5q0 46 21 92q23 52 64 78q9 6 30 29q7 33 12 38q18 14 37 28q3 -22 7 -27q6 -9 11 -24q7 -21 49.5 -62.5t52.5 -67.5q7 -18 6 -50q-1 -31 -9 -49zM232 145q0 13 -6 29
q-7 21 -37 56q-23 27 -46 53q-6 6 -11 13q-10 13 -11 27q-1 9 -32 -33q-25 -32 -25 -74t33 -100q36 -64 76 -64q7 0 26 13q33 23 33 80zM178 477q0 19 13.5 33t33.5 14q19 0 32.5 -14t13.5 -33t-13.5 -33t-32.5 -14q-20 0 -33.5 14t-13.5 33zM34 477q0 19 13.5 33t32.5 14
q20 0 33.5 -14t13.5 -33t-13.5 -33t-33.5 -14q-19 0 -32.5 14t-13.5 33z" />
    <glyph glyph-name="otilde" unicode="&#xf5;" horiz-adv-x="316" 
d="M281 136q-17 -42 -55 -81q-70 -72 -84 -72q-5 0 -34 15.5t-42 26.5q-28 23 -47 58.5t-19 67.5q0 46 21 92q23 52 64 78q9 6 30 29q4 18 7 36q1 2 24 19q-4 -30 15 -47q15 -11 29 -21q27 -23 54 -45q28 -25 40 -57q7 -18 6 -50q-1 -31 -9 -49zM232 145q0 13 -6 29
q-7 21 -40 56q-45 50 -49 54q-7 8 -16 39q-1 9 -32 -33q-25 -32 -25 -74t33 -100q36 -64 76 -64q7 0 26 13q33 23 33 80zM97 443q-13 0 -28 -6q-20 -7 -20 -18l-13 4q0 25 22.5 45t46.5 20q21 0 41 -15.5t48 -15.5q25 0 47 24h21q0 -24 -30.5 -45.5t-55.5 -21.5
q-20 0 -38.5 14.5t-40.5 14.5z" />
    <glyph glyph-name="uacute" unicode="&#xfa;" horiz-adv-x="381" 
d="M384 84q-69 -101 -88 -90q-12 4 -34 21q-13 16 -25 32t-12 43q-6 -1 -22 -21q-18 -23 -25 -27q-3 -1 -38 -30q-26 -21 -35 -21q-7 0 -28.5 16.5t-26.5 25.5q-13 20 -14 66q1 73 0 197q-1 26 -34 36q-6 2 25.5 33t39.5 29q12 -4 26 -22q11 -14 12 -18q8 -31 8 -95v-156
q1 -30 44 -30q8 0 38.5 18t29.5 26q1 99 0 202q-3 29 94 75q-13 -20 -13 -115v-176q0 -12 12.5 -24t23.5 -10q10 1 33 24q1 -2 9 -9zM241 515q-153 -85 -153 -87q4 -21 6 -18q87 25 179 53q15 5 15 21q0 13 -9.5 24.5t-22.5 11.5q-8 0 -15 -5z" />
    <glyph glyph-name="ugrave" unicode="&#xf9;" horiz-adv-x="381" 
d="M384 84q-69 -101 -88 -90q-12 4 -34 21q-13 16 -25 32t-12 43q-6 -1 -22 -21q-18 -23 -25 -27q-3 -1 -38 -30q-26 -21 -35 -21q-7 0 -28.5 16.5t-26.5 25.5q-13 20 -14 66q1 73 0 197q-1 26 -34 36q-6 2 25.5 33t39.5 29q12 -4 26 -22q11 -14 12 -18q8 -31 8 -95v-156
q1 -30 44 -30q8 0 38.5 18t29.5 26q1 99 0 202q-3 29 94 75q-13 -20 -13 -115v-176q0 -12 12.5 -24t23.5 -10q10 1 33 24q1 -2 9 -9zM110 515q153 -85 153 -87q-4 -21 -6 -18q-87 25 -179 53q-15 5 -15 21q0 13 9.5 24.5t22.5 11.5q8 0 15 -5z" />
    <glyph glyph-name="ucircumflex" unicode="&#xfb;" horiz-adv-x="381" 
d="M384 84q-69 -101 -88 -90q-12 4 -34 21q-13 16 -25 32t-12 43q-6 -1 -22 -21q-18 -23 -25 -27q-3 -1 -38 -30q-26 -21 -35 -21q-7 0 -28.5 16.5t-26.5 25.5q-13 20 -14 66q1 73 0 197q-1 26 -34 36q-6 2 25.5 33t39.5 29q12 -4 26 -22q11 -14 12 -18q8 -31 8 -95v-156
q1 -30 44 -30q8 0 38.5 18t29.5 26q1 99 0 202q-3 29 94 75q-13 -20 -13 -115v-176q0 -12 12.5 -24t23.5 -10q10 1 33 24q1 -2 9 -9zM284 433l-6 -17l-103 37l-103 -37l-5 14l106 81l2 -1l2 1v-2z" />
    <glyph glyph-name="udieresis" unicode="&#xfc;" horiz-adv-x="381" 
d="M384 84q-69 -101 -88 -90q-12 4 -34 21q-13 16 -25 32t-12 43q-6 -1 -22 -21q-18 -23 -25 -27q-3 -1 -38 -30q-26 -21 -35 -21q-7 0 -28.5 16.5t-26.5 25.5q-13 20 -14 66q1 73 0 197q-1 26 -34 36q-6 2 25.5 33t39.5 29q12 -4 26 -22q11 -14 12 -18q8 -31 8 -95v-156
q1 -30 44 -30q8 0 38.5 18t29.5 26q1 99 0 202q-3 29 94 75q-13 -20 -13 -115v-176q0 -12 12.5 -24t23.5 -10q10 1 33 24q1 -2 9 -9zM198 477q0 19 13.5 33t33.5 14q19 0 32.5 -14t13.5 -33t-13.5 -33t-32.5 -14q-20 0 -33.5 14t-13.5 33zM54 477q0 19 13.5 33t32.5 14
q20 0 33.5 -14t13.5 -33t-13.5 -33t-33.5 -14q-19 0 -32.5 14t-13.5 33z" />
    <glyph glyph-name="dagger" unicode="&#x2020;" 
 />
    <glyph glyph-name="degree" unicode="&#xb0;" horiz-adv-x="244" 
d="M93 580q38 0 65 -27t27 -65t-27 -65t-65 -27t-65 27t-27 65t27 65t65 27zM93 555q-28 0 -47.5 -19.5t-19.5 -47.5t19.5 -47.5t47.5 -19.5q27 0 47 19.5t20 47.5t-20 47.5t-47 19.5z" />
    <glyph glyph-name="cent" unicode="&#xa2;" horiz-adv-x="332" 
d="M150 175v214q-16 10 -29 23q-57 -31 -57 -116q0 -84 86 -121zM150 559h25v-75q11 8 13 6q7 -14 13 -29q17 -25 46 -25q15 1 53 16q-41 -77 -102 -77q-11 0 -23 4v-213q23 -6 47 -6q12 0 34 19l24 24l5 -13q-7 -15 -53 -58q-12 -12 -39 -36q-5 -4 -18 -15v-83h-25v68
q-16 4 -12 10q-22 6 -59 31t-54 49q-9 12 -17.5 39.5t-8.5 46.5q0 62 30 106q17 25 78 81q21 19 43 37v93z" />
    <glyph glyph-name="sterling" unicode="&#xa3;" horiz-adv-x="739" 
d="M687 161q0 -90 -86 -143q-74 -46 -170 -46q-47 0 -110 25q-53 24 -107 48q-13 -18 -27 -35q-34 -33 -82 -33q-41 0 -71 17q-36 21 -36 60q0 93 123 93q47 0 101 -33q30 47 30 103q0 29 -10 57t-32 89h-135v25h127q-14 51 -14 87q0 72 65.5 137t138.5 74q19 2 40 2
q88 0 144 -40q63 -45 63 -130q0 -64 -40.5 -101t-106.5 -41q85 40 85 152q0 62 -44.5 101.5t-107.5 39.5q-73 0 -114 -50t-41 -125q0 -36 20 -106h150v-25h-142q22 -71 26 -104q-2 -99 -77 -157q58 -25 116 -49q64 -23 123 -23q73 0 121 31q56 37 56 107q0 39 -38.5 71
t-78.5 32q-30 0 -53.5 -20.5t-23.5 -49.5q0 -28 21 -49t48 -21q9 0 36 4q-41 -46 -70 -46q-34 0 -57 28t-23 62q0 43 39 76.5t83 33.5q55 0 98 -36.5t43 -91.5zM195 56q-36 34 -111 40q-23 1 -40 -8q-20 -11 -20 -34q0 -55 80 -55q52 0 91 57z" />
    <glyph glyph-name="section" unicode="&#xa7;" 
 />
    <glyph glyph-name="bullet" unicode="&#x2022;" horiz-adv-x="184" 
d="M2 290q0 30 20.5 50.5t50.5 20.5q29 0 49.5 -20.5t20.5 -50.5q0 -29 -20.5 -49.5t-49.5 -20.5q-30 0 -50.5 20.5t-20.5 49.5z" />
    <glyph glyph-name="paragraph" unicode="&#xb6;" 
 />
    <glyph glyph-name="germandbls" unicode="&#xdf;" horiz-adv-x="414" 
d="M231 21q33 4 50 66q13 44 13 93q0 32 -20 76q-23 48 -50 55q-7 2 -14 5q-1 0 -13 -5q0 1 -5.5 2t-5.5 5q0 9 39 92t45 92q3 4 12.5 23t9.5 23q-48 -30 -91 -30q-29 0 -57.5 14l-28.5 14q-3 0 -17 -16l-19 -19t-9 -26q0 -37 38 -104q-1 -117 0 -306q2 -51 -1 -75
q-5 -47 -28 -95q-33 -69 -88 -104l-8 8q28 24 35 52q3 13 9 139q-2 -104 -2 373q-26 23 -26 54q0 30 28 59q30 38 99 117q7 7 13 14t11 30q0 -35 15 -58q19 -29 55 -29q31 0 72 20q17 11 29 28.5t15 19.5l9 -6q2 -9 0 -26q-4 -15 -61 -133q-55 -113 -54 -114q51 2 92 -39
q48 -45 52 -121q5 -85 -38 -137q-37 -46 -105 -58q-41 -8 -66 14q-3 13 2 30q27 -19 47 -19q8 0 17 2z" />
    <glyph glyph-name="registered" unicode="&#xae;" horiz-adv-x="374" 
d="M162 383q-62 0 -106 45t-44 108q0 62 44 106t106 44t104.5 -44.5t42.5 -107.5t-42.5 -107t-104.5 -44zM162 406q51 0 88 37.5t37 90.5t-37 90.5t-88 37.5q-54 1 -90 -36t-36 -92q0 -53 37.5 -90.5t88.5 -37.5zM176 534l47 -72h-26l-47 72h-26v-72h-22v157h68q-6 0 -5 1h7
q52 0 52 -40q0 -44 -48 -46zM126 557h45q30 0 30 23q0 17 -34 17h-41v-40z" />
    <glyph glyph-name="copyright" unicode="&#xa9;" horiz-adv-x="772" 
d="M346 -11q-143 0 -242.5 100t-99.5 244q0 145 99.5 245t242.5 100t243 -100t100 -245q0 -144 -100 -244t-243 -100zM346 635q-122 0 -211 -88t-89 -214q0 -125 89 -213t211 -88t211 88t89 213q0 126 -89 214t-211 88zM355 139q-86 0 -136.5 55t-50.5 142q0 83 52 139.5
t136 56.5q59 0 103 -34t54 -91h-45q-22 81 -112 81q-67 0 -106 -44t-39 -110q0 -60 34 -103q40 -49 109 -49q94 0 115 79h43q-13 -57 -55.5 -89.5t-101.5 -32.5z" />
    <glyph glyph-name="trademark" unicode="&#x2122;" horiz-adv-x="481" 
d="M401 650v-196h-27v167h-2l-66 -167h-17l-65 167v0v-167h-28v196h46l56 -141l57 141h46zM159 650v-29h-64v-167h-28v167h-65v29h157z" />
    <glyph glyph-name="acute" unicode="&#xb4;" horiz-adv-x="637" 
d="M345 818q-174 -90 -173 -93q3 -21 6 -18q96 29 199 59q15 5 15 21q0 13 -9.5 24.5t-22.5 11.5q-8 0 -15 -5z" />
    <glyph glyph-name="dieresis" unicode="&#xa8;" horiz-adv-x="499" 
d="M274 775q0 22 16.5 38t38.5 16q23 0 39 -16t16 -38q0 -23 -16 -39t-39 -16q-22 0 -38.5 16t-16.5 39zM84 775q0 22 16.5 38t38.5 16q23 0 39 -16t16 -38q0 -23 -16 -39t-39 -16q-22 0 -38.5 16t-16.5 39z" />
    <glyph glyph-name="AE" unicode="&#xc6;" horiz-adv-x="1173" 
d="M268 297q-29 0 -49 -34q-17 -30 -17 -60q0 -28 16 -51q19 -26 47 -26q31 0 49 32q16 27 16 60q0 31 -15 53q-17 26 -47 26zM488 326q-25 5 -70 5q-28 -3 -55 -6q-44 -5 -61 -15q54 -35 54 -94q0 -41 -26 -75q-29 -36 -69 -36q-37 0 -61 32q-22 29 -22 67q0 27 15 55.5
t39 40.5l-31 3q-68 0 -121 -47q-56 -48 -56 -115q0 -63 60 -102q52 -34 118 -34q140 0 209 96q49 69 77 225zM1032 129q-57 -28 -116 -28q-124 0 -118 116q4 43 43 68q35 23 76 23q57 0 99 -29q51 -35 59 -100q20 11 36 52q15 37 15 64q0 50 -14 79l-26 42q26 -2 46 -43
q19 -37 19 -72q0 -45 -17 -85q-20 -48 -57 -60q-12 -81 -70 -128.5t-145 -48.5q-108 -1 -195 54q-100 63 -97 167q1 37 3 48q2 24 12 40q-31 22 -74 29l-7 -31q-10 -42 -37 -126q-70 -169 -234 -175q-233 -9 -233 163q0 84 78 136q66 44 145 44q24 0 42 -5q-3 1 42 13
q54 15 131 15q26 0 54 -1q26 82 59 134q30 49 92 110q-62 -21 -123 -21q-46 0 -127.5 29t-124.5 29q-49 0 -79 -27.5t-30 -76.5q0 -45 34 -81.5t79 -36.5q35 0 56 32q19 29 19 66q0 31 -42 63q6 2 18 2q29 0 55 -27.5t26 -55.5q0 -47 -41 -76q-37 -25 -86 -25
q-59 0 -98.5 41t-39.5 100q0 69 59 115q55 42 127 42q61 0 138.5 -39.5t108.5 -39.5q45 0 144 36q54 36 121 39q69 3 102 -21q13 2 33 2q45 0 98 -21q65 -26 65 -63q0 -14 -3 -14q-2 0 -22 21q-24 24 -49 37q-37 21 -82 21l-21 -3q31 -34 31 -76q0 -43 -24 -75t-66 -32
q-30 0 -50 24.5t-20 55.5q0 34 20 65.5t50 45.5q-11 10 -62 10q-8 0 -15 -1q-46 -25 -65 -50.5t-30 -76.5q-1 -9 -1 -17q0 -50 30 -92q32 16 63 17q78 3 78 -53q0 -26 -30 -41q-26 -11 -54 -9q-55 4 -90 38l-30 -38q-17 -23 -23 -40q-12 -49 -10 -86q3 -72 43 -121.5
t105 -68.5q34 -8 65 -8q68 0 112 39q37 33 47 78zM607 317q35 43 44 50q18 16 57 30q-65 41 -65 116q0 39 19 73q-50 -36 -91 -113q-34 -64 -51 -128q31 -8 87 -28zM967 565q0 16 -11 42q-12 31 -25 31q-32 0 -54 -36q-19 -32 -19 -67q0 -16 13.5 -35.5t28.5 -19.5
q33 0 51 27q16 23 16 58zM819 420q-12 0 -50 -13q18 -18 26 -24q15 -11 31 -15q9 -5 17 -5q12 0 20.5 8.5t8.5 19.5q0 29 -53 29zM821 212q0 28 34 52q30 20 56 20q49 0 88 -31q43 -34 40 -82q-1 -15 -26 -27t-51 -15q-18 -1 -32 -1q-109 0 -109 84z" />
    <glyph glyph-name="Oslash" unicode="&#xd8;" horiz-adv-x="654" 
d="M368 400l96 108q-12 3 -26 3q-68 0 -81 -58q-4 -21 -4 -15q0 -20 15 -38zM263 283l83 93q-26 23 -26 56q0 45 38 76q35 29 81 28q-6 13 -39.5 23.5t-51.5 10.5q-62 0 -103 -44t-41 -106q0 -33 16 -71q17 -41 43 -66zM146 151l67 75q-69 51 -69 156q0 80 59 145
q62 69 146 68q86 -2 146 -51l43 47q-34 34 -87 54q-48 19 -89 19q-99 0 -171 -61q-76 -64 -82 -164q-6 -5 -6 -87q0 -106 43 -201zM374 359l-84 -95q18 -8 36 -8q27 0 53 20t28 21l6 -5q-16 -39 -44 -64q-33 -29 -72 -29q-30 0 -56 11l-80 -90q64 -111 168 -111
q101 0 170 97q63 88 63 195q0 36 -9 82q-64 -38 -115 -38q-34 0 -64 14zM496 495l-103 -115q23 -13 47 -13q23 0 62 17q43 19 43 36q0 -3 -15 33q-12 28 -34 42zM559 566l-40 -45q24 -26 49 -67q13 29 11 57q-3 29 -20 55zM619 683l24 -24l-62 -69q27 -38 29 -88
q2 -32 -12.5 -62.5t-14.5 -31.5q0 -16 5.5 -48t5.5 -49q0 -134 -74 -229q-81 -103 -210 -103q-108 0 -194 90l-68 -75l-26 17l72 82q-88 111 -86 248q2 156 100 254t242 98q134 0 210 -77z" />
    <glyph glyph-name="plusminus" unicode="&#xb1;" 
 />
    <glyph glyph-name="yen" unicode="&#xa5;" horiz-adv-x="603" 
d="M85 252h138v3q-19 126 -57 193q-55 98 -161 98q-10 9 -10 14q0 7 12 11q123 0 193 -63q63 -58 95 -182q24 112 86 176q69 72 175 75q11 0 11 -12q0 -16 -8 -16q-138 0 -212 -149q-39 -79 -39 -132v-16h137v-32h-137v-68h137v-32h-137l1 -118l-86 -1v119h-138v32h138v68
h-138v32z" />
    <glyph glyph-name="mu" unicode="&#xb5;" horiz-adv-x="839" 
d="M263 35q-89 53 -173 53q-24 0 -43 -10q-23 -12 -23 -34q0 -55 80 -55q112 0 159 46zM401 376l90 57q-12 23 -12 70q0 28 18 51.5t46 23.5q37 0 59 -22q19 -20 19 -45q0 -10 -3 -18q-23 44 -29 50q-14 17 -44 17q-20 0 -32 -18t-12 -39q0 -24 14 -54l58 37v-50l-34 -22
q24 -25 52 -25q6 0 12 2q44 3 66 46q18 35 18 81q0 62 -44.5 101.5t-107.5 39.5q-73 0 -114 -50t-41 -125q0 -37 21 -108zM162 223l164 105q-28 85 -28 137q0 72 69 140q66 66 140 76q24 3 33 3q87 0 144 -43q65 -48 65 -133q0 -64 -40.5 -102t-105.5 -41q0 -3 -28 1
q-33 5 -56 31l-3 3l-103 -65q15 -49 18 -77q-1 -50 -17 -96q-21 -57 -56 -75q95 -40 115 -47q63 -20 123 -20q73 0 121 31q56 37 56 107q0 39 -38.5 71t-78.5 32q-30 0 -53.5 -20.5t-23.5 -49.5q0 -28 21 -49t48 -21q9 0 36 4q-41 -46 -70 -46q-34 0 -57 28t-23 62
q0 43 39 76.5t83 33.5q55 0 98 -36.5t43 -91.5q0 -90 -86 -143q-74 -46 -170 -46q-105 0 -254 63q-53 -32 -85 -43q-43 -15 -97 -15q-105 0 -105 71q0 50 65 77q50 22 108 22q32 0 80 -12q52 -11 76 -26q30 47 30 93q0 30 -10 72l-9 25l-178 -113v47z" />
    <glyph glyph-name="mu" unicode="&#x3bc;" horiz-adv-x="839" 
d="M263 35q-89 53 -173 53q-24 0 -43 -10q-23 -12 -23 -34q0 -55 80 -55q112 0 159 46zM401 376l90 57q-12 23 -12 70q0 28 18 51.5t46 23.5q37 0 59 -22q19 -20 19 -45q0 -10 -3 -18q-23 44 -29 50q-14 17 -44 17q-20 0 -32 -18t-12 -39q0 -24 14 -54l58 37v-50l-34 -22
q24 -25 52 -25q6 0 12 2q44 3 66 46q18 35 18 81q0 62 -44.5 101.5t-107.5 39.5q-73 0 -114 -50t-41 -125q0 -37 21 -108zM162 223l164 105q-28 85 -28 137q0 72 69 140q66 66 140 76q24 3 33 3q87 0 144 -43q65 -48 65 -133q0 -64 -40.5 -102t-105.5 -41q0 -3 -28 1
q-33 5 -56 31l-3 3l-103 -65q15 -49 18 -77q-1 -50 -17 -96q-21 -57 -56 -75q95 -40 115 -47q63 -20 123 -20q73 0 121 31q56 37 56 107q0 39 -38.5 71t-78.5 32q-30 0 -53.5 -20.5t-23.5 -49.5q0 -28 21 -49t48 -21q9 0 36 4q-41 -46 -70 -46q-34 0 -57 28t-23 62
q0 43 39 76.5t83 33.5q55 0 98 -36.5t43 -91.5q0 -90 -86 -143q-74 -46 -170 -46q-105 0 -254 63q-53 -32 -85 -43q-43 -15 -97 -15q-105 0 -105 71q0 50 65 77q50 22 108 22q32 0 80 -12q52 -11 76 -26q30 47 30 93q0 30 -10 72l-9 25l-178 -113v47z" />
    <glyph glyph-name="ordfeminine" unicode="&#xaa;" horiz-adv-x="903" 
d="M870 201q-1 -107 -124 -167q-96 -47 -206 -47q-132 0 -259 40q-66 -32 -133 -32q-39 0 -77 14q-50 18 -50 50q0 31 52 50q45 16 86 14q33 -3 81 -12q41 -8 81 -16q51 45 85 186q-70 -35 -145 -33q-63 1 -115 37q-55 38 -70 96q-77 47 -77 136q0 86 84 132q67 38 160 38
q74 0 164 -29q50 -16 156 -61q98 77 193 77q49 0 70 -44q-16 -110 -247 -110q-11 0 -16 -3q-24 -33 -42 -78q-14 -40 -29 -80q76 47 174 47q27 0 54 -12q34 -14 40 -38q-63 29 -97 29q-77 0 -122 -25q-18 -11 -69 -58q-35 -150 -116 -214l20 -6q69 -23 104 -31
q57 -14 107 -16q101 -4 173 35q84 46 84 132q0 52 -44 84q-41 29 -99 28q-32 -1 -59 -28t-27 -57q0 -33 20 -55t48 -21q36 1 61 19q1 1 39 37l-1 -11q-30 -84 -118 -84q-50 0 -79.5 31.5t-29.5 80.5q0 54 53 89q46 30 98 30q63 0 113 -41q51 -44 51 -103zM802 617
q0 17 -24 26q-18 7 -38 7q-26 0 -71 -20q-48 -21 -57 -43q54 -11 69 -11q121 0 121 41zM516 532l-44 16q-4 2 -136 60q-87 39 -130 39q-70 0 -121 -29q-63 -35 -63 -101q0 -71 51 -105q2 69 56 116q52 44 121 43q101 -2 100 -78q-1 -62 -58 -97q-50 -31 -124 -31
q-34 0 -65 8q53 -100 157 -100q65 0 153 42q12 26 25.5 73t25.5 71q18 39 52 73zM295 489q0 25 -20 41t-45 16q-53 0 -95.5 -46t-38.5 -97q22 -12 85 -12q39 0 76.5 29.5t37.5 68.5zM240 37q-6 10 -56 23q-46 12 -64 12q-67 0 -67 -23q0 -14 35 -24q27 -8 43 -8q36 0 109 20
zM591 810l-4 11l-121 -54l-122 54l-2 -11l121 -100l2 1l3 -1l1 2z" />
    <glyph glyph-name="ordmasculine" unicode="&#xba;" horiz-adv-x="343" 
d="M292 115q11 -17 22 -54q11 -40 11 -63q0 -71 -42 -140q-52 -83 -132 -83q-56 0 -88 44q-29 38 -29 92q0 60 51.5 126.5t115.5 82.5q-9 25 -50 26q-24 0 -42 -13q-30 -23 -32 -24q-1 1 -7 0q-3 1 -5 2q8 48 45 96q23 29 66 65q34 29 34 35q-19 -1 -56 5q-12 3 -42 16
q-25 10 -28 10q-27 0 -53.5 -23.5t-25.5 -25.5q-4 14 3 22q5 40 61 69q21 11 42 11q18 0 52 -12t55 -12q15 0 62 23h8q3 0 3 -6t-13 -32t-15 -28q-39 -38 -129 -128q-12 -19 -19 -36q27 19 59 18q42 -1 66 -17q18 -14 37 -27l59 14q2 -10 -20 -21zM230 26q-1 9 -8.5 37
t-12.5 34q-35 -12 -50 -24q-94 -77 -94 -161q0 -33 13 -64q19 -43 56 -43q97 0 97 183q0 19 -1 38zM281 530l-4 11l-121 -54l-122 54l-2 -11l121 -100l2 1l3 -1l1 2z" />
    <glyph glyph-name="ae" unicode="&#xe6;" horiz-adv-x="529" 
d="M194 113l1 174q-4 6 -56 38q-81 -69 -78 -146q1 -35 25 -72q30 -44 71 -48q14 -1 25.5 19t11.5 35zM271 156q44 38 130 116h-9q-38 0 -71 50q-37 -20 -50 -60v-83q-1 -10 0 -23zM498 356q-1 -1 6 -8q-81 -77 -230 -222q-2 -64 62 -64q15 0 44.5 4t41.5 4t34 19l24 24
l7 -10q-8 -14 -55 -56q-15 -13 -45 -36q-7 -6 -54 -54q-4 -5 -12 8q0 -1 23 30q-28 0 -56 1.5t-46 15.5q-37 28 -48 51q-75 -69 -95 -69q-3 0 -5 1q-86 40 -91 148q-4 91 99 184q54 48 92 66l98 -62l15 8q16 8 51 38q28 25 30 23q7 -17 13 -34q17 -30 46 -30q14 3 51 20z
" />
    <glyph glyph-name="oslash" unicode="&#xf8;" horiz-adv-x="316" 
d="M314 355l-62 -73q24 -26 31.5 -45.5t6.5 -51.5q-1 -31 -9 -49q-17 -42 -55 -81q-70 -72 -84 -72q-5 0 -34 15.5t-42 26.5q-9 7 -17 17l-32 -38l-21 21l35 40q-31 45 -31 86q0 46 21 92q23 52 64 78q9 6 30 29q8 37 17.5 52t40.5 39q-4 -31 -2 -42q6 -17 11 -34
q7 -21 52 -65l62 72zM181 239q-14 15 -38 44q-6 6 -11 13q-10 13 -11 27q-1 9 -32 -33q-25 -32 -25 -74q0 -34 25 -84zM232 145q0 13 -6 30t-27 43l-96 -112q34 -54 70 -54q7 0 26 13q33 23 33 80z" />
    <glyph glyph-name="questiondown" unicode="&#xbf;" horiz-adv-x="419" 
d="M106 97q-5 -20 -5 -100q0 -42 29.5 -75t70.5 -33q13 0 26 6q-2 7 -8 20q0 7 -3.5 31t-3.5 27q0 44 19 82q25 49 70 49q68 0 68 -91q0 -36 -25.5 -73t-64.5 -57q16 -22 53 -42q-3 -3 -15 -6q-30 -1 -67 37q-59 -11 -66 -11q-81 0 -131 42q-55 44 -55 122q0 115 125 170
q10 13 35 35q6 3 17 24q14 26 12 48q-1 9 1 18t2 17l34 3q2 6 2 -44q0 -76 -54 -109t-66 -90zM238 -35q-3 -61 18 -61q14 0 29 17q28 33 33 47q2 5 2 32q0 66 -32 66q-26 0 -40 -39q-10 -29 -10 -62zM250 426q0 -21 -14.5 -36.5t-34.5 -15.5t-34.5 15.5t-14.5 36.5
q0 22 14.5 37t34.5 15t34.5 -15t14.5 -37z" />
    <glyph glyph-name="exclamdown" unicode="&#xa1;" horiz-adv-x="262" 
d="M158 434q0 -22 -14 -37t-35 -15q-20 0 -34.5 15t-14.5 37q0 21 14.5 36.5t34.5 15.5q21 0 35 -15.5t14 -36.5zM97 348l28 -3l24 -426q0 -19 23 -32q21 -9 41 -18q-16 -12 -47 -32q0 -1 -32 -32q-11 17 -41 35q-35 23 -60 20q12 22 35 61z" />
    <glyph glyph-name="logicalnot" unicode="&#xac;" 
 />
    <glyph glyph-name="florin" unicode="&#x192;" horiz-adv-x="654" 
d="M329 278h-150q26 -250 204 -262q69 -5 123.5 36.5t59.5 110.5q5 77 -106 119q13 4 27 4q44 0 79.5 -36.5t31.5 -83.5q-13 -194 -257 -184q-114 5 -187 94q-67 83 -69 202h-81v37h80q0 33 5 63h-85v37h92q29 125 119 197t212 63q64 -4 109 -41q51 -42 50 -109
q0 -37 -29 -63q-26 -22 -62 -27q27 45 31 95q3 43 -31 79.5t-78 39.5q-97 7 -160 -59q-59 -63 -76 -175h148v-37h-151q-3 -30 -1 -63h152v-37z" />
    <glyph glyph-name="guillemotleft" unicode="&#xab;" horiz-adv-x="397" 
d="M305 523l24 -12l-64 -189l70 -195l-24 -9l-148 201l1 3l-1 4l3 1zM140 523l24 -12l-64 -189l70 -195l-24 -9l-148 201l1 3l-1 4l3 1z" />
    <glyph glyph-name="guillemotright" unicode="&#xbb;" horiz-adv-x="397" 
d="M27 523l-23 -12l63 -189l-69 -195l23 -9l149 201l-2 3l2 4l-4 1zM192 523l-23 -12l63 -189l-69 -195l23 -9l149 201l-2 3l2 4l-4 1z" />
    <glyph glyph-name="ellipsis" unicode="&#x2026;" horiz-adv-x="721" 
d="M437 53q-31 -30 -61 -47h-20q-9 0 -29 28t-20 33q0 7 36 32.5t42 25.5q7 0 16 -10q25 -29 36 -47q1 -2 -0.5 -8t0.5 -7zM667 53q-31 -30 -61 -47h-20q-9 0 -29 28t-20 33q0 7 36 32.5t42 25.5q7 0 16 -10q25 -29 36 -47q1 -2 -0.5 -8t0.5 -7zM207 53q-31 -30 -61 -47h-20
q-9 0 -29 28t-20 33q0 7 36 32.5t42 25.5q7 0 16 -10q25 -29 36 -47q1 -2 -0.5 -8t0.5 -7z" />
    <glyph glyph-name="nonbreakingspace" unicode="&#xa0;" horiz-adv-x="192" 
 />
    <glyph glyph-name="Agrave" unicode="&#xc0;" horiz-adv-x="1000" 
d="M972 144q0 -71 -43.5 -114.5t-114.5 -43.5q-110 0 -171 99q-52 83 -52 200q-34 25 -78 32l-7 -31q-10 -42 -37 -126q-70 -169 -234 -175q-234 -9 -234 168q0 83 77 133q65 43 144 43q26 0 45 -6q-3 1 42 13q54 15 131 15q26 0 54 -1q26 82 59 134q30 49 92 110
q-62 -21 -123 -21q-46 0 -127.5 29t-124.5 29q-49 0 -79 -27.5t-30 -76.5q0 -45 34 -81.5t79 -36.5q35 0 56 32q19 29 19 66q0 31 -42 63q6 2 18 2q29 0 55 -27.5t26 -55.5q0 -47 -41 -76q-37 -25 -86 -25q-59 0 -99 41t-40 100q0 69 60 115q55 42 127 42q61 0 138.5 -39.5
t108.5 -39.5q46 0 132 32q83 31 127 29h6q-149 -94 -156 -370l27 -1q48 0 87 28q43 32 43 79q0 48 -82 86l24 3q42 0 75 -27t33 -68q0 -62 -75 -101q-66 -34 -132 -29v-22q0 -82 35 -148q43 -80 117 -80q55 0 85 38q28 35 28 92q0 40 -25 65t-65 25q-34 0 -58 -23.5
t-24 -56.5q0 -34 27 -46q6 -3 55 -13q-7 -6 -13.5 -10.5t-20.5 -4.5q-26 0 -49 23.5t-23 48.5q0 48 30.5 75.5t78.5 27.5q49 0 80 -32t31 -83zM726 612q-72 -9 -134 -104q-50 -75 -72 -163q26 -5 72 -25q18 161 134 292zM268 297q-29 0 -49 -34q-17 -30 -17 -60
q0 -28 16 -51q19 -26 47 -26q31 0 49 32q16 27 16 60q0 31 -15 53q-17 26 -47 26zM488 326q-25 5 -70 5q-28 -3 -55 -6q-44 -5 -61 -15q54 -35 54 -94q0 -41 -26 -75q-29 -36 -69 -36q-37 0 -61 32q-22 29 -22 67q0 27 15 55.5t39 40.5l-31 3q-68 0 -121 -47
q-56 -48 -56 -115q0 -63 60 -102q52 -34 118 -34q140 0 209 96q49 69 77 225zM471 818q174 -90 173 -93q-3 -21 -5 -18q-97 29 -200 59q-15 5 -15 21q0 13 9.5 24.5t22.5 11.5q8 0 15 -5z" />
    <glyph glyph-name="Atilde" unicode="&#xc3;" horiz-adv-x="1000" 
d="M972 144q0 -71 -43.5 -114.5t-114.5 -43.5q-110 0 -171 99q-52 83 -52 200q-34 25 -78 32l-7 -31q-10 -42 -37 -126q-70 -169 -234 -175q-234 -9 -234 168q0 83 77 133q65 43 144 43q26 0 45 -6q-3 1 42 13q54 15 131 15q26 0 54 -1q26 82 59 134q30 49 92 110
q-62 -21 -123 -21q-46 0 -127.5 29t-124.5 29q-49 0 -79 -27.5t-30 -76.5q0 -45 34 -81.5t79 -36.5q35 0 56 32q19 29 19 66q0 31 -42 63q6 2 18 2q29 0 55 -27.5t26 -55.5q0 -47 -41 -76q-37 -25 -86 -25q-59 0 -99 41t-40 100q0 69 60 115q55 42 127 42q61 0 138.5 -39.5
t108.5 -39.5q46 0 132 32q83 31 127 29h6q-149 -94 -156 -370l27 -1q48 0 87 28q43 32 43 79q0 48 -82 86l24 3q42 0 75 -27t33 -68q0 -62 -75 -101q-66 -34 -132 -29v-22q0 -82 35 -148q43 -80 117 -80q55 0 85 38q28 35 28 92q0 40 -25 65t-65 25q-34 0 -58 -23.5
t-24 -56.5q0 -34 27 -46q6 -3 55 -13q-7 -6 -13.5 -10.5t-20.5 -4.5q-26 0 -49 23.5t-23 48.5q0 48 30.5 75.5t78.5 27.5q49 0 80 -32t31 -83zM726 612q-72 -9 -134 -104q-50 -75 -72 -163q26 -5 72 -25q18 161 134 292zM268 297q-29 0 -49 -34q-17 -30 -17 -60
q0 -28 16 -51q19 -26 47 -26q31 0 49 32q16 27 16 60q0 31 -15 53q-17 26 -47 26zM488 326q-25 5 -70 5q-28 -3 -55 -6q-44 -5 -61 -15q54 -35 54 -94q0 -41 -26 -75q-29 -36 -69 -36q-37 0 -61 32q-22 29 -22 67q0 27 15 55.5t39 40.5l-31 3q-68 0 -121 -47
q-56 -48 -56 -115q0 -63 60 -102q52 -34 118 -34q140 0 209 96q49 69 77 225zM458 755q-60 0 -60 -21l-23 -1q0 28 33 53q31 22 60 22q25 0 54.5 -18t62.5 -18q30 0 55 28h24q0 -28 -35.5 -53t-65.5 -25q-23 0 -50.5 16.5t-54.5 16.5z" />
    <glyph glyph-name="Otilde" unicode="&#xd5;" horiz-adv-x="654" 
d="M610 502q2 -32 -12.5 -62.5t-14.5 -31.5q0 -16 5.5 -48t5.5 -49q0 -134 -74 -229q-81 -103 -210 -103q-124 0 -215 114q-89 111 -87 248q2 156 100 254t242 98q98 0 170 -46q86 -52 90 -145zM545 420q0 -3 -15 33q-25 58 -92 58q-68 0 -81 -58q-4 -21 -4 -15
q0 -30 28 -50.5t59 -20.5q23 0 62 17q43 19 43 36zM579 511q-6 67 -85 113q-67 40 -132 40q-99 0 -172 -61q-75 -64 -81 -164q-6 -5 -6 -87q0 -120 52 -220q64 -123 174 -123q101 0 170 97q63 88 63 195q0 36 -9 82q-64 -38 -115 -38q-44 0 -77 21q-41 24 -41 66q0 45 38 76
q35 29 81 28q-6 13 -39.5 23.5t-51.5 10.5q-62 0 -103 -44t-41 -106q0 -53 34 -106q38 -58 88 -58q27 0 53 20t28 21l6 -5q-16 -39 -44 -64q-33 -29 -72 -29q-72 0 -115 58q-38 52 -38 125q0 80 59 145q62 69 146 68q81 -1 139 -46q42 -31 80 -95q13 29 11 57zM258 755
q-60 0 -60 -21l-23 -1q0 28 33 53q31 22 60 22q25 0 54.5 -18t62.5 -18q30 0 55 28h24q0 -28 -35.5 -53t-65.5 -25q-23 0 -50.5 16.5t-54.5 16.5z" />
    <glyph glyph-name="OE" unicode="&#x152;" horiz-adv-x="1123" 
d="M545 420q0 -3 -15 33q-25 58 -92 58q-68 0 -81 -58q-4 -21 -4 -15q0 -30 28 -50.5t59 -20.5q23 0 62 17q43 19 43 36zM587 373q17 13 42 28q-19 12 -33 35q-13 -25 -13 -28q0 -14 4 -35zM512 126q-20 39 -19 84q2 81 65 140q-2 16 -5 33q-64 -38 -115 -38q-44 0 -77 21
q-41 24 -41 66q0 45 38 76q35 29 81 28q-6 13 -39.5 23.5t-51.5 10.5q-62 0 -103 -44t-41 -106q0 -53 34 -106q38 -58 88 -58q27 0 53 20t28 21l6 -5q-16 -39 -44 -64q-33 -29 -72 -29q-72 0 -115 58q-38 52 -38 125q0 80 59 145q62 69 146 68q81 -1 139 -46q42 -31 80 -95
q7 15 10 28q-5 21 -5 41v14q-19 56 -91 94q-62 33 -120 33q-99 0 -171 -61q-76 -64 -82 -164q-6 -5 -6 -87q0 -120 52 -220q64 -123 174 -123q113 0 183 117zM1083 311q0 -45 -17 -85q-20 -48 -57 -60q-12 -81 -70 -128.5t-145 -48.5q-72 -1 -143 26q-78 30 -120 82
q-81 -118 -221 -118q-124 0 -215 114q-89 111 -87 248q2 156 100 254t242 98q72 0 134 -27q69 -29 102 -83q22 48 75 78q50 28 108 31q69 3 102 -21q13 2 33 2q44 0 98 -21q65 -26 65 -63q0 -14 -3 -14t-22 21q-24 24 -49 37q-37 21 -82 21l-21 -3q31 -34 31 -76
q0 -43 -24 -75t-66 -32q-30 0 -50 24.5t-20 55.5q0 34 20 65.5t50 45.5q-11 10 -62 10q-55 0 -85 -47q-26 -40 -26 -98q0 -50 30 -92q33 17 63 17q76 0 76 -49q0 -47 -67 -47q-73 0 -105 31q-56 -74 -56 -160q0 -91 59 -147t150 -56q54 0 99 33t57 85q-40 -20 -91 -23
q-57 -4 -100 25q-48 32 -48 88q0 45 41 69q34 20 82 20q53 0 102 -35q52 -38 56 -89q21 11 37 50q14 35 14 61q0 47 -12 69q-25 46 -27 52q26 -2 46 -43q19 -37 19 -72zM897 575q0 16 -11 42q-12 31 -25 31q-32 0 -54 -36q-19 -32 -19 -67q0 -16 13.5 -35.5t28.5 -19.5
q33 0 51 27q16 23 16 58zM749 430q-12 0 -50 -13q39 -39 81 -39q25 0 25 22q0 30 -56 30zM966 186q0 47 -40 78t-89 31q-35 0 -58 -15q-26 -18 -26 -50q0 -39 32 -64t72 -25q109 0 109 45z" />
    <glyph glyph-name="oe" unicode="&#x153;" horiz-adv-x="556" 
d="M304 167q42 38 127 115h-9q-38 0 -71 50q-59 -32 -57 -116q1 -27 10 -49zM189 230q-23 27 -46 53q-6 6 -11 13q-10 13 -11 27q-1 9 -32 -33q-25 -32 -25 -74t33 -100q36 -64 76 -64q7 0 26 13q34 24 34 70q0 20 -7 40t-37 55zM528 366q-1 -1 6 -8q-77 -70 -222 -207
q21 -33 61 -53q37 -18 79 -18q12 0 34 19l24 24l7 -10q-8 -14 -55 -56q-15 -13 -45 -36q-7 -6 -54 -54q-4 -5 -12 8q0 -2 17 21q-22 6 -59 31t-54 49q-2 3 -5 7q-11 -15 -24 -28q-70 -72 -84 -72q-5 0 -34 15.5t-42 26.5q-28 23 -47 58.5t-19 67.5q0 46 21 92q23 52 64 78
q9 6 30 29q8 39 13 47q8 14 39 37q-2 -13 -2 -23q0 -16 6.5 -27.5t13.5 -23.5q8 -17 33 -43q38 -40 43 -45q17 23 76 77q22 16 44 33q27 21 36 40q-1 -3 13 -36q18 -40 47 -40q14 3 51 20z" />
    <glyph glyph-name="endash" unicode="&#x2013;" horiz-adv-x="455" 
d="M-1 221l29 66h389l-27 -66h-391z" />
    <glyph glyph-name="emdash" unicode="&#x2014;" horiz-adv-x="829" 
d="M-1 221l29 66h769l-27 -66h-771z" />
    <glyph glyph-name="quotedblleft" unicode="&#x201c;" horiz-adv-x="333" 
d="M4 590q0 -16 4 -29q9 -27 45 -62q33 -33 63 -49q4 1 4 8q0 2 -15 32.5t-15 60.5q0 34 24 82q0 4 -25.5 21.5t-40.5 23.5q-3 1 -8.5 -1t-7.5 -2q-17 -17 -24 -48q-4 -19 -4 -37zM164 590q0 -16 4 -29q9 -27 45 -62q33 -33 63 -49q4 1 4 8q0 2 -15 32.5t-15 60.5
q0 34 24 82q0 4 -25.5 21.5t-40.5 23.5q-3 1 -8.5 -1t-7.5 -2q-17 -17 -24 -48q-4 -19 -4 -37z" />
    <glyph glyph-name="quotedblright" unicode="&#x201d;" horiz-adv-x="333" 
d="M280 590q0 -16 -5 -29q-8 -27 -42.5 -61t-64.5 -50q-4 1 -4 8q0 2 15 32.5t15 60.5q0 34 -24 82q0 4 25.5 21.5t39.5 23.5q3 1 9 -1t8 -2q17 -17 23 -48q5 -19 5 -37zM120 590q0 -16 -5 -29q-8 -27 -42.5 -61t-64.5 -50q-4 1 -4 8q0 2 15 32.5t15 60.5q0 34 -24 82
q0 4 25.5 21.5t39.5 23.5q3 1 9 -1t8 -2q17 -17 23 -48q5 -19 5 -37z" />
    <glyph glyph-name="quoteleft" unicode="&#x2018;" horiz-adv-x="185" 
d="M12 600q0 -16 4 -29q9 -27 45 -62q33 -33 63 -49q4 1 4 8q0 2 -15 32.5t-15 60.5q0 34 24 82q0 4 -25.5 21.5t-40.5 23.5q-2 1 -8 -1t-8 -2q-17 -17 -24 -48q-4 -19 -4 -37z" />
    <glyph glyph-name="quoteright" unicode="&#x2019;" horiz-adv-x="185" 
d="M120 600q0 -16 -5 -29q-8 -27 -42.5 -61t-64.5 -50q-4 1 -4 8q0 2 15 32.5t15 60.5q0 34 -24 82q0 4 25.5 21.5t39.5 23.5q3 1 9 -1t8 -2q17 -17 23 -48q5 -19 5 -37z" />
    <glyph glyph-name="divide" unicode="&#xf7;" 
 />
    <glyph glyph-name="ydieresis" unicode="&#xff;" horiz-adv-x="662" 
d="M621 395q-26 -37 -26 -93q0 -41 1 -146v-135q0 -32 -6 -55q-39 -157 -214 -157q-19 0 -64 15q-40 14 -62 25q-39 21 -90 21q-23 0 -61 -23q-14 -15 -39 -36q-3 0 -3 6q0 13 26 47q55 73 128 73q12 0 24 -2q30 -5 81 -42t62 -40q35 -9 44 -8q57 6 76 45q13 29 16 108
q3 58 0 96q-23 0 -71 -52.5t-49 -52.5q-12 0 -92 63q5 4 12 28q1 13 0 153q0 64 -52 96q57 58 72 57q14 -1 33 -29q16 -23 21 -38q7 -20 7 -214q2 -8 19 -18.5t20 -8.5q19 18 82 50v174q0 32 34 60q30 24 71 33zM480 492q0 22 16 38t39 16t39 -16t16 -38q0 -23 -16 -39
t-39 -16t-39 16t-16 39zM310 492q0 22 16 38t39 16t39 -16t16 -38q0 -23 -16 -39t-39 -16t-39 16t-16 39z" />
    <glyph glyph-name="Ydieresis" unicode="&#x178;" horiz-adv-x="816" 
d="M881 610q0 -58 -36 -116q-26 -42 -69 -84l-46 -40q-2 -53 -12 -149q-25 -141 -111 -197q-79 -51 -230 -45q-66 3 -113 29q-66 36 -65 107q1 46 29.5 79.5t77.5 33.5q41 0 72.5 -22.5t31.5 -60.5q0 -30 -21.5 -49t-50.5 -19q23 24 23 61q0 66 -61 66q-33 0 -57 -30
q-20 -26 -20 -51q0 -63 59 -96q49 -28 126 -28q82 0 135 29q60 33 81 115q10 35 18 142q-45 -42 -110 -116q-11 -18 -25 -34q-10 26 -20 52.5t-39 47.5q-25 18 -72 29q108 63 108 136q0 103 -94 168q-79 55 -168 55q-67 0 -122 -29q-72 -38 -77 -111q-4 -77 53 -100
q-3 14 -3 27q0 65 54 110q47 41 101 41q44 0 66 -26.5t18 -65.5q-5 -67 -68 -100q-46 -24 -105 -24q-23 0 -31 3q30 -63 113 -61q50 1 87 25q17 0 16 2q-23 -40 -106 -47q-53 -4 -93 25q-36 25 -43 63q-11 3 -36 18q-46 40 -47 110q-1 93 99 148q85 47 184 43q98 -4 169 -58
q78 -59 78 -152q0 -92 -73 -169q75 -6 103 -64l83 81q-2 155 -1 180q4 90 49 138t118 48q32 0 52.5 -18.5t20.5 -49.5zM858 609q0 19 -14.5 34.5t-35.5 15.5q-38 0 -61 -49q-18 -39 -19 -84q-3 -129 2 -129q55 43 91.5 102.5t36.5 109.5zM284 474q0 64 -57 61
q-51 -2 -90.5 -39.5t-39.5 -85.5q0 -31 5 -36q20 -7 39 -7q47 0 90 25q53 31 53 82zM514 775q0 22 16.5 38t38.5 16q23 0 39 -16t16 -38q0 -23 -16 -39t-39 -16q-22 0 -38.5 16t-16.5 39zM324 775q0 22 16.5 38t38.5 16q23 0 39 -16t16 -38q0 -23 -16 -39t-39 -16
q-22 0 -38.5 16t-16.5 39z" />
    <glyph glyph-name="currency" unicode="&#xa4;" 
 />
    <glyph glyph-name="guilsinglleft" unicode="&#x2039;" horiz-adv-x="220" 
d="M138 523l23 -12l-63 -189l69 -195l-23 -9l-149 201l2 3l-2 4l4 1z" />
    <glyph glyph-name="guilsinglright" unicode="&#x203a;" horiz-adv-x="220" 
d="M25 523l-24 -12l64 -189l-70 -195l24 -9l148 201l-1 3l1 4l-3 1z" />
    <glyph glyph-name="daggerdbl" unicode="&#x2021;" 
 />
    <glyph glyph-name="periodcentered" unicode="&#xb7;" 
 />
    <glyph glyph-name="periodcentered" unicode="&#x2219;" 
 />
    <glyph glyph-name="quotesinglbase" unicode="&#x201a;" horiz-adv-x="185" 
d="M120 50q0 -16 -5 -29q-8 -27 -42.5 -61t-64.5 -50q-4 1 -4 8q0 2 15 32.5t15 60.5q0 34 -24 82q0 4 25.5 21.5t39.5 23.5q3 1 9 -1t8 -2q17 -17 23 -48q5 -19 5 -37z" />
    <glyph glyph-name="quotedblbase" unicode="&#x201e;" horiz-adv-x="333" 
d="M280 40q0 -16 -5 -29q-8 -27 -42.5 -61t-64.5 -50q-4 1 -4 8q0 2 15 32.5t15 60.5q0 34 -24 82q0 4 25.5 21.5t39.5 23.5q3 1 9 -1t8 -2q17 -17 23 -48q5 -19 5 -37zM120 40q0 -16 -5 -29q-8 -27 -42.5 -61t-64.5 -50q-4 1 -4 8q0 2 15 32.5t15 60.5q0 34 -24 82
q0 4 25.5 21.5t39.5 23.5q3 1 9 -1t8 -2q17 -17 23 -48q5 -19 5 -37z" />
    <glyph glyph-name="perthousand" unicode="&#x2030;" 
 />
    <glyph glyph-name="Acircumflex" unicode="&#xc2;" horiz-adv-x="1000" 
d="M972 144q0 -71 -43.5 -114.5t-114.5 -43.5q-110 0 -171 99q-52 83 -52 200q-34 25 -78 32l-7 -31q-10 -42 -37 -126q-70 -169 -234 -175q-234 -9 -234 168q0 83 77 133q65 43 144 43q26 0 45 -6q-3 1 42 13q54 15 131 15q26 0 54 -1q26 82 59 134q30 49 92 110
q-62 -21 -123 -21q-46 0 -127.5 29t-124.5 29q-49 0 -79 -27.5t-30 -76.5q0 -45 34 -81.5t79 -36.5q35 0 56 32q19 29 19 66q0 31 -42 63q6 2 18 2q29 0 55 -27.5t26 -55.5q0 -47 -41 -76q-37 -25 -86 -25q-59 0 -99 41t-40 100q0 69 60 115q55 42 127 42q61 0 138.5 -39.5
t108.5 -39.5q46 0 132 32q83 31 127 29h6q-149 -94 -156 -370l27 -1q48 0 87 28q43 32 43 79q0 48 -82 86l24 3q42 0 75 -27t33 -68q0 -62 -75 -101q-66 -34 -132 -29v-22q0 -82 35 -148q43 -80 117 -80q55 0 85 38q28 35 28 92q0 40 -25 65t-65 25q-34 0 -58 -23.5
t-24 -56.5q0 -34 27 -46q6 -3 55 -13q-7 -6 -13.5 -10.5t-20.5 -4.5q-26 0 -49 23.5t-23 48.5q0 48 30.5 75.5t78.5 27.5q49 0 80 -32t31 -83zM726 612q-72 -9 -134 -104q-50 -75 -72 -163q26 -5 72 -25q18 161 134 292zM268 297q-29 0 -49 -34q-17 -30 -17 -60
q0 -28 16 -51q19 -26 47 -26q31 0 49 32q16 27 16 60q0 31 -15 53q-17 26 -47 26zM488 326q-25 5 -70 5q-28 -3 -55 -6q-44 -5 -61 -15q54 -35 54 -94q0 -41 -26 -75q-29 -36 -69 -36q-37 0 -61 32q-22 29 -22 67q0 27 15 55.5t39 40.5l-31 3q-68 0 -121 -47
q-56 -48 -56 -115q0 -63 60 -102q52 -34 118 -34q140 0 209 96q49 69 77 225zM698 725l-7 -19l-132 43l-131 -43l-6 16l135 95l2 -1l3 1l1 -2z" />
    <glyph glyph-name="Ecircumflex" unicode="&#xca;" horiz-adv-x="637" 
d="M593 311q0 -45 -17 -85q-20 -48 -57 -60q-12 -81 -70 -128.5t-145 -48.5q-109 -1 -200 54q-104 64 -101 167q2 66 43 116q30 36 93 75q-27 17 -43 54q-13 33 -13 68q0 72 62 121q57 45 134 48q69 3 102 -21q13 2 33 2q44 0 98 -21q65 -26 65 -63q0 -14 -3 -14t-22 21
q-24 24 -49 37q-37 21 -82 21l-21 -3q31 -34 31 -76q0 -43 -24 -75t-66 -32q-30 0 -50 24.5t-20 55.5q0 34 20 65.5t50 45.5q-11 10 -62 10q-55 0 -85 -47q-26 -40 -26 -98q0 -50 30 -92q33 17 63 17q76 0 76 -49q0 -47 -67 -47q-73 0 -105 31q-56 -74 -56 -160
q0 -91 59 -147t150 -56q54 0 99 33t57 85q-40 -20 -91 -23q-57 -4 -100 25q-48 32 -48 88q0 45 41 69q34 20 82 20q53 0 102 -35q52 -38 56 -89q21 11 37 50q14 35 14 61q0 47 -12 69q-25 46 -27 52q26 -2 46 -43q19 -37 19 -72zM407 575q0 16 -11 42q-12 31 -25 31
q-32 0 -54 -36q-19 -32 -19 -67q0 -16 13.5 -35.5t28.5 -19.5q33 0 51 27q16 23 16 58zM259 430q-12 0 -50 -13q39 -39 81 -39q25 0 25 22q0 30 -56 30zM476 186q0 47 -40 78t-89 31q-35 0 -58 -15q-26 -18 -26 -50q0 -39 32 -64t72 -25q109 0 109 45zM418 725l-7 -19
l-132 43l-131 -43l-6 16l135 95l2 -1l3 1l1 -2z" />
    <glyph glyph-name="Aacute" unicode="&#xc1;" horiz-adv-x="1000" 
d="M972 144q0 -71 -43.5 -114.5t-114.5 -43.5q-110 0 -171 99q-52 83 -52 200q-34 25 -78 32l-7 -31q-10 -42 -37 -126q-70 -169 -234 -175q-234 -9 -234 168q0 83 77 133q65 43 144 43q26 0 45 -6q-3 1 42 13q54 15 131 15q26 0 54 -1q26 82 59 134q30 49 92 110
q-62 -21 -123 -21q-46 0 -127.5 29t-124.5 29q-49 0 -79 -27.5t-30 -76.5q0 -45 34 -81.5t79 -36.5q35 0 56 32q19 29 19 66q0 31 -42 63q6 2 18 2q29 0 55 -27.5t26 -55.5q0 -47 -41 -76q-37 -25 -86 -25q-59 0 -99 41t-40 100q0 69 60 115q55 42 127 42q61 0 138.5 -39.5
t108.5 -39.5q46 0 132 32q83 31 127 29h6q-149 -94 -156 -370l27 -1q48 0 87 28q43 32 43 79q0 48 -82 86l24 3q42 0 75 -27t33 -68q0 -62 -75 -101q-66 -34 -132 -29v-22q0 -82 35 -148q43 -80 117 -80q55 0 85 38q28 35 28 92q0 40 -25 65t-65 25q-34 0 -58 -23.5
t-24 -56.5q0 -34 27 -46q6 -3 55 -13q-7 -6 -13.5 -10.5t-20.5 -4.5q-26 0 -49 23.5t-23 48.5q0 48 30.5 75.5t78.5 27.5q49 0 80 -32t31 -83zM726 612q-72 -9 -134 -104q-50 -75 -72 -163q26 -5 72 -25q18 161 134 292zM268 297q-29 0 -49 -34q-17 -30 -17 -60
q0 -28 16 -51q19 -26 47 -26q31 0 49 32q16 27 16 60q0 31 -15 53q-17 26 -47 26zM488 326q-25 5 -70 5q-28 -3 -55 -6q-44 -5 -61 -15q54 -35 54 -94q0 -41 -26 -75q-29 -36 -69 -36q-37 0 -61 32q-22 29 -22 67q0 27 15 55.5t39 40.5l-31 3q-68 0 -121 -47
q-56 -48 -56 -115q0 -63 60 -102q52 -34 118 -34q140 0 209 96q49 69 77 225zM575 818q-174 -90 -173 -93q3 -21 6 -18q96 29 199 59q15 5 15 21q0 13 -9.5 24.5t-22.5 11.5q-8 0 -15 -5z" />
    <glyph glyph-name="Edieresis" unicode="&#xcb;" horiz-adv-x="637" 
d="M593 311q0 -45 -17 -85q-20 -48 -57 -60q-12 -81 -70 -128.5t-145 -48.5q-109 -1 -200 54q-104 64 -101 167q2 66 43 116q30 36 93 75q-27 17 -43 54q-13 33 -13 68q0 72 62 121q57 45 134 48q69 3 102 -21q13 2 33 2q44 0 98 -21q65 -26 65 -63q0 -14 -3 -14t-22 21
q-24 24 -49 37q-37 21 -82 21l-21 -3q31 -34 31 -76q0 -43 -24 -75t-66 -32q-30 0 -50 24.5t-20 55.5q0 34 20 65.5t50 45.5q-11 10 -62 10q-55 0 -85 -47q-26 -40 -26 -98q0 -50 30 -92q33 17 63 17q76 0 76 -49q0 -47 -67 -47q-73 0 -105 31q-56 -74 -56 -160
q0 -91 59 -147t150 -56q54 0 99 33t57 85q-40 -20 -91 -23q-57 -4 -100 25q-48 32 -48 88q0 45 41 69q34 20 82 20q53 0 102 -35q52 -38 56 -89q21 11 37 50q14 35 14 61q0 47 -12 69q-25 46 -27 52q26 -2 46 -43q19 -37 19 -72zM407 575q0 16 -11 42q-12 31 -25 31
q-32 0 -54 -36q-19 -32 -19 -67q0 -16 13.5 -35.5t28.5 -19.5q33 0 51 27q16 23 16 58zM259 430q-12 0 -50 -13q39 -39 81 -39q25 0 25 22q0 30 -56 30zM476 186q0 47 -40 78t-89 31q-35 0 -58 -15q-26 -18 -26 -50q0 -39 32 -64t72 -25q109 0 109 45zM344 775q0 22 16.5 38
t38.5 16q23 0 39 -16t16 -38q0 -23 -16 -39t-39 -16q-22 0 -38.5 16t-16.5 39zM154 775q0 22 16.5 38t38.5 16q23 0 39 -16t16 -38q0 -23 -16 -39t-39 -16q-22 0 -38.5 16t-16.5 39z" />
    <glyph glyph-name="Egrave" unicode="&#xc8;" horiz-adv-x="637" 
d="M593 311q0 -45 -17 -85q-20 -48 -57 -60q-12 -81 -70 -128.5t-145 -48.5q-109 -1 -200 54q-104 64 -101 167q2 66 43 116q30 36 93 75q-27 17 -43 54q-13 33 -13 68q0 72 62 121q57 45 134 48q69 3 102 -21q13 2 33 2q44 0 98 -21q65 -26 65 -63q0 -14 -3 -14t-22 21
q-24 24 -49 37q-37 21 -82 21l-21 -3q31 -34 31 -76q0 -43 -24 -75t-66 -32q-30 0 -50 24.5t-20 55.5q0 34 20 65.5t50 45.5q-11 10 -62 10q-55 0 -85 -47q-26 -40 -26 -98q0 -50 30 -92q33 17 63 17q76 0 76 -49q0 -47 -67 -47q-73 0 -105 31q-56 -74 -56 -160
q0 -91 59 -147t150 -56q54 0 99 33t57 85q-40 -20 -91 -23q-57 -4 -100 25q-48 32 -48 88q0 45 41 69q34 20 82 20q53 0 102 -35q52 -38 56 -89q21 11 37 50q14 35 14 61q0 47 -12 69q-25 46 -27 52q26 -2 46 -43q19 -37 19 -72zM407 575q0 16 -11 42q-12 31 -25 31
q-32 0 -54 -36q-19 -32 -19 -67q0 -16 13.5 -35.5t28.5 -19.5q33 0 51 27q16 23 16 58zM259 430q-12 0 -50 -13q39 -39 81 -39q25 0 25 22q0 30 -56 30zM476 186q0 47 -40 78t-89 31q-35 0 -58 -15q-26 -18 -26 -50q0 -39 32 -64t72 -25q109 0 109 45zM227 818
q174 -90 173 -93q-3 -21 -6 -18q-97 29 -199 59q-15 5 -15 21q0 13 9.5 24.5t22.5 11.5q8 0 15 -5z" />
    <glyph glyph-name="Iacute" unicode="&#xcd;" horiz-adv-x="506" 
d="M493 626l-6 -15q-25 -39 -50 -79q-27 -44 -24 -91q7 -157 7 -142q0 -104 -68 -208q-75 -116 -175 -116l-17 3l8 12q109 33 141 161q17 64 17 226q0 60 14 95q11 29 41.5 60t63.5 64l-8 4q-51 -19 -125 -19q-67 0 -112 25.5t-81 25.5q-39 0 -66 -30.5t-27 -69.5
q0 -30 22 -53t52 -23q24 0 51 20t27 43q0 2 -16 47l8 4q15 0 33.5 -18.5t18.5 -33.5q0 -44 -31 -75t-75 -31q-39 0 -78 30.5t-39 68.5q0 69 48.5 117t117.5 48q17 0 34 -3q73 -15 147 -31q83 -16 147 -16zM335 818q-174 -90 -173 -93q3 -21 6 -18q96 29 199 59q15 5 15 21
q0 13 -9.5 24.5t-22.5 11.5q-8 0 -15 -5z" />
    <glyph glyph-name="Icircumflex" unicode="&#xce;" horiz-adv-x="506" 
d="M493 626l-6 -15q-25 -39 -50 -79q-27 -44 -24 -91q7 -157 7 -142q0 -104 -68 -208q-75 -116 -175 -116l-17 3l8 12q109 33 141 161q17 64 17 226q0 60 14 95q11 29 41.5 60t63.5 64l-8 4q-51 -19 -125 -19q-67 0 -112 25.5t-81 25.5q-39 0 -66 -30.5t-27 -69.5
q0 -30 22 -53t52 -23q24 0 51 20t27 43q0 2 -16 47l8 4q15 0 33.5 -18.5t18.5 -33.5q0 -44 -31 -75t-75 -31q-39 0 -78 30.5t-39 68.5q0 69 48.5 117t117.5 48q17 0 34 -3q73 -15 147 -31q83 -16 147 -16zM408 725l-7 -19l-132 43l-131 -43l-6 16l135 95l2 -1l3 1l1 -2z" />
    <glyph glyph-name="Idieresis" unicode="&#xcf;" horiz-adv-x="506" 
d="M493 626l-6 -15q-25 -39 -50 -79q-27 -44 -24 -91q7 -157 7 -142q0 -104 -68 -208q-75 -116 -175 -116l-17 3l8 12q109 33 141 161q17 64 17 226q0 60 14 95q11 29 41.5 60t63.5 64l-8 4q-51 -19 -125 -19q-67 0 -112 25.5t-81 25.5q-39 0 -66 -30.5t-27 -69.5
q0 -30 22 -53t52 -23q24 0 51 20t27 43q0 2 -16 47l8 4q15 0 33.5 -18.5t18.5 -33.5q0 -44 -31 -75t-75 -31q-39 0 -78 30.5t-39 68.5q0 69 48.5 117t117.5 48q17 0 34 -3q73 -15 147 -31q83 -16 147 -16zM304 775q0 22 16.5 38t38.5 16q23 0 39 -16t16 -38q0 -23 -16 -39
t-39 -16q-22 0 -38.5 16t-16.5 39zM114 775q0 22 16.5 38t38.5 16q23 0 39 -16t16 -38q0 -23 -16 -39t-39 -16q-22 0 -38.5 16t-16.5 39z" />
    <glyph glyph-name="Igrave" unicode="&#xcc;" horiz-adv-x="506" 
d="M493 626l-6 -15q-25 -39 -50 -79q-27 -44 -24 -91q7 -157 7 -142q0 -104 -68 -208q-75 -116 -175 -116l-17 3l8 12q109 33 141 161q17 64 17 226q0 60 14 95q11 29 41.5 60t63.5 64l-8 4q-51 -19 -125 -19q-67 0 -112 25.5t-81 25.5q-39 0 -66 -30.5t-27 -69.5
q0 -30 22 -53t52 -23q24 0 51 20t27 43q0 2 -16 47l8 4q15 0 33.5 -18.5t18.5 -33.5q0 -44 -31 -75t-75 -31q-39 0 -78 30.5t-39 68.5q0 69 48.5 117t117.5 48q17 0 34 -3q73 -15 147 -31q83 -16 147 -16zM207 818q174 -90 173 -93q-3 -21 -6 -18q-97 29 -199 59
q-15 5 -15 21q0 13 9.5 24.5t22.5 11.5q8 0 15 -5z" />
    <glyph glyph-name="Oacute" unicode="&#xd3;" horiz-adv-x="654" 
d="M610 502q2 -32 -12.5 -62.5t-14.5 -31.5q0 -16 5.5 -48t5.5 -49q0 -134 -74 -229q-81 -103 -210 -103q-124 0 -215 114q-89 111 -87 248q2 156 100 254t242 98q98 0 170 -46q86 -52 90 -145zM545 420q0 -3 -15 33q-25 58 -92 58q-68 0 -81 -58q-4 -21 -4 -15
q0 -30 28 -50.5t59 -20.5q23 0 62 17q43 19 43 36zM579 511q-6 67 -85 113q-67 40 -132 40q-99 0 -172 -61q-75 -64 -81 -164q-6 -5 -6 -87q0 -120 52 -220q64 -123 174 -123q101 0 170 97q63 88 63 195q0 36 -9 82q-64 -38 -115 -38q-44 0 -77 21q-41 24 -41 66q0 45 38 76
q35 29 81 28q-6 13 -39.5 23.5t-51.5 10.5q-62 0 -103 -44t-41 -106q0 -53 34 -106q38 -58 88 -58q27 0 53 20t28 21l6 -5q-16 -39 -44 -64q-33 -29 -72 -29q-72 0 -115 58q-38 52 -38 125q0 80 59 145q62 69 146 68q81 -1 139 -46q42 -31 80 -95q13 29 11 57zM375 818
q-174 -90 -173 -93q3 -21 6 -18q96 29 199 59q15 5 15 21q0 13 -9.5 24.5t-22.5 11.5q-8 0 -15 -5z" />
    <glyph glyph-name="Ocircumflex" unicode="&#xd4;" horiz-adv-x="654" 
d="M610 502q2 -32 -12.5 -62.5t-14.5 -31.5q0 -16 5.5 -48t5.5 -49q0 -134 -74 -229q-81 -103 -210 -103q-124 0 -215 114q-89 111 -87 248q2 156 100 254t242 98q98 0 170 -46q86 -52 90 -145zM545 420q0 -3 -15 33q-25 58 -92 58q-68 0 -81 -58q-4 -21 -4 -15
q0 -30 28 -50.5t59 -20.5q23 0 62 17q43 19 43 36zM579 511q-6 67 -85 113q-67 40 -132 40q-99 0 -172 -61q-75 -64 -81 -164q-6 -5 -6 -87q0 -120 52 -220q64 -123 174 -123q101 0 170 97q63 88 63 195q0 36 -9 82q-64 -38 -115 -38q-44 0 -77 21q-41 24 -41 66q0 45 38 76
q35 29 81 28q-6 13 -39.5 23.5t-51.5 10.5q-62 0 -103 -44t-41 -106q0 -53 34 -106q38 -58 88 -58q27 0 53 20t28 21l6 -5q-16 -39 -44 -64q-33 -29 -72 -29q-72 0 -115 58q-38 52 -38 125q0 80 59 145q62 69 146 68q81 -1 139 -46q42 -31 80 -95q13 29 11 57zM488 725
l-7 -19l-132 43l-131 -43l-6 16l135 95l2 -1l3 1l1 -2z" />
    <glyph glyph-name="Ograve" unicode="&#xd2;" horiz-adv-x="654" 
d="M610 502q2 -32 -12.5 -62.5t-14.5 -31.5q0 -16 5.5 -48t5.5 -49q0 -134 -74 -229q-81 -103 -210 -103q-124 0 -215 114q-89 111 -87 248q2 156 100 254t242 98q98 0 170 -46q86 -52 90 -145zM545 420q0 -3 -15 33q-25 58 -92 58q-68 0 -81 -58q-4 -21 -4 -15
q0 -30 28 -50.5t59 -20.5q23 0 62 17q43 19 43 36zM579 511q-6 67 -85 113q-67 40 -132 40q-99 0 -171 -61q-76 -64 -82 -164q-6 -5 -6 -87q0 -120 52 -220q64 -123 174 -123q101 0 170 97q63 88 63 195q0 36 -9 82q-64 -38 -115 -38q-44 0 -77 21q-41 24 -41 66q0 45 38 76
q35 29 81 28q-6 13 -39.5 23.5t-51.5 10.5q-62 0 -103 -44t-41 -106q0 -53 34 -106q38 -58 88 -58q27 0 53 20t28 21l6 -5q-16 -39 -44 -64q-33 -29 -72 -29q-72 0 -115 58q-38 52 -38 125q0 80 59 145q62 69 146 68q81 -1 139 -46q42 -31 80 -95q13 29 11 57zM258 818
q173 -90 173 -93q-4 -21 -6 -18q-97 29 -200 59q-15 5 -15 21q0 13 9.5 24.5t22.5 11.5q8 0 16 -5z" />
    <glyph glyph-name="Uacute" unicode="&#xda;" horiz-adv-x="1000" 
d="M980 150q0 -70 -57 -115q-53 -43 -124 -43q-85 0 -143.5 48t-80.5 131l-179 -189q0 197 -165 203q95 87 105 100q44 55 44 136q0 92 -55.5 148.5t-147.5 56.5q-61 0 -105 -52.5t-44 -114.5q0 -45 32.5 -87t75.5 -42q37 0 62 35q22 32 22 70q0 77 -89 79q26 22 62 22
q43 0 72 -28.5t29 -70.5q0 -56 -51 -96q-47 -36 -104 -36q-60 0 -100 46t-40 107q0 103 73 161q67 54 172 54q88 0 155.5 -70t67.5 -158q0 -139 -142 -223q52 -9 85 -40q16 -16 58 -75q22 16 50 50q35 41 48 53q-4 27 -4 63q0 126 39 240q53 156 154 156q55 0 55 -81
q0 -60 -43 -149q-30 -63 -79 -136q-43 -64 -43 -62q0 -16 8 -57q34 -168 157 -168q54 0 100 40t46 93q0 48 -29 82t-76 34q-28 0 -42 -28q-12 -22 -12 -52q0 -62 78 -79q-18 -23 -46 -23q-34 0 -61 29t-27 63q0 42 35 78.5t77 36.5q59 0 93 -40.5t34 -99.5zM745 644
q-25 0 -53 -55q-21 -43 -29 -80q-27 -132 -27 -174q0 -41 1 -52q53 67 94 145q52 99 52 159q0 57 -38 57zM555 818q-174 -90 -173 -93q3 -21 6 -18q96 29 199 59q15 5 15 21q0 13 -9.5 24.5t-22.5 11.5q-8 0 -15 -5z" />
    <glyph glyph-name="Ucircumflex" unicode="&#xdb;" horiz-adv-x="1000" 
d="M980 150q0 -70 -57 -115q-53 -43 -124 -43q-85 0 -143.5 48t-80.5 131l-179 -189q0 197 -165 203q95 87 105 100q44 55 44 136q0 92 -55.5 148.5t-147.5 56.5q-61 0 -105 -52.5t-44 -114.5q0 -45 32.5 -87t75.5 -42q37 0 62 35q22 32 22 70q0 77 -89 79q26 22 62 22
q43 0 72 -28.5t29 -70.5q0 -56 -51 -96q-47 -36 -104 -36q-60 0 -100 46t-40 107q0 103 73 161q67 54 172 54q88 0 155.5 -70t67.5 -158q0 -139 -142 -223q52 -9 85 -40q16 -16 58 -75q22 16 50 50q35 41 48 53q-4 27 -4 63q0 126 39 240q53 156 154 156q55 0 55 -81
q0 -60 -43 -149q-30 -63 -79 -136q-43 -64 -43 -62q0 -16 8 -57q34 -168 157 -168q54 0 100 40t46 93q0 48 -29 82t-76 34q-28 0 -42 -28q-12 -22 -12 -52q0 -62 78 -79q-18 -23 -46 -23q-34 0 -61 29t-27 63q0 42 35 78.5t77 36.5q59 0 93 -40.5t34 -99.5zM745 644
q-25 0 -53 -55q-21 -43 -29 -80q-27 -132 -27 -174q0 -41 1 -52q53 67 94 145q52 99 52 159q0 57 -38 57zM618 725l-7 -19l-132 43l-131 -43l-6 16l135 95l2 -1l3 1l1 -2z" />
    <glyph glyph-name="Ugrave" unicode="&#xd9;" horiz-adv-x="1000" 
d="M980 150q0 -70 -57 -115q-53 -43 -124 -43q-85 0 -143.5 48t-80.5 131l-179 -189q0 197 -165 203q95 87 105 100q44 55 44 136q0 92 -55.5 148.5t-147.5 56.5q-61 0 -105 -52.5t-44 -114.5q0 -45 32.5 -87t75.5 -42q37 0 62 35q22 32 22 70q0 77 -89 79q26 22 62 22
q43 0 72 -28.5t29 -70.5q0 -56 -51 -96q-47 -36 -104 -36q-60 0 -100 46t-40 107q0 103 73 161q67 54 172 54q88 0 155.5 -70t67.5 -158q0 -139 -142 -223q52 -9 85 -40q16 -16 58 -75q22 16 50 50q35 41 48 53q-4 27 -4 63q0 126 39 240q53 156 154 156q55 0 55 -81
q0 -60 -43 -149q-30 -63 -79 -136q-43 -64 -43 -62q0 -16 8 -57q34 -168 157 -168q54 0 100 40t46 93q0 48 -29 82t-76 34q-28 0 -42 -28q-12 -22 -12 -52q0 -62 78 -79q-18 -23 -46 -23q-34 0 -61 29t-27 63q0 42 35 78.5t77 36.5q59 0 93 -40.5t34 -99.5zM745 644
q-25 0 -53 -55q-21 -43 -29 -80q-27 -132 -27 -174q0 -41 1 -52q53 67 94 145q52 99 52 159q0 57 -38 57zM433 818q174 -90 173 -93q-4 -21 -6 -18q-97 29 -199 59q-15 5 -15 21q0 13 9.5 24.5t22.5 11.5q7 0 15 -5z" />
    <glyph glyph-name="circumflex" unicode="&#x2c6;" horiz-adv-x="468" 
d="M348 725l-7 -19l-122 43l-121 -43l-6 16l125 95l2 -1l3 1l1 -2z" />
    <glyph glyph-name="tilde" unicode="&#x2dc;" horiz-adv-x="685" 
d="M258 755q-60 0 -60 -21l-23 -1q0 28 33 53q31 22 60 22q25 0 54.5 -18t62.5 -18q30 0 55 28h24q0 -28 -35.5 -53t-65.5 -25q-23 0 -50.5 16.5t-54.5 16.5z" />
    <glyph glyph-name="macron" unicode="&#xaf;" horiz-adv-x="280" 
d="M24 790h233v-52h-233v52z" />
    <glyph glyph-name="macron" unicode="&#x2c9;" horiz-adv-x="280" 
d="M24 790h233v-52h-233v52z" />
    <glyph glyph-name="cedilla" unicode="&#xb8;" horiz-adv-x="689" 
d="M377 -178q-9 0 -68 19l18 26q27 -16 65 -16q52 0 52 42q0 26 -47 26q-9 0 -51 1q0 5 6.5 36t5.5 43h33l-12 -53q50 7 48 7q38 0 51 -18q10 -12 10 -42q0 -71 -111 -71z" />
    <glyph glyph-name="Scaron" unicode="&#x160;" 
 />
    <glyph glyph-name="scaron" unicode="&#x161;" 
 />
    <glyph glyph-name="brokenbar" unicode="&#xa6;" 
 />
    <glyph glyph-name="Eth" unicode="&#xd0;" 
 />
    <glyph glyph-name="eth" unicode="&#xf0;" 
 />
    <glyph glyph-name="Yacute" unicode="&#xdd;" 
 />
    <glyph glyph-name="yacute" unicode="&#xfd;" 
 />
    <glyph glyph-name="Thorn" unicode="&#xde;" 
 />
    <glyph glyph-name="thorn" unicode="&#xfe;" 
 />
    <glyph glyph-name="minus" unicode="&#xad;" 
 />
    <glyph glyph-name="minus" unicode="&#x2212;" 
 />
    <glyph glyph-name="multiply" unicode="&#xd7;" 
 />
    <glyph glyph-name="onesuperior" unicode="&#xb9;" 
 />
    <glyph glyph-name="twosuperior" unicode="&#xb2;" 
 />
    <glyph glyph-name="threesuperior" unicode="&#xb3;" 
 />
    <glyph glyph-name="onehalf" unicode="&#xbd;" 
 />
    <glyph glyph-name="onequarter" unicode="&#xbc;" 
 />
    <glyph glyph-name="threequarters" unicode="&#xbe;" 
 />
    <glyph glyph-name="Lslash" unicode="&#x141;" 
 />
    <glyph glyph-name="lslash" unicode="&#x142;" 
 />
    <glyph glyph-name="HT" 
 />
    <glyph glyph-name="LF" 
 />
    <glyph glyph-name="nonmarkingreturn" 
 />
    <glyph glyph-name="Zcaron" unicode="&#x17d;" 
 />
    <glyph glyph-name="zcaron" unicode="&#x17e;" 
 />
    <glyph glyph-name="DLE" 
 />
    <glyph glyph-name="DC1" 
 />
    <glyph glyph-name="DC2" 
 />
    <glyph glyph-name="DC3" 
 />
    <glyph glyph-name="DC4" 
 />
    <glyph glyph-name="RS" 
 />
    <glyph glyph-name="US" 
 />
    <glyph glyph-name="notequal" unicode="&#x2260;" 
 />
    <glyph glyph-name="infinity" unicode="&#x221e;" 
 />
    <glyph glyph-name="lessequal" unicode="&#x2264;" 
 />
    <glyph glyph-name="greaterequal" unicode="&#x2265;" 
 />
    <glyph glyph-name="partialdiff" unicode="&#x2202;" horiz-adv-x="212" 
d="M4 208l41 30v225q0 60 53 113q50 50 113 58q27 4 43 4q3 0 3 -3v-7q-15 -2 -42 -7q-52 -10 -78 -57q-22 -40 -22 -98l1 -176l73 53v-50l-73 -52v-137q0 -19 32 -32l48 -18q-16 -9 -46 -27q-3 -2 -37 -39q2 0 -39 19.5t-64 17.5q35 43 35 60v106l-41 -29v46z" />
    <glyph glyph-name="summation" unicode="&#x2211;" horiz-adv-x="599" 
d="M633 741l-6 -1q-12 0 -35.5 5t-35.5 5q-55 0 -105 -20q-57 -23 -84 -64q48 -3 91.5 -41t43.5 -85q0 -39 -25 -64t-64 -25q-46 0 -74 41q-25 37 -25 86q0 40 20 65h-8q-37 0 -69.5 -34t-32.5 -71q0 -57 89 -105q82 -44 164 -89q89 -63 89 -157q0 -98 -95 -157
q-82 -51 -186 -51q-170 0 -206 132l-40 34q-38 38 -38 98q0 59 39 101q37 39 96 52l3 -13q-116 -39 -116 -135q0 -69 54 -104q0 62 57 104q51 39 115 39q41 0 77 -25q39 -28 39 -67q0 -57 -52 -92q-46 -31 -106 -31q-58 0 -101 28q16 -52 71 -78q46 -23 107 -23q75 0 134 38
q66 44 66 116q0 70 -84 123q-78 44 -157 87q-84 56 -84 135q0 72 55 120t128 48q74 101 212 101q63 0 79 -26zM455 536q0 40 -31.5 73.5t-71.5 31.5q-18 -29 -18 -68q0 -34 22 -65q24 -34 57 -34q42 0 42 62zM301 191q0 25 -24 44t-50 19q-49 0 -87 -35.5t-40 -84.5
q52 -32 94 -32q107 0 107 89zM421 810l-4 11l-121 -54l-122 54l-2 -11l121 -100l2 1l3 -1l1 2z" />
    <glyph glyph-name="product" unicode="&#x220f;" horiz-adv-x="336" 
d="M308 145q4 -68 -32.5 -110.5t-94.5 -42.5q-45 0 -88 33t-50 33q-20 0 -19 0q-1 -1 -22 -16q15 71 79 71q40 0 80 -43t60 -43q48 0 48 51q0 39 -80 70q-50 17 -99 33q-34 22 -48 39q-20 25 -20 61q0 45 31 75.5t76 30.5q22 0 62 -8.5t57 -8.5q11 0 22.5 7t23.5 15
q0 -25 -19.5 -47.5t-43.5 -23.5q-52 -3 -87 18t-43 20q-29 -5 -29 -42q0 -39 76 -60q5 -2 48 -18q54 -20 77 -37q33 -23 35 -57zM291 520l-4 11l-121 -54l-122 54l-2 -11l121 -100l2 1l3 -1l1 2z" />
    <glyph glyph-name="pi" unicode="&#x3c0;" horiz-adv-x="816" 
d="M881 610q0 -58 -36 -116q-26 -42 -69 -84l-46 -40q-2 -53 -12 -149q-25 -141 -111 -197q-79 -51 -230 -45q-66 3 -113 29q-66 36 -65 107q1 46 29.5 79.5t77.5 33.5q41 0 72.5 -22.5t31.5 -60.5q0 -30 -21.5 -49t-50.5 -19q23 24 23 61q0 66 -61 66q-33 0 -57 -30
q-20 -26 -20 -51q0 -63 59 -96q49 -28 126 -28q82 0 135 29q60 33 81 115q10 35 18 142q-45 -42 -110 -116q-11 -18 -25 -34q-10 26 -20 52.5t-39 47.5q-25 18 -72 29q108 63 108 136q0 103 -94 168q-79 55 -168 55q-67 0 -122 -29q-72 -38 -77 -111q-4 -77 53 -100
q-3 14 -3 27q0 65 54 110q47 41 101 41q44 0 66 -26.5t18 -65.5q-5 -67 -68 -100q-46 -24 -105 -24q-23 0 -31 3q30 -63 113 -61q50 1 87 25q17 0 16 2q-23 -40 -106 -47q-53 -4 -93 25q-36 25 -43 63q-11 3 -36 18q-46 40 -47 110q-1 93 99 148q85 47 184 43q98 -4 169 -58
q78 -59 78 -152q0 -92 -73 -169q75 -6 103 -64l83 81q-2 155 -1 180q4 90 49 138t118 48q32 0 52.5 -18.5t20.5 -49.5zM858 609q0 19 -14.5 34.5t-35.5 15.5q-38 0 -61 -49q-18 -39 -19 -84q-3 -129 2 -129q55 43 91.5 102.5t36.5 109.5zM284 474q0 64 -57 61
q-51 -2 -90.5 -39.5t-39.5 -85.5q0 -31 5 -36q20 -7 39 -7q47 0 90 25q53 31 53 82zM563 810q-173 -91 -173 -94q4 -20 6 -17q97 28 199 58q16 5 16 22q0 13 -9.5 24t-22.5 11q-8 0 -16 -4z" />
    <glyph glyph-name="integral" unicode="&#x222b;" horiz-adv-x="662" 
d="M621 395q-26 -37 -26 -93q0 -41 1 -146v-135q0 -32 -6 -55q-39 -157 -214 -157q-19 0 -64 15q-40 14 -62 25q-39 21 -90 21q-23 0 -61 -23q-14 -15 -39 -36q-3 0 -3 6q0 13 26 47q55 73 128 73q12 0 24 -2q30 -5 81 -42t62 -40q35 -9 44 -8q57 6 76 45q13 29 16 108
q3 58 0 96q-23 0 -71 -52.5t-49 -52.5q-12 0 -92 63q5 4 12 28q1 13 0 153q0 64 -52 96q57 58 72 57q14 -1 33 -29q16 -23 21 -38q7 -20 7 -214q2 -8 19 -18.5t20 -8.5q19 18 82 50v174q0 32 34 60q30 24 71 33zM535 528q-174 -90 -173 -93q3 -21 6 -18q96 29 199 59
q15 5 15 21q0 13 -9.5 24.5t-22.5 11.5q-8 0 -15 -5z" />
    <glyph glyph-name="Omega" unicode="&#x3a9;" horiz-adv-x="654" 
d="M329 278h-150q26 -250 204 -262q69 -5 123.5 36.5t59.5 110.5q5 77 -106 119q13 4 27 4q44 0 79.5 -36.5t31.5 -83.5q-13 -194 -257 -184q-114 5 -187 94q-67 83 -69 202h-81v37h80q0 33 5 63h-85v37h92q29 125 119 197t212 63q64 -4 109 -41q51 -42 50 -109
q0 -37 -29 -63q-26 -22 -62 -27q27 45 31 95q3 43 -31 79.5t-78 39.5q-97 7 -160 -59q-59 -63 -76 -175h148v-37h-151q-3 -30 -1 -63h152v-37z" />
    <glyph glyph-name="Omega" unicode="&#x2126;" horiz-adv-x="654" 
d="M329 278h-150q26 -250 204 -262q69 -5 123.5 36.5t59.5 110.5q5 77 -106 119q13 4 27 4q44 0 79.5 -36.5t31.5 -83.5q-13 -194 -257 -184q-114 5 -187 94q-67 83 -69 202h-81v37h80q0 33 5 63h-85v37h92q29 125 119 197t212 63q64 -4 109 -41q51 -42 50 -109
q0 -37 -29 -63q-26 -22 -62 -27q27 45 31 95q3 43 -31 79.5t-78 39.5q-97 7 -160 -59q-59 -63 -76 -175h148v-37h-151q-3 -30 -1 -63h152v-37z" />
    <glyph glyph-name="radical" unicode="&#x221a;" 
 />
    <glyph glyph-name="approxequal" unicode="&#x2248;" 
 />
    <glyph glyph-name="approxequal" unicode="&#x22f2;" 
 />
    <glyph glyph-name="Delta" unicode="&#x394;" horiz-adv-x="25" 
 />
    <glyph glyph-name="Delta" unicode="&#x2206;" horiz-adv-x="25" 
 />
    <glyph glyph-name="lozenge" unicode="&#x25ca;" horiz-adv-x="207" 
d="M10 282l78 108l78 -108l-78 -108z" />
    <glyph glyph-name="fraction" unicode="&#x2044;" 
 />
    <glyph glyph-name="fi" unicode="&#xf001;" 
 />
    <glyph glyph-name="fl" unicode="&#xf002;" 
 />
    <glyph glyph-name="apple" unicode="&#xf000;" 
 />
    <glyph glyph-name="dotlessi" unicode="&#x131;" horiz-adv-x="186" 
d="M177 89q-9 -16 -33 -44q-27 -30 -34 -42q-5 -7 -11 -7q-13 0 -34 30q-19 27 -20 35q-3 20 -3 44t5 80q5 53 4 79q0 16 -2 23q-5 16 -17 28q-1 2 -9.5 6t-10.5 7q1 4 28.5 29.5t36.5 25.5q13 0 28 -19t15 -35q0 -31 -4.5 -85.5t-4.5 -82.5q0 -17 1 -32t11.5 -32t20.5 -17
q8 0 22 9h11z" />
    <glyph glyph-name="breve" unicode="&#x2d8;" horiz-adv-x="326" 
d="M45 824q3 -14 35 -34q36 -22 73 -21q82 1 120 55l29 -20q-63 -89 -151 -85q-50 2 -90.5 27t-46.5 61z" />
    <glyph glyph-name="dotaccent" unicode="&#x2d9;" horiz-adv-x="660" 
d="M134 745q0 22 16.5 38t38.5 16q23 0 39 -16t16 -38q0 -23 -16 -39t-39 -16q-22 0 -38.5 16t-16.5 39z" />
    <glyph glyph-name="ring" unicode="&#x2da;" horiz-adv-x="238" 
d="M109 837q30 0 51 -21.5t21 -50.5q0 -30 -21 -51.5t-51 -21.5t-51 21.5t-21 51.5q0 29 21 50.5t51 21.5zM109 802q-15 0 -26 -11t-11 -26q0 -16 11 -27t26 -11q16 0 26.5 11t10.5 27q0 15 -10.5 26t-26.5 11z" />
    <glyph glyph-name="hungarumlaut" unicode="&#x2dd;" horiz-adv-x="398" 
d="M82 704l-20 16l58 87q21 31 43 31q17 0 29 -12t12 -29q0 -25 -48 -52zM223 704l-19 16l58 87q21 31 43 31q17 0 29 -12t12 -29q0 -25 -49 -52z" />
    <glyph glyph-name="ogonek" unicode="&#x2db;" horiz-adv-x="447" 
d="M210 0h62q-33 -19 -52 -33q-31 -22 -31 -61q0 -20 19.5 -32t39.5 -12q44 0 105 20l18 -35q-80 -38 -162 -38q-37 0 -73 24q-33 21 -33 55q0 49 37 75q14 10 28 21q20 12 42 16z" />
    <glyph glyph-name="caron" unicode="&#x2c7;" horiz-adv-x="573" 
d="M411 820l-4 11l-121 -54l-122 54l-2 -11l121 -100l2 1l3 -1l1 2z" />
    </font>
</defs>
</svg>
