<?xml version="1.0" standalone="no"?>
<!DOCTYPE svg PUBLIC "-//W3C//DTD SVG 1.1//EN" "http://www.w3.org/Graphics/SVG/1.1/DTD/svg11.dtd" >
<svg>
<metadata>
Created by FontForge 20120731 at Tue Apr 16 16:01:06 2019
 By www-data
Digitized by Dan X. Solo. Software (c) 2000 by Dover Publications, Inc., New York.
</metadata>
<defs>
<font id="Horloge" horiz-adv-x="20" >
  <font-face 
    font-family="Horloge"
    font-weight="400"
    font-stretch="normal"
    units-per-em="1000"
    panose-1="0 0 4 0 0 0 0 0 0 0"
    ascent="800"
    descent="-200"
    x-height="413"
    cap-height="703"
    bbox="-62 -354 1241 837"
    underline-thickness="20"
    underline-position="-123"
    unicode-range="U+0020-F002"
  />
<missing-glyph horiz-adv-x="500" 
d="M63 0v800h375v-800h-375zM125 63h250v675h-250v-675z" />
    <glyph glyph-name=".notdef" horiz-adv-x="500" 
d="M63 0v800h375v-800h-375zM125 63h250v675h-250v-675z" />
    <glyph glyph-name=".null" horiz-adv-x="0" 
 />
    <glyph glyph-name="glyph2" horiz-adv-x="181" 
 />
    <glyph glyph-name="space" unicode=" " horiz-adv-x="181" 
 />
    <glyph glyph-name="exclam" unicode="!" horiz-adv-x="262" 
d="M87 47q0 21 14.5 36.5t34.5 15.5q21 0 35 -15.5t14 -36.5q0 -22 -14 -37t-35 -15q-20 0 -34.5 15t-14.5 37zM149 133l-29 3l-23 426q0 19 -24 32l-40 18q16 11 46 32q1 0 32 32q11 -17 41 -36q36 -22 61 -19q-12 -22 -35 -61z" />
    <glyph glyph-name="quotedbl" unicode="&#x22;" horiz-adv-x="348" 
d="M128 674l-35 -258l-43 3l-18 164q-5 36 -23 91h119zM288 674l-35 -258l-43 3l-18 164q-5 36 -23 91h119z" />
    <glyph glyph-name="numbersign" unicode="#" horiz-adv-x="471" 
d="M289 451h-128l-24 -231h128zM47 530h70l14 144h23l31 8l-16 -152h128l15 144h22l31 8l-16 -152h81l-8 -79h-81l-24 -231h81l-8 -79h-81q-1 -10 -16 -141h-62l18 63l8 78h-128q-1 -10 -16 -141h-62l18 63l8 78h-70l8 79h70l24 231h-70z" />
    <glyph glyph-name="dollar" unicode="$" horiz-adv-x="405" 
d="M165 334v119q-89 -13 -89 -66q0 -15 10 -37q11 -26 24 -26q23 0 55 10zM190 265v-125q16 -7 34 -7q85 0 85 82q0 17 -11 39q-12 26 -28 26q-31 0 -80 -15zM165 560h25v-60q19 3 39 3q103 0 103 -24q0 -16 -52 -59q-34 35 -79 35h-11v-114q46 15 73 15q42 0 70.5 -23
t28.5 -64q0 -60 -54.5 -123t-117.5 -76v-86h-25v83q-17 0 -38 8q-33 11 -38 13q-18 4 -51 -16t-50 -42l8 30q11 40 49 71t77 31q21 0 43 -10v105q-50 -15 -81 -15q-30 0 -49.5 17.5t-19.5 47.5q0 121 150 185v68z" />
    <glyph glyph-name="percent" unicode="%" horiz-adv-x="703" 
d="M627 54q-64 -57 -124 -57q-65 0 -97 75q-25 59 -25 149q0 51 8 87q9 41 58 79.5t100 40.5q56 1 89 -47q38 -55 38 -170q0 -20 -1 -43q-5 -77 -46 -114zM191 -1h-52l345 681h52zM247 314q-64 -57 -124 -57q-65 0 -97 75q-25 59 -25 149q0 51 8 87q9 41 58 79.5t100 40.5
q56 1 89 -47q38 -55 38 -170q0 -20 -1 -43q-5 -77 -46 -114zM517 366q-32 -1 -47 -10q-10 -6 -18 -42t-8 -80q0 -72 21 -119q26 -56 76 -56q36 0 51.5 26t15.5 135q0 148 -91 146zM137 626q-32 -1 -47 -10q-10 -6 -18 -42t-8 -80q0 -72 21 -119q26 -56 76 -56q36 0 51.5 26
t15.5 135q0 148 -91 146z" />
    <glyph glyph-name="ampersand" unicode="&#x26;" horiz-adv-x="664" 
d="M562 119q-133 -79 -138 -81q-88 -47 -147 -49q-70 -2 -167 70q-102 74 -104 141q-3 75 58 133q58 56 133 58q5 -2 8 -1q4 0 5 6q-89 74 -177 165v8q89 -19 204 -19q39 0 151 4q3 0 46 8.5t47 9.5q2 -1 16.5 -37t17.5 -36q-159 -5 -173 -5q-111 0 -187 20l196 -188
q-32 6 -97 11q-57 -2 -110 -53.5t-51 -108.5q2 -51 34 -91q36 -43 86 -41q51 2 132 45l124 74q-12 16 -26 58q-49 -4 -81 8q-72 24 -72 29q0 -6 6 18q46 -21 121 -21q110 0 138 54q10 18 10 31q0 20 -20 30q-15 8 -35 8q-7 0 -60 -9q16 24 52 43t69 19q75 0 73 -92
q-6 -15 -14 -27q-17 -31 -37 -45q-40 -28 -89 -40q19 -71 57 -96z" />
    <glyph glyph-name="quotesingle" unicode="'" horiz-adv-x="189" 
d="M121 674l-35 -258l-43 3l-18 164q-5 36 -23 91h119z" />
    <glyph glyph-name="parenleft" unicode="(" horiz-adv-x="244" 
d="M132 687h32q-79 -215 -79 -360q0 -158 80 -341h-32q-132 181 -132 347q0 165 131 354z" />
    <glyph glyph-name="parenright" unicode=")" horiz-adv-x="244" 
d="M34 -14h-32q78 215 78 360q0 158 -79 341h32q132 -181 132 -347q0 -165 -131 -354z" />
    <glyph glyph-name="asterisk" unicode="*" horiz-adv-x="320" 
d="M50 630l87 -72l-16 111h66l-15 -110l83 67l33 -57l-97 -40l100 -39l-33 -57l-87 67l16 -110h-66l17 110l-91 -71l-33 58l109 42l-106 43z" />
    <glyph glyph-name="plus" unicode="+" horiz-adv-x="480" 
d="M12 338v52h189v188h52v-188h196v-52h-196v-196h-52v196h-189z" />
    <glyph glyph-name="comma" unicode="," horiz-adv-x="157" 
d="M113 30q0 -16 -5 -29q-9 -27 -43 -61t-64 -50q-4 1 -4 8q0 2 15 32.5t15 60.5q0 34 -24 82q0 4 25.5 21.5t39.5 23.5q3 1 9 -1t8 -2q17 -17 23 -48q5 -19 5 -37z" />
    <glyph glyph-name="hyphen" unicode="-" horiz-adv-x="294" 
d="M237 287l-27 -66h-191l29 66h189z" />
    <glyph glyph-name="hyphen" unicode="&#x2010;" horiz-adv-x="294" 
d="M237 287l-27 -66h-191l29 66h189z" />
    <glyph glyph-name="period" unicode="." horiz-adv-x="174" 
d="M147 53q-31 -30 -61 -47h-20q-9 0 -29 28t-20 33q0 7 36 32.5t42 25.5q7 0 16 -10q25 -29 36 -47q1 -2 -0.5 -8t0.5 -7z" />
    <glyph glyph-name="slash" unicode="/" horiz-adv-x="411" 
d="M347 675h41l-340 -671h-40z" />
    <glyph glyph-name="zero" unicode="0" horiz-adv-x="328" 
d="M310 214q0 -53 -19 -92q-16 -32 -59 -75q-49 -49 -78 -49q-28 0 -64.5 25.5t-55.5 57.5q-25 40 -25 110q0 33 7 68q8 43 41 85q15 18 55 46.5t56 28.5q24 0 60 -26.5t48 -50.5q23 -46 30 -80q4 -20 4 -48zM260 163q0 52 -28 105q-17 33 -57 59.5t-67 26.5q-16 0 -34 -36
q-14 -31 -14 -39q0 -3 -2 -15.5t-2 -15.5q0 8 8 -40q9 -55 55.5 -97.5t97.5 -42.5q11 0 26 23q12 20 13 26q4 45 4 46z" />
    <glyph glyph-name="one" unicode="1" horiz-adv-x="351" 
d="M260 56q-6 -14 -21 -33q-19 -24 -32 -24q-6 0 -45 23q-42 25 -42 37q0 3 5 10t5 8q7 14 7 35v207q0 17 -18 17h-26l32 46q26 38 35 38q13 0 29 -19t17 -32q4 -40 4 -76v-138q0 -38 9 -66q8 -22 31 -27q3 -1 10 -6z" />
    <glyph glyph-name="two" unicode="2" horiz-adv-x="351" 
d="M286 53q0 -8 -19 -32.5t-28 -24.5q-3 0 -15 6q-15 7 -19 8q-36 11 -72 14q-13 1 -29 1q-35 0 -82 -29h-13v19q0 14 40 56l42 42q27 27 72 81q11 18 23 51.5t12 51.5q0 11 -5.5 35.5t-10.5 28.5q-10 1 -16 -3q-101 -70 -111 -70q-6 0 -22 21t-15 28q110 74 112 74
q5 0 56 -22.5t79 -37.5q15 -8 15 -31q0 -55 -33 -113q-17 -28 -63 -58q-34 -21 -68 -43q-26 -20 -40 -38q13 -1 52 7.5t54 8.5q20 0 56 -8q48 -10 48 -23z" />
    <glyph glyph-name="three" unicode="3" horiz-adv-x="351" 
d="M299 109q0 -29 -36.5 -68t-73.5 -44q-24 -4 -44 -4q-42 0 -89 28q-58 33 -58 80q0 17 14 24q25 11 31 17h13l22 -78q17 -47 63 -47q73 0 73 100q0 37 -23 64q-28 32 -79 35q0 4 9 10q78 21 78 84q0 48 -24 57l-108 -70q-6 3 -40 45q6 10 53 45.5t54 35.5q3 0 55 -28
q65 -35 86 -46q3 -88 -55 -127q0 -6 14.5 -15.5t28.5 -18.5q17 -13 29 -38q7 -14 7 -41z" />
    <glyph glyph-name="four" unicode="4" horiz-adv-x="351" 
d="M300 138q-10 -10 -35 -9t-27 -2q-8 -14 -8 -48q0 -5 35 -34q-3 -8 -20 -28q-20 -24 -32 -24q-10 0 -40.5 23t-30.5 36q0 1 10 19q11 22 8 49q-14 11 -85 11q-3 0 -10.5 -1.5t-10.5 -1.5q-15 0 -33.5 25t-18.5 35q0 13 67 101q61 80 71 89q38 36 43 36q12 0 26 -16t15 -23
q7 -35 7 -79l-1.5 -18.5t-1.5 -33.5q0 -52 21 -52q3 0 4 1.5t4 1.5q21 0 28 -19q12 -34 15 -38zM156 195v149h-13q-109 -125 -109 -142q0 -7 3 -7q99 -2 119 0z" />
    <glyph glyph-name="five" unicode="5" horiz-adv-x="351" 
d="M305 144q0 -63 -53 -112q-48 -45 -98 -45h-8q-46 0 -90 35t-46 79q37 24 45 24q9 0 21 -30q15 -40 26 -55q21 -29 52 -29q43 0 65 50q16 36 16 74q0 3 -11 26q-13 27 -39 49.5t-47 22.5q-12 0 -37 -21q-17 -14 -35 -29q-7 14 -7 18q0 14 15 107t19 104q17 5 61 5l127 -3
q0 -1 1 -1q2 -3 2 -9q0 -10 -10.5 -29.5t-15 -22t-28.5 -2.5q-3 0 -57 1.5t-58 1.5q-14 0 -17 -14q-11 -54 -15 -104q1 -2 2 -4.5t2 -3.5q6 3 53 41q39 32 52 32q15 0 57 -28q34 -22 48 -71q8 -29 8 -57z" />
    <glyph glyph-name="six" unicode="6" horiz-adv-x="332" 
d="M316 179q0 -31 -19 -72q-13 -27 -49 -58q-13 -11 -42 -29q-37 -22 -51 -22q-27 0 -69 34q-39 31 -49 55q-8 17 -21 53q-7 22 -7 61q0 17 15 57q13 36 25 54q16 27 65 68.5t69 41.5q8 0 50 -23.5t42 -29.5q0 -8 -21 -29t-25 -21l-39 23.5t-58 26.5q-13 -8 -31 -49t-18 -58
v-30l5 -4q20 10 83 48q51 31 55 31q10 0 39 -22q23 -17 32 -35q19 -38 19 -71zM260 124q0 54 -38.5 86t-54.5 32q-2 0 -34 -17.5t-44 -18.5l-1.5 -2.5t-1.5 -6.5q0 -6 8.5 -31.5t16.5 -37.5q18 -32 56 -50q31 -16 59 -16q16 0 26 28q8 20 8 34z" />
    <glyph glyph-name="seven" unicode="7" horiz-adv-x="328" 
d="M299 412l-38 -60q-24 -37 -55.5 -104.5t-31.5 -155.5q0 -26 3 -61q-17 -9 -50 -21t-39 -12h-13q0 1 -3 6t-3 10q0 -8 5 21q20 121 78 221q4 7 67 94q0 3 -5 6q-47 4 -51 4q-111 0 -139 -44h-11v10q0 7 21.5 50.5t29.5 44.5q37 4 36 4l195 -6q4 0 4 -7z" />
    <glyph glyph-name="eight" unicode="8" horiz-adv-x="328" 
d="M283 148q0 -34 -30 -80t-71 -68q-26 -14 -28 -14q-44 0 -89 27q-54 33 -54 82q0 23 15 47q5 8 38 52q-9 6 -28 25q-16 24 -16 51t49.5 85t81.5 58q34 0 73 -29q44 -33 44 -69q0 -17 -20.5 -42t-20.5 -29q0 -3 16 -16q18 -16 24 -25q16 -25 16 -55zM218 284q0 27 -46 48
q-37 16 -62 16q-17 0 -30 -14.5t-13 -29.5q0 -29 48 -46q36 -13 67 -13q36 0 36 39zM247 110q0 40 -75 61q-11 4 -83 15q-28 -33 -28 -57q0 -42 60 -59q35 -11 80 -11q17 0 31.5 16t14.5 35z" />
    <glyph glyph-name="nine" unicode="9" horiz-adv-x="328" 
d="M286 197q0 -3 -5 -10q-2 -10 -3 -17q-5 -39 -31 -83q-12 -20 -46 -57q-45 -47 -66 -47q-8 0 -56.5 29t-48.5 36t20.5 22.5t25.5 15.5q3 0 47.5 -23.5t47.5 -23.5q17 0 31 43q11 34 11 47v70l-5 5q-30 -22 -60 -45q-52 -38 -62 -38q-14 0 -36 17q-18 14 -28 28
q-22 32 -22 67q0 28 8 47q7 14 14.5 30.5t50.5 56.5q47 43 69 43q34 0 78 -44q41 -42 49 -78q5 -9 10 -29q1 -11 4 -35t3 -27zM207 238q0 37 -38.5 71t-73.5 34q-19 0 -30 -21q-9 -16 -9 -35q0 -74 55 -94q18 -7 24 -7q7 0 39.5 21t32.5 31z" />
    <glyph glyph-name="colon" unicode=":" horiz-adv-x="203" 
d="M154 53q-30 -30 -61 -47h-20q-9 0 -29 28t-20 33q0 7 36 32.5t42 25.5q7 0 16 -10q25 -29 36 -47q1 -2 -0.5 -8t0.5 -7zM154 353q-30 -30 -61 -47h-20q-9 0 -29 28t-20 33q0 7 36 32.5t42 25.5q7 0 16 -10q25 -29 36 -47q1 -2 -0.5 -8t0.5 -7z" />
    <glyph glyph-name="semicolon" unicode=";" horiz-adv-x="199" 
d="M158 30q0 -16 -4 -29q-9 -27 -43.5 -61t-64.5 -50q-4 1 -4 8q0 2 15 32.5t15 60.5q0 34 -24 82q0 4 25.5 21.5t40.5 23.5q2 1 8 -1t8 -2q17 -17 24 -48q4 -19 4 -37zM155 353q-30 -30 -61 -47h-20q-8 0 -28.5 28t-20.5 33q0 7 36 32.5t42 25.5q7 0 16 -10q25 -29 36 -47
q2 -2 0.5 -8t-0.5 -7z" />
    <glyph glyph-name="less" unicode="&#x3c;" horiz-adv-x="371" 
d="M0 320l261 210l44 -44l-211 -160l211 -172l-44 -44z" />
    <glyph glyph-name="equal" unicode="=" horiz-adv-x="386" 
d="M347 367l-27 -66h-301l29 66h299zM347 237l-27 -66h-301l29 66h299z" />
    <glyph glyph-name="greater" unicode="&#x3e;" horiz-adv-x="371" 
d="M305 320l-261 210l-44 -44l211 -160l-211 -172l44 -44z" />
    <glyph glyph-name="question" unicode="?" horiz-adv-x="419" 
d="M262 376q4 20 4 101q0 42 -29 74.5t-71 32.5q-13 0 -25 -6q2 -7 7 -19l4 -32t3 -27q0 -44 -19 -82q-25 -49 -69 -49q-69 0 -69 91q0 36 26 73t65 57q-17 22 -53 42q3 3 15 6q30 1 66 -37q59 11 66 11q81 0 132 -41q54 -45 54 -123q0 -115 -125 -170q-10 -12 -35 -34
q-6 -4 -16 -25q-14 -26 -12 -48q1 -8 -1 -17.5t-2 -17.5l-35 -3q-1 -6 -1 45q0 75 53.5 108t66.5 90zM129 509q4 61 -17 61q-14 0 -29 -18q-28 -33 -33 -46q-2 -6 -2 -32q0 -67 32 -67q26 0 39 39q10 29 10 63zM117 47q0 21 14.5 36.5t34.5 15.5q21 0 35 -15.5t14 -36.5
q0 -22 -14 -37t-35 -15q-20 0 -34.5 15t-14.5 37z" />
    <glyph glyph-name="at" unicode="@" horiz-adv-x="826" 
d="M467 207q-51 -82 -137 -82q-55 0 -92 37q-40 40 -40 108q0 102 71 177q65 69 141 69q72 0 100 -70l16 53h105l-55 -194q-19 -68 -19 -87q0 -18 7 -26q14 -15 43 -10q56 10 90 84q30 62 30 127q0 117 -89 185q-80 61 -197 61q-67 0 -127 -21q-114 -40 -180 -161
q-39 -72 -39 -172q0 -142 89 -224.5t233 -82.5q131 0 266 83l22 -36q-148 -94 -317 -94q-162 0 -268 104q-100 98 -108 239q-9 147 89 265q91 109 256 138q163 28 283 -41q134 -76 134 -239q0 -127 -70 -205q-61 -68 -138 -68q-86 0 -99 83zM310 239q-1 -27 12.5 -44
t36.5 -17q14 0 29 7q33 15 65 90q29 68 30 111q2 49 -18 63q-16 11 -32 11q-47 0 -88 -92q-34 -77 -35 -129z" />
    <glyph glyph-name="A" unicode="A" horiz-adv-x="752" 
d="M740 120q-9 -31 -58.5 -74.5t-79.5 -43.5q-31 0 -57 40q-16 25 -40 85q-22 56 -34 72q-19 2 -41 2q8 0 -75 -3l-96 -138q-60 -75 -142 -75q-55 0 -87 69q-26 55 -26 117q0 137 107 258q111 125 246 125q28 0 42 -9q18 -12 35 -25q14 18 28 76t14 94q0 10 -1 17
q9 15 38 31q24 11 47 23q-1 -17 -4 -28l-82 -256l80 -232q70 -187 99 -187q13 0 40 25q17 19 35 37h12zM457 249v11q0 8 -16.5 48.5t-21.5 46.5q-12 -22 -40 -106q15 -3 35 -3q16 0 43 3zM398 416q0 25 -45 55.5t-71 30.5q-83 0 -145 -104q-54 -92 -54 -181q0 -56 19 -106
q25 -66 73 -66q36 0 81 57q42 55 45 94q-4 2 -9 3q-39 0 -111 -30v12q23 29 59 44q21 9 57 17q30 5 35 11q12 13 39 80t27 83z" />
    <glyph glyph-name="B" unicode="B" horiz-adv-x="763" 
d="M701 212q0 -67 -96.5 -143.5t-166.5 -76.5q-58 0 -149 43q-5 3 -140 76v12q46 32 66 159q14 86 13 182v16q-7 4 -21 4q-7 0 -20.5 -1.5t-19.5 -1.5q-37 0 -96 16q-73 19 -73 44q0 22 64 40q75 -43 156 -43q7 0 18 1q68 292 257 292q24 0 44 -16.5t20 -39.5
q0 -40 -43.5 -77t-84.5 -41l30 38q16 23 16 45q0 38 -50 38q-54 0 -88 -98q-24 -70 -29 -145q4 -1 12 -1q173 0 362 46v-7q-35 -39 -93 -89q-49 -42 -98 -83q1 -7 5 -7q3 0 8 3q75 0 136 -55t61 -130zM616 184q0 57 -54.5 107t-111.5 50q-17 0 -49 -7t-48 -8l200 188
q-15 1 -120.5 -12.5t-114.5 -17.5q-2 -1 -10 -6q-9 -82 -17 -164q-11 -95 -50 -156q63 -35 127 -69q82 -41 133 -41q50 0 84 44q31 41 31 92z" />
    <glyph glyph-name="C" unicode="C" horiz-adv-x="601" 
d="M586 527q-31 -61 -112 -89l16 28q-7 8 -19 8q-132 0 -167 -63q-11 -18 -15 -40q-3 -31 -11 -96q-9 -59 -48 -193q49 -43 168 -43q46 0 82 6q-46 -35 -83.5 -46.5t-97.5 -11.5q-16 0 -92 23q-35 -43 -57 -62l-10 3l21 74q-69 42 -112 101q-49 67 -49 141q0 188 232 240
q-6 64 -6 66q-9 46 -32 46q-7 0 -16 -4q0 3 -7 4q45 58 91 72q26 -27 31 -116q1 -19 0 -126q31 34 119 63q82 28 134 28q48 0 25 1q13 -1 15 -14zM233 478q-16 -2 -58 -27q-86 -53 -86 -147q0 -55 26 -111q27 -61 72 -87q22 52 46 372z" />
    <glyph glyph-name="D" unicode="D" horiz-adv-x="601" 
d="M559 202q0 -15 -11 -39.5t-21 -36.5q-111 -133 -237 -133l-164 15q-3 0 -27 -26q-27 -31 -41 -42q-4 5 -4 8l35 64l-100 18q6 9 31 31q29 26 41 26q6 0 48 -13q28 70 59 164q-132 62 -132 153q0 53 43.5 99t106.5 64q9 1 21 4q3 22 -0.5 43t-7.5 42q0 5 -7 12
q11 17 36.5 41t26.5 21q3 -60 8 -161q6 0 18 -2q131 -32 209 -143q69 -98 69 -209zM494 172q0 93 -59 180q-64 94 -172 137q-37 -193 -36 -195q5 -10 35 -18q25 -7 44 -7q26 0 63 25t36 25q6 0 4 -2q-20 -54 -88 -78q-51 -18 -111 -15q-20 -57 -57 -155q95 -17 185 -17
q156 0 156 120zM207 481q0 16 -5 19.5t-28 3.5q-80 0 -80 -84q0 -28 29 -63.5t61 -49.5q7 20 15 85q8 60 8 89z" />
    <glyph glyph-name="E" unicode="E" horiz-adv-x="558" 
d="M591 576q-31 -46 -137 -129q-116 -92 -153 -135q16 0 47.5 2.5t48.5 2.5q83 0 116 -25q-7 -14 -50 -49q-11 11 -85 12q-47 0 -94 1l-22 -163q-10 27 -13 80q-2 41 -4 83h-3q-8 0 -26 -4.5t-26 -4.5q6 9 33 32q23 20 28 37q2 6 13 64q16 77 56 147q48 81 109 109
q-17 -24 -48 -73q1 -14 40 -14q61 0 170 27zM460 66q-18 -36 -82 -62q-57 -22 -105 -22q-105 0 -188 75q-86 77 -86 181q0 52 39 101.5t89 61.5q-58 -61 -58 -142q0 -91 79 -159q75 -66 167 -66q33 0 74 9q49 10 66 26zM463 500h-22q-15 -1 -23 -1q-44 0 -63 13
q-15 -37 -30 -75q-18 -45 -23 -76z" />
    <glyph glyph-name="F" unicode="F" horiz-adv-x="409" 
d="M410 454q-4 -13 -34.5 -35.5t-42.5 -22.5q-28 0 -44 37q-14 30 -14 62q0 17 4 43q4 9 8 24v13q-2 0 -6 -1q-56 -56 -75 -157q-9 -47 -13 -161l-3 -98q0 -3 2 -24t2 -30q3 -5 12 -5q4 0 22.5 3t21.5 3t16 3.5t20 4.5q45 3 83 3q0 -1 2 -4q3 -8 -21 -31t-33 -23
q-3 0 -10 1.5t-11 1.5q-50 0 -98 -16q-6 -2 -7 -15q-3 -39 -11 -94q-4 -8 -13 -27q-19 -63 -74 -130q-64 -79 -117 -79q-18 0 -30 42q-8 32 -8 59q0 147 196 271q0 7 3 35q3 25 3 29q0 43 -6 87q-51 17 -91 17q-3 0 -34 -5q9 23 36 37q23 12 47 12q-5 0 41 -6q5 6 5 23
q1 22 1 26q1 1 3.5 37.5t13.5 79.5q17 68 90 134q61 54 142 93q-45 -76 -45 -137q0 -89 67 -80zM131 6v19h-12q-14 0 -46 -28q-27 -23 -32 -31q-33 -55 -33 -131q0 -74 33 -74q34 0 65 120q26 97 25 125z" />
    <glyph glyph-name="G" unicode="G" horiz-adv-x="619" 
d="M233 478q-16 -2 -58 -27q-86 -53 -86 -147q0 -55 26 -111q27 -61 72 -87q22 52 46 372zM422 210l187 13q-37 -31 -51.5 -38t-35.5 -6q-11 -95 -77 -147q-58 -46 -141 -46q-20 0 -39 3t-67 17q-13 -20 -48 -58l-10 3l21 74q-69 42 -112 101q-49 67 -49 141q0 188 232 240
q-6 64 -6 66q-9 46 -32 46q-7 0 -16 -4q0 3 -7 4q45 58 91 72q26 -27 31 -116q1 -19 0 -126q31 34 119 63q82 28 134 28q48 0 25 1q13 -1 15 -14q-31 -61 -112 -89l16 28q-7 8 -19 8q-52 0 -100 -15q-61 -19 -81 -55q-2 -63 -22 -165q-18 -96 -38 -157q17 -16 46 -26
q17 -3 33 -3q104 0 184 124l-215 -15q85 44 144 48z" />
    <glyph glyph-name="H" unicode="H" horiz-adv-x="515" 
d="M144 -76q-57 0 -107 30q48 39 60 39q4 0 19 -9t19 -11q21 -7 57 -7q88 0 139 52.5t51 140.5q0 180 -152 180q-98 0 -139 -97q-10 -14 -27 -44q-22 -43 -62 -48q21 61 34 185q11 106 11 187q0 66 -23 73q15 26 92 86l-2 -191q0 -52 -7 -98q-4 -25 -12 -73q31 37 85 62.5
t99 25.5q86 0 137.5 -54t51.5 -141q0 -114 -107 -203q-101 -85 -217 -85zM140 146q-3 22 -10.5 29t-27.5 5q-19 -1 -27 -1q47 61 106 61q27 0 47 -20q-28 -25 -88 -74z" />
    <glyph glyph-name="I" unicode="I" horiz-adv-x="494" 
d="M462 554l-40 -40q-18 -22 -18 -54q0 -36 18 -112t18 -116q0 -171 -262 -257q-20 -42 -45 -91q-4 -6 -21 -14q10 31 27 92q42 168 53 221q24 121 24 226v89q-5 -3 -27 -3q-194 0 -206 40q65 43 71 43q3 0 21 -10.5t23 -11.5q34 -10 118 -10q0 54 -2 62q-1 5 -9.5 17
t-8.5 19q0 27 49 59q7 -7 7 -59q0 -19 5 -98q136 5 205 8zM376 515q-25 -4 -75 -10q-25 -1 -51 -7q1 -66 -4 -194q42 24 53 24q23 0 28 -6q-25 -44 -44 -66l-23 13q-4 0 -8.5 5t-5.5 5q-2 0 -3 -2q-20 -129 -44 -223q19 -13 46 -13q118 0 118 144q0 39 -27 192q-6 29 -6 24
q0 26 13.5 62t32.5 52z" />
    <glyph glyph-name="J" unicode="J" horiz-adv-x="588" 
d="M551 549q-39 -36 -42 -41q-12 -18 -12 -59q0 -1 8 -58q8 -42 15 -84q9 -50 9 -86q0 -75 -53 -137q-49 -56 -124 -83q-15 -5 -38 -6q-29 0 -39 -2q-5 0 -24 -52q-7 -20 -26 -46q-2 -3 -23 -13l37 118q-39 -4 -134 18q-81 20 -106 32q27 13 65 44q23 -12 50 -20
q63 -21 134 -22q6 19 15 53q38 182 38 341v23q-1 16 -1 24q5 0 -33 0q-46 0 -109 7q-86 11 -95 29q2 10 33.5 28.5t41.5 18.5q-1 0 20 -12q34 -20 115 -20q25 0 27 1l1 7q2 7 1 19q-2 16 -2 20.5t-12.5 14.5t-12.5 14q0 15 68 84q-1 -22 0 -62v-62q0 -40 0 -38q2 -1 41 -1
q6 0 167 8zM478 508q-34 -12 -85 -14q-46 -2 -50 -4l-3 -184q56 23 52 23q28 0 28 -11l-22 -34q-17 -26 -23 -26q-5 0 -7 5.5t-7 5.5q-23 0 -30 -9q-5 -32 -15 -94q-14 -71 -28 -121q7 -6 58 -6q60 0 85 54q5 13 24 104l-18 110q-14 84 -14 105q0 20 18.5 51t36.5 45z" />
    <glyph glyph-name="K" unicode="K" horiz-adv-x="686" 
d="M672 545l-255 -239q14 -25 41 -77l38 -98q31 -70 58 -70q10 0 46 21l46 28q-7 -29 -61.5 -73.5t-83.5 -44.5q-39 0 -98 113q-5 11 -27 66q-16 39 -34 62l-11 -16q-5 -33 -3 -88q1 -63 -1 -87q-51 -50 -59 -50q-3 0 -22.5 12.5t-55.5 10.5q-7 -1 -22.5 -4.5t-21.5 -3.5
q-2 0 -2 6q0 -2 18 30q22 36 35 75q20 56 23 114q1 67 6 147l-28 250q-43 -5 -91.5 -64t-48.5 -97q0 -11 16 -60q-26 -21 -52 -21q-29 0 -29 55q0 83 94 155q56 42 168 92q1 -9 2 -19q5 -11 12 -117q6 -95 6 -125q0 -124 -3 -172q-8 -100 -35 -169q8 -4 56 -12q9 119 17 238
q20 130 104 211q19 19 37 19q17 0 47.5 -4.5t47.5 -4.5q38 0 53 1q10 1 36 6q22 4 37 4zM521 457q-14 1 -49 4q-31 4 -48 4q-20 0 -28 -11q-36 -51 -47 -105l-3 -55q99 70 175 163z" />
    <glyph glyph-name="L" unicode="L" horiz-adv-x="465" 
d="M542 561q0 -58 -43 -113q-38 -48 -94 -78q-17 -10 -43 -21q-2 0 -5 3t-5 3q3 8 32 30q33 24 49 48q25 38 25 91q0 36 -24 67t-59 31q-98 0 -141 -115q-16 -41 -33 -120q-18 -84 -18 -124q3 -2 9 -2q11 0 39.5 8t30.5 8q-11 -19 -42 -40q-27 -17 -41 -20q-8 -1 -13 -35
l-8 -48q-5 -16 -56 -128q181 53 253 53q45 0 81 -14q-5 -9 -35.5 -38.5t-38.5 -29.5q-11 0 -29 5q-21 7 -29 7q-24 3 -47 3q-114 0 -247 -80h-12q85 108 110 308q-68 0 -66 0q-41 2 -66 17q3 16 29.5 35t42.5 19q4 0 14.5 -16.5t29.5 -16.5q18 0 19 2q10 42 29 118
q33 125 97 201q79 94 192 94q50 0 81.5 -31t31.5 -81z" />
    <glyph glyph-name="M" unicode="M" horiz-adv-x="980" 
d="M956 86q-36 -36 -100 -76q-68 -42 -90 -36q-23 19 -36 80q-10 47 -10 91q0 60 15 154q19 111 44 156q-20 2 -55 11t-37 9q-27 0 -49 -43q-6 -12 -25 -63q-22 -62 -60 -317l-7 -14q-25 -20 -74 -58q-14 22 -29 28q-8 3 -31 3q-30 0 -74 -15q8 7 17 17q85 90 85 227
q0 46 -9 100q-15 87 -111 122q-51 -175 -93 -263q-26 -58 -107 -189q5 -5 7 -5q3 0 11 1.5t13 1.5q-32 -48 -106 -87q-11 0 -12 0.5t-1 11.5q0 4 34 66q41 74 53 100q23 56 68 168q24 57 67 213q-8 8 -106 14q-101 6 -137 35q36 41 72 41q4 0 25.5 -7.5t30.5 -9.5
q67 -12 125 -12q14 27 14 59q0 21 -11 21q-4 0 -10 -2v12q0 17 43 39q36 18 51 20q11 -2 11 -20q0 -21 -27 -138q9 -2 57 -25q127 -58 127 -227q0 -116 -49 -193l-5 -9q17 -6 42 -6q10 0 15 6q14 159 47 281q7 23 25 69q18 34 44 71q40 57 58 57q3 0 5 -2q19 -12 58 -22
q31 -8 41 -8q16 0 53 8q42 8 50 16h13l-5 -13q-69 -64 -86 -152l-18 -152q0 -3 -1 -29t-1 -46q0 -114 38 -114q22 0 51 20.5t58 41.5q11 5 11 -6q0 -6 -7 -12z" />
    <glyph glyph-name="N" unicode="N" horiz-adv-x="766" 
d="M747 607q7 -2 7 -9q-1 -6 -5 -9q-85 -59 -115 -148q-17 -49 -23 -154q5 -114 8 -129q10 -73 47 -118q3 -1 5 -1q6 0 17 8.5t18 9.5l5 -10q-50 -56 -95 -91q-6 -2 -18 4q-71 109 -71 265q0 180 95 281q-2 2 -11.5 -1.5t-13 -3.5t-26.5 -6t-36 -7q-28 -2 -106 -8
q-68 -73 -84 -156l-7 -41q47 32 74 32q42 0 57 -13q-3 -11 -53 -55q-38 15 -50 15q-31 0 -33 -10q-10 -52 -6 -208q0 -15 -38 -40t-45 -21q-22 10 -65 10q-34 0 -53 -2q79 98 81 245q1 150 -27 277q-1 0 -4.5 2.5t-6.5 1.5q-44 -8 -78 -79q-27 -56 -29 -92q-7 -3 -62 -11
q6 21 29 70q61 103 199 182q14 0 19 -11l15 -252q0 -115 -7 -174q-4 -25 -10 -41q-9 -20 -17 -39h59q2 83 3 166q7 94 41 159q42 83 139 150q12 8 26 10h38q41 2 116 17q10 1 97 35z" />
    <glyph glyph-name="O" unicode="O" horiz-adv-x="764" 
d="M640 269q0 43 -23 77t-47 68q-9 13 -48 95q-42 -43 -60 -76q-22 -39 -26 -92q-5 -70 -23 -145q-13 -52 -43 -155q26 -6 43 -6q102 0 164.5 65.5t62.5 168.5zM724 300q0 -68 -50 -138q-42 -59 -107 -105q-118 -83 -214 -93q-52 -95 -85 -92q13 23 27 47q15 28 18 49
q-102 8 -196 74q-114 81 -114 199q0 87 67 167q72 87 162 84q-1 -8 -39 -34q-47 -31 -70 -60q-38 -46 -38 -108q0 -89 84 -156q64 -52 165 -83q6 15 10 39q43 271 43 460q0 12 -3 58q-4 50 -6 51q-12 1 -25.5 -7t-26.5 -16q1 22 53 63q42 33 74 49q3 -30 3 -118
q0 -60 -9 -164q108 121 157 134q0 -44 60 -149t60 -151z" />
    <glyph glyph-name="P" unicode="P" horiz-adv-x="592" 
d="M542 251q0 -101 -100 -177q-92 -71 -196 -71q-59 0 -90 16q-6 -26 -22 -76q-24 -58 -65 -119q-11 -1 -11 8q0 -1 11 37q34 116 34 157q0 3 -1 5q-67 36 -96 62l67 48q8 -8 27 -19q5 32 5 73q0 191 -7 269h-31q38 59 78 90q13 -13 21 -91q6 -56 6 -100q1 -166 -10 -262
q16 -12 76 -28q55 -14 70 -14q11 0 35 5q70 14 100.5 46.5t30.5 101.5q0 36 -17 73q-17 33 -35 66l-50 100q-27 57 -37 105q-2 9 -7 25q-19 -19 -58 -118t-39 -126q0 -39 0 -36q50 41 82 41q16 0 32 -10q-5 -10 -26.5 -34t-28.5 -24q-4 0 -11 3t-11 3q-36 0 -44 -24
q-6 -28 -13 -56q-11 25 -11 80q0 124 48 231q53 117 149 181v-9q-4 -90 63 -241q26 -45 53 -90q29 -51 29 -101z" />
    <glyph glyph-name="Q" unicode="Q" horiz-adv-x="683" 
d="M638 286q0 -111 -116 -197q-102 -76 -221 -90q-18 -14 -18 -27q0 -5 43.5 -24t103.5 -19q33 0 82 22q1 -5 -5 -14q-72 -57 -142 -57q-25 0 -80 14q-60 15 -73 27q23 25 62 79q-9 5 -29 9q-28 4 -32 6q-87 24 -147 87q-67 69 -67 154q0 13 4 39q8 51 62 99t104 47
q-52 -30 -72.5 -65t-20.5 -93q0 -76 71 -141q64 -58 144 -75q3 4 6 25q26 144 37 338q0 11 -4.5 59.5t-7.5 55.5q-1 2 -7.5 11t-6.5 12q0 10 22.5 40.5t31.5 30.5q19 0 19 -69v-104q45 52 151 99q4 -23 17 -66q29 -51 58 -101q31 -60 31 -112zM558 241q0 61 -36 132l-64 124
q-48 -21 -67 -64q-15 -33 -17 -94q-3 -113 -50 -281q6 -1 18 -2t18 -1q84 0 141 51.5t57 134.5z" />
    <glyph glyph-name="R" unicode="R" horiz-adv-x="534" 
d="M496 89v-2q0 -21 -50.5 -65t-72.5 -44q-12 0 -85 75q-81 83 -91.5 92t-27.5 19v-72q-4 -42 -23 -67q-28 -35 -39 -35q-25 0 -59 5q-47 8 -47 20l1 4q57 83 58 201q-18 10 -55 21q38 25 61 45v7q1 60 -7 142q-11 101 -27 101q-2 0 -10 -4t-12 -4q-3 0 -4 5q79 78 90 78
q7 0 6 -8q14 -50 14 -83v-240q15 -9 19 -9t4 1q6 30 16 77q26 84 76 139q61 65 140 65q33 0 68.5 -23t45.5 -53q9 -26 9 -54q0 -77 -59.5 -129.5t-137.5 -52.5q-9 0 -17 8q65 22 94 45q45 34 45 87q0 51 -28 80.5t-79 29.5q-107 0 -135 -156q-8 -45 -8 -49q0 -33 37 -66
q33 -23 65 -47q6 -5 83 -77q70 -65 73 -65q9 0 35 25q17 17 34 33zM144 147q0 30 -2 39q-1 3 -1 1l-42 20q-3 -29 -36 -138q12 -15 51 -15l6 1q24 29 24 92z" />
    <glyph glyph-name="S" unicode="S" horiz-adv-x="613" 
d="M560 246q0 -44 -33 -102q-29 -52 -69 -90q-72 -67 -149 -67q-45 0 -120.5 29t-103.5 29q-32 0 -54 -20q-5 -5 -39 -49v10q0 50 48 93t98 43q34 0 110.5 -30t116.5 -30q60 0 96 34.5t36 95.5q0 26 -12 50q-16 32 -45 27q-43 -1 -121 -25q-69 -21 -107 -17q-52 6 -69 16
q-26 14 -26 53q1 83 68 154q59 61 155 100q34 14 88 14q17 0 51 -11q41 -14 41 -28q0 -4 -22 -28t-37 -36q-42 43 -106 43q-55 0 -109 -34q-63 -39 -63 -95q0 -22 13 -42q15 -25 37 -25q30 0 97.5 22t107.5 22q56 0 89 -30t33 -76z" />
    <glyph glyph-name="T" unicode="T" horiz-adv-x="798" 
d="M729 473q-7 0 -40 11t-43 12q-30 6 -61 12q-20 4 -61 4q-126 0 -161 -4q-70 -6 -155 -36q-53 -18 -93 -44q-59 -38 -59 -76q0 -53 49 -82q43 -24 99 -21q-20 -22 -28 -22q-55 0 -102 35q-51 39 -51 92q0 28 18 52q2 1 38 40q63 64 175.5 102t239.5 38q175 0 309 -36
q1 0 1 -3q0 -13 -30.5 -43.5t-44.5 -30.5zM674 40q-57 -67 -133 -67q-121 0 -197.5 74t-76.5 194q0 88 71 166q63 69 154 102q1 -1 0 -14q-1 -5 -36 -30q-43 -29 -65 -59q-35 -46 -35 -103q0 -122 69 -194.5t191 -72.5q16 0 58 4z" />
    <glyph glyph-name="U" unicode="U" horiz-adv-x="739" 
d="M710 136q0 -15 1 -33q2 -4 -59 -66q-64 -64 -80 -64q-18 0 -44 42q-11 16 -18 44l-12 46q-84 -101 -146 -114q-38 -8 -39 -8q-17 0 -88 15q-89 19 -96 20q43 52 69.5 128.5t27.5 145.5q2 124 -21 210q-140 -87 -140 -211q0 -7 3 -18q4 -14 5 -17q-31 14 -50 23
q-5 1 -14 5q-5 4 -5 21q0 69 102 160q50 45 163 122q18 -10 28 -92q7 -57 7 -110q0 -93 -28 -191q-12 -40 -53 -104q77 -35 118 -35q99 0 141 76q17 32 17 175q0 148 -10 174q-5 6 -12 18q21 21 87 67q16 3 16 -22v-407q1 -22 13 -50q15 -31 33 -38q24 15 45 41q29 37 39 47
z" />
    <glyph glyph-name="V" unicode="V" horiz-adv-x="820" 
d="M773 284q0 -81 -115 -188.5t-197 -107.5q-41 0 -109 17q-83 19 -109 23v11q22 18 45 48q27 35 30 57h-10q-125 -1 -213 55q-101 65 -101 184q0 69 74 128q70 56 141 56q117 0 181 -129q50 68 132 124q78 52 163 80v-22q0 -29 2 -51q3 -37 46 -132q40 -89 40 -153z
M683 267q0 57 -42 154q-43 102 -46 149l-17 -10q-29 -4 -67 -37q-32 -26 -54 -56q-25 -35 -33 -80l-8 -86q-3 -20 -6 -59l-11 -31q23 0 54 10q42 12 54 14l1 -3q-16 -24 -64 -44q-55 -23 -58 -27q-7 -6 -17 -31.5t-23 -37.5q15 -14 86 -28q62 -11 93 -11q69 0 116 74
q42 66 42 140zM337 244q0 98 -47 172q-54 87 -146 87q-79 0 -79 -81q0 -75 50 -129q26 -28 86.5 -59.5t94.5 -31.5q7 0 20.5 -1t18.5 -1q2 47 2 44z" />
    <glyph glyph-name="W" unicode="W" horiz-adv-x="885" 
d="M819 230q0 -74 -70 -136q-58 -52 -142 -78q-65 -20 -81 -20q-27 0 -85 16q-69 19 -69 38q0 8 25 30t31 22q-4 0 56 -24.5t104 -24.5q67 0 108 35q45 37 45 103q0 44 -26 120q-28 83 -31 112q-3 31 0 70q3 7 5 21v20q3 3 -4 3q-17 0 -58 -34q-34 -27 -46 -41
q-15 -19 -30 -45q-11 -20 -16 -52q-3 -25 -7 -51q-4 -8 -10 -27q-24 -98 -138 -182q-99 -72 -214 -102q-19 -3 -58 -13l-38 4q73 91 73 203q0 109 -69 277q-17 41 -26 41q-4 0 -16 -6.5t-16 -7.5q19 37 32 53q23 31 51 43q33 -31 76 -143q4 -18 18 -53q128 154 206 154
q39 0 80 -43q11 -11 40 -69q68 81 253 160l14 -4q-20 -38 -23 -54q-1 -6 -1 -39q0 -40 28.5 -138.5t28.5 -137.5zM451 337q0 50 -22 96q-30 64 -87 64q-42 0 -88 -74q-41 -68 -41 -112v-28q9 6 35 16q34 14 50 14q31 0 41 -19q-45 -47 -60 -47q-4 0 -14 6t-14 6
q-25 0 -38 -14q-6 -6 -6 -27q-2 -65 -41 -132q-8 -11 -15.5 -22t-7.5 -25h40q13 -1 68 23q88 37 144 115.5t56 159.5z" />
    <glyph glyph-name="X" unicode="X" horiz-adv-x="802" 
d="M786 559q0 -23 -39 -63q-36 -36 -62 -47h-11q11 20 22 41t11 42q0 41 -44 41q-71 0 -123 -104q-45 -88 -45 -170q1 -2 54 -3q68 0 128 -17l-15 -16q-9 -10 -31 -25t-33 -15q-10 0 -35.5 10.5t-41.5 10.5q-15 0 -28 -8q0 -47 35 -111q39 -72 81 -72q19 0 46 32
q36 41 45 47l7 -2q-3 -28 -60.5 -82.5t-85.5 -54.5q-59 0 -124 115q-62 -59 -97 -82q-62 -42 -117 -42q-18 0 -51 12q-39 14 -39 27q0 17 64 49q1 -1 27 -19q19 -15 65 -15q61 0 98 61q30 52 30 118q0 17 -10 24l-113 -27q14 22 50 41l58 30q-61 128 -232 128q-33 0 -82 -13
q-67 -18 -80 -20l-3 5q83 82 216 82q123 0 219 -78q6 7 13 23q32 76 109 139q82 67 160 70q64 2 64 -62z" />
    <glyph glyph-name="Y" unicode="Y" horiz-adv-x="657" 
d="M611 385q0 -96 -79 -221q-78 -120 -189 -203q-120 -90 -221 -90q-55 0 -85 6q-4 7 -17 24q78 -11 128 -2q16 3 90 40q81 40 81 54q0 3 -11 23q-14 24 -18 32q-52 111 -98 241q-20 55 -62 174q-4 11 -15 11q-5 0 -13 -2q-47 -22 -47 -110q0 -48 21 -63l8 -10
q-35 -16 -51 -16q-12 0 -20 27q-7 21 -7 36q0 63 70 145q64 75 101 82q18 -25 36 -69q24 -59 32 -73q37 59 81 99q57 50 107 50h40q67 -6 106 -71q32 -53 32 -114zM529 355q0 61 -35 106q-38 49 -99 49q-115 0 -115 -164q0 -50 44 -159q33 -83 63 -136q62 62 102 147.5
t40 156.5z" />
    <glyph glyph-name="Z" unicode="Z" horiz-adv-x="485" 
d="M441 137q0 -30 -19 -67q-33 -63 -112.5 -119t-132.5 -56q-41 0 -83 15q-50 18 -77 51q-12 13 -20 31l-8 18q27 24 71 58q2 -8 6 -19q4 -48 58 -74q44 -21 104 -21q23 0 41 4q37 7 69 54q30 44 30 80q0 47 -30.5 77.5t-72.5 30.5q-59 0 -107 -25q-2 6 -2 8
q117 163 178 300q-128 -13 -183 -13q-94 0 -118 18q7 18 65 77q26 -23 92 -19l243 15q-4 -9 -34 -60q-97 -162 -143 -230q2 -1 8 0q9 2 12 2h24h25q50 0 83 -40t33 -96z" />
    <glyph glyph-name="bracketleft" unicode="[" horiz-adv-x="155" 
d="M100 739v-28h-58v-742h58v-28h-98v797z" />
    <glyph glyph-name="backslash" unicode="\" horiz-adv-x="411" 
d="M48 675h-40l339 -671h41z" />
    <glyph glyph-name="bracketright" unicode="]" horiz-adv-x="155" 
d="M2 739v-28h58v-742h-58v-29l98 1v797z" />
    <glyph glyph-name="asciicircum" unicode="^" horiz-adv-x="373" 
d="M49 621l3 -11l122 54l121 -54l2 11q-92 73 -98.5 78.5t-22.5 22.5l-2 -1l-2 1l-1 -3z" />
    <glyph glyph-name="underscore" unicode="_" horiz-adv-x="613" 
d="M-8 -96h623v-45h-623v45z" />
    <glyph glyph-name="grave" unicode="`" horiz-adv-x="545" 
d="M194 696q174 -91 173 -94q-4 -20 -6 -17q-97 28 -199 58q-15 5 -15 22q0 13 9.5 24t22.5 11q8 0 15 -4z" />
    <glyph glyph-name="a" unicode="a" horiz-adv-x="404" 
d="M321 -1q-18 0 -47 47t-37 47l-61.5 -47t-80.5 -47q-35 0 -64 74q-25 63 -25 107q0 126 103 182q90 50 105 50q17 0 65.5 -9.5t62.5 -16.5q-6 -46 -16 -123q-3 -19 -3 -42q0 -58 14 -99q17 -50 47 -50q9 0 24 11q10 10 21 19q-19 -28 -49 -60q-41 -43 -59 -43zM143 359
q-20 -18 -35 -72q-13 -47 -13 -81q0 -29 23 -75q25 -52 50 -52q49 0 64 74q1 4 9 112q3 41 10 69q-21 10 -42.5 19t-40.5 9q-12 0 -25 -3z" />
    <glyph glyph-name="b" unicode="b" horiz-adv-x="361" 
d="M187 483l4 -1q-3 8 -3 13t4 8q45 37 80 95q39 65 40 117q-24 18 -100 18q-61 0 -99 -73q-30 -59 -31 -128q-13 -82 -2 -175q0 -20 7 -24l46 54q38 37 85 37q50 0 73 -73q15 -49 15 -113q0 -17 -1 -27q-5 -66 -69 -137q-67 -74 -131 -74q-39 0 -71 121q-27 100 -27 159
q0 11 -1.5 34t-1.5 34q0 170 63 295q80 157 233 157q42 0 94 -23q-36 -176 -207 -294zM154 360q-19 0 -41.5 -26.5t-22.5 -45.5q0 -37 31 -134q34 -106 58 -106q18 0 34 73q13 60 13 91q0 36 -19 87q-24 61 -53 61z" />
    <glyph glyph-name="c" unicode="c" horiz-adv-x="314" 
d="M136 -17q-53 2 -97 89q-38 75 -38 128q0 139 97 177q4 2 31 20q20 13 38 13q5 0 52 -18q55 -21 59 -22q-7 -10 -35.5 -28t-39.5 -19q-23 10 -47 20q-30 11 -48 11q-9 -14 -19.5 -52.5t-10.5 -58.5q0 -43 24 -111q7 -20 30 -49q29 -37 50 -39q12 -1 51 28q34 26 47 41
l9 -23q0 -8 -71 -57.5t-82 -49.5z" />
    <glyph glyph-name="d" unicode="d" horiz-adv-x="354" 
d="M309 561q27 29 27 48q0 8 -12.5 15.5t-20.5 7.5q-39 0 -93 -17q-60 -18 -81 -42q186 -155 186 -332q0 -73 -35 -122q-26 -36 -97 -85q-59 -39 -60 -39q-39 0 -81 78q-38 71 -38 112q0 82 36 132q31 43 110 89q1 22 -42 65q-35 34 -63 51q39 62 146 114q103 49 180 49
q57 0 57 -21q0 -32 -119 -103zM170 388q-39 -13 -63 -60q-22 -41 -22 -86q0 -40 29 -106q34 -74 68 -74q19 0 37 31q16 28 16 49v46q0 134 -65 200z" />
    <glyph glyph-name="e" unicode="e" horiz-adv-x="302" 
d="M136 -5q-53 2 -96 94q-37 80 -37 137q0 27 18 66.5t61 82.5q50 49 86 49q21 0 115 -44q-35 -56 -116 -117q-71 -53 -71 -58q0 -30 30 -85q32 -60 59 -60q23 0 96 58l8 -16q-23 -18 -81 -59q-67 -48 -72 -48zM112 370q-29 -29 -29 -99q0 -21 4 -36q82 44 113 102
q-44 27 -88 33z" />
    <glyph glyph-name="f" unicode="f" horiz-adv-x="231" 
d="M319 625l-1 2q2 12 12 27q-9 18 -60 18q-108 0 -123 -90q-3 -85 -6 -171q7 -7 89 -4q-18 -35 -93 -73l1 -200q0 -152 -9 -191q-17 -83 -96 -170q7 13 19 40q13 31 13 108q0 72 -2 210q-1 149 -1 211l-65 -1q22 27 31 36q15 16 37 29q3 2 4 10q0 6 -1.5 17t-1.5 12
q0 14 2 40t2 40q0 22 2 33q7 28 63 77q48 41 84 59q78 40 146 40q43 0 59 -6v-8q1 -10 -46 -50q-42 -36 -59 -45z" />
    <glyph glyph-name="g" unicode="g" horiz-adv-x="362" 
d="M156 -314q29 54 49 125q22 77 20 133l-3 117q0 11 -2 28q-1 7 -4 10q-25 -30 -50 -59q-39 -45 -65 -45q-45 0 -75 93q-23 74 -23 133q0 77 64 130q54 46 137 63h4q32 0 64 -102q28 -87 28 -133v-120q0 -88 -39 -204q-45 -135 -105 -169zM131 365q-21 0 -36 -64
q-12 -50 -12 -84q0 -35 17 -87q21 -63 47 -63q14 0 42.5 33.5t26.5 53.5q-4 47 -28 120q-29 91 -57 91z" />
    <glyph glyph-name="h" unicode="h" horiz-adv-x="362" 
d="M202 426q65 77 77 92q47 64 47 104q0 49 -100 44q-79 -4 -109.5 -39.5t-30.5 -114.5q0 -34 -3 -103q-2 -65 -2 -107v-135q10 10 96 133q66 93 105 108q33 -64 33 -233q0 -89 -54 -174t-136 -114q72 58 93 144q12 50 12 173q0 18 -15 100q-49 -53 -79 -127
q-32 -82 -57 -114q-30 -41 -65 -72q0 154 -1 309q1 252 12 270q35 65 124 105.5t188 40.5q21 0 42 -8q28 -10 28 -28q0 -1 -4 -13q-48 -161 -201 -241z" />
    <glyph glyph-name="i" unicode="i" horiz-adv-x="189" 
d="M188 116q-5 -18 -43 -64q-41 -49 -55 -49q-68 0 -68 192q0 16 2.5 51.5t2.5 51.5q0 30 -16 30q-5 0 -13 -1q11 17 52 44q36 23 61 33q1 -3 0 -17t-8 -60q-6 -37 -6 -59v-67q0 -32 11 -72q14 -52 35 -59q15 9 25.5 24.5t19.5 21.5zM70 457l-30 -12q15 44 42 79
q34 44 66 44q17 0 20 -19q-3 -19 -43 -53q-35 -31 -55 -39z" />
    <glyph glyph-name="j" unicode="j" horiz-adv-x="176" 
d="M0 -345q49 136 49 358v79q-1 53 -1 80q0 17 -14 238q7 4 26 3q40 -2 30 -2q13 0 16 -6q9 -15 16 -104q7 -77 7 -113q0 -85 0 -84q-3 -83 -7 -167q-6 -92 -28 -151q-29 -77 -94 -131zM70 497l-30 -12q15 44 42 79q34 44 66 44q17 0 20 -19q-3 -19 -43 -53q-35 -31 -55 -39
z" />
    <glyph glyph-name="k" unicode="k" horiz-adv-x="340" 
d="M188 452q40 43 81 86q51 58 51 96q0 29 -78 29q-85 0 -117 -25q-36 -27 -43 -107v-73v-279q30 29 102 120q68 85 117 127l13 -11q-29 -28 -79 -94q-53 -70 -53 -83q0 -14 60.5 -97.5t71.5 -83.5q7 0 34.5 24.5t40.5 27.5q-16 -27 -63 -68q-51 -46 -75 -46q-15 0 -65 80
t-62 81q-40 -64 -103 -150l-13 -19l-1 347q0 139 0 138q5 101 30 128q51 55 132 85q76 29 155 29q24 0 44 -8q27 -12 25 -32q-3 -40 -79 -128q-80 -94 -126 -94z" />
    <glyph glyph-name="l" unicode="l" horiz-adv-x="227" 
d="M169 424q39 46 78 91q50 64 52 102q1 19 -44 36q-35 13 -61 14q-92 5 -105 -253q-5 -91 7 -197q16 -152 61 -155q7 0 38 30q19 20 38 39q-6 -31 -60.5 -83t-84.5 -50q-24 1 -51 87q-38 115 -38 226q0 34 3 85q7 145 47 187q65 67 120 97q70 39 148 35q19 -1 69 -27
q-82 -202 -217 -264z" />
    <glyph glyph-name="m" unicode="m" horiz-adv-x="600" 
d="M559 426q1 -1 -3 -7.5t-4 -8t-19 -35t-22 -43.5q-12 -42 -12 -98q0 -36 18 -100q21 -75 44 -75q6 2 19.5 18t19.5 20q-10 -21 -41 -59q-35 -43 -52 -43q-47 0 -74 81q-19 61 -19 124q0 30 17 76q26 67 28 73q-37 6 -47 4q-63 -8 -85 -107q-11 -50 -13 -153q0 -25 -3 -56
q-13 -23 -82 -38q-6 1 -6 10q0 35 4 103.5t4 103.5q0 74 -27 124q-92 -73 -92 -207q0 -15 2 -46.5t2 -46.5q0 -5 -36 -23.5t-42 -18.5q-5 0 -5 24l1 317q0 13 -13 13q-2 0 -6 -4t-8 -4t-9 5q13 18 45 43q37 29 52 29q20 0 26 -56q1 -12 2 -73v-7q5 5 71 78q45 50 78 63
q18 -22 27 -60q10 -48 17 -63l64 78q36 39 89 39q6 0 24 -1q14 -1 25 0q18 1 41 7z" />
    <glyph glyph-name="n" unicode="n" horiz-adv-x="423" 
d="M116 40q0 -5 -36 -23.5t-42 -18.5q-5 0 -5 24l1 317q0 13 -13 13q-2 0 -6 -4t-8 -4t-9 5q13 18 45 43q37 29 52 29q30 0 29 -122v3q37 59 57 78q41 40 98 40q6 0 24 -1q14 -1 25 0q18 1 41 7q1 -1 -3 -7.5t-4 -8t-19 -35t-22 -43.5q-5 -19 -8 -49l-4 -49q-1 -10 -1 -21
q0 -51 19 -100q19 -52 42 -52q14 14 41 36q-10 -21 -41 -59q-35 -43 -52 -43q-47 0 -74 81q-19 61 -19 124q0 31 20 77q17 35 33 70q-50 7 -55 6q-100 -13 -104 -249q0 -16 -1 -32.5t-1 -31.5z" />
    <glyph glyph-name="o" unicode="o" horiz-adv-x="385" 
d="M152 -17q-23 0 -77 55q-51 52 -60 78q-15 47 -16 80q-3 79 54 137q33 34 126 88h5q14 1 54 -21t72.5 -68t34.5 -91q1 -31 -2 -53q-10 -77 -102 -148q-75 -56 -89 -57zM78 261q5 -79 38 -131q15 -25 41 -48q32 -28 54 -27q31 1 48 38q14 30 13 62q-2 59 -44 126
q-48 75 -101 73q-29 -1 -41 -35q-10 -25 -8 -58z" />
    <glyph glyph-name="p" unicode="p" horiz-adv-x="390" 
d="M-7 -347q49 82 63 216q7 68 7 229q0 234 -65 306q13 9 28.5 11.5t28.5 9.5q25 -5 38 -25q10 -14 20 -29q29 41 106 57q48 11 93 -84q38 -79 38 -124q0 -62 -41.5 -127t-96.5 -90q-13 -6 -26 -6q-12 0 -26 6t-15 6q-3 0 -3 -6q-2 -96 -34 -189q-42 -122 -115 -161z
M179 379q-48 -4 -48 -143q0 -48 20 -111q24 -79 60 -79q21 0 42 30t21 53q0 38 -3 67q-5 37 -34 105q-34 81 -58 78z" />
    <glyph glyph-name="q" unicode="q" horiz-adv-x="363" 
d="M229 75q-31 -34 -71 -60q-43 -27 -67 -27q-38 0 -69 85q-25 71 -25 120q0 86 30.5 130.5t111.5 78.5q52 21 77 21q19 0 45 -33q22 -29 29 -51q21 -70 21 -269q0 -38 -2 -114.5t-2 -114.5q0 -137 25 -195q-44 22 -74 82q-28 56 -28 109zM136 379q-30 0 -45 -49
q-10 -34 -10 -76q0 -56 18 -121q22 -84 57 -84q19 0 47.5 31.5t28.5 51.5q0 77 -14 140q-24 108 -82 107z" />
    <glyph glyph-name="r" unicode="r" horiz-adv-x="259" 
d="M7 346q14 29 83 68q15 -2 16 -21q1 -24 7 -30q14 4 42 29q25 22 36 22q16 0 40.5 -18.5t29.5 -34.5q-53 -45 -60 -45h-1q-28 36 -56 36q-43 0 -43 -52q0 -6 1 -19v-20l1 -131q0 -24 9 -51q12 -33 31 -33q6 0 30 16q-17 -21 -45 -45q-36 -32 -51 -32q-48 0 -48 103v223
q1 19 -22 35z" />
    <glyph glyph-name="s" unicode="s" horiz-adv-x="405" 
d="M167 -13q-19 0 -40 8q-33 11 -38 13q-18 4 -51 -16t-50 -42l8 30q11 40 49 71t77 31q23 0 51.5 -14.5t50.5 -14.5q85 0 85 82q0 17 -11 39q-12 26 -28 26q-32 0 -93 -19t-93 -19q-30 0 -49.5 17.5t-19.5 47.5q0 66 51 119q42 44 112 71q17 6 51 6q103 0 103 -24
q0 -16 -52 -59q-34 35 -79 35q-46 0 -80 -14q-45 -18 -45 -54q0 -15 10 -37q11 -26 24 -26q26 0 76 16t77 16q42 0 70.5 -23t28.5 -64q0 -66 -64.5 -134t-130.5 -68z" />
    <glyph glyph-name="t" unicode="t" horiz-adv-x="241" 
d="M-19 348q8 17 35 36q23 17 44 25q51 50 89 75q1 2 3 2q3 0 3 -11t-6 -32t-6 -32q15 -12 56 -12q13 0 40.5 8t40.5 8h1q-9 -23 -65 -43l-80 -24q-7 -3 -14 -57q-5 -43 -5 -64q0 -30 14 -90q17 -71 34 -71q6 0 27 16q26 19 29 21q-23 -29 -57 -62q-46 -46 -64 -46
q-30 0 -48 94q-13 68 -13 122q0 20 5.5 61.5t5.5 61.5t-69 14z" />
    <glyph glyph-name="u" unicode="u" horiz-adv-x="381" 
d="M381 102q-12 -25 -39 -60q-33 -43 -50 -43q-15 0 -36.5 44t-26.5 77q-14 -40 -65 -86.5t-88 -46.5q-56 0 -56 221q0 20 1 61t1 62q0 13 -22 13l-24 -9q20 26 58.5 51t58.5 25q10 0 10 -42q0 -26 -2.5 -78t-2.5 -78q0 -151 42 -151q18 0 50 39t33 59l6 176q1 10 -14 10
q3 0 -21 -5q11 21 57 49q41 26 51 26q8 0 8 -15q0 -60 -6 -223q-2 -35 14 -71t36 -37q17 21 27 32z" />
    <glyph glyph-name="v" unicode="v" horiz-adv-x="418" 
d="M138 -4q-20 61 -41 122q-28 82 -47 113q-32 -51 -32 -98q0 -12 1 -35t2 -34q-15 19 -15 67q0 63 29 117q3 4 7 13q-2 8 -17 52q-13 40 -13 43q0 7 30 27t39 20q4 0 14 -19q11 -22 15 -26q20 23 59.5 39.5t69.5 16.5q54 0 97.5 -36t43.5 -90q0 -119 -242 -292zM171 368
q-17 0 -33 -9q-20 -10 -20 -26q0 -12 36 -114.5t45 -119.5q7 -12 10 -12q33 0 64 58q26 50 26 88q0 55 -36.5 95t-91.5 40z" />
    <glyph glyph-name="w" unicode="w" horiz-adv-x="561" 
d="M5 329q16 16 49 43q38 30 52 33q5 4 8 4q12 0 12 -59q0 -19 -1.5 -58t-1.5 -59q0 -165 47 -165q43 0 66 67q17 49 17 103q0 96 -11 104q-5 3 -15 2q77 69 93 69t16 -71q0 -23 -3.5 -68t-3.5 -68q0 -47 13 -84q18 -53 56 -53q27 0 44 98q12 71 12 124q0 46 -27 55
q79 67 97 67q17 0 16 -18v-14q-2 -87 -63 -225q-71 -158 -143 -158q-21 0 -51 53q-25 44 -33 74q-14 -26 -63 -74q-54 -54 -75 -54q-75 0 -75 313q0 26 -15 26q-2 0 -17 -7z" />
    <glyph glyph-name="x" unicode="x" horiz-adv-x="397" 
d="M373 89l4 1q2 -13 -50.5 -56.5t-67.5 -43.5q-21 0 -69 74q-45 70 -48 97q-3 1 -8 2q-19 -31 -39 -63q-45 -68 -87 -94q-5 6 -5 15q0 6 5 12q32 30 64 77q28 40 57 81q-30 64 -77 153q-10 13 -27 18q12 16 35 32t40 16q43 0 84 -136q27 54 65 93q49 51 96 51q25 0 25 -9
q0 -8 -23.5 -26t-30.5 -18q-6 0 -16.5 2t-15.5 2q-14 0 -51 -47t-37 -61q0 -25 53 -116q53 -94 73 -94q4 0 51 38z" />
    <glyph glyph-name="y" unicode="y" horiz-adv-x="394" 
d="M74 -331q-47 0 -81 17l-12 18q2 39 91 154.5t115 115.5q2 0 2 -3l6 -2q-118 -130 -133 -219q22 -26 63 -26q79 0 109 62q21 43 23 133q6 211 14 371q-151 -290 -201 -290q-22 0 -33 89q-7 58 -7 118q0 94 5 157q31 39 77 54q1 -4 1 -9q0 -10 -2.5 -30.5t-2.5 -30.5
q0 -20 -2 -60.5t-2 -61.5q0 -64 25 -129q79 93 143 226q10 24 35 70q16 23 29 23q3 0 10 -9l-11 -361l-9 -180q-3 -72 -93 -136q-84 -61 -159 -61z" />
    <glyph glyph-name="z" unicode="z" horiz-adv-x="301" 
d="M18 186h-1h-1v0q-8 4 -8 11q0 6 6 13q1 2 105 105q20 20 27 29q-14 5 -81 12q-57 6 -76 29q18 18 57 50q14 -11 88 -21l105 -9q6 0 6 -7q0 -12 -148 -160q81 -6 151 -40q14 -7 14 -22q0 -58 -75 -126q-64 -58 -128 -83q-28 -11 -60 -18q3 12 11.5 37.5t21.5 25.5
q7 0 19 -1.5t19 -1.5q38 0 74 45q29 36 42 80q-11 23 -31.5 25t-68.5 16q-43 12 -68 11z" />
    <glyph glyph-name="braceleft" unicode="{" horiz-adv-x="300" 
d="M134 307q81 -48 81 -170q0 -20 -2.5 -58t-2.5 -54q0 -49 15 -72q18 -30 64 -34v-19h-18q-71 0 -100 39q-22 30 -22 94q0 18 2.5 58t2.5 59q0 119 -81 146v22q81 28 81 136q0 21 -3.5 64t-3.5 63q0 64 26 95q33 39 117 39v-20q-47 -4 -65 -34q-15 -23 -15 -71
q0 -17 2.5 -55t2.5 -58q0 -122 -81 -170z" />
    <glyph glyph-name="bar" unicode="|" horiz-adv-x="135" 
d="M20 -119v846h63v-846h-63z" />
    <glyph glyph-name="braceright" unicode="}" horiz-adv-x="301" 
d="M213 307q-80 -48 -80 -170q0 -20 2 -58t2 -54q0 -49 -15 -72q-18 -30 -64 -34v-19h18q72 0 100 39q22 30 22 94q0 18 -2.5 58t-2.5 59q0 119 81 146v22q-81 28 -81 136q0 21 3.5 64t3.5 63q0 64 -26 95q-33 39 -117 39v-20q47 -4 66 -34q14 -23 14 -71q0 -17 -2 -55
t-2 -58q0 -122 80 -170z" />
    <glyph glyph-name="asciitilde" unicode="~" horiz-adv-x="442" 
d="M152 725q-60 0 -60 -21l-23 -1q0 28 33 53q31 22 60 22q25 0 54.5 -18t62.5 -18q30 0 55 28h24q0 -28 -35.5 -53t-65.5 -25q-23 0 -50.5 16.5t-54.5 16.5z" />
    <glyph glyph-name="Adieresis" unicode="&#xc4;" horiz-adv-x="752" 
d="M740 120q-9 -31 -58.5 -74.5t-79.5 -43.5q-31 0 -57 40q-16 25 -40 85q-22 56 -34 72q-19 2 -41 2q8 0 -75 -3l-96 -138q-60 -75 -142 -75q-55 0 -87 69q-26 55 -26 117q0 137 107 258q111 125 246 125q28 0 42 -9q18 -12 35 -25q13 17 13 33q0 5 -1.5 11.5t-1.5 7.5
q9 16 39 31q23 12 47 23q-1 -10 -5 -27l-51 -122l80 -232q70 -187 99 -187q13 0 40 25q17 19 35 37h12zM457 249v11q0 8 -16.5 48.5t-21.5 46.5q-12 -22 -40 -106q15 -3 35 -3q16 0 43 3zM398 416q0 25 -45 55.5t-71 30.5q-83 0 -145 -104q-54 -92 -54 -181q0 -56 19 -106
q25 -66 73 -66q36 0 81 57q42 55 45 94q-4 2 -9 3q-39 0 -111 -30v12q23 29 59 44q21 9 57 17q30 5 35 11q12 13 39 80t27 83zM378 655q0 19 14 32.5t33 13.5t33 -13.5t14 -32.5q0 -20 -14 -33.5t-33 -13.5t-33 13.5t-14 33.5zM217 655q0 19 13.5 32.5t32.5 13.5
q20 0 33.5 -13.5t13.5 -32.5q0 -20 -13.5 -33.5t-33.5 -13.5q-19 0 -32.5 13.5t-13.5 33.5z" />
    <glyph glyph-name="Aring" unicode="&#xc5;" horiz-adv-x="752" 
d="M740 120q-9 -31 -58.5 -74.5t-79.5 -43.5q-31 0 -57 40q-16 25 -40 85q-22 56 -34 72q-19 2 -41 2q8 0 -75 -3l-96 -138q-60 -75 -142 -75q-55 0 -87 69q-26 55 -26 117q0 137 107 258q111 125 246 125q28 0 42 -9q18 -12 35 -25q14 18 28 76t14 94q0 10 -1 17
q9 15 38 31q24 11 47 23q-1 -17 -4 -28l-82 -256l80 -232q70 -187 99 -187q13 0 40 25q17 19 35 37h12zM457 249v11q0 8 -16.5 48.5t-21.5 46.5q-12 -22 -40 -106q15 -3 35 -3q16 0 43 3zM398 416q0 25 -45 55.5t-71 30.5q-83 0 -145 -104q-54 -92 -54 -181q0 -56 19 -106
q25 -66 73 -66q36 0 81 57q42 55 45 94q-4 2 -9 3q-39 0 -111 -30v12q23 29 59 44q21 9 57 17q30 5 35 11q12 13 39 80t27 83zM348 779q30 0 51 -21t21 -51t-21 -51t-51 -21t-51.5 21t-21.5 51t21.5 51t51.5 21zM348 744q-16 0 -27 -10.5t-11 -26.5q0 -15 11 -26t27 -11
q15 0 26 11t11 26q0 16 -11 26.5t-26 10.5z" />
    <glyph glyph-name="Ccedilla" unicode="&#xc7;" horiz-adv-x="601" 
d="M233 478q-16 -2 -58 -27q-86 -53 -86 -147q0 -55 26 -111q27 -61 72 -87q22 52 46 372zM265 -176q-10 0 -68 19l18 26q27 -16 65 -16q51 0 51 42q0 26 -47 26q-8 0 -50 1q0 5 6 36t6 42q-32 9 -49 15q-6 -10 -34 -37l-6 15l4 32q-69 42 -112 101q-49 67 -49 141
q0 188 232 240q-6 64 -6 66q-9 46 -32 46q-7 0 -16 -4q0 3 -7 4q45 58 91 72q26 -27 31 -116q1 -19 0 -126q31 34 119 63q82 28 134 28q48 0 25 1q13 -1 15 -14q-31 -61 -112 -89l16 28q-7 8 -19 8q-132 0 -167 -63q-11 -18 -15 -40q-3 -31 -11 -96q-9 -59 -53 -190
q43 -49 152 -49q48 0 103 9q-46 -35 -83.5 -46.5t-97.5 -11.5q-3 0 -23 5l-9 -44q50 8 47 8q38 0 52 -18q9 -13 9 -43q0 -71 -110 -71z" />
    <glyph glyph-name="Eacute" unicode="&#xc9;" horiz-adv-x="558" 
d="M591 576q-31 -46 -137 -129q-116 -92 -153 -135q16 0 47.5 2.5t48.5 2.5q83 0 116 -25q-7 -14 -50 -49q-11 11 -85 12q-47 0 -94 1l-22 -163q-10 27 -13 80q-2 41 -4 83h-3q-8 0 -26 -4.5t-26 -4.5q6 9 33 32q23 20 28 37q2 6 13 64q31 155 125 214q-6 -10 -6 -12t1.5 -3
t1.5 -3q0 -4 -5 -13q1 -14 40 -14q61 0 170 27zM460 66q-18 -36 -82 -62q-57 -22 -105 -22q-105 0 -188 75q-86 77 -86 181q0 60 36 115q42 64 110 76q-36 -29 -57 -81q-19 -46 -19 -89q0 -91 79 -159q75 -66 167 -66q33 0 74 9q49 10 66 26zM463 500h-22q-15 -1 -23 -1
q-44 0 -63 13q-15 -37 -30 -75q-18 -45 -23 -76zM377 696q-174 -91 -173 -94q3 -20 6 -17q97 28 199 58q15 5 15 22q0 13 -9.5 24t-22.5 11q-8 0 -15 -4z" />
    <glyph glyph-name="Ntilde" unicode="&#xd1;" horiz-adv-x="766" 
d="M747 607q7 -2 7 -9q-1 -6 -5 -9q-85 -59 -115 -148q-17 -49 -23 -154q5 -114 8 -129q10 -73 47 -118q3 -1 5 -1q6 0 17 8.5t18 9.5l5 -10q-50 -56 -95 -91q-6 -2 -18 4q-71 109 -71 265q0 180 95 281q-2 2 -11.5 -1.5t-13 -3.5t-26.5 -6t-36 -7q-28 -2 -106 -8
q-68 -73 -84 -156l-7 -41q47 32 74 32q42 0 57 -13q-3 -11 -53 -55q-38 15 -50 15q-31 0 -33 -10q-10 -52 -6 -208q0 -15 -38 -40t-45 -21q-22 10 -65 10q-34 0 -53 -2q79 98 81 245q1 150 -27 277q-1 0 -4.5 2.5t-6.5 1.5q-44 -8 -78 -79q-27 -56 -29 -92q-7 -3 -62 -11
q6 21 29 70q61 103 199 182q14 0 19 -11l15 -252q0 -115 -7 -174q-4 -25 -10 -41q-9 -20 -17 -39h59q2 83 3 166q7 94 41 159q42 83 139 150q12 8 26 10h38q41 2 116 17q10 1 97 35zM362 655q-60 0 -60 -21l-23 -1q0 28 33 53q31 22 60 22q25 0 54.5 -18t62.5 -18
q30 0 55 28h24q0 -28 -35.5 -53t-65.5 -25q-23 0 -50.5 16.5t-54.5 16.5z" />
    <glyph glyph-name="Odieresis" unicode="&#xd6;" horiz-adv-x="764" 
d="M640 269q0 43 -23 77t-47 68q-9 13 -48 95q-42 -43 -60 -76q-22 -39 -26 -92q-5 -70 -23 -145q-13 -52 -43 -155q26 -6 43 -6q102 0 164.5 65.5t62.5 168.5zM724 300q0 -68 -50 -138q-42 -59 -107 -105q-118 -83 -214 -93q-52 -95 -85 -92q13 23 27 47q15 28 18 49
q-102 8 -196 74q-114 81 -114 199q0 87 67 167q72 87 162 84q-1 -8 -39 -34q-47 -31 -70 -60q-38 -46 -38 -108q0 -89 84 -156q64 -52 165 -83q6 15 10 39q43 271 43 413q0 18 -4 18q-12 1 -25.5 -6.5t-26.5 -16.5q0 21 53 49q37 18 74 35q2 -21 0 -35q-3 -18 -3 -35
q0 -24 -2 -24q0 1 -2 2q-2 -2 -4 -24q108 121 157 134q0 -44 60 -149t60 -151zM418 655q0 19 14 32.5t33 13.5t33 -13.5t14 -32.5q0 -20 -14 -33.5t-33 -13.5t-33 13.5t-14 33.5zM257 655q0 19 13.5 32.5t32.5 13.5q20 0 33.5 -13.5t13.5 -32.5q0 -20 -13.5 -33.5
t-33.5 -13.5q-19 0 -32.5 13.5t-13.5 33.5z" />
    <glyph glyph-name="Udieresis" unicode="&#xdc;" horiz-adv-x="739" 
d="M710 136q0 -15 1 -33q2 -4 -59 -66q-64 -64 -80 -64q-18 0 -44 42q-11 16 -18 44l-12 46q-84 -101 -146 -114q-38 -8 -39 -8q-17 0 -88 15q-89 19 -96 20q43 52 69.5 128.5t27.5 145.5q2 124 -21 210q-140 -87 -140 -211q0 -7 3 -18q4 -14 5 -17q-31 14 -50 23
q-5 1 -14 5q-5 4 -5 21q0 69 102 160q50 45 163 122q18 -10 28 -92q7 -57 7 -110q0 -93 -28 -191q-12 -40 -53 -104q77 -35 118 -35q99 0 141 76q17 32 17 175q0 148 -10 174q-5 6 -12 18q21 21 87 67q16 3 16 -22v-407q1 -22 13 -50q15 -31 33 -38q24 15 45 41q29 37 39 47
zM398 655q0 19 14 32.5t33 13.5t33 -13.5t14 -32.5q0 -20 -14 -33.5t-33 -13.5t-33 13.5t-14 33.5zM237 655q0 19 13.5 32.5t32.5 13.5q20 0 33.5 -13.5t13.5 -32.5q0 -20 -13.5 -33.5t-33.5 -13.5q-19 0 -32.5 13.5t-13.5 33.5z" />
    <glyph glyph-name="aacute" unicode="&#xe1;" horiz-adv-x="404" 
d="M321 -1q-18 0 -47 47t-37 47l-61.5 -47t-80.5 -47q-35 0 -64 74q-25 63 -25 107q0 126 103 182q90 50 105 50q17 0 65.5 -9.5t62.5 -16.5q-6 -46 -16 -123q-3 -19 -3 -42q0 -58 14 -99q17 -50 47 -50q9 0 24 11q10 10 21 19q-19 -28 -49 -60q-41 -43 -59 -43zM143 359
q-20 -18 -35 -72q-13 -47 -13 -81q0 -29 23 -75q25 -52 50 -52q49 0 64 74q1 4 9 112q3 41 10 69q-21 10 -42.5 19t-40.5 9q-12 0 -25 -3zM272 541q-148 -77 -147 -79q3 -18 5 -15q82 24 169 50q13 4 13 18q0 11 -8 20.5t-19 9.5q-7 0 -13 -4z" />
    <glyph glyph-name="agrave" unicode="&#xe0;" horiz-adv-x="404" 
d="M321 -1q-18 0 -47 47t-37 47l-61.5 -47t-80.5 -47q-35 0 -64 74q-25 63 -25 107q0 126 103 182q90 50 105 50q17 0 65.5 -9.5t62.5 -16.5q-6 -46 -16 -123q-3 -19 -3 -42q0 -58 14 -99q17 -50 47 -50q9 0 24 11q10 10 21 19q-19 -28 -49 -60q-41 -43 -59 -43zM143 359
q-20 -18 -35 -72q-13 -47 -13 -81q0 -29 23 -75q25 -52 50 -52q49 0 64 74q1 4 9 112q3 41 10 69q-21 10 -42.5 19t-40.5 9q-12 0 -25 -3zM143 541q148 -77 147 -79q-3 -18 -5 -15q-82 24 -169 50q-13 4 -13 18q0 11 8 20.5t19 9.5q7 0 13 -4z" />
    <glyph glyph-name="acircumflex" unicode="&#xe2;" horiz-adv-x="404" 
d="M321 -1q-18 0 -47 47t-37 47l-61.5 -47t-80.5 -47q-35 0 -64 74q-25 63 -25 107q0 126 103 182q90 50 105 50q17 0 65.5 -9.5t62.5 -16.5q-6 -46 -16 -123q-3 -19 -3 -42q0 -58 14 -99q17 -50 47 -50q9 0 24 11q10 10 21 19q-19 -28 -49 -60q-41 -43 -59 -43zM143 359
q-20 -18 -35 -72q-13 -47 -13 -81q0 -29 23 -75q25 -52 50 -52q49 0 64 74q1 4 9 112q3 41 10 69q-21 10 -42.5 19t-40.5 9q-12 0 -25 -3zM69 451l3 -11l122 54l121 -54l2 11q-92 73 -98.5 78.5t-22.5 22.5l-2 -1l-2 1l-1 -3z" />
    <glyph glyph-name="adieresis" unicode="&#xe4;" horiz-adv-x="404" 
d="M321 -1q-18 0 -47 47t-37 47l-61.5 -47t-80.5 -47q-35 0 -64 74q-25 63 -25 107q0 126 103 182q26 17 52 33q39 24 52 24q16 0 66 -13q47 -12 63 -20q-6 -46 -16 -123q-3 -19 -3 -42q0 -58 14 -99q17 -50 47 -50q9 0 24 11q10 10 21 19q-19 -28 -49 -60q-41 -43 -59 -43z
M143 359q-20 -18 -35 -72q-13 -47 -13 -81q0 -29 23 -75q25 -52 50 -52q49 0 64 74q1 4 9 112q3 41 10 69q-21 10 -42.5 19t-40.5 9q-12 0 -25 -3zM243 505q0 16 11.5 27.5t28.5 11.5q16 0 27.5 -11.5t11.5 -27.5q0 -17 -11.5 -28.5t-27.5 -11.5q-17 0 -28.5 11.5
t-11.5 28.5zM106 505q0 16 11.5 27.5t28.5 11.5q16 0 27.5 -11.5t11.5 -27.5q0 -17 -11.5 -28.5t-27.5 -11.5q-17 0 -28.5 11.5t-11.5 28.5z" />
    <glyph glyph-name="atilde" unicode="&#xe3;" horiz-adv-x="404" 
d="M321 -1q-18 0 -47 47t-37 47l-61.5 -47t-80.5 -47q-35 0 -64 74q-25 63 -25 107q0 126 103 182q90 50 105 50q17 0 65.5 -9.5t62.5 -16.5q-6 -46 -16 -123q-3 -19 -3 -42q0 -58 14 -99q17 -50 47 -50q9 0 24 11q10 10 21 19q-19 -28 -49 -60q-41 -43 -59 -43zM143 359
q-20 -18 -35 -72q-13 -47 -13 -81q0 -29 23 -75q25 -52 50 -52q49 0 64 74q1 4 9 112q3 41 10 69q-21 10 -42.5 19t-40.5 9q-12 0 -25 -3zM162 497q-52 0 -52 -18l-19 -1q0 24 27 44t52 20q21 0 46 -15.5t53 -15.5q26 0 47 24h21q0 -24 -30.5 -45.5t-55.5 -21.5
q-20 0 -43.5 14.5t-45.5 14.5z" />
    <glyph glyph-name="aring" unicode="&#xe5;" horiz-adv-x="404" 
d="M321 -1q-18 0 -47 47t-37 47l-61.5 -47t-80.5 -47q-35 0 -64 74q-25 63 -25 107q0 126 103 182q90 50 105 50q17 0 65.5 -9.5t62.5 -16.5q-6 -46 -16 -123q-3 -19 -3 -42q0 -58 14 -99q17 -50 47 -50q9 0 24 11q10 10 21 19q-19 -28 -49 -60q-41 -43 -59 -43zM143 359
q-20 -18 -35 -72q-13 -47 -13 -81q0 -29 23 -75q25 -52 50 -52q49 0 64 74q1 4 9 112q3 41 10 69q-21 10 -42.5 19t-40.5 9q-12 0 -25 -3zM202 616q30 0 51 -21.5t21 -51.5q0 -29 -21 -50.5t-51 -21.5t-51 21.5t-21 50.5q0 30 21 51.5t51 21.5zM202 581q-15 0 -26 -11
t-11 -27q0 -15 11 -26t26 -11t26 11t11 26q0 16 -11 27t-26 11z" />
    <glyph glyph-name="ccedilla" unicode="&#xe7;" horiz-adv-x="314" 
d="M136 -157q-8 0 -57 16l15 22q23 -13 55 -13q44 0 44 35q0 22 -40 22q-7 0 -43 1q4 21 10 60q-47 14 -85 96q-34 70 -34 118q0 139 97 177q4 2 31 20q20 13 38 13q5 0 52 -18q55 -21 59 -22q-7 -10 -35.5 -28t-39.5 -19q-23 10 -47 20q-30 11 -48 11q-30 -37 -30 -111
q0 -43 24 -111q7 -20 30 -49q29 -37 50 -39q12 -1 51 28q34 26 47 41l9 -23q0 -7 -57 -47.5t-85 -54.5l-9 -40q42 7 40 7q52 0 52 -52q0 -60 -94 -60z" />
    <glyph glyph-name="eacute" unicode="&#xe9;" horiz-adv-x="302" 
d="M136 -5q-53 2 -96 94q-37 80 -37 137q0 27 18 66.5t61 82.5q50 49 86 49q21 0 115 -44q-35 -56 -116 -117q-71 -53 -71 -58q0 -30 30 -85q32 -60 59 -60q23 0 96 58l8 -16q-23 -18 -81 -59q-67 -48 -72 -48zM112 370q-29 -29 -29 -99q0 -21 4 -36q82 44 113 102
q-44 27 -88 33zM202 541q-148 -77 -147 -79q3 -18 5 -15q82 24 169 50q13 4 13 18q0 11 -8 20.5t-19 9.5q-7 0 -13 -4z" />
    <glyph glyph-name="egrave" unicode="&#xe8;" horiz-adv-x="302" 
d="M136 -5q-53 2 -96 94q-37 80 -37 137q0 27 18 66.5t61 82.5q50 49 86 49q21 0 115 -44q-35 -56 -116 -117q-71 -53 -71 -58q0 -30 30 -85q32 -60 59 -60q23 0 96 58l8 -16q-23 -18 -81 -59q-67 -48 -72 -48zM112 370q-29 -29 -29 -99q0 -21 4 -36q82 44 113 102
q-44 27 -88 33zM103 541q148 -77 147 -79q-3 -18 -5 -15q-82 24 -169 50q-13 4 -13 18q0 11 8 20.5t19 9.5q7 0 13 -4z" />
    <glyph glyph-name="ecircumflex" unicode="&#xea;" horiz-adv-x="302" 
d="M136 -5q-53 2 -96 94q-37 80 -37 137q0 27 18 66.5t61 82.5q50 49 86 49q21 0 115 -44q-35 -56 -116 -117q-71 -53 -71 -58q0 -30 30 -85q32 -60 59 -60q23 0 96 58l8 -16q-23 -18 -81 -59q-67 -48 -72 -48zM112 370q-29 -29 -29 -99q0 -21 4 -36q82 44 113 102
q-44 27 -88 33zM39 451l3 -11l122 54l121 -54l2 11q-92 73 -98.5 78.5t-22.5 22.5l-2 -1l-2 1l-1 -3z" />
    <glyph glyph-name="edieresis" unicode="&#xeb;" horiz-adv-x="302" 
d="M136 -5q-53 2 -96 94q-37 80 -37 137q0 27 18 66.5t61 82.5q50 49 86 49q21 0 115 -44q-35 -56 -116 -117q-71 -53 -71 -58q0 -30 30 -85q32 -60 59 -60q23 0 96 58l8 -16q-23 -18 -81 -59q-67 -48 -72 -48zM112 370q-29 -29 -29 -99q0 -21 4 -36q82 44 113 102
q-44 27 -88 33zM193 505q0 16 11.5 27.5t28.5 11.5q16 0 27.5 -11.5t11.5 -27.5q0 -17 -11.5 -28.5t-27.5 -11.5q-17 0 -28.5 11.5t-11.5 28.5zM56 505q0 16 11.5 27.5t28.5 11.5q16 0 27.5 -11.5t11.5 -27.5q0 -17 -11.5 -28.5t-27.5 -11.5q-17 0 -28.5 11.5t-11.5 28.5z
" />
    <glyph glyph-name="iacute" unicode="&#xed;" horiz-adv-x="189" 
d="M188 116q-5 -18 -43 -64q-41 -49 -55 -49q-68 0 -68 192q0 16 2.5 51.5t2.5 51.5q0 30 -16 30q-5 0 -13 -1q11 17 52 44q36 23 61 33q1 -3 0 -17t-8 -60q-6 -37 -6 -59v-67q0 -32 11 -72q14 -52 35 -59q15 9 25.5 24.5t19.5 21.5zM142 541q-148 -77 -147 -79q3 -18 5 -15
q82 24 169 50q13 4 13 18q0 11 -8 20.5t-19 9.5q-7 0 -13 -4z" />
    <glyph glyph-name="igrave" unicode="&#xec;" horiz-adv-x="189" 
d="M188 116q-5 -18 -43 -64q-41 -49 -55 -49q-68 0 -68 192q0 16 2.5 51.5t2.5 51.5q0 30 -16 30q-5 0 -13 -1q11 17 52 44q36 23 61 33q1 -3 0 -17t-8 -60q-6 -37 -6 -59v-67q0 -32 11 -72q14 -52 35 -59q15 9 25.5 24.5t19.5 21.5zM23 541q148 -77 147 -79q-3 -18 -5 -15
q-82 24 -169 50q-13 4 -13 18q0 11 8 20.5t19 9.5q7 0 13 -4z" />
    <glyph glyph-name="icircumflex" unicode="&#xee;" horiz-adv-x="189" 
d="M188 116q-5 -18 -43 -64q-41 -49 -55 -49q-68 0 -68 192q0 16 2.5 51.5t2.5 51.5q0 30 -16 30q-5 0 -13 -1q11 17 52 44q36 23 61 33q1 -3 0 -17t-8 -60q-6 -37 -6 -59v-67q0 -32 11 -72q14 -52 35 -59q15 9 25.5 24.5t19.5 21.5zM-31 451l3 -11l102 54l101 -54l2 11
l-101 101l-2 -1l-2 1l-1 -3z" />
    <glyph glyph-name="idieresis" unicode="&#xef;" horiz-adv-x="189" 
d="M188 116q-5 -18 -43 -64q-41 -49 -55 -49q-68 0 -68 192q0 16 2.5 51.5t2.5 51.5q0 30 -16 30q-5 0 -13 -1q11 17 52 44q36 23 61 33q1 -3 0 -17t-8 -60q-6 -37 -6 -59v-67q0 -32 11 -72q14 -52 35 -59q15 9 25.5 24.5t19.5 21.5zM103 505q0 16 11.5 27.5t28.5 11.5
q16 0 27.5 -11.5t11.5 -27.5q0 -17 -11.5 -28.5t-27.5 -11.5q-17 0 -28.5 11.5t-11.5 28.5zM-34 505q0 16 11.5 27.5t28.5 11.5q16 0 27.5 -11.5t11.5 -27.5q0 -17 -11.5 -28.5t-27.5 -11.5q-17 0 -28.5 11.5t-11.5 28.5z" />
    <glyph glyph-name="ntilde" unicode="&#xf1;" horiz-adv-x="423" 
d="M116 40q0 -5 -36 -23.5t-42 -18.5q-5 0 -5 24l1 317q0 13 -13 13q-2 0 -6 -4t-8 -4t-9 5q13 18 45 43q37 29 52 29q30 0 29 -122v3q37 59 57 78q41 40 98 40q6 0 24 -1q14 -1 25 0q18 1 41 7q1 -1 -3 -7.5t-4 -8t-19 -35t-22 -43.5q-5 -19 -8 -48l-4 -50q-1 -10 -1 -21
q0 -51 19 -100q19 -52 42 -52q14 14 41 36q-10 -21 -41 -59q-35 -43 -52 -43q-47 0 -74 81q-19 61 -19 124q0 31 20 77q17 35 33 70q-50 7 -55 6q-100 -13 -104 -249q0 -16 -1 -32.5t-1 -31.5zM142 497q-52 0 -52 -18l-19 -1q0 24 27 44t52 20q21 0 46 -15.5t53 -15.5
q26 0 47 24h21q0 -24 -30.5 -45.5t-55.5 -21.5q-20 0 -43.5 14.5t-45.5 14.5z" />
    <glyph glyph-name="oacute" unicode="&#xf3;" horiz-adv-x="385" 
d="M152 -17q-23 0 -77 55q-51 52 -60 78q-15 47 -16 80q-3 79 54 137q33 34 126 88h5q14 1 54 -21t72.5 -68t34.5 -91q1 -31 -2 -53q-10 -77 -102 -148q-75 -56 -89 -57zM78 261q5 -79 38 -131q15 -25 41 -48q32 -28 54 -27q31 1 48 38q14 30 13 62q-2 59 -44 126
q-48 75 -101 73q-29 -1 -41 -35q-10 -25 -8 -58zM222 541q-148 -77 -147 -79q3 -18 5 -15q82 24 169 50q13 4 13 18q0 11 -8 20.5t-19 9.5q-7 0 -13 -4z" />
    <glyph glyph-name="ograve" unicode="&#xf2;" horiz-adv-x="385" 
d="M152 -17q-23 0 -77 55q-51 52 -60 78q-15 47 -16 80q-3 79 54 137q33 34 126 88h5q14 1 54 -21t72.5 -68t34.5 -91q1 -31 -2 -53q-10 -77 -102 -148q-75 -56 -89 -57zM78 261q5 -79 38 -131q15 -25 41 -48q32 -28 54 -27q31 1 48 38q14 30 13 62q-2 59 -44 126
q-48 75 -101 73q-29 -1 -41 -35q-10 -25 -8 -58zM133 541q148 -77 147 -79q-3 -18 -5 -15q-82 24 -169 50q-13 4 -13 18q0 11 8 20.5t19 9.5q7 0 13 -4z" />
    <glyph glyph-name="ocircumflex" unicode="&#xf4;" horiz-adv-x="385" 
d="M152 -17q-23 0 -77 55q-51 52 -60 78q-15 47 -16 80q-3 79 54 137q33 34 126 88h5q14 1 54 -21t72.5 -68t34.5 -91q1 -31 -2 -53q-10 -77 -102 -148q-75 -56 -89 -57zM78 261q5 -79 38 -131q15 -25 41 -48q32 -28 54 -27q31 1 48 38q14 30 13 62q-2 59 -44 126
q-48 75 -101 73q-29 -1 -41 -35q-10 -25 -8 -58zM59 451l3 -11l122 54l121 -54l2 11q-92 73 -98.5 78.5t-22.5 22.5l-2 -1l-2 1l-1 -3z" />
    <glyph glyph-name="odieresis" unicode="&#xf6;" horiz-adv-x="385" 
d="M152 -17q-23 0 -77 55q-51 52 -60 78q-15 47 -16 80q-3 79 54 137q33 34 126 88h5q14 1 54 -21t72.5 -68t34.5 -91q1 -31 -2 -53q-10 -77 -102 -148q-75 -56 -89 -57zM78 261q5 -79 38 -131q15 -25 41 -48q32 -28 54 -27q31 1 48 38q14 30 13 62q-2 59 -44 126
q-48 75 -101 73q-29 -1 -41 -35q-10 -25 -8 -58zM213 505q0 16 11.5 27.5t28.5 11.5q16 0 27.5 -11.5t11.5 -27.5q0 -17 -11.5 -28.5t-27.5 -11.5q-17 0 -28.5 11.5t-11.5 28.5zM76 505q0 16 11.5 27.5t28.5 11.5q16 0 27.5 -11.5t11.5 -27.5q0 -17 -11.5 -28.5t-27.5 -11.5
q-17 0 -28.5 11.5t-11.5 28.5z" />
    <glyph glyph-name="otilde" unicode="&#xf5;" horiz-adv-x="385" 
d="M152 -17q-23 0 -77 55q-51 52 -60 78q-15 47 -16 80q-3 79 54 137q33 34 126 88h5q14 1 54 -21t72.5 -68t34.5 -91q1 -31 -2 -53q-10 -77 -102 -148q-75 -56 -89 -57zM78 261q5 -79 38 -131q15 -25 41 -48q32 -28 54 -27q31 1 48 38q14 30 13 62q-2 59 -44 126
q-48 75 -101 73q-29 -1 -41 -35q-10 -25 -8 -58zM122 497q-52 0 -52 -18l-19 -1q0 24 27 44t52 20q21 0 46 -15.5t53 -15.5q26 0 47 24h21q0 -24 -30.5 -45.5t-55.5 -21.5q-20 0 -43.5 14.5t-45.5 14.5z" />
    <glyph glyph-name="uacute" unicode="&#xfa;" horiz-adv-x="381" 
d="M381 102q-12 -25 -39 -60q-33 -43 -50 -43q-15 0 -36.5 44t-26.5 77q-14 -40 -65 -86.5t-88 -46.5q-56 0 -56 221q0 20 1 61t1 62q0 13 -22 13l-24 -9q20 26 58.5 51t58.5 25q10 0 10 -42q0 -26 -2.5 -78t-2.5 -78q0 -151 42 -151q18 0 50 39t33 59l6 176q1 10 -14 10
q3 0 -21 -5q11 21 57 49q41 26 51 26q8 0 8 -15q0 -60 -6 -223q-2 -35 14 -71t36 -37q17 21 27 32zM212 541q-148 -77 -147 -79q3 -18 5 -15q82 24 169 50q13 4 13 18q0 11 -8 20.5t-19 9.5q-7 0 -13 -4z" />
    <glyph glyph-name="ugrave" unicode="&#xf9;" horiz-adv-x="381" 
d="M381 102q-12 -25 -39 -60q-33 -43 -50 -43q-15 0 -36.5 44t-26.5 77q-14 -40 -65 -86.5t-88 -46.5q-56 0 -56 221q0 20 1 61t1 62q0 13 -22 13l-24 -9q20 26 58.5 51t58.5 25q10 0 10 -42q0 -26 -2.5 -78t-2.5 -78q0 -151 42 -151q18 0 50 39t33 59l6 176q1 10 -14 10
q3 0 -21 -5q11 21 57 49q41 26 51 26q8 0 8 -15q0 -60 -6 -223q-2 -35 14 -71t36 -37q17 21 27 32zM103 541q148 -77 147 -79q-3 -18 -5 -15q-82 24 -169 50q-13 4 -13 18q0 11 8 20.5t19 9.5q7 0 13 -4z" />
    <glyph glyph-name="ucircumflex" unicode="&#xfb;" horiz-adv-x="381" 
d="M381 102q-12 -25 -39 -60q-33 -43 -50 -43q-15 0 -36.5 44t-26.5 77q-14 -40 -65 -86.5t-88 -46.5q-56 0 -56 221q0 20 1 61t1 62q0 13 -22 13l-24 -9q20 26 58.5 51t58.5 25q10 0 10 -42q0 -26 -2.5 -78t-2.5 -78q0 -151 42 -151q18 0 50 39t33 59l6 176q1 10 -14 10
q3 0 -21 -5q11 21 57 49q41 26 51 26q8 0 8 -15q0 -60 -6 -223q-2 -35 14 -71t36 -37q17 21 27 32zM39 451l3 -11l122 54l121 -54l2 11q-92 73 -98.5 78.5t-22.5 22.5l-2 -1l-2 1l-1 -3z" />
    <glyph glyph-name="udieresis" unicode="&#xfc;" horiz-adv-x="381" 
d="M381 102q-12 -25 -39 -60q-33 -43 -50 -43q-15 0 -36.5 44t-26.5 77q-14 -40 -65 -86.5t-88 -46.5q-56 0 -56 221q0 20 1 61t1 62q0 13 -22 13l-24 -9q20 26 58.5 51t58.5 25q10 0 10 -42q0 -26 -2.5 -78t-2.5 -78q0 -151 42 -151q18 0 50 39t33 59l6 176q1 10 -14 10
q3 0 -21 -5q11 21 57 49q41 26 51 26q8 0 8 -15q0 -60 -6 -223q-2 -35 14 -71t36 -37q17 21 27 32zM183 505q0 16 11.5 27.5t28.5 11.5q16 0 27.5 -11.5t11.5 -27.5q0 -17 -11.5 -28.5t-27.5 -11.5q-17 0 -28.5 11.5t-11.5 28.5zM46 505q0 16 11.5 27.5t28.5 11.5
q16 0 27.5 -11.5t11.5 -27.5q0 -17 -11.5 -28.5t-27.5 -11.5q-17 0 -28.5 11.5t-11.5 28.5z" />
    <glyph glyph-name="dagger" unicode="&#x2020;" 
 />
    <glyph glyph-name="degree" unicode="&#xb0;" horiz-adv-x="244" 
d="M97 577q41 0 70.5 -29t29.5 -70t-29.5 -70.5t-70.5 -29.5t-70 29.5t-29 70.5t29 70t70 29zM97 548q-29 0 -49.5 -20.5t-20.5 -49.5t20.5 -50t49.5 -21t50 21t21 50t-21 49.5t-50 20.5z" />
    <glyph glyph-name="cent" unicode="&#xa2;" horiz-adv-x="314" 
d="M135 158v271q-16 5 -27 5q-10 -14 -20.5 -52.5t-10.5 -58.5q0 -43 24 -111q8 -23 34 -54zM135 560h25v-71h6q5 0 52 -17q55 -21 59 -23q-7 -9 -35.5 -27t-39.5 -19q-13 6 -42 18v-288q11 -8 21 -9q12 -1 51 28q34 26 47 41l9 -23q0 -6 -46.5 -40t-81.5 -55v-91h-25v79v0
q-52 -2 -97 87q-37 76 -37 130q0 83 32 126q25 32 102 75v79z" />
    <glyph glyph-name="sterling" unicode="&#xa3;" horiz-adv-x="424" 
d="M407 464q2 -15 2 -28q0 -59 -65 -95q-11 -6 -23 -9q-22 -3 -17 -3q0 3 23 22q20 17 20 54q0 14 -3 30q-4 29 -27 54t-51 26q-78 0 -100 -91q-12 -55 -15 -169q2 -1 9 -1q21 0 142 17q-9 -22 -150 -49q0 -86 -2 -97q-11 -67 -37 -109q45 14 91 28q70 20 112 20
q36 0 66 -12q-2 -7 -23.5 -30.5t-27.5 -23.5q-16 4 -48 11q-20 2 -41 2q-89 0 -185 -63l-9 1q54 84 50 272q-36 0 -52 2q-32 4 -55 16q1 13 20 28t32 15q3 0 13 -16t26 -16q19 0 19 1q0 24 2 74q12 99 56 159q53 72 144 71q40 0 69 -25t35 -66z" />
    <glyph glyph-name="section" unicode="&#xa7;" 
 />
    <glyph glyph-name="bullet" unicode="&#x2022;" horiz-adv-x="201" 
d="M12 289q0 31 22 53t53 22t53 -22t22 -53t-22 -53t-53 -22t-53 22t-22 53z" />
    <glyph glyph-name="paragraph" unicode="&#xb6;" 
 />
    <glyph glyph-name="germandbls" unicode="&#xdf;" horiz-adv-x="447" 
d="M252 12q-17 -14 -45 -43q-29 -41 -42 -42q-1 1 -2 9q2 13 14 42q3 17 33 52q22 25 43 50q72 92 80 208q-5 12 -32 21q-22 7 -85 18l-12 2q-1 -1 0 -3q-24 0 -24 36q0 15 9 26q98 112 98 185q0 61 -87 61q-16 0 -35 -2q-52 -6 -70 -43q-12 -25 -13 -84q1 -29 1 -96
q0 10 0 -386q0 -8 -20 -19t-38 -11q-22 0 -22 22q0 64 1 207q2 124 1 191q-1 111 23 165q30 68 111 88q33 8 75 8q66 0 109 -21q52 -24 52 -74q0 -16 -6 -34q-2 -9 -46 -67q-46 -61 -70 -85q14 -1 42 -6l19 -4q8 -1 11 -1q28 -1 53 -26t25 -50q0 -94 -40 -167
q-34 -63 -111 -127z" />
    <glyph glyph-name="registered" unicode="&#xae;" horiz-adv-x="374" 
d="M162 383q-62 0 -106 45t-44 108q0 62 44 106t106 44t104.5 -44.5t42.5 -107.5t-42.5 -107t-104.5 -44zM162 406q51 0 88 37.5t37 90.5t-37 90.5t-88 37.5q-54 1 -90 -36t-36 -92q0 -53 37.5 -90.5t88.5 -37.5zM176 534l47 -72h-26l-47 72h-26v-72h-22v157h68q-6 0 -5 1h7
q52 0 52 -40q0 -44 -48 -46zM126 557h45q30 0 30 23q0 17 -34 17h-41v-40z" />
    <glyph glyph-name="copyright" unicode="&#xa9;" horiz-adv-x="772" 
d="M346 -11q-143 0 -242.5 100t-99.5 244q0 145 99.5 245t242.5 100t243 -100t100 -245q0 -144 -100 -244t-243 -100zM346 635q-122 0 -211 -88t-89 -214q0 -125 89 -213t211 -88t211 88t89 213q0 126 -89 214t-211 88zM355 139q-86 0 -136.5 55t-50.5 142q0 83 52 139.5
t136 56.5q59 0 103 -34t54 -91h-45q-22 81 -112 81q-67 0 -106 -44t-39 -110q0 -60 34 -103q40 -49 109 -49q94 0 115 79h43q-13 -57 -55.5 -89.5t-101.5 -32.5z" />
    <glyph glyph-name="trademark" unicode="&#x2122;" horiz-adv-x="481" 
d="M401 650v-196h-27v167h-2l-66 -167h-17l-65 167v0v-167h-28v196h46l56 -141l57 141h46zM159 650v-29h-64v-167h-28v167h-65v29h157z" />
    <glyph glyph-name="acute" unicode="&#xb4;" horiz-adv-x="637" 
d="M345 818q-174 -90 -173 -93q3 -21 6 -18q96 29 199 59q15 5 15 21q0 13 -9.5 24.5t-22.5 11.5q-8 0 -15 -5z" />
    <glyph glyph-name="dieresis" unicode="&#xa8;" horiz-adv-x="499" 
d="M268 765q0 19 14 32.5t33 13.5t33 -13.5t14 -32.5q0 -20 -14 -33.5t-33 -13.5t-33 13.5t-14 33.5zM107 765q0 19 13.5 32.5t32.5 13.5q20 0 33.5 -13.5t13.5 -32.5q0 -20 -13.5 -33.5t-33.5 -13.5q-19 0 -32.5 13.5t-13.5 33.5z" />
    <glyph glyph-name="AE" unicode="&#xc6;" horiz-adv-x="995" 
d="M1033 574q-31 -46 -137 -130q-116 -92 -152 -134q15 0 46.5 2.5t48.5 2.5q83 0 116 -26q-7 -13 -50 -48q-11 11 -85 12q-47 0 -94 1l-22 -163q-9 26 -13 80q-2 41 -4 83h-3q-8 0 -26 -4.5t-26 -5.5q7 10 34 33q22 19 27 36q2 6 13 64q16 78 56 147q48 81 109 110
q-17 -24 -48 -73q1 -14 40 -14q61 0 170 27zM933 500h-22q-15 -1 -23 -1q-44 0 -63 13q-15 -37 -30 -75q-18 -45 -23 -76zM586 29q-92 60 -113 166l-2 4q-19 2 -41 2q8 0 -75 -3l-96 -138q-60 -75 -142 -75q-55 0 -87 69q-26 55 -26 117q0 137 107 258q111 125 246 125
q28 0 42 -9q18 -12 35 -25q14 18 28 76t14 94q0 10 -1 17q9 15 38 31q24 11 47 23q-1 -17 -4 -28l-82 -256q9 -23 31 -121q64 116 163 107q-59 -46 -95 -106q-34 -56 -34 -98q0 -91 79 -159q75 -66 167 -66q33 0 74 9q49 10 66 26l5 -3q-18 -36 -82 -62q-57 -22 -105 -22
q-86 0 -157 47zM457 249v11q0 8 -16.5 48.5t-21.5 46.5q-12 -22 -40 -106q15 -3 35 -3q16 0 43 3zM398 416q0 25 -45 55.5t-71 30.5q-83 0 -145 -104q-54 -92 -54 -181q0 -56 19 -106q25 -66 73 -66q36 0 81 57q42 55 45 94q-4 2 -9 3q-39 0 -111 -30v12q23 29 59 44
q21 9 57 17q30 5 35 11q12 13 39 80t27 83z" />
    <glyph glyph-name="Oslash" unicode="&#xd8;" horiz-adv-x="764" 
d="M440 372l102 93q-7 16 -20 44q-69 -71 -82 -137zM381 287l-189 -172q53 -37 142 -64q6 15 10 39q14 70 37 197zM552 444l-116 -106q-5 -69 -23 -142q-13 -52 -43 -155q26 -6 43 -6q102 0 164.5 65.5t62.5 168.5q0 43 -23 77t-47 68q-9 12 -18 30zM689 599h33l-92 -85
l60 -110q34 -65 34 -104q0 -68 -50 -138q-42 -59 -107 -105q-118 -83 -214 -93q-32 -60 -66 -58q9 15 17 30q6 11 9 32q-104 8 -197 77l-69 -62h-33l84 77q-90 76 -95 181q-5 108 94 208t197 97q-1 -9 -51 -37q-62 -36 -94 -66q-52 -50 -59 -112q-2 -15 -2 -31
q0 -105 85 -172l212 194q6 50 6 113q28 32 103 91q81 66 110 74q0 -27 16 -64z" />
    <glyph glyph-name="plusminus" unicode="&#xb1;" 
 />
    <glyph glyph-name="yen" unicode="&#xa5;" horiz-adv-x="603" 
d="M85 252h138v3q-19 126 -57 193q-55 98 -161 98q-10 9 -10 14q0 7 12 11q123 0 193 -63q63 -58 95 -182q24 112 86 176q69 72 175 75q11 0 11 -12q0 -16 -8 -16q-138 0 -212 -149q-39 -79 -39 -132v-16h137v-32h-137v-68h137v-32h-137l1 -118l-86 -1v119h-138v32h138v68
h-138v32z" />
    <glyph glyph-name="mu" unicode="&#xb5;" horiz-adv-x="465" 
d="M-8 123l63 51q5 154 20 212q32 120 104 197q85 90 200 90q50 0 81.5 -31t31.5 -81q0 -116 -113 -175q-17 -10 -42 -22q0 5 1 9q4 9 2 9q3 8 23 23t30 35q15 31 15 84q0 36 -24 67t-59 31q-98 0 -141 -115q-51 -133 -51 -244q-5 -1 -7 -33l125 101v-48l-127 -102
q-1 -27 -4 -61q-6 -20 -7 -58q-1 -34 -11 -56q181 53 253 53q45 0 81 -14q-5 -9 -35.5 -38.5t-38.5 -29.5q-11 0 -29 5q-21 7 -29 7q-24 3 -47 3q-114 0 -247 -80h-12q48 61 55 212l-61 -49v48z" />
    <glyph glyph-name="mu" unicode="&#x3bc;" horiz-adv-x="465" 
d="M-8 123l63 51q5 154 20 212q32 120 104 197q85 90 200 90q50 0 81.5 -31t31.5 -81q0 -116 -113 -175q-17 -10 -42 -22q0 5 1 9q4 9 2 9q3 8 23 23t30 35q15 31 15 84q0 36 -24 67t-59 31q-98 0 -141 -115q-51 -133 -51 -244q-5 -1 -7 -33l125 101v-48l-127 -102
q-1 -27 -4 -61q-6 -20 -7 -58q-1 -34 -11 -56q181 53 253 53q45 0 81 -14q-5 -9 -35.5 -38.5t-38.5 -29.5q-11 0 -29 5q-21 7 -29 7q-24 3 -47 3q-114 0 -247 -80h-12q48 61 55 212l-61 -49v48z" />
    <glyph glyph-name="ordfeminine" unicode="&#xaa;" horiz-adv-x="485" 
d="M441 137q0 -30 -19 -67q-33 -63 -112.5 -119t-132.5 -56q-41 0 -83 16q-50 17 -77 50q-12 13 -20 31l-8 18q27 24 71 58q2 -8 6 -19q4 -48 58 -74q44 -21 104 -21q23 0 41 4q37 7 69 54q30 44 30 80q0 47 -30.5 77.5t-72.5 30.5q-59 0 -107 -25q-2 6 -2 8
q117 163 178 300q-128 -13 -183 -13q-94 0 -118 18q7 18 65 77q26 -23 92 -19l243 15q-4 -9 -34 -60q-97 -162 -143 -230q2 -1 8 0q9 2 12 2h24h25q50 0 83 -40t33 -96zM377 700l-4 12l-121 -54l-121 54l-2 -12q92 -72 98.5 -77.5t22.5 -22.5l2 1l2 -1l1 2z" />
    <glyph glyph-name="ordmasculine" unicode="&#xba;" horiz-adv-x="301" 
d="M18 186h-1h-1v0q-8 4 -8 11q0 6 6 13q1 2 105 105q20 20 27 29q-14 5 -81 12q-57 6 -76 29q18 18 57 50q14 -11 88 -21l105 -9q6 0 6 -7q0 -12 -148 -160q81 -6 151 -40q14 -7 14 -22q0 -58 -75 -126q-64 -58 -128 -83q-28 -11 -60 -18q3 12 11.5 37.5t21.5 25.5
q7 0 19 -1.5t19 -1.5q38 0 74 45q29 36 42 80q-11 23 -31.5 25t-68.5 16q-43 12 -68 11zM229 554l-4 9l-103 -46l-103 46l-2 -9q43 -33 103 -86l2 1l2 -1l1 2z" />
    <glyph glyph-name="ae" unicode="&#xe6;" horiz-adv-x="545" 
d="M143 360q-20 -18 -35 -73q-13 -47 -13 -81q0 -29 23 -75q25 -52 50 -52q49 0 64 74q1 4 9 112q3 41 10 69q-21 10 -42.5 19.5t-41.5 9.5q-11 0 -24 -3zM376 -5q-56 2 -101 105q-44 -28 -89 -56q-73 -45 -91 -45q-35 0 -64 74q-25 63 -25 107q0 127 103 183l54 32
q42 23 56 21q60 -7 118 -28q41 36 71 36q21 0 115 -44q-35 -56 -120 -121q-74 -57 -74 -62q0 -19 22 -58t46 -63q2 1 11.5 -7.5t16.5 -8.5q23 0 96 58l8 -16q-23 -18 -81 -59q-67 -48 -72 -48zM352 370q-8 -8 -23 -52q-9 -55 -2 -83q82 44 113 102q-44 27 -88 33z" />
    <glyph glyph-name="oslash" unicode="&#xf8;" horiz-adv-x="385" 
d="M120 124l102 165q-45 67 -95 65q-29 -1 -41 -35q-10 -25 -8 -58q2 -30 14 -72t28 -65zM234 270l-101 -162q45 -54 78 -53q31 1 48 38q14 30 13 62q-2 52 -38 115zM313 434h24l-47 -76q53 -58 55 -117q1 -31 -2 -53q-10 -77 -102 -148q-75 -56 -89 -57q-21 0 -69 46
l-38 -60h-23l47 75q-46 49 -54 72q-15 47 -16 80q-3 79 54 137q33 34 126 88h5q14 1 53 -21q19 -10 38 -27z" />
    <glyph glyph-name="questiondown" unicode="&#xbf;" horiz-adv-x="419" 
d="M106 97q-5 -20 -5 -100q0 -42 29.5 -75t70.5 -33q13 0 26 6q-2 7 -8 20q0 7 -3.5 31t-3.5 27q0 44 19 82q25 49 70 49q68 0 68 -91q0 -36 -25.5 -73t-64.5 -57q16 -22 53 -42q-3 -3 -15 -6q-30 -1 -67 37q-59 -11 -66 -11q-81 0 -131 42q-55 44 -55 122q0 115 125 170
q10 13 35 35q6 3 17 24q14 26 12 48q-1 9 1 18t2 17l34 3q2 6 2 -44q0 -76 -54 -109t-66 -90zM238 -35q-3 -61 18 -61q14 0 29 17q28 33 33 47q2 5 2 32q0 66 -32 66q-26 0 -40 -39q-10 -29 -10 -62zM250 426q0 -21 -14.5 -36.5t-34.5 -15.5t-34.5 15.5t-14.5 36.5
q0 22 14.5 37t34.5 15t34.5 -15t14.5 -37z" />
    <glyph glyph-name="exclamdown" unicode="&#xa1;" horiz-adv-x="262" 
d="M158 434q0 -22 -14 -37t-35 -15q-20 0 -34.5 15t-14.5 37q0 21 14.5 36.5t34.5 15.5q21 0 35 -15.5t14 -36.5zM97 348l28 -3l24 -426q0 -19 23 -32q21 -9 41 -18q-16 -12 -47 -32q0 -1 -32 -32q-11 17 -41 35q-35 23 -60 20q12 22 35 61z" />
    <glyph glyph-name="logicalnot" unicode="&#xac;" 
 />
    <glyph glyph-name="florin" unicode="&#x192;" horiz-adv-x="548" 
d="M275 236h-128q22 -213 174 -223q58 -4 104.5 31t50.5 94q5 65 -90 101q11 4 23 4q37 0 67.5 -31.5t27.5 -71.5q-12 -165 -219 -156q-97 4 -159 80q-57 71 -59 172h-68v31h68q0 28 4 54h-72v31h78q25 106 101 167.5t180 53.5q55 -3 93 -35q43 -35 43 -92
q-1 -32 -24.5 -52.5t-53.5 -24.5q23 38 26 81q3 36 -26 67.5t-66 33.5q-83 6 -135 -48.5t-66 -150.5h126v-31h-129q-2 -26 -1 -54h130v-31z" />
    <glyph glyph-name="guillemotleft" unicode="&#xab;" horiz-adv-x="333" 
d="M267 466l17 -8l-46 -136l50 -141l-17 -7l-107 145l1 3l-1 2l2 1zM148 466l16 -8l-45 -136l50 -141l-17 -7l-107 145l1 3l-1 2l2 1z" />
    <glyph glyph-name="guillemotright" unicode="&#xbb;" horiz-adv-x="333" 
d="M66 466l-17 -8l46 -136l-50 -141l17 -7l107 145l-1 3l1 2l-3 1zM185 466l-17 -8l46 -136l-50 -141l17 -7l107 145l-1 3l1 2l-3 1z" />
    <glyph glyph-name="ellipsis" unicode="&#x2026;" horiz-adv-x="721" 
d="M437 53q-31 -30 -61 -47h-20q-9 0 -29 28t-20 33q0 7 36 32.5t42 25.5q7 0 16 -10q25 -29 36 -47q1 -2 -0.5 -8t0.5 -7zM667 53q-31 -30 -61 -47h-20q-9 0 -29 28t-20 33q0 7 36 32.5t42 25.5q7 0 16 -10q25 -29 36 -47q1 -2 -0.5 -8t0.5 -7zM207 53q-31 -30 -61 -47h-20
q-9 0 -29 28t-20 33q0 7 36 32.5t42 25.5q7 0 16 -10q25 -29 36 -47q1 -2 -0.5 -8t0.5 -7z" />
    <glyph glyph-name="nonbreakingspace" unicode="&#xa0;" horiz-adv-x="204" 
 />
    <glyph glyph-name="Agrave" unicode="&#xc0;" horiz-adv-x="752" 
d="M740 120q-9 -31 -58.5 -74.5t-79.5 -43.5q-31 0 -57 40q-16 25 -40 85q-22 56 -34 72q-19 2 -41 2q8 0 -75 -3l-96 -138q-60 -75 -142 -75q-55 0 -87 69q-26 55 -26 117q0 137 107 258q111 125 246 125q28 0 43 -11l36 -28q0 14 4 40q8 16 38 32q24 11 47 22q0 -9 -4 -27
l-47 -105l80 -232q70 -187 99 -187q13 0 40 25q17 19 35 37h12zM457 249v11q0 8 -16.5 48.5t-21.5 46.5q-12 -22 -40 -106q15 -3 35 -3q16 0 43 3zM398 416q0 25 -45 55.5t-71 30.5q-83 0 -145 -104q-54 -92 -54 -181q0 -56 19 -106q25 -66 73 -66q36 0 81 57q42 55 45 94
q-4 2 -9 3q-39 0 -111 -30v12q23 29 59 44q21 9 57 17q30 5 35 11q12 13 39 80t27 83zM264 696q174 -91 173 -94q-3 -19 -3 -20q-98 30 -202 61q-15 5 -15 22q0 13 9.5 24t22.5 11q8 0 15 -4z" />
    <glyph glyph-name="Atilde" unicode="&#xc3;" horiz-adv-x="752" 
d="M740 120q-9 -31 -58.5 -74.5t-79.5 -43.5q-31 0 -57 40q-16 25 -40 85q-22 56 -34 72q-19 2 -41 2q8 0 -75 -3l-96 -138q-60 -75 -142 -75q-55 0 -87 69q-26 55 -26 117q0 137 107 258q111 125 246 125q28 0 42 -9q18 -12 35 -25q2 6 7 13t5 13q0 7 -3 21q8 16 38 31
q24 12 47 23q0 -9 -4 -27l-50 -117l80 -232q70 -187 99 -187q13 0 40 25q17 19 35 37h12zM457 249v11q0 8 -16.5 48.5t-21.5 46.5q-12 -22 -40 -106q15 -3 35 -3q16 0 43 3zM398 416q0 25 -45 55.5t-71 30.5q-83 0 -145 -104q-54 -92 -54 -181q0 -56 19 -106q25 -66 73 -66
q36 0 81 57q42 55 45 94q-4 2 -9 3q-39 0 -111 -30v12q23 29 59 44q21 9 57 17q30 5 35 11q12 13 39 80t27 83zM282 655q-60 0 -60 -21l-23 -1q0 28 33 53q31 22 60 22q25 0 54.5 -18t62.5 -18q30 0 55 28h24q0 -28 -35.5 -53t-65.5 -25q-23 0 -50.5 16.5t-54.5 16.5z" />
    <glyph glyph-name="Otilde" unicode="&#xd5;" horiz-adv-x="766" 
d="M282 655q-60 0 -60 -21l-23 -1q0 28 33 53q31 22 60 22q25 0 54.5 -18t62.5 -18q30 0 55 28h24q0 -28 -35.5 -53t-65.5 -25q-23 0 -50.5 16.5t-54.5 16.5zM640 269q0 43 -23 77t-47 68q-9 13 -48 95q-42 -43 -60 -76q-22 -39 -26 -92q-5 -70 -23 -145q-13 -52 -43 -155
q26 -6 43 -6q102 0 164.5 65.5t62.5 168.5zM724 300q0 -68 -50 -138q-42 -59 -107 -105q-118 -83 -214 -93q-52 -95 -85 -92q13 23 27 47q15 28 18 49q-102 8 -196 74q-114 81 -114 199q0 93 57 166q68 86 190 102q0 -8 -44 -38q-52 -36 -78 -68q-43 -51 -43 -113
q0 -89 84 -156q64 -52 165 -83q6 15 10 39q16 89 33 177q15 85 15 179q0 7 -6.5 21t-9.5 14q-12 1 -25 -7t-27 -16q1 21 53 53q9 5 74 38q3 -22 0 -45q-3 -31 -3 -45q0 -26 1 -11q1 16 0 28q0 14 -2 -10q108 121 157 134q0 -44 60 -149t60 -151z" />
    <glyph glyph-name="OE" unicode="&#x152;" horiz-adv-x="1203" 
d="M1241 576q-31 -46 -137 -129q-116 -92 -153 -135q16 0 47.5 2.5t48.5 2.5q83 0 116 -25q-7 -14 -50 -49q-11 11 -85 12q-47 0 -94 1l-22 -163q-10 27 -13 80q-2 41 -4 83h-3q-8 0 -26 -4.5t-26 -4.5q6 9 33 32q23 20 28 37q2 6 13 64q16 77 56 147q48 81 109 109
q-17 -24 -48 -73q1 -14 40 -14q61 0 170 27zM1113 500h-22q-15 -1 -23 -1q-44 0 -63 13q-15 -37 -30 -75q-18 -45 -23 -76zM724 300q0 -20 -5 -42q1 -90 78 -157t168 -67q33 0 74 9q49 10 66 26l5 -3q-18 -36 -82 -62q-57 -22 -105 -22q-81 0 -153 47.5t-103 122.5
q-41 -54 -100 -95q-118 -83 -214 -93q-52 -95 -85 -92q13 23 27 47q15 28 18 49q-102 8 -196 74q-114 81 -114 199q0 87 67 167q72 87 162 84q-1 -8 -39 -34q-47 -31 -70 -60q-38 -46 -38 -108q0 -89 84 -156q64 -52 165 -83q6 15 10 39q43 271 43 460q0 12 -3 58
q-4 50 -6 51q-12 1 -25.5 -7t-26.5 -16q1 22 53 63q42 33 74 49q3 -30 3 -118q0 -60 -9 -164q108 121 157 134q0 -41 41 -116q58 -105 64 -121q32 29 68 38q-40 -43 -53 -99v-2zM640 269q0 43 -23 77t-47 68q-9 13 -48 95q-42 -43 -60 -76q-22 -39 -26 -92q-5 -70 -23 -145
q-13 -52 -43 -155q26 -6 43 -6q102 0 164.5 65.5t62.5 168.5z" />
    <glyph glyph-name="oe" unicode="&#x153;" horiz-adv-x="572" 
d="M268 186q-13 60 -51 111q-44 59 -90 57q-29 -1 -41 -35q-10 -25 -8 -58q5 -79 38 -131q15 -25 41 -48q32 -28 54 -27q31 1 48 38q14 30 13 62q0 12 -4 31zM396 -5q-55 2 -99 100q-26 -31 -56 -55q-75 -56 -89 -57q-23 0 -77 55q-51 52 -60 78q-15 47 -16 80q-3 79 54 137
q33 34 126 88h5q14 1 53.5 -20.5t70.5 -64.5q67 88 120 88q21 0 115 -44q-35 -56 -116 -117q-71 -53 -71 -58q0 -30 30 -85q32 -60 59 -60q23 0 96 58l8 -16q-23 -18 -81 -59q-67 -48 -72 -48zM372 370q-35 -35 -28 -117q1 -10 3 -18q82 44 113 102q-44 27 -88 33z" />
    <glyph glyph-name="endash" unicode="&#x2013;" horiz-adv-x="455" 
d="M-1 221l29 66h389l-27 -66h-391z" />
    <glyph glyph-name="emdash" unicode="&#x2014;" horiz-adv-x="829" 
d="M-1 221l29 66h769l-27 -66h-771z" />
    <glyph glyph-name="quotedblleft" unicode="&#x201c;" horiz-adv-x="333" 
d="M4 590q0 -16 4 -29q9 -27 45 -62q33 -33 63 -49q4 1 4 8q0 2 -15 32.5t-15 60.5q0 34 24 82q0 4 -25.5 21.5t-40.5 23.5q-3 1 -8.5 -1t-7.5 -2q-17 -17 -24 -48q-4 -19 -4 -37zM164 590q0 -16 4 -29q9 -27 45 -62q33 -33 63 -49q4 1 4 8q0 2 -15 32.5t-15 60.5
q0 34 24 82q0 4 -25.5 21.5t-40.5 23.5q-3 1 -8.5 -1t-7.5 -2q-17 -17 -24 -48q-4 -19 -4 -37z" />
    <glyph glyph-name="quotedblright" unicode="&#x201d;" horiz-adv-x="333" 
d="M280 590q0 -16 -5 -29q-8 -27 -42.5 -61t-64.5 -50q-4 1 -4 8q0 2 15 32.5t15 60.5q0 34 -24 82q0 4 25.5 21.5t39.5 23.5q3 1 9 -1t8 -2q17 -17 23 -48q5 -19 5 -37zM120 590q0 -16 -5 -29q-8 -27 -42.5 -61t-64.5 -50q-4 1 -4 8q0 2 15 32.5t15 60.5q0 34 -24 82
q0 4 25.5 21.5t39.5 23.5q3 1 9 -1t8 -2q17 -17 23 -48q5 -19 5 -37z" />
    <glyph glyph-name="quoteleft" unicode="&#x2018;" horiz-adv-x="185" 
d="M12 600q0 -16 4 -29q9 -27 45 -62q33 -33 63 -49q4 1 4 8q0 2 -15 32.5t-15 60.5q0 34 24 82q0 4 -25.5 21.5t-40.5 23.5q-2 1 -8 -1t-8 -2q-17 -17 -24 -48q-4 -19 -4 -37z" />
    <glyph glyph-name="quoteright" unicode="&#x2019;" horiz-adv-x="185" 
d="M120 600q0 -16 -5 -29q-8 -27 -42.5 -61t-64.5 -50q-4 1 -4 8q0 2 15 32.5t15 60.5q0 34 -24 82q0 4 25.5 21.5t39.5 23.5q3 1 9 -1t8 -2q17 -17 23 -48q5 -19 5 -37z" />
    <glyph glyph-name="divide" unicode="&#xf7;" 
 />
    <glyph glyph-name="ydieresis" unicode="&#xff;" horiz-adv-x="394" 
d="M74 -331q-47 0 -81 17l-12 18q2 39 91 154.5t115 115.5q2 0 2 -3l6 -2q-118 -130 -133 -219q22 -26 63 -26q79 0 109 62q21 43 23 133q6 211 14 371q-151 -290 -201 -290q-22 0 -33 89q-7 58 -7 118q0 94 5 157q31 39 77 54q1 -4 1 -9q0 -10 -2.5 -30.5t-2.5 -30.5
q0 -20 -2 -60.5t-2 -61.5q0 -64 25 -129q79 93 143 226q10 24 35 70q16 23 29 23q3 0 10 -9l-11 -361l-9 -180q-3 -72 -93 -136q-84 -61 -159 -61zM228 515q0 19 14 32.5t33 13.5t33 -13.5t14 -32.5q0 -20 -14 -33.5t-33 -13.5t-33 13.5t-14 33.5zM67 515q0 19 13.5 32.5
t32.5 13.5q20 0 33.5 -13.5t13.5 -32.5q0 -20 -13.5 -33.5t-33.5 -13.5q-19 0 -32.5 13.5t-13.5 33.5z" />
    <glyph glyph-name="Ydieresis" unicode="&#x178;" horiz-adv-x="657" 
d="M611 385q0 -96 -79 -221q-78 -120 -189 -203q-120 -90 -221 -90q-55 0 -85 6q-4 7 -17 24q78 -11 128 -2q16 3 90 40q81 40 81 54q0 3 -11 23q-14 24 -18 32q-52 111 -98 241q-20 55 -62 174q-4 11 -15 11q-5 0 -13 -2q-47 -22 -47 -110q0 -48 21 -63l8 -10
q-35 -16 -51 -16q-12 0 -20 27q-7 21 -7 36q0 63 70 145q64 75 101 82q18 -25 36 -69q24 -59 32 -73q37 59 81 99q57 50 107 50h40q67 -6 106 -71q32 -53 32 -114zM529 355q0 61 -35 106q-38 49 -99 49q-115 0 -115 -164q0 -50 44 -159q33 -83 63 -136q62 62 102 147.5
t40 156.5zM378 655q0 19 14 32.5t33 13.5t33 -13.5t14 -32.5q0 -20 -14 -33.5t-33 -13.5t-33 13.5t-14 33.5zM217 655q0 19 13.5 32.5t32.5 13.5q20 0 33.5 -13.5t13.5 -32.5q0 -20 -13.5 -33.5t-33.5 -13.5q-19 0 -32.5 13.5t-13.5 33.5z" />
    <glyph glyph-name="currency" unicode="&#xa4;" 
 />
    <glyph glyph-name="guilsinglleft" unicode="&#x2039;" horiz-adv-x="181" 
d="M122 466l17 -8l-46 -136l50 -141l-17 -7l-107 145l1 3l-1 2l3 1z" />
    <glyph glyph-name="guilsinglright" unicode="&#x203a;" horiz-adv-x="181" 
d="M40 466l-16 -8l45 -136l-50 -141l17 -7l107 145l-1 3l1 2l-2 1z" />
    <glyph glyph-name="daggerdbl" unicode="&#x2021;" 
 />
    <glyph glyph-name="periodcentered" unicode="&#xb7;" horiz-adv-x="195" 
d="M19 295q0 26 18.5 44.5t45.5 18.5q26 0 44.5 -18.5t18.5 -44.5q0 -27 -18.5 -45.5t-44.5 -18.5q-27 0 -45.5 18.5t-18.5 45.5z" />
    <glyph glyph-name="periodcentered" unicode="&#x2219;" horiz-adv-x="195" 
d="M19 295q0 26 18.5 44.5t45.5 18.5q26 0 44.5 -18.5t18.5 -44.5q0 -27 -18.5 -45.5t-44.5 -18.5q-27 0 -45.5 18.5t-18.5 45.5z" />
    <glyph glyph-name="quotesinglbase" unicode="&#x201a;" horiz-adv-x="185" 
d="M120 50q0 -16 -5 -29q-8 -27 -42.5 -61t-64.5 -50q-4 1 -4 8q0 2 15 32.5t15 60.5q0 34 -24 82q0 4 25.5 21.5t39.5 23.5q3 1 9 -1t8 -2q17 -17 23 -48q5 -19 5 -37z" />
    <glyph glyph-name="quotedblbase" unicode="&#x201e;" horiz-adv-x="333" 
d="M280 40q0 -16 -5 -29q-8 -27 -42.5 -61t-64.5 -50q-4 1 -4 8q0 2 15 32.5t15 60.5q0 34 -24 82q0 4 25.5 21.5t39.5 23.5q3 1 9 -1t8 -2q17 -17 23 -48q5 -19 5 -37zM120 40q0 -16 -5 -29q-8 -27 -42.5 -61t-64.5 -50q-4 1 -4 8q0 2 15 32.5t15 60.5q0 34 -24 82
q0 4 25.5 21.5t39.5 23.5q3 1 9 -1t8 -2q17 -17 23 -48q5 -19 5 -37z" />
    <glyph glyph-name="perthousand" unicode="&#x2030;" 
 />
    <glyph glyph-name="Acircumflex" unicode="&#xc2;" horiz-adv-x="752" 
d="M740 120q-9 -31 -58.5 -74.5t-79.5 -43.5q-31 0 -57 40q-16 25 -40 85q-22 56 -34 72q-19 2 -41 2q8 0 -75 -3l-96 -138q-60 -75 -142 -75q-55 0 -87 69q-26 55 -26 117q0 137 107 258q111 125 246 125q28 0 42 -9q18 -12 35 -25q-1 14 6 35l85 54l-4 -27l-47 -105
l80 -232q70 -187 99 -187q13 0 40 25q17 19 35 37h12zM457 249v11q0 8 -16.5 48.5t-21.5 46.5q-12 -22 -40 -106q15 -3 35 -3q16 0 43 3zM398 416q0 25 -45 55.5t-71 30.5q-83 0 -145 -104q-54 -92 -54 -181q0 -56 19 -106q25 -66 73 -66q36 0 81 57q42 55 45 94q-4 2 -9 3
q-39 0 -111 -30v12q23 29 59 44q21 9 57 17q30 5 35 11q12 13 39 80t27 83zM209 621l3 -11l122 54l121 -54l2 11q-92 73 -98.5 78.5t-22.5 22.5l-2 -1l-2 1l-1 -3z" />
    <glyph glyph-name="Ecircumflex" unicode="&#xca;" horiz-adv-x="558" 
d="M591 576q-31 -46 -137 -129q-116 -92 -153 -135q16 0 47.5 2.5t48.5 2.5q83 0 116 -25q-7 -14 -50 -49q-11 11 -85 12q-47 0 -94 1l-22 -163q-10 27 -13 80q-2 41 -4 83h-3q-8 0 -26 -4.5t-26 -4.5q6 9 33 32q23 20 28 37q2 6 13 64q17 85 37 124q29 60 88 87
q-6 -9 -6 -12q0 -1 1.5 -1.5t1.5 -1.5q0 -4 -5 -13q1 -14 40 -14q61 0 170 27zM460 66q-18 -36 -82 -62q-57 -22 -105 -22q-105 0 -188 75q-86 77 -86 181q0 52 39 101.5t89 61.5q-58 -61 -58 -142q0 -91 79 -159q75 -66 167 -66q33 0 74 9q49 10 66 26zM463 500h-22
q-15 -1 -23 -1q-44 0 -63 13q-15 -37 -30 -75q-18 -45 -23 -76zM189 611l3 -11l122 54l121 -54l2 11q-92 73 -98.5 78.5t-22.5 22.5l-2 -1l-2 1l-1 -3z" />
    <glyph glyph-name="Aacute" unicode="&#xc1;" horiz-adv-x="752" 
d="M740 120q-9 -31 -58.5 -74.5t-79.5 -43.5q-31 0 -57 40q-16 25 -40 85q-22 56 -34 72q-19 2 -41 2q8 0 -75 -3l-96 -138q-60 -75 -142 -75q-55 0 -87 69q-26 55 -26 117q0 137 107 258q111 125 246 125q28 0 42 -9q18 -12 35 -25q11 14 13 33t12 38q14 10 41.5 22
t35.5 12q2 0 1 -2l-63 -146l80 -232q70 -187 99 -187q13 0 40 25q17 19 35 37h12zM457 249v11q0 8 -16.5 48.5t-21.5 46.5q-12 -22 -40 -106q15 -3 35 -3q16 0 43 3zM398 416q0 25 -45 55.5t-71 30.5q-83 0 -145 -104q-54 -92 -54 -181q0 -56 19 -106q25 -66 73 -66
q36 0 81 57q42 55 45 94q-4 2 -9 3q-39 0 -111 -30v12q23 29 59 44q21 9 57 17q30 5 35 11q12 13 39 80t27 83zM407 696q-174 -91 -173 -94q3 -20 6 -17q97 28 199 58q15 5 15 22q0 13 -9.5 24t-22.5 11q-8 0 -15 -4z" />
    <glyph glyph-name="Edieresis" unicode="&#xcb;" horiz-adv-x="558" 
d="M591 576q-31 -46 -137 -129q-116 -92 -153 -135q16 0 47.5 2.5t48.5 2.5q83 0 116 -25q-7 -14 -50 -49q-11 11 -85 12q-47 0 -94 1l-22 -163q-10 27 -13 80q-2 41 -4 83h-3q-8 0 -26 -4.5t-26 -4.5q6 9 33 32q23 20 28 37q2 6 13 64q20 102 28 120q22 56 80 82
q-4 -6 -4 -8t8 0q8 1 8 -3q0 -2 -3 -8q1 -14 40 -14q61 0 170 27zM460 66q-18 -36 -82 -62q-57 -22 -105 -22q-105 0 -188 75q-86 77 -86 181q0 52 39 101.5t89 61.5q-58 -61 -58 -142q0 -91 79 -159q75 -66 167 -66q33 0 74 9q49 10 66 26zM463 500h-22q-15 -1 -23 -1
q-44 0 -63 13q-15 -37 -30 -75q-18 -45 -23 -76zM348 645q0 19 14 32.5t33 13.5t33 -13.5t14 -32.5q0 -20 -14 -33.5t-33 -13.5t-33 13.5t-14 33.5zM187 645q0 19 13.5 32.5t32.5 13.5q20 0 33.5 -13.5t13.5 -32.5q0 -20 -13.5 -33.5t-33.5 -13.5q-19 0 -32.5 13.5
t-13.5 33.5z" />
    <glyph glyph-name="Egrave" unicode="&#xc8;" horiz-adv-x="558" 
d="M555 566q-31 -46 -137 -130q-116 -91 -152 -134q15 0 47 2.5t48 2.5q83 0 116 -25q-7 -14 -50 -49q-11 11 -85 12q-47 0 -94 1l-22 -163q-9 27 -13 80q-2 41 -4 83h-3q-8 0 -26 -4.5t-26 -5.5q7 10 34 33q22 20 27 36q2 7 13 65q15 75 40 120q29 55 83 88
q-8 -11 -3.5 -11.5t-2.5 -13.5q1 -14 40 -14q61 0 170 27zM460 66q-18 -36 -82 -62q-57 -22 -105 -22q-105 0 -188 75q-86 77 -86 181q0 62 37 122q44 72 121 93q-38 -34 -64 -95q-24 -57 -24 -99q0 -91 79 -159q75 -66 167 -66q33 0 74 9q49 10 66 26zM435 500q-6 0 -22 -1
h-22q-45 0 -63 12l-30 -74q-18 -45 -23 -77zM264 706q174 -91 173 -94q-4 -20 -6 -17q-97 28 -199 58q-15 5 -15 22q0 13 9.5 24t22.5 11q8 0 15 -4z" />
    <glyph glyph-name="Iacute" unicode="&#xcd;" horiz-adv-x="499" 
d="M462 554l-40 -40q-18 -22 -18 -54q0 -36 18 -112t18 -116q0 -171 -262 -257q-20 -42 -45 -91q-4 -6 -21 -14q10 31 27 92q42 168 53 221q24 121 24 226v89q-5 -3 -27 -3q-184 0 -196 40q65 43 71 43q3 0 21 -10.5t23 -11.5q34 -10 108 -10q1 3 3 8q0 1 -1.5 6t-4 7
t-2.5 10q0 16 17 23t33 14q5 -6 5 -11q0 -3 -2.5 -10t-2.5 -13q0 -16 -2.5 -17t-1.5 -17q136 5 205 8zM376 515q-25 -4 -75 -10q-25 -1 -51 -7q1 -66 -4 -194q42 24 53 24q23 0 28 -6q-25 -44 -44 -66l-23 13q-4 0 -8.5 5t-5.5 5q-2 0 -3 -2q-20 -129 -44 -223
q19 -13 46 -13q118 0 118 144q0 39 -27 192q-6 29 -6 24q0 26 13.5 62t32.5 52zM317 726q-174 -91 -173 -94q3 -20 6 -17q97 28 199 58q15 5 15 22q0 13 -9.5 24t-22.5 11q-8 0 -15 -4z" />
    <glyph glyph-name="Icircumflex" unicode="&#xce;" horiz-adv-x="494" 
d="M462 554l-40 -40q-18 -22 -18 -54q0 -36 18 -112t18 -116q0 -171 -262 -257q-20 -42 -45 -91q-4 -6 -21 -14q10 31 27 92q42 168 53 221q24 121 24 226v89q-5 -3 -27 -3q-194 0 -206 40q65 43 71 43q3 0 21 -10.5t23 -11.5q34 -10 118 -10q0 11 -1.5 17t-6 8t-4.5 9
q0 16 18 21q29 7 33 9q5 -5 5 -12q1 -5 0 -13q-2 -10 -2 -15q0 -14 -1 -14q0 2 -1 3q0 -7 1 -13q136 5 205 8zM376 515q-25 -4 -75 -10q-25 -1 -51 -7q1 -66 -4 -194q42 24 53 24q23 0 28 -6q-25 -44 -44 -66l-23 13q-4 0 -8.5 5t-5.5 5q-2 0 -3 -2q-20 -129 -44 -223
q19 -13 46 -13q118 0 118 144q0 39 -27 192q-6 29 -6 24q0 26 13.5 62t32.5 52zM109 611l3 -11l122 54l121 -54l2 11q-92 73 -98.5 78.5t-22.5 22.5l-2 -1l-2 1l-1 -3z" />
    <glyph glyph-name="Idieresis" unicode="&#xcf;" horiz-adv-x="494" 
d="M462 554l-40 -40q-18 -22 -18 -54q0 -36 18 -112t18 -116q0 -171 -262 -257q-20 -42 -45 -91q-4 -6 -21 -14q10 31 27 92q42 168 53 221q24 121 24 226v89q-5 -3 -27 -3q-194 0 -206 40q65 43 71 43q3 0 21 -10.5t23 -11.5q34 -10 118 -10q0 2 -5 21v13q0 16 18 19
q27 4 32 8q5 -5 5 -11q0 -2 -2.5 -9.5t-2.5 -13.5q0 -24 -1 -26q-1 -1 -3 5v-6q136 5 205 8zM376 515q-25 -4 -75 -10q-25 -1 -51 -7q1 -66 -4 -194q42 24 53 24q23 0 28 -6q-25 -44 -44 -66l-23 13q-4 0 -8.5 5t-5.5 5q-2 0 -3 -2q-20 -129 -44 -223q19 -13 46 -13
q118 0 118 144q0 39 -27 192q-6 29 -6 24q0 26 13.5 62t32.5 52zM278 655q0 19 14 32.5t33 13.5t33 -13.5t14 -32.5q0 -20 -14 -33.5t-33 -13.5t-33 13.5t-14 33.5zM117 655q0 19 13.5 32.5t32.5 13.5q20 0 33.5 -13.5t13.5 -32.5q0 -20 -13.5 -33.5t-33.5 -13.5
q-19 0 -32.5 13.5t-13.5 33.5z" />
    <glyph glyph-name="Igrave" unicode="&#xcc;" horiz-adv-x="494" 
d="M462 554l-40 -40q-18 -22 -18 -54q0 -36 18 -112t18 -116q0 -171 -262 -257q-20 -42 -45 -91q-4 -6 -21 -14q10 31 27 92q42 168 53 221q24 121 24 226v89q-5 -3 -27 -3q-194 0 -206 40q65 43 71 43q3 0 21 -10.5t23 -11.5q34 -10 118 -10q0 8 2 8q0 1 -1.5 7t-8 9
t-6.5 10q0 14 10 14h8q6 -1 10 -1q8 0 15 4q3 -3 10 -7q3 -1 3 -10q0 -16 -1 -17t0 -17q136 5 205 8zM376 515q-25 -4 -75 -10q-25 -1 -51 -7q1 -66 -4 -194q42 24 53 24q23 0 28 -6q-25 -44 -44 -66l-23 13q-4 0 -8.5 5t-5.5 5q-2 0 -3 -2q-20 -129 -44 -223q19 -13 46 -13
q118 0 118 144q0 39 -27 192q-6 29 -6 24q0 26 13.5 62t32.5 52zM194 726q174 -91 173 -94q-4 -20 -6 -17q-97 28 -199 58q-15 5 -15 22q0 13 9.5 24t22.5 11q8 0 15 -4z" />
    <glyph glyph-name="Oacute" unicode="&#xd3;" horiz-adv-x="764" 
d="M640 269q0 43 -23 77t-47 68q-9 13 -48 95q-42 -43 -60 -76q-22 -39 -26 -92q-5 -70 -23 -145q-13 -52 -43 -155q26 -6 43 -6q102 0 164.5 65.5t62.5 168.5zM724 300q0 -68 -50 -138q-42 -59 -107 -105q-118 -83 -214 -93q-52 -95 -85 -92q13 23 27 47q15 28 18 49
q-102 8 -196 74q-114 81 -114 199q0 87 67 167q72 87 162 84q-1 -8 -39 -34q-47 -31 -70 -60q-38 -46 -38 -108q0 -89 84 -156q64 -52 165 -83q6 15 10 39q14 85 29 169q11 73 11 171q0 107 -4 108q-12 1 -25.5 -7t-27.5 -16q1 22 54 63q41 33 74 49q3 -30 3 -118
q0 -23 -2 -24q-5 4 -4 4q-3 0 -5 -23q108 121 157 134q0 -44 60 -149t60 -151zM442 732q-173 -91 -173 -93q4 -21 6 -18q97 28 200 58q15 6 15 22q0 13 -9.5 24t-22.5 11q-8 0 -16 -4z" />
    <glyph glyph-name="Ocircumflex" unicode="&#xd4;" horiz-adv-x="764" 
d="M640 269q0 43 -23 77t-47 68q-9 13 -48 95q-42 -43 -60 -76q-22 -39 -26 -92q-5 -70 -23 -145q-13 -52 -43 -155q26 -6 43 -6q102 0 164.5 65.5t62.5 168.5zM724 300q0 -68 -50 -138q-42 -59 -107 -105q-118 -83 -214 -93q-52 -95 -85 -92q13 23 27 47q15 28 18 49
q-102 8 -196 74q-114 81 -114 199q0 87 67 167q72 87 162 84q-1 -8 -39 -34q-47 -31 -70 -60q-38 -46 -38 -108q0 -89 84 -156q64 -52 165 -83q6 15 10 39q27 172 30 197q13 99 13 199q0 27 -7 28q-12 2 -25.5 -6t-27.5 -17q1 23 55 70q47 40 76 55v-131q0 -19 -2 -15l-4 12
q-3 4 -5 -16q108 121 157 134q0 -44 60 -149t60 -151zM277 632l4 -11l121 54l121 -54l3 11q-92 73 -99 78.5t-23 22.5l-2 -1l-2 1l-1 -2z" />
    <glyph glyph-name="Ograve" unicode="&#xd2;" horiz-adv-x="764" 
d="M640 269q0 43 -23 77t-47 68q-9 13 -48 95q-42 -43 -60 -76q-22 -39 -26 -92q-5 -70 -23 -145q-13 -52 -43 -155q26 -6 43 -6q102 0 164.5 65.5t62.5 168.5zM724 300q0 -68 -50 -138q-42 -59 -107 -105q-118 -83 -214 -93q-52 -95 -85 -92q13 23 27 47q15 28 18 49
q-102 8 -196 74q-114 81 -114 199q0 93 57 166q68 86 190 102q0 -8 -44 -38q-52 -36 -78 -68q-43 -51 -43 -113q0 -89 84 -156q64 -52 165 -83q6 15 10 39q16 89 33 177q15 85 15 179q0 7 -6.5 21t-9.5 14q-12 1 -25 -7t-27 -16q1 21 53 53q9 5 74 38q3 -22 0 -45
q-3 -31 -3 -45q0 -26 1 -11q1 16 0 28q0 14 -2 -10q108 121 157 134q0 -44 60 -149t60 -151zM294 696q174 -91 173 -94q-4 -20 -6 -17q-97 28 -199 58q-15 5 -15 22q0 13 9.5 24t22.5 11q8 0 15 -4z" />
    <glyph glyph-name="Uacute" unicode="&#xda;" horiz-adv-x="739" 
d="M710 136q0 -15 1 -33q2 -4 -59 -66q-64 -64 -80 -64q-18 0 -44 42q-11 16 -18 44l-12 46q-84 -101 -146 -114q-38 -8 -39 -8q-17 0 -88 15q-89 19 -96 20q43 52 69.5 128.5t27.5 145.5q2 124 -21 210q-140 -87 -140 -211q0 -7 3 -18q4 -14 5 -17q-31 14 -50 23
q-5 1 -14 5q-5 4 -5 21q0 69 102 160q50 45 163 122q18 -10 28 -92q7 -57 7 -110q0 -93 -28 -191q-12 -40 -53 -104q77 -35 118 -35q99 0 141 76q17 32 17 175q0 148 -10 174q-5 6 -12 18q21 21 87 67q16 3 16 -22v-407q1 -22 13 -50q15 -31 33 -38q24 15 45 41q29 37 39 47
zM426 718q-173 -91 -173 -93q4 -21 6 -18q97 28 199 58q16 6 16 22q0 13 -9.5 24t-22.5 11q-8 0 -16 -4z" />
    <glyph glyph-name="Ucircumflex" unicode="&#xdb;" horiz-adv-x="739" 
d="M710 136q0 -15 1 -33q2 -4 -59 -66q-64 -64 -80 -64q-18 0 -44 42q-11 16 -18 44l-12 46q-84 -101 -146 -114q-38 -8 -39 -8q-17 0 -88 15q-89 19 -96 20q43 52 69.5 128.5t27.5 145.5q2 124 -21 210q-140 -87 -140 -211q0 -7 3 -18q4 -14 5 -17q-31 14 -50 23
q-5 1 -14 5q-5 4 -5 21q0 69 102 160q50 45 163 122q18 -10 28 -92q7 -57 7 -110q0 -93 -28 -191q-12 -40 -53 -104q77 -35 118 -35q99 0 141 76q17 32 17 175q0 148 -10 174q-5 6 -12 18q21 21 87 67q16 3 16 -22v-407q1 -22 13 -50q15 -31 33 -38q24 15 45 41q29 37 39 47
zM259 621l3 -11l122 54l121 -54l2 11q-92 73 -98.5 78.5t-22.5 22.5l-2 -1l-2 1l-1 -3z" />
    <glyph glyph-name="Ugrave" unicode="&#xd9;" horiz-adv-x="739" 
d="M710 136q0 -15 1 -33q2 -4 -59 -66q-64 -64 -80 -64q-18 0 -44 42q-11 16 -18 44l-12 46q-84 -101 -146 -114q-38 -8 -39 -8q-17 0 -88 15q-89 19 -96 20q43 52 69.5 128.5t27.5 145.5q2 124 -21 210q-140 -87 -140 -211q0 -7 3 -18q4 -14 5 -17q-31 14 -50 23
q-5 1 -14 5q-5 4 -5 21q0 69 102 160q50 45 163 122q18 -10 28 -92q7 -57 7 -110q0 -93 -28 -191q-12 -40 -53 -104q77 -35 118 -35q99 0 141 76q17 32 17 175q0 148 -10 174q-5 6 -12 18q21 21 87 67q16 3 16 -22v-407q1 -22 13 -50q15 -31 33 -38q24 15 45 41q29 37 39 47
zM294 696q174 -91 173 -94q-3 -19 -3 -20q-98 30 -202 61q-15 5 -15 22q0 13 9.5 24t22.5 11q8 0 15 -4z" />
    <glyph glyph-name="circumflex" unicode="&#x2c6;" horiz-adv-x="373" 
d="M49 621l3 -11l122 54l121 -54l2 11q-92 73 -98.5 78.5t-22.5 22.5l-2 -1l-2 1l-1 -3z" />
    <glyph glyph-name="tilde" unicode="&#x2dc;" horiz-adv-x="442" 
d="M152 725q-60 0 -60 -21l-23 -1q0 28 33 53q31 22 60 22q25 0 54.5 -18t62.5 -18q30 0 55 28h24q0 -28 -35.5 -53t-65.5 -25q-23 0 -50.5 16.5t-54.5 16.5z" />
    <glyph glyph-name="macron" unicode="&#xaf;" horiz-adv-x="280" 
d="M24 740h233v-52h-233v52z" />
    <glyph glyph-name="macron" unicode="&#x2c9;" horiz-adv-x="280" 
d="M24 740h233v-52h-233v52z" />
    <glyph glyph-name="cedilla" unicode="&#xb8;" horiz-adv-x="426" 
d="M193 -179q-10 0 -68 19l18 26q27 -16 65 -16q51 0 51 42q0 26 -47 26q-8 0 -50 1q0 5 6 36.5t6 42.5h32l-11 -53q50 8 47 8q38 0 52 -18q9 -13 9 -43q0 -71 -110 -71z" />
    <glyph glyph-name="Scaron" unicode="&#x160;" 
 />
    <glyph glyph-name="scaron" unicode="&#x161;" 
 />
    <glyph glyph-name="brokenbar" unicode="&#xa6;" 
 />
    <glyph glyph-name="Eth" unicode="&#xd0;" 
 />
    <glyph glyph-name="eth" unicode="&#xf0;" 
 />
    <glyph glyph-name="Yacute" unicode="&#xdd;" 
 />
    <glyph glyph-name="yacute" unicode="&#xfd;" 
 />
    <glyph glyph-name="Thorn" unicode="&#xde;" 
 />
    <glyph glyph-name="thorn" unicode="&#xfe;" 
 />
    <glyph glyph-name="minus" unicode="&#xad;" 
 />
    <glyph glyph-name="minus" unicode="&#x2212;" 
 />
    <glyph glyph-name="multiply" unicode="&#xd7;" 
 />
    <glyph glyph-name="onesuperior" unicode="&#xb9;" 
 />
    <glyph glyph-name="twosuperior" unicode="&#xb2;" 
 />
    <glyph glyph-name="threesuperior" unicode="&#xb3;" 
 />
    <glyph glyph-name="onehalf" unicode="&#xbd;" 
 />
    <glyph glyph-name="onequarter" unicode="&#xbc;" 
 />
    <glyph glyph-name="threequarters" unicode="&#xbe;" 
 />
    <glyph glyph-name="Lslash" unicode="&#x141;" 
 />
    <glyph glyph-name="lslash" unicode="&#x142;" 
 />
    <glyph glyph-name="HT" 
 />
    <glyph glyph-name="LF" 
 />
    <glyph glyph-name="nonmarkingreturn" 
 />
    <glyph glyph-name="Zcaron" unicode="&#x17d;" 
 />
    <glyph glyph-name="zcaron" unicode="&#x17e;" 
 />
    <glyph glyph-name="DLE" 
 />
    <glyph glyph-name="DC1" 
 />
    <glyph glyph-name="DC2" 
 />
    <glyph glyph-name="DC3" 
 />
    <glyph glyph-name="DC4" 
 />
    <glyph glyph-name="RS" 
 />
    <glyph glyph-name="US" 
 />
    <glyph glyph-name="notequal" unicode="&#x2260;" 
 />
    <glyph glyph-name="infinity" unicode="&#x221e;" 
 />
    <glyph glyph-name="lessequal" unicode="&#x2264;" 
 />
    <glyph glyph-name="greaterequal" unicode="&#x2265;" 
 />
    <glyph glyph-name="partialdiff" unicode="&#x2202;" horiz-adv-x="254" 
d="M256 327l-122 -97q17 -175 63 -178q7 0 38 30q19 20 38 39q-6 -31 -60.5 -83t-84.5 -50q-24 1 -51 87q-8 21 -23 90l-57 -46v48l49 40q-11 70 -4 189q7 145 47 187q65 67 120 97q70 39 148 35q19 -1 69 -27q-82 -202 -217 -264q39 46 78 91q50 64 52 102q1 19 -44 36
q-35 13 -61 14q-92 5 -105 -253q-3 -57 2 -139l125 101v-49z" />
    <glyph glyph-name="summation" unicode="&#x2211;" horiz-adv-x="613" 
d="M560 246q0 -44 -33 -102q-29 -52 -69 -90q-72 -67 -149 -67q-45 0 -120.5 29t-103.5 29q-32 0 -54 -20q-5 -5 -39 -49v10q0 50 48 93t98 43q34 0 110.5 -30t116.5 -30q60 0 96 34.5t36 95.5q0 26 -12 50q-16 32 -45 27q-43 -1 -121 -25q-69 -21 -107 -17q-52 6 -69 16
q-26 14 -26 53q1 83 68 154q59 61 155 100q34 14 88 14q17 0 51 -11q41 -14 41 -28q0 -4 -22 -28t-37 -36q-42 43 -106 43q-55 0 -109 -34q-63 -39 -63 -95q0 -22 13 -42q15 -25 37 -25q30 0 97.5 22t107.5 22q56 0 89 -30t33 -76zM497 700l-4 12l-121 -54l-121 54l-2 -12
q92 -72 98.5 -77.5t22.5 -22.5l2 1l2 -1l1 2z" />
    <glyph glyph-name="product" unicode="&#x220f;" horiz-adv-x="405" 
d="M167 -13q-19 0 -40 8q-33 11 -38 13q-18 4 -51 -16t-50 -42l8 30q11 40 49 71t77 31q23 0 51.5 -14.5t50.5 -14.5q85 0 85 82q0 17 -11 39q-12 26 -28 26q-32 0 -93 -19t-93 -19q-30 0 -49.5 17.5t-19.5 47.5q0 66 51 119q42 44 112 71q17 6 51 6q103 0 103 -24
q0 -16 -52 -59q-34 35 -79 35q-46 0 -80 -14q-45 -18 -45 -54q0 -15 10 -37q11 -26 24 -26q26 0 76 16t77 16q42 0 70.5 -23t28.5 -64q0 -66 -64.5 -134t-130.5 -68zM299 544l-4 9l-103 -46l-103 46l-2 -9q43 -33 103 -86l2 1l2 -1l1 2z" />
    <glyph glyph-name="pi" unicode="&#x3c0;" horiz-adv-x="657" 
d="M611 385q0 -96 -79 -221q-78 -120 -189 -203q-120 -90 -221 -90q-55 0 -85 6q-4 7 -17 24q78 -11 128 -2q16 3 90 40q81 40 81 54q0 3 -11 23q-14 24 -18 32q-52 111 -98 241q-20 55 -62 174q-4 11 -15 11q-5 0 -13 -2q-47 -22 -47 -110q0 -48 21 -63l8 -10
q-35 -16 -51 -16q-12 0 -20 27q-7 21 -7 36q0 63 70 145q64 75 101 82q18 -25 36 -69q24 -59 32 -73q37 59 81 99q57 50 107 50h40q67 -6 106 -71q32 -53 32 -114zM529 355q0 61 -35 106q-38 49 -99 49q-115 0 -115 -164q0 -50 44 -159q33 -83 63 -136q62 62 102 147.5
t40 156.5zM377 716q-174 -91 -173 -94q3 -20 6 -17q97 28 199 58q15 5 15 22q0 13 -9.5 24t-22.5 11q-8 0 -15 -4z" />
    <glyph glyph-name="integral" unicode="&#x222b;" horiz-adv-x="394" 
d="M74 -331q-47 0 -81 17l-12 18q2 39 91 154.5t115 115.5q2 0 2 -3l6 -2q-118 -130 -133 -219q22 -26 63 -26q79 0 109 62q21 43 23 133q6 211 14 371q-151 -290 -201 -290q-22 0 -33 89q-7 58 -7 118q0 94 5 157q31 39 77 54q1 -4 1 -9q0 -10 -2.5 -30.5t-2.5 -30.5
q0 -20 -2 -60.5t-2 -61.5q0 -64 25 -129q79 93 143 226q10 24 35 70q16 23 29 23q3 0 10 -9l-11 -361l-9 -180q-3 -72 -93 -136q-84 -61 -159 -61zM267 566q-174 -91 -173 -94q3 -20 6 -17q97 28 199 58q15 5 15 22q0 13 -9.5 24t-22.5 11q-8 0 -15 -4z" />
    <glyph glyph-name="Omega" unicode="&#x3a9;" horiz-adv-x="654" 
d="M329 278h-150q26 -250 204 -262q69 -5 123.5 36.5t59.5 110.5q5 77 -106 119q13 4 27 4q44 0 79.5 -36.5t31.5 -83.5q-13 -194 -257 -184q-114 5 -187 94q-67 83 -69 202h-81v37h80q0 33 5 63h-85v37h92q29 125 119 197t212 63q64 -4 109 -41q51 -42 50 -109
q0 -37 -29 -63q-26 -22 -62 -27q27 45 31 95q3 43 -31 79.5t-78 39.5q-97 7 -160 -59q-59 -63 -76 -175h148v-37h-151q-3 -30 -1 -63h152v-37z" />
    <glyph glyph-name="Omega" unicode="&#x2126;" horiz-adv-x="654" 
d="M329 278h-150q26 -250 204 -262q69 -5 123.5 36.5t59.5 110.5q5 77 -106 119q13 4 27 4q44 0 79.5 -36.5t31.5 -83.5q-13 -194 -257 -184q-114 5 -187 94q-67 83 -69 202h-81v37h80q0 33 5 63h-85v37h92q29 125 119 197t212 63q64 -4 109 -41q51 -42 50 -109
q0 -37 -29 -63q-26 -22 -62 -27q27 45 31 95q3 43 -31 79.5t-78 39.5q-97 7 -160 -59q-59 -63 -76 -175h148v-37h-151q-3 -30 -1 -63h152v-37z" />
    <glyph glyph-name="radical" unicode="&#x221a;" 
 />
    <glyph glyph-name="approxequal" unicode="&#x2248;" 
 />
    <glyph glyph-name="approxequal" unicode="&#x22f2;" 
 />
    <glyph glyph-name="Delta" unicode="&#x394;" horiz-adv-x="25" 
 />
    <glyph glyph-name="Delta" unicode="&#x2206;" horiz-adv-x="25" 
 />
    <glyph glyph-name="lozenge" unicode="&#x25ca;" horiz-adv-x="207" 
d="M10 282l78 108l78 -108l-78 -108z" />
    <glyph glyph-name="fraction" unicode="&#x2044;" 
 />
    <glyph glyph-name="fi" unicode="&#xf001;" 
 />
    <glyph glyph-name="fl" unicode="&#xf002;" 
 />
    <glyph glyph-name="apple" unicode="&#xf000;" 
 />
    <glyph glyph-name="dotlessi" unicode="&#x131;" horiz-adv-x="189" 
d="M188 116q-5 -18 -43 -64q-41 -49 -55 -49q-68 0 -68 192q0 16 2.5 51.5t2.5 51.5q0 30 -16 30q-5 0 -13 -1q11 17 52 44q36 23 61 33q1 -3 0 -17t-8 -60q-6 -37 -6 -59v-67q0 -32 11 -72q14 -52 35 -59q15 9 25.5 24.5t19.5 21.5z" />
    <glyph glyph-name="breve" unicode="&#x2d8;" horiz-adv-x="326" 
d="M45 784q3 -14 35 -34q36 -22 73 -21q82 1 120 55l29 -20q-63 -89 -151 -85q-50 2 -90.5 27t-46.5 61z" />
    <glyph glyph-name="dotaccent" unicode="&#x2d9;" horiz-adv-x="379" 
d="M134 705q0 22 16.5 38t38.5 16q23 0 39 -16t16 -38q0 -23 -16 -39t-39 -16q-22 0 -38.5 16t-16.5 39z" />
    <glyph glyph-name="ring" unicode="&#x2da;" horiz-adv-x="238" 
d="M109 837q30 0 51 -21.5t21 -50.5q0 -30 -21 -51.5t-51 -21.5t-51 21.5t-21 51.5q0 29 21 50.5t51 21.5zM109 802q-15 0 -26 -11t-11 -26q0 -16 11 -27t26 -11q16 0 26.5 11t10.5 27q0 15 -10.5 26t-26.5 11z" />
    <glyph glyph-name="hungarumlaut" unicode="&#x2dd;" horiz-adv-x="398" 
d="M295 730l-71 -40l-14 11l56 83q20 29 39 29q15 0 25.5 -11t10.5 -25q0 -22 -46 -47zM153 730l-71 -40l-13 11l55 83q20 29 39 29q15 0 25.5 -11t10.5 -25q0 -22 -46 -47z" />
    <glyph glyph-name="ogonek" unicode="&#x2db;" horiz-adv-x="443" 
d="M210 0h62q-33 -19 -52 -33q-31 -22 -31 -61q0 -20 19.5 -32t39.5 -12q44 0 105 20l18 -35q-80 -38 -162 -38q-37 0 -73 24q-33 21 -33 55q0 49 37 75q14 10 28 21q20 12 42 16z" />
    <glyph glyph-name="caron" unicode="&#x2c7;" horiz-adv-x="411" 
d="M323 694l-4 11l-121 -54l-122 54l-2 -11q92 -72 98.5 -77.5t22.5 -22.5l3 1l2 -1l1 2z" />
    </font>
</defs>
</svg>
