<?xml version="1.0" standalone="no"?>
<!DOCTYPE svg PUBLIC "-//W3C//DTD SVG 1.1//EN" "http://www.w3.org/Graphics/SVG/1.1/DTD/svg11.dtd" >
<svg>
<metadata>
Created by FontForge 20120731 at Tue Apr 16 16:03:14 2019
 By www-data
Digitized by Dan X. Solo. Software (c) 2001 by Dover Publications, Inc., New York.
</metadata>
<defs>
<font id="LibraryTextNormal" horiz-adv-x="20" >
  <font-face 
    font-family="Library Text"
    font-weight="400"
    font-stretch="normal"
    units-per-em="1000"
    panose-1="0 0 4 0 0 0 0 0 0 0"
    ascent="800"
    descent="-200"
    x-height="360"
    cap-height="688"
    bbox="-39 -301 979.214 858"
    underline-thickness="20"
    underline-position="-123"
    unicode-range="U+0020-F002"
  />
<missing-glyph horiz-adv-x="500" 
d="M63 0v800h375v-800h-375zM125 63h250v675h-250v-675z" />
    <glyph glyph-name=".notdef" horiz-adv-x="500" 
d="M63 0v800h375v-800h-375zM125 63h250v675h-250v-675z" />
    <glyph glyph-name="glyph1" horiz-adv-x="0" 
 />
    <glyph glyph-name="glyph2" horiz-adv-x="155" 
 />
    <glyph glyph-name="space" unicode=" " horiz-adv-x="155" 
 />
    <glyph glyph-name="exclam" unicode="!" horiz-adv-x="212" 
d="M142 609q-1 -8 -10 -26q-7 -14 -8 -78l-2 -209q0 -22 -17 -142h-40q-6 43 -17 145q0 81 -4 205q-3 40 -5 52q-7 35 -24 53h127zM86 120q13 -15 27 -31.5t31 -27.5l-64 -64q-7 10 -22 28q-11 7 -36 32z" />
    <glyph glyph-name="quotedbl" unicode="&#x22;" horiz-adv-x="230" 
d="M115 675l78 18q-18 -52 -22 -133q-1 -7 -3 -107h-29q-3 84 -7 115q-4 47 -17 107zM5 675l78 18q-18 -52 -22 -133q-1 -7 -3 -107h-29q-3 84 -7 115q-4 47 -17 107z" />
    <glyph glyph-name="numbersign" unicode="#" horiz-adv-x="422" 
d="M143 209h82l24 129h-81zM40 145l-40 -17l69 78l5 3h31l24 129h-51l-41 -17l70 78l4 3h30l23 127h40l-24 -127h81l23 127h40l-24 -127h57l45 22l-87 -86h-27l-25 -129l66 -1l46 23l-87 -86h-37l-28 -146h-37l27 146h-82l-28 -146h-37l27 146h-53z" />
    <glyph glyph-name="dollar" unicode="$" horiz-adv-x="285" 
d="M111 482h38v-46q54 -12 87 -40l-38 -63q-11 10 -54 28.5t-54 18.5q-17 0 -26 -25q0 -19 50 -41q82 -35 93 -43q51 -30 51 -68q0 -18 -40.5 -68t-68.5 -68v-51l-38 -3v62q-84 47 -115 51q14 27 24 37q16 15 40 15q37 0 73.5 -23l36.5 -23q23 0 23 32q0 26 -95 64t-95 69
q0 27 36 71t72 62v52z" />
    <glyph glyph-name="percent" unicode="%" horiz-adv-x="516" 
d="M189 12h-26l129 484h28zM489 167q0 -38 -22 -84t-45.5 -61.5t-52.5 -15.5q-38 0 -67 40q-32 41 -32 103q0 31 8 62q25 105 108 105q41 0 70 -37q33 -41 33 -112zM439 136q0 55 -40 136q-4 8 -16.5 16t-19.5 8q-25 0 -33 -25q-6 -19 -6 -70q0 -43 9 -70q30 -98 65 -98
q25 0 34 31q7 22 7 72zM219 357q0 -38 -22 -84t-45.5 -61.5t-52.5 -15.5q-38 0 -67 40q-32 41 -32 103q0 31 8 62q25 105 108 105q41 0 70 -37q33 -41 33 -112zM169 326q0 55 -40 136q-4 8 -16.5 16t-19.5 8q-25 0 -33 -25q-6 -19 -6 -70q0 -43 9 -70q30 -98 65 -98
q25 0 34 31q7 22 7 72z" />
    <glyph glyph-name="ampersand" unicode="&#x26;" horiz-adv-x="558" 
d="M348 348q38 4 77 9q54 8 76 26l52 34q-6 -51 -64 -75l-34 -15q69 -29 64 -110q-5 -108 -115 -170q-95 -54 -209 -48q-90 4 -143 58q-49 49 -49 119q0 58 35 108q37 54 105 82q-105 34 -105 122q-1 73 97 139q90 61 155 58q6 -1 16 -18q12 -22 22 -32q18 -18 47 -20
q21 -1 37 7t32 17q2 -43 -56 -62q-45 -15 -77 -9q-64 12 -99 73q-46 -14 -67 -61q-16 -38 -13 -85q5 -50 37 -68q22 -13 76 -16l-1 -7q-59 -16 -96.5 -68t-40.5 -116q-10 -188 143 -196q72 -4 128 48.5t60 124.5q5 102 -105 107q-34 2 -66.5 -26t-32.5 -62q0 -19 18.5 -31.5
t41.5 -14.5q16 -1 36 7q25 10 30 11q-6 -31 -38 -55.5t-69 -21.5q-32 2 -52 25.5t-17 61.5q5 60 55 103q47 41 109 47z" />
    <glyph glyph-name="quotesingle" unicode="'" horiz-adv-x="127" 
d="M5 675l78 18q-18 -52 -22 -133q-1 -7 -3 -107h-29q-3 84 -7 115q-4 47 -17 107z" />
    <glyph glyph-name="parenleft" unicode="(" horiz-adv-x="245" 
d="M164 21l33 -73l-94 92q-92 163 -92 324q0 150 82 255l100 76l-39 -61q-83 -167 -83 -286q0 -124 93 -327z" />
    <glyph glyph-name="parenright" unicode=")" horiz-adv-x="245" 
d="M45 21l-34 -73l95 92q91 163 91 324q0 150 -81 255l-101 76l40 -61q83 -167 83 -286q0 -124 -93 -327z" />
    <glyph glyph-name="asterisk" unicode="*" horiz-adv-x="403" 
d="M207 358l17 -40l-61 74v75l-89 -52l-28 -42l42 101l51 29l-84 49l-51 4l108 13l52 -29v97l-23 46l66 -87v-54l87 50l26 36l-34 -90l-60 -35l92 -53l43 -5l-94 -16l-60 35v-106z" />
    <glyph glyph-name="plus" unicode="+" horiz-adv-x="498" 
d="M266 48l13 -29l-56 50l-3 3l1 155h-183l-29 -13l50 57l3 2h159v179l-17 33l62 -63v-149h176l33 16l-63 -62h-146v-179z" />
    <glyph glyph-name="comma" unicode="," horiz-adv-x="181" 
d="M70 129q5 -13 14 -22q6 -9 25 -31q18 -17 18 -18q-1 -2 -2 -3l-58 -58q-13 -13 -20 -27.5t-16 -23.5l-17 12l22 31q6 12 15 27v0q-2 6 -18 26q-13 9 -28 23z" />
    <glyph glyph-name="hyphen" unicode="-" horiz-adv-x="305" 
d="M30 217l-41 -17l70 78l4 3h175l46 22l-87 -86h-167z" />
    <glyph glyph-name="hyphen" unicode="&#x2010;" horiz-adv-x="305" 
d="M30 217l-41 -17l70 78l4 3h175l46 22l-87 -86h-167z" />
    <glyph glyph-name="period" unicode="." horiz-adv-x="184" 
d="M67 118q13 -16 27 -32t32 -27l-65 -64q-7 10 -22 28q-11 7 -36 31z" />
    <glyph glyph-name="slash" unicode="/" horiz-adv-x="332" 
d="M33 -1h-37l245 676h40z" />
    <glyph glyph-name="zero" unicode="0" horiz-adv-x="313" 
d="M251 166q-6 -26 -51 -93q-46 -70 -63 -72q-12 -1 -52 36q-31 29 -53.5 76.5t-23.5 90.5q-4 115 85 225q42 54 51 54q8 0 45 -35q57 -53 72 -127q5 -23 5 -48q0 -42 -15 -107zM140 386q-31 27 -39 27q-12 -1 -29 -25q-13 -20 -15 -28q-11 -36 -11 -67q0 -35 13 -70
q34 -93 97 -139q18 -13 24 -13q16 1 44 57q8 30 8 60q0 118 -92 198z" />
    <glyph glyph-name="one" unicode="1" horiz-adv-x="284" 
d="M52 338q61 73 107 121q1 -125 0 -183v-89q1 -60 1 -89q0 -18 25 -41l2 -3l-46 -54q-33 26 -39 36.5t-6 40.5l-1 211h-4q6 10 4 61q-20 -5 -43 -11z" />
    <glyph glyph-name="two" unicode="2" horiz-adv-x="281" 
d="M222 22v-16q0 -19 -20 -48.5t-33 -31.5q-3 0 -11.5 -2t-12.5 -2q-32 0 -47.5 23t-28.5 46q-12 15 -29 15q-14 0 -32 -10q2 6 5 18t15 39q41 57 82 115q47 72 47 128q0 37 -19 67q-23 34 -58 34q-51 0 -67 -76q-7 8 -7 37q0 46 31 85t75 39q52 0 85 -54q27 -43 27 -87
q0 -63 -28 -107q-13 -22 -71 -82q-35 -37 -64 -77q35 1 54 -9q9 -5 13 -10q4 3 1 6q3 -3 7 0l-7 -7q2 -2 25 -36q17 -26 37 -26q17 0 31 29z" />
    <glyph glyph-name="three" unicode="3" horiz-adv-x="316" 
d="M90 -74q-75 0 -93 51h2q50 -36 74 -36q58 0 88 38q25 32 25 81q0 63 -32 101q-37 44 -112 47q36 25 72 51q38 33 38 75q0 26 -17.5 49.5t-44.5 23.5q-48 0 -58 -65q-12 32 -12 52q0 34 36 62q33 27 66 27q43 0 74.5 -37.5t31.5 -80.5t-88 -111q56 -4 93 -50
q32 -41 32 -86q0 -84 -46.5 -138t-128.5 -54z" />
    <glyph glyph-name="four" unicode="4" horiz-adv-x="370" 
d="M298 95q-1 0 -12 8t-16 8h-30v-47q0 -16 8 -37q9 -24 24 -33q-42 -16 -130 -55q11 19 21 75q5 15 2 97h-141q-15 15 -15 20q0 11 199 340h35l-1 -293q34 -5 64 1l25 5q-30 -89 -33 -89zM162 362l-101 -184q57 -5 101 -1v185z" />
    <glyph glyph-name="five" unicode="5" horiz-adv-x="303" 
d="M92 -79q-35 0 -59 31q40 -13 56 -13q48 0 78 49q24 40 24 80q0 59 -27 92q-18 22 -59 40q-45 19 -56 29q-24 20 -24 58q0 45 32 101q47 79 53 94q48 -26 62 -26q15 0 28.5 8t26.5 16q-4 -38 -31 -72t-62 -34q-6 0 -66 13q-10 -28 -10 -37q0 -32 46 -59q24 -11 56 -27
q95 -35 95 -156q0 -77 -48.5 -132t-114.5 -55z" />
    <glyph glyph-name="six" unicode="6" horiz-adv-x="317" 
d="M232 66q-56 -71 -84 -68q-63 4 -103 93q-35 78 -31 151q5 83 63 149.5t140 85.5q6 -23 7 -63q-177 0 -177 -152q0 -58 41 -123q45 -72 101 -72q44 0 41 41q-4 42 -41 92.5t-77 61.5l69 66q42 -45 58 -70q26 -42 26 -87q0 -63 -33 -105z" />
    <glyph glyph-name="seven" unicode="7" horiz-adv-x="294" 
d="M131 195q0 -21 12 -74q11 -47 10 -68q0 -17 -13 -39.5t-24 -22.5q-26 0 -41 31q-12 25 -12 57q0 89 107 278l15 25q7 13 1 17h-95q-35 0 -73 -23q17 40 56 109q18 -14 33 -14h146q-15 -32 -51 -87.5t-50 -85.5q-21 -50 -21 -103z" />
    <glyph glyph-name="eight" unicode="8" horiz-adv-x="290" 
d="M122 0q-17 0 -48 24q-24 19 -35 33q-29 37 -29 77q0 56 60 112q-51 54 -47 123q1 30 42 69.5t62 39.5q22 0 63 -41.5t41 -62.5q0 -23 -15 -53q-15 -33 -35 -48l21 -15q42 -38 42 -106q0 -36 -44.5 -94t-77.5 -58zM118 425q-18 10 -30 10q-26 0 -26 -48q0 -32 37 -70.5
t68 -38.5q13 0 21 15q8 12 8 24q0 20 -17 50t-32.5 39.5t-28.5 18.5zM86 238q-11 4 -24.5 -22t-13.5 -40q0 -36 45 -80t79 -44q14 0 27 21t12 36q3 35 -38 74q-37 35 -87 55z" />
    <glyph glyph-name="nine" unicode="9" horiz-adv-x="317" 
d="M62 -2q-6 24 -7 64q176 0 176 151q0 58 -40 123q-46 73 -101 73q-45 0 -41 -41q4 -42 40.5 -92.5t77.5 -62.5l-69 -66q-42 45 -58 71q-26 42 -26 87q0 63 33 105q56 70 84 68q62 -5 103 -94q35 -77 31 -150q-5 -83 -63 -150t-140 -86z" />
    <glyph glyph-name="colon" unicode=":" horiz-adv-x="184" 
d="M67 418q13 -16 27 -32t32 -27l-65 -64q-7 10 -22 28q-11 7 -36 31zM67 118q13 -16 27 -32t32 -27l-65 -64q-7 10 -22 28q-11 7 -36 31z" />
    <glyph glyph-name="semicolon" unicode=";" horiz-adv-x="184" 
d="M67 418q13 -16 27 -32t32 -27l-65 -64q-7 10 -22 28q-11 7 -36 31zM70 129q5 -13 14 -22q6 -9 25 -31q18 -17 18 -18q-1 -2 -2 -3l-58 -58q-13 -13 -20 -27.5t-16 -23.5l-17 12l22 31q6 12 15 27v0q-2 6 -18 26q-13 9 -28 23z" />
    <glyph glyph-name="less" unicode="&#x3c;" horiz-adv-x="247" 
d="M205 121l-32 -32l-173 173l171 171l32 -33l-138 -139z" />
    <glyph glyph-name="equal" unicode="=" horiz-adv-x="437" 
d="M40 287l-41 -17l70 78l4 3l265 -1l56 23l-80 -85zM40 167l-41 -17l70 78l10 2l269 1l46 22l-87 -86h-267z" />
    <glyph glyph-name="greater" unicode="&#x3e;" horiz-adv-x="247" 
d="M0 401l32 32l173 -173l-171 -171l-32 33l139 138z" />
    <glyph glyph-name="question" unicode="?" horiz-adv-x="449" 
d="M273 349q23 35 23 89q0 46 -24 90q-29 52 -72 52q-40 0 -65 -40q-22 -35 -22 -78q0 -38 33 -64q-37 -21 -72 -21q-48 0 -48 79q0 149 176 149q77 0 126 -40q52 -43 52 -119q0 -71 -47 -114l-102 -72q-33 -26 -42 -88h-27q-1 4 -1 10q0 43 39 95q31 42 73 72zM177 118
q13 -16 27.5 -32t31.5 -27l-65 -64q-7 10 -22 28q-13 9 -36 31z" />
    <glyph glyph-name="at" unicode="@" horiz-adv-x="826" 
d="M467 207q-51 -82 -137 -82q-55 0 -92 37q-40 40 -40 108q0 102 71 177q65 69 141 69q72 0 100 -70l16 53h105l-55 -194q-19 -68 -19 -87q0 -18 7 -26q14 -15 43 -10q56 10 90 84q30 62 30 127q0 117 -89 185q-80 61 -197 61q-67 0 -127 -21q-114 -40 -180 -161
q-39 -72 -39 -172q0 -142 89 -224.5t233 -82.5q131 0 266 83l22 -36q-148 -94 -317 -94q-162 0 -268 104q-100 98 -108 239q-9 147 89 265q91 109 256 138q163 28 283 -41q134 -76 134 -239q0 -127 -70 -205q-61 -68 -138 -68q-86 0 -99 83zM310 239q-1 -27 12.5 -44
t36.5 -17q14 0 29 7q33 15 65 90q29 68 30 111q2 49 -18 63q-16 11 -32 11q-47 0 -88 -92q-34 -77 -35 -129z" />
    <glyph glyph-name="A" unicode="A" horiz-adv-x="609" 
d="M582 56l-77 -64q-49 36 -47 67v68q-68 -82 -122 -112q-50 -29 -118 -29q-105 0 -165 95q-53 85 -51 208q3 140 101 266q105 134 239 133q50 -1 97 -27q21 -14 43 -28q4 -2 45 38h19v-495q-2 -54 0 -80q0 -10 17 -25q10 -8 19 -15zM458 469q-33 -75 -82 -104
q-36 -22 -95 -22q-38 0 -62 28q-21 24 -21 57q0 45 44 88.5t88 43.5q4 0 4.5 -4.5t1.5 -5.5q-2 -4 -19 -12q-20 -8 -29 -19q-15 -17 -15 -49q0 -30 19.5 -48.5t52.5 -18.5q50 0 83 57q27 48 27 97q0 42 -33.5 72.5t-77.5 30.5q-118 0 -185 -115q-59 -100 -59 -238
q0 -69 17 -124q17 -58 64.5 -97.5t100.5 -41.5q49 -2 112.5 54t63.5 97v274z" />
    <glyph glyph-name="B" unicode="B" horiz-adv-x="673" 
d="M325 635q-4 -17 -41 -39q-40 -25 -73 -24q-35 1 -86 24q-54 24 -68 25q-4 0 -50 -19q9 30 49 55q36 22 62 22q21 0 60 -16l60 -28q34 -15 87 0zM638 223q-1 -59 -41 -108q-26 -33 -103 -94q-43 -34 -60 -34q-8 0 -28 18q-25 23 -44 33q-34 18 -75 18q46 56 93 56
q34 0 66.5 -25t35.5 -25q34 0 60 47q24 42 24 80q0 69 -72 111q-61 36 -135 36q15 21 48 44q38 28 64 28q70 0 117 -46q52 -50 50 -139zM588 540q0 -34 -18 -69q-24 -45 -66 -52q15 28 15 52q0 28 -21 46q-99 85 -114 85q-14 0 -37 -25q-26 -27 -25 -51q-1 -109 0 -282
q1 -90 -30 -154q-48 -96 -160 -96q-42 0 -75 16q-25 11 -40.5 28t-11.5 17l1 -1q83 54 87 52q-4 -17 -4 -31q0 -57 55 -58q57 -1 74 60q9 31 9 111v231q0 126 165 223q16 11 33 21q22 14 32 14q23 -32 86 -73q45 -29 45 -64z" />
    <glyph glyph-name="C" unicode="C" horiz-adv-x="555" 
d="M512 523q-1 -82 -71.5 -146.5t-145.5 -64.5q-53 0 -96 27q-51 32 -51 88q0 51 46 84q40 29 88 29q14 0 24 -3q8 -9 5 -11q-35 -8 -60 -35t-25 -58q0 -87 88 -87q53 0 90 48q34 42 34 88q0 66 -46.5 108t-113.5 40q-93 -3 -158 -90q-61 -80 -58 -173q2 -116 57 -197
q65 -97 179 -95q118 2 202 90q2 -6 -1 -22q-30 -66 -112 -110q-78 -42 -150 -38q-121 6 -185 114q-52 87 -52 204q0 153 104 258q100 102 234 104q80 1 127 -41.5t47 -110.5z" />
    <glyph glyph-name="D" unicode="D" horiz-adv-x="657" 
d="M611 333q-1 -138 -99 -246q-101 -112 -234 -106q-27 1 -89.5 31.5t-95.5 30.5q-19 0 -27 -3q-25 -8 -26 -9q18 40 66 59q36 15 76 15q24 1 43 -9q5 0 29 21q18 19 18 50q0 16 -11 64q-10 39 -20 79q-13 53 -13 79q0 116 105 168q-26 -39 -23 -115q2 -27 19.5 -86
t18.5 -95q1 -48 -35 -108t-68 -63q22 -14 57 -30q42 -20 60 -20q85 0 139 75q49 67 49 154q0 143 -97 251t-221 114q-79 3 -128 -28q-52 -33 -54 -96q-1 -34 22 -57t58 -23q48 0 83 71q2 -1 5 0t3 -3q0 -6 -9 -31t-16 -35q-50 -78 -105 -78q-39 0 -68 32t-29 75q0 96 79 153
q57 40 114 54q42 9 118 9q139 0 225 -101q82 -98 81 -243z" />
    <glyph glyph-name="E" unicode="E" horiz-adv-x="558" 
d="M519 217q-5 -108 -115 -170q-95 -54 -209 -48q-90 4 -143 58q-49 49 -49 119q0 58 35 108q37 54 105 82q-105 34 -105 122q-1 73 97 139q90 61 155 58q6 -1 16 -18q12 -22 22 -32q18 -18 47 -20q21 -1 37 7t32 17q2 -43 -56 -62q-45 -15 -77 -9q-64 12 -99 73
q-46 -14 -67 -61q-16 -38 -13 -85q5 -50 37 -68q22 -13 76 -16l-1 -7q-59 -16 -96.5 -68t-40.5 -116q-10 -188 143 -196q72 -4 128 48.5t60 124.5q6 108 -98 114q-37 1 -70 -22.5t-35 -59.5q-1 -25 16.5 -41t42.5 -18q16 -1 36 7q25 10 30 11q-6 -31 -38 -55.5t-69 -21.5
q-32 2 -52 25.5t-17 61.5q5 65 72 108q62 40 130 36q58 -3 97 -37t36 -88z" />
    <glyph glyph-name="F" unicode="F" horiz-adv-x="545" 
d="M600 674q-15 -39 -80 -65q-56 -22 -105 -22q-38 0 -115.5 6.5t-115.5 6.5q-53 0 -87 -27q-37 -29 -37 -81q0 -43 31.5 -76.5t74.5 -33.5q34 0 56.5 20.5t22.5 53.5q0 54 -52 54q-23 0 -55 -8q8 28 41 46q29 16 62 16q23 0 40.5 -17t17.5 -40q0 -69 -65 -118
q-59 -46 -131 -46q-46 0 -74 27t-28 73q0 79 83 158t163 77q25 0 82 -7q54 -6 83 -6q102 0 188 9zM409 566q-6 -20 -6 -81v-102q32 8 63 10q42 2 71 -13q-4 -13 -34 -53q1 0 0 -1v1q-17 11 -63 9q-18 -1 -37 -5l-1 -129q0 -208 -191 -208q-54 0 -94 20q-47 25 -60 72
q85 46 88 45l-1 -14q-2 -37 20 -67t58 -30q102 0 102 197v82q-45 -30 -106 -63q29 68 106 112v159q71 54 85 59z" />
    <glyph glyph-name="G" unicode="G" horiz-adv-x="476" 
d="M452 579q0 -67 -64.5 -129t-132.5 -62q-37 0 -68 19q-36 22 -36 56q0 32 35 60t68 28q5 0 13 -1q-30 -48 -30 -75q0 -55 44 -55q39 0 67.5 36.5t28.5 76.5q0 43 -29 75t-72 32q-85 0 -139 -80q-49 -72 -49 -160q0 -66 35 -110q38 -48 104 -48q60 0 204 108
q-10 -30 -11 -71q1 45 1 -73q0 -72 -73 -143t-145 -71q-36 0 -80 33t-67 33t-58 -15q19 69 76 69q44 0 74 -20q1 0 42 -37q23 -20 48 -20q90 0 90 97v118q-90 -54 -162 -54q-65 0 -114.5 50t-49.5 115q0 129 105 224q101 92 233 92q112 0 112 -98z" />
    <glyph glyph-name="H" unicode="H" horiz-adv-x="673" 
d="M289 611q-41 -43 -77 -43q-40 0 -84 30t-68 30q-30 0 -52 -14l-11 -3q9 26 48 47q35 20 61 20q43 0 87.5 -28.5t64.5 -28.5q19 0 39 5q-1 -5 -8 -15zM684 634q-37 -51 -80 -51q-11 0 -28 11t-21 26q-15 0 -12 -36v-428q0 -27 15.5 -49t42.5 -22q10 0 21 3l2 -6
q0 -2 -72 -90q-38 16 -55 37q-21 29 -32 94v222q-2 3 -17 -8l-35 -36q-34 40 -58 40q-3 0 -26 -11q2 -175 -25 -243q-40 -102 -167 -102q-41 0 -87 20q-57 24 -57 60q0 1 33 25.5t41 28.5q10 -110 92 -110q90 0 89 121v356q0 36 28 76t75 62q-20 -39 -22 -92v-178
q16 10 23 10t53 47q18 -22 62 -42l-1 38v100q0 34 11 56q7 16 32 45q15 19 44 43q35 29 48 28q6 -1 12.5 -13t21.5 -20q9 -5 49 -12z" />
    <glyph glyph-name="I" unicode="I" horiz-adv-x="462" 
d="M320 586q-30 0 -92 41q-21 14 -60 15q-51 1 -83.5 -32.5t-32.5 -77.5q0 -39 29 -65q32 -29 93 -29q20 0 37.5 12t18.5 26q2 24 -18.5 40.5t-50.5 17.5q-25 2 -41 -9q-2 2 3 24q8 32 51 37q34 4 63 -22q25 -23 26 -48q2 -57 -40.5 -97t-100.5 -40q-53 0 -88 39.5t-30 97.5
q6 79 90 129q72 44 148 43q41 -1 78.5 -18t58.5 -17q13 -1 26.5 3t21.5 6q-27 -76 -107 -76zM412 599q-9 -33 -9 -84l-1 -313q0 -208 -191 -208q-54 0 -94 20q-47 25 -60 72l46 28q38 23 43 22l-2 -19q-2 -36 20 -66.5t58 -30.5q102 0 102 197v320q16 7 49.5 33.5t38.5 28.5
z" />
    <glyph glyph-name="J" unicode="J" horiz-adv-x="509" 
d="M446 547v-282q1 -65 1 -68q-5 -93 -99 -156q-85 -57 -180 -54q-64 1 -111 29q-62 36 -62 104q0 78 71 130q62 46 133 46q39 0 70 -21q37 -25 37 -67q0 -45 -40 -77q-35 -29 -69 -29q-36 0 -55 18t-19 42q0 23 16 40t42 17q-2 -7 -2 -13q0 -29 32 -29q20 0 35.5 16
t15.5 33q0 45 -65 45q-48 0 -89.5 -36t-41.5 -85q0 -71 48 -105q39 -29 103 -29q20 0 41 3q27 4 65 43q43 43 45 85v286v107q38 23 81 75q-3 -45 -3 -68zM426 649q-4 -19 -42 -48q-43 -32 -75 -32q-35 1 -98 23q-67 23 -81 24q-25 3 -67 -11q9 31 51 55q39 23 72 21
q61 -4 138 -38q14 -6 43 -6q37 0 59 12z" />
    <glyph glyph-name="K" unicode="K" horiz-adv-x="656" 
d="M641 60q-54 -69 -75 -69q-53 0 -77 74q-18 73 -37 147q-28 88 -91 111q26 11 52 21q31 14 39.5 37.5t17.5 120.5q8 83 33 120q36 54 125 54q-60 -59 -75 -125q-7 -52 -14 -103q-14 -56 -74 -98q45 -28 61 -89q9 -53 18 -105q11 -58 46 -79q17 -5 51 -17zM352 599
q-2 -1 -1 -158q1 -149 1 -166q4 -91 -34 -169q-53 -112 -167 -112q-54 0 -94 20q-47 25 -60 72l89 50l-2 -29q-2 -33 21.5 -60t56.5 -27q102 0 102 197v320q16 8 44 31.5t44 30.5zM342 657q-6 -25 -48 -52t-69 -27q-28 0 -81.5 17t-59.5 17q-32 0 -67 -11q9 30 47 53t71 23
q26 0 74.5 -16t73.5 -16q37 0 59 12z" />
    <glyph glyph-name="L" unicode="L" horiz-adv-x="574" 
d="M533 115q-22 -67 -89 -103q-51 -28 -101 -28q-34 0 -100 19t-98 19q-60 0 -154 -36q39 59 70 83t90 44q6 3 6 50q0 65 -55.5 162t-55.5 146q0 53 40 107q44 61 89 85q52 28 139 30q59 2 108 -36.5t49 -91.5q0 -61 -57.5 -109.5t-111.5 -43.5q-109 9 -105 91q1 21 16.5 42
t40.5 30q15 5 24 5q6 0 14 -3t14 -3l-22 -24q-15 -17 -15 -49q0 -61 50 -61q37 0 55 39q12 28 12 64q0 56 -30.5 88.5t-83.5 32.5q-56 0 -99 -38q-46 -41 -46 -103q0 -43 58 -150q55 -102 52 -115q3 -14 3 -28q0 -39 -26 -76q-6 -7 -37 -41q32 6 89 -8q32 -11 64 -21t67 -10
q47 0 83 17q48 23 53 24z" />
    <glyph glyph-name="M" unicode="M" horiz-adv-x="983" 
d="M927 71l-30 -40q-25 -32 -33 -32q-15 0 -41 32q-22 27 -27 42q-9 24 -10 57q-2 82 1 263q1 59 5 74q12 46 56 74l35 24q-17 -48 -19 -136q1 56 1 -129v-147q0 -41 24 -59q19 -11 38 -23zM707 62q0 -10 -24.5 -37t-33.5 -32l-95 71q2 10 10 16t11 14q5 15 5 50l-1 369
q6 57 -32 81q-17 10 -55 16l89 70q67 -41 74 -76q4 -20 3 -91q-2 -381 4 -400q3 -7 24 -26.5t21 -24.5zM487 448q0 -86 -67 -206q-61 -113 -130 -169l68 18q5 1 13 1q25 0 48 -9q27 -11 29 -27q-19 -24 -57 -63q-43 41 -78 41q-17 0 -49 -11t-48 -21q55 86 110 173
q61 107 64 239q2 103 -29 162q-40 75 -128 72q-64 -2 -111.5 -57t-43.5 -123q3 -65 37 -109.5t74 -46.5q37 -2 59 27t21 78q-1 32 -21 57.5t-49 25.5q-17 0 -34.5 -12.5t-33.5 -24.5q6 94 92 102q45 4 78 -27t33 -78q0 -69 -46 -124q-49 -60 -120 -56q-62 3 -115 56t-53 118
q0 103 78 166q69 57 167 60q123 4 186 -65q56 -61 56 -167zM956 667q-5 -25 -42 -52t-63 -27q-27 0 -59.5 13t-38.5 13q-32 0 -67 -11q9 30 47 53t71 23q26 0 53 -12t53 -12q24 0 46 12z" />
    <glyph glyph-name="N" unicode="N" horiz-adv-x="776" 
d="M737 71l-30 -40q-25 -32 -33 -32q-15 0 -41 32q-22 27 -27 42q-9 24 -10 57q-2 82 1 263q1 59 5 74q12 46 56 74l35 24q-17 -48 -19 -136q1 56 1 -129v-147q0 -41 24 -59q19 -11 38 -23zM487 448q0 -86 -67 -206q-61 -113 -130 -169l68 18q5 1 13 1q25 0 48 -9
q27 -11 29 -27q-19 -24 -57 -63q-43 41 -78 41q-17 0 -49 -11t-48 -21q55 86 110 173q61 107 64 239q2 103 -29 162q-40 75 -128 72q-64 -2 -111.5 -57t-43.5 -123q3 -65 37 -109.5t74 -46.5q37 -2 59 27t21 78q-1 32 -21 57.5t-49 25.5q-17 0 -34.5 -12.5t-33.5 -24.5
q6 94 92 102q45 4 78 -27t33 -78q0 -69 -46 -124q-49 -60 -120 -56q-62 3 -115 56t-53 118q0 103 78 166q69 57 167 60q123 4 186 -65q56 -61 56 -167zM766 667q-5 -25 -42 -52t-63 -27q-27 0 -59.5 13t-38.5 13q-32 0 -67 -11q9 30 47 53t71 23q26 0 53 -12t53 -12
q24 0 46 12z" />
    <glyph glyph-name="O" unicode="O" horiz-adv-x="702" 
d="M651 382q0 -142 -81 -257q-94 -134 -245 -134q-149 0 -242 109q-84 100 -84 237q0 77 43 166q48 100 123 146q1 -10 -18 -34l-27 -33q-21 -36 -33 -92q-7 -32 -7 -105q0 -99 47 -185q56 -103 162 -145q43 -17 81 -17q110 0 174 98q52 79 52 177q0 99 -55 180
q-65 94 -182 120q-25 5 -31 5q-56 0 -100 -33t-54 -83q-11 -56 -11 -46q0 -61 26 -104q33 -55 99 -55q46 0 70 30q21 26 21 66t-12 53v15q29 -7 44 -44q12 -28 12 -58q0 -51 -38 -107q-41 -63 -92 -63q-78 0 -125 81q-39 66 -39 134q0 103 69 189q75 93 181 93
q127 0 204 -99q68 -88 68 -205z" />
    <glyph glyph-name="P" unicode="P" horiz-adv-x="536" 
d="M600 496q0 -55 -47 -113q-51 -61 -111 -61q-46 0 -66 10q-13 9 -27 19v-148q-5 -94 -39 -141q-44 -63 -146 -64q-125 -1 -164 69q38 29 88 64q2 -41 21 -71q22 -36 59 -41q7 -1 14 -1q92 0 92 214v47q-1 30 -1 40q0 116 10 154q17 62 80 98q-13 -63 -15 -87
q-2 -30 0 -116l54 39q16 -56 57 -56q28 0 45 35q14 30 14 63q0 92 -74 145q-67 48 -163 48q-75 0 -139 -46q-70 -51 -70 -123q0 -34 15 -57q18 -27 50 -27t58 26q9 9 41 54l4 -14q-13 -54 -55 -93q-46 -41 -101 -41q-44 0 -70.5 25t-26.5 68q0 129 141 207q125 69 266 59
q87 -6 144 -52q62 -50 62 -132z" />
    <glyph glyph-name="Q" unicode="Q" horiz-adv-x="601" 
d="M548 475q0 -162 -218 -363q30 -22 81 -39q45 -14 71 -14q52 0 99 24q-7 -49 -73 -73q-48 -18 -101 -18q-41 0 -102.5 30t-60.5 30t-25 -15q-29 -18 -60 -28q-45 -15 -90 -13q-23 1 -43 14.5t-20 35.5q0 54 67 86q54 26 115 25q39 -1 82 -15q39 -13 35 -14q60 52 101 125
q46 83 46 159q0 93 -44 158q-50 75 -139 75q-76 0 -134.5 -53t-58.5 -127q0 -64 34 -108q37 -47 99 -47q34 0 58.5 32t24.5 67q0 29 -18.5 50.5t-51.5 21.5q-31 0 -57 -21l-1 13q-2 26 28 57t66 30q33 -1 58 -33t25 -65q0 -76 -62.5 -141t-140.5 -65q-55 1 -94 55
q-36 49 -36 107q0 99 101 184q96 81 198 81q103 0 169 -52q72 -56 72 -156zM218 68q-45 21 -114 21q-71 0 -71 -39q0 -27 41 -27q94 0 144 45z" />
    <glyph glyph-name="R" unicode="R" horiz-adv-x="667" 
d="M610 496q0 -46 -33 -93.5t-75 -68.5q39 -34 52 -99q20 -103 22 -106q20 -54 82 -73q-49 -65 -62 -65q-57 0 -81 72q-18 73 -35 146q-26 90 -85 119q-7 4 -36 23q1 5 1 -106q0 -116 -34 -173q-43 -74 -152 -74q-49 0 -92 14q-57 19 -72 55q29 23 88 64q2 -44 24 -76
q26 -37 67 -37q96 0 96 216q0 24 -1 60t-1 46q0 94 10 131q18 65 80 100q-17 -83 -16 -131l1 -72q30 23 51 37q8 -32 19.5 -42.5t44.5 -10.5q28 0 43 36q12 28 12 61q0 92 -75 145q-67 48 -162 48q-75 0 -139 -46q-70 -51 -70 -123q0 -34 16 -57q17 -27 49 -27t58 27
q11 11 41 53l4 -14q-13 -55 -56 -93q-45 -41 -100 -41q-43 0 -70 25t-27 68q0 126 132 202q112 65 247 65q94 0 159 -44q75 -51 75 -141z" />
    <glyph glyph-name="S" unicode="S" horiz-adv-x="495" 
d="M460 229q0 -105 -80 -175q-76 -67 -183 -67q-75 0 -133 38q-67 43 -67 114q0 59 62 100q55 36 117 36q51 0 87 -26q41 -29 41 -79q0 -34 -18.5 -58t-51.5 -24q-21 0 -42 20t-18 40q44 -13 55 -13q20 0 35 13t15 32q0 26 -29 43q-24 15 -53 15q-45 0 -77.5 -27t-32.5 -71
q0 -126 143 -126q64 0 123 47q62 51 62 113q0 74 -92 128q-86 41 -171 82q-92 52 -92 122q0 48 72 105q59 47 117 69q34 -65 87 -65q23 0 67 23l-4 -12q-57 -66 -114 -66q-60 0 -97 53q-24 0 -43.5 -20.5t-19.5 -43.5q0 -50 87 -94l161 -81q87 -59 87 -145z" />
    <glyph glyph-name="T" unicode="T" horiz-adv-x="471" 
d="M600 674q-15 -39 -80 -65q-56 -22 -105 -22q-38 0 -115.5 6.5t-115.5 6.5q-53 0 -87 -27q-37 -29 -37 -81q0 -43 31.5 -76.5t74.5 -33.5q34 0 56.5 20.5t22.5 53.5q0 54 -52 54q-23 0 -55 -8q8 28 41 46q29 16 62 16q23 0 40.5 -17t17.5 -40q0 -69 -65 -118
q-59 -46 -131 -46q-46 0 -74 27t-28 73q0 77 83 154t161 77q28 0 83.5 -4.5t83.5 -4.5q102 0 188 9zM409 566q-6 -21 -6 -81l1 -281q0 -210 -193 -210q-54 0 -94 20q-47 25 -60 72q85 46 88 45l-1 -14q-2 -37 20 -67t58 -30q102 0 102 197v290q71 54 85 59z" />
    <glyph glyph-name="U" unicode="U" horiz-adv-x="766" 
d="M606 166v-116q0 -16 76 -54q29 34 63 80q-17 11 -43 27q-22 12 -18 76l1 313q0 -1 0 41q-1 42 -1 69q0 23 13 48l15 29q-105 -70 -105 -119v-360q-105 -129 -107 -128q-34 39 -101 39q-60 0 -114 -29q70 58 132 164q70 118 70 202q0 106 -56 167q-63 69 -186 65
q-98 -3 -167 -60q-78 -63 -78 -166q0 -65 53 -118t115 -56q70 -4 120 56q46 55 46 124q0 47 -33 78t-78 27q-86 -8 -92 -102q16 12 33.5 24.5t34.5 12.5q29 0 49 -25.5t21 -57.5q1 -49 -21 -78t-59 -27q-40 2 -74 46.5t-37 109.5q-4 68 43.5 123t111.5 57q88 3 128 -72
q31 -59 29 -162q-2 -97 -31 -172q-22 -56 -67 -117q-38 -52 -76 -103q17 10 52.5 22.5t52.5 13.5q77 1 147 -66q5 14 63 85q54 69 75 89z" />
    <glyph glyph-name="V" unicode="V" horiz-adv-x="800" 
d="M485 122q53 0 99 -33q55 36 82 121q22 68 22 149q0 75 -30 150q-38 94 -101 99q19 21 86 90q123 -88 123 -257q0 -90 -81 -255q-86 -177 -154 -177q-3 0 -6 10q-25 57 -75 57q-62 0 -173 -69q66 104 90 181q26 83 26 202q0 258 -168 258q-61 0 -104.5 -51.5t-43.5 -113.5
q0 -53 32 -108q37 -63 87 -63q35 0 56 26q19 23 19 60q0 39 -16 68q-21 34 -58 34q-20 0 -66 -37q1 47 28 74.5t75 27.5q46 0 74 -38q27 -34 27 -81q0 -67 -46.5 -116.5t-112.5 -49.5q-69 0 -122 61t-53 131q0 98 81 156q72 52 173 52q109 0 171 -67.5t62 -177.5
q0 -90 -38 -197q-42 -116 -104 -169q33 19 65 38q31 15 74 15z" />
    <glyph glyph-name="W" unicode="W" horiz-adv-x="975" 
d="M701 5q14 -10 33 -10q11 0 61 43q42 35 57 52q48 53 65 97t17 117q0 45 -23.5 103t-23.5 115q0 50 -1 46q4 27 27 56q12 19 31 47l-7 2q-55 -21 -94 -82q-35 -55 -36 -104q-2 -59 26 -152q29 -96 29 -150q0 -27 -24 -70q-26 -47 -51 -47q-1 0 -52 34q-29 19 -29 67v440
q2 18 2 25q0 3 4 14q0 3 1 7q-47 -29 -72 -89q-20 -48 -20 -99v-352l-26 -23q-42 30 -110 30q-43 0 -74 -15q-32 -19 -65 -38q62 53 104 169q38 107 38 197q0 110 -63 179.5t-172 69.5q-104 0 -174 -52q-79 -58 -78 -160q0 -69 51 -123.5t121 -54.5q68 0 115 43t47 109
q0 47 -27 81q-28 38 -74 38q-48 0 -75 -27.5t-28 -74.5q46 37 66 37q37 0 58 -34q16 -29 16 -68q0 -72 -78 -72q-51 0 -85 56q-31 49 -31 101q0 62 44 114q47 56 108 56q164 0 164 -263q0 -119 -26 -202q-24 -77 -90 -181q77 48 165 48q35 0 54.5 -10t40.5 -40q85 77 87 77
q11 -15 22 -29q21 -25 55 -48z" />
    <glyph glyph-name="X" unicode="X" horiz-adv-x="741" 
d="M716 62q-57 -81 -63 -81q-35 0 -85 89q-41 74 -53 123q-23 97 -21 128q-41 -164 -90 -236q-72 -104 -204 -111q-45 -3 -78 11.5t-33 38.5q0 7 77 73q4 -82 80 -82q96 0 148 169q21 71 32 170h-86l21 34h63q2 5 2 15q0 68 -53 142q-68 96 -180 96q-60 0 -99 -38t-39 -99
q0 -47 38 -91q39 -47 87 -47q31 0 54.5 24t23.5 51q0 22 -19 41t-43 19q-14 0 -29 -9q-20 -11 -23 -11q-7 7 -7 17q0 24 27 48.5t55 24.5q38 0 63.5 -23t25.5 -53q0 -78 -59 -125q-51 -42 -119 -42q-48 0 -88 40t-42 87q-5 103 69 165t186 59q189 -5 248 -228
q46 154 118 233q40 -37 69 -37q12 0 28 3q-8 -25 -37.5 -50t-49.5 -25q-5 0 -34 20q-21 -7 -82 -207h104l-15 -33h-84q15 -70 67 -160q63 -110 129 -133z" />
    <glyph glyph-name="Y" unicode="Y" horiz-adv-x="747" 
d="M600 380q0 128 26 171q23 39 26 43q25 31 61 39q-24 -43 -24 -141v-128q-4 -68 -2 -304q-1 -115 -18 -171q-21 -66 -85 -132q-36 -37 -74 -50q-27 -8 -75 -8q-81 0 -129 42q-40 35 -40 49q0 11 79 69q-1 -2 -1 -6q0 -25 52.5 -71.5t85.5 -46.5q70 0 92 63q25 71 25 165
l-1 129q-1 2 -66 -55t-68 -57q-25 23 -49 47q-43 31 -94 31q-17 -1 -52.5 -13.5t-52.5 -22.5q38 51 76 103q45 61 67 117q29 75 31 172q2 103 -29 162q-40 75 -128 72q-64 -2 -111.5 -57t-43.5 -123q3 -65 37 -109.5t74 -46.5q37 -2 59 27t21 78q-1 32 -21 57.5t-49 25.5
q-17 0 -34.5 -12.5t-33.5 -24.5q6 94 92 102q45 4 78 -27t33 -78q0 -69 -46 -124q-50 -60 -120 -56q-62 3 -115 56t-53 118q0 103 78 166q69 57 167 60q123 4 186 -65q56 -61 56 -167q0 -84 -70 -202q-62 -106 -132 -164q42 23 103 23q89 0 130 -47l82 65v257z" />
    <glyph glyph-name="Z" unicode="Z" horiz-adv-x="712" 
d="M622 656q-1 15 -11 15q-14 0 -37.5 -25.5t-27.5 -40.5l21 6q5 0 30 18.5t25 26.5zM175 45q-40 13 -74 13q-25 0 -46 -7q-31 -10 -30 -28q2 -18 35 -18q28 0 66.5 13.5t48.5 26.5zM691 231q-6 -121 -100 -189q-84 -62 -204 -62q-51 0 -178 50q-78 -53 -153 -53
q-27 0 -45 12.5t-18 32.5q0 59 88 89q68 24 133 20l29 -10q49 69 129 236q-16 3 -85 2l27 41q47 -2 77 0q25 48 74 141q-48 -1 -147 48.5t-136 49.5q-38 0 -69 -28.5t-31 -65.5q0 -34 18.5 -57t51.5 -23q40 0 65 35q34 47 44 53l1 -16q3 -49 -44 -95.5t-97 -46.5
q-43 0 -70 27t-27 70q0 79 84 142q77 58 159 58q45 0 119 -31q58 -24 117 -49q48 80 110 80q12 0 23.5 -8t11.5 -19q0 -39 -57 -78q-46 -32 -83 -38q-3 -1 -39 -70.5t-38 -76.5q131 0 116 0q-12 -13 -29 -43h-109q-30 -65 -61 -129q-37 -76 -71 -121q129 -61 207 -61
q57 0 98 42t41 98q0 45 -19 77q-22 36 -62 36q-35 0 -62 -27.5t-27 -64.5q0 -44 31 -48q7 -1 13 -1q19 0 30 12q2 2 21 33q6 -16 6 -30q0 -32 -27 -50t-65 -18q-28 0 -46 26q-17 23 -17 52q0 57 52 105t121 48q42 0 81.5 -33t37.5 -74z" />
    <glyph glyph-name="bracketleft" unicode="[" horiz-adv-x="168" 
d="M75 -32l37 -81l-105 101l1 644l111 84l-44 -67v-681z" />
    <glyph glyph-name="backslash" unicode="\" horiz-adv-x="332" 
d="M244 -1h37l-245 676h-40z" />
    <glyph glyph-name="bracketright" unicode="]" horiz-adv-x="168" 
d="M51 635l-37 81l105 -102v-643l-112 -84l44 67v681z" />
    <glyph glyph-name="asciicircum" unicode="^" horiz-adv-x="632" 
d="M300 776l-134 -75l-5 9l137 125l139 -125l-9 -6z" />
    <glyph glyph-name="underscore" unicode="_" horiz-adv-x="460" 
d="M0 -76h461v-40h-461v40z" />
    <glyph glyph-name="grave" unicode="`" horiz-adv-x="298" 
d="M103 830l148 -120q-6 -6 -9 -6t-186 79q-16 12 -16 26q0 12 11 21t26 9q14 0 26 -9z" />
    <glyph glyph-name="a" unicode="a" horiz-adv-x="314" 
d="M219 -8q-22 3 -47 48q-57 -45 -64 -45q-42 0 -76 55q-29 49 -29 95q0 62 63 140t119 79q14 1 77 -76l-21 -25v-184q0 -23 29 -39zM170 264q0 11 -43 52q-68 -43 -68 -135q0 -38 27 -80q29 -46 63 -46q13 0 21 9v200z" />
    <glyph glyph-name="b" unicode="b" horiz-adv-x="319" 
d="M95 -7l-89 86v384q0 31 15.5 58.5t68.5 85.5q60 67 83 67q22 0 38 -25.5t17 -50.5q2 -60 -66 -141q-57 -67 -84 -75q-2 -9 -2 -25l1 -27l64 33q42 -49 83 -98q51 -68 51 -112q0 -91 -180 -160zM123 608q-11 0 -27 -24q-14 -20 -15 -27q-5 -19 -5 -52q0 -93 1 -106
q30 14 58 65q28 48 28 80q0 10 -10 33q-13 31 -30 31zM167 303l-88 -41v-155l33 -33q32 11 59 32q50 38 48 84q-1 27 -14 59q-16 37 -38 54z" />
    <glyph glyph-name="c" unicode="c" horiz-adv-x="245" 
d="M168 253l-67 43q-38 -37 -38 -85t43 -93q37 -39 89 -60l-50 -67q-17 11 -50 31q-92 59 -92 136q0 44 52 110q41 48 83 97l68 -46z" />
    <glyph glyph-name="d" unicode="d" horiz-adv-x="346" 
d="M258 -5q-43 37 -59 73l-42 -71q-55 22 -94 54q-60 49 -60 107q0 44 51 109q41 48 82 97l63 -27l1 163q0 67 -56 87q53 60 64 60q10 0 28.5 -16.5t22.5 -27.5q12 -35 12 -62v-435q0 -22 39 -55zM101 296q-38 -37 -38 -85q0 -83 135 -140v183z" />
    <glyph glyph-name="e" unicode="e" horiz-adv-x="273" 
d="M108 115q38 -37 87 -58l-44 -65q-67 31 -100 61q-48 45 -48 105q0 44 52 110q41 48 83 97l73 -53q14 -10 17 -13l8 -5zM102 298q-39 -38 -39 -87q0 -41 35 -84l85 114z" />
    <glyph glyph-name="f" unicode="f" horiz-adv-x="192" 
d="M171 461q6 58 3 88q-4 56 -36 80q-35 -19 -37 -53l1 -101q0 -3 -1 -32v-45q19 13 41 13q24 0 49.5 -13t25.5 -27q0 -5 -50 -64q-48 52 -62 46v-29v-228q0 -17 40 -44l-51 -66l-85 58q19 26 24 41l-1 268q0 52 -1 151q-1 40 59 109q57 66 83 66q14 0 29 -14q8 -7 16.5 -31
t8.5 -35q0 -21 -18 -68q-19 -50 -38 -70z" />
    <glyph glyph-name="g" unicode="g" horiz-adv-x="301" 
d="M229 -140q-33 -44 -41 -44q-2 0 -13 6q-63 36 -100 35q-3 0 -21 -5q-13 -4 -26 -6q41 65 102 65q29 0 72 -28q8 -5 12 -4q7 1 16 18q8 14 8 17q0 29 -5.5 41.5t-26.5 28.5q-28 21 -26 56q1 44 0 202q0 16 -4 27q-9 23 -34 23q-11 0 -30.5 -17.5t-23.5 -25.5
q-20 -39 -18 -59q3 -36 23 -65q15 -21 64 -69q-10 -12 -48 -58q-83 67 -98 115q-8 25 -8 47q0 19 8.5 32.5t17.5 27.5q5 7 76 75q75 71 82 71q8 0 80 -75l-18 -34v-194q0 -20 18.5 -50.5t18.5 -48.5q0 -20 -14 -40.5t-43 -63.5z" />
    <glyph glyph-name="h" unicode="h" horiz-adv-x="317" 
d="M217 87q41 -32 55 -43l-50 -52l-60 51q49 73 51 81q7 35 -1 63q-4 12 -10 21q0 1 -1 -2l-2 2l2 2q-55 92 -63 92q-18 0 -30 -21q-8 -15 -10 -29q0 -5 -1 -71.5t-1 -92.5q4 -21 32 -44l-50 -54q-79 48 -78 52q1 2 14 27q7 14 7 31v363q0 30 14 55q17 29 69 88q61 68 84 68
q21 0 39 -32q15 -27 16 -54q3 -87 -122 -221l-17 -18q-8 -8 -9 -15q-1 -5 0 -17q1 -15 1 -26q64 72 102 72q5 0 36 -46q27 -40 42 -67q4 -7 4 -16q0 -43 -63 -147zM138 608q-12 0 -30 -30q-16 -26 -16 -32q-1 12 -1 -41v-23v-41q-1 -56 3 -66q28 13 56 71q28 55 28 88
q0 11 -10 38q-13 36 -30 36z" />
    <glyph glyph-name="i" unicode="i" horiz-adv-x="151" 
d="M56 423l-48 46l48 48l46 -46zM71 -3q-20 16 -27 22q-16 13 -20 25q-3 9 -2 34v205q0 8 -22 33l56 53q43 -41 59 -59l-22 -28v-184q0 -17 28 -44z" />
    <glyph glyph-name="j" unicode="j" horiz-adv-x="167" 
d="M65 430l-48 46l48 48l47 -46zM9 -244q-2 2 2 5l3 2q7 5 30 28q43 43 43 79q0 98 -85 131q33 32 33 85l1 197q0 8 -22 33l56 53q42 -40 58 -58q-17 -11 -21 -29v-99q-1 -78 -1 -98q-6 -48 -31 -67q24 -12 43 -44q19 -35 19 -72q0 -54 -51 -104q-45 -43 -72 -43q-4 0 -5 1z
" />
    <glyph glyph-name="k" unicode="k" horiz-adv-x="326" 
d="M308 55q-3 -8 -17 -26q-23 -30 -32 -30q-4 0 -19 12.5t-20 19.5q-47 72 -59 150q-5 36 -27 36q-23 0 -39 -13l-2 -103q4 -21 37 -52l-52 -59q-77 53 -76 56q1 2 13 25q6 12 6 29v363q0 30 14 55q17 29 69 88q61 68 84 68q21 0 39 -32q15 -27 16 -54q3 -86 -125 -223
l-18 -18q-5 -6 -7 -10v-89q8 7 13 13q14 19 45 55q50 51 102 48l27 -2q-12 -49 -33 -77q-35 14 -44 14q-16 0 -46.5 -20.5t-45.5 -42.5q45 15 71 15q9 0 24 -9q19 -12 23 -28q12 -56 25 -96q5 -15 24 -37q20 -25 32 -25l-2 -1v0zM138 608q-23 0 -36 -41q-11 -31 -11 -62v-23
v-41q-1 -56 3 -66q28 13 56 71q28 55 28 88q0 11 -10 38q-13 36 -30 36z" />
    <glyph glyph-name="l" unicode="l" horiz-adv-x="154" 
d="M118 372l-18 -17q-5 -6 -7 -10q-1 -35 -1 -50v-201q4 -21 36 -49l-50 -55q-79 48 -78 52q2 4 14 26q7 13 7 29v366q0 31 15.5 58.5t68.5 85.5q60 67 83 67q21 0 39 -32q15 -27 16 -54q3 -86 -125 -216zM138 608q-11 0 -27 -24q-14 -20 -15 -27q-5 -19 -5 -52
q0 -137 1 -131q29 15 58 73q28 54 28 87q0 11 -10 38q-13 36 -30 36z" />
    <glyph glyph-name="m" unicode="m" horiz-adv-x="440" 
d="M337 197q-20 34 -33 54q-28 44 -38 44q-30 2 -32 -20q0 -3 -1 -8v-177q0 -21 26 -39l-44 -52l-61 55q14 15 14 28v182q0 9 -9 19.5t-18 10.5q-21 0 -44 -24v-186q0 -15 25 -36l-51 -49l-64 53q18 12 21 32v41v29v19v75q0 23 -5 33.5t-23 25.5q12 15 23 30q18 22 27 22
q18 -1 33 -27q12 -14 13 -33q15 14 44 39q23 21 36 21q7 1 27 -23q11 -14 32 -39q53 63 79 62q21 -1 84 -111q4 -7 4 -16q0 -43 -62 -144q40 -35 55 -46l-50 -51l-60 50q52 70 53 78q10 42 1 71z" />
    <glyph glyph-name="n" unicode="n" horiz-adv-x="314" 
d="M217 87q41 -32 55 -43l-50 -52l-60 51q49 73 51 81q7 34 3 63q-1 10 -5 23q-63 94 -81 94q-37 0 -40 -31l1 -180q0 -15 29 -40l-52 -57l-68 58q21 15 22 35q-1 -18 -1 161q0 26 -3 33.5t-21 24.5l50 52q15 -15 43 -45q1 -5 2 -19q59 68 100 66q20 -1 84 -112q4 -7 4 -16
q0 -43 -63 -147z" />
    <glyph glyph-name="o" unicode="o" horiz-adv-x="361" 
d="M292 135q-10 -21 -57 -78q-53 -65 -70 -65q-20 -2 -88 58q-72 64 -72 105q0 33 22 80q9 19 57 72q53 59 71 59q20 3 87 -51q72 -59 72 -100q0 -32 -22 -80zM195 256q-55 34 -63 55q-28 -15 -50.5 -44t-22.5 -45q-1 -35 13 -57q12 -18 51 -51q13 -9 39 -28q23 -17 34 -36
q62 66 62 97q0 57 -63 109z" />
    <glyph glyph-name="p" unicode="p" horiz-adv-x="379" 
d="M227 29q-6 -7 -22 -22t-20 -15t-22 8q-10 5 -33 16v-60v-55t7 -50q-8 -20 -83 -81q1 21 1 102l-1 152q-28 -3 -53 -15l3 10q0 21 49 53l1 1v180q0 28 -16 42q-4 3 -14 12l57 59l24 -28q16 -19 24 -26l58 37q30 18 33 18q13 -1 40 -28q24 -24 40 -48q32 -48 32 -75
q0 -35 -36 -96q-32 -54 -69 -91zM240 239q-25 35 -48.5 47.5t-61.5 15.5q-1 -64 0 -209q84 -29 96 -29q19 0 33 30q11 24 11 43q0 48 -30 102z" />
    <glyph glyph-name="q" unicode="q" horiz-adv-x="299" 
d="M238 -220q-3 0 -22 15.5t-22 22.5q-16 32 -16 97q0 5 1 24v27q0 34 -10 62q-3 -2 -46 -41q-7 -6 -10 -6q-21 0 -79 52q-12 11 -25 41q-7 16 -7 40q0 69 129 203q11 13 35 39q6 6 9 6q9 0 86 -65q-21 -93 -21 -94v-157q0 -4 -1.5 -14.5t-1.5 -14.5q0 5 6 -19q2 -11 0 -36
q-3 -35 -3 -46q0 -57 42 -78v-11q-36 -47 -44 -47zM178 245q-1 11 0 18q-19 20 -34 20q-20 0 -48.5 -51t-28.5 -73q0 -16 25 -56q31 -47 61 -47q11 0 23 13l3 160q0 1 -1 16z" />
    <glyph glyph-name="r" unicode="r" horiz-adv-x="245" 
d="M175 265q1 0 1.5 0.5t3.5 1.5v-4l1 1q-4 13 -20 23t-30 10q-17 0 -33 -13v-201q0 -8 23 -34l-57 -52q-43 41 -58 58l22 28v185q0 16 -30 40l52 58q44 -34 47 -60q42 25 60 61q23 -4 70 -47q-9 -16 -52 -55z" />
    <glyph glyph-name="s" unicode="s" horiz-adv-x="285" 
d="M135 -6l-16 9q-38 21 -59 32q-37 18 -60 23q25 47 60 47q41 0 95 -38q11 -7 15 -7q26 0 26 34q0 25 -62 52q-38 16 -77 32q-51 25 -51 49q0 33 49.5 85.5t82.5 52.5q14 0 45.5 -13.5t48.5 -26.5l-35 -58q-17 12 -56.5 28.5t-50.5 16.5q-19 0 -28 -27q0 -18 41 -39
q28 -12 57 -24q95 -41 95 -89q0 -21 -50.5 -80t-69.5 -59z" />
    <glyph glyph-name="t" unicode="t" horiz-adv-x="193" 
d="M140 297h-47v-205q0 -31 41 -48l-56 -55l-76 64q19 31 19 39v377l72 78l1 -190h89z" />
    <glyph glyph-name="u" unicode="u" horiz-adv-x="316" 
d="M239 -4q-18 17 -53 55q-24 -18 -71 -55q-40 11 -77 56q-34 42 -34 75q-1 45 31 95q14 21 64 79q-52 -15 -88 -4l42 61q19 -12 45 -12q20 0 53 8q-17 -25 -52 -77q-38 -58 -39 -82q-3 -74 77 -124q5 -4 12 -4q27 0 39 28q1 31 1 170q0 25 -24 41l55 55l59 -60
q-16 -11 -20 -31q-1 -4 -1 -45v-28.5v-19.5v-74q0 -27 3 -33q3 -9 21 -25z" />
    <glyph glyph-name="v" unicode="v" horiz-adv-x="348" 
d="M263 114q-18 -25 -103 -119q-165 118 -156 178q7 42 93 128q-70 0 -80 16l48 51q16 -14 47 -16q5 -1 17 2q4 1 14 2q1 -5 -20 -39q-15 -23 -37 -63q-11 -25 -11 -47q0 -39 41 -83q36 -37 86 -65q40 50 40 123q0 104 -87 129q12 14 33 33q26 22 35 22q20 -1 45 -29
t30.5 -52t5.5 -48q0 -66 -41 -123z" />
    <glyph glyph-name="w" unicode="w" horiz-adv-x="470" 
d="M390 114q-19 -25 -111 -119q-50 15 -97 65q-22 -23 -65 -64q-41 11 -77 56q-34 42 -35 75q-1 45 31 95q15 21 65 79q-53 -15 -89 -4l42 61q19 -12 45 -12q21 0 54 8q-18 -25 -53 -77q-38 -58 -39 -82q-3 -74 78 -124q4 -3 8 -3q20 0 33 31v82q1 53 1 84q0 25 -24 41
l54 55l59 -50q14 16 42 35.5t37 19.5q20 -1 45 -29t31 -52t6 -48q0 -66 -41 -123zM270 307q-22 -23 -22 -39v-155q1 -22 24 -37q13 -6 42 -23q54 68 54 129q0 99 -98 125z" />
    <glyph glyph-name="x" unicode="x" horiz-adv-x="296" 
d="M222 -4q-25 -2 -49 23q-9 11 -33 46q-3 5 -7 10q-11 -10 -29 -37t-24 -42q-2 -2 -3 -1q-25 18 -41 24q-9 3 -29 7q7 16 26 30t37 16q6 0 16.5 -1.5t14.5 -1.5q28 0 25 22q-63 186 -79 202l2 2q-12 9 -34 11q11 16 21 28q24 30 34 30q16 0 36 -25.5t33 -63.5q41 19 54 83
q38 -20 68 -22q-34 -60 -118 -77q10 -16 17 -36q11 -35 22 -69q14 -40 29 -65q18 -29 54 -38q-21 -53 -43 -55z" />
    <glyph glyph-name="y" unicode="y" horiz-adv-x="315" 
d="M259 285v-59v-64v-189q0 -34 -46 -93q-36 -47 -86 -90q-25 30 -39 40q-19 13 -45 13h-18q-10 -1 -21 -4q8 21 36 38q23 13 38 15q30 3 58 -7.5t37 -24.5q12 11 13.5 29t1.5 92v77q-17 -16 -40 -33q-13 -9 -36 -27q-47 17 -79 58q-29 37 -29 71q-1 45 31 95q14 21 64 79
q-52 -15 -88 -4l42 61q19 -12 45 -12q20 0 53 8q-17 -25 -52 -77q-38 -58 -39 -82q-2 -37 20 -73.5t57 -58.5q5 -3 11 -3q26 0 39 29q1 41 1 103q0 83 10 107q15 38 79 67q-18 -43 -18 -81z" />
    <glyph glyph-name="z" unicode="z" horiz-adv-x="278" 
d="M164 200h61l-19 -32h-57q-11 -37 -49 -95q4 -1 11 -1q44 2 69 0q58 -4 58 -26q0 -4 -2 -9q-5 -12 -45 -42q-60 14 -78.5 17t-34.5 2q-28 0 -72 -10q21 21 57 69q18 30 25 45q13 26 18 47h-56l23 35h45q4 10 11 27q18 43 60 77l-3 4q-35 -19 -69 -22q-23 -3 -42 9.5
t-37 11.5q-6 -1 -15 -4q-4 -1 -20 -6q10 23 38 41.5t52 21.5q15 1 49 -9t61 -8q20 3 49 11q-85 -113 -88 -154z" />
    <glyph glyph-name="braceleft" unicode="{" horiz-adv-x="300" 
d="M134 307q81 -48 81 -170q0 -20 -2.5 -58t-2.5 -54q0 -49 15 -72q18 -30 64 -34v-19h-18q-71 0 -100 39q-22 30 -22 94q0 18 2.5 58t2.5 59q0 119 -81 146v22q81 28 81 136q0 21 -3.5 64t-3.5 63q0 64 26 95q33 39 117 39v-20q-47 -4 -65 -34q-15 -23 -15 -71
q0 -17 2.5 -55t2.5 -58q0 -122 -81 -170z" />
    <glyph glyph-name="bar" unicode="|" horiz-adv-x="135" 
d="M20 -119v846h63v-846h-63z" />
    <glyph glyph-name="braceright" unicode="}" horiz-adv-x="301" 
d="M213 307q-80 -48 -80 -170q0 -20 2 -58t2 -54q0 -49 -15 -72q-18 -30 -64 -34v-19h18q72 0 100 39q22 30 22 94q0 18 -2.5 58t-2.5 59q0 119 81 146v22q-81 28 -81 136q0 21 3.5 64t3.5 63q0 64 -26 95q-33 39 -117 39v-20q47 -4 66 -34q14 -23 14 -71q0 -17 -2 -55
t-2 -58q0 -122 80 -170z" />
    <glyph glyph-name="asciitilde" unicode="~" horiz-adv-x="426" 
d="M137 767q-72 0 -72 -22h-12q0 28 33 52q30 24 60 24q29 0 51.5 -16t43.5 -16q51 0 48 0q20 2 39 23h14q0 -27 -35.5 -52.5t-65.5 -25.5q-24 0 -50 16.5t-54 16.5z" />
    <glyph glyph-name="Adieresis" unicode="&#xc4;" horiz-adv-x="609" 
d="M582 56l-77 -64q-49 36 -47 67v68q-68 -82 -122 -112q-50 -29 -118 -29q-105 0 -165 95q-53 85 -51 208q3 140 101 266q105 134 239 133q50 -1 97 -27q21 -14 43 -28q4 -2 45 38h19v-495q-2 -54 0 -80q0 -10 17 -25q10 -8 19 -15zM458 469q-33 -75 -82 -104
q-36 -22 -95 -22q-38 0 -62 28q-21 24 -21 57q0 45 44 88.5t88 43.5q4 0 4.5 -4.5t1.5 -5.5q-2 -4 -19 -12q-20 -8 -29 -19q-15 -17 -15 -49q0 -30 19.5 -48.5t52.5 -18.5q50 0 83 57q27 48 27 97q0 42 -33.5 72.5t-77.5 30.5q-118 0 -185 -115q-59 -100 -59 -238
q0 -69 17 -124q17 -58 64.5 -97.5t100.5 -41.5q49 -2 112.5 54t63.5 97v274zM392 757q0 19 13 32t31 13q19 0 32 -13t13 -32q0 -18 -13 -31t-32 -13q-18 0 -31 13t-13 31zM212 757q0 19 13 32t31 13q19 0 32 -13t13 -32q0 -18 -13 -31t-32 -13q-18 0 -31 13t-13 31z" />
    <glyph glyph-name="Aring" unicode="&#xc5;" horiz-adv-x="609" 
d="M582 56l-77 -64q-49 36 -47 67v68q-68 -82 -122 -112q-50 -29 -118 -29q-105 0 -165 95q-53 85 -51 208q3 140 101 266q105 134 239 133q50 -1 97 -27q21 -14 43 -28q4 -2 45 38h19v-495q-2 -54 0 -80q0 -10 17 -25q10 -8 19 -15zM458 195v274q-33 -75 -82 -104
q-36 -22 -95 -22q-38 0 -62 28q-21 24 -21 57q0 45 44 88.5t88 43.5q4 0 4.5 -4.5t1.5 -5.5q-2 -4 -19 -12q-20 -8 -29 -19q-15 -17 -15 -49q0 -30 19.5 -48.5t52.5 -18.5q50 0 83 57q27 48 27 97q0 42 -33.5 72.5t-77.5 30.5q-118 0 -185 -115q-59 -100 -59 -238
q0 -69 17 -124q17 -58 64.5 -97.5t100.5 -41.5q49 -2 112.5 54t63.5 97zM328 723q-28 0 -48 20t-20 48q0 27 20 47t48 20q27 0 47 -20t20 -47q0 -28 -20 -48t-47 -20zM328 834q-17 0 -29.5 -12.5t-12.5 -30.5q0 -17 12.5 -29.5t29.5 -12.5q18 0 30 12.5t12 29.5
q0 18 -12 30.5t-30 12.5z" />
    <glyph glyph-name="Ccedilla" unicode="&#xc7;" horiz-adv-x="555" 
d="M370 -107q0 -33 -26 -52.5t-69 -19.5q-13 0 -26.5 2t-33.5 14q-24 14 -29 29l7 12q25 -17 66 -17q42 0 42 33q0 37 -40 37q-9 0 -40 7q5 17 12 57q-119 8 -182 115q-51 87 -51 203q0 153 104 258q100 102 234 104q80 1 127 -41.5t47 -110.5q-1 -82 -71.5 -146.5
t-145.5 -64.5q-53 0 -96 27q-51 32 -51 88q0 51 46 84q40 29 88 29q14 0 24 -3q8 -9 5 -11q-35 -8 -60 -35t-25 -58q0 -87 88 -87q53 0 90 48q34 42 34 88q0 66 -46.5 108t-113.5 40q-93 -3 -158 -90q-61 -80 -58 -173q2 -116 57 -197q65 -97 179 -95q118 2 202 90
q2 -6 -1 -22q-28 -61 -102 -104q-70 -41 -140 -44v-35q20 3 36 3q77 0 77 -70z" />
    <glyph glyph-name="Eacute" unicode="&#xc9;" horiz-adv-x="558" 
d="M519 217q-5 -108 -115 -170q-95 -54 -209 -48q-90 4 -143 58q-49 49 -49 119q0 58 35 108q37 54 105 82q-105 34 -105 122q-1 73 97 139q90 61 155 58q6 -1 16 -18q12 -22 22 -32q18 -18 47 -20q21 -1 37 7t32 17q2 -43 -56 -62q-45 -15 -77 -9q-64 12 -99 73
q-46 -14 -67 -61q-16 -38 -13 -85q5 -50 37 -68q22 -13 76 -16l-1 -7q-59 -16 -96.5 -68t-40.5 -116q-10 -188 143 -196q72 -4 128 48.5t60 124.5q6 108 -98 114q-37 1 -70 -22.5t-35 -59.5q-1 -25 16.5 -41t42.5 -18q16 -1 36 7q25 10 30 11q-6 -31 -38 -55.5t-69 -21.5
q-32 2 -52 25.5t-17 61.5q5 65 72 108q62 40 130 36q58 -3 97 -37t36 -88zM312 820l-148 -120q6 -6 9 -6q2 0 185 79q16 12 16 26q0 12 -11 21t-25 9t-26 -9z" />
    <glyph glyph-name="Ntilde" unicode="&#xd1;" horiz-adv-x="776" 
d="M737 71l-30 -40q-25 -32 -33 -32q-15 0 -41 32q-22 27 -27 42q-9 24 -10 57q-2 82 1 263q1 59 5 74q12 46 56 74l35 24q-17 -48 -19 -136q1 56 1 -129v-147q0 -41 24 -59q19 -11 38 -23zM487 448q0 -86 -67 -206q-61 -113 -130 -169l68 18q5 1 13 1q25 0 48 -9
q27 -11 29 -27q-19 -24 -57 -63q-43 41 -78 41q-17 0 -49 -11t-48 -21q55 86 110 173q61 107 64 239q2 103 -29 162q-40 75 -128 72q-64 -2 -111.5 -57t-43.5 -123q3 -65 37 -109.5t74 -46.5q37 -2 59 27t21 78q-1 32 -21 57.5t-49 25.5q-17 0 -34.5 -12.5t-33.5 -24.5
q6 94 92 102q45 4 78 -27t33 -78q0 -69 -46 -124q-49 -60 -120 -56q-62 3 -115 56t-53 118q0 103 78 166q69 57 167 60q123 4 186 -65q56 -61 56 -167zM766 667q-5 -25 -42 -52t-63 -27q-27 0 -59.5 13t-38.5 13q-32 0 -67 -11q9 30 47 53t71 23q26 0 53 -12t53 -12
q24 0 46 12zM407 747q-72 0 -72 -22h-12q0 28 33 52q30 24 60 24q29 0 51.5 -16t43.5 -16q51 0 48 0q20 2 39 23h14q0 -27 -35.5 -52.5t-65.5 -25.5q-24 0 -50 16.5t-54 16.5z" />
    <glyph glyph-name="Odieresis" unicode="&#xd6;" horiz-adv-x="702" 
d="M651 382q0 -142 -81 -257q-94 -134 -245 -134q-149 0 -242 109q-84 100 -84 237q0 77 43 166q48 100 123 146q1 -10 -18 -34l-27 -33q-21 -36 -33 -92q-7 -32 -7 -105q0 -99 47 -185q56 -103 162 -145q43 -17 81 -17q110 0 174 98q52 79 52 177q0 99 -55 180
q-65 94 -182 120q-25 5 -31 5q-56 0 -100 -33t-54 -83q-11 -56 -11 -46q0 -61 26 -104q33 -55 99 -55q46 0 70 30q21 26 21 66t-12 53v15q29 -7 44 -44q12 -28 12 -58q0 -51 -38 -107q-41 -63 -92 -63q-78 0 -125 81q-39 66 -39 134q0 103 69 189q75 93 181 93
q127 0 204 -99q68 -88 68 -205zM392 757q0 19 13 32t31 13q19 0 32 -13t13 -32q0 -18 -13 -31t-32 -13q-18 0 -31 13t-13 31zM212 757q0 19 13 32t31 13q19 0 32 -13t13 -32q0 -18 -13 -31t-32 -13q-18 0 -31 13t-13 31z" />
    <glyph glyph-name="Udieresis" unicode="&#xdc;" horiz-adv-x="766" 
d="M607 165v-116q0 -16 76 -55q29 35 63 81q-17 11 -43 27q-22 12 -18 76l1 313q0 -1 0 41q-1 41 -1 68q0 24 13 49l15 29q-105 -70 -105 -119l1 -360q-106 -130 -108 -129q-34 39 -101 39q-60 0 -114 -29q70 58 133 165q69 117 69 202q0 105 -56 166q-63 70 -186 66
q-98 -3 -167 -60q-78 -64 -78 -166q0 -66 53 -118.5t115 -55.5q71 -4 120 55q46 56 46 124q0 47 -33 78t-78 27q-86 -7 -92 -102q16 12 33.5 25t34.5 13q29 0 49 -25.5t21 -58.5q1 -48 -21 -77.5t-59 -27.5q-40 3 -74 47.5t-37 108.5q-4 69 43.5 124t111.5 57q88 2 128 -72
q31 -60 29 -162q-2 -97 -31 -172q-21 -56 -67 -118q-38 -51 -76 -103q17 10 52.5 23t52.5 13q77 1 147 -66q5 14 63 86q54 68 75 89zM492 757q0 19 13 32t31 13q19 0 32 -13t13 -32q0 -18 -13 -31t-32 -13q-18 0 -31 13t-13 31zM312 757q0 19 13 32t31 13q19 0 32 -13
t13 -32q0 -18 -13 -31t-32 -13q-18 0 -31 13t-13 31z" />
    <glyph glyph-name="aacute" unicode="&#xe1;" horiz-adv-x="314" 
d="M66 376q-1 1 -4 3l124 99q14 11 31 6q18 -5 18 -21q0 -11 -13 -20q-154 -67 -156 -67zM219 -8q-22 3 -47 48q-57 -45 -64 -45q-42 0 -76 55q-29 49 -29 95q0 62 63 140t119 79q14 1 77 -76l-21 -25v-184q0 -24 29 -39zM170 264q0 11 -43 52q-68 -42 -68 -135
q0 -38 27 -80q29 -46 63 -46q13 0 21 9v200z" />
    <glyph glyph-name="agrave" unicode="&#xe0;" horiz-adv-x="314" 
d="M226 376q-2 0 -157 67q-12 9 -12 20q0 16 18 21q17 5 31 -6l123 -99q-2 -3 -3 -3zM219 -8q-22 3 -47 48q-57 -45 -64 -45q-42 0 -76 55q-29 49 -29 95q0 62 63 140t119 79q14 1 77 -76l-21 -25v-184q0 -24 29 -39zM170 264q0 11 -43 52q-68 -42 -68 -135q0 -38 27 -80
q29 -46 63 -46q13 0 21 9v200z" />
    <glyph glyph-name="acircumflex" unicode="&#xe2;" horiz-adv-x="314" 
d="M268 384l-109 61l-113 -63l-2 4l114 103l113 -102zM219 -8q-22 3 -47 48q-57 -45 -64 -45q-42 0 -76 55q-29 49 -29 95q0 62 63 140t119 79q14 1 77 -76l-21 -25v-184q0 -24 29 -39zM170 264q0 11 -43 52q-68 -42 -68 -135q0 -38 27 -80q29 -46 63 -46q13 0 21 9v200z
" />
    <glyph glyph-name="adieresis" unicode="&#xe4;" horiz-adv-x="314" 
d="M219 400q-14 0 -24.5 10t-10.5 25t10.5 25.5t24.5 10.5q15 0 25.5 -10.5t10.5 -25.5t-10.5 -25t-25.5 -10zM96 400q-14 0 -24.5 10t-10.5 25t10.5 25.5t24.5 10.5q15 0 25.5 -10.5t10.5 -25.5t-10.5 -25t-25.5 -10zM219 -8q-22 3 -47 48q-57 -45 -64 -45q-42 0 -76 55
q-29 49 -29 95q0 62 63 140t119 79q14 1 77 -76l-21 -25v-184q0 -24 29 -39zM170 264q0 11 -43 52q-68 -42 -68 -135q0 -38 27 -80q29 -46 63 -46q13 0 21 9v200z" />
    <glyph glyph-name="atilde" unicode="&#xe3;" horiz-adv-x="314" 
d="M188 410q-18 0 -37.5 12.5t-41.5 12.5q-51 0 -56 -17h-4q2 19 24 35.5t43 16.5q19 0 29.5 -7t21.5 -13q7 -4 40 -5q29 -1 46 18h8q-2 -19 -27 -36t-46 -17zM219 -8q-22 3 -47 48q-57 -45 -64 -45q-42 0 -76 55q-29 49 -29 95q0 62 63 140t119 79q14 1 77 -76l-21 -25
v-184q0 -24 29 -39zM170 264q0 11 -43 52q-68 -42 -68 -135q0 -38 27 -80q29 -46 63 -46q13 0 21 9v200z" />
    <glyph glyph-name="aring" unicode="&#xe5;" horiz-adv-x="314" 
d="M148 406q-27 0 -46 19t-19 46q0 26 19 45t46 19q26 0 45 -19t19 -45q0 -27 -19 -46t-45 -19zM219 -8q-22 3 -47 48q-57 -45 -64 -45q-42 0 -76 55q-29 49 -29 95q0 62 63 140t119 79q14 1 77 -76l-21 -25v-184q0 -24 29 -39zM148 516q-18 0 -31.5 -13t-13.5 -32
q0 -18 13.5 -31.5t31.5 -13.5q19 0 32 13.5t13 31.5q0 19 -13 32t-32 13zM170 264q0 11 -43 52q-68 -42 -68 -135q0 -38 27 -80q29 -46 63 -46q13 0 21 9v200z" />
    <glyph glyph-name="ccedilla" unicode="&#xe7;" horiz-adv-x="245" 
d="M168 253l-67 43q-38 -37 -38 -85q0 -49 44 -94q37 -39 88 -59l-50 -67q-7 5 -28 17v-49q13 3 21 3q36 0 36 -47t-45 -47q-6 0 -13 1q-23 5 -29 27l2 5q13 -10 32 -10q23 0 23 26q0 28 -22 28q-4 0 -17 4q4 40 5 64q-54 32 -76 58q-31 37 -31 87q0 44 52 110q41 48 83 97
l68 -46z" />
    <glyph glyph-name="eacute" unicode="&#xe9;" horiz-adv-x="273" 
d="M66 376q-1 1 -4 3l124 99q14 11 31 6q18 -5 18 -21q0 -11 -13 -20q-154 -67 -156 -67zM108 115q38 -38 87 -58l-44 -65q-67 31 -100 61q-48 45 -48 105q0 44 52 110q41 48 83 97l73 -53q11 -9 25 -18zM102 298q-39 -37 -39 -87q0 -42 35 -84l85 114z" />
    <glyph glyph-name="egrave" unicode="&#xe8;" horiz-adv-x="273" 
d="M210 376q-1 0 -156 67q-12 9 -12 20q0 16 17 21q18 5 31 -6l124 -99q-3 -3 -4 -3zM108 115q38 -38 87 -58l-44 -65q-67 31 -100 61q-48 45 -48 105q0 44 52 110q41 48 83 97l73 -53q11 -9 25 -18zM102 298q-39 -37 -39 -87q0 -42 35 -84l85 114z" />
    <glyph glyph-name="ecircumflex" unicode="&#xea;" horiz-adv-x="273" 
d="M248 384l-109 61l-113 -63l-2 4l114 103l113 -102zM108 115q38 -38 87 -58l-44 -65q-67 31 -100 61q-48 45 -48 105q0 44 52 110q41 48 83 97l73 -53q11 -9 25 -18zM102 298q-39 -37 -39 -87q0 -42 35 -84l85 114z" />
    <glyph glyph-name="edieresis" unicode="&#xeb;" horiz-adv-x="273" 
d="M209 400q-14 0 -24.5 10t-10.5 25t10.5 25.5t24.5 10.5q15 0 25.5 -10.5t10.5 -25.5t-10.5 -25t-25.5 -10zM86 400q-14 0 -24.5 10t-10.5 25t10.5 25.5t24.5 10.5q15 0 25.5 -10.5t10.5 -25.5t-10.5 -25t-25.5 -10zM108 115q38 -38 87 -58l-44 -65q-67 31 -100 61
q-48 45 -48 105q0 44 52 110q41 48 83 97l73 -53q11 -9 25 -18zM102 298q-39 -37 -39 -87q0 -42 35 -84l85 114z" />
    <glyph glyph-name="iacute" unicode="&#xed;" horiz-adv-x="151" 
d="M-34 386q-1 1 -4 3l124 99q14 11 31 6q18 -5 18 -21q0 -11 -13 -20q-154 -67 -156 -67zM71 -3q-17 13 -42 38q-8 11 -7 43v205q0 9 -22 33l56 53q45 -42 59 -59l-22 -28v-184q0 -17 23 -39l5 -5z" />
    <glyph glyph-name="igrave" unicode="&#xec;" horiz-adv-x="151" 
d="M135 386q-2 0 -156 67q-13 9 -13 20q0 16 18 21q17 5 31 -6l123 -99q-2 -3 -3 -3zM71 -3q-17 13 -42 38q-8 11 -7 43v205q0 9 -22 33l56 53q45 -42 59 -59l-22 -28v-184q0 -17 23 -39l5 -5z" />
    <glyph glyph-name="icircumflex" unicode="&#xee;" horiz-adv-x="151" 
d="M138 384l-79 61l-83 -63l-2 4l84 103l84 -102zM71 -3q-17 13 -42 38q-8 11 -7 43v205q0 9 -22 33l56 53q45 -42 59 -59l-22 -28v-184q0 -17 23 -39l5 -5z" />
    <glyph glyph-name="idieresis" unicode="&#xef;" horiz-adv-x="151" 
d="M119 400q-14 0 -24.5 10t-10.5 25t10.5 25.5t24.5 10.5q15 0 25.5 -10.5t10.5 -25.5t-10.5 -25t-25.5 -10zM-4 400q-14 0 -24.5 10t-10.5 25t10.5 25.5t24.5 10.5q15 0 25.5 -10.5t10.5 -25.5t-10.5 -25t-25.5 -10zM71 -3q-17 13 -42 38q-8 11 -7 43v205q0 9 -22 33
l56 53q45 -42 59 -59l-22 -28v-184q0 -17 23 -39l5 -5z" />
    <glyph glyph-name="ntilde" unicode="&#xf1;" horiz-adv-x="314" 
d="M168 410q-18 0 -37.5 12.5t-41.5 12.5q-51 0 -56 -17h-4q2 19 24 35.5t43 16.5q19 0 29.5 -7t21.5 -13q7 -4 40 -5q29 -1 46 18h8q-2 -19 -27 -36t-46 -17zM217 87q22 -17 55 -43l-50 -52l-60 51q49 73 51 81q7 34 3 63q-1 11 -5 23q-64 94 -81 94q-37 0 -40 -31l1 -180
q0 -15 21 -33l8 -7l-52 -57l-68 58q21 14 22 35q-1 -18 -1 161q0 29 -4 36.5t-20 21.5l50 52q13 -14 43 -45q2 -5 2 -19q18 22 45 42q35 25 55 24t84 -112q4 -7 4 -16q0 -44 -63 -147z" />
    <glyph glyph-name="oacute" unicode="&#xf3;" horiz-adv-x="361" 
d="M76 376q-1 1 -4 3l124 99q14 11 31 6q18 -5 18 -21q0 -11 -13 -20q-154 -67 -156 -67zM292 135q-10 -21 -57 -78q-53 -65 -70 -65q-19 -3 -87 57q-73 65 -73 106q0 33 22 80q9 19 58 73q53 58 70 58q20 3 87 -51q72 -59 72 -100q0 -32 -22 -80zM196 256q-29 18 -37 24
q-22 16 -28 31q-27 -14 -49.5 -43.5t-22.5 -45.5q-1 -35 13 -57q12 -18 51 -51l40 -28q23 -17 33 -36q62 66 62 97q0 57 -62 109z" />
    <glyph glyph-name="ograve" unicode="&#xf2;" horiz-adv-x="361" 
d="M243 376q-2 0 -157 67q-14 11 -14 23q0 21 23 21q10 0 19 -7l132 -101q-2 -3 -3 -3zM292 135q-10 -21 -57 -78q-53 -65 -70 -65q-19 -3 -87 57q-73 65 -73 106q0 33 22 80q9 19 58 73q53 58 70 58q20 3 87 -51q72 -59 72 -100q0 -32 -22 -80zM196 256q-29 18 -37 24
q-22 16 -28 31q-27 -14 -49.5 -43.5t-22.5 -45.5q-1 -35 13 -57q12 -18 51 -51l40 -28q23 -17 33 -36q62 66 62 97q0 57 -62 109z" />
    <glyph glyph-name="ocircumflex" unicode="&#xf4;" horiz-adv-x="361" 
d="M268 384l-109 61l-113 -63l-2 4l114 103l113 -102zM292 135q-10 -21 -57 -78q-53 -65 -70 -65q-19 -3 -87 57q-73 65 -73 106q0 33 22 80q9 19 58 73q53 58 70 58q20 3 87 -51q72 -59 72 -100q0 -32 -22 -80zM196 256q-29 18 -37 24q-22 16 -28 31q-27 -14 -49.5 -43.5
t-22.5 -45.5q-1 -35 13 -57q12 -18 51 -51l40 -28q23 -17 33 -36q62 66 62 97q0 57 -62 109z" />
    <glyph glyph-name="odieresis" unicode="&#xf6;" horiz-adv-x="361" 
d="M219 400q-14 0 -24.5 10t-10.5 25t10.5 25.5t24.5 10.5q15 0 25.5 -10.5t10.5 -25.5t-10.5 -25t-25.5 -10zM96 400q-14 0 -24.5 10t-10.5 25t10.5 25.5t24.5 10.5q15 0 25.5 -10.5t10.5 -25.5t-10.5 -25t-25.5 -10zM292 135q-10 -21 -57 -78q-53 -65 -70 -65
q-19 -3 -87 57q-73 65 -73 106q0 33 22 80q9 19 58 73q53 58 70 58q20 3 87 -51q72 -59 72 -100q0 -32 -22 -80zM196 256q-29 18 -37 24q-22 16 -28 31q-27 -14 -49.5 -43.5t-22.5 -45.5q-1 -35 13 -57q12 -18 51 -51l40 -28q23 -17 33 -36q62 66 62 97q0 57 -62 109z" />
    <glyph glyph-name="otilde" unicode="&#xf5;" horiz-adv-x="361" 
d="M188 410q-18 0 -37.5 12.5t-41.5 12.5q-51 0 -56 -17h-4q2 19 24 35.5t43 16.5q19 0 29.5 -7t21.5 -13q7 -4 40 -5q29 -1 46 18h8q-2 -19 -27 -36t-46 -17zM292 135q-10 -21 -57 -78q-53 -65 -70 -65q-19 -3 -87 57q-73 65 -73 106q0 33 22 80q9 19 58 73q53 58 70 58
q20 3 87 -51q72 -59 72 -100q0 -32 -22 -80zM196 256q-29 18 -37 24q-22 16 -28 31q-27 -14 -49.5 -43.5t-22.5 -45.5q-1 -35 13 -57q12 -18 51 -51l40 -28q23 -17 33 -36q62 66 62 97q0 57 -62 109z" />
    <glyph glyph-name="uacute" unicode="&#xfa;" horiz-adv-x="316" 
d="M76 386q-1 1 -4 3l124 99q14 11 31 6q18 -5 18 -21q0 -11 -13 -20q-154 -67 -156 -67zM239 -4q-18 17 -53 55q-24 -18 -71 -55q-40 11 -75.5 54.5t-35.5 76.5q-1 60 61 134q10 12 34 40q-52 -15 -88 -4l42 61q19 -13 45 -13q20 0 53 9l-54 -78q-36 -58 -37 -81
q-3 -74 77 -124q5 -4 12 -4q28 0 39 28q1 31 1 170q0 26 -24 41l55 55l59 -60q-16 -10 -20 -31q-1 -4 -1 -45v-122q0 -30 4.5 -37.5t19.5 -20.5z" />
    <glyph glyph-name="ugrave" unicode="&#xf9;" horiz-adv-x="316" 
d="M226 384q-2 0 -156 67q-13 9 -13 20q0 15 18 21q17 5 31 -6l123 -100q-2 -2 -3 -2zM239 -4q-18 17 -53 55q-24 -18 -71 -55q-40 11 -75.5 54.5t-35.5 76.5q-1 60 61 134q10 12 34 40q-52 -15 -88 -4l42 61q19 -13 45 -13q20 0 53 9l-54 -78q-36 -58 -37 -81
q-3 -74 77 -124q5 -4 12 -4q28 0 39 28q1 31 1 170q0 26 -24 41l55 55l59 -60q-16 -10 -20 -31q-1 -4 -1 -45v-122q0 -30 4.5 -37.5t19.5 -20.5z" />
    <glyph glyph-name="ucircumflex" unicode="&#xfb;" horiz-adv-x="316" 
d="M258 384l-109 61l-113 -63l-2 4l114 103l113 -102zM239 -4q-18 17 -53 55q-24 -18 -71 -55q-40 11 -75.5 54.5t-35.5 76.5q-1 60 61 134q10 12 34 40q-52 -15 -88 -4l42 61q19 -13 45 -13q20 0 53 9l-54 -78q-36 -58 -37 -81q-3 -74 77 -124q5 -4 12 -4q28 0 39 28
q1 31 1 170q0 26 -24 41l55 55l59 -60q-16 -10 -20 -31q-1 -4 -1 -45v-122q0 -30 4.5 -37.5t19.5 -20.5z" />
    <glyph glyph-name="udieresis" unicode="&#xfc;" horiz-adv-x="316" 
d="M219 400q-14 0 -24.5 10t-10.5 25t10.5 25.5t24.5 10.5q15 0 25.5 -10.5t10.5 -25.5t-10.5 -25t-25.5 -10zM96 400q-14 0 -24.5 10t-10.5 25t10.5 25.5t24.5 10.5q15 0 25.5 -10.5t10.5 -25.5t-10.5 -25t-25.5 -10zM239 -4q-18 17 -53 55q-24 -18 -71 -55
q-40 11 -75.5 54.5t-35.5 76.5q-1 60 61 134q10 12 34 40q-52 -15 -88 -4l42 61q19 -13 45 -13q20 0 53 9l-54 -78q-36 -58 -37 -81q-3 -74 77 -124q5 -4 12 -4q28 0 39 28q1 31 1 170q0 26 -24 41l55 55l59 -60q-16 -10 -20 -31q-1 -4 -1 -45v-122q0 -30 4.5 -37.5
t19.5 -20.5z" />
    <glyph glyph-name="dagger" unicode="&#x2020;" 
 />
    <glyph glyph-name="degree" unicode="&#xb0;" horiz-adv-x="279" 
d="M119 664q49 0 83 -35.5t34 -85.5t-34 -86t-83 -36t-83 36t-34 86t34 85.5t83 35.5zM119 629q-34 0 -58 -25t-24 -61t24 -61.5t58 -25.5t58 25.5t24 61.5t-24 61t-58 25z" />
    <glyph glyph-name="cent" unicode="&#xa2;" horiz-adv-x="236" 
d="M203 397l-40 -71l-68 44q-36 -35 -36 -82q0 -48 44 -94q38 -38 89 -58l-43 -59v-61l-38 -3v69q-59 36 -81 60q-36 39 -36 93q0 40 42 98q16 21 75 89v60h38v-49z" />
    <glyph glyph-name="sterling" unicode="&#xa3;" horiz-adv-x="574" 
d="M30 339h63q-47 83 -47 132q0 53 40 107q44 61 89 85q52 28 139 30q59 2 108 -36.5t49 -91.5q0 -61 -57.5 -109.5t-111.5 -43.5q-109 9 -105 91q1 21 16.5 42t40.5 30q15 5 24 5q6 0 14 -3t14 -3l-22 -24q-15 -17 -15 -49q0 -61 50 -61q37 0 55 39q12 28 12 64
q0 56 -30.5 88.5t-83.5 32.5q-56 0 -99 -38q-46 -41 -46 -103q0 -44 76 -184h97l10 -29h-91q20 -41 18 -52q3 -14 3 -28q0 -39 -26 -76q-6 -7 -37 -41q32 6 89 -8q32 -11 64 -21t67 -10q47 0 83 17q48 23 53 24q-22 -67 -89 -103q-51 -28 -101 -28q-34 0 -100 19t-98 19
q-60 0 -154 -36q39 59 70 83t90 44q6 3 6 50q0 63 -47 147h-70z" />
    <glyph glyph-name="section" unicode="&#xa7;" 
 />
    <glyph glyph-name="bullet" unicode="&#x2022;" horiz-adv-x="236" 
d="M14 266q0 34 25 58.5t61 24.5t61.5 -24.5t25.5 -58.5t-25.5 -58.5t-61.5 -24.5t-61 24.5t-25 58.5z" />
    <glyph glyph-name="paragraph" unicode="&#xb6;" 
 />
    <glyph glyph-name="germandbls" unicode="&#xdf;" horiz-adv-x="410" 
d="M101 551l1 -102l-1 -359q0 -17 45 -43l-53 -70l-89 61q8 18 23 52v237v152q-2 40 65 117q65 73 92 73q30 3 83 -56q57 -62 57 -113q0 -56 -87 -140q135 -48 143 -157q7 -95 -62 -159q-60 -55 -122 -52q-36 2 -36 0l4 15q6 -2 15 -2q32 0 69 25q42 28 61 72q10 38 10 65
q0 78 -87 122q-24 7 -75 30q58 55 71 74q24 36 24 90q0 28 -39.5 75t-64.5 47q-33 -17 -47 -54z" />
    <glyph glyph-name="registered" unicode="&#xae;" horiz-adv-x="374" 
d="M162 383q-62 0 -106 45t-44 108q0 62 44 106t106 44t104.5 -44.5t42.5 -107.5t-42.5 -107t-104.5 -44zM162 406q51 0 88 37.5t37 90.5t-37 90.5t-88 37.5q-54 1 -90 -36t-36 -92q0 -53 37.5 -90.5t88.5 -37.5zM176 534l47 -72h-26l-47 72h-26v-72h-22v157h68q-6 0 -5 1h7
q52 0 52 -40q0 -44 -48 -46zM126 557h45q30 0 30 23q0 17 -34 17h-41v-40z" />
    <glyph glyph-name="copyright" unicode="&#xa9;" horiz-adv-x="772" 
d="M346 -11q-143 0 -242.5 100t-99.5 244q0 145 99.5 245t242.5 100t243 -100t100 -245q0 -144 -100 -244t-243 -100zM346 635q-122 0 -211 -88t-89 -214q0 -125 89 -213t211 -88t211 88t89 213q0 126 -89 214t-211 88zM355 139q-86 0 -136.5 55t-50.5 142q0 83 52 139.5
t136 56.5q59 0 103 -34t54 -91h-45q-22 81 -112 81q-67 0 -106 -44t-39 -110q0 -60 34 -103q40 -49 109 -49q94 0 115 79h43q-13 -57 -55.5 -89.5t-101.5 -32.5z" />
    <glyph glyph-name="trademark" unicode="&#x2122;" horiz-adv-x="481" 
d="M401 650v-196h-27v167h-2l-66 -167h-17l-65 167v0v-167h-28v196h46l56 -141l57 141h46zM159 650v-29h-64v-167h-28v167h-65v29h157z" />
    <glyph glyph-name="acute" unicode="&#xb4;" horiz-adv-x="298" 
d="M192 840l-148 -120q6 -6 9 -6q2 0 185 79q16 12 16 26q0 12 -11 21t-25 9t-26 -9z" />
    <glyph glyph-name="dieresis" unicode="&#xa8;" horiz-adv-x="498" 
d="M282 757q0 19 13 32t31 13q19 0 32 -13t13 -32q0 -18 -13 -31t-32 -13q-18 0 -31 13t-13 31zM102 757q0 19 13 32t31 13q19 0 32 -13t13 -32q0 -18 -13 -31t-32 -13q-18 0 -31 13t-13 31z" />
    <glyph glyph-name="AE" unicode="&#xc6;" horiz-adv-x="994" 
d="M492 246l8 23q10 31 28 56q26 36 67 55q-86 19 -103 111v-245zM452 180q0 3 4 26v259q-33 -75 -81 -102q-34 -20 -94 -20q-38 0 -62 28q-21 24 -21 57q0 45 44 88.5t88 43.5q4 0 4.5 -4.5t1.5 -5.5q-2 -4 -19 -12q-20 -8 -29 -19q-15 -17 -15 -49q0 -30 19.5 -48.5
t52.5 -18.5q50 0 83 57q27 48 27 97q0 42 -33.5 72.5t-77.5 30.5q-118 0 -185 -115q-59 -100 -59 -238q0 -69 17 -124q17 -58 64.5 -97.5t100.5 -41.5q44 -1 102 47q55 46 68 89zM969 217q-5 -109 -111 -175q-94 -59 -205 -53q-129 7 -163 141l3 -131h-35q-1 40 -0.5 61.5
t0.5 66.5q-68 -82 -122 -112q-50 -29 -118 -29q-105 0 -165 95q-53 85 -51 208q3 140 101 266q105 134 239 133q50 -1 84 -19q16 -10 32 -21q4 -1 25 29l10 -1q0 10 0 -145q21 76 117 121q76 35 130 33q6 -1 16 -18q12 -22 22 -32q18 -18 47 -20q21 -1 37 7t32 17
q2 -43 -56 -62q-45 -15 -77 -9q-64 12 -99 73q-46 -14 -67 -61q-16 -38 -13 -85q5 -50 37 -68q22 -13 76 -16l-1 -7q-59 -16 -96.5 -68t-40.5 -116q-10 -188 143 -196q72 -4 128 48.5t60 124.5q6 108 -98 114q-37 1 -70 -22.5t-35 -59.5q-1 -25 16.5 -41t42.5 -18
q16 -1 36 7q25 10 30 11q-6 -31 -38 -55.5t-69 -21.5q-32 2 -52 25.5t-17 61.5q5 65 72 108q62 40 130 36q58 -3 97 -37t36 -88z" />
    <glyph glyph-name="Oslash" unicode="&#xd8;" horiz-adv-x="702" 
d="M317 315l36 40q10 23 10 46q0 8 -7.5 32.5t-7.5 25.5h1q0 -1 2 -4v14q35 -8 49 -60l108 124q-60 60 -149 80q-25 5 -31 5q-56 0 -100 -33t-54 -83q-11 -56 -11 -46q0 -63 14 -93q22 -45 87 -57q29 -5 53 9zM526 513l-120 -137v-9q0 -49 -44 -103q-48 -58 -99 -51l-79 -90
q45 -44 105 -68q43 -17 81 -17q110 0 174 98q52 79 52 177q0 114 -70 200zM631 673h35l-80 -90q65 -87 65 -201q0 -142 -81 -257q-94 -134 -245 -134q-114 0 -197 67l-48 -55h-35l63 72q-109 102 -109 262q0 77 43 166q48 100 123 146q1 -10 -18 -34l-27 -33
q-21 -36 -33 -92q-7 -32 -7 -105q0 -142 86 -243l68 77q-105 32 -105 185q0 103 69 189q75 93 181 93q115 0 191 -83z" />
    <glyph glyph-name="plusminus" unicode="&#xb1;" 
 />
    <glyph glyph-name="yen" unicode="&#xa5;" 
 />
    <glyph glyph-name="uni00B5" unicode="&#xb5;" horiz-adv-x="574" 
d="M29 177l112 67q-7 21 -59 115q-36 66 -36 112q0 53 40 107q44 61 89 85q52 28 139 30q59 2 108 -36.5t49 -91.5q0 -61 -57.5 -109.5t-111.5 -43.5q-109 9 -105 91q1 21 16.5 42t40.5 30q15 5 24 5q6 0 14 -3t14 -3l-22 -24q-15 -17 -15 -49q0 -61 50 -61q37 0 55 39
q12 28 12 64q0 56 -30.5 88.5t-83.5 32.5q-56 0 -99 -38q-46 -41 -46 -103q0 -38 39 -115l60 -114l147 86v-32l-137 -81q2 -6 1 -9q3 -14 3 -28q0 -39 -26 -76q-6 -7 -37 -41q32 6 89 -8q32 -11 64 -21t67 -10q47 0 83 17q48 23 53 24q-22 -67 -89 -103q-51 -28 -101 -28
q-34 0 -100 19t-98 19q-60 0 -154 -36q39 59 70 83t90 44q6 3 6 50q0 26 -7 53l-121 -71v32z" />
    <glyph glyph-name="uni00B5" unicode="&#x3bc;" horiz-adv-x="574" 
d="M29 177l112 67q-7 21 -59 115q-36 66 -36 112q0 53 40 107q44 61 89 85q52 28 139 30q59 2 108 -36.5t49 -91.5q0 -61 -57.5 -109.5t-111.5 -43.5q-109 9 -105 91q1 21 16.5 42t40.5 30q15 5 24 5q6 0 14 -3t14 -3l-22 -24q-15 -17 -15 -49q0 -61 50 -61q37 0 55 39
q12 28 12 64q0 56 -30.5 88.5t-83.5 32.5q-56 0 -99 -38q-46 -41 -46 -103q0 -38 39 -115l60 -114l147 86v-32l-137 -81q2 -6 1 -9q3 -14 3 -28q0 -39 -26 -76q-6 -7 -37 -41q32 6 89 -8q32 -11 64 -21t67 -10q47 0 83 17q48 23 53 24q-22 -67 -89 -103q-51 -28 -101 -28
q-34 0 -100 19t-98 19q-60 0 -154 -36q39 59 70 83t90 44q6 3 6 50q0 26 -7 53l-121 -71v32z" />
    <glyph glyph-name="ordfeminine" unicode="&#xaa;" horiz-adv-x="712" 
d="M622 656q-1 15 -11 15q-14 0 -37.5 -25.5t-27.5 -40.5l21 6q5 0 30 18.5t25 26.5zM175 45q-40 13 -74 13q-25 0 -46 -7q-31 -10 -30 -28q2 -18 35 -18q28 0 66.5 13.5t48.5 26.5zM691 231q-6 -121 -100 -189q-84 -62 -204 -62q-51 0 -178 50q-78 -53 -153 -53
q-27 0 -45 12.5t-18 32.5q0 59 88 89q68 24 133 20l29 -10q49 69 129 236q-16 3 -85 2l27 41q47 -2 77 0q25 48 74 141q-48 -1 -147 48.5t-136 49.5q-38 0 -69 -28.5t-31 -65.5q0 -34 18.5 -57t51.5 -23q40 0 65 35q34 47 44 53l1 -16q3 -49 -44 -95.5t-97 -46.5
q-43 0 -70 27t-27 70q0 79 84 142q77 58 159 58q45 0 119 -31q58 -24 117 -49q48 80 110 80q12 0 23.5 -8t11.5 -19q0 -39 -57 -78q-46 -32 -83 -38q-3 -1 -39 -70.5t-38 -76.5q131 0 116 0q-12 -13 -29 -43h-109q-30 -65 -61 -129q-37 -76 -71 -121q129 -61 207 -61
q57 0 98 42t41 98q0 45 -19 77q-22 36 -62 36q-35 0 -62 -27.5t-27 -64.5q0 -44 31 -48q7 -1 13 -1q19 0 30 12q2 2 21 33q6 -16 6 -30q0 -32 -27 -50t-65 -18q-28 0 -46 26q-17 23 -17 52q0 57 52 105t121 48q42 0 81.5 -33t37.5 -74zM382 762l133 52l4 -9l-137 -105
l-139 105l9 6z" />
    <glyph glyph-name="ordmasculine" unicode="&#xba;" horiz-adv-x="278" 
d="M137 401l-114 86l4 2l110 -41l111 43l2 -3zM164 200h61l-19 -32h-57q-10 -34 -51 -97q46 8 85 8q43 0 66 -10l-58 -74q-60 14 -79 17q-44 7 -106 -8q21 21 57 69q17 30 25 45q13 27 18 47h-56l23 35h45q1 4 11 27q19 44 61 78l-3 4q-35 -20 -70 -23q-20 -3 -32 4t-25 14
q-9 4 -22 3q-7 -1 -34 -9q7 20 36 39.5t53 22.5q15 1 49 -9t61 -8q23 3 49 11q-29 -38 -56 -83q-32 -54 -32 -71z" />
    <glyph glyph-name="ae" unicode="&#xe6;" horiz-adv-x="435" 
d="M173 6v1q3 17 0 33q-58 -45 -65 -45q-42 0 -76 55q-29 49 -29 95q0 62 64 142.5t120 81.5q8 0 62 -71q23 25 59 67l73 -53q11 -9 25 -18l-128 -179q38 -38 87 -58l-44 -65q-36 16 -81 54q-3 -31 2 -40h-69zM272 298q-39 -37 -39 -87q0 -42 35 -84l85 114zM170 264
q0 11 -43 52q-68 -42 -68 -135q0 -38 27 -80q29 -46 63 -46q13 0 21 9v200z" />
    <glyph glyph-name="oslash" unicode="&#xf8;" horiz-adv-x="360" 
d="M265 294q49 -47 49 -79t-22 -80q-10 -21 -57 -78q-53 -65 -70 -65q-20 -3 -90 60l-38 -48h-28l49 64q-53 54 -53 87t22 80q9 19 58 73q53 58 70 58q21 4 93 -57l37 48h29zM196 256q-29 18 -37 24q-22 16 -28 31q-27 -14 -49.5 -43.5t-22.5 -45.5q-1 -30 9 -49t38 -44
l96 122zM219 235l-95 -121q19 -14 39 -28q23 -18 33 -36q62 66 62 97q0 48 -39 88z" />
    <glyph glyph-name="questiondown" unicode="&#xbf;" horiz-adv-x="449" 
d="M133 250q-22 -34 -22 -89q0 -46 24 -90q29 -51 71 -51q41 0 66 40q21 34 21 77q0 38 -32 65q37 21 72 21q47 0 47 -79q0 -149 -176 -149q-76 0 -125 40q-53 43 -53 118q0 72 48 115l102 72q33 25 42 88h27q1 -5 1 -11q0 -42 -39 -94q-32 -42 -74 -73zM230 481l-28 32
t-31 27l64 65q7 -10 23 -28q12 -10 35 -32z" />
    <glyph glyph-name="exclamdown" unicode="&#xa1;" horiz-adv-x="212" 
d="M17 -3q1 9 10 27q7 13 8 77l2 209q0 22 18 142h39q6 -43 17 -145q0 -81 4 -205q3 -39 5 -52q7 -35 24 -53h-127zM73 486q-13 16 -27 32t-31 27l64 64q7 -10 23 -27q10 -8 35 -32z" />
    <glyph glyph-name="logicalnot" unicode="&#xac;" 
 />
    <glyph glyph-name="florin" unicode="&#x192;" horiz-adv-x="602" 
d="M294 313l-178 -1q16 -100 69 -164q63 -75 163 -73q118 2 202 90q2 -6 -1 -22q-30 -66 -112 -110q-78 -42 -150 -38q-121 6 -185 113q-52 87 -52 204h-41l8 49l36 -1q3 27 9 53h-53l8 43h59q38 101 121 163t181 62q68 0 109 -30t69 -100q-69 -31 -69 -34
q-29 70 -63.5 93.5t-95.5 19.5q-69 -5 -126 -56q-52 -48 -76 -118h168v-43h-179q-4 -25 -3 -46v-8l182 -3v-43z" />
    <glyph glyph-name="guillemotleft" unicode="&#xab;" horiz-adv-x="290" 
d="M254 79l-8 -14l-126 178l124 165l10 -15l-70 -150zM134 79l-8 -14l-126 178l124 165l10 -15l-70 -150z" />
    <glyph glyph-name="guillemotright" unicode="&#xbb;" horiz-adv-x="290" 
d="M8 79l8 -14l126 178l-125 165l-9 -15l69 -150zM128 79l8 -14l126 178l-125 165l-9 -15l69 -150z" />
    <glyph glyph-name="ellipsis" unicode="&#x2026;" horiz-adv-x="618" 
d="M307 118q13 -16 27 -32t32 -27l-65 -64q-7 10 -22 28q-11 7 -36 31zM507 118q13 -16 27 -32t32 -27l-65 -64q-7 10 -22 28q-11 7 -36 31zM107 118q13 -16 27 -32t32 -27l-65 -64q-7 10 -22 28q-11 7 -36 31z" />
    <glyph glyph-name="uni00A0" unicode="&#xa0;" horiz-adv-x="158" 
 />
    <glyph glyph-name="Agrave" unicode="&#xc0;" horiz-adv-x="609" 
d="M582 56l-77 -64q-49 36 -47 67v68q-68 -82 -122 -112q-50 -29 -118 -29q-105 0 -165 95q-53 85 -51 208q3 140 101 266q105 134 239 133q50 -1 97 -27q21 -14 43 -28q4 -2 45 38h19v-495q-2 -54 0 -80q0 -10 17 -25q10 -8 19 -15zM458 469q-33 -75 -82 -104
q-36 -22 -95 -22q-38 0 -62 28q-21 24 -21 57q0 45 44 88.5t88 43.5q4 0 4.5 -4.5t1.5 -5.5q-2 -4 -19 -12q-20 -8 -29 -19q-15 -17 -15 -49q0 -30 19.5 -48.5t52.5 -18.5q50 0 83 57q27 48 27 97q0 42 -33.5 72.5t-77.5 30.5q-118 0 -185 -115q-59 -100 -59 -238
q0 -69 17 -124q17 -58 64.5 -97.5t100.5 -41.5q49 -2 112.5 54t63.5 97v274zM274 840l148 -120q-6 -6 -8 -6q-3 0 -186 79q-16 12 -16 26q0 12 11 21t25 9q15 0 26 -9z" />
    <glyph glyph-name="Atilde" unicode="&#xc3;" horiz-adv-x="609" 
d="M582 56l-77 -64q-49 36 -47 67v68q-68 -82 -122 -112q-50 -29 -118 -29q-105 0 -165 95q-53 85 -51 208q3 140 101 266q105 134 239 133q50 -1 97 -27q21 -14 43 -28q4 -2 45 38h19v-495q-2 -54 0 -80q0 -10 17 -25q10 -8 19 -15zM458 469q-33 -75 -82 -104
q-36 -22 -95 -22q-38 0 -62 28q-21 24 -21 57q0 45 44 88.5t88 43.5q4 0 4.5 -4.5t1.5 -5.5q-2 -4 -19 -12q-20 -8 -29 -19q-15 -17 -15 -49q0 -30 19.5 -48.5t52.5 -18.5q50 0 83 57q27 48 27 97q0 42 -33.5 72.5t-77.5 30.5q-118 0 -185 -115q-59 -100 -59 -238
q0 -69 17 -124q17 -58 64.5 -97.5t100.5 -41.5q49 -2 112.5 54t63.5 97v274zM257 767q-72 0 -72 -22h-12q0 28 33 52q30 24 60 24q29 0 51.5 -16t43.5 -16q51 0 48 0q20 2 39 23h14q0 -27 -35.5 -52.5t-65.5 -25.5q-24 0 -50 16.5t-54 16.5z" />
    <glyph glyph-name="Otilde" unicode="&#xd5;" horiz-adv-x="702" 
d="M651 382q0 -142 -81 -257q-94 -134 -245 -134q-149 0 -242 109q-84 100 -84 237q0 77 43 166q48 100 123 146q1 -10 -18 -34l-27 -33q-21 -36 -33 -92q-7 -32 -7 -105q0 -99 47 -185q56 -103 162 -145q43 -17 81 -17q110 0 174 98q52 79 52 177q0 99 -55 180
q-65 94 -182 120q-25 5 -31 5q-56 0 -100 -33t-54 -83q-11 -56 -11 -46q0 -61 26 -104q33 -55 99 -55q46 0 70 30q21 26 21 66t-12 53v15q29 -7 44 -44q12 -28 12 -58q0 -51 -38 -107q-41 -63 -92 -63q-78 0 -125 81q-39 66 -39 134q0 103 69 189q75 93 181 93
q127 0 204 -99q68 -88 68 -205zM267 767q-72 0 -72 -22h-12q0 28 33 52q30 24 60 24q29 0 51.5 -16t43.5 -16q51 0 48 0q20 2 39 23h14q0 -27 -35.5 -52.5t-65.5 -25.5q-24 0 -50 16.5t-54 16.5z" />
    <glyph glyph-name="OE" unicode="&#x152;" horiz-adv-x="1001" 
d="M567 220q2 54 24.5 94.5t60.5 67.5q16 12 52 22l1 7q-37 2 -56 7q-10 -7 -39 25q-32 35 -32 76q0 21 11 42q18 61 83 80q35 -61 99 -73q32 -6 77 9q58 19 56 62q-16 -9 -32 -17t-37 -7q-29 2 -47 20q-10 10 -22 32q-10 17 -16 18q-34 1 -87 -21t-96 -58q-75 80 -188 80
q-106 0 -181 -93q-69 -86 -69 -189q0 -68 39 -134q47 -81 125 -81q51 0 92 63q38 56 38 107q0 30 -12 58q-15 37 -44 44v-15q12 -13 12 -53t-21 -66q-24 -30 -70 -30q-66 0 -99 55q-26 43 -26 104q0 -10 11 46q10 50 54 83t100 33q114 0 189 -76q-11 -17 -11 -50
q0 -47 20 -87q22 -45 55 -45q5 0 11 1q-61 -27 -95 -81q-32 -50 -32 -107q0 -53 28 -94q-53 -41 -123 -41q-38 0 -81 17q-106 42 -162 145q-47 86 -47 185q0 73 7 105q12 56 33 92l27 33q19 24 18 34q-75 -46 -123 -146q-43 -89 -43 -166q0 -137 84 -237q93 -109 242 -109
q105 0 185 68q53 -56 145 -60q114 -6 209 48q110 62 115 170q3 54 -36 88t-97 37q-68 4 -130 -36q-67 -43 -72 -108q-3 -38 17 -61.5t52 -25.5q37 -3 69 21.5t38 55.5q-5 -1 -30 -11q-20 -8 -36 -7q-25 2 -42.5 18t-16.5 41q2 36 35 59.5t70 22.5q104 -6 98 -114
q-4 -72 -60 -124.5t-128 -48.5q-111 6 -136 106q-10 44 -7 90z" />
    <glyph glyph-name="oe" unicode="&#x153;" horiz-adv-x="520" 
d="M358 115q38 -38 87 -58l-44 -65q-103 47 -134 106q-79 -106 -102 -106q-19 -3 -87 57q-73 65 -73 106q0 33 22 80q9 19 58 73q53 58 70 58q13 2 61 -32q53 -37 81 -76q36 41 91 107l73 -53q11 -9 25 -18zM352 298q-34 -33 -38 -76v-7q0 -6 -1 -13q4 -37 35 -75l85 114z
M256 161l-1 6q-1 7 0 11q-9 37 -59 78q-29 18 -37 24q-22 16 -28 31q-27 -14 -49.5 -43.5t-22.5 -45.5q-1 -35 13 -57q12 -18 51 -51l40 -28q23 -17 33 -36q46 49 59 82q-1 5 0 12q2 8 2 11t-1 6z" />
    <glyph glyph-name="endash" unicode="&#x2013;" horiz-adv-x="437" 
d="M30 217l-41 -17l70 78l4 3h315l46 22l-87 -86h-307z" />
    <glyph glyph-name="emdash" unicode="&#x2014;" horiz-adv-x="798" 
d="M30 217l-41 -17l70 78l4 3h665l46 22l-87 -86h-657z" />
    <glyph glyph-name="quotedblleft" unicode="&#x201c;" horiz-adv-x="330" 
d="M60 476q-4 14 -14 23q-6 9 -25 31q-17 17 -17 18q0 2 1 3l58 58q13 13 20 27.5t17 22.5l17 -11l-23 -31q-6 -12 -15 -27h1q2 -7 17 -26q13 -10 28 -23zM220 476q-4 14 -14 23q-6 9 -25 31q-17 17 -17 18q0 2 1 3l58 58q13 13 20 27.5t17 22.5l17 -11l-23 -31
q-6 -12 -15 -27h1q2 -7 17 -26q13 -10 28 -23z" />
    <glyph glyph-name="quotedblright" unicode="&#x201d;" horiz-adv-x="330" 
d="M230 669q5 -13 14 -22q6 -9 25 -31q18 -17 18 -18q-1 -2 -2 -3l-58 -58q-13 -13 -20 -27.5t-16 -23.5l-17 12l22 31q6 12 15 27v0q-2 6 -18 26q-13 9 -28 23zM70 669q5 -13 14 -22q6 -9 25 -31q18 -17 18 -18q-1 -2 -2 -3l-58 -58q-13 -13 -20 -27.5t-16 -23.5l-17 12
l22 31q6 12 15 27v0q-2 6 -18 26q-13 9 -28 23z" />
    <glyph glyph-name="quoteleft" unicode="&#x2018;" horiz-adv-x="145" 
d="M60 486q-4 14 -14 23q-6 9 -25 31q-17 17 -17 18q0 2 1 3l58 58q13 13 20 27.5t17 22.5l17 -11l-23 -31q-6 -12 -15 -27h1q2 -7 17 -26q13 -10 28 -23z" />
    <glyph glyph-name="quoteright" unicode="&#x2019;" horiz-adv-x="145" 
d="M70 669q5 -13 14 -22q6 -9 25 -31q18 -17 18 -18q-1 -2 -2 -3l-58 -58q-13 -13 -20 -27.5t-16 -23.5l-17 12l22 31q6 12 15 27v0q-2 6 -18 26q-13 9 -28 23z" />
    <glyph glyph-name="divide" unicode="&#xf7;" 
 />
    <glyph glyph-name="ydieresis" unicode="&#xff;" horiz-adv-x="315" 
d="M219 400q-14 0 -24.5 10t-10.5 25t10.5 25.5t24.5 10.5q15 0 25.5 -10.5t10.5 -25.5t-10.5 -25t-25.5 -10zM96 400q-14 0 -24.5 10t-10.5 25t10.5 25.5t24.5 10.5q15 0 25.5 -10.5t10.5 -25.5t-10.5 -25t-25.5 -10zM259 285v-59v-64v-189q0 -34 -46 -93q-37 -48 -86 -90
q-25 30 -39 39q-19 14 -45 14q-27 0 -39 -4q6 20 35 37q23 14 39 16q30 3 59 -7.5t36 -24.5q12 10 13.5 28.5t1.5 92.5v77q-15 -15 -40 -33q-13 -9 -36 -27q-47 17 -79 58q-29 37 -29 71q-1 60 61 134q10 12 34 40q-52 -15 -88 -4l42 61q19 -13 45 -13q20 0 53 9l-54 -78
q-36 -58 -37 -81q-2 -37 20 -73.5t57 -58.5q5 -3 11 -3q27 0 39 29q1 41 1 103q0 83 10 107q16 39 79 67q-18 -42 -18 -81z" />
    <glyph glyph-name="Ydieresis" unicode="&#x178;" horiz-adv-x="747" 
d="M600 380q0 128 26 171q23 39 26 43q25 31 61 39q-24 -43 -24 -141v-128q-4 -68 -2 -304q-1 -115 -18 -171q-21 -66 -85 -132q-36 -37 -74 -50q-27 -8 -75 -8q-81 0 -129 42q-40 35 -40 49q0 11 79 69q-1 -2 -1 -6q0 -25 52.5 -71.5t85.5 -46.5q70 0 92 63q25 71 25 165
l-1 129q-1 2 -66 -55t-68 -57q-25 23 -49 47q-43 31 -94 31q-17 -1 -52.5 -13.5t-52.5 -22.5q38 51 76 103q45 61 67 117q29 75 31 172q2 103 -29 162q-40 75 -128 72q-64 -2 -111.5 -57t-43.5 -123q3 -65 37 -109.5t74 -46.5q37 -2 59 27t21 78q-1 32 -21 57.5t-49 25.5
q-17 0 -34.5 -12.5t-33.5 -24.5q6 94 92 102q45 4 78 -27t33 -78q0 -69 -46 -124q-50 -60 -120 -56q-62 3 -115 56t-53 118q0 103 78 166q69 57 167 60q123 4 186 -65q56 -61 56 -167q0 -84 -70 -202q-62 -106 -132 -164q42 23 103 23q89 0 130 -47l82 65v257zM482 757
q0 19 13 32t31 13q19 0 32 -13t13 -32q0 -18 -13 -31t-32 -13q-18 0 -31 13t-13 31zM302 757q0 19 13 32t31 13q19 0 32 -13t13 -32q0 -18 -13 -31t-32 -13q-18 0 -31 13t-13 31z" />
    <glyph glyph-name="currency" unicode="&#xa4;" 
 />
    <glyph glyph-name="guilsinglleft" unicode="&#x2039;" horiz-adv-x="178" 
d="M134 79l-8 -14l-126 178l124 165l10 -15l-70 -150z" />
    <glyph glyph-name="guilsinglright" unicode="&#x203a;" horiz-adv-x="178" 
d="M3 79l7 -14l127 178l-125 165l-9 -15l69 -150z" />
    <glyph glyph-name="daggerdbl" unicode="&#x2021;" 
 />
    <glyph glyph-name="periodcentered" unicode="&#xb7;" horiz-adv-x="186" 
d="M19 312q0 24 17 41t41 17t41 -17t17 -41t-17 -41t-41 -17t-41 17t-17 41z" />
    <glyph glyph-name="periodcentered" unicode="&#x2219;" horiz-adv-x="186" 
d="M19 312q0 24 17 41t41 17t41 -17t17 -41t-17 -41t-41 -17t-41 17t-17 41z" />
    <glyph glyph-name="quotesinglbase" unicode="&#x201a;" horiz-adv-x="181" 
d="M70 129q5 -13 14 -22q6 -9 25 -31q18 -17 18 -18q-1 -2 -2 -3l-58 -58q-13 -13 -20 -27.5t-16 -23.5l-17 12l22 31q6 12 15 27v0q-2 6 -18 26q-13 9 -28 23z" />
    <glyph glyph-name="quotedblbase" unicode="&#x201e;" horiz-adv-x="330" 
d="M230 129q5 -13 14 -22q6 -9 25 -31q18 -17 18 -18q-1 -2 -2 -3l-58 -58q-13 -13 -20 -27.5t-16 -23.5l-17 12l22 31q6 12 15 27v0q-2 6 -18 26q-13 9 -28 23zM70 129q5 -13 14 -22q6 -9 25 -31q18 -17 18 -18q-1 -2 -2 -3l-58 -58q-13 -13 -20 -27.5t-16 -23.5l-17 12
l22 31q6 12 15 27v0q-2 6 -18 26q-13 9 -28 23z" />
    <glyph glyph-name="perthousand" unicode="&#x2030;" 
 />
    <glyph glyph-name="Acircumflex" unicode="&#xc2;" horiz-adv-x="609" 
d="M582 56l-77 -64q-49 36 -47 67v68q-68 -82 -122 -112q-50 -29 -118 -29q-105 0 -165 95q-53 85 -51 208q3 140 101 266q105 134 239 133q50 -1 97 -27q21 -14 43 -28q4 -2 45 38h19v-495q-2 -54 0 -80q0 -10 17 -25q10 -8 19 -15zM458 469q-33 -75 -82 -104
q-36 -22 -95 -22q-38 0 -62 28q-21 24 -21 57q0 45 44 88.5t88 43.5q4 0 4.5 -4.5t1.5 -5.5q-2 -4 -19 -12q-20 -8 -29 -19q-15 -17 -15 -49q0 -30 19.5 -48.5t52.5 -18.5q50 0 83 57q27 48 27 97q0 42 -33.5 72.5t-77.5 30.5q-118 0 -185 -115q-59 -100 -59 -238
q0 -69 17 -124q17 -58 64.5 -97.5t100.5 -41.5q49 -2 112.5 54t63.5 97v274zM328 757l-132 -56l-5 9l137 114l139 -114l-9 -6z" />
    <glyph glyph-name="Ecircumflex" unicode="&#xca;" horiz-adv-x="558" 
d="M519 217q-5 -108 -115 -170q-95 -54 -209 -48q-90 4 -143 58q-49 49 -49 119q0 58 35 108q37 54 105 82q-105 34 -105 122q-1 73 97 139q90 61 155 58q6 -1 16 -18q12 -22 22 -32q18 -18 47 -20q21 -1 37 7t32 17q2 -43 -56 -62q-45 -15 -77 -9q-64 12 -99 73
q-46 -14 -67 -61q-16 -38 -13 -85q5 -50 37 -68q22 -13 76 -16l-1 -7q-59 -16 -96.5 -68t-40.5 -116q-10 -188 143 -196q72 -4 128 48.5t60 124.5q6 108 -98 114q-37 1 -70 -22.5t-35 -59.5q-1 -25 16.5 -41t42.5 -18q16 -1 36 7q25 10 30 11q-6 -31 -38 -55.5t-69 -21.5
q-32 2 -52 25.5t-17 61.5q5 65 72 108q62 40 130 36q58 -3 97 -37t36 -88zM268 757l-132 -56l-5 9l137 114l139 -114l-9 -6z" />
    <glyph glyph-name="Aacute" unicode="&#xc1;" horiz-adv-x="609" 
d="M582 56l-77 -64q-49 36 -47 67v68q-68 -82 -122 -112q-50 -29 -118 -29q-105 0 -165 95q-53 85 -51 208q3 140 101 266q105 134 239 133q50 -1 97 -27q21 -14 43 -28q4 -2 45 38h19v-495q-2 -54 0 -80q0 -10 17 -25q10 -8 19 -15zM458 469q-33 -75 -82 -104
q-36 -22 -95 -22q-38 0 -62 28q-21 24 -21 57q0 45 44 88.5t88 43.5q4 0 4.5 -4.5t1.5 -5.5q-2 -4 -19 -12q-20 -8 -29 -19q-15 -17 -15 -49q0 -30 19.5 -48.5t52.5 -18.5q50 0 83 57q27 48 27 97q0 42 -33.5 72.5t-77.5 30.5q-118 0 -185 -115q-59 -100 -59 -238
q0 -69 17 -124q17 -58 64.5 -97.5t100.5 -41.5q49 -2 112.5 54t63.5 97v274zM392 840l-148 -120q6 -6 9 -6q2 0 185 79q16 12 16 26q0 12 -11 21t-25 9t-26 -9z" />
    <glyph glyph-name="Edieresis" unicode="&#xcb;" horiz-adv-x="558" 
d="M519 217q-5 -108 -115 -170q-95 -54 -209 -48q-90 4 -143 58q-49 49 -49 119q0 58 35 108q37 54 105 82q-105 34 -105 122q-1 73 97 139q90 61 155 58q6 -1 16 -18q12 -22 22 -32q18 -18 47 -20q21 -1 37 7t32 17q2 -43 -56 -62q-45 -15 -77 -9q-64 12 -99 73
q-46 -14 -67 -61q-16 -38 -13 -85q5 -50 37 -68q22 -13 76 -16l-1 -7q-59 -16 -96.5 -68t-40.5 -116q-10 -188 143 -196q72 -4 128 48.5t60 124.5q6 108 -98 114q-37 1 -70 -22.5t-35 -59.5q-1 -25 16.5 -41t42.5 -18q16 -1 36 7q25 10 30 11q-6 -31 -38 -55.5t-69 -21.5
q-32 2 -52 25.5t-17 61.5q5 65 72 108q62 40 130 36q58 -3 97 -37t36 -88zM312 757q0 19 13 32t31 13q19 0 32 -13t13 -32q0 -18 -13 -31t-32 -13q-18 0 -31 13t-13 31zM132 757q0 19 13 32t31 13q19 0 32 -13t13 -32q0 -18 -13 -31t-32 -13q-18 0 -31 13t-13 31z" />
    <glyph glyph-name="Egrave" unicode="&#xc8;" horiz-adv-x="558" 
d="M519 217q-5 -108 -115 -170q-95 -54 -209 -48q-90 4 -143 58q-49 49 -49 119q0 58 35 108q37 54 105 82q-105 34 -105 122q-1 73 97 139q90 61 155 58q6 -1 16 -18q12 -22 22 -32q18 -18 47 -20q21 -1 37 7t32 17q2 -43 -56 -62q-45 -15 -77 -9q-64 12 -99 73
q-46 -14 -67 -61q-16 -38 -13 -85q5 -50 37 -68q22 -13 76 -16l-1 -7q-59 -16 -96.5 -68t-40.5 -116q-10 -188 143 -196q72 -4 128 48.5t60 124.5q6 108 -98 114q-37 1 -70 -22.5t-35 -59.5q-1 -25 16.5 -41t42.5 -18q16 -1 36 7q25 10 30 11q-6 -31 -38 -55.5t-69 -21.5
q-32 2 -52 25.5t-17 61.5q5 65 72 108q62 40 130 36q58 -3 97 -37t36 -88zM214 840l148 -120q-6 -6 -8 -6q-3 0 -186 79q-12 10 -12 24q0 12 10.5 22t23.5 10t24 -9z" />
    <glyph glyph-name="Iacute" unicode="&#xcd;" horiz-adv-x="462" 
d="M320 586q-30 0 -92 41q-21 14 -60 15q-51 1 -83.5 -32.5t-32.5 -77.5q0 -39 29 -65q32 -29 93 -29q20 0 37.5 12t18.5 26q2 24 -18.5 40.5t-50.5 17.5q-25 2 -41 -9q-2 2 3 24q8 32 51 37q34 4 63 -22q25 -23 26 -48q2 -57 -40.5 -97t-100.5 -40q-53 0 -88 39.5t-30 97.5
q6 79 90 129q72 44 148 43q41 -1 78.5 -18t58.5 -17q13 -1 26.5 3t21.5 6q-27 -76 -107 -76zM412 599q-9 -33 -9 -84l-1 -313q0 -208 -191 -208q-54 0 -94 20q-47 25 -60 72l46 28q38 23 43 22l-2 -19q-2 -36 20 -66.5t58 -30.5q102 0 102 197v320q16 7 49.5 33.5t38.5 28.5
zM302 840l-148 -120q6 -6 9 -6q2 0 185 79q16 12 16 26q0 12 -11 21t-25 9t-26 -9z" />
    <glyph glyph-name="Icircumflex" unicode="&#xce;" horiz-adv-x="462" 
d="M320 586q-30 0 -92 41q-21 14 -60 15q-51 1 -83.5 -32.5t-32.5 -77.5q0 -39 29 -65q32 -29 93 -29q20 0 37.5 12t18.5 26q2 24 -18.5 40.5t-50.5 17.5q-25 2 -41 -9q-2 2 3 24q8 32 51 37q34 4 63 -22q25 -23 26 -48q2 -57 -40.5 -97t-100.5 -40q-53 0 -88 39.5t-30 97.5
q6 79 90 129q72 44 148 43q41 -1 78.5 -18t58.5 -17q13 -1 26.5 3t21.5 6q-27 -76 -107 -76zM412 599q-9 -33 -9 -84l-1 -313q0 -208 -191 -208q-54 0 -94 20q-47 25 -60 72l46 28q38 23 43 22l-2 -19q-2 -36 20 -66.5t58 -30.5q102 0 102 197v320q16 7 49.5 33.5t38.5 28.5
zM238 757l-132 -56l-5 9l137 114l139 -114l-9 -6z" />
    <glyph glyph-name="Idieresis" unicode="&#xcf;" horiz-adv-x="462" 
d="M320 586q-30 0 -92 41q-21 14 -60 15q-51 1 -83.5 -32.5t-32.5 -77.5q0 -39 29 -65q32 -29 93 -29q20 0 37.5 12t18.5 26q2 24 -18.5 40.5t-50.5 17.5q-25 2 -41 -9q-2 2 3 24q8 32 51 37q34 4 63 -22q25 -23 26 -48q2 -57 -40.5 -97t-100.5 -40q-53 0 -88 39.5t-30 97.5
q6 79 90 129q72 44 148 43q41 -1 78.5 -18t58.5 -17q13 -1 26.5 3t21.5 6q-27 -76 -107 -76zM412 599q-9 -33 -9 -84l-1 -313q0 -208 -191 -208q-54 0 -94 20q-47 25 -60 72l46 28q38 23 43 22l-2 -19q-2 -36 20 -66.5t58 -30.5q102 0 102 197v320q16 7 49.5 33.5t38.5 28.5
zM292 757q0 19 13 32t31 13q19 0 32 -13t13 -32q0 -18 -13 -31t-32 -13q-18 0 -31 13t-13 31zM112 757q0 19 13 32t31 13q19 0 32 -13t13 -32q0 -18 -13 -31t-32 -13q-18 0 -31 13t-13 31z" />
    <glyph glyph-name="Igrave" unicode="&#xcc;" horiz-adv-x="462" 
d="M320 586q-30 0 -92 41q-21 14 -60 15q-51 1 -83.5 -32.5t-32.5 -77.5q0 -39 29 -65q32 -29 93 -29q20 0 37.5 12t18.5 26q2 24 -18.5 40.5t-50.5 17.5q-25 2 -41 -9q-2 2 3 24q8 32 51 37q34 4 63 -22q25 -23 26 -48q2 -57 -40.5 -97t-100.5 -40q-53 0 -88 39.5t-30 97.5
q6 79 90 129q72 44 148 43q41 -1 78.5 -18t58.5 -17q13 -1 26.5 3t21.5 6q-27 -76 -107 -76zM412 599q-9 -33 -9 -84l-1 -313q0 -208 -191 -208q-54 0 -94 20q-47 25 -60 72l46 28q38 23 43 22l-2 -19q-2 -36 20 -66.5t58 -30.5q102 0 102 197v320q16 7 49.5 33.5t38.5 28.5
zM194 840l148 -120q-6 -6 -8 -6q-3 0 -186 79q-16 12 -16 26q0 12 11 21t25 9q15 0 26 -9z" />
    <glyph glyph-name="Oacute" unicode="&#xd3;" horiz-adv-x="702" 
d="M651 382q0 -142 -81 -257q-94 -134 -245 -134q-149 0 -242 109q-84 100 -84 237q0 77 43 166q48 100 123 146q1 -10 -18 -34l-27 -33q-21 -36 -33 -92q-7 -32 -7 -105q0 -99 47 -185q56 -103 162 -145q43 -17 81 -17q110 0 174 98q52 79 52 177q0 99 -55 180
q-65 94 -182 120q-25 5 -31 5q-56 0 -100 -33t-54 -83q-11 -56 -11 -46q0 -61 26 -104q33 -55 99 -55q46 0 70 30q21 26 21 66t-12 53v15q29 -7 44 -44q12 -28 12 -58q0 -51 -38 -107q-41 -63 -92 -63q-78 0 -125 81q-39 66 -39 134q0 103 69 189q75 93 181 93
q127 0 204 -99q68 -88 68 -205zM392 830l-148 -120q6 -6 9 -6q2 0 185 79q16 12 16 26q0 12 -11 21t-25 9t-26 -9z" />
    <glyph glyph-name="Ocircumflex" unicode="&#xd4;" horiz-adv-x="702" 
d="M651 382q0 -142 -81 -257q-94 -134 -245 -134q-149 0 -242 109q-84 100 -84 237q0 77 43 166q48 100 123 146q1 -10 -18 -34l-27 -33q-21 -36 -33 -92q-7 -32 -7 -105q0 -99 47 -185q56 -103 162 -145q43 -17 81 -17q110 0 174 98q52 79 52 177q0 99 -55 180
q-65 94 -182 120q-25 5 -31 5q-56 0 -100 -33t-54 -83q-11 -56 -11 -46q0 -61 26 -104q33 -55 99 -55q46 0 70 30q21 26 21 66t-12 53v15q29 -7 44 -44q12 -28 12 -58q0 -51 -38 -107q-41 -63 -92 -63q-78 0 -125 81q-39 66 -39 134q0 103 69 189q75 93 181 93
q127 0 204 -99q68 -88 68 -205zM338 757l-132 -56l-5 9l137 114l139 -114l-9 -6z" />
    <glyph glyph-name="Ograve" unicode="&#xd2;" horiz-adv-x="702" 
d="M651 382q0 -142 -81 -257q-94 -134 -245 -134q-149 0 -242 109q-84 100 -84 237q0 77 43 166q48 100 123 146q1 -10 -18 -34l-27 -33q-21 -36 -33 -92q-7 -32 -7 -105q0 -99 47 -185q56 -103 162 -145q43 -17 81 -17q110 0 174 98q52 79 52 177q0 99 -55 180
q-65 94 -182 120q-25 5 -31 5q-56 0 -100 -33t-54 -83q-11 -56 -11 -46q0 -61 26 -104q33 -55 99 -55q46 0 70 30q21 26 21 66t-12 53v15q29 -7 44 -44q12 -28 12 -58q0 -51 -38 -107q-41 -63 -92 -63q-78 0 -125 81q-39 66 -39 134q0 103 69 189q75 93 181 93
q127 0 204 -99q68 -88 68 -205zM304 840l148 -120q-6 -6 -8 -6q-3 0 -186 79q-16 12 -16 26q0 12 11 21t25 9q15 0 26 -9z" />
    <glyph glyph-name="Uacute" unicode="&#xda;" horiz-adv-x="766" 
d="M606 166v-116q0 -16 76 -54q29 34 63 80q-17 11 -43 27q-22 12 -18 76l1 313q0 -1 0 41q-1 42 -1 69q0 23 13 48l15 29q-105 -70 -105 -119v-360q-105 -129 -107 -128q-34 39 -101 39q-60 0 -114 -29q70 58 132 164q70 118 70 202q0 106 -56 167q-63 69 -186 65
q-98 -3 -167 -60q-78 -63 -78 -166q0 -65 53 -118t115 -56q70 -4 120 56q46 55 46 124q0 47 -33 78t-78 27q-86 -8 -92 -102q16 12 33.5 24.5t34.5 12.5q29 0 49 -25.5t21 -57.5q1 -49 -21 -78t-59 -27q-40 2 -74 46.5t-37 109.5q-4 68 43.5 123t111.5 57q88 3 128 -72
q31 -59 29 -162q-2 -97 -31 -172q-22 -56 -67 -117q-38 -52 -76 -103q17 10 52.5 22.5t52.5 13.5q77 1 147 -66q5 14 63 85q54 69 75 89zM542 840l-148 -120q6 -6 9 -6q2 0 185 79q16 12 16 26q0 12 -11 21t-25 9t-26 -9z" />
    <glyph glyph-name="Ucircumflex" unicode="&#xdb;" horiz-adv-x="766" 
d="M606 166v-116q0 -16 76 -54q29 34 63 80q-17 11 -43 27q-22 12 -18 76l1 313q0 -1 0 41q-1 42 -1 69q0 23 13 48l15 29q-105 -70 -105 -119v-360q-105 -129 -107 -128q-34 39 -101 39q-60 0 -114 -29q70 58 132 164q70 118 70 202q0 106 -56 167q-63 69 -186 65
q-98 -3 -167 -60q-78 -63 -78 -166q0 -65 53 -118t115 -56q70 -4 120 56q46 55 46 124q0 47 -33 78t-78 27q-86 -8 -92 -102q16 12 33.5 24.5t34.5 12.5q29 0 49 -25.5t21 -57.5q1 -49 -21 -78t-59 -27q-40 2 -74 46.5t-37 109.5q-4 68 43.5 123t111.5 57q88 3 128 -72
q31 -59 29 -162q-2 -97 -31 -172q-22 -56 -67 -117q-38 -52 -76 -103q17 10 52.5 22.5t52.5 13.5q77 1 147 -66q5 14 63 85q54 69 75 89zM428 757l-132 -56l-5 9l137 114l139 -114l-9 -6z" />
    <glyph glyph-name="Ugrave" unicode="&#xd9;" horiz-adv-x="766" 
d="M606 166v-116q0 -16 76 -54q29 34 63 80q-17 11 -43 27q-22 12 -18 76l1 313q0 -1 0 41q-1 42 -1 69q0 23 13 48l15 29q-105 -70 -105 -119v-360q-105 -129 -107 -128q-34 39 -101 39q-60 0 -114 -29q70 58 132 164q70 118 70 202q0 106 -56 167q-63 69 -186 65
q-98 -3 -167 -60q-78 -63 -78 -166q0 -65 53 -118t115 -56q70 -4 120 56q46 55 46 124q0 47 -33 78t-78 27q-86 -8 -92 -102q16 12 33.5 24.5t34.5 12.5q29 0 49 -25.5t21 -57.5q1 -49 -21 -78t-59 -27q-40 2 -74 46.5t-37 109.5q-4 68 43.5 123t111.5 57q88 3 128 -72
q31 -59 29 -162q-2 -97 -31 -172q-22 -56 -67 -117q-38 -52 -76 -103q17 10 52.5 22.5t52.5 13.5q77 1 147 -66q5 14 63 85q54 69 75 89zM404 820l148 -120q-6 -6 -8 -6q-3 0 -186 79q-16 12 -16 26q0 12 11 21t25 9q15 0 26 -9z" />
    <glyph glyph-name="circumflex" unicode="&#x2c6;" horiz-adv-x="632" 
d="M300 776l-134 -75l-5 9l137 125l139 -125l-9 -6z" />
    <glyph glyph-name="tilde" unicode="&#x2dc;" horiz-adv-x="426" 
d="M137 767q-72 0 -72 -22h-12q0 28 33 52q30 24 60 24q29 0 51.5 -16t43.5 -16q51 0 48 0q20 2 39 23h14q0 -27 -35.5 -52.5t-65.5 -25.5q-24 0 -50 16.5t-54 16.5z" />
    <glyph glyph-name="macron" unicode="&#xaf;" horiz-adv-x="280" 
d="M21 810l257 1l-24 -52h-253z" />
    <glyph glyph-name="macron" unicode="&#x2c9;" horiz-adv-x="280" 
d="M21 810l257 1l-24 -52h-253z" />
    <glyph glyph-name="cedilla" unicode="&#xb8;" horiz-adv-x="332" 
d="M113 7l24 1v-48q20 3 36 3q77 0 77 -70q0 -33 -26 -52.5t-69 -19.5q-13 0 -26.5 2t-33.5 14q-24 14 -29 29l7 12q25 -17 66 -17q42 0 42 33q0 37 -40 37q-9 0 -40 7q14 49 12 69z" />
    <glyph glyph-name="Scaron" unicode="&#x160;" 
 />
    <glyph glyph-name="scaron" unicode="&#x161;" 
 />
    <glyph glyph-name="brokenbar" unicode="&#xa6;" 
 />
    <glyph glyph-name="Eth" unicode="&#xd0;" 
 />
    <glyph glyph-name="eth" unicode="&#xf0;" 
 />
    <glyph glyph-name="Yacute" unicode="&#xdd;" 
 />
    <glyph glyph-name="yacute" unicode="&#xfd;" 
 />
    <glyph glyph-name="Thorn" unicode="&#xde;" 
 />
    <glyph glyph-name="thorn" unicode="&#xfe;" 
 />
    <glyph glyph-name="uni00AD" unicode="&#xad;" 
 />
    <glyph glyph-name="uni00AD" unicode="&#x2212;" 
 />
    <glyph glyph-name="multiply" unicode="&#xd7;" 
 />
    <glyph glyph-name="uni00B9" unicode="&#xb9;" 
 />
    <glyph glyph-name="uni00B2" unicode="&#xb2;" 
 />
    <glyph glyph-name="uni00B3" unicode="&#xb3;" 
 />
    <glyph glyph-name="onehalf" unicode="&#xbd;" 
 />
    <glyph glyph-name="onequarter" unicode="&#xbc;" 
 />
    <glyph glyph-name="threequarters" unicode="&#xbe;" 
 />
    <glyph glyph-name="Lslash" unicode="&#x141;" 
 />
    <glyph glyph-name="lslash" unicode="&#x142;" 
 />
    <glyph glyph-name="glyph220" 
 />
    <glyph glyph-name="glyph221" 
 />
    <glyph glyph-name="glyph222" 
 />
    <glyph glyph-name="Zcaron" unicode="&#x17d;" 
 />
    <glyph glyph-name="zcaron" unicode="&#x17e;" 
 />
    <glyph glyph-name="glyph225" 
 />
    <glyph glyph-name="glyph226" 
 />
    <glyph glyph-name="glyph227" 
 />
    <glyph glyph-name="glyph228" 
 />
    <glyph glyph-name="glyph229" 
 />
    <glyph glyph-name="glyph230" 
 />
    <glyph glyph-name="glyph231" 
 />
    <glyph glyph-name="glyph232" horiz-adv-x="1000" 
 />
    <glyph glyph-name="notequal" unicode="&#x2260;" 
 />
    <glyph glyph-name="infinity" unicode="&#x221e;" 
 />
    <glyph glyph-name="lessequal" unicode="&#x2264;" 
 />
    <glyph glyph-name="greaterequal" unicode="&#x2265;" 
 />
    <glyph glyph-name="partialdiff" unicode="&#x2202;" horiz-adv-x="172" 
d="M128 372l-18 -17q-6 -7 -7 -10l-1 -102l107 64v-27l-107 -64v-122q4 -22 36 -49l-50 -55l-78 52q2 4 14 26q7 13 7 29v76l-39 -24v27l39 24v263q0 31 15.5 58.5t68.5 85.5q60 67 83 67q21 0 39 -32q15 -27 16 -54q3 -86 -125 -216zM148 608q-11 0 -27 -24
q-14 -20 -15 -27q-5 -19 -5 -52q0 -136 1 -131q28 12 58 71q28 56 28 89q0 11 -10 38q-13 36 -30 36z" />
    <glyph glyph-name="summation" unicode="&#x2211;" horiz-adv-x="495" 
d="M460 229q0 -105 -80 -175q-76 -67 -183 -67q-75 0 -133 38q-67 43 -67 114q0 59 62 100q55 36 117 36q51 0 87 -26q41 -29 41 -79q0 -34 -18.5 -58t-51.5 -24q-21 0 -42 20t-18 40q44 -13 55 -13q20 0 35 13t15 32q0 26 -29 43q-24 15 -53 15q-45 0 -77.5 -27t-32.5 -71
q0 -126 143 -126q64 0 123 47q62 51 62 113q0 74 -92 128q-86 41 -171 82q-92 52 -92 122q0 48 72 105q59 47 117 69q34 -65 87 -65q23 0 67 23l-4 -12q-57 -66 -114 -66q-60 0 -97 53q-24 0 -43.5 -20.5t-19.5 -43.5q0 -50 87 -94l161 -81q87 -59 87 -145zM252 762l133 52
l4 -9l-137 -105l-139 105l9 6z" />
    <glyph glyph-name="product" unicode="&#x220f;" horiz-adv-x="285" 
d="M137 401l-114 86l4 2l110 -41l111 43l2 -3zM135 -6q-1 1 -4 3l-12 6q-38 21 -59 32q-38 19 -60 23q25 47 60 47q41 0 95 -38q11 -7 15 -7q26 0 26 34q0 25 -62 52q-38 16 -77 32q-51 25 -51 49q0 33 49.5 85.5t82.5 52.5q14 0 46 -13.5t48 -26.5l-35 -58q-14 11 -55 28
t-52 17q-19 0 -28 -27q0 -18 41 -39q28 -12 57 -24q95 -41 95 -89q0 -21 -50.5 -80t-69.5 -59z" />
    <glyph glyph-name="pi" unicode="&#x3c0;" horiz-adv-x="747" 
d="M600 380q0 128 26 171q23 39 26 43q25 31 61 39q-24 -43 -24 -141v-128q-4 -68 -2 -304q-1 -115 -18 -171q-21 -66 -85 -132q-36 -37 -74 -50q-27 -8 -75 -8q-81 0 -129 42q-40 35 -40 49q0 11 79 69q-1 -2 -1 -6q0 -25 52.5 -71.5t85.5 -46.5q70 0 92 63q25 71 25 165
l-1 129q-1 2 -66 -55t-68 -57q-25 23 -49 47q-43 31 -94 31q-17 -1 -52.5 -13.5t-52.5 -22.5q38 51 76 103q45 61 67 117q29 75 31 172q2 103 -29 162q-40 75 -128 72q-64 -2 -111.5 -57t-43.5 -123q3 -65 37 -109.5t74 -46.5q37 -2 59 27t21 78q-1 32 -21 57.5t-49 25.5
q-17 0 -34.5 -12.5t-33.5 -24.5q6 94 92 102q45 4 78 -27t33 -78q0 -69 -46 -124q-50 -60 -120 -56q-62 3 -115 56t-53 118q0 103 78 166q69 57 167 60q123 4 186 -65q56 -61 56 -167q0 -84 -70 -202q-62 -106 -132 -164q42 23 103 23q89 0 130 -47l82 65v257zM462 840
l-148 -120q6 -6 9 -6q2 0 185 79q16 12 16 26q0 12 -11 21t-25 9t-26 -9z" />
    <glyph glyph-name="integral" unicode="&#x222b;" horiz-adv-x="315" 
d="M76 386q-1 1 -4 3l124 99q14 11 31 6q18 -5 18 -21q0 -11 -13 -20q-154 -67 -156 -67zM259 285v-59v-64v-189q0 -34 -46 -93q-37 -48 -86 -90q-25 30 -39 39q-19 14 -45 14q-27 0 -39 -4q6 20 35 37q23 14 39 16q30 3 59 -7.5t36 -24.5q12 10 13.5 28.5t1.5 92.5v77
q-15 -15 -40 -33q-13 -9 -36 -27q-47 17 -79 58q-29 37 -29 71q-1 60 61 134q10 12 34 40q-52 -15 -88 -4l42 61q19 -13 45 -13q20 0 53 9l-54 -78q-36 -58 -37 -81q-2 -37 20 -73.5t57 -58.5q5 -3 11 -3q27 0 39 29q1 41 1 103q0 83 10 107q16 39 79 67q-18 -42 -18 -81z
" />
    <glyph glyph-name="Omega" unicode="&#x3a9;" horiz-adv-x="602" 
d="M294 313l-178 -1q16 -100 69 -164q63 -75 163 -73q118 2 202 90q2 -6 -1 -22q-30 -66 -112 -110q-78 -42 -150 -38q-121 6 -185 113q-52 87 -52 204h-41l8 49l36 -1q3 27 9 53h-53l8 43h59q38 101 121 163t181 62q68 0 109 -30t69 -100q-69 -31 -69 -34
q-29 70 -63.5 93.5t-95.5 19.5q-69 -5 -126 -56q-52 -48 -76 -118h168v-43h-179q-4 -25 -3 -46v-8l182 -3v-43z" />
    <glyph glyph-name="Omega" unicode="&#x2126;" horiz-adv-x="602" 
d="M294 313l-178 -1q16 -100 69 -164q63 -75 163 -73q118 2 202 90q2 -6 -1 -22q-30 -66 -112 -110q-78 -42 -150 -38q-121 6 -185 113q-52 87 -52 204h-41l8 49l36 -1q3 27 9 53h-53l8 43h59q38 101 121 163t181 62q68 0 109 -30t69 -100q-69 -31 -69 -34
q-29 70 -63.5 93.5t-95.5 19.5q-69 -5 -126 -56q-52 -48 -76 -118h168v-43h-179q-4 -25 -3 -46v-8l182 -3v-43z" />
    <glyph glyph-name="radical" unicode="&#x221a;" 
 />
    <glyph glyph-name="approxequal" unicode="&#x2248;" 
 />
    <glyph glyph-name="approxequal" unicode="&#x22f2;" 
 />
    <glyph glyph-name="Delta" unicode="&#x394;" 
 />
    <glyph glyph-name="Delta" unicode="&#x2206;" 
 />
    <glyph glyph-name="lozenge" unicode="&#x25ca;" horiz-adv-x="218" 
d="M13 269l80 121l80 -121l-80 -120z" />
    <glyph glyph-name="fraction" unicode="&#x2044;" 
 />
    <glyph glyph-name="uniF001" unicode="&#xf001;" 
 />
    <glyph glyph-name="uniF002" unicode="&#xf002;" 
 />
    <glyph glyph-name="uniF000" unicode="&#xf000;" 
 />
    <glyph glyph-name="dotlessi" unicode="&#x131;" horiz-adv-x="151" 
d="M71 -3q-17 13 -42 38q-8 11 -7 43v205q0 9 -22 33l56 53q45 -42 59 -59l-22 -28v-184q0 -17 23 -39l5 -5z" />
    <glyph glyph-name="breve" unicode="&#x2d8;" horiz-adv-x="326" 
d="M46 822q3 -14 35 -34q36 -22 73 -22q82 2 120 56l29 -20q-63 -89 -151 -86q-50 3 -90.5 28t-46.5 61z" />
    <glyph glyph-name="dotaccent" unicode="&#x2d9;" horiz-adv-x="275" 
d="M77 774q0 23 16 39t38 16q23 0 39 -16t16 -39t-16 -39t-39 -16q-22 0 -38 16t-16 39z" />
    <glyph glyph-name="ring" unicode="&#x2da;" horiz-adv-x="609" 
d="M328 723q-28 0 -48 20t-20 48q0 27 20 47t48 20q27 0 47 -20t20 -47q0 -28 -20 -48t-47 -20zM328 834q-17 0 -29.5 -12.5t-12.5 -30.5q0 -17 12.5 -29.5t29.5 -12.5q18 0 30 12.5t12 29.5q0 18 -12 30.5t-30 12.5z" />
    <glyph glyph-name="hungarumlaut" unicode="&#x2dd;" horiz-adv-x="398" 
d="M94 714l-18 16l53 87q18 31 38 31q15 0 26 -12t11 -29q0 -25 -44 -52zM221 714l-17 16l52 87q19 31 39 31q15 0 25.5 -12t10.5 -29q0 -25 -43 -52z" />
    <glyph glyph-name="ogonek" unicode="&#x2db;" horiz-adv-x="447" 
d="M196 0h76q-33 -19 -52 -33q-31 -22 -31 -61q0 -20 19.5 -32t39.5 -12q44 0 105 20l18 -35q-80 -38 -162 -38q-37 0 -73 24q-33 21 -33 55q0 49 37 75q14 12 56 37z" />
    <glyph glyph-name="caron" unicode="&#x2c7;" horiz-adv-x="495" 
d="M252 762l133 52l4 -9l-137 -105l-139 105l9 6z" />
    </font>
</defs>
</svg>
