<?xml version="1.0" standalone="no"?>
<!DOCTYPE svg PUBLIC "-//W3C//DTD SVG 1.1//EN" "http://www.w3.org/Graphics/SVG/1.1/DTD/svg11.dtd" >
<svg>
<metadata>
Created by FontForge 20120731 at Tue Apr 16 16:04:34 2019
 By www-data
Digitized by Dan X. Solo. Software (c) 2001 by Dover Publications, Inc., New York.
</metadata>
<defs>
<font id="MatrixNormal" horiz-adv-x="20" >
  <font-face 
    font-family="Matrix"
    font-weight="400"
    font-stretch="normal"
    units-per-em="1000"
    panose-1="0 0 4 0 0 0 0 0 0 0"
    ascent="800"
    descent="-200"
    x-height="493"
    cap-height="672"
    bbox="-51 -205 834 863"
    underline-thickness="20"
    underline-position="-123"
    unicode-range="U+0020-F002"
  />
<missing-glyph horiz-adv-x="500" 
d="M63 0v800h375v-800h-375zM125 63h250v675h-250v-675z" />
    <glyph glyph-name=".notdef" horiz-adv-x="500" 
d="M63 0v800h375v-800h-375zM125 63h250v675h-250v-675z" />
    <glyph glyph-name=".null" horiz-adv-x="0" 
 />
    <glyph glyph-name="glyph2" horiz-adv-x="159" 
 />
    <glyph glyph-name="space" unicode=" " horiz-adv-x="159" 
 />
    <glyph glyph-name="exclam" unicode="!" horiz-adv-x="179" 
d="M109 179l-32 3q-5 100 -19 222q-17 142 -37 216l135 58q-17 -115 -47 -499zM101 -14l-62 74l77 63l61 -70z" />
    <glyph glyph-name="quotedbl" unicode="&#x22;" horiz-adv-x="228" 
d="M174 419l-35 1l-23 226l72 32zM64 419l-35 1l-23 226l72 32z" />
    <glyph glyph-name="numbersign" unicode="#" horiz-adv-x="332" 
d="M299 430h-60l-26 -189l64 1l-11 -63h-62l-27 -178h-39l29 178h-68l-28 -172l-38 -3l25 173h-52l12 66l51 -3l31 189h-58l12 66l48 -1l28 176h36l-25 -175h69l24 175h35l-24 -175h60zM135 430l-28 -187h71l26 187h-69z" />
    <glyph glyph-name="dollar" unicode="$" horiz-adv-x="355" 
d="M154 672h49v-86l111 -48l-75 -64l-120 45l-12 -9q9 -42 21 -122q7 -6 63 45h122v-246q-14 -21 -48 -49q-61 -49 -65 -53v-84h-49v97q-95 82 -154 102q0 2 35 33.5t36 31.5q38 -1 165 -117v210l-114 1q2 0 -69 -46q-6 51 -29 179l133 93v87z" />
    <glyph glyph-name="percent" unicode="%" horiz-adv-x="603" 
d="M205 2l-26 -1l202 667l23 2zM560 91l-113 -100l-104 52l1 20v239q-3 21 -10 25l109 79l117 -41v-274zM492 323l-79 27l1 -259l78 -40v272zM240 361l-113 -100l-104 52l1 20v239q-3 21 -10 25l109 79l117 -41v-274zM172 593l-79 27l1 -259l78 -40v272z" />
    <glyph glyph-name="ampersand" unicode="&#x26;" horiz-adv-x="437" 
d="M276 358h158l-37 -78h-35v-216q-81 -42 -173 -90q-18 15 -39 21q-17 4 -31.5 9t-35.5 10q-23 12 -71 28q18 16 17 43q0 36 -1 184l81 60q-27 6 -78 18q2 63 1 176q2 19 -15 43q107 14 201 89q30 -37 121 -83q34 1 35 0l-75 -61q-23 2 -67.5 29t-56.5 46l-56 -30l-2 -166
l67 -35l-72 -60v-248l36 -12q8 8 49 29q62 32 79 41v175h-38z" />
    <glyph glyph-name="quotesingle" unicode="'" horiz-adv-x="126" 
d="M64 419l-35 1l-23 226l72 32z" />
    <glyph glyph-name="parenleft" unicode="(" horiz-adv-x="196" 
d="M150 -43q-28 37 -56 73q-36 54 -50 106q-32 119 -32 208q0 87 31 196q12 44 48 97q27 37 54 75l13 -6q-65 -176 -65 -362q0 -162 67 -378z" />
    <glyph glyph-name="parenright" unicode=")" horiz-adv-x="196" 
d="M22 712q28 -36 55 -73q37 -54 51 -106q32 -118 32 -208q0 -87 -31 -195q-12 -45 -48 -97l-54 -76l-13 6q65 177 65 362q0 162 -67 378z" />
    <glyph glyph-name="asterisk" unicode="*" horiz-adv-x="337" 
d="M268 414q-24 0 -53 42q-17 24 -56 48v-20q0 -21 13.5 -54.5t13.5 -45.5q0 -41 -35 -41q-16 0 -25.5 12.5t-9.5 28.5q0 10 16 46q12 25 12 74q-37 -23 -50 -41q-8 -12 -24 -35q-13 -16 -33 -16q-34 0 -34 36q0 39 66 45q29 2 66 24q-20 13 -28 16q-15 7 -30 8q-41 6 -48 8
q-26 10 -26 38q0 14 10 25t24 11q16 0 33 -20q13 -17 25 -33q16 -19 49 -39v19q0 22 -14 55.5t-14 45.5q0 16 9.5 28.5t25.5 12.5t26 -13t10 -29q0 -11 -16 -46q-12 -25 -12 -73q21 13 51 41q20 29 23 33q16 18 33 18q14 0 24 -11t10 -25q0 -26 -22 -36q-13 -6 -50 -11
q-30 -4 -60 -23q20 -13 28 -15q13 -7 30 -9q41 -6 48 -8q26 -10 26 -38q0 -33 -32 -33z" />
    <glyph glyph-name="plus" unicode="+" horiz-adv-x="430" 
d="M228 202l-1 -188h-39l-1 186l-177 1v33h175l-1 183h41l1 -179h176v-36h-174z" />
    <glyph glyph-name="comma" unicode="," horiz-adv-x="227" 
d="M14 41l93 82q4 -3 15 -9q64 -36 64 -96q0 -83 -98 -147q-26 -17 -70 -32l-10 18q28 25 57 50q21 24 19 61q-1 33 -18 48q-12 11 -52 25z" />
    <glyph glyph-name="hyphen" unicode="-" horiz-adv-x="268" 
d="M197 257h-199l46 50h198z" />
    <glyph glyph-name="hyphen" unicode="&#x2010;" horiz-adv-x="268" 
d="M197 257h-199l46 50h198z" />
    <glyph glyph-name="period" unicode="." horiz-adv-x="227" 
d="M116 -17l-84 80l90 87l84 -85z" />
    <glyph glyph-name="slash" unicode="/" horiz-adv-x="251" 
d="M31 -10h-31l207 729h31z" />
    <glyph glyph-name="zero" unicode="0" horiz-adv-x="420" 
d="M342 96l-171 -117l-144 67l12 21l-1 470q-4 27 -15 32l131 93q64 -44 188 -73v-493zM261 544q-67 13 -139 54v-505l99 -47l40 33v465z" />
    <glyph glyph-name="one" unicode="1" horiz-adv-x="317" 
d="M8 554q97 24 186 105l-1 -550q3 -18 49 -49l-86 -70l-83 63q6 6 33 34v476l-98 -33v24z" />
    <glyph glyph-name="two" unicode="2" horiz-adv-x="424" 
d="M271 566q-72 15 -113 51l-36 -26l2 -157l-78 -20v116q-4 26 -15 32l136 91q42 -46 182 -80q2 -10 3 -60q0 -33 -1 -100q-1 -69 0 -86l-264 -186v-58l250 -1l37 39v-120h-332q-3 0 -1 149l232 170z" />
    <glyph glyph-name="three" unicode="3" horiz-adv-x="411" 
d="M273 31q-58 -11 -121 -57q-9 5 -35 26q-14 11 -45 17l-49 -26l-15 18l97 70q55 -13 92 -45q22 15 27 17q12 6 36 7v218l-83 27l-42 -12q-3 13 -2 16q2 5 2 16q33 11 67 23q39 15 54 37v183l-80 33q-14 -17 -23 -20.5t-45 -19.5l-76 49l1 7v6l31 -12q21 9 57 32q4 3 15 14
q99 -66 222 -79q-20 -24 -20 -35q0 -4 2 -8v-145l12 -43q-32 15 -77 6l-64 -30l102 -31q14 1 42 5l6 -1q-18 -25 -18 -46v-163q0 -27 21 -43q-37 -4 -91 -11z" />
    <glyph glyph-name="four" unicode="4" horiz-adv-x="408" 
d="M25 169l-1 121q77 99 188 251q4 7 37 63q5 16 18 49l2 4q4 -33 35 -64q19 -18 34 -25q-14 -8 -28 -26q-3 -4 -2 -11q3 -13 3 -19l-1 -302q32 0 45 10q5 4 14 9v-88q-21 9 -55 24v-66l48 -39l-76 -70l-83 63q-3 -2 33 34l2 82h-213zM237 524l-141 -195v-122l141 1v316z
" />
    <glyph glyph-name="five" unicode="5" horiz-adv-x="375" 
d="M86 562v-218q88 38 142 85q38 -29 108 -89l-21 -18v-238q0 -8 6 -23q3 -9 9 -32q-25 19 -51 19q-34 0 -82 -25q-42 -22 -71 -50q-31 48 -71 48q-22 0 -39 -19l-8 4q16 83 97 83q35 0 51 -9q10 -7 30 -34q31 9 45 19v251q-24 26 -49 39q-56 -26 -116 -58l-8 -18
q-6 -13 -15 -13q-8 0 -14.5 9t-6.5 16q0 23 25 47l1 241q-23 6 -23 38q0 12 7 25t20 13q17 0 23 -31q15 -20 57 -20q34 0 72 12t57 27q26 -31 75 -95l-15 -8q-1 1 -12 13.5t-14 12.5q-9 0 -37.5 -16t-52.5 -16q-86 0 -119 28z" />
    <glyph glyph-name="six" unicode="6" horiz-adv-x="412" 
d="M256 46l-119 37v506l21 18q50 -55 121 -55q21 0 40 6l6 24q-79 15 -146 74l-125 -105v-512l156 -52l144 99q-11 5 -15 32l1 218l-126 65l-64 -59l105 -38z" />
    <glyph glyph-name="seven" unicode="7" horiz-adv-x="363" 
d="M311 617q-39 -24 -77 -48q-41 -24 -90 -24q-44 0 -70 21q-14 10 -27 20q-5 -3 -17.5 -17t-11.5 -15.5t-6 -6.5l-17 8q43 58 84 100q11 -3 60 -25q36 -17 63 -17q52 0 84 17q17 12 52 35q2 -9 2 -20q0 -42 -44 -120q-33 -54 -67 -108q-79 -129 -79 -234q0 -85 40 -85
q5 0 20 10l15 -1q-25 -51 -61 -120q-49 4 -77 50q-25 41 -25 101q0 144 121 296q37 44 74 89q55 70 54 94z" />
    <glyph glyph-name="eight" unicode="8" horiz-adv-x="405" 
d="M332 551l1 -139l17 -41l-18 3q-53 8 -91 -38q27 -30 121 -22q-3 -12 -16 -51v-159q0 -16 19 -57q-35 9 -53 8q-38 -3 -107 -36q-51 -24 -63 -34q-25 25 -35 33q-45 33 -82 28q23 23 24 52v170l-17 38q26 -3 52 -1q51 2 74 34q-14 21 -51 24q-31 1 -61 1q-1 9 4 21t5 18
l1 145q0 8 -14 36q-4 7 -7 17q36 -10 52 -10q40 0 113 35.5t67 35.5l26 -25t41 -25q5 0 14.5 4t16.5 4q2 -2 -14.5 -23.5t-18.5 -45.5zM218 607l-79 -34l-1 -195l61 -27q25 12 58 30q1 49 0 182zM261 291l-61 30l-66 -34l1 -184q68 -57 74 -53q16 12 20 14q15 8 35 10z" />
    <glyph glyph-name="nine" unicode="9" horiz-adv-x="412" 
d="M132 597l119 -37v-506l-20 -17q-50 55 -121 55q-21 0 -40 -7l-6 -24q78 -15 146 -74l124 105v513l-156 51l-144 -99q12 -5 16 -31l-2 -218l127 -66l52 45l-96 48z" />
    <glyph glyph-name="colon" unicode=":" horiz-adv-x="227" 
d="M119 248q-19 23 -37 45q-17 18 -50 30q40 19 89 81q42 -62 85 -79q-31 -14 -51 -33q-7 -7 -36 -44zM119 -12q-19 23 -37 45q-17 18 -50 30q41 19 89 81q42 -62 85 -79q-31 -14 -51 -33q-7 -7 -36 -44z" />
    <glyph glyph-name="semicolon" unicode=";" horiz-adv-x="227" 
d="M109 248q-19 23 -37 45q-17 18 -50 30q38 18 89 83q44 -65 85 -81q-31 -14 -51 -33q-7 -7 -36 -44zM24 47q77 50 83 76q4 -3 15 -9q64 -36 64 -96q0 -83 -98 -147q-26 -17 -70 -32l-5 9l58 50q35 34 35 64q0 63 -45 80q-17 7 -37 5z" />
    <glyph glyph-name="less" unicode="&#x3c;" horiz-adv-x="373" 
d="M3 266l3 3l325 224l1 -59l-234 -167l231 -153l-1 -61z" />
    <glyph glyph-name="equal" unicode="=" horiz-adv-x="488" 
d="M26 325v38q238 2 429 1l1 -39h-430zM26 205v38q195 1 429 0l1 -38h-430z" />
    <glyph glyph-name="greater" unicode="&#x3e;" horiz-adv-x="373" 
d="M328 266l-3 3l-325 224v-59l234 -167l-232 -153l1 -61z" />
    <glyph glyph-name="question" unicode="?" horiz-adv-x="376" 
d="M342 519q0 -123 -1 -187q0 -4 14 -44l-5 -5q-42 22 -65 22q-10 0 -22 -1.5t-34 -11t-32 -10.5l-3 -104h-32l-12 121q27 8 112 57l1 172q0 13 -6 25t-16 12q4 0 -33 -20t-70 -20q-26 0 -56 24t-35 54h47q27 2 48.5 27t22.5 25q40 -39 86 -62.5t108 -23.5v-9q-17 1 -17 -41
zM173 -12l-26 44q-14 18 -36 31q45 33 65 73q21 -48 59 -71q-36 -25 -62 -77z" />
    <glyph glyph-name="at" unicode="@" horiz-adv-x="826" 
d="M467 207q-51 -82 -137 -82q-55 0 -92 37q-40 40 -40 108q0 102 71 177q65 69 141 69q72 0 100 -70l16 53h105l-55 -194q-19 -68 -19 -87q0 -18 7 -26q14 -15 43 -10q56 10 90 84q30 62 30 127q0 117 -89 185q-80 61 -197 61q-67 0 -127 -21q-114 -40 -180 -161
q-39 -72 -39 -172q0 -142 89 -224.5t233 -82.5q131 0 266 83l22 -36q-148 -94 -317 -94q-162 0 -268 104q-100 98 -108 239q-9 147 89 265q91 109 256 138q163 28 283 -41q134 -76 134 -239q0 -127 -70 -205q-61 -68 -138 -68q-86 0 -99 83zM310 239q-1 -27 12.5 -44
t36.5 -17q14 0 29 7q33 15 65 90q29 68 30 111q2 49 -18 63q-16 11 -32 11q-47 0 -88 -92q-34 -77 -35 -129z" />
    <glyph glyph-name="A" unicode="A" horiz-adv-x="557" 
d="M551 60l-61 -67l-100 53l28 36v211q-171 -1 -167 0q-1 -53 -2 -86q-44 -40 -86 -81q5 15 14 55v345l40 42l-191 33q-25 4 -25 23q0 11 12 23l85 75l6 -10l-24 -24q-5 -9 7 -16q71 -18 198 -30.5t214 -10.5v-542zM147 233q1 -127 -93 -173q22 52 21 130l-1 299l72 49z
M271 60l-66 -68l-96 41q-24 5 -51 -9q19 18 75 65q16 14 30 14q8 0 18 -5zM415 372v180l-166 13l1 -193h165z" />
    <glyph glyph-name="B" unicode="B" horiz-adv-x="553" 
d="M514 84q-65 -33 -118 -101l-281 60q-14 5 -26 5q-18 0 -51 -13q18 32 79 74q26 11 46 12q2 0 44 -1q79 -24 224 -59l-1 265h-174v-71q-14 -41 -40 -68q-16 -18 -55 -46q22 50 22 87v349q53 54 105 108q58 -25 216 -92l-214 -191h224v-318zM150 639l-2 -441
q-14 -55 -102 -111q25 55 25 111v362l-46 22l-18 -13l-7 6l79 107zM400 522l-144 69v-192z" />
    <glyph glyph-name="C" unicode="C" horiz-adv-x="451" 
d="M108 610l-70 -56v-355q-10 -81 -22 -81q26 28 93 103zM207 678l-74 -55l1 -385q0 -30 -16 -66q45 55 89 110q-1 107 0 396zM294 681q-20 -20 -72 -73l119 -67q20 20 70 72zM424 90q0 -2 -50 -27l-244 76q-17 5 -25 5q-17 0 -28 -18l-72 -64q3 -1 7 -3q7 2 22 10l247 -79
q30 -4 50 12l98 81q-5 9 -5 7z" />
    <glyph glyph-name="D" unicode="D" horiz-adv-x="588" 
d="M145 548v-307q-12 -54 -39 -82q-16 -17 -71 -49q26 40 26 99v288q0 2 84 51zM180 560l41 23l-188 13q-41 2 -41 28q0 12 13 25q82 82 84 82t4 -9l-21 -19q-5 -5 -5 -10q0 -14 44 -21l422 -29v-564l-124 -98q2 0 -290 82q-15 4 -31 4q-46 0 -61 -25q0 2 -4 6q15 25 77 69
q36 25 97 21l249 -80v508l-201 16v-311q0 -44 -30 -72q-13 -13 -63 -40q27 46 27 82z" />
    <glyph glyph-name="E" unicode="E" horiz-adv-x="506" 
d="M127 594l-1 -316q-12 -58 -31 -86q-22 -30 -70 -54q22 31 22 70l1 333zM469 636l-80 -78l-120 43q-17 7 -35 -7l1 -192h241l-56 -77h-186l1 -43q-6 -38 -34 -63q-17 -16 -72 -45q30 64 30 98v338l73 51l1 -57l72 71q7 7 29 1q96 -44 135 -40zM435 69q-58 -56 -72 -76
l-360 72l61 60q11 12 28 14q8 -1 17 -1q327 -67 326 -69z" />
    <glyph glyph-name="F" unicode="F" horiz-adv-x="531" 
d="M272 615v-516q2 -44 -6 -75q-7 -23 -16 -35q-5 -3 -9 -6l-64 -46q-35 -26 -52 -54l-119 32l62 73l94 -34q20 13 26 42q4 18 2 29l1 300h-90q53 77 53 79t31 0l-1 155q0 2 88 56zM517 611q-62 -71 -64 -71t-78 73v-211h143l-54 -77h-87l1 -180l-84 -108q6 31 6 61v531
l104 71z" />
    <glyph glyph-name="G" unicode="G" horiz-adv-x="566" 
d="M122 598v-360q-24 -75 -96 -127q8 10 14.5 51.5t3.5 50.5l-1 334zM448 89v235l-220 -1q-2 -31 -3 -63q-26 -23 -98 -86q20 27 24 64v373l74 55v-317l51 53h257v-296q-7 -6 -79 -72q-64 -58 -67 -57q-28 28 -65 41q-22 8 -93 21q-85 16 -153 34q-25 1 -45 -13q-3 1 -6 4
l62 58q19 23 50 23q10 0 18 -2l275 -75q18 19 18 21zM310 678q41 -9 82 -19q49 -11 79 -11q28 0 48 8q-43 -47 -88 -94q-47 11 -151 34q-23 5 -55 -2q42 42 85 84z" />
    <glyph glyph-name="H" unicode="H" horiz-adv-x="546" 
d="M127 598v-341q0 -48 -29 -86q-21 -26 -67 -60q8 10 13 47q6 34 5 55l-1 334zM296 403h218v-321q0 -62 -43 -120l-80 -75l-13 8l40 42q12 19 12 41l-2 348h-198v-32q-3 -47 -35 -76l-56 -42q1 3 9 33q7 25 7 39l1 363l75 55l-1 -65q70 73 72 73q35 -8 69 -16q38 -8 62 -8
q28 0 51 9q-39 -45 -79 -90q-50 9 -175 32v-260zM271 82q-85 -82 -87 -82q-16 18 -51 40q-15 9 -29 17q-23 9 -38 9q-20 0 -50 -20l-7 7l64 56q40 24 77 24q44 0 121 -51z" />
    <glyph glyph-name="I" unicode="I" horiz-adv-x="454" 
d="M134 407l66 -65v150l86 55v-524l-170 -122q-54 68 -108 96l78 79q67 -51 101 -96l13 8v340l-72 -69l-77 72zM80 672h359q-38 -34 -38 -64l1 -501l-88 -67l-1 538l-306 -1q75 95 73 95z" />
    <glyph glyph-name="J" unicode="J" horiz-adv-x="511" 
d="M132 670h368q-42 -27 -41 -58l1 -566l-91 -79v602l-312 1q77 100 75 100zM333 550v-640q-60 -38 -78 -52q-31 -25 -59 -63q-14 11 -209 97l87 90q78 -29 146 -77l19 14l1 406l-150 1l63 76h85v88z" />
    <glyph glyph-name="K" unicode="K" horiz-adv-x="586" 
d="M137 559v-398q-10 -55 -28 -69l-102 -81l-3 6l22 23q18 34 18 67l-1 388zM339 679q56 -28 165 -31l-73 -95q-95 7 -170 41zM251 340v-209l-99 -47l-2 6q11 14 17 52v433l84 60v-269l124 109q77 -65 194 -84l-185 -132l185 -274l53 38q3 -4 8 -9q1 -1 -135 -123l-203 300
l-31 -5v8l163 127l-120 58zM266 -18l-79 -87q-30 25 -80 45t-95 25q0 2 100 82q55 -10 87 -24q26 -11 67 -41z" />
    <glyph glyph-name="L" unicode="L" horiz-adv-x="544" 
d="M144 568v-342q0 -82 -37 -115l-79 -67q-2 0 -2 12q22 22 29.5 36.5t7.5 44.5l-4 368zM460 601l-84 -75l-102 73l-8 -4l2 -304q-16 -72 -37.5 -108t-78.5 -78l-7 9q30 41 30 96l-2 326q-4 16 5 40t25 32l129 86zM-5 -33q29 37 67 67q50 41 80 36l315 -47q16 -3 33 12
q10 10 19 20l15 -5l-107 -122q-3 -1 -314 45q-38 5 -51 5q-27 0 -57 -11z" />
    <glyph glyph-name="M" unicode="M" horiz-adv-x="757" 
d="M698 672h-174l-70 -70v70h-132l-58 -63l-1 67l-81 -71v-394q0 -24 -10 -60q25 18 53 47q39 38 39 55v326h112v-174l-72 -80h73l1 -221q0 -38 -37 -62q62 -24 95 -56l74 68q-10 16 -55 47v224h49l69 78l-120 -1l1 177h164v-476q-8 -33 -37 -63q66 -21 100 -53l71 67
q-10 16 -55 42zM156 184q0 -76 -106 -151q16 22 34 63v463q-16 30 -45 41l-41 -33l-5 9l108 102q19 -12 37 -23.5t18 -36.5v-434zM281 36l-74 -68q-26 15 -53 30.5t-51 15.5q-8 0 -16 -1l-47 -23q66 97 145 97q23 0 56 -19q30 -18 40 -32z" />
    <glyph glyph-name="N" unicode="N" horiz-adv-x="573" 
d="M334 671h174l-1 -575q22 -12 55 -42l-71 -67l-94 52q9 14 18 27q13 21 13 41v472h-164v-326q0 -17 -39 -55q-28 -29 -53 -47q4 11 7 21.5t3 38.5v394l81 71l1 -69zM156 184q0 -76 -106 -151q16 22 34 63v463q-16 30 -45 41l-41 -33l-5 9l108 102q19 -12 37 -23.5
t18 -36.5v-434zM286 37l-71 -62q-64 35 -94 35q-11 0 -23 -2l-47 -23q66 98 145 98q23 0 53 -17q27 -15 37 -29z" />
    <glyph glyph-name="O" unicode="O" horiz-adv-x="538" 
d="M492 109l-186 -129q-66 25 -132 49q-106 37 -143 37q-9 0 -14 -1q23 23 61 45q47 28 74 25q21 -3 108 -35q61 -22 123 -45l20 13v504q-60 -2 -168 30v-277q0 -48 -14 -75q-12 -21 -36.5 -36t-48.5 -30q22 50 20 96q0 583 0 181q0 106 1 182l79 47l-1 -70l77 63
q20 -8 66 -17q51 -11 88 -11q15 0 26 2v-548zM129 261q0 -54 -28 -89q-21 -27 -75 -57q7 11 22 60v385q0 7 -12 7q-9 0 -23 -4l-2 7l118 62v-371z" />
    <glyph glyph-name="P" unicode="P" horiz-adv-x="567" 
d="M537 650q-22 -15 -22 -48q0 -6 1 -11l1 -467l6 -24q-83 -35 -146 -108q-99 57 -213 85v-95q0 -4 -5.5 -19.5t-10.5 -20.5q-13 -16 -86 -71q20 44 21 72q1 36 -1 142q-17 3 -56 -15q-23 -13 -46 -25q37 98 102 120v423q-12 5 -72 25l82 68q24 -9 71 -24v-486l34 -10
l-1 470l75 54v-71l90 70zM436 569q-37 10 -163 30v-299q0 -39 -12 -67l-54 -74q110 -25 229 -87v497z" />
    <glyph glyph-name="Q" unicode="Q" horiz-adv-x="544" 
d="M562 2l-75 -69l-51 50q-6 5 -18 5q-27 0 -46 -20q-2 -1 -5 5.5t-5 6.5l126 87zM492 109l-186 -129q-66 25 -132 49q-106 37 -143 37q-9 0 -14 -1q23 23 61 45q47 28 74 25q21 -3 108 -35q61 -22 123 -45l20 13v504q-60 -2 -168 30v-277q0 -48 -14 -75q-12 -21 -36.5 -36
t-48.5 -30q23 36 20 96q0 -14 0 93v173v94l80 47l-1 -67l77 63q20 -8 66 -17q51 -11 88 -11q15 0 26 2v-548zM132 261q0 -53 -29 -89q-22 -26 -77 -57q7 11 22 60v385q0 7 -12 7q-9 0 -23 -4l-2 7l121 62v-371z" />
    <glyph glyph-name="R" unicode="R" horiz-adv-x="564" 
d="M592 111l-139 -121q-11 71 -71 185q-52 100 -104 165q-1 2 -16 5l1 -45q0 -29 -25 -51q-26 -18 -52 -37v398l80 67v-68l89 71l115 -39q68 -10 80 -10l-199 -214q88 -108 196 -330l43 31zM157 197l-84 -65l3 27v374q1 17 -23 38t-35 22h-24l82 86l81 -53v-429zM273 73
l-80 -83q-38 76 -127 82l-42 -10q14 20 46 43.5t55 29.5l36 3q44 -13 56 -19q33 -15 56 -46zM435 547l-169 45v-217z" />
    <glyph glyph-name="S" unicode="S" horiz-adv-x="586" 
d="M536 114q-1 -8 3 -18.5t4 -6.5q-58 -40 -169 -128q-155 132 -324 185l-32 -17l-4 5l109 95q37 -5 159 -78l162 -102v344q0 14 -16 19h-185l-90 -65v260l141 95l216 -78q-19 -21 -37 -42q-31 -32 -46 -28q-28 7 -182 65l1 -187l90 62h199zM126 331l-86 -64l1 265l85 58
v-259z" />
    <glyph glyph-name="T" unicode="T" horiz-adv-x="500" 
d="M506 670l-107 -83l-90 1q-1 -94 3 -301l-125 -104q31 40 34 73v332h-182q-15 0 -45 -14l93 97zM189 259q-1 -30 -38 -72q-34 -38 -70 -58q14 41 15 45.5t4 35.5v281l89 76v-308zM484 75l-101 -79l-268 52q-37 7 -76 4q91 83 116 80l277 -57q23 -7 52 0z" />
    <glyph glyph-name="U" unicode="U" horiz-adv-x="563" 
d="M552 57l-75 -72l-80 63l-67 -59q-217 57 -248 62l-18 3q-24 0 -36 -11q5 14 46 52q47 42 69 40q83 -19 258 -63l11 17l-1 521l103 68q-8 -30 -14 -105v-473zM259 316q-1 -42 -33.5 -85.5t-71.5 -63.5q29 56 29 77l1 362l73 53q0 -349 2 -343zM152 261l-4 -35
q-5 -25 -38.5 -67t-64.5 -59q22 41 22 74l2 393q-25 13 -37 22t-24 15l60 79q23 -15 84 -52v-370z" />
    <glyph glyph-name="V" unicode="V" horiz-adv-x="544" 
d="M506 670v-545l-140 -124l-272 53q-11 -1 -50 -8q25 34 64 61q45 31 76 27q42 -6 119 -24t117 -24q3 316 1 500l-153 1v-345l-102 -77q21 38 21 70v361q6 14 37.5 44.5t48.5 30.5zM154 245q-5 -92 -113 -147q10 26 19 53q14 39 14 58v331q0 21 -28 36q-12 6 -57 21l77 82
l87 -60z" />
    <glyph glyph-name="W" unicode="W" horiz-adv-x="772" 
d="M713 586q-1 -157 0 -469q-151 -138 -161 -138q3 0 -53.5 27.5t-90.5 27.5q-4 0 -9 -1t-6 -1q29 27 57 55q23 18 49 18q22 0 56 -16q41 -19 54 -22q15 -2 18 20v488h-180v-173h118l-52 -77h-65v-188q0 -19 -25 -40q-2 -2 -71 -62q-55 -48 -59 -48q-3 0 -25 12t-29 14
q-41 15 -81 30q-48 17 -86 22q11 15 67 65q13 11 50 4q33 -6 146 -62q9 -2 15 0q8 3 5 12q-2 154 -2 241h-76l52 77q3 1 23 0v169h-93v-264q-4 -27 -15 -52q-25 -58 -79 -88q12 31 13 72v374l79 70v-79l85 68h103v-64q80 64 87 64h198q-8 -16 -17 -86zM147 212
q4 -58 -85 -114q7 15 14 68v404l-76 36l73 79l74 -41v-432z" />
    <glyph glyph-name="X" unicode="X" horiz-adv-x="507" 
d="M490 636l-66 -81l-55 29v-164h110l-59 -85h-52v-204l94 -52l-68 -92l-107 65v284h-27v-187l-148 -163l-104 75l75 83l84 -58l11 11v240h-110l60 82h44l-1 148l-107 28l80 84l117 -40v-222h25v180l110 83z" />
    <glyph glyph-name="Y" unicode="Y" horiz-adv-x="538" 
d="M533 622q-19 -24 -63 -49q-47 -26 -80 -26q-20 0 -51 11q-45 16 -61 45q68 79 73 79q87 -74 126 -74q13 0 56 14zM534 586q-41 -36 -41 -124v-344q-31 -21 -78 -53l-1 352q0 32 15 68q21 50 81 87q6 7 19 17zM414 500q-23 -25 -23 -63v-386q-20 -13 -87 -53l-1 79
l-90 -77h-167l95 95h162v198q-19 -16 -43 -45q-10 -13 -32 -13h-192v304q-1 70 17 108q20 44 84 95l18 11q-20 -33 -22.5 -59t-4.5 -53v-315h177q0 64 10 85q13 30 58 63q20 13 41 26z" />
    <glyph glyph-name="Z" unicode="Z" horiz-adv-x="463" 
d="M410 420v-409l-80 -64v397q-51 13 -94 23q-103 23 -146 26l185 186q0 3 8 9h-173q8 0 -63 -17q-6 -4 -18 -11q-11 -1 -11 11l101 106q1 1 7 -2.5t11 -3.5h273l-190 -194q57 -9 190 -57zM298 -70q-14 -10 -128 -90l-166 120l79 66l128 -97l-1 347l87 49z" />
    <glyph glyph-name="bracketleft" unicode="[" horiz-adv-x="196" 
d="M129 -93v30h-67l2 800l65 -1v31h-121v-860h121z" />
    <glyph glyph-name="backslash" unicode="\" horiz-adv-x="401" 
d="M406 -1h-63l-331 708h59z" />
    <glyph glyph-name="bracketright" unicode="]" horiz-adv-x="196" 
d="M17 -93v30h67l-2 800l-64 -1l-1 31h121v-860h-121z" />
    <glyph glyph-name="asciicircum" unicode="^" horiz-adv-x="490" 
d="M100 693l-2 6l150 113l157 -115l-3 -6l-152 50z" />
    <glyph glyph-name="underscore" unicode="_" horiz-adv-x="555" 
d="M587 -150h-587v50h587v-50z" />
    <glyph glyph-name="grave" unicode="`" horiz-adv-x="454" 
d="M121 788q10 23 29 23q9 0 20 -7l148 -96l-3 -12q-3 0 -85.5 21.5t-88.5 21.5q-9 0 -16 10t-7 23q0 9 3 16z" />
    <glyph glyph-name="a" unicode="a" horiz-adv-x="382" 
d="M373 49q-69 -59 -76 -59t-74 55l-70 -55q-22 13 -64 36q-22 6 -65 21q22 36 22 64v284l-4 17l139 99l153 -52q-6 -7 -13 -61q-2 -152 0 -301q5 -13 52 -48zM244 81v318l-110 33v-329l81 -43z" />
    <glyph glyph-name="b" unicode="b" horiz-adv-x="351" 
d="M322 493l-6 -17q-5 -19 -5 -39q-2 -107 0 -350q-123 -95 -130 -95q-26 11 -76 31q-49 17 -94 22q10 15 19.5 31.5t9.5 59.5v490l89 53v-228l62 43zM224 71l1 341h-97v-305q18 -5 37 -11q39 -12 59 -25z" />
    <glyph glyph-name="c" unicode="c" horiz-adv-x="288" 
d="M275 444q-2 -5 -50 -53q-4 -4 -21 0q-29 9 -67 40l-13 -14v-315q48 -16 105 -33q10 -1 36 13q-2 -14 -42 -52t-52 -38q-53 17 -161 46q7 13 25 38v275q0 25 -10 43l152 108q31 -17 98 -58z" />
    <glyph glyph-name="d" unicode="d" horiz-adv-x="367" 
d="M329 113q-8 -7 -85 -76q-51 -46 -55 -44q-22 12 -75 32q-69 25 -102 25l38 41v291q0 -1 -1.5 6t-3.5 32q31 20 84 63q8 -9 8 -30v-348l94 -37l16 16v338q-82 58 -243 178q22 26 67 71q0 -3 5 -15l253 -189v-354z" />
    <glyph glyph-name="e" unicode="e" horiz-adv-x="304" 
d="M294 430l-173 -178v-150q41 0 108 -36q13 -7 42 0q-18 -16 -100 -76q-70 35 -160 52l29 27v277q0 53 -6 66q18 11 88 57q55 37 59 37q6 0 56.5 -35t56.5 -41zM205 375l-84 65v-157q8 5 84 92z" />
    <glyph glyph-name="f" unicode="f" horiz-adv-x="256" 
d="M293 643l-73 -58l-91 28v-120h152q-6 -7 -75 -81h-76v-326l58 -34l-75 -63l-94 52l27 32v339h-48l48 80v105l115 84z" />
    <glyph glyph-name="g" unicode="g" horiz-adv-x="350" 
d="M226 43l-81 -51l-72 34q-21 6 -64 21q22 36 22 64v284l-5 17l140 99l155 -52q-6 -7 -13 -61v-435q-46 -33 -144 -121q-17 16 -64 34q-36 13 -71 25l42 36q35 31 38 31q14 -1 56 -21q52 -25 61 -29q-2 49 0 125zM226 400l-110 32v-329l110 -46v343z" />
    <glyph glyph-name="h" unicode="h" horiz-adv-x="367" 
d="M318 77q1 -43 -47 -101q-43 -53 -95 -82q17 22 45 71q14 34 15 95q2 110 0 352h-123v-309l44 -46l-83 -68l-70 70l26 24v527q70 59 83 66v-230l54 47h151v-416z" />
    <glyph glyph-name="i" unicode="i" horiz-adv-x="185" 
d="M134 603l-59 -57l-45 49l57 54zM177 60l-71 -70l-78 63l28 34l-1 321l-47 41l67 58l63 -55v-353z" />
    <glyph glyph-name="j" unicode="j" horiz-adv-x="196" 
d="M148 603l-59 -57l-45 49l58 54zM152 -7l-136 -122l-67 53l66 64q14 -11 56 -47v21v446l-49 41l67 58l63 -55v-459z" />
    <glyph glyph-name="k" unicode="k" horiz-adv-x="354" 
d="M112 429v-161q62 43 95 111q-31 18 -95 50zM152 60l-72 -70l-78 63q-2 -2 28 34v552l82 50v-246v0q14 0 65 62q64 -42 66 -43q38 -23 55 -27q-34 -50 -111 -125q46 -18 100 -179q5 -15 9 -30q11 -28 21 -28q4 0 15.5 5.5t14.5 6.5l4 -4v-11l-50 -40q-47 -37 -56 -37
q-8 0 -18 31l-8 32q-5 13 -12 37q-10 42 -33 88q-32 62 -62 67v-149z" />
    <glyph glyph-name="l" unicode="l" horiz-adv-x="164" 
d="M152 60l-72 -70l-78 63q-2 -2 28 34v552l82 50v-590z" />
    <glyph glyph-name="m" unicode="m" horiz-adv-x="566" 
d="M373 62l-74 -75l-75 58l31 37v330q-76 -1 -105 0v-316l33 -34l-74 -75l-75 57l33 39v328l-47 32l74 64l58 -47v-24l65 57l124 -1v-53l62 54h124v-404l32 -27l-74 -75l-75 58l31 37v330q-71 -1 -100 0v-316z" />
    <glyph glyph-name="n" unicode="n" horiz-adv-x="371" 
d="M233 412q-75 -1 -104 0v-316l33 -34l-74 -75l-75 57l33 39v328l-48 32l75 64l57 -47v-24l65 57h124q2 -123 -1 -398l34 -33l-74 -75l-75 58l30 37v330z" />
    <glyph glyph-name="o" unicode="o" horiz-adv-x="341" 
d="M298 107l-142 -125l-130 65l2 24v309q-4 26 -13 32l136 99l147 -52v-352zM213 407l-99 34l1 -335l98 -49v350z" />
    <glyph glyph-name="p" unicode="p" horiz-adv-x="375" 
d="M342 88q-104 -64 -134 -96q-20 10 -47 23q1 -12 0 -59l-82 -80v151q-17 7 -40 7q-31 0 -69 -14q64 83 100 83q5 0 7 -1v310h-70l50 81h104v-54l61 54h114v-370q0 -9 6 -35zM253 413l-92 -1v-310q49 -10 92 -42v353z" />
    <glyph glyph-name="q" unicode="q" horiz-adv-x="335" 
d="M291 -43l-83 -71v148l-59 -52l-130 65l2 24v299q-4 26 -13 32l136 99l147 -52v-492zM206 57v340l-99 34l1 -325z" />
    <glyph glyph-name="r" unicode="r" horiz-adv-x="307" 
d="M229 55l-66 -66l-131 64q-2 -2 28 34q2 99 -1 329l-47 33l67 58l63 -42v-24q65 61 72 61q4 0 38.5 -17t45.5 -20q-74 -72 -75 -72q4 0 -78 32v-323z" />
    <glyph glyph-name="s" unicode="s" horiz-adv-x="355" 
d="M313 97q-15 -22 -56 -56q-55 -43 -75 -63q-22 27 -87 74t-98 58q0 2 35 33.5t36 31.5q38 -1 165 -117v210l-114 1l-69 -46q-6 51 -29 179l153 106l140 -60l-75 -64l-120 45l-12 -9q9 -42 21 -122q7 -6 63 45h122v-246z" />
    <glyph glyph-name="t" unicode="t" horiz-adv-x="264" 
d="M268 492l-67 -82h-51v-320l29 -17q25 -7 39 0l-93 -91l-89 56l28 37v337l-74 -5l153 160l1 -76z" />
    <glyph glyph-name="u" unicode="u" horiz-adv-x="356" 
d="M362 48l-66 -60l-72 64q-27 -28 -76 -68l-136 66l31 41v318q-12 13 -33 24l70 66q20 -12 55 -35q-9 -13 -8 -45v-322l77 -40q6 6 13 17l-1 365q25 21 80 62v-391z" />
    <glyph glyph-name="v" unicode="v" horiz-adv-x="367" 
d="M323 493v-378q-61 -57 -135 -124l-168 51l18 18q11 14 12 31v84v225l-50 44l68 65l66 -60v-19q30 35 40 44q20 17 45 19h104zM242 65v346h-107v-312q40 -12 107 -34z" />
    <glyph glyph-name="w" unicode="w" horiz-adv-x="556" 
d="M134 416q0 -3 0 -2v-69q1 -123 1 -246l104 -29l1 330zM250 47q-26 -25 -60 -56l-169 58q8 9 17 18q13 14 13 31q1 52 0 161q-1 134 -1 141q-17 22 -52 36l64 66q36 -17 72 -55v-15q48 68 93 69l103 -31q-6 -7 -6 -17v-23q56 66 102 70l95 -30l-7 -25l-1 -330
q-56 -58 -127 -126zM431 398q-39 4 -106 13v-312l106 -36v335z" />
    <glyph glyph-name="x" unicode="x" horiz-adv-x="365" 
d="M281 400l-74 26v-120h113l-51 -72h-59v-128q26 -16 66 -39q12 -3 52 10l-100 -88l-100 58l-80 -58l-54 42l69 73l49 -41l13 9v162h-98l55 75h41v101l-93 29l70 69l106 -37v-22l72 55l79 -37q-2 -2 -76 -67z" />
    <glyph glyph-name="y" unicode="y" horiz-adv-x="345" 
d="M296 -44l-144 -130l-151 81q23 20 72 64q41 -25 130 -72l15 12v138q-22 -22 -70 -65l-136 66l31 41v318q-12 13 -33 24l70 66q20 -12 55 -35q-9 -13 -8 -45l-1 -329l72 -38q19 18 19 22l-1 365q25 21 80 62v-545z" />
    <glyph glyph-name="z" unicode="z" horiz-adv-x="306" 
d="M268 493l-149 -178h144v-330q-23 -17 -78 -68q-47 -44 -51 -44q-6 0 -140 79l63 68q57 -33 124 -71l1 290h-155l138 173h-156l75 81h184z" />
    <glyph glyph-name="braceleft" unicode="{" horiz-adv-x="300" 
d="M134 307q81 -48 81 -170q0 -20 -2.5 -58t-2.5 -54q0 -49 15 -72q18 -30 64 -34v-19h-18q-71 0 -100 39q-22 30 -22 94q0 18 2.5 58t2.5 59q0 119 -81 146v22q81 28 81 136q0 21 -3.5 64t-3.5 63q0 64 26 95q33 39 117 39v-20q-47 -4 -65 -34q-15 -23 -15 -71
q0 -17 2.5 -55t2.5 -58q0 -122 -81 -170z" />
    <glyph glyph-name="bar" unicode="|" horiz-adv-x="135" 
d="M20 -119v846h63v-846h-63z" />
    <glyph glyph-name="braceright" unicode="}" horiz-adv-x="301" 
d="M213 307q-80 -48 -80 -170q0 -20 2 -58t2 -54q0 -49 -15 -72q-18 -30 -64 -34v-19h18q72 0 100 39q22 30 22 94q0 18 -2.5 58t-2.5 59q0 119 81 146v22q-81 28 -81 136q0 21 3.5 64t3.5 63q0 64 -26 95q-33 39 -117 39v-20q47 -4 66 -34q14 -23 14 -71q0 -17 -2 -55
t-2 -58q0 -122 80 -170z" />
    <glyph glyph-name="asciitilde" unicode="~" horiz-adv-x="298" 
d="M32 737q6 30 36 48q27 17 60 17q13 0 37 -11.5t39 -11.5q13 0 36 6.5t32 13.5q-30 -65 -102 -65q-13 0 -35.5 10.5t-33.5 10.5q-51 0 -69 -18z" />
    <glyph glyph-name="Adieresis" unicode="&#xc4;" horiz-adv-x="557" 
d="M551 60l-61 -67l-100 53l28 36v211q-171 -1 -167 0q-1 -53 -2 -86q-44 -40 -86 -81q5 15 14 55v345l40 42l-191 33q-25 4 -25 23q0 11 12 23l85 75l6 -10l-24 -24q-5 -9 7 -16q71 -18 198 -30.5t214 -10.5v-542zM147 233q1 -127 -93 -173q22 52 21 130l-1 299l72 49z
M271 60l-66 -68l-96 41q-24 5 -51 -9q19 18 75 65q16 14 30 14q8 0 18 -5zM415 372v180l-166 13l1 -193h165zM299 751q0 17 11.5 29.5t29.5 12.5q17 0 29 -12t12 -30q0 -17 -12 -29t-29 -12t-29 12.5t-12 28.5zM160 751q0 17 12 29.5t29 12.5t29 -12t12 -30q0 -17 -12 -29
t-29 -12t-29 12.5t-12 28.5z" />
    <glyph glyph-name="Aring" unicode="&#xc5;" horiz-adv-x="557" 
d="M551 60l-61 -67l-100 53l28 36v211q-171 -1 -167 0q-1 -53 -2 -86q-44 -40 -86 -81q5 15 14 55v345l40 42l-191 33q-25 4 -25 23q0 11 12 23l85 75l6 -10l-24 -24q-5 -9 7 -16q71 -18 198 -30.5t214 -10.5v-542zM147 233q1 -127 -93 -173q22 52 21 130l-1 299l72 49z
M271 60l-66 -68l-96 41q-24 5 -51 -9q19 18 75 65q16 14 30 14q8 0 18 -5zM415 372v180l-166 13l1 -193h165zM288 684q-28 0 -48 19t-20 46t20 46t48 19q27 0 47 -19t20 -46t-20 -46t-47 -19zM288 784q-16 0 -27 -10.5t-11 -24.5t11 -24.5t27 -10.5t26.5 10.5t10.5 24.5
t-10.5 24.5t-26.5 10.5z" />
    <glyph glyph-name="Ccedilla" unicode="&#xc7;" horiz-adv-x="451" 
d="M411 613q-34 -36 -70 -72q-33 18 -119 67q36 37 72 73q33 -18 117 -68zM207 678q-1 -404 0 -396q-23 -30 -89 -110q16 36 16 66l-1 385zM109 221l-87 -97q-3 -6 -6 -6q2 1 6 6q9 18 16 75v355l70 56zM291 -105q-7 -31 -30 -43t-71 -12q-18 0 -44 1l2 13q26 0 47 15.5
t24 33.5q2 18 -11 32q-16 16 -45 16l40 64l-169 54q-10 -5 -22 -10q-3 1 -7 3l72 64q11 18 28 18q8 0 25 -5l244 -76q50 25 50 27t5 -7l-98 -81q-19 -16 -50 -12q-11 4 -54 19l-28 -48q33 -4 62 -21q36 -20 30 -45z" />
    <glyph glyph-name="Eacute" unicode="&#xc9;" horiz-adv-x="513" 
d="M127 594l-1 -316q-12 -58 -31 -86q-22 -30 -70 -54q22 31 22 70l1 333zM469 636l-80 -78l-120 43q-17 7 -35 -7l1 -192h241l-56 -77h-186l1 -43q-6 -38 -34 -63q-17 -16 -72 -45q30 64 30 98v338l73 51l1 -57l72 71q7 7 29 1q96 -44 135 -40zM435 69q-58 -56 -72 -76
l-360 72l61 60q11 12 28 14q8 -1 17 -1q327 -67 326 -69zM350 788q-10 23 -28 23q-10 0 -21 -7l-147 -96l3 -12q2 0 87 22q81 21 86 21q10 0 16.5 10t6.5 23q0 9 -3 16z" />
    <glyph glyph-name="Ntilde" unicode="&#xd1;" horiz-adv-x="573" 
d="M334 671h174l-1 -575q22 -12 55 -42l-71 -67l-94 52q9 14 18 27q13 21 13 41v472h-164v-326q0 -17 -39 -55q-28 -29 -53 -47q4 11 7 21.5t3 38.5v394l81 71l1 -69zM156 184q0 -76 -106 -151q16 22 34 63v463q-16 30 -45 41l-41 -33l-5 9l108 102q19 -12 37 -23.5
t18 -36.5v-434zM286 37l-71 -62q-64 35 -94 35q-11 0 -23 -2l-47 -23q66 98 145 98q23 0 53 -17q27 -15 37 -29zM158 729q7 35 41 56q31 19 69 19q15 0 42.5 -13t44.5 -13q15 0 42 7.5t37 15.5q-16 -34 -48 -54.5t-69 -20.5q-16 0 -41.5 12.5t-38.5 12.5q-58 0 -79 -22z" />
    <glyph glyph-name="Odieresis" unicode="&#xd6;" horiz-adv-x="531" 
d="M478 109l-186 -129q-66 25 -132 49q-106 37 -144 37q-8 0 -13 -1q23 23 61 45q47 28 74 25q21 -3 107 -35q62 -22 124 -45l20 13v504q-60 -2 -168 30v-277q0 -48 -15 -75q-11 -21 -35.5 -36t-48.5 -30q22 50 20 96q0 583 0 181q0 106 1 182l79 47l-1 -70l77 63
q20 -8 65 -17q52 -11 89 -11q15 0 26 2v-548zM115 261q0 -54 -28 -89q-21 -27 -75 -57q7 11 21 60v385q0 7 -11 7q-9 0 -23 -4l-2 7l118 62v-371zM279 751q0 17 11.5 29.5t29.5 12.5q17 0 29 -12t12 -30q0 -17 -12 -29t-29 -12t-29 12.5t-12 28.5zM140 751q0 17 12 29.5
t29 12.5t29 -12t12 -30q0 -17 -12 -29t-29 -12t-29 12.5t-12 28.5z" />
    <glyph glyph-name="Udieresis" unicode="&#xdc;" horiz-adv-x="549" 
d="M538 57l-75 -72l-80 63l-67 -59q-217 57 -248 62l-18 3q-24 0 -36 -11q5 14 46 52q47 42 69 40q83 -19 258 -63l11 17l-1 521l103 68q-8 -30 -14 -105v-473zM245 316q-1 -42 -33.5 -85.5t-71.5 -63.5q29 56 29 77v362l74 53q0 -349 2 -343zM138 261l-4 -35
q-5 -25 -38.5 -67t-64.5 -59q22 41 22 74l2 393q-25 13 -37 22t-24 15l60 79q23 -15 84 -52v-370zM299 751q0 17 11.5 29.5t29.5 12.5q17 0 29 -12t12 -30q0 -17 -12 -29t-29 -12t-29 12.5t-12 28.5zM160 751q0 17 12 29.5t29 12.5t29 -12t12 -30q0 -17 -12 -29t-29 -12
t-29 12.5t-12 28.5z" />
    <glyph glyph-name="aacute" unicode="&#xe1;" horiz-adv-x="354" 
d="M352 49q-69 -59 -76 -59t-74 55l-70 -55q-23 13 -65 36q-21 6 -64 21q22 36 22 64v284l-5 17l140 99l153 -52q-6 -7 -13 -61q-2 -152 0 -301q5 -13 52 -48zM223 81v318l-110 33v-329l80 -43zM266 629q-11 24 -29 24q-10 0 -20 -7l-148 -96l3 -12q3 0 87 22q81 21 88.5 21
t14.5 10t7 23q0 8 -3 15z" />
    <glyph glyph-name="agrave" unicode="&#xe0;" horiz-adv-x="354" 
d="M352 49q-69 -59 -76 -59t-74 55l-70 -55q-23 13 -65 36q-21 6 -64 21q22 36 22 64v284l-5 17l140 99l153 -52q-6 -7 -13 -61q-2 -152 0 -301q5 -13 52 -48zM223 81v318l-110 33v-329l80 -43zM65 629q10 24 28 24q10 0 21 -7l147 -96l-2 -12q-3 0 -85.5 21.5t-88.5 21.5
q-9 0 -16 10t-7 23q0 8 3 15z" />
    <glyph glyph-name="acircumflex" unicode="&#xe2;" horiz-adv-x="354" 
d="M352 49q-69 -59 -76 -59t-74 55l-70 -55q-23 13 -65 36q-21 6 -64 21q22 36 22 64v284l-5 17l140 99l153 -52q-6 -7 -13 -61q-2 -152 0 -301q5 -13 52 -48zM223 81v318l-110 33v-329l80 -43zM47 533l-1 6l120 113l125 -115l-2 -6l-122 50z" />
    <glyph glyph-name="adieresis" unicode="&#xe4;" horiz-adv-x="354" 
d="M352 49q-69 -59 -76 -59t-74 55l-70 -55q-23 13 -65 36q-21 6 -64 21q22 36 22 64v284l-5 17l140 99l153 -52q-6 -7 -13 -61q-2 -152 0 -301q5 -13 52 -48zM223 81v318l-110 33v-329l80 -43zM185 593q0 17 11.5 29.5t29.5 12.5q17 0 29 -12t12 -30q0 -17 -12 -29t-29 -12
t-29 12.5t-12 28.5zM46 593q0 17 12 29.5t29 12.5t29 -12t12 -30q0 -17 -12 -29t-29 -12t-29 12.5t-12 28.5z" />
    <glyph glyph-name="atilde" unicode="&#xe3;" horiz-adv-x="354" 
d="M352 49q-69 -59 -76 -59t-74 55l-70 -55q-23 13 -65 36q-21 6 -64 21q22 36 22 64v284l-5 17l140 99l153 -52q-6 -7 -13 -61q-2 -152 0 -301q5 -13 52 -48zM223 81v318l-110 33v-329l80 -43zM42 557q6 30 36 48q27 17 60 17q13 0 37 -11.5t39 -11.5q13 0 36 6.5t32 13.5
q-30 -65 -102 -65q-13 0 -35.5 10.5t-33.5 10.5q-51 0 -69 -18z" />
    <glyph glyph-name="aring" unicode="&#xe5;" horiz-adv-x="354" 
d="M352 49q-69 -59 -76 -59t-74 55l-70 -55q-23 13 -65 36q-21 6 -64 21q22 36 22 64v284l-5 17l140 99l153 -52q-6 -7 -13 -61q-2 -152 0 -301q5 -13 52 -48zM223 81v318l-110 33v-329l80 -43zM168 544q-28 0 -48 19t-20 46t20 46t48 19q27 0 47 -19t20 -46t-20 -46
t-47 -19zM168 644q-16 0 -27 -10.5t-11 -24.5t11 -24.5t27 -10.5t26.5 10.5t10.5 24.5t-10.5 24.5t-26.5 10.5z" />
    <glyph glyph-name="ccedilla" unicode="&#xe7;" horiz-adv-x="302" 
d="M214 -106q-7 -31 -30 -43t-71 -12q-18 0 -44 1l3 14q25 0 46.5 15t23.5 33q3 18 -12 33t-44 15l35 56q-40 13 -111 32q7 13 25 38v275q0 25 -10 43l152 108q31 -17 98 -58q-2 -5 -50 -53q-4 -4 -21 0q-29 9 -67 40l-13 -14v-315q48 -16 105 -33q10 -1 36 13
q-2 -14 -42 -52t-52 -38q-2 0 -26 7l-23 -39q34 -4 63 -20q35 -21 29 -46z" />
    <glyph glyph-name="eacute" unicode="&#xe9;" horiz-adv-x="304" 
d="M287 430l-173 -178v-150q41 0 108 -36q13 -7 42 0q-18 -16 -100 -76q-70 35 -160 52l29 27v277q0 53 -6 66q18 11 88 57q55 37 59 37q6 0 56.5 -35t56.5 -41zM198 375l-84 65v-157q8 5 84 92zM246 629q-11 24 -29 24q-10 0 -20 -7l-148 -96l3 -12q3 0 87 22
q81 21 88.5 21t14.5 10t7 23q0 8 -3 15z" />
    <glyph glyph-name="egrave" unicode="&#xe8;" horiz-adv-x="304" 
d="M287 430l-173 -178v-150q41 0 108 -36q13 -7 42 0q-18 -16 -100 -76q-70 35 -160 52l29 27v277q0 53 -6 66q18 11 88 57q55 37 59 37q6 0 56.5 -35t56.5 -41zM198 375l-84 65v-157q8 5 84 92zM60 629q10 24 28 24q10 0 21 -7l147 -96l-2 -12q-3 0 -85.5 21.5t-88.5 21.5
q-9 0 -16 10t-7 23q0 8 3 15z" />
    <glyph glyph-name="ecircumflex" unicode="&#xea;" horiz-adv-x="304" 
d="M287 430l-173 -178v-150q41 0 108 -36q13 -7 42 0q-18 -16 -100 -76q-70 35 -160 52l29 27v277q0 53 -6 66q18 11 88 57q55 37 59 37q6 0 56.5 -35t56.5 -41zM198 375l-84 65v-157q8 5 84 92zM37 533l-1 6l120 113l125 -115l-2 -6l-122 50z" />
    <glyph glyph-name="edieresis" unicode="&#xeb;" horiz-adv-x="304" 
d="M287 430l-173 -178v-150q41 0 108 -36q13 -7 42 0q-18 -16 -100 -76q-70 35 -160 52l29 27v277q0 53 -6 66q18 11 88 57q55 37 59 37q6 0 56.5 -35t56.5 -41zM198 375l-84 65v-157q8 5 84 92zM177 593q0 17 11.5 29.5t29.5 12.5q17 0 29 -12t12 -30q0 -17 -12 -29
t-29 -12t-29 12.5t-12 28.5zM38 593q0 17 12 29.5t29 12.5t29 -12t12 -30q0 -17 -12 -29t-29 -12t-29 12.5t-12 28.5z" />
    <glyph glyph-name="iacute" unicode="&#xed;" horiz-adv-x="206" 
d="M184 60l-71 -70l-78 63l28 34v321l-48 41l67 58l63 -55v-353zM176 629q-11 24 -29 24q-10 0 -20 -7l-148 -96l3 -12q3 0 87 22q81 21 88.5 21t14.5 10t7 23q0 8 -3 15z" />
    <glyph glyph-name="igrave" unicode="&#xec;" horiz-adv-x="206" 
d="M184 60l-71 -70l-78 63l28 34v321l-48 41l67 58l63 -55v-353zM-12 629q10 24 29 24q10 0 20 -7l148 -96l-3 -12q-3 0 -85.5 21.5t-88.5 21.5q-9 0 -16 10t-7 23q0 8 3 15z" />
    <glyph glyph-name="icircumflex" unicode="&#xee;" horiz-adv-x="206" 
d="M184 60l-71 -70l-78 63l28 34v321l-48 41l67 58l63 -55v-353zM-43 533l-1 6l120 113l125 -115l-2 -6l-122 50z" />
    <glyph glyph-name="idieresis" unicode="&#xef;" horiz-adv-x="206" 
d="M184 60l-71 -70l-78 63l28 34v321l-48 41l67 58l63 -55v-353zM115 593q0 17 11.5 29.5t29.5 12.5q17 0 29 -12t12 -30q0 -17 -12 -29t-29 -12t-29 12.5t-12 28.5zM-14 593q0 17 12 29.5t29 12.5t29 -12t12 -30q0 -17 -12 -29t-29 -12t-29 12.5t-12 28.5z" />
    <glyph glyph-name="ntilde" unicode="&#xf1;" horiz-adv-x="371" 
d="M233 412q-75 -1 -104 0v-316l33 -34l-74 -75l-75 57l33 39v328l-48 32l75 64l57 -47v-24l65 57h124q2 -123 -1 -398l34 -33l-74 -75l-75 58l30 37v330zM52 557q6 30 36 48q27 17 60 17q13 0 37 -11.5t39 -11.5q13 0 36 6.5t32 13.5q-30 -65 -102 -65q-13 0 -35.5 10.5
t-33.5 10.5q-51 0 -69 -18z" />
    <glyph glyph-name="oacute" unicode="&#xf3;" horiz-adv-x="341" 
d="M298 107l-142 -125l-130 65l2 24v299q-4 26 -13 32l136 99l147 -52v-342zM213 397l-99 34l1 -325l98 -49v340zM246 629q-11 24 -29 24q-10 0 -20 -7l-148 -96l3 -12q3 0 87 22q81 21 88.5 21t14.5 10t7 23q0 8 -3 15z" />
    <glyph glyph-name="ograve" unicode="&#xf2;" horiz-adv-x="341" 
d="M298 107l-142 -125l-130 65l2 24v299q-4 26 -13 32l136 99l147 -52v-342zM213 397l-99 34l1 -325l98 -49v340zM51 629q10 24 29 24q10 0 20 -7l148 -96l-3 -12q-3 0 -85.5 21.5t-88.5 21.5q-9 0 -16 10t-7 23q0 8 3 15z" />
    <glyph glyph-name="ocircumflex" unicode="&#xf4;" horiz-adv-x="341" 
d="M298 107l-142 -125l-130 65l2 24v299q-4 26 -13 32l136 99l147 -52v-342zM213 397l-99 34l1 -325l98 -49v340zM37 533l-1 6l120 113l125 -115l-2 -6l-122 50z" />
    <glyph glyph-name="odieresis" unicode="&#xf6;" horiz-adv-x="341" 
d="M298 107l-142 -125l-130 65l2 24v299q-4 26 -13 32l136 99l147 -52v-342zM213 397l-99 34l1 -325l98 -49v340zM185 593q0 17 11.5 29.5t29.5 12.5q17 0 29 -12t12 -30q0 -17 -12 -29t-29 -12t-29 12.5t-12 28.5zM46 593q0 17 12 29.5t29 12.5t29 -12t12 -30
q0 -17 -12 -29t-29 -12t-29 12.5t-12 28.5z" />
    <glyph glyph-name="otilde" unicode="&#xf5;" horiz-adv-x="341" 
d="M298 107l-142 -125l-130 65l2 24v299q-4 26 -13 32l136 99l147 -52v-342zM213 397l-99 34l1 -325l98 -49v340zM42 557q6 30 36 48q27 17 60 17q13 0 37 -11.5t39 -11.5q13 0 36 6.5t32 13.5q-30 -65 -102 -65q-13 0 -35.5 10.5t-33.5 10.5q-51 0 -69 -18z" />
    <glyph glyph-name="uacute" unicode="&#xfa;" horiz-adv-x="356" 
d="M362 48l-66 -60l-72 64q-27 -28 -76 -68l-136 66l31 41v318q-12 13 -33 24l70 66q20 -12 55 -35q-9 -13 -8 -45v-322l77 -40q6 6 13 17l-1 365q25 21 80 62v-391zM256 629q-11 24 -29 24q-10 0 -20 -7l-148 -96l3 -12q3 0 87 22q81 21 88.5 21t14.5 10t7 23q0 8 -3 15z
" />
    <glyph glyph-name="ugrave" unicode="&#xf9;" horiz-adv-x="356" 
d="M362 48l-66 -60l-72 64q-27 -28 -76 -68l-136 66l31 41v318q-12 13 -33 24l70 66q20 -12 55 -35q-9 -13 -8 -45v-322l77 -40q6 6 13 17l-1 365q25 21 80 62v-391zM54 629q10 24 28 24q10 0 21 -7l147 -96l-3 -12q-2 0 -87 22q-81 21 -86 21q-10 0 -16.5 10t-6.5 23
q0 8 3 15z" />
    <glyph glyph-name="ucircumflex" unicode="&#xfb;" horiz-adv-x="356" 
d="M362 48l-66 -60l-72 64q-27 -28 -76 -68l-136 66l31 41v318q-12 13 -33 24l70 66q20 -12 55 -35q-9 -13 -8 -45v-322l77 -40q6 6 13 17l-1 365q25 21 80 62v-391zM37 533l-1 6l120 113l125 -115l-2 -6l-122 50z" />
    <glyph glyph-name="udieresis" unicode="&#xfc;" horiz-adv-x="356" 
d="M362 48l-66 -60l-72 64q-27 -28 -76 -68l-136 66l31 41v318q-12 13 -33 24l70 66q20 -12 55 -35q-9 -13 -8 -45v-322l77 -40q6 6 13 17l-1 365q25 21 80 62v-391zM195 593q0 17 11.5 29.5t29.5 12.5q17 0 29 -12t12 -30q0 -17 -12 -29t-29 -12t-29 12.5t-12 28.5zM56 593
q0 17 12 29.5t29 12.5t29 -12t12 -30q0 -17 -12 -29t-29 -12t-29 12.5t-12 28.5z" />
    <glyph glyph-name="dagger" unicode="&#x2020;" horiz-adv-x="432" 
d="M193 489q-24 -1 -69.5 -20.5t-65.5 -19.5q-54 0 -54 56q0 60 54 60q19 0 65 -22t70 -24q0 37 -26 91.5t-26 68.5q0 27 19.5 42.5t47.5 15.5t47 -15.5t19 -42.5q0 -14 -26 -69t-27 -91q25 2 71 24t64 22q55 0 55 -62q0 -61 -55 -61q-17 0 -63 22.5t-72 24.5
q7 -107 68 -171q-43 -83 -55 -198q-5 -43 -9 -207h-35q-4 159 -9 207q-13 117 -55 198q61 64 67 171z" />
    <glyph glyph-name="degree" unicode="&#xb0;" horiz-adv-x="308" 
d="M144 749q52 0 88 -37t36 -89t-36 -88.5t-88 -36.5q-50 0 -88.5 36t-38.5 86q0 53 37 91t90 38zM144 709q-36 0 -60.5 -25t-24.5 -61q0 -35 25 -60t60 -25t59.5 25t24.5 60t-24.5 60.5t-59.5 25.5z" />
    <glyph glyph-name="cent" unicode="&#xa2;" horiz-adv-x="322" 
d="M292 532q-2 -5 -49 -53q-5 -4 -21 0q-8 3 -40 18q-37 17 -48 26l-14 -13q4 -305 0 -315q62 -19 131 -39q10 -1 36 12q-2 -14 -42 -52t-51 -37h-4v-78h-49v92q-51 15 -134 38q7 13 24 38v275q0 25 -9 43l122 86v99h49v-89q35 -15 99 -51z" />
    <glyph glyph-name="sterling" unicode="&#xa3;" horiz-adv-x="414" 
d="M-5 -3q29 37 67 68q50 40 80 35l189 -32q16 -3 33 12q10 10 19 20l15 -6l-107 -121q-3 -2 -188 30q-35 5 -50 5q-27 0 -58 -11zM19 387h70l1 132q-4 16 5 40t25 31l129 86l128 -92l-84 -75l-102 73l-6 -9v-186h136l-20 -58h-116v-43q-16 -73 -38 -112q-25 -41 -81 -83
l-7 9q29 40 30 96v133h-90z" />
    <glyph glyph-name="section" unicode="&#xa7;" horiz-adv-x="10" 
 />
    <glyph glyph-name="bullet" unicode="&#x2022;" horiz-adv-x="277" 
d="M55 262q0 36 25.5 61t61.5 25q35 0 60.5 -25t25.5 -61t-25.5 -61t-60.5 -25q-36 0 -61.5 25t-25.5 61z" />
    <glyph glyph-name="paragraph" unicode="&#xb6;" horiz-adv-x="487" 
d="M462 -55h-282v30q39 0 49 12t10 53v283l-31 -1q-85 -3 -136.5 44t-51.5 132q0 101 66 142q52 32 162 32h214v-30q-38 0 -47.5 -12.5t-9.5 -53.5v-536q0 -42 8 -52q10 -13 49 -13v-30zM352 -25v667h-63v-667h63z" />
    <glyph glyph-name="germandbls" unicode="&#xdf;" horiz-adv-x="413" 
d="M346 612l-93 -199h114v-331q-23 -16 -78 -68q-47 -44 -51 -44q-6 0 -80 51l64 68q26 -19 63 -43l1 290h-115l104 219q-46 15 -71.5 29t-70.5 29l2 -527l30 -22l-64 -67l-78 44l27 32v524l115 84q46 -13 93 -35q51 -23 88 -34z" />
    <glyph glyph-name="registered" unicode="&#xae;" horiz-adv-x="359" 
d="M185 720q60 0 102.5 -43.5t42.5 -103.5q0 -61 -43 -104t-104 -43t-104 43t-43 104q0 62 43.5 104.5t105.5 42.5zM182 699q-51 0 -86 -37t-35 -88q0 -52 35 -88.5t87 -36.5t87 36.5t35 88.5t-35.5 88.5t-87.5 36.5zM166 568v-41q0 -9 1 -15q7 -3 24 -3v-14h-89v14
q14 0 21 3q2 6 2 15v92q0 8 -2 15q-6 2 -21 2v15h95q58 0 58 -40q0 -31 -38 -39q21 -8 30 -57q2 -2 5 -3q8 0 8 20h15v-5q0 -35 -38 -35q-26 0 -34 22q-2 5 -7 45q-4 9 -30 9zM166 583h11q34 0 34 27q0 26 -25 26h-9q-11 0 -11 -12v-41z" />
    <glyph glyph-name="copyright" unicode="&#xa9;" horiz-adv-x="775" 
d="M618 93q-101 -101 -245 -101q-155 0 -253 98q-106 105 -106 262q0 156 103.5 258.5t255.5 105.5q67 1 137 -29t114 -77q104 -113 104 -259q0 -149 -110 -258zM369 675q-129 0 -218 -96t-89 -226q0 -131 90.5 -226.5t220.5 -95.5t222 96q89 95 89 226q0 135 -90.5 228.5
t-224.5 93.5zM372 154q-86 0 -139.5 53.5t-53.5 139.5q0 88 55.5 145.5t143.5 57.5q50 0 98 -28l29 26h20l6 -149l-26 -2q-35 128 -122 128q-101 0 -101 -169q0 -172 108 -172q95 0 119 115l26 -1q-32 -144 -163 -144z" />
    <glyph glyph-name="trademark" unicode="&#x2122;" horiz-adv-x="443" 
d="M191 467q26 0 26 48v114q0 12 -1 24q-9 4 -23 4v16h70l35 -126l34 126h71v-16q-15 0 -23 -4q-2 -11 -2 -24v-134q0 -13 2 -24q8 -4 23 -4v-16h-85v16q14 0 23 4q2 12 2 24v154l-54 -198h-5l-50 196v-132q0 -47 25 -48v-16h-68v16zM148 590q-11 67 -40 67l-5 -4l-1 -8
v-150q0 -13 1 -24q9 -4 25 -4v-16h-89v16q17 0 25 4q2 12 2 24v150l-2 10l-5 2q-29 0 -40 -67h-12l4 83h145l4 -83h-12z" />
    <glyph glyph-name="acute" unicode="&#xb4;" horiz-adv-x="454" 
d="M320 788q-10 23 -28 23q-10 0 -21 -7l-147 -96l3 -12q2 0 87 22q81 21 86 21q10 0 16.5 10t6.5 23q0 9 -3 16z" />
    <glyph glyph-name="dieresis" unicode="&#xa8;" horiz-adv-x="318" 
d="M179 751q0 17 11.5 29.5t29.5 12.5q17 0 29 -12t12 -30q0 -17 -12 -29t-29 -12t-29 12.5t-12 28.5zM40 751q0 17 12 29.5t29 12.5t29 -12t12 -30q0 -17 -12 -29t-29 -12t-29 12.5t-12 28.5z" />
    <glyph glyph-name="AE" unicode="&#xc6;" horiz-adv-x="781" 
d="M147 233q1 -127 -93 -173q22 52 21 130l-1 299l72 49zM271 60l-66 -68l-96 41q-24 5 -51 -9q19 18 75 65q16 14 30 14q8 0 18 -5zM415 402v150l-166 13l1 -163h165zM744 61q-59 -56 -73 -76l-285 60q4 3 32 37v241q-171 -1 -167 0l-2 -116q-40 -37 -86 -81q3 5 14 55v345
l40 42l-191 33q-25 4 -25 23q0 11 12 23l85 75l6 -10l-24 -24q-5 -9 7 -16q149 -37 331 -42l74 31l1 -31l6 1v-22l62 61q13 11 33 6q96 -44 135 -40l-80 -78l-120 43q-15 7 -30 -3v-196h237l-56 -77h-181v-209q246 -54 245 -55zM507 19v0l-26 6z" />
    <glyph glyph-name="Oslash" unicode="&#xd8;" horiz-adv-x="566" 
d="M194 126q76 -28 196 -71l20 13v441zM499 657v-548l-186 -129q-50 20 -167 61l-29 -51h-29l33 59q-57 17 -83 17q-9 0 -14 -1q23 23 61 45q47 28 74 25q4 -1 9 -2l242 439q-60 -2 -168 30v-217q0 -71 -23 -107q-14 -23 -60 -55q10 34 10 175q0 -14 -5 245l79 47l-1 -70
l77 63q59 -24 144 -28l29 53h30l-29 -52q3 1 6 1zM136 261q0 -54 -28 -89q-21 -27 -75 -57q7 11 22 60v385q0 7 -12 7q-9 0 -23 -4l-2 7l118 62v-371z" />
    <glyph glyph-name="plusminus" unicode="&#xb1;" horiz-adv-x="28" 
 />
    <glyph glyph-name="yen" unicode="&#xa5;" horiz-adv-x="495" 
d="M91 302h115l-1 30q-109 285 -118 285q-51 0 -51 -43q0 -27 47 -46q-16 -34 -28 -34q-55 0 -57 68q0 30 27 53q15 12 60 35t65 40l129 -313q19 22 108 220l-48 44l75 47l73 -45l-64 -46l-134 -259l-1 -36h123v-27h-123v-43h123v-27h-123v-111q7 -27 40 -44
q-39 -14 -76 -61q-44 44 -91 60q36 16 46 45l-1 111h-115v27h115v43h-115v27z" />
    <glyph glyph-name="mu" unicode="&#xb5;" horiz-adv-x="544" 
d="M-5 -33q29 37 67 67q50 41 80 36l315 -47q16 -2 34 13q9 10 18 19l15 -5l-107 -122q-3 -1 -314 45q-38 5 -51 5q-27 0 -57 -11zM15 203l48 31l-1 271l82 63v-280l30 19l-1 229q-4 16 5 40t25 32l129 86l128 -93l-84 -75l-102 73l-8 -4l1 -227l122 80v-56l-121 -80v-21
q-16 -72 -37.5 -108t-78.5 -78l-7 9q30 41 30 96l-1 41l-30 -20v-5q0 -84 -37 -115l-79 -67q-2 0 -2 12q22 22 29.5 36.5t7.5 44.5v40l-48 -30v56z" />
    <glyph glyph-name="mu" unicode="&#x3bc;" horiz-adv-x="544" 
d="M-5 -33q29 37 67 67q50 41 80 36l315 -47q16 -2 34 13q9 10 18 19l15 -5l-107 -122q-3 -1 -314 45q-38 5 -51 5q-27 0 -57 -11zM15 203l48 31l-1 271l82 63v-280l30 19l-1 229q-4 16 5 40t25 32l129 86l128 -93l-84 -75l-102 73l-8 -4l1 -227l122 80v-56l-121 -80v-21
q-16 -72 -37.5 -108t-78.5 -78l-7 9q30 41 30 96l-1 41l-30 -20v-5q0 -84 -37 -115l-79 -67q-2 0 -2 12q22 22 29.5 36.5t7.5 44.5v40l-48 -30v56z" />
    <glyph glyph-name="ordfeminine" unicode="&#xaa;" horiz-adv-x="463" 
d="M410 420v-409l-80 -64v397q-51 13 -94 23q-103 23 -146 26l185 186q0 3 8 9h-173q8 0 -63 -17q-6 -4 -18 -11q-11 -1 -11 11l101 106q1 1 7 -2.5t11 -3.5h273l-190 -194q57 -9 190 -57zM298 -70q-14 -10 -128 -90l-166 120l79 66l128 -97l-1 347l87 49zM345 820l2 -6
l-123 -101l-124 103l3 6l122 -50z" />
    <glyph glyph-name="ordmasculine" unicode="&#xba;" horiz-adv-x="327" 
d="M275 493l-149 -178h144v-330q-23 -17 -78 -68q-47 -44 -51 -44q-6 0 -140 79l63 68q57 -33 125 -71v290h-155l138 173h-156l75 81h184zM278 637l2 -6l-123 -101l-124 103l3 6l122 -50z" />
    <glyph glyph-name="ae" unicode="&#xe6;" horiz-adv-x="533" 
d="M237 255l-109 -65l-1 -87l81 -43l29 21v174zM514 392l-196 -126v-164q25 0 100 -40q10 -5 50 4q-18 -16 -100 -76q-22 13 -71 40q-51 -33 -55 -33q-7 0 -5 62l-91 -69q-22 13 -65 36q-21 6 -64 21q14 22 17 30q5 13 5 34l2 67l196 107v115l-110 32l1 -87l-87 -32l-2 82
l-4 17l139 99l135 -48q68 45 71 45q5 0 67 -55q59 -53 67 -61zM406 357l-88 80v-140q8 5 88 60z" />
    <glyph glyph-name="oslash" unicode="&#xf8;" horiz-adv-x="356" 
d="M122 177l85 224l-86 30zM220 343l-91 -240l91 -46v286zM283 508l-17 -45l39 -14v-342l-142 -125l-67 34l-14 -35h-35l19 50l-33 16l2 24v299q-4 26 -13 32l137 99l76 -27l13 34h35z" />
    <glyph glyph-name="questiondown" unicode="&#xbf;" horiz-adv-x="376" 
d="M63 -16q0 21 -1 94q-1 58 0 93q0 4 -15 44q2 1 6 5q41 -21 64 -21q11 0 23 1t33.5 11t32.5 11l3 103h31l12 -121q-27 -7 -112 -57q0 -31 1 -86v-85q0 -13 6.5 -25.5t16.5 -12.5q-4 0 32.5 20.5t70.5 20.5q26 0 55.5 -24t34.5 -54q-38 0 -47 -1q-27 -2 -48.5 -27
t-22.5 -25q-39 40 -85.5 63.5t-108.5 23.5v9q18 -1 18 40zM230 515q13 -22 26 -42t36 -32q-45 -34 -66 -73q-20 47 -59 70q36 26 63 77z" />
    <glyph glyph-name="exclamdown" unicode="&#xa1;" horiz-adv-x="179" 
d="M66 -68l25 389h26l26 -303l4 -62t18 -59l-4 -10q-7 5 -19 18q-4 7 -16 37q-9 -46 -17 -59q-2 -2 -27 -28l-41 -27q15 38 25 104zM104 518l26 -44q13 -18 36 -31q-45 -33 -65 -73q-21 48 -59 71q35 25 62 77z" />
    <glyph glyph-name="logicalnot" unicode="&#xac;" horiz-adv-x="19" 
 />
    <glyph glyph-name="florin" unicode="&#x192;" horiz-adv-x="451" 
d="M431 97l-127 -105l-224 78l-28 -11l-7 3l32 28v193h-68l20 40h48v60h-68l20 40h48v143l184 118l169 -61l-65 -66l-141 69l-67 -46v-157h138l-20 -40h-118v-60h138l-20 -40h-118v-153l196 -66l74 39z" />
    <glyph glyph-name="guillemotleft" unicode="&#xab;" horiz-adv-x="311" 
d="M272 429l-98 -161l95 -153l-12 -14l-143 167q-3 2 145 178zM153 429l-98 -161l95 -153l-12 -14l-143 167q-3 2 145 178z" />
    <glyph glyph-name="guillemotright" unicode="&#xbb;" horiz-adv-x="311" 
d="M-2 429l97 -161l-95 -153l12 -14l144 167q3 2 -146 178zM117 429l97 -161l-95 -153l12 -14l144 167q3 2 -146 178z" />
    <glyph glyph-name="ellipsis" unicode="&#x2026;" horiz-adv-x="861" 
d="M139 -12l-87 75l89 81l85 -79zM439 -12l-87 75l89 81l85 -79zM739 -12l-87 75l89 81l85 -79z" />
    <glyph glyph-name="nonbreakingspace" unicode="&#xa0;" horiz-adv-x="191" 
 />
    <glyph glyph-name="Agrave" unicode="&#xc0;" horiz-adv-x="557" 
d="M551 60l-61 -67l-100 53l28 36v211q-171 -1 -167 0q-1 -53 -2 -86q-44 -40 -86 -81q5 15 14 55v345l40 42l-191 33q-25 4 -25 23q0 11 12 23l85 75l6 -10l-24 -24q-5 -9 7 -16q71 -18 198 -30.5t214 -10.5v-542zM147 233q1 -127 -93 -173q22 52 21 130l-1 299l72 49z
M271 60l-66 -68l-96 41q-24 5 -51 -9q19 18 75 65q16 14 30 14q8 0 18 -5zM415 372v180l-166 13l1 -193h165zM175 798q11 23 29 23q10 0 20 -7l148 -96l-3 -12q-3 0 -85.5 21.5t-88.5 21.5q-9 0 -16 10t-7 23q0 9 3 16z" />
    <glyph glyph-name="Atilde" unicode="&#xc3;" horiz-adv-x="557" 
d="M551 60l-61 -67l-100 53l28 36v211q-171 -1 -167 0q-1 -53 -2 -86q-44 -40 -86 -81q5 15 14 55v345l40 42l-191 33q-25 4 -25 23q0 11 12 23l85 75l6 -10l-24 -24q-5 -9 7 -16q71 -18 198 -30.5t214 -10.5v-542zM147 233q1 -127 -93 -173q22 52 21 130l-1 299l72 49z
M271 60l-66 -68l-96 41q-24 5 -51 -9q19 18 75 65q16 14 30 14q8 0 18 -5zM415 372v180l-166 13l1 -193h165zM140 714q7 35 42 56q31 19 68 19q15 0 43 -13t45 -13q14 0 41 7.5t37 15.5q-16 -34 -48 -54.5t-69 -20.5q-15 0 -41 12.5t-39 12.5q-58 0 -79 -22z" />
    <glyph glyph-name="Otilde" unicode="&#xd5;" horiz-adv-x="531" 
d="M478 109l-186 -129q-66 25 -132 49q-106 37 -144 37q-8 0 -13 -1q23 23 61 45q47 28 74 25q21 -3 107 -35q62 -22 124 -45l20 13v504q-60 -2 -168 30v-277q0 -48 -15 -75q-11 -21 -35.5 -36t-48.5 -30q22 50 20 96q0 583 0 181q0 106 1 182l79 47l-1 -70l77 63
q20 -8 65 -17q52 -11 89 -11q15 0 26 2v-548zM115 261q0 -54 -28 -89q-21 -27 -75 -57q7 11 21 60v385q0 7 -11 7q-9 0 -23 -4l-2 7l118 62v-371zM102 735q7 34 42 55q31 19 68 19q16 0 43.5 -12.5t44.5 -12.5q15 0 41.5 7t36.5 16q-16 -34 -48 -55t-69 -21q-15 0 -41 12.5
t-39 12.5q-58 0 -79 -21z" />
    <glyph glyph-name="OE" unicode="&#x152;" horiz-adv-x="870" 
d="M834 417l-56 -77h-185l-1 -119l-75 -84q1 117 0 488l73 51l2 -57l71 70q7 7 29 1q96 -44 136 -40l-81 -78l-120 43q-16 8 -35 -6l1 -192h241zM485 631v-515q325 -66 323 -68q-58 -56 -72 -76l-348 70l-89 -62q-66 25 -132 49q-106 37 -144 37q-8 0 -13 -1q23 23 61 45
q47 28 74 25q21 -3 108 -35q61 -22 123 -45l20 13l2 492q-33 0 -90 16l-80 26v-277q0 -48 -15 -75q-11 -21 -35.5 -36t-48.5 -30q20 46 20 96q0 583 0 181q0 106 1 182l79 47l-1 -70l77 63q127 -53 167 -53q7 0 13 1zM122 261q0 -54 -28 -89q-21 -27 -75 -57q7 11 22 60v385
q0 7 -12 7q-9 0 -23 -4l-2 7l118 62v-371z" />
    <glyph glyph-name="oe" unicode="&#x153;" horiz-adv-x="482" 
d="M299 107q41 -14 103 -41q13 -7 42 0q-18 -16 -100 -76q-50 25 -128 45l-60 -53l-130 65l2 24v299q-4 26 -13 32l136 99l125 -44q73 49 85 48q6 0 53 -34.5t53 -40.5l-169 -173zM378 375l-80 62v-150q17 16 80 88zM214 396l-100 35l1 -325l89 -45l9 8z" />
    <glyph glyph-name="endash" unicode="&#x2013;" horiz-adv-x="469" 
d="M21 215v54h407v-54h-407z" />
    <glyph glyph-name="emdash" unicode="&#x2014;" horiz-adv-x="830" 
d="M14 215v54h780v-54h-780z" />
    <glyph glyph-name="quotedblleft" unicode="&#x201c;" horiz-adv-x="285" 
d="M155 611l-71 75q-45 -66 -43 -117q2 -68 75 -109q-9 24 -10 45q-2 60 49 106zM305 611l-71 75q-45 -66 -43 -117q2 -68 75 -109q-9 24 -10 45q-2 60 49 106z" />
    <glyph glyph-name="quotedblright" unicode="&#x201d;" horiz-adv-x="285" 
d="M172 611l71 75q45 -66 43 -117q-2 -68 -75 -109q9 24 10 45q2 60 -49 106zM22 611l71 75q45 -66 43 -117q-2 -68 -75 -109q9 24 10 45q2 60 -49 106z" />
    <glyph glyph-name="quoteleft" unicode="&#x2018;" horiz-adv-x="173" 
d="M170 621l-72 75q-44 -66 -42 -117q2 -68 74 -109q-8 24 -9 45q-2 60 49 106z" />
    <glyph glyph-name="quoteright" unicode="&#x2019;" horiz-adv-x="179" 
d="M42 621l71 75q45 -66 43 -117q-2 -68 -75 -109q9 24 10 45q2 60 -49 106z" />
    <glyph glyph-name="divide" unicode="&#xf7;" horiz-adv-x="14" 
 />
    <glyph glyph-name="ydieresis" unicode="&#xff;" horiz-adv-x="352" 
d="M296 -44l-144 -130l-151 81q23 20 72 64q41 -25 130 -72l15 12v138q-22 -22 -70 -65l-136 66l31 41v318q-12 13 -33 24l70 66q20 -12 55 -35q-9 -13 -8 -45l-1 -329l72 -38q19 18 19 22l-1 365q25 21 80 62v-545zM189 591q0 17 11.5 29.5t29.5 12.5q17 0 29 -12t12 -30
q0 -17 -12 -29t-29 -12t-29 12.5t-12 28.5zM50 591q0 17 12 29.5t29 12.5t29 -12t12 -30q0 -17 -12 -29t-29 -12t-29 12.5t-12 28.5z" />
    <glyph glyph-name="Ydieresis" unicode="&#x178;" horiz-adv-x="538" 
d="M533 622q-19 -24 -63 -49q-47 -26 -80 -26q-20 0 -51 11q-45 16 -61 45q68 79 73 79q87 -74 126 -74q13 0 56 14zM534 586q-41 -36 -41 -124v-344q-31 -21 -78 -53l-1 352q0 32 15 68q21 50 81 87q6 7 19 17zM414 500q-23 -25 -23 -63v-386q-20 -13 -87 -53l-1 79
l-90 -77h-167l95 95h162v198q-19 -16 -43 -45q-10 -13 -32 -13h-192v304q-1 70 17 108q20 44 84 95l18 11q-20 -33 -22.5 -59t-4.5 -53v-315h177q0 64 10 85q13 30 58 63q20 13 41 26zM319 761q0 17 11.5 29.5t29.5 12.5q17 0 29 -12t12 -30q0 -17 -12 -29t-29 -12t-29 12.5
t-12 28.5zM180 761q0 17 12 29.5t29 12.5t29 -12t12 -30q0 -17 -12 -29t-29 -12t-29 12.5t-12 28.5z" />
    <glyph glyph-name="currency" unicode="&#xa4;" horiz-adv-x="22" 
 />
    <glyph glyph-name="guilsinglleft" unicode="&#x2039;" horiz-adv-x="189" 
d="M153 429l-98 -161l95 -153l-12 -14l-143 167q-3 2 145 178z" />
    <glyph glyph-name="guilsinglright" unicode="&#x203a;" horiz-adv-x="189" 
d="M-5 429l98 -161l-95 -153l12 -14l143 167q3 2 -145 178z" />
    <glyph glyph-name="daggerdbl" unicode="&#x2021;" horiz-adv-x="17" 
 />
    <glyph glyph-name="periodcentered" unicode="&#xb7;" horiz-adv-x="235" 
d="M74 314q0 19 14 33t34 14q19 0 33 -14t14 -33q0 -20 -14 -34t-33 -14q-20 0 -34 14t-14 34z" />
    <glyph glyph-name="periodcentered" unicode="&#x2219;" horiz-adv-x="235" 
d="M74 314q0 19 14 33t34 14q19 0 33 -14t14 -33q0 -20 -14 -34t-33 -14q-20 0 -34 14t-14 34z" />
    <glyph glyph-name="quotesinglbase" unicode="&#x201a;" horiz-adv-x="179" 
d="M42 51l71 75q45 -66 43 -117q-2 -68 -75 -109q9 24 10 45q2 60 -49 106z" />
    <glyph glyph-name="quotedblbase" unicode="&#x201e;" horiz-adv-x="285" 
d="M172 41l71 75q45 -66 43 -117q-2 -68 -75 -109q9 24 10 45q2 60 -49 106zM22 41l71 75q45 -66 43 -117q-2 -68 -75 -109q9 24 10 45q2 60 -49 106z" />
    <glyph glyph-name="perthousand" unicode="&#x2030;" horiz-adv-x="14" 
 />
    <glyph glyph-name="Acircumflex" unicode="&#xc2;" horiz-adv-x="557" 
d="M551 60l-61 -67l-100 53l28 36v211q-171 -1 -167 0q-1 -53 -2 -86q-44 -40 -86 -81q5 15 14 55v345l40 42l-191 33q-25 4 -25 23q0 11 12 23l85 75l6 -10l-24 -24q-5 -9 7 -16q71 -18 198 -30.5t214 -10.5v-542zM147 233q1 -127 -93 -173q22 52 21 130l-1 299l72 49z
M271 60l-66 -68l-96 41q-24 5 -51 -9q19 18 75 65q16 14 30 14q8 0 18 -5zM415 372v180l-166 13l1 -193h165zM162 704l-2 6l119 99l128 -101l-3 -6l-122 50z" />
    <glyph glyph-name="Ecircumflex" unicode="&#xca;" horiz-adv-x="513" 
d="M127 594l-1 -316q-12 -58 -31 -86q-22 -30 -70 -54q22 31 22 70l1 333zM469 636l-80 -78l-120 43q-17 7 -35 -7l1 -192h241l-56 -77h-186l1 -43q-6 -38 -34 -63q-17 -16 -72 -45q30 64 30 98v338l73 51l1 -57l72 71q7 7 29 1q96 -44 135 -40zM435 69q-58 -56 -72 -76
l-360 72l61 60q11 12 28 14q8 -1 17 -1q327 -67 326 -69zM152 704l-2 6l119 99l128 -101l-3 -6l-122 50z" />
    <glyph glyph-name="Aacute" unicode="&#xc1;" horiz-adv-x="557" 
d="M551 60l-61 -67l-100 53l28 36v211q-171 -1 -167 0q-1 -53 -2 -86q-44 -40 -86 -81q5 15 14 55v345l40 42l-191 33q-25 4 -25 23q0 11 12 23l85 75l6 -10l-24 -24q-5 -9 7 -16q71 -18 198 -30.5t214 -10.5v-542zM147 233q1 -127 -93 -173q22 52 21 130l-1 299l72 49z
M271 60l-66 -68l-96 41q-24 5 -51 -9q19 18 75 65q16 14 30 14q8 0 18 -5zM415 372v180l-166 13l1 -193h165zM380 788q-10 23 -28 23q-10 0 -21 -7l-147 -96l3 -12q2 0 87 22q81 21 86 21q10 0 16.5 10t6.5 23q0 9 -3 16z" />
    <glyph glyph-name="Edieresis" unicode="&#xcb;" horiz-adv-x="513" 
d="M127 594l-1 -316q-12 -58 -31 -86q-22 -30 -70 -54q22 31 22 70l1 333zM469 636l-80 -78l-120 43q-17 7 -35 -7l1 -192h241l-56 -77h-186l1 -43q-6 -38 -34 -63q-17 -16 -72 -45q30 64 30 98v338l73 51l1 -57l72 71q7 7 29 1q96 -44 135 -40zM435 69q-58 -56 -72 -76
l-360 72l61 60q11 12 28 14q8 -1 17 -1q327 -67 326 -69zM289 751q0 17 11.5 29.5t29.5 12.5q17 0 29 -12t12 -30q0 -17 -12 -29t-29 -12t-29 12.5t-12 28.5zM150 751q0 17 12 29.5t29 12.5t29 -12t12 -30q0 -17 -12 -29t-29 -12t-29 12.5t-12 28.5z" />
    <glyph glyph-name="Egrave" unicode="&#xc8;" horiz-adv-x="513" 
d="M127 594l-1 -316q-12 -58 -31 -86q-22 -30 -70 -54q22 31 22 70l1 333zM469 636l-80 -78l-120 43q-17 7 -35 -7l1 -192h241l-56 -77h-186l1 -43q-6 -38 -34 -63q-17 -16 -72 -45q30 64 30 98v338l73 51l1 -57l72 71q7 7 29 1q96 -44 135 -40zM435 69q-58 -56 -72 -76
l-360 72l61 60q11 12 28 14q8 -1 17 -1q327 -67 326 -69zM175 798q11 23 29 23q10 0 20 -7l148 -96l-3 -12q-3 0 -85.5 21.5t-88.5 21.5q-9 0 -16 10t-7 23q0 9 3 16z" />
    <glyph glyph-name="Iacute" unicode="&#xcd;" horiz-adv-x="454" 
d="M134 407l66 -65v150l86 55v-524l-170 -122q-54 68 -108 96l78 79q67 -51 101 -96l13 8v340l-72 -69l-77 72zM80 672h359q-38 -34 -38 -64l1 -501l-88 -67v536l-307 1q75 95 73 95zM350 788q-10 23 -28 23q-10 0 -21 -7l-147 -96l3 -12q2 0 87 22q81 21 86 21
q10 0 16.5 10t6.5 23q0 9 -3 16z" />
    <glyph glyph-name="Icircumflex" unicode="&#xce;" horiz-adv-x="454" 
d="M134 407l66 -65v150l86 55v-524l-170 -122q-54 68 -108 96l78 79q67 -51 101 -96l13 8v340l-72 -69l-77 72zM80 672h359q-38 -34 -38 -64l1 -501l-88 -67l-1 538l-306 -1q75 95 73 95zM112 704l-2 6l119 99l128 -101l-3 -6l-122 50z" />
    <glyph glyph-name="Idieresis" unicode="&#xcf;" horiz-adv-x="454" 
d="M134 407l66 -65v150l86 55v-524l-170 -122q-54 68 -108 96l78 79q67 -51 101 -96l13 8v340l-72 -69l-77 72zM80 672h359q-38 -34 -38 -64l1 -501l-88 -67l-1 538l-306 -1q75 95 73 95zM269 751q0 17 11.5 29.5t29.5 12.5q17 0 29 -12t12 -30q0 -17 -12 -29t-29 -12
t-29 12.5t-12 28.5zM130 751q0 17 12 29.5t29 12.5t29 -12t12 -30q0 -17 -12 -29t-29 -12t-29 12.5t-12 28.5z" />
    <glyph glyph-name="Igrave" unicode="&#xcc;" horiz-adv-x="454" 
d="M134 407l66 -65v150l86 55v-524l-170 -122q-54 68 -108 96l78 79q67 -51 101 -96l13 8v340l-72 -69l-77 72zM80 672h359q-38 -34 -38 -64l1 -501l-88 -67l-1 538l-306 -1q75 95 73 95zM145 798q11 23 29 23q10 0 20 -7l148 -96l-3 -12q-3 0 -85.5 21.5t-88.5 21.5
q-9 0 -16 10t-7 23q0 9 3 16z" />
    <glyph glyph-name="Oacute" unicode="&#xd3;" horiz-adv-x="531" 
d="M478 109l-186 -129q-66 25 -132 49q-106 37 -144 37q-8 0 -13 -1q23 23 61 45q47 28 74 25q21 -3 107 -35q62 -22 124 -45l20 13v504q-60 -2 -168 30v-277q0 -48 -15 -75q-11 -21 -35.5 -36t-48.5 -30q22 50 20 96q0 583 0 181q0 106 1 182l79 47l-1 -70l77 63
q20 -8 65 -17q52 -11 89 -11q15 0 26 2v-548zM115 261q0 -54 -28 -89q-21 -27 -75 -57q7 11 21 60v385q0 7 -11 7q-9 0 -23 -4l-2 7l118 62v-371zM350 788q-10 23 -28 23q-10 0 -21 -7l-147 -96l3 -12q2 0 87 22q81 21 86 21q10 0 16.5 10t6.5 23q0 9 -3 16z" />
    <glyph glyph-name="Ocircumflex" unicode="&#xd4;" horiz-adv-x="531" 
d="M478 109l-186 -129q-66 25 -132 49q-106 37 -144 37q-8 0 -13 -1q23 23 61 45q47 28 74 25q21 -3 107 -35q62 -22 124 -45l20 13v504q-60 -2 -168 30v-277q0 -48 -15 -75q-11 -21 -35.5 -36t-48.5 -30q22 50 20 96q0 583 0 181q0 106 1 182l79 47l-1 -70l77 63
q20 -8 65 -17q52 -11 89 -11q15 0 26 2v-548zM115 261q0 -54 -28 -89q-21 -27 -75 -57q7 11 21 60v385q0 7 -11 7q-9 0 -23 -4l-2 7l118 62v-371zM132 704l-2 6l119 99l128 -101l-3 -6l-122 50z" />
    <glyph glyph-name="Ograve" unicode="&#xd2;" horiz-adv-x="531" 
d="M478 109l-186 -129q-66 25 -132 49q-106 37 -144 37q-8 0 -13 -1q23 23 61 45q47 28 74 25q21 -3 107 -35q62 -22 124 -45l20 13v504q-60 -2 -168 30v-277q0 -48 -15 -75q-11 -21 -35.5 -36t-48.5 -30q22 50 20 96q0 583 0 181q0 106 1 182l79 47l-1 -70l77 63
q20 -8 65 -17q52 -11 89 -11q15 0 26 2v-548zM115 261q0 -54 -28 -89q-21 -27 -75 -57q7 11 21 60v385q0 7 -11 7q-9 0 -23 -4l-2 7l118 62v-371zM155 798q11 23 29 23q10 0 20 -7l148 -96l-3 -12q-3 0 -85.5 21.5t-88.5 21.5q-9 0 -16 10t-7 23q0 9 3 16z" />
    <glyph glyph-name="Uacute" unicode="&#xda;" horiz-adv-x="549" 
d="M538 57l-75 -72l-80 63l-67 -59q-217 57 -248 62l-18 3q-24 0 -36 -11q5 14 46 52q47 42 69 40q83 -19 258 -63l11 17l-1 521l103 68q-8 -30 -14 -105v-473zM245 316q-1 -42 -33.5 -85.5t-71.5 -63.5q29 56 29 77v362l74 53q0 -349 2 -343zM138 261l-4 -35
q-5 -25 -38.5 -67t-64.5 -59q22 41 22 74l2 393q-25 13 -37 22t-24 15l60 79q23 -15 84 -52v-370zM350 788q-10 23 -28 23q-10 0 -21 -7l-147 -96l3 -12q2 0 87 22q81 21 86 21q10 0 16.5 10t6.5 23q0 9 -3 16z" />
    <glyph glyph-name="Ucircumflex" unicode="&#xdb;" horiz-adv-x="549" 
d="M538 57l-75 -72l-80 63l-67 -59q-217 57 -248 62l-18 3q-24 0 -36 -11q5 14 46 52q47 42 69 40q83 -19 258 -63l11 17l-1 521l103 68q-8 -30 -14 -105v-473zM245 316q-1 -42 -33.5 -85.5t-71.5 -63.5q29 56 29 77v362l74 53q0 -349 2 -343zM138 261l-4 -35
q-5 -25 -38.5 -67t-64.5 -59q22 41 22 74l2 393q-25 13 -37 22t-24 15l60 79q23 -15 84 -52v-370zM162 704l-2 6l119 99l128 -101l-3 -6l-122 50z" />
    <glyph glyph-name="Ugrave" unicode="&#xd9;" horiz-adv-x="549" 
d="M538 57l-75 -72l-80 63l-67 -59q-217 57 -248 62l-18 3q-24 0 -36 -11q5 14 46 52q47 42 69 40q83 -19 258 -63l11 17l-1 521l103 68q-8 -30 -14 -105v-473zM245 316q-1 -42 -33.5 -85.5t-71.5 -63.5q29 56 29 77v362l74 53q0 -349 2 -343zM138 261l-4 -35
q-5 -25 -38.5 -67t-64.5 -59q22 41 22 74l2 393q-25 13 -37 22t-24 15l60 79q23 -15 84 -52v-370zM175 798q11 23 29 23q10 0 20 -7l148 -96l-3 -12q-3 0 -85.5 21.5t-88.5 21.5q-9 0 -16 10t-7 23q0 9 3 16z" />
    <glyph glyph-name="circumflex" unicode="&#x2c6;" horiz-adv-x="318" 
d="M51 715l-2 6l119 100l128 -102l-3 -6l-122 50z" />
    <glyph glyph-name="tilde" unicode="&#x2dc;" horiz-adv-x="298" 
d="M32 737q6 30 36 48q27 17 60 17q13 0 37 -11.5t39 -11.5q13 0 36 6.5t32 13.5q-30 -65 -102 -65q-13 0 -35.5 10.5t-33.5 10.5q-51 0 -69 -18z" />
    <glyph glyph-name="macron" unicode="&#xaf;" horiz-adv-x="290" 
d="M281 723l-253 -1v56l253 1v-56z" />
    <glyph glyph-name="macron" unicode="&#x2c9;" horiz-adv-x="290" 
d="M281 723l-253 -1v56l253 1v-56z" />
    <glyph glyph-name="cedilla" unicode="&#xb8;" horiz-adv-x="336" 
d="M203 22l-36 -69q36 -4 65 -17q38 -18 34 -43q-4 -29 -44 -46t-108 -14l3 14q25 0 46.5 15t23.5 33q6 42 -46 42q-1 3 -1 7q0 16 16 49l20 36z" />
    <glyph glyph-name="Scaron" unicode="&#x160;" 
 />
    <glyph glyph-name="scaron" unicode="&#x161;" 
 />
    <glyph glyph-name="brokenbar" unicode="&#xa6;" 
 />
    <glyph glyph-name="Eth" unicode="&#xd0;" 
 />
    <glyph glyph-name="eth" unicode="&#xf0;" 
 />
    <glyph glyph-name="Yacute" unicode="&#xdd;" 
 />
    <glyph glyph-name="yacute" unicode="&#xfd;" 
 />
    <glyph glyph-name="Thorn" unicode="&#xde;" 
 />
    <glyph glyph-name="thorn" unicode="&#xfe;" 
 />
    <glyph glyph-name="minus" unicode="&#xad;" 
 />
    <glyph glyph-name="minus" unicode="&#x2212;" 
 />
    <glyph glyph-name="multiply" unicode="&#xd7;" 
 />
    <glyph glyph-name="onesuperior" unicode="&#xb9;" 
 />
    <glyph glyph-name="twosuperior" unicode="&#xb2;" 
 />
    <glyph glyph-name="threesuperior" unicode="&#xb3;" 
 />
    <glyph glyph-name="onehalf" unicode="&#xbd;" 
 />
    <glyph glyph-name="onequarter" unicode="&#xbc;" 
 />
    <glyph glyph-name="threequarters" unicode="&#xbe;" 
 />
    <glyph glyph-name="Lslash" unicode="&#x141;" 
 />
    <glyph glyph-name="lslash" unicode="&#x142;" 
 />
    <glyph glyph-name="HT" 
 />
    <glyph glyph-name="LF" 
 />
    <glyph glyph-name="nonmarkingreturn" 
 />
    <glyph glyph-name="Zcaron" unicode="&#x17d;" 
 />
    <glyph glyph-name="zcaron" unicode="&#x17e;" 
 />
    <glyph glyph-name="DLE" 
 />
    <glyph glyph-name="DC1" 
 />
    <glyph glyph-name="DC2" 
 />
    <glyph glyph-name="DC3" 
 />
    <glyph glyph-name="DC4" 
 />
    <glyph glyph-name="RS" 
 />
    <glyph glyph-name="US" 
 />
    <glyph glyph-name="notequal" unicode="&#x2260;" horiz-adv-x="19" 
 />
    <glyph glyph-name="infinity" unicode="&#x221e;" horiz-adv-x="19" 
 />
    <glyph glyph-name="lessequal" unicode="&#x2264;" horiz-adv-x="37" 
 />
    <glyph glyph-name="greaterequal" unicode="&#x2265;" horiz-adv-x="42" 
 />
    <glyph glyph-name="partialdiff" unicode="&#x2202;" horiz-adv-x="178" 
d="M179 303l-57 -38v-166l40 -39l-72 -70l-78 63q-2 -2 28 34q1 40 1 124l-51 -33v56l51 34l-1 371l82 50v-367l57 37v-56z" />
    <glyph glyph-name="summation" unicode="&#x2211;" horiz-adv-x="558" 
d="M507 114q0 -8 4 -18.5t4 -6.5q-58 -40 -169 -128q-155 132 -324 185l-32 -17l-4 5l109 95q37 -5 158 -78q82 -51 163 -102l-1 344q0 14 -15 19h-186l-89 -65l-1 260l141 95l217 -78q-19 -21 -37 -42q-31 -32 -47 -28q-28 7 -181 65l1 -187l90 62h199v-380zM97 331
l-85 -64l1 265l84 58v-259zM385 830l2 -6l-123 -101l-124 103l3 6l122 -50z" />
    <glyph glyph-name="product" unicode="&#x220f;" horiz-adv-x="355" 
d="M313 97q-15 -22 -56 -56q-55 -43 -75 -63q-22 27 -87 74t-98 58q0 2 35 33.5t36 31.5q38 -1 165 -117v210l-114 1l-69 -46q-6 51 -29 179l153 106l140 -60l-75 -64l-120 45l-12 -9q9 -42 21 -122q7 -6 63 45h122v-246zM293 637l2 -6l-122 -101l-125 103l3 6l122 -50z" />
    <glyph glyph-name="pi" unicode="&#x3c0;" horiz-adv-x="538" 
d="M533 622q-19 -24 -63 -49q-47 -26 -80 -26q-20 0 -51 11q-45 16 -61 45q68 79 73 79q87 -74 126 -74q13 0 56 14zM534 586q-41 -36 -41 -124v-344q-31 -21 -78 -53l-1 352q0 32 15 68q21 50 81 87q6 7 19 17zM414 500q-23 -25 -23 -63v-386q-20 -13 -87 -53l-1 79
l-90 -77h-167l95 95h162v198q-19 -16 -43 -45q-10 -13 -32 -13h-192v304q-1 70 17 108q20 44 84 95l18 11q-20 -33 -22.5 -59t-4.5 -53v-315h177q0 64 10 85q13 30 58 63q20 13 41 26zM384 793q-10 24 -29 24q-10 0 -20 -7l-148 -96l3 -12q3 0 88 22q82 20 88 20q21 0 21 32
q0 10 -3 17z" />
    <glyph glyph-name="integral" unicode="&#x222b;" horiz-adv-x="352" 
d="M296 -44l-144 -130l-151 81q23 20 72 64q41 -25 130 -72l15 12v138q-22 -22 -70 -65l-136 66l31 41v318q-12 13 -33 24l70 66q20 -12 55 -35q-9 -13 -8 -45l-1 -329l72 -38q19 18 19 22l-1 365q25 21 80 62v-545zM268 630q-10 23 -29 23q-10 0 -20 -7l-148 -96l3 -12
q3 1 87 22q81 21 88.5 21t14.5 10.5t7 22.5q0 9 -3 16z" />
    <glyph glyph-name="Omega" unicode="&#x3a9;" horiz-adv-x="451" 
d="M431 97l-127 -105l-224 78l-28 -11l-7 3l32 28v193h-68l20 40h48v60h-68l20 40h48v143l184 118l169 -61l-65 -66l-141 69l-67 -46v-157h138l-20 -40h-118v-60h138l-20 -40h-118v-153l196 -66l74 39z" />
    <glyph glyph-name="Omega" unicode="&#x2126;" horiz-adv-x="451" 
d="M431 97l-127 -105l-224 78l-28 -11l-7 3l32 28v193h-68l20 40h48v60h-68l20 40h48v143l184 118l169 -61l-65 -66l-141 69l-67 -46v-157h138l-20 -40h-118v-60h138l-20 -40h-118v-153l196 -66l74 39z" />
    <glyph glyph-name="radical" unicode="&#x221a;" horiz-adv-x="21" 
 />
    <glyph glyph-name="approxequal" unicode="&#x2248;" horiz-adv-x="17" 
 />
    <glyph glyph-name="approxequal" unicode="&#x22f2;" horiz-adv-x="17" 
 />
    <glyph glyph-name="Delta" unicode="&#x394;" horiz-adv-x="22" 
 />
    <glyph glyph-name="Delta" unicode="&#x2206;" horiz-adv-x="22" 
 />
    <glyph glyph-name="lozenge" unicode="&#x25ca;" horiz-adv-x="11" 
 />
    <glyph glyph-name="fraction" unicode="&#x2044;" horiz-adv-x="14" 
 />
    <glyph glyph-name="fi" unicode="&#xf001;" horiz-adv-x="14" 
 />
    <glyph glyph-name="fl" unicode="&#xf002;" horiz-adv-x="14" 
 />
    <glyph glyph-name="apple" unicode="&#xf000;" horiz-adv-x="14" 
 />
    <glyph glyph-name="dotlessi" unicode="&#x131;" horiz-adv-x="206" 
d="M184 60l-71 -70l-78 63l28 34v321l-48 41l67 58l63 -55v-353z" />
    <glyph glyph-name="breve" unicode="&#x2d8;" horiz-adv-x="291" 
d="M66 767q44 -58 96 -66q48 14 94 66q3 3 -14 14q-60 -37 -80 -34q-27 -4 -85 37z" />
    <glyph glyph-name="dotaccent" unicode="&#x2d9;" horiz-adv-x="201" 
d="M50 790q0 26 17.5 46t44.5 20q26 0 43.5 -20t17.5 -46q0 -27 -17.5 -47.5t-43.5 -20.5q-27 0 -44.5 20t-17.5 48z" />
    <glyph glyph-name="ring" unicode="&#x2da;" horiz-adv-x="173" 
d="M88 704q-28 0 -48 19t-20 46t20 46t48 19q27 0 47 -19t20 -46t-20 -46t-47 -19zM88 804q-16 0 -27 -10.5t-11 -24.5t11 -24.5t27 -10.5t26.5 10.5t10.5 24.5t-10.5 24.5t-26.5 10.5z" />
    <glyph glyph-name="hungarumlaut" unicode="&#x2dd;" horiz-adv-x="246" 
d="M56 729l-15 16l46 87q16 31 34 31q33 0 33 -41q0 -25 -39 -52zM169 729l-15 16l47 87q17 31 34 31q14 0 23 -13t9 -28q0 -25 -39 -52z" />
    <glyph glyph-name="ogonek" unicode="&#x2db;" horiz-adv-x="286" 
d="M136 0h51q-62 -54 -62 -94q0 -44 46 -44q29 0 70 20l12 -35q-53 -38 -108 -38q-36 0 -60 21.5t-24 57.5q0 59 75 112z" />
    <glyph glyph-name="caron" unicode="&#x2c7;" horiz-adv-x="330" 
d="M285 820l2 -6l-123 -101l-124 103l3 6l122 -50z" />
    </font>
</defs>
</svg>
