<?xml version="1.0" standalone="no"?>
<!DOCTYPE svg PUBLIC "-//W3C//DTD SVG 1.1//EN" "http://www.w3.org/Graphics/SVG/1.1/DTD/svg11.dtd" >
<svg>
<metadata>
Created by FontForge 20120731 at Tue Apr 16 16:09:55 2019
 By www-data
Digitized by Dan X. Solo. Software (c) 2001 by Dover Publications, Inc., New York.
</metadata>
<defs>
<font id="Postillion" horiz-adv-x="20" >
  <font-face 
    font-family="Postillion"
    font-weight="400"
    font-stretch="normal"
    units-per-em="1000"
    panose-1="0 0 4 0 0 0 0 0 0 0"
    ascent="800"
    descent="-200"
    x-height="477"
    cap-height="694"
    bbox="-90 -391 1221.04 938"
    underline-thickness="20"
    underline-position="-123"
    unicode-range="U+0020-F002"
  />
<missing-glyph horiz-adv-x="500" 
d="M63 0v800h375v-800h-375zM125 63h250v675h-250v-675z" />
    <glyph glyph-name=".notdef" horiz-adv-x="500" 
d="M63 0v800h375v-800h-375zM125 63h250v675h-250v-675z" />
    <glyph glyph-name=".null" horiz-adv-x="0" 
 />
    <glyph glyph-name="glyph2" horiz-adv-x="234" 
 />
    <glyph glyph-name="space" unicode=" " horiz-adv-x="234" 
 />
    <glyph glyph-name="exclam" unicode="!" horiz-adv-x="247" 
d="M31 671h135l-40 -497h-60zM31 57q0 26 20 44t48 18t47.5 -18t19.5 -44t-19.5 -44t-47.5 -18t-48 18t-20 44z" />
    <glyph glyph-name="quotedbl" unicode="&#x22;" horiz-adv-x="247" 
d="M125 666h88l-27 -248h-39zM5 666h88l-27 -248h-39z" />
    <glyph glyph-name="numbersign" unicode="#" horiz-adv-x="466" 
d="M299 425h-124l-30 -172h123zM85 551h66l21 119h46l-21 -119h124l21 119h46l-21 -119h78l-22 -126h-78l-30 -172h77l-22 -126h-78l-22 -126h-46l22 126h-124l-22 -126h-46l22 126h-66l22 126h66l31 172h-67z" />
    <glyph glyph-name="dollar" unicode="$" horiz-adv-x="430" 
d="M190 667h45v-37q16 -2 36.5 -17t33.5 -15q-4 0 26 9l1 -5q-81 -64 -104 -64q-14 0 -26.5 15.5t-37.5 15.5q-15 0 -32.5 -21.5t-17.5 -43.5q0 -5 1 -10q7 -26 79 -29l128 -6q67 -10 66 -52q-4 -128 -153 -179v-60h-45v48q-38 -8 -68 -8q-40 0 -73 14q-45 17 -48 51
q0 8 41 39q35 26 52 36q11 -94 91 -94q37 0 65 14q42 18 41 58q0 33 -68 43l-128 14q-70 13 -74 55q-3 34 58 96q57 60 111 86v47z" />
    <glyph glyph-name="percent" unicode="%" horiz-adv-x="694" 
d="M659 234q0 -92 -47 -161q-52 -76 -133 -76q-124 0 -124 180q0 103 50.5 165.5t138.5 62.5q115 0 115 -171zM586 218q0 57 -13 99q-21 67 -69 67q-35 0 -54 -90q-13 -63 -13 -125q0 -55 19 -94q25 -51 77 -51q32 0 45 85q8 50 8 109zM309 514q0 -93 -42 -161
q-48 -76 -128 -76q-134 0 -134 180q0 103 50.5 165.5t138.5 62.5q115 0 115 -171zM236 498q0 57 -13 99q-21 67 -69 67q-35 0 -54 -90q-13 -63 -13 -125q0 -55 19 -94q25 -51 77 -51q32 0 45 85q8 50 8 109zM241 672q7 -7 15 -14q10 -1 29.5 -5.5t29.5 -4.5q16 0 30 7
q17 0 75.5 14.5t51.5 14.5q3 0 -242 -683h-43l224 640l-72 -15q-21 1 -42 1q-36 3 -47 14q-2 2 -6.5 15.5t-2.5 15.5z" />
    <glyph glyph-name="ampersand" unicode="&#x26;" horiz-adv-x="688" 
d="M188 -13h-40q-63 1 -109 32q-53 37 -53 97q0 93 162 198q-65 24 -81 36q-32 25 -33 80q-2 122 111 191q98 60 228 57q33 0 89 -24q65 -27 65 -53q0 -2 -16 -12q-96 -63 -164 -97q1 9 1 18q0 52 -30 83.5t-82 31.5q-35 0 -69.5 -28.5t-34.5 -63.5q0 -70 79 -101
q40 -16 138 -28l1 -9q-78 -14 -138 -52q-77 -49 -77 -115q0 -58 55 -132q59 -79 114 -79q50 0 95 21q56 27 56 71q0 78 -116 80l-46 -27l-20 32l360 225l24 -35l-118 -76q75 -17 75 -63q0 -140 -155 -209q-115 -50 -271 -49z" />
    <glyph glyph-name="quotesingle" unicode="'" horiz-adv-x="247" 
d="M5 666h88l-27 -248h-39z" />
    <glyph glyph-name="parenleft" unicode="(" horiz-adv-x="406" 
d="M30 141q-9 55 -9 111q0 174 76 299q83 139 233 163q0 1 -1 1t-2 -15q-1 -19 -5 -29q-92 -14 -130 -142q-27 -91 -22 -213q4 -116 27 -159q32 -59 119 -53l-38 -131q-18 -3 -36 -3q-80 0 -140 48t-72 123z" />
    <glyph glyph-name="parenright" unicode=")" horiz-adv-x="406" 
d="M360 511q9 -55 9 -111q0 -175 -75 -299q-83 -139 -234 -163q1 -1 2 -1t2 15q1 19 4 28q92 15 130 142q28 91 23 214q-5 116 -27 158q-32 59 -119 54l37 131q19 3 37 3q80 0 140 -48t71 -123z" />
    <glyph glyph-name="asterisk" unicode="*" horiz-adv-x="358" 
d="M126 638q0 35 36 35q32 0 35 -35l-26 -127l99 84q8 5 17 5q15 0 25.5 -11t10.5 -25q0 -17 -18 -30l-122 -41l122 -44q18 -9 18 -29q0 -14 -9.5 -25t-24.5 -11q-9 0 -19 4l-97 86l24 -128q0 -35 -36 -35q-32 0 -35 35l26 127l-99 -85q-9 -5 -18 -5q-14 0 -24.5 11
t-10.5 25q0 18 17 30l123 42l-123 43q-17 10 -17 30q0 14 9.5 25t24.5 11q9 0 19 -5l97 -85z" />
    <glyph glyph-name="plus" unicode="+" horiz-adv-x="524" 
d="M214 583h46v-208h208v-46h-208v-207h-46v207h-207v46h207v208z" />
    <glyph glyph-name="comma" unicode="," horiz-adv-x="242" 
d="M193 55l-126 -125l-22 15l44 57l-70 59l86 86z" />
    <glyph glyph-name="hyphen" unicode="-" horiz-adv-x="360" 
d="M226 256l-213 -1q13 14 82 93h212z" />
    <glyph glyph-name="hyphen" unicode="&#x2010;" horiz-adv-x="360" 
d="M226 256l-213 -1q13 14 82 93h212z" />
    <glyph glyph-name="period" unicode="." horiz-adv-x="266" 
d="M130 -19zM217 60l-90 -86l-97 86l94 83z" />
    <glyph glyph-name="slash" unicode="/" horiz-adv-x="404" 
d="M364 720l-292 -731h-58l292 731h58z" />
    <glyph glyph-name="zero" unicode="0" horiz-adv-x="653" 
d="M611 387q0 -157 -84 -269q-96 -127 -256 -127q-268 0 -268 300q0 172 101 276t277 104q127 0 186 -93q44 -72 44 -191zM464 360q0 94 -25 164q-42 111 -138 111q-73 0 -110 -159q-23 -103 -23 -199q0 -92 37 -156q50 -85 155 -85q62 0 89 141q15 84 15 183z" />
    <glyph glyph-name="one" unicode="1" horiz-adv-x="497" 
d="M326 0h-153v549q-21 -20 -39 -36q-43 -38 -62 -47q-4 -2 -10 7.5t-8 9.5q56 48 111 96q64 57 78 92h85z" />
    <glyph glyph-name="two" unicode="2" horiz-adv-x="585" 
d="M507 516q0 -100 -105 -168q-104 -52 -208 -105q-122 -64 -148 -146q62 52 88 64q31 15 87 15q63 0 122.5 -31.5t86.5 -31.5q62 0 66 113q9 -5 19 -1q0 -93 -38 -159q-46 -82 -132 -82q-42 0 -117 43t-115 43q-43 0 -61 -16q-11 -9 -17 -29.5t-16 -24.5q0 2 -2 2t-7.5 -2
t-7.5 -2t-2 2q-3 117 89 199q85 61 171 121q94 70 94 158q0 68 -31 117q-37 58 -101 58q-44 0 -77 -29.5t-33 -72.5q0 -32 21.5 -55.5t53.5 -23.5q48 0 100 33l8 -13q-140 -101 -203 -97q-91 5 -91 86q0 92 96 152q86 54 197 54q85 0 145 -41q68 -48 68 -130z" />
    <glyph glyph-name="three" unicode="3" horiz-adv-x="602" 
d="M508 233q0 -108 -107 -178q-95 -62 -209 -62q-72 0 -122 21q-71 29 -71 90q0 60 65 97q56 32 121 32q11 0 35 -9q34 -12 36 -13h-26q-44 0 -71.5 -29.5t-27.5 -73.5q0 -43 36 -68q31 -22 76 -22q60 0 90 53q25 43 25 108q0 67 -30 106q-33 45 -98 45h-76l1 26q37 2 74 2
q52 0 80 52q21 41 21 98q0 58 -25 99q-30 49 -83 49q-45 0 -74 -23q-32 -25 -32 -68q0 -63 72 -63q19 0 44 13q40 19 43 20q-93 -100 -194 -100q-34 0 -58 18t-24 51q0 80 105 136q88 46 177 46q75 0 130 -29q70 -35 70 -103q0 -62 -49 -115q-40 -45 -105 -73q69 -7 118 -36
q63 -37 63 -97z" />
    <glyph glyph-name="four" unicode="4" horiz-adv-x="602" 
d="M552 263q-20 -40 -37 -52q-21 -15 -88 -30q-7 -44 -35 -181h-158q26 131 26 181q0 33 -175 33q-35 0 -67 -18l-14 14q6 30 142.5 232t170.5 229h123q-27 -75 -27 -235q0 -50 10 -176q105 -5 129 3zM269 495q0 47 0 45l-206 -291q60 29 107 29q11 0 41 -2t53 -2v173
q0 13 2.5 24.5t2.5 23.5z" />
    <glyph glyph-name="five" unicode="5" horiz-adv-x="602" 
d="M504 692q-25 -83 -87.5 -127t-148.5 -44q-30 0 -135 21q-23 -102 -23 -169l6 -6q89 40 181 40q80 0 131 -33q59 -39 59 -115q0 -113 -126 -198q-113 -77 -231 -77q-45 0 -79 16q-46 19 -46 58q0 66 75 104q30 15 132 43l8 -4q-2 -7 -27 -15q-31 -11 -44 -23
q-24 -20 -24 -56q0 -37 29 -60t68 -23q51 0 81 44q27 39 27 93q0 85 -35 137q-41 60 -123 60q-6 0 -40.5 -14t-44.5 -19l-14 10q16 112 41 335l19 7q41 0 128.5 -12.5t131.5 -12.5q38 0 61 9q17 7 50 31z" />
    <glyph glyph-name="six" unicode="6" horiz-adv-x="622" 
d="M518 241q0 -109 -99 -183q-89 -67 -190 -67q-117 0 -177 100q-47 77 -47 182q0 157 102 275q109 126 272 126q39 0 71 -13q47 -20 47 -62q0 -80 -167 -158q0 1 -2 7.5t-2 9.5q23 8 44 29q28 28 28 58q0 35 -33 64t-64 29q-70 0 -110 -125q-30 -89 -30 -159q0 -11 6 -17
q68 29 100 38q43 12 97 12q56 0 103 -40q51 -44 51 -106zM383 135q0 72 -29 127q-38 71 -110 71q-83 0 -83 -69t27 -140q38 -103 110 -103q41 0 65 41q20 34 20 73z" />
    <glyph glyph-name="seven" unicode="7" horiz-adv-x="550" 
d="M470 671q-44 -78 -117 -189q-68 -101 -88 -140q-35 -66 -35 -117q0 -37 24.5 -60.5t60.5 -23.5q33 0 54 16t40 32v-14q1 -5 -13.5 -39t-26.5 -54q-58 -100 -141 -100q-63 0 -96 49q-28 39 -28 95q0 67 38 132q22 39 91 122q75 90 114 151q-9 0 -28.5 -7.5t-66.5 -7.5
q-57 0 -98 14.5t-58 14.5q-55 0 -77 -83q-13 2 -17 11l67 204q11 1 11 -10q0 -6 -6 -22t-6 -24q0 -4 2 -7q16 34 68 55q42 17 80 17q31 0 91 -22.5t90 -22.5t46 14.5t25 15.5z" />
    <glyph glyph-name="eight" unicode="8" horiz-adv-x="550" 
d="M440 229q0 -75 -85 -158t-158 -83h-22q-68 0 -121 40q-57 45 -57 113q0 39 27 83q32 51 87 83q-102 68 -102 135q0 97 90 175q85 72 178 72q63 0 105.5 -39.5t42.5 -98.5q0 -42 -30 -82q-18 -23 -75 -75q74 -48 97 -79.5t23 -85.5zM350 493q0 64 -34 106q-39 45 -105 45
q-38 0 -67 -24q-30 -27 -30 -66q0 -47 64 -99.5t108 -52.5q25 0 46 36q18 32 18 55zM326 118q0 58 -32 94q-29 32 -103 64q-48 21 -47 21q-30 0 -48 -56q-12 -39 -12 -64q0 -46 43.5 -93.5t95.5 -47.5q37 0 68 21q35 24 35 61z" />
    <glyph glyph-name="nine" unicode="9" horiz-adv-x="550" 
d="M510 421q0 -146 -85 -273q-100 -151 -260 -151q-36 0 -65 13q-40 17 -40 53q0 47 73 92q50 30 107 47q-23 -20 -45 -39q-30 -29 -30 -69q0 -28 26 -42q20 -10 48 -10q51 0 79 47q19 34 27 94q3 37 6 73l-3 66q-93 -61 -178 -61q-76 0 -126 45q-53 48 -53 126
q0 115 103 190q89 64 197 64t168 -86q51 -74 51 -179zM354 390q0 61 -23 139q-35 121 -101 121q-53 0 -75 -62q-14 -38 -14 -92q0 -62 18 -110q29 -77 96 -77q25 0 59 23q40 27 40 58z" />
    <glyph glyph-name="colon" unicode=":" horiz-adv-x="264" 
d="M217 300l-90 -86l-97 86l94 83zM217 60l-90 -86l-97 86l94 83z" />
    <glyph glyph-name="semicolon" unicode=";" horiz-adv-x="238" 
d="M197 300l-90 -86l-97 86l94 83zM193 59q0 -37 -64 -87q-55 -42 -62 -42q5 0 -8.5 7.5l-13.5 7.5q-15 0 11 27q20 21 33 30q-2 9 -31 29q-33 23 -39 30q-5 5 86 86q88 -71 88 -88z" />
    <glyph glyph-name="less" unicode="&#x3c;" horiz-adv-x="388" 
d="M355 557l-243 -190l240 -178l-42 -38l-284 215q-5 3 287 229z" />
    <glyph glyph-name="equal" unicode="=" horiz-adv-x="365" 
d="M42 280l275 -1v-60l-275 2v59zM45 396h269v-60h-269v60z" />
    <glyph glyph-name="greater" unicode="&#x3e;" horiz-adv-x="368" 
d="M12 557l243 -190l-240 -178l42 -38l285 215q4 3 -288 229z" />
    <glyph glyph-name="question" unicode="?" horiz-adv-x="585" 
d="M214 171q4 67 39 117l64 80q36 50 40 116q4 69 -31 117q-38 52 -104 52q-44 0 -77 -29.5t-33 -72.5q0 -32 21.5 -55.5t53.5 -23.5q48 0 92 28l9 -14q-133 -95 -196 -91q-91 5 -91 86q0 92 96 152q86 54 197 54q85 0 145 -41q68 -48 68 -130q0 -89 -69 -158
q-19 -19 -128 -97q-70 -50 -73 -92q3 4 -1 4q-3 0 -11 -2.5t-10 -2.5q0 2 -1 3zM161 57q0 26 20 44t48 18t47.5 -18t19.5 -44t-19.5 -44t-47.5 -18t-48 18t-20 44z" />
    <glyph glyph-name="at" unicode="@" horiz-adv-x="809" 
d="M441 232q-48 -79 -129 -79q-59 0 -94 41q-33 38 -33 98q0 81 55 154q59 79 139 79q77 0 103 -65l15 49h100q-18 -62 -37 -124q-33 -116 -33 -144q0 -35 34 -35q59 0 96 75q32 63 32 128q0 114 -86 178q-77 57 -195 57q-139 0 -230 -99t-91 -239q0 -135 85 -214t221 -79
q126 0 254 80l21 -35q-141 -89 -302 -89q-154 0 -255.5 96.5t-101.5 250.5q0 166 121 270q116 99 284 99q138 0 224 -66q95 -72 95 -206q0 -100 -48 -174q-56 -85 -151 -85q-81 0 -93 78zM292 258q0 -53 47 -53q15 0 27 6q31 14 62 86q29 66 29 105q0 70 -50 70
q-44 0 -82 -88q-33 -75 -33 -126z" />
    <glyph glyph-name="A" unicode="A" horiz-adv-x="802" 
d="M757 138q0 -16 -113 -85t-138 -69q-70 0 -70 157q0 13 1 33t1 26q-107 -102 -146 -132q-101 -78 -172 -78q-58 0 -89 41q-28 36 -28 96q0 112 99 247q94 127 229 215q141 92 253 92q27 0 60.5 -20t34.5 -45q-43 -26 -85 -52q-51 -30 -88 -45q-8 32 -32.5 53t-56.5 21
q-103 0 -177 -124q-66 -109 -66 -218q0 -50 22 -84q26 -41 73 -41q38 0 94 44q50 39 74 77l-1 103l2 42q115 63 190 98l-2 -153q0 -3 -1 -34q-1 -27 -1 -48q0 -150 51 -150q26 0 72 53z" />
    <glyph glyph-name="B" unicode="B" horiz-adv-x="700" 
d="M661 231q0 -64 -140 -156q-133 -88 -202 -88q-97 0 -125 60q43 23 87 46q53 29 82 53l1 -1q10 -90 71 -90q29 0 50 17.5t21 45.5q0 50 -75 79l-138 44q-75 28 -75 74q0 32 47 70q43 33 87 66q47 40 47 75q0 27 -25 46.5t-53 19.5q-136 0 -136 -132l2 -403l-182 -110v637
l180 105v-133q49 47 144 91q100 48 161 48q30 0 58.5 -28t28.5 -58q0 -34 -55 -73q-5 -3 -103 -60q-55 -33 -55 -52q0 -27 77 -51q123 -38 143 -47q77 -37 77 -95z" />
    <glyph glyph-name="C" unicode="C" horiz-adv-x="565" 
d="M543 594q11 -77 -104 -155q-102 -69 -170 -69t-92 35q40 30 122 87l3 -26q1 -13 26 -25q21 -9 37 -9q50 0 50 64q0 54 -42.5 92t-96.5 36q-73 -2 -126 -93q-50 -87 -46 -184q4 -112 78 -172q65 -54 167 -54q49 0 87 25q11 8 66 59q2 -2 15 -10q-230 -216 -302 -216
q-102 0 -162 75q-54 69 -54 172q0 165 116 308q121 150 274 150q129 0 154 -90z" />
    <glyph glyph-name="D" unicode="D" horiz-adv-x="816" 
d="M761 391q0 -64 -127 -229q-128 -168 -184 -168q-29 0 -53.5 48t-41.5 48q-10 0 -200 -127v479h-165q30 45 91 135h74v31l178 90v-115h178q99 0 169 -45q81 -53 81 -147zM680 283q0 58 -52.5 107t-107.5 51q-57 1 -188 0v-349q36 26 71 52q49 35 78 35q32 0 54 -26.5
t29 -26.5q29 0 72.5 62.5t43.5 94.5z" />
    <glyph glyph-name="E" unicode="E" horiz-adv-x="680" 
d="M661 299q-1 -55 -111 -133q-94 -67 -224 -123q-125 -54 -180 -54t-96 26q-46 30 -46 83q0 102 195 218q-57 23 -61 25q-36 22 -36 63q0 114 136 198q116 73 242 81q40 2 93 -24.5t53 -51.5q0 -4 -94 -55q-89 -49 -104 -55q6 21 6 41q0 90 -95 90q-38 0 -78 -31
q-42 -34 -42 -71q0 -62 53 -88q37 -17 143 -30v-9q-88 -16 -156 -59q-89 -55 -89 -129q0 -53 46 -92t101 -39q54 0 105 25q62 31 62 80q0 44 -39 59q-24 9 -76 9q92 55 166 93q58 30 61 29q29 -8 41 -17q25 -19 24 -59z" />
    <glyph glyph-name="F" unicode="F" horiz-adv-x="877" 
d="M716 482q-196 172 -381 172q-69 0 -121 -27q-64 -33 -64 -96q0 -34 18 -51q15 -14 52 -23q-15 -12 -100 -63.5t-88 -50.5q-37 14 -37 96t105 149q86 55 221 89q116 30 196 30q93 0 197 -31q108 -33 179 -86q-87 -52 -177 -108zM597 249h-102v-168l-189 -112v284h-174
l99 138h74v108l193 107v-207h192z" />
    <glyph glyph-name="G" unicode="G" horiz-adv-x="781" 
d="M776 615q0 -22 -171 -139q-165 -114 -204 -127q-42 -14 -122 -11q-8 -27 -7 -60q3 -62 28 -109q30 -61 81 -61q38 0 106 65v133l184 107l1 -384l-185 -99v217q-31 -34 -120 -91q-97 -62 -134 -62q-56 0 -95 53q-35 48 -35 105q0 68 45 184h-155q36 44 72 87q30 34 63 46
q38 13 113 13q-4 0 68 52q83 59 157 96q105 52 183 52q36 0 77 -17q50 -21 50 -50zM601 502q0 42 -39 68q-35 23 -78 23q-40 0 -93 -33q-58 -36 -72 -79l248 1q8 0 21 6.5t13 13.5z" />
    <glyph glyph-name="H" unicode="H" horiz-adv-x="825" 
d="M810 441l-115 -117h-60v-230l-170 -106v336h-127v-233l-177 -105v338h-181l118 117h62v130l176 111v-241h133l-1 128l170 124l-1 -253z" />
    <glyph glyph-name="I" unicode="I" horiz-adv-x="612" 
d="M536 694q-2 -68 0 -362q0 -75 -18 -123q-31 -83 -170 -157q-130 -69 -225 -69q-42 0 -78 14q-46 19 -45 55q78 47 197 106q-10 -27 -10 -42q0 -28 22.5 -54.5t48.5 -26.5q65 0 86 49q12 29 12 104v399q-103 -46 -103 -113q0 -22 16 -37q8 -9 34 -24q-21 -31 -155 -127
q-21 0 -42 22t-21 43q0 82 185 207q161 108 266 136z" />
    <glyph glyph-name="J" unicode="J" horiz-adv-x="700" 
d="M618 535h-76l1 -291q0 -101 -160 -196q-145 -87 -255 -87q-44 0 -81 12q-53 16 -52 48q30 17 85 42q61 26 86 40q3 -96 66 -96q113 0 124 142v179v108l166 99h-329l112 136h414z" />
    <glyph glyph-name="K" unicode="K" horiz-adv-x="951" 
d="M888 565q-109 -68 -201 -110q-12 66 -32 92q-27 37 -87 37q-63 0 -139 -101q126 -358 200 -356q47 0 96 50l10 -10q-53 -55 -106 -111q-74 -71 -127 -72q-47 -1 -96 71q-37 52 -78 149l-50 124l-78 -65v-187l-198 -113v618l198 116l-1 -396q0 -1 68 59l-27 64l151 150
l27 -70q90 96 123 123q80 64 155 65q174 3 192 -127z" />
    <glyph glyph-name="L" unicode="L" horiz-adv-x="809" 
d="M781 233q0 -60 -103 -155q-105 -98 -175 -91q-39 4 -72 40.5t-52 36.5q-6 0 -13 -2l-193 -95l-1 328q-60 -45 -105 -38q-29 4 -61 29q-38 30 -42 64q5 23 55 69q53 50 105 76q-27 -88 -27 -105q0 -73 54 -73q-5 0 22 9q-3 65 22 120q39 85 151 166q117 85 206 85
q33 0 57 -27.5t24 -61.5q0 -98 -139 -187q-58 -37 -139 -69v-274l60 46q40 27 79 27q40 0 82.5 -32t56.5 -34q53 -7 53 60q0 32 -67 75q39 31 115 87q47 -22 47 -74zM465 553q-1 28 -15 51q-17 26 -43 24q-54 -4 -54 -99v-153q113 63 112 177z" />
    <glyph glyph-name="M" unicode="M" horiz-adv-x="1231" 
d="M1213 180q-9 -41 -98.5 -120t-129.5 -79q-63 0 -97 111q-24 81 -24 163q0 173 76 328l-4 2q-46 -28 -137 -90l1 -390l-189 -132l1 508q0 79 -26 77q-33 -3 -52 -46q-18 -39 -20 -97v-311l-186 -141v512q0 94 -68 94q-50 0 -78 -41q-23 -36 -23 -89q0 -66 60 -85
q-22 -19 -179 -144q-17 1 -30 26q-12 21 -12 39q0 81 86 184q79 95 192.5 165t194.5 70q33 0 42 -31q4 -13 4 -58l1 -64q39 45 104 95q80 62 120 62q59 0 59 -96q0 -16 -2 -43.5t-2 -35.5q21 12 158 106q120 82 131 82q8 0 16 -18q-69 -120 -69 -314q0 -86 17 -147
q26 -97 89 -97q24 0 62 48z" />
    <glyph glyph-name="N" unicode="N" horiz-adv-x="1001" 
d="M980 116q-20 -37 -89 -91q-74 -57 -115 -57q-62 0 -119 94q-51 84 -55 154q-2 33 -2 65q0 128 33 226q20 46 40 91q-50 -29 -150 -96l-1 -422l-184 -133v445l-4 128q-11 87 -61 80q-25 -3 -58 -40q-47 -51 -43 -120q3 -46 31 -69q-53 -43 -164 -129q-28 31 -30 57
q0 80 79 174q73 86 178 147.5t182 61.5q46 0 61 -57l12 -92l299 192q16 4 20 -17q-43 -85 -58 -179q-11 -70 -11 -188q0 -75 33 -144q44 -90 120 -87q36 2 43 31q1 1 3 1q12 0 12 -17q0 -5 -2 -9z" />
    <glyph glyph-name="O" unicode="O" horiz-adv-x="763" 
d="M691 440q0 -114 -79 -226q-75 -106 -192 -173q-122 -69 -240 -68q-89 1 -135 55q-43 51 -43 140q0 122 77 247q74 119 191 195q122 80 245 80q56 0 120 -54q-50 -31 -150 -100q5 40 -22.5 69.5t-69.5 29.5q-97 0 -166 -114q-59 -99 -59 -202q0 -101 60.5 -169t158.5 -68
q71 0 126 60t55 131q0 124 -115 171l187 126q51 -43 51 -130z" />
    <glyph glyph-name="P" unicode="P" horiz-adv-x="779" 
d="M714 496q0 -61 -120 -154q-110 -86 -170 -96q-10 -2 -18 -2q-55 0 -72 55q27 22 47 38q49 38 60 39q-4 -26 -4 -34q0 -37 45 -37q30 0 57 30.5t30 61.5q-3 60 -100 114q-83 45 -134 45q-7 0 -10 -1q0 -133 -1 -244q-1 -174 -1 -245l-199 -132v494l185 130q-44 3 -52 3
q-163 0 -266 -49q2 5 9 15q76 120 122 153q44 30 134 30q142 0 275 -44q183 -59 183 -170z" />
    <glyph glyph-name="Q" unicode="Q" horiz-adv-x="804" 
d="M729 58q-54 -59 -97 -86q-57 -35 -123 -35q-28 0 -73.5 21t-71.5 21q-25 0 -55 -14l-40 -22l-8 18q118 75 206 172q116 126 116 231q0 81 -55 160q-59 87 -135 87q-87 0 -166 -109q-73 -102 -73 -191q0 -86 50 -139.5t135 -68.5q-12 -14 -104 -81.5t-103 -67.5
q-56 0 -97 69q-35 60 -35 120q0 97 90 233q87 131 207 224q130 100 229 100q94 0 143 -50q42 -42 42 -110q0 -140 -100 -279q-66 -92 -209 -219l3 -15q29 18 59 35.5t63 17.5q24 0 61.5 -21t55.5 -21q19 0 41 12q19 12 37 24z" />
    <glyph glyph-name="R" unicode="R" horiz-adv-x="753" 
d="M705 104q-29 -35 -88 -80q-69 -53 -102 -53q-44 0 -100 112q-20 40 -66 155q-55 -37 -73 -55q-3 -100 -2 -119q-54 -30 -166 -94q-1 2 -1 216q1 213 1 241q51 34 168 106v-330q22 16 66 49l-26 65q-10 -8 131 106q10 -23 32 -63q9 1 19 21t10 31q0 64 -95 104
q-76 33 -149 33q-66 0 -135 -17q-28 -7 -129 -39l14 24q71 118 122 147q56 32 206 32q91 0 172 -37q102 -47 102 -128q0 -45 -34 -93q-23 -33 -63 -67q-33 -29 -33 -30q13 -50 65 -153q65 -126 97 -110q21 10 49 36z" />
    <glyph glyph-name="S" unicode="S" horiz-adv-x="716" 
d="M665 321q0 -53 -100 -136q-87 -74 -204 -135t-169 -61q-65 0 -119 22q-72 29 -72 85q0 14 73 66q62 43 92 59q5 -155 137 -155q50 0 115 35q74 40 74 84q0 55 -113 71l-208 24q-113 22 -113 92q0 69 150 196q147 125 218 125q36 0 72 -27t56 -27q8 0 22 6q20 8 23 8l1 -8
q-144 -107 -182 -107q-33 0 -73.5 31t-57.5 31q-26 0 -63 -45t-37 -72q0 -44 124 -54l230 -18q124 -21 124 -90z" />
    <glyph glyph-name="T" unicode="T" horiz-adv-x="945" 
d="M913 561q-63 -39 -190 -116q-132 166 -359 166q-71 0 -130 -38q-67 -44 -67 -112q0 -98 77 -125l-185 -112q-59 36 -55 104q5 102 113 189q92 76 234 123q133 43 238 41q85 -2 173.5 -34t150.5 -86zM527 93l-190 -130q-6 328 1 474l190 109z" />
    <glyph glyph-name="U" unicode="U" horiz-adv-x="702" 
d="M674 127q-41 -46 -109 -90q-79 -51 -128 -51q-45 0 -57 30q-5 12 -5 53l-1 135l-136 -130q-96 -86 -147 -86q-37 0 -64 30.5t-27 75.5q0 62 44.5 184.5t44.5 183.5q0 55 -38 87q-27 22 -50 22q175 111 183 111q27 -2 52.5 -44.5t25.5 -72.5q0 -60 -39 -166t-39 -161
q0 -107 64 -107q20 0 75 49t55 69v337l184 100v-516q0 -78 31 -78q10 0 23 8q22 19 58 48v-21z" />
    <glyph glyph-name="V" unicode="V" horiz-adv-x="876" 
d="M895 688q-23 -40 -59 -122q-34 38 -43 38q-63 0 -129 -158q-55 -147 -111 -293q-67 -158 -133 -158q-41 0 -73 39q-30 36 -30 78q0 58 14.5 175.5t14.5 176.5q0 36 -15 73q-20 47 -51 47q-41 0 -71 -48q-27 -42 -27 -85q0 -88 70 -89q-11 -8 -101.5 -58.5t-94.5 -50.5
q-10 0 -18 26q-6 21 -6 35q0 63 75 155q69 86 163 150q98 68 161 68q42 0 63 -62q16 -44 16 -96q0 -48 -13 -144t-13 -145q0 -67 37 -67q27 0 74 140q66 194 98 258q71 139 156 139q10 0 25 -10q19 -12 21 -12z" />
    <glyph glyph-name="W" unicode="W" horiz-adv-x="1232" 
d="M1172 501q0 -91 -67 -194q-52 -79 -151 -174q-79 -71 -158 -143q-46 4 -81 91q-9 20 -39 130q-26 -16 -53 -33q-72 -51 -243 -190q-9 -2 -12 0q-5 2 -3 15q27 38 58 193q29 144 29 208q0 66 -19 110q-26 62 -83 62q-69 0 -130.5 -76.5t-61.5 -147.5q0 -49 16 -91
q21 -56 61 -56q7 0 15 2v-10l-219 -122q-32 18 -32 78q0 100 89 229q85 123 204 210q127 92 228 92q57 0 93 -82q29 -67 29 -133q0 -70 -19 -153.5t-50 -144.5q97 66 263 188q-5 -43 21 -121q29 -85 62 -85q37 0 80 83q38 74 38 116q0 99 -56 153q-51 49 -138 49
q-21 0 -43 -3q94 92 148 138q11 1 21 1q82 0 141 -51q62 -54 62 -138z" />
    <glyph glyph-name="X" unicode="X" horiz-adv-x="922" 
d="M907 592l-97 -126q-34 41 -68 81q-44 44 -93 44q-32 0 -84 -63q-37 -45 -68 -100q77 -135 109 -183q89 -137 134 -137q20 0 29 7q16 12 21 15l6 -11q-111 -130 -153 -130q-54 0 -139 114l-110 164q-52 -70 -104 -141q-111 -135 -176 -135q-34 0 -68 32t-44 66
q34 41 94 129q16 -39 47 -70q36 -37 71 -37q39 0 172 169q-77 138 -116 184q-75 86 -169 86q-12 0 -50 -12q19 24 106 142l28 3q113 0 186 -72q38 -37 116 -168q74 119 104 156q77 93 149 97q48 3 101.5 -30.5t65.5 -73.5z" />
    <glyph glyph-name="Y" unicode="Y" horiz-adv-x="612" 
d="M543 246q0 -49 -1 -63q-3 -32 -12 -66q-28 -99 -167 -237q-149 -147 -249 -148q-40 0 -80 17q-50 22 -49 55v8l182 94q-8 -27 -8 -35q0 -71 50 -71q53 0 100 76q42 69 42 125v174l-17 -21q-56 -50 -113 -100q-76 -63 -124 -63q-42 0 -73 64q-26 53 -26 96q0 56 30 159.5
t30 156.5q0 42 -11 56q-8 10 -44 22q24 31 86 73q84 58 93 65q26 -2 43 -44q15 -33 15 -63q0 -49 -31.5 -142t-31.5 -142q0 -50 20 -92q25 -52 68 -52q44 0 67 43q19 33 17 67v306q83 54 195 123z" />
    <glyph glyph-name="Z" unicode="Z" horiz-adv-x="764" 
d="M722 223q0 -75 -91.5 -154t-182.5 -79q-14 0 -27 2q-57 10 -81 36q-27 28 -55 37q-21 6 -47 6q-55 0 -138 -34q-96 -39 -104 -41l-8 9l289 301q-129 -3 -183 0q26 46 109 147l188 1l165 150v6q-126 -102 -214 -102q-43 0 -100.5 34t-90.5 34q-49 0 -72 -29q-2 3 -9 14
q51 39 103 78q66 46 116 46q40 0 109.5 -34t108.5 -34q38 0 79 26q28 21 57 42l12 -13l-214 -216h140q-33 -46 -119 -153l-148 1q-102 -103 -226 -235q65 39 130 79q77 39 148 39q17 0 34 -2q37 -4 79 -36.5t79 -35.5q20 -2 34 -2q74 0 91 56q3 12 3 25q0 36 -26 62.5
t-56 26.5q-11 0 -19 -4q-15 -5 -31 -10q-17 -8 -27 -23l-10 9q52 68 114 68q38 0 64.5 -28t26.5 -70z" />
    <glyph glyph-name="bracketleft" unicode="[" horiz-adv-x="196" 
d="M128 -53h65v-50l-137 -1v881h138v-50h-64q-8 -3 -3 -3z" />
    <glyph glyph-name="backslash" unicode="\" horiz-adv-x="430" 
d="M394 -1h-61l-321 708h57z" />
    <glyph glyph-name="bracketright" unicode="]" horiz-adv-x="262" 
d="M121 -53l-65 1l1 -51h137l-1 880h-137v-49l63 -1q7 -3 3 -3z" />
    <glyph glyph-name="asciicircum" unicode="^" horiz-adv-x="702" 
d="M442 727l-14 -15l-128 60l-141 -57l-7 21l143 125z" />
    <glyph glyph-name="underscore" unicode="_" horiz-adv-x="501" 
d="M-1 -86h505v-46h-505v46z" />
    <glyph glyph-name="grave" unicode="`" horiz-adv-x="380" 
d="M131 881q-19 6 -38.5 -15.5t-19.5 -44.5q0 -12 7 -18l209 -99q22 3 22 17q0 7 -7 13z" />
    <glyph glyph-name="a" unicode="a" horiz-adv-x="568" 
d="M537 412q1 -5 -157 -84q-5 25 -25.5 41t-45.5 16q-57 0 -103 -58.5t-46 -116.5q-1 -36 13 -60q16 -29 44 -29q71 0 105 136q71 33 163 79v-183q0 -40 17 -40q3 0 33 26v-16q-42 -59 -65 -80q-51 -46 -114 -46q-34 0 -41 23q-1 13 -2 25v119l-14 -20q-43 -47 -110 -95
q-78 -55 -117 -55q-75 0 -75 89q0 64 84 160q77 87 182.5 156t170.5 71q35 2 66 -14t37 -44z" />
    <glyph glyph-name="b" unicode="b" horiz-adv-x="535" 
d="M488 352q0 -68 -79 -157q-72 -81 -173.5 -142t-164.5 -61q-66 0 -66 111l-1 478l174 98l1 -339q19 33 94.5 82.5t110.5 49.5q47 0 77 -37q27 -35 27 -83zM334 260q0 42 -16 72q-19 37 -56 36q-46 -1 -70 -43q-19 -35 -21 -88q-3 -157 53 -157q50 0 82 67q28 56 28 113z
" />
    <glyph glyph-name="c" unicode="c" horiz-adv-x="439" 
d="M413 383q9 -27 -132 -93q-1 20 -8 59q-8 23 -25 43q-21 23 -42 23q-47 0 -73.5 -39.5t-26.5 -105.5q0 -27 5 -57q16 -99 113 -99q17 0 37 3q38 7 70 24q0 -43 -20 -79q-43 -78 -161 -78q-46 0 -82 29.5t-46 69.5q-6 26 -6 55q0 116 85 226t185 110q37 0 76 -27.5
t51 -63.5z" />
    <glyph glyph-name="d" unicode="d" horiz-adv-x="671" 
d="M623 131q-14 -31 -86.5 -85.5t-103.5 -54.5q-44 0 -54 86q-2 63 -3 125q-221 -211 -299 -211q-33 0 -55 27t-22 61q0 59 59.5 155t136.5 162q84 73 145 66q8 -1 37 -8q-1 17 -1 27l1 91l173 113l1 -507q0 -61 30 -60q13 5 41 13zM377 244v164q-2 -2 -41 -37
q-33 -31 -37 -31q-9 0 -15.5 27t-35.5 27q-42 0 -78 -53q-34 -49 -34 -93q0 -46 22 -84q26 -46 68 -46q23 0 87 51.5t64 74.5z" />
    <glyph glyph-name="e" unicode="e" horiz-adv-x="494" 
d="M445 411q0 -66 -97 -146q-73 -61 -158 -99l-1 -4q0 -16 51 -37q47 -19 67 -19q30 0 72 42l7 -10q-6 -26 -111 -92.5t-139 -66.5q-49 0 -83 43q-32 39 -32 89q0 109 119.5 237.5t227.5 128.5q28 0 52.5 -19.5t24.5 -46.5zM265 418q-47 0 -83 -63q-32 -56 -32 -107
q0 -15 8.5 -37.5t17.5 -31.5q44 4 86.5 57t42.5 98q0 84 -40 84z" />
    <glyph glyph-name="f" unicode="f" horiz-adv-x="493" 
d="M601 596q-92 -67 -158 -104q20 64 20 78q0 71 -49 69q-80 -3 -94 -152v-117l142 -1l-100 -126h-42v-165l-166 -88v251h-156l115 126h40q-2 66 6 82q43 86 156 159q117 74 216 74q32 0 53 -27.5t17 -58.5z" />
    <glyph glyph-name="g" unicode="g" horiz-adv-x="585" 
d="M557 197l-62 -28q0 -78 -47 -173q-51 -101 -130 -165q-91 -74 -193 -74q-58 0 -58 48q0 85 252 264v85q-11 -20 -13 -17q-50 -47 -115 -88q-85 -54 -131 -54q-62 0 -62 83q0 133 123 263q128 136 277 139q30 0 63 -20q37 -22 42 -51q-49 -27 -144 -74q-31 78 -88 78
q-67 0 -112 -75q-35 -59 -35 -112q0 -35 25 -69q29 -39 68 -43q42 -4 76.5 38.5t34.5 104.5q0 2 70 37q88 43 97 48v-158l57 28zM321 45q-54 -25 -94 -83q-35 -51 -36 -86q-2 -25 5 -46q10 -28 33 -24q93 17 93 182v35q-1 19 -1 22z" />
    <glyph glyph-name="h" unicode="h" horiz-adv-x="562" 
d="M536 100q-125 -114 -178 -114q-33 0 -62 38q-19 25 -38 69q-17 37 -18 37l-103.5 -72.5t-108.5 -72.5v357q-6 80 67 169q64 77 161 134q94 55 155 55q38 0 59 -27q18 -25 18 -63q0 -75 -93 -163q-64 -60 -158 -114q-7 -4 -28 -10q-12 -4 -12 -10q0 -187 1 -187
q34 19 96 69q84 69 116 92q-1 -8 -1 -17q0 -57 32 -108q37 -59 95 -62zM327 553q0 74 -51 74q-41 0 -62 -51q-15 -35 -15 -68l1 -169q53 13 92 88q35 67 35 126z" />
    <glyph glyph-name="i" unicode="i" horiz-adv-x="310" 
d="M252 614q-110 -90 -177 -90q-21 0 -44.5 22t-23.5 44q0 14 67 52q44 23 87 46q13 -72 67 -72q21 0 24 -2zM290 110q0 -7 -45 -44q-95 -77 -147 -77q-70 0 -67 114q2 82 -2 274l171 99v-346q0 -46 29 -46q8 0 27 15q26 20 27 21q7 -7 7 -10z" />
    <glyph glyph-name="j" unicode="j" horiz-adv-x="559" 
d="M531 243q-31 -19 -87 -55q-2 -1 -4 -76q-3 -84 -19 -124q-34 -83 -159 -187q-128 -107 -202 -107q-57 0 -57 59q0 62 98 169q84 91 163 141q1 162 0 321l181 100l-1 -270l86 51zM263 35q-48 -23 -87 -80t-39 -105q0 -74 46 -74q61 0 75 116q2 71 5 143zM490 614
q-110 -90 -177 -90q-20 0 -44 22t-24 44q0 14 67 52q44 23 87 46q14 -72 68 -72q20 0 23 -2z" />
    <glyph glyph-name="k" unicode="k" horiz-adv-x="566" 
d="M521 597q0 -22 -21 -53l-32 -42q-52 -40 -96 -72q-104 -75 -142 -94q-23 -10 -61 -26v-101q41 41 94 82q80 63 116 63q33 0 58.5 -25t25.5 -56q0 -41 -115 -117q51 -44 127 -44q2 0 14 1t24 1q-40 -40 -85 -75q-66 -50 -98 -50q-34 0 -80 25q-58 31 -58 73q0 4 51.5 55.5
t51.5 69.5q0 25 -32 25q-43 0 -72.5 -41t-24.5 -104q-47 -37 -160 -107v354q0 79 85 162q71 69 176 120q98 48 151 48q103 0 103 -72zM346 527q0 26 -10 45q-12 25 -36 25q-7 0 -15 -2q-116 -37 -116 -180v-82q27 0 100 73q77 78 77 121z" />
    <glyph glyph-name="l" unicode="l" horiz-adv-x="561" 
d="M667 611q0 -69 -88 -150q-65 -59 -162 -113q-40 -17 -81 -35q-55 -25 -55 -38q0 -68 60 -119q55 -47 113 -47q29 0 50.5 10t31.5 11q-50 -49 -126 -98q-94 -59 -147 -59q-73 0 -127 64q-50 60 -50 127q0 13 6.5 43.5t6.5 34.5v17q2 -1 -35 -1q-12 0 -32.5 7t-23.5 12
q-1 3 3.5 7.5t9.5 4.5q4 0 30 -5t28.5 -5t9.5 -1q6 -1 9 0q5 1 7 4q61 144 190 272q146 145 267 145q39 0 71 -24q34 -27 34 -64zM494 559q0 29 -20.5 48t-49.5 19q-61 0 -109 -133q-37 -104 -37 -151q0 -20 7 -26q64 9 136.5 93t72.5 150z" />
    <glyph glyph-name="m" unicode="m" horiz-adv-x="1000" 
d="M959 96q-51 -46 -103 -91q-57 -48 -104 -48q-110 0 -110 199q0 22 1 47q1 14 1 19q1 0 -122.5 -121t-144.5 -128h-14v171q-2 22 -8 72q-44 -30 -154 -143q-91 -92 -116 -91q56 147 56 235q0 57 -29 101q-35 52 -97 52q-9 0 -19 -2q10 11 92 68q90 62 108 62q59 0 88 -47
q21 -37 21 -92q0 -61 -37 -137q-16 -34 -72 -125q57 34 352 377q0 -17 -4 -75q-5 -62 -5 -60l12 -169q53 29 137 132q138 166 148 178q-8 -53 -17 -105q-12 -73 -12 -123q0 -44 20 -89q30 -63 85 -63q29 0 47 -4z" />
    <glyph glyph-name="n" unicode="n" horiz-adv-x="666" 
d="M638 137q-23 -45 -85 -102q-70 -65 -109 -65q-94 0 -94 197q0 47 3 56l-267 -265q12 41 24 81q18 72 18 140q0 35 -7 75q-6 32 -41 59.5t-69 28.5q-14 0 -14 10q185 138 195 138q44 0 78 -49q31 -43 31 -83q0 -62 -27 -126q-25 -53 -50 -105q69 49 183 178l150 176h14
q-48 -106 -48 -193q0 -42 14 -86q22 -67 68 -67q3 0 15 1t18 1z" />
    <glyph glyph-name="o" unicode="o" horiz-adv-x="565" 
d="M520 258q0 -57 -93 -130q-76 -59 -186 -110q-100 -47 -135 -47q-48 0 -81 29.5t-33 78.5q0 77 66 177q64 96 157 163q99 71 182 71q11 0 16 -1q52 -12 64 -36q5 -11 4 -20q-48 -37 -127 -88q3 34 -11 52q-11 15 -23 23q-15 10 -32 10q-64 0 -104 -79q-31 -63 -31 -122
q0 -62 48 -104q44 -39 98 -39q27 0 46 13q23 15 23 43q0 18 -7 33q-9 19 -31 27q-37 13 -38 13q18 21 50 45l52 38q14 11 42 30q4 1 10 1q28 0 51 -22t23 -49z" />
    <glyph glyph-name="p" unicode="p" horiz-adv-x="651" 
d="M588 396q0 -56 -56 -113q-29 -29 -104 -83q-56 -40 -56 -55q0 -28 27.5 -51t54.5 -23q41 0 96 48l17 -4q-173 -138 -255 -138q-36 0 -69 37q-28 33 -28 59q0 30 50 53q86 39 94 45q51 34 51 93q0 51 -34 83t-81 32q-32 0 -62 -18q-34 -21 -36 -51q-3 -38 -2 -64
q0 -18 2.5 -30.5l2.5 -12.5q0 -4 -3 -41.5t-3 -40.5v-155q0 -30 -8 -36q-34 -30 -101 -73q-62 -40 -69 -40q-4 0 -7 1.5t-4 1.5l8 300q0 -8 4 100.5t3 160.5q34 22 176 114q8 -8 8 -23q0 -7 -2 -20t-2 -18v-67q1 0 3 -1.5t6 -1.5q10 0 56 37q61 46 96 67q62 36 110 36
q42 0 79.5 -31.5t37.5 -76.5z" />
    <glyph glyph-name="q" unicode="q" horiz-adv-x="651" 
d="M636 -139q-6 -22 -88 -69q-85 -48 -129 -48q-34 0 -56 24t-22 58v85l1.5 26.5t1.5 38.5l-3 149q-66 -43 -131 -86q-91 -58 -130 -58q-42 0 -63 32q-17 26 -17 64q0 81 76 179q70 91 171.5 156.5t177.5 65.5q36 0 72 -16q50 -22 54 -63q-58 -39 -164 -107h-14q15 68 15 63
q0 29 -30 47q-23 14 -49 14q-70 0 -112 -72q-34 -57 -34 -112q0 -38 24 -76q28 -45 71 -45q49 0 87 44q1 20 6 62q27 9 85 44q62 39 99 54l-8 -357q-6 -26 -6 -45q0 -21 12 -46q16 -34 43 -34q4 0 60 28zM100 237v5h-11v-5h11z" />
    <glyph glyph-name="r" unicode="r" horiz-adv-x="605" 
d="M603 470q-120 -109 -134 -125q-58 -64 -58 -127q0 -43 25 -67t64 -24q21 0 85 33q-3 -13 -28 -31q-20 -15 -40 -29q-54 -44 -111 -76q-68 -39 -106 -39h-25q-32 0 -50 22q-15 18 -15 45q0 85 153 234q115 111 227 184h13zM532 464q-45 -44 -91 -87q-57 -52 -107 -77
q-64 -32 -133 -29q-10 0 -208 -250l-33 15q86 93 218 241q-81 47 -81 77q0 7 88.5 63.5t126.5 73.5q4 -7 4 -25q0 -31 26 -47q21 -13 47 -13q27 0 75 23q34 18 68 35z" />
    <glyph glyph-name="s" unicode="s" horiz-adv-x="598" 
d="M561 261q0 -59 -81 -130q-68 -57 -166 -104q-91 -43 -130 -43q-20 0 -51 13q-39 16 -39 37q0 11 76 63q92 63 93 65h14q1 -4 1 -8q0 -7 -5 -19.5t-5 -17.5q0 -23 17 -39.5t37 -16.5q28 0 59.5 29t31.5 53q0 38 -82 68q-46 12 -92 25l-283 -244q-2 2 -24 5t-22 4l290 244
q-28 7 -46 39q-16 28 -16 58q0 61 96 132q86 63 137 67q2 -2 5 -4t5 -4l-34 -32q-19 -21 -19 -36q0 -37 60 -73q57 -29 113 -58q60 -36 60 -73z" />
    <glyph glyph-name="t" unicode="t" horiz-adv-x="514" 
d="M489 466q-19 -35 -52 -74q-41 -49 -49 -60q-22 -2 -72 -8q-1 -20 -6 -65t-5 -66q0 -109 56 -109q14 0 26 7q16 9 34 14q-16 -31 -89 -77t-107 -46q-93 0 -93 106v116q0 13 3 40.5t3 42.5q0 23 -6 41q9 0 -114 0q-7 0 -14 6v13q28 38 92 117q4 5 20 8q20 5 27 8v73
q0 17 169 90q7 -17 7 -52q0 -20 -3 -58q-3 -42 -3 -56q7 -3 19 -7z" />
    <glyph glyph-name="u" unicode="u" horiz-adv-x="601" 
d="M575 114q-4 -24 -79 -75q-79 -53 -118 -52q-72 4 -72 67q0 10 2 34t1 36q-160 -137 -237 -137q-60 0 -63 118l2 285l169 85l-1 -340q0 -16 12.5 -29t26.5 -13q3 0 6 1q74 29 82 68q4 19 0 222l170 94q1 -113 1 -313q0 -48 1 -49q3 -31 23 -31q8 0 18 5q14 6 17 8
q11 6 28 26q2 0 4.5 -5.5t6.5 -4.5z" />
    <glyph glyph-name="v" unicode="v" horiz-adv-x="763" 
d="M799 409q0 -18 -153 -122q-15 62 -72 62q-42 0 -200 -173q-85 -96 -170 -193q-12 9 -12 38q1 85 -22 183q-41 171 -136 171q-2 0 -47 -5q9 17 97 63q83 44 93 44q108 0 177 -292q4 0 71 72q81 87 136 134q86 72 135 72q20 0 56 -15q47 -17 47 -39z" />
    <glyph glyph-name="w" unicode="w" horiz-adv-x="956" 
d="M956 431q-51 -51 -134 -96q-70 -38 -128 -55q-8 -2 -58 -69q-17 -25 -59 -73q-126 -124 -186 -146q-18 -6 -36 -6q-41 0 -57 34q-10 22 -13 69.5t-9 58.5q-50 -48 -101 -96q-75 -63 -124 -63q-18 0 -36 15.5t-18 31.5v347l166 85h15l6 -9l-11 -300q0 -42 31 -42
q15 0 73 56q7 6 8 22q0 11 -1 22q1 10 0 92q-1 56 6 90q1 3 43 25q46 23 55 27q37 18 65 24l-2 -252q0 -118 46 -118q21 0 92 79q69 76 69 93q0 6 -25 19q-33 16 -48 30q-26 24 -26 56q0 -7 4 20q5 8 11 11q26 12 102 50q63 31 66 31h12q1 -4 1 -47q0 -11 17.5 -31.5
t29.5 -23.5q27 -6 36 -6q22 0 60 15q1 0 27 18q20 13 31 12z" />
    <glyph glyph-name="x" unicode="x" horiz-adv-x="759" 
d="M733 432q-23 -15 -116 -85q-8 -1 -13 13q-8 22 -12 28q-12 15 -48 15q-16 0 -58 -19q-53 -24 -53 -51q0 -28 58 -121q66 -104 114 -110l6 -4q-41 -33 -83 -67q-52 -40 -87 -40q-40 0 -75 45q-8 11 -54 86h-8q-47 -40 -93 -80q-64 -51 -97 -51q-28 0 -64 14q-51 20 -51 54
q0 13 74 72q72 56 81 56q6 0 13 -18q9 -24 18 -35q17 -18 48 -18q17 0 38 9q28 12 28 31q0 46 -58.5 127t-100.5 81q-8 0 -14 -4q-7 -3 -27 10q6 9 71 57q70 51 85 51q38 0 89 -38q47 -35 82 -84q54 47 109 94q58 44 104 44q29 0 55 -12q37 -17 39 -50z" />
    <glyph glyph-name="y" unicode="y" horiz-adv-x="692" 
d="M679 165l-99 -60q-2 -20 -7 -69q-7 -89 -99 -194q-85 -96 -202 -164q-120 -69 -205 -69q-74 0 -74 63q0 150 386 378q4 2 6 34q1 30 -2 47q-67 -49 -135 -98q-83 -55 -133 -52q-56 3 -56 98q0 12 1 25.5l1 13.5v296q41 26 193 86l-1 -303q-1 -94 31 -94q23 0 56 33
q30 30 39 55v228l197 81v-365q33 22 99 60zM379 -45q0 -9 2 32q1 26 -2 28q-101 -59 -141 -99q-51 -54 -51 -122q0 -32 14 -60q18 -34 50 -31q70 7 105 122q23 73 23 130z" />
    <glyph glyph-name="z" unicode="z" horiz-adv-x="614" 
d="M562 136q-29 -38 -113 -100q-98 -72 -141 -72q-41 0 -103 56.5t-100 56.5q-9 0 -68 -31t-76 -27q69 60 218 200q140 132 237 215q-66 -33 -132 -67q-107 -53 -179 -53q-35 0 -70 22q-43 28 -44 75q46 22 91 44q58 27 95 34q17 -31 35.5 -43.5t51.5 -12.5q58 0 123 24
q43 16 94 44q43 24 46 24q4 0 23 -32q9 -18 19 -35l-475 -354q41 18 83 36q73 31 92 31q46 0 100 -42.5t84 -42.5q19 0 54 20z" />
    <glyph glyph-name="braceleft" unicode="{" horiz-adv-x="419" 
d="M371 802v-38q-55 -12 -84 -31q-49 -31 -54 -118q-3 -78 -7 -156q-15 -89 -91 -129q-36 -19 -90 -36q81 -21 132 -70q37 -36 47 -99q5 -30 5 -111q0 -84 12 -113.5t53 -53.5q32 -19 77 -22v-39q-47 0 -100 16q-73 22 -101 78q-20 41 -20 117q0 14 1 44t1 44q0 80 -25 120
q-34 54 -123 65v52q55 8 85 23q40 21 54 70q9 35 9 104v22.5v22.5q0 114 32 164q48 74 187 74z" />
    <glyph glyph-name="bar" unicode="|" horiz-adv-x="222" 
d="M120 -119h-49v921h49v-921z" />
    <glyph glyph-name="braceright" unicode="}" horiz-adv-x="419" 
d="M4 802v-38q55 -12 84 -31q49 -31 54 -118q3 -78 7 -156q16 -89 91 -129q36 -19 90 -36q-81 -21 -132 -70q-37 -36 -47 -99q-5 -30 -5 -111q0 -84 -12 -113.5t-53 -53.5q-32 -19 -77 -22v-39q47 0 100 16q73 22 101 78q20 41 20 117q0 14 -1 44v44q0 80 24 120
q34 54 123 65v52q-55 8 -85 23q-40 21 -54 70q-9 35 -9 104v22.5v22.5q0 114 -32 164q-48 74 -187 74z" />
    <glyph glyph-name="asciitilde" unicode="~" horiz-adv-x="451" 
d="M404 811q-45 -94 -116 -94q-30 0 -86 23.5t-86 23.5q-58 0 -89 -38q-4 1 -15 8q42 98 137 98q28 0 78 -22t75 -22q44 0 80 30z" />
    <glyph glyph-name="Adieresis" unicode="&#xc4;" horiz-adv-x="802" 
d="M757 138q0 -16 -113 -85t-138 -69q-70 0 -70 157q0 13 1 33t1 26q-107 -102 -146 -132q-101 -78 -172 -78q-58 0 -89 41q-28 36 -28 96q0 112 99 247q94 127 229 215q141 92 253 92q27 0 60.5 -20t34.5 -45q-43 -26 -85 -52q-51 -30 -88 -45q-8 32 -32.5 53t-56.5 21
q-103 0 -177 -124q-66 -109 -66 -218q0 -50 22 -84q26 -41 73 -41q38 0 94 44q50 39 74 77l-1 103l2 42q115 63 190 98l-2 -153q0 -3 -1 -34q-1 -27 -1 -48q0 -150 51 -150q26 0 72 53zM274 792q0 24 17.5 41.5t41.5 17.5t42 -17.5t18 -41.5q0 -25 -17.5 -42t-42.5 -17
t-42 17t-17 42zM484 792q0 24 17.5 41.5t41.5 17.5t42 -17.5t18 -41.5q0 -25 -17.5 -42t-42.5 -17t-42 17t-17 42z" />
    <glyph glyph-name="Aring" unicode="&#xc5;" horiz-adv-x="802" 
d="M757 138q0 -16 -113 -85t-138 -69q-70 0 -70 157q0 13 1 33t1 26q-107 -102 -146 -132q-101 -78 -172 -78q-58 0 -89 41q-28 36 -28 96q0 112 99 247q94 127 229 215q141 92 253 92q27 0 60.5 -20t34.5 -45q-43 -26 -85 -52q-51 -30 -88 -45q-8 32 -32.5 53t-56.5 21
q-103 0 -177 -124q-66 -109 -66 -218q0 -50 22 -84q26 -41 73 -41q38 0 94 44q50 39 74 77l-1 103l2 42q115 63 190 98l-2 -153q0 -3 -1 -34q-1 -27 -1 -48q0 -150 51 -150q26 0 72 53zM402 904q43 0 73.5 -29.5t30.5 -72.5t-30.5 -72.5t-73.5 -29.5t-73 29.5t-30 72.5
q0 42 30.5 72t72.5 30zM402 864q-26 0 -44.5 -18t-18.5 -44t18.5 -44t44.5 -18q27 0 45.5 17.5t18.5 44.5q0 26 -19 44t-45 18z" />
    <glyph glyph-name="Ccedilla" unicode="&#xc7;" horiz-adv-x="565" 
d="M310 -115q0 -39 -41 -60q-33 -17 -77 -17q-42 0 -80 16l15 38q32 -13 53 -13q16 0 29 9t13 23q0 28 -31 28q-12 0 -23 -3l1 20l26 54q-94 8 -148 82q-48 68 -48 164q0 165 116 308q121 150 274 150q129 0 154 -90q11 -77 -104 -155q-102 -69 -170 -69t-92 35
q40 30 122 87l3 -26q1 -13 26 -25q21 -9 37 -9q50 0 50 64q0 54 -42.5 92t-96.5 36q-73 -2 -126 -93q-50 -87 -46 -184q4 -112 78 -172q65 -54 167 -54q49 0 87 25q11 8 66 59q2 -2 15 -10q-87 -82 -140 -125q-108 -87 -157 -91l-15 -34q26 4 35 4q29 0 49.5 -17.5
t20.5 -46.5z" />
    <glyph glyph-name="Eacute" unicode="&#xc9;" horiz-adv-x="680" 
d="M661 299q-1 -55 -111 -133q-94 -67 -224 -123q-125 -54 -180 -54t-96 26q-46 30 -46 83q0 102 195 218q-57 23 -61 25q-36 22 -36 63q0 114 136 198q116 73 242 81q40 2 93 -24.5t53 -51.5q0 -4 -94 -55q-89 -49 -104 -55q6 21 6 41q0 90 -95 90q-38 0 -78 -31
q-42 -34 -42 -71q0 -62 53 -88q37 -17 143 -30v-9q-88 -16 -156 -59q-89 -55 -89 -129q0 -53 46 -92t101 -39q54 0 105 25q62 31 62 80q0 44 -39 59q-24 9 -76 9q92 55 166 93q58 30 61 29q29 -8 41 -17q25 -19 24 -59zM446 871q19 6 38.5 -15.5t19.5 -44.5q0 -12 -7 -18
l-209 -99q-22 3 -22 17q0 7 7 13z" />
    <glyph glyph-name="Ntilde" unicode="&#xd1;" horiz-adv-x="1001" 
d="M980 116q-20 -37 -89 -91q-74 -57 -115 -57q-62 0 -119 94q-51 84 -55 154q-2 33 -2 65q0 128 33 226q20 46 40 91q-50 -29 -150 -96l-1 -422l-184 -133v445l-4 128q-11 87 -61 80q-25 -3 -58 -40q-47 -51 -43 -120q3 -46 31 -69q-53 -43 -164 -129q-28 31 -30 57
q0 80 79 174q73 86 178 147.5t182 61.5q46 0 61 -57l12 -92l299 192q16 4 20 -17q-43 -85 -58 -179q-11 -70 -11 -188q0 -75 33 -144q44 -90 120 -87q36 2 43 31q1 1 3 1q12 0 12 -17q0 -5 -2 -9zM754 811q-45 -94 -116 -94q-30 0 -86 23.5t-86 23.5q-58 0 -89 -38
q-4 1 -15 8q42 98 137 98q28 0 78 -22t75 -22q44 0 80 30z" />
    <glyph glyph-name="Odieresis" unicode="&#xd6;" horiz-adv-x="763" 
d="M691 440q0 -114 -79 -226q-75 -106 -192 -173q-122 -69 -240 -68q-89 1 -135 55q-43 51 -43 140q0 122 77 247q74 119 191 195q122 80 245 80q56 0 120 -54q-50 -31 -150 -100q5 40 -22.5 69.5t-69.5 29.5q-97 0 -166 -114q-59 -99 -59 -202q0 -101 60.5 -169t158.5 -68
q71 0 126 60t55 131q0 124 -115 171l187 126q51 -43 51 -130zM274 792q0 24 17.5 41.5t41.5 17.5t42 -17.5t18 -41.5q0 -25 -17.5 -42t-42.5 -17t-42 17t-17 42zM484 792q0 24 17.5 41.5t41.5 17.5t42 -17.5t18 -41.5q0 -25 -17.5 -42t-42.5 -17t-42 17t-17 42z" />
    <glyph glyph-name="Udieresis" unicode="&#xdc;" horiz-adv-x="702" 
d="M674 127q-41 -46 -109 -90q-79 -51 -128 -51q-45 0 -57 30q-5 12 -5 53l-1 135l-136 -130q-96 -86 -147 -86q-37 0 -64 30.5t-27 75.5q0 62 44.5 184.5t44.5 183.5q0 55 -38 87q-27 22 -50 22q175 111 183 111q27 -2 52.5 -44.5t25.5 -72.5q0 -60 -39 -166t-39 -161
q0 -107 64 -107q20 0 75 49t55 69v337l183 100l1 -516q0 -78 31 -78q10 0 23 8q22 19 58 48v-21zM144 792q0 24 17.5 41.5t41.5 17.5t42 -17.5t18 -41.5q0 -25 -17.5 -42t-42.5 -17t-42 17t-17 42zM354 792q0 24 17.5 41.5t41.5 17.5t42 -17.5t18 -41.5q0 -25 -17.5 -42
t-42.5 -17t-42 17t-17 42z" />
    <glyph glyph-name="aacute" unicode="&#xe1;" horiz-adv-x="603" 
d="M537 412q1 -5 -157 -84q-5 25 -25.5 41t-45.5 16q-57 0 -103 -58.5t-46 -116.5q-1 -36 13 -60q16 -29 44 -29q71 0 105 136q71 33 163 79v-183q0 -40 17 -40q3 0 33 26v-16q-42 -59 -65 -80q-51 -46 -114 -46q-34 0 -41 23q-1 13 -2 25v119l-14 -20q-43 -47 -110 -95
q-78 -55 -117 -55q-75 0 -75 89q0 64 84 160q77 87 182.5 156t170.5 71q35 2 66 -14t37 -44zM391 661q19 6 38.5 -16t19.5 -44q0 -12 -7 -18l-209 -99q-22 3 -22 17q0 7 7 13z" />
    <glyph glyph-name="agrave" unicode="&#xe0;" horiz-adv-x="603" 
d="M537 412q1 -5 -157 -84q-5 25 -25.5 41t-45.5 16q-57 0 -103 -58.5t-46 -116.5q-1 -36 13 -60q16 -29 44 -29q71 0 105 136q71 33 163 79v-183q0 -40 17 -40q3 0 33 26v-16q-42 -59 -65 -80q-51 -46 -114 -46q-34 0 -41 23q-1 13 -2 25v119l-14 -20q-43 -47 -110 -95
q-78 -55 -117 -55q-75 0 -75 89q0 64 84 160q77 87 182.5 156t170.5 71q35 2 66 -14t37 -44zM286 681q-19 6 -38.5 -15.5t-19.5 -44.5q0 -12 7 -18l209 -99q22 3 22 17q0 7 -7 13z" />
    <glyph glyph-name="acircumflex" unicode="&#xe2;" horiz-adv-x="603" 
d="M537 412q1 -5 -157 -84q-5 25 -25.5 41t-45.5 16q-57 0 -103 -58.5t-46 -116.5q-1 -36 13 -60q16 -29 44 -29q71 0 105 136q71 33 163 79v-183q0 -40 17 -40q3 0 33 26v-16q-42 -59 -65 -80q-51 -46 -114 -46q-34 0 -41 23q-1 13 -2 25v119l-14 -20q-43 -47 -110 -95
q-78 -55 -117 -55q-75 0 -75 89q0 64 84 160q77 87 182.5 156t170.5 71q35 2 66 -14t37 -44zM483 515l-14 -16l-128 60l-141 -57l-4 19l140 127z" />
    <glyph glyph-name="adieresis" unicode="&#xe4;" horiz-adv-x="603" 
d="M537 412q1 -5 -157 -84q-5 25 -25.5 41t-45.5 16q-57 0 -103 -58.5t-46 -116.5q-1 -36 13 -60q16 -29 44 -29q71 0 105 136q71 33 163 79v-183q0 -40 17 -40q3 0 33 26v-16q-42 -59 -65 -80q-51 -46 -114 -46q-34 0 -41 23q-1 13 -2 25v119l-14 -20q-43 -47 -110 -95
q-78 -55 -117 -55q-75 0 -75 89q0 64 84 160q77 87 182.5 156t170.5 71q35 2 66 -14t37 -44zM154 572q0 24 17.5 41.5t41.5 17.5t42 -17.5t18 -41.5q0 -25 -17.5 -42t-42.5 -17t-42 17t-17 42zM364 572q0 24 17.5 41.5t41.5 17.5t42 -17.5t18 -41.5q0 -25 -17.5 -42
t-42.5 -17t-42 17t-17 42z" />
    <glyph glyph-name="atilde" unicode="&#xe3;" horiz-adv-x="603" 
d="M537 412q1 -5 -157 -84q-5 25 -25.5 41t-45.5 16q-57 0 -103 -58.5t-46 -116.5q-1 -36 13 -60q16 -29 44 -29q71 0 105 136q71 33 163 79v-183q0 -40 17 -40q3 0 33 26v-16q-42 -59 -65 -80q-51 -46 -114 -46q-34 0 -41 23q-1 13 -2 25v119l-14 -20q-43 -47 -110 -95
q-78 -55 -117 -55q-75 0 -75 89q0 64 84 160q77 87 182.5 156t170.5 71q35 2 66 -14t37 -44zM495 607q-45 -94 -116 -94q-30 0 -86 23.5t-86 23.5q-59 0 -89 -38q-4 1 -15 8q42 98 137 98q28 0 77.5 -22t75.5 -22q43 0 80 30z" />
    <glyph glyph-name="aring" unicode="&#xe5;" horiz-adv-x="603" 
d="M537 412q1 -5 -157 -84q-5 25 -25.5 41t-45.5 16q-57 0 -103 -58.5t-46 -116.5q-1 -36 13 -60q16 -29 44 -29q71 0 105 136q71 33 163 79v-183q0 -40 17 -40q3 0 33 26v-16q-42 -59 -65 -80q-51 -46 -114 -46q-34 0 -41 23q-1 13 -2 25v119l-14 -20q-43 -47 -110 -95
q-78 -55 -117 -55q-75 0 -75 89q0 64 84 160q77 87 182.5 156t170.5 71q35 2 66 -14t37 -44zM332 705q43 0 73.5 -29.5t30.5 -72.5t-30 -72.5t-74 -29.5q-43 0 -73 29.5t-30 72.5q0 42 30.5 72t72.5 30zM332 665q-25 0 -44 -18t-19 -44t18.5 -44t44.5 -18q27 0 45.5 18
t18.5 44t-19 44t-45 18z" />
    <glyph glyph-name="ccedilla" unicode="&#xe7;" horiz-adv-x="425" 
d="M224 -91q0 -32 -33 -49q-26 -13 -61 -13q-34 0 -65 13l12 30q26 -10 43 -10q34 0 34 25q0 23 -26 23q-9 0 -18 -3l1 16l21 44q-45 1 -79.5 30t-44.5 68q-6 26 -6 55q0 116 85 226t185 110q37 0 76 -27.5t51 -63.5q9 -27 -133 -93q0 20 -7 59q-8 23 -25 43q-21 23 -42 23
q-47 0 -73.5 -39.5t-26.5 -105.5q0 -27 5 -57q16 -99 113 -99q17 0 37 3q38 7 70 24q0 -41 -18 -76q-40 -75 -147 -80l-12 -29q20 4 28 4q23 0 39.5 -14t16.5 -37z" />
    <glyph glyph-name="eacute" unicode="&#xe9;" horiz-adv-x="494" 
d="M445 411q0 -66 -97 -146q-73 -61 -158 -99l-1 -4q0 -16 51 -37q47 -19 67 -19q30 0 72 42l7 -10q-6 -26 -111 -92.5t-139 -66.5q-49 0 -83 43q-32 39 -32 89q0 109 119.5 237.5t227.5 128.5q28 0 52.5 -19.5t24.5 -46.5zM265 418q-47 0 -83 -63q-32 -56 -32 -107
q0 -15 8.5 -37.5t17.5 -31.5q44 4 86.5 57t42.5 98q0 84 -40 84zM361 661q19 6 38.5 -16t19.5 -44q0 -12 -7 -18l-209 -99q-22 3 -22 17q0 7 7 13z" />
    <glyph glyph-name="egrave" unicode="&#xe8;" horiz-adv-x="494" 
d="M445 411q0 -66 -97 -146q-73 -61 -158 -99l-1 -4q0 -16 51 -37q47 -19 67 -19q30 0 72 42l7 -10q-6 -26 -111 -92.5t-139 -66.5q-49 0 -83 43q-32 39 -32 89q0 109 119.5 237.5t227.5 128.5q28 0 52.5 -19.5t24.5 -46.5zM265 418q-47 0 -83 -63q-32 -56 -32 -107
q0 -15 8.5 -37.5t17.5 -31.5q44 4 86.5 57t42.5 98q0 84 -40 84zM206 681q-19 6 -38.5 -15.5t-19.5 -44.5q0 -12 7 -18l209 -99q22 3 22 17q0 7 -7 13z" />
    <glyph glyph-name="ecircumflex" unicode="&#xea;" horiz-adv-x="494" 
d="M445 411q0 -66 -97 -146q-73 -61 -158 -99l-1 -4q0 -16 51 -37q47 -19 67 -19q30 0 72 42l7 -10q-6 -26 -111 -92.5t-139 -66.5q-49 0 -83 43q-32 39 -32 89q0 109 119.5 237.5t227.5 128.5q28 0 52.5 -19.5t24.5 -46.5zM265 418q-47 0 -83 -63q-32 -56 -32 -107
q0 -15 8.5 -37.5t17.5 -31.5q44 4 86.5 57t42.5 98q0 84 -40 84zM443 515l-14 -16l-128 60l-141 -57l-4 19l140 127z" />
    <glyph glyph-name="edieresis" unicode="&#xeb;" horiz-adv-x="494" 
d="M445 411q0 -66 -97 -146q-73 -61 -158 -99l-1 -4q0 -16 51 -37q47 -19 67 -19q30 0 72 42l7 -10q-6 -26 -111 -92.5t-139 -66.5q-49 0 -83 43q-32 39 -32 89q0 109 119.5 237.5t227.5 128.5q28 0 52.5 -19.5t24.5 -46.5zM265 418q-47 0 -83 -63q-32 -56 -32 -107
q0 -15 8.5 -37.5t17.5 -31.5q44 4 86.5 57t42.5 98q0 84 -40 84zM154 572q0 24 17.5 41.5t41.5 17.5t42 -17.5t18 -41.5q0 -25 -17.5 -42t-42.5 -17t-42 17t-17 42zM334 572q0 24 17.5 41.5t41.5 17.5t42 -17.5t18 -41.5q0 -25 -17.5 -42t-42.5 -17t-42 17t-17 42z" />
    <glyph glyph-name="iacute" unicode="&#xed;" horiz-adv-x="296" 
d="M276 110q0 -7 -45 -44q-95 -77 -147 -77q-70 0 -67 114q2 82 -2 274l171 99v-346q0 -46 29 -46q7 0 27 15q26 20 27 21q7 -7 7 -10zM171 661q19 6 38.5 -16t19.5 -44q0 -12 -7 -18l-209 -99q-22 3 -22 17q0 7 7 13z" />
    <glyph glyph-name="igrave" unicode="&#xec;" horiz-adv-x="296" 
d="M276 110q0 -7 -45 -44q-95 -77 -147 -77q-70 0 -67 114q2 82 -2 274l171 99v-346q0 -46 29 -46q7 0 27 15q26 20 27 21q7 -7 7 -10zM36 681q-19 6 -38.5 -15.5t-19.5 -44.5q0 -12 7 -18l209 -99q22 3 22 17q0 7 -7 13z" />
    <glyph glyph-name="icircumflex" unicode="&#xee;" horiz-adv-x="296" 
d="M276 110q0 -7 -45 -44q-95 -77 -147 -77q-70 0 -67 114q2 82 -2 274l171 99v-346q0 -46 29 -46q7 0 27 15q26 20 27 21q7 -7 7 -10zM253 515l-14 -16l-128 60l-141 -57l-4 19l140 127z" />
    <glyph glyph-name="idieresis" unicode="&#xef;" horiz-adv-x="296" 
d="M276 110q0 -7 -45 -44q-95 -77 -147 -77q-70 0 -67 114q2 82 -2 274l171 99v-346q0 -46 29 -46q7 0 27 15q26 20 27 21q7 -7 7 -10zM-46 572q0 24 17.5 41.5t41.5 17.5t42 -17.5t18 -41.5q0 -25 -17.5 -42t-42.5 -17t-42 17t-17 42zM134 572q0 24 17.5 41.5t41.5 17.5
t42 -17.5t18 -41.5q0 -25 -17.5 -42t-42.5 -17t-42 17t-17 42z" />
    <glyph glyph-name="ntilde" unicode="&#xf1;" horiz-adv-x="666" 
d="M638 137q-23 -45 -85 -102q-70 -65 -109 -65q-94 0 -94 197q0 47 3 56l-267 -265q12 41 24 81q18 72 18 140q0 35 -7 75q-6 32 -41 59.5t-69 28.5q-14 0 -14 10q185 138 195 138q44 0 78 -49q31 -43 31 -83q0 -62 -27 -126q-25 -53 -50 -105q69 49 183 178l150 176h14
q-48 -106 -48 -193q0 -42 14 -86q22 -67 68 -67q3 0 15 1t18 1zM525 607q-45 -94 -116 -94q-30 0 -86 23.5t-86 23.5q-59 0 -89 -38q-4 1 -15 8q42 98 137 98q28 0 77.5 -22t75.5 -22q43 0 80 30z" />
    <glyph glyph-name="oacute" unicode="&#xf3;" horiz-adv-x="565" 
d="M520 258q0 -57 -93 -130q-76 -59 -186 -110q-100 -47 -135 -47q-48 0 -81 29.5t-33 78.5q0 77 66 177q64 96 157 163q99 71 182 71q11 0 16 -1q52 -12 64 -36q5 -11 4 -20q-48 -37 -127 -88q3 34 -11 52q-11 15 -23 23q-15 10 -32 10q-64 0 -104 -79q-31 -63 -31 -122
q0 -62 48 -104q44 -39 98 -39q27 0 46 13q23 15 23 43q0 18 -7 33q-9 19 -31 27q-37 13 -38 13q18 21 50 45l52 38q14 11 42 30q4 1 10 1q28 0 51 -22t23 -49zM341 661q19 6 38.5 -16t19.5 -44q0 -12 -7 -18l-209 -99q-22 3 -22 17q0 7 7 13z" />
    <glyph glyph-name="ograve" unicode="&#xf2;" horiz-adv-x="565" 
d="M520 258q0 -57 -93 -130q-76 -59 -186 -110q-100 -47 -135 -47q-48 0 -81 29.5t-33 78.5q0 77 66 177q64 96 157 163q99 71 182 71q11 0 16 -1q52 -12 64 -36q5 -11 4 -20q-48 -37 -127 -88q3 34 -11 52q-11 15 -23 23q-15 10 -32 10q-64 0 -104 -79q-31 -63 -31 -122
q0 -62 48 -104q44 -39 98 -39q27 0 46 13q23 15 23 43q0 18 -7 33q-9 19 -31 27q-37 13 -38 13q18 21 50 45l52 38q14 11 42 30q4 1 10 1q28 0 51 -22t23 -49zM226 691q-19 6 -38.5 -15.5t-19.5 -44.5q0 -12 7 -18l209 -99q22 3 22 17q0 7 -7 13z" />
    <glyph glyph-name="ocircumflex" unicode="&#xf4;" horiz-adv-x="565" 
d="M520 258q0 -57 -93 -130q-76 -59 -186 -110q-100 -47 -135 -47q-48 0 -81 29.5t-33 78.5q0 77 66 177q64 96 157 163q99 71 182 71q11 0 16 -1q52 -12 64 -36q5 -11 4 -20q-48 -37 -127 -88q3 34 -11 52q-11 15 -23 23q-15 10 -32 10q-64 0 -104 -79q-31 -63 -31 -122
q0 -62 48 -104q44 -39 98 -39q27 0 46 13q23 15 23 43q0 18 -7 33q-9 19 -31 27q-37 13 -38 13q18 21 50 45l52 38q14 11 42 30q4 1 10 1q28 0 51 -22t23 -49zM463 525l-14 -16l-128 60l-141 -57l-4 19l140 127z" />
    <glyph glyph-name="odieresis" unicode="&#xf6;" horiz-adv-x="565" 
d="M520 258q0 -57 -93 -130q-76 -59 -186 -110q-100 -47 -135 -47q-48 0 -81 29.5t-33 78.5q0 77 66 177q64 96 157 163q99 71 182 71q11 0 16 -1q52 -12 64 -36q5 -11 4 -20q-48 -37 -127 -88q3 34 -11 52q-11 15 -23 23q-15 10 -32 10q-64 0 -104 -79q-31 -63 -31 -122
q0 -62 48 -104q44 -39 98 -39q27 0 46 13q23 15 23 43q0 18 -7 33q-9 19 -31 27q-37 13 -38 13q18 21 50 45l52 38q14 11 42 30q4 1 10 1q28 0 51 -22t23 -49zM154 592q0 24 17.5 41.5t41.5 17.5t42 -17.5t18 -41.5q0 -25 -17.5 -42t-42.5 -17t-42 17t-17 42zM334 592
q0 24 17.5 41.5t41.5 17.5t42 -17.5t18 -41.5q0 -25 -17.5 -42t-42.5 -17t-42 17t-17 42z" />
    <glyph glyph-name="otilde" unicode="&#xf5;" horiz-adv-x="565" 
d="M520 258q0 -57 -93 -130q-76 -59 -186 -110q-100 -47 -135 -47q-48 0 -81 29.5t-33 78.5q0 77 66 177q64 96 157 163q99 71 182 71q11 0 16 -1q52 -12 64 -36q5 -11 4 -20q-48 -37 -127 -88q3 34 -11 52q-11 15 -23 23q-15 10 -32 10q-64 0 -104 -79q-31 -63 -31 -122
q0 -62 48 -104q44 -39 98 -39q27 0 46 13q23 15 23 43q0 18 -7 33q-9 19 -31 27q-37 13 -38 13q18 21 50 45l52 38q14 11 42 30q4 1 10 1q28 0 51 -22t23 -49zM484 624q-45 -94 -116 -94q-30 0 -86 23.5t-86 23.5q-59 0 -89 -38q-4 2 -15 8q42 98 137 98q28 0 77.5 -22
t75.5 -22q44 0 80 30z" />
    <glyph glyph-name="uacute" unicode="&#xfa;" horiz-adv-x="601" 
d="M575 114q-4 -24 -79 -75q-79 -53 -118 -52q-72 4 -72 67q0 10 2 34t1 36q-160 -137 -237 -137q-60 0 -63 118l2 285l169 85l-1 -340q0 -16 12.5 -29t26.5 -13q3 0 6 1q74 29 82 68q4 19 0 222l170 94l1 -313q0 -48 1 -49q3 -31 23 -31q8 0 18 5q14 6 17 8q11 6 28 26
q2 0 4.5 -5.5t6.5 -4.5zM341 671q19 6 38.5 -16t19.5 -44q0 -12 -7 -18l-209 -99q-22 3 -22 17q0 7 7 13z" />
    <glyph glyph-name="ugrave" unicode="&#xf9;" horiz-adv-x="601" 
d="M186 681q-19 6 -38.5 -15.5t-19.5 -44.5q0 -12 7 -18l209 -99q22 3 22 17q0 7 -7 13zM575 114q-4 -24 -79 -75q-79 -53 -118 -52q-72 4 -72 67q0 10 2 34t1 36q-160 -137 -237 -137q-60 0 -63 118l2 285l169 85l-1 -340q0 -16 12.5 -29t26.5 -13q3 0 6 1q74 29 82 68
q4 19 0 222l170 94q1 -113 1 -313q0 -48 1 -49q3 -31 23 -31q8 0 18 5q14 6 17 8q11 6 28 26q2 0 4.5 -5.5t6.5 -4.5z" />
    <glyph glyph-name="ucircumflex" unicode="&#xfb;" horiz-adv-x="601" 
d="M575 114q-4 -24 -79 -75q-79 -53 -118 -52q-72 4 -72 67q0 10 2 34t1 36q-160 -137 -237 -137q-60 0 -63 118l2 285l169 85l-1 -340q0 -16 12.5 -29t26.5 -13q3 0 6 1q74 29 82 68q4 19 0 222l170 94l1 -313q0 -48 1 -49q3 -31 23 -31q8 0 18 5q14 6 17 8q11 6 28 26
q2 0 4.5 -5.5t6.5 -4.5zM383 525l-14 -16l-128 60l-141 -57l-4 19l140 127z" />
    <glyph glyph-name="udieresis" unicode="&#xfc;" horiz-adv-x="601" 
d="M575 114q-4 -24 -79 -75q-79 -53 -118 -52q-72 4 -72 67q0 10 2 34t1 36q-160 -137 -237 -137q-60 0 -63 118l2 285l169 85l-1 -340q0 -16 12.5 -29t26.5 -13q3 0 6 1q74 29 82 68q4 19 0 222l170 94l1 -313q0 -48 1 -49q3 -31 23 -31q8 0 18 5q14 6 17 8q11 6 28 26
q2 0 4.5 -5.5t6.5 -4.5zM84 592q0 25 17.5 42t41.5 17q25 0 43 -17t18 -42q0 -24 -18 -41t-43 -17t-42 17t-17 41zM294 592q0 25 17.5 42t41.5 17q25 0 43 -17t18 -42q0 -24 -18 -41t-43 -17t-42 17t-17 41z" />
    <glyph glyph-name="dagger" unicode="&#x2020;" horiz-adv-x="476" 
d="M233 489q-24 -1 -69 -20.5t-66 -19.5q-54 0 -54 56q0 60 54 60q19 0 65 -22t70 -24q0 37 -26 91.5t-26 68.5q0 27 19.5 42.5t47.5 15.5t47 -15.5t19 -42.5q0 -14 -26 -69t-27 -91q25 2 71 24t64 22q55 0 55 -62q0 -61 -55 -61q-17 0 -63 22.5t-72 24.5q7 -107 68 -171
q-44 -84 -56 -198q-4 -35 -8 -207h-35q-4 160 -9 207q-12 116 -55 198q61 64 67 171z" />
    <glyph glyph-name="degree" unicode="&#xb0;" horiz-adv-x="323" 
d="M144 749q52 0 88 -37t36 -89t-36 -88.5t-88 -36.5t-88.5 36.5t-36.5 88.5q0 53 36 89.5t89 36.5zM144 709q-36 0 -60.5 -25t-24.5 -61q0 -35 25 -60t60 -25t59.5 25t24.5 60t-24.5 60.5t-59.5 25.5z" />
    <glyph glyph-name="cent" unicode="&#xa2;" horiz-adv-x="392" 
d="M213 109h-48v54q-49 7 -91 37t-53 69q-10 35 -10 69q0 75 47 139q41 56 107 92v53h48v-46q19 4 39 4q78 0 92 -53q7 -46 -62 -93q-61 -42 -102 -42t-55 21q23 18 73 52l2 -15q0 -8 14 -14.5t23 -6.5q30 0 30 39q0 32 -25.5 55t-57.5 22q-44 -2 -74.5 -55t-28.5 -112
q2 -66 62 -105q52 -34 115 -32q25 1 36 6q2 1 37 23q1 -1 9 -6l-54 -56q-38 -37 -73 -45v-54z" />
    <glyph glyph-name="sterling" unicode="&#xa3;" horiz-adv-x="639" 
d="M355 553q-1 28 -15 51q-17 26 -43 24q-54 -4 -54 -99v-153q113 63 112 177zM2 303h60v22q0 71 23 121q39 85 151 166q117 85 206 85q33 0 57 -27.5t24 -61.5q0 -98 -139 -187q-58 -37 -139 -69v-49h164v-45h-164v-180l60 46q40 27 79 27q40 0 82.5 -32t56.5 -34
q27 -4 39 23q9 19 8 47q10 -1 22.5 -15.5t12.5 -34.5q0 -26 -25 -50q-81 -79 -187 -68q-39 4 -72 40.5t-52 36.5q-6 0 -13 -2l-193 -95l-1 291h-60v45z" />
    <glyph glyph-name="bullet" unicode="&#x2022;" horiz-adv-x="351" 
d="M8 337q0 57 41 98t99 41t98.5 -41t40.5 -98q0 -58 -40.5 -99t-98.5 -41t-99 41t-41 99z" />
    <glyph glyph-name="paragraph" unicode="&#xb6;" horiz-adv-x="487" 
d="M462 -65h-282v30q39 0 49 12t10 53v283l-31 -1q-85 -3 -136.5 44t-51.5 132q0 101 66 142q52 32 162 32h214v-30q-38 0 -47.5 -12.5t-9.5 -53.5v-536q0 -42 8 -52q10 -13 49 -13v-30zM352 -35v667h-63v-667h63z" />
    <glyph glyph-name="germandbls" unicode="&#xdf;" horiz-adv-x="571" 
d="M167 479l3 -401l-161 -92v463q1 78 77 151q85 83 205 82q72 0 133 -33q72 -40 72 -108q0 -62 -48 -115q-41 -45 -105 -73q69 -7 118 -36q63 -37 63 -97q0 -98 -91 -166q-79 -60 -187 -71q-4 -1 -4 3q0 3 2.5 12t2.5 13t-3 4q57 0 91 53q29 45 29 107q0 67 -29 107
q-34 44 -99 44q-22 0 -10 1v24q-5 0 -11 2q2 1 21 1q52 0 79 52q22 41 22 99q0 53 -24 92q-29 47 -80 47q-9 0 -19 -1q-49 -5 -49 -122q0 -22 2 -42z" />
    <glyph glyph-name="registered" unicode="&#xae;" horiz-adv-x="376" 
d="M185 680q60 0 102.5 -43.5t42.5 -103.5q0 -61 -43 -104t-104 -43t-104 43t-43 104q0 62 43.5 104.5t105.5 42.5zM182 659q-51 0 -86 -37t-35 -88q0 -52 35 -88.5t87 -36.5t87 36.5t35 88.5t-35.5 88.5t-87.5 36.5zM166 528v-41q0 -9 1 -15q7 -3 24 -3v-14h-89v14
q14 0 21 3q2 6 2 15v92q0 8 -2 15q-6 2 -21 2v15h95q58 0 58 -40q0 -31 -38 -39q21 -8 30 -57q2 -2 5 -3q8 0 8 20h15v-5q0 -35 -38 -35q-26 0 -34 22q-2 5 -7 45q-4 9 -30 9zM166 543h11q34 0 34 27q0 26 -25 26h-9q-11 0 -11 -12v-41z" />
    <glyph glyph-name="copyright" unicode="&#xa9;" horiz-adv-x="759" 
d="M347 682q139 0 237 -100t98 -239q0 -140 -99.5 -239.5t-239.5 -99.5t-239.5 99t-99.5 239q0 144 99.5 242t243.5 98zM339 634q-116 0 -196.5 -86.5t-80.5 -204.5t81.5 -204.5t199.5 -86.5t199.5 86.5t81.5 204.5q0 122 -82 206.5t-203 84.5zM488 528l6 -147l-33 -4
q-32 119 -109 119q-87 0 -87 -150q0 -153 94 -153q85 0 105 107l37 -9q-27 -137 -159 -137q-82 0 -132.5 51t-50.5 132q0 84 53 138.5t136 54.5q47 0 89 -25l26 23h25z" />
    <glyph glyph-name="trademark" unicode="&#x2122;" horiz-adv-x="593" 
d="M221 674l5 -82h-19q-12 63 -46 63l-5 -3l-1 -6v-141q0 -13 2 -21q9 -3 31 -3v-20h-121v20q22 0 31 3q2 9 2 21v141l-2 7l-5 2q-34 0 -46 -63h-19l5 82h188zM359 674l40 -114l39 114h98v-19q-18 0 -28 -3q-1 -9 -1 -22v-125q0 -13 1 -21q10 -3 28 -3v-20h-115v20
q19 0 28 3q2 9 2 21v132l-61 -176h-14l-61 174v-111q0 -24 4 -31q6 -12 27 -12v-20h-87v20h2q21 0 26 12q4 8 4 31v106q0 12 -2 22q-9 3 -27 3v19h97z" />
    <glyph glyph-name="acute" unicode="&#xb4;" horiz-adv-x="380" 
d="M246 881q19 6 38.5 -15.5t19.5 -44.5q0 -12 -7 -18l-209 -99q-22 3 -22 17q0 7 7 13z" />
    <glyph glyph-name="dieresis" unicode="&#xa8;" horiz-adv-x="484" 
d="M74 792q0 24 17.5 41.5t41.5 17.5t42 -17.5t18 -41.5q0 -25 -17.5 -42t-42.5 -17t-42 17t-17 42zM284 792q0 24 17.5 41.5t41.5 17.5t42 -17.5t18 -41.5q0 -25 -17.5 -42t-42.5 -17t-42 17t-17 42z" />
    <glyph glyph-name="AE" unicode="&#xc6;" horiz-adv-x="1247" 
d="M438 200q-107 -102 -146 -132q-101 -78 -172 -78q-58 0 -89 41q-28 36 -28 96q0 112 99 247q94 127 229 215q141 92 253 92q27 0 60.5 -20t34.5 -45q-43 -26 -85 -52q-51 -30 -88 -45q-8 32 -32.5 53t-56.5 21q-103 0 -177 -124q-66 -109 -66 -218q0 -50 22 -84
q26 -41 73 -41q38 0 94 44q50 39 74 77l-1 103l2 42q115 63 190 98l-2 -153q-1 -15 -1 -30q-2 -28 -2 -50q0 -92 20 -119q16 53 51 106.5t65 71.5q-57 23 -61 25q-36 22 -36 63q0 114 136 198q116 73 242 81q40 2 93 -24.5t53 -51.5q0 -4 -94 -55q-89 -49 -104 -55
q6 21 6 41q0 90 -95 90q-38 0 -78 -31q-42 -34 -42 -71q0 -62 53 -88q37 -17 143 -30v-9q-88 -16 -156 -59q-89 -55 -89 -129q0 -53 46 -92t101 -39q54 0 105 25q62 31 62 80q0 44 -39 59q-24 9 -76 9q92 55 166 93q58 30 61 29q29 -8 41 -17q25 -19 24 -59
q-1 -55 -112 -132q-93 -65 -225 -120q-125 -53 -180 -55q-114 -4 -193 63q-73 63 -73 145z" />
    <glyph glyph-name="Oslash" unicode="&#xd8;" horiz-adv-x="763" 
d="M191 207l295 342q-1 36 -28 61t-65 25q-97 0 -166 -114q-59 -99 -59 -202q0 -61 23 -112zM629 716h36l-53 -61q10 -8 23 -19q-29 -19 -88 -57l-342 -398q62 -99 182 -99q71 0 126 60t55 131q0 68 -19 107q-22 46 -75 68l166 122q51 -43 51 -130q0 -114 -79 -226
q-75 -106 -192 -173q-122 -69 -240 -68q-75 1 -120 40l-38 -45h-36l55 65q-39 50 -39 135q0 122 77 247q74 119 191 195q122 80 245 80q40 0 74 -20z" />
    <glyph glyph-name="plusminus" unicode="&#xb1;" 
 />
    <glyph glyph-name="yen" unicode="&#xa5;" horiz-adv-x="922" 
d="M243 312h131q-37 89 -107 157q-82 81 -166 81q-12 0 -50 -12q19 24 106 142l28 3q113 0 186 -72q38 -37 116 -168q74 119 104 156q77 93 149 97q48 3 101.5 -30.5t65.5 -73.5l-97 -126q-34 41 -68 81q-44 44 -93 44q-32 0 -84 -63q-37 -45 -68 -100q29 -51 40 -113v-3
h145v-55h-145v-55h145v-55h-145q0 -72 1 -146h-158q1 35 3 146h-140v55h140v55h-140v55z" />
    <glyph glyph-name="mu" unicode="&#xb5;" horiz-adv-x="819" 
d="M465 553q-1 28 -15 51q-17 26 -43 24q-54 -4 -54 -99v-153q113 63 112 177zM6 116l166 67v112q-60 -45 -105 -38q-26 4 -52 37t-24 71q5 24 41 61q41 44 92 69q-27 -88 -27 -105q0 -67 53 -67q13 0 23 3q-3 65 22 120q39 85 151 166q117 85 206 85q33 0 57 -27.5
t24 -61.5q0 -98 -139 -187q-58 -37 -139 -69v-95l203 81v-42l-203 -81v-137l60 46q40 27 79 27q40 0 82.5 -32t56.5 -34q53 -7 53 60q0 32 -67 75q39 31 115 87q47 -22 47 -74q0 -60 -103 -155q-105 -98 -175 -91q-39 4 -72 40.5t-52 36.5q-6 0 -13 -2l-193 -95l-1 174
l-166 -67v42z" />
    <glyph glyph-name="mu" unicode="&#x3bc;" horiz-adv-x="819" 
d="M465 553q-1 28 -15 51q-17 26 -43 24q-54 -4 -54 -99v-153q113 63 112 177zM6 116l166 67v112q-60 -45 -105 -38q-26 4 -52 37t-24 71q5 24 41 61q41 44 92 69q-27 -88 -27 -105q0 -67 53 -67q13 0 23 3q-3 65 22 120q39 85 151 166q117 85 206 85q33 0 57 -27.5
t24 -61.5q0 -98 -139 -187q-58 -37 -139 -69v-95l203 81v-42l-203 -81v-137l60 46q40 27 79 27q40 0 82.5 -32t56.5 -34q53 -7 53 60q0 32 -67 75q39 31 115 87q47 -22 47 -74q0 -60 -103 -155q-105 -98 -175 -91q-39 4 -72 40.5t-52 36.5q-6 0 -13 -2l-193 -95l-1 174
l-166 -67v42z" />
    <glyph glyph-name="ordfeminine" unicode="&#xaa;" horiz-adv-x="764" 
d="M722 223q0 -75 -91.5 -154t-182.5 -79q-14 0 -27 2q-57 10 -81 36q-27 28 -55 37q-21 6 -47 6q-55 0 -138 -34q-96 -39 -104 -41l-8 9l289 301q-129 -3 -183 0q26 46 109 147l188 1l165 150v6q-126 -102 -214 -102q-43 0 -100.5 34t-90.5 34q-49 0 -72 -29q-2 3 -9 14
q51 39 103 78q66 46 116 46q40 0 109.5 -34t108.5 -34q38 0 79 26q28 21 57 42l12 -13l-214 -216h140q-33 -46 -119 -153l-148 1q-102 -103 -226 -235q65 39 130 79q77 39 148 39q17 0 34 -2q37 -4 79 -36.5t79 -35.5q20 -2 34 -2q74 0 91 56q3 12 3 25q0 36 -26 62.5
t-56 26.5q-11 0 -19 -4q-15 -5 -31 -10q-17 -8 -27 -23l-10 9q52 68 114 68q38 0 64.5 -28t26.5 -70zM242 835l14 16l128 -60l141 57l9 -20l-151 -114z" />
    <glyph glyph-name="ordmasculine" unicode="&#xba;" horiz-adv-x="614" 
d="M562 136q-29 -38 -113 -100q-98 -72 -141 -72q-41 0 -103 56.5t-100 56.5q-9 0 -68 -31t-76 -27q69 60 218 200q140 132 237 215q-66 -33 -132 -67q-107 -53 -179 -53q-35 0 -70 22q-43 28 -44 75q46 22 91 44q58 27 95 34q17 -31 35.5 -43.5t51.5 -12.5q58 0 123 24
q43 16 94 44q43 24 46 24q4 0 23 -32q9 -18 19 -35l-475 -354q41 18 83 36q73 31 92 31q46 0 100 -42.5t84 -42.5q19 0 54 20zM138 645l14 15l129 -60l140 57l9 -20l-150 -114z" />
    <glyph glyph-name="ae" unicode="&#xe6;" horiz-adv-x="759" 
d="M353 177v2l-47 -47q-44 -43 -114 -88q-81 -50 -120 -50q-75 0 -75 89q0 64 84 160q77 87 182.5 156t170.5 71q70 3 81 -47q1 -5 -135 -95q-5 25 -25.5 41t-45.5 16q-57 0 -103 -58.5t-46 -116.5q-1 -36 13 -60q16 -29 44 -29q71 0 105 136q1 3 101 49q57 74 128 122
q75 52 138 52q28 0 52.5 -19.5t24.5 -46.5q0 -66 -97 -146q-73 -61 -158 -99v-4q0 -17 39 -38t58 -21q20 0 50 16q27 14 42 29l10 -13q-36 -59 -129 -111q-82 -45 -124 -45q-49 0 -83 43q-32 39 -32 89q0 29 11 63zM615 334q0 80 -36 80q-41 0 -81 -63q-38 -58 -38 -103
q0 -15 8.5 -37.5t17.5 -31.5q44 4 86.5 57t42.5 98z" />
    <glyph glyph-name="oslash" unicode="&#xf8;" horiz-adv-x="565" 
d="M165 172l186 212q-8 19 -24.5 31t-34.5 8q-73 -16 -111 -85q-28 -51 -28 -109q0 -30 12 -57zM501 516l-40 -46q23 -16 20 -37q-48 -37 -127 -88v2l-174 -199q45 -62 119 -62q27 0 46 13q23 15 23 43q0 18 -7 33q-9 19 -31 27q-37 13 -38 13q13 15 73 62q66 52 81 52
q28 0 51 -22t23 -49q0 -58 -86 -129q-75 -63 -179 -108t-157 -40q-32 2 -54 12l-27 -30h-35l39 45q-29 25 -29 71q0 77 66 177q64 96 157 163q99 71 182 71h21l18 -8l30 34h35z" />
    <glyph glyph-name="questiondown" unicode="&#xbf;" horiz-adv-x="585" 
d="M294 311q-3 -67 -38 -117q-33 -40 -65 -79q-35 -50 -39 -116q-4 -69 30 -117q38 -52 104 -52q44 0 77.5 29t33.5 72q0 32 -21.5 56t-53.5 24q-49 0 -93 -28l-9 13q134 95 197 91q90 -5 90 -85q0 -93 -95 -153q-87 -54 -198 -54q-84 0 -145 42q-68 47 -68 129q1 90 69 158
q19 20 128 97q70 50 73 93q-2 -5 2 -5q2 0 10 2.5t10 2.5q1 -1 1 -3zM347 425q0 -25 -19.5 -43.5t-47.5 -18.5q-29 0 -48.5 18.5t-19.5 43.5q0 26 19.5 44t48.5 18q28 0 47.5 -18t19.5 -44z" />
    <glyph glyph-name="exclamdown" unicode="&#xa1;" horiz-adv-x="247" 
d="M166 -205h-135l40 497h61zM166 409q0 -26 -19.5 -44t-47.5 -18t-48 18t-20 44q0 25 20 43.5t48 18.5t47.5 -18.5t19.5 -43.5z" />
    <glyph glyph-name="logicalnot" unicode="&#xac;" 
 />
    <glyph glyph-name="florin" unicode="&#x192;" horiz-adv-x="808" 
d="M19 443h81q43 112 147 177t232 65q152 0 220 -84q29 -35 38 -85l-127 12q0 107 -111 121q-12 2 -24 2q-77 0 -133 -65q-48 -54 -75 -143h162l-5 -46h-168q-6 -28 -9 -52l-1 -12h171l-5 -46h-169q-12 -253 177 -253q97 0 155 41q32 22 89 95h38q-53 -101 -118 -140
q-72 -43 -206 -43q-143 0 -224 80.5t-82 219.5h-71l5 46h68q4 34 11 64h-71z" />
    <glyph glyph-name="guillemotleft" unicode="&#xab;" horiz-adv-x="433" 
d="M391 451l-111 -184l108 -175l-13 -16l-164 191q-4 3 166 204zM255 451l-111 -184l108 -175l-13 -16l-164 191q-4 3 166 204z" />
    <glyph glyph-name="guillemotright" unicode="&#xbb;" horiz-adv-x="430" 
d="M66 451l110 -184l-108 -175l14 -16l164 191q3 3 -167 204zM202 451l110 -184l-108 -175l14 -16l164 191q3 3 -167 204z" />
    <glyph glyph-name="ellipsis" unicode="&#x2026;" horiz-adv-x="886" 
d="M750 -19zM837 60l-90 -86l-97 86l94 83zM150 -19zM237 60l-90 -86l-97 86l94 83zM450 -19zM537 60l-90 -86l-97 86l94 83z" />
    <glyph glyph-name="nonbreakingspace" unicode="&#xa0;" horiz-adv-x="236" 
 />
    <glyph glyph-name="Agrave" unicode="&#xc0;" horiz-adv-x="802" 
d="M757 138q0 -16 -113 -85t-138 -69q-70 0 -70 157q0 13 1 33t1 26q-107 -102 -146 -132q-101 -78 -172 -78q-58 0 -89 41q-28 36 -28 96q0 112 99 247q94 127 229 215q141 92 253 92q27 0 60.5 -20t34.5 -45q-43 -26 -85 -52q-51 -30 -88 -45q-8 32 -32.5 53t-56.5 21
q-103 0 -177 -124q-66 -109 -66 -218q0 -50 22 -84q26 -41 73 -41q38 0 94 44q50 39 74 77l-1 103l2 42q115 63 190 98l-2 -153q0 -3 -1 -34q-1 -27 -1 -48q0 -150 51 -150q26 0 72 53zM376 881q-19 6 -38.5 -15.5t-19.5 -44.5q0 -12 7 -18l209 -99q22 3 22 17q0 7 -7 13z
" />
    <glyph glyph-name="Atilde" unicode="&#xc3;" horiz-adv-x="802" 
d="M757 138q0 -16 -113 -85t-138 -69q-70 0 -70 157q0 13 1 33t1 26q-107 -102 -146 -132q-101 -78 -172 -78q-58 0 -89 41q-28 36 -28 96q0 112 99 247q94 127 229 215q141 92 253 92q27 0 60.5 -20t34.5 -45q-43 -26 -85 -52q-51 -30 -88 -45q-8 32 -32.5 53t-56.5 21
q-103 0 -177 -124q-66 -109 -66 -218q0 -50 22 -84q26 -41 73 -41q38 0 94 44q50 39 74 77l-1 103l2 42q115 63 190 98l-2 -153q0 -3 -1 -34q-1 -27 -1 -48q0 -150 51 -150q26 0 72 53zM624 811q-45 -94 -116 -94q-30 0 -86 23.5t-86 23.5q-58 0 -89 -38q-4 1 -15 8
q42 98 137 98q28 0 78 -22t75 -22q44 0 80 30z" />
    <glyph glyph-name="Otilde" unicode="&#xd5;" horiz-adv-x="763" 
d="M691 440q0 -114 -79 -226q-75 -106 -192 -173q-122 -69 -240 -68q-89 1 -135 55q-43 51 -43 140q0 122 77 247q74 119 191 195q122 80 245 80q56 0 120 -54q-50 -31 -150 -100q5 40 -22.5 69.5t-69.5 29.5q-97 0 -166 -114q-59 -99 -59 -202q0 -101 60.5 -169t158.5 -68
q71 0 126 60t55 131q0 124 -115 171l187 126q51 -43 51 -130zM564 811q-45 -94 -116 -94q-30 0 -86 23.5t-86 23.5q-58 0 -89 -38q-4 1 -15 8q42 98 137 98q28 0 78 -22t75 -22q44 0 80 30z" />
    <glyph glyph-name="OE" unicode="&#x152;" horiz-adv-x="1089" 
d="M518 477q3 16 3 30q0 63 -47 99q-37 29 -81 29q-97 0 -166 -114q-59 -99 -59 -202q0 -101 60.5 -169t158.5 -68q9 0 18 1q-1 7 -1 15q0 96 165 200q1 12 3 28q-70 24 -70 78q0 37 16 73zM1061 299q-1 -55 -111 -133q-94 -67 -224 -123q-125 -54 -180 -54q-93 0 -129 60
q-110 -77 -237 -76q-89 1 -135 55q-43 51 -43 140q0 190 154 353t341 163q55 0 95 -25q10 -6 59 -49q112 65 229 73q40 2 93 -24.5t53 -51.5q0 -4 -94 -55q-89 -49 -104 -55q6 21 6 41q0 90 -95 90q-38 0 -78 -31q-42 -34 -42 -71q0 -62 53 -88q37 -17 143 -30v-9
q-64 -12 -123 -41q-73 -35 -103 -83q-7 -20 -16 -39q-3 -12 -3 -25q0 -53 46 -92t101 -39q54 0 105 25q62 31 62 80q0 44 -39 59q-24 9 -76 9q92 55 166 93q58 30 61 29q29 -8 41 -17q25 -19 24 -59z" />
    <glyph glyph-name="oe" unicode="&#x153;" horiz-adv-x="830" 
d="M795 411q0 -66 -97 -146q-73 -61 -158 -99l-1 -4q0 -16 51 -37q47 -19 67 -19q30 0 72 42l7 -10q-6 -26 -111 -92.5t-139 -66.5q-45 0 -76.5 35t-37.5 81q-71 -50 -157 -88q-80 -36 -109 -36q-48 0 -81 29.5t-33 78.5q0 77 66 177q64 96 157 163q99 71 182 71q11 0 16 -1
q52 -12 64 -36q5 -11 4 -20q-48 -37 -127 -88q3 34 -11 52q-11 15 -23 23q-15 10 -32 10q-64 0 -104 -79q-31 -63 -31 -122q0 -62 48 -104q44 -39 98 -39q27 0 46 13q23 15 23 43q0 18 -7 33q-9 19 -31 27q-37 13 -38 13q31 36 90 82q12 18 39 42q1 1 12 -2.5t15 -3.5
t20 -10q56 67 122 109q70 45 128 45q28 0 52.5 -19.5t24.5 -46.5zM615 418q-47 0 -83 -63q-32 -56 -32 -107q0 -15 8.5 -37.5t17.5 -31.5q44 4 86.5 57t42.5 98q0 84 -40 84z" />
    <glyph glyph-name="endash" unicode="&#x2013;" horiz-adv-x="535" 
d="M426 256l-413 -1q13 14 82 93h412z" />
    <glyph glyph-name="emdash" unicode="&#x2014;" horiz-adv-x="866" 
d="M756 256l-743 -1q13 14 82 93h742z" />
    <glyph glyph-name="quotedblleft" unicode="&#x201c;" horiz-adv-x="455" 
d="M19 595l126 -125l22 15l-44 57l70 59l-86 86zM219 595l126 -125l22 15l-44 57l70 59l-86 86z" />
    <glyph glyph-name="quotedblright" unicode="&#x201d;" horiz-adv-x="455" 
d="M393 595l-126 -125l-22 15l44 57l-70 59l86 86zM193 595l-126 -125l-22 15l44 57l-70 59l86 86z" />
    <glyph glyph-name="quoteleft" unicode="&#x2018;" horiz-adv-x="242" 
d="M19 595l126 -125l22 15l-44 57l70 59l-86 86z" />
    <glyph glyph-name="quoteright" unicode="&#x2019;" horiz-adv-x="242" 
d="M193 595l-126 -125l-22 15l44 57l-70 59l86 86z" />
    <glyph glyph-name="divide" unicode="&#xf7;" 
 />
    <glyph glyph-name="ydieresis" unicode="&#xff;" horiz-adv-x="696" 
d="M679 165l-99 -60q-2 -20 -7 -69q-7 -89 -99 -194q-85 -96 -202 -164q-120 -69 -205 -69q-74 0 -74 63q0 150 386 378q4 2 6 34q1 30 -2 47q-67 -49 -135 -98q-83 -55 -133 -52q-56 3 -56 98q0 12 1 25.5l1 13.5v296q41 26 193 86l-1 -303q-1 -94 31 -94q23 0 56 33
q30 30 39 55v228l197 81v-365q33 22 99 60zM379 -45q0 -9 2 32q1 26 -2 28q-101 -59 -141 -99q-51 -54 -51 -122q0 -32 14 -60q18 -34 50 -31q70 7 105 122q23 73 23 130zM156 610q0 25 17.5 42t42.5 17q24 0 42 -17t18 -42q0 -24 -17.5 -41t-42.5 -17t-42.5 17t-17.5 41z
M366 610q0 25 17.5 42t42.5 17q24 0 42 -17t18 -42q0 -24 -17.5 -41t-42.5 -17t-42.5 17t-17.5 41z" />
    <glyph glyph-name="Ydieresis" unicode="&#x178;" horiz-adv-x="612" 
d="M543 246q0 -49 -1 -63q-3 -32 -12 -66q-28 -99 -167 -237q-149 -147 -249 -148q-40 0 -80 17q-50 22 -49 55v8l182 94q-8 -27 -8 -35q0 -71 50 -71q53 0 100 76q42 69 42 125v174l-17 -21q-56 -50 -113 -100q-76 -63 -124 -63q-42 0 -73 64q-26 53 -26 96q0 56 30 159.5
t30 156.5q0 42 -11 56q-8 10 -44 22q24 31 86 73q84 58 93 65q26 -2 43 -44q15 -33 15 -63q0 -49 -31.5 -142t-31.5 -142q0 -50 20 -92q25 -52 68 -52q44 0 67 43q19 33 17 67v306q83 54 195 123zM124 792q0 24 17.5 41.5t41.5 17.5t42 -17.5t18 -41.5q0 -25 -17.5 -42
t-42.5 -17t-42 17t-17 42zM334 792q0 24 17.5 41.5t41.5 17.5t42 -17.5t18 -41.5q0 -25 -17.5 -42t-42.5 -17t-42 17t-17 42z" />
    <glyph glyph-name="currency" unicode="&#xa4;" 
 />
    <glyph glyph-name="guilsinglleft" unicode="&#x2039;" horiz-adv-x="260" 
d="M228 451l-111 -184l108 -175l-13 -16l-164 191q-4 3 166 204z" />
    <glyph glyph-name="guilsinglright" unicode="&#x203a;" horiz-adv-x="256" 
d="M48 451l110 -184l-108 -175l14 -16l164 191q3 3 -167 204z" />
    <glyph glyph-name="daggerdbl" unicode="&#x2021;" 
 />
    <glyph glyph-name="periodcentered" unicode="&#xb7;" 
 />
    <glyph glyph-name="periodcentered" unicode="&#x2219;" 
 />
    <glyph glyph-name="quotesinglbase" unicode="&#x201a;" horiz-adv-x="242" 
d="M193 55l-126 -125l-22 15l44 57l-70 59l86 86z" />
    <glyph glyph-name="quotedblbase" unicode="&#x201e;" horiz-adv-x="466" 
d="M413 55l-126 -125l-22 15l44 57l-70 59l86 86zM193 55l-126 -125l-22 15l44 57l-70 59l86 86z" />
    <glyph glyph-name="perthousand" unicode="&#x2030;" 
 />
    <glyph glyph-name="Acircumflex" unicode="&#xc2;" horiz-adv-x="802" 
d="M757 138q0 -16 -113 -85t-138 -69q-70 0 -70 157q0 13 1 33t1 26q-107 -102 -146 -132q-101 -78 -172 -78q-58 0 -89 41q-28 36 -28 96q0 112 99 247q94 127 229 215q141 92 253 92q27 0 60.5 -20t34.5 -45q-43 -26 -85 -52q-51 -30 -88 -45q-8 32 -32.5 53t-56.5 21
q-103 0 -177 -124q-66 -109 -66 -218q0 -50 22 -84q26 -41 73 -41q38 0 94 44q50 39 74 77l-1 103l2 42q115 63 190 98l-2 -153q0 -3 -1 -34q-1 -27 -1 -48q0 -150 51 -150q26 0 72 53zM632 717l-14 -15l-128 60l-141 -57l-7 21l143 125z" />
    <glyph glyph-name="Ecircumflex" unicode="&#xca;" horiz-adv-x="680" 
d="M661 299q-1 -55 -111 -133q-94 -67 -224 -123q-125 -54 -180 -54t-96 26q-46 30 -46 83q0 102 195 218q-57 23 -61 25q-36 22 -36 63q0 114 136 198q116 73 242 81q40 2 93 -24.5t53 -51.5q0 -4 -94 -55q-89 -49 -104 -55q6 21 6 41q0 90 -95 90q-38 0 -78 -31
q-42 -34 -42 -71q0 -62 53 -88q37 -17 143 -30v-9q-88 -16 -156 -59q-89 -55 -89 -129q0 -53 46 -92t101 -39q54 0 105 25q62 31 62 80q0 44 -39 59q-24 9 -76 9q92 55 166 93q58 30 61 29q29 -8 41 -17q25 -19 24 -59zM582 717l-14 -15l-128 60l-141 -57l-7 21l143 125z
" />
    <glyph glyph-name="Aacute" unicode="&#xc1;" horiz-adv-x="802" 
d="M757 138q0 -16 -113 -85t-138 -69q-70 0 -70 157q0 13 1 33t1 26q-107 -102 -146 -132q-101 -78 -172 -78q-58 0 -89 41q-28 36 -28 96q0 112 99 247q94 127 229 215q141 92 253 92q27 0 60.5 -20t34.5 -45q-43 -26 -85 -52q-51 -30 -88 -45q-8 32 -32.5 53t-56.5 21
q-103 0 -177 -124q-66 -109 -66 -218q0 -50 22 -84q26 -41 73 -41q38 0 94 44q50 39 74 77l-1 103l2 42q115 63 190 98l-2 -153q0 -3 -1 -34q-1 -27 -1 -48q0 -150 51 -150q26 0 72 53zM516 881q19 6 38.5 -15.5t19.5 -44.5q0 -12 -7 -18l-209 -99q-22 3 -22 17q0 7 7 13z
" />
    <glyph glyph-name="Edieresis" unicode="&#xcb;" horiz-adv-x="680" 
d="M661 299q-1 -55 -111 -133q-94 -67 -224 -123q-125 -54 -180 -54t-96 26q-46 30 -46 83q0 102 195 218q-57 23 -61 25q-36 22 -36 63q0 114 136 198q116 73 242 81q40 2 93 -24.5t53 -51.5q0 -4 -94 -55q-89 -49 -104 -55q6 21 6 41q0 90 -95 90q-38 0 -78 -31
q-42 -34 -42 -71q0 -62 53 -88q37 -17 143 -30v-9q-88 -16 -156 -59q-89 -55 -89 -129q0 -53 46 -92t101 -39q54 0 105 25q62 31 62 80q0 44 -39 59q-24 9 -76 9q92 55 166 93q58 30 61 29q29 -8 41 -17q25 -19 24 -59zM274 792q0 24 17.5 41.5t41.5 17.5t42 -17.5t18 -41.5
q0 -25 -17.5 -42t-42.5 -17t-42 17t-17 42zM484 792q0 24 17.5 41.5t41.5 17.5t42 -17.5t18 -41.5q0 -25 -17.5 -42t-42.5 -17t-42 17t-17 42z" />
    <glyph glyph-name="Egrave" unicode="&#xc8;" horiz-adv-x="680" 
d="M661 299q-1 -55 -111 -133q-94 -67 -224 -123q-125 -54 -180 -54t-96 26q-46 30 -46 83q0 102 195 218q-57 23 -61 25q-36 22 -36 63q0 114 136 198q116 73 242 81q40 2 93 -24.5t53 -51.5q0 -4 -94 -55q-89 -49 -104 -55q6 21 6 41q0 90 -95 90q-38 0 -78 -31
q-42 -34 -42 -71q0 -62 53 -88q37 -17 143 -30v-9q-88 -16 -156 -59q-89 -55 -89 -129q0 -53 46 -92t101 -39q54 0 105 25q62 31 62 80q0 44 -39 59q-24 9 -76 9q92 55 166 93q58 30 61 29q29 -8 41 -17q25 -19 24 -59zM306 881q-19 6 -38.5 -15.5t-19.5 -44.5q0 -12 7 -18
l209 -99q22 3 22 17q0 7 -7 13z" />
    <glyph glyph-name="Iacute" unicode="&#xcd;" horiz-adv-x="612" 
d="M536 694q-2 -68 0 -362q0 -75 -18 -123q-31 -83 -170 -157q-130 -69 -225 -69q-42 0 -78 14q-46 19 -45 55q78 47 197 106q-10 -27 -10 -42q0 -28 22.5 -54.5t48.5 -26.5q65 0 86 49q12 29 12 104v399q-103 -46 -103 -113q0 -22 16 -37q8 -9 34 -24q-21 -31 -155 -127
q-21 0 -42 22t-21 43q0 82 185 207q161 108 266 136zM416 881q19 6 38.5 -15.5t19.5 -44.5q0 -12 -7 -18l-209 -99q-22 3 -22 17q0 7 7 13z" />
    <glyph glyph-name="Icircumflex" unicode="&#xce;" horiz-adv-x="612" 
d="M536 694q-2 -68 0 -362q0 -75 -18 -123q-31 -83 -170 -157q-130 -69 -225 -69q-42 0 -78 14q-46 19 -45 55q78 47 197 106q-10 -27 -10 -42q0 -28 22.5 -54.5t48.5 -26.5q65 0 86 49q12 29 12 104v399q-103 -46 -103 -113q0 -22 16 -37q8 -9 34 -24q-21 -31 -155 -127
q-21 0 -42 22t-21 43q0 82 185 207q161 108 266 136zM492 717l-14 -15l-128 60l-141 -57l-7 21l143 125z" />
    <glyph glyph-name="Idieresis" unicode="&#xcf;" horiz-adv-x="612" 
d="M536 694q-2 -68 0 -362q0 -75 -18 -123q-31 -83 -170 -157q-130 -69 -225 -69q-42 0 -78 14q-46 19 -45 55q78 47 197 106q-10 -27 -10 -42q0 -28 22.5 -54.5t48.5 -26.5q65 0 86 49q12 29 12 104v399q-103 -46 -103 -113q0 -22 16 -37q8 -9 34 -24q-21 -31 -155 -127
q-21 0 -42 22t-21 43q0 82 185 207q161 108 266 136zM194 792q0 24 17.5 41.5t41.5 17.5t42 -17.5t18 -41.5q0 -25 -17.5 -42t-42.5 -17t-42 17t-17 42zM404 792q0 24 17.5 41.5t41.5 17.5t42 -17.5t18 -41.5q0 -25 -17.5 -42t-42.5 -17t-42 17t-17 42z" />
    <glyph glyph-name="Igrave" unicode="&#xcc;" horiz-adv-x="612" 
d="M536 694q-2 -68 0 -362q0 -75 -18 -123q-31 -83 -170 -157q-130 -69 -225 -69q-42 0 -78 14q-46 19 -45 55q78 47 197 106q-10 -27 -10 -42q0 -28 22.5 -54.5t48.5 -26.5q65 0 86 49q12 29 12 104v399q-103 -46 -103 -113q0 -22 16 -37q8 -9 34 -24q-21 -31 -155 -127
q-21 0 -42 22t-21 43q0 82 185 207q161 108 266 136zM246 881q-19 6 -38.5 -15.5t-19.5 -44.5q0 -12 7 -18l209 -99q22 3 22 17q0 7 -7 13z" />
    <glyph glyph-name="Oacute" unicode="&#xd3;" horiz-adv-x="763" 
d="M691 440q0 -114 -79 -226q-75 -106 -192 -173q-122 -69 -240 -68q-89 1 -135 55q-43 51 -43 140q0 122 77 247q74 119 191 195q122 80 245 80q56 0 120 -54q-50 -31 -150 -100q5 40 -22.5 69.5t-69.5 29.5q-97 0 -166 -114q-59 -99 -59 -202q0 -101 60.5 -169t158.5 -68
q71 0 126 60t55 131q0 124 -115 171l187 126q51 -43 51 -130zM496 881q19 6 38.5 -15.5t19.5 -44.5q0 -12 -7 -18l-209 -99q-22 3 -22 17q0 7 7 13z" />
    <glyph glyph-name="Ocircumflex" unicode="&#xd4;" horiz-adv-x="763" 
d="M691 440q0 -114 -79 -226q-75 -106 -192 -173q-122 -69 -240 -68q-89 1 -135 55q-43 51 -43 140q0 122 77 247q74 119 191 195q122 80 245 80q56 0 120 -54q-50 -31 -150 -100q5 40 -22.5 69.5t-69.5 29.5q-97 0 -166 -114q-59 -99 -59 -202q0 -101 60.5 -169t158.5 -68
q71 0 126 60t55 131q0 124 -115 171l187 126q51 -43 51 -130zM612 717l-14 -15l-128 60l-141 -57l-7 21l143 125z" />
    <glyph glyph-name="Ograve" unicode="&#xd2;" horiz-adv-x="763" 
d="M691 440q0 -114 -79 -226q-75 -106 -192 -173q-122 -69 -240 -68q-89 1 -135 55q-43 51 -43 140q0 122 77 247q74 119 191 195q122 80 245 80q56 0 120 -54q-50 -31 -150 -100q5 40 -22.5 69.5t-69.5 29.5q-97 0 -166 -114q-59 -99 -59 -202q0 -101 60.5 -169t158.5 -68
q71 0 126 60t55 131q0 124 -115 171l187 126q51 -43 51 -130zM296 881q-19 6 -38.5 -15.5t-19.5 -44.5q0 -12 7 -18l209 -99q22 3 22 17q0 7 -7 13z" />
    <glyph glyph-name="Uacute" unicode="&#xda;" horiz-adv-x="702" 
d="M674 127q-41 -46 -109 -90q-79 -51 -128 -51q-45 0 -57 30q-5 12 -5 53l-1 135l-136 -130q-96 -86 -147 -86q-37 0 -64 30.5t-27 75.5q0 62 44.5 184.5t44.5 183.5q0 55 -38 87q-27 22 -50 22q175 111 183 111q27 -2 52.5 -44.5t25.5 -72.5q0 -60 -39 -166t-39 -161
q0 -107 64 -107q20 0 75 49t55 69v337l184 100v-516q0 -78 31 -78q10 0 23 8q22 19 58 48v-21zM396 881q19 6 38.5 -15.5t19.5 -44.5q0 -12 -7 -18l-209 -99q-22 3 -22 17q0 7 7 13z" />
    <glyph glyph-name="Ucircumflex" unicode="&#xdb;" horiz-adv-x="702" 
d="M674 127q-41 -46 -109 -90q-79 -51 -128 -51q-45 0 -57 30q-5 12 -5 53l-1 135l-136 -130q-96 -86 -147 -86q-37 0 -64 30.5t-27 75.5q0 62 44.5 184.5t44.5 183.5q0 55 -38 87q-27 22 -50 22q175 111 183 111q27 -2 52.5 -44.5t25.5 -72.5q0 -60 -39 -166t-39 -161
q0 -107 64 -107q20 0 75 49t55 69v337l184 100v-516q0 -78 31 -78q10 0 23 8q22 19 58 48v-21zM442 727l-14 -15l-128 60l-141 -57l-7 21l143 125z" />
    <glyph glyph-name="Ugrave" unicode="&#xd9;" horiz-adv-x="702" 
d="M674 127q-41 -46 -109 -90q-79 -51 -128 -51q-45 0 -57 30q-5 12 -5 53l-1 135l-136 -130q-96 -86 -147 -86q-37 0 -64 30.5t-27 75.5q0 62 44.5 184.5t44.5 183.5q0 55 -38 87q-27 22 -50 22q175 111 183 111q27 -2 52.5 -44.5t25.5 -72.5q0 -60 -39 -166t-39 -161
q0 -107 64 -107q20 0 75 49t55 69v337l184 100v-516q0 -78 31 -78q10 0 23 8q22 19 58 48v-21zM246 881q-19 6 -38.5 -15.5t-19.5 -44.5q0 -12 7 -18l209 -99q22 3 22 17q0 7 -7 13z" />
    <glyph glyph-name="circumflex" unicode="&#x2c6;" horiz-adv-x="702" 
d="M442 727l-14 -15l-128 60l-141 -57l-7 21l143 125z" />
    <glyph glyph-name="tilde" unicode="&#x2dc;" horiz-adv-x="423" 
d="M430 805q-45 -94 -116 -94q-30 0 -86 23.5t-86 23.5q-59 0 -89 -38q-4 1 -15 8q42 98 137 98q28 0 77.5 -22t75.5 -22q43 0 80 30z" />
    <glyph glyph-name="macron" unicode="&#xaf;" horiz-adv-x="389" 
d="M347 779h-299v56h299v-56z" />
    <glyph glyph-name="macron" unicode="&#x2c9;" horiz-adv-x="389" 
d="M347 779h-299v56h299v-56z" />
    <glyph glyph-name="cedilla" unicode="&#xb8;" horiz-adv-x="565" 
d="M169 -74l-1 -20q11 3 23 3q31 0 31 -28q0 -14 -13 -23t-29 -9q-21 0 -53 13l-15 -38q38 -16 80 -16q44 0 77 17q41 21 41 60q0 29 -20.5 46.5t-49.5 17.5q-9 0 -35 -4l19 44l-25 -1z" />
    <glyph glyph-name="Scaron" unicode="&#x160;" 
 />
    <glyph glyph-name="scaron" unicode="&#x161;" 
 />
    <glyph glyph-name="brokenbar" unicode="&#xa6;" 
 />
    <glyph glyph-name="Eth" unicode="&#xd0;" 
 />
    <glyph glyph-name="eth" unicode="&#xf0;" 
 />
    <glyph glyph-name="Yacute" unicode="&#xdd;" 
 />
    <glyph glyph-name="yacute" unicode="&#xfd;" 
 />
    <glyph glyph-name="Thorn" unicode="&#xde;" 
 />
    <glyph glyph-name="thorn" unicode="&#xfe;" 
 />
    <glyph glyph-name="minus" unicode="&#xad;" 
 />
    <glyph glyph-name="minus" unicode="&#x2212;" 
 />
    <glyph glyph-name="multiply" unicode="&#xd7;" 
 />
    <glyph glyph-name="onesuperior" unicode="&#xb9;" 
 />
    <glyph glyph-name="twosuperior" unicode="&#xb2;" 
 />
    <glyph glyph-name="threesuperior" unicode="&#xb3;" 
 />
    <glyph glyph-name="onehalf" unicode="&#xbd;" 
 />
    <glyph glyph-name="onequarter" unicode="&#xbc;" 
 />
    <glyph glyph-name="threequarters" unicode="&#xbe;" 
 />
    <glyph glyph-name="Lslash" unicode="&#x141;" 
 />
    <glyph glyph-name="lslash" unicode="&#x142;" 
 />
    <glyph glyph-name="HT" 
 />
    <glyph glyph-name="LF" 
 />
    <glyph glyph-name="nonmarkingreturn" 
 />
    <glyph glyph-name="Zcaron" unicode="&#x17d;" 
 />
    <glyph glyph-name="zcaron" unicode="&#x17e;" 
 />
    <glyph glyph-name="DLE" 
 />
    <glyph glyph-name="DC1" 
 />
    <glyph glyph-name="DC2" 
 />
    <glyph glyph-name="DC3" 
 />
    <glyph glyph-name="DC4" 
 />
    <glyph glyph-name="RS" 
 />
    <glyph glyph-name="US" 
 />
    <glyph glyph-name="DEL" horiz-adv-x="1000" 
 />
    <glyph glyph-name="notequal" unicode="&#x2260;" 
 />
    <glyph glyph-name="infinity" unicode="&#x221e;" 
 />
    <glyph glyph-name="lessequal" unicode="&#x2264;" horiz-adv-x="21" 
 />
    <glyph glyph-name="greaterequal" unicode="&#x2265;" 
 />
    <glyph glyph-name="partialdiff" unicode="&#x2202;" horiz-adv-x="561" 
d="M494 559q0 29 -20.5 48t-49.5 19q-61 0 -109 -133q-37 -104 -37 -151q0 -20 7 -26q64 9 136.5 93t72.5 150zM36 128l51 21q-1 8 -1 15q0 22 1 66l12 29q2 -1 -35 -1q-12 0 -32.5 7t-23.5 12q-1 3 3.5 7.5t9.5 4.5q4 0 30 -5t28.5 -5t9.5 -1q6 -1 9 0q5 1 7 4
q61 144 190 272q146 145 267 145q39 0 71 -24q34 -27 34 -64q0 -70 -88 -156q-71 -70 -162 -120q-67 -27 -136 -60q-4 -23 2 -46l194 79v-42l-177 -72q25 -37 72 -62q44 -23 82 -23q29 0 50.5 10t31.5 11q-50 -49 -126 -98q-94 -59 -147 -59q-58 0 -106 42q-43 39 -61 95
l-60 -24v42z" />
    <glyph glyph-name="summation" unicode="&#x2211;" horiz-adv-x="716" 
d="M665 321q0 -53 -100 -136q-87 -74 -204 -135t-169 -61q-65 0 -119 22q-72 29 -72 85q0 14 73 66q62 43 92 59q5 -155 137 -155q50 0 115 35q74 40 74 84q0 55 -113 71l-208 24q-113 22 -113 92q0 69 150 196q147 125 218 125q36 0 72 -27t56 -27q8 0 22 6q20 8 23 8l1 -8
q-144 -107 -182 -107q-33 0 -73.5 31t-57.5 31q-26 0 -63 -45t-37 -72q0 -44 124 -54l230 -18q124 -21 124 -90zM252 835l14 16l128 -60l141 57l9 -20l-151 -114z" />
    <glyph glyph-name="product" unicode="&#x220f;" horiz-adv-x="598" 
d="M561 261q0 -59 -81 -130q-68 -57 -166 -104q-91 -43 -130 -43q-20 0 -51 13q-39 16 -39 37q0 11 76 63q92 63 93 65h14q1 -4 1 -8q0 -7 -5 -19.5t-5 -17.5q0 -23 17 -39.5t37 -16.5q28 0 59.5 29t31.5 53q0 38 -82 68q-46 12 -92 25l-283 -244q-2 2 -24 5t-22 4l290 244
q-28 7 -46 39q-16 28 -16 58q0 61 96 132q86 63 137 67q2 -2 5 -4t5 -4l-34 -32q-19 -21 -19 -36q0 -37 60 -73q57 -29 113 -58q60 -36 60 -73zM158 665l14 15l129 -60l140 57l9 -20l-150 -114z" />
    <glyph glyph-name="pi" unicode="&#x3c0;" horiz-adv-x="612" 
d="M543 246q0 -49 -1 -63q-3 -32 -12 -66q-28 -99 -167 -237q-149 -147 -249 -148q-40 0 -80 17q-50 22 -49 55v8l182 94q-8 -27 -8 -35q0 -71 50 -71q53 0 100 76q42 69 42 125v174l-17 -21q-56 -50 -113 -100q-76 -63 -124 -63q-42 0 -73 64q-26 53 -26 96q0 56 30 159.5
t30 156.5q0 42 -11 56q-8 10 -44 22q24 31 86 73q84 58 93 65q26 -2 43 -44q15 -33 15 -63q0 -49 -31.5 -142t-31.5 -142q0 -50 20 -92q25 -52 68 -52q44 0 67 43q19 33 17 67v306q83 54 195 123zM366 881q19 6 38.5 -15.5t19.5 -44.5q0 -12 -7 -18l-209 -99q-22 3 -22 17
q0 7 7 13z" />
    <glyph glyph-name="integral" unicode="&#x222b;" horiz-adv-x="692" 
d="M679 165l-99 -60q-2 -20 -7 -69q-7 -89 -99 -194q-85 -96 -202 -164q-120 -69 -205 -69q-74 0 -74 63q0 150 386 378q4 2 6 34q1 30 -2 47q-67 -49 -135 -98q-83 -55 -133 -52q-56 3 -56 98q0 12 1 25.5l1 13.5v296q41 26 193 86l-1 -303q-1 -94 31 -94q23 0 56 33
q30 30 39 55v228l197 81v-365q33 22 99 60zM379 -45q0 -9 2 32q1 26 -2 28q-101 -59 -141 -99q-51 -54 -51 -122q0 -32 14 -60q18 -34 50 -31q70 7 105 122q23 73 23 130zM396 721q19 6 38.5 -15.5t19.5 -44.5q0 -12 -7 -18l-209 -99q-22 3 -22 17q0 7 7 13z" />
    <glyph glyph-name="Omega" unicode="&#x3a9;" horiz-adv-x="808" 
d="M19 443h81q43 112 147 177t232 65q152 0 220 -84q29 -35 38 -85l-127 12q0 107 -111 121q-12 2 -24 2q-77 0 -133 -65q-48 -54 -75 -143h162l-5 -46h-168q-6 -28 -9 -52l-1 -12h171l-5 -46h-169q-12 -253 177 -253q97 0 155 41q32 22 89 95h38q-53 -101 -118 -140
q-72 -43 -206 -43q-143 0 -224 80.5t-82 219.5h-71l5 46h68q4 34 11 64h-71z" />
    <glyph glyph-name="Omega" unicode="&#x2126;" horiz-adv-x="808" 
d="M19 443h81q43 112 147 177t232 65q152 0 220 -84q29 -35 38 -85l-127 12q0 107 -111 121q-12 2 -24 2q-77 0 -133 -65q-48 -54 -75 -143h162l-5 -46h-168q-6 -28 -9 -52l-1 -12h171l-5 -46h-169q-12 -253 177 -253q97 0 155 41q32 22 89 95h38q-53 -101 -118 -140
q-72 -43 -206 -43q-143 0 -224 80.5t-82 219.5h-71l5 46h68q4 34 11 64h-71z" />
    <glyph glyph-name="radical" unicode="&#x221a;" 
 />
    <glyph glyph-name="approxequal" unicode="&#x2248;" 
 />
    <glyph glyph-name="approxequal" unicode="&#x22f2;" 
 />
    <glyph glyph-name="Delta" unicode="&#x394;" 
 />
    <glyph glyph-name="Delta" unicode="&#x2206;" 
 />
    <glyph glyph-name="lozenge" unicode="&#x25ca;" horiz-adv-x="371" 
d="M-2 349l163 163l163 -163l-163 -164z" />
    <glyph glyph-name="fraction" unicode="&#x2044;" 
 />
    <glyph glyph-name="fi" unicode="&#xf001;" 
 />
    <glyph glyph-name="fl" unicode="&#xf002;" 
 />
    <glyph glyph-name="apple" unicode="&#xf000;" horiz-adv-x="2" 
 />
    <glyph glyph-name="dotlessi" unicode="&#x131;" horiz-adv-x="296" 
d="M276 110q0 -7 -45 -44q-95 -77 -147 -77q-70 0 -67 114q2 82 -2 274l171 99v-346q0 -46 29 -46q7 0 27 15q26 20 27 21q7 -7 7 -10z" />
    <glyph glyph-name="breve" unicode="&#x2d8;" horiz-adv-x="306" 
d="M138 782q44 -58 96 -66q48 14 94 66q3 3 -14 14q-60 -37 -80 -34q-27 -5 -85 37z" />
    <glyph glyph-name="dotaccent" unicode="&#x2d9;" horiz-adv-x="212" 
d="M90 864q0 30 19.5 52t49.5 22q29 0 48.5 -22.5t19.5 -51.5q0 -30 -19.5 -52.5t-48.5 -22.5q-30 0 -49.5 22.5t-19.5 52.5z" />
    <glyph glyph-name="ring" unicode="&#x2da;" horiz-adv-x="802" 
d="M402 904q43 0 73.5 -29.5t30.5 -72.5t-30.5 -72.5t-73.5 -29.5t-73 29.5t-30 72.5q0 42 30.5 72t72.5 30zM402 864q-26 0 -44.5 -18t-18.5 -44t18.5 -44t44.5 -18q27 0 45.5 17.5t18.5 44.5q0 26 -19 44t-45 18z" />
    <glyph glyph-name="hungarumlaut" unicode="&#x2dd;" horiz-adv-x="301" 
d="M66 729l-15 16l46 87q16 31 34 31q33 0 33 -41q0 -25 -39 -52zM179 729l-15 16l47 87q17 31 34 31q14 0 23 -13t9 -28q0 -25 -39 -52z" />
    <glyph glyph-name="ogonek" unicode="&#x2db;" horiz-adv-x="406" 
d="M206 0h51q-62 -54 -62 -94q0 -44 46 -44q29 0 70 20l12 -35q-64 -46 -127 -46q-38 0 -57 7q-10 4 -25 18q-18 16 -18 57q0 39 110 117z" />
    <glyph glyph-name="caron" unicode="&#x2c7;" horiz-adv-x="408" 
d="M52 835l14 16l128 -60l141 57l9 -20l-150 -127z" />
    </font>
</defs>
</svg>
