<?xml version="1.0" standalone="no"?>
<!DOCTYPE svg PUBLIC "-//W3C//DTD SVG 1.1//EN" "http://www.w3.org/Graphics/SVG/1.1/DTD/svg11.dtd" >
<svg>
<metadata>
Created by FontForge 20120731 at Tue Apr 16 16:17:56 2019
 By www-data
Digitized by Dan X. Solo. Software (c) 2001 by Dover Publications, Inc., New York.
</metadata>
<defs>
<font id="ZingoNormal" horiz-adv-x="20" >
  <font-face 
    font-family="Zingo"
    font-weight="400"
    font-stretch="normal"
    units-per-em="1000"
    panose-1="0 0 4 0 0 0 0 0 0 0"
    ascent="800"
    descent="-200"
    x-height="445"
    cap-height="683"
    bbox="-74 -233 975 847"
    underline-thickness="20"
    underline-position="-123"
    unicode-range="U+0020-2265"
  />
<missing-glyph horiz-adv-x="500" 
d="M63 0v800h375v-800h-375zM125 63h250v675h-250v-675z" />
    <glyph glyph-name=".notdef" horiz-adv-x="500" 
d="M63 0v800h375v-800h-375zM125 63h250v675h-250v-675z" />
    <glyph glyph-name=".null" horiz-adv-x="0" 
 />
    <glyph glyph-name="glyph2" horiz-adv-x="202" 
 />
    <glyph glyph-name="space" unicode=" " horiz-adv-x="202" 
 />
    <glyph glyph-name="exclam" unicode="!" horiz-adv-x="271" 
d="M173 226l-101 -32q-20 111 -20 170l-9 262l165 61l-15 -312zM239 70l-54 -44q-36 -28 -55 -28q-8 0 -53.5 29.5t-50.5 42.5q21 18 61.5 47t45.5 28q18 -4 47.5 -27.5t58.5 -47.5z" />
    <glyph glyph-name="quotedbl" unicode="&#x22;" horiz-adv-x="311" 
d="M230 419l-56 -17q-12 67 -12 103l-6 157l103 31l-13 -182zM84 421l-60 -19q-12 67 -12 103l-6 157l99 36l-9 -187z" />
    <glyph glyph-name="numbersign" unicode="#" horiz-adv-x="547" 
d="M170 235h132l45 204h-133zM457 235l-20 -86h-96l-33 -148h-57l32 148h-132l-33 -148h-57l32 148h-86l20 86h85l45 204h-90l20 86h89l32 147h57l-32 -147h133l32 147h57l-32 -147h94l-20 -86h-93l-44 -204h97z" />
    <glyph glyph-name="dollar" unicode="$" horiz-adv-x="433" 
d="M194 673h42v-60q112 -1 156 -91q-58 -19 -127 -52q-21 77 -104 77q-27 0 -27 -45q0 -68 69 -81l128 -12q68 -14 68 -84q0 -86 -163 -144v-95h-42v82q-41 -11 -64 -11q-94 0 -124 94l148 52q4 -38 23 -62.5t44 -24.5q22 0 32 33q6 19 6 36q0 59 -73 59q-3 0 -36 -3t-37 -3
q-113 0 -113 76q0 46 70 107q60 53 124 81v71z" />
    <glyph glyph-name="percent" unicode="%" horiz-adv-x="734" 
d="M683 229q0 -161 -106 -194l-32 -20q-29 -17 -53 -17q-62 0 -87 81q-16 48 -16 113q0 22 8 62.5t15 55.5q17 37 78 71q57 32 94 32q58 0 84 -78q15 -48 15 -106zM589 189q0 -2 -1 10.5t-1 38.5q4 13 -13 65q-21 63 -59 63q-26 0 -29 -113l-2 -61q0 -42 18 -85
q23 -57 63 -58q8 14 16 60t8 80zM293 489q0 -161 -106 -194l-32 -20q-29 -17 -53 -17q-62 0 -87 81q-16 48 -16 113q0 22 8 62.5t15 55.5q17 37 78 71q57 32 94 32q58 0 84 -78q15 -48 15 -106zM199 449q0 -2 -1 10.5t-1 38.5q4 13 -13 65q-21 63 -59 63q-26 0 -29 -113
l-2 -61q0 -42 18 -85q23 -57 63 -58q8 14 16 60t8 80zM532 678h52l-430 -677h-52z" />
    <glyph glyph-name="ampersand" unicode="&#x26;" horiz-adv-x="640" 
d="M603 127q-2 -6 -61 -66q-63 -64 -80 -64q-23 0 -68 40.5t-42 40.5q-3 0 -65 -43t-111 -43q-65 0 -121 43q-62 49 -62 123q0 55 44 100q26 26 82 58q44 25 44 35q0 -6 -14 27.5t-14 71.5q0 48 23 86q19 30 100.5 85t105.5 55q40 0 76 -46q33 -41 33 -78q0 -56 -67 -100
q-52 -31 -103 -62q21 -52 124 -175q18 10 18 66q0 24 -7 51q-9 37 -25 37q-1 0 -23 -5q17 17 68 52.5t58 35.5q24 0 35 -37q6 -22 6 -45q0 -48 -26 -94q-17 -30 -49 -63q-26 -27 -26 -30q0 -15 38 -50q35 -32 46 -32q13 0 30.5 13.5t32.5 12.5zM345 490q0 25 -13 58
q-19 50 -53 50q-32 0 -32 -55q0 -29 12 -69t28 -63q58 10 58 79zM328 112l-152 212q-44 -30 -44 -88t35 -101q38 -48 101 -48q47 0 60 25z" />
    <glyph glyph-name="quotesingle" unicode="'" horiz-adv-x="158" 
d="M84 421l-60 -19q-12 67 -12 103l-6 157l99 36l-9 -187z" />
    <glyph glyph-name="parenleft" unicode="(" horiz-adv-x="221" 
d="M113 672h58q-62 -109 -63 -236q-1 -72 23 -190q40 -200 47 -245h-40q-53 80 -91 194q-42 129 -43 238q-1 160 109 239z" />
    <glyph glyph-name="parenright" unicode=")" horiz-adv-x="230" 
d="M79 1h-58q52 126 54 236q2 194 -51 435h41q49 -61 81 -189q31 -123 32 -243q1 -167 -99 -239z" />
    <glyph glyph-name="asterisk" unicode="*" horiz-adv-x="374" 
d="M112 510q-6 3 -11 5l-83 45l11 62l94 -61l11 -8v11l-3 95l59 22l-5 -113l-2 -13q5 3 9 6l81 50l48 -40l-100 -52l-13 -5q6 -3 11 -5l83 -45l-10 -62l-95 60l-11 9q0 -7 1 -12l3 -94l-59 -22l5 112l2 14q-6 -4 -10 -6l-80 -50l-49 40l100 52z" />
    <glyph glyph-name="plus" unicode="+" horiz-adv-x="570" 
d="M207 580h81v-209h209v-81h-209v-209h-81v209h-209v81h209v209z" />
    <glyph glyph-name="comma" unicode="," horiz-adv-x="235" 
d="M157 75q0 -34 -66 -81q-45 -33 -77 -46l-2 13q7 2 27 18t20 25q0 7 -27 38q-16 18 -31 35q82 65 89 65q18 0 42.5 -27t24.5 -40z" />
    <glyph glyph-name="hyphen" unicode="-" horiz-adv-x="314" 
d="M228 200h-223l41 87l229 -1z" />
    <glyph glyph-name="hyphen" unicode="&#x2010;" horiz-adv-x="314" 
d="M228 200h-223l41 87l229 -1z" />
    <glyph glyph-name="period" unicode="." horiz-adv-x="245" 
d="M189 71q-27 -18 -55 -36q-39 -24 -63 -24q-21 0 -53 24q-27 21 -44 42q12 12 63.5 43t58.5 31q6 0 93 -80z" />
    <glyph glyph-name="slash" unicode="/" horiz-adv-x="262" 
d="M158 672h57l-147 -671h-57z" />
    <glyph glyph-name="zero" unicode="0" horiz-adv-x="540" 
d="M491 375q0 -269 -176 -323l-54 -34q-48 -28 -89 -28q-102 0 -145 134q-26 81 -26 189q0 37 13 104t25 92q28 62 130 119q95 54 157 54q97 0 139 -131q26 -80 26 -176zM334 309q0 -5 -1.5 16t-1.5 65q2 7 -9 57q-13 63 -36 102q-31 54 -74 54q-28 0 -42 -91q-7 -49 -8 -98
l-3 -101q0 -70 29 -142q40 -95 106 -97q14 24 27 101t13 134z" />
    <glyph glyph-name="one" unicode="1" horiz-adv-x="393" 
d="M246 80q1 -33 -139 -94v513q0 29 -7 39q-10 12 -47 25l194 124z" />
    <glyph glyph-name="two" unicode="2" horiz-adv-x="499" 
d="M464 127q-25 -39 -87 -84t-98 -51q-26 -4 -55 -4q-31 0 -141 16q-33 0 -50 -12l-16 -9q-7 7 -7 12q0 -3 60 72q68 87 110 168q60 114 60 206q0 49 -13 88q-20 64 -66 65q-73 2 -137 -74l-18 4q30 67 104 113q69 44 131 44q68 0 114 -53t46 -119q0 -93 -69 -199
q-46 -69 -167 -202q14 0 45.5 3.5t33.5 3.5q-3 0 59 -9q59 -7 79 -6q17 2 36 13t46 14z" />
    <glyph glyph-name="three" unicode="3" horiz-adv-x="486" 
d="M452 205q0 -78 -117 -156q-103 -69 -167 -69q-41 0 -94 27q-47 24 -64 46l111 109q-1 0 21 -19q25 -23 53 -36q41 -19 86 -18q34 2 38 3q24 7 25 38q1 62 -60 106q-45 31 -118 51q-36 8 -71 16q11 21 23.5 44.5t28.5 40.5q43 5 85 9q77 15 77 70q0 50 -69 82
q-55 26 -99 26q-30 0 -53 -14q-7 -4 -67 -49q-4 4 -4 12q0 5 64 70t86 81q28 19 62 19q59 0 124 -39q75 -45 75 -104q0 -75 -140 -163q164 -89 164 -183z" />
    <glyph glyph-name="four" unicode="4" horiz-adv-x="566" 
d="M562 270l-38 -58q-27 -37 -56 -53q0 -35 -1 -100q-65 -37 -157 -77q1 49 -2 159q-32 -15 -75 -15q-21 0 -45 4q2 0 -40 9t-79 9q1 0 -67 -14q70 143 307 493q28 19 53 33q62 34 102 41v-451q1 -4 17 -2q25 2 21 2q5 0 60 20zM312 403l2 60q2 57 0 112l-190 -325
q26 6 53 6q16 0 48 -6t53 -6q16 0 33 3z" />
    <glyph glyph-name="five" unicode="5" horiz-adv-x="511" 
d="M462 255q0 -62 -63 -131q-52 -56 -129 -100q-70 -41 -103 -41q-32 0 -80 16q-72 25 -87 70q-4 12 37 61t53 49q-1 0 22 -23q27 -27 56 -43q42 -23 87 -23q42 0 52 30q3 9 3 53q0 167 -144 167q-6 0 -57 -11l-35 26v200q39 70 86 105q36 27 66 27q4 0 67 -7.5t67 -7.5
q50 0 102 17q-48 -76 -88 -100t-119 -24q-3 0 -34 2t-34 2q-20 0 -14 1q-10 -1 -12 -12v-126q74 27 97 27q80 0 142 -60.5t62 -143.5z" />
    <glyph glyph-name="six" unicode="6" horiz-adv-x="540" 
d="M3 307q0 83 16 154q18 85 51 111q40 31 117 67q94 45 145 45q47 0 84 -25q42 -29 60 -83q-14 -9 -73 -55q-48 -37 -53 -37q2 0 -44 57.5t-80 57.5q-36 0 -52 -101q-10 -57 -10 -106q0 -24 2 -26q26 30 79.5 53t92.5 23q83 0 123 -70q30 -52 30 -122q0 -102 -50 -146
q-32 -29 -107 -68q-92 -47 -142 -47q-116 0 -162 136q-27 78 -27 182zM164 294q-6 -61 15 -133q29 -103 102 -103q30 0 47 63q12 42 12 70q0 50 -18 102q-27 78 -80 78q-32 0 -53.5 -23.5t-24.5 -53.5z" />
    <glyph glyph-name="seven" unicode="7" horiz-adv-x="478" 
d="M242 28l-169 -46q13 70 84 264q88 240 155 317q-45 -18 -117 -18q-3 0 -35.5 5t-36.5 5q-45 0 -76 -12l-52 -22q-6 7 29 51q81 103 159 103q3 0 60 -6.5t63 -6.5q78 0 136 15q-96 -257 -115 -314q-60 -180 -85 -335z" />
    <glyph glyph-name="eight" unicode="8" horiz-adv-x="563" 
d="M482 120q-63 -62 -147.5 -98.5t-162.5 -36.5q-76 0 -118 43t-42 117q0 49 27.5 84.5t102.5 83.5q-103 38 -103 136q0 104 102 170q94 60 216 59q57 -1 98 -41.5t41 -95.5q0 -31 -42.5 -76.5t-91.5 -69.5q65 -16 109 -47q49 -34 49 -121q0 -70 -38 -107zM249 630
q-32 0 -51 -53q-13 -39 -13 -72q0 -59 27 -81.5t105 -27.5q25 51 25 82q0 42 -20 89q-27 63 -73 63zM195 308q-38 -49 -38 -107q0 -50 27 -99q36 -65 99 -65q42 0 67 55q19 42 19 84q0 139 -174 132z" />
    <glyph glyph-name="nine" unicode="9" horiz-adv-x="561" 
d="M501 372q0 -211 -61 -258q-41 -32 -122 -71q-100 -48 -151 -48q-46 0 -84 25q-42 28 -60 83q14 9 73 54q48 37 53 37q-2 0 44 -57.5t80 -57.5q36 0 52 101q10 58 10 106q0 19 -5 26q-113 -76 -169 -76q-83 0 -123 70q-30 52 -30 122q0 103 50 147q32 28 107 67
q92 48 142 48q116 0 165 -136q29 -80 29 -182zM335 385q0 49 -22 122q-34 113 -95 113q-30 0 -47 -62q-12 -43 -12 -71q0 -47 21 -103q30 -81 84 -81q31 0 52 27q19 24 19 55z" />
    <glyph glyph-name="colon" unicode=":" horiz-adv-x="245" 
d="M196 340q-1 -8 -44 -40t-58 -32q-12 0 -44 21q-42 28 -47 30q8 12 51 42t48 30t41.5 -20t52.5 -31zM196 70q-1 -8 -44 -40t-58 -32q-12 0 -44 21q-42 28 -47 30q8 12 51 42t48 30t41.5 -20t52.5 -31z" />
    <glyph glyph-name="semicolon" unicode=";" horiz-adv-x="245" 
d="M198 84l-142 -134q-11 5 -12 6t-6 13q6 2 25 21.5t19 31.5q0 7 -33 35t-34 29q7 9 96 64zM196 340q-1 -8 -44 -40t-58 -32q-12 0 -44 21q-42 28 -47 30q8 12 51 42t48 30t41.5 -20t52.5 -31z" />
    <glyph glyph-name="less" unicode="&#x3c;" horiz-adv-x="400" 
d="M276 618l57 -58l-219 -218l219 -219l-57 -57q-37 37 -140.5 139.5t-136.5 135.5z" />
    <glyph glyph-name="equal" unicode="=" horiz-adv-x="478" 
d="M388 180h-383l41 86h384zM388 350h-383l41 86h384z" />
    <glyph glyph-name="greater" unicode="&#x3e;" horiz-adv-x="400" 
d="M56 66l-57 57l218 219l-218 218l57 58q36 -37 140 -139.5t137 -135.5z" />
    <glyph glyph-name="question" unicode="?" horiz-adv-x="486" 
d="M434 539q0 -10 -9 -49q-6 -24 -48 -76q-51 -63 -60 -78q-27 -47 -32 -110q-75 -40 -109 -40q-6 0 -7 2q-7 14 -7 30q0 37 56.5 137.5t56.5 151.5q0 24 -16 56q-20 44 -53 44t-50 -76q-5 -18 -14 -91q-49 -12 -132 -46q-6 22 -6 34q0 24 13 62q16 45 36 65
q32 32 123.5 75.5t124.5 43.5q57 0 95 -41.5t38 -93.5zM339 66q-16 -16 -44 -32l-46 -26q-26 -16 -32 -16q-11 0 -52 36q-26 23 -53 46l127 71q4 -2 100 -79z" />
    <glyph glyph-name="at" unicode="@" horiz-adv-x="983" 
d="M599 168q-59 -97 -162 -98q-89 -1 -134 74q-24 40 -24 99q0 73 36 142q31 59 81 100q57 47 117 49q103 3 137 -81l19 62h125l-65 -230q-23 -81 -23 -105q0 -19 9 -30q14 -14 34 -14q5 0 16 2q74 13 118 121q25 61 25 130q0 153 -115 229q-69 46 -166 59q-51 7 -80 6
q-231 -10 -344 -217q-47 -86 -47 -205q0 -187 125 -283q96 -74 228 -82q16 -1 30 -1q157 0 317 99l26 -43q-177 -112 -377 -112q-212 0 -335 137q-98 109 -110 258q-2 24 -2 39q0 231 195 372q83 59 200 80q56 10 112 10q190 0 302 -100q76 -69 94 -199q3 -22 3 -42
q0 -80 -28 -152q-30 -80 -87 -124q-60 -47 -134 -47q-65 0 -95 40q-16 20 -21 57zM412 206q-2 -50 32 -66q10 -5 27 -5q53 0 89 68q46 87 58 178q0 87 -62 87q-17 0 -28 -6q-58 -31 -98 -170q-17 -61 -18 -86z" />
    <glyph glyph-name="A" unicode="A" horiz-adv-x="562" 
d="M558 62l-80 -54q-46 -29 -71 -29q-28 0 -56 34q-22 27 -30 53q-42 137 -44 137q-49 -16 -151 -26q-9 -19 -24 -50q-22 -45 -45 -89q-25 -50 -39 -59q0 1 -11.5 4t-11.5 8q0 2 23 53q25 56 32 80q16 52 76 271q8 29 37 101q24 37 24 50q0 24 -9 39q-16 -11 -49 -27l-11 14
q13 13 85 61q77 52 86 48q15 -6 56 -171q57 -230 67 -264l28 -94q34 -92 64 -92q8 0 23 7.5t26 7.5q0 -2 2.5 -7t2.5 -6zM262 267l-6 20q0 8 -17 79q-18 77 -29 104q-25 -43 -52 -139l-20 -88q13 4 69 10q47 4 55 14z" />
    <glyph glyph-name="B" unicode="B" horiz-adv-x="597" 
d="M542 235q0 -34 -20 -63q-17 -25 -61 -61q-84 -71 -139.5 -96t-132.5 -25l-38.5 3t-59.5 3q1 0 -14.5 -2t-17.5 -1q8 40 8 93v437q28 23 85 72q-2 2 -22 0q-24 -3 -25 -3q-9 0 -52 -11q-39 -12 -54 -18q27 29 50 51q56 52 79 60q52 16 132 16q185 0 238 -116
q11 -25 11 -36q0 -19 -32 -66q-28 -41 -35 -44q-31 -20 -66 -57q10 0 23 -2q63 -13 101 -48q42 -36 42 -86zM373 457q0 36 -46.5 79.5t-84.5 47.5q-8 1 -26 8q0 4 0 -258h20q43 20 86 41q51 32 51 82zM418 172q0 51 -71 85q-60 29 -118 29q-9 0 -10 -1q-5 -3 -8 -18l-2 -167
h36.5h25.5q147 0 147 72z" />
    <glyph glyph-name="C" unicode="C" horiz-adv-x="516" 
d="M466 472q-25 -17 -51 -34q-33 -21 -51 -27q-3 45 -63 117t-100 72q-21 0 -34 -102q-9 -74 -9 -123q0 -80 18 -146q31 -116 109 -116q30 0 78 15q53 17 88 41q2 0 6.5 -4t4.5 -10q0 -12 -43 -65q-17 -22 -55.5 -51t-62.5 -40q-18 -7 -67 -7q-212 0 -212 329q0 67 12 133
q12 62 48 107q14 17 52 40q49 29 60 38q68 52 100 52q14 0 42 -18q24 -15 40 -31q65 -64 90 -170z" />
    <glyph glyph-name="D" unicode="D" horiz-adv-x="555" 
d="M491 355q0 -78 -16 -115q-26 -60 -113.5 -137t-152.5 -102q-19 -7 -50 -9q-10 1 -55 9q-34 6 -56 6q-7 11 -7 19l-1 528q0 46 -9 89q47 10 95 20q79 16 114 16q91 0 138 -30q61 -40 91 -142q22 -75 22 -152zM349 294q0 99 -11 149q-22 93 -88 129q-21 11 -34 11
q-7 0 -33 -5v-462q73 -12 84 -12q33 0 51 16q31 26 31 174z" />
    <glyph glyph-name="E" unicode="E" horiz-adv-x="512" 
d="M466 672q-8 -17 -24 -35q-65 -71 -133 -71q-4 0 -51 6.5t-49 7.5q-17 1 -19 -5q-4 -12 -5 -14l1 -181q8 -3 23 6q19 11 26 12q39 7 96 7q28 -9 55 -9q15 0 38.5 3.5t31.5 3.5q-45 -75 -94 -101q-39 -21 -109 -21q-3 0 -28 6.5t-34 6.5q-4 0 -5 -1v-55q0 -7 -1 -24t-1 -26
q0 -72 55 -72h43q10 0 74 7q74 7 102 13l-13 -29q-39 -53 -171 -106q-30 -12 -106 -8q-96 6 -114 38q-22 39 -25 115q1 -14 1 133q0 218 -1 118q0 68 11 129q6 32 94 97q78 58 160 58q117 -11 132 -11q22 0 40 2z" />
    <glyph glyph-name="F" unicode="F" horiz-adv-x="478" 
d="M467 674q-110 -111 -166 -116q-73 -7 -100 2q-24 -2 -24 -28v-143q55 12 85 12q14 1 35 -3.5t29 -4.5q7 0 14 2q4 -1 37.5 7.5t41.5 9.5l-9 -17l-20 -32q-33 -53 -89 -70q-5 -2 -26 1q-26 3 -40 3q-29 0 -46 -10q-1 -1 -12 -11v-180q0 -43 -32 -56t-116 -52v505
q0 39 42 82q6 7 83 73q10 8 27 14q24 10 85 7q84 -3 85 -2q31 0 95 11z" />
    <glyph glyph-name="G" unicode="G" horiz-adv-x="593" 
d="M233 -1q-106 0 -161 94q-47 79 -47 192q0 76 11 122q23 99 51 138t116 90q93 55 143 55t91 -46q33 -38 50 -93q-49 -23 -144 -73q-4 43 -32 84q-32 47 -72 47q-38 0 -59 -111q-15 -77 -15 -141q0 -98 35 -169q45 -91 134 -91q46 0 46 160q0 45 -13 45t-34.5 1.5
t-34.5 1.5h-73q25 31 56 61q35 35 46 35h113q61 0 71.5 -13t10.5 -75q0 -94 -1 -101q-4 -27 -35 -62q-27 -31 -55 -48q-47 -31 -142 -91q-22 -12 -56 -12z" />
    <glyph glyph-name="H" unicode="H" horiz-adv-x="568" 
d="M487 60q-33 -13 -169 -75q9 29 9 90l1 235l-143 -26v-232q-52 -24 -157 -67q2 33 8 99l1 496q-1 9 -8 27q15 16 158 73l2 -323l142 24l-1 209q0 2 -4.5 15t-4.5 17q45 21 166 61v-623z" />
    <glyph glyph-name="I" unicode="I" horiz-adv-x="249" 
d="M184 72l-155 -83q9 28 9 129v495l146 70q4 -261 0 -611z" />
    <glyph glyph-name="J" unicode="J" horiz-adv-x="460" 
d="M408 688q-19 -52 -12 -104v-395q0 -75 -34 -111q-63 -67 -174 -89q-39 -7 -48 -7q-58 0 -130 94q42 28 127 85q7 -34 30 -72q27 -44 49 -43q23 7 26 51q1 36 3 71v323q0 90 -12 119q172 81 175 78z" />
    <glyph glyph-name="K" unicode="K" horiz-adv-x="638" 
d="M481 -15q-36 2 -67 37q-19 23 -101 147q-26 40 -82 123l-17 -17q3 -146 -1 -211q-27 -18 -86 -42q-45 -19 -91 -37q11 35 15 72v480q0 47 -9 70q44 22 181 75q-9 -36 -9 -56q0 -228 1 -234q29 38 90.5 104.5t88.5 101.5q6 7 8 40q155 60 155 50q0 -16 -218 -256l195 -297
l10 -18q9 -12 27 -12q44 0 50 2q-94 -126 -140 -122z" />
    <glyph glyph-name="L" unicode="L" horiz-adv-x="450" 
d="M419 114q-3 -18 -15 -33q-32 -41 -89 -66q-48 -21 -94 -24l-128 21q-2 0 -18 -4q-20 -4 -43 -6q22 56 22 87q0 9 -2 15v464q-1 5 -4 14.5t-5 13.5q134 76 141 76l19 15l-1 -505q1 -4 -12 -43.5t-13 -43.5q0 -1 2 -1q5 0 22.5 7t19.5 6q18 6 41 6q16 0 49 -4.5t51 -4.5
q31 0 57 10z" />
    <glyph glyph-name="M" unicode="M" horiz-adv-x="838" 
d="M824 100q-123 -106 -158 -106q-39 0 -66 44q-20 32 -32 86q-5 27 -10 55q-9 36 -25 133q-15 85 -29 132q-4 0 -11 -26l-7 -26q-17 -70 -34 -139q-20 -87 -24 -137q3 -12 4 -34q-33 -19 -65 -38q-45 -25 -69 -29q-32 62 -69 215q-41 166 -66 226q-15 2 -29 -105
q-6 -55 -23 -174q-6 -36 -30 -102q-34 -93 -65 -93l-24 -3q-2 1 2.5 5t4.5 7t14.5 32t17.5 45q11 51 24 137q20 130 21 137q4 26 27 99t32 90q1 2 1 5q0 24 -40 57q-9 8 -26 8q20 15 74 46q58 34 66 34q38 0 76 -106q30 -69 59 -189q33 -133 51 -183q2 0 3.5 17t2.5 18
q19 95 44 173q6 19 25 70q16 44 16 46q0 6 -9.5 30t-19.5 38.5t-25 20.5q17 13 69 43q57 33 66 32q18 -2 41 -41q18 -31 23 -49q32 -142 47 -223q11 -58 32 -166q5 -26 16 -58q21 -58 43 -58q4 0 15.5 1t14.5 1l18 12z" />
    <glyph glyph-name="N" unicode="N" horiz-adv-x="552" 
d="M499 81q-122 -96 -134 -96q-7 0 -26 34q-10 21 -20 41q-103 187 -215 442l-1 -453q-24 -22 -81 -64l18 64q-2 45 2 81l1 446q-11 3 -27 13q8 9 61 46q62 43 82 45q40 3 125 -184l60 -138q41 -92 68 -135q1 8 1 15v353q0 -2 -9 41q63 53 69 53v-564q0 -6 26 -40z" />
    <glyph glyph-name="O" unicode="O" horiz-adv-x="595" 
d="M537 368q2 -82 -33 -215q-9 -32 -48 -73t-80 -60q-82 -38 -144 -37q-60 0 -112 43q-55 47 -67 119q-17 99 -17 181q0 97 23 171q7 24 28 54q23 36 48 51q117 74 185 81q109 11 169 -106q45 -88 48 -209zM382 320q-3 122 -10 157q-22 107 -95 136q-8 3 -15 3
q-10 0 -19.5 -7.5t-11.5 -7.5q-26 -4 -37 -115q-7 -75 -6 -137q3 -118 30 -193q42 -118 98 -114q41 3 58 134q9 80 8 144z" />
    <glyph glyph-name="P" unicode="P" horiz-adv-x="554" 
d="M517 475q0 -91 -68 -148q-28 -23 -181 -107q-28 -15 -57 -7q-2 -25 0 -81q3 -71 3 -84q-111 -42 -168 -59q0 1 6 29q6 34 6 60v333q0 20 -1 45v32q0 29 7 46q7 14 35 50q-1 2 -8 0q-9 -3 -12 -3q-12 0 -27 -8.5t-28 -16.5q-7 7 -7 10q0 7 31 29q19 13 38 27q82 63 193 63
q98 0 165 -54q73 -58 73 -156zM368 429q0 55 -29 100q-36 56 -102 56h-22v-294q8 -7 32 -7q49 0 62 7q59 31 59 138z" />
    <glyph glyph-name="Q" unicode="Q" horiz-adv-x="580" 
d="M513 427q0 -235 -109 -323l-18 -12q22 -17 45.5 -35t75.5 -29q0 -21 -45.5 -56.5t-66.5 -35.5q-26 0 -85.5 39t-58.5 39q-2 0 -26.5 -7.5t-28.5 -7.5q-44 0 -82.5 33t-55.5 85q-7 19 -15 78q-10 65 -10 105q0 145 37 215q44 84 169 130q29 12 58 23q39 13 66 13
q77 0 118 -95q32 -72 32 -159zM367 361q0 157 -68 221q-24 23 -52 23q-32 0 -52 -89q-15 -67 -15 -123q0 -54 15 -175q5 -42 34 -88q34 -55 69 -55q8 0 16 3q53 67 53 283z" />
    <glyph glyph-name="R" unicode="R" horiz-adv-x="552" 
d="M538 57q-5 -2 -65 -44q-37 -26 -62 -26q-45 0 -68 25q-26 27 -58 102q-21 53 -43 105q-4 12 -7.5 25t-14.5 13q-21 0 -21 -8v-201q-60 -26 -156 -64q12 44 12 103l1 483l-37 -23q-3 0 -2 5l2 8l-6 2q0 1 12 11t12 11q43 59 118 80q45 13 123 14q72 2 137 -36
q79 -47 79 -124q0 -37 -23 -83q-26 -52 -62 -72q-18 -12 -52 -36q-1 -9 37 -75l48 -108q36 -72 71 -72h22zM348 439q0 112 -61 142l-18 9q-16 8 -26 8q-5 1 -41 -2v-286h35q22 1 54 17q36 19 44 42q13 38 13 70z" />
    <glyph glyph-name="S" unicode="S" horiz-adv-x="572" 
d="M192 -6q-47 0 -98 41t-62 87l125 94q6 -14 20 -40q22 -35 55 -60q39 -29 75 -29q32 0 52.5 17t20.5 48q0 50 -36 80q-32 27 -81 32q-68 8 -131 28q-30 9 -57.5 39.5t-35.5 62.5q-7 26 -7 52q0 94 89 148q84 51 99 59q59 30 109 30q48 0 95.5 -36t64.5 -82q8 -20 15 -33
q-44 -37 -124 -76q-4 42 -64 92t-104 50q-36 0 -36 -79q0 -41 27.5 -75.5t67.5 -46.5q9 -3 35 -4q78 -3 140 -36q79 -42 79 -113q0 -49 -56 -106q-45 -46 -100 -75q-132 -69 -177 -69z" />
    <glyph glyph-name="T" unicode="T" horiz-adv-x="525" 
d="M516 682q0 -3 -1 -8q-41 -43 -83 -86q-51 -46 -119 -48v-39v-439l-167 -82q11 56 12 99v417q33 18 84 47q-58 6 -124 12q-32 2 -123 -15q55 57 111 114q34 28 101 24l182 -17q80 0 113 21h14z" />
    <glyph glyph-name="U" unicode="U" horiz-adv-x="584" 
d="M560 69q-116 -77 -130 -77q-30 0 -58 45q-14 26 -27 53q-31 -29 -77 -59q-56 -36 -79 -36q-81 0 -110 63q-17 38 -17 114l1 350q3 26 -17 52.5t-50 40.5q129 67 147 67q33 0 57 -48q20 -40 21 -79q0 25 0 -349q0 -118 65 -117q25 0 46 36q18 33 18 67q0 10 -2 18v313
q0 40 -2 49q-5 21 -27 40l147 76q19 -12 30 -42q9 -24 8 -46t-1 -428q0 -52 57 -103z" />
    <glyph glyph-name="V" unicode="V" horiz-adv-x="528" 
d="M483 556q-40 -124 -120 -360q-2 -5 -13 -28q-10 -19 -10 -24q0 -3 10 -34q11 -35 14 -52q-45 -22 -148 -67q-34 155 -77 307q-60 213 -105 289q-17 29 -29 33q60 26 170 64q40 -103 70 -216q42 -157 72 -250q6 6 50 152q49 158 49 205q0 21 -2 26q-5 16 -29 32
q69 59 87 59q34 0 34 -42q0 -31 -23 -94z" />
    <glyph glyph-name="W" unicode="W" horiz-adv-x="882" 
d="M855 623q0 -54 -87 -251.5t-87 -209.5q0 -3 11 -40q13 -44 18 -65l-155 -73q-8 3 -126 437q-15 -51 -29 -93q-35 -102 -61 -144q-2 -3 11 -53q16 -60 19 -73q-62 -28 -151 -77q-42 148 -84 297q-53 183 -89 280q-6 16 -23 25l-22 10q11 16 65.5 51.5t67.5 36.5
q45 4 77 -75q8 -20 28 -98q12 -47 39 -130q32 -94 42 -129q23 46 47 114q31 88 31 131q0 10 -2 18q-6 27 -13 55q-10 32 -31 47q12 13 66 41.5t73 28.5q24 0 44 -36q5 -8 23 -56q11 -38 30 -102q23 -90 70 -256q6 5 14 29q11 29 13 33q22 42 48 125q29 91 31 140
q3 57 -38 64q77 56 79 56q24 0 37.5 -17t13.5 -41z" />
    <glyph glyph-name="X" unicode="X" horiz-adv-x="603" 
d="M592 102q-29 -31 -71 -65q-63 -50 -92 -50q-80 0 -138 135q-21 48 -57 109q-32 -28 -57 -71q-29 -50 -26 -87q-62 -46 -147 -91q-5 4 -5 11q0 40 209 295q0 23 -54 140q-16 34 -58 112q-13 24 -35 31q-14 5 -47 5q21 20 80 64q63 46 74 46q41 0 92 -94l48 -104
q8 -21 25 -58q70 97 70 163q0 9 -2 17l133 87q8 -3 8 -31q0 -41 -92.5 -160t-92.5 -123q0 -13 52.5 -125.5t72.5 -142.5q16 -24 39 -24q13 0 63 22h-2l1.5 -2.5t8.5 -8.5z" />
    <glyph glyph-name="Y" unicode="Y" horiz-adv-x="553" 
d="M544 684q0 -34 -51 -138q-119 -240 -247 -461q-2 -3 -11 -32q-7 -23 -18 -31q-15 -11 -47 -21q-27 -9 -35 -9l-36 -8q20 24 78 108q62 91 62 101q0 6 -186 372q-5 9 -11 17q-16 20 -38 27q1 3 70 37q66 33 75 37q2 1 5 1q29 0 88 -136q67 -154 88 -176q13 5 54.5 103.5
t41.5 135.5q0 25 -17 25q-3 0 -13 -1t-17 -1l137 98q13 -2 20.5 -19.5t7.5 -28.5z" />
    <glyph glyph-name="Z" unicode="Z" horiz-adv-x="507" 
d="M245 -15q-27 0 -76 13t-76 13q-41 0 -107 -16q71 83 109 154q44 88 90 177t66 122q49 79 106 136q-20 -4 -59 -23t-56 -21q-24 -3 -43 -3q-20 0 -43.5 4t-37.5 4q-39 0 -105 -16l22 41q46 66 81 87q42 26 120 26q17 0 54.5 -5.5t61.5 -5.5q49 0 110 11l-20 -28
q-70 -135 -140 -271q-85 -161 -173 -271q68 34 115 34q25 0 66 -10t71 -10q42 0 97 14q-16 -70 -86 -114q-65 -42 -147 -42z" />
    <glyph glyph-name="bracketleft" unicode="[" horiz-adv-x="196" 
d="M128 -53h65v-50l-137 -1v881h138v-50h-64q-8 -3 -3 -3z" />
    <glyph glyph-name="backslash" unicode="\" horiz-adv-x="430" 
d="M394 -1h-61l-321 708h57z" />
    <glyph glyph-name="bracketright" unicode="]" horiz-adv-x="262" 
d="M121 -53l-65 1l1 -51h137l-1 880h-137v-49l63 -1q7 -3 3 -3z" />
    <glyph glyph-name="asciicircum" unicode="^" horiz-adv-x="468" 
d="M348 725l-7 -19l-122 43l-121 -43l-6 16l125 95l2 -1l3 1l1 -2z" />
    <glyph glyph-name="underscore" unicode="_" horiz-adv-x="452" 
d="M-11 -74h469v-49h-469v49z" />
    <glyph glyph-name="grave" unicode="`" horiz-adv-x="400" 
d="M171 838q140 -124 140 -127q-1 -2 -19 -3q-19 0 -21 3q-81 43 -166 90q-7 8 -7 16q0 11 13.5 19.5t31.5 8.5q16 0 28 -7z" />
    <glyph glyph-name="a" unicode="a" horiz-adv-x="442" 
d="M416 82q-13 -17 -52 -52q-17 -14 -34.5 -27.5t-31.5 -13.5q-12 0 -36 23q-21 20 -33 39q-1 1 -4.5 -3.5t-6.5 -4.5t-47 -25.5t-66 -25.5q-45 0 -78 36q-30 33 -32 74q-3 39 21 79t60 48l40 15q31 9 61 19q40 14 41 36q1 51 -75 51q-41 0 -52 -25q-21 -44 -53 -68h-13
q0 6 -2 21t-2 23q2 12 8 20q30 30 73 58q23 17 47 34q44 31 56 31q30 0 81 -38q55 -40 55 -73q0 -15 3 -39q1 -20 0 -109q-2 -92 16 -96q3 -1 20 -1q18 0 33 17zM218 83l-1 169q-26 -12 -64 -32q-20 -13 -20 -47q0 -30 14 -59q18 -37 49 -37q15 0 22 6z" />
    <glyph glyph-name="b" unicode="b" horiz-adv-x="499" 
d="M163 -10q2 0 -17 0q-25 0 -56 33.5t-31 56.5l1 491q0 31 -20 48q-7 6 -40 21l195 88l1 -365q1 -1 2 -1q-1 0 58 36.5t74 36.5q28 0 63 -28q37 -31 40 -64l9 -77q0 -107 -29 -143q-35 -41 -114 -85q-84 -46 -136 -48zM306 251q0 102 -62 102q-12 0 -49 -29v-227
q35 -35 47 -35q1 0 16.5 9.5t29.5 11.5q22 31 22 98q0 20 -2 45z" />
    <glyph glyph-name="c" unicode="c" horiz-adv-x="366" 
d="M332 126q-66 -68 -141 -123q-10 -7 -34 -7q-32 0 -73 16q-63 25 -81 86q-8 26 -8 91q0 51 15 132q6 29 87 76q78 45 113 45q34 0 73 -32.5t49 -72.5q-28 -15 -111 -67q-1 23 -25 58t-53 53q-11 -5 -13 -14q-9 -70 -9 -103q0 -78 9 -110q20 -73 87 -73q43 0 104 52h11v-7z
" />
    <glyph glyph-name="d" unicode="d" horiz-adv-x="455" 
d="M464 86q0 -7 -4 -10q-7 -4 -73 -48q-52 -35 -65 -35q-20 0 -46 19q-30 21 -45 51q-6 -2 -53 -40q-42 -33 -55 -33q-20 0 -39 10q-83 42 -83 179q0 38 15 124q7 34 69.5 84t95.5 50q4 0 19 -3t23 -3q10 0 15 4v119q0 10 -22 20.5t-24 15.5l154 74l21 15v-556q7 -26 8 -28
q7 -14 26 -14q3 0 25.5 5t30.5 6zM235 290q0 56 -1 83q-3 6 -8 9q-36 23 -60 19q-16 -12 -29 -63.5t-13 -97.5q0 -49 11 -94q19 -74 61 -74q33 0 36 34z" />
    <glyph glyph-name="e" unicode="e" horiz-adv-x="380" 
d="M330 275q-52 -45 -123 -67l-66 -18q-1 -38 13 -69q7 -16 43.5 -36t65.5 -20q13 0 32 11l38 22q11 0 11 -7q-36 -39 -130 -91q-22 -13 -52 -13q-36 0 -82 28q-53 31 -60 70q0 3 -10 44q-6 27 -6 46q0 89 15 137q6 20 42 51q31 28 57 42q87 48 135 48q34 0 62 -35
q25 -32 30 -68q6 -57 -15 -75zM224 283q0 20 -13 62q-18 55 -41 55q-5 0 -15 -11t-11 -16q-8 -54 -8 -65q2 -101 2 -86q86 15 86 61z" />
    <glyph glyph-name="f" unicode="f" horiz-adv-x="332" 
d="M364 646l-79 -56q-3 0 -34 14t-35 14t-10 -6l-10 -9q-16 -10 -20 -33v-37v-96h125l-56 -78h-67l2 -298l-147 -77q14 56 15 78v298h-70q8 27 26 77h47q-1 0 -1 5q-1 21 3 74q8 38 26 56q30 30 96 67q74 42 110 42q16 0 79 -35z" />
    <glyph glyph-name="g" unicode="g" horiz-adv-x="447" 
d="M410 43q0 -76 -119 -155q-106 -70 -165 -70q-23 0 -56 15q-37 16 -56 40q20 27 106 81q56 -60 111 -60q41 0 41 106q0 14 -1 28q0 14 0 12v36q-32 -24 -64 -49q-50 -36 -72 -36q-66 0 -100 78q-24 54 -24 111q0 96 53 171q60 86 160 95q19 1 52.5 -10l33.5 -11q3 0 53 18
t53 18q2 0 2 -1q0 -3 -4.5 -12t-4.5 -12q0 -2 1 -2v-391zM269 180l2 151q0 17 -25.5 43t-45.5 26q-23 0 -37 -82q-11 -59 -11 -105q0 -36 10 -73q16 -64 52 -64q55 0 55 104z" />
    <glyph glyph-name="h" unicode="h" horiz-adv-x="494" 
d="M188 53l-156 -68q18 64 18 91v490q0 32 -19 49q-7 6 -40 21l196 84l1 -356q45 39 138 96q51 -9 81 -53q25 -37 25 -84l-1 -162q0 -29 17 -52q19 -27 55 -33q-25 -11 -80 -50q-50 -36 -53 -36q-39 0 -64 47q-18 36 -19 73l-3 186q-1 72 -41 72q-4 0 -24.5 -15t-30.5 -24
v-276z" />
    <glyph glyph-name="i" unicode="i" horiz-adv-x="287" 
d="M201 562l-104 -67l-81 67l89 66zM298 100q-11 -11 -73 -57q-72 -53 -88 -53q-25 0 -56 34t-31 57v220q0 31 -20 48q-7 6 -40 21l198 86v-322q0 -19 14 -30.5t33 -11.5q11 0 63 8z" />
    <glyph glyph-name="j" unicode="j" horiz-adv-x="262" 
d="M49 -120q-2 -17 -4 -33.5t-10 -18.5q-38 41 -86 48q-23 0 -23 -18q0 -12 9 -27q44 -60 70 -60q23 0 93 44q75 48 87 83q0 16 4 47v482q1 17 -2 39l-193 -91q28 -13 38 -23q17 -17 17 -50v-422zM205 567l-93 -68l-93 68l97 69z" />
    <glyph glyph-name="k" unicode="k" horiz-adv-x="505" 
d="M178 725v-364l92 64q60 41 94 41q35 0 61.5 -20.5t26.5 -53.5q0 -40 -55 -88q-6 -6 -71 -52q-10 -7 49.5 -85t78.5 -78q13 0 19 -2q0 2 28 21l17 -5q-10 -15 -62 -60q-63 -54 -86 -54q-43 0 -75 39q-21 24 -49.5 83.5t-43.5 78.5q-2 -2 -24 -8v-142l-146 -58q10 71 10 98
l-1 491q0 31 -20 48q-7 6 -40 21zM298 314q0 18 -9 33q-12 18 -33 18q-65 0 -78 -62v-92q120 52 120 103z" />
    <glyph glyph-name="l" unicode="l" horiz-adv-x="287" 
d="M45 80q0 -23 30.5 -56.5t56.5 -33.5q16 0 87 53q63 47 74 58q-52 -8 -63 -8q-19 0 -33 11.5t-15 30.5q1 -27 1 590l-197 -85q33 -15 40 -21q20 -17 20 -48z" />
    <glyph glyph-name="m" unicode="m" horiz-adv-x="716" 
d="M702 78l-126 -79q-24 5 -48 31t-24 48v207q0 36 -4 48q-8 30 -41 29t-44 -58q-1 -7 -4 -63l1 -180l-139 -66v313q0 59 -35 58q-58 -1 -58 -109l-1 -198l-140 -64l-1 251q0 3 1 18t1 26q0 84 -44 85l159 70q24 -24 27 -74q35 21 71 42q66 38 87 38q50 0 73 -89
q114 87 145 86q69 -1 83 -113q-3 -138 -2 -200q1 -22 25 -40q21 -17 38 -17z" />
    <glyph glyph-name="n" unicode="n" horiz-adv-x="487" 
d="M155 445l-158 -74q46 -2 46 -92v-22q-1 -14 -1 -17v-196q0 -8 1 -55l142 70l-1 175q3 53 5 64q11 57 44 58t41 -29q4 -12 4 -48v-207q0 -22 24 -48t48 -31l124 79q-16 0 -36 18q-23 20 -23 42v180q-13 136 -102 136q-24 0 -69 -36q-37 -31 -55 -55q0 25 -10.5 52.5
t-23.5 35.5z" />
    <glyph glyph-name="o" unicode="o" horiz-adv-x="493" 
d="M23 213q0 21 6.5 57.5t11.5 44.5q30 45 125 93q86 44 123 44q87 0 125 -77q25 -51 25 -124t-22 -113.5t-117 -96.5q-87 -52 -114 -52q-84 0 -128 74q-35 61 -35 150zM293 222q0 169 -104 159q-19 -25 -20 -70q0 4 3 -75q5 -178 78 -178q9 0 19 3q24 48 24 161z" />
    <glyph glyph-name="p" unicode="p" horiz-adv-x="512" 
d="M455 278q0 -93 -67.5 -178.5t-145.5 -85.5q-3 0 -46 10q1 -7 0 -23v-133l-150 -70q-1 7 -1 91v348q0 57 -1 64q-7 57 -36 56l142 88q19 -10 26 -39l10 -38q28 28 72 55q53 32 83 32q66 0 95 -75q19 -47 19 -102zM307 222q0 146 -62 146q-13 0 -34 -14t-21 -31v-184
q0 -46 8 -62q12 -21 51 -21q12 0 26 1q9 13 20.5 73t11.5 92z" />
    <glyph glyph-name="q" unicode="q" horiz-adv-x="462" 
d="M387 -155q-27 -10 -51 -20q-57 -23 -89 -45v280q-3 -1 -56 -38q-45 -33 -64 -33q-74 0 -111 79q-26 56 -26 121q0 94 50 166q61 88 171 88q3 0 43.5 -9t43.5 -9q7 0 89 23v-603zM249 298q0 34 -14 66q-21 48 -64 48q-36 0 -36 -157q0 -176 68 -176q40 0 43 44z" />
    <glyph glyph-name="r" unicode="r" horiz-adv-x="433" 
d="M395 376q0 -5 -52 -48q-55 -45 -77 -54l-24 34q-23 30 -34 28q-26 -5 -26 -94q0 -20 2 -46q0 -3 -1 -15t-1 -20q0 -81 50 -81q29 0 68 11q-10 -13 -78 -59.5t-79 -46.5q-24 0 -59 26q-38 29 -34 57v219q-2 57 -58 65l166 96q5 -11 11 -41q5 -26 15 -39q30 23 59 46
q45 34 71 34q21 0 51 -27t30 -45z" />
    <glyph glyph-name="s" unicode="s" horiz-adv-x="440" 
d="M257 307q-7 30 -39 55t-57 25q-27 0 -27 -45q0 -68 69 -81l128 -12q68 -14 68 -84q0 -69 -113 -124q-94 -44 -156 -44q-94 0 -124 94l148 52q4 -38 23 -62.5t44 -24.5q22 0 32 33q6 19 6 36q0 59 -73 59q-3 0 -36 -3t-37 -3q-113 0 -113 76q0 56 95 126q88 65 133 65
q126 0 167 -85q-26 0 -55 -15q-51 -27 -83 -38z" />
    <glyph glyph-name="t" unicode="t" horiz-adv-x="374" 
d="M219 577l-1 -141h121q-10 -16 -49 -77l-70 -1v-113q0 -93 2 -104q9 -45 50 -41q29 3 46 9q21 7 46 11q-17 -19 -89 -70q-75 -54 -88 -54q-32 0 -68 30q-39 33 -39 70q0 44 1 132t1 132q-2 1 -95 1q27 15 106 93q112 110 126 123z" />
    <glyph glyph-name="u" unicode="u" horiz-adv-x="488" 
d="M497 85q-16 -16 -62 -51q-52 -41 -63 -41q-23 0 -50 33q-22 28 -34 59q-34 -27 -67 -55q-49 -37 -70 -37q-91 0 -100 119q0 59 -1 165q-1 42 -9 58q-9 20 -36 18q58 32 184 95v-165q0 -12 -1 -40.5t-1 -44.5q0 -107 55 -107q9 0 23 12.5t14 22.5v262q39 22 139 66v-316
q7 -35 14 -47t26 -12q12 0 39 6z" />
    <glyph glyph-name="v" unicode="v" horiz-adv-x="445" 
d="M419 435q0 -49 -52 -174q-37 -89 -70 -151q-2 -5 2 -15q6 -17 6 -18l-113 -72q-20 26 -85 192q-59 150 -73 150q1 0 -7.5 4t-33.5 4q23 19 68 50q63 43 80 43q27 0 65 -99l66 -188q10 5 30.5 72.5t20.5 104.5q0 33 -23 34q5 11 47 49.5t51 38.5q21 0 21 -25z" />
    <glyph glyph-name="w" unicode="w" horiz-adv-x="714" 
d="M664 433q0 -48 -58.5 -184l-58.5 -136q0 2 19 -54q-18 -9 -62 -39q-39 -26 -65 -36l-110 249q-5 -4 -26 -59t-21 -69q0 -4 6 -24q6 -23 7 -29q-37 -24 -125 -70q-43 108 -137 356q-3 7 -18 10q-22 4 -23 4q17 6 79 47q59 40 84 47q33 -90 101 -271q7 11 26 68t19 67
q0 5 -19 68q35 16 108 61l24 16l103 -285q16 9 36 76q20 63 20 97q0 20 -11 39t-11 17q0 6 43.5 48.5t49.5 42.5q10 0 16 -23q4 -18 4 -34z" />
    <glyph glyph-name="x" unicode="x" horiz-adv-x="461" 
d="M444 91q-25 -24 -75 -61q-59 -46 -74 -46q-44 0 -79 50q-24 43 -49 87q-141 -151 -197 -139l104 96q82 77 77 89q-21 49 -53 107q-46 81 -66 81q-22 0 -47 -3q9 10 78 54q75 48 91 48q25 0 64 -70l46 -90q18 9 44 79q-3 14 -5 37q42 30 56 39q40 26 61 31q1 0 1 -32
q0 -23 -68 -110t-67 -88q54 -115 78 -145q14 -17 34 -17q7 0 19 2t17 2t10 -1z" />
    <glyph glyph-name="y" unicode="y" horiz-adv-x="496" 
d="M408 40q0 -54 -62 -123q-52 -58 -126 -105q-69 -45 -98 -45q-27 0 -67 28q-66 47 -70 49q15 19 63 58t52 39l54.5 -43t75.5 -43q31 0 33 65q1 36 1 154q-36 -27 -71 -54q-41 -29 -69 -29q-36 0 -60.5 28t-29.5 78l2 199q-4 26 -14 35q-7 5 -34 13q45 28 91.5 56.5
t88.5 47.5q2 -179 1 -244q0 -2 -1 -14.5t-1 -21.5q0 -79 52 -79q34 0 41 17q3 5 3 35l1 226q93 48 124 68q11 7 21 14z" />
    <glyph glyph-name="z" unicode="z" horiz-adv-x="419" 
d="M390 442q-70 -110 -103 -158q-54 -80 -125 -169q5 -5 14 -6q5 0 17.5 1.5t18.5 1.5q3 0 26.5 -3.5t27.5 -3.5q34 0 108 33q-34 -77 -72.5 -111.5t-95.5 -34.5q-25 0 -57.5 3.5t-54.5 3.5q-35 0 -88 -7v15q49 46 138 149q107 126 130 180q-17 -1 -58 -8q-37 -6 -42 -6
q2 0 -25.5 7t-45.5 7q-16 0 -43.5 -4.5t-37.5 -4.5q36 43 73 86q36 35 75 32q22 -3 111 -10q31 -1 109 7z" />
    <glyph glyph-name="braceleft" unicode="{" horiz-adv-x="300" 
d="M134 307q81 -48 81 -170q0 -20 -2.5 -58t-2.5 -54q0 -49 15 -72q18 -30 64 -34v-19h-18q-71 0 -100 39q-22 30 -22 94q0 18 2.5 58t2.5 59q0 119 -81 146v22q81 28 81 136q0 21 -3.5 64t-3.5 63q0 64 26 95q33 39 117 39v-20q-47 -4 -65 -34q-15 -23 -15 -71
q0 -17 2.5 -55t2.5 -58q0 -122 -81 -170z" />
    <glyph glyph-name="bar" unicode="|" horiz-adv-x="135" 
d="M20 -119v846h63v-846h-63z" />
    <glyph glyph-name="braceright" unicode="}" horiz-adv-x="301" 
d="M213 307q-80 -48 -80 -170q0 -20 2 -58t2 -54q0 -49 -15 -72q-18 -30 -64 -34v-19h18q72 0 100 39q22 30 22 94q0 18 -2.5 58t-2.5 59q0 119 81 146v22q-81 28 -81 136q0 21 3.5 64t3.5 63q0 64 -26 95q-33 39 -117 39v-20q47 -4 66 -34q14 -23 14 -71q0 -17 -2 -55
t-2 -58q0 -122 80 -170z" />
    <glyph glyph-name="asciitilde" unicode="~" horiz-adv-x="699" 
d="M393 717q-24 0 -52 16.5t-53 16.5q-55 0 -55 -21q-10 -4 -20 -3q-13 1 -11 13q0 33 34 56q29 18 62 18q26 0 57 -19q28 -17 60 -17q27 0 53 28q7 10 16 10t15 -10q0 -34 -39 -63q-35 -25 -67 -25z" />
    <glyph glyph-name="Adieresis" unicode="&#xc4;" horiz-adv-x="562" 
d="M558 62l-80 -54q-46 -29 -71 -29q-28 0 -56 34q-22 27 -30 53q-42 137 -44 137q-49 -16 -151 -26q-9 -19 -24 -50q-22 -45 -45 -89q-25 -50 -39 -59q0 1 -11.5 4t-11.5 8q0 2 23 53q25 56 32 80q16 52 76 271q8 29 37 101q24 37 24 50q0 24 -9 39q-16 -11 -49 -27l-11 14
q13 13 85 61q77 52 86 48q15 -6 56 -171q57 -230 67 -264l28 -94q34 -92 64 -92q8 0 23 7.5t26 7.5q0 -2 2.5 -7t2.5 -6zM262 267l-6 20q0 8 -17 79q-18 77 -29 104q-25 -43 -52 -139l-20 -88q13 4 69 10q47 4 55 14zM270 765q0 20 14.5 34.5t35.5 14.5q20 0 34.5 -14.5
t14.5 -34.5q0 -21 -14.5 -35.5t-34.5 -14.5q-21 0 -35.5 14.5t-14.5 35.5zM99 765q0 20 14.5 34.5t35.5 14.5q20 0 34.5 -14.5t14.5 -34.5q0 -21 -14.5 -35.5t-34.5 -14.5q-21 0 -35.5 14.5t-14.5 35.5z" />
    <glyph glyph-name="Aring" unicode="&#xc5;" horiz-adv-x="562" 
d="M558 62l-80 -54q-46 -29 -71 -29q-28 0 -56 34q-22 27 -30 53q-42 137 -44 137q-49 -16 -151 -26q-9 -19 -24 -50q-22 -45 -45 -89q-25 -50 -39 -59q0 1 -11.5 4t-11.5 8q0 2 23 53q25 56 32 80q16 52 76 271q8 29 37 101q24 37 24 50q0 24 -9 39q-16 -11 -49 -27l-11 14
q13 13 85 61q77 52 86 48q15 -6 56 -171q57 -230 67 -264l28 -94q34 -92 64 -92q8 0 23 7.5t26 7.5q0 -2 2.5 -7t2.5 -6zM262 267l-6 20q0 8 -17 79q-18 77 -29 104q-25 -43 -52 -139l-20 -88q13 4 69 10q47 4 55 14zM229 847q30 0 51 -21.5t21 -50.5q0 -30 -21 -51.5
t-51 -21.5t-51 21.5t-21 51.5q0 29 21 50.5t51 21.5zM229 812q-15 0 -26 -11t-11 -26q0 -16 11 -27t26 -11q16 0 26.5 11t10.5 27q0 15 -10.5 26t-26.5 11z" />
    <glyph glyph-name="Ccedilla" unicode="&#xc7;" horiz-adv-x="516" 
d="M233 -198q-9 0 -42 10q-7 3 -14.5 13.5t-12.5 11.5l11 18q31 -18 66 -18q48 0 48 47q0 20 -16 26q-8 2 -35 2q-3 0 -20 -2.5t-24 -2.5q6 28 16 86q-188 19 -188 328q0 67 12 133q12 62 48 107q14 17 52 40q49 29 60 38q68 52 100 52q14 0 42 -18q24 -15 40 -31
q65 -64 90 -170q-25 -17 -51 -34q-33 -21 -51 -27q-3 45 -63 117t-100 72q-21 0 -34 -102q-9 -74 -9 -123q0 -80 18 -146q31 -116 109 -116q30 0 78 15q53 17 88 41q2 0 6.5 -4t4.5 -10q0 -12 -43 -65q-17 -22 -55.5 -51t-62.5 -40q-11 -5 -56 -7l-10 -44q8 1 25 6
q14 3 21 3q81 0 81 -71q0 -84 -129 -84z" />
    <glyph glyph-name="Eacute" unicode="&#xc9;" horiz-adv-x="512" 
d="M466 672q-8 -17 -24 -35q-65 -71 -133 -71q-4 0 -51 6.5t-49 7.5q-17 1 -19 -5q-4 -12 -5 -14l1 -181q8 -3 23 6q19 11 26 12q39 7 96 7q28 -9 55 -9q15 0 38.5 3.5t31.5 3.5q-45 -75 -94 -101q-39 -21 -109 -21q-3 0 -28 6.5t-34 6.5q-4 0 -5 -1v-55q0 -7 -1 -24t-1 -26
q0 -72 55 -72h43q10 0 74 7q74 7 102 13l-13 -29q-39 -53 -171 -106q-30 -12 -106 -8q-96 6 -114 38q-22 39 -25 115q1 -14 1 133q0 218 -1 118q0 68 11 129q6 32 94 97q78 58 160 58q117 -11 132 -11q22 0 40 2zM337 838q-140 -124 -139 -127q0 -2 19 -3q19 0 20 3
q81 43 167 90q7 8 7 16q0 11 -14 19.5t-31 8.5q-16 0 -29 -7z" />
    <glyph glyph-name="Ntilde" unicode="&#xd1;" horiz-adv-x="552" 
d="M499 81q-122 -96 -134 -96q-7 0 -26 34q-10 21 -20 41q-103 187 -215 442l-1 -453q-24 -22 -81 -64l18 64q-2 45 2 81l1 446q-11 3 -27 13q8 9 61 46q62 43 82 45q40 3 125 -184l60 -138q41 -92 68 -135q1 8 1 15v353q0 -2 -9 41q63 53 69 53v-564q0 -6 26 -40zM303 717
q-24 0 -52 16.5t-53 16.5q-55 0 -55 -21q-10 -4 -20 -3q-13 1 -11 13q0 33 34 56q29 18 62 18q26 0 57 -19q28 -17 60 -17q27 0 53 28q7 10 16 10t15 -10q0 -34 -39 -63q-35 -25 -67 -25z" />
    <glyph glyph-name="Odieresis" unicode="&#xd6;" horiz-adv-x="595" 
d="M537 368q2 -82 -33 -215q-9 -32 -48 -73t-80 -60q-82 -38 -144 -37q-60 0 -112 43q-55 47 -67 119q-17 99 -17 181q0 97 23 171q7 24 28 54q23 36 48 51q117 74 185 81q109 11 169 -106q45 -88 48 -209zM382 320q-3 122 -10 157q-22 107 -95 136q-8 3 -15 3
q-10 0 -19.5 -7.5t-11.5 -7.5q-26 -4 -37 -115q-7 -75 -6 -137q3 -118 30 -193q42 -118 98 -114q41 3 58 134q9 80 8 144zM330 765q0 20 14.5 34.5t35.5 14.5q20 0 34.5 -14.5t14.5 -34.5q0 -21 -14.5 -35.5t-34.5 -14.5q-21 0 -35.5 14.5t-14.5 35.5zM159 765
q0 20 14.5 34.5t35.5 14.5q20 0 34.5 -14.5t14.5 -34.5q0 -21 -14.5 -35.5t-34.5 -14.5q-21 0 -35.5 14.5t-14.5 35.5z" />
    <glyph glyph-name="Udieresis" unicode="&#xdc;" horiz-adv-x="584" 
d="M560 69q-116 -77 -130 -77q-30 0 -58 45q-14 26 -27 53q-31 -29 -77 -59q-56 -36 -79 -36q-81 0 -110 63q-17 38 -17 114l1 350q3 26 -17 52.5t-50 40.5q129 67 147 67q33 0 57 -48q20 -40 21 -79q0 25 0 -349q0 -118 65 -117q25 0 46 36q18 33 18 67q0 10 -2 18v313
q0 40 -2 49q-5 21 -27 40l147 76q19 -12 30 -42q9 -24 8 -46t-1 -428q0 -52 57 -103zM300 765q0 20 14.5 34.5t35.5 14.5q20 0 34.5 -14.5t14.5 -34.5q0 -21 -14.5 -35.5t-34.5 -14.5q-21 0 -35.5 14.5t-14.5 35.5zM129 765q0 20 14.5 34.5t35.5 14.5q20 0 34.5 -14.5
t14.5 -34.5q0 -21 -14.5 -35.5t-34.5 -14.5q-21 0 -35.5 14.5t-14.5 35.5z" />
    <glyph glyph-name="aacute" unicode="&#xe1;" horiz-adv-x="442" 
d="M416 82q-13 -17 -52 -52q-17 -14 -34.5 -27.5t-31.5 -13.5q-12 0 -36 23q-21 20 -33 39q-1 1 -4.5 -3.5t-6.5 -4.5t-47 -25.5t-66 -25.5q-45 0 -78 36q-30 33 -32 74q-3 39 21 79t60 48l40 15q31 9 61 19q40 14 41 36q1 51 -75 51q-41 0 -52 -25q-21 -44 -53 -68h-13
q0 6 -2 21t-2 23q2 12 8 20q30 30 73 58q23 17 47 34q44 31 56 31q30 0 81 -38q55 -40 55 -73q0 -15 3 -39q1 -20 0 -109q-2 -92 16 -96q3 -1 20 -1q18 0 33 17zM218 83l-1 169q-26 -12 -64 -32q-20 -13 -20 -47q0 -30 14 -59q18 -37 49 -37q15 0 22 6zM227 598
q-140 -124 -139 -127q0 -2 19 -3q19 0 20 3q81 43 167 90q7 8 7 16q0 11 -14 19.5t-31 8.5q-16 0 -29 -7z" />
    <glyph glyph-name="agrave" unicode="&#xe0;" horiz-adv-x="442" 
d="M416 82q-13 -17 -52 -52q-17 -14 -34.5 -27.5t-31.5 -13.5q-12 0 -36 23q-21 20 -33 39q-1 1 -4.5 -3.5t-6.5 -4.5t-47 -25.5t-66 -25.5q-45 0 -78 36q-30 33 -32 74q-3 39 21 79t60 48l40 15q31 9 61 19q40 14 41 36q1 51 -75 51q-41 0 -52 -25q-21 -44 -53 -68h-13
q0 6 -2 21t-2 23q2 12 8 20q30 30 73 58q23 17 47 34q44 31 56 31q30 0 81 -38q55 -40 55 -73q0 -15 3 -39q1 -20 0 -109q-2 -92 16 -96q3 -1 20 -1q18 0 33 17zM218 83l-1 169q-26 -12 -64 -32q-20 -13 -20 -47q0 -30 14 -59q18 -37 49 -37q15 0 22 6zM149 598
q140 -124 139 -127q0 -2 -19 -3q-19 0 -20 3q-82 43 -167 90q-7 8 -7 16q0 11 13.5 19.5t31.5 8.5q16 0 29 -7z" />
    <glyph glyph-name="acircumflex" unicode="&#xe2;" horiz-adv-x="442" 
d="M416 82q-13 -17 -52 -52q-17 -14 -34.5 -27.5t-31.5 -13.5q-12 0 -36 23q-21 20 -33 39q-1 1 -4.5 -3.5t-6.5 -4.5t-47 -25.5t-66 -25.5q-45 0 -78 36q-30 33 -32 74q-3 39 21 79t60 48l40 15q31 9 61 19q40 14 41 36q1 51 -75 51q-41 0 -52 -25q-21 -44 -53 -68h-13
q0 6 -2 21t-2 23q2 12 8 20q30 30 73 58q23 17 47 34q44 31 56 31q30 0 81 -38q55 -40 55 -73q0 -15 3 -39q1 -20 0 -109q-2 -92 16 -96q3 -1 20 -1q18 0 33 17zM218 83l-1 169q-26 -12 -64 -32q-20 -13 -20 -47q0 -30 14 -59q18 -37 49 -37q15 0 22 6zM320 492l-8 -19
l-121 43l-122 -43l-5 16l125 96l2 -1l2 1l1 -3z" />
    <glyph glyph-name="adieresis" unicode="&#xe4;" horiz-adv-x="442" 
d="M416 82q-13 -17 -52 -52q-17 -14 -34.5 -27.5t-31.5 -13.5q-12 0 -36 23q-21 20 -33 39q-1 1 -4.5 -3.5t-6.5 -4.5t-47 -25.5t-66 -25.5q-45 0 -78 36q-30 33 -32 74q-3 39 21 79t60 48l40 15q31 9 61 19q40 14 41 36q1 51 -75 51q-41 0 -52 -25q-21 -44 -53 -68h-13
q0 6 -2 21t-2 23q2 12 8 20q30 30 73 58q23 17 47 34q44 31 56 31q30 0 81 -38q55 -40 55 -73q0 -15 3 -39q1 -20 0 -109q-2 -92 16 -96q3 -1 20 -1q18 0 33 17zM218 83l-1 169q-26 -12 -64 -32q-20 -13 -20 -47q0 -30 14 -59q18 -37 49 -37q15 0 22 6zM227 535
q0 20 14 34.5t35 14.5q20 0 34.5 -14.5t14.5 -34.5t-14.5 -34.5t-34.5 -14.5q-21 0 -35 14.5t-14 34.5zM56 535q0 20 14 34.5t35 14.5q20 0 34.5 -14.5t14.5 -34.5t-14.5 -34.5t-34.5 -14.5q-21 0 -35 14.5t-14 34.5z" />
    <glyph glyph-name="atilde" unicode="&#xe3;" horiz-adv-x="442" 
d="M416 82q-13 -17 -52 -52q-17 -14 -34.5 -27.5t-31.5 -13.5q-12 0 -36 23q-21 20 -33 39q-1 1 -4.5 -3.5t-6.5 -4.5t-47 -25.5t-66 -25.5q-45 0 -78 36q-30 33 -32 74q-3 39 21 79t60 48l40 15q31 9 61 19q40 14 41 36q1 51 -75 51q-41 0 -52 -25q-21 -44 -53 -68h-13
q0 6 -2 21t-2 23q2 12 8 20q30 30 73 58q23 17 47 34q44 31 56 31q30 0 81 -38q55 -40 55 -73q0 -15 3 -39q1 -20 0 -109q-2 -92 16 -96q3 -1 20 -1q18 0 33 17zM218 83l-1 169q-26 -12 -64 -32q-20 -13 -20 -47q0 -30 14 -59q18 -37 49 -37q15 0 22 6zM233 487
q-24 0 -52 16.5t-53 16.5q-55 0 -55 -21q-10 -4 -20 -3q-13 1 -11 13q0 33 34 56q29 18 62 18q26 0 57 -19q28 -17 60 -17q27 0 53 28q7 10 16 10t15 -10q0 -34 -39 -63q-35 -25 -67 -25z" />
    <glyph glyph-name="aring" unicode="&#xe5;" horiz-adv-x="442" 
d="M416 82q-13 -17 -52 -52q-17 -14 -34.5 -27.5t-31.5 -13.5q-12 0 -36 23q-21 20 -33 39q-1 1 -4.5 -3.5t-6.5 -4.5t-47 -25.5t-66 -25.5q-45 0 -78 36q-30 33 -32 74q-3 39 21 79t60 48l40 15q31 9 61 19q40 14 41 36q1 51 -75 51q-41 0 -52 -25q-21 -44 -53 -68h-13
q0 6 -2 21t-2 23q2 12 8 20q30 30 73 58q23 17 47 34q44 31 56 31q30 0 81 -38q55 -40 55 -73q0 -15 3 -39q1 -20 0 -109q-2 -92 16 -96q3 -1 20 -1q18 0 33 17zM218 83l-1 169q-26 -12 -64 -32q-20 -13 -20 -47q0 -30 14 -59q18 -37 49 -37q15 0 22 6zM189 627
q30 0 51 -21.5t21 -50.5q0 -30 -21 -51.5t-51 -21.5t-51 21.5t-21 51.5q0 29 21 50.5t51 21.5zM189 592q-15 0 -26 -11t-11 -26q0 -16 11 -27t26 -11q16 0 26.5 11t10.5 27q0 15 -10.5 26t-26.5 11z" />
    <glyph glyph-name="ccedilla" unicode="&#xe7;" horiz-adv-x="366" 
d="M138 -162q-8 0 -36 8q-6 2 -12.5 11t-10.5 10l9 16q27 -16 56 -16q41 0 41 40q0 17 -13 22q-7 3 -30 3q-3 0 -17.5 -2.5t-20.5 -2.5q5 25 14 75q-23 6 -34 10q-63 25 -81 86q-8 26 -8 91q0 51 15 132q6 29 87 76q78 45 113 45q34 0 73 -32.5t49 -72.5q-28 -15 -111 -67
q-1 23 -25 58t-53 53q-11 -5 -13 -14q-9 -70 -9 -103q0 -78 9 -110q20 -73 87 -73q43 0 104 52h11v-7q-66 -68 -141 -123q-10 -7 -34 -7q-4 0 -10 1l-7 -35q50 7 39 7q68 0 68 -60q0 -71 -109 -71z" />
    <glyph glyph-name="eacute" unicode="&#xe9;" horiz-adv-x="380" 
d="M330 275q-52 -45 -123 -67l-66 -18q-1 -38 13 -69q7 -16 43.5 -36t65.5 -20q13 0 32 11l38 22q11 0 11 -7q-36 -39 -130 -91q-22 -13 -52 -13q-36 0 -82 28q-53 31 -60 70q0 3 -10 44q-6 27 -6 46q0 89 15 137q6 20 42 51q31 28 57 42q87 48 135 48q34 0 62 -35
q25 -32 30 -68q6 -57 -15 -75zM224 283q0 20 -13 62q-18 55 -41 55q-5 0 -15 -11t-11 -16q-8 -54 -8 -65q2 -101 2 -86q86 15 86 61zM227 598q-140 -124 -139 -127q0 -2 19 -3q19 0 20 3q81 43 167 90q7 8 7 16q0 11 -14 19.5t-31 8.5q-16 0 -29 -7z" />
    <glyph glyph-name="egrave" unicode="&#xe8;" horiz-adv-x="380" 
d="M330 275q-52 -45 -123 -67l-66 -18q-1 -38 13 -69q7 -16 43.5 -36t65.5 -20q13 0 32 11l38 22q11 0 11 -7q-36 -39 -130 -91q-22 -13 -52 -13q-36 0 -82 28q-53 31 -60 70q0 3 -10 44q-6 27 -6 46q0 89 15 137q6 20 42 51q31 28 57 42q87 48 135 48q34 0 62 -35
q25 -32 30 -68q6 -57 -15 -75zM224 283q0 20 -13 62q-18 55 -41 55q-5 0 -15 -11t-11 -16q-8 -54 -8 -65q2 -101 2 -86q86 15 86 61zM144 598q140 -124 140 -127q-1 -2 -19 -3q-19 0 -21 3q-81 43 -166 90q-7 8 -7 16q0 11 13.5 19.5t31.5 8.5q16 0 28 -7z" />
    <glyph glyph-name="ecircumflex" unicode="&#xea;" horiz-adv-x="380" 
d="M330 275q-52 -45 -123 -67l-66 -18q-1 -38 13 -69q7 -16 43.5 -36t65.5 -20q13 0 32 11l38 22q11 0 11 -7q-36 -39 -130 -91q-22 -13 -52 -13q-36 0 -82 28q-53 31 -60 70q0 3 -10 44q-6 27 -6 46q0 89 15 137q6 20 42 51q31 28 57 42q87 48 135 48q34 0 62 -35
q25 -32 30 -68q6 -57 -15 -75zM224 283q0 20 -13 62q-18 55 -41 55q-5 0 -15 -11t-11 -16q-8 -54 -8 -65q2 -101 2 -86q86 15 86 61zM320 491l-8 -19l-126 41l-117 -41l-5 16l125 95l2 -1l2 1l1 -2z" />
    <glyph glyph-name="edieresis" unicode="&#xeb;" horiz-adv-x="380" 
d="M330 275q-52 -45 -123 -67l-66 -18q-1 -38 13 -69q7 -16 43.5 -36t65.5 -20q13 0 32 11l38 22q11 0 11 -7q-36 -39 -130 -91q-22 -13 -52 -13q-36 0 -82 28q-53 31 -60 70q0 3 -10 44q-6 27 -6 46q0 89 15 137q6 20 42 51q31 28 57 42q87 48 135 48q34 0 62 -35
q25 -32 30 -68q6 -57 -15 -75zM224 283q0 20 -13 62q-18 55 -41 55q-5 0 -15 -11t-11 -16q-8 -54 -8 -65q2 -101 2 -86q86 15 86 61zM217 535q0 20 14 34.5t35 14.5q20 0 34.5 -14.5t14.5 -34.5t-14.5 -34.5t-34.5 -14.5q-21 0 -35 14.5t-14 34.5zM46 535q0 20 14 34.5
t35 14.5q20 0 34.5 -14.5t14.5 -34.5t-14.5 -34.5t-34.5 -14.5q-21 0 -35 14.5t-14 34.5z" />
    <glyph glyph-name="iacute" unicode="&#xed;" horiz-adv-x="287" 
d="M298 100q-11 -11 -73 -57q-72 -53 -88 -53q-25 0 -56 34t-31 57v220q0 31 -20 48q-7 6 -40 21l198 86v-322q0 -19 14 -30.5t33 -11.5q11 0 63 8zM127 598q-140 -124 -139 -127q0 -2 19 -3q19 0 20 3q81 43 167 90q7 8 7 16q0 11 -14 19.5t-31 8.5q-16 0 -29 -7z" />
    <glyph glyph-name="igrave" unicode="&#xec;" horiz-adv-x="287" 
d="M298 100q-11 -11 -73 -57q-72 -53 -88 -53q-25 0 -56 34t-31 57v220q0 31 -20 48q-7 6 -40 21l198 86v-322q0 -19 14 -30.5t33 -11.5q11 0 63 8zM65 598q140 -124 139 -127q0 -2 -19 -3q-18 0 -20 3q-81 43 -167 90q-7 8 -7 16q0 11 14 19.5t32 8.5q15 0 28 -7z" />
    <glyph glyph-name="icircumflex" unicode="&#xee;" horiz-adv-x="287" 
d="M298 100q-11 -11 -73 -57q-72 -53 -88 -53q-25 0 -56 34t-31 57v220q0 31 -20 48q-7 6 -40 21l198 86v-322q0 -19 14 -30.5t33 -11.5q11 0 63 8zM240 492l-8 -19l-121 43l-122 -43l-5 16l125 96l2 -1l2 1l1 -3z" />
    <glyph glyph-name="idieresis" unicode="&#xef;" horiz-adv-x="287" 
d="M298 100q-11 -11 -73 -57q-72 -53 -88 -53q-25 0 -56 34t-31 57v220q0 31 -20 48q-7 6 -40 21l198 86v-322q0 -19 14 -30.5t33 -11.5q11 0 63 8zM147 535q0 20 14 34.5t35 14.5q20 0 34.5 -14.5t14.5 -34.5t-14.5 -34.5t-34.5 -14.5q-21 0 -35 14.5t-14 34.5zM-24 535
q0 20 14 34.5t35 14.5q20 0 34.5 -14.5t14.5 -34.5t-14.5 -34.5t-34.5 -14.5q-21 0 -35 14.5t-14 34.5z" />
    <glyph glyph-name="ntilde" unicode="&#xf1;" horiz-adv-x="487" 
d="M155 445l-158 -74q46 -2 46 -92v-22q-1 -14 -1 -17v-196q0 -8 1 -55l142 70l-1 175q3 53 5 64q11 57 44 58t41 -29q4 -12 4 -48v-207q0 -22 24 -48t48 -31l124 79q-16 0 -36 18q-23 20 -23 42v180q-13 136 -102 136q-24 0 -69 -36q-37 -31 -55 -55q0 25 -10.5 52.5
t-23.5 35.5zM273 487q-24 0 -52 16.5t-53 16.5q-55 0 -55 -21q-10 -4 -20 -3q-13 1 -11 13q0 33 34 56q29 18 62 18q26 0 57 -19q28 -17 60 -17q27 0 53 28q7 10 16 10t15 -10q0 -34 -39 -63q-35 -25 -67 -25z" />
    <glyph glyph-name="oacute" unicode="&#xf3;" horiz-adv-x="493" 
d="M23 213q0 21 6.5 57.5t11.5 44.5q30 45 125 93q86 44 123 44q87 0 125 -77q25 -51 25 -124t-22 -113.5t-117 -96.5q-87 -52 -114 -52q-84 0 -128 74q-35 61 -35 150zM293 222q0 169 -104 159q-19 -25 -20 -70q0 4 3 -75q5 -178 78 -178q9 0 19 3q24 48 24 161zM277 598
q-140 -124 -139 -127q0 -2 19 -3q19 0 20 3q81 43 167 90q7 8 7 16q0 11 -14 19.5t-31 8.5q-16 0 -29 -7z" />
    <glyph glyph-name="ograve" unicode="&#xf2;" horiz-adv-x="493" 
d="M23 213q0 21 6.5 57.5t11.5 44.5q30 45 125 93q86 44 123 44q87 0 125 -77q25 -51 25 -124t-22 -113.5t-117 -96.5q-87 -52 -114 -52q-84 0 -128 74q-35 61 -35 150zM293 222q0 169 -104 159q-19 -25 -20 -70q0 4 3 -75q5 -178 78 -178q9 0 19 3q24 48 24 161zM183 598
q140 -124 139 -127q0 -2 -19 -3q-19 0 -20 3q-82 43 -167 90q-7 8 -7 16q0 11 13.5 19.5t31.5 8.5q16 0 29 -7z" />
    <glyph glyph-name="ocircumflex" unicode="&#xf4;" horiz-adv-x="493" 
d="M23 213q0 21 6.5 57.5t11.5 44.5q30 45 125 93q86 44 123 44q87 0 125 -77q25 -51 25 -124t-22 -113.5t-117 -96.5q-87 -52 -114 -52q-84 0 -128 74q-35 61 -35 150zM293 222q0 169 -104 159q-19 -25 -20 -70q0 4 3 -75q5 -178 78 -178q9 0 19 3q24 48 24 161zM360 492
l-8 -19l-121 43l-122 -43l-5 16l125 96l2 -1l2 1l1 -3z" />
    <glyph glyph-name="odieresis" unicode="&#xf6;" horiz-adv-x="493" 
d="M23 213q0 21 6.5 57.5t11.5 44.5q30 45 125 93q86 44 123 44q87 0 125 -77q25 -51 25 -124t-22 -113.5t-117 -96.5q-87 -52 -114 -52q-84 0 -128 74q-35 61 -35 150zM293 222q0 169 -104 159q-19 -25 -20 -70q0 4 3 -75q5 -178 78 -178q9 0 19 3q24 48 24 161zM257 535
q0 20 14 34.5t35 14.5q20 0 34.5 -14.5t14.5 -34.5t-14.5 -34.5t-34.5 -14.5q-21 0 -35 14.5t-14 34.5zM86 535q0 20 14 34.5t35 14.5q20 0 34.5 -14.5t14.5 -34.5t-14.5 -34.5t-34.5 -14.5q-21 0 -35 14.5t-14 34.5z" />
    <glyph glyph-name="otilde" unicode="&#xf5;" horiz-adv-x="493" 
d="M23 213q0 21 6.5 57.5t11.5 44.5q30 45 125 93q86 44 123 44q87 0 125 -77q25 -51 25 -124t-22 -113.5t-117 -96.5q-87 -52 -114 -52q-84 0 -128 74q-35 61 -35 150zM293 222q0 169 -104 159q-19 -25 -20 -70q0 4 3 -75q5 -178 78 -178q9 0 19 3q24 48 24 161zM273 487
q-24 0 -52 16.5t-53 16.5q-55 0 -55 -21q-10 -4 -20 -3q-13 1 -11 13q0 33 34 56q29 18 62 18q26 0 57 -19q28 -17 60 -17q27 0 53 28q7 10 16 10t15 -10q0 -34 -39 -63q-35 -25 -67 -25z" />
    <glyph glyph-name="uacute" unicode="&#xfa;" horiz-adv-x="488" 
d="M497 85q-16 -16 -62 -51q-52 -41 -63 -41q-23 0 -50 33q-22 28 -34 59q-34 -27 -67 -55q-49 -37 -70 -37q-91 0 -100 119q0 59 -1 165q-1 42 -9 58q-9 20 -36 18q58 32 184 95l-1 -175q0 -10 -1 -36t-1 -41q0 -105 56 -105q9 0 23 12.5t14 22.5v262q39 22 139 66v-316
q7 -35 14 -47t26 -12q12 0 39 6zM267 598q-140 -124 -139 -127q0 -2 19 -3q19 0 20 3q81 43 167 90q7 8 7 16q0 11 -14 19.5t-31 8.5q-16 0 -29 -7z" />
    <glyph glyph-name="ugrave" unicode="&#xf9;" horiz-adv-x="488" 
d="M497 85q-16 -16 -62 -51q-52 -41 -63 -41q-23 0 -50 33q-22 28 -34 59q-34 -27 -67 -55q-49 -37 -70 -37q-91 0 -100 119q0 59 -1 165q-1 42 -9 58q-9 20 -36 18q58 32 184 95v-165q0 -12 -1 -40.5t-1 -44.5q0 -107 55 -107q9 0 23 12.5t14 22.5v262q39 22 139 66v-316
q7 -35 14 -47t26 -12q12 0 39 6zM172 598q140 -124 139 -127q0 -2 -19 -3q-19 0 -20 3q-82 43 -167 90q-7 8 -7 16q0 11 13.5 19.5t31.5 8.5q16 0 29 -7z" />
    <glyph glyph-name="ucircumflex" unicode="&#xfb;" horiz-adv-x="488" 
d="M497 85q-16 -16 -62 -51q-52 -41 -63 -41q-23 0 -50 33q-22 28 -34 59q-34 -27 -67 -55q-49 -37 -70 -37q-91 0 -100 119q0 59 -1 165q-1 42 -9 58q-9 20 -36 18q58 32 184 95v-165q0 -12 -1 -40.5t-1 -44.5q0 -107 55 -107q9 0 23 12.5t14 22.5v262q39 22 139 66v-316
q7 -35 14 -47t26 -12q12 0 39 6zM350 492l-8 -19l-121 43l-122 -43l-5 16l125 96l2 -1l2 1l1 -3z" />
    <glyph glyph-name="udieresis" unicode="&#xfc;" horiz-adv-x="488" 
d="M497 85q-16 -16 -62 -51q-52 -41 -63 -41q-23 0 -50 33q-22 28 -34 59q-34 -27 -67 -55q-49 -37 -70 -37q-91 0 -100 119q0 59 -1 165q-1 42 -9 58q-9 20 -36 18q58 32 184 95v-165q0 -12 -1 -40.5t-1 -44.5q0 -107 55 -107q9 0 23 12.5t14 22.5v262q39 22 139 66v-316
q7 -35 14 -47t26 -12q12 0 39 6zM257 535q0 20 14 34.5t35 14.5q20 0 34.5 -14.5t14.5 -34.5t-14.5 -34.5t-34.5 -14.5q-21 0 -35 14.5t-14 34.5zM86 535q0 20 14 34.5t35 14.5q20 0 34.5 -14.5t14.5 -34.5t-14.5 -34.5t-34.5 -14.5q-21 0 -35 14.5t-14 34.5z" />
    <glyph glyph-name="dagger" unicode="&#x2020;" 
 />
    <glyph glyph-name="degree" unicode="&#xb0;" horiz-adv-x="284" 
d="M127 696q51 0 86.5 -36t35.5 -87t-35.5 -87t-86.5 -36q-50 0 -85.5 36t-35.5 87t35.5 87t85.5 36zM127 666q-37 0 -64 -27t-27 -66t27 -66t64 -27q38 0 65 27t27 66t-27 66t-65 27z" />
    <glyph glyph-name="cent" unicode="&#xa2;" horiz-adv-x="377" 
d="M337 295q-50 -51 -141 -119v-90h-42v82q-35 4 -67 17q-63 24 -81 85q-8 26 -8 91q0 52 16 132q4 21 50 53q41 29 90 51v76h42v-61q11 2 18 2q34 0 73 -32.5t48 -72.5q-28 -15 -110 -67q-1 23 -25 58t-54 53q-5 -2 -11 -22q-9 -28 -9 -98q0 -79 8 -109q20 -71 87 -71
q42 0 104 52q0 -2 12 -10z" />
    <glyph glyph-name="sterling" unicode="&#xa3;" horiz-adv-x="524" 
d="M365 303h-137q3 -53 -26 -121q0 -4 -12.5 -43t-12.5 -44q1 -1 6 -1q11 0 56 7q40 7 42 6q15 5 31 5q15 0 45.5 -6.5t49.5 -6.5q34 0 72 15q-3 -18 -15 -33q-32 -41 -89 -66q-48 -21 -94 -24l-188 21q-2 0 -26 -6q-27 -6 -50 -8q23 33 51.5 131t28.5 154q0 12 -2 20h-90
v52h76l-1 3l-21 52q-17 42 -17 52q0 48 18.5 77t59.5 55t83 50.5t93 27.5q47 4 98 -37q48 -38 66 -86q8 -20 15 -32q-40 -35 -95 -61q-4 42 -64 92t-104 50q-36 0 -36 -79q0 -44 15 -90q13 -37 27 -74h147v-52z" />
    <glyph glyph-name="section" unicode="&#xa7;" horiz-adv-x="22" 
 />
    <glyph glyph-name="bullet" unicode="&#x2022;" horiz-adv-x="351" 
d="M17 328q0 59 39 101t95 42q55 0 94.5 -42t39.5 -101t-39.5 -101t-94.5 -42q-56 0 -95 42t-39 101z" />
    <glyph glyph-name="paragraph" unicode="&#xb6;" horiz-adv-x="487" 
d="M462 -65h-282v30q39 0 49 12t10 53v283l-31 -1q-85 -3 -136.5 44t-51.5 132q0 101 66 142q52 32 162 32h214v-30q-38 0 -47.5 -12.5t-9.5 -53.5v-536q0 -42 8 -52q10 -13 49 -13v-30zM352 -35v667h-63v-667h63z" />
    <glyph glyph-name="germandbls" unicode="&#xdf;" horiz-adv-x="533" 
d="M249 684q60 0 125 -39q75 -45 75 -104q0 -75 -140 -164q164 -88 164 -183q0 -77 -117 -155q-104 -69 -167 -69q-44 0 -44 5q1 2 2 3l109 108l46 -7q61 -4 62 41q2 56 -47 104q-27 28 -96 71q-13 8 -13 34q0 53 36 59q95 15 95 75q0 34 -30 84q-26 45 -61 80q-21 9 -27 9
q-10 0 -23 -9q-1 0 -32 -20q-16 -11 -20 -35v-39v-473l-143 -76q14 57 15 78q0 29 -3 121q-2 100 -2 154q0 120 10 179q8 38 26 56q113 112 200 112z" />
    <glyph glyph-name="registered" unicode="&#xae;" horiz-adv-x="374" 
d="M162 383q-62 0 -106 45t-44 108q0 62 44 106t106 44t104.5 -44.5t42.5 -107.5t-42.5 -107t-104.5 -44zM162 406q51 0 88 37.5t37 90.5t-37 90.5t-88 37.5q-54 1 -90 -36t-36 -92q0 -53 37.5 -90.5t88.5 -37.5zM176 534l47 -72h-26l-47 72h-26v-72h-22v157h68q-6 0 -5 1h7
q52 0 52 -40q0 -44 -48 -46zM126 557h45q30 0 30 23q0 17 -34 17h-41v-40z" />
    <glyph glyph-name="copyright" unicode="&#xa9;" horiz-adv-x="772" 
d="M346 -11q-143 0 -242.5 100t-99.5 244q0 145 99.5 245t242.5 100t243 -100t100 -245q0 -144 -100 -244t-243 -100zM346 635q-122 0 -211 -88t-89 -214q0 -125 89 -213t211 -88t211 88t89 213q0 126 -89 214t-211 88zM355 139q-86 0 -136.5 55t-50.5 142q0 83 52 139.5
t136 56.5q59 0 103 -34t54 -91h-45q-22 81 -112 81q-67 0 -106 -44t-39 -110q0 -60 34 -103q40 -49 109 -49q94 0 115 79h43q-13 -57 -55.5 -89.5t-101.5 -32.5z" />
    <glyph glyph-name="trademark" unicode="&#x2122;" horiz-adv-x="481" 
d="M401 650v-196h-27v167h-2l-66 -167h-17l-65 167v0v-167h-28v196h46l56 -141l57 141h46zM159 650v-29h-64v-167h-28v167h-65v29h157z" />
    <glyph glyph-name="acute" unicode="&#xb4;" horiz-adv-x="400" 
d="M237 838q-140 -124 -139 -127q0 -2 19 -3q19 0 20 3q81 43 167 90q7 8 7 16q0 11 -14 19.5t-31 8.5q-16 0 -29 -7z" />
    <glyph glyph-name="dieresis" unicode="&#xa8;" horiz-adv-x="562" 
d="M270 765q0 20 14.5 34.5t35.5 14.5q20 0 34.5 -14.5t14.5 -34.5q0 -21 -14.5 -35.5t-34.5 -14.5q-21 0 -35.5 14.5t-14.5 35.5zM99 765q0 20 14.5 34.5t35.5 14.5q20 0 34.5 -14.5t14.5 -34.5q0 -21 -14.5 -35.5t-34.5 -14.5q-21 0 -35.5 14.5t-14.5 35.5z" />
    <glyph glyph-name="AE" unicode="&#xc6;" horiz-adv-x="803" 
d="M329 420q0 22 -3 43q-36 -43 -86 -139l-42 -88q14 5 71 9q49 4 59 14q-1 11 1 161zM766 672q-8 -17 -24 -35q-65 -71 -133 -71q-4 0 -51 6.5t-49 7.5q-17 1 -19 -5q-4 -12 -5 -14l1 -181q8 -3 23 6q19 11 26 12q39 7 96 7q28 -9 55 -9q15 0 38.5 3.5t31.5 3.5
q-45 -75 -94 -101q-39 -21 -109 -21q-3 0 -28 6.5t-34 6.5q-4 0 -5 -1v-55q0 -7 -1 -24t-1 -26q0 -72 55 -72h43q10 0 74 7q74 7 102 13l-13 -29q-39 -53 -171 -106q-30 -12 -106 -8q-62 4 -90 19q-40 21 -42 73q-8 39 -8 106q0 3 -1 3q-52 -15 -157 -23q-14 -19 -36 -50
q-34 -44 -67 -88q-38 -50 -54 -58q0 1 -10.5 4.5t-9.5 7.5q32 45 88 133q29 51 142 269q16 29 63 100q16 18 36 50q6 24 1 39q-19 -10 -57 -27l-7 15q14 11 96 57q87 49 101 50q27 14 58 14q12 0 38.5 -3t41.5 -3q117 -11 132 -11q22 0 40 2z" />
    <glyph glyph-name="Oslash" unicode="&#xd8;" horiz-adv-x="595" 
d="M203 213l157 308q-26 70 -83 92q-8 3 -15 3q-10 0 -19.5 -7.5t-11.5 -7.5q-26 -4 -37 -115q-7 -75 -6 -137q2 -66 15 -136zM376 449l-154 -304q37 -107 94 -103q41 3 58 134q9 80 8 144q0 40 -6 129zM456 711h53l-47 -92q71 -91 75 -251q2 -82 -33 -215q-9 -32 -48 -73
t-80 -60q-82 -38 -144 -37q-41 0 -81 22l-25 -48h-53l39 76q-76 72 -76 293q0 97 23 171q7 24 28 54q23 36 48 51q117 74 185 81q61 6 107 -29z" />
    <glyph glyph-name="plusminus" unicode="&#xb1;" 
 />
    <glyph glyph-name="yen" unicode="&#xa5;" horiz-adv-x="553" 
d="M121 275h110l-178 290q-5 9 -11 17q-16 20 -38 27q1 3 70 37q66 33 75 37q2 1 5 1q29 0 88 -136q67 -154 88 -176q13 5 54.5 103.5t41.5 135.5q0 25 -17 25q-3 0 -13 -1t-17 -1l137 98q13 -2 20.5 -19.5t7.5 -28.5q0 -34 -51 -138q-9 -19 -71 -129q-47 -84 -70 -142h107
v-46h-116q-3 -23 -4 -54h120v-46h-121q0 -64 3 -122l-132 -29q20 24 24 151h-112v46h113q0 26 -1 54h-112v46z" />
    <glyph glyph-name="mu" unicode="&#xb5;" horiz-adv-x="450" 
d="M332 391l-129 -87l-1 -122q0 -4 -12.5 -43t-12.5 -44q0 -1 2 -1q5 0 22.5 7t19.5 6q18 6 41 6q16 0 49 -4.5t51 -4.5q31 0 57 10q-3 -18 -15 -33q-32 -41 -89 -66q-48 -21 -94 -24l-128 21q-2 0 -18 -4q-20 -4 -43 -6q22 56 22 87q0 9 -2 15v98l-62 -41v61l62 42v304
q-1 5 -4 14.5t-5 13.5q134 76 141 76l19 15v-322l129 87v-61z" />
    <glyph glyph-name="mu" unicode="&#x3bc;" horiz-adv-x="450" 
d="M332 391l-129 -87l-1 -122q0 -4 -12.5 -43t-12.5 -44q0 -1 2 -1q5 0 22.5 7t19.5 6q18 6 41 6q16 0 49 -4.5t51 -4.5q31 0 57 10q-3 -18 -15 -33q-32 -41 -89 -66q-48 -21 -94 -24l-128 21q-2 0 -18 -4q-20 -4 -43 -6q22 56 22 87q0 9 -2 15v98l-62 -41v61l62 42v304
q-1 5 -4 14.5t-5 13.5q134 76 141 76l19 15v-322l129 87v-61z" />
    <glyph glyph-name="ordfeminine" unicode="&#xaa;" horiz-adv-x="507" 
d="M245 -15q-27 0 -76 13t-76 13q-41 0 -107 -16q71 83 109 154q44 88 90 177t66 122q49 79 106 136q-20 -4 -59 -23t-56 -21q-24 -3 -43 -3q-20 0 -43.5 4t-37.5 4q-39 0 -105 -16l22 41q46 66 81 87q42 26 120 26q17 0 54.5 -5.5t61.5 -5.5q49 0 110 11l-20 -28
q-70 -135 -140 -271q-85 -161 -173 -271q68 34 115 34q25 0 66 -10t71 -10q42 0 97 14q-16 -70 -86 -114q-65 -42 -147 -42zM391 820l-4 11l-123 -46l-120 46l-2 -11l121 -100l2 1l3 -1l1 2z" />
    <glyph glyph-name="ordmasculine" unicode="&#xba;" horiz-adv-x="419" 
d="M390 442q-70 -110 -103 -158q-54 -80 -125 -169q5 -5 14 -6q5 0 17.5 1.5t18.5 1.5q3 0 26.5 -3.5t27.5 -3.5q34 0 108 33q-34 -77 -72.5 -111.5t-95.5 -34.5q-25 0 -57.5 3.5t-54.5 3.5q-35 0 -88 -7v15q49 46 138 149q107 126 130 180q-17 -1 -58 -8q-37 -6 -42 -6
q2 0 -25.5 7t-45.5 7q-16 0 -43.5 -4.5t-37.5 -4.5q36 43 73 86q36 35 75 32q22 -3 111 -10q31 -1 109 7zM361 580l-4 11l-123 -46l-120 46l-2 -11l121 -100l2 1l3 -1l1 2z" />
    <glyph glyph-name="ae" unicode="&#xe6;" horiz-adv-x="600" 
d="M217 142v37q0 77 0 73q-52 -24 -64 -32q-20 -13 -20 -47q0 -30 14 -59q18 -37 49 -37q22 0 30 8zM540 275q-52 -45 -123 -67l-66 -18q-1 -38 13 -69q5 -13 32 -29q10 4 17 13l3 -23v-1q32 -16 57 -16q13 0 32 11l38 22q11 0 11 -7q-36 -39 -130 -91q-22 -13 -52 -13
q-28 0 -68 20q-44 22 -63 52q-1 -1 -10.5 -8.5t-12.5 -7.5t-47 -25.5t-66 -25.5q-45 0 -78 36q-30 33 -32 74q-3 39 21 79t60 48l40 15q31 9 61 19q40 14 41 36q1 51 -75 51q-41 0 -52 -25q-21 -44 -53 -68h-13q0 6 -2 21t-2 23q2 12 8 20q30 30 73 58q23 17 47 34
q44 31 56 31q42 0 100 -53q13 9 23 14q87 48 135 48q34 0 62 -35q25 -32 30 -68q6 -57 -15 -75zM434 283q0 20 -13 62q-18 55 -41 55q-5 0 -15 -11t-11 -16q-8 -54 -8 -65q2 -101 2 -86q86 15 86 61z" />
    <glyph glyph-name="oslash" unicode="&#xf8;" horiz-adv-x="493" 
d="M23 213q0 21 6.5 57.5t11.5 44.5q30 45 125 93q86 44 123 44q18 0 34 -4l25 43h53l-34 -61q72 -48 72 -179q0 -73 -22 -113.5t-117 -96.5q-87 -52 -114 -52q-22 0 -41 5l-19 -37h-53l29 57q-79 56 -79 199zM269 343q-26 43 -80 38q-19 -25 -20 -70q0 4 3 -75q0 -21 5 -74
zM293 222q0 32 -3 57l-93 -183q20 -38 53 -38q9 0 19 3q24 48 24 161z" />
    <glyph glyph-name="questiondown" unicode="&#xbf;" horiz-adv-x="486" 
d="M4 -74q0 10 9 49q6 24 48 76q51 63 60 78q27 47 31 110q76 40 110 40q6 0 7 -2q7 -13 7 -30q0 -37 -56.5 -137.5t-56.5 -151.5q0 -24 15 -56q21 -43 54 -43t50 75q5 18 13 91q50 12 133 46q6 -22 6 -34q0 -23 -14 -62q-15 -44 -35 -64q-32 -33 -123.5 -76t-124.5 -43
q-57 0 -95 41t-38 93zM99 399q16 16 44 32q23 13 47.5 28t30.5 15q11 0 52 -36q26 -24 53 -47l-128 -71q-3 2 -99 79z" />
    <glyph glyph-name="exclamdown" unicode="&#xa1;" horiz-adv-x="271" 
d="M72 259l101 32q21 -111 21 -170l8 -263l-164 -60l14 311zM6 415q28 22 55 44q36 28 55 28q8 0 53.5 -30t49.5 -42q-20 -19 -60.5 -47.5t-45.5 -27.5q-18 3 -47.5 27t-59.5 48z" />
    <glyph glyph-name="logicalnot" unicode="&#xac;" 
 />
    <glyph glyph-name="florin" unicode="&#x192;" horiz-adv-x="540" 
d="M1 434h50q2 11 3 20q12 62 48 107q14 17 52 40q49 29 60 38q68 52 100 52q15 0 48 -14t47 -27q3 -4 54 -41q22 -16 31 -53l-52 -34q-33 -21 -51 -27q-2 40 -66 74q-57 31 -104 31q-27 0 -40 -166h181l-6 -46h-178v-13q0 -19 1 -41h183l-6 -45h-172q24 -176 121 -176
q30 0 78 15q53 17 88 41q2 0 6.5 -4t4.5 -10q0 -12 -43 -65q-17 -22 -55.5 -51t-62.5 -40q-18 -7 -67 -7q-202 0 -212 298l-47 1l6 43h41l4 56l-51 1z" />
    <glyph glyph-name="guillemotleft" unicode="&#xab;" horiz-adv-x="329" 
d="M281 426l-78 -149l76 -142l-11 -13l-133 155q-3 2 135 166zM141 427l-80 -150l78 -141l-11 -13l-133 156q-3 2 135 165z" />
    <glyph glyph-name="guillemotright" unicode="&#xbb;" horiz-adv-x="329" 
d="M-5 140l79 148l-76 143l11 13l132 -156q4 -2 -134 -165zM135 138l80 150l-77 142l11 13l132 -156q4 -2 -134 -165z" />
    <glyph glyph-name="ellipsis" unicode="&#x2026;" horiz-adv-x="1028" 
d="M652 67q-28 -18 -56 -37q-38 -23 -63 -23q-20 0 -53 24q-27 20 -43 42q12 12 63 43t58 31q6 0 94 -80zM972 67q-28 -18 -56 -37q-38 -23 -63 -23q-20 0 -53 24q-27 20 -43 42q12 12 63 43t58 31q6 0 94 -80zM332 67q-28 -18 -56 -37q-38 -23 -63 -23q-20 0 -53 24
q-27 20 -43 42q12 12 63 43t58 31q6 0 94 -80z" />
    <glyph glyph-name="nonbreakingspace" unicode="&#xa0;" horiz-adv-x="201" 
 />
    <glyph glyph-name="Agrave" unicode="&#xc0;" horiz-adv-x="562" 
d="M558 62l-80 -54q-46 -29 -71 -29q-28 0 -56 34q-22 27 -30 53q-42 137 -44 137q-49 -16 -151 -26q-9 -19 -24 -50q-22 -45 -45 -89q-25 -50 -39 -59q0 1 -11.5 4t-11.5 8q0 2 23 53q25 56 32 80q16 52 76 271q8 29 37 101q24 37 24 50q0 24 -9 39q-16 -11 -49 -27l-11 14
q13 13 85 61q77 52 86 48q15 -6 56 -171q57 -230 67 -264l28 -94q34 -92 64 -92q8 0 23 7.5t26 7.5q0 -2 2.5 -7t2.5 -6zM262 267l-6 20q0 8 -17 79q-18 77 -29 104q-25 -43 -52 -139l-20 -88q13 4 69 10q47 4 55 14zM201 838q140 -124 140 -127q-1 -2 -19 -3q-19 0 -21 3
q-81 43 -166 90q-7 8 -7 16q0 11 13.5 19.5t31.5 8.5q16 0 28 -7z" />
    <glyph glyph-name="Atilde" unicode="&#xc3;" horiz-adv-x="562" 
d="M558 62l-80 -54q-46 -29 -71 -29q-28 0 -56 34q-22 27 -30 53q-42 137 -44 137q-49 -16 -151 -26q-9 -19 -24 -50q-22 -45 -45 -89q-25 -50 -39 -59q0 1 -11.5 4t-11.5 8q0 2 23 53q25 56 32 80q16 52 76 271q8 29 37 101q24 37 24 50q0 24 -9 39q-16 -11 -49 -27l-11 14
q13 13 85 61q77 52 86 48q15 -6 56 -171q57 -230 67 -264l28 -94q34 -92 64 -92q8 0 23 7.5t26 7.5q0 -2 2.5 -7t2.5 -6zM262 267l-6 20q0 8 -17 79q-18 77 -29 104q-25 -43 -52 -139l-20 -88q13 4 69 10q47 4 55 14zM293 717q-24 0 -52 16.5t-53 16.5q-55 0 -55 -21
q-10 -4 -20 -3q-13 1 -11 13q0 33 34 56q29 18 62 18q26 0 57 -19q28 -17 60 -17q27 0 53 28q7 10 16 10t15 -10q0 -34 -39 -63q-35 -25 -67 -25z" />
    <glyph glyph-name="Otilde" unicode="&#xd5;" horiz-adv-x="595" 
d="M537 368q2 -82 -33 -215q-9 -32 -48 -73t-80 -60q-82 -38 -144 -37q-60 0 -112 43q-55 47 -67 119q-17 99 -17 181q0 97 23 171q7 24 28 54q23 36 48 51q117 74 185 81q109 11 169 -106q45 -88 48 -209zM382 320q-3 122 -10 157q-22 107 -95 136q-8 3 -15 3
q-10 0 -19.5 -7.5t-11.5 -7.5q-26 -4 -37 -115q-7 -75 -6 -137q3 -118 30 -193q42 -118 98 -114q41 3 58 134q9 80 8 144zM323 717q-24 0 -52 16.5t-53 16.5q-55 0 -55 -21q-10 -4 -20 -3q-13 1 -11 13q0 33 34 56q29 18 62 18q26 0 57 -19q28 -17 60 -17q27 0 53 28
q7 10 16 10t15 -10q0 -34 -39 -63q-35 -25 -67 -25z" />
    <glyph glyph-name="OE" unicode="&#x152;" horiz-adv-x="845" 
d="M380 279q0 159 -1 141q-12 158 -102 193q-8 3 -15 3q-10 0 -19.5 -7.5t-11.5 -7.5q-26 -4 -37 -115q-7 -75 -6 -137q3 -118 30 -193q42 -118 98 -114q44 4 59 146q5 43 5 91zM816 672q-8 -17 -24 -35q-65 -71 -133 -71q-4 0 -51 6.5t-49 7.5q-17 1 -19 -5q-4 -12 -5 -14
l1 -166q0 -5 1 -15q8 -3 24.5 7t23.5 11q39 7 96 7q28 -9 55 -9q15 0 38.5 3.5t31.5 3.5q-45 -75 -94 -101q-39 -21 -109 -21q-3 0 -28 6.5t-34 6.5q-4 0 -5 -1v-55q0 -7 -1 -24t-1 -26q0 -72 55 -72h43q10 0 74 7q74 7 102 13l-13 -29q-39 -53 -171 -106q-30 -12 -106 -8
q-97 6 -114 38l-2 4q-13 -9 -26 -15q-82 -38 -144 -37q-60 0 -112 43q-55 47 -67 119q-17 99 -17 181q0 97 23 171q7 24 28 54q23 36 48 51q117 74 185 81q91 9 148 -72q49 37 82 52q42 18 94 18q117 -11 132 -11q22 0 40 2z" />
    <glyph glyph-name="oe" unicode="&#x153;" horiz-adv-x="678" 
d="M293 222q0 169 -104 159q-19 -25 -20 -70q0 4 3 -75q5 -178 78 -178q9 0 19 3q24 48 24 161zM620 275q-52 -45 -123 -67l-66 -18q-1 -38 13 -69q7 -16 43.5 -36t65.5 -20q13 0 32 11l38 22q11 0 11 -7q-36 -39 -130 -91q-22 -13 -52 -13q-27 0 -66 19q-42 21 -63 49
q-103 -66 -137 -66q-84 0 -128 74q-35 61 -35 150q0 21 6.5 57.5t11.5 44.5q30 45 125 93q86 44 123 44q71 0 106 -55q7 5 13 8q87 48 135 48q34 0 62 -35q25 -32 30 -68q6 -57 -15 -75zM514 283q0 20 -13 62q-18 55 -41 55q-5 0 -15 -11t-11 -16q-8 -54 -8 -65
q2 -101 2 -86q86 15 86 61z" />
    <glyph glyph-name="endash" unicode="&#x2013;" horiz-adv-x="507" 
d="M428 200h-423l41 87l429 -1z" />
    <glyph glyph-name="emdash" unicode="&#x2014;" horiz-adv-x="997" 
d="M928 200h-923l41 87l929 -1z" />
    <glyph glyph-name="quotedblleft" unicode="&#x201c;" horiz-adv-x="363" 
d="M319 668q-40 -38 -44 -59l-4 -21q0 -1 9 -19q1 -2 14 -15.5t13 -19.5q0 -3 -3 -5q-6 -4 -37 -35q-26 -25 -36 -25q-20 0 -44.5 23.5t-24.5 40.5q0 18 66.5 79t80.5 61q5 0 10 -5zM139 701q-1 -10 4 -10q3 0 6 2q-3 -4 -32 -25q-13 -11 -13 -35q0 -15 16.5 -40.5
t16.5 -26.5q0 -11 -35.5 -46t-41.5 -35q-20 0 -41.5 23t-21.5 42q0 23 15 43q22 29 64 65t63 43z" />
    <glyph glyph-name="quotedblright" unicode="&#x201d;" horiz-adv-x="363" 
d="M-3 501q40 38 44.5 59t4.5 22q-1 1 -10 19q-1 2 -13.5 15.5t-12.5 19.5q0 3 2 4q6 4 37 36q26 25 36 25q20 0 44.5 -23.5t24.5 -40.5q0 -18 -66.5 -79t-80.5 -61q-5 0 -10 4zM177 469q1 10 -4 10q-3 0 -6 -2q3 4 32 25q14 10 14 35q0 14 -17 40t-17 27q0 10 35.5 45.5
t41.5 35.5q20 0 41.5 -23t21.5 -43q0 -22 -15 -42q-22 -29 -63.5 -65t-63.5 -43z" />
    <glyph glyph-name="quoteleft" unicode="&#x2018;" horiz-adv-x="208" 
d="M0 626q0 -22 15 -44.5t54 -54.5q33 -26 66 -53l16 4q-10 12 -36 43q-6 17 -6 23q0 15 44 55q-26 30 -75 83q-10 11 -17 11q-23 0 -42 -24.5t-19 -42.5z" />
    <glyph glyph-name="quoteright" unicode="&#x2019;" horiz-adv-x="208" 
d="M153 626q0 -22 -15 -44.5t-54 -54.5q-33 -26 -66 -53l-16 4q9 12 35 43q7 17 7 23q0 15 -44 55q26 30 75 83q10 11 17 11q22 0 41.5 -24.5t19.5 -42.5z" />
    <glyph glyph-name="ydieresis" unicode="&#xff;" horiz-adv-x="496" 
d="M408 40q0 -54 -62 -123q-52 -58 -126 -105q-69 -45 -98 -45q-27 0 -67 28q-66 47 -70 49q15 19 63 58t52 39l54.5 -43t75.5 -43q31 0 33 65q1 36 1 154q-36 -27 -71 -54q-41 -29 -69 -29q-36 0 -60.5 28t-29.5 78l2 199q-4 26 -14 35q-7 5 -34 13q45 28 91.5 56.5
t88.5 47.5q2 -179 1 -244q0 -2 -1 -14.5t-1 -21.5q0 -79 52 -79q34 0 41 17q3 5 3 35l1 226q93 48 124 68q11 7 21 14zM260 535q0 20 14.5 34.5t35.5 14.5q20 0 34.5 -14.5t14.5 -34.5q0 -21 -14.5 -35.5t-34.5 -14.5q-21 0 -35.5 14.5t-14.5 35.5zM89 535q0 20 14.5 34.5
t35.5 14.5q20 0 34.5 -14.5t14.5 -34.5q0 -21 -14.5 -35.5t-34.5 -14.5q-21 0 -35.5 14.5t-14.5 35.5z" />
    <glyph glyph-name="Ydieresis" unicode="&#x178;" horiz-adv-x="553" 
d="M544 684q0 -34 -51 -138q-119 -240 -247 -461q-2 -3 -11 -32q-7 -23 -18 -31q-15 -11 -47 -21q-27 -9 -35 -9l-36 -8q20 24 78 108q62 91 62 101q0 6 -186 372q-5 9 -11 17q-16 20 -38 27q1 3 70 37q66 33 75 37q2 1 5 1q29 0 88 -136q67 -154 88 -176q13 5 54.5 103.5
t41.5 135.5q0 25 -17 25q-3 0 -13 -1t-17 -1l137 98q13 -2 20.5 -19.5t7.5 -28.5zM310 775q0 20 14.5 34.5t35.5 14.5q20 0 34.5 -14.5t14.5 -34.5q0 -21 -14.5 -35.5t-34.5 -14.5q-21 0 -35.5 14.5t-14.5 35.5zM139 775q0 20 14.5 34.5t35.5 14.5q20 0 34.5 -14.5
t14.5 -34.5q0 -21 -14.5 -35.5t-34.5 -14.5q-21 0 -35.5 14.5t-14.5 35.5z" />
    <glyph glyph-name="guilsinglleft" unicode="&#x2039;" horiz-adv-x="215" 
d="M156 420l-71 -148l69 -143l-11 -13l-133 155q-3 2 135 165z" />
    <glyph glyph-name="guilsinglright" unicode="&#x203a;" horiz-adv-x="215" 
d="M10 132l71 149l-68 142l11 13l132 -155q4 -2 -134 -165z" />
    <glyph glyph-name="daggerdbl" unicode="&#x2021;" 
 />
    <glyph glyph-name="periodcentered" unicode="&#xb7;" horiz-adv-x="245" 
d="M196 340q-1 -8 -44 -40t-58 -32q-12 0 -44 21q-42 28 -47 30q8 12 51 42t48 30t41.5 -20t52.5 -31z" />
    <glyph glyph-name="periodcentered" unicode="&#x2219;" horiz-adv-x="245" 
d="M196 340q-1 -8 -44 -40t-58 -32q-12 0 -44 21q-42 28 -47 30q8 12 51 42t48 30t41.5 -20t52.5 -31z" />
    <glyph glyph-name="quotesinglbase" unicode="&#x201a;" horiz-adv-x="235" 
d="M157 75q0 -34 -66 -81q-45 -33 -77 -46l-2 13q7 2 27 18t20 25q0 7 -27 38q-16 18 -31 35q82 65 89 65q18 0 42.5 -27t24.5 -40z" />
    <glyph glyph-name="quotedblbase" unicode="&#x201e;" horiz-adv-x="396" 
d="M357 75q0 -34 -66 -81q-45 -33 -77 -46l-2 13q7 2 27 18t20 25q0 7 -27 38q-16 18 -31 35q82 65 89 65q18 0 42.5 -27t24.5 -40zM157 75q0 -34 -66 -81q-45 -33 -77 -46l-2 13q7 2 27 18t20 25q0 7 -27 38q-16 18 -31 35q82 65 89 65q18 0 42.5 -27t24.5 -40z" />
    <glyph glyph-name="Acircumflex" unicode="&#xc2;" horiz-adv-x="562" 
d="M558 62l-80 -54q-46 -29 -71 -29q-28 0 -56 34q-22 27 -30 53q-42 137 -44 137q-49 -16 -151 -26q-9 -19 -24 -50q-22 -45 -45 -89q-25 -50 -39 -59q0 1 -11.5 4t-11.5 8q0 2 23 53q25 56 32 80q16 52 76 271q8 29 37 101q24 37 24 50q0 24 -9 39q-16 -11 -49 -27l-11 14
q13 13 85 61q77 52 86 48q15 -6 56 -171q57 -230 67 -264l28 -94q34 -92 64 -92q8 0 23 7.5t26 7.5q0 -2 2.5 -7t2.5 -6zM262 267l-6 20q0 8 -17 79q-18 77 -29 104q-25 -43 -52 -139l-20 -88q13 4 69 10q47 4 55 14zM368 725l-7 -19l-122 43l-121 -43l-6 16l125 95l2 -1
l3 1l1 -2z" />
    <glyph glyph-name="Ecircumflex" unicode="&#xca;" horiz-adv-x="512" 
d="M466 672q-8 -17 -24 -35q-65 -71 -133 -71q-4 0 -51 6.5t-49 7.5q-17 1 -19 -5q-4 -12 -5 -14l1 -181q8 -3 23 6q19 11 26 12q39 7 96 7q28 -9 55 -9q15 0 38.5 3.5t31.5 3.5q-45 -75 -94 -101q-39 -21 -109 -21q-3 0 -28 6.5t-34 6.5q-4 0 -5 -1v-55q0 -7 -1 -24t-1 -26
q0 -72 55 -72h43q10 0 74 7q74 7 102 13l-13 -29q-39 -53 -171 -106q-30 -12 -106 -8q-96 6 -114 38q-22 39 -25 115q1 -14 1 133q0 218 -1 118q0 68 11 129q6 32 94 97q78 58 160 58q117 -11 132 -11q22 0 40 2zM378 725l-7 -19l-122 43l-121 -43l-6 16l125 95l2 -1l3 1
l1 -2z" />
    <glyph glyph-name="Aacute" unicode="&#xc1;" horiz-adv-x="562" 
d="M558 62l-80 -54q-46 -29 -71 -29q-28 0 -56 34q-22 27 -30 53q-42 137 -44 137q-49 -16 -151 -26q-9 -19 -24 -50q-22 -45 -45 -89q-25 -50 -39 -59q0 1 -11.5 4t-11.5 8q0 2 23 53q25 56 32 80q16 52 76 271q8 29 37 101q24 37 24 50q0 24 -9 39q-16 -11 -49 -27l-11 14
q13 13 85 61q77 52 86 48q15 -6 56 -171q57 -230 67 -264l28 -94q34 -92 64 -92q8 0 23 7.5t26 7.5q0 -2 2.5 -7t2.5 -6zM262 267l-6 20q0 8 -17 79q-18 77 -29 104q-25 -43 -52 -139l-20 -88q13 4 69 10q47 4 55 14zM287 828q-140 -124 -139 -127q0 -2 19 -3q19 0 20 3
q81 43 167 90q7 8 7 16q0 11 -14 19.5t-31 8.5q-16 0 -29 -7z" />
    <glyph glyph-name="Edieresis" unicode="&#xcb;" horiz-adv-x="512" 
d="M466 672q-8 -17 -24 -35q-65 -71 -133 -71q-4 0 -51 6.5t-49 7.5q-17 1 -19 -5q-4 -12 -5 -14l1 -181q8 -3 23 6q19 11 26 12q39 7 96 7q28 -9 55 -9q15 0 38.5 3.5t31.5 3.5q-45 -75 -94 -101q-39 -21 -109 -21q-3 0 -28 6.5t-34 6.5q-4 0 -5 -1v-55q0 -7 -1 -24t-1 -26
q0 -72 55 -72h43q10 0 74 7q74 7 102 13l-13 -29q-39 -53 -171 -106q-30 -12 -106 -8q-96 6 -114 38q-22 39 -25 115q1 -14 1 133q0 218 -1 118q0 68 11 129q6 32 94 97q78 58 160 58q117 -11 132 -11q22 0 40 2zM290 765q0 20 14.5 34.5t35.5 14.5q20 0 34.5 -14.5
t14.5 -34.5q0 -21 -14.5 -35.5t-34.5 -14.5q-21 0 -35.5 14.5t-14.5 35.5zM119 765q0 20 14.5 34.5t35.5 14.5q20 0 34.5 -14.5t14.5 -34.5q0 -21 -14.5 -35.5t-34.5 -14.5q-21 0 -35.5 14.5t-14.5 35.5z" />
    <glyph glyph-name="Egrave" unicode="&#xc8;" horiz-adv-x="512" 
d="M466 672q-8 -17 -24 -35q-65 -71 -133 -71q-4 0 -51 6.5t-49 7.5q-17 1 -19 -5q-4 -12 -5 -14l1 -181q8 -3 23 6q19 11 26 12q39 7 96 7q28 -9 55 -9q15 0 38.5 3.5t31.5 3.5q-45 -75 -94 -101q-39 -21 -109 -21q-3 0 -28 6.5t-34 6.5q-4 0 -5 -1v-55q0 -7 -1 -24t-1 -26
q0 -72 55 -72h43q10 0 74 7q74 7 102 13l-13 -29q-39 -53 -171 -106q-30 -12 -106 -8q-96 6 -114 38q-22 39 -25 115q1 -14 1 133q0 218 -1 118q0 68 11 129q6 32 94 97q78 58 160 58q117 -11 132 -11q22 0 40 2zM231 838q140 -124 140 -127q-1 -2 -19 -3q-19 0 -21 3
q-81 43 -166 90q-7 8 -7 16q0 11 13.5 19.5t31.5 8.5q16 0 28 -7z" />
    <glyph glyph-name="Iacute" unicode="&#xcd;" horiz-adv-x="249" 
d="M184 72l-155 -83l9 129v495l146 70v-611zM157 838q-140 -124 -139 -127q0 -2 19 -3q19 0 20 3q81 43 167 90q7 8 7 16q0 11 -14 19.5t-31 8.5q-16 0 -29 -7z" />
    <glyph glyph-name="Icircumflex" unicode="&#xce;" horiz-adv-x="249" 
d="M184 72l-155 -83q9 28 9 129v495l146 70q4 -261 0 -611zM238 725l-7 -19l-122 43l-121 -43l-6 16l125 95l2 -1l3 1l1 -2z" />
    <glyph glyph-name="Idieresis" unicode="&#xcf;" horiz-adv-x="249" 
d="M184 72l-155 -83q9 28 9 129v495l146 70q4 -261 0 -611zM150 765q0 20 14.5 34.5t35.5 14.5q20 0 34.5 -14.5t14.5 -34.5q0 -21 -14.5 -35.5t-34.5 -14.5q-21 0 -35.5 14.5t-14.5 35.5zM-21 765q0 20 14.5 34.5t35.5 14.5q20 0 34.5 -14.5t14.5 -34.5q0 -21 -14.5 -35.5
t-34.5 -14.5q-21 0 -35.5 14.5t-14.5 35.5z" />
    <glyph glyph-name="Igrave" unicode="&#xcc;" horiz-adv-x="249" 
d="M184 72l-155 -83q9 28 9 129v495l146 70q4 -261 0 -611zM71 838q140 -124 140 -127q-1 -2 -19 -3q-19 0 -21 3q-81 43 -166 90q-7 8 -7 16q0 11 13.5 19.5t31.5 8.5q16 0 28 -7z" />
    <glyph glyph-name="Oacute" unicode="&#xd3;" horiz-adv-x="595" 
d="M537 368q2 -82 -33 -215q-9 -32 -48 -73t-80 -60q-82 -38 -144 -37q-60 0 -112 43q-55 47 -67 119q-17 99 -17 181q0 97 23 171q7 24 28 54q23 36 48 51q117 74 185 81q109 11 169 -106q45 -88 48 -209zM382 320q-3 122 -10 157q-22 107 -95 136q-8 3 -15 3
q-10 0 -19.5 -7.5t-11.5 -7.5q-26 -4 -37 -115q-7 -75 -6 -137q3 -118 30 -193q42 -118 98 -114q41 3 58 134q9 80 8 144zM337 838q-140 -124 -139 -127q0 -2 19 -3q19 0 20 3q81 43 167 90q7 8 7 16q0 11 -14 19.5t-31 8.5q-16 0 -29 -7z" />
    <glyph glyph-name="Ocircumflex" unicode="&#xd4;" horiz-adv-x="595" 
d="M537 368q2 -82 -33 -215q-9 -32 -48 -73t-80 -60q-82 -38 -144 -37q-60 0 -112 43q-55 47 -67 119q-17 99 -17 181q0 97 23 171q7 24 28 54q23 36 48 51q117 74 185 81q109 11 169 -106q45 -88 48 -209zM382 320q-3 122 -10 157q-22 107 -95 136q-8 3 -15 3
q-10 0 -19.5 -7.5t-11.5 -7.5q-26 -4 -37 -115q-7 -75 -6 -137q3 -118 30 -193q42 -118 98 -114q41 3 58 134q9 80 8 144zM428 725l-7 -19l-122 43l-121 -43l-6 16l125 95l2 -1l3 1l1 -2z" />
    <glyph glyph-name="Ograve" unicode="&#xd2;" horiz-adv-x="595" 
d="M537 368q2 -82 -33 -215q-9 -32 -48 -73t-80 -60q-82 -38 -144 -37q-60 0 -112 43q-55 47 -67 119q-17 99 -17 181q0 97 23 171q7 24 28 54q23 36 48 51q117 74 185 81q109 11 169 -106q45 -88 48 -209zM382 320q-3 122 -10 157q-22 107 -95 136q-8 3 -15 3
q-10 0 -19.5 -7.5t-11.5 -7.5q-26 -4 -37 -115q-7 -75 -6 -137q3 -118 30 -193q42 -118 98 -114q41 3 58 134q9 80 8 144zM238 838q140 -124 140 -127q-1 -2 -19 -3q-19 0 -21 3q-81 43 -166 90q-7 8 -7 16q0 11 13.5 19.5t31.5 8.5q16 0 28 -7z" />
    <glyph glyph-name="Uacute" unicode="&#xda;" horiz-adv-x="584" 
d="M560 69q-116 -77 -130 -77q-30 0 -58 45q-14 26 -27 53q-31 -29 -77 -59q-56 -36 -79 -36q-81 0 -110 63q-17 38 -17 114l1 350q3 26 -17 52.5t-50 40.5q129 67 147 67q33 0 57 -48q20 -40 21 -79q0 25 0 -349q0 -118 65 -117q25 0 46 36q18 33 18 67q0 10 -2 18v313
q0 40 -2 49q-5 21 -27 40l147 76q19 -12 30 -42q9 -24 8 -46t-1 -428q0 -52 57 -103zM317 838q-140 -124 -139 -127q0 -2 19 -3q19 0 20 3q81 43 167 90q7 8 7 16q0 11 -14 19.5t-31 8.5q-16 0 -29 -7z" />
    <glyph glyph-name="Ucircumflex" unicode="&#xdb;" horiz-adv-x="584" 
d="M560 69q-116 -77 -130 -77q-30 0 -58 45q-14 26 -27 53q-31 -29 -77 -59q-56 -36 -79 -36q-81 0 -110 63q-17 38 -17 114l1 350q3 26 -17 52.5t-50 40.5q129 67 147 67q33 0 57 -48q20 -40 21 -79q0 25 0 -349q0 -118 65 -117q25 0 46 36q18 33 18 67q0 10 -2 18v313
q0 40 -2 49q-5 21 -27 40l147 76q19 -12 30 -42q9 -24 8 -46t-1 -428q0 -52 57 -103zM388 725l-7 -19l-122 43l-121 -43l-6 16l125 95l2 -1l3 1l1 -2z" />
    <glyph glyph-name="Ugrave" unicode="&#xd9;" horiz-adv-x="584" 
d="M560 69q-116 -77 -130 -77q-30 0 -58 45q-14 26 -27 53q-31 -29 -77 -59q-56 -36 -79 -36q-81 0 -110 63q-17 38 -17 114l1 350q3 26 -17 52.5t-50 40.5q129 67 147 67q33 0 57 -48q20 -40 21 -79q0 25 0 -349q0 -118 65 -117q25 0 46 36q18 33 18 67q0 10 -2 18v313
q0 40 -2 49q-5 21 -27 40l147 76q19 -12 30 -42q9 -24 8 -46t-1 -428q0 -52 57 -103zM231 838q140 -124 140 -127q-1 -2 -19 -3q-19 0 -21 3q-81 43 -166 90q-7 8 -7 16q0 11 13.5 19.5t31.5 8.5q16 0 28 -7z" />
    <glyph glyph-name="circumflex" unicode="&#x2c6;" horiz-adv-x="468" 
d="M348 725l-7 -19l-122 43l-121 -43l-6 16l125 95l2 -1l3 1l1 -2z" />
    <glyph glyph-name="tilde" unicode="&#x2dc;" horiz-adv-x="699" 
d="M393 717q-24 0 -52 16.5t-53 16.5q-55 0 -55 -21q-10 -4 -20 -3q-13 1 -11 13q0 33 34 56q29 18 62 18q26 0 57 -19q28 -17 60 -17q27 0 53 28q7 10 16 10t15 -10q0 -34 -39 -63q-35 -25 -67 -25z" />
    <glyph glyph-name="macron" unicode="&#xaf;" horiz-adv-x="280" 
d="M24 790h233v-52h-233v52z" />
    <glyph glyph-name="macron" unicode="&#x2c9;" horiz-adv-x="280" 
d="M24 790h233v-52h-233v52z" />
    <glyph glyph-name="cedilla" unicode="&#xb8;" horiz-adv-x="566" 
d="M273 -198q-9 0 -42 10q-7 3 -14.5 13.5t-12.5 11.5l11 18q31 -18 66 -18q48 0 48 47q0 20 -16 26q-8 2 -35 2q-3 0 -20 -2.5t-24 -2.5q0 5 9 47.5t8 55.5h38l-14 -62q8 1 25 6q14 3 21 3q81 0 81 -71q0 -84 -129 -84z" />
    <glyph glyph-name="Scaron" unicode="&#x160;" 
 />
    <glyph glyph-name="scaron" unicode="&#x161;" 
 />
    <glyph glyph-name="brokenbar" unicode="&#xa6;" 
 />
    <glyph glyph-name="Eth" unicode="&#xd0;" 
 />
    <glyph glyph-name="eth" unicode="&#xf0;" 
 />
    <glyph glyph-name="Yacute" unicode="&#xdd;" 
 />
    <glyph glyph-name="yacute" unicode="&#xfd;" 
 />
    <glyph glyph-name="Thorn" unicode="&#xde;" 
 />
    <glyph glyph-name="thorn" unicode="&#xfe;" 
 />
    <glyph glyph-name="minus" unicode="&#xad;" 
 />
    <glyph glyph-name="minus" unicode="&#x2212;" 
 />
    <glyph glyph-name="multiply" unicode="&#xd7;" 
 />
    <glyph glyph-name="onesuperior" unicode="&#xb9;" 
 />
    <glyph glyph-name="twosuperior" unicode="&#xb2;" 
 />
    <glyph glyph-name="threesuperior" unicode="&#xb3;" 
 />
    <glyph glyph-name="onehalf" unicode="&#xbd;" 
 />
    <glyph glyph-name="onequarter" unicode="&#xbc;" 
 />
    <glyph glyph-name="threequarters" unicode="&#xbe;" 
 />
    <glyph glyph-name="Lslash" unicode="&#x141;" 
 />
    <glyph glyph-name="lslash" unicode="&#x142;" 
 />
    <glyph glyph-name="HT" 
 />
    <glyph glyph-name="LF" 
 />
    <glyph glyph-name="nonmarkingreturn" 
 />
    <glyph glyph-name="Zcaron" unicode="&#x17d;" 
 />
    <glyph glyph-name="zcaron" unicode="&#x17e;" 
 />
    <glyph glyph-name="DLE" 
 />
    <glyph glyph-name="DC1" 
 />
    <glyph glyph-name="DC2" 
 />
    <glyph glyph-name="DC3" 
 />
    <glyph glyph-name="DC4" 
 />
    <glyph glyph-name="RS" 
 />
    <glyph glyph-name="US" 
 />
    <glyph glyph-name="notequal" unicode="&#x2260;" horiz-adv-x="17" 
 />
    <glyph glyph-name="infinity" unicode="&#x221e;" 
 />
    <glyph glyph-name="lessequal" unicode="&#x2264;" 
 />
    <glyph glyph-name="greaterequal" unicode="&#x2265;" 
 />
    <glyph glyph-name="partialdiff" unicode="&#x2202;" horiz-adv-x="287" 
d="M267 353l-86 -59q0 -80 1 -159q1 -19 15 -30.5t33 -11.5q11 0 63 8q-11 -11 -74 -58q-71 -53 -87 -53q-26 0 -56.5 33.5t-30.5 56.5v119l-55 -38v61l55 38l1 311q0 31 -20 48q-7 6 -40 21l197 85q0 -60 -1 -179v-191l85 60v-62z" />
    <glyph glyph-name="summation" unicode="&#x2211;" horiz-adv-x="572" 
d="M192 -6q-47 0 -98 41t-62 87l125 94q6 -14 20 -40q22 -35 55 -60q39 -29 75 -29q32 0 52.5 17t20.5 48q0 50 -36 80q-32 27 -81 32q-68 8 -131 28q-30 9 -57.5 39.5t-35.5 62.5q-7 26 -7 52q0 94 89 148q84 51 99 59q59 30 109 30q48 0 95.5 -36t64.5 -82q8 -20 15 -33
q-44 -37 -124 -76q-4 42 -64 92t-104 50q-36 0 -36 -79q0 -41 27.5 -75.5t67.5 -46.5q9 -3 35 -4q78 -3 140 -36q79 -42 79 -113q0 -49 -56 -106q-45 -46 -100 -75q-132 -69 -177 -69zM411 820l-4 11l-123 -46l-120 46l-2 -11l121 -100l2 1l3 -1l1 2z" />
    <glyph glyph-name="product" unicode="&#x220f;" horiz-adv-x="440" 
d="M257 307q-7 30 -39 55t-57 25q-27 0 -27 -45q0 -68 69 -81l128 -12q68 -14 68 -84q0 -69 -113 -124q-94 -44 -156 -44q-94 0 -124 94l148 52q4 -38 23 -62.5t44 -24.5q22 0 32 33q6 19 6 36q0 59 -73 59q-3 0 -36 -3t-37 -3q-113 0 -113 76q0 56 95 126q88 65 133 65
q126 0 167 -85q-26 0 -55 -15q-51 -27 -83 -38zM341 580l-4 11l-123 -46l-120 46l-2 -11l121 -100l2 1l3 -1l1 2z" />
    <glyph glyph-name="pi" unicode="&#x3c0;" horiz-adv-x="553" 
d="M544 684q0 -34 -51 -138q-119 -240 -247 -461q-2 -3 -11 -32q-7 -23 -18 -31q-15 -11 -47 -21q-27 -9 -35 -9l-36 -8q20 24 78 108q62 91 62 101q0 6 -186 372q-5 9 -11 17q-16 20 -38 27q1 3 70 37q66 33 75 37q2 1 5 1q29 0 88 -136q67 -154 88 -176q13 5 54.5 103.5
t41.5 135.5q0 25 -17 25q-3 0 -13 -1t-17 -1l137 98q13 -2 20.5 -19.5t7.5 -28.5zM307 838q-140 -124 -139 -127q0 -2 19 -3q19 0 20 3q81 43 167 90q7 8 7 16q0 11 -14 19.5t-31 8.5q-16 0 -29 -7z" />
    <glyph glyph-name="integral" unicode="&#x222b;" horiz-adv-x="496" 
d="M408 40q0 -54 -62 -123q-52 -58 -126 -105q-69 -45 -98 -45q-27 0 -67 28q-66 47 -70 49q15 19 63 58t52 39l54.5 -43t75.5 -43q31 0 33 65q1 36 1 154q-36 -27 -71 -54q-41 -29 -69 -29q-36 0 -60.5 28t-29.5 78l2 199q-4 26 -14 35q-7 5 -34 13q45 28 91.5 56.5
t88.5 47.5q2 -179 1 -244q0 -2 -1 -14.5t-1 -21.5q0 -79 52 -79q34 0 41 17q3 5 3 35l1 226q93 48 124 68q11 7 21 14zM247 608q-140 -124 -139 -127q0 -2 19 -3q19 0 20 3q81 43 167 90q7 8 7 16q0 11 -14 19.5t-31 8.5q-16 0 -29 -7z" />
    <glyph glyph-name="Omega" unicode="&#x3a9;" horiz-adv-x="540" 
d="M1 434h50q2 11 3 20q12 62 48 107q14 17 52 40q49 29 60 38q68 52 100 52q15 0 48 -14t47 -27q3 -4 54 -41q22 -16 31 -53l-52 -34q-33 -21 -51 -27q-2 40 -66 74q-57 31 -104 31q-27 0 -40 -166h181l-6 -46h-178v-13q0 -19 1 -41h183l-6 -45h-172q24 -176 121 -176
q30 0 78 15q53 17 88 41q2 0 6.5 -4t4.5 -10q0 -12 -43 -65q-17 -22 -55.5 -51t-62.5 -40q-18 -7 -67 -7q-202 0 -212 298l-47 1l6 43h41l4 56l-51 1z" />
    <glyph glyph-name="Omega" unicode="&#x2126;" horiz-adv-x="540" 
d="M1 434h50q2 11 3 20q12 62 48 107q14 17 52 40q49 29 60 38q68 52 100 52q15 0 48 -14t47 -27q3 -4 54 -41q22 -16 31 -53l-52 -34q-33 -21 -51 -27q-2 40 -66 74q-57 31 -104 31q-27 0 -40 -166h181l-6 -46h-178v-13q0 -19 1 -41h183l-6 -45h-172q24 -176 121 -176
q30 0 78 15q53 17 88 41q2 0 6.5 -4t4.5 -10q0 -12 -43 -65q-17 -22 -55.5 -51t-62.5 -40q-18 -7 -67 -7q-202 0 -212 298l-47 1l6 43h41l4 56l-51 1z" />
    <glyph glyph-name="radical" unicode="&#x221a;" 
 />
    <glyph glyph-name="approxequal" unicode="&#x2248;" 
 />
    <glyph glyph-name="approxequal" unicode="&#x22f2;" 
 />
    <glyph glyph-name="Delta" unicode="&#x394;" 
 />
    <glyph glyph-name="Delta" unicode="&#x2206;" 
 />
    <glyph glyph-name="dotlessi" unicode="&#x131;" horiz-adv-x="287" 
d="M298 100q-11 -11 -73 -57q-72 -53 -88 -53q-25 0 -56 34t-31 57v220q0 31 -20 48q-7 6 -40 21l198 86v-322q0 -19 14 -30.5t33 -11.5q11 0 63 8z" />
    <glyph glyph-name="breve" unicode="&#x2d8;" horiz-adv-x="326" 
d="M45 824q3 -14 35 -34q36 -22 73 -21q82 1 120 55l29 -20q-63 -89 -151 -85q-50 2 -90.5 27t-46.5 61z" />
    <glyph glyph-name="dotaccent" unicode="&#x2d9;" horiz-adv-x="660" 
d="M134 745q0 22 16.5 38t38.5 16q23 0 39 -16t16 -38q0 -23 -16 -39t-39 -16q-22 0 -38.5 16t-16.5 39z" />
    <glyph glyph-name="ring" unicode="&#x2da;" horiz-adv-x="238" 
d="M109 837q30 0 51 -21.5t21 -50.5q0 -30 -21 -51.5t-51 -21.5t-51 21.5t-21 51.5q0 29 21 50.5t51 21.5zM109 802q-15 0 -26 -11t-11 -26q0 -16 11 -27t26 -11q16 0 26.5 11t10.5 27q0 15 -10.5 26t-26.5 11z" />
    <glyph glyph-name="hungarumlaut" unicode="&#x2dd;" horiz-adv-x="398" 
d="M82 704l-20 16l58 87q21 31 43 31q17 0 29 -12t12 -29q0 -25 -48 -52zM223 704l-19 16l58 87q21 31 43 31q17 0 29 -12t12 -29q0 -25 -49 -52z" />
    <glyph glyph-name="ogonek" unicode="&#x2db;" horiz-adv-x="447" 
d="M210 0h62q-33 -19 -52 -33q-31 -22 -31 -61q0 -20 19.5 -32t39.5 -12q44 0 105 20l18 -35q-80 -38 -162 -38q-37 0 -73 24q-33 21 -33 55q0 49 37 75q14 10 28 21q20 12 42 16z" />
    <glyph glyph-name="caron" unicode="&#x2c7;" horiz-adv-x="573" 
d="M411 820l-4 11l-121 -54l-122 54l-2 -11l121 -100l2 1l3 -1l1 2z" />
    </font>
</defs>
</svg>
