<?xml version="1.0" standalone="no"?>
<!DOCTYPE svg PUBLIC "-//W3C//DTD SVG 1.1//EN" "http://www.w3.org/Graphics/SVG/1.1/DTD/svg11.dtd" >
<svg>
<metadata>
Created by FontForge 20120731 at Mon Apr 15 11:59:12 2019
 By www-data
Digitized by Dan X. Solo. Software (c) 1999 by Dover Publications, Inc., New York.
</metadata>
<defs>
<font id="CamdenText" horiz-adv-x="20" >
  <font-face 
    font-family="Camden Text"
    font-weight="400"
    font-stretch="normal"
    units-per-em="1000"
    panose-1="0 0 4 0 0 0 0 0 0 0"
    ascent="800"
    descent="-200"
    x-height="488"
    cap-height="688"
    bbox="-48 -217.209 849.182 841"
    underline-thickness="20"
    underline-position="-123"
    unicode-range="U+0020-F000"
  />
<missing-glyph horiz-adv-x="500" 
d="M63 0v800h375v-800h-375zM125 63h250v675h-250v-675z" />
    <glyph glyph-name=".notdef" horiz-adv-x="500" 
d="M63 0v800h375v-800h-375zM125 63h250v675h-250v-675z" />
    <glyph glyph-name="glyph1" horiz-adv-x="0" 
 />
    <glyph glyph-name="glyph2" horiz-adv-x="191" 
 />
    <glyph glyph-name="space" unicode=" " horiz-adv-x="191" 
 />
    <glyph glyph-name="exclam" unicode="!" horiz-adv-x="212" 
d="M166 600q-20 -17 -25 -45l-20 -193q0 -139 -18 -215q-1 -2 -4 -2q-4 0 -4 2q-22 75 -23 215l-21 193q-3 25 -23 44q57 34 68 60q14 -26 70 -59zM99 -14q-20 32 -50 57q31 25 50 61q16 -42 53 -61q-33 -13 -53 -57z" />
    <glyph glyph-name="quotedbl" unicode="&#x22;" horiz-adv-x="247" 
d="M200 621l-17 -173h-21l-28 175q-6 9 -6 19q0 15 11.5 26t28.5 11q16 0 27.5 -11t11.5 -26q0 -12 -7 -21zM80 621l-17 -173h-21l-28 175q-6 9 -6 19q0 15 11.5 26t28.5 11q16 0 27.5 -11t11.5 -26q0 -12 -7 -21z" />
    <glyph glyph-name="numbersign" unicode="#" horiz-adv-x="368" 
d="M308 442h-73l-27 -202l77 -1l-8 -54h-75l-24 -188h-39l26 188h-63l-28 -187h-38l29 187h-68l10 55h66l29 202h-64l8 57h62l26 175h32l-26 -175h69l25 175h34l-25 -175h73zM136 442l-28 -202h65l27 202h-64z" />
    <glyph glyph-name="dollar" unicode="$" horiz-adv-x="365" 
d="M158 602q-71 -4 -72 -62q0 -51 72 -86v148zM177 167q36 5 61 28q29 27 28 68q-1 62 -89 100v-196zM325 312q-1 -70 -43 -112.5t-105 -47.5v-78h-19v77q-58 1 -98 37q-43 38 -44 98q0 28 16 52q18 30 49 30q29 1 45 -21q13 -19 14 -44q0 -30 -39 -36.5t-38 -36.5
q0 -31 33 -48q27 -15 62 -16v205q-62 26 -85 43q-39 31 -40 80q-1 83 75 119q9 4 50 9v59h19v-60q50 -3 83.5 -36t29.5 -83q-5 -52 -42 -53q-37 0 -37 42q-1 18 20.5 26t20.5 32q0 46 -75 53v-157q82 -37 99 -49q49 -33 49 -84z" />
    <glyph glyph-name="percent" unicode="%" horiz-adv-x="588" 
d="M434 -5q-38 13 -78 71q-33 50 -39 81.5t-6 66.5q0 131 114 220q34 -10 75 -68q37 -51 43 -79q7 -38 7 -79q0 -123 -116 -213zM354 482l-108 -240q-82 -175 -128 -208q-57 -41 -106 -40l-5 35q50 -1 86 32q37 23 120 197q55 120 109 239q41 83 65 114q49 65 106 65
q9 0 19 -2v-37q-7 3 -17 3q-38 0 -67 -34.5t-74 -123.5zM124 255q-38 13 -78 71q-33 50 -39 81.5t-6 66.5q0 131 114 220q34 -10 75 -68q37 -51 43 -79q7 -38 7 -79q0 -123 -116 -213zM401 371q-24 -36 -24 -104q0 -149 82 -207q23 35 23 105q0 68 -12 108q-18 60 -69 98z
M91 631q-24 -36 -24 -104q0 -149 82 -207q23 35 23 105q0 68 -12 108q-18 60 -69 98z" />
    <glyph glyph-name="ampersand" unicode="&#x26;" horiz-adv-x="556" 
d="M315 290q-31 5 -82 30q-45 21 -70 21q-18 0 -32 -23q-11 -26 -15 -72l-4 -72q-3 -41 8 -93q16 -72 54 -72q10 0 30 26q26 34 43 48q34 26 77 26q28 0 70 -22q-30 38 -41 48.5t-38 23.5v131zM534 469q-2 -68 -41 -115q-34 -42 -90 -58v-215q33 -23 35 -55q1 -2 -4 -2.5
t-7 -2.5l-12 22q-10 14 -27 15q-16 1 -42 -19q-38 -27 -56 -35q-41 -19 -91 -17q-188 7 -188 205q0 134 111 187q-45 18 -68 61q-19 35 -19 76q-1 78 47.5 128t125.5 50q63 0 106 -32q54 -39 54 -114q0 -25 -14 -51q-19 -34 -50 -34q-19 0 -32 13.5t-13 34.5q0 31 35 46.5
t35 39.5q0 36 -42 60q-33 19 -65 19q-87 0 -87 -173q0 -87 34 -104q37 20 92 20q41 0 99 -25t88 -25q62 0 73 102q1 -3 7 -2h6z" />
    <glyph glyph-name="quotesingle" unicode="'" horiz-adv-x="141" 
d="M80 621l-17 -173h-21l-28 175q-6 9 -6 19q0 15 11.5 26t28.5 11q16 0 27.5 -11t11.5 -26q0 -12 -7 -21z" />
    <glyph glyph-name="parenleft" unicode="(" horiz-adv-x="193" 
d="M135 721l19 -3q-56 -243 -56 -413q0 -178 56 -368h-18q-134 213 -134 383q0 176 133 401z" />
    <glyph glyph-name="parenright" unicode=")" horiz-adv-x="193" 
d="M25 721l-20 -3q56 -243 56 -413q0 -178 -56 -368h19q134 213 134 383q0 176 -133 401z" />
    <glyph glyph-name="asterisk" unicode="*" horiz-adv-x="385" 
d="M161 500q-34 -20 -46.5 -37.5t-25.5 -34.5q-16 -18 -36 -18q-16 0 -27 11t-11 27q0 39 71 46q29 3 65 23q-33 20 -57 23q-43 5 -51 8q-28 11 -28 39q0 16 11 26.5t27 10.5q25 0 55 -44q16 -24 53 -45v15q0 23 -14.5 56.5t-14.5 44.5q0 17 11 29.5t28 12.5t28.5 -13
t11.5 -30q0 -6 -14.5 -43.5t-14.5 -71.5q28 17 48 38q12 17 26 34t34 17q16 0 27 -10.5t11 -26.5q0 -39 -69 -45q-32 -3 -67 -25q32 -20 57 -23q44 -6 51 -8q28 -10 28 -39q0 -35 -36 -35q-26 0 -57 43q-18 25 -53 45v-16q0 -22 14 -55t14 -45q0 -18 -11 -30.5t-28 -12.5
t-28 13t-11 30q0 10 17 46q12 26 12 70z" />
    <glyph glyph-name="plus" unicode="+" horiz-adv-x="482" 
d="M254 257l1 -206l-57 2v202h-183v45h182v196h54v-193h181v-46h-178z" />
    <glyph glyph-name="comma" unicode="," horiz-adv-x="186" 
d="M99 17l-23 -43l-7 -52l-25 3q0 42 20 84q-15 21 -43 44q35 28 58 73q20 -50 66 -74q-27 -10 -46 -35z" />
    <glyph glyph-name="hyphen" unicode="-" horiz-adv-x="266" 
d="M213 186h-207l21 48l3 -1l202 1z" />
    <glyph glyph-name="hyphen" unicode="&#x2010;" horiz-adv-x="266" 
d="M213 186h-207l21 48l3 -1l202 1z" />
    <glyph glyph-name="period" unicode="." horiz-adv-x="152" 
d="M75 -26q-24 40 -59 68q27 22 36 30q13 15 26 40q12 -29 21 -40q12 -16 41 -31q-42 -16 -65 -67z" />
    <glyph glyph-name="slash" unicode="/" horiz-adv-x="404" 
d="M60 -7l-39 1l289 718h38z" />
    <glyph glyph-name="zero" unicode="0" horiz-adv-x="393" 
d="M174 -20q-52 23 -108 116q-47 79 -56 129.5t-9 107.5q0 212 163 356q46 -17 105 -111q51 -82 59 -125q12 -62 12 -129q0 -198 -166 -344zM124 610q-41 -69 -41 -189q0 -254 132 -357q27 44 35 95q5 31 5 93q0 115 -19 184q-29 105 -112 174z" />
    <glyph glyph-name="one" unicode="1" horiz-adv-x="337" 
d="M161 48q-55 -29 -61 -31q-39 -18 -64 -19q35 26 60 58q28 39 23 65l-1 471q-40 -12 -96 -29l-4 11q14 5 41 19l39 23q7 4 59 53q1 4 8 13q14 -10 62 -42l36 -24q-2 -1 -6 -4q-15 -8 -36 -25q-13 -19 -13 -41l-1 -420q0 -18 20 -61q22 -46 44 -67q-47 7 -110 50z" />
    <glyph glyph-name="two" unicode="2" horiz-adv-x="390" 
d="M263 2h-248l-9 9q1 37 50 100q10 13 78 91q33 38 48 60q44 67 44 194q0 55 -20 92q-24 44 -83 80q-41 -19 -64 -56q-19 -32 -19 -66q0 -35 20 -57q6 -7 46 -35q11 -8 11 -14q0 -39 -4 -61q-50 18 -81 77q-23 45 -23 76q-1 74 93 155q17 14 56 46l10 -4q94 -63 126 -118
q29 -49 27 -123q-4 -114 -129 -233q-33 -29 -89 -81q-42 -40 -41 -62v-2v-2q1 -2 3 -5h142q28 0 61.5 25t32.5 47l13 4l13 -11q-19 -43 -64 -126z" />
    <glyph glyph-name="three" unicode="3" horiz-adv-x="378" 
d="M206 397q70 -41 93 -94q16 -37 16 -105q0 -64 -35 -124q-48 -80 -137 -80q-146 0 -146 121q0 41 28 84q35 55 92 64l-1 -64q-89 -28 -89 -85q0 -34 23 -65q29 -40 78 -40q48 0 75 64q21 52 21 126q0 55 -11 86q-22 58 -117 84q79 26 113 49q45 31 45 76q0 40 -36.5 81
t-90.5 64q-37 -13 -61 -38.5t-24 -51.5q0 -60 69 -78l1 -39q-103 41 -103 117q0 34 46 84q52 57 107 57q53 0 107 -61q48 -54 48 -88q0 -40 -25 -77q-30 -43 -86 -67z" />
    <glyph glyph-name="four" unicode="4" horiz-adv-x="363" 
d="M300 158q-4 0 -6.5 4t-7.5 30q-7 36 -41 41v-108q0 -35 32 -62q-49 -37 -79 -63l-77 64q39 31 39 64v106l-161 1l-9 7q90 161 114 211q65 141 57 225h109l-250 -429h140q-1 65 1 133l84 164v-299q47 9 48 65l19 2v-153q-6 -3 -12 -3z" />
    <glyph glyph-name="five" unicode="5" horiz-adv-x="390" 
d="M142 -6q-80 -4 -118 38q-28 32 -28 83q0 40 30 88q37 57 90 60l-1 -64q-38 -4 -63.5 -29t-25.5 -56q0 -33 25 -62q30 -36 79 -36q99 0 103 260q1 64 -33.5 109.5t-83.5 45.5q-45 0 -84 -43q-14 4 -26 2q-7 -1 -8 0l55 288h245l-71 -74q-60 0 -152 -1l-37 -176
q46 35 104 35q46 0 88 -21q38 -19 51 -41q38 -67 38 -177q0 -73 -34 -136q-48 -88 -143 -93z" />
    <glyph glyph-name="six" unicode="6" horiz-adv-x="378" 
d="M177 -3q-66 8 -117 87q-48 75 -48 153q0 118 69 237q76 131 208 209l10 -2q-94 -75 -151 -212q-49 -119 -49 -225q0 -118 110 -185q75 37 75 144q0 43 -42 94.5t-91 72.5q6 21 18 66q77 -26 122 -96q38 -59 38 -117q0 -105 -152 -226z" />
    <glyph glyph-name="seven" unicode="7" horiz-adv-x="360" 
d="M167 275q-31 -63 -31 -117q0 -69 58 -87v-76q-68 2 -109 52q-34 40 -34 87q0 51 38 115q12 22 42 57q36 42 44 54q57 79 77 119q33 68 30 137h-215q-11 -11 -21.5 -23.5t-10.5 -23.5q0 -38 25 -60q22 -19 55 -19q9 0 18 2l-3 -53q-12 -3 -24 -3q-45 0 -79 36
q-30 32 -30 67q0 21 24 70q18 35 37 69h254v-101q0 -46 -28 -104q-17 -35 -60 -101.5t-57 -96.5z" />
    <glyph glyph-name="eight" unicode="8" horiz-adv-x="381" 
d="M161 -10q-80 0 -124 58q-34 45 -34 98q0 80 121 192q-31 44 -62 87q-41 63 -46 93q-1 8 -1 18q0 55 40 101q46 52 117 52q70 0 108 -52q29 -40 29 -88q0 -35 -25 -73q-16 -23 -59 -69l-10.5 -8t-10.5 -9q37 -55 73 -109q44 -69 44 -122q0 -62 -29 -107q-41 -62 -131 -62z
M170 668q-79 0 -79 -69q0 -49 34 -99q23 -32 66 -96q72 74 72 145q0 40 -19 73q-25 46 -74 46zM208 217q-25 34 -71 105q-90 -81 -90 -174q0 -48 26 -91q34 -58 99 -58q37 0 62 44q18 34 18 64q0 44 -44 110z" />
    <glyph glyph-name="nine" unicode="9" horiz-adv-x="376" 
d="M46 -1l-11 2q96 75 156 208q54 120 54 222q0 118 -120 192q-75 -38 -75 -145q0 -75 139 -169q-16 -38 -24 -64q-77 27 -122 97q-37 58 -37 116q0 105 151 226q72 -6 124 -93q45 -74 45 -142q0 -122 -71 -242q-77 -130 -209 -208z" />
    <glyph glyph-name="colon" unicode=":" horiz-adv-x="199" 
d="M80 295q-24 40 -59 68q35 28 58 73q20 -50 66 -74q-42 -16 -65 -67zM80 -5q-23 38 -64 67q43 35 63 74q20 -50 66 -74q-42 -16 -65 -67z" />
    <glyph glyph-name="semicolon" unicode=";" horiz-adv-x="208" 
d="M99 17l-23 -43l-7 -52l-25 3q0 42 20 84q-15 21 -43 44q35 28 58 73q20 -50 66 -74q-27 -10 -46 -35zM80 295q-19 30 -62 65q38 31 61 76q20 -50 66 -74q-42 -16 -65 -67z" />
    <glyph glyph-name="less" unicode="&#x3c;" horiz-adv-x="411" 
d="M33 287l280 221l34 -31l-243 -190l240 -178l-34 -32z" />
    <glyph glyph-name="equal" unicode="=" horiz-adv-x="516" 
d="M33 329l1 49h415v-49h-416zM33 199l1 50l415 -1v-49h-416z" />
    <glyph glyph-name="greater" unicode="&#x3e;" horiz-adv-x="414" 
d="M67 77l-34 32l240 178l-243 190l34 31l280 -222z" />
    <glyph glyph-name="question" unicode="?" horiz-adv-x="385" 
d="M138 164q0 48 13 74q1 2 48 74q38 57 38 168q0 48 -26 79q-23 27 -89 67q-39 -18 -62 -55q-19 -32 -19 -65q0 -70 77 -106l-5 -64q-104 58 -105 156q0 56 45 108q27 32 104 95l10 -3q105 -72 127 -99q30 -37 33 -117q2 -61 -41 -128q-16 -25 -82 -104q-44 -54 -44 -79z
M149 -11q-24 40 -59 68q27 22 36 30q13 15 26 40q12 -29 21 -40q12 -16 41 -31q-42 -16 -65 -67z" />
    <glyph glyph-name="A" unicode="A" horiz-adv-x="524" 
d="M521 58q-10 -72 -89 -72q-48 0 -75.5 28.5t-27.5 75.5v27q-16 -57 -69 -97t-116 -40q-52 0 -94 31q-46 34 -46 84q0 37 24.5 73.5t59.5 43.5q-1 -6 -6 -20.5t-5 -25.5q0 -55 31 -97q34 -47 88 -47q56 0 96 58q37 52 37 110v141l-118 1q-4 -110 -11 -138q-19 -68 -89 -104
q8 14 8 124q0 34 -9 100.5t-9 100.5q0 117 51 177q38 45 156 104q51 -35 70 -46q38 -20 78 -28q-9 -14 -29 -53l1 -495q0 -64 43 -64q16 0 25 19l12 32zM330 502q0 64 -22 84q-50 45 -76 45q-15 0 -25 -24q-8 -19 -8 -36v-95l12 -120l118 -1q0 23 1 74v73z" />
    <glyph glyph-name="B" unicode="B" horiz-adv-x="588" 
d="M545 190q0 -210 -146 -210q-54 0 -82 54q-22 43 -22 104q0 29 22 76q25 53 54 65l4 -8q-45 -42 -45 -169q0 -106 58 -106q44 0 44 126q0 112 -5 144q-15 100 -72 100q-11 0 -76 -29l-1 -64q2 -17 2 -40q0 -91 -22 -153q-33 -94 -110 -94q-74 0 -105 32q-26 28 -36 102
q5 22 10 45q14 38 55 38q20 0 35.5 -14.5t15.5 -33.5q0 -37 -40 -56t-40 -40t29 -39q26 -16 48 -16q39 0 49 91q4 29 4 118v176q0 116 -7 155q-17 107 -81 107q-18 0 -50 -20q-7 0 -8 1v9q35 43 106 43q50 0 91 -35q38 -33 52 -83q9 28 62.5 72t85.5 46q35 2 63 -49
q24 -45 24 -82q0 -139 -105 -171l-18 -5q157 -33 157 -187zM412 512q0 36 -12 67q-17 41 -47 41q-16 0 -46 -37.5t-30 -58.5q0 -151 -1 -168q76 28 100 50q36 35 36 106z" />
    <glyph glyph-name="C" unicode="C" horiz-adv-x="473" 
d="M442 665q-35 -38 -45 -46q-27 -21 -58 -21q-17 0 -30.5 8t-26.5 16l1 -300q0 -146 -91 -146q-26 0 -48 18t-22 43l4 8q6 -12 13 -25t22 -9q22 6 18 157v189q0 44 65 81q10 6 107 48q26 -30 49 -30q8 0 19 8t16 9zM433 185q0 -83 -59 -138.5t-141 -55.5q-116 0 -178 107
q-53 91 -57 240q-2 114 26 187q40 104 146 150q7 -8 0 -18q-58 -8 -74 -168q-4 -37 -4 -81q0 -128 32 -211q46 -122 152 -122q49 0 94 30q49 33 51 80q7 8 9 8q3 0 3 -8z" />
    <glyph glyph-name="D" unicode="D" horiz-adv-x="582" 
d="M533 380q3 -182 -37 -260q-57 -114 -224 -114q-41 0 -110.5 37.5t-87.5 37.5q-22 0 -35.5 -20t-10.5 -42h-7l-4 16q0 43 27 66q5 5 55 34q35 20 46 48q21 24 9 109q-14 105 -5 154q18 93 107 149q-14 7 -52 7q-63 0 -116 -29q-64 -34 -64 -93q0 -14 20 -54l-16 -2
q-24 42 -24 94q0 81 70 130q62 45 149 45q157 0 232.5 -76.5t77.5 -236.5zM436 155q0 13 1 60t1 77q0 204 -53 253q-49 46 -95 46q-39 0 -39 -53v-257q0 -47 -29 -78q-10 -11 -69 -52l20 -6q37 -10 105 -54q63 -41 101 -48q57 16 57 112z" />
    <glyph glyph-name="E" unicode="E" horiz-adv-x="490" 
d="M444 193q0 -79 -66 -141t-145 -62q-118 0 -184 101q-58 91 -58 228q0 121 46 219q49 106 130 137q4 -1 9 -2v-10q-11 -6 -22.5 -13.5t-22.5 -23.5q-18 -26 -29 -136q-9 -97 -6 -155q6 -132 29 -179q38 -77 150 -77q62 0 100 33q28 25 59 86q0 -2 5 -2t5 -3zM453 657
q-15 -25 -40 -43q-29 -20 -56 -20q-21 0 -36 10t-30 21l-6 -12q-1 -13 0 -41v-136q41 40 73 40q41 0 64 -30.5t23 -73.5q0 -22 -20 -38.5t-41 -16.5q-25 0 -38.5 17.5t-13.5 43.5q0 20 18 42t18 26q0 7 -21 7q-62 0 -62 -124q0 -153 -97 -153q-59 0 -71 65l10 10
q1 -13 12 -31q13 -22 25 -21q23 11 23 71q0 13 -2 65.5t-2 85.5q0 175 51 199q15 8 45 20q14 5 48 22q30 15 50 19q20 -32 38 -32q8 0 17 5.5t16 10.5z" />
    <glyph glyph-name="F" unicode="F" horiz-adv-x="436" 
d="M503 645q-49 -61 -79 -59q-32 3 -37 4q-23 7 -40 29q-34 -7 -34 -77q0 -14 1 -27v-127h74l1 -29h-72q4 -216 0 -216q-5 -63 -55 -106.5t-116 -43.5q-63 0 -101 36t-47 99q1 -8 1 27q0 30 19 57q22 31 55 31q23 0 37 -15.5t14 -36.5q0 -11 -4 -22q-7 -18 -49 -33
q-37 -14 -37 -40q0 -18 15 -40q9 -14 34 -28.5t44 -14.5q45 0 71 40q22 34 25 84v225q-98 -3 -98 1v25h98q-1 39 0 116q1 32 34.5 74.5t68.5 55.5q32 11 98 47q34 -42 48 -42q2 0 24 16z" />
    <glyph glyph-name="G" unicode="G" horiz-adv-x="483" 
d="M439 623q-33 -27 -33 -111q0 -279 1 -311q1 -38 10 -94q13 -82 15 -98t2 -30q0 -84 -58.5 -130t-151.5 -46q-54 0 -99.5 37.5t-45.5 84.5q0 25 16.5 44t41.5 19q21 0 38.5 -18t17.5 -39q0 -24 -23.5 -40.5t-23.5 -31.5q0 -19 34 -31q28 -10 52 -10q106 0 106 123
q0 13 -12.5 97.5t-14.5 86.5q-37 -69 -77 -95q-44 -29 -127 -29q-41 0 -74 34t-33 75q0 91 73 116l4 -1q0 -5 -7 -27.5t-7 -31.5q2 -59 38 -90q33 -28 86 -28q56 0 92 55q32 48 32 107v143q-73 0 -110 1v-56q0 -67 -22 -107q-19 -36 -74 -82l-7 4q2 5 14 28q5 11 4 27
l-14 309q-3 63 74 140t138 77q2 0 53 -33t72 -38zM311 371l-1 195q0 21 -32 46t-54 25q-20 0 -30 -22q-8 -18 -7 -39l12 -205h112z" />
    <glyph glyph-name="H" unicode="H" horiz-adv-x="463" 
d="M416 232q0 -141 -4 -182q-10 -114 -50 -175q-52 -78 -156 -78q-58 0 -97 32.5t-39 90.5q0 29 21 45t51 16q19 0 33 -19t14 -38q0 -26 -23.5 -47t-23.5 -25q0 -17 25 -27q19 -7 40 -7q64 0 97 92q23 62 23 123q4 80 4 162q0 310 -62 308q-74 -2 -74 -155q0 -18 1 -45
t1 -33q0 -73 -26 -104q-37 -36 -74 -71q27 -36 74 -36q42 0 67 21q21 18 38 58l7 1q0 -54 -43 -97q-46 -45 -111 -43q-126 3 -126 115q0 39 24.5 78.5t60.5 51.5q-25 -31 -25 -61q0 -10 2 -26q6 -35 26 -52l5 5q9 14 9 87v292q0 77 59 133q51 48 132 69q24 -43 62 -43
q22 0 40 32l4 -4q0 -33 -41 -61q-37 -25 -71 -25q-37 0 -85 43q-12 -15 -11 -93q-1 -64 0 -72q10 14 19 28q25 26 63 26q98 -2 127 -108q13 -48 13 -182z" />
    <glyph glyph-name="I" unicode="I" horiz-adv-x="423" 
d="M397 613q-43 -28 -43 -76q0 -62 8 -187t8 -187q0 -74 -64 -125q-59 -47 -135 -47q-74 0 -123 45q-52 47 -52 121q0 38 15 67q18 38 53 38q23 0 41.5 -17t18.5 -40q0 -33 -24 -48q-23 -10 -45 -19q-25 -11 -25 -31q0 -42 45 -70q39 -25 83 -25q116 0 116 209q0 17 -14 194
q-4 48 43.5 124t89.5 81zM372 634q-25 -33 -75 -50q-38 -13 -73 -13q-23 0 -73.5 21.5t-73.5 21.5q-57 0 -65 -76l-12 7q8 41 26 71q44 70 134 72q42 1 90 -25q25 -15 51 -29q7 -1 13 -1q12 0 26 4q20 5 23 6q1 -1 5 -4.5t4 -4.5z" />
    <glyph glyph-name="J" unicode="J" horiz-adv-x="431" 
d="M390 615q-17 -24 -26 -71q-10 -59 -10 -122q0 -66 15.5 -184t15.5 -175q0 -35 -4 -67q-7 -63 -79 -102q-60 -33 -131 -33q-73 0 -124 45.5t-51 120.5q0 38 14 67q19 38 54 38q23 0 41.5 -17t18.5 -40q0 -33 -24 -49q-23 -9 -45 -18q-25 -10 -25 -31q0 -41 45 -69
q40 -26 83 -26q47 0 83.5 34.5t36.5 81.5q-1 72 -13 209q-13 134 -13 210q0 92 93 175l18.5 18.5t16.5 10.5q5 0 10 -6zM363 633q0 -13 -46 -40.5t-65 -25.5q-42 -1 -85 15q-67 26 -85 31q-50 -7 -68 -54v-11q0 -6 -6 -6q-1 2 -5.5 3t-4.5 4q0 53 54 95q51 39 106 39
q44 0 94 -25.5t54 -25.5q21 0 55 5q2 -3 2 -4z" />
    <glyph glyph-name="K" unicode="K" horiz-adv-x="611" 
d="M593 48q-9 -31 -41 -47q-22 -11 -44 -11q-40 0 -69 37q-27 34 -27 71v75q-1 50 -1 75q0 47 -2 60q-11 47 -53 47q-20 0 -41 -14.5t-21 -34.5v-149q0 -68 -42 -119q-46 -56 -118 -56q-50 0 -90 32q-43 35 -43 86q0 33 16 68q21 46 58 46q21 0 38.5 -14.5t17.5 -36.5
q0 -33 -24 -45q-22 -7 -43 -15q-24 -10 -24 -40q0 -26 24 -44q21 -17 45 -17q47 0 67 64l14 78v349q-4 61 -11 87q-21 71 -76 71q-22 0 -37 -14q-21 -20 -24 -21q-10 2 -8 6q37 53 112 53q88 0 121 -56q25 -40 26 -126q1 -130 1 -134q1 0 0 -7q0 -6 3 -6q7 0 40.5 22.5
t36.5 38.5q6 29 7 42q1 9 -1 26q-1 22 -1 45q0 55 20 97q27 59 86 65q43 -3 68.5 -30.5t25.5 -67.5q0 -20 -17 -39.5t-38 -19.5q-19 0 -35.5 14t-16.5 34t10 32q3 3 36 30q2 23 -9 30q-7 5 -23 4q-45 0 -58 -49q-5 -18 -5 -68v-62q0 -22 -16 -60q-18 -44 -43 -60q11 1 21 1
q64 0 100.5 -40t36.5 -101v-108q0 -63 -1 -56q4 -44 27 -44q21 0 37 32z" />
    <glyph glyph-name="L" unicode="L" horiz-adv-x="439" 
d="M381 547q0 -27 -17 -54q-20 -31 -47 -31t-42.5 16.5t-15.5 40.5q0 18 33.5 46t33.5 47q0 26 -40 45q-31 14 -51 14q-51 0 -76 -36q-20 -30 -20 -77l20 -237v-55q0 -38 -36 -86q-38 -51 -90 -72q28 39 28 103l-20 288q0 73 51.5 131t127.5 58q61 0 109 -39q52 -41 52 -102
zM414 169q-2 -85 -61 -136q-53 -45 -127 -45q-46 0 -102.5 26.5t-80.5 26.5q-15 0 -25.5 -14.5t-18.5 -27.5l-1.5 2.5t-1.5 5.5q0 53 58 86q45 26 87 26q41 0 99 -25t88 -25q62 0 73 102q1 -3 7 -2h6z" />
    <glyph glyph-name="M" unicode="M" horiz-adv-x="833" 
d="M849 563q-19 -54 -102 -47q-6 -12 -12 -23q-10 -28 -10 -59v-378q0 -9 5 -19q6 -13 15 -13q18 0 32 29q11 20 12 31q2 -3 6.5 -0.5t4.5 0.5q0 -89 -92 -89q-93 0 -93 124l2 183q-8 142 115 218q-42 19 -70 77q-24 50 -53 50q-22 0 -59 -47q-32 -41 -36 -56t-8.5 -31.5
t-2.5 -41.5v-470h-109l-1 528q0 72 -31 74q-4 1 -37 -24q-36 -27 -48 -43q-2 -3 -2 -43v-243q0 -134 0 -123q-4 -66 -54 -103q-46 -34 -116 -32q-107 3 -107 136q0 31 19 58q22 32 55 32q20 0 34 -17.5t14 -33.5q0 -33 -43.5 -51t-43.5 -49q0 -20 20.5 -39.5t40.5 -19.5
q1 0 6 1t8 1q44 0 57 100l-1 458q0 29 -19 51t-45 22q-31 0 -54 -34l-15 2q9 26 50 49q39 20 71 20q9 0 31.5 -7t27.5 -10q39 -28 65 -100q139 117 146 117q5 0 27 -19t30 -28.5t13 -30.5q4 -16 8 -31q68 110 160 110q51 0 85 -33q18 -18 40 -61q17 -33 28 -33q9 0 15 6
q12 11 13 12q0 -1 4.5 -3t3.5 -4z" />
    <glyph glyph-name="N" unicode="N" horiz-adv-x="632" 
d="M627 589q-11 -38 -68 -63q-51 -21 -51 -65l-1 -365q0 -76 28 -76q14 0 30.5 17t20.5 31h12q-3 -38 -33 -58q-26 -18 -67 -18q-54 0 -80 67q-18 47 -18 113v120q0 85 23 133q27 58 98 92q-31 -2 -57 31q-21 31 -41 62q-23 33 -45 33q-40 0 -70 -50q-27 -46 -27 -103
q-2 -95 -2 -316q0 -97 -32 -141q-39 -51 -134 -51q-116 0 -116 138q0 31 23 60t52 29q20 0 37 -15.5t17 -35.5q0 -33 -26 -47q-23 -8 -47.5 -18t-24.5 -37q0 -24 21 -39.5t47 -15.5q43 0 63 57q13 39 13 94l1 346q0 156 -84 156q-16 0 -35 -22q-15 -18 -23 -36l-10 8
q4 37 46 60q35 19 75 19q72 0 132 -104q28 59 70 82q38 21 106 21q38 0 67 -31q14 -14 41 -57q19 -31 30 -31q20 0 28 28z" />
    <glyph glyph-name="O" unicode="O" horiz-adv-x="513" 
d="M201 -15q-56 0 -116.5 31t-76.5 31q-23 0 -33 -9q-11 -13 -21 -27l-2 8q0 26 26 54q21 24 47.5 36.5t26.5 129.5q0 47 -4.5 109t-4.5 57q0 84 9 120q16 62 66 95q11 8 105 38t105 30t49 -31q35 -28 44 -41q24 -36 28 -82q1 -9 1 -88l1 -233q0 -78 -86 -153t-164 -75z
M353 515q0 35 -52.5 75t-89.5 40q-62 0 -62 -166q0 -37 3.5 -90t3.5 -60q0 -74 -20 -115q-21 -44 -82 -84q17 3 31 3q26 0 66 -17q5 -2 72 -37q51 -28 68 -28q62 0 62 128v351z" />
    <glyph glyph-name="P" unicode="P" horiz-adv-x="553" 
d="M543 542q-96 -30 -96 -127l24 -199q0 -95 -43 -160q-49 -73 -133 -73q-2 0 -13.5 10.5t-13.5 10.5q-13 0 -32 13v-42q0 -24 15 -61l22 -46q-37 8 -61 62q-28 -48 -67 -61q-22 -7 -91 -7q-9 0 -25 7q-21 8 -21 18q6 0 22.5 -3t17.5 -3q37 0 59 36q19 29 19 63v58
q-6 5 -16 5q-29 0 -81 -42q3 58 100 90l-1 454q0 46 -2 57q-11 41 -56 41q-17 0 -37 -13l-20 -13q-1 0 -1 2q1 26 37 45q32 17 62 17q40 0 74 -30q37 -33 45 -84q25 116 129 116q51 0 83 -30q20 -18 38 -56q15 -30 22 -30q8 -15 38 -10zM457 504q-13 2 -35.5 17t-31.5 27
q-1 1 -36 59q-18 30 -40 30q-61 0 -80 -162l-1 -11l2 -376q27 -3 72.5 -34.5t42.5 -31.5q9 0 18 22q4 12 9 25q0 -6 -1 8.5t-1 45.5l-20 185q0 57 22 109q27 65 80 87z" />
    <glyph glyph-name="Q" unicode="Q" horiz-adv-x="528" 
d="M201 -15q-56 0 -116.5 31t-76.5 31q-23 0 -33 -9q-11 -13 -21 -27l-2 8q0 26 26 54q21 24 47.5 36.5t26.5 129.5q0 47 -4.5 109t-4.5 57q0 84 9 120q16 62 66 95q11 8 105 38t105 30t49 -31q35 -28 44 -41q24 -36 28 -82q1 -9 1 -88l1 -225q0 -59 -46 -119q18 -19 29 -48
q5 -16 11 -31q11 -25 28 -25q14 0 23 10q5 8 10 15q1 0 6 -3.5t5 -5.5q0 -30 -38 -48q-31 -14 -57 -14q-39 1 -63 26q-15 15 -33 52q-67 -45 -125 -45zM353 515q0 35 -52.5 75t-89.5 40q-62 0 -62 -166q0 -37 3.5 -90t3.5 -60q0 -74 -20 -115q-21 -44 -82 -84q17 3 31 3
q26 0 66 -17q5 -2 72 -37q51 -28 68 -28q16 0 28 8q-24 43 -57 43q-9 0 -20 -2l-6 12q48 37 96 37q11 0 21 -3v33v351z" />
    <glyph glyph-name="R" unicode="R" horiz-adv-x="592" 
d="M571 55q-12 -28 -15 -32q-13 -17 -47 -27q-15 -5 -21 -3q-11 2 -16 2q-38 0 -58 44q-16 34 -16 78q0 10 2.5 50.5t2.5 66.5q0 134 -71 134q-22 0 -75 -46l1 -142q-2 -92 -42.5 -142t-108.5 -50q-39 0 -71 30q-40 37 -40 103q0 34 17 61q20 31 53 31q23 0 39 -13
q17 -16 17 -42q0 -31 -22 -43q-20 -6 -41 -13.5t-21 -30.5q0 -21 21 -38q18 -15 35 -15q65 0 65 112v365q0 161 -76 161q-36 0 -75 -48l-15 15q54 65 117 65q47 0 86 -27q44 -30 56 -84q28 21 90 64q73 51 80 51q5 0 15 -9q5 -4 10 -9q30 -13 45 -59q12 -35 12 -67
q0 -53 -40 -97t-107 -64q91 -13 126 -64q24 -35 24 -105q0 -11 -1 -32v-31v-71q0 -46 23 -46q7 0 16 3q2 6 11 18q6 -1 15 -4zM404 514q0 28 -12 57q-16 36 -40 36q-11 0 -95 -63v-185q147 92 147 155z" />
    <glyph glyph-name="S" unicode="S" horiz-adv-x="503" 
d="M453 190q1 -98 -72 -160q-68 -58 -162 -58q-99 0 -159 56t-60 158q0 36 27.5 69.5t62.5 33.5q28 0 47 -19t19 -47q0 -34 -29 -49q-28 -10 -55 -19q-29 -12 -29 -40q0 -48 65 -86q59 -34 111 -34q78 0 118.5 43.5t40.5 119.5q0 79 -93 123q-87 36 -173 72q-93 52 -93 150
q0 94 62 140q53 40 143 40q53 0 97 34l10 -39q27 -63 71 -63q6 0 12 1q-24 -48 -99 -48q-38 0 -61 22q-11 11 -27 41q-11 22 -23 22q-50 0 -81 -22q-35 -26 -36 -75q0 -64 94 -99q154 -56 176 -70q95 -64 96 -197z" />
    <glyph glyph-name="T" unicode="T" horiz-adv-x="479" 
d="M472 670q-44 -124 -124 -124q-7 0 -14 1l-24 10q-16 -17 -17 -53q-2 -46 -4 -52l1 -182q0 -51 -36 -83q-32 -29 -69 -29q-20 0 -36.5 12t-16.5 29q0 9 2 11q3 -1 16 -11.5t20 -10.5q10 0 35 43v167q0 78 8 101q17 47 82 57q-6 8 -70 27t-93 19q-98 0 -99 -84q-7 -2 -15 0
q-4 86 61 134q51 37 116 37q72 0 133 -27t82 -27q16 0 49 37zM463 170q-9 -77 -74 -133.5t-140 -53.5q-119 5 -185 94q-60 79 -60 194q0 98 44 178q47 85 127 111q-27 -23 -51 -91q-26 -72 -26 -170t33 -160q41 -77 127 -83q62 -5 115 24q57 31 78 90q1 -1 7 1q2 -1 5 -1z
" />
    <glyph glyph-name="U" unicode="U" horiz-adv-x="528" 
d="M511 64q0 -36 -32 -57q-23 -15 -48 -15q-46 0 -73 36q-25 32 -25 80q-61 -72 -100.5 -96t-100.5 -24q-45 0 -84 27q-45 32 -45 86q0 42 24 81q27 43 68 51q-23 -22 -30 -67q-6 -44 29.5 -84.5t75.5 -40.5q18 0 51 9.5t45 18.5q53 41 69 95q10 31 10 92v289
q0 20 -12.5 41.5t-27.5 30.5q56 17 86 73q19 -22 38 -43q23 -24 50 -24q-41 -13 -41 -75v-446q0 -44 0 -36q2 -28 15 -37q7 -5 14 -5q16 0 23 19q1 7 6 21q3 -1 15 0zM214 340q0 -81 -17 -124q-25 -68 -99 -96q1 5 14 40q13 31 12 67v225q0 99 -6 128q-16 76 -76 76
q-25 0 -47 -38l-12 10q24 32 44 45q27 18 67 18q56 0 89 -43t32 -103z" />
    <glyph glyph-name="V" unicode="V" horiz-adv-x="509" 
d="M502 563q-39 -13 -65 -40q-30 -31 -30 -68q0 -42 9.5 -126t9.5 -126q0 -87 -42 -150q-49 -73 -132 -73q-85 0 -133 62q-41 52 -38 118v363q0 127 -67 127q-11 0 -32 -12l-9 10q36 36 98 36q47 0 68 -19t34 -68q28 94 123 94q41 0 75 -31q1 -1 50 -57q27 -30 50 -30
q15 0 31 10v-20zM421 515q-38 10 -96 74q-54 61 -79 61q-26 0 -45 -26.5t-19 -55.5v-411v-82q6 -60 40 -70q22 -6 35 -6q47 0 63 45q11 29 11 88q0 30 -6.5 91t-6.5 91q0 74 21 116q23 46 82 85z" />
    <glyph glyph-name="W" unicode="W" horiz-adv-x="741" 
d="M744 561q-9 -18 -58 -39q-37 13 -89 74q-45 54 -74 54q-7 0 -13 -2q-82 -62 -82 -144q0 -13 2 -25l-1 -330q0 -141 66 -141q83 0 83 134q0 30 -4.5 77t-4.5 56q0 96 16 145q25 75 97 101q-21 -75 -21 -86q0 -34 5.5 -101t5.5 -101q0 -122 -37 -178q-45 -69 -158 -69
q-78 0 -130 93q-36 -57 -50 -71q-32 -29 -86 -29q-62 0 -97 51q-32 47 -28 118q-2 34 -2 81q0 39 2.5 119t2.5 114q0 40 -2 67q-5 61 -15 87q-14 35 -45 38q-23 1 -31 -11l-10 -16q-3 -1 -7 4t-6 4q25 54 96 54q94 0 121 -126l148 126q26 -15 55 -43q35 -35 38 -57
q43 60 60 74q33 29 87 29q35 0 66 -28q13 -11 49 -57q29 -36 51 -46zM335 195v284q0 127 -56 127q-39 -27 -47 -33q-26 -21 -39 -41v-411q0 -48 7 -68q13 -33 52 -33q79 0 83 175z" />
    <glyph glyph-name="X" unicode="X" horiz-adv-x="558" 
d="M540 129q-4 -63 -55 -103q-47 -37 -105 -35q-54 3 -84 26t-54 75q-27 -105 -117 -105q-48 0 -85 29q-42 34 -43 91q0 34 17 62q20 33 53 33q22 0 41 -15t19 -37q0 -29 -22 -44q-4 -3 -40 -17q-22 -9 -22 -24q0 -61 94 -61q44 0 67 72q17 54 16 112v146h-105v21h105v98
q-19 154 -89 155l-81 -53l-9 11l164 114q19 -1 56 -40q40 -43 45 -80q10 53 43.5 87.5t78.5 34.5q40 0 72 -31t32 -70q0 -24 -18 -48.5t-41 -24.5t-41 14t-18 36q0 29 25.5 47.5t25.5 31.5q0 30 -35 30q-118 0 -111 -216q1 -28 1 -96h113v-21h-113q0 -137 -1 -142
q14 -178 91 -178q43 0 78 38q30 34 41 80z" />
    <glyph glyph-name="Y" unicode="Y" horiz-adv-x="531" 
d="M563 599q0 -22 -46 -50q-25 -15 -50 -29q-11 -15 -15 -43l-4 -42l22 -358q0 -142 -42 -207q-55 -84 -195 -84q-49 0 -92 31q-49 35 -49 87q0 29 19.5 55.5t46.5 26.5q23 0 42.5 -21t19.5 -46q0 -32 -17 -44q-4 -3 -32 -13q-18 -6 -18 -21q0 -22 43 -32q26 -6 47 -6
q127 0 127 189l-17 308q0 183 104 224q-16 8 -32 17q-22 12 -39 32l-28 50q-18 30 -40 30q-32 0 -59.5 -44.5t-27.5 -78.5v-208q0 -75 -12 -105q-21 -54 -101 -115q13 23 17 115v311q0 119 -73 119q-24 0 -35.5 -13t-23.5 -26q-3 3 -11 4q32 75 126 68q32 -3 64 -34
q29 -29 42 -63q38 106 159 106q43 0 73 -29q12 -13 37 -54q18 -30 33 -30t29 31q6 -3 8 -8zM329 122q0 -5 -14 -30q-20 -37 -66 -64t-82 -27h-23q-36 -2 -73 28.5t-39 71.5q-3 79 69 125q-9 -35 -9 -54q0 -49 35 -87t80 -38q37 0 65 21q20 15 35 39q12 21 11 21z" />
    <glyph glyph-name="Z" unicode="Z" horiz-adv-x="467" 
d="M406 192q0 -198 -188 -205q-51 -2 -91 17q-19 8 -56 35q-26 20 -43 19q-16 -1 -26 -15l-12 -22q-3 2 -7.5 2.5t-4.5 2.5q3 38 50 63q36 20 64 20q44 0 77 -26q18 -14 44 -48q20 -26 30 -26q38 0 54 72q11 52 8 93l-6 84q-5 52 -23 78q-24 35 -72 35q-31 0 -57 -30
q-21 -24 -27 -51q-3 -2 -8 0q-6 3 -8 2q-2 16 21.5 47.5t46.5 39.5q-19 15 -34 32l11 11q14 -12 28 -23.5t45 -9.5q59 2 59 114q0 173 -86 173q-32 0 -66 -19q-41 -24 -41 -60q0 -24 34.5 -39.5t34.5 -46.5q0 -21 -13 -34.5t-31 -13.5q-32 0 -50 34q-14 26 -14 51
q0 75 53 114q44 32 107 32q73 0 125 -59q48 -55 48 -119q0 -41 -19 -76q-23 -43 -69 -61q112 -53 112 -187z" />
    <glyph glyph-name="bracketleft" unicode="[" horiz-adv-x="181" 
d="M22 718h104v-28h-63v-727h59v-23h-100v778z" />
    <glyph glyph-name="backslash" unicode="\" horiz-adv-x="404" 
d="M308 -7l38 1l-288 718h-38z" />
    <glyph glyph-name="bracketright" unicode="]" horiz-adv-x="181" 
d="M126 -60h-104v29h64v726h-60v23h100v-778z" />
    <glyph glyph-name="asciicircum" unicode="^" horiz-adv-x="490" 
d="M251 764q-25 -12 -98 -39l-6 10l99 79l2 3l2 -1l1 1l2 -3l100 -79l-7 -13q-27 9 -57 24t-38 18z" />
    <glyph glyph-name="underscore" unicode="_" horiz-adv-x="544" 
d="M-4 -80h551v-31h-551v31z" />
    <glyph glyph-name="grave" unicode="`" horiz-adv-x="368" 
d="M141 604q-8 4 -20 4q-24 0 -24 -34q0 -23 26 -24q32 -8 129 -38l6 13l-116 82z" />
    <glyph glyph-name="a" unicode="a" horiz-adv-x="368" 
d="M351 28q-12 -18 -57 -18q-48 0 -75 59q-37 -63 -96 -63t-82 45q-16 33 -16 99l2 158q1 90 42 115q55 34 162 75q34 -39 91 -66q-18 -36 -18 -52l-1 -274q0 -17 7 -41q10 -30 22 -30q9 0 18 6zM212 395q-36 46 -54 46q-7 0 -23.5 -7.5t-16.5 -13t-1 -16.5t-1 -16v-307
q-1 -15 9.5 -30t24.5 -15q5 0 11 3q52 31 52 109q0 8 -1 15q0 8 0 7v225z" />
    <glyph glyph-name="b" unicode="b" horiz-adv-x="372" 
d="M159 4q-56 0 -96.5 38t-40.5 94l1 241v151q2 70 20 103q20 38 73 55q22 5 66 16q25 -35 54 -35q25 0 36 10q-5 -25 -24 -40.5t-44 -15.5q-21 0 -34 15.5t-25 32.5q-25 -13 -25 -47l-1 -167q18 35 77 35q52 0 86 -49q31 -43 31 -97q0 14 -1 -149q-1 -97 -28 -138
q-34 -53 -125 -53zM220 425q0 14 -10.5 27.5t-23.5 13.5q-71 0 -71 -117l1 -259q1 -21 16.5 -40.5t34.5 -19.5q52 0 52 74z" />
    <glyph glyph-name="c" unicode="c" horiz-adv-x="293" 
d="M265 459q-6 -21 -35 -35q-24 -12 -42 -12q-35 0 -63 35q-6 -9 -8 -83q-1 -53 0 -146q1 -139 1 -117q0 -22 1 -43q6 -37 35 -39q34 -2 58.5 26t26.5 68q2 -2 9 -1.5t7 -2.5q0 -54 -37 -83q-31 -24 -73 -24q-36 0 -74 22q-47 29 -47 73v219q0 83 36 118q34 32 145 64
q0 -1 13 -24q11 -18 29 -18q12 0 18 3z" />
    <glyph glyph-name="d" unicode="d" horiz-adv-x="367" 
d="M316 130q-4 -54 -49 -93q-41 -36 -89 -36q-2 0 -9 1h-10q-69 0 -104 52q-29 42 -29 101v158q0 59 17 92q26 52 97 78q-58 31 -80 53q-29 29 -29 72q0 15 13 43q17 37 39 36h12q-2 -2 -12 -15.5t-10 -15.5q0 -14 29 -40q24 -23 39 -29q68 -32 115 -78q59 -58 59 -117z
M226 97v262q0 28 -17 64q-22 47 -56 47q-18 0 -27 -43q-7 -31 -7 -61v-287q0 -20 10 -37q14 -23 38 -23q59 0 59 78z" />
    <glyph glyph-name="e" unicode="e" horiz-adv-x="304" 
d="M267 399q0 -93 -151 -151v-183q0 -42 40 -42q28 0 55 35q21 26 33 61l19 -2q-42 -113 -108 -113h-23q-43 0 -75 29.5t-32 71.5v107q-1 73 -1 108q0 72 31 104q23 25 98 56q13 6 26 13q17 7 28 7q19 0 41 -41q19 -38 19 -60zM191 358q0 17 -17 57q-19 44 -32 44
q-10 0 -18 -34q-6 -27 -6 -42v-119q33 9 53 35t20 59z" />
    <glyph glyph-name="f" unicode="f" horiz-adv-x="197" 
d="M278 670q-22 -44 -81 -44q-19 0 -30.5 11.5t-22.5 23.5q-18 -6 -21 -82q1 -43 1 -86h52v-20h-53v-419q0 -35 -18 -46l-34 -12q-18 -9 -18 -39v-139h-19v655h-36v22h36v12q-1 11 0 31q1 21 1 31q0 53 67 91q50 30 115 41q16 -21 27.5 -27t33.5 -4z" />
    <glyph glyph-name="g" unicode="g" horiz-adv-x="373" 
d="M363 425q-36 -18 -36 -64l1 -147v-99q0 -22 7.5 -68.5t7.5 -71.5q0 -78 -50 -125.5t-129 -47.5q-47 0 -82.5 34t-35.5 81q0 25 19 46t43 21q21 0 37 -15t16 -36q0 -27 -18 -38q-7 -4 -35 -12q-18 -5 -18 -16q0 -20 28 -35q24 -12 46 -12q92 0 92 100q0 25 -8 65
q-10 49 -12 65q-22 -40 -74 -40q-51 0 -90 30q-44 33 -44 81l-1 105q0 93 12.5 131.5t51.5 63.5q17 10 116 55q16 8 39 23q52 -68 114 -65zM235 393q-16 13 -31 26q-24 19 -31 19q-22 0 -35 -26q-12 -22 -12 -46v-299q0 -16 13.5 -26.5t29.5 -10.5q51 0 64 78q3 20 3 106
q0 30 -1 179z" />
    <glyph glyph-name="h" unicode="h" horiz-adv-x="385" 
d="M327 74q0 -69 -3 -87q-9 -55 -106 -119q-84 -55 -151 -72q0 1 -2.5 5.5t-2.5 7.5q56 14 114 73q63 64 54 115q0 -2 0 207v155q0 56 -1 63q-7 39 -40 39q-55 0 -68 -92q-4 -26 -4 -130v-153q0 -12 4 -33q6 -29 15 -29q13 0 24.5 12.5t10.5 23.5q7 -1 13 -8
q-4 -21 -23 -34.5t-41 -13.5q-83 0 -95 89l-1 434q0 93 35 134t123 41q23 0 45.5 -18t30.5 -18q2 0 16 8t16 8q5 -13 -34 -40q-22 -15 -48 -15t-45.5 25t-18.5 25q-21 -2 -20 -73v-127v-34q40 49 86 49q58 0 91 -48q27 -39 27 -92z" />
    <glyph glyph-name="i" unicode="i" horiz-adv-x="196" 
d="M160 635q0 -39 -75 -63q-17 45 -17 59q0 22 11 40q14 23 38 23q43 0 43 -59zM188 47q-30 -42 -69 -41q-79 3 -79 70v286q0 54 -28 72q23 12 48 42q10 14 21 27q46 -66 78 -66q-35 -25 -32 -72q2 -44 0 -289q-1 -35 20 -41q8 0 18.5 9.5t10.5 13.5q6 0 12 -11z" />
    <glyph glyph-name="j" unicode="j" horiz-adv-x="176" 
d="M152 638q0 -21 -23 -42t-50 -28q-3 3 -13 27.5t-10 38.5q0 19 15 36.5t38 17.5q19 0 31 -17t12 -33zM121 34q26 -76 26 -106q0 -44 -17 -78q-24 -46 -72 -46q-34 0 -57.5 22.5t-23.5 55.5q0 28 13 49q16 25 45 25q15 0 28.5 -13t13.5 -29q0 -34 -30.5 -41.5t-30.5 -23.5
q0 -27 38 -27q27 0 43 23q13 20 13 41q0 49 -33 90q-24 30 -55 45q-2 1 6 20t8 20v302q-6 18 -13 37q-9 23 -23 32q23 12 51 43q13 14 25 28q46 -66 78 -66q-35 -25 -34 -74z" />
    <glyph glyph-name="k" unicode="k" horiz-adv-x="385" 
d="M265 670l28 10l4 -5q-1 -13 -31 -31.5t-45 -18.5q-19 0 -38.5 17t-28.5 36q-30 -5 -30 -59v-187q9 6 76 41.5t68 35.5q21 0 36 -34q13 -29 13 -53q0 -73 -106 -111h6q110 1 110 -150q0 -17 -1.5 -48t-1.5 -43q0 -10 6.5 -19t15.5 -9q11 0 26 22l7 -9q-28 -51 -73 -51
q-75 0 -75 113q0 17 1.5 52.5t1.5 52.5q0 28 -11 48q-15 24 -41 20q-63 -8 -63 -74v-143q0 -37 22 -37q14 0 30 24l14 -8q-4 -21 -23.5 -34.5t-41.5 -13.5q-37 0 -66 25.5t-29 63.5l1 423q0 103 41 144.5t144 41.5q28 -32 54 -32zM232 383q0 13 -20 47q-7 13 -18 13
q-8 0 -17 -8l-53 -28v-81q-1 -25 -1 -40q35 17 71 34q38 25 38 63z" />
    <glyph glyph-name="l" unicode="l" horiz-adv-x="193" 
d="M120 610v-530v-29q3 -19 21 -19q6 0 14 2t21 24q2 1 10 -10q-13 -13 -26 -27q-18 -14 -46 -14t-53 15q-37 22 -37 67v486q1 18 1 37q5 20 33 38q78 48 113 63q6 3 7 -22q-13 5 -35.5 -29t-22.5 -52z" />
    <glyph glyph-name="m" unicode="m" horiz-adv-x="585" 
d="M564 35q3 -7 8 -7q-32 -26 -48 -26q-94 0 -84 112l-1 237q1 15 1 32q0 82 -35 82q-32 0 -51 -32q-14 -22 -19 -57l-2 -28l-2 -335l-94 2v408q0 16 -7.5 30.5t-21.5 12.5q-34 -3 -54 -42q-18 -35 -17 -80v-331h-96v352q0 22 -4 34q-7 19 -29 34q9 12 70 63q5 0 17 -10
q22 -18 24 -21q9 -10 17 -35q28 51 74 58q17 3 31 3q54 0 87 -61q11 26 41 43t65 17q14 0 28 -3q44 -11 58 -46q9 -23 9 -77v-301q0 -37 16 -37q8 0 19 9z" />
    <glyph glyph-name="n" unicode="n" horiz-adv-x="383" 
d="M95 481q-14 14 -19 14q-62 -53 -69 -63q33 -23 33 -67q1 -146 1 -351h94v329q0 15 1 30q4 36 17 59q18 33 51 32q40 -2 36 -111l-2 -240q-10 -112 86 -112q28 0 51 19q-4 3 -10 14q-9 -4 -16 -4q-20 0 -20 32v301q3 55 -8 80q-14 32 -59 43q-13 3 -28 3q-35 0 -65 -17
t-40 -43q-9 28 -34 52z" />
    <glyph glyph-name="o" unicode="o" horiz-adv-x="374" 
d="M318 165q0 -55 -25 -82q-17 -17 -72 -42q-91 -41 -98 -39q-41 10 -73 51q-27 36 -25 53v236q0 65 64 97q19 10 79 32q57 20 61 20q29 0 58.5 -29.5t30.5 -58.5v-238zM227 99v237q0 107 -77 107q-16 0 -27 -12v-237v-53q2 -38 15 -59q17 -27 56 -27q33 0 33 44z" />
    <glyph glyph-name="p" unicode="p" horiz-adv-x="379" 
d="M325 341l-1 -193q3 -58 -29 -99t-77 -41q-36 0 -44 2q-28 8 -43 44l2 -161q3 -11 19 -33.5t16 -19.5q0 -2 -4.5 -3.5t-5.5 -3.5q-4 -2 -17 12q-19 20 -26 25q-10 -14 -62 -50q-58 -40 -78 -37q-2 0 -1 5q2 4 1 4q16 14 33 27q24 24 27 72v498q-1 6 -10 18.5t-17 12.5h-6
q-4 -1 -12 -1q7 12 45 43q35 29 38 29q17 0 35 -25q12 -17 17 -34q25 60 91 60q71 0 94 -48q15 -31 15 -103zM231 322q0 62 -1 75q-9 64 -43 64q-29 0 -46 -44q-15 -35 -15 -70v-215q0 -26 12 -55q17 -42 48 -42q30 0 39 39q3 27 6 53v195z" />
    <glyph glyph-name="q" unicode="q" horiz-adv-x="382" 
d="M340 -163q-10 7 -18 21q-11 21 -14 24q-12 -26 -53 -47q-37 -20 -65 -20q-1 0 -8 7q36 13 42 54q2 37 4 73l-1 120q-33 -67 -91 -67q-54 0 -86 50q-26 40 -26 85v165q-5 105 89 148q108 49 127 49q10 0 93 -51q0 -14 -13 -67v-443q0 -24 15.5 -63t16.5 -33zM226 162v209
q1 16 -23 44q-27 30 -50 30q-26 0 -31 -28v-293v-43q3 -32 26 -38q6 -1 11 -1q35 0 54 50q15 40 13 70z" />
    <glyph glyph-name="r" unicode="r" horiz-adv-x="307" 
d="M288 468q-15 -39 -25 -53q-19 -28 -49 -28q-27 0 -52 34q-34 -15 -35 -72v-235q0 -87 28 -87q18 0 29.5 23.5t15.5 25.5q4 -7 4 -12q0 -21 -24.5 -40t-46.5 -19q-99 0 -98 105v280q0 9 -9 19.5t-18 10.5q-5 0 -7 -5l-6 3v2q0 4 38.5 35.5t42.5 31.5q6 0 26.5 -16.5
t24.5 -23.5q-1 -9 5 -27q34 21 94 71q1 0 23 -30l13 -8z" />
    <glyph glyph-name="s" unicode="s" horiz-adv-x="379" 
d="M325 165q1 -73 -46 -116t-115 -44q-59 -1 -103 36.5t-45 98.5q0 28 16 52q18 30 49 30q29 1 45 -21q13 -19 14 -44q0 -30 -39 -36.5t-38 -36.5q0 -35 42 -53q29 -12 58 -11q40 0 70 25q34 27 33 72q-1 54 -61 86q-55 26 -111 51q-59 35 -60 94q-1 50 27 81q22 24 70 40
t95 30l4.5 -18.5t18.5 -24.5q6 -3 21 -3q16 -1 21.5 2t11.5 10q2 2 8 3v-14q-6 -11 -24 -30q-29 -19 -56 -19q-47 0 -89 53q-33 -13 -43 -22q-13 -13 -13 -42q1 -31 62 -57q94 -40 114 -54q62 -44 63 -118z" />
    <glyph glyph-name="t" unicode="t" horiz-adv-x="215" 
d="M3 482h42v6q11 45 25 78q34 81 82 96l10 -2q-14 -16 -20 -48q-2 -24 -5 -47v-83h63v-29h-63v-180q1 -166 1 -181v-29q0 -10 6 -20q9 -15 23 -15t20 20q1 2 9 0q9 -2 9 -6q0 -19 -26 -30q-20 -8 -40 -8q-32 0 -50 9q-38 21 -43 82l-1 358h-42v29z" />
    <glyph glyph-name="u" unicode="u" horiz-adv-x="399" 
d="M386 50q-2 -16 -25.5 -28.5t-40.5 -12.5q-57 0 -80 57q-11 -19 -35 -39q-33 -26 -64 -26q-37 0 -68 22q-36 25 -36 66v312q-1 19 -12 19q-10 0 -22 -12l-5 11q81 67 87 67q11 0 31.5 -27t16.5 -39l-1 -337q2 -26 3 -30q6 -20 23 -21q80 -3 80 164v201q1 32 -16 32
q-10 0 -26 -12l-5 10l84 61q28 -40 78 -60l-21 -26v-298q0 -67 23 -67q8 0 15 8t10 10q2 -3 6 -5z" />
    <glyph glyph-name="v" unicode="v" horiz-adv-x="395" 
d="M335 139q0 -74 -52 -111q-46 -31 -120 -31q-34 0 -78 36q-48 40 -50 82v215q-1 26 -2 40q-3 32 -10 40q-13 13 -24 18q16 19 63 71q11 -5 21 -14q25 -22 46 -63q30 39 49 54q23 18 51 20q56 4 85 -48q23 -42 22 -97q-1 -92 -1 -212zM234 112l2 233v72q-3 50 -25 46
q-31 -5 -58 -45q-21 -29 -24 -47v-314q0 -17 17 -33t35 -16q38 0 49 32q4 16 4 72z" />
    <glyph glyph-name="w" unicode="w" horiz-adv-x="589" 
d="M443 182v154q0 10 1.5 32t1.5 33q0 63 -35 63q-36 0 -54 -33l-26 -56v-305q0 -19 16.5 -37.5t33.5 -18.5q64 0 64 104q0 12 -1 34t-1 30zM305 70q-25 -45 -59 -61q-28 -12 -82 -12q-33 0 -77 36q-49 40 -51 82q1 89 0 215q0 26 -1 40q-3 32 -10 40q-13 13 -25 18
q17 19 64 71q12 -7 23 -17q26 -24 43 -57q29 37 50.5 52.5t50.5 14.5q55 -1 83 -77q52 75 106 75q116 -2 116 -151l1 -202q0 -66 -47 -107q-43 -37 -106 -37q-33 0 -56.5 22t-22.5 55zM240 102v243q0 54 -2 69q-6 47 -28 44q-31 -6 -57 -43q-19 -26 -23 -44l1 -314
q0 -17 17 -29.5t35 -10.5q39 4 50 25q7 14 7 60z" />
    <glyph glyph-name="x" unicode="x" horiz-adv-x="410" 
d="M298 29q29 0 55 25.5t34 57.5l17 -4q-3 -48 -43.5 -77.5t-84.5 -27.5q-75 3 -105 62q-20 -65 -83 -65q-35 0 -63 22q-31 25 -31 67q-1 25 12 46q16 25 41 25q18 0 32.5 -11.5t14.5 -29.5q0 -30 -43 -46q-15 -6 -15 -13q0 -38 60 -38q30 0 43 52q10 37 9 77q0 -2 0 93
l-72 -1v25h73v63q5 43 -17 68t-60 29l-47 -32l-13 16l110 83q17 0 52 -22q40 -25 50 -48q24 71 86 71q30 0 54 -22.5t24 -52.5q0 -18 -14 -37t-32 -19t-32.5 11t-14.5 29q0 23 20 37l7 5q9 6 9 13q0 16 -19 16q-78 0 -73 -146v-62h79v-25h-78q0 -15 -1 -40v-37
q-2 -137 59 -137z" />
    <glyph glyph-name="y" unicode="y" horiz-adv-x="384" 
d="M324 66q0 -94 -52 -155q-50 -57 -167 -106l-10 12q75 26 110 99q28 57 28 129v229q0 10 1 40.5t1 48.5q0 107 -42 107q-19 0 -42 -29t-23 -45q0 -61 1 -181t1 -180q0 -14 13 -14q4 0 6 1t13 18q7 -4 10 -4q-3 -29 -50 -33q-40 -3 -64.5 21t-22.5 57v247q0 65 -15 84
q-8 5 -24 12q-4 6 29.5 37.5t37.5 31.5q20 0 41 -16t28 -35q11 17 43 42q32 13 51 13q23 0 60 -24l2 -2q36 -23 36 -67v-338z" />
    <glyph glyph-name="z" unicode="z" horiz-adv-x="320" 
d="M280 26q0 -81 -29 -141q-39 -78 -112 -78q-54 0 -92 70q-33 60 -33 118q0 56 25 101q17 29 64 82l17 -2q-24 -29 -42 -84q-16 -51 -16 -83q0 -56 14 -108q21 -75 63 -75q24 3 35 60q8 42 5 78q2 31 2 66q0 196 -66 196q-12 0 -27 -13q-11 -10 -23 -21l-10 9q31 34 63 67
q43 49 43 77q0 85 -56 85q-9 0 -17 -2t-52 -41l-9 15q86 86 127 86q32 0 62.5 -27t30.5 -55q0 -51 -40 -95q-19 -21 -83 -70q78 2 121 -71q35 -60 35 -144z" />
    <glyph glyph-name="braceleft" unicode="{" horiz-adv-x="416" 
d="M204 284q-33 -45 -84 -45q-49 0 -86.5 37.5t-30.5 85.5q11 44 16 54q21 37 63 37q20 0 35.5 -14.5t15.5 -33.5q0 -37 -36 -50.5t-36 -34.5t28 -35q25 -14 47 -11q30 4 54 46q22 38 22 75q2 136 43 256q68 19 117 106v-39l-67 -108q-25 -103 -25 -237t25 -295l67 -108
l-1 -46q-21 45 -57 78q-35 30 -59 29q-46 141 -51 253z" />
    <glyph glyph-name="bar" unicode="|" horiz-adv-x="199" 
d="M84 691h26v-708h-26v708z" />
    <glyph glyph-name="braceright" unicode="}" horiz-adv-x="416" 
d="M172 284q33 -45 85 -45q49 0 86 37.5t31 85.5q-11 44 -17 54q-20 37 -63 37q-20 0 -35.5 -14.5t-15.5 -33.5q0 -37 36 -50.5t36 -34.5t-26.5 -35t-47.5 -11q-31 4 -55 46q-21 38 -21 75q-2 136 -44 256q-68 19 -117 106l1 -39l66 -108q25 -103 25 -237t-25 -295l-66 -108
v-46q21 45 58 78q34 30 59 29q46 141 50 253z" />
    <glyph glyph-name="asciitilde" unicode="~" horiz-adv-x="402" 
d="M335 790q-31 -66 -81 -66q-21 0 -60 16.5t-60 16.5q-34 0 -57 -29q-3 5 -8.5 5.5t-7.5 2.5q29 69 96 69q20 0 54.5 -15.5t52.5 -15.5q28 0 59 26z" />
    <glyph glyph-name="Adieresis" unicode="&#xc4;" horiz-adv-x="524" 
d="M521 58q-10 -72 -89 -72q-48 0 -75.5 28.5t-27.5 75.5v27q-16 -57 -69 -97t-116 -40q-52 0 -94 31q-46 34 -46 84q0 37 24.5 73.5t59.5 43.5q-1 -6 -6 -20.5t-5 -25.5q0 -55 31 -97q34 -47 88 -47q56 0 96 58q37 52 37 110v141l-118 1q-4 -110 -11 -138q-19 -68 -89 -104
q8 14 8 124q0 34 -9 100.5t-9 100.5q0 117 51 177q38 45 156 104q51 -35 70 -46q38 -20 78 -28q-9 -14 -29 -53l1 -495q0 -64 43 -64q16 0 25 19l12 32zM330 502q0 64 -22 84q-50 45 -76 45q-15 0 -25 -24q-8 -19 -8 -36v-95l12 -120l118 -1q0 23 1 74v73zM327 764
q0 18 12 31t29 13q18 0 30 -13t12 -31t-12 -30.5t-30 -12.5q-17 0 -29 12.5t-12 30.5zM197 764q0 18 12 31t29 13q18 0 30 -13t12 -31t-12 -30.5t-30 -12.5q-17 0 -29 12.5t-12 30.5z" />
    <glyph glyph-name="Aring" unicode="&#xc5;" horiz-adv-x="524" 
d="M521 58q-10 -72 -89 -72q-48 0 -75.5 28.5t-27.5 75.5v27q-16 -57 -69 -97t-116 -40q-52 0 -94 31q-46 34 -46 84q0 37 24.5 73.5t59.5 43.5q-1 -6 -6 -20.5t-5 -25.5q0 -55 31 -97q34 -47 88 -47q56 0 96 58q37 52 37 110v141l-118 1q-4 -110 -11 -138q-19 -68 -89 -104
q8 14 8 124q0 34 -9 100.5t-9 100.5q0 117 51 177q38 45 156 104q51 -35 70 -46q38 -20 78 -28q-9 -14 -29 -53l1 -495q0 -64 43 -64q16 0 25 19l12 32zM330 502q0 64 -22 84q-50 45 -76 45q-15 0 -25 -24q-8 -19 -8 -36v-95l12 -120l118 -1q0 23 1 74v73zM293 841
q26 0 44.5 -18t18.5 -43q0 -26 -18.5 -43.5t-44.5 -17.5t-44.5 17.5t-18.5 43.5q0 25 18.5 43t44.5 18zM293 815q-16 0 -26.5 -10.5t-10.5 -24.5q0 -15 10.5 -25.5t26.5 -10.5t26.5 10.5t10.5 25.5q0 14 -10.5 24.5t-26.5 10.5z" />
    <glyph glyph-name="Ccedilla" unicode="&#xc7;" horiz-adv-x="473" 
d="M442 665q-35 -38 -45 -46q-27 -21 -58 -21q-17 0 -30.5 8t-26.5 16l1 -300q0 -146 -91 -146q-26 0 -48 18t-22 43l4 8q6 -12 13 -25t22 -9q22 6 18 157v189q0 44 65 81q10 6 107 48q26 -30 49 -30q8 0 19 8t16 9zM433 185q0 -83 -59 -138.5t-141 -55.5h-5l-10 -38
q19 5 25 5q24 0 38 -24.5t14 -49.5q0 -34 -24.5 -55.5t-58.5 -21.5q-27 0 -52 17l9 22q13 -9 38 -9q10 0 20 12q5 5 5 36q0 33 -21 33q-8 0 -15 -3l-8 15l18 63q-102 12 -157 116q-47 90 -51 229q-2 114 26 187q40 104 146 150q7 -8 0 -18q-58 -8 -74 -168q-4 -37 -4 -81
q0 -128 32 -211q46 -122 152 -122q49 0 94 30q49 33 51 80q7 8 9 8q3 0 3 -8z" />
    <glyph glyph-name="Eacute" unicode="&#xc9;" horiz-adv-x="490" 
d="M444 193q0 -79 -66 -141t-145 -62q-118 0 -184 101q-58 91 -58 228q0 121 46 219q49 106 130 137q4 -1 9 -2v-10q-11 -6 -22.5 -13.5t-22.5 -23.5q-18 -26 -29 -136q-9 -97 -6 -155q6 -132 29 -179q38 -77 150 -77q62 0 100 33q28 25 59 86q0 -2 5 -2t5 -3zM453 657
q-15 -25 -40 -43q-29 -20 -56 -20q-21 0 -36 10t-30 21l-6 -12q-1 -13 0 -41v-136q41 40 73 40q41 0 64 -30.5t23 -73.5q0 -22 -20 -38.5t-41 -16.5q-25 0 -38.5 17.5t-13.5 43.5q0 20 18 42t18 26q0 7 -21 7q-62 0 -62 -124q0 -153 -97 -153q-59 0 -71 65l10 10
q1 -13 12 -31q13 -22 25 -21q23 11 23 71q0 13 -2 65.5t-2 85.5q0 175 51 199q15 8 45 20q14 5 48 22q30 15 50 19q20 -32 38 -32q8 0 17 5.5t16 10.5zM309 822q9 5 23 5q29 0 29 -41q0 -28 -31 -29q-39 -10 -156 -46l-7 15l140 99z" />
    <glyph glyph-name="Ntilde" unicode="&#xd1;" horiz-adv-x="632" 
d="M627 589q-11 -38 -68 -63q-51 -21 -51 -65l-1 -365q0 -76 28 -76q14 0 30.5 17t20.5 31h12q-3 -38 -33 -58q-26 -18 -67 -18q-54 0 -80 67q-18 47 -18 113v120q0 85 23 133q27 58 98 92q-31 -2 -57 31q-21 31 -41 62q-23 33 -45 33q-40 0 -70 -50q-27 -46 -27 -103
q-2 -95 -2 -316q0 -97 -32 -141q-39 -51 -134 -51q-116 0 -116 138q0 31 23 60t52 29q20 0 37 -15.5t17 -35.5q0 -33 -26 -47q-23 -8 -47.5 -18t-24.5 -37q0 -24 21 -39.5t47 -15.5q43 0 63 57q13 39 13 94l1 346q0 156 -84 156q-16 0 -35 -22q-15 -18 -23 -36l-10 8
q4 37 46 60q35 19 75 19q72 0 132 -104q28 59 70 82q38 21 106 21q38 0 67 -31q14 -14 41 -57q19 -31 30 -31q20 0 28 28zM465 790q-31 -66 -81 -66q-21 0 -60 16.5t-60 16.5q-34 0 -57 -29q-3 5 -8.5 5.5t-7.5 2.5q29 69 96 69q20 0 54.5 -15.5t52.5 -15.5q28 0 59 26z" />
    <glyph glyph-name="Odieresis" unicode="&#xd6;" horiz-adv-x="513" 
d="M201 -15q-56 0 -116.5 31t-76.5 31q-23 0 -33 -9q-11 -13 -21 -27l-2 8q0 26 26 54q21 24 47.5 36.5t26.5 129.5q0 47 -4.5 109t-4.5 57q0 84 9 120q16 62 66 95q11 8 105 38t105 30t49 -31q35 -28 44 -41q24 -36 28 -82q1 -9 1 -88l1 -233q0 -78 -86 -153t-164 -75z
M353 515q0 35 -52.5 75t-89.5 40q-62 0 -62 -166q0 -37 3.5 -90t3.5 -60q0 -74 -20 -115q-21 -44 -82 -84q17 3 31 3q26 0 66 -17q5 -2 72 -37q51 -28 68 -28q62 0 62 128v351zM267 764q0 18 12 31t29 13q18 0 30 -13t12 -31t-12 -30.5t-30 -12.5q-17 0 -29 12.5t-12 30.5z
M137 764q0 18 12 31t29 13q18 0 30 -13t12 -31t-12 -30.5t-30 -12.5q-17 0 -29 12.5t-12 30.5z" />
    <glyph glyph-name="Udieresis" unicode="&#xdc;" horiz-adv-x="528" 
d="M511 64q0 -36 -32 -57q-23 -15 -48 -15q-46 0 -73 36q-25 32 -25 80q-61 -72 -100.5 -96t-100.5 -24q-45 0 -84 27q-45 32 -45 86q0 42 24 81q27 43 68 51q-23 -22 -30 -67q-6 -44 29.5 -84.5t75.5 -40.5q18 0 51 9.5t45 18.5q53 41 69 95q10 31 10 92v289
q0 20 -12.5 41.5t-27.5 30.5q56 17 86 73q19 -22 38 -43q23 -24 50 -24q-41 -13 -41 -75v-446q0 -44 0 -36q2 -28 15 -37q7 -5 14 -5q16 0 23 19q1 7 6 21q3 -1 15 0zM214 340q0 -81 -17 -124q-25 -68 -99 -96q1 5 14 40q13 31 12 67v225q0 99 -6 128q-16 76 -76 76
q-25 0 -47 -38l-12 10q24 32 44 45q27 18 67 18q56 0 89 -43t32 -103zM277 764q0 18 12 31t29 13q18 0 30 -13t12 -31t-12 -30.5t-30 -12.5q-17 0 -29 12.5t-12 30.5zM147 764q0 18 12 31t29 13q18 0 30 -13t12 -31t-12 -30.5t-30 -12.5q-17 0 -29 12.5t-12 30.5z" />
    <glyph glyph-name="aacute" unicode="&#xe1;" horiz-adv-x="368" 
d="M351 28q-12 -18 -57 -18q-48 0 -75 59q-37 -63 -96 -63t-82 45q-16 33 -16 99l2 158q1 90 42 115q55 34 162 75q34 -39 91 -66q-18 -36 -18 -52l-1 -274q0 -17 7 -41q10 -30 22 -30q9 0 18 6zM212 395q-36 46 -54 46q-7 0 -23.5 -7.5t-16.5 -13t-1 -16.5t-1 -16v-307
q-1 -15 9.5 -30t24.5 -15q5 0 11 3q52 31 52 109q0 8 -1 15q0 8 0 7v225zM228 618q8 4 20 4q24 0 24 -34q0 -23 -26 -24q-32 -8 -130 -38l-6 13l117 82z" />
    <glyph glyph-name="agrave" unicode="&#xe0;" horiz-adv-x="368" 
d="M351 28q-12 -18 -57 -18q-48 0 -75 59q-37 -63 -96 -63t-82 45q-16 33 -16 99l2 158q1 90 42 115q55 34 162 75q34 -39 91 -66q-18 -36 -18 -52l-1 -274q0 -17 7 -41q10 -30 22 -30q9 0 18 6zM212 395q-36 46 -54 46q-7 0 -23.5 -7.5t-16.5 -13t-1 -16.5t-1 -16v-307
q-1 -15 9.5 -30t24.5 -15q5 0 11 3q52 31 52 109q0 8 -1 15q0 8 0 7v225zM141 618q-8 4 -20 4q-24 0 -24 -34q0 -23 26 -24q32 -8 129 -38l6 13l-116 82z" />
    <glyph glyph-name="acircumflex" unicode="&#xe2;" horiz-adv-x="368" 
d="M351 28q-12 -18 -57 -18q-48 0 -75 59q-37 -63 -96 -63t-82 45q-16 33 -16 99l2 158q1 90 42 115q55 34 162 75q34 -39 91 -66q-18 -36 -18 -52l-1 -274q0 -17 7 -41q10 -30 22 -30q9 0 18 6zM212 395q-36 46 -54 46q-7 0 -23.5 -7.5t-16.5 -13t-1 -16.5t-1 -16v-307
q-1 -15 9.5 -30t24.5 -15q5 0 11 3q52 31 52 109q0 8 -1 15q0 8 0 7v225zM191 568q-20 -13 -79 -39l-8 15l83 66l2 3l1 -1l1 1l2 -3l83 -66l-8 -15q-23 8 -47 22.5t-30 16.5z" />
    <glyph glyph-name="adieresis" unicode="&#xe4;" horiz-adv-x="368" 
d="M351 28q-12 -18 -57 -18q-48 0 -75 59q-37 -63 -96 -63t-82 45q-16 33 -16 99l2 158q1 90 42 115q55 34 162 75q34 -39 91 -66q-18 -36 -18 -52l-1 -274q0 -17 7 -41q10 -30 22 -30q9 0 18 6zM212 395q-36 46 -54 46q-7 0 -23.5 -7.5t-16.5 -13t-1 -16.5t-1 -16v-307
q-1 -15 9.5 -30t24.5 -15q5 0 11 3q52 31 52 109q0 8 -1 15q0 8 0 7v225zM217 578q0 18 12 31t29 13q18 0 30 -13t12 -31t-12 -30.5t-30 -12.5q-17 0 -29 12.5t-12 30.5zM87 578q0 18 12 31t29 13q18 0 30 -13t12 -31t-12 -30.5t-30 -12.5q-17 0 -29 12.5t-12 30.5z" />
    <glyph glyph-name="atilde" unicode="&#xe3;" horiz-adv-x="368" 
d="M351 28q-12 -18 -57 -18q-48 0 -75 59q-37 -63 -96 -63t-82 45q-16 33 -16 99l2 158q1 90 42 115q55 34 162 75q34 -39 91 -66q-18 -36 -18 -52l-1 -274q0 -17 7 -41q10 -30 22 -30q9 0 18 6zM212 395q-36 46 -54 46q-7 0 -23.5 -7.5t-16.5 -13t-1 -16.5t-1 -16v-307
q-1 -15 9.5 -30t24.5 -15q5 0 11 3q52 31 52 109q0 8 -1 15q0 8 0 7v225zM294 593q-25 -53 -65 -53q-17 0 -49 13.5t-49 13.5q-27 0 -46 -24q-4 2 -13 7q24 55 78 55q16 0 44 -12.5t43 -12.5q22 0 47 21z" />
    <glyph glyph-name="aring" unicode="&#xe5;" horiz-adv-x="368" 
d="M351 28q-12 -18 -57 -18q-48 0 -75 59q-37 -63 -96 -63t-82 45q-16 33 -16 99l2 158q1 90 42 115q55 34 162 75q34 -39 91 -66q-18 -36 -18 -52l-1 -274q0 -17 7 -41q10 -30 22 -30q9 0 18 6zM212 395q-36 46 -54 46q-7 0 -23.5 -7.5t-16.5 -13t-1 -16.5t-1 -16v-307
q-1 -15 9.5 -30t24.5 -15q5 0 11 3q52 31 52 109q0 8 -1 15q0 8 0 7v225zM183 639q24 0 40.5 -16t16.5 -39t-16.5 -39.5t-40.5 -16.5q-23 0 -40 16.5t-17 39.5t17 39t40 16zM183 616q-14 0 -24 -9.5t-10 -22.5t10 -23t24 -10t24 10t10 23t-10 22.5t-24 9.5z" />
    <glyph glyph-name="ccedilla" unicode="&#xe7;" horiz-adv-x="293" 
d="M129 -148q-22 0 -41 13l8 22q11 -7 28 -7q28 0 28 35q0 26 -15 26q-13 0 -21 -3l-7 12l16 54q-38 7 -66 28q-35 27 -35 65v219q0 83 36 118q34 32 145 64q0 -1 13 -24q11 -18 29 -18q12 0 18 3q-6 -21 -35 -35q-24 -12 -42 -12q-35 0 -63 35q-6 -9 -8 -83q-1 -53 0 -146
q1 -139 1 -117q0 -22 1 -43q6 -37 35 -39q34 -2 58.5 26t26.5 68q2 -2 9 -1.5t7 -2.5q0 -54 -37 -83q-31 -25 -73 -24h-2l-9 -34q15 4 20 4q18 0 28 -19q8 -15 8 -35q0 -28 -17 -47t-44 -19z" />
    <glyph glyph-name="eacute" unicode="&#xe9;" horiz-adv-x="304" 
d="M267 399q0 -94 -147 -151v-183q0 -42 36 -42q28 0 55 35q21 26 33 61l19 -2q-42 -113 -108 -113h-23q-43 0 -76 31t-33 73q0 36 1 106v106q0 72 31 104q23 25 98 56q13 6 26 13q17 7 28 7q19 0 41 -41q19 -38 19 -60zM191 358q0 17 -17 57q-19 44 -32 44q-10 0 -16 -34
q-4 -24 -4 -42v-119q69 19 69 94zM188 618q8 4 20 4q24 0 24 -34q0 -23 -26 -24q-32 -8 -130 -38l-6 13l117 82z" />
    <glyph glyph-name="egrave" unicode="&#xe8;" horiz-adv-x="304" 
d="M267 399q0 -94 -147 -151v-183q0 -42 36 -42q28 0 55 35q21 26 33 61l19 -2q-42 -113 -108 -113h-23q-43 0 -76 31t-33 73q0 36 1 106v106q0 72 31 104q23 25 98 56q13 6 26 13q17 7 28 7q19 0 41 -41q19 -38 19 -60zM191 358q0 17 -17 57q-19 44 -32 44q-10 0 -16 -34
q-4 -24 -4 -42v-119q69 19 69 94zM121 618q-8 4 -20 4q-24 0 -24 -34q0 -23 26 -24q32 -8 129 -38l6 13l-116 82z" />
    <glyph glyph-name="ecircumflex" unicode="&#xea;" horiz-adv-x="304" 
d="M267 399q0 -94 -147 -151v-183q0 -42 36 -42q28 0 55 35q21 26 33 61l19 -2q-42 -113 -108 -113h-23q-43 0 -76 31t-33 73q0 36 1 106v106q0 72 31 104q23 25 98 56q13 6 26 13q17 7 28 7q19 0 41 -41q19 -38 19 -60zM191 358q0 17 -17 57q-19 44 -32 44q-10 0 -16 -34
q-4 -24 -4 -42v-119q69 19 69 94zM151 568q-20 -13 -79 -39l-8 15l83 66l2 3l1 -1l1 1l2 -3l83 -66l-8 -15q-23 8 -47 22.5t-30 16.5z" />
    <glyph glyph-name="edieresis" unicode="&#xeb;" horiz-adv-x="304" 
d="M267 399q0 -94 -147 -151v-183q0 -42 36 -42q28 0 55 35q21 26 33 61l19 -2q-42 -113 -108 -113h-23q-43 0 -76 31t-33 73q0 36 1 106v106q0 72 31 104q23 25 98 56q13 6 26 13q17 7 28 7q19 0 41 -41q19 -38 19 -60zM191 358q0 17 -17 57q-19 44 -32 44q-10 0 -16 -34
q-4 -24 -4 -42v-119q69 19 69 94zM177 578q0 18 12 31t29 13q18 0 30 -13t12 -31t-12 -30.5t-30 -12.5q-17 0 -29 12.5t-12 30.5zM47 578q0 18 12 31t29 13q18 0 30 -13t12 -31t-12 -30.5t-30 -12.5q-17 0 -29 12.5t-12 30.5z" />
    <glyph glyph-name="iacute" unicode="&#xed;" horiz-adv-x="196" 
d="M181 47q-31 -42 -70 -41q-78 3 -78 70v286q0 54 -28 72q23 12 48 42q10 14 21 27q46 -66 78 -66q-35 -25 -32 -72q2 -44 0 -289q-1 -35 20 -41q8 0 18.5 9.5t10.5 13.5q6 0 12 -11zM108 618q8 4 20 4q24 0 24 -34q0 -23 -26 -24q-32 -8 -130 -38l-6 13l117 82z" />
    <glyph glyph-name="igrave" unicode="&#xec;" horiz-adv-x="196" 
d="M181 47q-31 -42 -70 -41q-78 3 -78 70v286q0 54 -28 72q23 12 48 42q10 14 21 27q46 -66 78 -66q-35 -25 -32 -72q2 -44 0 -289q-1 -35 20 -41q8 0 18.5 9.5t10.5 13.5q6 0 12 -11zM41 618q-8 4 -20 4q-24 0 -24 -34q0 -23 26 -24q32 -8 129 -38l6 13l-116 82z" />
    <glyph glyph-name="icircumflex" unicode="&#xee;" horiz-adv-x="196" 
d="M181 47q-31 -42 -70 -41q-78 3 -78 70v286q0 54 -28 72q23 12 48 42q10 14 21 27q46 -66 78 -66q-35 -25 -32 -72q2 -44 0 -289q-1 -35 20 -41q8 0 18.5 9.5t10.5 13.5q6 0 12 -11zM71 568q-20 -13 -79 -39l-8 15l83 66l2 3l1 -1l1 1l2 -3l83 -66l-8 -15q-23 8 -47 22.5
t-30 16.5z" />
    <glyph glyph-name="idieresis" unicode="&#xef;" horiz-adv-x="196" 
d="M181 47q-31 -42 -70 -41q-78 3 -78 70v286q0 54 -28 72q23 12 48 42q10 14 21 27q46 -66 78 -66q-35 -25 -32 -72q2 -44 0 -289q-1 -35 20 -41q8 0 18.5 9.5t10.5 13.5q6 0 12 -11zM107 578q0 18 12 31t29 13q18 0 30 -13t12 -31t-12 -30.5t-30 -12.5q-17 0 -29 12.5
t-12 30.5zM-23 578q0 18 12 31t29 13q18 0 30 -13t12 -31t-12 -30.5t-30 -12.5q-17 0 -29 12.5t-12 30.5z" />
    <glyph glyph-name="ntilde" unicode="&#xf1;" horiz-adv-x="383" 
d="M88 481q-14 14 -19 14q-62 -53 -69 -63q33 -23 33 -67q1 -146 1 -351h94v329q0 15 1 30q4 36 17 59q18 33 51 32q40 -2 36 -111l-2 -240q-10 -112 86 -112q28 0 51 19q-4 3 -10 14q-9 -4 -16 -4q-20 0 -20 32v301q3 55 -8 80q-14 32 -59 43q-13 3 -28 3q-35 0 -65 -17
t-40 -43q-10 28 -34 52zM284 593q-25 -53 -65 -53q-17 0 -49 13.5t-49 13.5q-27 0 -46 -24q-4 2 -13 7q24 55 78 55q16 0 44 -12.5t43 -12.5q22 0 47 21z" />
    <glyph glyph-name="oacute" unicode="&#xf3;" horiz-adv-x="374" 
d="M318 165q0 -55 -25 -82q-17 -17 -72 -42q-91 -41 -98 -39q-41 10 -73 51q-27 36 -25 53v236q0 65 64 97q19 10 79 32q57 20 61 20q29 0 58.5 -29.5t30.5 -58.5v-238zM227 99v237q0 107 -77 107q-16 0 -27 -12v-237v-53q2 -38 15 -59q17 -27 56 -27q33 0 33 44zM208 618
q8 4 20 4q24 0 24 -34q0 -23 -26 -24q-32 -8 -130 -38l-6 13l117 82z" />
    <glyph glyph-name="ograve" unicode="&#xf2;" horiz-adv-x="374" 
d="M318 165q0 -55 -25 -82q-17 -17 -72 -42q-91 -41 -98 -39q-41 10 -73 51q-27 36 -25 53v236q0 65 64 97q19 10 79 32q57 20 61 20q29 0 58.5 -29.5t30.5 -58.5v-238zM227 99v237q0 107 -77 107q-16 0 -27 -12v-237v-53q2 -38 15 -59q17 -27 56 -27q33 0 33 44zM141 618
q-8 4 -20 4q-24 0 -24 -34q0 -23 26 -24q32 -8 129 -38l6 13l-116 82z" />
    <glyph glyph-name="ocircumflex" unicode="&#xf4;" horiz-adv-x="374" 
d="M318 165q0 -55 -25 -82q-17 -17 -72 -42q-91 -41 -98 -39q-41 10 -73 51q-27 36 -25 53v236q0 65 64 97q19 10 79 32q57 20 61 20q29 0 58.5 -29.5t30.5 -58.5v-238zM227 99v237q0 107 -77 107q-16 0 -27 -12v-237v-53q2 -38 15 -59q17 -27 56 -27q33 0 33 44zM171 568
q-20 -13 -79 -39l-8 15l83 66l2 3l1 -1l1 1l2 -3l83 -66l-8 -15q-23 8 -47 22.5t-30 16.5z" />
    <glyph glyph-name="odieresis" unicode="&#xf6;" horiz-adv-x="374" 
d="M318 165q0 -55 -25 -82q-17 -17 -72 -42q-91 -41 -98 -39q-41 10 -73 51q-27 36 -25 53v236q0 65 64 97q19 10 79 32q57 20 61 20q29 0 58.5 -29.5t30.5 -58.5v-238zM227 99v237q0 107 -77 107q-16 0 -27 -12l-1 -235v-54q2 -38 15 -59q18 -28 57 -28q33 0 33 44z
M197 578q0 18 12 31t29 13q18 0 30 -13t12 -31t-12 -30.5t-30 -12.5q-17 0 -29 12.5t-12 30.5zM67 578q0 18 12 31t29 13q18 0 30 -13t12 -31t-12 -30.5t-30 -12.5q-17 0 -29 12.5t-12 30.5z" />
    <glyph glyph-name="otilde" unicode="&#xf5;" horiz-adv-x="374" 
d="M318 165q0 -55 -25 -82q-17 -17 -72 -42q-91 -41 -98 -39q-41 10 -73 51q-27 36 -25 53v236q0 65 64 97q19 10 79 32q57 20 61 20q29 0 58.5 -29.5t30.5 -58.5v-238zM227 99v237q0 107 -77 107q-16 0 -27 -12v-237v-53q2 -38 15 -59q17 -27 56 -27q33 0 33 44zM274 593
q-25 -53 -65 -53q-17 0 -49 13.5t-49 13.5q-27 0 -46 -24q-4 2 -13 7q24 55 78 55q16 0 44 -12.5t43 -12.5q22 0 47 21z" />
    <glyph glyph-name="uacute" unicode="&#xfa;" horiz-adv-x="399" 
d="M386 50q-2 -16 -25.5 -28.5t-40.5 -12.5q-57 0 -80 57q-11 -19 -35 -39q-33 -26 -64 -26q-37 0 -68 22q-36 25 -36 66v312q-1 19 -12 19q-10 0 -22 -12l-5 11q81 67 87 67q11 0 31.5 -27t16.5 -39l-1 -337q2 -26 3 -30q6 -20 23 -21q80 -3 80 164v201q1 32 -16 32
q-10 0 -26 -12l-5 10l84 61q28 -40 78 -60l-21 -26v-298q0 -67 23 -67q8 0 15 8t10 10q2 -3 6 -5zM228 618q8 4 20 4q24 0 24 -34q0 -23 -26 -24q-32 -8 -130 -38l-6 13l117 82z" />
    <glyph glyph-name="ugrave" unicode="&#xf9;" horiz-adv-x="399" 
d="M386 50q-2 -16 -25.5 -28.5t-40.5 -12.5q-57 0 -80 57q-11 -19 -35 -39q-33 -26 -64 -26q-37 0 -68 22q-36 25 -36 66v312q-1 19 -12 19q-10 0 -22 -12l-5 11q81 67 87 67q11 0 31.5 -27t16.5 -39l-1 -337q2 -26 3 -30q6 -20 23 -21q80 -3 80 164v201q1 32 -16 32
q-10 0 -26 -12l-5 10l84 61q28 -40 78 -60l-21 -26v-298q0 -67 23 -67q8 0 15 8t10 10q2 -3 6 -5zM141 618q-8 4 -20 4q-24 0 -24 -34q0 -23 26 -24q32 -8 129 -38l6 13l-116 82z" />
    <glyph glyph-name="ucircumflex" unicode="&#xfb;" horiz-adv-x="405" 
d="M386 50q-2 -16 -25.5 -28.5t-40.5 -12.5q-57 0 -80 57q-11 -19 -35 -39q-33 -26 -64 -26q-37 0 -68 22q-36 25 -36 66v312q-1 19 -12 19q-10 0 -22 -12l-5 11q81 67 87 67q11 0 31.5 -27t16.5 -39l-1 -337q2 -26 3 -30q6 -20 23 -21q80 -3 80 164v201q1 32 -16 32
q-10 0 -26 -12l-5 10l84 61q28 -40 78 -60l-21 -26v-298q0 -67 23 -67q8 0 15 8t10 10q2 -3 6 -5zM171 568q-20 -13 -79 -39l-8 15l83 66l2 3l1 -1l1 1l2 -3l83 -66l-8 -15q-23 8 -47 22.5t-30 16.5z" />
    <glyph glyph-name="udieresis" unicode="&#xfc;" horiz-adv-x="399" 
d="M386 50q-2 -16 -25.5 -28.5t-40.5 -12.5q-57 0 -80 57q-11 -19 -35 -39q-33 -26 -64 -26q-37 0 -68 22q-36 25 -36 66v312q-1 19 -12 19q-10 0 -22 -12l-5 11q81 67 87 67q11 0 31.5 -27t16.5 -39l-1 -337q2 -26 3 -30q6 -20 23 -21q80 -3 80 164v201q1 32 -16 32
q-10 0 -26 -12l-5 10l84 61q28 -40 78 -60l-21 -26v-298q0 -67 23 -67q8 0 15 8t10 10q2 -3 6 -5zM207 578q0 18 12 31t29 13q18 0 30 -13t12 -31t-12 -30.5t-30 -12.5q-17 0 -29 12.5t-12 30.5zM77 578q0 18 12 31t29 13q18 0 30 -13t12 -31t-12 -30.5t-30 -12.5
q-17 0 -29 12.5t-12 30.5z" />
    <glyph glyph-name="dagger" unicode="&#x2020;" horiz-adv-x="360" 
d="M153 474q-29 -2 -56 -16.5t-35 -14.5q-58 0 -58 43q0 45 58 45q8 0 34.5 -14.5t57.5 -16.5q-1 25 -18.5 71t-17.5 65q0 18 11.5 33.5t32.5 15.5q45 0 45 -49q0 -19 -17.5 -64.5t-18.5 -71.5q32 2 58 16.5t33 14.5q59 0 59 -45q0 -43 -59 -43q-7 0 -34 14.5t-57 17.5
q3 -84 45 -140q-24 -73 -32 -169q-4 -44 -7 -171l-19 3q0 79 -12 171q-14 113 -37 166q41 55 44 139z" />
    <glyph glyph-name="degree" unicode="&#xb0;" horiz-adv-x="244" 
d="M113 492q-42 0 -71.5 28.5t-29.5 69.5q0 40 29.5 68.5t71.5 28.5t71.5 -28.5t29.5 -68.5q0 -41 -29.5 -69.5t-71.5 -28.5zM113 662q-32 0 -54 -21t-22 -51t22 -51.5t54 -21.5t54 21.5t22 51.5t-22 51t-54 21z" />
    <glyph glyph-name="cent" unicode="&#xa2;" horiz-adv-x="284" 
d="M141 99l-1 -87h-23l1 87q-40 -5 -79 26.5t-39 77.5v219q0 70 24 103.5t93 57.5v86h23v-78q17 6 41 13q0 -1 13 -24q11 -18 29 -18q12 0 18 3q-6 -21 -35 -35q-24 -12 -42 -12q-40 0 -66 33v-346q0 -1 -1 -10.5t-1 -17.5q0 -49 34 -52q34 -2 58.5 26t26.5 68q2 -2 12 0
q9 1 9 -2q0 -48 -31 -82q-27 -31 -64 -36z" />
    <glyph glyph-name="sterling" unicode="&#xa3;" horiz-adv-x="415" 
d="M264 256h-110q17 -45 17 -50q-2 -44 -28 -80q-19 -26 -47 -47q-22 -16 -24 -15h166q33 0 66 27.5t26 45.5l15 4l15 -12q-20 -44 -69 -129l-277 1l1 69q94 28 94 121q0 34 -15 65h-74v25h60q-8 11 -17.5 19t-30.5 52q-27 56 -27 96q0 97 47 154q33 40 126 93
q57 -40 114 -81q50 -42 50 -94q0 -117 -117 -154l3 62q74 28 74 98q0 63 -87 100q-102 -58 -102 -151q0 -10 1 -21q3 -39 6 -77q5 -41 15 -71q0 -3 9 -24q120 0 120 -1v-25z" />
    <glyph glyph-name="section" unicode="&#xa7;" horiz-adv-x="22" 
 />
    <glyph glyph-name="bullet" unicode="&#x2022;" horiz-adv-x="357" 
d="M57 310q0 46 31 78.5t74 32.5q44 0 74.5 -32.5t30.5 -78.5t-30.5 -78.5t-74.5 -32.5q-43 0 -74 32.5t-31 78.5z" />
    <glyph glyph-name="paragraph" unicode="&#xb6;" horiz-adv-x="487" 
d="M462 -65h-282v30q39 0 49 12t10 53v283l-31 -1q-85 -3 -136.5 44t-51.5 132q0 101 66 142q52 32 162 32h214v-30q-38 0 -47.5 -12.5t-9.5 -53.5v-536q0 -42 8 -52q10 -13 49 -13v-30zM352 -35v667h-63v-667h63z" />
    <glyph glyph-name="germandbls" unicode="&#xdf;" horiz-adv-x="478" 
d="M430 26q0 -83 -25 -139q-35 -76 -108 -76q-53 0 -86 68q-27 55 -27 116q0 54 22 101q9 18 56 90l10 -4q-40 -19 -40 -173q0 -183 61 -183l9 2q26 22 24 77q5 57 5 115q0 210 -61 210q-13 0 -26.5 -10.5t-25.5 -20.5l-13 2q32 35 65 70q44 50 44 78q0 118 -82 122
q-29 2 -97 2v-419q1 -42 -34.5 -52.5t-35.5 -44.5v-139h-19v655h-45l-1 22h46v73q0 95 183 133q17 -21 26 -26q13 -7 35 -5q-28 -47 -87 -44q-15 0 -26 12t-21 23q-21 -6 -20 -68v-100h56h102q31 0 67 -33.5t36 -62.5q0 -50 -38 -89q-8 -8 -82 -65q78 3 120 -71
q33 -60 33 -146z" />
    <glyph glyph-name="registered" unicode="&#xae;" horiz-adv-x="376" 
d="M185 720q60 0 102.5 -43.5t42.5 -103.5q0 -61 -43 -104t-104 -43t-104 43t-43 104q0 62 43.5 104.5t105.5 42.5zM182 699q-51 0 -86 -37t-35 -88q0 -52 35 -88.5t87 -36.5t87 36.5t35 88.5t-35.5 88.5t-87.5 36.5zM166 568v-41q0 -9 1 -15q7 -3 24 -3v-14h-89v14
q14 0 21 3q2 6 2 15v92q0 8 -2 15q-6 2 -21 2v15h95q58 0 58 -40q0 -31 -38 -39q21 -8 30 -57q2 -2 5 -3q8 0 8 20h15v-5q0 -35 -38 -35q-26 0 -34 22q-2 5 -7 45q-4 9 -30 9zM166 583h11q34 0 34 27q0 26 -25 26h-9q-11 0 -11 -12v-41z" />
    <glyph glyph-name="copyright" unicode="&#xa9;" horiz-adv-x="793" 
d="M373 -10q-150 0 -256.5 106t-106.5 256q0 154 106.5 259t260.5 105q149 0 254 -107t105 -256q0 -151 -106 -257t-257 -106zM369 674q-129 0 -217.5 -95.5t-88.5 -225.5q0 -131 90 -226t220 -95t220 95t90 226q0 134 -90 227.5t-224 93.5zM372 153q-87 0 -140.5 53.5
t-53.5 140.5q0 89 56 146.5t144 57.5q51 0 98 -28l29 26h21l6 -151l-27 -3q-36 129 -122 129q-100 0 -100 -168q0 -171 107 -171q95 0 118 115l31 -8q-30 -139 -167 -139z" />
    <glyph glyph-name="trademark" unicode="&#x2122;" horiz-adv-x="656" 
d="M248 708l6 -97h-23q-14 74 -54 74l-6 -3l-1 -8v-166q0 -15 2 -25q11 -4 36 -4v-23h-143v23q26 0 37 4q2 11 2 25v166l-2 9l-6 2q-40 0 -54 -74h-22l5 97h223zM410 708l48 -135l46 135h116v-23q-22 0 -33 -4q-2 -10 -2 -25v-148q0 -15 2 -25q11 -4 33 -4v-23h-136v23
q22 0 33 4q2 11 2 25v156l-72 -208h-16l-72 206v-132q0 -28 4 -36q7 -15 32 -15v-23h-102v23h2q24 0 31 15q4 9 4 36v126q0 14 -2 25q-11 4 -32 4v23h114z" />
    <glyph glyph-name="acute" unicode="&#xb4;" horiz-adv-x="368" 
d="M228 604q8 4 20 4q24 0 24 -34q0 -23 -26 -24q-32 -8 -130 -38l-6 13l117 82z" />
    <glyph glyph-name="dieresis" unicode="&#xa8;" horiz-adv-x="317" 
d="M187 564q0 18 12 31t29 13q18 0 30 -13t12 -31t-12 -30.5t-30 -12.5q-17 0 -29 12.5t-12 30.5zM57 564q0 18 12 31t29 13q18 0 30 -13t12 -31t-12 -30.5t-30 -12.5q-17 0 -29 12.5t-12 30.5z" />
    <glyph glyph-name="AE" unicode="&#xc6;" horiz-adv-x="846" 
d="M330 502q0 64 -22 84q-50 45 -76 45q-15 0 -25 -24q-8 -19 -8 -36v-95l12 -120l118 -1q0 23 1 74v73zM784 193q0 -79 -66 -141t-145 -62q-85 0 -122 18q-55 27 -101 118q-17 -64 -80 -106q-59 -40 -126 -40q-52 0 -94 31q-46 34 -46 84q0 37 24.5 73.5t59.5 43.5
q-1 -6 -6 -20.5t-5 -25.5q0 -55 31 -97q34 -47 88 -47q56 0 96 58q37 52 37 110v141l-118 1q-4 -110 -11 -138q-19 -68 -89 -104q8 14 8 124q0 34 -9 100.5t-9 100.5q0 117 51 177q38 45 156 104q46 -31 62 -41q34 -19 66 -28q33 33 71 48q4 -1 9 -2v-10q-11 -6 -22.5 -13.5
t-22.5 -23.5q-18 -26 -29 -136q-9 -97 -6 -155q6 -132 29 -179q38 -77 150 -77q62 0 100 33q28 25 59 86q0 -2 5 -2t5 -3zM793 657q-15 -25 -40 -43q-29 -20 -56 -20q-21 0 -36 10t-30 21l-6 -12q-1 -13 0 -41v-136q41 40 73 40q41 0 64 -30.5t23 -73.5q0 -22 -20 -38.5
t-41 -16.5q-25 0 -38.5 17.5t-13.5 43.5q0 20 18 42t18 26q0 7 -21 7q-62 0 -62 -124q0 -153 -97 -153q-59 0 -71 65l10 10q1 -13 12 -31q13 -22 25 -21q23 11 23 71q0 13 -2 65.5t-2 85.5q0 175 51 199q15 8 45 20q14 5 48 22q30 15 50 19q20 -32 38 -32q8 0 17 5.5
t16 10.5z" />
    <glyph glyph-name="Oslash" unicode="&#xd8;" horiz-adv-x="513" 
d="M112 115l239 414q-11 34 -59 67.5t-81 33.5q-62 0 -62 -166q0 -37 3.5 -90t3.5 -60q0 -74 -20 -115q-21 -44 -82 -84q34 5 58 0zM353 472l-211 -367l9 -4q5 -2 72 -37q51 -28 68 -28q62 0 62 128v308zM456 711h36l-63 -108q18 -33 21 -76v-81l1 -233q0 -78 -86 -153
t-164 -75q-55 0 -112 29l-53 -92h-35l61 106q-36 19 -54 19q-23 0 -33 -9q-11 -13 -21 -27l-2 8q0 26 26 54q21 24 47.5 36.5t26.5 129.5q0 47 -4.5 109t-4.5 57q0 84 9 120q16 62 66 95q11 8 105 38t105 30q21 0 81 -59z" />
    <glyph glyph-name="yen" unicode="&#xa5;" horiz-adv-x="489" 
d="M91 302h115l-1 30q-109 285 -118 285q-51 0 -51 -43q0 -27 47 -46q-16 -34 -28 -34q-55 0 -57 68q0 30 27 53q15 12 60 35t65 40l129 -313q15 18 51.5 91.5t56.5 128.5q-14 34 -48 44q11 3 38.5 19.5t36.5 27.5q28 -25 73 -45q-10 -4 -64 -46q-24 -54 -82 -162
q-26 -49 -52 -97l-1 -36h123v-27h-123v-43h123v-27h-123v-111q7 -27 40 -44q-39 -14 -76 -61q-44 44 -91 60q36 16 46 45l-1 111h-115v27h115v43h-115v27zM386 601z" />
    <glyph glyph-name="mu" unicode="&#xb5;" horiz-adv-x="439" 
d="M381 547q0 -27 -17 -54q-20 -31 -47 -31t-42.5 16.5t-15.5 40.5q0 18 33.5 46t33.5 47q0 26 -40 45q-31 14 -51 14q-51 0 -78 -36q-22 -32 -18 -77l20 -238l144 76v-41l-144 -76v-13q0 -38 -36 -86q-38 -51 -90 -72q32 45 28 103l-1 16l-59 -30v41l56 29l-16 232
q-5 72 48.5 130.5t130.5 58.5q61 0 109 -39q52 -41 52 -102zM414 169q-2 -85 -61 -136q-53 -45 -127 -45q-46 0 -102.5 26.5t-80.5 26.5q-15 0 -25.5 -14.5t-18.5 -27.5l-1.5 2.5t-1.5 5.5q0 53 58 86q45 26 87 26q41 0 99 -25t88 -25q62 0 73 102q1 -3 7 -2h6z" />
    <glyph glyph-name="mu" unicode="&#x3bc;" horiz-adv-x="439" 
d="M381 547q0 -27 -17 -54q-20 -31 -47 -31t-42.5 16.5t-15.5 40.5q0 18 33.5 46t33.5 47q0 26 -40 45q-31 14 -51 14q-51 0 -78 -36q-22 -32 -18 -77l20 -238l144 76v-41l-144 -76v-13q0 -38 -36 -86q-38 -51 -90 -72q32 45 28 103l-1 16l-59 -30v41l56 29l-16 232
q-5 72 48.5 130.5t130.5 58.5q61 0 109 -39q52 -41 52 -102zM414 169q-2 -85 -61 -136q-53 -45 -127 -45q-46 0 -102.5 26.5t-80.5 26.5q-15 0 -25.5 -14.5t-18.5 -27.5l-1.5 2.5t-1.5 5.5q0 53 58 86q45 26 87 26q41 0 99 -25t88 -25q62 0 73 102q1 -3 7 -2h6z" />
    <glyph glyph-name="ordfeminine" unicode="&#xaa;" horiz-adv-x="467" 
d="M406 192q0 -198 -188 -205q-51 -2 -91 17q-19 8 -56 35q-26 20 -43 19q-16 -1 -26 -15l-12 -22q-3 2 -7.5 2.5t-4.5 2.5q3 38 50 63q36 20 64 20q44 0 77 -26q18 -14 44 -48q20 -26 30 -26q38 0 54 72q11 52 8 93l-6 84q-5 52 -23 78q-24 35 -72 35q-31 0 -57 -30
q-21 -24 -27 -51q-3 -2 -8 0q-6 3 -8 2q-2 16 21.5 47.5t46.5 39.5q-19 15 -34 32l11 11q14 -12 28 -23.5t45 -9.5q59 2 59 114q0 173 -86 173q-32 0 -66 -19q-41 -24 -41 -60q0 -24 34.5 -39.5t34.5 -46.5q0 -21 -13 -34.5t-31 -13.5q-32 0 -50 34q-14 26 -14 51
q0 75 53 114q44 32 107 32q73 0 125 -59q48 -55 48 -119q0 -41 -19 -76q-23 -43 -69 -61q112 -53 112 -187zM199 770q24 11 95 37l9 -8l-100 -79l-2 -3l-1 1l-2 -1l-2 3l-99 79l9 11q35 -16 93 -40z" />
    <glyph glyph-name="ordmasculine" unicode="&#xba;" horiz-adv-x="320" 
d="M280 40q0 -81 -29 -141q-39 -78 -112 -78q-54 0 -92 70q-33 60 -33 118q0 56 25 101q17 29 64 82l17 -2q-24 -29 -42 -84q-16 -51 -16 -83q0 -56 14 -108q21 -75 63 -75q24 3 35 60q8 42 5 78q2 31 2 66q0 196 -66 196q-12 0 -27 -13q-11 -10 -23 -21l-10 9q30 30 61 60
q41 41 41 69q0 100 -55 100q-8 0 -15 -2t-51 -41l-9 15q91 91 123 91q30 0 53.5 -32.5t23.5 -63.5q0 -52 -30 -90q-19 -25 -73 -66q78 2 121 -71q35 -60 35 -144zM139 588q20 13 79 39l8 -15l-83 -66l-2 -3l-1 1l-1 -1l-2 3l-83 66l8 15q22 -8 46 -22.5t31 -16.5z" />
    <glyph glyph-name="ae" unicode="&#xe6;" horiz-adv-x="496" 
d="M212 409q-36 46 -54 46q-7 0 -23.5 -7.5t-16.5 -13t-1 -16.5t-1 -16v-307q-1 -15 9.5 -30t24.5 -15q5 0 11 3q52 31 52 109q0 8 -1 15q0 8 0 7v225zM457 413q0 -94 -147 -151v-182q9 -31 22 -31q9 0 18 6l1 -13q-2 -3 -6 -5h1q28 -1 55 35q21 26 33 61l19 -2
q-42 -113 -108 -113h-23q-32 0 -60 19q-30 16 -43 46q-37 -63 -96 -63t-82 45q-16 33 -16 99l2 158q1 90 42 115q55 34 162 75q21 -25 53 -45q19 10 59 27q13 6 26 13q17 7 28 7q19 0 41 -41q19 -38 19 -60zM381 372q0 17 -17 57q-19 44 -32 44q-8 0 -14 -25l4 -2
q-2 -4 -7 -12q-3 -22 -3 -37v-119q69 19 69 94z" />
    <glyph glyph-name="oslash" unicode="&#xf8;" horiz-adv-x="374" 
d="M123 191l102 192q-9 74 -75 74q-16 0 -27 -12v-237v-17zM227 331l-102 -193q8 -69 69 -69q33 0 33 44v218zM297 520h30l-30 -56q21 -26 21 -47v-238q0 -55 -25 -82q-17 -17 -72 -42q-91 -41 -98 -39q-26 6 -49 26l-23 -43h-29l33 62q-32 39 -30 59v236q0 65 64 97
q19 10 79 32q57 20 61 20q23 0 49 -21z" />
    <glyph glyph-name="questiondown" unicode="&#xbf;" horiz-adv-x="385" 
d="M197 360q0 -48 -13 -75q-1 -1 -48 -73q-37 -57 -37 -168q0 -48 25 -79q23 -27 89 -67q40 18 62 55q20 32 20 65q0 70 -78 106l5 64q104 -58 105 -156q0 -56 -45 -109q-27 -32 -104 -94l-10 3q-105 72 -127 98q-30 38 -33 117q-2 61 42 129q15 25 81 104q44 54 44 79z
M186 535q24 -40 59 -68q-27 -22 -35 -31q-14 -14 -27 -40q-11 30 -21 41q-12 16 -41 31q42 16 65 67z" />
    <glyph glyph-name="exclamdown" unicode="&#xa1;" horiz-adv-x="166" 
d="M-16 -85q21 17 26 45l20 193q3 40 6 76q10 87 22 139q0 2 4 2q3 0 4 -2q22 -75 33 -215l20 -193q4 -25 23 -44q-35 -12 -81 -78q-26 47 -77 77zM62 529q19 -32 50 -57q-32 -25 -50 -61q-17 42 -54 61q34 13 54 57z" />
    <glyph glyph-name="logicalnot" unicode="&#xac;" 
 />
    <glyph glyph-name="florin" unicode="&#x192;" 
 />
    <glyph glyph-name="guillemotleft" unicode="&#xab;" horiz-adv-x="328" 
d="M282 389l-98 -161l95 -153l-12 -14l-143 167q-3 2 145 178zM163 389l-98 -161l95 -153l-12 -14l-143 167q-3 2 145 178z" />
    <glyph glyph-name="guillemotright" unicode="&#xbb;" horiz-adv-x="328" 
d="M5 389l97 -161l-95 -153l12 -14l144 167q3 2 -146 178zM124 389l97 -161l-95 -153l12 -14l144 167q3 2 -146 178z" />
    <glyph glyph-name="ellipsis" unicode="&#x2026;" horiz-adv-x="651" 
d="M549 -5q-24 40 -59 68q27 22 36 30q13 15 26 40q12 -29 21 -40q12 -16 41 -31q-42 -16 -65 -67zM109 -5q-24 40 -59 68q27 22 36 30q13 15 26 40q12 -29 21 -40q12 -16 41 -31q-42 -16 -65 -67zM329 -5q-24 40 -59 68q27 22 36 30q13 15 26 40q12 -29 21 -40
q12 -16 41 -31q-42 -16 -65 -67z" />
    <glyph glyph-name="nonbreakingspace" unicode="&#xa0;" horiz-adv-x="191" 
 />
    <glyph glyph-name="Agrave" unicode="&#xc0;" horiz-adv-x="524" 
d="M521 58q-10 -72 -89 -72q-48 0 -75.5 28.5t-27.5 75.5v27q-16 -57 -69 -97t-116 -40q-52 0 -94 31q-46 34 -46 84q0 37 24.5 73.5t59.5 43.5q-1 -6 -6 -20.5t-5 -25.5q0 -55 31 -97q34 -47 88 -47q56 0 96 58q37 52 37 110v141l-118 1q-4 -110 -11 -138q-19 -68 -89 -104
q8 14 8 124q0 34 -9 100.5t-9 100.5q0 117 51 177q38 45 156 104q51 -35 70 -46q38 -20 78 -28q-9 -14 -29 -53l1 -495q0 -64 43 -64q16 0 25 19l12 32zM330 502q0 64 -22 84q-50 45 -76 45q-15 0 -25 -24q-8 -19 -8 -36v-95l12 -120l118 -1q0 23 1 74v73zM237 822
q-9 5 -24 5q-29 0 -29 -41q0 -28 32 -29q38 -10 155 -46l7 15l-139 99z" />
    <glyph glyph-name="Atilde" unicode="&#xc3;" horiz-adv-x="524" 
d="M521 58q-10 -72 -89 -72q-48 0 -75.5 28.5t-27.5 75.5v27q-16 -57 -69 -97t-116 -40q-52 0 -94 31q-46 34 -46 84q0 37 24.5 73.5t59.5 43.5q-1 -6 -6 -20.5t-5 -25.5q0 -55 31 -97q34 -47 88 -47q56 0 96 58q37 52 37 110v141l-118 1q-4 -110 -11 -138q-19 -68 -89 -104
q8 14 8 124q0 34 -9 100.5t-9 100.5q0 117 51 177q38 45 156 104q51 -35 70 -46q38 -20 78 -28q-9 -14 -29 -53l1 -495q0 -64 43 -64q16 0 25 19l12 32zM330 502q0 64 -22 84q-50 45 -76 45q-15 0 -25 -24q-8 -19 -8 -36v-95l12 -120l118 -1q0 23 1 74v73zM435 790
q-31 -66 -81 -66q-21 0 -60 16.5t-60 16.5q-34 0 -57 -29q-3 5 -8.5 5.5t-7.5 2.5q29 69 96 69q20 0 54.5 -15.5t52.5 -15.5q28 0 59 26z" />
    <glyph glyph-name="Otilde" unicode="&#xd5;" horiz-adv-x="513" 
d="M201 -15q-56 0 -116.5 31t-76.5 31q-23 0 -33 -9q-11 -13 -21 -27l-2 8q0 26 26 54q21 24 47.5 36.5t26.5 129.5q0 47 -4.5 109t-4.5 57q0 84 9 120q16 62 66 95q11 8 105 38t105 30t49 -31q35 -28 44 -41q24 -36 28 -82q1 -9 1 -88l1 -233q0 -78 -86 -153t-164 -75z
M353 515q0 35 -52.5 75t-89.5 40q-62 0 -62 -166q0 -37 3.5 -90t3.5 -60q0 -74 -20 -115q-21 -44 -82 -84q17 3 31 3q26 0 66 -17q5 -2 72 -37q51 -28 68 -28q62 0 62 128v351zM385 790q-31 -66 -81 -66q-21 0 -60 16.5t-60 16.5q-34 0 -57 -29q-3 5 -8.5 5.5t-7.5 2.5
q29 69 96 69q20 0 54.5 -15.5t52.5 -15.5q28 0 59 26z" />
    <glyph glyph-name="OE" unicode="&#x152;" horiz-adv-x="864" 
d="M353 265q-5 53 0 108v142q0 35 -52.5 75t-89.5 40q-62 0 -62 -166q0 -37 3.5 -90t3.5 -60q0 -74 -20 -115q-21 -44 -82 -84q17 3 31 3q26 0 66 -17q5 -2 72 -37q51 -28 68 -28q62 0 62 128v101zM804 193q0 -79 -66 -141t-145 -62q-123 0 -189 110q-40 -49 -97.5 -82
t-105.5 -33q-56 0 -116.5 31t-76.5 31q-23 0 -33 -9q-11 -13 -21 -27l-2 8q0 26 26 54q21 24 47.5 36.5t26.5 129.5q0 47 -4.5 109t-4.5 57q0 84 9 120q16 62 66 95q11 8 105 38t105 30t49 -31q35 -28 44 -41q6 -9 10 -18q42 56 96 77q4 -1 9 -2v-10q-11 -6 -22.5 -13.5
t-22.5 -23.5q-18 -26 -29 -136q-9 -97 -6 -155q6 -132 29 -179q38 -77 150 -77q62 0 100 33q28 25 59 86q0 -2 5 -2t5 -3zM813 657q-15 -25 -40 -43q-29 -20 -56 -20q-21 0 -36 10t-30 21l-6 -12q-1 -13 0 -41v-136q41 40 73 40q41 0 64 -30.5t23 -73.5q0 -22 -20 -38.5
t-41 -16.5q-25 0 -38.5 17.5t-13.5 43.5q0 20 18 42t18 26q0 7 -21 7q-62 0 -62 -124q0 -153 -97 -153q-59 0 -71 65l10 10q1 -13 12 -31q13 -22 25 -21q23 11 23 71q0 13 -2 65.5t-2 85.5q0 175 51 199q15 8 45 20q14 5 48 22q30 15 50 19q20 -32 38 -32q8 0 17 5.5
t16 10.5z" />
    <glyph glyph-name="oe" unicode="&#x153;" horiz-adv-x="511" 
d="M391 358q0 17 -17 57q-19 44 -32 44q-10 0 -16 -34q-4 -24 -4 -42v-119q69 19 69 94zM243 51q-7 -3 -22 -10q-91 -41 -98 -39q-41 10 -73 51q-27 36 -25 53v236q0 65 64 97q19 10 79 32q57 20 61 20q34 0 66 -37q19 10 58 26q13 6 26 13q17 7 28 7q19 0 41 -41
q19 -38 19 -60q0 -94 -147 -151v-183q0 -42 36 -42q28 0 55 35q21 26 33 61l19 -2q-42 -113 -108 -113h-23q-55 1 -89 47zM224 360q-5 83 -74 83q-14 0 -25 -13l-2 -236v-19q-1 -13 -1 -22q0 -98 72 -98q28 0 32 31q-3 11 -3 22q0 36 1 106v106v40z" />
    <glyph glyph-name="endash" unicode="&#x2013;" horiz-adv-x="388" 
d="M20 231q0 3 -21 -43h352l17 43q-348 -2 -348 0z" />
    <glyph glyph-name="emdash" unicode="&#x2014;" horiz-adv-x="752" 
d="M708 231l-17 -43h-686l15 43h688z" />
    <glyph glyph-name="quotedblleft" unicode="&#x201c;" horiz-adv-x="331" 
d="M57 591l23 43l7 52l25 -3q0 -42 -21 -84q16 -22 44 -44q-36 -29 -59 -73q-20 50 -65 74q26 10 46 35zM217 591l23 43l7 52l25 -3q0 -42 -21 -84q16 -22 44 -44q-36 -29 -59 -73q-20 50 -65 74q26 10 46 35z" />
    <glyph glyph-name="quotedblright" unicode="&#x201d;" horiz-adv-x="331" 
d="M249 577l-23 -43l-7 -52l-25 3q0 42 20 84q-15 21 -43 44q35 28 58 73q20 -50 66 -74q-27 -10 -46 -35zM89 577l-23 -43l-7 -52l-25 3q0 42 20 84q-15 21 -43 44q35 28 58 73q20 -50 66 -74q-27 -10 -46 -35z" />
    <glyph glyph-name="quoteleft" unicode="&#x2018;" horiz-adv-x="152" 
d="M67 601l23 43l7 52l25 -3q0 -42 -21 -84q16 -22 44 -44q-36 -29 -59 -73q-20 50 -65 74q26 10 46 35z" />
    <glyph glyph-name="quoteright" unicode="&#x2019;" horiz-adv-x="169" 
d="M99 587l-23 -43l-7 -52l-27 2q0 40 22 85q-15 21 -43 44q35 28 58 73q20 -50 66 -74q-27 -10 -46 -35z" />
    <glyph glyph-name="divide" unicode="&#xf7;" 
 />
    <glyph glyph-name="ydieresis" unicode="&#xff;" horiz-adv-x="384" 
d="M324 66q0 -94 -52 -155q-50 -57 -167 -106l-10 12q75 26 110 99q28 57 28 129v229q0 10 1 40.5t1 48.5q0 107 -42 107q-19 0 -42 -29t-23 -45q0 -61 1 -181t1 -180q0 -14 13 -14q4 0 6 1t13 18q7 -4 10 -4q-3 -29 -50 -33q-40 -3 -64.5 21t-22.5 57v247q0 65 -15 84
q-8 5 -24 12q-4 6 29.5 37.5t37.5 31.5q20 0 41 -16t28 -35q11 17 43 42q32 13 51 13q23 0 60 -24l2 -2q36 -23 36 -67v-338zM187 578q0 18 12 31t29 13q18 0 30 -13t12 -31t-12 -30.5t-30 -12.5q-17 0 -29 12.5t-12 30.5zM57 578q0 18 12 31t29 13q18 0 30 -13t12 -31
t-12 -30.5t-30 -12.5q-17 0 -29 12.5t-12 30.5z" />
    <glyph glyph-name="Ydieresis" unicode="&#x178;" horiz-adv-x="531" 
d="M563 599q0 -22 -46 -50q-25 -15 -50 -29q-11 -15 -15 -43l-4 -42l22 -358q0 -142 -42 -207q-55 -84 -195 -84q-49 0 -92 31q-49 35 -49 87q0 29 19.5 55.5t46.5 26.5q23 0 42.5 -21t19.5 -46q0 -32 -17 -44q-4 -3 -32 -13q-18 -6 -18 -21q0 -22 43 -32q26 -6 47 -6
q127 0 127 189l-17 308q0 183 104 224q-16 8 -32 17q-22 12 -39 32l-28 50q-18 30 -40 30q-32 0 -59.5 -44.5t-27.5 -78.5v-208q0 -75 -12 -105q-21 -54 -101 -115q13 23 17 115v311q0 119 -73 119q-24 0 -35.5 -13t-23.5 -26q-3 3 -11 4q32 75 126 68q32 -3 64 -34
q29 -29 42 -63q38 106 159 106q43 0 73 -29q12 -13 37 -54q18 -30 33 -30t29 31q6 -3 8 -8zM329 122q0 -5 -14 -30q-20 -37 -66 -64t-82 -27h-23q-36 -2 -73 28.5t-39 71.5q-3 79 69 125q-9 -35 -9 -54q0 -49 35 -87t80 -38q37 0 65 21q20 15 35 39q12 21 11 21zM317 764
q0 18 12 31t29 13q18 0 30 -13t12 -31t-12 -30.5t-30 -12.5q-17 0 -29 12.5t-12 30.5zM187 764q0 18 12 31t29 13q18 0 30 -13t12 -31t-12 -30.5t-30 -12.5q-17 0 -29 12.5t-12 30.5z" />
    <glyph glyph-name="currency" unicode="&#xa4;" 
 />
    <glyph glyph-name="guilsinglleft" unicode="&#x2039;" horiz-adv-x="217" 
d="M163 389l-98 -161l95 -153l-12 -14l-143 167q-3 2 145 178z" />
    <glyph glyph-name="guilsinglright" unicode="&#x203a;" horiz-adv-x="214" 
d="M5 389l97 -161l-95 -153l12 -14l144 167q3 2 -146 178z" />
    <glyph glyph-name="daggerdbl" unicode="&#x2021;" horiz-adv-x="384" 
d="M163 474q-29 -2 -56 -16.5t-35 -14.5q-58 0 -58 43q0 45 58 45q8 0 33.5 -14.5t58.5 -16.5q-1 25 -18.5 71t-17.5 65q0 18 11.5 33.5t32.5 15.5q45 0 45 -49q0 -19 -17.5 -64.5t-18.5 -71.5q33 2 58.5 16.5t32.5 14.5q59 0 59 -45q0 -43 -59 -43q-10 0 -41 19
q-15 9 -50 13q3 -84 45 -140q-42 -55 -45 -139q31 2 57.5 16.5t33.5 14.5q59 0 59 -44t-59 -44q-7 0 -33.5 15t-57.5 17q1 -26 18.5 -72t17.5 -65q0 -18 -11 -32q-12 -17 -34 -17q-44 0 -44 49q0 18 17.5 64t18.5 73q-30 -2 -56.5 -17t-35.5 -15q-58 0 -58 44t58 44
q8 0 34.5 -14.5t56.5 -16.5q-3 84 -45 139q42 58 45 139z" />
    <glyph glyph-name="periodcentered" unicode="&#xb7;" horiz-adv-x="187" 
d="M80 295q-23 38 -60 68q37 30 59 73q20 -50 66 -74q-42 -16 -65 -67z" />
    <glyph glyph-name="periodcentered" unicode="&#x2219;" horiz-adv-x="187" 
d="M80 295q-23 38 -60 68q37 30 59 73q20 -50 66 -74q-42 -16 -65 -67z" />
    <glyph glyph-name="quotesinglbase" unicode="&#x201a;" horiz-adv-x="167" 
d="M89 17l-23 -43l-7 -52l-25 3q0 42 20 84q-15 21 -43 44q35 28 58 73q20 -50 66 -74q-27 -10 -46 -35z" />
    <glyph glyph-name="quotedblbase" unicode="&#x201e;" horiz-adv-x="331" 
d="M249 17l-23 -43l-7 -52l-25 3q0 42 20 84q-15 21 -43 44q35 28 58 73q20 -50 66 -74q-27 -10 -46 -35zM89 17l-23 -43l-7 -52l-25 3q0 42 20 84q-15 21 -43 44q35 28 58 73q20 -50 66 -74q-27 -10 -46 -35z" />
    <glyph glyph-name="Acircumflex" unicode="&#xc2;" horiz-adv-x="524" 
d="M521 58q-10 -72 -89 -72q-48 0 -75.5 28.5t-27.5 75.5v27q-16 -57 -69 -97t-116 -40q-52 0 -94 31q-46 34 -46 84q0 37 24.5 73.5t59.5 43.5q-1 -6 -6 -20.5t-5 -25.5q0 -55 31 -97q34 -47 88 -47q56 0 96 58q37 52 37 110v141l-118 1q-4 -110 -11 -138q-19 -68 -89 -104
q8 14 8 124q0 34 -9 100.5t-9 100.5q0 117 51 177q38 45 156 104q51 -35 70 -46q38 -20 78 -28q-9 -14 -29 -53l1 -495q0 -64 43 -64q16 0 25 19l12 32zM330 502q0 64 -22 84q-50 45 -76 45q-15 0 -25 -24q-8 -19 -8 -36v-95l12 -120l118 -1q0 23 1 74v73zM301 764
q-25 -12 -98 -39l-6 10l99 79l2 3l2 -1l1 1l2 -3l100 -79l-7 -13q-27 9 -57 24t-38 18z" />
    <glyph glyph-name="Ecircumflex" unicode="&#xca;" horiz-adv-x="490" 
d="M444 193q0 -79 -66 -141t-145 -62q-118 0 -184 101q-58 91 -58 228q0 121 46 219q49 106 130 137q4 -1 9 -2v-10q-11 -6 -22.5 -13.5t-22.5 -23.5q-18 -26 -29 -136q-9 -97 -6 -155q6 -132 29 -179q38 -77 150 -77q62 0 100 33q28 25 59 86q0 -2 5 -2t5 -3zM453 657
q-15 -25 -40 -43q-29 -20 -56 -20q-21 0 -36 10t-30 21l-6 -12q-1 -13 0 -41v-136q41 40 73 40q41 0 64 -30.5t23 -73.5q0 -22 -20 -38.5t-41 -16.5q-25 0 -38.5 17.5t-13.5 43.5q0 20 18 42t18 26q0 7 -21 7q-62 0 -62 -124q0 -153 -97 -153q-59 0 -71 65l10 10
q1 -13 12 -31q13 -22 25 -21q23 11 23 71q0 13 -2 65.5t-2 85.5q0 175 51 199q15 8 45 20q14 5 48 22q30 15 50 19q20 -32 38 -32q8 0 17 5.5t16 10.5zM251 764q-25 -12 -98 -39l-6 10l99 79l2 3l2 -1l1 1l2 -3l100 -79l-7 -13q-27 9 -57 24t-38 18z" />
    <glyph glyph-name="Aacute" unicode="&#xc1;" horiz-adv-x="524" 
d="M521 58q-10 -72 -89 -72q-48 0 -75.5 28.5t-27.5 75.5v27q-16 -57 -69 -97t-116 -40q-52 0 -94 31q-46 34 -46 84q0 37 24.5 73.5t59.5 43.5q-1 -6 -6 -20.5t-5 -25.5q0 -55 31 -97q34 -47 88 -47q56 0 96 58q37 52 37 110v141l-118 1q-4 -110 -11 -138q-19 -68 -89 -104
q8 14 8 124q0 34 -9 100.5t-9 100.5q0 117 51 177q38 45 156 104q51 -35 70 -46q38 -20 78 -28q-9 -14 -29 -53l1 -495q0 -64 43 -64q16 0 25 19l12 32zM330 502q0 64 -22 84q-50 45 -76 45q-15 0 -25 -24q-8 -19 -8 -36v-95l12 -120l118 -1q0 23 1 74v73zM339 822q9 5 23 5
q29 0 29 -41q0 -28 -31 -29q-39 -10 -156 -46l-7 15l140 99z" />
    <glyph glyph-name="Edieresis" unicode="&#xcb;" horiz-adv-x="490" 
d="M444 193q0 -79 -66 -141t-145 -62q-118 0 -184 101q-58 91 -58 228q0 121 46 219q49 106 130 137q4 -1 9 -2v-10q-11 -6 -22.5 -13.5t-22.5 -23.5q-18 -26 -29 -136q-9 -97 -6 -155q6 -132 29 -179q38 -77 150 -77q62 0 100 33q28 25 59 86q0 -2 5 -2t5 -3zM453 657
q-15 -25 -40 -43q-29 -20 -56 -20q-21 0 -36 10t-30 21l-6 -12q-1 -13 0 -41v-136q41 40 73 40q41 0 64 -30.5t23 -73.5q0 -22 -20 -38.5t-41 -16.5q-25 0 -38.5 17.5t-13.5 43.5q0 20 18 42t18 26q0 7 -21 7q-62 0 -62 -124q0 -153 -97 -153q-59 0 -71 65l10 10
q1 -13 12 -31q13 -22 25 -21q23 11 23 71q0 13 -2 65.5t-2 85.5q0 175 51 199q15 8 45 20q14 5 48 22q30 15 50 19q20 -32 38 -32q8 0 17 5.5t16 10.5zM287 764q0 18 12 31t29 13q18 0 30 -13t12 -31t-12 -30.5t-30 -12.5q-17 0 -29 12.5t-12 30.5zM157 764q0 18 12 31
t29 13q18 0 30 -13t12 -31t-12 -30.5t-30 -12.5q-17 0 -29 12.5t-12 30.5z" />
    <glyph glyph-name="Egrave" unicode="&#xc8;" horiz-adv-x="490" 
d="M444 193q0 -79 -66 -141t-145 -62q-118 0 -184 101q-58 91 -58 228q0 121 46 219q49 106 130 137q4 -1 9 -2v-10q-11 -6 -22.5 -13.5t-22.5 -23.5q-18 -26 -29 -136q-9 -97 -6 -155q6 -132 29 -179q38 -77 150 -77q62 0 100 33q28 25 59 86q0 -2 5 -2t5 -3zM453 657
q-15 -25 -40 -43q-29 -20 -56 -20q-21 0 -36 10t-30 21l-6 -12q-1 -13 0 -41v-136q41 40 73 40q41 0 64 -30.5t23 -73.5q0 -22 -20 -38.5t-41 -16.5q-25 0 -38.5 17.5t-13.5 43.5q0 20 18 42t18 26q0 7 -21 7q-62 0 -62 -124q0 -153 -97 -153q-59 0 -71 65l10 10
q1 -13 12 -31q13 -22 25 -21q23 11 23 71q0 13 -2 65.5t-2 85.5q0 175 51 199q15 8 45 20q14 5 48 22q30 15 50 19q20 -32 38 -32q8 0 17 5.5t16 10.5zM194 827h-21q-29 0 -29 -41q0 -28 32 -29q38 -10 155 -46l7 15z" />
    <glyph glyph-name="Iacute" unicode="&#xcd;" horiz-adv-x="423" 
d="M397 613q-43 -28 -43 -76q0 -62 8 -187t8 -187q0 -74 -64 -125q-59 -47 -135 -47q-74 0 -123 45q-52 47 -52 121q0 38 15 67q18 38 53 38q23 0 41.5 -17t18.5 -40q0 -33 -24 -48q-23 -10 -45 -19q-25 -11 -25 -31q0 -42 45 -70q39 -25 83 -25q116 0 116 209q0 17 -14 194
q-4 48 43.5 124t89.5 81zM372 634q-25 -33 -75 -50q-38 -13 -73 -13q-23 0 -73.5 21.5t-73.5 21.5q-57 0 -65 -76l-12 7q8 41 26 71q44 70 134 72q42 1 90 -25q25 -15 51 -29q7 -1 13 -1q12 0 26 4q20 5 23 6q1 -1 5 -4.5t4 -4.5zM259 822q9 5 23 5q29 0 29 -41
q0 -28 -31 -29q-39 -10 -156 -46l-7 15l140 99z" />
    <glyph glyph-name="Icircumflex" unicode="&#xce;" horiz-adv-x="423" 
d="M397 613q-43 -28 -43 -76q0 -62 8 -187t8 -187q0 -74 -64 -125q-59 -47 -135 -47q-74 0 -123 45q-52 47 -52 121q0 38 15 67q18 38 53 38q23 0 41.5 -17t18.5 -40q0 -33 -24 -48q-23 -10 -45 -19q-25 -11 -25 -31q0 -42 45 -70q39 -25 83 -25q116 0 116 209q0 17 -14 194
q-4 48 43.5 124t89.5 81zM372 634q-25 -33 -75 -50q-38 -13 -73 -13q-23 0 -73.5 21.5t-73.5 21.5q-57 0 -65 -76l-12 7q8 41 26 71q44 70 134 72q42 1 90 -25q25 -15 51 -29q7 -1 13 -1q12 0 26 4q20 5 23 6q1 -1 5 -4.5t4 -4.5zM211 764q-25 -12 -98 -39l-6 10l99 79l2 3
l2 -1l1 1l2 -3l100 -79l-7 -13q-27 9 -57 24t-38 18z" />
    <glyph glyph-name="Idieresis" unicode="&#xcf;" horiz-adv-x="423" 
d="M397 613q-43 -28 -43 -76q0 -62 8 -187t8 -187q0 -74 -64 -125q-59 -47 -135 -47q-74 0 -123 45q-52 47 -52 121q0 38 15 67q18 38 53 38q23 0 41.5 -17t18.5 -40q0 -33 -24 -48q-23 -10 -45 -19q-25 -11 -25 -31q0 -42 45 -70q39 -25 83 -25q116 0 116 209q0 17 -14 194
q-4 48 43.5 124t89.5 81zM372 634q-25 -33 -75 -50q-38 -13 -73 -13q-23 0 -73.5 21.5t-73.5 21.5q-57 0 -65 -76l-12 7q8 41 26 71q44 70 134 72q42 1 90 -25q25 -15 51 -29q7 -1 13 -1q12 0 26 4q20 5 23 6q1 -1 5 -4.5t4 -4.5zM237 764q0 18 12 31t29 13q18 0 30 -13
t12 -31t-12 -30.5t-30 -12.5q-17 0 -29 12.5t-12 30.5zM107 764q0 18 12 31t29 13q18 0 30 -13t12 -31t-12 -30.5t-30 -12.5q-17 0 -29 12.5t-12 30.5z" />
    <glyph glyph-name="Igrave" unicode="&#xcc;" horiz-adv-x="423" 
d="M397 613q-43 -28 -43 -76q0 -62 8 -187t8 -187q0 -74 -64 -125q-59 -47 -135 -47q-74 0 -123 45q-52 47 -52 121q0 38 15 67q18 38 53 38q23 0 41.5 -17t18.5 -40q0 -33 -24 -48q-23 -10 -45 -19q-25 -11 -25 -31q0 -42 45 -70q39 -25 83 -25q116 0 116 209q0 17 -14 194
q-4 48 43.5 124t89.5 81zM372 634q-25 -33 -75 -50q-38 -13 -73 -13q-23 0 -73.5 21.5t-73.5 21.5q-57 0 -65 -76l-12 7q8 41 26 71q44 70 134 72q42 1 90 -25q25 -15 51 -29q7 -1 13 -1q12 0 26 4q20 5 23 6q1 -1 5 -4.5t4 -4.5zM147 822q-9 5 -24 5q-29 0 -29 -41
q0 -28 32 -29q38 -10 155 -46l7 15l-139 99z" />
    <glyph glyph-name="Oacute" unicode="&#xd3;" horiz-adv-x="513" 
d="M201 -15q-56 0 -116.5 31t-76.5 31q-23 0 -33 -9q-11 -13 -21 -27l-2 8q0 26 26 54q21 24 47.5 36.5t26.5 129.5q0 47 -4.5 109t-4.5 57q0 84 9 120q16 62 66 95q11 8 105 38t105 30t49 -31q35 -28 44 -41q24 -36 28 -82q1 -9 1 -88l1 -233q0 -78 -86 -153t-164 -75z
M353 515q0 35 -52.5 75t-89.5 40q-62 0 -62 -166q0 -37 3.5 -90t3.5 -60q0 -74 -20 -115q-21 -44 -82 -84q17 3 31 3q26 0 66 -17q5 -2 72 -37q51 -28 68 -28q62 0 62 128v351zM289 822q9 5 23 5q29 0 29 -41q0 -28 -31 -29q-39 -10 -156 -46l-7 15l140 99z" />
    <glyph glyph-name="Ocircumflex" unicode="&#xd4;" horiz-adv-x="513" 
d="M201 -15q-56 0 -116.5 31t-76.5 31q-23 0 -33 -9q-11 -13 -21 -27l-2 8q0 26 26 54q21 24 47.5 36.5t26.5 129.5q0 47 -4.5 109t-4.5 57q0 84 9 120q16 62 66 95q11 8 105 38t105 30t49 -31q35 -28 44 -41q24 -36 28 -82q1 -9 1 -88l1 -233q0 -78 -86 -153t-164 -75z
M353 515q0 35 -52.5 75t-89.5 40q-62 0 -62 -166q0 -37 3.5 -90t3.5 -60q0 -74 -20 -115q-21 -44 -82 -84q17 3 31 3q26 0 66 -17q5 -2 72 -37q51 -28 68 -28q62 0 62 128v351zM251 764q-25 -12 -98 -39l-6 10l99 79l2 3l2 -1l1 1l2 -3l100 -79l-7 -13q-27 9 -57 24t-38 18z
" />
    <glyph glyph-name="Ograve" unicode="&#xd2;" horiz-adv-x="513" 
d="M201 -15q-56 0 -116.5 31t-76.5 31q-23 0 -33 -9q-11 -13 -21 -27l-2 8q0 26 26 54q21 24 47.5 36.5t26.5 129.5q0 47 -4.5 109t-4.5 57q0 84 9 120q16 62 66 95q11 8 105 38t105 30t49 -31q35 -28 44 -41q24 -36 28 -82q1 -9 1 -88l1 -233q0 -78 -86 -153t-164 -75z
M353 515q0 35 -52.5 75t-89.5 40q-62 0 -62 -166q0 -37 3.5 -90t3.5 -60q0 -74 -20 -115q-21 -44 -82 -84q17 3 31 3q26 0 66 -17q5 -2 72 -37q51 -28 68 -28q62 0 62 128v351zM197 822q-9 5 -24 5q-29 0 -29 -41q0 -28 32 -29q38 -10 155 -46l7 15l-139 99z" />
    <glyph glyph-name="Uacute" unicode="&#xda;" horiz-adv-x="528" 
d="M511 64q0 -36 -32 -57q-23 -15 -48 -15q-46 0 -73 36q-25 32 -25 80q-61 -72 -100.5 -96t-100.5 -24q-45 0 -84 27q-45 32 -45 86q0 42 24 81q27 43 68 51q-23 -22 -30 -67q-6 -44 29.5 -84.5t75.5 -40.5q18 0 51 9.5t45 18.5q53 41 69 95q10 31 10 92v289
q0 20 -12.5 41.5t-27.5 30.5q56 17 86 73q19 -22 38 -43q23 -24 50 -24q-41 -13 -41 -75v-446q0 -44 0 -36q2 -28 15 -37q7 -5 14 -5q16 0 23 19q1 7 6 21q3 -1 15 0zM214 340q0 -81 -17 -124q-25 -68 -99 -96q1 5 14 40q13 31 12 67v225q0 99 -6 128q-16 76 -76 76
q-25 0 -47 -38l-12 10q24 32 44 45q27 18 67 18q56 0 89 -43t32 -103zM299 822q9 5 23 5q29 0 29 -41q0 -28 -31 -29q-39 -10 -156 -46l-7 15l140 99z" />
    <glyph glyph-name="Ucircumflex" unicode="&#xdb;" horiz-adv-x="528" 
d="M511 64q0 -36 -32 -57q-23 -15 -48 -15q-46 0 -73 36q-25 32 -25 80q-61 -72 -100.5 -96t-100.5 -24q-45 0 -84 27q-45 32 -45 86q0 42 24 81q27 43 68 51q-23 -22 -30 -67q-6 -44 29.5 -84.5t75.5 -40.5q18 0 51 9.5t45 18.5q53 41 69 95q10 31 10 92v289
q0 20 -12.5 41.5t-27.5 30.5q56 17 86 73q19 -22 38 -43q23 -24 50 -24q-41 -13 -41 -75v-446q0 -44 0 -36q2 -28 15 -37q7 -5 14 -5q16 0 23 19q1 7 6 21q3 -1 15 0zM214 340q0 -81 -17 -124q-25 -68 -99 -96q1 5 14 40q13 31 12 67v225q0 99 -6 128q-16 76 -76 76
q-25 0 -47 -38l-12 10q24 32 44 45q27 18 67 18q56 0 89 -43t32 -103zM251 764q-25 -12 -98 -39l-6 10l99 79l2 3l2 -1l1 1l2 -3l100 -79l-7 -13q-27 9 -57 24t-38 18z" />
    <glyph glyph-name="Ugrave" unicode="&#xd9;" horiz-adv-x="528" 
d="M511 64q0 -36 -32 -57q-23 -15 -48 -15q-46 0 -73 36q-25 32 -25 80q-61 -72 -100.5 -96t-100.5 -24q-45 0 -84 27q-45 32 -45 86q0 42 24 81q27 43 68 51q-23 -22 -30 -67q-6 -44 29.5 -84.5t75.5 -40.5q18 0 51 9.5t45 18.5q53 41 69 95q10 31 10 92v289
q0 20 -12.5 41.5t-27.5 30.5q56 17 86 73q19 -22 38 -43q23 -24 50 -24q-41 -13 -41 -75v-446q0 -44 0 -36q2 -28 15 -37q7 -5 14 -5q16 0 23 19q1 7 6 21q3 -1 15 0zM214 340q0 -81 -17 -124q-25 -68 -99 -96q1 5 14 40q13 31 12 67v225q0 99 -6 128q-16 76 -76 76
q-25 0 -47 -38l-12 10q24 32 44 45q27 18 67 18q56 0 89 -43t32 -103zM197 822q-9 5 -24 5q-29 0 -29 -41q0 -28 32 -29q38 -10 155 -46l7 15l-139 99z" />
    <glyph glyph-name="circumflex" unicode="&#x2c6;" horiz-adv-x="218" 
d="M111 544q-20 -13 -79 -39l-8 15l83 66l2 3l1 -1l1 1l2 -3l83 -66l-8 -15q-23 8 -47 22.5t-30 16.5z" />
    <glyph glyph-name="tilde" unicode="&#x2dc;" horiz-adv-x="368" 
d="M294 579q-25 -53 -65 -53q-17 0 -49 13.5t-49 13.5q-27 0 -46 -24q-4 2 -13 7q24 55 78 55q16 0 44 -12.5t43 -12.5q22 0 47 21z" />
    <glyph glyph-name="macron" unicode="&#xaf;" horiz-adv-x="229" 
d="M194 520h-180v34h180v-34z" />
    <glyph glyph-name="macron" unicode="&#x2c9;" horiz-adv-x="229" 
d="M194 520h-180v34h180v-34z" />
    <glyph glyph-name="cedilla" unicode="&#xb8;" horiz-adv-x="242" 
d="M103 -173q-24 0 -46 15l8 35q19 -13 31 -13q26 0 26 33q0 30 -20 30q-7 0 -13 -3l-8 14l19 64h20l-11 -44q17 5 22 5q20 0 32 -22q9 -18 9 -39q0 -32 -19 -53.5t-50 -21.5z" />
    <glyph glyph-name="Scaron" unicode="&#x160;" 
 />
    <glyph glyph-name="scaron" unicode="&#x161;" 
 />
    <glyph glyph-name="brokenbar" unicode="&#xa6;" 
 />
    <glyph glyph-name="Eth" unicode="&#xd0;" 
 />
    <glyph glyph-name="eth" unicode="&#xf0;" 
 />
    <glyph glyph-name="Yacute" unicode="&#xdd;" 
 />
    <glyph glyph-name="yacute" unicode="&#xfd;" 
 />
    <glyph glyph-name="Thorn" unicode="&#xde;" 
 />
    <glyph glyph-name="thorn" unicode="&#xfe;" 
 />
    <glyph glyph-name="minus" unicode="&#xad;" 
 />
    <glyph glyph-name="minus" unicode="&#x2212;" 
 />
    <glyph glyph-name="multiply" unicode="&#xd7;" 
 />
    <glyph glyph-name="onesuperior" unicode="&#xb9;" 
 />
    <glyph glyph-name="twosuperior" unicode="&#xb2;" 
 />
    <glyph glyph-name="threesuperior" unicode="&#xb3;" 
 />
    <glyph glyph-name="onehalf" unicode="&#xbd;" 
 />
    <glyph glyph-name="onequarter" unicode="&#xbc;" 
 />
    <glyph glyph-name="threequarters" unicode="&#xbe;" 
 />
    <glyph glyph-name=".null" 
 />
    <glyph glyph-name="Lslash" unicode="&#x141;" 
 />
    <glyph glyph-name="lslash" unicode="&#x142;" 
 />
    <glyph glyph-name="HT" 
 />
    <glyph glyph-name="LF" 
 />
    <glyph glyph-name="nonmarkingreturn" 
 />
    <glyph glyph-name="Zcaron" unicode="&#x17d;" 
 />
    <glyph glyph-name="zcaron" unicode="&#x17e;" 
 />
    <glyph glyph-name="DLE" 
 />
    <glyph glyph-name="DC1" 
 />
    <glyph glyph-name="DC2" 
 />
    <glyph glyph-name="DC3" 
 />
    <glyph glyph-name="DC4" 
 />
    <glyph glyph-name="RS" 
 />
    <glyph glyph-name="US" 
 />
    <glyph glyph-name="partialdiff" unicode="&#x2202;" horiz-adv-x="193" 
d="M-14 269l38 19v301q0 33 1 37q5 20 33 38q78 48 113 63q6 3 7 -22q-13 5 -35.5 -29t-22.5 -52v-286l64 33v-41l-64 -33v-203v-29q3 -19 21 -19q6 0 14 2t21 24q2 1 10 -10q-13 -13 -26 -27q-18 -14 -46 -14t-53 15q-37 22 -37 67v144l-38 -19v41z" />
    <glyph glyph-name="summation" unicode="&#x2211;" horiz-adv-x="503" 
d="M453 190q1 -98 -72 -160q-68 -58 -162 -58q-99 0 -159 56t-60 158q0 36 27.5 69.5t62.5 33.5q28 0 47 -19t19 -47q0 -34 -29 -49q-28 -10 -55 -19q-29 -12 -29 -40q0 -48 65 -86q59 -34 111 -34q78 0 118.5 43.5t40.5 119.5q0 79 -93 123q-87 36 -173 72q-93 52 -93 150
q0 94 62 140q53 40 143 40q53 0 97 34l10 -39q27 -63 71 -63q6 0 12 1q-24 -48 -99 -48q-38 0 -61 22q-11 11 -27 41q-11 22 -23 22q-50 0 -81 -22q-35 -26 -36 -75q0 -64 94 -99q154 -56 176 -70q95 -64 96 -197zM239 770q24 11 95 37l9 -8l-100 -79l-2 -3l-1 1l-2 -1l-2 3
l-99 79l9 11q35 -16 93 -40z" />
    <glyph glyph-name="product" unicode="&#x220f;" horiz-adv-x="379" 
d="M325 179q1 -73 -46 -116t-115 -44q-59 -1 -103 36.5t-45 98.5q0 28 16 52q18 30 49 30q29 1 45 -21q13 -19 14 -44q0 -30 -39 -36.5t-38 -36.5q0 -35 42 -53q29 -12 58 -11q40 0 70 25q34 27 33 72q-1 54 -61 86q-55 26 -111 51q-59 35 -60 94q-1 50 27 81q22 24 70 40
t95 30l4.5 -18.5t18.5 -24.5q6 -3 21 -3q16 -1 21.5 2t11.5 10q2 2 8 3v-14q-6 -11 -24 -30q-29 -19 -56 -19q-47 0 -89 53q-33 -13 -43 -22q-13 -13 -13 -42q1 -31 62 -57q94 -40 114 -54q62 -44 63 -118zM189 588q20 13 79 39l8 -15l-83 -66l-2 -3l-1 1l-1 -1l-2 3l-83 66
l8 15q22 -8 46 -22.5t31 -16.5z" />
    <glyph glyph-name="pi" unicode="&#x3c0;" horiz-adv-x="552" 
d="M563 599q0 -22 -46 -50q-25 -15 -50 -29q-11 -15 -15 -43l-4 -42l22 -358q0 -142 -42 -207q-55 -84 -195 -84q-49 0 -92 31q-49 35 -49 87q0 29 19.5 55.5t46.5 26.5q23 0 42.5 -21t19.5 -46q0 -32 -17 -44q-4 -3 -32 -13q-18 -6 -18 -21q0 -22 43 -32q26 -6 47 -6
q127 0 127 189l-17 308q0 183 104 224q-16 8 -32 17q-22 12 -39 32l-28 50q-18 30 -40 30q-32 0 -59.5 -44.5t-27.5 -78.5v-208q0 -75 -12 -105q-21 -54 -101 -115q13 23 17 115v311q0 119 -73 119q-24 0 -35.5 -13t-23.5 -26q-3 3 -11 4q32 75 126 68q32 -3 64 -34
q29 -29 42 -63q38 106 159 106q43 0 73 -29q12 -13 37 -54q18 -30 33 -30t29 31q6 -3 8 -8zM329 122q0 -5 -14 -30q-20 -37 -66 -64t-82 -27h-23q-36 -2 -73 28.5t-39 71.5q-3 79 69 125q-9 -35 -9 -54q0 -49 35 -87t80 -38q37 0 65 21q20 15 35 39q12 21 11 21zM339 822
q9 5 23 5q29 0 29 -41q0 -28 -31 -29q-39 -10 -156 -46l-7 15l140 99z" />
    <glyph glyph-name="integral" unicode="&#x222b;" horiz-adv-x="384" 
d="M324 80q0 -94 -52 -155q-50 -57 -167 -106l-10 12q75 26 110 99q28 57 28 129v229q0 10 1 40.5t1 48.5q0 107 -42 107q-19 0 -42 -29t-23 -45q0 -61 1 -181t1 -180q0 -14 13 -14q4 0 6 1t13 18q7 -4 10 -4q-3 -29 -50 -33q-40 -3 -64.5 21t-22.5 57v247q0 65 -15 84
q-8 5 -24 12q-4 6 29.5 37.5t37.5 31.5q20 0 41 -16t28 -35q11 17 43 42q32 13 51 13q23 0 60 -24l2 -2q36 -23 36 -67v-338zM218 632q8 4 20 4q24 0 24 -34q0 -23 -26 -24q-32 -8 -130 -38l-6 13l117 82z" />
    <glyph glyph-name="Omega" unicode="&#x3a9;" horiz-adv-x="467" 
d="M42 337q0 19 1 39h-44v31h47q14 115 74.5 194t133.5 79q87 0 146 -152q-44 1 -32 -2q-19 56 -55 94q-34 35 -62 35q-42 0 -72 -62q-33 -67 -39 -186h141l-3 -34l-137 1q0 -6 1 -17v-18v-2h139v-34h-138q3 -142 35 -217q29 -68 75 -68q32 0 69 35q43 40 60 99h35
q-60 -163 -163 -163q-80 0 -142.5 92.5t-68.5 221.5h-44v34h43z" />
    <glyph glyph-name="Omega" unicode="&#x2126;" horiz-adv-x="467" 
d="M42 337q0 19 1 39h-44v31h47q14 115 74.5 194t133.5 79q87 0 146 -152q-44 1 -32 -2q-19 56 -55 94q-34 35 -62 35q-42 0 -72 -62q-33 -67 -39 -186h141l-3 -34l-137 1q0 -6 1 -17v-18v-2h139v-34h-138q3 -142 35 -217q29 -68 75 -68q32 0 69 35q43 40 60 99h35
q-60 -163 -163 -163q-80 0 -142.5 92.5t-68.5 221.5h-44v34h43z" />
    <glyph glyph-name="radical" unicode="&#x221a;" 
 />
    <glyph glyph-name="approxequal" unicode="&#x2248;" 
 />
    <glyph glyph-name="approxequal" unicode="&#x22f2;" 
 />
    <glyph glyph-name="Delta" unicode="&#x394;" 
 />
    <glyph glyph-name="Delta" unicode="&#x2206;" 
 />
    <glyph glyph-name="lozenge" unicode="&#x25ca;" 
 />
    <glyph glyph-name="fraction" unicode="&#x2044;" 
 />
    <glyph glyph-name="apple" unicode="&#xf000;" 
 />
    <glyph glyph-name="dotlessi" unicode="&#x131;" horiz-adv-x="196" 
d="M181 33q-31 -42 -70 -41q-78 3 -78 70v286q0 54 -28 72q23 12 48 42q10 14 21 27q46 -66 78 -66q-35 -25 -32 -72q2 -44 0 -289q-1 -35 20 -41q8 0 18.5 9.5t10.5 13.5q6 0 12 -11z" />
    <glyph glyph-name="breve" unicode="&#x2d8;" horiz-adv-x="241" 
d="M22 551q39 -52 86 -59q44 13 85 59q2 3 -13 13q-54 -33 -72 -31q-25 -4 -76 34z" />
    <glyph glyph-name="dotaccent" unicode="&#x2d9;" horiz-adv-x="166" 
d="M37 557q0 19 13 33t31 14q19 0 31.5 -14.5t12.5 -32.5q0 -20 -12.5 -34t-31.5 -14t-31.5 14t-12.5 34z" />
    <glyph glyph-name="ring" unicode="&#x2da;" horiz-adv-x="214" 
d="M103 598q20 0 34.5 -14t14.5 -34t-14.5 -34t-34.5 -14t-34.5 14t-14.5 34t14.5 34t34.5 14zM103 578q-29 0 -29 -28t29 -28t29 28t-29 28z" />
    <glyph glyph-name="hungarumlaut" unicode="&#x2dd;" horiz-adv-x="301" 
d="M66 492l-12 13l36 70q14 25 28 25q26 0 26 -33q0 -20 -31 -42zM156 492l-12 13l38 70q13 25 27 25q25 0 25 -33q0 -20 -31 -42z" />
    <glyph glyph-name="ogonek" unicode="&#x2db;" horiz-adv-x="206" 
d="M94 0l19 -2q-25 -37 -25 -92q0 -44 27 -44q18 0 42 20l8 -16q-29 -57 -65 -57q-26 0 -40 28q-11 22 -11 51q0 59 45 112z" />
    <glyph glyph-name="caron" unicode="&#x2c7;" horiz-adv-x="241" 
d="M109 560q20 13 79 39l8 -15l-83 -66l-2 -3l-1 1l-1 -1l-2 3l-83 66l8 15q22 -8 46 -22.5t31 -16.5z" />
    </font>
</defs>
</svg>
