<?xml version="1.0" standalone="no"?>
<!DOCTYPE svg PUBLIC "-//W3C//DTD SVG 1.1//EN" "http://www.w3.org/Graphics/SVG/1.1/DTD/svg11.dtd" >
<svg>
<metadata>
Created by FontForge 20120731 at Mon Apr 15 12:02:12 2019
 By www-data
Digitized by Dan X. Solo. Software (c) 1999 by Dover Publications, Inc., New York.
</metadata>
<defs>
<font id="Cimbrian" horiz-adv-x="20" >
  <font-face 
    font-family="Cimbrian"
    font-weight="400"
    font-stretch="normal"
    units-per-em="1000"
    panose-1="0 0 4 0 0 0 0 0 0 0"
    ascent="800"
    descent="-200"
    x-height="477"
    cap-height="748"
    bbox="-31 -265 1228 927"
    underline-thickness="20"
    underline-position="-123"
    unicode-range="U+0020-25CA"
  />
<missing-glyph horiz-adv-x="500" 
d="M63 0v800h375v-800h-375zM125 63h250v675h-250v-675z" />
    <glyph glyph-name=".notdef" horiz-adv-x="500" 
d="M63 0v800h375v-800h-375zM125 63h250v675h-250v-675z" />
    <glyph glyph-name="glyph1" horiz-adv-x="0" 
 />
    <glyph glyph-name="glyph2" horiz-adv-x="187" 
 />
    <glyph glyph-name="space" unicode=" " horiz-adv-x="187" 
 />
    <glyph glyph-name="exclam" unicode="!" horiz-adv-x="219" 
d="M135 186h-20l-35 370q-16 4 -38 34q53 38 86 88q25 -75 96 -85q-25 -23 -59 -39zM125 -2q-33 37 -69 68q37 35 69 74q27 -28 73 -68q-37 -28 -73 -74z" />
    <glyph glyph-name="quotedbl" unicode="&#x22;" horiz-adv-x="270" 
d="M88 417h-16l-20 114q-13 77 -13 111q0 46 40 46q41 0 41 -48q0 -36 -13 -110q-10 -56 -19 -113zM218 417h-16l-20 113q-12 71 -12 110q0 48 39 48q41 0 41 -46q0 -35 -13 -112z" />
    <glyph glyph-name="numbersign" unicode="#" horiz-adv-x="434" 
d="M403 355h-95l-22 -121h101l-9 -48h-101l-35 -185h-42l35 185h-94l-36 -185h-41l34 185h-98l9 48h98l23 121h-105l9 48h105l29 169h42l-29 -169h94l29 169h42l-29 -169h95zM172 355l-24 -121h97l22 121h-95z" />
    <glyph glyph-name="dollar" unicode="$" horiz-adv-x="397" 
d="M197 145q27 -16 44 -28q30 23 30 59q0 39 -18 70q-21 35 -56 38v-139zM176 445q-16 6 -33 6q-60 0 -60 -58q0 -25 22 -62q23 -40 46 -40q10 0 25 7v147zM360 439q-28 -68 -79 -68q-16 0 -39 23q-32 32 -45 41v-126q24 18 62 45q36 -6 61 -41t25 -73q0 -52 -50 -104
q-41 -43 -98 -72v-62h-21v65q-46 27 -143 75q-18 -9 -29 -6l-3 8l88 64q22 -12 87 -50v116l-74 -52q-73 49 -73 119q0 50 47 100q44 48 100 65v60h20l1 -55q9 1 17 1q31 0 68 -41t38 -42t15 -2l17 21z" />
    <glyph glyph-name="percent" unicode="%" horiz-adv-x="519" 
d="M154 290q-15 -10 -23 -10q-19 0 -50 22q-64 43 -64 132q0 43 37 94q39 55 82 55q45 0 76 -49q28 -43 28 -89q0 -43 -24.5 -88t-61.5 -67zM110 -10h-31l309 591h30zM397 1q-15 -10 -23 -10q-20 0 -51 22q-63 43 -63 132q0 43 36 94q40 55 83 55q44 0 76 -49q27 -43 27 -89
q0 -43 -24.5 -88t-60.5 -67zM90 530q-27 0 -27 -57q0 -88 81 -131q17 -10 22 -10q14 0 23 32q8 25 8 43q0 44 -32.5 83.5t-74.5 39.5zM332 241q-27 0 -27 -57q0 -88 81 -131q18 -10 23 -10q13 0 23 32q7 25 7 43q0 44 -32 83.5t-75 39.5z" />
    <glyph glyph-name="ampersand" unicode="&#x26;" horiz-adv-x="584" 
d="M160 -21q-50 62 -66 80q-43 49 -75 72l193 206q-62 122 -127 159l222 188q60 -102 120 -170l-136 -123q40 -75 73 -161l131 159q12 -56 45 -56q25 0 42 30q-7 -44 -35 -80q-33 -41 -73 -41q-34 0 -50 37l-53 -63q33 -67 52 -93q41 -54 88 -54q49 0 78 43q-4 -51 -39 -91
q-38 -42 -88 -42q-55 0 -99 58q-22 29 -57 104zM215 61l83 95q-27 55 -78 168l-121 -138q63 -54 116 -125zM283 405l67 62l-103 146l-72 -66q72 -71 108 -142z" />
    <glyph glyph-name="quotesingle" unicode="'" horiz-adv-x="148" 
d="M91 403h-16q-7 39 -21 119t-14 114q0 49 43 49q42 0 42 -48q0 -33 -14 -115z" />
    <glyph glyph-name="parenleft" unicode="(" horiz-adv-x="230" 
d="M6 328q0 -283 181 -432l10 7q-58 84 -89 202q-29 109 -29 220q0 184 111 405l-10 6q-69 -61 -121.5 -187t-52.5 -221z" />
    <glyph glyph-name="parenright" unicode=")" horiz-adv-x="240" 
d="M186 328q0 -283 -181 -432l-10 7q117 169 117 422q0 184 -110 405l10 6q69 -61 121.5 -187t52.5 -221z" />
    <glyph glyph-name="asterisk" unicode="*" horiz-adv-x="415" 
d="M180 475q-34 -19 -51 -38q-18 -24 -35.5 -46.5t-43.5 -22.5q-19 0 -32 13t-13 32q0 49 84 55q34 3 79 28q-13 7 -33 18q-17 8 -36 10q-53 6 -61 9q-33 12 -33 47q0 19 13 31.5t32 12.5q23 0 40 -16l38 -48t52 -42v18q0 27 -17.5 67t-17.5 54q0 20 13.5 35.5t33.5 15.5
t33.5 -15.5t13.5 -36.5q0 -14 -20 -56q-15 -31 -15 -82q24 14 32 20q18 13 55 66q19 20 44 20q19 0 32 -12.5t13 -31.5q0 -32 -29 -45q-14 -6 -58 -11q-38 -5 -76 -28q42 -24 68 -27q53 -7 62 -10q33 -12 33 -46q0 -19 -12 -31t-31 -12q-22 0 -40 17q-8 7 -39 45
q-19 23 -54 43v-18q0 -26 17 -66t17 -54q0 -21 -13 -36.5t-33 -15.5t-33.5 15.5t-13.5 35.5q0 10 17.5 54.5t17.5 84.5z" />
    <glyph glyph-name="plus" unicode="+" horiz-adv-x="550" 
d="M232 529h56v-215h211v-56h-211v-215h-56v215h-211v56h211v215z" />
    <glyph glyph-name="comma" unicode="," horiz-adv-x="195" 
d="M46 32l80 84q49 -74 47 -131q-2 -75 -83 -121q10 27 11 51q2 66 -55 117z" />
    <glyph glyph-name="hyphen" unicode="-" horiz-adv-x="325" 
d="M45 180l49 99q6 -21 31 -21h134q36 0 69 20l-41 -89q-15 15 -44 15h-131q-21 0 -67 -24z" />
    <glyph glyph-name="hyphen" unicode="&#x2010;" horiz-adv-x="325" 
d="M45 180l49 99q6 -21 31 -21h134q36 0 69 20l-41 -89q-15 15 -44 15h-131q-21 0 -67 -24z" />
    <glyph glyph-name="period" unicode="." horiz-adv-x="221" 
d="M24 35l68 81q39 -56 74 -56q9 0 29 7q-39 -80 -91 -80q-48 0 -80 48z" />
    <glyph glyph-name="slash" unicode="/" horiz-adv-x="255" 
d="M-13 -49l249 767h38l-250 -767h-37z" />
    <glyph glyph-name="zero" unicode="0" horiz-adv-x="477" 
d="M438 303q0 -82 -47 -167.5t-116 -129.5q-27 -17 -40 -17q-35 0 -93 41q-121 83 -121 251q0 82 70 179q75 103 154 103q82 0 141 -92q52 -81 52 -168zM374 228q0 90 -65 168q-67 83 -155 83q-32 0 -50 -47q-13 -36 -13 -75q0 -85 44 -155t121 -111q35 -19 48 -19
q28 0 51 65q19 54 19 91z" />
    <glyph glyph-name="one" unicode="1" horiz-adv-x="338" 
d="M302 82q-5 -13 -43.5 -51.5t-49.5 -38.5q-23 0 -110 86q25 16 28 33q1 1 1 38q0 41 -1 131.5t-1 131.5t-33 41q-10 0 -28 -23q-23 -31 -25 -32l-15 11q-2 2 49 61q85 98 89 97q61 -18 61 -120v-276q0 -48 1 -56q7 -39 37 -39q9 0 31 18q3 -2 4 -6.5t5 -5.5z" />
    <glyph glyph-name="two" unicode="2" horiz-adv-x="477" 
d="M437 82l-73 -93q-58 35 -170 35q-52 0 -80 -6q-40 -10 -80 -21q1 3 -1.5 5t-1.5 4q33 57 110 143q84 93 110 133q51 77 51 152q0 69 -29 84q-29 -15 -94 -68q-59 -49 -62 -49q-9 0 -39.5 27t-33.5 33q17 10 88 65q63 48 70 48q-3 0 210 -86q8 -27 8 -66q0 -72 -69 -142
q-32 -32 -143 -115q-90 -68 -117 -111q63 29 85 36q57 19 121 20q80 1 140 -28z" />
    <glyph glyph-name="three" unicode="3" horiz-adv-x="477" 
d="M455 143q0 -71 -82 -117q-70 -39 -148 -39q-64 0 -123 32q-70 37 -70 95q0 46 46 46q35 0 54 -39q15 -37 31 -73q23 -40 68 -40q46 0 76 42q26 38 26 86q0 84 -44 119q-40 32 -126 28v20q61 0 99 26q44 30 44 89q0 22 -16 52q-18 34 -42 38q-7 1 -140 -106l-59 60
l144 113q17 -22 100 -53t116 -29q13 -14 13 -60q0 -58 -38 -89q-26 -22 -91 -43q67 -17 110 -53q52 -43 52 -105z" />
    <glyph glyph-name="four" unicode="4" horiz-adv-x="477" 
d="M457 181l-115 1q-3 -15 -3 -32q0 -70 60 -67q5 0 31 4l3 -11l-105 -81l-109 81q32 26 30 56q-1 7 0 47l-215 -1q-9 11 -28 53q250 336 269 336q35 0 54 -41q13 -27 13 -43v-228h87q7 -22 28 -74zM249 251v164q1 62 -18 62q-36 -34 -175 -225z" />
    <glyph glyph-name="five" unicode="5" horiz-adv-x="477" 
d="M425 196q0 -78 -67.5 -143t-139.5 -67q-67 -3 -129 35q-68 42 -68 99q0 44 47 44q36 0 48.5 -39t24.5 -76q22 -41 78 -41t88 47q29 41 29 97q0 55 -31 106q-37 58 -90 58q-29 0 -108 -79l-24 15l68 306h245l-23 -83h-211l-47 -191q149 120 161 120q55 0 102 -65.5
t47 -142.5z" />
    <glyph glyph-name="six" unicode="6" horiz-adv-x="477" 
d="M436 257q0 -57 -69 -162q-72 -110 -125 -110q-90 0 -156 101q-60 91 -60 186q0 49 23.5 108t72.5 122q61 77 108 77q44 0 156 -40q-7 -23 -36 -74l-178 53q-56 -75 -56 -180q0 -52 1 -60l222 151q97 -40 97 -172zM368 190q0 44 -30 93q-34 53 -75 53q-9 0 -123 -81
q-7 -3 -15 -9q2 6 3 -12q5 -62 66 -109q57 -43 116 -43q29 0 45 42q13 31 13 66z" />
    <glyph glyph-name="seven" unicode="7" horiz-adv-x="477" 
d="M450 557q-94 -139 -136 -230q-53 -117 -53 -219q0 -45 9 -89q-44 -20 -132 -51q-3 6 -3 30q0 110 63 238q58 119 159 229q-2 1 1 5.5t2 4.5q-100 1 -239 0q-28 -1 -43 -11q-9 -6 -40 -39q-8 -2 -8 7q0 19 88 135q7 -5 22 -10h310z" />
    <glyph glyph-name="eight" unicode="8" horiz-adv-x="477" 
d="M421 182q0 -68 -67 -131.5t-131 -63.5q-43 0 -111 41q-78 48 -78 97q0 46 24.5 79.5t84.5 70.5q-47 34 -62.5 57t-15.5 61q0 49 49 109q55 68 118 66q64 -2 116 -43t52 -84q0 -62 -80 -118q58 -28 79.5 -59.5t21.5 -81.5zM326 402q0 42 -44 75q-40 29 -80 29
q-76 0 -76 -54q0 -34 70 -77q64 -39 98 -39q14 0 24 31q8 23 8 35zM364 108q6 58 -47 94q-23 15 -74 36q-54 23 -70 23q-18 0 -32.5 -27.5t-14.5 -43.5q0 -57 57 -92q47 -28 100 -28q40 0 48 3q20 6 33 35z" />
    <glyph glyph-name="nine" unicode="9" horiz-adv-x="477" 
d="M445 320q0 -83 -44 -160q-47 -83 -133 -136q-2 -1 -31 -23q-22 -17 -28 -17q-9 0 -66 43t-57 46q0 4 23 26q28 27 35 35q25 -14 74 -55q41 -33 44 -30q46 30 70 95q20 53 20 111q0 42 -10 59l-196 -146q-52 15 -83 54t-31 90q0 66 57 152q70 107 167 107q68 0 132 -100
q57 -88 57 -151zM336 341q-5 42 -35 87.5t-65 59.5q-14 6 -27 12q-9 2 -35 0q-24 -2 -41 -33.5t-17 -64.5q0 -45 26 -91q32 -56 82 -56q6 0 112 86z" />
    <glyph glyph-name="colon" unicode=":" horiz-adv-x="265" 
d="M204 374l-73 -75l-76 77l73 75zM204 54l-73 -75l-76 77l73 75z" />
    <glyph glyph-name="semicolon" unicode=";" horiz-adv-x="218" 
d="M152 44q0 -49 -23 -80q-11 -15 -74 -70q-8 0 -10 8.5t-3 8.5q38 34 38 85q0 38 -13 48q-31 22 -34 26q25 7 79 71q25 -27 32 -43q8 -20 8 -54zM164 374l-73 -75l-76 77l73 75z" />
    <glyph glyph-name="less" unicode="&#x3c;" horiz-adv-x="389" 
d="M314 436l-202 -169l199 -157l-1 -59l-284 215q-5 3 287 229z" />
    <glyph glyph-name="equal" unicode="=" horiz-adv-x="458" 
d="M25 273v55l384 1v-57zM25 140v56l385 -1v-55h-385z" />
    <glyph glyph-name="greater" unicode="&#x3e;" horiz-adv-x="386" 
d="M34 425l201 -158l-198 -145v-71l285 215q4 3 -288 229v-70z" />
    <glyph glyph-name="question" unicode="?" horiz-adv-x="358" 
d="M305 512q0 -46 -77 -166t-77 -162q0 -11 3 -19h-18l-2 45q0 48 33 142t33 120q0 36 -24.5 61.5t-58.5 27.5q-24 1 -57 -23q-24 -18 -47 -36q-2 4 -7 6q4 14 58 87q57 79 72 79q64 0 116.5 -47t52.5 -115zM214 54l-73 -75l-76 77l73 75z" />
    <glyph glyph-name="A" unicode="A" horiz-adv-x="711" 
d="M690 88q-102 -66 -154 -118q-56 56 -108 70q37 37 37 127q0 16 -2 34q-94 -78 -268 -236q-6 32 -58 68.5t-86 36.5q-17 0 -53 -24l-9 11l205 237q-38 27 -77 54q-42 34 -42 79q0 68 48 98q38 24 92 20q29 -2 56 34q16 -23 50 -67l-64 -48q-23 60 -70 60q-15 0 -26 -10
t-11 -25q0 -29 42 -64q36 -31 79 -49q47 56 177 197q112 122 111 123q-113 -45 -173 -45q-47 0 -112.5 37.5t-106.5 37.5q-18 0 -44 -11q-30 -12 -30 -26q27 -23 31 -47q0 -24 -14.5 -40t-38.5 -16q-22 0 -37 12.5t-15 34.5q0 54 56 88q48 29 106 29q32 0 55 -13
q32 -18 35 -19q2 42 51 45q15 1 33 -15q27 -25 36 -31q28 -16 68 -16q98 0 172 75l28 -13q-26 -62 -26 -160v-498q0 -12 -13 -12q-7 0 -7 9l-1 504q0 81 14 130q-17 -8 -49 -52v-557q3 -65 39 -65l62 38zM467 559q-23 -21 -100 -105q-83 -90 -76 -95q32 -28 32 -102
q0 -47 -31 -88q0 -1 -66 -71q10 -8 56 2q42 9 111 66q74 61 74 98v295zM246 203q0 13 -13 44t-23 31q-4 0 -37 -41q-38 -48 -39 -49q-6 -6 -7 -13q0 -6 1 -14t1 -9q0 -13 25.5 -31t39.5 -18q17 0 36 42q16 37 16 58z" />
    <glyph glyph-name="B" unicode="B" horiz-adv-x="722" 
d="M673 270q0 -93 -81 -180q-75 -81 -169 -106q-49 20 -99 40q-66 25 -103 25q-66 0 -122 -68l-58 40q25 6 51 30.5t26 48.5q0 25 -21 25q-6 0 -19.5 -3t-17.5 -3q-22 0 -22 32q0 11 20 19q15 5 29 5q23 0 36 -14l22 -34q10 5 16 34q5 23 5 41q0 23 -16 53q-18 35 -38 35
q-11 -26 -31 -26t-20 17q0 12 9 25l26 11q7 3 13 3q26 0 56 -54l3 75q1 37 -24 62t-62 25q-27 0 -27 -19q0 -21 15 -35q-17 -10 -20 -10q-21 0 -35.5 13t-14.5 34q0 25 26 39q22 12 49 12q63 0 92 -57q-2 121 -61 138q-15 2 -32 5t-17 20q0 31 27 31q26 0 52 -31
q22 -26 31 -54l2 35q3 54 -21 108q-28 67 -79 67l-28 -7q6 -2 13.5 -13.5t7.5 -15.5q0 -10 -11.5 -20.5t-21.5 -10.5q-13 0 -23.5 10t-10.5 22q0 60 109 60q118 0 204 -108q30 1 58 43q20 29 32 66q30 -59 58 -83q33 -27 84 -27q22 0 50 4q0 -3 -59 -57q-34 -32 -69 -64
l13 -3q97 -12 149 -82q49 -66 49 -168zM454 546q0 19 -37 51.5t-58 33.5h-11q-8 0 -34 -11q9 -41 9 -137q0 -34 2 -57q10 4 69.5 59t59.5 61zM306 297l1 234q0 67 -12 87q-1 4 -58 67q3 -15 24 -61q14 -30 14 -72v-265q0 -83 -48 -144q44 33 61.5 66.5t17.5 87.5zM605 214
q0 84 -58 154q-61 76 -143 76q-43 0 -43 -29q0 -21 20 -30.5t20 -17.5q0 -7 -6 -19t-12 -12q-47 0 -54 43v-129q-9 -48 -49 -89q-50 -54 -179 -136l12 -10q23 23 95 64q77 43 101 43q23 0 97.5 -32.5t108.5 -32.5q22 0 39.5 23t17.5 45q0 28 -13 55q-16 33 -41 33
q-22 0 -41 -19.5t-20 -19.5q-8 0 -32.5 16.5t-24.5 24.5q0 15 33 33t51 18q40 0 71 -38q25 -31 35 -75q15 28 15 61z" />
    <glyph glyph-name="C" unicode="C" horiz-adv-x="647" 
d="M631 703q0 -35 -38.5 -66.5t-75.5 -31.5q-9 0 -17 3q-12 3 -28 8q-29 13 -71 43q-54 39 -69 48l-1 -465l-30 -22q-22 -15 -45 -29q-28 -19 -41 -40q19 -26 79 -46t127 -20q86 0 140 35q1 0 13 11q9 8 13 8q1 -1 5 -3t3 -3q-24 -70 -99 -115q-67 -39 -138 -39
q-97 0 -192 59q-99 61 -134 149q-33 83 -33 165q0 128 77 221q34 41 88 75q63 40 154 80q87 39 94 39q3 0 16 -14q15 -17 23 -22q26 -21 85 -58q14 -7 31 -7q32 0 41 24q3 9 3 14q0 4 -4 8t-5 8q7 7 10 7q6 0 12.5 -8.5t6.5 -15.5zM227 220v441l-25 -17v-430
q-22 -27 -21 -32l21 -21q25 25 25 59zM185 633q-90 -59 -90 -215q0 -82 24 -141q15 -38 49 -82q2 2 17 23v415z" />
    <glyph glyph-name="D" unicode="D" horiz-adv-x="770" 
d="M716 323q0 -135 -69 -231q-78 -107 -210 -107q-41 0 -118 39t-116 39q-45 0 -90 -26q-32 -21 -65 -42q-1 0 -4.5 9.5t-5.5 10.5l-14 25l75 64q-13 19 -83 74q31 30 45 47q25 -20 76 -55l4 5q-2 115 -1 134q3 54 -12 78.5t-61 22.5l-4 -7l21 -34q-1 -14 -14 -27t-28 -13
q-13 0 -25 16.5t-12 29.5q0 20 22 38t42 18q18 0 34 -6t32 -13l1 33q0 30 -6.5 42.5t-32.5 26.5l-23 -2q-6 1 -6 15q53 10 193 104h-255q44 15 69 34q40 30 80 91l11 -8q28 -15 160 -15q390 0 390 -410zM600 302q0 84 -44.5 147t-111.5 74q-46 -3 -64 -12q-29 -15 -29 -58
q0 -15 8.5 -29t22.5 -14q23 0 23 19q0 9 -6 18q10 12 22 12q14 0 28.5 -9t14.5 -22q0 -26 -20 -41.5t-46 -15.5t-47.5 27.5t-21.5 54.5q0 44 31 68t77 24q72 0 133 -80q-16 91 -109 133q-71 33 -175 32v-440q-139 -69 -210 -134l12 -14q36 32 99 63t94 31q26 0 83 -22
t77 -22q25 0 43.5 16t18.5 41q0 12 -21 24q-15 9 -31 17q3 7 24 20q25 15 31 20q18 -1 30.5 -22.5t12.5 -44.5q0 -39 -33.5 -69t-71.5 -30q-35 0 -55 3q22 -34 42 -45q14 -7 43 -7q90 0 116 116q10 44 10 171zM265 592q-16 -18 -33 -36v-371q5 3 34 16z" />
    <glyph glyph-name="E" unicode="E" horiz-adv-x="671" 
d="M628 696q0 -35 -42 -64q-38 -27 -76 -27q-33 0 -93 40q-43 30 -87 61l1 -304q34 5 81 52q16 -3 40 -3q85 0 140 22l-72 -81h-190l1 -150q-27 -17 -49 -32q-52 -36 -67 -59q23 -32 95 -51q57 -15 111 -15q123 0 188 54l8 -6q-23 -67 -105 -112q-76 -42 -154 -42
q-154 0 -256.5 109t-102.5 264q0 168 132 272q77 61 281 143q26 -29 73 -62q54 -39 82 -39q20 0 33 14q11 11 11 25t-9 17l16 7zM227 661l-25 -17v-430l-21 -32l21 -21q25 25 25 59v441zM185 218v415q-90 -59 -90 -215q0 -129 73 -223z" />
    <glyph glyph-name="F" unicode="F" horiz-adv-x="616" 
d="M619 736q-97 -85 -103 -85q-7 0 -42.5 33t-77.5 33q-21 0 -49 -14q-32 -16 -32 -34l25 -209q2 -1 6 -4q18 19 20 19q6 0 15 -9l-26 199q7 12 13 12q3 0 4 -3q11 -74 27 -214q11 7 24 12q6 3 21 21q12 14 26 14q7 0 26 -15q9 -8 18 -15q25 -14 33 -14q13 0 33 24
q5 0 4.5 -3.5t3.5 -8.5q-6 -15 -23 -40q-26 -38 -41 -37q-30 1 -44 22q-17 22 -42 28q-5 1 -30 -24l8 -154q4 -58 -11 -127q-8 -37 -10 -43q-4 -10 -23 -44q-14 -25 -23 -39q-17 -25 -33 -38q-53 -43 -78 -56q-42 -21 -97 -21q-18 0 -50 11q-35 12 -42 25q-10 -6 -18 -10.5
t-18 -4.5q-21 0 -33 17q-10 14 -10 32q0 26 16 34q10 6 34 6q-2 42 22.5 67t62.5 25q58 0 58 -57q0 -14 -12 -31t-28 -16q-33 3 -27 15q7 0 12 4q13 9 13 32q0 9 -10 19.5t-22 10.5q-24 0 -39 -23q-11 -19 -11 -46q0 -41 37 -65q29 -18 58 -18q46 0 83 43q34 40 43 95
q2 18 0 93q-1 30 -31 69t-56 39q-11 0 -20 -7.5t-9 -17.5q0 -11 3.5 -13.5t7.5 -5.5q-9 -17 -12 -19h-20q-14 0 -26.5 15t-12.5 25q0 22 28 36q22 10 38 10q37 0 60 -14q17 -11 44 -46q-5 57 -18 134q-15 33 -48 70q-38 43 -68 53q-13 4 -33 4q-59 0 -59 -34q0 -17 22 -17
q10 0 11 4q5 9 9 13q27 -5 27 -31q0 -24 -22 -38q-18 -12 -35 -12q-24 0 -40.5 20t-16.5 45q0 21 12 36q38 42 89 42q47 0 91 -34t58 -76q0 98 -23 214q-4 20 -15 53q-7 21 -30.5 38t-46.5 17q-20 0 -26 -4.5t-10 -24.5q6 -7 12 -5q10 3 11 2q2 -4 2 -8q0 -23 -34 -27
q-27 24 -27 32q0 27 27 43q22 12 47 12q35 0 73.5 -27.5t68.5 -27.5q11 0 35 7t33 14q98 67 147 67q41 0 75.5 -28t33.5 -28q5 0 21 16zM396 273q0 53 -12 152q-10 3 -30 13q-6 -6 -6 -13q0 -3 6 -76.5t6 -76.5q-2 -101 -4 -121q-5 -70 -22 -118q62 80 62 240zM31 -32
q0 19 -17 19q-22 0 -22 -20q0 -7 12 -13q9 -5 16 -5q11 0 11 19z" />
    <glyph glyph-name="G" unicode="G" horiz-adv-x="707" 
d="M654 272q0 -113 -94.5 -203t-205.5 -90q-157 0 -256.5 96.5t-99.5 250.5q0 143 59 219q41 51 145 102q126 62 179 105q14 -5 76 -50q53 -39 82 -39q22 0 33 21q9 17 7 40l15 -15q2 -59 -45 -92q-36 -26 -77 -26q-13 0 -76 32q-58 30 -78 45q17 -185 24 -245q3 -19 6 -37
q22 11 63 48q37 34 66 44q177 -38 177 -206zM555 220q0 65 -38 114q-42 53 -106 53q-23 0 -40 -12t-17 -34q0 -93 47 -93q4 0 41 23l7 -10q-29 -51 -47 -77q-63 8 -73 139l-30 345q-18 1 -35 -27q7 -55 15 -110q8 -62 8 -100q0 -145 -129 -226h-11q33 35 33 125v67
q0 54 -6 106q-10 82 -33 82q-29 0 -57 -49q-25 -45 -25 -78q0 -75 17 -152q21 -90 57 -141t100 -101q75 -59 123 -59q84 0 143 67q56 64 56 148z" />
    <glyph glyph-name="H" unicode="H" horiz-adv-x="686" 
d="M356 -122q-37 48 -71 48q-45 0 -74 -37l-4 4q53 64 61 72q35 29 88 29q46 0 82 -41q47 33 67 58q29 36 29 81q0 34 -22 72q-26 44 -58 44l-24 -9q5 -15 5 -23q0 -16 -32 -16q-29 0 -29 30q0 21 19 34t40 13q86 0 122 -121q1 4 9 31q6 18 6 31q0 83 -55.5 140t-140.5 62
q-80 4 -116 -71q-29 -60 -27 -158q-57 -4 -108 -38q-35 -23 -88 -77l12 -9q40 33 82.5 49.5t85.5 32.5q12 -51 59 -51q15 0 40 7q0 14 4.5 23.5t16.5 9.5l17 -18q-1 -37 -156 -98q-38 63 -68 63q-28 0 -87 -52l-39 43q40 36 51 50q27 32 27 65q0 25 -24 27l-24 -13l-13 14
q2 25 28 25q16 0 33 -14v178q-26 37 -42 39l-29 -18l-19 18q1 28 41 28q26 0 49 -31v142q0 35 -16 49q-11 10 -50 19l1 19q57 1 99 30q31 28 62 55q36 30 79 30q33 0 62.5 -23.5t29.5 -55.5q0 -29 -19 -48t-44 -19q-28 0 -50 24q-1 -152 1 -276q41 17 99 57q46 34 93 68
q95 -4 156 -88q55 -76 55 -175q0 -106 -94 -202q-72 -73 -188 -132zM296 686q0 19 -14.5 30t-32.5 11q-69 0 -69 -90l1 -474l32 9v508q18 -41 46 -41q37 0 37 47z" />
    <glyph glyph-name="I" unicode="I" horiz-adv-x="459" 
d="M439 705q-37 -48 -50 -74q-19 -39 -19 -85q0 -43 16.5 -128t16.5 -128q0 -135 -62 -216q-70 -92 -209 -92q-47 0 -87 23q-46 27 -46 72q0 28 17.5 46.5t44.5 18.5q44 0 47 -53q-14 7 -26 7q-30 0 -30 -41q0 -51 61 -51q32 0 60.5 19.5t28.5 46.5q0 6 -2 12q-11 42 -29 42
q-17 0 -34 -30q-6 18 -6 29q0 34 33 38q23 3 39 -17.5t16 -45.5q0 -44 -28 -78q39 4 57 53q13 35 13 83q0 105 -33 193q-45 119 -133 119q-16 0 -31.5 -11.5t-15.5 -27.5q0 -26 15 -26q10 0 18 10t8 20q22 4 22 -20q0 -11 -12.5 -19.5t-24.5 -8.5q-16 0 -30.5 11.5
t-14.5 27.5q0 24 20.5 41.5t45.5 18.5q89 2 133 -92l-5 52q0 147 207 272zM412 734q0 -21 -66 -56.5t-97 -35.5q-41 0 -109 27t-75 27q-39 0 -39 -50q0 -20 23 -25q6 -1 37 -1q3 0 3 -8q0 -5 -7.5 -19t-12.5 -18l-18 -1q-52 -2 -52 56q0 44 34.5 75.5t78.5 31.5q23 0 35 -15
q9 9 19.5 17.5t23.5 8.5q14 0 41.5 -25.5t66.5 -25.5q67 0 98 42l12 4q4 -2 4 -9zM355 538q0 71 41 136q-36 -17 -59.5 -71.5t-17.5 -96.5l35 -290q7 -59 -35 -142q70 65 70 211q0 43 -17 126.5t-17 126.5z" />
    <glyph glyph-name="J" unicode="J" horiz-adv-x="525" 
d="M490 709q-62 -59 -62 -151q0 -58 19 -176t19 -176q0 -110 -104 -191q-96 -75 -210 -75q-50 0 -95 24q-54 28 -54 74q0 23 24 36q20 11 45 11q24 0 46 -13q26 -15 24 -38l-25 8q-40 0 -40 -37q0 -44 81 -44q111 0 111 85q0 36 -34 54q0 -25 -24 -25q-11 0 -21.5 8.5
t-10.5 19.5q0 15 9 27.5t23 12.5q37 0 59 -36q18 -31 18 -69q0 -12 -21 -53l4 -2q59 21 59 153q0 91 -37 163q-46 90 -129 90q-85 0 -85 -75q0 -16 15 -31t31 -16l25 18q-5 2 -12.5 11.5t-7.5 15.5q0 15 28 26q34 -17 34 -37q0 -21 -17.5 -37.5t-38.5 -16.5q-31 0 -53 22
t-22 53q0 40 33 64q30 21 72 21q83 0 134 -75l2 83q2 104 -49 115q-3 -9 -13 -20.5t-17 -11.5q-23 0 -23 21q0 31 50 31q34 0 53 -34l4 7q30 71 63 109q25 29 95 83l-7 8q-105 -86 -178 -86q-41 0 -98 42t-89 42q-17 0 -32 -11t-15 -28q0 -32 33 -32q11 0 17 5q12 10 13 10
q12 -9 12 -26q0 -10 -15.5 -23.5t-24.5 -13.5q-23 0 -41.5 17.5t-18.5 40.5q0 94 104 94q47 0 85 -27q4 22 39 22q11 0 39.5 -20.5t65.5 -20.5q46 0 103 46q15 -2 33 -45zM446 215q0 57 -17.5 173.5t-17.5 173.5q0 21 7 51q7 24 13 49q-55 -49 -55 -163q0 -54 19 -160.5
t19 -161.5q0 -54 -57 -142q41 19 67 78q22 51 22 102z" />
    <glyph glyph-name="K" unicode="K" horiz-adv-x="636" 
d="M620 81q-13 -5 -62 -50.5t-48 -45.5q-34 2 -160 240q-182 -128 -300 -220l15 -12l249 176l7 -47q13 -42 35 -40q14 2 27 6q0 -1 4.5 -10t4.5 -10q-31 -15 -61 -30q-37 -20 -58 -50q-5 1 -13 19q-9 23 -11 25q-17 24 -34 24q-4 0 -13 -2t-14 -2q-25 0 -129 -88l-40 37
q16 14 28 28q30 33 36 58q3 14 3 28q0 121 -1 129q-2 35 -46 35q0 -1 2.5 -11t2.5 -13q0 -18 -24 -18q-22 0 -22 26q0 42 46 42q6 0 19 -7t17 -8q1 10 1 70q0 20 -8 39q-10 23 -28 23q-9 0 -16 -7q1 -3 7 -10t6 -10q0 -8 -7.5 -14t-14.5 -6q-9 0 -18.5 13t-9.5 19
q0 39 55 39q14 0 33 -19q-1 10 1 28q-3 78 0 81q-12 33 -32 36t-28 6v13q42 6 123 28q82 34 223 132l136 -74l-64 -72l-128 77v-264l123 85l107 -134l-108 -84q26 -48 53 -96q51 -89 91 -116q10 7 31 21q1 -6 5.5 -6.5t6.5 -6.5zM359 422l-48 -34q2 -49 0 -163l130 95
q-5 13 -19 25q-24 19 -63 77zM216 626l-36 -17l-1 -476l39 24z" />
    <glyph glyph-name="L" unicode="L" horiz-adv-x="601" 
d="M412 753q-26 -28 -33 -103q-2 -26 -2 -113v-98q1 -63 1 -98q0 -81 -30 -121q-12 -16 -83 -69q19 72 21 142v229q0 9 -1 26v26q0 65 41 119q-61 -44 -107 -44q-19 0 -62 16q-46 16 -62 18q-37 4 -74 -28l-13 11q14 26 43 51q34 31 59 30q41 -1 80 -13.5t59 -12.5
q78 0 146 44q3 -1 11 -3q2 0 6 -9zM579 71q-25 -13 -66 -45q-45 -36 -64 -47q-43 24 -85 49q-46 24 -94 24t-92 -23q-27 -15 -78 -55l-34 25q8 11 24 32q49 61 49 152q0 28 -26.5 57t-53.5 29l-15 -13l13 -23q-12 -21 -13.5 -22.5t-11.5 -2.5q-8 0 -19 11.5t-11 20.5
q0 20 20 36.5t40 16.5q44 0 80 -59q1 9 1 94q0 43 -27.5 74.5t-67.5 28.5q-3 -22 -27 -22q-8 0 -16 8.5t-8 15.5q0 8 14.5 19.5t23.5 12.5q33 4 63 -17q9 -7 44 -42v59q0 25 -13.5 54t-33.5 41v9h38q35 0 108 57l15 -6q0 -2 -9.5 -25.5t-9.5 -27.5v-274q0 -48 1 -157
q-25 -19 -48 -38q-55 -46 -86 -84l6 -9q31 36 115 86t117 51q69 3 193 -77q9 6 33 23z" />
    <glyph glyph-name="M" unicode="M" horiz-adv-x="880" 
d="M576 487q12 46 57 45q57 -2 69 -67q4 19 4 35q0 101 -141 141q-30 -17 -85 -55l-1 -429l-5 11v0q2 -4 17 -38q-27 -6 -58 -42q-25 -29 -49 -58l4 -1q37 20 124 60l15 11l20 -14q60 -39 103 -39q16 0 28 6l1 -5q-45 -25 -101 -82l-13 -8l-10 5q-30 32 -119 57
q-32 -2 -77 -24q-19 -10 -37 -20l-6 18q65 39 65 164v289q0 64 -27 126q-34 78 -88 74l-6 -1v-209v-231q4 -100 -36 -160q-46 -71 -139 -65q-23 1 -44.5 27.5t-21.5 48.5q0 41 40 51q8 3 15 3q28 0 28 -30q0 -13 -22 -19t-21 -25q3 -23 29 -32q63 0 63 77v178q0 23 -22 49
t-45 26l-26 -26q-31 4 -31 25q0 17 12 30.5t29 13.5q28 0 49 -20q10 -10 31 -42v214q-4 41 -31.5 64t-68.5 23q-21 0 -21 -20l21 -22l-8 -21q-19 -8 -21 -8q-16 0 -25 11t-9 24q0 62 53 62q19 0 45 -9t38 -9q54 0 129 36q64 31 111 73q32 -1 119 -117l148 114
q164 -57 164 -198q0 -57 -30 -106t-81 -73q39 -24 64 -72q15 -28 35 -92t35 -93q6 -11 28 -18q27 -10 33 -14q-8 -7 -116 -89l-16 11q-29 102 -58 203q-49 145 -112 145q-4 0 -23 3q-14 3 -21 0q-2 -37 0 -181l-18 -6l-3 353h21q0 2 0 -139l51 -7q38 0 74.5 27t31.5 51
q-9 40 -19 54.5t-33 20.5l-18 -6q7 -12 7 -21q0 -13 -18 -21q-27 -2 -30 24z" />
    <glyph glyph-name="N" unicode="N" horiz-adv-x="648" 
d="M629 46l-85 -63q-31 17 -61 33q-39 21 -64 21q-84 0 -124 -45l-11 6q31 59 92 113v404q0 44 -19 78q-23 40 -65 40q-14 0 -32 -5v-452q0 -72 -56 -130t-128 -58q-85 0 -85 72q0 67 56 67q39 0 39 -35q0 -22 -22 -22q-28 0 -37 15q-2 3 -7 -12t-5 -19q0 -16 13 -31.5
t28 -15.5q90 0 90 103q0 219 -1 236q-14 75 -70 81q-5 1 -18 -3q8 -20 7 -28l-23 -25h-5q-7 0 -15.5 10.5t-8.5 18.5q0 21 18.5 35t39.5 14q23 0 42 -15q8 -7 32 -33q0 140 -1 190.5t-86 62.5q-16 2 -20 -21q8 -17 8 -25q0 -14 -21 -18q-31 -1 -31 41q0 17 20.5 31t39.5 14
q11 0 56 -16.5t80 -16.5q50 0 97 29q51 32 62 77q79 -45 112.5 -99t33.5 -145l-1 -361q-60 -20 -89 -40q-20 -15 -73 -70q37 22 75 44q49 28 90 28q19 0 37 -5q-1 24 -1 637l18 2v-647q30 -17 79 -47z" />
    <glyph glyph-name="O" unicode="O" horiz-adv-x="731" 
d="M683 433q0 -132 -85 -260.5t-206 -183.5q-34 22 -79 41q-53 20 -85 20q-60 0 -101 -48l-42 36q35 28 101 83q-70 14 -124.5 86.5t-54.5 158.5q0 92 27 141q26 45 98 95q79 55 104 89q12 19 23 38q12 15 40 15q147 0 259 -79q125 -90 125 -232zM599 342q0 127 -82 216
q-85 90 -212 90q-93 0 -152 -65q-55 -64 -55 -158q0 -81 34 -147q43 -83 116 -83q23 0 38 17t15 39q0 32 -19 48q-7 5 -37 18q-20 8 -20 22q5 3 25 11q14 5 25 22q20 36 40 73q24 30 76 30q19 0 40 -16.5t21 -35.5q0 -18 -12.5 -32.5t-31.5 -14.5q-8 0 -17 6.5t-9 14.5
q0 22 10 22q5 0 18 -5l19 16q-1 12 -16.5 21t-28.5 9q-26 0 -45.5 -16t-19.5 -42q0 -23 18 -48t40 -25q8 0 16 4l15 -20q-1 -12 -133.5 -135t-158.5 -138q1 -3 14 -15q142 117 156 117q12 0 26 -20q64 -19 74 -21q32 -7 77 -7q68 0 106 94q30 73 30 154z" />
    <glyph glyph-name="P" unicode="P" horiz-adv-x="747" 
d="M708 405q0 -79 -72 -171q-76 -97 -153 -97q-47 0 -81 27q-21 20 -43 39l-34 -43q-2 -153 -1 -153h64v-13h-274q-12 -3 -25 -3q-42 0 -41 35q1 27 32 25q18 -1 24 -19q-1 -7 -1.5 -14t-10.5 -13l72 -1v154q0 57 -3 70q-10 38 -49 42q-11 -31 -29 -31q-12 0 -22 12.5
t-10 28.5q0 31 39 36q30 3 51 -19q17 -19 23 -45q0 -1 0 84q0 123 -58 123q-9 0 -11.5 -5t-1.5 -14l1 -13q0 -11 -37 -12q-22 11 -24 14t-5 27q-2 18 16 34t40 16q38 0 80 -62v85q0 25 -7 37.5t-30 23.5v9q86 20 141 91l2 -5v-679l35 1l-1 691l-29 30q-78 -71 -147 -71
q-28 0 -55 15q-12 6 -48 32q-5 0 -8.5 -1.5t-10.5 -0.5l-3 15q26 4 61 23q48 27 57 31q18 -20 37 -40t48 -20q23 0 71 47q8 -9 37 -35q8 -8 8 -18q0 -2 -1 -19.5t-1 -35.5l3 -6q26 12 73 55l70 66l11 -11q-18 -22 -18 -46q0 -27 64 -63q89 -49 120 -81q65 -64 65 -159z
M502 548q-33 13 -95 48q-21 17 -39 57l-45 -33l-1 -324zM631 321q0 46 -5 80q-7 58 -59 94q-83 -112 -183 -256q30 12 48 9q46 -9 78 -35q28 -22 42 -22q34 0 58 49q21 42 21 81zM550 509q0 7 -32 31l-196 -275v-81q228 316 228 325z" />
    <glyph glyph-name="Q" unicode="Q" horiz-adv-x="699" 
d="M655 66q-48 -48 -48 -49q-28 -24 -57 -34q-20 12 -39 24q-31 16 -65 16q-10 0 -21 -1q-37 9 -31 15q-71 -51 -87 -51q-6 0 -66 39.5t-93 39.5q-31 0 -95 -63q-4 1 -26 23q38 40 87 94q-115 101 -115 231q0 102 58 183q37 51 123 126q100 86 142 86q92 0 177 -59
q72 -51 128 -136q23 -37 24 -139q0 -85 -56 -168q-37 -54 -107 -118q-61 -54 -64 -63l5 -3q44 22 76 22q31 0 82 -31q5 -2 11 -2q13 0 31 11q10 7 19 13zM577 369q0 115 -89.5 198.5t-204.5 83.5q-98 0 -154 -67q-53 -62 -53 -162q0 -137 105 -227l73 65q-76 76 -76 134
q0 39 54.5 93t95.5 54q37 0 66 -34q24 -27 36 -67q-15 -12 -29 -24q-21 -17 -30 -17q-1 0 -43 48q0 5 17.5 15.5t17.5 24.5t-12 25t-26 11q-33 0 -50 -33q-13 -26 -13 -61q0 -42 27 -72q28 -26 57 -52q-142 -115 -291 -272l4 -7q34 30 67 59q54 44 71 38l143 -50q9 -4 19 -4
q64 0 141 109t77 191z" />
    <glyph glyph-name="R" unicode="R" horiz-adv-x="666" 
d="M633 90q-55 -41 -62 -48q-22 -20 -47 -62q10 58 -50 199q-65 151 -122 151q-13 -6 -43 -23v-206q-4 -5 -24 -20q-3 91 0 230l2 443l20 -5v-157q137 75 146 165l7 -3q-1 -60 48 -100q46 -38 105 -37q-4 -54 -64.5 -127t-123.5 -107q74 -20 132 -122q10 -18 76 -171z
M252 59q-46 -39 -123 -111l-7 6q16 31 32 63q12 27 12 64q0 15 -2 35q-6 1 -24 0q-27 -7 -30 -22v-35l-76 77h130q1 46 1 75q0 38 -18 84q-21 53 -50 62q-51 4 -51 -27q0 -19 13 -23l9 -11q-23 -5 -47.5 11.5t-24.5 40.5q0 23 19 38t42 15q70 0 94 -81l12 -26v135
q0 136 -1 121q-8 39 -32 42v9q29 -5 60 11q47 24 47 91v27q-61 -65 -144 -65q-50 0 -88 27q29 54 44 80q50 -38 123 -38q34 0 43.5 4t36.5 27v-706zM473 511q0 23 -35.5 60.5t-57.5 37.5q-15 0 -71 -38q-3 -84 0 -240q22 -5 90 59q74 69 74 121z" />
    <glyph glyph-name="S" unicode="S" horiz-adv-x="697" 
d="M685 732q0 -23 -88 -82q-82 -56 -114 -65q-58 31 -196 85v-256q13 -13 41 -40q58 46 172 171l15 -2q56 -9 96 -66q36 -53 36 -110q0 -112 -13.5 -158t-54.5 -83q-58 -45 -115.5 -90.5t-120.5 -59.5q-13 5 -106 64q-66 43 -115 43q-21 0 -46 -13q-30 -15 -28 -35
q2 -15 12 -15q5 0 18.5 6t19.5 6t10 -3q16 -19 16 -34q0 -30 -48 -30q-11 0 -21 3t-22 16t-15 25q-2 8 -2 16q0 54 79 97q69 37 126 37q28 0 106 -44q97 -54 111 -60q41 13 70.5 48.5t29.5 77.5v112q0 76 -58 118l-29 3q-38 0 -138 -72.5t-97 -72.5l-8 -8q-67 63 -125 55
l-2 6q43 21 43 86q0 12 -1 35.5t-1 34.5q4 46 -36 48q-16 1 -32 -23q0 -21 33 -30l-29 -36q-57 0 -57 56q0 29 25 46q22 15 51 15q32 0 41 -17v83q0 25 -27 43q-23 12 -47 24v15l22 -10q36 -16 99 -16q43 0 95 28q84 44 88 45l200 -87q6 -1 13 -1q49 0 66 38q-11 15 -27 35
l51 42zM314 363q-38 31 -47 47l1 244q2 17 -1 23q-28 -5 -46 -15q0 -17 1 -46v-46q0 -153 8 -188q3 -11 20.5 -22.5t28.5 -11.5q9 0 35 15z" />
    <glyph glyph-name="T" unicode="T" horiz-adv-x="660" 
d="M624 200q-53 -63 -106 -125q-79 -90 -119 -90q-146 0 -253 83q-117 89 -117 232q0 100 40 168q38 64 124 123l9 -13q-52 -20 -80 -101q-21 -64 -21 -134q0 -54 43 -125q47 -77 97 -77q48 0 96 68q45 63 45 113q0 30 -22 90t-22 92q0 90 51 120l-17 3q-32 0 -50 -43
q-15 -33 -15 -69q0 -32 21.5 -92.5t21.5 -93.5q0 -38 -36 -89q-38 -54 -75 -55v1q15 14 21 35q9 29 14 38q0 35 -29.5 104.5t-29.5 98.5q0 114 125 169q-28 -2 -106 29.5t-122 31.5q-21 0 -50 -9q-37 -12 -36 -28v-10q40 -3 40 -30q0 -13 -12.5 -18.5t-24.5 -3.5t-21 16
t-9 26q0 58 70 88q54 23 120 23q45 0 133.5 -13.5t133.5 -13.5q48 0 157 38q-5 -12 -32 -50q-20 -27 -20 -53q0 -13 3 -27q-39 -12 -77 -12q-29 0 -66 7q-33 6 -51 -41q-13 -36 -13 -77q0 -30 22.5 -88.5t22.5 -92.5q0 -60 -37 -112t-93 -79q28 -8 55 -16q38 -11 56 -11
q63 0 126 32q40 20 112 72z" />
    <glyph glyph-name="U" unicode="U" horiz-adv-x="689" 
d="M643 285q0 -86 -55 -141q-23 -23 -114 -76q-73 -43 -96 -88q-8 1 -27 40q-23 47 -48 70q-40 38 -101 38q-56 0 -114 -40l-11 3q20 38 20 56q0 13 -5 30q-6 23 -16 22q-1 -1 -14 -18q-7 -10 -17 -10q-16 8 -16.5 9t-1.5 7q-2 28 27 37q9 3 17 3q42 0 42 -77q0 -14 -1 -29
q39 61 37 92v83q0 69 -1 75q-13 87 -92 87q-17 0 -32 -13t-15 -31q0 -23 13 -32q17 6 7 20q14 21 15 22q10 11 24 11l21 -15l1 -14q1 -19 -12.5 -33t-32.5 -14q-25 0 -39.5 17.5t-14.5 43.5q0 29 27 46q23 15 54 15q36 0 74 -42q1 0 1 168q0 95 -56 92q-15 0 -28.5 -15
t-11.5 -33q2 -26 22 -26q10 0 21 6q8 -10 8 -24q0 -31 -36 -31q-44 0 -44 59q0 41 26 71q31 36 84 37q118 2 118 -215v-265q0 -38 -25 -71q-21 -23 -42 -45l7 -2q68 47 150 48q15 -2 52.5 -53.5t76.5 -51.5q23 11 46 23q40 25 40 80q0 84 -27 146q-35 83 -107 83
q-18 0 -36 -10q-21 -12 -21 -28t18 -27q-16 -22 -31 -22q-18 0 -33 15.5t-15 33.5q0 25 24 46.5t50 21.5q76 0 119 -35q0 8 -6 39q-4 24 -4 38q0 42 30 90q36 58 42 79q-97 -65 -188 -65q-19 0 -42.5 9t-22.5 13q86 66 85 134q43 -78 119 -78q31 0 69.5 21.5t56.5 47.5l7 -9
q-23 -35 -45 -71q-22 -41 -22 -82q0 -52 34 -149t34 -147z" />
    <glyph glyph-name="V" unicode="V" horiz-adv-x="646" 
d="M608 334q0 -95 -41 -150q-22 -29 -117 -103q-21 -16 -48 -53q-29 -41 -44 -55q-48 66 -86 91q-30 18 -116 46q18 15 50.5 27t56.5 12q21 0 64 -25t67 -25q66 0 101 49q32 43 32 111q0 53 -37 108q-41 60 -92 60q-36 0 -36 -28q0 -14 15 -33q-14 -15 -33 -15q-35 0 -35 46
q0 28 22 43q19 14 47 14q22 0 56 -16q31 -14 50 -30q-1 9 -7 38q-5 24 -5 39q0 40 18 89q6 15 36 83q-20 -20 -55.5 -35t-62.5 -15q-18 0 -37.5 8t-38.5 8q-13 0 -32 -3v13q44 7 62 25q11 12 19 43q9 36 20 55l4 -1q13 -41 22 -54q17 -26 48 -26q35 0 103 46l8 -7
q-47 -50 -47 -109q0 -48 34.5 -135.5t34.5 -135.5zM268 322q0 -77 -40 -127q-36 -44 -112 -79q-5 -1 -17 -6l-9 12q15 26 15 53l-8 18q-7 -5 -9.5 -14t-11.5 -9q-18 0 -18 24q0 28 31 28q29 0 29 -49q0 -13 -2 -26l2 -4q19 12 35 69q13 49 13 81v68q0 36 -29 75
q-32 42 -67 42q-17 0 -37 -12t-20 -28q0 -20 25 -29q7 23 28 23l17 -22q0 -14 -39 -31q-50 7 -50 56q0 30 26 48q23 15 54 15q26 0 54.5 -19t40.5 -43v173q0 97 -69 97q-15 0 -27.5 -13t-12.5 -28q0 -21 16 -21l17 12q21 -6 21 -33q0 -13 -10.5 -24.5t-23.5 -11.5
q-18 0 -33.5 20t-15.5 38q0 49 34 76q31 24 80 24q43 0 78 -35q38 -39 44 -103q-1 -58 0 -159q1 -132 1 -126z" />
    <glyph glyph-name="W" unicode="W" horiz-adv-x="835" 
d="M800 684l-5 -9q-27 -11 -58 -54t-31 -72q0 -51 37 -127t37 -137q0 -112 -62 -180q-45 -48 -161 -103q-10 -5 -36 -15q-10 29 -19 50q-22 50 -36 54q-28 -21 -129 -111q-95 62 -151 62q-2 0 -22 -15t-24 -16l-13 11q38 21 112 88l20 22q15 -20 57.5 -42.5t67.5 -22.5
q19 0 71 43q-19 31 -54 59q-42 34 -76 34q-21 0 -37 -15l-9 8q60 48 61 106v268q-29 63 -46 62q-3 0 -5 -1q-16 -12 -39 -22l2 -453q-34 -32 -65 -58q-72 -63 -111 -88q-11 0 -14 7q37 39 37 86q0 21 1 19q-2 11 -16 19q-4 -10 -18 -25q-3 -1 -6 -1q-9 0 -16.5 8t-8.5 15
q0 15 12 25t28 10q41 2 41 -58q0 -29 -9 -56q40 35 50 110q3 24 3 105q0 169 -113 185q-26 -12 -31 -16q-10 -9 -9 -31l2 -10l22 21q6 1 10 1q18 0 20 -25q0 -29 -35 -29q-17 0 -28.5 13.5t-11.5 31.5q0 20 20.5 41.5t41.5 21.5q71 0 106 -68l-1 30v193q-1 24 -13 41
q-15 19 -37 19q-8 0 -17 -3q-15 -5 -19 -8q-7 -6 -10 -20q4 -24 20 -29l17 6l9 -26q0 -30 -33 -30q-17 0 -29.5 18t-12.5 35q0 38 30.5 63.5t68.5 25.5q39 0 75 -26.5t47 -64.5q29 0 99 104l75 -87q4 -9 11 -51q59 18 140 140q8 -8 19 -33.5t20 -35.5q15 -17 40 -17
q36 0 64 17q16 10 51 42zM777 685q-2 1 -10 9q-39 -35 -77 -71q-47 -36 -98 -36q-36 0 -86 35q-14 -23 -70 -46v-271q-40 -30 -114 -88l72 17h108q59 -157 139 -157q73 0 73 137q0 41 -36 102q-40 67 -79 67q-17 0 -30 -8q-16 -9 -16 -24l20 -32q0 -10 -21 -10q-63 0 -63 54
q0 21 25 36q22 12 44 12q47 0 76 -23q-7 31 -7 44q0 121 150 253z" />
    <glyph glyph-name="X" unicode="X" horiz-adv-x="464" 
d="M462 721q-16 -26 -55 -60q-42 -37 -61 -37q-15 0 -38 15q-19 13 -37 25q-26 -11 -34 -37q-5 -15 -5 -53v-145q81 -2 103 0q-2 -6 -10 -14.5t-25 -46.5q-23 12 -26 12.5t-22 0.5h-20v-193q0 -27 -74 -94q-52 -43 -104 -87l10 -9q45 36 91 72q70 54 80 48q19 3 62 -35.5
t54 -38.5q37 15 57 37q1 -3 11 -11q-5 -3 -68 -54q-51 -41 -66 -41q-11 0 -52 37.5t-66 37.5q-17 0 -101 -72q-9 7 -34 31q69 91 69 95q0 15 -10 29.5t-18 14.5t-9 -8q1 5 1 -14q0 -13 -19 -13q-13 6 -13.5 10.5t-1.5 9.5q0 12 10.5 22.5t22.5 10.5q54 0 55 -55q15 17 15 40
v228q-23 1 -34 1q-36 0 -67 -10q26 46 43 69q13 -12 32 -12h28q1 22 1 48q0 239 -73 239q-15 0 -30.5 -12t-15.5 -27l15 -18l14 2q12 3 17 -21q0 -10 -11 -17t-21 -7q-17 0 -28.5 15.5t-11.5 33.5q0 36 35 59q31 21 70 21q111 0 133 -66l5 -15l64 82q32 -27 91 -54
q27 -5 66 42z" />
    <glyph glyph-name="Y" unicode="Y" horiz-adv-x="649" 
d="M602 265q0 -108 -95 -189q-12 -11 -174 -114q-95 -60 -95 -118q0 -31 28 -54.5t60 -21.5q85 5 95 60q0 30 -33 25l9 14q22 16 39 16q20 0 39 -14.5t19 -34.5q0 -43 -50 -73q-43 -26 -89 -26q-56 0 -93 25q-44 29 -44 82q0 37 35 77q30 35 68 54q1 33 -44 67t-80 34
q-49 0 -98 -38q0 1 -11 10q31 27 40 40q16 22 16 54q0 24 -11 51q-14 33 -34 33h-16q14 -14 14 -27q0 -20 -23 -20q-30 0 -28 38q1 16 17 27q13 10 27 10q29 0 64 -39l4 11v78q0 83 -14 115q-21 48 -91 63q-22 0 -35 -23q23 -5 26 -36q-7 -19 -25 -19q-14 0 -25 11.5
t-11 24.5q0 25 23.5 43.5t48.5 15.5q79 -7 99 -52q2 11 2 23q-2 29 0 148q8 103 -86 103q-20 0 -33 -22q13 -2 22.5 -12.5t9.5 -20.5q0 -17 -25 -17q-29 0 -37 34q-7 28 34 51q36 19 67 19q146 0 146 -113v-456q-1 -32 -35 -57q-24 -14 -49 -28l5 -9q80 18 93 18
q63 0 152 -60l74 38q25 22 25 86q0 72 -35 130q-38 65 -99 80l-34 -21q20 -3 18 -37l-19 -10q-34 0 -34 31q0 54 73 54q13 0 58 -13q5 8 4 11q-12 20 -12 73q0 47 21 91q13 27 48 77t49 78q-109 -114 -181 -114q-31 0 -76 24q37 39 48 51q23 26 43 55q-2 -2 -2 -4
q0 -12 32 -23q28 -11 46 -11q41 0 107 58l23 -16q-23 -36 -46 -71q-25 -44 -25 -82q0 -53 38 -156.5t38 -159.5z" />
    <glyph glyph-name="Z" unicode="Z" horiz-adv-x="721" 
d="M678 268q0 -132 -152 -213q-111 -59 -270 -79q-19 67 -38 90q-28 35 -94 38q-30 1 -61 -14q-37 -18 -37 -46q25 -7 25 -32q0 -8 -5.5 -12.5t-10.5 -4.5q-27 0 -27 49q0 44 50 76q42 26 88 28q67 2 134.5 -33.5t87.5 -86.5h15q44 0 79.5 38.5t35.5 82.5q0 145 -94 145
q-17 0 -34.5 -13.5t-17.5 -30.5q0 -26 38 -31l2 -12q0 -20 -28 -20q-49 0 -49 46q0 29 28.5 54t57.5 25q112 0 112 -157q0 -25 -12 -53l1 -6q63 85 63 178q0 63 -46 112t-108 49q-17 0 -41.5 -12t-35.5 -26l-14 16q21 35 20 67q-2 32 -26 32q-5 -35 -26 -31q-13 3 -13 15
q0 11 10.5 23.5t22.5 12.5q47 1 47 -58q0 -8 -2 -15q12 8 58 67t57 77q-55 21 -110 43q-67 25 -114 25q-48 0 -97 -21q-60 -26 -60 -69q0 -9 8 -19.5t20 -11.5q10 -1 16.5 12t18.5 13q16 -1 14 -21q-1 -11 -17.5 -19.5t-33.5 -6.5q-24 2 -37 21q-11 16 -11 37q0 81 69 128
q60 41 146 41q47 0 133 -32.5t126 -32.5q8 0 43 18l3 -7l-205 -245l26 7q32 7 58 7q96 0 154 -52q60 -55 60 -150z" />
    <glyph glyph-name="bracketleft" unicode="[" horiz-adv-x="220" 
d="M75 -52h67v-52l-141 1v881h141v-50l-66 1z" />
    <glyph glyph-name="backslash" unicode="\" horiz-adv-x="422" 
d="M406 -1h-63l-331 708h59z" />
    <glyph glyph-name="bracketright" unicode="]" horiz-adv-x="220" 
d="M71 -51l-68 -1v-51h141v880h-141v-49h44q29 -1 24 -1v-778z" />
    <glyph glyph-name="asciicircum" unicode="^" horiz-adv-x="307" 
d="M0 713l-2 6l150 113l157 -115l-3 -6l-152 50z" />
    <glyph glyph-name="underscore" unicode="_" horiz-adv-x="548" 
d="M587 -150h-587v50h587v-50z" />
    <glyph glyph-name="grave" unicode="`" horiz-adv-x="274" 
d="M215 537l-9 -17l-153 75l35 57z" />
    <glyph glyph-name="a" unicode="a" horiz-adv-x="432" 
d="M269 79q3 156 1 211q-1 28 1 60q-76 56 -81 55q-42 -8 -63 -72q-14 -43 -14 -84q0 -67 37 -126q40 -64 96 -64q1 0 23 20zM418 98q-33 -48 -75 -106q-19 22 -63 64q-13 -20 -49 -44q-32 -21 -37 -20q-167 27 -167 251q0 30 26 113q135 66 173 136q37 -50 130 -93v-102
v-94.5v-94.5q10 -14 32 -26l20 26z" />
    <glyph glyph-name="b" unicode="b" horiz-adv-x="416" 
d="M380 284q0 -99 -56 -189q-64 -103 -155 -103q-18 0 -62 27q-39 23 -52 39q-19 23 -19 61l1 464q0 32 -5 42t-30 29q4 12 24 12q30 0 53 -28q26 39 63 50q19 7 26 -3q-41 -22 -44 -60v-125v-120q-4 -4 110 99q146 -61 146 -195zM189 389q-17 0 -41 -18.5t-24 -36.5l1 -145
q-2 -20 2 -56q12 -36 65 -65q21 -12 44 -12q32 0 57 40q22 36 22 70q0 107 -40 162q-44 61 -86 61z" />
    <glyph glyph-name="c" unicode="c" horiz-adv-x="383" 
d="M270 2q-4 -3 -23 -3q-93 0 -156 73q-60 69 -60 165q0 33 12 119q108 48 162 135q22 -6 130 -88l-61 -73q-79 80 -107 80q-40 0 -40 -153q0 -65 36 -109q39 -48 103 -48q49 0 82 39l6 -1q-36 -63 -84 -136z" />
    <glyph glyph-name="d" unicode="d" horiz-adv-x="443" 
d="M439 85q-34 -15 -58 -40t-47 -50q-39 15 -47 67l-2 13q-55 -87 -106 -87q-53 0 -98.5 72t-45.5 145q0 102 67 179q13 14 59 55q50 45 57 45q17 0 75 -37v138q0 61 -38 82q1 3 -4 5.5t-2 2.5q16 0 45.5 -14t39.5 -27q-3 1 -1 2q-4 0 25 28t69 33q3 -2 3 -7
q-27 -20 -36 -34q-14 -22 -14 -64v-440q0 -26 21 -42q16 -14 35 -14q3 -2 3 -11zM287 350q-95 58 -114 56q-27 -1 -44 -40q-14 -31 -14 -60q0 -64 31 -138q37 -89 91 -89q22 0 36 15t14 38v218z" />
    <glyph glyph-name="e" unicode="e" horiz-adv-x="390" 
d="M132 226l127 114q-67 67 -92 67q-37 1 -39 -139q-1 -22 4 -42zM142 192q40 -99 118 -101q51 -1 82 37l10 -9q-36 -55 -88 -121q-2 -2 -32 -1q-93 1 -148 80q-50 72 -49 173q1 22 15 110q96 41 155 134q8 -4 148 -115q-65 -55 -211 -187z" />
    <glyph glyph-name="f" unicode="f" horiz-adv-x="244" 
d="M344 644q0 -11 -34.5 -42t-46.5 -31q-7 0 -48 20q-18 9 -51 29h-9q-2 -2 -4 -8v-136h96v-35h-96v-441h-93v441h-39v36l37 -1v59q-6 63 79 101q7 3 49 28q29 16 39 16q3 0 43.5 -21t43.5 -21q7 0 26 14z" />
    <glyph glyph-name="g" unicode="g" horiz-adv-x="424" 
d="M437 478q-44 -57 -71 -84l-201 1q-18 0 -29 -53q-8 -38 -8 -69q0 -53 31 -110q37 -65 86 -65q4 0 21 15t17 20q0 2 -17.5 42t-17.5 74q0 33 20.5 73.5t47.5 60.5h9q-1 -8 -8 -31q-6 -19 -6 -30q0 -40 41.5 -108t41.5 -125q0 -98 -61.5 -160.5t-159.5 -62.5q-41 0 -94 44
l-21 -16q-10 1 -13 13q11 10 59.5 58.5t48.5 50.5q0 1 -30 35q-36 40 -57 76q-31 53 -31 98q0 29 2 37q15 73 18 81q5 14 23 23q37 18 69 41q21 16 73 71h217zM332 11q0 35 -39 105q-137 -120 -137 -129q0 -27 42 -47q35 -16 65 -16q69 0 69 87z" />
    <glyph glyph-name="h" unicode="h" horiz-adv-x="448" 
d="M248 488q13 0 45 -17q107 -56 107 -189q0 -61 -15 -113q-10 -38 -49 -101q-45 -73 -72 -73q-6 0 -62 22q-16 -15 -41 -39l-10 10q84 103 96 103q3 0 24.5 -7.5t25.5 -7.5q17 0 28 34q8 26 8 48q0 73 -37 149q-45 90 -109 88q-17 0 -30 -10q-24 -17 -28 -19v-365h-96v613
q0 27 -32 67q45 0 77 -59q7 28 26 54q26 35 60 41q-9 -16 -16 -30q-16 -34 -16 -51q-3 -8 -3 -235q10 5 62 49q46 38 57 38z" />
    <glyph glyph-name="i" unicode="i" horiz-adv-x="220" 
d="M155 636q-7 -14 -61 -101l-33 19l59 101zM219 98q-36 -48 -83 -106q-24 22 -47 44q-29 26 -58 43q6 11 23 35q2 121 0 176q0 31 -1 62q-3 39 -23 53q-8 -4 -22 -6l-4 8q2 2 45 44q39 37 42 37q9 0 26.5 -22.5t21.5 -35.5q10 -27 10 -133v-88v-88q0 -1 12 -24
q7 -14 19 -14q13 0 31 23z" />
    <glyph glyph-name="j" unicode="j" horiz-adv-x="229" 
d="M151 59q-1 -15 -1 -59q0 -23 10.5 -36t21.5 -26q-23 -23 -41 -43q-44 -50 -58 -79q-9 -19 -37 -61q-11 0 -11 9q0 3 9.5 29t9.5 28l-1 472q-2 46 -4 60q-6 37 -26 51q-4 -4 -15 -6l-4 8q2 2 45 44q39 37 42 37q9 0 27 -22t22 -34q11 -27 11 -85v-287zM155 635
q-7 -14 -61 -101l-33 19l59 101z" />
    <glyph glyph-name="k" unicode="k" horiz-adv-x="377" 
d="M369 85q0 -5 -48.5 -48t-55.5 -43q-9 0 -32 38q-47 76 -53 141q-13 -3 -50 -18q1 -60 1 -155h-95l-1 604q-15 33 -37 74q26 -5 37 -11q26 -12 42 -41q10 37 38 61.5t52 19.5q-12 -13 -24 -43.5t-12 -43.5v-259q13 0 71 62t62 63q-6 -28 -6 -44t6 -35q11 -33 15 -46
q0 -3 26.5 -40.5t26.5 -40.5q-1 -5 -39.5 -33t-46.5 -30q2 -13 9 -39q12 -33 25 -66q16 -41 37 -48q6 -2 23 14l18 18q11 -4 11 -11zM244 248q-54 68 -64 119q-21 -15 -49 -38l-1 -147q86 33 114 66z" />
    <glyph glyph-name="l" unicode="l" horiz-adv-x="226" 
d="M220 94q-72 -56 -96 -99q-4 -6 -20 19q-25 35 -67 57v544q0 20 -28 72q46 -9 71 -55q3 28 45 66q39 36 42 30q-33 -41 -32 -91v-509l44 -40l32 21q9 -10 9 -15z" />
    <glyph glyph-name="m" unicode="m" horiz-adv-x="617" 
d="M592 83q-58 -28 -151 -110v390q-4 11 -9 19q-10 21 -20 24l-61 -52v-354h-108v249v116q-1 14 -12.5 25.5t-24.5 11.5q-5 0 -56 -41v-361h-102v322q0 54 -21 67q-14 -9 -20 -9q-9 0 -8 15q10 7 48 52q36 42 40 42q15 0 37.5 -38.5t22.5 -59.5q14 8 70 56q53 44 56 44
q32 0 55 -39q19 -31 23 -69q7 5 56 57q46 48 50 48q37 -1 64 -51q20 -38 20 -61v-258q9 -27 18 -27q7 0 11 4v0h-1v0q2 1 19 6z" />
    <glyph glyph-name="n" unicode="n" horiz-adv-x="438" 
d="M243 406q28 -7 33 -43v-390q27 24 52 44q60 48 99 66l-6 18q-8 -4 -28 -13q-3 -1 -5 -1q-14 0 -12 31v258q0 24 -19 61q-26 49 -65 51q-4 0 -63 -44l-70 -54q-1 22 -20 58.5t-34 37.5q-3 0 -45 -45t-53 -52q-1 -15 6 -15q6 0 24 11q22 -14 22 -63v-322h102v356z" />
    <glyph glyph-name="o" unicode="o" horiz-adv-x="439" 
d="M216 -6q-83 19 -137 80.5t-54 143.5q0 81 37 137q27 40 101 100q28 22 42 22q64 0 117 -65q44 -54 62 -124q0 -3 2.5 -21.5t2.5 -33.5q0 -135 -173 -239zM317 163q3 25 -17 75q-18 47 -36 71q-50 66 -92 78q-12 4 -42.5 -2t-30.5 -80q0 -77 44 -149q51 -83 124 -83
q17 0 32 24q14 20 16 40z" />
    <glyph glyph-name="p" unicode="p" horiz-adv-x="410" 
d="M207 -6q-2 12 -11 26q-20 33 -65 48q1 -120 0 -173q-1 -22 26 -61q-44 -4 -79 -22t-69 -36l-1 1q32 37 28 273l1 49q-22 10 -48 -2q3 13 14 36q9 14 36 20v195q-2 11 -4.5 22.5t-12.5 17.5l-23 2l-1 4q41 29 121 92q19 -3 17 -108l13 10q5 4 102 94q46 -2 81 -91
q29 -73 29 -130q0 -86 -44 -163q-11 -20 -50 -58q-42 -42 -60 -46zM167 375q-33 0 -33 -69v-152q74 -11 126 -83l15 14q18 49 18 96q0 65 -30 123q-36 71 -96 71z" />
    <glyph glyph-name="q" unicode="q" horiz-adv-x="437" 
d="M373 -172q0 -28 14 -65q-28 20 -40 35q-10 11 -28 44q-13 -20 -25 -36q-30 -39 -54 -48q29 72 29 84q0 20 -1 36v36l1 147q-22 -14 -127 -92q-64 60 -75 76q-39 59 -39 157q0 131 85 219q54 55 107 70q45 -66 151 -101zM266 89v242q-44 30 -56 40q-15 13 -47 51
q-51 -58 -51 -132q0 -139 88 -210q19 -15 27 -15q15 0 39 24z" />
    <glyph glyph-name="r" unicode="r" horiz-adv-x="340" 
d="M337 390l-72 -76l-66 68q-17 -8 -19 -22v-29v-331q-49 0 -97 1q1 15 1 333q-22 35 -40 42l-16 -14l-12 15q71 71 91 100q19 -27 74 -84l75 82q31 -32 81 -85z" />
    <glyph glyph-name="s" unicode="s" horiz-adv-x="439" 
d="M403 407q-31 -75 -88 -75q-17 0 -40 23q-38 37 -46 43q-31 23 -67 23q-66 0 -66 -64q0 -28 24 -69q26 -45 52 -45q19 0 61 28l58 42q40 -7 67.5 -45.5t27.5 -80.5q0 -60 -60 -121q-49 -49 -114 -80q-42 25 -84 49q-49 27 -88 43q-20 -10 -33 -7l-3 8l98 72
q58 -32 169 -101q34 25 34 66q0 45 -22 79q-25 40 -67 41l-100 -70q-41 28 -59 55q-21 32 -21 77q0 67 68.5 129t136.5 62q35 0 75.5 -45.5t42 -46.5t16.5 -3l19 24z" />
    <glyph glyph-name="t" unicode="t" horiz-adv-x="294" 
d="M289 457l-48 -68h-106l-1 -260q5 -39 41 -59l63 64l14 -14q0 -6 -59 -67.5t-67 -64.5q-43 13 -85 101v298q-42 4 -56 0l1 9q31 30 147 175q13 -4 11 -11l-7 -24v-79h152z" />
    <glyph glyph-name="u" unicode="u" horiz-adv-x="452" 
d="M15 374l-14 19q99 94 104 94q16 0 35.5 -33t19.5 -54l1 -283q6 -14 12 -24q14 -25 23 -27l68 48v352h102v-312q0 -53 24 -68l11 11t14 10q3 0 6.5 -7.5t2.5 -10.5q-10 -7 -57 -55q-44 -44 -47 -44q-15 1 -34 37.5t-19 58.5q-3 -2 -66 -53q-54 -45 -58 -45q-39 2 -65 51
q-19 37 -19 61v261v17q-1 11 -14 20z" />
    <glyph glyph-name="v" unicode="v" horiz-adv-x="421" 
d="M191 -9q-17 27 -63 53q-51 29 -67 48q-31 37 -30 104q1 72 49 98q-4 -20 -4 -40q0 -46 39 -77q38 -23 76 -47q4 -2 31 -28q23 -21 26 -18q58 50 58 170q0 68 -40 107.5t-106 39.5q-42 0 -109 -22q4 9 34.5 63.5t32.5 54.5q20 -22 63 -22q10 0 30 1t28 1q70 0 109 -56
q35 -49 35 -123q0 -69 -33.5 -132.5t-89.5 -105.5q-5 -3 -35 -38q-26 -31 -34 -31z" />
    <glyph glyph-name="w" unicode="w" horiz-adv-x="626" 
d="M586 273q0 -62 -27 -116q-21 -42 -65 -90q-42 -43 -83 -85q-9 21 -44 54t-56 33q-5 0 -9 -2q-58 -36 -99 -82q-15 32 -61 68q-58 44 -73 61q-35 41 -35 98q0 31 38 93l11 -6q-8 -28 -8 -48q0 -30 37 -60l64 -42q28 -22 46 -44q15 -20 30 -41q22 14 38 59q13 40 13 71
q0 81 -53.5 139t-129.5 62q-28 1 -53 -10t-49 -23q42 60 69 131l24 -14h55q46 0 92 -30q15 -10 79 -63l103 101q5 -26 44 -59q55 -47 67 -62q35 -41 35 -93zM381 375q-13 -1 -32 -5q7 -20 14 -39q8 -23 8 -41q0 -76 -35 -144l31 -9q37 -10 90 -76q27 40 37 62q17 41 17 92
t-41 106.5t-89 53.5z" />
    <glyph glyph-name="x" unicode="x" horiz-adv-x="339" 
d="M103 135l61 -51q-14 121 -46 290q-28 20 -58 45l-37 -22l-8 9l101 82l95 -83q6 2 75 76q16 -14 53 -52l-60 -80l-64 43l41 -276l46 -47l30 20l10 -6l-92 -86q-20 7 -87 78l-74 -77l-63 56z" />
    <glyph glyph-name="y" unicode="y" horiz-adv-x="448" 
d="M403 415q-95 -161 -173 -339q-13 -29 -31 -89q-20 -69 -29 -93q10 -6 60 3l-21 -45q-20 -2 -85 0q19 54 39 109q24 65 24 113q0 92 -39 183q-44 105 -110 124q-12 -7 -31 -28q-5 3 -8.5 5t-6.5 11q95 95 101.5 101t17.5 9l102 -104q18 11 48 56t40 50zM329 332
q4 9 -70 49q-35 -26 -32 -35q22 -73 22 -138q0 -20 -2 -42z" />
    <glyph glyph-name="z" unicode="z" horiz-adv-x="293" 
d="M263 179q0 -74 -65 -143q-58 -63 -134 -89q-10 3 -10 5q0 1 3 3t4 5q137 81 137 170q0 41 -31.5 66t-76.5 25q-16 0 -44 -17q-5 22 -5 16q0 2 51 67t60 75q0 18 -63 18q-20 0 -30 -6q-14 -9 -27 -17l-12 15q1 6 42 54q36 41 51 56q7 -6 35 -13q43 3 129 0
q-48 -64 -125 -161q2 -4 34.5 -16t50.5 -32q26 -29 26 -81z" />
    <glyph glyph-name="braceleft" unicode="{" horiz-adv-x="247" 
d="M96 -77v207q0 47 -9 69q-13 30 -50 44q37 14 50 44q9 22 9 69v197q0 69 19 100q24 39 88 39v-12q-43 -22 -43 -122v-187q0 -57 -14 -82q-17 -33 -67 -45v-2q50 -12 67 -45q14 -25 14 -82v-197q0 -100 43 -122v-12q-64 0 -88 39q-19 31 -19 100z" />
    <glyph glyph-name="bar" unicode="|" horiz-adv-x="182" 
d="M74 0v674h44v-674h-44z" />
    <glyph glyph-name="braceright" unicode="}" horiz-adv-x="246" 
d="M147 553v-197q0 -47 9 -69q13 -30 50 -44q-37 -14 -50 -44q-9 -22 -9 -69v-207q0 -69 -19 -100q-24 -39 -88 -39v12q43 22 43 122v197q0 57 14 82q17 33 67 45v2q-50 12 -67 45q-14 25 -14 82v187q0 100 -43 122v12q64 0 88 -39q19 -31 19 -100z" />
    <glyph glyph-name="asciitilde" unicode="~" horiz-adv-x="291" 
d="M11 719q8 38 45 60q34 21 75 21q17 0 46.5 -14t48.5 -14q16 0 45 8t40 17q-17 -37 -52 -59.5t-75 -22.5q-17 0 -45 13.5t-42 13.5q-63 0 -86 -23z" />
    <glyph glyph-name="Adieresis" unicode="&#xc4;" horiz-adv-x="711" 
d="M690 88q-102 -66 -154 -118q-56 56 -108 70q37 37 37 127q0 16 -2 34q-94 -78 -268 -236q-6 32 -58 68.5t-86 36.5q-17 0 -53 -24l-9 11l205 237q-38 27 -77 54q-42 34 -42 79q0 68 48 98q38 24 92 20q29 -2 56 34q16 -23 50 -67l-64 -48q-23 60 -70 60q-15 0 -26 -10
t-11 -25q0 -29 42 -64q36 -31 79 -49q47 56 177 197q112 122 111 123q-113 -45 -173 -45q-47 0 -112.5 37.5t-106.5 37.5q-18 0 -44 -11q-30 -12 -30 -26q27 -23 31 -47q0 -24 -14.5 -40t-38.5 -16q-22 0 -37 12.5t-15 34.5q0 54 56 88q48 29 106 29q32 0 55 -13
q32 -18 35 -19q2 42 51 45q15 1 33 -15q27 -25 36 -31q28 -16 68 -16q98 0 172 75l28 -13q-26 -62 -26 -160v-498q0 -12 -13 -12q-7 0 -7 9l-1 504q0 81 14 130q-17 -8 -49 -52v-557q3 -65 39 -65l62 38zM467 559q-23 -21 -100 -105q-83 -90 -76 -95q32 -28 32 -102
q0 -47 -31 -88q0 -1 -66 -71q10 -8 56 2q42 9 111 66q74 61 74 98v295zM246 203q0 13 -13 44t-23 31q-4 0 -37 -41q-38 -48 -39 -49q-6 -6 -7 -13q0 -6 1 -14t1 -9q0 -13 25.5 -31t39.5 -18q17 0 36 42q16 37 16 58zM218 831q0 20 13.5 34t33.5 14q19 0 32.5 -14t13.5 -34
q0 -19 -13.5 -33t-32.5 -14q-20 0 -33.5 14t-13.5 33zM374 829q0 20 14.5 35t34.5 15t34.5 -15t14.5 -35q0 -21 -14.5 -36t-34.5 -15t-34.5 15t-14.5 36z" />
    <glyph glyph-name="Aring" unicode="&#xc5;" horiz-adv-x="711" 
d="M690 88q-102 -66 -154 -118q-56 56 -108 70q37 37 37 127q0 16 -2 34q-94 -78 -268 -236q-6 32 -58 68.5t-86 36.5q-17 0 -53 -24l-9 11l205 237q-38 27 -77 54q-42 34 -42 79q0 68 48 98q38 24 92 20q29 -2 56 34q16 -23 50 -67l-64 -48q-23 60 -70 60q-15 0 -26 -10
t-11 -25q0 -29 42 -64q36 -31 79 -49q47 56 177 197q112 122 111 123q-113 -45 -173 -45q-47 0 -112.5 37.5t-106.5 37.5q-18 0 -44 -11q-30 -12 -30 -26q27 -23 31 -47q0 -24 -14.5 -40t-38.5 -16q-22 0 -37 12.5t-15 34.5q0 54 56 88q48 29 106 29q32 0 55 -13
q32 -18 35 -19q2 42 51 45q15 1 33 -15q27 -25 36 -31q28 -16 68 -16q98 0 172 75l28 -13q-26 -62 -26 -160v-498q0 -12 -13 -12q-7 0 -7 9l-1 504q0 81 14 130q-17 -8 -49 -52v-557q3 -65 39 -65l62 38zM467 559q-23 -21 -100 -105q-83 -90 -76 -95q32 -28 32 -102
q0 -47 -31 -88q0 -1 -66 -71q10 -8 56 2q42 9 111 66q74 61 74 98v295zM246 203q0 13 -13 44t-23 31q-4 0 -37 -41q-38 -48 -39 -49q-6 -6 -7 -13q0 -6 1 -14t1 -9q0 -13 25.5 -31t39.5 -18q17 0 36 42q16 37 16 58zM313 856q0 29 21 50t50 21q30 0 50.5 -20.5t20.5 -50.5
t-20 -51t-51 -21q-29 0 -50 21t-21 51zM339 856q0 -19 13 -32.5t32 -13.5q20 0 32.5 13.5t12.5 32.5t-12.5 32t-32.5 13q-19 0 -32 -13t-13 -32z" />
    <glyph glyph-name="Ccedilla" unicode="&#xc7;" horiz-adv-x="647" 
d="M227 220v441l-25 -17v-430q-22 -27 -21 -32l21 -21q25 25 25 59zM185 633q-90 -59 -90 -215q0 -82 24 -141q15 -38 49 -82q2 2 17 23v415zM315 -18l-20 -43q102 -11 95 -67q-11 -81 -157 -74l2 16q30 0 55 18t28 39q7 49 -54 49l31 66q-85 17 -158 71q-76 57 -105 130
q-33 83 -33 165q0 128 77 221q34 41 88 75q63 40 154 80q87 39 94 39q3 0 16 -14q15 -17 23 -22q26 -21 85 -58q14 -7 31 -7q32 0 41 24q3 9 3 14q0 4 -4 8t-5 8q7 7 10 7q6 0 12.5 -8.5t6.5 -15.5q0 -35 -38.5 -66.5t-75.5 -31.5q-9 0 -17 3q-12 3 -28 8q-29 13 -71 43
q-54 39 -69 48l-1 -465l-30 -22q-22 -15 -45 -29q-28 -19 -41 -40q19 -26 79 -46t127 -20q86 0 140 35q1 0 13 11q9 8 13 8q1 -1 5 -3t3 -3q-24 -70 -99 -115q-67 -39 -138 -39q-21 0 -43 3z" />
    <glyph glyph-name="Eacute" unicode="&#xc9;" horiz-adv-x="671" 
d="M628 696q0 -35 -42 -64q-38 -27 -76 -27q-33 0 -93 40q-43 30 -87 61l1 -304q34 5 81 52q16 -3 40 -3q85 0 140 22l-72 -81h-190l1 -150q-27 -17 -49 -32q-52 -36 -67 -59q23 -32 95 -51q57 -15 111 -15q123 0 188 54l8 -6q-23 -67 -105 -112q-76 -42 -154 -42
q-154 0 -256.5 109t-102.5 264q0 168 132 272q77 61 281 143q26 -29 73 -62q54 -39 82 -39q20 0 33 14q11 11 11 25t-9 17l16 7zM227 661l-25 -17v-430l-21 -32l21 -21q25 25 25 59v441zM185 218v415q-90 -59 -90 -215q0 -129 73 -223zM263 794l8 -17l212 57l-33 63z" />
    <glyph glyph-name="Ntilde" unicode="&#xd1;" horiz-adv-x="648" 
d="M629 46l-85 -63q-31 17 -61 33q-39 21 -64 21q-84 0 -124 -45l-11 6q31 59 92 113v404q0 44 -19 78q-23 40 -65 40q-14 0 -32 -5v-452q0 -72 -56 -130t-128 -58q-85 0 -85 72q0 67 56 67q39 0 39 -35q0 -22 -22 -22q-28 0 -37 15q-2 3 -7 -12t-5 -19q0 -16 13 -31.5
t28 -15.5q90 0 90 103q0 219 -1 236q-14 75 -70 81q-5 1 -18 -3q8 -20 7 -28l-23 -25h-5q-7 0 -15.5 10.5t-8.5 18.5q0 21 18.5 35t39.5 14q23 0 42 -15q8 -7 32 -33q0 140 -1 190.5t-86 62.5q-16 2 -20 -21q8 -17 8 -25q0 -14 -21 -18q-31 -1 -31 41q0 17 20.5 31t39.5 14
q11 0 56 -16.5t80 -16.5q49 0 101 27t60 61q82 -46 110 -88q34 -49 34 -138l-1 -361q-60 -20 -89 -40q-20 -15 -73 -70q37 22 75 44q49 28 90 28q19 0 37 -5q-1 24 -1 637l18 2v-647q30 -17 79 -47zM141 769q8 38 45 60q34 21 75 21q17 0 46.5 -14t48.5 -14q16 0 45 8t40 17
q-17 -37 -52 -59.5t-75 -22.5q-17 0 -45 13.5t-42 13.5q-63 0 -86 -23z" />
    <glyph glyph-name="Odieresis" unicode="&#xd6;" horiz-adv-x="731" 
d="M683 433q0 -132 -85 -260.5t-206 -183.5q-34 22 -79 41q-53 20 -85 20q-60 0 -101 -48l-42 36q35 28 101 83q-70 14 -124.5 86.5t-54.5 158.5q0 92 27 141q26 45 98 95q79 55 104 89q12 19 23 38q12 15 40 15q147 0 259 -79q125 -90 125 -232zM599 342q0 127 -82 216
q-85 90 -212 90q-93 0 -152 -65q-55 -64 -55 -158q0 -81 34 -147q43 -83 116 -83q23 0 38 17t15 39q0 32 -19 48q-7 5 -37 18q-20 8 -20 22q5 3 25 11q14 5 25 22q20 36 40 73q24 30 76 30q19 0 40 -16.5t21 -35.5q0 -18 -12.5 -32.5t-31.5 -14.5q-8 0 -17 6.5t-9 14.5
q0 22 10 22q5 0 18 -5l19 16q-1 12 -16.5 21t-28.5 9q-26 0 -45.5 -16t-19.5 -42q0 -23 18 -48t40 -25q8 0 16 4l15 -20q-1 -12 -133.5 -135t-158.5 -138q1 -3 14 -15q142 117 156 117q12 0 26 -20q64 -19 74 -21q32 -7 77 -7q68 0 106 94q30 73 30 154zM218 831
q0 20 13.5 34t33.5 14q19 0 32.5 -14t13.5 -34q0 -19 -13.5 -33t-32.5 -14q-20 0 -33.5 14t-13.5 33zM374 829q0 20 14.5 35t34.5 15t34.5 -15t14.5 -35q0 -21 -14.5 -36t-34.5 -15t-34.5 15t-14.5 36z" />
    <glyph glyph-name="Udieresis" unicode="&#xdc;" horiz-adv-x="689" 
d="M643 285q0 -86 -55 -141q-23 -23 -114 -76q-73 -43 -96 -88q-8 1 -27 40q-23 47 -48 70q-40 38 -101 38q-56 0 -114 -40l-11 3q20 38 20 56q0 13 -5 30q-6 23 -16 22q-1 -1 -14 -18q-7 -10 -17 -10q-16 8 -16.5 9t-1.5 7q-2 28 27 37q9 3 17 3q42 0 42 -77q0 -14 -1 -29
q39 61 37 92v83q0 69 -1 75q-13 87 -92 87q-17 0 -32 -13t-15 -31q0 -23 13 -32q17 6 7 20q14 21 15 22q10 11 24 11l21 -15l1 -14q1 -19 -12.5 -33t-32.5 -14q-25 0 -39.5 17.5t-14.5 43.5q0 29 27 46q23 15 54 15q36 0 74 -42q1 0 1 168q0 95 -56 92q-15 0 -28.5 -15
t-11.5 -33q2 -26 22 -26q10 0 21 6q8 -10 8 -24q0 -31 -36 -31q-44 0 -44 59q0 41 26 71q31 36 84 37q118 2 118 -215v-265q0 -38 -25 -71q-21 -23 -42 -45l7 -2q68 47 150 48q15 -2 52.5 -53.5t76.5 -51.5q23 11 46 23q40 25 40 80q0 84 -27 146q-35 83 -107 83
q-18 0 -36 -10q-21 -12 -21 -28t18 -27q-16 -22 -31 -22q-18 0 -33 15.5t-15 33.5q0 25 24 46.5t50 21.5q76 0 119 -35q0 8 -6 39q-4 24 -4 38q0 42 30 90q36 58 42 79q-97 -65 -188 -65q-19 0 -42.5 9t-22.5 13q86 66 85 134q43 -78 119 -78q31 0 69.5 21.5t56.5 47.5l7 -9
q-23 -35 -45 -71q-22 -41 -22 -82q0 -52 34 -149t34 -147zM218 831q0 20 13.5 34t33.5 14q19 0 32.5 -14t13.5 -34q0 -19 -13.5 -33t-32.5 -14q-20 0 -33.5 14t-13.5 33zM374 829q0 20 14.5 35t34.5 15t34.5 -15t14.5 -35q0 -21 -14.5 -36t-34.5 -15t-34.5 15t-14.5 36z" />
    <glyph glyph-name="aacute" unicode="&#xe1;" horiz-adv-x="432" 
d="M269 79q3 156 1 211q-1 28 1 60q-76 56 -81 55q-42 -8 -63 -72q-14 -43 -14 -84q0 -67 37 -126q40 -64 96 -64q1 0 23 20zM418 98q-33 -48 -75 -106q-19 22 -63 64q-13 -20 -49 -44q-32 -21 -37 -20q-167 27 -167 251q0 30 26 113q135 66 173 136q37 -50 130 -93v-102
v-94.5v-94.5q10 -14 32 -26l20 26zM147 537l9 -17l152 75l-34 57z" />
    <glyph glyph-name="agrave" unicode="&#xe0;" horiz-adv-x="432" 
d="M269 79q3 156 1 211q-1 28 1 60q-76 56 -81 55q-42 -8 -63 -72q-14 -43 -14 -84q0 -67 37 -126q40 -64 96 -64q1 0 23 20zM418 98q-33 -48 -75 -106q-19 22 -63 64q-13 -20 -49 -44q-32 -21 -37 -20q-167 27 -167 251q0 30 26 113q135 66 173 136q37 -50 130 -93v-102
v-94.5v-94.5q10 -14 32 -26l20 26zM305 537l-9 -17l-153 75l35 57z" />
    <glyph glyph-name="acircumflex" unicode="&#xe2;" horiz-adv-x="432" 
d="M269 79q3 156 1 211q-1 28 1 60q-76 56 -81 55q-42 -8 -63 -72q-14 -43 -14 -84q0 -67 37 -126q40 -64 96 -64q1 0 23 20zM418 98q-33 -48 -75 -106q-19 22 -63 64q-13 -20 -49 -44q-32 -21 -37 -20q-167 27 -167 251q0 30 26 113q135 66 173 136q37 -50 130 -93v-102
v-94.5v-94.5q10 -14 32 -26l20 26zM104 504l-5 13l127 97l134 -100l-8 -13l-124 52z" />
    <glyph glyph-name="adieresis" unicode="&#xe4;" horiz-adv-x="432" 
d="M269 79q3 156 1 211q-1 28 1 60q-76 56 -81 55q-42 -8 -63 -72q-14 -43 -14 -84q0 -67 37 -126q40 -64 96 -64q1 0 23 20zM418 98q-33 -48 -75 -106q-19 22 -63 64q-13 -20 -49 -44q-32 -21 -37 -20q-167 27 -167 251q0 30 26 113q135 66 173 136q37 -50 130 -93v-102
v-94.5v-94.5q10 -14 32 -26l20 26zM303 518q-16 0 -27.5 12t-11.5 29q0 16 11.5 28t27.5 12t27.5 -12t11.5 -28q0 -17 -11.5 -29t-27.5 -12zM165 524q-15 0 -26 11t-11 26q0 16 11 27t26 11q14 0 25 -11t11 -27q0 -15 -11 -26t-25 -11z" />
    <glyph glyph-name="atilde" unicode="&#xe3;" horiz-adv-x="432" 
d="M269 79q3 156 1 211q-1 28 1 60q-76 56 -81 55q-42 -8 -63 -72q-14 -43 -14 -84q0 -67 37 -126q40 -64 96 -64q1 0 23 20zM418 98q-33 -48 -75 -106q-19 22 -63 64q-13 -20 -49 -44q-32 -21 -37 -20q-167 27 -167 251q0 30 26 113q135 66 173 136q37 -50 130 -93v-102
v-94.5v-94.5q10 -14 32 -26l20 26zM94 532q7 32 39 52q29 17 63 17q14 0 39.5 -12t41.5 -12q14 0 38.5 7t33.5 15q-14 -32 -43.5 -51t-64.5 -19q-14 0 -37.5 11.5t-36.5 11.5q-53 0 -73 -20z" />
    <glyph glyph-name="aring" unicode="&#xe5;" horiz-adv-x="432" 
d="M269 79q3 156 1 211q-1 28 1 60q-76 56 -81 55q-42 -8 -63 -72q-14 -43 -14 -84q0 -67 37 -126q40 -64 96 -64q1 0 23 20zM418 98q-33 -48 -75 -106q-19 22 -63 64q-13 -20 -49 -44q-32 -21 -37 -20q-167 27 -167 251q0 30 26 113q135 66 173 136q37 -50 130 -93v-102
v-94.5v-94.5q10 -14 32 -26l20 26zM153 596q0 29 21 50t50 21q30 0 50.5 -20.5t20.5 -50.5t-20 -51t-51 -21q-29 0 -50 21t-21 51zM179 596q0 -19 13 -32.5t32 -13.5q20 0 32.5 13.5t12.5 32.5t-12.5 32t-32.5 13q-19 0 -32 -13t-13 -32z" />
    <glyph glyph-name="ccedilla" unicode="&#xe7;" horiz-adv-x="383" 
d="M270 2q-4 -3 -23 -3q-21 0 -41 4l-19 -40q87 -10 81 -57q-10 -69 -134 -63l3 14q25 0 46.5 15t23.5 33q6 42 -46 42l29 60q-71 21 -115 86t-44 144q0 33 12 119q108 48 162 135q22 -6 130 -88l-61 -73q-79 80 -107 80q-40 0 -40 -153q0 -65 36 -109q39 -48 103 -48
q49 0 82 39l6 -1q-36 -63 -84 -136z" />
    <glyph glyph-name="eacute" unicode="&#xe9;" horiz-adv-x="390" 
d="M132 226l127 114q-67 67 -92 67q-37 1 -39 -139q-1 -22 4 -42zM142 192q40 -99 118 -101q51 -1 82 37l10 -9q-36 -55 -88 -121q-2 -2 -32 -1q-93 1 -148 80q-50 72 -49 173q1 22 15 110q96 41 155 134q8 -4 148 -115q-65 -55 -211 -187zM127 537l9 -17l152 75l-34 57z
" />
    <glyph glyph-name="egrave" unicode="&#xe8;" horiz-adv-x="390" 
d="M132 226l127 114q-67 67 -92 67q-37 1 -39 -139q-1 -22 4 -42zM142 192q40 -99 118 -101q51 -1 82 37l10 -9q-36 -55 -88 -121q-2 -2 -32 -1q-93 1 -148 80q-50 72 -49 173q1 22 15 110q96 41 155 134q8 -4 148 -115q-65 -55 -211 -187zM295 537l-9 -17l-153 75l35 57z
" />
    <glyph glyph-name="ecircumflex" unicode="&#xea;" horiz-adv-x="390" 
d="M132 226l127 114q-67 67 -92 67q-37 1 -39 -139q-1 -22 4 -42zM142 192q40 -99 118 -101q51 -1 82 37l10 -9q-36 -55 -88 -121q-2 -2 -32 -1q-93 1 -148 80q-50 72 -49 173q1 22 15 110q96 41 155 134q8 -4 148 -115q-65 -55 -211 -187zM84 504l-5 13l127 97l134 -100
l-8 -13l-124 52z" />
    <glyph glyph-name="edieresis" unicode="&#xeb;" horiz-adv-x="390" 
d="M132 226l127 114q-67 67 -92 67q-37 1 -39 -139q-1 -22 4 -42zM142 192q40 -99 118 -101q51 -1 82 37l10 -9q-36 -55 -88 -121q-2 -2 -32 -1q-93 1 -148 80q-50 72 -49 173q1 22 15 110q96 41 155 134q8 -4 148 -115q-65 -55 -211 -187zM273 518q-16 0 -27.5 12t-11.5 29
q0 16 11.5 28t27.5 12t27.5 -12t11.5 -28q0 -17 -11.5 -29t-27.5 -12zM135 524q-15 0 -26 11t-11 26q0 16 11 27t26 11q14 0 25 -11t11 -27q0 -15 -11 -26t-25 -11z" />
    <glyph glyph-name="iacute" unicode="&#xed;" horiz-adv-x="220" 
d="M219 98q-36 -48 -83 -106q-24 22 -47 44q-29 26 -58 43q6 11 23 35q2 121 0 176q0 31 -1 62q-3 39 -23 53q-8 -4 -22 -6l-4 8q2 2 45 44q39 37 42 37q9 0 26.5 -22.5t21.5 -35.5q10 -27 10 -133v-88v-88q0 -1 12 -24q7 -14 19 -14q13 0 31 23zM7 537l9 -17l152 75l-34 57
z" />
    <glyph glyph-name="igrave" unicode="&#xec;" horiz-adv-x="220" 
d="M219 98q-36 -48 -83 -106q-24 22 -47 44q-29 26 -58 43q6 11 23 35q2 121 0 176q0 31 -1 62q-3 39 -23 53q-8 -4 -22 -6l-4 8q2 2 45 44q39 37 42 37q9 0 26.5 -22.5t21.5 -35.5q10 -27 10 -133v-88v-88q0 -1 12 -24q7 -14 19 -14q13 0 31 23zM165 537l-9 -17l-153 75
l35 57z" />
    <glyph glyph-name="icircumflex" unicode="&#xee;" horiz-adv-x="220" 
d="M219 98q-36 -48 -83 -106q-24 22 -47 44q-29 26 -58 43q6 11 23 35q2 121 0 176q0 31 -1 62q-3 39 -23 53q-8 -4 -22 -6l-4 8q2 2 45 44q39 37 42 37q9 0 26.5 -22.5t21.5 -35.5q10 -27 10 -133v-88v-88q0 -1 12 -24q7 -14 19 -14q13 0 31 23zM-26 504l-5 13l127 97
l134 -100l-8 -13l-124 52z" />
    <glyph glyph-name="idieresis" unicode="&#xef;" horiz-adv-x="220" 
d="M219 98q-36 -48 -83 -106q-24 22 -47 44q-29 26 -58 43q6 11 23 35q2 121 0 176q0 31 -1 62q-3 39 -23 53q-8 -4 -22 -6l-4 8q2 2 45 44q39 37 42 37q9 0 26.5 -22.5t21.5 -35.5q10 -27 10 -133v-88v-88q0 -1 12 -24q7 -14 19 -14q13 0 31 23zM163 518q-16 0 -27.5 12
t-11.5 29q0 16 11.5 28t27.5 12t27.5 -12t11.5 -28q0 -17 -11.5 -29t-27.5 -12zM25 524q-15 0 -26 11t-11 26q0 16 11 27t26 11q14 0 25 -11t11 -27q0 -15 -11 -26t-25 -11z" />
    <glyph glyph-name="ntilde" unicode="&#xf1;" horiz-adv-x="438" 
d="M243 406q28 -7 33 -43v-390q27 24 52 44q60 48 99 66l-6 18q-8 -4 -28 -13q-3 -1 -5 -1q-14 0 -12 31v258q0 24 -19 61q-26 49 -65 51q-4 0 -63 -44l-70 -54q-1 22 -20 58.5t-34 37.5q-3 0 -45 -45t-53 -52q-1 -15 6 -15q6 0 24 11q22 -14 22 -63v-322h102v356zM74 532
q7 32 39 52q29 17 63 17q14 0 39.5 -12t41.5 -12q14 0 38.5 7t33.5 15q-14 -32 -43.5 -51t-64.5 -19q-14 0 -37.5 11.5t-36.5 11.5q-53 0 -73 -20z" />
    <glyph glyph-name="oacute" unicode="&#xf3;" horiz-adv-x="439" 
d="M216 -6q-83 19 -137 80.5t-54 143.5q0 81 37 137q27 40 101 100q28 22 42 22q64 0 117 -65q44 -54 62 -124q0 -3 2.5 -21.5t2.5 -33.5q0 -135 -173 -239zM317 163q3 25 -17 75q-18 47 -36 71q-50 66 -92 78q-12 4 -42.5 -2t-30.5 -80q0 -77 44 -149q51 -83 124 -83
q17 0 32 24q14 20 16 40zM137 537l9 -17l152 75l-34 57z" />
    <glyph glyph-name="ograve" unicode="&#xf2;" horiz-adv-x="439" 
d="M216 -6q-83 19 -137 80.5t-54 143.5q0 81 37 137q27 40 101 100q28 22 42 22q64 0 117 -65q44 -54 62 -124q0 -3 2.5 -21.5t2.5 -33.5q0 -135 -173 -239zM317 163q3 25 -17 75q-18 47 -36 71q-50 66 -92 78q-12 4 -42.5 -2t-30.5 -80q0 -77 44 -149q51 -83 124 -83
q17 0 32 24q14 20 16 40zM295 537l-9 -17l-153 75l35 57z" />
    <glyph glyph-name="ocircumflex" unicode="&#xf4;" horiz-adv-x="439" 
d="M216 -6q-83 19 -137 80.5t-54 143.5q0 81 37 137q27 40 101 100q28 22 42 22q64 0 117 -65q44 -54 62 -124q0 -3 2.5 -21.5t2.5 -33.5q0 -135 -173 -239zM317 163q3 25 -17 75q-18 47 -36 71q-50 66 -92 78q-12 4 -42.5 -2t-30.5 -80q0 -77 44 -149q51 -83 124 -83
q17 0 32 24q14 20 16 40zM94 504l-5 13l127 97l134 -100l-8 -13l-124 52z" />
    <glyph glyph-name="odieresis" unicode="&#xf6;" horiz-adv-x="439" 
d="M216 -6q-83 19 -137 80.5t-54 143.5q0 81 37 137q27 40 101 100q28 22 42 22q64 0 117 -65q44 -54 62 -124q0 -3 2.5 -21.5t2.5 -33.5q0 -135 -173 -239zM317 163q3 25 -17 75q-18 47 -36 71q-50 66 -92 78q-12 4 -42.5 -2t-30.5 -80q0 -77 44 -149q51 -83 124 -83
q17 0 32 24q14 20 16 40zM283 518q-16 0 -27.5 12t-11.5 29q0 16 11.5 28t27.5 12t27.5 -12t11.5 -28q0 -17 -11.5 -29t-27.5 -12zM145 524q-15 0 -26 11t-11 26q0 16 11 27t26 11q14 0 25 -11t11 -27q0 -15 -11 -26t-25 -11z" />
    <glyph glyph-name="otilde" unicode="&#xf5;" horiz-adv-x="439" 
d="M216 -6q-83 19 -137 80.5t-54 143.5q0 81 37 137q27 40 101 100q28 22 42 22q64 0 117 -65q44 -54 62 -124q0 -3 2.5 -21.5t2.5 -33.5q0 -135 -173 -239zM317 163q3 25 -17 75q-18 47 -36 71q-50 66 -92 78q-12 4 -42.5 -2t-30.5 -80q0 -77 44 -149q51 -83 124 -83
q17 0 32 24q14 20 16 40zM84 532q7 32 39 52q29 17 63 17q14 0 39.5 -12t41.5 -12q14 0 38.5 7t33.5 15q-14 -32 -43.5 -51t-64.5 -19q-14 0 -37.5 11.5t-36.5 11.5q-53 0 -73 -20z" />
    <glyph glyph-name="uacute" unicode="&#xfa;" horiz-adv-x="452" 
d="M15 374l-14 19q99 94 104 94q16 0 35.5 -33t19.5 -54l1 -283q6 -14 12 -24q14 -25 23 -27l68 48v352h102v-312q0 -53 24 -68l11 11t14 10q3 0 6.5 -7.5t2.5 -10.5q-10 -7 -57 -55q-44 -44 -47 -44q-15 1 -34 37.5t-19 58.5q-3 -2 -66 -53q-54 -45 -58 -45q-39 2 -65 51
q-19 37 -19 61v261v17q-1 11 -14 20zM137 537l9 -17l152 75l-34 57z" />
    <glyph glyph-name="ugrave" unicode="&#xf9;" horiz-adv-x="452" 
d="M15 374l-14 19q99 94 104 94q16 0 35.5 -33t19.5 -54l1 -283q6 -14 12 -24q14 -25 23 -27l68 48v352h102v-312q0 -53 24 -68l11 11t14 10q3 0 6.5 -7.5t2.5 -10.5q-10 -7 -57 -55q-44 -44 -47 -44q-15 1 -34 37.5t-19 58.5q-3 -2 -66 -53q-54 -45 -58 -45q-39 2 -65 51
q-19 37 -19 61v261v17q-1 11 -14 20zM285 537l-9 -17l-153 75l35 57z" />
    <glyph glyph-name="ucircumflex" unicode="&#xfb;" horiz-adv-x="452" 
d="M15 374l-14 19q99 94 104 94q16 0 35.5 -33t19.5 -54l1 -283q6 -14 12 -24q14 -25 23 -27l68 48v352h102v-312q0 -53 24 -68l11 11t14 10q3 0 6.5 -7.5t2.5 -10.5q-10 -7 -57 -55q-44 -44 -47 -44q-15 1 -34 37.5t-19 58.5q-3 -2 -66 -53q-54 -45 -58 -45q-39 2 -65 51
q-19 37 -19 61v261v17q-1 11 -14 20zM84 504l-5 13l127 97l134 -100l-8 -13l-124 52z" />
    <glyph glyph-name="udieresis" unicode="&#xfc;" horiz-adv-x="452" 
d="M15 374l-14 19q99 94 104 94q16 0 35.5 -33t19.5 -54l1 -283q6 -14 12 -24q14 -25 23 -27l68 48v352h102v-312q0 -53 24 -68l11 11t14 10q3 0 6.5 -7.5t2.5 -10.5q-10 -7 -57 -55q-44 -44 -47 -44q-15 1 -34 37.5t-19 58.5q-3 -2 -66 -53q-54 -45 -58 -45q-39 2 -65 51
q-19 37 -19 61v261v17q-1 11 -14 20zM273 518q-16 0 -27.5 12t-11.5 29q0 16 11.5 28t27.5 12t27.5 -12t11.5 -28q0 -17 -11.5 -29t-27.5 -12zM135 524q-15 0 -26 11t-11 26q0 16 11 27t26 11q14 0 25 -11t11 -27q0 -15 -11 -26t-25 -11z" />
    <glyph glyph-name="dagger" unicode="&#x2020;" horiz-adv-x="417" 
d="M164 489q-21 -1 -62 -20.5t-59 -19.5q-49 0 -49 56q0 60 49 60q17 0 58 -22t63 -24q0 36 -23 90.5t-23 69.5q0 26 17 42t43 16t42.5 -16t16.5 -42q0 -15 -23.5 -70t-23.5 -90q22 2 63.5 24t57.5 22q50 0 50 -62q0 -61 -50 -61q-15 0 -56.5 22.5t-64.5 24.5
q6 -107 61 -171q-39 -84 -51 -198q-8 -84 -10 -207h-28q-4 160 -8 207q-12 116 -50 198q55 64 60 171z" />
    <glyph glyph-name="degree" unicode="&#xb0;" horiz-adv-x="298" 
d="M144 749q52 0 88 -37t36 -89t-36 -88.5t-88 -36.5t-88.5 36.5t-36.5 88.5q0 53 36 89.5t89 36.5zM144 709q-36 0 -60.5 -25t-24.5 -61q0 -35 25 -60t60 -25t59.5 25t24.5 60t-24.5 60.5t-59.5 25.5z" />
    <glyph glyph-name="cent" unicode="&#xa2;" horiz-adv-x="370" 
d="M159 202v225q-12 6 -18 6q-32 0 -32 -120q0 -73 50 -111zM159 573h22v-68q27 -13 107 -75l-55 -66q-26 26 -52 47v-222q21 -9 45 -9q42 0 70 35l10 -2q-31 -56 -76 -122q-4 -2 -21 -2q-14 0 -28 2v-95h-22v100q-62 18 -100 74.5t-38 125.5q0 19 11 95q80 35 127 98v84z
" />
    <glyph glyph-name="sterling" unicode="&#xa3;" horiz-adv-x="424" 
d="M8 -4q1 17 13 39q84 162 84 179v65l-84 1v35h76l-29 78q-7 20 -7 40q0 55 54 102q51 45 152 45q42 0 78 -32l15 14l9 -8q-41 -36 -75 -89q-84 86 -102 84q-50 -7 -50 -66q0 -22 6 -43l37 -125h121v-35l-117 -1l-7 -62q-2 -18 -50 -72q-36 -35 -77 -79q144 54 191 54
q53 0 118 -34l12 17l8 -8q-34 -51 -58 -101q-75 45 -155 45q-31 0 -62 -13q-25 -11 -51 -22q-8 -6 -18.5 -7.5t-20.5 -2.5z" />
    <glyph glyph-name="section" unicode="&#xa7;" horiz-adv-x="11" 
 />
    <glyph glyph-name="bullet" unicode="&#x2022;" horiz-adv-x="244" 
d="M-5 267q0 42 31 70.5t73 28.5t73 -28.5t31 -70.5t-31 -70.5t-73 -28.5t-73 28.5t-31 70.5z" />
    <glyph glyph-name="paragraph" unicode="&#xb6;" horiz-adv-x="492" 
d="M462 -65h-282v30q25 0 58 1q1 39 1 64v283l-31 -1q-85 -3 -136.5 44t-51.5 132q0 104 66 145q54 33 162 32l214 -2q0 -16 1 -34h-58v-660h58q-1 -17 -1 -34zM352 -35v667h-63v-667h63z" />
    <glyph glyph-name="germandbls" unicode="&#xdf;" horiz-adv-x="451" 
d="M311 644q0 -11 -34.5 -42t-46.5 -31q-7 0 -48 20q-18 9 -51 29h-9q-2 -2 -4 -8v-136h158q69 -5 129 0q-16 -17 -67 -90q-52 -76 -65 -91q39 -5 69 -32q48 -45 48 -140q0 -76 -65 -153q-61 -74 -134 -99q-10 3 -10 5q0 1 3 3t4 5q53 31 90 75q47 54 47 105q0 46 -34 93.5
t-75 47.5q-15 0 -43 -17q-6 22 -6 16q0 2 58 85t66 92q11 17 11 29q0 27 -60 27q-49 0 -48 0h-76l-1 -497l-80 -78l-2 575h-39v40l37 -1v59q-1 14 -1 18q0 52 70 83q7 3 49 28q29 16 39 16q3 0 43.5 -21t43.5 -21q7 0 26 14z" />
    <glyph glyph-name="registered" unicode="&#xae;" horiz-adv-x="343" 
d="M185 720q60 0 102.5 -43.5t42.5 -103.5q0 -61 -43 -104t-104 -43t-104 43t-43 104q0 62 43.5 104.5t105.5 42.5zM182 699q-51 0 -86 -37t-35 -88q0 -52 35 -88.5t87 -36.5t87 36.5t35 88.5t-35.5 88.5t-87.5 36.5zM166 568v-41q0 -9 1 -15q7 -3 24 -3v-14h-89v14
q14 0 21 3q2 6 2 15v92q0 8 -2 15q-6 2 -21 2v15h95q58 0 58 -40q0 -31 -38 -39q21 -8 30 -57q2 -2 5 -3q8 0 8 20h15v-5q0 -35 -38 -35q-26 0 -34 22q-2 5 -7 45q-4 9 -30 9zM166 583h11q34 0 34 27q0 26 -25 26h-9q-11 0 -11 -12v-41z" />
    <glyph glyph-name="copyright" unicode="&#xa9;" horiz-adv-x="755" 
d="M373 -50q-150 0 -256.5 106t-106.5 256q0 154 106.5 259t260.5 105q149 0 254 -107t105 -256q0 -151 -106 -257t-257 -106zM369 634q-129 0 -217.5 -95.5t-88.5 -225.5q0 -131 90 -226t220 -95t220 95t90 226q0 134 -90 227.5t-224 93.5zM372 113q-87 0 -140.5 53.5
t-53.5 140.5q0 89 56 146.5t144 57.5q51 0 98 -28l29 26h21l6 -151l-27 -3q-36 129 -122 129q-100 0 -100 -168q0 -171 107 -171q95 0 118 115l31 -8q-30 -139 -167 -139z" />
    <glyph glyph-name="trademark" unicode="&#x2122;" horiz-adv-x="586" 
d="M219 689l5 -82h-20q-12 63 -46 63l-5 -3l-1 -7v-141q0 -13 2 -21q10 -4 31 -4v-19h-122v19q22 0 32 4q1 9 1 21v141l-1 8l-5 2q-34 0 -46 -63h-19l4 82h190zM357 689l40 -115l39 115h99v-19q-19 0 -28 -4q-2 -8 -2 -21v-126q0 -13 2 -21q9 -4 28 -4v-19h-116v19
q19 0 28 4q2 9 2 21v133l-61 -177h-14l-61 175v-112q0 -24 4 -31q6 -13 27 -13v-19h-87v19h2q20 0 26 13q4 8 4 31v107q0 12 -2 21q-10 4 -27 4v19h97z" />
    <glyph glyph-name="acute" unicode="&#xb4;" horiz-adv-x="274" 
d="M57 537l9 -17l152 75l-34 57z" />
    <glyph glyph-name="dieresis" unicode="&#xa8;" horiz-adv-x="380" 
d="M292 559q0 -17 -11.5 -29t-27.5 -12t-27.5 12t-11.5 29q0 16 11.5 28t27.5 12t27.5 -12t11.5 -28zM115 523q-16 0 -27 11t-11 27q0 17 11 28t27 11q15 0 26 -11t11 -28q0 -16 -11 -27t-26 -11z" />
    <glyph glyph-name="AE" unicode="&#xc6;" horiz-adv-x="1151" 
d="M467 559q-23 -21 -100 -105q-83 -90 -76 -95q32 -28 32 -102q0 -47 -31 -88q0 -1 -66 -71q10 -8 56 2q42 9 111 66q74 61 74 98v295zM246 203q0 13 -13 44t-23 31q-4 0 -37 -41q-38 -48 -39 -49q-6 -6 -7 -13q0 -6 1 -14t1 -9q0 -13 25.5 -31t39.5 -18q17 0 36 42
q16 37 16 58zM1108 696q0 -35 -42 -64q-38 -27 -76 -27q-33 0 -93 40q-43 30 -87 61l1 -304q34 5 81 52q16 -3 40 -3q85 0 140 22l-72 -81h-190l1 -150q-27 -17 -49 -32q-52 -36 -67 -59q23 -32 95 -51q57 -15 111 -15q123 0 188 54l8 -6q-23 -67 -105 -112
q-76 -42 -154 -42q-166 0 -232 97q-22 -43 -86 -107l-42.5 42.5t-49.5 28.5q37 37 37 127q0 16 -2 34q-94 -78 -268 -236q-6 32 -58 68.5t-86 36.5q-17 0 -53 -24l-9 11l205 237q-38 27 -77 54q-42 34 -42 79q0 68 48 98q38 24 92 20q29 -2 56 34q16 -23 50 -67l-64 -48
q-23 60 -70 60q-15 0 -26 -10t-11 -25q0 -29 42 -64q36 -31 79 -49q47 56 177 197q112 122 111 123q-113 -45 -173 -45q-47 0 -112.5 37.5t-106.5 37.5q-18 0 -44 -11q-30 -12 -30 -26q27 -23 31 -47q0 -24 -14.5 -40t-38.5 -16q-22 0 -37 12.5t-15 34.5q0 54 56 88
q48 29 106 29q32 0 55 -13q32 -18 35 -19q2 42 51 45q15 1 33 -15q27 -25 36 -31q28 -16 68 -16q98 0 172 75l23 -13q-7 -10 -77 -79v-90q53 53 145 99q52 27 170 74q26 -29 73 -62q54 -39 82 -39q20 0 33 14q11 11 11 25t-9 17l16 7zM707 661l-25 -17v-430l-21 -32l21 -21
q25 25 25 59v441zM665 218v415q-88 -58 -88 -180q-9 -25 -9 -56q0 -29 8 -57q-1 -59 18 -85l54 -60z" />
    <glyph glyph-name="Oslash" unicode="&#xd8;" horiz-adv-x="731" 
d="M526 544l-322 -331q40 -31 83 -31l-172 -144q2 -3 15 -13q142 117 156 117q12 0 26 -20q64 -19 74 -21q32 -7 77 -7q68 0 106 94q30 73 30 154q0 117 -73 202zM176 240l321 336q-74 72 -192 72q-93 0 -152 -65q-55 -64 -55 -158q0 -108 78 -185zM3 59l103 105
q-99 73 -99 202q0 92 27 141q26 45 98 95q79 55 104 89q12 19 23 38q12 15 40 15q166 0 271 -89l64 64l24 -29l-58 -61q83 -82 83 -196q0 -132 -85 -260.5t-206 -183.5q-34 22 -79 41q-53 20 -85 20q-60 0 -101 -48l-42 36q35 28 101 83q-26 5 -51 19l-105 -110z" />
    <glyph glyph-name="plusminus" unicode="&#xb1;" horiz-adv-x="23" 
 />
    <glyph glyph-name="yen" unicode="&#xa5;" horiz-adv-x="559" 
d="M137 268h93v18l-15 41q-21 48 -61 120q-30 38 -67 38q-41 0 -59 -48q-8 23 -8 40q0 44 27 71t70 27q82 0 174 -225l89 225q27 -28 65 -28q28 0 57 28q-15 -115 -102 -115q-2 0 -28 10l-56 -135l-15 -46v-21h100v-37h-100v-48h100v-37h-100v-58q37 -14 51 -35l13 11l7 -11
q-73 -51 -90 -77q-23 47 -57 53q-7 1 -13 1q-9 0 -18 -4q-12 -5 -15 -6q10 43 51 60v66h-93v37h93v48h-93v37z" />
    <glyph glyph-name="mu" unicode="&#xb5;" horiz-adv-x="601" 
d="M32 245l111 62v21q0 43 -27.5 74.5t-67.5 28.5q-3 -22 -27 -22q-8 0 -16 8.5t-8 15.5q0 8 14.5 19.5t23.5 12.5q33 4 63 -17q9 -7 44 -42v59q0 25 -13.5 54t-33.5 41v9h38q35 0 108 57l15 -6q0 -2 -9.5 -25.5t-9.5 -27.5v-207l50 27q0 13 -1 71v64q0 9 -1 26v26
q0 65 41 119q-61 -44 -107 -44q-19 0 -62 16q-46 16 -62 18q-37 4 -74 -28l-13 11q14 26 43 51q34 31 59 30q41 -1 80 -13.5t59 -12.5q78 0 146 44q3 -1 11 -3q2 0 6 -9q-26 -28 -33 -103q-2 -26 -2 -113v-99l119 67v-39l-118 -66v-59q0 -81 -30 -121q-12 -16 -83 -69
q19 72 21 142q0 26 1 56l-50 -28v-28q0 -48 1 -157q-25 -19 -48 -38q-55 -46 -86 -84l6 -9q31 36 115 86t117 51q69 3 193 -77q9 6 33 23l11 -17q-25 -13 -66 -45q-45 -36 -64 -47q-43 24 -85 49q-46 24 -94 24t-92 -23q-27 -15 -78 -55l-34 25q8 11 24 32q51 64 54 238
l-112 -62v38z" />
    <glyph glyph-name="mu" unicode="&#x3bc;" horiz-adv-x="601" 
d="M32 245l111 62v21q0 43 -27.5 74.5t-67.5 28.5q-3 -22 -27 -22q-8 0 -16 8.5t-8 15.5q0 8 14.5 19.5t23.5 12.5q33 4 63 -17q9 -7 44 -42v59q0 25 -13.5 54t-33.5 41v9h38q35 0 108 57l15 -6q0 -2 -9.5 -25.5t-9.5 -27.5v-207l50 27q0 13 -1 71v64q0 9 -1 26v26
q0 65 41 119q-61 -44 -107 -44q-19 0 -62 16q-46 16 -62 18q-37 4 -74 -28l-13 11q14 26 43 51q34 31 59 30q41 -1 80 -13.5t59 -12.5q78 0 146 44q3 -1 11 -3q2 0 6 -9q-26 -28 -33 -103q-2 -26 -2 -113v-99l119 67v-39l-118 -66v-59q0 -81 -30 -121q-12 -16 -83 -69
q19 72 21 142q0 26 1 56l-50 -28v-28q0 -48 1 -157q-25 -19 -48 -38q-55 -46 -86 -84l6 -9q31 36 115 86t117 51q69 3 193 -77q9 6 33 23l11 -17q-25 -13 -66 -45q-45 -36 -64 -47q-43 24 -85 49q-46 24 -94 24t-92 -23q-27 -15 -78 -55l-34 25q8 11 24 32q51 64 54 238
l-112 -62v38z" />
    <glyph glyph-name="ordfeminine" unicode="&#xaa;" horiz-adv-x="721" 
d="M678 268q0 -132 -152 -213q-111 -59 -270 -79q-19 67 -38 90q-28 35 -94 38q-30 1 -61 -14q-37 -18 -37 -46q25 -7 25 -32q0 -8 -5.5 -12.5t-10.5 -4.5q-27 0 -27 49q0 44 50 76q42 26 88 28q67 2 134.5 -33.5t87.5 -86.5h15q44 0 79.5 38.5t35.5 82.5q0 145 -94 145
q-17 0 -34.5 -13.5t-17.5 -30.5q0 -26 38 -31l2 -12q0 -20 -28 -20q-49 0 -49 46q0 29 28.5 54t57.5 25q112 0 112 -157q0 -25 -12 -53l1 -6q63 85 63 178q0 63 -46 112t-108 49q-17 0 -41.5 -12t-35.5 -26l-14 16q21 35 20 67q-2 32 -26 32q-5 -35 -26 -31q-13 3 -13 15
q0 11 10.5 23.5t22.5 12.5q47 1 47 -58q0 -8 -2 -15q12 8 58 67t57 77q-55 21 -110 43q-67 25 -114 25q-48 0 -97 -21q-60 -26 -60 -69q0 -9 8 -19.5t20 -11.5q10 -1 16.5 12t18.5 13q16 -1 14 -21q-1 -11 -17.5 -19.5t-33.5 -6.5q-24 2 -37 21q-11 16 -11 37q0 81 69 128
q60 41 146 41q47 0 133 -32.5t126 -32.5q8 0 43 18l3 -7l-205 -245l26 7q32 7 58 7q96 0 154 -52q60 -55 60 -150zM498 911l5 -13l-165 -112l-171 103l6 21l162 -61z" />
    <glyph glyph-name="ordmasculine" unicode="&#xba;" horiz-adv-x="293" 
d="M263 179q0 -74 -65 -143q-58 -63 -134 -89q-10 3 -10 5q0 1 3 3t4 5q137 81 137 170q0 41 -31.5 66t-76.5 25q-16 0 -44 -17q-5 22 -5 16q0 2 51 67t60 75q0 18 -63 18q-20 0 -30 -6q-14 -9 -27 -17l-12 15q1 6 42 54q36 41 51 56q7 -6 35 -13q43 3 129 0
q-48 -64 -125 -161q2 -4 34.5 -16t50.5 -32q26 -29 26 -81zM280 645l6 -13l-118 -96l-124 99l8 14l115 -53z" />
    <glyph glyph-name="ae" unicode="&#xe6;" horiz-adv-x="613" 
d="M362 226l127 114q-67 67 -92 67q-37 1 -39 -139q-1 -22 4 -42zM271 350q-76 56 -81 55q-42 -8 -63 -72q-14 -43 -14 -84q0 -70 28 -125q33 -64 88 -64q1 0 41 44zM372 192q40 -99 118 -101q51 -1 82 37l10 -9q-36 -55 -88 -121q-2 -2 -32 -1q-73 1 -118 39q-22 20 -45 62
q-14 -21 -57.5 -63.5t-47.5 -42.5q-167 27 -167 251q0 30 26 113q135 66 173 136q37 -50 125 -90q50 38 84 92q8 -4 148 -115q-65 -55 -211 -187z" />
    <glyph glyph-name="oslash" unicode="&#xf8;" horiz-adv-x="439" 
d="M273 296l-129 -141q51 -82 123 -82q17 0 32 24q14 20 16 40l2 26q3 22 -13 65q-14 39 -31 68zM131 178l127 139q-46 59 -86 70q-12 4 -42.5 -2t-30.5 -80q0 -62 32 -127zM12 47l48 52q-35 54 -35 119q0 81 37 137q27 40 101 100q28 22 42 22q71 0 127 -78l53 57l18 -16
l-56 -63q25 -43 37 -89q0 -3 2.5 -21.5t2.5 -33.5q0 -135 -173 -239q-87 20 -141 85l-45 -49z" />
    <glyph glyph-name="guillemotleft" unicode="&#xab;" horiz-adv-x="296" 
d="M242 396l-83 -137l81 -131l-11 -12l-122 143q-3 2 124 152zM140 396l-83 -137l81 -131l-11 -12l-122 143q-3 2 124 152z" />
    <glyph glyph-name="guillemotright" unicode="&#xbb;" horiz-adv-x="296" 
d="M5 131l83 137l-81 131l11 12l122 -143q3 -2 -124 -152zM107 131l83 137l-81 131l11 12l122 -143q3 -2 -124 -152z" />
    <glyph glyph-name="ellipsis" unicode="&#x2026;" horiz-adv-x="865" 
d="M78 36l71 85q41 -59 77 -59q9 0 30 8q-40 -84 -95 -84q-50 0 -83 50zM371 36l71 85q41 -59 77 -59q9 0 30 8q-40 -84 -95 -84q-50 0 -83 50zM665 36l71 85q41 -59 77 -59q9 0 30 8q-40 -84 -95 -84q-50 0 -83 50z" />
    <glyph glyph-name="nonbreakingspace" unicode="&#xa0;" horiz-adv-x="187" 
 />
    <glyph glyph-name="Agrave" unicode="&#xc0;" horiz-adv-x="711" 
d="M690 88q-102 -66 -154 -118q-56 56 -108 70q37 37 37 127q0 16 -2 34q-94 -78 -268 -236q-6 32 -58 68.5t-86 36.5q-17 0 -53 -24l-9 11l205 237q-38 27 -77 54q-42 34 -42 79q0 68 48 98q38 24 92 20q29 -2 56 34q16 -23 50 -67l-64 -48q-23 60 -70 60q-15 0 -26 -10
t-11 -25q0 -29 42 -64q36 -31 79 -49q47 56 177 197q112 122 111 123q-113 -45 -173 -45q-47 0 -112.5 37.5t-106.5 37.5q-18 0 -44 -11q-30 -12 -30 -26q27 -23 31 -47q0 -24 -14.5 -40t-38.5 -16q-22 0 -37 12.5t-15 34.5q0 54 56 88q48 29 106 29q32 0 55 -13
q32 -18 35 -19q2 42 51 45q15 1 33 -15q27 -25 36 -31q28 -16 68 -16q98 0 172 75l28 -13q-26 -62 -26 -160v-498q0 -12 -13 -12q-7 0 -7 9l-1 504q0 81 14 130q-17 -8 -49 -52v-557q3 -65 39 -65l62 38zM467 559q-23 -21 -100 -105q-83 -90 -76 -95q32 -28 32 -102
q0 -47 -31 -88q0 -1 -66 -71q10 -8 56 2q42 9 111 66q74 61 74 98v295zM246 203q0 13 -13 44t-23 31q-4 0 -37 -41q-38 -48 -39 -49q-6 -6 -7 -13q0 -6 1 -14t1 -9q0 -13 25.5 -31t39.5 -18q17 0 36 42q16 37 16 58zM444 804l-9 -24l-212 64l33 63z" />
    <glyph glyph-name="Atilde" unicode="&#xc3;" horiz-adv-x="711" 
d="M690 88q-102 -66 -154 -118q-56 56 -108 70q37 37 37 127q0 16 -2 34q-94 -78 -268 -236q-6 32 -58 68.5t-86 36.5q-17 0 -53 -24l-9 11l205 237q-38 27 -77 54q-42 34 -42 79q0 68 48 98q38 24 92 20q29 -2 56 34q16 -23 50 -67l-64 -48q-23 60 -70 60q-15 0 -26 -10
t-11 -25q0 -29 42 -64q36 -31 79 -49q47 56 177 197q112 122 111 123q-113 -45 -173 -45q-47 0 -112.5 37.5t-106.5 37.5q-18 0 -44 -11q-30 -12 -30 -26q27 -23 31 -47q0 -24 -14.5 -40t-38.5 -16q-22 0 -37 12.5t-15 34.5q0 54 56 88q48 29 106 29q32 0 55 -13
q32 -18 35 -19q2 42 51 45q15 1 33 -15q27 -25 36 -31q28 -16 68 -16q98 0 172 75l28 -13q-26 -62 -26 -160v-498q0 -12 -13 -12q-7 0 -7 9l-1 504q0 81 14 130q-17 -8 -49 -52v-557q3 -65 39 -65l62 38zM467 559q-23 -21 -100 -105q-83 -90 -76 -95q32 -28 32 -102
q0 -47 -31 -88q0 -1 -66 -71q10 -8 56 2q42 9 111 66q74 61 74 98v295zM246 203q0 13 -13 44t-23 31q-4 0 -37 -41q-38 -48 -39 -49q-6 -6 -7 -13q0 -6 1 -14t1 -9q0 -13 25.5 -31t39.5 -18q17 0 36 42q16 37 16 58zM201 799q8 38 45 60q34 21 75 21q17 0 46.5 -14t48.5 -14
q16 0 45 8t40 17q-17 -37 -52 -59.5t-75 -22.5q-17 0 -45 13.5t-42 13.5q-63 0 -86 -23z" />
    <glyph glyph-name="Otilde" unicode="&#xd5;" horiz-adv-x="731" 
d="M683 433q0 -132 -85 -260.5t-206 -183.5q-34 22 -79 41q-53 20 -85 20q-60 0 -101 -48l-42 36q35 28 101 83q-70 14 -124.5 86.5t-54.5 158.5q0 92 27 141q26 45 98 95q79 55 104 89q12 19 23 38q12 15 40 15q147 0 259 -79q125 -90 125 -232zM599 342q0 127 -82 216
q-85 90 -212 90q-93 0 -152 -65q-55 -64 -55 -158q0 -81 34 -147q43 -83 116 -83q23 0 38 17t15 39q0 32 -19 48q-7 5 -37 18q-20 8 -20 22q5 3 25 11q14 5 25 22q20 36 40 73q24 30 76 30q19 0 40 -16.5t21 -35.5q0 -18 -12.5 -32.5t-31.5 -14.5q-8 0 -17 6.5t-9 14.5
q0 22 10 22q5 0 18 -5l19 16q-1 12 -16.5 21t-28.5 9q-26 0 -45.5 -16t-19.5 -42q0 -23 18 -48t40 -25q8 0 16 4l15 -20q-1 -12 -133.5 -135t-158.5 -138q1 -3 14 -15q142 117 156 117q12 0 26 -20q64 -19 74 -21q32 -7 77 -7q68 0 106 94q30 73 30 154zM210 783q9 38 46 60
q34 21 74 21q17 0 47 -14t48 -14q17 0 46 8t39 17q-17 -37 -51.5 -59.5t-75.5 -22.5q-16 0 -44 13.5t-43 13.5q-63 0 -86 -23z" />
    <glyph glyph-name="OE" unicode="&#x152;" horiz-adv-x="1283" 
d="M623 215q-87 -161 -231 -226q-34 22 -79 41q-53 20 -85 20q-60 0 -101 -48l-42 36q35 28 101 83q-70 14 -124.5 86.5t-54.5 158.5q0 92 27 141q26 45 98 95q79 55 104 89q12 19 23 38q12 15 40 15q112 0 210 -50q106 -54 149 -146q51 73 156 130q60 34 198 89
q26 -29 73 -62q54 -39 82 -39q20 0 33 14q11 11 11 25t-9 17l16 7l10 -33q0 -35 -42 -64q-38 -27 -76 -27q-33 0 -93 40q-43 30 -87 61l1 -304q34 5 81 52q16 -3 40 -3q85 0 140 22l-72 -81h-190l1 -150q-27 -17 -49 -32q-52 -36 -67 -59q23 -32 95 -51q57 -15 111 -15
q123 0 188 54l8 -6q-23 -67 -105 -112q-76 -42 -154 -42q-117 0 -208 67q-88 64 -127 169zM827 220v441l-25 -17v-430l-21 -32l21 -21q25 25 25 59zM785 218v415q-90 -59 -90 -215q0 -129 73 -223zM599 342q0 127 -82 216q-85 90 -212 90q-93 0 -152 -65q-55 -64 -55 -158
q0 -81 34 -147q43 -83 116 -83q23 0 38 17t15 39q0 32 -19 48q-7 5 -37 18q-20 8 -20 22q5 3 25 11q14 5 25 22q20 36 40 73q24 30 76 30q19 0 40 -16.5t21 -35.5q0 -18 -12.5 -32.5t-31.5 -14.5q-8 0 -17 6.5t-9 14.5q-1 22 10 22q5 0 18 -5l19 16q-1 12 -16.5 21t-28.5 9
q-26 0 -45.5 -16t-19.5 -42q0 -23 18 -48t40 -25q8 0 16 4l15 -20q-1 -12 -133.5 -135t-158.5 -138q1 -3 14 -15q142 117 156 117q12 0 26 -20q64 -19 74 -21q32 -7 77 -7q68 0 106 94q30 73 30 154z" />
    <glyph glyph-name="oe" unicode="&#x153;" horiz-adv-x="665" 
d="M317 163q3 25 -17 75q-18 47 -36 71q-50 66 -92 78q-12 4 -42.5 -2t-30.5 -80q0 -77 44 -149q51 -83 124 -83q17 0 32 24q14 20 16 40zM412 226l127 114q-67 67 -92 67q-37 1 -39 -139q-1 -22 4 -42zM422 192q40 -99 118 -101q51 -1 82 37l10 -9q-36 -55 -88 -121
q-2 -2 -32 -1q-111 2 -166 110q-43 -60 -130 -113q-83 19 -137 80.5t-54 143.5q0 81 37 137q27 40 101 100q28 22 42 22q85 0 146 -107q82 42 134 124q8 -4 148 -115q-65 -55 -211 -187z" />
    <glyph glyph-name="endash" unicode="&#x2013;" horiz-adv-x="412" 
d="M0 215v54h407v-54h-407z" />
    <glyph glyph-name="emdash" unicode="&#x2014;" horiz-adv-x="785" 
d="M0 215v54h780v-54h-780z" />
    <glyph glyph-name="quotedblleft" unicode="&#x201c;" horiz-adv-x="300" 
d="M155 611l-71 75q-45 -66 -43 -117q2 -68 75 -109q-9 24 -10 45q-2 60 49 106zM305 611l-71 75q-45 -66 -43 -117q2 -68 75 -109q-9 24 -10 45q-2 60 49 106z" />
    <glyph glyph-name="quotedblright" unicode="&#x201d;" horiz-adv-x="300" 
d="M172 611l71 75q45 -66 43 -117q-2 -68 -75 -109q9 24 10 45q2 60 -49 106zM22 611l71 75q45 -66 43 -117q-2 -68 -75 -109q9 24 10 45q2 60 -49 106z" />
    <glyph glyph-name="quoteleft" unicode="&#x2018;" horiz-adv-x="182" 
d="M170 621l-72 75q-44 -66 -42 -117q2 -68 74 -109q-8 24 -9 45q-2 60 49 106z" />
    <glyph glyph-name="quoteright" unicode="&#x2019;" horiz-adv-x="188" 
d="M42 621l71 75q45 -66 43 -117q-2 -68 -75 -109q9 24 10 45q2 60 -49 106z" />
    <glyph glyph-name="divide" unicode="&#xf7;" horiz-adv-x="512" 
d="M285 486q23 0 39 -16.5t16 -39.5t-16 -39t-39 -16t-39 16t-16 39t16 39.5t39 16.5zM22 299h526v-61h-526v61zM285 161q23 0 39 -16t16 -39t-16 -39t-39 -16t-39 16t-16 39t16 39t39 16z" />
    <glyph glyph-name="ydieresis" unicode="&#xff;" horiz-adv-x="448" 
d="M403 415q-95 -161 -173 -339q-13 -29 -31 -89q-20 -69 -29 -93q10 -6 60 3l-21 -45q-20 -2 -85 0q19 54 39 109q24 65 24 113q0 92 -39 183q-44 105 -110 124q-12 -7 -31 -28q-5 3 -8.5 5t-6.5 11q95 95 101.5 101t17.5 9l102 -104q18 11 48 56t40 50zM329 332
q4 9 -70 49q-35 -26 -32 -35q22 -73 22 -138q0 -20 -2 -42zM283 518q-16 0 -27.5 12t-11.5 29q0 16 11.5 28t27.5 12t27.5 -12t11.5 -28q0 -17 -11.5 -29t-27.5 -12zM145 524q-15 0 -26 11t-11 26q0 16 11 27t26 11q14 0 25 -11t11 -27q0 -15 -11 -26t-25 -11z" />
    <glyph glyph-name="Ydieresis" unicode="&#x178;" horiz-adv-x="649" 
d="M602 265q0 -108 -95 -189q-12 -11 -174 -114q-95 -60 -95 -118q0 -31 28 -54.5t60 -21.5q85 5 95 60q0 30 -33 25l9 14q22 16 39 16q20 0 39 -14.5t19 -34.5q0 -43 -50 -73q-43 -26 -89 -26q-56 0 -93 25q-44 29 -44 82q0 37 35 77q30 35 68 54q1 33 -44 67t-80 34
q-49 0 -98 -38q0 1 -11 10q31 27 40 40q16 22 16 54q0 24 -11 51q-14 33 -34 33h-16q14 -14 14 -27q0 -20 -23 -20q-30 0 -28 38q1 16 17 27q13 10 27 10q29 0 64 -39l4 11v78q0 83 -14 115q-21 48 -91 63q-22 0 -35 -23q23 -5 26 -36q-7 -19 -25 -19q-14 0 -25 11.5
t-11 24.5q0 25 23.5 43.5t48.5 15.5q79 -7 99 -52q2 11 2 23q-2 29 0 148q8 103 -86 103q-20 0 -33 -22q13 -2 22.5 -12.5t9.5 -20.5q0 -17 -25 -17q-29 0 -37 34q-7 28 34 51q36 19 67 19q146 0 146 -113v-456q-1 -32 -35 -57q-24 -14 -49 -28l5 -9q80 18 93 18
q63 0 152 -60l74 38q25 22 25 86q0 72 -35 131q-38 64 -99 79l-34 -21q20 -3 18 -37l-19 -10q-34 0 -34 31q0 54 73 54q13 0 58 -13q5 8 4 11q-12 20 -12 73q0 47 21 91q13 27 48 77t49 78q-109 -114 -181 -114q-31 0 -76 24q37 39 48 51q23 26 43 55q-2 -2 -2 -4
q0 -12 32 -23q28 -11 46 -11q41 0 107 58l23 -16q-23 -36 -46 -71q-25 -44 -25 -82q0 -53 38 -156.5t38 -159.5zM191 838q0 19 13.5 33t32.5 14t32.5 -14t13.5 -33q0 -20 -13.5 -34t-32.5 -14t-32.5 14t-13.5 34zM369 841q0 21 14 35.5t35 14.5q20 0 34.5 -14.5t14.5 -35.5
t-14.5 -36t-34.5 -15q-21 0 -35 15t-14 36z" />
    <glyph glyph-name="guilsinglleft" unicode="&#x2039;" horiz-adv-x="194" 
d="M140 396l-83 -137l81 -131l-11 -12l-122 143q-3 2 124 152z" />
    <glyph glyph-name="guilsinglright" unicode="&#x203a;" horiz-adv-x="194" 
d="M12 396l83 -137l-81 -131l10 -12l123 143q3 2 -125 152z" />
    <glyph glyph-name="periodcentered" unicode="&#xb7;" horiz-adv-x="177" 
d="M77 277q0 25 16 43t40 18q25 0 40.5 -18t15.5 -43t-16 -42.5t-40 -17.5t-40 18t-16 42z" />
    <glyph glyph-name="periodcentered" unicode="&#x2219;" horiz-adv-x="177" 
d="M77 277q0 25 16 43t40 18q25 0 40.5 -18t15.5 -43t-16 -42.5t-40 -17.5t-40 18t-16 42z" />
    <glyph glyph-name="quotesinglbase" unicode="&#x201a;" horiz-adv-x="186" 
d="M42 61l71 75q45 -66 43 -117q-2 -68 -75 -109q9 24 10 45q2 60 -49 106z" />
    <glyph glyph-name="quotedblbase" unicode="&#x201e;" horiz-adv-x="316" 
d="M172 61l71 75q45 -66 43 -117q-2 -68 -75 -109q9 24 10 45q2 60 -49 106zM22 61l71 75q45 -66 43 -117q-2 -68 -75 -109q9 24 10 45q2 60 -49 106z" />
    <glyph glyph-name="Acircumflex" unicode="&#xc2;" horiz-adv-x="711" 
d="M690 88q-102 -66 -154 -118q-56 56 -108 70q37 37 37 127q0 16 -2 34q-94 -78 -268 -236q-6 32 -58 68.5t-86 36.5q-17 0 -53 -24l-9 11l205 237q-38 27 -77 54q-42 34 -42 79q0 68 48 98q38 24 92 20q29 -2 56 34q16 -23 50 -67l-64 -48q-23 60 -70 60q-15 0 -26 -10
t-11 -25q0 -29 42 -64q36 -31 79 -49q47 56 177 197q112 122 111 123q-113 -45 -173 -45q-47 0 -112.5 37.5t-106.5 37.5q-18 0 -44 -11q-30 -12 -30 -26q27 -23 31 -47q0 -24 -14.5 -40t-38.5 -16q-22 0 -37 12.5t-15 34.5q0 54 56 88q48 29 106 29q32 0 55 -13
q32 -18 35 -19q2 42 51 45q15 1 33 -15q27 -25 36 -31q28 -16 68 -16q98 0 172 75l28 -13q-26 -62 -26 -160v-498q0 -12 -13 -12q-7 0 -7 9l-1 504q0 81 14 130q-17 -8 -49 -52v-557q3 -65 39 -65l62 38zM467 559q-23 -21 -100 -105q-83 -90 -76 -95q32 -28 32 -102
q0 -47 -31 -88q0 -1 -66 -71q10 -8 56 2q42 9 111 66q74 61 74 98v295zM246 203q0 13 -13 44t-23 31q-4 0 -37 -41q-38 -48 -39 -49q-6 -6 -7 -13q0 -6 1 -14t1 -9q0 -13 25.5 -31t39.5 -18q17 0 36 42q16 37 16 58zM195 778l-2 18l150 113l157 -115l-7 -22l-148 66z" />
    <glyph glyph-name="Ecircumflex" unicode="&#xca;" horiz-adv-x="671" 
d="M628 696q0 -35 -42 -64q-38 -27 -76 -27q-33 0 -93 40q-43 30 -87 61l1 -304q34 5 81 52q16 -3 40 -3q85 0 140 22l-72 -81h-190l1 -150q-27 -17 -49 -32q-52 -36 -67 -59q23 -32 95 -51q57 -15 111 -15q123 0 188 54l8 -6q-23 -67 -105 -112q-76 -42 -154 -42
q-154 0 -256.5 109t-102.5 264q0 168 132 272q77 61 281 143q26 -29 73 -62q54 -39 82 -39q20 0 33 14q11 11 11 25t-9 17l16 7zM227 661l-25 -17v-430l-21 -32l21 -21q25 25 25 59v441zM185 218v415q-90 -59 -90 -215q0 -129 73 -223zM205 778l-2 18l150 113l157 -115
l-7 -22l-148 66z" />
    <glyph glyph-name="Aacute" unicode="&#xc1;" horiz-adv-x="711" 
d="M690 88q-102 -66 -154 -118q-56 56 -108 70q37 37 37 127q0 16 -2 34q-94 -78 -268 -236q-6 32 -58 68.5t-86 36.5q-17 0 -53 -24l-9 11l205 237q-38 27 -77 54q-42 34 -42 79q0 68 48 98q38 24 92 20q29 -2 56 34q16 -23 50 -67l-64 -48q-23 60 -70 60q-15 0 -26 -10
t-11 -25q0 -29 42 -64q36 -31 79 -49q47 56 177 197q112 122 111 123q-113 -45 -173 -45q-47 0 -112.5 37.5t-106.5 37.5q-18 0 -44 -11q-30 -12 -30 -26q27 -23 31 -47q0 -24 -14.5 -40t-38.5 -16q-22 0 -37 12.5t-15 34.5q0 54 56 88q48 29 106 29q32 0 55 -13
q32 -18 35 -19q2 42 51 45q15 1 33 -15q27 -25 36 -31q28 -16 68 -16q98 0 172 75l28 -13q-26 -62 -26 -160v-498q0 -12 -13 -12q-7 0 -7 9l-1 504q0 81 14 130q-17 -8 -49 -52v-557q3 -65 39 -65l62 38zM467 559q-23 -21 -100 -105q-83 -90 -76 -95q32 -28 32 -102
q0 -47 -31 -88q0 -1 -66 -71q10 -8 56 2q42 9 111 66q74 61 74 98v295zM246 203q0 13 -13 44t-23 31q-4 0 -37 -41q-38 -48 -39 -49q-6 -6 -7 -13q0 -6 1 -14t1 -9q0 -13 25.5 -31t39.5 -18q17 0 36 42q16 37 16 58zM233 794l8 -17l212 57l-33 63z" />
    <glyph glyph-name="Edieresis" unicode="&#xcb;" horiz-adv-x="671" 
d="M628 696q0 -35 -42 -64q-38 -27 -76 -27q-33 0 -93 40q-43 30 -87 61l-1 -298q34 5 82 53q26 -4 62 -4q78 0 119 16l-72 -81h-190l1 -150q-27 -17 -49 -32q-52 -36 -67 -59q23 -32 95 -51q57 -15 111 -15q123 0 188 54l8 -6q-23 -67 -105 -112q-76 -42 -154 -42
q-154 0 -256.5 109t-102.5 264q0 168 132 272q77 61 281 143q26 -29 73 -62q54 -39 82 -39q20 0 33 14q11 11 11 25t-9 17l16 7zM227 661l-25 -17v-430l-21 -32l21 -21q25 25 25 59v441zM185 218v415q-90 -59 -90 -215q0 -129 73 -223zM218 841q0 20 13.5 34t33.5 14
q19 0 32.5 -14t13.5 -34q0 -19 -13.5 -33t-32.5 -14q-20 0 -33.5 14t-13.5 33zM374 839q0 20 14.5 35t34.5 15t34.5 -15t14.5 -35q0 -21 -14.5 -36t-34.5 -15t-34.5 15t-14.5 36z" />
    <glyph glyph-name="Egrave" unicode="&#xc8;" horiz-adv-x="671" 
d="M628 696q0 -35 -42 -64q-38 -27 -76 -27q-33 0 -93 40q-43 30 -87 61l1 -304q34 5 81 52q16 -3 40 -3q85 0 140 22l-72 -81h-190l1 -150q-27 -17 -49 -32q-52 -36 -67 -59q23 -32 95 -51q57 -15 111 -15q123 0 188 54l8 -6q-23 -67 -105 -112q-76 -42 -154 -42
q-154 0 -256.5 109t-102.5 264q0 168 132 272q77 61 281 143q26 -29 73 -62q54 -39 82 -39q20 0 33 14q11 11 11 25t-9 17l16 7zM227 661l-25 -17v-430l-21 -32l21 -21q25 25 25 59v441zM185 218v415q-90 -59 -90 -215q0 -129 73 -223zM454 804l-9 -17l-212 57l33 63z" />
    <glyph glyph-name="Iacute" unicode="&#xcd;" horiz-adv-x="459" 
d="M439 705q-37 -48 -50 -74q-19 -39 -19 -85q0 -43 16.5 -128t16.5 -128q0 -135 -61 -216q-71 -92 -210 -92q-47 0 -87 23q-46 27 -46 72q0 28 17.5 46.5t44.5 18.5q44 0 47 -53q-14 7 -26 7q-30 0 -30 -41q0 -51 61 -51q32 0 60.5 19.5t28.5 46.5q0 6 -2 12q-11 42 -29 42
q-17 0 -34 -30q-6 18 -6 29q0 34 33 38q23 3 39 -17.5t16 -45.5q0 -44 -28 -78q39 4 57 53q13 35 13 83q0 105 -33 193q-45 119 -133 119q-16 0 -31.5 -11.5t-15.5 -27.5q0 -26 15 -26q10 0 18 10t8 20q22 4 22 -20q0 -11 -12.5 -19.5t-24.5 -8.5q-16 0 -30.5 11.5
t-14.5 27.5q0 24 20.5 41.5t45.5 18.5q89 2 133 -92l-5 52q0 147 207 272zM412 734q0 -21 -66 -56.5t-97 -35.5q-41 0 -109 27t-75 27q-39 0 -39 -50q0 -20 23 -25q6 -1 37 -1q3 0 3 -8q0 -5 -7.5 -19t-12.5 -18l-18 -1q-52 -2 -52 56q0 44 34.5 75.5t78.5 31.5q23 0 35 -15
q9 9 19.5 17.5t23.5 8.5q14 0 41.5 -25.5t66.5 -25.5q67 0 98 42l12 4q4 -2 4 -9zM355 538q0 71 41 136q-36 -17 -59.5 -71.5t-17.5 -96.5l35 -290q7 -59 -35 -142q70 65 70 211q0 43 -17 126.5t-17 126.5zM133 794l8 -17l212 57l-33 63z" />
    <glyph glyph-name="Icircumflex" unicode="&#xce;" horiz-adv-x="459" 
d="M439 705q-37 -48 -50 -74q-19 -39 -19 -85q0 -43 16.5 -128t16.5 -128q0 -135 -61 -216q-71 -92 -210 -92q-47 0 -87 23q-46 27 -46 72q0 28 17.5 46.5t44.5 18.5q44 0 47 -53q-14 7 -26 7q-30 0 -30 -41q0 -51 61 -51q32 0 60.5 19.5t28.5 46.5q0 6 -2 12q-11 42 -29 42
q-17 0 -34 -30q-6 18 -6 29q0 34 33 38q23 3 39 -17.5t16 -45.5q0 -44 -28 -78q39 4 57 53q13 35 13 83q0 105 -33 193q-45 119 -133 119q-16 0 -31.5 -11.5t-15.5 -27.5q0 -26 15 -26q10 0 18 10t8 20q22 4 22 -20q0 -11 -12.5 -19.5t-24.5 -8.5q-16 0 -30.5 11.5
t-14.5 27.5q0 24 20.5 41.5t45.5 18.5q89 2 133 -92l-5 52q0 147 207 272zM412 734q0 -21 -66 -56.5t-97 -35.5q-41 0 -109 27t-75 27q-39 0 -39 -50q0 -20 23 -25q6 -1 37 -1q3 0 3 -8q0 -5 -7.5 -19t-12.5 -18l-18 -1q-52 -2 -52 56q0 44 34.5 75.5t78.5 31.5q23 0 35 -15
q9 9 19.5 17.5t23.5 8.5q14 0 41.5 -25.5t66.5 -25.5q67 0 98 42l12 4q4 -2 4 -9zM355 538q0 71 41 136q-36 -17 -59.5 -71.5t-17.5 -96.5l35 -290q7 -59 -35 -142q70 65 70 211q0 43 -17 126.5t-17 126.5zM75 778l-2 18l150 113l157 -115l-7 -22l-148 66z" />
    <glyph glyph-name="Idieresis" unicode="&#xcf;" horiz-adv-x="459" 
d="M439 705q-37 -48 -50 -74q-19 -39 -19 -85q0 -43 16.5 -128t16.5 -128q0 -135 -61 -216q-71 -92 -210 -92q-47 0 -87 23q-46 27 -46 72q0 28 17.5 46.5t44.5 18.5q44 0 47 -53q-14 7 -26 7q-30 0 -30 -41q0 -51 61 -51q32 0 60.5 19.5t28.5 46.5q0 6 -2 12q-11 42 -29 42
q-17 0 -34 -30q-6 18 -6 29q0 34 33 38q23 3 39 -17.5t16 -45.5q0 -44 -28 -78q39 4 57 53q13 35 13 83q0 105 -33 193q-45 119 -133 119q-16 0 -31.5 -11.5t-15.5 -27.5q0 -26 15 -26q10 0 18 10t8 20q22 4 22 -20q0 -11 -12.5 -19.5t-24.5 -8.5q-16 0 -30.5 11.5
t-14.5 27.5q0 24 20.5 41.5t45.5 18.5q89 2 133 -92l-5 52q0 147 207 272zM412 734q0 -21 -66 -56.5t-97 -35.5q-41 0 -109 27t-75 27q-39 0 -39 -50q0 -20 23 -25q6 -1 37 -1q3 0 3 -8q0 -5 -7.5 -19t-12.5 -18l-18 -1q-52 -2 -52 56q0 44 34.5 75.5t78.5 31.5q23 0 35 -15
q9 9 19.5 17.5t23.5 8.5q14 0 41.5 -25.5t66.5 -25.5q67 0 98 42l12 4q4 -2 4 -9zM355 538q0 71 41 136q-36 -17 -59.5 -71.5t-17.5 -96.5l35 -290q7 -59 -35 -142q70 65 70 211q0 43 -17 126.5t-17 126.5zM98 831q0 20 13.5 34t33.5 14q19 0 32.5 -14t13.5 -34
q0 -19 -13.5 -33t-32.5 -14q-20 0 -33.5 14t-13.5 33zM254 829q0 20 14.5 35t34.5 15t34.5 -15t14.5 -35q0 -21 -14.5 -36t-34.5 -15t-34.5 15t-14.5 36z" />
    <glyph glyph-name="Igrave" unicode="&#xcc;" horiz-adv-x="459" 
d="M439 705q-37 -48 -50 -74q-19 -39 -19 -85q0 -43 16.5 -128t16.5 -128q0 -135 -61 -216q-71 -92 -210 -92q-47 0 -87 23q-46 27 -46 72q0 28 17.5 46.5t44.5 18.5q44 0 47 -53q-14 7 -26 7q-30 0 -30 -41q0 -51 61 -51q32 0 60.5 19.5t28.5 46.5q0 6 -2 12q-11 42 -29 42
q-17 0 -34 -30q-6 18 -6 29q0 34 33 38q23 3 39 -17.5t16 -45.5q0 -44 -28 -78q39 4 57 53q13 35 13 83q0 105 -33 193q-45 119 -133 119q-16 0 -31.5 -11.5t-15.5 -27.5q0 -26 15 -26q10 0 18 10t8 20q22 4 22 -20q0 -11 -12.5 -19.5t-24.5 -8.5q-16 0 -30.5 11.5
t-14.5 27.5q0 24 20.5 41.5t45.5 18.5q89 2 133 -92l-5 52q0 147 207 272zM412 734q0 -21 -66 -56.5t-97 -35.5q-41 0 -109 27t-75 27q-39 0 -39 -50q0 -20 23 -25q6 -1 37 -1q3 0 3 -8q0 -5 -7.5 -19t-12.5 -18l-18 -1q-52 -2 -52 56q0 44 34.5 75.5t78.5 31.5q23 0 35 -15
q9 9 19.5 17.5t23.5 8.5q14 0 41.5 -25.5t66.5 -25.5q67 0 98 42l12 4q4 -2 4 -9zM355 538q0 71 41 136q-36 -17 -59.5 -71.5t-17.5 -96.5l35 -290q7 -59 -35 -142q70 65 70 211q0 43 -17 126.5t-17 126.5zM344 794l-9 -17l-212 57l33 63z" />
    <glyph glyph-name="Oacute" unicode="&#xd3;" horiz-adv-x="731" 
d="M683 433q0 -132 -85 -260.5t-206 -183.5q-34 22 -79 41q-53 20 -85 20q-60 0 -101 -48l-42 36q35 28 101 83q-70 14 -124.5 86.5t-54.5 158.5q0 92 27 141q26 45 98 95q79 55 104 89q12 19 23 38q12 15 40 15q147 0 259 -79q125 -90 125 -232zM599 342q0 127 -82 216
q-85 90 -212 90q-93 0 -152 -65q-55 -64 -55 -158q0 -81 34 -147q43 -83 116 -83q23 0 38 17t15 39q0 32 -19 48q-7 5 -37 18q-20 8 -20 22q5 3 25 11q14 5 25 22q20 36 40 73q24 30 76 30q19 0 40 -16.5t21 -35.5q0 -18 -12.5 -32.5t-31.5 -14.5q-8 0 -17 6.5t-9 14.5
q0 22 10 22q5 0 18 -5l19 16q-1 12 -16.5 21t-28.5 9q-26 0 -45.5 -16t-19.5 -42q0 -23 18 -48t40 -25q8 0 16 4l15 -20q-1 -12 -133.5 -135t-158.5 -138q1 -3 14 -15q142 117 156 117q12 0 26 -20q64 -19 74 -21q32 -7 77 -7q68 0 106 94q30 73 30 154zM243 794l8 -17
l212 57l-33 63z" />
    <glyph glyph-name="Ocircumflex" unicode="&#xd4;" horiz-adv-x="731" 
d="M683 433q0 -132 -85 -260.5t-206 -183.5q-34 22 -79 41q-53 20 -85 20q-60 0 -101 -48l-42 36q35 28 101 83q-70 14 -124.5 86.5t-54.5 158.5q0 92 27 141q26 45 98 95q79 55 104 89q12 19 23 38q12 15 40 15q147 0 259 -79q125 -90 125 -232zM599 342q0 127 -82 216
q-85 90 -212 90q-93 0 -152 -65q-55 -64 -55 -158q0 -81 34 -147q43 -83 116 -83q23 0 38 17t15 39q0 32 -19 48q-7 5 -37 18q-20 8 -20 22q5 3 25 11q14 5 25 22q20 36 40 73q24 30 76 30q19 0 40 -16.5t21 -35.5q0 -18 -12.5 -32.5t-31.5 -14.5q-8 0 -17 6.5t-9 14.5
q0 22 10 22q5 0 18 -5l19 16q-1 12 -16.5 21t-28.5 9q-26 0 -45.5 -16t-19.5 -42q0 -23 18 -48t40 -25q8 0 16 4l15 -20q-1 -12 -133.5 -135t-158.5 -138q1 -3 14 -15q142 117 156 117q12 0 26 -20q64 -19 74 -21q32 -7 77 -7q68 0 106 94q30 73 30 154zM207 770l-2 18
l150 113l157 -115l-12 -17l-143 61z" />
    <glyph glyph-name="Ograve" unicode="&#xd2;" horiz-adv-x="731" 
d="M683 433q0 -132 -85 -260.5t-206 -183.5q-34 22 -79 41q-53 20 -85 20q-60 0 -101 -48l-42 36q35 28 101 83q-70 14 -124.5 86.5t-54.5 158.5q0 92 27 141q26 45 98 95q79 55 104 89q12 19 23 38q12 15 40 15q147 0 259 -79q125 -90 125 -232zM599 342q0 127 -82 216
q-85 90 -212 90q-93 0 -152 -65q-55 -64 -55 -158q0 -81 34 -147q43 -83 116 -83q23 0 38 17t15 39q0 32 -19 48q-7 5 -37 18q-20 8 -20 22q5 3 25 11q14 5 25 22q20 36 40 73q24 30 76 30q19 0 40 -16.5t21 -35.5q0 -18 -12.5 -32.5t-31.5 -14.5q-8 0 -17 6.5t-9 14.5
q0 22 10 22q5 0 18 -5l19 16q-1 12 -16.5 21t-28.5 9q-26 0 -45.5 -16t-19.5 -42q0 -23 18 -48t40 -25q8 0 16 4l15 -20q-1 -12 -133.5 -135t-158.5 -138q1 -3 14 -15q142 117 156 117q12 0 26 -20q64 -19 74 -21q32 -7 77 -7q68 0 106 94q30 73 30 154zM444 794l-9 -17
l-212 57l33 63z" />
    <glyph glyph-name="Uacute" unicode="&#xda;" horiz-adv-x="689" 
d="M643 285q0 -86 -55 -141q-23 -23 -114 -76q-73 -43 -96 -88q-8 1 -27 40q-23 47 -48 70q-40 38 -101 38q-56 0 -114 -40l-11 3q20 38 20 56q0 13 -5 30q-6 23 -16 22q-1 -1 -14 -18q-7 -10 -17 -10q-16 8 -16.5 9t-1.5 7q-2 28 27 37q9 3 17 3q42 0 42 -77q0 -14 -1 -29
q39 61 37 92v83q0 69 -1 75q-13 87 -92 87q-17 0 -32 -13t-15 -31q0 -23 13 -32q17 6 7 20q14 21 15 22q10 11 24 11l21 -15l1 -14q1 -19 -12.5 -33t-32.5 -14q-25 0 -39.5 17.5t-14.5 43.5q0 29 27 46q23 15 54 15q36 0 74 -42q1 0 1 168q0 95 -56 92q-15 0 -28.5 -15
t-11.5 -33q2 -26 22 -26q10 0 21 6q8 -10 8 -24q0 -31 -36 -31q-44 0 -44 59q0 41 26 71q31 36 84 37q118 2 118 -215v-265q0 -38 -25 -71q-21 -23 -42 -45l7 -2q68 47 150 48q15 -2 52.5 -53.5t76.5 -51.5q23 11 46 23q40 25 40 80q0 84 -27 146q-35 83 -107 83
q-18 0 -36 -10q-21 -12 -21 -28t18 -27q-16 -22 -31 -22q-18 0 -33 15.5t-15 33.5q0 25 24 46.5t50 21.5q76 0 119 -35q0 8 -6 39q-4 24 -4 38q0 42 30 90q36 58 42 79q-97 -65 -188 -65q-19 0 -42.5 9t-22.5 13q86 66 85 134q43 -78 119 -78q31 0 69.5 21.5t56.5 47.5l7 -9
q-23 -35 -45 -71q-22 -41 -22 -82q0 -52 34 -149t34 -147zM243 794l8 -17l212 57l-33 63z" />
    <glyph glyph-name="Ucircumflex" unicode="&#xdb;" horiz-adv-x="689" 
d="M643 285q0 -86 -55 -141q-23 -23 -114 -76q-73 -43 -96 -88q-8 1 -27 40q-23 47 -48 70q-40 38 -101 38q-56 0 -114 -40l-11 3q20 38 20 56q0 13 -5 30q-6 23 -16 22q-1 -1 -14 -18q-7 -10 -17 -10q-16 8 -16.5 9t-1.5 7q-2 28 27 37q9 3 17 3q42 0 42 -77q0 -14 -1 -29
q39 61 37 92v83q0 69 -1 75q-13 87 -92 87q-17 0 -32 -13t-15 -31q0 -23 13 -32q17 6 7 20q14 21 15 22q10 11 24 11l21 -15l1 -14q1 -19 -12.5 -33t-32.5 -14q-25 0 -39.5 17.5t-14.5 43.5q0 29 27 46q23 15 54 15q36 0 74 -42q1 0 1 168q0 95 -56 92q-15 0 -28.5 -15
t-11.5 -33q2 -26 22 -26q10 0 21 6q8 -10 8 -24q0 -31 -36 -31q-44 0 -44 59q0 41 26 71q31 36 84 37q118 2 118 -215v-265q0 -38 -25 -71q-21 -23 -42 -45l7 -2q68 47 150 48q15 -2 52.5 -53.5t76.5 -51.5q23 11 46 23q40 25 40 80q0 84 -27 146q-35 83 -107 83
q-18 0 -36 -10q-21 -12 -21 -28t18 -27q-16 -22 -31 -22q-18 0 -33 15.5t-15 33.5q0 25 24 46.5t50 21.5q76 0 119 -35q0 8 -6 39q-4 24 -4 38q0 42 30 90q36 58 42 79q-97 -65 -188 -65q-19 0 -42.5 9t-22.5 13q86 66 85 134q43 -78 119 -78q31 0 69.5 21.5t56.5 47.5l7 -9
q-23 -35 -45 -71q-22 -41 -22 -82q0 -52 34 -149t34 -147zM195 778l-2 18l150 113l157 -115l-7 -22l-148 66z" />
    <glyph glyph-name="Ugrave" unicode="&#xd9;" horiz-adv-x="689" 
d="M643 285q0 -86 -55 -141q-23 -23 -114 -76q-73 -43 -96 -88q-8 1 -27 40q-23 47 -48 70q-40 38 -101 38q-56 0 -114 -40l-11 3q20 38 20 56q0 13 -5 30q-6 23 -16 22q-1 -1 -14 -18q-7 -10 -17 -10q-16 8 -16.5 9t-1.5 7q-2 28 27 37q9 3 17 3q42 0 42 -77q0 -14 -1 -29
q39 61 37 92v83q0 69 -1 75q-13 87 -92 87q-17 0 -32 -13t-15 -31q0 -23 13 -32q17 6 7 20q14 21 15 22q10 11 24 11l21 -15l1 -14q1 -19 -12.5 -33t-32.5 -14q-25 0 -39.5 17.5t-14.5 43.5q0 29 27 46q23 15 54 15q36 0 74 -42q1 0 1 168q0 95 -56 92q-15 0 -28.5 -15
t-11.5 -33q2 -26 22 -26q10 0 21 6q8 -10 8 -24q0 -31 -36 -31q-44 0 -44 59q0 41 26 71q31 36 84 37q118 2 118 -215v-265q0 -38 -25 -71q-21 -23 -42 -45l7 -2q68 47 150 48q15 -2 52.5 -53.5t76.5 -51.5q23 11 46 23q40 25 40 80q0 84 -27 146q-35 83 -107 83
q-18 0 -36 -10q-21 -12 -21 -28t18 -27q-16 -22 -31 -22q-18 0 -33 15.5t-15 33.5q0 25 24 46.5t50 21.5q76 0 119 -35q0 8 -6 39q-4 24 -4 38q0 42 30 90q36 58 42 79q-97 -65 -188 -65q-19 0 -42.5 9t-22.5 13q86 66 85 134q43 -78 119 -78q31 0 69.5 21.5t56.5 47.5l7 -9
q-23 -35 -45 -71q-22 -41 -22 -82q0 -52 34 -149t34 -147zM444 794l-9 -17l-212 57l33 63z" />
    <glyph glyph-name="circumflex" unicode="&#x2c6;" horiz-adv-x="432" 
d="M104 504l-5 13l127 97l134 -100l-8 -13l-124 52z" />
    <glyph glyph-name="tilde" unicode="&#x2dc;" horiz-adv-x="291" 
d="M24 532q7 32 39 52q29 17 63 17q14 0 39.5 -12t41.5 -12q14 0 38.5 7t33.5 15q-14 -32 -43.5 -51t-64.5 -19q-14 0 -37.5 11.5t-36.5 11.5q-53 0 -73 -20z" />
    <glyph glyph-name="macron" unicode="&#xaf;" horiz-adv-x="305" 
d="M327 729h-299v56h299v-56z" />
    <glyph glyph-name="macron" unicode="&#x2c9;" horiz-adv-x="305" 
d="M327 729h-299v56h299v-56z" />
    <glyph glyph-name="cedilla" unicode="&#xb8;" horiz-adv-x="353" 
d="M187 -6l-20 -41q87 -10 81 -57q-10 -69 -134 -63l3 14q25 0 46.5 15t23.5 33q6 42 -46 42l31 65z" />
    <glyph glyph-name="Scaron" unicode="&#x160;" 
 />
    <glyph glyph-name="scaron" unicode="&#x161;" 
 />
    <glyph glyph-name="brokenbar" unicode="&#xa6;" 
 />
    <glyph glyph-name="Eth" unicode="&#xd0;" 
 />
    <glyph glyph-name="eth" unicode="&#xf0;" 
 />
    <glyph glyph-name="Yacute" unicode="&#xdd;" 
 />
    <glyph glyph-name="yacute" unicode="&#xfd;" 
 />
    <glyph glyph-name="Thorn" unicode="&#xde;" 
 />
    <glyph glyph-name="thorn" unicode="&#xfe;" 
 />
    <glyph glyph-name="minus" unicode="&#xad;" 
 />
    <glyph glyph-name="minus" unicode="&#x2212;" 
 />
    <glyph glyph-name="multiply" unicode="&#xd7;" 
 />
    <glyph glyph-name="onesuperior" unicode="&#xb9;" 
 />
    <glyph glyph-name="twosuperior" unicode="&#xb2;" 
 />
    <glyph glyph-name="threesuperior" unicode="&#xb3;" 
 />
    <glyph glyph-name="onehalf" unicode="&#xbd;" 
 />
    <glyph glyph-name="onequarter" unicode="&#xbc;" 
 />
    <glyph glyph-name="threequarters" unicode="&#xbe;" 
 />
    <glyph glyph-name=".null" 
 />
    <glyph glyph-name="Lslash" unicode="&#x141;" 
 />
    <glyph glyph-name="lslash" unicode="&#x142;" 
 />
    <glyph glyph-name="HT" 
 />
    <glyph glyph-name="LF" 
 />
    <glyph glyph-name="nonmarkingreturn" 
 />
    <glyph glyph-name="Zcaron" unicode="&#x17d;" 
 />
    <glyph glyph-name="zcaron" unicode="&#x17e;" 
 />
    <glyph glyph-name="DLE" 
 />
    <glyph glyph-name="DC1" 
 />
    <glyph glyph-name="DC2" 
 />
    <glyph glyph-name="DC3" 
 />
    <glyph glyph-name="DC4" 
 />
    <glyph glyph-name="RS" 
 />
    <glyph glyph-name="US" 
 />
    <glyph glyph-name="infinity" unicode="&#x221e;" horiz-adv-x="22" 
 />
    <glyph glyph-name="lessequal" unicode="&#x2264;" 
 />
    <glyph glyph-name="greaterequal" unicode="&#x2265;" horiz-adv-x="26" 
 />
    <glyph glyph-name="partialdiff" unicode="&#x2202;" horiz-adv-x="258" 
d="M0 257l53 31v327q0 20 -28 72q46 -9 71 -55q3 28 45 66q39 36 42 30q-33 -41 -32 -91q2 -112 1 -291l62 36v-41l-62 -36l-1 -177l44 -40l32 21q9 -10 9 -15q-72 -56 -96 -99q-4 -6 -20 19q-25 35 -67 57v178l-53 -31v39z" />
    <glyph glyph-name="summation" unicode="&#x2211;" horiz-adv-x="697" 
d="M685 732q0 -23 -88 -82q-82 -56 -114 -65q-58 31 -196 85v-256q13 -13 41 -40q58 46 172 171l15 -2q56 -9 96 -66q36 -53 36 -110q0 -112 -13.5 -158t-54.5 -83q-58 -45 -115.5 -90.5t-120.5 -59.5q-13 5 -106 64q-66 43 -115 43q-21 0 -46 -13q-30 -15 -28 -35
q2 -15 12 -15q5 0 18.5 6t19.5 6t10 -3q16 -19 16 -34q0 -30 -48 -30q-11 0 -21 3t-22 16t-15 25q-2 8 -2 16q0 54 79 97q69 37 126 37q28 0 106 -44q97 -54 111 -60q41 13 70.5 48.5t29.5 77.5v112q0 76 -58 118l-29 3q-38 0 -138 -72.5t-97 -72.5l-8 -8q-67 63 -125 55
l-2 6q43 21 43 86q0 12 -1 35.5t-1 34.5q4 46 -36 48q-16 1 -32 -23q0 -21 33 -30l-29 -36q-57 0 -57 56q0 29 25 46q22 15 51 15q32 0 41 -17v83q0 25 -27 43q-23 12 -47 24v15l22 -10q36 -16 99 -16q43 0 95 28q84 44 88 45l200 -87q6 -1 13 -1q49 0 66 38q-11 15 -27 35
l51 42zM314 363q-38 31 -47 47l1 244q2 17 -1 23q-28 -5 -46 -15q0 -17 1 -46v-46q0 -153 8 -188q3 -11 20.5 -22.5t28.5 -11.5q9 0 35 15zM508 911l5 -13l-165 -112l-171 103l6 21l162 -61z" />
    <glyph glyph-name="product" unicode="&#x220f;" horiz-adv-x="439" 
d="M403 407q-31 -75 -88 -75q-17 0 -40 23q-38 37 -46 43q-31 23 -67 23q-66 0 -66 -64q0 -28 24 -69q26 -45 52 -45q19 0 61 28l58 42q40 -7 67.5 -45.5t27.5 -80.5q0 -60 -60 -121q-49 -49 -114 -80q-42 25 -84 49q-49 27 -88 43q-20 -10 -33 -7l-3 8l98 72
q58 -32 169 -101q34 25 34 66q0 45 -22 79q-25 40 -67 41l-100 -70q-41 28 -59 55q-21 32 -21 77q0 67 68.5 129t136.5 62q35 0 75.5 -45.5t42 -46.5t16.5 -3l19 24zM350 645l6 -13l-128 -96l-134 99l8 14l125 -53z" />
    <glyph glyph-name="pi" unicode="&#x3c0;" horiz-adv-x="649" 
d="M602 265q0 -108 -95 -189q-12 -11 -174 -114q-95 -60 -95 -118q0 -31 28 -54.5t60 -21.5q85 5 95 60q0 30 -33 25l9 14q22 16 39 16q20 0 39 -14.5t19 -34.5q0 -43 -50 -73q-43 -26 -89 -26q-56 0 -93 25q-44 29 -44 82q0 37 35 77q30 35 68 54q1 33 -44 67t-80 34
q-49 0 -98 -38q0 1 -11 10q31 27 40 40q16 22 16 54q0 24 -11 51q-14 33 -34 33h-16q14 -14 14 -27q0 -20 -23 -20q-30 0 -28 38q1 16 17 27q13 10 27 10q29 0 64 -39l4 11v78q0 83 -14 115q-21 48 -91 63q-22 0 -35 -23q23 -5 26 -36q-7 -19 -25 -19q-14 0 -25 11.5
t-11 24.5q0 25 23.5 43.5t48.5 15.5q79 -7 99 -52q2 11 2 23q-2 29 0 148q8 103 -86 103q-20 0 -33 -22q13 -2 22.5 -12.5t9.5 -20.5q0 -17 -25 -17q-29 0 -37 34q-7 28 34 51q36 19 67 19q146 0 146 -113v-456q-1 -32 -35 -57q-24 -14 -49 -28l5 -9q80 18 93 18
q63 0 152 -60l74 38q25 22 25 86q0 72 -35 131q-38 64 -99 79l-34 -21q20 -3 18 -37l-19 -10q-34 0 -34 31q0 54 73 54q13 0 58 -13q5 8 4 11q-12 20 -12 73q0 47 21 91q13 27 48 77t49 78q-109 -114 -181 -114q-31 0 -76 24q37 39 48 51q23 26 43 55q-2 -2 -2 -4
q0 -12 32 -23q28 -11 46 -11q41 0 107 58l23 -16q-23 -36 -46 -71q-25 -44 -25 -82q0 -53 38 -156.5t38 -159.5zM233 794l8 -17l212 57l-33 63z" />
    <glyph glyph-name="integral" unicode="&#x222b;" horiz-adv-x="448" 
d="M403 415q-95 -161 -173 -339q-13 -29 -31 -89q-20 -69 -29 -93q10 -6 60 3l-21 -45q-20 -2 -85 0q19 54 39 109q24 65 24 113q0 92 -39 183q-44 105 -110 124q-12 -7 -31 -28q-5 3 -8.5 5t-6.5 11q95 95 101.5 101t17.5 9l102 -104q18 11 48 56t40 50zM329 332
q4 9 -70 49q-35 -26 -32 -35q22 -73 22 -138q0 -20 -2 -42zM157 537l9 -17l152 75l-34 57z" />
    <glyph glyph-name="lozenge" unicode="&#x25ca;" horiz-adv-x="325" 
d="M163 192q-22 23 -112 112q23 22 112 113q22 -24 112 -113q-23 -22 -112 -112z" />
    <glyph glyph-name="dotlessi" unicode="&#x131;" horiz-adv-x="220" 
d="M219 98q-36 -48 -83 -106q-24 22 -47 44q-29 26 -58 43q6 11 23 35q2 121 0 176q0 31 -1 62q-3 39 -23 53q-8 -4 -22 -6l-4 8q2 2 45 44q39 37 42 37q9 0 26.5 -22.5t21.5 -35.5q10 -27 10 -133v-88v-88q0 -1 12 -24q7 -14 19 -14q13 0 31 23z" />
    <glyph glyph-name="breve" unicode="&#x2d8;" horiz-adv-x="306" 
d="M138 782q44 -58 96 -66q48 14 94 66q3 3 -14 14q-60 -37 -80 -34q-27 -5 -85 37z" />
    <glyph glyph-name="dotaccent" unicode="&#x2d9;" horiz-adv-x="212" 
d="M90 774q0 30 19.5 52t49.5 22q29 0 48.5 -22.5t19.5 -51.5q0 -30 -19.5 -52.5t-48.5 -22.5q-30 0 -49.5 22.5t-19.5 52.5z" />
    <glyph glyph-name="ring" unicode="&#x2da;" horiz-adv-x="361" 
d="M103 596q0 29 21 50t50 21q30 0 50.5 -20.5t20.5 -50.5t-20 -51t-51 -21q-29 0 -50 21t-21 51zM129 596q0 -19 13 -32.5t32 -13.5q20 0 32.5 13.5t12.5 32.5t-12.5 32t-32.5 13q-19 0 -32 -13t-13 -32z" />
    <glyph glyph-name="hungarumlaut" unicode="&#x2dd;" horiz-adv-x="259" 
d="M66 689l-15 16l46 87q16 31 34 31q33 0 33 -41q0 -25 -39 -52zM179 689l-15 16l47 87q17 31 34 31q14 0 23 -13t9 -28q0 -25 -39 -52z" />
    <glyph glyph-name="ogonek" unicode="&#x2db;" horiz-adv-x="301" 
d="M206 0h51q-62 -54 -62 -94q0 -44 46 -44q29 0 70 20l12 -35q-53 -38 -108 -38q-36 0 -60 21.5t-24 57.5q0 59 75 112z" />
    <glyph glyph-name="caron" unicode="&#x2c7;" horiz-adv-x="439" 
d="M350 645l6 -13l-128 -96l-134 99l8 14l125 -53z" />
    </font>
</defs>
</svg>
