<?xml version="1.0" standalone="no"?>
<!DOCTYPE svg PUBLIC "-//W3C//DTD SVG 1.1//EN" "http://www.w3.org/Graphics/SVG/1.1/DTD/svg11.dtd" >
<svg>
<metadata>
Created by FontForge 20120731 at Mon Apr 15 12:04:41 2019
 By www-data
Digitized by Dan X. Solo. Software (c) 1999 by Dover Publications, Inc., New York.
</metadata>
<defs>
<font id="DurerGothic" horiz-adv-x="20" >
  <font-face 
    font-family="Durer Gothic"
    font-weight="400"
    font-stretch="normal"
    units-per-em="1000"
    panose-1="0 0 4 0 0 0 0 0 0 0"
    ascent="800"
    descent="-200"
    x-height="470"
    cap-height="680"
    bbox="-54 -203 741 830"
    underline-thickness="20"
    underline-position="-123"
    unicode-range="U+0020-F002"
  />
<missing-glyph horiz-adv-x="500" 
d="M63 0v800h375v-800h-375zM125 63h250v675h-250v-675z" />
    <glyph glyph-name=".notdef" horiz-adv-x="500" 
d="M63 0v800h375v-800h-375zM125 63h250v675h-250v-675z" />
    <glyph glyph-name=".null" horiz-adv-x="0" 
 />
    <glyph glyph-name="glyph2" horiz-adv-x="191" 
 />
    <glyph glyph-name="space" unicode=" " horiz-adv-x="191" 
 />
    <glyph glyph-name="exclam" unicode="!" horiz-adv-x="169" 
d="M126 600q-20 -17 -25 -45v-193q0 -139 -18 -215q-1 -2 -4 -2q-4 0 -4 2q-22 75 -23 215l-1 193q-3 25 -23 44q30 18 48 60q25 -44 50 -59zM79 -14q-20 32 -50 57q31 25 50 61q16 -42 53 -61q-33 -13 -53 -57z" />
    <glyph glyph-name="quotedbl" unicode="&#x22;" horiz-adv-x="233" 
d="M142 675l-25 -31l25 -196h21l19 193l-22 31zM42 675l-25 -31l25 -196h21l19 193l-22 31z" />
    <glyph glyph-name="numbersign" unicode="#" horiz-adv-x="348" 
d="M308 442h-73l-27 -202l77 -1l-8 -54h-75l-24 -188h-39l26 188h-63l-28 -187h-38l29 187h-68l10 55h66l29 202h-64l8 57h62l26 175h32l-26 -175h69l25 175h34l-25 -175h73zM136 442l-28 -202h65l27 202h-64z" />
    <glyph glyph-name="dollar" unicode="$" horiz-adv-x="238" 
d="M133 76q0 -3 -21 0v69q-16 40 -53 40q-24 0 -29 -21q-2 -8 -2 -35q-10 -1 -11 0q-10 16 -10 40q0 26 16 46.5t41 20.5q32 0 44 -16l10 -26q16 -1 16 1v162q0 38 -26 38q-20 0 -53 -59q-16 37 -49 68l20 26v184q34 -39 51 -39q14 0 35 31v75q0 -3 21 0v-52q10 -41 10 -43
q11 -28 31 -28q11 0 18.5 8.5t7.5 15.5q0 19 -8 28l-10 6q3 5 8 10q10 -3 17 -19.5t7 -30.5q0 -42 -70 -48q-35 -3 -66 28q1 -83 0 -122q8 -19 17 -24q1 0 13 -2q16 -1 32 25q10 17 20 35q9 -22 30 -45q17 -20 20 -20q-4 -6 -8 -11q-9 -11 -9 -33v-151l11 -66
q-18 11 -37 22.5t-34 11.5v-100z" />
    <glyph glyph-name="percent" unicode="%" horiz-adv-x="435" 
d="M21 19q36 6 72 52q38 34 96 263q65 254 96 310q33 60 92 60l-2 -21q-35 6 -67 -50q-24 -41 -52 -136q-29 -118 -58 -235q-44 -167 -83 -207q-46 -48 -91 -56zM92 261q-21 11 -43 68q-19 49 -22.5 79.5t-3.5 65.5q0 129 65 215q18 -9 41 -66q21 -50 25 -77q4 -37 4 -78
q0 -120 -66 -207zM72 638q-16 -38 -16 -111q0 -155 52 -214q16 38 16 112q0 151 -52 213zM332 1q-21 11 -43 68q-19 49 -22.5 79.5t-3.5 65.5q0 129 65 215q18 -9 41 -66q21 -50 25 -77q4 -37 4 -78q0 -120 -66 -207zM312 378q-16 -38 -16 -111q0 -155 52 -214q16 38 16 112
q0 151 -52 213z" />
    <glyph glyph-name="ampersand" unicode="&#x26;" horiz-adv-x="388" 
d="M361 384l-38 -60h-49q-1 -89 1 -195q0 -57 84 -130l-66 1l-130 -1q-8 0 -56 45q-33 30 -65 60l-1 215q0 28 -15 37l82 67q-4 5 -44.5 35t-39.5 32q16 19 16 38q0 14 -1 46v46q0 62 58 62q7 0 13 -1q30 1 72 -1q56 -101 118 -101q51 0 51 44q0 41 -28 41q-21 0 -29 -17
q-3 -6 -7 -29l-14 -3q-12 -3 -25.5 15.5t-13.5 31.5q0 21 17 21q14 0 14 -11q0 -9 -8 -9.5t-8 -7.5q11 -24 20 -24h9q2 44 37 47q24 3 38 -14t13 -41q-1 -27 -23 -41q-1 0 -43 -17q-23 -9 -24 -25v-34l-63 -31v70q1 45 1 69q-17 1 -34 0l1 -550h101q-15 17 -68 75l-1 245
h148zM166 512v102h-34q-27 0 -27 -33q0 -5 1 -13v-8q0 -15 1 -49zM166 401v99q-34 3 -60 0q-2 -1 0 -53q22 -18 60 -46zM166 229v148q-18 -18 -57 -53l-1 -95h58zM166 64v152h-58l1 -152h57z" />
    <glyph glyph-name="quotesingle" unicode="'" horiz-adv-x="146" 
d="M42 675l-25 -31l25 -196h21l19 193l-22 31z" />
    <glyph glyph-name="parenleft" unicode="(" horiz-adv-x="207" 
d="M55 621q-47 -136 -47 -306q0 -172 47 -314q24 1 59 -29q36 -33 57 -78q0 2 1 46l-67 108q-25 161 -25 295t25 237l67 108l-2 36q-47 -84 -115 -103z" />
    <glyph glyph-name="parenright" unicode=")" horiz-adv-x="207" 
d="M143 621q47 -136 47 -306q0 -172 -47 -314q-24 1 -59 -29q-36 -33 -57 -78v46l66 108q25 161 25 295t-25 237l-66 108l1 36q47 -84 115 -103z" />
    <glyph glyph-name="asterisk" unicode="*" horiz-adv-x="385" 
d="M161 500q-34 -20 -46.5 -37.5t-25.5 -34.5q-16 -18 -36 -18q-16 0 -27 11t-11 27q0 39 71 46q29 3 65 23q-33 20 -57 23q-43 5 -51 8q-28 11 -28 39q0 16 11 26.5t27 10.5q25 0 55 -44q16 -24 53 -45v15q0 23 -14.5 56.5t-14.5 44.5q0 17 11 29.5t28 12.5t28.5 -13
t11.5 -30q0 -6 -14.5 -43.5t-14.5 -71.5q28 17 48 38q12 17 26 34t34 17q16 0 27 -10.5t11 -26.5q0 -39 -69 -45q-32 -3 -67 -25q32 -20 57 -23q44 -6 51 -8q28 -10 28 -39q0 -35 -36 -35q-26 0 -57 43q-18 25 -53 45v-16q0 -22 14 -55t14 -45q0 -18 -11 -30.5t-28 -12.5
t-28 13t-11 30q0 10 17 46q12 26 12 70z" />
    <glyph glyph-name="plus" unicode="+" horiz-adv-x="482" 
d="M254 257l1 -206l-57 2v202h-183v45h182v196h54v-193h181v-46h-178z" />
    <glyph glyph-name="comma" unicode="," horiz-adv-x="186" 
d="M99 17l-23 -43l-7 -52l-25 3q0 42 20 84q-15 21 -43 44q35 28 58 73q20 -50 66 -74q-27 -10 -46 -35z" />
    <glyph glyph-name="hyphen" unicode="-" horiz-adv-x="266" 
d="M213 186h-207l21 48l3 -1l202 1z" />
    <glyph glyph-name="hyphen" unicode="&#x2010;" horiz-adv-x="266" 
d="M213 186h-207l21 48l3 -1l202 1z" />
    <glyph glyph-name="period" unicode="." horiz-adv-x="152" 
d="M75 -26q-24 40 -59 68q27 22 36 30q13 15 26 40q12 -29 21 -40q12 -16 41 -31q-42 -16 -65 -67z" />
    <glyph glyph-name="slash" unicode="/" horiz-adv-x="404" 
d="M69 -6h-48l288 721h48z" />
    <glyph glyph-name="zero" unicode="0" horiz-adv-x="235" 
d="M103 -26q-32 22 -65 117q-29 82 -34 133.5t-5 108.5q0 216 97 362q28 -16 64 -112q31 -84 36 -129q6 -62 6 -130q0 -201 -99 -350zM74 602q-22 -62 -22 -181q0 -252 74 -350q21 61 21 181q0 114 -11 182q-16 103 -62 168z" />
    <glyph glyph-name="one" unicode="1" horiz-adv-x="249" 
d="M128 43q-54 -50 -73 -50q-4 0 -8 1q21 24 38 59q19 41 16 68l1 461q-14 -4 -57 -25l-4 20q9 6 26 20l23 23q4 4 34 53q6 8 13 14q59 -73 59 -71q0 -3 -11 -15q-21 -21 -21 -55l1 -425q0 -21 14 -68q16 -52 30 -62q-39 3 -81 52z" />
    <glyph glyph-name="two" unicode="2" horiz-adv-x="235" 
d="M155 -3h-148l-7 12q0 45 41 129q62 125 62 127q18 45 18 196q0 57 -8 86q-10 42 -42 75q-46 -36 -46 -116q0 -31 10 -50q5 -10 28 -38q8 -9 8 -18q0 -44 -4 -68q-31 17 -51 79q-14 48 -15 81q0 57 28 111q15 31 62 95l8 -4q56 -66 73 -113.5t17 -134.5q0 -86 -40 -168
q-8 -17 -88 -148q-23 -38 -23 -58v-1v-2l1 -1h81q17 0 36 26.5t16 44.5l11 6l11 -15q-11 -45 -39 -133z" />
    <glyph glyph-name="three" unicode="3" horiz-adv-x="235" 
d="M132 396q38 -38 51 -92q9 -37 9 -106q0 -66 -21 -126q-29 -83 -82 -83q-89 0 -89 126q0 43 18 89q22 57 59 65l-1 -74q-52 -27 -52 -81q0 -33 13 -62q16 -38 43 -38q46 0 46 155q0 81 -7 114q-15 67 -69 86q52 27 72 50q29 30 29 75q0 38 -21.5 78t-52.5 62
q-44 -27 -44 -85q0 -56 47 -68v-56q-73 47 -73 124q0 36 27 87q30 59 63 59t66 -63q30 -55 30 -91q0 -100 -61 -145z" />
    <glyph glyph-name="four" unicode="4" horiz-adv-x="224" 
d="M178 153q-4 0 -6 5l-1 2q-2 6 -3 18q-2 22 -4 28q-4 18 -15 21v-102q0 -35 20 -62q-32 -42 -51 -70l-49 71q24 30 24 64v101l-92 1l-8 11q55 170 69 219q37 140 31 223h72l-146 -429h74q0 69 1 129l55 184v-314q23 7 22 63l17 3v-161q-4 -5 -10 -5z" />
    <glyph glyph-name="five" unicode="5" horiz-adv-x="235" 
d="M89 -11q-48 -4 -71 40q-18 33 -18 86q0 43 19 92q24 61 58 61l-1 -74q-22 -2 -37 -26t-15 -54q0 -31 15 -62q17 -37 45 -37q47 0 47 166q0 11 1.5 46t2.5 56q0 72 -16 109q-19 44 -45 44q-22 0 -48 -29q-4 3 -12 1l-3 -1q-7 -2 -8 3l32 273h153l-45 -66q-36 0 -88 -1
l-23 -169q24 25 53 25t56 -22.5t35 -46.5q20 -62 20 -196q0 -67 -20 -128q-30 -85 -87 -90z" />
    <glyph glyph-name="six" unicode="6" horiz-adv-x="238" 
d="M104 1q-38 6 -73 107q-31 87 -31 136q0 119 43 242q46 133 125 212l13 -5q-57 -72 -91 -211q-30 -120 -30 -228q0 -115 62 -180q41 35 41 139q0 74 -82 168q11 43 15 71q48 -26 76 -98q23 -60 23 -121q0 -108 -91 -232z" />
    <glyph glyph-name="seven" unicode="7" horiz-adv-x="244" 
d="M89 169q0 -72 44 -95v-84q-43 0 -71 52q-24 44 -24 92q0 52 22 118q9 25 45 111q65 154 62 258h-122q-17 -34 -17 -56q0 -52 34 -52q-1 0 25 8v-73q-37 2 -61 25.5t-24 61.5q0 30 35 148h153v-106q0 -71 -50.5 -205t-50.5 -203z" />
    <glyph glyph-name="eight" unicode="8" horiz-adv-x="226" 
d="M87 -10q-48 0 -73 58q-18 43 -18 98q0 82 70 192q-67 163 -67 210q0 49 23 89q27 50 72 50q43 0 68 -43q22 -36 22 -81q0 -60 -55 -157q-9 -16 -9 -17l44 -112q24 -67 24 -118q0 -61 -20 -107q-27 -62 -81 -62zM99 669q-23 0 -37 -26q-12 -22 -12 -49q0 -35 23 -92
l36 -90q48 84 48 144q0 34 -13 69q-17 44 -45 44zM77 314q-49 -75 -49 -166q0 -48 12 -85q18 -53 53 -53q21 0 36 38q13 33 13 59q0 42 -25 105z" />
    <glyph glyph-name="nine" unicode="9" horiz-adv-x="238" 
d="M27 1l-14 5q57 72 91 211q30 120 30 228q0 116 -61 180q-41 -35 -41 -139q0 -74 81 -168q-10 -43 -15 -71q-48 26 -75 98q-23 60 -23 121q0 108 91 232q37 -6 73 -107q31 -87 31 -136q0 -119 -43 -242q-47 -133 -125 -212z" />
    <glyph glyph-name="colon" unicode=":" horiz-adv-x="152" 
d="M80 295q-24 40 -59 68q35 28 58 73q20 -50 66 -74q-42 -16 -65 -67zM80 -5q-23 38 -64 67q43 35 63 74q20 -50 66 -74q-42 -16 -65 -67z" />
    <glyph glyph-name="semicolon" unicode=";" horiz-adv-x="152" 
d="M99 17l-23 -43l-7 -52l-25 3q0 42 20 84q-15 21 -43 44q35 28 58 73q20 -50 66 -74q-27 -10 -46 -35zM80 295q-19 30 -62 65q38 31 61 76q20 -50 66 -74q-42 -16 -65 -67z" />
    <glyph glyph-name="less" unicode="&#x3c;" horiz-adv-x="388" 
d="M33 367l280 221l34 -31l-243 -190l240 -178l-34 -32z" />
    <glyph glyph-name="equal" unicode="=" horiz-adv-x="530" 
d="M13 329l1 49h455v-49h-456zM13 199l1 50l455 -1v-49h-456z" />
    <glyph glyph-name="greater" unicode="&#x3e;" horiz-adv-x="368" 
d="M57 157l-34 32l240 178l-243 190l34 31l280 -222z" />
    <glyph glyph-name="question" unicode="?" horiz-adv-x="267" 
d="M106 165q0 46 10 74q15 37 30 73.5t15 166.5q0 51 -12 80.5t-48 66.5q-48 -37 -48 -120q0 -44 22.5 -72t22.5 -34q0 -44 -3 -64q-28 15 -47 76q-14 47 -14 80q0 56 26 108q16 32 62 95l5 -3q62 -71 74 -97q19 -38 20 -119q1 -61 -24 -128q-9 -25 -48 -104
q-26 -54 -26 -79h-17zM109 -11q-24 40 -59 68q27 22 36 30q13 15 26 40q12 -29 21 -40q12 -16 41 -31q-42 -16 -65 -67z" />
    <glyph glyph-name="A" unicode="A" horiz-adv-x="435" 
d="M421 681q-24 -19 -58 -58v-497q-2 -25 10.5 -48.5t12.5 -19.5l-21 -21q-23 -25 -34 -47q-15 20 -29.5 38.5t-31.5 29.5q6 9 11 17q14 26 14 53v170h-63v-397q12 -13 16 -43q-12 -19 -19 -19q-24 0 -24 19q0 25 15 43v718q-3 0 -9 1h-7q-15 0 -15 -25l-1 -471
q0 -145 2 -93q-2 -53 -14 -92q-7 -23 -47 -67.5t-58 -44.5q-4 0 -4 7q44 35 49 94q2 53 3 106v485q-2 16 -20 21l83 80h-107q-21 0 -39.5 -14.5t-18.5 -36.5q0 -15 15 -28t29.5 -13t19.5 -2q2 -8 -45 -43q-40 24 -40 66q0 28 17 50q10 14 56 48t49 34h303zM293 415v203h-60
v-203h60zM292 339q0 37 1 32h-61v-32q30 -1 60 0zM100 378l-19 -26l-20 25l-26 18l25 21l18 25l21 -24l25 -19zM100 289l-19 -25l-20 24l-26 18l25 21l18 25l21 -24l25 -18z" />
    <glyph glyph-name="B" unicode="B" horiz-adv-x="382" 
d="M338 490q1 -2 -38 -31q-42 -31 -46 -36l81 -67q-14 -8 -15 -37v-215q-33 -30 -65 -61q-49 -45 -57 -45l-130 1q-3 0 -65 -1q24 22 42 43q42 50 42 88q-1 115 0 401q0 20 -22.5 30t-44.5 18q-24 15 -24 45q-1 24 13 41t38 14q34 -3 37 -47h8q10 0 21 24q0 7 -8 7.5t-8 9.5
q0 11 13 11q17 0 17 -21q0 -12 -15.5 -28t-28.5 -16h-9q-3 23 -6 29q-8 17 -29 17q-28 0 -28 -41q0 -44 51 -44q62 0 118 101q5 1 72 1q29 0 50 -15.5t21 -45.5v-46.5v-47.5q0 -18 15 -36zM255 560l1 8t1 14q0 34 -27 32h-34v-102q5 -1 59 -1v49zM256 500q-27 3 -60 0v-99
q15 11 60 46q1 52 0 53zM254 229l1 95q-21 19 -59 53v-148h58zM182 614h-34v-475q-28 -30 -71 -78h105v553zM255 62l-1 154h-58v-155zM71 378l-19 -26l-20 25l-26 18l25 21l18 25l21 -24l25 -19zM71 289l-19 -25l-20 24l-26 18l25 21l18 25l21 -24l25 -18z" />
    <glyph glyph-name="C" unicode="C" horiz-adv-x="312" 
d="M305 111q0 -5 -12 -41q-15 -42 -27 -59q-22 -27 -96 -27q-166 0 -166 286q0 50 26 119q24 61 65 102q35 36 35 33q0 28 -23 34l-46 6q-26 9 -31 44q-3 24 12.5 40.5t37.5 16.5q40 0 44 -53q30 5 37 35q-5 -2 -9 -2q-8 0 -8 8q0 13 12 13q16 0 16 -18q0 -17 -20.5 -32.5
t-38.5 -18.5l-10 2q9 17 9 25q0 26 -34 26q-16 0 -26 -12.5t-10 -27.5q0 -39 50 -39q38 0 76 30t62 78q49 -49 49 -64q0 2 -21.5 -30t-18.5 -56v-465q24 25 66 63v-16zM228 545q-8 29 -35 59q1 8 1 -54l-2 -371q0 -31 -35.5 -65t-33.5 -37q14 -28 62 -28q29 0 42 10z
M128 504q-23 -15 -38 -67q-12 -42 -12 -74q-13 -101 0 -179q0 -23 11 -55q12 -35 26 -42q9 15 14 67z" />
    <glyph glyph-name="D" unicode="D" horiz-adv-x="422" 
d="M357 492v-392l-113 -102h-209q28 24 55.5 48t34.5 65l-1 401q0 30 -22 32l73 75h-36q-32 1 -34 1q-32 0 -56 -14q-29 -16 -29 -45q0 -36 57 -38q-44 -49 -45 -48q-17 6 -27.5 28t-8.5 47q2 35 60.5 80.5t59.5 50.5h88q97 -2 131 -63q22 -40 22 -126zM293 512q-4 49 -5 54
q-12 46 -56 53q1 -28 1 -107h60zM293 231v269h-60v-269h60zM221 619l-35 -1v-491q-27 -28 -67 -70h102v562zM293 58v162h-60v-162h60zM105 378l-19 -26l-20 25l-26 18l25 21l18 25l21 -24l25 -19zM105 289l-19 -25l-20 24l-26 18l25 21l18 25l21 -24l25 -18z" />
    <glyph glyph-name="E" unicode="E" horiz-adv-x="327" 
d="M302 133q0 -65 -37 -101.5t-95 -37.5q-80 -2 -126 82q-33 60 -40 141q-3 29 -3 56q0 157 94 242q10 6 18.5 11.5t8.5 17.5q0 30 -35 30h-5h-5q-18 0 -35 15t-17 33q0 24 14 39.5t38 15.5q37 0 37 -39q0 -6 -1 -12q7 1 22 11q21 13 21 23l-1 8q-5 4 -8 0q-3 -3 -3 -8
q-9 1 -8 13q0 10 15 10t15 -19q0 -18 -23.5 -33.5t-43.5 -13.5q0 4 2.5 10t2.5 12q0 28 -31 28q-35 0 -35 -41q0 -39 53 -39q23 0 36 7q40 20 73 62q29 38 26 38q31 -39 46 -59q0 2 -20 -26.5t-18 -57.5v-133h32v41q8 1 9 0v-190h-5.5h-4.5v35h-31q0 -128 1 -173
q1 -40 2 -51t1 -12q21 3 64 74v-9zM223 417v135q0 14 -14 39t-22 29v-203h36zM266 379h-33v-34h33v34zM223 345v34h-37v-34h37zM120 520q-27 -25 -38 -71q-6 -39 -12 -77q-7 -97 -2 -156q5 -46 10 -66q9 -34 30 -58q9 20 10 46q1 31 2 37v345zM223 304h-38v-133l-71 -87
q21 -28 65 -28q31 0 44 8v240z" />
    <glyph glyph-name="F" unicode="F" horiz-adv-x="397" 
d="M347 264h-11v33h-38v-395q0 -7 6.5 -23.5t6.5 -17.5q0 -16 -21 -16q-19 0 -19 17q0 6 5.5 17t7.5 24v396h-34v-249q-2 -65 -36 -125q-39 -69 -102 -93q85 88 84 220q-3 212 -2 227l1 290q-16 -12 -43 -23l2 -457q1 -18 1 -33q0 -153 -116 -227q47 64 47 190v489
q0 16 -21 26q-39 17 -41 19q-22 15 -22 45t18 48t43 18q61 0 61 -38q0 -18 -25 -20.5t-25 -15.5q0 -14 26 -14q33 0 51 48.5t50 48.5q31 0 31 -26q0 -18 -18 -18q-16 0 -16 8q0 6 4 9q3 2 11 -1q0 -2 3 -6q4 2 4 7q0 17 -18 18q-19 1 -31 -24l-24 -50q-17 -26 -46 -25
q-38 0 -38 28q0 7 8 14.5t12 7.5q27 -1 27 8q0 26 -47 26q-21 0 -35 -16.5t-14 -38.5q0 -47 77 -47q113 0 204 141q51 -60 48 -63q-14 -13 -27 -34q-7 -13 -14 -25v-150h34v36l11 1v-189zM290 415v150q0 8 -14.5 28t-19.5 23v-201h34zM334 374h-33l1 -35h32v35zM286 339
l1 34l-31 1v-35h30zM69 378l-19 -26l-20 25l-26 18l25 21l18 25l21 -24l25 -19zM69 289l-19 -25l-20 24l-26 18l25 21l18 25l21 -24l25 -18z" />
    <glyph glyph-name="G" unicode="G" horiz-adv-x="400" 
d="M362 218q0 -77 -36 -143q-46 -86 -129 -86q-95 0 -148 94q-47 81 -47 196q0 78 23 135q20 50 48 75q18 13 37 26q16 12 16 39q0 20 -11 24q-2 1 -25 1q-2 0 -6.5 1t-6.5 1q-17 0 -34 18.5t-17 36.5q0 21 17 33t37 12q51 0 45 -53q13 4 23.5 17.5t10.5 22.5q0 2 -2 5
q-4 -2 -6 -8q-4 0 -8 3v11q7 7 13 7q13 0 13 -20q0 -18 -17.5 -31.5t-36.5 -17.5l-23 2q2 3 14 7q8 3 8 19q0 13 -12.5 20.5t-22.5 7.5q-16 0 -29 -12.5t-13 -27.5q0 -20 21 -31q16 -9 38 -9q36 0 73.5 28t57.5 71q16 -7 49 -60q0 1 -20 -21.5t-20 -31.5q0 -8 38 -56
q0 -1 -19.5 -26.5t-16.5 -43.5q62 -7 97 -76q27 -54 27 -116v-43zM228 580q0 7 -13 24.5t-26 20.5v-98q6 2 22.5 22.5t16.5 30.5zM226 453q0 35 -37 61v-79l12 10q10 6 25 8zM294 259v76q0 24 -16 56q-18 38 -40 46v-225zM225 328v109q-8 -1 -22.5 -8t-14.5 -12v-243
q12 7 24 15.5t13 15.5q3 35 0 123zM120 511q-20 -12 -36 -66q-13 -45 -13 -75q-12 -98 0 -179q0 -49 26 -97q13 11 22 52zM294 158v85q-48 -32 -59 -51v-178q27 8 45 60q14 43 14 84zM222 4v178l-120 -100q43 -80 106 -80q2 0 7 1t7 1z" />
    <glyph glyph-name="H" unicode="H" horiz-adv-x="385" 
d="M345 56q0 -2 -47 -28q-57 -31 -88 -58q-48 -41 -48 -78q0 -23 15 -41.5t38 -18.5q41 0 41 39q0 31 -36 45l77 1q11 -12 11 -26q0 -36 -30 -55q-24 -16 -58 -16t-54 24.5t-18 58.5q3 36 57.5 94.5t55.5 100.5v110l-63 -51v-98q1 0 39 7q-68 -66 -96 -66h-139q24 17 48 35
q41 37 41 91v352q2 26 -6 42q-3 6 -47 35q-38 24 -38 55t20 50.5t47 20.5q18 2 37 -14.5t19 -32.5q0 -6 -5.5 -14.5t-13.5 -8.5q-2 0 -11 1.5t-11 1.5q-11 0 -11 -7q0 -25 31 -25q29 0 44 48.5t46 48.5q10 0 18.5 -10t8.5 -19q0 -22 -22 -22q-15 0 -15 15q0 11 10 11
q7 0 8 -5t3 -11q7 4 7 15q0 18 -22 18q-20 0 -28.5 -24.5t-16.5 -48.5q-14 -25 -45 -25q-10 0 -23 9t-13 22q0 19 21 19q2 0 9 -2t9 -2q12 0 12 12q0 17 -15.5 29t-30.5 12q-23 0 -40 -17t-17 -43q0 -19 20.5 -38.5t38.5 -19.5h8q6 -1 8 -1q55 0 204 131q7 -32 53 -63
q-16 -26 -55 -73q-23 55 -49 55q-19 0 -29.5 -14t-10.5 -32v-153h18q33 0 70 58q24 -35 59 -62q-21 -23 -21 -49l-1 -252q0 -13 22 -43zM261 365q-4 29 -62 26l1 -140l61 53v61zM261 291l-62 -52l1 -67l61 52v67zM186 59v517q-12 -6 -35 -18l-1 -432q-22 -20 -62 -67h98z
M75 378l-19 -26l-20 25l-26 18l25 21l18 25l21 -24l25 -19zM75 289l-19 -25l-20 24l-26 18l25 21l18 25l21 -24l25 -18z" />
    <glyph glyph-name="I" unicode="I" horiz-adv-x="366" 
d="M335 680l-27 -27l-1 -522q0 -54 -47.5 -100.5t-100.5 -46.5h-44q-43 0 -79.5 36t-36.5 78q0 107 97 122v56l-35 36q14 13 38 39q-9 15 -39 39l35 38l1 194q-93 -40 -93 -78q0 -24 23 -36q20 -11 47 -9q-11 -10 -41 -38q-45 18 -42 85q2 26 32 53q38 34 75 68q13 13 10 13
h228zM246 624h-139v-196l32 -34v103v25q-2 5 -12 15zM139 386l-34 -34l34 -36q2 65 0 70zM246 131v478l-43 -34l-1 -427q0 -33 -11 -64q-17 -51 -55 -51q-77 0 -86 63q-1 4 4 5h7q3 -18 8 -25q10 -15 34 -16q40 -2 40 84l-4 164l-32 -32v-118q-15 12 -38 12q-59 0 -59 -72
q0 -47 36 -76q33 -27 78 -27q51 0 86.5 41.5t35.5 94.5z" />
    <glyph glyph-name="J" unicode="J" horiz-adv-x="381" 
d="M354 681l-36 -29v-535q0 -148 -26 -205q-41 -89 -168 -89q-51 0 -88 37t-37 88q0 41 34 74q30 30 73 42v209l-37 40l40 38l-39 38l36 41l-1 188l-8 1q-25 1 -56 -26.5t-31 -53.5q0 -20 26 -32.5t47 -8.5l-44 -39q-48 25 -48 63q0 34 24 63q14 16 51.5 46.5t52.5 49.5h235
zM255 619h-138v-189l32 -38v91q0 40 -11 51zM149 386q-2 -2 -34 -35q12 -15 34 -39q0 10 1 32v32q0 6 -1 10zM256 10v596q-32 -16 -39 -55q-2 -12 -2 -72v-491q0 -43 -24 -78q-26 -40 -67 -40q-19 0 -28 11h16q37 -1 37 92v332l-30 -32v-267q-22 22 -37 22q-34 0 -52 -23.5
t-18 -58.5q0 -45 34.5 -77t80.5 -32q129 0 129 173z" />
    <glyph glyph-name="K" unicode="K" horiz-adv-x="390" 
d="M382 -169l-1 -6q-40 33 -68.5 88t-28.5 101v109q0 6 -21 16q-17 9 -29 12l-41 -1v-89q7 -3 35 6.5t27 10.5q-29 -36 -77 -78h-175q25 23 50 47q27 29 30 61v373q0 43 -24 63q-21 13 -44 27.5t-23 49.5q0 28 21 45.5t46 17.5q23 0 40 -11q22 -14 17 -37q-1 -8 -10 -16
t-17 -8q-1 0 -13 5.5t-14 5.5q-12 0 -12 -11q0 -20 36 -20q22 0 33.5 24.5t22.5 47.5q16 25 50 25q10 0 17 -12.5t7 -17.5q0 -27 -30 -27q-5 0 -10.5 5t-5.5 9q0 12 13 12q3 0 5.5 -2l2.5 -2q1 -6 -1 -10q2 -3 5 -3q11 0 9 17q0 19 -20 19q-31 0 -50 -47.5t-53 -47.5
q-14 0 -27.5 8.5t-13.5 21.5q0 18 19 20q2 0 16 -5t16 -5q16 0 16 16q0 34 -49 34q-20 0 -36.5 -14t-16.5 -37q0 -19 12 -36t33 -17q2 0 19.5 -1.5t19.5 -1.5q37 0 108 47t84 82l3 -1q8 -10 33 -38q23 -24 23 -25t-25 -30.5t-28 -39.5q-2 2 -23 31q-14 19 -30 19
q-43 0 -43 -45v-155h39q5 0 27 26.5t25 26.5l58 -60q0 -1 -26 -26.5t-26 -37.5q0 -9 21 -29.5t27 -23.5v-8q-6 -5 -26.5 -29t-20.5 -30q0 -8 28.5 -33.5t28.5 -65.5v-96q0 -157 36 -193zM279 342q-33 45 -49 50h-39v-105h39q19 20 49 55zM281 220q0 4 -21.5 28t-29.5 24h-37
v-108h39q6 0 27.5 24t21.5 32zM178 61v523q-10 -5 -28 -15l1 -409q0 -45 -26 -69q-21 -15 -41 -30h94zM65 378l-19 -26l-20 25l-26 18l25 21l18 25l21 -24l25 -19zM65 289l-19 -25l-20 24l-26 18l25 21l18 25l21 -24l25 -18z" />
    <glyph glyph-name="L" unicode="L" horiz-adv-x="375" 
d="M368 98l-106 -98h-258q25 22 50 45q31 29 31 65v342q0 59 -23 85q-21 15 -43 31.5t-22 53.5q-1 25 22 42q20 15 38 15q22 0 37 -17.5t15 -35.5q0 -8 -11 -15t-15 -7q-2 0 -11.5 2.5t-11.5 2.5q-10 0 -10 -9q0 -19 23 -19t46.5 50.5t57.5 50.5q15 0 25.5 -11.5t10.5 -23.5
q0 -11 -7.5 -20.5t-19.5 -9.5q-4 0 -12 4.5t-8 10.5q0 14 11 14q13 0 7 -18q2 -3 5 -3q14 0 14 23q0 24 -25 24q-30 0 -53 -50.5t-52 -50.5q-12 0 -21.5 8.5t-9.5 18.5q0 19 17 19q2 0 11 -2.5t11 -2.5q13 0 13 18q0 37 -40 37q-14 0 -29 -14t-16 -27q-4 -35 24 -55
q24 -16 59 -16q42 0 108 44.5t88 88.5q0 -5 47 -62q-21 -20 -36 -78l-2 -483q28 11 71 33zM281 62v486q-4 14 -9 27q-12 29 -26 42v-412q0 -8 -74 -71q-77 -64 -80 -71zM183 165v408q-25 -10 -35 -18v-425zM64 375l-19 -26l-20 24l-25 19l24 20l18 26l21 -24l25 -19zM64 286
l-19 -26l-20 24l-25 19l24 20l18 26l21 -24l25 -19z" />
    <glyph glyph-name="M" unicode="M" horiz-adv-x="535" 
d="M55 378l-19 -26l-20 25l-26 18l25 21l18 25l21 -24l25 -19zM55 289l-19 -25l-20 24l-26 18l25 21l18 25l21 -24l25 -18zM510 72q2 -1 -23 -29q-31 -34 -37 -42q-43 46 -45 48q-13 9 -45 9q-34 0 -43 -8q-5 -4 -37 -51l-24 30q-23 28 -38 28h-79q-6 -77 -19 -114
q-24 -66 -86 -113q-1 8 13 26q26 36 25 136v487q0 43 -21 62q-20 11 -40 23q-21 16 -21 53q0 17 16 34.5t32 17.5q55 0 48 -56q18 2 31.5 16t13.5 28q0 7 -5 7q-1 0 -5.5 -1t-6.5 -1q-10 0 -10 11q0 14 16 14q22 0 22 -29q0 -27 -27 -43q-22 -13 -42 -13q-6 0 -9 2
q0 3 6.5 7t6.5 18q0 13 -13.5 21t-25.5 8q-16 0 -26 -13.5t-10 -28.5q0 -51 67 -51q16 0 52 24q31 22 39 34q31 42 58 72q2 0 36 -36q40 -44 44 -48q6 1 41 35q26 25 52 51l103 -105q-7 -10 -14 -45l1 -417q1 -16 3 -32q4 -19 26 -26zM416 417l-1 86q0 60 -3 71
q-9 36 -55 61v-218h59zM412 344q-2 36 0 36q-60 -2 -54 0v-36q1 -2 54 0zM246 418v138q0 17 -20.5 35t-40.5 35l1 -208h60zM346 73q2 278 0 560q-25 -20 -32 -35q-5 -10 -4 -33q4 -187 0 -440q-1 -52 27 -52h9zM245 338v42l-58 -2l2 -40h56zM414 133l1 172q-22 0 -57 -2
v-231q31 1 43.5 14.5t12.5 46.5zM173 69l-1 547q-12 -7 -22 -24t-10 -29l-1 -494h34zM246 125l-1 178l-58 -1l2 -234q21 1 30 1t16 8q13 15 11 48z" />
    <glyph glyph-name="N" unicode="N" horiz-adv-x="402" 
d="M369 680q1 -4 -17.5 -22t-18.5 -25q2 -295 0 -526q3 -16 26 -45q-38 -20 -57 -64q-19 38 -54 62q24 25 24 47l-1 188l-60 -1v-367q0 -9 2 -45q16 -5 16 -25q0 -29 -26 -29t-26 29q0 21 19 25v43l-1 692l-34 -34l-1 -480q0 -15 12 -29.5t12 -13.5q-28 -21 -54 -58
q-19 32 -57 58q14 14 18 20q9 10 10 20v461q-1 1 -23 35q-15 22 -27 22q-16 0 -27 -20q-8 -16 -8 -29q0 -14 10.5 -26.5t24.5 -12.5q1 0 28 3q-3 -6 -20 -24.5t-22 -18.5q-20 0 -32 25q-9 20 -9 45q0 31 36 67q45 44 51 59l70 -86l88 80h128zM305 619h-97v-211h61v168z
M269 334v35h-61v-35h61zM85 378l-19 -26l-20 25l-26 18l25 21l18 25l21 -24l25 -19zM85 289l-19 -25l-20 24l-26 18l25 21l18 25l21 -24l25 -18z" />
    <glyph glyph-name="O" unicode="O" horiz-adv-x="408" 
d="M203 -12q-104 1 -161 129q-41 91 -41 180q0 185 123 251q3 8 0 17q-3 11 -11 12q-57 3 -73 14.5t-21 47.5q-2 20 19 35q18 14 34 14q21 0 37.5 -12t16.5 -28q0 -7 -4 -14q1 -1 6 -1q10 0 22 10.5t12 18.5q0 7 -5 9q-8 2 -9 4q0 14 10 14q14 0 14 -23q0 -37 -71 -47l-3 7
q10 3 10 25q0 20 -39 20q-35 0 -35 -32q0 -30 20 -39q9 -4 38 -4q23 0 31 2q14 4 42 24q2 1 55 56q81 -27 125 -131q40 -94 40 -218q0 -138 -47 -236q-52 -106 -135 -105zM302 429q5 16 -12 62q-20 55 -54 90v-151zM307 349l-1 39l-70 1v-40h71zM222 596l-34 28
q2 -70 0 -413q0 -20 1 -38q-81 -90 -81 -87q0 -24 33.5 -54t56.5 -30h24v594zM307 309h-72v-299q56 51 72 299zM124 219v317q-38 -18 -48 -113q-2 -21 -4 -115q-2 -142 31 -208q19 28 22 71q-1 -10 -1 48z" />
    <glyph glyph-name="P" unicode="P" horiz-adv-x="416" 
d="M359 278q-1 -41 -2 -50q-2 -31 -11 -57q-32 -98 -118 -171q-3 -79 0 -118q15 -15 15 -24q0 -8 -8.5 -13.5t-13.5 -5.5t-12.5 7t-7.5 11q0 13 16 25l-1 118h-31q3 -61 1 -79q3 -6 -24 -43q-34 -46 -38 -55q-3 4 0 177l-93 1l49 64l44 -2l-1 493q-1 8 -26.5 33.5
t-39.5 25.5q-17 0 -27 -21q-8 -15 -8 -27q0 -19 19.5 -30.5t35.5 -8.5q-14 -22 -31 -42q-44 11 -48 60q-2 36 35 75q45 47 51 65l100 -97q3 2 87 91q14 0 37 -32q36 -52 46 -95q5 -22 5 -81v-194zM294 411v109q0 23 -24 62t-39 33l-2 -204h65zM295 332v36q-17 0 -65 1v-37
h32.5h32.5zM216 602q-29 -25 -29 -30v-512l29 2v540zM294 163l1 132h-64v-233h10q7 -1 8 -1q45 0 45 102zM105 378l-19 -26l-20 25l-26 18l25 21l18 25l21 -24l25 -19zM105 289l-19 -25l-20 24l-26 18l25 21l18 25l21 -24l25 -18z" />
    <glyph glyph-name="Q" unicode="Q" horiz-adv-x="409" 
d="M104 9q-9 -6 -30 -42l-3 15q3 10 22 36q-49 43 -76 130q-21 67 -21 120q0 198 118 261q3 8 0 17q-3 11 -11 12q-50 3 -70 15q-27 17 -25 63q0 16 20 29.5t34 13.5q21 0 37.5 -15.5t16.5 -33.5q0 -8 -4 -15q1 -1 6 -1q10 0 22 10.5t12 18.5q0 7 -5 9q-8 2 -9 4q0 14 10 14
q14 0 14 -23q0 -37 -71 -47l-3 7q16 6 16 24q0 14 -14 25t-29 11q-18 0 -30 -12.5t-12 -29.5q0 -48 63 -48q23 0 31 2q14 4 42 24q5 3 58 75q77 -53 119 -161q36 -96 36 -209q0 -53 -18 -130q-24 -104 -67 -155q31 -32 28 -99q-1 -30 -32 -64.5t-62 -34.5h-7v56h15
q27 0 44 23q15 20 15 47q0 34 -17 56q-32 -28 -74 -28q-50 0 -89 30zM290 411q5 16 -11 62q-19 54 -53 89v-151h64zM292 330v40h-66v-40h66zM127 28q36 -34 62 -34q22 0 23 1v48q-17 4 -44 0q-29 -5 -41 -15zM212 136v441l-34 28l1 -441q-81 -90 -81 -87q0 -16 17 -36
q27 26 98 22q0 20 -1 45v28zM225 40v-39q14 3 25 24q-11 10 -25 15zM292 290h-67v-230q18 -5 34 -15q21 56 33 245zM114 210v307q-38 -18 -48 -113q-2 -21 -4 -115q-1 -132 31 -198q19 28 22 71q-1 -22 -1 48z" />
    <glyph glyph-name="R" unicode="R" horiz-adv-x="376" 
d="M366 -170q0 -4 -4 -8q-28 -3 -59 49q-21 35 -28 59q-10 34 -12 73t-5 48q-26 3 -46 3q-38 0 -56 -11q-12 -7 -23.5 -26.5t-23.5 -27.5q-8 16 -56 67q22 16 26 53v407q0 11 -20 25q-29 20 -38 31q-21 25 -23 59q-2 23 16.5 39.5t42.5 16.5q22 0 43 -18t33 -18t16 9l-3 3
q-1 0 -3 -1t-4 -1q-3 4 -3 5q0 11 10 11q12 0 12 -14q0 -19 -25 -22q-11 -2 -25 8q0 -8 -3 -23q-9 -21 -31 -21q-33 0 -33 30q0 19 18 19q12 0 12 -12q0 -9 -10 -9q-2 0 -4 1h-3q-1 -1 -1 -4q0 -16 21 -16q23 0 23 26q0 37 -42 37q-19 0 -31.5 -15.5t-12.5 -31.5
q0 -25 23 -41q20 -14 42 -14q37 0 72 37t39 77q23 -13 81.5 -55.5t58.5 -46.5v-130q-28 -19 -81 -57q41 -2 60 -66q13 -45 16 -118q1 -60 0 -61v-220q5 -29 9 -59q8 -33 35 -46zM259 514v44q-34 34 -66 53l1 -97h65zM261 437q-1 60 0 65q-68 0 -68 -1l1 -115zM180 380l1 236
h-9q-10 -12 -26 -39v-217zM259 273q0 59 -30 79q-18 8 -36 15v-140q33 -2 66 1q0 -1 0 12v33zM178 62l2 297l-35 -24v-229q0 -31 15 -42zM259 64v148q-21 1 -66 0v-148q52 -2 66 0zM63 378l-19 -26l-20 25l-26 18l25 21l18 25l21 -24l25 -19zM63 289l-19 -25l-20 24l-26 18
l25 21l18 25l21 -24l25 -18z" />
    <glyph glyph-name="S" unicode="S" horiz-adv-x="355" 
d="M312 229q0 -102 -110 -193q-8 -6 -16 -20.5t-14 -14.5h-169q-7 0 -7 3q0 6 73 73t74 86q1 23 -24 35q-46 20 -50 23q-28 22 -32 68q-4 48 34 85q-6 13 -49 26q1 3 13 16q9 11 9 17l2 121l-42 24q-14 11 -14 41q0 55 62 55q10 0 29 -19t35 -19q31 0 31 29q0 1 -4 9
q-4 -8 -14 -8q-13 0 -13 9q0 17 19 17q10 0 17 -9.5t7 -17.5q0 -37 -45 -37q-17 0 -35.5 17t-34.5 17q-18 0 -29.5 -14.5t-11.5 -32.5q0 -43 48 -43q45 0 92 38q40 33 70 85l3 4q11 -17 31 -42q16 -20 16 -21q0 6 -29 -36.5t-29 -80.5q0 -57 45 -57q14 0 22.5 12t8.5 24
q0 32 -28 32q-20 0 -20 -20q0 -4 4 -8q9 13 13 13q3 0 8 -5t5 -8q0 -15 -17 -15q-23 0 -23 24q0 29 31 29q16 0 28 -12t12 -27q0 -21 -15.5 -35.5t-35.5 -14.5q-23 0 -38 22t-15 46q0 22 8.5 42.5t8.5 19.5q0 11 -12.5 24.5t-19.5 13.5q-15 -1 -17 -15l1 -149q0 -4 -1 -30
q-1 -16 5 -17q77 -10 116 -68q33 -47 33 -111zM147 466l-1 129l-38 -26l3 -112q0 -50 32 -49q4 9 4 58zM248 241q0 40 -22 88q-27 59 -67 66l2 -144q-1 -6 8 -19q12 -16 13 -17l-14 -12q-11 -10 -11 -18v-27q91 68 91 83zM147 396q-11 3 -9 3q-40 0 -66 -43q-21 -35 -21 -68
q0 -22 14 -43q17 -24 44 -24q28 0 36 34zM248 203q0 8 -2 13q-4 -4 -62 -51q-27 -21 -27 -48v-52h52q19 18 30 65q9 39 9 73zM143 64q2 2 1 31q0 29 -1 31l-68 -63q30 -1 49 0q24 1 19 1z" />
    <glyph glyph-name="T" unicode="T" horiz-adv-x="399" 
d="M387 674q-22 -14 -46 -53q-35 -57 -39 -126q-2 -45 24 -61q2 2 4 16q1 11 16 11q19 0 19 -19q0 -23 -28 -23q-24 0 -37 24q-11 20 -11 47q0 56 31 128h-45v-560q36 10 74 80q8 1 8 -7q0 -1 -19 -51q-22 -55 -28 -74q-13 -12 -44.5 -20.5t-55.5 -7.5q-112 3 -151 103
q-22 57 -25 188q-4 172 131 259q3 29 -18 34q20 12 40 25q27 17 37 32h-7h-103q-28 0 -58 -12q-40 -17 -40 -47q0 -19 15 -29.5t32 -10.5q6 0 41 5l-52 -43q-14 7 -24 16q-25 20 -27 44q-1 29 10 49q20 33 58 56.5t42 33.5h275zM261 620l-19 -1q-9 0 -12 -19q-1 -13 -2 -27
v-399q2 -16 -87 -94q29 -36 76 -36q18 0 24 3q10 5 20 8v565zM163 512q-31 -25 -43 -77q-2 -11 -11 -96l-2 -99q0 -116 27 -149q26 31 28 51z" />
    <glyph glyph-name="U" unicode="U" horiz-adv-x="422" 
d="M423 72l-66 -71l-51 52l-69 -52q-203 -4 -203 0t24 19q28 19 43 38q24 29 24 65v410q0 9 -21 15l69 72q-44 -1 -61 -1q-43 0 -54 -3q-41 -11 -41 -56q0 -17 13.5 -27t28.5 -10q31 0 31 -2q0 -10 -35 -44q-40 16 -51 43q-5 12 -5 43q0 38 90 118l147 1q-21 -30 -50 -79
l-1 -468l5 -1q15 13 36 34l2 410q-12 11 -12 27q0 20 19 20q21 0 21 -19q0 -11 -8 -17t-8 -11v-310v-2q14 17 57 49l-1 262q0 23 -11.5 35t-11.5 11q0 1 23.5 24.5t29.5 32.5q19 -22 56 -55q-7 -9 -14 -19.5t-9 -25.5l1 -488l28 -36l27 27zM296 227l1 70q-15 -14 -57 -45
q-2 -73 0 -75q15 13 56 50zM294 77l-1 46l1 82q-55 -37 -54 -44v-99l44 1q6 0 10 14zM224 62l1 87l-101 -87h100zM113 378l-19 -26l-20 25l-26 18l25 21l18 25l21 -24l25 -19zM113 289l-19 -25l-20 24l-26 18l25 21l18 25l21 -24l25 -18z" />
    <glyph glyph-name="V" unicode="V" horiz-adv-x="425" 
d="M389 618q0 -1 -11 -16t-12 -20l1 -596q-23 19 -65 58q-43 -70 -96 -70q-84 0 -124 110q-28 74 -28 162q0 126 19 194q29 106 113 171q-16 2 -87 2q-20 0 -46 -13q-34 -17 -34 -42q0 -39 47 -39q8 0 16 1q-15 -14 -40 -45q-26 12 -33 22q-2 4 -8 26q-3 11 -3 24
q0 35 18 50q58 50 86 84h152q-79 -96 -106 -183q-22 -68 -22 -172v-129q0 -21 8 -61q7 -35 10 -42q41 23 37 95l-1 276q-5 12 -21 29l174 186q11 -24 56 -62zM300 585q0 4 -5.5 10t-10.5 5q-33 -6 -38 -114v-311l53 44zM299 67v131q-54 -37 -54 -49v-140q43 9 54 58zM233 7
v134q-38 -28 -83 -65q12 -39 31 -54q14 -11 43 -15h9z" />
    <glyph glyph-name="W" unicode="W" horiz-adv-x="570" 
d="M373 143l-2 -128q-6 -1 -25.5 8.5t-19.5 14.5q0 21 20 53q23 38 27 52zM532 620q-24 -33 -24 -49v-588q-22 20 -65 61q-23 -37 -38 -50q-23 -21 -59 -21q-22 0 -41.5 14.5t-20.5 14.5q3 0 -21 -13.5t-46 -13.5q-83 0 -126 111q-33 83 -33 183q0 212 158 347q-14 1 -36 1
q-76 0 -97 -4q-58 -13 -58 -62q0 -27 37 -27q16 0 32 8q2 0 2 -4q0 -8 -13 -23t-21 -15q-25 0 -41 22q-14 19 -14 45q0 27 43 65t45 58h296q-70 -59 -97 -121q-24 -58 -24 -152v-175q0 -120 41 -181q9 7 10 29v98l1 308q0 7 -7 15t-14 8l166 173q16 -33 65 -62zM418 605
q-30 -16 -30 -48l-1 -543q8 1 27.5 18.5t19.5 25.5l-1 511q0 26 -15 36zM313 616h-18h-14.5h-14.5q-21 0 -55.5 -30t-34.5 -50v-480q26 -52 69 -52q15 0 30 7q-48 52 -64 120q-11 46 -11 136q0 117 22 185q22 73 91 164zM162 511q-25 -50 -31 -121q-3 -32 -3 -126
q0 -55 35 -192q3 283 -1 439z" />
    <glyph glyph-name="X" unicode="X" horiz-adv-x="354" 
d="M333 633q-50 -54 -51 -59l-1 -155h27l1 -43h-30v-35h29v-42h-29v-230l7 -2l18 17l8 -6l-71 -78q-33 22 -49 35q-35 28 -47 48q-30 -80 -114 -80q-10 0 -24 1q2 65 0 98h7q9 -31 49 -34q21 -2 43 22t22 46l1 167h-64v38l63 1l1 35l-65 -1v39l67 1l1 149q0 5 -29 28.5
t-33 23.5q-17 0 -31.5 -19.5t-14.5 -33.5q0 -36 43 -36q9 0 22 7l4 -4q-1 -4 -17 -21.5t-21 -17.5q-22 0 -38 24q-13 20 -13 36q0 28 41 70q46 46 52 71l96 -86q18 14 43 42q19 22 39 44zM270 417v158q1 8 -27 31v-189h27zM268 376h-29v-35h29v35zM226 102v515
q-27 -16 -32 -50q0 -21 -1 -43v-381q-1 -16 33 -41zM266 298h-26v-205l26 -18v223z" />
    <glyph glyph-name="Y" unicode="Y" horiz-adv-x="376" 
d="M337 629q-19 -27 -24 -55v-577q-52 56 -61 56l-96 1q-62 -56 -58 -99q2 -35 39 -55q27 -15 55 -15q3 0 67 1l52 -68h-107q-46 0 -86 34q-43 36 -43 84q0 25 10.5 50.5t10.5 23.5q0 7 -21 27q-12 11 -23 21q18 18 19.5 35t3.5 33q-1 77 0 208q1 153 1 208q-75 15 -75 85
q0 23 14 41q18 23 49 25l2 -8q-19 -7 -19 -32t20 -39.5t44 -14.5h10.5h15.5v-513q0 -7 9.5 -13.5t12.5 -6.5q2 0 6.5 1.5t5.5 1.5l4 -2l-1 562l-14 14q-3 4 -3 14q0 26 23 26q9 0 17.5 -9t8.5 -18q0 -16 -18 -27v-211q-1 0 61 0v159q-1 10 -2 21q-4 20 -13 29q-1 0 16 20
q21 24 29 46q11 -25 58 -64zM248 340v37q-28 1 -62 1l1 -37h36zM251 66v229q-53 -1 -65 0v-229h65zM69 378l-19 -26l-20 25l-26 18l25 21l18 25l21 -24l25 -19zM69 289l-19 -25l-20 24l-26 18l25 21l18 25l21 -24l25 -18z" />
    <glyph glyph-name="Z" unicode="Z" horiz-adv-x="380" 
d="M336 350v-246l-105 -103h-230l55 65l33 -1l2 206l-14 18.5t-14 22.5q0 2 14 22t14 22q0 6 -14 24t-14 21q0 2 13.5 20t14.5 31v161q-25 0 -45.5 -20t-20.5 -42q0 -29 34 -29q11 0 19 1q-2 -7 -34 -40q-38 17 -38 59q0 23 8 33q25 29 67 80q19 24 23 24q228 0 228 1
l-228 -321q6 -13 21 -36l201 280v-71q-27 3 -66 -47q-16 -24 -31 -48zM270 616l-122 -1v-174zM136 425v190q-31 -1 -32 0v-163q1 -12 21 -42q11 11 11 15zM267 320l-77 61q-14 -21 -44 -57v-57q-1 -37 -1 -58h122q-1 21 0 111zM267 66v131h-122v-131h122zM133 65v250
l-29 -47v-204z" />
    <glyph glyph-name="bracketleft" unicode="[" horiz-adv-x="186" 
d="M1 671l-1 -721q44 -3 118 -59q0 3 -1 31l-66 69v639l65 65v29q-57 -44 -115 -53z" />
    <glyph glyph-name="bracketright" unicode="]" horiz-adv-x="187" 
d="M121 -55l1 720q-44 4 -118 59q0 -3 1 -30l66 -69v-639l-65 -66v-29q57 45 115 54z" />
    <glyph glyph-name="asciicircum" unicode="^" horiz-adv-x="287" 
d="M131 754q-25 -17 -99 -49l-10 19l104 82l2 3l2 -1l1 1l2 -3l104 -82l-10 -19q-28 9 -58 27.5t-38 21.5z" />
    <glyph glyph-name="underscore" unicode="_" horiz-adv-x="377" 
d="M-1 -50h378v-30h-378v30z" />
    <glyph glyph-name="grave" unicode="`" horiz-adv-x="214" 
d="M65 599q-27 -42 -26 -44q2 -2 115 -40l8 15z" />
    <glyph glyph-name="a" unicode="a" horiz-adv-x="214" 
d="M207 52q0 -6 -47 -61q1 0 -21.5 25.5t-34.5 25.5t-25 -19l-18 -30h-8q-46 62 -46 60q18 21 18 43v212q34 -34 57 -34q22 0 37 27q12 22 12 43q0 112 -55 112q-31 0 -31 -42q0 -34 58 -56q-1 -6 -11.5 -25.5t-14.5 -17.5q-28 13 -45 45q-12 22 -13 37q-4 32 16 54.5
t53 22.5q35 0 71 -39q6 12 20 36q4 -1 7 0v-393q1 -2 11 -13t10 -13zM127 285q-24 -25 -44 -27l1 -142q-1 -53 22 -57q21 -2 21 20v206z" />
    <glyph glyph-name="b" unicode="b" horiz-adv-x="223" 
d="M203 411q-18 3 -19 -50v-331q3 -10 7 -26q-6 -5 -9 -5q-1 0 -23.5 24t-45.5 24q-35 0 -56 -48q-52 50 -52 51q8 12 15 24.5t6 26.5v417q2 62 -21 114q11 1 22 -17q8 -13 16 -27q7 37 43.5 68t78.5 31q12 -3 12 -7t-10 -6q-44 0 -67 -49q-18 -37 -18 -82v-121q1 -4 19 -4
q27 0 53 49zM124 378q-9 28 -23 28q-12 0 -16.5 -6.5t-4.5 -28.5v-290q0 -3 8 -11.5t12 -8.5q26 0 24 0v317z" />
    <glyph glyph-name="c" unicode="c" horiz-adv-x="182" 
d="M164 410q0 -3 -21 -30l-22 -30q-13 18 -41 44l1 -314q0 -5 8 -14q5 -6 11 -13q16 13 24.5 18.5t25.5 9.5l6 -9q-43 -22 -76 -52l-27 -27q-53 55 -53 58q0 2 9.5 12.5t11.5 15.5v201q0 -10 0 181l13 -1q26 -44 41 -44q7 0 23 26.5t19 26.5q13 -16 47 -59z" />
    <glyph glyph-name="d" unicode="d" horiz-adv-x="228" 
d="M186 411l1 -411q-7 2 -26 21t-26 22q-1 1 -32 1q-33 0 -53 -50l-47 57q18 15 18 42v371q5 -3 34 -24q19 -15 32 -15l26 2l-88 161l81 75l9 -15l-29 -32zM129 414q-26 -5 -30 -5q-10 0 -19 2v-323q-1 -27 23 -27h26v353z" />
    <glyph glyph-name="e" unicode="e" horiz-adv-x="205" 
d="M79 404l17 17l41 -76q-15 -28 -28.5 -72.5t-13.5 -68.5q0 -26 13 -50q16 -28 40 -28q25 0 25 23q0 19 -18 19q-11 0 -14 -8.5t-5 -15.5q-29 8 -29 52q0 46 20 93q13 31 37 67q19 29 19 31q0 4 -53 92q-1 -1 -23.5 -26t-27.5 -25q-8 0 -27 19.5t-22 19.5q-2 0 -6 -4v-368
q-2 -16 -13 -30.5t-11 -13.5q0 -3 53 -58l27 27q33 30 76 52l-6 9q-24 -6 -50 -28l-14 16q-9 14 -8 26z" />
    <glyph glyph-name="f" unicode="f" horiz-adv-x="170" 
d="M175 639l-44 -56v-413l13 -23l-19 -21l-22 21l13 22l1 276h-35v-348q-3 -27 16 -45q-27 -30 -29 -64l-9 -185h-12l-10 186q-8 33 -32 62q15 11 20 46l2 347l-24 1l-2 23h26l-1 216l50 -45l46 50zM117 468v114q0 6 -35 39q-1 -11 1 -153q16 -3 34 0z" />
    <glyph glyph-name="g" unicode="g" horiz-adv-x="223" 
d="M206 -29q0 -25 -37.5 -97.5t-49.5 -72.5l-133 -1l39 59l88 1q25 0 40 27q12 21 12 41q-4 31 -10 54q-13 56 -31 59h-18q-46 -52 -50 -52q-38 41 -54 60q0 2 10.5 10.5t12.5 12.5v47v351l55 -45h33q13 19 42 54q15 -20 47 -60q-7 -17 -12 -17h-2q-3 0 -7 -39
q1 -120 0 -295l16 -48q9 -27 9 -49zM128 61v334q0 3 -7 9.5t-10 6.5h-30v-332q0 -17 25 -19z" />
    <glyph glyph-name="h" unicode="h" horiz-adv-x="219" 
d="M196 52l-14 -22q-19 -28 -30 -61q-16 -48 -16 -104l8 -18q24 7 18 7q9 0 17.5 -9t8.5 -18q0 -10 -8 -16.5t-15 -6.5q-4 0 -18.5 2t-23.5 35l1 277v136q-1 133 -1 132l-20 26h-26v-319q0 -19 21 -44q-11 -8 -20 -17q-20 -20 -26 -39q-17 27 -47 55q15 19 16 21q6 10 4 24
v413q1 12 1 22q0 36 -27 105q15 -2 25 -20l14 -28q9 36 37 66q32 34 74 39l3 -8q-40 -1 -61 -53q-15 -38 -15 -84v-114q6 -6 27 2q33 15 49 44q9 -14 49 -55q-11 -1 -21 -21q-4 -9 -7 -17l-1 -291q0 -11 24 -41z" />
    <glyph glyph-name="i" unicode="i" horiz-adv-x="125" 
d="M89 614q-30 -17 -41 -48q-12 31 -42 46q7 3 22.5 19.5t20.5 27.5q15 -25 40 -45zM100 422q-21 -18 -21 -41v-285q4 -26 23 -44q-29 -18 -48 -61q-24 44 -50 60q21 17 26 45v282q-4 24 -25 42q31 27 46 62q15 -42 49 -60z" />
    <glyph glyph-name="j" unicode="j" horiz-adv-x="129" 
d="M26 -68q0 -27 -34 -111q4 0 12 -3q11 11 32 55q19 40 24 55q4 26 15 79q2 8 12.5 28.5t10.5 22.5t-9.5 12.5t-9.5 12.5v293q2 17 19 46q-34 18 -49 60q-16 -37 -44 -62q19 -16 23 -43zM87 614q-30 -17 -41 -48q-12 31 -42 46q7 3 22.5 19.5t20.5 27.5q15 -25 40 -45z" />
    <glyph glyph-name="k" unicode="k" horiz-adv-x="227" 
d="M236 -200q-1 -3 -5 -3q-36 3 -74 77q-34 66 -34 103v153q0 26 -1 30q-5 14 -30 14q-7 0 -16 -1q2 -4 0 -45q-3 -55 16 -76q-28 -25 -46 -66q-9 16 -19 32.5t-28 30.5q-2 2 -2 3l8 5.5t12 18.5q6 18 4 50l-1 428q5 11 -8 45q-11 29 -22 45q1 4 5 4q16 0 40 -53
q10 40 51.5 73.5t86.5 29.5l-2 -5q-95 -39 -95 -135v-137h25q14 0 26 16q20 28 28 36q14 -23 44 -60q0 -3 -20 -26t-20 -31q0 -10 20 -32.5t20 -25.5l-21 -24t-21 -33q0 -7 21.5 -33.5t21.5 -23.5q0 2 -13 -15t-12 -43v-176q0 -23 14 -69q19 -60 47 -81zM147 357
q0 9 -18 28.5t-28 19.5h-25v-101l29 -1q5 0 23.5 22.5t18.5 31.5zM147 242q0 6 -16.5 26t-25.5 20h-29v-99h29q11 0 26.5 18t15.5 35z" />
    <glyph glyph-name="l" unicode="l" horiz-adv-x="139" 
d="M87 125q3 -30 5 -39q4 -13 19 -32q-1 2 -22 -20q-23 -25 -29 -49q-9 23 -33 45q-13 11 -25 21q6 0 14 19q10 23 11 52q1 21 1 420q6 13 -7 52q-11 34 -22 50q-4 3 0 3q11 0 32 -26q18 -21 21 -27q11 45 36 74q30 36 72 32l-1 -5q-67 -36 -72 -151v-419z" />
    <glyph glyph-name="m" unicode="m" horiz-adv-x="342" 
d="M318 424q-12 -8 -26 -31q1 -54 0 -277q0 -29 21 -62q0 -4 -48 -57l-49 58q6 5 10 13q11 19 12 49v276q-19 23 -22 23q-29 0 -29 -51v-249q-2 -31 8 -48.5t10 -12.5q0 -4 -47 -58q-48 53 -48 57q0 -4 11 14t11 46v281q-18 21 -23 21q-28 0 -28 -48v-252q-3 -29 19 -62
l-48 -58l-51 60q22 14 22 60v260q0 -7 -6 13q-9 27 -16 33q16 4 32.5 23t22.5 38q4 -11 20 -31q19 -24 31 -24q11 0 31 26q10 15 20 29q3 -2 26 -30q20 -26 28 -26q15 0 55 54q18 -33 51 -57z" />
    <glyph glyph-name="n" unicode="n" horiz-adv-x="241" 
d="M198 365v-249q-2 -31 10.5 -49t12.5 -13q0 -4 -52 -57q-48 53 -48 57q0 -4 11 14t11 46l-1 264q-17 38 -22 38q-28 0 -28 -48v-252q-3 -31 19 -62l-48 -58l-51 60q22 27 22 60v260q0 3 -5 16q-8 18 -19 30q15 4 33 23.5t24 37.5q4 -11 20 -31q19 -24 31 -24q11 0 34 26
q11 15 22 29q19 -41 53 -61q-29 -21 -29 -57z" />
    <glyph glyph-name="o" unicode="o" horiz-adv-x="218" 
d="M207 419q-6 -12 -13 -24q-3 -5 -5 -29l1 -334q0 -21 17 -38l-5 1l-65 46h-41q-36 -47 -41 -47q-30 38 -44 58q0 -2 10.5 15t10.5 42v351q17 -10 49 -34q2 -1 3 -2h32q14 19 44 55q15 -20 47 -60zM133 61v321q0 10 -5.5 20t-11.5 9l-30 -8l1 -298q0 -28 1 -32
q2 -12 14 -12h31z" />
    <glyph glyph-name="p" unicode="p" horiz-adv-x="246" 
d="M223 420q-27 -19 -27 -45q-2 -56 0 -378q-17 19 -58 47q-9 3 -46 2v-142q-39 -48 -51 -105l-3 1v237q-21 -6 -33 -42q-8 -2 -8 2q1 19 13.5 36.5t28.5 22.5v317q-7 19 -25 44q38 15 51 58q12 -27 14 -29q15 -11 31 -22q3 -3 17 0q29 10 44 52q20 -40 52 -56zM142 69
l1 306q-1 9 -3 18q-4 16 -13 18h-17q-9 0 -14.5 -12.5t-3.5 -23.5l-1 -305q28 8 51 -1z" />
    <glyph glyph-name="q" unicode="q" horiz-adv-x="219" 
d="M123 61v321q0 10 -5.5 20t-11.5 9l-28 -8l-1 -298q0 -28 1 -32q2 -12 14 -12h31zM127 -199q-1 1 0 131v109h-41q-36 -47 -41 -47q-30 38 -44 58q0 -2 10.5 15t10.5 42v351q17 -10 49 -34q2 -1 3 -2h32q14 19 44 55q15 -20 47 -60q-16 -21 -20 -48v-466q-11 -12 -20 -27
q-21 -35 -30 -77z" />
    <glyph glyph-name="r" unicode="r" horiz-adv-x="182" 
d="M175 425q-14 -7 -35 -48v-207l13 -23l-19 -21l-22 21l14 23v206q-8 30 -30 42q-19 -20 -19 -37v-285q4 -26 23 -44q-29 -18 -48 -61q-24 44 -50 60q21 17 26 45v282q-4 24 -25 42q31 27 46 62q14 -41 47 -59q22 23 38 59q13 -22 41 -57z" />
    <glyph glyph-name="s" unicode="s" horiz-adv-x="237" 
d="M215 436q0 -24 -21.5 -40t-41.5 -16q-24 0 -73 36q1 -83 0 -122q8 -19 17 -24q1 0 13 -2q16 -1 32 25q10 18 20 35q10 -23 32 -47l18 -18l-9 -11t-8 -33v-214q-4 3 -30 23q-15 13 -30 13q-16 0 -32 -23q-9 -16 -18 -33q-2 20 -5 40q-6 30 -33 30q-17 0 -21 -10
q-1 -2 -4 -24q-2 -11 3 -21q3 -5 5 -11q-10 -1 -11 0q-10 17 -10 40q0 26 16 46.5t41 20.5q32 0 44 -16l10 -26q16 -1 16 2v161q0 38 -26 38q-20 0 -53 -59q-16 37 -49 68l20 26v184q35 -40 52 -40q13 0 33 28q10 16 20 33l12 -44q13 -36 35 -36t22 27q0 19 -7 30q-4 4 -8 9
q1 3 5 5q10 -2 17 -19t7 -31z" />
    <glyph glyph-name="t" unicode="t" horiz-adv-x="165" 
d="M118 176l1 254q0 12 -5.5 24.5t-15.5 12.5h-18l-2 -356q0 -30 28 -63q-21 -12 -28 -19q-15 -15 -25 -45q-12 33 -51 62q9 11 23 53l1 369h-28l1 18h27l-1 38q-1 16 -6 30t-5 13q45 17 67 77v-157q11 1 15 1q22 -2 25 56q8 -3 11 0v-371q15 -15 15 -23q0 -21 -21 -21
q-22 0 -22 21q0 23 14 26z" />
    <glyph glyph-name="u" unicode="u" horiz-adv-x="233" 
d="M210 436q-19 -15 -21 -43v-312q-4 -11 23 -45q-34 -14 -51 -51q-33 51 -54 51q-30 0 -54 -51q-5 18 -21 34t-29 17q23 31 21 44v311q0 14 -9.5 25l-9.5 11q40 24 75 65v-412q0 -27 28 -27q9 0 18 9t9 18v315q0 27 -18 39q34 20 48 55q6 -14 27 -36q9 -9 18 -17z" />
    <glyph glyph-name="v" unicode="v" horiz-adv-x="244" 
d="M222 438q-8 -11 -20 -49v-400l-54 46h-38q-24 -16 -40 -48q-20 35 -49 55q6 8 11 16q10 15 12 35l-1 292q-13 16 -25 31q-21 26 -22 57q0 24 15 51q18 33 48 45q1 2 1 -2q0 3 -12 -18.5t-12 -47.5q1 -66 79 -66q36 0 57 51q23 -35 50 -48zM146 389q-1 20 -13 25
q-8 3 -33 1v-322q0 -21 13 -43h33v339z" />
    <glyph glyph-name="w" unicode="w" horiz-adv-x="356" 
d="M152 389q0 21 -13 25q-8 3 -32 1v-322q0 -24 12 -44h22q12 31 12 42zM221 49l23 1q9 1 7 14l2 325q0 15 -4.5 21t-19.5 6q-25 0 -20 -27v-297v-15t0 -10q0 -18 12 -18zM279 486q23 -35 50 -48q-20 -18 -20 -49l-1 -402q-14 17 -53 48h-31q-18 -8 -39 -47q-4 31 -31 47
h-37q-24 -16 -41 -48q-19 35 -48 55q5 8 11 16q10 15 12 35l-1 292q-13 16 -25 31q-21 26 -22 57q0 24 15 51q18 33 48 45q1 2 1 -2q0 3 -12.5 -18.5t-11.5 -47.5q1 -66 79 -66q36 0 57 51q17 -25 21 -31q14 -17 26 -18q35 1 53 49z" />
    <glyph glyph-name="x" unicode="x" horiz-adv-x="205" 
d="M191 420q-30 -21 -44 -58q-18 35 -41 49q-16 -9 -16 -42v-87h55v-23h-55v-161q0 -7 25 -47q-10 -9 -25 -22q-5 -7 -26 -37l-22 31q-11 9 -29 25q-52 -60 -52 -110q0 -41 24 -72q26 -35 66 -35q28 0 48.5 16.5t18.5 49.5q-1 22 -13 37q-15 17 -35 14q-18 -2 -25 -19l20 -6
q16 -4 16 -22q0 -27 -25 -22q-30 6 -30 33q0 24 18 38q15 11 35 11q26 0 41 -21.5t15 -45.5q0 -31 -20 -54q-24 -25 -61 -24q-47 2 -77.5 38t-30.5 84q0 70 81 149q0 3 4 14l1 159h-51v22h51l-1 83q0 19 -28 52q2 2 32 24q8 6 21 29q33 -55 50 -50q19 6 42 48q12 -12 43 -48
z" />
    <glyph glyph-name="y" unicode="y" horiz-adv-x="237" 
d="M188 365v-249q0 -79 -1 -80q1 -21 -2 -52q-13 -26 -29 -32q-27 -10 -106 -10q-45 0 -45 -37q0 -30 94 -30h35q26 4 26 23q0 6 -4 21q23 0 23 -33q0 -26 -18 -40.5t-39 -14.5l-47 -1q-36 0 -61 18t-25 53q1 40 27 52q10 4 55 6q37 2 53 19q7 6 7 74v63l1 263q-1 37 -26 37
q-24 0 -24 -47v-252q-3 -31 19 -62l-48 -58l-51 60q22 27 22 60v260q0 3 -5 16q-8 18 -19 30q15 4 33 23.5t24 37.5q4 -11 20 -31q19 -24 31 -24q11 0 34 26q11 15 22 29q19 -41 53 -61q-29 -21 -29 -57z" />
    <glyph glyph-name="z" unicode="z" horiz-adv-x="140" 
d="M112 151q0 -55 -53 -136.5t-53 -112.5q0 -21 9 -37q11 -20 30 -20q26 0 33 13q-10 3 -21 6t-11 19q0 25 23 25q28 0 28 -31q0 -21 -15 -33t-34 -12q-28 0 -43 28q-12 21 -12 47q0 31 29.5 88t29.5 112q0 29 -10 52q-7 15 -19 27q-10 9 -10 8q0 1 20.5 30t20.5 34
q0 3 -18 27.5t-18 26.5l19 26t19 32q0 3 -20.5 27t-20.5 26q0 3 45 59l44 -57q-10 -16 -37 -57q36 -56 36 -61q0 -4 -38 -51q47 -45 47 -105z" />
    <glyph glyph-name="braceleft" unicode="{" horiz-adv-x="334" 
d="M155 621q-47 -136 -47 -306q0 -172 47 -314q24 1 59 -29q36 -33 57 -78q0 2 1 46l-67 108q-25 161 -25 295t25 237l67 108l-2 36q-47 -84 -115 -103zM81 366l-23 -32l-25 30l-32 23l30 26l23 32l26 -30l32 -24zM81 255l-23 -32l-25 30l-32 23l30 26l23 32l26 -30l32 -24z
" />
    <glyph glyph-name="bar" unicode="|" horiz-adv-x="334" 
d="M81 366l-23 -32l-25 30l-32 23l30 26l23 32l26 -30l32 -24zM81 255l-23 -32l-25 30l-32 23l30 26l23 32l26 -30l32 -24z" />
    <glyph glyph-name="braceright" unicode="}" horiz-adv-x="334" 
d="M119 621q47 -136 47 -306q0 -172 -46 -314q-25 1 -59 -29q-37 -33 -58 -78v46l66 108q25 161 25 295t-25 237l-66 108l1 36q47 -84 115 -103zM193 366l23 -32l26 30l32 23l-31 26l-23 32l-25 -30l-32 -24zM193 255l23 -32l26 30l32 23l-31 26l-23 32l-25 -30l-32 -24z
" />
    <glyph glyph-name="asciitilde" unicode="~" horiz-adv-x="402" 
d="M335 790q-31 -66 -81 -66q-21 0 -60 16.5t-60 16.5q-34 0 -57 -29q-3 5 -8.5 5.5t-7.5 2.5q29 69 96 69q20 0 54.5 -15.5t52.5 -15.5q28 0 59 26z" />
    <glyph glyph-name="Adieresis" unicode="&#xc4;" horiz-adv-x="435" 
d="M421 681q-24 -19 -58 -58v-497q-2 -25 10.5 -48.5t12.5 -19.5l-21 -21q-23 -25 -34 -47q-15 20 -29.5 38.5t-31.5 29.5q6 9 11 17q14 26 14 53v170h-63v-397q12 -13 16 -43q-12 -19 -19 -19q-24 0 -24 19q0 25 15 43v718q-3 0 -9 1h-7q-15 0 -15 -25l-1 -471
q0 -145 2 -93q-2 -53 -14 -92q-7 -23 -47 -67.5t-58 -44.5q-4 0 -4 7q44 35 49 94q2 53 3 106v485q-2 16 -20 21l83 80h-107q-21 0 -39.5 -14.5t-18.5 -36.5q0 -15 15 -28t29.5 -13t19.5 -2q2 -8 -45 -43q-40 24 -40 66q0 28 17 50q10 14 56 48t49 34h303zM293 415v203h-60
v-203h60zM292 339q0 37 1 32h-61v-32q30 -1 60 0zM100 378l-19 -26l-20 25l-26 18l25 21l18 25l21 -24l25 -19zM100 289l-19 -25l-20 24l-26 18l25 21l18 25l21 -24l25 -18zM303 727q-16 28 -41 48q19 15 25 21q9 10 19 28q13 -34 43 -50q-29 -11 -46 -47zM183 727
q-16 28 -41 48q19 15 25 21q9 10 19 28q13 -34 43 -50q-29 -11 -46 -47z" />
    <glyph glyph-name="Aring" unicode="&#xc5;" horiz-adv-x="435" 
d="M421 681q-24 -19 -58 -58v-497q-2 -25 10.5 -48.5t12.5 -19.5l-21 -21q-23 -25 -34 -47q-15 20 -29.5 38.5t-31.5 29.5q6 9 11 17q14 26 14 53v170h-63v-397q12 -13 16 -43q-12 -19 -19 -19q-24 0 -24 19q0 25 15 43v718q-3 0 -9 1h-7q-15 0 -15 -25l-1 -471
q0 -145 2 -93q-2 -53 -14 -92q-7 -23 -47 -67.5t-58 -44.5q-4 0 -4 7q44 35 49 94q2 53 3 106v485q-2 16 -20 21l83 80h-107q-21 0 -39.5 -14.5t-18.5 -36.5q0 -15 15 -28t29.5 -13t19.5 -2q2 -8 -45 -43q-40 24 -40 66q0 28 17 50q10 14 56 48t49 34h303zM293 415v203h-60
v-203h60zM292 339q0 37 1 32h-61v-32q30 -1 60 0zM100 378l-19 -26l-20 25l-26 18l25 21l18 25l21 -24l25 -19zM100 289l-19 -25l-20 24l-26 18l25 21l18 25l21 -24l25 -18zM233 830q25 0 43.5 -17.5t18.5 -42.5t-18.5 -42.5t-43.5 -17.5t-43.5 17.5t-18.5 42.5t18.5 42.5
t43.5 17.5zM233 805q-15 0 -26 -10.5t-11 -24.5q0 -15 11 -25t26 -10t26 10t11 25q0 14 -11 24.5t-26 10.5z" />
    <glyph glyph-name="Ccedilla" unicode="&#xc7;" horiz-adv-x="312" 
d="M305 111q0 -6 -12 -41q-15 -42 -27 -59q-19 -24 -88 -27l-9 -36q17 5 22 5q20 0 32 -22q9 -18 9 -39q0 -32 -19 -53.5t-50 -21.5q-24 0 -46 15l8 35q19 -13 31 -13q26 0 26 33q0 30 -20 30q-7 0 -13 -3l-8 14l17 56q-154 11 -154 286q0 50 26 119q24 61 65 102
q35 36 35 33q0 28 -23 34l-46 6q-26 9 -31 44q-3 24 12.5 40.5t37.5 16.5q40 0 44 -53q30 5 37 35q-5 -2 -9 -2q-8 0 -8 8q0 13 12 13q16 0 16 -18q0 -17 -20.5 -32.5t-38.5 -18.5l-10 2q9 17 9 25q0 26 -34 26q-16 0 -26 -12.5t-10 -27.5q0 -39 50 -39q38 0 76 30t62 78
q49 -49 49 -64q0 2 -21.5 -30t-18.5 -56v-465q24 25 66 63v-16zM228 545q-8 29 -35 59q1 -19 1 -54l-2 -371q0 -31 -35.5 -65t-33.5 -37q14 -28 62 -28q29 0 42 10zM128 504q-23 -15 -38 -67q-12 -42 -12 -74q-13 -101 0 -179q0 -23 11 -55q12 -35 26 -42q9 15 14 67z" />
    <glyph glyph-name="Eacute" unicode="&#xc9;" horiz-adv-x="327" 
d="M302 133q0 -65 -37 -101.5t-95 -37.5q-80 -2 -126 82q-33 60 -40 141q-3 29 -3 56q0 157 94 242q10 6 18.5 11.5t8.5 17.5q0 30 -35 30h-5h-5q-18 0 -35 15t-17 33q0 24 14 39.5t38 15.5q37 0 37 -39q0 -6 -1 -12q7 1 22 11q21 13 21 23l-1 8q-5 4 -8 0q-3 -3 -3 -8
q-9 1 -8 13q0 10 15 10t15 -19q0 -18 -23.5 -33.5t-43.5 -13.5q0 4 2.5 10t2.5 12q0 28 -31 28q-35 0 -35 -41q0 -39 53 -39q23 0 36 7q40 20 73 62q29 38 26 38q31 -39 46 -59q0 2 -20 -26.5t-18 -57.5v-133h32v41q8 1 9 0v-190h-5.5h-4.5v35h-31q0 -128 1 -173
q1 -40 2 -51t1 -12q21 3 64 74v-9zM223 417v135q0 14 -14 39t-22 29v-203h36zM266 379h-33v-34h33v34zM223 345v34h-37v-34h37zM120 520q-27 -25 -38 -71q-6 -39 -12 -77q-7 -97 -2 -156q5 -46 10 -66q9 -34 30 -58q9 20 10 46q1 31 2 37v345zM223 304h-38v-133l-71 -87
q21 -28 65 -28q31 0 44 8v240zM196 815q32 -48 30 -50t-132 -46l-9 18z" />
    <glyph glyph-name="Ntilde" unicode="&#xd1;" horiz-adv-x="402" 
d="M369 680q1 -4 -17.5 -22t-18.5 -25q2 -295 0 -526q3 -16 26 -45q-38 -20 -57 -64q-19 38 -54 62q24 25 24 47l-1 188l-60 -1v-367q0 -9 2 -45q16 -5 16 -25q0 -29 -26 -29t-26 29q0 21 19 25v43l-1 692l-34 -34l-1 -480q0 -15 12 -29.5t12 -13.5q-28 -21 -54 -58
q-19 32 -57 58q14 14 18 20q9 10 10 20v461q-1 1 -23 35q-15 22 -27 22q-16 0 -27 -20q-8 -16 -8 -29q0 -14 10.5 -26.5t24.5 -12.5q1 0 28 3q-3 -6 -20 -24.5t-22 -18.5q-20 0 -32 25q-9 20 -9 45q0 31 36 67q45 44 51 59l70 -86l88 80h128zM305 619h-97v-211h61v168z
M269 334v35h-61v-35h61zM85 378l-19 -26l-20 25l-26 18l25 21l18 25l21 -24l25 -19zM85 289l-19 -25l-20 24l-26 18l25 21l18 25l21 -24l25 -18zM335 790q-31 -66 -81 -66q-21 0 -60 16.5t-60 16.5q-34 0 -57 -29q-3 5 -8.5 5.5t-7.5 2.5q29 69 96 69q20 0 54.5 -15.5
t52.5 -15.5q28 0 59 26z" />
    <glyph glyph-name="Odieresis" unicode="&#xd6;" horiz-adv-x="408" 
d="M193 -12q-104 1 -161 129q-41 91 -41 180q0 185 123 251q3 8 0 17q-3 11 -11 12q-57 3 -73 14.5t-21 47.5q-2 20 19 35q18 14 34 14q21 0 37.5 -12t16.5 -28q0 -7 -4 -14q1 -1 6 -1q10 0 22 10.5t12 18.5q0 7 -5 9q-8 2 -9 4q0 14 10 14q14 0 14 -23q0 -37 -71 -47l-3 7
q10 3 10 25q0 20 -39 20q-35 0 -35 -32q0 -30 20 -39q9 -4 38 -4q23 0 31 2q14 4 42 24q2 1 55 56q81 -27 125 -131q40 -94 40 -218q0 -138 -47 -236q-52 -106 -135 -105zM292 429q5 16 -12 62q-20 55 -54 90v-151zM297 349l-1 39l-70 1v-40h71zM212 596l-34 28
q2 -70 0 -413q0 -20 1 -38q-81 -90 -81 -87q0 -24 33.5 -54t56.5 -30h24v594zM297 309h-72v-299q56 51 72 299zM114 219v317q-38 -18 -48 -113q-2 -21 -4 -115q-2 -142 31 -208q19 28 22 71q-1 -10 -1 48zM243 727q-16 28 -41 48q19 15 25 21q9 10 19 28q13 -34 43 -50
q-29 -11 -46 -47zM123 727q-16 28 -41 48q19 15 25 21q9 10 19 28q13 -34 43 -50q-29 -11 -46 -47z" />
    <glyph glyph-name="Udieresis" unicode="&#xdc;" horiz-adv-x="422" 
d="M423 72l-66 -71l-51 52l-69 -52q-203 -4 -203 0t24 19q28 19 43 38q24 29 24 65v410q0 9 -21 15l69 72q-44 -1 -61 -1q-43 0 -54 -3q-41 -11 -41 -56q0 -17 13.5 -27t28.5 -10q31 0 31 -2q0 -10 -35 -44q-40 16 -51 43q-5 12 -5 43q0 38 90 118l147 1q-21 -30 -50 -79
l-1 -468l5 -1q15 13 36 34l2 410q-12 11 -12 27q0 20 19 20q21 0 21 -19q0 -11 -8 -17t-8 -11v-310v-2q14 17 57 49l-1 262q0 23 -11.5 35t-11.5 11q0 1 23.5 24.5t29.5 32.5q19 -22 56 -55q-7 -9 -14 -19.5t-9 -25.5l1 -488l28 -36l27 27zM296 227l1 70q-15 -14 -57 -45
q-2 -73 0 -75q15 13 56 50zM294 77l-1 46l1 82q-55 -37 -54 -44v-99l44 1q6 0 10 14zM224 62l1 87l-101 -87h100zM113 378l-19 -26l-20 25l-26 18l25 21l18 25l21 -24l25 -19zM113 289l-19 -25l-20 24l-26 18l25 21l18 25l21 -24l25 -18zM283 727q-16 28 -41 48q19 15 25 21
q9 10 19 28q13 -34 43 -50q-29 -11 -46 -47zM163 727q-16 28 -41 48q19 15 25 21q9 10 19 28q13 -34 43 -50q-29 -11 -46 -47z" />
    <glyph glyph-name="aacute" unicode="&#xe1;" horiz-adv-x="214" 
d="M207 52q0 -6 -47 -61q1 0 -21.5 25.5t-34.5 25.5t-25 -19l-18 -30h-8q-46 62 -46 60q18 21 18 43v212q34 -34 57 -34q22 0 37 27q12 22 12 43q0 112 -55 112q-30 0 -30 -35q0 -20 24 -42q18 -15 33 -21q0 -6 -13 -27t-18 -18q-44 20 -51 88q-3 32 15 52.5t52 20.5
q35 0 71 -39q6 12 20 36q4 -1 7 0v-393q1 -2 11 -13t10 -13zM127 285q-24 -25 -44 -27l1 -142q-1 -53 22 -57q21 -2 21 20v206zM141 599q27 -42 26 -44q-2 -2 -115 -40l-8 15z" />
    <glyph glyph-name="agrave" unicode="&#xe0;" horiz-adv-x="214" 
d="M207 52q0 -6 -47 -61q1 0 -21.5 25.5t-34.5 25.5t-25 -19l-18 -30h-8q-46 62 -46 60q18 21 18 43v212q34 -34 57 -34q22 0 37 27q12 22 12 43q0 112 -55 112q-30 0 -30 -35q0 -20 24 -42q18 -15 33 -21q0 -6 -13 -27t-18 -18q-44 20 -51 88q-3 32 15 52.5t52 20.5
q35 0 71 -39q6 12 20 36q4 -1 7 0v-393q1 -2 11 -13t10 -13zM127 285q-24 -25 -44 -27l1 -142q-1 -53 22 -57q21 -2 21 20v206zM65 599q-27 -42 -26 -44q2 -2 115 -40l8 15z" />
    <glyph glyph-name="acircumflex" unicode="&#xe2;" horiz-adv-x="214" 
d="M207 52q0 -6 -47 -61q1 0 -21.5 25.5t-34.5 25.5t-25 -19l-18 -30h-8q-46 62 -46 60q18 21 18 43v212q34 -34 57 -34q22 0 37 27q12 22 12 43q0 112 -55 112q-30 0 -30 -35q0 -20 24 -42q18 -15 33 -21q0 -6 -13 -27t-18 -18q-44 20 -51 88q-3 32 15 52.5t52 20.5
q35 0 71 -39q6 12 20 36q4 -1 7 0v-393q1 -2 11 -13t10 -13zM127 285q-24 -25 -44 -27l1 -142q-1 -53 22 -57q21 -2 21 20v206zM111 544q-20 -13 -79 -39l-8 15l83 66l2 3l1 -1l1 1l2 -3l83 -66l-8 -15q-23 8 -47 22.5t-30 16.5z" />
    <glyph glyph-name="adieresis" unicode="&#xe4;" horiz-adv-x="214" 
d="M207 52q0 -6 -47 -61q1 0 -21.5 25.5t-34.5 25.5t-25 -19l-18 -30h-8q-46 62 -46 60q18 21 18 43v212q34 -34 57 -34q22 0 37 27q12 22 12 43q0 112 -55 112q-30 0 -30 -35q0 -20 24 -42q18 -15 33 -21q0 -6 -13 -27t-18 -18q-44 20 -51 88q-3 32 15 52.5t52 20.5
q35 0 71 -39q6 12 20 36q4 -1 7 0v-393q1 -2 11 -13t10 -13zM127 285q-24 -25 -44 -27l1 -142q-1 -53 22 -57q21 -2 21 20v206zM153 507q-16 28 -41 48q19 15 25 21q9 10 19 28q13 -34 43 -50q-29 -11 -46 -47zM43 507q-16 28 -41 48q19 15 25 21q9 10 19 28q13 -34 43 -50
q-29 -11 -46 -47z" />
    <glyph glyph-name="atilde" unicode="&#xe3;" horiz-adv-x="214" 
d="M207 52q0 -6 -47 -61q1 0 -21.5 25.5t-34.5 25.5t-25 -19l-18 -30h-8q-46 62 -46 60q18 21 18 43v212q34 -34 57 -34q22 0 37 27q12 22 12 43q0 112 -55 112q-30 0 -30 -35q0 -20 24 -42q18 -15 33 -21q0 -6 -13 -27t-18 -18q-44 20 -51 88q-3 32 15 52.5t52 20.5
q35 0 71 -39q6 12 20 36q4 -1 7 0v-393q1 -2 11 -13t10 -13zM127 285q-24 -25 -44 -27l1 -142q-1 -53 22 -57q21 -2 21 20v206zM135 512q-11 0 -33.5 8.5t-34.5 8.5q-16 0 -30 -17q-1 2 -4.5 4t-6.5 4q17 41 56 41q11 0 30.5 -8.5t27.5 -8.5q15 0 33 15l10 -8
q-19 -39 -48 -39z" />
    <glyph glyph-name="aring" unicode="&#xe5;" horiz-adv-x="214" 
d="M207 52q0 -6 -47 -61q1 0 -21.5 25.5t-34.5 25.5t-25 -19l-18 -30h-8q-46 62 -46 60q18 21 18 43v212q34 -34 57 -34q22 0 37 27q12 22 12 43q0 112 -55 112q-30 0 -30 -35q0 -20 24 -42q18 -15 33 -21q0 -6 -13 -27t-18 -18q-44 20 -51 88q-3 32 15 52.5t52 20.5
q35 0 71 -39q6 12 20 36q4 -1 7 0v-393q1 -2 11 -13t10 -13zM127 285q-24 -25 -44 -27l1 -142q-1 -53 22 -57q21 -2 21 20v206zM103 598q20 0 34.5 -14t14.5 -34t-14.5 -34t-34.5 -14t-34.5 14t-14.5 34t14.5 34t34.5 14zM103 578q-29 0 -29 -28t29 -28t29 28t-29 28z" />
    <glyph glyph-name="ccedilla" unicode="&#xe7;" horiz-adv-x="179" 
d="M74 3l-4 -28q6 5 18 5q45 0 45 -62q0 -24 -18.5 -41.5t-43.5 -17.5q-18 0 -48 20l3 14q19 -12 31 -12t26.5 12.5t14.5 23.5v17q0 22 -19 22q-14 0 -28 -12l6 47q-57 57 -57 60q0 2 9.5 12.5t11.5 15.5v201q0 -10 0 181l13 -1q26 -44 41 -44q7 0 23 26.5t19 26.5
q13 -16 47 -59q0 -3 -21 -30l-22 -30q-13 18 -41 44l1 -314q0 -5 8 -14q5 -6 11 -13q16 13 24.5 18.5t25.5 9.5l6 -9l-84 -69h2z" />
    <glyph glyph-name="eacute" unicode="&#xe9;" horiz-adv-x="205" 
d="M79 404l17 17l41 -76q-15 -28 -28.5 -72.5t-13.5 -68.5q0 -26 13 -50q16 -28 40 -28q25 0 25 23q0 19 -18 19q-11 0 -14 -8.5t-5 -15.5q-29 8 -29 52q0 46 20 93q13 31 37 67q19 29 19 31q0 4 -53 92q-1 -1 -23.5 -26t-27.5 -25q-8 0 -27 19.5t-22 19.5q-2 0 -6 -4v-368
q-2 -16 -13 -30.5t-11 -13.5q0 -3 53 -58l27 27q33 30 76 52l-6 9q-24 -6 -50 -28l-14 16q-9 14 -8 26zM131 599q27 -42 26 -44q-2 -2 -115 -40l-8 15z" />
    <glyph glyph-name="egrave" unicode="&#xe8;" horiz-adv-x="205" 
d="M79 404l17 17l41 -76q-15 -28 -28.5 -72.5t-13.5 -68.5q0 -26 13 -50q16 -28 40 -28q25 0 25 23q0 19 -18 19q-11 0 -14 -8.5t-5 -15.5q-29 8 -29 52q0 46 20 93q13 31 37 67q19 29 19 31q0 4 -53 92q-1 -1 -23.5 -26t-27.5 -25q-8 0 -27 19.5t-22 19.5q-2 0 -6 -4v-368
q-2 -16 -13 -30.5t-11 -13.5q0 -3 53 -58l27 27q33 30 76 52l-6 9q-24 -6 -50 -28l-14 16q-9 14 -8 26zM55 599q-27 -42 -26 -44q2 -2 115 -40l8 15z" />
    <glyph glyph-name="ecircumflex" unicode="&#xea;" horiz-adv-x="205" 
d="M79 404l17 17l41 -76q-15 -28 -28.5 -72.5t-13.5 -68.5q0 -26 13 -50q16 -28 40 -28q25 0 25 23q0 19 -18 19q-11 0 -14 -8.5t-5 -15.5q-29 8 -29 52q0 46 20 93q13 31 37 67q19 29 19 31q0 4 -53 92q-1 -1 -23.5 -26t-27.5 -25q-8 0 -27 19.5t-22 19.5q-2 0 -6 -4v-368
q-2 -16 -13 -30.5t-11 -13.5q0 -3 53 -58l27 27q33 30 76 52l-6 9q-24 -6 -50 -28l-14 16q-9 14 -8 26zM91 544q-20 -13 -79 -39l-8 15l83 66l2 3l1 -1l1 1l2 -3l83 -66l-8 -15q-23 8 -47 22.5t-30 16.5z" />
    <glyph glyph-name="edieresis" unicode="&#xeb;" horiz-adv-x="205" 
d="M79 404l17 17l41 -76q-15 -28 -28.5 -72.5t-13.5 -68.5q0 -26 13 -50q16 -28 40 -28q25 0 25 23q0 19 -18 19q-11 0 -14 -8.5t-5 -15.5q-29 8 -29 52q0 46 20 93q13 31 37 67q19 29 19 31q0 4 -53 92q-1 -1 -23.5 -26t-27.5 -25q-8 0 -27 19.5t-22 19.5q-2 0 -6 -4v-368
q-2 -16 -13 -30.5t-11 -13.5q0 -3 53 -58l27 27q33 30 76 52l-6 9q-24 -6 -50 -28l-14 16q-9 14 -8 26zM143 507q-16 28 -41 48q19 15 25 21q9 10 19 28q13 -34 43 -50q-29 -11 -46 -47zM33 507q-16 28 -41 48q19 15 25 21q9 10 19 28q13 -34 43 -50q-29 -11 -46 -47z" />
    <glyph glyph-name="iacute" unicode="&#xed;" horiz-adv-x="125" 
d="M100 422q-21 -18 -21 -41v-285q4 -26 23 -44q-29 -18 -48 -61q-24 44 -50 60q21 17 26 45v282q-4 24 -25 42q31 27 46 62q15 -42 49 -60zM101 599q27 -42 26 -44q-2 -2 -115 -40l-8 15z" />
    <glyph glyph-name="igrave" unicode="&#xec;" horiz-adv-x="125" 
d="M100 422q-21 -18 -21 -41v-285q4 -26 23 -44q-29 -18 -48 -61q-24 44 -50 60q21 17 26 45v282q-4 24 -25 42q31 27 46 62q15 -42 49 -60zM15 609q-27 -42 -26 -44q2 -2 115 -40l8 15z" />
    <glyph glyph-name="icircumflex" unicode="&#xee;" horiz-adv-x="125" 
d="M100 422q-21 -18 -21 -41v-285q4 -26 23 -44q-29 -18 -48 -61q-24 44 -50 60q21 17 26 45v282q-4 24 -25 42q31 27 46 62q15 -42 49 -60zM51 544q-20 -13 -79 -39l-8 15l83 66l2 3l1 -1l1 1l2 -3l83 -66l-8 -15q-23 8 -47 22.5t-30 16.5z" />
    <glyph glyph-name="idieresis" unicode="&#xef;" horiz-adv-x="125" 
d="M100 422q-21 -18 -21 -41v-285q4 -26 23 -44q-29 -18 -48 -61q-24 44 -50 60q21 17 26 45v282q-4 24 -25 42q31 27 46 62q15 -42 49 -60zM103 507q-16 28 -41 48q19 15 25 21q9 10 19 28q13 -34 43 -50q-29 -11 -46 -47zM-7 507q-16 28 -41 48q19 15 25 21q9 10 19 28
q13 -34 43 -50q-29 -11 -46 -47z" />
    <glyph glyph-name="ntilde" unicode="&#xf1;" horiz-adv-x="241" 
d="M198 365v-249q-2 -31 10.5 -49t12.5 -13q0 -4 -52 -57q-48 53 -48 57q0 -4 11 14t11 46l-1 264q-17 38 -22 38q-28 0 -28 -48v-252q-3 -31 19 -62l-48 -58l-51 60q22 27 22 60v260q0 3 -5 16q-8 18 -19 30q15 4 33 23.5t24 37.5q4 -11 20 -31q19 -24 31 -24q11 0 34 26
q11 15 22 29q19 -41 53 -61q-29 -21 -29 -57zM142 512q-11 0 -33.5 8.5t-34.5 8.5q-16 0 -30 -17q-1 2 -4.5 4t-6.5 4q17 41 56 41q11 0 30.5 -8.5t27.5 -8.5q15 0 33 15l10 -8q-19 -39 -48 -39z" />
    <glyph glyph-name="oacute" unicode="&#xf3;" horiz-adv-x="218" 
d="M207 419q-6 -12 -13 -24q-3 -5 -5 -29l1 -334q0 -21 17 -38l-5 1l-65 46h-41q-36 -47 -41 -47q-30 38 -44 58q0 -2 10.5 15t10.5 42v351q17 -10 49 -34q2 -1 3 -2h32q14 19 44 55q15 -20 47 -60zM133 61v321q0 10 -5.5 20t-11.5 9l-30 -8l1 -298q0 -28 1 -32
q2 -12 14 -12h31zM141 599q27 -42 26 -44q-2 -2 -115 -40l-8 15z" />
    <glyph glyph-name="ograve" unicode="&#xf2;" horiz-adv-x="218" 
d="M207 419q-6 -12 -13 -24q-3 -5 -5 -29l1 -334q0 -21 17 -38l-5 1l-65 46h-41q-36 -47 -41 -47q-30 38 -44 58q0 -2 10.5 15t10.5 42v351q17 -10 49 -34q2 -1 3 -2h32q14 19 44 55q15 -20 47 -60zM133 61v321q0 10 -5.5 20t-11.5 9l-30 -8l1 -298q0 -28 1 -32
q2 -12 14 -12h31zM65 599q-27 -42 -26 -44q2 -2 115 -40l8 15z" />
    <glyph glyph-name="ocircumflex" unicode="&#xf4;" horiz-adv-x="218" 
d="M111 544q-20 -13 -79 -39l-8 15l83 66l2 3l1 -1l1 1l2 -3l83 -66l-8 -15q-23 8 -47 22.5t-30 16.5zM207 419q-6 -12 -13 -24q-3 -5 -5 -29l1 -334q0 -21 17 -38l-5 1l-65 46h-41q-36 -47 -41 -47q-30 38 -44 58q0 -2 10.5 15t10.5 42v351q17 -10 49 -34q2 -1 3 -2h32
q14 19 44 55q15 -20 47 -60zM133 61v321q0 10 -5.5 20t-11.5 9l-30 -8l1 -298q0 -28 1 -32q2 -12 14 -12h31z" />
    <glyph glyph-name="odieresis" unicode="&#xf6;" horiz-adv-x="218" 
d="M207 419q-6 -12 -13 -24q-3 -5 -5 -29l1 -334q0 -21 17 -38l-5 1l-65 46h-41q-36 -47 -41 -47q-30 38 -44 58q0 -2 10.5 15t10.5 42v351q17 -10 49 -34q2 -1 3 -2h32q14 19 44 55q15 -20 47 -60zM133 61v321q0 10 -5.5 20t-11.5 9l-30 -8l1 -298q0 -28 1 -32
q2 -12 14 -12h31zM163 507q-16 28 -41 48q19 15 25 21q9 10 19 28q13 -34 43 -50q-29 -11 -46 -47zM53 507q-16 28 -41 48q19 15 25 21q9 10 19 28q13 -34 43 -50q-29 -11 -46 -47z" />
    <glyph glyph-name="otilde" unicode="&#xf5;" horiz-adv-x="218" 
d="M207 419q-6 -12 -13 -24q-3 -5 -5 -29l1 -334q0 -21 17 -38l-5 1l-65 46h-41q-36 -47 -41 -47q-30 38 -44 58q0 -2 10.5 15t10.5 42v351q17 -10 49 -34q2 -1 3 -2h32q14 19 44 55q15 -20 47 -60zM133 61v321q0 10 -5.5 20t-11.5 9l-30 -8l1 -298q0 -28 1 -32
q2 -12 14 -12h31zM139 502q-11 0 -33.5 8.5t-34.5 8.5q-16 0 -30 -17q-1 2 -4.5 4t-6.5 4q17 41 56 41q11 0 30.5 -8.5t27.5 -8.5q15 0 33 15l10 -8q-19 -39 -48 -39z" />
    <glyph glyph-name="uacute" unicode="&#xfa;" horiz-adv-x="233" 
d="M210 436q-19 -15 -21 -43v-312q-4 -11 23 -45q-34 -14 -51 -51q-33 51 -54 51q-30 0 -54 -51q-5 18 -21 34t-29 17q23 31 21 44v311q0 14 -9.5 25l-9.5 11q40 24 75 65v-412q0 -27 28 -27q9 0 18 9t9 18v315q0 27 -18 39q34 20 48 55q6 -14 27 -36q9 -9 18 -17zM141 599
q27 -42 26 -44q-2 -2 -115 -40l-8 15z" />
    <glyph glyph-name="ugrave" unicode="&#xf9;" horiz-adv-x="233" 
d="M210 436q-19 -15 -21 -43v-312q-4 -11 23 -45q-34 -14 -51 -51q-33 51 -54 51q-30 0 -54 -51q-5 18 -21 34t-29 17q23 31 21 44v311q0 14 -9.5 25l-9.5 11q40 24 75 65v-412q0 -27 28 -27q9 0 18 9t9 18v315q0 27 -18 39q34 20 48 55q6 -14 27 -36q9 -9 18 -17zM65 599
q-27 -42 -26 -44q2 -2 115 -40l8 15z" />
    <glyph glyph-name="ucircumflex" unicode="&#xfb;" horiz-adv-x="233" 
d="M210 436q-19 -15 -21 -43v-312q-4 -11 23 -45q-34 -14 -51 -51q-33 51 -54 51q-30 0 -54 -51q-5 18 -21 34t-29 17q23 31 21 44v311q0 14 -9.5 25l-9.5 11q40 24 75 65v-412q0 -27 28 -27q9 0 18 9t9 18v315q0 27 -18 39q34 20 48 55q6 -14 27 -36q9 -9 18 -17zM111 544
q-20 -13 -79 -39l-8 15l83 66l2 3l1 -1l1 1l2 -3l83 -66l-8 -15q-23 8 -47 22.5t-30 16.5z" />
    <glyph glyph-name="udieresis" unicode="&#xfc;" horiz-adv-x="233" 
d="M210 436q-19 -15 -21 -43v-312q-4 -11 23 -45q-34 -14 -51 -51q-33 51 -54 51q-30 0 -54 -51q-5 18 -21 34t-29 17q23 31 21 44v311q0 14 -9.5 25l-9.5 11q40 24 75 65v-412q0 -27 28 -27q9 0 18 9t9 18v315q0 27 -18 39q34 20 48 55q6 -14 27 -36q9 -9 18 -17zM163 507
q-16 28 -41 48q19 15 25 21q9 10 19 28q13 -34 43 -50q-29 -11 -46 -47zM53 507q-16 28 -41 48q19 15 25 21q9 10 19 28q13 -34 43 -50q-29 -11 -46 -47z" />
    <glyph glyph-name="dagger" unicode="&#x2020;" horiz-adv-x="290" 
d="M125 474q-22 -2 -42.5 -16.5t-27.5 -14.5q-44 0 -44 43q0 45 44 45q6 0 26.5 -14.5t44.5 -16.5q-1 25 -14 71t-13 65q0 18 8.5 33.5t24.5 15.5q34 0 34 -49q0 -19 -13 -64.5t-14 -71.5q25 2 44.5 16.5t25.5 14.5q45 0 45 -45q0 -43 -45 -43q-5 0 -26 14.5t-44 17.5
q2 -84 35 -140q-26 -101 -30 -340l-15 3q0 76 -9 171q-11 113 -28 166q31 55 33 139z" />
    <glyph glyph-name="degree" unicode="&#xb0;" horiz-adv-x="244" 
d="M113 492q-42 0 -71.5 28.5t-29.5 69.5q0 40 29.5 68.5t71.5 28.5t71.5 -28.5t29.5 -68.5q0 -41 -29.5 -69.5t-71.5 -28.5zM113 662q-32 0 -54 -21t-22 -51t22 -51.5t54 -21.5t54 21.5t22 51.5t-22 51t-54 21z" />
    <glyph glyph-name="cent" unicode="&#xa2;" horiz-adv-x="182" 
d="M86 92q-20 -3 -20 0q0 -2 -1 26q-1 32 -1 47q-5 -6 -11 -12q-53 55 -53 58q0 2 9 14t10 16q1 8 0 205q0 -140 0 185q16 -19 47 -50q-3 93 0 93h20v-90q5 6 18 28q10 17 13 17q13 -16 47 -59q0 -3 -21 -30l-22 -30q-13 18 -41 44l1 -314q0 -5 8 -14q5 -6 11 -13
q16 13 24.5 18.5t25.5 9.5l6 -9q-39 -20 -70 -47v-93z" />
    <glyph glyph-name="sterling" unicode="&#xa3;" horiz-adv-x="235" 
d="M138 256h-61q9 -45 9 -50q-1 -44 -16 -80q-10 -26 -26 -47q-12 -16 -13 -15h93q18 0 36 27.5t14 45.5l9 4l8 -12q-11 -44 -38 -129l-156 4l2 66q53 28 53 121q0 34 -8 65h-42v25h33q-4 11 -9 19t-17 52q-15 56 -15 96q0 97 26 154q18 40 70 93q32 -40 63 -81
q28 -42 28 -94q0 -117 -65 -154l2 62q41 28 41 98q0 63 -48 100q-62 -64 -57 -172q2 -51 12 -148q0 -3 5 -24q67 0 67 -1v-25z" />
    <glyph glyph-name="section" unicode="&#xa7;" horiz-adv-x="22" 
 />
    <glyph glyph-name="bullet" unicode="&#x2022;" horiz-adv-x="357" 
d="M57 310q0 46 31 78.5t74 32.5q44 0 74.5 -32.5t30.5 -78.5t-30.5 -78.5t-74.5 -32.5q-43 0 -74 32.5t-31 78.5z" />
    <glyph glyph-name="paragraph" unicode="&#xb6;" horiz-adv-x="487" 
d="M462 -65h-282v30q39 0 49 12t10 53v283l-31 -1q-85 -3 -136.5 44t-51.5 132q0 101 66 142q52 32 162 32h214v-30q-38 0 -47.5 -12.5t-9.5 -53.5v-536q0 -42 8 -52q10 -13 49 -13v-30zM352 -35v667h-63v-667h63z" />
    <glyph glyph-name="germandbls" unicode="&#xdf;" horiz-adv-x="280" 
d="M117 468v114q0 6 -35 39q-1 -11 1 -153q16 -3 34 0zM242 151q0 -55 -53 -136.5t-53 -112.5q0 -21 9 -37q11 -20 30 -20q26 0 33 13q-10 3 -21 6t-11 19q0 25 23 25q28 0 28 -31q0 -21 -15 -33t-34 -12q-28 0 -43 28q-12 21 -12 47q0 31 29.5 88t29.5 112q0 29 -10 52
q-7 15 -19 27q-10 9 -10 8q0 1 20.5 30t20.5 34q0 3 -18 27.5t-18 26.5l18.5 23t18.5 29q0 3 -20 30t-20 29q3 5 16 22h-79v-338q-4 -33 18 -54q-14 -24 -44 -72h-5q-12 22 -45 70q15 12 22 55v338l-26 1v23h26l1 213l48 -42l46 50l52 -50l-44 -56l-2 -114l52 1l9 12l44 -57
q-10 -17 -36 -61q34 -48 34 -52q0 -5 -38 -54q48 -47 48 -107z" />
    <glyph glyph-name="registered" unicode="&#xae;" horiz-adv-x="376" 
d="M185 720q60 0 102.5 -43.5t42.5 -103.5q0 -61 -43 -104t-104 -43t-104 43t-43 104q0 62 43.5 104.5t105.5 42.5zM182 699q-51 0 -86 -37t-35 -88q0 -52 35 -88.5t87 -36.5t87 36.5t35 88.5t-35.5 88.5t-87.5 36.5zM166 568v-41q0 -9 1 -15q7 -3 24 -3v-14h-89v14
q14 0 21 3q2 6 2 15v92q0 8 -2 15q-6 2 -21 2v15h95q58 0 58 -40q0 -31 -38 -39q21 -8 30 -57q2 -2 5 -3q8 0 8 20h15v-5q0 -35 -38 -35q-26 0 -34 22q-2 5 -7 45q-4 9 -30 9zM166 583h11q34 0 34 27q0 26 -25 26h-9q-11 0 -11 -12v-41z" />
    <glyph glyph-name="copyright" unicode="&#xa9;" horiz-adv-x="793" 
d="M377 721q151 0 257.5 -108.5t106.5 -259.5q0 -153 -107.5 -260.5t-260.5 -107.5q-152 0 -260 107.5t-108 259.5q0 156 108 262.5t264 106.5zM369 669q-127 0 -214 -94t-87 -222q0 -129 88.5 -222.5t216.5 -93.5t216.5 93.5t88.5 222.5q0 132 -88.5 224t-220.5 92z
M531 554l6 -160l-36 -4q-34 129 -118 129q-95 0 -95 -163q0 -166 102 -166q93 0 114 116l41 -10q-30 -148 -173 -148q-89 0 -144 55t-55 144q0 91 57.5 150t147.5 59q52 0 97 -27l28 25h28z" />
    <glyph glyph-name="trademark" unicode="&#x2122;" horiz-adv-x="656" 
d="M248 708l6 -97h-23q-14 74 -54 74l-6 -3l-1 -8v-166q0 -15 2 -25q11 -4 36 -4v-23h-143v23q26 0 37 4q2 11 2 25v166l-2 9l-6 2q-40 0 -54 -74h-22l5 97h223zM410 708l48 -135l46 135h116v-23q-22 0 -33 -4q-2 -10 -2 -25v-148q0 -15 2 -25q11 -4 33 -4v-23h-136v23
q22 0 33 4q2 11 2 25v156l-72 -208h-16l-72 206v-132q0 -28 4 -36q7 -15 32 -15v-23h-102v23h2q24 0 31 15q4 9 4 36v126q0 14 -2 25q-11 4 -32 4v23h114z" />
    <glyph glyph-name="acute" unicode="&#xb4;" horiz-adv-x="214" 
d="M141 599q27 -42 26 -44q-2 -2 -115 -40l-8 15z" />
    <glyph glyph-name="dieresis" unicode="&#xa8;" horiz-adv-x="214" 
d="M153 507q-16 28 -41 48q19 15 25 21q9 10 19 28q13 -34 43 -50q-29 -11 -46 -47zM43 507q-16 28 -41 48q19 15 25 21q9 10 19 28q13 -34 43 -50q-29 -11 -46 -47z" />
    <glyph glyph-name="AE" unicode="&#xc6;" horiz-adv-x="637" 
d="M293 415v204h-60v-204h60zM292 339q0 37 1 32h-61v-32q30 -1 60 0zM362 479q15 20 33 36q10 6 18.5 11.5t8.5 17.5q0 40 -35 40q-27 0 -25 -1v-104zM602 133q0 -65 -37 -101.5t-95 -37.5q-60 -1 -101 46q-26 -26 -38 -50q-15 20 -29.5 38.5t-31.5 29.5v0v0q6 4 14 22
q11 24 11 48v170h-63v-397q12 -13 16 -43q-12 -19 -19 -19q-24 0 -24 19q0 25 15 43v719h-8.5h-7.5q-15 0 -15 -25q-1 -98 -1 -471q0 -145 2 -93q-2 -53 -14 -92q-7 -23 -47 -67.5t-58 -44.5q-4 0 -4 7q44 35 49 94q2 53 3 106l1 272l-20 -17l-19 -25l-20 24l-26 18l25 21
l18 25l21 -24l21 -16v83l-20 -17l-19 -26l-20 25l-26 18l25 21l18 25l21 -24l21 -16q0 62 -1 118q-2 16 -20 21l83 80h-107q-21 0 -39.5 -14.5t-18.5 -36.5q0 -15 15 -28t29.5 -13t19.5 -2q2 -8 -45 -43q-40 24 -40 66q0 28 17 50q10 14 56 48t49 34h294q-16 -18 -50 -58
v-23q9 -3 29 -3q23 0 36 7q40 20 73 57q29 33 26 33q31 -39 46 -59q0 1 -19 -27t-19 -57v-133h32v41q8 1 9 0v-190h-10v35h-31q0 -128 1 -173q1 -40 2 -51t1 -12q21 3 64 74v-9zM523 417v135q0 14 -14 39t-22 29v-203h36zM566 379h-33v-34h33v34zM523 345v34h-37v-34h37z
M420 520q-27 -25 -38 -71q-6 -39 -12 -77q-7 -97 -2 -156q5 -46 10 -66q9 -34 30 -58q9 20 10 46q1 31 2 37v345zM523 304h-38v-133l-71 -87q21 -28 65 -28q31 0 44 8v240z" />
    <glyph glyph-name="Oslash" unicode="&#xd8;" horiz-adv-x="408" 
d="M305 309h-72v-299q64 59 72 299v0zM238 428l44 78q-19 45 -48 75v-153h4zM187 337l32 57l1 202l-34 28q2 -54 1 -287zM83 153l39 68v315q-38 -18 -48 -113q-2 -21 -4 -115q-1 -98 13 -155zM123 178l-31 -56q4 -12 9 -22q21 30 22 78zM219 347l-32 -57l-1 -79q0 -21 1 -38
q-81 -90 -81 -87q0 -24 33.5 -54t56.5 -30h24zM243 389l-9 -16v-24h71l-1 39zM292 477l-27 -49l35 1q4 12 -8 48zM380 680h27l-69 -122q45 -96 45 -229q0 -138 -47 -236q-52 -106 -135 -105q-84 1 -137 84l-52 -92h-27l65 115q-51 97 -51 202q0 185 123 251q3 8 0 17
q-3 11 -11 12q-57 3 -73 14.5t-21 47.5q-2 20 19 35q18 14 34 14q21 0 37.5 -12t16.5 -28q0 -7 -4 -14q1 -1 6 -1q10 0 22 10.5t12 18.5q0 7 -5 9q-8 2 -9 4q0 14 10 14q14 0 14 -23q0 -37 -71 -47l-3 7q10 3 10 25q0 20 -39 20q-35 0 -35 -32q0 -30 20 -39q9 -4 38 -4
q23 0 31 2q14 4 42 24q2 1 55 56q65 -22 108 -96z" />
    <glyph glyph-name="plusminus" unicode="&#xb1;" 
 />
    <glyph glyph-name="yen" unicode="&#xa5;" horiz-adv-x="303" 
d="M72 302h64l-1 30q-60 285 -65 285q-17 0 -31.5 -19.5t-14.5 -33.5q0 -30 43 -36q-8 -34 -15 -34q-22 0 -36 23q-12 18 -12 35q-1 40 42 76q58 50 66 62l72 -303q16 30 52 210q-8 34 -27 44q6 3 21.5 19.5t20.5 27.5q16 -25 41 -45q-6 -4 -36 -46q-34 -128 -69 -259v-36
h68v-17h-68v-33h68v-17h-68l-1 -141q3 -26 23 -44q-29 -18 -48 -61q-24 44 -50 60q20 17 26 45l-1 141h-64v17h64v33h-64v17zM236 601z" />
    <glyph glyph-name="mu" unicode="&#xb5;" horiz-adv-x="375" 
d="M183 270l-35 -33v-107l35 35v105zM281 360l-35 -32v-123q0 -8 -74 -71q-77 -64 -80 -71l189 -1v298zM246 362l35 33v153q-4 14 -9 27q-12 29 -26 42v-255zM148 272l35 33v268q-25 -10 -35 -18v-283zM17 151l68 63v238q0 59 -23 85q-21 15 -43 31.5t-22 53.5q-1 25 22 42
q20 15 38 15q22 0 37 -17.5t15 -35.5q0 -8 -11 -15t-15 -7q-2 0 -11.5 2.5t-11.5 2.5q-10 0 -10 -9q0 -19 23 -19t46.5 50.5t57.5 50.5q15 0 25.5 -11.5t10.5 -23.5q0 -11 -7.5 -20.5t-19.5 -9.5q-4 0 -12 4.5t-8 10.5q0 14 11 14q13 0 7 -18q2 -3 5 -3q14 0 14 23
q0 24 -25 24q-30 0 -53 -50.5t-52 -50.5q-12 0 -21.5 8.5t-9.5 18.5q0 19 17 19q2 0 11 -2.5t11 -2.5q13 0 13 18q0 37 -40 37q-14 0 -29 -14t-16 -27q-4 -35 24 -55q24 -16 59 -16q42 0 108 44.5t88 88.5q0 -5 47 -62q-21 -20 -36 -78v-137l55 51v-35l-55 -50v-316
q15 6 69 37l-106 -98h-258q25 22 50 45q31 29 31 65v70l-68 -64v35z" />
    <glyph glyph-name="mu" unicode="&#x3bc;" horiz-adv-x="375" 
d="M183 270l-35 -33v-107l35 35v105zM281 360l-35 -32v-123q0 -8 -74 -71q-77 -64 -80 -71l189 -1v298zM246 362l35 33v153q-4 14 -9 27q-12 29 -26 42v-255zM148 272l35 33v268q-25 -10 -35 -18v-283zM17 151l68 63v238q0 59 -23 85q-21 15 -43 31.5t-22 53.5q-1 25 22 42
q20 15 38 15q22 0 37 -17.5t15 -35.5q0 -8 -11 -15t-15 -7q-2 0 -11.5 2.5t-11.5 2.5q-10 0 -10 -9q0 -19 23 -19t46.5 50.5t57.5 50.5q15 0 25.5 -11.5t10.5 -23.5q0 -11 -7.5 -20.5t-19.5 -9.5q-4 0 -12 4.5t-8 10.5q0 14 11 14q13 0 7 -18q2 -3 5 -3q14 0 14 23
q0 24 -25 24q-30 0 -53 -50.5t-52 -50.5q-12 0 -21.5 8.5t-9.5 18.5q0 19 17 19q2 0 11 -2.5t11 -2.5q13 0 13 18q0 37 -40 37q-14 0 -29 -14t-16 -27q-4 -35 24 -55q24 -16 59 -16q42 0 108 44.5t88 88.5q0 -5 47 -62q-21 -20 -36 -78v-137l55 51v-35l-55 -50v-316
q15 6 69 37l-106 -98h-258q25 22 50 45q31 29 31 65v70l-68 -64v35z" />
    <glyph glyph-name="ordfeminine" unicode="&#xaa;" horiz-adv-x="380" 
d="M336 350v-246l-105 -103h-230l51 65l37 -1l2 206l-14 18.5t-14 22.5q0 2 14 22t14 22q0 6 -14 24t-14 21q0 2 13.5 20t14.5 31v162q-25 0 -45.5 -20.5t-20.5 -42.5q0 -29 34 -29q11 0 19 1q-2 -7 -34 -40q-38 17 -38 59q0 23 8 33q28 32 67 80q19 25 23 25h228l-228 -321
q6 -13 21 -36l201 280v-71q-27 3 -66 -47q-16 -24 -31 -48zM270 616h-122v-175zM136 425v191q-31 -1 -32 0v-164q1 -12 21 -42q11 11 11 15zM267 320l-77 61q-14 -21 -44 -57v-57q-1 -37 -1 -58h122q-1 21 0 111zM267 66v131h-122v-131h122zM133 65v250l-29 -47v-204z
M179 760q24 17 98 49l10 -19l-106 -79l-1 1l-2 -1l-19 14l-87 65l10 19q28 -9 58 -27.5t39 -21.5z" />
    <glyph glyph-name="ordmasculine" unicode="&#xba;" horiz-adv-x="143" 
d="M112 151q0 -55 -53 -136.5t-53 -112.5q0 -21 9 -37q11 -20 30 -20q26 0 33 13q-10 3 -21 6t-11 19q0 25 23 25q28 0 28 -31q0 -21 -15 -33t-34 -12q-28 0 -43 28q-12 21 -12 47q0 31 29.5 88t29.5 112q0 29 -10 52q-7 15 -19 27q-10 9 -10 8q0 1 20.5 30t20.5 34
q0 3 -18 27.5t-18 26.5l19 26t19 32q0 3 -20.5 27t-20.5 26q0 3 45 59l44 -57q-10 -16 -37 -57q36 -56 36 -61q0 -4 -38 -51q47 -45 47 -105zM59 560q20 13 79 39l8 -15l-83 -66l-2 -3l-1 1l-1 -1l-2 3l-83 66l8 15q22 -8 46 -22.5t31 -16.5z" />
    <glyph glyph-name="ae" unicode="&#xe6;" horiz-adv-x="314" 
d="M127 84v201q-24 -25 -44 -27l1 -142q0 -61 28 -57q10 12 15 25zM186 406v-328q8 -8 20 -24q15 13 23.5 18t25.5 9l6 -9q-45 -23 -78 -54q-11 -13 -23 -27l-4 4l-39 42q-7 5 -13 5q-12 0 -25 -19l-18 -30h-8q-46 62 -46 60q18 21 18 43v212q34 -34 57 -34q36 0 47 55v62
q-9 65 -53 65q-15 0 -25.5 -15t-10.5 -30q0 -29 63 -53q0 -6 -13 -27t-18 -18q-21 9 -37 34t-19 50q-3 32 17.5 54.5t54.5 22.5q26 0 38 -8q2 2 15 -12t17 -17q5 5 21 34q4 -1 7 0v-42q22 23 49 50q53 -88 53 -92q0 -2 -19 -31q-24 -36 -37 -67q-20 -47 -20 -93
q0 -44 29 -52q2 7 5 15.5t14 8.5q18 0 18 -19q0 -23 -25 -23q-24 0 -40 28q-13 24 -13 50q0 24 13.5 68.5t28.5 72.5l-41 76q-3 -2 -15 -15z" />
    <glyph glyph-name="oslash" unicode="&#xf8;" horiz-adv-x="230" 
d="M85 190l48 137v55q0 10 -5.5 20t-11.5 9l-30 -8zM133 271l-46 -126v-40q0 -28 1 -32q2 -12 14 -12h31v210zM192 492h20l-20 -55q8 -10 15 -18q-6 -12 -13 -24q-3 -5 -5 -29q0 -287 1 -334q1 -21 17 -38l-5 1l-65 46h-41q-36 -47 -41 -47q-3 5 -15 20l-16 -45h-21l23 63
q-14 18 -15 20q0 -1 10.5 18t10.5 39v351q17 -10 49 -34q2 -1 3 -2h32q14 19 44 55q3 -5 18 -24z" />
    <glyph glyph-name="questiondown" unicode="&#xbf;" horiz-adv-x="267" 
d="M129 359q0 -46 -10 -74q-15 -37 -29.5 -73.5t-14.5 -166.5q0 -51 11.5 -80.5t47.5 -66.5q48 37 48 120q0 44 -22.5 72t-22.5 34q0 44 3 64q28 -15 47 -77q14 -47 14 -79q1 -56 -26 -109q-16 -32 -61 -94l-6 3q-62 71 -74 97q-18 38 -20 118q-1 61 24 129q9 25 48 104
q26 54 26 79h17zM126 535q24 -40 59 -68q-27 -22 -35 -31q-14 -14 -27 -40q-11 30 -21 41q-12 16 -41 31q42 16 65 67z" />
    <glyph glyph-name="exclamdown" unicode="&#xa1;" horiz-adv-x="166" 
d="M14 -85q21 17 26 45v193q0 139 18 215q0 2 4 2q3 0 4 -2q22 -75 23 -215v-193q4 -25 23 -44q-29 -18 -47 -60q-25 44 -51 59zM62 529q19 -32 50 -57q-32 -25 -50 -61q-17 42 -54 61q34 13 54 57z" />
    <glyph glyph-name="logicalnot" unicode="&#xac;" 
 />
    <glyph glyph-name="florin" unicode="&#x192;" 
 />
    <glyph glyph-name="guillemotleft" unicode="&#xab;" horiz-adv-x="328" 
d="M282 389l-98 -161l95 -153l-12 -14l-143 167q-3 2 145 178zM163 389l-98 -161l95 -153l-12 -14l-143 167q-3 2 145 178z" />
    <glyph glyph-name="guillemotright" unicode="&#xbb;" horiz-adv-x="328" 
d="M5 389l97 -161l-95 -153l12 -14l144 167q3 2 -146 178zM124 389l97 -161l-95 -153l12 -14l144 167q3 2 -146 178z" />
    <glyph glyph-name="ellipsis" unicode="&#x2026;" horiz-adv-x="651" 
d="M549 -5q-24 40 -59 68q27 22 36 30q13 15 26 40q12 -29 21 -40q12 -16 41 -31q-42 -16 -65 -67zM109 -5q-24 40 -59 68q27 22 36 30q13 15 26 40q12 -29 21 -40q12 -16 41 -31q-42 -16 -65 -67zM329 -5q-24 40 -59 68q27 22 36 30q13 15 26 40q12 -29 21 -40
q12 -16 41 -31q-42 -16 -65 -67z" />
    <glyph glyph-name="nonbreakingspace" unicode="&#xa0;" horiz-adv-x="191" 
 />
    <glyph glyph-name="Agrave" unicode="&#xc0;" horiz-adv-x="435" 
d="M421 681q-24 -19 -58 -58v-497q-2 -25 10.5 -48.5t12.5 -19.5l-21 -21q-23 -25 -34 -47q-15 20 -29.5 38.5t-31.5 29.5q6 9 11 17q14 26 14 53v170h-63v-397q12 -13 16 -43q-12 -19 -19 -19q-24 0 -24 19q0 25 15 43v718q-3 0 -9 1h-7q-15 0 -15 -25l-1 -471
q0 -145 2 -93q-2 -53 -14 -92q-7 -23 -47 -67.5t-58 -44.5q-4 0 -4 7q44 35 49 94q2 53 3 106v485q-2 16 -20 21l83 80h-107q-21 0 -39.5 -14.5t-18.5 -36.5q0 -15 15 -28t29.5 -13t19.5 -2q2 -8 -45 -43q-40 24 -40 66q0 28 17 50q10 14 56 48t49 34h303zM293 415v203h-60
v-203h60zM292 339q0 37 1 32h-61v-32q30 -1 60 0zM100 378l-19 -26l-20 25l-26 18l25 21l18 25l21 -24l25 -19zM100 289l-19 -25l-20 24l-26 18l25 21l18 25l21 -24l25 -18zM169 805q-32 -48 -30 -50t133 -46l8 18z" />
    <glyph glyph-name="Atilde" unicode="&#xc3;" horiz-adv-x="435" 
d="M421 681q-24 -19 -58 -58v-497q-2 -25 10.5 -48.5t12.5 -19.5l-21 -21q-23 -25 -34 -47q-15 20 -29.5 38.5t-31.5 29.5q6 9 11 17q14 26 14 53v170h-63v-397q12 -13 16 -43q-12 -19 -19 -19q-24 0 -24 19q0 25 15 43v718q-3 0 -9 1h-7q-15 0 -15 -25l-1 -471
q0 -145 2 -93q-2 -53 -14 -92q-7 -23 -47 -67.5t-58 -44.5q-4 0 -4 7q44 35 49 94q2 53 3 106v485q-2 16 -20 21l83 80h-107q-21 0 -39.5 -14.5t-18.5 -36.5q0 -15 15 -28t29.5 -13t19.5 -2q2 -8 -45 -43q-40 24 -40 66q0 28 17 50q10 14 56 48t49 34h303zM293 415v203h-60
v-203h60zM292 339q0 37 1 32h-61v-32q30 -1 60 0zM100 378l-19 -26l-20 25l-26 18l25 21l18 25l21 -24l25 -19zM100 289l-19 -25l-20 24l-26 18l25 21l18 25l21 -24l25 -18zM365 790q-31 -66 -81 -66q-21 0 -60 16.5t-60 16.5q-34 0 -57 -29q-3 5 -8.5 5.5t-7.5 2.5
q29 69 96 69q20 0 54.5 -15.5t52.5 -15.5q28 0 59 26z" />
    <glyph glyph-name="Otilde" unicode="&#xd5;" horiz-adv-x="408" 
d="M193 -12q-104 1 -161 129q-41 91 -41 180q0 185 123 251q3 8 0 17q-3 11 -11 12q-57 3 -73 14.5t-21 47.5q-2 20 19 35q18 14 34 14q21 0 37.5 -12t16.5 -28q0 -7 -4 -14q1 -1 6 -1q10 0 22 10.5t12 18.5q0 7 -5 9q-8 2 -9 4q0 14 10 14q14 0 14 -23q0 -37 -71 -47l-3 7
q10 3 10 25q0 20 -39 20q-35 0 -35 -32q0 -30 20 -39q9 -4 38 -4q23 0 31 2q14 4 42 24q2 1 55 56q81 -27 125 -131q40 -94 40 -218q0 -138 -47 -236q-52 -106 -135 -105zM292 429q5 16 -12 62q-20 55 -54 90v-151zM297 349l-1 39l-70 1v-40h71zM212 596l-34 28
q2 -70 0 -413q0 -20 1 -38q-81 -90 -81 -87q0 -24 33.5 -54t56.5 -30h24v594zM297 309h-72v-299q56 51 72 299zM114 219v317q-38 -18 -48 -113q-2 -21 -4 -115q-2 -142 31 -208q19 28 22 71q-1 -10 -1 48zM305 790q-31 -66 -81 -66q-21 0 -60 16.5t-60 16.5q-34 0 -57 -29
q-3 5 -8.5 5.5t-7.5 2.5q29 69 96 69q20 0 54.5 -15.5t52.5 -15.5q28 0 59 26z" />
    <glyph glyph-name="OE" unicode="&#x152;" horiz-adv-x="630" 
d="M592 133q0 -65 -37 -101.5t-95 -37.5q-87 -2 -133 97q-52 -104 -134 -103q-104 1 -161 129q-41 91 -41 180q0 185 123 251q3 8 0 17q-3 11 -11 12q-57 3 -73 14.5t-21 47.5q-2 20 19 35q18 14 34 14q21 0 37.5 -12t16.5 -28q0 -7 -4 -14q1 -1 6 -1q10 0 22 10.5t12 18.5
q0 7 -5 9q-8 2 -9 4q0 14 10 14q14 0 14 -23q0 -37 -71 -47l-3 7q10 3 10 25q0 20 -39 20q-35 0 -35 -32q0 -30 20 -39q9 -4 38 -4q23 0 31 2q14 4 42 24q2 1 55 56q105 -36 146 -193q13 16 29 30q10 6 18.5 11.5t8.5 17.5q0 30 -35 30h-5h-5q-18 0 -35 15t-17 33
q0 25 14 40.5t38 15.5q37 0 37 -40q0 -6 -1 -12q7 1 22 11q21 13 21 23l-1 8q-5 4 -8 0q-3 -3 -3 -8q-9 1 -8 13q0 10 15 10t15 -19q0 -18 -23.5 -33.5t-43.5 -13.5q0 4 2.5 10t2.5 12q0 29 -31 29q-35 0 -35 -42q0 -39 53 -39q23 0 36 7q40 20 73 62q29 38 26 38
q31 -39 46 -59q0 1 -19 -27t-19 -57v-133h32v41q8 1 9 0v-190h-10v35h-31q0 -128 1 -173q1 -40 2 -51t1 -12q21 3 64 74v-9zM513 417v135q0 14 -14 39t-22 29v-203h36zM556 379h-33v-34h33v34zM513 345v34h-37v-34h37zM410 520q-27 -25 -38 -71q-6 -39 -12 -77
q-7 -97 -2 -156q5 -46 10 -66q9 -34 30 -58q9 20 10 46q1 31 2 37v345zM513 304h-38v-133l-71 -87q21 -28 65 -28q31 0 44 8v240zM292 429q5 16 -12 62q-20 55 -54 90v-151zM297 349l-1 42l-70 -2v-40h71zM212 596l-34 28q2 -70 0 -413q0 -20 1 -38q-81 -90 -81 -87
q0 -24 33.5 -54t56.5 -30h24v594zM292 309h-67v-299q50 46 67 222q-3 41 0 77zM114 219v317q-38 -18 -48 -113q-2 -21 -4 -115q-2 -142 31 -208q19 28 22 71q-1 -22 -1 48z" />
    <glyph glyph-name="oe" unicode="&#x153;" horiz-adv-x="302" 
d="M283 387q0 -2 -19 -31q-24 -36 -37 -67q-20 -47 -20 -93q0 -44 29 -52q2 7 5 15.5t14 8.5q18 0 18 -19q0 -23 -25 -23q-24 0 -40 28q-13 24 -13 50q0 24 13.5 68.5t28.5 72.5l-41 76l-17 -17v-18q1 -8 0 -20l1 -285q8 -11 20 -28q16 13 24.5 18.5t25.5 9.5l6 -9
q-42 -21 -74 -50q1 -2 -29 -29q-23 24 -44 48h-23q-36 -47 -41 -47q-30 38 -44 58q0 -2 10 13.5t10 40.5v363q44 -28 53 -45h32q14 0 18 1v38q4 4 6 4q3 0 16 -13q17 -17 21 -19.5t6.5 -4.5t5.5 -2q5 0 27.5 25t23.5 26q53 -88 53 -92zM123 88v294v24h-47v-300q0 -26 2 -32
q2 -13 14 -13h16q11 12 15 27z" />
    <glyph glyph-name="endash" unicode="&#x2013;" horiz-adv-x="388" 
d="M20 231q0 3 -21 -43h352l17 43q-348 -2 -348 0z" />
    <glyph glyph-name="emdash" unicode="&#x2014;" horiz-adv-x="752" 
d="M708 231l-17 -43h-686l15 43h688z" />
    <glyph glyph-name="quotedblleft" unicode="&#x201c;" horiz-adv-x="331" 
d="M57 591l23 43l7 52l25 -3q0 -42 -21 -84q16 -22 44 -44q-36 -29 -59 -73q-20 50 -65 74q26 10 46 35zM217 591l23 43l7 52l25 -3q0 -42 -21 -84q16 -22 44 -44q-36 -29 -59 -73q-20 50 -65 74q26 10 46 35z" />
    <glyph glyph-name="quotedblright" unicode="&#x201d;" horiz-adv-x="331" 
d="M249 577l-23 -43l-7 -52l-25 3q0 42 20 84q-15 21 -43 44q35 28 58 73q20 -50 66 -74q-27 -10 -46 -35zM89 577l-23 -43l-7 -52l-25 3q0 42 20 84q-15 21 -43 44q35 28 58 73q20 -50 66 -74q-27 -10 -46 -35z" />
    <glyph glyph-name="quoteleft" unicode="&#x2018;" horiz-adv-x="152" 
d="M67 601l23 43l7 52l25 -3q0 -42 -21 -84q16 -22 44 -44q-36 -29 -59 -73q-20 50 -65 74q26 10 46 35z" />
    <glyph glyph-name="quoteright" unicode="&#x2019;" horiz-adv-x="169" 
d="M99 587l-23 -43l-7 -52l-27 2q0 40 22 85q-15 21 -43 44q35 28 58 73q20 -50 66 -74q-27 -10 -46 -35z" />
    <glyph glyph-name="divide" unicode="&#xf7;" 
 />
    <glyph glyph-name="ydieresis" unicode="&#xff;" horiz-adv-x="237" 
d="M188 365v-249q0 -79 -1 -80q1 -21 -2 -52q-13 -26 -29 -32q-27 -10 -106 -10q-45 0 -45 -37q0 -30 94 -30h35q26 4 26 23q0 6 -4 21q23 0 23 -33q0 -26 -18 -40.5t-39 -14.5l-47 -1q-36 0 -61 18t-25 53q1 40 27 52q10 4 55 6q37 2 53 19q7 6 7 74v63l1 263q-1 37 -26 37
q-24 0 -24 -47v-252q-3 -31 19 -62l-48 -58l-51 60q22 27 22 60v260q0 3 -5 16q-8 18 -19 30q15 4 33 23.5t24 37.5q4 -11 20 -31q19 -24 31 -24q11 0 34 26q11 15 22 29q19 -41 53 -61q-29 -21 -29 -57zM163 507q-16 28 -41 48q19 15 25 21q9 10 19 28q13 -34 43 -50
q-29 -11 -46 -47zM53 507q-16 28 -41 48q19 15 25 21q9 10 19 28q13 -34 43 -50q-29 -11 -46 -47z" />
    <glyph glyph-name="Ydieresis" unicode="&#x178;" horiz-adv-x="376" 
d="M337 629q-19 -27 -24 -55v-577q-52 56 -61 56l-96 1q-62 -56 -58 -99q2 -35 39 -55q27 -15 55 -15q3 0 67 1l52 -68h-107q-46 0 -86 34q-43 36 -43 84q0 25 10.5 50.5t10.5 23.5q0 7 -21 27q-12 11 -23 21q18 18 19.5 35t3.5 33q-1 77 0 208q1 153 1 208q-75 15 -75 85
q0 23 14 41q18 23 49 25l2 -8q-19 -7 -19 -32t20 -39.5t44 -14.5h10.5h15.5v-513q0 -7 9.5 -13.5t12.5 -6.5q2 0 6.5 1.5t5.5 1.5l4 -2l-1 562l-14 14q-3 4 -3 14q0 26 23 26q9 0 17.5 -9t8.5 -18q0 -16 -18 -27v-211q-1 0 61 0v159q-1 10 -2 21q-4 20 -13 29q-1 0 16 20
q21 24 29 46q11 -25 58 -64zM248 340v37q-28 1 -62 1l1 -37h36zM251 66v229q-53 -1 -65 0v-229h65zM69 378l-19 -26l-20 25l-26 18l25 21l18 25l21 -24l25 -19zM69 289l-19 -25l-20 24l-26 18l25 21l18 25l21 -24l25 -18z" />
    <glyph glyph-name="currency" unicode="&#xa4;" horiz-adv-x="22" 
 />
    <glyph glyph-name="guilsinglleft" unicode="&#x2039;" horiz-adv-x="215" 
d="M163 389l-98 -161l95 -153l-12 -14l-143 167q-3 2 145 178z" />
    <glyph glyph-name="guilsinglright" unicode="&#x203a;" horiz-adv-x="215" 
d="M5 78l97 161l-94 153l12 14l143 -167q3 -2 -145 -178z" />
    <glyph glyph-name="daggerdbl" unicode="&#x2021;" horiz-adv-x="328" 
d="M135 474q-22 -2 -42.5 -16.5t-27.5 -14.5q-44 0 -44 43q0 45 44 45q7 0 26.5 -14.5t44.5 -16.5q-1 25 -14 71t-13 65q0 18 8.5 33.5t24.5 15.5q34 0 34 -49q0 -19 -13 -64.5t-14 -71.5q25 2 44.5 16.5t25.5 14.5q45 0 45 -45q0 -43 -45 -43q-8 0 -31 19q-12 9 -39 13
q2 -84 35 -140q-33 -55 -35 -139q24 2 44 16.5t26 14.5q45 0 45 -44t-45 -44q-6 0 -26 15t-44 17q1 -26 14 -72t13 -65q0 -49 -34 -49q-33 0 -33 49q0 18 13 64t14 73q-23 -2 -43.5 -17t-27.5 -15q-44 0 -44 44t44 44q7 0 27 -14.5t43 -16.5q-2 84 -34 139q32 58 34 139z
" />
    <glyph glyph-name="periodcentered" unicode="&#xb7;" horiz-adv-x="187" 
d="M80 295q-23 38 -60 68q37 30 59 73q20 -50 66 -74q-42 -16 -65 -67z" />
    <glyph glyph-name="periodcentered" unicode="&#x2219;" horiz-adv-x="187" 
d="M80 295q-23 38 -60 68q37 30 59 73q20 -50 66 -74q-42 -16 -65 -67z" />
    <glyph glyph-name="quotesinglbase" unicode="&#x201a;" horiz-adv-x="167" 
d="M89 17l-23 -43l-7 -52l-25 3q0 42 20 84q-15 21 -43 44q35 28 58 73q20 -50 66 -74q-27 -10 -46 -35z" />
    <glyph glyph-name="quotedblbase" unicode="&#x201e;" horiz-adv-x="331" 
d="M249 17l-23 -43l-7 -52l-25 3q0 42 20 84q-15 21 -43 44q35 28 58 73q20 -50 66 -74q-27 -10 -46 -35zM89 17l-23 -43l-7 -52l-25 3q0 42 20 84q-15 21 -43 44q35 28 58 73q20 -50 66 -74q-27 -10 -46 -35z" />
    <glyph glyph-name="perthousand" unicode="&#x2030;" horiz-adv-x="19" 
 />
    <glyph glyph-name="Acircumflex" unicode="&#xc2;" horiz-adv-x="435" 
d="M421 681q-23 -21 -56 -62l-2 -493q-2 -25 10.5 -48.5t12.5 -19.5l-21 -21q-23 -25 -34 -47q-15 20 -29.5 38.5t-31.5 29.5q6 9 11 17q14 26 14 53v170h-63v-397q12 -13 16 -43q-12 -19 -19 -19q-24 0 -24 19q0 25 15 43v718q-3 0 -9 1h-7q-15 0 -15 -25l-1 -471
q0 -145 2 -93q-2 -53 -14 -92q-7 -23 -47 -67.5t-58 -44.5q-4 0 -4 7q44 35 49 94q2 53 3 106v485q-2 16 -20 21l83 80h-107q-21 0 -39.5 -14.5t-18.5 -36.5q0 -15 15 -28t29.5 -13t19.5 -2q2 -8 -45 -43q-40 24 -40 66q0 28 17 50q10 14 56 48t49 34h303zM293 415v203h-60
v-203h60zM292 339q0 37 1 32h-61v-32q30 -1 60 0zM100 378l-19 -26l-20 25l-26 18l25 21l18 25l21 -24l25 -19zM100 289l-19 -25l-20 24l-26 18l25 21l18 25l21 -24l25 -18zM221 754q-22 -13 -89 -42l-9 15l93 74l3 3l1 -1l1 1l2 -3l93 -74l-7 -15q-26 9 -53.5 24t-34.5 18z
" />
    <glyph glyph-name="Ecircumflex" unicode="&#xca;" horiz-adv-x="327" 
d="M302 133q0 -65 -37 -101.5t-95 -37.5q-80 -2 -126 82q-33 60 -40 141q-3 29 -3 56q0 157 94 242q10 6 18.5 11.5t8.5 17.5q0 30 -35 30h-5h-5q-18 0 -35 15t-17 33q0 24 14 39.5t38 15.5q37 0 37 -39q0 -6 -1 -12q7 1 22 11q21 13 21 23l-1 8q-5 4 -8 0q-3 -3 -3 -8
q-9 1 -8 13q0 10 15 10t15 -19q0 -18 -23.5 -33.5t-43.5 -13.5q0 4 2.5 10t2.5 12q0 28 -31 28q-35 0 -35 -41q0 -39 53 -39q23 0 36 7q40 20 73 62q29 38 26 38q31 -39 46 -59q0 2 -20 -26.5t-18 -57.5v-133h32v41q8 1 9 0v-190h-5.5h-4.5v35h-31q0 -128 1 -173
q1 -40 2 -51t1 -12q21 3 64 74v-9zM223 417v135q0 14 -14 39t-22 29v-203h36zM266 379h-33v-34h33v34zM223 345v34h-37v-34h37zM122 517q-27 -26 -39 -70q-6 -38 -13 -75q-7 -97 -2 -156q5 -46 10 -66q9 -34 30 -58q9 20 10 46q1 31 2 37zM223 304h-38v-133l-71 -87
q21 -28 65 -28q31 0 44 8v240zM151 754q-22 -13 -89 -42l-9 15l93 74l3 3l1 -1l1 1l2 -3l93 -74l-7 -15q-26 9 -53.5 24t-34.5 18z" />
    <glyph glyph-name="Aacute" unicode="&#xc1;" horiz-adv-x="435" 
d="M421 681q-23 -23 -56 -66l-2 -489q-2 -25 10.5 -48.5t12.5 -19.5l-21 -21q-23 -25 -34 -47q-15 20 -29.5 38.5t-31.5 29.5q6 9 11 17q14 26 14 53v170h-63v-397q12 -13 16 -43q-12 -19 -19 -19q-24 0 -24 19q0 25 15 43v718q-3 0 -9 1h-7q-15 0 -15 -25l-1 -471
q0 -145 2 -93q-2 -53 -14 -92q-7 -23 -47 -67.5t-58 -44.5q-4 0 -4 7q44 35 49 94q2 53 3 106v485q-2 16 -20 21l83 80h-107q-21 0 -39.5 -14.5t-18.5 -36.5q0 -15 15 -28t29.5 -13t19.5 -2q2 -8 -45 -43q-40 24 -40 66q0 28 17 50q10 14 56 48t49 34h303zM293 415v203h-60
v-203h60zM292 339q0 37 1 32h-61v-32q30 -1 60 0zM100 378l-19 -26l-20 25l-26 18l25 21l18 25l21 -24l25 -19zM100 289l-19 -25l-20 24l-26 18l25 21l18 25l21 -24l25 -18zM276 805q32 -48 30 -50t-132 -46l-9 18z" />
    <glyph glyph-name="Edieresis" unicode="&#xcb;" horiz-adv-x="312" 
d="M213 717q-16 28 -41 48q19 15 25 21q9 10 19 28q13 -34 43 -50q-29 -11 -46 -47zM93 717q-16 28 -41 48q19 15 25 21q9 10 19 28q13 -34 43 -50q-29 -11 -46 -47zM302 133q0 -65 -37 -101.5t-95 -37.5q-80 -2 -126 82q-33 60 -40 141q-3 29 -3 56q0 157 94 242
q10 6 18.5 11.5t8.5 17.5q0 30 -35 30h-5h-5q-18 0 -35 15t-17 33q0 24 14 39.5t38 15.5q37 0 37 -39q0 -6 -1 -12q7 1 22 11q21 13 21 23l-1 8q-5 4 -8 0q-3 -3 -3 -8q-9 1 -8 13q0 10 15 10t15 -19q0 -18 -23.5 -33.5t-43.5 -13.5q0 4 2.5 10t2.5 12q0 28 -31 28
q-35 0 -35 -41q0 -39 53 -39q23 0 36 7q40 20 73 62q29 38 26 38q31 -39 46 -59q0 2 -20 -26.5t-18 -57.5v-133h32v41q8 1 9 0v-190h-5.5h-4.5v35h-31q0 -128 1 -173q1 -40 2 -51t1 -12q21 3 64 74v-9zM223 417v135q0 14 -14 39t-22 29v-203h36zM266 379h-33v-34h33v34z
M223 345v34h-37v-34h37zM120 520q-27 -25 -38 -71q-6 -39 -12 -77q-7 -97 -2 -156q5 -46 10 -66q9 -34 30 -58q9 20 10 46q1 31 2 37v345zM223 304h-38v-133l-71 -87q21 -28 65 -28q31 0 44 8v240z" />
    <glyph glyph-name="Egrave" unicode="&#xc8;" horiz-adv-x="312" 
d="M124 805q-31 -48 -30 -50q2 -2 133 -46l9 18zM302 133q0 -65 -37 -101.5t-95 -37.5q-80 -2 -126 82q-33 60 -40 141q-3 29 -3 56q0 157 94 242q10 6 18.5 11.5t8.5 17.5q0 30 -35 30h-5h-5q-18 0 -35 15t-17 33q0 24 14 39.5t38 15.5q37 0 37 -39q0 -6 -1 -12q7 1 22 11
q21 13 21 23l-1 8q-5 4 -8 0q-3 -3 -3 -8q-9 1 -8 13q0 10 15 10t15 -19q0 -18 -23.5 -33.5t-43.5 -13.5q0 4 2.5 10t2.5 12q0 28 -31 28q-35 0 -35 -41q0 -39 53 -39q23 0 36 7q40 20 73 62q29 38 26 38q31 -39 46 -59q0 2 -20 -26.5t-18 -57.5v-133h32v41q8 1 9 0v-190
h-5.5h-4.5v35h-31q0 -128 1 -173q1 -40 2 -51t1 -12q21 3 64 74v-9zM223 417v135q0 14 -14 39t-22 29v-203h36zM266 379h-33v-34h33v34zM223 345v34h-37v-34h37zM120 520q-27 -25 -38 -71q-6 -39 -12 -77q-7 -97 -2 -156q5 -46 10 -66q9 -34 30 -58q9 20 10 46q1 31 2 37
v345zM223 304h-38v-133l-71 -87q21 -28 65 -28q31 0 44 8v240z" />
    <glyph glyph-name="Iacute" unicode="&#xcd;" horiz-adv-x="366" 
d="M335 680l-27 -27l-1 -522q0 -54 -47.5 -100.5t-100.5 -46.5h-44q-43 0 -79.5 36t-36.5 78q0 107 97 122v56l-35 36q14 13 38 39q-9 15 -39 39l35 38l1 194q-93 -40 -93 -78q0 -24 23 -36q20 -11 47 -9q-11 -10 -41 -38q-45 18 -42 85q2 26 32 53q38 34 75 68q13 13 10 13
h228zM246 624h-139v-196l32 -34v103v25q-2 5 -12 15zM139 386l-34 -34l34 -36q2 65 0 70zM246 131v478l-43 -34l-1 -427q0 -33 -11 -64q-17 -51 -55 -51q-77 0 -86 63q-1 4 4 5h7q3 -18 8 -25q10 -15 34 -16q40 -2 40 84l-4 164l-32 -32v-118q-15 12 -38 12q-59 0 -59 -72
q0 -47 36 -76q33 -27 78 -27q51 0 86.5 41.5t35.5 94.5zM246 805q32 -48 30 -50t-132 -46l-9 18z" />
    <glyph glyph-name="Icircumflex" unicode="&#xce;" horiz-adv-x="366" 
d="M335 680l-27 -27l-1 -522q0 -54 -47.5 -100.5t-100.5 -46.5h-44q-43 0 -79.5 36t-36.5 78q0 107 97 122v56l-35 36q14 13 38 39q-9 15 -39 39l35 38l1 194q-93 -40 -93 -78q0 -24 23 -36q20 -11 47 -9q-11 -10 -41 -38q-45 18 -42 85q2 26 32 53q38 34 75 68q13 13 10 13
h228zM246 624h-139v-196l32 -34v103v25q-2 5 -12 15zM139 386l-34 -34l34 -36q2 65 0 70zM246 131v478l-43 -34l-1 -427q0 -33 -11 -64q-17 -51 -55 -51q-77 0 -86 63q-1 4 4 5h7q3 -18 8 -25q10 -15 34 -16q40 -2 40 84l-4 164l-32 -32v-118q-15 12 -38 12q-59 0 -59 -72
q0 -47 36 -76q33 -27 78 -27q51 0 86.5 41.5t35.5 94.5zM211 754q-22 -13 -89 -42l-9 15l93 74l3 3l1 -1l1 1l2 -3l93 -74l-7 -15q-26 9 -53.5 24t-34.5 18z" />
    <glyph glyph-name="Idieresis" unicode="&#xcf;" horiz-adv-x="366" 
d="M335 680l-27 -27l-1 -522q0 -54 -47.5 -100.5t-100.5 -46.5h-44q-43 0 -79.5 36t-36.5 78q0 107 97 122v56l-35 36q14 13 38 39q-9 15 -39 39l35 38l1 194q-93 -40 -93 -78q0 -24 23 -36q20 -11 47 -9q-11 -10 -41 -38q-45 18 -42 85q2 26 32 53q38 34 75 68q13 13 10 13
h228zM246 624h-139v-196l32 -34v103v25q-2 5 -12 15zM139 386l-34 -34l34 -36q2 65 0 70zM246 131v478l-43 -34l-1 -427q0 -33 -11 -64q-17 -51 -55 -51q-77 0 -86 63q-1 4 4 5h7q3 -18 8 -25q10 -15 34 -16q40 -2 40 84l-4 164l-32 -32v-118q-15 12 -38 12q-59 0 -59 -72
q0 -47 36 -76q33 -27 78 -27q51 0 86.5 41.5t35.5 94.5zM243 727q-16 28 -41 48q19 15 25 21q9 10 19 28q13 -34 43 -50q-29 -11 -46 -47zM123 727q-16 28 -41 48q19 15 25 21q9 10 19 28q13 -34 43 -50q-29 -11 -46 -47z" />
    <glyph glyph-name="Igrave" unicode="&#xcc;" horiz-adv-x="366" 
d="M335 680l-27 -27l-1 -522q0 -54 -47.5 -100.5t-100.5 -46.5h-44q-43 0 -79.5 36t-36.5 78q0 107 97 122v56l-35 36q14 13 38 39q-9 15 -39 39l35 38l1 194q-93 -40 -93 -78q0 -24 23 -36q20 -11 47 -9q-11 -10 -41 -38q-45 18 -42 85q2 26 32 53q38 34 75 68q13 13 10 13
h228zM246 624h-139v-196l32 -34v103v25q-2 5 -12 15zM139 386l-34 -34l34 -36q2 65 0 70zM246 131v478l-43 -34l-1 -427q0 -33 -11 -64q-17 -51 -55 -51q-77 0 -86 63q-1 4 4 5h7q3 -18 8 -25q10 -15 34 -16q40 -2 40 84l-4 164l-32 -32v-118q-15 12 -38 12q-59 0 -59 -72
q0 -47 36 -76q33 -27 78 -27q51 0 86.5 41.5t35.5 94.5zM144 805q-31 -48 -30 -50q2 -2 133 -46l9 18z" />
    <glyph glyph-name="Oacute" unicode="&#xd3;" horiz-adv-x="408" 
d="M193 -12q-104 1 -161 129q-41 91 -41 180q0 185 123 251q3 8 0 17q-3 11 -11 12q-57 3 -73 14.5t-21 47.5q-2 20 19 35q18 14 34 14q21 0 37.5 -12t16.5 -28q0 -7 -4 -14q1 -1 6 -1q10 0 22 10.5t12 18.5q0 7 -5 9q-8 2 -9 4q0 14 10 14q14 0 14 -23q0 -37 -71 -47l-3 7
q10 3 10 25q0 20 -39 20q-35 0 -35 -32q0 -30 20 -39q9 -4 38 -4q23 0 31 2q14 4 42 24q2 1 55 56q81 -27 125 -131q40 -94 40 -218q0 -138 -47 -236q-52 -106 -135 -105zM292 429q5 16 -12 62q-20 55 -54 90v-151zM297 349l-1 39l-70 1v-40h71zM212 596l-34 28
q2 -70 0 -413q0 -20 1 -38q-81 -90 -81 -87q0 -24 33.5 -54t56.5 -30h24v594zM297 309h-72v-299q56 51 72 299zM114 219v317q-38 -18 -48 -113q-2 -21 -4 -115q-2 -142 31 -208q19 28 22 71q-1 -10 -1 48zM206 815q32 -48 30 -50t-132 -46l-9 18z" />
    <glyph glyph-name="Ocircumflex" unicode="&#xd4;" horiz-adv-x="408" 
d="M210 678q81 -27 125 -131q40 -94 40 -218q0 -138 -47 -236q-52 -106 -135 -105q-104 1 -161 129q-41 91 -41 180q0 185 123 251q3 8 0 17q-3 11 -11 12q-57 3 -73 14.5t-21 47.5q-2 20 19 35q18 14 34 14q21 0 37.5 -12t16.5 -28q0 -7 -4 -14q1 -1 6 -1q10 0 22 10.5
t12 18.5q0 7 -5 9q-8 2 -9 4q0 14 10 14q14 0 14 -23q0 -37 -71 -47l-3 7q10 3 10 25q0 20 -39 20q-35 0 -35 -32q0 -30 20 -39q9 -4 38 -4q23 0 31 2q14 4 42 24q2 1 55 56zM292 429q5 16 -12 62q-20 55 -54 90v-151zM297 349l-1 39l-70 1v-40h71zM212 2v594l-34 28
q2 -70 0 -413q0 -20 1 -38q-81 -90 -81 -87q0 -24 33.5 -54t56.5 -30h24zM297 309h-72v-299q56 51 72 299zM114 219v317q-38 -18 -48 -113q-2 -21 -4 -115q-2 -142 31 -208q19 28 22 71q-1 -10 -1 48zM151 754q-22 -13 -89 -42l-9 15l93 74l3 3l1 -1l1 1l2 -3l93 -74l-7 -15
q-26 9 -53.5 24t-34.5 18z" />
    <glyph glyph-name="Ograve" unicode="&#xd2;" horiz-adv-x="408" 
d="M193 -12q-104 1 -161 129q-41 91 -41 180q0 185 123 251q3 8 0 17q-3 11 -11 12q-57 3 -73 14.5t-21 47.5q-2 20 19 35q18 14 34 14q21 0 37.5 -12t16.5 -28q0 -7 -4 -14q1 -1 6 -1q10 0 22 10.5t12 18.5q0 7 -5 9q-8 2 -9 4q0 14 10 14q14 0 14 -23q0 -37 -71 -47l-3 7
q10 3 10 25q0 20 -39 20q-35 0 -35 -32q0 -30 20 -39q9 -4 38 -4q23 0 31 2q14 4 42 24q2 1 55 56q81 -27 125 -131q40 -94 40 -218q0 -138 -47 -236q-52 -106 -135 -105zM292 429q5 16 -12 62q-20 55 -54 90v-151zM297 349l-1 39l-70 1v-40h71zM212 596l-34 28
q2 -70 0 -413q0 -20 1 -38q-81 -90 -81 -87q0 -24 33.5 -54t56.5 -30h24v594zM297 309h-72v-299q56 51 72 299zM114 219v317q-38 -18 -48 -113q-2 -21 -4 -115q-2 -142 31 -208q19 28 22 71q-1 -10 -1 48zM124 805q-31 -48 -30 -50q2 -2 133 -46l9 18z" />
    <glyph glyph-name="Uacute" unicode="&#xda;" horiz-adv-x="422" 
d="M423 72l-66 -71l-51 52l-69 -52q-203 -4 -203 0t24 19q28 19 43 38q24 29 24 65v410q0 9 -21 15l69 72q-44 -1 -61 -1q-43 0 -54 -3q-41 -11 -41 -56q0 -17 13.5 -27t28.5 -10q31 0 31 -2q0 -10 -35 -44q-40 16 -51 43q-5 12 -5 43q0 38 90 118l147 1q-21 -30 -50 -79
l-1 -468l5 -1q15 13 36 34l2 410q-12 11 -12 27q0 20 19 20q21 0 21 -19q0 -11 -8 -17t-8 -11v-310v-2q14 17 57 49l-1 262q0 23 -11.5 35t-11.5 11q0 1 23.5 24.5t29.5 32.5q19 -22 56 -55q-7 -9 -14 -19.5t-9 -25.5l1 -488l28 -36l27 27zM296 227l1 70q-15 -14 -57 -45
q-2 -73 0 -75q15 13 56 50zM294 77l-1 46l1 82q-55 -37 -54 -44v-99l44 1q6 0 10 14zM224 62l1 87l-101 -87h100zM113 378l-19 -26l-20 25l-26 18l25 21l18 25l21 -24l25 -19zM113 289l-19 -25l-20 24l-26 18l25 21l18 25l21 -24l25 -18zM256 805q32 -48 30 -50t-132 -46
l-9 18z" />
    <glyph glyph-name="Ucircumflex" unicode="&#xdb;" horiz-adv-x="422" 
d="M423 72l-66 -71l-51 52l-69 -52q-203 -4 -203 0t24 19q28 19 43 38q24 29 24 65v410q0 9 -21 15l66 70q-41 1 -58 1q-43 0 -54 -3q-41 -11 -41 -56q0 -17 13.5 -27t28.5 -10q31 0 31 -2q0 -10 -35 -44q-40 16 -51 43q-5 12 -5 43q0 38 90 118l147 1q-21 -30 -50 -79
l-1 -468l5 -1q15 13 36 34l2 410q-12 11 -12 27q0 20 19 20q21 0 21 -19q0 -11 -8 -17t-8 -11v-310v-2q14 17 57 49l-1 262q0 23 -11.5 35t-11.5 11q0 1 23.5 24.5t29.5 32.5q19 -22 56 -55q-7 -9 -14 -19.5t-9 -25.5l1 -488l28 -36l27 27zM296 227l1 70q-15 -14 -57 -45
q-2 -73 0 -75q15 13 56 50zM294 77l-1 46l1 82q-55 -37 -54 -44v-99l44 1q6 0 10 14zM224 62l1 87l-101 -87h100zM113 378l-19 -26l-20 25l-26 18l25 21l18 25l21 -24l25 -19zM113 289l-19 -25l-20 24l-26 18l25 21l18 25l21 -24l25 -18zM221 754q-22 -13 -89 -42l-9 15
l93 74l3 3l1 -1l1 1l2 -3l93 -74l-7 -15q-26 9 -53.5 24t-34.5 18z" />
    <glyph glyph-name="Ugrave" unicode="&#xd9;" horiz-adv-x="422" 
d="M423 72l-66 -71l-51 52l-69 -52q-203 -4 -203 0t24 19q28 19 43 38q24 29 24 65v410q0 9 -21 15l69 72q-46 -2 -63 -2q-44 0 -53 -3q-40 -10 -40 -55q0 -17 13.5 -27t28.5 -10q31 0 31 -2q0 -10 -35 -44q-40 16 -51 43q-5 12 -5 43q0 38 90 118l147 1q-21 -30 -50 -79
l-1 -468l5 -1q15 13 36 34l2 410q-12 11 -12 27q0 20 19 20q21 0 21 -19q0 -11 -8 -17t-8 -11v-310v-2q14 17 57 49l-1 262q0 23 -11.5 35t-11.5 11q0 1 23.5 24.5t29.5 32.5q19 -22 56 -55q-7 -9 -14 -19.5t-9 -25.5l1 -488l28 -36l27 27zM296 227l1 70q-15 -14 -57 -45
q-2 -73 0 -75q15 13 56 50zM294 77l-1 46l1 82q-55 -37 -54 -44v-99l44 1q6 0 10 14zM224 62l1 87l-101 -87h100zM113 378l-19 -26l-20 25l-26 18l25 21l18 25l21 -24l25 -19zM113 289l-19 -25l-20 24l-26 18l25 21l18 25l21 -24l25 -18zM164 805q-31 -48 -30 -50
q2 -2 133 -46l9 18z" />
    <glyph glyph-name="circumflex" unicode="&#x2c6;" horiz-adv-x="218" 
d="M111 544q-20 -13 -79 -39l-8 15l83 66l2 3l1 -1l1 1l2 -3l83 -66l-8 -15q-23 8 -47 22.5t-30 16.5z" />
    <glyph glyph-name="tilde" unicode="&#x2dc;" horiz-adv-x="214" 
d="M139 502q-11 0 -33.5 8.5t-34.5 8.5q-16 0 -30 -17q-1 2 -4.5 4t-6.5 4q17 41 56 41q11 0 30.5 -8.5t27.5 -8.5q15 0 33 15l10 -8q-19 -39 -48 -39z" />
    <glyph glyph-name="macron" unicode="&#xaf;" horiz-adv-x="229" 
d="M194 520h-180v34h180v-34z" />
    <glyph glyph-name="macron" unicode="&#x2c9;" horiz-adv-x="229" 
d="M194 520h-180v34h180v-34z" />
    <glyph glyph-name="cedilla" unicode="&#xb8;" horiz-adv-x="179" 
d="M76 1l-4 -29q6 5 17 5q46 0 46 -61q0 -24 -19 -41.5t-43 -17.5q-18 0 -48 20l3 14q19 -13 31 -13t26.5 12.5t14.5 24.5v17q0 22 -19 22q-15 0 -28 -12l8 59h15z" />
    <glyph glyph-name="Scaron" unicode="&#x160;" 
 />
    <glyph glyph-name="scaron" unicode="&#x161;" 
 />
    <glyph glyph-name="brokenbar" unicode="&#xa6;" 
 />
    <glyph glyph-name="Eth" unicode="&#xd0;" 
 />
    <glyph glyph-name="eth" unicode="&#xf0;" 
 />
    <glyph glyph-name="Yacute" unicode="&#xdd;" 
 />
    <glyph glyph-name="yacute" unicode="&#xfd;" 
 />
    <glyph glyph-name="Thorn" unicode="&#xde;" 
 />
    <glyph glyph-name="thorn" unicode="&#xfe;" 
 />
    <glyph glyph-name="minus" unicode="&#xad;" 
 />
    <glyph glyph-name="minus" unicode="&#x2212;" 
 />
    <glyph glyph-name="multiply" unicode="&#xd7;" 
 />
    <glyph glyph-name="onesuperior" unicode="&#xb9;" 
 />
    <glyph glyph-name="twosuperior" unicode="&#xb2;" 
 />
    <glyph glyph-name="threesuperior" unicode="&#xb3;" 
 />
    <glyph glyph-name="onehalf" unicode="&#xbd;" horiz-adv-x="21" 
 />
    <glyph glyph-name="onequarter" unicode="&#xbc;" 
 />
    <glyph glyph-name="threequarters" unicode="&#xbe;" 
 />
    <glyph glyph-name="Lslash" unicode="&#x141;" 
 />
    <glyph glyph-name="lslash" unicode="&#x142;" 
 />
    <glyph glyph-name="HT" 
 />
    <glyph glyph-name="LF" 
 />
    <glyph glyph-name="nonmarkingreturn" 
 />
    <glyph glyph-name="Zcaron" unicode="&#x17d;" 
 />
    <glyph glyph-name="zcaron" unicode="&#x17e;" 
 />
    <glyph glyph-name="DLE" 
 />
    <glyph glyph-name="DC1" 
 />
    <glyph glyph-name="DC2" 
 />
    <glyph glyph-name="DC3" 
 />
    <glyph glyph-name="DC4" 
 />
    <glyph glyph-name="RS" 
 />
    <glyph glyph-name="US" 
 />
    <glyph glyph-name="notequal" unicode="&#x2260;" horiz-adv-x="19" 
 />
    <glyph glyph-name="infinity" unicode="&#x221e;" 
 />
    <glyph glyph-name="lessequal" unicode="&#x2264;" 
 />
    <glyph glyph-name="greaterequal" unicode="&#x2265;" 
 />
    <glyph glyph-name="partialdiff" unicode="&#x2202;" horiz-adv-x="201" 
d="M104 125q0 -27 4 -39t20 -32q-1 2 -22 -20q-23 -25 -29 -49q-9 23 -33 45q-13 11 -25 21q6 0 14 19q10 23 11 52q1 26 2 88l-47 -42v35l47 42v133v114q-1 55 -1 50q6 13 -7 52q-11 34 -22 50q-4 3 0 3q11 0 32 -26q18 -21 21 -27q11 45 36 74q30 36 72 32l-1 -5
q-36 -20 -56 -67q-16 -39 -16 -84v-247l65 58v-34l-65 -59v-137z" />
    <glyph glyph-name="summation" unicode="&#x2211;" horiz-adv-x="355" 
d="M312 229q0 -102 -110 -193q-8 -6 -16 -20.5t-14 -14.5h-169q-7 0 -7 3q0 6 73 73t74 86q1 23 -24 35q-46 20 -50 23q-28 22 -32 68q-4 48 34 85q-6 13 -49 26q1 3 13 16q9 11 9 17l2 121l-42 24q-14 11 -14 41q0 55 62 55q10 0 26 -16.5t31 -16.5q38 0 38 24q0 1 -4 9
q-4 -8 -14 -8q-13 0 -13 9q0 17 19 17q10 0 17 -9.5t7 -17.5q0 -37 -45 -37q-17 0 -35.5 17t-34.5 17q-18 0 -29.5 -14.5t-11.5 -32.5q0 -43 48 -43q45 0 92 38q40 33 70 85l3 4q11 -17 31 -42q16 -20 16 -21q0 6 -29 -36.5t-29 -80.5q0 -57 45 -57q14 0 22.5 12t8.5 24
q0 32 -28 32q-20 0 -20 -20q0 -4 4 -8q9 13 13 13q3 0 8 -5t5 -8q0 -15 -17 -15q-23 0 -23 24q0 29 31 29q16 0 28 -12t12 -27q0 -21 -15.5 -35.5t-35.5 -14.5q-23 0 -38 22t-15 46q0 22 8.5 42.5t8.5 19.5q0 11 -12.5 24.5t-19.5 13.5q-15 -1 -17 -15l1 -149q0 -4 -1 -30
q-1 -16 5 -17q77 -10 116 -68q33 -47 33 -111zM147 466l-1 129l-38 -26l3 -112q0 -50 32 -49q4 9 4 58zM248 241q0 40 -22 88q-27 59 -67 66l2 -144q-1 -6 8 -19q12 -16 13 -17l-14 -12q-11 -10 -11 -18v-27q91 68 91 83zM147 396q-11 3 -9 3q-40 0 -66 -43q-21 -35 -21 -68
q0 -22 14 -43q17 -24 44 -24q28 0 36 34zM248 203q0 8 -2 13q-4 -4 -62 -51q-27 -21 -27 -48v-52h52q19 18 30 65q9 39 9 73zM143 64q2 2 1 31q0 29 -1 31l-68 -63q30 -1 49 0q24 1 19 1zM129 760q24 17 98 49l10 -19l-106 -79l-1 1l-2 -1l-19 14l-87 65l10 19
q28 -9 58 -27.5t39 -21.5z" />
    <glyph glyph-name="product" unicode="&#x220f;" horiz-adv-x="241" 
d="M215 436q0 -24 -21.5 -40t-41.5 -16q-24 0 -73 36q1 -83 0 -122q8 -19 17 -24q1 0 13 -2q16 -1 32 25q10 18 20 35q10 -23 32 -47l18 -18l-9 -11t-8 -33v-214q-4 3 -30 23q-15 13 -30 13q-16 0 -32 -23q-9 -16 -18 -33q-2 20 -5 40q-6 30 -33 30q-17 0 -21 -10
q-1 -2 -4 -24q-2 -11 3 -21q3 -5 5 -11q-10 -1 -11 0q-10 17 -10 40q0 26 16 46.5t41 20.5q32 0 44 -16l10 -26q16 -1 16 2v161q0 38 -26 38q-20 0 -53 -59q-16 37 -49 68l20 26v184q35 -40 52 -40q13 0 33 28q10 16 20 33l12 -44q13 -36 35 -36t22 27q0 19 -7 30q-4 4 -8 9
q1 3 5 5q10 -2 17 -19t7 -31zM109 560q20 13 79 39l8 -15l-83 -66l-2 -3l-1 1l-1 -1l-2 3l-83 66l8 15q22 -8 46 -22.5t31 -16.5z" />
    <glyph glyph-name="pi" unicode="&#x3c0;" horiz-adv-x="376" 
d="M337 629q-19 -27 -24 -55v-577q-52 56 -61 56l-96 1q-62 -56 -58 -99q2 -35 39 -55q27 -15 55 -15q3 0 67 1l52 -68h-107q-46 0 -86 34q-43 36 -43 84q0 25 10.5 50.5t10.5 23.5q0 7 -21 27q-12 11 -23 21q18 18 19.5 35t3.5 33q-1 77 0 208q1 153 1 208q-75 15 -75 85
q0 23 14 41q18 23 49 25l2 -8q-19 -7 -19 -32t20 -39.5t44 -14.5h10.5h15.5v-513q0 -7 9.5 -13.5t12.5 -6.5q2 0 6.5 1.5t5.5 1.5l4 -2l-1 562l-14 14q-3 4 -3 14q0 26 23 26q9 0 17.5 -9t8.5 -18q0 -16 -18 -27v-211q-1 0 61 0v159q-1 10 -2 21q-4 20 -13 29q-1 0 16 20
q21 24 29 46q11 -25 58 -64zM248 340v37q-28 1 -62 1l1 -37h36zM251 66v229q-53 -1 -65 0v-229h65zM69 378l-19 -26l-20 25l-26 18l25 21l18 25l21 -24l25 -19zM69 289l-19 -25l-20 24l-26 18l25 21l18 25l21 -24l25 -18zM236 805q32 -48 30 -50t-132 -46l-9 18z" />
    <glyph glyph-name="integral" unicode="&#x222b;" horiz-adv-x="237" 
d="M188 365v-249q0 -79 -1 -80q1 -21 -2 -52q-13 -26 -29 -32q-27 -10 -106 -10q-45 0 -45 -37q0 -30 94 -30h35q26 4 26 23q0 6 -4 21q23 0 23 -33q0 -26 -18 -40.5t-39 -14.5l-47 -1q-36 0 -61 18t-25 53q1 40 27 52q10 4 55 6q37 2 53 19q7 6 7 74v63l1 263q-1 37 -26 37
q-24 0 -24 -47v-252q-3 -31 19 -62l-48 -58l-51 60q22 27 22 60v260q0 3 -5 16q-8 18 -19 30q15 4 33 23.5t24 37.5q4 -11 20 -31q19 -24 31 -24q11 0 34 26q11 15 22 29q19 -41 53 -61q-29 -21 -29 -57zM141 599q27 -42 26 -44q-2 -2 -115 -40l-8 15z" />
    <glyph glyph-name="Omega" unicode="&#x3a9;" horiz-adv-x="278" 
d="M26 337q0 19 1 39h-25v31h26q8 115 41.5 194t74.5 79q48 0 81 -152l-19 -2q-5 0 -6 4v0q-11 56 -27 90.5t-31 34.5q-41 0 -50 -248h78l-2 -34h-77q0 -6 1 -17v-17v-2h78v-34h-77q5 -280 52 -280q17 0 35.5 35.5t27.5 96.5q4 0 26 -9q-32 -157 -90 -157q-45 0 -79.5 92.5
t-38.5 221.5h-24v34h24z" />
    <glyph glyph-name="Omega" unicode="&#x2126;" horiz-adv-x="278" 
d="M26 337q0 19 1 39h-25v31h26q8 115 41.5 194t74.5 79q48 0 81 -152l-19 -2q-5 0 -6 4v0q-11 56 -27 90.5t-31 34.5q-41 0 -50 -248h78l-2 -34h-77q0 -6 1 -17v-17v-2h78v-34h-77q5 -280 52 -280q17 0 35.5 35.5t27.5 96.5q4 0 26 -9q-32 -157 -90 -157q-45 0 -79.5 92.5
t-38.5 221.5h-24v34h24z" />
    <glyph glyph-name="radical" unicode="&#x221a;" 
 />
    <glyph glyph-name="approxequal" unicode="&#x2248;" 
 />
    <glyph glyph-name="approxequal" unicode="&#x22f2;" 
 />
    <glyph glyph-name="Delta" unicode="&#x394;" 
 />
    <glyph glyph-name="Delta" unicode="&#x2206;" 
 />
    <glyph glyph-name="lozenge" unicode="&#x25ca;" 
 />
    <glyph glyph-name="fraction" unicode="&#x2044;" horiz-adv-x="19" 
 />
    <glyph glyph-name="fi" unicode="&#xf001;" horiz-adv-x="8" 
 />
    <glyph glyph-name="fl" unicode="&#xf002;" horiz-adv-x="5" 
 />
    <glyph glyph-name="apple" unicode="&#xf000;" horiz-adv-x="13" 
 />
    <glyph glyph-name="dotlessi" unicode="&#x131;" horiz-adv-x="125" 
d="M100 422q-21 -18 -21 -41v-285q4 -26 23 -44q-29 -18 -48 -61q-24 44 -50 60q21 17 26 45v282q-4 24 -25 42q31 27 46 62q15 -42 49 -60z" />
    <glyph glyph-name="breve" unicode="&#x2d8;" horiz-adv-x="241" 
d="M22 551q39 -52 86 -59q44 13 85 59q2 3 -13 13q-54 -33 -72 -31q-25 -4 -76 34z" />
    <glyph glyph-name="dotaccent" unicode="&#x2d9;" horiz-adv-x="166" 
d="M37 557q0 19 13 33t31 14q19 0 31.5 -14.5t12.5 -32.5q0 -20 -12.5 -34t-31.5 -14t-31.5 14t-12.5 34z" />
    <glyph glyph-name="ring" unicode="&#x2da;" horiz-adv-x="214" 
d="M103 598q20 0 34.5 -14t14.5 -34t-14.5 -34t-34.5 -14t-34.5 14t-14.5 34t14.5 34t34.5 14zM103 578q-29 0 -29 -28t29 -28t29 28t-29 28z" />
    <glyph glyph-name="hungarumlaut" unicode="&#x2dd;" horiz-adv-x="301" 
d="M66 492l-12 13l36 70q14 25 28 25q26 0 26 -33q0 -20 -31 -42zM156 492l-12 13l38 70q13 25 27 25q25 0 25 -33q0 -20 -31 -42z" />
    <glyph glyph-name="ogonek" unicode="&#x2db;" horiz-adv-x="206" 
d="M94 0l19 -2q-25 -37 -25 -92q0 -44 27 -44q18 0 42 20l8 -16q-29 -57 -65 -57q-26 0 -40 28q-11 22 -11 51q0 59 45 112z" />
    <glyph glyph-name="caron" unicode="&#x2c7;" horiz-adv-x="241" 
d="M109 560q20 13 79 39l8 -15l-83 -66l-2 -3l-1 1l-1 -1l-2 3l-83 66l8 15q22 -8 46 -22.5t31 -16.5z" />
  </font>
</defs>
</svg>
