<?xml version="1.0" standalone="no"?>
<!DOCTYPE svg PUBLIC "-//W3C//DTD SVG 1.1//EN" "http://www.w3.org/Graphics/SVG/1.1/DTD/svg11.dtd" >
<svg>
<metadata>
Created by FontForge 20120731 at Mon Apr 15 12:05:59 2019
 By www-data
Digitized by Dan X. Solo. Software (c) 1999 by Dover Publications, Inc., New York.
</metadata>
<defs>
<font id="Durwent" horiz-adv-x="20" >
  <font-face 
    font-family="Durwent"
    font-weight="400"
    font-stretch="normal"
    units-per-em="1000"
    panose-1="0 0 4 0 0 0 0 0 0 0"
    ascent="800"
    descent="-200"
    x-height="462"
    cap-height="686"
    bbox="-81 -267 1558 845.667"
    underline-thickness="20"
    underline-position="-123"
    unicode-range="U+0020-25CA"
  />
<missing-glyph horiz-adv-x="500" 
d="M63 0v800h375v-800h-375zM125 63h250v675h-250v-675z" />
    <glyph glyph-name=".notdef" horiz-adv-x="500" 
d="M63 0v800h375v-800h-375zM125 63h250v675h-250v-675z" />
    <glyph glyph-name="glyph1" horiz-adv-x="0" 
 />
    <glyph glyph-name="glyph2" horiz-adv-x="192" 
 />
    <glyph glyph-name="space" unicode=" " horiz-adv-x="192" 
 />
    <glyph glyph-name="exclam" unicode="!" horiz-adv-x="230" 
d="M42 557q-2 36 -26 54q-9 7 -9 15q0 5 7 7q59 18 80 27q16 7 65 36q9 6 18 -3q6 -10 6 -15q0 -2 -14.5 -18t-16.5 -49l-27 -442q-25 2 -53 1zM34 53q4 -18 25 -38t41 -25q21 9 35 24q17 19 34 39q-30 49 -68 61q-12 -2 -32 -18q-23 -19 -35 -43z" />
    <glyph glyph-name="quotedbl" unicode="&#x22;" horiz-adv-x="178" 
d="M147 515q-6 -8 -14 -8t-13 9l-15 159q-4 13 7 22t26 9q30 0 30 -31q1 -3 -21 -160zM57 515q-6 -8 -14 -8t-13 8l-17 163q-3 29 29 29q29 0 29 -32q1 -3 -14 -160z" />
    <glyph glyph-name="numbersign" unicode="#" horiz-adv-x="422" 
d="M134 230h108q12 49 35 160h-107zM372 230l-17 -65h-83q-13 -52 -38 -165l-44 -1q7 31 19.5 83.5t18.5 82.5h-108l-38 -165l-42 -1l38 166l-81 1l18 64h76l36 160h-87l16 61l81 -1l28 140l45 1l-30 -141h107q9 48 26 142h44q0 3 1 3q1 -1 1 -3h-2v-3q-8 -47 -26 -139h83
l-14 -60h-79q-11 -49 -36 -160h87z" />
    <glyph glyph-name="dollar" unicode="$" horiz-adv-x="447" 
d="M163 458q-39 26 -63 26q-14 0 -28 -17t-14 -31q0 -59 105 -66v88zM203 127q45 7 76.5 37.5t31.5 73.5q0 33 -3 39q-9 15 -49 15q-11 2 -56 -2v-163zM417 257q0 -80 -67 -127q-57 -39 -146 -47v-82q0 -3 -40 0v80q-55 2 -108 34q-60 37 -60 86q0 61 66 61q12 0 40 -19
q-27 -25 -26 -44q1 -30 30 -51q24 -17 58 -21v159q-66 -3 -100 14q-47 24 -44 90q2 60 44 105t99 48v52q38 3 38 0v-56q4 -1 53 -20q33 -12 53 -12q7 0 33 22q14 -12 14 -18q0 -30 -32.5 -59.5t-63.5 -29.5q-26 0 -56 14v-64q81 9 106 9q50 0 79.5 -36.5t29.5 -87.5z" />
    <glyph glyph-name="percent" unicode="%" horiz-adv-x="629" 
d="M607 165q0 -41 -37.5 -98t-72.5 -67q-13 -4 -32 -4q-50 0 -93.5 47t-43.5 103q0 69 41 132q45 68 104 68q56 0 97 -60q37 -55 37 -121zM565 130q0 44 -49 97t-89 53q-23 0 -39 -22.5t-16 -49.5q0 -45 52.5 -95t93.5 -50q18 0 32.5 22.5t14.5 44.5zM287 415
q0 -41 -37.5 -98t-72.5 -67q-13 -4 -32 -4q-50 0 -93.5 47t-43.5 103q0 69 41 132q45 68 104 68q56 0 97 -60q37 -55 37 -121zM245 380q0 44 -49 97t-89 53q-23 0 -39 -22.5t-16 -49.5q0 -45 52.5 -95t93.5 -50q18 0 32.5 22.5t14.5 44.5zM490 593l-313 -592q0 3 -43 3
l314 588z" />
    <glyph glyph-name="ampersand" unicode="&#x26;" horiz-adv-x="714" 
d="M684 14q-9 0 -25 17q-11 13 -22 25q-35 33 -107 33q-51 0 -121 -50.5t-119 -50.5q-86 0 -197 103t-111 188q0 95 98 149q22 6 64 22q-17 11 -51 42t-51 42q25 14 32 21q1 1 22 27q54 66 67 77q37 30 101 30t119 -31q51 -31 102 -61q34 -17 65 -17q18 0 27 21.5t24 21.5
q27 0 27 -25t-27 -38q-21 -11 -49 -11q-58 0 -123 20q-108 34 -135 34q-100 0 -128 -115q4 1 15 -12t22 -15q18 0 53.5 -2.5t42.5 -11.5q3 -4 0 -36q-3 -35 -13 -52q-6 1 -17 2q-3 0 -17 1q-35 2 -66 -3q-112 -20 -125 -133q-5 -41 61 -101.5t110 -60.5q16 0 51 22
q25 16 49 32q84 53 161 48l-71 46q20 21 20 54q0 34 -29 81l8 15q28 -17 70 -17q24 0 71 7t71 7q-7 0 16 0q8 0 15 -1l14 -19q-13 -26 -48 -26q-6 1 -19 1q-46 0 -46 -69q0 -50 20 -79q13 -19 48 -42q39 -26 55 -44q11 -12 13.5 -18.5t2.5 -25.5z" />
    <glyph glyph-name="quotesingle" unicode="'" horiz-adv-x="104" 
d="M67 515q-6 -8 -14 -8t-13 8l-17 163q-3 29 29 29q29 0 29 -32q1 -3 -14 -160z" />
    <glyph glyph-name="parenleft" unicode="(" horiz-adv-x="225" 
d="M149 704q-40 -80 -81 -159q-67 -145 -66 -220q1 -82 30 -162q22 -62 106 -231h37q-25 94 -51 187q-31 125 -30 197q1 57 29.5 167t57.5 218z" />
    <glyph glyph-name="parenright" unicode=")" horiz-adv-x="225" 
d="M65 704q40 -80 81 -159q67 -145 66 -220q-1 -82 -30 -162q-22 -62 -106 -231h-37q25 94 51 187q31 125 30 197q-1 57 -29.5 167t-57.5 218z" />
    <glyph glyph-name="asterisk" unicode="*" horiz-adv-x="327" 
d="M163 523q-27 -16 -37.5 -30t-21.5 -27.5t-27 -13.5q-31 0 -31 30q0 32 57 36q23 2 52 19q-14 8 -46 19q-34 4 -40 6q-23 8 -23 31q0 29 31 29q20 0 44 -34q13 -20 42 -36v11q0 21 -11.5 46t-11.5 35q0 34 31 34q14 0 23 -10.5t9 -23.5q0 -10 -13 -37q-10 -21 -10 -56
q14 9 38 31q10 14 21 27t27 13q30 0 30 -29q0 -32 -56 -37q-24 -2 -52 -19q27 -16 46 -18q33 -4 40 -7q22 -8 22 -31q0 -28 -28 -28q-21 0 -46 34q-13 19 -42 36v-12q0 -20 11 -45t11 -35q0 -34 -31 -34t-31 33q0 10 13 38q10 21 10 55z" />
    <glyph glyph-name="plus" unicode="+" horiz-adv-x="482" 
d="M49 306h136q0 69 2 143l61 -2v-139h95q49 1 41 1q1 0 2 -32q0 -32 -1 -32h-137v-149h-61v149h-138v61z" />
    <glyph glyph-name="comma" unicode="," horiz-adv-x="197" 
d="M97 -8q-19 5 -42 29.5t-27 43.5q3 8 31.5 36t37.5 29q14 -4 39 -28q22 -22 35 -43q-26 -81 -108 -185q-22 -4 -26 20q26 26 36.5 44t20.5 54h3z" />
    <glyph glyph-name="hyphen" unicode="-" horiz-adv-x="201" 
d="M5 296q0 -1 -8 -20.5t-6 -19.5h164q2 0 8 20t4 20h-162z" />
    <glyph glyph-name="hyphen" unicode="&#x2010;" horiz-adv-x="201" 
d="M5 296q0 -1 -8 -20.5t-6 -19.5h164q2 0 8 20t4 20h-162z" />
    <glyph glyph-name="period" unicode="." horiz-adv-x="191" 
d="M28 65q4 -19 27 -43.5t42 -29.5q17 13 31 25q32 29 40 48q-12 20 -34 40.5t-37 24.5q-9 -1 -37.5 -29t-31.5 -36z" />
    <glyph glyph-name="slash" unicode="/" horiz-adv-x="260" 
d="M233 675l-216 -674h43l219 674h-46z" />
    <glyph glyph-name="zero" unicode="0" horiz-adv-x="552" 
d="M514 279q0 -90 -72 -187q-76 -104 -162 -104q-70 0 -138 69q-60 60 -86 135q0 -2 -1 0q-15 84 -15 118l1 1q4 52 38 139q-1 -1 -1 -2q1 4 3 7l-1 -3l-1 -2l2 3q25 53 83 98q62 49 116 49t97 -29q137 -92 137 -292zM435 220q0 75 -42 159q-61 122 -174 122q-50 0 -80 -40
q-27 -36 -27 -89q0 -81 69 -179q73 -106 149 -106q45 0 76 44q29 41 29 89z" />
    <glyph glyph-name="one" unicode="1" horiz-adv-x="379" 
d="M297 60l-3 -23l-7.5 3t-17.5 3q-36 0 -94 -33q-23 -16 -59 -37q-5 -2 -6 8q-1 11 1 13q47 33 47 98v336q0 43 -45 43q-13 0 -29 -3q-3 -1 -4 5q-1 5 0 12q0 3 1 7q115 68 140 90q8 4 17 1q5 1 11 -11q13 -24 14 -26v-460q0 -4 17 -21q3 -3 11 -4z" />
    <glyph glyph-name="two" unicode="2" horiz-adv-x="453" 
d="M352 10q-10 -6 -37 -13.5t-38 -7.5q-16 0 -26 5q-19 10 -24 12q-52 19 -110 19q-28 0 -70 -15q-37 -12 -39 -12q-3 0 -8 2v2q-3 5 -3 8t44 45q33 30 103 97q48 47 96 93q62 68 62 109q0 60 -37.5 95t-96.5 35q-67 0 -138 -103l-14 4q3 5 3 10q0 79 53.5 137.5t132.5 58.5
q82 0 131 -56q46 -52 46 -134q0 -70 -72 -143q-27 -28 -89 -75t-90 -74q31 5 56 5q39 0 76.5 -14.5t56.5 -14.5q24 0 32.5 4t26.5 24q5 12 15 30q16 -7 16 -6q0 -16 -21 -65q-22 -52 -37 -62z" />
    <glyph glyph-name="three" unicode="3" horiz-adv-x="485" 
d="M193 -13q-72 0 -130 49q-61 52 -61 123q0 16 10 32.5t25 16.5q23 0 37 -14.5t14 -35.5q0 -13 -6 -25q9 -111 130 -111q60 0 98 47q35 44 35 104q0 63 -40 100q-39 34 -99 34q-14 0 -29 -2v26q105 3 105 101q0 44 -29 70.5t-73 26.5q-50 0 -72 -15q-18 -12 -49 -56l-18 5
l-2 3q0 54 55 96q51 39 106 39q81 0 129 -35q56 -41 56 -120q0 -53 -27 -76q-8 -7 -67 -34h13q67 1 107 -45q37 -44 37 -113q0 -99 -82 -149q-67 -42 -173 -42z" />
    <glyph glyph-name="four" unicode="4" horiz-adv-x="537" 
d="M419 605q-1 -28 -1 -358q40 -1 75 0q-7 -19 -17 -49q-7 -23 -12 -28q-10 -8 -43 -6l-1 -97q0 -9 20 -18l20 -9q0 -26 -9 -23q-20 6 -47 6q-20 -1 -45 -9q-6 -2 -37 -18q-19 -9 -40 -9q-3 0 -10 -2t-11 -1q-8 9 0 21q20 16 39 32q16 18 16 47v80h-311q-7 6 2 15
q62 101 90 167q36 83 52 179q57 29 132 77q4 1 5 0q-30 -117 -212 -357l249 1v288q63 42 96 71z" />
    <glyph glyph-name="five" unicode="5" horiz-adv-x="490" 
d="M438 222q-4 95 -54 149.5t-128 54.5q-68 0 -146 -57v130l49 -11q47 0 128 34q92 38 92 77q0 10 -13 10q-20 0 -64 -13.5t-68 -13.5q-31 0 -74 12q-58 15 -73 18l-23 -15q4 -55 1 -140q-4 -118 -4 -140q0 -14 16 -14q4 0 46.5 26t92.5 26q60 0 94 -47q31 -43 31 -105
q0 -67 -30 -119q-35 -62 -98 -62q-72 0 -100 35q-25 30 -25 101q0 21 -15 35.5t-36 14.5q-16 0 -25.5 -16t-9.5 -33q0 -78 67 -127q61 -46 141 -46q98 0 165.5 72t62.5 164z" />
    <glyph glyph-name="six" unicode="6" horiz-adv-x="509" 
d="M219 -7q-97 0 -158 100q-51 85 -51 189q0 129 70 220q76 99 202 99q22 0 59 -15q44 -17 44 -34q0 -11 -13.5 -39t-22.5 -28q-2 0 -44 29.5t-77 29.5q-70 0 -114 -65q-39 -58 -39 -131q0 -91 49 -167q56 -88 143 -88q56 0 96.5 37.5t42.5 94.5q4 112 -122 112
q-65 0 -65 -80q0 -22 18 -37l-14 -15q-48 19 -48 81q0 54 38 98.5t92 44.5q76 0 117 -60q34 -51 34 -132q0 -91 -73.5 -167.5t-163.5 -76.5z" />
    <glyph glyph-name="seven" unicode="7" horiz-adv-x="522" 
d="M446 514q-139 -184 -140 -185q-91 -131 -91 -192q0 -27 16 -51q19 -27 48 -27q13 0 22 3q7 -4 7 -11q0 -29 -28 -52.5t-60 -23.5q-37 0 -71 28.5t-35 71.5q-2 96 74 201q29 39 93 102q73 71 96 98q-7 2 -12 2q-9 0 -33.5 -13t-50.5 -13q-35 0 -84 20q-63 24 -88 24
q-47 0 -77 -58q-9 -8 -20 0q-4 9 -4 18q0 45 49.5 90.5t100.5 45.5q35 0 101.5 -21.5t101.5 -21.5q32 0 58 15.5t51 31.5q17 -7 17 -16q0 -10 -41 -66z" />
    <glyph glyph-name="eight" unicode="8" horiz-adv-x="453" 
d="M200 -8q-68 0 -133 53q-71 58 -71 133q0 50 24 95t67 72q-42 52 -42 96q0 68 44 108.5t112 40.5q63 0 113 -31q57 -36 57 -93q0 -67 -64 -110q4 -5 16 -12q34 -21 60 -58q32 -46 32 -94q0 -81 -65 -140.5t-150 -59.5zM150 544q-20 2 -32.5 -13t-12.5 -40q0 -30 21 -44
q12 -8 70 -40q62 -34 69 -34q50 -5 50 59q0 39 -66 76q-54 31 -99 36zM269 249q-18 12 -77 43q-66 35 -75 35q-21 0 -41 -35q-18 -31 -18 -52q0 -65 73 -126q69 -57 134 -57q-5 0 26 6q51 10 59 71q3 23 -30 64q-28 36 -51 51z" />
    <glyph glyph-name="nine" unicode="9" horiz-adv-x="509" 
d="M236 587q112 0 175 -112q49 -85 46 -167q-5 -129 -78 -218q-80 -97 -206 -97q-21 0 -68 17q-52 19 -52 36q0 11 17 37t27 26q2 0 49 -29.5t82 -29.5q70 0 119 65q44 59 44 131q0 91 -49 167q-56 88 -143 88q-57 0 -100.5 -38t-45.5 -94q-2 -58 38 -87q35 -25 90 -25
q66 0 66 80q0 22 -18 37l14 15q47 -19 47 -81q0 -54 -37.5 -98.5t-91.5 -44.5q-76 0 -114 63q-32 52 -32 135q0 91 65 157.5t156 66.5z" />
    <glyph glyph-name="colon" unicode=":" horiz-adv-x="213" 
d="M28 335q4 -19 27 -43.5t42 -29.5q17 13 31 25q32 29 40 48q-12 20 -34 40.5t-37 24.5q-9 -1 -37.5 -29t-31.5 -36zM28 65q4 -19 27 -43.5t42 -29.5q17 13 31 25q32 29 40 48q-12 20 -34 40.5t-37 24.5q-9 -1 -37.5 -29t-31.5 -36z" />
    <glyph glyph-name="semicolon" unicode=";" horiz-adv-x="210" 
d="M28 335q4 -19 28 -43.5t43 -29.5q17 13 30 25q31 29 39 48q-12 20 -34 40.5t-37 24.5q-9 -1 -37.5 -29t-31.5 -36zM97 -8q-19 5 -42 29.5t-27 43.5q3 8 31.5 36t37.5 29q14 -4 39 -28q22 -22 35 -43q-26 -81 -108 -185q-22 -4 -26 20q26 26 36.5 44t20.5 54h3z" />
    <glyph glyph-name="less" unicode="&#x3c;" horiz-adv-x="360" 
d="M18 186v58l295 149v-55l-225 -123l225 -124v-54z" />
    <glyph glyph-name="equal" unicode="=" horiz-adv-x="409" 
d="M45 355v-41h305q2 0 2 21q0 20 -2 20h-305zM45 265v-41h305q2 0 2 21q0 20 -2 20h-305z" />
    <glyph glyph-name="greater" unicode="&#x3e;" horiz-adv-x="334" 
d="M334 186v58l-295 109v-55l226 -83l-226 -84v-54z" />
    <glyph glyph-name="question" unicode="?" horiz-adv-x="413" 
d="M400 419q-3 -55 -52 -99q-45 -34 -90 -69q-49 -41 -52 -89q-24 -2 -37 0q-2 80 21 107q15 18 72 63q38 31 38 52q0 100 -129 100q-59 0 -106 -75h-25q-10 7 -10 16q0 82 48 134t129 52q85 0 141.5 -55.5t51.5 -136.5zM118 65q4 -19 27 -43.5t42 -29.5q17 13 31 25
q32 29 40 48q-12 20 -34 40.5t-37 24.5q-9 -1 -37.5 -29t-31.5 -36z" />
    <glyph glyph-name="at" unicode="@" horiz-adv-x="801" 
d="M478 175q1 -1 7 0q8 -3 7 -3q5 1 17 3q68 12 111 101q33 69 33 150q0 91 -68 150q-65 56 -158 56q-134 0 -231 -95t-97 -229q0 -124 88 -209.5t212 -85.5q170 0 261 126q7 15 60 97l37 -23q-7 -14 -33 -65q-49 -90 -135 -139t-191 -49q-148 0 -248.5 98t-100.5 246
q0 158 109.5 268t266.5 110q119 0 199.5 -75t80.5 -194q0 -105 -58 -191q-65 -97 -163 -97q-64 0 -77 67q-53 -58 -114 -58q-46 0 -76 51q-26 44 -26 97q0 81 52 154q57 80 137 80q44 0 67 -45q11 34 16 42q47 2 47 0q0 -7 -15 -74q-22 -100 -37 -184q-3 -18 -3 -39
q0 -42 28 -42zM377 469q-67 0 -106 -75q-32 -59 -32 -129q0 -21 18 -52t39 -31q63 0 107 84q18 32 28 80q0 1 14 84q-27 39 -68 39z" />
    <glyph glyph-name="A" unicode="A" horiz-adv-x="620" 
d="M621 34l-88 -52q-35 17 -81 175q-53 -81 -112 -81q-13 0 -37.5 4t-37.5 4q-40 0 -75 -28q6 100 46 231q47 151 101 198l-11 25q-74 -69 -124 -235q-41 -134 -47 -250q-10 -5 -56 -19q-41 -13 -57 -24v14q-8 156 92 328q88 153 184 207q-2 30 -46 54q-41 21 -86 21
q-23 0 -39 -7l-5 9q4 3 51 43q31 28 53 29q112 3 184 -125q44 -77 100 -274q53 -189 91 -247zM445 180q-43 182 -98 284q-20 0 -68 -126q-49 -130 -44 -189q4 3 8 4q20 19 52 19q15 0 46.5 -5.5t47.5 -5.5q33 0 56 19z" />
    <glyph glyph-name="B" unicode="B" horiz-adv-x="585" 
d="M562 261q0 -80 -101 -173.5t-182 -93.5q-92 0 -162 19v474q0 121 -68 121q-10 0 -27.5 -7t-22.5 -5q54 88 116 88q38 0 71 -28.5t41 -64.5l2 -5l74 60q52 39 82 39q25 0 68 -15q34 -12 68 -25q12 -5 0 -18q-68 -72 -180 -156l18 -2q71 -3 137 -69t66 -139zM416 574
q-33 27 -102 27q-70 0 -86 -36q0 1 0 -64v-86q39 24 100 74q69 57 88 85zM465 180q0 96 -59.5 155.5t-160.5 59.5h-18v-18q125 -8 180 -84q39 -54 39 -135q0 -16 -2 -31l-12 -30l6 4q10 12 17 30q10 25 10 49zM229 355v-272h101q90 0 90 77q0 67 -43 118q-34 40 -85 63
q-44 19 -63 14z" />
    <glyph glyph-name="C" unicode="C" horiz-adv-x="509" 
d="M503 647q-25 -26 -81 -75l-77 21l1 -254l-24 -37l3 31l-1 266q-4 5 -28 7v-261q0 -66 -26 -99q-10 -14 -76 -66l-12 -7q11 31 16 101v201q-48 -30 -69 -62q-28 -40 -28 -99q0 -111 64.5 -176.5t178.5 -65.5q83 0 135 41l7 -7q-53 -67 -97 -92q-56 -30 -150 -29
q-107 1 -171 85q-58 77 -55 183q3 98 81 173q48 46 103 68l-1 60q0 15 -3 25t-3 14q0 7 66 51.5t80 44.5q11 0 83.5 -18.5t83.5 -23.5z" />
    <glyph glyph-name="D" unicode="D" horiz-adv-x="656" 
d="M634 342q0 -126 -88 -236q-93 -118 -217 -118q-103 0 -194 17q-43 13 -129 36q9 10 89 88q24 -14 40 -14q5 0 9 2q11 22 13 28q7 18 9 39v248q0 42 36 75q14 12 63 42v-278q0 -41 -20 -73q-22 -36 -81 -79l-10 -10q38 -15 103.5 -26.5t108.5 -11.5q96 0 114 10
q59 34 59 216q0 201 -185 278q-24 10 -41 9l1 -14v-278q1 -38 -38 -81l-3 1q18 34 18 79l-1 299q-44 9 -92 9q-94 0 -156 -31l-4 7q74 74 129 95q49 19 152 17q138 -2 226.5 -100.5t88.5 -244.5z" />
    <glyph glyph-name="E" unicode="E" horiz-adv-x="574" 
d="M567 150q0 -65 -87 -115t-185 -44q-120 8 -197 75q-82 71 -82 188q0 82 52 142q38 43 123 94v91q34 31 68 61q41 35 75 51q42 -11 84 -23q52 -14 87 -14q25 0 46 7q-2 -42 -40 -67q-34 -23 -77 -23q-19 0 -102 21v-196l94 72q28 -28 83 -86l-91 -87l-86 79l1 -37
q0 -32 -29 -103q8 30 8 74v290l-25 6v-317q0 -40 -32 -94q-34 -59 -70 -59q77 -57 172 -57q103 0 210 78v-7zM191 175v293q-43 -16 -67 -61q-20 -39 -20 -89q0 -117 73 -172q14 10 14 29z" />
    <glyph glyph-name="F" unicode="F" horiz-adv-x="503" 
d="M455 384l-30 -106q-40 -1 -74 -1q2 -4 50 -62q36 -44 36 -75q0 -26 -25 -49q17 -28 17 -63q0 -62 -78 -147t-139 -85q-50 0 -106 47q-42 36 -59 67l85 82q20 -43 67 -80q52 -40 95 -36q52 4 52 60q0 51 -86 171q-105 148 -117 175h-33q-37 0 -57 -7q-23 -7 -50 -31
q14 65 39 94.5t81 41.5q-9 54 -2 83q13 60 114 133q98 71 159 71q63 0 113 -46l-92 -80q-10 3 -42 32q-25 21 -66 19q-19 -1 -31 -59q-10 -42 -10 -71q0 -26 15 -79zM275 588q-33 -17 -52 -65q-16 -38 -16 -70q0 -21 20 -69q21 -1 28 0q-15 48 -13 76q4 74 33 128zM410 126
q6 2 6 9q0 34 -94 144q-33 7 -38 1q15 -19 46 -59q27 -34 41 -55q9 -20 33 -59q-1 8 6 19z" />
    <glyph glyph-name="G" unicode="G" horiz-adv-x="674" 
d="M647 259q0 -127 -117 -207q-104 -71 -232 -71q-140 0 -220 109q-71 97 -71 241q0 114 53 188q43 62 134 108q46 23 180 72q66 -79 214 -75q1 -1 2 -3q0 -3 -3 -7q-76 -65 -139 -65q-30 0 -68 16q-4 -19 -4 -51q0 -25 3 -66q3 -47 3 -56q62 60 116 60q75 0 115 -61
q34 -53 34 -132zM559 209q0 73 -25 120q-34 64 -107 57q-8 0 -15 1q-15 -2 -28 -15q3 -47 3 -60q0 -63 -37 -87l-4 -6l10 23q13 29 10 108q-10 88 -10 159q0 40 4 68l-16 17q-14 -20 -13 -63l2 -102q1 -20 4 -66q2 -42 2 -66q0 -43 -35 -86q-20 -24 -68 -63l-21 -10
q25 58 25 114q0 23 -5 68q-5 50 -6 79l-3 107q-3 72 36 116l-30 -8q-61 -16 -98 -90q-30 -61 -30 -126q0 -187 93 -269q86 -74 271 -74q17 0 36.5 11t20.5 11q16 15 26 63q8 38 8 69z" />
    <glyph glyph-name="H" unicode="H" horiz-adv-x="572" 
d="M525 89q0 -54 -1 -63q-3 -24 -86 -100.5t-106 -76.5q-29 0 -76 23q-35 19 -71 39q6 5 43 45q27 29 48 39q10 -4 62 -39q44 -29 59 -29q11 0 16 6.5t10 13.5q5 28 5 106q0 22 2 69t2 70q0 92 -28 136q-37 58 -131 58q-62 0 -77 -5.5t-15 -33.5q0 -6 1 -26.5t1 -36.5
q0 -98 -51.5 -183.5t-138.5 -139.5q41 66 41 220q0 42 -5 125.5t-5 125.5q0 86 50 155q48 66 132 102q14 6 23 6q22 0 90 -16.5t97 -16.5q17 0 28 4q-74 -86 -115 -86q-14 0 -134 28q-16 -32 -18 -91q0 -4 2 -94v-33q5 2 60 49q35 29 72 29q133 0 181 -83q35 -59 35 -190
q0 -17 -1 -53t-1 -53zM173 614l-22 4q-22 -15 -28 -56q-2 -16 -2 -66q0 -43 4 -128.5t4 -128.5q0 -45 -19 -133q50 88 50 164q0 31 -2.5 93.5t-2.5 93.5q0 115 18 157z" />
    <glyph glyph-name="I" unicode="I" horiz-adv-x="441" 
d="M380 590q-9 -25 -19 -50q-11 -31 -11 -72q-1 -49 2 -126q4 -100 4 -128q1 -52 -23 -98q-28 -52 -121 -117q-5 -4 -25.5 -9.5t-25.5 -5.5q-20 0 -40 6q-28 10 -38.5 11.5t-42.5 18.5q-36 18 -36 25q0 6 41 45t48 39q1 0 13 -10t17 -13q73 -43 110 -43q19 1 22 10
q8 30 3 76q-1 15 -5 95q-3 74 -3 118q0 95 14 133q19 52 116 95zM401 520q-2 -32 -2 -67q0 -27 2 -79.5t2 -80.5q0 -54 -6 -104q-1 -13 -10 -24l-12 -14l9 51q-2 139 -3 287q-1 54 32 134l-15 -4q-27 -14 -53 -28q-40 -21 -77 -22q-16 3 -104 26q-65 17 -105 16
q-14 0 -38 -17l-6 9q40 38 55 50q40 32 65 33q38 0 105.5 -20t122.5 -20q35 0 76 6q-11 -30 -21 -61q-14 -44 -17 -71z" />
    <glyph glyph-name="J" unicode="J" horiz-adv-x="423" 
d="M419 657q-59 -76 -51 -253q1 -56 6.5 -131t5.5 -80q0 -140 -36 -193q14 49 14 171q0 49 -6 143t-6 143q0 89 40 186h-3l-51 -34t-86 -34q-36 0 -96 10q-48 7 -96 15l-39 -14l-3 5q49 46 61 56q44 34 72 34q33 0 98.5 -14.5t98.5 -14.5q18 0 68 12zM358 602
q-41 -58 -41 -171q0 -30 5 -87.5t5 -85.5l3 -186q0 -67 -46 -126q-42 -54 -108 -84l-7 3q23 29 47 57q21 30 21 70q0 198 -14 362l-79 -76l-85 76l83 81q32 -22 81 -65q-3 12 -3 32q0 55 43.5 121t94.5 79z" />
    <glyph glyph-name="K" unicode="K" horiz-adv-x="509" 
d="M509 137q-24 -37 -45 -65q-51 -67 -74 -78q-9 -7 -21 -7q-29 0 -25 39q6 68 6 96q0 59 -25.5 77.5t-105.5 19.5q42 46 139 141q-53 34 -128 34q-6 0 -23 -6.5t-20 -7.5q-1 -14 0 -81l4 -210l-16 -20q-3 55 -6 161q-3 151 0 260q1 74 22 136q-15 -2 -24 -14
q-27 -47 -27 -176q0 -31 1.5 -80.5t1.5 -62.5q0 -74 11 -245q-21 -25 -61 -65q-20 32 -90 95l50 44l-12 326q-4 108 71 183.5t183 75.5q30 0 87 -17q63 -20 73 -39q-18 -10 -47 -36q-42 -36 -44 -38q-26 15 -53 30q-49 23 -98 21q-11 -22 -20 -89q-6 -52 -6 -78v-59
q27 27 53 54q29 24 71 24q24 0 69 -16q33 -14 67 -27q-36 -49 -120 -138h25q99 -5 99 -167q0 -21 -2 -41q18 12 49 57z" />
    <glyph glyph-name="L" unicode="L" horiz-adv-x="539" 
d="M353 681q-3 -4 -4 -13q0 -7 1 -19t1 -15q-1 -38 2 -84q2 -49 2 -61q0 -47 -18 -84q-20 -42 -80 -112q-13 -16 -24 -22l6 15q2 6 9 43q9 46 9 67q0 16 -2 73q-1 49 0 78q1 42 6 72q4 21 44 52q34 27 60 39l4 -8zM520 112q-89 -113 -174 -116q-70 -3 -172 16
q-86 17 -171 34l-3 5q38 34 76 69q28 28 38.5 60.5t10.5 101.5l1 257q0 32 -12 45l66 58q59 47 84 43q-2 -4 1 -5.5t1 -4.5q-9 -8 -18 -15q-18 -19 -18 -36q-9 -54 -6 -244q1 -135 -90 -209q-2 -7 -4 -13q-4 -14 -4 -23q0 -8 2 -13q52 -18 150 -30q92 -11 156 -9q46 2 86 29
z" />
    <glyph glyph-name="M" unicode="M" horiz-adv-x="748" 
d="M742 649q-56 -47 -72 -68q-32 -41 -32 -94l1 -343q4 -16 29 -34t50 -25l-79 -98q-32 23 -63 46q-40 35 -37 74v322q0 46 20 71q8 9 81 73q-62 5 -168 47l-12 -10l-1 -503l-22 -18q1 28 0 513q1 0 -34 -27v-513l-98 -87q2 443 0 594q-86 43 -88 43q-2 -8 -34 -35
q8 -387 2 -427q-1 -9 -1 -18q0 -36 15 -71q-18 -14 -32 -27q-34 -31 -45 -51q-36 66 -94 98l53 49v362q0 48 -17 72q-11 14 -59 49q17 12 90 78q22 -11 39 -24q39 -32 43 -67q36 20 112 102l163 -68q5 3 51 39q37 30 46 30q30 0 81.5 -27t83.5 -27q13 0 26 3z" />
    <glyph glyph-name="N" unicode="N" horiz-adv-x="533" 
d="M151 561q28 20 30 18v-424q0 -18 26 -60v483q0 17 24 14q65 -8 198 -30q-83 -85 -83 -157q0 -157 2 -305q1 -67 84 -109q19 32 73 93q-42 26 -57 49.5t-15 69.5v256q0 57 9 85q12 40 48 70q15 13 43 42l-265 34q-49 -44 -113 -99q-2 26 -25 61t-44 35q-7 0 -51 -39
q-25 -23 -49 -45q65 -18 65 -108q0 -35 2 -165q1 -98 0 -164q-1 -60 -49 -83q29 -16 49 -43q10 -14 34 -57q16 30 96 98q-35 34 -33 77z" />
    <glyph glyph-name="O" unicode="O" horiz-adv-x="671" 
d="M647 372q0 -105 -47 -173q-16 -24 -121 -128q-44 -44 -79 -61q-41 -20 -99 -20q-120 0 -212 101t-92 222q0 146 133 263q129 114 276 114q18 -28 87 -60q73 -33 104 -71q50 -64 50 -187zM542 315q0 83 -26 135q-29 60 -99 95q-4 2 -17 16q-11 11 -20 10q-5 -41 0 -268
q0 -14 -12.5 -37.5t-25.5 -27.5q1 1 9 22q5 15 5 22q-7 236 0 299q0 9 -23 7q-11 -9 -11 -102q0 -42 2.5 -109t2.5 -73q0 -63 -34 -92q-38 -25 -75 -50q1 5 9 48q6 29 6 49q0 224 1 263q1 29 20.5 52t19.5 21q0 6 -19 6q-86 0 -127 -73q-32 -58 -32 -152q0 -111 80 -205
q85 -101 198 -98q51 1 85 12q40 14 65 102q18 68 18 128z" />
    <glyph glyph-name="P" unicode="P" horiz-adv-x="584" 
d="M542 369q0 -124 -65 -219q-54 -80 -169 -160q-11 4 -89 76l-1 -176l-21 -8l-2 710q23 31 45 63q32 37 65 37q120 0 183 -104q54 -88 54 -219zM153 -110l-95 -1l-1 604q0 121 -68 126q15 15 97 71q33 0 52 -43q15 -34 15 -71v-686zM447 346q0 77 -41 162q-50 99 -118 99
q-23 0 -70 -22v-426q0 -55 1 -72q28 24 84 70q61 -76 67 -76q28 0 55 118q22 98 22 147z" />
    <glyph glyph-name="Q" unicode="Q" horiz-adv-x="689" 
d="M762 -47l-66 -53q-13 -11 -31 -11q-15 0 -34 7l-275 104q-61 -2 -66 -2q-121 0 -205 102q-79 97 -79 220q0 156 124 261q111 93 272 114q10 -26 36 -42q13 -7 52 -20q80 -27 124 -109q39 -72 39 -164q0 -180 -148 -273q-19 -15 -65 -45l-48 -28q13 1 50 10q32 8 50 8
l211 -83q19 -3 28 -4l20 10zM398 568v-236l-3 -86l-36 -29q13 29 15 49q1 7 1 46v275q-10 10 -19 23q-15 -2 -19 -37v-30v-271q-1 -22 -7 -39q-12 -41 -45 -55q-1 -1 -36 -20q-28 -16 -35 -16q-2 0 9 14t10 15q3 26 2 66q-1 73 -1 81q0 184 -1 180q5 73 101 132
q-122 7 -183 -81q-50 -73 -50 -189q0 -91 60 -178q57 -83 121 -101q23 -8 46 -15q28 -9 48 -8q33 2 41.5 3.5t39.5 16.5q25 30 63 88q9 23 16 81q7 51 7 84q0 73 -34 136q-37 67 -101 96q-5 2 -10 5z" />
    <glyph glyph-name="R" unicode="R" horiz-adv-x="588" 
d="M585 100q-63 -54 -158 -124l1 193q0 195 -141 195q-18 0 -41 -3v-256l-23 -25v517q10 23 38 54.5t46 36.5q12 4 62 -3q121 -32 152 -76q-76 -80 -170 -167q60 3 96 -17q17 -14 35 -27q45 -28 45 -262q0 -36 -1 -65l49 44q3 3 6 3q6 0 4 -18zM194 61q-25 -22 -70 -70
q-45 57 -98 92l56 48q14 16 14 78l-1 263q0 50 -21 85q-25 41 -69 39v11q34 27 103 76q86 -62 86 -133v-489zM420 543q-23 26 -36 34q-28 17 -77 17q-40 0 -62 -6l1 -208q49 40 174 163z" />
    <glyph glyph-name="S" unicode="S" horiz-adv-x="565" 
d="M527 195q0 -79 -50 -145q-53 -70 -129 -70q-46 0 -139.5 24.5t-141.5 24.5q-16 0 -90 -24q44 58 79 82q48 34 108 34q51 0 122 -18q58 -16 117 -32q14 -5 27 9q-3 56 -2 106q1 146 -77 146q-20 0 -76 -75q-23 28 -74 91l-74 -74q-22 -6 -73 45q-59 58 -62 123t64.5 153.5
t124.5 88.5q56 0 132 -18q122 -29 131 -31q13 -2 36 7t34 19l10 -3q-108 -111 -144 -111q-47 0 -144.5 26t-119.5 26q-16 0 -25 -22q-15 -34 -13 -65q3 -60 27 -100q30 -51 86 -51q15 0 49 31q27 25 42 45l70 -86q16 16 32 33q32 29 57 29q38 0 64 -43q22 -37 22 -78v-97z
" />
    <glyph glyph-name="T" unicode="T" horiz-adv-x="574" 
d="M445 554v-290q-16 -33 -35 -46h-17q27 32 35 58v279l-34 3l1 -273q0 -22 -46 -63q-41 -36 -68 -47l20 44q14 32 14 54v274l-16 -10q-46 -31 -77.5 -93t-31.5 -119q0 -121 99 -182q82 -49 209 -49q24 0 48 2l-149 -98l-34 1q-102 3 -181 74t-79 171t60 184q44 62 141 138
q-122 24 -213 24l-14 -3q1 -21 21 -48q17 -23 38 -37q-30 -19 -91 -83q-17 1 -31.5 31t-14.5 59q0 35 66.5 105.5t94.5 70.5q69 0 161 -19t160 -19q53 0 116 15q-62 -107 -152 -108z" />
    <glyph glyph-name="U" unicode="U" horiz-adv-x="565" 
d="M194 169q-14 18 -15 22q-1 12 -2 25v399q0 3 7.5 -8.5t9.5 -11.5v-426zM551 632q-74 -48 -88 -88q-8 -21 -7 -124l1 -335l70 55l3 -20l-166 -130q-22 29 -17 107l-133 -112q-58 14 -111 53q-64 47 -64 100v203q-1 138 -1 203q0 52 -39 52q-5 0 -11 -2q31 48 98 92
q57 -21 55 -116q-3 -105 0 -377q3 -38 35 -68q40 -40 110 -40q10 0 31 15.5t30 16.5q-3 22 0 282q-3 9 -3 21q0 86 110 148h-54q-16 0 -69 17q-56 17 -57 25l109 81q58 -48 77 -54q15 -5 91 -5z" />
    <glyph glyph-name="V" unicode="V" horiz-adv-x="589" 
d="M546 501q0 -126 -99 -284q-87 -139 -201 -231q-40 63 -119 336q-76 264 -80 269q-6 12 -16 12q-6 0 -35 -18l-7 8q14 15 60.5 46.5t66.5 39.5q16 2 24 -13q13 -26 25 -73q10 -38 19 -75q52 -185 62 -219q40 -131 78 -211q13 10 22 34q-46 83 -92 253q-37 141 -74 283
l16 2q1 -2 18 -59q32 27 64 55q45 35 75 35q80 0 136.5 -55.5t56.5 -134.5zM444 420q0 78 -37 130q-42 60 -116 60q-41 0 -69 -28q21 -93 62 -230q49 -162 76 -217q49 86 64 133q20 61 20 152z" />
    <glyph glyph-name="W" unicode="W" horiz-adv-x="765" 
d="M747 501q0 -126 -99 -284q-88 -139 -202 -231q-40 63 -119 341q-76 270 -80 274q-6 12 -16 12q-11 0 -70 -37l138 -482q11 2 34 28q13 15 25 30l9 -18q-91 -103 -161 -151q-50 187 -97 346q-33 110 -66 221q-14 48 -35 52q-2 -4 -15 -11l-15 13q58 41 122 84q11 3 30 -36
q11 -26 23 -51q13 14 79 48q55 28 84 40q16 2 24 -13q13 -26 25 -73q10 -38 19 -75l62 -224q41 -137 78 -216q21 16 26 29q-46 83 -93 260q-38 145 -76 291l16 2q1 -2 18 -59q93 80 139 80q80 0 136.5 -55.5t56.5 -134.5zM645 420q0 78 -37 130q-42 60 -116 60q-32 0 -38 -1
q-17 -3 -31 -17q23 -99 62 -235q49 -167 76 -222q49 86 64 133q20 61 20 152z" />
    <glyph glyph-name="X" unicode="X" horiz-adv-x="479" 
d="M486 655q-31 -39 -33 -41q-29 -34 -46 -44q-3 -2 -8 -2q-13 0 -44.5 16.5t-37.5 16.5q-51 0 -69 -108v-111q45 -1 91 -2q44 1 84 12q-6 -26 -34 -56q-35 -39 -76 -39q-31 0 -66 -1q0 -96 8 -129q14 -50 53 -79q43 -32 107 -32q21 0 34 2q-75 -66 -144 -66q-27 0 -88 32
q-17 -35 -38 -77q-94 -153 -251 -214h-9q122 75 173 211q35 95 41 241q-1 38 0 114q-66 7 -116 -21q4 52 53 83q39 24 70 21q-2 80 -2 118q-13 46 -46 79q-39 39 -90 42q6 10 44 38q46 33 68 33q31 0 67 -33q33 -31 53 -71q9 4 50 53q38 45 60 45q19 0 50 -19.5t55 -19.5
q3 0 16.5 3.5t20.5 4.5z" />
    <glyph glyph-name="Y" unicode="Y" horiz-adv-x="547" 
d="M559 -160q-22 21 -42 27q-12 4 -46 9q-12 2 -24 2q-40 0 -89 -22q-82 -36 -86 -37q-18 -2 -69 -6q-39 -3 -71 13q-43 23 -38 72q1 13 56.5 105.5t54.5 109.5q-1 13 -88 244q-71 190 -96 255q-1 1 -2 1q-5 0 -23 -15l-6 16q23 21 41 37q43 37 56 38q28 2 44 -27
q7 -14 16 -55q8 -33 140 -358q40 56 96 206q51 137 47 141q-23 -15 -68 -18q-29 -2 -61 17.5t-46 19.5q-9 0 -18 -4q-16 -18 -36 -39q-3 -2 -5 -2t-5.5 6t-8.5 7q-2 16 48.5 61.5t75.5 47.5q22 2 66.5 -16.5t86.5 -15.5q34 11 61 32q-41 -102 -77 -187q-85 -204 -130 -288
q-23 -43 -148 -257q-3 -6 -3 -11q0 -14 19 -24l-6 -6v1q0 -4 64 98q79 126 144 258q94 188 153 373q9 1 11 -3q3 -4 0 -18q-36 -173 -176 -439q-124 -236 -172 -274q9 -6 23 -6q11 0 29 4q24 6 28 6q95 49 172 49q47 0 80 -37q30 -34 30 -73q0 -9 -2 -18z" />
    <glyph glyph-name="Z" unicode="Z" horiz-adv-x="562" 
d="M528 215q0 -117 -82 -210q-85 -97 -199 -97q-91 0 -161 40q-24 13 -51 49q-21 27 -29 45l114 95q8 -6 46 -48.5t56 -49.5q-8 -12 -41 -37.5t-46 -44.5q9 -9 53 -16q33 -5 56 -5q85 0 135 67q44 58 44 139q0 92 -73 153q-67 56 -156 56q-24 0 -82 -14q-66 -17 -73 -31
l-18 18l283 250q-42 -2 -78 -2q-179 0 -212 70q50 39 115 100q0 -23 3 -39q12 -32 176 -25q138 6 193 28q7 0 7 -14q-93 -79 -316 -262q19 -1 45 3q16 3 70 3q92 0 158 -69q63 -67 63 -152z" />
    <glyph glyph-name="bracketleft" unicode="[" horiz-adv-x="152" 
d="M34 726l-1 -783h124l1 35h-65v712l62 1q-3 0 1 35h-122z" />
    <glyph glyph-name="backslash" unicode="\" horiz-adv-x="285" 
d="M233 13l-216 674h43l219 -674h-46z" />
    <glyph glyph-name="bracketright" unicode="]" horiz-adv-x="209" 
d="M150 726v-783h-123l1 41l62 1l1 705h-64q3 0 1 36h122z" />
    <glyph glyph-name="asciicircum" unicode="^" horiz-adv-x="315" 
d="M17 728l153 87q3 0 168 -84l-10 -11l-161 33l-141 -34z" />
    <glyph glyph-name="underscore" unicode="_" horiz-adv-x="495" 
d="M-5 -75v-41h534q2 0 3 20q0 21 -2 21h-535z" />
    <glyph glyph-name="grave" unicode="`" horiz-adv-x="467" 
d="M171 607l205 -85l-5 -12l-242 35q-11 4 -11 15q0 16 18.5 33.5t34.5 13.5z" />
    <glyph glyph-name="a" unicode="a" horiz-adv-x="467" 
d="M380 -6l-43 43q-26 27 -39 64q-8 -8 -25 -26q-72 -76 -81 -76q-43 0 -90 64.5t-51 135.5q-3 62 48 130q21 28 91 91q9 9 48 33t45 24q15 0 79 -35q61 -35 77 -50q-5 -11 -30 -34.5t-36 -43.5q-19 -32 -19 -77q0 -70 35 -120q26 -37 60 -52q-56 -52 -68 -67q0 -2 -1 -4z
M293 120v0v1q-2 14 -1 42q6 100 71 169l-147 79q-42 -28 -66 -82q-18 -41 -18 -71q0 -40 45.5 -102t82.5 -62q11 0 34 26h-1z" />
    <glyph glyph-name="b" unicode="b" horiz-adv-x="458" 
d="M181 -6q-75 65 -163 102q13 8 22 24t17 31q1 2 1 161l-1 174q0 81 -12 114q-10 26 -35 39l1 4q25 -1 94 22q63 21 101 18v-6q-54 -13 -59 -86q1 -49 0 -151q-1 -18 0 -67q53 38 134 101q6 -5 12 -4q127 -99 127 -207q0 -139 -239 -269zM238 384q-9 7 -21 7q-16 0 -70 -52
v-206l114 -69q27 26 49.5 74.5t22.5 81.5q0 94 -95 164z" />
    <glyph glyph-name="c" unicode="c" horiz-adv-x="421" 
d="M377 373q-21 19 -41 39q-53 45 -98 64q-1 0 -76 -50q-128 -84 -135 -205q-5 -75 59 -154q61 -74 114 -75q20 0 12 -1q12 1 19.5 15.5t22.5 25.5q88 62 124 130q5 13 -20 15q-8 -37 -43 -63.5t-66 -26.5q-65 0 -132 98q-33 42 -33 101q0 36 33 73q31 34 57 34
q41 0 139 -84z" />
    <glyph glyph-name="d" unicode="d" horiz-adv-x="460" 
d="M196 -4q-52 2 -114 77q-65 77 -65 146q-1 56 43.5 119t98.5 86q-9 10 -28 29q-57 58 -55 101q1 46 35.5 79t81.5 32l11 -4l-13 -8q-32 -20 -33 -65q-2 -42 85 -109q97 -75 118 -96q65 -65 63 -129q-3 -74 -92 -168q-85 -91 -136 -90zM268 329q-37 37 -85 75
q-30 1 -62 -53q-30 -48 -31 -78q-2 -59 54 -128t114 -72q33 -1 64.5 38t33.5 74q2 52 -27 89q-11 15 -61 55z" />
    <glyph glyph-name="e" unicode="e" horiz-adv-x="415" 
d="M388 162q-36 -68 -124 -130q-16 -11 -33 -31q-9 -10 -15 -10q-54 2 -122 76q-72 80 -67 154q6 105 135 205q29 19 76 50q69 -39 102 -76q36 -41 46 -97l-257 -135q55 -81 130 -81q31 0 66 26.5t43 63.5q25 -2 20 -15zM112 196l186 101q-59 96 -124 96q-26 0 -57 -34
q-33 -37 -33 -73q0 -55 28 -90z" />
    <glyph glyph-name="f" unicode="f" horiz-adv-x="284" 
d="M127 -188h-11q-19 95 -37 269q-19 178 -20 293q-56 -3 -68 -2v5q41 24 63 80q5 12 30 101q17 60 40 87q32 37 91 37q12 0 92 -33l28 31l9 -6q-19 -42 -60 -123q-15 7 -46 22q-50 23 -79 23q-26 0 -42.5 -22t-16.5 -47q0 -30 23 -60t50 -30h87v-67h-98q6 -356 -32 -558
l1 1z" />
    <glyph glyph-name="g" unicode="g" horiz-adv-x="475" 
d="M307 104v211q-93 78 -133 78q-26 0 -57 -34q-33 -37 -33 -73q0 -54 33 -101q71 -98 132 -98q35 0 58 17zM335 413l69 62q0 -32 -1 -153v-160q0 -25 13 -50q5 -8 8 -17q8 -20 15.5 -39.5t7.5 -41.5q0 -82 -87 -147q-81 -62 -167 -62q-66 0 -160 51l82 78q3 -3 23 -20
l29 -24q52 -42 114 -42q38 0 72.5 31.5t34.5 70.5q0 18 -27 62q-24 39 -49 67q-25 -24 -58 -47q-15 -11 -22.5 -25.5t-19.5 -15.5q8 1 -12 1q-53 1 -114 75q-64 79 -59 154q7 121 135 205q29 19 76 50q45 -19 97 -63z" />
    <glyph glyph-name="h" unicode="h" horiz-adv-x="441" 
d="M141 367q1 -2 4 0q18 12 50 38q47 39 66 64l1 -2q9 -18 29 -48q60 -66 82 -99q41 -62 41 -119q0 -38 -3 -50q-4 -23 -26 -62q-19 -33 -125 -138q-95 -94 -133 -124l-13 10q116 113 139 145q80 114 80 177q0 43 -31 98q-28 49 -66 84q-1 1 -31 46l-65 -41l-1 -37l1 -176
q52 -41 61 -41q3 0 13 9l13 13l24 24q2 0 11 -14q-80 -71 -99 -88q-2 -2 -8 -10l-10 -15l-13 -17q-14 16 -52 52q-20 18 -62 48l1 1q14 13 32 37q7 20 7 67v339q0 46 -19 73q-15 22 -29 23v7q26 -8 54 -4q13 1 29 7l35 13q27 9 73 18l21 1v-10q0 -1 -17 -5q-34 -8 -51 -46
q-8 -18 -10 -43q-4 -37 -5 -43l1 -162h1z" />
    <glyph glyph-name="i" unicode="i" horiz-adv-x="221" 
d="M75 523v2q0 15 16.5 57t26.5 52q16 13 39 13q40 0 40 -27q0 -11 -54.5 -53t-67.5 -44zM10 390q28 28 76 71l90 -75q-18 -13 -26 -22q-17 -20 -18 -44l-1 -207q0 -10 50 -52q6 3 19 15q2 2 5.5 -3t4.5 -8q-36 -29 -106 -73l-94 80q8 6 39 42v215q-6 31 -39 61z" />
    <glyph glyph-name="j" unicode="j" horiz-adv-x="202" 
d="M75 523v2q0 15 16.5 57t26.5 52q16 13 39 13q40 0 40 -27q0 -11 -54.5 -53t-67.5 -44zM132 319l1 -319l-129 -154q-3 5 -6 7q31 40 38 79l12 69v314q-5 17 -11 30q-13 30 -25 38v1q8 8 41 38q15 17 36 39l84 -72q-29 -22 -41 -70z" />
    <glyph glyph-name="k" unicode="k" horiz-adv-x="395" 
d="M421 -116q-4 0 -16 19l-1 2q-38 47 -82 122l-76 126q-14 27 -45 77q-12 -8 -52 -44q-4 -12 -2 -32q3 -24 16 -43.5t25 -19.5q6 0 18 10l10 9v0q2 0 11 -16q-42 -32 -61 -48q-41 -35 -51 -54l-39 52q-30 35 -59 50q36 42 41 68v385q1 75 -45 96v8q26 -8 54 -4
q22 1 64.5 20.5t59.5 19.5l38 -1v-10q0 -1 -17 -5q-57 -14 -62 -90q-2 -22 -2 -34v-167q6 3 54 49.5t64 65.5q15 -30 48.5 -63t58.5 -38q4 -2 7 -4q-12 -17 -36 -37q-14 -12 -72 -65l152 -400q0 -4 -3 -4zM242 371q-9 15 -23 35q-3 2 -70 -53v-137l124 110q1 3 10 12
q-12 10 -41 33z" />
    <glyph glyph-name="l" unicode="l" horiz-adv-x="229" 
d="M112 -8q-24 27 -47 55q-30 37 -46 47q37 41 42 66l-1 387q-2 13 -8 39q-11 43 -42 57v8q26 -8 54 -4q8 1 60 21q49 19 64 19l38 -1v-10q0 -1 -17 -5q-58 -14 -63 -95q-1 -12 -1 -34v-379q-2 -17 10.5 -43t26.5 -26q8 0 21.5 14t14.5 14q2 0 8 -11q-9 -7 -60 -60t-54 -59z
" />
    <glyph glyph-name="m" unicode="m" horiz-adv-x="626" 
d="M606 91q-67 -45 -111 -76q-12 -7 -27 -16q-1 102 0 334q0 36 -40 58l-78 -51l-1 -293q-38 -22 -90 -51q-2 40 -2 345q0 18 -12.5 33.5t-33.5 15.5q-5 0 -38.5 -21t-33.5 -30l-1 -294q-10 -10 -34 -21q-16 -11 -55 -33v336q-4 16 -10 28q-15 29 -36 32v5q28 21 69 67
q11 12 14 12q15 0 37 -36q12 -18 14 -35q0 -8 7 -27q9 4 65 44.5t70 54.5q13 3 50 -36q9 -9 18 -49q-1 -6 2 -16q64 45 143 103q82 -74 98 -91q-35 -25 -35 -56l1 -186q-1 -5 -1 -11q0 -31 27 -31q9 0 21 3q1 -5 3 -11z" />
    <glyph glyph-name="n" unicode="n" horiz-adv-x="417" 
d="M319 48q-13 -13 -38 -34q-17 -12 -22 -15q-1 102 0 348q0 35 -29 47l-87 -54v-302q-7 -7 -31 -18q-18 -10 -44 -23q-9 -4 -14 -6v336q-4 16 -10 28q-15 29 -36 32v5q6 4 46 43q37 36 39 36q11 0 33 -36q12 -18 14 -35q0 -8 7 -27q33 11 144 101q45 -41 68 -68
q10 -12 19 -23q-32 -22 -32 -47v-177q0 -53 36 -53q9 0 19 4l1 -4q-23 -16 -83 -58z" />
    <glyph glyph-name="o" unicode="o" horiz-adv-x="439" 
d="M245 18q-5 -5 -18.5 -15.5t-15.5 -10.5q-45 0 -114 75q-75 81 -70 154q7 109 136 209q29 17 75 46q159 -90 159 -226q0 -125 -152 -232zM174 393q-26 0 -57 -34q-33 -37 -33 -73q0 -65 64 -134.5t116 -69.5q29 0 54 30t25 66q0 55 -57 133q-59 82 -112 82z" />
    <glyph glyph-name="p" unicode="p" horiz-adv-x="475" 
d="M413 205q-12 -43 -80 -126q-71 -85 -100 -85q-1 0 -37 17q-10 4 -33 20q-20 13 -21 13t-2 -14q-2 -17 -4 -27q-6 -21 -13 -104q-6 -68 -24 -102h-4q-10 28 -18 89q-5 45 -11 90l-6 48q-3 28 -11 47q-2 5 -20 10q-14 5 -20 11q31 23 39 37t8 52l1 138q0 9 -14 38
q-3 7 -36 28q74 76 87 80q51 -30 54 -63q-3 -23 -3 -89l156 149q71 -58 95.5 -99t24.5 -100q0 -29 -8 -58zM328 278q-2 11 -26 47q-29 44 -52 44q-11 0 -58 -47t-47 -51v-121q25 -19 89 -52q59 -31 64 -31q18 0 29 60q8 44 8 75q0 28 -7 76z" />
    <glyph glyph-name="q" unicode="q" horiz-adv-x="454" 
d="M378 270v-257q0 -18 -17 -108q-19 -98 -30 -98q-13 0 -32 111q-15 95 -17 143l-2 49q-10 -4 -75 -61l-59 -51l-4 -4q-18 0 -119 94v233q178 146 183 146q4 0 102 -50q104 -53 113 -56v-5q-29 -21 -37 -43q-6 -14 -6 -43zM288 310q0 2 -63 42t-73 40q-9 0 -24.5 -11.5
t-15.5 -17.5l-2 -141q-1 -61 6 -83q3 -8 35 -33q36 -28 51 -28q12 0 46.5 35.5t35.5 47.5z" />
    <glyph glyph-name="r" unicode="r" horiz-adv-x="349" 
d="M10 88q35 35 35 51v194q-4 31 -50 44v8q4 3 42 41q34 35 36 35q26 0 44 -44q11 -31 21 -63q16 6 73 57q55 48 57 48q4 0 41 -42t37 -44q0 -14 -65 -63q-6 6 -60 72l-87 -66q-3 -35 -2 -50v-121q0 -20 42 -46q38 -24 51 -24q11 0 42.5 27.5t35.5 27.5q8 0 8 -16
q0 -9 -153 -124q-5 0 -72 45q-62 42 -76 53zM27 67l-2 1l-4 -7l3 -1z" />
    <glyph glyph-name="s" unicode="s" horiz-adv-x="404" 
d="M252 38q-8 -4 -28.5 -28.5t-25.5 -23.5q-65 51 -173 75l84 94q-79 48 -80 105q0 38 43 90q33 40 82 76q44 33 51 29q22 -10 62 -29q15 -11 55 -25q5 1 17.5 15.5t14.5 16.5q1 0 12 -11q-5 -11 -50.5 -59.5t-45.5 -54.5q0 -1 52 -45q49 -43 49 -92q0 -33 -43 -77
q-38 -37 -76 -56zM160 388q-25 0 -47 -22t-22 -47q0 -41 88 -88q5 -3 88 105q-66 52 -107 52zM207 230q-3 0 -42.5 -43t-44.5 -50q62 -32 129 -65q25 -4 44.5 13.5t19.5 42.5q0 28 -41 65t-65 37z" />
    <glyph glyph-name="t" unicode="t" horiz-adv-x="296" 
d="M153 -13q-62 70 -128 103q16 15 33 30q19 20 17 38v221h-60q63 51 136 217v-141h122v-76h-119l1 -254q3 -12 33.5 -33.5t42.5 -22.5l48 41q10 -6 10 -8q0 -4 -55 -51.5t-81 -63.5z" />
    <glyph glyph-name="u" unicode="u" horiz-adv-x="430" 
d="M6 404v2v3v6q12 8 54 29.5t45 21.5q18 0 38 -32q17 -28 17 -43l4 -278q0 -12 18 -30t28 -18q9 0 39 24q27 20 37 31v306l86 38v-333q0 -29 13 -39.5t27 -21.5q3 -3 -20 -42t-27 -39q-30 0 -56 36q-22 30 -28 65l-141 -105q-35 35 -109 100q39 21 44 48q0 17 2 51
q1 6 1 166q0 14 -17 33q-19 23 -42 23q-7 0 -13 -2z" />
    <glyph glyph-name="v" unicode="v" horiz-adv-x="458" 
d="M352 110q-26 -28 -75 -71q-56 -49 -66 -49q-14 0 -180 85l1 1l1 2l8 9q53 69 53 129q0 93 -86 167q13 17 40.5 46t30.5 29q8 0 32 -37q14 -21 35 -55q35 18 145 96l86 -55q54 -47 54 -131q0 -38 -25 -88q-23 -46 -54 -78zM236 388q-8 1 -85 -41q7 -15 7 -39
q0 -43 -25 -96q-10 -19 -28 -59l169 -83q36 37 48 54q25 36 31 83q2 16 2 31q0 67 -39 109q-34 37 -80 41z" />
    <glyph glyph-name="w" unicode="w" horiz-adv-x="600" 
d="M395 2l-120 103q-19 -12 -59 -54l-31 -31q-15 -16 -24 -24l-140 109l1 2q24 19 27 29q3 6 2 24q0 10 1 63v80q-1 41 -5 48q0 1 -28 34q-1 2 -3 5q0 12 59 74q8 0 27.5 -18.5t22.5 -24t5 -27.5t8 -30q11 5 66 54.5t57 49.5q13 0 51 -47q23 -30 46 -61l113 111
q49 -30 79 -84.5t30 -105.5q0 -157 -185 -279zM420 388q-6 0 -35 -28t-29 -33v-141q0 -21 4 -32q2 -6 43 -44t52 -38q28 0 46 58q13 42 13 66q0 45 -20 106q-27 86 -74 86zM278 196q0 94 1 81q-3 47 -21 76q-4 6 -19 21q-18 18 -26 18q-12 0 -47 -28t-35 -42q0 5 0 -29
q-1 -35 -1 -73q0 -50 7 -83q2 -11 35 -37.5t38 -26.5q4 0 34.5 29t33.5 38.5t2 32.5q-1 7 -1.5 15z" />
    <glyph glyph-name="x" unicode="x" horiz-adv-x="354" 
d="M277 321q-47 70 -60 70q-8 0 -41 -27.5t-33 -30.5q0 -17 -1 -191q76 -59 83 -59q6 0 32 32q15 19 18 19q11 0 11 -10q0 -1 -37 -47l-57 -71q-11 3 -40 29.5t-39 29.5q-3 -16 -9 -38q-4 -11 -23 -44q-26 -44 -71 -111q-5 1 -5 5l1 2l1 6q15 52 26 89q27 103 27 126v209
q0 63 -44 87q60 66 68 66q23 0 43.5 -45.5t17.5 -45.5l120 94q13 -11 74 -88z" />
    <glyph glyph-name="y" unicode="y" horiz-adv-x="432" 
d="M320 157q-52 -90 -119 -208q-14 -28 -45 -82q-9 -14 -12.5 -17t-10.5 -3q-6 0 -17 7q73 96 73 117q0 3 -11 34l-16 48q-22 72 -73 213q-29 71 -84 123q3 10 31 44.5t33 34.5q10 0 37 -32q24 -28 28.5 -35l13.5 -21q1 -2 0 -12q0 -5 6 -6q4 4 24 35q46 73 120 77
q43 2 81 -38.5t34 -79.5q-5 -38 -93 -199zM245 412q-17 0 -46 -31t-29 -50q0 -40 28 -122l47 -135q17 23 65 116q53 102 53 125q0 34 -47 67q-41 30 -71 30z" />
    <glyph glyph-name="z" unicode="z" horiz-adv-x="318" 
d="M119 -146q-31 -3 -77 11q-53 15 -53 36q0 5 25.5 24.5t37.5 23.5q2 -11 11 -34q15 -23 38 -32q19 -7 30 -6q64 10 85 67q11 29 11 86q0 52 -20 90q-24 48 -71 48q-2 0 -24 -13.5t-27 -15.5q-9 -3 -40 -25l-11 13q7 1 24 11q115 115 115 143q0 8 -93 87l-61 -51l-6 7
l145 153q6 -3 6 -5t-7.5 -13.5t-7.5 -20.5q0 -15 87 -82l35 17l6 -6q-107 -104 -96 -126q112 -45 112 -147q0 -90 -44 -157q-49 -76 -130 -83z" />
    <glyph glyph-name="braceleft" unicode="{" horiz-adv-x="1603" 
d="M47 549q14 -64 109 -64q88 0 241 31l10 -5q58 17 86 16l53 -1q-29 -35 -93 -60q-88 -35 -102 -43v-8q0 -36 36 -64q33 -21 66 -41l-2 -43q-1 -23 25 -39q22 -12 44 -25l-45 -57l24 -43q-24 -56 -24 -54q0 -72 167 -103q102 -19 227 -19q175 0 371 135q-5 -50 -5 -61
q0 -37 26 -66.5t63 -29.5q38 0 69 29q28 27 36 66l-17 45l146 -32v542l-14 2q-25 0 -63 -16q-46 -20 -62 -23q10 46 10 70q0 37 -28 61q-26 21 -64 21q-93 0 -84 -136q-149 143 -401 143h-179q-184 0 -337 -20q-251 -32 -289 -108zM73 548q0 28 52 42q37 7 75 15q6 4 12 4
h33q6 -13 9 -35q2 -17 4 -35l-10 -10q-21 -3 -20 -3q-1 0 -3 1.5t-3 1.5q-10 0 -29 -7.5t-30 -7.5t-33.5 1.5t-33 1.5t-17 10.5t-6.5 20.5zM265 590q0 22 4 28q73 24 162 27q10 -21 10 -47v-40l-3 -3q-101 -14 -108 -14q-2 0 -5 2t-5 2q-3 0 -7.5 -4.5t-8.5 -4.5
q-2 0 -6 3.5t-7 3.5q-2 0 -4.5 -2.5t-4.5 -2.5q-5 0 -11 22t-6 30zM374 408q0 9 34 18q21 5 43 11q15 6 21 6h4q3 -15 3 -16q0 -23 -20 -39t-43 -16q-14 0 -28 11t-14 25zM453 640q0 2 1 5t1 4q19 3 112 3q41 0 251 5q-45 -18 -91 -36q-71 -31 -73 -46q-18 -6 -35 -6
q-2 0 -6.5 2.5t-6.5 2.5q-3 0 -7.5 -2.5t-6.5 -2.5q-7 0 -20.5 2.5t-20.5 2.5q-6 0 -18 -3.5t-19 -3.5q-1 0 -4.5 2t-5.5 2q-4 0 -10 -3.5t-9 -3.5q-32 0 -32 76zM593 335v8q17 18 34 36.5t45 18.5q50 0 86.5 18.5t73.5 38.5q4 -32 31 -68q29 -39 34 -60q-89 -26 -139 -26
q-10 0 -27.5 -7.5t-27.5 -7.5q-21 0 -110 49zM472 296q0 4 3 13q48 8 73 15l143 -71q62 12 78 12h40q-22 -42 -22 -58.5t-5 -21.5q-22 -4 -66 -10v0h-2q-7 0 -47 5q0 7 -17 7t-30 13q-52 8 -92 28q-56 28 -56 68zM421 360q42 -4 67 32q22 32 18 74q295 186 402 186
q112 0 249 -83q151 -92 151 -196l-12 -36l-24 -11l2 -13l-19 1l-7 -1l2 -22l-27 10l-6 -4v-22l-27 14l-4 -2v-22h-8l-26 19l-7 -21l-21 16l-13 -16l-22 21l-7 -2l-3 -12l-22 19l-12 -12l-18 24l-18 -14l-14 30l-19 -16l-1 33h-10l-18 -14l2 14l-8 17l-12 -12h-7v33h-5
l-15 -9v28l-15 3v5q0 20 -15 35v17q-14 23 -9 55l-6 6q-21 -16 -66 -47l-9 9l-17 -14l-8 2l-23 -16l-9 4l-10 -9l-11 5l-3 -1l-7 -8l-11 -1l-55 14q-31 -68 -58 -88q-32 -26 -102 -26q-13 0 -45 16zM498 146q0 18 17 29.5t35 11.5q29 0 83 -18t82 -18q14 0 41 8.5t41 8.5h5
q3 -1 4 -1q-20 -27 -20 -40q0 -6 7 -15t8 -12l-5 -11q-9 3 -10 3q-15 0 -45 -8.5t-46 -8.5q-38 0 -111 21q-86 24 -86 50zM491 53q0 17 14 28t31 11q27 0 78 -18t78 -18q17 0 49 9.5t49 9.5q-20 -25 -20 -46q0 -3 4 -13.5t3 -13.5q-63 -29 -96 -29t-107 26q-83 30 -83 54z
M803 219q0 21 22 40.5t43 19.5q29 0 29 -22q0 -7 -8 -17q-5 -6 -38 -26t-40 -20q-8 0 -8 25zM804 123q0 20 15.5 37t35.5 17q12 0 24.5 -8.5t12.5 -19.5q0 -18 -26 -32q-22 -13 -42 -13t-20 19zM1277 545q0 103 52 103q29 0 50 -14.5t21 -43.5q0 -31 -21.5 -56t-52.5 -25
q-7 0 -11 1l-6 6q-2 7 -17 10t-15 19zM785 41q0 1 6 7q1 7 11 21q15 13 41 13q8 0 16.5 -10.5t8.5 -18.5q0 -13 -27 -28.5t-42 -15.5q-7 0 -12 6q3 3 3 8q0 3 -2.5 8.5t-2.5 9.5zM740 -38l5 5q22 2 68 16q43 12 68 14q15 10 30 14l7 -2q13 11 36 9v12l17 -1q14 18 43 16
l12 15q11 1 33 11l2 9l6 -1l18 14l19 2l12 15l15 5l1 12l22 6l8 15q18 8 34 41h-13q-14 0 -40 -9.5t-41 -9.5q-60 0 -121 37q-70 42 -70 98v7q104 -71 248 -71q83 0 169 88q3 -12 3 -14q0 -47 -18 -63l1 -22q0 -4 -5 -14q-13 -2 -18 -24l-6 -34l-14 15q-6 -9 -11.5 -30.5
t-11.5 -31.5l-15 14q-2 -3 -19 -45l-14 12q-8 -12 -17 -31l-14 12q-10 -11 -19 -31l-13 9q-17 -25 -31 -30l-8 11l-24 -23l-11 4l-15 -13q-24 0 -31 -13l-9 5l-17 -12l-9 2l-46 -16l-6 2q-32 -14 -101 -14q-9 0 -89 8zM1310 476q12 5 23 5q48 0 74 -29.5t26 -78.5
q0 -18 -21.5 -42.5t-38.5 -24.5h-15q-8 78 -48 170zM1289 119q0 4 17.5 31t19.5 31q8 17 15 49q8 37 12 49q27 0 45 -21q10 -10 27 -44q6 -12 6 -18q0 -36 -34.5 -64t-71.5 -28q-36 0 -36 15zM1274 43q0 10 6 28q26 11 42 11q28 0 48.5 -21t20.5 -49q0 -32 -19 -51t-50 -19
q-17 0 -35 8q-9 24 -9 74q0 4 -2 10t-2 9z" />
    <glyph glyph-name="bar" unicode="|" horiz-adv-x="158" 
d="M56 676v-675h43v674z" />
    <glyph glyph-name="braceright" unicode="}" horiz-adv-x="1572" 
d="M1541 549q-14 -64 -109 -64q-88 0 -241 31l-10 -5q-58 17 -86 16l-53 -1q29 -35 93 -60q88 -35 102 -43v-8q0 -36 -36 -64q-33 -21 -66 -41l2 -43q1 -23 -25 -39q-22 -12 -44 -25l45 -57l-24 -43q24 -56 24 -54q0 -72 -167 -103q-102 -19 -227 -19q-175 0 -371 135
q5 -50 5 -61q0 -37 -26 -66.5t-63 -29.5q-38 0 -67.5 28t-37.5 67l17 45l-146 -32v542l14 2q25 0 63 -16q46 -20 62 -23q-10 46 -10 70q0 37 28 61q26 21 64 21q93 0 84 -136q149 143 401 143h179q184 0 337 -20q251 -32 289 -108zM1515 548q0 28 -52 42q-37 7 -75 15
q-6 4 -12 4h-33q-6 -13 -9 -35q-2 -17 -4 -35l10 -10q21 -3 20 -3q1 0 3 1.5t3 1.5q11 0 30 -7.5t29 -7.5q12 0 34.5 1.5t32.5 1.5t16.5 10.5t6.5 20.5zM1323 590q0 22 -4 28q-73 24 -162 27q-10 -21 -10 -47v-40l3 -3q101 -14 108 -14q2 0 5 2t5 2q4 0 8.5 -4.5t7.5 -4.5
q2 0 6 3.5t7 3.5q2 0 4.5 -2.5t4.5 -2.5q5 0 11 22t6 30zM1214 408q0 9 -34 18q-21 5 -43 11q-15 6 -21 6h-4q-3 -15 -3 -16q0 -23 20 -39t43 -16q14 0 28 11t14 25zM1135 640q0 2 -1 5t-1 4q-18 3 -112 3q-41 0 -251 5q46 -18 91 -36q71 -31 73 -46q18 -6 35 -6
q2 0 6.5 2.5t6.5 2.5q3 0 7.5 -2.5t6.5 -2.5q7 0 20.5 2.5t20.5 2.5t19 -3.5t18 -3.5q2 0 5.5 2t4.5 2q4 0 10 -3.5t9 -3.5q32 0 32 76zM995 335v8q-17 18 -34 36.5t-45 18.5q-50 0 -86.5 18.5t-73.5 38.5q-4 -32 -31 -68q-29 -39 -34 -60q89 -26 139 -26q10 0 27.5 -7.5
t27.5 -7.5q21 0 110 49zM1116 296q0 4 -3 13q-48 8 -73 15l-143 -71q-62 12 -78 12h-40q22 -42 22 -58.5t5 -21.5q22 -4 66 -10v0h2q7 0 47 5q0 7 17 7t30 13q52 8 92 28q56 28 56 68zM1167 360q-42 -4 -66 32q-23 32 -19 74q-295 186 -402 186q-112 0 -249 -83
q-151 -92 -151 -196l12 -36l24 -11l-2 -13l19 1l7 -1l-2 -22l27 10l6 -4v-22l27 14l4 -2v-22h8l26 19l7 -21l21 16l13 -16l22 21l7 -2l3 -12l22 19l12 -12l18 24l18 -14l14 30l19 -16l1 33h10l18 -14l-2 14l8 17l12 -12h7v33h5l15 -9v28l15 3v5q0 20 15 35v17q14 23 9 55
l6 6q22 -16 66 -47l9 9l17 -14l8 2l23 -16l9 4l10 -9l11 5l3 -1l7 -8l11 -1l55 14q31 -68 58 -88q32 -26 102 -26q13 0 45 16zM1090 146q0 18 -17 29.5t-35 11.5q-28 0 -82 -18t-83 -18q-14 0 -41 8.5t-41 8.5h-4q-3 -1 -5 -1q20 -27 20 -40q0 -6 -7 -15t-8 -12l5 -11
q9 3 10 3q16 0 46 -8.5t45 -8.5q38 0 111 21q86 24 86 50zM1097 53q0 17 -14 28t-31 11q-27 0 -78 -18t-78 -18q-17 0 -49 9.5t-49 9.5q20 -25 20 -46q0 -3 -4 -13.5t-3 -13.5q63 -29 96 -29t107 26q83 30 83 54zM785 219q0 21 -22 40.5t-43 19.5q-29 0 -29 -22q0 -7 8 -17
q5 -6 38 -26t40 -20q8 0 8 25zM784 123q0 20 -15.5 37t-35.5 17q-12 0 -24.5 -8.5t-12.5 -19.5q0 -18 26 -32q22 -13 42 -13t20 19zM311 545q0 103 -52 103q-29 0 -50 -14.5t-21 -43.5q0 -31 21.5 -56t52.5 -25q7 0 11 1l6 6q2 7 17 10t15 19zM803 41q0 1 -6 7q-1 7 -11 21
q-15 13 -41 13q-8 0 -16.5 -10.5t-8.5 -18.5q0 -13 27 -28.5t42 -15.5q8 0 12 6q-3 3 -3 8q0 3 2.5 8.5t2.5 9.5zM848 -38l-5 5q-22 2 -66.5 15t-69.5 15q-15 10 -30 14l-7 -2q-13 11 -36 9v12l-17 -1q-14 18 -43 16l-12 15q-11 1 -33 11l-2 9l-6 -1l-18 14l-19 2l-12 15
l-15 5l-1 12l-22 6l-8 15q-18 8 -34 41h13q14 0 40 -9.5t41 -9.5q60 0 121 37q70 42 70 98v7q-104 -71 -248 -71q-83 0 -169 88q-3 -12 -3 -14q0 -47 18 -63l-1 -22q0 -4 5 -14q13 -2 18 -24l6 -34l14 15q6 -9 11.5 -30.5t11.5 -31.5l15 14q2 -3 19 -45l14 12q8 -12 17 -31
l14 12q10 -11 19 -31l13 9q17 -25 31 -30l8 11l24 -23l11 4l15 -13q24 0 31 -13l9 5l17 -12l9 2l46 -16l6 2q32 -14 101 -14q9 0 89 8zM278 476q-12 5 -23 5q-48 0 -74 -29.5t-26 -78.5q0 -18 21.5 -42.5t38.5 -24.5h15q8 78 48 170zM299 119q0 4 -17.5 31t-19.5 31
q-8 17 -15 49q-8 37 -12 49q-27 0 -45 -21q-10 -10 -27 -44q-6 -12 -6 -18q0 -36 34.5 -64t71.5 -28q36 0 36 15zM314 43q0 10 -6 28q-26 11 -42 11q-28 0 -48.5 -21t-20.5 -49q0 -32 19 -51t50 -19q17 0 35 8q9 24 9 74q0 4 2 10t2 9z" />
    <glyph glyph-name="asciitilde" unicode="~" horiz-adv-x="355" 
d="M42 750l8 -11q25 19 50 23q7 2 55 5q43 -28 108 -46q25 4 62 26q34 21 55 42l-10 16q-26 -26 -69 -26q-25 0 -64.5 22t-78.5 22q-47 0 -116 -73z" />
    <glyph glyph-name="Adieresis" unicode="&#xc4;" horiz-adv-x="620" 
d="M621 34l-88 -52q-35 17 -81 175q-53 -81 -112 -81q-13 0 -37.5 4t-37.5 4q-40 0 -75 -28q6 100 46 231q47 151 101 198l-11 25q-74 -69 -124 -235q-41 -134 -47 -250q-10 -5 -56 -19q-41 -13 -57 -24v14q-8 156 92 328q88 153 184 207q-2 30 -46 54q-41 21 -86 21
q-23 0 -39 -7l-5 9q4 3 51 43q31 28 53 29q112 3 184 -125q44 -77 100 -274q53 -189 91 -247zM445 180q-43 182 -98 284q-20 0 -68 -126q-49 -130 -44 -189q4 3 8 4q20 19 52 19q15 0 46.5 -5.5t47.5 -5.5q33 0 56 19zM335 758q0 20 13.5 34t32.5 14q20 0 33.5 -14t13.5 -34
t-13.5 -34t-32.5 -14t-33 14t-14 34zM165 758q0 20 13.5 34t32.5 14q20 0 33.5 -14t13.5 -34t-13.5 -34t-32.5 -14t-33 14t-14 34z" />
    <glyph glyph-name="Aring" unicode="&#xc5;" horiz-adv-x="620" 
d="M621 34l-88 -52q-35 17 -81 175q-53 -81 -112 -81q-13 0 -37.5 4t-37.5 4q-40 0 -75 -28q6 100 46 231q47 151 101 198l-11 25q-74 -69 -124 -235q-41 -134 -47 -250q-10 -5 -56 -19q-41 -13 -57 -24v14q-8 156 92 328q88 153 184 207q-2 30 -46 54q-41 21 -86 21
q-23 0 -39 -7l-5 9q4 3 51 43q31 28 53 29q112 3 184 -125q44 -77 100 -274q53 -189 91 -247zM445 180q-43 182 -98 284q-20 0 -68 -126q-49 -130 -44 -189q4 3 8 4q20 19 52 19q15 0 46.5 -5.5t47.5 -5.5q33 0 56 19zM300 843q26 0 44.5 -18.5t18.5 -44.5t-18.5 -44.5
t-44.5 -18.5t-44 18.5t-18 44.5t18 44.5t44 18.5zM300 818q-15 0 -26 -11t-11 -27t11 -27t26 -11q16 0 27 11t11 27t-11 27t-27 11z" />
    <glyph glyph-name="Ccedilla" unicode="&#xc7;" horiz-adv-x="509" 
d="M252 -15l-11 -35q31 6 24 6q35 0 63.5 -24t28.5 -59q0 -27 -23 -45l-46 -28q-50 -6 -92 6l6 24q14 -3 31 -3q73 0 73 54q0 43 -49 43q-19 0 -55 -18l25 79q-102 7 -162 90q-55 75 -52 178q3 98 81 173q48 46 103 68l-1 60q0 15 -3 25t-3 14q0 7 66 51.5t80 44.5
q11 0 83.5 -18.5t83.5 -23.5q-25 -26 -81 -75l-77 21l1 -254l-24 -37l3 31l-1 266q-4 5 -28 7v-261q0 -66 -26 -99q-10 -14 -76 -66l-12 -7q11 31 16 101v201q-48 -30 -69 -62q-28 -40 -28 -99q0 -111 64.5 -176.5t178.5 -65.5q83 0 135 41l7 -7q-51 -65 -93 -90
q-53 -30 -141 -31z" />
    <glyph glyph-name="Eacute" unicode="&#xc9;" horiz-adv-x="574" 
d="M567 150q0 -66 -87 -115.5t-185 -43.5q-120 8 -197 75q-82 71 -82 188q0 82 52 142q38 43 123 94v91q34 31 68 61q41 35 75 51q42 -11 84 -23q52 -14 87 -14q25 0 46 7q-2 -42 -40 -67q-34 -23 -77 -23q-19 0 -102 21v-196l94 72q28 -28 83 -86l-91 -87l-86 79l1 -37
q0 -32 -29 -103q8 30 8 74v290l-25 6v-317q0 -40 -32 -94q-34 -59 -70 -59q77 -57 172 -57q103 0 210 78v-7zM191 175v293q-43 -16 -67 -61q-20 -39 -20 -89q0 -117 73 -172q14 10 14 29zM432 836l-241 -100l6 -15l285 42q13 4 13 17q0 19 -22 39.5t-41 16.5z" />
    <glyph glyph-name="Ntilde" unicode="&#xd1;" horiz-adv-x="539" 
d="M151 561q28 20 30 18v-424q0 -18 26 -60v483q0 17 24 14q65 -8 198 -30q-83 -85 -83 -157q0 -157 2 -305q1 -67 84 -109q19 32 73 93q-42 26 -57 49.5t-15 69.5v256q0 57 9 85q12 40 48 70q15 13 43 42l-265 34q-49 -44 -113 -99q-2 26 -25 61t-44 35q-7 0 -51 -39
q-25 -23 -49 -45q65 -18 65 -108q0 -35 2 -165q1 -98 0 -164q-1 -60 -49 -83q29 -16 49 -43q10 -14 34 -57q16 30 96 98q-35 34 -33 77zM102 750l8 -11q25 19 50 23q7 2 55 5q43 -28 108 -46q25 4 62 26q34 21 55 42l-10 16q-26 -26 -69 -26q-25 0 -64.5 22t-78.5 22
q-47 0 -116 -73z" />
    <glyph glyph-name="Odieresis" unicode="&#xd6;" horiz-adv-x="671" 
d="M647 372q0 -105 -47 -173q-16 -24 -121 -128q-44 -44 -79 -61q-41 -20 -99 -20q-120 0 -212 101t-92 222q0 146 133 263q129 114 276 114q18 -28 87 -60q73 -33 104 -71q50 -64 50 -187zM542 315q0 83 -26 135q-29 60 -99 95q-4 2 -17 16q-11 11 -20 10q-5 -41 0 -268
q0 -14 -12.5 -37.5t-25.5 -27.5q1 1 9 22q5 15 5 22q-7 236 0 299q0 9 -23 7q-11 -9 -11 -102q0 -42 2.5 -109t2.5 -73q0 -63 -34 -92q-38 -25 -75 -50q1 5 9 48q6 29 6 49q0 224 1 263q1 29 20.5 52t19.5 21q0 6 -19 6q-86 0 -127 -73q-32 -58 -32 -152q0 -111 80 -205
q85 -101 198 -98q51 1 85 12q40 14 65 102q18 68 18 128zM385 768q0 20 13.5 34t32.5 14q20 0 33.5 -14t13.5 -34t-13.5 -34t-32.5 -14t-33 14t-14 34zM215 768q0 20 13.5 34t32.5 14q20 0 33.5 -14t13.5 -34t-13.5 -34t-32.5 -14t-33 14t-14 34z" />
    <glyph glyph-name="Udieresis" unicode="&#xdc;" horiz-adv-x="565" 
d="M194 169q-14 18 -15 22q-1 12 -2 25v399q0 3 7.5 -8.5t9.5 -11.5v-426zM551 632q-74 -48 -88 -88q-8 -21 -7 -124l1 -335l70 55l3 -20l-166 -130q-22 29 -17 107l-133 -112q-58 14 -111 53q-64 47 -64 100v203q-1 138 -1 203q0 52 -39 52q-5 0 -11 -2q31 48 98 92
q57 -21 55 -116q-3 -105 0 -377q3 -38 35 -68q40 -40 110 -40q10 0 31 15.5t30 16.5q-3 22 0 282q-3 9 -3 21q0 86 110 148h-54q-16 0 -69 17q-56 17 -57 25l109 81q58 -48 77 -54q15 -5 91 -5zM315 768q0 20 13.5 34t32.5 14q20 0 33.5 -14t13.5 -34t-13.5 -34t-32.5 -14
t-33 14t-14 34zM145 768q0 20 13.5 34t32.5 14q20 0 33.5 -14t13.5 -34t-13.5 -34t-32.5 -14t-33 14t-14 34z" />
    <glyph glyph-name="aacute" unicode="&#xe1;" horiz-adv-x="467" 
d="M373 -6l-43 43q-26 27 -39 64q-9 -8 -25 -26q-72 -76 -82 -76q-42 0 -89 64.5t-51 135.5q-3 62 48 130q21 28 90 91q10 9 49 33t45 24q15 0 77.5 -35t78.5 -50q-5 -11 -30 -34.5t-36 -43.5q-19 -32 -19 -77q0 -70 35 -120q26 -37 60 -52q-56 -52 -68 -67q0 -2 -1 -4z
M286 120v0v1q-2 14 -1 42q6 100 70 169l-146 79q-42 -28 -66 -82q-18 -41 -18 -71q0 -40 45.5 -102t82.5 -62q11 0 34 26h-1zM338 607l-205 -85l5 -12l242 35q11 4 11 15q0 16 -18.5 33.5t-34.5 13.5z" />
    <glyph glyph-name="agrave" unicode="&#xe0;" horiz-adv-x="467" 
d="M373 -6l-43 43q-26 27 -39 64q-9 -8 -25 -26q-72 -76 -82 -76q-42 0 -89 64.5t-51 135.5q-3 62 48 130q21 28 90 91q10 9 49 33t45 24q15 0 77.5 -35t78.5 -50q-5 -11 -30 -34.5t-36 -43.5q-19 -32 -19 -77q0 -70 35 -120q26 -37 60 -52q-56 -52 -68 -67q0 -2 -1 -4z
M286 120v0v1q-2 14 -1 42q6 100 70 169l-146 79q-42 -28 -66 -82q-18 -41 -18 -71q0 -40 45.5 -102t82.5 -62q11 0 34 26h-1zM171 607l205 -85l-5 -12l-242 35q-11 4 -11 15q0 16 18.5 33.5t34.5 13.5z" />
    <glyph glyph-name="acircumflex" unicode="&#xe2;" horiz-adv-x="467" 
d="M373 -6l-43 43q-26 27 -39 64q-9 -8 -25 -26q-72 -76 -82 -76q-42 0 -89 64.5t-51 135.5q-3 62 48 130q21 28 90 91q10 9 49 33t45 24q15 0 77.5 -35t78.5 -50q-5 -11 -30 -34.5t-36 -43.5q-19 -32 -19 -77q0 -70 35 -120q26 -37 60 -52q-56 -52 -68 -67q0 -2 -1 -4z
M286 120v0v1q-2 14 -1 42q6 100 70 169l-146 79q-42 -28 -66 -82q-18 -41 -18 -71q0 -40 45.5 -102t82.5 -62q11 0 34 26h-1zM118 514l130 74q2 0 143 -72l-9 -9l-136 28l-120 -29z" />
    <glyph glyph-name="adieresis" unicode="&#xe4;" horiz-adv-x="467" 
d="M373 -6l-43 43q-26 27 -39 64q-9 -8 -25 -26q-72 -76 -82 -76q-42 0 -89 64.5t-51 135.5q-3 62 48 130q21 28 90 91q10 9 49 33t45 24q15 0 77.5 -35t78.5 -50q-5 -11 -30 -34.5t-36 -43.5q-19 -32 -19 -77q0 -70 35 -120q26 -37 60 -52q-56 -52 -68 -67q0 -2 -1 -4z
M286 120v0v1q-2 14 -1 42q6 100 70 169l-146 79q-42 -28 -66 -82q-18 -41 -18 -71q0 -40 45.5 -102t82.5 -62q11 0 34 26h-1zM304 553q0 17 11.5 29t27.5 12q17 0 28.5 -12t11.5 -29t-11.5 -29t-27.5 -12q-17 0 -28.5 12t-11.5 29zM160 553q0 17 11.5 29t27.5 12t28 -12
t12 -29t-11.5 -29t-28.5 -12q-16 0 -27.5 12t-11.5 29z" />
    <glyph glyph-name="atilde" unicode="&#xe3;" horiz-adv-x="467" 
d="M373 -6l-43 43q-26 27 -39 64q-9 -8 -25 -26q-72 -76 -82 -76q-42 0 -89 64.5t-51 135.5q-3 62 48 130q21 28 90 91q10 9 49 33t45 24q15 0 77.5 -35t78.5 -50q-5 -11 -30 -34.5t-36 -43.5q-19 -32 -19 -77q0 -70 35 -120q26 -37 60 -52q-56 -52 -68 -67q0 -2 -1 -4z
M286 120v0v1q-2 14 -1 42q6 100 70 169l-146 79q-42 -28 -66 -82q-18 -41 -18 -71q0 -40 45.5 -102t82.5 -62q11 0 34 26h-1zM109 524l7 -9q22 15 43 20q6 1 46 3q16 -10 92 -31q49 7 100 58l-9 13q-22 -22 -59 -22q-21 0 -54.5 15t-66.5 15q-40 0 -99 -62z" />
    <glyph glyph-name="aring" unicode="&#xe5;" horiz-adv-x="467" 
d="M373 -6l-43 43q-26 27 -39 64q-9 -8 -25 -26q-72 -76 -82 -76q-42 0 -89 64.5t-51 135.5q-3 62 48 130q21 28 90 91q10 9 49 33t45 24q15 0 77.5 -35t78.5 -50q-5 -11 -30 -34.5t-36 -43.5q-19 -32 -19 -77q0 -70 35 -120q26 -37 60 -52q-56 -52 -68 -67q0 -2 -1 -4z
M286 120v0v1q-2 14 -1 42q6 100 70 169l-146 79q-42 -28 -66 -82q-18 -41 -18 -71q0 -40 45.5 -102t82.5 -62q11 0 34 26h-1zM260 643q26 0 44.5 -18.5t18.5 -44.5t-18.5 -44.5t-44.5 -18.5t-44 18.5t-18 44.5t18 44.5t44 18.5zM260 618q-15 0 -26 -11t-11 -27t11 -27
t26 -11q16 0 27 11t11 27t-11 27t-27 11z" />
    <glyph glyph-name="ccedilla" unicode="&#xe7;" horiz-adv-x="421" 
d="M295 -110q0 -22 -20 -35.5t-39 -25.5q-43 -6 -79 4l6 21q11 -3 26 -3q62 0 62 46q0 37 -42 37q-16 0 -46 -15l23 75q-54 13 -107 82q-57 75 -52 145q7 121 135 205q29 19 76 50q45 -19 98 -64q20 -20 41 -39l-64 -64q-98 84 -139 84q-26 0 -57 -34q-33 -37 -33 -73
q0 -54 33 -101q71 -98 132 -98q31 0 66 26.5t43 63.5q25 -2 20 -15q-36 -68 -124 -130q-15 -11 -23.5 -27t-23.5 -14l-12 -35q27 5 21 5q29 0 54 -20.5t25 -50.5z" />
    <glyph glyph-name="eacute" unicode="&#xe9;" horiz-adv-x="415" 
d="M388 162q-36 -68 -124 -130q-16 -11 -33 -31q-9 -10 -15 -10q-54 2 -122 76q-72 80 -67 154q6 105 135 205q29 19 76 50q69 -39 102 -76q36 -41 46 -97l-257 -135q55 -81 130 -81q31 0 66 26.5t43 63.5q25 -2 20 -15zM112 196l186 101q-59 96 -124 96q-26 0 -57 -34
q-33 -37 -33 -73q0 -55 28 -90zM308 607l-205 -85l5 -12l242 35q11 4 11 15q0 16 -18.5 33.5t-34.5 13.5z" />
    <glyph glyph-name="egrave" unicode="&#xe8;" horiz-adv-x="415" 
d="M388 162q-36 -68 -124 -130q-16 -11 -33 -31q-9 -10 -15 -10q-54 2 -122 76q-72 80 -67 154q6 105 135 205q29 19 76 50q69 -39 102 -76q36 -41 46 -97l-257 -135q55 -81 130 -81q31 0 66 26.5t43 63.5q25 -2 20 -15zM112 196l186 101q-59 96 -124 96q-26 0 -57 -34
q-33 -37 -33 -73q0 -55 28 -90zM141 607l205 -85l-5 -12l-242 35q-11 4 -11 15q0 16 18.5 33.5t34.5 13.5z" />
    <glyph glyph-name="ecircumflex" unicode="&#xea;" horiz-adv-x="415" 
d="M388 162q-36 -68 -124 -130q-16 -11 -33 -31q-9 -10 -15 -10q-54 2 -122 76q-72 80 -67 154q6 105 135 205q29 19 76 50q69 -39 102 -76q36 -41 46 -97l-257 -135q55 -81 130 -81q31 0 66 26.5t43 63.5q25 -2 20 -15zM112 196l186 101q-59 96 -124 96q-26 0 -57 -34
q-33 -37 -33 -73q0 -55 28 -90zM88 514l130 74q2 0 143 -72l-9 -9l-136 28l-120 -29z" />
    <glyph glyph-name="edieresis" unicode="&#xeb;" horiz-adv-x="415" 
d="M388 162q-36 -68 -124 -130q-16 -11 -33 -31q-9 -10 -15 -10q-54 2 -122 76q-72 80 -67 154q6 105 135 205q29 19 76 50q69 -39 102 -76q36 -41 46 -97l-257 -135q55 -81 130 -81q31 0 66 26.5t43 63.5q25 -2 20 -15zM112 196l186 101q-59 96 -124 96q-26 0 -57 -34
q-33 -37 -33 -73q0 -55 28 -90zM264 553q0 17 11.5 29t27.5 12q17 0 28.5 -12t11.5 -29t-11.5 -29t-27.5 -12q-17 0 -28.5 12t-11.5 29zM120 553q0 17 11.5 29t27.5 12t28 -12t12 -29t-11.5 -29t-28.5 -12q-16 0 -27.5 12t-11.5 29z" />
    <glyph glyph-name="iacute" unicode="&#xed;" horiz-adv-x="221" 
d="M10 390q28 28 76 71l90 -75q-18 -13 -26 -22q-17 -20 -18 -44l-1 -207q0 -10 50 -52q6 3 19 15q2 2 5.5 -3t4.5 -8q-36 -29 -106 -73l-94 80q8 6 39 42v215q-6 31 -39 61zM148 607l-165 -85l5 -12l202 35q11 4 11 15q0 16 -18.5 33.5t-34.5 13.5z" />
    <glyph glyph-name="igrave" unicode="&#xec;" horiz-adv-x="221" 
d="M10 390q28 28 76 71l90 -75q-18 -13 -26 -22q-17 -20 -18 -44l-1 -207q0 -10 50 -52q6 3 19 15q2 2 5.5 -3t4.5 -8q-36 -29 -106 -73l-94 80q8 6 39 42v215q-6 31 -39 61zM41 607l155 -85l-5 -12l-192 35q-11 4 -11 15q0 16 18.5 33.5t34.5 13.5z" />
    <glyph glyph-name="icircumflex" unicode="&#xee;" horiz-adv-x="221" 
d="M10 390q28 28 76 71l90 -75q-18 -13 -26 -22q-17 -20 -18 -44l-1 -207q0 -10 50 -52q6 3 19 15q2 2 5.5 -3t4.5 -8q-36 -29 -106 -73l-94 80q8 6 39 42v215q-6 31 -39 61zM-22 514q108 74 110 74t123 -72l-9 -9l-116 28l-100 -29z" />
    <glyph glyph-name="idieresis" unicode="&#xef;" horiz-adv-x="221" 
d="M10 390q28 28 76 71l90 -75q-18 -13 -26 -22q-17 -20 -18 -44l-1 -207q0 -10 50 -52q6 3 19 15q2 2 5.5 -3t4.5 -8q-36 -29 -106 -73l-94 80q8 6 39 42v215q-6 31 -39 61zM124 553q0 17 11.5 29t27.5 12q17 0 28.5 -12t11.5 -29t-11.5 -29t-27.5 -12q-17 0 -28.5 12
t-11.5 29zM-20 553q0 17 11.5 29t27.5 12t28 -12t12 -29t-11.5 -29t-28.5 -12q-16 0 -27.5 12t-11.5 29z" />
    <glyph glyph-name="ntilde" unicode="&#xf1;" horiz-adv-x="417" 
d="M319 48q-13 -13 -38 -34q-17 -12 -22 -15q-1 102 0 348q0 35 -29 47l-87 -54v-302q-7 -7 -31 -18q-18 -10 -44 -23q-9 -4 -14 -6v336q-4 16 -10 28q-15 29 -36 32v5q6 4 46 43q37 36 39 36q11 0 33 -36q12 -18 14 -35q0 -8 7 -27q33 11 144 101q45 -41 68 -68
q10 -12 19 -23q-32 -22 -32 -47v-177q0 -53 36 -53q9 0 19 4l1 -4q-23 -16 -83 -58zM49 524l7 -9q22 15 43 20q6 1 46 3q16 -10 92 -31q49 7 100 58l-9 13q-22 -22 -59 -22q-21 0 -54.5 15t-66.5 15q-40 0 -99 -62z" />
    <glyph glyph-name="oacute" unicode="&#xf3;" horiz-adv-x="439" 
d="M245 18q-5 -5 -18.5 -15.5t-15.5 -10.5q-45 0 -114 75q-75 81 -70 154q7 109 136 209q29 17 75 46q159 -90 159 -226q0 -125 -152 -232zM174 393q-26 0 -57 -34q-33 -37 -33 -73q0 -65 64 -134.5t116 -69.5q29 0 54 30t25 66q0 55 -57 133q-59 82 -112 82zM298 607
l-205 -85l5 -12l242 35q11 4 11 15q0 16 -18.5 33.5t-34.5 13.5z" />
    <glyph glyph-name="ograve" unicode="&#xf2;" horiz-adv-x="439" 
d="M245 18q-5 -5 -18.5 -15.5t-15.5 -10.5q-45 0 -114 75q-75 81 -70 154q7 109 136 209q29 17 75 46q159 -90 159 -226q0 -125 -152 -232zM174 393q-26 0 -57 -34q-33 -37 -33 -73q0 -65 64 -134.5t116 -69.5q29 0 54 30t25 66q0 55 -57 133q-59 82 -112 82zM141 607
l205 -85l-5 -12l-242 35q-11 4 -11 15q0 16 18.5 33.5t34.5 13.5z" />
    <glyph glyph-name="ocircumflex" unicode="&#xf4;" horiz-adv-x="439" 
d="M245 18q-5 -5 -18.5 -15.5t-15.5 -10.5q-45 0 -114 75q-75 81 -70 154q7 109 136 209q29 17 75 46q159 -90 159 -226q0 -125 -152 -232zM174 393q-26 0 -57 -34q-33 -37 -33 -73q0 -65 64 -134.5t116 -69.5q29 0 54 30t25 66q0 55 -57 133q-59 82 -112 82zM88 514l130 74
q2 0 143 -72l-9 -9l-136 28l-120 -29z" />
    <glyph glyph-name="odieresis" unicode="&#xf6;" horiz-adv-x="439" 
d="M245 18q-5 -5 -18.5 -15.5t-15.5 -10.5q-45 0 -114 75q-75 81 -70 154q7 109 136 209q29 17 75 46q159 -90 159 -226q0 -125 -152 -232zM174 393q-26 0 -57 -34q-33 -37 -33 -73q0 -65 64 -134.5t116 -69.5q29 0 54 30t25 66q0 55 -57 133q-59 82 -112 82zM264 553
q0 17 11.5 29t27.5 12q17 0 28.5 -12t11.5 -29t-11.5 -29t-27.5 -12q-17 0 -28.5 12t-11.5 29zM120 553q0 17 11.5 29t27.5 12t28 -12t12 -29t-11.5 -29t-28.5 -12q-16 0 -27.5 12t-11.5 29z" />
    <glyph glyph-name="otilde" unicode="&#xf5;" horiz-adv-x="439" 
d="M245 18q-5 -5 -18.5 -15.5t-15.5 -10.5q-45 0 -114 75q-75 81 -70 154q7 109 136 209q29 17 75 46q159 -90 159 -226q0 -125 -152 -232zM174 393q-26 0 -57 -34q-33 -37 -33 -73q0 -65 64 -134.5t116 -69.5q29 0 54 30t25 66q0 55 -57 133q-59 82 -112 82zM79 524l7 -9
q22 15 43 20q6 1 46 3q16 -10 92 -31q49 7 100 58l-9 13q-22 -22 -59 -22q-21 0 -54.5 15t-66.5 15q-40 0 -99 -62z" />
    <glyph glyph-name="uacute" unicode="&#xfa;" horiz-adv-x="430" 
d="M6 404v2v3v6q12 8 54 29.5t45 21.5q18 0 38 -32q17 -28 17 -43l4 -278q0 -12 18 -30t28 -18q9 0 39 24q27 20 37 31v306l86 38v-333q0 -29 13 -39.5t27 -21.5q3 -3 -20 -42t-27 -39q-30 0 -56 36q-22 30 -28 65l-141 -105q-35 35 -109 100q39 21 44 48q0 17 2 51
q1 6 1 166q0 14 -17 33q-19 23 -42 23q-7 0 -13 -2zM278 607l-205 -85l5 -12l242 35q11 4 11 15q0 16 -18.5 33.5t-34.5 13.5z" />
    <glyph glyph-name="ugrave" unicode="&#xf9;" horiz-adv-x="430" 
d="M6 404v2v3v6q12 8 54 29.5t45 21.5q18 0 38 -32q17 -28 17 -43l4 -278q0 -12 18 -30t28 -18q9 0 39 24q27 20 37 31v306l86 38v-333q0 -29 13 -39.5t27 -21.5q3 -3 -20 -42t-27 -39q-30 0 -56 36q-22 30 -28 65l-141 -105q-35 35 -109 100q39 21 44 48q0 17 2 51
q1 6 1 166q0 14 -17 33q-19 23 -42 23q-7 0 -13 -2zM111 607l205 -85l-5 -12l-242 35q-11 4 -11 15q0 16 18.5 33.5t34.5 13.5z" />
    <glyph glyph-name="ucircumflex" unicode="&#xfb;" horiz-adv-x="430" 
d="M6 404v2v3v6q12 8 54 29.5t45 21.5q18 0 38 -32q17 -28 17 -43l4 -278q0 -12 18 -30t28 -18q9 0 39 24q27 20 37 31v306l86 38v-333q0 -29 13 -39.5t27 -21.5q3 -3 -20 -42t-27 -39q-30 0 -56 36q-22 30 -28 65l-141 -105q-35 35 -109 100q39 21 44 48q0 17 2 51
q1 6 1 166q0 14 -17 33q-19 23 -42 23q-7 0 -13 -2zM68 514l130 74q2 0 143 -72l-9 -9l-136 28l-120 -29z" />
    <glyph glyph-name="udieresis" unicode="&#xfc;" horiz-adv-x="430" 
d="M6 404v2v3v6q12 8 54 29.5t45 21.5q18 0 38 -32q17 -28 17 -43l4 -278q0 -12 18 -30t28 -18q9 0 39 24q27 20 37 31v306l86 38v-333q0 -29 13 -39.5t27 -21.5q3 -3 -20 -42t-27 -39q-30 0 -56 36q-22 30 -28 65l-141 -105q-35 35 -109 100q39 21 44 48q0 17 2 51
q1 6 1 166q0 14 -17 33q-19 23 -42 23q-7 0 -13 -2zM244 553q0 17 11.5 29t27.5 12q17 0 28.5 -12t11.5 -29t-11.5 -29t-27.5 -12q-17 0 -28.5 12t-11.5 29zM100 553q0 17 11.5 29t27.5 12t28 -12t12 -29t-11.5 -29t-28.5 -12q-16 0 -27.5 12t-11.5 29z" />
    <glyph glyph-name="dagger" unicode="&#x2020;" horiz-adv-x="446" 
d="M233 489q-26 -1 -70 -20.5t-65 -19.5q-54 0 -54 56q0 60 54 60q21 0 64 -22t71 -24q0 41 -26 92t-26 68q0 27 19.5 42.5t47.5 15.5t47 -15.5t19 -42.5q0 -17 -26 -67.5t-27 -92.5q29 2 72 24t63 22q55 0 55 -62q0 -61 -55 -61q-19 0 -62 22.5t-73 24.5q7 -107 68 -171
q-43 -83 -56 -198q-4 -41 -8 -207h-35q-4 164 -9 207q-12 115 -55 198q61 64 67 171z" />
    <glyph glyph-name="degree" unicode="&#xb0;" horiz-adv-x="274" 
d="M239 569q0 -44 -31 -75.5t-74 -31.5t-74 31.5t-31 75.5v-1q0 44 31 75.5t74 31.5t74 -31t31 -75zM193 571q0 26 -18 44.5t-43 18.5t-42.5 -18.5t-17.5 -45.5v1q0 -27 17.5 -45.5t43.5 -18.5q25 0 42.5 18.5t17.5 45.5z" />
    <glyph glyph-name="cent" unicode="&#xa2;" horiz-adv-x="313" 
d="M282 507q0 -13 -28.5 -33t-43.5 -20q-14 0 -38 10v-162q5 -1 16 -1q47 0 78 38q15 0 15 -21q0 -38 -33.5 -64t-75.5 -30v-63h-34v65q-53 8 -87.5 50.5t-34.5 96.5q0 53 35 103t86 59v55h35v-55q6 -1 32 -11q20 -7 33 -7q6 0 16 4t15 4q7 0 14 -9v-9zM138 313l-1 166
q-13 5 -26 5q-21 0 -36.5 -19.5t-15.5 -41.5q0 -33 22.5 -63.5t56.5 -46.5z" />
    <glyph glyph-name="sterling" unicode="&#xa3;" horiz-adv-x="544" 
d="M52 326h60q-22 58 -22 109q0 67 56 113t140 42q38 -2 55 -16t33 -28q20 -13 53 -13q18 0 38 4q-19 -27 -39 -53q-23 -27 -49 -27q-22 0 -42 18q-8 7 -30 36q-36 47 -78 47q-26 0 -43.5 -18.5t-17.5 -46.5q0 -14 26 -89q16 -45 29 -78h118v-38h-108q20 -81 20 -144
q0 -20 -3 -35q35 -25 82 -29q88 -9 88 82q0 32 -61 58q8 11 4 11h-1q-2 0 -2 1q1 2 5 6q19 -4 38 -7q40 -11 64 -34q33 -32 33 -86q0 -52 -51 -84q-46 -29 -102 -29q-39 0 -62 28q-31 37 -46 45q-82 -79 -153 -79q-24 0 -50 18q-29 20 -29 43q0 77 98 77q33 0 69 -9
q6 51 -47 167h-73v38zM143 100q-12 3 -47 3q-20 0 -36 -10t-17 -25q-3 -38 53 -38q37 0 79 64q-13 3 -32 6z" />
    <glyph glyph-name="bullet" unicode="&#x2022;" horiz-adv-x="254" 
d="M38 271v-1q0 34 25.5 58.5t60.5 24.5q36 0 61.5 -24t25.5 -58t-25.5 -58.5t-60.5 -24.5q-36 0 -61.5 24.5t-25.5 58.5z" />
    <glyph glyph-name="paragraph" unicode="&#xb6;" horiz-adv-x="471" 
d="M462 -65h-282v30q40 0 49.5 12t9.5 53v283l-31 -1q-85 -3 -138 46q-50 46 -50 130q0 102 66 142q51 32 162 32h214v-30q-39 0 -48 -12.5t-9 -53.5v-536q0 -42 8 -52q10 -13 49 -13v-30zM352 -35v667h-63v-667h63z" />
    <glyph glyph-name="germandbls" unicode="&#xdf;" horiz-adv-x="583" 
d="M509 76q0 -79 -52 -157q-57 -84 -130 -84q-2 0 -20.5 -1.5t-20.5 -1.5q-12 0 -48 15q-42 17 -42 34q0 6 28.5 27.5t39.5 24.5q13 -24 17 -31q16 -24 30 -30q3 -1 14.5 2.5t12.5 3.5q41 4 70 53q26 42 26 79q0 47 -26 87q-30 46 -75 46q-20 0 -37 -6q-4 -2 -37 -25l-18 28
q37 31 73 62q66 57 66 79q0 7 -85 88h-39l-64 -2q-5 -140 -12 -247q-15 -258 -35 -310q-7 0 -7 -1l-7 1q-41 151 -67 560q-60 -3 -67 0l2 9q48 28 73 111q37 121 42 131q34 64 111 64q12 0 91 -32l28 31l13 -10q-19 -43 -62 -126q1 0 -44.5 22.5t-73.5 22.5q-25 0 -41 -19.5
t-16 -44.5q0 -30 19 -59.5t44 -29.5h112q24 4 42 20q15 13 29 26q3 2 10.5 -2.5t7.5 -7.5t-7.5 -14t-7.5 -19q0 -16 54 -60q12 -12 27 -12l39 10l9 -10q-20 -29 -39 -55q-46 -60 -75 -87q60 -10 95 -58q30 -43 30 -95z" />
    <glyph glyph-name="registered" unicode="&#xae;" horiz-adv-x="325" 
d="M280 564q0 -55 -39 -94.5t-95 -39.5t-96 39t-40 95t39 95.5t95 39.5q57 0 96.5 -39t39.5 -96zM268 564q0 51 -36 87t-87 36q-50 0 -86.5 -36t-36.5 -86q0 -52 36 -87.5t88 -35.5q50 0 86 36t36 86zM219 525q0 -28 -28 -28q-25 0 -27.5 35t-15.5 35h-20v-5q0 -39 1 -46
q0 -2 19 -7v-9h-66v9l11 1q7 1 7 5v108q0 13 -19 10q-1 1 -1 4v4h86q14 0 26.5 -10.5t12.5 -24.5q0 -24 -30 -36q15 -6 18 -12.5t3 -24.5t7 -21q5 2 10 18l7 1q-1 1 -1 -6zM173 605q0 28 -29 28h-15v-55h13q31 0 31 27z" />
    <glyph glyph-name="copyright" unicode="&#xa9;" horiz-adv-x="802" 
d="M764 332q-1 -155 -113 -265t-268 -110q-154 0 -266 111.5t-112 266.5q0 157 111 266t267 109q161 0 270 -105q112 -108 111 -273zM730 329q0 147 -100 247t-247 100q-143 0 -243.5 -99.5t-100.5 -241.5t101.5 -243t242.5 -101q142 0 244.5 99t102.5 239zM534 262
q0 -52 -53 -90q-49 -36 -104 -36q-78 0 -131 57t-53 136q0 89 51 153q56 68 145 68q50 0 92 -25l22 20h23v-157l-20 -3q-34 137 -115 137q-103 0 -103 -190q0 -168 106 -168q57 0 95 59q7 15 23 45q0 2 5 14q14 0 17 -3v-17z" />
    <glyph glyph-name="trademark" unicode="&#x2122;" horiz-adv-x="402" 
d="M152 613l-8 -1q-16 54 -40 54q-11 -10 -11 -21l1 -109q0 -20 27 -20v-10h-88l1 10q24 5 24 20v105q0 25 -8 25q-31 0 -41 -52l-8 1q0 42 4 60h142q1 -10 2.5 -30.5t2.5 -31.5zM362 669q-2 -2 -12 -3.5t-10 -7.5l1 -125q0 -17 22 -19v-7h-81l-1 7q22 7 22 19v109l-2 -1
q-7 -22 -21 -67.5t-22 -68.5h-10q-13 47 -45 137q0 1 -2 1v-106q0 -20 24 -24v-8h-64v9q26 3 26 34v105q0 9 -8 10.5t-16 2.5v10h69l33 -98l31 97h66v-6z" />
    <glyph glyph-name="acute" unicode="&#xb4;" horiz-adv-x="426" 
d="M318 607l-205 -85l5 -12l242 35q11 4 11 15q0 16 -18.5 33.5t-34.5 13.5z" />
    <glyph glyph-name="dieresis" unicode="&#xa8;" horiz-adv-x="409" 
d="M254 553q0 17 11.5 29t27.5 12q17 0 28.5 -12t11.5 -29t-11.5 -29t-27.5 -12q-17 0 -28.5 12t-11.5 29zM110 553q0 17 11.5 29t27.5 12t28 -12t12 -29t-11.5 -29t-28.5 -12q-16 0 -27.5 12t-11.5 29z" />
    <glyph glyph-name="AE" unicode="&#xc6;" horiz-adv-x="1020" 
d="M531 215l2 -8q16 -55 57 -85q6 4 13.5 23.5t7.5 29.5v293q-43 -16 -67 -61q-20 -39 -20 -89q0 -79 7 -103zM448 152q-51 -76 -108 -76q-13 0 -37.5 4t-37.5 4q-40 0 -75 -28q6 100 46 231q47 151 101 198l-11 25q-74 -69 -124 -235q-41 -134 -47 -250q-10 -5 -56 -19
q-41 -13 -57 -24v14q-8 156 92 328q88 153 184 207q-2 30 -46 54q-41 21 -86 21q-23 0 -39 -7l-5 9q4 3 51 43q31 28 53 29q91 3 154 -88q45 -66 87 -206q35 74 124 104v91q34 31 68 61q41 35 75 51q42 -11 84 -23q52 -14 87 -14q25 0 46 7q-2 -42 -40 -67q-34 -23 -77 -23
q-19 0 -102 21v-196l94 72q28 -28 83 -86l-91 -87l-86 79l1 -37q0 -32 -29 -103q8 30 8 74v290l-25 6v-317q0 -42 -32 -104q-34 -69 -70 -69q50 -37 172 -37q93 0 200 78v-7q0 -61 -81 -113t-186 -52q-23 0 -46 3q-177 23 -216 164zM438 209q-44 168 -91 255q-20 0 -68 -126
q-49 -130 -44 -189q4 3 8 4q20 19 52 19q15 0 46.5 -5.5t47.5 -5.5q32 0 53 17q-2 15 -4 31z" />
    <glyph glyph-name="Oslash" unicode="&#xd8;" horiz-adv-x="680" 
d="M376 457l60 77q-9 6 -19 11q-4 2 -17 16q-11 11 -20 10q-5 -41 -4 -114zM324 391l27 35q-1 98 5 155q0 9 -23 7q-15 -13 -9 -197zM164 185l69 89q0 209 1 248q1 29 20.5 52t19.5 21q0 6 -19 6q-86 0 -127 -73q-32 -58 -32 -152q0 -101 68 -191zM461 517l-84 -108
q1 -39 3 -106q0 -14 -12.5 -37.5t-25.5 -27.5q1 1 9 22q5 15 5 22q-1 30 -4 96l-26 -34q1 -32 1 -40q0 -63 -34 -92q-38 -25 -75 -50q4 19 11 58l-45 -59q83 -91 190 -88q51 1 85 12q40 14 65 102q18 68 18 128q0 139 -81 202zM578 668l-44 -57q113 -63 113 -239
q0 -105 -47 -173q-16 -24 -121 -128q-44 -44 -79 -61q-41 -20 -99 -20q-103 0 -189 79l-68 -87l-23 19l69 89q-93 100 -93 223q0 146 133 263q129 114 276 114q14 -21 43 -38q6 -4 57 -28l49 63z" />
    <glyph glyph-name="plusminus" unicode="&#xb1;" 
 />
    <glyph glyph-name="yen" unicode="&#xa5;" horiz-adv-x="521" 
d="M126 233v35q11 1 72 1v7q0 19 -17 40q-34 81 -49 106q-38 61 -82 61q-9 0 -16.5 -7t-16.5 -7q-13 0 -19 23q1 2 52 52q44 42 49 42q10 0 42 -26q38 -30 65 -84q25 -48 49 -96h1q5 0 32 53q35 67 56 96q36 53 62 53q10 0 12 -9q1 -3 12 -3q4 0 15 7t16 7q16 0 16 -13
q0 -25 -31 -66t-52 -41q-4 0 -5.5 4t-8.5 4q-17 0 -58.5 -80t-41.5 -110q0 -6 1 -8l3 -2h73q1 0 1 -19q0 -20 -2 -20h-73v-41q35 0 73 1q2 0 2 -18t-2 -18h-73l-2 -82q0 -24 7 -34.5t15 -21.5q5 -9 -6 -22q-21 10 -61 10q-37 0 -53 -10q-5 0 -8 6.5t-1 10.5q24 30 24 66v77
h-72v36q-5 0 72 0v40h-72z" />
    <glyph glyph-name="mu" unicode="&#xb5;" horiz-adv-x="539" 
d="M23 236l102 59q1 78 1 244q0 32 -12 45l66 58q59 47 84 43q-2 -4 1 -5.5t1 -4.5q-9 -8 -18 -15q-18 -19 -18 -36q-9 -54 -6 -244q0 -15 -1 -29l31 18q3 18 3 27q0 16 -2 73q-1 49 0 78q1 42 6 72q4 21 44 52q34 27 60 39l4 -8l-16 -21q-3 -4 -4 -13q0 -7 1 -19t1 -15
q-1 -30 0 -85q1 -46 0 -68q-1 -34 -7 -60l97 56v-44l-117 -67q-23 -49 -79 -115q-14 -15 -25 -21l6 15q4 11 19 75l-30 -17q-21 -85 -81 -132q-2 -7 -4 -13q-4 -14 -4 -23q0 -8 2 -13q52 -18 150 -30q92 -11 156 -9q46 2 86 29q-89 -113 -174 -116q-70 -3 -172 16
q-86 17 -171 34l-3 5q87 80 94 90q27 36 30 110l-101 -58v43z" />
    <glyph glyph-name="mu" unicode="&#x3bc;" horiz-adv-x="539" 
d="M23 236l102 59q1 78 1 244q0 32 -12 45l66 58q59 47 84 43q-2 -4 1 -5.5t1 -4.5q-9 -8 -18 -15q-18 -19 -18 -36q-9 -54 -6 -244q0 -15 -1 -29l31 18q3 18 3 27q0 16 -2 73q-1 49 0 78q1 42 6 72q4 21 44 52q34 27 60 39l4 -8l-16 -21q-3 -4 -4 -13q0 -7 1 -19t1 -15
q-1 -30 0 -85q1 -46 0 -68q-1 -34 -7 -60l97 56v-44l-117 -67q-23 -49 -79 -115q-14 -15 -25 -21l6 15q4 11 19 75l-30 -17q-21 -85 -81 -132q-2 -7 -4 -13q-4 -14 -4 -23q0 -8 2 -13q52 -18 150 -30q92 -11 156 -9q46 2 86 29q-89 -113 -174 -116q-70 -3 -172 16
q-86 17 -171 34l-3 5q87 80 94 90q27 36 30 110l-101 -58v43z" />
    <glyph glyph-name="ordfeminine" unicode="&#xaa;" horiz-adv-x="562" 
d="M528 215q0 -117 -82 -210q-85 -97 -199 -97q-91 0 -161 40q-24 13 -51 49q-21 27 -29 45l114 95q8 -6 46 -48.5t56 -49.5q-8 -12 -41 -37.5t-46 -44.5q9 -9 53 -16q33 -5 56 -5q85 0 135 67q44 58 44 139q0 92 -73 153q-67 56 -156 56q-24 0 -82 -14q-66 -17 -73 -31
l-18 18l283 250q-42 -2 -78 -2q-179 0 -212 70q50 39 115 100q0 -23 3 -39q12 -32 176 -25q138 6 193 28q7 0 7 -14q-93 -79 -316 -262q19 -1 45 3q16 3 70 3q92 0 158 -69q63 -67 63 -152zM423 815l-149 -85q-3 0 -165 83l10 10l158 -32l137 33z" />
    <glyph glyph-name="ordmasculine" unicode="&#xba;" horiz-adv-x="318" 
d="M119 -146q-31 -3 -77 11q-53 15 -53 36q0 5 25.5 24.5t37.5 23.5q2 -11 11 -34q15 -23 38 -32q19 -7 30 -6q64 10 85 67q11 29 11 86q0 52 -20 90q-24 48 -71 48q-2 0 -24 -13.5t-27 -15.5q-9 -3 -40 -25l-11 13q7 1 24 11q115 115 115 143q0 8 -93 87l-61 -51l-6 7
l145 153q6 -3 6 -5t-7.5 -13.5t-7.5 -20.5q0 -15 87 -82l35 17l6 -6q-107 -104 -96 -126q112 -45 112 -147q0 -90 -44 -157q-49 -76 -130 -83zM292 591l-130 -74q-3 0 -143 72l8 9l137 -28l120 29z" />
    <glyph glyph-name="ae" unicode="&#xe6;" horiz-adv-x="702" 
d="M318 126q-30 -27 -52 -51q-72 -76 -82 -76q-42 0 -89 64.5t-51 135.5q-3 62 48 130q21 28 90 91q10 9 49 33t45 24q13 0 61 -25.5t79 -47.5q13 12 26 22q29 19 76 50q69 -39 102 -76q36 -41 46 -97l-257 -135q55 -81 130 -81q31 0 66 26.5t43 63.5q25 -2 20 -15
q-36 -68 -124 -130q-16 -11 -33 -31q-6 -6 -21 -5q-124 3 -172 130zM578 297q-59 96 -124 96q-11 0 -26 -8q-16 -16 -51 -54q-13 -24 -13 -45q0 -55 28 -90zM352 334l-143 77q-42 -28 -66 -82q-18 -41 -18 -71q0 -40 45.5 -102t82.5 -62q11 0 57 47q-7 39 -6 49q3 50 6 66
q5 23 23 48q8 15 19 30z" />
    <glyph glyph-name="oslash" unicode="&#xf8;" horiz-adv-x="439" 
d="M136 165l122 180q-46 48 -84 48q-26 0 -57 -34q-33 -37 -33 -73q0 -57 52 -121zM274 327l-122 -180q62 -65 112 -65q29 0 54 30t25 66q0 65 -69 149zM363 460l-34 -51q68 -68 68 -159q0 -125 -152 -232q-5 -5 -18.5 -15.5t-15.5 -10.5q-44 0 -113 74l-52 -78l-20 15
l55 82q-59 73 -54 136q7 109 136 209q29 17 75 46q43 -24 74 -51l31 47z" />
    <glyph glyph-name="questiondown" unicode="&#xbf;" horiz-adv-x="431" 
d="M30 14q4 55 53 101q45 37 90 75q49 43 51 91q24 2 37 0q3 -90 -21 -117q-15 -18 -71 -63q-39 -31 -39 -52q0 -100 129 -100q60 0 106 75h25q10 -7 10 -16q0 -82 -48 -134t-129 -52q-85 0 -141.5 55.5t-51.5 136.5zM312 378q-3 19 -26.5 43.5t-42.5 29.5q-17 -13 -30 -25
q-32 -29 -41 -48q13 -20 35 -40.5t36 -24.5q9 1 38 29t31 36z" />
    <glyph glyph-name="exclamdown" unicode="&#xa1;" horiz-adv-x="205" 
d="M148 -71q2 -36 26 -54q9 -7 9 -15q0 -5 -7 -7q-59 -18 -79 -27q-16 -7 -66 -36q-9 -6 -16.5 3.5t-7.5 14.5q0 2 14.5 18t16.5 49l27 412q25 -2 53 -1zM156 383q-3 18 -24.5 38t-41.5 25q-20 -9 -35 -24q-17 -19 -34 -39q31 -49 68 -61q13 2 32 18q23 19 35 43z" />
    <glyph glyph-name="logicalnot" unicode="&#xac;" 
 />
    <glyph glyph-name="florin" unicode="&#x192;" 
 />
    <glyph glyph-name="guillemotleft" unicode="&#xab;" horiz-adv-x="308" 
d="M294 523q3 0 -164 -208l163 -199l3 29q-108 165 -108 170t112 182q-9 26 -6 26zM184 523q3 0 -164 -208l163 -199l3 29q-108 165 -108 170t112 182q-9 26 -6 26z" />
    <glyph glyph-name="guillemotright" unicode="&#xbb;" horiz-adv-x="351" 
d="M45 523q-3 0 164 -208l-163 -199l-3 29q108 165 108 170t-112 182q9 26 6 26zM155 523q-3 0 164 -208l-163 -199l-3 29q108 165 108 170t-112 182q9 26 6 26z" />
    <glyph glyph-name="ellipsis" unicode="&#x2026;" horiz-adv-x="691" 
d="M298 65q4 -19 27 -43.5t42 -29.5q17 13 31 25q32 29 40 48q-12 20 -34 40.5t-37 24.5q-9 -1 -37.5 -29t-31.5 -36zM528 65q4 -19 27 -43.5t42 -29.5q17 13 31 25q32 29 40 48q-12 20 -34 40.5t-37 24.5q-9 -1 -37.5 -29t-31.5 -36zM48 65q4 -19 27 -43.5t42 -29.5
q17 13 31 25q32 29 40 48q-12 20 -34 40.5t-37 24.5q-9 -1 -37.5 -29t-31.5 -36z" />
    <glyph glyph-name="nonbreakingspace" unicode="&#xa0;" horiz-adv-x="192" 
 />
    <glyph glyph-name="Agrave" unicode="&#xc0;" horiz-adv-x="620" 
d="M621 34l-88 -52q-35 17 -81 175q-53 -81 -112 -81q-13 0 -37.5 4t-37.5 4q-40 0 -75 -28q6 100 46 231q47 151 101 198l-11 25q-74 -69 -124 -235q-41 -134 -47 -250q-10 -5 -56 -19q-41 -13 -57 -24v14q-8 156 92 328q88 153 184 207q-2 30 -46 54q-41 21 -86 21
q-23 0 -39 -7l-5 9q4 3 51 43q31 28 53 29q112 3 184 -125q44 -77 100 -274q53 -189 91 -247zM445 180q-43 182 -98 284q-20 0 -68 -126q-49 -130 -44 -189q4 3 8 4q20 19 52 19q15 0 46.5 -5.5t47.5 -5.5q33 0 56 19zM217 836l241 -100l-6 -15l-285 42q-12 4 -12 17
q0 19 21.5 39.5t40.5 16.5z" />
    <glyph glyph-name="Atilde" unicode="&#xc3;" horiz-adv-x="620" 
d="M621 34l-88 -52q-35 17 -81 175q-53 -81 -112 -81q-13 0 -37.5 4t-37.5 4q-40 0 -75 -28q6 100 46 231q47 151 101 198l-11 25q-74 -69 -124 -235q-41 -134 -47 -250q-10 -5 -56 -19q-41 -13 -57 -24v14q-8 156 92 328q88 153 184 207q-2 30 -46 54q-41 21 -86 21
q-23 0 -39 -7l-5 9q4 3 51 43q31 28 53 29q112 3 184 -125q44 -77 100 -274q53 -189 91 -247zM445 180q-43 182 -98 284q-20 0 -68 -126q-49 -130 -44 -189q4 3 8 4q20 19 52 19q15 0 46.5 -5.5t47.5 -5.5q33 0 56 19zM152 750l8 -11q25 19 50 23q7 2 55 5q43 -28 108 -46
q25 4 62 26q34 21 55 42l-10 16q-26 -26 -69 -26q-25 0 -64.5 22t-78.5 22q-47 0 -116 -73z" />
    <glyph glyph-name="Otilde" unicode="&#xd5;" horiz-adv-x="671" 
d="M647 372q0 -105 -47 -173q-16 -24 -121 -128q-44 -44 -79 -61q-41 -20 -99 -20q-120 0 -212 101t-92 222q0 146 133 263q129 114 276 114q18 -28 87 -60q73 -33 104 -71q50 -64 50 -187zM542 315q0 83 -26 135q-29 60 -99 95q-4 2 -17 16q-11 11 -20 10q-5 -41 0 -268
q0 -14 -12.5 -37.5t-25.5 -27.5q1 1 9 22q5 15 5 22q-7 236 0 299q0 9 -23 7q-11 -9 -11 -102q0 -42 2.5 -109t2.5 -73q0 -63 -34 -92q-38 -25 -75 -50q1 5 9 48q6 29 6 49q0 224 1 263q1 29 20.5 52t19.5 21q0 6 -19 6q-86 0 -127 -73q-32 -58 -32 -152q0 -111 80 -205
q85 -101 198 -98q51 1 85 12q40 14 65 102q18 68 18 128zM172 750l8 -11q25 19 50 23q7 2 55 5q43 -28 108 -46q25 4 62 26q34 21 55 42l-10 16q-26 -26 -69 -26q-25 0 -64.5 22t-78.5 22q-47 0 -116 -73z" />
    <glyph glyph-name="OE" unicode="&#x152;" horiz-adv-x="1146" 
d="M571 163q-28 -29 -92 -92q-44 -44 -79 -61q-41 -20 -99 -20q-120 0 -212 101t-92 222q0 146 133 263q129 114 276 114q18 -28 79 -56q69 -31 98 -59q50 -51 61 -144q31 26 87 59v91q34 31 68 61q41 35 75 51q42 -11 84 -23q52 -14 87 -14q25 0 46 7q-2 -42 -40 -67
q-34 -23 -77 -23q-19 0 -102 21v-196l94 72q28 -28 83 -86l-91 -87l-86 79l1 -37q0 -32 -29 -103q8 30 8 74v290l-25 6v-317q0 -40 -32 -94q-34 -59 -70 -59q77 -57 172 -57q103 0 210 78v-7q0 -66 -87 -115.5t-185 -43.5q-94 6 -163 50q-73 45 -101 122zM646 351
q0 -5 -1 -16t-1 -17q0 -117 73 -172q14 10 14 29v293q-70 -26 -85 -117zM542 315q0 83 -26 135q-29 60 -99 95q-4 2 -17 16q-11 11 -20 10q-5 -41 0 -268q0 -14 -12.5 -37.5t-25.5 -27.5q1 1 9 22q5 15 5 22q-7 236 0 299q0 9 -23 7q-11 -9 -11 -102q0 -42 2.5 -109t2.5 -73
q0 -63 -34 -92q-38 -25 -75 -50q1 5 9 48q6 29 6 49q0 224 1 263q1 29 20.5 52t19.5 21q0 6 -19 6q-86 0 -127 -73q-32 -58 -32 -152q0 -111 80 -205q85 -101 198 -98q51 1 85 12q40 14 65 102q18 68 18 128z" />
    <glyph glyph-name="oe" unicode="&#x153;" horiz-adv-x="748" 
d="M343 171q-7 23 -7 44q-18 61 -66 117q-52 61 -96 61q-26 0 -57 -34q-33 -37 -33 -73q0 -65 64 -134.5t116 -69.5q28 0 52 27.5t27 61.5zM698 162q-36 -68 -124 -130q-16 -11 -33 -31q-9 -10 -15 -10q-36 1 -87 43t-80 97q-39 -60 -114 -113q-5 -5 -18.5 -15.5
t-15.5 -10.5q-45 0 -114 75q-75 81 -70 154q7 109 136 209q29 17 75 46q110 -62 143 -143q35 50 91 93q29 19 76 50q69 -39 102 -76q36 -41 46 -97l-257 -135q55 -81 130 -81q31 0 66 26.5t43 63.5q25 -2 20 -15zM422 196l186 101q-59 96 -124 96q-26 0 -57 -34
q-33 -37 -33 -73v0q2 -15 3 -30q6 -36 25 -60z" />
    <glyph glyph-name="endash" unicode="&#x2013;" horiz-adv-x="313" 
d="M5 296q0 2 -2 -21q-2 -19 0 -19h292q2 0 3 20t-1 20h-292z" />
    <glyph glyph-name="emdash" unicode="&#x2014;" horiz-adv-x="609" 
d="M5 296q0 2 -2 -21q-2 -19 0 -19t298 1h297q3 0 2 20q-1 19 -3 19h-592z" />
    <glyph glyph-name="quotedblleft" unicode="&#x201c;" horiz-adv-x="374" 
d="M265 532q19 5 42 29.5t27 43.5q-3 8 -31.5 36t-37.5 29q-14 -4 -37.5 -27t-36.5 -44q26 -81 108 -185q22 -4 26 20q-26 26 -36.5 44t-20.5 54h-3zM95 532q19 5 42 29.5t27 43.5q-3 8 -31.5 36t-37.5 29q-14 -4 -37.5 -27t-36.5 -44q26 -81 108 -185q22 -4 26 20
q-26 26 -36.5 44t-20.5 54h-3z" />
    <glyph glyph-name="quotedblright" unicode="&#x201d;" horiz-adv-x="376" 
d="M267 532q-19 5 -42 29.5t-27 43.5q3 8 31.5 36t37.5 29q14 -4 39 -28q22 -22 35 -43q-26 -81 -108 -185q-22 -4 -26 20q26 26 36.5 44t20.5 54h3zM97 532q-19 5 -42 29.5t-27 43.5q3 8 31.5 36t37.5 29q14 -4 39 -28q22 -22 35 -43q-26 -81 -108 -185q-22 -4 -26 20
q26 26 36.5 44t20.5 54h3z" />
    <glyph glyph-name="quoteleft" unicode="&#x2018;" horiz-adv-x="204" 
d="M95 532q19 5 42 29.5t27 43.5q-3 8 -31.5 36t-37.5 29q-14 -4 -37.5 -27t-36.5 -44q26 -81 108 -185q22 -4 26 20q-26 26 -36.5 44t-20.5 54h-3z" />
    <glyph glyph-name="quoteright" unicode="&#x2019;" horiz-adv-x="150" 
d="M67 532q-19 5 -42 29.5t-27 43.5q3 8 31.5 36t37.5 29q14 -4 39 -28q22 -22 35 -43q-26 -81 -108 -185q-22 -4 -26 20q26 26 36.5 44t20.5 54h3z" />
    <glyph glyph-name="ydieresis" unicode="&#xff;" horiz-adv-x="432" 
d="M320 157q-52 -90 -119 -208q-14 -28 -45 -82q-9 -14 -12.5 -17t-10.5 -3q-6 0 -17 7q73 96 73 117q0 3 -11 34l-16 48q-22 72 -73 213q-29 71 -84 123q3 10 31 44.5t33 34.5q10 0 37 -32q24 -28 28.5 -35l13.5 -21q1 -2 0 -12q0 -5 6 -6q4 4 24 35q46 73 120 77
q43 2 81 -38.5t34 -79.5q-5 -38 -93 -199zM245 412q-17 0 -46 -31t-29 -50q0 -40 28 -122l47 -135q17 23 65 116q53 102 53 125q0 34 -47 67q-41 30 -71 30zM254 553q0 17 11.5 29t27.5 12q17 0 28.5 -12t11.5 -29t-11.5 -29t-27.5 -12q-17 0 -28.5 12t-11.5 29zM110 553
q0 17 11.5 29t27.5 12t28 -12t12 -29t-11.5 -29t-28.5 -12q-16 0 -27.5 12t-11.5 29z" />
    <glyph glyph-name="Ydieresis" unicode="&#x178;" horiz-adv-x="547" 
d="M559 -160q-22 21 -42 27q-12 4 -46 9q-12 2 -24 2q-40 0 -89 -22q-82 -36 -86 -37q-18 -2 -69 -6q-39 -3 -71 13q-43 23 -38 72q1 13 56.5 105.5t54.5 109.5q-1 13 -88 244q-71 190 -96 255q-1 1 -2 1q-5 0 -23 -15l-6 16q23 21 41 37q43 37 56 38q28 2 44 -27
q7 -14 16 -55q8 -33 140 -358q40 56 96 206q51 137 47 141q-23 -15 -68 -18q-29 -2 -61 17.5t-46 19.5q-9 0 -18 -4q-16 -18 -36 -39q-3 -2 -5 -2t-5.5 6t-8.5 7q-2 16 48.5 61.5t75.5 47.5q22 2 66.5 -16.5t86.5 -15.5q34 11 61 32q-41 -102 -77 -187q-85 -204 -130 -288
q-23 -43 -148 -257q-3 -6 -3 -11q0 -14 19 -24l-6 -6v1q0 -4 64 98q79 126 144 258q94 188 153 373q9 1 11 -3q3 -4 0 -18q-36 -173 -176 -439q-124 -236 -172 -274q9 -6 23 -6q11 0 29 4q24 6 28 6q95 49 172 49q47 0 80 -37q30 -34 30 -73q0 -9 -2 -18z" />
    <glyph glyph-name="guilsinglleft" unicode="&#x2039;" horiz-adv-x="268" 
d="M118 306l102 -250l-205 251l214 225z" />
    <glyph glyph-name="guilsinglright" unicode="&#x203a;" horiz-adv-x="283" 
d="M137 306l-102 -250l204 251l-213 225z" />
    <glyph glyph-name="daggerdbl" unicode="&#x2021;" horiz-adv-x="381" 
d="M181 486q-24 -1 -59 -19t-51 -18q-43 0 -43 49t43 49q17 0 50.5 -17.5t60.5 -19.5q-1 32 -22 73.5t-21 54.5q0 21 16 34t37 13q54 0 54 -47q0 -14 -21 -54t-22 -74q26 2 60 19.5t50 17.5q44 0 44 -49t-44 -49q-15 0 -51 18t-59 20q4 -90 54 -142q-50 -52 -54 -141
q25 1 60 19t50 18q44 0 44 -49t-44 -49q-15 0 -50 18t-60 20q1 -34 22 -74.5t21 -54.5q0 -21 -16 -33.5t-38 -12.5t-37.5 12t-15.5 34q0 14 21 53.5t22 75.5q-24 -2 -59 -20t-52 -18q-43 0 -43 49t43 49q16 0 50 -18t60 -19q-3 89 -54 141q51 52 54 141z" />
    <glyph glyph-name="periodcentered" unicode="&#xb7;" horiz-adv-x="199" 
d="M28 285q4 -19 27 -43.5t42 -29.5q17 13 31 25q32 29 40 48q-12 20 -34 40.5t-37 24.5q-9 -1 -37.5 -29t-31.5 -36z" />
    <glyph glyph-name="periodcentered" unicode="&#x2219;" horiz-adv-x="199" 
d="M28 285q4 -19 27 -43.5t42 -29.5q17 13 31 25q32 29 40 48q-12 20 -34 40.5t-37 24.5q-9 -1 -37.5 -29t-31.5 -36z" />
    <glyph glyph-name="quotesinglbase" unicode="&#x201a;" horiz-adv-x="196" 
d="M97 12q-19 5 -42 29.5t-27 43.5q3 8 31.5 36t37.5 29q14 -4 39 -28q22 -22 35 -43q-26 -81 -108 -185q-22 -4 -26 20q26 26 36.5 44t20.5 54h3z" />
    <glyph glyph-name="quotedblbase" unicode="&#x201e;" horiz-adv-x="372" 
d="M267 22q-19 5 -42 29.5t-27 43.5q3 8 31.5 36t37.5 29q14 -4 39 -28q22 -22 35 -43q-26 -81 -108 -185q-22 -4 -26 20q26 26 36.5 44t20.5 54h3zM97 22q-19 5 -42 29.5t-27 43.5q3 8 31.5 36t37.5 29q14 -4 39 -28q22 -22 35 -43q-26 -81 -108 -185q-22 -4 -26 20
q26 26 36.5 44t20.5 54h3z" />
    <glyph glyph-name="Acircumflex" unicode="&#xc2;" horiz-adv-x="620" 
d="M621 34l-88 -52q-35 17 -81 175q-53 -81 -112 -81q-13 0 -37.5 4t-37.5 4q-40 0 -75 -28q6 100 46 231q47 151 101 198l-11 25q-74 -69 -124 -235q-41 -134 -47 -250q-10 -5 -56 -19q-41 -13 -57 -24v14q-8 156 92 328q88 153 184 207q-2 30 -46 54q-41 21 -86 21
q-23 0 -39 -7l-5 9q4 3 51 43q31 28 53 29q112 3 184 -125q44 -77 100 -274q53 -189 91 -247zM445 180q-43 182 -98 284q-20 0 -68 -126q-49 -130 -44 -189q4 3 8 4q20 19 52 19q15 0 46.5 -5.5t47.5 -5.5q33 0 56 19zM147 728l153 87q3 0 168 -84l-10 -11l-161 33l-141 -34
z" />
    <glyph glyph-name="Ecircumflex" unicode="&#xca;" horiz-adv-x="574" 
d="M567 150q0 -66 -87 -115.5t-185 -43.5q-120 8 -197 75q-82 71 -82 188q0 82 52 142q38 43 123 94v91q34 31 68 61q41 35 75 51q42 -11 84 -23q52 -14 87 -14q25 0 46 7q-2 -42 -40 -67q-34 -23 -77 -23q-19 0 -102 21v-196l94 72q28 -28 83 -86l-91 -87l-86 79l1 -37
q0 -32 -29 -103q8 30 8 74v290l-25 6v-317q0 -40 -32 -94q-34 -59 -70 -59q77 -57 172 -57q103 0 210 78v-7zM191 175v293q-43 -16 -67 -61q-20 -39 -20 -89q0 -117 73 -172q14 10 14 29zM147 728l153 87q3 0 168 -84l-10 -11l-161 33l-141 -34z" />
    <glyph glyph-name="Aacute" unicode="&#xc1;" horiz-adv-x="620" 
d="M621 34l-88 -52q-35 17 -81 175q-53 -81 -112 -81q-13 0 -37.5 4t-37.5 4q-40 0 -75 -28q6 100 46 231q47 151 101 198l-11 25q-74 -69 -124 -235q-41 -134 -47 -250q-10 -5 -56 -19q-41 -13 -57 -24v14q-8 156 92 328q88 153 184 207q-2 30 -46 54q-41 21 -86 21
q-23 0 -39 -7l-5 9q4 3 51 43q31 28 53 29q112 3 184 -125q44 -77 100 -274q53 -189 91 -247zM445 180q-43 182 -98 284q-20 0 -68 -126q-49 -130 -44 -189q4 3 8 4q20 19 52 19q15 0 46.5 -5.5t47.5 -5.5q33 0 56 19zM402 836l-241 -100l6 -15l285 42q13 4 13 17
q0 19 -22 39.5t-41 16.5z" />
    <glyph glyph-name="Edieresis" unicode="&#xcb;" horiz-adv-x="574" 
d="M567 150q0 -66 -87 -115.5t-185 -43.5q-120 8 -197 75q-82 71 -82 188q0 82 52 142q38 43 123 94v91q34 31 68 61q41 35 75 51q42 -11 84 -23q52 -14 87 -14q25 0 46 7q-2 -42 -40 -67q-34 -23 -77 -23q-19 0 -102 21v-196l94 72q28 -28 83 -86l-91 -87l-86 79l1 -37
q0 -32 -29 -103q8 30 8 74v290l-25 6v-317q0 -40 -32 -94q-34 -59 -70 -59q77 -57 172 -57q103 0 210 78v-7zM191 175v293q-43 -16 -67 -61q-20 -39 -20 -89q0 -117 73 -172q14 10 14 29zM355 768q0 20 13.5 34t32.5 14q20 0 33.5 -14t13.5 -34t-13.5 -34t-32.5 -14t-33 14
t-14 34zM185 768q0 20 13.5 34t32.5 14q20 0 33.5 -14t13.5 -34t-13.5 -34t-32.5 -14t-33 14t-14 34z" />
    <glyph glyph-name="Egrave" unicode="&#xc8;" horiz-adv-x="574" 
d="M567 150q0 -65 -87 -115t-185 -44q-120 8 -197 75q-82 71 -82 188q0 82 52 142q38 43 123 94v91q34 31 68 61q41 35 75 51q42 -11 84 -23q52 -14 87 -14q25 0 46 7q-2 -42 -40 -67q-34 -23 -77 -23q-19 0 -102 21v-196l94 72q28 -28 83 -86l-91 -87l-86 79l1 -37
q0 -32 -29 -103q8 30 8 74v290l-25 6v-317q0 -40 -32 -94q-34 -59 -70 -59q77 -57 172 -57q103 0 210 78v-7zM191 175v293q-43 -16 -67 -61q-20 -39 -20 -89q0 -117 73 -172q14 10 14 29zM237 836l241 -100l-6 -15l-285 42q-12 4 -12 17q0 19 21.5 39.5t40.5 16.5z" />
    <glyph glyph-name="Iacute" unicode="&#xcd;" horiz-adv-x="441" 
d="M380 590q-9 -25 -19 -50q-11 -31 -11 -72q-1 -49 2 -126q4 -100 4 -128q1 -52 -23 -98q-28 -52 -121 -117q-5 -4 -25.5 -9.5t-25.5 -5.5q-20 0 -40 6q-28 10 -38.5 11.5t-42.5 18.5q-36 18 -36 25q0 6 41 45t48 39q1 0 13 -10t17 -13q73 -43 110 -43q19 1 22 10
q8 30 3 76q-1 15 -5 95q-3 74 -3 119q0 94 14 132q19 52 116 95zM401 520q-2 -32 -2 -67q0 -27 2 -79.5t2 -81.5q0 -53 -6 -103q-1 -13 -10 -24l-12 -14l9 51q-2 139 -3 287q-1 54 32 134l-15 -4q-27 -14 -53 -28q-40 -21 -77 -22q-16 3 -104 26q-65 17 -105 16
q-14 0 -38 -17l-6 9q40 38 55 50q40 32 65 33q38 0 105.5 -20t122.5 -20q35 0 76 6q-11 -30 -21 -61q-14 -44 -17 -71zM332 836l-241 -100l6 -15l285 42q13 4 13 17q0 19 -22 39.5t-41 16.5z" />
    <glyph glyph-name="Icircumflex" unicode="&#xce;" horiz-adv-x="441" 
d="M380 590q-9 -25 -19 -50q-11 -31 -11 -72q-1 -49 2 -126q4 -100 4 -128q1 -52 -23 -98q-28 -52 -121 -117q-5 -4 -25.5 -9.5t-25.5 -5.5q-20 0 -40 6q-28 10 -38.5 11.5t-42.5 18.5q-36 18 -36 25q0 6 41 45t48 39q1 0 13 -10t17 -13q73 -43 110 -43q19 1 22 10
q8 30 3 76q-1 15 -5 95q-3 74 -3 119q0 94 14 132q19 52 116 95zM401 520q-2 -32 -2 -67q0 -27 2 -79.5t2 -81.5q0 -53 -6 -103q-1 -13 -10 -24l-12 -14l9 51q-2 139 -3 287q-1 54 32 134l-15 -4q-27 -14 -53 -28q-40 -21 -77 -22q-16 3 -104 26q-65 17 -105 16
q-14 0 -38 -17l-6 9q40 38 55 50q40 32 65 33q38 0 105.5 -20t122.5 -20q35 0 76 6q-11 -30 -21 -61q-14 -44 -17 -71zM67 728l153 87q3 0 168 -84l-10 -11l-161 33l-141 -34z" />
    <glyph glyph-name="Idieresis" unicode="&#xcf;" horiz-adv-x="441" 
d="M380 590q-9 -25 -19 -50q-11 -31 -11 -72q-1 -49 2 -126q4 -100 4 -128q1 -52 -23 -98q-28 -52 -121 -117q-5 -4 -25.5 -9.5t-25.5 -5.5q-20 0 -40 6q-28 10 -38.5 11.5t-42.5 18.5q-36 18 -36 25q0 6 41 45t48 39q1 0 13 -10t17 -13q73 -43 110 -43q19 1 22 10
q8 30 3 76q-1 15 -5 95q-3 74 -3 118q0 95 14 133q19 52 116 95zM401 520q-2 -32 -2 -67q0 -27 2 -79.5t2 -80.5q0 -54 -6 -104q-1 -13 -10 -24l-12 -14l9 51q-2 139 -3 287q-1 54 32 134l-15 -4q-27 -14 -53 -28q-40 -21 -77 -22q-21 4 -101 25q-57 16 -97 15
q-28 0 -49 -15l-6 9q40 38 55 50q40 32 65 33q38 0 105.5 -20t122.5 -20q35 0 76 6q-11 -30 -21 -61q-14 -44 -17 -71zM275 758q0 20 13.5 34t32.5 14q20 0 33.5 -14t13.5 -34t-13.5 -34t-32.5 -14t-33 14t-14 34zM105 758q0 20 13.5 34t32.5 14q20 0 33.5 -14t13.5 -34
t-13.5 -34t-32.5 -14t-33 14t-14 34z" />
    <glyph glyph-name="Igrave" unicode="&#xcc;" horiz-adv-x="441" 
d="M380 590q-9 -25 -19 -50q-11 -31 -11 -72q-1 -49 2 -126q4 -100 4 -128q1 -52 -23 -98q-28 -52 -121 -117q-5 -4 -25.5 -9.5t-25.5 -5.5q-20 0 -40 6q-28 10 -38.5 11.5t-42.5 18.5q-36 18 -36 25q0 6 41 45t48 39q1 0 13 -10t17 -13q73 -43 110 -43q19 1 22 10
q8 30 3 76q-1 15 -5 95q-3 74 -3 118q0 95 14 133q19 52 116 95zM401 520q-2 -32 -2 -67q0 -27 2 -79.5t2 -81.5q0 -53 -6 -103q-1 -13 -10 -24l-12 -14l9 51q-2 139 -3 287q-1 54 32 134l-15 -4q-27 -14 -53 -28q-40 -21 -77 -22q-16 3 -104 26q-65 17 -105 16
q-14 0 -38 -17l-6 9q40 38 55 50q40 32 65 33q38 0 105.5 -20t122.5 -20q35 0 76 6q-11 -30 -21 -61q-14 -44 -17 -71zM137 836l241 -100l-6 -15l-285 42q-12 4 -12 17q0 19 21.5 39.5t40.5 16.5z" />
    <glyph glyph-name="Oacute" unicode="&#xd3;" horiz-adv-x="671" 
d="M647 372q0 -105 -47 -173q-16 -24 -121 -128q-44 -44 -79 -61q-41 -20 -99 -20q-120 0 -212 101t-92 222q0 146 133 263q129 114 276 114q18 -28 87 -60q73 -33 104 -71q50 -64 50 -187zM542 315q0 83 -26 135q-29 60 -99 95q-4 2 -17 16q-11 11 -20 10q-5 -41 0 -268
q0 -14 -12.5 -37.5t-25.5 -27.5q1 1 9 22q5 15 5 22q-7 236 0 299q0 9 -23 7q-11 -9 -11 -102q0 -42 2.5 -109t2.5 -73q0 -63 -34 -92q-38 -25 -75 -50q1 5 9 48q6 29 6 49q0 224 1 263q1 29 20.5 52t19.5 21q0 6 -19 6q-86 0 -127 -73q-32 -58 -32 -152q0 -111 80 -205
q85 -101 198 -98q51 1 85 12q40 14 65 102q18 68 18 128zM432 836l-241 -100l6 -15l285 42q13 4 13 17q0 19 -22 39.5t-41 16.5z" />
    <glyph glyph-name="Ocircumflex" unicode="&#xd4;" horiz-adv-x="671" 
d="M647 372q0 -105 -47 -173q-16 -24 -121 -128q-44 -44 -79 -61q-41 -20 -99 -20q-120 0 -212 101t-92 222q0 146 133 263q129 114 276 114q18 -28 87 -60q73 -33 104 -71q50 -64 50 -187zM542 315q0 83 -26 135q-29 60 -99 95q-4 2 -17 16q-11 11 -20 10q-5 -41 0 -268
q0 -14 -12.5 -37.5t-25.5 -27.5q1 1 9 22q5 15 5 22q-7 236 0 299q0 9 -23 7q-11 -9 -11 -102q0 -42 2.5 -109t2.5 -73q0 -63 -34 -92q-38 -25 -75 -50q1 5 9 48q6 29 6 49q0 224 1 263q1 29 20.5 52t19.5 21q0 6 -19 6q-86 0 -127 -73q-32 -58 -32 -152q0 -111 80 -205
q85 -101 198 -98q51 1 85 12q40 14 65 102q18 68 18 128zM177 728l153 87q3 0 168 -84l-10 -11l-161 33l-141 -34z" />
    <glyph glyph-name="Ograve" unicode="&#xd2;" horiz-adv-x="671" 
d="M647 372q0 -105 -47 -173q-16 -24 -121 -128q-44 -44 -79 -61q-41 -20 -99 -20q-120 0 -212 101t-92 222q0 146 133 263q129 114 276 114q18 -28 87 -60q73 -33 104 -71q50 -64 50 -187zM542 315q0 83 -26 135q-29 60 -99 95q-4 2 -17 16q-11 11 -20 10q-5 -41 0 -268
q0 -14 -12.5 -37.5t-25.5 -27.5q1 1 9 22q5 15 5 22q-7 236 0 299q0 9 -23 7q-11 -9 -11 -102q0 -42 2.5 -109t2.5 -73q0 -63 -34 -92q-38 -25 -75 -50q1 5 9 48q6 29 6 49q0 224 1 263q1 29 20.5 52t19.5 21q0 6 -19 6q-86 0 -127 -73q-32 -58 -32 -152q0 -111 80 -205
q85 -101 198 -98q51 1 85 12q40 14 65 102q18 68 18 128zM237 836l241 -100l-6 -15l-285 42q-12 4 -12 17q0 19 21.5 39.5t40.5 16.5z" />
    <glyph glyph-name="Uacute" unicode="&#xda;" horiz-adv-x="565" 
d="M194 169q-14 18 -15 22q-1 12 -2 25v399q0 3 7.5 -8.5t9.5 -11.5v-426zM551 632q-74 -48 -88 -88q-8 -21 -7 -124l1 -335l70 55l3 -20l-166 -130q-22 29 -17 107l-133 -112q-58 14 -111 53q-64 47 -64 100v203q-1 138 -1 203q0 52 -39 52q-5 0 -11 -2q31 48 98 92
q57 -21 55 -116q-3 -105 0 -377q3 -38 35 -68q40 -40 110 -40q10 0 31 15.5t30 16.5q-3 22 0 282q-3 9 -3 21q0 86 110 148h-54q-16 0 -69 17q-56 17 -57 25l109 81q58 -48 77 -54q15 -5 91 -5zM362 836l-241 -100l6 -15l285 42q13 4 13 17q0 19 -22 39.5t-41 16.5z" />
    <glyph glyph-name="Ucircumflex" unicode="&#xdb;" horiz-adv-x="565" 
d="M194 169q-14 18 -15 22q-1 12 -2 25v399q0 3 7.5 -8.5t9.5 -11.5v-426zM551 632q-74 -48 -88 -88q-8 -21 -7 -124l1 -335l70 55l3 -20l-166 -130q-22 29 -17 107l-133 -112q-58 14 -111 53q-64 47 -64 100v203q-1 138 -1 203q0 52 -39 52q-5 0 -11 -2q31 48 98 92
q57 -21 55 -116q-3 -105 0 -377q3 -38 35 -68q40 -40 110 -40q10 0 31 15.5t30 16.5q-3 22 0 282q-3 9 -3 21q0 86 110 148h-54q-16 0 -69 17q-56 17 -57 25l109 81q58 -48 77 -54q15 -5 91 -5zM127 728l153 87q3 0 168 -84l-10 -11l-161 33l-141 -34z" />
    <glyph glyph-name="Ugrave" unicode="&#xd9;" horiz-adv-x="565" 
d="M194 169q-14 18 -15 22q-1 12 -2 25v399q0 3 7.5 -8.5t9.5 -11.5v-426zM551 632q-74 -48 -88 -88q-8 -21 -7 -124l1 -335l70 55l3 -20l-166 -130q-22 29 -17 107l-133 -112q-58 14 -111 53q-64 47 -64 100v203q-1 138 -1 203q0 52 -39 52q-5 0 -11 -2q31 48 98 92
q57 -21 55 -116q-3 -105 0 -377q3 -38 35 -68q40 -40 110 -40q10 0 31 15.5t30 16.5q-3 22 0 282q-3 9 -3 21q0 86 110 148h-54q-16 0 -69 17q-56 17 -57 25l109 81q58 -48 77 -54q15 -5 91 -5zM177 836l241 -100l-6 -15l-285 42q-12 4 -12 17q0 19 21.5 39.5t40.5 16.5z
" />
    <glyph glyph-name="circumflex" unicode="&#x2c6;" horiz-adv-x="467" 
d="M118 514l130 74q2 0 143 -72l-9 -9l-136 28l-120 -29z" />
    <glyph glyph-name="tilde" unicode="&#x2dc;" horiz-adv-x="355" 
d="M59 524l7 -9q22 15 43 20q6 1 46 3q16 -10 92 -31q49 7 100 58l-9 13q-22 -22 -59 -22q-21 0 -54.5 15t-66.5 15q-40 0 -99 -62z" />
    <glyph glyph-name="macron" unicode="&#xaf;" horiz-adv-x="417" 
d="M80 569h282v-44h-282v44z" />
    <glyph glyph-name="macron" unicode="&#x2c9;" horiz-adv-x="417" 
d="M80 569h282v-44h-282v44z" />
    <glyph glyph-name="cedilla" unicode="&#xb8;" horiz-adv-x="368" 
d="M192 2l-16 -49q26 5 21 5q29 0 53 -19q25 -22 25 -52q0 -22 -19.5 -35.5t-38.5 -25.5q-43 -5 -79 4l5 21q12 -3 26 -3q62 0 62 47q0 36 -41 36q-16 0 -47 -15l27 84z" />
    <glyph glyph-name="Scaron" unicode="&#x160;" 
 />
    <glyph glyph-name="scaron" unicode="&#x161;" 
 />
    <glyph glyph-name="brokenbar" unicode="&#xa6;" 
 />
    <glyph glyph-name="Eth" unicode="&#xd0;" 
 />
    <glyph glyph-name="eth" unicode="&#xf0;" 
 />
    <glyph glyph-name="Yacute" unicode="&#xdd;" 
 />
    <glyph glyph-name="yacute" unicode="&#xfd;" 
 />
    <glyph glyph-name="Thorn" unicode="&#xde;" 
 />
    <glyph glyph-name="thorn" unicode="&#xfe;" 
 />
    <glyph glyph-name="minus" unicode="&#xad;" 
 />
    <glyph glyph-name="minus" unicode="&#x2212;" 
 />
    <glyph glyph-name="multiply" unicode="&#xd7;" 
 />
    <glyph glyph-name="onesuperior" unicode="&#xb9;" 
 />
    <glyph glyph-name="twosuperior" unicode="&#xb2;" 
 />
    <glyph glyph-name="threesuperior" unicode="&#xb3;" 
 />
    <glyph glyph-name="onehalf" unicode="&#xbd;" 
 />
    <glyph glyph-name="onequarter" unicode="&#xbc;" 
 />
    <glyph glyph-name="threequarters" unicode="&#xbe;" 
 />
    <glyph glyph-name=".null" 
 />
    <glyph glyph-name="Lslash" unicode="&#x141;" 
 />
    <glyph glyph-name="lslash" unicode="&#x142;" 
 />
    <glyph glyph-name="HT" 
 />
    <glyph glyph-name="LF" 
 />
    <glyph glyph-name="nonmarkingreturn" 
 />
    <glyph glyph-name="Zcaron" unicode="&#x17d;" 
 />
    <glyph glyph-name="zcaron" unicode="&#x17e;" 
 />
    <glyph glyph-name="DLE" 
 />
    <glyph glyph-name="DC1" 
 />
    <glyph glyph-name="DC2" 
 />
    <glyph glyph-name="DC3" 
 />
    <glyph glyph-name="DC4" 
 />
    <glyph glyph-name="RS" 
 />
    <glyph glyph-name="US" 
 />
    <glyph glyph-name="DEL" horiz-adv-x="252" 
 />
    <glyph glyph-name="infinity" unicode="&#x221e;" 
 />
    <glyph glyph-name="lessequal" unicode="&#x2264;" 
 />
    <glyph glyph-name="greaterequal" unicode="&#x2265;" 
 />
    <glyph glyph-name="partialdiff" unicode="&#x2202;" horiz-adv-x="229" 
d="M3 263l57 35v249q-2 13 -8 39q-11 43 -42 57v8q26 -8 54 -4q8 1 60 21q49 19 64 19l38 -1v-10q0 -1 -17 -5q-58 -14 -63 -95q-1 -12 -1 -34v-194l74 45v-38l-74 -44v-148q-2 -17 10.5 -43t26.5 -26q8 0 21.5 14t14.5 14q2 0 8 -11q-9 -7 -60 -60t-54 -59q-24 27 -47 55
q-30 37 -46 47q37 41 42 66l-1 100l-57 -35v38z" />
    <glyph glyph-name="summation" unicode="&#x2211;" horiz-adv-x="565" 
d="M527 195q0 -79 -50 -145q-53 -70 -129 -70q-46 0 -139.5 24.5t-141.5 24.5q-16 0 -90 -24q44 58 79 82q48 34 108 34q51 0 122 -18q58 -16 117 -32q14 -5 27 9q-3 56 -2 106q1 146 -77 146q-20 0 -76 -75q-23 28 -74 91l-74 -74q-22 -6 -73 45q-59 58 -62 123t64.5 153.5
t124.5 88.5q56 0 132 -18q122 -29 131 -31q13 -2 36 7t34 19l10 -3q-108 -111 -144 -111q-47 0 -144.5 26t-119.5 26q-16 0 -25 -22q-15 -34 -13 -65q3 -60 27 -100q30 -51 86 -51q15 0 49 31q27 25 42 45l70 -86q16 16 32 33q32 29 57 29q38 0 64 -43q22 -37 22 -78v-97z
M423 805l-149 -85q-3 0 -165 83l10 10l158 -32l137 33z" />
    <glyph glyph-name="product" unicode="&#x220f;" horiz-adv-x="404" 
d="M252 38q-8 -4 -28.5 -28.5t-25.5 -23.5q-65 51 -173 75l84 94q-79 48 -80 105q0 38 43 90q33 40 82 76q44 33 51 29q22 -10 62 -29q15 -11 55 -25q5 1 17.5 15.5t14.5 16.5q1 0 12 -11q-5 -11 -50.5 -59.5t-45.5 -54.5q0 -1 52 -45q49 -43 49 -92q0 -33 -43 -77
q-38 -37 -76 -56zM160 388q-25 0 -47 -22t-22 -47q0 -41 88 -88q5 -3 88 105q-66 52 -107 52zM207 230q-3 0 -42.5 -43t-44.5 -50q62 -32 129 -65q25 -4 44.5 13.5t19.5 42.5q0 28 -41 65t-65 37zM337 577l-130 -74q-3 0 -143 71l8 9l137 -28l120 29z" />
    <glyph glyph-name="pi" unicode="&#x3c0;" horiz-adv-x="547" 
d="M559 -160q-22 21 -42 27q-12 4 -46 9q-12 2 -24 2q-40 0 -89 -22q-82 -36 -86 -37q-18 -2 -69 -6q-39 -3 -71 13q-43 23 -38 72q1 13 56.5 105.5t54.5 109.5q-1 13 -88 244q-71 190 -96 255q-1 1 -2 1q-5 0 -23 -15l-6 16q23 21 41 37q43 37 56 38q28 2 44 -27
q7 -14 16 -55q8 -33 140 -358q40 56 96 206q51 137 47 141q-23 -15 -68 -18q-29 -2 -61 17.5t-46 19.5q-9 0 -18 -4q-16 -18 -36 -39q-3 -2 -5 -2t-5.5 6t-8.5 7q-2 16 48.5 61.5t75.5 47.5q22 2 66.5 -16.5t86.5 -15.5q34 11 61 32q-41 -102 -77 -187q-85 -204 -130 -288
q-23 -43 -148 -257q-3 -6 -3 -11q0 -14 19 -24l-6 -6v1q0 -4 64 98q79 126 144 258q94 188 153 373q9 1 11 -3q3 -4 0 -18q-36 -173 -176 -439q-124 -236 -172 -274q9 -6 23 -6q11 0 29 4q24 6 28 6q95 49 172 49q47 0 80 -37q30 -34 30 -73q0 -9 -2 -18zM370 845l-235 -98
l5 -15l279 41q12 5 12 17q0 19 -21 39t-40 16z" />
    <glyph glyph-name="integral" unicode="&#x222b;" horiz-adv-x="432" 
d="M320 157q-52 -90 -119 -208q-14 -28 -45 -82q-9 -14 -12.5 -17t-10.5 -3q-6 0 -17 7q73 96 73 117q0 3 -11 34l-16 48q-22 72 -73 213q-29 71 -84 123q3 10 31 44.5t33 34.5q10 0 37 -32q24 -28 28.5 -35l13.5 -21q1 -2 0 -12q0 -5 6 -6q4 4 24 35q46 73 120 77
q43 2 81 -38.5t34 -79.5q-5 -38 -93 -199zM245 412q-17 0 -46 -31t-29 -50q0 -40 28 -122l47 -135q17 23 65 116q53 102 53 125q0 34 -47 67q-41 30 -71 30zM288 617l-205 -85l5 -12l242 35q11 4 11 15q0 16 -18.5 33.5t-34.5 13.5z" />
    <glyph glyph-name="Omega" unicode="&#x3a9;" horiz-adv-x="567" 
d="M1 377l63 1q19 90 150 171q53 32 109 32q32 0 59.5 -13t46.5 -13q29 0 75 22q7 -8 7 -28q0 -33 -37 -57t-75 -24q-28 0 -70.5 12.5t-73.5 12.5q-55 0 -95 -32.5t-55 -82.5l220 -1v-46h-226q-2 -38 0 -47h226v-47h-208q24 -73 126 -124q31 -15 53 -18q14 -2 65 -2
q98 0 152 84q16 -3 16 -17q0 -38 -51.5 -94.5t-89.5 -67.5q-32 -9 -80 -9q-98 0 -171 76q-67 71 -81 172h-55v47h54q-1 16 0 47h-54v46z" />
    <glyph glyph-name="Omega" unicode="&#x2126;" horiz-adv-x="567" 
d="M1 377l63 1q19 90 150 171q53 32 109 32q32 0 59.5 -13t46.5 -13q29 0 75 22q7 -8 7 -28q0 -33 -37 -57t-75 -24q-28 0 -70.5 12.5t-73.5 12.5q-55 0 -95 -32.5t-55 -82.5l220 -1v-46h-226q-2 -38 0 -47h226v-47h-208q24 -73 126 -124q31 -15 53 -18q14 -2 65 -2
q98 0 152 84q16 -3 16 -17q0 -38 -51.5 -94.5t-89.5 -67.5q-32 -9 -80 -9q-98 0 -171 76q-67 71 -81 172h-55v47h54q-1 16 0 47h-54v46z" />
    <glyph glyph-name="radical" unicode="&#x221a;" 
 />
    <glyph glyph-name="approxequal" unicode="&#x2248;" 
 />
    <glyph glyph-name="approxequal" unicode="&#x22f2;" 
 />
    <glyph glyph-name="Delta" unicode="&#x394;" 
 />
    <glyph glyph-name="Delta" unicode="&#x2206;" 
 />
    <glyph glyph-name="lozenge" unicode="&#x25ca;" horiz-adv-x="312" 
d="M162 149l-113 153l113 152l113 -152z" />
    <glyph glyph-name="dotlessi" unicode="&#x131;" horiz-adv-x="221" 
d="M10 390q28 28 76 71l90 -75q-18 -13 -26 -22q-17 -20 -18 -44l-1 -207q0 -10 50 -52q6 3 19 15q2 2 5.5 -3t4.5 -8q-36 -29 -106 -73l-94 80q8 6 39 42v215q-6 31 -39 61z" />
    <glyph glyph-name="breve" unicode="&#x2d8;" horiz-adv-x="417" 
d="M100 589q88 -38 125 -38q43 0 117 38l1 -23q-89 -58 -126 -58q-41 0 -117 58v23z" />
    <glyph glyph-name="dotaccent" unicode="&#x2d9;" horiz-adv-x="250" 
d="M99 550q0 18 12.5 31t29.5 13t29.5 -13t12.5 -31q0 -19 -12.5 -32t-29.5 -13t-29.5 13t-12.5 32z" />
    <glyph glyph-name="ring" unicode="&#x2da;" horiz-adv-x="270" 
d="M150 643q26 0 44.5 -18.5t18.5 -44.5t-18.5 -44.5t-44.5 -18.5t-44 18.5t-18 44.5t18 44.5t44 18.5zM150 618q-15 0 -26 -11t-11 -27t11 -27t26 -11q16 0 27 11t11 27t-11 27t-27 11z" />
    <glyph glyph-name="hungarumlaut" unicode="&#x2dd;" horiz-adv-x="308" 
d="M245 631l-68 -118l4 -9l95 82q8 3 8 11q0 11 -12 23t-23 12zM159 631l-69 -118l4 -9l95 82q8 3 8 11q0 11 -11.5 23t-22.5 12z" />
    <glyph glyph-name="ogonek" unicode="&#x2db;" horiz-adv-x="322" 
d="M221 1q-34 -9 -52 -45q-17 -32 -17 -73q0 -23 12.5 -39t33.5 -16q27 0 46 32l17 -10q-18 -30 -22 -34q-16 -15 -50 -17q-40 -2 -61 24q-19 22 -19 57q0 110 107 141z" />
    <glyph glyph-name="caron" unicode="&#x2c7;" horiz-adv-x="467" 
d="M391 580l-130 -74q-3 0 -143 72l9 9l136 -28l120 29z" />
    </font>
</defs>
</svg>
