<?xml version="1.0" standalone="no"?>
<!DOCTYPE svg PUBLIC "-//W3C//DTD SVG 1.1//EN" "http://www.w3.org/Graphics/SVG/1.1/DTD/svg11.dtd" >
<svg>
<metadata>
Created by FontForge 20120731 at Mon Apr 15 12:15:35 2019
 By www-data
Digitized by Dan X. Solo. Software (c) 1999 by Dover Publications, Inc., New York.
</metadata>
<defs>
<font id="HansaGothic" horiz-adv-x="20" >
  <font-face 
    font-family="Hansa Gothic"
    font-weight="400"
    font-stretch="normal"
    units-per-em="1000"
    panose-1="0 0 4 0 0 0 0 0 0 0"
    ascent="800"
    descent="-200"
    x-height="408"
    cap-height="697"
    bbox="-143 -258 1016 850"
    underline-thickness="20"
    underline-position="-123"
    unicode-range="U+0020-F002"
  />
<missing-glyph horiz-adv-x="500" 
d="M63 0v800h375v-800h-375zM125 63h250v675h-250v-675z" />
    <glyph glyph-name=".notdef" horiz-adv-x="500" 
d="M63 0v800h375v-800h-375zM125 63h250v675h-250v-675z" />
    <glyph glyph-name="glyph1" horiz-adv-x="0" 
 />
    <glyph glyph-name="glyph2" horiz-adv-x="197" 
 />
    <glyph glyph-name="space" unicode=" " horiz-adv-x="197" 
 />
    <glyph glyph-name="exclam" unicode="!" horiz-adv-x="243" 
d="M125 186h-20l-35 370q-16 4 -38 34q53 38 86 88q25 -75 96 -85q-25 -23 -59 -39zM115 -2q-33 37 -69 68q37 35 69 74q27 -28 73 -68q-37 -28 -73 -74z" />
    <glyph glyph-name="quotedbl" unicode="&#x22;" horiz-adv-x="293" 
d="M88 417h-16l-20 114q-13 77 -13 111q0 46 40 46q41 0 41 -48q0 -36 -13 -110q-10 -57 -19 -113zM218 417h-16l-20 113q-12 71 -12 110q0 48 39 48q41 0 41 -46q0 -35 -13 -112z" />
    <glyph glyph-name="numbersign" unicode="#" horiz-adv-x="442" 
d="M379 405h-88l-21 -141h94l-8 -56h-94l-31 -185h-39l31 185h-88l-31 -185h-38l30 185h-92l9 56h91l22 141h-99l9 56h98l28 185h40l-29 -185h87l29 185h39l-29 -185h89zM164 405l-22 -141h90l21 141h-89z" />
    <glyph glyph-name="dollar" unicode="$" horiz-adv-x="384" 
d="M166 367v145h-1q-16 1 -27.5 -20t-11.5 -40v-47q0 -27 40 -38zM185 347v-147l12 -4q29 4 37 33q4 14 4 54q0 59 -53 64zM166 673h19v-117q20 17 24 30q21 -14 42 -29q32 -22 43 -22q4 0 13.5 3t14.5 3h7q-12 -25 -76 -73q-41 25 -68 37v-142q3 0 8.5 2t7.5 2q32 0 64 36
q59 -45 83 -52q-11 -10 -23 -20q-5 -6 -5 -30q0 -88 22 -109q-34 8 -56 8q-57 0 -101 -37v-167h-19v150q-7 -8 -20 -16q-84 41 -119 41q-13 0 -35 -8q4 10 40 40q24 20 47 40l87 -35v139q-39 -4 -65 -44q-13 6 -38 26t-40 25q1 2 17 20q14 15 14 50q0 70 -25 102q4 5 7 5
q-1 0 15 -9.5t31 -9.5h18q23 0 66 30v131z" />
    <glyph glyph-name="percent" unicode="%" horiz-adv-x="665" 
d="M592 320v-196q0 -33 13 -76q-26 6 -41 6q-68 0 -128 -64q-30 46 -62 46q-8 0 -23 -4q6 42 36 65v187q0 38 -15 70q21 -2 29 -2q84 0 152 64q18 -56 49 -56q3 0 15 3q-8 -27 -25 -43zM165 -9h-26l335 699h25zM250 591v-197q0 -32 13 -75q-27 6 -42 6q-67 0 -128 -64
q-30 46 -62 46q-8 0 -23 -4q7 42 37 65v187q0 38 -15 70q21 -2 29 -2q84 0 152 64q18 -56 49 -56q6 0 15 2q-8 -26 -25 -42zM532 306q-26 9 -46 46q-22 -9 -38 -13v-237q32 -14 47 -49q21 8 37 13v240zM190 577q-28 10 -48 46q-21 -9 -37 -13v-237q32 -14 47 -49q19 7 38 13
v240z" />
    <glyph glyph-name="ampersand" unicode="&#x26;" horiz-adv-x="563" 
d="M500 15q4 0 5 -2q0 -4 -15 -12t-21 -8q-14 0 -22 10q-13 17 -20 21q-17 -14 -21 -31l-22 34q-14 -29 -22 -33q-13 -2 -25 -5q5 12 5 25q0 27 -22 65q-18 26 -36 53q-1 0 -16 -33q-16 -38 -25 -51t-33 -32q-27 -21 -43 -23q-54 -7 -95 39q-1 2 -35 48q-13 19 -45 34
q10 6 18 20q14 25 26 80q15 67 59 106q29 21 59 42q-10 16 -34 52q-35 58 -35 114q0 61 43 98.5t117 32.5q25 -1 54 -19t38 -37.5t16 -38.5q13 -25 27 -28q-10 -5 -23 -5q-10 0 -21.5 3.5l-11.5 3.5q-5 0 -18 -17.5t-17 -23.5q0 26 -22 37q-11 -7 -24 -7q-16 0 -26 11l-1 1
q36 18 36 33q0 13 -12 31q-14 23 -32 23q-21 0 -36 -17t-15 -39q0 -9 3 -18q1 -5 158 -282l60 118q24 47 73 47q15 0 31 -5q61 -17 61 -67q0 -27 -18 -60q-15 -26 -32 -42q-7 0 -15 -1l-12 48q-34 -8 -52 9q0 5 19.5 13.5t19.5 27.5q0 25 -27 25q-23 0 -35 -21
q-7 -12 -27 -53q-25 -53 -25 -65q0 -17 114 -192q24 -37 47 -37zM266 163q0 14 -72 129q-7 11 -44 -42q-39 -56 -47 -101q-3 -16 -3 -32q0 -45 24 -71q21 -22 52 -22q24 0 58 60q32 56 32 79z" />
    <glyph glyph-name="quotesingle" unicode="'" horiz-adv-x="170" 
d="M91 403h-16q-7 39 -21 119t-14 114q0 49 43 49q42 0 42 -48q0 -33 -14 -115z" />
    <glyph glyph-name="parenleft" unicode="(" horiz-adv-x="241" 
d="M6 328q0 -283 181 -432l10 7q-58 84 -89 202q-29 109 -29 220q0 184 111 405l-10 6q-69 -61 -121.5 -187t-52.5 -221z" />
    <glyph glyph-name="parenright" unicode=")" horiz-adv-x="244" 
d="M186 328q0 -283 -181 -432l-10 7q117 169 117 422q0 184 -110 405l10 6q69 -61 121.5 -187t52.5 -221z" />
    <glyph glyph-name="asterisk" unicode="*" horiz-adv-x="442" 
d="M180 475q-34 -19 -51 -38q-18 -24 -35.5 -46.5t-43.5 -22.5q-19 0 -32 13t-13 32q0 49 84 55q34 3 79 28q-13 7 -33 18q-17 8 -36 10q-53 6 -61 9q-33 12 -33 47q0 19 13 31.5t32 12.5q23 0 40 -16l38 -48t52 -42v18q0 27 -17.5 67t-17.5 54q0 20 13.5 35.5t33.5 15.5
t33.5 -15.5t13.5 -36.5q0 -14 -20 -56q-15 -31 -15 -82q24 14 32 20q18 13 55 66q19 20 44 20q19 0 32 -12.5t13 -31.5q0 -32 -29 -45q-14 -6 -58 -11q-38 -5 -76 -28q42 -24 68 -27q53 -7 62 -10q33 -12 33 -46q0 -19 -12 -31t-31 -12q-22 0 -40 17q-8 7 -39 45
q-19 23 -54 43v-18q0 -26 17 -66t17 -54q0 -21 -13 -36.5t-33 -15.5t-33.5 15.5t-13.5 35.5q0 10 17.5 54.5t17.5 84.5z" />
    <glyph glyph-name="plus" unicode="+" horiz-adv-x="478" 
d="M187 486h46v-177h174v-46h-174v-177h-46v177h-174v46h174v177z" />
    <glyph glyph-name="comma" unicode="," horiz-adv-x="195" 
d="M46 32l80 84q49 -74 47 -131q-2 -75 -83 -121q10 27 11 51q2 66 -55 117z" />
    <glyph glyph-name="hyphen" unicode="-" horiz-adv-x="325" 
d="M45 180l49 99q6 -21 31 -21h134q36 0 69 20l-41 -89q-15 15 -44 15h-131q-21 0 -67 -24z" />
    <glyph glyph-name="hyphen" unicode="&#x2010;" horiz-adv-x="325" 
d="M45 180l49 99q6 -21 31 -21h134q36 0 69 20l-41 -89q-15 15 -44 15h-131q-21 0 -67 -24z" />
    <glyph glyph-name="period" unicode="." horiz-adv-x="221" 
d="M24 35l68 81q39 -56 74 -56q9 0 29 7q-39 -80 -91 -80q-48 0 -80 48z" />
    <glyph glyph-name="slash" unicode="/" horiz-adv-x="255" 
d="M-13 -49l249 767h38l-250 -767h-37z" />
    <glyph glyph-name="zero" unicode="0" horiz-adv-x="457" 
d="M390 555v-430l15 -63h-69l-206 -69l-104 54h-34v7l52 54v440l-20 59h48l231 83l97 -70q22 6 30 11t16 8q2 -8 2 -5q0 -3 -58 -79zM290 98l2 451q-41 24 -45.5 27t-38.5 33q-28 -7 -72 -20l3 -468q31 -20 99 -58l49 14z" />
    <glyph glyph-name="one" unicode="1" horiz-adv-x="372" 
d="M326 87l-94 -106q-54 33 -71 41q-29 13 -64 13q-18 0 -32 -4.5t-28 -9.5v9q0 27 53.5 57.5t53.5 43.5l-1 393q-3 27 -22 44q-11 10 -36.5 21t-31.5 17q1 2 28 12q31 13 66 39q31 22 32 22q45 -8 58 -94l-1 -464q0 -11 27 -24q23 -11 31 -11q9 0 13.5 5.5t9.5 6.5
q9 -3 9 -11z" />
    <glyph glyph-name="two" unicode="2" horiz-adv-x="479" 
d="M445 103l-99 -110q-53 27 -84 36q-40 12 -90 12q-38 0 -71 -9q-11 -3 -36 -20q-21 -15 -36 -15q-22 0 -22 94q0 107 60 168t193 95q11 3 19 13.5t6 21.5l-1 134v41q-3 29 -18 29q4 0 -38 -26.5t-78 -26.5q-34 0 -65 23q-35 26 -43 69q3 0 14.5 -1t14.5 -1q38 0 74 24.5
t35 24.5q-4 0 56 -41t101 -41q10 0 33 3.5t28 3.5q4 0 4 -2t-24 -101q0 -10 -1 -44q-1 -28 -1 -46q0 -68 17 -110h-11q1 0 -19.5 3.5t-47.5 3.5q-122 0 -196 -47q-93 -59 -93 -186q0 -25 9 -36q75 103 188 103q62 0 120 -23t53 -23q3 0 16 13.5t16 15.5q5 0 11 -7t6 -15z
" />
    <glyph glyph-name="three" unicode="3" horiz-adv-x="487" 
d="M404 116q-1 -26 17 -64q-13 3 -34 3q-67 0 -112 -17q-29 -10 -99 -52q-62 45 -113 45q-21 0 -57 -23l-4 11q26 57 67 77q33 17 99 17q18 0 52 -18.5t47 -34.5q10 1 38 12v219q-5 4 -37.5 19.5t-36.5 15.5q-16 0 -46 -37q-1 22 0 67l15 -5q23 9 111 52v175l-50 14
q-55 -48 -92 -48q-39 0 -73.5 25t-46.5 61q33 -6 48 -6q22 0 40 12q11 8 46 43q60 -49 87 -63q39 -20 87 -20q26 0 61 5q-7 -17 -14 -52v-134q3 -13 15 -43q-58 3 -54 3q-77 0 -107 -30q20 -27 99 -27q13 0 34.5 1t27.5 1q-7 -25 -15 -56q1 -84 0 -148z" />
    <glyph glyph-name="four" unicode="4" horiz-adv-x="487" 
d="M445 157q-50 26 -86 23v-55q0 -19 21 -31q16 -9 30 -9q4 0 26 11q5 -5 7 -5v-10l-104 -88q-27 15 -53 30q-20 10 -44 10q-15 0 -58 -15q-3 3 -3 8q0 31 75 84l1 70q-248 -4 -248 0l1 128q0 23 15.5 39t31.5 31q66 75 131 149q76 89 114 152q17 -22 34 -45q27 -34 57 -29
q2 -3 2 -8q0 -17 -40 -63v-315q56 7 90 34v-96zM259 546l-10 7q-154 -176 -153 -180v-156l161 2z" />
    <glyph glyph-name="five" unicode="5" horiz-adv-x="470" 
d="M422 398q0 -14 -28 -41q-29 -30 -31 -34l1 -203q0 -39 16 -63q-26 7 -43 7q-56 0 -111 -20q-17 -6 -38 -24q-17 -16 -33 -32l-48 38q-22 14 -52 13q-4 0 -11.5 1t-10.5 1q-18 0 -43 -29q6 48 30 74q17 20 48 29q23 6 47 12q58 -20 120 -57l30 16l2 233q1 7 -9 12.5
t-39 26.5q-23 17 -26 17t-58 -23.5t-59 -28.5l-10 -20t-17 -10q-19 0 -19 20t8 25q12 6 14.5 14.5t1.5 27.5q-1 26 -1 21v265h348q-21 -97 -72 -102q-5 -1 -47 -1l-191 1v-205q110 50 181 99q56 -55 105 -60q18 5 45 14v-14z" />
    <glyph glyph-name="six" unicode="6" horiz-adv-x="457" 
d="M441 400q-5 -19 -27 -43t-22 -25v-230q0 -12 17 -43q-53 -2 -72 -4q-57 -6 -80 -16q-44 -20 -72 -38q-20 -13 -21 -13q3 0 -36 30t-72 30q-19 0 -32.5 -7t-19.5 -8q-2 14 19 38q26 32 29 39v413q-1 18 -3.5 37.5t-15.5 42.5q137 7 262 83q7 -15 25 -34q24 -24 43 -24
q6 0 18 6.5t22 9.5q-19 -44 -54 -69q-31 -22 -65 -22q-26 0 -62.5 28t-34.5 28q-6 0 -23.5 -7.5t-17.5 -11.5q0 -2 2 -3v-242q7 -7 93 46q14 8 51 36q31 23 34 23q1 0 27 -27.5t53 -27.5q6 0 16 2.5t19 2.5zM298 100l-2 219q-8 23 -57 46q-6 0 -43 -19q-40 -21 -46 -31
l1 -191q1 -7 22 -12q29 -7 42 -15q9 -6 25 -21q13 -13 16 -13q42 0 42 37z" />
    <glyph glyph-name="seven" unicode="7" horiz-adv-x="414" 
d="M410 677q0 -52 -63 -134q-107 -140 -116 -154q-63 -100 -63 -199q0 -28 9 -51q14 -37 45 -37q2 0 12.5 5t12.5 5q9 0 9 -9q0 1 -40 -50q-12 -18 -23 -35q-18 -25 -27 -25q-59 0 -91 60q-24 45 -24 95q0 95 80 203q37 51 153 169q87 90 97 130q-75 -53 -117 -74
q-59 -29 -114 -29q-41 0 -69 10q-18 6 -36 18q-14 10 -20 10q-5 0 -25 -15q-7 3 -10 10l102 110q43 -51 135 -51q104 0 180 51q3 -5 3 -13z" />
    <glyph glyph-name="eight" unicode="8" horiz-adv-x="427" 
d="M376 62q-58 2 -123 -24q-42 -17 -112 -59l-36 42q-39 39 -77 39q-6 0 -12 -1q8 18 18 61q-1 65 0 144q-4 14 -15 56q115 -1 150 24q-37 31 -96 31q3 0 -54 -3q8 16 15 43v134q-5 17 -18 53q58 -2 122 25q38 16 110 59q18 -22 36 -43q40 -42 78 -42q5 0 11 1
q-7 -17 -13 -53v-134q3 -13 15 -43q-58 3 -54 3q-72 0 -99 -28q21 -31 102 -31q28 0 51 4q-7 -25 -16 -52q1 -89 0 -154q3 -14 17 -52zM268 553l-81 72q-15 -12 -27 -15l-34 -8l1 -199q20 -14 66 -36q23 8 74 36zM262 71l-1 220q-6 5 -34 20t-32 15q-13 0 -63 -35
q-1 -30 0 -177l76 -69q19 16 54 26z" />
    <glyph glyph-name="nine" unicode="9" horiz-adv-x="457" 
d="M4 274q6 19 27.5 43t21.5 25v230q0 12 -17 43q53 2 73 4q57 6 80 16q44 20 72 38l20 13q-2 0 36.5 -30t71.5 -30q20 0 33.5 7t18.5 8q2 -14 -18 -38q-27 -32 -30 -39v-412q2 -19 3 -37q3 -21 16 -44q-137 -7 -262 -83q-7 15 -25 34q-23 24 -43 24q-6 0 -16 -6
q-14 -7 -23 -10q18 45 53 69q32 22 65 22q26 0 62.5 -28t35.5 -28q5 0 23 7.5t18 11.5q-1 2 -3 3v242q-7 7 -92 -46q-14 -8 -52 -36q-31 -23 -34 -23l-26 27.5t-54 27.5q-5 0 -15 -2.5t-20 -2.5zM147 574v-219q8 -23 59 -46q7 0 45 20t44 30v193q-18 4 -65 25q-9 6 -23 21
t-16 15q-44 0 -44 -39z" />
    <glyph glyph-name="colon" unicode=":" horiz-adv-x="297" 
d="M62 36l70 85q41 -59 78 -59q9 0 30 8q-40 -84 -95 -84q-50 0 -83 50zM62 347l70 85q41 -59 78 -59q9 0 30 8q-40 -84 -95 -84q-50 0 -83 50z" />
    <glyph glyph-name="semicolon" unicode=";" horiz-adv-x="291" 
d="M62 347l70 85q41 -59 78 -59q9 0 30 8q-40 -84 -95 -84q-50 0 -83 50zM86 32l80 84q49 -74 47 -131q-2 -75 -83 -121q10 27 11 51q2 66 -55 117z" />
    <glyph glyph-name="less" unicode="&#x3c;" horiz-adv-x="409" 
d="M355 487l-243 -190l240 -178l-42 -38l-284 215q-5 3 287 229z" />
    <glyph glyph-name="equal" unicode="=" horiz-adv-x="398" 
d="M32 270l335 -1v-48h-335v49zM35 396h329v-50h-329v50z" />
    <glyph glyph-name="greater" unicode="&#x3e;" horiz-adv-x="412" 
d="M12 487l243 -190l-240 -178l42 -38l285 215q4 3 -288 229z" />
    <glyph glyph-name="question" unicode="?" horiz-adv-x="442" 
d="M190 -4q-31 39 -73 73q44 41 73 75q38 -37 77 -70q-47 -32 -77 -78zM368 463q0 -41 16 -83h-16q-97 0 -134 -40.5t-33 -138.5q-1 -3 -3 -3t-7.5 3t-7.5 3q-3 0 -4 -4q-5 28 -5 106q0 125 100 143v189l-26 8q-37 -81 -109 -81t-111 79q20 -13 38 -13q37 0 91 75
q82 -58 223 -58h7q-19 -27 -19 -82v-103z" />
    <glyph glyph-name="at" unicode="@" horiz-adv-x="744" 
d="M398 431q-31 43 -62 43q-6 0 -12 -1q-38 -7 -76 -77q-30 -58 -30 -116q0 -40 17 -68q21 -36 41 -32q52 8 79 63q15 32 28 103zM574 274q34 70 34 152q0 93 -70.5 153.5t-170.5 60.5q-132 0 -229 -96q-94 -91 -94 -236q0 -125 90 -213q97 -94 216 -94q172 0 267 131
q22 44 54 97l30 -18q-15 -29 -32 -60q-48 -90 -133 -138t-188 -48q-145 0 -245 97q-104 102 -104 242q0 162 111 274q108 108 271 108q118 0 208 -84q69 -65 69 -183q0 -99 -63 -193q-67 -99 -157 -99q-33 0 -50 12q-20 15 -28 54q-33 -36 -46 -44q-21 -13 -59 -13
q-53 0 -83 51q-26 44 -26 96q0 78 51 150q56 78 133 78q49 0 75 -49q9 29 11 33q33 2 55 5l4 1h1q0 2 -1 2v-2q-3 -11 -15 -61q-22 -100 -37 -184q-6 -34 -6 -39q-4 -48 39 -48q28 0 60.5 26.5t57.5 78.5z" />
    <glyph glyph-name="A" unicode="A" horiz-adv-x="569" 
d="M548 107q-12 -16 -56 -66t-45 -50q-19 -1 -49 24q-28 22 -35 37q-16 37 -15 76l-206 -141q-124 84 -173 99q21 9 92 59q24 30 22 75v24q1 26 1 41q-5 23 -11 32.5t-25 11.5q-27 4 -44 -19q0 27 18 46.5t36 19.5h28v97q-5 33 -11.5 45.5t-28.5 25.5q181 66 285 146
q76 -50 88 -56.5t82 -33.5q-23 -4 -37.5 -23t-14.5 -44v-380q0 -15 15 -35q18 -24 39 -24q18 1 38 21q1 -1 3.5 -4t3.5 -4zM347 373v192l-73 50q2 -169 0 -242q76 0 73 0zM257 373v242q-24 -12 -47 -24q-30 -21 -26 -55v-163h73zM350 154l-1 158q-61 3 -72 0q-1 -96 0 -207z
M256 94l1 218h-75v-121l-97 -63l131 -67z" />
    <glyph glyph-name="B" unicode="B" horiz-adv-x="598" 
d="M108 570l-94 42q-11 3 -20 3q-18 0 -37 -16q-6 -6 -20 -13q-1 1 -3 1l-1 1q-2 1 -2 5t55 51t61 47q4 -1 17 -7q79 -38 100 -37q18 0 56 9q10 5 33 14l3 -2q3 -4 4 -10q0 -10 -152 -88zM335 31q-19 -5 -70 -43q-9 -6 -13 -6q-1 0 -36 12l-76 28q-115 42 -144 47q2 2 52 44
q33 27 46 47.5t19 48.5l-1 75q0 16 -6 44q-9 17 -35 18q-24 2 -43 -25q1 31 18.5 52t36.5 21q10 1 31 1l1 86q-15 41 -37 50q52 26 105 52q62 31 102 59q63 44 67 44q52 1 106.5 -43t55.5 -91q2 -46 -22 -82q-19 -29 -64 -66q135 -64 137 -156q1 -79 -75 -140
q-60 -47 -155 -77zM317 612h-19v-266q43 18 79 45q67 47 67 93q0 55 -55 95q-43 33 -72 33zM328 330q-18 0 -30 -8q-3 -167 0 -241q35 -12 49 -12q48 1 87.5 35t38.5 87q-1 62 -43 101t-102 38zM274 608q-52 -13 -61 -62v-299q0 -60 -89 -103l150 -56q2 244 0 520z" />
    <glyph glyph-name="C" unicode="C" horiz-adv-x="613" 
d="M586 663q6 -8 -43.5 -53.5t-61.5 -45.5q-5 0 -61 19l-1 -495q18 4 50 12q55 17 74 37q15 15 23 16q-28 -79 -59 -132q-6 -11 -63.5 -19.5t-100.5 -6.5q-153 8 -245 89q-98 87 -101 239q-1 85 53 169q59 91 159 136q14 7 27 15q23 11 37 11q2 0 13 -4q-104 -43 -160 -129
q-50 -76 -53 -172q-2 -65 35 -129q28 -51 65 -79q16 3 33 21.5t17 34.5v122q-10 54 -42 52q-24 2 -41 -21q0 27 18 46.5t36 19.5h28v98q0 38 -38 47q1 5 13 7q19 2 23 4q69 28 140 78q30 21 61 43l45 -22t64 -26q9 -1 28 10t28 8zM395 596l-52 17q-9 -4 -20 -12
q2 -121 0 -268q-1 -73 -2 -80q-4 -32 -30 -57t-98 -65q63 -40 170 -45q27 -2 32 2v508z" />
    <glyph glyph-name="D" unicode="D" horiz-adv-x="673" 
d="M311 -19q6 0 -93 22q-81 18 -131 63q-59 51 -59 127q0 49 39 79q36 27 86 27q4 0 7 -2v-9h-9q-83 2 -83 -68q0 -26 34 -55q25 -22 57 -36q15 0 32 17.5t17 32.5v267q0 21 -7.5 30t-26.5 19q64 13 95 23q51 18 85 48q-24 16 -129 17q-128 1 -223 -34l75 129q36 4 125 11
q18 1 37 1q160 0 266 -81q114 -86 114 -234q0 -80 -27.5 -133t-92.5 -97q-38 -26 -83 -65q-32 -23 -90 -77q-3 -3 -11 -12q-1 -5 -4 -10zM532 406q-44 115 -128 143v-211q42 24 128 68zM548 343q-1 16 -10 47q-45 -24 -134 -73v-53q49 25 144 79zM554 312q0 9 -2 13
q-84 -44 -139 -77q-4 -3 -9 -6v-148q60 36 102 92q48 64 48 126zM384 558q-4 5 -10 5l-4 -1q-17 -9 -40 -35t-23 -42l1 -214q0 -47 -6 -62q-9 -22 -44 -41q-27 -15 -82 -45q68 -33 208 -35v470z" />
    <glyph glyph-name="E" unicode="E" horiz-adv-x="634" 
d="M596 641l-194 -204h170l-60 -90q-36 -2 -104 -1v-253q130 25 170 55q1 -5 -19 -65q-12 -37 -24 -73q-62 -22 -173 -22q-146 0 -254 100.5t-108 245.5q0 129 68 207q59 68 189 117l4 -10q-197 -90 -197 -292q0 -54 29 -120q33 -75 79 -88q42 11 42 71v96q2 27 -11 44
t-36 17q-22 0 -37 -21q0 23 16 43.5t38 22.5h31v88q0 44 -38 64q119 28 257 119l132 -55q2 1 11 7t10 6q8 0 9 -9zM488 561q-127 54 -139 54q-28 0 -28 -43v-186q42 38 167 175zM390 91v255q-51 -2 -69 0v-110q0 -27 -28 -44q-26 -12 -52 -23q-30 -15 -55 -31
q81 -49 179 -48z" />
    <glyph glyph-name="F" unicode="F" horiz-adv-x="400" 
d="M445 652q-95 -79 -100 -79t-60 25v-229h39l10 57l10 1v-199h-11l-9 75h-39v-310h-16v609q-23 18 -40 18t-17 -30v-425q0 -19 8 -28q3 -3 23 -17q-157 -70 -221 -132q-98 47 -107 47q-14 0 -51 -24l-7 11l135 101q1 -1 52 -30q41 -23 47 -23q16 0 16 16v219h-77
q-6 -20 -16 -37l-13 2q13 34 45 99h61q1 25 1 153q0 25 -44 39q161 70 235 132l112 -48l23 14z" />
    <glyph glyph-name="G" unicode="G" horiz-adv-x="697" 
d="M232 319q-9 54 -41 52q-24 2 -41 -21q0 27 20.5 47.5t38.5 19.5l24 -1l-1 118q-4 15 -9 29q-5 11 -21 15q33 13 67 26q42 16 80 38q20 12 93 65q125 -56 158 -56q11 0 18 6.5t14 14.5l6 -12l-180 -178q6 -1 14 -3q85 -19 133 -67q51 -51 53 -127q2 -131 -207 -226
q-17 -8 -46 -28q-35 -24 -47 -40q-49 13 -106 29q-134 58 -195 143q-54 76 -56 185q-1 92 58 179q65 94 182 147q5 -7 9 -13q-189 -84 -185 -269q2 -119 99 -197q17 -14 22 -14q38 6 46 44v94zM513 564l-149 55q-24 -5 -24 -29l2 -189q25 18 85 74q64 60 86 89zM580 236
q-1 64 -36 102q-25 28 -69 42l-50 14v-303q15 -3 19 -3q52 1 96 51q41 47 40 97zM407 94v300q-9 1 -16 1q-17 0 -28 -7q-14 -9 -23 -11v-67q0 -49 -23 -65q-11 -30 -114 -75q147 -77 199 -76h5z" />
    <glyph glyph-name="H" unicode="H" horiz-adv-x="565" 
d="M540 277q0 -90 -39 -172q-21 -43 -74 -116q-39 -54 -39 -78q0 -39 28 -50l52 -10q28 -8 28 -39q0 -40 -42 -40q-43 0 -67 36q-21 32 -21 77q0 38 41 135t41 174q0 48 -10 89l-154 -105v-108l62 47l6 -14q-153 -115 -157 -115q-2 0 -104 43q-109 47 -119 51l-3 2
q33 16 68 40q51 35 51 57l1 108q0 53 -38 53q-33 0 -50 -22q0 23 16 43.5t38 22.5q-2 0 31 0l1 90q0 37 -7 51.5t-39 28.5q185 68 254 142q36 -16 71 -32q47 -21 81 -21q15 0 25 9q16 14 22 17l12 -12q-41 -36 -123 -98l-99 43l-1 -156l118 67q139 -76 139 -238zM264 610
q-16 9 -27 9q-37 0 -46 -49q-3 -16 -3 -65l2 -112q42 22 73 43q1 29 1 174zM406 371q-45 75 -82 75q-20 0 -40 -23v-134zM432 304q-5 32 -17 49l-131 -84v-68zM264 417q-38 -22 -74 -43v-164v0q-3 0 -93 -73l167 -73v353z" />
    <glyph glyph-name="I" unicode="I" horiz-adv-x="480" 
d="M442 666q0 3 -22 -28.5t-22 -56.5l-1 -382q0 -75 -26 -92q-67 -43 -201 -126q-2 0 -1.5 8t-2.5 9q-103 44 -139 44q-11 0 -25 -6q-18 -8 -24 -10q-7 2 -7 8t59 54.5t65 48.5q3 0 64 -34t87 -34q47 0 47 62q0 163 0 156q-4 55 -42 55q-26 0 -42 -22q0 23 16 44t38 22h31
v100q-1 28 -5 40q-7 22 -28 26q56 42 173 126q8 -10 8 -12zM384 676q-26 -27 -70 -59q-57 -40 -90 -46l-142 46q-20 4 -48.5 -16.5t-25.5 -20.5q-9 0 -14 11l146 106q41 -12 82 -25q51 -15 84 -15q22 0 44 13.5l22 13.5q-2 0 12 -8z" />
    <glyph glyph-name="J" unicode="J" horiz-adv-x="525" 
d="M444 676q-21 -22 -70 -59q-54 -40 -76 -48l-156 48q-20 4 -48.5 -16.5t-25.5 -20.5q-9 0 -14 11l146 106q41 -12 82 -25q51 -15 84 -15q22 0 44 13.5l22 13.5q-2 0 12 -8zM491 674q-31 -47 -31 -107l1 -503q1 -97 -76 -161q-61 -50 -115 -49q-58 1 -106 30q-35 23 -71 66
q-26 32 -52 65l-30 -11q-6 2 -6 3q0 7 -1 8q103 65 211 130q4 0 7.5 -5.5t2.5 -6.5q-36 -28 -47 -56q-2 -6 -10 -54q8 -43 21 -74q32 -74 86 -76q58 -1 76 88q7 36 7 120v167q-8 64 -43 61q-24 3 -41 -21q1 66 84 66v69q0 43 -2 53q-8 54 -42 73q28 15 83 56l86 75l6 -2
q3 -1 2 -4z" />
    <glyph glyph-name="K" unicode="K" horiz-adv-x="590" 
d="M579 75q-98 -87 -100 -87t-32.5 21t-40.5 58q-4 19 -6 66v62q0 40 -8 66q-3 11 -18 24t-28 13q-3 0 -17 -7.5t-18 -9.5v-188l25 20l11 -11q-53 -48 -134 -112l-211 95q91 68 99 77q22 24 23 79v26q-1 63 -55 63q-22 0 -38 -21q1 22 16 44t36 26l41 7l-1 134
q-10 28 -49 46q49 8 146.5 54t123.5 72l113 -52q6 -3 15 -3q22 0 49 19l7 -9l-126 -84q-23 6 -90 41l-1 -140l123 69l119 -127q-13 -9 -63.5 -32.5t-72.5 -39.5q38 -26 50 -36q27 -23 31 -48q4 -21 5 -76q2 -51 8 -78q2 -6 10.5 -15.5t12.5 -9.5h18q5 0 19 14zM291 584
q0 21 -1 23q-3 12 -19 12q-23 0 -39 -29q-13 -22 -13 -38v-66q-1 -41 0 -67q27 13 73 38zM448 376l-84 95l-53 -32q-2 -100 0 -139q46 25 137 76zM290 431l-70 -36v-169l-104 -83l161 -77q19 10 13 11v354z" />
    <glyph glyph-name="L" unicode="L" horiz-adv-x="541" 
d="M542 669q-38 -38 -115 -106l-106 42v-83q1 -44 1 -70v-356q11 -9 72 -29l90 59l16 -11l-185 -129q-122 46 -162 59q-95 32 -152 40l-1 1.5t-1 4.5q0 2 36 21q42 23 65 46q36 36 36 79q0 -7 1 23q1 21 -1 43q-4 41 -45 40q-5 0 -23 -12q-1 1 1 8.5t2 9.5q0 18 16 30t29 12
h16v101q0 34 -3 46q-9 30 -41 36q22 5 97 31q66 28 158 91l146 -54l44 38zM301 565q0 45 0 38q-2 25 -20 22q-12 -1 -50 -23q2 -58 0 -82v-297q-18 -11 -93 -61q76 -29 163 -60v463z" />
    <glyph glyph-name="M" unicode="M" horiz-adv-x="814" 
d="M68 237q3 83 -47 84q-24 2 -41 -21q0 26 23 48q21 19 40 19q3 0 25 -1q2 75 0 116q-1 24 -18 37q-13 7 -27 15v9q108 27 183 67q14 7 120 79q5 0 46 -32q38 -28 46 -36q16 -16 20 -37q1 -6 4 -46q25 14 85 71q78 75 84 80q50 -29 139 -77q0 -1 -25 -21q-19 -15 -23 -33
l1 -421q5 -30 8 -37q5 -10 27 -23q4 -3 37 29l13 -6q-51 -54 -106 -109q-4 0 -23 15q-63 54 -63 116q0 8 1 14l-1 429q-46 30 -50 30t-15 -11v-585q-24 -1 -24 0q0 91 -1 275l-69 1v-276h-104v276h-67v-275l-22 3l-2 593q-6 7 -7 7q-4 0 -24 -13q-35 -24 -37 -96l2 -504
q0 -61 -72.5 -146t-135.5 -102l-7 12q5 6 44 29q30 19 47 55q20 43 16 191v208zM504 353v209l-62 -50q-1 -114 1 -160q19 -1 61 1zM333 349v168q-1 42 -69 73l-1 -240q30 -2 70 -1z" />
    <glyph glyph-name="N" unicode="N" horiz-adv-x="619" 
d="M598 84l-101 -89q-70 24 -98 122l-1 182l-70 -40v-158l26 21q10 -4 10 -13q0 -3 -76.5 -63t-78.5 -60q-18 0 -201 80q0 6 34 27q42 26 63 54q34 43 34 105q0 113 -51 113q-10 0 -17 -6q-10 -10 -13 -11v21q0 19 14.5 35t36.5 16q9 0 26 -5q-1 65 1 90q2 32 -8 58
q-12 34 -40 34q-2 0 -14 -9.5t-14 -9.5q-9 0 -9 10q0 6 92 89q10 0 37 -21q23 -19 28 -26q12 -16 31 -72l141 119q31 -11 62 -23q54 -18 67 -18q10 0 46 23q7 -3 7.5 -3.5t3.5 -7.5q-44 -37 -122 -95l-116 42v-233l73 42v59q0 51 148 132l9 -14q-13 -6 -24 -18
q-24 -29 -27 -83v-299q5 -56 28 -82q16 -18 32 -18q4 0 4 1q10 17 18 17q9 0 9 -15zM401 320v61q-2 0 -73 -43q-2 -48 0 -57zM309 592q-70 -58 -70 -61v-149q0 -99 0 -98q1 -8 1 -17q0 -42 -46 -82l-74 -60l163 -59l26 18v508z" />
    <glyph glyph-name="O" unicode="O" horiz-adv-x="547" 
d="M527 165q-8 -8 -28 -17q-30 -14 -33 -15q-55 -29 -211 -140q-113 53 -256 70q96 72 96 127v108q0 42 -47 42q-2 0 -9.5 -1t-15.5 -1q2 19 18.5 36t35.5 17q17 0 16 -1v134q0 43 -40 40q11 6 60 17q91 22 184 85q38 26 43 26q18 0 81 -47q66 -51 66 -76l1 -311
q0 -82 39 -93zM389 520q0 28 -96 89l1 -222l95 53v80zM389 362v61l-96 -52v-65zM276 616q-1 2 -17 2q-22 0 -42 -25.5t-23 -51.5v-341l-80 -66q103 -17 162 -42v524zM389 150v196l-96 -57v-200l42 -12q16 7 27 17q27 23 27 56z" />
    <glyph glyph-name="P" unicode="P" horiz-adv-x="598" 
d="M275 664q3 -2 5 -7q0 -7 -61.5 -40t-90.5 -40l-92 41q-34 11 -68 -19q-6 -5 -10 -6q-1 1 -1 6q0 2 52.5 46.5t57.5 44.5q2 -1 15 -6l34 -14q51 -21 68 -24q39 -7 59 2q10 6 32 16zM298 -86q-1 2 -1 49l1 51l-69 18v-96q0 -46 15 -57q8 -6 21 -9v-7q-60 -29 -199 -87
q-4 5 -3 7q36 24 49 47q20 37 20 100v118q-6 6 -35.5 14t-38.5 8q-16 0 -28 -14l-2 -3l-2 -2q-6 0 -6 5q0 8 72 110q4 0 19.5 -5t19.5 -6q3 80 0 121q-4 27 -13 38q-12 13 -40 13q-7 0 -18.5 -1.5t-16.5 -1.5q-1 0 -2 -2q5 36 45 50q21 7 43 6q2 74 0 112q-1 18 -10 23.5
t-19 10.5q25 8 79 28q58 25 187 116q20 13 21 13q21 -3 67 -34q42 -28 47 -36q8 -12 16 -24.5t8 -27.5v-381q0 -29 30 -41q-80 -28 -202 -144l-46 17v-89q0 -68 49 -68q22 0 39 14q-4 6 -11 9q-3 1 -8 3q-13 8 -13 22q0 23 24 23q13 0 23 -9.5t10 -21.5q0 -21 -21.5 -37
t-42.5 -15q-55 2 -58 73zM425 508q-8 31 -21 45l-84 55l-1 -264l106 77v87zM423 402q-8 -3 -103 -78l-1 -53q39 27 104 79q2 42 0 52zM300 606q-19 -2 -36 -19q-34 -32 -34 -107v-213v-66.5v-67.5q60 -12 70 -26v499zM424 201l1 128l-105 -78v-144q76 -29 80 -29q25 0 25 23
q-2 1 -1 100z" />
    <glyph glyph-name="Q" unicode="Q" horiz-adv-x="572" 
d="M104 305q-1 34 -11.5 46t-37.5 10q-26 3 -43 -21q0 28 19 53t37 25q24 1 36 1q0 12 1 31v26q-1 64 -46 91q112 15 214 72q4 2 45 32q36 25 41 25q8 0 55 -31q50 -35 64 -57q15 -25 17 -80q1 -32 1 -300q0 -50 34 -58q0 -6 -16 -11q-11 -2 -22 -5q-31 -11 -39 -15
q-16 -8 -35 -22q35 -48 75 -48q31 0 41 4q14 6 33 32q7 -8 13 -18q0 -6 -42.5 -52.5t-50.5 -50.5l-116 105q-34 -24 -118 -100l-256 90q79 57 99 95q8 16 8 52v79zM397 465q-2 9 -2 20q0 9 1.5 25.5t1.5 23.5q0 26 -16 43q-20 21 -74 41v-206q29 16 89 53zM397 387v53
l-88 -51q-2 -45 0 -58zM398 139q0 63 -1 225q-49 -28 -88 -55v-144q38 0 58 -10l30 -20q1 0 1 4zM291 618q-33 -10 -57 -30q-31 -25 -31 -53v-277q0 -40 -34 -69l-64 -48l185 -54zM355 111q-12 36 -45 36l-1 -62q1 0 7 -2.5t8 -2.5q10 0 22 10.5t9 20.5z" />
    <glyph glyph-name="R" unicode="R" horiz-adv-x="656" 
d="M333 657q0 -8 -63.5 -42t-91.5 -41l-93 42q-11 3 -21 3q-18 0 -36 -14t-21 -15q-2 3 -2 9q0 3 53 48t59 45q1 0 50.5 -20.5t66.5 -23.5l21 -3q17 -3 37 6q17 8 33 16q4 -3 8 -10zM165 288q0 35 -11.5 55t-36.5 19q-24 2 -41 -21q0 27 18 46.5t36 19.5h34v59q0 52 -27 52
q19 7 54 20q23 10 137 79q29 17 95 66q30 -13 84 -40q81 -44 81 -120q0 -83 -145 -156q39 -2 75 -34.5t38 -72.5q1 -10 1 -90q0 -93 37 -93q14 0 32 18q11 0 11 -7l-98 -97q-56 25 -73 63q-13 27 -11 77q3 64 -1 88q-2 11 -1 44q2 28 -4 43q-15 37 -64 37q-10 0 -35 -5
q-1 -261 0 -261q3 0 17.5 16t17.5 19q3 0 7 -4l4 -4q-41 -40 -110 -119q-17 4 -112 46q-86 38 -118 41q77 53 86 64q22 23 22 67.5t1 64.5v20zM498 480q-4 45 -52 80q-43 30 -78 30h-18v-232q156 36 148 122zM330 71v516l-18 -5q-49 -17 -49 -78v-276q0 -34 -19 -49
q-32 -21 -63 -42q44 -27 149 -66z" />
    <glyph glyph-name="S" unicode="S" horiz-adv-x="593" 
d="M547 278q0 -47 -34 -86q-15 -17 -50 -46q-38 -33 -61 -46q-17 -9 -47 -37.5t-40 -46.5l-10 -17l-252 2q-18 0 -82 -2l71 94h220v315q-52 -14 -111 -51q-74 -47 -108 -105l-10 2q64 118 64 234q0 69 -30 127q22 -2 74 -5q52 2 105 24q57 23 89 61l112 -45q18 -7 33 0
l34 24l11 -8l-117 -105q-37 11 -101 36l-29 15v-177q15 3 55 5q77 -4 137 -39q77 -45 77 -123zM262 433v181l-65 -21v-187zM413 335q-55 70 -135 77l-1 -154zM445 284l-21 37q-146 -77 -146 -80v-54zM455 225q0 8 -5 44q-50 -25 -173 -104l1 -72h19q57 0 103 32
q55 37 55 100z" />
    <glyph glyph-name="T" unicode="T" horiz-adv-x="587" 
d="M565 677l-55 -98h-118v-498q29 8 56 16q62 21 101 43q-11 -47 -36 -136q-3 -9 -77 -18q-62 -8 -86 -8q-144 0 -243 77q-113 87 -113 236q0 71 53.5 155t133.5 133h-30q-71 0 -109 -29q-17 -12 -30 -34q-18 -29 -23 -35q-3 2 -3 7q0 60 69.5 125t139.5 64q117 -3 370 0z
M374 79v500h-12q-60 0 -58 -83q1 -28 1 -279q0 -28 -21 -46q-13 -12 -48 -29t-50 -29q55 -35 148 -35q26 0 40 1zM309 579q-33 1 -71 0q-70 -10 -126 -93q-53 -78 -53 -151q0 -56 27 -122q34 -81 82 -87q28 -4 40 37q6 24 6 49q0 130 -57 130q-9 0 -19 -3q0 18 15.5 33.5
t33.5 15.5q6 0 18 4v96q-3 5 -15 6t-13 8q103 31 132 77z" />
    <glyph glyph-name="U" unicode="U" horiz-adv-x="610" 
d="M589 80q-43 -37 -93 -94q-19 -1 -51 20q-36 25 -47 57q-6 17 -6 69l-186 -150q-44 26 -114 54q-94 38 -96 39q68 41 83 56q30 29 30 72v91q-2 26 -16 46.5t-38 20.5q5 0 -19 -6q-1 2 -1 5q0 13 15.5 31t31.5 18q26 0 27 1v110q0 27 -11 48q-16 29 -46 29q-3 0 -17 -8.5
t-21 -10.5l-2 10l110 95q49 -32 62 -45q27 -27 27 -62v-326q0 -78 -94 -110l159 -82q5 0 14 11l3 404q0 32 -1 104q-10 -7 -31 -18v15l136 107l150 -75q-15 -12 -30 -23q-24 -22 -23 -45v-362q-8 -103 61 -103q4 0 12.5 7t11.5 13q0 -2 10 -13zM392 423q-1 78 0 140
q-53 39 -57 39q-23 0 -27 -19v-219zM392 343v59l-84 -59v-59zM392 150v177l-84 -61q2 -64 0 -185q84 67 84 69z" />
    <glyph glyph-name="V" unicode="V" horiz-adv-x="570" 
d="M548 156q-217 -71 -302 -176q-93 38 -114 46q-68 26 -131 44q80 53 99.5 71.5t20.5 45.5q5 88 2 124q-5 66 -56 66q1 0 -28 -3q11 53 62 53q22 0 24 2v85q0 23 -14 50q-18 35 -47 35q-4 0 -30 -18l-5 10q93 88 99 88q10 0 45 -28.5t38 -36.5q14 -25 14 -76
q170 141 185 141q18 0 58 -35.5t44 -48.5q5 -17 5 -48l-1 -47v-290q3 -41 32 -54zM412 437v81q0 29 -19 55t-50 26q-18 0 -18 -16v-209zM412 343v73l-87 -63v-73zM412 140v183l-87 -63v-187q83 44 87 67zM308 575q-23 -13 -41 -27q-41 -34 -44 -64v-230q0 -47 -41 -76
q-20 -13 -57 -42l183 -71v510z" />
    <glyph glyph-name="W" unicode="W" horiz-adv-x="801" 
d="M765 177q-42 -23 -125 -74q-15 -11 -47 -34q-25 -19 -81 -71l-197 93q2 1 -108 -91q-69 28 -206 75l1 6q105 63 105 106v124q0 60 -51 60q-9 0 -26 -6q6 34 34 49q8 4 41 4v139q2 15 -11.5 32.5t-27.5 20.5q-1 0 -7 3t-9 3q-4 0 -31 -27l-9 10l99 102q61 -34 82 -63
q16 -23 18 -57l160 125q23 -15 46 -31q29 -21 37 -44t10 -57l167 132q53 -37 63 -46q37 -33 37 -64q-1 -59 0 -155q1 -127 1 -155q0 -6 -1 -20t-1 -22q0 -54 37 -67zM627 444v70q0 44 -3.5 57.5t-22.5 33.5q-15 14 -30 29l-35 -26v-218zM630 370l1 58l-95 -54q-1 -52 1 -63
q17 15 93 59zM520 569q-1 7 0 28l-59 -44v-399l59 -28q2 31 0 443zM355 432v98q0 45 -11 64q-9 15 -42 32l-20 -14v-222zM629 146v65q0 43 1 142l-94 -61v-175q37 -23 52 -23q16 0 28.5 19t12.5 33zM355 366v50l-73 -45v-51zM264 599l-56 -43v-240q1 -98 -3 -107
q-11 -24 -50.5 -48.5t-39.5 -18.5q46 -15 149 -59v516zM355 187v160l-73 -45v-213q21 17 42 33q29 26 31 65z" />
    <glyph glyph-name="X" unicode="X" horiz-adv-x="588" 
d="M557 116q-36 -46 -104 -142q-25 3 -84 34q-63 33 -91 101l-42 130q-7 -28 -103 -240h-163q-12 0 -13 -1q-6 -7 -10 -9q-12 5 -12 4q0 1 28 46.5t31 51.5h110q26 0 53 31q18 19 77 183h-81q-35 0 -39 -2q-10 -4 -34 -31q-2 3 -7.5 2.5t-5.5 0.5t54 104l91 1q5 3 -14 63
q-26 81 -31 90q-23 42 -76 57q-4 1 -21 1t-27 -9q-15 -12 -21 -15q-6 3 -7 9l93 105q18 6 45 0q60 -15 93 -75q13 -23 27 -68q17 -56 22 -69q19 35 43 103q27 76 41 105h14h138l12 10l11 -2q-18 -30 -53 -102h-133l-67 -156l13 -47q110 -8 126 6q3 3 28 20q3 -3 12 -2
q-22 -42 -55 -101q-28 -2 -93 0q13 -54 29 -94q38 -98 84 -117q18 -7 35 -7q21 0 37 10q4 3 30 25z" />
    <glyph glyph-name="Y" unicode="Y" horiz-adv-x="571" 
d="M528 527v-356q6 -53 -33 -107q-38 -43 -75 -86q-43 -48 -43 -85q0 -29 28 -38q25 -5 51 -9q27 -8 27 -35q0 -15 -15 -29.5t-28 -14.5q-37 0 -62 27.5t-25 64.5q0 31 21 77q32 66 40 94q8 24 9 78q2 203 -1 232l-89 -63v-160l23 16l8 -10l-186 -138l-174 91q101 63 119 91
q13 21 13 106q0 37 -3 49q-10 36 -46 36q-9 0 -20 -8t-12 -7q3 15 7 30q7 21 29 31q14 6 47 6q0 -1 0 64q0 132 -58 132q-10 0 -18 -8.5t-15 -16.5q-4 0 -8 3.5t-5 3.5q-1 2 57 51.5t61 49.5q5 0 19 -12q2 -2 31 -21q19 -12 27 -29q11 -24 11 -77l179 136q49 -16 79 -57.5
t30 -101.5zM423 434q2 34 0 69q-2 36 -3 40q-4 22 -17 36q-23 23 -47 34l-24 -18v-218zM423 359l-1 53l-89 -57l1 -56zM317 584l-77 -57v-268q0 -63 -44 -91q-47 -20 -94 -41q21 -11 48 -22q28 -18 86 -45q10 -4 81 48v476z" />
    <glyph glyph-name="Z" unicode="Z" horiz-adv-x="498" 
d="M469 103v-12q-59 -16 -155 -46q-38 -15 -116 -69l-184 66q-14 -10 -39 -26q-2 -1 -3 -1q2 5 -7 7q36 33 116 106q3 1 95 -35v488h-51q-46 0 -46 68q0 44 16 69h9q1 -10 5 -30q5 -11 13 -11h221q47 0 66 -23q6 -8 13 -34q1 -3 1 -122q0 -54 -18 -66q-49 -23 -99 -46
q32 -9 100 -39q24 -13 22 -42v-49v-128q0 -17 41 -25zM310 468q0 66 -1 73q-6 38 -37 38h-77v-211q115 25 115 100zM318 260q4 31 -10 66q-17 42 -48 42q-7 0 -20.5 -5.5t-14.5 -5.5q-7 0 -33 -11l1 -257q97 -37 100 -37q2 0 13 5.5t11 7.5z" />
    <glyph glyph-name="bracketleft" unicode="[" horiz-adv-x="203" 
d="M81 -53h68v-50h-141v880h141v-50h-65q-8 -3 -4 -3z" />
    <glyph glyph-name="backslash" unicode="\" horiz-adv-x="422" 
d="M406 -1h-63l-331 708h59z" />
    <glyph glyph-name="bracketright" unicode="]" horiz-adv-x="206" 
d="M75 -53h-67v-50h141v880h-141v-49l64 -1q8 -3 4 -3z" />
    <glyph glyph-name="asciicircum" unicode="^" horiz-adv-x="294" 
d="M20 713l-2 6l120 113l127 -115l-3 -6l-122 50z" />
    <glyph glyph-name="underscore" unicode="_" horiz-adv-x="584" 
d="M587 -150h-587v50h587v-50z" />
    <glyph glyph-name="grave" unicode="`" horiz-adv-x="313" 
d="M72 517q9 20 19 20q6 0 21 -9l123 -67l-1 -6l-70 14q-64 12 -70 12q-25 0 -25 23q0 6 3 13z" />
    <glyph glyph-name="a" unicode="a" horiz-adv-x="335" 
d="M316 62q-22 -11 -46.5 -35.5t-28.5 -42.5q-10 19 -21 38q-22 29 -64 29q-49 0 -70 -32l-16 -36q-10 41 -67 74q30 13 30 37v73q0 16 -5 28q-5 9 -9 18q7 -5 13 -9q15 -7 52 -8q32 -1 68 18q46 24 47 65q0 9 -1 22l-4 16q-1 2 -11 10q-15 13 -31 26q-20 16 -26 15
q-25 -5 -47 -21.5t-22 -34.5q-1 -12 13.5 -25.5t24.5 -13.5q11 -1 24 7t13 22q0 8 -5 17q8 -3 14.5 -15t5.5 -20q0 -17 -18.5 -35.5t-37.5 -18.5q-27 1 -44.5 19t-16.5 48q1 40 50 68q39 18 78 35q6 3 15.5 11.5t11.5 8.5q42 -28 120 -74l-16 -10t-8 -17v-219q4 -20 35 -38z
M198 99q-1 41 0 127q-40 -35 -85 -45l-2 -72q-1 -22 5 -29q8 -12 38 -13q17 0 30.5 8.5t13.5 23.5z" />
    <glyph glyph-name="b" unicode="b" horiz-adv-x="344" 
d="M319 56q-48 10 -66 9q-41 -3 -78 -35q-21 -22 -41 -44l-129 70q28 13 33 44v456q3 45 -35 63q40 -1 106.5 33t94.5 33v-4q-83 -19 -83 -105v-232l87 76q23 -18 43 -31q47 -33 66 -37v-4q-26 -8 -26 -38v-196q4 -33 28 -58zM210 116v201q0 13 -49 42l-40 -35v-226
q21 -16 54 -33q25 -1 32 18q3 8 3 33z" />
    <glyph glyph-name="c" unicode="c" horiz-adv-x="273" 
d="M255 350q-14 -11 -25 -22q-26 -26 -32 -49q-12 17 -24 35q-26 34 -37 34q-14 0 -23 -22v-223q0 -10 26.5 -25.5t39.5 -15.5q19 0 53 25l7 -7l-111 -90q-64 54 -126 73q2 2 20 17q11 9 11 18q0 31 1 115v77q-1 24 -24 58q8 -4 15.5 -7t26.5 -4q38 -2 73 23q22 16 44 46
q17 21 18 19q6 -15 67 -75z" />
    <glyph glyph-name="d" unicode="d" horiz-adv-x="349" 
d="M330 426q-13 -7 -25 -14q-17 -13 -17 -39v-266q3 -17 5 -20q4 -7 29 -27q-32 9 -56 9q-36 0 -89 -34q-8 -5 -21.5 -23.5t-18.5 -21.5q-51 39 -129 68q33 14 33 34v241q0 31 -27 64q16 -6 32.5 -11t41.5 -6q35 -1 95 44q-39 36 -70 63q-73 65 -93 71q10 46 3 108
q48 -44 152 -133q33 -30 66 -59q51 -43 89 -48zM208 366q0 32 1 24q-2 21 -14 21q-15 0 -42 -25q-31 -28 -32 -56v-209q-2 -12 6 -27q4 -5 10 -10t14 -9q18 -9 20.5 -10t7.5 -1q11 0 19 8t9 16z" />
    <glyph glyph-name="e" unicode="e" horiz-adv-x="306" 
d="M137 359l73 -104q-28 -18 -96 -53v146zM286 279q-41 65 -89 147q-1 2 -20 -15q-26 -23 -49 -36q-37 -20 -75 -18q-20 1 -42 11q14 -21 16 -25q7 -14 8 -33v-87q-1 -95 -1 -125q0 -9 -11 -18q-18 -15 -20 -17q62 -19 126 -73l126 102l-9 9q-57 -39 -66 -39q-10 0 -34 17
l-32 24v80l171 96h1z" />
    <glyph glyph-name="f" unicode="f" horiz-adv-x="242" 
d="M279 583q-25 -24 -66 -71q-11 8 -76 79v-185h81l-16 -41l-64 1l-1 -210q-2 -72 25 -92q-65 -10 -84 -84q-11 -42 -9 -143v-62q-2 0 -15 1v591l-57 1q4 13 15 38q13 2 42 0q3 55 2 96q0 36 -2 43q-3 12 -21 38q29 -2 53 8l128 71q20 -51 65 -79z" />
    <glyph glyph-name="g" unicode="g" horiz-adv-x="347" 
d="M351 -6l-80 -86q-82 -89 -92 -112q-157 47 -159 47t-9 -7t-14 -9l-4 2.5t-4 5.5q0 9 77 84l143 -38q71 68 63 76q-32 32 -43 44q-36 43 -41 74l-100 -83l-61 46l-38 31l34 19v203q0 14 -22 63q6 -1 44 -9q68 31 138 85l49 -26q27 -14 82 -41q-11 -8 -28 -32
q-4 -14 -4 -39v-40v-130q2 -50 20 -77q9 -13 32 -28q17 -10 17 -23zM193 108v219l-61 39l-23 -15v-258q11 -9 39 -24q45 28 45 39z" />
    <glyph glyph-name="h" unicode="h" horiz-adv-x="374" 
d="M345 -43h-39q-133 -31 -133 -99q0 -24 20 -45t44 -21q4 0 9 6q-2 4 -15 16q-8 7 -8 26q0 25 21 39q16 10 34 10q26 0 39 -19q11 -15 11 -34q0 -32 -29 -48q-21 -13 -50 -13q-41 0 -68.5 25t-27.5 63t31.5 74t33.5 90q4 107 1 253q-1 19 -13 34.5t-30 15.5q-6 0 -26 -3.5
t-20 -5.5q0 -116 -1 -185q-1 -34 13 -49q24 -25 25 -27q-23 -3 -82 -74q-17 19 -52 51q-28 26 -28 27q0 -1 18 19t20 53l-1 415q-3 18 -7 37q-7 23 -32 37q41 5 70 14q25 8 80 24q22 11 66 24q0 1 0 -14q0 1 -62 -34q-27 -14 -27 -86v-212q19 -3 58 20t65 56q34 -31 42 -38
q31 -25 50 -31q0 1 -21 -16.5t-21 -42t-1 -114.5v-136q0 -44 43 -82z" />
    <glyph glyph-name="i" unicode="i" horiz-adv-x="189" 
d="M150 603l-73 -70l-71 70l73 71zM33 368q-25 -18 -29 -21q38 -12 38 -44v-197q-5 -32 -37 -47q57 -21 82 -64q28 41 73 64q-22 12 -28 20q-9 9 -9 27l-1 197q1 31 39 44q-23 15 -67 55q-8 9 -11 15q-6 -8 -17 -20.5t-33 -28.5z" />
    <glyph glyph-name="j" unicode="j" horiz-adv-x="181" 
d="M161 -88q-48 1 -86 -16q-53 -22 -53 -70q0 -16 9 -31q9 -18 24 -18h12q5 5 5 10l-5.5 12.5t-5.5 18.5q0 12 13.5 28t28.5 16q58 0 58 -53q0 -28 -29 -43q-21 -11 -42 -11q-41 0 -67 26t-26 66q0 34 20 64t23 70l1 322q-1 32 -37 44q22 14 62 49q4 5 17 21q7 -10 17 -21.5
t33.5 -28.5t27.5 -20q-36 -12 -37 -44v-306q1 -35 5 -46q8 -23 32 -39zM150 603l-73 -70l-71 70l73 71z" />
    <glyph glyph-name="k" unicode="k" horiz-adv-x="348" 
d="M333 318q-20 -16 -65 -38q-52 -24 -71 -37q6 -9 31.5 -18t41.5 -9q9 0 43 4q-21 -20 -23 -27q-1 -3 -1 -26q0 -1 -1 -25q-1 -18 0 -31q1 -17 6 -29q1 -5 12 -10t11 -7q0 -1 -26 -28q-29 -31 -39 -44q-24 47 -75 73q28 8 28 64q0 9 -1 26v22q0 22 -37 48l-48 -22
q-4 -55 0 -89q5 -40 29 -49q-65 -38 -70 -74h-9q-16 33 -26 44.5t-39 28.5q33 40 33 54l1 442q0 18 -1 36q-3 24 -25 38q18 -2 73 24.5t97 21.5q4 0 0 -15q-15 0 -30 -11q-21 -16 -26 -43l-6 -44v-202q-1 0 0 -8l108 67q30 -37 105 -107zM242 292l-75 78l-47 -30l-2 -112
l11 4q5 0 52.5 24t60.5 36z" />
    <glyph glyph-name="l" unicode="l" horiz-adv-x="204" 
d="M190 679q-1 -5 -11 -5q-13 -1 -19 -7q-19 -17 -25 -56q0 -3 -5 -67l-1 -399q7 -33 7 -34q9 -26 30 -33q-23 -33 -76 -85q-2 0 -32 34q-36 38 -48 49q28 15 35 37q3 7 3 35v404q0 31 -4 45q-6 18 -26 38q42 2 82 28t90 28v-12z" />
    <glyph glyph-name="m" unicode="m" horiz-adv-x="521" 
d="M501 352l-22 -18q-19 -16 -19 -37v-170v-37q0 -17 27 -27q-25 -20 -39 -33q-25 -24 -30 -40q-5 4 -24.5 35t-36.5 38q0 1 14 17q6 8 9 53q2 28 1 144q3 59 -51 60q-43 1 -43 -64v-150q0 -23 5 -32q2 -5 22 -28q-24 -11 -46 -40q-12 -17 -24 -33q-5 18 -26 41t-39 29
q29 26 29 70l-1 151q0 29 -7 41q-10 18 -40 18q-21 0 -34.5 -16.5t-11.5 -44.5v-152q0 -37 5 -46.5t28 -20.5q-14 -7 -39 -34t-30 -39q-15 20 -29 39q-20 25 -42 34q8 9 16 19q11 17 9 48v155q1 57 -28 78q17 3 39.5 25.5t29.5 43.5q47 -65 85 -65q63 0 93 63q28 -63 80 -63
q64 0 88 65q1 -1 35 -42q28 -32 47 -35z" />
    <glyph glyph-name="n" unicode="n" horiz-adv-x="355" 
d="M329 357q-11 -10 -23 -19q-16 -17 -14 -40q-2 -75 0 -197q2 -26 13 -37q9 -5 17 -10l-33 -25q-29 -23 -33 -44q-32 48 -74 69q14 4 22 18.5t7 28.5v191q-2 51 -47 51q-47 0 -47 -49q0 -10 1 -11l-1 -177q-1 -13 9 -31t25 -21q-29 -24 -69 -68q-39 51 -75 68q14 5 24 20
t10 30v179q0 65 -41 74q36 11 51 25.5t25 46.5q-1 -5 22 -31q29 -33 70 -33q53 0 78 65q8 -34 47 -57z" />
    <glyph glyph-name="o" unicode="o" horiz-adv-x="340" 
d="M316 354q-11 -9 -22 -19q-15 -16 -13 -37v-184q0 -25 7 -39q4 -7 20 -26q-49 9 -57 9q-20 0 -43 -10q-54 -24 -85 -63l-48 31q-51 33 -72 39q8 7 17 14q16 21 14 51q-1 115 0 170q-3 29 -25 71q30 -9 52 -9q29 0 60 18q20 12 42 33q19 18 20 18q-2 0 133 -67zM202 95
l-1 176q0 93 -49 85q-39 -6 -39 -48q0 -9 2 -18v-155q-3 -27 10 -53q16 -31 42 -31q7 0 21 16t14 28z" />
    <glyph glyph-name="p" unicode="p" horiz-adv-x="372" 
d="M46 111q8 -3 18 -3q-1 132 0 192q-1 14 -4 24q-10 26 -33 35q33 18 57 45t25 28q22 -62 72 -62q26 0 46 15q12 10 26 30q10 15 14 15q10 -17 20 -30q26 -31 56 -40q-11 -10 -21 -20q-14 -14 -14 -27v-205q0 -20 4 -29q7 -15 9 -28q-5 1 -14 7.5t-34 6.5q-28 0 -51 -20
q-16 -13 -28 -34.5t-11 -21.5q-2 0 -18.5 13.5t-18.5 13.5q-3 0 0 -96q1 -37 7 -42q21 -19 22 -21q-56 0 -83 -12q-4 -1 -76 -44l-11 6q65 67 63 87q-3 44 -1 145q-8 17 -26 17q-16 0 -38 -14q-4 -2 -4 13q0 38 47 56zM227 74v215q0 27 -6 37q-10 17 -40 17q-12 0 -26 -10
t-13 -25q-1 -72 0 -211q20 -4 35.5 -15t30.5 -22z" />
    <glyph glyph-name="q" unicode="q" horiz-adv-x="333" 
d="M326 -189q-5 -5 -9 -5q-9 0 -73 30.5t-74 38.5q20 10 22 44q-1 -21 -1 74l1 92q-9 4 -54.5 -36.5t-47.5 -40.5q-6 0 -83 65l11.5 15.5t11.5 22.5l1 194q0 42 -18 74q1 0 18 -6.5t32 -6.5q33 0 66 18q23 13 45 34l18 18q80 -55 83 -55q2 0 17 9.5t17 9.5q8 0 8 -11
q0 -4 -36 -33v-417q0 -99 45 -128zM195 123v210l-52 30l-33 -15v-225q0 -12 40 -33z" />
    <glyph glyph-name="r" unicode="r" horiz-adv-x="290" 
d="M276 348q-47 -32 -61 -83q-13 20 -27 40q-19 28 -37 28q-19 0 -22.5 -13.5t-6.5 -26.5l1 -160q1 -25 4 -32q7 -20 33 -30q-15 -9 -38 -32q-28 -30 -29 -48q2 2 -6 2q-17 20 -29 34q-32 36 -50 42q9 9 18 17q16 19 19 38v172q-9 24 -14 30q-11 17 -29 21q74 52 76 81
l22 -38q19 -32 45 -32q41 0 62 70q20 -30 69 -80z" />
    <glyph glyph-name="s" unicode="s" horiz-adv-x="330" 
d="M311 201q-9 -5 -15 -19q-3 -9 -5 -17v-76q0 -12 18 -49q-35 10 -55 10q-76 0 -127 -73q-49 48 -105 48q-4 0 -30 -24q0 3 -2 4q3 11 33 41q22 24 45 47q56 -15 99 -50q38 8 38 45q0 51 -3 65q-8 40 -42 40q-49 0 -73 -40q-27 22 -69 51q6 5 13 10q13 16 10 31v77
q-1 10 -3 19q-7 23 -22 44q-1 0 19.5 -11.5t35.5 -11.5q29 0 66 23q41 24 48 51q18 -13 35 -27q32 -24 42 -24q2 0 12 10.5t13 11.5q1 -1 7 -4q-9 -22 -69 -85q-59 45 -71 45q-34 0 -34 -26l-1 -85q0 -33 45 -33q18 0 46 17t26 17q-1 0 30.5 -24t44.5 -28z" />
    <glyph glyph-name="t" unicode="t" horiz-adv-x="270" 
d="M223 627q-76 -18 -77 -115v-104h40q7 5 13 11q13 15 18 31q3 -3 10 0v-170h-12q0 65 -37 75h-34v-221q-7 -37 41 -63q-24 -18 -78 -83q-14 17 -29 34q-25 29 -55 42q12 12 24 23q19 19 16 44v222h-61q-1 51 0 55h63v100q-3 22 -7 31q-6 18 -22 43q1 1 27.5 1t82.5 29
t71 29q6 0 6 -14z" />
    <glyph glyph-name="u" unicode="u" horiz-adv-x="378" 
d="M349 55q-76 -44 -85 -73l-4 -1q-8 28 -39 46q-26 15 -48 15q-26 0 -52.5 -18.5t-32.5 -44.5l-5 1q-8 21 -42.5 49t-35.5 30q7 4 21 20t15 26v197q1 12 -9 29.5t-26 21.5q36 29 43 35q20 18 35 38q8 -15 29 -37q28 -31 44 -34q-32 -17 -31 -53v-193q5 -13 12 -22
q15 -23 35 -23q51 -2 51 43v191q0 35 -35 55q19 13 38 27q33 25 42 46q19 -43 81 -75q-10 -6 -24 -22q-15 -19 -15 -31v-189q-7 -43 38 -54z" />
    <glyph glyph-name="v" unicode="v" horiz-adv-x="362" 
d="M340 341q-1 -2 -17 -14t-16 -29v-187q-6 -25 18 -66q-22 13 -46 13q-47 0 -134 -89l-54 35q-57 37 -78 46q18 24 19 26q3 6 7 37v207q-4 23 -33 66q-28 40 -30 70q-2 43 43 77q42 31 81 31q3 0 1 -5q-3 -6 -1 -7q-11 -5 -38 -14q-15 -5 -23.5 -23t-5.5 -30q5 -16 28 -34
q30 -24 41 -37q15 -19 20 -39q1 -7 4 -42q0 -2 1 -2q3 0 55 42.5l52 42.5q22 -20 44 -39q26 -22 62 -36zM226 313l-44 34l-55 -41v-217l71 -47l26 18z" />
    <glyph glyph-name="w" unicode="w" horiz-adv-x="542" 
d="M226 313v-249l-28 -22l-72 52l1 212l55 41zM404 60l-25 -21l-72 53v206q0 17 18 29q12 8 24 15q-51 21 -115 74l-52 -42.5t-55 -42.5q-1 0 -1 17q-2 38 -24 66q-11 13 -41 37q-23 18 -28 34q-3 12 5.5 30t23.5 23q2 2 38 14q-2 1 1 7q2 5 -1 5q-39 0 -81 -31
q-45 -34 -43 -77q2 -30 30 -70q29 -43 33 -66v-207q-4 -31 -7 -37q-1 -2 -19 -26q29 -9 71 -37q30 -22 61 -44q2 0 55 40.5t51 40.5l39 -29q42 -32 50 -50q71 87 119 87q25 0 46 -12q-14 16 -20 68q-1 9 -0.5 98t0.5 92q9 41 37 53q-33 11 -82 77q-32 -53 -89 -92
q49 -20 53 -43v-235v-4z" />
    <glyph glyph-name="x" unicode="x" horiz-adv-x="340" 
d="M313 71q-48 -41 -70 -78q-36 64 -74 72l20 19q9 9 9 25q0 25 -33 50.5t-58 25.5q-12 0 -24 -20.5t-12 -33.5q0 -16 17 -37.5t33 -28.5q-18 -10 -33 -33q0 -1 -21 -43q-12 19 -33 43q-26 29 -40 32q15 10 46 69q28 55 48 63q1 -2 -1 -2q-14 0 -39 40q-14 22 -16.5 48.5
t-6.5 33.5q-7 12 -27 24q35 20 72 74q28 -54 64 -70q-9 -7 -18 -13q-4 -4 -4 -26q0 -27 16 -50t42 -23q15 0 31 19.5t16 34.5t-12 33t-26 24q42 31 60 72q35 -57 67 -71v-2q-23 -8 -42.5 -54.5t-61.5 -63.5q35 -15 56 -51q13 -21 29 -71q2 -6 13.5 -16.5t12.5 -14.5z" />
    <glyph glyph-name="y" unicode="y" horiz-adv-x="334" 
d="M320 344q-8 -6 -17 -12q-18 -14 -19 -32q1 -104 0 -232q-5 -71 26 -108q-50 4 -95 -16q-56 -26 -56 -77q0 -22 14 -38t40 -14q-3 77 39 77q19 0 30.5 -14t11.5 -32q0 -24 -24 -38q-19 -12 -42 -12q-85 0 -90 82q-2 32 22 63q34 44 34 45q8 17 8 40q1 33 2 40l-1 177
q0 43 -3 57q-8 34 -36 34q-49 0 -49 -52v-14q1 -9 1 -10v-146q0 -21 36 -46q-15 -9 -38 -31q-27 -26 -32 -40q-36 53 -76 73q29 15 36 42v188q0 14 -34 40q61 29 73 83l31 -43q23 -26 49 -26q49 0 82 67q29 -54 77 -75z" />
    <glyph glyph-name="z" unicode="z" horiz-adv-x="212" 
d="M193 337q-14 -1 -19.5 -9.5t-9.5 -15.5v-86q4 -10 27 -40q-67 -1 -68 -1q-38 -3 -65 -21q68 -34 100 -34h15q13 1 19 1q-27 -21 -31 -51q2 -100 0 -110q2 -12 26 -47q-39 11 -71 11q-80 0 -80 -59q0 -25 13.5 -46t26.5 -21q3 0 6 2q2 1 -3 14t-5 15q0 20 13.5 32.5
t32.5 12.5q52 0 52 -47q0 -26 -24 -40q-20 -13 -47 -13q-41 0 -66 22t-25 64q0 44 66 106q2 2 2 116q0 17 -7 33q-10 25 -33 25q-3 0 -13.5 -9t-12.5 -9q-11 11 -4 16q22 15 74 72v94l-28 30l-46 -36q-2 5 -10 10q22 26 61 60q34 30 37 30q4 0 48.5 -31.5t48.5 -39.5z" />
    <glyph glyph-name="braceleft" unicode="{" horiz-adv-x="244" 
d="M73 -77v207q0 48 -11 70q-14 30 -54 43q40 13 54 43q11 22 11 70v197q0 72 24 103q27 36 95 36v-12q-48 -22 -48 -122v-187q0 -59 -16 -84q-19 -31 -74 -43v-2q55 -12 74 -43q16 -25 16 -84v-197q0 -100 48 -122v-12q-68 0 -95 36q-24 31 -24 103z" />
    <glyph glyph-name="bar" unicode="|" horiz-adv-x="182" 
d="M34 0v674h44v-674h-44z" />
    <glyph glyph-name="braceright" unicode="}" horiz-adv-x="251" 
d="M130 553v-197q0 -48 11 -70q14 -30 54 -43q-40 -13 -54 -43q-11 -22 -11 -70v-207q0 -72 -24 -103q-27 -36 -95 -36v12q48 22 48 122v197q0 59 16 84q19 31 74 43v2q-55 12 -74 43q-16 25 -16 84v187q0 100 -48 122v12q68 0 95 -36q24 -31 24 -103z" />
    <glyph glyph-name="asciitilde" unicode="~" horiz-adv-x="322" 
d="M12 729q8 38 45 61q34 20 75 20q16 0 46.5 -14t48.5 -14q16 0 45 8t40 17q-17 -36 -52 -59t-75 -23q-17 0 -45 13.5t-42 13.5q-63 0 -86 -23z" />
    <glyph glyph-name="Adieresis" unicode="&#xc4;" horiz-adv-x="571" 
d="M554 107q-12 -16 -56 -66t-45 -50q-19 -1 -52 24q-31 22 -38 37q-16 37 -15 76l-206 -141q-58 24 -200 98q20 6 39 14q45 20 76 46q27 27 24 78q-1 20 -1 65q-4 21 -9 28q-7 11 -27 13q-27 4 -44 -19q0 27 18 46.5t36 19.5h28v97q-5 33 -11.5 45.5t-28.5 25.5
q97 35 142 56q79 37 147 90l93 -58q23 -9 83 -32q-23 -4 -37.5 -23t-14.5 -44v-380q0 -15 15 -35q18 -24 39 -24q18 1 38 21q1 -1 3.5 -4t3.5 -4zM347 373v192l-73 50q2 -169 0 -242q76 0 73 0zM257 373v242q-24 -12 -47 -24q-30 -21 -26 -55v-163h73zM350 154l-1 158
q-61 3 -72 0q-1 -96 0 -207zM257 93v219h-75v-121l-101 -63l135 -67zM319 768q0 19 12.5 32t31.5 13t32 -13t13 -32t-13 -32t-32 -13q-18 0 -31 13.5t-13 31.5zM179 768q0 19 12.5 32t31.5 13t32 -13t13 -32t-13 -32t-32 -13q-18 0 -31 13.5t-13 31.5z" />
    <glyph glyph-name="Aring" unicode="&#xc5;" horiz-adv-x="571" 
d="M554 107q-12 -16 -56 -66t-45 -50q-19 -1 -52 24q-31 22 -38 37q-16 37 -15 76l-206 -141q-58 24 -200 98q20 6 39 14q45 20 76 46q31 31 29 78v65q-8 37 -42 41q-27 4 -44 -19q0 27 18 46.5t36 19.5h28v97q-5 33 -11.5 45.5t-28.5 25.5q97 35 142 56q79 37 147 90
l93 -58q23 -9 83 -32q-23 -4 -37.5 -23t-14.5 -44v-380q0 -15 15 -35q18 -24 39 -24q18 1 38 21q1 -1 3.5 -4t3.5 -4zM347 373v192l-73 50q2 -169 0 -242q76 0 73 0zM257 373v242q-24 -12 -47 -24q-30 -21 -26 -55v-163h73zM350 154l-1 158q-61 3 -72 0q-1 -96 0 -207z
M257 93v219h-75v-121l-101 -63l135 -67zM289 850q29 0 49.5 -21t20.5 -50t-20.5 -49.5t-49.5 -20.5t-50 21t-21 47q0 31 21 52t50 21zM289 827q-19 0 -29 -10q-14 -14 -14 -34t14 -33.5t33 -13.5q20 0 33.5 14t13.5 33q0 20 -14 34q-9 10 -37 10z" />
    <glyph glyph-name="Ccedilla" unicode="&#xc7;" horiz-adv-x="613" 
d="M395 596l-52 17q-9 -4 -20 -12q2 -121 0 -268q-1 -73 -2 -80q-4 -32 -30 -57t-98 -65q63 -40 170 -45q27 -2 32 2v508zM327 -4l1 -42q26 7 45 7q37 0 45 -28q3 -10 3 -59q0 -25 9 -32q-16 5 -53 5q-31 0 -59 -35q-25 35 -50 35q-19 0 -23 -23l-8 2q2 23 19 37.5t40 14.5
t43 -22l20 4q14 23 14 39q0 15 -14 34l-13 1q-22 2 -46 -12l1 77q-136 18 -216 97q-85 86 -88 227q-1 85 53 169q59 91 159 136q14 7 27 15q23 11 37 11q2 0 13 -4q-104 -43 -160 -129q-50 -76 -53 -172q-2 -65 35 -129q28 -51 65 -79q16 3 33 21.5t17 34.5v122
q-10 54 -42 52q-24 2 -41 -21q0 27 18 46.5t36 19.5h28v98q0 38 -38 47q1 5 13 7q19 2 23 4q69 28 140 78q30 21 61 43l45 -22t64 -26q9 -1 28 10t28 8q6 -8 -43.5 -53.5t-61.5 -45.5q-5 0 -61 19l-1 -495q18 4 50 12q55 17 74 37q15 15 23 16q-28 -79 -59 -132
q-6 -11 -63.5 -19.5t-100.5 -6.5q-8 0 -16 1z" />
    <glyph glyph-name="Eacute" unicode="&#xc9;" horiz-adv-x="634" 
d="M596 641l-194 -204h170l-60 -90q-36 -2 -104 -1v-253q130 25 170 55q1 -5 -19 -65q-12 -37 -24 -73q-62 -22 -173 -22q-146 0 -254 100.5t-108 245.5q0 129 68 207q59 68 189 117l4 -10q-197 -90 -197 -292q0 -54 29 -120q33 -75 79 -88q42 11 42 71v96q2 27 -11 44
t-36 17q-22 0 -37 -21q0 23 16 43.5t38 22.5h31v88q0 44 -38 64q119 28 257 119l132 -55q2 1 11 7t10 6q8 0 9 -9zM488 561q-127 54 -139 54q-28 0 -28 -43v-186q42 38 167 175zM390 91v255q-51 -2 -69 0v-110q0 -27 -28 -44q-26 -12 -52 -23q-30 -15 -55 -31
q81 -49 179 -48zM457 793q-10 25 -23 25q-7 0 -26 -10l-155 -85l2 -7q44 8 88 17q80 15 87 15q31 0 31 29q0 8 -4 16z" />
    <glyph glyph-name="Ntilde" unicode="&#xd1;" horiz-adv-x="619" 
d="M598 84l-101 -89q-70 24 -98 122l-1 182l-70 -40v-158l26 21q10 -4 10 -13q0 -3 -76.5 -63t-78.5 -60q-18 0 -201 80q0 6 34 27q42 26 63 54q34 43 34 105q0 113 -51 113q-10 0 -17 -6q-10 -10 -13 -11v21q0 19 14.5 35t36.5 16q9 0 26 -5q-1 65 1 90q2 32 -8 58
q-12 34 -40 34q-2 0 -14 -9.5t-14 -9.5q-9 0 -9 10q0 6 92 89q10 0 37 -21q23 -19 28 -26q12 -16 31 -72l141 119q31 -11 62 -23q54 -18 67 -18q10 0 46 23q7 -3 7.5 -3.5t3.5 -7.5q-44 -37 -122 -95l-116 42v-233l73 42v59q0 51 148 132l9 -14q-13 -6 -24 -18
q-24 -29 -27 -83v-299q5 -56 28 -82q16 -18 32 -18q4 0 4 1q10 17 18 17q9 0 9 -15zM401 320v61q-2 0 -73 -43q-2 -48 0 -57zM309 592q-70 -58 -70 -61v-149q0 -99 0 -98q1 -8 1 -17q0 -42 -46 -82l-74 -60l163 -59l26 18v508zM172 729q8 38 45 61q34 20 75 20
q16 0 46.5 -14t48.5 -14q16 0 45 8t40 17q-17 -36 -52 -59t-75 -23q-17 0 -45 13.5t-42 13.5q-63 0 -86 -23z" />
    <glyph glyph-name="Odieresis" unicode="&#xd6;" horiz-adv-x="547" 
d="M527 165q-8 -8 -28 -17q-30 -14 -33 -15q-55 -29 -211 -140q-113 53 -256 70q96 72 96 127v108q0 42 -47 42q-2 0 -9.5 -1t-15.5 -1q2 19 18.5 36t35.5 17q17 0 16 -1v134q0 43 -40 40q11 6 60 17q91 22 184 85q38 26 43 26q18 0 81 -47q66 -51 66 -76l1 -311
q0 -82 39 -93zM389 520q0 28 -96 89l1 -222l95 53v80zM389 362v61l-96 -52v-65zM276 616q-1 2 -17 2q-22 0 -42 -25.5t-23 -51.5v-341l-80 -66q103 -17 162 -42v524zM389 150v196l-96 -57v-200l42 -12q16 7 27 17q27 23 27 56zM309 768q0 19 12.5 32t31.5 13t32 -13t13 -32
t-13 -32t-32 -13q-18 0 -31 13.5t-13 31.5zM169 768q0 19 12.5 32t31.5 13t32 -13t13 -32t-13 -32t-32 -13q-18 0 -31 13.5t-13 31.5z" />
    <glyph glyph-name="Udieresis" unicode="&#xdc;" horiz-adv-x="610" 
d="M589 80q-43 -37 -93 -94q-19 -1 -51 20q-36 25 -47 57q-6 17 -6 69l-186 -150q-44 26 -114 54q-94 38 -96 39q68 41 83 56q30 29 30 72v91q-2 26 -16 46.5t-38 20.5q5 0 -19 -6q-1 2 -1 5q0 13 15.5 31t31.5 18q26 0 27 1v110q0 27 -11 48q-16 29 -46 29q-3 0 -17 -8.5
t-21 -10.5l-2 10l110 95q49 -32 62 -45q27 -27 27 -62v-326q0 -78 -94 -110l159 -82q5 0 14 11l3 404q0 32 -1 104q-10 -7 -31 -18v15l136 107l150 -75q-15 -12 -30 -23q-24 -22 -23 -45v-362q-8 -103 61 -103q4 0 12.5 7t11.5 13q0 -2 10 -13zM392 423q-1 78 0 140
q-53 39 -57 39q-23 0 -27 -19v-219zM392 343v59l-84 -59v-59zM392 150v177l-84 -61q2 -64 0 -185q84 67 84 69zM309 768q0 19 12.5 32t31.5 13t32 -13t13 -32t-13 -32t-32 -13q-18 0 -31 13.5t-13 31.5zM169 768q0 19 12.5 32t31.5 13t32 -13t13 -32t-13 -32t-32 -13
q-18 0 -31 13.5t-13 31.5z" />
    <glyph glyph-name="aacute" unicode="&#xe1;" horiz-adv-x="335" 
d="M316 62q-22 -11 -46.5 -35.5t-28.5 -42.5q-10 19 -21 38q-22 29 -64 29q-49 0 -70 -32l-16 -36q-10 41 -67 74q30 13 30 37v73q0 16 -5 28q-5 9 -9 18q7 -5 13 -9q15 -7 52 -8q32 -1 68 18q46 24 47 65q0 9 -1 22l-4 16q-1 2 -11 10q-15 13 -31 26q-20 16 -26 15
q-25 -5 -47 -21.5t-22 -34.5q-1 -12 13.5 -25.5t24.5 -13.5q11 -1 24 7t13 22q0 8 -5 17q8 -3 14.5 -15t5.5 -20q0 -17 -18.5 -35.5t-37.5 -18.5q-27 1 -44.5 19t-16.5 48q1 40 50 68q39 18 78 35q6 3 15.5 11.5t11.5 8.5q42 -28 120 -74l-16 -10t-8 -17v-219q4 -20 35 -38z
M198 99q-1 41 0 127q-40 -35 -85 -45l-2 -72q-1 -22 5 -29q8 -12 38 -13q17 0 30.5 8.5t13.5 23.5zM247 517q-9 20 -19 20q-6 0 -21 -9l-124 -67l2 -6l70 14q64 12 70 12q25 0 25 23q0 6 -3 13z" />
    <glyph glyph-name="agrave" unicode="&#xe0;" horiz-adv-x="335" 
d="M316 62q-22 -11 -46.5 -35.5t-28.5 -42.5q-10 19 -21 38q-22 29 -64 29q-49 0 -70 -32l-16 -36q-10 41 -67 74q30 13 30 37v73q0 16 -5 28q-5 9 -9 18q7 -5 13 -9q15 -7 52 -8q32 -1 68 18q46 24 47 65q0 9 -1 22l-4 16q-1 2 -11 10q-15 13 -31 26q-20 16 -26 15
q-25 -5 -47 -21.5t-22 -34.5q-1 -12 13.5 -25.5t24.5 -13.5q11 -1 24 7t13 22q0 8 -5 17q8 -3 14.5 -15t5.5 -20q0 -17 -18.5 -35.5t-37.5 -18.5q-27 1 -44.5 19t-16.5 48q1 40 50 68q39 18 78 35q6 3 15.5 11.5t11.5 8.5q42 -28 120 -74l-16 -10t-8 -17v-219q4 -20 35 -38z
M198 99q-1 41 0 127q-40 -35 -85 -45l-2 -72q-1 -22 5 -29q8 -12 38 -13q17 0 30.5 8.5t13.5 23.5zM82 517q9 20 19 20q6 0 21 -9l123 -67l-1 -6l-70 14q-64 12 -70 12q-25 0 -25 23q0 6 3 13z" />
    <glyph glyph-name="acircumflex" unicode="&#xe2;" horiz-adv-x="335" 
d="M316 62q-22 -11 -46.5 -35.5t-28.5 -42.5q-10 19 -21 38q-22 29 -64 29q-49 0 -70 -32l-16 -36q-10 41 -67 74q30 13 30 37v73q0 16 -5 28q-5 9 -9 18q7 -5 13 -9q15 -7 52 -8q32 -1 68 18q46 24 47 65q0 9 -1 22l-4 16q-1 2 -11 10q-15 13 -31 26q-20 16 -26 15
q-25 -5 -47 -21.5t-22 -34.5q-1 -12 13.5 -25.5t24.5 -13.5q11 -1 24 7t13 22q0 8 -5 17q8 -3 14.5 -15t5.5 -20q0 -17 -18.5 -35.5t-37.5 -18.5q-27 1 -44.5 19t-16.5 48q1 40 50 68q39 18 78 35q6 3 15.5 11.5t11.5 8.5q42 -28 120 -74l-16 -10t-8 -17v-219q4 -20 35 -38z
M198 99q-1 41 0 127q-40 -35 -85 -45l-2 -72q-1 -22 5 -29q8 -12 38 -13q17 0 30.5 8.5t13.5 23.5zM74 455l-1 4l96 91l101 -92l-2 -5l-98 40z" />
    <glyph glyph-name="adieresis" unicode="&#xe4;" horiz-adv-x="335" 
d="M316 62q-22 -11 -46.5 -35.5t-28.5 -42.5q-10 19 -21 38q-22 29 -64 29q-49 0 -70 -32l-16 -36q-10 41 -67 74q30 13 30 37v73q0 16 -5 28q-5 9 -9 18q7 -5 13 -9q15 -7 52 -8q32 -1 68 18q46 24 47 65q0 9 -1 22l-4 16q-1 2 -11 10q-15 13 -31 26q-20 16 -26 15
q-25 -5 -47 -21.5t-22 -34.5q-1 -12 13.5 -25.5t24.5 -13.5q11 -1 24 7t13 22q0 8 -5 17q8 -3 14.5 -15t5.5 -20q0 -17 -18.5 -35.5t-37.5 -18.5q-27 1 -44.5 19t-16.5 48q1 40 50 68q39 18 78 35q6 3 15.5 11.5t11.5 8.5q42 -28 120 -74l-16 -10t-8 -17v-219q4 -20 35 -38z
M198 99q-1 41 0 127q-40 -35 -85 -45l-2 -72q-1 -22 5 -29q8 -12 38 -13q17 0 30.5 8.5t13.5 23.5zM184 488q0 15 10 25.5t25 10.5q36 0 36 -36q0 -15 -10.5 -25.5t-25.5 -10.5q-14 0 -24.5 10.5t-10.5 25.5zM72 488q0 15 10 25.5t25 10.5q36 0 36 -36q0 -15 -10.5 -25.5
t-25.5 -10.5q-14 0 -24.5 10.5t-10.5 25.5z" />
    <glyph glyph-name="atilde" unicode="&#xe3;" horiz-adv-x="335" 
d="M316 62q-22 -11 -46.5 -35.5t-28.5 -42.5q-10 19 -21 38q-22 29 -64 29q-49 0 -70 -32l-16 -36q-10 41 -67 74q30 13 30 37v73q0 16 -5 28q-5 9 -9 18q7 -5 13 -9q15 -7 52 -8q32 -1 68 18q46 24 47 65q0 9 -1 22l-4 16q-1 2 -11 10q-15 13 -31 26q-20 16 -26 15
q-25 -5 -47 -21.5t-22 -34.5q-1 -12 13.5 -25.5t24.5 -13.5q11 -1 24 7t13 22q0 8 -5 17q8 -3 14.5 -15t5.5 -20q0 -17 -18.5 -35.5t-37.5 -18.5q-27 1 -44.5 19t-16.5 48q1 40 50 68q39 18 78 35q6 3 15.5 11.5t11.5 8.5q42 -28 120 -74l-16 -10t-8 -17v-219q4 -20 35 -38z
M198 99q-1 41 0 127q-40 -35 -85 -45l-2 -72q-1 -22 5 -29q8 -12 38 -13q17 0 30.5 8.5t13.5 23.5zM42 467q6 30 36 48q27 17 60 17q13 0 37 -11.5t39 -11.5q13 0 36 6.5t32 13.5q-30 -65 -102 -65q-13 0 -35.5 10.5t-33.5 10.5q-51 0 -69 -18z" />
    <glyph glyph-name="aring" unicode="&#xe5;" horiz-adv-x="335" 
d="M316 62q-22 -11 -46.5 -35.5t-28.5 -42.5q-10 19 -21 38q-22 29 -64 29q-49 0 -70 -32l-16 -36q-10 41 -67 74q30 13 30 37v73q0 16 -5 28q-5 9 -9 18q7 -5 13 -9q15 -7 52 -8q32 -1 68 18q46 24 47 65q0 9 -1 22l-4 16q-1 2 -11 10q-15 13 -31 26q-20 16 -26 15
q-25 -5 -47 -21.5t-22 -34.5q-1 -12 13.5 -25.5t24.5 -13.5q11 -1 24 7t13 22q0 8 -5 17q8 -3 14.5 -15t5.5 -20q0 -17 -18.5 -35.5t-37.5 -18.5q-27 1 -44.5 19t-16.5 48q1 40 50 68q39 18 78 35q6 3 15.5 11.5t11.5 8.5q42 -28 120 -74l-16 -10t-8 -17v-219q4 -20 35 -38z
M198 99q-1 41 0 127q-40 -35 -85 -45l-2 -72q-1 -22 5 -29q8 -12 38 -13q17 0 30.5 8.5t13.5 23.5zM163 594q30 0 50 -20.5t20 -50.5q0 -29 -20.5 -49.5t-49.5 -20.5t-50 21t-21 47q0 31 21 52t50 21zM163 571q-20 0 -33.5 -14t-13.5 -34t14 -33.5t33 -13.5q20 0 33.5 14
t13.5 33q0 20 -13.5 34t-33.5 14z" />
    <glyph glyph-name="ccedilla" unicode="&#xe7;" horiz-adv-x="273" 
d="M221 -125q-13 4 -43 4q-24 0 -47 -28q-20 28 -40 28q-15 0 -18 -19l-7 2q4 42 47 42q19 0 35 -18l16 3q11 19 11 31t-11 28h-11q-17 2 -36 -9v61q-54 45 -114 63q2 2 20 17q11 9 11 18q0 31 1 115v77q-1 24 -24 58q8 -4 15.5 -7t26.5 -4q38 -2 73 23q22 16 44 46
q17 21 18 19q6 -15 67 -75q-14 -11 -25 -22q-26 -26 -32 -49q-12 17 -24 35q-26 34 -37 34q-14 0 -23 -22v-223q0 -10 26.5 -25.5t39.5 -15.5q19 0 53 25l7 -7l-102 -83l1 -33q21 6 36 6q29 0 36 -22q3 -8 3 -48q0 -20 7 -25z" />
    <glyph glyph-name="eacute" unicode="&#xe9;" horiz-adv-x="306" 
d="M137 359l73 -104q-28 -18 -96 -53v146zM286 279q-41 65 -89 147q-1 2 -20 -15q-26 -23 -49 -36q-37 -20 -75 -18q-20 1 -42 11q14 -21 16 -25q7 -14 8 -33v-87q-1 -95 -1 -125q0 -9 -11 -18q-18 -15 -20 -17q62 -19 126 -73l126 102l-9 9q-57 -39 -66 -39q-10 0 -34 17
l-32 24v80l171 96h1zM217 517q-9 20 -19 20q-6 0 -21 -9l-124 -67l2 -6l70 14q64 12 70 12q25 0 25 23q0 6 -3 13z" />
    <glyph glyph-name="egrave" unicode="&#xe8;" horiz-adv-x="306" 
d="M137 359l73 -104q-28 -18 -96 -53v146zM286 279q-41 65 -89 147q-1 2 -20 -15q-26 -23 -49 -36q-37 -20 -75 -18q-20 1 -42 11q14 -21 16 -25q7 -14 8 -33v-87q-1 -95 -1 -125q0 -9 -11 -18q-18 -15 -20 -17q62 -19 126 -73l126 102l-9 9q-57 -39 -66 -39q-10 0 -34 17
l-32 24v80l171 96h1zM62 517q9 20 19 20q6 0 21 -9l123 -67l-1 -6l-70 14q-64 12 -70 12q-25 0 -25 23q0 6 3 13z" />
    <glyph glyph-name="ecircumflex" unicode="&#xea;" horiz-adv-x="306" 
d="M137 359l73 -104q-28 -18 -96 -53v146zM286 279q-41 65 -89 147q-1 2 -20 -15q-26 -23 -49 -36q-37 -20 -75 -18q-20 1 -42 11q14 -21 16 -25q7 -14 8 -33v-87q-1 -95 -1 -125q0 -9 -11 -18q-18 -15 -20 -17q62 -19 126 -73l126 102l-9 9q-57 -39 -66 -39q-10 0 -34 17
l-32 24v80l171 96h1zM44 455l-1 4l96 91l101 -92l-2 -5l-98 40z" />
    <glyph glyph-name="edieresis" unicode="&#xeb;" horiz-adv-x="306" 
d="M137 359l73 -104q-28 -18 -96 -53v146zM286 279q-41 65 -89 147q-1 2 -20 -15q-26 -23 -49 -36q-37 -20 -75 -18q-20 1 -42 11q14 -21 16 -25q7 -14 8 -33v-87q-1 -95 -1 -125q0 -9 -11 -18q-18 -15 -20 -17q62 -19 126 -73l126 102l-9 9q-57 -39 -66 -39q-10 0 -34 17
l-32 24v80l171 96h1zM157 488q0 15 10 25.5t25 10.5q36 0 36 -36q0 -15 -10.5 -25.5t-25.5 -10.5q-14 0 -24.5 10.5t-10.5 25.5zM45 488q0 15 10 25.5t25 10.5q36 0 36 -36q0 -15 -10.5 -25.5t-25.5 -10.5q-14 0 -24.5 10.5t-10.5 25.5z" />
    <glyph glyph-name="iacute" unicode="&#xed;" horiz-adv-x="189" 
d="M33 368q-25 -18 -29 -21q38 -12 38 -44v-197q-5 -32 -37 -47q57 -21 82 -64q28 41 73 64q-22 12 -28 20q-9 9 -9 27l-1 197q1 31 39 44q-23 15 -67 55q-8 9 -11 15q-6 -8 -17 -20.5t-33 -28.5zM157 517q-9 20 -19 20q-6 0 -21 -9l-124 -67l2 -6l70 14q64 12 70 12
q25 0 25 23q0 6 -3 13z" />
    <glyph glyph-name="igrave" unicode="&#xec;" horiz-adv-x="189" 
d="M33 368q-25 -18 -29 -21q38 -12 38 -44v-197q-5 -32 -37 -47q57 -21 82 -64q28 41 73 64q-22 12 -28 20q-9 9 -9 27l-1 197q1 31 39 44q-23 15 -67 55q-8 9 -11 15q-6 -8 -17 -20.5t-33 -28.5zM2 517q9 20 19 20q6 0 21 -9l123 -67l-1 -6l-70 14q-64 12 -70 12
q-25 0 -25 23q0 6 3 13z" />
    <glyph glyph-name="icircumflex" unicode="&#xee;" horiz-adv-x="189" 
d="M33 368q-25 -18 -29 -21q38 -12 38 -44v-197q-5 -32 -37 -47q57 -21 82 -64q28 41 73 64q-22 12 -28 20q-9 9 -9 27l-1 197q1 31 39 44q-23 15 -67 55q-8 9 -11 15q-6 -8 -17 -20.5t-33 -28.5zM-16 455l-1 4l96 91l101 -92l-2 -5l-98 40z" />
    <glyph glyph-name="idieresis" unicode="&#xef;" horiz-adv-x="189" 
d="M33 368q-25 -18 -29 -21q38 -12 38 -44v-197q-5 -32 -37 -47q57 -21 82 -64q28 41 73 64q-22 12 -28 20q-9 9 -9 27l-1 197q1 31 39 44q-23 15 -67 55q-8 9 -11 15q-6 -8 -17 -20.5t-33 -28.5zM104 488q0 15 10 25.5t25 10.5q36 0 36 -36q0 -15 -10.5 -25.5t-25.5 -10.5
q-14 0 -24.5 10.5t-10.5 25.5zM-8 488q0 15 10 25.5t25 10.5q36 0 36 -36q0 -15 -10.5 -25.5t-25.5 -10.5q-14 0 -24.5 10.5t-10.5 25.5z" />
    <glyph glyph-name="ntilde" unicode="&#xf1;" horiz-adv-x="355" 
d="M329 357q-11 -10 -23 -19q-16 -17 -14 -40q-2 -75 0 -197q2 -26 13 -37q9 -5 17 -10l-33 -25q-29 -23 -33 -44q-32 48 -74 69q33 18 31 51l-2 187q-2 51 -47 51q-47 0 -47 -49q0 -10 1 -11l-1 -177q-1 -13 9 -31t25 -21q-29 -24 -69 -68q-39 51 -75 68q14 5 24 20t10 30
v179q0 65 -41 74q36 11 51 25.5t25 46.5q-1 -5 22 -31q29 -33 70 -33q53 0 78 65q8 -34 47 -57zM42 467q6 30 36 48q27 17 60 17q13 0 37 -11.5t39 -11.5q13 0 36 6.5t32 13.5q-30 -65 -102 -65q-13 0 -35.5 10.5t-33.5 10.5q-51 0 -69 -18z" />
    <glyph glyph-name="oacute" unicode="&#xf3;" horiz-adv-x="340" 
d="M316 354q-11 -9 -22 -19q-15 -16 -13 -37v-184q0 -25 7 -39q4 -7 20 -26q-49 9 -57 9q-20 0 -43 -10q-54 -24 -85 -63l-48 31q-51 33 -72 39q8 7 17 14q16 21 14 51q-1 115 0 170q-3 29 -25 71q30 -9 52 -9q29 0 60 18q20 12 42 33q19 18 20 18q-2 0 133 -67zM202 95
l-1 176q0 93 -49 85q-39 -6 -39 -48q0 -9 2 -18v-155q-3 -27 10 -53q16 -31 42 -31q7 0 21 16t14 28zM247 517q-9 20 -19 20q-6 0 -21 -9l-124 -67l2 -6l70 14q64 12 70 12q25 0 25 23q0 6 -3 13z" />
    <glyph glyph-name="ograve" unicode="&#xf2;" horiz-adv-x="340" 
d="M316 354q-11 -9 -22 -19q-15 -16 -13 -37v-184q0 -25 7 -39q4 -7 20 -26q-49 9 -57 9q-20 0 -43 -10q-54 -24 -85 -63l-48 31q-51 33 -72 39q8 7 17 14q16 21 14 51q-1 115 0 170q-3 29 -25 71q30 -9 52 -9q29 0 60 18q20 12 42 33q19 18 20 18q-2 0 133 -67zM202 95
l-1 176q0 93 -49 85q-39 -6 -39 -48q0 -9 2 -18v-155q-3 -27 10 -53q16 -31 42 -31q7 0 21 16t14 28zM72 517q9 20 19 20q6 0 21 -9l123 -67l-1 -6l-70 14q-64 12 -70 12q-25 0 -25 23q0 6 3 13z" />
    <glyph glyph-name="ocircumflex" unicode="&#xf4;" horiz-adv-x="340" 
d="M316 354q-11 -9 -22 -19q-15 -16 -13 -37v-184q0 -25 7 -39q4 -7 20 -26q-49 9 -57 9q-20 0 -43 -10q-54 -24 -85 -63l-48 31q-51 33 -72 39q8 7 17 14q16 21 14 51q-1 115 0 170q-3 29 -25 71q30 -9 52 -9q29 0 60 18q20 12 42 33q19 18 20 18q-2 0 133 -67zM202 95
l-1 176q0 93 -49 85q-39 -6 -39 -48q0 -9 2 -18v-155q-3 -27 10 -53q16 -31 42 -31q7 0 21 16t14 28zM54 455l-1 4l96 91l101 -92l-2 -5l-98 40z" />
    <glyph glyph-name="odieresis" unicode="&#xf6;" horiz-adv-x="340" 
d="M316 354q-11 -9 -22 -19q-15 -16 -13 -37v-184q0 -25 7 -39q4 -7 20 -26q-49 9 -57 9q-20 0 -43 -10q-54 -24 -85 -63l-48 31q-51 33 -72 39q8 7 17 14q16 21 14 51q-1 115 0 170q-3 29 -25 71q30 -9 52 -9q29 0 60 18q20 12 42 33q19 18 20 18q-2 0 133 -67zM202 95
l-1 176q0 93 -49 85q-39 -6 -39 -48q0 -9 2 -18v-155q-3 -27 10 -53q16 -31 42 -31q7 0 21 16t14 28zM184 488q0 15 10 25.5t25 10.5q36 0 36 -36q0 -15 -10.5 -25.5t-25.5 -10.5q-14 0 -24.5 10.5t-10.5 25.5zM72 488q0 15 10 25.5t25 10.5q36 0 36 -36q0 -15 -10.5 -25.5
t-25.5 -10.5q-14 0 -24.5 10.5t-10.5 25.5z" />
    <glyph glyph-name="otilde" unicode="&#xf5;" horiz-adv-x="340" 
d="M316 354q-11 -9 -22 -19q-15 -16 -13 -37v-184q0 -25 7 -39q4 -7 20 -26q-49 9 -57 9q-20 0 -43 -10q-54 -24 -85 -63l-48 31q-51 33 -72 39q8 7 17 14q16 21 14 51q-1 115 0 170q-3 29 -25 71q30 -9 52 -9q29 0 60 18q20 12 42 33q19 18 20 18q-2 0 133 -67zM202 95
l-1 176q0 93 -49 85q-39 -6 -39 -48q0 -9 2 -18v-155q-3 -27 10 -53q16 -31 42 -31q7 0 21 16t14 28zM42 467q6 30 36 48q27 17 60 17q13 0 37 -11.5t39 -11.5q13 0 36 6.5t32 13.5q-30 -65 -102 -65q-13 0 -35.5 10.5t-33.5 10.5q-51 0 -69 -18z" />
    <glyph glyph-name="uacute" unicode="&#xfa;" horiz-adv-x="378" 
d="M349 55q-76 -44 -85 -73l-4 -1q-8 28 -39 46q-26 15 -48 15q-26 0 -52.5 -18.5t-32.5 -44.5l-5 1q-8 21 -42.5 49t-35.5 30q7 4 21 20t15 26v197q1 12 -9 29.5t-26 21.5q36 29 43 35q20 18 35 38q8 -15 29 -37q28 -31 44 -34q-32 -17 -31 -53v-193q5 -13 12 -22
q15 -23 35 -23q51 -2 51 43v191q0 35 -35 55q19 13 38 27q33 25 42 46q19 -43 81 -75q-10 -6 -24 -22q-15 -19 -15 -31v-189q-7 -43 38 -54zM257 517q-9 20 -19 20q-6 0 -21 -9l-124 -67l2 -6l70 14q64 12 70 12q25 0 25 23q0 6 -3 13z" />
    <glyph glyph-name="ugrave" unicode="&#xf9;" horiz-adv-x="378" 
d="M349 55q-76 -44 -85 -73l-4 -1q-8 28 -39 46q-26 15 -48 15q-26 0 -52.5 -18.5t-32.5 -44.5l-5 1q-8 21 -42.5 49t-35.5 30q7 4 21 20t15 26v197q1 12 -9 29.5t-26 21.5q36 29 43 35q20 18 35 38q8 -15 29 -37q28 -31 44 -34q-32 -17 -31 -53v-193q5 -13 12 -22
q15 -23 35 -23q51 -2 51 43v191q0 35 -35 55q19 13 38 27q33 25 42 46q19 -43 81 -75q-10 -6 -24 -22q-15 -19 -15 -31v-189q-7 -43 38 -54zM92 517q9 20 19 20q6 0 21 -9l123 -67l-1 -6l-70 14q-64 12 -70 12q-25 0 -25 23q0 6 3 13z" />
    <glyph glyph-name="ucircumflex" unicode="&#xfb;" horiz-adv-x="378" 
d="M349 55q-76 -44 -85 -73l-4 -1q-8 28 -39 46q-26 15 -48 15q-26 0 -52.5 -18.5t-32.5 -44.5l-5 1q-8 21 -42.5 49t-35.5 30q7 4 21 20t15 26v197q1 12 -9 29.5t-26 21.5q36 29 43 35q20 18 35 38q8 -15 29 -37q28 -31 44 -34q-32 -17 -31 -53v-193q5 -13 12 -22
q15 -23 35 -23q51 -2 51 43v191q0 35 -35 55q19 13 38 27q33 25 42 46q19 -43 81 -75q-10 -6 -24 -22q-15 -19 -15 -31v-189q-7 -43 38 -54zM84 455l-1 4l96 91l101 -92l-2 -5l-98 40z" />
    <glyph glyph-name="udieresis" unicode="&#xfc;" horiz-adv-x="377" 
d="M349 55q-76 -44 -85 -73l-4 -1q-8 28 -39 46q-26 15 -48 15q-26 0 -52.5 -18.5t-32.5 -44.5l-5 1q-8 21 -42.5 49t-35.5 30q7 4 21 20t15 26v197q1 12 -9 29.5t-26 21.5q36 29 43 35q20 18 35 38q8 -15 29 -37q28 -31 44 -34q-32 -17 -31 -53v-193q5 -13 12 -22
q15 -23 35 -23q51 -2 51 43v191q0 35 -35 55q19 13 38 27q33 25 42 46q19 -43 81 -75q-10 -6 -24 -22q-15 -19 -15 -31v-189q-7 -43 38 -54zM204 488q0 15 10 25.5t25 10.5q36 0 36 -36q0 -15 -10.5 -25.5t-25.5 -10.5q-14 0 -24.5 10.5t-10.5 25.5zM92 488q0 15 10 25.5
t25 10.5q36 0 36 -36q0 -15 -10.5 -25.5t-25.5 -10.5q-14 0 -24.5 10.5t-10.5 25.5z" />
    <glyph glyph-name="dagger" unicode="&#x2020;" horiz-adv-x="455" 
d="M193 489q-24 -1 -69.5 -20.5t-65.5 -19.5q-54 0 -54 56q0 60 54 60q19 0 65 -22t70 -24q0 37 -26 91.5t-26 68.5q0 27 19.5 42.5t47.5 15.5t47 -15.5t19 -42.5q0 -14 -26 -69t-27 -91q25 2 71 24t64 22q55 0 55 -62q0 -61 -55 -61q-17 0 -63 22.5t-72 24.5
q7 -107 68 -171q-43 -83 -55 -198q-5 -43 -9 -207h-35q-4 159 -9 207q-13 117 -55 198q61 64 67 171z" />
    <glyph glyph-name="degree" unicode="&#xb0;" horiz-adv-x="324" 
d="M144 749q52 0 88 -37t36 -89t-36 -88.5t-88 -36.5q-50 0 -88.5 36t-38.5 86q0 53 37 91t90 38zM144 709q-36 0 -60.5 -25t-24.5 -61q0 -35 25 -60t60 -25t59.5 25t24.5 60t-24.5 60.5t-59.5 25.5z" />
    <glyph glyph-name="cent" unicode="&#xa2;" horiz-adv-x="316" 
d="M159 228v270h-2q-14 1 -43 -24v-221q0 -9 45 -25zM159 625h23v-73q25 25 26 23q6 -15 87 -75q-14 -11 -25 -22q-26 -26 -32 -49q-16 17 -56 55v-264q29 -8 38 -8q19 0 53 25l7 -7l-98 -79v-116h-23v105q-51 41 -156 73q31 34 31 44l-1 184q-1 26 -22 57q8 -4 15.5 -7
t26.5 -4q51 -2 106 44v94z" />
    <glyph glyph-name="sterling" unicode="&#xa3;" horiz-adv-x="461" 
d="M8 4q1 18 14 43q93 180 93 199v72l-93 1v39h84l-32 87q-8 22 -8 44q0 77 74 124q63 40 144 40q47 0 87 -36l17 16l10 -9q-46 -40 -84 -99q-52 54 -54 55q-42 40 -59 38q-56 -8 -56 -73q0 -24 7 -48l41 -139h135v-39l-130 -1l-8 -69q-2 -20 -56 -80q-64 -72 -74 -88
q160 60 201 60q59 0 131 -37l14 19l8 -9q-37 -57 -64 -113q-83 50 -172 50q-31 0 -115 -39q-9 -6 -20.5 -7.5t-22.5 -3.5z" />
    <glyph glyph-name="section" unicode="&#xa7;" horiz-adv-x="11" 
 />
    <glyph glyph-name="bullet" unicode="&#x2022;" horiz-adv-x="292" 
d="M55 262q0 36 25.5 61t61.5 25q35 0 60.5 -25t25.5 -61t-25.5 -61t-60.5 -25q-36 0 -61.5 25t-25.5 61z" />
    <glyph glyph-name="paragraph" unicode="&#xb6;" horiz-adv-x="512" 
d="M462 -55h-282v30q39 0 49 12t10 53v283l-31 -1q-85 -3 -136.5 44t-51.5 132q0 101 66 142q52 32 162 32h214v-30q-38 0 -47.5 -12.5t-9.5 -53.5v-536q0 -42 8 -52q10 -13 49 -13v-30zM352 -25v667h-63v-667h63z" />
    <glyph glyph-name="germandbls" unicode="&#xdf;" horiz-adv-x="409" 
d="M388 350q-14 -1 -19.5 -9.5t-9.5 -15.5v-86q4 -10 27 -40l-68 -1q-38 -3 -65 -21q67 -35 100 -35q1 0 14.5 1t19.5 1q-27 -21 -31 -51q2 -91 0 -100q2 -12 25 -48q-38 12 -70 12q-73 0 -84 -69q-3 -24 12.5 -45.5t30.5 -21.5q4 0 7 2q2 1 -3 14t-5 15q0 20 13.5 32.5
t32.5 12.5q52 0 52 -47q0 -26 -24 -40q-20 -13 -47 -13q-40 0 -65.5 26.5t-25.5 69.5t66 106q2 2 2 106q0 17 -7 33q-10 25 -33 25q-4 0 -14.5 -9t-11.5 -9q-11 11 -4 16q22 15 74 72v94l-48 41h-88l1 -236q6 -16 11 -29q14 -31 24 -39q-65 -10 -86 -84q-14 -46 -12 -143
q0 -8 -3 -19t-3 -19q-2 0 -17 -3l-2 573l-59 -1q6 15 17 40q13 2 42 0l2 139q0 28 -6 41q-9 16 -17 31q11 -3 25 -3q20 0 47 7l93 66q12 -32 85 -77q-20 -23 -55 -70q-11 8 -86 70v-204h81v0q40 3 61 13.5t18 10.5q4 0 42.5 -37t43.5 -45z" />
    <glyph glyph-name="registered" unicode="&#xae;" horiz-adv-x="378" 
d="M185 720q60 0 102.5 -43.5t42.5 -103.5q0 -61 -43 -104t-104 -43t-104 43t-43 104q0 62 43.5 104.5t105.5 42.5zM182 699q-51 0 -86 -37t-35 -88q0 -52 35 -88.5t87 -36.5t87 36.5t35 88.5t-35.5 88.5t-87.5 36.5zM166 568v-41q0 -9 1 -15q7 -3 24 -3v-14h-89v14
q14 0 21 3q2 6 2 15v92q0 8 -2 15q-6 2 -21 2v15h95q58 0 58 -40q0 -31 -38 -39q21 -8 30 -57q2 -2 5 -3q8 0 8 20h15v-5q0 -35 -38 -35q-26 0 -34 22q-2 5 -7 45q-4 9 -30 9zM166 583h11q34 0 34 27q0 26 -25 26h-9q-11 0 -11 -12v-41z" />
    <glyph glyph-name="copyright" unicode="&#xa9;" horiz-adv-x="816" 
d="M618 93q-101 -101 -245 -101q-155 0 -253 98q-106 105 -106 262q0 156 103.5 258.5t255.5 105.5q67 1 137 -29t114 -77q104 -113 104 -259q0 -149 -110 -258zM369 675q-129 0 -218 -96t-89 -226q0 -131 90.5 -226.5t220.5 -95.5t222 96q89 95 89 226q0 135 -90.5 228.5
t-224.5 93.5zM372 154q-86 0 -139.5 53.5t-53.5 139.5q0 88 55.5 145.5t143.5 57.5q50 0 98 -28l29 26h20l6 -149l-26 -2q-35 128 -122 128q-101 0 -101 -169q0 -172 108 -172q95 0 119 115l26 -1q-32 -144 -163 -144z" />
    <glyph glyph-name="trademark" unicode="&#x2122;" horiz-adv-x="620" 
d="M296 477q24 0 32 15q5 10 5 38v126q0 14 -3 27q-12 4 -31 4v19h109l50 -141l48 141h112v-19q-21 0 -33 -4q-2 -12 -2 -27v-148q0 -15 2 -27q12 -4 33 -4v-18h-131v18q20 0 32 4q3 13 3 27v171l-77 -220h-12l-76 218v-147q0 -27 4 -37q7 -16 32 -16v-18h-97v18zM233 614
q-14 73 -57 74l-7 -4l-1 -10v-166q0 -15 2 -27q12 -4 36 -4v-18h-138v18q24 0 36 4q3 13 3 27v166l-3 11l-8 3q-42 0 -56 -74h-17l4 92h219l5 -92h-18z" />
    <glyph glyph-name="acute" unicode="&#xb4;" horiz-adv-x="369" 
d="M267 527q-9 20 -19 20q-6 0 -21 -9l-124 -67l2 -6l70 14q64 12 70 12q25 0 25 23q0 6 -3 13z" />
    <glyph glyph-name="dieresis" unicode="&#xa8;" horiz-adv-x="335" 
d="M184 488q0 15 10 25.5t25 10.5q36 0 36 -36q0 -15 -10.5 -25.5t-25.5 -10.5q-14 0 -24.5 10.5t-10.5 25.5zM72 488q0 15 10 25.5t25 10.5q36 0 36 -36q0 -15 -10.5 -25.5t-25.5 -10.5q-14 0 -24.5 10.5t-10.5 25.5z" />
    <glyph glyph-name="AE" unicode="&#xc6;" horiz-adv-x="1018" 
d="M878 561q-127 54 -139 54q-28 0 -28 -43v-186q42 38 167 175zM780 91v255q-51 -2 -69 0v-110q0 -28 -26 -48q-13 -10 -49 -27q-23 -15 -62 -42q37 -22 87 -28q24 -2 94 -1zM520 69q-44 -45 -89 -78q-30 6 -55 56q-23 46 -22 83l-212 -143q-58 24 -200 98q20 6 39 14
q45 20 76 46q27 27 24 78q-4 73 -4 62q-5 25 -8 31q-7 11 -25 13q-27 4 -44 -19q0 27 18 46.5t36 19.5h28v97q-5 33 -11.5 45.5t-28.5 25.5q97 35 142 56q79 37 147 90l93 -58q23 -9 65 -23q-31 -7 -34 -72q59 71 192 121l4 -10q-91 -42 -142 -110q-54 -73 -54 -165v-28
q0 -62 19 -114q27 -69 82 -98q48 12 48 86v96q2 27 -11 44t-36 17q-22 0 -37 -21q0 23 16 43.5t38 22.5h31v88q0 44 -38 64q119 28 257 119l132 -55q2 1 11 7t10 6q8 0 9 -9l-194 -204h170l-60 -90q-36 -2 -104 -1v-253q130 25 170 55q1 -5 -19 -65q-12 -37 -24 -73
q-62 -22 -173 -22q-131 0 -232 81zM347 373v192l-73 50q2 -169 0 -242q76 0 73 0zM257 373v242q-24 -12 -47 -24q-30 -21 -26 -55v-163h73zM350 154l-1 158q-61 3 -72 0q-1 -96 0 -207zM257 93v219h-75v-121l-101 -63l135 -67z" />
    <glyph glyph-name="Oslash" unicode="&#xd8;" horiz-adv-x="539" 
d="M517 165q-8 -8 -28 -17q-30 -14 -33 -15q-55 -29 -211 -140q-43 20 -111 39l-32 -54h-27l36 60q-68 18 -122 25q96 72 96 127v108q0 42 -47 42q-2 0 -9.5 -1t-15.5 -1q2 19 18.5 36t35.5 17q17 0 16 -1v134q0 43 -40 40q11 6 60 17q56 14 184 85q47 26 43 26q22 0 96 -61
l30 53h26l-38 -68q36 -34 35 -51l-1 -307q0 -82 39 -93zM179 117q49 -14 146 -40q16 7 27 17q27 23 27 56v344zM374 533q-21 32 -110 88q-23 0 -49.5 -24.5t-28.5 -48.5v-311q-20 -42 -37 -62q-13 -17 -45 -41q25 -4 52 -11z" />
    <glyph glyph-name="plusminus" unicode="&#xb1;" horiz-adv-x="25" 
 />
    <glyph glyph-name="yen" unicode="&#xa5;" horiz-adv-x="472" 
d="M363 222h-102v-86q3 -17 6 -35q8 -26 29 -33q-23 -33 -76 -85q-2 0 -33 33q-37 38 -48 48q37 20 37 69q0 39 -1 89h-91v32h91q0 16 1 48h-92v32h92v16q-19 69 -39 139q-32 91 -83 106h-20q-16 0 -21 -6q-8 -9 -15 -12q-7 3 -8 9l78 95q14 5 20 4q7 -2 13 -4
q54 -14 85 -69q13 -23 38 -100q28 -90 33 -102q21 59 87 265h77l12 15h14l-37 -107h-72l-78 -239v-10h103v-32h-103l1 -48h102v-32z" />
    <glyph glyph-name="uni00B5" unicode="&#xb5;" horiz-adv-x="541" 
d="M301 354l-70 -33v-98q-18 -11 -93 -61q78 -30 160 -60h3v252zM231 356l70 33v176q0 45 0 38q-2 25 -20 22q-12 -1 -50 -23v-246zM32 262l100 47v183q0 34 -3 46q-9 30 -41 36q22 5 97 31q66 28 158 91l146 -54l44 38l9 -11q-38 -38 -115 -106l-106 42v-83q1 -47 1 -70
v-53l114 55v-36l-114 -54v-268q11 -9 72 -29l90 59l16 -11l-185 -129q-122 46 -162 59q-95 32 -152 40l-1 1.5t-1 4.5q0 2 34 20q41 21 64 44q35 34 35 77v42l-100 -47v35z" />
    <glyph glyph-name="uni00B5" unicode="&#x3bc;" horiz-adv-x="541" 
d="M301 354l-70 -33v-98q-18 -11 -93 -61q78 -30 160 -60h3v252zM231 356l70 33v176q0 45 0 38q-2 25 -20 22q-12 -1 -50 -23v-246zM32 262l100 47v183q0 34 -3 46q-9 30 -41 36q22 5 97 31q66 28 158 91l146 -54l44 38l9 -11q-38 -38 -115 -106l-106 42v-83q1 -47 1 -70
v-53l114 55v-36l-114 -54v-268q11 -9 72 -29l90 59l16 -11l-185 -129q-122 46 -162 59q-95 32 -152 40l-1 1.5t-1 4.5q0 2 34 20q41 21 64 44q35 34 35 77v42l-100 -47v35z" />
    <glyph glyph-name="ordfeminine" unicode="&#xaa;" horiz-adv-x="498" 
d="M469 103v-12q-59 -16 -155 -46q-38 -15 -116 -69l-184 66q-14 -10 -39 -26q-2 -1 -3 -1q2 5 -7 7q36 33 116 106q3 1 95 -35v488h-51q-46 0 -46 68q0 44 16 69h9q1 -10 5 -30q5 -11 13 -11h221q47 0 66 -23q6 -8 13 -34q1 -3 1 -122q0 -54 -18 -66q-49 -23 -99 -46
q32 -9 100 -39q24 -13 22 -42v-49v-128q0 -17 41 -25zM310 468q0 66 -1 73q-6 38 -37 38h-77v-211q115 25 115 100zM318 260q4 31 -10 66q-17 42 -48 42q-7 0 -20.5 -5.5t-14.5 -5.5q-7 0 -33 -11l1 -257q97 -37 100 -37q2 0 13 5.5t11 7.5zM363 830l2 -6l-120 -113
l-127 115l3 6l122 -50z" />
    <glyph glyph-name="ordmasculine" unicode="&#xba;" horiz-adv-x="212" 
d="M193 337q-14 -1 -19.5 -9.5t-9.5 -15.5v-86q4 -10 27 -40q-67 -1 -68 -1q-38 -3 -65 -21q68 -34 100 -34h15q13 1 19 1q-27 -21 -31 -51q2 -100 0 -110q2 -12 26 -47q-39 11 -71 11q-80 0 -80 -59q0 -25 13.5 -46t26.5 -21q3 0 6 2q2 1 -3 14t-5 15q0 20 13.5 32.5
t32.5 12.5q52 0 52 -47q0 -26 -24 -40q-20 -13 -47 -13q-41 0 -66 22t-25 64q0 44 66 106q2 2 2 116q0 17 -7 33q-10 25 -33 25q-3 0 -13.5 -9t-12.5 -9q-11 11 -4 16q22 15 74 72v94l-28 30l-46 -36q-2 5 -10 10q22 26 61 60q34 30 37 30q4 0 48.5 -31.5t48.5 -39.5z
M195 554l2 -5l-96 -90l-102 92l3 5l97 -40z" />
    <glyph glyph-name="ae" unicode="&#xe6;" horiz-adv-x="461" 
d="M370 255q-28 -18 -96 -53v146l23 11zM198 223v-124q0 -15 -13.5 -23.5t-30.5 -8.5q-30 1 -38 13q-6 7 -5 29l2 72q49 11 85 42zM446 279q-41 65 -89 147q-11 -24 -47 -43q-27 -14 -40 -15q-41 25 -84 51q-2 0 -12.5 -8t-15.5 -11q-39 -17 -78 -35q-49 -28 -50 -68
q-1 -30 16.5 -48t44.5 -19q19 0 37.5 18.5t18.5 35.5q1 8 -5.5 20t-14.5 15q5 -9 5 -17q0 -14 -13 -22t-24 -7q-10 0 -24.5 13.5t-13.5 25.5q0 18 22 34.5t47 21.5q10 1 61 -39q9 -7 10 -11l2 -18v-21q-1 -41 -47 -65q-36 -19 -68 -18q-37 1 -52 8q-6 4 -13 9q4 -9 9 -18
q5 -12 5 -28v-73q0 -24 -30 -37q57 -33 67 -74l16 36q21 32 70 32q66 0 77 -4q31 -9 57 -56l125 101l-9 9q-57 -39 -66 -39q-10 0 -34 17l-32 24v80l171 96h1z" />
    <glyph glyph-name="oslash" unicode="&#xf8;" horiz-adv-x="340" 
d="M124 -14q0 -1 -1 -1zM115 159l84 155q-8 48 -47 42t-39 -48q0 -9 2 -18v-131zM201 269l-85 -157q10 -61 51 -61q7 0 21 16t14 28zM264 433h26l-32 -59q29 -14 58 -20q-10 -9 -20 -19q-15 -16 -15 -37v-184q0 -25 7 -39q4 -7 20 -26q-49 9 -57 9q-20 0 -43 -10
q-54 -24 -84 -62q-4 13 -54 42l-24 -45h-26l30 56q-25 12 -46 16q7 2 16 16q14 21 14 49q-1 115 0 170q-3 29 -25 71q30 -9 52 -9q29 0 60 18q20 12 42 33q19 18 20 18q26 -21 54 -36z" />
    <glyph glyph-name="questiondown" unicode="&#xbf;" horiz-adv-x="394" 
d="M205 506q31 -39 73 -73q-44 -41 -73 -75q-38 37 -77 70q47 32 77 78zM27 39q0 41 -16 83h16q97 0 134 40.5t33 138.5q1 3 5 3q3 0 7 -1q10 -3 11 4q4 -22 4 -111q0 -125 -100 -143v-194l25 -6q39 84 110 84q72 0 111 -79q-20 13 -38 13q-37 0 -91 -75q-82 58 -223 58h-7
q19 27 19 82v103z" />
    <glyph glyph-name="exclamdown" unicode="&#xa1;" horiz-adv-x="228" 
d="M91 290h20l35 -370q16 -5 38 -35q-53 -37 -86 -87q-26 75 -96 85q25 23 59 39zM101 478q33 -37 69 -68q-37 -35 -69 -74q-27 28 -73 68q37 28 73 74z" />
    <glyph glyph-name="logicalnot" unicode="&#xac;" 
 />
    <glyph glyph-name="florin" unicode="&#x192;" 
 />
    <glyph glyph-name="guillemotleft" unicode="&#xab;" horiz-adv-x="307" 
d="M224 368l-78 -129l76 -122l-10 -12l-114 134q-3 2 116 143zM129 368l-78 -129l76 -122l-10 -12l-114 134q-3 2 116 143z" />
    <glyph glyph-name="guillemotright" unicode="&#xbb;" horiz-adv-x="307" 
d="M3 119l78 129l-76 122l10 12l114 -134q3 -2 -116 -143zM98 119l78 129l-76 122l10 12l114 -134q3 -2 -116 -143z" />
    <glyph glyph-name="ellipsis" unicode="&#x2026;" horiz-adv-x="865" 
d="M78 36l71 85q41 -59 77 -59q9 0 30 8q-40 -84 -95 -84q-50 0 -83 50zM371 36l71 85q41 -59 77 -59q9 0 30 8q-40 -84 -95 -84q-50 0 -83 50zM665 36l71 85q41 -59 77 -59q9 0 30 8q-40 -84 -95 -84q-50 0 -83 50z" />
    <glyph glyph-name="uni00A0" unicode="&#xa0;" horiz-adv-x="197" 
 />
    <glyph glyph-name="Agrave" unicode="&#xc0;" horiz-adv-x="571" 
d="M554 107q-12 -16 -56 -66t-45 -50q-19 -1 -52 24q-31 22 -38 37q-16 37 -15 76l-206 -141q-58 24 -200 98q20 6 39 14q45 20 76 46q27 27 24 78q-4 73 -4 62q-5 25 -8 31q-7 11 -25 13q-27 4 -44 -19q0 27 18 46.5t36 19.5h28v97q-5 33 -11.5 45.5t-28.5 25.5
q97 35 142 56q79 37 147 90l93 -58q23 -9 83 -32q-23 -4 -37.5 -23t-14.5 -44v-380q0 -15 15 -35q18 -24 39 -24q18 1 38 21q1 -1 3.5 -4t3.5 -4zM347 373v192l-73 50q2 -169 0 -242q76 0 73 0zM257 373v242q-24 -12 -47 -24q-30 -21 -26 -55v-163h73zM350 154l-1 158
q-61 3 -72 0q-1 -96 0 -207zM257 93v219h-75v-121l-101 -63l135 -67zM166 793q11 25 24 25q7 0 26 -10l155 -85l-3 -7q-43 8 -87 17q-80 15 -88 15q-30 0 -30 29q0 8 3 16z" />
    <glyph glyph-name="Atilde" unicode="&#xc3;" horiz-adv-x="571" 
d="M554 107q-12 -16 -56 -66t-45 -50q-19 -1 -52 24q-31 22 -38 37q-16 37 -15 76l-206 -141q-58 24 -200 98q20 6 39 14q45 20 76 46q27 27 24 78q-4 73 -4 62q-5 25 -8 31q-7 11 -25 13q-27 4 -44 -19q0 27 18 46.5t36 19.5h28v97q-5 33 -11.5 45.5t-28.5 25.5
q97 35 142 56q79 37 147 90l93 -58q23 -9 83 -32q-23 -4 -37.5 -23t-14.5 -44v-380q0 -15 15 -35q18 -24 39 -24q18 1 38 21q1 -1 3.5 -4t3.5 -4zM347 373v192l-73 50q2 -169 0 -242q76 0 73 0zM257 373v242q-24 -12 -47 -24q-30 -21 -26 -55v-163h73zM350 154l-1 158
q-61 3 -72 0q-1 -96 0 -207zM257 93v219h-75v-121l-101 -63l135 -67zM122 729q8 38 45 61q34 20 75 20q16 0 46.5 -14t48.5 -14q16 0 45 8t40 17q-17 -36 -52 -59t-75 -23q-17 0 -45 13.5t-42 13.5q-63 0 -86 -23z" />
    <glyph glyph-name="Otilde" unicode="&#xd5;" horiz-adv-x="547" 
d="M527 165q-8 -8 -28 -17q-30 -14 -33 -15q-55 -29 -211 -140q-113 53 -256 70q96 72 96 127v108q0 42 -47 42q-2 0 -9.5 -1t-15.5 -1q2 19 18.5 36t35.5 17q17 0 16 -1v134q0 43 -40 40q11 6 60 17q91 22 184 85q38 26 43 26q18 0 81 -47q66 -51 66 -76l1 -311
q0 -82 39 -93zM389 520q0 28 -96 89l1 -222l95 53v80zM389 362v61l-96 -52v-65zM276 616q-1 2 -17 2q-22 0 -42 -25.5t-23 -51.5v-341l-80 -66q103 -17 162 -42v524zM389 150v196l-96 -57v-200l42 -12q16 7 27 17q27 23 27 56zM132 729q8 38 45 61q34 20 75 20
q16 0 46.5 -14t48.5 -14q16 0 45 8t40 17q-17 -36 -52 -59t-75 -23q-17 0 -45 13.5t-42 13.5q-63 0 -86 -23z" />
    <glyph glyph-name="OE" unicode="&#x152;" horiz-adv-x="1041" 
d="M908 561q-127 54 -139 54q-28 0 -28 -43v-186q42 38 167 175zM810 91v255q-51 -2 -69 0v-110q0 -27 -28 -44q-26 -12 -52 -23q-30 -15 -55 -31q81 -49 179 -48zM482 141l-16 -8q-55 -29 -211 -140q-113 53 -256 70q96 72 96 127v108q0 42 -47 42q-2 0 -9.5 -1t-15.5 -1
q2 19 18.5 36t35.5 17q17 0 16 -1v134q0 43 -40 40q11 6 60 17q91 22 184 85q38 26 43 26q18 0 81 -47q66 -51 66 -76v-29q60 69 190 118l4 -10q-170 -78 -193 -243v-86q10 -56 35 -104q31 -56 69 -67q42 11 42 71v96q2 27 -11 44t-36 17q-22 0 -37 -21q0 23 16 43.5
t38 22.5h31v88q0 44 -38 64q119 28 257 119l132 -55q2 1 11 7t10 6q8 0 9 -9l-194 -204h170l-60 -90q-36 -2 -104 -1v-253q130 25 170 55q1 -5 -19 -65q-12 -37 -24 -73q-62 -22 -173 -22q-90 0 -170 41t-130 112zM389 520q0 28 -96 89l1 -222l95 53v80zM389 362v61l-96 -52
v-65zM276 616q-1 2 -17 2q-22 0 -42 -25.5t-23 -51.5v-341l-80 -66q103 -17 162 -42v524zM389 150v196l-96 -57v-200l42 -12q16 7 27 17q27 23 27 56z" />
    <glyph glyph-name="oe" unicode="&#x153;" horiz-adv-x="481" 
d="M455 279q-41 -24 -171 -96v-70q1 -1 32 -29q25 -22 34 -22t84 51l8 -15l-146 -109q-26 34 -49 52q-19 16 -25 13q-53 -27 -99 -69l-48 31q-51 33 -72 39q8 7 17 14q16 21 14 51q-1 115 0 170q-3 29 -25 71q30 -9 52 -9q29 0 60 18q20 12 42 33q19 18 20 18l31 -19
q35 -22 58 -34q28 2 60 25l32 23q2 0 2 -1q6 -15 89 -136zM380 255q-2 2 -58 107l-38 -14v-146q68 35 96 53zM202 95l-1 176q0 40 -6 57q-11 28 -43 28q-33 0 -37 -66v-155q-3 -27 10 -53q16 -31 42 -31q7 0 21 16t14 28z" />
    <glyph glyph-name="endash" unicode="&#x2013;" horiz-adv-x="412" 
d="M0 215v54h407v-54h-407z" />
    <glyph glyph-name="emdash" unicode="&#x2014;" horiz-adv-x="785" 
d="M0 215v54h780v-54h-780z" />
    <glyph glyph-name="quotedblleft" unicode="&#x201c;" horiz-adv-x="300" 
d="M115 611l-71 75q-45 -66 -43 -117q2 -68 75 -109q-9 24 -10 45q-2 60 49 106zM265 611l-71 75q-45 -66 -43 -117q2 -68 75 -109q-9 24 -10 45q-2 60 49 106z" />
    <glyph glyph-name="quotedblright" unicode="&#x201d;" horiz-adv-x="300" 
d="M152 611l71 75q45 -66 43 -117q-2 -68 -75 -109q9 24 10 45q2 60 -49 106zM2 611l71 75q45 -66 43 -117q-2 -68 -75 -109q9 24 10 45q2 60 -49 106z" />
    <glyph glyph-name="quoteleft" unicode="&#x2018;" horiz-adv-x="182" 
d="M120 621l-72 75q-44 -66 -42 -117q2 -68 74 -109q-8 24 -9 45q-2 60 49 106z" />
    <glyph glyph-name="quoteright" unicode="&#x2019;" horiz-adv-x="188" 
d="M2 621l71 75q45 -66 43 -117q-2 -68 -75 -109q9 24 10 45q2 60 -49 106z" />
    <glyph glyph-name="divide" unicode="&#xf7;" horiz-adv-x="587" 
d="M22 299h526v-61h-526v61zM285 486q23 0 39 -16.5t16 -39.5t-16 -39t-39 -16t-39 16t-16 39t16 39.5t39 16.5zM285 161q23 0 39 -16t16 -39t-16 -39t-39 -16t-39 16t-16 39t16 39t39 16z" />
    <glyph glyph-name="ydieresis" unicode="&#xff;" horiz-adv-x="334" 
d="M320 344q-8 -6 -17 -12q-18 -14 -19 -32q1 -104 0 -232q-5 -71 26 -108q-50 4 -95 -16q-56 -26 -56 -77q0 -22 14 -38t40 -14q-3 77 39 77q19 0 30.5 -14t11.5 -32q0 -24 -24 -38q-19 -12 -42 -12q-85 0 -90 82q-2 32 22 63q34 44 34 45q8 17 8 40q1 33 2 40v194
q0 38 -4 49q-8 25 -36 25q-49 0 -49 -52v-14q1 -9 1 -10v-146q0 -21 36 -46q-15 -9 -38 -31q-27 -26 -32 -40q-36 53 -76 73q29 15 36 42v188q0 14 -34 40q61 29 73 83l31 -43q23 -26 49 -26q49 0 82 67q29 -54 77 -75zM184 488q0 15 10 25.5t25 10.5q36 0 36 -36
q0 -15 -10.5 -25.5t-25.5 -10.5q-14 0 -24.5 10.5t-10.5 25.5zM72 488q0 15 10 25.5t25 10.5q36 0 36 -36q0 -15 -10.5 -25.5t-25.5 -10.5q-14 0 -24.5 10.5t-10.5 25.5z" />
    <glyph glyph-name="Ydieresis" unicode="&#x178;" horiz-adv-x="571" 
d="M528 527v-356q6 -53 -33 -107q-38 -43 -75 -86q-43 -48 -43 -85q0 -29 28 -38q25 -5 51 -9q27 -8 27 -35q0 -15 -15 -29.5t-28 -14.5q-37 0 -62 27.5t-25 64.5q0 31 21 77q32 66 40 94q8 24 9 78q2 203 -1 232l-89 -63v-160l23 16l8 -10l-186 -138l-174 91q101 63 119 91
q13 21 13 106q0 37 -3 49q-10 36 -46 36q-9 0 -20 -8t-12 -7q3 15 7 30q7 21 29 31q14 6 47 6q1 1 1 99q0 93 -56 93q-15 0 -36 -21q-4 0 -8 3.5t-5 3.5q-1 2 57 51.5t61 49.5q5 0 19 -12q2 -2 31 -21q19 -12 27 -29q11 -24 11 -77l179 136q49 -16 79 -57.5t30 -101.5z
M423 434q2 34 0 69q-2 36 -3 40q-4 22 -17 36q-23 23 -47 34l-24 -18v-218zM423 359l-1 53l-89 -57l1 -56zM317 584l-77 -57v-268q0 -63 -44 -91q-47 -20 -94 -41q21 -11 48 -22q28 -18 86 -45q10 -4 81 48v476zM319 768q0 19 12.5 32t31.5 13t32 -13t13 -32t-13 -32
t-32 -13q-18 0 -31 13.5t-13 31.5zM179 768q0 19 12.5 32t31.5 13t32 -13t13 -32t-13 -32t-32 -13q-18 0 -31 13.5t-13 31.5z" />
    <glyph glyph-name="currency" unicode="&#xa4;" horiz-adv-x="19" 
 />
    <glyph glyph-name="guilsinglleft" unicode="&#x2039;" horiz-adv-x="192" 
d="M129 368l-78 -129l76 -122l-10 -12l-114 134q-3 2 116 143z" />
    <glyph glyph-name="guilsinglright" unicode="&#x203a;" horiz-adv-x="192" 
d="M3 119l78 129l-76 122l10 12l114 -134q3 -2 -116 -143z" />
    <glyph glyph-name="daggerdbl" unicode="&#x2021;" horiz-adv-x="17" 
 />
    <glyph glyph-name="periodcentered" unicode="&#xb7;" horiz-adv-x="177" 
d="M77 277q0 25 16 43t40 18q25 0 40.5 -18t15.5 -43t-16 -42.5t-40 -17.5t-40 18t-16 42z" />
    <glyph glyph-name="periodcentered" unicode="&#x2219;" horiz-adv-x="177" 
d="M77 277q0 25 16 43t40 18q25 0 40.5 -18t15.5 -43t-16 -42.5t-40 -17.5t-40 18t-16 42z" />
    <glyph glyph-name="quotesinglbase" unicode="&#x201a;" horiz-adv-x="186" 
d="M42 61l71 75q45 -66 43 -117q-2 -68 -75 -109q9 24 10 45q2 60 -49 106z" />
    <glyph glyph-name="quotedblbase" unicode="&#x201e;" horiz-adv-x="316" 
d="M172 61l71 75q45 -66 43 -117q-2 -68 -75 -109q9 24 10 45q2 60 -49 106zM22 61l71 75q45 -66 43 -117q-2 -68 -75 -109q9 24 10 45q2 60 -49 106z" />
    <glyph glyph-name="perthousand" unicode="&#x2030;" 
 />
    <glyph glyph-name="Acircumflex" unicode="&#xc2;" horiz-adv-x="571" 
d="M554 107q-12 -16 -56 -66t-45 -50q-19 -1 -52 24q-31 22 -38 37q-16 37 -15 76l-206 -141q-58 24 -200 98q20 6 39 14q45 20 76 46q27 27 24 78q-1 20 -1 65q-4 21 -9 28q-7 11 -27 13q-27 4 -44 -19q0 27 18 46.5t36 19.5h28v97q-5 33 -11.5 45.5t-28.5 25.5
q97 35 142 56q79 37 147 90l93 -58q23 -9 83 -32q-23 -4 -37.5 -23t-14.5 -44v-380q0 -15 15 -35q18 -24 39 -24q18 1 38 21q1 -1 3.5 -4t3.5 -4zM347 373v192l-73 50q2 -169 0 -242q76 0 73 0zM257 373v242q-24 -12 -47 -24q-30 -21 -26 -55v-163h73zM350 154l-1 158
q-61 3 -72 0q-1 -96 0 -207zM257 93v219h-75v-121l-101 -63l135 -67zM170 713l-2 6l120 113l127 -115l-3 -6l-122 50z" />
    <glyph glyph-name="Ecircumflex" unicode="&#xca;" horiz-adv-x="634" 
d="M596 641l-194 -204h170l-60 -90q-36 -2 -104 -1v-253q130 25 170 55q1 -5 -19 -65q-12 -37 -24 -73q-62 -22 -173 -22q-146 0 -254 100.5t-108 245.5q0 129 68 207q59 68 189 117l4 -10q-197 -90 -197 -292q0 -54 29 -120q33 -75 79 -88q42 11 42 71v96q2 27 -11 44
t-36 17q-22 0 -37 -21q0 23 16 43.5t38 22.5h31v88q0 44 -38 64q119 28 257 119l132 -55q2 1 11 7t10 6q8 0 9 -9zM488 561q-127 54 -139 54q-28 0 -28 -43v-186q42 38 167 175zM390 91v255q-51 -2 -69 0v-110q0 -27 -28 -44q-26 -12 -52 -23q-30 -15 -55 -31
q81 -49 179 -48zM230 713l-2 6l120 113l127 -115l-3 -6l-122 50z" />
    <glyph glyph-name="Aacute" unicode="&#xc1;" horiz-adv-x="571" 
d="M554 107q-12 -16 -56 -66t-45 -50q-19 -1 -52 24q-31 22 -38 37q-16 37 -15 76l-206 -141q-58 24 -200 98q20 6 39 14q45 20 76 46q27 27 24 78q-4 73 -4 62q-5 25 -8 31q-7 11 -25 13q-27 4 -44 -19q0 27 18 46.5t36 19.5h28v97q-5 33 -11.5 45.5t-28.5 25.5
q97 35 142 56q79 37 147 90l93 -58q23 -9 83 -32q-23 -4 -37.5 -23t-14.5 -44v-380q0 -15 15 -35q18 -24 39 -24q18 1 38 21q1 -1 3.5 -4t3.5 -4zM347 373v192l-73 50q2 -169 0 -242q76 0 73 0zM257 373v242q-24 -12 -47 -24q-30 -21 -26 -55v-163h73zM350 154l-1 158
q-61 3 -72 0q-1 -96 0 -207zM257 93v219h-75v-121l-101 -63l135 -67zM377 793q-10 25 -23 25q-7 0 -26 -10l-155 -85l2 -7q44 8 88 17q80 15 87 15q31 0 31 29q0 8 -4 16z" />
    <glyph glyph-name="Edieresis" unicode="&#xcb;" horiz-adv-x="634" 
d="M596 641l-194 -204h170l-60 -90q-36 -2 -104 -1v-253q130 25 170 55q1 -5 -19 -65q-12 -37 -24 -73q-62 -22 -173 -22q-146 0 -254 100.5t-108 245.5q0 129 68 207q59 68 189 117l4 -10q-197 -90 -197 -292q0 -54 29 -120q33 -75 79 -88q42 11 42 71v96q2 27 -11 44
t-36 17q-22 0 -37 -21q0 23 16 43.5t38 22.5h31v88q0 44 -38 64q119 28 257 119l132 -55q2 1 11 7t10 6q8 0 9 -9zM488 561q-127 54 -139 54q-28 0 -28 -43v-186q42 38 167 175zM390 91v255q-51 -2 -69 0v-110q0 -27 -28 -44q-26 -12 -52 -23q-30 -15 -55 -31
q81 -49 179 -48zM359 768q0 19 12.5 32t31.5 13t32 -13t13 -32t-13 -32t-32 -13q-18 0 -31 13.5t-13 31.5zM219 768q0 19 12.5 32t31.5 13t32 -13t13 -32t-13 -32t-32 -13q-18 0 -31 13.5t-13 31.5z" />
    <glyph glyph-name="Egrave" unicode="&#xc8;" horiz-adv-x="634" 
d="M596 641l-194 -204h170l-60 -90q-36 -2 -104 -1v-253q130 25 170 55q1 -5 -19 -65q-12 -37 -24 -73q-62 -22 -173 -22q-146 0 -254 100.5t-108 245.5q0 129 68 207q59 68 189 117l4 -10q-197 -90 -197 -292q0 -54 29 -120q33 -75 79 -88q42 11 42 71v96q2 27 -11 44
t-36 17q-22 0 -37 -21q0 23 16 43.5t38 22.5h31v88q0 44 -38 64q119 28 257 119l132 -55q2 1 11 7t10 6q8 0 9 -9zM488 561q-127 54 -139 54q-28 0 -28 -43v-186q42 38 167 175zM390 91v255q-51 -2 -69 0v-110q0 -27 -28 -44q-26 -12 -52 -23q-30 -15 -55 -31
q81 -49 179 -48zM236 793q11 25 24 25q7 0 26 -10l155 -85l-3 -7q-43 8 -87 17q-80 15 -88 15q-30 0 -30 29q0 8 3 16z" />
    <glyph glyph-name="Iacute" unicode="&#xcd;" horiz-adv-x="480" 
d="M394 676q-21 -22 -70 -59q-54 -40 -76 -48l-156 48q-20 4 -48.5 -16.5t-25.5 -20.5q-9 0 -14 11l146 106q41 -12 82 -25q51 -15 84 -15q22 0 44 13.5l22 13.5q-2 0 12 -8zM449 658q0 4 -25.5 -24t-25.5 -53l-1 -382q0 -75 -26 -92q-67 -43 -201 -126q-2 0 -1.5 8t-2.5 9
q-103 44 -139 44q-11 0 -25 -6q-18 -8 -24 -10q-7 2 -7 8t59 54.5t65 48.5q3 0 64 -34t87 -34q47 0 47 62q0 163 0 156q-4 55 -42 55q-26 0 -42 -22q0 23 16 44t38 22h31v100q-1 28 -5 40q-7 22 -28 26q61 39 183 120q5 -6 5 -14zM337 793q-10 25 -23 25q-7 0 -26 -10
l-155 -85l2 -7q44 8 88 17q80 15 87 15q31 0 31 29q0 8 -4 16z" />
    <glyph glyph-name="Icircumflex" unicode="&#xce;" horiz-adv-x="480" 
d="M394 676q-21 -22 -70 -59q-54 -40 -76 -48l-156 48q-20 4 -48.5 -16.5t-25.5 -20.5q-9 0 -14 11l146 106q41 -12 82 -25q51 -15 84 -15q22 0 44 13.5l22 13.5q-2 0 12 -8zM449 658q0 4 -25.5 -24t-25.5 -53l-1 -382q0 -75 -26 -92q-67 -43 -201 -126q-2 0 -1.5 8t-2.5 9
q-103 44 -139 44q-11 0 -25 -6q-18 -8 -24 -10q-7 2 -7 8t59 54.5t65 48.5q3 0 64 -34t87 -34q47 0 47 62q0 163 0 156q-4 55 -42 55q-26 0 -42 -22q0 23 16 44t38 22h31v100q-1 28 -5 40q-7 22 -28 26q61 39 183 120q5 -6 5 -14zM120 723l-2 6l120 113l127 -115l-3 -6
l-122 50z" />
    <glyph glyph-name="Idieresis" unicode="&#xcf;" horiz-adv-x="480" 
d="M394 676q-21 -22 -70 -59q-54 -40 -76 -48l-156 48q-20 4 -48.5 -16.5t-25.5 -20.5q-9 0 -14 11l146 106q41 -12 82 -25q51 -15 84 -15q22 0 44 13.5l22 13.5q-2 0 12 -8zM449 658q0 4 -25.5 -24t-25.5 -53l-1 -382q0 -75 -26 -92q-67 -43 -201 -126q-2 0 -1.5 8t-2.5 9
q-103 44 -139 44q-11 0 -25 -6q-18 -8 -24 -10q-7 2 -7 8t59 54.5t65 48.5q3 0 64 -34t87 -34q47 0 47 62q0 163 0 156q-4 55 -42 55q-26 0 -42 -22q0 23 16 44t38 22h31v100q-1 28 -5 40q-7 22 -28 26q61 39 183 120q5 -6 5 -14zM259 768q0 19 12.5 32t31.5 13t32 -13
t13 -32t-13 -32t-32 -13q-18 0 -31 13.5t-13 31.5zM119 768q0 19 12.5 32t31.5 13t32 -13t13 -32t-13 -32t-32 -13q-18 0 -31 13.5t-13 31.5z" />
    <glyph glyph-name="Igrave" unicode="&#xcc;" horiz-adv-x="480" 
d="M394 676q-21 -22 -70 -59q-54 -40 -76 -48l-156 48q-20 4 -48.5 -16.5t-25.5 -20.5q-9 0 -14 11l146 106q41 -12 82 -25q51 -15 84 -15q22 0 44 13.5l22 13.5q-2 0 12 -8zM449 658q0 4 -25.5 -24t-25.5 -53l-1 -382q0 -75 -26 -92q-67 -43 -201 -126q-2 0 -1.5 8t-2.5 9
q-103 44 -139 44q-11 0 -25 -6q-18 -8 -24 -10q-7 2 -7 8t59 54.5t65 48.5q3 0 64 -34t87 -34q47 0 47 62q0 163 0 156q-4 55 -42 55q-26 0 -42 -22q0 23 16 44t38 22h31v100q-1 28 -5 40q-7 22 -28 26q61 39 183 120q5 -6 5 -14zM146 793q11 25 24 25q7 0 26 -10l155 -85
l-3 -7q-43 8 -87 17q-80 15 -88 15q-30 0 -30 29q0 8 3 16z" />
    <glyph glyph-name="Oacute" unicode="&#xd3;" horiz-adv-x="547" 
d="M527 165q-8 -8 -28 -17q-30 -14 -33 -15q-55 -29 -211 -140q-113 53 -256 70q96 72 96 127v108q0 42 -47 42q-2 0 -9.5 -1t-15.5 -1q2 19 18.5 36t35.5 17q17 0 16 -1v134q0 43 -40 40q11 6 60 17q91 22 184 85q38 26 43 26q18 0 81 -47q66 -51 66 -76l1 -311
q0 -82 39 -93zM389 520q0 28 -96 89l1 -222l95 53v80zM389 362v61l-96 -52v-65zM276 616q-1 2 -17 2q-22 0 -42 -25.5t-23 -51.5v-341l-80 -66q103 -17 162 -42v524zM389 150v196l-96 -57v-200l42 -12q16 7 27 17q27 23 27 56zM367 793q-10 25 -23 25q-7 0 -26 -10l-155 -85
l2 -7q44 8 88 17q80 15 87 15q31 0 31 29q0 8 -4 16z" />
    <glyph glyph-name="Ocircumflex" unicode="&#xd4;" horiz-adv-x="547" 
d="M527 165q-8 -8 -28 -17q-30 -14 -33 -15q-55 -29 -211 -140q-113 53 -256 70q96 72 96 127v108q0 42 -47 42q-2 0 -9.5 -1t-15.5 -1q2 19 18.5 36t35.5 17q17 0 16 -1v134q0 43 -40 40q11 6 60 17q91 22 184 85q38 26 43 26q18 0 81 -47q66 -51 66 -76l1 -311
q0 -82 39 -93zM389 520q0 28 -96 89l1 -222l95 53v80zM389 362v61l-96 -52v-65zM276 616q-1 2 -17 2q-22 0 -42.5 -26.5t-23.5 -52.5l1 -339l-80 -66q103 -17 162 -42v524zM389 150v196l-96 -57v-200l42 -12q16 7 27 17q27 23 27 56zM170 713l-2 6l120 113l127 -115l-3 -6
l-122 50z" />
    <glyph glyph-name="Ograve" unicode="&#xd2;" horiz-adv-x="547" 
d="M527 165q-8 -8 -28 -17q-30 -14 -33 -15q-55 -29 -211 -140q-113 53 -256 70q96 72 96 127v108q0 42 -47 42q-2 0 -9.5 -1t-15.5 -1q2 19 18.5 36t35.5 17q17 0 16 -1v134q0 43 -40 40q11 6 60 17q91 22 184 85q38 26 43 26q18 0 81 -47q66 -51 66 -76l1 -311
q0 -82 39 -93zM389 520q0 28 -96 89l1 -222l95 53v80zM389 362v61l-96 -52v-65zM276 616q-1 2 -17 2q-22 0 -42 -25.5t-23 -51.5v-341l-80 -66q103 -17 162 -42v524zM389 150v196l-96 -57v-200l42 -12q16 7 27 17q27 23 27 56zM166 793q11 25 24 25q7 0 26 -10l155 -85
l-3 -7q-43 8 -87 17q-80 15 -88 15q-30 0 -30 29q0 8 3 16z" />
    <glyph glyph-name="Uacute" unicode="&#xda;" horiz-adv-x="610" 
d="M589 80q-43 -37 -93 -94q-19 -1 -51 20q-36 25 -47 57q-6 17 -6 69l-186 -150q-44 26 -114 54q-94 38 -96 39q68 41 83 56q30 29 30 72v91q-2 26 -16 46.5t-38 20.5q5 0 -19 -6q-1 2 -1 5q0 13 15.5 31t31.5 18q26 0 27 1v110q0 27 -11 48q-16 29 -46 29q-3 0 -17 -8.5
t-21 -10.5l-2 10l110 95q49 -32 62 -45q27 -27 27 -62v-326q0 -78 -94 -110l159 -82q5 0 14 11l3 404q0 32 -1 104q-10 -7 -31 -18v15l136 107l150 -75q-15 -12 -30 -23q-24 -22 -23 -45v-362q-8 -103 61 -103q4 0 12.5 7t11.5 13q0 -2 10 -13zM392 423q-1 78 0 140
q-53 39 -57 39q-23 0 -27 -19v-219zM392 343v59l-84 -59v-59zM392 150v177l-84 -61q2 -64 0 -185q84 67 84 69zM397 793q-10 25 -23 25q-7 0 -26 -10l-155 -85l2 -7q44 8 88 17q80 15 87 15q31 0 31 29q0 8 -4 16z" />
    <glyph glyph-name="Ucircumflex" unicode="&#xdb;" horiz-adv-x="610" 
d="M589 80q-43 -37 -93 -94q-19 -1 -51 20q-36 25 -47 57q-6 17 -6 69l-186 -150q-44 26 -114 54q-94 38 -96 39q68 41 83 56q30 29 30 72v91q-2 26 -16 46.5t-38 20.5q5 0 -19 -6q-1 2 -1 5q0 13 15.5 31t31.5 18q26 0 27 1v110q0 27 -11 48q-16 29 -46 29q-3 0 -17 -8.5
t-21 -10.5l-2 10l110 95q49 -32 62 -45q27 -27 27 -62v-326q0 -78 -94 -110l159 -82q5 0 14 11l3 404q0 32 -1 104q-10 -7 -31 -18v15l136 107l150 -75q-15 -12 -30 -23q-24 -22 -23 -45v-362q-8 -103 61 -103q4 0 12.5 7t11.5 13q0 -2 10 -13zM392 423q-1 78 0 140
q-53 39 -57 39q-23 0 -27 -19v-219zM392 343v59l-84 -59v-59zM392 150v177l-84 -61q2 -64 0 -185q84 67 84 69zM170 713l-2 6l120 113l127 -115l-3 -6l-122 50z" />
    <glyph glyph-name="Ugrave" unicode="&#xd9;" horiz-adv-x="610" 
d="M589 80q-43 -37 -93 -94q-19 -1 -51 20q-36 25 -47 57q-6 17 -6 69l-186 -150q-44 26 -114 54q-94 38 -96 39q68 41 83 56q30 29 30 72v91q-2 26 -16 46.5t-38 20.5q5 0 -19 -6q-1 2 -1 5q0 13 15.5 31t31.5 18q26 0 27 1v110q0 27 -11 48q-16 29 -46 29q-3 0 -17 -8.5
t-21 -10.5l-2 10l110 95q49 -32 62 -45q27 -27 27 -62v-326q0 -78 -94 -110l159 -82q5 0 14 11l3 404q0 32 -1 104q-10 -7 -31 -18v15l136 107l150 -75q-15 -12 -30 -23q-24 -22 -23 -45v-362q-8 -103 61 -103q4 0 12.5 7t11.5 13q0 -2 10 -13zM392 423q-1 78 0 140
q-53 39 -57 39q-23 0 -27 -19v-219zM392 343v59l-84 -59v-59zM392 150v177l-84 -61q2 -64 0 -185q84 67 84 69zM196 793q11 25 24 25q7 0 26 -10l155 -85l-3 -7q-43 8 -87 17q-80 15 -88 15q-30 0 -30 29q0 8 3 16z" />
    <glyph glyph-name="circumflex" unicode="&#x2c6;" horiz-adv-x="335" 
d="M50 513l-2 6l120 113l127 -115l-3 -6l-122 50z" />
    <glyph glyph-name="tilde" unicode="&#x2dc;" horiz-adv-x="291" 
d="M22 467q6 30 36 48q27 17 60 17q13 0 37 -11.5t39 -11.5q13 0 36 6.5t32 13.5q-30 -65 -102 -65q-13 0 -35.5 10.5t-33.5 10.5q-51 0 -69 -18z" />
    <glyph glyph-name="macron" unicode="&#xaf;" horiz-adv-x="253" 
d="M221 483l-193 -1v56h193v-55z" />
    <glyph glyph-name="macron" unicode="&#x2c9;" horiz-adv-x="253" 
d="M221 483l-193 -1v56h193v-55z" />
    <glyph glyph-name="cedilla" unicode="&#xb8;" horiz-adv-x="205" 
d="M98 0l1 -36q21 6 36 6q29 0 36 -22q3 -8 3 -48q0 -20 7 -25q-13 4 -43 4q-24 0 -47 -28q-20 28 -40 28q-15 0 -18 -19l-7 2q4 42 47 42q19 0 35 -18l16 3q11 19 11 31t-11 28h-11q-17 2 -36 -9v63h20z" />
    <glyph glyph-name="Scaron" unicode="&#x160;" 
 />
    <glyph glyph-name="scaron" unicode="&#x161;" 
 />
    <glyph glyph-name="brokenbar" unicode="&#xa6;" 
 />
    <glyph glyph-name="Eth" unicode="&#xd0;" 
 />
    <glyph glyph-name="eth" unicode="&#xf0;" 
 />
    <glyph glyph-name="Yacute" unicode="&#xdd;" 
 />
    <glyph glyph-name="yacute" unicode="&#xfd;" 
 />
    <glyph glyph-name="Thorn" unicode="&#xde;" 
 />
    <glyph glyph-name="thorn" unicode="&#xfe;" 
 />
    <glyph glyph-name="uni00AD" unicode="&#xad;" 
 />
    <glyph glyph-name="uni00AD" unicode="&#x2212;" 
 />
    <glyph glyph-name="multiply" unicode="&#xd7;" 
 />
    <glyph glyph-name="uni00B9" unicode="&#xb9;" 
 />
    <glyph glyph-name="uni00B2" unicode="&#xb2;" 
 />
    <glyph glyph-name="uni00B3" unicode="&#xb3;" 
 />
    <glyph glyph-name="onehalf" unicode="&#xbd;" 
 />
    <glyph glyph-name="onequarter" unicode="&#xbc;" 
 />
    <glyph glyph-name="threequarters" unicode="&#xbe;" 
 />
    <glyph glyph-name="glyph218" 
 />
    <glyph glyph-name="Lslash" unicode="&#x141;" 
 />
    <glyph glyph-name="lslash" unicode="&#x142;" 
 />
    <glyph glyph-name="glyph221" 
 />
    <glyph glyph-name="glyph222" 
 />
    <glyph glyph-name="glyph223" 
 />
    <glyph glyph-name="Zcaron" unicode="&#x17d;" 
 />
    <glyph glyph-name="zcaron" unicode="&#x17e;" 
 />
    <glyph glyph-name="glyph226" 
 />
    <glyph glyph-name="glyph227" 
 />
    <glyph glyph-name="glyph228" 
 />
    <glyph glyph-name="glyph229" 
 />
    <glyph glyph-name="glyph230" 
 />
    <glyph glyph-name="glyph231" 
 />
    <glyph glyph-name="glyph232" 
 />
    <glyph glyph-name="notequal" unicode="&#x2260;" horiz-adv-x="17" 
 />
    <glyph glyph-name="infinity" unicode="&#x221e;" horiz-adv-x="22" 
 />
    <glyph glyph-name="lessequal" unicode="&#x2264;" horiz-adv-x="25" 
 />
    <glyph glyph-name="greaterequal" unicode="&#x2265;" horiz-adv-x="25" 
 />
    <glyph glyph-name="partialdiff" unicode="&#x2202;" horiz-adv-x="220" 
d="M-8 262l65 31q-1 168 1 259q0 31 -4 45q-6 18 -26 38q42 2 82 28t90 28v-12q-1 -5 -11 -5q-13 -1 -19 -7q-30 -27 -30 -123l1 -211l65 31v-35l-65 -31l1 -142q2 -20 5 -40q8 -31 29 -38q-23 -33 -76 -85q-2 0 -32 34q-36 38 -48 49q28 15 35 37q3 7 3 35l-1 110l-65 -31
v35z" />
    <glyph glyph-name="summation" unicode="&#x2211;" horiz-adv-x="593" 
d="M385 824l-120 -113l-127 115l3 6l122 -50l120 48zM547 278q0 -47 -34 -86q-15 -17 -50 -46q-38 -33 -61 -46q-17 -9 -47 -37.5t-40 -46.5l-10 -17l-252 2q-18 0 -82 -2l71 94h220v315q-52 -14 -111 -51q-74 -47 -108 -105l-10 2q64 118 64 234q0 69 -30 127q22 -2 74 -5
q52 2 105 24q57 23 89 61l112 -45q18 -7 33 0l34 24l11 -8l-117 -105q-37 11 -101 36l-29 15v-177q15 3 55 5q77 -4 137 -39q77 -45 77 -123zM262 433v181l-65 -21v-187zM413 335q-55 70 -135 77v-154zM445 284l-24 41q-143 -81 -143 -84v-54zM455 225q0 3 -6 47
q-50 -25 -171 -102v-77h19q57 0 103 32q55 37 55 100z" />
    <glyph glyph-name="product" unicode="&#x220f;" horiz-adv-x="330" 
d="M311 201q-9 -5 -15 -19q-3 -9 -5 -17v-76q0 -12 18 -49q-35 10 -55 10q-76 0 -127 -73q-49 48 -105 48q-4 0 -30 -24q0 3 -2 4q3 11 33 41q22 24 45 47q56 -15 99 -50q38 8 38 45q0 51 -3 65q-8 40 -42 40q-49 0 -73 -40q-27 22 -69 51q6 5 13 10q13 16 10 31v77
q-1 10 -3 19q-7 23 -22 44q-1 0 19.5 -11.5t35.5 -11.5q29 0 66 23q41 24 48 51q18 -13 35 -27q32 -24 42 -24q2 0 12 10.5t13 11.5q1 -1 7 -4q-9 -22 -69 -85q-59 45 -71 45q-34 0 -34 -26l-1 -85q0 -33 45 -33q18 0 46 17t26 17q-1 0 30.5 -24t44.5 -28zM255 554l2 -5
l-96 -90l-102 92l3 5l97 -40z" />
    <glyph glyph-name="pi" unicode="&#x3c0;" horiz-adv-x="571" 
d="M528 527v-356q6 -53 -33 -107q-38 -43 -75 -86q-43 -48 -43 -85q0 -29 28 -38q25 -5 51 -9q27 -8 27 -35q0 -15 -15 -29.5t-28 -14.5q-37 0 -62 27.5t-25 64.5q0 31 21 77q32 66 40 94q8 24 9 78q2 203 -1 232l-89 -63v-160l23 16l8 -10l-186 -138l-174 91q101 63 119 91
q13 21 13 106q0 37 -3 49q-10 36 -46 36q-9 0 -20 -8t-12 -7q3 15 7 30q7 21 29 31q14 6 47 6q0 -1 0 64q0 132 -58 132q-10 0 -18 -8.5t-15 -16.5q-4 0 -8 3.5t-5 3.5q-1 2 57 51.5t61 49.5q5 0 19 -12q2 -2 31 -21q19 -12 27 -29q11 -24 11 -77l179 136q49 -16 79 -57.5
t30 -101.5zM423 434q2 34 0 69q-2 36 -3 40q-4 22 -17 36q-23 23 -47 34l-24 -18v-218zM423 359l-1 53l-89 -57l1 -56zM317 584l-77 -57v-268q0 -63 -44 -91q-47 -20 -94 -41q21 -11 48 -22q28 -18 86 -45q10 -4 81 48v476zM397 793q-10 25 -23 25q-7 0 -26 -10l-155 -85
l2 -7q44 8 88 17q80 15 87 15q31 0 31 29q0 8 -4 16z" />
    <glyph glyph-name="integral" unicode="&#x222b;" horiz-adv-x="334" 
d="M320 344q-8 -6 -17 -12q-18 -14 -19 -32q1 -104 0 -232q-5 -71 26 -108q-50 4 -95 -16q-56 -26 -56 -77q0 -22 14 -38t40 -14q-3 77 39 77q19 0 30.5 -14t11.5 -32q0 -24 -24 -38q-19 -12 -42 -12q-85 0 -90 82q-2 32 22 63q34 44 34 45q8 17 8 40q1 33 2 40l-1 177
q0 43 -3 57q-8 34 -36 34q-49 0 -49 -52v-14q1 -9 1 -10v-146q0 -21 36 -46q-15 -9 -38 -31q-27 -26 -32 -40q-36 53 -76 73q29 15 36 42v188q0 14 -34 40q61 29 73 83l31 -43q23 -26 49 -26q49 0 82 67q29 -54 77 -75zM247 517q-9 20 -19 20q-6 0 -21 -9l-124 -67l2 -6
l70 14q64 12 70 12q25 0 25 23q0 6 -3 13z" />
    <glyph glyph-name="Omega" unicode="&#x3a9;" horiz-adv-x="598" 
d="M104 403h207v-34h-212q0 1 1 -37q0 -13 3 -29h208v-34h-198q28 -79 96.5 -129t148.5 -47q103 4 185 29l-60 -128q-31 -4 -104 -12q-15 -1 -30 -1q-122 0 -205 74q-89 79 -98 214h-47v34h47q-1 23 0 67l-47 -1v34h58q20 84 82 137q18 16 61 52l140 105q18 -5 62 -25
q33 -15 64 -15q22 0 44 13.5l22 13.5q-2 0 12 -8q-26 -27 -70 -59q-57 -40 -90 -46l-92 36q-20 3 -46 -16t-23 -19q-50 -38 -70 -62q-35 -43 -49 -107z" />
    <glyph glyph-name="Omega" unicode="&#x2126;" horiz-adv-x="598" 
d="M104 403h207v-34h-212q0 1 1 -37q0 -13 3 -29h208v-34h-198q28 -79 96.5 -129t148.5 -47q103 4 185 29l-60 -128q-31 -4 -104 -12q-15 -1 -30 -1q-122 0 -205 74q-89 79 -98 214h-47v34h47q-1 23 0 67l-47 -1v34h58q20 84 82 137q18 16 61 52l140 105q18 -5 62 -25
q33 -15 64 -15q22 0 44 13.5l22 13.5q-2 0 12 -8q-26 -27 -70 -59q-57 -40 -90 -46l-92 36q-20 3 -46 -16t-23 -19q-50 -38 -70 -62q-35 -43 -49 -107z" />
    <glyph glyph-name="radical" unicode="&#x221a;" 
 />
    <glyph glyph-name="approxequal" unicode="&#x2248;" 
 />
    <glyph glyph-name="approxequal" unicode="&#x22f2;" 
 />
    <glyph glyph-name="Delta" unicode="&#x394;" 
 />
    <glyph glyph-name="Delta" unicode="&#x2206;" 
 />
    <glyph glyph-name="lozenge" unicode="&#x25ca;" horiz-adv-x="325" 
d="M163 192q-22 23 -112 112q23 22 112 113q22 -24 112 -113q-23 -22 -112 -112z" />
    <glyph glyph-name="fraction" unicode="&#x2044;" horiz-adv-x="17" 
 />
    <glyph glyph-name="uniF001" unicode="&#xf001;" horiz-adv-x="19" 
 />
    <glyph glyph-name="uniF002" unicode="&#xf002;" horiz-adv-x="25" 
 />
    <glyph glyph-name="uniF000" unicode="&#xf000;" horiz-adv-x="25" 
 />
    <glyph glyph-name="dotlessi" unicode="&#x131;" horiz-adv-x="189" 
d="M33 368q-25 -18 -29 -21q38 -12 38 -44v-197q-5 -32 -37 -47q57 -21 82 -64q28 41 73 64q-22 12 -28 20q-9 9 -9 27l-1 197q1 31 39 44q-23 15 -67 55q-8 9 -11 15q-6 -8 -17 -20.5t-33 -28.5z" />
    <glyph glyph-name="breve" unicode="&#x2d8;" horiz-adv-x="306" 
d="M56 516q44 -58 96 -66q48 14 94 66q2 4 -14 14q-60 -37 -80 -34q-28 -4 -85 37z" />
    <glyph glyph-name="dotaccent" unicode="&#x2d9;" horiz-adv-x="212" 
d="M47 529q0 24 15.5 42t39.5 18q23 0 38.5 -18t15.5 -42q0 -23 -15.5 -41.5t-38.5 -18.5q-24 0 -39.5 18t-15.5 42z" />
    <glyph glyph-name="ring" unicode="&#x2da;" horiz-adv-x="335" 
d="M163 594q30 0 50 -20.5t20 -50.5q0 -29 -20.5 -49.5t-49.5 -20.5t-50 21t-21 47q0 31 21 52t50 21zM163 571q-20 0 -33.5 -14t-13.5 -34t14 -33.5t33 -13.5q20 0 33.5 14t13.5 33q0 20 -13.5 34t-33.5 14z" />
    <glyph glyph-name="hungarumlaut" unicode="&#x2dd;" horiz-adv-x="291" 
d="M66 462l-12 13l36 70q14 25 28 25q26 0 26 -33q0 -20 -31 -42zM156 462l-12 13l38 70q13 25 27 25q25 0 25 -33q0 -20 -31 -42z" />
    <glyph glyph-name="ogonek" unicode="&#x2db;" horiz-adv-x="246" 
d="M110 1h41q-50 -43 -50 -75q0 -36 37 -36q23 0 56 16l10 -28q-43 -30 -87 -30q-29 0 -48 17.5t-19 45.5q0 47 60 90z" />
    <glyph glyph-name="caron" unicode="&#x2c7;" horiz-adv-x="212" 
d="M195 554l2 -5l-96 -90l-102 92l3 5l97 -40z" />
    </font>
</defs>
</svg>
