<?xml version="1.0" standalone="no"?>
<!DOCTYPE svg PUBLIC "-//W3C//DTD SVG 1.1//EN" "http://www.w3.org/Graphics/SVG/1.1/DTD/svg11.dtd" >
<svg>
<metadata>
Created by FontForge 20120731 at Mon Apr 15 12:25:44 2019
 By www-data
Digitized by Dan X. Solo. Software (c) 1999 by Dover Publications, Inc., New York.
</metadata>
<defs>
<font id="Malvern" horiz-adv-x="20" >
  <font-face 
    font-family="Malvern"
    font-weight="400"
    font-stretch="normal"
    units-per-em="1000"
    panose-1="0 0 4 0 0 0 0 0 0 0"
    ascent="800"
    descent="-200"
    x-height="383"
    cap-height="730"
    bbox="-86 -371.516 791 840"
    underline-thickness="20"
    underline-position="-123"
    unicode-range="U+0020-F002"
  />
<missing-glyph horiz-adv-x="500" 
d="M63 0v800h375v-800h-375zM125 63h250v675h-250v-675z" />
    <glyph glyph-name=".notdef" horiz-adv-x="500" 
d="M63 0v800h375v-800h-375zM125 63h250v675h-250v-675z" />
    <glyph glyph-name="glyph1" horiz-adv-x="0" 
 />
    <glyph glyph-name="glyph2" horiz-adv-x="186" 
 />
    <glyph glyph-name="space" unicode=" " horiz-adv-x="186" 
 />
    <glyph glyph-name="exclam" unicode="!" horiz-adv-x="328" 
d="M299 647l-3 -15q-6 0 -21.5 10t-23.5 10q-31 0 -44 -68q-7 -38 -7 -78v-170q0 -2 5.5 -47t5.5 -47q0 -6 -50 -46q-41 -32 -57 -43q-5 17 -5 102v110q0 62 -14 142q-16 94 -37 100q-15 4 -31 22.5t-16 32.5q0 17 14.5 28.5t29.5 11.5q29 0 29 -25q0 -23 -23 -23
q-14 0 -18 13q-7 0 -7 -8q0 -28 48 -28q42 0 93 26t73 26q19 0 39 -13q17 -12 20 -23zM216 42q-67 -52 -90 -67q-15 0 -25 34q-8 27 -8 47q0 31 10 45q7 9 33 25q33 20 59 42q0 1 0 -11q1 -17 2 -51q1 -18 10 -40.5t9 -23.5z" />
    <glyph glyph-name="quotedbl" unicode="&#x22;" horiz-adv-x="287" 
d="M158 675h72l-20 -225h-32zM28 675h72l-20 -225h-32z" />
    <glyph glyph-name="numbersign" unicode="#" horiz-adv-x="460" 
d="M306 439h-136l-52 -197h135zM86 502h67l46 173h35l-47 -173h136l46 173h35l-47 -173h70l-17 -63h-70l-52 -197h69l-17 -63h-69l-49 -181h-34l48 181h-135l-49 -181h-34l48 181h-66l17 63h66l53 197h-67z" />
    <glyph glyph-name="dollar" unicode="$" horiz-adv-x="331" 
d="M290 412q0 -54 -40 -90q-7 -7 -99 -69v-36q-1 -22 -17 -22q-14 0 -15 21q-2 34 -4 40q-8 21 -38 21q-12 0 -21 -12.5t-7 -22.5q-16 2 -16 28q0 36 29 58q26 19 60 19q19 0 43.5 -15t25.5 -15q10 0 17 19q6 15 6 29q0 20 -15 41t-35 21t-41 -23t-42 -23q-35 0 -53 39
q-12 27 -12 56q0 36 15 54q35 26 83 72q2 16 6 50q6 7 13 7q14 0 17 -13t5 -25q15 -9 45 -34q13 -10 35 -10q1 0 8 1q5 1 8 0q3 -2 3 -7q0 -20 -27 -34q-22 -13 -37 -13q-28 0 -46 13q-14 12 -28 25q-19 -15 -19 -16q-7 -8 -7 -23q0 -27 16.5 -46.5t44.5 -19.5q11 0 31.5 19
t34.5 19q32 0 54 -28q19 -25 19 -55z" />
    <glyph glyph-name="percent" unicode="%" horiz-adv-x="691" 
d="M643 201q0 -93 -77 -169q-9 -11 -19 -22q-15 -18 -25 -18t-53 27q-51 32 -79 81q-26 46 -26 92q0 57 35 118t80 82l5 2q23 52 56 52q29 0 29 -21q0 -17 -15 -17q-11 0 -12.5 8.5t-2.5 16.5q-19 -2 -19 -29t32 -58q57 -54 59 -57q32 -40 32 -88zM603 139q0 35 -60.5 105
t-60.5 120q0 10 1 19q-59 -68 -59 -148q0 -87 86 -147q41 -29 50 -29q17 0 31 38q12 30 12 42zM303 451q0 -92 -72 -168q-38 -41 -49 -41q-10 0 -53 27q-51 32 -79 81q-26 46 -26 92q0 57 35 118t80 82l5 2q23 52 56 52q29 0 29 -21q0 -17 -15 -17q-11 0 -12.5 8.5
t-2.5 16.5q-19 -2 -19 -29t32 -58q57 -54 59 -57q32 -40 32 -88zM263 389q0 35 -60.5 105t-60.5 120q0 10 1 19q-59 -68 -59 -148q0 -87 86 -147q41 -29 50 -29q17 0 31 38q12 30 12 42zM557 670h32l-470 -672h-32z" />
    <glyph glyph-name="ampersand" unicode="&#x26;" horiz-adv-x="528" 
d="M517 272q0 -8 -11.5 -18.5t-19.5 -10.5q-15 0 -26 23q6 16 20 26l-11 8q-39 0 -64 -56q-14 -44 -28.5 -87t-126.5 -170q-18 12 -90.5 44t-104.5 54q-49 35 -49 72q0 61 107 168q-103 71 -103 141q0 49 29 91q18 25 66 69t68 71q24 -5 50.5 -11t43.5 -18q4 -3 40 -44
q23 -27 52 -27q46 0 55 31q-26 11 -26 29q0 13 8.5 23.5t21.5 10.5q31 0 31 -39q0 -27 -57 -66l-76 -50l-37 -37q-2 -12 -17.5 -26.5t-28.5 -15.5l3 14q0 34 -33.5 81t-65.5 47q-23 0 -36.5 -22.5t-13.5 -46.5q0 -36 61 -83q57 -43 91 -43q9 0 13 5l3 -13q-48 -25 -89 -67
q-51 -51 -51 -94q0 -33 57 -79t90 -46q21 0 42 20.5t21 40.5q0 29 -41 47q-11 5 -76 25q-41 12 -41 25q0 3 4 17q2 0 39 -10q23 -6 39 -6q46 0 123.5 25t99.5 25q16 0 30.5 -15t14.5 -32z" />
    <glyph glyph-name="quotesingle" unicode="'" horiz-adv-x="155" 
d="M28 675h72l-20 -225h-32z" />
    <glyph glyph-name="parenleft" unicode="(" horiz-adv-x="198" 
d="M122 -44q-120 239 -120 385q0 149 120 385h42q-38 -153 -50 -221q-18 -92 -18 -166q0 -123 69 -383h-43z" />
    <glyph glyph-name="parenright" unicode=")" horiz-adv-x="198" 
d="M8 -44q69 260 69 383q0 74 -18 166q-13 68 -51 221h42q121 -236 121 -385q0 -146 -121 -385h-42z" />
    <glyph glyph-name="asterisk" unicode="*" horiz-adv-x="385" 
d="M161 500q-34 -20 -46.5 -37.5t-25.5 -34.5q-16 -18 -36 -18q-16 0 -27 11t-11 27q0 39 71 46q29 3 65 23q-33 20 -57 23q-43 5 -51 8q-28 11 -28 39q0 16 11 26.5t27 10.5q25 0 55 -44q16 -24 53 -45v15q0 23 -14.5 56.5t-14.5 44.5q0 17 11 29.5t28 12.5t28.5 -13
t11.5 -30q0 -6 -14.5 -43.5t-14.5 -71.5q28 17 48 38q12 17 26 34t34 17q16 0 27 -10.5t11 -26.5q0 -39 -69 -45q-32 -3 -67 -25q32 -20 57 -23q44 -6 51 -8q28 -10 28 -39q0 -35 -36 -35q-26 0 -57 43q-18 25 -53 45v-16q0 -22 14 -55t14 -45q0 -18 -11 -30.5t-28 -12.5
t-28 13t-11 30q0 10 17 46q12 26 12 70z" />
    <glyph glyph-name="plus" unicode="+" horiz-adv-x="482" 
d="M254 277l1 -206l-57 2v202h-183v45h182v196h54v-193h181v-46h-178z" />
    <glyph glyph-name="comma" unicode="," horiz-adv-x="201" 
d="M156 68q2 -1 -2 -4q-9 -45 -29 -99q-23 -59 -35 -59q3 0 -23 1q36 67 38 122q-24 -19 -41 -37q-17 0 -28 39q-9 30 -9 55q0 29 11 43q7 10 33 25q34 20 58 41q2 -26 8 -75q2 -9 10.5 -29.5t8.5 -22.5z" />
    <glyph glyph-name="hyphen" unicode="-" horiz-adv-x="299" 
d="M258 294q0 -10 -5 -27q-7 -22 -9 -37q1 4 1 -28q1 -20 -9 -20q-2 0 -16.5 3.5t-17.5 3.5q-41 0 -80.5 -19t-78.5 -38q-1 9 1 32q1 27 1 24q0 2 -5 23.5t-5 23.5q0 5 6 13h60q7 0 29 7q19 5 71 24q43 15 46 15h11z" />
    <glyph glyph-name="hyphen" unicode="&#x2010;" horiz-adv-x="299" 
d="M258 294q0 -10 -5 -27q-7 -22 -9 -37q1 4 1 -28q1 -20 -9 -20q-2 0 -16.5 3.5t-17.5 3.5q-41 0 -80.5 -19t-78.5 -38q-1 9 1 32q1 27 1 24q0 2 -5 23.5t-5 23.5q0 5 6 13h60q7 0 29 7q19 5 71 24q43 15 46 15h11z" />
    <glyph glyph-name="period" unicode="." horiz-adv-x="201" 
d="M161 55q0 -5 -91 -68q-16 0 -27 39q-8 30 -8 52q0 39 32.5 63.5t66.5 48.5h10q-3 -4 0 -60q1 -20 9 -49.5t8 -25.5z" />
    <glyph glyph-name="slash" unicode="/" horiz-adv-x="357" 
d="M14 -54l-29 20l327 754l29 -20z" />
    <glyph glyph-name="zero" unicode="0" horiz-adv-x="515" 
d="M486 329q0 -68 -33 -143q-34 -79 -95 -139q-16 -18 -32 -37q-26 -29 -41 -29q-18 0 -89 45q-85 53 -132 135q-44 76 -44 153q0 95 59 197t133 136l9 4q20 45 40.5 65.5t53.5 20.5q48 0 48 -35q0 -9 -7.5 -19t-17.5 -10q-19 0 -21.5 14.5t-3.5 27.5q-32 -3 -32 -48t54 -96
q94 -90 98 -96q53 -66 53 -146zM419 226q0 51 -53 117q-48 59 -97 118q-52 73 -52 140q0 16 3 32q-45 -51 -72 -119.5t-27 -127.5q0 -146 143 -245q69 -48 84 -48q27 0 52 62q19 50 19 71z" />
    <glyph glyph-name="one" unicode="1" horiz-adv-x="406" 
d="M381 -37q0 -13 -13.5 -23t-27.5 -10q-31 0 -31 24q0 20 44 19q-21 32 -130 32q-30 0 -101 -7.5t-96 -7.5l-3 14q5 6 37.5 7t41.5 19q12 24 22 144q8 98 8 155q0 270 -24 271q-97 6 -97 61q0 31 33 31q7 0 16.5 -8.5t9.5 -15.5q0 -11 -21 -27q11 -12 30 -13q-22 2 32 2
q35 0 86 28t45 28q5 0 13.5 -5.5t7.5 -9.5q-9 -30 -23 -113q-9 -61 -9 -217q0 -245 45 -308q105 -25 105 -70z" />
    <glyph glyph-name="two" unicode="2" horiz-adv-x="460" 
d="M442 208q0 -3 -17 -43q-21 -49 -27 -64q-10 -28 -21 -57q-21 -50 -42 -50q-11 0 -56 23t-82 23q-34 0 -60 -21.5t-28 -21.5t-12.5 -9t-13.5 -9q-22 -3 -31 0q-9 0 -11 5.5t-1 12.5q1 11 1 9q0 47 64 129l120 148q65 87 65 145q0 31 -35 97q-41 78 -81 78q-16 0 -30 -19
t-14 -31q0 -27 21 -69q23 -45 44 -44q3 -2 3 -6q0 -6 -66 -51t-66 -72q0 -1 4 -10q24 22 29 22q6 0 14 -5.5t8 -12.5q0 -12 -12 -21t-23 -9q-39 0 -39 42q0 14 9.5 37t9.5 26q0 12 -20.5 52t-20.5 60q0 62 192 170q44 26 61 26q6 0 31 -22q70 -60 70 -153q0 -85 -63 -171
q-7 -9 -124 -140q-72 -81 -86 -142l2 -27q50 114 154 114q31 0 65.5 -15l34.5 -15q18 0 39 49.5t26 49.5h12q3 -1 3 -8z" />
    <glyph glyph-name="three" unicode="3" horiz-adv-x="455" 
d="M417 228q-2 -48 -40 -98q-14 -19 -85 -79q-86 -73 -115 -72q-26 1 -72.5 42.5t-76.5 42.5q0 1 -1 3t-1 5q21 19 37 34q38 37 42 52q1 3 9.5 -4.5t9.5 -7.5q25 -14 69 -54q33 -30 56 -31q25 -1 53 42q25 38 25 52q2 37 -24 73t-70 59q-23 3 -58 11v8q41 21 69 67
q26 41 27 77q2 44 -27 88q-52 81 -54 85q-64 -23 -65 -57q-1 -13 11.5 -53.5t20.5 -47.5l5 -13q-29 -15 -58 -29q-35 -17 -51 -51q10 -4 20 -8.5t9 -17.5q0 -9 -11.5 -18t-20.5 -8q-19 0 -27 29q-3 14 9 33q6 10 13 20q1 12 -16.5 49.5t-17.5 54.5q1 31 127 116
q118 79 129 79q6 0 53 -56q49 -59 49 -78q0 -3 1 -13t1 -13q-2 -45 -40 -107l-38 -60q0 4 33 -18q37 -24 60 -52q32 -38 31 -76z" />
    <glyph glyph-name="four" unicode="4" horiz-adv-x="535" 
d="M494 271q0 -81 -112 -81q-18 0 -35 3q6 -24 7 -76q0 -44 11 -64q16 -30 65 -46q8 -2 21 -12q-7 -14 -10 -14q-2 0 -25 7.5t-26 8.5q-47 11 -94 11q-94 0 -129 -33l12 -14t6 -17q0 -9 -10 -16t-20 -6q-32 3 -32 35q0 22 36 41q44 23 53 39q16 29 21 172q-22 14 -110 14
q-20 0 -54 -9.5t-53 -8.5q-10 8 -10 13q0 3 38 61q42 65 45 71q99 177 124 283q-6 5 -35 17q-22 9 -27 22q2 5 8 5q5 0 24 -6t23 -7q40 -7 86 -7q83 0 112 26q-2 6 -10 12.5t-8 16.5t9.5 17t19.5 7q29 0 29 -32q0 -23 -39 -46q-43 -26 -48 -44q-18 -52 -17 -214l1 -136
q64 -27 80 -27q10 0 26.5 7t19.5 14q-8 7 -17.5 14.5t-9.5 16.5q0 28 26 28q28 0 28 -46zM238 279l3 132q1 88 -9 160q-10 -23 -130 -292q53 6 65 6t71 -6z" />
    <glyph glyph-name="five" unicode="5" horiz-adv-x="417" 
d="M382 244q0 -27 -8 -54q-13 -46 -78 -124q-71 -85 -110 -85q-11 0 -81 40q-73 42 -96 47l44 54q32 39 32 56q0 4 -7 15.5t-7 15.5q0 8 7 17t15 9q6 0 14.5 -11t8.5 -18q0 -6 -5.5 -22.5t-5.5 -22.5q0 -9 67 -45q42 -22 83 -44q22 0 42 43q17 37 17 62q0 59 -55 93
q-47 29 -110 29q-21 0 -57.5 -10t-45.5 -10q-14 0 -14 10q0 30 13 103q11 66 8 105l-11 144q-2 23 12 23q3 0 7.5 -2.5t7.5 -2.5q-3 0 27 12.5t52 12.5t62 -16t58 -16q21 0 36 17t18 17q7 0 13 -12q-8 -27 -15 -54q-9 -33 -9 -55q0 -13 5 -28q5 -21 6 -26q12 4 19 4
q23 0 23 -20q0 -30 -28 -30q-24 0 -36 34t-20 34q-7 0 -21.5 -1.5t-21.5 -1.5q-20 0 -61 12t-61 12q-35 0 -35 -19q0 -11 1.5 -38.5t1.5 -42.5q-1 -23 -5 -40q1 -1 36 8q40 10 55 10q85 0 147 -50q66 -54 66 -138z" />
    <glyph glyph-name="six" unicode="6" horiz-adv-x="463" 
d="M442 196q0 -32 -102.5 -123.5t-123.5 -91.5q-3 0 -8 2.5t-8 2.5q-36 0 -106 73q-36 37 -57 93.5t-21 109.5q0 122 108 278q13 18 75 80q66 65 75 65q3 0 70 -66q33 -33 33 -58q0 -20 -39 -58q-46 -47 -52 -57q4 -6 4 -13q0 -23 -22 -23q-18 0 -20 16q-5 33 32 62
q0 16 -29.5 49.5t-45.5 33.5q-31 0 -63 -82q-27 -72 -27 -111q0 -94 12 -110q3 2 91 74q68 55 91 55q65 0 103 -61q32 -51 32 -118q0 -5 -1 -12t-1 -10zM246 324q-9 0 -59.5 -39t-50.5 -48q0 -26 55 -92q57 -70 89 -75q23 -3 46 38q20 36 20 60q0 44 -28 96q-32 60 -72 60z
" />
    <glyph glyph-name="seven" unicode="7" horiz-adv-x="417" 
d="M400 329q0 -39 -54 -39q-22 0 -47 7q-35 10 -38 9q-22 -64 -22 -198q0 -17 6.5 -48t6.5 -44q0 -15 -14 -15q-18 0 -33 4l-58 -6q-15 4 -15 49q0 91 62 259q3 -1 -21 -1q-18 0 -22.5 -10t-15.5 -10q-16 0 -16 15q0 28 84 36l90 227q-22 -8 -44.5 -16.5t-51.5 -8.5
q-17 0 -49 15.5t-44 15.5q-20 0 -45.5 -56t-43.5 -56q-17 0 -17 21t29 21q19 0 30 49q17 80 22 92q19 49 59 49q20 0 63 -20.5t66 -20.5h66q37 70 54 70q10 0 13 -16q-107 -206 -130 -367q32 -16 61 -19q1 0 11 21t31 21q11 0 19 -9.5t8 -20.5z" />
    <glyph glyph-name="eight" unicode="8" horiz-adv-x="440" 
d="M413 196q0 -18 -88.5 -123.5t-102.5 -105.5q-8 0 -88.5 54.5t-92.5 65.5q-8 9 -16 30t-8 33q1 61 117 171q-115 53 -114 140q1 58 72 129q13 14 75.5 67.5t66.5 53.5q7 -1 24 -15q11 -9 22 -19q50 -36 71 -60q36 -40 35 -82q-1 -30 -49 -83q-12 -13 -72 -71
q91 -56 107 -72q42 -41 41 -113zM300 484q0 32 -57 86q-53 49 -69 49q-13 0 -45.5 -35.5t-32.5 -49.5q-1 -42 44 -78q39 -27 78 -53l19 -7q12 -4 37.5 35t25.5 53zM328 139q1 34 -32 75q-29 37 -62 54q-28 19 -69 37q-14 1 -42 -38t-27 -52q4 -47 87 -99q70 -44 93 -44
q14 0 33 26.5t19 40.5z" />
    <glyph glyph-name="nine" unicode="9" horiz-adv-x="463" 
d="M434 375q0 -43 -17 -108q-15 -59 -82 -164q-76 -119 -120 -119q-11 0 -82 48.5t-71 50.5q0 8 40.5 42.5t40.5 43.5q0 2 -7 12t-7 13q0 10 8.5 20.5t19.5 10.5q8 0 15 -7.5t7 -14.5q0 -26 -14 -45l113 -81q21 30 39 90q17 57 17 85q0 92 -15 126q-36 -34 -72 -67
q-48 -45 -78 -45q-65 0 -110 64q-40 56 -40 116q0 53 -2 27q1 14 12 30.5t94 101.5q91 92 107 92q14 0 66 -38q138 -101 138 -284zM312 412q0 30 -49 100q-56 79 -101 79q-17 0 -38.5 -28t-21.5 -41q0 -42 37 -101q42 -69 92 -69q14 0 47.5 21t33.5 39z" />
    <glyph glyph-name="colon" unicode=":" horiz-adv-x="201" 
d="M161 265q0 -5 -91 -68q-16 0 -27 39q-8 30 -8 52q0 39 32.5 63.5t66.5 48.5h10q-3 -4 0 -60q1 -20 9 -49.5t8 -25.5zM161 55q0 -5 -91 -68q-16 0 -27 39q-8 30 -8 52q0 39 32.5 63.5t66.5 48.5h10q-3 -4 0 -60q1 -20 9 -49.5t8 -25.5z" />
    <glyph glyph-name="semicolon" unicode=";" horiz-adv-x="201" 
d="M161 265q0 -5 -91 -68q-16 0 -26 36q-7 28 -7 52v38q3 6 51 40t56 37q-3 -4 0 -60q1 -20 9 -49.5t8 -25.5zM166 55q2 -15 -2 -18q-9 -43 -29 -92q-22 -52 -35 -52q3 0 -23 1q36 67 38 122q-24 -19 -41 -37q-17 0 -28 39q-9 30 -9 55q0 29 11 43q7 10 33 25q34 20 58 41
q2 -26 8 -75q2 -9 10.5 -29.5t8.5 -22.5z" />
    <glyph glyph-name="less" unicode="&#x3c;" horiz-adv-x="388" 
d="M33 317l280 221l34 -31l-243 -190l240 -178l-34 -32z" />
    <glyph glyph-name="equal" unicode="=" horiz-adv-x="530" 
d="M13 329l1 49h455v-49h-456zM13 199l1 50l455 -1v-49h-456z" />
    <glyph glyph-name="greater" unicode="&#x3e;" horiz-adv-x="368" 
d="M57 107l-34 32l240 178l-243 190l34 31l280 -222z" />
    <glyph glyph-name="question" unicode="?" horiz-adv-x="368" 
d="M337 542q0 -59 -57.5 -133.5t-57.5 -113.5q0 -2 4 -26t4 -26q0 -4 -48 -46t-54 -42q-15 0 -15 30q0 49 36 103q3 3 68 84q36 45 36 72q0 32 -35 83q-39 56 -77 56q-15 0 -27 -13.5t-12 -29.5q0 -13 10 -34q11 -26 25 -26q5 0 31 21h9q5 -5 5 -8q0 -12 -59.5 -55.5
t-64.5 -43.5q-24 0 -40 34q-12 27 -12 51q0 34 18 49q6 5 91 68q37 28 38 28q26 20 39 38q3 5 12 16q8 3 6 3q3 0 23 -14q25 -18 35 -23q53 -32 62 -60q7 -22 7 -42zM244 45q0 -1 -88 -73q-17 0 -27 37q-9 30 -9 53q0 38 23 54q38 26 75 51q1 -25 7 -72q2 -9 10.5 -28.5
t8.5 -21.5z" />
    <glyph glyph-name="at" unicode="@" horiz-adv-x="801" 
d="M478 175q1 -1 7 0q8 -3 7 -3q5 1 17 3q68 12 111 101q33 69 33 150q0 91 -68 150q-65 56 -158 56q-134 0 -231 -95t-97 -229q0 -124 88 -209.5t212 -85.5q170 0 261 126q7 15 60 97l37 -23q-7 -14 -33 -65q-49 -90 -135 -139t-191 -49q-148 0 -248.5 98t-100.5 246
q0 158 109.5 268t266.5 110q119 0 199.5 -75t80.5 -194q0 -105 -58 -191q-65 -97 -163 -97q-64 0 -77 67q-53 -58 -114 -58q-46 0 -76 51q-26 44 -26 97q0 81 52 154q57 80 137 80q44 0 67 -45q11 34 16 42q47 2 47 0q0 -7 -15 -74q-22 -100 -37 -184q-3 -18 -3 -39
q0 -42 28 -42zM377 469q-67 0 -106 -75q-32 -59 -32 -129q0 -21 18 -52t39 -31q63 0 107 84q18 32 28 80l14 84q-27 39 -68 39z" />
    <glyph glyph-name="A" unicode="A" horiz-adv-x="565" 
d="M545 -12l-6 -6q-80 34 -171 34q-92 0 -108 -25l1 -2q9 -3 27 -11q-2 -10 -9 -32l-4 1l-18 -6q-29 6 -29 28q0 28 45 54t50 50q7 40 10 104q4 89 5 103q-1 4 0 41q-36 -5 -109 -21q-2 0 0 -10l3 -13q0 -71 -12 -117q-10 -41 -43 -109q-9 -19 -34 -45q-18 -19 -43 -38
t-47 -19q-26 0 -43.5 17t-17.5 41q0 51 74 109q6 0 8 -4q0 -1 -10.5 -24.5t-10.5 -38.5q0 -18 13.5 -33.5t32.5 -15.5q11 0 28 23q31 41 31 128q0 25 -9 81q-12 67 -23 68q-83 9 -83 51q0 30 27 30q20 0 20 -21q0 -8 -11 -24q7 -13 23 -13h21q-8 26 -4 92q9 157 110 218
l-16 5q-46 6 -78 24q-43 25 -43 63q0 17 11.5 29t28.5 12q30 0 30 -27q-7 -19 -22 -19q-16 0 -27 16h-1l-4 -12q0 -39 81 -56q61 -12 112 -8q39 5 120 10q19 1 58 14t56 13l8 -5l-38.5 -26.5t-45.5 -51.5q-16 -54 -16 -170v-111q0 -223 19 -273q8 -23 47 -46q36 -21 36 -26z
M340 383q0 211 -24 248l-11 3q-103 0 -103 -145q0 -19 5 -72q7 -71 16 -90q54 8 114 24q3 5 3 32z" />
    <glyph glyph-name="B" unicode="B" horiz-adv-x="560" 
d="M517 184q0 -90 -65 -143q-60 -49 -151 -49q-31 0 -92 8t-91 8q-42 0 -48 -1q-33 -5 -35 -27q-2 -12 9 -19.5t21 -7.5q4 0 9 12.5t20 12.5q6 0 16 -8t10 -14q0 -23 -36 -23q-28 0 -51 14q-27 16 -27 42q0 23 33 48q36 29 42 46q8 23 14 109q6 73 6 113l1 16q-24 -8 -29 -4
q-57 -8 -69 -27v-3q29 -4 29 -20q-2 -23 -21 -24q-33 0 -33 36q0 28 26 43q16 9 54 17q35 8 43 14v33q0 138 -18 205q-6 24 -48 50q-38 24 -38 47q0 25 25 40q21 13 47 13q40 0 40 -27q0 -14 -22 -22q-19 6 -28 25h-7q-34 0 -34 -28q0 -35 120 -35q30 0 88 15t89 15
q68 0 117 -34q58 -40 50 -106q-9 -72 -49 -110q-24 -24 -100 -60q34 -9 68 -19q50 -18 78 -51q37 -45 37 -120zM357 540q0 45 -18 75q-22 36 -64 36q-48 0 -60 -98q-4 -28 -4 -131q0 -37 4 -51q52 2 98 61q44 55 44 108zM385 179q0 61 -26 110q-31 60 -87 60q-36 0 -59 -11
q-8 -25 -2 -130q4 -95 6 -105q13 -81 57 -81q57 0 87 52q24 43 24 105z" />
    <glyph glyph-name="C" unicode="C" horiz-adv-x="492" 
d="M466 183q-56 -96 -117 -195q-11 -8 -42 -8q-125 0 -216 108q-85 103 -85 229q0 106 89 230q86 119 188 164q3 -3 10 -17q22 -23 52 -47q42 -33 58 -28l47 16l7 -8q-7 -23 -60 -87q-45 -55 -45 -95l5 -14q13 22 30 22q18 0 18 -18q0 -16 -10 -28t-25 -12q-11 0 -33 18
q-11 27 -11 51t11 45q-47 36 -141 111q-36 -8 -71 -96q-31 -78 -31 -124q0 -125 77.5 -208t202.5 -83l14 4q21 29 58 87z" />
    <glyph glyph-name="D" unicode="D" horiz-adv-x="621" 
d="M585 339q-2 -194 -101 -275q-82 -67 -248 -67q-58 0 -140 8q-24 2 -46 -3q-32 -7 -30 -27q2 -34 29 -42l4 1q9 20 31 20q8 0 18 -6t10 -14t-16 -16.5t-26 -8.5q-71 0 -71 63q0 32 27 47q38 22 49 37q27 38 28 125v253q2 137 -17 185q-7 17 -31 27q-32 13 -38 18
q-19 16 -18 50q2 47 76 47q18 0 35.5 -10t17.5 -27q0 -8 -8.5 -14t-17.5 -6q-14 0 -21 6q-3 13 -9 28l-14 4q-12 0 -24 -10.5t-12 -20.5q2 -39 99 -39q20 0 46 2l28 2q40 1 114 1q145 0 216 -100q63 -87 60 -238zM446 315v71q0 88 -30 164q-41 101 -119 99q-40 -1 -59 -45
q-13 -32 -15 -90v-75v-248q-1 -71 6 -100q14 -60 62 -60q81 0 123 107q32 80 32 177z" />
    <glyph glyph-name="E" unicode="E" horiz-adv-x="543" 
d="M520 523q0 -25 -18 -39t-43 -14q-54 0 -69 48q-7 22 -7 86q0 60 -59 60t-75 -130q-6 -45 -6 -171h34q31 0 33 1q20 3 42 22q7 13 7 24q0 18 -22 40l23 2q15 0 27.5 -14.5t12.5 -28.5q0 -44 -15 -56q15 -10 17 -25q1 0 1 -27q0 -21 -18.5 -34t-39.5 -13l-16 1q20 10 23 47
q-7 33 -50 33q-7 0 -15.5 -1t-10.5 -1h-33q0 -13 -1 -47q-1 -39 -1 -60q0 -208 88 -208q59 0 86 44q23 37 18 93q-1 12 -1 22q0 66 46 66q13 0 23.5 -11t10.5 -24q0 -6 -8 -14t-15 -8l-14 3l-14 14q0 -2 -4 -8.5t-4 -10.5q0 -25 20.5 -72t20.5 -71q0 -30 -34 -48
q-30 -17 -57 -13l-158 22q-82 10 -143 10q-95 0 -96 -48q0 -11 16 -19t28 -8l3 2q6 22 32 24q8 0 15.5 -7t7.5 -14q0 -13 -21 -21q-17 -5 -32 -4q-39 2 -65 36l-4 17q0 34 49 56q57 26 69 50q24 48 24 231v100q0 130 -23 197q-10 29 -57 49q-41 17 -41 53q0 22 20 37t41 16
q52 4 52 -31q0 -17 -24 -17q-23 0 -27 25q-39 2 -39 -30q0 -42 81 -39q36 2 127 14q80 10 127 10q50 0 70 -24q15 -19 15 -59q0 -13 -2 -42.5t-2 -44.5q0 -33 15 -33l18 10q-6 9 -6 24q0 37 25 37q8 0 15 -13t7 -23z" />
    <glyph glyph-name="F" unicode="F" horiz-adv-x="494" 
d="M243 333h35h56q15 -2 23 -36l-26 -32l16 -6q58 0 58 42q0 27 -1 27q-2 15 -17 25q15 12 15 56q0 14 -12.5 28.5t-27.5 14.5l-15 -2q22 -22 8 -66q-23 -20 -34 -22q6 1 -42 1h-36q0 120 6 171q18 130 77 130t59 -60v-22q-1 -15 -1 -24q0 -87 68 -87q26 0 49 16.5t23 41.5
q0 9 -8 19.5t-16 10.5q-25 0 -25 -37q0 -15 6 -24l-18 -10q-15 0 -15 33q0 15 2 44.5t2 42.5q0 40 -15 59q-20 24 -70 24q-47 0 -127 -10q-91 -12 -127 -14q-81 -3 -81 39q0 32 39 30q4 -25 27 -25q24 0 24 17q0 35 -52 31q-21 -1 -41 -16t-20 -37q0 -36 41 -53
q47 -20 57 -49q23 -67 23 -197v-100q0 -190 -25 -223q-13 -17 -77 -52q-50 -27 -50 -62l4 -17q25 -33 66 -33q52 0 52 22q0 7 -7.5 14t-15.5 7q-26 -2 -32 -24l-3 -2q-12 0 -28 8t-16 19q1 48 106 48q41 9 151 1q105 0 106 -53q0 -11 -16 -19t-28 -8l-3 2q-6 22 -32 24
q-8 0 -15.5 -7t-7.5 -14q0 -22 52 -22q45 0 71 34v15q0 34 -51 56q-59 26 -71 50q-25 26 -17 262z" />
    <glyph glyph-name="G" unicode="G" horiz-adv-x="578" 
d="M568 333q0 -31 -22.5 -41t-44.5 -19q-23 -19 -23 -71q0 -51 34 -51q14 0 35 7l10 -14q-33 -12 -284 -160q-101 0 -188 115q-81 108 -81 212q0 129 96 230q46 47 203 156q15 -30 53 -71q45 -47 68 -47q13 0 27 11l6 -7q-79 -83 -79 -150q0 -6 6 -15l6 -10q8 27 25 27
q6 0 13.5 -9.5t7.5 -16.5q0 -30 -31 -30q-50 0 -50 72q0 12 2 24q-15 13 -69 72q-49 53 -67 64q-56 -55 -81 -110q-27 -58 -27 -134q0 -95 65 -187q70 -101 161 -101q15 0 23 68q5 43 5 78t-21.5 55t-55.5 20q-9 0 -19 -2l1 -12q0 -8 -8 -13.5t-16 -5.5q-13 0 -26 21
q0 16 17 26q14 8 31 6q127 -13 202 -19q26 -2 57 6q19 1 19 18l-2 3l-9 -2q-24 5 -24 23q6 10 21 18q14 0 24 -10t10 -24z" />
    <glyph glyph-name="H" unicode="H" horiz-adv-x="586" 
d="M575 -42q0 -32 -29 -31q-19 5 -24 19q0 20 29 25q-23 48 -119 48q-22 0 -61.5 -11.5t-56.5 -11.5l-8 9q55 72 55 195q0 13 -1 56q-1 36 0 59v31h-158v-143q6 -60 17 -134q17 -40 59 -71q35 -27 35 -41q0 -11 -9.5 -19t-21.5 -8q-16 7 -19 16q0 10 7 18.5t17 7.5
q-1 18 -61 31q-50 11 -75 10q-85 3 -147 -16l-7 11q64 22 85 103q12 46 12 145q0 201 0 160q-2 158 -19 189q-5 10 -38 46q-25 28 -25 49q0 17 15.5 30.5t32.5 13.5q9 0 18.5 -6t9.5 -14l-16 -20h-6q-18 0 -30 10l-10 -14q0 -35 65 -35q24 0 69 12.5t69 12.5q11 0 29.5 -6.5
t19.5 -13.5l-6 -11q-1 0 -6.5 4.5t-7.5 3.5q-60 -12 -60 -193q0 -50 4 -98q134 3 158 0q3 13 3 22q0 153 -14 204q-7 24 -36 63t-29 50q0 15 12.5 24t27.5 9q30 0 30 -21l-19 -16q-19 0 -32 8l-3 -7q0 -16 30 -27q24 -8 43 -8q25 0 69 11t70 11q16 -1 41 -12l-6 -12l-13 4
q-49 -7 -60 -108q-1 -5 -2 -131l-1 -59q10 -22 24 -22q8 0 20 7l-2 23l23 21q12 0 20 -10t7 -22q0 -20 -20.5 -31t-45.5 -11q-21 0 -28 7l-1 -102q0 -15 11 -157q1 -27 48.5 -62.5t47.5 -63.5z" />
    <glyph glyph-name="I" unicode="I" horiz-adv-x="294" 
d="M273 661l-4 -15q-29 7 -21 7q-50 0 -63 -135q-3 -34 -3 -162q0 -173 0 -155q2 -91 15 -155q4 -19 30 -46q23 -25 23 -41q0 -13 -9 -22.5t-22 -9.5q-24 0 -24 22q0 20 34 18q-29 36 -125 36q-52 0 -85 -26l-7 9q44 53 56 122q8 42 7 136v164q-2 96 -15 163q-5 28 -33 61
q-27 30 -27 51q0 19 17 33t37 14q11 0 20.5 -8t9.5 -19q0 -17 -24 -20q-16 3 -30 15l-10 -14q0 -13 17 -23q14 -9 28 -9q27 0 74 10q51 11 74 12q5 1 12 3t10 2q13 0 38 -18z" />
    <glyph glyph-name="J" unicode="J" horiz-adv-x="319" 
d="M313 658l-7 -8l-28 10q-53 -8 -53 -284q0 -41 3.5 -123.5t3.5 -123.5q0 -55 -7 -79q-11 -41 -73 -113q-14 -17 -92 -100q-25 -26 -59 -32q-22 6 -45 24q-28 21 -28 39q0 -1 50 62t57 95q-6 4 -21 6l-12 19q0 32 26 32t26 -43q0 -49 -41 -103q1 -12 21.5 -28t32.5 -16
q30 0 39 89q3 58 6 115q3 34 3 173q0 181 -16 299q-5 31 -39 61.5t-34 50.5q0 17 14 28.5t32 11.5q32 0 32 -21q0 -20 -24 -20q-15 0 -32 11q-4 -9 -4 -11q0 -15 21 -24q16 -7 34 -7q28 0 83 18t84 18q9 0 27.5 -8.5t19.5 -17.5z" />
    <glyph glyph-name="K" unicode="K" horiz-adv-x="589" 
d="M573 82q0 -50 -32.5 -80t-83.5 -30q-50 0 -81 42q-25 37 -25 83q0 30 6.5 85.5t6.5 73.5q0 75 -60 75q-19 0 -50 -16q-35 -18 -35 -36q0 -4 2 -8l-1 -88l6 -90q3 -48 18 -73q8 -15 30 -31l32 -25q1 0 -7 -7t-10 -7t-11 8t-12 10q-90 56 -169 56q-50 0 -69 -13
q1 -2 10.5 -9.5t9.5 -13.5q0 -15 -4 -18.5t-22 -3.5q-9 0 -15.5 10t-6.5 22q0 28 40 40q16 4 32.5 9.5t18.5 23.5q2 13 5 26q10 48 10 137v303q0 49 -20 79q-7 10 -38 39q-20 18 -20 38q0 17 15 27.5t29 10.5q28 0 28 -21q0 -8 -8.5 -14t-16.5 -6q-1 0 -11 3t-11 3
q-2 0 -2 -8q0 -16 22 -26q18 -8 38 -8q17 0 63.5 13t71.5 13q9 0 34 -8q31 -10 31 -21q0 -2 -1 -3v-3h-3q-3 -1 -4 -1t-11 3t-11 3q-51 0 -56 -116q-7 -112 -2 -176l173 226q-13 13 -19 13q-1 0 -10 -5.5t-10 -5.5q-7 0 -7 6q0 9 37 52t49 36q46 -25 83 -25q17 0 17 18
q0 5 -4 9q-11 -6 -16 -6q-24 0 -24 22q0 21 23 21t36 -23q10 -17 10 -38q0 -39 -29.5 -66.5t-67.5 -27.5q-13 0 -28 4t-13 4q-4 0 -82 -100q-97 -125 -111 -142q48 27 96 53q54 27 93 27q79 0 79 -81q0 -47 -49.5 -148t-49.5 -129q0 -60 67 -60q30 0 57.5 19.5t27.5 46.5
q0 5 -5 5h-4q-3 -1 -5 -1q-25 0 -25 25q0 26 26 26q10 0 22.5 -10t12.5 -21z" />
    <glyph glyph-name="L" unicode="L" horiz-adv-x="550" 
d="M519 272q0 -11 -9 -20.5t-21 -9.5q-18 15 -19 16q-1 4 1 27q-25 -10 -25 -64q0 -25 5 -61q4 -23 7 -45q6 -65 -29 -99q-31 -30 -88 -30q-20 0 -43 4l-182 34q-59 12 -79 -16l-4 -16q15 7 21 7q26 0 26 -22q0 -24 -28 -24q-15 0 -28 13t-15 29q-3 29 36 50q33 13 65 26
q24 11 24 120q0 31 -2 73t-2 44q0 69 -5 161q-7 132 -20 146q-20 14 -39 29q-23 19 -22 47q1 20 22 33q18 11 40 11q39 0 39 -28q0 -7 -9.5 -14.5t-16.5 -7.5q-20 0 -20 20q0 6 1 11h-5q-12 0 -22 -8t-10 -20q0 -18 29 -30t48 -9q44 8 89 17q57 11 88 11q52 0 52 -14l-2 -13
l-28 6q-5 1 -11 1q-60 0 -77 -140q-6 -51 -6 -188q0 -126 4 -166q15 -142 72 -142q52 0 70 74q11 69 21 138q18 74 69 74q15 0 26.5 -10t11.5 -25z" />
    <glyph glyph-name="M" unicode="M" horiz-adv-x="792" 
d="M764 91q0 -102 -209 -102q-78 0 -234 16.5t-234 16.5q-7 0 -17 1.5t-14 1.5q-16 0 -26 -19l15 -24q-6 -16 -26 -17q-17 5 -19 27q0 48 40 54q36 3 73 6q39 12 39 74q0 52 -58.5 175t-58.5 187q0 55 36 127q42 81 91 84l227 -169l223 170q44 -35 73 -91.5t29 -111.5
q0 -72 -31 -158q-12 -31 -59 -133q-31 -68 -31 -96q0 -37 20.5 -59t56.5 -22q41 0 43 25q-17 21 -17 37q0 10 9 21t20 13q13 2 26 -10.5t13 -23.5zM620 19q-41 28 -56 55t-15 75q0 45 23 131t23 132q0 54 -17 104q-24 67 -66 67q-81 0 -81 -188q0 -14 2 -64q3 -100 6 -158
q8 -128 20 -144q8 -10 44 -12q21 -1 43 -1l43 -3zM328 247q0 4 1.5 38.5t1.5 60.5q0 253 -97 253q-68 0 -68 -115q0 -42 19.5 -125.5t19.5 -124.5q0 -119 -52 -184q73 -12 128 -12q20 0 24 3q23 50 23 206z" />
    <glyph glyph-name="N" unicode="N" horiz-adv-x="603" 
d="M584 89q0 -45 -26 -80q-28 -39 -71 -39q-61 0 -93 57q-26 46 -26 113q0 43 18 129.5t18 131.5q0 74 -25 138q-33 85 -96 85q-25 0 -34 -18q-10 -22 -17 -310q-3 -99 8 -184q9 -70 13 -81q15 -44 61 -45q4 10 8.5 20t21.5 10q26 1 26 -23q0 -28 -42 -28q-32 0 -93 21.5
t-95 21.5q-55 0 -116 -23q-2 -1 -2 11q0 10 48 30q39 15 49 165q1 19 3 178q1 118 -15 176q-7 24 -56 55q-43 27 -43 61q0 13 11.5 23t24.5 10q29 0 29 -23q0 -20 -19.5 -24.5t-19.5 -3.5q0 -12 30 -19q21 -4 41 -4q64 0 176.5 40.5t118.5 40.5q9 0 23 -12q10 -9 20 -19
q75 -62 75 -173q0 -87 -52.5 -216.5t-52.5 -199.5q0 -91 79 -91q27 0 50 25t23 53q0 14 -18 19.5t-18 27.5q0 28 23 28q14 0 24 -21q8 -17 8 -33z" />
    <glyph glyph-name="O" unicode="O" horiz-adv-x="504" 
d="M461 313q0 -152 -168 -307q-41 -38 -52 -38q-24 0 -84 48q-53 44 -73 71q-80 110 -80 199q0 106 34 168q26 48 87 113q66 71 95 75q4 1 6 -3q2 -5 0 -7q-28 -33 -56 -90q-47 -92 -54 -185q-8 -95 52 -183.5t135 -93.5q29 -2 57 46q26 43 26 75q0 45 -40 113
q-38 60 -75 121q-40 73 -40 133q0 49 26 95q30 54 75 54q18 0 32 -10.5t14 -28.5q0 -27 -25 -27q-22 0 -22 22q0 2 6 21l-7 3q-17 0 -27 -21q-7 -16 -7 -36q0 -40 42 -95l80 -100q43 -66 43 -132z" />
    <glyph glyph-name="P" unicode="P" horiz-adv-x="562" 
d="M524 521q0 -145 -211 -207q-35 -7 -76 -19q-5 -3 -5 -32q0 -95 2 -118q4 -77 24 -110q10 -15 68 -47q52 -29 52 -49q0 -26 -28 -26q-11 0 -22 8t-11 19q0 9 10 22q-18 22 -79 39q-55 15 -90 15q-30 0 -81.5 -17t-60.5 -17q-5 0 -9 8q2 7 25 17q29 12 30 13q50 34 50 235
q0 17 -1 16q-30 -2 -47 -11q-12 -9 -25 -18q25 -9 25 -25q0 -27 -30 -27q-13 0 -23 10t-10 23q0 50 110 74q1 26 1 39q0 165 -13 246q-7 39 -53 63q-42 22 -42 56q0 58 70 58q51 0 51 -29q0 -25 -32 -25q-20 0 -20 24q0 6 2 11q-8 3 -15 3q-32 0 -32 -43q0 -39 83 -39
q19 0 80 13q58 13 144 13q69 0 127 -48q62 -51 62 -118zM390 502v37q0 45 -27 79q-30 38 -79 34q-33 -3 -42 -32q-10 -32 -10 -145q0 -149 1 -152l39 12q51 20 84.5 66.5t33.5 100.5z" />
    <glyph glyph-name="Q" unicode="Q" horiz-adv-x="497" 
d="M462 313q0 -131 -122 -262q35 -25 70 -51q49 -42 49 -72q0 -14 -22 -29q-17 -12 -34 -23q-12 -8 -48 -47q-17 0 -14 7q0 2 9 16.5t9 15.5q0 18 -136 105q-30 13 -78 55q-44 37 -60 59q-82 112 -82 210q0 92 36 157q27 48 87 113q66 71 95 75q4 1 6 -3q3 -5 0 -7
q-28 -33 -56 -90q-47 -92 -54 -185q-8 -95 52 -183.5t135 -93.5q29 -2 57 46q26 43 26 75q0 45 -40 113q-37 60 -75 121q-40 73 -40 133q0 49 26 95q30 54 75 54q18 0 32 -10.5t14 -28.5q0 -27 -24 -27q-22 0 -22 22q0 2 5 21l-7 3q-17 0 -27 -21q-7 -16 -7 -36
q0 -40 43 -95q39 -50 79 -100q43 -66 43 -132z" />
    <glyph glyph-name="R" unicode="R" horiz-adv-x="630" 
d="M610 26q1 -37 -36 -63q-32 -22 -70 -23q-58 -2 -91 37q-30 36 -32 96q-1 26 8 77t8 77t-20 43q-12 10 -36 19q-19 7 -19 11q0 3 16 6q9 2 19 4q29 9 92 11q35 1 63.5 -22t30.5 -57q1 -47 -47.5 -125.5t-46.5 -109.5q0 -22 25 -36q20 -11 44 -10q13 0 36.5 13.5t21.5 25.5
q-30 16 -31 30q0 13 8 24t20 11q16 1 26 -11.5t11 -27.5zM517 521q0 -145 -212 -207q-12 -4 -79 -17l-1 -34q0 -95 2 -118q4 -77 24 -110q10 -15 68 -47q52 -29 52 -49q0 -26 -28 -26q-11 0 -22 8t-11 19q0 9 10 22q-18 21 -77 37q-51 14 -88 14q-30 0 -83.5 -15.5
t-62.5 -15.5q-5 0 -9 8q2 7 25 17q29 12 30 13q50 34 50 235q0 17 -1 16q-30 -2 -47 -11q-12 -9 -25 -18q25 -9 25 -25q0 -27 -30 -27q-13 0 -23 10t-10 23q0 50 110 74q1 26 1 39q0 165 -14 246q-6 39 -52 63q-42 22 -42 56q0 58 70 58q51 0 51 -29q0 -25 -32 -25
q-20 0 -20 24q0 6 2 11q-8 3 -15 3q-32 0 -32 -43q0 -39 83 -39q19 0 80 13q58 13 144 13q69 0 127 -48q62 -51 62 -118zM383 502v37q0 45 -27 79q-30 38 -79 34q-33 -3 -42 -32q-10 -32 -10 -145q0 -157 1 -152l39 12q51 20 84.5 66.5t33.5 100.5z" />
    <glyph glyph-name="S" unicode="S" horiz-adv-x="469" 
d="M445 208q0 -92 -52 -152q-54 -63 -144 -63q-23 0 -62.5 15t-54.5 15q-29 0 -48.5 -39.5t-22.5 -40.5l-10 5q26 89 26 142q0 65 -19 108q-15 -8 -19 -8q-11 0 -18.5 9.5t-7.5 20.5q0 27 29 27q24 0 46 -58q32 -82 51 -108q42 -58 114 -58q42 0 69 25t27 67q0 73 -78 127
l-144 92q-78 62 -78 154q0 87 52.5 143t138.5 56q16 0 50 -12t52 -12q12 0 23.5 13.5t20.5 13.5q6 0 7 -7q-35 -98 -35 -176q0 -34 11 -54q15 12 27 12q9 0 18.5 -7.5t9.5 -16.5q0 -13 -9.5 -23t-22.5 -9q-43 2 -58 69q-14 61 -27 122q-26 65 -94 65q-35 0 -59.5 -30
t-24.5 -66q0 -73 82 -127q76 -44 152 -89q82 -59 82 -145z" />
    <glyph glyph-name="T" unicode="T" horiz-adv-x="581" 
d="M258 669q41 0 61 2q9 1 40 7q25 5 41 5q120 0 120 -77q0 -26 -12.5 -76t-12.5 -76q0 -9 4 -15q16 14 28 14q26 0 26 -31q0 -8 -7 -18t-15 -10q-47 0 -60 56q-6 24 -6 92q0 116 -57 116q-10 0 -41 -7l-14 -13q-10 -9 -17 -124q-5 -88 -5 -140l1 -163q1 -142 21 -177
q11 -20 54 -23l27 18q13 -3 13 -15q0 -24 -38 -24q-22 0 -67 6t-67 6q-123 0 -124 -22l7 -16q0 -25 -27 -25q-26 0 -26 24q0 20 47 50t52 61q15 102 15 298q0 131 -10 221q-6 56 -62 56q-44 0 -55 -64q-3 -18 -3 -97q0 -38 -14 -66q-18 -35 -52 -35q-8 0 -15.5 10t-7.5 18
q0 31 27 31q11 0 28 -14q6 6 6 14q0 26 -14 76t-14 77q0 42 33 64q29 19 73 19q19 0 58 -6.5t61 -6.5z" />
    <glyph glyph-name="U" unicode="U" horiz-adv-x="583" 
d="M574 49q0 -27 -25 -27q-10 0 -18 5t-9 26q-15 -2 -68 -28q-26 -8 -98 -46q-15 -9 -17 -9q-16 0 -16 27l5 34l1 67q-3 1 -29 -37q-53 -77 -125 -77q-66 0 -112 69q-19 29 -19 118q0 79 43 212t43 198q0 93 -59 93q-21 0 -37 -14.5t-13 -35.5q3 0 8.5 2.5t10.5 2.5
q24 0 24 -22q0 -29 -27 -29h-5q-15 0 -24 16q-7 12 -7 24q0 32 19.5 52t50.5 20q62 0 92 -60q21 -42 21 -98l-27 -257q0 -66 8 -99q14 -51 54 -80q13 -10 29 -10q42 0 80 45q7 7 7 25v118l-2 246q-4 43 -4 62q0 11 1 11h1h-1q-1 1 -6 14q-8 26 -45.5 43t-39.5 38
q-4 45 46 45q21 0 21 -16q0 -12 -8 -23q-2 1 -8.5 -2t-10.5 -3q-9 0 -16 11q-5 -3 -5 -8q0 -10 20 -19q16 -7 26 -7q3 -2 26 -2q26 -1 40 2q73 14 113 28q17 7 31 7q13 0 22 -7q2 0 2 -12q-8 -2 -23 -2q-35 0 -58 -52q-19 -43 -19 -80l1 -354q0 -106 27 -130l21 -3
q33 21 59 16q28 -11 28 -28z" />
    <glyph glyph-name="V" unicode="V" horiz-adv-x="527" 
d="M500 662q0 -12 -9.5 -22t-21.5 -10q-24 0 -22 35l1 5l18 12q-3 6 -8 6q-22 0 -33 -21q-10 -17 -10 -40q0 -44 24.5 -135t24.5 -138q-2 -90 -51 -180q-3 -6 -52 -83q-43 -68 -43 -73t25.5 -15.5t26.5 -17.5l-8 -6q-71 29 -147 29q-39 0 -69 -9q-44 -14 -44 -43q0 -5 5 -7
q18 13 38 13q6 0 14 -9t8 -16q0 -21 -25 -21q-23 0 -41 12q-21 13 -21 34q-1 29 37 45t38 52q0 169 -61 494q-6 34 -27 64q-24 33 -54 41q-13 18 1 18q11 0 37.5 -6.5t38.5 -6.5q40 0 204 23q20 3 35 -8.5t15 -30.5q0 -11 -9.5 -19.5t-19.5 -8.5q-31 0 -31 22q0 15 27 23
l-9 3q-85 0 -85 -126q0 -65 28 -267q31 -221 52 -248q75 116 75 248q0 46 -19.5 135.5t-19.5 135.5q0 53 31 103q36 57 85 57q19 0 35 -13t16 -30z" />
    <glyph glyph-name="W" unicode="W" horiz-adv-x="743" 
d="M716 716q0 -38 -51.5 -74t-51.5 -73q0 -45 53 -157t53 -193q0 -52 -39 -137q-44 -96 -89 -96q-40 0 -110 42q-65 40 -95 75q-23 -35 -84 -75q-64 -42 -103 -42q-32 0 -83 57q-48 53 -59 89q-10 33 -10 65q0 59 45 168t45 168q0 36 -25 71q-28 40 -66 39l-11 -6
q0 -1 10 -13q6 -7 6 -14q0 -29 -26 -29q-27 0 -27 30q0 63 136 63q64 0 190 -26t190 -26q48 0 97 17q59 20 78 53q-21 10 -21 26q0 25 24 25t24 -27zM568 511q0 70 15 89q-12 0 -36.5 -3.5t-41.5 -3.5q-26 0 -58 6l-6 -30q-6 -179 -6 -252q0 -4 -1 -29.5t-1 -44.5
q0 -160 69 -168q55 -6 87 68q25 58 25 127q0 42 -23 121t-23 120zM103 650q88 -48 88 -157q0 -42 -12 -124t-12 -124q0 -62 27 -115q34 -64 88 -63q59 2 59 165q0 18 -1 42.5t-1 28.5q0 35 -7 254q-2 40 -8.5 51.5t-88.5 28.5q-85 17 -132 13z" />
    <glyph glyph-name="X" unicode="X" horiz-adv-x="563" 
d="M502 4q-22 0 -22 8q0 1 -2 8q-1 6 0 10q3 6 10 11q-28 5 -63 -23t-56 -28q-41 0 -72 47q-23 35 -41 100q-12 45 -24 91q-18 -29 -29 -80q46 -29 41 -45l-18 -66q-15 -50 -27 -56q-6 0 -8 13q0 8 -1 17q-5 18 -34 29q-23 8 -46 8q-20 0 -40 -9q-24 -11 -29 -27l14 3
q20 0 20 -19q0 -26 -29 -26q-28 0 -28 32q0 14 11 41q9 21 17 42q24 69 120 69q18 0 53 130l-12 47q-29 -2 -51 -2q-16 0 -35 11q-22 13 -22 28q0 14 11 14q4 0 15 -4q8 -21 43 -21q20 0 30 5q-36 144 -37 147q-29 90 -73 129q-4 4 -55 26q-36 15 -36 43q0 12 10.5 22
t23.5 10q21 0 21 -24q0 -19 -25 -26q11 -14 60 -14q16 0 32 3q25 5 33 6q88 12 125 -205q13 36 31 97q-4 6 -17 19l49 108q40 -38 81 -38q11 0 29 6q22 8 22 17q0 2 -9.5 9t-9.5 17q0 21 19 21q22 0 22 -27q0 -61 -32 -103q-35 -47 -93 -47q-6 0 -35 6q-7 -16 -44 -122
l19 -68q6 -1 22 4q20 5 67 5q17 0 31 -7q17 -10 17 -26q0 -21 -32 -21q-27 0 -32 22l-14 4q-14 4 -54 -6q22 -83 45 -167q38 -122 86 -123q7 0 19.5 3.5t19.5 3.5q51 0 51 -31t-33 -31z" />
    <glyph glyph-name="Y" unicode="Y" horiz-adv-x="555" 
d="M644 -153q-2 -23 -17.5 -38.5t-33.5 -12.5q-18 1 -25 19q1 25 23 23q12 1 22 -10q5 1 10 20q-6 15 -31 14q-62 -4 -190 -66q-105 -50 -181 -100q-7 0 -7 7q0 2 37.5 41.5t43.5 51.5q17 36 27 160q4 73 9 146q1 25 2 18q-81 -120 -145 -120q-56 0 -89 56q-27 46 -27 107
q0 59 19 190.5t19 191.5q0 127 -68 127q-18 0 -29.5 -16.5t-11.5 -34.5l2 -1q7 8 20 8q21 0 21 -24q0 -26 -25 -26q-15 0 -25.5 12.5t-10.5 28.5q0 29 20 50t48 21q94 0 125 -106q17 -57 17 -180q0 -25 -2 -89.5t-2 -88.5q0 -41 15 -81q20 -51 53 -51q36 0 76 69v63
q0 182 -5 252q-4 33 -9 99q-1 35 -27 60q-15 14 -47 29q-25 11 -25 17t8 8q61 -29 96 -29q164 0 177 60q-13 -9 -28 -9q-8 0 -15.5 7.5t-7.5 16.5q0 21 35 21q13 0 22.5 -10.5t9.5 -23.5q0 -21 -25 -45q-28 -28 -34 -45q-9 -26 -17 -196q-7 -143 -7 -200q0 -218 25 -353
l12 -17q22 -3 15 -5l97 20q9 1 16 1q39 0 45 -37z" />
    <glyph glyph-name="Z" unicode="Z" horiz-adv-x="475" 
d="M476 225q0 -31 -23 -31q-20 0 -20 24q0 19 11 25q-7 6 -14 6q-37 0 -48 -62q-3 -22 -3 -86q0 -11 5.5 -28t5.5 -27q3 -43 -49 -45h-146h-105q-20 0 -34.5 14.5t-12.5 38.5q1 23 46 127q30 68 59 136l-29 5l-26 16l13 12l32 -14h19q15 25 71.5 146.5t56.5 132.5
q0 33 -66 33q-31 0 -39 -3q-55 -15 -71 -85q-8 -35 -8 -119q0 -50 -2 -56q-8 -9 -16 -19q-5 -2 -24 -2q-13 0 -26.5 13.5t-13.5 25.5q0 11 8 20t18 9q22 0 22 -32q0 -11 -1 -17q14 6 14 36q0 27 -9.5 80.5t-9.5 80.5q0 103 106 103q47 0 97 -10q69 8 109 8q21 0 34 -15
t13 -36q0 -25 -62.5 -140t-64.5 -137l-4 -5q54 16 79 14q9 -1 23 -11t14 -19q0 -25 -39 -25q-32 0 -31 26l-3 2q-9 -1 -48 -7l-6 -9q-29 -64 -58 -129q-42 -95 -42 -123q0 -41 60 -41q48 0 71 61q18 58 37 115q29 62 90 62q10 -4 16.5 -3t15 -13.5t8.5 -22.5z" />
    <glyph glyph-name="bracketleft" unicode="[" horiz-adv-x="186" 
d="M1 711l-1 -801q30 0 59 1q35 -1 59 -20q0 3 -1 31l-66 29v719l65 25v29q-19 -15 -43 -15q-7 0 -23 1.5t-26 1.5q-12 0 -23 -1z" />
    <glyph glyph-name="backslash" unicode="\" horiz-adv-x="357" 
d="M319 -54l28 20l-326 754l-29 -20z" />
    <glyph glyph-name="bracketright" unicode="]" horiz-adv-x="187" 
d="M121 -95l1 800h-59q-34 1 -59 19q0 -3 1 -30l66 -29v-719l-65 -26v-29q19 16 43 16q7 0 23 -2t26 -2q12 0 23 2z" />
    <glyph glyph-name="asciicircum" unicode="^" horiz-adv-x="287" 
d="M131 754q-25 -17 -99 -49l-11 11l107 93l2 -1l1 1l2 -3l107 -87l-13 -14q-28 9 -58 27.5t-38 21.5z" />
    <glyph glyph-name="underscore" unicode="_" horiz-adv-x="377" 
d="M-1 -50h378v-30h-378v30z" />
    <glyph glyph-name="grave" unicode="`" horiz-adv-x="306" 
d="M92 529q-28 -42 -26 -44q1 -2 44 -21q52 -23 101 -39l7 15z" />
    <glyph glyph-name="a" unicode="a" horiz-adv-x="306" 
d="M312 65q-10 -15 -33 -36q-19 -17 -37 -33q-30 0 -69 59q-60 -61 -75 -61q-16 0 -96 123l69 62q-46 76 -46 122q0 43 33 74.5t77 31.5q85 0 109 -80q10 -35 10 -149q0 -59 3 -69q9 -37 50 -38zM168 278q0 96 -65 96q-26 0 -40.5 -21t-14.5 -48q0 -25 21 -68q12 -21 23 -41
q36 30 74 67q2 5 2 15zM172 88v139q-87 -76 -87 -78q0 -7 29 -45.5t33 -38.5q6 0 25 23z" />
    <glyph glyph-name="b" unicode="b" horiz-adv-x="333" 
d="M120 330q1 -1 32 32.5t45 33.5q42 0 76 -64q29 -56 29 -102q0 -137 -153 -241q-72 40 -97 88q-20 38 -20 105q0 14 1 42q0 32 1 48q1 170 0 271q1 13 1 27q0 60 -30 69q5 7 31.5 30.5t34.5 26.5q49 -29 49 -150v-216zM228 146q0 120 -70 183q-35 -22 -41 -42
q-4 -10 -3 -64l1 -48q2 -64 38 -92q25 -21 38 -21q15 0 27 36q10 29 10 48z" />
    <glyph glyph-name="c" unicode="c" horiz-adv-x="281" 
d="M241 1q-29 2 -41 0l-25 -2q-15 -2 -29 -2q-71 0 -102 45q-28 42 -28 130q0 51 26 127q32 93 72 93h83q15 0 47 2l-18 -94q-49 2 -69 2h-75q-20 -7 -20 -49q0 -84 16.5 -116t59.5 -37q13 -2 111 -2q8 0 21 2z" />
    <glyph glyph-name="d" unicode="d" horiz-adv-x="336" 
d="M309 223q0 -46 -60 -142t-98 -100q-45 13 -89 86q-42 70 -42 119q0 57 34 114q36 62 88 76l6 -6q-4 -10 -35 -59q-18 -30 -18 -74q0 -48 28 -97q29 -52 70 -71q40 39 40 126q0 74 -58 161q-17 26 -107 137q-58 70 -58 103q0 15 63 91q2 -19 2 -26q0 -38 68 -123
q48 -60 96 -119q39 -62 52 -93q18 -45 18 -103z" />
    <glyph glyph-name="e" unicode="e" horiz-adv-x="306" 
d="M279 107q-90 -117 -123 -117q-130 0 -130 171q0 98 1 105q3 25 20 38l20 10q53 43 117 89q29 -13 49.5 -47t20.5 -67q0 -52 -144 -142q-11 -81 84 -96l77 63zM175 249q0 41 -26 74q-11 14 -14 14q-2 0 -4 -1q-17 -12 -21 -22q-2 -6 -2 -30q0 -106 -1 -105q21 15 42 31
q26 20 26 39z" />
    <glyph glyph-name="f" unicode="f" horiz-adv-x="277" 
d="M247 359h-110q-4 -102 -22 -406q-3 -110 -11 -240q-3 -9 -8 -9l-7 6q-24 232 -36 649h-57l3 6q0 7 11 25l43 1l-1 63q0 65 3 100q10 13 69 70q63 63 75 63q28 0 82 -80q-51 -49 -55 -49t-29 29t-37 30q-1 -3 -13.5 -10.5t-12.5 -9.5q0 -60 1 -207h133q3 0 -21 -31z" />
    <glyph glyph-name="g" unicode="g" horiz-adv-x="355" 
d="M332 -24q0 -70 -64 -144t-135 -74q-47 0 -73 27q-16 16 -31 53l64 50q38 -74 95 -74q36 0 60 37q20 32 20 71q0 31 -18 54q-1 8 -13.5 44.5t-17.5 43.5h-2l-96 -69q-46 0 -75 68q-24 56 -24 109q0 74 41 142q47 78 114 78q13 0 148 1q-19 -41 -47 -87l-21 1l-4 -18
q0 -52 39.5 -155t39.5 -158zM231 308l-127 1q-28 1 -28 -60q0 -123 87 -180h6q8 -1 25.5 11.5t17.5 19.5l-9 68q1 11 0 29q9 53 28 111z" />
    <glyph glyph-name="h" unicode="h" horiz-adv-x="333" 
d="M117 327q-1 0 1 0q26 20 96 73q45 -18 65 -86q3 -9 11 -61q0 -27 -3 -58.5t-3 -43.5q0 -23 5 -51q5 -22 18 -39q6 -8 25 -28l-61 -52q-19 23 -37 45q-34 49 -34 90q0 14 3.5 55t3.5 62q0 37 -8 56q-13 31 -32 43q-18 -10 -52 -37v-294h-79q-2 97 0 559q0 68 -26 89
q4 7 28 25.5t33 21.5q46 -27 46 -133v-236z" />
    <glyph glyph-name="i" unicode="i" horiz-adv-x="176" 
d="M53 53q0 -28 16 -52h84q-7 13 -23 80q0 204 0 199q-3 99 -48 126q-8 -3 -32.5 -26t-29.5 -31q38 -11 32 -79zM165 549q5 0 6 2q0 3 -5 3q-45 0 -65 44q-9 19 -17 64q-17 -108 -87 -108q-3 0 -5 -1t-1 -2q2 -1 5 -2q46 -5 67 -42q10 -18 19 -68q11 55 17 68q19 36 66 42z
" />
    <glyph glyph-name="j" unicode="j" horiz-adv-x="186" 
d="M55 69q0 -136 -17 -192q-29 -91 -124 -130q6 -16 11 -15q119 45 169 129q39 65 39 164v256q-3 100 -42 123q-8 -4 -37.5 -27t-33.5 -30q38 -11 35 -81v-197zM165 549q5 0 6 2q0 3 -5 3q-45 0 -65 44q-9 19 -17 64q-17 -108 -87 -108q-3 0 -5 -1t-1 -2q2 -1 5 -2
q54 -5 71 -42q4 -7 15 -68q4 23 8 47.5t20.5 41t54.5 21.5z" />
    <glyph glyph-name="k" unicode="k" horiz-adv-x="321" 
d="M200 265q0 22 -41 63q-8 -3 -44 -31l-2 -124q31 18 70 46q17 18 17 46zM116 330q18 8 54 36q33 25 56 35q15 -21 30 -41q17 -25 17 -47q0 -45 -62 -104q44 -29 58 -69q4 -11 11 -70q5 -42 27 -67q-1 -3 -34.5 -21.5t-36.5 -18.5q-14 0 -22 49q-13 80 -17 94
q-16 52 -49 59l-34 -21v-143h-77v559q6 68 -32 79q5 7 31.5 30.5t34.5 26.5q45 -27 45 -151q0 -218 0 -215z" />
    <glyph glyph-name="l" unicode="l" horiz-adv-x="172" 
d="M117 93q0 -26 4 -38l22 -54h-81q-23 39 -23 87v469q6 67 -32 78q5 7 34 30.5t37 26.5q29 -17 37 -64q3 -19 3 -71z" />
    <glyph glyph-name="m" unicode="m" horiz-adv-x="554" 
d="M549 41q-22 -27 -49 -55q-34 8 -55.5 38t-25.5 66q-2 36 1 101q1 16 1 31q0 99 -53 99q-23 0 -52 -44l-1 -277h-82v280q-8 40 -57 50q-34 -10 -46.5 -24t-12.5 -43v-262l-81 -1l1 254q0 53 -2 58q-2 13 -25 39q2 8 28 31t33 21q21 -4 47 -76l2 2q40 35 95 74
q61 -19 104 -79l98 76q50 -27 70 -67q17 -36 17 -98l-1 -108q-1 -49 20 -67q13 -10 26 -19z" />
    <glyph glyph-name="n" unicode="n" horiz-adv-x="332" 
d="M216 401q30 1 54 -38t24 -78q-3 -137 0 -173q3 -52 47 -83l-66 -47q-24 11 -43 43q-22 38 -22 84v117q2 111 -46 110q-6 0 -25 -11t-19 -16q-1 -94 0 -308h-81v253q1 56 -5 71q-11 15 -21 30q1 8 24 28t31 18q28 -6 49 -66l50 40q36 26 49 26z" />
    <glyph glyph-name="o" unicode="o" horiz-adv-x="335" 
d="M150 -14q-55 0 -97 63q-39 59 -35 120q4 64 42 124q16 26 47 67q40 52 50 52q4 0 30 -18q22 -16 30 -23q91 -84 91 -170q0 -52 -53 -131q-56 -84 -105 -84zM246 135q0 61 -35 112q-26 38 -83 84q-10 0 -26 -47q-14 -43 -14 -58q0 -48 33 -107q38 -67 82 -67q19 0 32 33
q11 27 11 50z" />
    <glyph glyph-name="p" unicode="p" horiz-adv-x="374" 
d="M342 236q0 -62 -60 -152q-64 -96 -122 -100q-12 -209 -26 -337q-6 -1 -18 5q-5 97 -18 170q-10 53 -11 171q-38 18 -78 31l35 69l38 -17l-1 23q1 35 0 128q2 41 -16 70q-12 18 -36 35q-20 13 -20 17q0 9 28 30t37 20q26 -6 50 -42l24 -36q15 16 49 45q41 34 50 34
q32 0 65 -66q30 -60 30 -98zM277 166q0 31 -27 93q-29 69 -53 69q-8 0 -23 -15.5t-15 -24.5q2 -30 -1 -116q-3 -80 1 -118h43q37 0 58 39q17 32 17 73z" />
    <glyph glyph-name="q" unicode="q" horiz-adv-x="341" 
d="M292 290q-1 -137 -6 -176q-7 -59 -12 -175q-1 -18 -8 -135q-9 -125 -10 -125q-21 0 -21 10q0 125 -12 188q-13 71 -16 188l-3 2q-4 -1 -41 -36.5t-57 -35.5q-33 0 -64 73q-26 64 -26 106q0 97 63 160q11 11 53.5 42t49.5 31q14 0 62 -52t48 -65zM209 255q0 13 -31.5 52
t-41.5 39q-20 0 -34 -50q-12 -40 -12 -67q0 -41 17 -96q22 -68 53 -68q16 0 32.5 22t16.5 39v129z" />
    <glyph glyph-name="r" unicode="r" horiz-adv-x="269" 
d="M37 76q3 -29 29.5 -57.5t51.5 -28.5q5 0 37 29t32 36q0 9 -10 9q-2 0 -7.5 -3t-6.5 -3q-44 2 -44 90q0 11 1 23t1 11v118q0 3 4.5 9.5t9.5 6.5q2 0 18.5 -14t32.5 -14q13 0 43.5 22t30.5 39t-8 17q-2 0 -9 -5t-8 -5q-6 0 -21.5 18.5t-18.5 18.5q-4 0 -36 -29.5t-39 -31.5
q-24 68 -60 68q-8 0 -33.5 -22t-27.5 -30q17 -19 34 -39q4 -7 4 -55v-178z" />
    <glyph glyph-name="s" unicode="s" horiz-adv-x="324" 
d="M299 152q0 -44 -23 -71q-9 -12 -67.5 -52.5t-67.5 -40.5q-3 0 -26 19t-51 19q-21 0 -22 -1q-8 -2 -8 -15.5t-9 -21.5q-6 0 -6 31t33 49q28 15 63 15q30 0 56 -19t23 -19q27 0 27 61q0 20 -17.5 50.5t-35.5 30.5q-7 0 -41 -23t-47 -23q-31 0 -48 31q-14 26 -14 59
q0 49 47 87q44 30 87 60q14 13 34 28q2 1 21 -31q21 -36 47 -36q3 0 14.5 8t14.5 8q2 0 0 -9l-3 -11q0 -16 -24.5 -30.5t-42.5 -14.5q-51 0 -81 50q-39 -7 -39 -63q0 -18 17 -45t33 -27q11 0 42 24t49 24q32 0 50 -36q15 -30 15 -65z" />
    <glyph glyph-name="t" unicode="t" horiz-adv-x="241" 
d="M229 389v-35h-98v-217q0 -33 16.5 -60t43.5 -27l35 31q9 -7 9 -13q0 -16 -36 -46t-57 -29q-43 2 -71 48q-23 41 -23 88l-1 229l-42 -1v33h46v72l79 61l1 -134h98z" />
    <glyph glyph-name="u" unicode="u" horiz-adv-x="346" 
d="M331 41q0 -10 -54 -52q-34 13 -46 39q-8 24 -17 48l-94 -87q-12 4 -21.5 13t-16.5 17q-38 28 -43 97v136q0 50 -2 58q-3 15 -30 41q1 7 30 27q18 12 37 23q44 -14 45 -105q5 -124 2 -156q-7 -73 37 -73q11 0 29.5 14.5t23.5 25.5q0 87 1 280h78v-262q0 -32 11 -52
q7 -12 18.5 -20.5t11.5 -11.5z" />
    <glyph glyph-name="v" unicode="v" horiz-adv-x="370" 
d="M330 288q-1 -57 -62 -174q-64 -120 -100 -120q-14 0 -34 44q-12 30 -23 59q-14 32 -58 194q-11 13 -21 25q-10 9 -32 10q24 28 62 67q37 0 66 -79l42 -148q22 -79 44 -80q45 47 45 130q0 36 -11 71q-15 48 -44 54q-25 -22 -44 -26l-8 11q89 77 102 77q24 0 50 -41t26 -74
z" />
    <glyph glyph-name="w" unicode="w" horiz-adv-x="520" 
d="M490 262q0 -34 -12 -64q-25 -59 -61 -114q-53 -82 -91 -82q-27 0 -102 70q-7 -2 -47 -37t-46 -35q-26 0 -61 36.5t-35 63.5q0 7 -1 74q-1 74 -1 111q-5 40 -12 52q-4 9 -21 21q3 11 73 41q-3 2 -4 3v1q6 0 27 -30q25 -35 24 -70v-193q41 -39 54 -39q37 0 46 64
q-2 59 0 148l-10 30q-13 30 -36 39q58 49 70 49q31 0 58 -75q93 75 115 75q21 0 49 -59q24 -54 24 -80zM417 192q0 31 -4 38q-1 12 -25 60t-31 48t-31.5 -16t-26.5 -22q1 3 1 -46q0 -14 -1 -38t-1 -34q0 -42 13 -65q17 -30 62 -47q44 58 44 122z" />
    <glyph glyph-name="x" unicode="x" horiz-adv-x="361" 
d="M332 387q-10 -33 -26 -70h-75l-39 -77l15 -32h78l-12 -27l-60 1q43 -111 78 -111q9 0 25 10t19 10q6 0 6 -9q0 -4 -23.5 -44t-28.5 -42.5t-21 -2.5h-3q-32 0 -63 35q-28 31 -42 75q-4 -7 -21.5 -51t-18.5 -51h-113l26 78q-13 1 89 4q6 2 16 25t10 30q0 16 -15 44l-80 -1
l11 25l64 -1l-45 95q-18 20 -31 29q-7 4 -39 17l55 64q34 -8 72 -54q18 -36 41 -87q11 8 52 118h99z" />
    <glyph glyph-name="y" unicode="y" horiz-adv-x="384" 
d="M352 330q0 -47 -24 -100q-16 -36 -58 -104l-100 -130q-78 -106 -75 -148q5 -68 51 -95q37 -22 113 -22q31 0 52 23.5t24 23.5q7 0 7 -9q0 -11 -28.5 -59.5t-36.5 -53.5q-14 -11 -46 -11q-80 0 -127.5 42t-47.5 111q0 68 28 125q17 36 52 78q28 34 28 43q0 18 -100 256
q-5 20 -23.5 35.5t-37.5 10.5q0 9 44 36q17 11 46 25q38 -5 55 -66q71 74 123 74q34 0 57.5 -26t23.5 -59zM273 277q0 19 -12 46q-16 37 -43 41q-17 2 -37.5 -16t-20.5 -31q0 -9 34 -88q37 -85 41 -100q17 25 28 74q10 43 10 74z" />
    <glyph glyph-name="z" unicode="z" horiz-adv-x="283" 
d="M249 27q0 -80 -44 -132q-41 -37 -83 -74q-45 -42 -47 -100q-1 -33 14 -47q11 -12 40 -16q15 -2 24 4t19 10q7 7 10 34q-23 11 -23 31q0 8 11 14q8 6 14 6q26 0 26 -40q0 -38 -24 -65t-62 -23q-73 6 -73 92q0 52 28 90q1 2 52 56q28 29 28 59q0 9 -2 19v34q0 34 -21 61
t-55 27q-19 0 -32 -11t-16 -11q-8 0 -8 8q0 4 141 238l-125 1q-22 -28 -24 -28q-6 0 -8 9q0 6 44 110h198q-34 -53 -142 -237q6 -5 9 -5q1 0 9 2.5t10 2.5q46 0 79 -36t33 -83z" />
    <glyph glyph-name="braceleft" unicode="{" horiz-adv-x="334" 
d="M183 691q-47 -136 -47 -369q0 -239 47 -381q29 2 59 -14q38 -21 57 -63q0 2 1 46l-67 78q-25 161 -25 373q0 186 25 289l67 68l-2 36q-15 -28 -47 -42q-11 -5 -68 -21zM107 311q0 35 -15 59t-37 24t-37 -24t-15 -59q0 -34 15 -58.5t37 -24.5t37 24.5t15 58.5z" />
    <glyph glyph-name="bar" unicode="|" horiz-adv-x="228" 
d="M157 311q0 35 -15 59t-37 24t-37 -24t-15 -59q0 -34 15 -58.5t37 -24.5t37 24.5t15 58.5z" />
    <glyph glyph-name="braceright" unicode="}" horiz-adv-x="368" 
d="M119 691q47 -136 47 -369q0 -239 -46 -381q-30 2 -59 -14q-38 -21 -58 -63v46l66 78q25 161 25 373q0 186 -25 289l-66 68l1 36q16 -28 48 -42q11 -5 67 -21zM195 311q0 35 15.5 59t36.5 24q22 0 37.5 -24t15.5 -59q0 -34 -15.5 -58.5t-37.5 -24.5q-21 0 -36.5 24.5
t-15.5 58.5z" />
    <glyph glyph-name="asciitilde" unicode="~" horiz-adv-x="402" 
d="M335 790q-31 -66 -81 -66q-21 0 -60 16.5t-60 16.5q-34 0 -57 -29q-3 5 -8.5 5.5t-7.5 2.5q29 69 96 69q20 0 54.5 -15.5t52.5 -15.5q28 0 59 26z" />
    <glyph glyph-name="Adieresis" unicode="&#xc4;" horiz-adv-x="565" 
d="M545 -12l-6 -6q-80 34 -171 34q-92 0 -108 -25l1 -2q9 -3 27 -11q-2 -10 -9 -32l-4 1l-18 -6q-29 6 -29 28q0 28 45 54t50 50q7 40 10 104q4 89 5 103q-1 4 0 41q-36 -5 -109 -21q-2 0 0 -10l3 -13q0 -71 -12 -117q-10 -41 -43 -109q-9 -19 -34 -45q-18 -19 -43 -38
t-47 -19q-26 0 -43.5 17t-17.5 41q0 51 74 109q6 0 8 -4q0 -1 -10.5 -24.5t-10.5 -38.5q0 -18 13.5 -33.5t32.5 -15.5q11 0 28 23q31 41 31 128q0 25 -9 81q-12 67 -23 68q-83 9 -83 51q0 30 27 30q20 0 20 -21q0 -8 -11 -24q7 -13 23 -13h21q-8 26 -4 92q9 157 110 218
l-16 5q-46 6 -78 24q-43 25 -43 63q0 17 11.5 29t28.5 12q30 0 30 -27q-7 -19 -22 -19q-16 0 -27 16h-1l-4 -12q0 -39 81 -56q61 -12 112 -8q39 5 120 10q19 1 58 14t56 13l8 -5l-38.5 -26.5t-45.5 -51.5q-16 -54 -16 -170v-111q0 -223 19 -273q8 -23 47 -46q36 -21 36 -26z
M340 383q0 211 -24 248l-11 3q-103 0 -103 -145q0 -19 5 -72q7 -71 16 -90q54 8 114 24q3 5 3 32zM198 783q0 17 12 29.5t29 12.5t29 -12.5t12 -29.5q0 -18 -12 -30.5t-29 -12.5t-29 12.5t-12 30.5zM335 783q0 17 12 29.5t29 12.5t29 -12.5t12 -29.5q0 -18 -12 -30.5
t-29 -12.5t-29 12.5t-12 30.5z" />
    <glyph glyph-name="Aring" unicode="&#xc5;" horiz-adv-x="565" 
d="M545 -12l-6 -6q-80 34 -171 34q-92 0 -108 -25l1 -2q9 -3 27 -11q-2 -10 -9 -32l-4 1l-18 -6q-29 6 -29 28q0 28 45 54t50 50q7 40 10 104q4 89 5 103q-1 4 0 41q-36 -5 -109 -21q-2 0 0 -10l3 -13q0 -71 -12 -117q-10 -41 -43 -109q-9 -19 -34 -45q-18 -19 -43 -38
t-47 -19q-26 0 -43.5 17t-17.5 41q0 51 74 109q6 0 8 -4q0 -1 -10.5 -24.5t-10.5 -38.5q0 -18 13.5 -33.5t32.5 -15.5q11 0 28 23q31 41 31 128q0 25 -9 81q-12 67 -23 68q-83 9 -83 51q0 30 27 30q20 0 20 -21q0 -8 -11 -24q7 -13 23 -13h21q-8 26 -4 92q9 157 110 218
l-16 5q-46 6 -78 24q-43 25 -43 63q0 17 11.5 29t28.5 12q30 0 30 -27q-7 -19 -22 -19q-16 0 -27 16h-1l-4 -12q0 -39 81 -56q61 -12 112 -8q39 5 120 10q19 1 58 14t56 13l8 -5l-38.5 -26.5t-45.5 -51.5q-16 -54 -16 -170v-111q0 -223 19 -273q8 -23 47 -46q36 -21 36 -26z
M340 383q0 211 -24 248l-11 3q-103 0 -103 -145q0 -19 5 -72q7 -71 16 -90q54 8 114 24q3 5 3 32zM314 840q27 0 46 -18.5t19 -45.5t-19 -45.5t-46 -18.5q-28 0 -47 18.5t-19 45.5t19 45.5t47 18.5zM314 814q-17 0 -28.5 -11t-11.5 -27t11.5 -27t28.5 -11q16 0 27.5 11
t11.5 27t-11.5 27t-27.5 11z" />
    <glyph glyph-name="Ccedilla" unicode="&#xc7;" horiz-adv-x="492" 
d="M263 -58q48 3 39 4q61 -11 61 -60q0 -31 -28 -57t-69 -26q-31 0 -63 16l11 23q17 -10 32 -10q20 0 34 17q12 14 12 33q0 34 -33 34q-5 0 -11 -1l-28 -15q16 29 43 83q-110 20 -185 122q-72 98 -72 212q0 106 89 230q86 119 188 164q3 -4 10 -17q22 -23 52 -47
q42 -33 58 -28l47 16l7 -8q-7 -23 -60 -87q-45 -55 -45 -95l5 -14q13 22 30 22q18 0 18 -18q0 -16 -10 -28t-25 -12q-11 0 -33 18q-11 27 -11 51t11 45q-47 36 -141 111q-36 -8 -71 -96q-31 -78 -31 -124q0 -125 77.5 -208t202.5 -83l14 4q21 29 58 87l20 -17
q-56 -96 -117 -195q-11 -8 -42 -8h-22q-9 -13 -19 -31z" />
    <glyph glyph-name="Eacute" unicode="&#xc9;" horiz-adv-x="543" 
d="M520 523q0 -25 -18 -39t-43 -14q-54 0 -69 48q-7 22 -7 86q0 60 -59 60t-75 -130q-6 -45 -6 -171h34q31 0 33 1q20 3 42 22q7 13 7 24q0 18 -22 40l23 2q15 0 27.5 -14.5t12.5 -28.5q0 -44 -15 -56q15 -10 17 -25q1 0 1 -27q0 -21 -18.5 -34t-39.5 -13l-16 1q20 10 23 47
q-7 33 -50 33q-7 0 -15.5 -1t-10.5 -1h-33q0 -13 -1 -47q-1 -39 -1 -60q0 -208 88 -208q59 0 86 44q23 37 18 93q-1 12 -1 22q0 66 46 66q13 0 23.5 -11t10.5 -24q0 -6 -8 -14t-15 -8l-14 3l-14 14q0 -2 -4 -8.5t-4 -10.5q0 -25 20.5 -72t20.5 -71q0 -30 -34 -48
q-30 -17 -57 -13l-158 22q-82 10 -143 10q-95 0 -96 -48q0 -11 16 -19t28 -8l3 2q6 22 32 24q8 0 15.5 -7t7.5 -14q0 -13 -21 -21q-17 -5 -32 -4q-39 2 -65 36l-4 17q0 34 49 56q57 26 69 50q24 48 24 231v100q0 130 -23 197q-10 29 -57 49q-41 17 -41 53q0 22 20 37t41 16
q52 4 52 -31q0 -17 -24 -17q-23 0 -27 25q-39 2 -39 -30q0 -42 81 -39q36 2 127 14q80 10 127 10q50 0 70 -24q15 -19 15 -59q0 -13 -2 -42.5t-2 -44.5q0 -33 15 -33l18 10q-6 9 -6 24q0 37 25 37q8 0 15 -13t7 -23zM350 835q12 -18 19.5 -35.5t5.5 -18.5q-64 -11 -203 -48
l-7 16z" />
    <glyph glyph-name="Ntilde" unicode="&#xd1;" horiz-adv-x="603" 
d="M584 89q0 -45 -26 -80q-28 -39 -71 -39q-61 0 -93 57q-26 46 -26 113q0 43 18 129.5t18 131.5q0 74 -25 138q-33 85 -96 85q-25 0 -34 -18q-10 -22 -17 -310q-3 -99 8 -184q9 -70 13 -81q15 -44 61 -45q4 10 8.5 20t21.5 10q26 1 26 -23q0 -28 -42 -28q-32 0 -93 21.5
t-95 21.5q-55 0 -116 -23q-2 -1 -2 11q0 10 48 30q39 15 49 165q1 19 3 178q1 118 -15 176q-7 24 -56 55q-43 27 -43 61q0 13 11.5 23t24.5 10q29 0 29 -23q0 -20 -19.5 -24.5t-19.5 -3.5q0 -12 30 -19q21 -4 41 -4q64 0 176.5 40.5t118.5 40.5q9 0 23 -12q10 -9 20 -19
q75 -62 75 -173q0 -87 -52.5 -216.5t-52.5 -199.5q0 -91 79 -91q27 0 50 25t23 53q0 14 -18 19.5t-18 27.5q0 28 23 28q14 0 24 -21q8 -17 8 -33zM395 800q-31 -66 -81 -66q-21 0 -60 16.5t-60 16.5q-34 0 -57 -29q-3 5 -8.5 5.5t-7.5 2.5q29 69 96 69q20 0 54.5 -15.5
t52.5 -15.5q28 0 59 26z" />
    <glyph glyph-name="Odieresis" unicode="&#xd6;" horiz-adv-x="504" 
d="M461 313q0 -152 -168 -307q-41 -38 -52 -38q-24 0 -84 48q-53 44 -73 71q-80 110 -80 199q0 106 34 168q26 48 87 113q66 71 95 75q4 1 6 -3q2 -5 0 -7q-28 -33 -56 -90q-47 -92 -54 -185q-8 -95 52 -183.5t135 -93.5q29 -2 57 46q26 43 26 75q0 45 -40 113
q-38 60 -75 121q-40 73 -40 133q0 49 26 95q30 54 75 54q18 0 32 -10.5t14 -28.5q0 -27 -25 -27q-22 0 -22 22q0 2 6 21l-7 3q-17 0 -27 -21q-7 -16 -7 -36q0 -40 42 -95l80 -100q43 -66 43 -132zM138 783q0 17 12 29.5t29 12.5t29 -12.5t12 -29.5q0 -18 -12 -30.5
t-29 -12.5t-29 12.5t-12 30.5zM275 783q0 17 12 29.5t29 12.5t29 -12.5t12 -29.5q0 -18 -12 -30.5t-29 -12.5t-29 12.5t-12 30.5z" />
    <glyph glyph-name="Udieresis" unicode="&#xdc;" horiz-adv-x="583" 
d="M574 49q0 -27 -25 -27q-10 0 -18 5t-9 26q-15 -2 -68 -28q-26 -8 -98 -46q-15 -9 -17 -9q-16 0 -16 27l5 34l1 67q-3 1 -29 -37q-53 -77 -125 -77q-66 0 -112 69q-19 29 -19 118q0 79 43 212t43 198q0 93 -59 93q-21 0 -37 -14.5t-13 -35.5q3 0 8.5 2.5t10.5 2.5
q24 0 24 -22q0 -29 -27 -29h-5q-15 0 -24 16q-7 12 -7 24q0 32 19.5 52t50.5 20q62 0 92 -60q21 -42 21 -98l-27 -257q0 -66 8 -99q14 -51 54 -80q13 -10 29 -10q42 0 80 45q7 7 7 25v118l-2 246q-4 43 -4 62q0 11 1 11h1h-1q-1 1 -6 14q-8 26 -45.5 43t-39.5 38
q-4 45 46 45q21 0 21 -16q0 -12 -8 -23q-2 1 -8.5 -2t-10.5 -3q-9 0 -16 11q-5 -3 -5 -8q0 -10 20 -19q16 -7 26 -7q3 -2 26 -2q26 -1 40 2q73 14 113 28q17 7 31 7q13 0 22 -7q2 0 2 -12q-8 -2 -23 -2q-35 0 -58 -52q-19 -43 -19 -80l1 -354q0 -106 27 -130l21 -3
q33 21 59 16q28 -11 28 -28zM158 783q0 17 12 29.5t29 12.5t29 -12.5t12 -29.5q0 -18 -12 -30.5t-29 -12.5t-29 12.5t-12 30.5zM295 783q0 17 12 29.5t29 12.5t29 -12.5t12 -29.5q0 -18 -12 -30.5t-29 -12.5t-29 12.5t-12 30.5z" />
    <glyph glyph-name="aacute" unicode="&#xe1;" horiz-adv-x="306" 
d="M312 65q-10 -15 -33 -36q-19 -17 -37 -33q-30 0 -69 59q-60 -61 -75 -61q-16 0 -96 123l69 62q-46 76 -46 122q0 43 33 74.5t77 31.5q85 0 109 -80q10 -35 10 -149q0 -59 3 -69q9 -37 50 -38zM168 278q0 96 -65 96q-26 0 -40.5 -21t-14.5 -48q0 -25 21 -68q12 -21 23 -41
q36 30 74 67q2 5 2 15zM172 88v139q-87 -76 -87 -78q0 -7 29 -45.5t33 -38.5q6 0 25 23zM191 529q27 -42 26 -44q-2 -2 -45 -21q-52 -23 -100 -39l-8 15z" />
    <glyph glyph-name="agrave" unicode="&#xe0;" horiz-adv-x="306" 
d="M312 65q-10 -15 -33 -36q-19 -17 -37 -33q-30 0 -69 59q-60 -61 -75 -61q-16 0 -96 123l69 62q-46 76 -46 122q0 43 33 74.5t77 31.5q85 0 109 -80q10 -35 10 -149q0 -59 3 -69q9 -37 50 -38zM168 278q0 96 -65 96q-26 0 -40.5 -21t-14.5 -48q0 -25 21 -68q12 -21 23 -41
q36 30 74 67q2 5 2 15zM172 88v139q-87 -76 -87 -78q0 -7 29 -45.5t33 -38.5q6 0 25 23zM92 529q-28 -42 -26 -44q1 -2 44 -21q52 -23 101 -39l7 15z" />
    <glyph glyph-name="acircumflex" unicode="&#xe2;" horiz-adv-x="306" 
d="M312 65q-10 -15 -33 -36q-19 -17 -37 -33q-30 0 -69 59q-60 -61 -75 -61q-16 0 -96 123l69 62q-46 76 -46 122q0 43 33 74.5t77 31.5q85 0 109 -80q10 -35 10 -149q0 -59 3 -69q9 -37 50 -38zM168 278q0 96 -65 96q-26 0 -40.5 -21t-14.5 -48q0 -25 21 -68q12 -21 23 -41
q36 30 74 67q2 5 2 15zM172 88v139q-87 -76 -87 -78q0 -7 29 -45.5t33 -38.5q6 0 25 23zM141 484q-27 -14 -103 -44l-6 14l104 82l2 3l2 -1l1 1l2 -3l104 -82l-5 -17q-29 9 -61 26.5t-40 20.5z" />
    <glyph glyph-name="adieresis" unicode="&#xe4;" horiz-adv-x="306" 
d="M312 65q-10 -15 -33 -36q-19 -17 -37 -33q-30 0 -69 59q-60 -61 -75 -61q-16 0 -96 123l69 62q-46 76 -46 122q0 43 33 74.5t77 31.5q85 0 109 -80q10 -35 10 -149q0 -59 3 -69q9 -37 50 -38zM168 278q0 96 -65 96q-26 0 -40.5 -21t-14.5 -48q0 -25 21 -68q12 -21 23 -41
q36 30 74 67q2 5 2 15zM172 88v139q-87 -76 -87 -78q0 -7 29 -45.5t33 -38.5q6 0 25 23zM42 483q0 15 10.5 25.5t25.5 10.5t25.5 -10.5t10.5 -25.5q0 -16 -10.5 -26.5t-25.5 -10.5t-25.5 10.5t-10.5 26.5zM161 483q0 15 10.5 25.5t25.5 10.5t25.5 -10.5t10.5 -25.5
q0 -16 -10.5 -26.5t-25.5 -10.5t-25.5 10.5t-10.5 26.5z" />
    <glyph glyph-name="atilde" unicode="&#xe3;" horiz-adv-x="306" 
d="M312 65q-10 -15 -33 -36q-19 -17 -37 -33q-30 0 -69 59q-60 -61 -75 -61q-16 0 -96 123l69 62q-46 76 -46 122q0 43 33 74.5t77 31.5q85 0 109 -80q10 -35 10 -149q0 -59 3 -69q9 -37 50 -38zM168 278q0 96 -65 96q-26 0 -40.5 -21t-14.5 -48q0 -25 21 -68q12 -21 23 -41
q36 30 74 67q2 5 2 15zM172 88v139q-87 -76 -87 -78q0 -7 29 -45.5t33 -38.5q6 0 25 23zM245 503q-27 -56 -69 -56q-18 0 -51.5 14t-51.5 14q-28 0 -48 -24q-4 1 -14 6q25 59 82 59q17 0 46.5 -13t44.5 -13q24 0 50 21z" />
    <glyph glyph-name="aring" unicode="&#xe5;" horiz-adv-x="306" 
d="M312 65q-10 -15 -33 -36q-19 -17 -37 -33q-30 0 -69 59q-60 -61 -75 -61q-16 0 -96 123l69 62q-46 76 -46 122q0 43 33 74.5t77 31.5q85 0 109 -80q10 -35 10 -149q0 -59 3 -69q9 -37 50 -38zM168 278q0 96 -65 96q-26 0 -40.5 -21t-14.5 -48q0 -25 21 -68q12 -21 23 -41
q36 30 74 67q2 5 2 15zM172 88v139q-87 -76 -87 -78q0 -7 29 -45.5t33 -38.5q6 0 25 23zM134 570q27 0 46 -18.5t19 -45.5t-19 -45.5t-46 -18.5q-28 0 -47 18.5t-19 45.5t19 45.5t47 18.5zM134 544q-17 0 -28.5 -11t-11.5 -27t11.5 -27t28.5 -11q16 0 27.5 11t11.5 27
t-11.5 27t-27.5 11z" />
    <glyph glyph-name="ccedilla" unicode="&#xe7;" horiz-adv-x="281" 
d="M175 -39q52 -10 52 -51q0 -27 -24 -49t-59 -22q-27 0 -54 14l10 19q14 -8 27 -8q17 0 28 13t11 29q0 35 -37 28l-24 -12q15 26 38 75q-69 1 -99 46q-28 42 -28 129q0 51 26 127q32 93 72 93h83q15 0 47 2l-18 -94q-49 2 -69 2h-75q-20 -7 -20 -49q0 -84 16.5 -116
t59.5 -37q12 -2 111 -2q8 0 21 2l-29 -99q-29 2 -41 0l-25 -2q-5 -1 -10 -1q-10 -16 -21 -35l-3 -6q42 2 34 4z" />
    <glyph glyph-name="eacute" unicode="&#xe9;" horiz-adv-x="306" 
d="M279 107q-90 -117 -123 -117q-130 0 -130 171q0 98 1 105q3 25 20 38l20 10q53 43 117 89q29 -13 49.5 -47t20.5 -67q0 -52 -144 -142q-11 -81 84 -96l77 63zM175 249q0 41 -26 74q-11 14 -14 14q-2 0 -4 -1q-17 -12 -21 -22q-2 -6 -2 -30q0 -106 -1 -105q21 15 42 31
q26 20 26 39zM211 529q27 -42 26 -44q-2 -2 -45 -21q-52 -23 -100 -39l-8 15z" />
    <glyph glyph-name="egrave" unicode="&#xe8;" horiz-adv-x="306" 
d="M279 107q-90 -117 -123 -117q-130 0 -130 171q0 98 1 105q3 25 20 38l20 10q53 43 117 89q29 -13 49.5 -47t20.5 -67q0 -52 -144 -142q-11 -81 84 -96l77 63zM175 249q0 41 -26 74q-11 14 -14 14q-2 0 -4 -1q-17 -12 -21 -22q-2 -6 -2 -30q0 -106 -1 -105q21 15 42 31
q26 20 26 39zM92 529q-28 -42 -26 -44q1 -2 44 -21q52 -23 101 -39l7 15z" />
    <glyph glyph-name="ecircumflex" unicode="&#xea;" horiz-adv-x="306" 
d="M279 107q-90 -117 -123 -117q-130 0 -130 171q0 98 1 105q3 25 20 38l20 10q53 43 117 89q29 -13 49.5 -47t20.5 -67q0 -52 -144 -142q-11 -81 84 -96l77 63zM175 249q0 41 -26 74q-11 14 -14 14q-2 0 -4 -1q-17 -12 -21 -22q-2 -6 -2 -30q0 -106 -1 -105q21 15 42 31
q26 20 26 39zM141 484q-27 -14 -103 -44l-6 14l104 82l2 3l2 -1l1 1l2 -3l104 -82l-5 -17q-29 9 -61 26.5t-40 20.5z" />
    <glyph glyph-name="edieresis" unicode="&#xeb;" horiz-adv-x="306" 
d="M279 107q-90 -117 -123 -117q-130 0 -130 171q0 98 1 105q3 25 20 38l20 10q53 43 117 89q29 -13 49.5 -47t20.5 -67q0 -52 -144 -142q-11 -81 84 -96l77 63zM175 249q0 41 -26 74q-11 14 -14 14q-2 0 -4 -1q-17 -12 -21 -22q-2 -6 -2 -30q0 -106 -1 -105q21 15 42 31
q26 20 26 39zM42 483q0 15 10.5 25.5t25.5 10.5t25.5 -10.5t10.5 -25.5q0 -16 -10.5 -26.5t-25.5 -10.5t-25.5 10.5t-10.5 26.5zM161 483q0 15 10.5 25.5t25.5 10.5t25.5 -10.5t10.5 -25.5q0 -16 -10.5 -26.5t-25.5 -10.5t-25.5 10.5t-10.5 26.5z" />
    <glyph glyph-name="iacute" unicode="&#xed;" horiz-adv-x="176" 
d="M53 53q0 -28 16 -52h84q-7 13 -23 80q0 204 0 199q-3 99 -48 126q-8 -3 -32.5 -26t-29.5 -31q38 -11 32 -79zM131 529q27 -42 26 -44q-2 -2 -45 -21q-52 -23 -100 -39l-8 15z" />
    <glyph glyph-name="igrave" unicode="&#xec;" horiz-adv-x="176" 
d="M53 53q0 -28 16 -52h84q-7 13 -23 80q0 204 0 199q-3 99 -48 126q-8 -3 -32.5 -26t-29.5 -31q38 -11 32 -79zM22 529q-28 -42 -26 -44q1 -2 44 -21q52 -23 101 -39l7 15z" />
    <glyph glyph-name="icircumflex" unicode="&#xee;" horiz-adv-x="176" 
d="M53 53q0 -28 16 -52h84q-7 13 -23 80q0 204 0 199q-3 99 -48 126q-8 -3 -32.5 -26t-29.5 -31q38 -11 32 -79zM91 484q-27 -14 -103 -44l-6 14l104 82l2 3l2 -1l1 1l2 -3l104 -82l-5 -17q-29 9 -61 26.5t-40 20.5z" />
    <glyph glyph-name="idieresis" unicode="&#xef;" horiz-adv-x="176" 
d="M53 53q0 -28 16 -52h84q-7 13 -23 80q0 204 0 199q-3 99 -48 126q-8 -3 -32.5 -26t-29.5 -31q38 -11 32 -79zM-18 483q0 15 10.5 25.5t25.5 10.5t25.5 -10.5t10.5 -25.5q0 -16 -10.5 -26.5t-25.5 -10.5t-25.5 10.5t-10.5 26.5zM101 483q0 15 10.5 25.5t25.5 10.5
t25.5 -10.5t10.5 -25.5q0 -16 -10.5 -26.5t-25.5 -10.5t-25.5 10.5t-10.5 26.5z" />
    <glyph glyph-name="ntilde" unicode="&#xf1;" horiz-adv-x="332" 
d="M216 401q30 1 54 -38t24 -78q-3 -168 0 -213q3 -52 47 -83l-66 -47q-24 11 -43 43q-22 38 -22 84v157q2 111 -46 110q-6 0 -25 -11t-19 -16q-1 -94 0 -308h-81v253q1 56 -5 71q-11 15 -21 30q1 8 24 28t31 18q28 -6 49 -66l50 40q36 26 49 26zM265 503q-27 -56 -69 -56
q-18 0 -51.5 14t-51.5 14q-28 0 -48 -24q-4 1 -14 6q25 59 82 59q17 0 46.5 -13t44.5 -13q24 0 50 21z" />
    <glyph glyph-name="oacute" unicode="&#xf3;" horiz-adv-x="335" 
d="M150 -14q-55 0 -97 63q-39 59 -35 120q4 64 42 124q16 26 47 67q40 52 50 52q4 0 30 -18q22 -16 30 -23q91 -84 91 -170q0 -52 -53 -131q-56 -84 -105 -84zM246 135q0 61 -35 112q-26 38 -83 84q-10 0 -26 -47q-14 -43 -14 -58q0 -48 33 -107q38 -67 82 -67q19 0 32 33
q11 27 11 50zM211 529q27 -42 26 -44q-2 -2 -45 -21q-52 -23 -100 -39l-8 15z" />
    <glyph glyph-name="ograve" unicode="&#xf2;" horiz-adv-x="335" 
d="M150 -14q-55 0 -97 63q-39 59 -35 120q4 64 42 124q16 26 47 67q40 52 50 52q4 0 30 -18q22 -16 30 -23q91 -84 91 -170q0 -52 -53 -131q-56 -84 -105 -84zM246 135q0 61 -35 112q-26 38 -83 84q-10 0 -26 -47q-14 -43 -14 -58q0 -48 33 -107q38 -67 82 -67q19 0 32 33
q11 27 11 50zM102 529q-28 -42 -26 -44q1 -2 44 -21q52 -23 101 -39l7 15z" />
    <glyph glyph-name="ocircumflex" unicode="&#xf4;" horiz-adv-x="335" 
d="M150 -14q-55 0 -97 63q-39 59 -35 120q4 64 42 124q16 26 47 67q40 52 50 52q4 0 30 -18q22 -16 30 -23q91 -84 91 -170q0 -52 -53 -131q-56 -84 -105 -84zM246 135q0 61 -35 112q-26 38 -83 84q-10 0 -26 -47q-14 -43 -14 -58q0 -48 33 -107q38 -67 82 -67q19 0 32 33
q11 27 11 50zM161 484q-27 -14 -103 -44l-6 14l104 82l2 3l2 -1l1 1l2 -3l104 -82l-5 -17q-29 9 -61 26.5t-40 20.5z" />
    <glyph glyph-name="odieresis" unicode="&#xf6;" horiz-adv-x="335" 
d="M150 -14q-55 0 -97 63q-39 59 -35 120q4 64 42 124q16 26 47 67q40 52 50 52q4 0 30 -18q22 -16 30 -23q91 -84 91 -170q0 -52 -53 -131q-56 -84 -105 -84zM246 135q0 61 -35 112q-26 38 -83 84q-10 0 -26 -47q-14 -43 -14 -58q0 -48 33 -107q38 -67 82 -67q19 0 32 33
q11 27 11 50zM62 483q0 15 10.5 25.5t25.5 10.5t25.5 -10.5t10.5 -25.5q0 -16 -10.5 -26.5t-25.5 -10.5t-25.5 10.5t-10.5 26.5zM181 483q0 15 10.5 25.5t25.5 10.5t25.5 -10.5t10.5 -25.5q0 -16 -10.5 -26.5t-25.5 -10.5t-25.5 10.5t-10.5 26.5z" />
    <glyph glyph-name="otilde" unicode="&#xf5;" horiz-adv-x="335" 
d="M150 -14q-55 0 -97 63q-39 59 -35 120q4 64 42 124q16 26 47 67q40 52 50 52q4 0 30 -18q22 -16 30 -23q91 -84 91 -170q0 -52 -53 -131q-56 -84 -105 -84zM246 135q0 61 -35 112q-26 38 -83 84q-10 0 -26 -47q-14 -43 -14 -58q0 -48 33 -107q38 -67 82 -67q19 0 32 33
q11 27 11 50zM275 503q-27 -56 -69 -56q-18 0 -51.5 14t-51.5 14q-28 0 -48 -24q-4 1 -14 6q25 59 82 59q17 0 46.5 -13t44.5 -13q24 0 50 21z" />
    <glyph glyph-name="uacute" unicode="&#xfa;" horiz-adv-x="346" 
d="M331 41q0 -10 -54 -52q-34 13 -46 39q-8 24 -17 48l-94 -87q-12 4 -21.5 13t-16.5 17q-38 28 -43 97v136q0 50 -2 58q-3 15 -30 41q1 7 30 27q18 12 37 23q44 -14 45 -105q5 -124 2 -156q-7 -73 37 -73q11 0 29.5 14.5t23.5 25.5q0 87 1 280h78v-262q0 -32 11 -52
q7 -12 18.5 -20.5t11.5 -11.5zM201 529q27 -42 26 -44q-2 -2 -45 -21q-52 -23 -100 -39l-8 15z" />
    <glyph glyph-name="ugrave" unicode="&#xf9;" horiz-adv-x="346" 
d="M331 41q0 -10 -54 -52q-34 13 -46 39q-8 24 -17 48l-94 -87q-12 4 -21.5 13t-16.5 17q-38 28 -43 97v136q0 50 -2 58q-3 15 -30 41q1 7 30 27q18 12 37 23q44 -14 45 -105q5 -124 2 -156q-7 -73 37 -73q11 0 29.5 14.5t23.5 25.5q0 87 1 280h78v-262q0 -32 11 -52
q7 -12 18.5 -20.5t11.5 -11.5zM102 529q-28 -42 -26 -44q1 -2 44 -21q52 -23 101 -39l7 15z" />
    <glyph glyph-name="ucircumflex" unicode="&#xfb;" horiz-adv-x="346" 
d="M331 41q0 -10 -54 -52q-34 13 -46 39q-8 24 -17 48l-94 -87q-12 4 -21.5 13t-16.5 17q-38 28 -43 97v136q0 50 -2 58q-3 15 -30 41q1 7 30 27q18 12 37 23q44 -14 45 -105q5 -124 2 -156q-7 -73 37 -73q11 0 29.5 14.5t23.5 25.5q0 87 1 280h78v-262q0 -32 11 -52
q7 -12 18.5 -20.5t11.5 -11.5zM151 484q-27 -14 -103 -44l-6 14l104 82l2 3l2 -1l1 1l2 -3l104 -82l-5 -17q-29 9 -61 26.5t-40 20.5z" />
    <glyph glyph-name="udieresis" unicode="&#xfc;" horiz-adv-x="346" 
d="M331 41q0 -10 -54 -52q-34 13 -46 39q-8 24 -17 48l-94 -87q-12 4 -21.5 13t-16.5 17q-38 28 -43 97v136q0 50 -2 58q-3 15 -30 41q1 7 30 27q18 12 37 23q44 -14 45 -105q5 -124 2 -156q-7 -73 37 -73q11 0 29.5 14.5t23.5 25.5q0 87 1 280h78v-262q0 -32 11 -52
q7 -12 18.5 -20.5t11.5 -11.5zM62 483q0 15 10.5 25.5t25.5 10.5t25.5 -10.5t10.5 -25.5q0 -16 -10.5 -26.5t-25.5 -10.5t-25.5 10.5t-10.5 26.5zM181 483q0 15 10.5 25.5t25.5 10.5t25.5 -10.5t10.5 -25.5q0 -16 -10.5 -26.5t-25.5 -10.5t-25.5 10.5t-10.5 26.5z" />
    <glyph glyph-name="dagger" unicode="&#x2020;" horiz-adv-x="290" 
d="M125 474q-22 -2 -42.5 -16.5t-27.5 -14.5q-44 0 -44 43q0 45 44 45q6 0 26.5 -14.5t44.5 -16.5q-1 25 -14 71t-13 65q0 18 8.5 33.5t24.5 15.5q34 0 34 -49q0 -19 -13 -64.5t-14 -71.5q25 2 44.5 16.5t25.5 14.5q45 0 45 -45q0 -43 -45 -43q-5 0 -26 14.5t-44 17.5
q2 -84 35 -140q-26 -101 -30 -340l-15 3q0 76 -9 171q-11 113 -28 166q31 55 33 139z" />
    <glyph glyph-name="degree" unicode="&#xb0;" horiz-adv-x="345" 
d="M156 709q43 0 73 -32.5t30 -77.5t-30 -77.5t-73 -32.5t-72.5 32.5t-29.5 77.5t29.5 77.5t72.5 32.5zM156 673q-27 0 -46.5 -21.5t-19.5 -52.5t19.5 -52.5t46.5 -21.5t47 21.5t20 52.5t-20 52.5t-47 21.5z" />
    <glyph glyph-name="cent" unicode="&#xa2;" horiz-adv-x="279" 
d="M244 338q0 -2 -12 -30q-15 -34 -19 -45q-19 1 -66 -2v-36q0 -19 -15 -19q-16 0 -16.5 26.5t-3.5 27.5q-73 32 -93 86q-11 28 -11 97q0 42 16 92q20 57 47 71q9 1 29 6q0 14 1 28q1 19 13 19q18 0 18 -20v-8q-1 -5 -1 -7q0 -13 10 -13q42 0 63 1q4 -2 9 -5t5 -7
q0 9 -23 -72h-57h-28.5h-27.5q-19 0 -25.5 -5.5t-6.5 -24.5q0 -2 6 -27.5t8 -37.5q8 -58 42 -75q19 -9 74 -9h68z" />
    <glyph glyph-name="sterling" unicode="&#xa3;" horiz-adv-x="460" 
d="M17 326h95q-21 66 -53 114q-19 27 -16 74q5 91 76 152q22 19 31 22q26 7 61 4q192 -108 192 -170q0 -20 -6 -31t-6 -23q0 -27 15 -46q3 -5 3 -9q0 -9 -15 -14q-135 104 -135 122q0 5 3 7q36 -3 36 55q0 12 -14 31t-30 19q-40 0 -81 -93q-35 -78 -35 -112q0 -22 -2 -39
q-1 -11 0.5 -19t11.5 -44h108v-37h-99q9 -85 -88 -248l19 -8q50 114 154 114q31 0 65.5 -15l34.5 -15q18 0 39 49.5t26 49.5h12q3 -1 3 -8q0 -3 -17 -43q-21 -49 -27 -64q-10 -28 -21 -57q-21 -50 -42 -50q-11 0 -56 23t-82 23q-34 0 -60 -21.5t-28 -21.5t-12.5 -9t-13.5 -9
q-22 -3 -31 0q-9 0 -11 5.5t-1 12.5q1 11 1 9q0 19 26 58q35 53 49 86q26 63 25 139h-104v37z" />
    <glyph glyph-name="section" unicode="&#xa7;" 
 />
    <glyph glyph-name="bullet" unicode="&#x2022;" horiz-adv-x="345" 
d="M67 279q0 45 30.5 76.5t74.5 31.5q43 0 74 -31.5t31 -76.5t-31 -76.5t-74 -31.5q-44 0 -74.5 31.5t-30.5 76.5z" />
    <glyph glyph-name="paragraph" unicode="&#xb6;" horiz-adv-x="487" 
d="M462 -65h-282v30q39 0 49 12t10 53v283l-31 -1q-85 -3 -136.5 44t-51.5 132q0 101 66 142q52 32 162 32h214v-30q-38 0 -47.5 -12.5t-9.5 -53.5v-536q0 -42 8 -52q10 -13 49 -13v-30zM352 -35v667h-63v-667h63z" />
    <glyph glyph-name="germandbls" unicode="&#xdf;" horiz-adv-x="461" 
d="M399 27q0 -80 -44 -132q-41 -37 -83 -74q-45 -42 -47 -100q-1 -33 14 -47q11 -12 40 -16q15 -2 24 4t19 10q7 7 10 34q-23 11 -23 31q0 8 11 14q8 6 14 6q26 0 26 -40q0 -38 -24 -65t-62 -23q-73 6 -73 92q0 52 28 90q1 2 52 56q28 29 28 59q0 9 -2 19v34q0 34 -21 61
t-55 27q-19 0 -32 -11t-16 -11q-8 0 -8 8q0 4 136 245h-175q-10 -117 -27 -346q-2 -135 -11 -291q0 -1 0 19t-1 20q-3 -6 -7 -47l-6 6q-24 231 -26 633q-1 7 -48 98l43 1q-6 126 -3 158q10 13 71 73q66 65 78 65q17 0 63 -32q43 -30 54 -47q-54 -53 -57 -53q-4 0 -45.5 30.5
t-53.5 31.5q-1 -2 -12 -11t-11 -12q0 -110 -2 -201v-7q55 0 132 1q91 2 134 2l-140 -251q23 8 26 8q46 0 79 -36t33 -83z" />
    <glyph glyph-name="registered" unicode="&#xae;" horiz-adv-x="376" 
d="M185 720q60 0 102.5 -43.5t42.5 -103.5q0 -61 -43 -104t-104 -43t-104 43t-43 104q0 62 43.5 104.5t105.5 42.5zM182 699q-51 0 -86 -37t-35 -88q0 -52 35 -88.5t87 -36.5t87 36.5t35 88.5t-35.5 88.5t-87.5 36.5zM166 568v-41q0 -9 1 -15q7 -3 24 -3v-14h-89v14
q14 0 21 3q2 6 2 15v92q0 8 -2 15q-6 2 -21 2v15h95q58 0 58 -40q0 -31 -38 -39q21 -8 30 -57q2 -2 5 -3q8 0 8 20h15v-5q0 -35 -38 -35q-26 0 -34 22q-2 5 -7 45q-4 9 -30 9zM166 583h11q34 0 34 27q0 26 -25 26h-9q-11 0 -11 -12v-41z" />
    <glyph glyph-name="copyright" unicode="&#xa9;" horiz-adv-x="793" 
d="M377 721q151 0 257.5 -108.5t106.5 -259.5q0 -153 -107.5 -260.5t-260.5 -107.5q-152 0 -260 107.5t-108 259.5q0 156 108 262.5t264 106.5zM369 669q-127 0 -214 -94t-87 -222q0 -129 88.5 -222.5t216.5 -93.5t216.5 93.5t88.5 222.5q0 132 -88.5 224t-220.5 92z
M531 554l6 -160l-36 -4q-34 129 -118 129q-95 0 -95 -163q0 -166 102 -166q93 0 114 116l41 -10q-30 -148 -173 -148q-89 0 -144 55t-55 144q0 91 57.5 150t147.5 59q52 0 97 -27l28 25h28z" />
    <glyph glyph-name="trademark" unicode="&#x2122;" horiz-adv-x="665" 
d="M298 444q25 1 33 18q2 5 2 38v126q0 25 -1 29q-13 4 -31 5v13h105l52 -145l50 145h107v-13q-19 0 -32 -5q-3 -14 -3 -29v-148q0 -15 3 -29q13 -5 32 -5v-13h-126v13q19 0 32 5q3 15 3 29v177l-81 -224h-8l-81 224v-155q0 -29 5 -38q8 -16 31 -18v-13h-92v13zM235 586
q-14 70 -59 70l-10 -5l-1 -11v-162q0 -15 3 -29q13 -5 35 -5v-13h-133v13q23 0 36 5q3 15 3 29v163l-3 12l-9 3q-45 0 -59 -70h-13l5 87q18 -3 213 0l6 -87h-14z" />
    <glyph glyph-name="acute" unicode="&#xb4;" horiz-adv-x="214" 
d="M171 589q27 -42 26 -44q-2 -2 -45 -21q-52 -23 -100 -39l-8 15z" />
    <glyph glyph-name="dieresis" unicode="&#xa8;" horiz-adv-x="384" 
d="M102 493q0 15 10.5 25.5t25.5 10.5t25.5 -10.5t10.5 -25.5q0 -16 -10.5 -26.5t-25.5 -10.5t-25.5 10.5t-10.5 26.5zM221 493q0 15 10.5 25.5t25.5 10.5t25.5 -10.5t10.5 -25.5q0 -16 -10.5 -26.5t-25.5 -10.5t-25.5 10.5t-10.5 26.5z" />
    <glyph glyph-name="AE" unicode="&#xc6;" horiz-adv-x="745" 
d="M340 389q0 204 -24 242l-11 3q-103 0 -103 -145q0 -31 6 -83q7 -61 15 -79q109 16 113 23.5t4 38.5zM727 521q0 -25 -17.5 -39t-43.5 -14q-52 0 -67 45q-8 24 -8 89q0 27 -16 43.5t-43 16.5q-53 0 -75 -103q-13 -63 -12 -144v-53q9 0 30 -1h30q27 0 55 23q6 13 6 24
q0 19 -22 40l24 2q40 0 40 -55q0 -32 -15 -44q18 -11 18 -34q0 -66 -59 -65l-15 1q9 5 16 20.5t7 27.5q0 15 -19 24q-14 8 -31 8q-19 0 -67 -3q1 -50 1 -76q0 -150 17 -194t76 -44q51 0 79 35q25 32 25 85q0 6 -1 19t-1 20q0 66 46 66q13 0 24 -11t11 -23q0 -7 -8.5 -15
t-14.5 -8l-15 3l-13 15l-4.5 -9t-3.5 -11q0 -25 20.5 -71.5t20.5 -71.5q0 -27 -27.5 -44t-56.5 -17q-26 0 -62 10l-60 18q-42 10 -128 10q-92 0 -108 -25l1 -2q9 -3 27 -11q-5 -25 -6 -26q-3 -4 -25 -11q-29 6 -29 28q0 28 43 53q47 27 52 51q10 49 11 124v124
q-49 -8 -105 -21q-1 0 -1 -2q0 -4 2 -10.5t2 -10.5q0 -211 -132 -310q-25 -18 -47 -18q-25 0 -43 16.5t-18 41.5q0 51 74 109q6 1 8 -4q-1 -9 -11 -29t-10 -34q0 -19 13.5 -34t32.5 -15q11 0 28 23q31 42 31 128q0 25 -9 81q-12 66 -23 68q-42 7 -53 12q-30 12 -30 39
q0 30 27 30q20 0 20 -21q0 -9 -11 -24q8 -13 44 -13q-6 21 -6 46q0 195 112 264q-79 22 -86 25q-51 23 -51 67q0 16 12 28.5t28 12.5q30 0 30 -27q-7 -19 -22 -19q-16 0 -27 16h-1l-4 -12q0 -36 69 -53q47 -12 103 -12q45 0 143.5 15t148.5 15q46 0 66 -19t20 -64
q0 -15 -2 -44t-2 -43q0 -33 15 -33l18 10q-6 9 -6 24q0 37 25 37q8 0 14.5 -13.5t6.5 -22.5z" />
    <glyph glyph-name="Oslash" unicode="&#xd8;" horiz-adv-x="504" 
d="M178 159q57 -74 125 -79q29 -2 57 46q26 43 26 75q0 38 -27 89q-10 19 -57 93zM461 313q0 -152 -168 -307q-41 -38 -52 -38q-35 0 -123 83l-42 -76h-33l53 97q-8 9 -12 15q-80 110 -80 199q0 106 34 168q26 48 87 113q66 71 95 75q4 1 6 -3q2 -5 0 -7q-28 -33 -56 -90
q-47 -92 -54 -185q-8 -87 44 -171l124 225q-53 90 -53 157q0 49 26 95q30 54 75 54q18 0 32 -10.5t14 -28.5q0 -27 -25 -27q-22 0 -22 22q0 2 6 21l-7 3q-17 0 -27 -21q-7 -16 -7 -36q0 -43 54 -109l80 143h33l-93 -167q43 -52 62 -86q29 -53 29 -108z" />
    <glyph glyph-name="plusminus" unicode="&#xb1;" 
 />
    <glyph glyph-name="yen" unicode="&#xa5;" horiz-adv-x="563" 
d="M470 175h-133q12 -106 37 -141q105 -25 105 -70q0 -14 -13.5 -23.5t-27.5 -9.5q-31 0 -31 24q0 19 44 19q-21 32 -130 32q-30 0 -101 -8t-96 -8l-3 15q5 5 37.5 6.5t41.5 18.5q12 24 21 145h-129v40h131l2 50h-133v40h135v25q-27 105 -48 163q-38 106 -83 145
q-4 4 -55 26q-36 15 -36 43q0 13 10.5 23t23.5 10q22 0 22 -25q0 -19 -26 -25q11 -15 60 -15q16 0 32 4q25 5 33 6q88 11 155 -313l51 204q-4 6 -17 19l49 108q41 -38 81 -38q11 0 29 7q22 8 22 16q0 2 -9.5 9t-9.5 17q0 21 19 21q22 0 22 -27q0 -61 -32 -103
q-35 -46 -93 -46q-6 0 -35 5q-7 -16 -63 -223v-36h141v-40h-140q1 -26 3 -50h137v-40z" />
    <glyph glyph-name="uni00B5" unicode="&#xb5;" horiz-adv-x="550" 
d="M350 500v-54l-105 -112v-5q0 -125 4 -166q15 -142 72 -142q52 0 70 74q11 69 21 138q18 74 69 74q15 0 26.5 -10t11.5 -25q0 -11 -9 -20.5t-21 -9.5q-18 15 -19 16q-1 4 1 27q-25 -10 -25 -64q0 -25 5 -61q4 -23 7 -45q6 -65 -29 -99q-31 -30 -88 -30q-20 0 -43 4
l-182 34q-59 12 -79 -16l-4 -16q15 7 21 7q26 0 26 -22q0 -24 -28 -24q-15 0 -28 13t-15 29q-3 29 36 50q33 13 65 26q27 13 24 146l-107 -113v52l105 112q-2 37 -2 40q0 69 -5 161q-7 132 -20 146q-20 14 -39 29q-23 19 -22 47q1 20 22 33q18 11 40 11q39 0 39 -28
q0 -7 -9.5 -14.5t-16.5 -7.5q-20 0 -20 20q0 6 1 11h-5q-12 0 -22 -8t-10 -20q0 -18 29 -30t48 -9q44 8 89 17q57 11 88 11q52 0 52 -14l-2 -13l-28 6q-5 1 -11 1q-84 0 -84 -269z" />
    <glyph glyph-name="uni00B5" unicode="&#x3bc;" horiz-adv-x="550" 
d="M350 500v-54l-105 -112v-5q0 -125 4 -166q15 -142 72 -142q52 0 70 74q11 69 21 138q18 74 69 74q15 0 26.5 -10t11.5 -25q0 -11 -9 -20.5t-21 -9.5q-18 15 -19 16q-1 4 1 27q-25 -10 -25 -64q0 -25 5 -61q4 -23 7 -45q6 -65 -29 -99q-31 -30 -88 -30q-20 0 -43 4
l-182 34q-59 12 -79 -16l-4 -16q15 7 21 7q26 0 26 -22q0 -24 -28 -24q-15 0 -28 13t-15 29q-3 29 36 50q33 13 65 26q27 13 24 146l-107 -113v52l105 112q-2 37 -2 40q0 69 -5 161q-7 132 -20 146q-20 14 -39 29q-23 19 -22 47q1 20 22 33q18 11 40 11q39 0 39 -28
q0 -7 -9.5 -14.5t-16.5 -7.5q-20 0 -20 20q0 6 1 11h-5q-12 0 -22 -8t-10 -20q0 -18 29 -30t48 -9q44 8 89 17q57 11 88 11q52 0 52 -14l-2 -13l-28 6q-5 1 -11 1q-84 0 -84 -269z" />
    <glyph glyph-name="ordfeminine" unicode="&#xaa;" horiz-adv-x="475" 
d="M476 225q0 -31 -23 -31q-20 0 -20 24q0 19 11 25q-7 6 -14 6q-37 0 -48 -62q-3 -22 -3 -86q0 -11 5.5 -28t5.5 -27q3 -43 -49 -45h-146h-105q-20 0 -34.5 14.5t-12.5 38.5q1 23 46 127q30 68 59 136l-29 5l-26 16l13 12l32 -14h19q15 25 71.5 146.5t56.5 132.5
q0 33 -66 33q-31 0 -39 -3q-55 -15 -71 -85q-8 -35 -8 -119q0 -50 -2 -56q-8 -9 -16 -19q-5 -2 -24 -2q-13 0 -26.5 13.5t-13.5 25.5q0 11 8 20t18 9q22 0 22 -32q0 -11 -1 -17q14 6 14 36q0 27 -9.5 80.5t-9.5 80.5q0 103 106 103q47 0 97 -10q69 8 109 8q21 0 34 -15
t13 -36q0 -25 -62.5 -140t-64.5 -137l-4 -5q54 16 79 14q9 -1 23 -11t14 -19q0 -25 -39 -25q-32 0 -31 26l-3 2q-9 -1 -48 -7l-6 -9q-29 -64 -58 -129q-42 -95 -42 -123q0 -41 60 -41q48 0 71 61q18 58 37 115q29 62 90 62q10 -4 16.5 -3t15 -13.5t8.5 -22.5zM239 770
q24 17 98 49l10 -19l-104 -82l-2 -3l-1 1l-2 -1l-2 3l-104 82l10 19q28 -9 58 -27.5t39 -21.5z" />
    <glyph glyph-name="ordmasculine" unicode="&#xba;" horiz-adv-x="283" 
d="M139 480q24 17 98 49l10 -19l-104 -82l-2 -3l-1 1l-2 -1l-2 3l-104 82l10 19q28 -9 58 -27.5t39 -21.5zM249 27q0 -80 -44 -132q-41 -37 -83 -74q-45 -42 -47 -100q-1 -33 14 -47q11 -12 40 -16q15 -2 24 4t19 10q7 7 10 34q-23 11 -23 31q0 8 11 14q8 6 14 6
q26 0 26 -40q0 -38 -24 -65t-62 -23q-73 6 -73 92q0 52 28 90q1 2 52 56q28 29 28 59q0 9 -2 19v34q0 34 -21 61t-55 27q-19 0 -32 -11t-16 -11q-8 0 -8 8q0 4 142 240q-39 1 -126 -1q-22 -28 -24 -28q-6 0 -8 9q0 6 44 110h198q-34 -53 -142 -237q6 -5 9 -5q1 0 9 2.5
t10 2.5q46 0 79 -36t33 -83z" />
    <glyph glyph-name="ae" unicode="&#xe6;" horiz-adv-x="441" 
d="M168 278q0 96 -65 96q-26 0 -40.5 -21t-14.5 -48q0 -25 21 -68q12 -21 23 -41q36 30 74 67q2 5 2 15zM171 237q-88 -77 -88 -82q0 -6 30 -48t34 -42q6 0 24 26v146zM423 107q-90 -117 -123 -117q-94 0 -121 75q-67 -71 -81 -71q-16 0 -96 123l69 62q-46 76 -46 122
q0 43 33 74.5t77 31.5q80 0 106 -70q39 32 87 66q29 -13 49.5 -47t20.5 -67q0 -52 -143 -160v-26q1 -10 11 -23q16 -16 33 -22q8 -2 39 -7l77 63zM319 249q0 41 -26 74q-11 14 -14 14q-2 0 -4 -1q-17 -11 -20 -19.5t-3 -29.5q1 -10 1 -126q66 54 66 88z" />
    <glyph glyph-name="oslash" unicode="&#xf8;" horiz-adv-x="335" 
d="M110 140l80 134q-23 26 -62 57q-10 0 -26 -47q-14 -43 -14 -58q0 -36 22 -86zM208 251l-82 -140q36 -59 77 -59q19 0 32 33q11 27 11 50q0 63 -38 116zM262 397h32l-38 -66q52 -59 52 -130q0 -52 -53 -131q-56 -84 -105 -84q-41 0 -76 37l-17 -28h-32l30 51
q-41 60 -37 123q4 64 42 124q16 26 47 67q40 52 50 52q4 0 30 -18q22 -16 30 -23q10 -10 19 -18z" />
    <glyph glyph-name="questiondown" unicode="&#xbf;" horiz-adv-x="377" 
d="M1 -94q0 47 31 93q29 37 58 73q31 42 31 76q0 2 -4 26t-4 26q0 4 48 46t55 42q14 0 14 -30q0 -49 -36 -103q-3 -3 -68 -84q-36 -45 -36 -72q0 -32 35 -82q39 -57 77 -57q15 0 27 13.5t12 29.5q0 13 -9 34q-12 26 -26 26q-5 0 -31 -21h-9q-5 5 -5 8q0 12 61 57
q59 42 63 42q24 0 40 -34q12 -27 12 -51q0 -34 -17 -49q-7 -5 -92 -68q-37 -28 -38 -28q-25 -20 -39 -38q-2 -5 -11 -16q-8 -3 -7 -3q-2 0 -23 14q-25 18 -34 23q-54 32 -63 60q-12 36 -12 47zM99 398q0 1 89 73q16 0 27 -37q8 -30 8 -53q0 -38 -23 -54q-37 -26 -75 -51
q-1 25 -7 72q-2 9 -10.5 28.5t-8.5 21.5z" />
    <glyph glyph-name="exclamdown" unicode="&#xa1;" horiz-adv-x="328" 
d="M1 -200l3 15q6 -1 21 -10.5t23 -9.5q31 0 44 68q7 37 7 77v171q0 2 -5 46.5t-5 47.5q0 6 50 45q40 33 56 44q5 -17 5 -102v-111q0 -62 14 -141q16 -94 38 -100q14 -5 30.5 -23t16.5 -33q0 -16 -14.5 -27.5t-29.5 -11.5q-30 0 -30 25q0 23 23 23q15 0 19 -13q6 0 6 8
q0 28 -48 28q-41 0 -92 -26.5t-73 -26.5q-20 0 -38.5 13t-20.5 24zM83 404q67 52 90 68q15 0 26 -35q8 -27 8 -46q0 -31 -10 -46q-7 -9 -33 -24q-34 -21 -59 -43q0 -1 -1 12q-1 17 -2 50q-1 19 -10 41t-9 23z" />
    <glyph glyph-name="logicalnot" unicode="&#xac;" 
 />
    <glyph glyph-name="florin" unicode="&#x192;" 
 />
    <glyph glyph-name="guillemotleft" unicode="&#xab;" horiz-adv-x="264" 
d="M202 386l15 -16q-4 -13 -49 -129q19 -45 52 -130l-18 -12q-45 70 -91 141q5 6 91 146zM102 386l15 -16q-4 -13 -49 -129q19 -45 52 -130l-18 -12q-45 70 -91 141q5 6 91 146z" />
    <glyph glyph-name="guillemotright" unicode="&#xbb;" horiz-adv-x="264" 
d="M29 99l-15 15q5 13 49 130q-19 44 -52 130l18 12q45 -71 91 -141q-4 -6 -91 -146zM129 99l-15 15q5 13 49 130q-19 44 -52 130l18 12q45 -71 91 -141q-4 -6 -91 -146z" />
    <glyph glyph-name="ellipsis" unicode="&#x2026;" horiz-adv-x="818" 
d="M491 55q0 -5 -91 -68q-16 0 -27 39q-8 30 -8 52q0 39 32.5 63.5t66.5 48.5h10q-3 -4 0 -60q1 -20 9 -49.5t8 -25.5zM791 55q0 -5 -91 -68q-16 0 -27 39q-8 30 -8 52q0 39 32.5 63.5t66.5 48.5h10q-3 -4 0 -60q1 -20 9 -49.5t8 -25.5zM191 55q0 -5 -91 -68q-16 0 -27 39
q-8 30 -8 52q0 39 32.5 63.5t66.5 48.5h10q-3 -4 0 -60q1 -20 9 -49.5t8 -25.5z" />
    <glyph glyph-name="uni00A0" unicode="&#xa0;" horiz-adv-x="186" 
 />
    <glyph glyph-name="Agrave" unicode="&#xc0;" horiz-adv-x="565" 
d="M545 -12l-6 -6q-80 34 -171 34q-92 0 -108 -25l1 -2q9 -3 27 -11q-2 -10 -9 -32l-4 1l-18 -6q-29 6 -29 28q0 28 45 54t50 50q7 40 10 104q4 89 5 103q-1 4 0 41q-36 -5 -109 -21q-2 0 0 -10l3 -13q0 -71 -12 -117q-10 -41 -43 -109q-9 -19 -34 -45q-18 -19 -43 -38
t-47 -19q-26 0 -43.5 17t-17.5 41q0 51 74 109q6 0 8 -4q0 -1 -10.5 -24.5t-10.5 -38.5q0 -18 13.5 -33.5t32.5 -15.5q11 0 28 23q31 41 31 128q0 25 -9 81q-12 67 -23 68q-83 9 -83 51q0 30 27 30q20 0 20 -21q0 -8 -11 -24q7 -13 23 -13h21q-8 26 -4 92q9 157 110 218
l-16 5q-46 6 -78 24q-43 25 -43 63q0 17 11.5 29t28.5 12q30 0 30 -27q-7 -19 -22 -19q-16 0 -27 16h-1l-4 -12q0 -39 81 -56q61 -12 112 -8q39 5 120 10q19 1 58 14t56 13l8 -5l-38.5 -26.5t-45.5 -51.5q-16 -54 -16 -170v-111q0 -223 19 -273q8 -23 47 -46q36 -21 36 -26z
M340 383q0 211 -24 248l-11 3q-103 0 -103 -145q0 -19 5 -72q7 -71 16 -90q54 8 114 24q3 5 3 32zM217 835q-12 -18 -19 -35.5t-6 -18.5q64 -11 204 -48l6 16z" />
    <glyph glyph-name="Atilde" unicode="&#xc3;" horiz-adv-x="565" 
d="M545 -12l-6 -6q-80 34 -171 34q-92 0 -108 -25l1 -2q9 -3 27 -11q-2 -10 -9 -32l-4 1l-18 -6q-29 6 -29 28q0 28 45 54t50 50q7 40 10 104q4 89 5 103q-1 4 0 41q-36 -5 -109 -21q-2 0 0 -10l3 -13q0 -71 -12 -117q-10 -41 -43 -109q-9 -19 -34 -45q-18 -19 -43 -38
t-47 -19q-26 0 -43.5 17t-17.5 41q0 51 74 109q6 0 8 -4q0 -1 -10.5 -24.5t-10.5 -38.5q0 -18 13.5 -33.5t32.5 -15.5q11 0 28 23q31 41 31 128q0 25 -9 81q-12 67 -23 68q-83 9 -83 51q0 30 27 30q20 0 20 -21q0 -8 -11 -24q7 -13 23 -13h21q-8 26 -4 92q9 157 110 218
l-16 5q-46 6 -78 24q-43 25 -43 63q0 17 11.5 29t28.5 12q30 0 30 -27q-7 -19 -22 -19q-16 0 -27 16h-1l-4 -12q0 -39 81 -56q61 -12 112 -8q39 5 120 10q19 1 58 14t56 13l8 -5l-38.5 -26.5t-45.5 -51.5q-16 -54 -16 -170v-111q0 -223 19 -273q8 -23 47 -46q36 -21 36 -26z
M340 383q0 211 -24 248l-11 3q-103 0 -103 -145q0 -19 5 -72q7 -71 16 -90q54 8 114 24q3 5 3 32zM465 800q-31 -66 -81 -66q-21 0 -60 16.5t-60 16.5q-34 0 -57 -29q-3 5 -8.5 5.5t-7.5 2.5q29 69 96 69q20 0 54.5 -15.5t52.5 -15.5q28 0 59 26z" />
    <glyph glyph-name="Otilde" unicode="&#xd5;" horiz-adv-x="504" 
d="M461 313q0 -152 -168 -307q-41 -38 -52 -38q-24 0 -84 48q-53 44 -73 71q-80 110 -80 199q0 106 34 168q26 48 87 113q66 71 95 75q4 1 6 -3q2 -5 0 -7q-28 -33 -56 -90q-47 -92 -54 -185q-8 -95 52 -183.5t135 -93.5q29 -2 57 46q26 43 26 75q0 45 -40 113
q-38 60 -75 121q-40 73 -40 133q0 49 26 95q30 54 75 54q18 0 32 -10.5t14 -28.5q0 -27 -25 -27q-22 0 -22 22q0 2 6 21l-7 3q-17 0 -27 -21q-7 -16 -7 -36q0 -40 42 -95l80 -100q43 -66 43 -132zM365 800q-31 -66 -81 -66q-21 0 -60 16.5t-60 16.5q-34 0 -57 -29
q-3 5 -8.5 5.5t-7.5 2.5q29 69 96 69q20 0 54.5 -15.5t52.5 -15.5q28 0 59 26z" />
    <glyph glyph-name="OE" unicode="&#x152;" horiz-adv-x="804" 
d="M349 652q-18 3 -18 21q0 2 6 21l-7 3q-17 0 -27 -21q-7 -16 -7 -36q0 -34 28 -75q4 -6 60 -74q-7 77 -19 113zM382 99q-35 -46 -89 -96q-38 -35 -52 -35q-24 0 -84 48q-53 44 -73 71q-80 110 -80 199q0 106 34 168q26 48 87 113q66 71 95 75q4 1 6 -3q2 -5 0 -7
q-28 -33 -56 -90q-47 -92 -54 -185q-8 -95 52 -183.5t135 -93.5q25 -2 50 35q23 33 30 69q1 13 2 27q-3 44 -44 110l-72 118q-38 71 -38 129q0 49 26 95q30 54 75 54q18 0 32 -10.5t14 -28.5q0 -5 -3 -10q34 2 125 13q79 10 125 10q50 0 70 -24q15 -19 15 -59
q0 -13 -2 -42.5t-2 -44.5q0 -33 15 -33l18 10q-6 9 -6 24q0 37 25 37q8 0 15 -13t7 -23q0 -25 -18 -39t-43 -14q-54 0 -69 48q-7 22 -7 86q0 60 -59 60t-75 -130q-6 -45 -6 -171h34q31 0 33 1q20 3 42 22q7 13 7 24q0 18 -22 40l23 2q15 0 27.5 -14.5t12.5 -28.5
q0 -44 -15 -56q15 -10 17 -25q1 0 1 -27q0 -22 -18.5 -34.5t-39.5 -12.5l-16 1q20 10 23 47q-7 33 -50 33q-7 0 -15.5 -1t-10.5 -1h-33q0 -13 -1 -47q-1 -39 -1 -60q0 -208 88 -208q59 0 86 44q23 37 18 93q-1 12 -1 22q0 66 46 66q13 0 23.5 -11t10.5 -24q0 -6 -8 -14
t-15 -8l-14 3l-14 14q0 -2 -4 -8.5t-4 -10.5q0 -25 20.5 -72t20.5 -71q0 -30 -31 -50.5t-57 -17.5q-177 23 -222 23t-90 -6q0 1 28 57q-1 25 0 52z" />
    <glyph glyph-name="oe" unicode="&#x153;" horiz-adv-x="523" 
d="M253 147q0 59 -40 109q-23 29 -89 82q-11 -1 -24 -41t-12 -71q1 -49 34 -107q37 -67 81 -67q19 0 36 39q14 34 14 56zM499 107q-90 -117 -123 -117q-93 0 -119 82q-57 -86 -107 -86q-55 0 -97 63q-39 59 -35 120q4 58 42 119q11 19 50 61q42 48 52 48q5 0 30.5 -13.5
t31.5 -19.5q33 -30 53 -58l26 26q45 34 101 71q29 -13 49.5 -47t20.5 -67q0 -52 -144 -142q-11 -81 84 -96l77 63zM395 249q0 41 -26 74q-11 14 -14 14q-2 0 -4 -1q-17 -12 -21 -22q-2 -6 -2 -30q0 -106 -1 -105q21 15 42 31q26 20 26 39z" />
    <glyph glyph-name="endash" unicode="&#x2013;" horiz-adv-x="368" 
d="M2 257h366v-54h-366v54z" />
    <glyph glyph-name="emdash" unicode="&#x2014;" horiz-adv-x="734" 
d="M2 257h726v-54h-726v54z" />
    <glyph glyph-name="quotedblleft" unicode="&#x201c;" horiz-adv-x="339" 
d="M23 534q-2 0 2 4q8 40 26 88q21 54 32 54q-3 0 20 -1q-32 -61 -34 -110q21 17 37 34q15 0 25 -35q8 -28 8 -50q0 -35 -21 -50l-70 -48q-2 23 -7 68q-2 8 -10 26.5t-8 19.5zM183 534q-2 0 2 4q8 40 26 88q21 54 32 54q-3 0 20 -1q-32 -61 -34 -110q21 17 37 34
q15 0 25 -35q8 -28 8 -50q0 -35 -21 -50l-70 -48q-2 23 -7 68q-2 8 -10 26.5t-8 19.5z" />
    <glyph glyph-name="quotedblright" unicode="&#x201d;" horiz-adv-x="339" 
d="M299 566q2 0 -1 -3q-9 -41 -27 -89q-20 -54 -31 -54q3 0 -21 2q33 60 34 109q-21 -17 -36 -34q-15 0 -26 36q-8 27 -8 49q0 35 22 51q35 24 70 47q2 -23 7 -67q2 -8 9.5 -26.5t7.5 -20.5zM139 566q2 0 -1 -3q-9 -41 -27 -89q-20 -54 -31 -54q3 0 -21 2q33 60 34 109
q-21 -17 -36 -34q-15 0 -26 36q-8 27 -8 49q0 35 22 51q35 24 70 47q2 -23 7 -67q2 -8 9.5 -26.5t7.5 -20.5z" />
    <glyph glyph-name="quoteleft" unicode="&#x2018;" horiz-adv-x="187" 
d="M23 534q-2 0 2 4q8 40 26 88q21 54 32 54q-3 0 20 -1q-32 -61 -34 -110q21 17 37 34q15 0 25 -35q8 -28 8 -50q0 -35 -21 -50l-70 -48q-2 23 -7 68q-2 8 -10 26.5t-8 19.5z" />
    <glyph glyph-name="quoteright" unicode="&#x2019;" horiz-adv-x="187" 
d="M139 566q2 0 -1 -3q-9 -41 -27 -89q-20 -54 -31 -54q3 0 -21 2q33 60 34 109q-21 -17 -36 -34q-15 0 -26 36q-8 27 -8 49q0 35 22 51q35 24 70 47q2 -23 7 -67q2 -8 9.5 -26.5t7.5 -20.5z" />
    <glyph glyph-name="divide" unicode="&#xf7;" 
 />
    <glyph glyph-name="ydieresis" unicode="&#xff;" horiz-adv-x="384" 
d="M102 493q0 15 10.5 25.5t25.5 10.5t25.5 -10.5t10.5 -25.5q0 -16 -10.5 -26.5t-25.5 -10.5t-25.5 10.5t-10.5 26.5zM221 493q0 15 10.5 25.5t25.5 10.5t25.5 -10.5t10.5 -25.5q0 -16 -10.5 -26.5t-25.5 -10.5t-25.5 10.5t-10.5 26.5zM352 330q0 -47 -24 -100
q-16 -36 -58 -104l-100 -130q-78 -106 -75 -148q5 -68 51 -95q37 -22 113 -22q31 0 52 23.5t24 23.5q7 0 7 -9q0 -11 -28.5 -59.5t-36.5 -53.5q-14 -11 -46 -11q-80 0 -127.5 42t-47.5 111q0 68 28 125q17 36 52 78q28 34 28 43q0 18 -100 256q-5 20 -23.5 35.5t-37.5 10.5
q0 9 44 36q17 11 46 25q38 -5 55 -66q71 74 123 74q34 0 57.5 -26t23.5 -59zM273 277q0 19 -12 46q-16 37 -43 41q-17 2 -37.5 -16t-20.5 -31q0 -9 34 -88q37 -85 41 -100q17 25 28 74q10 43 10 74z" />
    <glyph glyph-name="Ydieresis" unicode="&#x178;" horiz-adv-x="555" 
d="M644 -153q-2 -23 -17.5 -38.5t-33.5 -12.5q-18 1 -25 19q1 25 23 23q12 1 22 -10q5 1 10 20q-6 15 -31 14q-62 -4 -190 -66q-105 -50 -181 -100q-7 0 -7 7q0 2 37.5 41.5t43.5 51.5q17 36 27 160q4 73 9 146q1 25 2 18q-81 -120 -145 -120q-56 0 -89 56q-27 46 -27 107
q0 59 19 190.5t19 191.5q0 127 -68 127q-18 0 -29.5 -16.5t-11.5 -34.5l2 -1q7 8 20 8q21 0 21 -24q0 -26 -25 -26q-15 0 -25.5 12.5t-10.5 28.5q0 29 20 50t48 21q94 0 125 -106q17 -57 17 -180q0 -25 -2 -89.5t-2 -88.5q0 -41 15 -81q20 -51 53 -51q36 0 76 69v63
q0 182 -5 252q-4 33 -9 99q-1 35 -27 60q-15 14 -47 29q-25 11 -25 17t8 8q61 -29 96 -29q164 0 177 60q-13 -9 -28 -9q-8 0 -15.5 7.5t-7.5 16.5q0 21 35 21q13 0 22.5 -10.5t9.5 -23.5q0 -21 -25 -45q-28 -28 -34 -45q-9 -26 -17 -196q-7 -143 -7 -200q0 -218 25 -353
l12 -17q22 -3 15 -5l97 20q9 1 16 1q39 0 45 -37zM138 783q0 17 12 29.5t29 12.5t29 -12.5t12 -29.5q0 -18 -12 -30.5t-29 -12.5t-29 12.5t-12 30.5zM295 783q0 17 12 29.5t29 12.5t29 -12.5t12 -29.5q0 -18 -12 -30.5t-29 -12.5t-29 12.5t-12 30.5z" />
    <glyph glyph-name="currency" unicode="&#xa4;" 
 />
    <glyph glyph-name="guilsinglleft" unicode="&#x2039;" horiz-adv-x="166" 
d="M102 386l15 -16q-4 -13 -49 -129q19 -45 52 -130l-18 -12q-45 70 -91 141q5 6 91 146z" />
    <glyph glyph-name="guilsinglright" unicode="&#x203a;" horiz-adv-x="166" 
d="M29 99l-15 15q5 13 49 130q-19 44 -52 130l18 12q45 -71 91 -141q-4 -6 -91 -146z" />
    <glyph glyph-name="daggerdbl" unicode="&#x2021;" 
 />
    <glyph glyph-name="periodcentered" unicode="&#xb7;" horiz-adv-x="264" 
d="M83 273q0 20 13.5 34t32.5 14t32.5 -14t13.5 -34t-13.5 -33.5t-32.5 -13.5t-32.5 13.5t-13.5 33.5z" />
    <glyph glyph-name="periodcentered" unicode="&#x2219;" horiz-adv-x="264" 
d="M83 273q0 20 13.5 34t32.5 14t32.5 -14t13.5 -34t-13.5 -33.5t-32.5 -13.5t-32.5 13.5t-13.5 33.5z" />
    <glyph glyph-name="quotesinglbase" unicode="&#x201a;" horiz-adv-x="201" 
d="M156 68q2 -1 -2 -4q-9 -45 -29 -99q-23 -59 -35 -59q3 0 -23 1q36 67 38 122q-24 -19 -41 -37q-17 0 -28 39q-9 30 -9 55q0 29 11 43q7 10 33 25q34 20 58 41q2 -26 8 -75q2 -9 10.5 -29.5t8.5 -22.5z" />
    <glyph glyph-name="quotedblbase" unicode="&#x201e;" horiz-adv-x="372" 
d="M326 68q2 -1 -2 -4q-9 -45 -29 -99q-23 -59 -35 -59q3 0 -23 1q36 67 38 122q-24 -19 -41 -37q-17 0 -28 39q-9 30 -9 55q0 29 11 43q7 10 33 25q34 20 58 41q2 -26 8 -75q2 -9 10.5 -29.5t8.5 -22.5zM156 68q2 -1 -2 -4q-9 -45 -29 -99q-23 -59 -35 -59q3 0 -23 1
q36 67 38 122q-24 -19 -41 -37q-17 0 -28 39q-9 30 -9 55q0 29 11 43q7 10 33 25q34 20 58 41q2 -26 8 -75q2 -9 10.5 -29.5t8.5 -22.5z" />
    <glyph glyph-name="perthousand" unicode="&#x2030;" 
 />
    <glyph glyph-name="Acircumflex" unicode="&#xc2;" horiz-adv-x="565" 
d="M545 -12l-6 -6q-80 34 -171 34q-92 0 -108 -25l1 -2q9 -3 27 -11q-2 -10 -9 -32l-4 1l-18 -6q-29 6 -29 28q0 28 45 54t50 50q7 40 10 104q4 89 5 103q-1 4 0 41q-36 -5 -109 -21q-2 0 0 -10l3 -13q0 -71 -12 -117q-10 -41 -43 -109q-9 -19 -34 -45q-18 -19 -43 -38
t-47 -19q-26 0 -43.5 17t-17.5 41q0 51 74 109q6 0 8 -4q0 -1 -10.5 -24.5t-10.5 -38.5q0 -18 13.5 -33.5t32.5 -15.5q11 0 28 23q31 41 31 128q0 25 -9 81q-12 67 -23 68q-83 9 -83 51q0 30 27 30q20 0 20 -21q0 -8 -11 -24q7 -13 23 -13h21q-8 26 -4 92q9 157 110 218
l-16 5q-46 6 -78 24q-43 25 -43 63q0 17 11.5 29t28.5 12q30 0 30 -27q-7 -19 -22 -19q-16 0 -27 16h-1l-4 -12q0 -39 81 -56q61 -12 112 -8q39 5 120 10q19 1 58 14t56 13l8 -5l-38.5 -26.5t-45.5 -51.5q-16 -54 -16 -170v-111q0 -223 19 -273q8 -23 47 -46q36 -21 36 -26z
M340 383q0 211 -24 248l-11 3q-103 0 -103 -145q0 -19 5 -72q7 -71 16 -90q54 8 114 24q3 5 3 32zM331 764q-30 -17 -109 -49l-11 11l117 93l2 -1l1 1l2 -3l117 -87l-13 -14q-28 9 -63 27.5t-43 21.5z" />
    <glyph glyph-name="Ecircumflex" unicode="&#xca;" horiz-adv-x="543" 
d="M520 523q0 -25 -18 -39t-43 -14q-54 0 -69 48q-7 22 -7 86q0 60 -59 60t-75 -130q-6 -45 -6 -171h34q31 0 33 1q20 3 42 22q7 13 7 24q0 18 -22 40l23 2q15 0 27.5 -14.5t12.5 -28.5q0 -44 -15 -56q15 -10 17 -25q1 0 1 -27q0 -21 -18.5 -34t-39.5 -13l-16 1q20 10 23 47
q-7 33 -50 33q-7 0 -15.5 -1t-10.5 -1h-33q0 -13 -1 -47q-1 -39 -1 -60q0 -208 88 -208q59 0 86 44q23 37 18 93q-1 12 -1 22q0 66 46 66q13 0 23.5 -11t10.5 -24q0 -6 -8 -14t-15 -8l-14 3l-14 14q0 -2 -4 -8.5t-4 -10.5q0 -25 20.5 -72t20.5 -71q0 -30 -34 -48
q-30 -17 -57 -13l-158 22q-82 10 -143 10q-95 0 -96 -48q0 -11 16 -19t28 -8l3 2q6 22 32 24q8 0 15.5 -7t7.5 -14q0 -13 -21 -21q-17 -5 -32 -4q-39 2 -65 36l-4 17q0 34 49 56q57 26 69 50q24 48 24 231v100q0 130 -23 197q-10 29 -57 49q-41 17 -41 53q0 22 20 37t41 16
q52 4 52 -31q0 -17 -24 -17q-23 0 -27 25q-39 2 -39 -30q0 -42 81 -39q36 2 127 14q80 10 127 10q50 0 70 -24q15 -19 15 -59q0 -13 -2 -42.5t-2 -44.5q0 -33 15 -33l18 10q-6 9 -6 24q0 37 25 37q8 0 15 -13t7 -23zM261 774q-30 -17 -109 -49l-11 11l117 93l2 -1l1 1l2 -3
l117 -87l-13 -14q-28 9 -63 27.5t-43 21.5z" />
    <glyph glyph-name="Aacute" unicode="&#xc1;" horiz-adv-x="565" 
d="M545 -12l-6 -6q-80 34 -171 34q-92 0 -108 -25l1 -2q9 -3 27 -11q-2 -10 -9 -32l-4 1l-18 -6q-29 6 -29 28q0 28 45 54t50 50q7 40 10 104q4 89 5 103q-1 4 0 41q-36 -5 -109 -21q-2 0 0 -10l3 -13q0 -71 -12 -117q-10 -41 -43 -109q-9 -19 -34 -45q-18 -19 -43 -38
t-47 -19q-26 0 -43.5 17t-17.5 41q0 51 74 109q6 0 8 -4q0 -1 -10.5 -24.5t-10.5 -38.5q0 -18 13.5 -33.5t32.5 -15.5q11 0 28 23q31 41 31 128q0 25 -9 81q-12 67 -23 68q-83 9 -83 51q0 30 27 30q20 0 20 -21q0 -8 -11 -24q7 -13 23 -13h21q-8 26 -4 92q9 157 110 218
l-16 5q-46 6 -78 24q-43 25 -43 63q0 17 11.5 29t28.5 12q30 0 30 -27q-7 -19 -22 -19q-16 0 -27 16h-1l-4 -12q0 -39 81 -56q61 -12 112 -8q39 5 120 10q19 1 58 14t56 13l8 -5l-38.5 -26.5t-45.5 -51.5q-16 -54 -16 -170v-111q0 -223 19 -273q8 -23 47 -46q36 -21 36 -26z
M340 383q0 211 -24 248l-11 3q-103 0 -103 -145q0 -19 5 -72q7 -71 16 -90q54 8 114 24q3 5 3 32zM400 835q12 -18 19.5 -35.5t5.5 -18.5q-64 -11 -203 -48l-7 16z" />
    <glyph glyph-name="Edieresis" unicode="&#xcb;" horiz-adv-x="543" 
d="M520 523q0 -25 -18 -39t-43 -14q-54 0 -69 48q-7 22 -7 86q0 60 -59 60t-75 -130q-6 -45 -6 -171h34q31 0 33 1q20 3 42 22q7 13 7 24q0 18 -22 40l23 2q15 0 27.5 -14.5t12.5 -28.5q0 -44 -15 -56q15 -10 17 -25q1 0 1 -27q0 -21 -18.5 -34t-39.5 -13l-16 1q20 10 23 47
q-7 33 -50 33q-7 0 -15.5 -1t-10.5 -1h-33q0 -13 -1 -47q-1 -39 -1 -60q0 -208 88 -208q59 0 86 44q23 37 18 93q-1 12 -1 22q0 66 46 66q13 0 23.5 -11t10.5 -24q0 -6 -8 -14t-15 -8l-14 3l-14 14q0 -2 -4 -8.5t-4 -10.5q0 -25 20.5 -72t20.5 -71q0 -30 -34 -48
q-30 -17 -57 -13l-158 22q-82 10 -143 10q-95 0 -96 -48q0 -11 16 -19t28 -8l3 2q6 22 32 24q8 0 15.5 -7t7.5 -14q0 -13 -21 -21q-17 -5 -32 -4q-39 2 -65 36l-4 17q0 34 49 56q57 26 69 50q24 48 24 231v100q0 130 -23 197q-10 29 -57 49q-41 17 -41 53q0 22 20 37t41 16
q52 4 52 -31q0 -17 -24 -17q-23 0 -27 25q-39 2 -39 -30q0 -42 81 -39q36 2 127 14q80 10 127 10q50 0 70 -24q15 -19 15 -59q0 -13 -2 -42.5t-2 -44.5q0 -33 15 -33l18 10q-6 9 -6 24q0 37 25 37q8 0 15 -13t7 -23zM158 783q0 17 12 29.5t29 12.5t29 -12.5t12 -29.5
q0 -18 -12 -30.5t-29 -12.5t-29 12.5t-12 30.5zM295 783q0 17 12 29.5t29 12.5t29 -12.5t12 -29.5q0 -18 -12 -30.5t-29 -12.5t-29 12.5t-12 30.5z" />
    <glyph glyph-name="Egrave" unicode="&#xc8;" horiz-adv-x="543" 
d="M520 523q0 -25 -18 -39t-43 -14q-54 0 -69 48q-7 22 -7 86q0 60 -59 60t-75 -130q-6 -45 -6 -171h34q31 0 33 1q20 3 42 22q7 13 7 24q0 18 -22 40l23 2q15 0 27.5 -14.5t12.5 -28.5q0 -44 -15 -56q15 -10 17 -25q1 0 1 -27q0 -21 -18.5 -34t-39.5 -13l-16 1q20 10 23 47
q-7 33 -50 33q-7 0 -15.5 -1t-10.5 -1h-33q0 -13 -1 -47q-1 -39 -1 -60q0 -208 88 -208q59 0 86 44q23 37 18 93q-1 12 -1 22q0 66 46 66q13 0 23.5 -11t10.5 -24q0 -6 -8 -14t-15 -8l-14 3l-14 14q0 -2 -4 -8.5t-4 -10.5q0 -25 20.5 -72t20.5 -71q0 -30 -34 -48
q-30 -17 -57 -13l-158 22q-82 10 -143 10q-95 0 -96 -48q0 -11 16 -19t28 -8l3 2q6 22 32 24q8 0 15.5 -7t7.5 -14q0 -13 -21 -21q-17 -5 -32 -4q-39 2 -65 36l-4 17q0 34 49 56q57 26 69 50q24 48 24 231v100q0 130 -23 197q-10 29 -57 49q-41 17 -41 53q0 22 20 37t41 16
q52 4 52 -31q0 -17 -24 -17q-23 0 -27 25q-39 2 -39 -30q0 -42 81 -39q36 2 127 14q80 10 127 10q50 0 70 -24q15 -19 15 -59q0 -13 -2 -42.5t-2 -44.5q0 -33 15 -33l18 10q-6 9 -6 24q0 37 25 37q8 0 15 -13t7 -23zM187 835q-12 -18 -19 -35.5t-6 -18.5q64 -11 204 -48
l6 16z" />
    <glyph glyph-name="Iacute" unicode="&#xcd;" horiz-adv-x="294" 
d="M11 685q0 -13 20 -23t34 -10q27 0 74 10q51 11 74 12q5 1 12 3t10 2q13 0 38 -18l-4 -15q-29 7 -21 7q-50 0 -63 -135q-3 -34 -3 -162q0 -173 0 -155q2 -91 15 -155q4 -19 30 -46q23 -25 23 -41q0 -13 -9 -22.5t-22 -9.5q-24 0 -24 22q0 20 34 18q-29 36 -125 36
q-52 0 -85 -26l-7 9q44 53 56 122q8 42 7 136v164q-2 96 -15 163q-5 29 -33.5 55t-28.5 46zM220 835q12 -18 19.5 -35.5t5.5 -18.5q-64 -11 -203 -48l-7 16z" />
    <glyph glyph-name="Icircumflex" unicode="&#xce;" horiz-adv-x="294" 
d="M273 661l-4 -15q-29 7 -21 7q-50 0 -63 -135q-3 -34 -3 -162q0 -173 0 -155q2 -91 15 -155q4 -19 30 -46q23 -25 23 -41q0 -13 -9 -22.5t-22 -9.5q-24 0 -24 22q0 20 34 18q-29 36 -125 36q-52 0 -85 -26l-7 9q44 53 56 122q8 42 7 136v164q-2 96 -15 163q-5 30 -31 61
t-29 51q-4 24 18 24q8 0 8 -8q0 -6 -6 -15q0 -13 17 -23q14 -9 28 -9q27 0 74 10q51 11 74 12q5 1 12 3t10 2q13 0 38 -18zM141 764q-25 -17 -99 -49l-11 11l107 93l2 -1l1 1l2 -3l107 -87l-13 -14q-28 9 -58 27.5t-38 21.5z" />
    <glyph glyph-name="Idieresis" unicode="&#xcf;" horiz-adv-x="294" 
d="M273 661l-4 -15q-29 7 -21 7q-50 0 -63 -135q-3 -34 -3 -162q0 -173 0 -155q2 -91 15 -155q4 -19 30 -46q23 -25 23 -41q0 -13 -9 -22.5t-22 -9.5q-24 0 -24 22q0 20 34 18q-29 36 -125 36q-52 0 -85 -26l-7 9q44 53 56 122q8 42 7 136v164q-2 96 -15 163q-5 28 -33 61
q-27 30 -27 51q0 19 17 33t37 14q11 0 20.5 -8t9.5 -19q0 -17 -24 -20q-16 3 -30 15l-10 -14q0 -13 17 -23q14 -9 28 -9q27 0 74 10q51 11 74 12q5 1 12 3t10 2q13 0 38 -18zM38 783q0 17 12 29.5t29 12.5t29 -12.5t12 -29.5q0 -18 -12 -30.5t-29 -12.5t-29 12.5t-12 30.5z
M175 783q0 17 12 29.5t29 12.5t29 -12.5t12 -29.5q0 -18 -12 -30.5t-29 -12.5t-29 12.5t-12 30.5z" />
    <glyph glyph-name="Igrave" unicode="&#xcc;" horiz-adv-x="294" 
d="M273 661l-4 -15q-29 7 -21 7q-50 0 -63 -135q-3 -34 -3 -162q0 -173 0 -155q2 -91 15 -155q4 -19 30 -46q23 -25 23 -41q0 -13 -9 -22.5t-22 -9.5q-24 0 -24 22q0 20 34 18q-29 36 -125 36q-52 0 -85 -26l-7 9q44 53 56 122q8 42 7 136v164q-2 96 -15 163q-5 28 -33 61
q-27 30 -27 51q0 19 17 33t37 14q11 0 20.5 -8t9.5 -19q0 -17 -24 -20q-16 3 -30 15l-10 -14q0 -13 17 -23q14 -9 28 -9q27 0 74 10q51 11 74 12q5 1 12 3t10 2q13 0 38 -18zM67 835q-12 -18 -19 -35.5t-6 -18.5q64 -11 204 -48l6 16z" />
    <glyph glyph-name="Oacute" unicode="&#xd3;" horiz-adv-x="504" 
d="M461 313q0 -152 -168 -307q-41 -38 -52 -38q-24 0 -84 48q-53 44 -73 71q-80 110 -80 199q0 106 34 168q26 48 87 113q66 71 95 75q4 1 6 -3q2 -5 0 -7q-28 -33 -56 -90q-47 -92 -54 -185q-8 -95 52 -183.5t135 -93.5q29 -2 57 46q26 43 26 75q0 45 -40 113
q-38 60 -75 121q-40 73 -40 133q0 49 26 95q30 54 75 54q18 0 32 -10.5t14 -28.5q0 -27 -25 -27q-22 0 -22 22q0 2 6 21l-7 3q-17 0 -27 -21q-7 -16 -7 -36q0 -40 42 -95l80 -100q43 -66 43 -132zM320 835q12 -18 19.5 -35.5t5.5 -18.5q-64 -11 -203 -48l-7 16z" />
    <glyph glyph-name="Ocircumflex" unicode="&#xd4;" horiz-adv-x="504" 
d="M461 313q0 -152 -168 -307q-41 -38 -52 -38q-24 0 -84 48q-53 44 -73 71q-80 110 -80 199q0 106 34 168q26 48 87 113q66 71 95 75q4 1 6 -3q2 -5 0 -7q-28 -33 -56 -90q-47 -92 -54 -185q-8 -95 52 -183.5t135 -93.5q29 -2 57 46q26 43 26 75q0 45 -40 113
q-38 60 -75 121q-40 73 -40 133q0 45 26 80q29 39 75 39q18 0 32 -10.5t14 -28.5q0 -27 -25 -27q-22 0 -22 22q0 2 6 21l-7 3q-34 0 -34 -27q0 -40 42 -95l80 -100q43 -66 43 -132zM251 764q-30 -17 -109 -49l-11 11l117 93l2 -1l1 1l2 -3l117 -87l-13 -14q-28 9 -63 27.5
t-43 21.5z" />
    <glyph glyph-name="Ograve" unicode="&#xd2;" horiz-adv-x="504" 
d="M461 313q0 -152 -168 -307q-41 -38 -52 -38q-24 0 -84 48q-53 44 -73 71q-80 110 -80 199q0 106 34 168q26 48 87 113q66 71 95 75q4 1 6 -3q2 -5 0 -7q-28 -33 -56 -90q-47 -92 -54 -185q-8 -95 52 -183.5t135 -93.5q29 -2 57 46q26 43 26 75q0 45 -40 113
q-38 60 -75 121q-40 73 -40 133q0 49 26 95q30 54 75 54q18 0 32 -10.5t14 -28.5q0 -27 -25 -27q-22 0 -22 22q0 2 6 21l-7 3q-17 0 -27 -21q-7 -16 -7 -36q0 -40 42 -95l80 -100q43 -66 43 -132zM147 835q-12 -18 -19 -35.5t-6 -18.5q64 -11 204 -48l6 16z" />
    <glyph glyph-name="Uacute" unicode="&#xda;" horiz-adv-x="583" 
d="M574 49q0 -27 -25 -27q-10 0 -18 5t-9 26q-15 -2 -68 -28q-26 -8 -98 -46q-15 -9 -17 -9q-16 0 -16 27l5 34l1 67q-3 1 -29 -37q-53 -77 -125 -77q-66 0 -112 69q-19 29 -19 118q0 79 43 212t43 198q0 93 -59 93q-21 0 -37 -14.5t-13 -35.5q3 0 8.5 2.5t10.5 2.5
q24 0 24 -22q0 -29 -27 -29h-5q-15 0 -24 16q-7 12 -7 24q0 32 19.5 52t50.5 20q62 0 92 -60q21 -42 21 -98l-27 -257q0 -66 8 -99q14 -51 54 -80q13 -10 29 -10q42 0 80 45q7 7 7 25v118l-2 246q-4 43 -4 62q0 11 1 11h1h-1q-1 1 -6 14q-8 26 -45.5 43t-39.5 38
q-4 45 46 45q21 0 21 -16q0 -12 -8 -23q-2 1 -8.5 -2t-10.5 -3q-9 0 -16 11q-5 -3 -5 -8q0 -10 20 -19q16 -7 26 -7q3 -2 26 -2q26 -1 40 2q73 14 113 28q17 7 31 7q13 0 22 -7q2 0 2 -12q-8 -2 -23 -2q-35 0 -58 -52q-19 -43 -19 -80l1 -354q0 -106 27 -130l21 -3
q33 21 59 16q28 -11 28 -28zM350 835q12 -18 19.5 -35.5t5.5 -18.5q-64 -11 -203 -48l-7 16z" />
    <glyph glyph-name="Ucircumflex" unicode="&#xdb;" horiz-adv-x="583" 
d="M258 692q0 -10 20 -19q16 -7 26 -7q3 -2 26 -2q26 -1 40 2q73 14 113 28q17 7 31 7q13 0 22 -7q2 0 2 -12q-8 -2 -23 -2q-35 0 -58 -52q-19 -43 -19 -80l1 -354q0 -106 27 -130l21 -3q33 21 59 16q28 -11 28 -28q0 -27 -25 -27q-10 0 -18 5t-9 26q-15 -2 -68 -28
q-26 -8 -98 -46q-15 -9 -17 -9q-16 0 -16 27l5 34l1 67q-3 1 -29 -37q-53 -77 -125 -77q-66 0 -112 69q-19 29 -19 118q0 79 43 212t43 198q0 93 -59 93q-21 0 -37 -14.5t-13 -35.5q3 0 8.5 2.5t10.5 2.5q24 0 24 -22q0 -29 -27 -29h-5q-15 0 -24 16q-7 12 -7 24
q0 32 19.5 52t50.5 20q62 0 92 -60q21 -42 21 -98l-27 -257q0 -66 8 -99q14 -51 54 -80q13 -10 29 -10q42 0 80 45q7 7 7 25v118l-2 246q-4 43 -4 62q0 11 1 11h1h-1q-1 1 -6 14q-8 26 -44.5 39.5t-38.5 34.5q4 3 7 6q10 7 10 5zM271 764q-30 -17 -109 -49l-11 11l117 93
l2 -1l1 1l2 -3l117 -87l-13 -14q-28 9 -63 27.5t-43 21.5z" />
    <glyph glyph-name="Ugrave" unicode="&#xd9;" horiz-adv-x="583" 
d="M574 49q0 -27 -25 -27q-10 0 -18 5t-9 26q-15 -2 -68 -28q-28 -18 -56 -35q-34 -20 -59 -20q-16 0 -16 27l5 34l1 67q-3 1 -29 -37q-53 -77 -125 -77q-66 0 -112 69q-19 29 -19 118q0 79 43 212t43 198q0 93 -59 93q-21 0 -37 -14.5t-13 -35.5q3 0 8.5 2.5t10.5 2.5
q24 0 24 -22q0 -29 -27 -29h-5q-15 0 -24 16q-7 12 -7 24q0 32 19.5 52t50.5 20q62 0 92 -60q21 -42 21 -98l-27 -257q0 -66 8 -99q14 -51 54 -80q13 -10 29 -10q42 0 80 45q7 7 7 25v118l-2 246q-4 43 -4 62q0 11 1 11h1h-1q-1 1 -6 14q-8 26 -45.5 38.5t-39.5 32.5
q-4 45 46 45q21 0 21 -16q0 -12 -8 -23q-2 1 -8.5 -2t-10.5 -3q-9 0 -16 11q-5 -3 -5 -8q0 -10 19 -18.5t27 -7.5q4 -2 66 10q73 14 113 28q17 7 31 7q13 0 22 -7q2 0 2 -12q-8 -2 -23 -2q-35 0 -58 -52q-19 -43 -19 -80l1 -354q0 -106 27 -130l21 -3q33 21 59 16
q28 -11 28 -28zM175 835q-12 -18 -19.5 -35.5t-6.5 -18.5q64 -11 204 -48l6 16z" />
    <glyph glyph-name="circumflex" unicode="&#x2c6;" horiz-adv-x="287" 
d="M141 494q-25 -17 -99 -49l-10 19l104 82l2 3l2 -1l1 1l2 -3l104 -82l-10 -19q-28 9 -58 27.5t-38 21.5z" />
    <glyph glyph-name="tilde" unicode="&#x2dc;" horiz-adv-x="342" 
d="M285 503q-27 -56 -69 -56q-18 0 -51.5 14t-51.5 14q-28 0 -48 -24q-4 1 -14 6q25 59 82 59q17 0 46.5 -13t44.5 -13q24 0 50 21z" />
    <glyph glyph-name="macron" unicode="&#xaf;" horiz-adv-x="279" 
d="M28 495h208v-46h-208v46z" />
    <glyph glyph-name="macron" unicode="&#x2c9;" horiz-adv-x="279" 
d="M28 495h208v-46h-208v46z" />
    <glyph glyph-name="cedilla" unicode="&#xb8;" horiz-adv-x="287" 
d="M133 -58q48 3 39 4q61 -11 61 -60q0 -31 -28 -57t-69 -26q-31 0 -63 16l11 23q17 -10 32 -10q20 0 34 17q12 14 12 33q0 34 -33 34q-5 0 -11 -1l-28 -15q21 37 48 99v-2q26 7 26 1q-13 -21 -28 -49z" />
    <glyph glyph-name="Scaron" unicode="&#x160;" 
 />
    <glyph glyph-name="scaron" unicode="&#x161;" 
 />
    <glyph glyph-name="brokenbar" unicode="&#xa6;" 
 />
    <glyph glyph-name="Eth" unicode="&#xd0;" 
 />
    <glyph glyph-name="eth" unicode="&#xf0;" 
 />
    <glyph glyph-name="Yacute" unicode="&#xdd;" 
 />
    <glyph glyph-name="yacute" unicode="&#xfd;" 
 />
    <glyph glyph-name="Thorn" unicode="&#xde;" 
 />
    <glyph glyph-name="thorn" unicode="&#xfe;" 
 />
    <glyph glyph-name="uni00AD" unicode="&#xad;" 
 />
    <glyph glyph-name="uni00AD" unicode="&#x2212;" 
 />
    <glyph glyph-name="multiply" unicode="&#xd7;" 
 />
    <glyph glyph-name="uni00B9" unicode="&#xb9;" 
 />
    <glyph glyph-name="uni00B2" unicode="&#xb2;" 
 />
    <glyph glyph-name="uni00B3" unicode="&#xb3;" 
 />
    <glyph glyph-name="onehalf" unicode="&#xbd;" 
 />
    <glyph glyph-name="onequarter" unicode="&#xbc;" 
 />
    <glyph glyph-name="threequarters" unicode="&#xbe;" 
 />
    <glyph glyph-name="glyph218" 
 />
    <glyph glyph-name="Lslash" unicode="&#x141;" 
 />
    <glyph glyph-name="lslash" unicode="&#x142;" 
 />
    <glyph glyph-name="glyph221" 
 />
    <glyph glyph-name="glyph222" 
 />
    <glyph glyph-name="glyph223" 
 />
    <glyph glyph-name="Zcaron" unicode="&#x17d;" 
 />
    <glyph glyph-name="zcaron" unicode="&#x17e;" 
 />
    <glyph glyph-name="glyph226" 
 />
    <glyph glyph-name="glyph227" 
 />
    <glyph glyph-name="glyph228" 
 />
    <glyph glyph-name="glyph229" 
 />
    <glyph glyph-name="glyph230" 
 />
    <glyph glyph-name="glyph231" 
 />
    <glyph glyph-name="glyph232" 
 />
    <glyph glyph-name="notequal" unicode="&#x2260;" 
 />
    <glyph glyph-name="infinity" unicode="&#x221e;" 
 />
    <glyph glyph-name="lessequal" unicode="&#x2264;" 
 />
    <glyph glyph-name="greaterequal" unicode="&#x2265;" 
 />
    <glyph glyph-name="partialdiff" unicode="&#x2202;" horiz-adv-x="172" 
d="M170 342v-55l-52 -55l-1 -139q0 -26 4 -38l22 -54h-81q-23 39 -23 87v61l-49 -51v52l49 52v355q6 67 -32 78q5 7 34 30.5t37 26.5q29 -17 37 -64q3 -19 3 -71v-271z" />
    <glyph glyph-name="summation" unicode="&#x2211;" horiz-adv-x="469" 
d="M445 208q0 -92 -52 -152q-54 -63 -144 -63q-23 0 -62.5 15t-54.5 15q-29 0 -48.5 -39.5t-22.5 -40.5l-10 5q26 89 26 142q0 65 -19 108q-15 -8 -19 -8q-11 0 -18.5 9.5t-7.5 20.5q0 27 29 27q24 0 46 -58q32 -82 51 -108q42 -58 114 -58q42 0 69 25t27 67q0 73 -78 127
l-144 92q-78 62 -78 154q0 87 52.5 143t138.5 56q16 0 50 -12t52 -12q12 0 23.5 13.5t20.5 13.5q6 0 7 -7q-35 -98 -35 -176q0 -34 11 -54q15 12 27 12q9 0 18.5 -7.5t9.5 -16.5q0 -13 -9.5 -23t-22.5 -9q-43 2 -58 69q-14 61 -27 122q-26 65 -94 65q-35 0 -59.5 -30
t-24.5 -66q0 -73 82 -127q76 -44 152 -89q82 -59 82 -145zM239 780q24 17 98 49l10 -19l-104 -82l-2 -3l-1 1l-2 -1l-2 3l-104 82l10 19q28 -9 58 -27.5t39 -21.5z" />
    <glyph glyph-name="product" unicode="&#x220f;" horiz-adv-x="324" 
d="M299 152q0 -44 -23 -71q-10 -13 -68 -57q-61 -45 -69 -45q-3 0 -25 23.5t-50 23.5q-25 0 -25 -37q0 -5 -4 -9q-16 1 -16 29q0 31 33 54q30 20 63 20q30 0 56 -19t23 -19q27 0 27 61q0 20 -17.5 50.5t-35.5 30.5q-7 0 -41 -23t-47 -23q-31 0 -48 31q-14 26 -14 59
q0 49 47 92q44 33 87 65q14 13 34 28q2 1 21 -36q21 -41 47 -41q3 0 9 2.5t9 2.5q8 0 8 -9q0 -16 -24.5 -30.5t-42.5 -14.5q-54 0 -86 53q-23 -4 -30 -25q-4 -12 -4 -41q0 -18 17 -45t33 -27q11 0 42 24t49 24q32 0 50 -36q15 -30 15 -65zM149 490q24 17 98 49l10 -19
l-104 -82l-2 -3l-1 1l-2 -1l-2 3l-104 82l10 19q28 -9 58 -27.5t39 -21.5z" />
    <glyph glyph-name="pi" unicode="&#x3c0;" horiz-adv-x="555" 
d="M644 -153q-2 -23 -17.5 -38.5t-33.5 -12.5q-18 1 -25 19q1 25 23 23q12 1 22 -10q5 1 10 20q-6 15 -31 14q-62 -4 -190 -66q-105 -50 -181 -100q-7 0 -7 7q0 2 37.5 41.5t43.5 51.5q17 36 27 160q4 73 9 146q1 25 2 18q-81 -120 -145 -120q-56 0 -89 56q-27 46 -27 107
q0 59 19 190.5t19 191.5q0 127 -68 127q-18 0 -29.5 -16.5t-11.5 -34.5l2 -1q7 8 20 8q21 0 21 -24q0 -26 -25 -26q-15 0 -25.5 12.5t-10.5 28.5q0 29 20 50t48 21q94 0 125 -106q17 -57 17 -180q0 -25 -2 -89.5t-2 -88.5q0 -41 15 -81q20 -51 53 -51q36 0 76 69v63
q0 182 -5 252q-4 33 -9 99q-1 35 -27 60q-15 14 -47 29q-25 11 -25 17t8 8q61 -29 96 -29q164 0 177 60q-13 -9 -28 -9q-8 0 -15.5 7.5t-7.5 16.5q0 21 35 21q13 0 22.5 -10.5t9.5 -23.5q0 -21 -25 -45q-28 -28 -34 -45q-9 -26 -17 -196q-7 -143 -7 -200q0 -218 25 -353
l12 -17q22 -3 15 -5l97 20q9 1 16 1q39 0 45 -37zM350 835q12 -18 19.5 -35.5t5.5 -18.5q-64 -11 -203 -48l-7 16z" />
    <glyph glyph-name="integral" unicode="&#x222b;" horiz-adv-x="384" 
d="M231 559q27 -42 26 -44q-2 -2 -45 -21q-52 -23 -100 -39l-8 15zM352 330q0 -47 -24 -100q-16 -36 -58 -104l-100 -130q-78 -106 -75 -148q5 -68 51 -95q37 -22 113 -22q31 0 52 23.5t24 23.5q7 0 7 -9q0 -11 -28.5 -59.5t-36.5 -53.5q-14 -11 -46 -11q-80 0 -127.5 42
t-47.5 111q0 68 28 125q17 36 52 78q28 34 28 43q0 18 -100 256q-5 20 -23.5 35.5t-37.5 10.5q0 9 44 36q17 11 46 25q38 -5 55 -66q71 74 123 74q34 0 57.5 -26t23.5 -59zM273 277q0 19 -12 46q-16 37 -43 41q-17 2 -37.5 -16t-20.5 -31q0 -9 34 -88q37 -85 41 -100
q17 25 28 74q10 43 10 74z" />
    <glyph glyph-name="Omega" unicode="&#x3a9;" horiz-adv-x="547" 
d="M8 348h50q3 25 11 52h-61v38h75q36 87 104.5 162t140.5 107q13 -17 53.5 -38t62.5 -21q5 0 9 1l47 16l7 -8q-41 -126 -100 -126q-15 0 -31 10l-13 7q-22 18 -60 39q-32 17 -49 34q-30 -7 -63 -71q-28 -54 -41 -112h212v-38h-218q0 -27 4 -52h214v-38h-206q26 -91 97 -146
t171 -55l14 4q21 29 58 87l20 -17q-56 -96 -117 -195q-11 -8 -42 -8q-123 0 -213 105q-85 100 -88 225h-48v38z" />
    <glyph glyph-name="Omega" unicode="&#x2126;" horiz-adv-x="547" 
d="M8 348h50q3 25 11 52h-61v38h75q36 87 104.5 162t140.5 107q13 -17 53.5 -38t62.5 -21q5 0 9 1l47 16l7 -8q-41 -126 -100 -126q-15 0 -31 10l-13 7q-22 18 -60 39q-32 17 -49 34q-30 -7 -63 -71q-28 -54 -41 -112h212v-38h-218q0 -27 4 -52h214v-38h-206q26 -91 97 -146
t171 -55l14 4q21 29 58 87l20 -17q-56 -96 -117 -195q-11 -8 -42 -8q-123 0 -213 105q-85 100 -88 225h-48v38z" />
    <glyph glyph-name="radical" unicode="&#x221a;" 
 />
    <glyph glyph-name="approxequal" unicode="&#x2248;" 
 />
    <glyph glyph-name="approxequal" unicode="&#x22f2;" 
 />
    <glyph glyph-name="Delta" unicode="&#x394;" 
 />
    <glyph glyph-name="Delta" unicode="&#x2206;" 
 />
    <glyph glyph-name="lozenge" unicode="&#x25ca;" 
 />
    <glyph glyph-name="fraction" unicode="&#x2044;" 
 />
    <glyph glyph-name="uniF001" unicode="&#xf001;" 
 />
    <glyph glyph-name="uniF002" unicode="&#xf002;" 
 />
    <glyph glyph-name="uniF000" unicode="&#xf000;" 
 />
    <glyph glyph-name="dotlessi" unicode="&#x131;" horiz-adv-x="176" 
d="M53 53q0 -28 16 -52h84q-7 13 -23 80q0 204 0 199q-3 99 -48 126q-8 -3 -32.5 -26t-29.5 -31q38 -11 32 -79z" />
    <glyph glyph-name="breve" unicode="&#x2d8;" horiz-adv-x="259" 
d="M218 491q-34 -59 -103 -59q-74 0 -101 59l14 9q30 -35 87 -35q31 0 60 12.5t29 22.5z" />
    <glyph glyph-name="dotaccent" unicode="&#x2d9;" horiz-adv-x="210" 
d="M67 484q0 16 11 27.5t27 11.5q15 0 26 -11.5t11 -27.5t-11 -27.5t-26 -11.5q-16 0 -27 11.5t-11 27.5z" />
    <glyph glyph-name="ring" unicode="&#x2da;" horiz-adv-x="342" 
d="M164 570q27 0 46 -18.5t19 -45.5t-19 -45.5t-46 -18.5q-28 0 -47 18.5t-19 45.5t19 45.5t47 18.5zM164 544q-17 0 -28.5 -11t-11.5 -27t11.5 -27t28.5 -11q16 0 27.5 11t11.5 27t-11.5 27t-27.5 11z" />
    <glyph glyph-name="hungarumlaut" unicode="&#x2dd;" horiz-adv-x="262" 
d="M164 542q45 -23 45 -25q-1 -2 -80 -92l-14 9zM95 541q45 -23 44 -25q0 -2 -79 -92l-15 9z" />
    <glyph glyph-name="ogonek" unicode="&#x2db;" horiz-adv-x="210" 
d="M115 -4l-42 -36q-14 -14 -31 -46q-12 -25 -12 -51q0 -63 48 -63t71 63q-36 -30 -54 -30q-24 0 -24 36q0 22 10 50q20 56 80 92q-2 2 -22.5 -5t-23.5 -10z" />
    <glyph glyph-name="caron" unicode="&#x2c7;" horiz-adv-x="287" 
d="M129 480q24 17 98 49l10 -19l-104 -82l-2 -3l-1 1l-2 -1l-2 3l-104 82l10 19q28 -9 58 -27.5t39 -21.5z" />
    </font>
</defs>
</svg>
