<?xml version="1.0" standalone="no"?>
<!DOCTYPE svg PUBLIC "-//W3C//DTD SVG 1.1//EN" "http://www.w3.org/Graphics/SVG/1.1/DTD/svg11.dtd" >
<svg>
<metadata>
Created by FontForge 20120731 at Mon Apr 15 12:27:09 2019
 By www-data
Digitized by Dan X. Solo. Software (c) 1999 by Dover Publications, Inc., New York.
</metadata>
<defs>
<font id="MediciText" horiz-adv-x="20" >
  <font-face 
    font-family="Medici Text"
    font-weight="400"
    font-stretch="normal"
    units-per-em="1000"
    panose-1="0 0 4 0 0 0 0 0 0 0"
    ascent="800"
    descent="-200"
    x-height="494"
    cap-height="717"
    bbox="-89 -335 1155 940"
    underline-thickness="20"
    underline-position="-123"
    unicode-range="U+0020-F002"
  />
<missing-glyph horiz-adv-x="500" 
d="M63 0v800h375v-800h-375zM125 63h250v675h-250v-675z" />
    <glyph glyph-name=".notdef" horiz-adv-x="500" 
d="M63 0v800h375v-800h-375zM125 63h250v675h-250v-675z" />
    <glyph glyph-name="glyph1" horiz-adv-x="0" 
 />
    <glyph glyph-name="glyph2" horiz-adv-x="184" 
 />
    <glyph glyph-name="space" unicode=" " horiz-adv-x="184" 
 />
    <glyph glyph-name="exclam" unicode="!" horiz-adv-x="262" 
d="M103 188l-29 275q-9 88 -22 109q-5 7 -20.5 21t-15.5 16q0 13 8 13q3 0 20.5 -3.5t20.5 -3.5q71 0 111 21q7 4 55 26l12 -14q-15 -8 -40 -23q-20 -13 -22.5 -39t-3.5 -53q-17 -150 -27 -345h-47zM131 125q17 -56 65 -65q-43 -25 -66 -68q-20 39 -65 66q48 23 66 67z" />
    <glyph glyph-name="quotedbl" unicode="&#x22;" horiz-adv-x="293" 
d="M88 417h-16l-20 114q-13 77 -13 111q0 46 40 46q41 0 41 -48q0 -36 -13 -110q-10 -57 -19 -113zM218 417h-16l-20 113q-12 71 -12 110q0 48 39 48q41 0 41 -46q0 -35 -13 -112z" />
    <glyph glyph-name="numbersign" unicode="#" horiz-adv-x="466" 
d="M465 405h-110l-26 -141h117l-10 -56h-117l-41 -215h-49l41 215h-110l-41 -215h-48l40 215h-115l11 56h114l27 141h-123l11 56h122l41 215h49l-41 -215h109l41 215h49l-41 -215h111zM196 405l-27 -141h112l26 141h-111z" />
    <glyph glyph-name="dollar" unicode="$" horiz-adv-x="499" 
d="M248 0q0 -2 -25 0v89q-53 53 -127 53q-27 0 -56 -23t-32 -23q-4 0 -9 9l154 176q-4 8 -16 15q-51 28 -73 28q-10 0 -29.5 -17t-23.5 -17q-5 0 -12 7v7q5 6 13 10q39 19 44 42q1 6 2 91q0 4 2 17q1 9 -1 15t-8.5 10.5t-31.5 2.5q-25 -3 -28 -1q-2 5 -4 11q-1 3 4 6
q80 0 121 17q27 11 101 64v88h25v-84q13 -11 43 -30q23 -15 73 -15q26 0 45 13q10 7 34 34h14q2 -3 2 -7l-144 -161q5 -11 48 -27q35 -14 47 -14q15 0 52 27h11q3 0 3 -5q0 -6 -27 -20.5t-31 -36.5q-3 -5 -3 -9v-122q0 -3 6.5 -9.5t9.5 -7.5t31 -3q17 -2 21 -7
q-5 -13 -6 -13q-3 0 -17 1t-17 1q-59 0 -104 -28q-23 -14 -81 -68v-86zM349 502q-33 -9 -62 -9q-28 0 -61 12q-10 4 -24.5 17.5t-15.5 13.5q-22 0 -22 -55v-90q43 -30 54 -30q10 0 72 72q21 24 59 69zM305 210v73q0 35 -8 41q-27 13 -55 27l-130 -148h7q23 8 48 8
q37 0 83.5 -24t42.5 -24q12 0 12 47z" />
    <glyph glyph-name="percent" unicode="%" horiz-adv-x="694" 
d="M289 607q0 -3 -12.5 -12.5l-12.5 -9.5q-15 -14 -14 -36v-198q0 -41 11 -60q-73 6 -111 -5q-9 -2 -58 -34q1 0 -23 18t-60 18q-10 0 -5 7q16 12 33 38l1 217q0 24 -8 42l-2.5 6l-2.5 6q16 -2 45 -2q41 0 71 12q26 10 54 35q-4 4 63 -49q26 13 28 13zM175 558
q-28 40 -31 40q-6 0 -14 -6t-15 -7l-1 -251q37 -31 39 -31q3 0 21 9zM553 622q-22 -30 -221 -313l-226 -320l-21 15l226 320q73 106 221 313q3 4 12.5 -5t8.5 -10zM659 347q0 -3 -12.5 -12.5l-12.5 -9.5q-15 -14 -14 -36v-198q0 -41 11 -60q-73 6 -111 -5q-9 -2 -58 -34
q1 0 -23 18t-60 18q-10 0 -5 7q16 12 33 38l1 217q0 24 -8 42l-2.5 6l-2.5 6q16 -2 45 -2q41 0 71 12q26 10 54 35q-4 4 63 -49q26 13 28 13zM545 298q-28 40 -31 40q-6 0 -14 -6t-15 -7l-1 -251q37 -31 39 -31q3 0 21 9z" />
    <glyph glyph-name="ampersand" unicode="&#x26;" horiz-adv-x="626" 
d="M170 -21q-56 70 -171 152l196 203q-63 124 -130 162l254 205q50 -85 121 -166l-142 -139q25 -45 71 -148l128 148q6 -28 21 -45.5t32 -17.5q25 0 42 30q-7 -44 -35 -80q-33 -41 -73 -41q-34 0 -50 37l-53 -63q33 -67 52 -93q41 -54 88 -54q34 0 66 48q-2 -33 -5 -45
q-6 -22 -21 -39q-41 -47 -96 -47q-83 0 -122 51q-19 24 -50 93zM225 91l56 62q-19 43 -71 160l-104 -112q31 -26 62 -51q34 -29 57 -59zM280 423l62 56l-92 127l-65 -53q57 -57 95 -130z" />
    <glyph glyph-name="quotesingle" unicode="'" horiz-adv-x="170" 
d="M91 403h-16q-7 39 -21 119t-14 114q0 49 43 49q42 0 42 -48q0 -33 -14 -115z" />
    <glyph glyph-name="parenleft" unicode="(" horiz-adv-x="253" 
d="M8 334q0 -283 209 -438l10 7q-57 83 -87 207q-27 110 -27 224q0 182 107 396l-10 6q-111 -101 -163 -225q-39 -93 -39 -177z" />
    <glyph glyph-name="parenright" unicode=")" horiz-adv-x="253" 
d="M227 298q0 283 -209 438l-10 -7q57 -83 88 -207q27 -110 27 -224q0 -182 -108 -396l10 -6q111 101 163 225q39 93 39 177z" />
    <glyph glyph-name="asterisk" unicode="*" horiz-adv-x="442" 
d="M180 475q-34 -19 -51 -38q-18 -24 -35.5 -46.5t-43.5 -22.5q-19 0 -32 13t-13 32q0 49 84 55q34 3 79 28q-13 7 -33 18q-17 8 -36 10q-53 6 -61 9q-33 12 -33 47q0 19 13 31.5t32 12.5q23 0 40 -16l38 -48t52 -42v18q0 27 -17.5 67t-17.5 54q0 20 13.5 35.5t33.5 15.5
t33.5 -15.5t13.5 -36.5q0 -14 -20 -56q-15 -31 -15 -82q24 14 32 20q18 13 55 66q19 20 44 20q19 0 32 -12.5t13 -31.5q0 -32 -29 -45q-14 -6 -58 -11q-38 -5 -76 -28q42 -24 68 -27q53 -7 62 -10q33 -12 33 -46q0 -19 -12 -31t-31 -12q-22 0 -40 17q-8 7 -39 45
q-19 23 -54 43v-18q0 -26 17 -66t17 -54q0 -21 -13 -36.5t-33 -15.5t-33.5 15.5t-13.5 35.5q0 10 17.5 54.5t17.5 84.5z" />
    <glyph glyph-name="plus" unicode="+" horiz-adv-x="478" 
d="M187 486h46v-177h174v-46h-174v-177h-46v177h-174v46h174v177z" />
    <glyph glyph-name="comma" unicode="," horiz-adv-x="181" 
d="M162 65q-45 23 -69 73q-24 -41 -78 -76q43 -19 63 -50q-28 -45 -24 -106h14q1 32 34 87t60 72z" />
    <glyph glyph-name="hyphen" unicode="-" horiz-adv-x="296" 
d="M36 243q0 3 219 0l-20 -39h-222q23 36 23 39z" />
    <glyph glyph-name="hyphen" unicode="&#x2010;" horiz-adv-x="296" 
d="M36 243q0 3 219 0l-20 -39h-222q23 36 23 39z" />
    <glyph glyph-name="period" unicode="." horiz-adv-x="214" 
d="M182 65q-42 -26 -73 -79l-30 44q-15 19 -44 32q54 35 78 76q24 -50 69 -73z" />
    <glyph glyph-name="slash" unicode="/" horiz-adv-x="371" 
d="M368 679l-329 -676l-34 1l331 678z" />
    <glyph glyph-name="zero" unicode="0" horiz-adv-x="449" 
d="M423 79q-13 0 -35 3q-40 5 -91 -19t-81 -64q-2 0 -3 1q-30 40 -95 64q-52 18 -104 20q5 6 35 70v395q-3 20 -20 66q22 -5 58 -6q40 -2 57 4q46 16 82 43q3 2 7.5 12.5l4.5 10.5q15 -22 79.5 -60.5t97.5 -43.5q-15 -15 -20 -32q-1 -7 -4 -43v-343q3 -37 13 -48
q17 -19 20 -27zM290 90v453q-18 7 -95 64q-28 -18 -47 -18q4 -68 0 -456q19 -2 38 -10q44 -17 78 -53z" />
    <glyph glyph-name="one" unicode="1" horiz-adv-x="380" 
d="M77 558l-2 18q77 30 130 95q27 -29 71 -73q-12 -14 -23 -28l-8 -26q-1 -232 1 -393q1 -44 46 -65l39 29l11 -13l-127 -116l-108 97v0v0v0q6 8 17 29q15 27 15 41q0 128 1 405h-63z" />
    <glyph glyph-name="two" unicode="2" horiz-adv-x="450" 
d="M63 42l58 49q39 34 64 40q59 5 119 10q58 13 58 96l17 3q0 -54 11 -88q7 -22 36 -78q-16 -21 -33 -41q-20 -24 -29 -44q-84 61 -161 61q-111 0 -141 -41l-20 -11q-6 0 -7 4q-1 2 0.5 9t1.5 10q0 134 70 231q39 55 179 176q0 114 -1 120q-40 24 -120 74v-212
q-44 16 -116 46l5 18q5 20 5 50q0 63 -23 77q0 1 -6.5 6.5t-6.5 7.5q51 11 103 21q38 10 93 49q92 -60 196 -93q-20 -34 -20 -92q0 -60 0 -55q1 -24 15 -58q-84 -25 -155 -75q-79 -55 -119 -124q-23 -36 -45 -72q-32 -56 -28 -74z" />
    <glyph glyph-name="three" unicode="3" horiz-adv-x="449" 
d="M167 452q-35 7 -99 21v84q0 22 -30 47v6l3 3q22 -4 44 -4q104 0 156 68q67 -41 78 -47q47 -25 84 -34q-23 -21 -23 -55q0 -12 -1 -31.5t-1 -27.5q0 -43 32 -73v-5l-2 -2q-24 4 -74 4q-14 0 -29 -10q-20 -15 -26 -17q25 -27 62 -39t73 -23l-9 -19q-14 -34 -14 -81
q0 -59 2 -75q7 -41 33 -65v-4l-1 -1q-49 3 -44 3q-101 0 -171 -78l-2 1q-18 25 -79 57q-64 32 -94 29v8q20 28 23 72q-1 -19 -1 76q27 5 101 41v-35q-5 -76 4 -106q38 -22 114 -70q0 8 6 10.5t6 10.5l-1 187q-18 9 -112 66v21q89 35 102 46q0 11 1 45q1 30 1 48q-1 26 -7 44
q-28 16 -89 58q-5 -3 -8 -3q-1 0 -2 1t-2 1q-3 0 -8 -4q-2 -31 0 -75q4 -63 4 -74z" />
    <glyph glyph-name="four" unicode="4" horiz-adv-x="449" 
d="M344 211q0 -58 2 -74q8 -43 38 -53q10 11 49 24l6 -13q-31 -17 -56 -32q-60 -37 -81 -65q-19 28 -51 44q-40 19 -54 32q41 42 41 71q0 5 -1 25t-1 37l-208 1q-1 3 -7 14.5t-6 14.5q0 18 83 182t80 194q-40 -23 -64 -21l-3 17q8 4 36 13q23 8 57 36q30 25 48 48l25 -33
q28 -36 52 -52q-158 -152 -288 -378h196v179q22 20 41 39q44 45 64 75l2 -293h86v-32q-42 1 -86 0z" />
    <glyph glyph-name="five" unicode="5" horiz-adv-x="449" 
d="M209 486q2 -28 84 -71q74 -40 110 -44q-18 -36 -18 -65q-1 -49 -1 -164q0 -10 11.5 -36.5t11.5 -29.5l-7 -1q-4 0 -13.5 1t-13.5 1q-44 0 -88.5 -23t-73.5 -59h-6v2l-4 8q-19 31 -79 52l-92 30q24 31 24 74q0 25 -10 61q29 17 107 51v-138q33 -15 113 -62q2 1 18 6v231
l-118 73q-30 -26 -89 -73l-15 14l57 353l12 -6q46 -25 123 -25q16 0 100 22l27 35h11l-40 -131q-75 -24 -121 -24q-44 0 -103 24l-37 -216l3 -5z" />
    <glyph glyph-name="six" unicode="6" horiz-adv-x="450" 
d="M247 315q-16 14 -41 46l-32 -16v-220q28 -5 98 -64l18 16v219q-5 6 -20 9t-23 10zM413 79q-12 -7 -43 -9q-35 -2 -61 -13q-42 -18 -89 -66q-25 35 -103 70q-67 29 -88 29q20 19 31 51q10 29 8 49v341q0 40 -30 86l37 -2q77 -6 182 68q58 -48 61 -50q22 -18 60 -41l11 -1
l13 6l4 -5q-2 -2 -47 -42q-32 -29 -52 -36q-30 23 -61 46q-44 33 -57 52q-2 1 -7.5 -3t-7.5 -2q-1 -42 0 -240q31 7 86 66q17 -27 58 -53q28 -17 101 -53q-16 -14 -27 -63v-127q7 -25 21 -58z" />
    <glyph glyph-name="seven" unicode="7" horiz-adv-x="450" 
d="M128 691q10 -23 70 -36q45 -10 84 -10q30 0 70 14l66 26q1 -1 3 -4l-116 -268q-78 -191 -78 -255q0 -46 22 -68q8 4 32 27q30 28 34 31l11 -18q-23 -24 -79.5 -68t-80.5 -69q-22 25 -43 49q-17 16 -57 37q15 14 29 27q25 23 40 48q49 78 119 224q41 88 81 177
q-64 -16 -97 -16q-42 0 -150 36q-12 -13 -39 -49l-16 5z" />
    <glyph glyph-name="eight" unicode="8" horiz-adv-x="450" 
d="M189 615l-21 -12v-163l98 -59l9 23v156zM290 266q-93 61 -107 61l-29 -15q-5 -59 0 -173q15 -9 69 -32q45 -19 67 -37q-1 26 0 65v66.5v64.5zM219 -22q0 29 -42 49q-25 12 -86 27q-56 14 -69 22q31 21 31 69v104q0 25 -26 55q50 9 69 13q43 11 65 23q-18 18 -60 37
q-34 14 -67 28q14 10 27 20q3 4 3 43v101l-29 46q0 -12 22 -12q36 0 95 23q69 27 71 55q93 -70 171 -83q-22 -39 -22 -55v-101l23 -43q-16 -6 -55 -12q-35 -5 -56 -17q49 -24 138 -71q-21 -20 -26 -64q-1 -13 -1 -73q0 -84 16 -96l-108 -18q-37 -11 -84 -70z" />
    <glyph glyph-name="nine" unicode="9" horiz-adv-x="450" 
d="M201 358q16 -13 40 -45l33 16v220q-28 5 -98 64l-18 -16v-219q5 -7 19.5 -9.5t23.5 -10.5zM34 595q12 7 45.5 8.5t58.5 12.5q42 18 90 67q24 -35 103 -70q67 -30 88 -29q-20 -19 -31 -49.5t-8 -50.5v-342q0 -39 29 -86l-37 3q-76 5 -181 -68q-59 48 -61 50q-23 17 -61 41
l-10 1l-13 -6l-5 5q3 1 48 42q32 28 51 36l62 -46q43 -34 57 -52q2 -2 7.5 2t7.5 3q1 42 0 239q-31 -7 -86 -66q-17 28 -58 54q-28 17 -101 52q16 15 27 63v127q-8 25 -22 59z" />
    <glyph glyph-name="colon" unicode=":" horiz-adv-x="181" 
d="M162 325q-42 -26 -73 -79l-30 44q-15 19 -44 32q54 35 78 76q24 -50 69 -73zM162 65q-42 -26 -73 -79l-30 44q-15 19 -44 32q54 35 78 76q24 -50 69 -73z" />
    <glyph glyph-name="semicolon" unicode=";" horiz-adv-x="181" 
d="M162 325q-42 -26 -73 -79l-30 44q-15 19 -44 32q54 35 78 76q24 -50 69 -73zM162 65q-45 23 -69 73q-24 -41 -78 -76q43 -19 63 -50q-28 -45 -24 -106h14q1 32 34 87t60 72z" />
    <glyph glyph-name="less" unicode="&#x3c;" horiz-adv-x="409" 
d="M37 297q14 13 63 52q70 56 213 166l30 -28l-243 -190l240 -179l-30 -27z" />
    <glyph glyph-name="equal" unicode="=" horiz-adv-x="426" 
d="M5 343q0 3 372 0v-39h-372v39zM5 243q0 3 372 0v-39h-372v39z" />
    <glyph glyph-name="greater" unicode="&#x3e;" horiz-adv-x="412" 
d="M331 297l-274 -206l-30 27l240 179l-243 190l30 28l213 -166q22 -17 64 -52z" />
    <glyph glyph-name="question" unicode="?" horiz-adv-x="414" 
d="M222 65q-42 -26 -73 -79l-30 44q-15 19 -44 32q54 35 78 76q24 -50 69 -73zM136 177l-14 104q26 5 127 56l1 191q0 11 -6.5 23.5t-17.5 12.5q2 0 -34 -20.5t-83 -20.5q-32 0 -65.5 25.5t-38.5 55.5q46 0 55 1q31 1 55.5 26t27.5 25q2 0 4 -2q34 -34 86 -59t148 -25l3 -9
q-18 2 -22 -28q0 1 0 -33q-2 -24 0 -172q-1 -9 4.5 -20l10.5 -21q-1 0 -2.5 -4t-2.5 -4q-16 15 -46 18h-44q-34 2 -68 -19q-42 -25 -44 -25v-73z" />
    <glyph glyph-name="at" unicode="@" horiz-adv-x="744" 
d="M398 431q-31 43 -62 43q-6 0 -12 -1q-38 -7 -76 -77q-30 -58 -30 -116q0 -40 17 -68q21 -36 41 -32q52 8 79 63q15 32 28 103zM574 274q40 82 40 151q0 102 -66 159q-74 63 -178 63q-127 0 -232 -103q-94 -91 -94 -236q0 -125 90 -213q97 -94 216 -94q172 0 267 131
q22 44 54 97l30 -18q-15 -29 -32 -60q-48 -90 -133 -138t-188 -48q-145 0 -245 97q-104 102 -104 242q0 162 111 274q108 108 271 108q118 0 208 -84q69 -65 69 -183q0 -99 -63 -193q-67 -99 -157 -99q-33 0 -50 12q-20 15 -28 54q-33 -36 -46 -44q-21 -13 -59 -13
q-53 0 -83 51q-26 44 -26 96q0 78 51 150q56 78 133 78q49 0 75 -49q9 29 11 33q33 2 55 5l4 1h1q0 2 -1 2v-2q-3 -11 -15 -61q-22 -100 -37 -184q-6 -34 -6 -39q-4 -48 39 -48q28 0 60.5 26.5t57.5 78.5z" />
    <glyph glyph-name="A" unicode="A" horiz-adv-x="745" 
d="M363 478l-65 -183h123q-12 47 -24 93q-15 56 -34 90zM248 636q-19 35 -85 35q-53 0 -90 -27q-41 -30 -41 -81q0 -34 39 -41q8 59 72 59q9 0 17 -1q0 26 32 43q27 13 56 13zM277 -16q-37 21 -74 43q-39 19 -83 19q-61 0 -77 -41q23 19 53 19q33 0 58 -23.5t26 -55.5
q32 21 46 27q11 4 51 12zM744 142l-148 -155q-33 20 -67 40q-25 19 -46 64q-5 -72 -64 -72q-17 0 -31.5 10t-14.5 27q0 28 19 28q7 0 11 -11q-6 -13 -6 -17q0 -18 23 -18q25 0 39 27q11 22 11 49q0 19 -37 124h-150l-38 -103l96 -38l47 49l15 -10q-21 -11 -68 -70
q-42 -55 -57 -84l26 -2q52 -5 110 -46.5t67 -41.5q17 0 25 21q2 22 -16 22q-8 0 -12 -6q-3 7 -3 14q0 15 11.5 25t25.5 10q20 0 33 -13t13 -33q0 -27 -27 -42q-23 -12 -52 -12l-11 3q5 -28 62 -62q54 -33 85 -33q27 0 49.5 14t22.5 38t-16 24q-20 0 -28 -33q-25 15 -25 42
t17 45.5t44 18.5q26 0 43 -26.5t17 -52.5q0 -41 -39 -66q-35 -22 -78 -22q-58 0 -137 65q15 -58 66 -97l-7 -7q-18 1 -44 39q-22 31 -29 55q-9 -40 -42 -63t-77 -23q-39 0 -69 19q-22 14 -52 49l8 9q39 -37 52 -44q26 -16 66 -16q42 0 70 28t28 70q-7 20 -10 25
q-6 12 -19 21l1 -12q1 -65 -57 -65q-18 0 -34 11.5t-16 29.5q17 -4 33 -4q12 0 20.5 10.5t8.5 23.5q0 36 -33 56q-28 17 -66 17q-87 0 -111 -63l-14 6q4 28 4 33q0 28 -19.5 46t-47.5 18q-69 0 -69 -56q0 -77 129 -77q25 0 57.5 15.5t51.5 33.5l11 -3q-14 -32 -56.5 -57
t-79.5 -25q-64 0 -103 37.5t-39 101.5q0 77 75 126q67 44 147 41q127 339 127 367q0 41 -34.5 76.5t-75.5 35.5q-20 0 -42 -14t-22 -34q0 -10 8 -19l-7 -3q-7 15 -30 15q-19 0 -34 -11t-15 -29q0 -36 66 -36q68 0 109 47q5 0 11 -6q-18 -40 -64 -62q-40 -18 -89 -17l-1 -2
q44 -30 62 -50q28 -32 28 -72q0 -36 -25 -60l-50 -34q-27 -21 -31 -46q5 -17 23 -17q17 0 34 28l7 -2q-2 -17 -16 -31t-31 -14q-36 0 -36 39q0 26 30 49q-78 11 -78 78q0 23 19 41.5t42 18.5q15 0 28 -15.5t13 -31.5q0 -28 -21 -33q-4 25 -23 25q-22 0 -22 -29
q0 -14 16 -24.5t31 -10.5q29 0 50 21.5t21 50.5q0 40 -47 77l-88 64q-47 42 -47 91q0 72 69 119q61 42 137 42q52 0 109 -24q64 -28 86 -69q2 -5 8 -16v26q0 53 35 77l6 -9q-15 -22 -15 -55q0 -25 38 -151q38 -122 53 -150q16 -32 68 -38q-38 -30 -38 -63q0 -40 25 -89
q30 -56 65 -56q34 0 68 47z" />
    <glyph glyph-name="B" unicode="B" horiz-adv-x="560" 
d="M397 496q0 38 -32 81q-31 40 -68 57l-17 -9v-231q39 17 77 34q40 22 40 68zM388 319q0 30 -12 54q-15 30 -42 30q-9 0 -54 -22v-254q21 -13 61 -44h1q1 0 45 27q-10 3 -25 7q-27 6 -45 30t-18 52q0 21 10 39.5t30 18.5q14 0 25 -10.5t11 -24.5q0 -12 -3 -16l-10 1l1 7
q0 31 -22 31q-13 0 -21 -12.5t-8 -26.5q0 -37 21 -56q15 -14 55 -25v194zM479 -135q0 20 -12.5 34.5t-32.5 14.5q-31 0 -31 -28q0 -13 6.5 -17.5t14.5 -9.5q-13 -12 -26 -12q-18 0 -31 15.5t-11 34.5q-22 -27 -30 -36q-12 -10 -38 -28q30 -30 50 -30q24 0 35 6t25 27
q9 -10 9 -20q0 -9 -9 -22q24 0 34 23q3 -5 3 -10q0 -6 -9 -17q53 14 53 75zM303 48q-25 -19 -64 -44q-20 17 -41 34q-44 33 -85 33q-44 0 -74 -24.5t-30 -67.5q0 -60 50 -64q-5 5 -5 25q0 34 19.5 62.5t52.5 28.5q49 0 49 -51q0 -14 -8.5 -22.5t-17.5 -16.5v1q0 4 1 11t1 11
q0 29 -32 29q-24 0 -39 -18t-15 -43q0 -52 55 -52q70 0 110 68l2 -4q0 -35 -41 -63q-35 -24 -74 -27q37 -28 80 -28q39 0 65 12q-16 12 -16 76q0 38 28.5 89t28.5 44v1zM514 -134q0 -50 -43 -77q-36 -23 -90 -23q-80 0 -116 58q-51 -13 -69 -13q-35 0 -66 19q-16 11 -32 21
q-12 2 -37 9q-67 29 -67 116q0 70 66 122q61 49 133 49q42 0 75 -15v487q-20 -6 -57 -25v-142q0 -58 35 -70v-1q-32 -14 -32 -58l1 -106q-54 -33 -161 -100v7q0 -7 0 9q51 26 51 59v111q0 35 -28 35q-29 0 -40 -11t-16 -41h-7q-2 6 -2 14q0 55 17 82q20 34 71 40v113
q0 18 -28 31q109 35 165 60q71 33 151 89q9 -1 45 -43t44 -57q15 -27 15 -58q0 -76 -62 -116l-36 -21q69 -29 89 -55q23 -29 23 -100v-70v-71q-16 3 -22 3q-23 0 -40 -15.5t-17 -38.5q0 -13 8 -24.5t20 -11.5q13 0 18.5 11.5t2.5 23.5q18 -9 18 -28q0 -24 -20 -37.5
t-45 -13.5q-19 0 -33.5 18t-14.5 38q0 28 24 53q-106 -52 -106 -103q0 -18 20 -18q21 0 22 31q17 -15 17 -30q0 -30 -29 -30q-20 0 -40 32q-23 -22 -23 -74q0 -41 14 -62q22 10 73 68q43 50 80 50q39 0 60 -29.5t21 -70.5z" />
    <glyph glyph-name="C" unicode="C" horiz-adv-x="636" 
d="M613 -86q0 -56 -42 -89q-38 -30 -95 -30q-33 0 -59 22q-17 -27 -49.5 -44t-65.5 -17t-66 16q-40 19 -44 49q-10 -9 -19.5 -17t-30.5 -8q-18 0 -31.5 12.5t-13.5 30.5q0 10 6 19q21 -16 24 -16q36 0 36 35q0 27 -29 27q-5 0 -16 -6q19 26 39 26q19 0 32 -17q2 1 2 6
q0 44 -27 80.5t-70 36.5q-29 0 -48.5 -15.5t-19.5 -43.5q0 -35 28 -35q27 0 27 24q0 7 -14 22q6 7 16 7q14 0 26.5 -11.5t12.5 -25.5q0 -41 -46 -41q-22 0 -41.5 18.5t-19.5 41.5q0 32 22 52.5t55 20.5q98 0 110 -119q25 30 73 30q34 0 60 -21t26 -54q0 -25 -17.5 -44.5
t-41.5 -19.5q-19 0 -31.5 14.5t-12.5 33.5q0 18 17 32q5 -10 9.5 -20t20.5 -10q23 0 23 20q0 54 -55 54q-32 0 -53.5 -21.5t-21.5 -53.5q0 -41 27.5 -68.5t69.5 -27.5q34 0 62 14q34 18 34 49q0 8 -16 35q18 -17 34 -22q3 33 3 37q0 42 -29 69q-22 21 -67 38q-36 12 -72 25
q-107 41 -152.5 110.5t-69.5 205.5q-2 10 -12 21q-15 16 -16 19q9 8 18.5 16.5t11.5 19.5q8 44 44 105t70 91q45 40 139 91l8 -11q-50 -37 -59 -44q-32 -29 -42 -59h4q22 0 98 37q62 32 96 54q4 2 31 29q23 21 31 21q9 -13 21 -29q21 -21 55 -21q16 0 26 18q11 23 18 26
l14 -4q-1 -24 -30.5 -62t-51.5 -45q-26 -24 -72 -19q-1 -1 -1 -3l1 -484q4 -1 25 7q-13 25 -13 60q0 32 14 59q18 33 47 33q23 0 34 -17q4 -12 4 -15q0 -17 -11 -32t-28 -15t-22 9q-1 13 12 13q3 0 6.5 -3.5t6.5 -3.5q8 0 15 9t7 17q0 21 -25 21t-38 -25q-10 -20 -10 -48
q0 -46 14 -57q32 5 64 41q29 32 40 68l4 26q4 20 12 20q9 0 9 -24q0 -54 -31 -103q-19 -30 -70 -84h-1q0 -4 26 -31l11 1q43 2 66 -33q21 -30 21 -76zM410 96v490q-34 14 -51 41q0 -29 -2 -96q-1 -62 -1 -96q0 -54 36 -65q-33 -16 -33 -50q0 -6 1 -20.5t1 -22.5q0 -9 -1 -15
q-3 -21 -65 -47q-70 -30 -80 -41q85 -78 195 -78zM242 314q0 41 -37 52q13 -1 24.5 17t11.5 31l-1 162q-4 -1 -19.5 -6.5t-21.5 -5.5t-21 4q-34 -64 -34 -114q0 -28 9 -52q11 -33 34 -36q-39 -21 -39 -54q0 -79 56 -126l38 28l1 54q0 8 -1 23v23zM593 -91q0 68 -62 68
q-36 0 -36 -30q0 -21 18 -21q6 0 15 6t14 6t7 -4q-11 -43 -43 -43q-25 0 -43 18.5t-18 43.5q0 21 17.5 41.5t37.5 25.5q-4 7 -22 26q-67 -38 -141 -44q91 -40 91 -125q0 -18 -4 -40q11 -7 18 -7q33 0 31 43q28 -4 28 -28q0 -20 -21 -34q44 6 76 30q37 28 37 68z" />
    <glyph glyph-name="D" unicode="D" horiz-adv-x="609" 
d="M425 167l-1 5q-3 -1 -12 -15t-17 -15l-7 7q19 24 19 40q0 9 -7 17.5t-17 8.5q-46 0 -46 -54q0 -25 8 -48q12 -30 33 -30q15 6 45 24q2 28 2 60zM544 -115q0 30 -16 52t-44 22q-38 0 -38 -33q0 -30 47 -30l-1 -1q-22 -24 -51 -24q-22 0 -42 15.5t-29 36.5q-22 -26 -23 -26
q-13 -11 -34 -11q-41 0 -41 40q0 38 36 38l2 -2q-2 -4 -13 -14.5t-11 -20.5q0 -29 28 -29t51 40v10q-2 57 61 74q-33 12 -57 37q-90 -41 -111 -61q-5 36 -43.5 67.5t-74.5 31.5q-27 0 -52 -15q54 -10 87.5 -51t38.5 -97q19 11 38 35q6 -2 6 -5q0 -11 -15.5 -34t-15.5 -26
q0 -12 22 -43q32 -45 76 -45q45 0 44 60q46 -23 46 -60q0 -14 -8.5 -29t-20.5 -19q14 -2 27 -2q54 0 92.5 33.5t38.5 85.5zM200 -72q0 23 -14 56q-15 39 -33 45q6 -27 6 -33q0 -20 -13.5 -36t-33.5 -16q-10 0 -25 10t-15 19l2 7h27q4 0 12.5 10t8.5 14q0 35 -19 53
q-25 9 -27 9q-26 0 -41.5 -25.5t-15.5 -53.5q0 -37 36 -61q31 -20 70 -20q18 0 42 5q33 6 33 17zM285 134v443l-25 -6q-27 -20 -27 -48v-54v-54q0 -14 12.5 -24.5t24.5 -19.5q-32 -13 -32 -57q0 -8 1.5 -24t1.5 -24q0 -48 -26 -66q-7 -5 -23 -13q-19 -11 -59 -24.5
t-58 -22.5l-1 14q49 13 49 52v55.5v55.5q-16 1 -29 1q-30 0 -41 -16q-9 -20 -19 -41h-5q-1 4 -1 10q0 66 14 95q20 40 78 51v47q0 42 38 69q23 17 76 35l-5 1q-16 0 -48.5 -7.5t-48.5 -7.5q-98 0 -98 159q0 18 14 18q9 0 15 -14q4 -10 9 -20q10 -15 23 -19q7 -2 30 -2
q18 0 85 14l92 20q52 11 89 11q94 0 129 -56q26 -41 26 -129q0 -17 -1 -50.5t-1 -49.5q0 -51 30 -64q-12 -11 -23.5 -22.5t-11.5 -30.5v-185q0 -27 -28 -31q-23 -3 -66 -15q-52 -13 -57 -22q14 -10 42 -28q51 -21 103 -42q47 -26 47 -97q0 -66 -58 -109q-53 -38 -122 -38
q-98 0 -159 75q-10 19 -32 58q-3 -40 -33 -72t-69 -32q-51 0 -92 43q-1 13 9 13q-3 0 25 -22.5t56 -22.5q30 0 58 28t33 58q-44 -14 -65 -14q-49 0 -89 39t-40 88q0 72 61 118q55 43 129 43q54 0 93 -18zM306 582v-457q7 -3 24 -17q-10 48 -10 47q0 29 16.5 52t44.5 23
q23 0 43 -27v20v41q-1 29 -1 41q0 46 -41 66h-1q23 11 29 17q10 10 10 30q0 7 -1 21.5t-1 21.5q0 6 1 23t1 26q0 80 -50 80q-22 0 -64 -8z" />
    <glyph glyph-name="E" unicode="E" horiz-adv-x="657" 
d="M242 211l1 56q0 49 -2 59q-6 31 -36 40q13 -1 24.5 17t11.5 31l-1 158q-21 -8 -41 -8q-6 0 -21 4q-34 -64 -34 -114q0 -28 9 -52q11 -33 34 -36q-39 -21 -39 -54q0 -79 56 -126zM593 -91q0 68 -62 68q-36 0 -36 -30q0 -21 18 -21q6 0 15 6t14 6t7 -4q-11 -43 -43 -43
q-25 0 -43 18.5t-18 43.5q0 21 17.5 41.5t37.5 25.5q-4 7 -22 26q-67 -38 -141 -44q91 -40 91 -125q0 -18 -4 -40q11 -7 18 -7q33 0 31 43q28 -4 28 -28q0 -20 -21 -34q44 6 76 30q37 28 37 68zM410 395q-39 1 -47 -44q-2 -11 -2 -74q0 -10 -1 -15q-3 -21 -65 -47
q-70 -30 -80 -41q85 -78 195 -78v299zM424 456q26 10 46 10q44 0 81 -48q-20 -21 -77 -78q-17 42 -50 52v-295h2q4 0 23 7q-15 28 -15 63q0 31 15 56q17 31 46 31q38 0 38 -34q0 -17 -10.5 -31.5t-27.5 -14.5q-14 0 -21 12q-1 13 12 13q3 0 6.5 -3.5t6.5 -3.5q8 0 15 9t7 17
q0 23 -25 23q-24 0 -37 -27q-11 -22 -11 -48q0 -46 14 -57q32 5 64 41q29 32 40 68l4 26q4 20 12 20q9 0 9 -24q0 -65 -41 -129q-6 -9 -36 -27q-25 -16 -25 -31q0 -4 26 -31l11 1q43 2 68 -34q21 -31 21 -77q0 -55 -43 -88q-39 -29 -96 -29q-33 0 -59 22q-20 -28 -54 -47
t-68 -19q-36 0 -65 17q-34 20 -38 53q-10 -9 -19.5 -17t-30.5 -8q-18 0 -31.5 12.5t-13.5 30.5q0 10 6 19q21 -16 24 -16q36 0 36 35q0 27 -29 27q-5 0 -16 -6q19 26 39 26q19 0 32 -17q2 1 2 6q0 44 -27 80.5t-70 36.5q-29 0 -48.5 -15.5t-19.5 -43.5q0 -35 28 -35
q27 0 27 24q0 7 -14 22q6 7 16 7q14 0 26.5 -11.5t12.5 -25.5q0 -41 -46 -41q-22 0 -41.5 18.5t-19.5 41.5q0 32 21 51.5t54 19.5q49 0 80 -32.5t33 -81.5q29 27 72 27q34 0 60 -21t26 -54q0 -25 -17.5 -44.5t-41.5 -19.5q-19 0 -31.5 14.5t-12.5 33.5q0 18 17 32
q5 -10 9.5 -20t20.5 -10q23 0 23 20q0 54 -55 54q-32 0 -53.5 -21.5t-21.5 -53.5q0 -41 27.5 -68.5t69.5 -27.5q34 0 62 14q34 18 34 49q0 8 -16 35q18 -17 34 -22q2 22 2 32q0 47 -27 75q-20 21 -64 37q-38 12 -76 25q-107 41 -152.5 110.5t-69.5 205.5q-2 10 -12 21
q-15 16 -16 19q9 8 18.5 16.5t11.5 19.5q8 43 44 104.5t70 91.5q45 40 139 91l8 -11q-50 -37 -59 -44q-32 -29 -42 -59q2 -1 10 -1q49 0 188 92q3 2 31 29q23 21 31 21q7 -12 18 -28q18 -22 52 -22q18 0 29 15t21 29l14 -4q-1 -24 -30.5 -62t-51.5 -45q-26 -24 -72 -19
q-1 -1 -1 -3v-63q1 -39 1 -62zM358 412q7 14 52 37v137q-34 14 -51 41q0 -167 -1 -215z" />
    <glyph glyph-name="F" unicode="F" horiz-adv-x="605" 
d="M431 596q-19 8 -50 39l-2 -198q0 -35 52 -37v196zM552 147q0 14 -25 14q-21 0 -27 -11q18 -16 36 -16q16 0 16 13zM556 -125q0 113 -88 113q-21 0 -37.5 -17.5t-16.5 -38.5q0 -29 30 -29q28 0 28 21q0 13 -7 19l5 4q33 -14 33 -51q0 -34 -26 -52q-22 -16 -57 -16
q-6 0 -15 5q-11 -47 -48 -75q10 -3 33 -3q56 0 108 31q58 36 58 89zM218 -111q-11 69 -44 97q8 -30 8 -69q0 -10 -1 -18q1 -3 -1 -7.5t-2 -7.5q1 -1 1 -2q6 1 39 7zM169 -67q0 11 -3 14q-20 -29 -55 -29q-12 0 -23.5 12.5t-11.5 25.5q0 7 7 17.5t13 12.5q3 -23 30 -23
q28 0 28 25t-16 43t-42 18q-83 0 -83 -72q0 -49 38 -76q34 -22 86 -22q15 0 27 3q5 62 5 51zM360 -117l-11 -5q-19 -18 -19 -28q0 -18 18 -31l-7 -10q-23 17 -23 41q0 29 38 44q-1 7 -1 16q0 42 33.5 71.5t75.5 29.5q13 0 21 -4q-27 28 -27 73q0 47 24 72q-14 18 -14 32
q0 28 40.5 44.5t40.5 24.5t-27 18q-31 12 -46 38v11h9q8 -26 44 -38q32 -10 32 -28q0 -22 -41.5 -33.5t-41.5 -36.5q0 -5 4.5 -14t7.5 -9l12.5 6.5t24.5 6.5t25.5 -7t13.5 -18q0 -28 -28 -28q-27 0 -49 23q-20 -15 -20 -63q0 -36 27 -64q25 -24 49 -48q27 -33 27 -81
q0 -64 -59 -107q-54 -39 -120 -39q-17 0 -48 5q-45 -10 -53 -10q-36 0 -74 39l5 10q42 -36 66 -36q12 0 33 4q-57 28 -90 91q-34 -15 -66 -19q-12 -20 -36 -36t-47 -16q-42 0 -53 16q-22 35 -22 39q0 8 10 13q14 -53 57 -53q26 0 41 9q9 5 32 28l-13 -1q-60 -1 -100 50
q-36 46 -36 108q0 91 81 143q17 11 36.5 14t38.5 5q45 38 45 64q0 24 -25 24t-28 -37q-8 7 -8 17q0 13 12 22t25 9q34 0 34 -36q0 -18 -15 -36q-22 -28 -24 -32q23 -1 98 -31t97 -30q48 0 60 68q5 22 5 106l-1 78q1 19 0 56q-1 1 -5 1q-15 0 -30.5 -10.5t-15.5 -24.5l2 -115
q0 -20 -25.5 -32.5t-75.5 -35.5q-22 -10 -66 -33l-11 10q41 23 48 37q5 11 5 64v110q-53 -1 -73 -8q-36 -13 -44 -55l-17 6l75 125h59q-1 21 0 55v54q0 18 -12 33t-30 18l-1 6v4q106 32 243 130q45 -60 77 -60q23 0 37 12q2 2 24 31l8 -8q-39 -74 -95 -103q-24 -12 -60 -6
v-164h89l28 53l14 -1q0 -3 -61 -121l-70 -1l1 -58v-108q-2 -67 -17 -103q-29 -68 -73 -90q-35 -18 -62 -18q-47 0 -96 21q-8 5 -24 13l-13 3q35 -33 46 -56q0 -1 23 -66q39 9 82 59l10 -4q-6 -15 -23 -44q-17 -24 -50 -50q-5 -4 -5 -5l1 -1q26 -64 89 -87q41 20 55 75
q-18 10 -31 44z" />
    <glyph glyph-name="G" unicode="G" horiz-adv-x="736" 
d="M377 -20l34 -36q23 -23 38 -23q4 0 12 16.5t25 16.5t17 -26q0 -38 -42 -38q-8 0 -14 3q51 -92 115 -92q24 0 51 13q31 16 31 38q0 17 -12.5 36t-28.5 19q-10 0 -17 -8.5t-7 -18.5t11.5 -18.5t14.5 -14.5q-14 -5 -25 -5q-24 0 -41 16.5t-17 41.5q0 50 70 69q-16 12 -16 34
q0 17 12.5 31t29.5 14q41 0 41 -44q0 -18 -14 -18t-14 16q0 5 3 10t3 8q0 10 -22 10t-22 -25q0 -18 41.5 -54.5t41.5 -75.5q0 -41 -33.5 -66.5t-74.5 -25.5q-75 0 -114 73v-3q0 -20 22.5 -52t21.5 -52v-5q-7 3 -19 13q-15 18 -31 75q-20 -103 -118 -103q-50 0 -87 31
q-13 10 -50 56q-25 30 -45 30q-15 0 -28 -8t-13 -22q0 -22 21 -24q25 -3 27 -6q-8 -11 -20 -11q-18 0 -31 11.5t-13 29.5q0 19 16.5 32t35.5 13q44 0 64 -36q1 30 25 51.5t55 21.5q27 0 46 -18t19 -46q0 -48 -47 -48q-13 0 -22 9q1 2 8.5 7t7.5 17q0 7 -7 13t-14 6
q-11 0 -18.5 -10t-7.5 -22q0 -27 22.5 -44.5t50.5 -17.5q33 0 62 13q35 16 37 45q-14 -10 -26 -10q-30 0 -30 37q0 8 2 16q3 0 8 -1.5t8 -1.5q35 0 35 48q0 23 -66 91q-76 18 -106 29q-60 22 -91 58q41 -66 41 -111q0 -30 -25 -58q-8 -10 -20.5 -15t-25.5 -9q-35 0 -63 25
t-28 60q0 20 13.5 35t32.5 15q44 0 44 -39q0 -16 -9 -33h-2h-2q-14 28 -24 28q-24 0 -24 -21q0 -20 15 -35t35 -15q27 0 46 18t19 45q0 51 -80 182q-19 31 -30 75l-16 78q-7 26 -18 38q-8 9 -34 26q26 18 34 26q14 13 22 36q62 163 180 240q57 38 74 38q4 0 8 -9
q-4 -2 -50 -36t-71.5 -90.5t-25.5 -115.5q0 -39 11 -54q5 -7 42 -36l-9.5 -3t-17.5 -12q-16 -16 -16 -63q0 -29 11 -80q14 -63 31 -63q3 0 24 13q11 4 28 19q9 15 9 113q0 38 -2 47q-1 6 -8 10q-10 6 -20 21q8 9 16 19q13 13 13 18v188l-50 -19q-6 7 -6 16l2 5q62 26 125 52
q74 33 119 65q23 17 30 17q4 -12 17 -35q23 -28 51 -28q25 0 39.5 17t29.5 34q7 -1 7 -7q0 -49 -51 -84q-47 -32 -97 -32q-5 0 -13.5 2t-12.5 2q-3 0 -4 -13q-1 -17 -1 -52v-47h19q11 1 19 -1q82 -18 131 -80t49 -145q0 -111 -103 -190q-92 -70 -209 -80zM455 474v124
q-15 11 -41 38v-181q15 15 41 19zM455 455q-26 -10 -35 -21t-9 -36q0 -33 28 -33q16 0 16 29v61zM471 459v-434q47 44 64 101q14 45 14 119q0 209 -78 214zM453 362q-48 -18 -48 -74q0 -9 1 -27.5t1 -27.5q0 -19 -4.5 -27t-21.5 -16l-102 -48q-23 -9 -47 -21q0 -11 25 -38
q41 -43 82 -43q32 0 59 34q4 14 4 15q0 7 -6.5 16.5t-12.5 9.5q-8 0 -18 -8t-14 -10q-6 6 -6 12q0 9 14 15q11 6 21 6q14 0 24 -15.5t10 -31.5q0 -15 -13.5 -30.5t-29.5 -21.5q-9 -1 -26 -5q32 -18 63 -18q22 0 44 8z" />
    <glyph glyph-name="H" unicode="H" horiz-adv-x="584" 
d="M559 215q-23 -15 -29 -41q-3 -13 -3 -53q0 -17 1 -51.5t1 -51.5q0 -68 -48 -111q45 -24 45 -87q0 -86 -64 -86q-49 0 -49 46q0 48 45 45h7q-7 -14 -7 -26q0 -26 21 -26q30 0 30 45q0 56 -39 76q-81 -76 -84 -80q-50 -44 -92 -70l-8 11q41 26 73.5 71t42.5 92q-13 6 -22 6
h-13.5h-13.5q-45 0 -100 -35q63 -8 63 -58q0 -39 -63 -52l-3 2q24 14 24 38q0 31 -34 31q-11 0 -31.5 -5.5t-31.5 -5.5q-20 0 -47 9l-2 -6q15 -15 15 -40q0 -18 -14.5 -31.5t-33.5 -13.5q-10 0 -21.5 10t-11.5 21q0 22 18 35l10 -4q-13 -14 -13 -27q0 -19 21 -19q27 0 27 36
q0 20 -32 38q-49 26 -61 38q-33 30 -33 81q0 71 63 120q58 45 131 45q29 0 85 -16v264l-51 -24v-84q0 -62 -11 -79.5t-69 -41.5q-75 -30 -79 -33v7l30 23q11 35 11 129q0 25 -2 42q-7 3 -16 3q-21 0 -41.5 -16t-26.5 -37h-8q-1 6 -1 16q0 116 91 129q-1 43 -1 62
q0 87 97 165q92 73 181 73q74 0 116 -90q-70 -49 -111 -67q-21 46 -91 103q0 -63 -1 -121v-121q45 26 130 84q67 -48 85 -93q15 -35 15 -126q0 -20 10 -37q3 -4 24 -30zM279 659q-38 -3 -50 -53q-5 -24 -5 -81v-147q25 11 56 28q1 63 -1 253zM406 303q0 42 -19 66l-50 48
l-45 -26v-281l34 -18q11 14 36 39l9 -8q-38 -47 -116 -139q-76 60 -159 60q-29 0 -53.5 -21t-24.5 -49q0 -63 55 -63q17 0 30.5 15t13.5 31q0 27 -31 31v5q12 10 26 10q59 0 59 -48q0 -20 -12.5 -31t-24.5 -22q34 8 56 21q9 5 47 35q0 -28 -33 -59q-29 -28 -60 -38
q20 -1 24 -1q17 0 48 21q45 29 65 38q45 20 98 20q11 0 24 -1v233q0 37 -42 50q29 23 35 34q10 15 10 48z" />
    <glyph glyph-name="I" unicode="I" horiz-adv-x="551" 
d="M501 372q-15 -16 -15 -40q0 -16 6.5 -48.5t6.5 -49.5q0 -55 -43 -89q-17 -14 -91 -50q-59 -30 -82 -61l10 -1q23 10 52 10q10 0 31.5 -1.5t31.5 -1.5q53 0 69 37q-3 24 -17 24q-5 0 -10 -4l-7 -11h-9q-6 5 -6 11q0 10 11 16.5t22 6.5q32 0 32 -42q0 -28 -24.5 -42
t-53.5 -12q78 -38 78 -129q0 -57 -41.5 -104t-97.5 -47q-50 0 -101 38t-63 38q-34 0 -34 -30q0 -15 16 -19q-6 -12 -22 -12q-30 0 -30 39q0 14 22 28t37 14q17 0 37 -12l32 -22q-3 8 -7 31q-15 6 -25 24t-9 35q-45 -45 -91 -45q-53 0 -89 40t-36 93q0 120 135 162q17 2 51 9
q21 6 39 23.5t18 38.5q0 34 -27 32l-9 -1q-17 -10 -17 -25q0 -10 8 -19l-14 -2l-9 23q0 16 13 28t28 12q19 0 32 -13t13 -32q0 -38 -44 -65q42 -6 67 -21q17 22 21 39q2 12 2 45q0 65 -14 98q-9 1 -17 1q-58 0 -85 -34q-2 11 -2 21q0 40 27 70t66 26q-1 9 -1 19q0 80 33 127
q-47 4 -97 42t-66 38q-25 0 -44 -20t-19 -46q0 -42 31.5 -67.5t73.5 -25.5q20 0 66 21l3 -10q-36 -30 -74 -30q-52 0 -86.5 34.5t-34.5 85.5q0 54 51 101.5t106 47.5q43 0 86 -41t70 -41q35 0 72 44l7 -6q-7 -29 -54 -75.5t-75 -50.5q-31 -70 -31 -124q0 -33 13.5 -98
t13.5 -98q0 -74 -29 -101q13 -1 39 -31q56 28 56 103q0 59 -19 116q-1 1 -18 27q-11 15 -27 19q23 13 23 66q0 74 42 126q42 48 85 97l5 8q5 0 12 -17q-24 -17 -39 -60q-13 -37 -13 -72q0 -53 16 -87q8 -18 22.5 -28.5t28.5 -20.5zM392 15l-12 -3q5 -7 5 -18q0 -37 -36 -37
q-16 0 -28 13q1 0 13 8q8 5 8 12q0 12 -36 32q-9 -1 -68 -32h-5q-14 28 -47.5 50t-64.5 22q-46 0 -75 -17q-36 -21 -36 -64q0 -42 31.5 -67.5t73.5 -25.5q26 0 52.5 15.5t26.5 39.5q0 15 -10.5 28.5t-24.5 13.5q-19 0 -31 -15t-12 -33q0 -6 1 -11q-7 -2 -10 -2
q-12 0 -21.5 10.5t-9.5 22.5q0 52 62 52q33 0 53 -18t20 -48q0 -9 -2 -18q13 30 32 45l4 -7q-23 -32 -23 -60q0 -30 21 -47q0 28 23.5 52.5t51.5 24.5q32 0 56 -14q29 -17 29 -47q0 -22 -12.5 -38t-34.5 -16q-9 0 -24 6.5t-16 14.5q13 16 26 22q-6 11 -13 21.5t-21 10.5
t-32 -17.5t-18 -31.5q0 -36 27.5 -60.5t63.5 -24.5q54 0 90.5 41.5t36.5 95.5q0 91 -84 119z" />
    <glyph glyph-name="J" unicode="J" horiz-adv-x="551" 
d="M349 -113q-16 0 -28 13q3 2 16 8q7 3 7 17q0 30 -42 30q-8 0 -34 -15q-17 -10 -35 -20q-14 28 -47.5 50t-64.5 22q-39 0 -71 -18q-37 -21 -37 -58q0 -42 30 -70t72 -28q26 0 52.5 15.5t26.5 39.5q0 15 -10.5 28.5t-24.5 13.5q-19 0 -31 -15t-12 -33q0 -6 1 -11
q-7 -2 -10 -2q-12 0 -21.5 10t-9.5 23q0 52 61 52q33 0 56 -18t23 -50q0 -39 -29.5 -62t-68.5 -23q-52 0 -89 33.5t-37 84.5q0 128 134 172q34 9 68 19q40 16 40 52q0 34 -27 32l-9 -1q-17 -10 -17 -25q0 -10 8 -19l-14 -2l-9 23q0 16 13 28t28 12q19 0 32 -13t13 -32
q0 -38 -44 -65q42 -6 67 -21q17 21 21 39q2 12 2 45q0 25 -5 71q-5 51 -12 67q-12 1 -14 1q-58 0 -85 -34q-2 11 -2 21q0 40 27 70t66 26q-1 9 -1 20q0 109 33 156q-47 4 -97 42t-66 38q-25 0 -44 -20t-19 -46q0 -42 31.5 -67.5t73.5 -25.5q20 0 66 21l3 -10
q-36 -30 -74 -30q-52 0 -86.5 34.5t-34.5 85.5q0 54 51 101.5t106 47.5q43 0 86 -41t70 -41q35 0 72 44l7 -6q-7 -29 -54 -75.5t-75 -50.5q-31 -70 -31 -153q0 -40 13.5 -118.5t13.5 -118.5q0 -74 -29 -101q13 -1 39 -31q22 9 36 67q11 46 11 82q0 54 -20 115q-4 4 -13 24
q-6 13 -22 17q23 13 23 67q0 138 130 253l6 1q5 0 8 -11q-25 -17 -40 -62q-12 -38 -12 -74q0 -79 16 -113q8 -18 22.5 -28.5t28.5 -20.5q-19 -20 -19 -51q0 -20 6.5 -58.5t6.5 -58.5q0 -55 -41 -92q-18 -16 -89 -54q-59 -33 -82 -64q38 15 76 15q11 0 31.5 -3t31.5 -3
q40 0 55 34q-3 24 -17 24q-5 0 -10 -4l-7 -11h-9q-6 5 -6 11q0 10 11 16.5t22 6.5q32 0 32 -42q0 -26 -31.5 -51.5t-56.5 -24.5q-1 -18 -19 -31.5t-37 -13.5zM473 -166q0 -51 -36 -85t-87 -34q-38 0 -78 31.5t-51 31.5q-27 0 -27 -24q0 -12 13 -14q-5 -10 -17 -10
q-24 0 -24 30q0 16 14 26t30 10q17 0 30 -10t26 -19q-8 22 -8 31q0 32 21 53.5t53 21.5q76 0 76 -60q0 -21 -14 -36.5t-35 -15.5q-29 0 -31 17q1 1 18 12q8 6 8 22q0 24 -33 24q-20 0 -33.5 -12.5t-13.5 -32.5q0 -28 21.5 -44t49.5 -16q49 0 80 31.5t31 80.5q0 55 -37 81
q32 -12 44 -35q10 -19 10 -55z" />
    <glyph glyph-name="K" unicode="K" horiz-adv-x="622" 
d="M104 66q-36 0 -60 -19t-24 -54q0 -42 30.5 -67t72.5 -25q61 0 111 57h5q4 0 8 -8q-21 -36 -56 -60t-74 -24q-50 0 -84 34t-34 84q0 60 58 111q56 48 117 48q60 0 105 -17v294l-52 -30v-133q0 -45 -65 -85q-53 -34 -106 -41v12q18 10 36.5 37t18.5 46v108l-7 1
q-70 2 -77 -59l-9 -6l-4 5q0 72 12 103q21 49 82 49v66q0 80 81 151q78 68 159 68q101 0 150 -75l-101 -73q-10 38 -35 68q-29 36 -65 38v-220q46 31 137 94q26 -16 46.5 -51.5t20.5 -65.5q0 -44 -41 -78q-10 -8 -79 -49q65 -7 90 -52q6 -11 27 -87q13 -51 48 -66l42 39
l12 -13q-42 -34 -60 -50q-33 -30 -53 -57q27 4 34 4q69 0 90 -77l16 14l11 -3q-17 -18 -21 -62q-4 -39 -17 -45q-17 -38 -55.5 -61.5t-82.5 -23.5q-60 0 -110.5 38t-72.5 96q-31 -108 -109 -108q-20 0 -36.5 12t-16.5 31q0 35 29 39q14 -43 46 -43q49 0 72 83q15 55 15 124
l-29 -38q-67 72 -146 72zM279 441v225q-52 -23 -52 -54v-200q17 10 52 29zM390 379q0 18 -12 47q-13 34 -27 34q-8 0 -27 -11.5t-27 -19.5v-142l62 34q31 23 31 58zM602 -104q0 32 -21 63q-23 35 -54 35q-30 0 -53 -15q-27 -17 -27 -46q0 -11 9.5 -20.5t17.5 -18.5
q8 14 26 33l4 -4q0 -4 1 -13.5t1 -13.5q0 -49 -57 -49q-18 0 -34 29q-15 26 -15 45q0 31 31 59l32 26q-50 38 -57 46q-20 24 -20 70q0 13 1 37.5t1 36.5q0 87 -42 87q-9 0 -49 -17v-147l24 -12q13 15 33 32q0 -1 7 -10q-62 -55 -62 -111q0 -24 9 -47q13 -28 34 -28t31 31
q13 -15 13 -37q0 -12 -16.5 -26.5t-28.5 -14.5q-15 0 -25.5 11.5t-20.5 22.5q-1 -6 -1 -11t2.5 -13.5t2.5 -12.5q48 -100 158 -100q27 0 55 17q32 19 32 44q0 12 -22 27q11 10 35 18q18 -3 25 -10q3 -3 15 -23q5 22 5 30zM101 -23q0 21 24 21q23 0 23 -21t-23 -21
q-24 0 -24 21z" />
    <glyph glyph-name="L" unicode="L" horiz-adv-x="524" 
d="M518 628q-66 -41 -98 -67q-42 -34 -56 -53q-20 -30 -20 -74q0 -29 25 -58.5t53 -29.5q43 0 43 41q0 28 -16 28q-18 0 -18 -16q0 -8 4 -17l-7 -4q-27 0 -27 32q0 19 14 34.5t33 15.5q50 0 50 -61q0 -29 -25 -47.5t-54 -18.5q28 -24 28 -76q0 -23 -13 -39q-14 -19 -37 -19
q-18 0 -31 13.5t-13 31.5q0 20 25 32q-10 -11 -10 -30q0 -32 27 -32q37 0 37 45q0 34 -27 61q-25 23 -49 46q-27 31 -27 74q0 36 20 71t51 53q-21 73 -87 106l1 -555l27 -18l37 48l14 -7q-27 -32 -76 -98q9 1 18 1q11 0 31.5 -6t30.5 -6q12 0 26.5 11t14.5 22q0 6 -9.5 10
t-16.5 7q5 14 32 14q36 0 36 -35q0 -34 -45 -50l3 -5q64 -43 64 -124q0 -53 -41 -91.5t-95 -38.5q-58 0 -96 29q-13 11 -41 29q-38 18 -53 18q-19 0 -35 -8q-21 -10 -21 -27q0 -27 25 -27q11 0 18.5 7t14.5 14l6 -6q-12 -27 -40 -27q-12 0 -25 11.5t-13 23.5q0 51 66 51
q42 0 81 -27q0 5 -1 14t-1 14q0 30 18 50t48 20q21 0 37.5 -16.5t16.5 -38.5q0 -23 -13 -40q1 5 1 10q0 21 -25 21q-24 0 -24 -25q0 -18 17.5 -32t36.5 -14q5 0 42 11t59.5 41t22.5 70q0 10 -9 29q-4 -17 -20.5 -32t-34.5 -15q-25 0 -41 30q12 4 25 7q10 4 10 25
q0 33 -32 51q-25 14 -61 16q-5 3 -5 6q0 5 10 5q41 0 69 -21q31 -24 31 -63q0 -26 -30 -32q6 -11 21 -11q42 0 42 48q0 40 -50 68q-43 25 -86 25q-8 0 -16 -1l-35 -42q-55 37 -74 47q-44 22 -85 22q-34 0 -60 -18q-30 -21 -30 -53q0 -43 40 -43q14 0 27.5 9t13.5 22
q0 14 -10 17t-21 5q19 22 37 22q14 0 27 -13q8 -17 8 -24q0 -8 -5 -16q5 4 12.5 4t33.5 18t33 26l8 -6q-13 -12 -42 -35q-49 -30 -120 -42q15 -22 62 -22q51 0 96 22q12 10 37 25q-11 -38 -57 -65q-42 -24 -85 -24q-46 0 -78.5 37t-32.5 84q0 69 61 115q56 42 128 42
q54 0 98 -23l-4 555q-44 -8 -54 -65q-3 -15 -3 -99q0 -18 3 -71q1 -24 14.5 -36.5t27.5 -24.5l-26 -20q-7 -7 -10 -34q0 3 0 -50q0 -34 -12.5 -50t-155.5 -98q-1 4 -3 10l25.5 19.5t25.5 38.5v132l-35 1q-45 0 -48 -48q-16 -4 -16 3q0 53 20 95q24 49 69 65v39
q0 90 75.5 159.5t166.5 69.5q53 0 78 -13q58 -30 83 -71z" />
    <glyph glyph-name="M" unicode="M" horiz-adv-x="983" 
d="M401 403l58 1v142q0 38 -37 68q-6 7 -21 19v-230zM400 115q-11 -46 -70.5 -85t-107.5 -39q-13 0 -58.5 26t-71.5 26q-33 0 -52.5 -21t-19.5 -55q0 -27 21.5 -49t48.5 -22q-2 15 -2 28q0 62 60 62q8 0 22.5 -14t14.5 -23q0 -10 -7.5 -22t-16.5 -12q-8 0 -13 8.5t-14 8.5
q-23 0 -23 -26q0 -8 3 -15q21 -5 34 -5q57 0 84 13q33 15 59 62q5 0 7 -5q-16 -47 -55 -78.5t-89 -39.5q19 -13 48 -13q49 0 96 43q19 111 135 111q36 0 68 -22q17 -11 47 -41q24 -25 37 -29q7 38 36 62q25 15 50 31.5t25 39.5q0 13 -15 13q-6 0 -14 -8.5t-13 -10.5
q-7 7 -7 11q0 11 13 18q10 7 22 7q8 0 17.5 -11t9.5 -20q0 -16 -9 -26.5t-18 -20.5l14 -2q22 -2 39 -25.5t17 -47.5q0 -22 -16 -41t-38 -19q-23 0 -36 22q8 5 18 10.5t10 14.5q0 26 -25 26q-20 0 -35 -17t-15 -37q0 -43 33 -70t76 -27q55 0 82 37q-46 10 -46 48q0 29 14 28
q15 -16 23 -16q35 0 35 48q0 51 -40 99q-6 7 -80 77l-1 242q0 13 -9 24.5t-18 21.5q28 25 28 61v146l-58 47l1 -512q14 20 25 30q0 -1 5 -18q-60 -69 -152 -135l-104 102q11 3 21.5 16t10.5 24v209h-60v-223h-1zM953 -119q0 -49 -44 -49q-6 0 -42 14q1 -26 -12.5 -33.5
t-27.5 -14.5q-5 -8 -17 -22q-33 -32 -87 -32q-52 0 -87 28l-10 7q-3 0 -7.5 -2.5t-6.5 -2.5q-54 0 -98 122q-10 -53 -32 -63q4 27 4 29q0 92 -74 92q-25 0 -43 -18t-18 -43q0 -14 10.5 -31.5t23.5 -17.5q24 0 24 22q0 8 -3 17q3 2 9 2q21 0 36.5 -14t15.5 -35q0 -28 -22 -47
t-49 -19q-35 0 -67 28.5t-30 62.5q-7 -11 -24 -29q-32 -25 -74 -25q-18 0 -42 7q-29 7 -35 19q-14 2 -44 14q-77 47 -77 127q0 46 21 78q16 23 59 58q35 27 76 27q38 0 88.5 -29t72.5 -29q38 0 62 38l-2 512q-18 -2 -31.5 -25t-13.5 -43v-146q0 -15 11.5 -28.5t25.5 -11.5
l-18 -14q-16 -14 -16 -35v-39q0 -60 -53 -98q-47 -34 -108 -33h-11v17q49 2 53 44q-2 3 -2 93v14q-12 3 -27 3q-66 0 -69 -59l-6 1v8q0 20 2 61q4 35 31.5 55.5t63.5 16.5v59q-1 51 15 73q11 16 58 47q50 36 100 71q84 59 90 59q10 0 33 -20l30 -28q32 -28 37 -61
q1 -7 0 -30q124 138 154 139q80 -66 144 -103q-41 -37 -41 -83v-50q-1 -33 -1 -50q0 -22 37 -56q-32 -32 -32 -60v-159q0 -14 16.5 -32t29.5 -18q29 0 52 27l13 -18l-131 -113q9 -9 20 -32q25 29 40 29q34 0 48 -38q-4 1 -8 1q-14 0 -23 -11.5t-9 -25.5q0 -9 7 -20t15 -11
q7 0 13.5 10.5t12.5 10.5q21 0 21 -36zM636 608q-13 -8 -29 -26q-19 -21 -27 -28v-151h56v205zM635 338h-55q1 -27 0 -207q29 -35 45 -45l9 10z" />
    <glyph glyph-name="N" unicode="N" horiz-adv-x="622" 
d="M614 125q-11 -13 -57 -57q-36 -35 -52 -61q15 -4 44 -15q63 -31 63 -111q0 -63 -67 -109q-60 -41 -127 -41q-51 0 -81 11q-26 9 -72 40q-56 -40 -112 -40q-52 0 -92 32t-40 83q0 31 23.5 61t54.5 30q34 0 58 -18q26 -21 26 -54q0 -60 -59 -60l-39 27l-5 15l2 6h9
q9 0 16 -2l14 18q-1 8 -12 16.5t-20 8.5q-19 0 -32 -25q-12 -21 -12 -42q0 -30 38 -55t70 -25q20 0 55 10q43 12 46 26q-49 55 -49 136q0 50 16 74q-19 -16 -29 -29q-48 45 -66 59q-39 31 -75 45q38 14 38 45v176q-66 0 -79 -53q-5 29 -5 33q0 41 23 76t61 48v106
q0 40 -31 78t-31 62q0 43 30.5 80.5t72.5 37.5q3 0 4 -2.5t3 -4.5q-7 -11 -15 -22q-9 -14 -9 -24q0 -25 25 -47q45 -37 46 -39q25 -29 24 -73l198 165q29 -32 59 -65q27 -26 74 -48v-2q-46 -13 -46 -51q0 -26 1 -70q2 -55 2 -71q1 -30 43 -58q-43 -32 -43 -62q0 -129 1 -163
l58 -46l47 50zM429 4q-8 11 -30 29t-30 30v232q0 27 -36 56q14 12 29 24q12 14 12 36l-1 162q-12 13 -50 52l-45 -37v-495q7 2 18 14t16 15l6 -11q-81 -76 -89 -161q13 -23 44 -23q16 0 35.5 32t43.5 32q12 0 31 -5q15 5 46 18zM263 85v494l-55 -43q0 -22 -1 -66v-66
q0 -19 11 -32q4 -5 26 -21l-18 -18q-18 -20 -18 -50v-130q0 -53 48 -70zM495 -7q-36 0 -66.5 -30.5t-30.5 -66.5q0 -6 9 -18t16 -12q12 0 17.5 16.5t8.5 19.5q33 -26 33 -59q0 -17 -18.5 -28t-37.5 -11q-43 0 -59 23q-16 28 -31 56q-23 -39 -49 -90q14 -18 47.5 -31.5
t57.5 -13.5q29 0 79 41q15 0 12 -21q73 25 73 73q0 11 -10.5 20.5t-21.5 9.5q-7 0 -19 -7q-6 9 -6 18q0 20 16.5 32.5t37.5 12.5q9 0 31 -20q4 0 4 3q0 -2 -5 14q-7 24 -34.5 46.5t-53.5 22.5zM323 -112q-3 3 -5 3l-12 -6.5t-26 -6.5q-20 0 -33 15q-1 1 -20 31q3 -29 14 -64
q15 -49 33 -49q10 0 49 77z" />
    <glyph glyph-name="O" unicode="O" horiz-adv-x="735" 
d="M191 39q9 -54 46 -114q44 -71 88 -71q17 0 37 23q15 -21 15 -40t-14 -38q17 -24 74 -24q181 0 181 121l-3 2q1 6 1 11q0 17 -16.5 40t-33.5 25q-7 -67 -17 -92q-20 -53 -67 -53q-41 0 -68 22t-24 63q-25 -5 -39 -5q-54 0 -54 30t43 28q-7 -11 -7 -18q0 -16 34 -23l23 7
q25 69 131 69q17 0 31 -2q4 32 37.5 60t67.5 28q24 0 41.5 -16t17.5 -40q0 -20 -14 -40t-33 -20q-32 0 -32 33q0 17 10 25q-1 -8 6 -15.5t14 -7.5q27 0 28 32q-17 30 -42 30q-24 0 -52 -23t-29 -48q57 -30 65 -79q19 5 26 5q20 0 39 -17t19 -37q0 -24 -8 -28q-9 15 -21 15
q-9 0 -41 -31q-35 -33 -94 -53q-53 -18 -107 -18q-127 0 -214 135q-9 18 -30 52q1 -22 1 -28q0 -54 -30 -87q-32 -36 -84 -36q-43 0 -71 23.5t-28 64.5q0 30 23 54t53 24q25 0 44 -18.5t19 -42.5q0 -21 -15.5 -35t-37.5 -14q-30 0 -30 29q0 8 3 13q9 -6 17 -6q18 0 18 20
q0 25 -29 30q-43 -15 -43 -57q0 -31 21 -48.5t53 -17.5q45 0 73.5 34.5t28.5 80.5q0 48 -21 83q-18 -23 -22 -26q-12 -10 -33 -10q-19 0 -35.5 15t-16.5 34q0 18 12 18q-1 0 9 -11t25 -11t31 8q20 9 20 23t-5 22q-13 16 -38 47q-71 101 -84 199q-2 22 -14 34q-20 20 -24 26
q32 14 43 57q21 84 108 173q80 80 167 121l4 -17q-65 -52 -111 -134q29 9 123 62q89 51 121 74q11 8 31 29q155 -147 186 -278q8 -34 18 -46q7 -7 42 -29q-16 -17 -30.5 -34t-18.5 -45q-21 -153 -91 -229q-79 -86 -228 -86q-43 0 -89 11q-56 12 -80 34zM549 -19h-7
q-4 -1 -13 0.5t-13 1.5q-66 0 -66 -57q0 -26 21 -26q18 0 19 14q0 14 -1 28q17 0 27 -19q7 -16 15 -32q14 33 18 90zM637 5q0 17 10 25q-1 -8 6 -15.5t14 -7.5q26 0 28 32q-10 18 -16 22q-8 8 -26 8q-24 0 -52 -23t-29 -48zM521 2q17 0 31 -2q4 32 37.5 60t67.5 28
q24 0 41.5 -16t17.5 -40zM562 273q0 41 -11 63q-13 27 -49 41q37 11 37 52q0 23 -29 75.5t-48 63.5v-522q52 19 79 97q21 60 21 130zM441 591q-25 35 -53 53l-1 -211q0 -24 10 -36q7 -10 30 -23q-40 -29 -40 -82v-23q1 -15 1 -24q0 -37 -73 -67q-53 -19 -105 -37
q33 -42 51 -57q33 -28 68 -28q28 0 55 19.5t27 45.5q0 10 -6.5 20.5t-15.5 10.5q-33 0 -33 -25t18 -26q-9 -4 -19 -4q-5 0 -9.5 11t-4.5 16q0 44 44 44q42 0 42 -50q0 -54 -90 -77q29 -16 69 -16q11 0 35 10v556zM262 433v106q0 22 -1 38q-23 -12 -71 -33q-29 -82 -29 -112
q0 -22 8 -40q10 -22 30 -21q-36 -19 -36 -55q0 -25 13 -85q14 -69 25 -69q12 0 57 27v118q0 29 -7 42t-32 23h2q23 14 32 25.5t9 35.5z" />
    <glyph glyph-name="P" unicode="P" horiz-adv-x="601" 
d="M419 146l1 167q1 41 -38 55q38 11 38 68q0 92 -4 117q-12 73 -61 86l-49 -40v-444q49 -29 69 -50l26 16q-71 34 -71 76q0 48 37 48q31 0 36 -43q-13 6 -23 6q-18 0 -18 -20q0 -19 14.5 -34.5t33.5 -15.5zM292 588l-57 -40v-128q0 -15 10.5 -31t24.5 -20q-38 -15 -38 -43
v-148q45 -4 60 -16v426zM560 -135q0 30 -23 54t-53 24q-12 0 -28.5 -11.5t-16.5 -23.5q0 -30 27 -30q6 0 12 4q7 15 15 20q13 -1 13 -19q0 -25 -12 -42q-13 -20 -37 -20q-25 0 -45 17t-20 41q-21 -35 -21 -84q0 -27 74 -27q44 0 79.5 27t35.5 70zM114 93h-5q-32 0 -53.5 -29
t-21.5 -62q0 -32 23 -61t54 -33zM366 -227q-15 -42 -51 -42q-45 0 -45 46q0 12 10.5 20.5t22.5 8.5q7 0 14 -1l-4 -12q-5 1 -9 1q-21 0 -21 -20q0 -28 32 -28q31 0 41 36h1q-36 38 -36 115q0 110 117 225q-53 -16 -133 -110q0 17 -27 39q-22 18 -43 25v-168q21 8 70 59l5 -5
q-32 -52 -73 -73l1 -65l-146 -89q17 27 20 74q-1 -4 -1 78q-46 6 -78.5 43.5t-32.5 84.5q0 57 29 104q33 53 87 62v151q-44 -1 -65 -10q-31 -13 -43 -48l-3 21q0 53 30.5 95t80.5 51v62q-1 42 -36 98.5t-35 78.5q0 33 39 69q15 13 68 49q-1 -3 -11 -23q-4 -8 -4 -28
q0 -16 22 -39q35 -36 44 -48q25 -36 29 -79l196 156q67 -19 93 -86q19 -47 19 -134q0 -16 -1 -45v-42q0 -43 37 -59q-40 -10 -40 -58v-159q-101 -9 -101 -94q0 -30 28 -30q33 0 34 36q11 -25 11 -28q0 -56 -54 -56q-45 0 -45 55q0 15 3 32q-76 -76 -76 -170q0 -52 21 -97
q6 68 32 112q34 56 95 56q38 0 66 -31t28 -69q0 -58 -47 -90q-42 -27 -103 -27q-37 0 -62 20z" />
    <glyph glyph-name="Q" unicode="Q" horiz-adv-x="747" 
d="M-5 368q31 14 43 58q24 86 108 172q77 79 167 121l4 -17q-66 -52 -111 -134q45 15 144 73t131 92q149 -140 186 -287q7 -32 17 -42q7 -7 38 -24l-29 -29q-10 -13 -15 -40q-25 -159 -76 -211l28 -24q20 -16 30 -16q28 0 62 30q10 0 12 -9q-31 -49 -42 -63q-33 -40 -59 -40
q-10 0 -96 53l-30 -18q-18 -10 -33 -10q-3 0 -3 -4q0 -2 1 -12q2 -7 0 -12q7 -21 20 -21q8 0 29 19q-4 -60 -44 -60l-3 -10q0 -19 11.5 -33.5t30.5 -14.5q17 0 21 25l12 -25q0 -21 -18 -30q-14 -7 -36 -5q26 -49 91 -49q35 0 58.5 19t23.5 53q0 27 -23 27q-27 0 -27 -23
q0 -5 2 -11q-3 -6 -11 -6q-40 0 -40 51q0 29 19.5 48t49.5 19q33 0 53.5 -25t20.5 -59q0 -49 -35.5 -82.5t-84.5 -33.5q-136 0 -138 188q-35 -120 -86 -162l-10 3q77 105 82 166q-52 -81 -58 -88q-36 -48 -81 -65q-53 -20 -102 -20q-73 0 -127 37q-62 42 -62 112
q0 44 25.5 69t70.5 25q28 0 47 -23.5t19 -52.5q0 -15 -17.5 -32.5t-32.5 -17.5q-6 0 -10 4q8 14 8 25q0 22 -34 22q-28 0 -28 -39q0 -54 59 -87q49 -28 108 -28q35 0 41 13q-55 9 -55 46q0 18 12.5 32.5t30.5 14.5q15 -44 52 -44q38 0 70 37q24 35 48 69q20 28 23 46l-1 1
q-11 0 -32.5 -8.5t-33.5 -8.5q-156 0 -225 74q-102 111 -122 252q-3 24 -11 35q-5 7 -27 25zM572 273q0 41 -11 63q-13 27 -49 41q37 11 37 52q0 23 -29 75t-48 64v-522q52 19 79 97q21 60 21 130zM451 591q-25 34 -53 53l-1 -211q0 -23 10 -36q7 -10 30 -23
q-40 -29 -40 -82v-23q1 -15 1 -24q0 -28 -25 -41q-52 -20 -153 -63q33 -42 51 -57q33 -28 68 -28q28 0 55 19.5t27 45.5q0 10 -6.5 20.5t-15.5 10.5q-33 0 -33 -25t18 -26q-9 -4 -19 -4q-5 0 -9.5 11t-4.5 16q0 44 44 44q42 0 42 -50q0 -58 -90 -80q55 -12 65 -12q16 0 39 9
v556zM272 433v106q0 22 -1 38q-23 -12 -71 -33q-29 -82 -29 -112q0 -23 8 -40q10 -22 30 -21q-36 -19 -36 -55q0 -25 13 -85q14 -69 25 -69q13 0 57 27v118q0 29 -7 42t-32 23q19 4 31 22t12 39z" />
    <glyph glyph-name="R" unicode="R" horiz-adv-x="638" 
d="M231 558q28 19 74 57q31 26 61 53q53 46 55 46q10 0 49 -45.5t45 -59.5q19 -48 19 -73q0 -67 -42 -108q-26 -24 -102 -61q62 -30 86 -59q21 -25 27 -68q5 -50 9 -100q0 -12 1 -22.5t13 -20.5l19 -17q12 0 64 47l12 -11q-129 -129 -135 -129q-16 0 -93 77q-2 55 -2 207
q0 28 -18 52.5t-45 24.5q-11 0 -37 -6v-252q23 6 27 10q21 19 22 19q5 -4 13 -13q-78 -69 -78 -158q0 -38 11 -79q15 -50 38 -67q34 23 42 30q24 20 33 39q-2 4 -5 4t-11 -4t-12 -4q-34 0 -56.5 18t-22.5 52q0 3 6.5 17.5t7.5 18.5q20 14 28 14q7 0 10 -3q-2 -4 -21 -18
t-19 -23q0 -15 7 -26q9 -14 23 -14q21 0 37.5 38t38.5 38q10 0 31 -5.5t31 -5.5q6 0 19.5 5t19.5 5q68 0 102 -49q3 -4 5 -12l5 -6q12 -20 12 -34q0 -2 -7 -24q0 -7 -3 -21q-14 -49 -57 -77.5t-94 -28.5q-35 0 -78 14q-50 15 -64 39q-91 -50 -161 -50q-10 0 -39 8
q-57 16 -92 51q-41 40 -41 95q0 39 18 68q21 34 58 34q45 0 64 -22q13 -14 18 -49q7 -38 13 -49.5t29 -26.5h2q29 0 44 21q-4 7 -8 13q-6 10 -11 10q-2 0 -6.5 -2.5t-7.5 -2.5q-6 0 -11 5l1 6q10 8 21 8q34 0 34 -37q0 -17 -15.5 -26t-33.5 -9t-27.5 7.5t-18.5 15.5
q-1 8 -10 19q-37 -18 -45 -18q-20 0 -36.5 18t-16.5 37q0 6 7 26h9q11 -23 29 -23q7 0 13 7t6 14q0 10 -13 24.5t-23 14.5q-33 0 -51 -27q-15 -23 -15 -57q0 -73 78 -116h6q5 66 37 66q6 0 12 -3q0 -2 -1 -8t-1 -10q0 -21 30 -33q23 -10 48 -10q21 0 43 9t42 17
q-50 60 -50 159q0 30 12 64l3 4l-2 4q-4 -3 -30 -27.5t-29 -24.5q-6 0 -12 6.5t-11 12.5q-59 53 -128 66q18 18 23 24q10 13 17 29q4 109 4 165q0 24 -1 32h-15q-41 0 -55 -13t-16 -53h-15q-2 3 -2 6t1.5 8t1.5 7q-1 -4 -1 35q0 101 98 101v112v44q-3 28 -30.5 64t-27.5 61
q0 33 39 69q15 13 68 49q-1 -3 -11 -23q-4 -8 -4 -28q0 -16 23 -40q35 -37 44 -49q25 -35 28 -77q1 -3 0 -9t-1 -9v-5zM432 474q0 39 -30 79q-11 14 -59 64q-18 -14 -53 -44l1 -215q9 4 19 5q3 0 33 11q89 32 89 100zM269 358v200l-38 -26l-2 -174q28 2 40 0zM269 342h-40
v-214q0 -15 13.5 -22.5t26.5 -13.5v250zM517 -63q-15 0 -26 -15t-11 -30q0 -20 20 -20q4 0 15.5 6.5t14.5 6.5q8 0 8 -14q0 -20 -16.5 -35t-36.5 -15q-46 0 -64 37q-1 5 -5 15q-1 -1 -39 -45q-32 -37 -32 -40q0 -10 36 -27.5t49 -17.5q3 0 12 -1h12q3 0 10.5 8.5t12.5 9.5
q11 0 34 5q31 14 31 37q0 16 -8 32q17 12 23 12q25 0 44 -28q5 10 5 28q0 40 -24.5 65.5t-64.5 25.5z" />
    <glyph glyph-name="S" unicode="S" horiz-adv-x="602" 
d="M586 -98q0 -57 -38 -98.5t-95 -41.5q-72 0 -105 35q-21 21 -41 80q-21 65 -44 95l-4 -4q12 -25 12 -68q0 -53 -29 -94q-33 -46 -84 -46q-36 0 -63 24q-6 5 -40 45q-20 24 -38 24l-13 -17l9 -14l4 2l13 -8v-11l-13 -2q-11 0 -21.5 15t-10.5 28q0 7 12.5 14t20.5 7
q13 0 23 -7q13 -10 19 -12q9 24 40 49l35 8l21 -9q2 2 5 2q8 0 19.5 -15t11.5 -23q0 -44 -52 -44q-7 0 -12 7l17 29l-15 10q-11 0 -20.5 -12t-9.5 -23q0 -4 6 -20l-4 -10q9 -23 63 -23q41 0 70 40q27 36 27 78q0 5 -4 28q-4 -2 -18 -17q-10 -10 -20 -10t-22 8t-13 17l11 11
l16 -5l28 21l2 17q0 16 -7 37.5t-17 29.5q-15 -13 -32 -39q-23 -36 -28 -42h-10l-3 8q22 27 31 39q20 29 21 42l-53 53l-24 1l-17 -1q-9 -7 -30 -17q24 -3 48 -5q31 -7 31 -27l-29 -48q-4 0 -14 26.5t-36 26.5q-17 0 -34.5 -19t-17.5 -37q0 -4 5 -33q23 -28 39 -28
q12 0 30 6q25 7 30 8q3 -1 3 -5v-4q-57 -24 -58 -24q-35 0 -54 27q-17 24 -17 60q0 55 51 101q47 35 94 69q51 39 51 77q0 19 -36 42q-33 1 -33 -23q0 -11 9.5 -22t18.5 -21q-5 -1 -10 -3q-9 0 -23 16.5t-14 25.5q0 19 13.5 33t32.5 14q26 0 42.5 -20.5t16.5 -46.5
q0 -31 -27 -59q22 -8 59 -8h9q12 26 23.5 52t11.5 54q0 29 -58 56q-80 38 -106 61q-58 52 -58 142q0 73 56 128t129 55q79 0 132 -48q11 1 24 19.5t25 19.5l11 -13q-10 -10 -56 -68q-34 -42 -61 -62q-65 76 -130 76q-37 0 -65 -14q-36 -17 -36 -49q0 -60 67 -96
q56 -29 121 -29q27 0 47 44q37 80 39 83q29 44 77 44q33 0 57.5 -21.5t24.5 -54.5q0 -24 -20 -44t-44 -20q-66 0 -75 85q-39 -30 -39 -90q0 -20 52 -48q69 -38 96 -66q52 -52 52 -130q0 -46 -20 -76q-9 -16 -41.5 -46.5t-45.5 -56.5q22 -20 67 -41q40 -19 54 -36
q22 -27 22 -80zM495 196q0 44 -47 78q-43 32 -89 32q-21 0 -37 -11q-4 -3 -21.5 -53.5t-17.5 -58.5v-8q50 -24 69 -24q-1 5 -5 19t-4 22q0 19 17.5 40t35.5 21q20 0 35.5 -11.5t15.5 -31.5q0 -12 -13 -27.5t-26 -15.5q-10 0 -8 8q10 6 21.5 13t11.5 20q0 31 -32 31
q-17 0 -39 -26q0 -4 -2.5 -14t-2.5 -16q0 -17 32.5 -57t48.5 -40h4v1q19 11 20 24q12 10 22.5 38.5t10.5 46.5zM574 -100q0 40 -21 69q-23 34 -60 34l-9 -1l-4 -6l-9 2q-14 0 -30.5 -20.5t-16.5 -35.5q0 -8 6 -17.5t14 -9.5q25 0 25 16q0 8 -14 28l13 8q24 -9 32 -16
q12 -12 12 -34q0 -59 -79 -59q-36 27 -38 30q-12 14 -12 47q0 34 25 53t49 38l-27 22q-26 0 -53 -22q-21 -20 -43 -40q-48 61 -93 91h-7l-8 -19q6 -19 47 -67q4 1 9 2q12 0 9 -23q5 -6 15 -14q22 -66 36 -86q27 -39 79 -38q8 14 15 18q14 -16 14 -37q0 -15 -10 -26l6 -10
q50 1 89 37.5t39 85.5zM216 77q-10 28 -48 28h-9q2 -5 21 -18t24 -13q3 0 6.5 1.5t5.5 1.5z" />
    <glyph glyph-name="T" unicode="T" horiz-adv-x="647" 
d="M612 -117q0 -47 -44 -47q-9 0 -20 2q-8 -6 -10 -21q-3 -19 -5 -23q-29 -59 -114 -59q-88 0 -144 63q-11 13 -35 63q-5 4 -10 4t-15 -22q-13 -27 -29 -40q-24 -21 -64 -21q-41 0 -72 31.5t-31 72.5q0 45 47.5 89.5t47.5 66.5q0 11 -6.5 21.5t-15.5 10.5q-14 0 -14 -25
q0 -7 3 -15h-11q-8 8 -8 20q0 13 6.5 26t18.5 13q19 0 30.5 -15.5t11.5 -35.5q0 -27 -24 -59q8 -4 25 -12q9 -4 18 -21.5t9 -27.5q0 -55 -49 -55q-6 0 -18 1.5t-18 1.5l-3 11q36 6 36 23q0 11 -8.5 21.5t-18.5 10.5q-15 0 -29 -15t-14 -30q0 -42 25 -68.5t66 -26.5
q40 0 66.5 34t26.5 74q0 27 -5 45q-5 8 -13 24q-14 36 -62 100t-61 102q-6 17 -17 46q-5 16 -7 41q-3 32 -5 42q-16 23 -30 33l20 14t14 19q23 86 71 136q45 45 132 80l12 1l1 -10q-38 -17 -57 -48q-10 -14 -32 -68q-11 -26 -11 -75q0 -18 11 -27.5t22 -19.5
q-30 -12 -30 -54q0 -51 42 -111l56 33q-1 54 -1 88q0 25 -5 30l-26 14q36 18 36 38q0 4 -1 7v92l-64 -31l-2 16q38 17 67 31q70 35 86 51q-11 11 -59 38q-29 17 -57 34q-36 20 -62 20q-40 0 -73 -44q-30 -40 -34 -82q-7 -15 -16 -15q-7 0 -7 14q0 31 27 77q23 40 51 67
q61 61 155 61q50 0 125 -53.5t101 -53.5q36 0 55 28q14 18 24 60q1 3 4 3q4 0 10 -3q-6 -71 -47 -120q-47 -55 -115 -51v-264q0 -3 1 -3q2 0 6 2t7 2q14 0 44.5 18.5t30.5 52.5q0 29 -29 29q-18 0 -18 -16q0 -9 4 -15v-11q-18 4 -18 23q0 12 9 24t20 12q15 0 31 -15t16 -30
q0 -49 -48 -69v-6q41 -26 41 -43q0 -11 -12 -26.5t-23 -15.5t-24 11.5t-13 21.5q0 9 9 9q-10 -1 14 -1q4 0 8 1q-6 34 -37 34q-9 0 -17 -8v-48v-100l19 7q85 32 115 98q6 19 17 46h17v-16q0 -71 -45.5 -136t-110.5 -81l-9 -3q1 -10 45 -57q9 14 18 27q16 21 48 21
q17 0 31.5 -19t15.5 -37q-2 -5 -5 -5q-2 0 -10 7t-14 7q-14 0 -25 -9.5t-11 -22.5t9.5 -26.5t22.5 -13.5q22 0 30 27l3 1q7 -12 7 -24zM428 523q-19 2 -49 14q-2 -117 0 -156q3 -13 15 -24q9 -7 18 -15q-10 -5 -20 -11q-14 -10 -16 -25v-61l-150 -87q8 -14 25 -26
q11 -8 52.5 -26.5t50.5 -18.5h20q-5 16 -5 53q0 46 10 66q11 24 49 48v269zM430 92l1 135q0 5 -5 5h-1q-27 -21 -34.5 -40.5t-7.5 -57.5q0 -6 7 -47h5q18 0 35 5zM508 -173q0 44 -36 44q-25 0 -25 -25q0 -21 22 -21q3 -1 6 -3q-11 -12 -23 -12q-64 0 -64 62q0 56 93 60
q-47 73 -58 68q-29 -11 -73 -11q-112 0 -150 33q15 -51 27 -49q7 1 8 1q30 0 39.5 -39t28.5 -39q7 0 18 12q13 17 16 19q4 -7 4 -17q0 -24 -23 -37q-19 -11 -44 -11q-5 0 -14 3q16 -22 31 -45q23 -29 43 -29q31 0 49 24q24 -9 26 -10q13 -8 13 -24q0 -12 -13 -28
q-6 -1 26 -1q30 0 51.5 23t21.5 52z" />
    <glyph glyph-name="U" unicode="U" horiz-adv-x="663" 
d="M639 121q0 -21 -126 -144q70 0 101 -43q21 -29 21 -68q0 -100 -135 -128q-41 -9 -52 -9q-89 0 -147 55q-1 1 -2 4t-4 3q1 0 -32 -12.5t-54 -11.5q-62 4 -98 18q-48 18 -78 62q-4 7 -11 27t-7 28q0 37 23 63t59 26q21 0 40 -23.5t19 -44.5q0 -46 -53 -46q-24 0 -36 18
q2 1 21 7q13 4 13 16q0 9 -7 18.5t-16 9.5q-39 0 -39 -50q0 -44 65 -86l12 30q14 20 49 17q0 -4 -6 -18t-6 -20q0 -32 57 -32q39 0 67 19q-37 43 -59 86q-7 26 -27 78q-49 92 -95 110q-9 5 -24 14q51 9 50 64v167q-14 4 -29 4q-57 0 -67 -61l-5 1q-2 40 -1 45q11 54 29 76
q23 28 73 27q3 51 -2 146q-2 12 -29.5 37.5t-27.5 56.5q0 74 85 122q4 2 12 -5q-27 -22 -27 -39q0 -8 6 -18t7 -13q53 -39 62 -47q31 -31 30 -69q-3 -43 0 -171q0 -25 37 -43v-2q-10 -2 -22 -16.5t-12 -24.5q0 -64 1 -192l54 -47q3 44 3 614q0 6 23 2v-599l85 80q2 97 0 129
q-2 27 -14 40q-1 1 -26 16q14 3 26.5 20.5t8.5 26.5q-1 46 0 134q2 43 63.5 101.5t106.5 63.5q2 -1 5 -3q-2 -14 -2 -10q-17 -17 -32.5 -33t-15.5 -41v-209q5 -38 42 -50q-42 -30 -42 -51v-179q0 -10 25 -31.5t31 -21.5q4 0 22 20.5t21 20.5q13 0 13 -11zM492 -12
q-35 33 -69 57q-4 3 -11.5 17.5t-6.5 20.5q2 28 0 75q-41 -41 -75 -74q-82 -79 -117 -103v-11q5 -4 28 -57q17 -37 48 -37q8 0 22.5 3.5t20.5 3.5q23 0 24 -40l16 14q21 17 46 50q-15 -2 -28 -2q-86 0 -86 67q0 25 14.5 46t33.5 21q10 0 9 -6q-36 -36 -36 -56q0 -10 10 -22
t20 -12q14 0 32.5 21.5t43.5 21.5q5 0 17.5 -6t18.5 -6q14 0 20 2.5l6 2.5q1 1 -1 9zM616 -127q0 32 -24 56t-56 24q-20 0 -33.5 -13t-13.5 -32q0 -9 10.5 -19t19.5 -10q12 0 16 11l5 21l5 4q13 -16 13 -31q0 -23 -19 -39t-43 -16q-39 0 -63 75q-12 -19 -38 -52
q-13 -14 -36.5 -29t-29 -18.5t-11.5 -8.5q6 -7 17 -16q63 -18 83 -18h12q8 -1 11 -1q18 0 25 30q0 9 5 19q30 -3 30 -54q0 -1 3.5 1t3.5 1q37 4 72.5 37.5t35.5 77.5z" />
    <glyph glyph-name="V" unicode="V" horiz-adv-x="580" 
d="M388 563q-10 9 -29 25q-13 11 -17 11q-10 0 -17 -6q-10 -8 -26 -26l-3 -475q1 -4 21.5 -12.5t27.5 -6.5q13 8 45 31v221q-4 16 -16 23q-6 3 -28 10q11 5 22 11q16 10 20 27v167zM277 523q0 -2 2 12q1 9 -2 13q-11 -6 -58 -49q-3 -73 0 -111l42 -30l-42 -38v-188l58 -33
v424zM491 -152q0 27 -18 48t-46 21q-12 0 -28 -6q-20 -9 -20 -22q0 -10 5 -21q7 -15 19 -15q13 0 22 7q2 5 5 11t7 6q4 -6 4 -11q0 -30 -19 -50t-49 -20q-16 0 -28 9q-22 19 -29 72q-7 -5 -34 -38t-27 -35q0 -8 30 -31q26 -21 69 -21q52 0 94.5 27t42.5 69zM150 -20
q0 43 -54 75q21 -17 31.5 -44.5t9.5 -49.5q0 -1 -1.5 -6.5t-1.5 -8.5t2.5 -5l2.5 -2q11 13 11 41zM555 362q-25 -10 -41 -42v-183q-106 -53 -117 -59q-65 -36 -106 -75q-28 -26 -34 -26q-5 0 -44 26q-42 27 -55 31l-4 -4q2 -21 26 -35q17 -13 32 -31q10 -14 32 -25
q5 -3 9 -3q12 0 20 5l13 12q1 -1 1 -17t-10 -31.5t-26 -15.5q-17 0 -40 8q1 -5 2 -11q1 -15 34 -71l29 40q18 26 57 75q13 14 38.5 25.5t43.5 11.5q15 0 15 11q0 -1 -7 14t-7 25q0 53 43 53q15 0 27.5 -13t12.5 -29q0 -21 -12 -35l-11 9q0 4 4.5 13.5t4.5 13.5q0 15 -27 29
q-29 -3 -29 -44q0 -8 6 -22q7 -18 8 -22q40 -6 64.5 -39.5t24.5 -74.5q0 -58 -53 -94q-48 -32 -109 -32q-46 0 -85 25q-28 18 -40 38q-73 -62 -139 -62q-47 0 -78 30q-28 26 -24 51q0 18 6 32q13 32 48 33q20 0 37.5 -14t17.5 -34q0 -13 -16.5 -27t-29.5 -14q-7 0 -14.5 8.5
t-7.5 15.5t8.5 19.5t8.5 16.5q0 8 -17 10q-26 0 -26 -44q0 -18 11 -33q25 -34 77 -34q23 0 58 12.5t53 27.5l13.5 9t5.5 8q-21 31 -37 78q-20 54 -40 124q-5 -4 -5 -9q0 -4 3 -17t3 -15q0 -27 -2 -33q-5 -13 -30 -28q-27 -18 -41 -18q10 0 -28 3q-15 1 -28.5 21t-13.5 36
q0 14 20 43q13 -27 33 -27q37 0 37 46q0 -1 -12 18.5t-25 24.5q-19 7 -27 12q10 20 63 55l-2 200q-8 2 -18 2q-26 0 -43 -15.5t-17 -40.5l-9 2q0 8 -1 23v22q0 79 85 92l-1 118q0 4 -29.5 36t-29.5 71q0 65 65 93q2 1 8.5 7t11.5 6t13 5q5 -3 6 -4q0 -1 -10.5 -12t-10.5 -28
q0 -30 26 -50q45 -37 46 -38q25 -29 23 -80l201 172l60 -40q35 -26 36 -56q4 -86 -1 -205q10 -29 39 -36z" />
    <glyph glyph-name="W" unicode="W" horiz-adv-x="795" 
d="M722 -173q0 50 -44 50q-22 0 -22 -22q0 -11 21 -29q-12 -7 -25 -7q-20 0 -38 19.5t-18 39.5q0 13 16.5 33t16.5 23q0 2 -4 3q-17 2 -33 2q-58 0 -112 -34q-1 -20 -1 -18q0 -51 19 -67q-8 44 15 58q0 -20 1 -39q0 -13 9 -36q17 -14 37 -14q9 0 12 6q5 11 13 17l11 -22
q0 -20 -23 -31q1 -1 13 -8t17 -7t14.5 -1t15.5 -1q28 0 63 27q26 19 26 58zM87 481v62q-1 7 -25 32t-24 62q0 19 10 36.5t20 34.5q9 4 30 29q18 20 35 20q5 -4 5 -9q0 -10 -19 -24q-2 -27 -2 -22q0 -12 45 -43t49 -60q0 -30 1 -64q33 39 90 93q47 45 94 89l82 -101v-76
l170 177l87 -94l1 -226q-4 -38 41 -58q-36 -11 -41 -54v-137l-13 -1q-49 -4 -138 -84q-92 -82 -92 -131q36 34 103 34q36 0 73 -9q-25 37 -25 57q3 61 47 61q19 0 35 -14t16 -33q0 -18 -16 -34q-13 8 -13 14q7 12 7 23q0 21 -26 25q-30 3 -30 -35q0 -24 29 -49
q52 -44 55 -47q29 -33 29 -77q0 -61 -52 -97q-45 -32 -108 -32q-38 0 -78 32q-37 29 -55 65q-4 14 -14 41q-4 -2 -28 -41q-25 -43 -60 -67q-52 -35 -131 -35q-49 0 -97 35t-58 82q-4 17 -3.5 50t-1.5 48t-10 40l-12 20q-10 12 -31 10q-7 0 -14.5 -8.5t-7.5 -16.5
q0 -12 13 -20.5t16 -20.5q-5 -3 -11 -3q-11 0 -22.5 14.5t-11.5 26.5q0 15 10.5 31t25.5 16q26 0 45 -18t25 -44q0 -16 7 -42q7 8 22 20q20 11 53 11q25 0 44.5 -22t19.5 -46q0 -22 -12 -38t-33 -16q-16 0 -33 13v8q10 4 29 16v4q1 33 -33 33q-20 0 -33 -16t-13 -37
q0 -46 45 -81q42 -33 89 -33q81 0 140 52q-5 8 -13 8q-3 0 -10 -1.5t-11 -1.5q-22 0 -37 15.5t-15 38.5q0 22 20 39l5 -1q0 -9 1 -24q9 -10 29 -7q43 7 67 36l5 11q-1 2 -8.5 -3t-8.5 -5q-6 0 -15 -1t-15 -1q-26 0 -53 15t-38 37q-9 16 -9 32q0 47 51 47q11 0 31 -36
q-29 5 -26 5q-22 0 -22 -27q0 -56 87 -56q13 0 37 18q9 27 22 47q-37 64 -116 105q-10 5 -39 17q38 19 38 49v155q-4 9 -10 16q-12 18 -29 27q33 20 34 43v166q0 17 -12.5 32.5t-29.5 15.5q-10 0 -15 -9t-9 -18v-457q8 5 28 21l7 -17q-15 -11 -40 -35q-16 -21 -46 -53
q-35 -37 -49 -45q-27 26 -55 51q-20 17 -67 38q8 12 30 44l-1 195q-7 2 -20 2q-60 0 -60 -46l-9 2q0 8 -1 23v22q0 76 84 88zM617 288q-6 40 -37 50q13 12 18 20q10 15 14 34v151q0 49 -32 49q-9 0 -20 -5l-14 -13l2 -514l69 57v171zM529 559l-53 -55v-110q1 -33 11.5 -41
t21.5 -16q-31 -15 -31 -42v-34.5v-34.5v-107q12 -12 51 -43v483zM261 93l-1 458q-16 -17 -49 -45q-2 -19 -2 -41q0 -45 1 -82q1 -14 20 -31q10 -8 19 -16q-9 -6 -17 -12q-20 -16 -22 -29v-69q0 -21 1 -57t1 -58q13 -13 40 -34z" />
    <glyph glyph-name="X" unicode="X" horiz-adv-x="657" 
d="M622 689q0 -15 -13 -49q-11 -30 -20 -44t-37.5 -26t-48.5 -12q-35 0 -64 29l-59 -91l1 -82h115l37 55h25q1 1 3 2v0q-10 -11 -82 -131h-99v-158l54 -47q-5 49 -5 54q0 23 7 39q17 39 55 39q18 0 28.5 -16t10.5 -32q0 -15 -20 -28q-4 3 -6 3v8q16 15 16 24q0 12 -16 21
q-5 3 -18 3q-41 0 -42 -66l5 -59l42 -35l89 72l12 -10l-89 -79q25 -23 45 -43q48 -49 64 -79q16 -22 16 -53q0 -50 -36 -82q-70 -64 -155 -64q-66 0 -112 39q-49 41 -54 107q0 6 -3 11q-4 -1 -14 -32q-13 -44 -82 -85q-17 -11 -31 -11q-3 0 -20.5 -2t-20.5 -2q-33 0 -36 10
v8q2 1 24 1h13h13q8 0 27 8q16 8 20 12q-8 3 -21 9q-24 15 -24 45q0 37 20 37q2 0 11 -12t21 -12q17 0 23 14q20 48 37 78q9 17 37 17q3 0 3.5 -1t3.5 -1q4 0 31 39t27 44q0 4 -26 23t-31 19q-2 0 -21.5 -22t-20.5 -24q-6 -13 -28.5 -38t-33.5 -30q-29 -12 -47 -5
q-8 4 -29 25q-9 12 -18 23q-18 21 -27 21q-34 0 -44 -66l-18 2q7 22 31 76q16 27 39 52q31 34 51 34q33 0 61 -35.5t39 -35.5q12 0 37.5 26t23.5 39v27v161h-101l-32 -54l-28 1l71 123l90 -1v141q0 27 -21 27q-77 -17 -87 -17q-55 0 -72 91q-3 14 0 37q3 26 12 30
q2 -17 9.5 -24.5t15.5 -14.5q14 -5 29 -5q21 0 67 15q53 17 92 22q59 8 67 -63v-115q12 11 51 84l50 94q3 7 10 17q8 -17 20.5 -38t15.5 -23q11 -10 41 -13q15 -2 26 13q11 19 22 37h8q2 -3 0 -10q-2 -9 -2 -10zM580 -125q0 14 -18 33.5t-34 19.5q-17 0 -31 -9t-14 -25
q0 -8 11 -15t12 -13q-7 -9 -14 -9q-14 0 -33 11t-28 24q-8 10 -8 39q0 8 10.5 29t17.5 27q33 25 60 25q5 0 11 -1q1 0 4 1.5t4 1.5q-42 42 -44 42q-10 0 -62 -60q-12 10 -35 30l-29 25q-7 0 -22 -25l-18 -30q11 -11 11 -20q0 -7 -3 -17q-17 -26 -17 -36q0 -8 4 -23l15 -30
q8 -15 24 -15q3 0 7 -1t6 -1q12 0 16.5 14t17.5 14q10 0 18.5 -15.5t8.5 -24.5q0 -39 -52 -48l16 -4q21 -15 47 -15q32 0 105 39q15 8 25.5 27.5t10.5 34.5z" />
    <glyph glyph-name="Y" unicode="Y" horiz-adv-x="606" 
d="M573 -175q0 -13 -5 -26q-28 -63 -135 -63q-25 0 -50 4q-8 1 -27.5 10.5t-21.5 9.5q-10 0 -16 -7q-11 -11 -15 -13q-29 -22 -59 -44q-42 -31 -61 -31q-18 0 -29 17q-9 14 -9 33q0 13 12.5 24.5t21.5 11.5q10 0 27.5 -8.5t14.5 -8.5q6 0 40 21q18 11 36 23q-17 10 -36 39
q-23 34 -32 71q-1 -1 -3 -4q-5 -55 -42 -90.5t-84 -35.5q-35 0 -67 26.5t-32 63.5q0 35 20.5 62.5t54.5 27.5q23 0 42.5 -19t19.5 -42q0 -19 -14.5 -33.5t-33.5 -14.5q-8 0 -16 3q9 8 9 18q0 20 -26 20q-20 0 -20 -25q0 -33 29 -53q21 -14 44 -14q42 0 73 41q28 38 28 82
q0 39 -20 84q-18 -45 -58 -45q-9 0 -20.5 9.5t-11.5 18.5q0 4 11.5 4t14.5 2q20 11 20 35q0 32 -61 71q-1 7 12 15q19 11 21 13q12 12 12 37l1 154q-5 1 -35 1t-39 -9q-12 -15 -23 -30l-2 -1q-6 4 -6 26q0 42 20 72q26 40 78 36v154q-17 15 -46 48q-15 26 -15 28q0 -1 0 36
q0 14 7.5 25.5t16 23t73.5 33.5q-14 -16 -14 -30q0 -21 30 -44q40 -29 47 -40q20 -27 18 -87q12 0 101 82t95 82q7 0 108 -96l1 -230q1 -17 18 -26l17 -9q0 -1 -2 -2q-27 -18 -31 -43l-1 -263q-2 -51 -5 -61q-6 -26 -35 -58q-59 -65 -103 -99q-19 -15 -57 -46q7 -5 29 -10
q14 -4 32 -4q52 0 89 19q26 13 26 34q0 15 -11 15q-3 0 -12 -7t-12 -7q-15 0 -15 24q0 47 52 47q21 0 34 -19.5t13 -38.5zM298 555l-49 -39v-134q1 -8 4 -15q7 -16 25 -23q-21 -8 -29 -23q-1 -7 -3 -13q-2 -155 1 -192q12 -8 41 -38l10 7v470zM429 -71l-2 308q0 17 -3 58
q-2 29 -39 45q40 17 39 41q-2 44 -1 171l-55 53l-49 -37l1 -467q26 28 31 28q7 0 7 -10l-128 -134q-13 4 -23 12l4 -21q0 -8 13 -26.5t20 -20.5q-6 3 -9 4v0q34 -14 58 -14q46 0 46 36q0 12 -8 20q-14 13 -16 16q7 8 25 8q20 0 37 -10q6 -4 13.5 -21t7.5 -26q0 -29 -23 -51
t-57 -22q-3 0 -14 2.5t-14 2.5q-20 0 -54 40q-1 -7 4.5 -17l5.5 -10q4 -23 24.5 -52.5t42.5 -46.5l72 62q45 41 44 79z" />
    <glyph glyph-name="Z" unicode="Z" horiz-adv-x="546" 
d="M517 102q-2 -1 -30 -1t-47 -10q-30 -16 -30 -46q0 -19 13.5 -33.5t36.5 -14.5l10 1q-7 -15 -16 -24q-18 -17 -51 -17q-16 0 -23.5 8t-15 17t-7.5 29q0 25 46 73q-4 4 -9 4q-4 0 -10 -4.5t-6 -5.5q-26 -12 -72 -33q-23 -8 -43 -25.5t-38 -33.5q-12 25 -43 67
q-9 8 -34.5 22t-33.5 14q-47 -4 -50 -20q13 -1 24 -3q25 -4 36 -15q3 -3 27 -28q15 -15 29 -42q2 -4 27 -55l25 25q10 -5 10 -10q-12 -14 -23 -34q-1 -12 27 -46.5t42 -35.5q15 0 20 5q6 9 11 18q24 -1 23 -30q-1 -27 -25 -33q-15 -2 -30 -5q1 -15 33 -22q5 -2 42 -3
q35 -1 67 23t33 54q1 17 -8.5 31t-22.5 14q-31 1 -32 -33q0 -5 16 -17q-11 -11 -23 -10q-20 0 -34 20q-13 17 -13 38q1 17 13.5 32.5t29.5 20.5q24 8 36 8q19 0 39 -11.5t34 -35.5t13 -46q-3 -111 -132 -115q-34 -2 -51 6q-56 27 -84 56q-12 12 -24 44q-16 42 -20 49
q-16 -14 -37 -18q-8 -25 -21 -57q-13 -16 -46 -32q-6 -3 -23 -3q-18 1 -36 16t-17 29q-1 10 2 27q8 -3 20 -14q7 -7 23 -8q37 -1 50 30q-51 0 -81 21q-53 37 -51 118q4 113 132 148q11 3 18 6q36 19 38 59q0 14 -6 27q-7 17 -20 17q-23 1 -30 -25q0 -2 -2 -2q-5 0 -13 14.5
t-8 20.5q2 58 64 56q75 -3 73 -83q-1 -24 -17 -45q-4 -5 -34 -36q46 0 117 -52l1 280q-24 -19 -53 -45q-6 2 -17 16q20 20 70 51v189q-30 -14 -59 -27q-50 -33 -52 -82q-1 -44 35 -45q16 -1 22 9t6 15q0 3 -13 24l16 5q6 -6 15 -35q1 -14 -16 -25.5t-29 -11.5q-45 2 -53 59
q-5 41 22 71q15 13 31 25q-8 2 -39 5q-11 2 -29.5 15.5t-24.5 32.5q-5 14 -3 47q2 37 15 37l14 -15t33 -15l187 19q22 0 45 1q20 -1 43 -19q34 -27 32 -93v-123q10 -12 10 -18l7 -12q-48 -4 -58 -6q-44 -6 -72 -21q0 -3 28 -8q32 -6 42 -13q20 -13 40 -27q17 -16 18 -45
q2 -108 0 -168q0 4 9 -42zM380 454v111q0 33 -46 33q-13 0 -17 -3v-188q50 14 54 16q8 5 9 31zM390 121q8 216 -19 254q-4 6 -20 13q-9 4 -23 2q-16 -1 -16 -11q2 -34 0 -295q23 1 39 6q38 10 39 31zM184 -87q-7 20 -17 48q1 -28 2 -55q7 3 15 7zM132 -60q1 32 -18 71
q-5 11 -23 24t-30 14q-34 1 -46 -20.5t-12.5 -24t-1.5 -20.5q-1 -37 30 -62t70 -26q16 -1 25 2q6 30 6 42z" />
    <glyph glyph-name="bracketleft" unicode="[" horiz-adv-x="203" 
d="M79 -52l70 -1v-50l-141 -1v881h141v-50h-65q-8 -3 -4 -3z" />
    <glyph glyph-name="backslash" unicode="\" horiz-adv-x="371" 
d="M1 679l329 -676l33 1l-330 678z" />
    <glyph glyph-name="bracketright" unicode="]" horiz-adv-x="206" 
d="M78 -51l-70 -1v-51h141v880h-141v-49l64 -1q8 -3 4 -3z" />
    <glyph glyph-name="asciicircum" unicode="^" horiz-adv-x="307" 
d="M0 693l-2 6l150 113l157 -115l-3 -6l-152 50z" />
    <glyph glyph-name="underscore" unicode="_" horiz-adv-x="584" 
d="M587 -150h-587v50h587v-50z" />
    <glyph glyph-name="grave" unicode="`" horiz-adv-x="326" 
d="M80 585q7 27 27 27q10 0 22 -6l143 -79l-3 -7q-153 26 -155 26q-36 0 -36 28q0 5 2 11z" />
    <glyph glyph-name="a" unicode="a" horiz-adv-x="414" 
d="M235 359q-88 51 -92 50l-7 -4v-132q13 -28 36 -35q-28 -13 -36 -43v-100l37 -32l62 51v83q-8 28 -36 41q23 7 36 34v87zM-2 238q23 7 38 37v79q-3 5 -8 15q26 12 76 38q11 8 29 18q6 3 81 64q20 -17 64 -48q12 -7 30 -17t61 -28l7 -5q-38 -12 -42 -36v-83q13 -27 36 -34
q-28 -13 -36 -42v-97l30 -29l44 36l7 -8l-110 -107l-70 65v39l-118 -104q-2 -1 -82 66v136q-8 32 -37 45z" />
    <glyph glyph-name="b" unicode="b" horiz-adv-x="402" 
d="M345 99l-181 -110l-36 25l-58 36l-65 29v2q34 2 34 46v70q-8 28 -36 41q23 7 36 33v368l103 76v-314l128 100l75 -71v-159q13 -26 36 -33q-27 -12 -36 -40v-99zM177 238q-27 -12 -35 -39v-29.5v-52.5l90 -54l11 7v128q-9 28 -36 40q23 7 36 33v116l-35 36l-67 -53l1 -99
q13 -26 35 -33z" />
    <glyph glyph-name="c" unicode="c" horiz-adv-x="313" 
d="M282 477q2 -14 -23 -49q-27 -39 -51 -37q-20 1 -31 6q-1 1 -32 22q-3 0 -8 -5v-143q13 -25 40 -34q-32 -14 -40 -39v-94l58 -47l67 47l9 -13l-138 -106l-123 90q19 12 24 43v77q-9 30 -37 43q23 7 37 35v114q57 29 173 113q11 -44 35 -44q9 0 16 8t15 16q4 2 9 -3z" />
    <glyph glyph-name="d" unicode="d" horiz-adv-x="413" 
d="M389 238q-29 -13 -37 -44v-92q-68 -36 -98 -57q-33 -23 -78 -67l-42 27l-84 44l-34 14q24 13 27 36v99q-8 28 -36 40q23 7 36 33v97l59 23l37 22l46 39l-164 160l82 74l250 -254l-1 -159q14 -28 37 -35zM352 194zM147 108l85 -49l16 11v130q-8 26 -35 38q22 7 35 32v117
l-47 47l-54 -45v-118q13 -25 34 -32q-25 -11 -34 -41v-90z" />
    <glyph glyph-name="e" unicode="e" horiz-adv-x="348" 
d="M212 285l-65 125v-166zM7 248q23 7 36 33v102q100 53 167 113q28 -87 98 -180q-31 -23 -79 -50q-40 -24 -81 -47v-95l66 -59l60 49l11 -12l-140 -117q-38 40 -60.5 57t-69.5 41l28 36v89q0 25 -36 40z" />
    <glyph glyph-name="f" unicode="f" horiz-adv-x="227" 
d="M-1 238q29 9 35 41v146h-54l-1 42l53 2q-1 108 -1 134l169 112q63 -40 80 -55l-71 -64l-65 50l-9 -3v-174l78 -2v-44h-80v-148q16 -31 36 -37q-26 -12 -36 -44v-191q-15 -88 -53 -143q-3 -5 -53 -59l-9 2q16 71 16 135v253q3 30 -35 47z" />
    <glyph glyph-name="g" unicode="g" horiz-adv-x="410" 
d="M39 197q-8 28 -36 41q23 7 36 34v111q38 19 71 37q77 42 113 71q30 -22 75 -43q70 -33 78 -37v-3q-40 -11 -40 -60v-79q12 -24 34 -31q-26 -12 -34 -36v-107q48 -73 48 -128q0 -72 -85 -121q-73 -33 -145 -66v3q-27 58 -73 58q-29 0 -60 -49l-10 3q12 42 56 76t88 34
q45 0 92 -59q24 2 41.5 20t17.5 42q0 22 -34.5 70.5t-37.5 107.5q-7 -4 -123 -106q-22 20 -72 64v153zM181 238q-28 -13 -36 -42v-108q5 -4 27 -25l60 51v86q-8 26 -35 38q22 7 35 32v103l-87 44v-145q13 -27 36 -34z" />
    <glyph glyph-name="h" unicode="h" horiz-adv-x="395" 
d="M45 193q-8 32 -37 45q23 7 37 36l1 362q53 37 100 75v-313l113 102l74 -85l1 -146q12 -24 34 -31q-26 -12 -34 -36v-177l-3 -33l-10 -22l-178 -174l-11 7q38 38 65 90q30 58 30 105v30v172q-8 26 -35 38q23 7 35 32l1 102q-7 8 -33 34l-48 -44v-90q13 -27 36 -34
q-28 -13 -36 -41v-51q0 -45 41 -63q-31 -15 -51 -35q-26 -35 -40 -60l-40 56q-14 19 -33 29q-12 5 -23 10q22 12 28 19.5t16 37.5v53z" />
    <glyph glyph-name="i" unicode="i" horiz-adv-x="243" 
d="M169 608l-66 -70l-71 72l68 67zM60 196q-9 29 -37 42q23 7 36 34v107l-30 31q-8 -6 -23 -16l-8 9l107 94q42 -43 46 -46q28 -24 56 -34q-2 -5 -17 -12q-27 -13 -28 -50l-1 -78q15 -32 38 -39q-28 -13 -36 -43l-1 -94l40 -37l32 32l9 -11l-96 -99l-87 70v140z" />
    <glyph glyph-name="j" unicode="j" horiz-adv-x="250" 
d="M179 608l-66 -70l-71 72l68 67zM173 195q8 30 36 43q-23 7 -37 35v82q0 13 8.5 28.5t19.5 21.5q15 7 17 12q-28 10 -56 34q-4 3 -46 46l-107 -94l8 -9q7 3 23 16l30 -31v-107q-13 -27 -36 -34q16 -7 37 -44v-70l5 -212l-19 -18q-27 31 -52 31q-37 0 -93 -82q4 -1 9 -1
q8 0 23 4t22 4q24 0 40 -32l166 119q2 128 2 167v91z" />
    <glyph glyph-name="k" unicode="k" horiz-adv-x="406" 
d="M32 198q-9 28 -36 40q23 7 36 33v368q-6 4 -3 11q52 22 102 64l1 -317q111 104 121 104q34 -3 60 -47q21 -37 21 -69q0 -35 -17 -68q-28 -54 -84 -69q15 -3 47 -17q32 -20 40 -36q5 -8 14 -48v-26q3 -26 24 -36q5 -3 11 -3q19 0 35 25l11 -9l-117 -111q-20 12 -34 25
q-34 31 -34 60q2 40 -5 131q-3 20 -39 29h-54v-103q9 -40 39 -53q-56 -34 -82 -94q-34 59 -96 95q26 6 39 50v71zM242 359q-3 18 -15.5 39t-27.5 29q-29 -23 -65 -55v-122h51q18 0 35 21q23 26 23 74q0 7 -1 14z" />
    <glyph glyph-name="l" unicode="l" horiz-adv-x="240" 
d="M37 193q-8 32 -37 45q23 7 37 36v358l105 83v-443q13 -27 36 -34q-28 -13 -36 -42v-43q0 -44 48 -66l37 29l11 -13l-128 -115l-107 96h-1v1l1 -1q34 43 34 65v44z" />
    <glyph glyph-name="m" unicode="m" horiz-adv-x="642" 
d="M69 196q-8 23 -34 35q22 7 34 30l1 104q-7 35 -28 35q-17 0 -34 -26q-10 3 -10 8t105 116q24 -41 66 -64l1 -44l117 108q17 -39 66 -69v-37l126 105q46 -55 107 -85l3 -2q-21 -8 -33.5 -26t-10.5 -34v-41v-49q12 -25 31 -31q-23 -10 -31 -37v-84l39 -38l41 46l10 -11
q-103 -129 -105 -124q-9 18 -81 71v137q-9 28 -36 40q23 7 36 34v102l-43 42l-51 -41v-103q12 -25 34 -32q-26 -12 -34 -38v-63q-3 -29 20 -44q13 -6 25 -12v0v0v0q-23 -14 -31 -20q-21 -16 -30 -30t-28 -41h-2q-10 14 -30 43q-17 22 -56 44q22 14 26 19q11 14 11 41v61
q-8 28 -35 40q22 7 35 33v108l-35 40q-18 -15 -54 -49v-99q13 -26 35 -33q-27 -12 -36 -40v-64q0 -41 35 -55l1 -2q-38 -10 -87 -82h-3q-35 55 -86 82q42 28 40 60q-1 10 -1 66z" />
    <glyph glyph-name="n" unicode="n" horiz-adv-x="461" 
d="M225 410l43 -42v-96q-13 -27 -36 -34q27 -12 36 -40v-40v-82q37 -31 82 -82q2 -5 104 120l-10 11l-41 -46l-39 38v84q8 27 31 37q-19 6 -31 31v84q-2 16 10.5 34t33.5 26l-3 2q-61 30 -107 85l-129 -105v42q-42 23 -66 64q-105 -111 -105 -116t10 -8q17 26 34 26
q21 0 28 -35q0 -42 -1 -98q-12 -23 -34 -30q26 -12 34 -35q0 -55 1 -66q4 -51 -40 -60q42 -22 86 -92h3q14 24 28 42q33 43 59 50l-1 2q-35 14 -35 55v64q9 28 36 40q-22 7 -35 33v93z" />
    <glyph glyph-name="o" unicode="o" horiz-adv-x="394" 
d="M46 199q-8 26 -35 38q23 7 36 32v120q96 46 173 113l124 -82l-1 -150q13 -26 36 -33q-28 -13 -36 -41v-100q-39 -14 -93 -48q-57 -37 -83 -66q-40 24 -61 36q-48 26 -90 43q23 19 30 44v94zM239 370l-79 53l-12 -9v-145q13 -25 35 -32q-26 -12 -35 -37v-92q38 -24 82 -47
l9 6q1 121 1 124q-15 37 -35 46q23 7 35 29z" />
    <glyph glyph-name="p" unicode="p" horiz-adv-x="423" 
d="M78 198q-9 28 -36 40q23 7 36 33v102l-29 29l-38 -34q-8 0 -13 12l111 113l69 -65q3 -28 0 -43q24 21 110 105l78 -69q-2 1 -1 -151q13 -25 35 -32q-26 -12 -35 -38v-87q-34 -15 -78 -53q-37 -32 -73 -64l-35 34q0 -47 1 -165l-102 -57l-1 263q-15 -1 -28 -8
q-33 -16 -52 -55q-3 5 -3 17q0 36 17 67q22 43 66 52zM261 264v104l-33 36l-48 -43l-1 -90q13 -27 35 -34q-27 -12 -35 -41v-57q1 -12 1 -9q20 -10 40 -21q28 -14 35 -32h5l1 130v57zM259 207q-8 20 -32 31q21 6 32 27v-58z" />
    <glyph glyph-name="q" unicode="q" horiz-adv-x="393" 
d="M36 197q-8 28 -36 41q26 8 39 34l-2 118q49 20 80 41l84 60l153 -85q-20 -17 -30 -40v-92q0 -7 11 -19.5t25 -16.5q-27 -12 -35 -43q-1 -21 -1 -60q1 -49 1 -271l-121 -66l16 39l1 254l-107 -91l-78 66v131zM221 203zM171 238q-28 -13 -36 -41q1 -51 1 -84q27 -33 35 -33
q5 0 49 35l1 88q-8 23 -34 35q13 4 23.5 14.5t11.5 17.5l-2 96q-73 44 -78 44q-3 0 -5 -1.5t-3 -1.5q-1 -54 0 -133q14 -29 37 -36z" />
    <glyph glyph-name="r" unicode="r" horiz-adv-x="362" 
d="M70 267q0 51 2 86q0 21 -2 28q-4 13 -22 13q-10 0 -33 -27l-15 10l110 115l66 -64q-2 -9 0 -45l99 105q14 -29 15 -30q11 -18 25 -18q10 0 20 13l14 18q2 -1 5.5 -1t3.5 -3q0 -22 -23 -62q-26 -43 -49 -45q-30 -2 -23 -2q-16 0 -49 34l-39 -37v-83q13 -27 36 -34
q-27 -12 -35 -39l-1 -76q43 -39 58 -39q9 0 36 23t29 23q4 0 11 -11q-42 -41 -139 -130q-18 21 -51 51q-15 10 -43 26q-14 4 -37 13q2 7 8.5 8t9.5 4q15 17 15 38q0 9 -0.5 35.5t-1.5 37.5q-8 24 -35 36q24 7 35 29z" />
    <glyph glyph-name="s" unicode="s" horiz-adv-x="389" 
d="M298 402q-44 -20 -74 -20q-27 0 -44 14q-7 9 -14 17q-7 5 -17 -9v-104q1 -27 25 -27q13 0 26 15q51 58 98 114zM339 94q-54 -24 -130 -61q-19 -15 -57 -43q-16 18 -32 37q-19 21 -42 21q-25 0 -45 -15q-13 -9 -25 -33l-14 9l134 193q-13 10 -41 33q-13 10 -37 11l-2 151
q39 15 72 31q79 36 111 63q4 -17 22 -33q22 -19 45 -19q20 0 34 10q7 6 25 28q2 -2 7.5 -1t5.5 -2q0 -9 -112 -149l82 -56zM248 76l-1 147q-12 23 -39 23q-28 0 -35 -23l-93 -128q26 19 52 19q38 0 66.5 -24.5t25.5 -24.5z" />
    <glyph glyph-name="t" unicode="t" horiz-adv-x="266" 
d="M54 196q-9 29 -37 42q23 7 37 35v146l-56 -1v51l56 1l1 133l100 51v-185h67v-52h-68v-146q13 -26 36 -33q-27 -12 -36 -40l1 -63l41 -46l34 33l11 -13q-40 -42 -119 -115q-40 45 -48 53q-23 21 -61 42q12 3 21.5 17.5t18.5 28.5v28q1 12 1 33z" />
    <glyph glyph-name="u" unicode="u" horiz-adv-x="457" 
d="M228 78l-44 42l1 96q8 16 35 25q-27 12 -35 40v49l1 82q-58 45 -78 85l-110 -123l11 -11l46 40l34 -38v-88q-8 -26 -31 -36q16 -5 20.5 -8t9.5 -14q0 -81 1 -84q1 -16 -11 -34.5t-33 -25.5l3 -2q61 -30 107 -85l128 105l1 -42q42 -23 66 -64q104 110 104 115q0 6 -9 9
q-17 -26 -34 -26q-21 0 -28 35v98q7 12 34 21q-25 11 -33 35q0 64 -1 75q-4 51 40 60q-50 26 -87 86h-2q-14 -23 -28 -39q-34 -41 -59 -48l1 -1q35 -14 35 -55l-1 -73q-8 -28 -35 -40l21 -7q8 -5 14 -17v-93z" />
    <glyph glyph-name="v" unicode="v" horiz-adv-x="423" 
d="M86 267v97l-36 39l-32 -27l-12 16l106 100l70 -64v-40q16 18 57.5 57.5t55.5 48.5q36 -37 79 -74v-152q12 -23 34 -30q-26 -12 -34 -36v-102q-39 -20 -71 -38q-76 -44 -105 -74q-38 41 -149 88q13 11 26 23q10 11 10 36l2 64q-11 28 -35 39q22 7 34 29zM223 238
q-33 -15 -41 -37v-81q70 -52 78 -52q3 0 9 -2q3 -1 3 6v129q-9 25 -35 37q22 7 35 31v77q0 25 -10 40q-8 10 -30 24q-51 -43 -51 -49v-91q13 -23 42 -32z" />
    <glyph glyph-name="w" unicode="w" horiz-adv-x="609" 
d="M213 238q-18 -8 -24 -14q-13 -11 -16 -30v-65q2 -19 6 -26q6 -12 27 -23q-28 -17 -45 -35q-11 -14 -36 -53q-14 21 -29 41q-22 28 -57 43l26 22q10 11 10 35l2 66q-11 28 -35 39q15 4 33 39l1 87l-36 39l-34 -28l-10 17l106 100l70 -64v-28l117 96l70 -64q1 -23 1 -35
q14 16 55.5 53.5t56.5 47.5q36 -37 79 -74v-152q12 -23 34 -30q-26 -12 -34 -36v-102q-39 -20 -71 -38q-76 -44 -105 -74q-39 43 -146 88q12 11 25 23q8 11 8 36l1 61q0 27 -34 42q22 7 34 29v97l-38 49l-53 -41q1 -122 1 -106q14 -24 40 -32zM449 76v129q-9 25 -35 37
q22 7 35 31v77q0 42 -36 64q-6 -5 -55 -49v-91q14 -25 38 -32q-28 -13 -37 -37v-81q70 -52 78 -52q3 0 9 -2q3 -1 3 6z" />
    <glyph glyph-name="x" unicode="x" horiz-adv-x="393" 
d="M378 474q-5 -16 -17 -48q-32 -78 -77 -78q-24 0 -43 43l-41 -50v-73h79v-43h-75q-1 -2 -1 -89q32 -19 39 -24q19 -14 28 -29l56 47l11 -14l-134 -127q-47 93 -126 85q-26 -2 -43 -30q-13 -25 -25 -49h-9q-8 0 -8 3q0 39 34 83q33 41 71 58v89h-64v40h64v102l-26 30
l-38 -38l-15 14l111 118q26 -29 74 -74q1 -6 -1 -20q-2 -18 -2 -24q4 0 44 55.5t44 59.5q0 -1 16 -27q12 -21 26 -21q11 0 24 15q11 12 12.5 17t3.5 9q1 -2 8 -10z" />
    <glyph glyph-name="y" unicode="y" horiz-adv-x="431" 
d="M282 200q-8 15 -31 36q18 14 23 21.5t7 28.5l1 82l-38 49l-62 -41q1 -122 1 -106q14 -24 40 -32q-18 -8 -24 -14q-13 -11 -16 -30v-74q2 -19 6 -26q6 -12 27 -23q-28 -17 -45 -35q-11 -14 -36 -53q-14 21 -29 41q-22 28 -57 43l26 22q10 11 10 35l2 75q-11 28 -35 39
q15 4 33 39l1 87l-36 39l-32 -27l-12 16l106 100l70 -64v-28l126 96l71 -75l2 -135q5 -11 10 -20q13 -21 24 -24q-28 -13 -37 -37l3 -84q0 -28 -1 -62q-1 -29 -1 -30q2 -46 -43 -104q-36 -46 -89 -86q-47 -35 -58 -33q-23 5 -20 9q59 67 68 78q46 63 46 108v67z" />
    <glyph glyph-name="z" unicode="z" horiz-adv-x="261" 
d="M25 -66q0 -19 15 -32t35 -13q33 0 53 46l16 -4q0 -31 -32 -61t-62 -30q-25 0 -42 16.5t-17 41.5q0 49 35 86l68 56q38 32 42 66q8 76 3 103q-8 43 -34 43q-28 0 -54 -62l-15 5q0 32 45.5 72t45.5 77q0 25 -50 74l-42 -31l-15 13q19 17 130 107q42 -51 46 -57
q24 -35 24 -68q0 -64 -79 -106v-3q47 1 75.5 -32t28.5 -79q0 -59 -57 -99l-106 -58q-57 -32 -57 -71z" />
    <glyph glyph-name="braceleft" unicode="{" horiz-adv-x="244" 
d="M93 -77v207q0 48 -11 70q-14 30 -54 43q40 13 54 43q11 22 11 70v197q0 72 24 103q27 36 95 36v-12q-48 -22 -48 -122v-187q0 -59 -16 -84q-19 -31 -74 -43v-2q55 -12 74 -43q16 -25 16 -84v-197q0 -100 48 -122v-12q-68 0 -95 36q-24 31 -24 103z" />
    <glyph glyph-name="bar" unicode="|" horiz-adv-x="182" 
d="M74 0v674h44v-674h-44z" />
    <glyph glyph-name="braceright" unicode="}" horiz-adv-x="258" 
d="M170 553v-197q0 -48 11 -70q14 -30 54 -43q-40 -13 -54 -43q-11 -22 -11 -70v-207q0 -72 -24 -103q-27 -36 -95 -36v12q48 22 48 122v197q0 59 16 84q19 31 74 43v2q-55 12 -74 43q-16 25 -16 84v187q0 100 -48 122v12q68 0 95 -36q24 -31 24 -103z" />
    <glyph glyph-name="asciitilde" unicode="~" horiz-adv-x="291" 
d="M-8 859q8 38 45 61q34 20 75 20q16 0 46 -14t49 -14q16 0 45 8t40 17q-17 -37 -52 -59.5t-75 -22.5q-17 0 -45 13.5t-42 13.5q-63 0 -86 -23z" />
    <glyph glyph-name="Adieresis" unicode="&#xc4;" horiz-adv-x="745" 
d="M363 478l-65 -183h123q-12 47 -24 93q-15 56 -34 90zM248 636q-19 35 -85 35q-53 0 -90 -27q-41 -30 -41 -81q0 -34 39 -41q8 59 72 59q9 0 17 -1q0 26 32 43q27 13 56 13zM277 -16q-37 21 -74 43q-39 19 -83 19q-61 0 -77 -41q23 19 53 19q33 0 58 -23.5t26 -55.5
q32 21 46 27q11 4 51 12zM744 142l-148 -155q-33 20 -67 40q-25 19 -46 64q-5 -72 -64 -72q-17 0 -31.5 10t-14.5 27q0 28 19 28q7 0 11 -11q-6 -13 -6 -17q0 -18 23 -18q25 0 39 27q11 22 11 49q0 19 -37 124h-150l-38 -103l96 -38l47 49l15 -10q-21 -11 -68 -70
q-42 -55 -57 -84l26 -2q52 -5 110 -46.5t67 -41.5q17 0 25 21q2 22 -16 22q-8 0 -12 -6q-3 7 -3 14q0 15 11.5 25t25.5 10q20 0 33 -13t13 -33q0 -27 -27 -42q-23 -12 -52 -12l-11 3q5 -28 62 -62q54 -33 85 -33q27 0 49.5 14t22.5 38t-16 24q-20 0 -28 -33q-25 15 -25 42
t17 45.5t44 18.5q26 0 43 -26.5t17 -52.5q0 -41 -39 -66q-35 -22 -78 -22q-58 0 -137 65q15 -58 66 -97l-7 -7q-18 1 -44 39q-22 31 -29 55q-9 -40 -42 -63t-77 -23q-39 0 -69 19q-22 14 -52 49l8 9q39 -37 52 -44q26 -16 66 -16q42 0 70 28t28 70q-7 20 -10 25
q-6 12 -19 21l1 -12q1 -65 -57 -65q-18 0 -34 11.5t-16 29.5q17 -4 33 -4q12 0 20.5 10.5t8.5 23.5q0 36 -33 56q-28 17 -66 17q-87 0 -111 -63l-14 6q4 28 4 33q0 28 -19.5 46t-47.5 18q-69 0 -69 -56q0 -77 129 -77q25 0 57.5 15.5t51.5 33.5l11 -3q-14 -32 -56.5 -57
t-79.5 -25q-64 0 -103 37.5t-39 101.5q0 77 75 126q67 44 147 41q127 339 127 367q0 41 -34.5 76.5t-75.5 35.5q-20 0 -42 -14t-22 -34q0 -10 8 -19l-7 -3q-7 15 -30 15q-19 0 -34 -11t-15 -29q0 -36 66 -36q68 0 109 47q5 0 11 -6q-18 -40 -64 -62q-40 -18 -89 -17l-1 -2
q44 -30 62 -50q28 -32 28 -72q0 -36 -25 -60l-50 -34q-27 -21 -31 -46q5 -17 23 -17q17 0 34 28l7 -2q-2 -17 -16 -31t-31 -14q-36 0 -36 39q0 26 30 49q-78 11 -78 78q0 23 19 41.5t42 18.5q15 0 28 -15.5t13 -31.5q0 -28 -21 -33q-4 25 -23 25q-22 0 -22 -29
q0 -14 16 -24.5t31 -10.5q29 0 50 21.5t21 50.5q0 40 -47 77l-88 64q-47 42 -47 91q0 72 69 119q61 42 137 42q52 0 109 -24q64 -28 86 -69q2 -5 8 -16v26q0 53 35 77l6 -9q-15 -22 -15 -55q0 -25 38 -151q38 -122 53 -150q16 -32 68 -38q-38 -30 -38 -63q0 -40 25 -89
q30 -56 65 -56q34 0 68 47zM336 808q0 21 14.5 36.5t35.5 15.5q22 0 37 -15t15 -37q0 -21 -15 -36.5t-37 -15.5q-20 0 -35 15.5t-15 36.5zM159 808q0 21 14.5 36.5t35.5 15.5q22 0 37 -15t15 -37q0 -21 -15 -36.5t-37 -15.5q-20 0 -35 15.5t-15 36.5z" />
    <glyph glyph-name="Aring" unicode="&#xc5;" horiz-adv-x="745" 
d="M363 478l-65 -183h123q-12 47 -24 93q-15 56 -34 90zM248 636q-19 35 -85 35q-53 0 -90 -27q-41 -30 -41 -81q0 -34 39 -41q8 59 72 59q9 0 17 -1q0 26 32 43q27 13 56 13zM277 -16q-37 21 -74 43q-39 19 -83 19q-61 0 -77 -41q23 19 53 19q33 0 58 -23.5t26 -55.5
q32 21 46 27q11 4 51 12zM744 142l-148 -155q-33 20 -67 40q-25 19 -46 64q-5 -72 -64 -72q-17 0 -31.5 10t-14.5 27q0 28 19 28q7 0 11 -11q-6 -13 -6 -17q0 -18 23 -18q25 0 39 27q11 22 11 49q0 19 -37 124h-150l-38 -103l96 -38l47 49l15 -10q-21 -11 -68 -70
q-42 -55 -57 -84l26 -2q52 -5 110 -46.5t67 -41.5q17 0 25 21q2 22 -16 22q-8 0 -12 -6q-3 7 -3 14q0 15 11.5 25t25.5 10q20 0 33 -13t13 -33q0 -27 -27 -42q-23 -12 -52 -12l-11 3q5 -28 62 -62q54 -33 85 -33q27 0 49.5 14t22.5 38t-16 24q-20 0 -28 -33q-25 15 -25 42
t17 45.5t44 18.5q26 0 43 -26.5t17 -52.5q0 -41 -39 -66q-35 -22 -78 -22q-58 0 -137 65q15 -58 66 -97l-7 -7q-18 1 -44 39q-22 31 -29 55q-9 -40 -42 -63t-77 -23q-39 0 -69 19q-22 14 -52 49l8 9q39 -37 52 -44q26 -16 66 -16q42 0 70 28t28 70q-7 20 -10 25
q-6 12 -19 21l1 -12q1 -65 -57 -65q-18 0 -34 11.5t-16 29.5q17 -4 33 -4q12 0 20.5 10.5t8.5 23.5q0 36 -33 56q-28 17 -66 17q-87 0 -111 -63l-14 6q4 28 4 33q0 28 -19.5 46t-47.5 18q-69 0 -69 -56q0 -77 129 -77q25 0 57.5 15.5t51.5 33.5l11 -3q-14 -32 -56.5 -57
t-79.5 -25q-64 0 -103 37.5t-39 101.5q0 77 75 126q67 44 147 41q127 339 127 367q0 41 -34.5 76.5t-75.5 35.5q-20 0 -42 -14t-22 -34q0 -10 8 -19l-7 -3q-7 15 -30 15q-19 0 -34 -11t-15 -29q0 -36 66 -36q68 0 109 47q5 0 11 -6q-18 -40 -64 -62q-40 -18 -89 -17l-1 -2
q44 -30 62 -50q28 -32 28 -72q0 -36 -25 -60l-50 -34q-27 -21 -31 -46q5 -17 23 -17q17 0 34 28l7 -2q-2 -17 -16 -31t-31 -14q-36 0 -36 39q0 26 30 49q-78 11 -78 78q0 23 19 41.5t42 18.5q15 0 28 -15.5t13 -31.5q0 -28 -21 -33q-4 25 -23 25q-22 0 -22 -29
q0 -14 16 -24.5t31 -10.5q29 0 50 21.5t21 50.5q0 40 -47 77l-88 64q-47 42 -47 91q0 72 69 119q61 42 137 42q52 0 109 -24q64 -28 86 -69q2 -5 8 -16v26q0 53 35 77l6 -9q-15 -22 -15 -55q0 -25 38 -151q38 -122 53 -150q16 -32 68 -38q-38 -30 -38 -63q0 -40 25 -89
q30 -56 65 -56q34 0 68 47zM383 890q30 0 50 -20.5t20 -50.5q0 -29 -20.5 -49.5t-49.5 -20.5t-50 21t-21 47q0 31 21 52t50 21zM383 867q-20 0 -33.5 -14t-13.5 -34t14 -33.5t33 -13.5q20 0 33.5 14t13.5 33q0 20 -13.5 34t-33.5 14z" />
    <glyph glyph-name="Ccedilla" unicode="&#xc7;" horiz-adv-x="636" 
d="M410 96v490q-34 14 -51 41q0 -29 -2 -96q-1 -62 -1 -96q0 -54 36 -65q-33 -16 -33 -50q0 -6 1 -20.5t1 -22.5q0 -9 -1 -15q-3 -21 -65 -47q-70 -30 -80 -41q85 -78 195 -78zM242 314q0 41 -37 52q13 -1 24.5 17t11.5 31l-1 162q-4 -1 -19.5 -6.5t-21.5 -5.5t-21 4
q-34 -64 -34 -114q0 -28 9 -52q11 -33 34 -36q-39 -21 -39 -54q0 -79 56 -126l38 28l1 54q0 8 -1 23v23zM327 -12l1 -44q26 7 45 7q37 0 45 -28q3 -10 3 -59q0 -25 9 -32q-16 5 -53 5q-31 0 -59 -35q-25 35 -50 35q-19 0 -23 -23l-8 2q2 23 19 37.5t40 14.5t43 -22l20 4
q14 23 14 39q0 15 -14 34l-13 1q-22 2 -46 -12l1 76q-98 12 -149 57q-18 15 -60 79q-46 70 -70 206q-2 10 -12 21q-15 16 -16 19q9 8 18.5 16.5t11.5 19.5q8 44 44 105t70 91q45 40 139 91l8 -11q-50 -37 -59 -44q-32 -29 -42 -59h4q22 0 98 37q62 32 96 54q4 2 31 29
q23 21 31 21q9 -13 21 -29q21 -21 55 -21q16 0 26 18q11 23 18 26l14 -4q-1 -24 -30.5 -62t-51.5 -45q-26 -24 -72 -19q-1 -1 -1 -3l1 -484q4 -1 25 7q-13 25 -13 60q0 32 14 59q18 33 47 33q23 0 34 -17q4 -12 4 -15q0 -17 -11 -32t-28 -15t-22 9q-1 13 12 13q3 0 6.5 -3.5
t6.5 -3.5q8 0 15 9t7 17q0 21 -25 21t-38 -25q-10 -20 -10 -48q0 -46 14 -57q32 5 64 41q29 32 40 68l4 26q4 20 12 20q7 0 9 -24q11 -157 -139 -230q-26 -16 -59.5 -18.5t-65.5 -3.5z" />
    <glyph glyph-name="Eacute" unicode="&#xc9;" horiz-adv-x="657" 
d="M242 211l1 56q0 49 -2 59q-6 31 -36 40q13 -1 24.5 17t11.5 31l-1 158q-21 -8 -41 -8q-6 0 -21 4q-34 -64 -34 -114q0 -28 9 -52q11 -33 34 -36q-39 -21 -39 -54q0 -79 56 -126zM593 -91q0 68 -62 68q-36 0 -36 -30q0 -21 18 -21q6 0 15 6t14 6t7 -4q-11 -43 -43 -43
q-25 0 -43 18.5t-18 43.5q0 21 17.5 41.5t37.5 25.5q-4 7 -22 26q-67 -38 -141 -44q91 -40 91 -125q0 -18 -4 -40q11 -7 18 -7q33 0 31 43q28 -4 28 -28q0 -20 -21 -34q44 6 76 30q37 28 37 68zM410 395q-39 1 -47 -44q-2 -11 -2 -74q0 -10 -1 -15q-3 -21 -65 -47
q-70 -30 -80 -41q85 -78 195 -78v299zM424 456q26 10 46 10q44 0 81 -48q-20 -21 -77 -78q-17 42 -50 52v-295h2q4 0 23 7q-15 28 -15 63q0 31 15 56q17 31 46 31q38 0 38 -34q0 -17 -10.5 -31.5t-27.5 -14.5q-14 0 -21 12q-1 13 12 13q3 0 6.5 -3.5t6.5 -3.5q8 0 15 9t7 17
q0 23 -25 23q-24 0 -37 -27q-11 -22 -11 -48q0 -46 14 -57q32 5 64 41q29 32 40 68l4 26q4 20 12 20q9 0 9 -24q0 -65 -41 -129q-6 -9 -36 -27q-25 -16 -25 -31q0 -4 26 -31l11 1q43 2 68 -34q21 -31 21 -77q0 -55 -43 -88q-39 -29 -96 -29q-33 0 -59 22q-20 -28 -54 -47
t-68 -19q-36 0 -65 17q-34 20 -38 53q-10 -9 -19.5 -17t-30.5 -8q-18 0 -31.5 12.5t-13.5 30.5q0 10 6 19q21 -16 24 -16q36 0 36 35q0 27 -29 27q-5 0 -16 -6q19 26 39 26q19 0 32 -17q2 1 2 6q0 44 -27 80.5t-70 36.5q-29 0 -48.5 -15.5t-19.5 -43.5q0 -35 28 -35
q27 0 27 24q0 7 -14 22q6 7 16 7q14 0 26.5 -11.5t12.5 -25.5q0 -41 -46 -41q-22 0 -41.5 18.5t-19.5 41.5q0 32 21 51.5t54 19.5q49 0 80 -32.5t33 -81.5q29 27 72 27q34 0 60 -21t26 -54q0 -25 -17.5 -44.5t-41.5 -19.5q-19 0 -31.5 14.5t-12.5 33.5q0 18 17 32
q5 -10 9.5 -20t20.5 -10q23 0 23 20q0 54 -55 54q-32 0 -53.5 -21.5t-21.5 -53.5q0 -41 27.5 -68.5t69.5 -27.5q34 0 62 14q34 18 34 49q0 8 -16 35q18 -17 34 -22q2 22 2 32q0 47 -27 75q-20 21 -64 37q-38 12 -76 25q-107 41 -152.5 110.5t-69.5 205.5q-2 10 -12 21
q-15 16 -16 19q9 8 18.5 16.5t11.5 19.5q8 43 44 104.5t70 91.5q45 40 139 91l8 -11q-50 -37 -59 -44q-32 -29 -42 -59q2 -1 10 -1q49 0 188 92q3 2 31 29q23 21 31 21q7 -12 18 -28q18 -22 52 -22q18 0 29 15t21 29l14 -4q-1 -24 -30.5 -62t-51.5 -45q-26 -24 -72 -19
q-1 -1 -1 -3v-63q1 -39 1 -62zM358 412q7 14 52 37v137q-34 14 -51 41q0 -167 -1 -215zM474 824q-10 34 -35 34q-12 0 -27 -8l-178 -99l8 -16q2 0 95 21q86 19 95 19q44 0 44 35q0 7 -2 14z" />
    <glyph glyph-name="Ntilde" unicode="&#xd1;" horiz-adv-x="622" 
d="M614 125q-11 -13 -57 -57q-36 -35 -52 -61q15 -4 44 -15q63 -31 63 -111q0 -63 -67 -109q-60 -41 -127 -41q-51 0 -81 11q-26 9 -72 40q-56 -40 -112 -40q-52 0 -92 32t-40 83q0 31 23.5 61t54.5 30q34 0 58 -18q26 -21 26 -54q0 -60 -59 -60l-39 27l-5 15l2 6h9
q9 0 16 -2l14 18q-1 8 -12 16.5t-20 8.5q-19 0 -32 -25q-12 -21 -12 -42q0 -30 38 -55t70 -25q20 0 55 10q43 12 46 26q-49 55 -49 136q0 50 16 74q-19 -16 -29 -29q-48 45 -66 59q-39 31 -75 45q38 14 38 45v176q-66 0 -79 -53q-5 29 -5 33q0 41 23 76t61 48v106
q0 39 -32 77t-30 63q6 95 71 95q17 0 31 -8q-3 -5 -9.5 -8.5t-6.5 -13.5q0 -25 25 -47q45 -37 46 -39q25 -29 24 -73l198 165q29 -32 59 -65q27 -26 74 -48v-2q-46 -13 -46 -51q0 -26 1 -70q2 -55 2 -71q1 -30 43 -58q-43 -32 -43 -62q0 -129 1 -163l58 -46l47 50zM429 4
q-8 11 -30 29t-30 30v232q0 27 -36 56q14 12 29 24q12 14 12 36l-1 162q-12 13 -50 52l-45 -37v-495q7 2 18 14t16 15l6 -11q-81 -76 -89 -161q13 -23 44 -23q16 0 35.5 32t43.5 32q12 0 31 -5q15 5 46 18zM263 85v494l-55 -43q0 -22 -1 -66v-66q0 -19 11 -32q4 -5 26 -21
l-18 -18q-18 -20 -18 -50v-130q0 -53 48 -70zM495 -7q-36 0 -66.5 -30.5t-30.5 -66.5q0 -6 9 -18t16 -12q12 0 17.5 16.5t8.5 19.5q33 -26 33 -59q0 -17 -18.5 -28t-37.5 -11q-43 0 -59 23q-16 28 -31 56q-23 -39 -49 -90q14 -18 47.5 -31.5t57.5 -13.5q29 0 79 41
q15 0 12 -21q73 25 73 73q0 11 -10.5 20.5t-21.5 9.5q-7 0 -19 -7q-6 9 -6 18q0 20 16.5 32.5t37.5 12.5q9 0 31 -20q4 0 4 3q0 -2 -5 14q-7 24 -34.5 46.5t-53.5 22.5zM323 -112q-3 3 -5 3l-12 -6.5t-26 -6.5q-20 0 -33 15q-1 1 -20 31q3 -29 14 -64q15 -49 33 -49
q10 0 49 77zM127 776q9 38 46 60q34 21 74 21q17 0 47 -14t48 -14q17 0 46 8t39 17q-16 -37 -51 -59.5t-76 -22.5q-16 0 -44 13.5t-43 13.5q-63 0 -86 -23z" />
    <glyph glyph-name="Odieresis" unicode="&#xd6;" horiz-adv-x="735" 
d="M191 39q9 -54 46 -114q44 -71 88 -71q17 0 37 23q15 -21 15 -40t-14 -38q17 -24 74 -24q181 0 181 121l-3 2q1 6 1 11q0 17 -16.5 40t-33.5 25q-7 -67 -17 -92q-20 -53 -67 -53q-41 0 -68 22t-24 63q-25 -5 -39 -5q-54 0 -54 30t43 28q-7 -11 -7 -18q0 -16 34 -23l23 7
q25 69 131 69q17 0 31 -2q4 32 37.5 60t67.5 28q24 0 41.5 -16t17.5 -40q0 -20 -14 -40t-33 -20q-32 0 -32 33q0 17 10 25q-1 -8 6 -15.5t14 -7.5q27 0 28 32q-17 30 -42 30q-24 0 -52 -23t-29 -48q57 -30 65 -79q19 5 26 5q20 0 39 -17t19 -37q0 -24 -8 -28q-9 15 -21 15
q-9 0 -41 -31q-35 -33 -94 -53q-53 -18 -107 -18q-127 0 -214 135q-9 18 -30 52q1 -22 1 -28q0 -54 -30 -87q-32 -36 -84 -36q-43 0 -71 23.5t-28 64.5q0 30 23 54t53 24q25 0 44 -18.5t19 -42.5q0 -21 -15.5 -35t-37.5 -14q-30 0 -30 29q0 8 3 13q9 -6 17 -6q18 0 18 20
q0 25 -29 30q-43 -15 -43 -57q0 -31 21 -48.5t53 -17.5q45 0 73.5 34.5t28.5 80.5q0 48 -21 83q-18 -23 -22 -26q-12 -10 -33 -10q-19 0 -35.5 15t-16.5 34q0 18 12 18q-1 0 9 -11t25 -11t31 8q20 9 20 23t-5 22q-13 16 -38 47q-71 101 -84 199q-2 22 -14 34q-20 20 -24 26
q32 14 43 57q21 84 108 173q80 80 167 121l4 -17q-65 -52 -111 -134q29 9 123 62q89 51 121 74q11 8 31 29q155 -147 186 -278q8 -34 18 -46q7 -7 42 -29q-16 -17 -30.5 -34t-18.5 -45q-21 -153 -91 -229q-79 -86 -228 -86q-43 0 -89 11q-56 12 -80 34zM549 -19h-7
q-4 -1 -13 0.5t-13 1.5q-66 0 -66 -57q0 -26 21 -26q18 0 19 14q0 14 -1 28q17 0 27 -19q7 -16 15 -32q14 33 18 90zM637 5q0 17 10 25q-1 -8 6 -15.5t14 -7.5q26 0 28 32q-10 18 -16 22q-8 8 -26 8q-24 0 -52 -23t-29 -48zM521 2q17 0 31 -2q4 32 37.5 60t67.5 28
q24 0 41.5 -16t17.5 -40zM562 273q0 41 -11 63q-13 27 -49 41q37 11 37 52q0 23 -29 75.5t-48 63.5v-522q52 19 79 97q21 60 21 130zM441 591q-25 35 -53 53l-1 -211q0 -24 10 -36q7 -10 30 -23q-40 -29 -40 -82v-23q1 -15 1 -24q0 -37 -73 -67q-53 -19 -105 -37
q33 -42 51 -57q33 -28 68 -28q28 0 55 19.5t27 45.5q0 10 -6.5 20.5t-15.5 10.5q-33 0 -33 -25t18 -26q-9 -4 -19 -4q-5 0 -9.5 11t-4.5 16q0 44 44 44q42 0 42 -50q0 -54 -90 -77q29 -16 69 -16q11 0 35 10v556zM262 433v106q0 22 -1 38q-23 -12 -71 -33q-29 -82 -29 -112
q0 -22 8 -40q10 -22 30 -21q-36 -19 -36 -55q0 -25 13 -85q14 -69 25 -69q12 0 57 27v118q0 29 -7 42t-32 23h2q23 14 32 25.5t9 35.5zM396 808q0 21 14.5 36.5t35.5 15.5q22 0 37 -15t15 -37q0 -21 -15 -36.5t-37 -15.5q-20 0 -35 15.5t-15 36.5zM219 808q0 21 14.5 36.5
t35.5 15.5q22 0 37 -15t15 -37q0 -21 -15 -36.5t-37 -15.5q-20 0 -35 15.5t-15 36.5z" />
    <glyph glyph-name="Udieresis" unicode="&#xdc;" horiz-adv-x="663" 
d="M639 121q0 -21 -126 -144q70 0 101 -43q21 -29 21 -68q0 -100 -135 -128q-41 -9 -52 -9q-89 0 -147 55q-1 1 -2 4t-4 3q1 0 -32 -12.5t-54 -11.5q-62 4 -98 18q-48 18 -78 62q-4 7 -11 27t-7 28q0 37 23 63t59 26q21 0 40 -23.5t19 -44.5q0 -46 -53 -46q-24 0 -36 18
q2 1 21 7q13 4 13 16q0 9 -7 18.5t-16 9.5q-39 0 -39 -50q0 -44 65 -86l12 30q14 20 49 17q0 -4 -6 -18t-6 -20q0 -32 57 -32q39 0 67 19q-37 43 -59 86q-7 26 -27 78q-49 92 -95 110q-9 5 -24 14q51 9 50 64v167q-14 4 -29 4q-57 0 -67 -61l-5 1q-2 40 -1 45q11 54 29 76
q23 28 73 27q3 51 -2 146q-2 12 -29.5 37.5t-27.5 56.5q0 74 85 122q4 2 12 -5q-27 -22 -27 -39q0 -8 6 -18t7 -13q53 -39 62 -47q31 -31 30 -69q-3 -43 0 -171q0 -25 37 -43v-2q-10 -2 -22 -16.5t-12 -24.5q0 -64 1 -192l54 -47q3 44 3 614q0 6 23 2v-599l85 80q2 97 0 129
q-2 27 -14 40q-1 1 -26 16q14 3 26.5 20.5t8.5 26.5q-1 46 0 134q2 43 63.5 101.5t106.5 63.5q2 -1 5 -3q-2 -14 -2 -10q-17 -17 -32.5 -33t-15.5 -41v-209q5 -38 42 -50q-42 -30 -42 -51v-179q0 -10 25 -31.5t31 -21.5q4 0 22 20.5t21 20.5q13 0 13 -11zM492 -12
q-35 33 -69 57q-4 3 -11.5 17.5t-6.5 20.5q2 28 0 75q-41 -41 -75 -74q-82 -79 -117 -103v-11q5 -4 28 -57q17 -37 48 -37q8 0 22.5 3.5t20.5 3.5q23 0 24 -40l16 14q21 17 46 50q-15 -2 -28 -2q-86 0 -86 66q0 26 14.5 47t33.5 21q10 0 9 -6q-36 -36 -36 -56q0 -10 10 -22
t20 -12q14 0 32.5 21.5t43.5 21.5q5 0 17.5 -6t18.5 -6q14 0 20 2.5l6 2.5q1 1 -1 9zM616 -127q0 32 -24 56t-56 24q-20 0 -33.5 -13t-13.5 -32q0 -9 10.5 -19t19.5 -10q12 0 16 11l5 21l5 4q13 -16 13 -31q0 -23 -19 -39t-43 -16q-39 0 -63 75q-12 -19 -38 -52
q-13 -14 -36.5 -29t-29 -18.5t-11.5 -8.5q6 -7 17 -16q63 -18 83 -18h12q8 -1 11 -1q18 0 25 30q0 9 5 19q30 -3 30 -54q0 -1 3.5 1t3.5 1q37 4 72.5 37.5t35.5 77.5zM386 808q0 21 14.5 36.5t35.5 15.5q22 0 37 -15t15 -37q0 -21 -15 -36.5t-37 -15.5q-20 0 -35 15.5
t-15 36.5zM209 808q0 21 14.5 36.5t35.5 15.5q22 0 37 -15t15 -37q0 -21 -15 -36.5t-37 -15.5q-20 0 -35 15.5t-15 36.5z" />
    <glyph glyph-name="aacute" unicode="&#xe1;" horiz-adv-x="414" 
d="M235 359q-88 51 -92 50l-7 -4v-132q13 -28 36 -35q-28 -13 -36 -43v-100l37 -32l62 51v83q-8 28 -36 41q23 7 36 34v87zM-2 238q23 7 38 37v79q-3 5 -8 15q26 12 76 38q11 8 29 18q6 3 81 64q20 -17 64 -48q12 -7 30 -17t61 -28l7 -5q-38 -12 -42 -36v-83q13 -27 36 -34
q-28 -13 -36 -42v-97l30 -29l44 36l7 -8l-110 -107l-70 65v39l-118 -104q-2 -1 -82 66v136q-8 32 -37 45zM295 585q-7 27 -27 27q-10 0 -22 -6l-142 -79l2 -7q153 26 156 26q35 0 35 28q0 5 -2 11z" />
    <glyph glyph-name="agrave" unicode="&#xe0;" horiz-adv-x="414" 
d="M235 359q-88 51 -92 50l-7 -4v-132q13 -28 36 -35q-28 -13 -36 -43v-100l37 -32l62 51v83q-8 28 -36 41q23 7 36 34v87zM-2 238q23 7 38 37v79q-3 5 -8 15q26 12 76 38q11 8 29 18q6 3 81 64q20 -17 64 -48q12 -7 30 -17t61 -28l7 -5q-38 -12 -42 -36v-83q13 -27 36 -34
q-28 -13 -36 -42v-97l30 -29l44 36l7 -8l-110 -107l-70 65v39l-118 -104q-2 -1 -82 66v136q-8 32 -37 45zM100 585q7 27 27 27q10 0 22 -6l143 -79l-3 -7q-153 26 -155 26q-36 0 -36 28q0 5 2 11z" />
    <glyph glyph-name="acircumflex" unicode="&#xe2;" horiz-adv-x="414" 
d="M235 359q-88 51 -92 50l-7 -4v-132q13 -28 36 -35q-28 -13 -36 -43v-100l37 -32l62 51v83q-8 28 -36 41q23 7 36 34v87zM-2 238q23 7 38 37v79q-3 5 -8 15q26 12 76 38q11 8 29 18q6 3 81 64q20 -17 64 -48q12 -7 30 -17t61 -28l7 -5q-38 -12 -42 -36v-83q13 -27 36 -34
q-28 -13 -36 -42v-97l30 -29l44 36l7 -8l-110 -107l-70 65v39l-118 -104q-2 -1 -82 66v136q-8 32 -37 45zM81 515l-2 6l119 100l128 -102l-3 -6l-122 50z" />
    <glyph glyph-name="adieresis" unicode="&#xe4;" horiz-adv-x="414" 
d="M235 359q-88 51 -92 50l-7 -4v-132q13 -28 36 -35q-28 -13 -36 -43v-100l37 -32l62 51v83q-8 28 -36 41q23 7 36 34v87zM-2 238q23 7 38 37v79q-3 5 -8 15q26 12 76 38q11 8 29 18q6 3 81 64q20 -17 64 -48q12 -7 30 -17t61 -28l7 -5q-38 -12 -42 -36v-83q13 -27 36 -34
q-28 -13 -36 -42v-97l30 -29l44 36l7 -8l-110 -107l-70 65v39l-118 -104q-2 -1 -82 66v136q-8 32 -37 45zM229 568q0 19 12.5 32t31.5 13t32 -13t13 -32t-13 -32t-32 -13q-18 0 -31 13.5t-13 31.5zM89 568q0 19 12.5 32t31.5 13t32 -13t13 -32t-13 -32t-32 -13
q-18 0 -31 13.5t-13 31.5z" />
    <glyph glyph-name="atilde" unicode="&#xe3;" horiz-adv-x="414" 
d="M235 359q-88 51 -92 50l-7 -4v-132q13 -28 36 -35q-28 -13 -36 -43v-100l37 -32l62 51v83q-8 28 -36 41q23 7 36 34v87zM-2 238q23 7 38 37v79q-3 5 -8 15q26 12 76 38q11 8 29 18q6 3 81 64q20 -17 64 -48q12 -7 30 -17t61 -28l7 -5q-38 -12 -42 -36v-83q13 -27 36 -34
q-28 -13 -36 -42v-97l30 -29l44 36l7 -8l-110 -107l-70 65v39l-118 -104q-2 -1 -82 66v136q-8 32 -37 45zM82 527q6 30 36 48q27 17 60 17q13 0 37 -11.5t39 -11.5q13 0 36 6.5t32 13.5q-30 -65 -102 -65q-13 0 -35.5 10.5t-33.5 10.5q-51 0 -69 -18z" />
    <glyph glyph-name="aring" unicode="&#xe5;" horiz-adv-x="414" 
d="M235 359q-88 51 -92 50l-7 -4v-132q13 -28 36 -35q-28 -13 -36 -43v-100l37 -32l62 51v83q-8 28 -36 41q23 7 36 34v87zM-2 238q23 7 38 37v79q-3 5 -8 15q26 12 76 38q11 8 29 18q6 3 81 64q20 -17 64 -48q12 -7 30 -17t61 -28l7 -5q-38 -12 -42 -36v-83q13 -27 36 -34
q-28 -13 -36 -42v-97l30 -29l44 36l7 -8l-110 -107l-70 65v39l-118 -104q-2 -1 -82 66v136q-8 32 -37 45zM203 664q30 0 50 -20.5t20 -50.5q0 -29 -20.5 -49.5t-49.5 -20.5t-50 21t-21 47q0 31 21 52t50 21zM203 641q-20 0 -33.5 -14t-13.5 -34t14 -33.5t33 -13.5
q20 0 33.5 14t13.5 33q0 20 -13.5 34t-33.5 14z" />
    <glyph glyph-name="ccedilla" unicode="&#xe7;" horiz-adv-x="313" 
d="M147 -12l1 -44q26 7 45 7q37 0 45 -28q3 -10 3 -59q0 -25 9 -32q-16 5 -53 5q-31 0 -59 -35q-25 35 -50 35q-19 0 -23 -23l-8 2q2 23 19 37.5t40 14.5t43 -22l20 4q14 23 14 39q0 15 -14 34l-13 1q-22 2 -46 -12l1 79h3l-114 84q19 12 24 43v77q-9 30 -37 43q23 7 37 35
v114q57 29 173 113q11 -44 35 -44q9 0 16 8t15 16q4 2 9 -3q2 -14 -23 -49q-27 -39 -51 -37q-20 1 -31 6q-1 1 -32 22q-3 0 -8 -5v-143q13 -25 40 -34q-32 -14 -40 -39v-94l58 -47l67 47l9 -13l-130 -100h4z" />
    <glyph glyph-name="eacute" unicode="&#xe9;" horiz-adv-x="348" 
d="M212 285l-65 125v-166zM7 248q23 7 36 33v102q100 53 167 113q28 -87 98 -180q-31 -23 -79 -50q-40 -24 -81 -47v-95l66 -59l60 49l11 -12l-140 -117q-38 40 -60.5 57t-69.5 41l28 36v89q0 25 -36 40zM245 585q-7 27 -27 27q-10 0 -22 -6l-142 -79l2 -7q153 26 156 26
q35 0 35 28q0 5 -2 11z" />
    <glyph glyph-name="egrave" unicode="&#xe8;" horiz-adv-x="348" 
d="M212 285l-65 125v-166zM7 248q23 7 36 33v102q100 53 167 113q28 -87 98 -180q-31 -23 -79 -50q-40 -24 -81 -47v-95l66 -59l60 49l11 -12l-140 -117q-38 40 -60.5 57t-69.5 41l28 36v89q0 25 -36 40zM60 585q7 27 27 27q10 0 22 -6l143 -79l-3 -7q-153 26 -155 26
q-36 0 -36 28q0 5 2 11z" />
    <glyph glyph-name="ecircumflex" unicode="&#xea;" horiz-adv-x="348" 
d="M212 285l-65 125v-166zM7 248q23 7 36 33v102q100 53 167 113q28 -87 98 -180q-31 -23 -79 -50q-40 -24 -81 -47v-95l66 -59l60 49l11 -12l-140 -117q-38 40 -60.5 57t-69.5 41l28 36v89q0 25 -36 40zM51 515l-2 6l119 100l128 -102l-3 -6l-122 50z" />
    <glyph glyph-name="edieresis" unicode="&#xeb;" horiz-adv-x="348" 
d="M212 285l-65 125v-166zM7 248q23 7 36 33v102q100 53 167 113q28 -87 98 -180q-31 -23 -79 -50q-40 -24 -81 -47v-95l66 -59l60 49l11 -12l-140 -117q-38 40 -60.5 57t-69.5 41l28 36v89q0 25 -36 40zM189 568q0 19 12.5 32t31.5 13t32 -13t13 -32t-13 -32t-32 -13
q-18 0 -31 13.5t-13 31.5zM49 568q0 19 12.5 32t31.5 13t32 -13t13 -32t-13 -32t-32 -13q-18 0 -31 13.5t-13 31.5z" />
    <glyph glyph-name="iacute" unicode="&#xed;" horiz-adv-x="243" 
d="M60 196q-9 29 -37 42q23 7 36 34v107l-30 31q-8 -6 -23 -16l-8 9l107 94q42 -43 46 -46q28 -24 56 -34q-2 -5 -17 -12q-27 -13 -28 -50l-1 -78q15 -32 38 -39q-28 -13 -36 -43l-1 -94l40 -37l32 32l9 -11l-96 -99l-87 70v140zM205 585q-7 27 -27 27q-10 0 -22 -6
l-142 -79l2 -7q153 26 156 26q35 0 35 28q0 5 -2 11z" />
    <glyph glyph-name="igrave" unicode="&#xec;" horiz-adv-x="243" 
d="M60 196q-9 29 -37 42q23 7 36 34v107l-30 31q-8 -6 -23 -16l-8 9l107 94q42 -43 46 -46q28 -24 56 -34q-2 -5 -17 -12q-27 -13 -28 -50l-1 -78q15 -32 38 -39q-28 -13 -36 -43l-1 -94l40 -37l32 32l9 -11l-96 -99l-87 70v140zM20 585q7 27 27 27q10 0 22 -6l143 -79
l-3 -7q-153 26 -155 26q-36 0 -36 28q0 5 2 11z" />
    <glyph glyph-name="icircumflex" unicode="&#xee;" horiz-adv-x="243" 
d="M60 196q-9 29 -37 42q23 7 36 34v107l-30 31q-8 -6 -23 -16l-8 9l107 94q42 -43 46 -46q28 -24 56 -34q-2 -5 -17 -12q-27 -13 -28 -50l-1 -78q15 -32 38 -39q-28 -13 -36 -43l-1 -94l40 -37l32 32l9 -11l-96 -99l-87 70v140zM-9 515l-2 6l119 100l128 -102l-3 -6
l-122 50z" />
    <glyph glyph-name="idieresis" unicode="&#xef;" horiz-adv-x="243" 
d="M60 196q-9 29 -37 42q23 7 36 34v107l-30 31q-8 -6 -23 -16l-8 9l107 94q42 -43 46 -46q28 -24 56 -34q-2 -5 -17 -12q-27 -13 -28 -50l-1 -78q15 -32 38 -39q-28 -13 -36 -43l-1 -94l40 -37l32 32l9 -11l-96 -99l-87 70v140zM139 568q0 19 12.5 32t31.5 13t32 -13
t13 -32t-13 -32t-32 -13q-18 0 -31 13.5t-13 31.5zM-1 568q0 19 12.5 32t31.5 13t32 -13t13 -32t-13 -32t-32 -13q-18 0 -31 13.5t-13 31.5z" />
    <glyph glyph-name="ntilde" unicode="&#xf1;" horiz-adv-x="461" 
d="M225 410l43 -42v-96q-13 -27 -36 -34q27 -12 36 -40v-40v-82q37 -31 82 -82q2 -5 104 120l-10 11l-41 -46l-39 38v84q8 27 31 37q-19 6 -31 31v84q-2 16 10.5 34t33.5 26l-3 2q-61 30 -107 85l-129 -105v42q-42 23 -66 64q-105 -111 -105 -116t10 -8q17 26 34 26
q21 0 28 -35q0 -42 -1 -98q-12 -23 -34 -30q26 -12 34 -35q0 -55 1 -66q4 -51 -40 -60q42 -22 86 -92h3q14 24 28 42q33 43 59 50l-1 2q-35 14 -35 55v64q9 28 36 40q-22 7 -35 33v93zM92 527q6 30 36 48q27 17 60 17q13 0 37 -11.5t39 -11.5q13 0 36 6.5t32 13.5
q-30 -65 -102 -65q-13 0 -35.5 10.5t-33.5 10.5q-51 0 -69 -18z" />
    <glyph glyph-name="oacute" unicode="&#xf3;" horiz-adv-x="394" 
d="M46 199q-8 26 -35 38q23 7 36 32v120q96 46 173 113l124 -82l-1 -150q13 -26 36 -33q-28 -13 -36 -41v-100q-39 -14 -93 -48q-57 -37 -83 -66q-40 24 -61 36q-48 26 -90 43q23 19 30 44v94zM239 370l-79 53l-12 -9v-145q13 -25 35 -32q-26 -12 -35 -37v-92q38 -24 82 -47
l9 6q1 121 1 124q-15 37 -35 46q23 7 35 29zM285 585q-7 27 -27 27q-10 0 -22 -6l-142 -79l2 -7q153 26 156 26q35 0 35 28q0 5 -2 11z" />
    <glyph glyph-name="ograve" unicode="&#xf2;" horiz-adv-x="394" 
d="M46 199q-8 26 -35 38q23 7 36 32v120q96 46 173 113l124 -82l-1 -150q13 -26 36 -33q-28 -13 -36 -41v-100q-39 -14 -93 -48q-57 -37 -83 -66q-40 24 -61 36q-48 26 -90 43q23 19 30 44v94zM239 370l-79 53l-12 -9v-145q13 -25 35 -32q-26 -12 -35 -37v-92q38 -24 82 -47
l9 6q1 121 1 124q-15 37 -35 46q23 7 35 29zM90 585q7 27 27 27q10 0 22 -6l143 -79l-3 -7q-153 26 -155 26q-36 0 -36 28q0 5 2 11z" />
    <glyph glyph-name="ocircumflex" unicode="&#xf4;" horiz-adv-x="394" 
d="M46 199q-8 26 -35 38q23 7 36 32v120q96 46 173 113l124 -82l-1 -150q13 -26 36 -33q-28 -13 -36 -41v-100q-39 -14 -93 -48q-57 -37 -83 -66q-40 24 -61 36q-48 26 -90 43q23 19 30 44v94zM239 370l-79 53l-12 -9v-145q13 -25 35 -32q-26 -12 -35 -37v-92q38 -24 82 -47
l9 6q1 121 1 124q-15 37 -35 46q23 7 35 29zM71 515l-2 6l119 100l128 -102l-3 -6l-122 50z" />
    <glyph glyph-name="odieresis" unicode="&#xf6;" horiz-adv-x="394" 
d="M46 199q-8 26 -35 38q23 7 36 32v120q96 46 173 113l124 -82l-1 -150q13 -26 36 -33q-28 -13 -36 -41v-100q-39 -14 -93 -48q-57 -37 -83 -66q-40 24 -61 36q-48 26 -90 43q23 19 30 44v94zM239 370l-79 53l-12 -9v-145q13 -25 35 -32q-26 -12 -35 -37v-92q38 -24 82 -47
l9 6q1 121 1 124q-15 37 -35 46q23 7 35 29zM219 568q0 19 12.5 32t31.5 13t32 -13t13 -32t-13 -32t-32 -13q-18 0 -31 13.5t-13 31.5zM79 568q0 19 12.5 32t31.5 13t32 -13t13 -32t-13 -32t-32 -13q-18 0 -31 13.5t-13 31.5z" />
    <glyph glyph-name="otilde" unicode="&#xf5;" horiz-adv-x="394" 
d="M46 199q-8 26 -35 38q23 7 36 32v120q96 46 173 113l124 -82l-1 -150q13 -26 36 -33q-28 -13 -36 -41v-100q-39 -14 -93 -48q-57 -37 -83 -66q-40 24 -61 36q-48 26 -90 43q23 19 30 44v94zM239 370l-79 53l-12 -9v-145q13 -25 35 -32q-26 -12 -35 -37v-92q38 -24 82 -47
l9 6q1 121 1 124q-15 37 -35 46q23 7 35 29zM82 527q6 30 36 48q27 17 60 17q13 0 37 -11.5t39 -11.5q13 0 36 6.5t32 13.5q-30 -65 -102 -65q-13 0 -35.5 10.5t-33.5 10.5q-51 0 -69 -18z" />
    <glyph glyph-name="uacute" unicode="&#xfa;" horiz-adv-x="457" 
d="M228 78l-44 42l1 96q8 16 35 25q-27 12 -35 40v49l1 82q-58 45 -78 85l-110 -123l11 -11l46 40l34 -38v-88q-8 -26 -31 -36q16 -5 20.5 -8t9.5 -14q0 -81 1 -84q1 -16 -11 -34.5t-33 -25.5l3 -2q61 -30 107 -85l128 105l1 -42q42 -23 66 -64q104 110 104 115q0 6 -9 9
q-17 -26 -34 -26q-21 0 -28 35v98q7 12 34 21q-25 11 -33 35q0 64 -1 75q-4 51 40 60q-50 26 -87 86h-2q-14 -23 -28 -39q-34 -41 -59 -48l1 -1q35 -14 35 -55l-1 -73q-8 -28 -35 -40l21 -7q8 -5 14 -17v-93zM325 585q-7 27 -27 27q-10 0 -22 -6l-142 -79l2 -7
q153 26 156 26q35 0 35 28q0 5 -2 11z" />
    <glyph glyph-name="ugrave" unicode="&#xf9;" horiz-adv-x="457" 
d="M228 78l-44 42l1 96q8 16 35 25q-27 12 -35 40v49l1 82q-58 45 -78 85l-110 -123l11 -11l46 40l34 -38v-88q-8 -26 -31 -36q16 -5 20.5 -8t9.5 -14q0 -81 1 -84q1 -16 -11 -34.5t-33 -25.5l3 -2q61 -30 107 -85l128 105l1 -42q42 -23 66 -64q104 110 104 115q0 6 -9 9
q-17 -26 -34 -26q-21 0 -28 35v98q7 12 34 21q-25 11 -33 35q0 64 -1 75q-4 51 40 60q-50 26 -87 86h-2q-14 -23 -28 -39q-34 -41 -59 -48l1 -1q35 -14 35 -55l-1 -73q-8 -28 -35 -40l21 -7q8 -5 14 -17v-93zM120 585q7 27 27 27q10 0 22 -6l143 -79l-3 -7q-153 26 -155 26
q-36 0 -36 28q0 5 2 11z" />
    <glyph glyph-name="ucircumflex" unicode="&#xfb;" horiz-adv-x="457" 
d="M228 78l-44 42l1 96q8 16 35 25q-27 12 -35 40v49l1 82q-58 45 -78 85l-110 -123l11 -11l46 40l34 -38v-88q-8 -26 -31 -36q16 -5 20.5 -8t9.5 -14q0 -81 1 -84q1 -16 -11 -34.5t-33 -25.5l3 -2q61 -30 107 -85l128 105l1 -42q42 -23 66 -64q104 110 104 115q0 6 -9 9
q-17 -26 -34 -26q-21 0 -28 35v98q7 12 34 21q-25 11 -33 35q0 64 -1 75q-4 51 40 60q-50 26 -87 86h-2q-14 -23 -28 -39q-34 -41 -59 -48l1 -1q35 -14 35 -55l-1 -73q-8 -28 -35 -40l21 -7q8 -5 14 -17v-93zM101 525l-2 6l119 100l128 -102l-3 -6l-122 50z" />
    <glyph glyph-name="udieresis" unicode="&#xfc;" horiz-adv-x="457" 
d="M228 78l-44 42l1 96q8 16 35 25q-27 12 -35 40v49l1 82q-58 45 -78 85l-110 -123l11 -11l46 40l34 -38v-88q-8 -26 -31 -36q16 -5 20.5 -8t9.5 -14q0 -81 1 -84q1 -16 -11 -34.5t-33 -25.5l3 -2q61 -30 107 -85l128 105l1 -42q42 -23 66 -64q104 110 104 115q0 6 -9 9
q-17 -26 -34 -26q-21 0 -28 35v98q7 12 34 21q-25 11 -33 35q0 64 -1 75q-4 51 40 60q-50 26 -87 86h-2q-14 -23 -28 -39q-34 -41 -59 -48l1 -1q35 -14 35 -55l-1 -73q-8 -28 -35 -40l21 -7q8 -5 14 -17v-93zM249 568q0 19 12.5 32t31.5 13t32 -13t13 -32t-13 -32t-32 -13
q-18 0 -31 13.5t-13 31.5zM109 568q0 19 12.5 32t31.5 13t32 -13t13 -32t-13 -32t-32 -13q-18 0 -31 13.5t-13 31.5z" />
    <glyph glyph-name="dagger" unicode="&#x2020;" horiz-adv-x="455" 
d="M193 489q-24 -1 -69 -20.5t-66 -19.5q-54 0 -54 56q0 60 54 60q19 0 65 -22t70 -24q0 37 -26 91.5t-26 68.5q0 27 19.5 42.5t47.5 15.5t47 -15.5t19 -42.5q0 -14 -26 -69t-27 -91q25 2 71 24t64 22q55 0 55 -62q0 -61 -55 -61q-17 0 -63 22.5t-72 24.5q7 -107 68 -171
q-44 -84 -56 -198q-4 -35 -8 -207h-35q-4 160 -9 207q-12 116 -55 198q61 64 67 171z" />
    <glyph glyph-name="degree" unicode="&#xb0;" horiz-adv-x="324" 
d="M144 749q52 0 88 -37t36 -89t-36 -88.5t-88 -36.5t-88 37q-39 38 -39 85q0 54 39 93q36 36 88 36zM144 709q-36 0 -60.5 -25t-24.5 -61q0 -35 25 -60t60 -25t59.5 25t24.5 60t-24.5 60.5t-59.5 25.5z" />
    <glyph glyph-name="cent" unicode="&#xa2;" horiz-adv-x="410" 
d="M184 225v318l-34 -6v-309q16 -1 34 -3zM219 4h-35v121q-63 30 -121 30q-28 0 -57 -12q0 51 51 75v240q0 53 -27 83q13 -1 35 -1q55 0 119 21v111h35v-97q32 14 49 31q33 -53 78 -53q6 0 23 2q-43 -64 -98 -64q-31 0 -52 15v-288q56 -13 83 -34l29 23l10 -12l-112 -97
q-5 4 -10 7v-101z" />
    <glyph glyph-name="sterling" unicode="&#xa3;" horiz-adv-x="461" 
d="M8 4q1 18 14 43q93 180 93 199v72l-93 1v39h84l-32 87q-8 22 -8 44q0 77 74 124q63 40 144 40q47 0 87 -36l17 16l10 -9q-46 -40 -84 -99q-52 54 -54 55q-42 40 -59 38q-56 -8 -56 -73q0 -24 7 -48l41 -139h135v-39l-130 -1l-8 -69q-2 -20 -56 -80q-64 -72 -74 -88
q160 60 201 60q59 0 131 -37l14 19l8 -9q-37 -57 -64 -113q-83 50 -172 50q-31 0 -115 -39q-9 -6 -20.5 -7.5t-22.5 -3.5z" />
    <glyph glyph-name="section" unicode="&#xa7;" horiz-adv-x="11" 
 />
    <glyph glyph-name="bullet" unicode="&#x2022;" horiz-adv-x="292" 
d="M55 262q0 36 25.5 61t61.5 25q35 0 60.5 -25t25.5 -61t-25.5 -61t-60.5 -25q-36 0 -61.5 25t-25.5 61z" />
    <glyph glyph-name="paragraph" unicode="&#xb6;" horiz-adv-x="512" 
d="M462 -55h-282v30q39 0 49 12t10 53v283l-31 -1q-85 -3 -136.5 44t-51.5 132q0 101 66 142q52 32 162 32h214v-30q-38 0 -47.5 -12.5t-9.5 -53.5v-536q0 -42 8 -52q10 -13 49 -13v-30zM352 -25v667h-63v-667h63z" />
    <glyph glyph-name="germandbls" unicode="&#xdf;" horiz-adv-x="470" 
d="M219 -73q0 -38 49 -38q34 0 52 46l17 -4q-1 -31 -32.5 -61t-62.5 -30q-24 0 -41.5 17t-17.5 41q0 49 34 84q33 27 65 53q37 31 42 67q3 28 3 93q0 57 -29 57q-30 0 -55 -62l-14 5q0 31 45 72t45 77q0 25 -49 74l-47 5h-70v-148q15 -31 36 -37q-37 -17 -37 -82v-23
q1 -15 1 -22v-65q-42 0 -58 -23t-16 -70v-152q-3 -1 -9 -1h-14q0 64 1 193.5t1 194.5q0 32 -39 50q35 11 35 41v146l-52 -1l-1 44h51q-1 105 -1 133l171 123q16 -32 40 -32q8 0 23 4t23 4q4 0 8 -1q-56 -82 -93 -82q-24 0 -51 31l-12 -15v-165h65q70 0 117 39q42 -49 47 -57
q23 -35 23 -68q0 -65 -78 -106v-3q46 1 73 -40q25 -37 23 -90q-1 -54 -56 -92q-51 -27 -101 -54q-54 -31 -54 -70z" />
    <glyph glyph-name="registered" unicode="&#xae;" horiz-adv-x="378" 
d="M185 720q60 0 102.5 -43.5t42.5 -103.5q0 -61 -43 -104t-104 -43t-104 43t-43 104q0 62 43.5 104.5t105.5 42.5zM182 699q-51 0 -86 -37t-35 -88q0 -52 35 -88.5t87 -36.5t87 36.5t35 88.5t-35.5 88.5t-87.5 36.5zM166 568v-41q0 -9 1 -15q7 -3 24 -3v-14h-89v14
q14 0 21 3q2 6 2 15v92q0 8 -2 15q-6 2 -21 2v15h95q58 0 58 -40q0 -31 -38 -39q21 -8 30 -57q2 -2 5 -3q8 0 8 20h15v-5q0 -35 -38 -35q-26 0 -34 22q-2 5 -7 45q-4 9 -30 9zM166 583h11q34 0 34 27q0 26 -25 26h-9q-11 0 -11 -12v-41z" />
    <glyph glyph-name="copyright" unicode="&#xa9;" horiz-adv-x="816" 
d="M630 95q-107 -107 -257 -107q-159 0 -257 98q-107 107 -107 266t105.5 263t263.5 104q146 0 250 -105q105 -108 105 -263q0 -153 -103 -256zM369 673q-128 0 -216 -95.5t-88 -224.5q0 -130 89.5 -224.5t218.5 -94.5t219 94.5t90 224.5q0 134 -90 227t-223 93zM372 152
q-87 0 -141 54t-54 141q0 89 56 147.5t145 58.5q51 0 97 -28l29 26h24l5 -154l-29 -3q-35 129 -121 129q-98 0 -98 -167q0 -169 105 -169q94 0 117 115l34 -9q-30 -141 -169 -141z" />
    <glyph glyph-name="trademark" unicode="&#x2122;" horiz-adv-x="505" 
d="M198 703l4 -70h-16q-10 53 -39 53l-4 -2l-1 -6v-119q0 -11 1 -18q8 -3 26 -3v-17h-103v17q19 0 27 3q1 8 1 18v119l-1 7l-4 1q-29 0 -39 -53h-16l4 70h160zM315 703l34 -97l33 97h84v-17q-16 0 -24 -3q-1 -7 -1 -18v-106q0 -11 1 -18q8 -3 24 -3v-17h-98v17q16 0 24 3
q1 8 1 18v112l-52 -150h-11l-52 149v-95q0 -20 3 -27q5 -10 23 -10v-17h-73v17h1q17 0 22 11q3 6 3 26v90q0 10 -1 18q-8 3 -23 3v17h82z" />
    <glyph glyph-name="acute" unicode="&#xb4;" horiz-adv-x="425" 
d="M305 585q-7 27 -27 27q-10 0 -22 -6l-142 -79l2 -7q153 26 156 26q35 0 35 28q0 5 -2 11z" />
    <glyph glyph-name="dieresis" unicode="&#xa8;" horiz-adv-x="335" 
d="M189 568q0 19 12.5 32t31.5 13t32 -13t13 -32t-13 -32t-32 -13q-18 0 -31 13.5t-13 31.5zM49 568q0 19 12.5 32t31.5 13t32 -13t13 -32t-13 -32t-32 -13q-18 0 -31 13.5t-13 31.5z" />
    <glyph glyph-name="AE" unicode="&#xc6;" horiz-adv-x="1030" 
d="M557 -76q17 0 30 -17q2 1 8.5 10.5t6.5 11.5q29 26 71 26q34 0 60 -21t26 -54q0 -25 -17.5 -44.5t-41.5 -19.5q-19 0 -31.5 14.5t-12.5 33.5q0 18 17 32q5 -10 9.5 -20t20.5 -10q23 0 23 20q0 54 -55 54q-32 0 -53.5 -21.5t-21.5 -53.5q0 -41 27.5 -68.5t69.5 -27.5
q34 0 62 14q34 18 34 49q0 8 -16 35q18 -17 34 -22q2 22 2 32q0 69 -52 99q-33 19 -116 30q-51 6 -89 38q-22 18 -58 65q3 -44 -16.5 -72t-49.5 -28q-16 0 -35.5 15t-19.5 32q0 28 19 28q7 0 11 -11q-6 -13 -6 -17q0 -7 10 -14t18 -7q42 0 42 59q0 47 -34 144h-150l-38 -103
l96 -38l47 49l15 -10q-21 -11 -68 -70q-42 -55 -57 -84l26 -2q52 -5 110 -46.5t67 -41.5q17 0 25 21q2 22 -16 22q-8 0 -12 -6q-3 7 -3 14q0 15 11.5 25t25.5 10q20 0 33 -13t13 -33q0 -4 -1 -8zM1016 -86q0 -56 -45 -89q-40 -30 -97 -30q-33 0 -59 22q-20 -28 -54 -47
t-68 -19q-36 0 -65 17q-34 20 -38 53q-10 -9 -19.5 -17t-30.5 -8q-18 0 -31.5 12.5t-13.5 30.5q0 10 6 19q21 -16 24 -16q36 0 36 35q0 14 -13 22q-19 -29 -57 -29q-2 0 -19 4q8 -30 32 -74q26 -48 47 -64l-7 -7q-18 1 -44 39q-22 31 -29 55q-9 -40 -42 -63t-77 -23
q-39 0 -69 19q-22 14 -52 49l8 9q39 -37 52 -44q26 -16 66 -16q42 0 70 28t28 70q-7 20 -10 25q-6 12 -19 21l1 -12q1 -65 -57 -65q-18 0 -34 11.5t-16 29.5q17 -4 33 -4q12 0 20.5 10.5t8.5 23.5q0 36 -33 56q-28 17 -66 17q-87 0 -111 -63l-14 6q4 28 4 33q0 28 -19.5 46
t-47.5 18q-69 0 -69 -56q0 -77 129 -77q25 0 57.5 15.5t51.5 33.5l11 -3q-14 -32 -56.5 -57t-79.5 -25q-64 0 -103 37.5t-39 101.5q0 77 75 126q67 44 147 41q127 339 127 367q0 41 -34.5 76.5t-75.5 35.5q-20 0 -42 -14t-22 -34q0 -10 8 -19l-7 -3q-7 15 -30 15
q-19 0 -34 -11t-15 -29q0 -36 66 -36q68 0 109 47q5 0 11 -6q-18 -40 -64 -62q-40 -18 -89 -17l-1 -2q44 -30 62 -50q28 -32 28 -72q0 -36 -25 -60l-50 -34q-27 -21 -31 -46q5 -17 23 -17q17 0 34 28l7 -2q-2 -17 -16 -31t-31 -14q-36 0 -36 39q0 26 30 49q-78 11 -78 78
q0 23 19 41.5t42 18.5q15 0 28 -15.5t13 -31.5q0 -28 -21 -33q-4 25 -23 25q-22 0 -22 -29q0 -14 16 -24.5t31 -10.5q29 0 50 21.5t21 50.5q0 40 -47 77l-88 64q-47 42 -47 91q0 72 69 119q61 42 137 42q141 0 182 -76q12 -23 21 -33v26q0 53 35 77l6 -9q-11 -14 -15 -68
q-3 -44 22 -118q8 18 17 33q21 36 42 52q90 69 144 85l8 -11q-50 -37 -59 -44q-32 -29 -42 -59q2 -1 10 -1q49 0 188 92q3 2 31 29q23 21 31 21q7 -12 18 -28q18 -22 52 -22q18 0 29 15t21 29l14 -4q-1 -24 -30.5 -62t-51.5 -45q-26 -24 -72 -19q-1 -1 -1 -3v-63
q1 -39 1 -62q26 10 46 10q44 0 81 -48q-20 -21 -77 -78q-17 42 -50 52v-295h2q4 0 23 7q-15 28 -15 63q0 31 15 56q17 31 46 31q38 0 38 -34q0 -17 -10.5 -31.5t-27.5 -14.5q-14 0 -21 12q-1 13 12 13q3 0 6.5 -3.5t6.5 -3.5q8 0 15 9t7 17q0 23 -25 23q-24 0 -37 -27
q-11 -22 -11 -48q0 -46 14 -57q32 5 64 41q29 32 40 68l4 26q4 20 12 20q9 0 9 -24q0 -65 -41 -129q-6 -9 -36 -27q-25 -16 -25 -31q0 -4 26 -31l11 1q43 2 69 -33q23 -31 23 -76zM808 449v137q-34 14 -51 41q0 -167 -1 -215q7 14 52 37zM641 267q0 50 -2 59q-6 31 -36 40
q13 -1 24.5 17t11.5 31l-1 158q-21 -8 -41 -8q-6 0 -21 4q-34 -64 -34 -114q0 -28 9 -52q11 -33 34 -36q-39 -21 -39 -54q0 -97 51 -140l43 39zM808 96v299q-39 1 -47 -44q-2 -11 -2 -74q0 -10 -1 -15q-3 -22 -67 -54q-74 -38 -83 -48q70 -64 200 -64zM991 -91q0 68 -62 68
q-36 0 -36 -30q0 -21 18 -21q6 0 15 6t14 6t7 -4q-11 -43 -43 -43q-25 0 -43 18.5t-18 43.5q0 21 17.5 41.5t37.5 25.5q-4 7 -22 26q-67 -38 -141 -44q91 -40 91 -125q0 -18 -4 -40q11 -7 18 -7q33 0 31 43q28 -4 28 -28q0 -20 -21 -34q44 6 76 30q37 28 37 68zM421 295
q-12 47 -25 94q-15 56 -33 89l-65 -183h123zM248 636q-19 35 -85 35q-53 0 -90 -27q-41 -30 -41 -81q0 -34 39 -41q8 59 72 59q9 0 17 -1q0 26 32 43q27 13 56 13zM277 -16q-37 21 -74 43q-39 19 -83 19q-61 0 -77 -41q23 19 53 19q33 0 58 -23.5t26 -55.5q32 21 46 27
q11 4 51 12z" />
    <glyph glyph-name="Oslash" unicode="&#xd8;" horiz-adv-x="735" 
d="M549 -19h-7q-4 -1 -13 0.5t-13 1.5q-66 0 -66 -57q0 -26 21 -26q18 0 19 14q0 14 -1 28q17 0 27 -19q7 -16 15 -32q14 33 18 90zM462 534l14 21q-8 10 -14 13v-34zM387 430l54 76v49v36q-25 35 -53 53zM197 165l61 86v56q0 29 -7 42t-32 23h2q23 14 32 25.5t9 35.5v106
q0 22 -1 38q-23 -12 -71 -33q-29 -82 -29 -112q0 -22 8 -40q10 -22 30 -21q-36 -19 -36 -55q0 -21 11 -76q12 -62 23 -75zM131 -27l-22 -30q24 -20 24 -47q0 -21 -15.5 -35t-37.5 -14q-30 0 -30 29q0 8 3 13q9 -6 17 -6q18 0 18 20q0 25 -29 30q-43 -15 -43 -57
q0 -31 21 -48.5t53 -17.5q45 0 73.5 34.5t28.5 80.5q0 48 -21 83q-16 -21 -18 -23q-10 -9 -22 -12zM441 406l-20 -28l6 -4q-40 -29 -40 -82v-23q1 -15 1 -24q0 -45 -123 -85l-33 -46q50 -58 97 -58q28 0 55 19.5t27 45.5q0 10 -6.5 20.5t-15.5 10.5q-33 0 -33 -25t18 -26
q-9 -4 -19 -4q-5 0 -9.5 11t-4.5 16q0 44 44 44q42 0 42 -50q0 -54 -90 -77q29 -16 69 -16q11 0 35 10v371zM511 503l-49 -68v-389q52 19 79 97q21 60 21 130q0 41 -11 63q-13 27 -49 41q37 11 37 52q0 22 -28 74zM626 763h71l-105 -146q59 -82 76 -154q8 -34 18 -46
q7 -7 42 -29q-16 -17 -30.5 -34t-18.5 -45q-21 -153 -91 -229q-79 -86 -228 -86q-43 0 -89 11q-56 12 -80 34q9 -54 46 -114q44 -71 88 -71q17 0 37 23q15 -21 15 -40t-14 -38q17 -24 74 -24q181 0 181 121l-3 2q1 6 1 11q0 17 -16.5 40t-33.5 25q-7 -67 -17 -92
q-20 -53 -67 -53q-41 0 -68 22t-24 63q-25 -5 -39 -5q-54 0 -54 30t43 28q-7 -11 -7 -18q0 -16 34 -23l23 7q25 69 131 69q17 0 31 -2q4 32 37.5 60t67.5 28q24 0 41.5 -16t17.5 -40q0 -20 -14 -40t-33 -20q-32 0 -32 33q0 17 10 25q-1 -8 6 -15.5t14 -7.5q27 0 28 32
q-17 30 -42 30q-24 0 -52 -23t-29 -48q57 -30 65 -79q19 5 26 5q20 0 39 -17t19 -37q0 -24 -8 -28q-9 15 -21 15q-9 0 -41 -31q-35 -33 -94 -53q-53 -18 -107 -18q-127 0 -214 135q-9 18 -30 52q1 -22 1 -28q0 -54 -30 -87q-32 -36 -84 -36q-43 0 -71 23.5t-28 64.5
q0 52 50 73l30 42q-10 13 -10 27q0 18 12 18q1 0 6 -7.5t11 -10.5l49 68q-93 110 -108 227q-2 22 -14 34q-20 20 -24 26q32 14 43 57q21 84 108 173q80 80 167 121l4 -17q-65 -52 -111 -134q29 9 123 62q89 51 121 74q11 8 31 29q39 -37 73 -77zM637 5q0 17 10 25
q-1 -8 6 -15.5t14 -7.5q26 0 28 32q-10 18 -16 22q-8 8 -26 8q-24 0 -52 -23t-29 -48zM521 2q17 0 31 -2q4 32 37.5 60t67.5 28q24 0 41.5 -16t17.5 -40z" />
    <glyph glyph-name="plusminus" unicode="&#xb1;" 
 />
    <glyph glyph-name="yen" unicode="&#xa5;" horiz-adv-x="472" 
d="M363 222h-102v-86q3 -17 6 -35q8 -26 29 -33q-23 -33 -76 -85q-2 0 -33 33q-37 38 -48 48q37 20 37 69q0 39 -1 89h-91v32h91q0 16 1 48h-92v32h92v16q-19 69 -39 139q-32 91 -83 106h-20q-16 0 -21 -6q-8 -9 -15 -12q-7 3 -8 9l78 95q14 5 20 4q7 -2 13 -4
q54 -14 85 -69q13 -23 38 -100q28 -90 33 -102q21 59 87 265h77l12 15h14l-37 -107h-72l-78 -239v-10h103v-32h-103l1 -48h102v-32z" />
    <glyph glyph-name="mu" unicode="&#xb5;" horiz-adv-x="524" 
d="M270 389l25 13l-2 274q-44 -8 -54 -65q-3 -15 -3 -99q0 -18 3 -71q1 -29 31 -52zM17 250l101 55q-4 67 -4 106q0 142 44 213q57 95 199 95q36 0 89 -30.5t72 -60.5q-67 -42 -104 -71q-9 32 -38.5 64.5t-62.5 48.5v-258l139 76v-45l-139 -76l1 -252l27 -18l37 48l14 -7
q-27 -32 -76 -98q9 1 18 1q11 0 31.5 -6t30.5 -6q12 0 26.5 11t14.5 22q0 6 -9.5 10t-16.5 7q5 14 32 14q36 0 36 -35q0 -34 -45 -50l3 -5q64 -43 64 -124q0 -53 -41 -91.5t-95 -38.5q-58 0 -96 29q-13 11 -41 29q-38 18 -53 18q-19 0 -35 -8q-21 -10 -21 -27q0 -27 25 -27
q11 0 18.5 7t14.5 14l6 -6q-12 -27 -40 -27q-12 0 -25 11.5t-13 23.5q0 51 66 51q42 0 81 -27q0 5 -1 14t-1 14q0 30 18 50t48 20q21 0 37.5 -16.5t16.5 -38.5q0 -23 -13 -40q1 5 1 10q0 21 -25 21q-24 0 -24 -25q0 -18 17.5 -32t36.5 -14q5 0 42 11t59.5 41t22.5 70
q0 10 -9 29q-4 -17 -20.5 -32t-34.5 -15q-25 0 -41 30q12 4 25 7q10 4 10 25q0 33 -32 51q-25 14 -61 16q-5 3 -5 6q0 5 10 5q41 0 69 -21q31 -24 31 -63q0 -26 -30 -32q6 -11 21 -11q42 0 42 48q0 40 -50 68q-43 25 -86 25q-8 0 -16 -1l-35 -42q-55 37 -74 47
q-44 22 -85 22q-34 0 -60 -18q-30 -21 -30 -53q0 -43 40 -43q14 0 27.5 9t13.5 22q0 14 -10 17t-21 5q19 22 37 22q14 0 27 -13q8 -17 8 -24q0 -8 -5 -16q5 4 12.5 4t33.5 18t33 26l8 -6q-13 -12 -42 -35q-49 -30 -120 -42q15 -22 62 -22q51 0 96 22q12 10 37 25
q-11 -38 -57 -65q-42 -24 -85 -24q-46 0 -78.5 37t-32.5 84q0 69 61 115q56 42 128 42q54 0 98 -23l-2 236l-50 -27v-4q0 3 0 -50q0 -34 -12.5 -50t-155.5 -98q-1 4 -3 10l24.5 17.5t24.5 37.5q0 26 -3 68l-103 -57v46z" />
    <glyph glyph-name="mu" unicode="&#x3bc;" horiz-adv-x="524" 
d="M270 389l25 13l-2 274q-44 -8 -54 -65q-3 -15 -3 -99q0 -18 3 -71q1 -29 31 -52zM17 250l101 55q-4 67 -4 106q0 142 44 213q57 95 199 95q36 0 89 -30.5t72 -60.5q-67 -42 -104 -71q-9 32 -38.5 64.5t-62.5 48.5v-258l139 76v-45l-139 -76l1 -252l27 -18l37 48l14 -7
q-27 -32 -76 -98q9 1 18 1q11 0 31.5 -6t30.5 -6q12 0 26.5 11t14.5 22q0 6 -9.5 10t-16.5 7q5 14 32 14q36 0 36 -35q0 -34 -45 -50l3 -5q64 -43 64 -124q0 -53 -41 -91.5t-95 -38.5q-58 0 -96 29q-13 11 -41 29q-38 18 -53 18q-19 0 -35 -8q-21 -10 -21 -27q0 -27 25 -27
q11 0 18.5 7t14.5 14l6 -6q-12 -27 -40 -27q-12 0 -25 11.5t-13 23.5q0 51 66 51q42 0 81 -27q0 5 -1 14t-1 14q0 30 18 50t48 20q21 0 37.5 -16.5t16.5 -38.5q0 -23 -13 -40q1 5 1 10q0 21 -25 21q-24 0 -24 -25q0 -18 17.5 -32t36.5 -14q5 0 42 11t59.5 41t22.5 70
q0 10 -9 29q-4 -17 -20.5 -32t-34.5 -15q-25 0 -41 30q12 4 25 7q10 4 10 25q0 33 -32 51q-25 14 -61 16q-5 3 -5 6q0 5 10 5q41 0 69 -21q31 -24 31 -63q0 -26 -30 -32q6 -11 21 -11q42 0 42 48q0 40 -50 68q-43 25 -86 25q-8 0 -16 -1l-35 -42q-55 37 -74 47
q-44 22 -85 22q-34 0 -60 -18q-30 -21 -30 -53q0 -43 40 -43q14 0 27.5 9t13.5 22q0 14 -10 17t-21 5q19 22 37 22q14 0 27 -13q8 -17 8 -24q0 -8 -5 -16q5 4 12.5 4t33.5 18t33 26l8 -6q-13 -12 -42 -35q-49 -30 -120 -42q15 -22 62 -22q51 0 96 22q12 10 37 25
q-11 -38 -57 -65q-42 -24 -85 -24q-46 0 -78.5 37t-32.5 84q0 69 61 115q56 42 128 42q54 0 98 -23l-2 236l-50 -27v-4q0 3 0 -50q0 -34 -12.5 -50t-155.5 -98q-1 4 -3 10l24.5 17.5t24.5 37.5q0 26 -3 68l-103 -57v46z" />
    <glyph glyph-name="ordfeminine" unicode="&#xaa;" horiz-adv-x="546" 
d="M517 102q-2 -1 -30 -1t-47 -10q-30 -16 -30 -46q0 -19 13.5 -33.5t36.5 -14.5l10 1q-7 -15 -16 -24q-18 -17 -51 -17q-16 0 -23.5 8t-15 17t-7.5 29q0 25 46 73q-4 4 -9 4q-4 0 -10 -4.5t-6 -5.5q-26 -12 -72 -33q-23 -8 -43 -25.5t-38 -33.5q-12 25 -43 67
q-9 8 -34.5 22t-33.5 14q-47 -4 -50 -20q13 -1 24 -3q25 -4 36 -15q3 -3 27 -28q15 -15 29 -42q2 -4 27 -55l25 25q10 -5 10 -10q-12 -14 -23 -34q-1 -12 27 -46.5t42 -35.5q15 0 20 5q6 9 11 18q24 -1 23 -30q-1 -27 -25 -33q-15 -2 -30 -5q1 -15 33 -22q5 -2 42 -3
q35 -1 67 23t33 54q1 17 -8.5 31t-22.5 14q-31 1 -32 -33q0 -5 16 -17q-11 -11 -23 -10q-20 0 -34 20q-13 17 -13 38q1 17 13.5 32.5t29.5 20.5q24 8 36 8q19 0 39 -11.5t34 -35.5t13 -46q-3 -111 -132 -115q-34 -2 -51 6q-56 27 -84 56q-12 12 -24 44q-16 42 -20 49
q-16 -14 -37 -18q-8 -25 -21 -57q-13 -16 -46 -32q-6 -3 -23 -3q-18 1 -36 16t-17 29q-1 10 2 27q8 -3 20 -14q7 -7 23 -8q37 -1 50 30q-51 0 -81 21q-53 37 -51 118q4 113 132 148q11 3 18 6q36 19 38 59q0 14 -6 27q-7 17 -20 17q-23 1 -30 -25q0 -2 -2 -2q-5 0 -13 14.5
t-8 20.5q2 58 64 56q75 -3 73 -83q-1 -24 -17 -45q-4 -5 -34 -36q46 0 117 -52l1 280q-24 -19 -53 -45q-6 2 -17 16q20 20 70 51v189q-30 -14 -59 -27q-50 -33 -52 -82q-1 -44 35 -45q16 -1 22 9t6 15q0 3 -13 24l16 5q6 -6 15 -35q1 -14 -16 -25.5t-29 -11.5q-45 2 -53 59
q-5 41 22 71q15 13 31 25q-8 2 -39 5q-11 2 -29.5 15.5t-24.5 32.5q-5 14 -3 47q2 37 15 37l14 -15t33 -15l187 19q22 0 45 1q20 -1 43 -19q34 -27 32 -93v-123q10 -12 10 -18l7 -12q-48 -4 -58 -6q-44 -6 -72 -21q0 -3 28 -8q32 -6 42 -13q20 -13 40 -27q17 -16 18 -45
q2 -108 0 -168q0 4 9 -42zM380 454v111q0 33 -46 33q-13 0 -17 -3v-188q50 14 54 16q8 5 9 31zM390 121q8 216 -19 254q-4 6 -20 13q-9 4 -23 2q-16 -1 -16 -11q2 -34 0 -295q23 1 39 6q38 10 39 31zM184 -87q-7 20 -17 48q1 -28 2 -55q7 3 15 7zM132 -60q1 32 -18 71
q-5 11 -23 24t-30 14q-34 1 -46 -20.5t-12.5 -24t-1.5 -20.5q-1 -37 30 -62t70 -26q16 -1 25 2q6 30 6 42zM443 843l3 -8l-152 -123l-157 126l4 7l152 -62z" />
    <glyph glyph-name="ordmasculine" unicode="&#xba;" horiz-adv-x="261" 
d="M17 -66q0 -19 15 -32t36 -13q33 0 52 46l17 -4q0 -31 -32 -61t-63 -30q-25 0 -42 16.5t-17 41.5q0 49 35 85q32 27 65 54q37 30 41 65q1 16 1 114q0 36 -27 36q-29 0 -55 -62l-14 5q0 32 45 72t45 77q0 25 -49 74l-42 -31l-15 13q19 17 129 107q43 -51 47 -57
q23 -35 23 -68q0 -64 -78 -106v-3q46 1 77 -39q28 -37 28 -84q0 -59 -57 -97q-54 -26 -107 -51q-58 -29 -58 -68zM253 650l2 -6l-122 -99l-125 101l3 6l122 -50z" />
    <glyph glyph-name="ae" unicode="&#xe6;" horiz-adv-x="522" 
d="M236 350q-86 64 -90 64l-10 -9v-132q13 -28 36 -35q-28 -13 -36 -43v-100l39 -39l61 37l-1 104q-8 28 -36 41q23 7 36 34zM414 275l-73 116q0 6 -3 8l1 -165zM397 487q15 -49 113 -181q-29 -22 -83 -50q-71 -38 -86 -47v-95l66 -59l60 49l10 -12l-139 -117q-55 59 -99 89
l-3 3q-55 -33 -119 -76q-2 -1 -82 66v136q-8 32 -37 45q23 7 38 37v79q-3 5 -8 15q26 12 76 38q11 8 29 18q6 3 81 64q20 -17 64 -48q5 -2 28 -27q31 24 91 73z" />
    <glyph glyph-name="oslash" unicode="&#xf8;" horiz-adv-x="397" 
d="M148 197l91 152v11l-79 53l-12 -9v-207zM239 290l-91 -152v-20q38 -24 82 -47l9 6q1 108 0 213zM328 497h36l-43 -72l23 -15l-1 -140q13 -26 36 -33q-28 -13 -36 -41v-90q-39 -14 -93 -48q-57 -37 -83 -66q-22 14 -79 46l-27 -46h-36l35 59q-22 11 -44 20q23 19 30 44v84
q-8 26 -35 38q23 7 36 32v110q96 46 173 113l75 -50z" />
    <glyph glyph-name="questiondown" unicode="&#xbf;" horiz-adv-x="414" 
d="M167 407q42 26 73 79q15 -22 30.5 -42.5t43.5 -33.5q-54 -35 -77 -76q-24 50 -70 73zM253 296l14 -104q-26 -5 -127 -57l-1 -190q0 -12 6.5 -24t17.5 -12q-2 0 34.5 20t82.5 20q32 0 65.5 -25.5t38.5 -55.5h-55q-31 -2 -55.5 -27t-26.5 -25q-3 0 -5 2q-34 34 -84 59
q-54 25 -150 25l-3 10q19 -2 22 28q0 -1 0 33q3 24 0 171q1 10 -4.5 20.5t-10.5 20.5q1 0 2.5 4.5t2.5 3.5q17 -15 46 -17h44q34 -2 68 18q42 25 44 26v73z" />
    <glyph glyph-name="exclamdown" unicode="&#xa1;" horiz-adv-x="262" 
d="M156 286l29 -275q9 -87 22 -108q5 -7 22 -22q14 -13 14 -15q0 -14 -8 -14q-2 0 -20 4t-21 4q-70 0 -111 -22q-6 -3 -55 -26l-12 14q15 9 41 23q20 13 22.5 39.5t3.5 52.5q16 150 26 345h47zM128 350q-17 56 -65 65q44 25 66 67q20 -38 65 -65q-48 -24 -66 -67z" />
    <glyph glyph-name="logicalnot" unicode="&#xac;" 
 />
    <glyph glyph-name="florin" unicode="&#x192;" 
 />
    <glyph glyph-name="guillemotleft" unicode="&#xab;" horiz-adv-x="382" 
d="M382 529l-98 -161l95 -153l-12 -14l-143 167q-3 2 145 178zM263 529l-98 -161l95 -153l-12 -14l-143 167q-3 2 145 178z" />
    <glyph glyph-name="guillemotright" unicode="&#xbb;" horiz-adv-x="366" 
d="M98 529l97 -161l-95 -153l12 -14l144 167q3 2 -146 178zM217 529l97 -161l-95 -153l12 -14l144 167q3 2 -146 178z" />
    <glyph glyph-name="ellipsis" unicode="&#x2026;" horiz-adv-x="875" 
d="M792 65q-42 -26 -73 -79l-30 44q-15 19 -44 32q54 35 78 76q24 -50 69 -73zM492 65q-42 -26 -73 -79l-30 44q-15 19 -44 32q54 35 78 76q24 -50 69 -73zM182 65q-42 -26 -73 -79l-30 44q-15 19 -44 32q54 35 78 76q24 -50 69 -73z" />
    <glyph glyph-name="nonbreakingspace" unicode="&#xa0;" 
 />
    <glyph glyph-name="Agrave" unicode="&#xc0;" horiz-adv-x="745" 
d="M363 478l-65 -183h123q-12 47 -24 93q-15 56 -34 90zM248 636q-19 35 -85 35q-53 0 -90 -27q-41 -30 -41 -81q0 -34 39 -41q8 59 72 59q9 0 17 -1q0 26 32 43q27 13 56 13zM277 -16q-37 21 -74 43q-39 19 -83 19q-61 0 -77 -41q23 19 53 19q33 0 58 -23.5t26 -55.5
q32 21 46 27q11 4 51 12zM744 142l-148 -155q-33 20 -67 40q-25 19 -46 64q-5 -72 -64 -72q-17 0 -31.5 10t-14.5 27q0 28 19 28q7 0 11 -11q-6 -13 -6 -17q0 -18 23 -18q25 0 39 27q11 22 11 49q0 19 -37 124h-150l-38 -103l96 -38l47 49l15 -10q-21 -11 -68 -70
q-42 -55 -57 -84l26 -2q52 -5 110 -46.5t67 -41.5q17 0 25 21q2 22 -16 22q-8 0 -12 -6q-3 7 -3 14q0 15 11.5 25t25.5 10q20 0 33 -13t13 -33q0 -27 -27 -42q-23 -12 -52 -12l-11 3q5 -28 62 -62q54 -33 85 -33q27 0 49.5 14t22.5 38t-16 24q-20 0 -28 -33q-25 15 -25 42
t17 45.5t44 18.5q26 0 43 -26.5t17 -52.5q0 -41 -39 -66q-35 -22 -78 -22q-58 0 -137 65q15 -58 66 -97l-7 -7q-18 1 -44 39q-22 31 -29 55q-9 -40 -42 -63t-77 -23q-39 0 -69 19q-22 14 -52 49l8 9q39 -37 52 -44q26 -16 66 -16q42 0 70 28t28 70q-7 20 -10 25
q-6 12 -19 21l1 -12q1 -65 -57 -65q-18 0 -34 11.5t-16 29.5q17 -4 33 -4q12 0 20.5 10.5t8.5 23.5q0 36 -33 56q-28 17 -66 17q-87 0 -111 -63l-14 6q4 28 4 33q0 28 -19.5 46t-47.5 18q-69 0 -69 -56q0 -77 129 -77q25 0 57.5 15.5t51.5 33.5l11 -3q-14 -32 -56.5 -57
t-79.5 -25q-64 0 -103 37.5t-39 101.5q0 77 75 126q67 44 147 41q127 339 127 367q0 41 -34.5 76.5t-75.5 35.5q-20 0 -42 -14t-22 -34q0 -10 8 -19l-7 -3q-7 15 -30 15q-19 0 -34 -11t-15 -29q0 -36 66 -36q68 0 109 47q5 0 11 -6q-18 -40 -64 -62q-40 -18 -89 -17l-1 -2
q44 -30 62 -50q28 -32 28 -72q0 -36 -25 -60l-50 -34q-27 -21 -31 -46q5 -17 23 -17q17 0 34 28l7 -2q-2 -17 -16 -31t-31 -14q-36 0 -36 39q0 26 30 49q-78 11 -78 78q0 23 19 41.5t42 18.5q15 0 28 -15.5t13 -31.5q0 -28 -21 -33q-4 25 -23 25q-22 0 -22 -29
q0 -14 16 -24.5t31 -10.5q29 0 50 21.5t21 50.5q0 40 -47 77l-88 64q-47 42 -47 91q0 72 69 119q61 42 137 42q52 0 109 -24q64 -28 86 -69q2 -5 8 -16v26q0 53 35 77l6 -9q-15 -22 -15 -55q0 -25 38 -151q38 -122 53 -150q16 -32 68 -38q-38 -30 -38 -63q0 -40 25 -89
q30 -56 65 -56q34 0 68 47zM205 836q9 34 35 34q12 0 27 -8l178 -99l-8 -16q-2 0 -95 21q-86 19 -95 19q-44 0 -44 35q0 7 2 14z" />
    <glyph glyph-name="Atilde" unicode="&#xc3;" horiz-adv-x="745" 
d="M363 478l-65 -183h123q-12 47 -24 93q-15 56 -34 90zM248 636q-19 35 -85 35q-53 0 -90 -27q-41 -30 -41 -81q0 -34 39 -41q8 59 72 59q9 0 17 -1q0 26 32 43q27 13 56 13zM277 -16q-37 21 -74 43q-39 19 -83 19q-61 0 -77 -41q23 19 53 19q33 0 58 -23.5t26 -55.5
q32 21 46 27q11 4 51 12zM744 142l-148 -155q-33 20 -67 40q-25 19 -46 64q-5 -72 -64 -72q-17 0 -31.5 10t-14.5 27q0 28 19 28q7 0 11 -11q-6 -13 -6 -17q0 -18 23 -18q25 0 39 27q11 22 11 49q0 19 -37 124h-150l-38 -103l96 -38l47 49l15 -10q-21 -11 -68 -70
q-42 -55 -57 -84l26 -2q52 -5 110 -46.5t67 -41.5q17 0 25 21q2 22 -16 22q-8 0 -12 -6q-3 7 -3 14q0 15 11.5 25t25.5 10q20 0 33 -13t13 -33q0 -27 -27 -42q-23 -12 -52 -12l-11 3q5 -28 62 -62q54 -33 85 -33q27 0 49.5 14t22.5 38t-16 24q-20 0 -28 -33q-25 15 -25 42
t17 45.5t44 18.5q26 0 43 -26.5t17 -52.5q0 -41 -39 -66q-35 -22 -78 -22q-58 0 -137 65q15 -58 66 -97l-7 -7q-18 1 -44 39q-22 31 -29 55q-9 -40 -42 -63t-77 -23q-39 0 -69 19q-22 14 -52 49l8 9q39 -37 52 -44q26 -16 66 -16q42 0 70 28t28 70q-7 20 -10 25
q-6 12 -19 21l1 -12q1 -65 -57 -65q-18 0 -34 11.5t-16 29.5q17 -4 33 -4q12 0 20.5 10.5t8.5 23.5q0 36 -33 56q-28 17 -66 17q-87 0 -111 -63l-14 6q4 28 4 33q0 28 -19.5 46t-47.5 18q-69 0 -69 -56q0 -77 129 -77q25 0 57.5 15.5t51.5 33.5l11 -3q-14 -32 -56.5 -57
t-79.5 -25q-64 0 -103 37.5t-39 101.5q0 77 75 126q67 44 147 41q127 339 127 367q0 41 -34.5 76.5t-75.5 35.5q-20 0 -42 -14t-22 -34q0 -10 8 -19l-7 -3q-7 15 -30 15q-19 0 -34 -11t-15 -29q0 -36 66 -36q68 0 109 47q5 0 11 -6q-18 -40 -64 -62q-40 -18 -89 -17l-1 -2
q44 -30 62 -50q28 -32 28 -72q0 -36 -25 -60l-50 -34q-27 -21 -31 -46q5 -17 23 -17q17 0 34 28l7 -2q-2 -17 -16 -31t-31 -14q-36 0 -36 39q0 26 30 49q-78 11 -78 78q0 23 19 41.5t42 18.5q15 0 28 -15.5t13 -31.5q0 -28 -21 -33q-4 25 -23 25q-22 0 -22 -29
q0 -14 16 -24.5t31 -10.5q29 0 50 21.5t21 50.5q0 40 -47 77l-88 64q-47 42 -47 91q0 72 69 119q61 42 137 42q52 0 109 -24q64 -28 86 -69q2 -5 8 -16v26q0 53 35 77l6 -9q-15 -22 -15 -55q0 -25 38 -151q38 -122 53 -150q16 -32 68 -38q-38 -30 -38 -63q0 -40 25 -89
q30 -56 65 -56q34 0 68 47zM147 776q9 38 46 60q34 21 74 21q17 0 47 -14t48 -14q17 0 46 8t39 17q-16 -37 -51 -59.5t-76 -22.5q-16 0 -44 13.5t-43 13.5q-63 0 -86 -23z" />
    <glyph glyph-name="Otilde" unicode="&#xd5;" horiz-adv-x="622" 
d="M207 776q9 38 46 60q34 21 74 21q17 0 47 -14t48 -14q17 0 46 8t39 17q-16 -37 -51 -59.5t-76 -22.5q-16 0 -44 13.5t-43 13.5q-63 0 -86 -23zM191 39q9 -54 46 -114q44 -71 88 -71q17 0 37 23q15 -21 15 -40t-14 -38q17 -24 74 -24q181 0 181 121l-3 2q1 6 1 11
q0 17 -16.5 40t-33.5 25q-7 -67 -17 -92q-20 -53 -67 -53q-41 0 -68 22t-24 63q-25 -5 -39 -5q-54 0 -54 30t43 28q-7 -11 -7 -18q0 -16 34 -23l23 7q25 69 131 69q17 0 31 -2q4 32 37.5 60t67.5 28q24 0 41.5 -16t17.5 -40q0 -20 -14 -40t-33 -20q-32 0 -32 33q0 17 10 25
q-1 -8 6 -15.5t14 -7.5q27 0 28 32q-17 30 -42 30q-24 0 -52 -23t-29 -48q57 -30 65 -79q19 5 26 5q20 0 39 -17t19 -37q0 -24 -8 -28q-9 15 -21 15q-9 0 -41 -31q-35 -33 -94 -53q-53 -18 -107 -18q-127 0 -214 135q-9 18 -30 52q1 -22 1 -28q0 -54 -30 -87
q-32 -36 -84 -36q-43 0 -71 23.5t-28 64.5q0 30 23 54t53 24q25 0 44 -18.5t19 -42.5q0 -21 -15.5 -35t-37.5 -14q-30 0 -30 29q0 8 3 13q9 -6 17 -6q18 0 18 20q0 25 -29 30q-43 -15 -43 -57q0 -31 21 -48.5t53 -17.5q45 0 73.5 34.5t28.5 80.5q0 48 -21 83
q-18 -23 -22 -26q-12 -10 -33 -10q-19 0 -35.5 15t-16.5 34q0 18 12 18q-1 0 9 -11t25 -11t31 8q20 9 20 23t-5 22q-13 16 -38 47q-71 101 -84 199q-2 22 -14 34q-20 20 -24 26q32 14 43 57q21 84 108 173q80 80 167 121l4 -17q-65 -52 -111 -134q29 9 123 62q89 51 121 74
q11 8 31 29q155 -147 186 -278q8 -34 18 -46q7 -7 42 -29q-16 -17 -30.5 -34t-18.5 -45q-21 -153 -91 -229q-79 -86 -228 -86q-43 0 -89 11q-56 12 -80 34zM549 -19h-7q-4 -1 -13 0.5t-13 1.5q-66 0 -66 -57q0 -26 21 -26q18 0 19 14q0 14 -1 28q17 0 27 -19q7 -16 15 -32
q14 33 18 90zM637 5q0 17 10 25q-1 -8 6 -15.5t14 -7.5q26 0 28 32q-10 18 -16 22q-8 8 -26 8q-24 0 -52 -23t-29 -48zM521 2q17 0 31 -2q4 32 37.5 60t67.5 28q24 0 41.5 -16t17.5 -40zM562 273q0 41 -11 63q-13 27 -49 41q37 11 37 52q0 23 -29 75.5t-48 63.5v-522
q52 19 79 97q21 60 21 130zM441 591q-25 35 -53 53l-1 -211q0 -24 10 -36q7 -10 30 -23q-40 -29 -40 -82v-23q1 -15 1 -24q0 -37 -73 -67q-53 -19 -105 -37q33 -42 51 -57q33 -28 68 -28q28 0 55 19.5t27 45.5q0 10 -6.5 20.5t-15.5 10.5q-33 0 -33 -25t18 -26q-9 -4 -19 -4
q-5 0 -9.5 11t-4.5 16q0 44 44 44q42 0 42 -50q0 -54 -90 -77q29 -16 69 -16q11 0 35 10v556zM262 433v106q0 22 -1 38q-23 -12 -71 -33q-29 -82 -29 -112q0 -22 8 -40q10 -22 30 -21q-36 -19 -36 -55q0 -25 13 -85q14 -69 25 -69q12 0 57 27v118q0 29 -7 42t-32 23h2
q23 14 32 25.5t9 35.5z" />
    <glyph glyph-name="OE" unicode="&#x152;" horiz-adv-x="1167" 
d="M549 -19h-7q-4 -1 -13 0.5t-13 1.5q-66 0 -66 -57q0 -26 21 -26q18 0 19 14q0 14 -1 28q17 0 27 -19q7 -16 15 -32q14 33 18 90zM562 273q0 41 -11 63q-13 27 -49 41q37 11 37 52q0 23 -29 75.5t-48 63.5v-522q52 19 79 97q21 60 21 130zM441 591q-25 35 -53 53l-1 -211
q0 -24 10 -36q7 -10 30 -23q-40 -29 -40 -82v-23q1 -15 1 -24q0 -37 -73 -67q-53 -19 -105 -37q33 -42 51 -57q33 -28 68 -28q28 0 55 19.5t27 45.5q0 10 -6.5 20.5t-15.5 10.5q-33 0 -33 -25t18 -26q-9 -4 -19 -4q-5 0 -9.5 11t-4.5 16q0 44 44 44q42 0 42 -50
q0 -54 -90 -77q29 -16 69 -16q11 0 35 10v556zM262 433v106q0 22 -1 38q-23 -12 -71 -33q-29 -82 -29 -112q0 -22 8 -40q10 -22 30 -21q-36 -19 -36 -55q0 -25 13 -85q14 -69 25 -69q12 0 57 27v118q0 29 -7 42t-32 23h2q23 14 32 25.5t9 35.5zM782 224l1 56q0 50 -2 59
q-6 31 -36 40q13 -1 24.5 17t11.5 31l-1 158q-21 -8 -41 -8q-6 0 -21 4q-41 -78 -41 -128q0 -23 12 -45q14 -26 38 -29q-47 -26 -47 -49q0 -77 64 -131zM1133 -78q0 68 -62 68q-36 0 -36 -30q0 -21 18 -21q6 0 15 6t14 6t7 -4q-11 -43 -43 -43q-25 0 -43 18.5t-18 43.5
q0 21 17.5 41.5t37.5 25.5q-4 7 -22 26q-67 -38 -141 -44q91 -40 91 -125q0 -18 -4 -40q11 -7 18 -7q33 0 31 43q28 -4 28 -28q0 -20 -21 -34q44 6 76 30q37 28 37 68zM950 408q-39 1 -47 -44q-2 -11 -2 -74q0 -10 -1 -15q-3 -21 -65 -47q-70 -30 -80 -41q85 -78 195 -78
v299zM630 558q25 37 48 57q45 40 139 91l8 -11q-50 -37 -59 -44q-32 -29 -42 -59q2 -1 10 -1q49 0 188 92q3 2 31 29q23 21 31 21q7 -12 18 -28q18 -22 52 -22q18 0 29 15t21 29l14 -4q-1 -24 -30.5 -62t-51.5 -45q-26 -24 -72 -19q-1 -1 -1 -3v-63q1 -39 1 -62q26 10 46 10
q44 0 81 -48q-20 -21 -77 -78q-17 42 -50 52v-295h2q4 0 23 7q-15 28 -15 63q0 31 15 56q17 31 46 31q38 0 38 -34q0 -17 -10.5 -31.5t-27.5 -14.5q-14 0 -21 12q-1 13 12 13q3 0 6.5 -3.5t6.5 -3.5q8 0 15 9t7 17q0 23 -25 23q-24 0 -37 -27q-11 -22 -11 -48q0 -46 14 -57
q32 5 64 41q29 32 40 68l4 26q4 20 12 20q9 0 9 -24q0 -65 -41 -129q-6 -9 -36 -27q-25 -16 -25 -31q0 -4 26 -31l11 1q43 2 68 -34q21 -31 21 -77q0 -55 -43 -88q-39 -29 -96 -29q-33 0 -59 22q-20 -28 -54 -47t-68 -19q-38 0 -68 14q-37 17 -41 49q-5 8 -9 19q-1 -3 -4 -4
q-9 15 -21 15q-9 0 -41 -31q-35 -33 -94 -53q-53 -18 -107 -18q-127 0 -214 135q-9 18 -30 52q1 -22 1 -28q0 -54 -30 -87q-32 -36 -84 -36q-43 0 -71 23.5t-28 64.5q0 30 23 54t53 24q25 0 44 -18.5t19 -42.5q0 -21 -15.5 -35t-37.5 -14q-30 0 -30 29q0 8 3 13q9 -6 17 -6
q18 0 18 20q0 25 -29 30q-43 -15 -43 -57q0 -31 21 -48.5t53 -17.5q45 0 73.5 34.5t28.5 80.5q0 48 -21 83q-18 -23 -22 -26q-12 -10 -33 -10q-19 0 -35.5 15t-16.5 34q0 18 12 18q-1 0 9 -11t25 -11t31 8q20 9 20 23t-5 22q-13 16 -38 47q-71 101 -84 199q-2 22 -14 34
q-20 20 -24 26q32 14 43 57q21 84 108 173q80 80 167 121l4 -17q-65 -52 -111 -134q29 9 123 62q89 51 121 74q11 8 31 29q97 -91 148 -183zM689 79q-38 28 -57 58l-2 3q-77 -146 -270 -146q-43 0 -89 11q-56 12 -80 34q9 -54 46 -114q44 -71 88 -71q17 0 37 23
q15 -21 15 -40t-14 -38q17 -24 74 -24q181 0 181 121l-3 2q1 6 1 11q0 17 -16.5 40t-33.5 25q-7 -67 -17 -92q-20 -53 -67 -53q-41 0 -68 22t-24 63q-25 -5 -39 -5q-54 0 -54 30t43 28q-7 -11 -7 -18q0 -16 34 -23l23 7q25 69 131 69q17 0 31 -2q4 32 37.5 60t67.5 28
q17 0 32 -9zM743 -61q40 34 72 34q33 0 59.5 -23.5t26.5 -56.5q0 -25 -17.5 -44.5t-41.5 -19.5q-19 0 -31.5 14.5t-12.5 33.5q0 18 17 32q5 -10 9.5 -20t20.5 -10q23 0 23 20q0 54 -55 54q-32 0 -53.5 -21.5t-21.5 -53.5q0 -41 27.5 -68.5t69.5 -27.5q34 0 62 14
q34 18 34 49q0 8 -16 35q18 -17 34 -22q2 22 2 32q0 47 -27 75q-20 21 -64 37q-38 12 -76 25q-46 18 -86 45q18 -16 18 -40q0 -20 -14 -40t-33 -20q-32 0 -32 33q0 17 10 25q-1 -8 6 -15.5t14 -7.5q27 0 28 32q-17 30 -42 30q-24 0 -52 -23t-29 -48q57 -30 65 -79q19 5 26 5
q33 0 51 -32q6 31 29 47zM898 425q7 14 52 37v137q-34 14 -51 41q0 -167 -1 -215zM637 5q0 17 10 25q-1 -8 6 -15.5t14 -7.5q26 0 28 32q-10 18 -16 22q-8 8 -26 8q-24 0 -52 -23t-29 -48zM521 2q17 0 31 -2q4 32 37.5 60t67.5 28q24 0 41.5 -16t17.5 -40z" />
    <glyph glyph-name="oe" unicode="&#x153;" horiz-adv-x="529" 
d="M239 370l-79 53l-12 -9v-145q13 -25 35 -32q-26 -12 -35 -37v-92q38 -24 82 -47l9 6q1 123 1 124q-15 37 -35 46q23 7 35 29zM422 295l-75 125v-166zM311 432q29 18 99 74l108 -180q-58 -32 -170 -97v-95l66 -59l60 49l11 -12l-124 -131q-32 28 -89 79q-72 -40 -105 -78
q-40 24 -61 36q-48 26 -90 43q23 19 30 44v94q-8 26 -35 38q23 7 36 32v120q96 46 173 113z" />
    <glyph glyph-name="endash" unicode="&#x2013;" horiz-adv-x="412" 
d="M0 215v54h407v-54h-407z" />
    <glyph glyph-name="emdash" unicode="&#x2014;" horiz-adv-x="785" 
d="M0 215v54h780v-54h-780z" />
    <glyph glyph-name="quotedblleft" unicode="&#x201c;" horiz-adv-x="289" 
d="M115 611l-71 75q-45 -66 -43 -117q2 -68 75 -109q-9 24 -10 45q-2 60 49 106zM265 611l-71 75q-45 -66 -43 -117q2 -68 75 -109q-9 24 -10 45q-2 60 49 106z" />
    <glyph glyph-name="quotedblright" unicode="&#x201d;" horiz-adv-x="292" 
d="M162 611l71 75q45 -66 43 -117q-2 -68 -75 -109q9 24 10 45q2 60 -49 106zM12 611l71 75q45 -66 43 -117q-2 -68 -75 -109q9 24 10 45q2 60 -49 106z" />
    <glyph glyph-name="quoteleft" unicode="&#x2018;" horiz-adv-x="119" 
d="M120 621l-72 75q-44 -66 -42 -117q2 -68 74 -109q-8 24 -9 45q-2 60 49 106z" />
    <glyph glyph-name="quoteright" unicode="&#x2019;" horiz-adv-x="139" 
d="M12 621l71 75q45 -66 43 -117q-2 -68 -75 -109q9 24 10 45q2 60 -49 106z" />
    <glyph glyph-name="divide" unicode="&#xf7;" 
 />
    <glyph glyph-name="ydieresis" unicode="&#xff;" horiz-adv-x="431" 
d="M282 200q-8 15 -31 36q18 14 23 21.5t7 28.5l1 82l-38 49l-62 -41q1 -122 1 -106q14 -24 40 -32q-18 -8 -24 -14q-13 -11 -16 -30v-74q2 -19 6 -26q6 -12 27 -23q-28 -17 -45 -35q-11 -14 -36 -53q-14 21 -29 41q-22 28 -57 43l26 22q10 11 10 35l2 75q-11 28 -35 39
q15 4 33 39l1 87l-36 39l-32 -27l-12 16l106 100l70 -64v-28l126 96l71 -75l2 -135q5 -11 10 -20q13 -21 24 -24q-28 -13 -37 -37l3 -84q0 -28 -1 -62q-1 -29 -1 -30q2 -46 -43 -104q-36 -46 -89 -86q-47 -35 -58 -33q-23 5 -20 9q59 67 68 78q46 63 46 108v67zM229 568
q0 19 12.5 32t31.5 13t32 -13t13 -32t-13 -32t-32 -13q-18 0 -31 13.5t-13 31.5zM89 568q0 19 12.5 32t31.5 13t32 -13t13 -32t-13 -32t-32 -13q-18 0 -31 13.5t-13 31.5z" />
    <glyph glyph-name="Ydieresis" unicode="&#x178;" horiz-adv-x="606" 
d="M573 -175q0 -13 -5 -26q-28 -63 -135 -63q-25 0 -50 4q-8 1 -27.5 10.5t-21.5 9.5q-10 0 -16 -7q-11 -11 -15 -13q-29 -22 -59 -44q-42 -31 -61 -31q-18 0 -29 17q-9 14 -9 33q0 13 12.5 24.5t21.5 11.5q10 0 27.5 -8.5t14.5 -8.5q6 0 40 21q18 11 36 23q-17 10 -36 39
q-23 34 -32 71q-1 -1 -3 -4q-5 -55 -42 -90.5t-84 -35.5q-35 0 -67 26.5t-32 63.5q0 35 20.5 62.5t54.5 27.5q23 0 42.5 -19t19.5 -42q0 -19 -14.5 -33.5t-33.5 -14.5q-8 0 -16 3q9 8 9 18q0 20 -26 20q-20 0 -20 -25q0 -33 29 -53q21 -14 44 -14q42 0 73 41q28 38 28 82
q0 39 -20 84q-18 -45 -58 -45q-9 0 -20.5 9.5t-11.5 18.5q0 4 11.5 4t14.5 2q20 11 20 35q0 32 -61 71q-1 7 12 15q19 11 21 13q12 12 12 37l1 154q-5 1 -35 1t-39 -9q-12 -15 -23 -30l-2 -1q-6 4 -6 26q0 42 20 72q26 40 78 36v154q-17 15 -46 48q-15 26 -15 28q0 -1 0 36
q0 14 7.5 25.5t16 23t73.5 33.5q-14 -16 -14 -30q0 -21 30 -44q40 -29 47 -40q20 -27 18 -87q12 0 101 82t95 82q7 0 108 -96l1 -230q1 -17 18 -26l17 -9q0 -1 -2 -2q-27 -18 -31 -43l-1 -263q-2 -51 -5 -61q-6 -26 -35 -58q-59 -65 -103 -99q-19 -15 -57 -46q7 -5 29 -10
q14 -4 32 -4q52 0 89 19q26 13 26 34q0 15 -11 15q-3 0 -12 -7t-12 -7q-15 0 -15 24q0 47 52 47q21 0 34 -19.5t13 -38.5zM298 555l-49 -39v-134q1 -8 4 -15q7 -16 25 -23q-21 -8 -29 -23q-1 -7 -3 -13q-2 -155 1 -192q12 -8 41 -38l10 7v470zM429 -71l-2 308q0 17 -3 58
q-2 29 -39 45q40 17 39 41q-2 44 -1 171l-55 53l-49 -37l1 -467q26 28 31 28q7 0 7 -10l-128 -134q-13 4 -23 12l4 -21q0 -8 13 -26.5t20 -20.5q-6 3 -9 4v0q34 -14 58 -14q46 0 46 36q0 12 -8 20q-14 13 -16 16q7 8 25 8q20 0 37 -10q6 -4 13.5 -21t7.5 -26q0 -29 -23 -51
t-57 -22q-3 0 -14 2.5t-14 2.5q-20 0 -54 40q-1 -7 4.5 -17l5.5 -10q4 -23 24.5 -52.5t42.5 -46.5l72 62q45 41 44 79zM336 808q0 21 14.5 36.5t35.5 15.5q22 0 37 -15t15 -37q0 -21 -15 -36.5t-37 -15.5q-20 0 -35 15.5t-15 36.5zM159 808q0 21 14.5 36.5t35.5 15.5
q22 0 37 -15t15 -37q0 -21 -15 -36.5t-37 -15.5q-20 0 -35 15.5t-15 36.5z" />
    <glyph glyph-name="currency" unicode="&#xa4;" 
 />
    <glyph glyph-name="guilsinglleft" unicode="&#x2039;" horiz-adv-x="203" 
d="M203 529l-97 -161l94 -153l-12 -14l-143 167q-3 2 145 178z" />
    <glyph glyph-name="guilsinglright" unicode="&#x203a;" horiz-adv-x="205" 
d="M55 529l97 -161l-94 -153l11 -14l143 167q4 2 -145 178z" />
    <glyph glyph-name="periodcentered" unicode="&#xb7;" horiz-adv-x="247" 
d="M74 314q0 19 14 33t34 14q19 0 33 -14t14 -33q0 -20 -14 -34t-33 -14q-20 0 -34 14t-14 34z" />
    <glyph glyph-name="periodcentered" unicode="&#x2219;" horiz-adv-x="247" 
d="M74 314q0 19 14 33t34 14q19 0 33 -14t14 -33q0 -20 -14 -34t-33 -14q-20 0 -34 14t-14 34z" />
    <glyph glyph-name="quotesinglbase" unicode="&#x201a;" horiz-adv-x="181" 
d="M90 -7q-19 -34 -23 -87l-20 -1q0 47 7 75l10 49q-13 13 -39 29q48 23 66 67q17 -56 65 -65q-43 -25 -66 -68v1z" />
    <glyph glyph-name="quotedblbase" unicode="&#x201e;" horiz-adv-x="342" 
d="M250 -7q-19 -34 -23 -87l-20 -1q0 47 7 75l10 49q-13 13 -39 29q48 23 66 67q17 -56 65 -65q-43 -25 -66 -68v1zM90 -7q-19 -34 -23 -87l-20 -1q0 47 7 75l10 49q-13 13 -39 29q48 23 66 67q17 -56 65 -65q-43 -25 -66 -68v1z" />
    <glyph glyph-name="Acircumflex" unicode="&#xc2;" horiz-adv-x="745" 
d="M363 478l-65 -183h123q-12 47 -24 93q-15 56 -34 90zM248 636q-19 35 -85 35q-53 0 -90 -27q-41 -30 -41 -81q0 -34 39 -41q8 59 72 59q9 0 17 -1q0 26 32 43q27 13 56 13zM277 -16q-37 21 -74 43q-39 19 -83 19q-61 0 -77 -41q23 19 53 19q33 0 58 -23.5t26 -55.5
q32 21 46 27q11 4 51 12zM744 142l-148 -155q-33 20 -67 40q-25 19 -46 64q-5 -72 -64 -72q-17 0 -31.5 10t-14.5 27q0 28 19 28q7 0 11 -11q-6 -13 -6 -17q0 -18 23 -18q25 0 39 27q11 22 11 49q0 19 -37 124h-150l-38 -103l96 -38l47 49l15 -10q-21 -11 -68 -70
q-42 -55 -57 -84l26 -2q52 -5 110 -46.5t67 -41.5q17 0 25 21q2 22 -16 22q-8 0 -12 -6q-3 7 -3 14q0 15 11.5 25t25.5 10q20 0 33 -13t13 -33q0 -27 -27 -42q-23 -12 -52 -12l-11 3q5 -28 62 -62q54 -33 85 -33q27 0 49.5 14t22.5 38t-16 24q-20 0 -28 -33q-25 15 -25 42
t17 45.5t44 18.5q26 0 43 -26.5t17 -52.5q0 -41 -39 -66q-35 -22 -78 -22q-58 0 -137 65q15 -58 66 -97l-7 -7q-18 1 -44 39q-22 31 -29 55q-9 -40 -42 -63t-77 -23q-39 0 -69 19q-22 14 -52 49l8 9q39 -37 52 -44q26 -16 66 -16q42 0 70 28t28 70q-7 20 -10 25
q-6 12 -19 21l1 -12q1 -65 -57 -65q-18 0 -34 11.5t-16 29.5q17 -4 33 -4q12 0 20.5 10.5t8.5 23.5q0 36 -33 56q-28 17 -66 17q-87 0 -111 -63l-14 6q4 28 4 33q0 28 -19.5 46t-47.5 18q-69 0 -69 -56q0 -77 129 -77q25 0 57.5 15.5t51.5 33.5l11 -3q-14 -32 -56.5 -57
t-79.5 -25q-64 0 -103 37.5t-39 101.5q0 77 75 126q67 44 147 41q127 339 127 367q0 41 -34.5 76.5t-75.5 35.5q-20 0 -42 -14t-22 -34q0 -10 8 -19l-7 -3q-7 15 -30 15q-19 0 -34 -11t-15 -29q0 -36 66 -36q68 0 109 47q5 0 11 -6q-18 -40 -64 -62q-40 -18 -89 -17l-1 -2
q44 -30 62 -50q28 -32 28 -72q0 -36 -25 -60l-50 -34q-27 -21 -31 -46q5 -17 23 -17q17 0 34 28l7 -2q-2 -17 -16 -31t-31 -14q-36 0 -36 39q0 26 30 49q-78 11 -78 78q0 23 19 41.5t42 18.5q15 0 28 -15.5t13 -31.5q0 -28 -21 -33q-4 25 -23 25q-22 0 -22 -29
q0 -14 16 -24.5t31 -10.5q29 0 50 21.5t21 50.5q0 40 -47 77l-88 64q-47 42 -47 91q0 72 69 119q61 42 137 42q52 0 109 -24q64 -28 86 -69q2 -5 8 -16v26q0 53 35 77l6 -9q-15 -22 -15 -55q0 -25 38 -151q38 -122 53 -150q16 -32 68 -38q-38 -30 -38 -63q0 -40 25 -89
q30 -56 65 -56q34 0 68 47zM190 742l-2 7l149 125l159 -127l-3 -8l-158 66z" />
    <glyph glyph-name="Ecircumflex" unicode="&#xca;" horiz-adv-x="657" 
d="M242 211l1 56q0 49 -2 59q-6 31 -36 40q13 -1 24.5 17t11.5 31l-1 158q-21 -8 -41 -8q-6 0 -21 4q-34 -64 -34 -114q0 -28 9 -52q11 -33 34 -36q-39 -21 -39 -54q0 -79 56 -126zM593 -91q0 68 -62 68q-36 0 -36 -30q0 -21 18 -21q6 0 15 6t14 6t7 -4q-11 -43 -43 -43
q-25 0 -43 18.5t-18 43.5q0 21 17.5 41.5t37.5 25.5q-4 7 -22 26q-67 -38 -141 -44q91 -40 91 -125q0 -18 -4 -40q11 -7 18 -7q33 0 31 43q28 -4 28 -28q0 -20 -21 -34q44 6 76 30q37 28 37 68zM410 395q-39 1 -47 -44q-2 -11 -2 -74q0 -10 -1 -15q-3 -21 -65 -47
q-70 -30 -80 -41q85 -78 195 -78v299zM424 456q26 10 46 10q44 0 81 -48q-20 -21 -77 -78q-17 42 -50 52v-295h2q4 0 23 7q-15 28 -15 63q0 31 15 56q17 31 46 31q38 0 38 -34q0 -17 -10.5 -31.5t-27.5 -14.5q-14 0 -21 12q-1 13 12 13q3 0 6.5 -3.5t6.5 -3.5q8 0 15 9t7 17
q0 23 -25 23q-24 0 -37 -27q-11 -22 -11 -48q0 -46 14 -57q32 5 64 41q29 32 40 68l4 26q4 20 12 20q9 0 9 -24q0 -65 -41 -129q-6 -9 -36 -27q-25 -16 -25 -31q0 -4 26 -31l11 1q43 2 68 -34q21 -31 21 -77q0 -55 -43 -88q-39 -29 -96 -29q-33 0 -59 22q-20 -28 -54 -47
t-68 -19q-36 0 -65 17q-34 20 -38 53q-10 -9 -19.5 -17t-30.5 -8q-18 0 -31.5 12.5t-13.5 30.5q0 10 6 19q21 -16 24 -16q36 0 36 35q0 27 -29 27q-5 0 -16 -6q19 26 39 26q19 0 32 -17q2 1 2 6q0 44 -27 80.5t-70 36.5q-29 0 -48.5 -15.5t-19.5 -43.5q0 -35 28 -35
q27 0 27 24q0 7 -14 22q6 7 16 7q14 0 26.5 -11.5t12.5 -25.5q0 -41 -46 -41q-22 0 -41.5 18.5t-19.5 41.5q0 32 21 51.5t54 19.5q49 0 80 -32.5t33 -81.5q29 27 72 27q34 0 60 -21t26 -54q0 -25 -17.5 -44.5t-41.5 -19.5q-19 0 -31.5 14.5t-12.5 33.5q0 18 17 32
q5 -10 9.5 -20t20.5 -10q23 0 23 20q0 54 -55 54q-32 0 -53.5 -21.5t-21.5 -53.5q0 -41 27.5 -68.5t69.5 -27.5q34 0 62 14q34 18 34 49q0 8 -16 35q18 -17 34 -22q2 22 2 32q0 47 -27 75q-20 21 -64 37q-38 12 -76 25q-107 41 -152.5 110.5t-69.5 205.5q-2 10 -12 21
q-15 16 -16 19q9 8 18.5 16.5t11.5 19.5q8 43 44 104.5t70 91.5q45 40 139 91l8 -11q-50 -37 -59 -44q-32 -29 -42 -59q2 -1 10 -1q49 0 188 92q3 2 31 29q23 21 31 21q7 -12 18 -28q18 -22 52 -22q18 0 29 15t21 29l14 -4q-1 -24 -30.5 -62t-51.5 -45q-26 -24 -72 -19
q-1 -1 -1 -3v-63q1 -39 1 -62zM358 412q7 14 52 37v137q-34 14 -51 41q0 -167 -1 -215zM190 742l-2 7l149 125l159 -127l-3 -8l-158 66z" />
    <glyph glyph-name="Aacute" unicode="&#xc1;" horiz-adv-x="745" 
d="M363 478l-65 -183h123q-12 47 -24 93q-15 56 -34 90zM248 636q-19 35 -85 35q-53 0 -90 -27q-41 -30 -41 -81q0 -34 39 -41q8 59 72 59q9 0 17 -1q0 26 32 43q27 13 56 13zM277 -16q-37 21 -74 43q-39 19 -83 19q-61 0 -77 -41q23 19 53 19q33 0 58 -23.5t26 -55.5
q32 21 46 27q11 4 51 12zM744 142l-148 -155q-33 20 -67 40q-25 19 -46 64q-5 -72 -64 -72q-17 0 -31.5 10t-14.5 27q0 28 19 28q7 0 11 -11q-6 -13 -6 -17q0 -18 23 -18q25 0 39 27q11 22 11 49q0 19 -37 124h-150l-38 -103l96 -38l47 49l15 -10q-21 -11 -68 -70
q-42 -55 -57 -84l26 -2q52 -5 110 -46.5t67 -41.5q17 0 25 21q2 22 -16 22q-8 0 -12 -6q-3 7 -3 14q0 15 11.5 25t25.5 10q20 0 33 -13t13 -33q0 -27 -27 -42q-23 -12 -52 -12l-11 3q5 -28 62 -62q54 -33 85 -33q27 0 49.5 14t22.5 38t-16 24q-20 0 -28 -33q-25 15 -25 42
t17 45.5t44 18.5q26 0 43 -26.5t17 -52.5q0 -41 -39 -66q-35 -22 -78 -22q-58 0 -137 65q15 -58 66 -97l-7 -7q-18 1 -44 39q-22 31 -29 55q-9 -40 -42 -63t-77 -23q-39 0 -69 19q-22 14 -52 49l8 9q39 -37 52 -44q26 -16 66 -16q42 0 70 28t28 70q-7 20 -10 25
q-6 12 -19 21l1 -12q1 -65 -57 -65q-18 0 -34 11.5t-16 29.5q17 -4 33 -4q12 0 20.5 10.5t8.5 23.5q0 36 -33 56q-28 17 -66 17q-87 0 -111 -63l-14 6q4 28 4 33q0 28 -19.5 46t-47.5 18q-69 0 -69 -56q0 -77 129 -77q25 0 57.5 15.5t51.5 33.5l11 -3q-14 -32 -56.5 -57
t-79.5 -25q-64 0 -103 37.5t-39 101.5q0 77 75 126q67 44 147 41q127 339 127 367q0 41 -34.5 76.5t-75.5 35.5q-20 0 -42 -14t-22 -34q0 -10 8 -19l-7 -3q-7 15 -30 15q-19 0 -34 -11t-15 -29q0 -36 66 -36q68 0 109 47q5 0 11 -6q-18 -40 -64 -62q-40 -18 -89 -17l-1 -2
q44 -30 62 -50q28 -32 28 -72q0 -36 -25 -60l-50 -34q-27 -21 -31 -46q5 -17 23 -17q17 0 34 28l7 -2q-2 -17 -16 -31t-31 -14q-36 0 -36 39q0 26 30 49q-78 11 -78 78q0 23 19 41.5t42 18.5q15 0 28 -15.5t13 -31.5q0 -28 -21 -33q-4 25 -23 25q-22 0 -22 -29
q0 -14 16 -24.5t31 -10.5q29 0 50 21.5t21 50.5q0 40 -47 77l-88 64q-47 42 -47 91q0 72 69 119q61 42 137 42q52 0 109 -24q64 -28 86 -69q2 -5 8 -16v26q0 53 35 77l6 -9q-15 -22 -15 -55q0 -25 38 -151q38 -122 53 -150q16 -32 68 -38q-38 -30 -38 -63q0 -40 25 -89
q30 -56 65 -56q34 0 68 47zM475 836q-9 34 -34 34q-13 0 -27 -8l-179 -99l9 -16q2 0 95 21q86 19 94 19q44 0 44 35q0 7 -2 14z" />
    <glyph glyph-name="Edieresis" unicode="&#xcb;" horiz-adv-x="657" 
d="M242 211l1 56q0 49 -2 59q-6 31 -36 40q13 -1 24.5 17t11.5 31l-1 158q-21 -8 -41 -8q-6 0 -21 4q-34 -64 -34 -114q0 -28 9 -52q11 -33 34 -36q-39 -21 -39 -54q0 -79 56 -126zM593 -91q0 68 -62 68q-36 0 -36 -30q0 -21 18 -21q6 0 15 6t14 6t7 -4q-11 -43 -43 -43
q-25 0 -43 18.5t-18 43.5q0 21 17.5 41.5t37.5 25.5q-4 7 -22 26q-67 -38 -141 -44q91 -40 91 -125q0 -18 -4 -40q11 -7 18 -7q33 0 31 43q28 -4 28 -28q0 -20 -21 -34q44 6 76 30q37 28 37 68zM410 395q-39 1 -47 -44q-2 -11 -2 -74q0 -10 -1 -15q-3 -21 -65 -47
q-70 -30 -80 -41q85 -78 195 -78v299zM424 456q26 10 46 10q44 0 81 -48q-20 -21 -77 -78q-17 42 -50 52v-295h2q4 0 23 7q-15 28 -15 63q0 31 15 56q17 31 46 31q38 0 38 -34q0 -17 -10.5 -31.5t-27.5 -14.5q-14 0 -21 12q-1 13 12 13q3 0 6.5 -3.5t6.5 -3.5q8 0 15 9t7 17
q0 23 -25 23q-24 0 -37 -27q-11 -22 -11 -48q0 -46 14 -57q32 5 64 41q29 32 40 68l4 26q4 20 12 20q9 0 9 -24q0 -65 -41 -129q-6 -9 -36 -27q-25 -16 -25 -31q0 -4 26 -31l11 1q43 2 68 -34q21 -31 21 -77q0 -55 -43 -88q-39 -29 -96 -29q-33 0 -59 22q-20 -28 -54 -47
t-68 -19q-36 0 -65 17q-34 20 -38 53q-10 -9 -19.5 -17t-30.5 -8q-18 0 -31.5 12.5t-13.5 30.5q0 10 6 19q21 -16 24 -16q36 0 36 35q0 27 -29 27q-5 0 -16 -6q19 26 39 26q19 0 32 -17q2 1 2 6q0 44 -27 80.5t-70 36.5q-29 0 -48.5 -15.5t-19.5 -43.5q0 -35 28 -35
q27 0 27 24q0 7 -14 22q6 7 16 7q14 0 26.5 -11.5t12.5 -25.5q0 -41 -46 -41q-22 0 -41.5 18.5t-19.5 41.5q0 32 21 51.5t54 19.5q49 0 80 -32.5t33 -81.5q29 27 72 27q34 0 60 -21t26 -54q0 -25 -17.5 -44.5t-41.5 -19.5q-19 0 -31.5 14.5t-12.5 33.5q0 18 17 32
q5 -10 9.5 -20t20.5 -10q23 0 23 20q0 54 -55 54q-32 0 -53.5 -21.5t-21.5 -53.5q0 -41 27.5 -68.5t69.5 -27.5q34 0 62 14q34 18 34 49q0 8 -16 35q18 -17 34 -22q2 22 2 32q0 47 -27 75q-20 21 -64 37q-38 12 -76 25q-107 41 -152.5 110.5t-69.5 205.5q-2 10 -12 21
q-15 16 -16 19q9 8 18.5 16.5t11.5 19.5q8 43 44 104.5t70 91.5q45 40 139 91l8 -11q-50 -37 -59 -44q-32 -29 -42 -59q2 -1 10 -1q49 0 188 92q3 2 31 29q23 21 31 21q7 -12 18 -28q18 -22 52 -22q18 0 29 15t21 29l14 -4q-1 -24 -30.5 -62t-51.5 -45q-26 -24 -72 -19
q-1 -1 -1 -3v-63q1 -39 1 -62zM358 412q7 14 52 37v137q-34 14 -51 41q0 -167 -1 -215zM356 808q0 21 14.5 36.5t35.5 15.5q22 0 37 -15t15 -37q0 -21 -15 -36.5t-37 -15.5q-20 0 -35 15.5t-15 36.5zM179 808q0 21 14.5 36.5t35.5 15.5q22 0 37 -15t15 -37q0 -21 -15 -36.5
t-37 -15.5q-20 0 -35 15.5t-15 36.5z" />
    <glyph glyph-name="Egrave" unicode="&#xc8;" horiz-adv-x="657" 
d="M242 211l1 56q0 49 -2 59q-6 31 -36 40q13 -1 24.5 17t11.5 31l-1 158q-21 -8 -41 -8q-6 0 -21 4q-34 -64 -34 -114q0 -28 9 -52q11 -33 34 -36q-39 -21 -39 -54q0 -79 56 -126zM593 -91q0 68 -62 68q-36 0 -36 -30q0 -21 18 -21q6 0 15 6t14 6t7 -4q-11 -43 -43 -43
q-25 0 -43 18.5t-18 43.5q0 21 17.5 41.5t37.5 25.5q-4 7 -22 26q-67 -38 -141 -44q91 -40 91 -125q0 -18 -4 -40q11 -7 18 -7q33 0 31 43q28 -4 28 -28q0 -20 -21 -34q44 6 76 30q37 28 37 68zM410 395q-39 1 -47 -44q-2 -11 -2 -74q0 -10 -1 -15q-3 -21 -65 -47
q-70 -30 -80 -41q85 -78 195 -78v299zM424 456q26 10 46 10q44 0 81 -48q-20 -21 -77 -78q-17 42 -50 52v-295h2q4 0 23 7q-15 28 -15 63q0 31 15 56q17 31 46 31q38 0 38 -34q0 -17 -10.5 -31.5t-27.5 -14.5q-14 0 -21 12q-1 13 12 13q3 0 6.5 -3.5t6.5 -3.5q8 0 15 9t7 17
q0 23 -25 23q-24 0 -37 -27q-11 -22 -11 -48q0 -46 14 -57q32 5 64 41q29 32 40 68l4 26q4 20 12 20q9 0 9 -24q0 -65 -41 -129q-6 -9 -36 -27q-25 -16 -25 -31q0 -4 26 -31l11 1q43 2 68 -34q21 -31 21 -77q0 -55 -43 -88q-39 -29 -96 -29q-33 0 -59 22q-20 -28 -54 -47
t-68 -19q-36 0 -65 17q-34 20 -38 53q-10 -9 -19.5 -17t-30.5 -8q-18 0 -31.5 12.5t-13.5 30.5q0 10 6 19q21 -16 24 -16q36 0 36 35q0 27 -29 27q-5 0 -16 -6q19 26 39 26q19 0 32 -17q2 1 2 6q0 44 -27 80.5t-70 36.5q-29 0 -48.5 -15.5t-19.5 -43.5q0 -35 28 -35
q27 0 27 24q0 7 -14 22q6 7 16 7q14 0 26.5 -11.5t12.5 -25.5q0 -41 -46 -41q-22 0 -41.5 18.5t-19.5 41.5q0 32 21 51.5t54 19.5q49 0 80 -32.5t33 -81.5q29 27 72 27q34 0 60 -21t26 -54q0 -25 -17.5 -44.5t-41.5 -19.5q-19 0 -31.5 14.5t-12.5 33.5q0 18 17 32
q5 -10 9.5 -20t20.5 -10q23 0 23 20q0 54 -55 54q-32 0 -53.5 -21.5t-21.5 -53.5q0 -41 27.5 -68.5t69.5 -27.5q34 0 62 14q34 18 34 49q0 8 -16 35q18 -17 34 -22q2 22 2 32q0 47 -27 75q-20 21 -64 37q-38 12 -76 25q-107 41 -152.5 110.5t-69.5 205.5q-2 10 -12 21
q-15 16 -16 19q9 8 18.5 16.5t11.5 19.5q8 43 44 104.5t70 91.5q45 40 139 91l8 -11q-50 -37 -59 -44q-32 -29 -42 -59q2 -1 10 -1q49 0 188 92q3 2 31 29q23 21 31 21q7 -12 18 -28q18 -22 52 -22q18 0 29 15t21 29l14 -4q-1 -24 -30.5 -62t-51.5 -45q-26 -24 -72 -19
q-1 -1 -1 -3v-63q1 -39 1 -62zM358 412q7 14 52 37v137q-34 14 -51 41q0 -167 -1 -215zM215 836q9 34 35 34q12 0 27 -8l178 -99l-8 -16q-2 0 -95 21q-86 19 -95 19q-44 0 -44 35q0 7 2 14z" />
    <glyph glyph-name="Iacute" unicode="&#xcd;" horiz-adv-x="551" 
d="M501 372q-15 -16 -15 -40q0 -16 6.5 -48.5t6.5 -49.5q0 -55 -43 -89q-17 -14 -91 -50q-59 -30 -82 -61l10 -1q23 10 52 10q10 0 31.5 -1.5t31.5 -1.5q53 0 69 37q-3 24 -17 24q-5 0 -10 -4l-7 -11h-9q-6 5 -6 11q0 10 11 16.5t22 6.5q32 0 32 -42q0 -28 -24.5 -42
t-53.5 -12q78 -38 78 -129q0 -57 -41.5 -104t-97.5 -47q-50 0 -101 38t-63 38q-34 0 -34 -30q0 -15 16 -19q-6 -12 -22 -12q-30 0 -30 39q0 14 22 28t37 14q17 0 37 -12l32 -22q-3 8 -7 31q-15 6 -25 24t-9 35q-45 -45 -91 -45q-53 0 -89 40t-36 93q0 120 135 162q17 2 51 9
q21 6 39 23.5t18 38.5q0 34 -27 32l-9 -1q-17 -10 -17 -25q0 -10 8 -19l-14 -2l-9 23q0 16 13 28t28 12q19 0 32 -13t13 -32q0 -38 -44 -65q42 -6 67 -21q17 22 21 39q2 12 2 45q0 65 -14 98q-9 1 -17 1q-58 0 -85 -34q-2 11 -2 21q0 40 27 70t66 26q-1 9 -1 19q0 80 33 127
q-47 4 -97 42t-66 38q-25 0 -44 -20t-19 -46q0 -42 31.5 -67.5t73.5 -25.5q20 0 66 21l3 -10q-36 -30 -74 -30q-52 0 -86.5 34.5t-34.5 85.5q0 54 51 101.5t106 47.5q43 0 86 -41t70 -41q35 0 72 44l7 -6q-7 -29 -54 -75.5t-75 -50.5q-31 -70 -31 -124q0 -33 13.5 -98
t13.5 -98q0 -74 -29 -101q13 -1 39 -31q56 28 56 103q0 59 -19 116q-1 1 -18 27q-11 15 -27 19q23 13 23 66q0 74 42 126q42 48 85 97l5 8q5 0 12 -17q-24 -17 -39 -60q-13 -37 -13 -72q0 -53 16 -87q8 -18 22.5 -28.5t28.5 -20.5zM392 15l-12 -3q5 -7 5 -18q0 -37 -36 -37
q-16 0 -28 13q1 0 13 8q8 5 8 12q0 12 -36 32q-9 -1 -68 -32h-5q-14 28 -47.5 50t-64.5 22q-46 0 -75 -17q-36 -21 -36 -64q0 -42 31.5 -67.5t73.5 -25.5q26 0 52.5 15.5t26.5 39.5q0 15 -10.5 28.5t-24.5 13.5q-19 0 -31 -15t-12 -33q0 -6 1 -11q-7 -2 -10 -2
q-12 0 -21.5 10.5t-9.5 22.5q0 52 62 52q33 0 53 -18t20 -48q0 -9 -2 -18q13 30 32 45l4 -7q-23 -32 -23 -60q0 -30 21 -47q0 28 23.5 52.5t51.5 24.5q32 0 56 -14q29 -17 29 -47q0 -22 -12.5 -38t-34.5 -16q-9 0 -24 6.5t-16 14.5q13 16 26 22q-6 11 -13 21.5t-21 10.5
t-32 -17.5t-18 -31.5q0 -36 27.5 -60.5t63.5 -24.5q54 0 90.5 41.5t36.5 95.5q0 91 -84 119zM395 836q-9 34 -34 34q-13 0 -27 -8l-179 -99l9 -16q2 0 95 21q86 19 94 19q44 0 44 35q0 7 -2 14z" />
    <glyph glyph-name="Icircumflex" unicode="&#xce;" horiz-adv-x="551" 
d="M501 372q-15 -16 -15 -40q0 -16 6.5 -48.5t6.5 -49.5q0 -55 -43 -89q-17 -14 -91 -50q-59 -30 -82 -61l10 -1q23 10 52 10q10 0 31.5 -1.5t31.5 -1.5q53 0 69 37q-3 24 -17 24q-5 0 -10 -4l-7 -11h-9q-6 5 -6 11q0 10 11 16.5t22 6.5q32 0 32 -42q0 -28 -24.5 -42
t-53.5 -12q78 -38 78 -129q0 -57 -41.5 -104t-97.5 -47q-50 0 -101 38t-63 38q-34 0 -34 -30q0 -15 16 -19q-6 -12 -22 -12q-30 0 -30 39q0 14 22 28t37 14q17 0 37 -12l32 -22q-3 8 -7 31q-15 6 -25 24t-9 35q-45 -45 -91 -45q-53 0 -89 40t-36 93q0 120 135 162q17 2 51 9
q21 6 39 23.5t18 38.5q0 34 -27 32l-9 -1q-17 -10 -17 -25q0 -10 8 -19l-14 -2l-9 23q0 16 13 28t28 12q19 0 32 -13t13 -32q0 -38 -44 -65q42 -6 67 -21q17 22 21 39q2 12 2 45q0 65 -14 98q-9 1 -17 1q-58 0 -85 -34q-2 11 -2 21q0 40 27 70t66 26q-1 9 -1 19q0 80 33 127
q-47 4 -97 42t-66 38q-25 0 -44 -20t-19 -46q0 -42 31.5 -67.5t73.5 -25.5q20 0 66 21l3 -10q-36 -30 -74 -30q-52 0 -86.5 34.5t-34.5 85.5q0 54 51 101.5t106 47.5q43 0 86 -41t70 -41q35 0 72 44l7 -6q-7 -29 -54 -75.5t-75 -50.5q-31 -70 -31 -124q0 -33 13.5 -98
t13.5 -98q0 -74 -29 -101q13 -1 39 -31q56 28 56 103q0 59 -19 116q-1 1 -18 27q-11 15 -27 19q23 13 23 66q0 74 42 126q42 48 85 97l5 8q5 0 12 -17q-24 -17 -39 -60q-13 -37 -13 -72q0 -53 16 -87q8 -18 22.5 -28.5t28.5 -20.5zM392 15l-12 -3q5 -7 5 -18q0 -37 -36 -37
q-16 0 -28 13q1 0 13 8q8 5 8 12q0 12 -36 32q-9 -1 -68 -32h-5q-14 28 -47.5 50t-64.5 22q-46 0 -75 -17q-36 -21 -36 -64q0 -42 31.5 -67.5t73.5 -25.5q26 0 52.5 15.5t26.5 39.5q0 15 -10.5 28.5t-24.5 13.5q-19 0 -31 -15t-12 -33q0 -6 1 -11q-7 -2 -10 -2
q-12 0 -21.5 10.5t-9.5 22.5q0 52 62 52q33 0 53 -18t20 -48q0 -9 -2 -18q13 30 32 45l4 -7q-23 -32 -23 -60q0 -30 21 -47q0 28 23.5 52.5t51.5 24.5q32 0 56 -14q29 -17 29 -47q0 -22 -12.5 -38t-34.5 -16q-9 0 -24 6.5t-16 14.5q13 16 26 22q-6 11 -13 21.5t-21 10.5
t-32 -17.5t-18 -31.5q0 -36 27.5 -60.5t63.5 -24.5q54 0 90.5 41.5t36.5 95.5q0 91 -84 119zM130 742l-2 7l149 125l159 -127l-3 -8l-158 66z" />
    <glyph glyph-name="Idieresis" unicode="&#xcf;" horiz-adv-x="551" 
d="M501 372q-15 -16 -15 -40q0 -16 6.5 -48.5t6.5 -49.5q0 -55 -43 -89q-17 -14 -91 -50q-59 -30 -82 -61l10 -1q23 10 52 10q10 0 31.5 -1.5t31.5 -1.5q53 0 69 37q-3 24 -17 24q-5 0 -10 -4l-7 -11h-9q-6 5 -6 11q0 10 11 16.5t22 6.5q32 0 32 -42q0 -28 -24.5 -42
t-53.5 -12q78 -38 78 -129q0 -57 -41.5 -104t-97.5 -47q-50 0 -101 38t-63 38q-34 0 -34 -30q0 -15 16 -19q-6 -12 -22 -12q-30 0 -30 39q0 14 22 28t37 14q17 0 37 -12l32 -22q-3 8 -7 31q-15 6 -25 24t-9 35q-45 -45 -91 -45q-53 0 -89 40t-36 93q0 120 135 162q17 2 51 9
q21 6 39 23.5t18 38.5q0 34 -27 32l-9 -1q-17 -10 -17 -25q0 -10 8 -19l-14 -2l-9 23q0 16 13 28t28 12q19 0 32 -13t13 -32q0 -38 -44 -65q42 -6 67 -21q17 22 21 39q2 12 2 45q0 65 -14 98q-9 1 -17 1q-58 0 -85 -34q-2 11 -2 21q0 40 27 70t66 26q-1 9 -1 19q0 80 33 127
q-47 4 -97 42t-66 38q-25 0 -44 -20t-19 -46q0 -42 31.5 -67.5t73.5 -25.5q20 0 66 21l3 -10q-36 -30 -74 -30q-52 0 -86.5 34.5t-34.5 85.5q0 54 51 101.5t106 47.5q43 0 86 -41t70 -41q35 0 72 44l7 -6q-7 -29 -54 -75.5t-75 -50.5q-31 -70 -31 -124q0 -33 13.5 -98
t13.5 -98q0 -74 -29 -101q13 -1 39 -31q56 28 56 103q0 59 -19 116q-1 1 -18 27q-11 15 -27 19q23 13 23 66q0 74 42 126q42 48 85 97l5 8q5 0 12 -17q-24 -17 -39 -60q-13 -37 -13 -72q0 -53 16 -87q8 -18 22.5 -28.5t28.5 -20.5zM392 15l-12 -3q5 -7 5 -18q0 -37 -36 -37
q-16 0 -28 13q1 0 13 8q8 5 8 12q0 12 -36 32q-9 -1 -68 -32h-5q-14 28 -47.5 50t-64.5 22q-46 0 -75 -17q-36 -21 -36 -64q0 -42 31.5 -67.5t73.5 -25.5q26 0 52.5 15.5t26.5 39.5q0 15 -10.5 28.5t-24.5 13.5q-19 0 -31 -15t-12 -33q0 -6 1 -11q-7 -2 -10 -2
q-12 0 -21.5 10.5t-9.5 22.5q0 52 62 52q33 0 53 -18t20 -48q0 -9 -2 -18q13 30 32 45l4 -7q-23 -32 -23 -60q0 -30 21 -47q0 28 23.5 52.5t51.5 24.5q32 0 56 -14q29 -17 29 -47q0 -22 -12.5 -38t-34.5 -16q-9 0 -24 6.5t-16 14.5q13 16 26 22q-6 11 -13 21.5t-21 10.5
t-32 -17.5t-18 -31.5q0 -36 27.5 -60.5t63.5 -24.5q54 0 90.5 41.5t36.5 95.5q0 91 -84 119zM316 808q0 21 14.5 36.5t35.5 15.5q22 0 37 -15t15 -37q0 -21 -15 -36.5t-37 -15.5q-20 0 -35 15.5t-15 36.5zM139 808q0 21 14.5 36.5t35.5 15.5q22 0 37 -15t15 -37
q0 -21 -15 -36.5t-37 -15.5q-20 0 -35 15.5t-15 36.5z" />
    <glyph glyph-name="Igrave" unicode="&#xcc;" horiz-adv-x="551" 
d="M501 372q-15 -16 -15 -40q0 -16 6.5 -48.5t6.5 -49.5q0 -55 -43 -89q-17 -14 -91 -50q-59 -30 -82 -61l10 -1q23 10 52 10q10 0 31.5 -1.5t31.5 -1.5q53 0 69 37q-3 24 -17 24q-5 0 -10 -4l-7 -11h-9q-6 5 -6 11q0 10 11 16.5t22 6.5q32 0 32 -42q0 -28 -24.5 -42
t-53.5 -12q78 -38 78 -129q0 -57 -41.5 -104t-97.5 -47q-50 0 -101 38t-63 38q-34 0 -34 -30q0 -15 16 -19q-6 -12 -22 -12q-30 0 -30 39q0 14 22 28t37 14q17 0 37 -12l32 -22q-3 8 -7 31q-15 6 -25 24t-9 35q-45 -45 -91 -45q-53 0 -89 40t-36 93q0 120 135 162q17 2 51 9
q21 6 39 23.5t18 38.5q0 34 -27 32l-9 -1q-17 -10 -17 -25q0 -10 8 -19l-14 -2l-9 23q0 16 13 28t28 12q19 0 32 -13t13 -32q0 -38 -44 -65q42 -6 67 -21q17 22 21 39q2 12 2 45q0 65 -14 98q-9 1 -17 1q-58 0 -85 -34q-2 11 -2 21q0 40 27 70t66 26q-1 9 -1 19q0 80 33 127
q-47 4 -97 42t-66 38q-25 0 -44 -20t-19 -46q0 -42 31.5 -67.5t73.5 -25.5q20 0 66 21l3 -10q-36 -30 -74 -30q-52 0 -86.5 34.5t-34.5 85.5q0 54 51 101.5t106 47.5q43 0 86 -41t70 -41q35 0 72 44l7 -6q-7 -29 -54 -75.5t-75 -50.5q-31 -70 -31 -124q0 -33 13.5 -98
t13.5 -98q0 -74 -29 -101q13 -1 39 -31q56 28 56 103q0 59 -19 116q-1 1 -18 27q-11 15 -27 19q23 13 23 66q0 74 42 126q42 48 85 97l5 8q5 0 12 -17q-24 -17 -39 -60q-13 -37 -13 -72q0 -53 16 -87q8 -18 22.5 -28.5t28.5 -20.5zM392 15l-12 -3q5 -7 5 -18q0 -37 -36 -37
q-16 0 -28 13q1 0 13 8q8 5 8 12q0 12 -36 32q-9 -1 -68 -32h-5q-14 28 -47.5 50t-64.5 22q-46 0 -75 -17q-36 -21 -36 -64q0 -42 31.5 -67.5t73.5 -25.5q26 0 52.5 15.5t26.5 39.5q0 15 -10.5 28.5t-24.5 13.5q-19 0 -31 -15t-12 -33q0 -6 1 -11q-7 -2 -10 -2
q-12 0 -21.5 10.5t-9.5 22.5q0 52 62 52q33 0 53 -18t20 -48q0 -9 -2 -18q13 30 32 45l4 -7q-23 -32 -23 -60q0 -30 21 -47q0 28 23.5 52.5t51.5 24.5q32 0 56 -14q29 -17 29 -47q0 -22 -12.5 -38t-34.5 -16q-9 0 -24 6.5t-16 14.5q13 16 26 22q-6 11 -13 21.5t-21 10.5
t-32 -17.5t-18 -31.5q0 -36 27.5 -60.5t63.5 -24.5q54 0 90.5 41.5t36.5 95.5q0 91 -84 119zM175 836q9 34 35 34q12 0 27 -8l178 -99l-8 -16q-2 0 -95 21q-86 19 -95 19q-44 0 -44 35q0 7 2 14z" />
    <glyph glyph-name="Oacute" unicode="&#xd3;" horiz-adv-x="735" 
d="M191 39q9 -54 46 -114q44 -71 88 -71q17 0 37 23q15 -21 15 -40t-14 -38q17 -24 74 -24q181 0 181 121l-3 2q1 6 1 11q0 17 -16.5 40t-33.5 25q-7 -67 -17 -92q-20 -53 -67 -53q-41 0 -68 22t-24 63q-25 -5 -39 -5q-54 0 -54 30t43 28q-7 -11 -7 -18q0 -16 34 -23l23 7
q25 69 131 69q17 0 31 -2q4 32 37.5 60t67.5 28q24 0 41.5 -16t17.5 -40q0 -20 -14 -40t-33 -20q-32 0 -32 33q0 17 10 25q-1 -8 6 -15.5t14 -7.5q27 0 28 32q-17 30 -42 30q-24 0 -52 -23t-29 -48q57 -30 65 -79q19 5 26 5q20 0 39 -17t19 -37q0 -24 -8 -28q-9 15 -21 15
q-9 0 -41 -31q-35 -33 -94 -53q-53 -18 -107 -18q-127 0 -214 135q-9 18 -30 52q1 -22 1 -28q0 -54 -30 -87q-32 -36 -84 -36q-43 0 -71 23.5t-28 64.5q0 30 23 54t53 24q25 0 44 -18.5t19 -42.5q0 -21 -15.5 -35t-37.5 -14q-30 0 -30 29q0 8 3 13q9 -6 17 -6q18 0 18 20
q0 25 -29 30q-43 -15 -43 -57q0 -31 21 -48.5t53 -17.5q45 0 73.5 34.5t28.5 80.5q0 48 -21 83q-18 -23 -22 -26q-12 -10 -33 -10q-19 0 -35.5 15t-16.5 34q0 18 12 18q-1 0 9 -11t25 -11t31 8q20 9 20 23t-5 22q-13 16 -38 47q-71 101 -84 199q-2 22 -14 34q-20 20 -24 26
q32 14 43 57q21 84 108 173q80 80 167 121l4 -17q-65 -52 -111 -134q29 9 123 62q89 51 121 74q11 8 31 29q155 -147 186 -278q8 -34 18 -46q7 -7 42 -29q-16 -17 -30.5 -34t-18.5 -45q-21 -153 -91 -229q-79 -86 -228 -86q-43 0 -89 11q-56 12 -80 34zM549 -19h-7
q-4 -1 -13 0.5t-13 1.5q-66 0 -66 -57q0 -26 21 -26q18 0 19 14q0 14 -1 28q17 0 27 -19q7 -16 15 -32q14 33 18 90zM637 5q0 17 10 25q-1 -8 6 -15.5t14 -7.5q26 0 28 32q-10 18 -16 22q-8 8 -26 8q-24 0 -52 -23t-29 -48zM521 2q17 0 31 -2q4 32 37.5 60t67.5 28
q24 0 41.5 -16t17.5 -40zM562 273q0 41 -11 63q-13 27 -49 41q37 11 37 52q0 23 -29 75.5t-48 63.5v-522q52 19 79 97q21 60 21 130zM441 591q-25 35 -53 53l-1 -211q0 -24 10 -36q7 -10 30 -23q-40 -29 -40 -82v-23q1 -15 1 -24q0 -37 -73 -67q-53 -19 -105 -37
q33 -42 51 -57q33 -28 68 -28q28 0 55 19.5t27 45.5q0 10 -6.5 20.5t-15.5 10.5q-33 0 -33 -25t18 -26q-9 -4 -19 -4q-5 0 -9.5 11t-4.5 16q0 44 44 44q42 0 42 -50q0 -54 -90 -77q29 -16 69 -16q11 0 35 10v556zM262 433v106q0 22 -1 38q-23 -12 -71 -33q-29 -82 -29 -112
q0 -22 8 -40q10 -22 30 -21q-36 -19 -36 -55q0 -25 13 -85q14 -69 25 -69q12 0 57 27v118q0 29 -7 42t-32 23h2q23 14 32 25.5t9 35.5zM495 836q-9 34 -34 34q-13 0 -27 -8l-179 -99l9 -16q2 0 95 21q86 19 94 19q44 0 44 35q0 7 -2 14z" />
    <glyph glyph-name="Ocircumflex" unicode="&#xd4;" horiz-adv-x="735" 
d="M191 39q9 -54 46 -114q44 -71 88 -71q17 0 37 23q15 -21 15 -40t-14 -38q17 -24 74 -24q181 0 181 121l-3 2q1 6 1 11q0 17 -16.5 40t-33.5 25q-7 -67 -17 -92q-20 -53 -67 -53q-41 0 -68 22t-24 63q-25 -5 -39 -5q-54 0 -54 30t43 28q-7 -11 -7 -18q0 -16 34 -23l23 7
q25 69 131 69q17 0 31 -2q4 32 37.5 60t67.5 28q24 0 41.5 -16t17.5 -40q0 -20 -14 -40t-33 -20q-32 0 -32 33q0 17 10 25q-1 -8 6 -15.5t14 -7.5q27 0 28 32q-17 30 -42 30q-24 0 -52 -23t-29 -48q57 -30 65 -79q19 5 26 5q20 0 39 -17t19 -37q0 -24 -8 -28q-9 15 -21 15
q-9 0 -41 -31q-35 -33 -94 -53q-53 -18 -107 -18q-127 0 -214 135q-9 18 -30 52q1 -22 1 -28q0 -54 -30 -87q-32 -36 -84 -36q-43 0 -71 23.5t-28 64.5q0 30 23 54t53 24q25 0 44 -18.5t19 -42.5q0 -21 -15.5 -35t-37.5 -14q-30 0 -30 29q0 8 3 13q9 -6 17 -6q18 0 18 20
q0 25 -29 30q-43 -15 -43 -57q0 -31 21 -48.5t53 -17.5q45 0 73.5 34.5t28.5 80.5q0 48 -21 83q-18 -23 -22 -26q-12 -10 -33 -10q-19 0 -35.5 15t-16.5 34q0 18 12 18q-1 0 9 -11t25 -11t31 8q20 9 20 23t-5 22q-13 16 -38 47q-71 101 -84 199q-2 22 -14 34q-20 20 -24 26
q32 14 43 57q21 84 108 173q80 80 167 121l4 -17q-65 -52 -111 -134q29 9 123 62q89 51 121 74q11 8 31 29q155 -147 186 -278q8 -34 18 -46q7 -7 42 -29q-16 -17 -30.5 -34t-18.5 -45q-21 -153 -91 -229q-79 -86 -228 -86q-43 0 -89 11q-56 12 -80 34zM549 -19h-7
q-4 -1 -13 0.5t-13 1.5q-66 0 -66 -57q0 -26 21 -26q18 0 19 14q0 14 -1 28q17 0 27 -19q7 -16 15 -32q14 33 18 90zM637 5q0 17 10 25q-1 -8 6 -15.5t14 -7.5q26 0 28 32q-10 18 -16 22q-8 8 -26 8q-24 0 -52 -23t-29 -48zM521 2q17 0 31 -2q4 32 37.5 60t67.5 28
q24 0 41.5 -16t17.5 -40zM562 273q0 41 -11 63q-13 27 -49 41q37 11 37 52q0 23 -29 75.5t-48 63.5v-522q52 19 79 97q21 60 21 130zM441 591q-25 35 -53 53l-1 -211q0 -24 10 -36q7 -10 30 -23q-40 -29 -40 -82v-23q1 -15 1 -24q0 -37 -73 -67q-53 -19 -105 -37
q33 -42 51 -57q33 -28 68 -28q28 0 55 19.5t27 45.5q0 10 -6.5 20.5t-15.5 10.5q-33 0 -33 -25t18 -26q-9 -4 -19 -4q-5 0 -9.5 11t-4.5 16q0 44 44 44q42 0 42 -50q0 -54 -90 -77q29 -16 69 -16q11 0 35 10v556zM262 433v106q0 22 -1 38q-23 -12 -71 -33q-29 -82 -29 -112
q0 -22 8 -40q10 -22 30 -21q-36 -19 -36 -55q0 -25 13 -85q14 -69 25 -69q12 0 57 27v118q0 29 -7 42t-32 23h2q23 14 32 25.5t9 35.5zM210 752l-2 7l149 125l159 -127l-3 -8l-158 66z" />
    <glyph glyph-name="Ograve" unicode="&#xd2;" horiz-adv-x="735" 
d="M191 39q9 -54 46 -114q44 -71 88 -71q17 0 37 23q15 -21 15 -40t-14 -38q17 -24 74 -24q181 0 181 121l-3 2q1 6 1 11q0 17 -16.5 40t-33.5 25q-7 -67 -17 -92q-20 -53 -67 -53q-41 0 -68 22t-24 63q-25 -5 -39 -5q-54 0 -54 30t43 28q-7 -11 -7 -18q0 -16 34 -23l23 7
q25 69 131 69q17 0 31 -2q4 32 37.5 60t67.5 28q24 0 41.5 -16t17.5 -40q0 -20 -14 -40t-33 -20q-32 0 -32 33q0 17 10 25q-1 -8 6 -15.5t14 -7.5q27 0 28 32q-17 30 -42 30q-24 0 -52 -23t-29 -48q57 -30 65 -79q19 5 26 5q20 0 39 -17t19 -37q0 -24 -8 -28q-9 15 -21 15
q-9 0 -41 -31q-35 -33 -94 -53q-53 -18 -107 -18q-127 0 -214 135q-9 18 -30 52q1 -22 1 -28q0 -54 -30 -87q-32 -36 -84 -36q-43 0 -71 23.5t-28 64.5q0 30 23 54t53 24q25 0 44 -18.5t19 -42.5q0 -21 -15.5 -35t-37.5 -14q-30 0 -30 29q0 8 3 13q9 -6 17 -6q18 0 18 20
q0 25 -29 30q-43 -15 -43 -57q0 -31 21 -48.5t53 -17.5q45 0 73.5 34.5t28.5 80.5q0 48 -21 83q-18 -23 -22 -26q-12 -10 -33 -10q-19 0 -35.5 15t-16.5 34q0 18 12 18q-1 0 9 -11t25 -11t31 8q20 9 20 23t-5 22q-13 16 -38 47q-71 101 -84 199q-2 22 -14 34q-20 20 -24 26
q32 14 43 57q21 84 108 173q80 80 167 121l4 -17q-65 -52 -111 -134q29 9 123 62q89 51 121 74q11 8 31 29q155 -147 186 -278q8 -34 18 -46q7 -7 42 -29q-16 -17 -30.5 -34t-18.5 -45q-21 -153 -91 -229q-79 -86 -228 -86q-43 0 -89 11q-56 12 -80 34zM549 -19h-7
q-4 -1 -13 0.5t-13 1.5q-66 0 -66 -57q0 -26 21 -26q18 0 19 14q0 14 -1 28q17 0 27 -19q7 -16 15 -32q14 33 18 90zM637 5q0 17 10 25q-1 -8 6 -15.5t14 -7.5q26 0 28 32q-10 18 -16 22q-8 8 -26 8q-24 0 -52 -23t-29 -48zM521 2q17 0 31 -2q4 32 37.5 60t67.5 28
q24 0 41.5 -16t17.5 -40zM562 273q0 41 -11 63q-13 27 -49 41q37 11 37 52q0 23 -29 75.5t-48 63.5v-522q52 19 79 97q21 60 21 130zM441 591q-25 35 -53 53l-1 -211q0 -24 10 -36q7 -10 30 -23q-40 -29 -40 -82v-23q1 -15 1 -24q0 -37 -73 -67q-53 -19 -105 -37
q33 -42 51 -57q33 -28 68 -28q28 0 55 19.5t27 45.5q0 10 -6.5 20.5t-15.5 10.5q-33 0 -33 -25t18 -26q-9 -4 -19 -4q-5 0 -9.5 11t-4.5 16q0 44 44 44q42 0 42 -50q0 -54 -90 -77q29 -16 69 -16q11 0 35 10v556zM262 433v106q0 22 -1 38q-23 -12 -71 -33q-29 -82 -29 -112
q0 -22 8 -40q10 -22 30 -21q-36 -19 -36 -55q0 -25 13 -85q14 -69 25 -69q12 0 57 27v118q0 29 -7 42t-32 23h2q23 14 32 25.5t9 35.5zM225 846q9 34 35 34q12 0 27 -8l178 -99l-8 -16q-2 0 -95 21q-86 19 -95 19q-44 0 -44 35q0 7 2 14z" />
    <glyph glyph-name="Uacute" unicode="&#xda;" horiz-adv-x="663" 
d="M639 121q0 -21 -126 -144q70 0 101 -43q21 -29 21 -68q0 -100 -135 -128q-41 -9 -52 -9q-89 0 -147 55q-1 1 -2 4t-4 3q1 0 -32 -12.5t-54 -11.5q-62 4 -98 18q-48 18 -78 62q-4 7 -11 27t-7 28q0 37 23 63t59 26q21 0 40 -23.5t19 -44.5q0 -46 -53 -46q-24 0 -36 18
q2 1 21 7q13 4 13 16q0 9 -7 18.5t-16 9.5q-39 0 -39 -50q0 -44 65 -86l12 30q14 20 49 17q0 -4 -6 -18t-6 -20q0 -32 57 -32q39 0 67 19q-37 43 -59 86q-7 26 -27 78q-49 92 -95 110q-9 5 -24 14q51 9 50 64v167q-14 4 -29 4q-57 0 -67 -61l-5 1q-2 40 -1 45q11 54 29 76
q23 28 73 27q3 51 -2 146q-2 12 -29.5 37.5t-27.5 56.5q0 74 85 122q4 2 12 -5q-27 -22 -27 -39q0 -8 6 -18t7 -13q53 -39 62 -47q31 -31 30 -69q-3 -43 0 -171q0 -25 37 -43v-2q-10 -2 -22 -16.5t-12 -24.5q0 -64 1 -192l54 -47q3 44 3 614q0 6 23 2v-599l85 80q2 97 0 129
q-2 27 -14 40q-1 1 -26 16q14 3 26.5 20.5t8.5 26.5q-1 46 0 134q2 43 63.5 101.5t106.5 63.5q2 -1 5 -3q-2 -14 -2 -10q-17 -17 -32.5 -33t-15.5 -41v-209q5 -38 42 -50q-42 -30 -42 -51v-179q0 -10 25 -31.5t31 -21.5q4 0 22 20.5t21 20.5q13 0 13 -11zM492 -12
q-35 33 -69 57q-4 3 -11.5 17.5t-6.5 20.5q2 28 0 75q-41 -41 -75 -74q-82 -79 -117 -103v-11q5 -4 28 -57q17 -37 48 -37q8 0 22.5 3.5t20.5 3.5q23 0 24 -40l16 14q21 17 46 50q-15 -2 -28 -2q-86 0 -86 66q0 26 14.5 47t33.5 21q10 0 9 -6q-36 -36 -36 -56q0 -10 10 -22
t20 -12q14 0 32.5 21.5t43.5 21.5q5 0 17.5 -6t18.5 -6q14 0 20 2.5l6 2.5q1 1 -1 9zM616 -127q0 32 -24 56t-56 24q-20 0 -33.5 -13t-13.5 -32q0 -9 10.5 -19t19.5 -10q12 0 16 11l5 21l5 4q13 -16 13 -31q0 -23 -19 -39t-43 -16q-39 0 -63 75q-12 -19 -38 -52
q-13 -14 -36.5 -29t-29 -18.5t-11.5 -8.5q6 -7 17 -16q63 -18 83 -18h12q8 -1 11 -1q18 0 25 30q0 9 5 19q30 -3 30 -54q0 -1 3.5 1t3.5 1q37 4 72.5 37.5t35.5 77.5zM465 846q-9 34 -34 34q-13 0 -27 -8l-179 -99l9 -16q2 0 95 21q86 19 94 19q44 0 44 35q0 7 -2 14z" />
    <glyph glyph-name="Ucircumflex" unicode="&#xdb;" horiz-adv-x="663" 
d="M639 121q0 -21 -126 -144q70 0 101 -43q21 -29 21 -68q0 -100 -135 -128q-41 -9 -52 -9q-89 0 -147 55q-1 1 -2 4t-4 3q1 0 -32 -12.5t-54 -11.5q-62 4 -98 18q-48 18 -78 62q-4 7 -11 27t-7 28q0 37 23 63t59 26q21 0 40 -23.5t19 -44.5q0 -46 -53 -46q-24 0 -36 18
q2 1 21 7q13 4 13 16q0 9 -7 18.5t-16 9.5q-39 0 -39 -50q0 -44 65 -86l12 30q14 20 49 17q0 -4 -6 -18t-6 -20q0 -32 57 -32q39 0 67 19q-37 43 -59 86q-7 26 -27 78q-49 92 -95 110q-9 5 -24 14q51 9 50 64v167q-14 4 -29 4q-57 0 -67 -61l-5 1q-2 40 -1 45q11 54 29 76
q23 28 73 27q3 51 -2 146q-2 12 -29.5 37.5t-27.5 56.5q0 74 85 122q4 2 12 -5q-27 -22 -27 -39q0 -8 6 -18t7 -13q53 -39 62 -47q31 -31 30 -69q-3 -43 0 -171q0 -25 37 -43v-2q-10 -2 -22 -16.5t-12 -24.5q0 -64 1 -192l54 -47q3 44 3 614q0 6 23 2v-599l85 80q2 97 0 129
q-2 27 -14 40q-1 1 -26 16q14 3 26.5 20.5t8.5 26.5q-1 46 0 134q2 43 63.5 101.5t106.5 63.5q2 -1 5 -3q-2 -14 -2 -10q-17 -17 -32.5 -33t-15.5 -41v-209q5 -38 42 -50q-42 -30 -42 -51v-179q0 -10 25 -31.5t31 -21.5q4 0 22 20.5t21 20.5q13 0 13 -11zM492 -12
q-35 33 -69 57q-4 3 -11.5 17.5t-6.5 20.5q2 28 0 75q-41 -41 -75 -74q-82 -79 -117 -103v-11q5 -4 28 -57q17 -37 48 -37q8 0 22.5 3.5t20.5 3.5q23 0 24 -40l16 14q21 17 46 50q-15 -2 -28 -2q-86 0 -86 66q0 26 14.5 47t33.5 21q10 0 9 -6q-36 -36 -36 -56q0 -10 10 -22
t20 -12q14 0 32.5 21.5t43.5 21.5q5 0 17.5 -6t18.5 -6q14 0 20 2.5l6 2.5q1 1 -1 9zM616 -127q0 32 -24 56t-56 24q-20 0 -33.5 -13t-13.5 -32q0 -9 10.5 -19t19.5 -10q12 0 16 11l5 21l5 4q13 -16 13 -31q0 -23 -19 -39t-43 -16q-39 0 -63 75q-12 -19 -38 -52
q-13 -14 -36.5 -29t-29 -18.5t-11.5 -8.5q6 -7 17 -16q63 -18 83 -18h12q8 -1 11 -1q18 0 25 30q0 9 5 19q30 -3 30 -54q0 -1 3.5 1t3.5 1q37 4 72.5 37.5t35.5 77.5zM190 742l-2 7l149 125l159 -127l-3 -8l-158 66z" />
    <glyph glyph-name="Ugrave" unicode="&#xd9;" horiz-adv-x="663" 
d="M639 121q0 -21 -126 -144q70 0 101 -43q21 -29 21 -68q0 -100 -135 -128q-41 -9 -52 -9q-89 0 -147 55q-1 1 -2 4t-4 3q1 0 -32 -12.5t-54 -11.5q-62 4 -98 18q-48 18 -78 62q-4 7 -11 27t-7 28q0 37 23 63t59 26q21 0 40 -23.5t19 -44.5q0 -46 -53 -46q-24 0 -36 18
q2 1 21 7q13 4 13 16q0 9 -7 18.5t-16 9.5q-39 0 -39 -50q0 -44 65 -86l12 30q14 20 49 17q0 -4 -6 -18t-6 -20q0 -32 57 -32q39 0 67 19q-37 43 -59 86q-7 26 -27 78q-49 92 -95 110q-9 5 -24 14q51 9 50 64v167q-14 4 -29 4q-57 0 -67 -61l-5 1q-2 40 -1 45q11 54 29 76
q23 28 73 27q3 51 -2 146q-2 12 -29.5 37.5t-27.5 56.5q0 74 85 122q4 2 12 -5q-27 -22 -27 -39q0 -8 6 -18t7 -13q53 -39 62 -47q31 -31 30 -69q-3 -43 0 -171q0 -25 37 -43v-2q-10 -2 -22 -16.5t-12 -24.5q0 -64 1 -192l54 -47q3 44 3 614q0 6 23 2v-599l85 80q2 97 0 129
q-2 27 -14 40q-1 1 -26 16q14 3 26.5 20.5t8.5 26.5q-1 46 0 134q2 43 63.5 101.5t106.5 63.5q2 -1 5 -3q-2 -14 -2 -10q-17 -17 -32.5 -33t-15.5 -41v-209q5 -38 42 -50q-42 -30 -42 -51v-179q0 -10 25 -31.5t31 -21.5q4 0 22 20.5t21 20.5q13 0 13 -11zM492 -12
q-35 33 -69 57q-4 3 -11.5 17.5t-6.5 20.5q2 28 0 75q-41 -41 -75 -74q-82 -79 -117 -103v-11q5 -4 28 -57q17 -37 48 -37q8 0 22.5 3.5t20.5 3.5q23 0 24 -40l16 14q21 17 46 50q-15 -2 -28 -2q-86 0 -86 66q0 26 14.5 47t33.5 21q10 0 9 -6q-36 -36 -36 -56q0 -10 10 -22
t20 -12q14 0 32.5 21.5t43.5 21.5q5 0 17.5 -6t18.5 -6q14 0 20 2.5l6 2.5q1 1 -1 9zM616 -127q0 32 -24 56t-56 24q-20 0 -33.5 -13t-13.5 -32q0 -9 10.5 -19t19.5 -10q12 0 16 11l5 21l5 4q13 -16 13 -31q0 -23 -19 -39t-43 -16q-39 0 -63 75q-12 -19 -38 -52
q-13 -14 -36.5 -29t-29 -18.5t-11.5 -8.5q6 -7 17 -16q63 -18 83 -18h12q8 -1 11 -1q18 0 25 30q0 9 5 19q30 -3 30 -54q0 -1 3.5 1t3.5 1q37 4 72.5 37.5t35.5 77.5zM215 836q9 34 35 34q12 0 27 -8l178 -99l-8 -16q-2 0 -95 21q-86 19 -95 19q-44 0 -44 35q0 7 2 14z" />
    <glyph glyph-name="circumflex" unicode="&#x2c6;" horiz-adv-x="335" 
d="M51 515l-2 6l119 100l128 -102l-3 -6l-122 50z" />
    <glyph glyph-name="tilde" unicode="&#x2dc;" horiz-adv-x="425" 
d="M82 517q6 30 36 48q27 17 60 17q13 0 37 -11.5t39 -11.5q13 0 36 6.5t32 13.5q-30 -65 -102 -65q-13 0 -35.5 10.5t-33.5 10.5q-51 0 -69 -18z" />
    <glyph glyph-name="macron" unicode="&#xaf;" horiz-adv-x="305" 
d="M281 543l-253 -1v56l253 1v-56z" />
    <glyph glyph-name="macron" unicode="&#x2c9;" horiz-adv-x="305" 
d="M281 543l-253 -1v56l253 1v-56z" />
    <glyph glyph-name="cedilla" unicode="&#xb8;" horiz-adv-x="187" 
d="M97 -2l1 -44q26 7 45 7q37 0 45 -28q3 -10 3 -59q0 -25 9 -32q-16 5 -53 5q-31 0 -59 -35q-25 35 -50 35q-19 0 -23 -23l-8 2q2 23 19 37.5t40 14.5t43 -22l20 4q14 23 14 39q0 15 -14 34l-13 1q-22 2 -46 -12l1 79h24z" />
    <glyph glyph-name="Scaron" unicode="&#x160;" 
 />
    <glyph glyph-name="scaron" unicode="&#x161;" 
 />
    <glyph glyph-name="brokenbar" unicode="&#xa6;" 
 />
    <glyph glyph-name="Eth" unicode="&#xd0;" 
 />
    <glyph glyph-name="eth" unicode="&#xf0;" 
 />
    <glyph glyph-name="Yacute" unicode="&#xdd;" 
 />
    <glyph glyph-name="yacute" unicode="&#xfd;" 
 />
    <glyph glyph-name="Thorn" unicode="&#xde;" 
 />
    <glyph glyph-name="thorn" unicode="&#xfe;" 
 />
    <glyph glyph-name="minus" unicode="&#xad;" 
 />
    <glyph glyph-name="minus" unicode="&#x2212;" 
 />
    <glyph glyph-name="multiply" unicode="&#xd7;" 
 />
    <glyph glyph-name="onesuperior" unicode="&#xb9;" 
 />
    <glyph glyph-name="twosuperior" unicode="&#xb2;" 
 />
    <glyph glyph-name="threesuperior" unicode="&#xb3;" 
 />
    <glyph glyph-name="onehalf" unicode="&#xbd;" 
 />
    <glyph glyph-name="onequarter" unicode="&#xbc;" 
 />
    <glyph glyph-name="threequarters" unicode="&#xbe;" 
 />
    <glyph glyph-name=".null" 
 />
    <glyph glyph-name="Lslash" unicode="&#x141;" 
 />
    <glyph glyph-name="lslash" unicode="&#x142;" 
 />
    <glyph glyph-name="HT" 
 />
    <glyph glyph-name="LF" 
 />
    <glyph glyph-name="nonmarkingreturn" 
 />
    <glyph glyph-name="Zcaron" unicode="&#x17d;" 
 />
    <glyph glyph-name="zcaron" unicode="&#x17e;" 
 />
    <glyph glyph-name="DLE" 
 />
    <glyph glyph-name="DC1" 
 />
    <glyph glyph-name="DC2" 
 />
    <glyph glyph-name="DC3" 
 />
    <glyph glyph-name="DC4" 
 />
    <glyph glyph-name="RS" 
 />
    <glyph glyph-name="US" 
 />
    <glyph glyph-name="infinity" unicode="&#x221e;" 
 />
    <glyph glyph-name="lessequal" unicode="&#x2264;" 
 />
    <glyph glyph-name="greaterequal" unicode="&#x2265;" 
 />
    <glyph glyph-name="partialdiff" unicode="&#x2202;" horiz-adv-x="266" 
d="M-1 231l56 29l-1 372l108 83v-399l83 44v-46l-83 -43v-118q0 -44 48 -66l37 29l11 -13l-128 -115l-106 95q-1 -1 -2 2l2 -2q32 23 31 72v60l-56 -30v46z" />
    <glyph glyph-name="summation" unicode="&#x2211;" horiz-adv-x="602" 
d="M586 -98q0 -57 -38 -98.5t-95 -41.5q-72 0 -105 35q-21 21 -41 80q-21 65 -44 95l-4 -4q12 -25 12 -68q0 -53 -29 -94q-33 -46 -84 -46q-36 0 -63 24q-6 5 -40 45q-20 24 -38 24l-13 -17l9 -14l4 2l13 -8v-11l-13 -2q-11 0 -21.5 15t-10.5 28q0 7 12.5 14t20.5 7
q13 0 23 -7q13 -10 19 -12q9 24 40 49l35 8l21 -9q2 2 5 2q8 0 19.5 -15t11.5 -23q0 -44 -52 -44q-7 0 -12 7l17 29l-15 10q-11 0 -20.5 -12t-9.5 -23q0 -4 6 -20l-4 -10q9 -23 63 -23q41 0 70 40q27 36 27 78q0 5 -4 28q-4 -2 -18 -17q-10 -10 -20 -10t-22 8t-13 17l11 11
l16 -5l28 21l2 17q0 16 -7 37.5t-17 29.5q-15 -13 -32 -39q-23 -36 -28 -42h-10l-3 8q22 27 31 39q20 29 21 42l-53 53l-24 1l-17 -1q-9 -7 -30 -17q24 -3 48 -5q31 -7 31 -27l-29 -48q-4 0 -14 26.5t-36 26.5q-17 0 -34.5 -19t-17.5 -37q0 -4 5 -33q23 -28 39 -28
q12 0 30 6q25 7 30 8q3 -1 3 -5v-4q-57 -24 -58 -24q-35 0 -54 27q-17 24 -17 60q0 55 51 101q47 35 94 69q51 39 51 77q0 19 -36 42q-33 1 -33 -23q0 -11 9.5 -22t18.5 -21q-5 -1 -10 -3q-9 0 -23 16.5t-14 25.5q0 19 13.5 33t32.5 14q26 0 42.5 -20.5t16.5 -46.5
q0 -31 -27 -59q22 -8 59 -8h9q12 26 23.5 52t11.5 54q0 29 -58 56q-80 38 -106 61q-58 52 -58 142q0 73 56 128t129 55q79 0 132 -48q11 1 24 19.5t25 19.5l11 -13q-10 -10 -56 -68q-34 -42 -61 -62q-65 76 -130 76q-37 0 -65 -14q-36 -17 -36 -49q0 -60 67 -96
q56 -29 121 -29q27 0 47 44q37 80 39 83q29 44 77 44q33 0 57.5 -21.5t24.5 -54.5q0 -24 -20 -44t-44 -20q-66 0 -75 85q-39 -30 -39 -90q0 -20 52 -48q69 -38 96 -66q52 -52 52 -130q0 -46 -20 -76q-9 -16 -41.5 -46.5t-45.5 -56.5q22 -20 67 -41q40 -19 54 -36
q22 -27 22 -80zM495 196q0 44 -47 78q-43 32 -89 32q-21 0 -37 -11q-4 -3 -21.5 -53.5t-17.5 -58.5v-8q50 -24 69 -24q-1 5 -5 19t-4 22q0 19 17.5 40t35.5 21q20 0 35.5 -11.5t15.5 -31.5q0 -12 -13 -27.5t-26 -15.5q-10 0 -8 8q10 6 21.5 13t11.5 20q0 31 -32 31
q-17 0 -39 -26q0 -4 -2.5 -14t-2.5 -16q0 -17 32.5 -57t48.5 -40h4v1q19 11 20 24q12 10 22.5 38.5t10.5 46.5zM574 -100q0 40 -21 69q-23 34 -60 34l-9 -1l-4 -6l-9 2q-14 0 -30.5 -20.5t-16.5 -35.5q0 -8 6 -17.5t14 -9.5q25 0 25 16q0 8 -14 28l13 8q24 -9 32 -16
q12 -12 12 -34q0 -59 -79 -59q-36 27 -38 30q-12 14 -12 47q0 34 25 53t49 38l-27 22q-26 0 -53 -22q-21 -20 -43 -40q-48 61 -93 91h-7l-8 -19q6 -19 47 -67q4 1 9 2q12 0 9 -23q5 -6 15 -14q22 -66 36 -86q27 -39 79 -38q8 14 15 18q14 -16 14 -37q0 -15 -10 -26l6 -10
q50 1 89 37.5t39 85.5zM216 77q-10 28 -48 28h-9q2 -5 21 -18t24 -13q3 0 6.5 1.5t5.5 1.5zM443 873l3 -8l-152 -123l-157 126l4 7l152 -62z" />
    <glyph glyph-name="product" unicode="&#x220f;" horiz-adv-x="375" 
d="M288 402q-44 -20 -74 -20q-27 0 -44 14q-7 9 -14 17q-7 5 -17 -9v-104q1 -27 25 -27q13 0 26 15q51 58 98 114zM334 94q-56 -24 -135 -61q-19 -15 -57 -43q-16 18 -32 37q-19 21 -42 21q-25 0 -45 -15q-13 -9 -25 -33l-14 9l134 193q-13 10 -41 33q-13 10 -37 11l-2 151
q39 15 72 31q79 36 111 63q4 -17 22 -33q22 -19 45 -19q20 0 34 10q7 6 25 28q2 -2 7.5 -1t5.5 -2q0 -9 -112 -149l86 -55v-176zM237 81v142q-12 23 -39 23q-28 0 -35 -23l-93 -128q26 19 52 19q38 0 66.5 -24.5t25.5 -24.5zM313 620l2 -6l-122 -99l-125 101l3 6l122 -50z
" />
    <glyph glyph-name="pi" unicode="&#x3c0;" horiz-adv-x="606" 
d="M573 -175q0 -13 -5 -26q-28 -63 -135 -63q-25 0 -50 4q-8 1 -27.5 10.5t-21.5 9.5q-10 0 -16 -7q-11 -11 -15 -13q-29 -22 -59 -44q-42 -31 -61 -31q-18 0 -29 17q-9 14 -9 33q0 13 12.5 24.5t21.5 11.5q10 0 27.5 -8.5t14.5 -8.5q6 0 40 21q18 11 36 23q-17 10 -36 39
q-23 34 -32 71q-1 -1 -3 -4q-5 -55 -42 -90.5t-84 -35.5q-35 0 -67 26.5t-32 63.5q0 35 20.5 62.5t54.5 27.5q23 0 42.5 -19t19.5 -42q0 -19 -14.5 -33.5t-33.5 -14.5q-8 0 -16 3q9 8 9 18q0 20 -26 20q-20 0 -20 -25q0 -33 29 -53q21 -14 44 -14q42 0 73 41q28 38 28 82
q0 39 -20 84q-18 -45 -58 -45q-9 0 -20.5 9.5t-11.5 18.5q0 4 11.5 4t14.5 2q20 11 20 35q0 32 -61 71q-1 7 12 15q19 11 21 13q12 12 12 37l1 154q-5 1 -35 1t-39 -9q-12 -15 -23 -30l-2 -1q-6 4 -6 26q0 42 20 72q26 40 78 36v154q-17 15 -46 48q-15 26 -15 28q0 -1 0 36
q0 14 7.5 25.5t16 23t73.5 33.5q-14 -16 -14 -30q0 -21 30 -44q40 -29 47 -40q20 -27 18 -87q12 0 101 82t95 82q7 0 108 -96l1 -230q1 -17 18 -26l17 -9q0 -1 -2 -2q-27 -18 -31 -43l-1 -263q-2 -51 -5 -61q-6 -26 -35 -58q-59 -65 -103 -99q-19 -15 -57 -46q7 -5 29 -10
q14 -4 32 -4q52 0 89 19q26 13 26 34q0 15 -11 15q-3 0 -12 -7t-12 -7q-15 0 -15 24q0 47 52 47q21 0 34 -19.5t13 -38.5zM298 555l-49 -39v-134q1 -8 4 -15q7 -16 25 -23q-21 -8 -29 -23q-1 -7 -3 -13q-2 -155 1 -192q12 -8 41 -38l10 7v470zM429 -71l-2 308q0 17 -3 58
q-2 29 -39 45q40 17 39 41q-2 44 -1 171l-55 53l-49 -37l1 -467q26 28 31 28q7 0 7 -10l-128 -134q-13 4 -23 12l4 -21q0 -8 13 -26.5t20 -20.5q-6 3 -9 4v0q34 -14 58 -14q46 0 46 36q0 12 -8 20q-14 13 -16 16q7 8 25 8q20 0 37 -10q6 -4 13.5 -21t7.5 -26q0 -29 -23 -51
t-57 -22q-3 0 -14 2.5t-14 2.5q-20 0 -54 40q-1 -7 4.5 -17l5.5 -10q4 -23 24.5 -52.5t42.5 -46.5l72 62q45 41 44 79zM454 824q-10 34 -35 34q-12 0 -27 -8l-178 -99l8 -16q2 0 95 21q86 19 95 19q44 0 44 35q0 7 -2 14z" />
    <glyph glyph-name="integral" unicode="&#x222b;" horiz-adv-x="431" 
d="M282 200q-8 15 -31 36q18 14 23 21.5t7 28.5l1 82l-38 49l-62 -41q1 -122 1 -106q14 -24 40 -32q-18 -8 -24 -14q-13 -11 -16 -30v-74q2 -19 6 -26q6 -12 27 -23q-28 -17 -45 -35q-11 -14 -36 -53q-14 21 -29 41q-22 28 -57 43l26 22q10 11 10 35l2 75q-11 28 -35 39
q15 4 33 39l1 87l-36 39l-32 -27l-12 16l106 100l70 -64v-28l126 96l71 -75l2 -135q5 -11 10 -20q13 -21 24 -24q-28 -13 -37 -37l3 -84q0 -28 -1 -62q-1 -29 -1 -30q2 -46 -43 -104q-36 -46 -89 -86q-47 -35 -58 -33q-23 5 -20 9q59 67 68 78q46 63 46 108v67zM315 585
q-7 27 -27 27q-10 0 -22 -6l-142 -79l2 -7q153 26 156 26q35 0 35 28q0 5 -2 11z" />
    <glyph glyph-name="Omega" unicode="&#x3a9;" horiz-adv-x="598" 
d="M104 403h207v-34h-212q0 1 1 -37q0 -13 3 -29h208v-34h-198q27 -76 96 -118q66 -41 149 -38q103 4 185 29l-60 -148q-31 -4 -104 -12q-15 -1 -30 -1q-122 0 -205 74q-89 79 -98 214h-47v34h47q-1 23 0 67l-47 -1v34h58q20 84 82 137q18 16 61 52l140 105q18 -5 62 -25
q33 -15 64 -15q22 0 44 13.5l22 13.5q-2 0 12 -8l-70 -74q-58 -55 -90 -61l-92 36q-10 1 -21 1q-15 0 -32 -3t-16 -3q-50 -38 -70 -62q-35 -43 -49 -107z" />
    <glyph glyph-name="Omega" unicode="&#x2126;" horiz-adv-x="598" 
d="M104 403h207v-34h-212q0 1 1 -37q0 -13 3 -29h208v-34h-198q27 -76 96 -118q66 -41 149 -38q103 4 185 29l-60 -148q-31 -4 -104 -12q-15 -1 -30 -1q-122 0 -205 74q-89 79 -98 214h-47v34h47q-1 23 0 67l-47 -1v34h58q20 84 82 137q18 16 61 52l140 105q18 -5 62 -25
q33 -15 64 -15q22 0 44 13.5l22 13.5q-2 0 12 -8l-70 -74q-58 -55 -90 -61l-92 36q-10 1 -21 1q-15 0 -32 -3t-16 -3q-50 -38 -70 -62q-35 -43 -49 -107z" />
    <glyph glyph-name="radical" unicode="&#x221a;" 
 />
    <glyph glyph-name="approxequal" unicode="&#x2248;" 
 />
    <glyph glyph-name="approxequal" unicode="&#x22f2;" 
 />
    <glyph glyph-name="Delta" unicode="&#x394;" 
 />
    <glyph glyph-name="Delta" unicode="&#x2206;" 
 />
    <glyph glyph-name="lozenge" unicode="&#x25ca;" horiz-adv-x="319" 
d="M145 200q-42 84 -132 127q84 50 127 132q39 -59 61 -79q13 -13 71 -48q-55 -35 -71 -51q-26 -25 -56 -81z" />
    <glyph glyph-name="fraction" unicode="&#x2044;" 
 />
    <glyph glyph-name="fi" unicode="&#xf001;" horiz-adv-x="15" 
 />
    <glyph glyph-name="fl" unicode="&#xf002;" 
 />
    <glyph glyph-name="apple" unicode="&#xf000;" 
 />
    <glyph glyph-name="dotlessi" unicode="&#x131;" horiz-adv-x="243" 
d="M60 196q-9 29 -37 42q23 7 36 34v107l-30 31q-8 -6 -23 -16l-8 9l107 94q42 -43 46 -46q28 -24 56 -34q-2 -5 -17 -12q-27 -13 -28 -50l-1 -78q15 -32 38 -39q-28 -13 -36 -43l-1 -94l40 -37l32 32l9 -11l-96 -99l-87 70v140z" />
    <glyph glyph-name="breve" unicode="&#x2d8;" horiz-adv-x="306" 
d="M66 597q44 -58 96 -66q48 14 94 66q3 3 -14 14q-60 -37 -80 -34q-27 -4 -85 37z" />
    <glyph glyph-name="dotaccent" unicode="&#x2d9;" horiz-adv-x="212" 
d="M43 620q0 29 19.5 51.5t49.5 22.5q29 0 48.5 -22.5t19.5 -51.5q0 -30 -19.5 -52.5t-48.5 -22.5q-30 0 -49.5 22t-19.5 53z" />
    <glyph glyph-name="ring" unicode="&#x2da;" horiz-adv-x="335" 
d="M163 664q30 0 50 -20.5t20 -50.5q0 -29 -20.5 -49.5t-49.5 -20.5t-50 21t-21 47q0 31 21 52t50 21zM163 641q-20 0 -33.5 -14t-13.5 -34t14 -33.5t33 -13.5q20 0 33.5 14t13.5 33q0 20 -13.5 34t-33.5 14z" />
    <glyph glyph-name="hungarumlaut" unicode="&#x2dd;" horiz-adv-x="259" 
d="M56 519l-15 16l46 87q16 31 34 31q33 0 33 -41q0 -25 -39 -52zM169 519l-15 16l47 87q17 31 34 31q14 0 23 -13t9 -28q0 -25 -39 -52z" />
    <glyph glyph-name="ogonek" unicode="&#x2db;" horiz-adv-x="301" 
d="M206 0h51q-62 -54 -62 -94q0 -44 46 -44q29 0 70 20l12 -35q-53 -38 -108 -38q-36 0 -60 21.5t-24 57.5q0 59 75 112z" />
    <glyph glyph-name="caron" unicode="&#x2c7;" horiz-adv-x="335" 
d="M293 630l2 -6l-122 -99l-125 101l3 6l122 -50z" />
    </font>
</defs>
</svg>
