<?xml version="1.0" standalone="no"?>
<!DOCTYPE svg PUBLIC "-//W3C//DTD SVG 1.1//EN" "http://www.w3.org/Graphics/SVG/1.1/DTD/svg11.dtd" >
<svg>
<metadata>
Created by FontForge 20120731 at Mon Apr 15 12:33:11 2019
 By www-data
Digitized by Dan X. Solo. Software (c) 1999 by Dover Publications, Inc., New York.
</metadata>
<defs>
<font id="Warwick" horiz-adv-x="20" >
  <font-face 
    font-family="Warwick"
    font-weight="400"
    font-stretch="normal"
    units-per-em="1000"
    panose-1="0 0 4 0 0 0 0 0 0 0"
    ascent="800"
    descent="-200"
    x-height="439"
    cap-height="689"
    bbox="-29 -203 1488 888"
    underline-thickness="20"
    underline-position="-123"
    unicode-range="U+0020-F002"
  />
<missing-glyph horiz-adv-x="500" 
d="M63 0v800h375v-800h-375zM125 63h250v675h-250v-675z" />
    <glyph glyph-name=".notdef" horiz-adv-x="500" 
d="M63 0v800h375v-800h-375zM125 63h250v675h-250v-675z" />
    <glyph glyph-name=".null" horiz-adv-x="0" 
 />
    <glyph glyph-name="nonmarkingreturn" horiz-adv-x="201" 
 />
    <glyph glyph-name="space" unicode=" " horiz-adv-x="201" 
 />
    <glyph glyph-name="exclam" unicode="!" horiz-adv-x="357" 
d="M328 606q-80 -58 -110 -237q-13 -75 -14 -167h-49q-4 181 -30 266q-24 80 -89 139q0 1 -3 8q-2 5 0 5q22 0 82 38q33 23 66 45q22 -27 66 -51q41 -23 79 -32zM169 370q10 0 10 37q0 47 -15 145q-8 43 -15 86l-65 -34q24 -16 57 -114q29 -88 29 -116q0 -4 -1 -4zM68 70
q90 45 112 75q0 1 9 -10t14.5 -14.5t40.5 -28.5q21 -14 42 -21q-25 -14 -50 -27q-31 -20 -60 -55q-31 35 -108 81zM197 94q-9 9 -17 14q-21 -12 -61 -39q19 -10 55 -39l19 21q-32 17 -32 22q0 1 14.5 7t21.5 14z" />
    <glyph glyph-name="quotedbl" unicode="&#x22;" horiz-adv-x="339" 
d="M152 684l-35 -188h-43l-28 184l53 39zM292 684l-35 -188h-43l-28 184l53 39z" />
    <glyph glyph-name="numbersign" unicode="#" horiz-adv-x="570" 
d="M500 433h-116l-41 -185l124 -1l-16 -61h-119l-39 -180h-69l42 180h-94l-45 -179h-68l46 179h-108l18 62h106l44 185h-104l17 64h99l41 168h59l-42 -168h103l40 168h62l-41 -168h117zM226 433l-42 -185h97l41 185h-96z" />
    <glyph glyph-name="dollar" unicode="$" horiz-adv-x="629" 
d="M317 17q0 -3 -34 0v124q-16 -9 -25 -18q-70 71 -138 71q-25 0 -49.5 -11t-48.5 -22q-3 0 -6 13q10 26 102 99q70 57 106 80q-2 1 -31 1l-147 1l-2 2q35 18 35 52q0 5 -1 13.5t-1 12.5q0 26 -11 39q-3 4 -30 25q58 6 116 13q78 10 132 29v129h35v-116q26 12 49 26
q61 -49 65 -52q26 -16 56 -16q46 0 70 32l13 -10q-45 -85 -168 -148h165q-6 -8 -12 -17q-9 -16 -9 -48v-55q-2 -13 11 -36q15 -26 15 -28q-7 0 -23.5 1t-18.5 1q-100 0 -215 -47v-140zM462 452q-18 0 -36 10q-51 25 -114 63q-3 2 -20 -5.5t-18 -7.5q7 -8 71 -41
q70 -36 88 -36q17 0 29 17zM394 416q-74 14 -150 77v-111h58q13 0 51 15q35 14 41 19zM456 233l-4 127h-32v-139q38 12 36 12zM395 321q0 22 -20 28q-7 2 -39 2q-30 0 -63 -18t-68 -38q41 2 92 -20t91 -60q7 83 7 106zM145 429q0 14 -5 33q-6 25 -16 25q-3 0 -12.5 -2.5
t-13.5 -2.5q12 -30 13 -49q0 1 -4 -51h32q6 8 6 47zM293 182q-106 62 -120 62q-49 0 -66 -19q35 4 75 -12q27 -11 56 -32q26 -18 27 -18q14 0 28 19z" />
    <glyph glyph-name="percent" unicode="%" horiz-adv-x="883" 
d="M824 48q-10 -7 -38 -10q-36 -4 -61 -12q-10 -3 -44 -20.5t-38 -17.5q-8 0 -99 43q-12 5 -32 7.5t-38 5.5q-1 1 -1 6q9 12 20 44l-1 166q0 26 -8 69q-3 5 -13 21q40 2 176 57q33 -17 90.5 -37t83.5 -22l3 -7q-20 -34 -20 -67v-149q0 -53 20 -77zM745 190q0 50 -11 101
q-15 64 -40 74q8 -17 17 -74q8 -53 8 -80q0 -97 -29 -179q25 -9 42 65q13 55 13 93zM699 203q0 46 -11 103q-14 76 -38 76q-28 0 -40 -82q-7 -45 -7 -88q-2 -203 44 -202q25 0 41 83q11 59 11 110zM597 34q0 4 -23 22t-30 18q-1 0 -4.5 2t-6.5 2q0 -1 0 12v166q0 4 -2 34
q-4 34 -5 50q-8 -2 -23 -5q8 -38 8 -72l-1 -174q0 -12 -4 -14.5t-8 -14.5q31 0 99 -26zM354 328q-10 -7 -38 -10q-36 -4 -61 -12q-10 -3 -42.5 -20.5t-35.5 -17.5q-14 0 -103 43q-12 5 -32 7.5t-38 5.5q-1 1 -1 6q9 12 20 44l1 170q-1 24 -10 65q-3 5 -13 21q40 2 178 55
q32 -16 87 -35q59 -20 85 -22l3 -7q-20 -34 -20 -67v-149q0 -53 20 -77zM279 468q0 48 -12 101q-16 66 -41 76q8 -17 17 -74q8 -53 8 -80q0 -97 -29 -179q25 -9 43 63q14 56 14 93zM229 483q0 46 -11 103q-14 76 -38 76q-28 0 -40 -82q-7 -45 -7 -88q-2 -203 44 -202
q25 0 41 83q11 59 11 110zM127 314q0 4 -21 22.5t-28 19.5q-1 0 -8 3.5t-10 3.5q-1 5 1.5 8.5l2.5 3.5v164q0 4 -3 35.5t-4 47.5q-9 -3 -24 -7q2 -18 10 -64l-2 -179q-2 -3 -13 -32q31 0 99 -26zM619 675q0 -2 -444 -671l23 -15l444 672q-23 17 -23 14z" />
    <glyph glyph-name="ampersand" unicode="&#x26;" horiz-adv-x="878" 
d="M824 -1v-10q-2 -1 -11 3q-56 73 -177 73q-59 0 -136 -21q-101 -27 -101 -67q0 -123 -94 -123q-29 0 -46 23t-17 53q0 60 65 60q9 0 30 -8q-27 -16 -27 -36t25 -31q38 11 38 56q0 116 -368 116l-6 13q35 29 35 59q0 113 7 139q18 69 96 89q10 1 28 8q-5 5 -23 11
q-102 34 -102 125q3 83 101 124q76 32 187 32q97 0 181 -32q15 -5 56 -27q25 -13 45 -13q33 0 32 0q19 2 19 16q0 10 -11 19t-22 10v5q15 23 61 23q25 0 48 -19.5t23 -45.5q0 -42 -21 -72q-29 -42 -91 -40q-49 1 -80 18q-17 9 -49.5 39t-63.5 47q-12 10 -49 26q-1 -1 0 -248
q92 0 184 1q120 3 167 19q11 -52 22 -77q7 -16 20.5 -29.5t19.5 -27.5q-3 0 -53.5 28t-91.5 31q5 -159 0 -173q44 -21 93 -70q57 -57 57 -96zM374 393v253q-20 5 -38 5q-55 0 -83 -40q-23 -33 -23 -87q0 -47 33 -88t80 -41q11 0 31 -2zM567 185v156h-32v-156h32zM507 185
l-1 156h-100v-167q31 5 101 11zM172 632q-39 -5 -63 -28q-26 -26 -26 -67q0 -95 88 -109q-48 42 -48 106q0 37 19 63q12 13 30 35zM691 90q5 0 5 1q0 4 -39 19q-50 11 -102 11q-84 0 -146 -29q-22 -6 -58 -24q16 -11 40 -36q75 60 214 60q12 0 86 -2zM377 171v173h-49
q-47 0 -67 -14q-25 -17 -25 -64v-150q2 3 141 55zM158 361q-32 0 -59.5 -27.5t-27.5 -58.5v-113q0 -18 -14 -40q7 0 16 2.5t13 2.5q9 0 20 -5v153q0 30 52 86z" />
    <glyph glyph-name="quotesingle" unicode="'" horiz-adv-x="191" 
d="M142 684l-35 -188h-43l-28 184l53 39z" />
    <glyph glyph-name="parenleft" unicode="(" horiz-adv-x="382" 
d="M147 -20q-24 9 -66 14q-37 4 -74 7q-1 3 -2 11q0 1 19.5 27.5t20.5 45.5l1 414q0 2 -6 57q-4 34 -13 51q-7 9 -25 35q79 4 294 92l5 -38q-56 1 -82 -137q-14 -78 -15 -147q-1 -130 9 -240q21 -228 80 -227l-1 -36q-56 29 -145 71zM204 -11q-1 8 -26 32t-39 24
q-3 0 -11 5.5t-14 4.5q-3 9 -1 13q1 3 3 6v412q0 17 -6 63q-7 54 -14 77q-12 -5 -35 -11q18 -65 17 -116v-415q0 -24 -10.5 -35t-22.5 -22q68 0 159 -38z" />
    <glyph glyph-name="parenright" unicode=")" horiz-adv-x="382" 
d="M107 328q1 69 -18 187q-28 181 -81 181l-2 38q95 -40 146 -59q91 -33 140 -36l6 -12q-41 -56 -41 -112v-368q0 -13 15 -62q17 -56 34 -79q-51 0 -49 1q-10 -2 -97 -25q-20 -5 -88 -35q-62 -28 -69 -28l2 38q55 1 84 178q17 110 18 193zM181 306q1 97 -19 201
q-26 140 -75 158q16 -27 33 -159q16 -119 16 -168q0 -219 -53 -347q57 33 82 162q15 76 16 153z" />
    <glyph glyph-name="asterisk" unicode="*" horiz-adv-x="451" 
d="M241 500q-27 -16 -42 -32q-6 -7 -30 -41q-15 -17 -36 -17q-16 0 -27 11t-11 27q0 40 71 46q29 2 65 23q-33 20 -57 23q-19 2 -51 8q-28 10 -28 39q0 16 11 26.5t27 10.5q25 0 55 -44q16 -23 53 -45v15q0 22 -14.5 55.5t-14.5 45.5q0 17 11 29.5t28 12.5t28.5 -13
t11.5 -30q0 -11 -14.5 -48.5t-14.5 -66.5q17 10 48 38q20 29 25 33q16 18 35 18q16 0 27 -10.5t11 -26.5q0 -27 -24 -37q-14 -6 -52 -11q-32 -4 -60 -22q19 -12 27 -14q13 -7 30 -9q43 -5 51 -8q28 -10 28 -39q0 -35 -36 -35q-26 0 -57 43q-17 24 -53 45v-16q0 -22 14 -55
t14 -45q0 -18 -11 -30.5t-28 -12.5t-28 13t-11 30q0 10 14.5 48.5t14.5 67.5z" />
    <glyph glyph-name="plus" unicode="+" horiz-adv-x="493" 
d="M269 273l-1 -200l-82 1l-1 199h-180v68h179v195h81l1 -191h181v-72h-178z" />
    <glyph glyph-name="comma" unicode="," horiz-adv-x="280" 
d="M15 71q89 56 111 93q1 2 10 -12t14.5 -18t40.5 -35q20 -18 41 -27q-23 -15 -46 -31q-29 -23 -55 -59l2 -1q-24 -28 -31 -45q-20 -48 -27 -62l-21 14q10 28 19 55q9 24 29 49q-47 49 -87 79zM144 101q-9 12 -17 17q-21 -14 -61 -48l32 -24q11 -10 22 -25l19 27
q-31 21 -31 26q0 3 14.5 10.5t21.5 16.5z" />
    <glyph glyph-name="hyphen" unicode="-" horiz-adv-x="339" 
d="M276 156h-268v135h268v-135zM235 179v57h-203v-58z" />
    <glyph glyph-name="hyphen" unicode="&#x2010;" horiz-adv-x="339" 
d="M276 156h-268v135h268v-135zM235 179v57h-203v-58z" />
    <glyph glyph-name="period" unicode="." horiz-adv-x="307" 
d="M55 81q90 55 112 93q0 2 9 -12t14.5 -18t40.5 -35q21 -19 42 -27l-50 -34q-31 -25 -60 -68q-31 44 -108 101zM184 110q-9 12 -17 18q-21 -15 -61 -48l32 -24q12 -10 23 -25l19 26q-32 21 -32 27q0 2 14.5 9.5t21.5 16.5z" />
    <glyph glyph-name="slash" unicode="/" horiz-adv-x="404" 
d="M364 720l-292 -731h-58l292 731h58z" />
    <glyph glyph-name="zero" unicode="0" horiz-adv-x="668" 
d="M627 89q-21 -13 -55 -17q-55 -7 -102 -20q-20 -5 -88 -35q-62 -28 -69 -28q-67 29 -166 71q-24 9 -66 14q-37 4 -74 7q-1 3 -2 11q0 1 19.5 27.5t20.5 45.5l1 284q0 2 -6 57q-4 34 -13 51q-7 9 -25 35q79 4 314 92q208 -89 306 -95l6 -12q-41 -56 -41 -112v-248
q0 -29 11 -67q12 -44 29 -61zM482 322q1 93 -14 168q-22 107 -71 125q16 -28 33 -124q16 -89 16 -133q0 -92 -11 -153q-12 -65 -47 -147q6 -1 10 -1q45 0 68 118q16 78 16 147zM417 348q1 58 -17 152q-28 145 -82 146q-55 0 -80 -137q-13 -75 -14 -147q-1 -98 9 -175
q21 -163 80 -162q55 1 85 155q19 97 19 168zM207 72q-1 8 -29.5 30.5t-42.5 22.5q-3 0 -13.5 3t-15.5 2q-3 9 1.5 16t4.5 8l-1 280q0 8 -5 59q-7 58 -9 84q-15 -5 -43 -11q17 -62 16 -120l1 -284q0 -20 -6 -26q-12 -9 -20 -29q51 0 162 -35z" />
    <glyph glyph-name="one" unicode="1" horiz-adv-x="541" 
d="M465 79q-56 -23 -155 -109q-26 25 -55 44q-69 46 -140 55q3 6 26 19q28 15 41 28q22 21 27 50v231q0 90 -6 109q-18 56 -93 56h-13q-10 1 -13 1q-25 0 -46 10q-25 13 -25 35q0 23 25 40q21 14 36 14t32.5 -8.5t22.5 -20.5q-13 3 -21 -4.5t-8 -18.5q0 -26 45 -26
q46 0 125 87q48 -29 96 -59q45 -27 88 -32v-12q-62 -18 -69 -74v-319q1 -39 80 -96zM351 38q-12 0 -54 26q-29 18 -58 35q22 13 31 82v303q-4 64 -49 101q-13 -6 -30 -17q31 -27 38 -62q3 -11 3 -55v-293q-5 -38 -49 -79q21 -7 73 -39q48 -30 50 -30q-3 0 45 28z" />
    <glyph glyph-name="two" unicode="2" horiz-adv-x="629" 
d="M582 66q-36 -18 -138 -83q1 0 -44 25q-52 29 -101 47q-70 25 -127 25q-49 0 -87 -15q-57 -22 -52 -70l-26 -1q-9 107 84 205q88 75 176 151q97 84 97 157q0 45 -22 82q-26 44 -68 44q-46 0 -75 -50q-24 -39 -24 -74q0 -29 14 -75q-8 2 -24 2q-50 0 -128 -38q1 24 0 73
q-3 27 -22 98q65 18 169 72l96 50q3 0 49 -27q52 -29 75 -38q56 -22 99 -34q64 -17 76 -21q-23 -32 -28 -63q-3 -16 -3 -69q0 -52 7 -79q7 -23 15 -47h-93q-107 0 -236 -58q-152 -69 -176 -164q32 25 92 41q52 11 103 22l140 22q84 18 140 71q7 -98 42 -181zM431 509
q0 68 -69 101q26 -52 26 -101q0 -68 -43 -118q-26 -31 -130 -112q216 72 216 230zM104 463q-3 26 -7 53q-8 46 -20 46q-9 0 -28 -8q17 -60 17 -106q21 6 38 15zM483 62q-17 16 -91 37q-77 22 -127 22q-8 0 -43.5 -7l-35.5 -7q57 -5 108 -22l78 -30q14 -5 62 -33z" />
    <glyph glyph-name="three" unicode="3" horiz-adv-x="634" 
d="M594 72l-92 -4q-58 -4 -103 -19q-27 -9 -80 -40q-46 -27 -54 -27q-9 0 -76 46q-36 24 -72 49q-29 16 -65 23q-43 9 -54 14q56 75 56 136q0 13 -2 27q54 -43 141 -53l-14 -36t-8 -45q-3 -31 30 -71q35 -43 71 -44q58 -1 91 78q25 57 25 109q0 143 -97 143q-3 0 -37 -8.5
t-37 -8.5q-40 0 -40 30q0 8 10.5 18.5t21.5 10.5q9 0 44 -8t37 -8q93 0 93 108q0 50 -17 96q-27 72 -84 72q-28 0 -52 -30t-24 -56q0 -21 10 -59q-44 0 -69 -10q-32 -14 -63 -29q-6 78 -30 126q18 1 121.5 49t104.5 48q185 -68 201 -68q-6 0 37 0h56q-14 -21 -14 -112
q0 -59 2 -69q8 -18 16 -35q-142 -2 -212 -42q103 -49 225 -50q-24 -61 -24 -124q0 -46 3 -62q5 -27 24 -65zM448 514q0 120 -74 125q13 -22 23 -66.5t10 -79.5q0 -38 -7 -68q34 17 44 44q4 12 4 45zM142 543q-2 14 -3 28q-3 26 -9 26q-13 0 -40 -10q7 -37 15 -60q15 7 37 16
zM453 207q0 130 -54 130q-5 0 -11 -2q8 -25 16 -50.5t8 -65.5q0 -45 -10 -81q-11 -30 -21 -61q72 -9 72 130zM143 135q-39 27 -84 31q-7 -11 -18 -31q61 -4 109 -39q0 7 -4 21t-3 18z" />
    <glyph glyph-name="four" unicode="4" horiz-adv-x="624" 
d="M576 92q-15 -13 -81 -46q-50 -25 -72 -65l-6 1q-47 59 -162 109v6q8 6 28.5 10.5t27.5 11.5q11 11 7 36l-3 24h-311l1 34q128 119 183 188q105 130 106 230q84 16 130 53q100 -62 138 -97l-34 -13q-44 -30 -107 -68q-125 -75 -368 -296h265v78q0 29 -40 63q38 7 131 63
q76 -48 134 -65q-43 -58 -43 -112q0 -11 1 -23q4 -4 73 -1v-40h-70q-2 0 -2 -10q0 -26 17 -41q9 -8 33 -16q20 -7 24 -14zM375 624q0 1 -1 1q-2 0 -10.5 -5.5t-11.5 -5.5q-24 0 -27 -9q-3 -14 -10 -40q-14 -48 -71 -136q67 39 85 66q9 14 31 81q15 47 15 48zM452 47
q-24 20 -74 59q6 10 7 27q1 12 0 32q-2 25 -2 29q0 156 -17 161q-5 1 -20 -5t-18 -11q21 -36 21 -142v-60q-4 -29 -27 -41q31 -15 103 -79q10 14 27 30z" />
    <glyph glyph-name="five" unicode="5" horiz-adv-x="596" 
d="M571 356q-24 -25 -24 -116q0 -17 1 -45.5t1 -37.5q0 -18 10.5 -38.5t11.5 -31.5q-6 -3 -14 -4q-5 -1 -14 0q-11 1 -15 1q-81 0 -177 -45q-46 -23 -93 -46q-59 52 -120 71q-52 16 -140 16l-5 16q21 48 21 83q0 18 -11 62h164q-2 -15 -2 -54q0 -42 31 -93q34 -55 73 -55
q46 0 69 74q16 51 16 110q0 174 -134 174q-41 0 -68 -20q-14 -10 -39 -40.5t-45 -41.5l-27 28q12 134 12 152q0 16 -15 136q48 15 103 66q85 -29 192 -29h81q12 0 118 12l3 -5l-1 -9q-59 -45 -83 -103q-4 -10 -24 -49q-152 6 -216 6q-24 0 -124 -3l-3 -133l5 -2
q55 45 105 61.5t123 16.5q44 0 127 -33q64 -25 127 -51zM420 574h-311q-3 35 -2 45q-18 -7 -32 -21l6 -67q25 5 35 5h179q82 0 101 -10q5 17 24 48zM309 410l-21 3q52 -33 73 -72q22 -42 22 -116q0 -79 -24 -151q8 3 44 23q23 87 23 117q0 77 -18 120q-7 16 -44 45t-55 31z
M75 210q-36 1 -39 0q0 -5 1 -27.5t1 -36.5q0 -21 -3 -35h34q16 38 6 99z" />
    <glyph glyph-name="six" unicode="6" horiz-adv-x="683" 
d="M639 102q-36 -3 -111 -20q-34 -11 -191 -89l-106 46q-119 47 -193 48q-9 0 -29 -2q-1 4 -5 11q33 22 40 44q1 6 2 42v295q0 23 -7 48q-2 4 -34 48q72 14 200 64q119 47 116 47q5 0 103 -37t113 -37q20 -4 56 -12q9 -4 5 -11q-32 -58 -41 -120l-64 30q-35 14 -62 11
q3 14 5 35q1 34 -44 70q-41 32 -68 33q-54 1 -76 -88q-3 -13 -12 -97l-1 -89q91 63 185 61q36 -1 112 -40.5t98 -37.5q-22 -40 -23 -71q-1 -23 -3 -46q-2 -47 1 -69q2 -12 14 -33zM521 519q1 24 -22 52q-26 34 -59 36q30 -35 30 -77q38 -12 49 -12q2 0 2 1zM495 191
q1 59 -10 111q-20 92 -72 93q-3 0 -8 -1.5t-7 -1.5q23 -12 40 -54q15 -36 15 -63l1 -81q0 -30 -13 -74q-11 -35 -17 -47q69 14 71 118zM431 210q2 168 -93 169q-48 1 -76 -26t-29 -69q0 -8 -1 -16q-1 -17 -1 -33q0 -192 101 -196q57 -3 83 78q15 46 16 93zM217 68
q-11 25 -50 42q-50 23 -55 28q0 11 2 45q1 26 0 41v244q0 62 -5 77q-5 11 -11 21q-15 -3 -41 -14q16 -37 17 -66q-1 -70 -1 -139l1 -180q-1 -28 -17 -53q97 -15 160 -46z" />
    <glyph glyph-name="seven" unicode="7" horiz-adv-x="642" 
d="M616 684q-61 -105 -123 -210q-71 -132 -71 -212q0 -36 15.5 -84t36.5 -80q-7 0 -34 -4q-39 -6 -85 -49q-33 -34 -67 -68q-46 74 -181 127q110 74 232 226q75 94 193 271q-33 -14 -136 -28q-95 -14 -143 -39q-74 -38 -106 -125q-9 7 -24 36q-19 39 -31 57q-19 26 -44 47
q-36 31 -36 32q91 34 132 108q52 -20 104 -41q91 -33 143 -33h43q50 0 91 19q29 13 54 34q21 19 20 19q11 0 17 -3zM174 525q-63 75 -68 75q-4 0 -20.5 -9.5t-21.5 -15.5q32 -24 78 -97zM412 381q-66 -95 -126 -160q-31 -33 -115 -113q56 -12 114 -84q1 7 1 14q0 24 -17 49
q-11 16 -23 31q83 85 115 130q54 75 51 133z" />
    <glyph glyph-name="eight" unicode="8" horiz-adv-x="665" 
d="M628 120q-35 -11 -108 -35q-77 -26 -139 -67q-49 -33 -58 -33q-193 83 -278 83h-10.5h-13.5q2 6 19 39q6 13 6 65q0 42 -5 62q-9 35 -38 56q3 2 3 10q15 2 17 -1q66 9 92 14q44 10 82 30q-12 18 -74.5 49.5t-88.5 35.5q1 2 16 26q6 11 6 47q0 49 -24 77q165 45 285 113
q19 -12 86 -44q57 -23 175 -43q-16 -28 -16 -64q0 -38 2.5 -47.5t13.5 -24.5q-37 -7 -74 -13q-44 -11 -69 -38q44 -34 96 -52q19 -7 93 -24q-8 -11 -15.5 -22.5t-7.5 -55.5v-93q2 -22 11 -32t16 -18zM497 527q9 66 -64 80q29 -46 29 -71t-32 -77q41 15 56 34q8 11 11 34z
M432 544q0 36 -47 72q-43 32 -74 32q-25 0 -59 -25q-38 -29 -38 -60q0 -18 74 -63q48 -28 95 -56q49 47 49 100zM513 148q0 89 -198 215q-82 52 -197 108q6 76 0 105q-18 -5 -45 -12q10 -22 10 -54q0 -15 -5 -63q99 -57 199 -115q191 -121 191 -180q0 -22 -5 -34t-6 -19
q18 6 50 15q0 5 3 18.5t3 15.5zM435 142q0 27 -9 41q-15 23 -92 80t-91 57q-32 0 -55 -42.5t-19 -94.5q3 -52 51.5 -100t96.5 -48q37 0 75 31q43 34 43 76zM115 178q0 21 -14 103q-18 -2 -44 -7q7 -7 14 -38.5t7 -47.5q0 15 -10 -93q26 -4 44 -4q3 30 3 87z" />
    <glyph glyph-name="nine" unicode="9" horiz-adv-x="652" 
d="M610 118q-34 -10 -97 -33q-104 -45 -156 -80q-36 -23 -35 -23t-56 31q-66 35 -119 56q-75 29 -118 27q21 58 56 166q30 -31 67.5 -38.5t74.5 -13.5q-15 -40 -15 -47q0 -33 35 -80q39 -50 75 -48q63 4 63 179q0 149 -1 135q-52 -44 -71 -55q-29 -16 -68 -16q-44 0 -129 36
q-81 35 -114 33q0 18 9 62t9 66q0 63 -23 122q98 5 211 54q23 11 46.5 21t42.5 10q5 0 111 -35q117 -39 119 -39q15 -5 51 -6q25 -1 25 -8q0 3 -14 -24t-14 -53l-1 -327q1 -26 17 -48q10 -12 19 -24zM383 447q0 61 -18 121q-25 80 -71 80q-60 0 -86 -97q-16 -56 -16 -109
q0 -42 11 -76q19 -56 61 -56q50 0 86 49q33 43 33 88zM456 274q0 124 -4 170q-12 159 -56 175l-30 9q21 -27 35 -86q12 -53 12 -99v-225q0 -64 -17 -154q45 22 56 97q4 24 4 113zM178 320q-16 43 -38 56q-27 10 -53 21q6 50 6 78q0 50 -20 105q-26 -6 -37 -5q16 -73 16 -106
q0 -39 -11 -93q35 -6 72 -24q33 -16 65 -32zM132 197q-10 7 -31 16q-23 -61 -34 -93q10 -2 34 -8q12 34 31 85z" />
    <glyph glyph-name="colon" unicode=":" horiz-adv-x="319" 
d="M55 349q90 55 112 93q0 1 9 -11q9 -16 14.5 -20t40.5 -35q21 -18 42 -26q-25 -17 -50 -35q-31 -25 -60 -68q-31 44 -108 102zM184 378q-9 12 -17 18q-21 -15 -61 -49l32 -24q12 -9 23 -25l19 27q-32 21 -32 26q0 3 14.5 10.5t21.5 16.5zM55 84q90 55 112 93q0 1 9 -11
q9 -16 14.5 -20t40.5 -35q21 -18 42 -26q-25 -17 -50 -35q-31 -25 -60 -68q-31 44 -108 102zM184 113q-9 12 -17 18q-21 -15 -61 -49l32 -24q12 -9 23 -25l19 27q-32 21 -32 26q0 3 14.5 10.5t21.5 16.5z" />
    <glyph glyph-name="semicolon" unicode=";" horiz-adv-x="325" 
d="M45 81q89 56 111 93q1 2 10 -12t14.5 -18t40.5 -35q20 -18 41 -27q-23 -15 -46 -31q-29 -23 -55 -59l2 -1q-24 -28 -31 -45q-20 -48 -27 -62l-21 14q10 28 19 55q9 24 29 49q-47 49 -87 79zM174 111q-9 12 -17 17q-21 -14 -61 -48l32 -24q11 -10 22 -25l19 27
q-31 21 -31 26q0 3 14.5 10.5t21.5 16.5zM55 351q90 55 112 93q0 2 9 -12t14.5 -18t40.5 -35q21 -19 42 -27l-50 -34q-31 -25 -60 -68q-31 44 -108 101zM184 380q-9 12 -17 18q-21 -15 -61 -48l32 -24q12 -10 23 -25l19 26q-32 21 -32 27q0 2 14.5 9.5t21.5 16.5z" />
    <glyph glyph-name="less" unicode="&#x3c;" horiz-adv-x="405" 
d="M124 337l240 -177l-54 -49l-291 223l294 241l54 -48z" />
    <glyph glyph-name="equal" unicode="=" horiz-adv-x="530" 
d="M10 376v53q0 1 462 1v-54h-462zM10 226v54q0 3 462 0v-54h-462z" />
    <glyph glyph-name="greater" unicode="&#x3e;" horiz-adv-x="405" 
d="M77 111l-54 49l240 177l-243 190l54 48l299 -238z" />
    <glyph glyph-name="question" unicode="?" horiz-adv-x="596" 
d="M356 522q0 40 -20 74q-24 39 -61 39q-41 0 -68 -44q-21 -36 -21 -67q0 -26 12 -68q-7 2 -21 2q-45 0 -115 -34q0 22 -1 66q-2 24 -19 88q58 16 152 65l86 44q3 0 45 -23q46 -27 67 -35q50 -20 89 -30q58 -16 69 -19q-21 -29 -26 -57q-3 -15 -3 -62t6.5 -69.5t13.5 -43.5
l-84 -1q-84 0 -144 -60q-34 -58 -36 -107h-39q-12 26 -12 53q0 34 20 59q45 56 76 119q34 68 34 111zM420 491q2 32 -13 64q-18 36 -50 51q29 -58 26 -83q-8 -61 -17 -87q-14 -39 -61 -109q110 70 115 164zM123 480q-2 23 -5 47q-5 42 -17 42q-8 0 -25 -8q15 -54 16 -95
q13 3 31 14zM147 70q90 45 112 75q0 1 9 -10t14.5 -14.5t40.5 -28.5q21 -14 42 -21q-25 -14 -50 -27q-31 -20 -60 -55q-31 35 -108 81zM276 94q-9 9 -17 14q-21 -12 -61 -39q19 -10 55 -39l19 21q-32 17 -32 22q0 1 14.5 7t21.5 14z" />
    <glyph glyph-name="A" unicode="A" horiz-adv-x="905" 
d="M894 101l-86 -40q-55 -28 -100 -71q-60 43 -132 70q-50 17 -99 33v6q23 10 47 20t24 42q0 26 -17 65q-21 45 -44 45q-82 -3 -81 -156v-174q1 -23 10 -39q11 -21 32 -20q7 0 15 6.5t8 14.5q0 11 -21 20v6q-1 18 13 30.5t32 12.5q50 0 50 -54q0 -34 -23 -52t-57 -18
q-77 0 -77 96l1 220q0 47 -25 75.5t-73 28.5q-32 0 -32 -55q1 -29 18.5 -63t41.5 -48q9 -3 26 -11l1 -6q-24 -10 -56 -24q-34 -18 -91 -73q-45 32 -191 99v7q26 11 75 37q70 47 121 110q37 46 88 137q66 117 66 131q0 39 -52 61q-44 19 -102 19q-30 0 -49 -6
q-103 -29 -103 -125q0 -26 22.5 -48t42.5 -22q8 0 11 4q-1 12 -4 36q9 27 14 35q11 17 32 17q30 0 50.5 -17t20.5 -46q0 -34 -32 -53q-26 -16 -63 -16q-48 0 -85.5 35t-37.5 83q0 93 85 153q76 54 173 54q156 0 284 -83q15 28 45 46q27 17 54 17q9 0 16 -2q-61 -45 -66 -136
q7 -43 51 -156q56 -147 110 -208q39 -44 118 -44q1 0 1 -6zM750 62q-21 13 -64 31q-60 24 -66 27q11 20 11 46q0 37 -126 327q-27 64 -57 64l-13 -4q-44 47 -76 63q-38 20 -94 20q-46 0 -72 -19q99 -1 155 -34q37 -21 41 -40q2 0 7 3t8 3q21 0 35.5 -27t72.5 -160
q61 -142 68 -167q4 -16 4 -35q0 -34 -20 -56q49 -19 145 -64l4 1q15 8 37 21zM493 311q-21 51 -41 102q-25 60 -48 100l-2 -6q-35 -60 -111 -196h202zM229 212q-9 -10 -26 -28t-55 -46q-41 -31 -57 -45q35 -19 104 -58q24 13 24 20q0 6 -31 24t-31 21q26 20 75 68
q-1 16 -3 44z" />
    <glyph glyph-name="B" unicode="B" horiz-adv-x="870" 
d="M818 103q-121 0 -219 -21q-156 -34 -156 -111q0 -45 38 -56q25 11 25 31t-27 36q21 8 30 8q31 0 53 -16q24 -19 24 -49q0 -29 -22 -50t-53 -21q-94 0 -94 123q0 40 -101 67q-77 21 -136 21q-121 0 -178 -73l-8 -4l-3 2v9q0 39 56 95q48 47 92 68l4 9q2 20 2 55
q0 16 -1 46v46h-30q-33 0 -72 -19.5t-45 -19.5q20 33 40 67q15 26 17 93q22 -10 94 -11v54v48q-5 27 -30 27q-9 0 -23.5 -3.5t-24.5 -3.5q-29 0 -52 16q-26 19 -26 48q0 25 21 40q18 14 44 14q36 0 51 -23v-5q-11 -1 -22 -10t-11 -19q0 -25 41 -25q32 0 71 16q33 15 67 30
q120 45 240 45q276 0 282 -146q0 -91 -102 -125q-8 -3 -24 -11q1 0 29 -8q78 -20 96 -86q6 -22 6 -135q0 -24 37 -55v-8zM673 530q0 103 -106 115q12 -12 32 -35q23 -34 23 -80q0 -80 -60 -132q111 18 111 132zM586 524q0 55 -31 89.5t-84 34.5q-26 0 -32 -3v-251q23 1 34 1
q47 0 80 41t33 88zM658 130v160q1 30 -1 40q-3 17 -17 34q-4 1 -20 19q-12 -2 -37 -3q33 -36 33 -112l-1 -148l4 -1q13 3 39 11zM411 181v462q-24 -5 -66 -17v-430zM580 294q0 78 -105 78q-11 0 -38 1v-198l142 -53zM465 68q-8 6 -29.5 12.5t-28.5 11.5q-111 23 -182 23
q-35 0 -66 -5q11 8 74 54v370q0 25 -17 45q-15 -5 -46 -15q6 -14 12 -27q2 -6 2 -30v-317q0 -41 -35 -61q-47 -27 -57 -43q46 11 69 10q92 -4 142 -16q60 -14 128 -52q5 11 34 40z" />
    <glyph glyph-name="C" unicode="C" horiz-adv-x="878" 
d="M803 261q-3 -35 -34 -91.5t-58 -80.5q-21 -19 -71 -57v-57q0 -48 29 -48q11 0 21 7t10 16q0 19 0 18q0 1 -18 18q12 4 25 4q24 0 41.5 -13.5t17.5 -38.5q0 -26 -25 -49.5t-52 -22.5q-52 4 -68 43q-9 23 -9 90v25q-70 -33 -130 -40q-23 -3 -111 -3q-154 0 -259 94
q-110 97 -110 249q0 131 117 236q109 97 243 112l6 -6l-3 -6q-65 -47 -107 -149q-38 -95 -38 -184q0 -86 13 -140q17 -71 63 -125l14 -10q28 33 28 62l-1 278q4 84 1 114q-3 23 -39 30v8q2 8 0 8q0 1 44 19q22 14 73 44q29 24 96 63q22 9 40 9q10 0 25.5 -4.5t21.5 -4.5
q46 -5 109 -36q76 -37 76 -75l-17 1q-53 -17 -87 -50q-41 -39 -41 -89v-358q100 71 142 190q10 -1 22 0zM705 577l-32 34q-19 17 -37 19q16 -25 17 -47t2 -42zM615 547q0 100 -65 100q-35 0 -47 -31q-9 -22 -6 -50v-338q4 -20 26 -58q-83 -36 -124 -67q-10 -7 -65 -71
q75 -25 87 -25q81 3 194 52v488zM419 476q0 65 -18 93l-42 -23q16 -23 16 -122v-297q28 18 44 31v318zM288 21q-18 22 -87 68q-104 79 -104 233q0 59 12.5 97t47.5 79q45 52 87 73q7 4 18 21q7 12 15 24h-5q-98 -42 -160 -116q-71 -84 -69 -182q2 -89 47 -163
q48 -77 127 -110q60 -24 71 -24z" />
    <glyph glyph-name="D" unicode="D" horiz-adv-x="952" 
d="M889 75l-168 -1q-56 0 -137 -41q-95 -47 -95 -101q0 -52 34 -52q30 0 30 28q0 14 -20 27q11 19 36 19t40 -18t15 -40q0 -30 -26 -46q-20 -11 -46 -11q-47 0 -67 35q-3 5 -27 75q-31 90 -211 90q-63 0 -132 -14q-75 -16 -123 -42q19 45 114 117q89 69 90 79q1 14 0 130
q-27 -1 -53 -7q-61 -14 -104 -47q31 75 34 87q18 51 15 89q23 -22 66 -22h40q0 105 -1 104q1 5 1 9q0 15 -20 24q-15 6 -29 6q-3 0 -31.5 -3t-32.5 -3q-31 0 -54 16q-28 19 -28 54q0 24 19 39.5t44 15.5q13 0 33 -9q25 -11 34 -27q-34 -8 -34 -30q0 -32 39 -32q16 0 89 29
q95 39 150 55q98 29 175 29q114 0 195 -45q106 -58 106 -174v-312q0 -28 2 -33q6 -19 38 -47zM641 388v175q0 44 -50 71q-37 20 -74 20q-9 0 -25 -1v-265h149zM732 468q0 161 -76 172l-17 2q29 -24 39 -82l2 -139q0 -2 -1 -38t-1 -39v-252l13 2q26 0 33.5 13t4.5 44z
M473 649l-17 -5q-18 -6 -38 -20q-27 -19 -27 -35v-400q34 -2 80 -23zM641 365q-45 -1 -149 0v-207q53 -24 69 -32q31 -16 78 -49zM536 46q-3 0 -6 3t-4 3t-31 14q-34 17 -71 27q-54 15 -115 15q2 0 -85 -8q6 11 33 31q21 15 21 37l2 417l-60 -24q10 -11 11 -32q-1 35 -1 -18
v-337q0 -17 -58 -63q-35 -25 -70 -51q32 4 79 12q57 5 106 0q43 0 102 -19q66 -22 92 -50q8 13 25 24q25 15 30 19z" />
    <glyph glyph-name="E" unicode="E" horiz-adv-x="990" 
d="M928 89q-107 -53 -148 -116q-71 63 -140 88q-61 22 -140 22h-48q-2 -26 -2 -56q0 -142 42 -142q12 0 19.5 13t7.5 23q0 8 -20 24q2 9 21 9q22 0 41 -18t19 -39q0 -26 -28 -44q-23 -15 -47 -15q-84 0 -84 171q0 21 1.5 46.5t1.5 27.5q-118 -18 -208 -98q-87 83 -202 107
q93 51 114 84q16 25 16 98q0 11 1 44q-28 1 -43 1q-44 0 -95 -37q17 49 47 149q21 -14 46.5 -14t46.5 -1l-1 80q0 58 -39 73q-36 5 -72 11q-39 7 -39 48q0 58 61 58q35 0 55 -29q-42 -9 -42 -37q0 -15 15 -23q11 -7 23 -7q-3 0 57 25q70 28 149 44q114 25 241 25
q83 0 157 -21q50 -14 98 -39q41 -21 44 -21t16 7t16 7q8 0 17 -16q-79 -59 -138 -180q-59 122 -122 176q-67 58 -161 58q-27 0 -26 -5v-241q29 12 56 58q16 31 33 62q6 -46 55 -95q44 -44 95 -67q-22 -14 -89 -61q-17 -13 -40 -46q-29 -41 -37 -49q-11 46 -17 59
q-20 46 -60 65l-1 -221q7 -9 63 -9q110 0 171 44q43 30 68 88q28 65 33 70q6 -51 40 -109q40 -68 102 -109zM793 530q0 32 -67 75q-62 38 -80 36q63 -50 121 -146q26 25 26 35zM428 385v263q-88 -16 -88 -106l1 -156zM572 413q-20 25 -28 30q-11 -18 -49 -45t-42 -32
q33 -7 58 -35.5t26 -53.5q-3 5 12 20q19 20 21 23q-12 13 -39 29q-19 11 -39 22q29 12 80 42zM806 173q0 16 -22 40q-33 -66 -136 -119q47 -15 129 -74q8 8 18 21q-33 22 -88 51q99 66 99 81zM426 353l-85 1v-117q0 -23 9 -43q20 -48 76 -73v232zM239 51q-28 18 -78 51
q47 38 62 80q9 23 9 62v285q-4 33 4 63q0 1 -2 1q-5 0 -33 -10q-33 -12 -35 -13q15 -16 15 -64v-284q0 -34 -29 -72q-22 -26 -45 -51q19 -6 57 -31q55 -37 57 -38q9 7 18 21z" />
    <glyph glyph-name="F" unicode="F" horiz-adv-x="764" 
d="M816 593q-65 -14 -196 -121q2 5 -16 45q-21 48 -46 79q-34 42 -67 42q-7 0 -11 -9v-161l6 -6q12 0 27 21l24 32q34 -52 50 -72q48 -61 81 -74q-42 -31 -75 -73q-38 -48 -42 -86q-8 7 -32 39q-22 28 -36 36q-6 0 -6 -6l-1 -382q7 -20 30 -20q13 0 21 11t8 24q0 15 -19 34
q15 10 23 10q22 0 38 -17t16 -39q0 -31 -19.5 -49t-47.5 -18q-75 0 -75 98q0 12 1 31t1 25v86q-5 9 -22 9q-43 0 -95 -26.5t-89 -70.5q-46 51 -109 82q-29 14 -95 36q79 23 98 95q6 21 8 125q-4 6 -26 6q-45 0 -62 -15q-27 -22 -36 -25q32 101 38 156q14 -15 27 -19
q5 -1 26 -1q31 0 35 10v38q3 70 -36 87q-38 6 -76 11q-43 6 -47 50q-3 23 19 41q19 17 42 17q14 0 36 -15.5t23 -29.5q-10 1 -24 -6.5t-14 -22.5q0 -20 31 -20q39 0 96 26q83 38 113 47q81 26 181 26q91 0 161 -22q49 -15 86 -41q32 -22 30 -22q2 0 15.5 4.5t22.5 5.5
q2 -6 6 -16zM675 555q-17 37 -55 58q-15 8 -63 24q54 -41 80 -110q27 10 38 28zM455 448v189q-5 6 -19 6q-49 0 -72 -31q-16 -22 -19 -59q1 -21 1 -42q2 -41 3 -100q12 -3 55 5q51 9 51 32zM555 302q0 9 -47 35q-40 21 -66 32q106 28 108 65q0 11 -14 18q-33 -38 -75 -56
q-20 -8 -78 -21l76 -36q47 -25 85 -61q11 16 11 24zM453 110v191q0 24 -111 32v-104q-4 -10 -4 -20q0 -35 37 -70t68 -35q4 0 10 6zM276 57q-13 23 -42 37q-22 11 -45 22q36 32 44 74l6 64l-1 287q0 3 -9.5 17t-11.5 21q-10 -3 -39 -14q14 -26 14 -59l-1 -266q-2 -29 -4 -57
q-10 -39 -57 -78q39 -18 59 -29q36 -21 60 -45q18 10 27 26z" />
    <glyph glyph-name="G" unicode="G" horiz-adv-x="966" 
d="M918 240q0 -91 -101 -172q-92 -73 -186 -82v-74q1 -11 11.5 -19.5t18.5 -8.5q10 0 17 9t7 17q0 5 -5 14q-6 13 -7 15q3 8 24 8q20 0 36.5 -16t16.5 -32q0 -29 -20 -47t-43 -18q-29 0 -53 14q-30 18 -29 52l1 86q0 1 -10 1q-17 0 -65 -3.5l-48 -3.5q-190 0 -312 58
q-170 82 -170 268q0 123 106.5 231.5t235.5 108.5q14 0 23 -6q-94 -67 -129 -151q-26 -62 -26 -164q0 -131 79 -221q83 -94 212 -94q60 0 108 21v319h-103v-123q0 -22 4.5 -32t21.5 -22q-5 -6 -38 -16q-43 -14 -50 -17q-34 -15 -72 -42q-32 -23 -33 -23t-12 8q4 16 14 36.5
t13 28.5l-2 363q0 25 -28 31q-31 7 -34 18q59 12 159 65q86 45 154 45q48 0 90 -16q28 -11 56 -31q23 -16 25 -16q1 0 35 5q2 -8 8 -24q-62 -10 -109 -40q-64 -39 -68 -95l-1 -67q84 10 167 83q13 -28 70 -121q41 -66 41 -108zM675 567q0 16 -29 40q-25 19 -38 24
q19 -40 34 -94q33 26 33 30zM610 381v126q0 21 -18 66q-23 58 -54 58q-8 0 -20.5 -9t-9.5 -18l1 -223l32 -1zM832 228q0 30 -27 81q-35 66 -84 66q-6 0 -31 -13q87 -56 87 -156q0 -80 -51 -149q51 5 82 70q24 51 24 101zM740 206q0 36 -21 82q-27 59 -68 59h-17v-310
q55 20 84 77q22 44 22 92zM438 531q-3 15 -13 40q-23 -12 -42 -23q9 -16 9 -57l1 -338q51 16 45 37v341zM322 21q-225 80 -225 294q0 60 38 138q36 75 84 123q-72 -27 -128 -116q-53 -83 -53 -152q0 -114 78 -191.5t206 -95.5z" />
    <glyph glyph-name="H" unicode="H" horiz-adv-x="1026" 
d="M954 113q-22 -15 -69 -31q-51 -18 -72 -29q-12 -7 -33.5 -28.5t-24.5 -21.5l-73 46q-78 49 -122 61l50 20q35 15 40 41l1 174h-168l-1 -198q14 -10 42 -32q-2 -2 -22.5 -6t-23.5 -18l2 -142q0 -59 24 -59q25 0 25 26q0 18 -15 32q14 14 29 14q24 0 39 -14.5t15 -36.5
q0 -27 -24 -46t-48 -19q-2 0 -17 3q-22 4 -41.5 25.5t-21.5 39.5q-3 29 -2 98q2 87 2 74q-28 -7 -58.5 -34t-46.5 -56q-45 32 -75 45q-37 15 -84 15q-78 0 -169 -60v15q0 32 54 83q40 33 79 66q17 15 21 27q3 9 3 35q0 43 1 76t1 28q0 6 -7 6q-4 0 -17 -5q-53 0 -90 -46
l-9 2q20 44 25 85t10 83q1 0 21 -9t49 -9q-2 0 12 -4q10 -2 12 3l-1 84q0 47 -73 47h-31q-74 0 -74 62q0 26 17.5 40t42.5 14q15 0 30 -8q17 -11 18 -30q-7 -1 -16.5 -9t-9.5 -17q0 -25 38 -25q36 0 85 28.5t73 63.5q69 -41 179 -82l1 52q9 1 27 1v-255h168v76q0 8 1 21v16
q0 21 -14.5 34.5t-67.5 38.5q14 10 82 36q61 23 112 66q79 -66 170 -86q-77 -41 -77 -83v-308q0 -31 28.5 -58t68.5 -38zM780 70q-13 8 -39.5 23.5t-39.5 24.5q41 36 41 50l-1 367q0 9 -18.5 33t-29.5 24t-34 -18q30 -28 30 -46v-367q0 -14 -20 -29q-12 -9 -25 -19
q29 -14 57 -28q35 -18 55 -36q3 -3 23 15q1 2 1 6zM456 587q-86 -27 -86 -65v-124q-4 0 21 0q25 -1 65 -1v190zM452 346q-1 -2 -82 1v-153q28 -12 82 -33v185zM350 67q-78 53 -159 53q71 34 71 112q0 41 -1 124v123q0 54 -12 77l-20 38q-25 -10 -40 -22q23 -21 23 -98v-230
q0 -67 -11 -85q-13 -21 -96 -80q71 13 69 13q44 0 83 -12q27 -8 53 -22l22 -12q4 0 10.5 8t7.5 13z" />
    <glyph glyph-name="I" unicode="I" horiz-adv-x="448" 
d="M407 99q-55 -22 -183 -117q-59 77 -175 114q0 5 18 12q37 14 39 15q9 4 17.5 25t8.5 32v139q-7 9 -39 9q-33 0 -76 -29q27 50 45 136q28 -11 48 -11q13 0 20 4v92q0 47 -36 60l-66 12q-36 9 -36 46q0 21 17.5 34.5t37.5 13.5q29 0 53 -20q0 -2 -16 -9.5t-16 -24.5
q0 -24 31 -24q27 0 65.5 24t66.5 57q46 -48 156 -67v-14q-19 -7 -36 -27.5t-20 -40.5l2 -389q4 -26 30 -36zM257 53q-26 19 -71 53q6 8 17.5 36.5t11.5 34.5v315q0 24 -7 53q-12 48 -37 48q-12 0 -24 -13q7 -10 12 -31q4 -15 7 -31l3 -269q0 -66 -2 -79q-5 -41 -30 -71
q39 -25 48 -31q28 -19 46 -39q21 15 26 24z" />
    <glyph glyph-name="J" unicode="J" horiz-adv-x="754" 
d="M702 590l-48 -32q-32 -29 -32 -68l-2 -301q-4 -34 24 -59q18 -15 36 -29q-173 -46 -304 -96q-63 -25 -130 -25q-82 0 -151 36q-91 47 -91 137q0 46 35 77q31 27 72 27q39 0 64 -25t25 -64q0 -80 -103 -92q28 -54 136 -54q55 0 105 26q65 33 70 90l3 120q0 36 -7 48
q-47 7 -139 -41q1 2 26 68q21 56 20 84q7 -1 27 -9q17 -7 21 -7q3 0 19 1h19q12 0 14 56q-10 60 -77 81q-59 11 -118 21q-60 14 -60 59q0 21 22 39t40 18q15 0 34 -10q24 -14 34 -35l-20 -8q-15 -7 -15 -16q0 -29 58 -29q46 0 110 37q60 35 93 76q46 -44 95 -67
q25 -12 95 -34zM494 228l-5 263q-2 11 -25 45q-27 40 -42 40q-16 0 -33 -19q47 -37 58 -93l-2 -331q-5 -23 -33 -79q8 -2 15 -2q67 0 67 176zM131 219q-7 4 -20 4q-29 0 -50 -22t-21 -51q0 -17 9 -37t18 -25l6 68q9 38 58 63z" />
    <glyph glyph-name="K" unicode="K" horiz-adv-x="984" 
d="M948 77q-48 -15 -84 -31q-87 -37 -100 -72q-26 41 -74 67q-42 23 -80 26q9 31 8 49q-3 47 -55 130q-48 78 -73 90v-415q0 -10 7.5 -20t17.5 -10q12 0 19.5 9t7.5 17t-6 18t-15 11q4 7 19.5 14t21.5 7q21 0 35 -19.5t14 -40.5q0 -32 -25 -50q-21 -16 -46 -16
q-82 0 -82 133v117q-1 1 0 4t-3 3q-25 0 -74 -43.5t-55 -68.5q-75 50 -145 50q-102 0 -174 -59q-4 4 -3 13q5 45 49 83q8 8 77 53q39 26 37 46q0 41 -1 142h-56q-27 -11 -65 -23q40 72 40 124q0 13 -2 22q37 -25 83 -21q10 5 1 92q-15 44 -38 44q-135 -8 -135 80q0 51 65 51
q20 0 39 -10q23 -13 28 -35l-26 -4q-8 -3 -8 -21q0 -26 42 -26q32 0 73 26.5t71 68.5q45 -45 93 -63q44 -11 88 -23q-2 -11 -18 -19q-23 -12 -25 -14q-42 -37 -42 -74l-2 -116l94 1v288q14 7 15 8q2 0 12 -5v-288q30 -6 93 31q70 42 70 88q0 45 -76 85q42 17 83 34
q72 29 108 65q57 -76 151 -94q-87 -64 -173 -128q-98 -68 -186 -97q73 -7 170 -78q69 -50 146 -130q34 -38 69 -76zM739 495q0 14 -22 44q-24 34 -43 34q-3 0 -7.5 -1.5t-5.5 -1.5q10 -16 20 -31q11 -20 11 -43q0 -8 -7 -41q11 4 29 15q25 15 25 25zM788 55q-22 22 -48 33
q-34 14 -41 18q1 2 1 8q0 46 -32 106q-44 82 -120 98q114 -126 106 -227q23 -4 67 -33t43 -29q4 0 14 11t10 15zM459 336h-86v-164l36 -28q31 -22 49 -22zM336 62q-33 20 -128 41q20 4 41 27v316v78q-5 41 -25 52q-13 -5 -35 -14q16 -8 16 -72v-356q-15 -5 -32 -13
q-39 -22 -79 -61q66 12 80 12q90 0 142 -36q19 19 20 26z" />
    <glyph glyph-name="L" unicode="L" horiz-adv-x="846" 
d="M793 543q-60 -10 -89 -107q-53 83 -107 83h-13q-1 1 10 14q14 17 14 37q0 31 -33 53q-29 20 -58 17v-453q58 -9 106 -21q116 -30 165 -68q-41 -3 -92 -32q-33 -18 -76 -50q-35 -27 -37 -27q1 0 -19.5 15t-32.5 15l-21 3q2 -36 2 -74q0 -51 25 -51q9 0 18 7t9 18
q0 15 -14 30q5 14 32 14q17 0 30.5 -15.5t13.5 -30.5q0 -29 -30 -48q-25 -16 -48 -14q-66 5 -66 106q0 75 1 69q-48 25 -148 25q-49 0 -146 -29t-130 -54v18q0 30 53 79q65 60 66 61l-1 191q-9 -3 -34 -3q-33 0 -54 -11q-11 -5 -55 -36q0 15 -1 14q34 62 34 125q0 19 -3 38
q13 -11 27 -21q23 -16 63 -16q24 0 27 3v96q0 27 -7.5 37.5t-31.5 10.5q-3 0 -35 -4.5t-35 -4.5q-26 0 -49 16q-26 20 -26 50q0 26 16 44t35 18q35 0 67 -34q-1 -2 -15 -11t-14 -20q0 -25 36 -25q23 0 161.5 47.5t198.5 47.5q169 0 311 -142zM691 533q0 58 -57 85
q9 -19 9 -38v-10.5v-8.5q0 -27 45 -49q0 4 1.5 11t1.5 10zM491 644h-15q-32 0 -61.5 -38t-27.5 -66l-1 -346q2 0 104 -4zM624 62q-74 38 -174 51l-126 2q-39 0 -56 -2v390q-1 14 -9 44q-11 41 -25 41q-13 -5 -35 -11q17 -30 20 -43v-31v-313v-61q0 -22 -29 -43
q-45 -33 -49 -37q103 42 208 42q94 0 240 -58q14 9 35 29z" />
    <glyph glyph-name="M" unicode="M" horiz-adv-x="1079" 
d="M1026 88q-62 -19 -176 -104q-35 24 -66 43q-74 46 -115 60q76 57 75 95l-1 343q-13 -7 -159 -335l51 -105q-58 -24 -78 -47q-24 -28 -24 -82q0 -77 46 -77q32 0 32 28q0 20 -21 30q3 4 3 6l-2 2l5 1q39 4 64 -15q22 -16 22 -41q0 -27 -23.5 -44.5t-45.5 -16.5
q-83 1 -101 81q0 20 -2 65q-3 37 -45 71q-38 31 -74 36q8 20 8 23l-6 36l-184 358q-7 -6 -5 -30q2 -29 0 -36v-110q0 -177 146 -237q-80 -19 -173 -100q-22 36 -72 65q-43 22 -86 45q39 8 91.5 63t52.5 97v56q-7 4 -30 4t-48 -10l-62 -28q34 84 39 160q38 -19 106 -12
q-2 36 -2 51q0 54 -3 61q-7 14 -49 14q-2 0 -14 -1h-15q-34 0 -59 12q-35 18 -35 56q0 21 19 36t38 15q38 0 59 -44l-17 -7q-13 -5 -13 -18q0 -20 30 -21q65 0 110 28q30 19 51 52q17 24 18 23q21 -17 41 -34q29 -24 53 -35q34 -16 41 -19q15 -6 41 -11q0 -1 1 -6t1 -8
q-42 -29 -39 -62l75 -158q2 23 2 302h25l-1 -341l34 -80q119 237 119 296q0 41 -33 63q44 15 89 29q73 28 116 69q47 -41 85 -62q25 -14 86 -38q-27 -20 -54 -39q-28 -22 -27 -49l1 -343q1 -21 34 -44q26 -17 50 -25zM881 52q-14 15 -46 34.5t-38 25.5q10 6 17.5 26t7.5 34
v356q-9 18 -18 31q-20 31 -36 32q-5 0 -52 -15q65 -18 65 -77l1 -333q-8 -23 -12 -32q-11 -22 -26 -31q50 -25 68 -39q6 -4 23 -22q14 -13 17 -13q4 0 15 8.5t14 14.5zM544 54q-39 40 -68 84l-229 449q-20 -8 -46 -18q15 -16 29 -46q18 -38 26 -49q70 -110 167 -333
q3 -7 0 -19q-2 -12 1 -19q31 0 103 -72q6 8 17 23zM199 175q0 6 -13 32q-35 -66 -83 -101q17 -10 46 -36q26 -24 27 -24q5 0 12 8t8 12q-18 14 -49 40q6 6 26 31q26 31 26 38z" />
    <glyph glyph-name="N" unicode="N" horiz-adv-x="995" 
d="M952 586q-70 -19 -107 -75q-31 -48 -31 -109l-1 -173q27 -31 82 -78q-51 -16 -82 -71q-26 -46 -28 -100l-256 230v-252q2 -21 4 -41q7 -32 30 -32q5 0 16.5 9t11.5 14t-7 20.5t-12 16.5q8 11 28 11q22 0 39.5 -17t17.5 -37q0 -67 -69 -67q-90 0 -90 126q0 11 1 27.5
t1 22.5v227q-90 84 -242 217q-3 -2 -3 -13v-145q-5 -57 41 -126q49 -72 110 -83q-45 -28 -90 -57q-66 -45 -84 -78q-49 40 -97 79q-35 28 -76 41q87 57 115 87q47 49 47 114q0 5 -1 26l-55 -4q-18 0 -79 -28l54 142q26 -19 83 -15v65q0 24 -46 51q-39 22 -51 22
q-27 -13 -76 -3q-25 0 -42.5 23t-17.5 49q0 25 24 39q18 11 39 11q18 0 32.5 -12.5t17.5 -29.5q-20 -7 -22 -9.5t-2 -13.5q0 -20 28 -20q46 0 103 53q50 46 50 64q0 2 -2 2q36 -40 82 -59l118 -40q-6 -11 -6 -22q0 -28 47 -63v133h25v-152q95 -88 255 -228v171q0 25 -30 63
q-29 34 -60 53q-59 34 -62 33q96 38 155 110q29 -31 91 -62q39 -19 79 -37zM817 615q-27 20 -29 20l-29 -24.5t-52 -28.5q31 -14 62 -52q14 -18 27 -36l13 25q-6 13 -13 23q-16 25 -37 33q23 12 58 40zM779 89q0 3 -67 64q-97 86 -103 93q-93 87 -185 175q-172 159 -195 159
q-3 0 -25 -11.5t-26 -14.5q73 -36 250 -203q282 -267 333 -312q3 6 10.5 26t7.5 24zM259 164q0 4 -16 34q-26 -57 -116 -117q31 -7 70 -41q36 -31 35 -31q3 0 10 10t13 15q-13 19 -33.5 31t-39.5 22q77 63 77 77z" />
    <glyph glyph-name="O" unicode="O" horiz-adv-x="985" 
d="M919 369q0 -268 -323 -358v-49q-2 -55 18 -67q9 -5 20 -5q29 0 26 27q-2 15 -7 21.5t-12 14.5q1 1 1.5 3.5t3.5 2.5q23 0 40 -14.5t17 -36.5q0 -25 -22.5 -40.5t-42.5 -15.5q-49 0 -64 59q-7 29 -6 97q-34 0 -66 -7t-107 -7q-130 0 -252 94q-139 108 -139 262t133 251
q115 84 252 84q8 0 31 -6q-24 -14 -49 -29q-35 -22 -58 -49h20q23 0 65 22q62 33 85 42q58 22 120 22q131 0 223.5 -94.5t92.5 -223.5zM804 375q0 52 -26 125q-35 100 -97 138l-30 11q94 -114 94 -281q0 -192 -97 -304q79 25 123 135q33 86 33 176zM710 374q0 68 -28 151
q-34 100 -83 119v-574q111 105 111 304zM418 161v433q-24 -7 -41 -19v-431q14 5 41 17zM571 54l-1 597l-23 -4q-22 0 -36 -49v-413q11 -7 21 -24q-182 -79 -201 -79q-7 0 -10 6q21 41 21 164l-2 318q-3 3 -14 4t-15 0q-86 -38 -86 -189q0 -15 1 -36.5t1 -25.5
q0 -302 232 -298q79 1 112 29zM296 635q-119 -18 -189 -103q-65 -78 -65 -185q0 -97 57 -175q62 -86 172 -117q-99 75 -138 141t-39 158q0 89 52 158q48 63 150 123z" />
    <glyph glyph-name="P" unicode="P" horiz-adv-x="876" 
d="M817 589q-10 -20 -19 -38.5t-9 -51.5q0 -52 26 -88q-52 -14 -151 -61q-66 -32 -140 -32q-34 0 -78 5v-373q0 -10 9.5 -27t19.5 -17q29 0 29 37q0 12 -14 22l26 8q24 0 39.5 -15t15.5 -38q0 -31 -22.5 -51t-53.5 -20q-81 0 -81 137q0 109 2 96q-91 -30 -171 -92
q-60 43 -196 107q4 3 82 61q18 13 16 37q1 38 1 127l-4 4h-31q-47 1 -100 -42q27 66 32 85q13 46 9 93q16 -8 31 -14t37 -6h28v83q0 44 -45 44q-7 0 -22 -1.5t-22 -1.5q-24 0 -46 15t-22 39q0 27 18.5 43.5t45.5 16.5q19 0 54 -17q-19 -28 -19 -33q0 -26 21 -26
q43 0 167.5 40t202.5 40q75 0 171 -33q82 -31 163 -62zM680 516q1 32 -23 69q-27 43 -69 54q49 -56 49 -138q0 -38 -26 -82.5t-59 -62.5q59 5 94 55q32 45 34 105zM599 513q0 58 -37.5 97t-95.5 39q-9 0 -16 -8v-283h20q55 0 94 51q35 47 35 104zM422 366l1 274
q-20 -4 -45 -21q-28 -19 -28 -37q0 -12 -1 -61q-1 -37 -1 -60q0 -81 74 -95zM419 332q-18 7 -36 15t-32 22q-2 -36 -2 -187q0 -43 70 -76v226zM269 57q-16 15 -44 30q-24 12 -48 25q33 24 38 29q21 20 21 38v322q0 23 -10 54q-13 40 -33 40q-10 0 -28 -9q10 -8 19 -47
q5 -27 6 -36v-211v-116q0 -16 -71 -70q45 -20 124 -67z" />
    <glyph glyph-name="Q" unicode="Q" horiz-adv-x="971" 
d="M912 342q0 -80 -58 -169t-151 -143l181 -19q-2 -7 -20 -12l-26 -6q-83 -26 -129 -61q-32 -23 -46 -50q-11 -21 -13 -21q-60 56 -200 56q-157 0 -273 -63q15 55 139 131q-146 28 -233 126q-83 94 -83 218q0 144 126 259q121 109 259 109q8 0 12 -8q-110 -61 -149 -165
q-26 -69 -26 -191q0 -112 34 -194q49 -117 153 -117q7 0 26.5 -1.5t31.5 -1.5q90 0 87 78v549h-4q-54 0 -54 -78q0 -12 1 -32q1 -16 1 -20v-330q1 -5 21 -24l-102 -28q-83 -25 -117 -47q0 1 -1.5 4.5t-1.5 6.5q0 1 17.5 32.5t18.5 45.5v350q-5 22 -24 30q-5 2 -31 7l-1 13
q24 10 182 86q53 26 92 26h27h29q133 -8 223 -121q82 -103 82 -225zM700 349q0 94 -23 170q-30 100 -91 123v-568q114 106 114 275zM790 347q0 83 -34 177q-44 121 -114 123q47 -48 73 -141q23 -79 23 -156q0 -119 -52 -217q-67 -126 -193 -143h29q127 0 206 136
q62 109 62 221zM414 524q0 28 -10 62q-15 -3 -44 -13q12 -23 12 -40l1 -365q15 5 41 15v341zM677 -52q-59 20 -111 20q-17 0 -33 -3q-3 0 -13.5 -7t-12.5 -7q24 -1 84 -18t51 -17q3 0 18.5 13.5t16.5 18.5zM283 35q-193 93 -193 291q0 91 37 158q41 74 139 147
q-116 -48 -176 -132q-55 -77 -55 -172q0 -100 62 -177q66 -84 186 -115z" />
    <glyph glyph-name="R" unicode="R" horiz-adv-x="897" 
d="M842 81q-112 -35 -152 -111q-79 91 -155 92q18 54 18 94q0 62 -23 114q-34 74 -104 74l-1 -372q0 -62 20 -62q27 0 27 36q0 13 -5 19q8 3 22 3q50 0 50 -48q0 -27 -22 -49.5t-46 -21.5q-42 3 -60 33q-14 23 -17 73v130q-33 0 -108 -53q-69 -48 -71 -60q-66 55 -85 68
q-49 36 -93 49q2 8 25 18q32 14 41 20q38 27 39 83l-1 115q-37 1 -48 1q-32 0 -48 -8q-31 -16 -40 -19q26 51 36 98q2 16 3 32l101 -1q-1 6 -1 51q0 35 -1 40q-7 33 -40 33l-47 1q-23 0 -43 17.5t-20 39.5q0 26 18 43t38 17q9 0 25 -8q20 -12 19 -27q-23 -5 -23 -22
q0 -28 41 -28q15 0 153.5 43t234.5 43q65 0 151 -31q121 -45 121 -120q0 -137 -255 -162q61 -12 129 -68q73 -59 105 -129q11 -26 47 -50q22 -15 45 -30zM665 520q0 32 -27 67q-32 40 -73 42q45 -65 45 -105q0 -78 -40 -124q47 10 74 53q21 34 21 67zM572 525
q0 48 -34.5 77.5t-83.5 29.5q7 0 -16 3q-10 1 -10 -7v-97q0 -165 0 -153q90 19 120 54q24 29 24 93zM398 372v250q-35 -10 -50 -21q-22 -18 -18 -49v-180h68zM706 50q-33 25 -76 63q2 155 -87 198q43 -86 43 -171q0 -27 -4 -53q32 -11 108 -63q10 10 16 26zM395 158v186
q-33 2 -65 0l1 -172q-2 -25 19 -43q18 -16 44 -20q1 31 1 49zM239 46q-30 16 -74 49q55 37 55 97v380l-19 -4q-8 1 -38 -9q14 -14 14 -80l-1 -283q-4 -31 -11 -48q-14 -31 -48 -56q35 -21 100 -66q18 8 22 20z" />
    <glyph glyph-name="S" unicode="S" horiz-adv-x="835" 
d="M780 199q0 -97 -95 -145q-55 -28 -179 -49q-101 -16 -106 -34q-10 15 -60 55q-55 44 -75 44l-27 -26q-32 -30 -67 -47q-52 -26 -108 -26q-23 0 -42 13q-22 15 -22 39q0 76 92 133q67 42 116 47q83 8 124 0q7 0 33 42q-2 0 -107 28q-91 25 -139 60q-69 50 -69 131
q0 125 108 180q74 37 182 37q79 0 145 -24q46 -17 84 -46q32 -24 31 -24l11.5 13.5t26.5 22.5q22 13 49 13q23 0 40.5 -13.5t17.5 -39.5q0 -56 -63 -56q-33 0 -43 4q1 5 14 11t13 22t-9 20q-3 1 -17 1q-25 0 -75 -67q-48 -63 -48 -84q0 -4 69 -23q81 -23 127 -61
q68 -56 68 -151zM515 514q0 38 -74 83q-63 39 -83 39l-72 -5q159 -51 216 -157q13 20 13 40zM476 439q-44 76 -121 122q-70 42 -132 42q-92 0 -92 -46q0 -39 154 -83q131 -37 160 -36zM732 144q8 109 -149 150l-300 58q-166 45 -174 161q0 3 -3 10.5t-3 11.5
q-18 -21 -17 -59q2 -75 66 -122q47 -35 129 -56q51 -11 103 -21l176 -31q41 -3 89 -37q55 -40 55 -86q0 -7 -1 -15q27 19 29 36zM668 117q0 58 -114 97q-86 30 -140 30q-11 0 -21.5 -16t-20.5 -31q101 -7 228 -137q22 0 42 12q26 16 26 45zM459 37q-38 39 -108 76
q-64 35 -97 38q-14 2 -27 2q-22 0 -42.5 -4.5t-19.5 -4.5q-2 0 -14.5 -6t-14.5 -6q59 -4 98 -11q43 -9 87 -36q30 -18 60 -45q25 -22 24 -22q5 0 28 7.5t26 11.5zM225 85q-44 15 -101 15q-30 0 -55 -10q-38 -17 -38 -55q0 -33 57 -33q36 0 81 28t56 55z" />
    <glyph glyph-name="T" unicode="T" horiz-adv-x="918" 
d="M836 526q1 -45 13 -87q16 -58 18 -69q-9 -1 -14 -1q-71 9 -128 79l-58 86l1 -440q0 -5 -1 -25q-1 -25 -1 -39q0 -92 32 -95q22 -2 25 25q2 16 -14 30q8 16 28 16q21 1 35 -13t15 -35q0 -25 -19.5 -41.5t-45.5 -19.5q-36 -4 -59 18.5t-24 55.5v117q-123 -29 -212 -101
q-2 0 -31 21q-32 24 -40 29q-36 20 -79 30l-76 16l-1 15q121 15 133 120q3 26 1 101q-7 2 -53 0q-28 -1 -58 -19q-21 -12 -42 -25q19 39 34 83q11 35 22 69q19 -20 40 -20q38 1 59 0l-1 126q-1 49 -5 65q-10 40 -45 43q-31 2 -78 -70q-88 -135 -89 -137q-59 -74 -116 -75
q28 105 28 162q0 102 -20 154q34 -18 90 -17l159 21q48 1 94 -13q31 -10 61 -28l26 -14q18 16 39 28q51 28 118 29q43 1 96 -12t72 -13q50 1 105 21q0 -5 -17 -60t-17 -91zM828 412q-37 65 -74 131t-41 86q0 3 -24 4q-13 1 -27 1q52 -102 54 -105q40 -63 112 -117zM639 598
q-15 48 -44 47q-54 -1 -61 -95v-138l-1 -206q1 -48 26 -75t62 -27q17 0 18 5v21v468zM450 49q-38 33 -80 55q43 34 42 112l1 328q0 25 -21 52q-16 21 -28 26q2 -15 6 -43v-164q0 -86 1 -172q-6 -109 -67 -142q23 -9 75 -43l48 -31q5 0 14.5 9.5t8.5 12.5zM102 516q0 13 1 32
q1 16 0 28q-1 18 -6 46q-21 -1 -41 3l7 -28q0 -3 2 -79q2 -52 -15 -105q53 48 52 103z" />
    <glyph glyph-name="U" unicode="U" horiz-adv-x="1027" 
d="M981 590q-114 -18 -146 -168q2 -92 0 -162q8 -48 15 -67q14 -39 49 -82q-29 -5 -98 -39q-89 -44 -125 -58q-78 -29 -138 -28q-1 7 -1 -36q0 -51 26 -53q32 -2 32 35q0 14 -7 24q27 8 22 8q14 0 32.5 -15.5t18.5 -31.5q0 -30 -29 -48q-23 -13 -50 -15q-73 -3 -73 89
q0 8 3 43q-97 2 -193 39l-82 42q-66 34 -104 39q59 47 57 213q-19 1 -64 1q-32 0 -51.5 -11t-39.5 -22q15 33 29 67q24 55 20 81q26 -14 68 -18q17 -1 34 -1q6 14 6 27q0 57 -14 81q-19 33 -71 35.5t-75 12.5q-39 17 -39 58q0 17 18 33.5t35 17.5q47 1 56 -45l-16 -6
q-11 -4 -11 -20q0 -21 33 -21q38 0 86 31q26 17 81 63q31 -37 86 -65q43 -20 85 -40q-16 -11 -33 -22q-24 -18 -22 -39l1 -392q0 -56 117 -95q1 45 1 627h24l1 -314q17 1 26 1q61 0 108 54q37 -57 113 -57h21q-1 27 -1 82q0 90 -155 162q37 6 87 34.5t81 63.5
q57 -62 166 -93zM828 520q0 14 -21 45.5t-31 31.5q-5 0 -22.5 -7.5t-19.5 -11.5l52 -40q14 -13 34 -51q8 14 8 33zM804 293q0 30 -1 31q-4 0 -11.5 -1t-9.5 -1q-74 0 -113 -53q-30 56 -108 56q-8 0 -26 -1v-298q130 0 199.5 69.5t69.5 197.5zM441 15q-3 2 -105 64
q-62 37 -93 66q17 34 22 69q3 20 3 73v171q1 31 -14 84t-28 55q-3 1 -19 -10q-19 -13 -21 -14q30 -28 36 -59l4 -62v-165q0 -87 -12 -127l-20 -38q36 -15 132 -64q53 -27 115 -43z" />
    <glyph glyph-name="V" unicode="V" horiz-adv-x="1006" 
d="M988 595q-127 -66 -169 -143l-90 -158q-71 -129 -71 -144q0 -21 26.5 -30.5t54.5 -19.5q-4 -5 -47 -22q-48 -18 -72 -36q-38 -28 -41 -66q-4 -47 32 -47q19 0 19 23q0 11 -4 18h1q2 -1 5 -1q26 0 41 -24q12 -20 12 -39q0 -58 -61 -49q-11 2 -30 19q-22 20 -26 40
q-17 79 -86 133q-65 50 -133 45q7 0 0 3q1 3 23 22q18 16 18 45q0 23 -75 147h-59q-75 0 -127 -39q36 84 35 159q23 -15 24 -15q17 -8 46 -8q12 0 27 -1l-52 75q-37 73 -100 73h-16q-13 -1 -17 -1q-77 0 -77 64q0 21 16 36.5t34 15.5q46 0 55 -42q-6 0 -13.5 -7t-7.5 -17
q0 -24 27 -24q76 0 140 100q46 -24 87 -42q97 -44 149 -47q0 -1 -31.5 -23.5t-31.5 -51.5q0 -20 136 -247l-2 409h32v-444l41 -58q131 235 131 283q0 54 -28 85q-28 23 -55 47q36 16 98 56l56 37q2 0 14 -13t20 -18q30 -16 60.5 -32.5t61.5 -25.5zM855 622q-13 13 -26 19
q-28 -18 -83 -56q33 -33 35 -36q16 -22 18 -58q14 11 18 43q2 16 -10 30.5l-12 14.5q0 3 24 17q28 17 36 26zM572 62q0 17 -44 49q-33 23 -60 36q9 23 9 32q0 16 -22 49q-2 3 -129 217q-87 148 -109 148q-4 0 -18.5 -9.5t-17.5 -14.5q25 -5 134 -188.5t109 -208.5
q0 -40 -10 -54q36 -1 81 -38q31 -27 61 -54q16 24 16 36z" />
    <glyph glyph-name="W" unicode="W" horiz-adv-x="1281" 
d="M1245 597q-99 -42 -152 -122q-26 -40 -69.5 -145.5t-43.5 -129.5q0 -33 21 -51q12 -9 45 -23t47 -28q-132 -31 -214 -106q-43 46 -92 69q-31 14 -99 31q20 16 39 33q29 28 29 53q0 23 -46 117q-33 68 -49 96v-415v-47q5 -33 27 -33q27 0 27 27q0 13 -7 19.5t-14 12.5
q22 8 26 8q27 0 44.5 -18t17.5 -40q0 -28 -27 -46q-23 -16 -48 -16q-31 0 -54.5 23t-22.5 55v525q-15 -27 -56 -131q-43 -109 -43 -125q0 -30 22.5 -58t56.5 -33q0 -1 2.5 -2t2.5 -2q-71 -26 -94 -38q-53 -27 -94 -73q-66 65 -173 92q75 30 65 95q-3 19 -64 152
q-4 -1 -16.5 0.5t-20.5 1.5q-51 0 -104 -61q-1 1 -6 2t-5 4q0 -1 16 62t16 89q0 8 -1 13q34 -19 61 -23q14 -1 27 0q-17 68 -34 97q-28 48 -75 48h-57q-24 0 -42 25q-17 22 -17 43q0 19 19 35.5t37 16.5q44 0 51 -48v1t-3 1q-27 0 -27 -24q0 -20 28 -20q36 0 73 28
q25 18 52 51q22 28 23 28q-4 0 68 -47q76 -49 124 -58q-15 -13 -29 -27q-18 -19 -18 -41q0 -18 116 -283l99 252q-31 83 -113 100q44 17 184 106q-1 0 75.5 -49.5t101.5 -46.5q-33 -22 -42 -40q-4 -7 -8 -38l140 -281q9 17 47 110q45 112 45 140q0 44 -30 70q-20 17 -55 26
q-30 8 -30 7q48 29 65 39q68 42 82 58q30 -24 80 -47q46 -19 92 -39zM1110 545q0 11 -17 30q-11 11 -21 22q8 11 28 32q-9 9 -25 13q-24 -14 -62 -41q58 -34 66 -87q7 9 19 19t12 12zM915 68q-40 32 -101 63q22 34 25 59q3 33 -88.5 211t-127.5 207q-3 2 -20.5 -9.5
t-18.5 -12.5q30 -22 116 -184q89 -170 89 -224q0 -22 -10.5 -38.5t-21.5 -32.5q29 -3 77.5 -35.5t46.5 -32.5q4 0 18.5 12.5t15.5 16.5zM459 64q-11 8 -77 39q17 16 17 41q0 6 -1.5 13.5l-1.5 7.5q0 14 -50 141q-56 144 -58 148q-10 33 -32 73q-35 63 -65 63q-15 0 -38 -16
q41 -26 54 -46q9 -14 32 -75q31 -83 74 -174q14 -29 31 -76q15 -43 15 -48q0 -40 -34 -67q38 -14 102 -56z" />
    <glyph glyph-name="X" unicode="X" horiz-adv-x="999" 
d="M966 81q-97 -25 -113 -32q-52 -22 -97 -72q-78 85 -235 109q36 26 36 49t-43 82l-62 78q-75 -82 -108 -133q35 -9 71 -30q33 -21 65 -41q-71 -13 -115 -35q-50 -25 -94 -76q-24 27 -70 43q-40 14 -81 14q-45 0 -149 -35q36 71 116.5 123.5t159.5 52.5q5 0 54 -6
q42 48 62 71q34 41 57 75q-6 1 -17 1h-7q-50 0 -67 -7q-25 -12 -50 -23q4 13 28 56q19 36 20 56q5 0 16 -3t16 -3q24 0 27 1q-32 59 -97 109q-71 56 -132 56q-8 0 -23 -1t-22 -1q-34 0 -60 15q-29 19 -29 50q0 28 18.5 44.5t46.5 16.5q21 0 39 -15.5t22 -36.5h-5
q-12 0 -26 -8.5t-14 -19.5q0 -9 12 -16q9 -6 19 -6q41 0 181 103q3 -1 64 -24q50 -20 149 -54q-3 -5 -18 -21q-12 -12 -12 -24q0 -22 54 -83q46 55 92 111q80 94 87 94q-5 0 28.5 -23.5t71.5 -23.5q25 0 46 10q6 3 39 25q1 -9 1 -15q0 -62 -57.5 -113t-119.5 -51
q-53 0 -100 36q-15 -14 -69 -76l50 -59h49q35 0 65.5 7.5t62.5 16.5q-4 -16 -23.5 -52t-26.5 -63q-43 18 -66 7q43 -62 62 -88q38 -50 72 -80q29 -27 69.5 -39t79.5 -23zM760 622q-22 16 -25 16q-8 0 -68 -83q36 -29 76 -27h7q-23 16 -36 36q16 19 46 58zM773 50
q-8 19 -70.5 50.5t-62.5 37.5q0 20 -10 37.5t-21 35.5q-55 98 -131 203q-97 134 -158 176q-23 16 -32 16q-14 0 -49 -29q93 -18 293 -326q18 -26 50 -77q2 -12 9 -36q3 -6 0 -14q-5 -12 -6 -16q30 -5 86 -34q50 -25 81 -48zM293 54q-61 48 -141 48q-60 0 -79 -33q63 8 62 8
q62 0 107 -27q33 -20 29 -20q7 0 22 24z" />
    <glyph glyph-name="Y" unicode="Y" horiz-adv-x="1022" 
d="M982 594q-108 -31 -233.5 -148.5t-125.5 -184.5q0 -163 88 -169q0 -2 1.5 -6t1.5 -6q-84 -24 -119 -49q-51 -37 -51 -104q0 -54 37 -54q19 0 19 32q0 6 -5 17q-7 15 -15 18q19 6 26 6q52 0 52 -49q0 -27 -18.5 -43t-44.5 -18q-37 -3 -61 13t-24 42q-12 30 0 65
q0 44 -89 88q-48 19 -96 39q0 8 21 17q32 12 44 21q23 16 23 60q0 9 -1 24t-1 20q0 30 -68 104q-49 0 -68 -4q-49 -10 -84 -47q-2 -2 -4 -2q-5 0 -6 11q0 4 14.5 33.5t14.5 60.5q0 20 -5 42q5 4 21 -2h31q-32 53 -71 96q-43 46 -61 42h-31q-30 -4 -58 6q-42 16 -42 57
q0 57 58 57q38 0 56 -30q-5 -8 -18.5 -10t-13.5 -14q0 -31 29 -31q45 0 113 44l68 44q-1 0 69 -39t99 -44q-30 -30 -30 -50q0 -29 81 -110v232q14 -1 31 0v-272l64 -70q101 120 101 175q0 75 -77 94q45 14 91 29q52 20 83 55q58 -51 184 -83v-5zM824 617q-8 7 -21 16
q-22 -15 -46 -31t-42 -18q26 -30 29 -56v-34l36 27q0 11 -8 27t-9 24q34 13 61 45zM557 47q-9 11 -39 29q-22 13 -45 27q3 5 18 19q8 7 6 29q0 4 2 64q2 47 -5 58q-65 82 -130 163q-90 113 -138 161q-3 0 -25 -8.5t-24 -8.5q82 -95 164 -189q89 -104 105 -145q6 -14 7 -35
q1 -15 0 -33q-1 -24 -1 -18q0 -35 -23 -54q-17 -13 -21 -12q36 -11 71 -37q25 -22 51 -43q1 5 14.5 18t12.5 15z" />
    <glyph glyph-name="Z" unicode="Z" horiz-adv-x="861" 
d="M824 69q-39 -5 -85 -42t-45 -37l-39 25t-54 29q-56 17 -148 17h-68q-4 -42 -4 -62v-91q0 -6 15.5 -15.5t21.5 -9.5q31 0 31 37q0 3 -5 33q51 -19 51 -58q0 -29 -24 -47q-20 -15 -42 -15q-57 0 -74 63v163h-24q-74 0 -186 -83q-22 82 -140 136q207 192 239 222
q149 141 149 155v112q-1 0 -14 -1h-16q-54 0 -125 -60q-67 -57 -88 -113q-39 141 -118 199q47 4 96.5 36.5t46.5 32.5q-1 0 33 -24.5t58 -28.5q97 -14 125 -14q157 0 316 59q26 -58 27 -59q17 -30 50 -53l-404 -375l2 -109q93 -2 198 64q110 69 132 156q6 -25 21 -91
q5 -25 31 -71q30 -56 60 -80zM517 591q-15 8 -75 8l-8 2q-6 1 -13 0q-7 -53 0 -98q23 18 96 88zM703 183q0 7 -4.5 19t-8.5 14q-18 -48 -124 -116q57 -8 120 -57q18 13 20 22q-16 8 -35 26t-27 22q59 44 59 70zM202 626q-20 20 -23 20q-12 0 -76 -39q33 -49 57 -92
q16 16 16 34q0 -1 -23 45q31 18 49 32zM685 632q-30 -2 -67 -9q-111 -86 -284 -248q-218 -204 -279 -257q55 -18 110 -89q5 0 24 13q-12 25 -24 49q-17 28 -40 36zM355 91v89q-26 -19 -52 -37q-33 -25 -49 -50q34 -5 47 -5q57 0 54 3z" />
    <glyph glyph-name="bracketleft" unicode="[" horiz-adv-x="210" 
d="M1 671l-1 -721q31 -2 75 -19.5t73 -39.5q0 3 -1 31l-66 69v639l65 65v29q-49 -39 -145 -53z" />
    <glyph glyph-name="backslash" unicode="\" horiz-adv-x="404" 
d="M24 720l292 -731h58l-292 731h-58z" />
    <glyph glyph-name="bracketright" unicode="]" horiz-adv-x="210" 
d="M151 -55l1 720q-30 3 -74.5 20.5t-73.5 38.5q0 -3 1 -30l66 -69v-639l-65 -66v-29q50 39 145 54z" />
    <glyph glyph-name="asciicircum" unicode="^" horiz-adv-x="303" 
d="M316 769l-15 -22l-136 60l-148 -56l-13 18l158 119z" />
    <glyph glyph-name="underscore" unicode="_" horiz-adv-x="532" 
d="M570 -150h-570v50h570v-50z" />
    <glyph glyph-name="grave" unicode="`" horiz-adv-x="275" 
d="M85 639q-55 -82 -51 -85q3 -4 226 -79l15 30z" />
    <glyph glyph-name="a" unicode="a" horiz-adv-x="606" 
d="M583 71v-7q-31 -5 -80 -29q-45 -22 -74 -44q-27 34 -74 54q-43 19 -90 19q-97 0 -140 -76q-12 15 -38 41q-30 21 -84 33v11q41 9 41 44v68q0 19 -13 34q-4 5 -29 24q4 8 8 7q19 -4 73 -4l103 1l8 5q-6 6 -54.5 23.5t-72.5 35.5q-37 28 -37 68q0 26 19 45.5t45 19.5
q16 0 44.5 -16t28.5 -31l-2 -4h-3q-36 1 -36 -26t41 -27q58 0 113.5 29t87.5 77h10q17 -21 77 -48q56 -24 89 -28q9 -1 27 -7v-4q-1 0 -42 -16q-25 -10 -25 -44v-175q0 -39 79 -53zM474 46q-32 21 -65 48q9 5 12 23.5t2 18.5v126q0 35 -29.5 69.5t-64.5 36.5q-17 -6 -20 -12
q43 -15 58 -46q11 -24 11 -72q-1 -83 -1 -98q3 -20 -2 -28.5t-28 -28.5q55 -30 96 -56q12 5 31 19zM350 271q0 28 -29 44q-24 13 -54 13q-23 0 -70 -8.5t-72 -7.5q60 -44 213 -66l10 3q2 26 2 22zM349 124v89q-16 9 -41 9q-40 0 -74 -19q-41 -24 -41 -61q0 -53 76 -53
q23 0 47 8q33 10 33 27zM156 62l-24 16q-20 12 -20 16v128h-51q10 -28 10 -32q0 -9 -1 -48v-32q1 -7 -12 -32q25 -6 70 -44q2 12 15 19.5t13 8.5z" />
    <glyph glyph-name="b" unicode="b" horiz-adv-x="621" 
d="M459 257q0 26 -22 49q-26 29 -70 54q-16 8 -15 9l-32 -16q47 -26 66 -43q27 -23 27 -52l1 -100l-1 -81q14 6 46 18q0 11 1 33zM385 251q-1 27 -24 39q-12 7 -74 50q0 -5 -28.5 -9t-29.5 -9q0 -62 2 -166q47 -13 136 -50q8 -4 18 -8v153zM343 48q-44 15 -130 43
q-24 4 -73 16v357q2 14 1 48q-4 18 -9 39q-1 14 -22.5 36.5t-38.5 21.5q-26 -2 -29 -12q13 -6 35 -20q11 -13 13 -28.5t3 -30.5q1 -124 2 -371q0 -31 -1 -35q-5 -13 -14 -35q15 -3 40 -7q62 -6 120 -27q65 -24 66 -24q4 0 19 12t18 17zM586 85l-3 -14q-6 -1 -17.5 2.5
t-16.5 3.5q-132 0 -235 -95q-164 66 -274 66q-1 0 -6.5 -2t-6.5 -2l-4 15q33 20 41 50q3 13 3 73v329q0 32 -26 58t-49 27q-1 0 0 13q94 31 136 71q70 -48 131 -52l1 -5q0 -3 -15.5 -28t-15.5 -42v-199q16 -4 81 27t83 54l3 1q50 -33 85 -47q30 -12 93 -27v-7
q-37 -24 -37 -42l-1 -169q0 -27 9 -37q2 -2 31 -20z" />
    <glyph glyph-name="c" unicode="c" horiz-adv-x="489" 
d="M443 356q0 -4 -25 -18q-34 -20 -77 -104l-12 1q-17 46 -24 58q-15 27 -46 43q-23 13 -34 13q-5 0 -17 -6v-179q50 -22 150 -58q26 -4 78 -13l2 -7l-2 -5q-36 -8 -76 -29q-44 -24 -63 -50q-2 -4 -8 -11h-4q-2 0 -31 17q-62 36 -146 51q-32 2 -97 12l-3 4l3 9l16 4
q2 3 21 18q12 8 12 36v126q0 36 -13 50q-7 8 -45 27v15l3 1q2 0 7 -2t8 -2q104 0 162 16q49 13 149 63q37 -37 40 -39q18 -15 49 -30q23 0 23 -11zM357 323q-1 7 -32 33.5t-38 27.5l-25 -13q41 -25 59 -50q5 -8 17 -24q8 10 19 26zM309 57q-36 15 -108 44q-23 6 -70 21
q0 6 -4.5 18t-4.5 18l1 133q0 35 -9 47q-13 1 -40 -3q14 -23 14 -46l-1 -149q0 -26 -14 -45q120 -18 204 -66z" />
    <glyph glyph-name="d" unicode="d" horiz-adv-x="571" 
d="M534 580q0 -6 -16 -14.5t-16 -23.5v-384q0 -15 13 -37.5t26 -32.5l-4 -11q-14 4 -37 4q-66 0 -119 -26q-33 -17 -96 -68q-115 78 -260 78q-2 0 -11 -4q-6 -3 -6 1v18q19 17 25 23q15 16 15 30q1 36 1 131q0 45 -16 58l-28 12l1 14q121 38 181 81q28 -22 72 -44
q51 -24 80 -23l1 2q2 41 1 140q-88 51 -190 102l-73 2q1 -1 -2 12q13 3 39 8q98 21 187 56q149 -92 232 -93v-11zM411 539l-174 96l-44 -12q12 -12 174 -99q2 -91 1 -152l-1 -290l44 21v436zM341 325q-15 3 -41.5 15t-40.5 12q-54 0 -54 -52q0 -6 1 -19t1 -20q0 -35 1 -85
q44 -19 133 -67v216zM312 56q-18 11 -50 26q-80 32 -146 41q4 21 6 138q1 35 -5 49q-8 18 -37 36q-13 -6 -19 -9q17 -18 17 -67q0 -11 1.5 -42t1.5 -48q0 -61 -18 -89q44 -3 110.5 -23.5t105.5 -41.5q27 14 33 30z" />
    <glyph glyph-name="e" unicode="e" horiz-adv-x="550" 
d="M520 275q-120 -24 -148 -32q-88 -24 -156 -65v-16q-10 3 -12 3v0q0 -4 96 -35q100 -33 131 -33q24 0 79 12q0 -7 2 -21q-52 0 -123 -31q-48 -21 -84 -48q-28 -20 -29 -20q-2 0 -46 21q-47 22 -58 26l-116 38q-34 11 -47 9q8 1 29.5 26t20.5 38v131q-8 37 -9 40
q-10 25 -41 44q110 21 163 36q95 25 158 57q10 -35 76 -90zM400 284l-132 115l-42 -15q121 -114 131 -114q6 0 43 14zM321 261q-37 34 -104 94v-137q28 7 104 43zM304 55q-103 53 -175 65l-1 174q-1 15 -3 31q-2 12 -11 28q-11 -1 -41 -10q15 -18 15 -58q0 -11 -1.5 -29.5
t-1.5 -23.5q0 -125 -8 -138q32 -11 124 -39l70 -31q10 -1 33 31z" />
    <glyph glyph-name="f" unicode="f" horiz-adv-x="407" 
d="M445 621q-25 -28 -51 -56q-33 -39 -35 -69q-2 0 -6 -1t-5 -1q-16 32 -31 64q-27 48 -60 48q-8 0 -15 -7l1 -171h44q12 0 33.5 7t29.5 8q-9 -44 -28 -124q-24 17 -76 13l-1 -186q13 -38 67 -58q9 -4 80 -20v-13q-15 -6 -51 -13q-53 -12 -96 -37q-38 -22 -36 -22
q-3 0 -21 11q-21 14 -28 17q-74 33 -142 36v4q1 3 1 6q46 23 60 46q11 18 11 55v172q-1 1 -40 1q-25 0 -25 -2v0q2 -3 2 -4q0 -4 -15 -9q0 1 -5 3.5t-5 6.5l14 42t17 59q18 -1 58 1q1 110 -7 138q-3 11 -20 25.5t-24 30.5q39 -1 83 -1q46 3 116 22q83 23 102 48
q55 -44 104 -70zM382 597q-10 7 -36 29q-19 17 -23 17l-27 -16q20 -13 37 -38q10 -15 20 -31q13 16 29 39zM276 46q-3 0 -12 2t-12 2q-7 0 -88 50v443q0 14 -6 33q-7 24 -17 24t-41 -6q6 -12 11 -22.5t5 -26.5v-389q0 -58 -29 -88q48 -7 93 -28.5t34 -21.5q1 0 27 13t35 15z
" />
    <glyph glyph-name="g" unicode="g" horiz-adv-x="590" 
d="M557 365q1 -6 -18 -18q-25 -15 -36 -36q-3 -5 -3 -162q0 -64 14 -93q5 -10 25 -29q13 -12 12 -37q-3 -60 -55 -99q-47 -36 -110 -36q-49 0 -95 30q-36 27 -71 55q-41 30 -79 30q-49 0 -49 -29q0 -14 16 -14h22q0 -69 -78 -69q-53 0 -53 56q0 47 45 71q33 18 77 18
q51 0 99 -30q36 -28 73 -56q42 -31 78 -31q19 0 37 14t18 32q0 5 -32.5 66t-34.5 78q2 -2 -18 -2q-27 0 -71 -30.5t-43 -30.5q7 0 -213 79q44 25 44 93v76q5 72 -47 96q69 15 137 29q118 31 162 74q96 -70 247 -95zM355 287q-55 27 -149 77l1 -198l149 -55q0 63 -1 176z
M484 -73q-1 47 -30.5 104.5t-29.5 67.5v230q-141 70 -146 70q-4 0 -25 -7t-25 -9q17 -12 156 -77q0 -68 -2 -214q70 -121 70 -160q0 -19 -3 -24q10 3 35 19zM261 69q-52 21 -136 59q2 11 5 31v191q-19 -5 -54 -14q10 -13 11 -31v-75q0 -72 1 -65q-3 -43 -20 -59
q15 -5 92 -35q70 -28 73 -28q5 0 16 11t12 15z" />
    <glyph glyph-name="h" unicode="h" horiz-adv-x="624" 
d="M592 70q-31 -8 -74 -40q-4 -2 -32 -25q-21 -17 -24 -17q-20 22 -35 36q-40 36 -61 38v213q-15 11 -55 28q-43 18 -60 18q-12 0 -33 -7v-185q0 -14 34 -34q38 -22 42 -30q-33 -3 -97.5 -40t-61.5 -37q-60 52 -135 100q13 -3 37 12q29 19 29 48q0 6 -1 12l-2 382
q-10 29 -33 45q-19 11 -39 22q44 30 154 77q2 0 58 -29q60 -31 82 -39q-71 -27 -71 -82q0 -6 1 -13v-172q48 3 86 24q23 12 49 37q20 19 26 19q-4 0 75.5 -36t114.5 -36q0 -1 1 -5.5t1 -5.5q-13 -9 -26 -19q-21 -15 -21 -20v-177q0 -24 29 -37q36 -17 42 -25zM494 51
q-20 17 -57 51l1 203l-100 55q-15 -6 -42 -19q3 -2 97 -52l-1 -205q15 -5 41 -27q30 -27 36 -31q16 9 25 25zM171 41q-23 20 -60 49q19 19 21 40v410q0 58 -61 84q-29 -17 -35 -16q24 -9 40 -27.5t18 -33.5v-382q0 -39 -10 -55q-5 -7 -29 -26q34 -21 84 -59q2 -3 15 4t17 12
z" />
    <glyph glyph-name="i" unicode="i" horiz-adv-x="344" 
d="M265 605q-1 -5 -22 -17q-55 -32 -85 -61q-22 -21 -20 -21q-16 26 -54 52.5t-77 37.5l4 4q45 28 137 84q16 -28 54 -48q32 -16 63 -31zM303 70q-6 -5 -64 -32t-87 -55q-30 34 -143 92q8 4 34 34q28 34 27 46l-2 140q-11 38 -72 45q15 9 44 24q42 15 96 73q27 -25 83 -54
q39 -17 77 -35q-52 -11 -64 -73q-5 -20 -5 -96q0 -54 5 -66q13 -33 71 -43zM170 578q-51 36 -63 51q-13 -8 -35 -24q28 -16 69 -53q10 8 29 26zM174 56l-49 40q0 4 6.5 19t7.5 18v149q0 25 -11 49q-13 29 -35 30q-7 0 -30 -14q28 -15 34 -39q1 -4 1 -42v-130
q-3 -9 -18 -23.5t-16 -24.5q27 -14 85 -55q7 -6 25 23z" />
    <glyph glyph-name="j" unicode="j" horiz-adv-x="309" 
d="M304 356q-13 -11 -27 -21q-20 -17 -23 -42v-324q-3 -63 -54 -99q-42 -29 -97 -29q-38 0 -74 27q-43 31 -43 76q0 20 11 39q14 24 38 24q19 0 35 -22q13 -19 13 -36q0 -22 -12 -37q-2 0 -7.5 2.5t-8.5 2.5q-15 0 -15 -19q0 -22 25 -22q26 0 35 37v318q0 43 -14 65
q-20 28 -76 46q1 8 23 18.5t43.5 20.5t50.5 35q26 23 28 23t15 -12q18 -17 29 -25q36 -26 105 -46zM171 218q0 38 -16 85q-21 63 -54 63q-12 0 -37 -21q62 -38 62 -116v-318q-4 -18 -10 -39q18 3 37 24q16 20 18 36v286zM275 605q-1 -5 -22 -17q-55 -32 -85 -61
q-22 -21 -20 -21q-16 26 -54 52.5t-77 37.5l4 4q45 28 137 84q16 -28 54 -48q32 -16 63 -31zM180 578q-51 36 -63 51q-13 -8 -35 -24q28 -16 69 -53q10 8 29 26z" />
    <glyph glyph-name="k" unicode="k" horiz-adv-x="644" 
d="M606 70q-37 -15 -74 -29q-39 -20 -79 -63q-8 26 -43 59.5t-60 31.5q21 19 21 41q0 51 -36 76q-26 19 -68 23q-21 1 -41 2v-41q0 -40 7 -54q13 -26 58 -44q-2 -1 -70 -33q-57 -27 -68 -50q-82 63 -138 87q12 8 34 37q26 34 25 54v286q0 71 -6 95q-15 56 -68 60q2 3 55 31
q60 32 89 66q32 -34 72 -53q7 -4 69 -28q-2 -5 -34 -35q-25 -24 -25 -43v-301q3 -2 22 0q25 2 20 2q26 0 62 18q46 23 46 55q0 17 -25 34q-21 15 -39 18q2 5 38 16q44 15 73 36q26 19 25 19q2 0 16 -12q16 -15 23 -19q13 -9 100 -49q-30 -12 -99.5 -64.5t-95.5 -62.5
q53 -16 115 -73q49 -47 99 -93zM440 324q0 6 -15.5 31.5t-25.5 25.5q-4 0 -21 -11q24 -33 24 -50q0 -11 -7 -29q27 10 28 11q17 8 17 22zM495 62q-28 21 -50 63q-27 49 -36 60q-25 28 -69 33q64 -47 64 -111q0 -12 -2 -24q21 -11 62 -52q19 8 31 31zM176 49q-2 2 -35 27
q-22 18 -22 21q0 1 12 21.5t14 31.5l1 303q0 47 -8 90q-14 75 -47 79q-4 1 -18.5 -4.5t-17.5 -8.5q50 -8 50 -149v-294q1 -10 -14.5 -40t-27.5 -40q27 -8 58 -34l31 -26q9 0 24 23z" />
    <glyph glyph-name="l" unicode="l" horiz-adv-x="336" 
d="M291 72q0 -7 -25 -17l-30 -10q-28 -17 -57 -40q-23 -18 -25 -18q-30 18 -52 30q-58 31 -96 43q64 55 60 85v380q0 22 -20.5 47t-43.5 34q31 17 85 53q44 29 46 29t23 -17.5t32 -22.5q30 -10 89 -32q-57 -43 -55 -86v-382q-1 -31 19 -47q1 -1 50 -29zM185 43
q-26 15 -67 40q12 25 15 58l2 394q3 16 -16.5 50t-34.5 34q3 0 -21 -11q10 -14 21 -29t10 -25v-409q-4 -18 -9 -35q-8 -24 -22 -41q39 -14 95 -48q4 -3 27 22z" />
    <glyph glyph-name="m" unicode="m" horiz-adv-x="933" 
d="M885 362q-19 3 -41 -33t-16 -36v-156q0 -37 15 -47q36 -24 43 -31q-21 1 -72 -32q-10 -7 -31 -26q-17 -16 -20 -16q-2 0 -19 13q-22 18 -38 29q-11 7 -26 14q-22 5 -57 15q41 21 41 133q0 15 -1 47v48q0 37 -27 54q-20 14 -47 11q-60 -6 -63 -76q-1 -25 -1 -128
q0 -40 61 -89q-72 -25 -124 -72q-27 18 -50 32q-56 33 -84 40q17 20 34 39q3 5 4 37v152q0 65 -70 65t-70 -108q0 -16 1.5 -39t1.5 -26q0 -44 10 -68q12 -30 45 -50q-43 -14 -128 -69q-33 20 -61 35q-65 35 -87 37q14 12 28 23q26 24 36 48v141q0 27 -13.5 45t-53.5 49
q36 3 71 21q44 23 65 63q72 -74 160 -74t147 69q29 -29 70.5 -50t76.5 -21q34 7 69 15q64 19 92 59q80 -69 129 -87zM785 44q-22 18 -61 48q8 23 9 42q0 -3 0 153q0 35 -16 56q-2 4 -24 23q-15 -1 -35 -9q31 -16 31 -71q0 -147 -1 -154.5t-7.5 -32t-5.5 -24.5q37 -19 85 -54
q4 -3 25 23zM488 44q-50 37 -50 38q0 -1 2.5 9t3.5 21v165q0 18 -12 49q-15 39 -35 40q-16 1 -25 -8q23 -19 27 -38q1 -5 1 -43v-168q-2 -28 -14 -39q11 -6 43 -26q27 -17 30 -17q4 0 16 6t13 11zM178 45q-5 4 -36 21q-24 13 -24 16q9 8 21 36q3 42 0 163q-6 23 -14 40
q-18 40 -40 45q-3 0 -11 -5.5t-10 -5.5q2 -6 22 -31q12 -17 12 -45v-164q-14 -17 -31 -42q13 -5 49 -28l36 -23q12 0 26 23z" />
    <glyph glyph-name="n" unicode="n" horiz-adv-x="630" 
d="M593 353q-21 -8 -42 -35t-21 -48q-1 -58 -1 -149q0 -20 57 -51q-84 -42 -129 -93q-67 73 -130 87l30 26q17 17 15 42v130q-1 33 -22 53t-54 20q-30 0 -53 -19t-21 -46q1 -16 2 -73q0 -60 -2 -60q-5 0 13.5 -31t43.5 -42q-77 -25 -136 -79q-29 21 -91 56q-17 7 -50 23
q23 8 43 25q25 21 25 43v121q0 36 -16 56q-12 18 -49 39q22 19 67 47q51 33 69 47q58 -79 160 -79q40 0 85.5 24t70.5 57q42 -60 136 -91zM477 43q-4 3 -32 18t-28 17q0 1 10.5 15t10.5 22q0 107 1 158q-4 29 -20.5 52.5t-29.5 23.5q-14 0 -26 -11q30 -5 37 -76v-136
q0 -23 -9 -36q-12 -16 -14 -20q45 -11 77 -54q6 10 23 27zM174 39q-38 33 -68 42q33 23 33 65v118q0 22 -21.5 58t-42.5 36q-16 0 -16 -11q33 -21 42 -88v-119q0 -37 -37 -70q24 -6 54 -25q27 -18 27 -25q-1 -1 -2 -1z" />
    <glyph glyph-name="o" unicode="o" horiz-adv-x="605" 
d="M570 78q-84 2 -159 -22q-54 -17 -100 -46q-40 -25 -35 -25q-2 0 -30 16q-32 18 -48 25q-109 46 -180 54q-1 6 22 28t25 40q-1 -5 -1 88q0 4 1 16v18q0 60 -41 74l-2 13h70q46 0 117 32q58 27 100 59q97 -70 252 -115q-50 -47 -50 -44v-138q0 -21 16 -35q11 -10 43 -25
v-13zM432 309l-159 77q-9 -2 -43 -18l164 -85v-200q11 5 38 15v211zM364 95l1 166q-28 18 -74 41q-63 30 -74 37v-174q37 -19 147 -70zM306 45q-101 52 -181 76q5 16 10 44v109q0 16 -6.5 30t-13.5 28h-30l-6 -5q13 -23 14 -34q1 -6 1 -54v-80q-4 -52 -23 -60
q90 -15 202 -77q16 8 33 23z" />
    <glyph glyph-name="p" unicode="p" horiz-adv-x="614" 
d="M575 350q0 -1 -35 -24q-28 -20 -31 -40v-120q0 -41 29 -67q21 -15 41 -31q-88 -14 -143 -81q-20 28 -81.5 55t-105.5 27q-34 0 -32 0v-88q1 -44 59 -74q-37 -3 -83.5 -36.5t-42.5 -33.5q1 0 -55 33q-60 36 -93 49q22 12 42 34t22 42l-1 282q-4 31 -32 49q-10 6 -45 18
q17 14 69 43q57 32 82 50q23 -43 72 -65q39 -17 81 -17q40 0 79 21q25 13 54 38q23 20 26 20q-1 0 43 -34q49 -38 81 -50zM458 51l-61 34q35 17 35 124q0 111 -48 136q-11 -1 -26 -8q30 -14 30 -55q1 -30 2 -46t1 -15q0 -63 -6 -97q-4 -26 -44 -43l93 -52q10 5 24 22z
M359 215q0 115 -67 115q-73 -1 -75 -40l1 -198h61q61 1 75 46q5 13 5 77zM166 -107q0 9 -54 42q19 19 19 35l1 318q-5 29 -11 40q-10 22 -39 40q-18 -6 -26 -17q25 -17 33 -38q6 -16 6 -50v-274q1 -11 -15 -34q-14 -19 -26 -30q59 -20 89 -50q1 3 12 9t11 9z" />
    <glyph glyph-name="q" unicode="q" horiz-adv-x="595" 
d="M569 -72q-70 -21 -138 -67q-72 34 -150 49q3 5 26 19t36 32q10 15 11 43v69h-8q-33 -1 -89 -39q-27 -19 -53 -38q-115 71 -195 68l-1 10q55 31 48 90v90q-1 28 -14 47q-8 10 -23 21q-12 8 -13 13q0 10 44 19q111 20 122 23q68 15 129 81q136 -100 245 -122
q-14 -13 -27 -27q-17 -21 -15 -57q2 -72 -2 -234q-2 -7 -2 -16q0 -48 69 -74zM354 255q-10 2 -144 96q2 -60 0 -196q113 -56 119 -56q11 3 26 7zM471 -86q-26 10 -63 28q13 7 16 66q-1 80 -1 284q-110 56 -150 97q-16 -8 -43 -21q84 -64 152 -94q-1 -180 0 -245q1 -46 0 -54
q-6 -31 -35 -49q26 -5 61 -19q31 -11 33 -11q11 7 30 18zM235 52q-5 3 -112 54v156q-1 22 -7 43q-9 30 -23 30q-5 -1 -38 -7q19 -20 24 -39q1 -6 2 -38q0 6 0 -115q-3 -34 -21 -47q25 2 85.5 -28t57.5 -31q7 5 32 22z" />
    <glyph glyph-name="r" unicode="r" horiz-adv-x="500" 
d="M480 357q-62 -34 -112 -116q-2 7 -11 28q-34 76 -86 74q-8 0 -27 -12q-22 -13 -22 -25q-1 -50 0 -149q1 -36 13.5 -48t61.5 -30q-76 -25 -150 -93q-32 53 -135 85q0 1 15 12q19 14 29 28q15 22 15 49v120q-2 37 -72 73q13 6 41 20q43 25 71 51q11 10 22 19
q55 -75 129 -72q32 1 58 16q17 10 32 30.5t21 24.5q10 -22 45.5 -51t61.5 -34zM397 321q-9 15 -17 26q-19 26 -30 27q-4 0 -15 -8.5t-12 -8.5q22 -14 53 -62zM182 49q-15 15 -61 44q14 3 14 61q1 46 0 120q0 22 -9 45q-16 40 -51 46q-5 0 -12 -4t-9 -8q47 -32 48 -77
q1 -10 1 -101q0 -37 -2 -47q-5 -26 -26 -46q46 -10 84 -53q17 8 23 20z" />
    <glyph glyph-name="s" unicode="s" horiz-adv-x="546" 
d="M494 398q-40 -85 -151 -148h149l-12 -18q-8 -16 -8 -49v-70q-2 -13 10 -32q14 -22 14 -25h-24h-20q-54 0 -130 -24q-83 -25 -110 -55q-63 71 -125 71q-22 0 -44 -11l-44 -22q-2 0 -6 13q10 26 93 104q69 66 95 85q-2 1 -28 1q-5 0 -132 1l-2 2q26 15 30 39q0 -1 0 39
q0 26 -10 39q-3 4 -27 25q72 10 143 20q95 18 156 61q55 -49 58 -52q23 -16 51 -16q41 0 63 32zM400 324q-22 0 -36 9q-42 21 -97 56q-2 2 -21 -5.5t-20 -7.5q6 -8 64 -41q63 -36 80 -36q15 0 30 25zM334 280q-67 14 -135 77v-111h53q11 0 44 14.5t38 19.5zM386 81l2 137
h-29l-1 -143q18 6 28 6zM327 215l-57 -6q-21 -7 -40 -16q-45 -20 -73 -48q38 2 84 -16q51 -21 86 -57q2 24 0 143zM108 298q0 47 -14 47q-3 0 -11 -1.5t-12 -1.5q9 -17 9 -47q-2 -24 -4 -49l26 1q6 9 6 51zM247 48q-82 53 -103 53q-13 0 -36 -7q-26 -7 -32 -15q31 4 67 -11
q24 -10 51 -30l23 -17q12 0 30 27z" />
    <glyph glyph-name="t" unicode="t" horiz-adv-x="378" 
d="M338 65q-36 -11 -65 -24q-70 -29 -94 -60l-64 42q-57 34 -85 34q-5 0 -21 -9l-7 21q77 49 77 82l1 196l-78 -1q-4 57 -1 82q2 1 77 0q0 22 1 43q-2 43 -10 53q68 27 155 96v-190q48 -1 92 -1l1 -87h-93v-206q7 -25 53 -45q40 -18 61 -17v-9zM198 51q-19 16 -71 43
q7 16 13 43q1 7 1 309q0 21 1 81q-16 -6 -39 -17q3 -9 3 -45v-317q0 -33 -39 -67q51 -14 109 -57z" />
    <glyph glyph-name="u" unicode="u" horiz-adv-x="639" 
d="M599 86q-30 -17 -59 -34q-48 -28 -71 -63q-73 78 -163 78q-86 0 -163 -80q-23 28 -62.5 52.5t-71.5 32.5q31 15 49 41l14 26l1 94q0 56 -5 70q-14 37 -72 48q39 16 46 20q27 17 88 73q46 -70 147 -87q-32 -18 -38 -30q-3 -5 -3 -28l-1 -159q8 -43 74 -43q41 0 61 27
q13 19 16 53l2 38l-1 90q0 7 -12 23q-14 20 -33 27q34 14 82 53l42 33q16 -19 58 -44q47 -28 73 -29q-1 0 -34 -30q-20 -18 -20 -40v-80q0 -62 0 -52q-5 -54 56 -80zM494 52q-18 17 -67 49q4 3 14 23t10 27v154q0 6 -11 30q-14 29 -27 29q-11 0 -24 -13q24 -8 24 -38v-147
q-2 -29 -3 -29q-6 -20 -36 -49q26 -4 64.5 -32t31.5 -28q3 0 12 11t12 13zM178 50q-20 16 -59 38q19 24 19 143q0 57 -5 77q-10 46 -48 60q-8 -5 -19 -12q24 -13 30 -54q2 -35 3 -70q2 -43 2 -52q0 -89 -35 -102q38 -14 63 -32l22 -18q10 5 27 22z" />
    <glyph glyph-name="v" unicode="v" horiz-adv-x="617" 
d="M599 354q-58 -12 -128 -89q-73 -78 -73 -136q0 -22 38 -51q-18 -14 -68 -40q-45 -24 -75 -53q-64 69 -142 85q1 2 20 25q14 16 14 27q0 30 -35 81q-28 37 -55 75q-34 55 -89 81q11 5 44 19q44 19 102 76q39 -59 145 -95q-11 -14 -20.5 -26t-9.5 -38q0 -64 83 -164
q15 18 41 69q27 55 27 73q0 45 -71 84q49 20 70 33q36 22 58 52q23 -45 124 -88zM481 329q-3 11 -15.5 24.5t-22.5 13.5q-8 0 -31 -15q29 -11 41 -54q11 12 28 31zM323 48q-74 48 -74 54q0 2 3 6.5t3 6.5q0 39 -50 124q-45 75 -81 113q-10 11 -21 21q-6 0 -17 -7
q-15 -9 -16 -9q33 -23 88 -112q56 -92 56 -129q0 -6 -11 -26q63 -33 85 -59q7 -8 6 -8q8 0 29 25z" />
    <glyph glyph-name="w" unicode="w" horiz-adv-x="843" 
d="M801 358q-73 -44 -105 -82q-10 -13 -38.5 -80t-28.5 -81q0 -22 19 -34q25 -17 30 -26q-97 -9 -154 -79q-49 59 -133 89q-1 1 12 14q18 17 18 36q0 51 -36 111q-10 -17 -25 -52q-19 -42 -19 -51q0 -19 11.5 -32t23.5 -26l-78 -32q-43 -21 -65 -52q-57 63 -139 84
q0 2 17 23t17 40t-10 44q-9 20 -18 41q-14 44 -28 87q-16 35 -67 55l-1 2q1 0 0 7q33 6 72 30q33 23 66 45q45 -31 137 -85l-26 -28t-13 -32q0 -17 25 -89.5t37 -88.5q12 19 35.5 80t23.5 78t-20 42.5t-37 31.5q14 11 69 42q44 24 64 49q40 -36 60 -49q36 -24 70 -28
q-4 -8 -25 -32q-17 -19 -17 -33l66 -180q17 27 38 78q22 57 22 84q0 39 -19 56q-1 1 -41 23q73 26 103 76q17 -24 49 -44zM714 338q-12 11 -32 41q-22 -11 -33 -18q23 -21 25 -23.5t9 -27.5q11 11 31 28zM557 44q-42 16 -56 39q-9 15 -13 50q-5 41 -16 67l-32 84
q-23 55 -41 80q-18 -6 -43 -18q25 -30 58.5 -111.5t33.5 -117.5q0 -18 -7 -37q20 -8 45 -28q37 -28 44 -32q8 3 27 24zM250 48q0 9 -50 43q4 9 4 22q0 41 -40 146q-42 111 -66 110q-18 0 -37 -13q29 -16 63 -109q31 -84 31 -118q0 -16 -12 -47q20 -7 46 -26q21 -15 42 -31
q19 22 19 23z" />
    <glyph glyph-name="x" unicode="x" horiz-adv-x="642" 
d="M601 63q-4 -4 -61 -29t-84 -54q-31 35 -89 55l-78 24q8 5 13.5 18t5.5 20t-27 38t-36 31q-18 0 -38 -23t-20 -38q0 -23 23 -31.5t46 -14.5q-30 -24 -84 -54q-47 -27 -51 -27q1 0 -45 41.5t-74 49.5q212 81 212 126q0 2 -57 60.5t-74 67.5q-39 21 -74 29l62 43
q38 27 52 49q38 -28 85 -48l80 -30q-2 -6 -10.5 -16.5t-8.5 -15.5q0 -8 18.5 -32t26.5 -24q14 0 29 16.5t15 26.5q0 18 -40 47q115 76 114 76l58 -35q62 -38 84 -44q-63 -21 -142 -56q-91 -42 -91 -56q0 -6 68 -72q78 -75 127 -99q6 -3 32 -6q23 -3 33 -13zM423 349
q-7 9 -24 35q-11 -7 -30 -19q2 -6 14.5 -16t14.5 -16q7 7 25 16zM487 44q-52 26 -108 79q-159 169 -268 264q-7 -7 -28 -22q45 -30 151 -138t106 -123q0 -14 -3 -19q40 -8 75 -29q53 -31 56 -32q7 6 19 20zM157 87q0 31 1 26q-18 -9 -48 -21.5t-44 -19.5q11 -8 30.5 -30
t30.5 -31q8 8 20 23q-14 11 -39 31q18 8 49 22z" />
    <glyph glyph-name="y" unicode="y" horiz-adv-x="633" 
d="M607 347q-46 -30 -54 -43q-6 -9 -6 -38v-163q1 -60 -72 -87q-47 -18 -111 -18l-183 1q-149 0 -149 -69q0 -28 25 -44q21 -14 50 -14q42 0 156.5 52t169.5 52q39 0 73 -18q47 -24 47 -73q0 -30 -27 -46q-21 -13 -47 -13q-33 0 -47 13t-22 48q30 -1 34 0q20 4 20 29
q0 28 -42 28q-51 0 -160 -53t-152 -53t-77 26q-37 27 -37 67t44 70.5t40 69.5l-1 134v83q-14 42 -44 56l-34 10q41 9 81 36q14 9 64 50q-6 -5 47 -35.5t107 -52.5l-30 -20t-30 -45l1 -257h73q22 0 47.5 16t25.5 43l1 198q1 20 -24 39q-30 23 -31 26q44 7 76 30q20 15 38 38
q12 17 14 15q33 -34 54 -47q31 -20 92 -41zM457 279q-3 74 -33 83q-4 1 -19 -7q-9 -5 -17 -9q17 -13 18 -15q9 -16 9 -66v-160q-5 -51 -25 -75h13q15 -1 34.5 24.5t19.5 52.5v172zM153 157q0 92 -1 97q-5 69 -31 99q-13 14 -18 14q-4 0 -31 -15q39 -23 39 -99v-226
q33 2 41 0z" />
    <glyph glyph-name="z" unicode="z" horiz-adv-x="572" 
d="M545 60q-18 -6 -48 -37.5t-38 -53.5q-27 37 -93 55q-46 13 -97 13q-27 0 -75 -16q-59 -19 -73 -45q-17 24 -50 54q-44 42 -72 45l308 282q-3 3 -27 1q-33 -2 -26 -2q-47 0 -94 -20q-29 -13 -49 -38q-14 -20 -28 -41q-6 22 -23 55q-23 47 -44 60q12 9 95 73
q34 -65 155 -65q104 0 140 63q28 -44 122 -86l-329 -288q1 -1 69 -1h67q104 0 127 114q19 -56 45 -84zM473 38q0 11 -38 34q-11 -5 -34 -17q18 -3 31 -16q20 -19 22 -20zM112 344q0 5 -14.5 22.5t-15.5 20.5q-12 -12 -23 -17q4 -7 32 -49q6 9 21 23zM375 336q3 3 1 15
q-1 11 -5 17q-11 -3 -28 -10q-1 -7 -23 -26q-94 -89 -273 -251q29 -8 77 -59l28 19q-17 15 -45 47q207 181 268 248z" />
    <glyph glyph-name="asciitilde" unicode="~" horiz-adv-x="423" 
d="M414 831q-45 -94 -116 -94q-30 0 -86 23.5t-86 23.5q-48 0 -81 -41q-5 6 -12 7t-11 4q42 98 137 98q28 0 78 -22t75 -22q40 0 84 37z" />
    <glyph glyph-name="Adieresis" unicode="&#xc4;" horiz-adv-x="905" 
d="M894 101l-86 -40q-55 -28 -100 -71q-60 43 -132 70q-50 17 -99 33v6q23 10 47 20t24 42q0 26 -17 65q-21 45 -44 45q-82 -3 -81 -156v-174q1 -23 10 -39q11 -21 32 -20q7 0 15 6.5t8 14.5q0 11 -21 20v6q-1 18 13 30.5t32 12.5q50 0 50 -54q0 -34 -23 -52t-57 -18
q-77 0 -77 96l1 220q0 47 -25 75.5t-73 28.5q-32 0 -32 -55q1 -29 18.5 -63t41.5 -48q9 -3 26 -11l1 -6q-24 -10 -56 -24q-34 -18 -91 -73q-45 32 -191 99v7q26 11 75 37q70 47 121 110q37 46 88 137q66 117 66 131q0 39 -52 61q-44 19 -102 19q-30 0 -49 -6
q-103 -29 -103 -125q0 -26 22.5 -48t42.5 -22q8 0 11 4q-1 12 -4 36q9 27 14 35q11 17 32 17q30 0 50.5 -17t20.5 -46q0 -34 -32 -53q-26 -16 -63 -16q-48 0 -85.5 35t-37.5 83q0 92 85 153q76 54 173 54q156 0 284 -83q15 28 45 46q27 17 54 17q9 0 16 -2q-61 -45 -66 -136
q7 -43 51 -156q56 -147 110 -208q39 -44 118 -44q1 0 1 -6zM750 62q-21 13 -64 31q-60 24 -66 27q11 20 11 46q0 37 -126 327q-27 64 -57 64l-13 -4q-44 47 -76 63q-38 20 -94 20q-46 0 -72 -19q99 -1 155 -34q37 -21 41 -40q2 0 7 3t8 3q21 0 35.5 -27t72.5 -160
q61 -142 68 -167q4 -16 4 -35q0 -34 -20 -56q49 -19 145 -64l4 1q15 8 37 21zM493 311q-21 51 -41 102q-25 60 -48 100l-2 -6q-35 -60 -111 -196h202zM229 212q-9 -10 -26 -28t-55 -46q-41 -31 -57 -45q35 -19 104 -58q24 13 24 20q0 6 -31 24t-31 21q26 20 75 68
q-1 16 -3 44zM515 727q-23 0 -39 16t-16 39t16.5 39t38.5 16q23 0 40 -16t17 -39t-17 -39t-40 -16zM311 727q-23 0 -39.5 16t-16.5 39t16.5 39t39.5 16t39.5 -16t16.5 -39t-16.5 -39t-39.5 -16z" />
    <glyph glyph-name="Aring" unicode="&#xc5;" horiz-adv-x="905" 
d="M894 101l-86 -40q-55 -28 -100 -71q-60 43 -132 70q-50 17 -99 33v6q23 10 47 20t24 42q0 26 -17 65q-21 45 -44 45q-82 -3 -81 -156v-174q1 -23 10 -39q11 -21 32 -20q7 0 15 6.5t8 14.5q0 11 -21 20v6q-1 18 13 30.5t32 12.5q50 0 50 -54q0 -34 -23 -52t-57 -18
q-77 0 -77 96l1 220q0 47 -25 75.5t-73 28.5q-32 0 -32 -55q1 -29 18.5 -63t41.5 -48q9 -3 26 -11l1 -6q-24 -10 -56 -24q-34 -18 -91 -73q-45 32 -191 99v7q26 11 75 37q70 47 121 110q37 46 88 137q66 117 66 131q0 39 -52 61q-44 19 -102 19q-30 0 -49 -6
q-103 -29 -103 -125q0 -26 22.5 -48t42.5 -22q8 0 11 4q-1 12 -4 36q9 27 14 35q11 17 32 17q30 0 50.5 -17t20.5 -46q0 -34 -32 -53q-26 -16 -63 -16q-48 0 -85.5 35t-37.5 83q0 92 85 153q76 54 173 54q156 0 284 -83q15 28 45 46q27 17 54 17q9 0 16 -2q-61 -45 -66 -136
q7 -43 51 -156q56 -147 110 -208q39 -44 118 -44q1 0 1 -6zM750 62q-21 13 -64 31q-60 24 -66 27q11 20 11 46q0 37 -126 327q-27 64 -57 64l-13 -4q-44 47 -76 63q-38 20 -94 20q-46 0 -72 -19q99 -1 155 -34q37 -21 41 -40q2 0 7 3t8 3q21 0 35.5 -27t72.5 -160
q61 -142 68 -167q4 -16 4 -35q0 -34 -20 -56q49 -19 145 -64l4 1q15 8 37 21zM493 311q-21 51 -41 102q-25 60 -48 100l-2 -6q-35 -60 -111 -196h202zM229 212q-9 -10 -26 -28t-55 -46q-41 -31 -57 -45q35 -19 104 -58q24 13 24 20q0 6 -31 24t-31 21q26 20 75 68
q-1 16 -3 44zM407 865q35 0 59.5 -23.5t24.5 -57.5q0 -35 -24.5 -58.5t-59.5 -23.5q-34 0 -58 23.5t-24 58.5q0 33 24.5 57t57.5 24zM407 833q-20 0 -35 -14.5t-15 -34.5q0 -21 15 -35.5t35 -14.5q22 0 37 14t15 36q0 20 -15.5 34.5t-36.5 14.5z" />
    <glyph glyph-name="Ccedilla" unicode="&#xc7;" horiz-adv-x="853" 
d="M705 577l-32 34q-19 17 -37 19q16 -25 17 -47t2 -42zM615 547q0 100 -65 100q-35 0 -47 -31q-9 -22 -6 -50v-338q4 -20 26 -58q-83 -36 -124 -67q-10 -7 -65 -71q75 -25 87 -25q81 3 194 52v488zM419 476q0 65 -18 93l-42 -23q16 -23 16 -122v-297q28 18 44 31v318z
M288 21q-18 22 -87 68q-104 79 -104 233q0 59 12.5 97t47.5 79q45 52 87 73q7 4 18 21q7 12 15 24h-5q-98 -42 -160 -116q-71 -84 -69 -182q2 -89 47 -163q48 -77 127 -110q60 -24 71 -24zM364 -203q-46 0 -86 17l15 39q34 -15 58 -15q17 0 32 10.5t15 26.5q0 33 -36 33
q-13 0 -25 -3l-14 15l30 62q-148 6 -247 98q-104 96 -104 244q0 131 117 236q109 97 243 112l6 -6l-3 -6q-65 -47 -107 -149q-38 -95 -38 -184q0 -86 13 -140q17 -71 63 -125l14 -10q28 33 28 62l-1 278q4 84 1 114q-3 23 -39 30v7q2 8 0.5 8.5t43.5 19.5q22 14 73 44
q29 24 96 63q22 9 40 9q10 0 25.5 -4.5t21.5 -4.5q46 -5 109 -36q76 -37 76 -75l-17 1q-53 -17 -87 -50q-41 -39 -41 -89v-358q100 71 142 190q10 -1 22 0q-3 -35 -34 -91.5t-58 -80.5q-21 -19 -71 -57v-57q0 -48 29 -48q11 0 21 7t10 16q0 19 0 18q0 1 -18 18q12 4 25 4
q24 0 41.5 -13.5t17.5 -38.5q0 -26 -25 -49.5t-52 -22.5q-52 4 -68 43q-9 23 -9 90v25q-65 -30 -121 -39q-32 -4 -100 -4l-17 -38q32 5 42 5q30 0 52.5 -19t22.5 -49q0 -42 -45 -65q-36 -18 -82 -18z" />
    <glyph glyph-name="Eacute" unicode="&#xc9;" horiz-adv-x="990" 
d="M928 89q-107 -53 -148 -116q-71 63 -140 88q-61 22 -140 22h-48q-2 -26 -2 -56q0 -142 42 -142q12 0 19.5 13t7.5 23q0 8 -20 24q2 9 21 9q22 0 41 -18t19 -39q0 -26 -28 -44q-23 -15 -47 -15q-84 0 -84 171q0 21 1.5 46.5t1.5 27.5q-118 -18 -208 -98q-87 83 -202 107
q93 51 114 84q16 25 16 98q0 11 1 44q-28 1 -43 1q-44 0 -95 -37q17 49 47 149q21 -14 46.5 -14t46.5 -1l-1 80q0 58 -39 73q-36 5 -72 11q-39 7 -39 48q0 58 61 58q35 0 55 -29q-42 -9 -42 -37q0 -15 15 -23q11 -7 23 -7q-3 0 57 25q70 28 149 44q114 25 241 25
q83 0 157 -21q50 -14 98 -39q41 -21 44 -21t16 7t16 7q8 0 17 -16q-79 -59 -138 -180q-59 122 -122 176q-67 58 -161 58q-27 0 -26 -5v-241q29 12 56 58q16 31 33 62q6 -46 55 -95q44 -44 95 -67q-22 -14 -89 -61q-17 -13 -40 -46q-29 -41 -37 -49q-11 46 -17 59
q-20 46 -60 65l-1 -221q7 -9 63 -9q110 0 171 44q43 30 68 88q28 65 33 70q6 -51 40 -109q40 -68 102 -109zM793 530q0 32 -67 75q-62 38 -80 36q63 -50 121 -146q26 25 26 35zM428 385v263q-88 -16 -88 -106l1 -156zM572 413q-20 25 -28 30q-11 -18 -49 -45t-42 -32
q33 -7 58 -35.5t26 -53.5q-3 5 12 20q19 20 21 23q-12 13 -39 29q-19 11 -39 22q29 12 80 42zM806 173q0 16 -22 40q-33 -66 -136 -119q47 -15 129 -74q8 8 18 21q-33 22 -88 51q99 66 99 81zM426 353l-85 1v-117q0 -23 9 -43q20 -48 76 -73v232zM239 51q-28 18 -78 51
q47 38 62 80q9 23 9 62v285q-4 33 4 63q0 1 -2 1q-5 0 -33 -10q-33 -12 -35 -13q15 -16 15 -64v-284q0 -34 -29 -72q-22 -26 -45 -51q19 -6 57 -31q55 -37 57 -38q9 7 18 21zM580 869q54 -82 51 -85q-3 -4 -226 -79l-15 30z" />
    <glyph glyph-name="Ntilde" unicode="&#xd1;" horiz-adv-x="1002" 
d="M952 586q-70 -19 -107 -75q-31 -48 -31 -109l-1 -173q27 -31 82 -78q-51 -16 -82 -71q-26 -46 -28 -100l-256 230v-252q2 -21 4 -41q7 -32 30 -32q5 0 16.5 9t11.5 14t-7 20.5t-12 16.5q8 11 28 11q22 0 39.5 -17t17.5 -37q0 -67 -69 -67q-90 0 -90 126q0 11 1 27.5
t1 22.5v227q-90 84 -242 217q-3 -2 -3 -13v-145q-5 -57 41 -126q49 -72 110 -83q-45 -28 -90 -57q-66 -45 -84 -78q-49 40 -97 79q-35 28 -76 41q87 57 115 87q47 49 47 114q0 5 -1 26l-55 -4q-18 0 -79 -28l54 142q26 -19 83 -15v65q0 24 -46 51q-39 22 -51 22
q-27 -13 -76 -3q-25 0 -42.5 23t-17.5 49q0 25 24 39q18 11 39 11q18 0 32.5 -12.5t17.5 -29.5q-20 -7 -22 -9.5t-2 -13.5q0 -20 28 -20q46 0 103 53q50 46 50 64q0 2 -2 2q36 -40 82 -59l118 -40q-6 -11 -6 -22q0 -28 47 -63v133h25v-152q95 -88 255 -228v171q0 25 -30 63
q-29 34 -60 53q-59 34 -62 33q96 38 155 110q29 -31 91 -62q39 -19 79 -37zM817 615q-27 20 -29 20l-29 -24.5t-52 -28.5q31 -14 62 -52q14 -18 27 -36l13 25q-6 13 -13 23q-16 25 -37 33q23 12 58 40zM779 89q0 3 -67 64q-97 86 -103 93q-93 87 -185 175q-172 159 -195 159
q-3 0 -25 -11.5t-26 -14.5q73 -36 250 -203q282 -267 333 -312q3 6 10.5 26t7.5 24zM259 164q0 4 -16 34q-26 -57 -116 -117q31 -7 70 -41q36 -31 35 -31q3 0 10 10t13 15q-13 19 -33.5 31t-39.5 22q77 63 77 77zM704 811q-45 -94 -116 -94q-30 0 -86 23.5t-86 23.5
q-48 0 -81 -41q-5 6 -12 7t-11 4q42 98 137 98q28 0 78 -22t75 -22q40 0 84 37z" />
    <glyph glyph-name="Odieresis" unicode="&#xd6;" horiz-adv-x="985" 
d="M919 369q0 -268 -323 -358v-49q-2 -55 18 -67q9 -5 20 -5q29 0 26 27q-2 15 -7 21.5t-12 14.5q1 1 1.5 3.5t3.5 2.5q23 0 40 -14.5t17 -36.5q0 -25 -22.5 -40.5t-42.5 -15.5q-49 0 -64 59q-7 29 -6 97q-34 0 -66 -7t-107 -7q-130 0 -252 94q-139 108 -139 262t133 251
q115 84 252 84q8 0 31 -6q-24 -14 -49 -29q-35 -22 -58 -49h20q23 0 65 22q62 33 85 42q58 22 120 22q131 0 223.5 -94.5t92.5 -223.5zM804 375q0 52 -26 125q-35 100 -97 138l-30 11q94 -114 94 -281q0 -192 -97 -304q79 25 123 135q33 86 33 176zM710 374q0 68 -28 151
q-34 100 -83 119v-574q111 105 111 304zM418 161v433q-24 -7 -41 -19v-431q14 5 41 17zM571 54l-1 597l-23 -4q-16 0 -31 -20q-11 -15 -15 -29v-413q11 -7 21 -24q-182 -79 -191 -79q-7 0 -10 6q21 41 21 164l-2 318q-3 3 -14 4t-15 0q-68 -30 -87 -127q-7 -37 -7 -124
q0 -125 46 -200q61 -100 196 -98q79 1 112 29zM296 635q-119 -18 -189 -103q-65 -78 -65 -185q0 -97 57 -175q62 -86 172 -117q-99 75 -138 141t-39 158q0 89 52 158q48 63 150 123zM555 727q-23 0 -39 16t-16 39t16.5 39t38.5 16q23 0 40 -16t17 -39t-17 -39t-40 -16z
M351 727q-23 0 -39.5 16t-16.5 39t16.5 39t39.5 16t39.5 -16t16.5 -39t-16.5 -39t-39.5 -16z" />
    <glyph glyph-name="Udieresis" unicode="&#xdc;" horiz-adv-x="1016" 
d="M971 590q-114 -18 -146 -168q2 -92 0 -162q8 -48 15 -67q14 -39 49 -82q-29 -5 -98 -39q-89 -44 -125 -58q-78 -29 -138 -28q-1 7 -1 -36q0 -51 26 -53q32 -2 32 35q0 14 -7 24q27 8 22 8q14 0 32.5 -15.5t18.5 -31.5q0 -30 -29 -48q-23 -13 -50 -15q-73 -3 -73 89
q0 8 3 43q-87 2 -183 39l-82 42q-66 34 -104 39q59 47 57 213q-19 1 -64 1q-32 0 -51.5 -11t-39.5 -22q15 33 29 67q24 55 20 81q26 -14 68 -18q17 -1 34 -1q6 14 6 27q0 57 -14 81q-19 33 -71 35.5t-75 12.5q-39 17 -39 58q0 17 18 33.5t35 17.5q47 1 56 -45l-16 -6
q-11 -4 -11 -20q0 -21 33 -21q38 0 86 31q26 17 81 63q32 -37 81 -65l80 -40q-16 -11 -33 -22q-24 -18 -22 -39l1 -392q0 -56 117 -95q1 45 1 627h24l1 -314q17 1 26 1q61 0 108 54q37 -57 113 -57h21q-1 27 -1 82q0 90 -155 162q37 6 87 34.5t81 63.5q57 -62 166 -93z
M818 520q0 14 -21 45.5t-31 31.5q-5 0 -22.5 -7.5t-19.5 -11.5l52 -40q14 -13 34 -51q8 14 8 33zM794 293q0 30 -1 31q-4 0 -11.5 -1t-9.5 -1q-74 0 -113 -53q-30 56 -108 56q-8 0 -26 -1v-298q130 0 199.5 69.5t69.5 197.5zM431 15q-81 53 -173 137q16 32 18 45q3 18 3 79
v184q2 32 -12 85.5t-27 56.5q1 0 -54 -29q30 -28 36 -59l4 -62v-165q0 -87 -12 -127l-20 -38q48 -20 127 -64q49 -27 110 -43zM605 727q-23 0 -39 16t-16 39t16.5 39t38.5 16q23 0 40 -16t17 -39t-17 -39t-40 -16zM401 727q-23 0 -39.5 16t-16.5 39t16.5 39t39.5 16
t39.5 -16t16.5 -39t-16.5 -39t-39.5 -16z" />
    <glyph glyph-name="aacute" unicode="&#xe1;" horiz-adv-x="606" 
d="M583 71v-7q-31 -5 -80 -29q-45 -22 -74 -44q-27 34 -74 54q-43 19 -90 19q-97 0 -140 -76q-12 15 -38 41q-30 21 -84 33v11q41 9 41 44v68q0 19 -13 34q-4 5 -29 24q4 8 8 7q19 -4 73 -4l103 1l8 5q-6 6 -54.5 23.5t-72.5 35.5q-37 28 -37 68q0 26 19 45.5t45 19.5
q16 0 44.5 -16t28.5 -31l-2 -4h-3q-36 1 -36 -26t41 -27q58 0 113.5 29t87.5 77h10q17 -21 77 -48q56 -24 89 -28q9 -1 27 -7v-4q-1 0 -42 -16q-25 -10 -25 -44v-175q0 -39 79 -53zM474 46q-32 21 -65 48q9 5 12 23.5t2 18.5v126q0 35 -29.5 69.5t-64.5 36.5q-17 -6 -20 -12
q43 -15 58 -46q11 -24 11 -72q-1 -83 -1 -98q3 -20 -2 -28.5t-28 -28.5q55 -30 96 -56q12 5 31 19zM350 271q0 28 -29 44q-24 13 -54 13q-23 0 -70 -8.5t-72 -7.5q60 -44 213 -66l10 3q2 26 2 22zM349 124v89q-16 9 -41 9q-40 0 -74 -19q-41 -24 -41 -61q0 -53 76 -53
q23 0 47 8q33 10 33 27zM156 62l-24 16q-20 12 -20 16v128h-51q10 -28 10 -32q0 -9 -1 -48v-32q1 -7 -12 -32q25 -6 70 -44q2 12 15 19.5t13 8.5zM370 649q54 -82 51 -85q-3 -4 -226 -79l-15 30z" />
    <glyph glyph-name="agrave" unicode="&#xe0;" horiz-adv-x="606" 
d="M583 71v-7q-31 -5 -80 -29q-45 -22 -74 -44q-27 34 -74 54q-43 19 -90 19q-97 0 -140 -76q-12 15 -38 41q-30 21 -84 33v11q41 9 41 44v68q0 19 -13 34q-4 5 -29 24q4 8 8 7q19 -4 73 -4l103 1l8 5q-6 6 -54.5 23.5t-72.5 35.5q-37 28 -37 68q0 26 19 45.5t45 19.5
q16 0 44.5 -16t28.5 -31l-2 -4h-3q-36 1 -36 -26t41 -27q58 0 113.5 29t87.5 77h10q17 -21 77 -48q56 -24 89 -28q9 -1 27 -7v-4q-1 0 -42 -16q-25 -10 -25 -44v-175q0 -39 79 -53zM474 46q-32 21 -65 48q9 5 12 23.5t2 18.5v126q0 35 -29.5 69.5t-64.5 36.5q-17 -6 -20 -12
q43 -15 58 -46q11 -24 11 -72q-1 -83 -1 -98q3 -20 -2 -28.5t-28 -28.5q55 -30 96 -56q12 5 31 19zM350 271q0 28 -29 44q-24 13 -54 13q-23 0 -70 -8.5t-72 -7.5q60 -44 213 -66l10 3q2 26 2 22zM349 124v89q-16 9 -41 9q-40 0 -74 -19q-41 -24 -41 -61q0 -53 76 -53
q23 0 47 8q33 10 33 27zM156 62l-24 16q-20 12 -20 16v128h-51q10 -28 10 -32q0 -9 -1 -48v-32q1 -7 -12 -32q25 -6 70 -44q2 12 15 19.5t13 8.5zM205 639q-55 -82 -51 -85q3 -4 226 -79l15 30z" />
    <glyph glyph-name="acircumflex" unicode="&#xe2;" horiz-adv-x="606" 
d="M583 71v-7q-31 -5 -80 -29q-45 -22 -74 -44q-27 34 -74 54q-43 19 -90 19q-97 0 -140 -76q-12 15 -38 41q-30 21 -84 33v11q41 9 41 44v68q0 19 -13 34q-4 5 -29 24q4 8 8 7q19 -4 73 -4l103 1l8 5q-6 6 -54.5 23.5t-72.5 35.5q-37 28 -37 68q0 26 19 45.5t45 19.5
q16 0 44.5 -16t28.5 -31l-2 -4h-3q-36 1 -36 -26t41 -27q58 0 113.5 29t87.5 77h10q17 -21 77 -48q56 -24 89 -28q9 -1 27 -7v-4q-1 0 -42 -16q-25 -10 -25 -44v-175q0 -39 79 -53zM474 46q-32 21 -65 48q9 5 12 23.5t2 18.5v126q0 35 -29.5 69.5t-64.5 36.5q-17 -6 -20 -12
q43 -15 58 -46q11 -24 11 -72q-1 -83 -1 -98q3 -20 -2 -28.5t-28 -28.5q55 -30 96 -56q12 5 31 19zM350 271q0 28 -29 44q-24 13 -54 13q-23 0 -70 -8.5t-72 -7.5q60 -44 213 -66l10 3q2 26 2 22zM349 124v89q-16 9 -41 9q-40 0 -74 -19q-41 -24 -41 -61q0 -53 76 -53
q23 0 47 8q33 10 33 27zM156 62l-24 16q-20 12 -20 16v128h-51q10 -28 10 -32q0 -9 -1 -48v-32q1 -7 -12 -32q25 -6 70 -44q2 12 15 19.5t13 8.5zM426 486l-126 58l-134 -58l-14 27l146 105l139 -105z" />
    <glyph glyph-name="adieresis" unicode="&#xe4;" horiz-adv-x="606" 
d="M583 71v-7q-31 -5 -80 -29q-45 -22 -74 -44q-27 34 -74 54q-43 19 -90 19q-97 0 -140 -76q-12 15 -38 41q-30 21 -84 33v11q41 9 41 44v68q0 19 -13 34q-4 5 -29 24q4 8 8 7q19 -4 73 -4l103 1l8 5q-6 6 -54.5 23.5t-72.5 35.5q-37 28 -37 68q0 26 19 45.5t45 19.5
q16 0 44.5 -16t28.5 -31l-2 -4h-3q-36 1 -36 -26t41 -27q58 0 113.5 29t87.5 77h10q17 -21 77 -48q56 -24 89 -28q9 -1 27 -7v-4q-1 0 -42 -16q-25 -10 -25 -44v-175q0 -39 79 -53zM474 46q-32 21 -65 48q9 5 12 23.5t2 18.5v126q0 35 -29.5 69.5t-64.5 36.5q-17 -6 -20 -12
q43 -15 58 -46q11 -24 11 -72q-1 -83 -1 -98q3 -20 -2 -28.5t-28 -28.5q55 -30 96 -56q12 5 31 19zM350 271q0 28 -29 44q-24 13 -54 13q-23 0 -70 -8.5t-72 -7.5q60 -44 213 -66l10 3q2 26 2 22zM349 124v89q-16 9 -41 9q-40 0 -74 -19q-41 -24 -41 -61q0 -53 76 -53
q23 0 47 8q33 10 33 27zM156 62l-24 16q-20 12 -20 16v128h-51q10 -28 10 -32q0 -9 -1 -48v-32q1 -7 -12 -32q25 -6 70 -44q2 12 15 19.5t13 8.5zM163 532q0 19 14 33t34 14q19 0 33.5 -14t14.5 -33q0 -20 -14 -33.5t-34 -13.5t-34 13.5t-14 33.5zM318 532q0 19 14 33t33 14
q20 0 34.5 -14t14.5 -33q0 -20 -14.5 -33.5t-34.5 -13.5q-19 0 -33 13.5t-14 33.5z" />
    <glyph glyph-name="atilde" unicode="&#xe3;" horiz-adv-x="606" 
d="M583 71v-7q-31 -5 -80 -29q-45 -22 -74 -44q-27 34 -74 54q-43 19 -90 19q-97 0 -140 -76q-12 15 -38 41q-30 21 -84 33v11q41 9 41 44v68q0 19 -13 34q-4 5 -29 24q4 8 8 7q19 -4 73 -4l103 1l8 5q-6 6 -54.5 23.5t-72.5 35.5q-37 28 -37 68q0 26 19 45.5t45 19.5
q16 0 44.5 -16t28.5 -31l-2 -4h-3q-36 1 -36 -26t41 -27q58 0 113.5 29t87.5 77h10q17 -21 77 -48q56 -24 89 -28q9 -1 27 -7v-4q-1 0 -42 -16q-25 -10 -25 -44v-175q0 -39 79 -53zM474 46q-32 21 -65 48q9 5 12 23.5t2 18.5v126q0 35 -29.5 69.5t-64.5 36.5q-17 -6 -20 -12
q43 -15 58 -46q11 -24 11 -72q-1 -83 -1 -98q3 -20 -2 -28.5t-28 -28.5q55 -30 96 -56q12 5 31 19zM350 271q0 28 -29 44q-24 13 -54 13q-23 0 -70 -8.5t-72 -7.5q60 -44 213 -66l10 3q2 26 2 22zM349 124v89q-16 9 -41 9q-40 0 -74 -19q-41 -24 -41 -61q0 -53 76 -53
q23 0 47 8q33 10 33 27zM156 62l-24 16q-20 12 -20 16v128h-51q10 -28 10 -32q0 -9 -1 -48v-32q1 -7 -12 -32q25 -6 70 -44q2 12 15 19.5t13 8.5zM431 565q-36 -75 -92 -75q-25 0 -69.5 19t-68.5 19q-39 0 -65 -33q-3 5 -9 5.5t-9 3.5q33 78 109 78q23 0 63 -17.5t60 -17.5
q32 0 67 29z" />
    <glyph glyph-name="aring" unicode="&#xe5;" horiz-adv-x="606" 
d="M583 71v-7q-31 -5 -80 -29q-45 -22 -74 -44q-27 34 -74 54q-43 19 -90 19q-97 0 -140 -76q-12 15 -38 41q-30 21 -84 33v11q41 9 41 44v68q0 19 -13 34q-4 5 -29 24q4 8 8 7q19 -4 73 -4l103 1l8 5q-6 6 -54.5 23.5t-72.5 35.5q-37 28 -37 68q0 26 19 45.5t45 19.5
q16 0 44.5 -16t28.5 -31l-2 -4h-3q-36 1 -36 -26t41 -27q58 0 113.5 29t87.5 77h10q17 -21 77 -48q56 -24 89 -28q9 -1 27 -7v-4q-1 0 -42 -16q-25 -10 -25 -44v-175q0 -39 79 -53zM474 46q-32 21 -65 48q9 5 12 23.5t2 18.5v126q0 35 -29.5 69.5t-64.5 36.5q-17 -6 -20 -12
q43 -15 58 -46q11 -24 11 -72q-1 -83 -1 -98q3 -20 -2 -28.5t-28 -28.5q55 -30 96 -56q12 5 31 19zM350 271q0 28 -29 44q-24 13 -54 13q-23 0 -70 -8.5t-72 -7.5q60 -44 213 -66l10 3q2 26 2 22zM349 124v89q-16 9 -41 9q-40 0 -74 -19q-41 -24 -41 -61q0 -53 76 -53
q23 0 47 8q33 10 33 27zM156 62l-24 16q-20 12 -20 16v128h-51q10 -28 10 -32q0 -9 -1 -48v-32q1 -7 -12 -32q25 -6 70 -44q2 12 15 19.5t13 8.5zM287 635q35 0 59.5 -23.5t24.5 -57.5q0 -35 -24.5 -58.5t-59.5 -23.5q-34 0 -58 23.5t-24 58.5q0 33 24.5 57t57.5 24z
M287 603q-20 0 -35 -14.5t-15 -34.5q0 -21 15 -35.5t35 -14.5q22 0 37 14t15 36q0 20 -15.5 34.5t-36.5 14.5z" />
    <glyph glyph-name="ccedilla" unicode="&#xe7;" horiz-adv-x="482" 
d="M433 356q0 -4 -25 -18q-34 -20 -77 -104l-12 1q-17 46 -24 58q-15 27 -46 43q-23 13 -34 13q-5 0 -17 -6v-179q50 -22 150 -58q26 -4 78 -13l2 -7l-2 -5q-36 -8 -76 -29q-44 -24 -63 -50q-6 -2 -16 -7l4 -4q-2 0 -31 17q-16 9 -48 21l-16 -54q28 5 37 5q28 0 48 -17
t20 -44q0 -38 -40 -58q-32 -17 -74 -17q-41 0 -78 16l14 34q31 -13 52 -13q16 0 29.5 9.5t13.5 24.5q0 29 -33 29q-12 0 -22 -3l-13 14l32 84h3q-44 15 -71 20q-32 2 -97 12l-3 4l3 9l16 4q2 3 21 18q12 8 12 36v126q0 36 -13 50q-7 8 -45 27v15l3 1q2 0 7 -2t8 -2
q104 0 162 16q49 13 149 63q37 -37 40 -39q18 -15 49 -30q23 0 23 -11zM347 323q-1 7 -32 33.5t-38 27.5l-25 -13q41 -25 59 -50q5 -8 17 -24q8 10 19 26zM299 57q-36 15 -108 44q-23 6 -70 21q0 6 -4.5 18t-4.5 18l1 133q0 35 -9 47q-13 1 -40 -3q14 -23 14 -46l-1 -149
q0 -26 -14 -45q120 -18 204 -66z" />
    <glyph glyph-name="eacute" unicode="&#xe9;" horiz-adv-x="550" 
d="M520 275q-120 -24 -148 -32q-88 -24 -156 -65v-16q-10 3 -12 3v0q0 -4 96 -35q100 -33 131 -33q24 0 79 12q0 -7 2 -21q-52 0 -123 -31q-48 -21 -84 -48q-28 -20 -29 -20q-2 0 -46 21q-47 22 -58 26l-116 38q-34 11 -47 9q8 1 29.5 26t20.5 38v131q-8 37 -9 40
q-10 25 -41 44q110 21 163 36q95 25 158 57q10 -35 76 -90zM400 284l-132 115l-42 -15q121 -114 131 -114q6 0 43 14zM321 261q-37 34 -104 94v-137q28 7 104 43zM304 55q-103 53 -175 65l-1 174q-1 15 -3 31q-2 12 -11 28q-11 -1 -41 -10q15 -18 15 -58q0 -11 -1.5 -29.5
t-1.5 -23.5q0 -125 -8 -138q32 -11 124 -39l70 -31q10 -1 33 31zM330 649q54 -82 51 -85q-3 -4 -226 -79l-15 30z" />
    <glyph glyph-name="egrave" unicode="&#xe8;" horiz-adv-x="550" 
d="M520 275q-120 -24 -148 -32q-88 -24 -156 -65v-16q-10 3 -12 3v0q0 -4 96 -35q100 -33 131 -33q24 0 79 12q0 -7 2 -21q-52 0 -123 -31q-48 -21 -84 -48q-28 -20 -29 -20q-2 0 -46 21q-47 22 -58 26l-116 38q-34 11 -47 9q8 1 29.5 26t20.5 38v131q-8 37 -9 40
q-10 25 -41 44q110 21 163 36q95 25 158 57q10 -35 76 -90zM400 284l-132 115l-42 -15q121 -114 131 -114q6 0 43 14zM321 261q-37 34 -104 94v-137q28 7 104 43zM304 55q-103 53 -175 65l-1 174q-1 15 -3 31q-2 12 -11 28q-11 -1 -41 -10q15 -18 15 -58q0 -11 -1.5 -29.5
t-1.5 -23.5q0 -125 -8 -138q32 -11 124 -39l70 -31q10 -1 33 31zM185 639q-55 -82 -51 -85q3 -4 226 -79l15 30z" />
    <glyph glyph-name="ecircumflex" unicode="&#xea;" horiz-adv-x="550" 
d="M520 275q-120 -24 -148 -32q-88 -24 -156 -65v-16q-10 3 -12 3v0q0 -4 96 -35q100 -33 131 -33q24 0 79 12q0 -7 2 -21q-52 0 -123 -31q-48 -21 -84 -48q-28 -20 -29 -20q-2 0 -46 21q-47 22 -58 26l-116 38q-34 11 -47 9q8 1 29.5 26t20.5 38v131q-8 37 -9 40
q-10 25 -41 44q110 21 163 36q95 25 158 57q10 -35 76 -90zM400 284l-132 115l-42 -15q121 -114 131 -114q6 0 43 14zM321 261q-37 34 -104 94v-137q28 7 104 43zM304 55q-103 53 -175 65l-1 174q-1 15 -3 31q-2 12 -11 28q-11 -1 -41 -10q15 -18 15 -58q0 -11 -1.5 -29.5
t-1.5 -23.5q0 -125 -8 -138q32 -11 124 -39l70 -31q10 -1 33 31zM416 486l-126 58l-134 -58l-14 27l146 105l139 -105z" />
    <glyph glyph-name="edieresis" unicode="&#xeb;" horiz-adv-x="550" 
d="M520 275q-120 -24 -148 -32q-88 -24 -156 -65v-16q-10 3 -12 3v0q0 -4 96 -35q100 -33 131 -33q24 0 79 12q0 -7 2 -21q-52 0 -123 -31q-48 -21 -84 -48q-28 -20 -29 -20q-2 0 -46 21q-47 22 -58 26l-116 38q-34 11 -47 9q8 1 29.5 26t20.5 38v131q-8 37 -9 40
q-10 25 -41 44q110 21 163 36q95 25 158 57q10 -35 76 -90zM400 284l-132 115l-42 -15q121 -114 131 -114q6 0 43 14zM321 261q-37 34 -104 94v-137q28 7 104 43zM304 55q-103 53 -175 65l-1 174q-1 15 -3 31q-2 12 -11 28q-11 -1 -41 -10q15 -18 15 -58q0 -11 -1.5 -29.5
t-1.5 -23.5q0 -125 -8 -138q32 -11 124 -39l70 -31q10 -1 33 31zM143 532q0 19 14 33t34 14q19 0 33.5 -14t14.5 -33q0 -20 -14 -33.5t-34 -13.5t-34 13.5t-14 33.5zM298 532q0 19 14 33t33 14q20 0 34.5 -14t14.5 -33q0 -20 -14.5 -33.5t-34.5 -13.5q-19 0 -33 13.5
t-14 33.5z" />
    <glyph glyph-name="iacute" unicode="&#xed;" horiz-adv-x="344" 
d="M303 70q-6 -5 -64 -32t-87 -55q-30 34 -143 92q8 4 34 34q28 34 27 46l-2 140q-11 38 -72 45q15 9 44 24q42 15 96 73q27 -25 83 -54q39 -17 77 -35q-52 -11 -64 -73q-5 -20 -5 -96q0 -54 5 -66q13 -33 71 -43zM174 56l-49 40q0 4 6.5 19t7.5 18v149q0 25 -11 49
q-13 29 -35 30q-7 0 -30 -14q28 -15 34 -39q1 -4 1 -42v-130q-3 -9 -18 -23.5t-16 -24.5q27 -14 85 -55q7 -6 25 23zM220 649q54 -82 51 -85q-3 -4 -226 -79l-15 30z" />
    <glyph glyph-name="igrave" unicode="&#xec;" horiz-adv-x="344" 
d="M303 70q-6 -5 -64 -32t-87 -55q-30 34 -143 92q8 4 34 34q28 34 27 46l-2 140q-11 38 -72 45q15 9 44 24q42 15 96 73q27 -25 83 -54q39 -17 77 -35q-52 -11 -64 -73q-5 -20 -5 -96q0 -54 5 -66q13 -33 71 -43zM174 56l-49 40q0 4 6.5 19t7.5 18v149q0 25 -11 49
q-13 29 -35 30q-7 0 -30 -14q28 -15 34 -39q1 -4 1 -42v-130q-3 -9 -18 -23.5t-16 -24.5q27 -14 85 -55q7 -6 25 23zM105 639q-55 -82 -51 -85q3 -4 226 -79l15 30z" />
    <glyph glyph-name="icircumflex" unicode="&#xee;" horiz-adv-x="344" 
d="M303 70q-6 -5 -64 -32t-87 -55q-30 34 -143 92q8 4 34 34q28 34 27 46l-2 140q-11 38 -72 45q15 9 44 24q42 15 96 73q27 -25 83 -54q39 -17 77 -35q-52 -11 -64 -73q-5 -20 -5 -96q0 -54 5 -66q13 -33 71 -43zM174 56l-49 40q0 4 6.5 19t7.5 18v149q0 25 -11 49
q-13 29 -35 30q-7 0 -30 -14q28 -15 34 -39q1 -4 1 -42v-130q-3 -9 -18 -23.5t-16 -24.5q27 -14 85 -55q7 -6 25 23zM289 514l-8 -19l-123 57l-131 -57l-10 19l139 114z" />
    <glyph glyph-name="idieresis" unicode="&#xef;" horiz-adv-x="344" 
d="M303 70q-6 -5 -64 -32t-87 -55q-30 34 -143 92q8 4 34 34q28 34 27 46l-2 140q-11 38 -72 45q15 9 44 24q42 15 96 73q27 -25 83 -54q39 -17 77 -35q-52 -11 -64 -73q-5 -20 -5 -96q0 -54 5 -66q13 -33 71 -43zM174 56l-49 40q0 4 6.5 19t7.5 18v149q0 25 -11 49
q-13 29 -35 30q-7 0 -30 -14q28 -15 34 -39q1 -4 1 -42v-130q-3 -9 -18 -23.5t-16 -24.5q27 -14 85 -55q7 -6 25 23zM33 532q0 19 14 33t34 14q19 0 33.5 -14t14.5 -33q0 -20 -14 -33.5t-34 -13.5t-34 13.5t-14 33.5zM188 532q0 19 14 33t33 14q20 0 34.5 -14t14.5 -33
q0 -20 -14.5 -33.5t-34.5 -13.5q-19 0 -33 13.5t-14 33.5z" />
    <glyph glyph-name="ntilde" unicode="&#xf1;" horiz-adv-x="630" 
d="M593 353q-21 -8 -42 -35t-21 -48q-1 -58 -1 -149q0 -20 57 -51q-84 -42 -129 -93q-67 73 -130 87l30 26q17 17 15 42v130q-1 33 -22 53t-54 20q-30 0 -53 -19t-21 -46q1 -16 2 -73q0 -60 -2 -60q-5 0 13.5 -31t43.5 -42q-77 -25 -136 -79q-29 21 -91 56q-17 7 -50 23
q23 8 43 25q25 21 25 43v121q0 36 -16 56q-12 18 -49 39q22 19 67 47q51 33 69 47q58 -79 160 -79q40 0 85.5 24t70.5 57q42 -60 136 -91zM477 43q-4 3 -32 18t-28 17q0 1 10.5 15t10.5 22q0 107 1 158q-4 29 -20.5 52.5t-29.5 23.5q-14 0 -26 -11q30 -5 37 -76v-136
q0 -23 -9 -36q-12 -16 -14 -20q45 -11 77 -54q6 10 23 27zM174 39q-38 33 -68 42q33 23 33 65v118q0 22 -21.5 58t-42.5 36q-16 0 -16 -11q33 -21 42 -88v-119q0 -37 -37 -70q24 -6 54 -25q27 -18 27 -25q-1 -1 -2 -1zM451 565q-36 -75 -92 -75q-25 0 -69.5 19t-68.5 19
q-39 0 -65 -33q-3 5 -9 5.5t-9 3.5q33 78 109 78q23 0 63 -17.5t60 -17.5q32 0 67 29z" />
    <glyph glyph-name="oacute" unicode="&#xf3;" horiz-adv-x="605" 
d="M570 78q-84 2 -159 -22q-54 -17 -100 -46q-40 -25 -35 -25q-2 0 -30 16q-32 18 -48 25q-109 46 -180 54q-1 6 22 28t25 40q-1 -5 -1 88q0 4 1 16v18q0 60 -41 74l-2 13h70q46 0 117 32q58 27 100 59q97 -70 252 -115q-50 -47 -50 -44v-138q0 -21 16 -35q11 -10 43 -25
v-13zM432 309l-159 77q-9 -2 -43 -18l164 -85v-200q11 5 38 15v211zM364 95l1 166q-28 18 -74 41q-63 30 -74 37v-174q37 -19 147 -70zM306 45q-101 52 -181 76q5 16 10 44v109q0 16 -6.5 30t-13.5 28h-30l-6 -5q13 -23 14 -34q1 -6 1 -54v-80q-4 -52 -23 -60
q90 -15 202 -77q16 8 33 23zM360 649q54 -82 51 -85q-3 -4 -226 -79l-15 30z" />
    <glyph glyph-name="ograve" unicode="&#xf2;" horiz-adv-x="605" 
d="M570 78q-84 2 -159 -22q-54 -17 -100 -46q-40 -25 -35 -25q-2 0 -30 16q-32 18 -48 25q-109 46 -180 54q-1 6 22 28t25 40q-1 -5 -1 88q0 4 1 16v18q0 60 -41 74l-2 13h70q46 0 117 32q58 27 100 59q97 -70 252 -115q-50 -47 -50 -44v-138q0 -21 16 -35q11 -10 43 -25
v-13zM432 309l-159 77q-9 -2 -43 -18l164 -85v-200q11 5 38 15v211zM364 95l1 166q-28 18 -74 41q-63 30 -74 37v-174q37 -19 147 -70zM306 45q-101 52 -181 76q5 16 10 44v109q0 16 -6.5 30t-13.5 28h-30l-6 -5q13 -23 14 -34q1 -6 1 -54v-80q-4 -52 -23 -60
q90 -15 202 -77q16 8 33 23zM215 639q-55 -82 -51 -85q3 -4 226 -79l15 30z" />
    <glyph glyph-name="ocircumflex" unicode="&#xf4;" horiz-adv-x="605" 
d="M570 78q-84 2 -159 -22q-54 -17 -100 -46q-40 -25 -35 -25q-2 0 -30 16q-32 18 -48 25q-109 46 -180 54q-1 6 22 28t25 40q-1 -5 -1 88q0 4 1 16v18q0 60 -41 74l-2 13h70q46 0 117 32q58 27 100 59q97 -70 252 -115q-50 -47 -50 -44v-138q0 -21 16 -35q11 -10 43 -25
v-13zM432 309l-159 77q-9 -2 -43 -18l164 -85v-200q11 5 38 15v211zM364 95l1 166q-28 18 -74 41q-63 30 -74 37v-174q37 -19 147 -70zM306 45q-101 52 -181 76q5 16 10 44v109q0 16 -6.5 30t-13.5 28h-30l-6 -5q13 -23 14 -34q1 -6 1 -54v-80q-4 -52 -23 -60
q90 -15 202 -77q16 8 33 23zM439 514l-8 -19l-123 57l-131 -57l-10 19l139 114z" />
    <glyph glyph-name="odieresis" unicode="&#xf6;" horiz-adv-x="605" 
d="M570 78q-84 2 -159 -22q-54 -17 -100 -46q-40 -25 -35 -25q-2 0 -30 16q-32 18 -48 25q-109 46 -180 54q-1 6 22 28t25 40q-1 -5 -1 88q0 4 1 16v18q0 60 -41 74l-2 13h70q46 0 117 32q58 27 100 59q97 -70 252 -115q-50 -47 -50 -44v-138q0 -21 16 -35q11 -10 43 -25
v-13zM432 309l-159 77q-9 -2 -43 -18l164 -85v-200q11 5 38 15v211zM364 95l1 166q-28 18 -74 41q-63 30 -74 37v-174q37 -19 147 -70zM306 45q-101 52 -181 76q5 16 10 44v109q0 16 -6.5 30t-13.5 28h-30l-6 -5q13 -23 14 -34q1 -6 1 -54v-80q-4 -52 -23 -60
q90 -15 202 -77q16 8 33 23zM173 532q0 19 14 33t34 14q19 0 33.5 -14t14.5 -33q0 -20 -14 -33.5t-34 -13.5t-34 13.5t-14 33.5zM328 532q0 19 14 33t33 14q20 0 34.5 -14t14.5 -33q0 -20 -14.5 -33.5t-34.5 -13.5q-19 0 -33 13.5t-14 33.5z" />
    <glyph glyph-name="otilde" unicode="&#xf5;" horiz-adv-x="605" 
d="M570 78q-84 2 -159 -22q-54 -17 -100 -46q-40 -25 -35 -25q-2 0 -30 16q-32 18 -48 25q-109 46 -180 54q-1 6 22 28t25 40q-1 -5 -1 88q0 4 1 16v18q0 60 -41 74l-2 13h70q46 0 117 32q58 27 100 59q97 -70 252 -115q-50 -47 -50 -44v-138q0 -21 16 -35q11 -10 43 -25
v-13zM432 309l-159 77q-9 -2 -43 -18l164 -85v-200q11 5 38 15v211zM364 95l1 166q-28 18 -74 41q-63 30 -74 37v-174q37 -19 147 -70zM306 45q-101 52 -181 76q5 16 10 44v109q0 16 -6.5 30t-13.5 28h-30l-6 -5q13 -23 14 -34q1 -6 1 -54v-80q-4 -52 -23 -60
q90 -15 202 -77q16 8 33 23zM431 565q-36 -75 -92 -75q-25 0 -69.5 19t-68.5 19q-39 0 -65 -33q-3 5 -9 5.5t-9 3.5q33 78 109 78q23 0 63 -17.5t60 -17.5q32 0 67 29z" />
    <glyph glyph-name="uacute" unicode="&#xfa;" horiz-adv-x="639" 
d="M599 86q-30 -17 -59 -34q-48 -28 -71 -63q-73 78 -163 78q-86 0 -163 -80q-23 28 -62.5 52.5t-71.5 32.5q31 15 49 41l14 26l1 94q0 56 -5 70q-14 37 -72 48q39 16 46 20q27 17 88 73q46 -70 147 -87q-32 -18 -38 -30q-3 -5 -3 -28l-1 -159q8 -43 74 -43q41 0 61 27
q13 19 16 53l2 38l-1 90q0 7 -12 23q-14 20 -33 27q34 14 82 53l42 33q16 -19 58 -44q47 -28 73 -29q-1 0 -34 -30q-20 -18 -20 -40v-80q0 -62 0 -52q-5 -54 56 -80zM494 52q-18 17 -67 49q4 3 14 23t10 27v154q0 6 -11 30q-14 29 -27 29q-11 0 -24 -13q24 -8 24 -38v-147
q-2 -29 -3 -29q-6 -20 -36 -49q26 -4 64.5 -32t31.5 -28q3 0 12 11t12 13zM178 50q-20 16 -59 38q19 24 19 143q0 57 -5 77q-10 46 -48 60q-8 -5 -19 -12q24 -13 30 -54q2 -35 3 -70q2 -43 2 -52q0 -89 -35 -102q38 -14 63 -32l22 -18q10 5 27 22zM380 649q54 -82 51 -85
q-3 -4 -226 -79l-15 30z" />
    <glyph glyph-name="ugrave" unicode="&#xf9;" horiz-adv-x="639" 
d="M599 86q-30 -17 -59 -34q-48 -28 -71 -63q-73 78 -163 78q-86 0 -163 -80q-23 28 -62.5 52.5t-71.5 32.5q31 15 49 41l14 26l1 94q0 56 -5 70q-14 37 -72 48q39 16 46 20q27 17 88 73q46 -70 147 -87q-32 -18 -38 -30q-3 -5 -3 -28l-1 -159q8 -43 74 -43q41 0 61 27
q13 19 16 53l2 38l-1 90q0 7 -12 23q-14 20 -33 27q34 14 82 53l42 33q16 -19 58 -44q47 -28 73 -29q-1 0 -34 -30q-20 -18 -20 -40v-80q0 -62 0 -52q-5 -54 56 -80zM494 52q-18 17 -67 49q4 3 14 23t10 27v154q0 6 -11 30q-14 29 -27 29q-11 0 -24 -13q24 -8 24 -38v-147
q-2 -29 -3 -29q-6 -20 -36 -49q26 -4 64.5 -32t31.5 -28q3 0 12 11t12 13zM178 50q-20 16 -59 38q19 24 19 143q0 57 -5 77q-10 46 -48 60q-8 -5 -19 -12q24 -13 30 -54q2 -35 3 -70q2 -43 2 -52q0 -89 -35 -102q38 -14 63 -32l22 -18q10 5 27 22zM225 639q-55 -82 -51 -85
q3 -4 226 -79l15 30z" />
    <glyph glyph-name="ucircumflex" unicode="&#xfb;" horiz-adv-x="639" 
d="M599 86q-30 -17 -59 -34q-48 -28 -71 -63q-73 78 -163 78q-86 0 -163 -80q-23 28 -62.5 52.5t-71.5 32.5q31 15 49 41l14 26l1 94q0 56 -5 70q-14 37 -72 48q39 16 46 20q27 17 88 73q46 -70 147 -87q-32 -18 -38 -30q-3 -5 -3 -28l-1 -159q8 -43 74 -43q41 0 61 27
q13 19 16 53l2 38l-1 90q0 7 -12 23q-14 20 -33 27q34 14 82 53l42 33q16 -19 58 -44q47 -28 73 -29q-1 0 -34 -30q-20 -18 -20 -40v-80q0 -62 0 -52q-5 -54 56 -80zM494 52q-18 17 -67 49q4 3 14 23t10 27v154q0 6 -11 30q-14 29 -27 29q-11 0 -24 -13q24 -8 24 -38v-147
q-2 -29 -3 -29q-6 -20 -36 -49q26 -4 64.5 -32t31.5 -28q3 0 12 11t12 13zM178 50q-20 16 -59 38q19 24 19 143q0 57 -5 77q-10 46 -48 60q-8 -5 -19 -12q24 -13 30 -54q2 -35 3 -70q2 -43 2 -52q0 -89 -35 -102q38 -14 63 -32l22 -18q10 5 27 22zM439 514l-8 -19l-123 57
l-131 -57l-10 19l139 114z" />
    <glyph glyph-name="udieresis" unicode="&#xfc;" horiz-adv-x="639" 
d="M599 86q-30 -17 -59 -34q-48 -28 -71 -63q-73 78 -163 78q-86 0 -163 -80q-23 28 -62.5 52.5t-71.5 32.5q31 15 49 41l14 26l1 94q0 56 -5 70q-14 37 -72 48q39 16 46 20q27 17 88 73q46 -70 147 -87q-32 -18 -38 -30q-3 -5 -3 -28l-1 -159q8 -43 74 -43q41 0 61 27
q13 19 16 53l2 38l-1 90q0 7 -12 23q-14 20 -33 27q34 14 82 53l42 33q16 -19 58 -44q47 -28 73 -29q-1 0 -34 -30q-20 -18 -20 -40v-80q0 -62 0 -52q-5 -54 56 -80zM494 52q-18 17 -67 49q4 3 14 23t10 27v154q0 6 -11 30q-14 29 -27 29q-11 0 -24 -13q24 -8 24 -38v-147
q-2 -29 -3 -29q-6 -20 -36 -49q26 -4 64.5 -32t31.5 -28q3 0 12 11t12 13zM178 50q-20 16 -59 38q19 24 19 143q0 57 -5 77q-10 46 -48 60q-8 -5 -19 -12q24 -13 30 -54q2 -35 3 -70q2 -43 2 -52q0 -89 -35 -102q38 -14 63 -32l22 -18q10 5 27 22zM173 532q0 19 14 33t34 14
q19 0 33.5 -14t14.5 -33q0 -20 -14 -33.5t-34 -13.5t-34 13.5t-14 33.5zM328 532q0 19 14 33t33 14q20 0 34.5 -14t14.5 -33q0 -20 -14.5 -33.5t-34.5 -13.5q-19 0 -33 13.5t-14 33.5z" />
    <glyph glyph-name="dagger" unicode="&#x2020;" horiz-adv-x="476" 
d="M203 489q-24 -1 -69.5 -20.5t-65.5 -19.5q-54 0 -54 56q0 60 54 60q19 0 65 -22t70 -24q0 37 -26 91.5t-26 68.5q0 27 19.5 42.5t47.5 15.5t47 -15.5t19 -42.5q0 -14 -26 -69t-27 -91q25 2 71 24t64 22q55 0 55 -62q0 -61 -55 -61q-17 0 -63 22.5t-72 24.5
q7 -107 68 -171q-43 -83 -55 -198q-5 -43 -9 -207h-35q-4 159 -9 207q-13 117 -55 198q61 64 67 171z" />
    <glyph glyph-name="degree" unicode="&#xb0;" horiz-adv-x="323" 
d="M144 689q52 0 88 -37t36 -89t-36 -88.5t-88 -36.5t-88.5 36.5t-36.5 88.5q0 53 36 89.5t89 36.5zM144 649q-36 0 -60.5 -25t-24.5 -61q0 -35 25 -60t60 -25t59.5 25t24.5 60t-24.5 60.5t-59.5 25.5z" />
    <glyph glyph-name="cent" unicode="&#xa2;" horiz-adv-x="496" 
d="M228 14h-32v159q-57 20 -88 26q-33 2 -97 12q-3 1 -3 4q0 4 3 9l20 5q9 8 19 16.5t10 36.5v126q0 37 -13 50q-6 7 -45 27v15q2 2 19 2q132 0 175 13v123q14 1 24 1q5 0 8 -1v-112q30 14 103 50l40 -39q16 -15 49 -30q23 0 23 -11q0 -5 -9 -9.5t-16 -8.5q-26 -16 -46 -47
q-7 -10 -31 -57l-12 1q-17 47 -24 58q-15 27 -46 43q-23 13 -34 13q-9 0 -17 -5v-172q2 -3 12 -9q49 -32 138 -57q26 -4 78 -13l2 -7l-2 -5q-36 -8 -76 -29q-45 -25 -63 -50q-2 -4 -8 -11h-4q-1 0 -27 13.5t-30 15.5v-146zM357 463q-1 6 -32 33t-38 28l-25 -13
q41 -25 59 -50q5 -8 17 -24q7 9 19 26zM309 197q-36 15 -108 44q-23 6 -70 21q1 23 1 36v118q0 24 -9 46q-3 3 -10 12q-13 3 -40 0q14 -26 14 -51v-143q0 -26 -14 -45q120 -18 204 -66z" />
    <glyph glyph-name="sterling" unicode="&#xa3;" horiz-adv-x="655" 
d="M488 58q-25 11 -91 24q-77 14 -141 14q-25 0 -60.5 -8.5t-31.5 -8.5q130 -12 198 -38q15 -5 60 -25zM60 548q15 -104 15 -129q0 -20 -4 -29q56 -32 56 -106q0 -21 -4 -44q35 67 35 94q0 35 -39 70q0 18 -15 153zM5 332h83q-17 33 -54 49q5 19 5 58q0 53 -3 69
q-6 31 -29 63q41 9 175 55q24 9 75 38q46 27 50 27l95 -50q105 -54 170 -72q-9 -29 -22 -98q2 -24 0 -73q-66 32 -121 32q-1 0 -13.5 3t-17.5 1q14 46 14 75q0 35 -24 74q-30 50 -75 50q-42 0 -68 -44q-22 -37 -22 -82q0 -21 17.5 -68t15.5 -75l-2 -32h175v-46h-181
q-18 -74 -110 -118q-22 -20 -43 -40.5t-27 -43.5q32 26 94 43t121 17q13 0 37.5 -2.5t37.5 -2.5q51 0 98 27q43 23 104 81q7 -98 42 -181q-89 -45 -179 -91q2 0 -40 16q-48 19 -94 31q-65 16 -123 16q-28 0 -70.5 -13.5t-58.5 -26.5h-29v92q44 38 70 93t23 103h-96v46z
M435 583q0 -21 2.5 -40.5t2.5 -28.5q0 -17 -5 -46l41 -3q15 55 3 98q-44 23 -44 20z" />
    <glyph glyph-name="bullet" unicode="&#x2022;" horiz-adv-x="299" 
d="M35 267q0 42 31 70.5t73 28.5t73 -28.5t31 -70.5t-31 -70.5t-73 -28.5t-73 28.5t-31 70.5z" />
    <glyph glyph-name="paragraph" unicode="&#xb6;" horiz-adv-x="487" 
d="M462 -65h-282v30q39 0 49 12t10 53v283l-31 -1q-85 -3 -136.5 44t-51.5 132q0 101 66 142q52 32 162 32h214v-30q-38 0 -47.5 -12.5t-9.5 -53.5v-536q0 -42 8 -52q10 -13 49 -13v-30zM352 -35v667h-63v-667h63z" />
    <glyph glyph-name="germandbls" unicode="&#xdf;" horiz-adv-x="820" 
d="M785 60q-18 -6 -48 -37.5t-38 -53.5q-27 38 -90 57q-47 15 -94 15q-26 0 -78 -18q-62 -21 -76 -47q-18 25 -116 92q2 1 3 2q-2 5 -5 9l3 3l301 283h-54q9 0 -89 0q-93 1 -188 1l-1 -387q-3 -27 34 -52l44 -26q-29 -28 -59 -56q-47 -44 -54 -44q-2 0 -22 18t-28 22
q-58 26 -73 31q-37 14 -69 15v4q1 3 1 6q46 23 60 46q11 18 11 55v371q-50 0 -58 -1v36h58q0 -18 0 153q0 18 -50 65h81q48 3 117 22q85 22 103 47q55 -44 104 -70q-25 -28 -51 -56q-33 -39 -35 -69q-2 0 -3 1h-3q-17 31 -33 62q-30 47 -63 47q-8 0 -13 -5v-198l279 1
q65 0 80 3q52 9 73 46q28 -44 122 -86l-324 -291q9 -8 20 -10q8 -2 22 0q18 2 22 2h67q104 0 127 114q19 -56 45 -84zM345 588q-66 47 -67 47l-13 -9q20 -13 38 -39l20 -32q9 13 22 33zM713 38q0 15 -40 40q-10 -8 -32 -23q18 -3 31 -16q20 -19 22 -20zM615 346q3 3 1 15
q-1 11 -5 17q-11 -3 -28 -10q-1 -7 -23 -26q-44 -39 -139 -133q-90 -90 -134 -128q29 -8 77 -59l28 19q-17 15 -45 47q39 34 142.5 133.5t125.5 124.5zM230 -117q-2 0 -8.5 3.5t-8.5 3.5q-20 0 -80 63l1 590q0 53 -20 53q-33 0 -43 -2q15 -22 15 -49v-549q0 -58 -29 -88
q47 -7 92 -37q41 -28 33 -30q17 19 48 42z" />
    <glyph glyph-name="registered" unicode="&#xae;" horiz-adv-x="376" 
d="M185 720q60 0 102.5 -43.5t42.5 -103.5q0 -61 -43 -104t-104 -43t-104 43t-43 104q0 62 43.5 104.5t105.5 42.5zM182 699q-51 0 -86 -37t-35 -88q0 -52 35 -88.5t87 -36.5t87 36.5t35 88.5t-35.5 88.5t-87.5 36.5zM166 568v-41q0 -9 1 -15q7 -3 24 -3v-14h-89v14
q14 0 21 3q2 6 2 15v92q0 8 -2 15q-6 2 -21 2v15h95q58 0 58 -40q0 -31 -38 -39q21 -8 30 -57q2 -2 5 -3q8 0 8 20h15v-5q0 -35 -38 -35q-26 0 -34 22q-2 5 -7 45q-4 9 -30 9zM166 583h11q34 0 34 27q0 26 -25 26h-9q-11 0 -11 -12v-41z" />
    <glyph glyph-name="copyright" unicode="&#xa9;" horiz-adv-x="793" 
d="M377 721q151 0 257.5 -108.5t106.5 -259.5q0 -153 -107.5 -260.5t-260.5 -107.5q-152 0 -260 107.5t-108 259.5q0 156 108 262.5t264 106.5zM369 669q-127 0 -214 -94t-87 -222q0 -129 88.5 -222.5t216.5 -93.5t216.5 93.5t88.5 222.5q0 132 -88.5 224t-220.5 92z
M531 554l6 -160l-36 -4q-34 129 -118 129q-95 0 -95 -163q0 -166 102 -166q93 0 114 116l41 -10q-30 -148 -173 -148q-89 0 -144 55t-55 144q0 91 57.5 150t147.5 59q52 0 97 -27l28 25h28z" />
    <glyph glyph-name="trademark" unicode="&#x2122;" horiz-adv-x="656" 
d="M248 708l6 -97h-23q-14 74 -54 74l-6 -3l-1 -8v-166q0 -15 2 -25q11 -4 36 -4v-23h-143v23q26 0 37 4q2 11 2 25v166l-2 9l-6 2q-40 0 -54 -74h-22l5 97h223zM410 708l48 -135l46 135h116v-23q-22 0 -33 -4q-2 -10 -2 -25v-148q0 -15 2 -25q11 -4 33 -4v-23h-136v23
q22 0 33 4q2 11 2 25v156l-72 -208h-16l-72 206v-132q0 -28 4 -36q7 -15 32 -15v-23h-102v23h2q24 0 31 15q4 9 4 36v126q0 14 -2 25q-11 4 -32 4v23h114z" />
    <glyph glyph-name="acute" unicode="&#xb4;" horiz-adv-x="253" 
d="M220 649q54 -82 51 -85q-3 -4 -226 -79l-15 30z" />
    <glyph glyph-name="dieresis" unicode="&#xa8;" horiz-adv-x="326" 
d="M43 562q0 19 14 33t34 14q19 0 33.5 -14t14.5 -33q0 -20 -14 -33.5t-34 -13.5t-34 13.5t-14 33.5zM188 562q0 19 14 33t33 14q20 0 34.5 -14t14.5 -33q0 -20 -14.5 -33.5t-34.5 -13.5q-19 0 -33 13.5t-14 33.5z" />
    <glyph glyph-name="AE" unicode="&#xc6;" horiz-adv-x="1436" 
d="M303 271q-44 0 -44 -58q1 -29 18.5 -63t41.5 -48q11 -6 53 -30q-140 -52 -173 -84q-45 32 -191 99v7q26 11 75 37q70 47 121 110q37 46 88 137q66 117 66 131q0 39 -52 61q-44 19 -102 19q-30 0 -49 -6q-103 -29 -103 -125q0 -26 22.5 -48t42.5 -22q8 0 11 4q-1 12 -4 36
q9 27 14 35q11 17 32 17q30 0 50.5 -17t20.5 -46q0 -34 -30 -54q-26 -16 -62 -16q-48 0 -87 35.5t-39 83.5q0 92 85 153q76 54 173 54q93 0 164 -32q53 -23 96 -65q26 -27 51 -54q63 68 81 83q49 39 121 57q85 22 231 22q83 0 157 -21q50 -14 98 -39q41 -21 44 -21t16 7
t16 7q8 0 17 -16q-79 -59 -138 -180q-59 122 -122 176q-67 58 -161 58q-27 0 -26 -5v-241q29 12 56 58q16 31 33 62q6 -46 55 -95q44 -44 95 -67q-22 -14 -89 -61q-17 -13 -40 -46q-29 -41 -37 -49q-11 46 -17 59q-20 46 -60 65l-1 -221q7 -9 63 -9q110 0 171 44
q43 30 68 88q28 65 33 70q6 -51 40 -109q40 -68 102 -109q-107 -53 -148 -116q-71 63 -140 88q-61 22 -140 22h-48q-2 -26 -2 -56q0 -142 42 -142q12 0 19.5 13t7.5 23q0 8 -20 24q2 9 21 9q22 0 41 -18t19 -39q0 -26 -28 -44q-23 -15 -47 -15q-84 0 -84 171q0 21 1.5 46.5
t1.5 27.5q-61 -9 -94 -24q-63 -28 -112 -76q-93 68 -203 107v0l-8 3l8 -3l3 1l-4 1q33 18 54 32q10 13 10 37q0 26 -17 65q-21 45 -44 45h-184zM545 -82zM1263 530q0 32 -67 75q-62 38 -80 36q63 -50 121 -146q26 25 26 35zM898 385v263q-89 -16 -88 -106l1 -156zM1042 413
q-20 25 -28 30q-11 -18 -49 -45t-42 -32q32 -6 56 -33.5t27 -52.5q2 6 17 21t17 19q-12 13 -39 29q-19 11 -39 22q29 12 80 42zM1276 173q0 16 -22 40q-33 -66 -136 -119q47 -15 129 -74q8 8 18 21q-33 22 -88 51q99 66 99 81zM896 121v232l-85 1v-117q0 -23 9 -43
q20 -48 76 -73zM715 591q-32 -28 -65 -55v-395q33 1 51 -38q6 207 1 426q3 15 13 62zM493 311q-21 51 -41 102q-25 60 -48 100l-2 -6q-35 -60 -111 -196h202zM709 51q-34 32 -90 80q4 3 4 17q0 25 -14 65q-78 221 -104 280q-27 64 -57 64l-13 -4q-44 47 -76 63
q-38 20 -94 20q-46 0 -72 -19q99 -1 155 -34q37 -21 41 -40q2 0 7 3t8 3q21 0 35 -26q38 -71 80 -173q70 -168 76 -257q36 -16 110 -50q4 5 4 8zM232 168q-1 16 -3 44q-9 -10 -26 -28t-55 -46q-41 -31 -57 -45q35 -19 104 -58q24 13 24 20q0 6 -31 24t-31 21q26 20 75 68z
" />
    <glyph glyph-name="Oslash" unicode="&#xd8;" horiz-adv-x="985" 
d="M702 570l26 25q-21 27 -47 43l-30 11q30 -37 51 -79zM599 476l75 69q-32 83 -75 99v-168zM501 386l69 64v201l-23 -4q-16 0 -31 -20q-11 -15 -15 -29v-212zM377 273l41 37v284q-24 -7 -41 -19v-302zM242 150l100 91v11l-2 318q-3 3 -14 4t-15 0q-104 -45 -104 -251
q0 -101 35 -173zM182 94l20 19q-58 55 -83 110.5t-25 130.5q0 89 52 158q48 63 150 123q-119 -18 -189 -103q-65 -78 -65 -185q0 -74 35 -140q37 -70 105 -113zM238 81l-11 -10q21 -9 44 -16q-18 14 -33 26zM418 245l-41 -37v-64q14 5 41 17v84zM570 385l-69 -63v-137
q11 -7 21 -24q-182 -79 -191 -79q-7 0 -10 6q14 28 19 86l-72 -66q66 -85 191 -83q79 1 112 29zM691 495l-92 -84v-341q111 105 111 304q0 52 -19 121zM755 554l-34 -31q24 -70 24 -155q0 -192 -97 -304q79 25 123 135q33 86 33 176q0 87 -49 179zM835 692l33 -34l-56 -52
q107 -96 107 -237q0 -268 -323 -358v-49q-2 -55 18 -67q9 -5 20 -5q29 0 26 27q-2 15 -7 21.5t-12 14.5q1 1 1.5 3.5t3.5 2.5q23 0 40 -14.5t17 -36.5q0 -25 -22.5 -40.5t-42.5 -15.5q-49 0 -64 59q-7 29 -6 97q-34 0 -66 -7t-107 -7q-92 0 -192 55l-69 -63l-34 34l61 55
q-157 110 -157 275q0 154 133 251q115 84 252 84q8 0 31 -6q-24 -14 -49 -29q-35 -22 -58 -49h20q23 0 65 22q62 33 85 42q58 22 120 22q93 0 171 -51z" />
    <glyph glyph-name="plusminus" unicode="&#xb1;" 
 />
    <glyph glyph-name="yen" unicode="&#xa5;" horiz-adv-x="681" 
d="M673 591q-32 -5 -39 -7q-16 -6 -32 -25q-14 -6 -76 -110q-31 -54 -63 -109v-52h114q3 -32 0 -32h-112l-1 -42q126 0 111 -1v-32h-109l1 -52q4 -20 28 -36l18 -12l-149 -100l-63 54l-56 42q9 7 26 23q11 10 19 27q1 2 0 54h-107v32h106q-1 34 -1 44q-81 -3 -107 0v31h109
l-1 50q-21 37 -167 236q-10 0 -24 -3t-24 -3q-28 0 -51 18q-26 20 -26 50q0 52 60 52q36 0 51 -23v-5q-11 -1 -22 -10t-11 -19q0 -28 35 -28q9 0 17 3q99 31 133 60l14 12q63 -115 174 -300l117 197q9 17 9 33q0 23 -15 59l3 1q4 -8 33 -8q25 0 45 12q0 -21 11.5 -49
t21.5 -32zM398 49l-57 44q18 22 18 25v237q0 3 -159 249l-45 -17l166 -243v-228l-22 -30l75 -55z" />
    <glyph glyph-name="mu" unicode="&#xb5;" horiz-adv-x="846" 
d="M691 533q0 58 -57 85q9 -19 9 -38v-10.5v-8.5q0 -27 45 -49q0 4 1.5 11t1.5 10zM491 442v202h-15q-32 0 -60.5 -37.5t-28.5 -66.5l-1 -158zM491 408l-105 -60v-154q10 1 105 -3v217zM562 448l-46 -26l1 -235q58 -9 106 -21q116 -30 165 -68q-41 -3 -92 -32
q-33 -18 -76 -50q-35 -27 -37 -27q1 0 -19.5 15t-32.5 15l-21 3q2 -36 2 -74q0 -51 25 -51q9 0 18 7t9 18q0 15 -14 30q5 14 32 14q17 0 30.5 -15.5t13.5 -30.5q0 -29 -30 -48q-25 -16 -48 -14q-66 5 -66 106q0 75 1 69q-48 25 -148 25q-49 0 -146 -29t-130 -54v18
q0 30 54 79q64 60 65 61v96l-121 -68v34l121 68l1 248q0 26 -5 36q-8 14 -32 14q-3 0 -35 -4.5t-35 -4.5q-26 0 -49 16q-26 20 -26 50q0 26 16 44t35 18q35 0 67 -34q-1 -2 -15 -11t-14 -20q0 -25 36 -25q23 0 161.5 47.5t198.5 47.5q169 0 311 -142q-60 -10 -89 -107
q-53 83 -107 83h-13q-1 1 10 14q14 17 14 37q0 31 -33 53q-29 20 -58 17l-1 -184l46 26v-34zM268 314v189q-1 14 -9 44q-11 41 -25 41q-13 -5 -35 -11q17 -30 20 -43v-31q-2 -64 -1 -217zM624 62q-74 38 -174 51l-126 2q-33 1 -56 -2v167l-50 -28l1 -123q0 -22 -29 -43
q-45 -33 -49 -37q103 42 208 42q94 0 240 -58q14 9 35 29z" />
    <glyph glyph-name="mu" unicode="&#x3bc;" horiz-adv-x="846" 
d="M691 533q0 58 -57 85q9 -19 9 -38v-10.5v-8.5q0 -27 45 -49q0 4 1.5 11t1.5 10zM491 442v202h-15q-32 0 -60.5 -37.5t-28.5 -66.5l-1 -158zM491 408l-105 -60v-154q10 1 105 -3v217zM562 448l-46 -26l1 -235q58 -9 106 -21q116 -30 165 -68q-41 -3 -92 -32
q-33 -18 -76 -50q-35 -27 -37 -27q1 0 -19.5 15t-32.5 15l-21 3q2 -36 2 -74q0 -51 25 -51q9 0 18 7t9 18q0 15 -14 30q5 14 32 14q17 0 30.5 -15.5t13.5 -30.5q0 -29 -30 -48q-25 -16 -48 -14q-66 5 -66 106q0 75 1 69q-48 25 -148 25q-49 0 -146 -29t-130 -54v18
q0 30 54 79q64 60 65 61v96l-121 -68v34l121 68l1 248q0 26 -5 36q-8 14 -32 14q-3 0 -35 -4.5t-35 -4.5q-26 0 -49 16q-26 20 -26 50q0 26 16 44t35 18q35 0 67 -34q-1 -2 -15 -11t-14 -20q0 -25 36 -25q23 0 161.5 47.5t198.5 47.5q169 0 311 -142q-60 -10 -89 -107
q-53 83 -107 83h-13q-1 1 10 14q14 17 14 37q0 31 -33 53q-29 20 -58 17l-1 -184l46 26v-34zM268 314v189q-1 14 -9 44q-11 41 -25 41q-13 -5 -35 -11q17 -30 20 -43v-31q-2 -64 -1 -217zM624 62q-74 38 -174 51l-126 2q-33 1 -56 -2v167l-50 -28l1 -123q0 -22 -29 -43
q-45 -33 -49 -37q103 42 208 42q94 0 240 -58q14 9 35 29z" />
    <glyph glyph-name="ordfeminine" unicode="&#xaa;" horiz-adv-x="861" 
d="M824 69q-39 -5 -85 -42t-45 -37l-39 25t-54 29q-56 17 -128 17h-68q-1 -50 -1 -71v-76q0 -13 10.5 -22t23.5 -9q31 0 31 37q0 3 -5 33q51 -19 51 -58q0 -29 -24 -47q-20 -15 -42 -15q-57 0 -74 63v163q-3 1 -26 -2q-26 -4 -28 -4q-72 0 -176 -77q-22 82 -140 136
q207 192 239 222q149 141 149 155v112q-1 0 -14 -1h-16q-54 0 -125 -60q-67 -57 -88 -113q-39 141 -118 199q47 4 96.5 36.5t46.5 32.5q-1 0 33 -24.5t58 -28.5q97 -14 125 -14q157 0 316 59q26 -58 27 -59q17 -30 50 -53l-373 -348v-132q92 -2 185 63t116 153q6 -25 21 -91
q5 -25 31 -71q30 -56 60 -80zM517 591q-15 8 -75 8l-8 2q-6 1 -13 0q-7 -53 0 -98q23 18 96 88zM706 65q-16 8 -35 26t-27 22q59 44 59 70q0 7 -4.5 19t-8.5 14q-18 -48 -124 -116q57 -8 120 -57q18 13 20 22zM202 626q-20 20 -23 20q-12 0 -76 -39q33 -49 57 -92
q16 16 16 34q0 -1 -23 45q31 18 49 32zM685 632q-30 -2 -67 -9q-111 -86 -284 -248q-218 -204 -279 -257q55 -18 110 -89q5 0 24 13q-12 25 -24 49q-17 28 -40 36zM381 95l-1 108q-32 -25 -64 -49q-45 -36 -62 -61q34 -5 47 -5q57 0 80 7zM420 689l-155 117l8 27l149 -70
l140 70l10 -27z" />
    <glyph glyph-name="ordmasculine" unicode="&#xba;" horiz-adv-x="572" 
d="M535 60q-18 -6 -48 -37.5t-38 -53.5q-27 37 -93 55q-46 13 -97 13q-27 0 -75 -16q-59 -19 -73 -45q-17 24 -50 54q-44 42 -72 45l308 282q-3 3 -27 1q-33 -2 -26 -2q-47 0 -94 -20q-29 -13 -49 -38q-14 -20 -28 -41q-6 22 -23 55q-23 47 -44 60q12 9 95 73
q34 -65 155 -65q104 0 140 63q28 -44 122 -86l-329 -288q1 -1 69 -1h67q104 0 127 114q19 -56 45 -84zM463 38q0 11 -38 34q-11 -5 -34 -17q18 -3 31 -16q20 -19 22 -20zM102 344q0 5 -14.5 22.5t-15.5 20.5q-12 -12 -23 -17q4 -7 32 -49q6 9 21 23zM365 336q3 3 1 15
q-1 11 -5 17q-11 -3 -28 -10q-1 -7 -23 -26q-94 -89 -273 -251q29 -8 77 -59l28 19q-17 15 -45 47q207 181 268 248zM245 471l-155 117l8 27l149 -70l140 70l10 -27z" />
    <glyph glyph-name="ae" unicode="&#xe6;" horiz-adv-x="842" 
d="M491 50q-16 18 -76 45q7 10 8 26l1 13v134q0 35 -29.5 66t-64.5 33q-8 -3 -19 -12q42 -15 57 -46q11 -24 10 -73q0 -53 1 -92q2 0 2 -20q0 -23 -18 -39q34 -8 59 -24q21 -14 41 -28q10 4 28 17zM345 282q-8 46 -78 46q-23 0 -70 -8.5t-72 -7.5q60 -44 213 -66l7 -1
q1 27 0 37zM349 124v89q-16 9 -41 9q-40 0 -74 -19q-41 -24 -41 -61q0 -53 76 -53q23 0 47 8q33 10 33 27zM156 62l-24 16q-20 12 -20 16v128h-51q10 -28 10 -32q0 -9 -1 -48v-32q1 -7 -12 -32q25 -6 70 -44q2 12 15 19.5t13 8.5zM800 275q-120 -24 -148 -32
q-88 -24 -156 -65v-56l76 -47q26 10 55 19q71 21 150 30q1 -7 5 -26q-40 0 -131 -26l-104 -34q-36 -14 -93 -43q-26 34 -86 53q-52 16 -103 16q-97 0 -140 -76q-12 15 -38 41q-30 21 -84 33v11q41 9 41 44v68q0 19 -13 34q-4 5 -29 24q4 8 8 7q11 -2 75 -2h97l12 4
q-6 6 -54.5 23.5t-72.5 35.5q-37 28 -37 68q0 26 19 45.5t45 19.5q16 0 44.5 -16t28.5 -31l-2 -4h-3q-36 1 -36 -26t41 -27q58 0 113.5 29t87.5 77h10q31 -39 77 -57q41 10 72 23q8 4 83 43q10 -35 76 -90zM680 284l-132 115l-42 -15q121 -114 131 -114q6 0 43 14zM601 261
q-37 34 -104 94v-137q28 7 104 43z" />
    <glyph glyph-name="oslash" unicode="&#xf8;" horiz-adv-x="605" 
d="M339 311l29 29l-95 46q-9 -2 -43 -18zM217 189l100 100q-35 16 -100 50v-150zM116 88l28 27q-10 4 -19 6q5 16 10 44v109q0 16 -6.5 30t-13.5 28h-30l-6 -5q13 -23 14 -34q1 -6 1 -54v-80q-4 -52 -23 -60q19 -3 45 -11zM189 98l-26 -26q64 -25 110 -50q16 8 33 23
q-56 29 -117 53zM357 266l-114 -114q66 -33 121 -57l1 166zM410 320l-30 -30l14 -7v-200q11 5 38 15v211zM465 438l32 -32l-38 -37q51 -21 102 -36q-50 -47 -50 -44v-138q0 -21 16 -35q11 -10 43 -25v-13q-84 2 -159 -22q-54 -17 -100 -46q-40 -25 -35 -25q-2 0 -30 16
q-32 18 -48 25q-28 12 -58 23l-59 -59l-31 32l43 42q-44 13 -75 16q-1 6 22 28t25 40q-1 -5 -1 88q0 4 1 16v18q0 60 -41 74l-2 13h70q46 0 117 32q58 27 100 59q43 -31 106 -61z" />
    <glyph glyph-name="questiondown" unicode="&#xbf;" horiz-adv-x="605" 
d="M236 -25q0 -41 20 -74q23 -39 60 -39q41 0 68 44q22 35 22 67q0 25 -13 67q7 -2 22 -2q44 0 115 35q-1 -22 0 -66q2 -25 20 -88q-59 -16 -153 -65l-86 -45q-3 0 -44 24q-47 26 -68 35q-50 19 -89 30q-58 15 -68 19q20 28 25 56q3 15 3 63q0 46 -6.5 69t-13.5 44h84
q84 1 144 61q34 57 37 106h39q11 -26 11 -53q0 -34 -20 -59q-45 -56 -76 -119q-33 -67 -33 -110zM171 5q-1 -32 14 -63q17 -36 50 -52q-29 58 -26 84q7 61 16 87q14 38 62 109q-111 -70 -116 -165zM468 17q3 -24 5 -47q6 -42 17 -42q8 0 25 7q-15 54 -15 96q-14 -4 -32 -14z
M444 426q-89 -44 -111 -74q-1 -1 -10 10t-14.5 14t-40.5 28q-20 15 -41 21q24 14 49 28q32 20 60 54q32 -35 108 -81zM315 403q9 -10 17 -14q21 11 61 38q-19 10 -54 39l-19 -21q31 -17 31 -21q0 -2 -13 -7q-16 -7 -23 -14z" />
    <glyph glyph-name="exclamdown" unicode="&#xa1;" horiz-adv-x="383" 
d="M33 -104q79 59 109 238q13 74 15 166h48q5 -181 31 -266q24 -79 88 -138q0 -2 2.5 -7.5t1.5 -5.5q-22 0 -82 -39q-33 -22 -67 -45q-22 27 -66 52q-40 22 -78 32zM191 132q-10 0 -10 -37q0 -46 16 -144q7 -44 15 -87l64 35q-24 16 -56 113q-30 89 -30 117q0 3 1 3z
M292 432q-89 -44 -111 -74q-1 -1 -10 10t-14.5 14t-40.5 28q-20 15 -41 21q24 14 49 28q32 20 60 54q31 -35 108 -81zM163 409q9 -10 17 -14q21 11 61 38q-19 10 -54 39l-19 -21q31 -17 31 -21q0 -2 -13 -8q-16 -6 -23 -13z" />
    <glyph glyph-name="logicalnot" unicode="&#xac;" 
 />
    <glyph glyph-name="florin" unicode="&#x192;" horiz-adv-x="33" 
 />
    <glyph glyph-name="guillemotleft" unicode="&#xab;" horiz-adv-x="349" 
d="M210 258l95 -154l-18 -21l-149 175l151 186l19 -25zM71 258l95 -154l-18 -21l-149 175l151 186l19 -25z" />
    <glyph glyph-name="guillemotright" unicode="&#xbb;" horiz-adv-x="349" 
d="M108 258l-95 -154l18 -21l149 175l-151 186l-19 -25zM247 258l-95 -154l18 -21l149 175l-151 186l-19 -25z" />
    <glyph glyph-name="ellipsis" unicode="&#x2026;" horiz-adv-x="977" 
d="M375 81q90 55 112 93q0 2 9 -12t14.5 -18t40.5 -35q21 -19 42 -27l-50 -34q-31 -25 -60 -68q-31 44 -108 101zM504 110q-9 12 -17 18q-21 -15 -61 -48l32 -24q12 -10 23 -25l19 26q-32 21 -32 27q0 2 14.5 9.5t21.5 16.5zM695 81q90 55 112 93q0 2 9 -12t14.5 -18
t40.5 -35q21 -19 42 -27l-50 -34q-31 -25 -60 -68q-31 44 -108 101zM824 110q-9 12 -17 18q-21 -15 -61 -48l32 -24q12 -10 23 -25l19 26q-32 21 -32 27q0 2 14.5 9.5t21.5 16.5zM55 81q90 55 112 93q0 2 9 -12t14.5 -18t40.5 -35q21 -19 42 -27l-50 -34q-31 -25 -60 -68
q-31 44 -108 101zM184 110q-9 12 -17 18q-21 -15 -61 -48l32 -24q12 -10 23 -25l19 26q-32 21 -32 27q0 2 14.5 9.5t21.5 16.5z" />
    <glyph glyph-name="nonbreakingspace" unicode="&#xa0;" horiz-adv-x="201" 
 />
    <glyph glyph-name="Agrave" unicode="&#xc0;" horiz-adv-x="905" 
d="M894 101l-86 -40q-55 -28 -100 -71q-60 43 -132 70q-50 17 -99 33v6q23 10 47 20t24 42q0 26 -17 65q-21 45 -44 45q-82 -3 -81 -156v-174q1 -23 10 -39q11 -21 32 -20q7 0 15 6.5t8 14.5q0 11 -21 20v6q-1 18 13 30.5t32 12.5q50 0 50 -54q0 -34 -23 -52t-57 -18
q-77 0 -77 96l1 220q0 47 -25 75.5t-73 28.5q-32 0 -32 -55q1 -29 18.5 -63t41.5 -48q9 -3 26 -11l1 -6q-24 -10 -56 -24q-34 -18 -91 -73q-45 32 -191 99v7q26 11 75 37q70 47 121 110q37 46 88 137q66 117 66 131q0 39 -52 61q-44 19 -102 19q-30 0 -49 -6
q-103 -29 -103 -125q0 -26 22.5 -48t42.5 -22q8 0 11 4q-1 12 -4 36q9 27 14 35q11 17 32 17q30 0 50.5 -17t20.5 -46q0 -34 -32 -53q-26 -16 -63 -16q-48 0 -85.5 35t-37.5 83q0 92 85 153q76 54 173 54q156 0 284 -83q15 28 45 46q27 17 54 17q9 0 16 -2q-61 -45 -66 -136
q7 -43 51 -156q56 -147 110 -208q39 -44 118 -44q1 0 1 -6zM750 62q-21 13 -64 31q-60 24 -66 27q11 20 11 46q0 37 -126 327q-27 64 -57 64l-13 -4q-44 47 -76 63q-38 20 -94 20q-46 0 -72 -19q99 -1 155 -34q37 -21 41 -40q2 0 7 3t8 3q21 0 35.5 -27t72.5 -160
q61 -142 68 -167q4 -16 4 -35q0 -34 -20 -56q49 -19 145 -64l4 1q15 8 37 21zM493 311q-21 51 -41 102q-25 60 -48 100l-2 -6q-35 -60 -111 -196h202zM229 212q-9 -10 -26 -28t-55 -46q-41 -31 -57 -45q35 -19 104 -58q24 13 24 20q0 6 -31 24t-31 21q26 20 75 68
q-1 16 -3 44zM358 871q-54 -82 -51 -85q3 -4 226 -79l15 30z" />
    <glyph glyph-name="Atilde" unicode="&#xc3;" horiz-adv-x="905" 
d="M894 101l-86 -40q-55 -28 -100 -71q-60 43 -132 70q-50 17 -99 33v6q23 10 47 20t24 42q0 26 -17 65q-21 45 -44 45q-82 -3 -81 -156v-174q1 -23 10 -39q11 -21 32 -20q7 0 15 6.5t8 14.5q0 11 -21 20v6q-1 18 13 30.5t32 12.5q50 0 50 -54q0 -34 -23 -52t-57 -18
q-77 0 -77 96l1 220q0 47 -25 75.5t-73 28.5q-32 0 -32 -55q1 -29 18.5 -63t41.5 -48q9 -3 26 -11l1 -6q-24 -10 -56 -24q-34 -18 -91 -73q-45 32 -191 99v7q26 11 75 37q70 47 121 110q37 46 88 137q66 117 66 131q0 39 -52 61q-44 19 -102 19q-30 0 -49 -6
q-103 -29 -103 -125q0 -26 22.5 -48t42.5 -22q8 0 11 4q-1 12 -4 36q9 27 14 35q11 17 32 17q30 0 50.5 -17t20.5 -46q0 -34 -32 -53q-26 -16 -63 -16q-48 0 -85.5 35t-37.5 83q0 92 85 153q76 54 173 54q156 0 284 -83q15 28 45 46q27 17 54 17q9 0 16 -2q-61 -45 -66 -136
q7 -43 51 -156q56 -147 110 -208q39 -44 118 -44q1 0 1 -6zM750 62q-21 13 -64 31q-60 24 -66 27q11 20 11 46q0 37 -126 327q-27 64 -57 64l-13 -4q-44 47 -76 63q-38 20 -94 20q-46 0 -72 -19q99 -1 155 -34q37 -21 41 -40q2 0 7 3t8 3q21 0 35.5 -27t72.5 -160
q61 -142 68 -167q4 -16 4 -35q0 -34 -20 -56q49 -19 145 -64l4 1q15 8 37 21zM493 311q-21 51 -41 102q-25 60 -48 100l-2 -6q-35 -60 -111 -196h202zM229 212q-9 -10 -26 -28t-55 -46q-41 -31 -57 -45q35 -19 104 -58q24 13 24 20q0 6 -31 24t-31 21q26 20 75 68
q-1 16 -3 44zM634 811q-45 -94 -116 -94q-30 0 -86 23.5t-86 23.5q-48 0 -81 -41q-5 6 -12 7t-11 4q42 98 137 98q28 0 78 -22t75 -22q40 0 84 37z" />
    <glyph glyph-name="Otilde" unicode="&#xd5;" horiz-adv-x="985" 
d="M919 369q0 -268 -323 -358v-49q-2 -55 18 -67q9 -5 20 -5q29 0 26 27q-2 15 -7 21.5t-12 14.5q1 1 1.5 3.5t3.5 2.5q23 0 40 -14.5t17 -36.5q0 -25 -22.5 -40.5t-42.5 -15.5q-49 0 -64 59q-7 29 -6 97q-34 0 -66 -7t-107 -7q-130 0 -252 94q-139 108 -139 262t133 251
q115 84 252 84q8 0 31 -6q-24 -14 -49 -29q-35 -22 -58 -49h20q23 0 65 22q62 33 85 42q58 22 120 22q131 0 223.5 -94.5t92.5 -223.5zM804 375q0 52 -26 125q-35 100 -97 138l-30 11q94 -114 94 -281q0 -192 -97 -304q79 25 123 135q33 86 33 176zM710 374q0 68 -28 151
q-34 100 -83 119v-574q111 105 111 304zM418 161v433q-24 -7 -41 -19v-431q14 5 41 17zM571 54l-1 597l-23 -4q-16 0 -31 -20q-11 -15 -15 -29v-413q11 -7 21 -24q-182 -79 -191 -79q-7 0 -10 6q21 41 21 164l-2 318q-3 3 -14 4t-15 0q-104 -45 -104 -251q0 -122 51 -200
q65 -100 201 -98q79 1 112 29zM296 635q-119 -18 -189 -103q-65 -78 -65 -185q0 -97 57 -175q62 -86 172 -117q-99 75 -138 141t-39 158q0 89 52 158q48 63 150 123zM664 821q-45 -94 -116 -94q-30 0 -86 23.5t-86 23.5q-48 0 -81 -41q-5 6 -12 7t-11 4q42 98 137 98
q28 0 78 -22t75 -22q40 0 84 37z" />
    <glyph glyph-name="OE" unicode="&#x152;" horiz-adv-x="1535" 
d="M804 375q0 52 -26 125q-35 100 -97 138l-30 11q94 -114 94 -281q0 -192 -97 -304q79 25 123 135q33 86 33 176zM708 373q0 69 -27 152q-33 100 -82 119v-574q109 104 109 303zM418 161v433q-24 -7 -41 -19v-431q14 5 41 17zM578 58l-1 597l-23 -5q-17 0 -31 -20
q-11 -14 -15 -28v-384q0 -25 13 -38q7 -6 15 -12q-190 -82 -198 -82q-7 0 -10 6q22 42 21 163l-3 319q-2 3 -13 4t-15 -1q-104 -45 -104 -251q0 -122 51 -200q65 -100 201 -97q78 1 112 29zM296 635q-119 -18 -189 -103q-65 -78 -65 -185q0 -97 57 -175q62 -86 172 -117
q-99 75 -138 141t-39 158q0 89 52 158q48 63 150 123zM749 605q-11 4 -14 2q2 -2 14 -2zM1488 89q-107 -53 -148 -116q-71 63 -140 88q-61 22 -140 22h-48q-2 -26 -2 -56q0 -142 42 -142q12 0 19.5 13t7.5 23q0 8 -20 24q2 9 21 9q22 0 41 -18t19 -39q0 -26 -28 -44
q-23 -15 -47 -15q-84 0 -84 171q0 21 1.5 46.5t1.5 27.5q-106 -16 -119 -20q-79 -20 -143 -69q17 30 27 61q4 13 9 27q2 1 3 1v0q0 -4 -62 -34q-68 -34 -103 -38l-28 -3q-46 -14 -173 -14q-130 0 -252 94q-139 108 -139 262t133 251q115 84 252 84q8 0 31 -6
q-24 -14 -49 -29q-35 -22 -58 -49h20q23 0 65 22q62 33 85 42q58 22 120 22q103 0 186 -62q110 59 326 59q83 0 157 -21q50 -14 98 -39q41 -21 44 -21t16 7t16 7q8 0 17 -16q-79 -59 -138 -180q-59 122 -122 176q-67 58 -161 58q-27 0 -26 -5v-241q29 12 56 58q16 31 33 62
q6 -46 55 -95q44 -44 95 -67q-22 -14 -89 -61q-17 -13 -40 -46q-29 -41 -37 -49q-11 46 -17 59q-20 46 -60 65l-1 -221q7 -9 63 -9q110 0 171 44q43 30 68 88q28 65 33 70q6 -51 40 -109q40 -68 102 -109zM1353 530q0 32 -67 75q-62 38 -80 36q63 -50 121 -146q26 25 26 35z
M988 385v263q-89 -16 -88 -106q-1 -53 1 -158zM1132 413q-20 25 -28 30q-11 -18 -49 -45t-42 -32q32 -6 56 -33.5t27 -52.5q2 6 17 21t17 19q-12 13 -39 29q-19 11 -39 22q29 12 80 42zM1366 173q0 16 -22 40q-33 -66 -136 -119q47 -15 129 -74q8 8 18 21q-33 22 -88 51
q99 66 99 81zM986 353l-85 1q-4 -22 -3 -58q3 -65 3 -59q0 -23 9 -43q20 -48 76 -73v232z" />
    <glyph glyph-name="oe" unicode="&#x153;" horiz-adv-x="828" 
d="M796 265q-120 -24 -148 -32q-88 -24 -156 -65v-16q145 -65 215 -65q24 0 79 12q0 -7 2 -21q-52 0 -123 -31q-48 -21 -84 -48q-28 -20 -29 -20q-2 0 -38 22.5t-48 25.5q-34 11 -84 25q-80 -24 -127 -69q-3 0 -30 17q-31 19 -47 26q-109 46 -180 54q-1 6 22 28t25 40
q-1 -5 -1 88q0 4 1 16v18q0 60 -41 74l-2 13h70q46 0 117 32q58 27 100 59q79 -58 164 -86q36 10 71 33q54 36 82 50q10 -35 76 -90zM676 274l-129 110l-36 -19q112 -105 122 -105q6 0 43 14zM597 251q-37 34 -104 94v-137q28 7 104 43zM580 38q-95 55 -168 74v197l-159 77
q-9 -2 -43 -18l159 -85v-192q36 -14 115 -39l63 -38q13 -1 33 24zM343 94v169q-27 18 -73 40q-60 28 -73 36v-174q36 -19 146 -71zM286 45q-101 52 -181 76q5 16 10 44v109q0 22 -20 58h-30l-6 -5q13 -23 14 -34q1 -6 1 -54v-80q-4 -52 -23 -60q90 -15 202 -77q16 8 33 23z
" />
    <glyph glyph-name="endash" unicode="&#x2013;" horiz-adv-x="699" 
d="M666 156h-658v135h658v-135zM625 179v57h-593v-58z" />
    <glyph glyph-name="emdash" unicode="&#x2014;" horiz-adv-x="1201" 
d="M1166 156h-1158v135h1158v-135zM1125 179v57h-1093v-58z" />
    <glyph glyph-name="quotedblleft" unicode="&#x201c;" horiz-adv-x="392" 
d="M329 610q-30 -28 -65 -73q21 -33 39 -87l-18 -22q-38 92 -42 99q-18 33 -74 84q15 7 30 24q26 29 30 32.5t10.5 16.5t7.5 11q16 -34 82 -85zM145 610q-30 -28 -65 -73q21 -33 39 -87l-18 -22q-50 123 -116 183q15 7 30 24q26 29 30 32.5t10.5 16.5t7.5 11q16 -34 82 -85z
M264 638q-7 11 -13 17q-15 -14 -45 -45q14 -11 40 -45l14 25q-23 19 -23 24q0 2 11 9t16 15zM80 638q-7 11 -13 17q-15 -14 -45 -45q14 -11 40 -45l14 25q-23 19 -23 24q0 2 11 9t16 15z" />
    <glyph glyph-name="quotedblright" unicode="&#x201d;" horiz-adv-x="407" 
d="M181 610q66 51 82 85q0 2 7 -11t10.5 -16.5t29.5 -32.5q15 -17 31 -24q-66 -60 -116 -183l-18 22q12 39 15 46q7 15 23 41q-35 45 -64 73zM276 637q-7 10 -13 16q-15 -14 -45 -45q14 -11 40 -44l14 24q-23 19 -23 24q0 2 11 9t16 16zM-3 610q66 51 82 85q0 2 7 -11
t10.5 -16.5t29.5 -32.5q15 -17 31 -24q-66 -60 -116 -183l-18 22q12 39 15 46q7 15 23 41q-35 45 -64 73zM92 637q-7 10 -13 16q-15 -14 -45 -45q14 -11 40 -44l14 24q-23 19 -23 24q0 2 11 9t16 16z" />
    <glyph glyph-name="quoteleft" unicode="&#x2018;" horiz-adv-x="220" 
d="M167 600q-30 -28 -65 -73q21 -33 39 -87l-18 -22q-38 92 -42 99q-18 33 -74 84q15 7 30 24q26 29 30 32.5t10.5 16.5t7.5 11q16 -34 82 -85zM102 628q-7 11 -13 17q-15 -14 -45 -45q14 -11 40 -45l14 25q-23 19 -23 24q0 2 11 9t16 15z" />
    <glyph glyph-name="quoteright" unicode="&#x2019;" horiz-adv-x="205" 
d="M-1 610q66 51 82 85q0 2 7 -11t10.5 -16.5t29.5 -32.5q15 -17 31 -24q-56 -51 -75 -84q-4 -7 -41 -99l-18 22q12 39 15 46q7 15 23 41q-35 45 -64 73zM94 637q-7 10 -13 16q-15 -14 -45 -45q14 -11 40 -44l14 24q-23 19 -23 24q0 2 11 9t16 16z" />
    <glyph glyph-name="ydieresis" unicode="&#xff;" horiz-adv-x="633" 
d="M607 347q-46 -30 -54 -43q-6 -9 -6 -38v-163q1 -60 -72 -87q-47 -18 -111 -18l-183 1q-149 0 -149 -69q0 -28 25 -44q21 -14 50 -14q42 0 156.5 52t169.5 52q39 0 73 -18q47 -24 47 -73q0 -30 -27 -46q-21 -13 -47 -13q-33 0 -47 13t-22 48q30 -1 34 0q20 4 20 29
q0 28 -42 28q-51 0 -160 -53t-152 -53t-77 26q-37 27 -37 67t44 70.5t40 69.5l-1 134v83q-14 42 -44 56l-34 10q41 9 81 36q14 9 64 50q-6 -5 47 -35.5t107 -52.5l-30 -20t-30 -45l1 -257h73q22 0 47.5 16t25.5 43l1 198q1 20 -24 39q-30 23 -31 26q44 7 76 30q20 15 38 38
q12 17 14 15q33 -34 54 -47q31 -20 92 -41zM457 279q-3 74 -33 83q-4 1 -19 -7q-9 -5 -17 -9q17 -13 18 -15q9 -16 9 -66v-160q-5 -51 -25 -75h13q15 -1 34.5 24.5t19.5 52.5v172zM153 157q0 92 -1 97q-5 69 -31 99q-13 14 -18 14q-4 0 -31 -15q39 -23 39 -99v-226
q33 2 41 0zM193 532q0 19 14 33t34 14q19 0 33.5 -14t14.5 -33q0 -20 -14 -33.5t-34 -13.5t-34 13.5t-14 33.5zM338 532q0 19 14 33t33 14q20 0 34.5 -14t14.5 -33q0 -20 -14.5 -33.5t-34.5 -13.5q-19 0 -33 13.5t-14 33.5z" />
    <glyph glyph-name="Ydieresis" unicode="&#x178;" horiz-adv-x="1022" 
d="M982 594q-108 -31 -233.5 -148.5t-125.5 -184.5q0 -163 88 -169q0 -2 1.5 -6t1.5 -6q-84 -24 -119 -49q-51 -37 -51 -104q0 -54 37 -54q19 0 19 32q0 6 -5 17q-7 15 -15 18q19 6 26 6q52 0 52 -49q0 -27 -18.5 -43t-44.5 -18q-37 -3 -61 13t-24 42q-12 30 0 65
q0 44 -89 88q-48 19 -96 39q0 8 21 17q32 12 44 21q23 16 23 60q0 9 -1 24t-1 20q0 30 -68 104q-49 0 -68 -4q-49 -10 -84 -47q-2 -2 -4 -2q-5 0 -6 11q0 4 14.5 33.5t14.5 60.5q0 20 -5 42q5 4 21 -2h31q-32 53 -71 96q-43 46 -61 42h-31q-30 -4 -58 6q-42 16 -42 57
q0 57 58 57q38 0 56 -30q-5 -8 -18.5 -10t-13.5 -14q0 -31 29 -31q45 0 113 44l68 44q-1 0 69 -39t99 -44q-30 -30 -30 -50q0 -29 81 -110v232q14 -1 31 0v-272l64 -70q101 120 101 175q0 75 -77 94q45 14 91 29q52 20 83 55q58 -51 184 -83v-5zM824 617q-8 7 -21 16
q-22 -15 -46 -31t-42 -18q26 -30 29 -56v-34l36 27q0 11 -8 27t-9 24q34 13 61 45zM557 47q-9 11 -39 29q-22 13 -45 27q3 5 18 19q8 7 6 29q0 4 2 64q2 47 -5 58q-65 82 -130 163q-90 113 -138 161q-3 0 -25 -8.5t-24 -8.5q82 -95 164 -189q89 -104 105 -145q6 -14 7 -35
q1 -15 0 -33q-1 -24 -1 -18q0 -35 -23 -54q-17 -13 -21 -12q36 -11 71 -37q25 -22 51 -43q1 5 14.5 18t12.5 15zM625 727q-23 0 -39 16t-16 39t16.5 39t38.5 16q23 0 40 -16t17 -39t-17 -39t-40 -16zM421 727q-23 0 -39.5 16t-16.5 39t16.5 39t39.5 16t39.5 -16t16.5 -39
t-16.5 -39t-39.5 -16z" />
    <glyph glyph-name="currency" unicode="&#xa4;" horiz-adv-x="37" 
 />
    <glyph glyph-name="guilsinglleft" unicode="&#x2039;" horiz-adv-x="260" 
d="M46 223l168 216l20 -28l-111 -183l108 -176l-19 -23z" />
    <glyph glyph-name="guilsinglright" unicode="&#x203a;" horiz-adv-x="256" 
d="M63 29l-19 23l108 176l-110 183l19 28l170 -215v0z" />
    <glyph glyph-name="daggerdbl" unicode="&#x2021;" horiz-adv-x="489" 
d="M238 499q-26 -2 -72.5 -24.5t-64.5 -22.5q-54 0 -54 61q0 62 54 62q19 0 65 -22t73 -24q-1 35 -27 90.5t-26 69.5q0 26 19.5 42t46.5 16q28 0 47.5 -15.5t19.5 -42.5q0 -15 -26 -69t-27 -91q27 2 73 24t64 22q55 0 55 -62q0 -61 -55 -61q-16 0 -64 22.5t-73 25.5
q4 -99 67 -165q-63 -65 -67 -164q27 2 73.5 24.5t63.5 22.5q55 0 55 -62q0 -61 -55 -61q-17 0 -63.5 22.5t-73.5 24.5q1 -37 27 -91.5t26 -69.5q0 -26 -20 -42t-47 -16q-28 0 -47 15.5t-19 42.5q0 15 26 69.5t27 91.5q-26 -2 -72.5 -24.5t-65.5 -22.5q-54 0 -54 61
q0 62 54 62q17 0 63.5 -22.5t73.5 -24.5q-4 99 -67 164q63 66 67 164z" />
    <glyph glyph-name="periodcentered" unicode="&#xb7;" horiz-adv-x="322" 
d="M55 349q90 55 112 93q0 1 9 -11q9 -16 14.5 -20t40.5 -35q21 -18 42 -26q-25 -17 -50 -35q-31 -25 -60 -68q-31 44 -108 102zM184 378q-9 12 -17 18q-21 -15 -61 -49l32 -24q12 -9 23 -25l19 27q-32 21 -32 26q0 3 14.5 10.5t21.5 16.5z" />
    <glyph glyph-name="periodcentered" unicode="&#x2219;" horiz-adv-x="322" 
d="M55 349q90 55 112 93q0 1 9 -11q9 -16 14.5 -20t40.5 -35q21 -18 42 -26q-25 -17 -50 -35q-31 -25 -60 -68q-31 44 -108 102zM184 378q-9 12 -17 18q-21 -15 -61 -49l32 -24q12 -9 23 -25l19 27q-32 21 -32 26q0 3 14.5 10.5t21.5 16.5z" />
    <glyph glyph-name="quotesinglbase" unicode="&#x201a;" horiz-adv-x="325" 
d="M58 105q111 69 139 116q1 2 11 -14q12 -19 19 -24t51 -44q25 -23 51 -33q-28 -20 -57 -40q-37 -28 -69 -73l2 -2q-30 -34 -39 -56q-24 -59 -33 -78l-32 31q22 53 27 62q11 20 39 55q-59 62 -109 100zM219 141q-11 15 -22 22q-13 -14 -39 -31.5t-37 -28.5l40 -30
q15 -12 28 -31l24 33q-39 26 -39 33q0 3 18 12.5t27 20.5z" />
    <glyph glyph-name="quotedblbase" unicode="&#x201e;" horiz-adv-x="679" 
d="M358 105q111 69 139 116q1 2 11 -14q12 -19 19 -24t51 -44q25 -23 51 -33q-28 -20 -57 -40q-37 -28 -69 -73l2 -2q-30 -34 -39 -56q-24 -59 -33 -78l-32 31q22 53 27 62q11 20 39 55q-59 62 -109 100zM519 141q-11 15 -22 22q-13 -14 -39 -31.5t-37 -28.5l40 -30
q15 -12 28 -31l24 33q-39 26 -39 33q0 3 18 12.5t27 20.5zM58 105q111 69 139 116q1 2 11 -14q12 -19 19 -24t51 -44q25 -23 51 -33q-28 -20 -57 -40q-37 -28 -69 -73l2 -2q-30 -34 -39 -56q-24 -59 -33 -78l-32 31q22 53 27 62q11 20 39 55q-59 62 -109 100zM219 141
q-11 15 -22 22q-13 -14 -39 -31.5t-37 -28.5l40 -30q15 -12 28 -31l24 33q-39 26 -39 33q0 3 18 12.5t27 20.5z" />
    <glyph glyph-name="Acircumflex" unicode="&#xc2;" horiz-adv-x="905" 
d="M894 101l-86 -40q-55 -28 -100 -71q-60 43 -132 70q-50 17 -99 33v6q23 10 47 20t24 42q0 26 -17 65q-21 45 -44 45q-82 -3 -81 -156v-174q1 -23 10 -39q11 -21 32 -20q7 0 15 6.5t8 14.5q0 11 -21 20v6q-1 18 13 30.5t32 12.5q50 0 50 -54q0 -34 -23 -52t-57 -18
q-77 0 -77 96l1 220q0 47 -25 75.5t-73 28.5q-32 0 -32 -55q1 -29 18.5 -63t41.5 -48q9 -3 26 -11l1 -6q-24 -10 -56 -24q-34 -18 -91 -73q-45 32 -191 99v7q26 11 75 37q70 47 121 110q37 46 88 137q66 117 66 131q0 39 -52 61q-44 19 -102 19q-30 0 -49 -6
q-103 -29 -103 -125q0 -26 22.5 -48t42.5 -22q8 0 11 4q-1 12 -4 36q9 27 14 35q11 17 32 17q30 0 50.5 -17t20.5 -46q0 -34 -32 -53q-26 -16 -63 -16q-48 0 -85.5 35t-37.5 83q0 92 85 153q76 54 173 54q156 0 284 -83q15 28 45 46q27 17 54 17q9 0 16 -2q-61 -45 -66 -136
q7 -43 51 -156q56 -147 110 -208q39 -44 118 -44q1 0 1 -6zM750 62q-21 13 -64 31q-60 24 -66 27q11 20 11 46q0 37 -126 327q-27 64 -57 64l-13 -4q-44 47 -76 63q-38 20 -94 20q-46 0 -72 -19q99 -1 155 -34q37 -21 41 -40q2 0 7 3t8 3q21 0 35.5 -27t72.5 -160
q61 -142 68 -167q4 -16 4 -35q0 -34 -20 -56q49 -19 145 -64l4 1q15 8 37 21zM493 311q-21 51 -41 102q-25 60 -48 100l-2 -6q-35 -60 -111 -196h202zM232 168q-1 16 -3 44q-9 -10 -26 -28t-55 -46q-41 -31 -57 -45q35 -19 104 -58q24 13 24 20q0 6 -31 24t-31 21
q26 20 75 68zM514 699l-126 58l-133 -57l-13 25l144 119l137 -119z" />
    <glyph glyph-name="Ecircumflex" unicode="&#xca;" horiz-adv-x="990" 
d="M928 89q-107 -53 -148 -116q-71 63 -140 88q-61 22 -140 22h-48q-2 -26 -2 -56q0 -142 42 -142q12 0 19.5 13t7.5 23q0 8 -20 24q2 9 21 9q22 0 41 -18t19 -39q0 -26 -28 -44q-23 -15 -47 -15q-84 0 -84 171q0 21 1.5 46.5t1.5 27.5q-118 -18 -208 -98q-87 83 -202 107
q93 51 114 84q16 25 16 98q0 11 1 44q-28 1 -43 1q-44 0 -95 -37q17 49 47 149q21 -14 46.5 -14t46.5 -1l-1 80q0 58 -39 73q-36 5 -72 11q-39 7 -39 48q0 58 61 58q35 0 55 -29q-42 -9 -42 -37q0 -15 15 -23q11 -7 23 -7q-3 0 57 25q70 28 149 44q114 25 241 25
q83 0 157 -21q50 -14 98 -39q41 -21 44 -21t16 7t16 7q8 0 17 -16q-79 -59 -138 -180q-59 122 -122 176q-67 58 -161 58q-27 0 -26 -5v-241q29 12 56 58q16 31 33 62q6 -46 55 -95q44 -44 95 -67q-22 -14 -89 -61q-17 -13 -40 -46q-29 -41 -37 -49q-11 46 -17 59
q-20 46 -60 65l-1 -221q7 -9 63 -9q110 0 171 44q43 30 68 88q28 65 33 70q6 -51 40 -109q40 -68 102 -109zM793 530q0 32 -67 75q-62 38 -80 36q63 -50 121 -146q26 25 26 35zM428 385v263q-88 -16 -88 -106l1 -156zM572 413q-20 25 -28 30q-11 -18 -49 -45t-42 -32
q33 -7 58 -35.5t26 -53.5q-3 5 12 20q19 20 21 23q-12 13 -39 29q-19 11 -39 22q29 12 80 42zM806 173q0 16 -22 40q-33 -66 -136 -119q47 -15 129 -74q8 8 18 21q-33 22 -88 51q99 66 99 81zM426 121v232l-85 1v-117q0 -23 9 -43q20 -48 76 -73zM239 51q-28 18 -78 51
q47 38 62 80q9 23 9 62v285q-4 33 4 63q0 1 -2 1q-5 0 -33 -10q-33 -12 -35 -13q15 -16 15 -64v-284q0 -34 -29 -72q-22 -26 -45 -51q19 -6 57 -31q55 -37 57 -38q9 7 18 21zM604 709l-126 58l-133 -57l-13 25l144 119l137 -119z" />
    <glyph glyph-name="Aacute" unicode="&#xc1;" horiz-adv-x="905" 
d="M894 101l-86 -40q-55 -28 -100 -71q-60 43 -132 70q-50 17 -99 33v6q23 10 47 20t24 42q0 26 -17 65q-21 45 -44 45q-82 -3 -81 -156v-174q1 -23 10 -39q11 -21 32 -20q7 0 15 6.5t8 14.5q0 11 -21 20v6q-1 18 13 30.5t32 12.5q50 0 50 -54q0 -34 -23 -52t-57 -18
q-77 0 -77 96l1 220q0 47 -25 75.5t-73 28.5q-32 0 -32 -55q1 -29 18.5 -63t41.5 -48q9 -3 26 -11l1 -6q-24 -10 -56 -24q-34 -18 -91 -73q-45 32 -191 99v7q26 11 75 37q70 47 121 110q37 46 88 137q66 117 66 131q0 39 -52 61q-44 19 -102 19q-30 0 -49 -6
q-103 -29 -103 -125q0 -26 22.5 -48t42.5 -22q8 0 11 4q-1 12 -4 36q9 27 14 35q11 17 32 17q30 0 50.5 -17t20.5 -46q0 -34 -32 -53q-26 -16 -63 -16q-48 0 -85.5 35t-37.5 83q0 92 85 153q76 54 173 54q156 0 284 -83q15 28 45 46q27 17 54 17q9 0 16 -2q-61 -45 -66 -136
q7 -43 51 -156q56 -147 110 -208q39 -44 118 -44q1 0 1 -6zM750 62q-21 13 -64 31q-60 24 -66 27q11 20 11 46q0 37 -126 327q-27 64 -57 64l-13 -4q-44 47 -76 63q-38 20 -94 20q-46 0 -72 -19q99 -1 155 -34q37 -21 41 -40q2 0 7 3t8 3q21 0 35.5 -27t72.5 -160
q61 -142 68 -167q4 -16 4 -35q0 -34 -20 -56q49 -19 145 -64l4 1q15 8 37 21zM493 311q-21 51 -41 102q-25 60 -48 100l-2 -6q-35 -60 -111 -196h202zM229 212q-9 -10 -26 -28t-55 -46q-41 -31 -57 -45q35 -19 104 -58q24 13 24 20q0 6 -31 24t-31 21q26 20 75 68
q-1 16 -3 44zM490 869q54 -82 51 -85q-3 -4 -226 -79l-15 30z" />
    <glyph glyph-name="Edieresis" unicode="&#xcb;" horiz-adv-x="990" 
d="M928 89q-107 -53 -148 -116q-71 63 -140 88q-61 22 -140 22h-48q-2 -26 -2 -56q0 -142 42 -142q12 0 19.5 13t7.5 23q0 8 -20 24q2 9 21 9q22 0 41 -18t19 -39q0 -26 -28 -44q-23 -15 -47 -15q-84 0 -84 171q0 21 1.5 46.5t1.5 27.5q-118 -18 -208 -98q-87 83 -202 107
q93 51 114 84q16 25 16 98q0 11 1 44q-28 1 -43 1q-44 0 -95 -37q17 49 47 149q21 -14 46.5 -14t46.5 -1l-1 80q0 58 -39 73q-36 5 -72 11q-39 7 -39 48q0 58 61 58q35 0 55 -29q-42 -9 -42 -37q0 -15 15 -23q11 -7 23 -7q-3 0 57 25q70 28 149 44q114 25 241 25
q83 0 157 -21q50 -14 98 -39q41 -21 44 -21t16 7t16 7q8 0 17 -16q-79 -59 -138 -180q-59 122 -122 176q-67 58 -161 58q-27 0 -26 -5v-241q29 12 56 58q16 31 33 62q6 -46 55 -95q44 -44 95 -67q-22 -14 -89 -61q-17 -13 -40 -46q-29 -41 -37 -49q-11 46 -17 59
q-20 46 -60 65l-1 -221q7 -9 63 -9q110 0 171 44q43 30 68 88q28 65 33 70q6 -51 40 -109q40 -68 102 -109zM793 530q0 32 -67 75q-62 38 -80 36q63 -50 121 -146q26 25 26 35zM428 385v263q-88 -16 -88 -106l1 -156zM572 413q-20 25 -28 30q-11 -18 -49 -45t-42 -32
q33 -7 58 -35.5t26 -53.5q-3 5 12 20q19 20 21 23q-12 13 -39 29q-19 11 -39 22q29 12 80 42zM806 173q0 16 -22 40q-33 -66 -136 -119q47 -15 129 -74q8 8 18 21q-33 22 -88 51q99 66 99 81zM426 353l-85 1v-117q0 -23 9 -43q20 -48 76 -73v232zM239 51q-28 18 -78 51
q47 38 62 80q9 23 9 62v285q-4 33 4 63q0 1 -2 1q-5 0 -33 -10q-33 -12 -35 -13q15 -16 15 -64v-284q0 -34 -29 -72q-22 -26 -45 -51q19 -6 57 -31q55 -37 57 -38q9 7 18 21zM565 727q-23 0 -39 16t-16 39t16.5 39t38.5 16q23 0 40 -16t17 -39t-17 -39t-40 -16zM361 727
q-23 0 -39.5 16t-16.5 39t16.5 39t39.5 16t39.5 -16t16.5 -39t-16.5 -39t-39.5 -16z" />
    <glyph glyph-name="Egrave" unicode="&#xc8;" horiz-adv-x="990" 
d="M928 89q-107 -53 -148 -116q-71 63 -140 88q-61 22 -140 22h-48q-2 -26 -2 -56q0 -142 42 -142q12 0 19.5 13t7.5 23q0 8 -20 24q2 9 21 9q22 0 41 -18t19 -39q0 -26 -28 -44q-23 -15 -47 -15q-84 0 -84 171q0 21 1.5 46.5t1.5 27.5q-118 -18 -208 -98q-87 83 -202 107
q93 51 114 84q16 25 16 98q0 11 1 44q-28 1 -43 1q-44 0 -95 -37q17 49 47 149q21 -14 46.5 -14t46.5 -1l-1 80q0 58 -39 73q-36 5 -72 11q-39 7 -39 48q0 58 61 58q35 0 55 -29q-42 -9 -42 -37q0 -15 15 -23q11 -7 23 -7q-3 0 57 25q70 28 149 44q114 25 241 25
q83 0 157 -21q50 -14 98 -39q41 -21 44 -21t16 7t16 7q8 0 17 -16q-79 -59 -138 -180q-59 122 -122 176q-67 58 -161 58q-27 0 -26 -5v-241q29 12 56 58q16 31 33 62q6 -46 55 -95q44 -44 95 -67q-22 -14 -89 -61q-17 -13 -40 -46q-29 -41 -37 -49q-11 46 -17 59
q-20 46 -60 65l-1 -221q7 -9 63 -9q110 0 171 44q43 30 68 88q28 65 33 70q6 -51 40 -109q40 -68 102 -109zM793 530q0 32 -67 75q-62 38 -80 36q63 -50 121 -146q26 25 26 35zM428 385v263q-88 -16 -88 -106l1 -156zM572 413q-20 25 -28 30q-11 -18 -49 -45t-42 -32
q33 -7 58 -35.5t26 -53.5q-3 5 12 20q19 20 21 23q-12 13 -39 29q-19 11 -39 22q29 12 80 42zM806 173q0 16 -22 40q-33 -66 -136 -119q47 -15 129 -74q8 8 18 21q-33 22 -88 51q99 66 99 81zM426 353l-85 1v-117q0 -23 9 -43q20 -48 76 -73v232zM239 51q-28 18 -78 51
q47 38 62 80q9 23 9 62v285q-4 33 4 63q0 1 -2 1q-5 0 -33 -10q-33 -12 -35 -13q15 -16 15 -64v-284q0 -34 -29 -72q-22 -26 -45 -51q19 -6 57 -31q55 -37 57 -38q9 7 18 21zM399 879q-54 -82 -51 -85q3 -4 226 -79l15 30z" />
    <glyph glyph-name="Iacute" unicode="&#xcd;" horiz-adv-x="448" 
d="M407 99q-55 -22 -183 -117q-59 77 -175 114q0 5 18 12q37 14 39 15q9 4 17.5 25t8.5 32v139q-7 9 -39 9q-33 0 -76 -29q27 50 45 136q28 -11 48 -11q13 0 20 4v92q0 47 -36 60l-66 12q-36 9 -36 46q0 21 17.5 34.5t37.5 13.5q29 0 53 -20q0 -2 -16 -9.5t-16 -24.5
q0 -24 31 -24q27 0 65.5 24t66.5 57q46 -48 156 -67v-14q-19 -7 -36 -27.5t-20 -40.5l2 -389q4 -26 30 -36zM257 53q-26 19 -71 53q6 8 17.5 36.5t11.5 34.5v315q0 24 -7 53q-12 48 -37 48q-12 0 -24 -13q7 -10 12 -31q4 -15 7 -31l3 -269q0 -66 -2 -79q-5 -41 -30 -71
q39 -25 48 -31q28 -19 46 -39q21 15 26 24zM290 869q54 -82 51 -85q-3 -4 -226 -79l-15 30z" />
    <glyph glyph-name="Icircumflex" unicode="&#xce;" horiz-adv-x="448" 
d="M407 99q-55 -22 -183 -117q-59 77 -175 114q0 5 18 12q37 14 39 15q9 4 17.5 25t8.5 32v139q-7 9 -39 9q-33 0 -76 -29q27 50 45 136q28 -11 48 -11q13 0 20 4v92q0 47 -36 60l-66 12q-36 9 -36 46q0 21 17.5 34.5t37.5 13.5q29 0 53 -20q0 -2 -16 -9.5t-16 -24.5
q0 -24 31 -24q27 0 65.5 24t66.5 57q46 -48 156 -67v-14q-19 -7 -36 -27.5t-20 -40.5l2 -389q4 -26 30 -36zM257 53q-26 19 -71 53q6 8 17.5 36.5t11.5 34.5v315q0 24 -7 53q-12 48 -37 48q-12 0 -24 -13q7 -10 12 -31q4 -15 7 -31l3 -269q0 -66 -2 -79q-5 -41 -30 -71
q39 -25 48 -31q28 -19 46 -39q21 15 26 24zM354 709l-126 58l-133 -57l-13 25l144 119l137 -119z" />
    <glyph glyph-name="Idieresis" unicode="&#xcf;" horiz-adv-x="448" 
d="M407 99q-55 -22 -183 -117q-59 77 -175 114q0 5 18 12q37 14 39 15q9 4 17.5 25t8.5 32v139q-7 9 -39 9q-33 0 -76 -29q27 50 45 136q28 -11 48 -11q13 0 20 4v92q0 47 -36 60l-66 12q-36 9 -36 46q0 21 17.5 34.5t37.5 13.5q29 0 53 -20q0 -2 -16 -9.5t-16 -24.5
q0 -24 31 -24q27 0 65.5 24t66.5 57q46 -48 156 -67v-14q-19 -7 -36 -27.5t-20 -40.5l2 -389q4 -26 30 -36zM257 53q-26 19 -71 53q6 8 17.5 36.5t11.5 34.5v315q0 24 -7 53q-12 48 -37 48q-12 0 -24 -13q7 -10 12 -31q4 -15 7 -31l3 -269q0 -66 -2 -79q-5 -41 -30 -71
q39 -25 48 -31q28 -19 46 -39q21 15 26 24zM315 727q-23 0 -39 16t-16 39t16.5 39t38.5 16q23 0 40 -16t17 -39t-17 -39t-40 -16zM131 727q-23 0 -39.5 16t-16.5 39t16.5 39t39.5 16t39.5 -16t16.5 -39t-16.5 -39t-39.5 -16z" />
    <glyph glyph-name="Igrave" unicode="&#xcc;" horiz-adv-x="448" 
d="M407 99q-55 -22 -183 -117q-59 77 -175 114q0 5 18 12q37 14 39 15q9 4 17.5 25t8.5 32v139q-7 9 -39 9q-33 0 -76 -29q27 50 45 136q28 -11 48 -11q13 0 20 4v92q0 47 -36 60l-66 12q-36 9 -36 46q0 21 17.5 34.5t37.5 13.5q29 0 53 -20q0 -2 -16 -9.5t-16 -24.5
q0 -24 31 -24q27 0 65.5 24t66.5 57q46 -48 156 -67v-14q-19 -7 -36 -27.5t-20 -40.5l2 -389q4 -26 30 -36zM257 53q-26 19 -71 53q6 8 17.5 36.5t11.5 34.5v315q0 24 -7 53q-12 48 -37 48q-12 0 -24 -13q7 -10 12 -31q4 -15 7 -31l3 -269q0 -66 -2 -79q-5 -41 -30 -71
q39 -25 48 -31q28 -19 46 -39q21 15 26 24zM139 869q-54 -82 -51 -85q3 -4 226 -79l15 30z" />
    <glyph glyph-name="Oacute" unicode="&#xd3;" horiz-adv-x="985" 
d="M919 369q0 -268 -323 -358v-49q-2 -55 18 -67q9 -5 20 -5q29 0 26 27q-2 15 -7 21.5t-12 14.5q1 1 1.5 3.5t3.5 2.5q23 0 40 -14.5t17 -36.5q0 -25 -22.5 -40.5t-42.5 -15.5q-49 0 -64 59q-7 29 -6 97q-34 0 -66 -7t-107 -7q-130 0 -252 94q-139 108 -139 262t133 251
q115 84 252 84q8 0 31 -6q-24 -14 -49 -29q-35 -22 -58 -49h20q23 0 65 22q62 33 85 42q58 22 120 22q131 0 223.5 -94.5t92.5 -223.5zM804 375q0 52 -26 125q-35 100 -97 138l-30 11q94 -114 94 -281q0 -192 -97 -304q79 25 123 135q33 86 33 176zM710 374q0 68 -28 151
q-34 100 -83 119v-574q111 105 111 304zM418 161v433q-24 -7 -41 -19v-431q14 5 41 17zM571 54l-1 597l-23 -4q-16 0 -31 -20q-11 -15 -15 -29v-413q11 -7 21 -24q-182 -79 -191 -79q-7 0 -10 6q21 41 21 164l-2 318q-3 3 -14 4t-15 0q-104 -45 -104 -251q0 -122 51 -200
q65 -100 201 -98q79 1 112 29zM296 635q-119 -18 -189 -103q-65 -78 -65 -185q0 -97 57 -175q62 -86 172 -117q-99 75 -138 141t-39 158q0 89 52 158q48 63 150 123zM530 869q54 -82 51 -85q-3 -4 -226 -79l-15 30z" />
    <glyph glyph-name="Ocircumflex" unicode="&#xd4;" horiz-adv-x="985" 
d="M919 369q0 -268 -323 -358v-49q-2 -55 18 -67q9 -5 20 -5q29 0 26 27q-2 15 -7 21.5t-12 14.5q1 1 1.5 3.5t3.5 2.5q23 0 40 -14.5t17 -36.5q0 -25 -22.5 -40.5t-42.5 -15.5q-49 0 -64 59q-7 29 -6 97q-34 0 -66 -7t-107 -7q-130 0 -252 94q-139 108 -139 262t133 251
q115 84 252 84q8 0 31 -6q-24 -14 -49 -29q-35 -22 -58 -49h20q23 0 65 22q62 33 85 42q58 22 120 22q131 0 223.5 -94.5t92.5 -223.5zM804 375q0 52 -26 125q-35 100 -97 138l-30 11q94 -114 94 -281q0 -192 -97 -304q79 25 123 135q33 86 33 176zM710 374q0 68 -28 151
q-34 100 -83 119v-574q111 105 111 304zM418 161v433q-24 -7 -41 -19v-431q14 5 41 17zM571 54l-1 597l-23 -4q-16 0 -31 -20q-11 -15 -15 -29v-413q11 -7 21 -24q-182 -79 -191 -79q-7 0 -10 6q21 41 21 164l-2 318q-3 3 -14 4t-15 0q-104 -45 -104 -251q0 -122 51 -200
q65 -100 201 -98q79 1 112 29zM296 635q-119 -18 -189 -103q-65 -78 -65 -185q0 -97 57 -175q62 -86 172 -117q-99 75 -138 141t-39 158q0 89 52 158q48 63 150 123zM615 716l-126 58l-132 -58l-14 25l144 119l138 -118z" />
    <glyph glyph-name="Ograve" unicode="&#xd2;" horiz-adv-x="985" 
d="M919 369q0 -268 -323 -358v-49q-2 -55 18 -67q9 -5 20 -5q29 0 26 27q-2 15 -7 21.5t-12 14.5q1 1 1.5 3.5t3.5 2.5q23 0 40 -14.5t17 -36.5q0 -25 -22.5 -40.5t-42.5 -15.5q-49 0 -64 59q-7 29 -6 97q-34 0 -66 -7t-107 -7q-130 0 -252 94q-139 108 -139 262t133 251
q115 84 252 84q8 0 31 -6q-24 -14 -49 -29q-35 -22 -58 -49h20q23 0 65 22q62 33 85 42q58 22 120 22q131 0 223.5 -94.5t92.5 -223.5zM804 375q0 52 -26 125q-35 100 -97 138l-30 11q94 -114 94 -281q0 -192 -97 -304q79 25 123 135q33 86 33 176zM710 374q0 68 -28 151
q-34 100 -83 119v-574q111 105 111 304zM418 161v433q-24 -7 -41 -19v-431q14 5 41 17zM571 54l-1 597l-23 -4q-16 0 -31 -20q-11 -15 -15 -29v-413q11 -7 21 -24q-182 -79 -191 -79q-7 0 -10 6q21 41 21 164l-2 318q-3 3 -14 4t-15 0q-104 -45 -104 -251q0 -122 51 -200
q65 -100 201 -98q79 1 112 29zM296 635q-119 -18 -189 -103q-65 -78 -65 -185q0 -97 57 -175q62 -86 172 -117q-99 75 -138 141t-39 158q0 89 52 158q48 63 150 123zM388 871q-54 -82 -51 -85q3 -4 226 -79l15 30z" />
    <glyph glyph-name="Uacute" unicode="&#xda;" horiz-adv-x="1027" 
d="M981 590q-114 -18 -146 -168q2 -92 0 -162q8 -48 15 -67q14 -39 49 -82q-29 -5 -98 -39q-89 -44 -125 -58q-78 -29 -138 -28q-1 7 -1 -36q0 -51 26 -53q32 -2 32 35q0 14 -7 24q27 8 22 8q14 0 32.5 -15.5t18.5 -31.5q0 -30 -29 -48q-23 -13 -50 -15q-73 -3 -73 89
q0 8 3 43q-97 2 -193 39l-82 42q-66 34 -104 39q59 47 57 213q-19 1 -64 1q-32 0 -51.5 -11t-39.5 -22q15 33 29 67q24 55 20 81q26 -14 68 -18q17 -1 34 -1q6 14 6 27q0 57 -14 81q-19 33 -71 35.5t-75 12.5q-39 17 -39 58q0 17 18 33.5t35 17.5q47 1 56 -45l-16 -6
q-11 -4 -11 -20q0 -21 33 -21q38 0 86 31q26 17 81 63q31 -37 86 -65q43 -20 85 -40q-16 -11 -33 -22q-24 -18 -22 -39l1 -392q0 -56 117 -95q1 45 1 627h24l1 -314q17 1 26 1q61 0 108 54q37 -57 113 -57h21q-1 27 -1 82q0 90 -155 162q37 6 87 34.5t81 63.5
q57 -62 166 -93zM828 520q0 14 -21 45.5t-31 31.5q-5 0 -22.5 -7.5t-19.5 -11.5l52 -40q14 -13 34 -51q8 14 8 33zM804 293q0 30 -1 31q-4 0 -11.5 -1t-9.5 -1q-74 0 -113 -53q-30 56 -108 56q-8 0 -26 -1v-298q130 0 199.5 69.5t69.5 197.5zM441 15q-3 2 -105 64
q-62 37 -93 66q17 34 22 69q3 20 3 73v171q1 31 -14 84t-28 55q-3 1 -19 -10q-19 -13 -21 -14q30 -28 36 -59l4 -62v-165q0 -87 -12 -127l-20 -38q36 -15 132 -64q53 -27 115 -43zM600 869q54 -82 51 -85q-3 -4 -226 -79l-15 30z" />
    <glyph glyph-name="Ucircumflex" unicode="&#xdb;" horiz-adv-x="1027" 
d="M981 590q-114 -18 -146 -168q2 -92 0 -162q8 -48 15 -67q14 -39 49 -82q-29 -5 -98 -39q-89 -44 -125 -58q-78 -29 -138 -28q-1 7 -1 -36q0 -51 26 -53q32 -2 32 35q0 14 -7 24q27 8 22 8q14 0 32.5 -15.5t18.5 -31.5q0 -30 -29 -48q-23 -13 -50 -15q-73 -3 -73 89
q0 8 3 43q-97 2 -193 39l-82 42q-66 34 -104 39q59 47 57 213q-19 1 -64 1q-32 0 -51.5 -11t-39.5 -22q15 33 29 67q24 55 20 81q26 -14 68 -18q17 -1 34 -1q6 14 6 27q0 57 -14 81q-19 33 -71 35.5t-75 12.5q-39 17 -39 58q0 17 18 33.5t35 17.5q47 1 56 -45l-16 -6
q-11 -4 -11 -20q0 -21 33 -21q38 0 86 31q26 17 81 63q31 -37 86 -65q43 -20 85 -40q-16 -11 -33 -22q-24 -18 -22 -39l1 -392q0 -56 117 -95q1 45 1 627h24l1 -314q17 1 26 1q61 0 108 54q37 -57 113 -57h21q-1 27 -1 82q0 90 -155 162q37 6 87 34.5t81 63.5
q57 -62 166 -93zM828 520q0 14 -21 45.5t-31 31.5q-5 0 -22.5 -7.5t-19.5 -11.5l52 -40q14 -13 34 -51q8 14 8 33zM804 293q0 30 -1 31q-4 0 -11.5 -1t-9.5 -1q-74 0 -113 -53q-30 56 -108 56q-8 0 -26 -1v-298q130 0 199.5 69.5t69.5 197.5zM441 15q-3 2 -105 64
q-62 37 -93 66q17 34 22 69q3 20 3 73v171q1 31 -14 84t-28 55q-3 1 -19 -10q-19 -13 -21 -14q30 -28 36 -59l4 -62v-165q0 -87 -12 -127l-20 -38q36 -15 132 -64q53 -27 115 -43zM654 699l-126 58l-133 -57l-13 25l144 119l137 -119z" />
    <glyph glyph-name="Ugrave" unicode="&#xd9;" horiz-adv-x="1027" 
d="M981 590q-114 -18 -146 -168q2 -92 0 -162q8 -48 15 -67q14 -39 49 -82q-29 -5 -98 -39q-89 -44 -125 -58q-78 -29 -138 -28q-1 7 -1 -36q0 -51 26 -53q32 -2 32 35q0 14 -7 24q27 8 22 8q14 0 32.5 -15.5t18.5 -31.5q0 -30 -29 -48q-23 -13 -50 -15q-73 -3 -73 89
q0 8 3 43q-97 2 -193 39l-82 42q-66 34 -104 39q59 47 57 213q-19 1 -64 1q-32 0 -51.5 -11t-39.5 -22q15 33 29 67q24 55 20 81q26 -14 68 -18q17 -1 34 -1q6 14 6 27q0 57 -14 81q-19 33 -71 35.5t-75 12.5q-39 17 -39 58q0 17 18 33.5t35 17.5q47 1 56 -45l-16 -6
q-11 -4 -11 -20q0 -21 33 -21q38 0 86 31q26 17 81 63q31 -37 86 -65q43 -20 85 -40q-16 -11 -33 -22q-24 -18 -22 -39l1 -392q0 -56 117 -95q1 45 1 627h24l1 -314q17 1 26 1q61 0 108 54q37 -57 113 -57h21q-1 27 -1 82q0 90 -155 162q37 6 87 34.5t81 63.5
q57 -62 166 -93zM828 520q0 14 -21 45.5t-31 31.5q-5 0 -22.5 -7.5t-19.5 -11.5l52 -40q14 -13 34 -51q8 14 8 33zM804 293q0 30 -1 31q-4 0 -11.5 -1t-9.5 -1q-74 0 -113 -53q-30 56 -108 56q-8 0 -26 -1v-298q130 0 199.5 69.5t69.5 197.5zM441 15q-3 2 -105 64
q-62 37 -93 66q17 34 22 69q3 20 3 73v171q1 31 -14 84t-28 55q-3 1 -19 -10q-19 -13 -21 -14q30 -28 36 -59l4 -62v-165q0 -87 -12 -127l-20 -38q36 -15 132 -64q53 -27 115 -43zM450 869q-54 -82 -51 -85q3 -4 226 -79l15 30z" />
    <glyph glyph-name="circumflex" unicode="&#x2c6;" horiz-adv-x="445" 
d="M336 476l-126 58l-134 -58l-14 27l146 105l139 -105z" />
    <glyph glyph-name="tilde" unicode="&#x2dc;" horiz-adv-x="423" 
d="M371 565q-36 -75 -92 -75q-25 0 -69.5 19t-68.5 19q-39 0 -65 -33q-3 5 -9 5.5t-9 3.5q33 78 109 78q23 0 63 -17.5t60 -17.5q32 0 67 29z" />
    <glyph glyph-name="macron" unicode="&#xaf;" horiz-adv-x="389" 
d="M343 499h-299v56h299v-56z" />
    <glyph glyph-name="macron" unicode="&#x2c9;" horiz-adv-x="389" 
d="M343 499h-299v56h299v-56z" />
    <glyph glyph-name="cedilla" unicode="&#xb8;" horiz-adv-x="289" 
d="M134 -193q-46 0 -86 17l15 39q34 -15 58 -15q17 0 32 10.5t15 26.5q0 33 -36 33q-13 0 -25 -3l-14 15l35 72h37l-21 -49q32 5 42 5q30 0 52.5 -19t22.5 -49q0 -42 -45 -65q-36 -18 -82 -18z" />
    <glyph glyph-name="notequal" unicode="&#x2260;" horiz-adv-x="19" 
 />
    <glyph glyph-name="infinity" unicode="&#x221e;" 
 />
    <glyph glyph-name="lessequal" unicode="&#x2264;" 
 />
    <glyph glyph-name="greaterequal" unicode="&#x2265;" 
 />
    <glyph glyph-name="partialdiff" unicode="&#x2202;" horiz-adv-x="336" 
d="M135 255l-41 -23v-87q-4 -18 -9 -35q-8 -24 -22 -41q39 -14 95 -48q4 -3 27 22q-26 15 -67 40q12 25 17 70v102zM94 264l41 24v247q3 16 -16.5 50t-34.5 34q3 0 -21 -11q10 -14 20.5 -29t10.5 -25v-290zM0 211l66 38v276q0 22 -20.5 47t-43.5 34q31 17 85 53q44 29 46 29
t23 -17.5t32 -22.5q30 -10 89 -32q-55 -41 -55 -86v-193l68 38v-32l-68 -38v-157q0 -31 20 -47q2 -2 49 -29q0 -7 -25 -17l-30 -10q-28 -17 -57 -40q-23 -18 -25 -18q-30 18 -52 30q-58 31 -96 43q64 55 60 85v72l-66 -38v32z" />
    <glyph glyph-name="summation" unicode="&#x2211;" horiz-adv-x="835" 
d="M780 199q0 -97 -95 -145q-55 -28 -179 -49q-101 -16 -106 -34q-10 15 -60 55q-55 44 -75 44l-27 -26q-32 -30 -67 -47q-52 -26 -108 -26q-23 0 -42 13q-22 15 -22 39q0 76 92 133q67 42 116 47q83 8 124 0q7 0 33 42q-2 0 -107 28q-91 25 -139 60q-69 50 -69 131
q0 125 108 180q74 37 182 37q79 0 145 -24q46 -17 84 -46q32 -24 31 -24l11.5 13.5t26.5 22.5q22 13 49 13q23 0 40.5 -13.5t17.5 -39.5q0 -56 -63 -56q-33 0 -43 4q1 5 14 11t13 22t-9 20q-3 1 -17 1q-25 0 -75 -67q-48 -63 -48 -84q0 -4 69 -23q81 -23 127 -61
q68 -56 68 -151zM515 514q0 38 -74 83q-63 39 -83 39l-72 -5q159 -51 216 -157q13 20 13 40zM476 439q-44 76 -121 122q-70 42 -132 42q-92 0 -92 -46q0 -39 154 -83q131 -37 160 -36zM732 144q8 109 -149 150l-300 58q-166 45 -174 161q0 3 -3 10.5t-3 11.5
q-18 -21 -17 -59q2 -75 66 -122q47 -35 129 -56q51 -11 103 -21l176 -31q41 -3 89 -37q55 -40 55 -86q0 -7 -1 -15q27 19 29 36zM668 117q0 58 -114 97q-86 30 -140 30q-11 0 -21.5 -16t-20.5 -31q101 -7 228 -137q22 0 42 12q26 16 26 45zM459 37q-38 39 -108 76
q-64 35 -97 38q-14 2 -27 2q-22 0 -42.5 -4.5t-19.5 -4.5q-2 0 -14.5 -6t-14.5 -6q59 -4 98 -11q43 -9 87 -36q30 -18 60 -45q25 -22 24 -22q5 0 28 7.5t26 11.5zM225 85q-44 15 -101 15q-30 0 -55 -10q-38 -17 -38 -55q0 -33 57 -33q36 0 81 28t56 55zM385 708l-155 117
l8 27l149 -70l140 70l10 -27z" />
    <glyph glyph-name="product" unicode="&#x220f;" horiz-adv-x="546" 
d="M496 56h-24h-20q-54 0 -130 -24q-83 -25 -110 -55q-63 71 -125 71q-22 0 -44 -11l-44 -22q-2 0 -6 13q10 26 93 104q69 66 95 85q-2 1 -28 1q-5 0 -132 1l-2 2q26 15 30 39q0 -1 0 39q0 26 -10 39q-3 4 -27 25q72 10 143 20q95 18 156 61q55 -49 58 -52q23 -16 51 -16
q41 0 63 32l11 -10q-40 -85 -151 -148h149l-12 -18q-8 -16 -8 -49v-70q-2 -13 10 -32q14 -22 14 -25zM400 324q-22 0 -36 9q-42 21 -97 56q-2 2 -21 -5.5t-20 -7.5q6 -8 64 -41q63 -36 80 -36q15 0 30 25zM334 280q-67 14 -135 77v-111h53q11 0 44 14.5t38 19.5zM388 218
h-29l-1 -143q18 6 28 6zM108 298q0 47 -14 47q-3 0 -11 -1.5t-12 -1.5q9 -17 9 -47q-2 -24 -4 -49l26 1q6 9 6 51zM327 72q2 24 0 143l-57 -6q-21 -7 -40 -16q-45 -20 -73 -48q38 2 84 -16q51 -21 86 -57zM247 48q-82 53 -103 53q-13 0 -36 -7q-26 -7 -32 -15q31 4 67 -11
q24 -10 51 -30l23 -17q12 0 30 27zM255 461l-155 117l8 27l149 -70l140 70l10 -27z" />
    <glyph glyph-name="pi" unicode="&#x3c0;" horiz-adv-x="1022" 
d="M982 594q-108 -31 -233.5 -148.5t-125.5 -184.5q0 -163 88 -169q0 -2 1.5 -6t1.5 -6q-84 -24 -119 -49q-51 -37 -51 -104q0 -54 37 -54q19 0 19 32q0 6 -5 17q-7 15 -15 18q19 6 26 6q52 0 52 -49q0 -27 -18.5 -43t-44.5 -18q-37 -3 -61 13t-24 42q-12 30 0 65
q0 44 -89 88q-48 19 -96 39q0 8 21 17q32 12 44 21q23 16 23 60q0 9 -1 24t-1 20q0 30 -68 104q-49 0 -68 -4q-49 -10 -84 -47q-2 -2 -4 -2q-5 0 -6 11q0 4 14.5 33.5t14.5 60.5q0 20 -5 42q5 4 21 -2h31q-32 53 -71 96q-43 46 -61 42h-31q-30 -4 -58 6q-42 16 -42 57
q0 57 58 57q38 0 56 -30q-5 -8 -18.5 -10t-13.5 -14q0 -31 29 -31q45 0 113 44l68 44q-1 0 69 -39t99 -44q-30 -30 -30 -50q0 -29 81 -110v232q14 -1 31 0v-272l64 -70q101 120 101 175q0 75 -77 94q45 14 91 29q52 20 83 55q58 -51 184 -83v-5zM824 617q-8 7 -21 16
q-22 -15 -46 -31t-42 -18q26 -30 29 -56v-34l36 27q0 11 -8 27t-9 24q34 13 61 45zM557 47q-9 11 -39 29q-22 13 -45 27q3 5 18 19q8 7 6 29q0 4 2 64q2 47 -5 58q-65 82 -130 163q-90 113 -138 161q-3 0 -25 -8.5t-24 -8.5q82 -95 164 -189q89 -104 105 -145q6 -14 7 -35
q1 -15 0 -33q-1 -24 -1 -18q0 -35 -23 -54q-17 -13 -21 -12q36 -11 71 -37q25 -22 51 -43q1 5 14.5 18t12.5 15zM600 879q54 -82 51 -85q-3 -4 -226 -79l-15 30z" />
    <glyph glyph-name="integral" unicode="&#x222b;" horiz-adv-x="633" 
d="M607 347q-46 -30 -54 -43q-6 -9 -6 -38v-163q1 -60 -72 -87q-47 -18 -111 -18l-183 1q-149 0 -149 -69q0 -28 25 -44q21 -14 50 -14q42 0 156.5 52t169.5 52q39 0 73 -18q47 -24 47 -73q0 -30 -27 -46q-21 -13 -47 -13q-33 0 -47 13t-22 48q30 -1 34 0q20 4 20 29
q0 28 -42 28q-51 0 -160 -53t-152 -53t-77 26q-37 27 -37 67t44 70.5t40 69.5l-1 134v83q-14 42 -44 56l-34 10q41 9 81 36q14 9 64 50q-6 -5 47 -35.5t107 -52.5l-30 -20t-30 -45l1 -257h73q22 0 47.5 16t25.5 43l1 198q1 20 -24 39q-30 23 -31 26q44 7 76 30q20 15 38 38
q12 17 14 15q33 -34 54 -47q31 -20 92 -41zM457 279q-3 74 -33 83q-4 1 -19 -7q-9 -5 -17 -9q17 -13 18 -15q9 -16 9 -66v-160q-5 -51 -25 -75h13q15 -1 34.5 24.5t19.5 52.5v172zM153 157q0 92 -1 97q-5 69 -31 99q-13 14 -18 14q-4 0 -31 -15q39 -23 39 -99v-226
q33 2 41 0zM380 639q54 -82 51 -85q-3 -4 -226 -79l-15 30z" />
    <glyph glyph-name="Omega" unicode="&#x3a9;" horiz-adv-x="893" 
d="M830 581q-56 -59 -97 -180q-66 194 -146 225q-41 10 -72 10q-66 0 -126 -40q-70 -46 -113 -198h239l1 -35h-241v-55h240v-36l-238 1q-1 -46 30.5 -102t72.5 -86q75 -55 175 -49q75 14 116 54q30 29 45 76q9 32 19 63l26 -80q23 -53 69 -83q-34 -35 -39 -42
q-21 -28 -33 -70q-55 49 -117 49q-15 0 -68 -7q-75 -11 -116 -8q-141 9 -243 82q-109 79 -131 203q-84 -2 -84 1v34h81q-2 31 1 55q-82 -2 -82 0v35h89q30 110 143 194q106 79 222 92q96 2 100 1q57 -2 117 -28q40 -18 85 -49q38 -25 41 -25q1 0 10.5 7t11.5 7q5 0 12 -16z
M753 510q0 32 -47 75q-43 38 -56 36q44 -50 85 -146q18 25 18 35zM757 22q-13 9 -31 15q-21 8 -29 12q22 14 53 70q-3 10 -13 29q-26 -52 -52 -77l-38 -34l48 -12q31 -10 53 -26q4 9 9 23zM399 649q-119 -39 -196 -125q-80 -89 -78 -190q2 -87 48 -163q62 -104 188 -139
q-36 29 -74 62q-119 91 -119 246q0 93 72 178q23 26 32 35q20 20 42 31q9 4 44.5 31t40.5 34z" />
    <glyph glyph-name="Omega" unicode="&#x2126;" horiz-adv-x="893" 
d="M830 581q-56 -59 -97 -180q-66 194 -146 225q-41 10 -72 10q-66 0 -126 -40q-70 -46 -113 -198h239l1 -35h-241v-55h240v-36l-238 1q-1 -46 30.5 -102t72.5 -86q75 -55 175 -49q75 14 116 54q30 29 45 76q9 32 19 63l26 -80q23 -53 69 -83q-34 -35 -39 -42
q-21 -28 -33 -70q-55 49 -117 49q-15 0 -68 -7q-75 -11 -116 -8q-141 9 -243 82q-109 79 -131 203q-84 -2 -84 1v34h81q-2 31 1 55q-82 -2 -82 0v35h89q30 110 143 194q106 79 222 92q96 2 100 1q57 -2 117 -28q40 -18 85 -49q38 -25 41 -25q1 0 10.5 7t11.5 7q5 0 12 -16z
M753 510q0 32 -47 75q-43 38 -56 36q44 -50 85 -146q18 25 18 35zM757 22q-13 9 -31 15q-21 8 -29 12q22 14 53 70q-3 10 -13 29q-26 -52 -52 -77l-38 -34l48 -12q31 -10 53 -26q4 9 9 23zM399 649q-119 -39 -196 -125q-80 -89 -78 -190q2 -87 48 -163q62 -104 188 -139
q-36 29 -74 62q-119 91 -119 246q0 93 72 178q23 26 32 35q20 20 42 31q9 4 44.5 31t40.5 34z" />
    <glyph glyph-name="radical" unicode="&#x221a;" 
 />
    <glyph glyph-name="approxequal" unicode="&#x2248;" 
 />
    <glyph glyph-name="approxequal" unicode="&#x22f2;" 
 />
    <glyph glyph-name="Delta" unicode="&#x394;" 
 />
    <glyph glyph-name="Delta" unicode="&#x2206;" 
 />
    <glyph glyph-name="fraction" unicode="&#x2044;" horiz-adv-x="17" 
 />
    <glyph glyph-name="fi" unicode="&#xf001;" horiz-adv-x="17" 
 />
    <glyph glyph-name="fl" unicode="&#xf002;" horiz-adv-x="17" 
 />
    <glyph glyph-name="apple" unicode="&#xf000;" 
 />
    <glyph glyph-name="dotlessi" unicode="&#x131;" horiz-adv-x="344" 
d="M303 70q-6 -5 -64 -32t-87 -55q-30 34 -143 92q8 4 34 34q28 34 27 46l-2 140q-11 38 -72 45q15 9 44 24q42 15 96 73q27 -25 83 -54q39 -17 77 -35q-52 -11 -64 -73q-5 -20 -5 -96q0 -54 5 -66q13 -33 71 -43zM174 56l-49 40q0 4 6.5 19t7.5 18v149q0 25 -11 49
q-13 29 -35 30q-7 0 -30 -14q28 -15 34 -39q1 -4 1 -42v-130q-3 -9 -18 -23.5t-16 -24.5q27 -14 85 -55q7 -6 25 23z" />
    <glyph glyph-name="breve" unicode="&#x2d8;" horiz-adv-x="306" 
d="M64 538q44 -58 96 -66q48 14 94 66q3 3 -14 14q-60 -37 -80 -34q-28 -5 -85 37z" />
    <glyph glyph-name="dotaccent" unicode="&#x2d9;" horiz-adv-x="212" 
d="M56 537q0 23 16 41t40 18q23 0 38.5 -18t15.5 -41q0 -24 -15.5 -42t-38.5 -18q-24 0 -40 17.5t-16 42.5z" />
    <glyph glyph-name="ring" unicode="&#x2da;" horiz-adv-x="230" 
d="M117 645q35 0 59.5 -23.5t24.5 -57.5q0 -35 -24.5 -58.5t-59.5 -23.5q-34 0 -58 23.5t-24 58.5q0 33 24.5 57t57.5 24zM117 613q-20 0 -35 -14.5t-15 -34.5q0 -21 15 -35.5t35 -14.5q22 0 37 14t15 36q0 20 -15.5 34.5t-36.5 14.5z" />
    <glyph glyph-name="hungarumlaut" unicode="&#x2dd;" horiz-adv-x="301" 
d="M86 472l-12 13l36 70q14 25 28 25q26 0 26 -33q0 -20 -31 -42zM176 472l-12 13l38 70q13 25 27 25q25 0 25 -33q0 -20 -31 -42z" />
    <glyph glyph-name="ogonek" unicode="&#x2db;" horiz-adv-x="301" 
d="M136 0l31 -2q-42 -37 -42 -92q0 -44 46 -44q29 0 70 20l12 -16q-48 -57 -108 -57q-36 0 -60 21.5t-24 57.5q0 59 75 112z" />
    <glyph glyph-name="caron" unicode="&#x2c7;" horiz-adv-x="340" 
d="M170 469l-155 117l8 27l149 -70l140 70l10 -27z" />
  </font>
</defs>
</svg>
