<?xml version="1.0" standalone="no"?>
<!DOCTYPE svg PUBLIC "-//W3C//DTD SVG 1.1//EN" "http://www.w3.org/Graphics/SVG/1.1/DTD/svg11.dtd" >
<svg>
<metadata>
Created by FontForge 20120731 at Mon Apr 15 12:36:52 2019
 By www-data
Digitized by Dan X. Solo. Software (c) 1999 by Dover Publications, Inc., New York.
</metadata>
<defs>
<font id="WestminsterGothic" horiz-adv-x="20" >
  <font-face 
    font-family="Westminster Gothic"
    font-weight="400"
    font-stretch="normal"
    units-per-em="1000"
    panose-1="0 0 4 0 0 0 0 0 0 0"
    ascent="800"
    descent="-200"
    x-height="445"
    cap-height="696"
    bbox="-86 -358 1141 886"
    underline-thickness="20"
    underline-position="-123"
    unicode-range="U+0020-F002"
  />
<missing-glyph horiz-adv-x="500" 
d="M63 0v800h375v-800h-375zM125 63h250v675h-250v-675z" />
    <glyph glyph-name=".notdef" horiz-adv-x="500" 
d="M63 0v800h375v-800h-375zM125 63h250v675h-250v-675z" />
    <glyph glyph-name=".null" horiz-adv-x="0" 
 />
    <glyph glyph-name="glyph2" horiz-adv-x="195" 
 />
    <glyph glyph-name="space" unicode=" " horiz-adv-x="195" 
 />
    <glyph glyph-name="exclam" unicode="!" horiz-adv-x="200" 
d="M13 52q30 21 65 70q15 -23 24 -33q19 -23 43 -37q-35 -13 -68 -67q-16 29 -64 67zM162 689q-13 -9 -23 -20q-23 -27 -23 -60q-1 -54 -1 -178l-28 -252l-24 -1l-29 253l1 107q0 42 -37 85q20 0 80.5 37.5t83.5 38.5v-10z" />
    <glyph glyph-name="quotedbl" unicode="&#x22;" horiz-adv-x="287" 
d="M158 675h72l-20 -225h-32zM28 675h72l-20 -225h-32z" />
    <glyph glyph-name="numbersign" unicode="#" horiz-adv-x="460" 
d="M306 439h-136l-52 -197h135zM86 502h67l46 173h35l-47 -173h136l46 173h35l-47 -173h70l-17 -63h-70l-52 -197h69l-17 -63h-69l-49 -181h-34l48 181h-135l-49 -181h-34l48 181h-66l17 63h66l53 197h-67z" />
    <glyph glyph-name="dollar" unicode="$" horiz-adv-x="383" 
d="M329 388q-20 -16 -24 -38v-40v-40q4 -29 21 -42q-33 -4 -67 -8q-27 -6 -69 -34q-5 -3 -12 -8v-112h-23v96l-26 -20q-70 40 -99 40q-26 0 -40 -7q2 6 36.5 44.5t42.5 38.5q2 0 47.5 -21t61.5 -21q30 0 38 30q2 9 2 49q0 43 -6 58q-12 27 -49 27t-77 -42l-64 52q-2 4 -1 6
q20 6 20 62q0 52 -20 69q-1 4 -1 6q25 5 51 10.5t50 18.5q13 7 36 28v82h23v-61l4 3q55 -34 85 -34q6 0 39 8q-72 -83 -78 -83q-4 0 -40 16.5t-38 17.5q-6 1 -11 1q-16 0 -16 -23l1 -80q16 -38 45 -38q30 0 57 23.5t29 23.5q3 0 29 -22q37 -32 43 -36z" />
    <glyph glyph-name="percent" unicode="%" horiz-adv-x="806" 
d="M753 218q0 -52 -50 -128q-59 -91 -129 -91t-127 91q-49 76 -49 128q0 35 52 116q62 99 125 99q64 0 127 -99q51 -82 51 -116zM353 478q0 -52 -50 -128q-59 -91 -129 -91t-127 91q-49 76 -49 128q0 35 52 116q62 99 125 99q64 0 127 -99q51 -82 51 -116zM646 235
q2 170 -71 174q-43 -3 -63 -79q-7 -29 -6 -95q0 -17 3 -97q7 -35 14 -71q13 -41 51 -41q39 0 53 41q8 35 15 71q2 30 4 97zM246 495q2 170 -71 174q-43 -3 -63 -79q-7 -29 -6 -95q0 -17 3 -97q7 -35 14 -71q13 -41 51 -41q39 0 53 41q8 35 15 71q2 30 4 97zM143 -20l-29 20
l479 682l28 -20z" />
    <glyph glyph-name="ampersand" unicode="&#x26;" horiz-adv-x="773" 
d="M743 -17q0 -20 -29 -33q-23 -11 -47 -11q-36 0 -92 28q-52 26 -80 55q-91 -32 -190 -32q-107 0 -195 45q-108 55 -111 153q-2 77 65 137q55 49 125 68q-31 53 -34 59q-16 31 -17 62q-4 80 60 128q56 42 134 42q58 0 100 -34q46 -37 46 -94q0 -63 -63 -108
q-38 -28 -119 -58q9 -16 91 -104q66 -73 66 -103q0 -33 -25 -57l76 -65q59 11 118 88.5t59 139.5q0 55 -32.5 94t-87.5 39q-37 0 -63.5 -25t-26.5 -63q0 -21 12.5 -41t33.5 -20q19 0 19 20q0 8 -4 24t-4 20q0 12 13 23t26 11q20 0 33 -15.5t13 -35.5q0 -34 -24 -59t-57 -25
q-40 0 -68.5 31t-28.5 71q0 48 38.5 81.5t87.5 33.5q74 0 119.5 -44t45.5 -117q0 -144 -189 -251l1 -4q43 -33 90 -33l71 13q15 3 29.5 -8t14.5 -26zM407 562q0 36 -23 66t-59 30q-42 0 -68 -36q-23 -32 -23 -75q0 -57 42 -126q57 13 92 47q39 38 39 94zM466 45l-13 17
q-64 69 -128 139q-67 73 -115 154q-42 -7 -72 -47t-30 -84q0 -90 90 -147q77 -49 173 -49q43 0 95 17z" />
    <glyph glyph-name="quotesingle" unicode="'" horiz-adv-x="155" 
d="M28 675h72l-20 -225h-32z" />
    <glyph glyph-name="parenleft" unicode="(" horiz-adv-x="198" 
d="M122 -44q-120 239 -120 385q0 149 120 385h42q-38 -153 -50 -221q-18 -92 -18 -166q0 -123 69 -383h-43z" />
    <glyph glyph-name="parenright" unicode=")" horiz-adv-x="198" 
d="M8 -44q69 260 69 383q0 74 -18 166q-13 68 -51 221h42q121 -236 121 -385q0 -146 -121 -385h-42z" />
    <glyph glyph-name="asterisk" unicode="*" horiz-adv-x="385" 
d="M161 500q-34 -20 -46.5 -37.5t-25.5 -34.5q-16 -18 -36 -18q-16 0 -27 11t-11 27q0 39 71 46q29 3 65 23q-33 20 -57 23q-43 5 -51 8q-28 11 -28 39q0 16 11 26.5t27 10.5q25 0 55 -44q16 -24 53 -45v15q0 23 -14.5 56.5t-14.5 44.5q0 17 11 29.5t28 12.5t28.5 -13
t11.5 -30q0 -6 -14.5 -43.5t-14.5 -71.5q28 17 48 38q12 17 26 34t34 17q16 0 27 -10.5t11 -26.5q0 -39 -69 -45q-32 -3 -67 -25q32 -20 57 -23q44 -6 51 -8q28 -10 28 -39q0 -35 -36 -35q-26 0 -57 43q-18 25 -53 45v-16q0 -22 14 -55t14 -45q0 -18 -11 -30.5t-28 -12.5
t-28 13t-11 30q0 10 17 46q12 26 12 70z" />
    <glyph glyph-name="plus" unicode="+" horiz-adv-x="482" 
d="M254 277l1 -206l-57 2v202h-183v45h182v196h54v-193h181v-46h-178z" />
    <glyph glyph-name="comma" unicode="," horiz-adv-x="186" 
d="M109 17q-30 -38 -32 -43t-8 -52l-25 3q0 42 20 84q-1 2 -53 44q44 35 68 83q23 -56 76 -84q-28 -11 -46 -35z" />
    <glyph glyph-name="hyphen" unicode="-" horiz-adv-x="273" 
d="M213 186h-207l21 58l3 -1l202 1z" />
    <glyph glyph-name="hyphen" unicode="&#x2010;" horiz-adv-x="273" 
d="M213 186h-207l21 58l3 -1l202 1z" />
    <glyph glyph-name="period" unicode="." horiz-adv-x="195" 
d="M78 -13q-22 36 -72 77q32 25 41 35q14 16 30 48q27 -38 33 -44q19 -23 42 -41q-54 -29 -74 -75z" />
    <glyph glyph-name="slash" unicode="/" horiz-adv-x="357" 
d="M14 -54l-29 20l327 754l29 -20z" />
    <glyph glyph-name="zero" unicode="0" horiz-adv-x="540" 
d="M-3 347q0 6 10 28q16 33 23 51q102 264 215 264q111 0 215 -267q7 -18 24 -54q12 -25 12 -31q0 -10 -13 -38q-16 -35 -20 -48q-31 -107 -79 -178q-63 -93 -140 -93q-80 0 -146 104q-50 79 -77 188q-3 10 -14 40q-10 25 -10 34zM246 664q-39 -2 -62 -37q-20 -31 -35 -100
q-9 -44 -9 -140q0 -36 5 -182q10 -61 21 -122q20 -70 78 -70t80 70q11 61 23 122q5 146 5 182q0 96 -10 140q-15 69 -35 100q-22 35 -61 37z" />
    <glyph glyph-name="one" unicode="1" horiz-adv-x="374" 
d="M324 -217l-98 150q-48 80 -70 168l-74 -116q27 62 36 111q8 43 8 116v242q0 75 1 67q-4 60 -24 60q-4 0 -29 -28.5t-30 -28.5q-3 0 -7 7.5t-6 7.5l134 153q9 -8 64 -49q41 -31 41 -34q0 4 -13.5 -17t-13.5 -53v-333q0 -149 9 -199q12 -64 72 -224z" />
    <glyph glyph-name="two" unicode="2" horiz-adv-x="553" 
d="M498 458q0 -16 -15 -40l-28 -40q-108 -123 -190 -148q-46 -13 -109.5 -62.5t-85.5 -90.5l2 -10q70 34 107 44q41 11 113 11q13 0 40 -1.5t41 -1.5q55 0 81 24.5t41 26.5q-22 -53 -106 -164q-4 -6 -7 -12q-6 -11 -7 -11q-3 0 -29 11q-29 11 -32 12q-60 15 -136 15
q-33 0 -88 -12q-59 -13 -82 -28q-4 4 -4 13q0 93 95 174q87 65 175 130q94 81 92 177q-1 75 -47 130.5t-111 55.5q-53 0 -90 -29q-39 -32 -39 -84q0 -45 36 -74q33 -26 80 -26q25 0 53.5 10t43.5 9q-40 -67 -103 -130l-2 -2q-75 0 -121 59q-42 53 -42 130q0 71 59 117
q53 42 127 46q85 5 144 -36q42 -29 101 -108q17 -23 31 -53q12 -25 12 -32z" />
    <glyph glyph-name="three" unicode="3" horiz-adv-x="544" 
d="M497 213q0 -9 -21 -45q-12 -20 -25 -39q-77 -148 -261 -148q-73 0 -124 27q-70 37 -70 114q0 57 44 92q39 32 92 32q77 0 117 -80q-37 -28 -120 -81q11 28 11 46q0 21 -15.5 33.5t-36.5 12.5q-61 0 -61 -69q0 -56 60 -83q41 -18 86 -18q93 0 139 65q38 54 38 139
q0 67 -23 113q-32 63 -99 63q-32 0 -71 -22q-34 -21 -67 -41q-4 0 -11 6v13q212 151 268 241q-2 2 -7 2q8 0 -57 -19t-120 -19q-35 0 -105 12q-6 -9 -34 -57q-13 -1 -17 9l70 172q105 -35 191 -35q69 0 117 12q12 3 78 27q-50 -105 -224 -264q1 -8 19 -8h28q79 -22 165 -123
q46 -55 46 -80z" />
    <glyph glyph-name="four" unicode="4" horiz-adv-x="565" 
d="M522 10q-14 106 -86 106q-23 0 -28 -7v-124q0 -81 24 -186q32 -137 82 -157q-69 54 -107 124q-28 52 -48 134q-18 71 -35 143q-24 -38 -68 -68q27 47 47 148l-67 -1h-222q-4 1 -4 7l46 80q54 94 86 166q46 106 47 166q8 45 20 139h132l-54 -183q-32 -72 -128 -208
q-86 -122 -86 -121h231v137q0 43 -3 54q0 1 -14 36l161 159q-40 -51 -40 -185l1 -199q20 -2 26 -2q62 0 88 116z" />
    <glyph glyph-name="five" unicode="5" horiz-adv-x="493" 
d="M455 250q0 -2 -11 -25t-14 -34q-21 -83 -90 -145t-139 -62h-40q-62 0 -108 27q-58 34 -58 101q0 55 38 90t96 35q16 0 53 -22q41 -25 41 -45q-31 -32 -86 -94q-5 52 -6 54q-12 38 -54 38q-25 0 -42 -18t-17 -41q0 -55 50 -80q33 -16 77 -16q167 0 167 200q0 214 -133 214
q-59 0 -82 -33q-8 -11 -23 -63q-9 -33 -34 -33q-10 0 -22 12q-9 60 55 114l-4 93q0 79 -13 172q32 -11 65 -23q44 -14 87 -14q124 0 190 31q-22 -52 -67 -140q-59 2 -105 15q-53 15 -130 57q-1 -56 11 -170q45 14 85 14q17 0 32 -3q50 -10 103 -44q67 -42 99 -102
q29 -40 29 -60z" />
    <glyph glyph-name="six" unicode="6" horiz-adv-x="498" 
d="M459 221q-14 -28 -38 -81q-62 -166 -186 -157q-80 6 -121 45q-66 62 -83 227q-13 39 -34 93q12 19 43 89q18 103 69 170q61 81 154 83q73 1 117.5 -42t44.5 -108q0 -36 -37.5 -60.5t-80.5 -21.5q-21 24 -72 81q12 -4 59 -11q71 20 71 58t-38 62q-30 18 -61 18
q-122 0 -125 -182q0 -4 -3.5 -39.5t-3.5 -54.5q0 -18 3 -25q31 31 50 40q24 11 69 11q44 0 95 -39t66 -88q14 -25 42 -68zM330 197q0 81 -7 112q-18 72 -78 72q-69 0 -92 -76q-12 -39 -12 -114q0 -80 9 -110q19 -68 85 -68q71 0 89 65q6 25 6 119z" />
    <glyph glyph-name="seven" unicode="7" horiz-adv-x="434" 
d="M401 645q-10 -43 -34 -122q-32 -83 -116 -211q-63 -96 -63 -155q0 -52 40 -79q-21 -25 -41 -50q-27 -33 -32 -53q-17 10 -55.5 49.5t-38.5 47.5l16.5 18t13.5 33q-1 11 -1 22q0 70 71 155q66 71 131 142q71 82 71 145l-2 19q-87 -56 -186 -63q-41 -3 -93 -3q-2 0 -21 2.5
t-23 2.5q-12 0 -14 -7q-2 -12 -11 -35q0 -1 -8 -9q-8 7 -8 13q0 10 21 79t26 77q22 -5 62 -13q65 -9 112 -9q52 0 115 12q22 7 64 19z" />
    <glyph glyph-name="eight" unicode="8" horiz-adv-x="518" 
d="M458 181q0 -3 -12 -23q-14 -25 -16 -31q-70 -155 -200 -155q-56 0 -119 44.5t-93 102.5q-8 14 -16.5 29t-8.5 26q0 16 28 51q22 35 45.5 70t79.5 57q-37 21 -55 50t-34 56q-10 13 -40 57q16 16 45 49q49 73 62 85q32 28 102 34q45 4 90 -28q32 -23 59 -61q24 -34 21 -34
q5 0 45 -45q-17 -17 -45 -53q-36 -55 -42 -63q-26 -33 -58 -48q47 -36 93 -79q69 -66 69 -91zM307 517q0 136 -85 136q-76 0 -76 -140q0 -68 8 -94q17 -58 76 -58q77 0 77 156zM322 181q0 40 -13 77q-24 69 -83 69q-97 0 -97 -162q0 -69 15 -100q23 -52 91 -52q43 0 68 65
q19 50 19 103z" />
    <glyph glyph-name="nine" unicode="9" horiz-adv-x="532" 
d="M474 378q0 -18 -11.5 -53.5t-14.5 -35.5q5 0 -38 -120q-50 -138 -113 -230q-89 -130 -192 -151q115 94 166 196q45 90 56 217l-2 20q-33 -37 -97 -43q-62 -6 -119.5 41t-80.5 116q-9 21 -18 41q-12 28 -12 40t10.5 35t19.5 45q18 72 69 126q58 63 131 65q100 3 152 -72
q23 -33 68 -161q26 -72 26 -76zM341 422q0 240 -118 240q-103 0 -97 -242q5 -42 9 -84q8 -55 25 -84q23 -38 67 -38q67 0 96 84q18 53 18 124z" />
    <glyph glyph-name="colon" unicode=":" horiz-adv-x="201" 
d="M78 -13q-22 36 -72 77q32 25 41 35q14 16 30 48q27 -38 33 -44q19 -23 42 -41q-54 -29 -74 -75zM78 287q-22 36 -72 77q32 25 41 35q14 16 30 48q27 -38 33 -44q19 -23 42 -41q-54 -29 -74 -75z" />
    <glyph glyph-name="semicolon" unicode=";" horiz-adv-x="204" 
d="M155 62q-17 -6 -46 -45q-26 -33 -31 -49q-5 -23 -9 -46l-25 3q3 20 7 40q5 26 13 44q-9 13 -18 27q-15 19 -35 27q44 35 68 83q16 -39 76 -84zM78 287q-22 36 -72 77q32 25 41 35q14 16 30 48q27 -38 33 -44q19 -23 42 -41q-54 -29 -74 -75z" />
    <glyph glyph-name="less" unicode="&#x3c;" horiz-adv-x="388" 
d="M33 317l280 221l34 -31l-243 -190l240 -178l-34 -32z" />
    <glyph glyph-name="equal" unicode="=" horiz-adv-x="530" 
d="M13 329l1 49h455v-49h-456zM13 199l1 50l455 -1v-49h-456z" />
    <glyph glyph-name="greater" unicode="&#x3e;" horiz-adv-x="368" 
d="M57 107l-34 32l240 178l-243 190l34 31l280 -222z" />
    <glyph glyph-name="question" unicode="?" horiz-adv-x="529" 
d="M198 266q9 8 35 30q90 72 98 178q2 29 2 48q0 136 -117 136q-64 0 -114 -34q-53 -36 -53 -88q0 -46 36 -73q32 -24 80 -24q35 0 54 10q28 15 32 16q-29 -73 -86 -127q-2 -2 -8 -3q-76 0 -119 49q-40 45 -40 120q0 73 68 127.5t151 52.5q66 -1 132 -40q70 -42 97 -104
q10 -28 39 -64q-11 -12 -19 -23q-19 -27 -22 -43q-43 -94 -154 -127q-51 -15 -51 -52q0 -30 40 -47q-25 -32 -57 -32q-24 0 -41.5 16.5t-17.5 39.5q0 33 35 58zM289 53q-25 -17 -65 -74q-20 31 -24 35q-19 25 -43 39q35 13 68 67q16 -29 64 -67z" />
    <glyph glyph-name="A" unicode="A" horiz-adv-x="794" 
d="M781 -25q0 -27 -34 -27q-22 0 -36 20q-17 23 -39 29q-40 11 -150 11q-37 0 -98 -6q-79 -8 -98 -9q-13 -1 -25 24q-8 17 -15 35q18 -6 36.5 -12.5t37.5 -6.5q120 0 120 171q0 49 -2 61q-20 0 -85 -1q-55 -1 -86 -1q-47 0 -85 3v-129q0 -24 3.5 -68.5t3.5 -67.5
q0 -75 -40 -137q-45 -71 -116 -71q-63 0 -63 43q0 16 15.5 27t31.5 11q17 0 38.5 -14t31.5 -14q26 0 43 35q13 28 13 57q0 60 -42 113q-20 24 -58 53q-3 1 -5 4q0 115 62 293q71 206 154 235h-210q-28 0 -55 12q-33 15 -33 39q0 8 10 16.5t18 8.5q20 0 54 -18t52 -18h480
q40 0 82 13q52 16 53 16q13 0 24.5 -7.5t11.5 -18.5q0 -33 -48 -35q-69 -2 -88 -12q-47 -24 -47 -111v-377q0 -80 47 -105q10 -5 88 -17q48 -7 48 -47zM480 320v108q0 106 -5 131q-16 77 -83 77q-83 0 -129 -123q-33 -87 -38 -195z" />
    <glyph glyph-name="B" unicode="B" horiz-adv-x="776" 
d="M742 178q-81 -187 -275 -187q-85 0 -162 34q-8 4 -116 65q-61 34 -108 34q-13 0 -25 -6q10 -15 10 -26q0 -14 -10.5 -25.5t-24.5 -11.5q-34 0 -34 42q0 58 88 58q9 0 27.5 -1t27.5 -1q44 0 59 25q12 19 12 64v216q0 22 -11 46q-13 29 -31 29h-83q-29 0 -53 24t-24 54
q0 15 12 27t27 12t26 -12.5t11 -27.5q0 -3 -14 -37l6 -6h8q63 -1 124 32q53 31 105 62q65 34 136 34q80 0 165 -53q18 -11 66 -58q51 -50 51 -61q0 -29 -40 -63q-51 -42 -96 -62q-35 -15 -102 -30q200 -66 248 -190zM599 171q0 70 -31 118q-37 56 -103 56q-26 0 -48.5 -12.5
t-44.5 -24.5q1 2 2 3q0 5 -3.5 3t-3.5 2q0 2 1 4q26 31 91 62q73 35 96 54q44 39 44 106q0 50 -45.5 88.5t-97.5 38.5q-85 0 -117 -81q-21 -53 -21 -154v-179q0 -103 24 -155q35 -76 126 -76q64 0 99 43q32 40 32 104z" />
    <glyph glyph-name="C" unicode="C" horiz-adv-x="645" 
d="M614 700q-12 -25 -24 -83q-19 -90 -19 -189v-139q0 -135 39 -290q-15 12 -72 99q-11 -12 -35 -37q-54 -50 -86.5 -63.5t-98.5 -13.5q-199 0 -284 274q-3 10 -19 39.5t-16 32.5q0 1 15.5 32.5t19.5 48.5q32 124 95 194q46 52 109 74l74 18q110 -7 212 -88q6 6 16 17
q50 60 74 74zM532 280v72q0 85 -49 180q-64 125 -167 125q-106 0 -142 -126q-18 -64 -18 -188q0 -323 170 -323q107 0 163 94q43 72 43 166z" />
    <glyph glyph-name="D" unicode="D" horiz-adv-x="809" 
d="M775 343l-17 -35q-18 -39 -25 -60q-81 -255 -299 -255q-74 0 -141 32q-3 2 -101 61q-55 32 -97 32q-38 0 -38 -28v-5.5v-5.5q0 -25 -30 -25t-30 40q0 26 27 45q23 17 48 17h89q39 0 39 154v75q0 55 -4 75q-11 56 -49 56q-3 0 -24 -1t-25 -1q-94 0 -94 64q0 42 38 42
q12 0 22.5 -10t10.5 -19q0 -5 -10 -33q6 -6 16 -6q58 0 118 35l106 64q69 35 149 35q44 0 87 -17q74 -31 128 -116q27 -42 67 -140q5 -10 22 -39.5t17 -30.5zM622 347q0 306 -165 306q-84 0 -122 -70q-27 -51 -31 -142v-114q0 -143 14 -194q32 -109 139 -109q110 0 147 130
q18 64 18 193z" />
    <glyph glyph-name="E" unicode="E" horiz-adv-x="627" 
d="M641 859q0 -9 -22 -68q-25 -68 -31 -95q-24 -102 -25 -212l-1 -242q1 -53 4 -160q1 -53 12 -100q6 -28 31 -75q23 -41 23 -59q0 -29 -25 -29q-42 0 -62 119q-11 84 -21 167q-78 -70 -95 -80q-42 -26 -111 -28q-214 -5 -288 275q-2 8 -18.5 37t-16.5 32q0 1 14 32.5
t19 49.5q28 123 106 197.5t178 74.5q138 0 216 -129q12 54 22 152q9 91 17 120q14 48 46 48q28 0 28 -27zM519 390q0 94 -49 173q-59 97 -160 97q-99 0 -140 -140q-17 -58 -21 -140h367q0 1 1.5 4t1.5 6zM520 310h-376q0 -97 42 -179q52 -100 139 -99q132 3 176 141
q19 57 19 137z" />
    <glyph glyph-name="F" unicode="F" horiz-adv-x="714" 
d="M704 -150q0 -32 -26 -32q-81 0 -81 237q0 78 9 252h-300l-1 -160q0 -57 31 -79q25 -18 85 -18q62 0 124 20q-5 -14 -17 -39q-16 -31 -23 -31q-23 0 -64 6q-44 6 -65 6q-98 3 -148 3q-74 0 -122 -19q-5 -2 -35.5 -19t-35.5 -17q-27 0 -27 20q0 28 61 46q76 23 81 27
q23 17 27 43q6 42 9 48l-1 358q0 93 -59 127q-4 3 -69 11q-49 6 -49 35q0 10 10 18t20 8q7 0 34.5 -16.5t53.5 -16.5q18 0 55 -2.5t56 -2.5q224 0 466 27q-69 -395 -69 -587q0 -140 20 -177q3 -6 30 -35q20 -22 20 -41zM416 630q-74 0 -95 -35q-13 -22 -15 -103
q-3 -116 0 -121l303 1q2 4 2 24q0 125 -33 173q-41 61 -162 61z" />
    <glyph glyph-name="G" unicode="G" horiz-adv-x="727" 
d="M695 253q0 -3 -12 -30q-13 -32 -16 -42q-32 -91 -116 -146q-75 -49 -155 -49h-16q-14 -1 -18 -1q-237 0 -318 260q-4 14 -20 51q-15 34 -15 36t13 37q15 41 20 57q82 263 313 263q93 0 226 -71q13 17 27 33q18 20 41 26q-14 -28 -14 -108q0 -32 14 -78q11 -34 21 -68
q-51 50 -134 144q-50 57 -82 73q-42 21 -126 21q-163 0 -163 -298l2 -103q9 -126 48 -181q44 -62 142 -62q122 0 164 68q30 48 30 164q0 71 -18 122q-31 89 -108 89q-51 0 -86 -25q-40 -29 -40 -80q0 -45 30 -71q25 -23 62 -23q33 0 53 14q24 16 43 20q-8 -17 -45 -67
q-43 -58 -55 -78q-148 34 -148 162q0 73 58 123q54 48 124 48q154 0 242 -179q2 -4 18 -28q14 -20 14 -23z" />
    <glyph glyph-name="H" unicode="H" horiz-adv-x="823" 
d="M781 689q-12 -28 -63 -47q-47 -17 -46 -20q-3 -6 0 -18q3 -16 3 -21q0 -9 -5 -17q-66 40 -106 51q-82 23 -129 23q-119 0 -111 -122l-1 -126q69 105 177 99q76 -4 148.5 -54t102.5 -115q1 -4 18 -31q11 -17 11 -30q0 -10 -9 -28q-11 -25 -12 -28q-21 -62 -118 -163
q-88 -91 -88 -127q0 -54 58 -54q32 0 45 16q9 11 18 45q47 -18 47 -54q0 -41 -29 -63q-25 -20 -62 -20q-46 0 -78 36q-30 33 -30 75q0 43 31 100q29 52 58 105q31 68 31 139q0 79 -32 136q-42 74 -125 74q-87 0 -131 -76q-33 -57 -33 -133v-60q0 -61 12 -89q21 -49 84 -49
q54 0 72.5 5.5t30.5 5.5q-11 -20 -30 -58q-126 16 -191 16q1 0 -10.5 2t-29.5 2q-26 0 -66 -4q-45 -4 -66 -10q-43 -12 -54 -38q-5 -13 -31 -13q-25 0 -25 29q0 25 62 47q36 12 73 19q34 6 47 37q4 9 9 47v2l3 303q3 67 1 87q-4 54 -27 79t-69 31q-41 5 -82 11q-29 6 -29 31
q0 22 25 22q14 0 28 -8q20 -12 41 -18l588 3q26 1 94 16z" />
    <glyph glyph-name="I" unicode="I" horiz-adv-x="558" 
d="M539 673q0 -32 -53 -38l-98 -6q-49 -7 -61 -47q-4 -13 -7 -84q-4 -119 0 -346q-2 -27 10 -57q11 -26 26 -39q23 -20 104 -29q64 -7 64 -42q0 -19 -24 -22q-29 16 -91 40q-112 9 -175 9q-67 0 -108 -9q-64 -29 -95 -39q-26 -4 -26 29q0 21 51 36l102 24q17 4 33 32
q20 31 20 70l3 346q1 59 -5 77q-12 33 -55 44q-48 6 -97 12q-53 8 -53 39q0 25 28 23q37 -1 51 -21q77 -12 189 -12q120 0 183 12q17 13 64 18q20 -6 20 -20z" />
    <glyph glyph-name="J" unicode="J" horiz-adv-x="534" 
d="M502 691q-27 -89 -46 -224q-18 -130 -18 -228q0 -210 -34 -303q-57 -158 -228 -158q-61 0 -109 31q-56 36 -56 93q0 24 16.5 41t40.5 17q25 0 40.5 -18t15.5 -43q0 -11 -7 -29.5t-7 -28.5q0 -39 83 -39q65 0 109.5 37.5t44.5 101.5q0 38 -16 72q-10 22 -28 46
q-16 20 -16 22q0 61 177 561q-31 -9 -129 -67q-86 -51 -125 -51q-35 0 -75 36q-55 50 -67 56q10 -287 10 -302q0 -157 -56 -157q-25 0 -25 27q0 13 24 43.5t26 55.5q5 40 5 46q0 145 -24 350q9 3 44 3q13 0 68 -21t91 -21q138 0 271 51z" />
    <glyph glyph-name="K" unicode="K" horiz-adv-x="856" 
d="M844 679q0 -27 -42 -34l-72 -4q-20 -1 -38.5 -27.5t-16.5 -43.5q1 -8 1 -16q0 -73 -74 -142q-69 -64 -137 -70q67 -19 135 -78q76 -66 81 -128v-41q2 -30 15 -47q16 -22 85 -38q60 -14 60 -40q0 -19 -25 -19q-5 0 -41 27t-82 27l-285 3l-229 -6q-11 -2 -48 -3
q-26 0 -40 -8q-4 -3 -28 -24q-18 -16 -32 -16q-23 0 -23 21q0 22 51 42q43 17 68 18q39 2 50 47q3 15 5 79v170v98t0 93q0 125 -121 125q-17 0 -35 -2q-9 -1 -19.5 9t-10.5 21q0 26 28 26q14 0 17 -3q14 -21 57 -25q36 0 72 -1q113 -5 285 -3q268 4 284 4q29 0 48 16.5
t33 16.5q24 0 24 -24zM567 519q0 68 -33 92q-28 21 -98 21q-3 0 -17.5 1t-24.5 1q-102 0 -102 -72q2 -23 0 -202h128q72 0 112 50q35 44 35 109zM566 117q0 102 -56.5 158.5t-159.5 56.5q-48 0 -57 2l-1 -176q5 -77 27 -101q19 -22 74 -22h26.5h26.5q62 0 81 8q39 16 39 74z
" />
    <glyph glyph-name="L" unicode="L" horiz-adv-x="752" 
d="M697 498q0 -20 -26 -73t-26 -102q0 -124 46 -324q-2 -2 -5 -2q-40 0 -122 5.5t-122 5.5h-220q-77 0 -119 -16q-8 -3 -40 -23q-25 -16 -41 -16q-5 0 -11 8t-6 14q0 30 53 45q36 9 81 9q28 0 39 9t17 38q6 26 6 36v468q0 35 -51 48q-47 7 -96 14.5t-49 29.5q0 24 32 24
q2 0 23 -12.5t28 -14.5q21 -6 61 -6h214q75 0 107 10q6 1 28 13q18 10 29 10q6 0 16 -7t10 -13q0 -21 -60 -30q-96 -14 -112 -19q-61 -19 -61 -65q0 -455 -1 -417q2 -54 7 -69q12 -35 53 -35q39 0 85 47.5t68 47.5q36 0 68 -39q39 -48 49 -53l-41 203q-5 25 -5 61
q0 63 15 125q22 88 63 88q16 0 16 -23z" />
    <glyph glyph-name="M" unicode="M" horiz-adv-x="937" 
d="M892 357q0 -1 -35 -86q-67 -163 -185 -233q66 -8 132 -17q83 -13 83 -51q0 -29 -32 -29q-29 0 -49 22q-27 30 -38 35q-14 7 -143 8q-91 1 -243 -1q-174 -1 -161 -1q-62 0 -97 -20q-14 -8 -43 -37q-20 -20 -44 -20q-31 0 -31 30q0 36 85 54l128 22q-18 6 -83 85
q-72 87 -106 156q-29 54 -29 73q0 7 33 71q71 140 136 201q93 86 228 84h76q109 0 217 -77q105 -74 157 -181q44 -90 44 -88zM737 339q0 91 -32 179q-49 135 -148 135q-61 0 -61 -126v-31q1 -18 1 -24l-1 -299v-65q2 -35 17 -51q19 -20 64 -20q91 0 133 128q27 81 27 174z
M385 173l2 304q0 176 -77 176q-96 0 -132 -118q-19 -64 -21 -192q-2 -89 26 -174q42 -132 134 -132q52 0 64 44q4 17 4 92z" />
    <glyph glyph-name="N" unicode="N" horiz-adv-x="827" 
d="M783 340q0 -8 -17 -48.5t-24 -51.5q-16 -26 -73.5 -100t-82.5 -115q-39 -65 -39 -108q0 -33 18 -59q21 -30 52 -30q27 0 45 16.5t18 42.5q0 8 -12 40q31 -5 54.5 -27t23.5 -52q0 -38 -30 -61t-69 -23q-63 0 -102 48q-35 44 -35 108q0 37 31 110q25 54 49 109
q40 109 40 225q0 108 -38 188q-50 103 -145 103q-77 0 -106 -61q-19 -38 -23 -127q0 -8 -3 -31q-1 -19 -1 -31q0 -54 2 -224q1 -68 14 -98q20 -47 77 -47q19 0 82 8q0 -11 -7.5 -31t-16.5 -20l-147 14q-28 3 -92 3q-63 0 -101 -17q-19 -9 -45 -32q-19 -17 -36 -17
q-26 0 -26 23q0 34 49 49q79 24 89 31q49 29 49 97v116q1 77 1 115q0 93 -53 117q-50 8 -99 16q-53 10 -53 69q0 17 15.5 34.5t32.5 17.5q35 0 35 -32q0 -19 -33 -39q17 -20 47 -20q49 0 104 39q50 37 99 74q62 39 127 39q119 0 202 -82q61 -61 119 -190z" />
    <glyph glyph-name="O" unicode="O" horiz-adv-x="689" 
d="M651 337q0 -2 -11 -32q-12 -35 -16 -49q-32 -119 -118.5 -196t-185.5 -77q-106 0 -183.5 69.5t-111.5 198.5l-15 41q-12 36 -12 43q0 6 12 34q17 37 23 54q38 109 102 176q80 86 187 86q101 0 181 -74q76 -72 116 -197q10 -33 23 -56q9 -18 9 -21zM497 326q0 151 -19 210
q-37 112 -157 112q-113 0 -150 -110q-21 -61 -21 -205q0 -153 16 -204q34 -110 154 -110t157 108q20 58 20 199z" />
    <glyph glyph-name="P" unicode="P" horiz-adv-x="791" 
d="M763 448q-16 -19 -38 -64q-18 -72 -92 -116q-67 -41 -148 -41q-60 0 -101.5 43t-41.5 104q0 49 36 83.5t85 34.5q39 0 69 -24t30 -61q0 -29 -27.5 -49t-56.5 -20q-25 0 -37 11q3 9 23 15q15 5 15 37q0 46 -51 46q-25 0 -40 -25q-13 -20 -13 -47q0 -52 32.5 -84.5
t84.5 -32.5q64 0 96 55q25 45 25 114q0 99 -21 149q-33 76 -118 76q-168 0 -168 -227v-275q0 -64 31 -87q26 -20 91 -20q121 0 248 47q-11 -37 -40 -101q-151 26 -371 26q-143 0 -172 -22q-3 -3 -28 -33q-16 -21 -35 -21q-26 0 -26 28q0 45 50 56q78 16 93 26q51 33 51 135
v136q0 151 -61 151q-9 0 -28 -2.5t-28 -2.5q-32 0 -55.5 17.5t-23.5 48.5q0 42 37 42q35 0 35 -27q0 -6 -1.5 -16.5t-1.5 -15.5q0 -18 19 -18q51 0 114 49q56 45 113 90q75 49 156 49q85 0 150 -51q48 -39 102 -126q12 -38 38 -60z" />
    <glyph glyph-name="Q" unicode="Q" horiz-adv-x="696" 
d="M651 337q0 -2 -11 -32q-12 -35 -16 -49q-28 -106 -101 -179.5t-161 -89.5q7 -5 19 -13q21 -16 62 -46q53 -33 103 -33q39 0 61 22q13 13 25 43q9 23 17 23q2 0 4.5 -1.5t4.5 -1.5v-20q0 -8 -4 -23t-5 -20q-7 -50 -49 -88.5t-93 -38.5q-47 0 -93 41q-35 39 -71 77
q-40 41 -74 41q-23 0 -42 -12.5t-19 -34.5q0 -18 13 -29.5t31 -11.5q30 0 43 41q25 -11 25 -40q0 -23 -20 -39.5t-44 -16.5q-36 0 -57 25q-19 22 -19 59q0 71 80 99q-176 37 -235 262l-15 41q-12 36 -12 43q0 6 12 34q17 37 23 54q38 109 102 176q80 86 187 86
q101 0 181 -74q76 -72 116 -197q10 -33 23 -56q9 -18 9 -21zM497 326q0 151 -19 210q-37 112 -157 112q-113 0 -150 -110q-21 -61 -21 -205q0 -153 16 -204q34 -110 154 -110t157 108q20 58 20 199z" />
    <glyph glyph-name="R" unicode="R" horiz-adv-x="776" 
d="M768 -157q0 -63 -68 -63q-49 0 -83 46q-25 33 -44 94l-20 78q-8 29 -24 78q-9 25 -29 79q-43 108 -141 183l-13 10q0 12 11 23q72 -43 123 -43q65 0 98 56q25 43 25 101q0 74 -34 124q-41 59 -117 59q-46 0 -85 -26q-45 -30 -56 -82q-12 -59 -12 -112v-340q0 -50 29 -66
q21 -12 74 -12q3 0 22 3q23 3 34 4q0 -13 -27 -50q-95 22 -189 22q-113 0 -55 1q-30 0 -81 -12q-13 -2 -28 -26q-18 -29 -21 -31q-10 -8 -26 -8q-28 0 -28 22q0 38 77 64q51 17 64 23q37 17 37 37l1 392q0 13 -11.5 28t-32.5 18q-40 4 -79 8q-63 13 -63 55q0 17 11 32.5
t25 15.5q11 0 24.5 -11.5t13.5 -23.5q0 -2 -4 -14.5t-5 -18.5q8 -6 20 -6q49 0 114 37q57 35 113 70q70 37 130 37q195 0 279 -182q2 -5 17 -28q12 -20 12 -23q0 -2 -13 -15q-17 -16 -26 -29q-30 -39 -46 -58q-31 -36 -51 -46q-48 -24 -86 -24q-19 0 -73 8h-8
q94 -108 231 -126q-54 -153 -54 -210q0 -47 11 -91q16 -61 47 -65q1 0 3 3q-4 11 -4 23q0 21 13.5 36.5t35.5 15.5q42 0 42 -44z" />
    <glyph glyph-name="S" unicode="S" horiz-adv-x="613" 
d="M308 -20q-55 0 -114.5 27.5t-101.5 68.5l-1 -3q-19 -75 -67 -162q-54 -98 -110 -145v19q0 4 15 25q9 13 18 27q89 146 89 324q0 45 -18 152v15q13 -2 22 -13.5t17 -23.5q34 -47 61 -122q53 -149 190 -149q67 0 122 28q67 34 67 92q0 95 -149 125q-25 5 -69 -15
q-14 21 -33 28q-3 1 -30 4q-82 12 -134 66q-55 58 -55 139q0 83 58 141t141 58q78 0 169 -68q23 30 30 39q17 21 36 34l14 -8q-24 -60 -24 -134q0 -86 37 -140l-11 -7q-27 10 -55 52l-48 82q-31 50 -60 75q-39 33 -86 33q-56 0 -92 -30t-36 -84q0 -59 46 -90q31 -21 97 -34
q8 -2 26 3q29 9 43 12q35 -22 50 -40q32 -8 63 -17q59 -18 92 -52q48 -49 48 -132q0 -102 -82 -155q-69 -45 -175 -45z" />
    <glyph glyph-name="T" unicode="T" horiz-adv-x="707" 
d="M667 230q0 -2 -14.5 -24.5t-18.5 -31.5q-37 -104 -114 -148q-69 -41 -187 -41q-89 0 -160 37q-77 41 -113 115q-28 56 -61 106q19 19 55 113q26 69 97.5 132.5t141.5 76.5l21 6q0 5 -5 7q-125 69 -190 69q-31 0 -59 -16q-34 -19 -34 -47q0 -39 40 -39t40 34q0 2 -2 12
q-1 5 3 12q33 -11 33 -59q0 -20 -21 -36t-41 -16q-35 0 -57 22.5t-22 57.5q0 115 170 115q62 0 116 -21l13.5 15t44.5 14q48 -1 120 -62t104 -61q25 0 45.5 15t20.5 39q0 9 -7 18q-10 -9 -20.5 -19t-24.5 -10q-40 0 -40 37q0 16 15 32t32 16q66 0 66 -77q0 -12 -10 -36
q-14 -31 -56 -47q-36 -13 -75 -11q-29 2 -80 10q-45 8 -69 8q-50 0 -104 -25q-64 -30 -89 -89q-19 -46 -19 -125q0 -87 16 -158.5t55.5 -102.5t113.5 -31q99 0 143 49t44 149q0 78 -26 128q-34 66 -105 66q-43 0 -68.5 -24.5t-25.5 -67.5q0 -33 24.5 -55.5t57.5 -22.5
q22 0 37 13t29 26q3 0 17 -9q-25 -25 -45 -46q-47 -51 -58 -76q-2 -1 -10 1t-9 2q-42 0 -77.5 42t-35.5 86q0 75 55 119q51 42 125 42q71 0 131 -42.5t94 -115.5q2 -4 19 -25q14 -17 14 -25z" />
    <glyph glyph-name="U" unicode="U" horiz-adv-x="816" 
d="M787 688q0 -9 -10 -22.5t-20 -13.5q-182 -7 -174 -105l-1 -367q0 -64 6 -93q17 -69 70 -69q40 0 60 81q-3 54 -38 54q-2 0 -17.5 -7.5t-22.5 -7.5q-11 0 -9 15q7 40 28 50q9 5 43 5q41 0 64 -33q19 -27 19 -66q0 -48 -43.5 -86t-88.5 -38q-48 0 -81 34q-26 27 -57 95
q-1 0 -5 -4q-64 -120 -189 -120q-111 0 -184 76q-56 59 -98 175q-3 9 -17 37q-12 25 -12 28q0 2 17.5 28.5t20.5 34.5q54 115 81 153q53 77 134 110h-160q-30 -2 -63 9q-42 15 -42 38q0 20 4 27q9 14 41 14q12 0 37 -21.5t49 -21.5q9 0 179 -2q161 -2 252 -1q132 1 147 8
q12 11 31 27q9 6 26 6q23 0 23 -27zM469 542q3 43 -20.5 68.5t-68.5 25.5q-109 0 -170 -112q-49 -91 -49 -210q0 -90 31 -170q43 -110 126 -110q145 0 150 145q-2 130 1 363z" />
    <glyph glyph-name="V" unicode="V" horiz-adv-x="856" 
d="M850 694q0 -26 -33 -38q-19 -7 -63 -10q-39 -3 -45 -8q-14 -10 -37 -34q-34 -49 -66 -126q-9 -20 -52 -133l-66 -202q-58 -174 -68 -174q-1 0 -8 -3q-4 -1 -5 3q-38 81 -131 309q-90 223 -130 307q-7 14 -27 35q-24 24 -38 24h-64q-26 0 -26 28q0 19 16 23q25 2 51 -19
q18 -2 33 0h556q93 0 66 -1q35 1 64 12q2 1 15 14t22 13q2 1 10 1q26 0 26 -21zM542 565q0 49 -43 66q-23 9 -76 9q-50 0 -71 -6q-48 -13 -48 -55q0 -56 53 -238q37 -128 63 -200q122 361 122 424z" />
    <glyph glyph-name="W" unicode="W" horiz-adv-x="994" 
d="M968 677q0 -9 -19 -20q-15 -8 -26 -11q-32 -3 -92 -12q-51 -11 -46 -120l-1 -375q1 -26 5 -45q10 -48 32 -57q13 -6 26 -6q23 0 38.5 15.5t14.5 40.5q-3 52 -35 52q-13 0 -30 -8q1 16 24 33.5t40 17.5q33 0 52 -30q15 -24 15 -49q0 -55 -42 -84q-37 -26 -95 -26
q-34 0 -66 39q-30 34 -39 74h-3q-43 -95 -118 -114q-22 -5 -47 -5q-23 0 -51 9q-50 15 -117 82q-21 -23 -43 -46q-40 -41 -95 -41q-76 0 -135 76q-52 66 -65 148q-5 32 -32 90q16 29 38 77q24 86 77 145q40 45 97 76q40 18 79 36h-262q-54 0 -54 33q0 11 10.5 21.5
t20.5 10.5q5 0 22 -15.5t27 -15.5l825 4q11 11 31 26q7 3 13 3q26 0 26 -29zM673 242l-3 300q-15 62 -18 67q-17 31 -65 29q-5 0 -18 1q-11 1 -17 0q-8 -1 -14 -6q-55 -46 -85 -146q-25 -87 -25 -188q0 -192 69 -249q36 -29 69 -29q47 0 68 32.5t29 82.5q3 37 10 106z
M299 606q-151 -94 -151 -328q0 -76 15 -138q28 -112 99 -112q32 0 62 26q28 22 41 55q2 2 -22 49q-30 54 -37 86q-11 45 -38 76q19 19 46 73q35 81 181 245q-19 0 -46.5 1t-36.5 1q-58 0 -113 -34z" />
    <glyph glyph-name="X" unicode="X" horiz-adv-x="878" 
d="M868 -22q0 -10 -9.5 -19t-19.5 -9q-12 0 -41.5 28t-71.5 28h-560q-50 0 -78.5 -24t-42.5 -24q-11 0 -20 8.5t-9 19.5q0 29 67 43q72 15 82 44t19 91q7 51 22 78q23 42 79 78q22 15 76 33l-42 65q-52 84 -77 120q-63 90 -95 101q-13 4 -51 8q-90 7 -90 43q0 30 32 30
q17 0 25.5 -10.5t16.5 -20.5q4 -4 30 -9.5t34 -5.5h569q47 0 67 8q5 2 19 18q11 12 28 12q29 0 29 -24q0 -25 -36 -37q-25 -8 -58 -8h-19q-18 3 -38.5 -10.5t-20.5 -35.5q0 -12 3 -36.5t3 -37.5q0 -100 -91 -138l-108 -32q28 -48 64 -98q36 -59 73 -117q47 -69 100 -89
q41 -11 83 -22q57 -19 57 -49zM589 495q0 43 -17 84q-21 51 -55 60q-21 6 -56 6q-98 0 -98 -55q0 -14 6 -31q10 -22 104 -177q11 2 27 5q89 22 89 108zM513 78q0 19 -139 248q-13 -7 -27 -14q-31 -18 -50 -42q-27 -34 -27 -78q0 -10 1 -21q18 -119 77 -129q33 -5 90 -5
q75 0 75 41z" />
    <glyph glyph-name="Y" unicode="Y" horiz-adv-x="838" 
d="M822 678q0 -27 -36.5 -32t-71.5 -9q-38 -10 -38 -44q0 -4 11 -62q17 -91 17 -139q0 -137 -98 -233q-44 -44 -182 -127q-98 -58 -98 -103q0 -67 92 -67q28 0 52 18.5t24 45.5q0 16 -4 23q-6 12 -8 18q33 0 58.5 -24t25.5 -57q0 -53 -42 -85q-37 -28 -92 -28q-62 0 -108 35
q-50 39 -50 100q0 41 39 86t39 60q0 18 -54 185q-42 130 -67 202q-33 94 -39 109q-33 76 -65 86q-37 6 -74 13q-52 11 -52 36q0 19 25 19q9 0 30.5 -15t42.5 -15h604q32 0 57 15t40 15q9 0 15.5 -8.5t6.5 -17.5zM609 332q0 67 -28 157q-32 104 -76 132q-35 23 -93 23
q-32 0 -57 -13q-29 -16 -29 -46q0 -32 57 -255q58 -226 73 -248q68 36 110.5 105t42.5 145z" />
    <glyph glyph-name="Z" unicode="Z" horiz-adv-x="649" 
d="M619 406q0 -8 -26.5 -60.5t-26.5 -105.5q0 -49 15 -128q17 -93 20 -125h-17q-28 0 -87 10.5t-89 10.5h-191q-39 0 -109 -12q-73 -13 -106 -14l-3 6q60 71 119 143q70 88 103 154q-11 2 -50 2q-28 0 -46 -22q-24 -28 -31 -31l-6 7q0 58 63 99q56 35 115 34q0 3 62.5 116
t62.5 134l-46 -1q-51 -8 -104 -53q-50 -41 -71 -41q-28 0 -56 28l-46 46l-1 -17q-2 -21 4 -59q7 -41 7 -58q0 -192 -56 -192q-23 0 -23 25q0 9 23 41t23 75q0 55 -10 131q-17 122 -18 129q56 -12 174 -12q248 0 312 4q8 1 37 6q26 4 37 4l3 -6q-124 -146 -226 -310
q23 -6 62 -6q48 0 71 51q9 0 8 0q1 -1 4 -11q-41 -136 -189 -124q-34 -56 -67 -111q-47 -84 -47 -117q4 -4 35 -4q61 0 102 23q18 10 52 43q24 23 44 23q26 0 61 -35q40 -42 59 -50q-1 29 -12 97q-11 62 -11 97q0 54 15 112q21 81 58 81q20 0 20 -27z" />
    <glyph glyph-name="bracketleft" unicode="[" horiz-adv-x="186" 
d="M1 711l-1 -801q30 0 59 1q35 -1 59 -20q0 3 -1 31l-66 29v719l65 25v29q-19 -15 -43 -15q-7 0 -23 1.5t-26 1.5q-12 0 -23 -1z" />
    <glyph glyph-name="backslash" unicode="\" horiz-adv-x="357" 
d="M319 -54l28 20l-326 754l-29 -20z" />
    <glyph glyph-name="bracketright" unicode="]" horiz-adv-x="187" 
d="M121 -95l1 800h-59q-34 1 -59 19q0 -3 1 -30l66 -29v-719l-65 -26v-29q19 16 43 16q7 0 23 -2t26 -2q12 0 23 2z" />
    <glyph glyph-name="asciicircum" unicode="^" horiz-adv-x="287" 
d="M131 754q-25 -17 -99 -49l-10 19l104 82l2 3l2 -1l1 1l2 -3l104 -82l-10 -19q-28 9 -58 27.5t-38 21.5z" />
    <glyph glyph-name="underscore" unicode="_" horiz-adv-x="377" 
d="M-1 -50h378v-30h-378v30z" />
    <glyph glyph-name="grave" unicode="`" horiz-adv-x="359" 
d="M232 484l13 20l-113 79q-34 -52 -31 -64q26 -4 131 -35z" />
    <glyph glyph-name="a" unicode="a" horiz-adv-x="342" 
d="M310 357q-21 -7 -28 -26q-5 -15 -5 -51l-1 -182q5 -20 32 -36q-21 -18 -32 -27q-32 -31 -36 -49q-18 20 -38 39t-56 19q-60 0 -82 -58q-29 50 -70 72l16 18q9 14 9 50q0 21 -7 57q-6 31 -9 38q26 -10 60 -10q47 0 86 28q44 32 44 80q0 23 -15 42q-18 24 -48 26
q-15 0 -42.5 -20.5t-28.5 -38.5q-2 -21 23 -21q32 0 30 35q12 -2 21 -19q7 -12 7 -19q0 -23 -20 -37q-16 -12 -36 -12q-28 0 -44 21q-14 18 -14 41q0 35 69 83q63 46 93 46q4 0 57.5 -38t64.5 -51zM191 149v87q-32 -35 -90 -51q1 -12 0 -42q0 -37 5 -52q9 -25 40 -22
q36 3 44 29q1 6 1 51z" />
    <glyph glyph-name="b" unicode="b" horiz-adv-x="354" 
d="M321 362q-30 -22 -30 -56v-195q0 -28 20 -67q-23 7 -85 7q-68 0 -126 -64q-32 51 -93 73q1 8 10.5 27t10.5 29l-1 437q-3 13 -7 27q-6 19 -16 30q12 7 193 73l3 -12q-11 -4 -49 -25q-42 -25 -41 -77q1 -63 0 -212l103 91q49 -36 108 -86zM200 129v208l-40 37
q-50 -40 -50 -46v-230q4 -6 25.5 -24t23.5 -18q28 12 38 42q6 19 3 31z" />
    <glyph glyph-name="c" unicode="c" horiz-adv-x="287" 
d="M253 370q-16 -11 -31.5 -22.5t-24.5 -37.5l-66 74q-8 -3 -21 -11v-262q69 -48 76 -48q4 0 49 48l11 -12l-109 -112q-44 25 -132 79q24 25 24 31v161q0 67 -23 110q106 11 176 88q19 -23 71 -86z" />
    <glyph glyph-name="d" unicode="d" horiz-adv-x="357" 
d="M335 463l-26 -34q-13 -24 -13 -61v-225q0 -30 21 -70q-124 -7 -206 -86l-116 79q26 30 29 42q1 4 1 46v145q-8 35 -9 40q-8 29 -16 38q11 -3 36 -3q64 -1 114 60q-56 49 -141 117q10 25 10 64q0 30 -8 50l134 -110q123 -99 147 -99q15 0 43 7zM207 393l-33 22l-61 -53
l1 -263l56 -37l37 18v313z" />
    <glyph glyph-name="e" unicode="e" horiz-adv-x="333" 
d="M284 91q-43 -39 -121 -106l-167 78l22 22q16 20 15 38q-1 20 0 172q0 37 -31 66q74 8 129 42l58 46l111 -176q-129 -43 -129 -92q0 -19 11 -19q6 12 13 24q11 18 30 18q23 0 23 -32q0 -20 -14.5 -30.5t-30.5 -10.5q-22 0 -37.5 16t-12.5 39q3 37 61 70l-86 115
q-4 1 -14 -5v-263l106 -45l53 49z" />
    <glyph glyph-name="f" unicode="f" horiz-adv-x="249" 
d="M289 604q0 -1 -27 -23q-30 -24 -44 -44q-14 36 -60 65l-24 -15v-150h98l-26 -63h-74v-276q-1 -15 11 -32q9 -11 17 -21q-48 -19 -75 -67q-25 -43 -22 -90v-86h-17q-2 2 -2 574q-21 3 -54 0q-2 2 26 60l31 1v78q-3 25 -5 33q-5 17 -21 33q46 1 107 35.5t82 72.5
q2 -24 33 -50q23 -17 46 -35z" />
    <glyph glyph-name="g" unicode="g" horiz-adv-x="356" 
d="M345 28q0 -1 -70 -87q-79 -97 -110 -141q-21 2 -76 18q-47 14 -75 14q-14 0 -23 -7q-16 -14 -20 -16q-1 -1 -4 3t-6 4q21 37 68 109q48 -12 164 -39q30 36 71 91q-1 -2 -33.5 37.5t-33.5 63.5l-115 -94q-18 14 -90 79q9 10 19 20q14 16 14 27v164q0 67 -29 98q20 2 46 9
q31 8 39 10q23 4 66 36q40 31 38 31q5 0 64.5 -40t59.5 -45q0 -1 -11.5 -16t-11.5 -34v-203q2 -24 30.5 -58.5t28.5 -33.5zM195 114v227q-51 43 -55 43q-6 0 -30 -16v-263q0 -27 30 -41q9 6 32 25.5t23 24.5z" />
    <glyph glyph-name="h" unicode="h" horiz-adv-x="394" 
d="M156 -157q0 -25 14 -44q16 -22 39 -22l18 5q-19 37 -19 47q0 20 16 34t37 14q19 0 33 -16.5t14 -35.5q0 -30 -31 -50q-27 -17 -59 -17q-35 0 -59 24.5t-24 60.5q0 21 21 54q29 45 38 67q20 49 20 113l-2 233q0 51 -35 61l-50 -37v-207q0 -25 39 -59l-87 -84l-79 82
q37 32 38 57v396q0 73 -35 102q107 18 113 20q61 14 105 46v-21q-69 -37 -70 -38q-26 -22 -25 -74l1 -192l108 85q32 -25 95 -74q-21 -21 -26 -44q-4 -15 -4 -53q0 -13 -1.5 -61.5t-1.5 -79.5q0 -158 41 -192l-16 1q-56 3 -105 -20q-61 -29 -61 -81z" />
    <glyph glyph-name="i" unicode="i" horiz-adv-x="177" 
d="M129 593q-25 -17 -65 -74q-20 31 -24 35q-19 25 -43 39q35 13 68 67q16 -29 64 -67zM143 374q-14 -11 -26 -40q-5 -13 -9 -26v-184q4 -11 8 -23q8 -24 24 -35q-35 -22 -70 -80q-15 20 -28 34q-32 36 -49 44q36 19 34 63l-1 178q3 9 -7 30.5t-26 33.5q45 22 74 79
q29 -47 76 -74z" />
    <glyph glyph-name="j" unicode="j" horiz-adv-x="185" 
d="M156 -172q0 -38 -33 -58q-26 -16 -61 -16q-37 0 -60.5 30.5t-23.5 66.5q0 50 24 89q31 53 33 58l1 322q-3 32 -38 56q51 34 79 79q22 -40 77 -76q-33 -27 -32 -59q1 -29 0 -293q4 -39 4 -40q1 -5 21 -44q-8 1 -17 1q-46 0 -82 -24q-41 -27 -41 -70q0 -19 12 -43
q16 -30 38 -30q8 0 17 10q-7 10 -15 22t-8 25q0 21 17 35t35 14q53 0 53 -55zM142 589q-34 -24 -67 -70q-16 24 -25 35q-20 25 -44 38q49 19 70 68q15 -30 66 -71z" />
    <glyph glyph-name="k" unicode="k" horiz-adv-x="359" 
d="M329 68q-33 -17 -66 -81q-24 44 -73 81q0 -4 10 16t10 56v36q-2 26 -40 55l-51 -31v-59q0 -55 31 -73q-35 -22 -76 -85l-24 36q-24 33 -51 45l16 24q19 28 19 52v410q-2 35 -38 64q30 0 107 37.5t109 37.5q2 0 -0.5 -4.5t0.5 -6.5q-34 -11 -43 -16q-2 -2 -34 -27
q-13 -12 -16 -59v-63v-144l104 85l103 -102q-11 -14 -55 -45q-49 -34 -66 -51q5 -6 30 -12q22 -4 38 -4q2 0 19 3.5t25 3.5q0 -7 -8.5 -18.5t-8.5 -49.5q0 -26 7 -59q9 -41 22 -52zM233 313q-13 17 -63 65l-49 -38v-111q83 52 112 84z" />
    <glyph glyph-name="l" unicode="l" horiz-adv-x="190" 
d="M163 681q-13 -9 -23 -21q-23 -26 -23 -59q-1 -96 -1 -236q1 -199 1 -235.5t31 -60.5l-69 -78q-79 81 -74 83q14 7 23 28q8 16 8 25v403q0 42 -37 85q20 -1 80.5 36.5t83.5 39.5v-10z" />
    <glyph glyph-name="m" unicode="m" horiz-adv-x="532" 
d="M496 73q-47 -39 -64 -81q-18 25 -31 39q-25 29 -43 37l16 22q13 19 13 37v171q4 55 -46 55q-22 0 -35.5 -16t-7.5 -37v-178q2 -14 5 -27q6 -20 22 -28q-42 -36 -64 -80q-35 52 -71 73q0 -3 13 16t11 48q1 62 0 183q-1 23 -15.5 35.5t-31.5 12.5q-16 0 -31.5 -17.5
t-15.5 -28.5v-187q-3 -25 7 -40q8 -11 17 -22q-22 -8 -63 -70q-8 5 -27.5 29.5t-41.5 43.5q18 18 22 28q2 7 2 26l-1 183q0 24 -14 46q-11 13 -21 27q12 4 37.5 31t29.5 45q11 -22 41 -46q34 -27 59 -27q56 0 85 73q25 -38 28 -42q26 -28 64 -28q21 0 46 20.5t31 47.5
q23 -43 74 -77q-29 -33 -29 -41l1 -200q0 -38 29 -56z" />
    <glyph glyph-name="n" unicode="n" horiz-adv-x="364" 
d="M298 300v-178q2 -14 5 -27q6 -20 22 -28q-42 -36 -64 -80q-35 52 -71 73q0 -3 13 16t11 48q1 62 0 183q-1 23 -15.5 35.5t-31.5 12.5q-16 0 -31.5 -17.5t-15.5 -28.5v-187q-3 -25 7 -40q8 -11 17 -22q-22 -8 -63 -70q-8 5 -27.5 29.5t-41.5 43.5q18 18 22 28q2 7 2 26
l-1 183q-1 30 -15 50q-10 11 -20 23q12 4 37.5 31t29.5 45q11 -22 41 -47q34 -28 59 -28q61 0 90 73q11 -20 22 -41q20 -27 60 -35q-17 -6 -31.5 -29.5t-9.5 -41.5z" />
    <glyph glyph-name="o" unicode="o" horiz-adv-x="360" 
d="M327 378q0 -5 -14.5 -22t-14.5 -29v-192q0 -24 24 -56q-35 -2 -99 -32q-69 -32 -87 -59q-2 -4 -49 28q-70 46 -77 51q23 27 26 56v175q0 29 -11 46q-9 13 -17 26q102 -4 190 86zM214 354q-11 8 -53 38q-15 -8 -35 -18v-278l56 -40q13 9 32 23v275z" />
    <glyph glyph-name="p" unicode="p" horiz-adv-x="397" 
d="M330 244q0 -74 1 -87q5 -49 28 -81q-80 -17 -92 -23q-18 -10 -65 -64l-42 29v-75q0 -46 21 -88q-85 -18 -157 -86l-7 8q38 49 40 51q15 27 15 63l-1 162l-58 36q-4 -3 -26 -37l-4 9q26 53 63 96q7 -5 26 -13q0 9 1 37.5t1 46.5q0 123 -42 147q28 15 77 69q29 -31 40 -40
q26 -20 52 -20q45 0 85 65q17 -19 33 -39q22 -24 40 -30q-23 -33 -28 -64q-1 -8 -1 -72zM204 365q-46 0 -46 -35v-227l59 -40q34 0 35 82l1 126q0 94 -49 94z" />
    <glyph glyph-name="q" unicode="q" horiz-adv-x="359" 
d="M350 -235q-37 7 -80 39t-79 35q21 46 21 94v155q-5 2 -58 -50.5t-59 -52.5q-11 0 -91 81q22 18 28 58v191q-2 17 -5 25q-6 15 -23 36q39 -4 92 19.5t95 61.5l140 -78l-21 -21t-9 -21l-1 -448q-2 -52 15 -75.5t35 -48.5zM214 127l-1 214q-65 48 -70 48q-7 0 -17.5 -6.5
t-10.5 -9.5v-282q28 -28 33 -28q3 0 33 29.5t33 34.5z" />
    <glyph glyph-name="r" unicode="r" horiz-adv-x="327" 
d="M315 133q0 -21 -16.5 -34t-37.5 -13q-35 0 -44 43q-1 4 -3 62q1 -6 1 64q1 35 -8 69q-3 13 -19 23t-29 10q-44 -12 -41 -44q-2 -82 -1 -187q6 -39 32 -61q-56 -35 -77 -76q-7 20 -29 45.5t-40 32.5q33 32 33 59q0 48 1 187q-2 15 -5 26q-9 28 -28 34q25 22 75 77
q45 -70 83 -70q23 0 42 25q15 21 29 41q25 -49 74 -74q0 -2 -4 -5q-45 -18 -60 -77q-7 -31 -8 -100q-1 -68 17 -74l10 1q-2 37 -2 35q4 14 24 14q31 0 31 -33z" />
    <glyph glyph-name="s" unicode="s" horiz-adv-x="362" 
d="M329 218q-20 -16 -24 -38v-40v-40q4 -29 21 -42q-33 -4 -67 -8q-27 -6 -69 -34q-17 -11 -61 -44q-70 40 -99 40q-26 0 -40 -7q2 6 36.5 44.5t42.5 38.5q2 0 47.5 -21t61.5 -21q30 0 38 30q2 9 2 49q0 43 -6 58q-12 27 -49 27t-77 -42l-64 52q-2 4 -1 6q20 6 20 62
q0 52 -20 69q-1 4 -1 6q25 5 51 10.5t50 18.5q20 12 63 52q55 -34 85 -34q6 0 39 8q-72 -83 -78 -83q-4 0 -40 16.5t-38 17.5q-6 1 -11 1q-16 0 -16 -23q0 -4 1 -42q0 -39 0 -38q16 -38 45 -38q30 0 57 23.5t29 23.5q3 0 29 -22q37 -32 43 -36z" />
    <glyph glyph-name="t" unicode="t" horiz-adv-x="247" 
d="M228 156q0 -16 -14 -16q-13 0 -27 24q-11 18 -14 31q-9 44 -1 157q1 18 -25 18q1 0 -11 3q-8 1 -8 -3v-254q0 -26 28 -53q-22 -8 -67 -81q-30 47 -74 79l15 17.5t15 39.5l1 253q-22 1 -49 0v31h48v94q0 17 -6 39q-8 27 -20 35v4q21 9 107 53q41 22 72 37l7 -11
q-17 -11 -49 -34q-21 -18 -25 -53q-1 -30 -3 -60q2 -2 2 -17t-2 -83q1 -2 27 -2q19 0 25 35l2 42q4 13 10 102q0 3 6.5 8.5t11.5 5.5q6 0 5 -11l-18 -216l-2 -99q0 -61 8 -75q3 -6 17 -18q8 -7 8 -22z" />
    <glyph glyph-name="u" unicode="u" horiz-adv-x="350" 
d="M252 -2q-38 68 -92 68q-48 0 -89 -74q-30 38 -31 40q-19 22 -38 34q17 16 23 27t6 34v202q0 24 -26 45q46 33 67 74q24 -41 69 -69q-27 -24 -27 -52v-168q0 -70 48 -70q44 0 44 74v154q0 41 -26 61q36 28 67 73q2 -2 26 -37q15 -22 44 -42q-10 -3 -17.5 -22.5t-7.5 -31.5
v-193q0 -34 29 -49q-47 -35 -69 -78z" />
    <glyph glyph-name="v" unicode="v" horiz-adv-x="372" 
d="M350 383q-14 -14 -27 -28q-9 -12 -9 -29v-199q1 -15 14 -34q7 -8 14 -17q-60 -4 -119 -40q-10 -6 -41 -31q-27 -20 -30 -20q-1 0 -45 34q-48 36 -85 50q32 22 32 49v241q0 22 -27 61t-27 81q0 51 34 90q38 44 100 50q-13 -9 -39 -26q-33 -23 -33 -57q0 -45 35 -75
q41 -34 43 -60q4 -45 4 -71l99 104q60 -51 107 -73zM231 75l1 259q0 11 -10.5 24t-23.5 13q-6 0 -30 -26.5t-24 -31.5v-193q0 -27 15 -36q47 -27 48 -27q8 0 24 18z" />
    <glyph glyph-name="w" unicode="w" horiz-adv-x="551" 
d="M521 57q-105 2 -164 -37q-5 -4 -20 -19.5t-19 -15.5q5 0 -49.5 34t-85.5 34q-24 0 -50 -21t-38 -47q-2 0 -25 31q-26 35 -45 46q0 2 17 18q13 14 13 46v201q0 48 -27 87.5t-27 67.5q0 45 40 87t99 55q15 3 10 3q12 0 8 -8q-93 -29 -93 -91q0 -21 24 -50q49 -59 49 -92
v-6.5v-5.5q0 -6 2 -11q26 26 89 83q30 4 70 -60q10 -18 16 -33l109 92q11 -8 54 -42q45 -38 45 -40q-6 -4 -26 -30v-228q0 -26 24 -48zM407 333q0 6 -30 31l-59 -44v-185q-3 -26 17 -46q15 -15 46 -26l26 13v257zM226 317q-10 53 -33 53q-8 0 -53 -43v-192q0 -53 40 -53
q25 0 35 10t11 37v188z" />
    <glyph glyph-name="x" unicode="x" horiz-adv-x="356" 
d="M253 -13q-26 38 -70 74q0 1 16 15t16 41q0 23 -24 43t-48 20q-20 0 -35 -20t-15 -42q0 -42 45 -60v-1q-49 -37 -67 -77q-36 52 -69 80q30 19 45 72q14 48 55 64q-50 21 -60 73q1 -1 1 49q0 19 -8 30q-3 5 -21 23q29 18 68 74q39 -58 67 -73q-10 -9 -19.5 -17.5
t-9.5 -38.5q0 -31 25 -50q38 -28 60 -28q10 0 22.5 22.5t12.5 34.5q0 56 -49 77q4 6 30 29.5t37 43.5q11 -28 66 -74q-11 -7 -30 -28q-5 -9 -20 -67q-9 -33 -45 -47q41 -19 56 -50q5 -10 16 -59q9 -37 30 -58q-30 -20 -45 -33q-26 -22 -33 -42z" />
    <glyph glyph-name="y" unicode="y" horiz-adv-x="359" 
d="M332 370q-37 -28 -37 -64v-284q0 -52 28 -77l-26 1q-50 0 -89 -24q-45 -28 -45 -76q0 -22 18 -42t39 -18h4l5 5q-10 9 -20 20t-10 29q0 21 15.5 36t36.5 15q24 0 41.5 -17.5t17.5 -42.5q0 -31 -27.5 -48.5t-60.5 -17.5q-36 0 -60.5 26t-24.5 62q0 27 35.5 84.5
t35.5 122.5q0 9 1 31v31v180q0 49 -48 49q-41 0 -41 -47v-194q0 -15 25 -41q-47 -24 -67 -76q-12 8 -34 35t-36 37l14 16q13 15 13 31v192q0 24 -6.5 35t-28.5 26q39 31 45 37q11 12 33 49q41 -72 87 -72q54 0 87 68q36 -52 80 -77z" />
    <glyph glyph-name="z" unicode="z" horiz-adv-x="229" 
d="M204 162q-12 -9 -22 -43v-105q0 -43 17 -60q-53 -2 -92 -18q-63 -26 -63 -81q0 -25 20 -41q17 -15 36 -15q22 0 33 12q-5 1 -14 4q-24 12 -24 41q0 20 13.5 32.5t33.5 12.5q19 0 33 -17.5t14 -34.5q0 -33 -33 -52q-25 -13 -51 -13q-82 0 -82 84q0 48 63 105q17 15 19 39
v93q0 42 -3 52q-9 23 -43 23q-10 0 -42 -15l-6 13q7 3 21 12q26 17 68 59l-1 108q-10 12 -29 31q-8 3 -54 -30l-10 12l108 80l88 -59q-10 -11 -22 -34q0 2 0 -76q0 -22 14 -36q-27 -6 -54 -13q-22 -6 -51 -29q8 -8 57 -24q42 -14 58 -17z" />
    <glyph glyph-name="braceleft" unicode="{" horiz-adv-x="334" 
d="M183 661q-47 -136 -47 -340q0 -208 47 -350q29 2 59 -14q38 -21 57 -63q0 2 1 46l-67 78q-25 161 -25 337q0 162 25 265l67 68l-2 36q-15 -28 -47 -42q-11 -5 -68 -21zM107 311q0 35 -15 59t-37 24t-37 -24t-15 -59q0 -34 15 -58.5t37 -24.5t37 24.5t15 58.5z" />
    <glyph glyph-name="bar" unicode="|" horiz-adv-x="228" 
d="M157 311q0 35 -15 59t-37 24t-37 -24t-15 -59q0 -34 15 -58.5t37 -24.5t37 24.5t15 58.5z" />
    <glyph glyph-name="braceright" unicode="}" horiz-adv-x="368" 
d="M119 661q47 -136 47 -340q0 -208 -46 -350q-30 2 -59 -14q-38 -21 -58 -63v46l66 78q25 161 25 337q0 162 -25 265l-66 68l1 36q16 -28 48 -42q11 -5 67 -21zM195 311q0 35 15.5 59t36.5 24q22 0 37.5 -24t15.5 -59q0 -34 -15.5 -58.5t-37.5 -24.5q-21 0 -36.5 24.5
t-15.5 58.5z" />
    <glyph glyph-name="asciitilde" unicode="~" horiz-adv-x="402" 
d="M335 790q-31 -66 -81 -66q-21 0 -60 16.5t-60 16.5q-34 0 -57 -29q-3 5 -8.5 5.5t-7.5 2.5q29 69 96 69q20 0 54.5 -15.5t52.5 -15.5q28 0 59 26z" />
    <glyph glyph-name="Adieresis" unicode="&#xc4;" horiz-adv-x="821" 
d="M781 -25q0 -27 -34 -27q-22 0 -36 20q-17 23 -39 29q-40 11 -150 11q-37 0 -98 -6q-79 -8 -98 -9q-13 -1 -25 24q-8 17 -15 35q18 -6 36.5 -12.5t37.5 -6.5q120 0 120 171q0 49 -2 61q-20 0 -85 -1q-55 -1 -86 -1q-47 0 -85 3v-129q0 -24 3.5 -68.5t3.5 -67.5
q0 -75 -40 -137q-45 -71 -116 -71q-63 0 -63 43q0 16 15.5 27t31.5 11q17 0 38.5 -14t31.5 -14q26 0 43 35q13 28 13 57q0 60 -42 113q-20 24 -58 53q-3 1 -5 4q0 115 62 293q71 206 154 235h-210q-28 0 -55 12q-33 15 -33 39q0 8 10 16.5t18 8.5q20 0 54 -18t52 -18h480
q40 0 82 13q52 16 53 16q13 0 24.5 -7.5t11.5 -18.5q0 -33 -48 -35q-69 -2 -88 -12q-47 -24 -47 -111v-377q0 -80 47 -105q10 -5 88 -17q48 -7 48 -47zM480 320v108q0 106 -5 131q-16 77 -83 77q-83 0 -129 -123q-33 -87 -38 -195zM497 729q-21 0 -36 16t-15 38q0 21 15 37
t36 16q22 0 37 -16t15 -37q0 -22 -15 -38t-37 -16zM307 729q-21 0 -36 16t-15 38q0 21 15 37t36 16q22 0 37 -16t15 -37q0 -22 -15 -38t-37 -16z" />
    <glyph glyph-name="Aring" unicode="&#xc5;" horiz-adv-x="821" 
d="M781 -25q0 -27 -34 -27q-22 0 -36 20q-17 23 -39 29q-40 11 -150 11q-37 0 -98 -6q-79 -8 -98 -9q-13 -1 -25 24q-8 17 -15 35q18 -6 36.5 -12.5t37.5 -6.5q120 0 120 171q0 49 -2 61q-20 0 -85 -1q-55 -1 -86 -1q-47 0 -85 3v-129q0 -24 3.5 -68.5t3.5 -67.5
q0 -75 -40 -137q-45 -71 -116 -71q-63 0 -63 43q0 16 15.5 27t31.5 11q17 0 38.5 -14t31.5 -14q26 0 43 35q13 28 13 57q0 60 -42 113q-20 24 -58 53q-3 1 -5 4q0 115 62 293q71 206 154 235h-210q-28 0 -55 12q-33 15 -33 39q0 8 10 16.5t18 8.5q20 0 54 -18t52 -18h480
q40 0 82 13q52 16 53 16q13 0 24.5 -7.5t11.5 -18.5q0 -33 -48 -35q-69 -2 -88 -12q-47 -24 -47 -111v-377q0 -80 47 -105q10 -5 88 -17q48 -7 48 -47zM480 320v108q0 106 -5 131q-16 77 -83 77q-83 0 -129 -123q-33 -87 -38 -195zM410 718q-39 0 -68.5 22.5t-29.5 57.5
t29.5 59t68.5 24q38 0 67.5 -24t29.5 -59t-29.5 -57.5t-67.5 -22.5zM410 845q-27 0 -44.5 -15t-17.5 -32q0 -16 17 -30t45 -14q27 0 44 14t17 30q0 17 -17.5 32t-43.5 15z" />
    <glyph glyph-name="Ccedilla" unicode="&#xc7;" horiz-adv-x="664" 
d="M532 280v72q0 85 -49 180q-64 125 -167 125q-106 0 -142 -126q-18 -64 -18 -188q0 -323 170 -323q107 0 163 94q43 72 43 166zM287 -14v0q1 -1 3 0h-3zM303 -53h17q75 0 75 -64q0 -34 -25 -61q-28 -29 -70 -29q-30 0 -64 17l13 26q18 -11 35 -11q23 0 37 17t14 38
q0 37 -36 37q-6 0 -13 -1l-31 -16q12 29 31 86q-175 21 -252 272q-3 10 -19 39.5t-16 32.5q0 1 15.5 32.5t19.5 48.5q32 124 95 194q46 52 109 74l74 18q110 -7 212 -88q6 6 16 17q50 60 74 74q-12 -25 -24 -83q-19 -90 -19 -189v-139q0 -135 39 -290q-15 12 -72 99
q-11 -12 -35 -37q-54 -50 -86.5 -63.5t-98.5 -13.5h-3q-1 -8 -9 -30z" />
    <glyph glyph-name="Eacute" unicode="&#xc9;" horiz-adv-x="663" 
d="M641 859q0 -9 -22 -68q-25 -68 -31 -95q-24 -102 -25 -212l-1 -242q1 -53 4 -160q1 -53 12 -100q6 -28 31 -75q23 -41 23 -59q0 -29 -25 -29q-42 0 -62 119q-11 84 -21 167q-78 -70 -95 -80q-42 -26 -111 -28q-214 -5 -288 275q-2 8 -18.5 37t-16.5 32q0 1 14 32.5
t19 49.5q28 123 106 197.5t178 74.5q138 0 216 -129q12 54 22 152q9 91 17 120q14 48 46 48q28 0 28 -27zM519 390q0 94 -49 173q-59 97 -160 97q-99 0 -140 -140q-17 -58 -21 -140h367q0 1 1.5 4t1.5 6zM520 310h-376q0 -97 42 -179q52 -100 139 -99q132 3 176 141
q19 57 19 137zM232 734l-15 24l167 96l37 -70z" />
    <glyph glyph-name="Ntilde" unicode="&#xd1;" horiz-adv-x="843" 
d="M783 340q0 -8 -17 -48.5t-24 -51.5q-16 -26 -73.5 -100t-82.5 -115q-39 -65 -39 -108q0 -33 18 -59q21 -30 52 -30q27 0 45 16.5t18 42.5q0 8 -12 40q31 -5 54.5 -27t23.5 -52q0 -38 -30 -61t-69 -23q-63 0 -102 48q-35 44 -35 108q0 37 31 110q25 54 49 109
q40 109 40 225q0 108 -38 188q-50 103 -145 103q-77 0 -106 -61q-19 -38 -23 -127q0 -8 -3 -31q-1 -19 -1 -31q0 -54 2 -224q1 -68 14 -98q20 -47 77 -47q19 0 82 8q0 -11 -7.5 -31t-16.5 -20l-147 14q-28 3 -92 3q-63 0 -101 -17q-19 -9 -45 -32q-19 -17 -36 -17
q-26 0 -26 23q0 34 49 49q79 24 89 31q49 29 49 97v116q1 77 1 115q0 93 -53 117q-50 8 -99 16q-53 10 -53 69q0 17 15.5 34.5t32.5 17.5q35 0 35 -32q0 -19 -33 -39q17 -20 47 -20q49 0 104 39q50 37 99 74q62 39 127 39q119 0 202 -82q61 -61 119 -190zM545 790
q-31 -66 -81 -66q-21 0 -60 16.5t-60 16.5q-34 0 -57 -29q-3 5 -8.5 5.5t-7.5 2.5q29 69 96 69q20 0 54.5 -15.5t52.5 -15.5q28 0 59 26z" />
    <glyph glyph-name="Odieresis" unicode="&#xd6;" horiz-adv-x="698" 
d="M651 337q0 -2 -11 -32q-12 -35 -16 -49q-32 -119 -118.5 -196t-185.5 -77q-106 0 -183.5 69.5t-111.5 198.5l-15 41q-12 36 -12 43q0 6 12 34q17 37 23 54q38 109 102 176q80 86 187 86q101 0 181 -74q76 -72 116 -197q10 -33 23 -56q9 -18 9 -21zM497 326q0 151 -19 210
q-37 112 -157 112q-113 0 -150 -110q-21 -61 -21 -205q0 -153 16 -204q34 -110 154 -110t157 108q20 58 20 199zM407 729q-21 0 -36 16t-15 38q0 21 15 37t36 16q22 0 37 -16t15 -37q0 -22 -15 -38t-37 -16zM217 729q-21 0 -36 16t-15 38q0 21 15 37t36 16q22 0 37 -16
t15 -37q0 -22 -15 -38t-37 -16z" />
    <glyph glyph-name="Udieresis" unicode="&#xdc;" horiz-adv-x="839" 
d="M787 688q0 -9 -10 -22.5t-20 -13.5q-182 -7 -174 -105l-1 -367q0 -64 6 -93q17 -69 70 -69q40 0 60 81q-3 54 -38 54q-2 0 -17.5 -7.5t-22.5 -7.5q-11 0 -9 15q7 40 28 50q9 5 43 5q41 0 64 -33q19 -27 19 -66q0 -48 -43.5 -86t-88.5 -38q-48 0 -81 34q-26 27 -57 95
q-1 0 -5 -4q-64 -120 -189 -120q-111 0 -184 76q-56 59 -98 175q-3 9 -17 37q-12 25 -12 28q0 2 17.5 28.5t20.5 34.5q54 115 81 153q53 77 134 110h-160q-30 -2 -63 9q-42 15 -42 38q0 20 4 27q9 14 41 14q12 0 37 -21.5t49 -21.5q9 0 179 -2q161 -2 252 -1q132 1 147 8
q12 11 31 27q9 6 26 6q23 0 23 -27zM469 542q3 43 -20.5 68.5t-68.5 25.5q-109 0 -170 -112q-49 -91 -49 -210q0 -90 31 -170q43 -110 126 -110q145 0 150 145q-2 130 1 363zM467 729q-21 0 -36 16t-15 38q0 21 15 37t36 16q22 0 37 -16t15 -37q0 -22 -15 -38t-37 -16z
M277 729q-21 0 -36 16t-15 38q0 21 15 37t36 16q22 0 37 -16t15 -37q0 -22 -15 -38t-37 -16z" />
    <glyph glyph-name="aacute" unicode="&#xe1;" horiz-adv-x="342" 
d="M310 357q-21 -7 -28 -26q-5 -15 -5 -51l-1 -182q5 -20 32 -36q-21 -18 -32 -27q-32 -31 -36 -49q-18 20 -38 39t-56 19q-60 0 -82 -58q-29 50 -70 72l16 18q9 14 9 50q0 21 -7 57q-6 31 -9 38q26 -10 60 -10q47 0 86 28q44 32 44 80q0 23 -15 42q-18 24 -48 26
q-15 0 -42.5 -20.5t-28.5 -38.5q-2 -21 23 -21q32 0 30 35q12 -2 21 -19q7 -12 7 -19q0 -23 -20 -37q-16 -12 -36 -12q-28 0 -44 21q-14 18 -14 41q0 35 69 83q63 46 93 46q4 0 57.5 -38t64.5 -51zM191 149v87q-32 -35 -90 -51q1 -12 0 -42q0 -37 5 -52q9 -25 40 -22
q36 3 44 29q1 6 1 51zM201 575q33 -50 31 -52t-138 -48l-9 18z" />
    <glyph glyph-name="agrave" unicode="&#xe0;" horiz-adv-x="342" 
d="M310 357q-21 -7 -28 -26q-5 -15 -5 -51l-1 -182q5 -20 32 -36q-21 -18 -32 -27q-32 -31 -36 -49q-18 20 -38 39t-56 19q-60 0 -82 -58q-29 50 -70 72l16 18q9 14 9 50q0 21 -7 57q-6 31 -9 38q26 -10 60 -10q47 0 86 28q44 32 44 80q0 23 -15 42q-18 24 -48 26
q-15 0 -42.5 -20.5t-28.5 -38.5q-2 -21 23 -21q32 0 30 35q12 -2 21 -19q7 -12 7 -19q0 -23 -20 -37q-16 -12 -36 -12q-28 0 -44 21q-14 18 -14 41q0 35 69 83q63 46 93 46q4 0 57.5 -38t64.5 -51zM191 149v87q-32 -35 -90 -51q1 -12 0 -42q0 -37 5 -52q9 -25 40 -22
q36 3 44 29q1 6 1 51zM115 575q-33 -50 -31 -52q1 -2 138 -48l9 18z" />
    <glyph glyph-name="acircumflex" unicode="&#xe2;" horiz-adv-x="342" 
d="M310 357q-21 -7 -28 -26q-5 -15 -5 -51l-1 -182q5 -20 32 -36q-21 -18 -32 -27q-32 -31 -36 -49q-18 20 -38 39t-56 19q-60 0 -82 -58q-29 50 -70 72l16 18q9 14 9 50q0 21 -7 57q-6 31 -9 38q26 -10 60 -10q47 0 86 28q44 32 44 80q0 23 -15 42q-18 24 -48 26
q-15 0 -42.5 -20.5t-28.5 -38.5q-2 -21 23 -21q32 0 30 35q12 -2 21 -19q7 -12 7 -19q0 -23 -20 -37q-16 -12 -36 -12q-28 0 -44 21q-14 18 -14 41q0 35 69 83q63 46 93 46q4 0 57.5 -38t64.5 -51zM191 149v87q-32 -35 -90 -51q1 -12 0 -42q0 -37 5 -52q9 -25 40 -22
q36 3 44 29q1 6 1 51zM171 534q-25 -17 -99 -49l-10 19l104 82l2 3l2 -1l1 1l2 -3l104 -82l-10 -19q-28 9 -58 27.5t-38 21.5z" />
    <glyph glyph-name="adieresis" unicode="&#xe4;" horiz-adv-x="342" 
d="M310 357q-21 -7 -28 -26q-5 -15 -5 -51l-1 -182q5 -20 32 -36q-21 -18 -32 -27q-32 -31 -36 -49q-18 20 -38 39t-56 19q-60 0 -82 -58q-29 50 -70 72l16 18q9 14 9 50q0 21 -7 57q-6 31 -9 38q26 -10 60 -10q47 0 86 28q44 32 44 80q0 23 -15 42q-18 24 -48 26
q-15 0 -42.5 -20.5t-28.5 -38.5q-2 -21 23 -21q32 0 30 35q12 -2 21 -19q7 -12 7 -19q0 -23 -20 -37q-16 -12 -36 -12q-28 0 -44 21q-14 18 -14 41q0 35 69 83q63 46 93 46q4 0 57.5 -38t64.5 -51zM191 149v87q-32 -35 -90 -51q1 -12 0 -42q0 -37 5 -52q9 -25 40 -22
q36 3 44 29q1 6 1 51zM46 523q0 17 12 30t29 13q18 0 30 -13t12 -30q0 -18 -12 -31t-30 -13q-17 0 -29 13t-12 31zM186 523q0 17 12 30t29 13q18 0 30 -13t12 -30q0 -18 -12 -31t-30 -13q-17 0 -29 13t-12 31z" />
    <glyph glyph-name="atilde" unicode="&#xe3;" horiz-adv-x="342" 
d="M310 357q-21 -7 -28 -26q-5 -15 -5 -51l-1 -182q5 -20 32 -36q-21 -18 -32 -27q-32 -31 -36 -49q-18 20 -38 39t-56 19q-60 0 -82 -58q-29 50 -70 72l16 18q9 14 9 50q0 21 -7 57q-6 31 -9 38q26 -10 60 -10q47 0 86 28q44 32 44 80q0 23 -15 42q-18 24 -48 26
q-15 0 -42.5 -20.5t-28.5 -38.5q-2 -21 23 -21q32 0 30 35q12 -2 21 -19q7 -12 7 -19q0 -23 -20 -37q-16 -12 -36 -12q-28 0 -44 21q-14 18 -14 41q0 35 69 83q63 46 93 46q4 0 57.5 -38t64.5 -51zM191 149v87q-32 -35 -90 -51q1 -12 0 -42q0 -37 5 -52q9 -25 40 -22
q36 3 44 29q1 6 1 51zM305 557q-31 -66 -81 -66q-21 0 -60 16.5t-60 16.5q-34 0 -57 -29q-3 5 -8.5 5.5t-7.5 2.5q29 69 96 69q20 0 54.5 -15.5t52.5 -15.5q28 0 59 26z" />
    <glyph glyph-name="aring" unicode="&#xe5;" horiz-adv-x="342" 
d="M310 357q-21 -7 -28 -26q-5 -15 -5 -51l-1 -182q5 -20 32 -36q-21 -18 -32 -27q-32 -31 -36 -49q-18 20 -38 39t-56 19q-60 0 -82 -58q-29 50 -70 72l16 18q9 14 9 50q0 21 -7 57q-6 31 -9 38q26 -10 60 -10q47 0 86 28q44 32 44 80q0 23 -15 42q-18 24 -48 26
q-15 0 -42.5 -20.5t-28.5 -38.5q-2 -21 23 -21q32 0 30 35q12 -2 21 -19q7 -12 7 -19q0 -23 -20 -37q-16 -12 -36 -12q-28 0 -44 21q-14 18 -14 41q0 35 69 83q63 46 93 46q4 0 57.5 -38t64.5 -51zM191 149v87q-32 -35 -90 -51q1 -12 0 -42q0 -37 5 -52q9 -25 40 -22
q36 3 44 29q1 6 1 51zM164 610q27 0 46 -18.5t19 -45.5t-19 -45.5t-46 -18.5q-28 0 -47 18.5t-19 45.5t19 45.5t47 18.5zM164 584q-17 0 -28.5 -11t-11.5 -27t11.5 -27t28.5 -11q16 0 27.5 11t11.5 27t-11.5 27t-27.5 11z" />
    <glyph glyph-name="ccedilla" unicode="&#xe7;" horiz-adv-x="287" 
d="M113 -48h15q59 0 59 -58q0 -31 -21 -54q-22 -26 -58 -26q-26 0 -55 15l11 23q17 -10 32 -10q20 0 34 17q12 14 12 33q0 34 -33 34q-5 0 -11 -1l-28 -15q18 32 45 90q-36 21 -110 66q24 25 24 31v161q0 67 -23 110q106 11 176 88q19 -23 71 -86q-16 -11 -31.5 -22.5
t-24.5 -37.5l-66 74q-8 -3 -21 -11v-262q69 -48 76 -48q4 0 49 48l11 -12l-109 -112l-3 2q-8 -13 -18 -30z" />
    <glyph glyph-name="eacute" unicode="&#xe9;" horiz-adv-x="333" 
d="M284 91q-43 -39 -121 -106l-167 78l22 22q16 20 15 38q-1 20 0 172q0 37 -31 66q74 8 129 42l58 46l111 -176q-129 -43 -129 -92q0 -19 11 -19q6 12 13 24q11 18 30 18q23 0 23 -32q0 -20 -14.5 -30.5t-30.5 -10.5q-22 0 -37.5 16t-12.5 39q3 37 61 70l-86 115
q-4 1 -14 -5v-263l106 -45l53 49zM201 575q33 -50 31 -52t-138 -48l-9 18z" />
    <glyph glyph-name="egrave" unicode="&#xe8;" horiz-adv-x="333" 
d="M284 91q-43 -39 -121 -106l-167 78l22 22q16 20 15 38q-1 20 0 172q0 37 -31 66q74 8 129 42l58 46l111 -176q-129 -43 -129 -92q0 -19 11 -19q6 12 13 24q11 18 30 18q23 0 23 -32q0 -20 -14.5 -30.5t-30.5 -10.5q-22 0 -37.5 16t-12.5 39q3 37 61 70l-86 115
q-4 1 -14 -5v-263l106 -45l53 49zM105 575q-33 -50 -31 -52q1 -2 138 -48l9 18z" />
    <glyph glyph-name="ecircumflex" unicode="&#xea;" horiz-adv-x="333" 
d="M284 91q-43 -39 -121 -106l-167 78l22 22q16 20 15 38q-1 20 0 172q0 37 -31 66q74 8 129 42l58 46l111 -176q-129 -43 -129 -92q0 -19 11 -19q6 12 13 24q11 18 30 18q23 0 23 -32q0 -20 -14.5 -30.5t-30.5 -10.5q-22 0 -37.5 16t-12.5 39q3 37 61 70l-86 115
q-4 1 -14 -5v-263l106 -45l53 49zM151 534q-25 -17 -99 -49l-10 19l104 82l2 3l2 -1l1 1l2 -3l104 -82l-10 -19q-28 9 -58 27.5t-38 21.5z" />
    <glyph glyph-name="edieresis" unicode="&#xeb;" horiz-adv-x="333" 
d="M284 91q-43 -39 -121 -106l-167 78l22 22q16 20 15 38q-1 20 0 172q0 37 -31 66q74 8 129 42l58 46l111 -176q-129 -43 -129 -92q0 -19 11 -19q6 12 13 24q11 18 30 18q23 0 23 -32q0 -20 -14.5 -30.5t-30.5 -10.5q-22 0 -37.5 16t-12.5 39q3 37 61 70l-86 115
q-4 1 -14 -5v-263l106 -45l53 49zM36 523q0 17 12 30t29 13q18 0 30 -13t12 -30q0 -18 -12 -31t-30 -13q-17 0 -29 13t-12 31zM176 523q0 17 12 30t29 13q18 0 30 -13t12 -30q0 -18 -12 -31t-30 -13q-17 0 -29 13t-12 31z" />
    <glyph glyph-name="iacute" unicode="&#xed;" horiz-adv-x="177" 
d="M143 374q-14 -11 -26 -40q-5 -13 -9 -26v-184q4 -11 8 -23q8 -24 24 -35q-35 -22 -70 -80q-15 20 -28 34q-32 36 -49 44q36 19 34 63l-1 178q3 9 -7 30.5t-26 33.5q45 22 74 79q29 -47 76 -74zM111 575q33 -50 31 -52t-138 -48l-9 18z" />
    <glyph glyph-name="igrave" unicode="&#xec;" horiz-adv-x="177" 
d="M143 374q-14 -11 -26 -40q-5 -13 -9 -26v-184q4 -11 8 -23q8 -24 24 -35q-35 -22 -70 -80q-15 20 -28 34q-32 36 -49 44q36 19 34 63l-1 178q3 9 -7 30.5t-26 33.5q45 22 74 79q29 -47 76 -74zM25 575q-33 -50 -31 -52q1 -2 138 -48l9 18z" />
    <glyph glyph-name="icircumflex" unicode="&#xee;" horiz-adv-x="177" 
d="M143 374q-14 -11 -26 -40q-5 -13 -9 -26v-184q4 -11 8 -23q8 -24 24 -35q-35 -22 -70 -80q-15 20 -28 34q-32 36 -49 44q36 19 34 63l-1 178q3 9 -7 30.5t-26 33.5q45 22 74 79q29 -47 76 -74zM71 534q-25 -17 -99 -49l-10 19l104 82l2 3l2 -1l1 1l2 -3l104 -82l-10 -19
q-28 9 -58 27.5t-38 21.5z" />
    <glyph glyph-name="idieresis" unicode="&#xef;" horiz-adv-x="177" 
d="M143 374q-14 -11 -26 -40q-5 -13 -9 -26v-184q4 -11 8 -23q8 -24 24 -35q-35 -22 -70 -80q-15 20 -28 34q-32 36 -49 44q36 19 34 63l-1 178q3 9 -7 30.5t-26 33.5q45 22 74 79q29 -47 76 -74zM-44 523q0 17 12 30t29 13q18 0 30 -13t12 -30q0 -18 -12 -31t-30 -13
q-17 0 -29 13t-12 31zM96 523q0 17 12 30t29 13q18 0 30 -13t12 -30q0 -18 -12 -31t-30 -13q-17 0 -29 13t-12 31z" />
    <glyph glyph-name="ntilde" unicode="&#xf1;" horiz-adv-x="364" 
d="M298 300v-178q2 -14 5 -27q6 -20 22 -28q-42 -36 -64 -80q-35 52 -71 73q0 -3 13 16t11 48q1 62 0 183q-1 23 -15.5 35.5t-31.5 12.5q-16 0 -31.5 -17.5t-15.5 -28.5v-187q-3 -25 7 -40q8 -11 17 -22q-22 -8 -63 -70q-8 5 -27.5 29.5t-41.5 43.5q18 18 22 28q2 7 2 26
l-1 183q-1 30 -15 50q-10 11 -20 23q12 4 37.5 31t29.5 45q11 -22 41 -47q34 -28 59 -28q61 0 90 73q11 -20 22 -41q20 -27 60 -35q-17 -6 -31.5 -29.5t-9.5 -41.5zM305 557q-31 -66 -81 -66q-21 0 -60 16.5t-60 16.5q-34 0 -57 -29q-3 5 -8.5 5.5t-7.5 2.5q29 69 96 69
q20 0 54.5 -15.5t52.5 -15.5q28 0 59 26z" />
    <glyph glyph-name="oacute" unicode="&#xf3;" horiz-adv-x="350" 
d="M327 378q0 -5 -14.5 -22t-14.5 -29v-192q0 -24 24 -56q-35 -2 -99 -32q-69 -32 -87 -59q-2 -4 -49 28q-70 46 -77 51q23 27 26 56v175q0 29 -11 46q-9 13 -17 26q102 -4 190 86zM214 354q-11 8 -53 38q-15 -8 -35 -18v-278l56 -40q13 9 32 23v275zM211 575q33 -50 31 -52
t-138 -48l-9 18z" />
    <glyph glyph-name="ograve" unicode="&#xf2;" horiz-adv-x="350" 
d="M327 378q0 -5 -14.5 -22t-14.5 -29v-192q0 -24 24 -56q-35 -2 -99 -32q-69 -32 -87 -59q-2 -4 -49 28q-70 46 -77 51q23 27 26 56v175q0 29 -11 46q-9 13 -17 26q102 -4 190 86zM214 354q-11 8 -53 38q-15 -8 -35 -18v-278l56 -40q13 9 32 23v275zM125 575
q-33 -50 -31 -52q1 -2 138 -48l9 18z" />
    <glyph glyph-name="ocircumflex" unicode="&#xf4;" horiz-adv-x="350" 
d="M327 378q0 -5 -14.5 -22t-14.5 -29v-192q0 -24 24 -56q-35 -2 -99 -32q-69 -32 -87 -59q-2 -4 -49 28q-70 46 -77 51q23 27 26 56v175q0 29 -11 46q-9 13 -17 26q102 -4 190 86zM214 354q-11 8 -53 38q-15 -8 -35 -18v-278l56 -40q13 9 32 23v275zM171 534
q-25 -17 -99 -49l-10 19l104 82l2 3l2 -1l1 1l2 -3l104 -82l-10 -19q-28 9 -58 27.5t-38 21.5z" />
    <glyph glyph-name="odieresis" unicode="&#xf6;" horiz-adv-x="350" 
d="M327 378q0 -5 -14.5 -22t-14.5 -29v-192q0 -24 24 -56q-35 -2 -99 -32q-69 -32 -87 -59q-2 -4 -49 28q-70 46 -77 51q23 27 26 56v175q0 29 -11 46q-9 13 -17 26q102 -4 190 86zM214 354q-11 8 -53 38q-15 -8 -35 -18v-278l56 -40q13 9 32 23v275zM56 523q0 17 12 30
t29 13q18 0 30 -13t12 -30q0 -18 -12 -31t-30 -13q-17 0 -29 13t-12 31zM196 523q0 17 12 30t29 13q18 0 30 -13t12 -30q0 -18 -12 -31t-30 -13q-17 0 -29 13t-12 31z" />
    <glyph glyph-name="otilde" unicode="&#xf5;" horiz-adv-x="350" 
d="M327 378q0 -5 -14.5 -22t-14.5 -29v-192q0 -24 24 -56q-35 -2 -99 -32q-69 -32 -87 -59q-2 -4 -49 28q-70 46 -77 51q23 27 26 56v175q0 29 -11 46q-9 13 -17 26q102 -4 190 86zM214 354q-11 8 -53 38q-15 -8 -35 -18v-278l56 -40q13 9 32 23v275zM305 557
q-31 -66 -81 -66q-21 0 -60 16.5t-60 16.5q-34 0 -57 -29q-3 5 -8.5 5.5t-7.5 2.5q29 69 96 69q20 0 54.5 -15.5t52.5 -15.5q28 0 59 26z" />
    <glyph glyph-name="uacute" unicode="&#xfa;" horiz-adv-x="350" 
d="M326 76q-52 -37 -74 -84q-38 71 -92 71q-47 0 -88 -76l-32 40q-22 27 -42 38q10 10 19 20q11 14 11 42v191q6 26 -27 49q51 36 71 80q5 -14 31.5 -40.5t41.5 -34.5q-10 -8 -19 -25.5t-9 -26.5v-161q0 -67 45 -67q42 0 42 71v153q-4 13 -7 26q-5 17 -22 28q25 17 72 85
q19 -25 72 -81l-13 -18t-12 -38v-193q0 -35 32 -49zM211 575q33 -50 31 -52t-138 -48l-9 18z" />
    <glyph glyph-name="ugrave" unicode="&#xf9;" horiz-adv-x="350" 
d="M326 76q-52 -37 -74 -84q-38 71 -92 71q-47 0 -88 -76l-32 40q-22 27 -42 38q10 10 19 20q11 14 11 42v191q6 26 -27 49q51 36 71 80q5 -14 31.5 -40.5t41.5 -34.5q-10 -8 -19 -25.5t-9 -26.5v-161q0 -67 45 -67q42 0 42 71v153q-4 13 -7 26q-5 17 -22 28q25 17 72 85
q19 -25 72 -81l-13 -18t-12 -38v-193q0 -35 32 -49zM125 575q-33 -50 -31 -52q1 -2 138 -48l9 18z" />
    <glyph glyph-name="ucircumflex" unicode="&#xfb;" horiz-adv-x="350" 
d="M326 76q-52 -37 -74 -84q-38 71 -92 71q-47 0 -88 -76l-32 40q-22 27 -42 38q10 10 19 20q11 14 11 42v191q6 26 -27 49q51 36 71 80q5 -14 31.5 -40.5t41.5 -34.5q-10 -8 -19 -25.5t-9 -26.5v-161q0 -67 45 -67q42 0 42 71v153q-4 13 -7 26q-5 17 -22 28q25 17 72 85
q19 -25 72 -81l-13 -18t-12 -38v-193q0 -35 32 -49zM151 534q-25 -17 -99 -49l-10 19l104 82l2 3l2 -1l1 1l2 -3l104 -82l-10 -19q-28 9 -58 27.5t-38 21.5z" />
    <glyph glyph-name="udieresis" unicode="&#xfc;" horiz-adv-x="350" 
d="M326 76q-52 -37 -74 -84q-38 71 -92 71q-47 0 -88 -76l-32 40q-22 27 -42 38q10 10 19 20q11 14 11 42v191q6 26 -27 49q51 36 71 80q5 -14 31.5 -40.5t41.5 -34.5q-10 -8 -19 -25.5t-9 -26.5v-161q0 -67 45 -67q42 0 42 71v153q-4 13 -7 26q-5 17 -22 28q25 17 72 85
q19 -25 72 -81l-13 -18t-12 -38v-193q0 -35 32 -49zM56 523q0 17 12 30t29 13q18 0 30 -13t12 -30q0 -18 -12 -31t-30 -13q-17 0 -29 13t-12 31zM196 523q0 17 12 30t29 13q18 0 30 -13t12 -30q0 -18 -12 -31t-30 -13q-17 0 -29 13t-12 31z" />
    <glyph glyph-name="dagger" unicode="&#x2020;" horiz-adv-x="290" 
d="M125 474q-22 -2 -42.5 -16.5t-27.5 -14.5q-44 0 -44 43q0 45 44 45q6 0 26.5 -14.5t44.5 -16.5q-1 25 -14 71t-13 65q0 18 8.5 33.5t24.5 15.5q34 0 34 -49q0 -19 -13 -64.5t-14 -71.5q25 2 44.5 16.5t25.5 14.5q45 0 45 -45q0 -43 -45 -43q-5 0 -26 14.5t-44 17.5
q2 -84 35 -140q-26 -101 -30 -340l-15 3q0 76 -9 171q-11 113 -28 166q31 55 33 139z" />
    <glyph glyph-name="degree" unicode="&#xb0;" horiz-adv-x="244" 
d="M113 492q-42 0 -71.5 28.5t-29.5 69.5q0 40 29.5 68.5t71.5 28.5t71.5 -28.5t29.5 -68.5q0 -41 -29.5 -69.5t-71.5 -28.5zM113 662q-32 0 -54 -21t-22 -51t22 -51.5t54 -21.5t54 21.5t22 51.5t-22 51t-54 21z" />
    <glyph glyph-name="cent" unicode="&#xa2;" horiz-adv-x="287" 
d="M140 151v-94h-23v102q-37 21 -112 67q24 25 24 31v161q0 67 -23 110q63 6 111 35v109h23v-94q22 16 42 38q19 -23 71 -86q-16 -11 -56 -60l-66 74q-8 -3 -21 -11v-262q63 -45 69 -45q5 0 49 51l18 -18z" />
    <glyph glyph-name="sterling" unicode="&#xa3;" horiz-adv-x="535" 
d="M283 233h-123q-9 -25 -24 -52q-21 -28 -42 -57q-27 -39 -31 -59l9 2q70 34 107 44q41 11 113 11q13 0 40 -1.5t41 -1.5q55 0 81 24.5t41 26.5q-15 -37 -55 -89q-46 -61 -65 -98q-1 -2 -28 9q-32 13 -33 14q-60 15 -136 15q-33 0 -88 -12q-59 -13 -82 -28q-4 4 -4 13
q0 46 27 97q12 22 63 98q8 23 10 44h-83v40h85q-4 45 -31 88q-24 32 -49 64q-17 23 -35 44q7 6 33 43q28 73 70 110q82 71 190 65q74 -4 127 -46q59 -46 59 -117q0 -77 -42 -130q-46 -59 -121 -59l-2 2q-63 63 -103 130q14 1 43 -9t53 -10q47 0 82 27.5t35 72.5q0 52 -40 84
q-36 29 -90 29q-153 0 -153 -196q0 -21 20.5 -73.5t20.5 -90.5q0 -14 -2 -28h112v-40z" />
    <glyph glyph-name="section" unicode="&#xa7;" horiz-adv-x="19" 
 />
    <glyph glyph-name="bullet" unicode="&#x2022;" horiz-adv-x="357" 
d="M57 310q0 46 31 78.5t74 32.5q44 0 74.5 -32.5t30.5 -78.5t-30.5 -78.5t-74.5 -32.5q-43 0 -74 32.5t-31 78.5z" />
    <glyph glyph-name="paragraph" unicode="&#xb6;" horiz-adv-x="487" 
d="M462 -65h-282v30q39 0 49 12t10 53v283l-31 -1q-85 -3 -136.5 44t-51.5 132q0 101 66 142q52 32 162 32h214v-30q-38 0 -47.5 -12.5t-9.5 -53.5v-536q0 -42 8 -52q10 -13 49 -13v-30zM352 -35v667h-63v-667h63z" />
    <glyph glyph-name="germandbls" unicode="&#xdf;" horiz-adv-x="485" 
d="M434 162q-12 -9 -22 -43v-105q0 -43 17 -60q-53 -2 -92 -18q-63 -26 -63 -81q0 -25 20 -41q17 -15 36 -15q22 0 33 12q-5 1 -14 4q-24 12 -24 41q0 20 13.5 32.5t33.5 12.5q19 0 33 -17.5t14 -34.5q0 -33 -33 -52q-25 -13 -51 -13q-82 0 -82 84q0 48 63 105q17 15 19 39
v93q0 42 -3 52q-9 23 -43 23q-10 0 -42 -15l-6 13q7 3 21 12q26 17 68 59l6 90l-27 27l-139 -2v-396q0 -15 28 -53q-44 -7 -63 -51q-4 -8 -21 -80q-10 -42 -32 -44v626q-34 4 -84 0q-2 2 0 71h87q4 103 -26 154q46 1 107 35.5t82 72.5q0 -2 79 -85q0 -3 -27 -27
q-37 -33 -44 -40q-23 23 -60 65l-24 -15v-160l129 1l46 16l85 -83q-10 -11 -22 -34q0 2 0 -56q0 -22 14 -36q-27 -6 -54 -13q-22 -6 -51 -29q8 -8 57 -24q42 -14 58 -17zM82 -260z" />
    <glyph glyph-name="registered" unicode="&#xae;" horiz-adv-x="376" 
d="M185 720q60 0 102.5 -43.5t42.5 -103.5q0 -61 -43 -104t-104 -43t-104 43t-43 104q0 62 43.5 104.5t105.5 42.5zM182 699q-51 0 -86 -37t-35 -88q0 -52 35 -88.5t87 -36.5t87 36.5t35 88.5t-35.5 88.5t-87.5 36.5zM166 568v-41q0 -9 1 -15q7 -3 24 -3v-14h-89v14
q14 0 21 3q2 6 2 15v92q0 8 -2 15q-6 2 -21 2v15h95q58 0 58 -40q0 -31 -38 -39q21 -8 30 -57q2 -2 5 -3q8 0 8 20h15v-5q0 -35 -38 -35q-26 0 -34 22q-2 5 -7 45q-4 9 -30 9zM166 583h11q34 0 34 27q0 26 -25 26h-9q-11 0 -11 -12v-41z" />
    <glyph glyph-name="copyright" unicode="&#xa9;" horiz-adv-x="793" 
d="M377 721q151 0 257.5 -108.5t106.5 -259.5q0 -153 -107.5 -260.5t-260.5 -107.5q-152 0 -260 107.5t-108 259.5q0 156 108 262.5t264 106.5zM369 669q-127 0 -214 -94t-87 -222q0 -129 88.5 -222.5t216.5 -93.5t216.5 93.5t88.5 222.5q0 132 -88.5 224t-220.5 92z
M531 554l6 -160l-36 -4q-34 129 -118 129q-95 0 -95 -163q0 -166 102 -166q93 0 114 116l41 -10q-30 -148 -173 -148q-89 0 -144 55t-55 144q0 91 57.5 150t147.5 59q52 0 97 -27l28 25h28z" />
    <glyph glyph-name="trademark" unicode="&#x2122;" horiz-adv-x="665" 
d="M298 444q25 1 33 18q2 5 2 38v126q0 25 -1 29q-13 4 -31 5v13h105l52 -145l50 145h107v-13q-19 0 -32 -5q-3 -14 -3 -29v-148q0 -15 3 -29q13 -5 32 -5v-13h-126v13q19 0 32 5q3 15 3 29v177l-81 -224h-8l-81 224v-155q0 -29 5 -38q8 -16 31 -18v-13h-92v13zM235 586
q-14 70 -59 70l-10 -5l-1 -11v-162q0 -15 3 -29q13 -5 35 -5v-13h-133v13q23 0 36 5q3 15 3 29v163l-3 12l-9 3q-45 0 -59 -70h-13l5 87q18 -3 213 0l6 -87h-14z" />
    <glyph glyph-name="acute" unicode="&#xb4;" horiz-adv-x="214" 
d="M141 569q27 -42 26 -44q-2 -2 -115 -40l-8 15z" />
    <glyph glyph-name="dieresis" unicode="&#xa8;" horiz-adv-x="262" 
d="M6 523q0 17 12 30t29 13q18 0 30 -13t12 -30q0 -18 -12 -31t-30 -13q-17 0 -29 13t-12 31zM146 523q0 17 12 30t29 13q18 0 30 -13t12 -30q0 -18 -12 -31t-30 -13q-17 0 -29 13t-12 31z" />
    <glyph glyph-name="AE" unicode="&#xc6;" horiz-adv-x="1129" 
d="M470 320v108q0 106 -5 131q-16 77 -83 77q-83 0 -129 -123q-33 -87 -38 -195zM1081 859q0 -9 -22 -68q-25 -68 -31 -95q-24 -102 -25 -212l-1 -242q1 -53 4 -160q1 -53 12 -100q6 -28 31 -75q23 -41 23 -59q0 -29 -25 -29q-42 0 -62 119q-11 84 -21 167
q-65 -84 -146 -105l-58 -4l-130 8q-87 4 -118 4q-37 0 -98 -6q-79 -8 -98 -9q-13 -1 -25 24q-8 17 -15 35q18 -6 36.5 -12.5t37.5 -6.5q120 0 120 171q0 49 -2 61q-20 0 -85 -1q-55 -1 -86 -1q-47 0 -85 3v-129q0 -24 3.5 -68.5t3.5 -67.5q0 -75 -40 -137q-45 -71 -116 -71
q-63 0 -63 43q0 16 15.5 27t31.5 11q17 0 38.5 -14t31.5 -14q26 0 43 35q13 28 13 57q0 60 -42 113q-20 24 -58 53q-3 1 -5 4q0 115 62 293q71 206 154 235h-200q-28 0 -55 12q-33 15 -33 39q0 8 10 16.5t18 8.5q20 0 54 -18t52 -18h470q25 0 76 9.5t76 9.5q138 0 216 -129
q12 54 22 152q9 91 17 120q14 48 46 48q28 0 28 -27zM959 390q0 89 -45 167q-55 95 -148 102q-7 -11 -30 -13t-46 -2q-92 -56 -101 -264h367q0 1 1.5 4t1.5 6zM960 310h-372v-52q12 -90 53 -152q50 -75 124 -74q132 3 176 141q19 57 19 137z" />
    <glyph glyph-name="Oslash" unicode="&#xd8;" horiz-adv-x="698" 
d="M652 335q0 -2 -12 -32q-12 -33 -16 -47q-32 -119 -118.5 -196t-185.5 -77q-124 0 -207 94l-74 -84l-26 23l78 88q-44 61 -66 147l-15 41q-12 36 -12 43q0 6 12 34q17 37 23 54q38 109 102 176q80 86 187 86q113 0 197 -91l86 99l26 -23l-89 -103q48 -63 77 -153
q10 -33 23 -58q10 -18 10 -21zM475 544q-38 104 -154 104q-113 0 -150 -110q-21 -61 -21 -205q0 -117 5 -155zM497 326q0 127 -11 178l-322 -369q33 -116 156 -116q120 0 157 108q20 58 20 199z" />
    <glyph glyph-name="plusminus" unicode="&#xb1;" 
 />
    <glyph glyph-name="yen" unicode="&#xa5;" horiz-adv-x="912" 
d="M603 144h-133q0 -56 36 -88q23 -20 104 -29q64 -7 64 -42q0 -19 -24 -22q-63 33 -100 42q-85 6 -151 6q-84 0 -136 -11q-47 -21 -92 -36q-26 -4 -26 29q0 21 51 36l102 24q15 4 31 28q18 28 21 63h-124v38h125l-1 62h-124v38h124v75l-41 61q-52 84 -77 120
q-63 90 -95 101q-13 4 -51 8q-90 7 -90 43q0 30 32 30q17 0 25.5 -10.5t16.5 -20.5q4 -4 30 -9.5t34 -5.5h569q47 0 67 8q5 2 19 18q11 12 28 12q29 0 29 -24q0 -25 -36 -37q-25 -8 -58 -8h-19q-18 3 -38.5 -10.5t-20.5 -35.5q0 -12 3 -36.5t3 -37.5q0 -100 -97 -141
l-114 -34q1 -32 1 -66h133v-38h-133v-62h133v-38zM579 495q0 43 -17 84q-21 51 -55 60q-21 6 -56 6q-98 0 -98 -55q0 -14 6 -31q10 -22 104 -177q11 2 27 5q89 22 89 108z" />
    <glyph glyph-name="mu" unicode="&#xb5;" horiz-adv-x="752" 
d="M62 208l139 81v291q0 35 -51 48q-47 7 -96 14.5t-49 29.5q0 24 32 24q2 0 23 -12.5t28 -14.5q21 -6 61 -6h214q75 0 107 10q6 1 28 13q18 10 29 10q6 0 16 -7t10 -13q0 -21 -60 -30q-96 -14 -112 -19q-61 -19 -61 -65q0 -29 -1 -205l158 93v-49l-157 -91q-1 -154 -1 -165
q2 -54 7 -69q12 -35 53 -35q39 0 85 47.5t68 47.5q36 0 68 -39q39 -48 49 -53l-41 203q-5 25 -5 61q0 63 15 125q22 88 63 88q16 0 16 -23q0 -20 -26 -73t-26 -102q0 -124 46 -324q-2 -2 -5 -2q-40 0 -122 5.5t-122 5.5h-220q-77 0 -119 -16q-8 -3 -40 -23q-25 -16 -41 -16
q-5 0 -11 8t-6 14q0 30 53 45q36 9 81 9q28 0 39 9t17 38q6 26 6 36v129l-140 -82z" />
    <glyph glyph-name="mu" unicode="&#x3bc;" horiz-adv-x="752" 
d="M62 208l139 81v291q0 35 -51 48q-47 7 -96 14.5t-49 29.5q0 24 32 24q2 0 23 -12.5t28 -14.5q21 -6 61 -6h214q75 0 107 10q6 1 28 13q18 10 29 10q6 0 16 -7t10 -13q0 -21 -60 -30q-96 -14 -112 -19q-61 -19 -61 -65q0 -29 -1 -205l158 93v-49l-157 -91q-1 -154 -1 -165
q2 -54 7 -69q12 -35 53 -35q39 0 85 47.5t68 47.5q36 0 68 -39q39 -48 49 -53l-41 203q-5 25 -5 61q0 63 15 125q22 88 63 88q16 0 16 -23q0 -20 -26 -73t-26 -102q0 -124 46 -324q-2 -2 -5 -2q-40 0 -122 5.5t-122 5.5h-220q-77 0 -119 -16q-8 -3 -40 -23q-25 -16 -41 -16
q-5 0 -11 8t-6 14q0 30 53 45q36 9 81 9q28 0 39 9t17 38q6 26 6 36v129l-140 -82z" />
    <glyph glyph-name="ordfeminine" unicode="&#xaa;" horiz-adv-x="673" 
d="M619 406q0 -8 -26.5 -60.5t-26.5 -105.5q0 -49 15 -128q17 -93 20 -125h-17q-28 0 -87 10.5t-89 10.5h-191q-39 0 -109 -12q-73 -13 -106 -14l-3 6q60 71 119 143q70 88 103 154q-11 2 -50 2q-28 0 -46 -22q-24 -28 -31 -31l-6 7q0 58 63 99q56 35 115 34q0 3 62.5 116
t62.5 134l-46 -1q-51 -8 -104 -53q-50 -41 -71 -41q-28 0 -56 28l-46 46l-1 -17q-2 -21 4 -59q7 -41 7 -58q0 -192 -56 -192q-23 0 -23 25q0 9 23 41t23 75q0 55 -10 131q-17 122 -18 129q56 -12 174 -12q248 0 312 4q8 1 37 6q26 4 37 4l3 -6q-124 -146 -226 -310
q23 -6 62 -6q48 0 71 51q9 0 8 0q1 -1 4 -11q-41 -136 -189 -124q-34 -56 -67 -111q-47 -84 -47 -117q4 -4 35 -4q61 0 102 23q18 10 52 43q24 23 44 23q26 0 61 -35q40 -42 59 -50q-1 29 -12 97q-11 62 -11 97q0 54 15 112q21 81 58 81q20 0 20 -27zM299 760q24 17 98 49
l10 -19l-104 -82l-2 -3l-1 1l-2 -1l-2 3l-104 82l10 19q28 -9 58 -27.5t39 -21.5z" />
    <glyph glyph-name="ordmasculine" unicode="&#xba;" horiz-adv-x="229" 
d="M204 162q-12 -9 -22 -43v-105q0 -43 17 -60q-53 -2 -92 -18q-63 -26 -63 -81q0 -25 20 -41q17 -15 36 -15q22 0 33 12q-5 1 -14 4q-24 12 -24 41q0 20 13.5 32.5t33.5 12.5q19 0 33 -17.5t14 -34.5q0 -33 -33 -52q-25 -13 -51 -13q-82 0 -82 84q0 48 63 105q17 15 19 39
v93q0 42 -3 52q-9 23 -43 23q-10 0 -42 -15l-6 13q7 3 21 12q26 17 68 59l-1 108q-10 12 -29 31q-8 3 -54 -30l-10 12l108 80l88 -59q-10 -11 -22 -34q0 2 0 -76q0 -22 14 -36q-27 -6 -54 -13q-22 -6 -51 -29q8 -8 57 -24q42 -14 58 -17zM119 540q24 17 98 49l10 -19
l-104 -82l-2 -3l-1 1l-2 -1l-2 3l-104 82l10 19q28 -9 58 -27.5t39 -21.5z" />
    <glyph glyph-name="ae" unicode="&#xe6;" horiz-adv-x="480" 
d="M166 73q22 22 26 39q-1 -10 -1 37v87q-32 -35 -90 -51q1 -12 0 -42q0 -37 5 -52q9 -25 40 -22q12 1 20 4zM444 91q-43 -36 -122 -99l-62 32q-42 21 -65 21q-108 0 -131 -59q-29 50 -70 72l16 18q9 14 9 50q0 21 -7 57q-6 31 -9 38q26 -10 60 -10q47 0 86 28q44 32 44 80
q0 23 -15 42q-18 24 -48 26q-15 0 -42.5 -20.5t-28.5 -38.5q-2 -21 23 -21q32 0 30 35q12 -2 21 -19q7 -12 7 -19q0 -23 -20 -37q-16 -12 -36 -12q-28 0 -44 21q-14 18 -14 41q0 35 69 83q63 46 93 46q11 0 73 -61q33 13 57 35q16 15 31 29l101 -176q-129 -43 -129 -92
q0 -19 11 -19q6 12 13 24q11 18 30 18q23 0 23 -32q0 -20 -13.5 -31t-27.5 -11q-23 0 -40.5 16.5t-15.5 39.5q3 37 63 70q-24 40 -76 115q-4 1 -14 -5l1 -262l96 -50l72 63z" />
    <glyph glyph-name="oslash" unicode="&#xf8;" horiz-adv-x="357" 
d="M214 280l-88 -126v-58l56 -40q13 9 32 23v201zM126 190l88 125v39q-11 8 -53 38q-15 -8 -35 -18v-184zM0 9l31 45q-12 8 -21 13q23 27 26 56v175q0 29 -11 46q-9 13 -17 26q102 -4 190 86l80 -48l35 50l16 -12l-34 -48q20 -12 32 -20q0 -5 -14.5 -22t-14.5 -29v-192
q0 -24 24 -56q-35 -2 -99 -32q-69 -32 -87 -59q-2 -4 -88 54l-33 -47z" />
    <glyph glyph-name="questiondown" unicode="&#xbf;" horiz-adv-x="538" 
d="M284 228q-9 -9 -34 -30q-91 -72 -98 -178q-2 -29 -2 -48q0 -136 116 -136q64 0 115.5 35t51.5 87q0 46 -36 72q-32 25 -79 25q-36 0 -55 -10q-28 -15 -32 -16q29 73 87 127q1 1 8 2q75 0 117 -47t42 -121t-68.5 -128.5t-151.5 -52.5q-66 2 -132 41q-70 42 -97 104
q-9 28 -38 63q10 13 18 24q19 26 22 43q43 93 154 126q52 16 52 53q0 30 -40 47q24 32 56 32q24 0 42 -17t18 -40q0 -32 -36 -57zM193 441q25 17 65 73q21 -30 24 -34q20 -26 43 -39q-35 -14 -67 -68q-16 29 -65 68z" />
    <glyph glyph-name="exclamdown" unicode="&#xa1;" horiz-adv-x="196" 
d="M148 436q-31 -21 -65 -69q-18 26 -23 32q-19 23 -42 37q43 32 65 68q16 -29 65 -68zM-2 -200q14 9 23 20q23 27 24 60v178l28 252h24l29 -252v-107q0 -42 36 -85q-19 0 -80 -37.5t-84 -38.5v10z" />
    <glyph glyph-name="logicalnot" unicode="&#xac;" 
 />
    <glyph glyph-name="florin" unicode="&#x192;" 
 />
    <glyph glyph-name="guillemotleft" unicode="&#xab;" horiz-adv-x="264" 
d="M202 386l15 -16q-4 -13 -49 -129q19 -45 52 -130l-18 -12q-45 70 -91 141q5 6 91 146zM102 386l15 -16q-4 -13 -49 -129q19 -45 52 -130l-18 -12q-45 70 -91 141q5 6 91 146z" />
    <glyph glyph-name="guillemotright" unicode="&#xbb;" horiz-adv-x="264" 
d="M29 99l-15 15q5 13 49 130q-19 44 -52 130l18 12q45 -71 91 -141q-4 -6 -91 -146zM129 99l-15 15q5 13 49 130q-19 44 -52 130l18 12q45 -71 91 -141q-4 -6 -91 -146z" />
    <glyph glyph-name="ellipsis" unicode="&#x2026;" horiz-adv-x="861" 
d="M428 -13q-22 36 -72 77q32 25 41 35q14 16 30 48q27 -38 33 -44q19 -23 42 -41q-54 -29 -74 -75zM728 -13q-22 36 -72 77q32 25 41 35q14 16 30 48q27 -38 33 -44q19 -23 42 -41q-54 -29 -74 -75zM128 -13q-22 36 -72 77q32 25 41 35q14 16 30 48q27 -38 33 -44
q19 -23 42 -41q-54 -29 -74 -75z" />
    <glyph glyph-name="nonbreakingspace" unicode="&#xa0;" horiz-adv-x="195" 
 />
    <glyph glyph-name="Agrave" unicode="&#xc0;" horiz-adv-x="821" 
d="M781 -25q0 -27 -34 -27q-22 0 -36 20q-17 23 -39 29q-40 11 -150 11q-37 0 -98 -6q-79 -8 -98 -9q-13 -1 -25 24q-8 17 -15 35q18 -6 36.5 -12.5t37.5 -6.5q120 0 120 171q0 49 -2 61q-20 0 -85 -1q-55 -1 -86 -1q-47 0 -85 3v-129q0 -24 3.5 -68.5t3.5 -67.5
q0 -75 -40 -137q-45 -71 -116 -71q-63 0 -63 43q0 16 15.5 27t31.5 11q17 0 38.5 -14t31.5 -14q26 0 43 35q13 28 13 57q0 60 -42 113q-20 24 -58 53q-3 1 -5 4q0 115 62 293q71 206 154 235h-210q-28 0 -55 12q-33 15 -33 39q0 8 10 16.5t18 8.5q20 0 54 -18t52 -18h480
q40 0 82 13q52 16 53 16q13 0 24.5 -7.5t11.5 -18.5q0 -33 -48 -35q-69 -2 -88 -12q-47 -24 -47 -111v-377q0 -80 47 -105q10 -5 88 -17q48 -7 48 -47zM480 320v108q0 106 -5 131q-16 77 -83 77q-83 0 -129 -123q-33 -87 -38 -195zM479 734l15 24l-167 96l-37 -70z" />
    <glyph glyph-name="Atilde" unicode="&#xc3;" horiz-adv-x="821" 
d="M781 -25q0 -27 -34 -27q-22 0 -36 20q-17 23 -39 29q-40 11 -150 11q-37 0 -98 -6q-79 -8 -98 -9q-13 -1 -25 24q-8 17 -15 35q18 -6 36.5 -12.5t37.5 -6.5q120 0 120 171q0 49 -2 61q-20 0 -85 -1q-55 -1 -86 -1q-47 0 -85 3v-129q0 -24 3.5 -68.5t3.5 -67.5
q0 -75 -40 -137q-45 -71 -116 -71q-63 0 -63 43q0 16 15.5 27t31.5 11q17 0 38.5 -14t31.5 -14q26 0 43 35q13 28 13 57q0 60 -42 113q-20 24 -58 53q-3 1 -5 4q0 115 62 293q71 206 154 235h-210q-28 0 -55 12q-33 15 -33 39q0 8 10 16.5t18 8.5q20 0 54 -18t52 -18h480
q40 0 82 13q52 16 53 16q13 0 24.5 -7.5t11.5 -18.5q0 -33 -48 -35q-69 -2 -88 -12q-47 -24 -47 -111v-377q0 -80 47 -105q10 -5 88 -17q48 -7 48 -47zM480 320v108q0 106 -5 131q-16 77 -83 77q-83 0 -129 -123q-33 -87 -38 -195zM535 790q-31 -66 -81 -66q-21 0 -60 16.5
t-60 16.5q-34 0 -57 -29q-3 5 -8.5 5.5t-7.5 2.5q29 69 96 69q20 0 54.5 -15.5t52.5 -15.5q28 0 59 26z" />
    <glyph glyph-name="Otilde" unicode="&#xd5;" horiz-adv-x="698" 
d="M651 337q0 -2 -11 -32q-12 -35 -16 -49q-32 -119 -118.5 -196t-185.5 -77q-106 0 -183.5 69.5t-111.5 198.5l-15 41q-12 36 -12 43q0 6 12 34q17 37 23 54q38 109 102 176q80 86 187 86q101 0 181 -74q76 -72 116 -197q10 -33 23 -56q9 -18 9 -21zM497 326q0 151 -19 210
q-37 112 -157 112q-113 0 -150 -110q-21 -61 -21 -205q0 -153 16 -204q34 -110 154 -110t157 108q20 58 20 199zM445 790q-31 -66 -81 -66q-21 0 -60 16.5t-60 16.5q-34 0 -57 -29q-3 5 -8.5 5.5t-7.5 2.5q29 69 96 69q20 0 54.5 -15.5t52.5 -15.5q28 0 59 26z" />
    <glyph glyph-name="OE" unicode="&#x152;" horiz-adv-x="1166" 
d="M495 341q0 143 -19 201q-37 106 -155 106q-113 0 -150 -110q-21 -61 -21 -205q0 -153 16 -204q34 -110 154 -110q121 0 157 112q18 56 18 210zM1141 859q0 -9 -22 -68q-25 -68 -31 -95q-24 -102 -25 -212l-1 -242q3 -28 5 -124q1 -68 13 -125q6 -27 31 -80q21 -46 21 -65
q0 -29 -25 -29q-42 0 -62 119q-11 84 -21 167q-78 -70 -95 -80q-42 -26 -111 -28q-157 -4 -240 150q-46 -75 -115 -119.5t-143 -44.5q-106 0 -183.5 69.5t-111.5 198.5l-15 41q-12 36 -12 43q0 6 12 34q17 37 23 54q38 109 102 176q80 86 187 86q151 0 245 -155
q41 78 105.5 121.5t139.5 43.5q138 0 216 -129q12 54 22 152q9 91 17 120q14 48 46 48q28 0 28 -27zM810 660q-99 0 -140 -140q-17 -58 -21 -140h367q2 108 -47 188q-57 92 -159 92zM1020 310h-376q0 -97 42 -179q52 -100 139 -99q132 3 176 141q19 57 19 137z" />
    <glyph glyph-name="oe" unicode="&#x153;" horiz-adv-x="500" 
d="M213 295q0 2 1 4v55q-11 8 -53 38q-15 -8 -35 -18v-278l56 -39q13 7 31 19v219zM464 91q-43 -39 -121 -106l-120 62q-69 -32 -87 -59q-2 -4 -49 28q-70 46 -77 51q23 27 26 56v175q0 29 -11 46q-9 13 -17 26q102 -4 190 86l98 -62q27 11 47 30q13 13 26 25l111 -176
q-129 -43 -129 -92q0 -19 11 -19q6 12 13 24q11 18 30 18q23 0 23 -32q0 -20 -14.5 -30.5t-30.5 -10.5q-22 0 -37.5 16t-12.5 39q3 37 61 70l-86 115q-4 1 -14 -5v-263l106 -45l53 49z" />
    <glyph glyph-name="endash" unicode="&#x2013;" horiz-adv-x="452" 
d="M413 186h-407l21 58l3 -1l402 1z" />
    <glyph glyph-name="emdash" unicode="&#x2014;" horiz-adv-x="864" 
d="M813 186h-807l21 58l3 -1l802 1z" />
    <glyph glyph-name="quotedblleft" unicode="&#x201c;" horiz-adv-x="374" 
d="M11 546q16 6 46 45q25 33 30 49l10 46l25 -3q-4 -20 -7 -40q-5 -26 -14 -44q9 -14 19 -27q15 -19 35 -27q-44 -35 -69 -83q-15 39 -75 84zM191 546q16 6 46 45q25 33 30 49l10 46l25 -3q-4 -20 -7 -40q-5 -26 -14 -44q9 -14 19 -27q15 -19 35 -27q-44 -35 -69 -83
q-15 39 -75 84z" />
    <glyph glyph-name="quotedblright" unicode="&#x201d;" horiz-adv-x="374" 
d="M335 602q-17 -6 -46 -45q-26 -33 -31 -49q-5 -23 -9 -46l-25 3q3 20 7 40q5 26 13 44q-9 13 -18 27q-15 19 -35 27q44 35 68 83q16 -39 76 -84zM155 602q-17 -6 -46 -45q-26 -33 -31 -49q-5 -23 -9 -46l-25 3q3 20 7 40q5 26 13 44q-9 13 -18 27q-15 19 -35 27
q44 35 68 83q16 -39 76 -84z" />
    <glyph glyph-name="quoteleft" unicode="&#x2018;" horiz-adv-x="201" 
d="M11 546q32 12 55 54q15 29 18 41q5 21 10 43l28 -1q-4 -20 -7 -40q-5 -26 -14 -44q9 -14 19 -27q15 -19 35 -27q-44 -35 -69 -83q-15 39 -75 84z" />
    <glyph glyph-name="quoteright" unicode="&#x2019;" horiz-adv-x="201" 
d="M155 602q-17 -6 -46 -45q-26 -33 -31 -49q-5 -23 -9 -46l-25 3q3 20 7 40q5 26 13 44q-9 13 -18 27q-15 19 -35 27q44 35 68 83q16 -39 76 -84z" />
    <glyph glyph-name="divide" unicode="&#xf7;" 
 />
    <glyph glyph-name="ydieresis" unicode="&#xff;" horiz-adv-x="359" 
d="M332 370q-37 -28 -37 -64v-284q0 -52 28 -77l-26 1q-50 0 -89 -24q-45 -28 -45 -76q0 -22 18 -42t39 -18h4l5 5q-10 9 -20 20t-10 29q0 21 15.5 36t36.5 15q24 0 41.5 -17.5t17.5 -42.5q0 -31 -27.5 -48.5t-60.5 -17.5q-36 0 -60.5 26t-24.5 62q0 27 35.5 84.5
t35.5 122.5q0 9 1 31v31v180q0 49 -48 49q-41 0 -41 -47v-194q0 -15 25 -41q-47 -24 -67 -76q-12 8 -34 35t-36 37l14 16q13 15 13 31v192q0 24 -6.5 35t-28.5 26q39 31 45 37q11 12 33 49q41 -72 87 -72q54 0 87 68q36 -52 80 -77zM66 533q0 17 12 30t29 13q18 0 30 -13
t12 -30q0 -18 -12 -31t-30 -13q-17 0 -29 13t-12 31zM206 533q0 17 12 30t29 13q18 0 30 -13t12 -30q0 -18 -12 -31t-30 -13q-17 0 -29 13t-12 31z" />
    <glyph glyph-name="Ydieresis" unicode="&#x178;" horiz-adv-x="854" 
d="M822 678q0 -27 -36.5 -32t-71.5 -9q-38 -10 -38 -44q0 -4 11 -62q17 -91 17 -139q0 -137 -98 -233q-44 -44 -182 -127q-98 -58 -98 -103q0 -67 92 -67q28 0 52 18.5t24 45.5q0 16 -4 23q-6 12 -8 18q33 0 58.5 -24t25.5 -57q0 -53 -42 -85q-37 -28 -92 -28q-62 0 -108 35
q-50 39 -50 100q0 41 39 86t39 60q0 18 -54 185q-42 130 -67 202q-33 94 -39 109q-33 76 -65 86q-37 6 -74 13q-52 11 -52 36q0 19 25 19q9 0 30.5 -15t42.5 -15h604q32 0 57 15t40 15q9 0 15.5 -8.5t6.5 -17.5zM609 332q0 67 -28 157q-32 104 -76 132q-35 23 -93 23
q-32 0 -57 -13q-29 -16 -29 -46q0 -32 57 -255q58 -226 73 -248q68 36 110.5 105t42.5 145zM507 739q-21 0 -36 16t-15 38q0 21 15 37t36 16q22 0 37 -16t15 -37q0 -22 -15 -38t-37 -16zM307 739q-21 0 -36 16t-15 38q0 21 15 37t36 16q22 0 37 -16t15 -37q0 -22 -15 -38
t-37 -16z" />
    <glyph glyph-name="currency" unicode="&#xa4;" 
 />
    <glyph glyph-name="guilsinglleft" unicode="&#x2039;" horiz-adv-x="166" 
d="M102 386l15 -16q-4 -13 -49 -129q19 -45 52 -130l-18 -12q-45 70 -91 141q5 6 91 146z" />
    <glyph glyph-name="guilsinglright" unicode="&#x203a;" horiz-adv-x="166" 
d="M29 99l-15 15q5 13 49 130q-19 44 -52 130l18 12q45 -71 91 -141q-4 -6 -91 -146z" />
    <glyph glyph-name="daggerdbl" unicode="&#x2021;" horiz-adv-x="296" 
d="M140 196q22 2 42.5 16.5t27.5 14.5q44 0 44 -43q0 -44 -44 -44q-6 0 -26.5 14t-44.5 16q1 -25 14 -71t13 -65q0 -17 -7 -32q-10 -17 -26 -17q-34 0 -34 49q0 19 13 64.5t14 71.5q-25 -2 -44.5 -16t-25.5 -14q-42 0 -42 48q0 39 42 39q5 0 26 -14.5t44 -17.5
q-2 84 -35 140q32 55 34 139q-22 -2 -42.5 -16.5t-27.5 -14.5q-44 0 -44 43q0 45 44 45q6 0 26.5 -14.5t44.5 -16.5q-1 25 -14 71t-13 65q0 18 8.5 33.5t24.5 15.5q34 0 34 -49q0 -19 -13 -64.5t-14 -71.5q25 2 44.5 16.5t25.5 14.5q45 0 45 -45q0 -43 -45 -43
q-5 0 -26 14.5t-44 17.5q2 -84 35 -140q-32 -55 -34 -139z" />
    <glyph glyph-name="periodcentered" unicode="&#xb7;" horiz-adv-x="201" 
d="M78 217q-22 36 -72 77q32 25 41 35q14 16 30 48q27 -38 33 -44q19 -23 42 -41q-54 -29 -74 -75z" />
    <glyph glyph-name="periodcentered" unicode="&#x2219;" horiz-adv-x="201" 
d="M78 217q-22 36 -72 77q32 25 41 35q14 16 30 48q27 -38 33 -44q19 -23 42 -41q-54 -29 -74 -75z" />
    <glyph glyph-name="quotesinglbase" unicode="&#x201a;" horiz-adv-x="201" 
d="M155 52q-17 -6 -46 -45q-26 -33 -31 -49q-5 -23 -9 -46l-25 3q3 20 7 40q5 26 13 44q-9 13 -18 27q-15 19 -35 27q44 35 68 83q16 -39 76 -84z" />
    <glyph glyph-name="quotedblbase" unicode="&#x201e;" horiz-adv-x="374" 
d="M335 62q-17 -6 -46 -45q-26 -33 -31 -49q-5 -23 -9 -46l-25 3q3 20 7 40q5 26 13 44q-9 13 -18 27q-15 19 -35 27q44 35 68 83q16 -39 76 -84zM155 62q-17 -6 -46 -45q-26 -33 -31 -49q-5 -23 -9 -46l-25 3q3 20 7 40q5 26 13 44q-9 13 -18 27q-15 19 -35 27q44 35 68 83
q16 -39 76 -84z" />
    <glyph glyph-name="perthousand" unicode="&#x2030;" horiz-adv-x="28" 
 />
    <glyph glyph-name="Acircumflex" unicode="&#xc2;" horiz-adv-x="821" 
d="M781 -25q0 -27 -34 -27q-22 0 -36 20q-17 23 -39 29q-40 11 -150 11q-37 0 -98 -6q-79 -8 -98 -9q-13 -1 -25 24q-8 17 -15 35q18 -6 36.5 -12.5t37.5 -6.5q120 0 120 171q0 49 -2 61q-20 0 -85 -1q-55 -1 -86 -1q-47 0 -85 3v-129q0 -24 3.5 -68.5t3.5 -67.5
q0 -75 -40 -137q-45 -71 -116 -71q-63 0 -63 43q0 16 15.5 27t31.5 11q17 0 38.5 -14t31.5 -14q26 0 43 35q13 28 13 57q0 60 -42 113q-20 24 -58 53q-3 1 -5 4q0 115 62 293q71 206 154 235h-210q-28 0 -55 12q-33 15 -33 39q0 8 10 16.5t18 8.5q20 0 54 -18t52 -18h480
q40 0 82 13q52 16 53 16q13 0 24.5 -7.5t11.5 -18.5q0 -33 -48 -35q-69 -2 -88 -12q-47 -24 -47 -111v-377q0 -80 47 -105q10 -5 88 -17q48 -7 48 -47zM480 320v108q0 106 -5 131q-16 77 -83 77q-83 0 -129 -123q-33 -87 -38 -195zM388 833l143 -89l-9 -24l-133 47l-136 -47
l-9 24l141 91z" />
    <glyph glyph-name="Ecircumflex" unicode="&#xca;" horiz-adv-x="663" 
d="M641 859q0 -9 -22 -68q-25 -68 -31 -95q-24 -102 -25 -212l-1 -242q1 -53 4 -160q1 -53 12 -100q6 -28 31 -75q23 -41 23 -59q0 -29 -25 -29q-42 0 -62 119q-11 84 -21 167q-78 -70 -95 -80q-42 -26 -111 -28q-214 -5 -288 275q-2 8 -18.5 37t-16.5 32q0 1 14 32.5
t19 49.5q28 123 106 197.5t178 74.5q138 0 216 -129q12 54 22 152q9 91 17 120q14 48 46 48q28 0 28 -27zM519 390q0 94 -49 173q-59 97 -160 97q-99 0 -140 -140q-17 -58 -21 -140h367q0 1 1.5 4t1.5 6zM520 310h-376q0 -97 42 -179q52 -100 139 -99q132 3 176 141
q19 57 19 137zM308 833l143 -89l-9 -24l-133 47l-136 -47l-9 24l141 91z" />
    <glyph glyph-name="Aacute" unicode="&#xc1;" horiz-adv-x="821" 
d="M781 -25q0 -27 -34 -27q-22 0 -36 20q-17 23 -39 29q-40 11 -150 11q-37 0 -98 -6q-79 -8 -98 -9q-13 -1 -25 24q-8 17 -15 35q18 -6 36.5 -12.5t37.5 -6.5q120 0 120 171q0 49 -2 61q-20 0 -85 -1q-55 -1 -86 -1q-47 0 -85 3v-129q0 -24 3.5 -68.5t3.5 -67.5
q0 -75 -40 -137q-45 -71 -116 -71q-63 0 -63 43q0 16 15.5 27t31.5 11q17 0 38.5 -14t31.5 -14q26 0 43 35q13 28 13 57q0 60 -42 113q-20 24 -58 53q-3 1 -5 4q0 115 62 293q71 206 154 235h-210q-28 0 -55 12q-33 15 -33 39q0 8 10 16.5t18 8.5q20 0 54 -18t52 -18h480
q40 0 82 13q52 16 53 16q13 0 24.5 -7.5t11.5 -18.5q0 -33 -48 -35q-69 -2 -88 -12q-47 -24 -47 -111v-377q0 -80 47 -105q10 -5 88 -17q48 -7 48 -47zM480 320v108q0 106 -5 131q-16 77 -83 77q-83 0 -129 -123q-33 -87 -38 -195zM332 734l-15 24l167 96l37 -70z" />
    <glyph glyph-name="Edieresis" unicode="&#xcb;" horiz-adv-x="663" 
d="M641 859q0 -9 -22 -68q-25 -68 -31 -95q-24 -102 -25 -212l-1 -242q1 -53 4 -160q1 -53 12 -100q6 -28 31 -75q23 -41 23 -59q0 -29 -25 -29q-42 0 -62 119q-11 84 -21 167q-78 -70 -95 -80q-42 -26 -111 -28q-214 -5 -288 275q-2 8 -18.5 37t-16.5 32q0 1 14 32.5
t19 49.5q28 123 106 197.5t178 74.5q138 0 216 -129q12 54 22 152q9 91 17 120q14 48 46 48q28 0 28 -27zM519 390q0 94 -49 173q-59 97 -160 97q-99 0 -140 -140q-17 -58 -21 -140h367q0 1 1.5 4t1.5 6zM520 310h-376q0 -97 42 -179q52 -100 139 -99q132 3 176 141
q19 57 19 137zM397 739q-21 0 -36 16t-15 38q0 21 15 37t36 16q22 0 37 -16t15 -37q0 -22 -15 -38t-37 -16zM207 739q-21 0 -36 16t-15 38q0 21 15 37t36 16q22 0 37 -16t15 -37q0 -22 -15 -38t-37 -16z" />
    <glyph glyph-name="Egrave" unicode="&#xc8;" horiz-adv-x="663" 
d="M641 859q0 -9 -22 -68q-25 -68 -31 -95q-24 -102 -25 -212l-1 -242q1 -53 4 -160q1 -53 12 -100q6 -28 31 -75q23 -41 23 -59q0 -29 -25 -29q-42 0 -62 119q-11 84 -21 167q-78 -70 -95 -80q-42 -26 -111 -28q-214 -5 -288 275q-2 8 -18.5 37t-16.5 32q0 1 14 32.5
t19 49.5q28 123 106 197.5t178 74.5q138 0 216 -129q12 54 22 152q9 91 17 120q14 48 46 48q28 0 28 -27zM519 390q0 94 -49 173q-59 97 -160 97q-99 0 -140 -140q-17 -58 -21 -140h367q0 1 1.5 4t1.5 6zM520 310h-376q0 -97 42 -179q52 -100 139 -99q132 3 176 141
q19 57 19 137zM410 734l15 24l-167 96l-37 -70z" />
    <glyph glyph-name="Iacute" unicode="&#xcd;" horiz-adv-x="578" 
d="M539 673q0 -32 -53 -38l-98 -6q-49 -7 -61 -47q-4 -13 -7 -84q-4 -119 0 -346q-2 -27 10 -57q11 -26 26 -39q23 -20 104 -29q64 -7 64 -42q0 -19 -24 -22q-29 16 -91 40q-112 9 -175 9q-67 0 -108 -9q-64 -29 -95 -39q-26 -4 -26 29q0 21 51 36l102 24q17 4 33 32
q20 31 20 70l3 346q1 59 -5 77q-12 33 -55 44q-48 6 -97 12q-53 8 -53 39q0 25 28 23q37 -1 51 -21q77 -12 189 -12q120 0 183 12q17 13 64 18q20 -6 20 -20zM172 724l-15 24l167 96l37 -70z" />
    <glyph glyph-name="Icircumflex" unicode="&#xce;" horiz-adv-x="578" 
d="M539 673q0 -32 -53 -38l-98 -6q-49 -7 -61 -47q-4 -13 -7 -84q-4 -119 0 -346q-2 -27 10 -57q11 -26 26 -39q23 -20 104 -29q64 -7 64 -42q0 -19 -24 -22q-29 16 -91 40q-112 9 -175 9q-67 0 -108 -9q-64 -29 -95 -39q-26 -4 -26 29q0 21 51 36l102 24q17 4 33 32
q20 31 20 70l3 346q1 59 -5 77q-12 33 -55 44q-48 6 -97 12q-53 8 -53 39q0 25 28 23q37 -1 51 -21q77 -12 189 -12q120 0 183 12q17 13 64 18q20 -6 20 -20zM278 833l143 -89l-9 -24l-133 47l-136 -47l-9 24l141 91z" />
    <glyph glyph-name="Idieresis" unicode="&#xcf;" horiz-adv-x="578" 
d="M539 673q0 -32 -53 -38l-98 -6q-49 -7 -61 -47q-4 -13 -7 -84q-4 -119 0 -346q-2 -27 10 -57q11 -26 26 -39q23 -20 104 -29q64 -7 64 -42q0 -19 -24 -22q-29 16 -91 40q-112 9 -175 9q-67 0 -108 -9q-64 -29 -95 -39q-26 -4 -26 29q0 21 51 36l102 24q17 4 33 32
q20 31 20 70l3 346q1 59 -5 77q-12 33 -55 44q-48 6 -97 12q-53 8 -53 39q0 25 28 23q37 -1 51 -21q77 -12 189 -12q120 0 183 12q17 13 64 18q20 -6 20 -20zM357 729q-21 0 -36 16t-15 38q0 21 15 37t36 16q22 0 37 -16t15 -37q0 -22 -15 -38t-37 -16zM167 729
q-21 0 -36 16t-15 38q0 21 15 37t36 16q22 0 37 -16t15 -37q0 -22 -15 -38t-37 -16z" />
    <glyph glyph-name="Igrave" unicode="&#xcc;" horiz-adv-x="578" 
d="M539 673q0 -32 -53 -38l-98 -6q-49 -7 -61 -47q-4 -13 -7 -84q-4 -119 0 -346q-2 -27 10 -57q11 -26 26 -39q23 -20 104 -29q64 -7 64 -42q0 -19 -24 -22q-29 16 -91 40q-112 9 -175 9q-67 0 -108 -9q-64 -29 -95 -39q-26 -4 -26 29q0 21 51 36l102 24q17 4 33 32
q20 31 20 70l3 346q1 59 -5 77q-12 33 -55 44q-48 6 -97 12q-53 8 -53 39q0 25 28 23q37 -1 51 -21q77 -12 189 -12q120 0 183 12q17 13 64 18q20 -6 20 -20zM369 734l14 24l-167 96l-37 -70z" />
    <glyph glyph-name="Oacute" unicode="&#xd3;" horiz-adv-x="698" 
d="M651 337q0 -2 -11 -32q-12 -35 -16 -49q-32 -119 -118.5 -196t-185.5 -77q-106 0 -183.5 69.5t-111.5 198.5l-15 41q-12 36 -12 43q0 6 12 34q17 37 23 54q38 109 102 176q80 86 187 86q101 0 181 -74q76 -72 116 -197q10 -33 23 -56q9 -18 9 -21zM497 326q0 151 -19 210
q-37 112 -157 112q-113 0 -150 -110q-21 -61 -21 -205q0 -153 16 -204q34 -110 154 -110t157 108q20 58 20 199zM232 734l-15 24l167 96l37 -70z" />
    <glyph glyph-name="Ocircumflex" unicode="&#xd4;" horiz-adv-x="698" 
d="M651 337q0 -2 -11 -32q-12 -35 -16 -49q-32 -119 -118.5 -196t-185.5 -77q-106 0 -183.5 69.5t-111.5 198.5l-15 41q-12 36 -12 43q0 6 12 34q17 37 23 54q38 109 102 176q80 86 187 86q101 0 181 -74q76 -72 116 -197q10 -33 23 -56q9 -18 9 -21zM497 326q0 151 -19 210
q-37 112 -157 112q-113 0 -150 -110q-21 -61 -21 -205q0 -153 16 -204q34 -110 154 -110t157 108q20 58 20 199zM318 833l143 -89l-9 -24l-133 47l-136 -47l-9 24l141 91z" />
    <glyph glyph-name="Ograve" unicode="&#xd2;" horiz-adv-x="698" 
d="M651 337q0 -2 -11 -32q-12 -35 -16 -49q-32 -119 -118.5 -196t-185.5 -77q-106 0 -183.5 69.5t-111.5 198.5l-15 41q-12 36 -12 43q0 6 12 34q17 37 23 54q38 109 102 176q80 86 187 86q101 0 181 -74q76 -72 116 -197q10 -33 23 -56q9 -18 9 -21zM497 326q0 151 -19 210
q-37 112 -157 112q-113 0 -150 -110q-21 -61 -21 -205q0 -153 16 -204q34 -110 154 -110t157 108q20 58 20 199zM419 734l15 24l-167 96l-37 -70z" />
    <glyph glyph-name="Uacute" unicode="&#xda;" horiz-adv-x="839" 
d="M787 688q0 -9 -10 -22.5t-20 -13.5q-182 -7 -174 -105l-1 -367q0 -64 6 -93q17 -69 70 -69q40 0 60 81q-3 54 -38 54q-2 0 -17.5 -7.5t-22.5 -7.5q-11 0 -9 15q7 40 28 50q9 5 43 5q41 0 64 -33q19 -27 19 -66q0 -48 -43.5 -86t-88.5 -38q-48 0 -81 34q-26 27 -57 95
q-1 0 -5 -4q-64 -120 -189 -120q-111 0 -184 76q-56 59 -98 175q-3 9 -17 37q-12 25 -12 28q0 2 17.5 28.5t20.5 34.5q54 115 81 153q53 77 134 110h-160q-30 -2 -63 9q-42 15 -42 38q0 20 4 27q9 14 41 14q12 0 37 -21.5t49 -21.5q9 0 179 -2q161 -2 252 -1q132 1 147 8
q12 11 31 27q9 6 26 6q23 0 23 -27zM469 542q3 43 -20.5 68.5t-68.5 25.5q-109 0 -170 -112q-49 -91 -49 -210q0 -90 31 -170q43 -110 126 -110q145 0 150 145q-2 130 1 363zM282 724l-15 24l167 96l37 -70z" />
    <glyph glyph-name="Ucircumflex" unicode="&#xdb;" horiz-adv-x="839" 
d="M787 688q0 -9 -10 -22.5t-20 -13.5q-182 -7 -174 -105l-1 -367q0 -64 6 -93q17 -69 70 -69q40 0 60 81q-3 54 -38 54q-2 0 -17.5 -7.5t-22.5 -7.5q-11 0 -9 15q7 40 28 50q9 5 43 5q41 0 64 -33q19 -27 19 -66q0 -48 -43.5 -86t-88.5 -38q-48 0 -81 34q-26 27 -57 95
q-1 0 -5 -4q-64 -120 -189 -120q-111 0 -184 76q-56 59 -98 175q-3 9 -17 37q-12 25 -12 28q0 2 17.5 28.5t20.5 34.5q54 115 81 153q53 77 134 110h-160q-30 -2 -63 9q-42 15 -42 38q0 20 4 27q9 14 41 14q12 0 37 -21.5t49 -21.5q9 0 179 -2q161 -2 252 -1q132 1 147 8
q12 11 31 27q9 6 26 6q23 0 23 -27zM469 542q3 43 -20.5 68.5t-68.5 25.5q-109 0 -170 -112q-49 -91 -49 -210q0 -90 31 -170q43 -110 126 -110q145 0 150 145q-2 130 1 363zM378 833l143 -89l-9 -24l-133 47l-136 -47l-9 24l141 91z" />
    <glyph glyph-name="Ugrave" unicode="&#xd9;" horiz-adv-x="839" 
d="M787 688q0 -9 -10 -22.5t-20 -13.5q-182 -7 -174 -105l-1 -367q0 -64 6 -93q17 -69 70 -69q40 0 60 81q-3 54 -38 54q-2 0 -17.5 -7.5t-22.5 -7.5q-11 0 -9 15q7 40 28 50q9 5 43 5q41 0 64 -33q19 -27 19 -66q0 -48 -43.5 -86t-88.5 -38q-48 0 -81 34q-26 27 -57 95
q-1 0 -5 -4q-64 -120 -189 -120q-111 0 -184 76q-56 59 -98 175q-3 9 -17 37q-12 25 -12 28q0 2 17.5 28.5t20.5 34.5q54 115 81 153q53 77 134 110h-160q-30 -2 -63 9q-42 15 -42 38q0 20 4 27q9 14 41 14q12 0 37 -21.5t49 -21.5q9 0 179 -2q161 -2 252 -1q132 1 147 8
q12 11 31 27q9 6 26 6q23 0 23 -27zM469 542q3 43 -20.5 68.5t-68.5 25.5q-109 0 -170 -112q-49 -91 -49 -210q0 -90 31 -170q43 -110 126 -110q145 0 150 145q-2 130 1 363zM444 714l15 24l-168 96l-37 -70z" />
    <glyph glyph-name="circumflex" unicode="&#x2c6;" horiz-adv-x="287" 
d="M131 534q-25 -17 -99 -49l-10 19l104 82l2 3l2 -1l1 1l2 -3l104 -82l-10 -19q-28 9 -58 27.5t-38 21.5z" />
    <glyph glyph-name="tilde" unicode="&#x2dc;" horiz-adv-x="342" 
d="M305 557q-31 -66 -81 -66q-21 0 -60 16.5t-60 16.5q-34 0 -57 -29q-3 5 -8.5 5.5t-7.5 2.5q29 69 96 69q20 0 54.5 -15.5t52.5 -15.5q28 0 59 26z" />
    <glyph glyph-name="macron" unicode="&#xaf;" horiz-adv-x="279" 
d="M28 535h208v-46h-208v46z" />
    <glyph glyph-name="macron" unicode="&#x2c9;" horiz-adv-x="279" 
d="M28 535h208v-46h-208v46z" />
    <glyph glyph-name="cedilla" unicode="&#xb8;" horiz-adv-x="287" 
d="M113 -48h15q59 0 59 -58q0 -31 -21 -54q-22 -26 -58 -26q-26 0 -55 15l11 23q17 -10 32 -10q20 0 34 17q12 14 12 33q0 34 -33 34q-5 0 -11 -1l-28 -15q21 37 48 99v-2q5 4 10 2l9 3q7 -2 7 -4q-13 -21 -28 -49z" />
    <glyph glyph-name="Scaron" unicode="&#x160;" 
 />
    <glyph glyph-name="scaron" unicode="&#x161;" 
 />
    <glyph glyph-name="brokenbar" unicode="&#xa6;" 
 />
    <glyph glyph-name="Eth" unicode="&#xd0;" 
 />
    <glyph glyph-name="eth" unicode="&#xf0;" 
 />
    <glyph glyph-name="Yacute" unicode="&#xdd;" 
 />
    <glyph glyph-name="yacute" unicode="&#xfd;" 
 />
    <glyph glyph-name="Thorn" unicode="&#xde;" 
 />
    <glyph glyph-name="thorn" unicode="&#xfe;" 
 />
    <glyph glyph-name="minus" unicode="&#xad;" 
 />
    <glyph glyph-name="minus" unicode="&#x2212;" 
 />
    <glyph glyph-name="multiply" unicode="&#xd7;" 
 />
    <glyph glyph-name="onesuperior" unicode="&#xb9;" 
 />
    <glyph glyph-name="twosuperior" unicode="&#xb2;" 
 />
    <glyph glyph-name="threesuperior" unicode="&#xb3;" 
 />
    <glyph glyph-name="onehalf" unicode="&#xbd;" 
 />
    <glyph glyph-name="onequarter" unicode="&#xbc;" 
 />
    <glyph glyph-name="threequarters" unicode="&#xbe;" 
 />
    <glyph glyph-name="Lslash" unicode="&#x141;" 
 />
    <glyph glyph-name="lslash" unicode="&#x142;" 
 />
    <glyph glyph-name="HT" 
 />
    <glyph glyph-name="LF" 
 />
    <glyph glyph-name="nonmarkingreturn" 
 />
    <glyph glyph-name="Zcaron" unicode="&#x17d;" 
 />
    <glyph glyph-name="zcaron" unicode="&#x17e;" 
 />
    <glyph glyph-name="DLE" 
 />
    <glyph glyph-name="DC1" 
 />
    <glyph glyph-name="DC2" 
 />
    <glyph glyph-name="DC3" 
 />
    <glyph glyph-name="DC4" 
 />
    <glyph glyph-name="RS" 
 />
    <glyph glyph-name="US" 
 />
    <glyph glyph-name="notequal" unicode="&#x2260;" horiz-adv-x="19" 
 />
    <glyph glyph-name="infinity" unicode="&#x221e;" 
 />
    <glyph glyph-name="lessequal" unicode="&#x2264;" 
 />
    <glyph glyph-name="greaterequal" unicode="&#x2265;" 
 />
    <glyph glyph-name="partialdiff" unicode="&#x2202;" horiz-adv-x="201" 
d="M173 681q-13 -12 -22 -26q-22 -32 -22 -65q-2 -114 -2 -462q0 -35 31 -59l-69 -78q-79 81 -74 83q14 7 23 28q8 16 8 25v403q0 42 -37 85q20 -1 80.5 36.5t83.5 39.5v-10zM0 239l183 125v-33l-183 -125v33z" />
    <glyph glyph-name="summation" unicode="&#x2211;" horiz-adv-x="624" 
d="M560 180q0 -99 -80 -151q-68 -44 -172 -44q-56 0 -117 29t-101 71l-4 -10q-19 -74 -65 -161q-52 -96 -102 -137v8q0 2 16.5 25.5l16.5 23.5q89 148 89 327q0 45 -18 153v9q6 -1 30 -35q33 -46 60 -121q55 -152 195 -152q68 0 125 29q69 35 69 96q0 60 -53 94
q-41 26 -117 39q-58 7 -115 14q-80 11 -132.5 66t-52.5 134q0 81 56.5 137.5t137.5 56.5q77 0 170 -70q29 38 30 39q18 22 35 35l8 -4q-23 -57 -23 -132q0 -88 35 -138l-5 -3q-27 10 -65 75q-50 85 -71 110q-50 56 -112 56q-58 0 -94 -30q-39 -33 -39 -89q0 -92 121 -123
q112 -25 223 -50q121 -46 121 -177zM269 780q24 17 98 49l10 -19l-104 -82l-2 -3l-1 1l-2 -1l-2 3l-104 82l10 19q28 -9 58 -27.5t39 -21.5z" />
    <glyph glyph-name="product" unicode="&#x220f;" horiz-adv-x="362" 
d="M319 218q-20 -16 -24 -38v-40v-40q4 -29 21 -42q-33 -4 -67 -8q-27 -6 -69 -34q-17 -11 -61 -44q-70 40 -99 40q-26 0 -40 -7q2 6 36.5 44.5t42.5 38.5q2 0 47.5 -21t61.5 -21q30 0 38 30q2 9 2 49q0 43 -6 58q-12 27 -49 27t-77 -42l-64 52q-2 4 -1 6q20 6 20 62
q0 52 -20 69q-1 4 -1 6q25 5 51 10.5t50 18.5q20 12 63 52q55 -34 85 -34q6 0 39 8q-72 -83 -78 -83q-4 0 -40 16.5t-38 17.5q-6 1 -11 1q-16 0 -16 -23q0 -4 1 -42q0 -39 0 -38q16 -38 45 -38q30 0 57 23.5t29 23.5q3 0 29 -22q37 -32 43 -36zM159 540q24 17 98 49l10 -19
l-104 -82l-2 -3l-1 1l-2 -1l-2 3l-104 82l10 19q28 -9 58 -27.5t39 -21.5z" />
    <glyph glyph-name="pi" unicode="&#x3c0;" horiz-adv-x="854" 
d="M822 678q0 -27 -36.5 -32t-71.5 -9q-38 -10 -38 -44q0 -4 11 -62q17 -91 17 -139q0 -137 -98 -233q-44 -44 -182 -127q-98 -58 -98 -103q0 -67 92 -67q28 0 52 18.5t24 45.5q0 16 -4 23q-6 12 -8 18q33 0 58.5 -24t25.5 -57q0 -53 -42 -85q-37 -28 -92 -28q-62 0 -108 35
q-50 39 -50 100q0 41 39 86t39 60q0 18 -54 185q-42 130 -67 202q-33 94 -39 109q-33 76 -65 86q-37 6 -74 13q-52 11 -52 36q0 19 25 19q9 0 30.5 -15t42.5 -15h604q32 0 57 15t40 15q9 0 15.5 -8.5t6.5 -17.5zM609 332q0 67 -28 157q-32 104 -76 132q-35 23 -93 23
q-32 0 -57 -13q-29 -16 -29 -46q0 -32 57 -255q58 -226 73 -248q68 36 110.5 105t42.5 145zM352 714l-15 24l167 96l37 -70z" />
    <glyph glyph-name="integral" unicode="&#x222b;" horiz-adv-x="359" 
d="M332 370q-37 -28 -37 -64v-284q0 -52 28 -77l-26 1q-50 0 -89 -24q-45 -28 -45 -76q0 -22 18 -42t39 -18h4l5 5q-10 9 -20 20t-10 29q0 21 15.5 36t36.5 15q24 0 41.5 -17.5t17.5 -42.5q0 -31 -27.5 -48.5t-60.5 -17.5q-36 0 -60.5 26t-24.5 62q0 27 35.5 84.5
t35.5 122.5q0 9 1 31v31v180q0 49 -48 49q-41 0 -41 -47v-194q0 -15 25 -41q-47 -24 -67 -76q-12 8 -34 35t-36 37l14 16q13 15 13 31v192q0 24 -6.5 35t-28.5 26q39 31 45 37q11 12 33 49q41 -72 87 -72q54 0 87 68q36 -52 80 -77zM114 484l-13 20l113 79q34 -52 31 -64
q-26 -4 -131 -35z" />
    <glyph glyph-name="Omega" unicode="&#x3a9;" horiz-adv-x="700" 
d="M2 412h97q47 122 104 186q79 87 189 87q65 0 118 -27q38 -19 68 -50q13 -15 26 -31l-62 -31q-71 102 -151 102q-94 0 -135 -75q-30 -55 -35 -161h176v-42h-177v-37v-31h177v-42h-177q2 -107 30 -161q41 -75 142 -75q64 0 123 48q44 35 62 70l49 -40q-130 -121 -240 -121
q-105 0 -181 70t-110 200q-1 2 -3 9h-90v42h75q-9 27 -9 33t13 35h-79v42z" />
    <glyph glyph-name="Omega" unicode="&#x2126;" horiz-adv-x="700" 
d="M2 412h97q47 122 104 186q79 87 189 87q65 0 118 -27q38 -19 68 -50q13 -15 26 -31l-62 -31q-71 102 -151 102q-94 0 -135 -75q-30 -55 -35 -161h176v-42h-177v-37v-31h177v-42h-177q2 -107 30 -161q41 -75 142 -75q64 0 123 48q44 35 62 70l49 -40q-130 -121 -240 -121
q-105 0 -181 70t-110 200q-1 2 -3 9h-90v42h75q-9 27 -9 33t13 35h-79v42z" />
    <glyph glyph-name="radical" unicode="&#x221a;" 
 />
    <glyph glyph-name="approxequal" unicode="&#x2248;" 
 />
    <glyph glyph-name="approxequal" unicode="&#x22f2;" 
 />
    <glyph glyph-name="Delta" unicode="&#x394;" 
 />
    <glyph glyph-name="Delta" unicode="&#x2206;" 
 />
    <glyph glyph-name="lozenge" unicode="&#x25ca;" 
 />
    <glyph glyph-name="fraction" unicode="&#x2044;" 
 />
    <glyph glyph-name="fi" unicode="&#xf001;" horiz-adv-x="14" 
 />
    <glyph glyph-name="fl" unicode="&#xf002;" horiz-adv-x="22" 
 />
    <glyph glyph-name="apple" unicode="&#xf000;" horiz-adv-x="16" 
 />
    <glyph glyph-name="dotlessi" unicode="&#x131;" horiz-adv-x="177" 
d="M143 374q-14 -11 -26 -40q-5 -13 -9 -26v-184q4 -11 8 -23q8 -24 24 -35q-35 -22 -70 -80q-15 20 -28 34q-32 36 -49 44q36 19 34 63l-1 178q3 9 -7 30.5t-26 33.5q45 22 74 79q29 -47 76 -74z" />
    <glyph glyph-name="breve" unicode="&#x2d8;" horiz-adv-x="259" 
d="M218 511q-34 -59 -103 -59q-74 0 -101 59l14 9q30 -35 87 -35q31 0 60 12.5t29 22.5z" />
    <glyph glyph-name="dotaccent" unicode="&#x2d9;" horiz-adv-x="210" 
d="M67 524q0 16 11 27.5t27 11.5q15 0 26 -11.5t11 -27.5t-11 -27.5t-26 -11.5q-16 0 -27 11.5t-11 27.5z" />
    <glyph glyph-name="ring" unicode="&#x2da;" horiz-adv-x="342" 
d="M164 610q27 0 46 -18.5t19 -45.5t-19 -45.5t-46 -18.5q-28 0 -47 18.5t-19 45.5t19 45.5t47 18.5zM164 584q-17 0 -28.5 -11t-11.5 -27t11.5 -27t28.5 -11q16 0 27.5 11t11.5 27t-11.5 27t-27.5 11z" />
    <glyph glyph-name="hungarumlaut" unicode="&#x2dd;" horiz-adv-x="262" 
d="M164 582q45 -23 45 -25q-1 -2 -80 -92l-14 9zM95 581q45 -23 44 -25q0 -2 -79 -92l-15 9z" />
    <glyph glyph-name="ogonek" unicode="&#x2db;" horiz-adv-x="210" 
d="M115 -4l-42 -36q-14 -14 -31 -46q-12 -25 -12 -51q0 -63 48 -63t71 63q-36 -30 -54 -30q-24 0 -24 36q0 22 10 50q20 56 80 92q-2 2 -22.5 -5t-23.5 -10z" />
    <glyph glyph-name="caron" unicode="&#x2c7;" horiz-adv-x="287" 
d="M129 540q24 17 98 49l10 -19l-104 -82l-2 -3l-1 1l-2 -1l-2 3l-104 82l10 19q28 -9 58 -27.5t39 -21.5z" />
    </font>
</defs>
</svg>
