<?xml version="1.0" standalone="no"?>
<!DOCTYPE svg PUBLIC "-//W3C//DTD SVG 1.1//EN" "http://www.w3.org/Graphics/SVG/1.1/DTD/svg11.dtd" >
<svg>
<metadata>
Created by FontForge 20120731 at Wed Apr 17 18:44:32 2019
 By www-data
Digitized by Dan X. Solo. Software (c)1998 by Dover Publications, Inc., New York.
</metadata>
<defs>
<font id="AlouetteNormal" horiz-adv-x="5" >
  <font-face 
    font-family="Alouette"
    font-weight="400"
    font-stretch="normal"
    units-per-em="1000"
    panose-1="0 0 4 0 0 0 0 0 0 0"
    ascent="800"
    descent="-200"
    x-height="426"
    cap-height="654"
    bbox="-28.0625 -223 1125 861"
    underline-thickness="20"
    underline-position="-123"
    unicode-range="U+0020-F000"
  />
<missing-glyph horiz-adv-x="500" 
d="M63 0v800h375v-800h-375zM125 63h250v675h-250v-675z" />
    <glyph glyph-name=".notdef" horiz-adv-x="500" 
d="M63 0v800h375v-800h-375zM125 63h250v675h-250v-675z" />
    <glyph glyph-name="glyph1" horiz-adv-x="0" 
 />
    <glyph glyph-name="glyph2" horiz-adv-x="253" 
 />
    <glyph glyph-name="space" unicode=" " horiz-adv-x="253" 
 />
    <glyph glyph-name="exclam" unicode="!" horiz-adv-x="279" 
d="M195 577q0 13 -9 -100q-5 -85 -19 -254q-1 -17 -3 -33q-4 -20 -21 -22h-11q-5 74 -15 221q-1 33 -7 98q-4 23 -37 38.5t-33 25.5q0 12 10 18q3 3 56 41q47 34 50 34q39 0 39 -67zM216 54q0 -11 -28.5 -35t-39.5 -24q-10 0 -35.5 26.5t-25.5 36.5q0 13 26 36t38 23
q9 0 37 -27t28 -36z" />
    <glyph glyph-name="quotedbl" unicode="&#x22;" horiz-adv-x="373" 
d="M83 418l-30 179q-2 8 -2 16q0 43 43 43t43 -44q0 -27 -13 -95q-10 -50 -19 -99h-22zM224 418q-10 49 -19 98q-13 69 -13 95q0 45 43 45t43 -42q0 -9 -1 -17l-31 -179h-22z" />
    <glyph glyph-name="numbersign" unicode="#" horiz-adv-x="517" 
d="M112 215h-94v53h101l17 124h-94v53h101l29 202h60l-28 -202h112l29 202h59l-28 -202h93v-53h-100l-18 -124h93v-53h-100l-30 -215h-60l30 215h-113l-30 -215h-60zM196 392l-18 -124h114l17 124h-113z" />
    <glyph glyph-name="dollar" unicode="$" horiz-adv-x="448" 
d="M370 391q0 -14 -27 -44q-5 -5 -15 -5q-8 -1 -17 10q-14 19 -30 32q-13 10 -34 14q0 8 1 14t1 5q31 0 52 4q9 3 24 6q9 0 11.5 -1t18 -15t15.5 -20zM217 295q-10 1 -24.5 13t-15.5 20v132q3 7 16 10q4 -2 13 -3q4 0 7.5 -4l3.5 -4v-164zM375 101q0 -43 -27 -72t-70 -29
q-21 0 -30 13v8q55 15 55 60q-1 30 -30 60q-17 18 -69 57q-51 35 -102 71q-54 44 -54 90q-1 59 63 60q16 0 24 -3q1 -1 2 -8q0 -2 -8.5 -12.5t-8.5 -23.5q0 -27 97 -98q35 -25 69 -50q41 -30 65 -56.5t24 -66.5zM221 150l-1 -201q-5 -5 -23 -5q-10 0 -14 3.5t-4 13.5l-2 220
h19q8 -5 17 -11.5t8 -19.5zM158 21q0 -4 -7 -12.5t-10 -8.5q-20 0 -57 21q-40 22 -40 40q0 4 39 50q7 8 16 8q14 0 20 -14q5 -19 17 -52q11 -13 22 -32z" />
    <glyph glyph-name="percent" unicode="%" horiz-adv-x="485" 
d="M422 126q0 -51 -23 -89q-24 -42 -63 -42q-40 0 -68.5 37.5t-28.5 88.5q0 35 15.5 66.5t40.5 38.5h5l2 -6q-25 -41 -25 -82q0 -37 19 -77q23 -45 50 -45q42 0 42 82q0 72 -39 95q-7 2 -15 3.5t-8 11.5q0 8 8.5 27.5t14.5 19.5q30 0 53 -48q20 -41 20 -81zM201 314
q0 -50 -23 -88q-24 -42 -63 -42q-40 0 -68.5 37.5t-28.5 88.5q0 34 15.5 65.5t40.5 39.5h5l2 -7q-25 -41 -25 -81q0 -38 19 -78q23 -44 50 -44q42 0 42 81q0 73 -39 96q-7 1 -15 2.5t-8 12.5q0 8 8.5 27t14.5 19q30 0 53 -47q20 -42 20 -82zM374 422l-293 -424l-21 15
l293 424z" />
    <glyph glyph-name="ampersand" unicode="&#x26;" horiz-adv-x="707" 
d="M627 449q0 -17 -27 -50q-15 -18 -87 -51q-62 -29 -69 -57q-23 4 -55 23q16 56 62 72q43 8 87 17q52 14 77 64l12 -3v-15zM438 215q0 -12 -24 -38.5t-35 -26.5q-13 0 -85 86q-43 53 -87 106q-31 36 -54 85q-25 54 -25 96q0 56 35 95.5t90 39.5q45 0 79 -33.5t34 -78.5
q0 -27 -29 -71q-31 -48 -56 -48q-13 0 -32 37q13 16 27 32q25 30 25 62q0 28 -17.5 47t-46.5 19q-25 0 -39 -27q-11 -22 -11 -49q0 -44 65 -126q40 -51 121 -134q65 -67 65 -73zM673 122q0 -28 -25.5 -69t-50.5 -52q-16 -8 -50 -8q-37 0 -65 27q-24 29 -47 58l50 72l36 -20
q24 -14 36 -14q16 0 49.5 22t32.5 22q15 0 24.5 -11.5t9.5 -26.5zM533 307q0 -18 -12 -45l-20 -44q-41 -97 -113 -160q-81 -72 -177 -72q-74 0 -134 54t-60 127q0 40 9 65t34 58q14 17 46 45q37 32 49 32q9 0 18.5 -11.5t9.5 -20.5q0 -2 -18 -21q-21 -23 -33 -44
q-17 -32 -17 -68q0 -55 40 -97t95 -42q156 0 257 260h22q4 -4 4 -16z" />
    <glyph glyph-name="quotesingle" unicode="'" horiz-adv-x="213" 
d="M64 418q-1 22 -16.5 98t-15.5 95q0 45 43 45t43 -42q0 -9 -1 -17l-31 -179h-22z" />
    <glyph glyph-name="parenleft" unicode="(" horiz-adv-x="239" 
d="M223 -104h-18q-191 160 -191 416q0 127 46 222q43 89 141 180h15v-15q-137 -185 -137 -374q0 -245 144 -413v-16z" />
    <glyph glyph-name="parenright" unicode=")" horiz-adv-x="301" 
d="M14 -104h18q191 160 191 416q0 127 -46 222q-43 89 -141 180h-15v-15q137 -185 137 -374q0 -245 -144 -413v-16z" />
    <glyph glyph-name="asterisk" unicode="*" horiz-adv-x="424" 
d="M191 503v29q0 22 -12.5 53.5t-12.5 42.5q0 13 10 24t24 11q12 0 22.5 -11t10.5 -24q0 -8 -12.5 -48.5t-12.5 -76.5q25 15 33 20q17 12 28 26t23 28.5t29 14.5q34 0 34 -31q0 -27 -26 -35q-24 -4 -46.5 -8t-65.5 -29q24 -15 33 -19q18 -9 36 -12q43 -7 45 -8q24 -8 24 -33
q0 -32 -34 -32q-9 0 -50 37q-49 43 -63 52v-29q0 -22 12.5 -54t12.5 -43q0 -13 -10 -23.5t-23 -10.5t-23.5 10.5t-10.5 23.5q0 9 12.5 50t12.5 76q-25 -15 -32 -20q-18 -12 -28.5 -25.5t-21.5 -27.5q-15 -16 -31 -16q-33 0 -33 32q0 26 26 34q23 4 47 8q20 4 65 30
q-24 14 -34 18q-18 9 -35 12l-45 8q-24 8 -24 34q0 31 33 31q10 0 50 -37q48 -42 63 -52z" />
    <glyph glyph-name="plus" unicode="+" horiz-adv-x="439" 
d="M188 241v170h64v-170h169v-64h-169v-170h-64v170h-170v64h170z" />
    <glyph glyph-name="comma" unicode="," horiz-adv-x="202" 
d="M152 13q0 -42 -35 -86q-41 -50 -92 -50q14 13 42 45q16 21 16 42q0 16 -13 38q-16 27 -37 27q-5 0 -11 -2q0 1 -2 4.5t-2 8.5q0 7 30 36.5t39 29.5q26 0 47 -39q18 -33 18 -54z" />
    <glyph glyph-name="hyphen" unicode="-" horiz-adv-x="377" 
d="M336 275q0 -23 -18.5 -47.5t-38.5 -24.5l-193 -1q-31 -29 -39 -29q-18 0 -18 27q0 20 9 43q12 31 32 31h195q4 0 24.5 11.5t25.5 11.5q21 0 21 -22z" />
    <glyph glyph-name="hyphen" unicode="&#x2010;" horiz-adv-x="377" 
d="M336 275q0 -23 -18.5 -47.5t-38.5 -24.5l-193 -1q-31 -29 -39 -29q-18 0 -18 27q0 20 9 43q12 31 32 31h195q4 0 24.5 11.5t25.5 11.5q21 0 21 -22z" />
    <glyph glyph-name="period" unicode="." horiz-adv-x="211" 
d="M84 -12q-14 0 -39 28.5t-25 36.5q0 14 28 38t36 24q16 0 41.5 -28t25.5 -39q0 -14 -30.5 -37t-36.5 -23z" />
    <glyph glyph-name="slash" unicode="/" horiz-adv-x="414" 
d="M313 651h47l-284 -650h-46z" />
    <glyph glyph-name="zero" unicode="0" horiz-adv-x="482" 
d="M438 216q0 -87 -48 -152q-54 -71 -137 -71q-87 0 -148 64t-61 151q0 59 31 110q35 57 90 69h11l4 -11q-55 -70 -55 -139q0 -64 42 -132q48 -77 108 -77q48 0 71 49q18 37 18 90q0 125 -83 164q-15 2 -31 5q-19 3 -19 20q0 15 18.5 47.5t32.5 32.5q63 0 113 -81
q43 -71 43 -139z" />
    <glyph glyph-name="one" unicode="1" horiz-adv-x="482" 
d="M327 0h-174q-12 1 -12 12t10 15q53 21 55 65v199q0 28 -30.5 40t-30.5 25q0 9 39 34q12 7 37 22q13 9 33 14q6 1 10 1q19 0 19 -27q0 -8 -1.5 -20.5t-1.5 -14.5v-270q4 -32 15 -43q3 -3 39 -25q8 -5 8 -13q0 -16 -15 -14z" />
    <glyph glyph-name="two" unicode="2" horiz-adv-x="482" 
d="M424 99q0 -6 -17.5 -45t-22.5 -48l-22 -7l-296 3q-7 9 -7 19q0 17 60 64q86 68 112 95q60 61 60 109q0 29 -23 46t-53 17q-38 0 -96 -42q-15 1 -15 19q0 45 48 75q42 26 89 26q52 0 93 -30q45 -32 45 -82q0 -43 -42 -105q-40 -57 -79 -81q-22 -13 -45 -26
q-27 -16 -41 -31v-2q0 -3 6 -3h134q21 0 57 24t39 24q16 0 16 -19z" />
    <glyph glyph-name="three" unicode="3" horiz-adv-x="482" 
d="M383 518q0 -50 -66.5 -113.5t-109.5 -63.5q-9 0 -14 11q1 8 30 29q38 27 54 44q29 30 29 62q0 74 -92 74q-28 0 -71 -48h-14q-4 0 -4 9q0 47 39 77q36 28 83 27q51 -1 90 -28q46 -31 46 -80zM425 246q0 -104 -106 -179q-97 -68 -206 -68q-23 0 -56 10v15q16 4 89 12
q61 7 126.5 73.5t65.5 126.5q0 45 -17 65q-11 13 -37 20.5t-33 14.5q17 28 61 28q47 0 80 -35.5t33 -82.5z" />
    <glyph glyph-name="four" unicode="4" horiz-adv-x="482" 
d="M449 1q-39 0 -76 1v58h77zM360 418v-527q-25 -11 -37 -11q-4 0 -17 4t-18 4q-7 10 -7 25q0 7 2.5 24t2.5 27l-1 379l-5 5l-193 -285h169v-64h-220q-4 16 -4 38q0 28 2 33q3 11 25 41q59 79 211 307h90z" />
    <glyph glyph-name="five" unicode="5" horiz-adv-x="482" 
d="M437 599l-2 -8q-91 -68 -232 -66q-11 -13 -51 -103q-34 -81 -48 -81q-20 0 -20 15q0 11 111 260q4 0 16 1q9 1 15 1q17 0 53.5 -12t56.5 -12q36 0 93 12zM407 248q0 -111 -108 -186q-97 -67 -212 -67q-6 0 -19.5 2t-18.5 2l-3 19q6 2 17 5q24 3 73 14q73 23 124 77
q57 60 57 130q0 47 -32 85t-78 38q-10 0 -29 -4q-23 -4 -29 -5q-3 4 -3 12q0 21 42 36q35 13 61 13q66 0 112 -52t46 -119z" />
    <glyph glyph-name="six" unicode="6" horiz-adv-x="482" 
d="M430 595q-58 -26 -117 -52q-64 -30 -102 -78q-35 -44 -58 -110t-23 -122q0 -55 17 -94q13 -32 45 -65.5t63 -66.5v-11l-15 -4q-85 0 -146 91q-55 82 -55 169q0 142 123 249q117 102 261 102zM443 201q0 -55 -31.5 -109t-79.5 -81q-20 -12 -23 -12q-14 0 -14 13l17 24
q21 28 33 53q17 38 17 73q0 49 -24 91.5t-67 63.5q-15 5 -43 16l-11 6v15q39 20 63 20q70 0 116.5 -51.5t46.5 -121.5z" />
    <glyph glyph-name="seven" unicode="7" horiz-adv-x="482" 
d="M445 410q-262 -496 -288 -524l-26 -4l-88 1l-5 10q0 6 23 16q29 13 32 15q35 28 146 204q105 165 132 224q-36 6 -135 6q-70 0 -131 -68l-8 -1l-4 10q24 41 71 125q15 1 41 1h240v-15z" />
    <glyph glyph-name="eight" unicode="8" horiz-adv-x="482" 
d="M411 498q0 -34 -29 -81q-32 -52 -64 -52h-20q1 3 24 34q18 24 18 57q0 82 -71 124q-12 7 -35 11q-32 5 -36 7q14 25 64 25q102 0 137 -85q12 -30 12 -40zM437 159q0 -73 -61 -120q-55 -43 -130 -43q-77 0 -136 43q-64 47 -64 122q0 49 29 90t76 49l8 -8q-15 -22 -29 -44
q-10 -19 -10 -55q0 -63 39 -114q42 -54 103 -54q36 0 66.5 32t30.5 68q0 59 -78 122q-72 53 -145 106q-77 64 -77 126q0 35 25.5 73.5t59.5 38.5l15 -8q-29 -33 -29 -64q0 -56 79 -118l148 -106q80 -67 80 -136z" />
    <glyph glyph-name="nine" unicode="9" horiz-adv-x="482" 
d="M274 80l-11 -14q-31 -11 -56 -11q-77 0 -125 51t-48 129q0 63 38 124q43 68 104 68l4 -4v-15q-65 -45 -65 -136q0 -98 77 -150zM448 178q0 -130 -127 -237q-122 -104 -253 -99l-8 7l14 17q124 23 198 99q79 82 79 203q0 79 -29 142q-33 74 -97 105l4 18h30q73 0 134 -93
q55 -85 55 -162z" />
    <glyph glyph-name="colon" unicode=":" horiz-adv-x="247" 
d="M104 -12q-14 0 -39 28.5t-25 36.5q0 14 28 38t36 24q16 0 41.5 -28t25.5 -39q0 -14 -30.5 -37t-36.5 -23zM104 288q-14 0 -39 28.5t-25 36.5q0 14 28 38t36 24q16 0 41.5 -28t25.5 -39q0 -14 -30.5 -37t-36.5 -23z" />
    <glyph glyph-name="semicolon" unicode=";" horiz-adv-x="247" 
d="M175 11q0 -91 -106 -132l-19 5q56 44 56 84q0 28 -17 44q-11 10 -29.5 16.5t-18.5 9.5q0 6 30 37t40 31q14 0 37 -29q20 -25 22 -35q5 -23 5 -31zM104 288q-14 0 -39 28.5t-25 36.5q0 14 28 38t36 24q16 0 41.5 -28t25.5 -39q0 -14 -30.5 -37t-36.5 -23z" />
    <glyph glyph-name="less" unicode="&#x3c;" horiz-adv-x="505" 
d="M437 358l-319 -148l319 -148v-68l-407 186v60l407 186v-68z" />
    <glyph glyph-name="equal" unicode="=" horiz-adv-x="459" 
d="M21 100v64h403v-64h-403zM21 262v64h403v-64h-403z" />
    <glyph glyph-name="greater" unicode="&#x3e;" horiz-adv-x="448" 
d="M29 355v68l407 -186v-60l-407 -186v68l318 148z" />
    <glyph glyph-name="question" unicode="?" horiz-adv-x="450" 
d="M33 570q0 27 47 56q41 26 73.5 30.5t50.5 4.5q70 0 121 -31q60 -37 60 -103q0 -51 -43 -108q-39 -46 -79 -91q-42 -52 -42 -91q0 -10 3.5 -32.5t3.5 -33.5v-6l-10 -14q-22 3 -34 35q-9 24 -9 51q0 61 56 139t56 119q0 75 -83 75q-30 0 -59 -22t-43 -50q-13 2 -41 30
t-28 42zM273 54q0 -8 -25.5 -37t-31.5 -29q-8 0 -38 26.5t-30 34.5q0 11 27 36t37 25t35.5 -23.5t25.5 -32.5z" />
    <glyph glyph-name="at" unicode="@" horiz-adv-x="650" 
d="M518 174h51q-32 -77 -104.5 -124.5t-155.5 -47.5q-129 0 -214 94q-82 90 -82 220q0 133 79 226q84 98 214 98q110 0 189.5 -74t79.5 -182q0 -84 -54 -161q-59 -84 -139 -84q-65 0 -59 72q-45 -67 -91 -67q-49 0 -79 40q-27 36 -27 87q0 72 48 136q52 69 123 69
q51 0 66 -56l14 48h74q-19 -69 -39 -138q-27 -98 -27 -133q0 -21 23 -21q49 0 89 79q34 68 34 123q0 91 -64.5 155t-155.5 64q-113 0 -184 -82q-67 -78 -67 -194t69 -194q71 -81 186 -81q129 0 203 128zM308 441q-43 0 -77 -79q-29 -67 -29 -118q0 -66 41 -66q44 0 76 83
q27 68 27 120q0 60 -38 60z" />
    <glyph glyph-name="A" unicode="A" horiz-adv-x="769" 
d="M716 95q3 -29 -18 -67q-24 -41 -52 -41q-38 0 -118 132q-51 83 -142 262q-84 165 -102 191q-14 20 -32.5 32.5t-23.5 23.5q-2 3 -2 6q0 17 31 17h76q37 0 49 -20q18 -41 37 -81q63 -124 181 -353q25 -46 55 -63q4 -2 42 -12q17 -5 19 -27zM452 218l-231 -1l19 39
q2 -1 194 -1zM319 467q-48 -96 -97 -192q-79 -159 -79 -169q0 -35 26 -61l30 -30q4 -17 -16 -17q-6 0 -14.5 1.5t-10.5 1.5q-118 0 -145 1l-8 6v11q79 89 157 243q65 130 129 261q7 -15 28 -56z" />
    <glyph glyph-name="B" unicode="B" horiz-adv-x="648" 
d="M535 507q0 -89 -71 -140q-64 -46 -156 -46q-113 0 -124 33q4 12 17 12t38 -5t38 -5q60 0 103 33q48 36 48 94q0 45 -29 72t-74 27q-38 0 -64 -14q-53 -29 -55 -30q-12 8 -12 17q0 8 21 32q25 29 69.5 48.5t83.5 19.5q70 0 118.5 -40t48.5 -108zM607 192q0 -87 -68 -144
q-65 -53 -154 -53q-76 -17 -152 2q-9 0 -35.5 4.5t-35.5 4.5q-19 0 -48.5 -4.5t-48.5 -4.5q-31 0 -36 1q-16 5 -15 27v12q9 10 36.5 31t27.5 66v319q0 46 -19 66q-8 8 -35 19q-19 8 -19 26q0 10 8 18q14 15 45 36q37 26 47.5 34.5t25.5 8.5q23 0 34 -32q9 -23 9 -51v-369
q0 -64 1 -141q9 -8 57 -17q42 -8 60 -8q94 0 150 45q22 18 40 51.5t18 59.5q0 82 -96 109q12 27 64 27q58 0 98.5 -41.5t40.5 -101.5z" />
    <glyph glyph-name="C" unicode="C" horiz-adv-x="661" 
d="M628 560q0 -19 -13 -32t-32 -13q-18 0 -27 9q-23 28 -47 56q-28 32 -62 41l-26 6q-18 6 -20 14q5 5 4 11q22 0 66 4t66 4q40 0 65.5 -30t25.5 -70zM645 136q0 -36 -62 -85q-56 -45 -97 -53q-59 -12 -102 -12q-44 0 -77 6q-132 26 -218 124t-86 231q0 114 70 198t182 109
q28 6 35 6q21 0 46 -11v-16l-15 -7q-89 -11 -147 -92q-54 -76 -54 -170q0 -120 86 -212.5t206 -92.5q129 0 214 96h11q8 -6 8 -19z" />
    <glyph glyph-name="D" unicode="D" horiz-adv-x="770" 
d="M694 342q0 -148 -100.5 -247.5t-249.5 -99.5q-19 0 -68 7q-45 5 -68 4l-146 -11q-18 -1 -31.5 10.5t-13.5 29.5q0 25 36.5 45.5t36.5 57.5v305q0 40 -19 60q-8 9 -35 24q-19 10 -19 23q0 14 32 38q89 67 90 67q43 0 43 -97v-24.5v-23.5v-376q0 -94 126 -94q4 0 12 2.5
t12 3.5q50 6 80 22q69 35 119 118.5t50 161.5q0 98 -70 168t-169 70q-37 0 -123 -34h-12q-1 2 -4 6.5t-3 9.5q0 11 40 39q37 24 54 30q48 15 73 15q137 0 231 -85q96 -88 96 -225z" />
    <glyph glyph-name="E" unicode="E" horiz-adv-x="645" 
d="M585 584q0 -19 -18 -39.5t-37 -20.5q-18 0 -59 38t-60 43q-24 7 -52 12v20q35 6 70 13q46 8 68 8q36 0 62 -20t26 -54zM375 349q0 -19 -13.5 -33.5t-32.5 -14.5q-22 0 -41 22q-28 32 -32 35q-12 9 -37 13.5t-33 12.5v12q9 12 60 12q11 0 31.5 3t30.5 3q27 0 47 -19
t20 -46zM616 110q0 -48 -27 -80q-29 -35 -76 -35q-12 0 -30 3q-24 2 -31 3q-33 2 -100 6l-17 7v15q21 7 49 8q37 2 83 45l70 70q14 12 32 12q47 0 47 -54zM282 624q0 -10 -25 -20q-17 -6 -34 -13q-13 -4 -30 -23t-20 -32q-8 -40 -8 -129q0 -36 1.5 -109t1.5 -110
q0 -101 52 -137q12 -6 35 -18v-16q-10 -12 -65 -12q-13 0 -37.5 -1.5t-35 -1.5t-29 -3.5t-27.5 -3.5q-29 0 -38 7q-12 8 -12 35q0 23 18 33q27 15 33 22q18 23 18 79v337q0 42 -36 65t-36 45q0 36 52 36q-9 0 82 -9q41 -1 129 -6q11 -5 11 -15z" />
    <glyph glyph-name="F" unicode="F" horiz-adv-x="596" 
d="M561 570q0 -24 -13 -44q-15 -24 -38 -24q-22 0 -64 50q-35 39 -86 45q-66 8 -82 17v16q3 2 13 2q8 0 24 -1.5t23 -1.5q5 0 12.5 2.5t11.5 2.5q21 0 64.5 10.5t64.5 10.5q29 0 49.5 -28t20.5 -57zM367 353q0 -48 -47 -48q-19 0 -42 22q-17 18 -35 36q-9 7 -27 11
q-24 6 -29 8v23q110 11 112 11q28 0 48 -18t20 -45zM215 113q0 -13 -23.5 -61t-35.5 -55t-26 -7q-72 0 -72 143q0 13 4 38.5t4 38.5v308q0 25 -31 45t-31 47q0 41 40 41q11 0 69 -9q34 -6 111 -9q4 -4 4 -18l-26.5 -23.5t-31.5 -32.5q-16 -35 -14 -124v-130q2 -114 14 -132
q3 -4 28 -28q17 -16 17 -32z" />
    <glyph glyph-name="G" unicode="G" horiz-adv-x="721" 
d="M618 558q0 -52 -45 -52q-25 0 -56 31l-48 48q-2 2 -50 23q-40 17 -40 28q0 6 8 19q16 0 44.5 -2t41.5 -2q30 0 58 7q9 3 17 3q31 0 51 -34q19 -30 19 -69zM704 275q0 -17 -19.5 -26.5t-36.5 -17.5q-18 -13 -26 -47q-11 -50 -14 -56q-29 -66 -107 -106q-71 -36 -150 -36
q-136 0 -239 92q-107 95 -107 230q0 6 3 16t3 15q0 108 82 208q86 104 191 104q23 0 39 -4v-19q-3 -1 -25 -10q-81 -33 -129 -114q-46 -77 -46 -168q0 -37 23 -116q20 -70 86 -129q70 -64 140 -64q25 0 46 5q38 7 74 50.5t36 81.5q0 45 -20 62q-4 4 -37 18q-19 9 -19 31
q0 44 29 44q15 0 45 -5.5t45 -5.5q16 0 47.5 7t47.5 7t27 -15t11 -32z" />
    <glyph glyph-name="H" unicode="H" horiz-adv-x="773" 
d="M708 126q0 -36 -26 -82q-29 -51 -62 -51q-52 0 -52 117q0 24 2 71t2 71q0 73 -3 77h-394q-1 -68 5 -157q3 -8 20 -22q14 -12 14 -32q0 -32 -26 -78q-29 -51 -57 -51q-29 0 -46 49q-14 39 -13 74q8 299 8 287q0 69 -5 91.5t-33.5 33t-28.5 25.5q0 11 8 19q16 17 59 49
q48 38 59 38q45 0 45 -63q0 -16 -6 -46.5t-6 -45.5q-1 -38 -1 -116q0 -4 4 -8l395 -1v69q0 35 -5 54t-33 30.5t-28 25.5q0 13 11 23q43 38 100 80q8 5 21 5q33 0 33 -54q0 -5 -1 -16t-1 -17l-1 -324q0 -44 6 -65q3 -14 21 -29q15 -13 15 -31z" />
    <glyph glyph-name="I" unicode="I" horiz-adv-x="341" 
d="M266 624q1 -16 -23 -28q-33 -16 -46 -31.5t-14 -53.5q1 5 0 -128v-256q2 -11 5 -23q4 -15 20 -25q21 -9 56 -30q6 -5 6 -26q0 -18 -6.5 -22.5t-25.5 -4.5q-3 0 -40.5 5.5t-42.5 5.5q-4 0 -54 -7t-54 -7q-33 0 -32 36q1 16 34 28.5t40 46.5q7 28 6 75q-1 61 0 76v218
q0 63 -10 84q-14 29 -44 38q-24 8 -24 22q-1 34 29 34q4 0 45 -3.5t45 -3.5t49 5t50 5q28 0 31 -30z" />
    <glyph glyph-name="J" unicode="J" horiz-adv-x="349" 
d="M265 537q0 -4 -1 -109v-109v-104q0 -69 -11 -113q-17 -64 -74 -105q-51 -36 -106 -36q-40 0 -57 18q-7 16 3 19q3 1 38 6q67 9 96 84q19 50 18 121v55q1 43 1 42q0 100 -1 118q-3 32 -4 38q-5 26 -22 38q-15 7 -47 22q-11 7 -11 27q0 14 7 20q31 22 92 74q13 12 31 12
q48 0 48 -118z" />
    <glyph glyph-name="K" unicode="K" horiz-adv-x="656" 
d="M623 91q0 -39 -20 -69q-22 -34 -60 -34q-54 0 -123 71q-56 65 -113 130q-61 71 -95 73h-15q-8 1 -15 -2q-10 23 -10 32q0 13 15 26q20 16 59 46q203 160 203 207q0 5 -14 28t-14 28q0 17 18 20q5 1 104 1q29 0 29 -19q0 -30 -37 -71q-30 -29 -60 -59q-43 -44 -183 -160
q15 -15 93 -101q57 -62 98 -95q25 -21 52 -21q9 0 28 6.5t28 6.5q32 0 32 -44zM196 106q0 -33 -25 -73q-28 -45 -59 -45q-27 0 -46 39q-16 34 -13 64l14 141v188q0 95 -24 107q-12 6 -25 13.5t-13 20.5q0 12 5 19t53 39t55 32q47 0 47 -88q0 -15 -3 -44t-3 -43v-312
q0 -9 18.5 -23.5t18.5 -34.5z" />
    <glyph glyph-name="L" unicode="L" horiz-adv-x="622" 
d="M621 105q0 -37 -39 -76.5t-76 -39.5q-15 0 -83 7t-75 10.5t-7 12.5q0 6 14 16h7q70 -2 157 102q5 7 27 13t34 6q41 0 41 -51zM273 19q0 -6 -4 -15q-13 -2 -31 -2q-14 0 -42 3t-42 3t-43.5 -5.5t-43.5 -5.5q-27 0 -37 5q-14 7 -14 31q0 7 25 30q29 27 32 31q25 37 25 133
v194q0 54 -2 65q-2 27 -37.5 43t-35.5 35q0 16 11 24q19 9 54 30q16 13 34 26.5t37 13.5t33 -41q12 -33 12 -58q0 -19 -5.5 -58.5t-5.5 -58.5v-113.5v-113.5q0 -52 4 -76q7 -40 31 -69q13 -13 26 -25q19 -19 19 -26z" />
    <glyph glyph-name="M" unicode="M" horiz-adv-x="960" 
d="M893 113q0 -32 -26 -76q-28 -49 -58 -49q-34 0 -51 46q-12 32 -12 74q0 18 3.5 54t3.5 54q0 29 -1 113v113q50 28 71 28q17 0 17 -71q0 3 -2 -129q0 -7 1 -24t1 -23q0 -45 14 -62q1 -2 25 -16q14 -8 14 -32zM982 612q0 -24 -15 -50q-16 -29 -38 -36q-14 -5 -43 -6
q-34 -1 -46 -3q-40 -9 -113.5 -40.5t-107.5 -55.5q-8 -5 -60.5 -53t-55.5 -48q-11 0 -20 8q-182 165 -361 195q-4 1 -65 5q-18 2 -34 36q-14 29 -14 51q0 42 45 42q6 0 16.5 -1t15.5 -1q89 0 223 -105q94 -73 187 -176q5 1 10 7q216 270 426 270q18 0 34 -11t16 -28z
M268 111q0 -30 -21 -73q-24 -50 -50 -50q-59 0 -59 117q0 27 3.5 82.5t3.5 83.5l-1 189q8 12 20 12q28 0 47 -15q1 -16 0 -40q-2 -31 -2 -40v-175q0 -32 29.5 -50t29.5 -41z" />
    <glyph glyph-name="N" unicode="N" horiz-adv-x="777" 
d="M689 -4q-5 -4 -24 -4q-8 0 -13 4q-13 11 -80 82q-120 129 -213 219l-122 136q-87 94 -134 104q-34 7 -32 7q-11 0 -24 -8q-19 -4 -29 29q-6 31 -12 61q-4 20 17 27q15 5 59 5q50 0 90 -19q28 -13 167 -164q85 -94 171 -188q24 -25 113 -114q3 0 8 6v293q0 42 -21 58
q-2 2 -39 17q-22 9 -22 32q0 9 5 14q13 13 48 39q40 30 50 30q37 0 37 -124v-542zM204 108q0 -32 -18 -72q-21 -46 -49 -46q-20 0 -35 26q-14 23 -14 44v439q3 5 9 5q10 0 29.5 -11.5t19.5 -20.5v-249q0 -50 29 -68.5t29 -46.5z" />
    <glyph glyph-name="O" unicode="O" horiz-adv-x="765" 
d="M688 329q0 -106 -61 -199q-63 -97 -160 -131q-32 -11 -119 -11q-40 0 -112 29q-99 40 -158 116q-63 81 -63 183q0 84 38 155q15 27 56 65q46 44 70 44q8 0 15 -8v-15q0 -4 -8.5 -13.5t-14.5 -17.5q-45 -63 -45 -153q0 -123 76 -224q82 -110 202 -110q86 0 143 81
q53 74 53 164q0 96 -56 177q-63 92 -154 92q-7 0 -21 -2t-21 -2q-15 0 -25.5 10.5t-10.5 25.5q0 14 15 28q12 12 24 25t34 43q9 6 16 6q4 0 18 -4q117 -34 193 -133t76 -221z" />
    <glyph glyph-name="P" unicode="P" horiz-adv-x="596" 
d="M547 478q0 -97 -70.5 -163.5t-161.5 -66.5q-33 0 -78.5 18t-51.5 35q4 8 13 8q5 0 44.5 -10t43.5 -10q66 0 113 60q43 55 43 119q0 51 -35 93t-85 42q-22 0 -59 -15q-40 -16 -45 -32h-19q-4 4 -4 12q0 14 35 47q59 55 134 49q91 -8 137 -57.5t46 -128.5zM215 130
q7 -25 -21 -82q-30 -60 -60 -60q-18 0 -30 11q-28 28 -33 72q-1 6 -1 68v323q0 37 -18 58q-8 9 -32 23q-18 9 -18 21q0 10 44 50q34 31 48 42q11 8 21 8q49 0 50 -87q0 -15 -2 -36.5t-2 -23.5v-335q0 -19 22 -33q16 -10 32 -19z" />
    <glyph glyph-name="Q" unicode="Q" horiz-adv-x="774" 
d="M697 311q0 -64 -56 -167q-11 -21 -50 -64q-43 -48 -58 -48q-6 0 -25 11v10q0 5 28.5 35t49.5 93q20 59 20 103q0 103 -66 185q-70 87 -171 87q-7 0 -20.5 -1.5t-20.5 -1.5q-8 0 -17.5 7.5t-9.5 15.5q0 5 21 25q13 13 26 25q10 20 32 50q10 8 33 8q48 0 107 -40
q177 -118 177 -333zM717 -64q0 -37 -31 -55q-26 -15 -65 -15q-54 0 -94 37q-19 17 -60 77q-35 50 -63 68q-19 11 -54 11q-3 0 -4 -1.5t-4 -1.5q-8 0 -17 10v16q8 7 39 7q55 0 106 -32q11 -7 76 -60q39 -33 66 -33q12 0 36 8.5t35 8.5q34 0 34 -45zM416 -5q-18 -14 -44 -14
q-65 0 -137 29q-104 43 -162 120q-62 82 -62 189q0 98 65 182q9 12 43 41q38 31 46 31h17q4 -3 4 -12q0 -2 -21.5 -34.5t-24.5 -40.5q-25 -64 -25 -123q0 -193 186 -307q18 -11 47 -18q25 -5 50 -11q17 -4 18 -13v-19z" />
    <glyph glyph-name="R" unicode="R" horiz-adv-x="668" 
d="M542 515q0 -63 -72 -132.5t-136 -69.5q-15 0 -38 24q-1 8 4 11q14 8 42 25q89 62 89 144q0 34 -28 58.5t-63 24.5q-57 0 -117 -51h-18q-4 17 -4 12q0 13 31 40q24 22 67 39t74 17q63 0 114 -39q55 -42 55 -103zM624 108q0 -38 -29 -74q-31 -39 -68 -39q-45 0 -98 57
q-27 31 -87 120q-53 77 -80 99q-13 11 -39 24q-34 16 -42 22v12q17 11 35 11q35 0 93 -36q51 -32 80 -64q97 -110 143 -110q9 0 26.5 5t26.5 5q14 0 26.5 -9t12.5 -23zM211 105q0 -27 -26 -70q-28 -47 -52 -47q-30 0 -49 36q-16 31 -16 64q0 22 4 67.5t4 67.5v229
q0 39 -35.5 62.5t-35.5 36.5q0 11 51 55t71 44q43 0 43 -108q0 -21 -3 -65.5t-3 -63.5v-238q0 -18 23.5 -36t23.5 -34z" />
    <glyph glyph-name="S" unicode="S" horiz-adv-x="561" 
d="M480 593q0 -28 -15 -51q-17 -27 -43 -27q-23 0 -47 37q-27 43 -42 50q-9 4 -42 10q-27 5 -39 16v10q11 11 26 11q4 0 13 -2t13 -2q20 0 59 7t59 7q23 0 40.5 -21.5t17.5 -44.5zM494 139q0 -62 -41 -104t-102 -42q-31 0 -50 15v13q30 16 60 33q31 23 31 60q0 59 -99 140
q-92 70 -184 141q-100 86 -100 157q0 45 31 74.5t76 29.5q6 0 17 -2t16 -2q4 -17 4 -14q0 -3 -19 -23t-19 -42q0 -45 98 -118q166 -124 182 -138q99 -90 99 -178zM199 11q0 -21 -37 -21q-35 0 -94 27q-66 31 -66 60q0 25 32.5 56.5t57.5 31.5q23 0 40 -41q25 -61 25.5 -62
t23.5 -25q18 -18 18 -26z" />
    <glyph glyph-name="T" unicode="T" horiz-adv-x="744" 
d="M706 530q0 -16 -12 -27.5t-29 -11.5q-9 0 -59 34q-54 37 -71 42q-70 23 -232 23q-101 0 -174 -44q-2 -1 -44 -35q-29 -23 -46 -23q-15 0 -27 9.5t-12 23.5q0 17 26 71.5t38 62.5q22 12 31 12h11q9 0 105 -20q71 -15 144 -15q68 0 201 25q51 10 46 10q9 0 28 -7t25 -13
q10 -10 30.5 -56.5t20.5 -60.5zM442 123q2 -4 2 -11q0 -33 -28 -79q-31 -50 -61 -50q-34 0 -54 49q-17 39 -17 79q0 29 7.5 87t7.5 89l-1 182q0 44 14 65q18 24 61 24q28 0 28 -29q0 -14 -4 -41t-4 -40v-264q0 -30 49 -61z" />
    <glyph glyph-name="U" unicode="U" horiz-adv-x="728" 
d="M639 454q3 -116 0 -192q1 -20 0 -61q-6 -100 -99 -161q-81 -54 -187 -54q-98 0 -181 56q-95 63 -95 156l1 281q0 30 -37 50.5t-37 36.5q0 20 30 36l48 26q14 12 29.5 25t31.5 13q41 0 41 -93q0 -16 -2 -47.5t-2 -47.5l-1 -273q0 -83 57 -132t141 -49q53 0 94 25
q51 31 72 72q18 33 21 86q2 50 3 100q1 17 1 39q0 142 -7 156q-14 29 -43 40q-23 9 -23 28q0 12 8 19q15 8 42 25q16 17 49 47q7 5 17 5q36 0 36 -65q0 -23 -4 -72t-4 -75z" />
    <glyph glyph-name="V" unicode="V" horiz-adv-x="767" 
d="M497 53q-45 -66 -71 -64q-19 2 -36 30q-14 24 -65 120q-58 120 -183 354q-25 44 -64 48q-5 1 -14.5 0t-13.5 0q-39 4 -35 38q1 6 3 17q2 1 60 34q17 12 36.5 24t38.5 10q34 -4 64 -63l38 -90q16 -35 49 -104q53 -104 163 -309q50 63 90 168q39 102 48 186q7 63 -23 125
q-33 70 -92 76q-8 1 -25.5 -1t-25.5 -1q-14 2 -23 16t-8 28q2 13 11 20q18 9 51 29q11 10 35 29q17 11 29 10q17 -2 51 -23q30 -20 44 -35q67 -73 67 -192q0 -116 -65 -253q-42 -90 -134 -227z" />
    <glyph glyph-name="W" unicode="W" horiz-adv-x="1057" 
d="M991 523q-5 -58 -24 -120q-28 -85 -102 -228q-93 -179 -138 -179q-15 0 -21 6q-13 11 -76 127l-78 150q-50 93 -87 141q-16 21 -46 21q-5 0 -15 -2t-15 -2q-11 0 -21 11t-9 23q1 10 59 49.5t72 39.5q36 0 73 -82q7 -17 31 -59q42 -79 83 -157q50 -93 91 -153
q46 61 86.5 164.5t45.5 175.5q5 74 -18 125q-29 64 -96 64q-7 0 -20.5 -1.5t-20.5 -1.5q-17 0 -28 12t-10 28q1 14 7.5 19t23.5 15q6 4 41 42q26 28 47 28q22 0 56 -20q54 -33 85 -102q28 -65 24 -134zM573 183q0 -1 -57 -83.5t-63 -88.5q-16 -15 -29 -15q-17 0 -27 10
t-37 58l-36 66q-44 78 -133 236q-23 43 -73 125q-16 24 -43 24q-4 0 -12.5 -2t-12.5 -2q-15 0 -27.5 15t-11.5 31q0 10 59 49t73 39q26 0 47 -36q42 -72 135 -247q84 -159 136 -246q15 8 44 49q20 28 41 57q28 -27 27 -39z" />
    <glyph glyph-name="X" unicode="X" horiz-adv-x="711" 
d="M728 624q0 -14 -31.5 -46t-44.5 -32q-9 0 -28.5 2t-28.5 2q-64 0 -123 -28q-32 -16 -108 -67q-6 0 -12.5 6.5t-6.5 12.5q0 14 39 55q62 65 135 109q89 53 163 53q46 0 46 -67zM661 122q0 -36 -26 -79q-28 -47 -61 -47q-34 0 -81 52q-18 19 -64 80l-111 144q-18 26 -56 78
q-41 53 -83 107q-60 70 -102 78q-24 3 -47 6q-25 7 -25 34q0 12 10.5 18.5t67 32.5t62.5 26q21 0 36 -16q5 -4 43 -58q30 -42 91.5 -125t123.5 -168q98 -126 140 -126q8 0 24 3.5t24 3.5q34 0 34 -44zM239 314q0 -5 -25 -49.5t-25 -86.5q0 -34 23 -63.5t23 -42.5
q0 -29 -29 -73q-31 -48 -58 -48q-29 0 -49 48q-16 40 -16 75q0 75 57 168q9 15 38 50q33 39 39 39q7 0 14.5 -5.5t7.5 -11.5z" />
    <glyph glyph-name="Y" unicode="Y" horiz-adv-x="598" 
d="M567 575q0 -68 -49 -156q-27 -49 -92 -139q-13 -18 -15 -62v-66q0 -51 4 -67q7 -24 48 -31q37 -6 37 -39q0 -10 -10.5 -17.5t-21.5 -7.5q-16 0 -48 5.5t-48 5.5t-48.5 -5.5t-48.5 -5.5q-34 0 -34 25q0 21 18 27.5t36 12.5q24 15 24 98q0 62 -8 87.5t-32.5 63.5t-45.5 58
l-74 94q-53 66 -85 66q-5 0 -15 -2t-15 -2q-35 0 -35 34q0 16 11 25q7 4 57 31t54 27q16 0 26 -9q21 -20 47 -59q37 -53 44 -62q17 -22 67 -100q38 -61 73 -94q41 37 69.5 97.5t28.5 113.5q0 89 -63 112q-2 1 -35 1q-27 0 -27 25q0 11 5 15q25 21 74 64q9 5 15 5
q27 0 61 -39q30 -35 39 -64q12 -39 12 -66z" />
    <glyph glyph-name="Z" unicode="Z" horiz-adv-x="590" 
d="M333 652q-1 -11 -19 -20q-13 -6 -27 -12q-36 -26 -73 -53q-48 -35 -75 -44q-14 -4 -38 -4q-59 0 -59 41q0 32 20.5 60.5t50.5 28.5q12 0 35 -5t34 -5q14 0 52 6.5t52 6.5h47zM523 619q0 -19 -5 -29q-16 -30 -199 -281q-165 -226 -165 -257q0 -7 7 -20.5t7 -20.5
q0 -17 -12 -17h-121q-16 11 -16 27q0 46 51 116q86 112 171 224q120 158 149 223q7 14 7 34q0 18 -5 34q42 8 90 8q41 0 41 -41zM489 -3q-18 0 -55 7t-55 7q-16 0 -64.5 -7t-65.5 -7l-8 8q2 10 8 15q13 5 37 17q39 17 103 50q48 33 98 33t50 -53q0 -42 -4 -51
q-8 -19 -44 -19z" />
    <glyph glyph-name="bracketleft" unicode="[" horiz-adv-x="184" 
d="M96 -72h101v-36h-161v830h161v-37h-101v-757z" />
    <glyph glyph-name="backslash" unicode="\" horiz-adv-x="444" 
d="M62 652l370 -652h-57l-371 652h58z" />
    <glyph glyph-name="bracketright" unicode="]" horiz-adv-x="291" 
d="M137 -72h-101v-36h161v830h-161v-37h101v-757z" />
    <glyph glyph-name="asciicircum" unicode="^" horiz-adv-x="299" 
d="M39 703q4 2 25 18q41 24 112 95l137 -112q8 -7 8 -16q0 -19 -21 -19q-6 0 -12 4l-109 69q-101 -70 -118 -70q-13 0 -23.5 8t-10.5 15q0 8 12 8z" />
    <glyph glyph-name="underscore" unicode="_" horiz-adv-x="467" 
d="M0 -73h500v-61h-500v61z" />
    <glyph glyph-name="grave" unicode="`" horiz-adv-x="294" 
d="M201 462h53l-141 130q-23 21 -42 21q-17 0 -28.5 -11.5t-11.5 -27.5q0 -30 28 -44q140 -68 142 -68z" />
    <glyph glyph-name="a" unicode="a" horiz-adv-x="438" 
d="M379 78q0 -25 -22 -56q-25 -34 -49 -34q-26 0 -44 41q-16 35 -16 65l1 185q0 54 -10 78q-15 40 -60 40q-35 0 -58 -26q-5 -6 -30 -46q-15 -25 -32 -25q-13 0 -29.5 22.5t-16.5 36.5q0 26 69 51q58 21 93 21q48 0 102 -24q64 -29 64 -71v-208q0 -9 19 -21t19 -29zM213 71
q0 -9 -38.5 -44t-51.5 -35q-39 0 -82.5 37.5t-45.5 76.5q-2 57 70 99q61 36 116 36q-3 0 21 -4l-4 -15q-33 -17 -67 -33q-39 -22 -39 -57q0 -25 19.5 -41t44.5 -16q23 0 53 10q4 -17 4 -14z" />
    <glyph glyph-name="b" unicode="b" horiz-adv-x="554" 
d="M485 243q0 -89 -61 -164q-65 -80 -152 -80h-238q-6 0 -16 10.5t-10 16.5q0 16 17 26q23 14 31 26q18 25 18 75v286q0 57 -9 90q-4 19 -21.5 30.5t-34.5 21.5q-5 9 -5 13q0 15 114 69q17 0 31 -18t14 -35v-544q0 -33 49 -33q82 0 131 46t49 127q0 67 -35 114
q-39 52 -104 52q-22 0 -71 -20q-5 3 -5 10q0 25 40 51t67 25h18q81 -1 132 -57.5t51 -137.5z" />
    <glyph glyph-name="c" unicode="c" horiz-adv-x="456" 
d="M384 386q0 -20 -12 -43q-13 -26 -31 -26t-34 22q-27 38 -29 40q-21 20 -52 18l-4 16q120 11 117 11q17 0 31 -11t14 -27zM391 106q0 -26 -50 -74q-14 -13 -53.5 -28t-59.5 -15q-89 0 -156.5 66t-67.5 155q0 29 4 54q7 44 55 98q51 58 93 58q8 0 13 -8q1 -8 -4 -11
q-8 -6 -25 -19q-50 -46 -50 -135q0 -71 44 -125q46 -57 115 -57q55 0 129 55q13 1 13 -14z" />
    <glyph glyph-name="d" unicode="d" horiz-adv-x="519" 
d="M449 94q0 -28 -20 -62q-23 -38 -49 -38q-34 0 -51 43q-12 31 -12 73q0 12 2 36.5t2 35.5l1 173l2 57q1 49 0 78q0 41 -4.5 46.5t-32.5 21.5q-23 14 -23 25q0 15 43 46t58 31q33 0 41 -44q2 -11 2 -68v-387q0 -21 20.5 -34t20.5 -33zM318 401q-7 -20 -17 -20
q-12 0 -37.5 10.5t-37.5 10.5q-65 0 -105 -49q-38 -45 -38 -112q0 -55 46 -104.5t101 -49.5q14 0 37 9q18 8 36 15q5 -5 5 -19q0 -15 -25 -48q-20 -26 -38 -42q-13 -12 -36 -12q-17 0 -52 13q-70 25 -112 81.5t-42 129.5q0 94 58.5 158.5t152.5 64.5q25 0 56.5 -10.5
t47.5 -25.5z" />
    <glyph glyph-name="e" unicode="e" horiz-adv-x="477" 
d="M396 111q0 -55 -69 -90q-56 -30 -100 -26q-94 9 -155 77q-57 63 -57 143q0 88 62.5 149.5t148.5 61.5q11 0 47 -4q22 -3 65 -30q51 -32 51 -57q0 -11 -107 -91q-71 -54 -142 -107q5 -24 47 -48q38 -23 62 -23h22q39 0 73.5 31.5t37.5 31.5q14 0 14 -18zM292 306
q-1 30 -32 56t-60 26q-54 0 -85 -51q-24 -40 -24 -85q0 -13 10 -45t16 -37q61 49 175 136z" />
    <glyph glyph-name="f" unicode="f" horiz-adv-x="327" 
d="M228 351q-6 0 -10 2l-3 2q-2 1 -4 1q-6 10 -20 29q-6 9 -24 29v21q13 0 29.5 2.5t26.5 2.5q34 0 34 -42q0 -15 -7 -29q-9 -18 -22 -18zM254 560q-13 2 -25.5 29t-33.5 27q-47 0 -47 -116l2 -389q0 -3 1 -10t1 -11q0 -8 1 -23.5t1 -23.5q0 -35 31 -70q16 -19 16 -37
q0 -31 -20 -73q-24 -50 -53 -50q-35 0 -53 47q-14 35 -14 78q0 22 3.5 67.5t3.5 68.5l-1 208q0 40 -1 119l-56 -1v36l56 1q3 21 3 35q4 72 39 129q43 69 111 69q22 0 44 -11q28 -12 28 -32q0 -10 -37 -67z" />
    <glyph glyph-name="g" unicode="g" horiz-adv-x="473" 
d="M443 394q0 -38 -23 -38q-5 0 -25.5 10.5t-27.5 10.5q-4 0 -10 -1.5t-9 -1.5q-4 3 -4 12q0 14 28.5 31.5t43.5 17.5q27 0 27 -41zM360 284q0 -63 -46.5 -112t-109.5 -49q-61 0 -113 42q-56 45 -56 106q0 41 28.5 78.5t67.5 37.5q4 -2 4 -10q0 -2 -10 -32t-10 -49
q0 -46 31 -92q35 -50 80 -50q34 0 53 39q15 30 15 69q0 54 -27 86t-78 32q-18 0 -18 24q0 15 24 40.5t39 25.5q50 0 90 -70q36 -61 36 -116zM406 -38q0 -65 -81 -110q-70 -38 -141 -38q-61 0 -118 23q-74 31 -74 84q0 34 45 63q41 26 78 26l13 -12q-1 -7 -18.5 -27.5
t-17.5 -31.5q0 -42 29.5 -68t72.5 -26q45 0 84 24q46 28 46 71q0 80 -113 80q-17 0 -46 -1.5t-40 -1.5q-40 0 -72 15q-41 20 -41 55q0 56 86 56q-1 -5 -3.5 -16t-2.5 -18q0 -48 76 -48q17 0 50 3.5t49 3.5q56 0 95 -24q44 -29 44 -82z" />
    <glyph glyph-name="h" unicode="h" horiz-adv-x="496" 
d="M443 106q0 -22 -24 -66q-26 -47 -45 -47q-56 0 -56 155q0 36 3 81q2 21 3 42v18q1 98 -74 98q-17 0 -41 -10.5t-35 -23.5h-12q-4 3 -4 12q0 24 52 45q44 18 73 18q72 0 100 -43q22 -32 22 -99q0 -19 -2 -56t-2 -54q0 -27 21 -47.5t21 -22.5zM159 21q0 -21 -45 -21t-44 41
l4 180v253q0 24 -16 48.5t-39 26.5q-8 7 -8 17l7 19q32 21 97 63q43 0 43 -89z" />
    <glyph glyph-name="i" unicode="i" horiz-adv-x="254" 
d="M149 552q0 -18 -14.5 -33t-32.5 -15q-20 0 -34.5 13.5t-14.5 34.5q0 19 14.5 35t33.5 16q18 0 33 -16.5t15 -34.5zM185 94q0 -25 -22 -62q-25 -39 -47 -39t-38 28q-14 25 -14 49q0 34 3 101t3 101q0 39 -8 49q-1 2 -38 26q-4 24 -4 18q0 8 43 35.5t54 27.5q34 0 34 -86
q0 -34 -5 -80v-75q0 -41 10 -56q3 -5 19 -14q10 -6 10 -23z" />
    <glyph glyph-name="j" unicode="j" horiz-adv-x="255" 
d="M154 538q0 -19 -14 -31.5t-29 -12.5q-43 0 -43 41q0 16 8 30q11 18 30 18q18 0 33 -15t15 -30zM164 327l2 -278q0 -22 -1 -68q-5 -85 -62 -147q-54 -57 -116 -57q-7 0 -15 7q-1 15 14 19q99 23 99 202v265q0 23 -35 41t-35 32q0 12 77 73q10 9 27 9q32 0 41 -39
q4 -17 4 -59z" />
    <glyph glyph-name="k" unicode="k" horiz-adv-x="500" 
d="M458 85q0 -31 -15 -59q-18 -33 -47 -33q-24 0 -106 90q-50 58 -101 116q-10 -1 -21.5 -17t-11.5 -26q0 -29 16.5 -45.5t16.5 -25.5q0 -21 -24 -56.5t-44 -35.5q-52 0 -52 87q0 16 2 41.5t2 31.5v335q0 29 -16 47q-8 9 -30 22q-17 9 -17 17l5 17q5 4 52 30.5t51 26.5
q40 0 40 -78q0 -11 -1 -27t-1 -20v-298l7 -2q41 37 82 75q60 58 60 81l-12 32q12 14 18 14q16 0 49 -3.5t50 -3.5l5 -12l-6 -14q-36 -18 -82 -61q-38 -37 -75 -73q14 -43 73.5 -93.5t102.5 -53.5q30 -1 30 -26z" />
    <glyph glyph-name="l" unicode="l" horiz-adv-x="255" 
d="M189 96q0 -30 -18 -66q-21 -41 -48 -41q-38 0 -53 61q-12 47 -12 147q0 24 2 129q2 81 0 128l-1 34q-1 19 -2 27q-3 14 -11 23q-4 5 -27 15q-18 8 -18 19q0 9 46.5 44t57.5 35t24.5 -20.5t13.5 -32.5v-432q0 -25 23 -39.5t23 -30.5z" />
    <glyph glyph-name="m" unicode="m" horiz-adv-x="795" 
d="M655 -18q-30 0 -45 45q-11 32 -11 71q0 28 4 83t4 82q0 55 -14 81q-19 33 -69 33q-21 0 -41 -11l-38 -20q-12 4 -12 16q0 26 59 49q49 19 80 19q39 0 79 -29q45 -32 45 -69q0 -28 -2.5 -83t-2.5 -82q0 -32 13 -40l7 -5q9 -6 18 -15q0 -37 -16 -75q-21 -50 -58 -50z
M392 -12q-46 0 -62 14v315q0 27 -24 43.5t-53 16.5q-23 0 -42 -12q-33 -20 -38 -23q-15 4 -15 17q0 28 53 49q45 18 78 18q55 0 93 -27q42 -30 42 -85v-306q0 -20 -32 -20zM94 -11q-37 0 -41 9l-1 305q0 12 -32 29l-15 10v27q1 0 44 36q30 25 45 25q20 0 34 -23.5t14 -44.5
v-347q0 -26 -48 -26z" />
    <glyph glyph-name="n" unicode="n" horiz-adv-x="506" 
d="M438 98v-8q1 -29 -18 -63q-22 -38 -50 -38q-32 0 -42 49q-3 19 -3 75v74q-1 49 -1 74q0 119 -84 119q-25 0 -68 -31h-11q-8 0 -8 12q0 21 50 42q44 18 71 18q82 0 114 -46q23 -35 23 -109q0 -15 -2 -54q-1 -34 0 -53q1 -48 29 -61zM137 42q0 -23 -5 -32q-8 -14 -38 -14
q-20 0 -42 8q-4 9 -4 22t4.5 39.5t4.5 39.5v141q0 23 -2 50q-2 18 -22 26q-23 10 -25 14q-4 1 -4 10q0 11 45.5 43t59.5 32q8 0 18 -11.5t10 -20.5v-347z" />
    <glyph glyph-name="o" unicode="o" horiz-adv-x="498" 
d="M420 210q0 -84 -49 -149q-53 -71 -134 -71q-89 0 -155 59q-69 62 -69 151q0 126 116 175l11 -14q-47 -67 -47 -127q0 -71 45 -138q50 -75 117 -75q46 0 73 50q22 41 22 92q0 46 -29 104q-33 65 -70 65q-5 0 -10 -1l-45 -13q-14 0 -14 16q0 15 23 53.5t37 38.5
q72 0 127 -74q51 -69 51 -142z" />
    <glyph glyph-name="p" unicode="p" horiz-adv-x="499" 
d="M451 223q0 -94 -61.5 -158.5t-153.5 -64.5q-22 0 -50 8q-32 10 -41 22v14q8 7 11 7q4 0 14 -5.5t15 -6.5q26 -4 45 -4q59 0 97 50q35 45 35 100q0 61 -31 102q-34 44 -90 44q-4 0 -30 -6.5t-29 -6.5q-18 0 -18 15q0 5 24 34.5t40 44.5q6 5 32 5q77 0 136 -64
q55 -61 55 -130zM177 -103q0 -20 -21 -53q-24 -38 -47 -38q-33 0 -52 59q-14 41 -14 67q0 30 7 95l2 167q0 141 1 63q0 35 -8 56q-6 15 -19.5 23t-26.5 15v21q24 16 47 32q38 26 50 26q43 0 43 -107q0 -39 -3 -60l-3 -255q0 -52 7 -69q3 -8 20 -18.5t17 -23.5z" />
    <glyph glyph-name="q" unicode="q" horiz-adv-x="495" 
d="M430 -98q0 -23 -21 -58q-24 -38 -45 -38q-60 0 -60 125q0 51 4 155t4 156q0 12 1 33.5t1 31.5q0 66 -43 108q68 53 82 53q42 0 42 -129q0 -32 -3 -69.5t-3 -31.5v-268q0 -19 20.5 -37.5t20.5 -30.5zM303 371q-5 -14 -14 -14t-32 7.5t-36 7.5q-62 0 -99.5 -38t-37.5 -100
q0 -64 39.5 -106t103.5 -42q10 0 36 7t30 6l7 -14q-36 -53 -40 -58q-26 -30 -57 -30q-79 0 -137.5 57t-58.5 136q0 90 53 153.5t143 63.5q23 0 55.5 -11t44.5 -25z" />
    <glyph glyph-name="r" unicode="r" horiz-adv-x="393" 
d="M336 371q0 -53 -41 -53q-3 0 -17 1.5t-18 1.5q-30 0 -42 -4q-18 -6 -45 -32h-11q-4 5 -4 15q0 22 38 63t66 51q24 8 38 8q36 0 36 -51zM167 90q0 -26 -16 -58q-19 -38 -45 -38q-20 0 -37 24q-15 21 -15 36v97q0 1 1 38t1 53q0 55 -7 67q-3 7 -24 17q-17 9 -17 21
t25.5 31.5t50.5 38.5q4 1 12 1q16 0 26 -14t10 -26v-91v-145q1 -8 11 -16.5t19 -15.5q5 -5 5 -20z" />
    <glyph glyph-name="s" unicode="s" horiz-adv-x="377" 
d="M320 108q0 -57 -57 -89q-44 -25 -92 -25q-43 0 -96 21q-73 30 -73 81q0 17 22 33q18 14 31 14q23 0 32 -14l15 -57q3 -11 18.5 -24.5t29.5 -16.5q3 -1 21 -1q26 0 47.5 14t21.5 41q0 38 -59 75q-55 32 -110 65q-59 41 -59 88q0 48 47 83q44 31 94 31q41 0 92 -22
q62 -26 62 -62q0 -19 -21 -33q-17 -12 -31 -12q-23 0 -32 23.5t-17 45.5q-15 24 -52 24q-69 0 -69 -51q0 -28 61 -66q110 -68 113 -71q61 -46 61 -95z" />
    <glyph glyph-name="t" unicode="t" horiz-adv-x="279" 
d="M216 380h-68v-203q0 -37 20 -50.5t20 -31.5q0 -27 -20 -62q-24 -39 -51 -39q-19 0 -34.5 17.5t-19.5 39.5q-2 17 -2 37q0 22 4 64.5t4 61.5v181q0 53 -17 76q-5 7 -28 19q-18 9 -18 23q0 -2 5 16q1 1 53 39q35 25 40 25q26 0 37 -37q8 -23 7 -47v-92q20 -3 68 0v-37z" />
    <glyph glyph-name="u" unicode="u" horiz-adv-x="506" 
d="M302 81q0 -30 -77 -73q-33 -18 -68 -18q-101 0 -101 136q0 20 2.5 60t2.5 61q0 54 -6 71q-5 12 -20 16q-19 6 -31 18q-6 12 4.5 22.5t46 31.5t44.5 21q17 0 30.5 -15t13.5 -33v-83q0 -25 -3 -74.5t-3 -74.5q0 -48 8 -68q13 -32 55 -32q15 0 44 16.5t39 29.5h12q7 0 7 -12
zM436 92q0 -27 -21 -63q-24 -39 -50 -39q-39 0 -48 109q-2 25 -2 137v85q1 67 1 85q-3 9 11 13q39 2 57 2t33 -5q8 -7 4 -18q-18 -31 -22 -58t-4 -83q0 -85 3 -116q2 -18 20 -28t18 -21z" />
    <glyph glyph-name="v" unicode="v" horiz-adv-x="501" 
d="M421 326q0 -123 -92 -292q-7 -14 -25 -36q-4 -3 -12 -3q-7 0 -16 10q-23 25 -71 92q-66 92 -68 95q-43 58 -80 96q-7 7 -23 8q-13 0 -26 -1q-19 0 -19 16q0 11 9 20q21 18 66 55q13 5 15 5q20 0 33 -17q33 -52 104 -156q31 -41 95 -122q6 0 10 6q47 98 47 170
q0 64 -26 107q-33 57 -102 57q-9 0 -20 -1q-19 -4 -19 10q0 6 5 14.5t57 68.5q10 12 24 12q11 0 47 -21q60 -36 79 -116q8 -33 8 -77z" />
    <glyph glyph-name="w" unicode="w" horiz-adv-x="805" 
d="M730 361q-3 -152 -158 -322q-53 -59 -67 -58q-17 0 -56 96q-53 129 -56 135l-32 88q-22 53 -65 59q-12 5 -12 21q0 5 4 9q85 44 94 44q21 -1 29 -19q34 -97 69 -194q53 -146 68 -147q7 0 40 44q74 97 75 188q1 74 -52 116q-17 12 -65 24q-15 0 -15 6q0 4 7 13q3 4 50 38
q16 12 28 22q4 1 15 1q24 0 57 -40q43 -52 42 -124zM373 171q0 -27 -62.5 -110.5t-80.5 -82.5q-21 0 -58 85q-27 64 -54 129q-34 80 -65 136q-6 11 -19 14q-23 6 -25 7q-17 4 -17 20q0 6 4 10q10 9 44 27q38 21 51 20q22 0 29 -18q33 -87 66 -173q40 -97 81 -165
q21 11 48 55q31 50 43 61h12q2 -3 3 -15z" />
    <glyph glyph-name="x" unicode="x" horiz-adv-x="520" 
d="M474 392q0 -14 -15.5 -35.5t-29.5 -21.5q-10 0 -29.5 5.5t-29.5 5.5q-66 0 -119 -48h-19q-4 0 -4 8q0 28 74.5 82.5t108.5 54.5q21 0 42 -15.5t21 -35.5zM446 88q0 -31 -18 -62q-20 -37 -48 -37q-29 0 -150 148q-132 161 -167 180q-5 3 -22 0l-22 -2q-19 0 -19 22
q0 16 34 43.5t52 27.5q16 0 129 -129q135 -155 137 -158q12 -11 28 -11q7 0 20 2t20 2q26 0 26 -26zM159 10q0 -20 -20 -49.5t-39 -29.5q-28 0 -48 39q-18 34 -18 64q0 79 95 170q16 -3 16 -12q0 2 -21 -29.5t-21 -62.5q0 -32 28 -56t28 -34z" />
    <glyph glyph-name="y" unicode="y" horiz-adv-x="541" 
d="M464 345q-7 -67 -48 -152q-10 -21 -73 -134q-39 -71 -42 -103q-3 -28 19.5 -47.5t20.5 -34.5q-2 -19 -21 -50q-22 -34 -38 -33q-32 4 -47 45q-13 34 -9 69q3 24 25.5 72t22.5 52q2 15 -75 130t-97 133t-31 19h-34q-19 2 -19 16q0 4 3 8q8 12 46 42.5t48 29.5
q21 -2 106 -130l102 -160q27 16 53 80q22 55 26 95q2 13 2 25q0 109 -120 125q-9 -2 -15 5.5t-3 15.5q17 25 34 49q27 33 45 31q54 -6 91 -77q34 -65 28 -121z" />
    <glyph glyph-name="z" unicode="z" horiz-adv-x="465" 
d="M217 405q-31 1 -64 -28q-7 -6 -50 -54q-7 -8 -29 -8q-16 0 -27.5 14t-11.5 31q0 29 19.5 49t49.5 20q-6 0 113 -11v-13zM394 403q0 -16 -131 -182t-131 -189q0 -17 6 -27q-8 -9 -17 -9h-71q-28 0 -36 12l1 22q37 57 142 194q91 120 136 198q36 2 79 2q22 0 22 -21z
M394 98q0 -38 -30 -70t-68 -32q-32 0 -63 4l-35 4v16q57 6 121 99q11 16 36 16q39 0 39 -37z" />
    <glyph glyph-name="braceleft" unicode="{" horiz-adv-x="300" 
d="M134 307q81 -48 81 -170q0 -20 -2.5 -58t-2.5 -54q0 -49 15 -72q18 -30 64 -34v-19h-18q-71 0 -100 39q-22 30 -22 94q0 18 2.5 58t2.5 59q0 119 -81 146v22q81 28 81 136q0 21 -3.5 64t-3.5 63q0 64 26 95q33 39 117 39v-20q-47 -4 -65 -34q-15 -23 -15 -71
q0 -17 2.5 -55t2.5 -58q0 -122 -81 -170z" />
    <glyph glyph-name="bar" unicode="|" horiz-adv-x="226" 
d="M136 649v-647h-66v647h66z" />
    <glyph glyph-name="braceright" unicode="}" horiz-adv-x="301" 
d="M213 307q-80 -48 -80 -170q0 -20 2 -58t2 -54q0 -49 -15 -72q-18 -30 -64 -34v-19h18q72 0 100 39q22 30 22 94q0 18 -2.5 58t-2.5 59q0 119 81 146v22q-81 28 -81 136q0 21 3.5 64t3.5 63q0 64 -26 95q-33 39 -117 39v-20q47 -4 66 -34q14 -23 14 -71q0 -17 -2 -55
t-2 -58q0 -122 80 -170z" />
    <glyph glyph-name="asciitilde" unicode="~" horiz-adv-x="387" 
d="M317 701q-32 0 -85 24t-84 24q-53 0 -69 -30q-7 -11 -19 -11q-23 0 -23 22q0 6 4 11q15 28 44 49q33 25 63 25q42 0 96 -23.5t76 -23.5q38 0 54 25q7 10 18 10q23 0 23 -22q0 -6 -4 -12q-45 -68 -94 -68z" />
    <glyph glyph-name="Adieresis" unicode="&#xc4;" horiz-adv-x="768" 
d="M716 95q3 -29 -18 -67q-24 -41 -52 -41q-38 0 -118 132q-51 83 -142 262q-84 165 -102 191q-14 20 -32.5 32.5t-23.5 23.5q-2 3 -2 6q0 17 31 17h76q37 0 49 -20q18 -41 37 -81q63 -124 181 -353q25 -46 55 -63q4 -2 42 -12q17 -5 19 -27zM452 218l-231 -1l19 39
q2 -1 194 -1zM319 467q-48 -96 -97 -192q-79 -159 -79 -169q0 -35 26 -61q30 -29 30 -30q4 -17 -16 -17q-6 0 -14.5 1.5t-10.5 1.5q-118 0 -145 1l-8 6v11q79 89 157 243q65 130 129 261q7 -15 28 -56zM349 758q0 23 16 39.5t39 16.5t39 -16.5t16 -39.5t-16 -39.5t-39 -16.5
t-39 16.5t-16 39.5zM179 758q0 23 16 39.5t39 16.5t39 -16.5t16 -39.5t-16 -39.5t-39 -16.5t-39 16.5t-16 39.5z" />
    <glyph glyph-name="Aring" unicode="&#xc5;" horiz-adv-x="769" 
d="M716 95q3 -29 -18 -67q-24 -41 -52 -41q-38 0 -118 132q-51 83 -142 262q-84 165 -102 191q-14 20 -32.5 32.5t-23.5 23.5q-2 3 -2 6q0 17 31 17h76q37 0 49 -20q18 -41 37 -81q63 -124 181 -353q25 -46 55 -63q4 -2 42 -12q17 -5 19 -27zM452 218l-231 -1l19 39
q2 -1 194 -1zM319 467q-48 -96 -97 -192q-79 -159 -79 -169q0 -35 26 -61l30 -30q4 -17 -16 -17q-6 0 -14.5 1.5t-10.5 1.5q-118 0 -145 1l-8 6v11q79 89 157 243q65 130 129 261q7 -15 28 -56zM307 844q35 0 59.5 -25t24.5 -60t-24.5 -59.5t-59.5 -24.5q-36 0 -60.5 24.5
t-24.5 59.5q0 36 25 60.5t60 24.5zM306 813q-22 0 -37.5 -15.5t-15.5 -38.5q0 -22 15.5 -38t38.5 -16q22 0 37.5 16t15.5 38q0 23 -15.5 38.5t-38.5 15.5z" />
    <glyph glyph-name="Ccedilla" unicode="&#xc7;" horiz-adv-x="712" 
d="M678 554q0 -20 -15 -30.5t-35 -10.5q-17 0 -46 29q-42 41 -49 47q-25 18 -92 39v29q16 -4 43 -4q18 0 60 3t45 3q46 0 70 -38q19 -29 19 -67zM696 149q0 -18 -19.5 -46.5t-45.5 -46.5q-90 -61 -207 -61q-151 0 -266 93q-125 101 -125 255q0 116 76 206q94 109 257 105
q0 -2 2.5 -6.5t2.5 -11.5t-43 -23q-51 -19 -72 -38q-56 -51 -77 -105q-18 -45 -18 -111q0 -123 90 -206q87 -80 203 -80q49 0 47 0q37 4 82 24q17 8 54 41q34 31 39 31q20 0 20 -20zM468 -108q0 -34 -41 -57q-33 -18 -65 -18q-29 0 -56 10q-35 13 -35 36q0 21 20 32
q33 -20 46 -25q10 -3 34 -3q60 0 60 35q0 17 -14 22q-5 1 -27 1q-45 0 -63 -3q2 3 19 39q11 25 19 25q5 0 20.5 -2.5t22.5 -2.5q-3 -5 -7 -14.5t-7 -14.5q74 0 74 -60z" />
    <glyph glyph-name="Eacute" unicode="&#xc9;" horiz-adv-x="645" 
d="M585 584q0 -19 -18 -39.5t-37 -20.5q-18 0 -59 38t-60 43q-24 7 -52 12v20q35 6 70 13q46 8 68 8q36 0 62 -20t26 -54zM375 349q0 -19 -13.5 -33.5t-32.5 -14.5q-22 0 -41 22q-28 32 -32 35q-12 9 -37 13.5t-33 12.5v12q9 12 60 12q11 0 31.5 3t30.5 3q27 0 47 -19
t20 -46zM616 110q0 -48 -27 -80q-29 -35 -76 -35q-12 0 -30 3q-24 2 -31 3q-33 2 -100 6l-17 7v15q21 7 49 8q37 2 83 45l70 70q14 12 32 12q47 0 47 -54zM282 624q0 -10 -25 -20q-17 -6 -34 -13q-13 -4 -30 -23t-20 -32q-8 -40 -8 -129q0 -36 1.5 -109t1.5 -110
q0 -101 52 -137q12 -6 35 -18v-16q-10 -12 -65 -12q-13 0 -37.5 -1.5t-35 -1.5t-29 -3.5t-27.5 -3.5q-29 0 -38 7q-12 8 -12 35q0 23 18 33q27 15 33 22q18 23 18 79v337q0 42 -36 65t-36 45q0 36 52 36q-9 0 82 -9q41 -1 129 -6q11 -5 11 -15zM261 680h-53l141 129
q23 22 42 22q17 0 28.5 -11.5t11.5 -28.5q0 -29 -28 -43q-140 -68 -142 -68z" />
    <glyph glyph-name="Ntilde" unicode="&#xd1;" horiz-adv-x="777" 
d="M689 538v-542q-5 -4 -24 -4q-8 0 -13 4q-13 11 -80 82q-120 129 -213 219l-122 136q-87 94 -134 104q-34 7 -32 7q-11 0 -24 -8q-19 -4 -29 29l-12 61q-4 20 17 27q15 5 59 5q50 0 90 -19q28 -13 167 -164q85 -94 171 -188q24 -25 113 -114q3 0 8 6v293q0 42 -21 58
q-2 2 -39 17q-22 9 -22 32q0 9 5 14q13 13 48 39q40 30 50 30q37 0 37 -124zM204 108q0 -32 -18 -72q-21 -46 -49 -46q-20 0 -35 26q-14 23 -14 44v439q3 5 9 5q10 0 29.5 -11.5t19.5 -20.5v-249q0 -50 29 -68.5t29 -46.5zM447 696q-32 0 -85.5 24t-83.5 24q-50 0 -65 -27
q-8 -14 -22 -14q-29 0 -29 27q0 7 4 14q16 28 46 50q34 26 66 26q43 0 99 -24q52 -23 73 -23q35 0 50 23q8 12 22 12q28 0 28 -27q0 -8 -5 -15q-46 -70 -98 -70z" />
    <glyph glyph-name="Odieresis" unicode="&#xd6;" horiz-adv-x="765" 
d="M688 329q0 -106 -61 -199q-63 -97 -160 -131q-32 -11 -119 -11q-40 0 -112 29q-99 40 -158 116q-63 81 -63 183q0 84 38 155q15 27 56 65q46 44 70 44q8 0 15 -8v-15q0 -4 -8.5 -13.5t-14.5 -17.5q-45 -63 -45 -153q0 -123 76 -224q82 -110 202 -110q86 0 143 81
q53 74 53 164q0 96 -56 177q-63 92 -154 92q-7 0 -21 -2t-21 -2q-15 0 -25.5 10.5t-10.5 25.5q0 14 15 28q12 12 24 25t34 43q9 6 16 6q4 0 18 -4q117 -34 193 -133t76 -221zM359 768q0 23 16 39.5t39 16.5t39 -16.5t16 -39.5t-16 -39.5t-39 -16.5t-39 16.5t-16 39.5z
M189 768q0 23 16 39.5t39 16.5t39 -16.5t16 -39.5t-16 -39.5t-39 -16.5t-39 16.5t-16 39.5z" />
    <glyph glyph-name="Udieresis" unicode="&#xdc;" horiz-adv-x="730" 
d="M639 454q3 -116 0 -192q1 -20 0 -61q-6 -100 -99 -161q-81 -54 -187 -54q-98 0 -181 56q-95 63 -95 156l1 281q0 30 -37 50.5t-37 36.5q0 20 30 36l48 26q14 12 29.5 25t31.5 13q41 0 41 -93q0 -16 -2 -47.5t-2 -47.5l-1 -273q0 -83 57 -132t141 -49q53 0 94 25
q51 31 72 72q18 33 21 86q2 50 3 100q1 17 1 39q0 142 -7 156q-14 29 -43 40q-23 9 -23 28q0 12 8 19q15 8 42 25q16 17 49 47q7 5 17 5q36 0 36 -65q0 -23 -4 -72t-4 -75zM369 758q0 23 16 39.5t39 16.5t39 -16.5t16 -39.5t-16 -39.5t-39 -16.5t-39 16.5t-16 39.5zM199 758
q0 23 16 39.5t39 16.5t39 -16.5t16 -39.5t-16 -39.5t-39 -16.5t-39 16.5t-16 39.5z" />
    <glyph glyph-name="aacute" unicode="&#xe1;" horiz-adv-x="437" 
d="M379 78q0 -25 -22 -56q-25 -34 -49 -34q-26 0 -44 41q-16 35 -16 65l1 185q0 54 -10 78q-15 40 -60 40q-35 0 -58 -26q-5 -6 -30 -46q-15 -25 -32 -25q-13 0 -29.5 22.5t-16.5 36.5q0 26 69 51q58 21 93 21q48 0 102 -24q64 -29 64 -71v-208q0 -9 19 -21t19 -29zM213 71
q0 -9 -38.5 -44t-51.5 -35q-39 0 -82.5 37.5t-45.5 76.5q-2 57 70 99q61 36 116 36q-3 0 21 -4l-4 -15q-33 -17 -67 -33q-39 -22 -39 -57q0 -25 19.5 -41t44.5 -16q23 0 53 10q4 -17 4 -14zM131 470h-53l141 129q23 22 42 22q17 0 28.5 -11.5t11.5 -28.5q0 -29 -28 -43
q-140 -68 -142 -68z" />
    <glyph glyph-name="agrave" unicode="&#xe0;" horiz-adv-x="433" 
d="M379 78q0 -25 -22 -56q-25 -34 -49 -34q-26 0 -44 41q-16 35 -16 65l1 185q0 54 -10 78q-15 40 -60 40q-35 0 -58 -26q-5 -6 -30 -46q-15 -25 -32 -25q-13 0 -29.5 22.5t-16.5 36.5q0 26 69 51q58 21 93 21q48 0 102 -24q64 -29 64 -71v-208q0 -9 19 -21t19 -29zM213 71
q0 -9 -38.5 -44t-51.5 -35q-39 0 -82.5 37.5t-45.5 76.5q-2 57 70 99q61 36 116 36q-3 0 21 -4l-4 -15q-33 -17 -67 -33q-39 -22 -39 -57q0 -25 19.5 -41t44.5 -16q23 0 53 10q4 -17 4 -14zM236 470h54l-141 129q-23 22 -42 22q-17 0 -28.5 -11.5t-11.5 -28.5q0 -29 28 -43
q140 -68 141 -68z" />
    <glyph glyph-name="acircumflex" unicode="&#xe2;" horiz-adv-x="436" 
d="M379 78q0 -25 -22 -56q-25 -34 -49 -34q-26 0 -44 41q-16 35 -16 65l1 185q0 54 -10 78q-15 40 -60 40q-35 0 -58 -26q-5 -6 -30 -46q-15 -25 -32 -25q-13 0 -29.5 22.5t-16.5 36.5q0 26 69 51q58 21 93 21q48 0 102 -24q64 -29 64 -71v-208q0 -9 19 -21t19 -29zM213 71
q0 -9 -38.5 -44t-51.5 -35q-39 0 -82.5 37.5t-45.5 76.5q-2 57 70 99q61 36 116 36q-3 0 21 -4l-4 -15q-33 -17 -67 -33q-39 -22 -39 -57q0 -25 19.5 -41t44.5 -16q23 0 53 10q4 -17 4 -14zM55 501l-2 1q41 24 126 110l134 -118q8 -7 8 -16q0 -19 -21 -19q-6 0 -12 4
l-109 69q-101 -70 -118 -70q-23 0 -23 23q0 16 17 16z" />
    <glyph glyph-name="adieresis" unicode="&#xe4;" horiz-adv-x="433" 
d="M379 78q0 -25 -22 -56q-25 -34 -49 -34q-26 0 -44 41q-16 35 -16 65l1 185q0 54 -10 78q-15 40 -60 40q-35 0 -58 -26q-5 -6 -30 -46q-15 -25 -32 -25q-13 0 -29.5 22.5t-16.5 36.5q0 26 69 51q58 21 93 21q48 0 102 -24q64 -29 64 -71v-208q0 -9 19 -21t19 -29zM213 71
q0 -9 -38.5 -44t-51.5 -35q-39 0 -82.5 37.5t-45.5 76.5q-2 57 70 99q61 36 116 36q-3 0 21 -4l-4 -15q-33 -17 -67 -33q-39 -22 -39 -57q0 -25 19.5 -41t44.5 -16q23 0 53 10q4 -17 4 -14zM205 528q0 20 13.5 34t32.5 14q20 0 33.5 -14t13.5 -34t-13.5 -34t-33.5 -14
q-19 0 -32.5 14t-13.5 34zM60 528q0 20 14 34t33 14t33 -14t14 -34t-14 -34t-33 -14t-33 14t-14 34z" />
    <glyph glyph-name="atilde" unicode="&#xe3;" horiz-adv-x="433" 
d="M379 78q0 -25 -22 -56q-25 -34 -49 -34q-26 0 -44 41q-16 35 -16 65l1 185q0 54 -10 78q-15 40 -60 40q-35 0 -58 -26q-5 -6 -30 -46q-15 -25 -32 -25q-13 0 -29.5 22.5t-16.5 36.5q0 26 69 51q58 21 93 21q48 0 102 -24q64 -29 64 -71v-208q0 -9 19 -21t19 -29zM213 71
q0 -9 -38.5 -44t-51.5 -35q-39 0 -82.5 37.5t-45.5 76.5q-2 57 70 99q61 36 116 36q-3 0 21 -4l-4 -15q-33 -17 -67 -33q-39 -22 -39 -57q0 -25 19.5 -41t44.5 -16q23 0 53 10q4 -17 4 -14zM242 482q-24 0 -62.5 17t-59.5 17q-36 0 -46 -18q-6 -11 -17 -11q-22 0 -22 21
t31.5 43.5t53.5 22.5q31 0 70 -17t54 -17q25 0 35 16q6 10 17 10q22 0 22 -21q0 -6 -4 -12q-34 -51 -72 -51z" />
    <glyph glyph-name="aring" unicode="&#xe5;" horiz-adv-x="433" 
d="M379 78q0 -25 -22 -56q-25 -34 -49 -34q-26 0 -44 41q-16 35 -16 65l1 185q0 54 -10 78q-15 40 -60 40q-35 0 -58 -26q-5 -6 -30 -46q-15 -25 -32 -25q-13 0 -29.5 22.5t-16.5 36.5q0 26 69 51q58 21 93 21q48 0 102 -24q64 -29 64 -71v-208q0 -9 19 -21t19 -29zM213 71
q0 -9 -38.5 -44t-51.5 -35q-39 0 -82.5 37.5t-45.5 76.5q-2 57 70 99q61 36 116 36q-3 0 21 -4l-4 -15q-33 -17 -67 -33q-39 -22 -39 -57q0 -25 19.5 -41t44.5 -16q23 0 53 10q4 -17 4 -14zM177 644q35 0 59.5 -25t24.5 -60t-24.5 -59.5t-59.5 -24.5q-36 0 -60.5 24.5
t-24.5 59.5q0 36 25 60.5t60 24.5zM176 613q-22 0 -37.5 -15.5t-15.5 -38.5q0 -22 15.5 -38t38.5 -16q22 0 37.5 16t15.5 38q0 23 -15.5 38.5t-38.5 15.5z" />
    <glyph glyph-name="ccedilla" unicode="&#xe7;" horiz-adv-x="440" 
d="M384 386q0 -20 -12 -43q-13 -26 -31 -26t-34 22q-27 38 -29 40q-21 20 -52 18l-4 16q120 11 117 11q17 0 31 -11t14 -27zM391 106q0 -26 -50 -74q-14 -13 -53.5 -28t-59.5 -15q-89 0 -156.5 66t-67.5 155q0 29 4 54q7 44 55 98q51 58 93 58q8 0 13 -8q1 -8 -4 -11
q-8 -6 -25 -19q-50 -46 -50 -135q0 -71 44 -125q46 -57 115 -57q55 0 129 55q13 1 13 -14zM293 -106q0 -30 -35 -49q-27 -15 -55 -15q-24 0 -47 8q-30 11 -30 31q0 18 17 27q38 -24 68 -24q51 0 51 30q0 15 -12 18q-5 2 -23 2q-38 0 -54 -3q2 2 16 33q10 22 16 22
q5 0 18 -2.5t19 -2.5l-12 -24q63 0 63 -51z" />
    <glyph glyph-name="eacute" unicode="&#xe9;" horiz-adv-x="456" 
d="M396 111q0 -55 -69 -90q-56 -30 -100 -26q-94 9 -155 77q-57 63 -57 143q0 88 62.5 149.5t148.5 61.5q11 0 47 -4q22 -3 65 -30q51 -32 51 -57q0 -11 -107 -91q-71 -54 -142 -107q5 -24 47 -48q38 -23 62 -23h22q39 0 73.5 31.5t37.5 31.5q14 0 14 -18zM292 306
q-1 30 -32 56t-60 26q-54 0 -85 -51q-24 -40 -24 -85q0 -13 10 -45t16 -37q61 49 175 136zM151 470h-53l141 129q23 22 42 22q17 0 28.5 -11.5t11.5 -28.5q0 -29 -28 -43q-140 -68 -142 -68z" />
    <glyph glyph-name="egrave" unicode="&#xe8;" horiz-adv-x="458" 
d="M396 111q0 -55 -69 -90q-56 -30 -100 -26q-94 9 -155 77q-57 63 -57 143q0 88 62.5 149.5t148.5 61.5q11 0 47 -4q22 -3 65 -30q51 -32 51 -57q0 -11 -107 -91q-71 -54 -142 -107q5 -24 47 -48q38 -23 62 -23h22q39 0 73.5 31.5t37.5 31.5q14 0 14 -18zM292 306
q-1 30 -32 56t-60 26q-54 0 -85 -51q-24 -40 -24 -85q0 -13 10 -45t16 -37q61 49 175 136zM256 470h54l-141 129q-23 22 -42 22q-17 0 -28.5 -11.5t-11.5 -28.5q0 -29 28 -43q140 -68 141 -68z" />
    <glyph glyph-name="ecircumflex" unicode="&#xea;" horiz-adv-x="459" 
d="M396 111q0 -55 -69 -90q-56 -30 -100 -26q-94 9 -155 77q-57 63 -57 143q0 88 62.5 149.5t148.5 61.5q11 0 47 -4q22 -3 65 -30q51 -32 51 -57q0 -11 -107 -91q-71 -54 -142 -107q5 -24 47 -48q38 -23 62 -23h22q39 0 73.5 31.5t37.5 31.5q14 0 14 -18zM292 306
q-1 30 -32 56t-60 26q-54 0 -85 -51q-24 -40 -24 -85q0 -13 10 -45t16 -37q61 49 175 136zM95 501l-2 1q41 24 125 109l135 -117q8 -7 8 -16q0 -19 -21 -19q-6 0 -12 4l-109 69q-101 -70 -118 -70q-23 0 -23 23q0 16 17 16z" />
    <glyph glyph-name="edieresis" unicode="&#xeb;" horiz-adv-x="458" 
d="M396 111q0 -55 -69 -90q-56 -30 -100 -26q-94 9 -155 77q-57 63 -57 143q0 88 62.5 149.5t148.5 61.5q11 0 47 -4q22 -3 65 -30q51 -32 51 -57q0 -11 -107 -91q-71 -54 -142 -107q5 -24 47 -48q38 -23 62 -23h22q39 0 73.5 31.5t37.5 31.5q14 0 14 -18zM292 306
q-1 30 -32 56t-60 26q-54 0 -85 -51q-24 -40 -24 -85q0 -13 10 -45t16 -37q61 49 175 136zM235 528q0 20 13.5 34t32.5 14q20 0 33.5 -14t13.5 -34t-13.5 -34t-33.5 -14q-19 0 -32.5 14t-13.5 34zM90 528q0 20 14 34t33 14t33 -14t14 -34t-14 -34t-33 -14t-33 14t-14 34z
" />
    <glyph glyph-name="iacute" unicode="&#xed;" horiz-adv-x="261" 
d="M185 94q0 -25 -22 -62q-25 -39 -47 -39t-38 28q-14 25 -14 49q0 34 3 101t3 101q0 39 -8 49q-1 2 -38 26q-4 24 -4 18q0 8 43 35.5t54 27.5q34 0 34 -86q0 -34 -5 -80v-75q0 -41 10 -56q3 -5 19 -14q10 -6 10 -23zM31 470h-53l141 129q23 22 42 22q17 0 28.5 -11.5
t11.5 -28.5q0 -29 -28 -43q-140 -68 -142 -68z" />
    <glyph glyph-name="igrave" unicode="&#xec;" horiz-adv-x="254" 
d="M185 94q0 -25 -22 -62q-25 -39 -47 -39t-38 28q-14 25 -14 49q0 34 3 101t3 101q0 39 -8 49q-1 2 -38 26q-4 24 -4 18q0 8 43 35.5t54 27.5q34 0 34 -86q0 -34 -5 -80v-75q0 -41 10 -56q3 -5 19 -14q10 -6 10 -23zM156 470h54l-141 129q-23 22 -42 22q-17 0 -28.5 -11.5
t-11.5 -28.5q0 -29 28 -43q140 -68 141 -68z" />
    <glyph glyph-name="icircumflex" unicode="&#xee;" horiz-adv-x="257" 
d="M185 94q0 -25 -22 -62q-25 -39 -47 -39t-38 28q-14 25 -14 49q0 34 3 101t3 101q0 39 -8 49q-1 2 -38 26q-4 24 -4 18q0 8 43 35.5t54 27.5q34 0 34 -86q0 -34 -5 -80v-75q0 -41 10 -56q3 -5 19 -14q10 -6 10 -23zM1 501q-1 0 -2 1q33 24 100 108l108 -116q6 -7 6 -16
q0 -19 -16 -19q-5 0 -10 4l-88 69q-80 -70 -94 -70q-18 0 -18 23q0 16 14 16z" />
    <glyph glyph-name="idieresis" unicode="&#xef;" horiz-adv-x="254" 
d="M185 94q0 -25 -22 -62q-25 -39 -47 -39t-38 28q-14 25 -14 49q0 34 3 101t3 101q0 39 -8 49q-1 2 -38 26q-4 24 -4 18q0 8 43 35.5t54 27.5q34 0 34 -86q0 -34 -5 -80v-75q0 -41 10 -56q3 -5 19 -14q10 -6 10 -23zM116 528q0 20 14 34t33 14t33 -14t14 -34t-14 -34
t-33 -14t-33 14t-14 34zM-11 528q0 20 13.5 34t32.5 14q20 0 33.5 -14t13.5 -34t-13.5 -34t-33.5 -14q-19 0 -32.5 14t-13.5 34z" />
    <glyph glyph-name="ntilde" unicode="&#xf1;" horiz-adv-x="501" 
d="M438 90q1 -29 -18 -63q-22 -38 -50 -38q-32 0 -42 49q-3 19 -3 75v74q-1 49 -1 74q0 119 -84 119q-25 0 -68 -31h-11q-8 0 -8 12q0 21 50 42q44 18 71 18q82 0 114 -46q23 -35 23 -109q0 -15 -2 -54q-1 -34 0 -53q1 -48 29 -61v-8zM137 42q0 -23 -5 -32q-8 -14 -38 -14
q-20 0 -42 8q-4 9 -4 22t4.5 39.5t4.5 39.5v141q0 23 -2 50q-2 18 -22 26q-23 10 -25 14q-4 1 -4 10q0 11 45.5 43t59.5 32q8 0 18 -11.5t10 -20.5v-347zM282 472q-24 0 -62.5 17t-59.5 17q-36 0 -46 -18q-6 -11 -17 -11q-22 0 -22 21t31.5 43.5t53.5 22.5q31 0 70 -17
t54 -17q25 0 35 16q6 10 17 10q22 0 22 -21q0 -6 -4 -12q-34 -51 -72 -51z" />
    <glyph glyph-name="oacute" unicode="&#xf3;" horiz-adv-x="470" 
d="M420 210q0 -84 -49 -149q-53 -71 -134 -71q-89 0 -155 59q-69 62 -69 151q0 126 116 175l11 -14q-47 -67 -47 -127q0 -71 45 -138q50 -75 117 -75q46 0 73 50q22 41 22 92q0 46 -29 104q-33 65 -70 65q-5 0 -10 -1l-45 -13q-14 0 -14 16q0 15 23 53.5t37 38.5
q72 0 127 -74q51 -69 51 -142zM161 470h-53l141 129q23 22 42 22q17 0 28.5 -11.5t11.5 -28.5q0 -29 -28 -43q-140 -68 -142 -68z" />
    <glyph glyph-name="ograve" unicode="&#xf2;" horiz-adv-x="468" 
d="M420 210q0 -84 -49 -149q-53 -71 -134 -71q-89 0 -155 59q-69 62 -69 151q0 126 116 175l11 -14q-47 -67 -47 -127q0 -71 45 -138q50 -75 117 -75q46 0 73 50q22 41 22 92q0 46 -29 104q-33 65 -70 65q-5 0 -10 -1l-45 -13q-14 0 -14 16q0 15 23 53.5t37 38.5
q72 0 127 -74q51 -69 51 -142zM266 470h54l-141 129q-23 22 -42 22q-17 0 -28.5 -11.5t-11.5 -28.5q0 -29 28 -43q140 -68 141 -68z" />
    <glyph glyph-name="ocircumflex" unicode="&#xf4;" horiz-adv-x="472" 
d="M420 210q0 -84 -49 -149q-53 -71 -134 -71q-89 0 -155 59q-69 62 -69 151q0 126 116 175l11 -14q-47 -67 -47 -127q0 -71 45 -138q50 -75 117 -75q46 0 73 50q22 41 22 92q0 46 -29 104q-33 65 -70 65q-5 0 -10 -1l-45 -13q-14 0 -14 16q0 15 23 53.5t37 38.5
q72 0 127 -74q51 -69 51 -142zM95 501l-2 1q41 24 126 109l134 -117q8 -7 8 -16q0 -19 -21 -19q-6 0 -12 4l-109 69q-101 -70 -118 -70q-23 0 -23 23q0 16 17 16z" />
    <glyph glyph-name="odieresis" unicode="&#xf6;" horiz-adv-x="471" 
d="M420 210q0 -84 -49 -149q-53 -71 -134 -71q-89 0 -155 59q-69 62 -69 151q0 126 116 175l11 -14q-47 -67 -47 -127q0 -71 45 -138q50 -75 117 -75q46 0 73 50q22 41 22 92q0 46 -29 104q-33 65 -70 65q-5 0 -10 -1l-45 -13q-14 0 -14 16q0 15 23 53.5t37 38.5
q72 0 127 -74q51 -69 51 -142zM235 528q0 20 13.5 34t32.5 14q20 0 33.5 -14t13.5 -34t-13.5 -34t-33.5 -14q-19 0 -32.5 14t-13.5 34zM90 528q0 20 14 34t33 14t33 -14t14 -34t-14 -34t-33 -14t-33 14t-14 34z" />
    <glyph glyph-name="otilde" unicode="&#xf5;" horiz-adv-x="472" 
d="M420 210q0 -84 -49 -149q-53 -71 -134 -71q-89 0 -155 59q-69 62 -69 151q0 126 116 175l11 -14q-47 -67 -47 -127q0 -71 45 -138q50 -75 117 -75q46 0 73 50q22 41 22 92q0 46 -29 104q-33 65 -70 65q-5 0 -10 -1l-45 -13q-14 0 -14 16q0 15 23 53.5t37 38.5
q72 0 127 -74q51 -69 51 -142zM282 482q-24 0 -62.5 17t-59.5 17q-36 0 -46 -18q-6 -11 -17 -11q-22 0 -22 21t31.5 43.5t53.5 22.5q31 0 70 -17t54 -17q25 0 35 16q6 10 17 10q22 0 22 -21q0 -6 -4 -12q-34 -51 -72 -51z" />
    <glyph glyph-name="uacute" unicode="&#xfa;" horiz-adv-x="506" 
d="M302 81q0 -30 -77 -73q-33 -18 -68 -18q-101 0 -101 136q0 20 2.5 60t2.5 61q0 54 -6 71q-5 12 -20 16q-19 6 -31 18q-6 12 4.5 22.5t46 31.5t44.5 21q17 0 30.5 -15t13.5 -33v-83q0 -25 -3 -74.5t-3 -74.5q0 -48 8 -68q13 -32 55 -32q15 0 44 16.5t39 29.5h12q7 0 7 -12
zM436 92q0 -27 -21 -63q-24 -39 -50 -39q-39 0 -48 109q-2 25 -2 137v85q1 67 1 85q-3 9 11 13q39 2 57 2t33 -5q8 -7 4 -18q-18 -31 -22 -58t-4 -83q0 -85 3 -116q2 -18 20 -28t18 -21zM181 470h-53l141 129q23 22 42 22q17 0 28.5 -11.5t11.5 -28.5q0 -29 -28 -43
q-140 -68 -142 -68z" />
    <glyph glyph-name="ugrave" unicode="&#xf9;" horiz-adv-x="503" 
d="M302 81q0 -30 -77 -73q-33 -18 -68 -18q-101 0 -101 136q0 20 2.5 60t2.5 61q0 54 -6 71q-5 12 -20 16q-19 6 -31 18q-6 12 4.5 22.5t46 31.5t44.5 21q17 0 30.5 -15t13.5 -33v-83q0 -25 -3 -74.5t-3 -74.5q0 -48 8 -68q13 -32 55 -32q15 0 44 16.5t39 29.5h12q7 0 7 -12
zM436 92q0 -27 -21 -63q-24 -39 -50 -39q-39 0 -48 109q-2 25 -2 137v85q1 67 1 85q-3 9 11 13q39 2 57 2t33 -5q8 -7 4 -18q-18 -31 -22 -58t-4 -83q0 -85 3 -116q2 -18 20 -28t18 -21zM276 470h54l-141 129q-23 22 -42 22q-17 0 -28.5 -11.5t-11.5 -28.5q0 -29 28 -43
q140 -68 141 -68z" />
    <glyph glyph-name="ucircumflex" unicode="&#xfb;" horiz-adv-x="506" 
d="M302 81q0 -30 -77 -73q-33 -18 -68 -18q-101 0 -101 136q0 20 2.5 60t2.5 61q0 54 -6 71q-5 12 -20 16q-19 6 -31 18q-6 12 4.5 22.5t46 31.5t44.5 21q17 0 30.5 -15t13.5 -33v-83q0 -25 -3 -74.5t-3 -74.5q0 -48 8 -68q13 -32 55 -32q15 0 44 16.5t39 29.5h12q7 0 7 -12
zM436 92q0 -27 -21 -63q-24 -39 -50 -39q-39 0 -48 109q-2 25 -2 137q0 25 -1 80q-1 50 -1 81q-1 4 2.5 12t11.5 10q39 2 57 2t33 -5q8 -7 4 -18q-18 -31 -22 -58t-4 -83q0 -85 3 -116q2 -18 20 -28t18 -21zM95 501l-2 1q41 24 127 114l133 -122q7 -7 7 -16q0 -19 -20 -19
q-6 0 -12 4l-109 69q-101 -70 -118 -70q-23 0 -23 23q0 16 17 16z" />
    <glyph glyph-name="udieresis" unicode="&#xfc;" horiz-adv-x="506" 
d="M302 81q0 -30 -77 -73q-33 -18 -68 -18q-101 0 -101 136q0 20 2.5 60t2.5 61q0 54 -6 71q-5 12 -20 16q-19 6 -31 18q-6 12 4.5 22.5t46 31.5t44.5 21q17 0 30.5 -15t13.5 -33v-83q0 -25 -3 -74.5t-3 -74.5q0 -48 8 -68q13 -32 55 -32q15 0 44 16.5t39 29.5h12q7 0 7 -12
zM436 92q0 -27 -21 -63q-24 -39 -50 -39q-39 0 -48 109q-2 25 -2 137v85q1 67 1 85q-3 9 11 13q39 2 57 2t33 -5q8 -7 4 -18q-18 -31 -22 -58t-4 -83q0 -85 3 -116q2 -18 20 -28t18 -21zM235 528q0 20 13.5 34t32.5 14q20 0 33.5 -14t13.5 -34t-13.5 -34t-33.5 -14
q-19 0 -32.5 14t-13.5 34zM90 528q0 20 14 34t33 14t33 -14t14 -34t-14 -34t-33 -14t-33 14t-14 34z" />
    <glyph glyph-name="dagger" unicode="&#x2020;" horiz-adv-x="370" 
d="M194 492q19 0 53 13.5t51 13.5q36 0 36 -37q0 -40 -40 -40q-16 0 -48.5 13t-51.5 14q0 -87 33 -135q-24 -66 -30 -158q-3 -38 -3 -161h-25q0 121 -2 161q-6 91 -30 158q33 49 33 135q-19 -1 -51.5 -14t-48.5 -13q-17 0 -28.5 11.5t-11.5 28.5q0 37 37 37q16 0 50 -13.5
t53 -13.5q0 23 -13.5 64.5t-13.5 60.5q0 41 39 41t39 -41q0 -20 -13.5 -61t-13.5 -64z" />
    <glyph glyph-name="degree" unicode="&#xb0;" horiz-adv-x="434" 
d="M203 686q64 0 105.5 -44.5t41.5 -108.5t-43 -108.5t-108 -44.5q-64 0 -106.5 44.5t-42.5 109.5q0 63 44.5 107.5t108.5 44.5zM199 629q-39 0 -66 -28.5t-27 -67.5t27.5 -67t66.5 -28q40 0 66 27.5t26 67.5t-26.5 68t-66.5 28z" />
    <glyph glyph-name="cent" unicode="&#xa2;" horiz-adv-x="452" 
d="M384 546q0 -20 -12 -43q-13 -26 -31 -26t-24 22q-9 39 -10 40q-10 20 -41 18l-4 16q16 1 39 7q17 4 38 4q17 0 31 -11t14 -27zM391 266q0 -26 -50 -74q-14 -13 -53.5 -28t-59.5 -15q-89 0 -156.5 66t-67.5 155q0 29 4 54q7 44 55 98q51 58 93 58q8 0 13 -8q1 -8 -4 -11
q-8 -6 -25 -19q-50 -46 -50 -135q0 -71 44 -125q46 -57 115 -57q55 0 129 55q13 1 13 -14zM233 649v-374q0 -20 -20 -20t-20 20v374q0 20 20 20t20 -20zM233 119v-66q0 -20 -20 -20t-20 20v66q0 20 20 20t20 -20z" />
    <glyph glyph-name="sterling" unicode="&#xa3;" horiz-adv-x="786" 
d="M665 578q0 -13 -19.5 -39.5t-31.5 -26.5h-11q-36 0 -61.5 52.5t-57.5 52.5q-73 0 -73 -165q0 -23 5 -110q47 -2 93 -1v-52q-43 -2 -92 0q0 -3 -1 -8q-49 -296 -268 -296q-41 0 -81 16q-51 20 -51 53q0 39 59 62q45 18 92 18q25 0 51 -6q38 -8 38 -23q0 -5 -11.5 -17
t-17.5 -12q-11 0 -35 5.5t-36 5.5q-28 0 -57 -7q-42 -10 -42 -29q0 -29 76 -29q181 0 178 254l-1 14h-90q-2 4 -2 13q0 16 3 38h84q1 42 7 126q13 82 61 134q53 57 133 57q31 0 84 -15q16 -5 45.5 -28t29.5 -37zM763 115q0 -14 -12 -41t-23 -40q-45 -56 -137 -56
q-63 0 -128 23q-43 14 -119 53q11 29 30 29q7 0 55 -13.5t72 -13.5q122 0 198 149h13q51 -70 51 -90z" />
    <glyph glyph-name="section" unicode="&#xa7;" horiz-adv-x="419" 
d="M233 203q41 -34 57 -54q26 -33 26 -73q0 -48 -36 -77t-85 -29q-42 0 -76 23q-39 26 -39 67q0 18 13 30.5t32 12.5q17 0 30 -11t13 -28q0 -14 -10 -25q-17 -19 -18 -20q10 -22 51 -22q27 0 48.5 14.5t21.5 40.5q0 35 -58 83q-54 45 -108 89q-58 58 -58 117q0 49 32.5 77.5
t81.5 26.5q-40 39 -52 56q-24 33 -24 71q0 48 34 77t84 29q42 0 75 -23q38 -26 38 -66q0 -18 -13 -31t-31 -13t-31 11.5t-13 28.5q0 15 10 25l18 20q-9 21 -50 21q-26 0 -46 -15t-20 -41q0 -31 57 -79q104 -88 105 -90q57 -58 57 -111t-32 -83.5t-84 -28.5zM146 424
q-25 0 -41 -17t-16 -41q0 -39 57 -91t96 -52q22 0 38 17.5t16 40.5q0 40 -55.5 91.5t-94.5 51.5z" />
    <glyph glyph-name="bullet" unicode="&#x2022;" horiz-adv-x="516" 
d="M305 554q69 0 117.5 -50t48.5 -119q0 -70 -49 -119t-120 -49q-70 0 -119 49t-49 119q0 72 49.5 120.5t121.5 48.5z" />
    <glyph glyph-name="paragraph" unicode="&#xb6;" horiz-adv-x="500" 
d="M212 337h-24q-158 0 -158 160q0 150 138 158q7 1 48 1h220v-29q-29 -2 -36 -5q-16 -6 -16 -27v-37v-457q0 -41 1 -47q2 -15 20 -19q4 -1 31 -3v-29h-287v29h3q47 0 55 11q5 6 5 20v38v236zM212 627q-35 0 -54 -18t-19 -80v-67q0 -99 63 -99h10v264zM332 627h-68v-595h68
v595z" />
    <glyph glyph-name="germandbls" unicode="&#xdf;" horiz-adv-x="503" 
d="M325 523q0 -46 -30 -73q-22 -20 -57 -28q-28 -6 -32 -3v-25q45 1 68 -14q77 -52 77 -176q0 -50 -12 -104q-17 -76 -49 -76q-26 0 -26 37q0 27 10 49q3 7 3 11q0 8 -15 8q-29 0 -49 -16t-20 -43q0 -40 32 -61q27 -18 69 -18q68 0 106 69q33 59 33 146q0 154 -122 198
q47 24 63 45q20 26 20 78q0 143 -183 135q-75 -4 -107 -45q-25 -31 -30 -93q-3 -52 -5 -103h-56v-26h56q1 -47 1 -456q0 -121 58 -121q26 0 49 47q19 41 19 71q0 -2 -26.5 60t-26.5 124q0 6 -2.5 81.5t-2.5 132.5q0 290 66 292q77 3 99 -17.5t22 -85.5z" />
    <glyph glyph-name="registered" unicode="&#xae;" horiz-adv-x="459" 
d="M201 649q76 0 130.5 -56t54.5 -132q0 -77 -55 -132.5t-133 -55.5q-77 0 -132.5 55.5t-55.5 132.5q0 79 55.5 133.5t135.5 54.5zM196 626q-66 0 -113.5 -49t-47.5 -116q0 -68 48 -116.5t115 -48.5q68 0 116 48.5t48 116.5q0 69 -48 117t-118 48zM171 463v-62q0 -9 1 -16
q8 -2 29 -2v-21h-101v21q22 0 30 3q1 6 1 15v137q0 9 -1 16q-9 2 -30 2v21h105q78 0 78 -55q0 -39 -52 -53q21 -11 27.5 -33.5t12.5 -44.5l6 -4q8 0 9 29h19v-7q0 -51 -39 -51q-31 0 -35.5 26.5t-8.5 51.5q-10 27 -51 27zM171 483h29q40 0 40 39q0 26 -19 32q-7 3 -42 3
q-8 0 -8 -14v-60z" />
    <glyph glyph-name="copyright" unicode="&#xa9;" horiz-adv-x="783" 
d="M373 660q137 0 235.5 -100.5t98.5 -238.5q0 -139 -99.5 -239t-239.5 -100q-139 0 -238.5 100t-99.5 238q0 143 100 241.5t243 98.5zM365 618q-120 0 -205 -88.5t-85 -208.5q0 -122 86 -209.5t208 -87.5q121 0 207.5 87.5t86.5 208.5q0 125 -86.5 211.5t-211.5 86.5z
M507 520l8 -163h-34q-33 130 -113 130q-101 0 -101 -171q0 -157 107 -157q92 0 112 116l36 -6q-19 -147 -154 -147q-82 0 -132 57t-50 140q0 80 50 140q53 64 132 64q43 0 90 -31l20 28h29z" />
    <glyph glyph-name="trademark" unicode="&#x2122;" horiz-adv-x="793" 
d="M278 649l7 -126h-27q-12 98 -68 98q-14 0 -14 -11v-217q0 -21 1 -23q4 -5 32 -5h15v-28h-152v28h15q28 0 31 5q2 2 2 23v217q0 11 -14 11q-41 0 -56 -44q-7 -19 -12 -54h-26l7 126h259zM450 649l80 -215l78 215h112v-28h-12q-29 0 -31 -3.5t-2 -24.5v-199q0 -21 2 -24.5
t31 -3.5h12v-29h-146v29h12q28 0 30.5 3.5t2.5 24.5v199l-92 -255h-18l-98 257v-162q0 -38 6 -50q9 -17 42 -17v-29h-128v29q33 0 43 17q6 11 6 50v160q0 21 -2.5 24.5t-31.5 3.5h-12v28h116z" />
    <glyph glyph-name="acute" unicode="&#xb4;" horiz-adv-x="281" 
d="M85 450h-53l141 130q23 22 42 22q17 0 28.5 -11.5t11.5 -28.5q0 -30 -28 -43q-140 -69 -142 -69z" />
    <glyph glyph-name="dieresis" unicode="&#xa8;" horiz-adv-x="362" 
d="M218 516q0 23 16 39.5t38 16.5q23 0 39 -16.5t16 -39.5t-16 -39.5t-39 -16.5q-22 0 -38 16.5t-16 39.5zM48 516q0 23 16 39.5t38 16.5q23 0 39 -16.5t16 -39.5t-16 -39.5t-39 -16.5q-22 0 -38 16.5t-16 39.5z" />
    <glyph glyph-name="AE" unicode="&#xc6;" horiz-adv-x="1148" 
d="M1092 587q0 -57 -62 -57q-21 0 -63 32t-76 38q-26 4 -63 3q-11 11 -11 21q3 13 30 16q20 0 40.5 1.5t64.5 9t48 7.5q36 0 64 -20t28 -51zM877 347q0 -19 -15 -34.5t-33 -15.5q-26 0 -43 19q-29 32 -46 43q-20 6 -60 21v30q17 -2 46 -2q19 1 46.5 2t28.5 1q29 0 50 -15
q26 -17 26 -49zM1119 141q1 -9 1 -18q0 -47 -30 -89q-33 -44 -78 -44q2 0 -167 24v21q25 6 49 11q31 8 57.5 22.5t67.5 56.5q30 30 61 34q22 3 39 -18zM780 14q-4 -3 -65 0q-63 2 -69 1q-75 -15 -106 -15q-48 0 -48 36q0 21 35.5 36.5t37.5 38.5q3 28 3 175v126
q0 95 -13 129q-9 21 -38 35q-25 12 -25 39q0 28 15 37q10 6 36 6q29 0 219 -24v-25q-25 -6 -50 -20q-34 -20 -40 -44l-16 -63l1 -233q8 -48 7 -65q-1 -43 33 -83q32 -36 76 -54q2 -2 7 -8v-25zM547 160h-22q-17 34 -50 101q-14 32 -39 87l-32 64q-23 51 -47 101
q-27 56 -70 84q-11 6 -22 11.5t-11 19.5q0 9 8.5 19t22.5 10q3 0 35 -2q37 -3 66 -4q161 -290 161 -306v-185zM464 227h-227q2 21 23 42h185q6 -19 19 -42zM341 495l-187 -378q0 -20 22.5 -47.5t22.5 -30.5q13 -10 13 -21t-13 -17h-182q0 1 -2.5 4t-2.5 10q0 10 34 47
q39 42 43 49q18 29 41 78q27 57 39 79q48 90 147 271q16 -16 25 -44z" />
    <glyph glyph-name="Oslash" unicode="&#xd8;" horiz-adv-x="765" 
d="M517 494l-301 -362q79 -93 188 -93q86 0 143 81q53 74 53 164q0 54 -22 112t-61 98zM650 654l-62 -75q100 -107 100 -250q0 -106 -61 -199q-63 -97 -160 -131q-32 -11 -119 -11q-40 0 -112 29q-44 18 -80 43l-63 -75l-38 32l62 74q-102 93 -102 225q0 84 38 155
q15 27 56 65q46 44 70 44q8 0 15 -8v-15q0 -4 -8.5 -13.5t-14.5 -17.5q-45 -63 -45 -153q0 -105 59 -200l294 353q-42 27 -89 27q-7 0 -21 -2t-21 -2q-15 0 -25.5 10.5t-10.5 25.5q0 14 15 28q12 12 24 25t34 43q9 6 16 6q4 0 18 -4q73 -21 132 -70l60 73z" />
    <glyph glyph-name="plusminus" unicode="&#xb1;" 
 />
    <glyph glyph-name="yen" unicode="&#xa5;" horiz-adv-x="601" 
d="M198 264h102q-42 68 -64 90q-37 46 -75 92q-55 66 -87 66q-5 0 -15 -2t-15 -2q-35 0 -35 34q0 16 11 25q7 4 57 31t54 27q16 0 26 -9q22 -21 49 -57q22 -30 45 -60q17 -21 65 -97q37 -58 72 -91q41 37 69.5 97.5t28.5 113.5q0 89 -63 112q-2 1 -35 1q-27 0 -27 25
q0 11 5 15q25 21 74 64q9 5 15 5q27 0 61 -39q30 -35 39 -64q12 -39 12 -66q0 -68 -49 -156q-27 -49 -92 -139q-5 -7 -8 -16h104v-40h-111q-1 -16 -1 -40h112v-40h-111q0 -43 4 -59q7 -24 48 -31q37 -6 37 -39q0 -10 -10.5 -17.5t-21.5 -7.5q-16 0 -48 5.5t-48 5.5
t-48.5 -5.5t-48.5 -5.5q-34 0 -34 25q0 21 18 27.5t36 12.5q24 14 24 89h-121v40h120q-1 24 -4 40h-116v40z" />
    <glyph glyph-name="mu" unicode="&#xb5;" horiz-adv-x="622" 
d="M621 105q0 -37 -39 -76.5t-76 -39.5q-15 0 -83 7t-75 10.5t-7 12.5q0 6 14 16h7q70 -2 157 102q5 7 27 13t34 6q41 0 41 -51zM273 19q0 -6 -4 -15q-13 -2 -31 -2q-14 0 -42 3t-42 3t-43.5 -5.5t-43.5 -5.5q-27 0 -37 5q-14 7 -14 31q0 7 25 30q29 27 32 31q25 37 25 133
v46l-95 -85q-2 55 0 55q17 15 95 86v92q0 54 -2 65q-2 27 -37.5 43t-35.5 35q0 16 11 24q19 9 54 30q16 13 34 26.5t37 13.5t33 -41q12 -33 12 -58q0 -19 -5.5 -58.5t-5.5 -58.5v-25l94 86v-61l-94 -84v-143q0 -52 4 -76q7 -40 31 -69q13 -13 26 -25q19 -19 19 -26z" />
    <glyph glyph-name="mu" unicode="&#x3bc;" horiz-adv-x="622" 
d="M621 105q0 -37 -39 -76.5t-76 -39.5q-15 0 -83 7t-75 10.5t-7 12.5q0 6 14 16h7q70 -2 157 102q5 7 27 13t34 6q41 0 41 -51zM273 19q0 -6 -4 -15q-13 -2 -31 -2q-14 0 -42 3t-42 3t-43.5 -5.5t-43.5 -5.5q-27 0 -37 5q-14 7 -14 31q0 7 25 30q29 27 32 31q25 37 25 133
v46l-95 -85q-2 55 0 55q17 15 95 86v92q0 54 -2 65q-2 27 -37.5 43t-35.5 35q0 16 11 24q19 9 54 30q16 13 34 26.5t37 13.5t33 -41q12 -33 12 -58q0 -19 -5.5 -58.5t-5.5 -58.5v-25l94 86v-61l-94 -84v-143q0 -52 4 -76q7 -40 31 -69q13 -13 26 -25q19 -19 19 -26z" />
    <glyph glyph-name="ordfeminine" unicode="&#xaa;" horiz-adv-x="590" 
d="M333 652q-1 -11 -19 -20q-13 -6 -27 -12q-36 -26 -73 -53q-48 -35 -75 -44q-14 -4 -38 -4q-59 0 -59 41q0 32 20.5 60.5t50.5 28.5q12 0 35 -5t34 -5q14 0 52 6.5t52 6.5h47zM523 619q0 -19 -5 -29q-16 -30 -199 -281q-165 -226 -165 -257q0 -7 7 -20.5t7 -20.5
q0 -17 -12 -17h-121q-16 11 -16 27q0 46 51 116q86 112 171 224q120 158 149 223q7 14 7 34q0 18 -5 34q42 8 90 8q41 0 41 -41zM489 -3q-18 0 -55 7t-55 7q-16 0 -64.5 -7t-65.5 -7l-8 8q2 10 8 15q13 5 37 17q39 17 103 50q48 33 98 33t50 -53q0 -42 -4 -51
q-8 -19 -44 -19zM424 775l2 -1q-41 -25 -127 -95l-133 103q-8 6 -8 15q0 19 21 19q6 0 12 -3l111 -60q99 61 116 61q23 0 23 -23q0 -16 -17 -16z" />
    <glyph glyph-name="ordmasculine" unicode="&#xba;" horiz-adv-x="465" 
d="M217 405q-31 1 -64 -28q-7 -6 -50 -54q-7 -8 -29 -8q-16 0 -27.5 14t-11.5 31q0 29 19.5 49t49.5 20q-6 0 113 -11v-13zM394 403q0 -16 -131 -182t-131 -189q0 -17 6 -27q-8 -9 -17 -9h-71q-28 0 -36 12l1 22q37 57 142 194q91 120 136 198q36 2 79 2q22 0 22 -21z
M394 98q0 -38 -30 -70t-68 -32q-32 0 -63 4l-35 4v16q57 6 121 99q11 16 36 16q39 0 39 -37zM344 555l2 -1q-41 -25 -127 -95l-133 103q-8 6 -8 15q0 19 21 19q6 0 12 -3l111 -60q99 61 116 61q23 0 23 -23q0 -16 -17 -16z" />
    <glyph glyph-name="ae" unicode="&#xe6;" horiz-adv-x="693" 
d="M626 111q0 -50 -59 -85q-50 -30 -105 -31q-124 -4 -174 92q-38 72 -38 217q0 93 -71 93q-34 0 -57 -26q-6 -6 -31 -46q-15 -25 -32 -25q-13 0 -29.5 22t-16.5 37q0 26 69 51q58 21 93 21q34 0 75.5 -17t65.5 -41q59 48 133 52q51 2 108 -24q62 -29 62 -66q0 -10 -114 -97
q-67 -50 -135 -101q7 -32 54 -53q40 -18 77 -18t73 31.5t38 31.5q14 0 14 -18zM522 306q-1 29 -31.5 55.5t-60.5 26.5q-97 0 -97 -129q0 -74 14 -89q61 49 175 136zM249 77q0 -9 -56.5 -47t-69.5 -38q-38 0 -83 38t-45 76q0 56 70 102q64 43 123 43q15 0 15 -12
q0 -16 -28 -30q-50 -24 -54 -27q-29 -19 -29 -50q0 -25 19.5 -41t44.5 -16t84 19q9 -19 9 -17z" />
    <glyph glyph-name="oslash" unicode="&#xf8;" horiz-adv-x="477" 
d="M308 289l-160 -207q48 -61 107 -61q46 0 73 50q22 41 22 92q0 61 -42 126zM43 13l33 42q-63 61 -63 145q0 126 116 175l11 -14q-47 -67 -47 -127q0 -57 32 -116l156 202q-20 16 -40 11l-45 -13q-14 0 -14 16q0 15 23 53.5t37 38.5q50 0 93 -37l32 41l32 -24l-36 -46
q54 -68 54 -146q0 -85 -47 -151q-52 -73 -133 -73q-71 0 -130 40l-32 -42z" />
    <glyph glyph-name="questiondown" unicode="&#xbf;" horiz-adv-x="359" 
d="M385 -100q0 -27 -47 -57q-41 -25 -74 -30t-50 -5q-71 0 -121 31q-60 37 -60 103q0 52 43 108l78 92q43 51 43 90q0 11 -4 33t-3 34v5l10 15q22 -4 34 -35q9 -24 9 -51q0 -62 -56 -140t-56 -119q0 -74 83 -74q29 0 60 23q28 21 42 49q13 -3 41 -31t28 -41zM145 415
q0 8 27.5 35.5t34.5 27.5q8 0 35.5 -25t27.5 -33q0 -10 -27 -35.5t-38 -25.5q-9 0 -34.5 23.5t-25.5 32.5z" />
    <glyph glyph-name="exclamdown" unicode="&#xa1;" horiz-adv-x="225" 
d="M60 -127q0 -14 9 100q5 84 19 253q2 17 4.5 35.5t19.5 20.5h12q4 -74 14 -222q1 -33 8 -97q3 -23 36.5 -38.5t33.5 -26.5t-11 -18q-3 -2 -56 -41q-47 -34 -50 -34q-39 0 -39 68zM40 395q0 12 28 35.5t39 23.5q10 0 35.5 -26.5t25.5 -35.5q0 -13 -25.5 -36t-38.5 -23
q-9 0 -36.5 27t-27.5 35z" />
    <glyph glyph-name="logicalnot" unicode="&#xac;" 
 />
    <glyph glyph-name="florin" unicode="&#x192;" 
 />
    <glyph glyph-name="guillemotleft" unicode="&#xab;" horiz-adv-x="307" 
d="M232 60q-3 -3 -10 -3q-40 0 -72 54q-28 48 -28 90q0 87 82 145h13v-10q0 7 -22 -42.5t-22 -86.5q0 -51 28 -97q15 -25 31 -50zM167 382q0 -3 -21 -27q-26 -30 -40 -57q-21 -41 -21 -84q0 -40 17 -80q11 -26 31 -57q17 -25 17 -28q0 -6 -10 -6q-14 0 -46 34q-30 30 -39 48
q-23 45 -23 89q0 55 38 112q42 62 94 62q3 0 3 -6z" />
    <glyph glyph-name="guillemotright" unicode="&#xbb;" horiz-adv-x="255" 
d="M16 60q3 -3 10 -3q40 0 72 54q28 48 28 90q0 87 -83 145h-12v-10q0 7 22 -42.5t22 -86.5q0 -51 -28 -97q-15 -25 -31 -50zM81 382q0 -3 21 -27q26 -30 39 -57q22 -41 22 -84q0 -40 -17 -80q-11 -26 -31 -57q-17 -25 -17 -28q0 -6 10 -6q14 0 46 34q29 30 39 48
q23 45 23 89q0 55 -38 112q-42 62 -94 62q-3 0 -3 -6z" />
    <glyph glyph-name="ellipsis" unicode="&#x2026;" horiz-adv-x="691" 
d="M564 -12q-14 0 -39 28.5t-25 36.5q0 14 28 38t36 24q16 0 41.5 -28t25.5 -39q0 -14 -30.5 -37t-36.5 -23zM344 -12q-14 0 -39 28.5t-25 36.5q0 14 28 38t36 24q16 0 41.5 -28t25.5 -39q0 -14 -30.5 -37t-36.5 -23zM124 -12q-14 0 -39 28.5t-25 36.5q0 14 28 38t36 24
q16 0 41.5 -28t25.5 -39q0 -14 -30.5 -37t-36.5 -23z" />
    <glyph glyph-name="nonbreakingspace" unicode="&#xa0;" horiz-adv-x="253" 
 />
    <glyph glyph-name="Agrave" unicode="&#xc0;" horiz-adv-x="769" 
d="M716 95q3 -29 -18 -67q-24 -41 -52 -41q-38 0 -118 132q-51 83 -142 262q-84 165 -102 191q-14 20 -32.5 32.5t-23.5 23.5q-2 3 -2 6q0 17 31 17h76q37 0 49 -20q18 -41 37 -81q63 -124 181 -353q25 -46 55 -63q4 -2 42 -12q17 -5 19 -27zM452 218l-231 -1l19 39
q2 -1 194 -1zM319 467q-48 -96 -97 -192q-79 -159 -79 -169q0 -35 26 -61l30 -30q4 -17 -16 -17q-6 0 -14.5 1.5t-10.5 1.5q-118 0 -145 1l-8 6v11q79 89 157 243q65 130 129 261q7 -15 28 -56zM376 680h54l-141 129q-23 22 -43 22q-16 0 -27.5 -11.5t-11.5 -28.5
q0 -29 28 -43q140 -68 141 -68z" />
    <glyph glyph-name="Atilde" unicode="&#xc3;" horiz-adv-x="768" 
d="M716 95q3 -29 -18 -67q-24 -41 -52 -41q-38 0 -118 132q-51 83 -142 262q-84 165 -102 191q-14 20 -32.5 32.5t-23.5 23.5q-2 3 -2 6q0 17 31 17h76q37 0 49 -20q18 -41 37 -81q63 -124 181 -353q25 -46 55 -63q4 -2 42 -12q17 -5 19 -27zM452 218l-231 -1l19 39
q2 -1 194 -1zM319 467q-48 -96 -97 -192q-79 -159 -79 -169q0 -35 26 -61q30 -29 30 -30q4 -17 -16 -17q-6 0 -14.5 1.5t-10.5 1.5q-118 0 -145 1l-8 6v11q79 89 157 243q65 130 129 261q7 -15 28 -56zM417 696q-32 0 -85.5 24t-83.5 24q-50 0 -65 -27q-8 -14 -22 -14
q-29 0 -29 27q0 7 4 14q16 28 46 50q34 26 66 26q43 0 99 -24q52 -23 73 -23q35 0 50 23q8 12 22 12q28 0 28 -27q0 -8 -5 -15q-46 -70 -98 -70z" />
    <glyph glyph-name="Otilde" unicode="&#xd5;" horiz-adv-x="765" 
d="M688 329q0 -106 -61 -199q-63 -97 -160 -131q-32 -11 -119 -11q-40 0 -112 29q-99 40 -158 116q-63 81 -63 183q0 84 38 155q15 27 56 65q46 44 70 44q8 0 15 -8v-15q0 -4 -8.5 -13.5t-14.5 -17.5q-45 -63 -45 -153q0 -123 76 -224q82 -110 202 -110q86 0 143 81
q53 74 53 164q0 96 -56 177q-63 92 -154 92q-7 0 -21 -2t-21 -2q-15 0 -25.5 10.5t-10.5 25.5q0 14 15 28q12 12 24 25t34 43q9 6 16 6q4 0 18 -4q117 -34 193 -133t76 -221zM407 706q-32 0 -85.5 24t-83.5 24q-50 0 -65 -27q-8 -14 -22 -14q-29 0 -29 27q0 7 4 14
q16 28 46 50q34 26 66 26q43 0 99 -24q52 -23 73 -23q35 0 50 23q8 12 22 12q28 0 28 -27q0 -8 -5 -15q-46 -70 -98 -70z" />
    <glyph glyph-name="OE" unicode="&#x152;" horiz-adv-x="1153" 
d="M1084 592q0 -26 -16 -44t-41 -18q-11 0 -42 19q-42 26 -68 36q-47 20 -94 20q-95 0 -158 -52q-12 2 -93 101q2 13 15 22q77 -33 239 -33q37 0 93.5 12t70.5 12q33 0 63.5 -22t30.5 -53zM896 358q0 -18 -11.5 -35t-29.5 -17q-23 0 -37 19q-22 30 -29 35q-26 19 -79 19
l-6 6v16l11 8q15 1 56 4q36 3 57 3q68 0 68 -58zM677 381q0 -9 -2.5 -27.5t-2.5 -28.5l-15 -10q-18 3 -22 26q-1 6 -1 37q0 49 -73.5 123.5t-121.5 74.5q-12 0 -34.5 -7t-34.5 -7q-14 0 -27.5 8t-13.5 22q0 18 36 65t53 47q41 0 119 -62.5t97 -103.5q43 -93 43 -157z
M1125 111q0 -49 -35 -85t-84 -36q-28 0 -90.5 10.5t-95.5 9.5l-97 -6l-3 32q3 3 23 3q110 0 182 25q28 10 76 56q41 39 72 39q52 0 52 -48zM668 77q0 -23 -16 -49q-5 -9 -32.5 -21t-38.5 -12h-35q-19 0 -40 8q-26 10 -26 26q0 12 25 26q29 17 38 34q16 33 17 98
q-2 -106 -2 101q0 57 10 95q10 0 15 -5q16 -15 41 -53q27 -41 30 -58q11 -62 11 -113q0 -14 1.5 -39t1.5 -38zM457 25q-14 -26 -42 -32q-12 -3 -56 -3q-147 0 -244 110q-92 105 -92 252q0 61 57 151q63 101 125 105q12 1 19 -11v-15q-87 -82 -87 -208q0 -123 71 -223
q78 -111 197 -111q5 0 14.5 2.5t14.5 2.5q13 0 23 -20z" />
    <glyph glyph-name="oe" unicode="&#x153;" horiz-adv-x="793" 
d="M622 306q-1 29 -31.5 55.5t-60.5 26.5q-50 0 -81 -44q-28 -40 -28 -92q0 -13 9.5 -43.5t16.5 -38.5q61 49 175 136zM388 87q-54 -97 -151 -97q-89 0 -155 60q-69 62 -69 150q0 126 116 175l11 -14q-47 -66 -47 -127q0 -71 45 -138q50 -75 117 -75q50 0 75 52
q19 41 19 101q0 14 -1 28q-11 47 -36 85q-29 45 -61 45q-5 0 -55 -14q-14 -4 -14 16q0 16 23 54t37 38q82 0 140 -93q63 93 174 93q42 0 98 -26q65 -30 65 -65q0 -10 -114 -97q-67 -50 -135 -101q8 -32 54 -53q39 -18 77 -18q37 0 73 31.5t38 31.5q14 0 14 -18
q0 -47 -59 -84q-52 -32 -103 -32q-108 0 -176 92z" />
    <glyph glyph-name="endash" unicode="&#x2013;" horiz-adv-x="606" 
d="M0 237h556v-61h-556v61z" />
    <glyph glyph-name="emdash" unicode="&#x2014;" horiz-adv-x="1050" 
d="M0 237h1000v-61h-1000v61z" />
    <glyph glyph-name="quotedblleft" unicode="&#x201c;" horiz-adv-x="282" 
d="M199 531q0 -6 -36 -52q0 -1 -2 -1h-7q-20 -1 -34 26q-11 23 -11 46q0 57 64 104h14q-1 -3 -15 -32q-12 -24 -12 -30q0 -16 11.5 -32t27.5 -15v-14zM93 517q-3 -11 -24 -35t-29 -24q-18 0 -33 29q-12 26 -12 47q0 37 25 68.5t61 43.5v-14q-10 -14 -18.5 -27t-8.5 -31
q0 -32 39 -57z" />
    <glyph glyph-name="quotedblright" unicode="&#x201d;" horiz-adv-x="299" 
d="M205 566q0 -31 -29 -68t-59 -46q1 9 15 32t14 44q0 33 -43 57q1 12 18.5 38t28.5 26q17 0 36 -32t19 -51zM91 542q0 -31 -21.5 -59.5t-51.5 -42.5l-9 5l13.5 23t13.5 38q0 33 -34 43q-3 5 -9 13l20 34q16 24 25 24q20 0 36.5 -28t16.5 -50z" />
    <glyph glyph-name="quoteleft" unicode="&#x2018;" horiz-adv-x="211" 
d="M30 538q0 75 78 117l7 -9q-29 -38 -29 -58q0 -21 23 -40t23 -30q0 -14 -24 -27q-20 -10 -32 -10q-46 0 -46 57z" />
    <glyph glyph-name="quoteright" unicode="&#x2019;" horiz-adv-x="228" 
d="M132 598q0 -75 -77 -117l-8 8q29 39 29 59t-23 39.5t-23 30.5q0 14 24 26q21 11 32 11q46 0 46 -57z" />
    <glyph glyph-name="divide" unicode="&#xf7;" horiz-adv-x="467" 
d="M244 106q21 0 36 -16t15 -37t-15 -36.5t-37 -15.5t-37.5 15.5t-15.5 37.5t16 37t38 15zM244 405q21 0 36 -15.5t15 -36.5q0 -22 -15 -37.5t-37 -15.5t-37.5 15.5t-15.5 38.5q0 21 16 36t38 15zM29 169v68h428v-68h-428z" />
    <glyph glyph-name="ydieresis" unicode="&#xff;" horiz-adv-x="541" 
d="M464 345q-7 -67 -48 -152q-10 -21 -73 -134q-39 -71 -42 -103q-3 -28 19.5 -47.5t20.5 -34.5q-2 -19 -21 -50q-22 -34 -38 -33q-32 4 -47 45q-13 34 -9 69q3 24 25.5 72t22.5 52q2 15 -75 130t-97 133t-31 19h-34q-19 2 -19 16q0 4 3 8q8 12 46 42.5t48 29.5
q21 -2 106 -130l102 -160q27 16 53 80q22 55 26 95q2 13 2 25q0 109 -120 125q-9 -2 -15 5.5t-3 15.5q17 25 34 49q27 33 45 31q54 -6 91 -77q34 -65 28 -121zM229 608q0 23 16 39.5t39 16.5t39 -16.5t16 -39.5t-16 -39.5t-39 -16.5t-39 16.5t-16 39.5zM59 608q0 23 16 39.5
t39 16.5t39 -16.5t16 -39.5t-16 -39.5t-39 -16.5t-39 16.5t-16 39.5z" />
    <glyph glyph-name="Ydieresis" unicode="&#x178;" horiz-adv-x="598" 
d="M567 575q0 -68 -49 -156q-27 -49 -92 -139q-13 -18 -15 -62v-66q0 -51 4 -67q7 -24 48 -31q37 -6 37 -39q0 -10 -10.5 -17.5t-21.5 -7.5q-16 0 -48 5.5t-48 5.5t-48.5 -5.5t-48.5 -5.5q-34 0 -34 25q0 21 18 27.5t36 12.5q24 15 24 98q0 62 -8 87.5t-32.5 63.5t-45.5 58
l-74 94q-53 66 -85 66q-5 0 -15 -2t-15 -2q-35 0 -35 34q0 16 11 25q7 4 57 31t54 27q16 0 26 -9q21 -20 47 -59q37 -53 44 -62q17 -22 67 -100q38 -61 73 -94q41 37 69.5 97.5t28.5 113.5q0 89 -63 112q-2 1 -35 1q-27 0 -27 25q0 11 5 15q25 21 74 64q9 5 15 5
q27 0 61 -39q30 -35 39 -64q12 -39 12 -66zM319 788q0 23 16 39.5t39 16.5t39 -16.5t16 -39.5t-16 -39.5t-39 -16.5t-39 16.5t-16 39.5zM149 788q0 23 16 39.5t39 16.5t39 -16.5t16 -39.5t-16 -39.5t-39 -16.5t-39 16.5t-16 39.5z" />
    <glyph glyph-name="currency" unicode="&#xa4;" 
 />
    <glyph glyph-name="guilsinglleft" unicode="&#x2039;" horiz-adv-x="237" 
d="M158 385q0 -3 -20 -28q-23 -31 -36 -58q-19 -43 -17 -86q3 -55 39 -110q17 -25 35 -51q0 -7 -10 -7q-14 -1 -48 31q-31 29 -41 47q-26 43 -28 88q-3 54 32 113q39 65 90 68q4 0 4 -7z" />
    <glyph glyph-name="guilsinglright" unicode="&#x203a;" horiz-adv-x="207" 
d="M45 385q0 -3 20 -28q24 -31 36 -58q19 -43 17 -86q-3 -55 -38 -110q-18 -25 -35 -51q0 -7 9 -7q14 -1 49 31q30 29 41 47q25 43 28 88q2 54 -33 113q-38 65 -90 68q-3 0 -4 -7z" />
    <glyph glyph-name="daggerdbl" unicode="&#x2021;" horiz-adv-x="389" 
d="M197 499q20 1 55.5 15t52.5 14q16 0 27 -11.5t11 -27.5q0 -18 -11.5 -30t-29.5 -12q-15 0 -50 14t-55 14q0 -90 35 -138q-35 -48 -35 -139q20 1 54.5 14.5t50.5 13.5q18 0 29.5 -12t11.5 -30q0 -38 -38 -38q-17 0 -52.5 13.5t-55.5 14.5q0 -24 14 -67.5t14 -64.5
q0 -42 -41 -42q-40 0 -40 42q0 21 14 64.5t14 67.5q-20 -1 -55.5 -14.5t-52.5 -13.5t-27.5 11t-10.5 27q0 18 11.5 30t29.5 12q16 0 50.5 -13.5t54.5 -14.5q0 91 -35 139q35 48 35 138q-20 0 -55 -14t-50 -14q-18 0 -29.5 12.5t-11.5 29.5q0 39 38 39q17 0 52.5 -14
t55.5 -15q0 24 -14 67.5t-14 64.5q0 43 40 43q41 0 41 -43q0 -19 -14.5 -59t-13.5 -63v-10z" />
    <glyph glyph-name="periodcentered" unicode="&#xb7;" horiz-adv-x="248" 
d="M140 309q26 0 43.5 -18t17.5 -44t-18 -44.5t-44 -18.5t-44.5 18.5t-18.5 44.5t18.5 44t45.5 18z" />
    <glyph glyph-name="periodcentered" unicode="&#x2219;" horiz-adv-x="248" 
d="M140 309q26 0 43.5 -18t17.5 -44t-18 -44.5t-44 -18.5t-44.5 18.5t-18.5 44.5t18.5 44t45.5 18z" />
    <glyph glyph-name="quotesinglbase" unicode="&#x201a;" horiz-adv-x="159" 
d="M97 43q0 -26 -24 -57t-49 -38q1 7 12.5 26t11.5 37q0 27 -36 48q2 10 16.5 31t22.5 21q15 0 30.5 -26t15.5 -42z" />
    <glyph glyph-name="quotedblbase" unicode="&#x201e;" horiz-adv-x="248" 
d="M187 43q0 -26 -24 -57t-49 -38q1 7 12.5 26t11.5 37q0 27 -36 48q2 10 16.5 31t22.5 21q15 0 30.5 -26t15.5 -42zM92 23q0 -26 -18 -50t-42 -36l-8 5q0 -1 11 18t11 32q0 28 -28 37q-2 3 -7 10l16 28q13 21 21 21q16 0 30 -24t14 -41z" />
    <glyph glyph-name="perthousand" unicode="&#x2030;" horiz-adv-x="253" 
 />
    <glyph glyph-name="Acircumflex" unicode="&#xc2;" horiz-adv-x="769" 
d="M716 95q3 -29 -18 -67q-24 -41 -52 -41q-38 0 -118 132q-51 83 -142 262q-84 165 -102 191q-14 20 -32.5 32.5t-23.5 23.5q-2 3 -2 6q0 17 31 17h76q37 0 49 -20q18 -41 37 -81q63 -124 181 -353q25 -46 55 -63q4 -2 42 -12q17 -5 19 -27zM452 218l-231 -1l19 39
q2 -1 194 -1zM319 467q-48 -96 -97 -192q-79 -159 -79 -169q0 -35 26 -61l30 -30q4 -17 -16 -17q-6 0 -14.5 1.5t-10.5 1.5q-118 0 -145 1l-8 6v11q79 89 157 243q65 130 129 261q7 -15 28 -56zM185 711l-2 1q41 24 127 95l133 -103q8 -7 8 -15q0 -20 -21 -20q-6 0 -12 4
l-108 57q-102 -58 -119 -58q-23 0 -23 23q0 16 17 16z" />
    <glyph glyph-name="Ecircumflex" unicode="&#xca;" horiz-adv-x="645" 
d="M585 584q0 -19 -18 -39.5t-37 -20.5q-18 0 -59 38t-60 43q-24 7 -52 12v20q35 6 70 13q46 8 68 8q36 0 62 -20t26 -54zM375 349q0 -19 -13.5 -33.5t-32.5 -14.5q-22 0 -41 22q-28 32 -32 35q-12 9 -37 13.5t-33 12.5v12q9 12 60 12q11 0 31.5 3t30.5 3q27 0 47 -19
t20 -46zM616 110q0 -48 -27 -80q-29 -35 -76 -35q-12 0 -30 3q-24 2 -31 3q-33 2 -100 6l-17 7v15q21 7 49 8q37 2 83 45l70 70q14 12 32 12q47 0 47 -54zM282 624q0 -10 -25 -20q-17 -6 -34 -13q-13 -4 -30 -23t-20 -32q-8 -40 -8 -129q0 -36 1.5 -109t1.5 -110
q0 -101 52 -137q12 -6 35 -18v-16q-10 -12 -65 -12q-13 0 -37.5 -1.5t-35 -1.5t-29 -3.5t-27.5 -3.5q-29 0 -38 7q-12 8 -12 35q0 23 18 33q27 15 33 22q18 23 18 79v337q0 42 -36 65t-36 45q0 36 52 36q-9 0 82 -9q41 -1 129 -6q11 -5 11 -15zM185 721l-2 1q41 24 127 95
l133 -103q8 -7 8 -15q0 -19 -21 -19q-6 0 -12 3l-107 52q-103 -53 -120 -53q-23 0 -23 23q0 16 17 16z" />
    <glyph glyph-name="Aacute" unicode="&#xc1;" horiz-adv-x="768" 
d="M716 95q3 -29 -18 -67q-24 -41 -52 -41q-38 0 -118 132q-51 83 -142 262q-84 165 -102 191q-14 20 -32.5 32.5t-23.5 23.5q-2 3 -2 6q0 17 31 17h76q37 0 49 -20q18 -41 37 -81q63 -124 181 -353q25 -46 55 -63q4 -2 42 -12q17 -5 19 -27zM452 218l-231 -1l19 39
q2 -1 194 -1zM319 467q-48 -96 -97 -192q-79 -159 -79 -169q0 -35 26 -61l30 -30q4 -17 -16 -17q-6 0 -14.5 1.5t-10.5 1.5q-118 0 -145 1l-8 6v11q79 89 157 243q65 130 129 261q7 -15 28 -56zM261 680h-53l141 129q23 22 42 22q17 0 28.5 -11.5t11.5 -28.5q0 -29 -28 -43
q-140 -68 -142 -68z" />
    <glyph glyph-name="Edieresis" unicode="&#xcb;" horiz-adv-x="645" 
d="M585 584q0 -19 -18 -39.5t-37 -20.5q-18 0 -59 38t-60 43q-24 7 -52 12v20q35 6 70 13q46 8 68 8q36 0 62 -20t26 -54zM375 349q0 -19 -13.5 -33.5t-32.5 -14.5q-22 0 -41 22q-28 32 -32 35q-12 9 -37 13.5t-33 12.5v12q9 12 60 12q11 0 31.5 3t30.5 3q27 0 47 -19
t20 -46zM616 110q0 -48 -27 -80q-29 -35 -76 -35q-12 0 -30 3q-24 2 -31 3q-33 2 -100 6l-17 7v15q21 7 49 8q37 2 83 45l70 70q14 12 32 12q47 0 47 -54zM282 624q0 -10 -25 -20q-17 -6 -34 -13q-13 -4 -30 -23t-20 -32q-8 -40 -8 -129q0 -36 1.5 -109t1.5 -110
q0 -101 52 -137q12 -6 35 -18v-16q-10 -12 -65 -12q-13 0 -37.5 -1.5t-35 -1.5t-29 -3.5t-27.5 -3.5q-29 0 -38 7q-12 8 -12 35q0 23 18 33q27 15 33 22q18 23 18 79v337q0 42 -36 65t-36 45q0 36 52 36q-9 0 82 -9q41 -1 129 -6q11 -5 11 -15zM339 758q0 23 16 39.5
t39 16.5t39 -16.5t16 -39.5t-16 -39.5t-39 -16.5t-39 16.5t-16 39.5zM169 758q0 23 16 39.5t39 16.5t39 -16.5t16 -39.5t-16 -39.5t-39 -16.5t-39 16.5t-16 39.5z" />
    <glyph glyph-name="Egrave" unicode="&#xc8;" horiz-adv-x="645" 
d="M585 584q0 -19 -18 -39.5t-37 -20.5q-18 0 -59 38t-60 43q-24 7 -52 12v20q35 6 70 13q46 8 68 8q36 0 62 -20t26 -54zM375 349q0 -19 -13.5 -33.5t-32.5 -14.5q-22 0 -41 22q-28 32 -32 35q-12 9 -37 13.5t-33 12.5v12q9 12 60 12q11 0 31.5 3t30.5 3q27 0 47 -19
t20 -46zM616 110q0 -48 -27 -80q-29 -35 -76 -35q-12 0 -30 3q-24 2 -31 3q-33 2 -100 6l-17 7v15q21 7 49 8q37 2 83 45l70 70q14 12 32 12q47 0 47 -54zM282 624q0 -10 -25 -20q-17 -6 -34 -13q-13 -4 -30 -23t-20 -32q-8 -40 -8 -129q0 -36 1.5 -109t1.5 -110
q0 -101 52 -137q12 -6 35 -18v-16q-10 -12 -65 -12q-13 0 -37.5 -1.5t-35 -1.5t-29 -3.5t-27.5 -3.5q-29 0 -38 7q-12 8 -12 35q0 23 18 33q27 15 33 22q18 23 18 79v337q0 42 -36 65t-36 45q0 36 52 36q-9 0 82 -9q41 -1 129 -6q11 -5 11 -15zM352 680h54l-141 129
q-23 22 -42 22q-17 0 -28.5 -11.5t-11.5 -28.5q0 -29 28 -43q140 -68 141 -68z" />
    <glyph glyph-name="Iacute" unicode="&#xcd;" horiz-adv-x="341" 
d="M266 624q1 -16 -23 -28q-33 -16 -46 -31.5t-14 -53.5q1 5 0 -128v-256q2 -11 5 -23q4 -15 20 -25q21 -9 56 -30q6 -5 6 -26q0 -18 -6.5 -22.5t-25.5 -4.5q-3 0 -40.5 5.5t-42.5 5.5q-4 0 -54 -7t-54 -7q-33 0 -32 36q1 16 34 28.5t40 46.5q7 28 6 75q-1 61 0 76v218
q0 63 -10 84q-14 29 -44 38q-24 8 -24 22q-1 34 29 34q4 0 45 -3.5t45 -3.5t49 5t50 5q28 0 31 -30zM81 680h-53l141 129q23 22 42 22q17 0 28.5 -11.5t11.5 -28.5q0 -29 -28 -43q-140 -68 -142 -68z" />
    <glyph glyph-name="Icircumflex" unicode="&#xce;" horiz-adv-x="341" 
d="M266 624q1 -16 -23 -28q-33 -16 -46 -31.5t-14 -53.5q1 5 0 -128v-256q2 -11 5 -23q4 -15 20 -25q21 -9 56 -30q6 -5 6 -26q0 -18 -6.5 -22.5t-25.5 -4.5q-3 0 -40.5 5.5t-42.5 5.5q-4 0 -54 -7t-54 -7q-33 0 -32 36q1 16 34 28.5t40 46.5q7 28 6 75q-1 61 0 76v218
q0 63 -10 84q-14 29 -44 38q-24 8 -24 22q-1 34 29 34q4 0 45 -3.5t45 -3.5t49 5t50 5q28 0 31 -30zM15 721l-2 1q41 24 127 95l133 -103q8 -7 8 -15q0 -19 -21 -19q-6 0 -12 3l-109 54q-101 -55 -118 -55q-23 0 -23 23q0 16 17 16z" />
    <glyph glyph-name="Idieresis" unicode="&#xcf;" horiz-adv-x="341" 
d="M266 624q1 -16 -23 -28q-33 -16 -46 -31.5t-14 -53.5q1 5 0 -128v-256q2 -11 5 -23q4 -15 20 -25q21 -9 56 -30q6 -5 6 -26q0 -18 -6.5 -22.5t-25.5 -4.5q-3 0 -40.5 5.5t-42.5 5.5q-4 0 -54 -7t-54 -7q-33 0 -32 36q1 16 34 28.5t40 46.5q7 28 6 75q-1 61 0 76v218
q0 63 -10 84q-14 29 -44 38q-24 8 -24 22q-1 34 29 34q4 0 45 -3.5t45 -3.5t49 5t50 5q28 0 31 -30zM169 758q0 23 16 39.5t39 16.5t39 -16.5t16 -39.5t-16 -39.5t-39 -16.5t-39 16.5t-16 39.5zM-1 758q0 23 16 39.5t39 16.5t39 -16.5t16 -39.5t-16 -39.5t-39 -16.5
t-39 16.5t-16 39.5z" />
    <glyph glyph-name="Igrave" unicode="&#xcc;" horiz-adv-x="341" 
d="M266 624q1 -16 -23 -28q-33 -16 -46 -31.5t-14 -53.5q1 5 0 -128v-256q2 -11 5 -23q4 -15 20 -25q21 -9 56 -30q6 -5 6 -26q0 -18 -6.5 -22.5t-25.5 -4.5q-3 0 -40.5 5.5t-42.5 5.5q-4 0 -54 -7t-54 -7q-33 0 -32 36q1 16 34 28.5t40 46.5q7 28 6 75q-1 61 0 76v218
q0 63 -10 84q-14 29 -44 38q-24 8 -24 22q-1 34 29 34q4 0 45 -3.5t45 -3.5t49 5t50 5q28 0 31 -30zM197 680h53l-141 129q-23 22 -42 22q-17 0 -28.5 -11.5t-11.5 -28.5q0 -29 28 -43q140 -68 142 -68z" />
    <glyph glyph-name="Oacute" unicode="&#xd3;" horiz-adv-x="765" 
d="M688 329q0 -106 -61 -199q-63 -97 -160 -131q-32 -11 -119 -11q-40 0 -112 29q-99 40 -158 116q-63 81 -63 183q0 84 38 155q15 27 56 65q46 44 70 44q8 0 15 -8v-15q0 -4 -8.5 -13.5t-14.5 -17.5q-45 -63 -45 -153q0 -123 76 -224q82 -110 202 -110q86 0 143 81
q53 74 53 164q0 96 -56 177q-63 92 -154 92q-7 0 -21 -2t-21 -2q-15 0 -25.5 10.5t-10.5 25.5q0 14 15 28q12 12 24 25t34 43q9 6 16 6q4 0 18 -4q117 -34 193 -133t76 -221zM261 680h-53l141 129q23 22 42 22q17 0 28.5 -11.5t11.5 -28.5q0 -29 -28 -43q-140 -68 -142 -68z
" />
    <glyph glyph-name="Ocircumflex" unicode="&#xd4;" horiz-adv-x="765" 
d="M688 329q0 -106 -61 -199q-63 -97 -160 -131q-32 -11 -119 -11q-40 0 -112 29q-99 40 -158 116q-63 81 -63 183q0 84 38 155q15 27 56 65q46 44 70 44q8 0 15 -8v-15q0 -4 -8.5 -13.5t-14.5 -17.5q-45 -63 -45 -153q0 -123 76 -224q82 -110 202 -110q86 0 143 81
q53 74 53 164q0 96 -56 177q-63 92 -154 92q-7 0 -21 -2t-21 -2q-15 0 -25.5 10.5t-10.5 25.5q0 14 15 28q12 12 24 25t34 43q9 6 16 6q4 0 18 -4q117 -34 193 -133t76 -221zM186 733l9 9q41 24 122 107l136 -118q8 -7 8 -16q0 -19 -21 -19q-6 0 -12 4l-105 63
q-105 -64 -122 -64q-12 0 -20.5 7.5t-8.5 15.5q0 11 14 11z" />
    <glyph glyph-name="Ograve" unicode="&#xd2;" horiz-adv-x="765" 
d="M688 329q0 -106 -61 -199q-63 -97 -160 -131q-32 -11 -119 -11q-40 0 -112 29q-99 40 -158 116q-63 81 -63 183q0 84 38 155q15 27 56 65q46 44 70 44q8 0 15 -8v-15q0 -4 -8.5 -13.5t-14.5 -17.5q-45 -63 -45 -153q0 -123 76 -224q82 -110 202 -110q86 0 143 81
q53 74 53 164q0 96 -56 177q-63 92 -154 92q-7 0 -21 -2t-21 -2q-15 0 -25.5 10.5t-10.5 25.5q0 14 15 28q12 12 24 25t34 43q9 6 16 6q4 0 18 -4q117 -34 193 -133t76 -221zM371 710h53l-140 129q-24 22 -43 22q-17 0 -28.5 -11.5t-11.5 -28.5q0 -29 29 -43
q139 -68 141 -68z" />
    <glyph glyph-name="Uacute" unicode="&#xda;" horiz-adv-x="730" 
d="M639 454q3 -116 0 -192q1 -20 0 -61q-6 -100 -99 -161q-81 -54 -187 -54q-98 0 -181 56q-95 63 -95 156l1 281q0 30 -37 50.5t-37 36.5q0 20 30 36l48 26q14 12 29.5 25t31.5 13q41 0 41 -93q0 -16 -2 -47.5t-2 -47.5l-1 -273q0 -83 57 -132t141 -49q53 0 94 25
q51 31 72 72q18 33 21 86q2 50 3 100q1 17 1 39q0 142 -7 156q-14 29 -43 40q-23 9 -23 28q0 12 8 19q15 8 42 25q16 17 49 47q7 5 17 5q36 0 36 -65q0 -23 -4 -72t-4 -75zM281 680h-53l141 129q23 22 42 22q17 0 28.5 -11.5t11.5 -28.5q0 -29 -28 -43q-140 -68 -142 -68z
" />
    <glyph glyph-name="Ucircumflex" unicode="&#xdb;" horiz-adv-x="730" 
d="M639 454q3 -116 0 -192q1 -20 0 -61q-6 -100 -99 -161q-81 -54 -187 -54q-98 0 -181 56q-95 63 -95 156l1 281q0 30 -37 50.5t-37 36.5q0 20 30 36l48 26q14 12 29.5 25t31.5 13q41 0 41 -93q0 -16 -2 -47.5t-2 -47.5l-1 -273q0 -83 57 -132t141 -49q53 0 94 25
q51 31 72 72q18 33 21 86q2 50 3 100q1 17 1 39q0 142 -7 156q-14 29 -43 40q-23 9 -23 28q0 12 8 19q15 8 42 25q16 17 49 47q7 5 17 5q36 0 36 -65q0 -23 -4 -72t-4 -75zM225 721l-2 1q41 24 127 95l133 -103q8 -7 8 -15q0 -19 -21 -19q-6 0 -12 3l-110 54
q-100 -55 -117 -55q-23 0 -23 23q0 16 17 16z" />
    <glyph glyph-name="Ugrave" unicode="&#xd9;" horiz-adv-x="730" 
d="M639 454q3 -116 0 -192q1 -20 0 -61q-6 -100 -99 -161q-81 -54 -187 -54q-98 0 -181 56q-95 63 -95 156l1 281q0 30 -37 50.5t-37 36.5q0 20 30 36l48 26q14 12 29.5 25t31.5 13q41 0 41 -93q0 -16 -2 -47.5t-2 -47.5l-1 -273q0 -83 57 -132t141 -49q53 0 94 25
q51 31 72 72q18 33 21 86q2 50 3 100q1 17 1 39q0 142 -7 156q-14 29 -43 40q-23 9 -23 28q0 12 8 19q15 8 42 25q16 17 49 47q7 5 17 5q36 0 36 -65q0 -23 -4 -72t-4 -75zM402 680h54l-141 129q-23 22 -43 22q-16 0 -27.5 -11.5t-11.5 -28.5q0 -29 28 -43q140 -68 141 -68z
" />
    <glyph glyph-name="circumflex" unicode="&#x2c6;" horiz-adv-x="340" 
d="M56 493q-1 0 -3 1q42 24 127 95l134 -103q8 -7 8 -15q0 -19 -22 -19q-6 0 -12 3l-109 56q-100 -57 -117 -57q-23 0 -23 22q0 17 17 17z" />
    <glyph glyph-name="tilde" unicode="&#x2dc;" horiz-adv-x="433" 
d="M298 464q-31 0 -84 24t-84 24q-53 0 -70 -29q-6 -12 -18 -12q-23 0 -23 22q0 6 3 11q16 28 44 49q33 25 64 25q41 0 95 -23.5t76 -23.5q38 0 55 25q7 10 17 10q24 0 24 -22q0 -6 -5 -12q-44 -68 -94 -68z" />
    <glyph glyph-name="macron" unicode="&#xaf;" horiz-adv-x="343" 
d="M14 542h313v-54h-313v54z" />
    <glyph glyph-name="macron" unicode="&#x2c9;" horiz-adv-x="343" 
d="M14 542h313v-54h-313v54z" />
    <glyph glyph-name="cedilla" unicode="&#xb8;" horiz-adv-x="261" 
d="M150 0l-24 -63q17 3 28 3q35 0 57 -16q26 -19 26 -52q0 -45 -40 -68q-33 -19 -81 -19q-46 0 -87 17l14 33q35 -12 61 -12q57 0 57 40q0 39 -47 39q-15 0 -34 -6l-9 6l43 98h36z" />
    <glyph glyph-name="Scaron" unicode="&#x160;" 
 />
    <glyph glyph-name="scaron" unicode="&#x161;" 
 />
    <glyph glyph-name="brokenbar" unicode="&#xa6;" 
 />
    <glyph glyph-name="Eth" unicode="&#xd0;" 
 />
    <glyph glyph-name="eth" unicode="&#xf0;" 
 />
    <glyph glyph-name="Yacute" unicode="&#xdd;" 
 />
    <glyph glyph-name="yacute" unicode="&#xfd;" 
 />
    <glyph glyph-name="Thorn" unicode="&#xde;" 
 />
    <glyph glyph-name="thorn" unicode="&#xfe;" 
 />
    <glyph glyph-name="minus" unicode="&#xad;" 
 />
    <glyph glyph-name="minus" unicode="&#x2212;" 
 />
    <glyph glyph-name="multiply" unicode="&#xd7;" 
 />
    <glyph glyph-name="onesuperior" unicode="&#xb9;" 
 />
    <glyph glyph-name="twosuperior" unicode="&#xb2;" 
 />
    <glyph glyph-name="threesuperior" unicode="&#xb3;" 
 />
    <glyph glyph-name="onehalf" unicode="&#xbd;" 
 />
    <glyph glyph-name="onequarter" unicode="&#xbc;" 
 />
    <glyph glyph-name="threequarters" unicode="&#xbe;" 
 />
    <glyph glyph-name=".null" 
 />
    <glyph glyph-name="Lslash" unicode="&#x141;" 
 />
    <glyph glyph-name="lslash" unicode="&#x142;" 
 />
    <glyph glyph-name="HT" 
 />
    <glyph glyph-name="LF" 
 />
    <glyph glyph-name="nonmarkingreturn" 
 />
    <glyph glyph-name="Zcaron" unicode="&#x17d;" 
 />
    <glyph glyph-name="zcaron" unicode="&#x17e;" 
 />
    <glyph glyph-name="DLE" 
 />
    <glyph glyph-name="DC1" 
 />
    <glyph glyph-name="DC2" 
 />
    <glyph glyph-name="DC3" 
 />
    <glyph glyph-name="DC4" 
 />
    <glyph glyph-name="RS" 
 />
    <glyph glyph-name="US" 
 />
    <glyph glyph-name="infinity" unicode="&#x221e;" 
 />
    <glyph glyph-name="lessequal" unicode="&#x2264;" 
 />
    <glyph glyph-name="greaterequal" unicode="&#x2265;" 
 />
    <glyph glyph-name="partialdiff" unicode="&#x2202;" horiz-adv-x="225" 
d="M202 363l-59 -52v-145q0 -25 23 -39.5t23 -30.5q0 -30 -18 -66q-21 -41 -48 -41q-42 0 -56 74q-10 54 -9 173l-55 -48q-2 55 0 55q11 8 57 50q2 111 0 161l-1 34q-1 19 -2 27q-3 14 -11 23q-4 5 -27 15q-18 8 -18 19q0 9 46.5 44t57.5 35t24.5 -20.5t13.5 -32.5v-228
l59 54v-61z" />
    <glyph glyph-name="summation" unicode="&#x2211;" horiz-adv-x="561" 
d="M480 593q0 -28 -15 -51q-17 -27 -43 -27q-23 0 -47 37q-27 43 -42 50q-9 4 -42 10q-27 5 -39 16v10q11 11 26 11q4 0 13 -2t13 -2q20 0 59 7t59 7q23 0 40.5 -21.5t17.5 -44.5zM494 139q0 -62 -41 -104t-102 -42q-31 0 -50 15v13q30 16 60 33q31 23 31 60q0 59 -99 140
q-92 70 -184 141q-100 86 -100 157q0 45 31 74.5t76 29.5q6 0 17 -2t16 -2q4 -17 4 -14q0 -3 -19 -23t-19 -42q0 -45 98 -118q166 -124 182 -138q99 -90 99 -178zM199 11q0 -21 -37 -21q-35 0 -94 27q-66 31 -66 60q0 25 32.5 56.5t57.5 31.5q23 0 40 -41q25 -61 25.5 -62
t23.5 -25q18 -18 18 -26zM364 775l2 -1q-41 -25 -127 -95l-133 103q-8 6 -8 15q0 19 21 19q6 0 12 -3l111 -60q99 61 116 61q23 0 23 -23q0 -16 -17 -16z" />
    <glyph glyph-name="product" unicode="&#x220f;" horiz-adv-x="377" 
d="M320 108q0 -57 -57 -89q-44 -25 -92 -25q-43 0 -96 21q-73 30 -73 81q0 17 22 33q18 14 31 14q23 0 32 -14l15 -57q3 -11 18.5 -24.5t29.5 -16.5q3 -1 21 -1q26 0 47.5 14t21.5 41q0 38 -59 75q-55 32 -110 65q-59 41 -59 88q0 48 47 83q44 31 94 31q41 0 92 -22
q62 -26 62 -62q0 -19 -21 -33q-17 -12 -31 -12q-23 0 -32 23.5t-17 45.5q-15 24 -52 24q-69 0 -69 -51q0 -28 61 -66q110 -68 113 -71q61 -46 61 -95zM284 575l2 -1q-41 -25 -127 -95l-133 103q-8 6 -8 15q0 19 21 19q6 0 12 -3l111 -60q99 61 116 61q23 0 23 -23
q0 -16 -17 -16z" />
    <glyph glyph-name="pi" unicode="&#x3c0;" horiz-adv-x="598" 
d="M567 575q0 -68 -49 -156q-27 -49 -92 -139q-13 -18 -15 -62v-66q0 -51 4 -67q7 -24 48 -31q37 -6 37 -39q0 -10 -10.5 -17.5t-21.5 -7.5q-16 0 -48 5.5t-48 5.5t-48.5 -5.5t-48.5 -5.5q-34 0 -34 25q0 21 18 27.5t36 12.5q24 15 24 98q0 62 -8 87.5t-32.5 63.5t-45.5 58
l-74 94q-53 66 -85 66q-5 0 -15 -2t-15 -2q-35 0 -35 34q0 16 11 25q7 4 57 31t54 27q16 0 26 -9q21 -20 47 -59q37 -53 44 -62q17 -22 67 -100q38 -61 73 -94q41 37 69.5 97.5t28.5 113.5q0 89 -63 112q-2 1 -35 1q-27 0 -27 25q0 11 5 15q25 21 74 64q9 5 15 5
q27 0 61 -39q30 -35 39 -64q12 -39 12 -66zM241 670h-53l141 129q23 22 42 22q17 0 28.5 -11.5t11.5 -28.5q0 -29 -28 -43q-140 -68 -142 -68z" />
    <glyph glyph-name="integral" unicode="&#x222b;" horiz-adv-x="541" 
d="M464 345q-7 -67 -48 -152q-10 -21 -73 -134q-39 -71 -42 -103q-3 -28 19.5 -47.5t20.5 -34.5q-2 -19 -21 -50q-22 -34 -38 -33q-32 4 -47 45q-13 34 -9 69q3 24 25.5 72t22.5 52q2 15 -75 130t-97 133t-31 19h-34q-19 2 -19 16q0 4 3 8q8 12 46 42.5t48 29.5
q21 -2 106 -130l102 -160q27 16 53 80q22 55 26 95q2 13 2 25q0 109 -120 125q-9 -2 -15 5.5t-3 15.5q17 25 34 49q27 33 45 31q54 -6 91 -77q34 -65 28 -121zM171 490h-53l141 129q23 22 42 22q17 0 28.5 -11.5t11.5 -28.5q0 -29 -28 -43q-140 -68 -142 -68z" />
    <glyph glyph-name="Omega" unicode="&#x3a9;" horiz-adv-x="661" 
d="M566 560q0 -19 -10.5 -32t-26.5 -13q-15 0 -22 9l-38 56q-23 32 -50 41q-11 3 -21 6q-15 6 -16 14q3 5 3 11q18 0 53.5 4t53.5 4q32 0 53 -30t21 -70zM6 316h34q-1 16 -1 31q0 18 2 36h-37q-6 0 -6 10v33q0 10 8 10h45q23 81 82 141q57 57 130 77q23 6 28 6q18 0 38 -11
v-16l-12 -7q-59 -9 -108 -65q-47 -52 -66 -125h151q8 0 8 -10v-33q0 -10 -8 -10h-160v-19q0 -23 3 -48h157q8 0 8 -10v-33q0 -10 -8 -10h-143q29 -87 96.5 -145.5t142.5 -58.5q105 0 174 96h9q6 -6 6 -19q0 -36 -50 -85q-46 -45 -79 -53q-47 -12 -82 -12q-36 0 -63 6
q-90 22 -161.5 95.5t-95.5 175.5h-44q-6 0 -6 10v33q0 10 8 10z" />
    <glyph glyph-name="Omega" unicode="&#x2126;" horiz-adv-x="661" 
d="M566 560q0 -19 -10.5 -32t-26.5 -13q-15 0 -22 9l-38 56q-23 32 -50 41q-11 3 -21 6q-15 6 -16 14q3 5 3 11q18 0 53.5 4t53.5 4q32 0 53 -30t21 -70zM6 316h34q-1 16 -1 31q0 18 2 36h-37q-6 0 -6 10v33q0 10 8 10h45q23 81 82 141q57 57 130 77q23 6 28 6q18 0 38 -11
v-16l-12 -7q-59 -9 -108 -65q-47 -52 -66 -125h151q8 0 8 -10v-33q0 -10 -8 -10h-160v-19q0 -23 3 -48h157q8 0 8 -10v-33q0 -10 -8 -10h-143q29 -87 96.5 -145.5t142.5 -58.5q105 0 174 96h9q6 -6 6 -19q0 -36 -50 -85q-46 -45 -79 -53q-47 -12 -82 -12q-36 0 -63 6
q-90 22 -161.5 95.5t-95.5 175.5h-44q-6 0 -6 10v33q0 10 8 10z" />
    <glyph glyph-name="radical" unicode="&#x221a;" 
 />
    <glyph glyph-name="approxequal" unicode="&#x2248;" 
 />
    <glyph glyph-name="approxequal" unicode="&#x22f2;" 
 />
    <glyph glyph-name="Delta" unicode="&#x394;" 
 />
    <glyph glyph-name="Delta" unicode="&#x2206;" 
 />
    <glyph glyph-name="lozenge" unicode="&#x25ca;" horiz-adv-x="380" 
d="M210 94l118 229l-114 223l-119 -221z" />
    <glyph glyph-name="fraction" unicode="&#x2044;" horiz-adv-x="18" 
 />
    <glyph glyph-name="apple" unicode="&#xf000;" horiz-adv-x="253" 
 />
    <glyph glyph-name="dotlessi" unicode="&#x131;" horiz-adv-x="257" 
d="M185 94q0 -25 -22 -62q-25 -39 -47 -39t-38 28q-14 25 -14 49q0 34 3 101t3 101q0 39 -8 49q-1 2 -38 26q-4 24 -4 18q0 8 43 35.5t54 27.5q34 0 34 -86q0 -34 -5 -80v-75q0 -41 10 -56q3 -5 19 -14q10 -6 10 -23z" />
    <glyph glyph-name="breve" unicode="&#x2d8;" horiz-adv-x="319" 
d="M257 592h30l1 -12q2 -52 -33 -86.5t-87 -34.5q-54 0 -88.5 35t-32.5 87l1 11h30q6 -81 90 -81q83 0 89 81z" />
    <glyph glyph-name="dotaccent" unicode="&#x2d9;" horiz-adv-x="270" 
d="M136 586q22 0 38 -16t16 -39t-16 -39t-38 -16q-23 0 -39.5 16t-16.5 39t16.5 39t39.5 16z" />
    <glyph glyph-name="ring" unicode="&#x2da;" horiz-adv-x="253" 
d="M127 646q35 0 59.5 -25t24.5 -60t-24.5 -59.5t-59.5 -24.5t-60 24.5t-25 59.5q0 36 25 60.5t60 24.5zM126 615q-22 0 -37.5 -16t-15.5 -38t15.5 -38t38.5 -16q22 0 38 16t16 38q0 23 -16 38.5t-39 15.5z" />
    <glyph glyph-name="hungarumlaut" unicode="&#x2dd;" horiz-adv-x="328" 
d="M49 474l36 98q21 59 52 59q28 0 28 -28q0 -18 -18 -40l-81 -98zM177 474l35 98q21 59 53 59q28 0 28 -28q0 -18 -19 -40l-81 -98z" />
    <glyph glyph-name="ogonek" unicode="&#x2db;" horiz-adv-x="317" 
d="M120 0h88q-90 -1 -90 -67q0 -17 11.5 -30.5t28.5 -13.5q31 0 72 37l16 -22q-56 -56 -108 -56q-30 0 -50 19.5t-20 49.5q0 48 52 83z" />
    <glyph glyph-name="caron" unicode="&#x2c7;" horiz-adv-x="340" 
d="M301 554l2 -1q-41 -24 -127 -95l-133 103q-8 7 -8 15q0 20 21 20q6 0 12 -4l111 -60q99 61 116 61q23 0 23 -23q0 -16 -17 -16z" />
  </font>
</defs>
</svg>
