<?xml version="1.0" standalone="no"?>
<!DOCTYPE svg PUBLIC "-//W3C//DTD SVG 1.1//EN" "http://www.w3.org/Graphics/SVG/1.1/DTD/svg11.dtd" >
<svg>
<metadata>
Created by FontForge 20120731 at Wed Apr 17 19:00:22 2019
 By www-data
Digitized by Dan X. Solo. Software (c)1998 by Dover Publications, Inc., New York.
</metadata>
<defs>
<font id="Carmen" horiz-adv-x="4" >
  <font-face 
    font-family="Carmen"
    font-weight="400"
    font-stretch="normal"
    units-per-em="1000"
    panose-1="0 0 4 0 0 0 0 0 0 0"
    ascent="800"
    descent="-200"
    x-height="449"
    cap-height="660"
    bbox="-40 -197 881 821"
    underline-thickness="20"
    underline-position="-123"
    unicode-range="U+0020-F000"
  />
<missing-glyph horiz-adv-x="500" 
d="M63 0v800h375v-800h-375zM125 63h250v675h-250v-675z" />
    <glyph glyph-name=".notdef" horiz-adv-x="500" 
d="M63 0v800h375v-800h-375zM125 63h250v675h-250v-675z" />
    <glyph glyph-name="glyph1" horiz-adv-x="0" 
 />
    <glyph glyph-name="glyph2" horiz-adv-x="194" 
 />
    <glyph glyph-name="space" unicode=" " horiz-adv-x="194" 
 />
    <glyph glyph-name="exclam" unicode="!" horiz-adv-x="231" 
d="M187 645q-3 -47 -44 -437q-2 -22 -33 -19q-33 0 -29 26q-14 168 -14 254q0 3 -8.5 62t-8.5 63l-3 16t-1 20q10 26 28 26q4 0 29.5 -5t30.5 -5q8 -1 22 4q18 6 21 6zM176 72q0 -30 -15 -51q-18 -25 -50 -25q-34 0 -51 31q-13 23 -13 52q0 74 64 74q32 0 50 -30
q15 -24 15 -51z" />
    <glyph glyph-name="quotedbl" unicode="&#x22;" horiz-adv-x="317" 
d="M105 434h-32l-29 154q-3 12 -3 23q0 48 48 48q21 0 34.5 -13.5t13.5 -34.5q0 -11 -3 -23zM241 434h-33l-29 154q-2 10 -2 22q0 49 48 49q47 0 47 -49q0 -10 -2 -22z" />
    <glyph glyph-name="numbersign" unicode="#" horiz-adv-x="564" 
d="M428 393l-17 -120h93v-67h-103l-31 -205h-78l31 205h-93l-31 -205h-78l30 205h-92v67h103l17 120h-95v67h105l28 192h78l-29 -192h94l29 192h78l-29 -192h92v-67h-102zM256 393l-16 -120h93l17 120h-94z" />
    <glyph glyph-name="dollar" unicode="$" horiz-adv-x="342" 
d="M178 655v-89q3 -1 33 -20q20 -12 34 -12q5 0 20.5 5t18.5 6q3 -14 3 -12q0 -12 -26.5 -46.5t-39 -40.5t-24.5 -6q-18 0 -33.5 13.5t-28.5 13.5q-15 0 -24 -15t-9 -31q0 -35 34 -35q15 0 45.5 7t45.5 7q42 0 63 -50q16 -37 16 -86q0 -73 -25 -108q-29 -42 -99 -41h-4v-114
h-40v116q-45 3 -61 3q-5 0 -14 -1t-14 -1q-9 0 -23 2v71q0 35 63 35q16 0 48.5 -6t48.5 -6q20 0 32.5 16t12.5 37q0 49 -39 49q-21 0 -67.5 -21.5t-64.5 -21.5q-50 0 -50 73q0 42 25.5 102.5t55.5 86.5q15 13 47 33v87h40z" />
    <glyph glyph-name="percent" unicode="%" horiz-adv-x="645" 
d="M514 649l-403 -666l-43 26l403 666zM255 480q0 -74 -30 -144q-39 -87 -103 -87q-16 0 -43 23q-77 65 -77 182q0 25 13 64q15 48 17 64.5t3 34.5q2 22 9.5 33.5t19.5 11.5q8 0 24 -5t24 -5q8 2 30 7q-4 -2 -3 -6q7 0 21 2t21 2q26 -18 49 -71q21 -49 22 -85l2 -2
q1 -8 1 -19zM182 440q0 35 -19 83q-22 59 -50 59q-36 0 -36 -89q0 -42 15 -88q19 -62 52 -62q38 0 38 97zM463 322q-36 0 -36 -89q0 -42 15 -88q19 -62 52 -62q38 0 38 97q0 35 -19 83q-22 59 -50 59zM531 397q27 -19 49 -71q21 -48 22 -85l2 -2q1 -8 1 -19q0 -75 -30 -144
q-38 -87 -103 -87q-16 0 -43 23q-77 67 -77 182q0 25 13 64q15 47 17 64t3 35q1 22 9 33.5t20 11.5q8 0 24 -5t24 -5t26 3t27 3z" />
    <glyph glyph-name="ampersand" unicode="&#x26;" horiz-adv-x="526" 
d="M490 0h-102q-10 0 -16 10.5t-12 20.5q-15 -10 -40 -25q-12 -6 -44 -6h-142q-102 0 -102 168q0 60 34 134q38 82 87 107q-63 115 -63 181q0 21 15.5 42.5t34.5 21.5h140q32 0 42 -34q4 -17 4 -61q0 -48 -31.5 -99.5t-31.5 -49.5q0 -12 41 -77q35 -54 55 -81q14 19 14 45
q0 14 -3 34q-4 28 -4 34l2 1q1 0 3 1q31 0 49 -58q17 -51 12 -95q0 -7 -4.5 -26.5t-4.5 -30.5q0 -15 27 -60q19 -31 39 -62q11 -20 11 -27q0 -8 -10 -8zM224 614q-33 0 -33 -32q0 -17 12 -49q14 -35 29 -44q26 21 26 67q0 58 -34 58zM191 334q-16 -23 -30.5 -59t-14.5 -56
q0 -47 22 -77q24 -35 68 -35q46 0 72 9q-33 101 -117 218z" />
    <glyph glyph-name="quotesingle" unicode="'" horiz-adv-x="182" 
d="M105 434h-32l-29 154q-3 12 -3 23q0 48 48 48q21 0 34.5 -13.5t13.5 -34.5q0 -11 -3 -23z" />
    <glyph glyph-name="parenleft" unicode="(" horiz-adv-x="263" 
d="M281 -89q0 -10 -11 -16.5t-18 -6.5q-126 0 -192 190q-44 128 -48 269q-4 122 59 266q72 163 168 163q15 0 26 -10t11 -22q0 -15 -36 -24q-39 -11 -48 -31q-53 -122 -53 -351q0 -123 8 -188q15 -122 62 -192q4 -7 41 -15q31 -8 31 -32z" />
    <glyph glyph-name="parenright" unicode=")" horiz-adv-x="341" 
d="M29 -89q0 -10 11 -16.5t18 -6.5q126 0 192 190q44 128 48 269q4 122 -59 266q-72 163 -168 163q-15 0 -25.5 -10t-10.5 -22q0 -15 35 -24q39 -11 48 -31q53 -122 53 -351q0 -123 -8 -188q-15 -122 -62 -192q-4 -7 -41 -15q-31 -8 -31 -32z" />
    <glyph glyph-name="asterisk" unicode="*" horiz-adv-x="486" 
d="M239 495q-43 -24 -59.5 -46.5t-31.5 -43.5q-19 -21 -44 -21q-20 0 -34 13.5t-14 32.5q0 33 30 47q18 8 58 11q36 3 82 29q-23 14 -34 18q-19 9 -38 11q-53 6 -63 10q-35 12 -35 48q0 20 14 33t34 13q23 0 41 -17q7 -8 27.5 -37.5t66.5 -55.5v18q0 32 -18 71t-18 55
q0 22 13.5 37.5t34.5 15.5t35 -16t14 -37q0 -15 -20 -59q-16 -32 -16 -86q23 14 33 21q17 13 28 27l30 42q19 21 45 21q19 0 33 -13t14 -33q0 -33 -30 -46q-17 -8 -56.5 -11t-83.5 -30q43 -25 72 -28q52 -7 63 -11q35 -12 35 -48q0 -19 -13 -31.5t-32 -12.5q-23 0 -42 17
q-8 8 -29.5 37t-66.5 55v-19q0 -31 17.5 -70t17.5 -55q0 -22 -13.5 -38t-34.5 -16t-34.5 16t-13.5 37q0 16 20 59q16 33 16 86z" />
    <glyph glyph-name="plus" unicode="+" horiz-adv-x="491" 
d="M204 294h-163v97h163v163h97v-163h163v-97h-163v-163h-97v163z" />
    <glyph glyph-name="comma" unicode="," horiz-adv-x="211" 
d="M162 71q0 -48 -24 -90q-31 -54 -90 -61q48 44 44 76q-36 0 -55 26q-16 22 -16 55q0 30 16 54q19 29 52 29q73 0 73 -89z" />
    <glyph glyph-name="hyphen" unicode="-" horiz-adv-x="330" 
d="M259 194q-9 -17 -26 -17h-196q-7 -2 -12 6t-2 16q2 5 22 64q5 17 29 17h190q16 -2 16 -16q0 -3 -1.5 -6.5t-19.5 -63.5z" />
    <glyph glyph-name="hyphen" unicode="&#x2010;" horiz-adv-x="330" 
d="M259 194q-9 -17 -26 -17h-196q-7 -2 -12 6t-2 16q2 5 22 64q5 17 29 17h190q16 -2 16 -16q0 -3 -1.5 -6.5t-19.5 -63.5z" />
    <glyph glyph-name="period" unicode="." horiz-adv-x="211" 
d="M166 75q0 -32 -21 -57.5t-53 -25.5t-54 29q-20 26 -20 56q0 35 19.5 62.5t54.5 27.5q37 0 58 -35q16 -26 16 -57z" />
    <glyph glyph-name="slash" unicode="/" horiz-adv-x="306" 
d="M228 737h74l-251 -752h-74z" />
    <glyph glyph-name="zero" unicode="0" horiz-adv-x="514" 
d="M246 -10q-25 0 -66 36q-6 5 -19 15q-107 105 -107 283q0 42 21 106q26 79 29.5 106t5.5 56q3 39 12 52q12 18 27 18q13 0 39.5 -8.5t40.5 -8.5q10 0 97 16l-6 -4l4 -1q8 0 5 6q40 -23 64 -72l40 -84q19 -29 22 -108l4 -4q1 -9 1 -27q0 -179 -92 -306q-43 -59 -83 -67
q-18 -4 -39 -4zM354 300q0 63 -33 145q-39 99 -90 99q-37 0 -55 -62q-13 -43 -13 -93q0 -100 32 -174q13 -31 48 -67q17 -18 39 -18q42 0 60 68q12 44 12 102z" />
    <glyph glyph-name="one" unicode="1" horiz-adv-x="365" 
d="M290 642q0 -32 -16.5 -97t-16.5 -99q0 -3 7 -275q1 -28 13 -83.5t12 -85.5h-6q-9 -1 -24 3.5t-23 4.5q-17 0 -49.5 -5.5t-49.5 -5.5l-20 12v3q-1 20 10 51q14 41 16 51q23 113 23 255q0 92 -6 110q-15 43 -80 42l-12 17q6 12 93 64l106 64q23 -2 23 -26z" />
    <glyph glyph-name="two" unicode="2" horiz-adv-x="514" 
d="M457 544q0 -61 -62 -142q-58 -67 -117 -135q-67 -77 -73 -123q20 -8 67 -8q11 0 34 1.5t34 1.5q112 0 112 -44q0 -11 -8.5 -31t-8.5 -30q0 -12 11 -28v-9q-73 5 -122 5q-9 0 -28 2.5t-28 2.5q-21 0 -62.5 -1t-62.5 -1q-8 0 -23.5 -3t-22.5 -3q-40 0 -40 28q0 52 66 162
q18 30 123 186q66 98 66 122q0 25 -30 25q-20 0 -60 -2t-60 -2q-78 0 -78 37q0 13 12 32t12 30q0 5 -2 15t-2 14h20q6 0 18.5 -4t19.5 -4t23 -1t24 -1q23 0 68.5 5.5t68.5 5.5q47 0 79 -28.5t32 -74.5z" />
    <glyph glyph-name="three" unicode="3" horiz-adv-x="514" 
d="M454 244q0 -80 -36 -139q-46 -74 -141 -97q-40 -10 -60 -10h-19q-138 0 -138 50q0 8 23 26q6 5 6 19q0 20 8 38q-1 24 28 21q27 -30 138 -30q103 0 103 82q0 63 -54 93q-39 22 -92 22q-3 0 -38 -1.5t-39 -1.5q-11 0 -26 15q5 24 43 58q28 25 56 49q19 16 37 32
q34 32 34 43q0 16 -43 16q-12 0 -43 -1.5t-47 -1.5q-76 0 -76 37q0 11 9.5 29.5t9.5 32.5q0 11 -5 23q29 -6 199 -6q3 0 49 6t49 6q16 0 31 -13.5t15 -31.5q0 -37 -60.5 -107.5t-60.5 -72.5q0 -11 13 -13q49 -8 79 -41q48 -51 48 -131z" />
    <glyph glyph-name="four" unicode="4" horiz-adv-x="514" 
d="M457 171q0 -38 -41 -38q-5 0 -15 2.5t-15 2.5q-11 0 -11 -11q0 -18 13.5 -56.5t24.5 -59.5q-6 -12 -14 -12q-7 0 -17.5 2.5t-17.5 2.5q-15 0 -45.5 -2.5t-45.5 -2.5q-31 0 -43 11q0 13 20.5 58t20.5 68q-10 5 -43 5q-22 0 -66 -3t-65 -3q-40 0 -40 42q0 58 77 229
q62 138 110 220q10 17 26 22q8 3 57 3q46 0 41 1q26 -3 26 -21q0 -1 -10 -69q-9 -58 -7 -155q2 -118 -1 -155q7 2 33 3q18 1 30 10q2 1 9 -4.5l7 -5.5q-3 -4 -3 -34q0 -11 2.5 -25.5t2.5 -24.5zM286 462q0 38 -11 38q-17 0 -67 -107t-50 -130q0 -2 8 -20q2 -1 68 -1
q32 0 42 15q8 11 8 44q2 162 2 161z" />
    <glyph glyph-name="five" unicode="5" horiz-adv-x="514" 
d="M201 -5q-44 0 -82 14q-51 18 -51 53q0 9 7 24.5t7 24.5q0 19 -9 28q10 12 33 8q36 -21 158 -23q12 -2 37 7q22 9 33 18q27 22 27 68q0 51 -44 80q-38 25 -92 25q-17 0 -52 -5.5t-52 -5.5q-23 0 -23 26q0 20 6.5 64.5t6.5 66.5q0 23 -4 68.5t-4 68.5q0 52 32 52
q12 0 38 -4.5t39 -4.5l209 2q-10 -15 -10 -24q0 -8 8 -24.5t8 -24.5q0 -16 -15 -31t-32 -15q-26 0 -80.5 4.5t-81.5 4.5q-30 0 -30 -18v-70q3 -5 11 -11q10 -1 30 0q26 2 30 2q36 0 75.5 -15.5t61 -40.5t36 -66t14.5 -75q0 -113 -66 -182t-179 -69z" />
    <glyph glyph-name="six" unicode="6" horiz-adv-x="514" 
d="M460 260q0 -78 -32 -144q-34 -73 -98 -107q-34 -19 -65 -19q-39 0 -79 28q-132 91 -132 297q0 98 31 183q39 109 113 138q53 20 119 20q17 0 51.5 -1.5t51.5 -1.5q0 -4 -2.5 -13t-2.5 -13q0 -7 5.5 -21t5.5 -21q0 -50 -58 -50q-13 0 -40.5 2t-41.5 2q-63 0 -100 -41.5
t-37 -105.5q0 -52 16 -130l2 5q2 -15 23 -52q18 -32 32 -49q47 -55 85 -55q55 0 55 93q0 53 -23 89q-27 42 -78 42q-10 0 -30.5 -2t-31.5 -2t-19 1q0 11 -3 33t-3 32q0 44 65 56q28 5 21 5q64 0 98 -18q23 -12 51 -41q32 -34 29 -54q10 -6 16 -39q6 -27 6 -46z" />
    <glyph glyph-name="seven" unicode="7" horiz-adv-x="514" 
d="M452 623q0 -20 -28 -70q-61 -110 -87 -194q-28 -94 -28 -208q0 -21 9 -67q1 -4 9 -32q7 -23 7 -29v-30q-7 1 -35 7q-22 4 -35 4t-40.5 -5.5t-40.5 -5.5q8 0 -30 4l-12 11v4q0 53 18 121q6 21 39 117q29 86 79 186q13 25 39 77q2 3 1 13q-10 8 -25 7l-150 -11
q-26 -2 -48 4q-31 9 -31 31q0 10 8 30.5t8 31.5q0 3 -5.5 11t-5.5 12l10 11q15 0 43.5 -4t42.5 -4q40 0 120.5 5.5t120.5 5.5q16 0 31.5 -9.5t15.5 -23.5z" />
    <glyph glyph-name="eight" unicode="8" horiz-adv-x="514" 
d="M463 213q0 -65 -73 -141.5t-137 -76.5q-44 0 -104 48q-55 44 -77 87q-21 40 -21 72q0 46 38 89q15 17 74 66q-54 51 -60 58q-32 38 -32 75q0 52 65.5 114t116.5 62q55 0 118.5 -59.5t63.5 -113.5q0 -35 -23 -62q-13 -17 -42 -36q-22 -16 -22 -21q0 -7 30 -29
q37 -27 55 -50q30 -37 30 -82zM320 482q0 23 -38.5 57.5t-62.5 34.5q-19 0 -33 -15t-14 -34q0 -15 9 -29q14 -22 15 -24q54 -49 67 -49q15 0 36 21.5t21 37.5zM362 181q0 27 -49 81.5t-76 54.5q-17 0 -44 -33.5t-27 -52.5q0 -34 41.5 -76.5t71.5 -42.5q4 0 11 -2.5t10 -2.5
q23 0 42.5 25.5t19.5 48.5z" />
    <glyph glyph-name="nine" unicode="9" horiz-adv-x="514" 
d="M421 125q-16 -42 -58 -80q-45 -40 -87 -46q-25 -3 -65 -3q-69 0 -119 3q9 14 9 24q0 5 -4.5 18.5t-4.5 27.5q0 18 11 32.5t30 14.5t56.5 -3t56.5 -3q3 0 3 3h3q28 0 56 20q56 39 56 138q0 75 -32 147q-36 82 -94 114q-21 12 -37 12q-24 0 -41 -35q-15 -29 -15 -57
q0 -45 23 -87q26 -51 67 -51q11 0 34 2t34 2q18 0 32 -4v-77q0 -45 -96 -45q-85 0 -137 61q-49 57 -49 144q0 69 29 132q32 69 86 102q45 28 81 28q6 0 17.5 -4t17.5 -4q32 0 78 -46q40 -40 56 -76q43 -90 43 -198q0 -104 -40 -206z" />
    <glyph glyph-name="colon" unicode=":" horiz-adv-x="211" 
d="M170 395q0 -32 -18 -56q-21 -25 -52 -25t-50 23.5t-19 55.5q0 34 16 59q19 29 51 29q33 0 54 -27q18 -24 18 -59zM164 83q0 -35 -16 -58q-19 -27 -52 -27t-52 23.5t-19 57.5q0 36 16 62q19 30 54 30q33 0 51 -26.5t18 -61.5z" />
    <glyph glyph-name="semicolon" unicode=";" horiz-adv-x="219" 
d="M176 399q0 29 -14 52q-19 30 -56 30q-33 0 -53 -32q-16 -26 -16 -54q0 -31 17 -54q20 -27 54 -27q68 0 68 85zM177 71q0 -48 -24 -90q-31 -54 -90 -61q48 44 44 76q-36 0 -55 26q-16 22 -16 55q0 30 16 54q19 29 52 29q73 0 73 -89z" />
    <glyph glyph-name="less" unicode="&#x3c;" horiz-adv-x="439" 
d="M400 74v65l-243 113l243 113v65l-336 -153v-50z" />
    <glyph glyph-name="equal" unicode="=" horiz-adv-x="431" 
d="M19 158v68h368v-68h-368zM19 279v68h368v-68h-368z" />
    <glyph glyph-name="greater" unicode="&#x3e;" horiz-adv-x="427" 
d="M64 74v65l244 113l-244 113v65l336 -153v-50z" />
    <glyph glyph-name="question" unicode="?" horiz-adv-x="397" 
d="M366 491q0 -36 -18 -88q-9 -25 -58 -73t-61 -76q-5 -19 -11 -38q-8 -23 -26 -23h-14h-14q-26 0 -26 21q0 54 57 130t57 113q0 85 -62 85q-32 0 -51 -30q-16 -26 -16 -60q0 -20 10 -45.5t10 -23.5q0 -7 -13 -12.5t-23 -5.5q-12 0 -34 19.5t-29 32.5q-27 52 -27 104
q0 138 127 138q9 0 26.5 -2.5t26.5 -2.5q11 0 33 4t33 4q21 0 54 -36q29 -33 36 -56q13 -41 13 -79zM239 75q0 -32 -15 -55q-18 -27 -48 -27q-32 0 -50.5 23t-18.5 56q0 32 16 56.5t47 24.5q29 0 49 -24t20 -54z" />
    <glyph glyph-name="at" unicode="@" horiz-adv-x="677" 
d="M490 151q-37 -18 -69 -18q-68 0 -70 66q-45 -60 -96 -60q-57 0 -92 44q-31 40 -31 95q0 78 55 147q59 75 140 75q51 0 73 -48l12 40h93l-70 -267q-4 -16 -4 -26q0 -16 19 -16q17 0 40 16q41 29 68 86q25 54 25 107q0 94 -70.5 160t-169.5 66q-123 0 -201 -85
q-73 -81 -73 -202t75 -202q78 -84 204 -84q140 0 222 135h68q-39 -87 -121 -139.5t-177 -52.5q-145 0 -241 101q-93 97 -93 237q0 142 90 242q95 106 242 106q124 0 214 -79.5t90 -197.5q0 -76 -40 -143q-42 -70 -112 -103zM339 453q-44 0 -81 -81q-31 -69 -31 -122
q0 -65 41 -65q44 0 80 84q29 71 29 125q0 59 -38 59z" />
    <glyph glyph-name="A" unicode="A" horiz-adv-x="505" 
d="M450 18l-6 -19q-9 9 -24 9q-9 0 -30 -4.5t-33 -4.5q-49 0 -49 42q0 37 11 110.5t11 111.5q0 39 -21 53q-16 11 -51 11q-57 0 -74 -5q-39 -11 -39 -52q0 -36 8 -107t8 -106q0 -58 -53 -58q-9 0 -27 5.5t-28 5.5q-17 0 -34 -10l-3 18q0 35 16 109q15 70 14 108
q-7 129 -7 170q0 36 16.5 95t16.5 86q0 17 -12.5 34.5t-12.5 21.5q0 16 30 19q-8 -1 43 -1q25 0 72.5 -4.5t71.5 -4.5q23 0 68 5t67 5q43 0 43 -36q0 -117 -5 -154q-16 -102 -3 -225q16 -154 16 -228zM330 454q0 103 -98 103t-98 -103q0 -26 7 -35.5t32 -9.5q9 0 26 2.5
t26 2.5q12 0 36 -2.5t37 -2.5q32 0 32 45z" />
    <glyph glyph-name="B" unicode="B" horiz-adv-x="497" 
d="M458 223q0 -77 -33 -142q-40 -82 -108 -82q-21 0 -62.5 4t-62.5 4t-63 -5.5t-63 -5.5q-48 0 -48 57q0 47 17.5 140.5t17.5 140.5t-17.5 138.5t-17.5 137.5q0 49 48 49q26 0 79.5 -4.5t80.5 -4.5q23 0 70 4.5t70 4.5q27 0 48.5 -21.5t21.5 -47.5q0 -39 -46.5 -96.5
t-46.5 -77.5q0 -7 30 -37q37 -38 55 -66q30 -46 30 -90zM358 179q0 51 -42 93q-20 19 -79 58q-42 28 -42 44q0 14 60 62t60 78q0 46 -71 46q-55 0 -75 -12q-28 -17 -28 -68q0 -20 4 -60t4 -61q0 -23 -1.5 -69t-1.5 -69q0 -77 20 -98.5t97 -21.5q49 0 70 14q25 17 25 64z" />
    <glyph glyph-name="C" unicode="C" horiz-adv-x="384" 
d="M363 530q0 -51 -23 -104q-28 -67 -71 -67q-19 0 -19 20q0 12 5.5 35.5t5.5 35.5q0 35 -16 63q-20 33 -52 33q-49 0 -70 -65q-15 -45 -15 -108q0 -131 65 -206q34 -40 118 -85q63 -33 61 -64v-6l-18 -11q-40 4 -96 4q-20 0 -59 -3t-58 -3q-58 0 -90 135q-22 96 -22 184
q0 139 21 214q38 130 141 130q11 0 33 -5.5t33 -5.5q10 0 30 5.5t30 5.5q37 0 54 -50q12 -35 12 -82z" />
    <glyph glyph-name="D" unicode="D" horiz-adv-x="450" 
d="M409 313q0 -98 -28 -187q-38 -124 -112 -124q-17 0 -51 4t-51 4q-16 0 -50 -5.5t-50 -5.5q-42 0 -42 54q0 23 9 77q8 51 7 77l-16 314q-10 0 91 0q14 0 28 -11.5t12 -25.5l-29 -268q-4 -37 8 -64q15 -32 51 -32q73 0 109 78q28 59 28 143t-37 141q-44 67 -123 67l-95 -8
q-16 -2 -33.5 8t-17.5 26q0 19 8 89q23 -5 50 -5q17 0 51.5 2.5t52.5 2.5q230 0 230 -351z" />
    <glyph glyph-name="E" unicode="E" horiz-adv-x="420" 
d="M380 38q0 -8 11 -37h-29q-21 0 -55.5 4.5t-54.5 4.5q-30 0 -95.5 -7t-95.5 -7q-48 0 -48 61q0 49 24 143t24 143q0 46 -22.5 135t-22.5 135q0 22 14.5 35t35.5 11q78 -3 232 -9q31 -1 54 5l23 6q5 0 10 -4q2 -5 -2 -17t-4 -16q0 -8 3 -24.5t3 -24.5q0 -37 -54 -37
q-27 0 -80.5 7t-79.5 7q-16 0 -30 -7q-18 -9 -18 -24q2 -45 56 -70q23 -10 99 -27q54 -11 54 -28q0 -22 -59 -40q-74 -23 -76 -25q-30 -20 -49 -87q-16 -56 -16 -104q0 -29 29 -29q31 0 92 9.5t92 9.5q49 0 49 -35q0 -10 -7 -28.5t-7 -28.5z" />
    <glyph glyph-name="F" unicode="F" horiz-adv-x="358" 
d="M342 567q0 -18 -14 -29t-32 -11q-28 0 -81.5 8.5t-73.5 8.5q-13 0 -23.5 -12t-10.5 -25q0 -45 50 -68q19 -8 93 -25q51 -12 51 -29q0 -16 -41 -31q-63 -24 -75 -30q-40 -23 -40 -60q0 -36 13 -107t13 -108q0 -12 -15 -32t-27 -20t-35 5.5t-35 5.5q-9 0 -36 -8
q7 64 13 128q8 77 8 128q0 58 -20 172t-20 172q0 57 47 57q29 0 88 -4t88 -4q59 0 112 5q-3 -12 -8 -34q11 -45 11 -53z" />
    <glyph glyph-name="G" unicode="G" horiz-adv-x="488" 
d="M444 64q0 -36 -59 -57q-45 -15 -92 -15q-203 0 -248 225q-6 26 -6 122q0 120 35 203q46 113 144 113l134 -8q6 0 24 2q14 2 29 0q0 -4 -2.5 -14.5t-2.5 -13.5q0 -4 5.5 -23.5t5.5 -23.5q0 -45 -64 -45l-125 8q-41 0 -60 -45q-4 -11 -15 -62q-5 -25 -5 -122q9 -76 39 -128
q39 -70 104 -70q60 0 60 78q0 11 -1.5 34t-1.5 33q0 66 1 58q-3 27 -24 27q-2 0 -23 -1.5t-25 -1.5q-66 0 -66 37q0 8 9 27t9 32q0 11 -5 22h94.5t60.5 0q68 0 68 -56q0 -39 -11 -121v-88q2 -23 8 -73.5t6 -52.5z" />
    <glyph glyph-name="H" unicode="H" horiz-adv-x="457" 
d="M417 251q0 -139 -96 -243q-29 -31 -54 -30q-3 4 -3 12t7 33q10 31 11 36q17 85 17 152q0 58 -18 101q-24 58 -74 58q-90 0 -90 -186q0 -69 27 -69q8 0 22 3t21 3q13 0 24 -12t11 -25q0 -5 -8 -21q-9 -19 -10 -21.5t-1 -42.5q-6 -2 -13 -2q-9 0 -25.5 2.5t-25.5 2.5
q-14 0 -42.5 -2.5t-42.5 -2.5q-25 0 -33.5 8.5t-8.5 32.5q0 19 4 48q7 39 8 48q9 84 9 186q0 91 -8 166q-13 124 -13 131q0 48 53 48q16 0 45.5 -3t42.5 -4q44 -2 134 -2q20 0 60 3h28q-10 -20 -10 -29q0 -8 5.5 -24t5.5 -25q0 -43 -54 -43q-6 0 -161 12q-19 1 -35 -15.5
t-16 -35.5q0 -47 72 -47q22 0 65.5 8t65.5 8q37 0 69 -56q26 -46 31 -90q4 -34 4 -71z" />
    <glyph glyph-name="I" unicode="I" horiz-adv-x="226" 
d="M154 315q0 4 6 -103l11 -214q-5 0 -14 2t-14 2q-11 0 -32.5 -2t-31.5 -2q-53 0 -50 45q18 219 18 330q0 74 -3 113l-13 152q-1 16 10 19q39 -6 36 -6q9 0 26.5 4.5t25.5 4.5q43 0 43 -50t-9 -147.5t-9 -147.5z" />
    <glyph glyph-name="J" unicode="J" horiz-adv-x="361" 
d="M319 157q0 -72 -33 -113q-37 -45 -107 -45q-16 0 -46.5 5.5t-46.5 5.5q-11 0 -33.5 -5t-34.5 -5q-2 1 -2 4q0 32 36 52q12 7 70 27q42 14 50 29t8 42q0 18 -4.5 56t-4.5 56v71q0 19 3 57t3 56q0 15 8 43.5t8 43.5q0 13 -15 13t-44 -3t-44 -3q-64 0 -64 44q0 10 4 26
q7 22 7 25q-6 11 -6 17q0 3 12 3q13 0 47.5 -4.5t38.5 -4.5q24 0 71 4.5t71 4.5q16 0 29 -11.5t13 -26.5q0 6 -26 -87q-17 -58 -15 -89q-3 14 31 -194q0 -1 10 -47q6 -28 6 -47z" />
    <glyph glyph-name="K" unicode="K" horiz-adv-x="483" 
d="M443 437q0 -25 -60 -83t-60 -67q0 -19 58.5 -137t58.5 -143q0 -22 -15 -22q-18 0 -111 106q-85 95 -108 130q-12 19 -12 37t49 47t49 61q0 30 -37 30q-82 0 -115 -66q-23 -47 -23 -140q0 -70 29 -70q6 0 18 1t17 1q51 0 51 -33q0 -14 -7.5 -32t-7.5 -27q0 -15 7 -29
q-43 5 -85 3q-75 -3 -70 -3q-57 0 -53 47l15 187l8 93l-8 93l-15 188q-1 14 8 33t22 17q71 -10 169 -10q85 2 170 5q0 -5 -4 -14.5t-4 -13.5q0 -7 5.5 -21t5.5 -21q0 -50 -75 -45q-143 8 -160 8q-39 0 -39 -34q0 -15 25 -31t40 -17l5 2q7 0 21 -2.5t22 -2.5q26 0 79.5 7
t80.5 7q19 0 37.5 -10.5t18.5 -28.5z" />
    <glyph glyph-name="L" unicode="L" horiz-adv-x="423" 
d="M381 37q0 -44 -47 -41l-147 10q-21 2 -58 -2q-43 -5 -58 -5q-30 0 -39 7q-12 9 -12 37q0 24 7 73t7 74v254q0 31 -7.5 94t-7.5 94q0 24 13 24q4 0 12.5 -2.5t12.5 -2.5q9 0 26 2.5t26 2.5q25 0 34.5 -7t15.5 -34q5 -23 3 -41l-38 -420q0 -21 6 -29t27 -8h103q31 0 31 37
q0 51 -13 125q-11 61 -23 123q-1 9 -1 17q0 50 48 50q6 0 17 -3.5t17 -3.5q-3 0 31 5q-7 -74 -7 -156q0 -78 10 -170q11 -102 11 -104z" />
    <glyph glyph-name="M" unicode="M" horiz-adv-x="585" 
d="M537 6q-3 -5 -14 -5q-6 0 -18.5 2.5t-15.5 2.5t-24.5 -4.5t-25.5 -4.5q-49 0 -49 82l37 367q0 39 -1 47q-5 35 -24 35q-29 0 -51 -66q-17 -62 -34 -123q-18 -66 -37 -66q-15 0 -32 67q-28 109 -33 124q-24 67 -54 67q-19 0 -19 -67l27 -378q4 -28 -5 -54q-11 -32 -36 -32
q1 0 -19 2t-38 2q-25 0 -45 -4l20 329l-11 285q0 26 2 33q6 18 30 18q50 0 118.5 -48t99.5 -48q19 0 90 48.5t111 48.5q19 0 23 -1q23 -8 23 -57l-11 -223v-163z" />
    <glyph glyph-name="N" unicode="N" horiz-adv-x="499" 
d="M457 413q0 -72 -35 -158q-2 -6 -31 -67q-26 -56 -26 -59q0 -9 9 -9q4 0 7.5 0.5t12 2t13.5 1.5q42 0 42 -47q0 -7 -9 -33t-6 -44q-36 5 -62 5q-11 0 -34.5 -3t-35.5 -3q-44 0 -44 34q0 -1 28 87q38 118 38 207q0 122 -53 194q-12 16 -40 31.5t-47 15.5q-56 0 -51 -74
l25 -348q0 4 -2 -26l-5 -80q-10 -41 -57 -41q-7 0 -22.5 3t-22.5 3q-1 0 -28 -8q-10 5 -10 18q0 24 6 63q10 60 10 63q15 119 15 219q0 63 -11 145q0 2 -10 64q-6 41 -6 63q0 23 26 23q11 0 36 -3t37 -3q26 0 78.5 3.5t78.5 3.5q52 0 102 -47q42 -40 66 -95q18 -40 18 -101z
" />
    <glyph glyph-name="O" unicode="O" horiz-adv-x="465" 
d="M428 347q0 -23 -9 -100q-9 -72 -67 -160q-65 -99 -129 -99q-53 0 -108 58q-48 49 -71 106q-25 65 -25 154q0 39 13.5 98t31.5 93q1 2 33 55q27 45 27 49t-14.5 19.5t-14.5 20.5q-3 22 22 22q14 0 42.5 -5.5t43.5 -5.5q13 0 39 4.5t40 4.5q17 0 29 -11q4 -4 21 -26
q42 -56 69 -131q27 -78 27 -146zM320 288q0 94 -45 173q-14 23 -36 46q-29 29 -47 29q-29 0 -48 -70q-15 -55 -15 -96q0 -106 63 -196q8 -11 30.5 -28t32.5 -17q30 0 50 67q15 51 15 92z" />
    <glyph glyph-name="P" unicode="P" horiz-adv-x="449" 
d="M421 448q0 -92 -53 -157q-56 -70 -145 -70q-3 0 -6 -1.5t-5 -1.5q-6 0 -23.5 6.5t-22.5 10.5v13q70 23 100 61.5t30 110.5q0 58 -27 102q-31 52 -86 53h-15q-40 1 -40 -53q0 -9 2.5 -28t2.5 -28q-6 -286 -6 -298q0 -29 5 -47q12 0 36.5 1.5t36.5 1.5q69 0 69 -51
q0 -8 -6.5 -25t-6.5 -25q0 -5 2 -14.5t3 -13.5l-24 -1q-10 0 -30.5 2.5t-30.5 2.5q-20 0 -59.5 -2.5t-59.5 -2.5q-55 0 -51 41l25 230q5 48 -8 142q-9 52 -17 103q-11 74 -11 99q0 49 51 49q10 0 29.5 -4.5t28.5 -4.5q29 0 86 4.5t86 4.5q27 0 54 -18.5t43 -43.5
q43 -66 43 -148z" />
    <glyph glyph-name="Q" unicode="Q" horiz-adv-x="469" 
d="M426 99q0 -6 -2.5 -20t-2.5 -21q0 -10 1 -30t1 -29q-16 -6 -27 -6q-37 0 -87 44q-21 -16 -43 -32q-18 -11 -55 -11q-43 0 -92 52q-39 42 -61 91q-25 53 -32 82q-9 36 -9 91q0 128 78 249q27 42 27 48q0 4 -13.5 18t-13.5 18q0 22 17 22q9 0 25 -3t23 -4q21 -1 58 -1
q6 0 19.5 4t20.5 4q17 0 44 -23q23 -20 34 -39q11 -15 31 -47q54 -96 54 -223q0 -126 -58 -214q7 -5 17 -5q6 0 17 3t17 3q12 0 12 -21zM316 280q0 132 -69 218q-36 45 -63 45q-29 0 -49 -74q-16 -59 -16 -101q0 -63 27 -128q30 -73 76 -104q16 -10 26 -10q7 0 10 4
q-10 18 -10 42q0 23 17 23q10 0 17 -10.5t13 -20.5q21 44 21 116z" />
    <glyph glyph-name="R" unicode="R" horiz-adv-x="492" 
d="M462 7q0 -8 -3 -11q-6 0 -18.5 2.5t-18.5 2.5q-12 0 -36.5 -4t-36.5 -4q-20 0 -27.5 15.5t-15.5 63.5q-10 64 -11 68q-9 41 -36 89q-5 9 -50 65q-40 49 -40 58q0 14 36 41q55 39 68 52q37 35 37 71q0 28 -31 43q-24 12 -56 12q-50 0 -70.5 -17.5t-20.5 -66.5
q0 -14 3 -41.5t3 -41.5v-150l-13 -116q-3 -18 23 -18q7 0 21.5 3t21.5 3q44 0 44 -45q0 -9 -8 -26.5t-8 -26.5q0 -6 2.5 -15.5t2.5 -14.5q-60 6 -90 6q-12 0 -37 -4.5t-37 -4.5q-50 0 -46 42l17 158l8 79v118l-8 76l-14 150q-5 44 49 44q24 0 70.5 -5t70.5 -5q25 0 75.5 5
t75.5 5q85 0 85 -63q0 -46 -64 -138t-64 -100t73.5 -172t73.5 -182z" />
    <glyph glyph-name="S" unicode="S" horiz-adv-x="424" 
d="M388 150q0 -148 -156 -148q-20 0 -61 4t-61 4q-42 0 -85 -9q1 5 8.5 15.5t7.5 14.5q0 13 -5.5 38t-5.5 37q0 22 24 32q19 8 42 6l117 -10q60 -6 60 47q0 49 -67 115q-63 59 -125 118q-67 73 -67 140q0 12 7 35q14 44 52 60q27 11 80 11l114 -10q12 -1 39.5 4t38.5 6
q-5 -14 -5 -25q0 -9 5.5 -26t5.5 -26q0 -25 -26 -38q-22 -11 -48 -9l-113 11q-42 4 -42 -20q0 -27 57 -70q66 -50 72 -61q30 -28 74 -70q27 -26 46 -82q17 -52 17 -94z" />
    <glyph glyph-name="T" unicode="T" horiz-adv-x="407" 
d="M386 567q0 -28 -48 -28q-9 0 -25.5 1.5t-24.5 1.5q-70 0 -108 -103q-28 -77 -28 -163q0 -29 14 -92q4 -16 24.5 -36t35.5 -20h104q37 0 37 -47q0 -9 -4.5 -26.5t-4.5 -26.5q0 -15 9 -31h-178q-17 0 -42 12q-105 53 -105 219q0 143 93 302q3 6 4 12h-119q1 5 2.5 16.5
t1.5 18.5q0 9 -3.5 27t-3.5 26q0 12 12 20t25 8q103 0 258 -4q12 -1 35.5 2t34.5 3q1 0 3 -3.5t3 -3.5q-10 -13 -10 -31q0 -9 4 -27.5t4 -26.5z" />
    <glyph glyph-name="U" unicode="U" horiz-adv-x="475" 
d="M428 632l-28 -279q1 8 1 -56q0 -59 9 -162q1 -13 9 -49q7 -32 7 -48q0 -44 -31 -44q-13 0 -46 5.5t-53 5.5q-17 0 -51 -4.5t-51 -4.5q-88 0 -137 76q-40 65 -40 158q0 71 24 155q24 81 62 145v7q3 -1 -38 -1q-46 0 -46 34q0 3 10.5 28.5t11.5 30.5q2 6 -12 26l6 3
q5 3 12 3q9 0 29 -6t28 -6q9 0 28 4t29 4q47 0 47 -35q0 -8 -15 -49q-10 -26 -20 -53q-38 -113 -38 -214q0 -41 9 -93q7 -42 40 -84q37 -47 76 -47q28 0 42 24q12 21 11 50l-25 390v36q0 35 7 50q11 23 42 23q9 0 26.5 -3t25.5 -3q6 0 17 4t14 4q11 0 8 -25z" />
    <glyph glyph-name="V" unicode="V" horiz-adv-x="457" 
d="M404 555q0 -21 3.5 -63.5t3.5 -63.5q0 -130 -16 -202q-23 -100 -90 -178q-49 -57 -83 -57q-79 0 -146 111q-60 99 -60 189q0 32 12 91t24 86l20 34q12 22 12 38q-1 1 -2 1q-25 -7 -29 -7q-15 0 -28.5 12t-13.5 26q0 11 11 32t11 33q0 7 -6 19q2 1 5 1q4 0 12 -2t12 -2h50
q9 0 25.5 2.5t24.5 2.5q14 0 24.5 -10t10.5 -24q0 -4 -20 -60q-24 -66 -25 -69q-19 -61 -19 -120q0 -57 21 -118q22 -66 58 -105q29 -32 43 -32q53 0 53 158q0 51 -13 150.5t-13 148.5q0 38 6 53q10 26 42 26q8 0 25 -3.5t26 -3.5q-4 0 38 5q-9 -84 -9 -99z" />
    <glyph glyph-name="W" unicode="W" horiz-adv-x="667" 
d="M621 339q0 -215 -111 -311q-40 -34 -60 -34q-30 0 -74 41q-34 31 -58 67q-92 -105 -135 -105q-24 0 -68 43q-38 37 -53 65q-44 82 -44 166q0 108 81 263l-5 7q-15 -5 -28 -5q-16 0 -28 9.5t-12 25.5q0 10 9.5 32.5t9.5 35.5q0 3 -1.5 8.5t-1.5 7.5q1 2 2 2q5 0 14 -2.5
t13 -2.5q18 0 53 3t51 3q29 0 29 -33q0 -11 -19 -54q-22 -53 -24 -58q-30 -93 -30 -182q0 -71 28 -128q11 -21 31 -45q25 -32 39 -32q9 0 27 23.5t18 33.5q-5 15 -11 34q-11 44 -11 85q0 102 65 228v7q2 -1 -23 -1q-42 0 -42 38q0 12 9.5 32.5t9.5 31.5q0 8 -3 16h12
t20.5 -1t20.5 -1q11 0 34 2.5t34 2.5q12 0 21 -11t9 -23q0 -14 -18 -57q-23 -55 -25 -61q-19 -64 -19 -130q0 -99 68 -196q8 -11 26 -29q23 -21 31 -21q17 0 31 44q12 39 11 60v3l-38 352q-1 21 7 42q11 25 29 25q7 0 20 -3t20 -3q22 0 63 7q1 -2 1 -5q0 2 -8 -30
q-8 -36 -8 -80q0 -14 1.5 -41t1.5 -41q0 -20 4 -60t4 -60z" />
    <glyph glyph-name="X" unicode="X" horiz-adv-x="494" 
d="M461 -2q-1 -1 -17 2.5t-21 3.5q-10 0 -27 -3t-26 -3q-23 0 -31 7q-12 9 -18 40l-8 46q-16 64 -28 94q-21 52 -51 84q-7 1 -48.5 -59.5t-41.5 -71.5v-16q-1 0 44 0q59 0 59 -39q0 -10 -8.5 -25t-8.5 -25q0 -26 3 -32q-7 0 -41 4q-25 2 -41 1l-76 -5q-55 0 -55 45
q0 42 40 116q27 50 76 118q40 58 40 59q0 -1 -36 58q-42 68 -68 121q-36 77 -36 120v13q21 -6 38 -6q7 0 28.5 4.5t28.5 4.5q18 0 23 -6q7 -9 13 -18q23 -155 70 -216q46 45 77 110q1 9 -7 9q-2 0 -7.5 -1t-8.5 -1q-53 0 -53 32q0 4 7.5 24.5t8.5 25.5q2 12 2 38q7 2 8 1
q16 -5 34 -5q15 0 46 6t48 7q44 2 44 -54q0 -39 -40 -109q-25 -44 -73 -110q-37 -52 -36 -54q37 -36 104 -160q70 -131 70 -175z" />
    <glyph glyph-name="Y" unicode="Y" horiz-adv-x="482" 
d="M448 605q0 -64 -35 -136q-22 -47 -76 -126q-58 -84 -77 -120q-10 -20 -10 -69q0 -11 10 -23.5t21 -12.5q4 0 11 1.5t11 1.5q64 0 64 -41q0 -11 -7.5 -31t-7.5 -31q0 -9 3 -17q-10 0 -30.5 2t-30.5 2q-15 0 -46.5 -5t-46.5 -5q-63 0 -63 41q0 29 12.5 84.5t12.5 83.5
q0 35 -37 105q-46 89 -52 107q-20 55 -40 109q-23 66 -23 113q0 8 1 18q36 -7 28 -7q11 0 33 4.5t33 4.5q12 0 19 -4q18 -11 24 -48q3 -28 7 -57q45 -211 74 -211q-1 0 25 31q70 82 70 155q0 13 -8 17q-46 -1 -49 -1q-24 0 -24 29q0 10 7.5 30t7.5 30q0 16 -9 29
q69 -12 92 -12q13 0 37.5 6t37.5 6q31 0 31 -53z" />
    <glyph glyph-name="Z" unicode="Z" horiz-adv-x="426" 
d="M392 608q0 -50 -59 -161q-21 -40 -110 -189q-58 -99 -58 -119q0 -12 13 -12q120 0 144 -1q15 0 43 -2q13 -3 21 -15.5t8 -21.5q0 -13 -7.5 -34t-7.5 -33q0 -11 5 -23q-35 0 -114 3t-76 3q-3 0 -58 -2.5t-58 -2.5q-30 0 -42 4q-23 8 -23 35q0 15 4 35q0 5 12.5 32t12.5 28
q31 61 106 183q74 119 110 195q4 6 4 23q-5 6 -17 4q-23 -2 -16 -2q-3 0 -50 -1.5t-50 -1.5q-45 0 -60 3q-39 9 -39 40q0 13 7 31t7 28q0 11 -6 23q2 2 7 2q7 0 24 -4t21 -4q29 -3 62 -3q34 0 100 4.5t99 4.5q41 0 41 -49z" />
    <glyph glyph-name="bracketleft" unicode="[" horiz-adv-x="316" 
d="M339 722v-50h-132v-730h132v-50h-255v830h255z" />
    <glyph glyph-name="backslash" unicode="\" horiz-adv-x="572" 
d="M124 737l431 -737h-74l-431 737h74z" />
    <glyph glyph-name="bracketright" unicode="]" horiz-adv-x="339" 
d="M31 -108v50h132v730h-132v50h255v-830h-255z" />
    <glyph glyph-name="asciicircum" unicode="^" horiz-adv-x="291" 
d="M62 674q-4 -7 -15 -7t-11 9q0 7 8 17q29 36 51 58q52 55 79 57q20 -4 76 -57q27 -28 55 -55q7 -7 7 -14q0 -13 -14 -13q-5 0 -12 3l-112 64q-40 -18 -112 -62z" />
    <glyph glyph-name="underscore" unicode="_" horiz-adv-x="467" 
d="M0 -58h500v-90h-500v90z" />
    <glyph glyph-name="grave" unicode="`" horiz-adv-x="203" 
d="M202 501l-95 92q-11 12 -23.5 24t-30.5 12q-15 0 -27.5 -9.5t-12.5 -25.5q0 -24 25 -37l123 -61z" />
    <glyph glyph-name="a" unicode="a" horiz-adv-x="367" 
d="M309 36q0 -41 -35 -41q-15 0 -45.5 7t-45.5 7q-14 0 -43 -7t-43 -7q-46 0 -70 48q-18 37 -18 88q0 104 82 173q32 26 46 26q6 0 11 -6v-9l-19 -28q-10 -15 -19 -47.5t-9 -52.5q0 -88 52 -88q36 0 47 46q5 21 5 75q0 67 -11 96q-18 50 -74 50q-12 0 -46 -12.5t-37 -12.5
q-7 0 -12 7v8q0 6 38 48t47 48q6 4 24 4q133 0 154 -66q7 -23 7 -80q0 -17 -1.5 -55t-0.5 -58v-21q0 -22 8 -71t8 -69z" />
    <glyph glyph-name="b" unicode="b" horiz-adv-x="352" 
d="M305 242q0 -100 -32 -164q-43 -84 -133 -84q-35 0 -81 19q-54 23 -54 52q0 -6 10 37q13 57 12 133q0 49 -3 147q-5 81 -16 241q-1 13 3 28q25 -5 31 -5q7 0 22.5 2.5t23.5 2.5q41 0 37 -42l-14 -161q-1 -12 13 -26q6 2 47 21q31 14 48 14q49 0 71 -85q15 -57 15 -130z
M215 243q0 35 -9 63q-14 40 -40 40q-25 0 -40 -32q-12 -26 -12 -54v-79q0 -24 12 -55q29 -23 36 -23q53 0 53 140z" />
    <glyph glyph-name="c" unicode="c" horiz-adv-x="316" 
d="M282 12q0 -18 -16 -18q-15 0 -44.5 5.5t-44.5 5.5q-11 0 -35 -4t-36 -4q-55 0 -76 67q-6 19 -18 114q-3 28 -3 50q0 59 14 123q19 86 53 103q8 3 29 3q12 0 36.5 -2.5t36.5 -2.5q8 0 23 2.5t23 2.5q25 0 39 -27q11 -22 11 -50q0 -45 -22 -86q-25 -49 -64 -55q-9 14 -9 26
q0 8 2.5 24t2.5 24q0 44 -39 44q-26 0 -39 -32q-9 -23 -9 -53q0 -25 18 -99q11 -45 55 -70q37 -18 75 -35q37 -21 37 -56z" />
    <glyph glyph-name="d" unicode="d" horiz-adv-x="357" 
d="M306 610l-14 -340q3 -3 3 -61v-65q0 -16 5.5 -49.5t5.5 -51.5v-44q-11 5 -27 5q-9 0 -26 -3t-26 -3q-32 0 -31 34l-4 7h-7q2 0 -32 -22t-56 -22q-89 0 -89 242q0 225 100 225q19 0 46 -20.5t33 -20.5q15 0 15 35q0 24 -11 109q-3 25 -3 42q0 7 -3.5 19.5t-3.5 16.5
q0 6 4 9.5t9 3.5t14 -4.5t12 -4.5q9 0 26 4t26 4q36 0 34 -45zM202 227q0 120 -52 120q-46 0 -46 -120q0 -114 48 -114q50 0 50 114z" />
    <glyph glyph-name="e" unicode="e" horiz-adv-x="323" 
d="M287 6q0 -18 -17 -18q-11 0 -34.5 4.5t-34.5 4.5q-13 0 -40 -4.5t-41 -4.5q-49 0 -81 76q-25 61 -25 122v41t0 37q2 55 20 114q25 81 62 81q14 0 41.5 -4t41.5 -4q7 0 21 4t21 4q32 0 48 -38q12 -29 12 -66q0 -91 -75 -152q-26 -16 -79 -49q-4 -3 -4 -4q0 -11 21 -34
q18 -20 30 -26q35 -15 70 -31q43 -22 43 -53zM183 305q0 19 -9 34q-10 19 -28 19q-47 0 -47 -111q0 1 4 -44q29 11 54.5 42t25.5 60z" />
    <glyph glyph-name="f" unicode="f" horiz-adv-x="222" 
d="M188 585q0 -28 -23.5 -29t-44.5 -1q-11 -4 -11 -17q0 -35 19 -53q10 -8 37 -17q20 -7 20 -17q1 -12 -20 -19q-25 -9 -30 -16q-8 -10 -2 -99l22 -321q-43 11 -35 11q-11 0 -32.5 -4.5t-31.5 -4.5q-35 0 -35 30q0 19 8 62q9 51 10 65q7 70 7 142q0 86 -9 116
q-4 12 -20.5 16t-16.5 22q-1 9 22 19t23 29q0 15 -6.5 54.5t-6.5 54.5q0 27 10 36t35 9q13 0 39.5 -2.5t39.5 -2.5q-4 0 26 5q0 -5 -4 -13t-4 -12q0 -7 7 -21.5t7 -21.5z" />
    <glyph glyph-name="g" unicode="g" horiz-adv-x="362" 
d="M319 -88q0 -100 -100 -100q-20 0 -61.5 7t-62.5 7q-33 0 -42 -4q-12 -5 -20 -4q-4 3 -4 10q0 28 36 53t64 21l5 6q48 -1 67 30q14 23 14 73v273q0 2 -2 6.5t-2 7.5q-9 47 -44 47q-56 0 -56 -113q0 -56 5 -75q10 -46 48 -47h35v-70q0 -11 -19.5 -27.5t-31.5 -16.5h-10
q-7 -1 -10 -1q-110 0 -110 180q0 93 17 172q7 30 29 67q26 44 50 44q12 0 37.5 -7t37.5 -7q14 0 41 7t40 7q23 0 35.5 -20t11.5 -43l-14 -169q0 -97 3 -150q1 -21 7 -82q6 -52 6 -82z" />
    <glyph glyph-name="h" unicode="h" horiz-adv-x="371" 
d="M319 -1q-2 -4 -8 -4q-3 0 -11 4.5t-12 4.5q-9 0 -26 -4.5t-25 -4.5q-26 0 -26 50q0 15 3.5 44t3.5 42q4 127 4 151q0 72 -52 72q-48 0 -48 -64v-173q0 -15 4.5 -44.5t4.5 -44.5q0 -33 -24 -33q-6 0 -19 3t-19 3q-5 0 -14.5 -3t-14.5 -3q-24 0 -24 28q0 31 6.5 94.5
t6.5 95.5v197l-8 204q1 -12 1 40q54 -8 44 -8q7 0 20 4.5t20 4.5q30 0 30 -33q0 -30 -7.5 -89t-7.5 -88q0 -23 14 -23l53 19t86 19q6 0 17.5 -7.5t15.5 -12.5q13 -18 13 -50q0 -13 -3 -39t-3 -40q0 -17 -1.5 -51t-1.5 -51q0 -32 4.5 -94t4.5 -93q0 -13 -1 -23z" />
    <glyph glyph-name="i" unicode="i" horiz-adv-x="194" 
d="M64 499q-16 0 -32 12q14 26 14 30q0 11 -11 35t-11 35q0 38 32 38q5 0 15 -2.5t15 -2.5t16 2.5t16 2.5q29 0 29 -45q0 -44 -19 -72q-22 -33 -64 -33zM144 27q1 -4 3 -14t2 -15q-31 6 -41 6q-8 0 -23 -3t-23 -3q-35 0 -35 37q0 23 7 69.5t7 70.5q-1 48 -1 96q0 24 -9 65
q-13 67 -13 99q0 29 19 29q4 0 10.5 -3.5t9.5 -3.5q9 0 27.5 3t27.5 3q30 0 30 -31q0 -18 -4 -53.5t-4 -52.5q0 2 -3 -56q-2 -48 0 -68z" />
    <glyph glyph-name="j" unicode="j" horiz-adv-x="224" 
d="M179 592q0 -43 -21 -71q-23 -31 -63 -31q-19 0 -31 13q13 19 13 28q0 4 -10.5 39t-10.5 38q0 28 14 32t76 4q33 0 33 -52zM176 -88q-17 -108 -70 -108q-3 0 -18.5 6.5t-17.5 10.5q-3 9 -12 27q-4 5 -21 5q-1 4 14 75q15 75 16 91q5 57 5 123l-13 313q25 -6 31 -6
q3 0 31 3t32 3q20 0 20 -30l-13 -185z" />
    <glyph glyph-name="k" unicode="k" horiz-adv-x="387" 
d="M345 425q0 -17 -22 -56l-32 -54q-10 -17 -21 -34q-12 -22 -12 -32l82 -217q-2 -32 -34 -32q-4 0 -23 3t-23 3q8 0 -62 -6q-3 4 -3 9q0 3 11 16t11 33q0 27 -34.5 98t-34.5 82q0 6 31.5 38.5t31.5 58.5q0 8 -7 18.5t-15 10.5q-71 0 -71 -103l22 -234q0 -24 -24 -24l-20 2
q-18 1 -28 0q-3 0 -11.5 -2.5t-12.5 -2.5q-24 0 -24 35l8 150v265l-8 208q0 4 7 4q2 0 8.5 -4t10.5 -4q3 0 23 5.5t23 5.5q19 0 31 -13.5t12 -30.5l-17 -152q0 -29 13 -31h7q9 0 47.5 12t52.5 14q24 4 59 4q19 0 33.5 -14t14.5 -29z" />
    <glyph glyph-name="l" unicode="l" horiz-adv-x="203" 
d="M150 622l-13 -153v-276l10 -189q-13 5 -39 2q-38 -3 -47 -3q-22 0 -29 9q-5 6 -5 26l14 199v256q0 4 -4 46t-4 45q-2 8 -5 17q-4 18 -4 31q0 19 9 26q11 -6 26 -6q8 0 29 3.5t34 3.5q28 0 28 -37z" />
    <glyph glyph-name="m" unicode="m" horiz-adv-x="559" 
d="M510 382l-12 -173l12 -215q3 -1 -77 -1q-19 0 -27 4.5t-8 21.5q0 18 4.5 53.5t4.5 53.5t1 56v57q0 60 -3 72q-10 36 -52 36q-13 0 -24.5 -11t-13.5 -24q-8 -51 -6 -88l14 -208q0 -10 -4 -22q-31 5 -33 5q-7 0 -20.5 -3t-20.5 -3q-38 0 -36 40q11 221 11 245q0 71 -43 71
q-34 0 -45 -29q-5 -14 -8 -59q-2 -60 -2 -117q0 -20 5.5 -60t5.5 -59q0 -29 -25 -29h-60q-27 0 -27 27q0 32 7 96t7 96v86q0 17 -4 51.5t-4 51.5v51q13 -3 27 -3q10 0 29 3t29 3q4 0 17 -10q3 -5 4 -27q2 -4 9 -4q-2 0 53 20.5t75 20.5q30 0 37.5 -23.5t15.5 -23.5
q2 0 26 13.5t32 15.5q55 15 83 15q23 0 35.5 -24.5t10.5 -48.5z" />
    <glyph glyph-name="n" unicode="n" horiz-adv-x="354" 
d="M311 25q0 -4 -1.5 -11t-2.5 -9.5t-6 -2.5q-4 0 -12.5 2.5t-13.5 2.5q-7 0 -22 -3t-22 -3q-36 0 -34 28q14 215 14 230q0 87 -48 87t-48 -65v-192q0 -9 3 -26.5t3 -26.5q0 -35 -30 -35h-56q-28 0 -28 23q0 20 6 59t6 57q1 32 1 74v141q0 17 -2 49.5t-3 46.5q-13 1 84 1
q19 0 22.5 -20.5t8.5 -20.5l45.5 20.5t74.5 20.5q56 0 56 -61q0 -20 -3 -60.5t-3 -60.5v-139q0 -18 5.5 -53t5.5 -53z" />
    <glyph glyph-name="o" unicode="o" horiz-adv-x="342" 
d="M294 218q0 -73 -31 -138q-41 -88 -116 -88t-114 75q-30 55 -30 125q0 32 15 110t14 126q0 31 34 31q3 0 19.5 -4t20 -4t7.5 -1t7 -1q12 0 52.5 5t41.5 5q16 0 29 -22q51 -93 51 -219zM199 227q0 116 -53 116q-48 0 -48 -141q0 -17 8 -44q9 -30 19 -38t29 -8q45 0 45 115z
" />
    <glyph glyph-name="p" unicode="p" horiz-adv-x="347" 
d="M299 227q0 -69 -19 -135q-31 -103 -96 -103q-37 0 -74 41h-7q-2 -4 -2 -23q0 -53 27.5 -123t27.5 -64q0 -12 -14 -12q-3 0 -20 2.5t-21 2.5q-2 0 -27 -2.5t-28 -2.5q-25 0 -32.5 10t-7.5 33l11 143v328l-10 131q28 -10 30 -10q4 0 22.5 4t21.5 4h22q6 -12 17 -35
q-2 0 4 0q11 0 37 19t58 19q14 0 30 -21q12 -15 17 -26q33 -81 33 -180zM204 216q0 121 -50 121q-45 0 -45 -111q0 -117 44 -117q51 0 51 107z" />
    <glyph glyph-name="q" unicode="q" horiz-adv-x="341" 
d="M299 407l-8 -99v-60l-3 -261l8 -131q0 -26 -7.5 -35t-30.5 -9q-3 0 -31 4t-31 4q-4 0 -17 -3.5t-21 -4.5q-6 7 -6 11q0 -2 24.5 60.5t24.5 115.5q0 19 -3 26q-2 2 -5 2t-18.5 -12t-24.5 -15t-32 -3q-63 0 -92 94q-18 58 -18 120q0 39 11.5 102.5t22.5 81.5q36 63 69 63
q4 0 28.5 -9.5t27.5 -9.5q12 0 36.5 4t25 4t17 4.5t26.5 4.5q27 0 27 -49zM198 230q0 114 -47 114q-50 0 -50 -121q0 -115 45 -115h7q7 0 18 9.5t13 13.5q14 39 14 99z" />
    <glyph glyph-name="r" unicode="r" horiz-adv-x="283" 
d="M246 395q0 -14 -9.5 -53t-9.5 -59q0 -7 2.5 -22.5t2.5 -23.5h-22q-9 0 -26.5 22t-20.5 32q-4 14 -8.5 28t-12.5 23h-13q-15 -17 -15 -61q0 -157 44 -239q3 -4 18 -44q-5 -6 -10 -6q-7 0 -21 4t-20 4q-11 0 -32 -2.5t-32 -2.5q-34 0 -39 15q-2 8 -2 25q0 21 5.5 63.5
t4.5 64.5q-1 72 -1 144q-3 83 -12 144q15 -5 38 -5q8 0 23 3t22 3q11 0 14 -20t13 -20q5 0 29 20t38 20q52 0 52 -57z" />
    <glyph glyph-name="s" unicode="s" horiz-adv-x="349" 
d="M306 144q0 -73 -25 -108q-29 -41 -99 -41q-17 0 -52.5 2.5t-52.5 2.5q-5 0 -14 -1t-14 -1q-9 0 -23 2v71q0 35 63 35q16 0 48.5 -6t48.5 -6q20 0 32.5 16t12.5 37q0 49 -39 49q-21 0 -67.5 -21.5t-64.5 -21.5q-50 0 -50 73q0 42 25.5 102.5t55.5 86.5q45 37 64 37
q17 0 46 -19t44 -19q5 0 20.5 5t18.5 6q3 -14 3 -12q0 -12 -26.5 -46.5t-39 -40.5t-24.5 -6q-18 0 -33.5 13.5t-28.5 13.5q-15 0 -24 -15t-9 -31q0 -35 34 -35q15 0 45.5 7t45.5 7q42 0 63 -50q16 -37 16 -86z" />
    <glyph glyph-name="t" unicode="t" horiz-adv-x="227" 
d="M188 456q0 -12 -13 -18q-18 -9 -24 -18q-4 -5 -11 -50v-78q4 -62 14 -178q2 -16 10 -60q8 -40 8 -42v-17q7 1 -26 4q-14 1 -43 -1q-32 -3 -30 -3q-38 0 -38 33q0 3 5 31.5t6 41.5q10 88 10 207q0 5 2 37q1 21 -1 34q-2 19 -9 32t-27 26q-16 10 -16 23q0 8 7 15q1 1 20 12
t29 45q4 20 15 61q2 7 16 27t20 20q13 0 14 -9q0 -29 4 -86q2 -23 16 -43q11 -16 38 -32q4 -16 4 -14z" />
    <glyph glyph-name="u" unicode="u" horiz-adv-x="363" 
d="M313 422q-14 -131 -14 -136v-188q0 -14 5.5 -43t5.5 -43q0 -17 -8 -17q-4 0 -12 4t-12 4q-8 0 -23.5 -4t-23.5 -4q-29 0 -29 17t-9 23q-4 -1 -57 -27q-33 -16 -60 -16q-56 0 -56 79q0 12 2.5 37.5t2.5 38.5v155q0 -9 -12 135q-1 8 1 13t11 4q12 -4 21 -4q8 0 23 2t23 2
q21 0 28 -12q4 -8 4 -30q0 -36 -5 -111t-5 -111q0 -96 36 -96h13q31 0 39 26q12 42 9 115l-11 213q0 8 9 6q22 -3 16 -3q10 0 30 3t30 3q12 0 20.5 -11.5t7.5 -23.5z" />
    <glyph glyph-name="v" unicode="v" horiz-adv-x="356" 
d="M309 258q0 -16 -4.5 -48t-5.5 -47q0 -44 -45 -107q-48 -67 -89 -67q-26 0 -64 36q-32 30 -47 59q-25 49 -25 112q0 48 38 157q-4 4 -25 4q-24 0 -24 25l17 47q-3 17 -3 15v5h19q4 0 5 -2.5t4 -2.5q9 0 27.5 2.5t27.5 2.5q32 0 32 -21q0 -8 -5 -26q-22 -86 -22 -145
q0 -41 17 -91q21 -64 52 -64q36 0 36 86q0 22 -13 106q-10 55 -19 111q-2 10 5 27t16 17q44 0 66 -5l5 5h15l4 -6q-4 -25 -4 -52q0 -22 4.5 -66.5t4.5 -66.5z" />
    <glyph glyph-name="w" unicode="w" horiz-adv-x="531" 
d="M481 184q0 -50 -42 -119q-46 -76 -92 -76q-43 0 -93 73q-23 -22 -46 -45q-31 -28 -54 -28q-29 0 -61 36q-61 67 -61 167q0 71 40 162q-3 7 -28 7q-15 0 -23 11q-1 4 -1 8q0 12 7.5 32t8.5 31l1 6q35 -8 45 -8q8 0 24.5 4t24.5 4q9 0 17 -9t8 -18q0 -6 -16 -61
q-19 -68 -19 -69v-65q0 -26 22 -74q25 -53 46 -53q8 0 19.5 12t11.5 20q0 14 -6.5 43t-6.5 43q0 68 35 136q-5 7 -32 8q-22 0 -22 20q0 7 8.5 24.5t8.5 27.5q0 6 -3 12q25 -3 43 -3q8 0 22.5 3t21.5 3q8 0 24 -6q7 -8 7 -19q0 -14 -13.5 -67t-13.5 -80q0 -30 11 -79
q6 -23 26 -58q24 -40 41 -40q16 0 23 33q3 24 6 47q-9 57 -18 115q-14 85 -14 108q0 46 30 46q7 0 22 -4t22 -4q4 0 13 4t14 4q-3 0 12 -3v-262z" />
    <glyph glyph-name="x" unicode="x" horiz-adv-x="386" 
d="M340 15q0 -9 -4 -16q-31 6 -36 6q-8 0 -22 -3t-22 -3q4 0 -18 4q-11 9 -15 31q-2 18 -5 36q-22 81 -55 120q-9 -3 -26.5 -34.5t-17.5 -43.5q0 -17 31 -18t31 -27q0 -8 -6 -22t-6 -22q0 -7 4 -14q-3 -9 -9 -9q-9 0 -27.5 3.5t-27.5 3.5q-11 0 -31.5 -2.5t-30.5 -2.5
q-24 0 -31 6q-10 7 -10 29q0 33 50 123q3 6 36 52q30 43 30 45q0 -5 -49.5 71t-49.5 116q0 7 3 15q15 -8 17 -8q10 0 31 4t32 4q7 0 20 -9q32 -118 56 -128q7 3 37 47q-3 8 -17.5 9.5t-20.5 8.5v3q0 6 7 39v27q1 1 3 1t3 -1q37 -5 56 -5q5 0 16.5 2.5t16.5 2.5q43 0 43 -24
q0 -34 -52 -105t-52 -70q22 -30 49 -67q20 -31 43 -86q26 -62 26 -89z" />
    <glyph glyph-name="y" unicode="y" horiz-adv-x="360" 
d="M316 415q-16 -236 -16 -298q0 -38 8 -114t8 -114q0 -33 -29 -54q-26 -17 -61 -17q-19 0 -58.5 6.5t-59.5 6.5q-41 0 -73 -11q-6 6 -6 11q0 22 41.5 53t64.5 31q93 0 93 70q0 42 -15 51h-9q-9 0 -56.5 -17.5t-73.5 -17.5q-53 0 -53 70q0 16 4 50t4 51v128q0 22 -5.5 64
t-5.5 63l3 28q16 -5 29 -5q8 0 23.5 2.5t22.5 2.5q35 0 35 -32l-5 -42q-2 -30 -7 -91q-3 -24 -5 -47q-2 -26 2 -59q7 -49 10 -56q10 -28 41 -28q19 0 33 15.5t14 34.5v116l-10 186q6 0 18.5 -1t18.5 -1t19.5 2t20.5 2q38 0 35 -39z" />
    <glyph glyph-name="z" unicode="z" horiz-adv-x="325" 
d="M281 80q0 -9 -4.5 -25.5t-4.5 -25.5q0 -14 7 -25q-4 -8 -21 -8q-10 0 -33 6t-31 5l-134 -8q-30 0 -40 10t-10 39q0 52 55 157q41 76 91 148q-67 -7 -80 -7q-17 0 -36 10q-22 11 -22 25q0 7 7.5 22.5t7.5 22.5q0 3 -5.5 8t-5.5 10q0 16 31 16q9 0 27 -4.5t27 -4.5
q22 0 68 4t69 4q15 0 25 -12t10 -28q0 -38 -73.5 -151.5t-74.5 -151.5l7 -6q4 -1 11 -1q13 0 39 1.5t39 1.5q54 0 54 -32z" />
    <glyph glyph-name="braceleft" unicode="{" horiz-adv-x="428" 
d="M459 722v-50h-132v-730h132v-50h-255v830h255zM25 314q0 42 21.5 72t52.5 30q30 0 51.5 -30t21.5 -72t-21.5 -71.5t-51.5 -29.5q-31 0 -52.5 29.5t-21.5 71.5z" />
    <glyph glyph-name="bar" unicode="|" horiz-adv-x="572" 
d="M124 737l431 -737h-74l-431 737h74z" />
    <glyph glyph-name="braceright" unicode="}" horiz-adv-x="480" 
d="M25 722v-50h132v-730h-132v-50h255v830h-255zM459 314q0 42 -21.5 72t-52.5 30q-30 0 -51.5 -30t-21.5 -72t21.5 -71.5t51.5 -29.5q31 0 52.5 29.5t21.5 71.5z" />
    <glyph glyph-name="asciitilde" unicode="~" horiz-adv-x="310" 
d="M243 694q-23 0 -70.5 28.5t-63.5 28.5q-22 0 -47 -44q-8 -3 -14 -3q-27 0 -26 35q38 78 88 78q24 0 71.5 -28.5t63.5 -28.5q22 0 46 43q3 1 4 2l1 1q6 4 15 3q21 -4 21 -36q-38 -79 -89 -79z" />
    <glyph glyph-name="Adieresis" unicode="&#xc4;" horiz-adv-x="500" 
d="M450 18l-6 -19q-9 9 -24 9q-9 0 -30 -4.5t-33 -4.5q-49 0 -49 42q0 37 11 110.5t11 111.5q0 39 -21 53q-16 11 -51 11q-57 0 -74 -5q-39 -11 -39 -52q0 -36 8 -107t8 -106q0 -58 -53 -58q-9 0 -27 5.5t-28 5.5q-17 0 -34 -10l-3 18q0 35 16 109q15 70 14 108
q-7 129 -7 170q0 36 16.5 95t16.5 86q0 17 -12.5 34.5t-12.5 21.5q0 16 30 19q-8 -1 43 -1q25 0 72.5 -4.5t71.5 -4.5q23 0 68 5t67 5q43 0 43 -36q0 -117 -5 -154q-16 -102 -3 -225q16 -154 16 -228zM330 454q0 103 -98 103t-98 -103q0 -26 7 -35.5t32 -9.5q9 0 26 2.5
t26 2.5q12 0 36 -2.5t37 -2.5q32 0 32 45zM270 754q0 21 16 36t39 15t39 -15t16 -36t-16 -35.5t-39 -14.5t-39 14.5t-16 35.5zM110 754q0 21 16 36t39 15t39 -15t16 -36t-16 -35.5t-39 -14.5t-39 14.5t-16 35.5z" />
    <glyph glyph-name="Aring" unicode="&#xc5;" horiz-adv-x="500" 
d="M450 18l-6 -19q-9 9 -24 9q-9 0 -30 -4.5t-33 -4.5q-49 0 -49 42q0 37 11 110.5t11 111.5q0 39 -21 53q-16 11 -51 11q-57 0 -74 -5q-39 -11 -39 -52q0 -36 8 -107t8 -106q0 -58 -53 -58q-9 0 -27 5.5t-28 5.5q-17 0 -34 -10l-3 18q0 35 16 109q15 70 14 108
q-7 129 -7 170q0 36 16.5 95t16.5 86q0 17 -12.5 34.5t-12.5 21.5q0 16 30 19q-8 -1 43 -1q25 0 72.5 -4.5t71.5 -4.5q23 0 68 5t67 5q43 0 43 -36q0 -117 -5 -154q-16 -102 -3 -225q16 -154 16 -228zM330 454q0 103 -98 103t-98 -103q0 -26 7 -35.5t32 -9.5q9 0 26 2.5
t26 2.5q12 0 36 -2.5t37 -2.5q32 0 32 45zM243 821q29 0 49.5 -20.5t20.5 -49.5t-20.5 -49.5t-49.5 -20.5t-49 20.5t-20 49.5t20 49.5t49 20.5zM243 791q-16 0 -27.5 -11.5t-11.5 -28.5q0 -16 11.5 -28t27.5 -12q17 0 28.5 12t11.5 28q0 17 -11.5 28.5t-28.5 11.5z" />
    <glyph glyph-name="Ccedilla" unicode="&#xc7;" horiz-adv-x="396" 
d="M363 530q0 -51 -23 -105q-28 -66 -71 -66q-19 0 -19 20q0 12 5.5 35.5t5.5 35.5q0 35 -16 63q-20 33 -52 33q-49 0 -70 -65q-15 -45 -15 -108q0 -129 65 -204q33 -39 118 -85q63 -34 61 -66v-6l-18 -11q-40 4 -96 4q-16 0 -37 -1l-17 -46q30 11 47 11q20 0 35 -14t15 -34
q0 -58 -58 -75q-42 -13 -46 -13q-10 0 -11 13l2 3q64 19 64 59q0 28 -26 28q-6 0 -18.5 -4.5t-18.5 -4.5q-17 0 -22 18l19 56q-27 -2 -45 -2q-58 0 -90 135q-22 96 -22 184q0 139 21 214q38 130 141 130q11 0 33 -5.5t33 -5.5q10 0 30 5.5t30 5.5q37 0 54 -50q12 -34 12 -82
z" />
    <glyph glyph-name="Eacute" unicode="&#xc9;" horiz-adv-x="420" 
d="M380 38q0 -8 11 -37h-29q-21 0 -55.5 4.5t-54.5 4.5q-30 0 -95.5 -7t-95.5 -7q-48 0 -48 61q0 49 24 143t24 143q0 46 -22.5 135t-22.5 135q0 22 14.5 35t35.5 11q78 -3 232 -9q31 -1 54 5l23 6q5 0 10 -4q2 -5 -2 -17t-4 -16q0 -8 3 -24.5t3 -24.5q0 -37 -54 -37
q-27 0 -80.5 7t-79.5 7q-16 0 -30 -7q-18 -9 -18 -24q2 -45 56 -70q23 -10 99 -27q54 -11 54 -28q0 -22 -59 -40q-74 -23 -76 -25q-30 -20 -49 -87q-16 -56 -16 -104q0 -29 29 -29q31 0 92 9.5t92 9.5q49 0 49 -35q0 -10 -7 -28.5t-7 -28.5zM115 688l95 92l24 24t30 12
q16 0 28 -9.5t12 -25.5q0 -24 -25 -37l-123 -61z" />
    <glyph glyph-name="Ntilde" unicode="&#xd1;" horiz-adv-x="497" 
d="M457 413q0 -72 -35 -158q-2 -6 -31 -67q-26 -56 -26 -59q0 -9 9 -9q4 0 7.5 0.5t12 2t13.5 1.5q42 0 42 -47q0 -7 -9 -33t-6 -44q-36 5 -62 5q-11 0 -34.5 -3t-35.5 -3q-44 0 -44 34q0 -1 28 87q38 118 38 207q0 122 -53 194q-12 16 -40 31.5t-47 15.5q-56 0 -51 -74
l25 -348q0 4 -2 -26l-5 -80q-10 -41 -57 -41q-7 0 -22.5 3t-22.5 3q-1 0 -28 -8q-10 5 -10 18q0 24 6 63q10 60 10 63q15 119 15 219q0 63 -11 145q0 2 -10 64q-6 41 -6 63q0 23 26 23q11 0 36 -3t37 -3q26 0 78.5 3.5t78.5 3.5q52 0 102 -47q42 -40 66 -95q18 -40 18 -101z
M273 694q-23 0 -70.5 28.5t-63.5 28.5q-22 0 -47 -44q-8 -3 -14 -3q-27 0 -26 35q38 78 88 78q24 0 71.5 -28.5t63.5 -28.5q22 0 46 43q3 1 4 2l1 1q6 4 15 3q21 -4 21 -36q-38 -79 -89 -79z" />
    <glyph glyph-name="Odieresis" unicode="&#xd6;" horiz-adv-x="465" 
d="M428 347q0 -23 -9 -100q-9 -72 -67 -160q-65 -99 -129 -99q-53 0 -108 58q-48 49 -71 106q-25 65 -25 154q0 39 13.5 98t31.5 93q1 2 33 55q27 45 27 49t-14.5 19.5t-14.5 20.5q-3 22 22 22q14 0 42.5 -5.5t43.5 -5.5q13 0 39 4.5t40 4.5q17 0 29 -11q4 -4 21 -26
q42 -56 69 -131q27 -78 27 -146zM320 288q0 94 -45 173q-14 23 -36 46q-29 29 -47 29q-29 0 -48 -70q-15 -55 -15 -96q0 -106 63 -196q8 -11 30.5 -28t32.5 -17q30 0 50 67q15 51 15 92zM240 754q0 21 16 36t39 15t39 -15t16 -36t-16 -35.5t-39 -14.5t-39 14.5t-16 35.5z
M80 754q0 21 16 36t39 15t39 -15t16 -36t-16 -35.5t-39 -14.5t-39 14.5t-16 35.5z" />
    <glyph glyph-name="Udieresis" unicode="&#xdc;" horiz-adv-x="475" 
d="M428 632l-28 -279q1 8 1 -56q0 -59 9 -162q1 -13 9 -49q7 -32 7 -48q0 -44 -31 -44q-13 0 -46 5.5t-53 5.5q-17 0 -51 -4.5t-51 -4.5q-88 0 -137 76q-40 65 -40 158q0 71 24 155q24 81 62 145v7q3 -1 -38 -1q-46 0 -46 34q0 3 10.5 28.5t11.5 30.5q2 6 -12 26l6 3
q5 3 12 3q9 0 29 -6t28 -6q9 0 28 4t29 4q47 0 47 -35q0 -8 -15 -49q-10 -26 -20 -53q-38 -113 -38 -214q0 -41 9 -93q7 -42 40 -84q37 -47 76 -47q28 0 42 24q12 21 11 50l-25 390v36q0 35 7 50q11 23 42 23q9 0 26.5 -3t25.5 -3q6 0 17 4t14 4q11 0 8 -25zM250 754
q0 21 16 36t39 15t39 -15t16 -36t-16 -35.5t-39 -14.5t-39 14.5t-16 35.5zM90 754q0 21 16 36t39 15t39 -15t16 -36t-16 -35.5t-39 -14.5t-39 14.5t-16 35.5z" />
    <glyph glyph-name="aacute" unicode="&#xe1;" horiz-adv-x="357" 
d="M309 36q0 -41 -35 -41q-15 0 -45.5 7t-45.5 7q-14 0 -43 -7t-43 -7q-46 0 -70 48q-18 37 -18 88q0 104 82 173q32 26 46 26q6 0 11 -6v-9l-19 -28q-10 -15 -19 -47.5t-9 -52.5q0 -88 52 -88q36 0 47 46q5 21 5 75q0 67 -11 96q-18 50 -74 50q-12 0 -46 -12.5t-37 -12.5
q-7 0 -12 7v8q0 6 38 48t47 48q6 4 24 4q133 0 154 -66q7 -23 7 -80q0 -17 -1.5 -55t-0.5 -58v-21q0 -22 8 -71t8 -69zM65 488l95 92l24 24t30 12q16 0 28 -9.5t12 -25.5q0 -24 -25 -37l-123 -61z" />
    <glyph glyph-name="agrave" unicode="&#xe0;" horiz-adv-x="357" 
d="M309 36q0 -41 -35 -41q-15 0 -45.5 7t-45.5 7q-14 0 -43 -7t-43 -7q-46 0 -70 48q-18 37 -18 88q0 104 82 173q32 26 46 26q6 0 11 -6v-9l-19 -28q-10 -15 -19 -47.5t-9 -52.5q0 -88 52 -88q36 0 47 46q5 21 5 75q0 67 -11 96q-18 50 -74 50q-12 0 -46 -12.5t-37 -12.5
q-7 0 -12 7v8q0 6 38 48t47 48q6 4 24 4q133 0 154 -66q7 -23 7 -80q0 -17 -1.5 -55t-0.5 -58v-21q0 -22 8 -71t8 -69zM251 488l-95 92q-11 12 -23.5 24t-30.5 12q-15 0 -27.5 -9.5t-12.5 -25.5q0 -24 26 -37l122 -61z" />
    <glyph glyph-name="acircumflex" unicode="&#xe2;" horiz-adv-x="359" 
d="M309 36q0 -41 -35 -41q-15 0 -45.5 7t-45.5 7q-14 0 -43 -7t-43 -7q-46 0 -70 48q-18 37 -18 88q0 104 82 173q32 26 46 26q6 0 11 -6v-9l-19 -28q-10 -15 -19 -47.5t-9 -52.5q0 -88 52 -88q36 0 47 46q5 21 5 75q0 67 -11 96q-18 50 -74 50q-12 0 -46 -12.5t-37 -12.5
q-7 0 -12 7v8q0 6 38 48t47 48q6 4 24 4q133 0 154 -66q7 -23 7 -80q0 -17 -1.5 -55t-0.5 -58v-21q0 -22 8 -71t8 -69zM73 487q-3 -6 -12 -6t-9 7q0 5 7 14q24 29 41 47q42 45 64 46q16 -3 61 -46q23 -22 45 -45q6 -5 6 -11q0 -10 -11 -10q-5 0 -10 2l-91 52
q-32 -14 -91 -50z" />
    <glyph glyph-name="adieresis" unicode="&#xe4;" horiz-adv-x="360" 
d="M309 36q0 -41 -35 -41q-15 0 -45.5 7t-45.5 7q-14 0 -43 -7t-43 -7q-46 0 -70 48q-18 37 -18 88q0 104 82 173q32 26 46 26q6 0 11 -6v-9l-19 -28q-10 -15 -19 -47.5t-9 -52.5q0 -88 52 -88q36 0 47 46q5 21 5 75q0 67 -11 96q-18 50 -74 50q-12 0 -46 -12.5t-37 -12.5
q-7 0 -12 7v8q0 6 38 48t47 48q6 4 24 4q133 0 154 -66q7 -23 7 -80q0 -17 -1.5 -55t-0.5 -58v-21q0 -22 8 -71t8 -69zM176 534q0 18 14 30.5t33 12.5t33 -12.5t14 -30.5t-14 -30.5t-33 -12.5t-33 12.5t-14 30.5zM40 534q0 18 14 30.5t33 12.5t33 -12.5t14 -30.5t-14 -30.5
t-33 -12.5t-33 12.5t-14 30.5z" />
    <glyph glyph-name="atilde" unicode="&#xe3;" horiz-adv-x="357" 
d="M309 36q0 -41 -35 -41q-15 0 -45.5 7t-45.5 7q-14 0 -43 -7t-43 -7q-46 0 -70 48q-18 37 -18 88q0 104 82 173q32 26 46 26q6 0 11 -6v-9l-19 -28q-10 -15 -19 -47.5t-9 -52.5q0 -88 52 -88q36 0 47 46q5 21 5 75q0 67 -11 96q-18 50 -74 50q-12 0 -46 -12.5t-37 -12.5
q-7 0 -12 7v8q0 6 38 48t47 48q6 4 24 4q133 0 154 -66q7 -23 7 -80q0 -17 -1 -57q-2 -36 -1 -56v-21q0 -22 8 -71t8 -69zM223 483q-20 0 -60.5 24t-53.5 24q-18 0 -39 -37q-8 -3 -13 -3q-24 0 -22 31q32 67 75 67q21 0 61 -24.5t53 -24.5q19 0 40 37q1 0 4 2l1 1q4 3 12 1
q18 -3 18 -31q-32 -67 -76 -67z" />
    <glyph glyph-name="aring" unicode="&#xe5;" horiz-adv-x="356" 
d="M309 36q0 -41 -35 -41q-15 0 -45.5 7t-45.5 7q-14 0 -43 -7t-43 -7q-46 0 -70 48q-18 37 -18 88q0 104 82 173q32 26 46 26q6 0 11 -6v-9l-19 -28q-10 -15 -19 -47.5t-9 -52.5q0 -88 52 -88q36 0 47 46q5 21 5 75q0 67 -11 96q-18 50 -74 50q-12 0 -46 -12.5t-37 -12.5
q-7 0 -12 7v8q0 6 38 48t47 48q6 4 24 4q133 0 154 -66q7 -23 7 -80q0 -17 -1 -57q-2 -36 -1 -56v-21q0 -22 8 -71t8 -69zM163 631q29 0 49.5 -20.5t20.5 -49.5t-20.5 -49.5t-49.5 -20.5t-49 20.5t-20 49.5t20 49.5t49 20.5zM163 601q-16 0 -27.5 -11.5t-11.5 -28.5
q0 -16 11.5 -28t27.5 -12q17 0 28.5 12t11.5 28q0 17 -11.5 28.5t-28.5 11.5z" />
    <glyph glyph-name="ccedilla" unicode="&#xe7;" horiz-adv-x="317" 
d="M147 -39q27 10 42 10q18 0 31.5 -12.5t13.5 -30.5q0 -53 -52 -68q-38 -11 -41 -11q-9 0 -11 11l3 3q57 17 57 53q0 25 -23 25q-6 0 -17 -3.5t-17 -3.5q-15 0 -19 16l16 49q-14 -2 -24 -2q-55 0 -76 67q-6 19 -18 114q-3 28 -3 50q0 59 14 123q19 86 53 103q8 3 29 3
q12 0 36.5 -2.5t36.5 -2.5q8 0 23 2.5t23 2.5q25 0 39 -27q11 -22 11 -50q0 -45 -22 -86q-25 -49 -64 -55q-9 14 -9 26q0 8 2.5 24t2.5 24q0 44 -39 44q-26 0 -39 -32q-9 -23 -9 -53q0 -25 18 -99q11 -45 55 -70q37 -18 75 -35q37 -21 37 -56q0 -18 -16 -18q-15 0 -44.5 5.5
t-44.5 5.5q3 0 -14 -3v1z" />
    <glyph glyph-name="eacute" unicode="&#xe9;" horiz-adv-x="323" 
d="M287 6q0 -18 -17 -18q-11 0 -34.5 4.5t-34.5 4.5q-13 0 -40 -4.5t-41 -4.5q-49 0 -81 76q-25 61 -25 122v41t0 37q2 55 20 114q25 81 62 81q14 0 41.5 -4t41.5 -4q7 0 21 4t21 4q32 0 48 -38q12 -29 12 -66q0 -91 -75 -152q-26 -16 -79 -49q-4 -3 -4 -4q0 -11 21 -34
q18 -20 30 -26q35 -15 70 -31q43 -22 43 -53zM183 305q0 19 -9 34q-10 19 -28 19q-47 0 -47 -111q0 1 4 -44q29 11 54.5 42t25.5 60zM65 488l95 92l24 24t30 12q16 0 28 -9.5t12 -25.5q0 -24 -25 -37l-123 -61z" />
    <glyph glyph-name="egrave" unicode="&#xe8;" horiz-adv-x="323" 
d="M287 6q0 -18 -17 -18q-11 0 -34.5 4.5t-34.5 4.5q-13 0 -40 -4.5t-41 -4.5q-49 0 -81 76q-25 61 -25 122v41t0 37q2 55 20 114q25 81 62 81q14 0 41.5 -4t41.5 -4q7 0 21 4t21 4q32 0 48 -38q12 -29 12 -66q0 -91 -75 -152q-26 -16 -79 -49q-4 -3 -4 -4q0 -11 21 -34
q18 -20 30 -26q35 -15 70 -31q43 -22 43 -53zM183 305q0 19 -9 34q-10 19 -28 19q-47 0 -47 -111q0 1 4 -44q29 11 54.5 42t25.5 60zM241 488l-95 92q-11 12 -23.5 24t-30.5 12q-15 0 -27.5 -9.5t-12.5 -25.5q0 -24 26 -37l122 -61z" />
    <glyph glyph-name="ecircumflex" unicode="&#xea;" horiz-adv-x="324" 
d="M287 6q0 -18 -17 -18q-11 0 -34.5 4.5t-34.5 4.5q-13 0 -40 -4.5t-41 -4.5q-49 0 -81 76q-25 61 -25 122v41t0 37q2 55 20 114q25 81 62 81q14 0 41.5 -4t41.5 -4q7 0 21 4t21 4q32 0 48 -38q12 -29 12 -66q0 -91 -75 -152q-26 -16 -79 -49q-4 -3 -4 -4q0 -11 21 -34
q18 -20 30 -26q35 -15 70 -31q43 -22 43 -53zM183 305q0 19 -9 34q-10 19 -28 19q-47 0 -47 -111q0 1 4 -44q29 11 54.5 42t25.5 60zM73 487q-3 -6 -12 -6t-9 7q0 5 7 14q24 29 41 47q42 45 64 46q16 -3 61 -46q23 -22 45 -45q6 -5 6 -11q0 -10 -11 -10q-5 0 -10 2l-91 52
q-32 -14 -91 -50z" />
    <glyph glyph-name="edieresis" unicode="&#xeb;" horiz-adv-x="324" 
d="M287 6q0 -18 -17 -18q-11 0 -34.5 4.5t-34.5 4.5q-13 0 -40 -4.5t-41 -4.5q-49 0 -81 76q-25 61 -25 122v41t0 37q2 55 20 114q25 81 62 81q14 0 41.5 -4t41.5 -4q7 0 21 4t21 4q32 0 48 -38q12 -29 12 -66q0 -91 -75 -152q-26 -16 -79 -49q-4 -3 -4 -4q0 -11 21 -34
q18 -20 30 -26q35 -15 70 -31q43 -22 43 -53zM183 305q0 19 -9 34q-10 19 -28 19q-47 0 -47 -111q0 1 4 -44q29 11 54.5 42t25.5 60zM176 534q0 18 14 30.5t33 12.5t33 -12.5t14 -30.5t-14 -30.5t-33 -12.5t-33 12.5t-14 30.5zM40 534q0 18 14 30.5t33 12.5t33 -12.5
t14 -30.5t-14 -30.5t-33 -12.5t-33 12.5t-14 30.5z" />
    <glyph glyph-name="iacute" unicode="&#xed;" horiz-adv-x="212" 
d="M144 27q1 -4 3 -14t2 -15q-31 6 -41 6q-8 0 -23 -3t-23 -3q-35 0 -35 37q0 23 7 69.5t7 70.5q-1 48 -1 96q0 24 -9 65q-13 67 -13 99q0 29 19 29q4 0 10.5 -3.5t9.5 -3.5q9 0 27.5 3t27.5 3q30 0 30 -31q0 -18 -4 -53.5t-4 -52.5q0 2 -3 -56q-2 -48 0 -68zM-15 488l95 92
l24 24t30 12q16 0 28 -9.5t12 -25.5q0 -24 -25 -37l-123 -61z" />
    <glyph glyph-name="igrave" unicode="&#xec;" horiz-adv-x="197" 
d="M144 27q1 -4 3 -14t2 -15q-31 6 -41 6q-8 0 -23 -3t-23 -3q-35 0 -35 37q0 23 7 69.5t7 70.5q-1 48 -1 96q0 24 -9 65q-13 67 -13 99q0 29 19 29q4 0 10.5 -3.5t9.5 -3.5q9 0 27.5 3t27.5 3q30 0 30 -31q0 -18 -4 -53.5t-4 -52.5q0 2 -3 -56q-2 -48 0 -68zM171 488
l-95 92q-11 12 -23.5 24t-30.5 12q-15 0 -27.5 -9.5t-12.5 -25.5q0 -24 26 -37l122 -61z" />
    <glyph glyph-name="icircumflex" unicode="&#xee;" horiz-adv-x="215" 
d="M144 27q1 -4 3 -14t2 -15q-31 6 -41 6q-8 0 -23 -3t-23 -3q-35 0 -35 37q0 23 7 69.5t7 70.5q-1 48 -1 96q0 24 -9 65q-13 67 -13 99q0 29 19 29q4 0 10.5 -3.5t9.5 -3.5q9 0 27.5 3t27.5 3q30 0 30 -31q0 -18 -4 -53.5t-4 -52.5q0 2 -3 -56q-2 -48 0 -68zM-7 487
q-3 -6 -12 -6t-9 7q0 5 7 14q24 29 41 47q42 45 64 46q16 -3 61 -46q23 -22 45 -45q6 -5 6 -11q0 -10 -11 -10q-5 0 -10 2l-91 52q-32 -14 -91 -50z" />
    <glyph glyph-name="idieresis" unicode="&#xef;" horiz-adv-x="213" 
d="M144 27q1 -4 3 -14t2 -15q-31 6 -41 6q-8 0 -23 -3t-23 -3q-35 0 -35 37q0 23 7 69.5t7 70.5q-1 48 -1 96q0 24 -9 65q-13 67 -13 99q0 29 19 29q4 0 10.5 -3.5t9.5 -3.5q9 0 27.5 3t27.5 3q30 0 30 -31q0 -18 -4 -53.5t-4 -52.5q0 2 -3 -56q-2 -48 0 -68zM106 534
q0 18 14 30.5t33 12.5t33 -12.5t14 -30.5t-14 -30.5t-33 -12.5t-33 12.5t-14 30.5zM-30 534q0 18 14 30.5t33 12.5t33 -12.5t14 -30.5t-14 -30.5t-33 -12.5t-33 12.5t-14 30.5z" />
    <glyph glyph-name="ntilde" unicode="&#xf1;" horiz-adv-x="353" 
d="M311 25q0 -4 -1.5 -11t-2.5 -9.5t-6 -2.5q-4 0 -12.5 2.5t-13.5 2.5q-7 0 -22 -3t-22 -3q-36 0 -34 28q14 215 14 230q0 87 -48 87t-48 -65v-192q0 -9 3 -26.5t3 -26.5q0 -35 -30 -35h-56q-28 0 -28 23q0 20 6 59t6 57q1 32 1 74v141q0 17 -2 49.5t-3 46.5q-13 1 84 1
q19 0 22.5 -20.5t8.5 -20.5l45.5 20.5t74.5 20.5q56 0 56 -61q0 -20 -3 -60.5t-3 -60.5v-139q0 -18 5.5 -53t5.5 -53zM213 483q-20 0 -60.5 24t-53.5 24q-18 0 -39 -37q-8 -3 -13 -3q-24 0 -22 31q32 67 75 67q21 0 61 -24.5t53 -24.5q19 0 40 37q1 0 4 2l1 1q4 3 12 1
q18 -3 18 -31q-32 -67 -76 -67z" />
    <glyph glyph-name="oacute" unicode="&#xf3;" horiz-adv-x="337" 
d="M294 218q0 -73 -31 -138q-41 -88 -116 -88t-114 75q-30 55 -30 125q0 32 15 110t14 126q0 31 34 31q3 0 19.5 -4t20 -4t7.5 -1t7 -1q12 0 52.5 5t41.5 5q16 0 29 -22q51 -93 51 -219zM199 227q0 116 -53 116q-48 0 -48 -141q0 -17 8 -44q9 -30 19 -38t29 -8q45 0 45 115z
M65 488l95 92l24 24t30 12q16 0 28 -9.5t12 -25.5q0 -24 -25 -37l-123 -61z" />
    <glyph glyph-name="ograve" unicode="&#xf2;" horiz-adv-x="337" 
d="M294 218q0 -73 -31 -138q-41 -88 -116 -88t-114 75q-30 55 -30 125q0 32 15 110t14 126q0 31 34 31q3 0 19.5 -4t20 -4t7.5 -1t7 -1q12 0 52.5 5t41.5 5q16 0 29 -22q51 -93 51 -219zM199 227q0 116 -53 116q-48 0 -48 -141q0 -17 8 -44q9 -30 19 -38t29 -8q45 0 45 115z
M231 488l-95 92q-11 12 -23.5 24t-30.5 12q-15 0 -27.5 -9.5t-12.5 -25.5q0 -24 26 -37l122 -61z" />
    <glyph glyph-name="ocircumflex" unicode="&#xf4;" horiz-adv-x="337" 
d="M294 218q0 -73 -31 -138q-41 -88 -116 -88t-114 75q-30 55 -30 125q0 32 15 110t14 126q0 31 34 31q3 0 19.5 -4t20 -4t7.5 -1t7 -1q12 0 52.5 5t41.5 5q16 0 29 -22q51 -93 51 -219zM199 227q0 116 -53 116q-48 0 -48 -141q0 -17 8 -44q9 -30 19 -38t29 -8q45 0 45 115z
M53 487q-3 -6 -12 -6t-9 7q0 5 7 14q24 29 41 47q42 45 64 46q16 -3 61 -46q23 -22 45 -45q6 -5 6 -11q0 -10 -11 -10q-5 0 -10 2l-91 52q-32 -14 -91 -50z" />
    <glyph glyph-name="odieresis" unicode="&#xf6;" horiz-adv-x="337" 
d="M294 218q0 -73 -31 -138q-41 -88 -116 -88t-114 75q-30 55 -30 125q0 32 15 110t14 126q0 31 34 31q3 0 19.5 -4t20 -4t7.5 -1t7 -1q12 0 52.5 5t41.5 5q16 0 29 -22q51 -93 51 -219zM199 227q0 116 -53 116q-48 0 -48 -141q0 -17 8 -44q9 -30 19 -38t29 -8q45 0 45 115z
M166 534q0 18 14 30.5t33 12.5t33 -12.5t14 -30.5t-14 -30.5t-33 -12.5t-33 12.5t-14 30.5zM30 534q0 18 14 30.5t33 12.5t33 -12.5t14 -30.5t-14 -30.5t-33 -12.5t-33 12.5t-14 30.5z" />
    <glyph glyph-name="otilde" unicode="&#xf5;" horiz-adv-x="337" 
d="M294 218q0 -73 -31 -138q-41 -88 -116 -88t-114 75q-30 55 -30 125q0 32 15 110t14 126q0 31 34 31q3 0 19.5 -4t20 -4t7.5 -1t7 -1q12 0 52.5 5t41.5 5q16 0 29 -22q51 -93 51 -219zM199 227q0 116 -53 116q-48 0 -48 -141q0 -17 8 -44q9 -30 19 -38t29 -8q45 0 45 115z
M193 483q-20 0 -60.5 24t-53.5 24q-18 0 -39 -37q-8 -3 -13 -3q-24 0 -22 31q32 67 75 67q21 0 61 -24.5t53 -24.5q19 0 40 37q1 0 4 2l1 1q4 3 12 1q18 -3 18 -31q-32 -67 -76 -67z" />
    <glyph glyph-name="uacute" unicode="&#xfa;" horiz-adv-x="362" 
d="M313 422q-14 -131 -14 -136v-188q0 -14 5.5 -43t5.5 -43q0 -17 -8 -17q-4 0 -12 4t-12 4q-8 0 -23.5 -4t-23.5 -4q-29 0 -29 17t-9 23q-4 -1 -57 -27q-33 -16 -60 -16q-56 0 -56 79q0 12 2.5 37.5t2.5 38.5v155q0 -9 -12 135q-1 8 1 13t11 4q12 -4 21 -4q8 0 23 2t23 2
q21 0 28 -12q4 -8 4 -30q0 -36 -5 -111t-5 -111q0 -96 36 -96h13q31 0 39 26q12 42 9 115l-11 213q0 8 9 6q22 -3 16 -3q10 0 30 3t30 3q12 0 20.5 -11.5t7.5 -23.5zM65 488l95 92l24 24t30 12q16 0 28 -9.5t12 -25.5q0 -24 -25 -37l-123 -61z" />
    <glyph glyph-name="ugrave" unicode="&#xf9;" horiz-adv-x="357" 
d="M313 422q-14 -131 -14 -136v-188q0 -14 5.5 -43t5.5 -43q0 -17 -8 -17q-4 0 -12 4t-12 4q-8 0 -23.5 -4t-23.5 -4q-29 0 -29 17t-9 23q-4 -1 -57 -27q-33 -16 -60 -16q-56 0 -56 79q0 12 2.5 37.5t2.5 38.5v155q0 -9 -12 135q-1 8 1 13t11 4q12 -4 21 -4q8 0 23 2t23 2
q21 0 28 -12q4 -8 4 -30q0 -36 -5 -111t-5 -111q0 -96 36 -96h13q31 0 39 26q12 42 9 115l-11 213q0 8 9 6q22 -3 16 -3q10 0 30 3t30 3q12 0 20.5 -11.5t7.5 -23.5zM251 488l-95 92q-11 12 -23.5 24t-30.5 12q-15 0 -27.5 -9.5t-12.5 -25.5q0 -24 26 -37l122 -61z" />
    <glyph glyph-name="ucircumflex" unicode="&#xfb;" horiz-adv-x="362" 
d="M313 422q-14 -131 -14 -136v-188q0 -14 5.5 -43t5.5 -43q0 -17 -8 -17q-4 0 -12 4t-12 4q-8 0 -23.5 -4t-23.5 -4q-29 0 -29 17t-9 23q-4 -1 -57 -27q-33 -16 -60 -16q-56 0 -56 79q0 12 2.5 37.5t2.5 38.5v155q0 -9 -12 135q-1 8 1 13t11 4q12 -4 21 -4q8 0 23 2t23 2
q21 0 28 -12q4 -8 4 -30q0 -36 -5 -111t-5 -111q0 -96 36 -96h13q31 0 39 26q12 42 9 115l-11 213q0 8 9 6q22 -3 16 -3q10 0 30 3t30 3q12 0 20.5 -11.5t7.5 -23.5zM63 487q-3 -6 -12 -6t-9 7q0 5 7 14q24 29 41 47q42 45 64 46q16 -3 61 -46q23 -22 45 -45q6 -5 6 -11
q0 -10 -11 -10q-5 0 -10 2l-91 52q-32 -14 -91 -50z" />
    <glyph glyph-name="udieresis" unicode="&#xfc;" horiz-adv-x="360" 
d="M313 422q-14 -131 -14 -136v-188q0 -14 5.5 -43t5.5 -43q0 -17 -8 -17q-4 0 -12 4t-12 4q-8 0 -23.5 -4t-23.5 -4q-29 0 -29 17t-9 23q-4 -1 -57 -27q-33 -16 -60 -16q-56 0 -56 79q0 12 2.5 37.5t2.5 38.5v155q0 -9 -12 135q-1 8 1 13t11 4q12 -4 21 -4q8 0 23 2t23 2
q21 0 28 -12q4 -8 4 -30q0 -36 -5 -111t-5 -111q0 -96 36 -96h13q31 0 39 26q12 42 9 115l-11 213q0 8 9 6q22 -3 16 -3q10 0 30 3t30 3q12 0 20.5 -11.5t7.5 -23.5zM178 534q0 18 14 30.5t33 12.5t33 -12.5t14 -30.5t-14 -30.5t-33 -12.5t-33 12.5t-14 30.5zM42 534
q0 18 14 30.5t33 12.5t33 -12.5t14 -30.5t-14 -30.5t-33 -12.5t-33 12.5t-14 30.5z" />
    <glyph glyph-name="dagger" unicode="&#x2020;" horiz-adv-x="387" 
d="M182 455q-27 0 -63 -17t-53 -17q-45 0 -45 47q0 52 46 52q17 0 52.5 -19.5t62.5 -20.5q-1 35 -23 78t-22 58q0 23 16.5 36.5t40.5 13.5q56 0 56 -50q0 -15 -22 -57t-23 -79q28 1 63.5 20.5t51.5 19.5q47 0 47 -53q0 -52 -47 -52q-16 0 -51.5 19.5t-63.5 20.5
q6 -91 58 -146q-35 -67 -46 -154q-6 -44 -9 -161h-29q-3 116 -9 161q-11 88 -45 154q51 55 57 146z" />
    <glyph glyph-name="degree" unicode="&#xb0;" horiz-adv-x="306" 
d="M151 664q47 0 80.5 -32t33.5 -77q0 -46 -33.5 -78t-80.5 -32q-46 0 -79.5 32t-33.5 78q0 45 33.5 77t79.5 32zM151 625q-30 0 -51.5 -21t-21.5 -49q0 -29 21.5 -49.5t51.5 -20.5q31 0 52.5 20.5t21.5 49.5q0 28 -21.5 49t-52.5 21z" />
    <glyph glyph-name="cent" unicode="&#xa2;" horiz-adv-x="312" 
d="M166 656v-88h12q8 0 23 2.5t23 2.5q25 0 39 -27q11 -22 11 -50q0 -45 -22 -86q-25 -49 -64 -55q-9 14 -9 26q0 8 2.5 24t2.5 24q0 44 -39 44q-26 0 -39 -32q-9 -23 -9 -53q0 -25 18 -99q11 -45 55 -70q37 -18 75 -35q37 -21 37 -56q0 -18 -16 -18q-15 0 -44.5 5.5
t-44.5 5.5q-5 0 -11 -1v-115h-40v109q-11 -1 -20 -1q-55 0 -76 67q-6 19 -18 114q-3 28 -3 50q0 59 14 123q19 86 53 103q8 3 29 3q9 0 21 -1v84h40z" />
    <glyph glyph-name="sterling" unicode="&#xa3;" horiz-adv-x="428" 
d="M408 95q0 -11 -8.5 -31t-8.5 -30q0 -11 11 -28v-9q-74 5 -122 5q-9 0 -27.5 2.5t-28.5 2.5q-21 0 -62.5 -1t-62.5 -1q-9 0 -28.5 -3t-30.5 -3q-25 0 -25 18q0 10 3.5 30.5t3.5 31.5q0 7 -3 21t-3 21q0 20 38 75q44 63 50 79l-74 1l7 32l-5 19q-11 14 -11 26q0 14 24 16
h35q-73 124 -73 185q0 46 32.5 74.5t79.5 28.5q23 0 68.5 -5.5t68.5 -5.5q8 0 24 1t23 1t25.5 4t32.5 4q0 -5 -2 -15t-2 -14q0 -11 12 -29.5t12 -32.5q0 -37 -78 -37q-20 0 -60.5 2t-60.5 2q-32 0 -32 -27q0 -36 49 -136h97l-10 -32l7 -29q9 -10 9 -19q0 -13 -23 -13h-89
q-53 -104 -52 -142v-4q6 -2 16 -2q12 0 37 4t36.5 4t34.5 1.5t35 1.5q111 0 111 -44z" />
    <glyph glyph-name="section" unicode="&#xa7;" horiz-adv-x="14" 
 />
    <glyph glyph-name="bullet" unicode="&#x2022;" horiz-adv-x="359" 
d="M86 326q0 53 33.5 90.5t81.5 37.5t81.5 -37.5t33.5 -90.5q0 -54 -33.5 -91.5t-81.5 -37.5t-81.5 37.5t-33.5 91.5z" />
    <glyph glyph-name="paragraph" unicode="&#xb6;" horiz-adv-x="602" 
d="M139 3v23q40 0 52 4q27 8 27 37v291q-175 0 -175 147q0 151 172 151h350v-25q-33 0 -46 -5q-22 -9 -22 -36v-497q0 -46 12 -56.5t57 -10.5v-23h-427zM396 611h-76v-564h76v564z" />
    <glyph glyph-name="germandbls" unicode="&#xdf;" horiz-adv-x="454" 
d="M414 54q0 -91 -15 -138q-23 -73 -88 -98q-27 -10 -39 -10q-67 0 -67 50q0 7 11 26q7 13 7 59q0 22 14 19q13 -30 64 -30q34 0 45 25q7 15 7 57q0 115 -83 115q-9 0 -27 -1.5t-27 -1.5q-7 0 -18 15q4 24 29 57q20 25 41 50q6 10 17.5 38t11.5 37q0 16 -44 16q-8 0 -64 -3
q-38 -2 -63 2q23 -176 26 -288q0 -9 2.5 -28.5t2.5 -29.5q0 -172 -79 -172q-23 0 -34 23q-13 28 -32 34q29 119 29 301q0 71 -9.5 212.5t-9.5 212.5q0 12 4 18q-1 2 -1 5q0 10 10 22t20 12q12 0 35.5 -3t35.5 -3q21 0 49 3q0 -3 -2.5 -10.5t-2.5 -11.5q0 -8 5.5 -24t5.5 -24
q0 -29 -69 -29q-2 0 -9 -7q2 -32 8 -96q24 -7 71 -7q20 0 59 2t59 2q11 0 34 6t35 6q13 0 22.5 -15.5t9.5 -29.5q0 -37 -42.5 -107.5t-42.5 -72.5q0 -9 9 -13q22 -10 31 -16q15 -10 25 -25q33 -50 33 -131z" />
    <glyph glyph-name="registered" unicode="&#xae;" horiz-adv-x="379" 
d="M185 659q67 0 115 -49t48 -117t-48.5 -117t-116.5 -49t-117 48.5t-49 117.5q0 70 49 118t119 48zM181 635q-56 0 -95.5 -42t-39.5 -99q0 -58 40 -99.5t97 -41.5q58 0 97.5 41.5t39.5 99.5q0 59 -40 100t-99 41zM164 487v-46q0 -17 3 -18.5t24 -1.5v-16h-99v16
q20 0 22.5 2t2.5 18v103q0 17 -2.5 18.5t-22.5 1.5v17h104q68 0 68 -46q0 -34 -43 -43q24 -10 29 -38.5t11 -28.5q9 0 9 22h16l1 -6q1 -40 -43 -40q-33 0 -39 29q-4 24 -7 47q-5 10 -34 10zM164 504h11q40 0 40 30t-31 30h-5q-15 0 -15 -14v-46z" />
    <glyph glyph-name="copyright" unicode="&#xa9;" horiz-adv-x="747" 
d="M377 672q138 0 236.5 -100t98.5 -239q0 -140 -99.5 -239.5t-239.5 -99.5t-239.5 99.5t-99.5 238.5q0 143 100 241.5t243 98.5zM369 624q-116 0 -196.5 -87t-80.5 -204q0 -119 81.5 -205t199.5 -86t199.5 86t81.5 205q0 121 -82 206t-203 85zM519 518l5 -147l-33 -4
q-31 119 -109 119q-87 0 -87 -150q0 -153 94 -153q85 0 105 106l38 -9q-28 -136 -160 -136q-82 0 -132.5 51t-50.5 133q0 83 53 137.5t136 54.5q47 0 89 -25l26 23h26z" />
    <glyph glyph-name="trademark" unicode="&#x2122;" horiz-adv-x="651" 
d="M244 658l6 -97h-23q-14 74 -54 74q-3 0 -5 -3.5t-2 -7.5v-166q0 -15 2 -25q3 -4 36 -4v-23h-143v23q29 0 31 1q8 3 8 25v169q0 5 -2 8t-6 3q-40 0 -54 -74h-22l5 97h223zM394 658l48 -135l46 135h116l1 -26q-13 5 -18 5q-13 0 -16 -8q-2 -4 -2 -20v-154q0 -12 2 -22
q4 -4 33 -4v-23h-136v23q26 0 30.5 2.5t4.5 23.5v159l-72 -208h-16l-72 206v-134q0 -27 5 -35q7 -14 31 -14v-23h-102v23h4q33 0 33 40v143q0 19 -7 22q-2 1 -27 1v23h114z" />
    <glyph glyph-name="acute" unicode="&#xb4;" horiz-adv-x="237" 
d="M28 489l95 92q11 12 23.5 24t30.5 12q15 0 27.5 -9.5t12.5 -24.5q0 -25 -26 -38l-123 -60z" />
    <glyph glyph-name="dieresis" unicode="&#xa8;" horiz-adv-x="261" 
d="M154 545q0 20 16 35t39 15t39 -15t16 -35q0 -21 -16 -36t-39 -15t-39 15t-16 36zM-6 545q0 20 16 35t39 15t39 -15t16 -35q0 -21 -16 -36t-39 -15t-39 15t-16 36z" />
    <glyph glyph-name="AE" unicode="&#xc6;" horiz-adv-x="700" 
d="M660 38q0 -8 11 -37h-29q-21 0 -55.5 4.5t-54.5 4.5q-30 0 -96 -7l-2 -4q-2 2 -4 3q-59 -6 -89 -6q-48 0 -48 61q0 48 21 128q6 46 6 78q0 39 -21 53q-16 11 -51 11q-57 0 -74 -5q-39 -11 -39 -52q0 -36 8 -107t8 -106q0 -58 -53 -58q-9 0 -27 5.5t-28 5.5q-17 0 -34 -10
l-3 18q0 35 16 109q15 70 14 108q-7 129 -7 170q0 36 16.5 95t16.5 86q0 17 -12.5 34.5t-12.5 21.5q0 16 30 19q-8 -1 43 -1q25 0 72.5 -4.5t71.5 -4.5q38 0 93.5 4.5t91.5 4.5q54 0 125 -7q12 -1 23 -1q21 0 41.5 4.5t24.5 4.5q7 0 12 -4q2 -5 -2 -17t-4 -16q0 -8 3 -24.5
t3 -24.5q0 -37 -54 -37q-27 0 -80.5 7t-79.5 7q-16 0 -30 -7q-18 -9 -18 -24q2 -45 56 -70q23 -10 99 -27q54 -11 54 -28q0 -22 -59 -40q-74 -23 -76 -25q-30 -20 -49 -87q-16 -56 -16 -104q0 -29 29 -29q31 0 92 9.5t92 9.5q49 0 49 -35q0 -10 -7 -28.5t-7 -28.5zM320 454
q0 103 -98 103t-98 -103q0 -26 7 -35.5t32 -9.5q9 0 26 2.5t26 2.5q12 0 36 -2.5t37 -2.5q32 0 32 45z" />
    <glyph glyph-name="Oslash" unicode="&#xd8;" horiz-adv-x="468" 
d="M428 347q0 -23 -9 -100q-9 -72 -67 -160q-65 -99 -129 -99q-54 0 -111 60l-29 -56q-5 -12 -17 -12q-21 0 -21 20q0 5 3 10l36 72q-26 36 -40 70q-25 65 -25 154q0 39 13.5 98t31.5 93q1 2 33 55q27 45 27 49t-14.5 19.5t-14.5 20.5q-3 22 22 22q14 0 42.5 -5.5t43.5 -5.5
q13 0 39 4.5t40 4.5q17 0 29 -11q4 -4 21 -26q7 -10 15 -21l31 62q6 11 17 11q21 0 21 -20q0 -4 -2 -9l-43 -85q57 -110 57 -215zM275 460v1q-14 23 -36 46q-29 29 -47 29q-29 0 -48 -70q-15 -55 -15 -96q0 -75 30 -139zM320 288q0 62 -24 126l-113 -226q4 -7 9 -14
q8 -11 30.5 -28t32.5 -17q30 0 50 67q15 51 15 92z" />
    <glyph glyph-name="plusminus" unicode="&#xb1;" horiz-adv-x="177" 
 />
    <glyph glyph-name="yen" unicode="&#xa5;" horiz-adv-x="475" 
d="M65 294h69q-24 43 -60 122q-20 55 -40 109q-23 66 -23 113q0 8 1 18q36 -7 28 -7q11 0 33 4.5t33 4.5q12 0 19 -4q18 -11 24 -48q3 -28 7 -57q45 -211 74 -211q-1 0 25 31q70 82 70 155q0 13 -8 17q-46 -1 -49 -1q-24 0 -24 29q0 10 7.5 30t7.5 30q0 16 -9 29
q69 -12 92 -12q13 0 37.5 6t37.5 6q31 0 31 -53q0 -75 -48 -163q-12 -22 -97 -148h69q20 0 20 -20t-20 -20h-94q-10 -15 -24 -50h118q20 0 20 -20t-20 -20h-122v-10q0 -11 10 -23.5t21 -12.5q4 0 11 1.5t11 1.5q64 0 64 -41q0 -11 -7.5 -31t-7.5 -31q0 -9 3 -17
q-10 0 -30.5 2t-30.5 2q-15 0 -46.5 -5t-46.5 -5q-63 0 -63 41q0 26 8 64q13 61 13 64h-94q-20 0 -20 20t20 20h98v0q0 21 -11 50h-87q-20 0 -20 20t20 20z" />
    <glyph glyph-name="mu" unicode="&#xb5;" horiz-adv-x="446" 
d="M5 260l59 69v115q0 31 -7.5 94t-7.5 94q0 24 13 24q4 0 12.5 -2.5t12.5 -2.5q9 0 26 2.5t26 2.5q25 0 34.5 -7t15.5 -34q5 -23 3 -41l-9 -106l61 72v-67l-68 -80l-22 -239q0 -21 6 -29t27 -8h103q31 0 31 37q0 51 -13 125q-11 61 -23 123q-1 9 -1 17q0 50 48 50
q6 0 17 -3.5t17 -3.5q-3 0 31 5q-7 -74 -7 -156q0 -78 10 -170q11 -102 11 -104q0 -44 -47 -41l-147 10q-21 2 -58 -2q-43 -5 -58 -5q-30 0 -39 7q-12 9 -12 37q0 24 7 73t7 74v70l-59 -69v69z" />
    <glyph glyph-name="mu" unicode="&#x3bc;" horiz-adv-x="446" 
d="M5 260l59 69v115q0 31 -7.5 94t-7.5 94q0 24 13 24q4 0 12.5 -2.5t12.5 -2.5q9 0 26 2.5t26 2.5q25 0 34.5 -7t15.5 -34q5 -23 3 -41l-9 -106l61 72v-67l-68 -80l-22 -239q0 -21 6 -29t27 -8h103q31 0 31 37q0 51 -13 125q-11 61 -23 123q-1 9 -1 17q0 50 48 50
q6 0 17 -3.5t17 -3.5q-3 0 31 5q-7 -74 -7 -156q0 -78 10 -170q11 -102 11 -104q0 -44 -47 -41l-147 10q-21 2 -58 -2q-43 -5 -58 -5q-30 0 -39 7q-12 9 -12 37q0 24 7 73t7 74v70l-59 -69v69z" />
    <glyph glyph-name="ordfeminine" unicode="&#xaa;" horiz-adv-x="426" 
d="M392 608q0 -50 -59 -161q-21 -40 -110 -189q-58 -99 -58 -119q0 -12 13 -12q120 0 144 -1q15 0 43 -2q13 -3 21 -15.5t8 -21.5q0 -13 -7.5 -34t-7.5 -33q0 -11 5 -23q-35 0 -114 3t-76 3q-3 0 -58 -2.5t-58 -2.5q-30 0 -42 4q-23 8 -23 35q0 15 4 35q0 5 12.5 32t12.5 28
q31 61 106 183q74 119 110 195q4 6 4 23q-5 6 -17 4q-23 -2 -16 -2q-3 0 -50 -1.5t-50 -1.5q-45 0 -60 3q-39 9 -39 40q0 13 7 31t7 28q0 11 -6 23q2 2 7 2q7 0 24 -4t21 -4q29 -3 62 -3q34 0 100 4.5t99 4.5q41 0 41 -49zM327 786q4 6 15 6q23 0 3 -19q-30 -26 -51 -42
q-52 -40 -79 -41q-20 3 -76 41q-27 20 -55 40q-7 5 -7 10q0 9 14 9q5 0 11 -2l113 -46q40 13 112 44z" />
    <glyph glyph-name="ordmasculine" unicode="&#xba;" horiz-adv-x="325" 
d="M281 80q0 -9 -4.5 -25.5t-4.5 -25.5q0 -14 7 -25q-4 -8 -21 -8q-10 0 -33 6t-31 5q-135 -8 -134 -8q-30 0 -40 10t-10 39q0 52 55 157q41 76 91 148q-67 -7 -80 -7q-17 0 -36 10q-22 11 -22 25q0 7 7.5 22.5t7.5 22.5q0 3 -5.5 8t-5.5 10q0 16 31 16q9 0 27 -4.5t27 -4.5
q22 0 68 4t69 4q15 0 25 -12t10 -28q0 -38 -73.5 -151.5t-74.5 -151.5l7 -6q4 -1 11 -1q13 0 39 1.5t39 1.5q54 0 54 -32zM267 586q4 6 15 6q23 0 3 -19q-30 -26 -51 -42q-52 -40 -79 -41q-20 3 -76 41q-27 20 -55 40q-7 5 -7 10q0 9 14 9q5 0 11 -2l113 -46q40 13 112 44z
" />
    <glyph glyph-name="ae" unicode="&#xe6;" horiz-adv-x="516" 
d="M295 311v-1q0 -17 -1 -50t-2 -49l1 -8q29 11 54.5 42t25.5 60q0 19 -9 34q-10 19 -28 19q-29 0 -41 -47zM283 1q-13 0 -36.5 9t-34.5 9q-9 0 -17 -4q-40 -20 -98 -20q-46 0 -70 48q-18 37 -18 88q0 104 82 173q32 26 46 26q6 0 11 -6v-9q0 -1 -19 -28q-11 -15 -19.5 -47
t-8.5 -53q0 -96 53 -96q51 0 56 73q-2 44 0 103q-7 99 -90 99q-13 0 -45.5 -12.5t-37.5 -12.5q-7 0 -12 7v8q0 5 38.5 48.5t46.5 47.5t24 4q45 0 62 -3q38 -7 55 -31q26 37 35 37q14 0 41.5 -4t41.5 -4q7 0 21 4t21 4q32 0 48 -38q12 -29 12 -66q0 -91 -75 -152
q-45 -24 -99 -59q1 -14 11.5 -35t21.5 -27q8 -4 86 -11q61 -6 61 -35q0 -18 -17 -18q-11 0 -40 -8.5t-41.5 -8.5t-34 -1.5t-35.5 -1.5q-8 0 -13 1.5t-13 1.5z" />
    <glyph glyph-name="oslash" unicode="&#xf8;" horiz-adv-x="342" 
d="M294 218q0 -73 -31 -138q-41 -88 -116 -88q-53 0 -89 38l-21 -39q-6 -9 -15 -9q-19 0 -19 17q0 4 3 9l30 53q-33 57 -33 131q0 28 11.5 94t11.5 110q0 19 -1 37q-3 27 26 27q3 0 29 -6t29 -6h35q33 0 56 7q9 3 16 3q16 0 27 -20v-1l19 33q5 10 15 10q18 0 18 -18
q0 -4 -2 -8l-31 -57q32 -84 32 -179zM180 322q-13 21 -34 21q-48 0 -48 -141q0 -12 2 -24zM199 227q0 26 -4 50l-80 -144q15 -21 39 -21q45 0 45 115z" />
    <glyph glyph-name="questiondown" unicode="&#xbf;" horiz-adv-x="383" 
d="M17 -25q0 35 18 87q9 26 58 73.5t61 75.5q5 19 11 38q9 23 27 23h13q9 1 14 1q27 0 27 -22q0 -53 -57.5 -129t-57.5 -114q0 -85 62 -85q32 0 51 30q16 26 16 60q0 21 -10 46t-10 23q0 8 15 14q12 5 21 5q12 0 34.5 -20t28.5 -33q27 -51 27 -103q0 -139 -127 -139
q-9 0 -26.5 3t-26.5 3q-11 0 -33 -4.5t-33 -4.5q-21 0 -54 36q-29 33 -36 57q-13 40 -13 79zM144 391q0 31 16 54q17 27 47 27q32 0 50.5 -23t18.5 -55q0 -33 -15 -56q-17 -26 -48 -26q-29 0 -49 24.5t-20 54.5z" />
    <glyph glyph-name="exclamdown" unicode="&#xa1;" horiz-adv-x="228" 
d="M46 -183q3 47 44 437q2 22 33 19q33 0 29 -26q14 -167 14 -254q0 -3 8.5 -62t8.5 -61t3 -18t1 -20q-10 -26 -29 -26q-3 0 -28.5 5t-30.5 6q-8 0 -22 -4l-21 -7zM57 390q0 30 15 51q18 25 50 25q34 0 51 -30q13 -23 13 -53q0 -74 -64 -74q-32 0 -51 30q-14 24 -14 51z" />
    <glyph glyph-name="logicalnot" unicode="&#xac;" horiz-adv-x="177" 
 />
    <glyph glyph-name="florin" unicode="&#x192;" horiz-adv-x="177" 
 />
    <glyph glyph-name="guillemotleft" unicode="&#xab;" horiz-adv-x="485" 
d="M49 267q47 40 94 81q82 71 87 71q13 0 13 -12q0 -10 -83 -148q83 -138 83 -147q0 -12 -13 -12q-1 0 -181 152v15zM248 267q47 40 94 81q82 71 87 71q13 0 13 -12q0 -10 -83 -148q83 -138 83 -147q0 -12 -13 -12q-1 0 -181 152v15z" />
    <glyph glyph-name="guillemotright" unicode="&#xbb;" horiz-adv-x="487" 
d="M251 252l-96 -82q-82 -70 -86 -70q-13 0 -13 12q0 9 83 147q-83 138 -83 148q0 12 13 12q4 0 86 -70l96 -82v-15zM451 252q-48 -41 -95 -82q-82 -70 -87 -70q-13 0 -13 12q0 9 83 147q-83 138 -83 148q0 12 13 12q4 0 86 -70l96 -82v-15z" />
    <glyph glyph-name="ellipsis" unicode="&#x2026;" horiz-adv-x="821" 
d="M216 75q0 -32 -21 -57.5t-53 -25.5t-54 29q-20 26 -20 56q0 35 19.5 62.5t54.5 27.5q37 0 58 -35q16 -26 16 -57zM776 75q0 -32 -21 -57.5t-53 -25.5t-54 29q-20 26 -20 56q0 35 19.5 62.5t54.5 27.5q37 0 58 -35q16 -26 16 -57zM496 75q0 -32 -21 -57.5t-53 -25.5
t-54 29q-20 26 -20 56q0 35 19.5 62.5t54.5 27.5q37 0 58 -35q16 -26 16 -57z" />
    <glyph glyph-name="nonbreakingspace" unicode="&#xa0;" horiz-adv-x="177" 
 />
    <glyph glyph-name="Agrave" unicode="&#xc0;" horiz-adv-x="500" 
d="M450 18l-6 -19q-9 9 -24 9q-9 0 -30 -4.5t-33 -4.5q-49 0 -49 42q0 37 11 110.5t11 111.5q0 39 -21 53q-16 11 -51 11q-57 0 -74 -5q-39 -11 -39 -52q0 -36 8 -107t8 -106q0 -58 -53 -58q-9 0 -27 5.5t-28 5.5q-17 0 -34 -10l-3 18q0 35 16 109q15 70 14 108
q-7 129 -7 170q0 36 16.5 95t16.5 86q0 17 -12.5 34.5t-12.5 21.5q0 16 30 19q-8 -1 43 -1q25 0 72.5 -4.5t71.5 -4.5q23 0 68 5t67 5q43 0 43 -36q0 -117 -5 -154q-16 -102 -3 -225q16 -154 16 -228zM330 454q0 103 -98 103t-98 -103q0 -26 7 -35.5t32 -9.5q9 0 26 2.5
t26 2.5q12 0 36 -2.5t37 -2.5q32 0 32 45zM317 688l-94 92q-12 12 -23 24q-14 12 -31 12q-16 0 -28 -9.5t-12 -25.5q0 -24 25 -37l123 -61z" />
    <glyph glyph-name="Atilde" unicode="&#xc3;" horiz-adv-x="500" 
d="M450 18l-6 -19q-9 9 -24 9q-9 0 -30 -4.5t-33 -4.5q-49 0 -49 42q0 37 11 110.5t11 111.5q0 39 -21 53q-16 11 -51 11q-57 0 -74 -5q-39 -11 -39 -52q0 -36 8 -107t8 -106q0 -58 -53 -58q-9 0 -27 5.5t-28 5.5q-17 0 -34 -10l-3 18q0 35 16 109q15 70 14 108
q-7 129 -7 170q0 36 16.5 95t16.5 86q0 17 -12.5 34.5t-12.5 21.5q0 16 30 19q-8 -1 43 -1q25 0 72.5 -4.5t71.5 -4.5q23 0 68 5t67 5q43 0 43 -36q0 -117 -5 -154q-16 -102 -3 -225q16 -154 16 -228zM330 454q0 103 -98 103t-98 -103q0 -26 7 -35.5t32 -9.5q9 0 26 2.5
t26 2.5q12 0 36 -2.5t37 -2.5q32 0 32 45zM303 694q-23 0 -70.5 28.5t-63.5 28.5q-22 0 -47 -44q-8 -3 -14 -3q-27 0 -26 35q38 78 88 78q24 0 71.5 -28.5t63.5 -28.5q22 0 46 43q3 1 4 2l1 1q6 4 15 3q21 -4 21 -36q-38 -79 -89 -79z" />
    <glyph glyph-name="Otilde" unicode="&#xd5;" horiz-adv-x="465" 
d="M428 347q0 -23 -9 -100q-9 -72 -67 -160q-65 -99 -129 -99q-53 0 -108 58q-48 49 -71 106q-25 65 -25 154q0 39 13.5 98t31.5 93q1 2 33 55q27 45 27 49t-14.5 19.5t-14.5 20.5q-3 22 22 22q14 0 42.5 -5.5t43.5 -5.5q13 0 39 4.5t40 4.5q17 0 29 -11q4 -4 21 -26
q42 -56 69 -131q27 -78 27 -146zM320 288q0 94 -45 173q-14 23 -36 46q-29 29 -47 29q-29 0 -48 -70q-15 -55 -15 -96q0 -106 63 -196q8 -11 30.5 -28t32.5 -17q30 0 50 67q15 51 15 92zM273 694q-23 0 -70.5 28.5t-63.5 28.5q-22 0 -47 -44q-8 -3 -14 -3q-27 0 -26 35
q38 78 88 78q24 0 71.5 -28.5t63.5 -28.5q22 0 46 43q3 1 4 2l1 1q6 4 15 3q21 -4 21 -36q-38 -79 -89 -79z" />
    <glyph glyph-name="OE" unicode="&#x152;" horiz-adv-x="693" 
d="M412 215q-8 -38 -8 -76q0 -29 29 -29q31 0 92 9.5t91 9.5q50 0 50 -35q0 -10 -7 -28.5t-7 -28.5q0 -8 11 -37h-29q-21 0 -55.5 4.5t-54.5 4.5q-30 0 -95.5 -7t-95.5 -7q-32 0 -42 22q-35 -29 -68 -29q-53 0 -108 58q-48 49 -71 106q-25 65 -25 154q0 39 13.5 98t31.5 93
q1 2 33 55q27 45 27 49q0 3 -14 22t-14 24q0 16 21 16q14 0 42.5 -5.5t43.5 -5.5q13 0 34 3.5t34 3.5q10 0 38 -23l16 14q12 10 19 9q81 -13 223 -3q57 4 65 4q15 -1 28 -10q1 -5 -4 -14t-5 -13q0 -8 3 -25t3 -24q0 -38 -54 -38q-27 0 -81 7t-79 7q-16 0 -30 -7
q-18 -8 -18 -23q2 -45 54 -67q13 -5 97 -24q52 -12 52 -34q0 -26 -58 -48q-38 -13 -76 -27q-34 -23 -52 -105zM320 288q0 94 -45 173q-14 23 -36 46q-29 29 -47 29q-29 0 -48 -70q-15 -55 -15 -96q0 -106 63 -196q8 -11 30.5 -28t32.5 -17q30 0 50 67q15 51 15 92z" />
    <glyph glyph-name="oe" unicode="&#x153;" horiz-adv-x="515" 
d="M240 41q-37 -49 -93 -49q-71 0 -110 68q-34 56 -34 132q0 34 11.5 101.5t11.5 102.5q0 7 -1 21t-1 20q0 23 27 23q9 0 29 -6t29 -6h35q13 0 36.5 5t35.5 5q17 0 31 -27q17 28 39 28q14 0 41.5 -4t41.5 -4q7 0 21 4t21 4q32 0 48 -38q12 -29 12 -66q0 -107 -67 -161
q-11 -9 -47.5 -22.5t-43.5 -21.5q1 -12 21 -33q17 -20 30 -27q35 -15 69 -31q44 -22 44 -53q0 -18 -17 -18q-11 0 -34 4.5t-35 4.5q-14 0 -40.5 -4.5t-40.5 -4.5q-41 0 -70 53zM289 235q0 -6 2 -16.5t2 -15.5q29 11 54.5 42t25.5 60q0 19 -9 34q-10 19 -28 19q-45 0 -45 -93
q0 -5 -1 -15t-1 -15zM199 227q0 116 -53 116q-48 0 -48 -141q0 -34 12 -58q14 -32 44 -32q45 0 45 115z" />
    <glyph glyph-name="endash" unicode="&#x2013;" horiz-adv-x="478" 
d="M420 277l1 -95h-419v95h418z" />
    <glyph glyph-name="emdash" unicode="&#x2014;" horiz-adv-x="938" 
d="M880 277l1 -95h-879v95h878z" />
    <glyph glyph-name="quotedblleft" unicode="&#x201c;" horiz-adv-x="367" 
d="M21 509q0 48 23 89q32 55 90 62q-47 -44 -43 -76q35 0 54 -26q17 -22 17 -55q0 -30 -16 -54q-19 -29 -53 -29q-72 0 -72 89zM191 509q0 48 23 89q32 55 90 62q-47 -44 -43 -76q35 0 54 -26q17 -22 17 -55q0 -30 -16 -54q-19 -29 -53 -29q-72 0 -72 89z" />
    <glyph glyph-name="quotedblright" unicode="&#x201d;" horiz-adv-x="369" 
d="M332 571q0 -48 -24 -90q-31 -54 -90 -61q48 44 44 76q-36 0 -55 26q-16 22 -16 55q0 30 16 54q19 29 52 29q73 0 73 -89zM162 571q0 -48 -24 -90q-31 -54 -90 -61q48 44 44 76q-36 0 -55 26q-16 22 -16 55q0 30 16 54q19 29 52 29q73 0 73 -89z" />
    <glyph glyph-name="quoteleft" unicode="&#x2018;" horiz-adv-x="197" 
d="M21 509q0 48 23 89q32 55 90 62q-47 -44 -43 -76q35 0 54 -26q17 -22 17 -55q0 -30 -16 -54q-19 -29 -53 -29q-72 0 -72 89z" />
    <glyph glyph-name="quoteright" unicode="&#x2019;" horiz-adv-x="199" 
d="M162 571q0 -48 -24 -90q-31 -54 -90 -61q48 44 44 76q-36 0 -55 26q-16 22 -16 55q0 30 16 54q19 29 52 29q73 0 73 -89z" />
    <glyph glyph-name="divide" unicode="&#xf7;" horiz-adv-x="564" 
d="M304 136q33 0 57.5 -25t24.5 -58q0 -35 -24.5 -59.5t-58.5 -24.5q-36 0 -60 24.5t-24 59.5t25 59t60 24zM304 536q33 0 57.5 -25t24.5 -58q0 -35 -24.5 -59.5t-58.5 -24.5q-36 0 -60 24.5t-24 59.5t25 59t60 24zM51 195v115h504v-115h-504z" />
    <glyph glyph-name="ydieresis" unicode="&#xff;" horiz-adv-x="360" 
d="M316 415q-16 -236 -16 -298q0 -38 8 -114t8 -114q0 -33 -29 -54q-26 -17 -61 -17q-19 0 -58.5 6.5t-59.5 6.5q-41 0 -73 -11q-6 6 -6 11q0 22 41.5 53t64.5 31q93 0 93 70q0 42 -15 51h-9q-9 0 -56.5 -17.5t-73.5 -17.5q-53 0 -53 70q0 16 4 50t4 51v128q0 22 -5.5 64
t-5.5 63l3 28q16 -5 29 -5q8 0 23.5 2.5t22.5 2.5q35 0 35 -32l-5 -42q-2 -30 -7 -91q-3 -24 -5 -47q-2 -26 2 -59q7 -49 10 -56q10 -28 41 -28q19 0 33 15.5t14 34.5v116l-10 186q6 0 18.5 -1t18.5 -1t19.5 2t20.5 2q38 0 35 -39zM194 545q0 20 16 35t39 15t39 -15t16 -35
q0 -21 -16 -36t-39 -15t-39 15t-16 36zM34 545q0 20 16 35t39 15t39 -15t16 -35q0 -21 -16 -36t-39 -15t-39 15t-16 36z" />
    <glyph glyph-name="Ydieresis" unicode="&#x178;" horiz-adv-x="482" 
d="M448 605q0 -64 -35 -136q-22 -47 -76 -126q-58 -84 -77 -120q-10 -20 -10 -69q0 -11 10 -23.5t21 -12.5q4 0 11 1.5t11 1.5q64 0 64 -41q0 -11 -7.5 -31t-7.5 -31q0 -9 3 -17q-10 0 -30.5 2t-30.5 2q-15 0 -46.5 -5t-46.5 -5q-63 0 -63 41q0 29 12.5 84.5t12.5 83.5
q0 35 -37 105q-46 89 -52 107q-20 55 -40 109q-23 66 -23 113q0 8 1 18q36 -7 28 -7q11 0 33 4.5t33 4.5q12 0 19 -4q18 -11 24 -48q3 -28 7 -57q45 -211 74 -211q-1 0 25 31q70 82 70 155q0 13 -8 17q-46 -1 -49 -1q-24 0 -24 29q0 10 7.5 30t7.5 30q0 16 -9 29
q69 -12 92 -12q13 0 37.5 6t37.5 6q31 0 31 -53zM244 745q0 20 16 35t39 15t39 -15t16 -35q0 -21 -16 -36t-39 -15t-39 15t-16 36zM84 745q0 20 16 35t39 15t39 -15t16 -35q0 -21 -16 -36t-39 -15t-39 15t-16 36z" />
    <glyph glyph-name="currency" unicode="&#xa4;" horiz-adv-x="177" 
 />
    <glyph glyph-name="guilsinglleft" unicode="&#x2039;" horiz-adv-x="286" 
d="M49 267q33 27 73 62q74 63 80 70q19 20 28 20q13 0 13 -12q0 -10 -19 -41l-64 -107l64 -107q19 -31 19 -40q0 -12 -13 -12q-6 0 -28 20q-43 39 -153 132v15z" />
    <glyph glyph-name="guilsinglright" unicode="&#x203a;" horiz-adv-x="268" 
d="M232 267q-33 27 -73 62q-74 63 -80 70q-19 20 -28 20q-13 0 -13 -12q0 -10 19 -41l64 -107l-64 -107q-19 -31 -19 -40q0 -12 13 -12q6 0 28 20q43 39 153 132v15z" />
    <glyph glyph-name="daggerdbl" unicode="&#x2021;" horiz-adv-x="404" 
d="M191 456q-27 0 -60.5 -18.5t-49.5 -18.5q-43 0 -43 49t43 49q17 0 50 -18.5t61 -18.5q-1 32 -22 73t-21 55q0 22 15.5 34.5t37.5 12.5q54 0 54 -47q0 -14 -21 -54t-22 -74q27 0 60.5 18.5t49.5 18.5q44 0 44 -49t-44 -49q-15 0 -49 18.5t-61 19.5q4 -79 54 -132
q-50 -52 -54 -131q27 1 61 19t49 18q44 0 44 -49t-44 -49q-15 0 -49 18t-61 20q1 -34 22 -74t21 -55q0 -46 -54 -46q-53 0 -53 46q0 15 21 54t22 75q-27 -2 -61 -20t-50 -18q-43 0 -43 49t43 49q16 0 49.5 -18.5t60.5 -18.5q-3 79 -54 131q51 53 54 131z" />
    <glyph glyph-name="periodcentered" unicode="&#xb7;" horiz-adv-x="212" 
d="M161 283q0 -80 -61 -80q-59 0 -59 82q0 33 14 56q16 28 46 28q60 0 60 -86z" />
    <glyph glyph-name="periodcentered" unicode="&#x2219;" horiz-adv-x="212" 
d="M161 283q0 -80 -61 -80q-59 0 -59 82q0 33 14 56q16 28 46 28q60 0 60 -86z" />
    <glyph glyph-name="quotesinglbase" unicode="&#x201a;" horiz-adv-x="211" 
d="M162 71q0 -48 -24 -90q-31 -54 -90 -61q48 44 44 76q-36 0 -55 26q-16 22 -16 55q0 30 16 54q19 29 52 29q73 0 73 -89z" />
    <glyph glyph-name="quotedblbase" unicode="&#x201e;" horiz-adv-x="381" 
d="M332 71q0 -48 -24 -90q-31 -54 -90 -61q48 44 44 76q-36 0 -55 26q-16 22 -16 55q0 30 16 54q19 29 52 29q73 0 73 -89zM162 71q0 -48 -24 -90q-31 -54 -90 -61q48 44 44 76q-36 0 -55 26q-16 22 -16 55q0 30 16 54q19 29 52 29q73 0 73 -89z" />
    <glyph glyph-name="perthousand" unicode="&#x2030;" horiz-adv-x="177" 
 />
    <glyph glyph-name="Acircumflex" unicode="&#xc2;" horiz-adv-x="500" 
d="M450 18l-6 -19q-9 9 -24 9q-9 0 -30 -4.5t-33 -4.5q-49 0 -49 42q0 37 11 110.5t11 111.5q0 39 -21 53q-16 11 -51 11q-57 0 -74 -5q-39 -11 -39 -52q0 -36 8 -107t8 -106q0 -58 -53 -58q-9 0 -27 5.5t-28 5.5q-17 0 -34 -10l-3 18q0 35 16 109q15 70 14 108
q-7 129 -7 170q0 36 16.5 95t16.5 86q0 17 -12.5 34.5t-12.5 21.5q0 16 30 19q-8 -1 43 -1q25 0 72.5 -4.5t71.5 -4.5q23 0 68 5t67 5q43 0 43 -36q0 -117 -5 -154q-16 -102 -3 -225q16 -154 16 -228zM330 454q0 103 -98 103t-98 -103q0 -26 7 -35.5t32 -9.5q9 0 26 2.5
t26 2.5q12 0 36 -2.5t37 -2.5q32 0 32 45zM122 701q-4 -5 -15 -5q-23 0 -3 19q29 26 51 42q52 40 79 41q20 -3 76 -41q27 -20 55 -40q7 -5 7 -10q0 -10 -14 -10q-5 0 -12 3l-112 46q-40 -13 -112 -45z" />
    <glyph glyph-name="Ecircumflex" unicode="&#xca;" horiz-adv-x="419" 
d="M380 38q0 -8 11 -37h-29q-21 0 -55.5 4.5t-54.5 4.5q-30 0 -95.5 -7t-95.5 -7q-48 0 -48 61q0 49 24 143t24 143q0 46 -22.5 135t-22.5 135q0 22 14.5 35t35.5 11q78 -3 232 -9q31 -1 54 5l23 6q5 0 10 -4q2 -5 -2 -17t-4 -16q0 -8 3 -24.5t3 -24.5q0 -37 -54 -37
q-27 0 -80.5 7t-79.5 7q-16 0 -30 -7q-18 -9 -18 -24q2 -45 56 -70q23 -10 99 -27q54 -11 54 -28q0 -22 -59 -40q-74 -23 -76 -25q-30 -20 -49 -87q-16 -56 -16 -104q0 -29 29 -29q31 0 92 9.5t92 9.5q49 0 49 -35q0 -10 -7 -28.5t-7 -28.5zM92 701q-4 -5 -15 -5
q-23 0 -3 19q29 26 51 42q52 40 79 41q20 -3 76 -41q27 -20 55 -40q7 -5 7 -10q0 -10 -14 -10q-5 0 -12 3l-112 46q-40 -13 -112 -45z" />
    <glyph glyph-name="Aacute" unicode="&#xc1;" horiz-adv-x="500" 
d="M450 18l-6 -19q-9 9 -24 9q-9 0 -30 -4.5t-33 -4.5q-49 0 -49 42q0 37 11 110.5t11 111.5q0 39 -21 53q-16 11 -51 11q-57 0 -74 -5q-39 -11 -39 -52q0 -36 8 -107t8 -106q0 -58 -53 -58q-9 0 -27 5.5t-28 5.5q-17 0 -34 -10l-3 18q0 35 16 109q15 70 14 108
q-7 129 -7 170q0 36 16.5 95t16.5 86q0 17 -12.5 34.5t-12.5 21.5q0 16 30 19q-8 -1 43 -1q25 0 72.5 -4.5t71.5 -4.5q23 0 68 5t67 5q43 0 43 -36q0 -117 -5 -154q-16 -102 -3 -225q16 -154 16 -228zM330 454q0 103 -98 103t-98 -103q0 -26 7 -35.5t32 -9.5q9 0 26 2.5
t26 2.5q12 0 36 -2.5t37 -2.5q32 0 32 45zM165 688l95 92l24 24t30 12q16 0 28 -9.5t12 -25.5q0 -24 -25 -37l-123 -61z" />
    <glyph glyph-name="Edieresis" unicode="&#xcb;" horiz-adv-x="420" 
d="M380 38q0 -8 11 -37h-29q-21 0 -55.5 4.5t-54.5 4.5q-30 0 -95.5 -7t-95.5 -7q-48 0 -48 61q0 49 24 143t24 143q0 46 -22.5 135t-22.5 135q0 22 14.5 35t35.5 11q78 -3 232 -9q31 -1 54 5l23 6q5 0 10 -4q2 -5 -2 -17t-4 -16q0 -8 3 -24.5t3 -24.5q0 -37 -54 -37
q-27 0 -80.5 7t-79.5 7q-16 0 -30 -7q-18 -9 -18 -24q2 -45 56 -70q23 -10 99 -27q54 -11 54 -28q0 -22 -59 -40q-74 -23 -76 -25q-30 -20 -49 -87q-16 -56 -16 -104q0 -29 29 -29q31 0 92 9.5t92 9.5q49 0 49 -35q0 -10 -7 -28.5t-7 -28.5zM230 754q0 21 16 36t39 15
t39 -15t16 -36t-16 -35.5t-39 -14.5t-39 14.5t-16 35.5zM70 754q0 21 16 36t39 15t39 -15t16 -36t-16 -35.5t-39 -14.5t-39 14.5t-16 35.5z" />
    <glyph glyph-name="Egrave" unicode="&#xc8;" horiz-adv-x="432" 
d="M391 38q0 -8 12 -37h-29q-21 0 -55.5 4.5t-55.5 4.5q-30 0 -95 -7t-95 -7q-48 0 -48 61q0 49 24 143t24 143q0 46 -22.5 135t-22.5 135q0 22 14 35t36 11q78 -3 232 -9q31 -1 54 5l23 6q5 0 10 -4q2 -5 -2 -17t-4 -16q0 -8 3 -24.5t3 -24.5q0 -37 -54 -37q-27 0 -81 7
t-79 7q-16 0 -31 -7q-18 -9 -17 -24q2 -45 56 -70q22 -10 99 -27q53 -11 53 -28q0 -22 -58 -40q-74 -23 -77 -25q-29 -20 -48 -87q-16 -56 -16 -104q0 -29 29 -29q31 0 92 9.5t91 9.5q50 0 50 -35q0 -10 -7.5 -28.5t-7.5 -28.5zM313 688l-94 92q-12 12 -23 24q-14 12 -31 12
q-16 0 -28 -9.5t-12 -25.5q0 -24 25 -37l123 -61z" />
    <glyph glyph-name="Iacute" unicode="&#xcd;" horiz-adv-x="226" 
d="M154 315q0 4 6 -103l11 -214q-5 0 -14 2t-14 2q-11 0 -32.5 -2t-31.5 -2q-53 0 -50 45q18 219 18 330q0 74 -3 113l-13 152q-1 16 10 19q39 -6 36 -6q9 0 26.5 4.5t25.5 4.5q43 0 43 -50t-9 -147.5t-9 -147.5zM15 688l95 92l24 24t30 12q16 0 28 -9.5t12 -25.5
q0 -24 -25 -37l-123 -61z" />
    <glyph glyph-name="Icircumflex" unicode="&#xce;" horiz-adv-x="226" 
d="M154 315q0 4 6 -103l11 -214q-5 0 -14 2t-14 2q-11 0 -32.5 -2t-31.5 -2q-53 0 -50 45q18 219 18 330q0 74 -3 113l-13 152q-1 16 10 19q39 -6 36 -6q9 0 26.5 4.5t25.5 4.5q43 0 43 -50t-9 -147.5t-9 -147.5zM2 701q-4 -5 -15 -5q-23 0 -3 19q20 21 41 42q42 40 69 41
q20 -3 66 -41q22 -20 45 -40q7 -5 7 -11q0 -9 -13 -9q-6 0 -13 3l-92 46q-30 -13 -92 -45z" />
    <glyph glyph-name="Idieresis" unicode="&#xcf;" horiz-adv-x="220" 
d="M154 315q0 4 6 -103l11 -214q-5 0 -14 2t-14 2q-11 0 -32.5 -2t-31.5 -2q-53 0 -50 45q18 219 18 330q0 74 -3 113l-13 152q-1 16 10 19q39 -6 36 -6q9 0 26.5 4.5t25.5 4.5q43 0 43 -50t-9 -147.5t-9 -147.5zM120 754q0 21 16 36t39 15t39 -15t16 -36t-16 -35.5
t-39 -14.5t-39 14.5t-16 35.5zM-40 754q0 21 16 36t39 15t39 -15t16 -36t-16 -35.5t-39 -14.5t-39 14.5t-16 35.5z" />
    <glyph glyph-name="Igrave" unicode="&#xcc;" horiz-adv-x="226" 
d="M154 315q0 4 6 -103l11 -214q-5 0 -14 2t-14 2q-11 0 -32.5 -2t-31.5 -2q-53 0 -50 45q18 219 18 330q0 74 -3 113l-13 152q-1 16 10 19q39 -6 36 -6q9 0 26.5 4.5t25.5 4.5q43 0 43 -50t-9 -147.5t-9 -147.5zM194 688l-95 92q-11 12 -23.5 24t-30.5 12q-15 0 -27.5 -9.5
t-12.5 -25.5q0 -24 26 -37l123 -61z" />
    <glyph glyph-name="Oacute" unicode="&#xd3;" horiz-adv-x="465" 
d="M428 347q0 -23 -9 -100q-9 -72 -67 -160q-65 -99 -129 -99q-53 0 -108 58q-48 49 -71 106q-25 65 -25 154q0 39 13.5 98t31.5 93q1 2 33 55q27 45 27 49t-14.5 19.5t-14.5 20.5q-3 22 22 22q14 0 42.5 -5.5t43.5 -5.5q13 0 39 4.5t40 4.5q17 0 29 -11q4 -4 21 -26
q42 -56 69 -131q27 -78 27 -146zM320 288q0 94 -45 173q-14 23 -36 46q-29 29 -47 29q-29 0 -48 -70q-15 -55 -15 -96q0 -106 63 -196q8 -11 30.5 -28t32.5 -17q30 0 50 67q15 51 15 92zM125 688l95 92l24 24t30 12q16 0 28 -9.5t12 -25.5q0 -24 -25 -37l-123 -61z" />
    <glyph glyph-name="Ocircumflex" unicode="&#xd4;" horiz-adv-x="465" 
d="M428 347q0 -23 -9 -100q-9 -72 -67 -160q-65 -99 -129 -99q-53 0 -108 58q-48 49 -71 106q-25 65 -25 154q0 39 13.5 98t31.5 93q1 2 33 55q27 45 27 49t-14.5 19.5t-14.5 20.5q-3 22 22 22q14 0 42.5 -5.5t43.5 -5.5q13 0 39 4.5t40 4.5q17 0 29 -11q4 -4 21 -26
q42 -56 69 -131q27 -78 27 -146zM320 288q0 94 -45 173q-14 23 -36 46q-29 29 -47 29q-29 0 -48 -70q-15 -55 -15 -96q0 -106 63 -196q8 -11 30.5 -28t32.5 -17q30 0 50 67q15 51 15 92zM92 701q-4 -5 -15 -5q-23 0 -3 19q29 26 51 42q52 40 79 41q20 -3 76 -41
q27 -20 55 -40q7 -5 7 -10q0 -10 -14 -10q-5 0 -12 3l-112 46q-40 -13 -112 -45z" />
    <glyph glyph-name="Ograve" unicode="&#xd2;" horiz-adv-x="465" 
d="M428 347q0 -23 -9 -100q-9 -72 -67 -160q-65 -99 -129 -99q-53 0 -108 58q-48 49 -71 106q-25 65 -25 154q0 39 13.5 98t31.5 93q1 2 33 55q27 45 27 49t-14.5 19.5t-14.5 20.5q-3 22 22 22q14 0 42.5 -5.5t43.5 -5.5q13 0 39 4.5t40 4.5q17 0 29 -11q4 -4 21 -26
q42 -56 69 -131q27 -78 27 -146zM320 288q0 94 -45 173q-14 23 -36 46q-29 29 -47 29q-29 0 -48 -70q-15 -55 -15 -96q0 -106 63 -196q8 -11 30.5 -28t32.5 -17q30 0 50 67q15 51 15 92zM301 688l-94 92q-12 12 -23 24q-14 12 -31 12q-16 0 -28 -9.5t-12 -25.5q0 -24 25 -37
l123 -61z" />
    <glyph glyph-name="Uacute" unicode="&#xda;" horiz-adv-x="475" 
d="M428 632l-28 -279q1 8 1 -56q0 -59 9 -162q1 -13 9 -49q7 -32 7 -48q0 -44 -31 -44q-13 0 -46 5.5t-53 5.5q-17 0 -51 -4.5t-51 -4.5q-88 0 -137 76q-40 65 -40 158q0 71 24 155q24 81 62 145v7q3 -1 -38 -1q-46 0 -46 34q0 3 10.5 28.5t11.5 30.5q2 6 -12 26l6 3
q5 3 12 3q9 0 29 -6t28 -6q9 0 28 4t29 4q47 0 47 -35q0 -8 -15 -49q-10 -26 -20 -53q-38 -113 -38 -214q0 -41 9 -93q7 -42 40 -84q37 -47 76 -47q28 0 42 24q12 21 11 50l-25 390v36q0 35 7 50q11 23 42 23q9 0 26.5 -3t25.5 -3q6 0 17 4t14 4q11 0 8 -25zM135 688l95 92
l24 24t30 12q16 0 28 -9.5t12 -25.5q0 -24 -25 -37l-123 -61z" />
    <glyph glyph-name="Ucircumflex" unicode="&#xdb;" horiz-adv-x="475" 
d="M428 632l-28 -279q1 8 1 -56q0 -59 9 -162q1 -13 9 -49q7 -32 7 -48q0 -44 -31 -44q-13 0 -46 5.5t-53 5.5q-17 0 -51 -4.5t-51 -4.5q-88 0 -137 76q-40 65 -40 158q0 71 24 155q24 81 62 145v7q3 -1 -38 -1q-46 0 -46 34q0 3 10.5 28.5t11.5 30.5q2 6 -12 26l6 3
q5 3 12 3q9 0 29 -6t28 -6q9 0 28 4t29 4q47 0 47 -35q0 -8 -15 -49q-10 -26 -20 -53q-38 -113 -38 -214q0 -41 9 -93q7 -42 40 -84q37 -47 76 -47q28 0 42 24q12 21 11 50l-25 390v36q0 35 7 50q11 23 42 23q9 0 26.5 -3t25.5 -3q6 0 17 4t14 4q11 0 8 -25zM112 701
q-4 -5 -15 -5q-23 0 -3 19q29 26 51 42q52 40 79 41q20 -3 76 -41q27 -20 55 -40q7 -5 7 -10q0 -10 -14 -10q-5 0 -12 3l-112 46q-40 -13 -112 -45z" />
    <glyph glyph-name="Ugrave" unicode="&#xd9;" horiz-adv-x="475" 
d="M428 632l-28 -279q1 8 1 -56q0 -59 9 -162q1 -13 9 -49q7 -32 7 -48q0 -44 -31 -44q-13 0 -46 5.5t-53 5.5q-17 0 -51 -4.5t-51 -4.5q-88 0 -137 76q-40 65 -40 158q0 71 24 155q24 81 62 145v7q3 -1 -38 -1q-46 0 -46 34q0 3 10.5 28.5t11.5 30.5q2 6 -12 26l6 3
q5 3 12 3q9 0 29 -6t28 -6q9 0 28 4t29 4q47 0 47 -35q0 -8 -15 -49q-10 -26 -20 -53q-38 -113 -38 -214q0 -41 9 -93q7 -42 40 -84q37 -47 76 -47q28 0 42 24q12 21 11 50l-25 390v36q0 35 7 50q11 23 42 23q9 0 26.5 -3t25.5 -3q6 0 17 4t14 4q11 0 8 -25zM318 688l-94 92
q-12 12 -23 24q-14 12 -31 12q-16 0 -28 -9.5t-12 -25.5q0 -24 25 -37l123 -61z" />
    <glyph glyph-name="circumflex" unicode="&#x2c6;" horiz-adv-x="381" 
d="M89 484q-5 -6 -16 -6q-23 0 -2 19q29 26 50 42q52 40 79 41q20 -2 76 -41q28 -20 55 -40q8 -5 8 -10q0 -9 -14 -9q-6 0 -12 2l-113 46q-40 -12 -111 -44z" />
    <glyph glyph-name="tilde" unicode="&#x2dc;" horiz-adv-x="329" 
d="M56 488q-5 -2 -9 -2q-19 0 -18 22v2q31 64 71 64q19 0 59.5 -24.5t54.5 -24.5q22 0 43 38q11 4 13 3q14 -2 14 -25q-30 -63 -71 -63q-18 0 -59 24t-55 24q-21 0 -43 -38z" />
    <glyph glyph-name="macron" unicode="&#xaf;" horiz-adv-x="349" 
d="M10 552h313v-54h-313v54z" />
    <glyph glyph-name="macron" unicode="&#x2c9;" horiz-adv-x="349" 
d="M10 552h313v-54h-313v54z" />
    <glyph glyph-name="cedilla" unicode="&#xb8;" horiz-adv-x="220" 
d="M84 -45q30 11 47 11q20 0 35 -14t15 -34q0 -58 -58 -75q-42 -13 -46 -13q-10 0 -11 13l2 3q64 19 64 59q0 28 -26 28q-6 0 -18.5 -4.5t-18.5 -4.5q-17 0 -22 18l20 59h34z" />
    <glyph glyph-name="Scaron" unicode="&#x160;" 
 />
    <glyph glyph-name="scaron" unicode="&#x161;" 
 />
    <glyph glyph-name="brokenbar" unicode="&#xa6;" 
 />
    <glyph glyph-name="Eth" unicode="&#xd0;" 
 />
    <glyph glyph-name="eth" unicode="&#xf0;" 
 />
    <glyph glyph-name="Yacute" unicode="&#xdd;" 
 />
    <glyph glyph-name="yacute" unicode="&#xfd;" 
 />
    <glyph glyph-name="Thorn" unicode="&#xde;" 
 />
    <glyph glyph-name="thorn" unicode="&#xfe;" 
 />
    <glyph glyph-name="minus" unicode="&#xad;" 
 />
    <glyph glyph-name="minus" unicode="&#x2212;" 
 />
    <glyph glyph-name="multiply" unicode="&#xd7;" 
 />
    <glyph glyph-name="onesuperior" unicode="&#xb9;" 
 />
    <glyph glyph-name="twosuperior" unicode="&#xb2;" 
 />
    <glyph glyph-name="threesuperior" unicode="&#xb3;" 
 />
    <glyph glyph-name="onehalf" unicode="&#xbd;" 
 />
    <glyph glyph-name="onequarter" unicode="&#xbc;" 
 />
    <glyph glyph-name="threequarters" unicode="&#xbe;" 
 />
    <glyph glyph-name=".null" 
 />
    <glyph glyph-name="Lslash" unicode="&#x141;" 
 />
    <glyph glyph-name="lslash" unicode="&#x142;" 
 />
    <glyph glyph-name="HT" 
 />
    <glyph glyph-name="LF" 
 />
    <glyph glyph-name="nonmarkingreturn" 
 />
    <glyph glyph-name="Zcaron" unicode="&#x17d;" 
 />
    <glyph glyph-name="zcaron" unicode="&#x17e;" 
 />
    <glyph glyph-name="DLE" 
 />
    <glyph glyph-name="DC1" 
 />
    <glyph glyph-name="DC2" 
 />
    <glyph glyph-name="DC3" 
 />
    <glyph glyph-name="DC4" 
 />
    <glyph glyph-name="RS" 
 />
    <glyph glyph-name="US" 
 />
    <glyph glyph-name="DEL" horiz-adv-x="467" 
d="M0 -58h500v-90h-500v90z" />
    <glyph glyph-name="infinity" unicode="&#x221e;" horiz-adv-x="177" 
 />
    <glyph glyph-name="lessequal" unicode="&#x2264;" horiz-adv-x="177" 
 />
    <glyph glyph-name="greaterequal" unicode="&#x2265;" horiz-adv-x="177" 
 />
    <glyph glyph-name="partialdiff" unicode="&#x2202;" horiz-adv-x="222" 
d="M-2 228l53 62v203q0 4 -4 46t-4 45q-2 8 -5 17q-4 18 -4 31q0 19 9 26q11 -6 26 -6q8 0 29 3.5t34 3.5q28 0 28 -37l-13 -153v-65l53 63v-67l-53 -64v-143l10 -189q-13 5 -39 2q-38 -3 -47 -3q-21 0 -28 7.5t-6 27.5l13 182l-52 -62v70z" />
    <glyph glyph-name="summation" unicode="&#x2211;" horiz-adv-x="424" 
d="M388 150q0 -148 -156 -148q-20 0 -61 4t-61 4q-42 0 -85 -9q1 5 8.5 15.5t7.5 14.5q0 13 -5.5 38t-5.5 37q0 22 24 32q19 8 42 6l117 -10q60 -6 60 47q0 49 -67 115q-63 59 -125 118q-67 73 -67 140q0 12 7 35q14 44 52 60q27 11 80 11l114 -10q12 -1 39.5 4t38.5 6
q-5 -14 -5 -25q0 -9 5.5 -26t5.5 -26q0 -25 -26 -38q-22 -11 -48 -9l-113 11q-42 4 -42 -20q0 -27 57 -70q66 -50 72 -61q30 -28 74 -70q27 -26 46 -82q17 -52 17 -94zM307 786q4 6 15 6q23 0 3 -19q-30 -26 -51 -42q-52 -40 -79 -41q-20 3 -76 41q-27 20 -55 40q-7 5 -7 10
q0 9 14 9q5 0 11 -2l113 -46q40 13 112 44z" />
    <glyph glyph-name="product" unicode="&#x220f;" horiz-adv-x="349" 
d="M306 144q0 -73 -25 -108q-29 -41 -99 -41q-17 0 -52.5 2.5t-52.5 2.5q-5 0 -14 -1t-14 -1q-9 0 -23 2v71q0 35 63 35q16 0 48.5 -6t48.5 -6q20 0 32.5 16t12.5 37q0 49 -39 49q-21 0 -67.5 -21.5t-64.5 -21.5q-50 0 -50 73q0 42 25.5 102.5t55.5 86.5q45 37 64 37
q17 0 46 -19t44 -19q5 0 20.5 5t18.5 6q3 -14 3 -12q0 -12 -26.5 -46.5t-39 -40.5t-24.5 -6q-18 0 -33.5 13.5t-28.5 13.5q-15 0 -24 -15t-9 -31q0 -35 34 -35q15 0 45.5 7t45.5 7q42 0 63 -50q16 -37 16 -86zM277 586q4 6 15 6q23 0 3 -19q-30 -26 -51 -42q-52 -40 -79 -41
q-20 3 -76 41q-27 20 -55 40q-7 5 -7 10q0 9 14 9q5 0 11 -2l113 -46q40 13 112 44z" />
    <glyph glyph-name="pi" unicode="&#x3c0;" horiz-adv-x="482" 
d="M448 605q0 -64 -35 -136q-22 -47 -76 -126q-58 -84 -77 -120q-10 -20 -10 -69q0 -11 10 -23.5t21 -12.5q4 0 11 1.5t11 1.5q64 0 64 -41q0 -11 -7.5 -31t-7.5 -31q0 -9 3 -17q-10 0 -30.5 2t-30.5 2q-15 0 -46.5 -5t-46.5 -5q-63 0 -63 41q0 29 12.5 84.5t12.5 83.5
q0 35 -37 105q-46 89 -52 107q-20 55 -40 109q-23 66 -23 113q0 8 1 18q36 -7 28 -7q11 0 33 4.5t33 4.5q12 0 19 -4q18 -11 24 -48q3 -28 7 -57q45 -211 74 -211q-1 0 25 31q70 82 70 155q0 13 -8 17q-46 -1 -49 -1q-24 0 -24 29q0 10 7.5 30t7.5 30q0 16 -9 29
q69 -12 92 -12q13 0 37.5 6t37.5 6q31 0 31 -53zM148 689l95 92q11 12 23.5 24t30.5 12q15 0 27.5 -9.5t12.5 -24.5q0 -25 -26 -38l-123 -60z" />
    <glyph glyph-name="integral" unicode="&#x222b;" horiz-adv-x="360" 
d="M316 415q-16 -236 -16 -298q0 -38 8 -114t8 -114q0 -33 -29 -54q-26 -17 -61 -17q-19 0 -58.5 6.5t-59.5 6.5q-41 0 -73 -11q-6 6 -6 11q0 22 41.5 53t64.5 31q93 0 93 70q0 42 -15 51h-9q-9 0 -56.5 -17.5t-73.5 -17.5q-53 0 -53 70q0 16 4 50t4 51v128q0 22 -5.5 64
t-5.5 63l3 28q16 -5 29 -5q8 0 23.5 2.5t22.5 2.5q35 0 35 -32l-5 -42q-2 -30 -7 -91q-3 -24 -5 -47q-2 -26 2 -59q7 -49 10 -56q10 -28 41 -28q19 0 33 15.5t14 34.5v116l-10 186q6 0 18.5 -1t18.5 -1t19.5 2t20.5 2q38 0 35 -39zM78 489l95 92q11 12 23.5 24t30.5 12
q15 0 27.5 -9.5t12.5 -24.5q0 -25 -26 -38l-123 -60z" />
    <glyph glyph-name="Omega" unicode="&#x3a9;" horiz-adv-x="431" 
d="M16 422h46q19 240 159 240q11 0 33 -5.5t33 -5.5q10 0 30 5.5t30 5.5q37 0 54 -50q12 -35 12 -82q0 -27 -29 -52.5t-53 -25.5q-20 0 -20 20q0 74 -68 74q-69 0 -82 -124h133q16 0 16 -16v-26q0 -16 -16 -16h-136q1 -22 3 -42h133q16 0 16 -16v-26q0 -16 -16 -16h-121
q24 -79 91 -129q19 -14 108 -61q52 -27 50 -56v-6l-18 -11q-40 4 -116 4q-20 0 -59 -3t-58 -3q-48 0 -79 96q-22 69 -30 169h-46q-16 0 -16 16v26q0 16 16 16h43v42h-43q-16 0 -16 16v26q0 16 16 16z" />
    <glyph glyph-name="Omega" unicode="&#x2126;" horiz-adv-x="431" 
d="M16 422h46q19 240 159 240q11 0 33 -5.5t33 -5.5q10 0 30 5.5t30 5.5q37 0 54 -50q12 -35 12 -82q0 -27 -29 -52.5t-53 -25.5q-20 0 -20 20q0 74 -68 74q-69 0 -82 -124h133q16 0 16 -16v-26q0 -16 -16 -16h-136q1 -22 3 -42h133q16 0 16 -16v-26q0 -16 -16 -16h-121
q24 -79 91 -129q19 -14 108 -61q52 -27 50 -56v-6l-18 -11q-40 4 -116 4q-20 0 -59 -3t-58 -3q-48 0 -79 96q-22 69 -30 169h-46q-16 0 -16 16v26q0 16 16 16h43v42h-43q-16 0 -16 16v26q0 16 16 16z" />
    <glyph glyph-name="radical" unicode="&#x221a;" horiz-adv-x="177" 
 />
    <glyph glyph-name="approxequal" unicode="&#x2248;" horiz-adv-x="177" 
 />
    <glyph glyph-name="approxequal" unicode="&#x22f2;" horiz-adv-x="177" 
 />
    <glyph glyph-name="Delta" unicode="&#x394;" horiz-adv-x="177" 
 />
    <glyph glyph-name="Delta" unicode="&#x2206;" horiz-adv-x="177" 
 />
    <glyph glyph-name="lozenge" unicode="&#x25ca;" horiz-adv-x="390" 
d="M240 161l110 213l-106 208l-111 -207z" />
    <glyph glyph-name="fraction" unicode="&#x2044;" horiz-adv-x="177" 
 />
    <glyph glyph-name="apple" unicode="&#xf000;" horiz-adv-x="177" 
 />
    <glyph glyph-name="dotlessi" unicode="&#x131;" horiz-adv-x="198" 
d="M144 27q1 -4 3 -14t2 -15q-31 6 -41 6q-8 0 -23 -3t-23 -3q-35 0 -35 37q0 23 7 69.5t7 70.5q-1 48 -1 96q0 24 -9 65q-13 67 -13 99q0 29 19 29q4 0 10.5 -3.5t9.5 -3.5q9 0 27.5 3t27.5 3q30 0 30 -31q0 -18 -4 -53.5t-4 -52.5q0 2 -3 -56q-2 -48 0 -68z" />
    <glyph glyph-name="breve" unicode="&#x2d8;" horiz-adv-x="318" 
d="M252 607h29v-12q2 -49 -31 -82t-83 -33q-51 0 -84 33t-31 83v11h29q6 -77 86 -77q79 0 85 77z" />
    <glyph glyph-name="dotaccent" unicode="&#x2d9;" horiz-adv-x="173" 
d="M88 584q20 0 34.5 -14.5t14.5 -35.5t-14.5 -35.5t-35.5 -14.5q-20 0 -35 14.5t-15 35.5t15 35.5t36 14.5z" />
    <glyph glyph-name="ring" unicode="&#x2da;" horiz-adv-x="225" 
d="M113 611q29 0 49.5 -20.5t20.5 -49.5t-20.5 -49.5t-49.5 -20.5t-49 20.5t-20 49.5t20 49.5t49 20.5zM113 581q-16 0 -27.5 -11.5t-11.5 -28.5q0 -16 11.5 -28t27.5 -12q17 0 28.5 12t11.5 28q0 17 -11.5 28.5t-28.5 11.5z" />
    <glyph glyph-name="hungarumlaut" unicode="&#x2dd;" horiz-adv-x="309" 
d="M45 474l35 98q21 59 53 59q27 0 27 -28q0 -18 -18 -40l-80 -98zM173 474l35 98q21 59 53 59q27 0 27 -29q0 -17 -18 -39l-81 -98z" />
    <glyph glyph-name="ogonek" unicode="&#x2db;" horiz-adv-x="295" 
d="M120 0h88q-90 -1 -90 -67q0 -17 11.5 -30.5t28.5 -13.5q31 0 72 37l16 -22q-56 -56 -108 -56q-30 0 -50 19.5t-20 49.5q0 48 52 83z" />
    <glyph glyph-name="caron" unicode="&#x2c7;" horiz-adv-x="387" 
d="M317 586q4 6 15 6q23 0 3 -19q-30 -26 -51 -42q-52 -40 -79 -41q-20 3 -76 41q-27 20 -55 40q-7 5 -7 10q0 9 14 9q5 0 11 -2l113 -46q40 13 112 44z" />
  </font>
</defs>
</svg>
