<?xml version="1.0" standalone="no"?>
<!DOCTYPE svg PUBLIC "-//W3C//DTD SVG 1.1//EN" "http://www.w3.org/Graphics/SVG/1.1/DTD/svg11.dtd" >
<svg>
<metadata>
Created by FontForge 20120731 at Wed Apr 17 19:04:07 2019
 By www-data
Digitized by Dan X. Solo. Software (c)1998 by Dover Publications, Inc., New York.
</metadata>
<defs>
<font id="ExcellentNormal" horiz-adv-x="276" >
  <font-face 
    font-family="Excellent"
    font-weight="400"
    font-stretch="normal"
    units-per-em="1000"
    panose-1="0 0 4 0 0 0 0 0 0 0"
    ascent="800"
    descent="-200"
    x-height="508"
    cap-height="685"
    bbox="-56 -198 945 851"
    underline-thickness="20"
    underline-position="-123"
    unicode-range="U+0020-F002"
  />
<missing-glyph horiz-adv-x="500" 
d="M63 0v800h375v-800h-375zM125 63h250v675h-250v-675z" />
    <glyph glyph-name=".notdef" horiz-adv-x="500" 
d="M63 0v800h375v-800h-375zM125 63h250v675h-250v-675z" />
    <glyph glyph-name="glyph1" horiz-adv-x="0" 
 />
    <glyph glyph-name="glyph2" horiz-adv-x="210" 
 />
    <glyph glyph-name="space" unicode=" " horiz-adv-x="210" 
 />
    <glyph glyph-name="exclam" unicode="!" horiz-adv-x="242" 
d="M179 100l1 -99h-124q1 66 1 97q0 20 61 20q41 0 61 -18zM221 638q-38 -48 -59 -167q-20 -105 -20 -214q0 -65 8 -103q-24 -1 -66 0v49q2 116 -13 231q-21 173 -71 203q44 51 113 51q26 0 63 -13q44 -16 45 -37z" />
    <glyph glyph-name="quotedbl" unicode="&#x22;" horiz-adv-x="338" 
d="M105 404h-24q-10 52 -21 104q-16 81 -16 116q0 62 49 62q47 0 47 -57q0 -35 -15 -120q-10 -53 -20 -105zM233 404h-24q-10 52 -21 104q-16 81 -16 116q0 61 48 61t48 -56q0 -35 -15 -120q-10 -53 -20 -105z" />
    <glyph glyph-name="numbersign" unicode="#" horiz-adv-x="482" 
d="M434 407h-90l-38 -150h89l-15 -62h-90l-48 -193h-47l48 193h-102l-48 -193h-47l48 193h-89l16 62h88l38 150h-87l15 61h89l47 194h47l-47 -194h102l47 194h48l-48 -194h89zM195 407l-39 -150h103l38 150h-102z" />
    <glyph glyph-name="dollar" unicode="$" horiz-adv-x="441" 
d="M197 576q-46 -15 -46 -57q0 -38 46 -60v117zM237 207q80 16 80 89q0 59 -80 87v-176zM420 285q0 -76 -56 -124q-50 -44 -127 -52v-74h-40v73q-74 4 -127 38q-62 40 -62 108q0 44 26 70t64 26q18 0 37 -6q-33 -40 -33 -58q0 -38 30 -60q25 -19 65 -22v192q-72 20 -97 36
q-45 28 -45 80q0 55 45 88q40 30 97 31v44h40v-45q57 -5 95 -23q7 -1 53 7q-20 -37 -51 -104q-41 62 -97 70v-136q97 -31 121 -46q62 -39 62 -113z" />
    <glyph glyph-name="percent" unicode="%" horiz-adv-x="725" 
d="M542 -2q-77 0 -113 68q-29 54 -29 144q0 229 141 229q134 0 134 -216q0 -225 -133 -225zM152 248q-77 0 -113 68q-30 54 -30 144q0 229 142 229q134 0 134 -216q0 -225 -133 -225zM608 275q-11 79 -55 79q-43 0 -57 -44q-8 -26 -8 -89q0 -64 6 -90q13 -51 52 -50
q41 1 58 59q12 42 9 93q-1 10 -5 42zM218 525q-11 79 -55 79q-43 0 -57 -44q-8 -26 -8 -89q0 -64 6 -90q13 -51 52 -50q41 1 58 59q12 42 9 93q-1 10 -5 42zM539 661l-377 -675l-33 24l378 674z" />
    <glyph glyph-name="ampersand" unicode="&#x26;" horiz-adv-x="626" 
d="M563 42q0 -57 -24 -93q-19 -28 -46 -36q-9 15 -21 29q-29 34 -65 55q1 3 11.5 20t10.5 22q0 18 -10.5 42.5t-24.5 37.5q-46 -71 -73 -93q-50 -42 -128 -42q-88 0 -142 59q-51 56 -51 145q0 54 66 114q25 23 110 83q-24 31 -47.5 62.5t-23.5 68.5q0 67 48 117t116 50
q62 0 111 -39q54 -41 54 -101q0 -50 -35 -87q-20 -21 -77 -57q44 -48 96 -117q22 37 22 66q0 26 -27 54q22 20 83 20q49 0 67 -14l-33 -31q-26 -19 -75 -128q108 -110 108 -207zM345 538q0 35 -20 61.5t-54 26.5q-22 0 -40.5 -18.5t-18.5 -42.5q0 -7 2 -15q10 -34 30 -67
q24 -39 43 -39q18 0 39 38q19 35 19 56zM367 151q0 -2 -10 10l-72 96q-62 80 -67 79q-40 -11 -63.5 -47t-23.5 -78q0 -49 39 -88.5t89 -39.5q25 0 64 22q44 24 44 46z" />
    <glyph glyph-name="quotesingle" unicode="'" horiz-adv-x="210" 
d="M105 404h-24q-10 52 -21 104q-16 81 -16 116q0 62 49 62q47 0 47 -57q0 -35 -15 -120q-10 -53 -20 -105z" />
    <glyph glyph-name="parenleft" unicode="(" horiz-adv-x="297" 
d="M279 755q-125 -220 -125 -442q0 -253 123 -482l-15 -4q-88 30 -157 185q-68 150 -68 301q0 124 81 279q79 152 144 165z" />
    <glyph glyph-name="parenright" unicode=")" horiz-adv-x="312" 
d="M23 755q124 -220 124 -442q0 -253 -122 -482l15 -4q66 13 144 176q81 168 81 310q0 126 -78 278.5t-147 165.5z" />
    <glyph glyph-name="asterisk" unicode="*" horiz-adv-x="504" 
d="M239 495q-19 -11 -70 -66q-42 -45 -65 -45q-20 0 -34 13.5t-14 32.5q0 29 32 44q18 9 70 21q49 11 68 22q-22 13 -71 24q-52 11 -68 19q-31 15 -31 44q0 19 14 32.5t34 13.5q23 0 65 -45q51 -55 70 -65v18q0 30 -18 69.5t-18 56.5q0 21 14 37t34 16q21 0 35 -16t14 -37
q0 -19 -18 -66t-18 -79q18 11 71 66q42 45 65 45q19 0 33 -13.5t14 -32.5q0 -29 -32 -44q-17 -8 -70 -20q-49 -11 -68 -23q20 -11 70.5 -22.5t67.5 -20.5q32 -15 32 -44q0 -19 -13 -31.5t-32 -12.5q-24 0 -68 45q-54 55 -70 64v-19q0 -29 17.5 -68.5t17.5 -56.5
q0 -22 -13.5 -38t-34.5 -16t-34.5 16t-13.5 37q0 19 18 66t18 79z" />
    <glyph glyph-name="plus" unicode="+" horiz-adv-x="492" 
d="M204 294h-163v97h163v163h97v-163h163v-97h-163v-163h-97v163z" />
    <glyph glyph-name="comma" unicode="," horiz-adv-x="229" 
d="M77 -140q-4 0 -33 31q12 8 31.5 28.5t19.5 81.5q0 1 1 1t3 -3l-1 2l-59 1v97q5 7 26 13.5t31 6.5q37 0 59 -20l1 -28q2 -98 -17 -149q-5 -14 -26 -37q-24 -25 -36 -25z" />
    <glyph glyph-name="hyphen" unicode="-" horiz-adv-x="317" 
d="M249 259l-1 -67l-230 -1v69q66 29 112 29q34 0 84 -16q18 -7 35 -14z" />
    <glyph glyph-name="hyphen" unicode="&#x2010;" horiz-adv-x="317" 
d="M249 259l-1 -67l-230 -1v69q66 29 112 29q34 0 84 -16q18 -7 35 -14z" />
    <glyph glyph-name="period" unicode="." horiz-adv-x="213" 
d="M139 100q-2 0 1 -99h-124l1 97q0 20 61 20q41 0 61 -18z" />
    <glyph glyph-name="slash" unicode="/" horiz-adv-x="336" 
d="M228 737h74l-251 -752h-74z" />
    <glyph glyph-name="zero" unicode="0" horiz-adv-x="565" 
d="M533 346q0 -358 -241 -358q-139 0 -205 104q-55 87 -55 232q0 150 48 242q64 123 209 123q244 0 244 -343zM450 364q-17 114 -28 141q-31 76 -108 76q-94 0 -126 -79q-21 -50 -21 -159q0 -107 18 -161q31 -91 116 -89q149 2 149 271z" />
    <glyph glyph-name="one" unicode="1" horiz-adv-x="338" 
d="M282 0l-225 -1q26 32 50 123l1 352q-5 36 -14 63q-22 65 -60 78q70 68 168 68q23 0 62 -8q-28 -30 -28 -101v-451q0 -55 46 -123z" />
    <glyph glyph-name="two" unicode="2" horiz-adv-x="565" 
d="M517 476q0 -97 -75 -160q-25 -21 -159 -94q-104 -56 -142 -119h6h166q41 0 97 43q65 49 98 58l5 -6q-27 -80 -31 -199h-432l-2 7q0 96 87 186l162 142q87 81 87 153q0 58 -30 93.5t-88 35.5q-37 0 -65 -22.5t-28 -59.5q0 -22 17.5 -39.5t40.5 -17.5t44 19l6 -20
q0 -36 -27.5 -55.5t-64.5 -19.5q-52 0 -86.5 33.5t-34.5 84.5q0 77 65 123q58 41 139 41q91 0 165 -56q80 -61 80 -151z" />
    <glyph glyph-name="three" unicode="3" horiz-adv-x="565" 
d="M522 198q0 -100 -82 -157q-72 -49 -177 -49q-87 0 -149 40q-70 47 -70 130q0 45 32 76.5t76 31.5q19 0 49.5 -15.5t24.5 -32.5q-30 -5 -50 -26.5t-20 -51.5q0 -86 107 -86q122 0 122 138q0 146 -118 146q-35 0 -62 -14q-5 15 -26 43q24 16 85 35q57 18 78 36q35 28 35 82
q0 49 -31.5 80t-80.5 31q-35 0 -62 -16q-34 -19 -34 -51q0 -49 55 -49q9 0 20 2v-11q0 -27 -30 -45q-25 -15 -54 -15q-43 0 -69 27t-26 71q0 79 78 115q57 26 146 26q72 0 138 -46q74 -49 74 -116q0 -56 -30 -87q-22 -23 -70 -39q-44 -12 -87 -24v-2l11 1q77 3 137 -49
t60 -129z" />
    <glyph glyph-name="four" unicode="4" horiz-adv-x="565" 
d="M537 226l-16 -51h-60v-79q0 -57 49 -94h-234q53 37 52 88v87q-66 0 -297 -1l-2 5l126 198q93 154 93 194q0 50 -40 73q11 11 71 23q53 10 79 10q83 0 141 -31l-1 -5q-85 -37 -361 -417h193v178q58 23 131 93v-271h76z" />
    <glyph glyph-name="five" unicode="5" horiz-adv-x="565" 
d="M528 237q0 -249 -294 -249q-74 0 -132 42q-65 46 -65 117q0 52 33 85.5t85 33.5q51 0 75 -24q20 -20 18 -49l-27 4q-26 0 -44 -18t-18 -44q0 -39 33 -60q27 -17 68 -17q126 0 126 174q0 178 -120 178q-44 0 -82.5 -29t-49.5 -71q-18 7 -58 19l-2 345h11q37 -18 71 -18
q33 0 97.5 12.5t97.5 12.5q83 0 164 -32q-8 -6 -42 -111q-46 34 -72 45q-38 18 -83 18q-50 0 -163 -16l-2 -167q87 65 137 65q109 0 173.5 -68t64.5 -178z" />
    <glyph glyph-name="six" unicode="6" horiz-adv-x="565" 
d="M528 231q0 -109 -64 -176t-172 -67q-136 0 -201 101q-54 83 -54 227q0 145 59 244q71 121 206 121q162 0 214 -132q-54 -15 -106 -45q-16 57 -38 80q-28 30 -83 30q-69 0 -94 -91q-11 -40 -17 -147q20 31 67 55.5t85 24.5q94 0 148 -67q50 -63 50 -158zM397 214
q0 170 -105 170q-114 0 -114 -161q0 -168 110 -168q109 0 109 159z" />
    <glyph glyph-name="seven" unicode="7" horiz-adv-x="565" 
d="M432 576q-16 20 -122 20q-135 0 -213 -78h-7q-52 110 -50 114q111 48 247 48t238 -44v-7l-35 -66q-47 -89 -89 -215q-47 -142 -47 -223t44 -124h-286q54 40 156 261q115 250 164 314z" />
    <glyph glyph-name="eight" unicode="8" horiz-adv-x="565" 
d="M533 200q0 -99 -78 -157q-70 -52 -172 -52q-99 0 -170 49q-80 55 -80 150q0 72 52 126q47 47 121 69q-49 36 -77 90q-6 12 -33 84q-16 40 -36 49v7q106 69 246 69q101 0 206 -64q-30 -28 -46 -80q-21 -74 -27 -85q-23 -45 -76 -68q88 -41 118 -67q52 -45 52 -120z
M383 538q0 39 -29 65t-69 26q-37 0 -64.5 -23.5t-27.5 -59.5t29 -78q32 -46 66 -46q27 0 61 44t34 72zM408 212q0 35 -27 69q-25 31 -60 47q-39 19 -44 19q-1 0 -41 -23q-76 -45 -76 -119q0 -51 38 -82q35 -30 87 -30q53 0 88 33t35 86z" />
    <glyph glyph-name="nine" unicode="9" horiz-adv-x="565" 
d="M525 372q0 -152 -58 -255q-71 -126 -213 -126q-72 0 -125 36q-57 37 -75 106q27 7 53 15q33 11 52 23q19 -113 103 -113q67 0 99 74q24 58 21 133l-2 32l-34 -44q-37 -37 -105 -37q-99 0 -152 65q-48 60 -48 161q0 107 65 175.5t171 68.5q129 0 194 -96q54 -82 54 -218z
M387 458q0 161 -110 161q-104 0 -104 -172q0 -158 95 -158q119 0 119 169z" />
    <glyph glyph-name="colon" unicode=":" horiz-adv-x="222" 
d="M161 84q0 1 -1 -6v-23q-1 -20 0 -54h-116v89q15 19 65 19q11 0 31.5 -8t20.5 -17zM160 387h-118v43q1 29 1 44q0 10 26 18q20 6 32 6q41 0 59 -18v-93z" />
    <glyph glyph-name="semicolon" unicode=";" horiz-adv-x="220" 
d="M150 387h-117v87q0 10 26 18q20 6 32 6q41 0 59 -18v-93zM77 -140q-4 0 -33 31q12 8 31.5 28.5t19.5 81.5q0 1 1 1t3 -3l-1 2l-59 1v97q5 7 26 13.5t31 6.5q37 0 59 -20l1 -28q2 -98 -17 -149q-5 -14 -26 -37q-24 -25 -36 -25z" />
    <glyph glyph-name="less" unicode="&#x3c;" horiz-adv-x="443" 
d="M400 74v65l-243 113l243 113v65l-336 -153v-50z" />
    <glyph glyph-name="equal" unicode="=" horiz-adv-x="428" 
d="M19 158v68h368v-68h-368zM19 279v68h368v-68h-368z" />
    <glyph glyph-name="greater" unicode="&#x3e;" horiz-adv-x="425" 
d="M64 74v65l244 113l-244 113v65l336 -153v-50z" />
    <glyph glyph-name="question" unicode="?" horiz-adv-x="488" 
d="M457 502q0 -61 -41 -101q-22 -22 -84 -56q-54 -30 -68 -54q-20 -32 -20 -75q0 -9 1 -28t1 -30t-1 -22l-61 1v144q0 39 36 78q33 32 66 65q36 42 36 87q0 46 -28 77t-74 31q-36 0 -62 -17q-30 -20 -30 -54q0 -20 15 -35t35 -18q-28 -40 -69 -40q-38 0 -68 25t-30 63
q0 67 74 109q63 35 135 35q88 0 158 -47q79 -53 79 -138zM271 0h-114v94q26 16 56 16q43 0 58 -20v-90z" />
    <glyph glyph-name="at" unicode="@" horiz-adv-x="694" 
d="M490 155q-37 -18 -69 -18q-68 0 -70 66q-45 -60 -96 -60q-57 0 -92 44q-31 40 -31 95q0 78 55 147q59 75 140 75q51 0 73 -48l12 40h93l-70 -267q-4 -16 -4 -26q0 -16 19 -16q17 0 40 16q41 29 68 86q25 54 25 107q0 94 -70.5 160t-169.5 66q-124 0 -201 -85
q-73 -81 -73 -202t75 -202q78 -84 204 -84q140 0 222 135h68q-39 -87 -121 -139.5t-177 -52.5q-145 0 -241 101q-93 97 -93 237q0 142 90 242q95 106 242 106q124 0 214 -79.5t90 -197.5q0 -76 -40 -143q-42 -70 -112 -103zM339 457q-44 0 -81 -81q-31 -69 -31 -122
q0 -65 41 -65q44 0 80 84q29 71 29 125q0 59 -38 59z" />
    <glyph glyph-name="A" unicode="A" horiz-adv-x="690" 
d="M473 0q32 33 32 68t-28 127q-21 73 -43 128q-100 -42 -148 -87q-69 -65 -69 -163q0 -23 35 -73h-247q20 21 57 73q19 34 95.5 276t76.5 269q0 8 -7 22t-13 19q16 27 122 27q28 0 62 -5q51 -7 51 -20q-22 -12 -22 -45q0 -35 19 -98q15 -49 31 -98q63 23 122 18
q-38 -46 -32 -101q-44 8 -66 -2q0 -1 82 -262q11 -38 56 -73h-166zM417 395l-56 191q-90 -273 -90 -301q34 42 146 110z" />
    <glyph glyph-name="B" unicode="B" horiz-adv-x="647" 
d="M603 175q1 -80 -54.5 -127.5t-136.5 -47.5h-383q30 35 40 60q9 21 9 56v507q-51 11 -70 33q23 11 45 32q35 -24 77 -24q35 0 104.5 12.5t105.5 12.5q86 0 155 -41q82 -49 82 -129q0 -117 -131 -117q-23 0 -49 4q65 -49 129 -97q75 -63 77 -134zM440 543q0 44 -42 71
q-37 24 -83 24q-37 0 -99 -14q14 -61 49 -106q43 -55 99 -55q31 0 53.5 24t22.5 56zM450 182q0 61 -46 119q-24 29 -98 95q-67 59 -91 98v-437l98 1q5 -2 14 -2q44 0 76 23q47 32 47 103z" />
    <glyph glyph-name="C" unicode="C" horiz-adv-x="593" 
d="M329 -12q-149 0 -234 104q-80 97 -80 251q0 151 80 245q87 103 238 95q42 -2 95 -25q5 -3 11 -3q10 0 24 12q8 8 17 16l-3 1l94 -169q-129 116 -236 116q-95 0 -144 -77q-41 -66 -41 -169q0 -116 54 -188q60 -81 173 -81q114 0 202 72q-5 -87 -81 -145q-72 -55 -169 -55z
" />
    <glyph glyph-name="D" unicode="D" horiz-adv-x="652" 
d="M598 303q0 -124 -71 -210q-76 -93 -196 -93h-333q22 17 40 47t18 55q0 -10 -1 241q-1 204 -1 206q-2 16 2 77q-24 10 -58 28q8 10 22 33q46 -23 70 -20q47 6 94 13q60 8 94 8q150 0 239 -121q81 -108 81 -264zM448 358q0 120 -30 184q-42 88 -146 88q-82 0 -81 -37v-278
v-199q-2 -29 38 -48q35 -17 75 -14q76 6 111 57q27 41 32 117q1 9 1 130z" />
    <glyph glyph-name="E" unicode="E" horiz-adv-x="587" 
d="M554 174q-18 -35 -23 -87q-9 -79 -10 -87h-503l1 6q47 44 47 113v507q-15 3 -27 7q-29 10 -40 24q18 16 28 28q39 -21 71 -18q46 6 92 11q56 7 91 7q27 0 80 -8t80 -8q29 0 55 15l46 -155q-141 106 -259 106q-40 0 -54 -7q-23 -11 -23 -48q0 -258 3 -258q28 58 76 102
q57 54 113 54q8 0 16 -1q-24 -52 -27 -111q-108 -3 -147 -67q-30 -49 -30 -163q0 -55 2 -62q6 -20 28 -22q-6 1 65 1t117 30q22 14 59 56q27 31 50 32z" />
    <glyph glyph-name="F" unicode="F" horiz-adv-x="559" 
d="M17 1l24 34q25 37 25 90v501q-15 3 -27 7q-29 10 -40 24q18 16 28 28q39 -21 71 -18q46 6 92 11q56 7 91 7q27 0 80 -8t80 -8q29 0 55 15l46 -155q-141 106 -259 106q-40 0 -54 -7q-23 -11 -23 -48q0 -258 3 -258q28 58 76 102q57 54 113 54q8 0 16 -1q-24 -52 -27 -111
q-108 -3 -147 -67q-30 -49 -30 -163q0 -9 -2 -10q0 -1 2 -10q4 -68 43 -115h-236z" />
    <glyph glyph-name="G" unicode="G" horiz-adv-x="593" 
d="M556 344q-17 -37 -17 -140q0 -53 16 -96q-109 -118 -255 -118q-144 0 -222 91q-73 86 -73 232q0 151 74 254q82 117 228 117q24 0 70.5 -16t66.5 -16q16 0 40 22l59 -169l-4 -1q-137 112 -236 112q-92 0 -140 -76q-41 -65 -41 -161q0 -126 39 -186q48 -73 166 -73
q38 0 67.5 27t29.5 64q0 38 -22.5 60.5t-61.5 22.5q-40 0 -64 -25q-18 72 -18 77q65 16 133 16q34 0 83 -7q71 -10 82 -11z" />
    <glyph glyph-name="H" unicode="H" horiz-adv-x="648" 
d="M569 390l-41 4v-261q0 -72 51 -133l-6 -1l-162 1q33 33 53 127v268h-11q-86 0 -174 -89t-88 -175q0 -81 49 -132h-237q53 56 53 138l-1 421q0 33 -12 55q-7 12 -35 44q68 25 128 25q56 0 110 -25q-48 -28 -48 -134v-235q104 189 266 219q1 -7 1 67q0 41 -39 87
q37 21 84 21q27 0 63 -23q-28 -25 -37 -68q-5 -26 -5 -79l21 1q16 0 44 -7q-12 -38 -27 -116z" />
    <glyph glyph-name="I" unicode="I" horiz-adv-x="286" 
d="M237 659q-30 -44 -35 -56q-1 -4 -14 -68v-389q0 -58 7 -80q8 -28 40 -67l-233 1q24 10 39 65q13 45 11 81l1 387q0 81 -46 128q16 8 52.5 16t63.5 8q74 0 114 -26z" />
    <glyph glyph-name="J" unicode="J" horiz-adv-x="495" 
d="M457 662q-49 -34 -49 -95l-1 -382q0 -29 31 -69q-79 -129 -231 -129q-65 0 -127 41q-69 46 -69 108q0 49 30 83.5t79 34.5q42 0 70 -29q-64 -31 -64 -89q0 -35 19 -59q21 -27 55 -27q69 0 69 95l-1 426q0 58 -49 85q9 16 57 25q34 6 65 6q64 0 116 -25z" />
    <glyph glyph-name="K" unicode="K" horiz-adv-x="649" 
d="M601 0h-236q30 30 30 47q0 28 -126 266q-28 -31 -69 -84q-3 -95 -1 -120q5 -61 48 -108l-235 -1l-2 5q52 41 53 98l2 436q0 46 -7 67q-9 31 -40 51q68 29 121 29q67 0 114 -27q-18 -19 -35 -38q-18 -25 -18 -72l1 -218l2 -3q211 272 211 293q0 23 -36 38q52 24 99 24
t93 -23l3 -4q-57 -10 -112 -84l-100 -141q39 -75 171 -344q30 -59 69 -87z" />
    <glyph glyph-name="L" unicode="L" horiz-adv-x="549" 
d="M535 177q-27 -72 -39 -177l-488 1q30 30 41 52q13 26 13 65v437q0 37 -13 57q-5 7 -41 43q43 28 114 28q70 0 137 -22q-36 -17 -49 -42q-10 -20 -10 -62l1 -432q0 -38 8 -52q12 -20 48 -20h77q30 0 86 50q64 58 115 74z" />
    <glyph glyph-name="M" unicode="M" horiz-adv-x="784" 
d="M731 665q-16 -21 -32 -41q-14 -24 -14 -73l-1 -428q0 -82 47 -122h-164q53 52 53 121v365q0 65 -51 65q-41 0 -102 -47q40 -82 40 -179q0 -41 -33 -132q-34 -98 -63 -115q-40 23 -70 121q-27 84 -27 144q0 120 49 195q-2 28 -58 47q-43 15 -81 15l-26 -4v-446
q0 -105 46 -150h-236q55 48 55 155v393q0 67 -49 106q44 31 155 31q127 0 229 -92q18 4 46 30q33 30 61 43q46 21 115 21q64 0 111 -23zM458 327q0 100 -41 144q-46 -66 -46 -159q0 -33 10 -78q12 -54 31 -68q46 65 46 161z" />
    <glyph glyph-name="N" unicode="N" horiz-adv-x="619" 
d="M420 1q29 23 41 75q6 24 6 95q0 77 -32 182q-21 71 -89.5 132.5t-122.5 61.5q-22 0 -25.5 -17t-4.5 -33l-2 -355q7 -63 8 -70q10 -46 41 -71l-237 -1q40 29 51 68q5 18 5 68l1 375q0 41 -2 81t-50 67q4 7 50.5 15.5t77.5 8.5q215 0 319 -256q3 3 3 7l-2 164q-3 50 -41 61
q0 11 33 19q23 5 42 5q40 0 72 -19q0 -2 -18 -21t-18 -49v-504q-1 -50 37 -89h-143z" />
    <glyph glyph-name="O" unicode="O" horiz-adv-x="625" 
d="M568 310q0 -130 -60 -218q-70 -103 -199 -101q-148 1 -226 96q-75 90 -75 247q0 146 69 242q78 108 219 105q140 -2 211 -117q61 -98 61 -254zM485 322q0 89 -39 167q-49 96 -132 99q-169 4 -169 -258q0 -237 170 -237t170 229z" />
    <glyph glyph-name="P" unicode="P" horiz-adv-x="616" 
d="M575 465q0 -78 -58 -124q-51 -41 -124 -41q-59 0 -118 34q-25 14 -70 51q-1 0 -1 -39l-1 -205q0 -99 49 -140h-236q51 27 51 135l-2 436q-1 10 0 39q-17 5 -30 10q-30 12 -34 23q0 2 10 14q15 15 18 21q11 -5 32 -11q25 -6 50 -6q19 0 91.5 12.5t102.5 12.5
q110 0 190 -63t80 -159zM442 502q0 53 -44 90t-103 37q-66 0 -96 -12v-58q4 -65 41 -110q39 -49 96 -49q43 0 74.5 27t31.5 75z" />
    <glyph glyph-name="Q" unicode="Q" horiz-adv-x="636" 
d="M577 332q0 -156 -43 -233q-57 -104 -203 -111l-8 -4q26 -16 39 -30q31 -15 49 -15q16 0 72 32q-6 -40 -29 -71q-27 -36 -68 -36q-18 0 -37 8q-26 21 -52.5 41.5t-47.5 16.5q-63 0 -86 -33q-13 11 -38 27q29 33 68.5 48t41.5 16q-6 2 -15 4q-119 26 -170 144
q-36 84 -35 203q3 179 77.5 264.5t225.5 85.5q135 0 203 -116q56 -95 56 -241zM494 332q0 87 -37 165q-47 98 -129 100q-102 2 -143 -77q-32 -61 -32 -188q0 -251 171 -251q105 0 143 76q27 53 27 175z" />
    <glyph glyph-name="R" unicode="R" horiz-adv-x="653" 
d="M609 0h-202q-16 54 -33 108q-35 132 -41 221q-50 21 -80.5 65t-30.5 90q0 53 50 53q30 0 57 -26q23 -22 34 -54q5 -11 18 -45q70 5 70 80q0 133 -163 133q-34 0 -48 -5q-26 -10 -26 -40v-451q0 -24 12 -65q16 -50 36 -63l-191 -1h-57q62 51 62 140v478q0 2 -14 3l-18 2
q-23 5 -41 24q16 10 36 33q8 0 11 -3.5t8 -4.5q25 -8 57 -8q30 0 93.5 9.5t92.5 9.5q112 0 189 -50q90 -58 90 -166q0 -61 -43 -105q-46 -47 -119 -46q0 -30 46 -118q34 -64 145 -198zM308 480q-14 30 -37 30q-18 0 -18 -25q0 -21 27 -47.5t45 -26.5q3 0 -4 28t-13 41z" />
    <glyph glyph-name="S" unicode="S" horiz-adv-x="547" 
d="M508 214q0 -102 -74 -165q-70 -59 -173 -59q-99 0 -169 43q-84 52 -84 145q0 62 39 101t101 39q20 0 39 -13q-19 -18 -39 -36q-15 -17 -15 -55q0 -48 38 -74q33 -22 83 -22q54 0 89.5 31.5t35.5 84.5q0 67 -81 115q-76 37 -151 75q-82 47 -82 115q0 77 75 118
q60 34 144 34q25 0 70 -13.5t64 -13.5q6 0 40 11l-58 -135q-61 81 -128 81q-38 0 -59.5 -23t-21.5 -60q0 -51 82 -89q136 -62 153 -75q82 -59 82 -160z" />
    <glyph glyph-name="T" unicode="T" horiz-adv-x="612" 
d="M574 674q-28 -33 -37 -68q-50 32 -139 32q-19 0 -31 -5v-487q0 -102 49 -146h-240q35 25 47 64q8 28 8 81l1 473q-31 -5 -109 -38q-67 -29 -110 -29l-10 3q22 37 63 136q40 -20 90 -20q46 0 138 12t139 12q26 0 72 -6q52 -6 69 -14z" />
    <glyph glyph-name="U" unicode="U" horiz-adv-x="593" 
d="M569 664q-34 -21 -47 -118q0 4 0 -379q0 -95 -72 -142q-62 -39 -160 -39q-129 0 -183 44q-60 48 -60 169v361q0 42 -23 71q-12 14 -23 28q64 24 123 24q46 0 112 -25q-36 -26 -44.5 -45t-8.5 -68v-371q0 -61 36 -87q33 -23 102 -23q134 2 134 122v365q0 84 -48 112
q40 22 88 22q46 0 74 -21z" />
    <glyph glyph-name="V" unicode="V" horiz-adv-x="640" 
d="M588 663q-32 -20 -52 -56q-11 -20 -85.5 -281t-74.5 -280q0 -24 17 -45h-199q21 26 21 58q0 39 -129 451q-19 60 -31 83q-22 43 -59 63q53 30 156 30q37 0 100 -22q-44 -29 -44 -61q0 -31 56 -214q47 -151 75 -227q18 41 69 224q52 187 52 220q0 39 -41 58q39 22 83 22
q30 0 86 -23z" />
    <glyph glyph-name="W" unicode="W" horiz-adv-x="976" 
d="M915 667q-7 -6 -40 -52q-159 -514 -159 -550t31 -63q-209 -1 -219 0q23 28 23 66q0 54 -89 302q-67 -218 -100 -306q-1 -3 -1 -7q0 -24 28 -55l-207 -2q23 24 23 58t-69 268t-89 272q-11 20 -26.5 33t-31.5 26q71 30 143 30q50 0 110 -20q-43 -24 -43 -59q0 -72 130 -436
q99 291 99 310t-16 65q-13 37 -27 74q-18 26 -44 38q42 28 124 28q66 0 120 -18q-44 -27 -44 -53q0 -38 55 -217q44 -141 76 -229q34 111 68 223q59 194 59 217q0 37 -35 60q37 13 81 13q26 0 70 -16z" />
    <glyph glyph-name="X" unicode="X" horiz-adv-x="685" 
d="M635 0l-270 -1q40 21 40 57q0 24 -45 103q-30 53 -61 106q-123 -172 -123 -203q0 -28 30 -63l-200 1q34 15 94 97q39 51 93 133q33 50 66 101q-87 171 -94 183q-73 129 -125 154q57 28 122 28q78 0 134 -26q-37 -15 -37 -41q0 -15 40 -84q49 -86 50 -89q112 154 112 180
q0 19 -37 37q47 21 89 21q69 0 103 -20q-37 -16 -91 -82q-35 -42 -78 -108q-30 -48 -60 -95q163 -295 162 -295q-6 0 27 -40.5t59 -53.5z" />
    <glyph glyph-name="Y" unicode="Y" horiz-adv-x="649" 
d="M366 331v-219q0 -31 14.5 -63t39.5 -48l-242 -1q52 33 52 115v205q0 47 -91 184.5t-133 151.5q24 29 135 29q83 0 127 -19q-38 -23 -38 -43q0 -16 48 -107q41 -76 62 -111l4 2q35 56 69 112q52 86 52 107q0 16 -35 40q43 17 87 17q59 0 89 -18q-38 -9 -67 -45
q-18 -20 -94 -147q-79 -130 -79 -142z" />
    <glyph glyph-name="Z" unicode="Z" horiz-adv-x="599" 
d="M550 652q-46 -25 -182 -269q-81 -152 -161 -304l-6 -22l49 1h127q23 1 49 34q45 56 46 57q31 30 66 25l2 -6q-22 -59 -33 -167h-494l-3 5l328 609q-7 9 -48 9q-130 0 -232 -66q1 19 11 52.5t11 50.5q101 29 202 29q161 0 268 -38z" />
    <glyph glyph-name="bracketleft" unicode="[" horiz-adv-x="316" 
d="M339 722v-50h-132v-730h132v-50h-255v830h255z" />
    <glyph glyph-name="backslash" unicode="\" horiz-adv-x="594" 
d="M124 737l431 -737h-74l-431 737h74z" />
    <glyph glyph-name="bracketright" unicode="]" horiz-adv-x="358" 
d="M31 -108v50h132v730h-132v50h255v-830h-255z" />
    <glyph glyph-name="asciicircum" unicode="^" horiz-adv-x="241" 
d="M258 717q-10 -3 -21 -3q-56 0 -110 53q-70 -58 -127 -58l42 41q11 13 31 52h109q5 -14 14 -28q22 -34 62 -57z" />
    <glyph glyph-name="underscore" unicode="_" horiz-adv-x="467" 
d="M0 -58h500v-90h-500v90z" />
    <glyph glyph-name="grave" unicode="`" horiz-adv-x="247" 
d="M21 642q24 -27 65 -63q50 -27 119 -30l23 -1q-20 15 -49 39q-38 46 -31 55h-127z" />
    <glyph glyph-name="a" unicode="a" horiz-adv-x="471" 
d="M409 -1h-122v72q-37 -46 -73 -64.5t-93 -18.5q-46 0 -81.5 37.5t-35.5 83.5q0 65 51 112q37 34 113 67q60 25 119 50q-2 66 -8 82q-14 34 -66 34q-83 0 -139 -86l-36 84q52 28 75 37q52 19 111 19q97 0 176 -47q-20 -17 -20 -58q0 -322 1 -322q7 -63 28 -82zM286 205v88
h-8q-3 0 -30 -16q-133 -72 -133 -156q0 -26 21 -43t48 -17q53 0 80 48q22 38 22 96z" />
    <glyph glyph-name="b" unicode="b" horiz-adv-x="504" 
d="M457 228q0 -90 -36 -152q-47 -82 -143 -82q-41 0 -64 11q-32 15 -56 57q-1 -6 -1 -62h-150q30 52 31 113v124q1 367 1 335q-9 19 -17 34q-19 36 -29 41q0 15 40 26q31 8 52 8q46 0 65 -16q1 -44 1 -215q13 14 25 28q32 27 79 27q20 0 44 -5q85 -19 127 -115
q31 -71 31 -157zM342 238q0 195 -106 195q-62 0 -80 -60q-8 -26 -8 -94q0 -144 31.5 -169.5t63.5 -25.5q26 0 57 18q42 24 42 136z" />
    <glyph glyph-name="c" unicode="c" horiz-adv-x="448" 
d="M412 143q0 -68 -62 -111q-54 -38 -123 -38q-102 0 -161 68q-58 65 -58 168q0 114 60 192q66 86 177 86q99 0 163 -36q-7 -11 -35 -85q-52 59 -121 59q-64 0 -100 -56q-32 -48 -32 -115q0 -78 35 -128q41 -57 116 -57q39 0 75 24q32 20 64 41z" />
    <glyph glyph-name="d" unicode="d" horiz-adv-x="488" 
d="M460 -1h-155v56q-39 -65 -126 -65q-171 0 -171 249q0 104 46 181q55 92 152 92q33 0 53 -11q15 -7 43 -32v103q0 65 -46 93q47 22 89 22q57 0 71 -14q1 -3 1 -568q0 -55 43 -106zM306 258q0 83 -8 111q-17 64 -75 64q-56 0 -83 -54q-20 -41 -20 -103q0 -13 1 -25
q7 -77 19 -108q23 -59 79 -59q88 0 87 115v59z" />
    <glyph glyph-name="e" unicode="e" horiz-adv-x="436" 
d="M393 145q-29 -152 -183 -152q-98 0 -158 90q-52 79 -49 176q6 248 203 251q74 1 126.5 -54.5t50.5 -130.5l-13 1q-77 2 -148 -28q-91 -38 -91 -105q0 -47 33.5 -76.5t79.5 -26.5q75 4 149 55zM269 397q0 22 -14 42q-17 24 -42 24q-47 0 -76 -52q-23 -42 -20 -83l3 -55
q16 34 86 73q63 36 63 51z" />
    <glyph glyph-name="f" unicode="f" horiz-adv-x="313" 
d="M287 667l-18 -78q-30 47 -63 47q-17 0 -27 -18q-8 -14 -8 -30v-96q15 6 35 6q24 0 49 -10l-20 -73q-39 18 -59 14q-3 3 -5 2v-356q3 -48 33 -75l-184 1q38 38 38 77l1 347q-11 5 -23 -1l-38 -9q-4 26 32 51q8 5 26 10v104q0 57 46 87q36 24 88 24q35 0 97 -24z" />
    <glyph glyph-name="g" unicode="g" horiz-adv-x="522" 
d="M465 467q-11 -13 -23 -25q-15 -17 -15 -48v-345q0 -47 35 -84q-30 -70 -99 -107q-63 -33 -143 -33q-108 0 -195 56l36 84q64 -51 66 -52q36 -23 80 -23q106 0 105 90l-1 105q-16 -41 -51 -64t-79 -23q-81 0 -128 64q-41 57 -41 140q0 130 73 217q78 93 206 93
q102 0 174 -45zM313 366q-8 78 -78 78q-69 0 -94 -62q-16 -40 -16 -121q0 -70 14 -103q21 -50 79 -50q97 0 97 154q0 76 -2 104z" />
    <glyph glyph-name="h" unicode="h" horiz-adv-x="534" 
d="M488 0l-183 1q16 9 26 47q8 30 8 57v250q-3 28 -12.5 40t-36.5 15q-58 0 -95 -57q-32 -50 -32 -112v-139q5 -24 11 -43q14 -45 30 -58h-199q43 33 43 109v441q5 67 -42 104q27 35 98 35q45 0 62 -18l-2 -309q47 77 77 103q48 42 121 42q54 0 112 -25q-15 -23 -18 -33
q-1 -5 -1 -34v-314q7 -51 33 -102z" />
    <glyph glyph-name="i" unicode="i" horiz-adv-x="252" 
d="M171 578h-117v95q15 16 60 16q22 0 57 -14v-97zM210 1l-183 1q24 45 28 58q2 10 4 39l-1 270q-2 9 -2 35q0 50 -35 68q46 38 102 38q14 0 52 -21q-1 -43 -1 -131l1 -256q3 -37 10 -54q13 -24 25 -47z" />
    <glyph glyph-name="j" unicode="j" horiz-adv-x="240" 
d="M162 576h-115v95q14 19 55 19q43 0 60 -17v-97zM42 -187q-36 0 -65 20q-33 22 -33 56q0 20 14 41t34 21l32 -2q-21 -21 -21 -46q0 -33 25 -33q21 0 21 24v502q0 60 -40 79q33 33 88 33q19 0 71 -21l1 -558q0 -55 -35.5 -85.5t-91.5 -30.5z" />
    <glyph glyph-name="k" unicode="k" horiz-adv-x="508" 
d="M512 2h-214q23 31 23 48q0 35 -94 191l-58 -70q1 -62 0 -77q-2 -43 41 -93h-205q13 15 22 30q21 36 22 62v476q-2 68 -48 86v5q48 30 100 30q32 0 67 -14v-416l4 -3q16 15 74 90q69 89 69 110q0 11 -8.5 18t-18.5 15q34 18 83 18t89 -22q-18 -8 -44 -20q-18 -9 -39 -35
q-17 -22 -34 -45q-39 -46 -39 -47q0 -4 138 -249q21 -37 28 -47q17 -25 42 -41z" />
    <glyph glyph-name="l" unicode="l" horiz-adv-x="256" 
d="M210 1h-190q25 23 32 56l6 54v479q-4 47 -42 71q7 11 39 21.5t52 10.5q12 0 37 -5q31 -8 31 -17v-558q-1 -65 35 -112z" />
    <glyph glyph-name="m" unicode="m" horiz-adv-x="837" 
d="M778 -1h-182q35 41 35 80v267q0 69 -50 69q-38 0 -82 -56.5t-44 -89.5v-174q0 -34 6.5 -52t27.5 -44l-179 1q26 27 32 93q3 47 1 141q-2 126 -2 112q0 67 -50 67q-33 0 -79.5 -58t-46.5 -91v-191q0 -19 11.5 -37.5t23.5 -35.5l-184 -1q33 26 33 82v300q0 72 -40 91
q6 13 43 23q32 9 52 9q27 0 58 -14v-131q54 148 218 148q37 0 94 -21q-19 -26 -19 -72v-45q67 86 78 97q48 44 113 44q75 0 124 -30q-31 -36 -31 -69v-335q0 -18 14 -41q12 -18 25 -36z" />
    <glyph glyph-name="n" unicode="n" horiz-adv-x="553" 
d="M493 0h-190q23 38 28 49q9 24 9 61v201q0 43 -7 61q-11 30 -46 32q-62 4 -100 -61q-29 -50 -26 -75v-174q5 -19 11 -36q14 -39 29 -57q-94 1 -193 -1q13 9 25 43q12 31 12 49l1 304q0 58 -38 79q39 32 93 32q27 0 53 -11l8 -3l-1 -130l24 50q23 41 58 64q49 32 124 32
q63 0 110 -36q-23 -26 -23 -67l1 -292q0 -70 38 -114z" />
    <glyph glyph-name="o" unicode="o" horiz-adv-x="492" 
d="M428 254q0 -109 -47 -179q-55 -82 -159 -82q-109 0 -163 81q-46 69 -46 183q0 106 50 177q57 79 159 79q105 0 159 -80q47 -69 47 -179zM376 250q0 69 -27 118q-33 59 -92 61q-127 4 -127 -170q0 -74 24 -122q31 -62 96 -59q61 4 96 57q30 47 30 115z" />
    <glyph glyph-name="p" unicode="p" horiz-adv-x="513" 
d="M452 202q0 -86 -46 -144q-49 -62 -133 -62q-47 0 -71 18q-16 12 -46 56q0 -37 2 -120q5 -91 36 -120q-5 -1 -193 -1q37 43 37 129l-2 452q0 39 -35 59l-3 2q63 25 78 30q40 12 84 12q128 0 210 -90.5t82 -220.5zM339 259q0 183 -109 183q-45 0 -63 -26q-15 -21 -15 -68
v-122q0 -124 95 -124q92 0 92 157z" />
    <glyph glyph-name="q" unicode="q" horiz-adv-x="504" 
d="M460 470q-37 -23 -37 -63v-490q0 -25 12 -47t25 -44h-184q8 13 16 25q15 25 15 66l1 151q-48 -50 -56 -55q-29 -21 -78 -21q-79 0 -125 66q-39 58 -39 140q0 135 82.5 224.5t216.5 89.5q27 0 86 -13q69 -14 65 -29zM307 177v148q0 54 -13 80q-19 36 -68 36q-65 0 -89 -64
q-15 -40 -15 -119q0 -168 92 -168q37 0 65 25.5t28 61.5z" />
    <glyph glyph-name="r" unicode="r" horiz-adv-x="351" 
d="M283 406q-36 3 -86 -35t-46 -75q2 -18 0 -183q0 -41 3 -56q6 -33 32 -57h-183q23 27 29 55q4 17 4 64v282q0 51 -37 70q6 13 36 23q26 9 51 11q44 4 67 -14v-129q19 42 42 72q55 74 123 77q-2 -5 -19 -41q-9 -20 -16 -64z" />
    <glyph glyph-name="s" unicode="s" horiz-adv-x="469" 
d="M420 165q0 -83 -65 -132q-60 -45 -144 -45q-77 0 -135 34q-68 41 -68 112q0 43 27.5 70.5t63.5 27.5q19 0 36 -8q-31 -38 -31 -57q0 -73 105 -73q44 0 76 25t32 67q0 56 -68 80q-63 18 -126 37q-68 27 -68 89q0 56 47 90q42 29 100 29q78 0 130 -24q7 -1 53 7
q-20 -37 -51 -104q-47 71 -111 71q-28 0 -50 -17t-22 -45q0 -45 70 -70q127 -45 129 -47q70 -39 70 -117z" />
    <glyph glyph-name="t" unicode="t" horiz-adv-x="328" 
d="M284 100q0 -53 -43 -84q-37 -26 -85 -26q-36 0 -77 21q-47 25 -47 55q0 -4 13.5 27t13.5 62l2 255q-8 -1 -16 -5q-18 -10 -37 -30l7 25q3 21 23 43t21 25q2 4 -1 109q0 7 1 16v12q0 22 -35 46q27 30 84 30q38 0 64 -20q1 -5 1 -27v-143q45 8 93 8q-5 -11 -13 -32
q-1 -14 -4 -42q-14 10 -36 10q-19 0 -40 -7v-267q-4 -79 50 -79q24 0 58 29q3 -2 3 -11z" />
    <glyph glyph-name="u" unicode="u" horiz-adv-x="541" 
d="M493 -1l-154 1v123q-42 -62 -75 -90q-46 -39 -102 -44q-20 -1 -37 -1q-62 0 -113 26q4 8 16 30q7 12 12 43l-1 315q-3 21 -7 42q-7 23 -31 39q41 24 92 24q44 0 63 -16q0 13 0 -92v-256q0 -21 14 -39t32 -18q31 0 63 17q38 21 58 79q16 44 16 86l-1 101q0 45 -6 66
q-10 34 -40 51q0 7 25 15q29 9 65 8q18 0 42.5 -7t29.5 -11l1 -399q5 -46 22 -73z" />
    <glyph glyph-name="v" unicode="v" horiz-adv-x="510" 
d="M474 497q-25 -21 -31 -44q0 -1 -131 -364q-10 -21 -10 -35q0 -15 19 -53l-157 -1q9 29 9 43q0 35 -65 220q-62 174 -67 179q-13 15 -37 37q27 33 114 30q57 -1 75 -18q-23 -18 -23 -38q0 -21 47 -158q31 -85 61 -170q28 80 57 161q51 150 51 168q0 21 -23 38q9 17 54 17
q27 0 57 -12z" />
    <glyph glyph-name="w" unicode="w" horiz-adv-x="814" 
d="M774 493q-13 -7 -38 -37q-146 -357 -146 -405q0 -21 16 -51h-165q0 3 10 23q5 11 5 27q0 27 -28 118q-20 63 -39 125q-6 -16 -54 -130q-40 -95 -40 -118q0 -16 18 -45h-161q22 41 20 51q-7 43 -121 390q-18 19 -50 44q52 31 111 31q18 0 52 -8q41 -9 39 -19
q-34 -9 -34 -37q0 -32 100 -326l95 238q-23 88 -68 118q11 13 57 22q33 7 46 7q53 0 96 -18q-33 -19 -33 -42q0 -45 96 -327q96 257 119 332q6 20 -27 36q19 16 62 17q23 1 62 -16z" />
    <glyph glyph-name="x" unicode="x" horiz-adv-x="537" 
d="M506 1h-219q21 12 21 36q0 19 -35 76q-27 46 -50 75q-14 -5 -53 -65.5t-39 -77.5q0 -27 27 -46h-162q33 11 105 107q46 64 92 129l-82 134q-67 103 -98 109q13 13 59 21q38 7 64 7q38 0 92 -18q-7 -5 -17 -17t-10 -18q0 -23 66 -119h5q23 32 46 63q33 46 33 63
q0 23 -23 32q29 16 74 16q34 0 76 -18v1q-32 -5 -73 -51q-19 -21 -110 -151q7 -11 70 -113q52 -84 85 -125q27 -33 56 -50z" />
    <glyph glyph-name="y" unicode="y" horiz-adv-x="525" 
d="M478 495q-19 -14 -52 -65q-136 -378 -134 -381.5t-22 -64.5q-28 -73 -59 -119q-44 -63 -86 -63q-37 0 -56 6q-37 13 -54 54q-1 6 -1 12q0 29 26.5 58t57.5 29q4 -8 3 -13q-2 -8 -2 -12q0 -20 13 -34.5t34 -14.5q27 0 46 27q16 24 16 54q0 35 -85 251q-82 207 -97 228
q-3 4 -35 24q40 38 127 38q22 0 78 -16q-33 -23 -33 -45q0 -26 113 -308q11 7 55.5 144.5t44.5 162.5q0 31 -29 42q35 20 65 20q31 0 66 -14z" />
    <glyph glyph-name="z" unicode="z" horiz-adv-x="487" 
d="M430 477q-67 -72 -134 -205q-107 -214 -112 -222h72q38 0 66 26q22 24 45.5 48t52.5 22l12 -1q-18 -63 -18 -145h-405q35 22 60 70q77 148 200 377q-12 10 -35 10q-114 0 -170 -72q-11 22 -40 90q79 36 207 36q83 0 199 -34z" />
    <glyph glyph-name="asciitilde" unicode="~" horiz-adv-x="351" 
d="M42 726l-6 9q43 73 89 73q21 0 60.5 -21t54.5 -21q40 0 77 33l6 -10q-53 -74 -84 -74q-20 0 -60.5 21t-55.5 21q-36 0 -81 -31z" />
    <glyph glyph-name="Adieresis" unicode="&#xc4;" horiz-adv-x="690" 
d="M465 0q32 33 32 68t-27 127q-21 73 -43 128q-100 -42 -148 -87q-69 -65 -69 -163q0 -23 35 -73h-247q20 21 57 73q19 34 95.5 276t76.5 269q0 8 -7.5 22t-13.5 19q17 27 123 27q28 0 62 -5q51 -7 51 -20q-22 -12 -22 -45q0 -35 19 -98l30 -98q63 23 123 18
q-38 -46 -32 -101q-44 8 -66 -2q0 -1 81 -262q12 -38 57 -73h-167zM410 395l-56 191q-90 -273 -90 -301q34 42 146 110zM345 762q0 18 13.5 31t32.5 13t32.5 -13t13.5 -31q0 -19 -13.5 -32t-32.5 -13t-32.5 13t-13.5 32zM205 762q0 18 13.5 31t32.5 13t32.5 -13t13.5 -31
q0 -19 -13.5 -32t-32.5 -13t-32.5 13t-13.5 32z" />
    <glyph glyph-name="Aring" unicode="&#xc5;" horiz-adv-x="690" 
d="M465 0q32 33 32 68t-27 127q-21 73 -43 128q-100 -42 -148 -87q-69 -65 -69 -163q0 -23 35 -73h-247q20 21 57 73q19 34 95.5 276t76.5 269q0 8 -7.5 22t-13.5 19q17 27 123 27q28 0 62 -5q51 -7 51 -20q-22 -12 -22 -45q0 -35 19 -98l30 -98q63 23 123 18
q-38 -46 -32 -101q-44 8 -66 -2q0 -1 81 -262q12 -38 57 -73h-167zM410 395l-56 191q-90 -273 -90 -301q34 42 146 110zM317 851q29 0 47.5 -20t18.5 -50q0 -29 -18.5 -49.5t-47.5 -20.5t-49 20.5t-20 49.5t20 49.5t49 20.5zM317 821q-16 0 -27.5 -11.5t-11.5 -28.5
q0 -16 11.5 -28t27.5 -12q17 0 28.5 12t11.5 28q0 17 -11.5 28.5t-28.5 11.5z" />
    <glyph glyph-name="Ccedilla" unicode="&#xc7;" horiz-adv-x="568" 
d="M551 191q-51 -204 -252 -204l1 -25q26 -6 52 -11q40 -10 40 -50q0 -33 -32 -53q-28 -18 -64 -18q-38 0 -66 15q-34 18 -38 52q48 -22 83 -22q33 0 33 27q0 21 -25 26l-42 2l1 33l-5 28q-238 46 -238 333q0 154 82 254q89 108 238 108l120 -31l17 3l26 25q66 -170 64 -177
q-76 59 -107 77q-63 36 -124 36q-95 0 -147 -70q-46 -62 -46 -160q0 -119 51 -193q59 -86 173 -86q94 0 205 81z" />
    <glyph glyph-name="Eacute" unicode="&#xc9;" horiz-adv-x="587" 
d="M554 174q-18 -35 -23 -87q-9 -79 -10 -87h-503l1 6q47 44 47 113v507q-15 3 -27 7q-29 10 -40 24q18 16 28 28q39 -21 71 -18q46 6 92 11q56 7 91 7q27 0 80 -8t80 -8q29 0 55 15l46 -155q-141 106 -259 106q-40 0 -54 -7q-23 -11 -23 -48q0 -258 3 -258q28 58 76 102
q57 54 113 54q8 0 16 -1q-24 -52 -27 -111q-108 -3 -147 -67q-30 -49 -30 -163q0 -55 2 -62q6 -20 28 -22q-6 1 65 1t117 30q22 14 59 56q27 31 50 32zM386 805q-25 -26 -66 -62q-39 -22 -115 -32l-43 -6q28 20 64 50q38 46 33 50h127z" />
    <glyph glyph-name="Ntilde" unicode="&#xd1;" horiz-adv-x="619" 
d="M193 497zM420 1q29 23 41 75q6 24 6 95q0 77 -32 182q-21 71 -89.5 132.5t-122.5 61.5q-22 0 -25.5 -17t-4.5 -33l-1 -355q7 -67 8 -70q10 -47 40 -71l-237 -1q40 29 52 68q5 19 5 68v375q0 41 -2 81t-50 67q4 7 50.5 15.5t77.5 8.5q215 0 319 -256q3 3 3 7l-2 164
q-3 50 -41 61q0 11 33 19q23 5 42 5q40 0 72 -19q0 -2 -18 -21t-18 -49v-504q-1 -50 37 -89h-143zM142 726l-6 9q43 73 89 73q21 0 60.5 -21t54.5 -21q40 0 77 33l6 -10q-53 -74 -84 -74q-20 0 -60.5 21t-55.5 21q-36 0 -81 -31z" />
    <glyph glyph-name="Odieresis" unicode="&#xd6;" horiz-adv-x="625" 
d="M568 310q0 -130 -60 -218q-70 -103 -199 -101q-148 1 -226 96q-75 90 -75 247q0 146 69 242q78 108 219 105q140 -2 211 -117q61 -98 61 -254zM485 322q0 89 -39 167q-49 96 -132 99q-169 4 -169 -258q0 -237 170 -237t170 229zM305 762q0 18 13.5 31t32.5 13t32.5 -13
t13.5 -31q0 -19 -13.5 -32t-32.5 -13t-32.5 13t-13.5 32zM155 762q0 18 13.5 31t32.5 13t32.5 -13t13.5 -31q0 -19 -13.5 -32t-32.5 -13t-32.5 13t-13.5 32z" />
    <glyph glyph-name="Udieresis" unicode="&#xdc;" horiz-adv-x="593" 
d="M569 664q-34 -21 -47 -118q0 4 0 -379q0 -95 -72 -142q-62 -39 -160 -39q-129 0 -183 44q-60 48 -60 169v361q0 42 -23 71q-12 14 -23 28q64 24 123 24q46 0 112 -25q-36 -26 -44.5 -45t-8.5 -68v-371q0 -61 36 -87q33 -23 102 -23q134 2 134 122v365q0 84 -48 112
q40 22 88 22q46 0 74 -21zM315 762q0 18 13.5 31t32.5 13t32.5 -13t13.5 -31q0 -19 -13.5 -32t-32.5 -13t-32.5 13t-13.5 32zM165 762q0 18 13.5 31t32.5 13t32.5 -13t13.5 -31q0 -19 -13.5 -32t-32.5 -13t-32.5 13t-13.5 32z" />
    <glyph glyph-name="aacute" unicode="&#xe1;" horiz-adv-x="476" 
d="M409 -1h-122v72q-37 -46 -73 -64.5t-93 -18.5q-46 0 -81.5 37.5t-35.5 83.5q0 65 51 112q37 34 113 67q60 25 119 50q-2 66 -8 82q-14 34 -66 34q-83 0 -139 -86l-36 84q52 28 75 37q52 19 111 19q97 0 176 -47q-20 -17 -20 -58q0 -322 1 -322q7 -63 28 -82zM286 205v88
h-8q-3 0 -30 -16q-133 -72 -133 -156q0 -26 21 -43t48 -17q53 0 80 48q22 38 22 96zM336 635q-25 -26 -66 -62q-39 -22 -115 -32l-43 -6q28 20 64 50q38 46 33 50h127z" />
    <glyph glyph-name="agrave" unicode="&#xe0;" horiz-adv-x="476" 
d="M409 -1h-122v72q-37 -46 -73 -64.5t-93 -18.5q-46 0 -81.5 37.5t-35.5 83.5q0 65 51 112q37 34 113 67q60 25 119 50q-2 66 -8 82q-14 34 -66 34q-83 0 -139 -86l-36 84q52 28 75 37q52 19 111 19q97 0 176 -47q-18 -15 -18 -60q0 -320 -1 -320q7 -63 28 -82zM286 205v88
h-8q-3 0 -30 -16q-133 -72 -133 -156q0 -26 21 -43t48 -17q53 0 80 48q22 38 22 96zM94 635q25 -26 66 -62q39 -22 115 -32l43 -6q-28 20 -63 50q-38 46 -34 50h-127z" />
    <glyph glyph-name="acircumflex" unicode="&#xe2;" horiz-adv-x="476" 
d="M409 -1h-122v72q-37 -46 -73 -64.5t-93 -18.5q-46 0 -81.5 37.5t-35.5 83.5q0 65 51 112q37 34 113 67q60 25 119 50q-2 66 -8 82q-14 34 -66 34q-83 0 -139 -86l-36 84q52 28 75 37q52 19 111 19q97 0 176 -47q-20 -17 -20 -58q0 -322 1 -322q7 -63 28 -82zM286 205v88
h-8q-3 0 -30 -16q-133 -72 -133 -156q0 -26 21 -43t48 -17q53 0 80 48q22 38 22 96zM348 547q-10 -3 -21 -3q-56 0 -110 53q-70 -58 -127 -58l42 41q11 13 31 52h109q5 -14 14 -28q22 -34 62 -57z" />
    <glyph glyph-name="adieresis" unicode="&#xe4;" horiz-adv-x="476" 
d="M409 -1h-122v72q-37 -46 -73 -64.5t-93 -18.5q-46 0 -81.5 37.5t-35.5 83.5q0 65 51 112q37 34 113 67q60 25 119 50q-2 66 -8 82q-14 34 -66 34q-83 0 -139 -86l-36 84q52 28 75 37q52 19 111 19q97 0 176 -47q-20 -17 -20 -58q0 -322 1 -322q7 -63 28 -82zM286 205v88
h-8q-3 0 -30 -16q-133 -72 -133 -156q0 -26 21 -43t48 -17q53 0 80 48q22 38 22 96zM255 592q0 18 13.5 31t32.5 13t32.5 -13t13.5 -31q0 -19 -13.5 -32t-32.5 -13t-32.5 13t-13.5 32zM105 592q0 18 13.5 31t32.5 13t32.5 -13t13.5 -31q0 -19 -13.5 -32t-32.5 -13t-32.5 13
t-13.5 32z" />
    <glyph glyph-name="atilde" unicode="&#xe3;" horiz-adv-x="476" 
d="M409 -1h-122v72q-37 -46 -73 -64.5t-93 -18.5q-46 0 -81.5 37.5t-35.5 83.5q0 65 51 112q37 34 113 67q60 25 119 50q-2 66 -8 82q-14 34 -66 34q-83 0 -139 -86l-36 84q52 28 75 37q52 19 111 19q97 0 176 -47q-20 -17 -20 -58q0 -322 1 -322q7 -63 28 -82zM286 205v88
h-8q-3 0 -30 -16q-133 -72 -133 -156q0 -26 21 -43t48 -17q53 0 80 48q22 38 22 96zM82 546l-6 9q43 73 89 73q21 0 60.5 -21t54.5 -21q40 0 77 33l6 -10q-53 -74 -84 -74q-20 0 -60.5 21t-55.5 21q-36 0 -81 -31z" />
    <glyph glyph-name="aring" unicode="&#xe5;" horiz-adv-x="476" 
d="M409 -1h-122v72q-37 -46 -73 -64.5t-93 -18.5q-46 0 -81.5 37.5t-35.5 83.5q0 65 51 112q37 34 113 67q60 25 119 50q-2 66 -8 82q-14 34 -66 34q-83 0 -139 -86l-36 84q52 28 75 37q52 19 111 19q97 0 176 -47q-20 -17 -20 -58q0 -322 1 -322q7 -63 28 -82zM286 205v88
h-8q-3 0 -30 -16q-133 -72 -133 -156q0 -26 21 -43t48 -17q53 0 80 48q22 38 22 96zM221 684q29 0 49.5 -20.5t20.5 -49.5t-20.5 -49t-49.5 -20t-49.5 20t-20.5 49t20.5 49.5t49.5 20.5zM221 654q-17 0 -28.5 -11.5t-11.5 -28.5q0 -16 11.5 -27.5t28.5 -11.5q16 0 28 11.5
t12 27.5q0 17 -12 28.5t-28 11.5z" />
    <glyph glyph-name="ccedilla" unicode="&#xe7;" horiz-adv-x="458" 
d="M416 137q0 -68 -58 -106q-29 -20 -115 -47v-17q59 -15 59 -53q0 -23 -23.5 -37t-46.5 -14q-21 0 -40 10q-24 12 -25 34q28 -12 45 -12q8 0 19 8t10 17q0 24 -40 31v35q-93 14 -145 80.5t-52 175.5q0 119 74 196t191 77q70 0 141 -30v-10l-34 -83q-60 59 -118 59
q-67 0 -107 -58q-35 -51 -35 -121q0 -79 36 -128q41 -54 118 -54q71 0 146 62v-15z" />
    <glyph glyph-name="eacute" unicode="&#xe9;" horiz-adv-x="436" 
d="M393 145q-29 -152 -183 -152q-98 0 -158 90q-52 79 -49 176q6 248 203 251q74 1 126.5 -54.5t50.5 -130.5l-13 1q-77 2 -148 -28q-91 -38 -91 -105q0 -47 33.5 -76.5t79.5 -26.5q75 4 149 55zM269 397q0 22 -14 42q-17 24 -42 24q-47 0 -76 -52q-23 -42 -20 -83l3 -55
q16 34 86 73q63 36 63 51zM316 635q-25 -26 -66 -62q-39 -22 -115 -32l-43 -6q28 20 64 50q38 46 33 50h127z" />
    <glyph glyph-name="egrave" unicode="&#xe8;" horiz-adv-x="436" 
d="M393 145q-29 -152 -183 -152q-98 0 -158 90q-52 79 -49 176q6 248 203 251q74 1 126.5 -54.5t50.5 -130.5l-13 1q-77 2 -148 -28q-91 -38 -91 -105q0 -47 33.5 -76.5t79.5 -26.5q75 4 149 55zM269 397q0 22 -14 42q-17 24 -42 24q-47 0 -76 -52q-23 -42 -20 -83l3 -55
q16 34 86 73q63 36 63 51zM74 635q25 -26 66 -62q39 -22 115 -32l43 -6q-28 20 -63 50q-38 46 -34 50h-127z" />
    <glyph glyph-name="ecircumflex" unicode="&#xea;" horiz-adv-x="436" 
d="M393 145q-29 -152 -183 -152q-98 0 -158 90q-52 79 -49 176q6 248 203 251q74 1 126.5 -54.5t50.5 -130.5l-13 1q-77 2 -148 -28q-91 -38 -91 -105q0 -47 33.5 -76.5t79.5 -26.5q75 4 149 55zM269 397q0 22 -14 42q-17 24 -42 24q-47 0 -76 -52q-23 -42 -20 -83l3 -55
q16 34 86 73q63 36 63 51zM328 547q-10 -3 -21 -3q-56 0 -110 53q-70 -58 -127 -58l42 41q11 13 31 52h109q5 -14 14 -28q22 -34 62 -57z" />
    <glyph glyph-name="edieresis" unicode="&#xeb;" horiz-adv-x="436" 
d="M393 145q-29 -152 -183 -152q-98 0 -158 90q-52 79 -49 176q6 248 203 251q74 1 126.5 -54.5t50.5 -130.5l-13 1q-77 2 -148 -28q-91 -38 -91 -105q0 -47 33.5 -76.5t79.5 -26.5q75 4 149 55zM269 397q0 22 -14 42q-17 24 -42 24q-47 0 -76 -52q-23 -42 -20 -83l3 -55
q16 34 86 73q63 36 63 51zM235 592q0 18 13.5 31t32.5 13t32.5 -13t13.5 -31q0 -19 -13.5 -32t-32.5 -13t-32.5 13t-13.5 32zM85 592q0 18 13.5 31t32.5 13t32.5 -13t13.5 -31q0 -19 -13.5 -32t-32.5 -13t-32.5 13t-13.5 32z" />
    <glyph glyph-name="iacute" unicode="&#xed;" horiz-adv-x="252" 
d="M190 1l-183 1q23 43 27 60q2 7 3 40l1 267q-2 9 -2 35q0 50 -35 68q46 38 102 38q14 0 52 -21q-1 -43 1 -131l-1 -256q3 -37 10 -54q13 -24 25 -47zM196 635q-25 -26 -66 -62q-39 -22 -115 -32l-43 -6q28 20 64 50q38 46 33 50h127z" />
    <glyph glyph-name="igrave" unicode="&#xec;" horiz-adv-x="252" 
d="M190 1l-183 1q23 43 27 60q2 7 3 40l1 268q0 2 1 11v15q0 56 -38 76q46 38 102 38q14 0 52 -21q-2 -45 -1 -134l1 -253q3 -37 10 -54q13 -24 25 -47zM-26 635q25 -26 66 -62q39 -22 115 -32l43 -6q-28 20 -63 50q-38 46 -34 50h-127z" />
    <glyph glyph-name="icircumflex" unicode="&#xee;" horiz-adv-x="252" 
d="M190 1l-183 1q23 43 27 60q2 7 3 40l1 267q-2 9 -2 35q0 50 -35 68q46 38 102 38q14 0 52 -21q-1 -43 1 -131l-1 -256q3 -37 10 -54q13 -24 25 -47zM218 547q-10 -3 -21 -3q-56 0 -110 53q-70 -58 -127 -58l42 41q11 13 31 52h109q5 -14 14 -28q22 -34 62 -57z" />
    <glyph glyph-name="idieresis" unicode="&#xef;" horiz-adv-x="252" 
d="M190 1l-183 1q23 43 27 60q2 7 3 40l1 267q-2 9 -2 35q0 50 -35 68q46 38 102 38q14 0 52 -21q-1 -43 1 -131l-1 -256q3 -37 10 -54q13 -24 25 -47zM115 592q0 18 13.5 31t32.5 13t32.5 -13t13.5 -31q0 -19 -13.5 -32t-32.5 -13t-32.5 13t-13.5 32zM-35 592q0 18 13.5 31
t32.5 13t32.5 -13t13.5 -31q0 -19 -13.5 -32t-32.5 -13t-32.5 13t-13.5 32z" />
    <glyph glyph-name="ntilde" unicode="&#xf1;" horiz-adv-x="554" 
d="M493 0h-190q23 38 28 49q9 24 9 61v201q0 43 -7 61q-11 30 -46 32q-62 4 -100 -61q-29 -50 -26 -75v-174q5 -19 11 -36q14 -39 29 -57q-94 1 -193 -1q13 9 25 43q12 31 12 49l1 304q0 58 -38 79q39 32 93 32q27 0 53 -11l8 -3l-1 -130l24 50q23 41 58 64q49 32 124 32
q63 0 110 -36q-22 -25 -22 -67v-292q0 -70 38 -114zM112 546l-6 9q43 73 89 73q21 0 60.5 -21t54.5 -21q40 0 77 33l6 -10q-53 -74 -84 -74q-20 0 -60.5 21t-55.5 21q-36 0 -81 -31z" />
    <glyph glyph-name="oacute" unicode="&#xf3;" horiz-adv-x="491" 
d="M428 254q0 -109 -47 -179q-55 -82 -159 -82q-109 0 -163 81q-46 69 -46 183q0 106 50 177q57 79 159 79q105 0 159 -80q47 -69 47 -179zM376 250q0 69 -27 118q-33 59 -92 61q-127 4 -127 -170q0 -74 24 -122q31 -62 96 -59q61 4 96 57q30 47 30 115zM336 635
q-25 -26 -66 -62q-39 -22 -115 -32l-43 -6q28 20 64 50q38 46 33 50h127z" />
    <glyph glyph-name="ograve" unicode="&#xf2;" horiz-adv-x="491" 
d="M428 254q0 -109 -47 -179q-55 -82 -159 -82q-109 0 -163 81q-46 69 -46 183q0 106 50 177q57 79 159 79q105 0 159 -80q47 -69 47 -179zM376 250q0 69 -27 118q-33 59 -92 61q-127 4 -127 -170q0 -74 24 -122q31 -62 96 -59q61 4 96 57q30 47 30 115zM94 635
q25 -26 66 -62q39 -22 115 -32l43 -6q-28 20 -63 50q-38 46 -34 50h-127z" />
    <glyph glyph-name="ocircumflex" unicode="&#xf4;" horiz-adv-x="491" 
d="M428 254q0 -109 -47 -179q-55 -82 -159 -82q-109 0 -163 81q-46 69 -46 183q0 106 50 177q57 79 159 79q105 0 159 -80q47 -69 47 -179zM376 250q0 69 -27 118q-33 59 -92 61q-127 4 -127 -170q0 -74 24 -122q31 -62 96 -59q61 4 96 57q30 47 30 115zM348 547
q-10 -3 -21 -3q-56 0 -110 53q-70 -58 -127 -58l42 41q11 13 31 52h109q5 -14 14 -28q22 -34 62 -57z" />
    <glyph glyph-name="odieresis" unicode="&#xf6;" horiz-adv-x="491" 
d="M428 254q0 -109 -47 -179q-55 -82 -159 -82q-109 0 -163 81q-46 69 -46 183q0 106 50 177q57 79 159 79q105 0 159 -80q47 -69 47 -179zM376 250q0 69 -27 118q-33 59 -92 61q-127 4 -127 -170q0 -74 24 -122q31 -62 96 -59q61 4 96 57q30 47 30 115zM249 592
q0 18 13.5 31t32.5 13t32.5 -13t13.5 -31q0 -19 -13.5 -32t-32.5 -13t-32.5 13t-13.5 32zM99 592q0 18 13.5 31t32.5 13t32.5 -13t13.5 -31q0 -19 -13.5 -32t-32.5 -13t-32.5 13t-13.5 32z" />
    <glyph glyph-name="otilde" unicode="&#xf5;" horiz-adv-x="491" 
d="M428 254q0 -109 -47 -179q-55 -82 -159 -82q-109 0 -163 81q-46 69 -46 183q0 106 50 177q57 79 159 79q105 0 159 -80q47 -69 47 -179zM376 250q0 69 -27 118q-33 59 -92 61q-127 4 -127 -170q0 -74 24 -122q31 -62 96 -59q61 4 96 57q30 47 30 115zM82 546l-6 9
q43 73 89 73q21 0 60.5 -21t54.5 -21q40 0 77 33l6 -10q-53 -74 -84 -74q-20 0 -60.5 21t-55.5 21q-36 0 -81 -31z" />
    <glyph glyph-name="uacute" unicode="&#xfa;" horiz-adv-x="551" 
d="M493 -1l-154 1v123q-42 -62 -75 -90q-46 -39 -102 -44q-20 -1 -37 -1q-62 0 -113 26q7 11 17 32q7 17 11 41v315q-6 40 -7 42q-7 23 -32 39q41 24 92 24q44 0 63 -16q0 13 0 -92v-256q0 -21 14 -39t32 -18q26 0 63.5 21t57.5 77q16 43 16 84l-1 101q0 45 -6 66
q-10 34 -40 51q0 7 25 15q29 9 65 8q18 0 42.5 -7t29.5 -11l1 -399q5 -46 22 -73zM356 635q-25 -26 -66 -62q-39 -22 -115 -32l-43 -6q28 20 64 50q38 46 33 50h127z" />
    <glyph glyph-name="ugrave" unicode="&#xf9;" horiz-adv-x="551" 
d="M493 -1l-154 1v123q-42 -62 -75 -90q-46 -39 -102 -44q-20 -1 -37 -1q-62 0 -113 26q7 11 17 32q7 17 11 41v315q-6 40 -7 42q-7 23 -32 39q41 24 92 24q44 0 63 -16q0 13 0 -92v-256q0 -21 14 -39t32 -18q26 0 63.5 21t57.5 77q16 43 16 84l-1 101q0 45 -6 66
q-10 34 -40 51q0 7 25 15q29 9 65 8q18 0 42.5 -7t29.5 -11l1 -399q5 -46 22 -73zM94 635q25 -26 66 -62q39 -22 115 -32l43 -6q-28 20 -63 50q-38 46 -34 50h-127z" />
    <glyph glyph-name="ucircumflex" unicode="&#xfb;" horiz-adv-x="551" 
d="M493 -1l-154 1v123q-42 -62 -75 -90q-46 -39 -102 -44q-20 -1 -37 -1q-62 0 -113 26q7 11 17 32q7 17 11 41v315q-6 40 -7 42q-7 23 -32 39q41 24 92 24q40 0 61 -17q2 -42 2 -91v-256q0 -21 14 -39t32 -18q26 0 63.5 21t57.5 77q16 43 16 84l-1 101q0 45 -6 66
q-10 34 -40 51q0 7 25 15q29 9 65 8q18 0 42.5 -7t29.5 -11l1 -399q5 -46 22 -73zM358 547q-10 -3 -21 -3q-56 0 -110 53q-70 -58 -127 -58l42 41q11 13 31 52h109q5 -14 14 -28q22 -34 62 -57z" />
    <glyph glyph-name="udieresis" unicode="&#xfc;" horiz-adv-x="551" 
d="M493 -1l-154 1v123q-42 -62 -75 -90q-46 -39 -102 -44q-20 -1 -37 -1q-62 0 -113 26q7 11 17 32q7 17 11 41v315q-6 40 -7 42q-7 23 -32 39q41 24 92 24q44 0 63 -16q0 13 0 -92v-256q0 -21 14 -39t32 -18q26 0 63.5 21t57.5 77q16 43 16 84l-1 101q0 45 -6 66
q-10 34 -40 51q0 7 25 15q29 9 65 8q18 0 43 -7t30 -11v-399q5 -46 22 -73zM261 592q0 18 13.5 31t32.5 13t32.5 -13t13.5 -31q0 -19 -13.5 -32t-32.5 -13t-32.5 13t-13.5 32zM111 592q0 18 13.5 31t32.5 13t32.5 -13t13.5 -31q0 -19 -13.5 -32t-32.5 -13t-32.5 13t-13.5 32
z" />
    <glyph glyph-name="dagger" unicode="&#x2020;" horiz-adv-x="397" 
d="M182 455q-27 0 -63 -17t-53 -17q-45 0 -45 47q0 52 46 52q17 0 52.5 -19.5t62.5 -20.5q-1 35 -23 78t-22 58q0 23 16.5 36.5t40.5 13.5q56 0 56 -50q0 -15 -22 -57t-23 -79q28 1 63.5 20.5t51.5 19.5q47 0 47 -53q0 -52 -47 -52q-16 0 -51.5 19.5t-63.5 20.5
q6 -91 58 -146q-35 -67 -46 -154q-6 -44 -9 -161h-29q-3 116 -9 161q-11 88 -45 154q51 55 57 146z" />
    <glyph glyph-name="degree" unicode="&#xb0;" horiz-adv-x="321" 
d="M151 440q-48 0 -83 33.5t-35 81.5t35 81t83 33q49 0 84 -33t35 -81t-35 -81.5t-84 -33.5zM151 620q-28 0 -48 -19.5t-20 -45.5q0 -27 20 -46t48 -19q29 0 49 19t20 46q0 26 -20 45.5t-49 19.5z" />
    <glyph glyph-name="cent" unicode="&#xa2;" horiz-adv-x="456" 
d="M224 563q-50 -11 -79 -63q-25 -46 -25 -105q0 -64 25 -111q27 -51 79 -67v346zM412 263q0 -58 -46 -99q-41 -36 -102 -46v-63h-40v59q-100 1 -159 69q-57 65 -57 167q0 108 55 185q60 84 161 92v48h40v-47q90 -5 144 -36q-7 -11 -35 -85q-48 55 -109 59v-355l7 -1
q39 0 75 23l64 42z" />
    <glyph glyph-name="sterling" unicode="&#xa3;" horiz-adv-x="508" 
d="M279 269h-84q4 -18 4 -34q0 -65 -87 -148q164 -4 236 21q60 20 115 87l5 -5q-25 -76 -30 -189h-436v80q83 43 91 155q-2 17 -9 33l-93 1v63h54q-36 59 -32 143q4 86 79 148q72 59 157 59q76 0 131 -39q62 -43 62 -117q0 -48 -33 -80t-82 -32q-35 0 -61 18.5t-26 53.5
l6 19q20 -19 41 -19q22 0 39 16.5t17 38.5q0 35 -26.5 56t-62.5 21q-49 0 -85.5 -41t-36.5 -90q0 -12 2 -24q12 -46 42 -131l103 -1v-63z" />
    <glyph glyph-name="section" unicode="&#xa7;" horiz-adv-x="20" 
 />
    <glyph glyph-name="bullet" unicode="&#x2022;" horiz-adv-x="357" 
d="M86 326q0 53 33.5 90.5t81.5 37.5t81.5 -37.5t33.5 -90.5q0 -54 -33.5 -91.5t-81.5 -37.5t-81.5 37.5t-33.5 91.5z" />
    <glyph glyph-name="paragraph" unicode="&#xb6;" horiz-adv-x="625" 
d="M139 3v23q40 0 52 4q27 8 27 37v291q-76 0 -123 38q-52 42 -52 119q0 79 47 120t125 41h350v-25q-33 0 -46 -5q-22 -9 -22 -36v-517q0 -46 12 -56.5t57 -10.5v-23h-427zM396 631h-76v-584h76v584z" />
    <glyph glyph-name="germandbls" unicode="&#xdf;" horiz-adv-x="556" 
d="M56 476q-58 -17 -58 -51v-10q49 12 50 12q7 0 11 -2q-1 -67 0 -173q1 -142 1 -173q0 -42 -40 -78l190 -1q-32 30 -32 81l-1 507q0 16 18 32t35 16q50 0 70 -18.5t20 -70.5q0 -73 -60 -73q-9 0 -19 1l7 -21q77 -10 107 -78q23 -49 23 -140q0 -93 -50 -196
q-46 -99 -117 -166l12 -1q102 0 195 140q85 128 85 236q0 86 -32.5 133t-111.5 80q44 15 60 31q21 20 21 61q0 84 -68 119q-54 28 -142 22q-119 -8 -152 -64q-21 -35 -22 -155z" />
    <glyph glyph-name="registered" unicode="&#xae;" horiz-adv-x="396" 
d="M187 678q67 0 114 -50.5t47 -118.5t-48.5 -117t-116.5 -49t-117 48.5t-49 117.5q0 70 50 119.5t120 49.5zM181 651q-56 0 -95.5 -42t-39.5 -99q0 -58 40 -99.5t97 -41.5q58 0 97.5 41.5t39.5 99.5q0 59 -40 100t-99 41zM164 503v-46q0 -17 3 -18.5t24 -1.5v-16h-99v16
q20 0 22.5 2t2.5 18v103q0 17 -2.5 18.5t-22.5 1.5v17h104q68 0 68 -46q0 -34 -43 -43q24 -10 29 -38.5t11 -28.5q9 0 9 22h16l1 -6q1 -40 -43 -40q-33 0 -39 29q-4 24 -7 47q-5 10 -34 10zM164 520h11q40 0 40 30t-31 30h-5q-15 0 -15 -14v-46z" />
    <glyph glyph-name="copyright" unicode="&#xa9;" horiz-adv-x="761" 
d="M377 672q138 0 236.5 -100.5t98.5 -238.5q0 -140 -99.5 -239.5t-239.5 -99.5t-239.5 99.5t-99.5 238.5q0 143 100 241.5t243 98.5zM369 624q-116 0 -196.5 -87t-80.5 -204q0 -119 81.5 -205t199.5 -86t199.5 86t81.5 205q0 121 -82 206t-203 85zM519 518l5 -147l-33 -4
q-31 119 -109 119q-87 0 -87 -150q0 -153 94 -153q85 0 105 106l38 -9q-28 -136 -160 -136q-82 0 -132.5 51t-50.5 133q0 83 53 137.5t136 54.5q47 0 89 -25l26 23h26z" />
    <glyph glyph-name="trademark" unicode="&#x2122;" horiz-adv-x="672" 
d="M244 674l6 -97h-23q-14 74 -54 74q-3 0 -5 -3.5t-2 -7.5v-166q0 -15 2 -25q3 -4 36 -4v-23h-143v23q29 0 31 1q8 3 8 25v169q0 5 -2 8t-6 3q-40 0 -54 -74h-22l5 97h223zM394 674l48 -135l46 135h116l1 -26q-13 5 -18 5q-13 0 -16 -8q-2 -4 -2 -20v-154q0 -12 2 -22
q4 -4 33 -4v-23h-136v23q26 0 30.5 2.5t4.5 23.5v159l-72 -208h-16l-72 206v-134q0 -27 5 -35q7 -14 31 -14v-23h-102v23h4q33 0 33 40v143q0 19 -7 22q-2 1 -27 1v23h114z" />
    <glyph glyph-name="acute" unicode="&#xb4;" horiz-adv-x="257" 
d="M248 648q-25 -26 -66 -62q-39 -22 -115 -32l-43 -5q27 19 63 49q38 46 34 50h127z" />
    <glyph glyph-name="dieresis" unicode="&#xa8;" horiz-adv-x="240" 
d="M145 599q0 18 13.5 31.5t32.5 13.5t32.5 -13.5t13.5 -31.5q0 -19 -13.5 -32t-32.5 -13t-32.5 13t-13.5 32zM5 599q0 18 13.5 31.5t32.5 13.5t32.5 -13.5t13.5 -31.5q0 -19 -13.5 -32t-32.5 -13t-32.5 13t-13.5 32z" />
    <glyph glyph-name="AE" unicode="&#xc6;" horiz-adv-x="944" 
d="M910 184l-31 -184h-506q58 48 59 133l1 79q-17 19 -97 19t-115 -21q-19 -37 -39 -73q-26 -53 -26 -72q0 -26 19 -43q24 -22 25 -22h-201l16 11q48 30 86 99q11 20 56 122q1 2 97 199q80 164 80 178q0 18 -16.5 29t-33.5 11l-9 5q43 29 80 29q21 0 63 -7.5t63 -7.5
q23 0 74.5 9.5t74.5 9.5q26 0 77 -7t76 -7q10 0 29 7.5t28 7.5q6 0 10 -1l46 -158q-153 110 -255 110q-27 0 -48 -13q-25 -14 -25 -41v-255q51 78 73 102q51 55 106 55q12 0 25 -2q-30 -53 -29 -113q-110 -3 -149 -76q-29 -52 -29 -170q0 -42 10.5 -54.5t50.5 -12.5
q97 0 150 34q13 9 61 61q30 32 73 30zM428 278l-1 348q-181 -348 -180 -351q45 13 92 13q42 0 89 -10z" />
    <glyph glyph-name="Oslash" unicode="&#xd8;" horiz-adv-x="626" 
d="M430 517l-249 -355q43 -69 134 -69q170 0 170 229q0 112 -55 195zM162 204l241 345q-39 37 -89 39q-169 4 -169 -258q0 -75 17 -126zM29 15q9 12 52 74q-73 90 -73 245q0 146 69 242q78 108 219 105q96 -1 160 -57l44 63l33 -23l-48 -69q83 -100 83 -285q0 -130 -60 -218
q-70 -103 -199 -101q-124 1 -200 68q-20 -30 -51 -72z" />
    <glyph glyph-name="plusminus" unicode="&#xb1;" 
 />
    <glyph glyph-name="yen" unicode="&#xa5;" horiz-adv-x="621" 
d="M478 155h-112v-43q0 -31 14.5 -63t39.5 -48l-242 -1q52 33 52 115v40h-105v54h105v46h-105v54h105v11q0 47 -91 184.5t-133 151.5q24 29 135 29q83 0 127 -19q-38 -23 -38 -43q0 -16 48 -107q41 -76 62 -111l4 2q35 56 69 112q52 86 52 107q0 16 -35 40q43 17 87 17
q59 0 89 -18q-38 -9 -67 -45q-18 -20 -94 -147q-79 -130 -79 -142v-22h112q2 -54 0 -54h-112v-46h112q2 -54 0 -54z" />
    <glyph glyph-name="mu" unicode="&#xb5;" horiz-adv-x="549" 
d="M1 234l61 55v266q0 37 -13 57q-5 7 -41 43q43 28 114 28q70 0 137 -22q-36 -17 -49 -42q-10 -20 -10 -62v-142l101 90q2 -52 0 -52q-17 -14 -101 -89l1 -239q0 -38 8 -52q12 -20 48 -20h77q30 0 86 50q64 58 115 74q-27 -72 -39 -177l-488 1q30 30 41 52q13 26 13 65v121
q-59 -53 -61 -54v49z" />
    <glyph glyph-name="mu" unicode="&#x3bc;" horiz-adv-x="549" 
d="M1 234l61 55v266q0 37 -13 57q-5 7 -41 43q43 28 114 28q70 0 137 -22q-36 -17 -49 -42q-10 -20 -10 -62v-142l101 90q2 -52 0 -52q-17 -14 -101 -89l1 -239q0 -38 8 -52q12 -20 48 -20h77q30 0 86 50q64 58 115 74q-27 -72 -39 -177l-488 1q30 30 41 52q13 26 13 65v121
q-59 -53 -61 -54v49z" />
    <glyph glyph-name="ordfeminine" unicode="&#xaa;" horiz-adv-x="599" 
d="M550 652q-46 -25 -182 -269q-81 -152 -161 -304l-6 -22l49 1h127q23 1 49 34q45 56 46 57q31 30 66 25l2 -6q-22 -59 -33 -167h-494l-3 5l328 609q-7 9 -48 9q-130 0 -232 -66q1 19 11 52.5t11 50.5q101 29 202 29q161 0 268 -38zM417 811q4 6 15 6q23 0 3 -19
q-30 -26 -51 -42q-52 -40 -79 -41q-20 3 -76 41q-27 20 -55 40q-7 5 -7 10q0 9 14 9q5 0 11 -2l113 -46q40 13 112 44z" />
    <glyph glyph-name="ordmasculine" unicode="&#xba;" horiz-adv-x="487" 
d="M430 477q-67 -72 -134 -205q-107 -214 -112 -222h72q38 0 67 26q21 24 44.5 48t52.5 22l12 -1q-18 -63 -18 -145h-405q35 22 60 70q77 148 200 377q-12 10 -35 10q-114 0 -170 -72q-11 22 -40 90q79 36 207 36q83 0 199 -34zM320 642q4 5 15 5q23 0 3 -18
q-30 -27 -51 -43q-52 -39 -79 -41q-20 3 -76 42q-27 20 -55 39q-7 5 -7 11q0 9 14 9q5 0 12 -3l112 -46q40 13 112 45z" />
    <glyph glyph-name="ae" unicode="&#xe6;" horiz-adv-x="729" 
d="M689 141q0 -69 -64 -111q-56 -37 -127 -37q-100 0 -161 74q-60 -76 -166 -76q-72 0 -118 34q-52 38 -52 107q0 68 75 122q48 36 140 71q79 31 81 37q0 94 -97 94q-80 0 -128 -68q-17 28 -36 72q24 26 68 43t83 17q48 0 91 -16q50 -20 71 -56q66 72 150 72q78 0 130 -56
t49 -136l-21 1q-75 3 -148 -30q-88 -41 -88 -109q0 -46 35 -71q31 -22 80 -22q41 0 81 20l72 38v-14zM554 412q0 20 -16 36t-37 16q-86 0 -86 -139v-38q20 23 71 54t59.5 42.5t8.5 28.5zM295 182v119q-170 -70 -170 -172q0 -31 21 -50.5t52 -19.5q42 0 71 42q26 37 26 81z
" />
    <glyph glyph-name="oslash" unicode="&#xf8;" horiz-adv-x="488" 
d="M336 388l-181 -254q32 -59 95 -56q61 4 96 57q30 47 30 115q0 87 -40 138zM139 180l167 235q-22 13 -49 14q-127 4 -127 -170q0 -43 9 -79zM22 16l39 55q-48 69 -48 186q0 106 50 177q57 79 159 79q75 0 125 -42l30 42l32 -23l-34 -48q53 -70 53 -188q0 -109 -47 -179
q-55 -82 -159 -82q-82 0 -134 47l-34 -47z" />
    <glyph glyph-name="questiondown" unicode="&#xbf;" horiz-adv-x="488" 
d="M11 -1q0 60 41 101q21 21 84 56q53 30 68 54q19 32 19 74q0 9 -1 28.5t-1 29.5q0 12 1 22l62 -1v-144q0 -39 -36 -77q-33 -33 -67 -66q-35 -41 -35 -87t28 -76.5t73 -30.5q36 0 62 17q31 19 31 54q0 19 -15 34.5t-35 17.5q28 40 69 40q38 0 68 -25t30 -63q0 -67 -75 -109
q-62 -35 -134 -35q-88 0 -158 47q-79 54 -79 139zM197 500h113v-94q-25 -15 -55 -15q-43 0 -58 20v89z" />
    <glyph glyph-name="exclamdown" unicode="&#xa1;" horiz-adv-x="237" 
d="M40 402v98h124q0 -18 1 -47v-48q0 -11 -27 -17q-18 -5 -36 -5q-41 0 -62 19zM0 -137q37 48 59 167q19 105 19 214q0 65 -7 103q23 1 66 0l-1 -49q-1 -116 13 -231q22 -173 72 -203q-45 -51 -114 -51q-26 0 -62 13q-45 16 -45 37z" />
    <glyph glyph-name="logicalnot" unicode="&#xac;" horiz-adv-x="6" 
 />
    <glyph glyph-name="florin" unicode="&#x192;" horiz-adv-x="6" 
 />
    <glyph glyph-name="guillemotleft" unicode="&#xab;" horiz-adv-x="334" 
d="M179 435q-79 -95 -79 -181q0 -88 75 -191h-31q-5 2 -12 7q-43 32 -73 80q-32 52 -32 101q0 103 119 185q11 0 33 -1zM299 435q-79 -95 -79 -181q0 -88 75 -191h-31q-5 2 -12 7q-43 32 -73 80q-32 52 -32 101q0 103 119 185q11 0 33 -1z" />
    <glyph glyph-name="guillemotright" unicode="&#xbb;" horiz-adv-x="334" 
d="M155 435q78 -95 78 -181q0 -88 -74 -191h30q5 2 12 7q44 32 73 80q33 52 33 101q0 103 -119 185q-11 0 -33 -1zM35 435q78 -95 78 -181q0 -88 -74 -191h30q5 2 12 7q44 32 73 80q33 52 33 101q0 103 -119 185q-11 0 -33 -1z" />
    <glyph glyph-name="ellipsis" unicode="&#x2026;" horiz-adv-x="743" 
d="M199 100q-2 0 -1 -99h-122l1 97q0 20 61 20q41 0 61 -18zM669 100q-2 0 -1 -99h-122v95q0 22 62 22q41 0 61 -18zM439 100q-2 0 1 -99h-124v95q0 22 62 22q41 0 61 -18z" />
    <glyph glyph-name="nonbreakingspace" unicode="&#xa0;" horiz-adv-x="165" 
 />
    <glyph glyph-name="Agrave" unicode="&#xc0;" horiz-adv-x="690" 
d="M465 0q32 33 32 68t-27 127q-21 73 -43 128q-100 -42 -148 -87q-69 -65 -69 -163q0 -23 35 -73h-247q20 21 57 73q19 34 95.5 276t76.5 269q0 8 -7.5 22t-13.5 19q17 27 123 27q28 0 62 -5q51 -7 51 -20q-22 -12 -22 -45q0 -35 19 -98l30 -98q63 23 123 18
q-38 -46 -32 -101q-44 8 -66 -2q0 -1 81 -262q12 -38 57 -73h-167zM410 395l-56 191q-90 -273 -90 -301q34 42 146 110zM201 798q24 -26 66 -62q39 -22 114 -32l44 -6q-28 20 -64 50q-38 46 -33 50h-127z" />
    <glyph glyph-name="Atilde" unicode="&#xc3;" horiz-adv-x="690" 
d="M465 0q32 33 32 68t-27 127q-21 73 -43 128q-100 -42 -148 -87q-69 -65 -69 -163q0 -23 35 -73h-247q20 21 57 73q19 34 95.5 276t76.5 269q0 8 -7.5 22t-13.5 19q17 27 123 27q28 0 62 -5q51 -7 51 -20q-22 -12 -22 -45q0 -35 19 -98l30 -98q63 23 123 18
q-38 -46 -32 -101q-44 8 -66 -2q0 -1 81 -262q12 -38 57 -73h-167zM410 395l-56 191q-90 -273 -90 -301q34 42 146 110zM192 726l-6 9q43 73 89 73q21 0 60.5 -21t54.5 -21q40 0 77 33l6 -10q-53 -74 -84 -74q-20 0 -60.5 21t-55.5 21q-36 0 -81 -31z" />
    <glyph glyph-name="Otilde" unicode="&#xd5;" horiz-adv-x="625" 
d="M568 310q0 -130 -60 -218q-70 -103 -199 -101q-148 1 -226 96q-75 90 -75 247q0 146 69 242q78 108 219 105q140 -2 211 -117q61 -98 61 -254zM485 322q0 89 -39 167q-49 96 -132 99q-169 4 -169 -258q0 -237 170 -237t170 229zM142 726l-6 9q43 73 89 73q21 0 60.5 -21
t54.5 -21q40 0 77 33l6 -10q-53 -74 -84 -74q-20 0 -60.5 21t-55.5 21q-36 0 -81 -31z" />
    <glyph glyph-name="OE" unicode="&#x152;" horiz-adv-x="983" 
d="M945 173l-28 -173h-658q-128 0 -198 111q-59 95 -55 227q5 159 80 253q84 103 238 99q57 -2 84 -4q50 -5 90 -16q14 -4 31 -4q25 0 77.5 13.5t77.5 13.5q26 0 73 -8.5t73 -8.5q31 0 57 16l4 -3q13 -38 25 -77q20 -62 20 -70q-78 50 -131 72q-71 28 -144 28
q-21 0 -36.5 -13.5t-15.5 -37.5v-252q26 52 76 96q59 52 111 52q8 0 15 -1q-26 -62 -25 -110q-92 -10 -134.5 -55t-42.5 -139q0 -82 0 -62q1 -41 10 -59q26 -9 91 -9q57 0 104 32q15 11 65 58q33 32 56 32q5 0 10 -1zM467 201l-1 210q-1 102 -25 147q-34 65 -127 65
q-165 0 -161 -203q0 -76 1 -153q6 -96 38 -145q41 -64 130 -64q68 0 107 37.5t38 105.5z" />
    <glyph glyph-name="oe" unicode="&#x153;" horiz-adv-x="806" 
d="M757 148q0 -60 -60.5 -108.5t-121.5 -48.5q-118 0 -175 79q-65 -78 -175 -78q-109 0 -164 77q-47 67 -47 182q0 117 58 189q62 79 176 79q107 0 166 -78q64 74 160 74q81 0 133 -61q49 -58 49 -140h-19q-68 2 -154 -35q-96 -42 -98 -95q-1 -47 42 -72q35 -20 86 -20
q35 0 75 19q35 18 69 37zM634 365q0 90 -64 90q-65 0 -84 -62q-8 -26 -10 -114q27 26 72 43q40 14 79 28q7 3 7 15zM379 240q0 208 -117 208q-65 0 -98 -38.5t-33 -104.5q0 -111 15 -151q27 -74 117 -74q62 0 92 52q24 41 24 108z" />
    <glyph glyph-name="endash" unicode="&#x2013;" horiz-adv-x="492" 
d="M420 277l1 -95h-419v95h418z" />
    <glyph glyph-name="emdash" unicode="&#x2014;" horiz-adv-x="952" 
d="M880 277l1 -95h-879v95h878z" />
    <glyph glyph-name="quotedblleft" unicode="&#x201c;" horiz-adv-x="344" 
d="M85 686q5 0 30 -28q-10 -8 -29 -24q-19 -23 -19 -56q0 -10 3 -19q0 -1 -1 -1q-2 1 -3 2l1 -1l53 -1v-87q-5 -6 -23.5 -12t-27.5 -6q-34 0 -54 18v25q-2 93 11 129q4 13 26 37t33 24zM235 686q5 0 30 -28q-10 -8 -29 -24q-16 -20 -16 -75l-1 -1q-2 1 -3 2l1 -1l53 -1v-87
q-5 -6 -23.5 -12t-27.5 -6q-34 0 -54 18v25q-2 93 11 129q4 13 26 37t33 24z" />
    <glyph glyph-name="quotedblright" unicode="&#x201d;" horiz-adv-x="341" 
d="M199 453q-4 0 -30 28q11 7 28.5 25.5t17.5 73.5q0 1 1 1l3 -3l-1 2l-53 1v87q4 6 23 12t28 6q33 0 54 -18v-25q2 -93 -11 -129q-5 -13 -27 -37t-33 -24zM49 453q-4 0 -30 28q11 7 28.5 25.5t17.5 73.5q0 1 1 1l3 -3l-1 2l-53 1v87q4 6 23 12t28 6q33 0 54 -18v-25
q2 -93 -11 -129q-5 -13 -27 -37t-33 -24z" />
    <glyph glyph-name="quoteleft" unicode="&#x2018;" horiz-adv-x="205" 
d="M105 686q5 0 30 -28q-10 -8 -29 -24q-16 -20 -16 -75l-1 -1q-2 1 -3 2l1 -1l53 -1v-87q-5 -6 -23.5 -12t-27.5 -6q-34 0 -54 18v25q-2 93 11 129q4 13 26 37t33 24z" />
    <glyph glyph-name="quoteright" unicode="&#x2019;" horiz-adv-x="211" 
d="M69 453q-4 0 -30 28q11 7 28.5 25.5t17.5 73.5q0 1 1 1l3 -3l-1 2l-53 1v87q4 6 23 12t28 6q33 0 54 -18v-25q2 -93 -11 -129q-5 -13 -27 -37t-33 -24z" />
    <glyph glyph-name="divide" unicode="&#xf7;" horiz-adv-x="576" 
d="M304 136q33 0 57.5 -25t24.5 -58q0 -35 -24.5 -59.5t-58.5 -24.5q-36 0 -60 24.5t-24 59.5t25 59t60 24zM304 536q33 0 57.5 -25t24.5 -58q0 -35 -24 -59.5t-59 -24.5q-36 0 -60 24.5t-24 59.5t25 59t60 24zM51 205v95h504v-95h-504z" />
    <glyph glyph-name="ydieresis" unicode="&#xff;" horiz-adv-x="525" 
d="M478 495q-19 -14 -52 -65q-136 -378 -134 -381.5t-22 -64.5q-28 -73 -59 -119q-44 -63 -86 -63q-37 0 -56 6q-37 13 -54 54q-1 6 -1 12q0 29 26.5 58t57.5 29q4 -8 3 -13q-2 -8 -2 -12q0 -20 13 -34.5t34 -14.5q27 0 46 27q16 24 16 54q0 35 -85 251q-82 207 -97 228
q-3 4 -35 24q40 38 127 38q22 0 78 -16q-33 -23 -33 -45q0 -26 113 -308q11 7 55.5 144.5t44.5 162.5q0 31 -29 42q35 20 65 20q31 0 66 -14zM265 599q0 18 13.5 31.5t32.5 13.5t32.5 -13.5t13.5 -31.5q0 -19 -13.5 -32t-32.5 -13t-32.5 13t-13.5 32zM125 599
q0 18 13.5 31.5t32.5 13.5t32.5 -13.5t13.5 -31.5q0 -19 -13.5 -32t-32.5 -13t-32.5 13t-13.5 32z" />
    <glyph glyph-name="Ydieresis" unicode="&#x178;" horiz-adv-x="649" 
d="M366 331v-219q0 -31 14.5 -63t39.5 -48l-242 -1q52 33 52 115v205q0 47 -91 184.5t-133 151.5q24 29 135 29q83 0 127 -19q-38 -23 -38 -43q0 -16 48 -107q41 -76 62 -111l4 2q35 56 69 112q52 86 52 107q0 16 -35 40q43 17 87 17q59 0 89 -18q-38 -9 -67 -45
q-18 -20 -94 -147q-79 -130 -79 -142zM335 759q0 18 13.5 31.5t32.5 13.5t32.5 -13.5t13.5 -31.5q0 -19 -13.5 -32t-32.5 -13t-32.5 13t-13.5 32zM195 759q0 18 13.5 31.5t32.5 13.5t32.5 -13.5t13.5 -31.5q0 -19 -13.5 -32t-32.5 -13t-32.5 13t-13.5 32z" />
    <glyph glyph-name="currency" unicode="&#xa4;" 
 />
    <glyph glyph-name="guilsinglleft" unicode="&#x2039;" horiz-adv-x="254" 
d="M199 435q-79 -95 -79 -181q0 -88 75 -191h-31q-5 2 -12 7q-43 32 -73 80q-32 52 -32 101q0 103 119 185q11 0 33 -1z" />
    <glyph glyph-name="guilsinglright" unicode="&#x203a;" horiz-adv-x="254" 
d="M50 435q79 -95 79 -181q0 -88 -75 -191h31q5 2 12 7q43 32 73 80q32 52 32 101q0 103 -118 185q-12 0 -34 -1z" />
    <glyph glyph-name="daggerdbl" unicode="&#x2021;" horiz-adv-x="418" 
d="M191 456q-27 0 -60.5 -18.5t-49.5 -18.5q-43 0 -43 49t43 49q17 0 50 -18.5t61 -18.5q-1 32 -22 73t-21 55q0 22 15.5 34.5t37.5 12.5q54 0 54 -47q0 -14 -21 -54t-22 -74q27 0 60.5 18.5t49.5 18.5q44 0 44 -49t-44 -49q-15 0 -49 18.5t-61 19.5q4 -79 54 -132
q-50 -52 -54 -131q27 1 61 19t49 18q44 0 44 -49t-44 -49q-15 0 -49 18t-61 20q1 -34 22 -74t21 -55q0 -46 -54 -46q-53 0 -53 46q0 15 21 54t22 75q-27 -2 -61 -20t-50 -18q-43 0 -43 49t43 49q16 0 49.5 -18.5t60.5 -18.5q-3 79 -54 131q51 53 54 131z" />
    <glyph glyph-name="periodcentered" unicode="&#xb7;" horiz-adv-x="203" 
d="M161 283q0 -80 -61 -80q-59 0 -59 82q0 33 14 56q16 28 46 28q60 0 60 -86z" />
    <glyph glyph-name="periodcentered" unicode="&#x2219;" horiz-adv-x="203" 
d="M161 283q0 -80 -61 -80q-59 0 -59 82q0 33 14 56q16 28 46 28q60 0 60 -86z" />
    <glyph glyph-name="quotesinglbase" unicode="&#x201a;" horiz-adv-x="229" 
d="M77 -140q-4 0 -33 31q12 8 31.5 28.5t19.5 81.5q0 1 1 1t3 -3l-1 2l-59 1v97q5 7 26 13.5t31 6.5q37 0 59 -20l1 -28q2 -98 -17 -149q-5 -14 -26 -37q-24 -25 -36 -25z" />
    <glyph glyph-name="quotedblbase" unicode="&#x201e;" horiz-adv-x="359" 
d="M207 -140q-4 0 -33 31q12 8 31.5 28.5t19.5 81.5q0 1 1 1t3 -3l-1 2l-59 1v97q5 7 26 13.5t31 6.5q37 0 59 -20l1 -28q2 -98 -17 -149q-5 -14 -26 -37q-24 -25 -36 -25zM57 -140q-4 0 -33 31q12 8 31.5 28.5t19.5 81.5q0 1 1 1t3 -3l-1 2l-59 1v97q5 7 26 13.5t31 6.5
q37 0 59 -20l1 -28q2 -98 -17 -149q-5 -14 -26 -37q-24 -25 -36 -25z" />
    <glyph glyph-name="Acircumflex" unicode="&#xc2;" horiz-adv-x="690" 
d="M465 0q32 33 32 68t-27 127q-21 73 -43 128q-100 -42 -148 -87q-69 -65 -69 -163q0 -23 35 -73h-247q20 21 57 73q19 34 95.5 276t76.5 269q0 8 -7.5 22t-13.5 19q17 27 123 27q28 0 62 -5q51 -7 51 -20q-22 -12 -22 -45q0 -35 19 -98l30 -98q63 23 123 18
q-38 -46 -32 -101q-44 8 -66 -2q0 -1 81 -262q12 -38 57 -73h-167zM410 395l-56 191q-90 -273 -90 -301q34 42 146 110zM458 717q-10 -3 -21 -3q-56 0 -110 53q-70 -58 -127 -58l42 41q11 13 31 52h109q5 -14 14 -28q22 -34 62 -57z" />
    <glyph glyph-name="Ecircumflex" unicode="&#xca;" horiz-adv-x="587" 
d="M554 174q-18 -35 -23 -87q-9 -79 -10 -87h-503l1 6q47 44 47 113v507q-15 3 -27 7q-29 10 -40 24q18 16 28 28q39 -21 71 -18q46 6 92 11q56 7 91 7q27 0 80 -8t80 -8q29 0 55 15l46 -155q-141 106 -259 106q-40 0 -54 -7q-23 -11 -23 -48q0 -258 3 -258q28 58 76 102
q57 54 113 54q8 0 16 -1q-24 -52 -27 -111q-108 -3 -147 -67q-30 -49 -30 -163q0 -55 2 -62q6 -20 28 -22q-6 1 65 1t117 30q22 14 59 56q27 31 50 32zM398 717q-10 -3 -21 -3q-56 0 -110 53q-70 -58 -127 -58l42 41q11 13 31 52h109q5 -14 14 -28q22 -34 62 -57z" />
    <glyph glyph-name="Aacute" unicode="&#xc1;" horiz-adv-x="690" 
d="M465 0q32 33 32 68t-27 127q-21 73 -43 128q-100 -42 -148 -87q-69 -65 -69 -163q0 -23 35 -73h-247q20 21 57 73q19 34 95.5 276t76.5 269q0 8 -7.5 22t-13.5 19q17 27 123 27q28 0 62 -5q51 -7 51 -20q-22 -12 -22 -45q0 -35 19 -98l30 -98q63 23 123 18
q-38 -46 -32 -101q-44 8 -66 -2q0 -1 81 -262q12 -38 57 -73h-167zM410 395l-56 191q-90 -273 -90 -301q34 42 146 110zM436 805q-25 -26 -66 -62q-39 -22 -115 -32l-43 -6q28 20 64 50q38 46 33 50h127z" />
    <glyph glyph-name="Edieresis" unicode="&#xcb;" horiz-adv-x="587" 
d="M554 174q-18 -35 -23 -87q-9 -79 -10 -87h-503l1 6q47 44 47 113v507q-15 3 -27 7q-29 10 -40 24q18 16 28 28q39 -21 71 -18q46 6 92 11q56 7 91 7q27 0 80 -8t80 -8q29 0 55 15l46 -155q-141 106 -259 106q-40 0 -54 -7q-23 -11 -23 -48q0 -258 3 -258q28 58 76 102
q57 54 113 54q8 0 16 -1q-24 -52 -27 -111q-108 -3 -147 -67q-30 -49 -30 -163q0 -55 2 -62q6 -20 28 -22q-6 1 65 1t117 30q22 14 59 56q27 31 50 32zM305 762q0 18 13.5 31t32.5 13t32.5 -13t13.5 -31q0 -19 -13.5 -32t-32.5 -13t-32.5 13t-13.5 32zM155 762q0 18 13.5 31
t32.5 13t32.5 -13t13.5 -31q0 -19 -13.5 -32t-32.5 -13t-32.5 13t-13.5 32z" />
    <glyph glyph-name="Egrave" unicode="&#xc8;" horiz-adv-x="587" 
d="M554 174q-18 -35 -23 -87q-9 -79 -10 -87h-503l1 6q47 44 47 113v507q-15 3 -27 7q-29 10 -40 24q18 16 28 28q39 -21 71 -18q46 6 92 11q56 7 91 7q27 0 80 -8t80 -8q29 0 55 15l46 -155q-141 106 -259 106q-40 0 -54 -7q-23 -11 -23 -48q0 -258 3 -258q28 58 76 102
q57 54 113 54q8 0 16 -1q-24 -52 -27 -111q-108 -3 -147 -67q-30 -49 -30 -163q0 -55 2 -62q6 -20 28 -22q-6 1 65 1t117 30q22 14 59 56q27 31 50 32zM161 798q24 -26 66 -62q39 -22 114 -32l44 -6q-28 20 -64 50q-38 46 -33 50h-127z" />
    <glyph glyph-name="Iacute" unicode="&#xcd;" horiz-adv-x="286" 
d="M237 659q-30 -44 -35 -56q-1 -4 -14 -68v-389q0 -58 7 -80q8 -28 40 -67l-233 1q24 10 39 65q13 45 11 81l1 387q0 81 -46 128q16 8 52.5 16t63.5 8q74 0 114 -26zM246 805q-25 -26 -66 -62q-39 -22 -115 -32l-43 -6q28 20 64 50q38 46 33 50h127z" />
    <glyph glyph-name="Icircumflex" unicode="&#xce;" horiz-adv-x="286" 
d="M237 659q-30 -44 -35 -56q-1 -4 -14 -68v-389q0 -58 7 -80q8 -28 40 -67l-233 1q24 10 39 65q13 45 11 81l1 387q0 81 -46 128q16 8 52.5 16t63.5 8q74 0 114 -26zM248 717q-10 -3 -21 -3q-56 0 -110 53q-70 -58 -127 -58l42 41q11 13 31 52h109q5 -14 14 -28
q22 -34 62 -57z" />
    <glyph glyph-name="Idieresis" unicode="&#xcf;" horiz-adv-x="286" 
d="M237 659q-30 -44 -35 -56q-1 -4 -14 -68v-389q0 -58 7 -80q8 -28 40 -67l-233 1q24 10 39 65q13 45 11 81l1 387q0 81 -46 128q16 8 52.5 16t63.5 8q74 0 114 -26zM155 762q0 18 13.5 31t32.5 13t32.5 -13t13.5 -31q0 -19 -13.5 -32t-32.5 -13t-32.5 13t-13.5 32zM5 762
q0 18 13.5 31t32.5 13t32.5 -13t13.5 -31q0 -19 -13.5 -32t-32.5 -13t-32.5 13t-13.5 32z" />
    <glyph glyph-name="Igrave" unicode="&#xcc;" horiz-adv-x="286" 
d="M237 659q-30 -44 -35 -56q-1 -4 -14 -68v-389q0 -58 7 -80q8 -28 40 -67l-233 1q24 10 39 65q13 45 11 81l1 387q0 81 -46 128q16 8 52.5 16t63.5 8q74 0 114 -26zM1 798q24 -26 66 -62q39 -22 114 -32l44 -6q-28 20 -64 50q-38 46 -33 50h-127z" />
    <glyph glyph-name="Oacute" unicode="&#xd3;" horiz-adv-x="625" 
d="M568 310q0 -130 -60 -218q-70 -103 -199 -101q-148 1 -226 96q-75 90 -75 247q0 146 69 242q78 108 219 105q140 -2 211 -117q61 -98 61 -254zM485 322q0 89 -39 167q-49 96 -132 99q-169 4 -169 -258q0 -237 170 -237t170 229zM405 799q-24 -28 -65 -66
q-39 -22 -115 -32l-43 -6q28 20 64 50q38 46 36 54h123z" />
    <glyph glyph-name="Ocircumflex" unicode="&#xd4;" horiz-adv-x="625" 
d="M568 310q0 -130 -60 -218q-70 -103 -199 -101q-148 1 -226 96q-75 90 -75 247q0 146 69 242q78 108 219 105q140 -2 211 -117q61 -98 61 -254zM485 322q0 89 -39 167q-49 96 -132 99q-169 4 -169 -258q0 -237 170 -237t170 229zM408 717q-10 -3 -21 -3q-56 0 -110 53
q-70 -58 -127 -58l42 41q11 13 31 52h109q5 -14 14 -28q22 -34 62 -57z" />
    <glyph glyph-name="Ograve" unicode="&#xd2;" horiz-adv-x="625" 
d="M568 310q0 -130 -60 -218q-70 -103 -199 -101q-148 1 -226 96q-75 90 -75 247q0 146 69 242q78 108 219 105q140 -2 211 -117q61 -98 61 -254zM485 322q0 89 -39 167q-49 96 -132 99q-169 4 -169 -258q0 -237 170 -237t170 229zM161 798q24 -26 66 -62q39 -22 114 -32
l44 -6q-28 20 -64 50q-38 46 -33 50h-127z" />
    <glyph glyph-name="Uacute" unicode="&#xda;" horiz-adv-x="593" 
d="M569 664q-34 -21 -47 -118q0 4 0 -379q0 -95 -72 -142q-62 -39 -160 -39q-129 0 -183 44q-60 48 -60 169v361q0 42 -23 71q-12 14 -23 28q64 24 123 24q46 0 112 -25q-36 -26 -44.5 -45t-8.5 -68v-371q0 -61 36 -87q33 -23 102 -23q134 2 134 122v365q0 84 -48 112
q40 22 88 22q46 0 74 -21zM416 805q-25 -26 -66 -62q-39 -22 -115 -32l-43 -6q28 20 64 50q38 46 33 50h127z" />
    <glyph glyph-name="Ucircumflex" unicode="&#xdb;" horiz-adv-x="593" 
d="M569 664q-34 -21 -47 -118q0 4 0 -379q0 -95 -72 -142q-62 -39 -160 -39q-129 0 -183 44q-60 48 -60 169v361q0 42 -23 71q-12 14 -23 28q64 24 123 24q46 0 112 -25q-36 -26 -44.5 -45t-8.5 -68v-371q0 -61 36 -87q33 -23 102 -23q134 2 134 122v365q0 84 -48 112
q40 22 88 22q46 0 74 -21zM418 717q-10 -3 -21 -3q-56 0 -110 53q-70 -58 -127 -58l42 41q11 13 31 52h109q5 -14 14 -28q22 -34 62 -57z" />
    <glyph glyph-name="Ugrave" unicode="&#xd9;" horiz-adv-x="593" 
d="M569 664q-34 -21 -47 -118q0 4 0 -379q0 -95 -72 -142q-62 -39 -160 -39q-129 0 -183 44q-60 48 -60 169v361q0 42 -23 71q-12 14 -23 28q64 24 123 24q46 0 112 -25q-36 -26 -44.5 -45t-8.5 -68v-371q0 -61 36 -87q33 -23 102 -23q134 2 134 122v365q0 84 -48 112
q40 22 88 22q46 0 74 -21zM161 798q24 -26 66 -62q39 -22 114 -32l44 -6q-28 20 -64 50q-38 46 -33 50h-127z" />
    <glyph glyph-name="circumflex" unicode="&#x2c6;" horiz-adv-x="284" 
d="M261 546q-9 -2 -19 -2q-48 0 -105 57q-70 -59 -127 -59l42 41q11 14 30 53h110q3 -16 11 -31q19 -35 58 -59z" />
    <glyph glyph-name="tilde" unicode="&#x2dc;" horiz-adv-x="333" 
d="M32 551l-6 9q43 73 89 73q21 0 60.5 -21t54.5 -21q40 0 77 33l6 -10q-53 -74 -84 -74q-20 0 -60.5 21t-55.5 21q-36 0 -81 -31z" />
    <glyph glyph-name="macron" unicode="&#xaf;" horiz-adv-x="301" 
d="M10 607h273v-54h-273v54z" />
    <glyph glyph-name="macron" unicode="&#x2c9;" horiz-adv-x="301" 
d="M10 607h273v-54h-273v54z" />
    <glyph glyph-name="cedilla" unicode="&#xb8;" horiz-adv-x="169" 
d="M84 -45q30 11 47 11q20 0 35 -14t15 -34q0 -58 -58 -75q-42 -13 -46 -13q-10 0 -11 13l2 3q64 19 64 59q0 28 -26 28q-6 0 -18.5 -4.5t-18.5 -4.5q-17 0 -22 18l20 59h34z" />
    <glyph glyph-name="Scaron" unicode="&#x160;" 
 />
    <glyph glyph-name="scaron" unicode="&#x161;" 
 />
    <glyph glyph-name="brokenbar" unicode="&#xa6;" 
 />
    <glyph glyph-name="Eth" unicode="&#xd0;" 
 />
    <glyph glyph-name="eth" unicode="&#xf0;" 
 />
    <glyph glyph-name="Yacute" unicode="&#xdd;" 
 />
    <glyph glyph-name="yacute" unicode="&#xfd;" 
 />
    <glyph glyph-name="Thorn" unicode="&#xde;" 
 />
    <glyph glyph-name="thorn" unicode="&#xfe;" 
 />
    <glyph glyph-name="minus" unicode="&#xad;" 
 />
    <glyph glyph-name="minus" unicode="&#x2212;" 
 />
    <glyph glyph-name="multiply" unicode="&#xd7;" 
 />
    <glyph glyph-name="onesuperior" unicode="&#xb9;" 
 />
    <glyph glyph-name="twosuperior" unicode="&#xb2;" 
 />
    <glyph glyph-name="threesuperior" unicode="&#xb3;" 
 />
    <glyph glyph-name="onehalf" unicode="&#xbd;" 
 />
    <glyph glyph-name="onequarter" unicode="&#xbc;" 
 />
    <glyph glyph-name="threequarters" unicode="&#xbe;" 
 />
    <glyph glyph-name=".null" 
 />
    <glyph glyph-name="Lslash" unicode="&#x141;" 
 />
    <glyph glyph-name="lslash" unicode="&#x142;" 
 />
    <glyph glyph-name="HT" 
 />
    <glyph glyph-name="LF" 
 />
    <glyph glyph-name="nonmarkingreturn" 
 />
    <glyph glyph-name="Zcaron" unicode="&#x17d;" 
 />
    <glyph glyph-name="zcaron" unicode="&#x17e;" 
 />
    <glyph glyph-name="DLE" 
 />
    <glyph glyph-name="DC1" 
 />
    <glyph glyph-name="DC2" 
 />
    <glyph glyph-name="DC3" 
 />
    <glyph glyph-name="DC4" 
 />
    <glyph glyph-name="RS" 
 />
    <glyph glyph-name="US" 
 />
    <glyph glyph-name="notequal" unicode="&#x2260;" 
 />
    <glyph glyph-name="infinity" unicode="&#x221e;" 
 />
    <glyph glyph-name="lessequal" unicode="&#x2264;" 
 />
    <glyph glyph-name="greaterequal" unicode="&#x2265;" 
 />
    <glyph glyph-name="partialdiff" unicode="&#x2202;" horiz-adv-x="256" 
d="M4 246l54 45v299q0 45 -42 71q7 11 39 21.5t52 10.5q12 0 37 -5q31 -8 31 -17v-284l62 52v-46l-62 -52v-228q-1 -65 35 -112h-190q25 23 32 56l6 54v133l-54 -44v46z" />
    <glyph glyph-name="summation" unicode="&#x2211;" horiz-adv-x="547" 
d="M508 214q0 -102 -74 -165q-70 -59 -173 -59q-99 0 -169 43q-84 52 -84 145q0 62 39 101t101 39q20 0 39 -13q-19 -18 -39 -36q-15 -17 -15 -55q0 -48 38 -74q33 -22 83 -22q54 0 89.5 31.5t35.5 84.5q0 67 -81 115q-76 37 -151 75q-82 47 -82 115q0 77 75 118
q60 34 144 34q25 0 70 -13.5t64 -13.5q6 0 40 11l-58 -135q-61 81 -128 81q-38 0 -59.5 -23t-21.5 -60q0 -51 82 -89q136 -62 153 -75q82 -59 82 -160zM387 811q4 6 15 6q23 0 3 -19q-30 -26 -51 -42q-52 -40 -79 -41q-20 3 -76 41q-27 20 -55 40q-7 5 -7 10q0 9 14 9
q5 0 11 -2l113 -46q40 13 112 44z" />
    <glyph glyph-name="product" unicode="&#x220f;" horiz-adv-x="469" 
d="M420 165q0 -83 -65 -132q-60 -45 -144 -45q-77 0 -135 34q-68 41 -68 112q0 43 27.5 70.5t63.5 27.5q19 0 36 -8q-31 -38 -31 -57q0 -73 105 -73q44 0 76 25t32 67q0 56 -68 80q-63 18 -126 37q-68 27 -68 89q0 56 47 90q42 29 100 29q78 0 130 -24q7 -1 53 7
q-20 -37 -51 -104q-47 71 -111 71q-28 0 -50 -17t-22 -45q0 -45 70 -70q127 -45 129 -47q70 -39 70 -117zM347 631q4 6 15 6q23 0 3 -19q-30 -26 -51 -42q-52 -40 -79 -41q-20 3 -76 41q-27 20 -55 40q-7 5 -7 10q0 9 14 9q5 0 11 -2l113 -46q40 13 112 44z" />
    <glyph glyph-name="pi" unicode="&#x3c0;" horiz-adv-x="615" 
d="M366 331v-219q0 -31 14.5 -63t39.5 -48l-242 -1q52 33 52 115v205q0 47 -91 184.5t-133 151.5q24 29 135 29q83 0 127 -19q-38 -23 -38 -43q0 -16 48 -107q41 -76 62 -111l4 2q35 56 69 112q52 86 52 107q0 16 -35 40q43 17 87 17q59 0 89 -18q-38 -9 -67 -45
q-18 -20 -94 -147q-79 -130 -79 -142zM438 808q-25 -26 -66 -62q-39 -22 -115 -32l-43 -5q27 19 63 49q38 46 34 50h127z" />
    <glyph glyph-name="integral" unicode="&#x222b;" horiz-adv-x="525" 
d="M478 495q-19 -14 -52 -65q-136 -378 -134 -381.5t-22 -64.5q-28 -73 -59 -119q-44 -63 -86 -63q-37 0 -56 6q-37 13 -54 54q-1 6 -1 12q0 29 26.5 58t57.5 29q4 -8 3 -13q-2 -8 -2 -12q0 -20 13 -34.5t34 -14.5q27 0 46 27q16 24 16 54q0 35 -85 251q-82 207 -97 228
q-3 4 -35 24q40 38 127 38q22 0 78 -16q-33 -23 -33 -45q0 -26 113 -308q11 7 55.5 144.5t44.5 162.5q0 31 -29 42q35 20 65 20q31 0 66 -14zM378 648q-25 -26 -66 -62q-39 -22 -115 -32l-43 -5q27 19 63 49q38 46 34 50h127z" />
    <glyph glyph-name="Omega" unicode="&#x3a9;" horiz-adv-x="640" 
d="M13 450h34q27 110 103 172q81 67 203 61q42 -2 95 -25q5 -3 11 -3q11 0 39 27l-1 2l3 -1l-2 -1l93 -167q-129 116 -236 116q-152 0 -180 -181h175q16 0 16 -16v-22q0 -16 -16 -16h-180v-11q0 -23 2 -45h178q16 0 16 -16v-22q0 -16 -16 -16h-168q45 -170 215 -170
q114 0 202 72q-5 -87 -81 -145q-72 -55 -169 -55q-134 0 -218 86q-78 79 -93 212h-25q-16 0 -16 16v22q0 16 16 16h22v3q0 27 3 53h-25q-16 0 -16 16v22q0 16 16 16z" />
    <glyph glyph-name="Omega" unicode="&#x2126;" horiz-adv-x="640" 
d="M13 450h34q27 110 103 172q81 67 203 61q42 -2 95 -25q5 -3 11 -3q11 0 39 27l-1 2l3 -1l-2 -1l93 -167q-129 116 -236 116q-152 0 -180 -181h175q16 0 16 -16v-22q0 -16 -16 -16h-180v-11q0 -23 2 -45h178q16 0 16 -16v-22q0 -16 -16 -16h-168q45 -170 215 -170
q114 0 202 72q-5 -87 -81 -145q-72 -55 -169 -55q-134 0 -218 86q-78 79 -93 212h-25q-16 0 -16 16v22q0 16 16 16h22v3q0 27 3 53h-25q-16 0 -16 16v22q0 16 16 16z" />
    <glyph glyph-name="radical" unicode="&#x221a;" horiz-adv-x="6" 
 />
    <glyph glyph-name="approxequal" unicode="&#x2248;" horiz-adv-x="6" 
 />
    <glyph glyph-name="approxequal" unicode="&#x22f2;" horiz-adv-x="6" 
 />
    <glyph glyph-name="Delta" unicode="&#x394;" horiz-adv-x="6" 
 />
    <glyph glyph-name="Delta" unicode="&#x2206;" horiz-adv-x="6" 
 />
    <glyph glyph-name="lozenge" unicode="&#x25ca;" horiz-adv-x="388" 
d="M240 161l110 213l-106 208l-111 -207z" />
    <glyph glyph-name="fraction" unicode="&#x2044;" 
 />
    <glyph glyph-name="fi" unicode="&#xf001;" 
 />
    <glyph glyph-name="fl" unicode="&#xf002;" 
 />
    <glyph glyph-name="apple" unicode="&#xf000;" 
 />
    <glyph glyph-name="dotlessi" unicode="&#x131;" horiz-adv-x="301" 
d="M240 1l-186 1q24 45 28 60q4 11 5 40l1 267q-2 9 -2 35q0 50 -35 68q46 38 102 38q14 0 52 -21q-2 -42 -1 -128l1 -259q3 -37 10 -54q13 -24 25 -47z" />
    <glyph glyph-name="breve" unicode="&#x2d8;" horiz-adv-x="263" 
d="M212 662h29v-12q2 -49 -31 -82t-83 -33q-51 0 -84 33t-31 83v11h29q6 -77 86 -77q79 0 85 77z" />
    <glyph glyph-name="dotaccent" unicode="&#x2d9;" horiz-adv-x="128" 
d="M68 639q20 0 34.5 -14.5t14.5 -35.5t-14.5 -35.5t-35.5 -14.5q-20 0 -35 14.5t-15 35.5t15 35.5t36 14.5z" />
    <glyph glyph-name="ring" unicode="&#x2da;" horiz-adv-x="171" 
d="M93 666q29 0 49.5 -20.5t20.5 -49.5t-20.5 -49.5t-49.5 -20.5t-49 20.5t-20 49.5t20 49.5t49 20.5zM93 636q-16 0 -27.5 -11.5t-11.5 -28.5q0 -16 11.5 -28t27.5 -12q17 0 28.5 12t11.5 28q0 17 -11.5 28.5t-28.5 11.5z" />
    <glyph glyph-name="hungarumlaut" unicode="&#x2dd;" horiz-adv-x="269" 
d="M25 529l35 98q21 59 53 59q27 0 27 -28q0 -18 -18 -40l-80 -98zM153 529l35 98q21 59 53 59q27 0 27 -29q0 -17 -18 -39l-81 -98z" />
    <glyph glyph-name="ogonek" unicode="&#x2db;" horiz-adv-x="296" 
d="M120 0h88q-90 -1 -90 -67q0 -17 11.5 -30.5t28.5 -13.5q31 0 72 37l16 -22q-56 -56 -108 -56q-30 0 -50 19.5t-20 49.5q0 48 52 83z" />
    <glyph glyph-name="caron" unicode="&#x2c7;" horiz-adv-x="320" 
d="M277 631q4 6 15 6q23 0 3 -19q-30 -26 -51 -42q-52 -40 -79 -41q-20 3 -76 41q-27 20 -55 40q-7 5 -7 10q0 9 14 9q5 0 11 -2l113 -46q40 13 112 44z" />
    </font>
</defs>
</svg>
