<?xml version="1.0" standalone="no"?>
<!DOCTYPE svg PUBLIC "-//W3C//DTD SVG 1.1//EN" "http://www.w3.org/Graphics/SVG/1.1/DTD/svg11.dtd" >
<svg>
<metadata>
Created by FontForge 20120731 at Wed Apr 17 19:08:28 2019
 By www-data
Digitized by Dan X. Solo. Software (c)1998 by Dover Publications, Inc., New York.
</metadata>
<defs>
<font id="HarringtonNormal" horiz-adv-x="20" >
  <font-face 
    font-family="Harrington"
    font-weight="400"
    font-stretch="normal"
    units-per-em="1000"
    panose-1="0 0 4 0 0 0 0 0 0 0"
    ascent="800"
    descent="-200"
    x-height="461"
    cap-height="660"
    bbox="-77 -213 1105 823"
    underline-thickness="20"
    underline-position="-123"
    unicode-range="U+0020-F002"
  />
<missing-glyph horiz-adv-x="500" 
d="M63 0v800h375v-800h-375zM125 63h250v675h-250v-675z" />
    <glyph glyph-name=".notdef" horiz-adv-x="500" 
d="M63 0v800h375v-800h-375zM125 63h250v675h-250v-675z" />
    <glyph glyph-name="glyph1" horiz-adv-x="0" 
 />
    <glyph glyph-name="glyph2" horiz-adv-x="193" 
 />
    <glyph glyph-name="space" unicode=" " horiz-adv-x="193" 
 />
    <glyph glyph-name="exclam" unicode="!" horiz-adv-x="230" 
d="M207 556q0 -60 -31.5 -174t-31.5 -173q0 -9 2 -24q3 -18 3 -24q-5 -4 -12 -4q-29 0 -29 109q0 34 4 101t4 100q0 9 2 27t2 27q0 66 -52 110q92 29 118 51q21 -63 21 -126zM203 56q0 -25 -17 -44.5t-42 -19.5t-43.5 19t-18.5 44q0 24 18 43t42 19q26 0 43.5 -17.5
t17.5 -43.5z" />
    <glyph glyph-name="quotedbl" unicode="&#x22;" horiz-adv-x="283" 
d="M81 419h-23l-18 142q-7 55 -7 57q0 48 37 48q34 0 34 -56q0 -36 -9 -97zM204 419h-24l-18 142q-6 47 -6 55q0 50 37 50q33 0 33 -56q0 -21 -22 -191z" />
    <glyph glyph-name="numbersign" unicode="#" horiz-adv-x="404" 
d="M294 413l-19 -165h52v-47h-58l-27 -201h-49l27 201h-77l-27 -201h-50l27 201h-61v47h67l19 165h-60v46h65l27 200h50l-27 -200h77l27 200h49l-26 -200h53v-46h-59zM168 413l-20 -165h77l20 165h-77z" />
    <glyph glyph-name="dollar" unicode="$" horiz-adv-x="438" 
d="M417 172q0 -127 -126 -171q-22 -8 -69 -18v-57h-26q1 40 0 59q-33 3 -61 13q-53 18 -89 54q-40 42 -40 94q0 41 28.5 73.5t69.5 32.5q26 0 46.5 -16t20.5 -42q0 -31 -34 -43q0 2 1 6v5q0 17 -11 28t-28 11q-47 0 -47 -59q0 -64 66 -101q45 -25 78 -25l-1 321
q-83 55 -88 60q-47 40 -47 90q0 94 129 112v29h25q-1 -13 4 -29q40 1 86 -19q56 -24 56 -59q0 -25 -32 -41q-9 1 -32 5q7 16 7 31q0 36 -85 55v-175q92 -45 134 -85q65 -60 65 -139zM190 573q-79 -19 -79 -77q0 -46 80 -86v85q-1 75 -1 78zM367 157q0 81 -96 139
q-14 8 -50 26v-304q44 4 88 34q48 32 53 73q5 38 5 32z" />
    <glyph glyph-name="percent" unicode="%" horiz-adv-x="573" 
d="M462 578l-355 -582l-25 15l354 583zM421 -13q-54 0 -86 59q-27 50 -27 113q0 74 51 171q-1 -32 -5 -78q-3 -36 -3 -52q0 -65 18 -119q23 -69 63 -69q29 0 46 45q14 38 14 84q0 63 -18 124q-23 76 -60 76q-19 0 -19 -19q0 -9 7 -9q1 0 2.5 0.5t5.5 1.5h10v-26
q0 -10 -9.5 -17t-17.5 -7q-15 0 -25 13.5t-10 29.5q0 27 20 43q17 13 40 13q56 0 89 -63q28 -54 28 -121q0 -68 -25 -123q-32 -70 -89 -70zM121 217q-54 0 -86 59q-27 50 -27 113q0 74 51 171q-1 -32 -5 -78q-3 -36 -3 -52q0 -64 18 -119q23 -68 63 -68q29 0 46 45
q14 37 14 83q0 63 -18 126q-23 77 -59 77q-20 0 -20 -22q0 -9 7 -9q1 0 2.5 0.5t5.5 1.5h10v-26q0 -10 -9.5 -17t-17.5 -7q-15 0 -25 13.5t-10 29.5q0 27 20 43q17 13 40 13q56 0 89 -63q28 -54 28 -121q0 -68 -25 -123q-32 -70 -89 -70z" />
    <glyph glyph-name="ampersand" unicode="&#x26;" horiz-adv-x="640" 
d="M622 338q0 -15 -9 -28q-12 -17 -30 -17q-8 0 -28 19t-43 19q-10 0 -29 -12q-28 -17 -31 -19q24 -61 24 -83q0 -121 -127 -190v-54q0 -39 -17.5 -62t-46.5 -23q-15 0 -24 11t-8 19q2 12 17.5 22.5t39.5 9.5q11 -1 13.5 18.5t3.5 39.5l1 9q-41 -26 -119 -26q-82 0 -140 48
q-62 51 -62 135q0 55 39 110q25 34 74 77q39 35 39 40q0 -3 -32 55.5t-32 98.5q0 49 30 78t80 29q52 0 85 -41q29 -37 29 -85q0 -43 -22 -78q-14 -23 -67 -80q44 -65 75 -148q35 -91 41 -170h0.5h0.5q32 20 51 60q16 34 16 67q0 49 -20 85q-4 -1 -19 -5t-19 -4
q-25 0 -43.5 16t-18.5 39q0 16 19.5 27t38.5 11q49 0 84 -39q11 13 50 35q48 29 78 29q21 0 39.5 -11.5t18.5 -31.5zM268 548q0 30 -19 56q-21 30 -52 30q-28 0 -45 -27q-14 -21 -14 -45q0 -33 17.5 -72t40.5 -60q72 55 72 118zM385 295q-11 33 -49 30q-11 -11 -9 -19
q1 -5 11 -10.5t19 -5.5q3 0 13.5 2.5t14.5 2.5zM326 47q-8 74 -45 162q-39 92 -87 143q-118 -107 -118 -197q0 -53 57 -96q52 -39 101 -39q70 0 92 27z" />
    <glyph glyph-name="quotesingle" unicode="'" horiz-adv-x="161" 
d="M81 419h-23l-18 142q-7 55 -7 57q0 48 37 48q34 0 34 -56q0 -36 -9 -97z" />
    <glyph glyph-name="parenleft" unicode="(" horiz-adv-x="186" 
d="M192 -48h-26q-161 171 -161 373q0 210 158 381h26q-60 -95 -85 -177q-28 -88 -28 -195q0 -202 116 -382z" />
    <glyph glyph-name="parenright" unicode=")" horiz-adv-x="248" 
d="M8 -48h26q161 171 161 373q0 210 -158 381h-26q60 -95 85 -177q28 -88 28 -195q0 -202 -116 -382z" />
    <glyph glyph-name="asterisk" unicode="*" horiz-adv-x="297" 
d="M243 518q0 -21 -19 -21q-13 0 -42 25q-38 33 -43 36q0 -15 11.5 -44.5t11.5 -43.5q0 -24 -26 -24q-24 0 -24 24q0 14 11 43.5t11 44.5q-11 -5 -39 -37q-25 -27 -42 -27q-22 0 -22 24q0 18 41 29q30 8 59 16q-29 7 -58 13q-41 9 -41 28q0 28 25 30q12 1 39 -27
q33 -33 39 -37q-2 12 -12 44q-10 27 -10 43q0 25 26 25q22 0 22 -24q0 -16 -9 -44q-11 -32 -13 -44q6 4 41 37q28 27 37 27q10 0 16.5 -8.5t5.5 -19.5q-2 -14 -40 -26q-53 -15 -56 -17q30 -7 59 -15q41 -11 41 -30z" />
    <glyph glyph-name="plus" unicode="+" horiz-adv-x="435" 
d="M244 237v-152h-44v150h-152v45h151v152h44v-151h152v-44h-151z" />
    <glyph glyph-name="comma" unicode="," horiz-adv-x="238" 
d="M180 29q0 -46 -37 -87.5t-83 -41.5q-17 0 -31 14q47 13 62 23q25 18 25 57q0 34 -28 34q-18 0 -23 -18q-19 12 -19 42q0 26 16 46.5t41 20.5q77 0 77 -90z" />
    <glyph glyph-name="hyphen" unicode="-" horiz-adv-x="370" 
d="M299 234h-271v54h271v-54z" />
    <glyph glyph-name="hyphen" unicode="&#x2010;" horiz-adv-x="370" 
d="M299 234h-271v54h271v-54z" />
    <glyph glyph-name="period" unicode="." horiz-adv-x="226" 
d="M163 56q0 -25 -17 -44.5t-42 -19.5q-24 0 -43 19t-19 44q0 23 18.5 42.5t41.5 19.5q26 0 43.5 -17.5t17.5 -43.5z" />
    <glyph glyph-name="slash" unicode="/" horiz-adv-x="350" 
d="M97 -9h-40q0 23 103 336l126 378l45 -1z" />
    <glyph glyph-name="zero" unicode="0" horiz-adv-x="534" 
d="M476 310q0 -114 -47 -204q-58 -112 -161 -112q-99 0 -159 91q-52 79 -52 183q0 118 68 228q-1 -17 -7 -80q-5 -50 -5 -80q0 -106 37 -191q47 -112 138 -112q69 0 106 72q30 57 30 134q0 103 -39 205q-51 130 -136 130q-48 0 -48 -34q0 -28 28 -28q4 0 11 1.5t10 1.5v-31
q0 -10 -14.5 -18.5t-24.5 -8.5q-22 0 -39 18.5t-17 40.5q0 38 36 61q30 20 71 20q102 0 162 -96q52 -82 52 -191z" />
    <glyph glyph-name="one" unicode="1" horiz-adv-x="321" 
d="M234 568q-18 -86 -37 -172q-19 -100 -19 -174q0 -102 40 -198v-12q-19 -10 -69 -23q-27 59 -27 154q0 122 55 325q4 15 4 17t-2 8q-1 -1 -28 -20q-13 -10 -32 -10q-42 0 -40 49q20 -6 31 -6q30 0 60.5 36.5t32.5 36.5t31 -11z" />
    <glyph glyph-name="two" unicode="2" horiz-adv-x="477" 
d="M422 418q0 -51 -34 -100q-26 -37 -78 -81q-42 -35 -84 -69q-68 -59 -105 -117q14 0 35 6q30 9 36 10q72 14 170 14q40 0 60 -1l-30 -95q-91 33 -159 33q-42 0 -100 -11q-8 -1 -39 -11q-23 -7 -39 -7q-4 0 -4 8q0 2 22 40q31 55 86 115l98 102q66 72 81 108q12 30 12 64
q0 57 -36.5 95t-93.5 38q-43 0 -73 -22q-33 -24 -33 -66q0 -22 14 -40t36 -18q8 0 22 8t19 15q15 -17 15 -30q0 -22 -19 -40.5t-42 -18.5q-39 0 -63 31q-22 28 -22 68q0 63 55 105q51 38 116 38q77 0 127 -47.5t50 -123.5z" />
    <glyph glyph-name="three" unicode="3" horiz-adv-x="500" 
d="M442 216q0 -90 -85 -160q-80 -67 -172 -67h-28q-41 0 -82 30q-44 33 -44 72q0 24 16.5 42t40.5 18q19 0 37 -13t19 -31v-19q-22 10 -37 10q-10 0 -19.5 -9t-9.5 -19q0 -26 31 -42q26 -13 55 -13q78 0 141.5 57t63.5 134q0 56 -37 93.5t-94 37.5q-61 0 -109 -37
q-15 15 -15 18q1 1 2 3q16 17 114 99q81 68 100 100q-25 0 -73.5 4.5t-72.5 4.5q-15 0 -52 -11.5t-42 -21.5q-26 25 -42 58q11 12 62 24q46 11 68 11q27 0 81 -10t81 -10q9 0 27.5 3t28.5 3q9 0 23 -18l-189 -185q12 1 37 1q58 0 105 -25q30 -16 50 -56t20 -76z" />
    <glyph glyph-name="four" unicode="4" horiz-adv-x="534" 
d="M506 260q0 -33 -36 -62q-32 -26 -68 -33q-21 -4 -63 -4q-4 0 -9 -5q0 -52 17 -108q4 -9 10 -28v-11q-43 -13 -82 -20q-10 33 -11 85q-2 44 -3 87q-46 10 -100 10q-58 0 -133 -26q-1 121 102 254t221 164l68 18q-48 -122 -65 -179q-27 -96 -27 -189q23 -12 76 -12
q70 0 70 38q0 20 -33 29q16 29 34 29q12 0 22 -12.5t10 -24.5zM353 517q0 8 -4 8q-7 0 -30 -11q-51 -24 -107 -74t-86 -98q-54 -86 -54 -148h12q71 27 127 27q6 0 19.5 -2t20.5 -2q11 0 15 12q6 40 25 119q3 10 34 91q28 75 28 78z" />
    <glyph glyph-name="five" unicode="5" horiz-adv-x="492" 
d="M436 257q0 -116 -84.5 -199t-200.5 -83q-48 0 -87 22q-46 27 -46 71q0 21 15 37t36 16q18 0 31.5 -10.5t13.5 -27.5q0 -22 -10 -22q-3 0 -8.5 3.5t-9.5 3.5q-22 0 -22 -21q0 -45 88 -45q96 0 156.5 66t60.5 163q0 66 -33 109q-36 46 -101 46q-36 0 -66 -20
q-18 -12 -39 -36q-17 -20 -21 -20q7 0 -21 4v24q0 21 4 64.5t4 65.5q0 69 -8 110h21q27 0 83.5 -9.5t84.5 -9.5q71 0 71 31q0 10 -8 24q12 8 21 8q20 0 35.5 -13.5t15.5 -33.5q0 -34 -38 -52q-29 -14 -68 -14q-33 0 -94 11.5t-90 11.5v-155l4 -4q58 63 141 63
q75 0 122 -51.5t47 -127.5z" />
    <glyph glyph-name="six" unicode="6" horiz-adv-x="483" 
d="M435 193q0 -74 -42 -128.5t-113 -68.5q-26 -5 -25 -5q-6 0 -28 5q-95 22 -144 103q-44 71 -44 175q0 114 68 209q75 104 185 104q35 0 59 -15q28 -19 28 -52q0 -19 -13.5 -33t-33.5 -14q-6 0 -18.5 5t-12.5 10t8 16.5t8 15.5q0 38 -54 38q-26 0 -52 -14q-59 -32 -90 -104
q-27 -63 -27 -138q0 -95 43 -174q52 -95 139 -95q60 0 93 45q30 40 30 102q0 57 -33 100q-36 47 -92 47q-28 0 -55.5 -21t-40.5 -48q-17 12 -51 37q13 38 53 64t81 26q80 0 127 -55.5t47 -136.5z" />
    <glyph glyph-name="seven" unicode="7" horiz-adv-x="445" 
d="M410 574q0 1 -59 -72q-70 -85 -111 -158q-59 -105 -59 -182q0 -74 33 -127q-22 -22 -68 -47q-37 67 -37 131q0 90 74 211q43 71 135 183q-85 6 -173 6q-31 0 -101 -19v20q0 14 13 56q51 14 80 11l173 -16q13 -1 65 7q6 6 31 6q4 -3 4 -10z" />
    <glyph glyph-name="eight" unicode="8" horiz-adv-x="457" 
d="M422 165q0 -76 -65 -126q-60 -45 -138 -45t-131 44q-56 46 -56 122q0 61 37 100q23 24 91 62q-115 58 -115 137q0 63 51 98q44 30 111 30q24 0 72 -5t72 -5q26 0 55 13q-1 -27 -34.5 -47.5t-62.5 -20.5q-21 0 -63.5 5t-62.5 5q-40 0 -66 -18q-29 -20 -29 -59
q0 -38 37 -62q17 -12 70 -32q32 -12 37 -12q17 0 63 37q25 20 25 51q0 17 -16 45q17 11 24 11q19 0 33.5 -16t14.5 -35q0 -32 -38 -62q-32 -23 -64 -45q70 -28 104 -61q44 -44 44 -109zM353 151q0 29 -14.5 59.5t-38.5 46.5q-11 8 -48 27q-41 20 -48 20q-27 0 -75.5 -44.5
t-49.5 -71.5q0 -5 -2 -16t-2 -16q0 -59 40 -95.5t99 -36.5q58 0 98.5 35t40.5 92z" />
    <glyph glyph-name="nine" unicode="9" horiz-adv-x="483" 
d="M435 309q0 -113 -69 -208q-75 -103 -183 -103q-35 0 -61 14q-31 17 -31 49q0 20 14.5 33.5t34.5 13.5q17 0 33 -11q-16 -22 -16 -34q0 -36 50 -36q24 0 65 21q53 27 81 102q23 62 23 133q0 97 -39 172q-49 93 -138 93q-60 0 -93 -42q-31 -38 -31 -100q0 -60 34 -102
q36 -46 95 -46q34 0 60 18.5t26 51.5q0 14 -2 21h11q17 0 29 -18.5t12 -36.5q0 -44 -45 -69q-38 -22 -86 -22q-76 0 -123 54t-47 131q0 80 49 139q52 63 131 63q101 0 162 -93q54 -82 54 -188z" />
    <glyph glyph-name="colon" unicode=":" horiz-adv-x="219" 
d="M163 56q0 -25 -17 -44.5t-42 -19.5t-43.5 19t-18.5 44q0 24 18 43t42 19q26 0 43.5 -17.5t17.5 -43.5zM163 356q0 -25 -17 -44.5t-42 -19.5t-43.5 19t-18.5 44q0 24 18 43t42 19q26 0 43.5 -17.5t17.5 -43.5z" />
    <glyph glyph-name="semicolon" unicode=";" horiz-adv-x="230" 
d="M163 356q0 -25 -17 -44.5t-42 -19.5t-43.5 19t-18.5 44q0 24 18 43t42 19q26 0 43.5 -17.5t17.5 -43.5zM180 29q0 -46 -37 -87.5t-83 -41.5q-17 0 -31 14q47 13 62 23q25 18 25 57q0 34 -28 34q-18 0 -23 -18q-19 12 -19 42q0 26 16 46.5t41 20.5q77 0 77 -90z" />
    <glyph glyph-name="less" unicode="&#x3c;" horiz-adv-x="371" 
d="M49 258v56l267 189v-45l-227 -175l227 -169v-45z" />
    <glyph glyph-name="equal" unicode="=" horiz-adv-x="277" 
d="M149 214q-13 0 -38 5.5t-38 5.5q-34 0 -45 -20q-2 6 -2 10q0 22 19.5 41t42.5 19q12 0 36.5 -4.5t36.5 -4.5q26 0 47 18l1 -8q0 -22 -19 -42t-41 -20z" />
    <glyph glyph-name="greater" unicode="&#x3e;" horiz-adv-x="357" 
d="M316 314v-56l-267 -189v45l233 175l-233 169v45z" />
    <glyph glyph-name="question" unicode="?" horiz-adv-x="417" 
d="M405 484q0 -75 -57 -128q-1 -1 -104 -75q-57 -41 -57 -84q0 -7 8 -13q3 0 11 3t13 3q8 0 14 -8t6 -16q0 -13 -11.5 -22t-24.5 -9q-19 0 -36.5 14.5t-17.5 33.5q0 50 45 103q42 46 85 93q45 58 45 120q0 60 -28 99q-31 43 -89 43q-41 0 -74 -22q-38 -25 -38 -64
q0 -23 13 -40q13 -20 36 -20q27 0 33 25q16 -7 16 -37q0 -23 -19 -39t-43 -16q-44 0 -70.5 28.5t-26.5 72.5q0 72 58 110q49 32 125 32q82 0 135 -52.5t53 -134.5zM194 -8q-20 0 -36 16t-16 37q0 20 15.5 36t34.5 16q22 0 36.5 -14.5t14.5 -36.5q0 -21 -14.5 -37.5
t-34.5 -16.5z" />
    <glyph glyph-name="at" unicode="@" horiz-adv-x="576" 
d="M497 151h49q-31 -73 -100 -118.5t-148 -45.5q-123 0 -203 88t-80 212q0 125 76 214q81 94 205 94q104 0 180 -70.5t76 -173.5q0 -80 -51 -153q-57 -80 -134 -80q-60 0 -55 68q-45 -64 -87 -64q-47 0 -76 38q-26 35 -26 83q0 69 46 130q50 66 117 66q50 0 64 -54l13 46h71
q-19 -66 -37 -131q-26 -94 -26 -127q0 -20 21 -20q47 0 85 75q33 65 33 117q0 87 -61.5 148t-147.5 61q-108 0 -176 -79q-64 -74 -64 -184q0 -111 65 -185q68 -77 178 -77q124 0 193 122zM297 406q-41 0 -73 -76q-27 -63 -27 -112q0 -63 39 -63q41 0 72 79q26 64 26 114
q0 58 -37 58z" />
    <glyph glyph-name="A" unicode="A" horiz-adv-x="660" 
d="M625 -2l-146 1q36 45 36 78q0 162 -104 268q-24 24 -65 54q-51 36 -72 36q-5 0 -20 -30q-55 -107 -55 -246q0 -184 96 -226q-33 -27 -116 -75v108q0 31 -10 92.5t-10 92.5q0 150 77 295q-6 4 -17 4q-7 1 -20 0q-15 -1 -18 -1q-41 0 -77 -13q-49 -18 -49 -52q0 -30 27 -30
q13 0 30 7q0 -60 -57 -60q-24 0 -38.5 18.5t-14.5 43.5q0 65 62 96q48 23 120 23q33 0 66 -6q29 33 92 93q56 44 131.5 69.5t147.5 25.5q-3 -13 -19 -36q-13 -19 -13 -42l-1 -466q0 -70 37 -122zM515 288v320q0 6 -6 6q-59 0 -125 -50q-61 -46 -92 -102q40 -19 114 -65
q24 -19 56 -53q45 -48 53 -56z" />
    <glyph glyph-name="B" unicode="B" horiz-adv-x="612" 
d="M225 -95q-83 0 -146 40q-74 47 -74 125q0 34 16 59q18 29 51 29q18 0 31 -11.5t12 -28.5q-2 -27 -18 -40q-17 14 -29 14t-21 -12t-9 -25q0 -54 61 -86q51 -27 109 -27q113 0 200 83.5t87 196.5q0 33 -15 70q-17 42 -43 53q-66 -53 -107 -53q-22 0 -38.5 14t-16.5 36
q0 31 27 48q22 14 57 14q12 0 29.5 -4.5t21.5 -4.5q22 0 22 85q0 70 -60 114q-54 40 -127 41q-63 1 -123 -33q-67 -38 -67 -90q0 -40 50 -38q-4 -14 -17.5 -25t-27.5 -11q-23 0 -37.5 19t-14.5 43q0 80 86 127q75 41 176 41q94 0 159 -38q79 -46 79 -133q0 -65 -39 -124
q14 -9 28 -19q31 -23 49 -53q26 -41 26 -93q0 -142 -104 -225q-97 -78 -243 -78zM397 367q-16 11 -44 11q-16 0 -32 -10t-16 -25q0 -18 22 -18q39 0 70 42zM258 -1h-143q2 4 21 31q14 18 14 33q2 148 2 367q0 67 -34 80l133 78q-7 -14 -17 -61t-10 -64v-403q0 -14 13 -32z
" />
    <glyph glyph-name="C" unicode="C" horiz-adv-x="636" 
d="M620 651q0 -12 -11.5 -27t-24.5 -19q-7 59 -53 59q-17 0 -34 -20t-23 -42q-2 -9 -2 -18q0 -12 5 -34.5t5 -33.5q-9 -8 -32 -15q-39 123 -155 123q-106 0 -154 -96q-34 -68 -34 -169q0 -108 47 -201q63 -127 184 -127q39 0 86 21q62 29 62 77q0 33 -36 39v14q0 9 14 16
q11 6 21 6q22 0 35 -20q10 -16 10 -35q0 -76 -78 -120q-62 -35 -131 -35q-138 0 -223 111q-72 95 -79 229t67 227q79 100 214 100q74 0 138 -50q3 13 18 41q15 21 45 38.5t45 17.5q27 0 50.5 -17.5t23.5 -39.5z" />
    <glyph glyph-name="D" unicode="D" horiz-adv-x="660" 
d="M615 344q0 -120 -64 -212q-76 -110 -216 -122q-28 -3 -87 -9h-148q24 28 54 75q7 22 9 47q2 18 1 45q-1 43 -1 46q0 -1 1 27q1 19 -1 29q-1 14 -6 16q-149 33 -149 173q0 112 99 173q78 49 179 49q147 0 240 -102q89 -96 89 -235zM537 327q0 131 -52 213
q-66 104 -209 104q-82 0 -149 -40q-84 -51 -84 -143q0 -33 24 -79q9 -16 38.5 -35.5t45.5 -19.5q5 0 12 5v141q0 16 -9 22.5t-18 12.5q9 8 55.5 34t54.5 26q5 0 7 -2q-17 -42 -16 -51v-184h17q19 0 50.5 28.5t31.5 53.5q0 31 -28 31q-9 0 -19 -4v12q4 16 19 27q12 9 25 9
q53 0 53 -64q0 -49 -43 -85.5t-106 -48.5l-2 -167q0 -17 -7 -40q-7 -27 -8 -45h88q45 0 106 35q69 39 94 95q29 65 29 159z" />
    <glyph glyph-name="E" unicode="E" horiz-adv-x="615" 
d="M592 532q0 -129 -264 -165q-83 -11 -144 -33q-19 -7 -53 -37q-38 -33 -38 -48q0 -5 18 -50q31 -77 90.5 -121t139.5 -44q63 0 108 35q51 39 43 100q15 -2 25 -17.5t10 -32.5q0 -64 -73 -101q-60 -30 -131 -30q-144 0 -233 96q-86 92 -86 236q0 132 89 234q92 107 223 107
q51 0 96 -22q56 -28 56 -73q0 -59 -56 -59q-20 0 -38 11q16 21 16 45q0 29 -38 46q-29 13 -63 13q-89 0 -155 -90q-61 -84 -61 -182q0 -33 9 -60q53 56 86 80q49 37 106 48q30 5 91 16l110 22q78 21 78 60q0 32 -45 41q0 11 14.5 20t25.5 9q20 0 32 -17t12 -37z" />
    <glyph glyph-name="F" unicode="F" horiz-adv-x="558" 
d="M534 664q0 -36 -41.5 -65t-78.5 -29q-34 0 -104.5 13.5t-105.5 13.5q-15 0 -23 -6v-158q42 -19 142 -19q60 0 60 36q0 11 -23 34q21 18 30 18q15 0 25.5 -11.5t10.5 -26.5q0 -32 -39.5 -63.5t-73.5 -34.5q-10 -1 -25 -1q-17 0 -49 3t-48 3q-7 0 -10 -5v-310q0 -9 32 -57
h-136v12q11 4 21.5 26.5t10.5 35.5v296q-4 5 -20 5q-51 0 -53 -71q-19 4 -19 39q0 37 30 59q13 11 62 32v142q-2 2 -3 2q-20 0 -49 -26q-25 -21 -39 -43q-10 12 -10 27q0 10 36 46q74 74 202 74q61 0 126 -17q73 -19 90 -19q39 0 39 27q0 16 -26 26q0 8 10 17t18 9
q10 0 20.5 -11.5t10.5 -22.5z" />
    <glyph glyph-name="G" unicode="G" horiz-adv-x="576" 
d="M553 668q0 -30 -25.5 -47t-56.5 -17t-92 15t-93 15q-98 0 -154 -83q-50 -73 -50 -177q0 -142 84 -240q88 -103 226 -103q37 0 54 15q-15 63 -18 152q1 -24 1 153l-7 5q-7 0 -21 -3.5t-21 -3.5q-29 0 -64 17t-50 17q-26 0 -26 -22q0 -28 43 -22q-1 -14 -12.5 -25
t-25.5 -11t-26 17t-12 31q0 32 26.5 55.5t58.5 23.5q26 0 76.5 -17t77.5 -17q40 0 76 17q0 -16 -9.5 -46t-9.5 -48v-114q0 -105 27 -156q-31 -24 -95 -40q-58 -15 -104 -15q-134 0 -234 112q-96 109 -96 245q0 121 80 216q84 101 205 101q28 0 82 -13.5t81 -13.5q34 0 34 25
q0 19 -27 26q4 29 47 29q20 0 35 -16.5t15 -36.5z" />
    <glyph glyph-name="H" unicode="H" horiz-adv-x="689" 
d="M636 0q-49 -4 -141 1q34 33 34 90v343q-4 5 -11 5q-9 0 -34 -6t-50 -7q-48 -2 -106 11l-104 26q-5 -5 -5 -12v-358q0 -48 31 -92q-45 1 -135 0q34 71 34 92l-1 371q-4 5 -17 5q-22 0 -44.5 -16t-22.5 -37q0 -14 11.5 -27t25.5 -14q-14 -34 -41 -34q-25 0 -39 20t-14 46
q0 102 141 104q-2 0 1 72q-2 44 -28 74q44 1 131 0q-9 -12 -18 -25q-15 -20 -15 -39v-78l9 -8q45 -12 90 -25q54 -13 93 -13q24 0 60 6q46 8 52 19.5t6 28.5q0 63 -2 63q-4 48 -29 72h136q-12 -17 -23.5 -34t-11.5 -40q-1 -96 0 -247q1 -203 1 -248q0 -60 36 -89z" />
    <glyph glyph-name="I" unicode="I" horiz-adv-x="210" 
d="M154 0l-139 1q34 39 34 63v521q0 38 -34 75h138q1 -3 -16 -29.5t-17 -41.5v-519q0 -13 11.5 -32.5t22.5 -37.5z" />
    <glyph glyph-name="J" unicode="J" horiz-adv-x="226" 
d="M184 659q-12 -17 -33 -68l1 -409q7 -29 13 -43q1 -2 8.5 -10t7.5 -13q0 -3 -25 -32q-27 -32 -34 -43q-9 -14 -25 -46q-17 -39 -54 -73t-69 -34q-18 0 -33 10q-18 12 -18 30q0 33 31 33q18 0 27 -20t10 -20q13 0 27 19q37 50 52 145q12 75 12 126l1 381q0 27 -35 66z" />
    <glyph glyph-name="K" unicode="K" horiz-adv-x="544" 
d="M583 -58q0 -38 -49 -38q-56 0 -106 54q-43 47 -66 116q-7 21 -26 113q-10 52 -21 103q-27 101 -61 101q-6 0 -54 -21q-51 -22 -80 -38v-262q0 -22 33 -69h-139q0 -3 16.5 26t16.5 48l-2 517q0 30 -31 66l138 1q-3 -9 -19 -30q-13 -17 -13 -34v-208q-1 0 -1 -1h1
q1 -1 5 -1q12 0 126 55.5t134 70.5q39 30 39 66q0 22 -17 38t-42 15v11q0 18 49 32q33 0 53 -29q17 -25 17 -56q0 -60 -57 -105q-16 -12 -125 -74q71 -64 98 -145q9 -28 28 -149q14 -94 50 -158q9 -15 34 -26q4 13 19 38q4 4 25 4q27 0 27 -31z" />
    <glyph glyph-name="L" unicode="L" horiz-adv-x="551" 
d="M516 148q0 -73 -49.5 -118t-119.5 -45q-37 0 -105 18t-100 18q-24 0 -54 -11.5t-32 -11.5q-5 0 -24 22t-19 27q0 2 23.5 31t28.5 41q21 48 21 93v376q-10 44 -38 72h148q-12 -16 -24.5 -32.5t-12.5 -38.5v-388q0 -21 -12 -65t-22 -57l7 -5q3 0 24 3t26 3q4 0 98 -19.5
t98 -19.5q46 0 75.5 29t29.5 73q0 42 -27 75.5t-71 33.5q-21 0 -38 -11q-20 -12 -20 -32q0 -28 46 -37q-15 -32 -46 -32q-29 0 -49 24q-17 21 -17 45q0 45 37 70q30 20 66 20q63 0 107.5 -46t44.5 -105z" />
    <glyph glyph-name="M" unicode="M" horiz-adv-x="696" 
d="M678 1q-5 -5 -148 0q2 9 19 36q12 20 9 42l-65 471q-28 -22 -82.5 -79.5t-54.5 -64.5q0 3 28 -43t28 -91q0 -42 -24.5 -70.5t-64.5 -28.5q-42 0 -65 34q-18 27 -18 64q0 40 20 75t20 32q0 6 -40 52.5t-70 76.5l-55 -428q-4 -29 23 -77h-133q12 16 20 31q21 35 23 54
q10 93 40 307l27 195q0 15 -22 43l-19 25h147q-27 -17 -27 -51q0 -19 20.5 -41.5t40.5 -44.5q27 -33 73 -79q144 135 144 169q0 12 -10 25q-14 18 -16 22h153q-38 -37 -38 -67q0 6 15 -111q13 -104 65 -420q3 -16 37 -58zM363 257q0 19 -17.5 48t-37.5 43q-35 -45 -35 -81
q0 -17 10 -33q13 -21 37 -21q14 0 28.5 13.5t14.5 30.5z" />
    <glyph glyph-name="N" unicode="N" horiz-adv-x="559" 
d="M535 1q-1 -1 -124 -1q-1 9 6 16q10 11 13 16q14 26 14 51q0 42 -12 99q-33 -32 -42 -38q-16 -11 -40 -11q-27 0 -47.5 17.5t-20.5 41.5q0 14 7.5 32.5t20 21t20.5 2.5t13 -3.5l5 -3.5q-17 -24 -17 -34q0 -25 28 -25q45 0 45 60q0 39 -60 83q-1 1 -123 78q-75 47 -97 83
q-2 0 -1 -4q1 -6 0 -7q-25 -282 -25 -367q0 -42 2 -56q7 -38 31 -51q-91 -4 -131 0q31 26 39 59q2 7 6 61q34 449 34 474q0 33 -28 64h125q-14 -16 -36 -45q-4 -8 -4 -24q0 -49 85 -99q46 -25 91 -51q65 -38 96 -76q2 -3 8 -9q5 4 5 15q0 27 -21 222q-4 38 -35 67
q85 4 122 0l-19 -25q-11 -15 -11 -57q0 -7 9 -121q9 -135 40 -404q2 -15 29 -51z" />
    <glyph glyph-name="O" unicode="O" horiz-adv-x="599" 
d="M550 350q0 -127 -66 -231q-80 -124 -216 -124q-128 0 -200 114q-58 92 -58 203q0 84 32 164q38 94 103 130q0 -4 7 -11q-76 -98 -76 -229q0 -116 58 -209q65 -106 169 -106q96 0 146 90q38 68 38 154q0 73 -24 145q-31 90 -91 145q-42 38 -84 38q-21 0 -37 -10
q-19 -12 -19 -31q0 -28 30 -28q2 0 32 9q0 -3 2 -10t2 -11q0 -21 -17 -38t-36 -17q-29 0 -49 26t-20 52q0 50 41 78q34 23 83 23q55 0 103 -29q147 -89 147 -287z" />
    <glyph glyph-name="P" unicode="P" horiz-adv-x="595" 
d="M549 432q0 -118 -75 -223q-79 -113 -183 -113q-33 0 -61 18q-35 21 -35 58q0 21 17 37t35 16q4 0 10 -2.5t9 -2.5q-17 -32 -17 -41q0 -49 61 -49q89 0 133 126q29 83 29 163q0 57 -18 106q-26 73 -86 100q-34 15 -55 15q-58 0 -101.5 -46t-43.5 -104v-497q0 -42 -34 -87
q-37 -47 -77 -47q-21 0 -36 10t-15 26q0 12 8 26q9 -3 18 -14q6 -7 20 -7q15 0 28.5 13.5t13.5 29.5v620q3 -1 -34 -1q-23 0 -40 11t-17 30q0 30 39 33q1 -1 1 -15q0 -25 36 -25q18 0 49 13q25 12 51 23q59 22 79 27q29 8 67 8q103 0 166 -72q58 -66 58 -163z" />
    <glyph glyph-name="Q" unicode="Q" horiz-adv-x="609" 
d="M608 -69q0 -27 -26 -42q-22 -12 -50 -12q-98 0 -170 125q-5 -1 -44 -9q-27 -5 -44 -5q-34 0 -61 14q-34 18 -34 49q0 33 34 51q27 14 64 14t73 -18.5t35 -18.5q10 0 28 27q77 89 77 220q0 111 -57 203q-66 107 -170 107q-97 0 -144 -81q-38 -66 -38 -170q0 -113 48 -212
q3 -6 25 -38t22 -34q0 1 -25 -49q-137 108 -137 287q0 133 67 225q74 103 203 103q128 0 205 -93q72 -87 72 -218q0 -92 -35 -174q-36 -87 -104 -142q13 -29 51 -75q45 -54 66 -54q23 0 23 24q0 16 -12 28q5 5 14 5q15 0 29.5 -11t14.5 -26zM328 40q-19 39 -71 39
q-44 0 -44 -28q0 -15 21 -24q18 -8 35 -8q23 0 59 21z" />
    <glyph glyph-name="R" unicode="R" horiz-adv-x="616" 
d="M650 -78q0 -42 -69 -42q-77 0 -125 54q-35 40 -61 122q-18 65 -37 130q-9 -1 -29 -4q-16 -3 -20 -3q-23 0 -46 13.5t-23 34.5q0 46 62 46q38 0 59.5 -17t26.5 -17q13 0 43.5 30t35.5 43q10 19 23 57q5 28 5 52q0 61 -31 111q-36 58 -106 86q-35 14 -113 14
q-39 0 -111 -27q-96 -37 -96 -89q0 -32 29 -32q10 0 17 4q4 -1 4 -9q0 -14 -13 -22.5t-24 -8.5q-40 0 -40 55q0 88 119 134q82 32 163 32q112 0 188 -54q88 -62 88 -174q0 -65 -34 -126q-42 -75 -121 -111q24 -62 39 -100q22 -59 45 -117q40 -84 86 -84q21 0 54 40
q12 -10 12 -21zM233 -2l-128 4q27 30 27 48v429q0 17 -30 37q28 28 116 79l5 -12q-20 -43 -20 -86v-445q0 -7 12 -27q9 -13 18 -27zM340 220q-20 23 -47 23q-3 0 -19 -8v-12q18 -11 30 -11q9 0 36 8z" />
    <glyph glyph-name="S" unicode="S" horiz-adv-x="554" 
d="M517 226q0 -116 -78 -184q-71 -62 -179 -62q-92 0 -162 39q-92 51 -92 150q0 73 59 116q50 38 118 38q53 0 91 -22q48 -28 48 -82q0 -46 -39 -76q-33 -25 -68 -25q-26 0 -48 15q-26 16 -26 42q0 21 31 40h12q4 -56 51 -56q24 0 42 18t18 44q0 42 -46 64q-32 15 -68 15
q-55 0 -91 -29q-40 -33 -40 -87q0 -84 77 -132q61 -38 136 -38q77 0 134 46q63 51 63 130q0 83 -90 151l-166 102q-90 55 -90 109q0 59 58 89q43 22 98 22q39 0 81 -13q62 -18 62 -55q0 -18 -13.5 -29t-28.5 -11q-4 0 -13 2t-12 2q4 13 4 24q0 53 -87 53q-92 0 -92 -54
q0 -38 90 -86q132 -69 166 -97q90 -73 90 -173z" />
    <glyph glyph-name="T" unicode="T" horiz-adv-x="544" 
d="M521 672q0 -45 -61 -71q-38 -17 -76 -21h-91v-491q0 -33 30 -89q-4 -2 -24 -2t-105 2q24 23 29 47q3 20 5 39l-1 503q-1 1 -3 2q-4 -2 -6 1q-74 18 -105 18q-74 0 -74 -37q0 -18 13 -21.5t26 -5.5q-10 -29 -37 -29q-38 0 -38 40q0 58 87 87q57 19 114 19t123 -16.5
t103 -16.5q48 0 48 28q0 9 -23 32q3 5 15 13.5t16 8.5q14 0 24.5 -13.5t10.5 -26.5z" />
    <glyph glyph-name="U" unicode="U" horiz-adv-x="589" 
d="M559 23q0 -11 -19.5 -21t-31.5 -10q-49 0 -74 80q-25 -17 -76.5 -48.5t-113.5 -31.5q-102 0 -169 86q-63 80 -63 184q0 157 184 335q-2 8 -23 12q-15 2 -29 4q-7 1 -33.5 11.5t-31.5 10.5q-8 0 -20 -12v-13q11 -10 30 -15q1 -11 -7.5 -18.5t-19.5 -7.5q-26 0 -26 35
q0 65 80 65q16 0 47 -8.5t47 -8.5q14 0 40 5q31 7 39 8q0 -2 2 -3.5t2 -6.5q0 -1 -55 -59q-64 -69 -101 -132q-55 -94 -55 -179q0 -89 53 -160q58 -77 144 -77q79 0 154 73v469q0 28 -30 64v7h126q-1 -1 -18 -32q-12 -21 -12 -35v-464q0 -30 11 -59q15 -37 39 -37q5 0 10 1
v-12z" />
    <glyph glyph-name="V" unicode="V" horiz-adv-x="538" 
d="M503 580q0 -54 -26 -104q-60 -121 -121 -242q-74 -148 -132 -246q-115 275 -189 622q-5 25 -31 49q4 3 119 -1q-20 -29 -20 -59q0 -49 62 -275q2 -8 71 -200q-2 -2 5 -2q9 0 53 76q32 55 68 134q32 68 63 137q18 37 32 101q2 10 2 21q0 41 -32 70.5t-77 29.5
q-17 0 -32 -10q-18 -12 -18 -31q0 -15 11 -23t22 -8q5 0 13 2q6 1 16 -1q2 -17 -13 -29t-31 -12q-48 0 -48 58q0 40 34 61q28 17 66 17q62 0 99 -41q34 -38 34 -94z" />
    <glyph glyph-name="W" unicode="W" horiz-adv-x="765" 
d="M718 525q0 -82 -84 -271q-64 -136 -127 -272h-16q-45 92 -134 304q-4 0 -7 -6q-14 -28 -42 -96l-81 -194h-18q-189 424 -189 560q0 44 18 75q22 37 63 37q15 0 28 -10.5t16 -24.5q-4 0 -10 1t-9 1q-24 0 -38.5 -22t-14.5 -47q0 -69 58 -227q53 -144 99 -220
q10 13 55 115.5t48 118.5q-43 102 -43 180q0 102 79 102q37 0 58 -29q18 -26 18 -65q0 -37 -49 -155l120 -280q63 110 111 280q10 31 19 62q10 36 10 65q0 35 -16 64q-20 35 -52 35q-12 0 -25 -10.5t-17 -22.5q-12 5 -12 28q0 58 69 58q52 0 85 -41q30 -39 30 -93zM409 533
q0 53 -35 53q-16 0 -25 -14.5t-9 -31.5q0 -15 12.5 -55t21.5 -51q35 60 35 99z" />
    <glyph glyph-name="X" unicode="X" horiz-adv-x="550" 
d="M535 1q-16 -1 -50 -1q-19 0 -58 1h-59q22 31 22 36q0 15 -31 61q-22 31 -43 61q-29 47 -89 141q-52 -40 -92 -102q-45 -70 -45 -128q0 -40 26 -61v-8h-111v12q19 16 33 60l20 68q22 53 43 83q5 7 57 65q48 55 48 58q0 -5 -75 173q-11 33 -23 66t-40 56q-5 5 -14 16
q56 5 148 -1q-23 -50 -23 -57q0 -52 85 -204q50 27 105 79q67 63 67 103q0 18 -11.5 32t-28.5 14q-13 0 -44 -23q-8 13 -8 28q0 24 20 43t44 19q35 0 58 -28.5t23 -64.5q0 -54 -53 -113q-31 -35 -98 -86q-53 -40 -53 -49q0 -5 30 -57q58 -101 94 -153q66 -95 119 -127z" />
    <glyph glyph-name="Y" unicode="Y" horiz-adv-x="533" 
d="M490 673q-16 -44 -20 -110q-1 -56 -3 -112q-5 -78 -22 -182q-22 -132 -41 -191q-34 -104 -98 -165q-44 -42 -95 -42q-27 0 -46.5 17.5t-19.5 44.5q0 9 8 30q31 -26 63 -26q60 0 110 80q36 58 56 136l-3 15q-50 -36 -67 -45q-36 -18 -78 -18q-87 0 -134 71q-41 60 -41 151
q0 111 76 259q-47 19 -79 19q-13 0 -26 -9v-16q12 -15 30 -12q-1 -8 -10 -19t-17 -11q-30 0 -30 38q0 26 21 47t47 21q-2 0 38 -1q29 -1 46 0q25 2 35 8l2 -5q-73 -139 -73 -251q0 -87 32 -149q40 -78 119 -78q90 0 132 110q29 79 29 188q0 124 -52 187q56 14 111 20z" />
    <glyph glyph-name="Z" unicode="Z" horiz-adv-x="550" 
d="M525 125q0 -56 -46.5 -92.5t-103.5 -36.5q-47 0 -125 32t-114 32q-64 0 -107 -61h-21q-5 5 -5 15q0 116 103 227q32 34 201 173q117 96 135 162q-4 5 -7 5q-12 0 -38 -6.5t-39 -6.5q-37 0 -104.5 23.5t-102.5 23.5q-38 0 -63 -18q-28 -20 -28 -56q0 -50 44 -50
q12 0 22.5 8t10.5 20q0 10 -20 30q15 15 29 15q18 0 31.5 -14.5t13.5 -33.5q0 -27 -21 -46t-48 -19q-35 0 -58.5 25.5t-23.5 61.5q0 56 47 94q43 36 100 36q38 0 106.5 -23.5t102.5 -23.5q52 0 93 37h15q4 -3 4 -10q0 -12 -22 -72q-30 -82 -114 -160l-158 -130
q-95 -79 -138 -152q-15 -25 -19 -49h-1q0 -2 6 -2q-4 0 39 18.5t76 18.5q56 0 131 -42t103 -42q27 0 49 18.5t22 45.5q0 21 -16 37t-38 16q-29 0 -48 -23q-12 14 -12 32q0 27 19.5 42.5t47.5 15.5q40 0 65 -27t25 -68z" />
    <glyph glyph-name="bracketleft" unicode="[" horiz-adv-x="150" 
d="M119 702h-47v-728h50v-45h-100v818h97v-45z" />
    <glyph glyph-name="backslash" unicode="\" horiz-adv-x="368" 
d="M289 -9h40q0 23 -103 336l-126 378l-45 -1z" />
    <glyph glyph-name="bracketright" unicode="]" horiz-adv-x="196" 
d="M25 -26h47v728h-50v45h100v-818h-97v45z" />
    <glyph glyph-name="asciicircum" unicode="^" horiz-adv-x="246" 
d="M264 691l-23 -1q-11 13 -48 34q-40 24 -51 34q-6 -6 -47 -30q-37 -22 -48 -38l-27 1q61 68 95 108q44 1 55 0q33 -36 94 -108z" />
    <glyph glyph-name="underscore" unicode="_" horiz-adv-x="420" 
d="M-2 -85h452v-30h-452v30z" />
    <glyph glyph-name="grave" unicode="`" horiz-adv-x="173" 
d="M148 488h-31q-14 0 -96 111h54q32 -43 73 -111z" />
    <glyph glyph-name="a" unicode="a" horiz-adv-x="471" 
d="M439 1h-100v57l-5 5q-78 -76 -166 -76q-67 0 -112 47t-45 111q0 76 61 122q54 41 125 41q19 0 52 -9q50 -15 51 -15q2 -2 2 5q0 13 -25.5 57t-68.5 69q-37 22 -73 22q-21 0 -42 -11q-28 -14 -28 -38q0 -12 8.5 -19.5t14.5 -7.5q17 0 21 30q8 -2 22 -8q17 -13 17 -30
q0 -24 -20 -38q-16 -11 -35 -11q-32 0 -50 19.5t-18 47.5q0 50 44 75q33 18 78 18q143 0 212 -162q35 -83 58 -257q2 -19 22 -44zM336 157q0 48 -38 84t-91 36q-56 0 -94 -33.5t-38 -84.5q0 -52 40 -87t90 -35q45 0 85 30q46 35 46 90z" />
    <glyph glyph-name="b" unicode="b" horiz-adv-x="480" 
d="M432 231q0 -95 -50 -165q-56 -78 -146 -78q-18 0 -36 4q-25 6 -92 49q-5 0 -28 -20q-29 -24 -39 -30q-19 19 -32 49q19 7 34 40q13 28 13 46v423q0 17 -37 23q33 34 98 95l1 -268l28 23q48 39 105 39q91 0 141 -81q40 -65 40 -149zM369 209q0 140 -101 190q-24 12 -47 12
q-73 0 -94 -82q-6 -20 -8 -100q-3 -83 8 -120q26 -91 112 -91q70 0 105 71q25 52 25 120z" />
    <glyph glyph-name="c" unicode="c" horiz-adv-x="435" 
d="M418 113q-40 -57 -100 -90q-56 -31 -111 -31q-95 0 -150 74q-48 64 -48 149q0 107 65 176.5t173 69.5q54 0 91 -23q44 -28 44 -80q0 -43 -30 -71.5t-70 -28.5q-34 0 -57 22t-23 52q0 44 48 59l18 -4q-9 -13 -9 -29t13 -27q10 -9 22 -9q19 0 31 16q10 13 10 30
q0 67 -91 67q-82 0 -133 -62q-46 -57 -46 -135t55 -132t130 -54q42 0 86 22q21 11 74 48z" />
    <glyph glyph-name="d" unicode="d" horiz-adv-x="471" 
d="M419 38q-5 -11 -17 -25q-15 -17 -24 -17q-26 0 -57 66q-16 -18 -54 -49q-33 -21 -80 -21q-94 0 -144 83q-39 65 -39 148q0 95 50 161q56 73 152 73q57 0 112 -33q2 6 2 35v95q-9 12 -20 12q-7 0 -7 -3q-6 1 -6 8q0 9 95 94v-414q0 -107 3 -135q7 -70 34 -78zM323 238
q0 88 -11 129q-8 28 -47 49q-34 18 -63 18q-68 0 -111 -66q-35 -54 -35 -114q0 -70 37 -132q46 -77 123 -77q79 0 100 76q7 25 7 117z" />
    <glyph glyph-name="e" unicode="e" horiz-adv-x="446" 
d="M421 111q0 -13 -33 -46q-28 -29 -34 -32q-59 -37 -119 -37q-69 0 -119 36q-10 -3 -19 -20.5t-9 -27.5q0 -18 20 -36q-13 -17 -24 -35q-15 5 -25.5 25t-10.5 33q0 18 18 57q1 3 9 14q6 8 6 13q0 4 -15 25q-19 25 -23 32q-28 50 -28 119q0 91 57 159q62 74 159 74
q28 0 75 -14q81 -24 82 -24l-231 -332q0 -3 6 -9q43 -30 108 -30q71 0 145 66q5 -5 5 -10zM286 371q0 29 -20.5 47.5t-53.5 18.5q-68 0 -112 -60q-38 -52 -38 -111q0 -37 16 -77q18 -44 48 -71l90 118q70 97 70 135z" />
    <glyph glyph-name="f" unicode="f" horiz-adv-x="279" 
d="M242 609q0 -18 -13 -31.5t-30 -13.5q-10 0 -23.5 9t-13.5 18v25q3 0 8 7q5 -10 15 -10q4 0 14 9q-2 19 -26 19q-33 0 -43 -37q-3 -12 -5 -60q-2 -51 3 -85q48 -3 67 0v-27q-37 6 -67 0v-380q0 -54 -29 -106q-37 -66 -100 -80q-5 19 -12 58q36 10 61 52q21 38 21 73
l-2 380q-16 4 -57 0l1 27h55v115q0 43 37 70q30 22 66 22q23 0 46 -13q27 -16 27 -41z" />
    <glyph glyph-name="g" unicode="g" horiz-adv-x="491" 
d="M443 -53q0 -82 -88 -126q-66 -33 -141 -33q-61 0 -122 23q-91 35 -91 104q0 26 18.5 45t43.5 19q21 0 38 -15t17 -37q0 -8 -8 -28q-5 7 -17 20t-25 13q-27 0 -27 -32q0 -48 73 -69q44 -13 88 -13q65 0 111 28q56 35 56 100q0 64 -52 97q-41 26 -95 26q-70 0 -122 -33
q-17 14 -25 32q59 29 90 66l-12 8q-65 11 -106.5 52.5t-41.5 100.5q0 79 74 128q62 41 135 41q39 0 62 -10t31 -10q14 0 15 30q0 37 -37 37q-11 0 -18 -4q-5 7 -5 12q0 19 13.5 30.5t30.5 11.5q28 0 44 -28q12 -21 12 -42q0 -6 -20 -66q74 -55 74 -127q0 -70 -68 -112
q-46 -29 -137 -51q-14 -14 -43 -41l6 -5q35 7 63 7q67 0 126 -30q80 -41 80 -119zM352 300q0 16 -12 50q-16 44 -36 44q-4 0 -24 -5t-25 -5q-40 0 -40 16q0 6 6 10q9 -2 20 -2q19 0 34 5q-25 17 -66 17q-56 0 -96 -34q-45 -37 -45 -99q0 -34 29 -77q34 -50 75 -50q5 0 10 4
q0 16 -6 44q35 32 51 32q7 0 5 -3q-3 -72 1 -81q57 11 90 50q29 36 29 84z" />
    <glyph glyph-name="h" unicode="h" horiz-adv-x="452" 
d="M394 296q0 -56 -26 -127q-9 -25 -51 -121q2 -2 8 -2q4 0 29.5 7t35.5 9q-4 -34 1 -58q-60 12 -67 12q-17 0 -33 -6q-23 -10 -24 -10q14 33 36 95q34 113 34 161q0 57 -29 101q-35 53 -95 53q-114 0 -114 -132v-214q0 -32 34 -64q-120 0 -130 1q3 9 16 30q11 17 13 33v479
q0 15 -12 22q-10 3 -20 7q32 33 98 95l-1 -275h6q18 16 58 47q12 8 40 16t44 8q71 0 112 -54q37 -48 37 -113z" />
    <glyph glyph-name="i" unicode="i" horiz-adv-x="172" 
d="M107 557q0 -17 -15 -32.5t-32 -15.5q-22 0 -36 18q-11 15 -11 32q0 19 15 33t30 14q21 0 35 -16.5t14 -32.5zM129 0q-58 -3 -124 0q29 34 29 61v297q0 14 -24 38q47 29 89 68l1 -400q0 -18 10 -36q10 -14 19 -28z" />
    <glyph glyph-name="j" unicode="j" horiz-adv-x="184" 
d="M117 557q0 -19 -13.5 -33.5t-32.5 -14.5q-47 0 -47 48q0 21 14.5 35t33.5 14q20 0 34 -18q11 -15 11 -31zM128 -58q0 -2 -31 -39q-20 -34 -41 -69q-31 -47 -65 -47q-14 0 -25.5 9t-11.5 23q0 11 8 19t17 8q13 0 17.5 -12t8.5 -12q40 0 40 127v409q0 18 -28 42
q33 23 93 67v-470q2 -8 10 -29.5t8 -25.5z" />
    <glyph glyph-name="k" unicode="k" horiz-adv-x="456" 
d="M436 25q0 -36 -47 -40q-42 -4 -62 37q-27 65 -54 129q-37 75 -97 95q-31 10 -56 3v-175q0 -14 15 -41.5t23 -33.5q-144 0 -145 1q42 32 42 74v492q0 12 -13.5 17.5t-25.5 10.5l104 88v-387q1 -1 14 -1q36 0 106 52q75 55 75 99q0 29 -28 29q-11 0 -25 -20q-12 -2 -12 31
q0 53 52 53q31 0 48 -21.5t17 -45.5q0 -99 -176 -194q8 0 15 -1q18 1 21 1q59 -9 86 -57q17 -31 28 -97.5t22 -85.5q19 21 40 21q13 0 23 -11t10 -22z" />
    <glyph glyph-name="l" unicode="l" horiz-adv-x="212" 
d="M172 0h-137q11 15 21 31q13 25 13 63v451q2 12 -8 22.5t-29 10.5l102 97l-1 -581q0 -50 39 -94z" />
    <glyph glyph-name="m" unicode="m" horiz-adv-x="659" 
d="M605 295q0 -64 -30 -126q-18 -38 -79 -132q20 2 77 17l1 -68q-32 18 -62 18q-6 0 -66 -9q88 166 88 280q0 46 -20 83q-27 52 -80 52q-17 0 -42 -13q-31 -15 -31 -33q0 -4 7 -38.5t7 -39.5q0 -62 -33 -153q-32 -85 -70 -139h-16q48 167 48 262q0 154 -99 154
q-95 0 -95 -158q0 -14 1 -41v-31v-124q0 -9 11.5 -28.5t21.5 -29.5q-30 -2 -62 -2t-63 2q7 6 18.5 29t11.5 29l-3 281q0 13 -16.5 45t-26.5 36q3 7 24 23q25 19 31 26q9 -6 24 -29q20 -29 27 -38q50 64 113 64q68 0 121 -61q17 15 35 31q34 28 83 28q72 0 111 -55
q33 -47 33 -112z" />
    <glyph glyph-name="n" unicode="n" horiz-adv-x="429" 
d="M371 290q0 -47 -28 -132q-24 -73 -47 -114q12 1 72 18v-64q-43 9 -60 9q-24 0 -56 -8q23 67 45 134q18 61 18 118q0 53 -28 101q-32 56 -82 56q-40 0 -74 -34.5t-34 -74.5v-246q0 -10 9.5 -24.5t18.5 -27.5h-115q4 4 13 20q12 23 12 37v257q0 12 -8 47q0 2 -14 24t-14 27
t20 21q26 20 30 25q13 -13 25 -39q10 -21 19 -42q42 48 69 65.5t64 17.5q64 0 107 -56q38 -51 38 -115z" />
    <glyph glyph-name="o" unicode="o" horiz-adv-x="503" 
d="M448 218q0 -98 -65 -164.5t-150 -66.5q-97 0 -161 79q-60 73 -60 169q0 95 65 161t150 66q93 0 157 -73.5t64 -170.5zM395 177q0 79 -50 156q-58 89 -140 89q-62 0 -98 -43.5t-36 -106.5q0 -77 46 -156q56 -96 139 -96q61 0 100 47t39 110z" />
    <glyph glyph-name="p" unicode="p" horiz-adv-x="483" 
d="M436 251q0 -106 -69 -181q-71 -78 -176 -78q-48 0 -85 31v-102q0 -43 23 -50q-35 -20 -105 -62q21 42 21 68v458q0 26 -21.5 54.5t-21.5 26.5q0 9 18.5 29t27.5 20q8 0 60 -74q69 74 156 74q77 0 127 -71q45 -63 45 -143zM369 228q0 72 -32 124q-38 63 -105 63
q-126 0 -126 -139v-200l5 -5l30 17q0 -22 13 -41q18 -26 55 -26q67 0 116 72q44 65 44 135z" />
    <glyph glyph-name="q" unicode="q" horiz-adv-x="480" 
d="M441 416q-47 -47 -47 -70v-408q0 -28 11 -53q1 -2 19 -14q0 -3 -1 -8q-42 -27 -92 -51v233q2 2 -6 2q-4 0 -15 -10q-14 -12 -18 -15q-49 -28 -93 -28q-95 0 -148 85q-41 66 -41 147q0 87 49 157q58 82 152 82q69 0 128 -54q6 3 31 29q22 22 34 22q10 0 37 -46zM334 214
q0 88 -12 129q-28 92 -115 92q-73 0 -108 -72q-25 -51 -25 -118t35 -126q44 -75 122 -75q70 0 92 64q11 31 11 106z" />
    <glyph glyph-name="r" unicode="r" horiz-adv-x="395" 
d="M355 385q0 -22 -19 -41t-40 -19q-8 0 -25 10q-21 11 -26 23q14 -1 25 7t11 22q0 35 -47 35q-50 0 -81 -46q-27 -39 -27 -83v-234q0 -16 11 -35.5t20 -23.5q-1 -2 -63 -1h-60q8 12 16 25q13 19 13 35v274q0 37 -52 78q4 10 18.5 29t20.5 19q23 0 72 -74q77 77 141 77
q33 0 61 -20q31 -23 31 -57z" />
    <glyph glyph-name="s" unicode="s" horiz-adv-x="395" 
d="M351 158q0 -79 -70 -127q-62 -43 -145 -43q-56 0 -92 28q-39 30 -39 84q0 41 30.5 69t71.5 28q31 0 55.5 -18.5t24.5 -47.5q0 -20 -14.5 -36.5t-34.5 -16.5q-7 0 -19 4q1 -4 1 39q0 13 -11.5 22.5t-25.5 9.5q-24 0 -37 -17t-13 -41q0 -38 35 -62q30 -20 70 -20
q56 0 102 32q51 35 51 88q0 59 -68 84q-64 18 -128 37q-68 29 -68 97q0 60 51 92q43 27 106 27q45 0 79 -16q44 -21 44 -61q0 -27 -20 -45t-48 -18q-22 0 -40 13.5t-18 34.5q0 22 20 37q8 -7 16 -13q12 -10 18 -10q15 0 15 17q0 34 -71 34q-38 0 -67 -16q-35 -20 -35 -56
q0 -46 71 -66l132 -38q71 -33 71 -109z" />
    <glyph glyph-name="t" unicode="t" horiz-adv-x="204" 
d="M161 434h-50v-314q0 -46 39 -90q-6 -6 -25 -22t-20 -15q-51 42 -51 131v308l-40 1v23h40q1 31 0 46t-21 36q26 31 79 89v-171h49v-22z" />
    <glyph glyph-name="u" unicode="u" horiz-adv-x="469" 
d="M419 43q-18 -17 -54 -49q-13 7 -27 32q-22 38 -26 44q-69 -79 -150 -79q-69 0 -113.5 46.5t-44.5 113.5q0 50 38 137t38 78q0 4 -15 19q-23 21 -28 27q23 9 127 49l-25 -49q-30 -57 -47 -104q-25 -68 -25 -116q0 -58 23 -100q30 -56 93 -56q40 0 76 23q45 28 47 76v257
q0 22 -28 61h128q-9 -11 -18 -21q-15 -20 -15 -43v-235q4 -46 8 -55q5 -15 38 -56z" />
    <glyph glyph-name="v" unicode="v" horiz-adv-x="454" 
d="M403 423q0 -62 -83 -222l-123 -220q-12 2 -42 66q-56 119 -101 275q-6 26 -22 78q-11 30 -33 56h133q-2 -4 -18 -28q-9 -13 -9 -34q0 -50 37.5 -161t67.5 -153q9 1 42 59q100 177 100 265q0 53 -38 53q-9 0 -29 -20q-19 13 -19 32q0 22 16.5 38t38.5 16q41 0 63 -30
q19 -27 19 -70z" />
    <glyph glyph-name="w" unicode="w" horiz-adv-x="632" 
d="M582 428q0 -56 -84 -241q-62 -136 -104 -211l-100 271q-4 0 -124 -268q-16 46 -62 209q-39 139 -71 219q-13 32 -32 51q3 -5 122 -2q-13 -24 -13 -45q0 -5 1 -10l77 -281l120 274l107 -292q10 13 61 135q57 137 54 176q-4 46 -36 46q-19 0 -31 -21q-19 13 -19 38
q0 48 55 48q42 0 63 -34q16 -25 16 -62z" />
    <glyph glyph-name="x" unicode="x" horiz-adv-x="426" 
d="M417 1h-133q10 14 10 26q0 18 -45 80q-31 39 -61 79q-22 -16 -54 -62q-33 -49 -33 -73q0 -8 16 -44q-52 -12 -106 -64v35q0 13 12 37q24 63 116 166q28 31 28 35t-35 61q-5 8 -48 91q-29 56 -57 86h123q-13 -23 -13 -28q0 -18 33 -78q25 -48 46 -79q28 20 64 67
q40 51 40 78q0 12 -9 22t-21 10q-13 0 -31 -23q-22 25 -22 41q0 22 16 35t39 13q34 0 54.5 -21t20.5 -55q0 -32 -34 -81q-22 -32 -62 -76q-34 -37 -34 -39q0 -13 81 -119q78 -102 99 -120z" />
    <glyph glyph-name="y" unicode="y" horiz-adv-x="459" 
d="M405 455q-30 -45 -30 -57v-323q0 -97 -5 -126q-17 -88 -83 -125q-39 -22 -88 -22q-33 0 -58 12q-35 16 -35 49q0 40 44 40q15 0 33 -11q-8 -12 -8 -22q0 -15 17 -25q14 -9 30 -9q48 0 72 48q17 34 17 78v110q-23 -30 -69.5 -54.5t-84.5 -24.5q-57 0 -101.5 50t-46.5 106
t16 113q12 40 33 78q18 33 18 31q0 4 -17 20q-21 21 -26 28q41 14 141 55q-31 -49 -63 -97q-52 -95 -52 -167q0 -54 35 -104q41 -59 101 -59q62 0 116 66v294q0 10 -12 24q-16 19 -18 24h124z" />
    <glyph glyph-name="z" unicode="z" horiz-adv-x="440" 
d="M394 113q0 -50 -33 -84.5t-82 -34.5q-31 0 -159 27q-16 3 -57 -11q-37 -13 -53 -25q-5 4 -5 11q0 5 12 38q69 191 256 392q-5 5 -19 5q-107 0 -209 -73h-11l57 126q10 -28 58 -28h245q-88 -77 -169 -183q-89 -117 -128 -215q51 26 78 26q10 0 20 -3q3 -1 58 -19
q45 -14 52 -14q55 0 55 40q0 27 -25 27q-19 0 -33 -27q-8 4 -15 16t-7 21q0 19 16 34.5t36 15.5q25 0 43.5 -18.5t18.5 -43.5z" />
    <glyph glyph-name="braceleft" unicode="{" horiz-adv-x="687" 
d="M644 303q-8 -12 -54 -20q-49 -9 -71 -30q-34 -35 -29 -116q-15 8 -30 48q-15 37 -15 56q0 43 25.5 71.5t68.5 28.5q30 0 55 -11q25 -14 50 -27zM580 9q-81 0 -132 56q-35 38 -72 126q-43 106 -61 134q-32 -40 -69 -40q-64 0 -78 69q-5 70 -10 141q-8 86 -57 113
q-20 11 -71 15q0 1 -1.5 1.5t-2.5 0.5q6 4 3 10q24 6 49 6q114 0 191 -148q58 -137 117 -275q72 -148 173 -148q32 0 57 36q33 -33 33 -62q0 -7 -29.5 -21t-39.5 -14zM376 81q-58 49 -110 49q-46 0 -46 -35q0 -19 9 -42q-27 9 -47 30q-23 23 -23 49q0 27 26 49t53 22
q56 0 96 -32q42 -35 42 -90z" />
    <glyph glyph-name="bar" unicode="|" horiz-adv-x="632" 
d="M582 374q0 -4 -12 -20.5t-13 -21.5q22 -24 22 -60q0 -34 -33.5 -66t-67.5 -32q-41 0 -59 19q0 -7 5 -23t5 -24q0 -40 -31 -71.5t-71 -31.5q-4 0 -32.5 14t-33.5 14q-7 0 -21 -6t-21 -6q-26 0 -52.5 24.5t-26.5 50.5q0 4 8 28q10 28 11 31q-29 -13 -43 -13q-28 0 -55 22
t-27 50q0 2 19 45q-38 25 -38 83q0 32 33.5 59.5t66.5 27.5q-1 0 38 -6v4q0 9 -5 25.5t-5 24.5q0 28 26 57t53 29q6 0 17.5 -4.5t17.5 -4.5q3 0 25.5 10.5t39.5 10.5q32 0 70 -23q43 -25 43 -55q0 -4 -2.5 -11t-2.5 -10q0 -2 6 -11t6 -13t-8 -20q-10 -19 -11 -22q12 7 23 14
q19 10 38 11q21 1 59.5 -39t38.5 -60zM417 490q0 33 -7 60q-2 9 -36 25.5t-46 16.5q-11 0 -34.5 -11t-33.5 -11q-7 0 -20.5 4.5t-20.5 4.5q-17 0 -37 -28.5t-20 -46.5q0 -12 23 -45.5t35 -37.5q-9 24 -21 72l3 2q14 -23 46 -68q-1 7 -9 29q-6 19 -6 30q0 12 7 9
q11 -12 18 -36q10 -30 15 -39v43q0 4 -3 11.5t-3 12.5q0 2 3 8h7q7 -22 20 -67v9q0 32 10 52l11 -3l-1 -52q0 -8 2 -11q5 7 10 37q3 24 18 29q5 -4 5 -9q0 -10 -6 -31t-6 -32q10 19 21 37q17 30 22 29l6 -5q-7 -19 -18 -58q46 53 46 70zM563 271q0 13 -14 31.5t-14 21.5
q0 4 11 24t11 24q0 18 -28 46t-47 30q-17 2 -30 -7q-8 -7 -16 -13q13 -5 12 -12q-3 -4 -11 -10q6 1 17 -6q-9 -11 -28 -17q-26 -9 -31 -12q41 12 56 12q9 0 13 -5v-8q-11 -3 -33 -10t-33 -10q22 2 33 2q15 0 30 -3q0 -2 -1.5 -6t-1.5 -7q-19 -2 -57 -8h11q52 0 55 -15
q-12 -10 -56 -10q-15 0 -22 -3q21 -4 43 -8q29 -6 38 -14q0 1 -3 -14l-78 12q22 -11 65 -38v-7h-10q-22 9 -67 27q62 -62 104 -62q23 0 52.5 26t29.5 49zM336 332q0 15 -13.5 33t-28.5 18q-13 0 -29 -16t-16 -29q0 -16 12 -29t28 -13q14 0 30.5 11.5t16.5 24.5zM408 137
q0 22 -22 62q-18 33 -37 56v-17q0 -7 7.5 -23t7.5 -24q0 -12 -7 -11q-10 26 -36 75v-20q0 -7 4.5 -22t4.5 -23q0 -12 -8 -19q-6 4 -12 34q-8 34 -10 39q0 -6 1 -18.5t1 -19.5q0 -21 -11 -38l-8 6q0 49 -8 78q-4 -20 -7 -40q-6 -27 -17 -35l-5 6v9q0 9 2.5 26t2.5 25
q-9 -22 -35 -56l-5 8q8 17 18 51q-14 -16 -40 -53q-31 -44 -31 -53q0 -24 18 -43t42 -19q5 0 17.5 9t16.5 9q7 0 36.5 -15.5t49.5 -15.5t45 26t25 46zM202 323h-61q-11 0 -14 8q10 12 36.5 13.5t35.5 7.5q-5 2 -35 6q-25 2 -31 11q10 9 43 9q12 0 21 3q-21 6 -42 11
q-33 10 -34 20l5 5l73 -11q-50 39 -76 39q-37 0 -63 -22.5t-26 -58.5q0 -11 17 -29t17 -36q0 -4 -9.5 -25.5t-9.5 -24.5q0 -18 28 -34q25 -13 46 -13q18 0 38 15l32 26l-13 8q8 6 22 19q-50 -15 -47 -15q-11 0 -9 10q25 17 56 33q-35 -5 -44 -5q-8 0 -15 7q7 8 28 14
q29 8 31 9zM320 343q-1 -1 -5 -1q-3 0 -10 2t-11 2q-15 0 -15 -28h-11q-7 12 -7 26q0 9 10.5 17.5t19.5 8.5q5 0 17 -10.5t12 -16.5z" />
    <glyph glyph-name="braceright" unicode="}" horiz-adv-x="687" 
d="M31 303q8 -12 54 -20q50 -9 71 -30q34 -35 30 -116q14 8 30 48q14 37 14 56q0 43 -25.5 71.5t-68.5 28.5q-30 0 -55 -11q-25 -14 -50 -27zM95 9q81 0 133 56q35 38 71 126q44 105 62 134q30 -40 68 -40q64 0 78 69q5 70 10 141q8 86 57 113q20 11 71 15l4 2q-6 4 -3 10
q-24 6 -49 6q-113 0 -190 -148q-59 -137 -118 -275q-72 -148 -173 -148q-33 0 -56 36q-34 -32 -34 -62q0 -7 29.5 -21t39.5 -14zM299 81q58 49 110 49q47 0 47 -35q0 -16 -10 -42q27 9 48.5 31t21.5 48q0 27 -26 49t-53 22q-56 0 -96 -32q-42 -35 -42 -90z" />
    <glyph glyph-name="asciitilde" unicode="~" horiz-adv-x="282" 
d="M302 783q0 -31 -30 -52q-26 -18 -52 -18q-5 0 -62 18t-62 18q-14 0 -30 -8q-20 -11 -17 -27h-19v25q0 25 28 43q25 15 48 15q5 0 65 -18t65 -18q35 0 47 36h19v-14z" />
    <glyph glyph-name="Adieresis" unicode="&#xc4;" horiz-adv-x="660" 
d="M625 -2l-146 1q36 45 36 78q0 162 -104 268q-24 24 -65 54q-51 36 -72 36q-5 0 -20 -30q-55 -107 -55 -246q0 -184 96 -226q-33 -27 -116 -75v108q0 31 -10 92.5t-10 92.5q0 150 77 295q-6 4 -17 4q-7 1 -20 0q-15 -1 -18 -1q-41 0 -77 -13q-49 -18 -49 -52q0 -30 27 -30
q13 0 30 7q0 -60 -57 -60q-24 0 -38.5 18.5t-14.5 43.5q0 65 62 96q48 23 120 23q33 0 66 -6q29 33 92 93q56 44 131.5 69.5t147.5 25.5q-3 -13 -19 -36q-13 -19 -13 -42l-1 -466q0 -70 37 -122zM515 288v320q0 6 -6 6q-59 0 -125 -50q-61 -46 -92 -102q40 -19 114 -65
q24 -19 56 -53q45 -48 53 -56zM569 762q0 -20 -13 -31.5t-30 -11.5q-19 0 -31 13.5t-12 29.5q0 18 14 30.5t31 12.5q18 0 29.5 -13.5t11.5 -29.5zM409 762q0 -43 -43 -43t-43 45q0 18 13.5 29.5t29.5 11.5q20 0 31.5 -13t11.5 -30z" />
    <glyph glyph-name="Aring" unicode="&#xc5;" horiz-adv-x="660" 
d="M625 -2l-146 1q36 45 36 78q0 162 -104 268q-24 24 -65 54q-51 36 -72 36q-5 0 -20 -30q-55 -107 -55 -246q0 -184 96 -226q-33 -27 -116 -75v108q0 31 -10 92.5t-10 92.5q0 150 77 295q-6 4 -17 4q-7 1 -20 0q-15 -1 -18 -1q-41 0 -77 -13q-49 -18 -49 -52q0 -30 27 -30
q13 0 30 7q0 -60 -57 -60q-24 0 -38.5 18.5t-14.5 43.5q0 65 62 96q48 23 120 23q33 0 66 -6q29 33 92 93q56 44 131.5 69.5t147.5 25.5q-3 -13 -19 -36q-13 -19 -13 -42l-1 -466q0 -70 37 -122zM515 288v320q0 6 -6 6q-59 0 -125 -50q-61 -46 -92 -102q40 -19 114 -65
q24 -19 56 -53q45 -48 53 -56zM407 823q30 0 51 -21t21 -50q0 -30 -21 -51t-51 -21q-29 0 -50 21t-21 51q0 29 21 50t50 21zM407 799q-19 0 -33 -13.5t-14 -33.5q0 -19 14 -33t33 -14q20 0 34 13.5t14 33.5t-14 33.5t-34 13.5z" />
    <glyph glyph-name="Ccedilla" unicode="&#xc7;" horiz-adv-x="643" 
d="M413 -115q0 -80 -105 -80q3 0 -47 22l12 29q21 -16 46 -16q21 0 34.5 13.5t13.5 34.5q0 20 -13 36t-33 16q-6 0 -18 -2.5t-16 -2.5l1 61q-122 13 -198 116q-71 96 -71 222q0 130 74 225q80 102 207 102q72 0 138 -50q5 14 18 41q11 17 41.5 36.5t48.5 19.5
q25 0 49.5 -16.5t24.5 -40.5q0 -13 -11.5 -28t-24.5 -18q-8 59 -53 59q-22 0 -41 -28.5t-19 -51.5q0 -13 5.5 -35t5.5 -33q-10 -9 -32 -15q-39 123 -155 123q-100 0 -155 -86q-47 -73 -47 -179q0 -119 62 -216q71 -112 183 -112q48 0 94 25q54 29 54 73q0 32 -36 39v14
q0 9 12.5 15.5t22.5 6.5q20 0 32.5 -17t12.5 -38q0 -74 -75 -118q-64 -39 -143 -37v-33q11 3 21 3q80 0 80 -79z" />
    <glyph glyph-name="Eacute" unicode="&#xc9;" horiz-adv-x="612" 
d="M592 532q0 -129 -264 -165q-80 -11 -125 -27q-20 -7 -63 -40q-47 -36 -47 -51q0 -5 18 -50q31 -77 90.5 -121t139.5 -44q63 0 108 35q51 39 43 100q15 -2 25 -17.5t10 -32.5q0 -64 -73 -101q-60 -30 -131 -30q-143 0 -229 95q-83 92 -83 237q0 132 85 234q90 107 220 107
q51 0 96 -22q56 -28 56 -73q0 -59 -56 -59q-20 0 -38 11q16 21 16 45q0 29 -38 46q-29 13 -63 13q-90 0 -155 -88q-61 -82 -61 -178q0 -33 8 -60q98 103 193 122q30 5 91 16l110 22q78 21 78 60q0 32 -45 41q0 11 14.5 20t25.5 9q20 0 32 -17t12 -37zM230 694h31q7 0 48 41
t60 66h-67q-35 -45 -72 -107z" />
    <glyph glyph-name="Ntilde" unicode="&#xd1;" horiz-adv-x="559" 
d="M538 -1q1 1 -127 1q-1 9 6 16q10 11 13 16q14 26 14 51q0 42 -12 99q-33 -32 -42 -38q-16 -11 -40 -11q-27 0 -47.5 17.5t-20.5 41.5q0 14 7.5 32.5t20 21t20.5 2.5t13 -3.5l5 -3.5q-17 -24 -17 -34q0 -25 28 -25q45 0 45 60q0 39 -60 83q-1 1 -123 78q-75 47 -97 83
q-2 0 -1 -4q1 -6 0 -7q-25 -282 -25 -367q0 -43 2 -56q7 -40 31 -53q-91 -2 -131 2q31 26 39 59q2 7 6 61q34 449 34 474q0 33 -29 65h125q-14 -16 -35 -46q-4 -8 -4 -24q0 -49 85 -99q46 -25 91 -51q65 -38 96 -76q2 -3 8 -9q5 4 5 15q0 27 -21 222q-3 25 -17 44l-18 24
q63 5 122 -1l-19 -25q-11 -15 -11 -57q0 -7 9 -121q9 -135 40 -404q1 -7 32 -53zM402 783q0 -31 -30 -52q-26 -18 -52 -18q-5 0 -62 18t-62 18q-14 0 -30 -8q-20 -11 -17 -27h-19v25q0 25 28 43q25 15 48 15q5 0 65 -18t65 -18q35 0 47 36h19v-14z" />
    <glyph glyph-name="Odieresis" unicode="&#xd6;" horiz-adv-x="599" 
d="M550 350q0 -127 -66 -231q-80 -124 -216 -124q-128 0 -200 114q-58 92 -58 203q0 84 32 164q38 94 103 130q0 -4 7 -11q-76 -98 -76 -229q0 -116 58 -209q65 -106 169 -106q96 0 146 90q38 68 38 154q0 73 -24 145q-31 90 -91 145q-42 38 -84 38q-21 0 -37 -10
q-19 -12 -19 -31q0 -28 30 -28q2 0 32 9q0 -3 2 -10t2 -11q0 -21 -17 -38t-36 -17q-29 0 -49 26t-20 52q0 50 41 78q34 23 83 23q55 0 103 -29q147 -89 147 -287zM399 762q0 -20 -13 -31.5t-30 -11.5q-19 0 -31 13.5t-12 29.5q0 18 14 30.5t31 12.5q18 0 29.5 -13.5
t11.5 -29.5zM239 762q0 -43 -43 -43t-43 45q0 18 13.5 29.5t29.5 11.5q20 0 31.5 -13t11.5 -30z" />
    <glyph glyph-name="Udieresis" unicode="&#xdc;" horiz-adv-x="609" 
d="M459 762q0 -20 -13 -31.5t-30 -11.5q-19 0 -31 13.5t-12 29.5q0 18 14 30.5t31 12.5q18 0 29.5 -13.5t11.5 -29.5zM319 762q0 -43 -43 -43t-43 45q0 18 13.5 29.5t29.5 11.5q20 0 31.5 -13t11.5 -30zM579 23q0 -13 -24 -24q-21 -7 -27 -7q-49 0 -74 80q-24 -16 -76.5 -48
t-113.5 -32q-109 0 -176 94q-56 80 -56 176q0 157 184 335q-1 7 -18.5 10.5t-33.5 5.5q-10 2 -35.5 12t-29.5 10q-8 0 -20 -12v-13q10 -9 30 -15q1 -11 -8 -18.5t-19 -7.5q-26 0 -26 35q0 65 80 65q4 0 48 -5t49 -5q18 0 76 6q0 -1 2 -3t2 -7q0 -1 -55 -59
q-64 -68 -101 -131q-55 -93 -55 -180q0 -86 52 -157q57 -80 145 -80q80 0 154 73v469q0 27 -30 64v7h126q-9 -15 -17 -30q-13 -22 -13 -37v-464q0 -29 11 -58q14 -38 39 -38q5 0 10 1v-12z" />
    <glyph glyph-name="aacute" unicode="&#xe1;" horiz-adv-x="474" 
d="M439 1h-100v57l-5 5q-78 -76 -166 -76q-67 0 -112 47t-45 111q0 76 61 122q54 41 125 41q19 0 52 -9q50 -15 51 -15q2 -2 2 5q0 13 -25.5 57t-68.5 69q-37 22 -73 22q-21 0 -42 -11q-28 -14 -28 -38q0 -12 8.5 -19.5t14.5 -7.5q17 0 21 30q8 -2 22 -8q17 -13 17 -30
q0 -24 -20 -38q-16 -11 -35 -11q-32 0 -50 19.5t-18 47.5q0 50 44 75q33 18 78 18q143 0 212 -162q35 -83 58 -257q2 -19 22 -44zM336 157q0 48 -38 84t-91 36q-56 0 -94 -33.5t-38 -84.5q0 -52 40 -87t90 -35q45 0 85 30q46 35 46 90zM126 508h32l96 91h-68
q-21 -30 -60 -91z" />
    <glyph glyph-name="agrave" unicode="&#xe0;" horiz-adv-x="473" 
d="M439 1h-100v57l-5 5q-78 -76 -166 -76q-67 0 -112 47t-45 111q0 76 61 122q54 41 125 41q19 0 52 -9q50 -15 51 -15q2 -2 2 5q0 13 -25.5 57t-68.5 69q-37 22 -73 22q-21 0 -42 -11q-28 -14 -28 -38q0 -12 8.5 -19.5t14.5 -7.5q17 0 21 30q8 -2 22 -8q17 -13 17 -30
q0 -24 -20 -38q-16 -11 -35 -11q-32 0 -50 19.5t-18 47.5q0 50 44 75q33 18 78 18q143 0 212 -162q35 -83 58 -257q2 -19 22 -44zM336 157q0 48 -38 84t-91 36q-56 0 -94 -33.5t-38 -84.5q0 -52 40 -87t90 -35q45 0 85 30q46 35 46 90zM210 508h-32l-96 91h68q22 -30 60 -91
z" />
    <glyph glyph-name="acircumflex" unicode="&#xe2;" horiz-adv-x="460" 
d="M439 1h-100v57l-5 5q-78 -76 -166 -76q-67 0 -112 47t-45 111q0 76 61 122q54 41 125 41q19 0 52 -9q50 -15 51 -15q2 -2 2 5q0 13 -25.5 57t-68.5 69q-37 22 -73 22q-21 0 -42 -11q-28 -14 -28 -38q0 -12 8.5 -19.5t14.5 -7.5q17 0 21 30q8 -2 22 -8q17 -13 17 -30
q0 -24 -20 -38q-16 -11 -35 -11q-32 0 -50 19.5t-18 47.5q0 50 44 75q33 18 78 18q143 0 212 -162q35 -83 58 -257q2 -19 22 -44zM336 157q0 48 -38 84t-91 36q-56 0 -94 -33.5t-38 -84.5q0 -52 40 -87t90 -35q45 0 85 30q46 35 46 90zM271 496l-20 -1q-10 12 -43 31
q-36 22 -46 31q-5 -5 -42 -28q-33 -20 -43 -34l-25 1q56 61 86 97q39 2 49 0q58 -62 84 -97z" />
    <glyph glyph-name="adieresis" unicode="&#xe4;" horiz-adv-x="459" 
d="M282 557q0 -19 -14 -32.5t-33 -13.5q-22 0 -36 18q-11 15 -11 29q0 19 16 31.5t33 12.5q20 0 32.5 -13t12.5 -32zM138 558q0 -47 -43 -47q-47 0 -47 47q0 44 47 44q43 0 43 -44zM439 1h-100v57l-5 5q-78 -76 -166 -76q-67 0 -112 47t-45 111q0 76 61 122q54 41 125 41
q19 0 52 -9q50 -15 51 -15q2 -2 2 5q0 13 -25.5 57t-68.5 69q-37 22 -73 22q-21 0 -42 -11q-28 -14 -28 -38q0 -12 8.5 -19.5t14.5 -7.5q17 0 21 30q8 -2 22 -8q17 -13 17 -30q0 -24 -20 -38q-16 -11 -35 -11q-32 0 -50 19.5t-18 47.5q0 50 44 75q33 18 78 18
q143 0 212 -162q35 -83 58 -257q2 -19 22 -44zM336 157q0 48 -38 84t-91 36q-56 0 -94 -33.5t-38 -84.5q0 -52 40 -87t90 -35q45 0 85 30q46 35 46 90z" />
    <glyph glyph-name="atilde" unicode="&#xe3;" horiz-adv-x="460" 
d="M439 1h-100v57l-5 5q-78 -76 -166 -76q-67 0 -112 47t-45 111q0 76 61 122q54 41 125 41q19 0 52 -9q50 -15 51 -15q2 -2 2 5q0 13 -25.5 57t-68.5 69q-37 22 -73 22q-21 0 -42 -11q-28 -14 -28 -38q0 -12 8.5 -19.5t14.5 -7.5q17 0 21 30q8 -2 22 -8q17 -13 17 -30
q0 -24 -20 -38q-16 -11 -35 -11q-32 0 -50 19.5t-18 47.5q0 50 44 75q33 18 78 18q143 0 212 -162q35 -83 58 -257q2 -19 22 -44zM336 157q0 48 -38 84t-91 36q-56 0 -94 -33.5t-38 -84.5q0 -52 40 -87t90 -35q45 0 85 30q46 35 46 90zM302 573q0 -31 -30 -52
q-26 -18 -52 -18q-5 0 -62 18t-62 18q-14 0 -30 -8q-20 -11 -17 -27h-19v25q0 25 28 43q25 15 48 15q5 0 65 -18t65 -18q35 0 47 36h19v-14z" />
    <glyph glyph-name="aring" unicode="&#xe5;" horiz-adv-x="457" 
d="M439 1h-100v57l-5 5q-78 -76 -166 -76q-67 0 -112 47t-45 111q0 76 61 122q54 41 125 41q19 0 52 -9q50 -15 51 -15q2 -2 2 5q0 13 -25.5 57t-68.5 69q-37 22 -73 22q-21 0 -42 -11q-28 -14 -28 -38q0 -12 8.5 -19.5t14.5 -7.5q17 0 21 30q8 -2 22 -8q17 -13 17 -30
q0 -24 -20 -38q-16 -11 -35 -11q-32 0 -50 19.5t-18 47.5q0 50 44 75q33 18 78 18q143 0 212 -162q35 -83 58 -257q2 -19 22 -44zM336 157q0 48 -38 84t-91 36q-56 0 -94 -33.5t-38 -84.5q0 -52 40 -87t90 -35q45 0 85 30q46 35 46 90zM177 627q27 0 46 -19t19 -46t-19 -46
t-46 -19q-26 0 -45 19t-19 46t19 46t45 19zM177 605q-17 0 -29.5 -12.5t-12.5 -30.5t12.5 -30.5t29.5 -12.5q18 0 30.5 12.5t12.5 30.5t-12.5 30.5t-30.5 12.5z" />
    <glyph glyph-name="ccedilla" unicode="&#xe7;" horiz-adv-x="439" 
d="M299 -95q0 -34 -25 -53t-61 -19q-5 0 -20 8q-7 5 -20 13l11 21q16 -13 38 -13q32 0 32 39q0 42 -31 42h-8l-11 -2q-2 0 -4 -1h-4v52q-90 5 -142 78q-45 62 -45 145q0 107 65 176.5t173 69.5q54 0 91 -23q44 -28 44 -80q0 -43 -30 -71.5t-70 -28.5q-34 0 -57 22t-23 52
q0 44 48 59l18 -4q-9 -13 -9 -29t13 -27q10 -9 22 -9q19 0 31 16q10 13 10 30q0 67 -91 67q-82 0 -133 -62q-46 -57 -46 -135t55 -132t130 -54q42 0 86 22q21 11 74 48l8 -9q-37 -55 -95 -87q-53 -31 -107 -34v-31q20 6 28 6q24 0 39.5 -18.5t15.5 -43.5z" />
    <glyph glyph-name="eacute" unicode="&#xe9;" horiz-adv-x="437" 
d="M186 508h32l96 91h-68q-21 -30 -60 -91zM411 111q0 -13 -33 -46q-28 -29 -34 -32q-59 -37 -119 -37q-69 0 -119 36q-10 -3 -19 -20.5t-9 -27.5q0 -18 20 -36q-13 -17 -24 -35q-15 5 -25.5 25t-10.5 33q0 18 18 57q1 3 9 14q6 8 6 13q0 4 -15 25q-19 25 -23 32
q-28 50 -28 119q0 91 57 159q62 74 159 74q28 0 75 -14q81 -24 82 -24l-231 -332q0 -3 6 -9q43 -30 108 -30q71 0 145 66q5 -5 5 -10zM276 371q0 29 -20.5 47.5t-53.5 18.5q-68 0 -112 -60q-38 -52 -38 -111q0 -37 16 -77q18 -44 48 -71l90 118q70 97 70 135z" />
    <glyph glyph-name="egrave" unicode="&#xe8;" horiz-adv-x="435" 
d="M411 111q0 -13 -33 -46q-28 -29 -34 -32q-59 -37 -119 -37q-69 0 -119 36q-10 -3 -19 -20.5t-9 -27.5q0 -18 20 -36q-13 -17 -24 -35q-15 5 -25.5 25t-10.5 33q0 18 18 57q1 3 9 14q6 8 6 13q0 4 -15 25q-19 25 -23 32q-28 50 -28 119q0 91 57 159q62 74 159 74
q28 0 75 -14q81 -24 82 -24l-231 -332q0 -3 6 -9q43 -30 108 -30q71 0 145 66q5 -5 5 -10zM276 371q0 29 -20.5 47.5t-53.5 18.5q-68 0 -112 -60q-38 -52 -38 -111q0 -37 16 -77q18 -44 48 -71l90 118q70 97 70 135zM260 508h-32l-96 91h68q22 -30 60 -91z" />
    <glyph glyph-name="ecircumflex" unicode="&#xea;" horiz-adv-x="435" 
d="M421 111q0 -13 -33 -46q-28 -29 -34 -32q-59 -37 -119 -37q-69 0 -119 36q-10 -3 -19 -20.5t-9 -27.5q0 -18 20 -36q-13 -17 -24 -35q-15 5 -25.5 25t-10.5 33q0 18 18 57q1 3 9 14q6 8 6 13q0 4 -15 25q-19 25 -23 32q-28 50 -28 119q0 91 57 159q62 74 159 74
q28 0 75 -14q81 -24 82 -24l-231 -332q0 -3 6 -9q43 -30 108 -30q71 0 145 66q5 -5 5 -10zM286 371q0 29 -20.5 47.5t-53.5 18.5q-68 0 -112 -60q-38 -52 -38 -111q0 -37 16 -77q18 -44 48 -71l90 118q70 97 70 135zM331 496l-20 -1q-10 12 -43 31q-36 22 -46 31
q-5 -5 -42 -28q-33 -20 -43 -34l-25 1q56 61 86 97q39 2 49 0q58 -62 84 -97z" />
    <glyph glyph-name="edieresis" unicode="&#xeb;" horiz-adv-x="446" 
d="M421 111q0 -13 -33 -46q-28 -29 -34 -32q-59 -37 -119 -37q-69 0 -119 36q-10 -3 -19 -20.5t-9 -27.5q0 -18 20 -36q-13 -17 -24 -35q-15 5 -25.5 25t-10.5 33q0 18 18 57q1 3 9 14q6 8 6 13q0 4 -15 25q-19 25 -23 32q-28 50 -28 119q0 91 57 159q62 74 159 74
q28 0 75 -14q81 -24 82 -24l-231 -332q0 -3 6 -9q43 -30 108 -30q71 0 145 66q5 -5 5 -10zM286 371q0 29 -20.5 47.5t-53.5 18.5q-68 0 -112 -60q-38 -52 -38 -111q0 -37 16 -77q18 -44 48 -71l90 118q70 97 70 135zM336 555q0 -20 -13.5 -34.5t-31.5 -14.5t-32 16t-14 33
t14 31.5t32 14.5t31.5 -14.5t13.5 -31.5zM192 553q0 -20 -13 -33.5t-31 -13.5q-19 0 -32 18q-11 15 -11 31q0 17 13.5 31.5t31.5 14.5q42 0 42 -48z" />
    <glyph glyph-name="iacute" unicode="&#xed;" horiz-adv-x="184" 
d="M129 0q-58 -3 -124 0q29 34 29 61v297q0 14 -24 38q47 29 89 68l1 -400q0 -18 10 -36q10 -14 19 -28zM6 508h32l96 91h-68q-21 -30 -60 -91z" />
    <glyph glyph-name="igrave" unicode="&#xec;" horiz-adv-x="184" 
d="M129 0q-58 -3 -124 0q29 34 29 61v297q0 14 -24 38q47 29 89 68l1 -400q0 -18 10 -36q10 -14 19 -28zM110 508h-32l-96 91h68q22 -30 60 -91z" />
    <glyph glyph-name="icircumflex" unicode="&#xee;" horiz-adv-x="193" 
d="M129 0q-58 -3 -124 0q29 34 29 61v297q0 14 -24 38q47 29 89 68l1 -400q0 -18 10 -36q10 -14 19 -28zM171 496l-20 -1q-10 12 -43 31q-36 22 -46 31q-5 -5 -42 -28q-33 -20 -43 -34l-25 1q56 61 86 97q39 2 49 0q58 -62 84 -97z" />
    <glyph glyph-name="idieresis" unicode="&#xef;" horiz-adv-x="188" 
d="M129 0q-58 -3 -124 0q29 34 29 61v297q0 14 -24 38q47 29 89 68l1 -400q0 -18 10 -36q10 -14 19 -28zM166 555q0 -20 -13.5 -34.5t-31.5 -14.5t-32 16t-14 33t14 31.5t32 14.5t31.5 -14.5t13.5 -31.5zM42 553q0 -20 -13 -33.5t-31 -13.5q-19 0 -32 18q-11 15 -11 31
q0 17 13.5 31.5t31.5 14.5q42 0 42 -48z" />
    <glyph glyph-name="ntilde" unicode="&#xf1;" horiz-adv-x="429" 
d="M371 290q0 -47 -28 -132q-24 -73 -47 -114q12 1 72 18v-64q-43 9 -60 9q-24 0 -56 -8q23 67 45 134q18 61 18 118t-23 101q-30 56 -87 56q-40 0 -74 -34.5t-34 -74.5v-246q0 -10 9.5 -24.5t18.5 -27.5h-115q4 4 13 20q13 23 13 37v40l-1 217q0 12 -8 47q0 2 -14 24
t-14 27t20 21q26 20 30 25q13 -13 25 -39q10 -21 19 -42q42 48 69 65.5t64 17.5q64 0 107 -56q38 -51 38 -115zM322 573q0 -31 -30 -52q-26 -18 -52 -18q-5 0 -62 18t-62 18q-14 0 -30 -8q-20 -11 -17 -27h-19v25q0 25 28 43q25 15 48 15q5 0 65 -18t65 -18q35 0 47 36h19
v-14z" />
    <glyph glyph-name="oacute" unicode="&#xf3;" horiz-adv-x="493" 
d="M448 218q0 -98 -65 -164.5t-150 -66.5q-97 0 -161 79q-60 73 -60 169q0 95 65 161t150 66q93 0 157 -73.5t64 -170.5zM395 177q0 79 -50 156q-58 89 -140 89q-62 0 -98 -43.5t-36 -106.5q0 -77 46 -156q56 -96 139 -96q61 0 100 47t39 110zM186 508h32l96 91h-68
q-21 -30 -60 -91z" />
    <glyph glyph-name="ograve" unicode="&#xf2;" horiz-adv-x="490" 
d="M448 218q0 -98 -65 -164.5t-150 -66.5q-97 0 -161 79q-60 73 -60 169q0 95 65 161t150 66q93 0 157 -73.5t64 -170.5zM395 177q0 79 -50 156q-58 89 -140 89q-62 0 -98 -43.5t-36 -106.5q0 -77 46 -156q56 -96 139 -96q61 0 100 47t39 110zM270 508h-32l-96 91h68
q22 -30 60 -91z" />
    <glyph glyph-name="ocircumflex" unicode="&#xf4;" horiz-adv-x="497" 
d="M448 218q0 -98 -65 -164.5t-150 -66.5q-97 0 -161 79q-60 73 -60 169q0 95 65 161t150 66q93 0 157 -73.5t64 -170.5zM395 177q0 79 -50 156q-58 89 -140 89q-62 0 -98 -43.5t-36 -106.5q0 -77 46 -156q56 -96 139 -96q61 0 100 47t39 110zM331 496l-20 -1q-10 12 -43 31
q-36 22 -46 31q-5 -5 -42 -28q-33 -20 -43 -34l-25 1q56 61 86 97q39 2 49 0q58 -62 84 -97z" />
    <glyph glyph-name="odieresis" unicode="&#xf6;" horiz-adv-x="493" 
d="M336 555q0 -20 -13.5 -34.5t-31.5 -14.5t-32 16t-14 33t14 31.5t32 14.5t31.5 -14.5t13.5 -31.5zM192 553q0 -20 -13 -33.5t-31 -13.5q-19 0 -32 18q-11 15 -11 31q0 17 13.5 31.5t31.5 14.5q42 0 42 -48zM448 218q0 -98 -65 -164.5t-150 -66.5q-97 0 -161 79
q-60 73 -60 169q0 95 65 161t150 66q93 0 157 -73.5t64 -170.5zM395 177q0 79 -50 156q-58 89 -140 89q-62 0 -98 -43.5t-36 -106.5q0 -77 46 -156q56 -96 139 -96q61 0 100 47t39 110z" />
    <glyph glyph-name="otilde" unicode="&#xf5;" horiz-adv-x="493" 
d="M448 218q0 -98 -65 -164.5t-150 -66.5q-97 0 -161 79q-60 73 -60 169q0 95 65 161t150 66q93 0 157 -73.5t64 -170.5zM395 177q0 79 -50 156q-58 89 -140 89q-62 0 -98 -43.5t-36 -106.5q0 -77 46 -156q56 -96 139 -96q61 0 100 47t39 110zM362 573q0 -31 -30 -52
q-26 -18 -52 -18q-5 0 -62 18t-62 18q-14 0 -30 -8q-20 -11 -17 -27h-19v25q0 25 28 43q25 15 48 15q5 0 65 -18t65 -18q35 0 47 36h19v-14z" />
    <glyph glyph-name="uacute" unicode="&#xfa;" horiz-adv-x="462" 
d="M419 43q-18 -17 -54 -49q-13 7 -27 32q-22 38 -26 44q-69 -79 -150 -79q-69 0 -113.5 46.5t-44.5 113.5q0 50 38 137t38 78q0 4 -15 19q-23 21 -28 27q23 9 127 49l-25 -49q-30 -57 -47 -104q-25 -68 -25 -116q0 -58 23 -100q30 -56 93 -56q40 0 76 23q45 28 47 76v257
q0 22 -28 61h128q-9 -11 -18 -21q-15 -20 -15 -43v-235q4 -46 8 -55q5 -15 38 -56zM176 508h32l96 91h-68q-21 -30 -60 -91z" />
    <glyph glyph-name="ugrave" unicode="&#xf9;" horiz-adv-x="461" 
d="M419 43q-18 -17 -54 -49q-13 7 -27 32q-22 38 -26 44q-69 -79 -150 -79q-69 0 -113.5 46.5t-44.5 113.5q0 50 38 137t38 78q0 4 -15 19q-23 21 -28 27q23 9 127 49l-25 -49q-30 -57 -47 -104q-25 -68 -25 -116q0 -58 23 -100q30 -56 93 -56q40 0 76 23q45 28 47 76v257
q0 22 -28 61h128q-9 -11 -18 -21q-15 -20 -15 -43v-235q4 -46 8 -55q5 -15 38 -56zM270 508h-32l-96 91h68q22 -30 60 -91z" />
    <glyph glyph-name="ucircumflex" unicode="&#xfb;" horiz-adv-x="461" 
d="M419 43q-18 -17 -54 -49q-13 7 -27 32q-22 38 -26 44q-69 -79 -150 -79q-69 0 -113.5 46.5t-44.5 113.5q0 50 38 137t38 78q0 4 -15 19q-23 21 -28 27q23 9 127 49l-25 -49q-30 -57 -47 -104q-25 -68 -25 -116q0 -58 23 -100q30 -56 93 -56q40 0 76 23q45 28 47 76v257
q0 22 -28 61h128q-9 -11 -18 -21q-15 -20 -15 -43v-235q4 -46 8 -55q5 -15 38 -56zM321 496l-20 -1q-10 12 -43 31q-36 22 -46 31q-5 -5 -42 -28q-33 -20 -43 -34l-25 1q56 61 86 97q39 2 49 0q58 -62 84 -97z" />
    <glyph glyph-name="udieresis" unicode="&#xfc;" horiz-adv-x="458" 
d="M419 43q-18 -17 -54 -49q-13 7 -27 32q-22 38 -26 44q-69 -79 -150 -79q-69 0 -113.5 46.5t-44.5 113.5q0 50 38 137t38 78q0 4 -15 19q-23 21 -28 27q23 9 127 49l-25 -49q-30 -57 -47 -104q-25 -68 -25 -116q0 -58 23 -100q30 -56 93 -56q40 0 76 23q45 28 47 76v257
q0 22 -28 61h128q-9 -11 -18 -21q-15 -20 -15 -43v-235q4 -46 8 -55q5 -15 38 -56zM336 555q0 -20 -13.5 -34.5t-31.5 -14.5t-32 16t-14 33t14 31.5t32 14.5t31.5 -14.5t13.5 -31.5zM192 553q0 -20 -13 -33.5t-31 -13.5q-19 0 -32 18q-11 15 -11 31q0 17 13.5 31.5
t31.5 14.5q42 0 42 -48z" />
    <glyph glyph-name="dagger" unicode="&#x2020;" horiz-adv-x="322" 
d="M162 444q16 1 44 11.5t41 10.5q30 0 30 -30q0 -33 -33 -33q-13 0 -40 10.5t-42 11.5q0 -71 27 -111q-20 -54 -25 -129q-2 -34 -2 -133h-20q0 100 -2 133q-5 74 -25 129q27 41 27 111q-15 -1 -42 -11.5t-40 -10.5q-33 0 -33 33q0 30 30 30q13 0 41 -10.5t44 -11.5
q0 19 -11 53t-11 50q0 34 32 34t32 -34q0 -16 -11 -50t-11 -53z" />
    <glyph glyph-name="degree" unicode="&#xb0;" horiz-adv-x="259" 
d="M107 678q36 0 61.5 -25t25.5 -61t-25.5 -61.5t-61.5 -25.5q-35 0 -60.5 25.5t-25.5 61.5t25.5 61t60.5 25zM107 649q-23 0 -40 -17t-17 -40q0 -24 17 -40.5t40 -16.5q24 0 41 16.5t17 40.5q0 23 -17 40t-41 17z" />
    <glyph glyph-name="cent" unicode="&#xa2;" horiz-adv-x="470" 
d="M209 129v370q-62 -16 -100 -73q-34 -52 -34 -118q0 -64 38 -113t96 -66zM237 -2h-28v64q-92 3 -144 77q-46 63 -46 146q0 96 50.5 161t139.5 79v58h28v-55h16q58 0 103 -21q56 -28 56 -79q0 -46 -23 -76.5t-61 -30.5q-23 0 -35 15t-12 35t11.5 33.5t32.5 11.5q22 -2 29 0
q11 4 11 22q0 39 -45 56q-29 11 -66 11q-11 0 -17 -1v-381q8 -1 23 -1q42 0 86 22q21 11 74 48l8 -9q-73 -108 -191 -120v-65z" />
    <glyph glyph-name="sterling" unicode="&#xa3;" horiz-adv-x="530" 
d="M516 0q1 -46 -96 -61q-80 0 -112 14q-24 10 -82 46q-50 31 -55 31t-21 -11t-22 -13q-19 -7 -57 -10q-70 0 -71 47q-1 24 25 38q21 12 47 12q31 0 98 -23q30 32 29 89q-5 18 -15 60q-1 0 0 -2q2 -1 -4 -2q-9 0 -93 -44l-20 37l98 46q-15 30 -26 54q-27 58 -29 79
q-8 91 56 150q59 54 146 55q60 1 105 -36.5t46 -95.5q1 -47 -30 -78t-72 -31q-28 0 -55 23t-27 50q0 14 14 33t27 18q7 1 14 -2t8 -3q-11 -11 -11 -23q0 -13 16 -23q13 -8 23 -8q28 1 41 28q8 18 8 37q-1 39 -35 63q-30 21 -69 20q-60 -1 -103 -32q-51 -37 -50 -102
q0 -28 19.5 -71.5t42.5 -73.5q26 10 84 37l18 -37q-30 -11 -88 -43q12 -21 13 -55q2 -74 -54 -130q93 -65 160 -64q39 1 67 16q36 20 35 58q27 -23 36 -32q21 -21 21 -35zM141 46q-27 20 -65 19q-41 -1 -48 -28q14 -14 41 -13q22 1 32 3q16 4 40 19z" />
    <glyph glyph-name="section" unicode="&#xa7;" horiz-adv-x="0" 
 />
    <glyph glyph-name="bullet" unicode="&#x2022;" horiz-adv-x="342" 
d="M81 267q0 41 28.5 70.5t68.5 29.5t68.5 -29.5t28.5 -70.5t-28.5 -70t-68.5 -29t-68.5 29t-28.5 70z" />
    <glyph glyph-name="paragraph" unicode="&#xb6;" horiz-adv-x="438" 
d="M18 498q0 -83 59 -134q56 -50 140 -49l1 -146q0 -25 1 -69v-54q0 -72 -14 -91.5t-69 -19.5q10 16 10 27q0 18 -13 30t-31 12t-30 -11.5t-12 -29.5q0 -58 99 -58q31 0 57 14q21 12 42 25l1 734q-20 2 -38 2q-90 0 -142 -40q-61 -46 -61 -142zM305 676h115v-18
q-13 0 -34 -23q-24 -25 -26 -50q-3 -32 0 -380q1 -138 -4.5 -161t-50.5 -73v705z" />
    <glyph glyph-name="germandbls" unicode="&#xdf;" horiz-adv-x="419" 
d="M7 455h36v80q0 56 44.5 96.5t100.5 40.5q55 0 92.5 -34.5t37.5 -88.5q0 -46 -44 -83q-23 -17 -47 -35q61 -10 106 -95q40 -77 39 -148q-2 -84 -46 -174q-57 -114 -145 -114h-32v23q85 -4 129 94q33 73 33 171q0 60 -34 132q-40 82 -92 91q-22 4 -41 8v33q118 10 118 92
q0 36 -22 65.5t-57 29.5q-13 0 -32 -10.5t-28 -21.5q-18 -22 -21 -59v-64v-384q0 -36 -18 -67q-19 -35 -51 -42q-7 9 -28 47q38 35 38 56v328h-36v33z" />
    <glyph glyph-name="registered" unicode="&#xae;" horiz-adv-x="456" 
d="M218 686q76 0 131.5 -53t55.5 -130q0 -74 -57 -128.5t-132 -54.5q-76 0 -129 53.5t-53 130.5q0 75 54.5 128.5t129.5 53.5zM54 504q0 -67 47.5 -116t114.5 -49t115.5 47.5t48.5 113.5q0 68 -47.5 117t-114.5 49t-115.5 -47.5t-48.5 -114.5zM185 497v-60q0 -20 5.5 -24.5
t29.5 -4.5v-10h-106v10q24 0 29.5 4.5t5.5 24.5v131q0 19 -5.5 23.5t-29.5 4.5v12h78q65 0 81 -5q32 -9 33 -47q1 -36 -27 -47q-22 -4 -45 -8q31 -9 44 -33q5 -11 11 -41q4 -19 14 -19q18 0 18 38h11q0 -54 -44 -54q-30 0 -37 27q-3 25 -8 51.5t-33 26.5h-25zM263 557
q0 35 -53 35q-18 0 -21.5 -3.5t-3.5 -19.5v-58h21q57 0 57 46z" />
    <glyph glyph-name="copyright" unicode="&#xa9;" horiz-adv-x="771" 
d="M377 686q144 0 245 -103.5t101 -249.5q0 -144 -104 -245.5t-248 -101.5t-245.5 103.5t-101.5 249.5q0 143 104.5 245t248.5 102zM63 339q0 -129 90 -222t218 -93q129 0 222 90.5t93 218.5q0 129 -91 222t-218 93q-129 0 -221.5 -90.5t-92.5 -218.5zM513 553h22v-167h-20
q-12 62 -45 102q-38 47 -95 47t-90 -55.5t-33 -142.5q0 -78 34 -129q38 -56 106 -56q70 0 135 94l18 -10q-74 -115 -184 -115q-80 0 -137.5 65t-57.5 155t62 155q59 63 137 63q42 0 81.5 -19t43.5 -19q23 0 23 32z" />
    <glyph glyph-name="trademark" unicode="&#x2122;" horiz-adv-x="494" 
d="M429 662v-196h-27v167h-2l-66 -167h-17l-65 167v-167h-28v196h46l56 -141l57 141h46zM187 662v-29h-64v-167h-28v167h-65v29h157z" />
    <glyph glyph-name="acute" unicode="&#xb4;" horiz-adv-x="183" 
d="M29 506h25q7 0 51 41.5t62 66.5h-67q-35 -47 -71 -108z" />
    <glyph glyph-name="dieresis" unicode="&#xa8;" horiz-adv-x="242" 
d="M234 561q0 -20 -13.5 -31.5t-30.5 -11.5q-19 0 -31 13.5t-12 29.5q0 18 14 31t31 13q19 0 30.5 -13.5t11.5 -30.5zM94 561q0 -43 -44 -43q-43 0 -43 45q0 19 13.5 30.5t29.5 11.5q20 0 32 -13.5t12 -30.5z" />
    <glyph glyph-name="AE" unicode="&#xc6;" horiz-adv-x="1099" 
d="M1105 544q0 -73 -76 -113q-51 -27 -162 -47q-121 -21 -147 -31q-35 -14 -60 -34q-60 -49 -60 -61q0 -11 39 -89q30 -61 90.5 -97t129.5 -36q65 0 111 35q50 38 46 102q29 -12 29 -50q0 -63 -73 -101q-62 -33 -131 -33q-70 0 -137.5 30.5t-114.5 83.5q-3 -4 -3 -10
q0 -33 5.5 -47t27.5 -39v-7l-139 4q23 27 30 44t7 50q0 114 -68.5 205.5t-177.5 127.5q-69 -108 -69 -268q0 -178 90 -225q-2 -8 -101 -72h-9v22v31l-15 158q-8 84 -8 79q0 143 70 280q-7 12 -31 12q-146 0 -146 -62q0 -26 30 -26q7 0 30 7v-22q0 -14 -20 -29.5t-35 -15.5
q-25 0 -42 20.5t-17 44.5q0 60 66 92q52 24 120 24q11 0 32.5 -3.5t32.5 -3.5q4 0 26 30q92 124 257 156q42 8 63 8q1 0 10.5 -2t11.5 -2q-34 -43 -34 -104l6 -6q101 121 235 121q52 0 97 -20q57 -26 57 -72q0 -24 -14 -39.5t-38 -15.5q-20 0 -35 15q17 23 17 35
q0 30 -38 47q-31 13 -66 13q-100 0 -163 -89q-58 -80 -58 -184q0 -8 2 -25.5t3 -25t7 -7.5q3 0 26.5 23t26.5 25q35 32 70.5 48.5t93.5 26.5q90 16 97 18q49 11 97 21q66 21 66 59q0 25 -44 48q20 22 37 22q40 0 40 -54zM512 287v327h-23q-38 0 -112 -56t-88 -93
q120 -47 223 -178z" />
    <glyph glyph-name="Oslash" unicode="&#xd8;" horiz-adv-x="605" 
d="M555 342q0 -132 -72 -232q-81 -112 -207 -112q-61 0 -130 40q-15 -15 -46 -72q-9 -1 -23 7q2 4 22 45q18 35 18 38q0 4 -25 38q-29 39 -30 41q-17 27 -31 85q-13 55 -13 90q0 75 32 159q37 93 92 129q12 2 12 -8q0 -4 -9 -15q-5 -7 -11 -15q-50 -82 -50 -192
q0 -136 74 -234l244 418q-50 66 -111 66q-20 0 -39 -11t-19 -30q0 -10 11 -20.5t21 -10.5q13 0 30 13q5 -9 5 -23q0 -50 -52 -50q-29 0 -47 23t-18 53q0 47 38 75q33 25 82 25q66 0 131 -47q11 14 39 63q25 0 25 -13q0 -5 -18 -35t-18 -35q0 -3 20 -28t22 -29
q51 -87 51 -196zM495 294q0 55 -19 122q-21 72 -52 110l-240 -420q43 -31 58 -38q28 -13 67 -13q91 0 142 77q44 66 44 162z" />
    <glyph glyph-name="plusminus" unicode="&#xb1;" 
 />
    <glyph glyph-name="yen" unicode="&#xa5;" horiz-adv-x="442" 
d="M429 598q0 -54 -41 -121q-25 -39 -77 -99q-41 -48 -41 -57v-12l87 -1l1 -34h-88v-65h87l1 -35h-88v-110q0 -18 10 -36q10 -14 19 -28q-70 -2 -132 0q29 34 29 61v113h-90l1 35h89v65h-90l1 35h89v18q0 3 -44 91q-47 93 -51 102q-19 46 -33 72q-19 41 -54 66l148 -1
q-8 -14 -16 -29q-3 -8 -3 -31q0 -26 47 -110q32 -56 64 -111q38 21 80 89.5t42 112.5q0 18 -11.5 32t-28.5 14q-13 0 -44 -23q-8 13 -8 28q0 24 20 43t44 19q35 0 58 -28.5t23 -64.5z" />
    <glyph glyph-name="mu" unicode="&#xb5;" horiz-adv-x="551" 
d="M8 258q6 6 78 83v247q-10 44 -38 72h148q-12 -16 -24.5 -32.5t-12.5 -38.5v-169l82 89v-41l-82 -88v-179q0 -21 -12 -65t-22 -57l7 -5q3 0 24 3t26 3q4 0 98 -19.5t98 -19.5q46 0 75.5 29t29.5 73q0 42 -27 75.5t-71 33.5q-21 0 -38 -11q-20 -12 -20 -32q0 -28 46 -37
q-15 -32 -46 -32q-29 0 -49 24q-17 21 -17 45q0 45 37 70q30 20 66 20q63 0 107.5 -46t44.5 -105q0 -73 -49.5 -118t-119.5 -45q-37 0 -105 18t-100 18q-24 0 -54 -11.5t-32 -11.5q-5 0 -24 22t-19 27q0 2 23.5 31t28.5 41q21 48 21 93v89l-76 -81z" />
    <glyph glyph-name="mu" unicode="&#x3bc;" horiz-adv-x="551" 
d="M8 258q6 6 78 83v247q-10 44 -38 72h148q-12 -16 -24.5 -32.5t-12.5 -38.5v-169l82 89v-41l-82 -88v-179q0 -21 -12 -65t-22 -57l7 -5q3 0 24 3t26 3q4 0 98 -19.5t98 -19.5q46 0 75.5 29t29.5 73q0 42 -27 75.5t-71 33.5q-21 0 -38 -11q-20 -12 -20 -32q0 -28 46 -37
q-15 -32 -46 -32q-29 0 -49 24q-17 21 -17 45q0 45 37 70q30 20 66 20q63 0 107.5 -46t44.5 -105q0 -73 -49.5 -118t-119.5 -45q-37 0 -105 18t-100 18q-24 0 -54 -11.5t-32 -11.5q-5 0 -24 22t-19 27q0 2 23.5 31t28.5 41q21 48 21 93v89l-76 -81z" />
    <glyph glyph-name="ordfeminine" unicode="&#xaa;" horiz-adv-x="550" 
d="M525 125q0 -56 -46.5 -92.5t-103.5 -36.5q-47 0 -125 32t-114 32q-64 0 -107 -61h-21q-5 5 -5 15q0 116 103 227q32 34 201 173q117 96 135 162q-4 5 -7 5q-12 0 -38 -6.5t-39 -6.5q-37 0 -104.5 23.5t-102.5 23.5q-38 0 -63 -18q-28 -20 -28 -56q0 -50 44 -50
q12 0 22.5 8t10.5 20q0 10 -20 30q15 15 29 15q18 0 31.5 -14.5t13.5 -33.5q0 -27 -21 -46t-48 -19q-35 0 -58.5 25.5t-23.5 61.5q0 56 47 94q43 36 100 36q38 0 106.5 -23.5t102.5 -23.5q52 0 93 37h15q4 -3 4 -10q0 -12 -22 -72q-30 -82 -114 -160l-158 -130
q-95 -79 -138 -152q-15 -25 -19 -49h-1q0 -2 6 -2q-4 0 39 18.5t76 18.5q56 0 131 -42t103 -42q27 0 49 18.5t22 45.5q0 21 -16 37t-38 16q-29 0 -48 -23q-12 14 -12 32q0 27 19.5 42.5t47.5 15.5q40 0 65 -27t25 -68zM414 808l-23 1q-11 -13 -48 -34q-40 -24 -51 -34
q-5 5 -47 30q-36 22 -48 38l-27 -1q61 -68 95 -108q44 -1 55 0q33 36 94 108z" />
    <glyph glyph-name="ordmasculine" unicode="&#xba;" horiz-adv-x="440" 
d="M394 113q0 -50 -33 -84.5t-82 -34.5q-31 0 -159 27q-16 3 -57 -11q-37 -13 -53 -25q-5 4 -5 11q0 5 12 38q69 191 256 392q-5 5 -19 5q-107 0 -209 -73h-11l57 126q10 -28 58 -28h245q-88 -77 -169 -183q-89 -117 -128 -215q51 26 78 26q10 0 20 -3q3 -1 58 -19
q45 -14 52 -14q55 0 55 40q0 27 -25 27q-19 0 -33 -27q-8 4 -15 16t-7 21q0 19 16 34.5t36 15.5q25 0 43.5 -18.5t18.5 -43.5zM354 598l-23 1q-11 -13 -48 -34q-40 -24 -51 -34q-5 5 -47 30q-36 22 -48 38l-27 -1q61 -68 95 -108q44 -1 55 0q33 36 94 108z" />
    <glyph glyph-name="ae" unicode="&#xe6;" horiz-adv-x="749" 
d="M718 100q-63 -106 -186 -106q-112 0 -183 108q-5 0 -7 -3q-76 -109 -182 -109q-67 0 -113 44.5t-46 111.5t55 114q52 45 120 45q44 0 102 -22q0 -1 2 -1t6 2q-20 61 -58 98q-44 44 -103 44q-68 0 -68 -44q0 -25 21 -25q16 0 19 26h10q8 0 18 -13.5t10 -22.5
q0 -20 -15.5 -33t-36.5 -13q-30 0 -49.5 18t-19.5 48q0 43 44 68q37 20 84 20q125 0 192 -127q34 59 47 73q54 58 137 58q35 0 86 -16q71 -22 85 -25l-233 -324q35 -41 115 -41q66 0 136 59zM587 364q0 30 -22.5 46t-54.5 16q-58 0 -101.5 -52t-43.5 -112q0 -37 19 -81
q20 -48 48 -66q49 64 137 194q18 31 18 55zM315 157q0 53 -36 84t-90 31q-51 0 -85 -30q-37 -31 -37 -81q0 -53 37.5 -87t91.5 -34q50 0 84.5 34t34.5 83z" />
    <glyph glyph-name="oslash" unicode="&#xf8;" horiz-adv-x="526" 
d="M470 225q0 -96 -65 -162.5t-161 -66.5q-51 0 -103 26q-10 -18 -32 -51l-23 13q15 21 30 51q-105 90 -105 208q0 94 67.5 156.5t162.5 62.5q35 0 55 -5q25 -9 51 -18q10 17 29 51q8 -5 24 -16q-10 -17 -28 -53q98 -80 98 -196zM411 187q0 47 -20.5 96t-53.5 81
q0 -2 -83.5 -147.5t-84.5 -145.5q69 -38 101 -38q60 0 102 47q39 46 39 107zM317 387q-48 39 -103 39q-63 0 -101.5 -41.5t-38.5 -105.5q0 -116 75 -188z" />
    <glyph glyph-name="questiondown" unicode="&#xbf;" horiz-adv-x="359" 
d="M14 -11q0 75 57 128q1 1 104 75q57 41 57 84q0 7 -8 13q-3 0 -11.5 -3t-12.5 -3q-21 0 -21 25q0 12 12 21t25 9q19 0 36 -14.5t17 -33.5q0 -50 -45 -103q-42 -46 -84 -93q-45 -58 -45 -120q0 -60 28 -99q31 -43 89 -43q41 0 74 22q38 25 38 64q0 23 -13 41.5t-36 18.5
q-27 0 -33 -25q-17 7 -17 37q0 23 19.5 39t43.5 16q44 0 70.5 -28.5t26.5 -72.5q0 -72 -58 -110q-49 -32 -125 -32q-82 0 -135 52.5t-53 134.5zM283 436q0 -25 -17 -44.5t-42 -19.5t-43.5 19t-18.5 44q0 24 18 43t42 19q26 0 43.5 -17.5t17.5 -43.5z" />
    <glyph glyph-name="exclamdown" unicode="&#xa1;" horiz-adv-x="220" 
d="M38 -82q0 60 31.5 174.5t31.5 173.5q0 8 -2 23.5t-2 23.5q5 5 11 5q29 0 29 -109q0 -33 -4 -100t-4 -101q0 -9 -2 -27t-2 -28q0 -65 52 -109q-90 -28 -118 -52q-21 65 -21 126zM163 426q0 -25 -17 -44.5t-42 -19.5t-43.5 19t-18.5 44q0 24 18 43t42 19q26 0 43.5 -17.5
t17.5 -43.5z" />
    <glyph glyph-name="logicalnot" unicode="&#xac;" 
 />
    <glyph glyph-name="florin" unicode="&#x192;" 
 />
    <glyph glyph-name="guillemotleft" unicode="&#xab;" horiz-adv-x="408" 
d="M76 269l105 -171h39l-76 173l72 178h-35zM204 273l113 -175h31q-22 59 -76 173l76 178h-39z" />
    <glyph glyph-name="guillemotright" unicode="&#xbb;" horiz-adv-x="376" 
d="M348 269l-105 -171h-39l76 173l-72 178h35zM220 273l-113 -175h-31q22 59 76 173l-76 178h39z" />
    <glyph glyph-name="ellipsis" unicode="&#x2026;" horiz-adv-x="746" 
d="M683 56q0 -25 -17 -44.5t-42 -19.5q-24 0 -43 19t-19 44q0 23 18.5 42.5t41.5 19.5q26 0 43.5 -17.5t17.5 -43.5zM453 56q0 -25 -17 -44.5t-42 -19.5q-24 0 -43 19t-19 44q0 23 18.5 42.5t41.5 19.5q26 0 43.5 -17.5t17.5 -43.5zM223 56q0 -25 -17 -44.5t-42 -19.5
q-24 0 -43 19t-19 44q0 23 18.5 42.5t41.5 19.5q26 0 43.5 -17.5t17.5 -43.5z" />
    <glyph glyph-name="nonbreakingspace" unicode="&#xa0;" horiz-adv-x="215" 
 />
    <glyph glyph-name="Agrave" unicode="&#xc0;" horiz-adv-x="662" 
d="M625 0l-146 1q36 45 36 78q0 160 -104 266q-24 24 -65 54q-51 36 -72 36q-5 0 -20 -30q-55 -107 -55 -246q0 -184 96 -226q-33 -27 -116 -75v108q0 31 -10 92.5t-10 92.5q0 150 77 295q-6 4 -17 4q-7 1 -20 0q-15 -1 -18 -1q-41 0 -77 -13q-49 -18 -49 -52q0 -30 27 -30
q13 0 30 7q0 -60 -57 -60q-24 0 -38.5 18.5t-14.5 43.5q0 65 62 96q48 23 120 23q33 0 66 -6q29 33 92 93q56 44 131.5 69.5t147.5 25.5q-3 -13 -19 -36q-13 -19 -13 -42l-1 -464q0 -70 37 -122zM515 288v320q0 6 -6 6q-59 0 -125 -50q-61 -46 -92 -102q40 -19 114 -65
q24 -19 56 -53q45 -48 53 -56zM470 694h-32q-7 0 -47.5 41t-59.5 66h67q35 -45 72 -107z" />
    <glyph glyph-name="Atilde" unicode="&#xc3;" horiz-adv-x="662" 
d="M625 0l-146 1q36 45 36 78q0 160 -104 266q-24 24 -65 54q-51 36 -72 36q-5 0 -20 -30q-55 -107 -55 -246q0 -184 96 -226q-33 -27 -116 -75v108q0 31 -10 92.5t-10 92.5q0 150 77 295q-6 4 -17 4q-7 1 -20 0q-15 -1 -18 -1q-41 0 -77 -13q-49 -18 -49 -52q0 -30 27 -30
q13 0 30 7q0 -60 -57 -60q-24 0 -38.5 18.5t-14.5 43.5q0 65 62 96q48 23 120 23q33 0 66 -6q29 33 92 93q56 44 131.5 69.5t147.5 25.5q-3 -13 -19 -36q-13 -19 -13 -42l-1 -464q0 -70 37 -122zM515 288v320q0 6 -6 6q-59 0 -125 -50q-61 -46 -92 -102q40 -19 114 -65
q24 -19 56 -53q45 -48 53 -56zM522 783q0 -31 -30 -52q-26 -18 -52 -18q-5 0 -62 18t-62 18q-14 0 -30 -8q-20 -11 -17 -27h-19v25q0 25 28 43q25 15 48 15q5 0 65 -18t65 -18q35 0 47 36h19v-14z" />
    <glyph glyph-name="Otilde" unicode="&#xd5;" horiz-adv-x="600" 
d="M550 350q0 -127 -66 -231q-80 -124 -216 -124q-128 0 -200 114q-58 92 -58 203q0 84 32 164q38 94 103 130q0 -4 7 -11q-76 -98 -76 -229q0 -116 58 -209q65 -106 169 -106q96 0 146 90q38 68 38 154q0 73 -24 145q-31 90 -91 145q-42 38 -84 38q-21 0 -37 -10
q-19 -12 -19 -31q0 -28 30 -28q2 0 32 9q0 -3 2 -10t2 -11q0 -21 -17 -38t-36 -17q-29 0 -49 26t-20 52q0 50 41 78q34 23 83 23q55 0 103 -29q147 -89 147 -287zM402 783q0 -31 -30 -52q-26 -18 -52 -18q-5 0 -62 18t-62 18q-14 0 -30 -8q-20 -11 -17 -27h-19v25
q0 25 28 43q25 15 48 15q5 0 65 -18t65 -18q35 0 47 36h19v-14z" />
    <glyph glyph-name="OE" unicode="&#x152;" horiz-adv-x="1048" 
d="M551 296q98 103 193 122q30 5 91 16l110 22q78 21 78 60q0 32 -45 41q0 11 14.5 20t25.5 9q20 0 32 -17t12 -37q0 -129 -264 -165q-80 -11 -125 -27q-20 -7 -63 -40q-47 -36 -47 -51q0 -5 18 -50q31 -77 90.5 -121t139.5 -44q63 0 108 35q51 39 43 100q15 -2 25 -17.5
t10 -32.5q0 -64 -73 -101q-60 -30 -131 -30q-203 0 -278 191q-76 -184 -247 -184q-128 0 -200 114q-58 92 -58 203q0 84 32 164q38 94 103 130q0 -4 7 -11q-76 -98 -76 -229q0 -116 58 -209q65 -106 169 -106q94 0 144 87q38 66 40 152q-3 46 -5 91q-5 54 -25 96
q-26 54 -85 108q-42 38 -84 38q-21 0 -37 -10q-19 -12 -19 -31q0 -28 30 -28q2 0 32 9q0 -3 2 -10t2 -11q0 -21 -17 -38t-36 -17q-29 0 -49 26t-20 52q0 50 41 78q34 23 83 23q55 0 103 -29q82 -50 118 -137q40 73 110 117t155 44q51 0 96 -22q56 -28 56 -73q0 -59 -56 -59
q-20 0 -38 11q16 21 16 45q0 29 -38 46q-29 13 -63 13q-78 0 -140 -69q-57 -64 -72 -151q-3 -36 4 -106z" />
    <glyph glyph-name="oe" unicode="&#x153;" horiz-adv-x="817" 
d="M423 111q-27 -56 -78 -90t-112 -34q-96 0 -160 77q-61 73 -61 171q0 90 62.5 158.5t152.5 68.5q61 0 112 -34t80 -91q26 59 77 93t115 34q32 0 79 -14l78 -24l-231 -332q0 -16 50 -28q41 -11 64 -11q72 0 145 66q5 -4 5 -10q0 -10 -27 -40t-40 -38q-57 -37 -119 -37
q-68 0 -119 36q-10 -4 -19 -20.5t-9 -27.5q0 -16 20 -36q-12 -15 -24 -35q-14 5 -25 24t-11 34q0 16 16.5 50.5t16.5 33.5q0 4 -17 27q-20 27 -21 29zM666 371q0 31 -21.5 48.5t-52.5 17.5q-60 0 -105 -51.5t-45 -112.5q0 -15 6 -54q9 -58 58 -101l94 124q66 91 66 129z
M395 177q0 83 -53 160q-58 85 -137 85q-61 0 -97.5 -43.5t-36.5 -106.5q0 -84 50 -163q57 -89 135 -89q61 0 101 49q38 46 38 108z" />
    <glyph glyph-name="endash" unicode="&#x2013;" horiz-adv-x="540" 
d="M469 234h-441v54h441v-54z" />
    <glyph glyph-name="emdash" unicode="&#x2014;" horiz-adv-x="1040" 
d="M969 234h-941v54h941v-54z" />
    <glyph glyph-name="quotedblleft" unicode="&#x201c;" horiz-adv-x="376" 
d="M19 539q0 46 37 88t83 42q15 0 31 -14q-48 -14 -62 -23q-26 -18 -26 -57q0 -34 28 -34q19 0 24 17q19 -12 19 -42q0 -26 -16 -46t-41 -20q-77 0 -77 89zM189 539q0 46 37 88t83 42q15 0 31 -14q-48 -14 -62 -23q-26 -18 -26 -57q0 -34 28 -34q19 0 24 17q19 -12 19 -42
q0 -26 -16 -46t-41 -20q-77 0 -77 89z" />
    <glyph glyph-name="quotedblright" unicode="&#x201d;" horiz-adv-x="400" 
d="M340 579q0 -46 -37 -87.5t-83 -41.5q-17 0 -31 14q47 13 62 23q25 18 25 57q0 34 -28 34q-18 0 -23 -18q-19 12 -19 42q0 26 16 46.5t41 20.5q77 0 77 -90zM170 579q0 -46 -37 -87.5t-83 -41.5q-17 0 -31 14q47 13 62 23q25 18 25 57q0 34 -28 34q-18 0 -23 -18
q-19 12 -19 42q0 26 16 46.5t41 20.5q77 0 77 -90z" />
    <glyph glyph-name="quoteleft" unicode="&#x2018;" horiz-adv-x="206" 
d="M19 539q0 46 37 88t83 42q15 0 31 -14q-48 -14 -62 -23q-26 -18 -26 -57q0 -34 28 -34q19 0 24 17q19 -12 19 -42q0 -26 -16 -46t-41 -20q-77 0 -77 89z" />
    <glyph glyph-name="quoteright" unicode="&#x2019;" horiz-adv-x="230" 
d="M170 579q0 -46 -37 -87.5t-83 -41.5q-17 0 -31 14q47 13 62 23q25 18 25 57q0 34 -28 34q-18 0 -23 -18q-19 12 -19 42q0 26 16 46.5t41 20.5q77 0 77 -90z" />
    <glyph glyph-name="divide" unicode="&#xf7;" horiz-adv-x="410" 
d="M259 401q0 -20 -14.5 -33.5t-35.5 -13.5t-36 14t-15 33q0 20 15 34t36 14t35.5 -14t14.5 -34zM266 141q0 -20 -14.5 -33.5t-35.5 -13.5t-36 14t-15 33q0 20 15 34t36 14t35.5 -14t14.5 -34zM51 249v40h317v-40h-317z" />
    <glyph glyph-name="ydieresis" unicode="&#xff;" horiz-adv-x="459" 
d="M405 455q-30 -45 -30 -57v-323q0 -97 -5 -126q-17 -88 -83 -125q-39 -22 -88 -22q-33 0 -58 12q-35 16 -35 49q0 40 44 40q15 0 33 -11q-8 -12 -8 -22q0 -15 17 -25q14 -9 30 -9q48 0 72 48q17 34 17 78v110q-23 -30 -69.5 -54.5t-84.5 -24.5q-57 0 -101.5 50t-46.5 106
t16 113q12 40 33 78q18 33 18 31q0 4 -17 20q-21 21 -26 28q41 14 141 55q-31 -49 -63 -97q-52 -95 -52 -167q0 -54 35 -104q41 -59 101 -59q62 0 116 66v294q0 10 -12 24q-16 19 -18 24h124zM334 561q0 -20 -13.5 -31.5t-30.5 -11.5q-19 0 -31 13.5t-12 29.5q0 18 14 31
t31 13q19 0 30.5 -13.5t11.5 -30.5zM194 561q0 -43 -44 -43q-43 0 -43 45q0 19 13.5 30.5t29.5 11.5q20 0 32 -13.5t12 -30.5z" />
    <glyph glyph-name="Ydieresis" unicode="&#x178;" horiz-adv-x="533" 
d="M490 673q-16 -44 -20 -110q-1 -56 -3 -112q-5 -78 -22 -182q-22 -132 -41 -191q-34 -104 -98 -165q-44 -42 -95 -42q-27 0 -46.5 17.5t-19.5 44.5q0 9 8 30q31 -26 63 -26q60 0 110 80q36 58 56 136l-3 15q-50 -36 -67 -45q-36 -18 -78 -18q-87 0 -134 71q-41 60 -41 151
q0 111 76 259q-47 19 -79 19q-13 0 -26 -9v-16q12 -15 30 -12q-1 -8 -10 -19t-17 -11q-30 0 -30 38q0 26 21 47t47 21q-2 0 38 -1q29 -1 46 0q25 2 35 8l2 -5q-73 -139 -73 -251q0 -87 32 -149q40 -78 119 -78q90 0 132 110q29 79 29 188q0 124 -52 187q56 14 111 20z
M394 751q0 -20 -13.5 -31.5t-30.5 -11.5q-19 0 -31 13.5t-12 29.5q0 18 14 31t31 13q19 0 30.5 -13.5t11.5 -30.5zM254 751q0 -43 -44 -43q-43 0 -43 45q0 19 13.5 30.5t29.5 11.5q20 0 32 -13.5t12 -30.5z" />
    <glyph glyph-name="currency" unicode="&#xa4;" 
 />
    <glyph glyph-name="guilsinglleft" unicode="&#x2039;" horiz-adv-x="260" 
d="M56 273l113 -175h31q-22 59 -76 173l76 178h-39z" />
    <glyph glyph-name="guilsinglright" unicode="&#x203a;" horiz-adv-x="228" 
d="M200 273l-113 -175h-31q22 59 76 173l-76 178h39z" />
    <glyph glyph-name="daggerdbl" unicode="&#x2021;" horiz-adv-x="330" 
d="M165 464q14 0 41.5 11t42.5 11q30 0 30 -30q0 -33 -33 -33q-13 0 -40 10.5t-42 11.5q0 -69 28 -108q-28 -39 -28 -109q15 0 41.5 11t41.5 11q32 0 32 -33q0 -30 -30 -30q-15 0 -42.5 11t-42.5 11q0 -18 11 -52t11 -51q0 -34 -32 -34q-31 0 -31 34q0 18 10.5 51.5
t10.5 51.5q-14 0 -41.5 -11t-42.5 -11q-30 0 -30 30q0 33 32 33q15 0 41.5 -11t40.5 -11q0 71 -27 109q27 38 27 108q-15 -1 -42 -11.5t-40 -10.5q-32 0 -32 33q0 30 30 30q15 0 42.5 -11t41.5 -11q0 18 -10.5 52t-10.5 51q0 34 31 34q32 0 32 -33q0 -16 -11.5 -47.5
t-10.5 -48.5z" />
    <glyph glyph-name="periodcentered" unicode="&#xb7;" horiz-adv-x="234" 
d="M166 253q0 -22 -15 -38.5t-38 -16.5q-22 0 -37.5 17.5t-15.5 40.5q0 21 15.5 38.5t35.5 17.5q21 0 38 -18.5t17 -40.5z" />
    <glyph glyph-name="periodcentered" unicode="&#x2219;" horiz-adv-x="234" 
d="M166 253q0 -22 -15 -38.5t-38 -16.5q-22 0 -37.5 17.5t-15.5 40.5q0 21 15.5 38.5t35.5 17.5q21 0 38 -18.5t17 -40.5z" />
    <glyph glyph-name="quotesinglbase" unicode="&#x201a;" horiz-adv-x="238" 
d="M180 29q0 -46 -37 -87.5t-83 -41.5q-17 0 -31 14q47 13 62 23q25 18 25 57q0 34 -28 34q-18 0 -23 -18q-19 12 -19 42q0 26 16 46.5t41 20.5q77 0 77 -90z" />
    <glyph glyph-name="quotedblbase" unicode="&#x201e;" horiz-adv-x="398" 
d="M340 29q0 -46 -37 -87.5t-83 -41.5q-17 0 -31 14q47 13 62 23q25 18 25 57q0 34 -28 34q-18 0 -23 -18q-19 12 -19 42q0 26 16 46.5t41 20.5q77 0 77 -90zM170 29q0 -46 -37 -87.5t-83 -41.5q-17 0 -31 14q47 13 62 23q25 18 25 57q0 34 -28 34q-18 0 -23 -18
q-19 12 -19 42q0 26 16 46.5t41 20.5q77 0 77 -90z" />
    <glyph glyph-name="perthousand" unicode="&#x2030;" 
 />
    <glyph glyph-name="Acircumflex" unicode="&#xc2;" horiz-adv-x="662" 
d="M625 0l-146 1q36 45 36 78q0 160 -104 266q-24 24 -65 54q-51 36 -72 36q-5 0 -20 -30q-55 -107 -55 -246q0 -184 96 -226q-33 -27 -116 -75v108q0 31 -10 92.5t-10 92.5q0 150 77 295q-6 4 -17 4q-7 1 -20 0q-15 -1 -18 -1q-41 0 -77 -13q-49 -18 -49 -52q0 -30 27 -30
q13 0 30 7q0 -60 -57 -60q-24 0 -38.5 18.5t-14.5 43.5q0 65 62 96q48 23 120 23q33 0 66 -6q29 33 92 93q56 44 131.5 69.5t147.5 25.5q-3 -13 -19 -36q-13 -19 -13 -42l-1 -464q0 -70 37 -122zM515 288v320q0 6 -6 6q-59 0 -125 -50q-61 -46 -92 -102q40 -19 114 -65
q24 -19 56 -53q45 -48 53 -56zM514 691l-23 -1q-11 13 -48 34q-40 24 -51 34q-6 -6 -47 -30q-37 -22 -48 -38l-27 1q61 68 95 108q44 1 55 0q33 -36 94 -108z" />
    <glyph glyph-name="Ecircumflex" unicode="&#xca;" horiz-adv-x="619" 
d="M592 532q0 -129 -264 -165q-80 -11 -125 -27q-20 -7 -63 -40q-47 -36 -47 -51q0 -5 18 -50q31 -77 90.5 -121t139.5 -44q63 0 108 35q51 39 43 100q15 -2 25 -17.5t10 -32.5q0 -64 -73 -101q-60 -30 -131 -30q-143 0 -229 95q-83 92 -83 237q0 132 85 234q90 107 220 107
q51 0 96 -22q56 -28 56 -73q0 -59 -56 -59q-20 0 -38 11q16 21 16 45q0 29 -38 46q-29 13 -63 13q-90 0 -155 -88q-61 -82 -61 -178q0 -33 8 -60q98 103 193 122q30 5 91 16l110 22q78 21 78 60q0 32 -45 41q0 11 14.5 20t25.5 9q20 0 32 -17t12 -37zM414 691l-23 -1
q-11 13 -48 34q-40 24 -51 34q-6 -6 -47 -30q-37 -22 -48 -38l-27 1q61 68 95 108q44 1 55 0q33 -36 94 -108z" />
    <glyph glyph-name="Aacute" unicode="&#xc1;" horiz-adv-x="662" 
d="M625 0l-146 1q36 45 36 78q0 160 -104 266q-24 24 -65 54q-51 36 -72 36q-5 0 -20 -30q-55 -107 -55 -246q0 -184 96 -226q-33 -27 -116 -75v108q0 31 -10 92.5t-10 92.5q0 150 77 295q-6 4 -17 4q-7 1 -20 0q-15 -1 -18 -1q-41 0 -77 -13q-49 -18 -49 -52q0 -30 27 -30
q13 0 30 7q0 -60 -57 -60q-24 0 -38.5 18.5t-14.5 43.5q0 65 62 96q48 23 120 23q33 0 66 -6q29 33 92 93q56 44 131.5 69.5t147.5 25.5q-3 -13 -19 -36q-13 -19 -13 -42l-1 -464q0 -70 37 -122zM515 288v320q0 6 -6 6q-59 0 -125 -50q-61 -46 -92 -102q40 -19 114 -65
q24 -19 56 -53q45 -48 53 -56zM388 694l35 -4q5 0 47 47l56 64h-67q-30 -39 -71 -107z" />
    <glyph glyph-name="Edieresis" unicode="&#xcb;" horiz-adv-x="622" 
d="M592 532q0 -129 -264 -165q-80 -11 -125 -27q-20 -7 -63 -40q-47 -36 -47 -51q0 -5 18 -50q31 -77 90.5 -121t139.5 -44q63 0 108 35q51 39 43 100q15 -2 25 -17.5t10 -32.5q0 -64 -73 -101q-60 -30 -131 -30q-143 0 -229 95q-83 92 -83 237q0 132 85 234q90 107 220 107
q51 0 96 -22q56 -28 56 -73q0 -59 -56 -59q-20 0 -38 11q16 21 16 45q0 29 -38 46q-29 13 -63 13q-90 0 -155 -88q-61 -82 -61 -178q0 -33 8 -60q98 103 193 122q30 5 91 16l110 22q78 21 78 60q0 32 -45 41q0 11 14.5 20t25.5 9q20 0 32 -17t12 -37zM429 762
q0 -20 -13 -31.5t-30 -11.5q-19 0 -31 13.5t-12 29.5q0 18 14 30.5t31 12.5q18 0 29.5 -13.5t11.5 -29.5zM269 762q0 -43 -43 -43t-43 45q0 18 13.5 29.5t29.5 11.5q20 0 31.5 -13t11.5 -30z" />
    <glyph glyph-name="Egrave" unicode="&#xc8;" horiz-adv-x="619" 
d="M592 532q0 -129 -264 -165q-80 -11 -125 -27q-20 -7 -63 -40q-47 -36 -47 -51q0 -5 18 -50q31 -77 90.5 -121t139.5 -44q63 0 108 35q51 39 43 100q15 -2 25 -17.5t10 -32.5q0 -64 -73 -101q-60 -30 -131 -30q-143 0 -229 95q-83 92 -83 237q0 132 85 234q90 107 220 107
q51 0 96 -22q56 -28 56 -73q0 -59 -56 -59q-20 0 -38 11q16 21 16 45q0 29 -38 46q-29 13 -63 13q-90 0 -155 -88q-61 -82 -61 -178q0 -33 8 -60q98 103 193 122q30 5 91 16l110 22q78 21 78 60q0 32 -45 41q0 11 14.5 20t25.5 9q20 0 32 -17t12 -37zM360 694h-32
q-15 0 -107 107h67q35 -45 72 -107z" />
    <glyph glyph-name="Iacute" unicode="&#xcd;" horiz-adv-x="210" 
d="M154 0l-139 1q33 37 33 72v512q0 38 -33 75h138q1 -3 -15.5 -29.5t-16.5 -41.5l-1 -519q0 -13 11.5 -32.5t22.5 -37.5zM18 694h31q5 0 45 42q31 32 62 65h-67q-30 -39 -71 -107z" />
    <glyph glyph-name="Icircumflex" unicode="&#xce;" horiz-adv-x="210" 
d="M154 0l-139 1q34 39 34 63l-1 520q0 38 -33 75h138q1 -3 -15.5 -29.5t-16.5 -41.5l-1 -518q0 -13 11.5 -32.5t22.5 -37.5zM199 691l-23 -1q-11 13 -43 34q-36 24 -46 34q-5 -5 -42 -30q-31 -22 -43 -38l-27 1q61 68 85 108q44 1 55 0z" />
    <glyph glyph-name="Idieresis" unicode="&#xcf;" horiz-adv-x="210" 
d="M154 0l-139 1q34 39 34 63l-1 520q0 38 -33 75h138q1 -3 -15.5 -29.5t-16.5 -41.5l-1 -518q0 -13 11.5 -32.5t22.5 -37.5zM199 762q0 -20 -13 -31.5t-30 -11.5q-19 0 -31 13.5t-12 29.5q0 18 14 30.5t31 12.5q18 0 29.5 -13.5t11.5 -29.5zM59 762q0 -43 -43 -43t-43 45
q0 18 13.5 29.5t29.5 11.5q20 0 31.5 -13t11.5 -30z" />
    <glyph glyph-name="Igrave" unicode="&#xcc;" horiz-adv-x="210" 
d="M154 0l-139 1q34 39 34 63l-1 521q0 38 -33 75h138q1 -3 -15.5 -29.5t-16.5 -41.5l-1 -519q0 -13 11.5 -32.5t22.5 -37.5zM140 694h-32q-7 0 -47.5 41t-59.5 66h67q35 -45 72 -107z" />
    <glyph glyph-name="Oacute" unicode="&#xd3;" horiz-adv-x="599" 
d="M550 350q0 -127 -66 -231q-80 -124 -216 -124q-128 0 -200 114q-58 92 -58 203q0 84 32 164q38 94 103 130q0 -4 7 -11q-76 -98 -76 -229q0 -116 58 -209q65 -106 169 -106q96 0 146 90q38 68 38 154q0 73 -24 145q-31 90 -91 145q-42 38 -84 38q-21 0 -37 -10
q-19 -12 -19 -31q0 -28 30 -28q2 0 32 9q0 -3 2 -10t2 -11q0 -21 -17 -38t-36 -17q-29 0 -49 26t-20 52q0 50 41 78q34 23 83 23q55 0 103 -29q147 -89 147 -287zM550 350q0 -127 -66 -231q-80 -124 -216 -124q-128 0 -200 114q-58 92 -58 203q0 84 32 164q38 94 103 130
q0 -4 7 -11q-76 -98 -76 -229q0 -116 58 -209q65 -106 169 -106q96 0 146 90q38 68 38 154q0 73 -24 145q-31 90 -91 145q-42 38 -84 38q-21 0 -37 -10q-19 -12 -19 -31q0 -28 30 -28q2 0 32 9q0 -3 2 -10t2 -11q0 -21 -17 -38t-36 -17q-29 0 -49 26t-20 52q0 50 41 78
q34 23 83 23q55 0 103 -29q147 -89 147 -287zM550 350q0 -127 -66 -231q-80 -124 -216 -124q-128 0 -200 114q-58 92 -58 203q0 84 32 164q38 94 103 130q0 -4 7 -11q-76 -98 -76 -229q0 -116 58 -209q65 -106 169 -106q96 0 146 90q38 68 38 154q0 73 -24 145
q-31 90 -91 145q-42 38 -84 38q-21 0 -37 -10q-19 -12 -19 -31q0 -28 30 -28q2 0 32 9q0 -3 2 -10t2 -11q0 -21 -17 -38t-36 -17q-29 0 -49 26t-20 52q0 50 41 78q34 23 83 23q55 0 103 -29q147 -89 147 -287zM228 694h31q7 0 47.5 41t59.5 66h-67q-30 -39 -71 -107z" />
    <glyph glyph-name="Ocircumflex" unicode="&#xd4;" horiz-adv-x="599" 
d="M550 350q0 -127 -66 -231q-80 -124 -216 -124q-128 0 -200 114q-58 92 -58 203q0 84 32 164q38 94 103 130q0 -4 7 -11q-76 -98 -76 -229q0 -116 58 -209q65 -106 169 -106q96 0 146 90q38 68 38 154q0 73 -24 145q-31 90 -91 145q-42 38 -84 38q-21 0 -37 -10
q-19 -12 -19 -31q0 -28 30 -28q2 0 32 9q0 -3 2 -10t2 -11q0 -21 -17 -38t-36 -17q-29 0 -49 26t-20 52q0 50 41 78q34 23 83 23q55 0 103 -29q147 -89 147 -287zM394 691l-23 -1q-11 13 -48 34q-40 24 -51 34q-6 -6 -47 -30q-37 -22 -48 -38l-27 1q61 68 95 108q44 1 55 0
q33 -36 94 -108z" />
    <glyph glyph-name="Ograve" unicode="&#xd2;" horiz-adv-x="599" 
d="M550 350q0 -127 -66 -231q-80 -124 -216 -124q-128 0 -200 114q-58 92 -58 203q0 84 32 164q38 94 103 130q0 -4 7 -11q-76 -98 -76 -229q0 -116 58 -209q65 -106 169 -106q96 0 146 90q38 68 38 154q0 73 -24 145q-31 90 -91 145q-42 38 -84 38q-21 0 -37 -10
q-19 -12 -19 -31q0 -28 30 -28q2 0 32 9q0 -3 2 -10t2 -11q0 -21 -17 -38t-36 -17q-29 0 -49 26t-20 52q0 50 41 78q34 23 83 23q55 0 103 -29q147 -89 147 -287zM320 694h-32q-7 0 -47.5 41t-59.5 66h67q35 -45 72 -107z" />
    <glyph glyph-name="Uacute" unicode="&#xda;" horiz-adv-x="589" 
d="M559 23q0 -11 -19.5 -21t-31.5 -10q-49 0 -74 80q-25 -17 -76.5 -48.5t-113.5 -31.5q-102 0 -169 86q-63 80 -63 184q0 157 184 335q-2 8 -23 12q-15 2 -29 4q-7 1 -33.5 11.5t-31.5 10.5q-8 0 -20 -12v-13q11 -10 30 -15q1 -11 -7.5 -18.5t-19.5 -7.5q-26 0 -26 35
q0 65 80 65q16 0 47 -8.5t47 -8.5q14 0 40 5q31 7 39 8q0 -2 2 -3.5t2 -6.5q0 -1 -55 -59q-64 -69 -101 -132q-55 -94 -55 -179q0 -89 53 -160q58 -77 144 -77q79 0 154 73v469q0 28 -30 64v7h126q-1 -1 -18 -32q-12 -21 -12 -35v-464q0 -30 11 -59q15 -37 39 -37q5 0 10 1
v-12zM248 694h31q7 0 47.5 41t59.5 66h-67q-30 -39 -71 -107z" />
    <glyph glyph-name="Ucircumflex" unicode="&#xdb;" horiz-adv-x="589" 
d="M559 23q0 -11 -19.5 -21t-31.5 -10q-49 0 -74 80q-25 -17 -76.5 -48.5t-113.5 -31.5q-102 0 -169 86q-63 80 -63 184q0 157 184 335q-2 8 -23 12q-15 2 -29 4q-7 1 -33.5 11.5t-31.5 10.5q-8 0 -20 -12v-13q11 -10 30 -15q1 -11 -7.5 -18.5t-19.5 -7.5q-26 0 -26 35
q0 65 80 65q16 0 47 -8.5t47 -8.5q14 0 40 5q31 7 39 8q0 -2 2 -3.5t2 -6.5q0 -1 -55 -59q-64 -69 -101 -132q-55 -94 -55 -179q0 -89 53 -160q58 -77 144 -77q79 0 154 73v469q0 28 -30 64v7h126q-1 -1 -18 -32q-12 -21 -12 -35v-464q0 -30 11 -59q15 -37 39 -37q5 0 10 1
v-12zM424 691l-23 -1q-11 13 -48 34q-40 24 -51 34q-6 -6 -47 -30q-37 -22 -48 -38l-27 1q61 68 95 108q44 1 55 0q33 -36 94 -108z" />
    <glyph glyph-name="Ugrave" unicode="&#xd9;" horiz-adv-x="589" 
d="M559 23q0 -11 -19.5 -21t-31.5 -10q-49 0 -74 80q-25 -17 -76.5 -48.5t-113.5 -31.5q-102 0 -169 86q-63 80 -63 184q0 157 184 335q-2 8 -23 12q-15 2 -29 4q-7 1 -33.5 11.5t-31.5 10.5q-8 0 -20 -12v-13q11 -10 30 -15q1 -11 -7.5 -18.5t-19.5 -7.5q-26 0 -26 35
q0 65 80 65q16 0 47 -8.5t47 -8.5q14 0 40 5q31 7 39 8q0 -2 2 -3.5t2 -6.5q0 -1 -55 -59q-64 -69 -101 -132q-55 -94 -55 -179q0 -89 53 -160q58 -77 144 -77q79 0 154 73v469q0 28 -30 64v7h126q-1 -1 -18 -32q-12 -21 -12 -35v-464q0 -30 11 -59q15 -37 39 -37q5 0 10 1
v-12zM350 694h-32q-7 0 -47.5 41t-59.5 66h67q35 -45 72 -107z" />
    <glyph glyph-name="circumflex" unicode="&#x2c6;" horiz-adv-x="286" 
d="M264 501l-23 -1q-11 13 -48 34q-40 24 -51 34q-6 -6 -47 -30q-37 -22 -48 -38l-27 1q61 68 95 108q44 1 55 0q33 -36 94 -108z" />
    <glyph glyph-name="tilde" unicode="&#x2dc;" horiz-adv-x="295" 
d="M282 573q0 -31 -30 -52q-26 -18 -52 -18q-5 0 -62 18t-62 18q-14 0 -30 -8q-20 -11 -17 -27h-19v25q0 25 28 43q25 15 48 15q5 0 65 -18t65 -18q35 0 47 36h19v-14z" />
    <glyph glyph-name="macron" unicode="&#xaf;" horiz-adv-x="317" 
d="M10 562h293v-54h-293v54z" />
    <glyph glyph-name="macron" unicode="&#x2c9;" horiz-adv-x="317" 
d="M10 562h293v-54h-293v54z" />
    <glyph glyph-name="cedilla" unicode="&#xb8;" horiz-adv-x="246" 
d="M87 -65v71h25v-45q22 7 33 7q29 0 48 -22.5t19 -52.5q0 -42 -30 -65t-74 -23q-5 0 -24 10l-23 12l12 29q21 -16 46 -16q39 0 39 48q0 52 -37 52q-2 0 -10 -2l-14 -2q-1 0 -5 -1h-5z" />
    <glyph glyph-name="Scaron" unicode="&#x160;" 
 />
    <glyph glyph-name="scaron" unicode="&#x161;" 
 />
    <glyph glyph-name="brokenbar" unicode="&#xa6;" 
 />
    <glyph glyph-name="Eth" unicode="&#xd0;" 
 />
    <glyph glyph-name="eth" unicode="&#xf0;" 
 />
    <glyph glyph-name="Yacute" unicode="&#xdd;" 
 />
    <glyph glyph-name="yacute" unicode="&#xfd;" 
 />
    <glyph glyph-name="Thorn" unicode="&#xde;" 
 />
    <glyph glyph-name="thorn" unicode="&#xfe;" 
 />
    <glyph glyph-name="minus" unicode="&#xad;" horiz-adv-x="9" 
 />
    <glyph glyph-name="minus" unicode="&#x2212;" horiz-adv-x="9" 
 />
    <glyph glyph-name="multiply" unicode="&#xd7;" 
 />
    <glyph glyph-name="onesuperior" unicode="&#xb9;" 
 />
    <glyph glyph-name="twosuperior" unicode="&#xb2;" 
 />
    <glyph glyph-name="threesuperior" unicode="&#xb3;" 
 />
    <glyph glyph-name="onehalf" unicode="&#xbd;" 
 />
    <glyph glyph-name="onequarter" unicode="&#xbc;" 
 />
    <glyph glyph-name="threequarters" unicode="&#xbe;" 
 />
    <glyph glyph-name=".null" 
 />
    <glyph glyph-name="Lslash" unicode="&#x141;" 
 />
    <glyph glyph-name="lslash" unicode="&#x142;" 
 />
    <glyph glyph-name="HT" 
 />
    <glyph glyph-name="LF" 
 />
    <glyph glyph-name="nonmarkingreturn" 
 />
    <glyph glyph-name="Zcaron" unicode="&#x17d;" 
 />
    <glyph glyph-name="zcaron" unicode="&#x17e;" 
 />
    <glyph glyph-name="DLE" 
 />
    <glyph glyph-name="DC1" 
 />
    <glyph glyph-name="DC2" 
 />
    <glyph glyph-name="DC3" 
 />
    <glyph glyph-name="DC4" 
 />
    <glyph glyph-name="RS" 
 />
    <glyph glyph-name="US" 
 />
    <glyph glyph-name="infinity" unicode="&#x221e;" 
 />
    <glyph glyph-name="lessequal" unicode="&#x2264;" 
 />
    <glyph glyph-name="greaterequal" unicode="&#x2265;" 
 />
    <glyph glyph-name="partialdiff" unicode="&#x2202;" horiz-adv-x="205" 
d="M8 188q6 5 61 64v293q2 12 -8 22.5t-29 10.5l102 97l-1 -354l58 61v-41l-58 -60v-187q0 -50 39 -94h-137q11 15 21 31q13 25 13 63v120l-60 -63z" />
    <glyph glyph-name="summation" unicode="&#x2211;" horiz-adv-x="554" 
d="M517 226q0 -116 -78 -184q-71 -62 -179 -62q-92 0 -162 39q-92 51 -92 150q0 73 59 116q50 38 118 38q53 0 91 -22q48 -28 48 -82q0 -46 -39 -76q-33 -25 -68 -25q-26 0 -48 15q-26 16 -26 42q0 21 31 40h12q4 -56 51 -56q24 0 42 18t18 44q0 42 -46 64q-32 15 -68 15
q-55 0 -91 -29q-40 -33 -40 -87q0 -84 77 -132q61 -38 136 -38q77 0 134 46q63 51 63 130q0 83 -90 151l-166 102q-90 55 -90 109q0 59 58 89q43 22 98 22q39 0 81 -13q62 -18 62 -55q0 -18 -13.5 -29t-28.5 -11q-4 0 -13 2t-12 2q4 13 4 24q0 53 -87 53q-92 0 -92 -54
q0 -38 90 -86q132 -69 166 -97q90 -73 90 -173zM394 788l-23 1q-11 -13 -48 -34q-40 -24 -51 -34q-5 5 -47 30q-36 22 -48 38l-27 -1q61 -68 95 -108q44 -1 55 0q33 36 94 108z" />
    <glyph glyph-name="product" unicode="&#x220f;" horiz-adv-x="395" 
d="M351 158q0 -79 -70 -127q-62 -43 -145 -43q-56 0 -92 28q-39 30 -39 84q0 41 30.5 69t71.5 28q31 0 55.5 -18.5t24.5 -47.5q0 -20 -14.5 -36.5t-34.5 -16.5q-7 0 -19 4q1 -4 1 39q0 13 -11.5 22.5t-25.5 9.5q-24 0 -37 -17t-13 -41q0 -38 35 -62q30 -20 70 -20
q56 0 102 32q51 35 51 88q0 59 -68 84q-64 18 -128 37q-68 29 -68 97q0 60 51 92q43 27 106 27q45 0 79 -16q44 -21 44 -61q0 -27 -20 -45t-48 -18q-22 0 -40 13.5t-18 34.5q0 22 20 37q8 -7 16 -13q12 -10 18 -10q15 0 15 17q0 34 -71 34q-38 0 -67 -16q-35 -20 -35 -56
q0 -46 71 -66l132 -38q71 -33 71 -109zM294 608l-23 1q-11 -13 -48 -34q-40 -24 -51 -34q-5 5 -47 30q-36 22 -48 38l-27 -1q61 -68 95 -108q44 -1 55 0q33 36 94 108z" />
    <glyph glyph-name="pi" unicode="&#x3c0;" horiz-adv-x="533" 
d="M490 673q-16 -44 -20 -110q-1 -56 -3 -112q-5 -78 -22 -182q-22 -132 -41 -191q-34 -104 -98 -165q-44 -42 -95 -42q-27 0 -46.5 17.5t-19.5 44.5q0 9 8 30q31 -26 63 -26q60 0 110 80q36 58 56 136l-3 15q-50 -36 -67 -45q-36 -18 -78 -18q-87 0 -134 71q-41 60 -41 151
q0 111 76 259q-47 19 -79 19q-13 0 -26 -9v-16q12 -15 30 -12q-1 -8 -10 -19t-17 -11q-30 0 -30 38q0 26 21 47t47 21q-2 0 38 -1q29 -1 46 0q25 2 35 8l2 -5q-73 -139 -73 -251q0 -87 32 -149q40 -78 119 -78q90 0 132 110q29 79 29 188q0 124 -52 187q56 14 111 20z
M249 696h25q7 0 51 41.5t62 66.5h-67q-35 -47 -71 -108z" />
    <glyph glyph-name="integral" unicode="&#x222b;" horiz-adv-x="459" 
d="M405 455q-30 -45 -30 -57v-323q0 -97 -5 -126q-17 -88 -83 -125q-39 -22 -88 -22q-33 0 -58 12q-35 16 -35 49q0 40 44 40q15 0 33 -11q-8 -12 -8 -22q0 -15 17 -25q14 -9 30 -9q48 0 72 48q17 34 17 78v110q-23 -30 -69.5 -54.5t-84.5 -24.5q-57 0 -101.5 50t-46.5 106
t16 113q12 40 33 78q18 33 18 31q0 4 -17 20q-21 21 -26 28q41 14 141 55q-31 -49 -63 -97q-52 -95 -52 -167q0 -54 35 -104q41 -59 101 -59q62 0 116 66v294q0 10 -12 24q-16 19 -18 24h124zM199 506h25q7 0 51 41.5t62 66.5h-67q-35 -47 -71 -108z" />
    <glyph glyph-name="Omega" unicode="&#x3a9;" horiz-adv-x="595" 
d="M17 433h40q22 100 91 162q74 66 182 66q74 0 138 -50q34 30 50 30t17 -28q0 -19 -7.5 -57t-7.5 -42q-4 -27 -21 -27q-11 0 -16 12q-41 125 -158 125q-153 0 -182 -191h229q16 0 16 -16v-14q0 -16 -16 -16h-234q-1 -14 -1 -28q0 -12 1 -26h234q16 0 16 -16v-14
q0 -16 -16 -16h-229q17 -102 64 -169q61 -87 161 -87q42 0 79 16q56 23 56 71q0 32 -36 39v14q0 9 12.5 15.5t22.5 6.5q22 0 35 -20q10 -16 10 -35q0 -76 -71 -115q-55 -29 -125 -29q-126 0 -208 92q-70 80 -89 201h-37q-16 0 -16 16v14q0 16 16 16h32v1q-1 27 1 53h-33
q-16 0 -16 16v14q0 16 16 16z" />
    <glyph glyph-name="Omega" unicode="&#x2126;" horiz-adv-x="595" 
d="M17 433h40q22 100 91 162q74 66 182 66q74 0 138 -50q34 30 50 30t17 -28q0 -19 -7.5 -57t-7.5 -42q-4 -27 -21 -27q-11 0 -16 12q-41 125 -158 125q-153 0 -182 -191h229q16 0 16 -16v-14q0 -16 -16 -16h-234q-1 -14 -1 -28q0 -12 1 -26h234q16 0 16 -16v-14
q0 -16 -16 -16h-229q17 -102 64 -169q61 -87 161 -87q42 0 79 16q56 23 56 71q0 32 -36 39v14q0 9 12.5 15.5t22.5 6.5q22 0 35 -20q10 -16 10 -35q0 -76 -71 -115q-55 -29 -125 -29q-126 0 -208 92q-70 80 -89 201h-37q-16 0 -16 16v14q0 16 16 16h32v1q-1 27 1 53h-33
q-16 0 -16 16v14q0 16 16 16z" />
    <glyph glyph-name="radical" unicode="&#x221a;" 
 />
    <glyph glyph-name="approxequal" unicode="&#x2248;" 
 />
    <glyph glyph-name="approxequal" unicode="&#x22f2;" 
 />
    <glyph glyph-name="Delta" unicode="&#x394;" 
 />
    <glyph glyph-name="Delta" unicode="&#x2206;" 
 />
    <glyph glyph-name="lozenge" unicode="&#x25ca;" horiz-adv-x="264" 
d="M66 306q0 2 34 80t38 85q4 -6 40.5 -84.5t36.5 -80.5q0 -3 -76 -161z" />
    <glyph glyph-name="fraction" unicode="&#x2044;" 
 />
    <glyph glyph-name="fi" unicode="&#xf001;" 
 />
    <glyph glyph-name="fl" unicode="&#xf002;" 
 />
    <glyph glyph-name="apple" unicode="&#xf000;" 
 />
    <glyph glyph-name="dotlessi" unicode="&#x131;" horiz-adv-x="171" 
d="M129 0q-58 -3 -124 0q29 34 29 61v297q0 14 -24 38q47 29 89 68l1 -400q0 -18 10 -36q10 -14 19 -28z" />
    <glyph glyph-name="breve" unicode="&#x2d8;" horiz-adv-x="333" 
d="M256 630h30l1 -12q4 -51 -31.5 -86.5t-88.5 -35.5q-54 0 -90 35.5t-31 87.5l1 11h30q6 -81 90 -81q83 0 89 81z" />
    <glyph glyph-name="dotaccent" unicode="&#x2d9;" horiz-adv-x="333" 
d="M168 619q22 0 38 -16t16 -39t-16 -39t-38 -16q-23 0 -39.5 16t-16.5 39t16.5 39t39.5 16z" />
    <glyph glyph-name="ring" unicode="&#x2da;" horiz-adv-x="208" 
d="M107 633q30 0 51 -21t21 -50q0 -30 -21 -51t-51 -21q-29 0 -50 21t-21 51q0 29 21 50t50 21zM107 609q-19 0 -33 -13.5t-14 -33.5q0 -19 14 -33t33 -14q20 0 34 13.5t14 33.5t-14 33.5t-34 13.5z" />
    <glyph glyph-name="hungarumlaut" unicode="&#x2dd;" horiz-adv-x="333" 
d="M45 504l35 98q11 31 22 43q12 16 31 16q15 0 22 -13q5 -5 5 -15q0 -18 -18 -40l-80 -98zM173 504l35 98q21 59 53 59q15 0 22 -13q5 -7 5 -16q0 -17 -18 -39l-81 -98z" />
    <glyph glyph-name="ogonek" unicode="&#x2db;" horiz-adv-x="333" 
d="M120 0h88q-90 -2 -90 -67q0 -17 11.5 -30.5t28.5 -13.5q31 0 72 37l16 -22q-58 -56 -108 -56q-30 0 -50 19.5t-20 49.5q0 49 52 83z" />
    <glyph glyph-name="caron" unicode="&#x2c7;" horiz-adv-x="278" 
d="M254 608l-23 1q-11 -13 -48 -34q-40 -24 -51 -34q-5 5 -47 30q-36 22 -48 38l-27 -1q61 -68 95 -108q44 -1 55 0q33 36 94 108z" />
  </font>
</defs>
</svg>
