<?xml version="1.0" standalone="no"?>
<!DOCTYPE svg PUBLIC "-//W3C//DTD SVG 1.1//EN" "http://www.w3.org/Graphics/SVG/1.1/DTD/svg11.dtd" >
<svg>
<metadata>
Created by FontForge 20120731 at Wed Apr 17 19:20:26 2019
 By www-data
Digitized by Dan X. Solo. Software (c) 1998 by Dover Publications, Inc., New York.
</metadata>
<defs>
<font id="Murillo" horiz-adv-x="319" >
  <font-face 
    font-family="Murillo"
    font-weight="400"
    font-stretch="normal"
    units-per-em="1000"
    panose-1="0 0 4 0 0 0 0 0 0 0"
    ascent="800"
    descent="-200"
    x-height="476"
    cap-height="664"
    bbox="-46 -227 1218 848.762"
    underline-thickness="20"
    underline-position="-123"
    unicode-range="U+0020-F002"
  />
<missing-glyph horiz-adv-x="500" 
d="M63 0v800h375v-800h-375zM125 63h250v675h-250v-675z" />
    <glyph glyph-name=".notdef" horiz-adv-x="500" 
d="M63 0v800h375v-800h-375zM125 63h250v675h-250v-675z" />
    <glyph glyph-name="glyph1" horiz-adv-x="0" 
 />
    <glyph glyph-name="glyph2" 
 />
    <glyph glyph-name="space" unicode=" " 
 />
    <glyph glyph-name="exclam" unicode="!" horiz-adv-x="330" 
d="M232 595q-5 -44 -77 -367h-49l-75 364q-3 40 27 63q26 19 68 19q44 0 77.5 -22t28.5 -57zM230 93q0 -42 -28.5 -68.5t-69.5 -26.5q-32 0 -63.5 28t-31.5 61q0 104 92 104q45 0 73 -26t28 -72z" />
    <glyph glyph-name="quotedbl" unicode="&#x22;" horiz-adv-x="482" 
d="M329 370h-49q-13 45 -23 82q-22 90 -24 128q-3 88 74 88q34 0 55 -27t17 -62q-8 -70 -50 -209zM129 370h-49q-13 45 -23 82q-22 90 -24 128q-3 88 74 88q34 0 55 -27t17 -62q-8 -70 -50 -209z" />
    <glyph glyph-name="numbersign" unicode="#" horiz-adv-x="699" 
d="M584 395h-102l-17 -110h103l-13 -90h-103l-30 -187h-107l31 187h-112l-30 -187h-101l30 187h-104l14 90h104l17 110h-103l13 90h103l27 174h103l-29 -174h114l27 174h105l-28 -174h102zM266 395l-17 -110h111l18 110h-112z" />
    <glyph glyph-name="dollar" unicode="$" horiz-adv-x="560" 
d="M216 100q-96 3 -205 40l-2 6q14 23 35 68q26 -27 71 -44t85 -17q82 0 82 38q0 19 -65 66q-97 69 -122 92q-65 59 -65 108q0 59 62 95q49 28 123 37v75h49v-72q38 -1 92 -8q61 -9 86 -21q-11 -44 -29 -69q-17 18 -65 31q-43 11 -74 11q-79 0 -79 -31q0 -17 72 -69
q102 -73 135 -102q72 -66 72 -118q-2 -111 -210 -116v-79h-47q-3 0 -1 79z" />
    <glyph glyph-name="percent" unicode="%" horiz-adv-x="892" 
d="M211 0l310 665h81l-309 -665h-82zM184 672q78 0 125 -67q42 -60 42 -143q0 -84 -43 -143q-47 -66 -127 -66q-79 0 -126 66q-43 59 -43 143q0 85 43 144q48 66 129 66zM180 611q-42 0 -53 -59q-4 -21 -4 -94q0 -67 4 -89q12 -55 54 -55q44 0 55 57q4 20 4 92q0 71 -4 92
q-12 56 -56 56zM634 412q78 0 125 -67q42 -60 42 -143q0 -84 -43 -143q-47 -66 -127 -66q-79 0 -126 66q-43 59 -43 143q0 85 43 144q48 66 129 66zM630 351q-42 0 -53 -59q-4 -21 -4 -94q0 -67 4 -89q12 -55 54 -55q44 0 55 57q4 20 4 92q0 71 -4 92q-12 56 -56 56z" />
    <glyph glyph-name="ampersand" unicode="&#x26;" horiz-adv-x="837" 
d="M243 506q0 106 194 106q176 0 287 -59l23 85q-220 34 -342 34q-119 0 -219 -29q-147 -42 -150 -131q-4 -114 176 -143q-80 -18 -137 -63q-68 -55 -68 -128q0 -94 110 -142q83 -36 191 -36h439q-14 41 -14 164q0 196 12 240h-288v-55h91l-1 -291l-171 -1q-65 0 -108.5 40
t-43.5 105q0 60 41 106.5t99 46.5q12 0 24 -2v56h-44q-101 0 -101 97z" />
    <glyph glyph-name="quotesingle" unicode="'" horiz-adv-x="282" 
d="M129 370h-49q-13 45 -23 82q-22 90 -24 128q-3 88 74 88q34 0 55 -27t17 -62q-8 -70 -50 -209z" />
    <glyph glyph-name="parenleft" unicode="(" horiz-adv-x="364" 
d="M330 719q-62 -66 -96 -181q-29 -98 -29 -201v-119q0 -94 29 -198q36 -129 96 -169l-4 -4l-62 16q-19 4 -53.5 27t-50.5 39q-76 79 -106 180q-25 82 -25 207q0 120 67 235q72 122 181 161q8 1 20 7t18 6q7 0 15 -6z" />
    <glyph glyph-name="parenright" unicode=")" horiz-adv-x="363" 
d="M32 719q62 -66 96 -181q28 -98 28 -201v-119q0 -94 -29 -198q-35 -129 -95 -169l4 -4l57 8q18 2 57 30q33 25 52 44q76 79 106 180q25 82 25 207q0 120 -67 235q-73 122 -181 161q-3 -2 -6 -2q-5 0 -17 6.5t-19 6.5q-6 0 -11 -4z" />
    <glyph glyph-name="asterisk" unicode="*" horiz-adv-x="398" 
d="M147 539q-2 18 -17.5 52t-15.5 47q0 34 38 34q41 0 41 -35q0 -10 -15.5 -46t-17.5 -52q13 8 47 48q28 33 44 33t27.5 -12.5t11.5 -28.5q0 -29 -47 -37q-74 -14 -76 -15q3 -1 76 -15q47 -9 47 -37q0 -17 -11.5 -29.5t-28.5 -12.5q-16 0 -44 33q-34 42 -45 49
q2 -19 17.5 -53t15.5 -46q0 -35 -41 -35q-38 0 -38 34q0 12 15.5 46t17.5 53q-14 -8 -47 -48q-27 -33 -44 -33t-28.5 13t-11.5 29q0 27 48 37q37 7 75 14q-5 2 -76 15q-48 9 -48 37q0 17 11.5 29t29.5 12q17 0 45 -32q36 -42 45 -48z" />
    <glyph glyph-name="plus" unicode="+" horiz-adv-x="563" 
d="M43 366h160v164h109v-164h159v-103h-159v-163h-109v163h-160v103z" />
    <glyph glyph-name="comma" unicode="," horiz-adv-x="335" 
d="M226 29q0 -102 -94 -170q-53 -38 -77 -38t-24 15q0 4 18 24q23 24 35 45q18 32 18 66q0 13 -20 23q-30 15 -39 24q-22 21 -23 58q-2 42 26.5 74t73.5 32q39 0 72.5 -35.5t33.5 -75.5v-42z" />
    <glyph glyph-name="hyphen" unicode="-" horiz-adv-x="493" 
d="M375 143h-319v161h319v-161z" />
    <glyph glyph-name="hyphen" unicode="&#x2010;" horiz-adv-x="493" 
d="M375 143h-319v161h319v-161z" />
    <glyph glyph-name="period" unicode="." horiz-adv-x="326" 
d="M228 95q0 -42 -28.5 -69t-70.5 -27q-40 0 -67 28.5t-27 68.5q0 38 28 65t66 27q40 0 69.5 -26.5t29.5 -66.5z" />
    <glyph glyph-name="slash" unicode="/" horiz-adv-x="422" 
d="M87 -72h-77l256 778h77z" />
    <glyph glyph-name="zero" unicode="0" horiz-adv-x="700" 
d="M644 327q0 -131 -78 -229q-84 -107 -211 -107q-139 0 -222 108q-77 99 -77 240t79 233q84 98 222 98t217 -106q70 -94 70 -237zM355 618q-71 0 -90 -144q-6 -46 -6 -203q0 -223 99 -223q85 0 85 213q0 4 2.5 49.5t2.5 79.5q0 228 -93 228z" />
    <glyph glyph-name="one" unicode="1" horiz-adv-x="474" 
d="M364 1h-243q32 49 32 76v415q2 32 -25 41q-12 3 -28 2v37q56 -1 122 29q3 2 118 64q0 -311 1 -583q0 -44 23 -81z" />
    <glyph glyph-name="two" unicode="2" horiz-adv-x="700" 
d="M593 446q0 -83 -69 -155q-43 -45 -149 -113q-111 -71 -147 -105h275q9 0 31 14t26 23l17 -11q-14 -48 -32 -99h-438q1 58 78 135q71 68 143 137q76 84 76 159q0 136 -119 136q-65 0 -112 -75l-18 -9q-19 0 -19 23q0 66 83 117q74 46 142 46q100 0 166 -62t66 -161z" />
    <glyph glyph-name="three" unicode="3" horiz-adv-x="700" 
d="M337 -9q-64 0 -143 28q-100 34 -100 84l15 19q83 -48 153 -48q65 0 109.5 43.5t44.5 107.5q0 60 -40.5 97t-101.5 37q-21 0 -67 -18l-20 20q9 26 224 236h-196q-26 0 -52 -24v91h402q-85 -71 -255 -251q43 5 63 5q101 0 164 -49q69 -53 69 -152q0 -101 -86 -166
q-79 -60 -183 -60z" />
    <glyph glyph-name="four" unicode="4" horiz-adv-x="700" 
d="M634 154h-88v-98q-1 -26 22 -56h-217q21 30 21 54q0 88 -1 102h-305v47l195 398q5 20 0 60l185 1l-250 -425q177 -2 177 0v237q19 4 39 9q27 4 88 70q11 0 42 1l1 -320h50q25 0 41 20v-100z" />
    <glyph glyph-name="five" unicode="5" horiz-adv-x="700" 
d="M608 209q0 -105 -92 -163q-73 -46 -188 -54q-67 -5 -150 24q-87 30 -87 65q0 7 6.5 25t11.5 18q3 0 49.5 -26.5t92.5 -26.5q64 0 112 46.5t48 111.5q0 53 -43.5 90t-96.5 37q-37 0 -87 -35l-18 12l18 331h366q-2 -80 0 -101q-27 15 -31 17q-8 3 -32 6h-243l-9 -187
q59 24 132 21q99 -3 164 -51q77 -57 77 -160z" />
    <glyph glyph-name="six" unicode="6" horiz-adv-x="700" 
d="M638 265q0 -112 -79.5 -189.5t-192.5 -77.5q-126 0 -215 88t-89 215q0 179 129 286q121 100 304 100q27 0 27 -31q-13 -7 -37 -12q-30 -5 -38 -8q-108 -36 -161 -150q-44 -95 -44 -222q0 -83 26 -138q35 -73 108 -73q53 0 82 55q24 45 24 102q0 49 -23 83q-26 39 -73 39
q-25 0 -48 -18t-30 -44l-8 -5q-13 9 -13 38q0 67 47 118.5t113 51.5q82 0 136.5 -63t54.5 -145z" />
    <glyph glyph-name="seven" unicode="7" horiz-adv-x="700" 
d="M568 604l-128 -284q-82 -188 -98 -272q0 -2 -5 -49h-223q13 19 32 49q75 164 229 546h-198q-35 0 -80 -30v100h506q-15 -19 -35 -60z" />
    <glyph glyph-name="eight" unicode="8" horiz-adv-x="700" 
d="M640 167q0 -100 -118 -142q-79 -28 -202 -28q-83 0 -159 28q-102 37 -102 104q0 39 73 114q60 63 108 93q-46 42 -91 85q-49 50 -49 112q0 81 95 112q55 18 163 21q63 2 132 -23q76 -27 76 -64q0 -21 -62 -84q-49 -50 -81 -74l124 -112q93 -90 93 -142zM477 566
q-3 22 -50 32q-31 7 -67 7q-20 0 -49 -12q-35 -14 -36 -31q-1 -18 42 -58l56 -48q25 21 59 54q47 46 45 56zM470 101q0 31 -80 109q-72 71 -107 89q-68 -58 -76 -66q-44 -46 -44 -84q0 -61 71 -82q40 -11 122 -11q37 0 68 8q46 12 46 37z" />
    <glyph glyph-name="nine" unicode="9" horiz-adv-x="700" 
d="M640 344q-4 -153 -126 -257q-117 -99 -271 -99q-37 0 -37 23q0 11 9 13q26 6 53 12q21 6 50 26q132 90 132 331q0 73 -25 143q-33 93 -92 93q-58 0 -91 -55q-27 -46 -27 -108q0 -53 22 -88q26 -41 77 -41q27 0 44 19q10 12 24 42l6 4q18 -1 18 -48q0 -74 -42 -118
t-117 -44q-78 0 -133 64t-55 144q0 135 84 209q80 71 214 68q131 -3 211 -104q75 -95 72 -229z" />
    <glyph glyph-name="colon" unicode=":" horiz-adv-x="347" 
d="M244 385q0 -42 -30 -69t-69 -27q-29 0 -60.5 29.5t-31.5 57.5q0 46 26.5 74t71.5 28q41 0 67 -26.5t26 -66.5zM248 95q0 -42 -28.5 -69t-70.5 -27q-40 0 -67 28.5t-27 68.5q0 38 28 65t66 27q40 0 69.5 -26.5t29.5 -66.5z" />
    <glyph glyph-name="semicolon" unicode=";" horiz-adv-x="367" 
d="M255 376q0 -44 -29.5 -71t-73.5 -27q-41 0 -68.5 28t-27.5 69q0 101 101 101q43 0 72 -32q26 -29 26 -68zM262 38q0 -64 -54 -136q-57 -77 -118 -77q-33 0 -33 14q0 -1 39 41.5t39 80.5q0 15 -20 32q-32 25 -39 33q-20 24 -20 59q0 41 27 70.5t68 29.5q56 0 86 -48
q25 -40 25 -99z" />
    <glyph glyph-name="less" unicode="&#x3c;" horiz-adv-x="516" 
d="M3 280v107l413 215v-119l-295 -149l295 -151v-118z" />
    <glyph glyph-name="equal" unicode="=" horiz-adv-x="567" 
d="M43 362v77h428v-77h-428zM43 196v77h428v-77h-428z" />
    <glyph glyph-name="greater" unicode="&#x3e;" horiz-adv-x="502" 
d="M4 65v118l295 151l-295 149v119l413 -215v-107z" />
    <glyph glyph-name="question" unicode="?" horiz-adv-x="519" 
d="M434 503q0 -84 -70 -127q-58 -35 -148 -34q-1 -4 -1 -111q-55 -2 -69 0v159q68 21 78 27q38 22 38 72q0 105 -120 105q-57 0 -121 -63l-18 18q35 72 91 100t156 23q67 -3 124 -52q60 -52 60 -117zM273 87q0 -98 -101 -98q-95 0 -95 104q0 35 30.5 62t64.5 27q50 0 77 -28
q24 -26 24 -67z" />
    <glyph glyph-name="at" unicode="@" horiz-adv-x="817" 
d="M521 147q-59 0 -97 57q-64 -60 -131 -60q-56 0 -90 46q-29 39 -29 94q0 97 53 171q59 84 156 84q43 0 86 -47l10 35h95q-14 -46 -40.5 -132t-26.5 -133q0 -32 34 -32q55 0 88 58q29 51 29 118q0 111 -76 173q-72 57 -189 57q-136 0 -223 -91.5t-87 -226.5q0 -128 83 -205
t213 -77q121 0 268 89l36 -53q-162 -105 -312 -105q-155 0 -261 95q-110 98 -110 252q0 175 118 282q114 104 289 104q133 0 223 -73q98 -80 98 -213q0 -101 -49 -177q-57 -90 -158 -90zM384 463q-44 0 -78 -69q-32 -61 -32 -117q0 -22 10.5 -39.5t23.5 -17.5q59 0 93 65
q30 55 30 128q0 21 -13.5 35.5t-33.5 14.5z" />
    <glyph glyph-name="A" unicode="A" horiz-adv-x="898" 
d="M149 610q-2 23 -1 54h581q0 -52 -1 -56q-107 2 -131 0q75 -104 126 -246q53 -150 53 -271q0 -35 31 -91l-246 -1q24 59 24 89q0 286 -227 509q-111 -110 -183 -292q1 -7 7 -4q65 69 217 69q39 0 90 -17q9 -20 23 -67q16 -55 14 -69l-6 -2q-27 10 -52 32q-28 25 -45 33
q-34 15 -96 15q-80 0 -139 -55q-62 -56 -62 -136q0 -35 21 -59q30 -33 35 -45q-45 1 -168 0q35 53 38 93q28 180 108 333q57 109 127 183z" />
    <glyph glyph-name="B" unicode="B" horiz-adv-x="823" 
d="M736 128q0 -68 -63 -99q-48 -24 -134 -29h-118q-121 -1 -394 1l-27 -2q0 1 10 22q13 31 11 55q2 0 0 484q3 29 -18 78q22 14 128 25q86 9 139 9h75q121 0 220 -28q151 -42 149 -132q-1 -70 -68 -102q-62 -20 -125 -40l134 -102q81 -71 81 -140zM517 506q0 4 -6 24.5
t-9 23.5q-41 57 -186 57q-75 0 -100 -15q111 -84 245 -180q56 17 56 90zM533 171q-2 22 -4 43q-3 28 -24 57q-27 39 -92 93q-191 159 -203 157l3 -463l171 -1q68 0 98.5 25t50.5 89z" />
    <glyph glyph-name="C" unicode="C" horiz-adv-x="729" 
d="M660 52q-35 -26 -107 -46q-88 -24 -183 -24q-143 0 -252 97q-114 101 -114 243q0 158 133 261q123 96 285 96q172 0 239 -63l-43 -49q-77 45 -157 45q-114 0 -177 -92q-54 -80 -54 -198q0 -128 66 -197t191 -69q81 0 136 65z" />
    <glyph glyph-name="D" unicode="D" horiz-adv-x="853" 
d="M224 -1h-207l20 68v486q0 18 -11 47q-9 19 -17 38q-4 10 154 24q138 12 208 12q179 0 280 -92q106 -95 106 -272q0 -154 -85 -229q-68 -61 -203 -76q-55 -6 -245 -6zM537 347q0 122 -54 192q-59 79 -177 79q-32 0 -44 -6q-17 -9 -17 -38l-1 -507l17 -7q14 7 113 17
q76 9 112 53q51 63 51 217z" />
    <glyph glyph-name="E" unicode="E" horiz-adv-x="610" 
d="M532 0l-526 1q22 38 18 95v467q3 30 -16 101h509v-81q-27 18 -55 14l-250 1v-92l233 -1l54 9v-72l-54 8h-235l2 -376l250 -1q44 0 69 14q1 -32 1 -87z" />
    <glyph glyph-name="F" unicode="F" horiz-adv-x="728" 
d="M638 666l-42 -446l-22 -19q-2 4 -10 4t-11 6q-5 10 -5 38q0 16 2 40l-9 44h-11q-91 -2 -297 0q-2 -69 -2 -244q4 -36 6 -46q5 -25 19 -42h-243q27 41 27 88v495q-1 17 -4 32q-8 35 -23 50h625zM538 408q0 5 -1 17v17q0 53 -13 81q-22 48 -55 68q-27 16 -73 18h-93
q-13 -1 -36 -3q-30 -3 -33 -40v-153q0 -22 23 -22l279 -1q4 0 3 6q-1 17 -1 12z" />
    <glyph glyph-name="G" unicode="G" horiz-adv-x="868" 
d="M759 463q-12 -23 -15 -38q-1 -11 -1 -52v-319l23 -54h-333q-179 0 -292 86q-124 94 -124 264q0 154 142 246q124 79 289 79q72 0 133 -16q47 -13 126 -50l-44 -62q-45 37 -80 50q-38 15 -96 15q-125 0 -190 -94q-57 -81 -56 -211q1 -119 77 -186q73 -64 194 -64
q16 0 31 7l2 302q0 57 -15 97h229z" />
    <glyph glyph-name="H" unicode="H" horiz-adv-x="839" 
d="M729 1h-238q17 25 24 75q1 309 0 360h-285v-366q0 -44 23 -69h-251l20 69v522q0 28 -14 71h233q-18 -29 -14 -65v-101h285v101q0 35 -17 65h236q-20 -33 -20 -76v-506q-6 -27 18 -80z" />
    <glyph glyph-name="I" unicode="I" horiz-adv-x="374" 
d="M275 664q-27 -24 -31 -72v-516q0 -24 8 -39q12 -18 23 -36h-262q10 13 19 26q14 21 13 46q-3 519 0 519q5 42 -30 72h260z" />
    <glyph glyph-name="J" unicode="J" horiz-adv-x="490" 
d="M380 205q1 -112 -80 -170q-71 -51 -187 -51q-44 0 -97 12v38q85 8 123 53q31 36 38 107q1 12 2 135l1 90l-1 189h-141l-24 -12v69q402 1 402 -3q-2 -1 -5 -1q-11 0 -23 -30q-10 -26 -10 -37z" />
    <glyph glyph-name="K" unicode="K" horiz-adv-x="799" 
d="M770 -143q2 -18 -8 -18q-3 0 -9 2q-169 30 -467 388l-71 -82v-103q0 -31 15 -45h-228q4 3 16 48l-1 551q0 41 -9 67h223q-17 -41 -17 -64l1 -345q65 67 289 362q14 21 6 47h208q-31 -13 -63 -26q-33 -16 -58 -48l-156 -204q55 -101 108 -191q126 -216 221 -339z" />
    <glyph glyph-name="L" unicode="L" horiz-adv-x="676" 
d="M593 -1h-587q7 15 15 30q12 23 11 47v517q-4 32 -24 72h435q4 -44 0 -54h-225v-544q8 1 23 0h92q121 0 177 94q17 29 45 129h39z" />
    <glyph glyph-name="M" unicode="M" horiz-adv-x="905" 
d="M799 -1h-240q23 56 23 87q-1 52 -1 491l-3 2q-46 -43 -133 -131q25 -46 52 -114q-77 -43 -113 -66q-65 -41 -100 -76q-14 100 -60 223q-59 156 -114 165q-2 -9 -2 -441q0 -92 31 -140q-42 1 -133 0q24 57 28 79q2 12 2 63q0 47 -1 244q0 197 0 189q-4 46 -23 91h240
q16 -1 67 -53q47 -48 89 -103q5 4 151 156h243q-28 -45 -21 -88v-496q-1 -34 18 -82z" />
    <glyph glyph-name="N" unicode="N" horiz-adv-x="736" 
d="M606 105q0 -49 29 -106h-116q23 27 27 75q1 8 0 76v61q-14 14 -449 265l-1 -388q0 -43 29 -89q-40 1 -113 0q19 40 23 89v506l-2 28q-3 26 -15 44h121q-6 0 404 -228v147q-4 30 -6 37q-4 22 -15 44h104q-16 -40 -19 -81z" />
    <glyph glyph-name="O" unicode="O" horiz-adv-x="942" 
d="M847 296q0 -145 -140 -233q-126 -78 -298 -75q-160 2 -272 84q-123 88 -123 232q0 138 122 214q104 66 252 66q37 0 55 -9v-38q-15 4 -29 4q-104 0 -147 -60q-36 -51 -36 -162q0 -110 41 -183q50 -91 151 -91q100 0 154 79q47 69 47 174q0 324 -266 324q-109 0 -183 -35
l-13 60q144 35 247 35q190 0 309 -96q129 -105 129 -290z" />
    <glyph glyph-name="P" unicode="P" horiz-adv-x="764" 
d="M691 446q0 -98 -94 -160q-83 -54 -186 -54q-65 0 -126 24q-10 5 -10 17q0 14 11 18q55 -4 52 -4q74 0 112 61q32 51 32 129q0 70 -66 105q-51 27 -126 27q-14 0 -41 -12t-27 -20q0 -1 1 -249q0 -249 0 -248q2 -18 5 -32q8 -34 25 -47h-242q11 12 16 35q4 22 0 38v510
q0 24 -18 53h-3q233 29 295 29q147 0 248 -40q142 -56 142 -180z" />
    <glyph glyph-name="Q" unicode="Q" horiz-adv-x="923" 
d="M831 325q0 -143 -124 -243q-117 -93 -267 -93q-21 0 -41 2q-19 -36 -41 -91l10 3q119 31 175 31h141q18 0 36 -113q-159 19 -195 19q-157 0 -286 -39l-16 14q6 17 59 94q47 70 47 82v5q-124 1 -223 88q-102 91 -102 212q0 143 109 220q96 68 245 68q20 0 51 -7
q39 -9 39 -23l-5 -18q-25 5 -48 5q-85 0 -134 -65q-43 -59 -43 -148q0 -77 28 -161q38 -112 102 -112q6 0 13 1l53 87l32 -26q-1 -12 -12.5 -32.5t-12.5 -32.5l5 -2q96 0 145 91q40 73 40 178q0 137 -66 215q-70 85 -205 85q-76 0 -181 -32l-13 60q95 35 224 35
q187 0 313 -82q148 -96 148 -275z" />
    <glyph glyph-name="R" unicode="R" horiz-adv-x="846" 
d="M807 0h-266q9 17 9 36q0 8 -1.5 19t-1.5 14q0 50 -132 243q-124 182 -183 236l-1 -469q0 -36 26 -78l-239 -1q24 48 22 80v479q0 42 -19 77q278 43 381 43q117 0 219 -44q131 -56 131 -157q0 -71 -78 -114q-65 -35 -141 -35q-27 0 -29 -1q74 -84 148 -167
q87 -97 155 -161zM553 502q-13 31 -34 53q-50 55 -133 61q-77 5 -133 -16l210 -230q100 19 100 89q0 21 -10 43z" />
    <glyph glyph-name="S" unicode="S" horiz-adv-x="678" 
d="M615 174q0 -91 -114 -142q-89 -40 -192 -40q-72 0 -163 42q-85 39 -140 94q-1 3 34 34t36 33q85 -141 268 -141q34 0 64 13q38 17 38 47q0 26 -101 104q-172 132 -187 146q-101 87 -101 136q0 99 106 142q74 31 189 31q102 0 177 -52q-11 -47 -39 -67q-42 37 -86 51
q-38 13 -99 13q-23 0 -47 -8q-33 -10 -33 -26q0 -20 101 -92q135 -96 188 -145q101 -96 101 -173z" />
    <glyph glyph-name="T" unicode="T" horiz-adv-x="652" 
d="M578 593l-185 -1q0 -166 3 -499q-2 -35 4 -52q12 -33 14 -40h-240q19 33 19 88l1 501h-187v74h571v-71z" />
    <glyph glyph-name="U" unicode="U" horiz-adv-x="876" 
d="M776 1h-220q2 9 -1 45l-1 19q-56 -28 -114 -54.5t-123 -26.5q-123 0 -211 78q-91 81 -91 203q0 116 84 218q81 96 196 133q-144 4 -231 0l1 51l368 -1l-1 -48q-100 0 -156 -102q-46 -84 -46 -193q0 -100 42 -171q50 -84 144 -84q54 0 97 28q49 32 49 83v422q0 35 -20 65
h228q-17 -35 -17 -73v-518q0 -40 23 -74z" />
    <glyph glyph-name="V" unicode="V" horiz-adv-x="738" 
d="M644 583q0 -116 -41 -216q-21 -55 -132 -217q-118 -174 -146 -174q-22 0 -80 53q-102 94 -161 220t-65 264q-1 48 -2 97q-2 39 -10 56l252 -1q-28 -82 -28 -151q0 -104 39 -204q45 -111 121 -165l3 3q84 115 108 161q44 88 44 189q0 64 -51 167h138q11 -61 11 -82z" />
    <glyph glyph-name="W" unicode="W" horiz-adv-x="1248" 
d="M1143 584q7 -145 -62 -301q-55 -126 -142 -225q-78 -89 -115 -89q-35 0 -142 137q-97 123 -122 177q-35 -95 -128 -207q-85 -101 -113 -104q-136 98 -204 211t-99 298q-4 23 -8 93q-3 59 -13 92h239q-26 -49 -26 -127q0 -109 44 -213t121 -181q65 71 77 88q37 51 74 143
q-27 56 -31 143q-2 74 -5 147h254q-26 -87 -26 -145q0 -119 43 -210q40 -88 130 -170q54 42 105 142q57 113 57 212q0 37 -18 88.5t-40 82.5h141q7 -43 9 -82z" />
    <glyph glyph-name="X" unicode="X" horiz-adv-x="842" 
d="M751 0h-356v27q86 4 113 31q31 29 31 119q0 77 -84 122q-90 -115 -106 -140q-57 -88 -60 -160h-295q70 96 139 192q84 115 133 197q-119 45 -157 78q-27 23 -45 80q-3 42 -14 66q-1 2 -33 54l322 1v-27q-114 -14 -114 -100q0 -34 18 -65t49 -43q20 9 78.5 110t58.5 125
q190 1 285 0q-54 -59 -122 -157q-56 -83 -111 -166q139 -77 188 -125q83 -82 82 -200v-19z" />
    <glyph glyph-name="Y" unicode="Y" horiz-adv-x="818" 
d="M761 665q-48 -45 -185 -303q-140 -263 -140 -317q0 -19 14 -44h-288q27 28 82 112q62 93 54 107q-30 54 -140 224q-114 176 -149 221h356v-50q-4 0 -32.5 2t-47.5 2q-102 0 -102 -46q0 -25 64 -137l86 -144q40 84 81 167q68 140 68 155q0 40 -22 51h301z" />
    <glyph glyph-name="Z" unicode="Z" horiz-adv-x="797" 
d="M716 1q21 0 -10 0h-168h-540l419 600l-293 -1q-32 0 -73 -17v81h665l-426 -593q243 0 301 -1q65 -3 124 26z" />
    <glyph glyph-name="bracketleft" unicode="[" horiz-adv-x="230" 
d="M200 704h-90l2 -735l93 1l1 -42h-199l1 823l191 1z" />
    <glyph glyph-name="backslash" unicode="\" horiz-adv-x="440" 
d="M11 698l265 -727l76 1l-260 726h-81z" />
    <glyph glyph-name="bracketright" unicode="]" horiz-adv-x="326" 
d="M15 704h90l-1 -735l-92 1l-2 -42h198l-1 823l-190 1z" />
    <glyph glyph-name="asciicircum" unicode="^" horiz-adv-x="355" 
d="M67 685l-50 -1l149 130h65l150 -130q-46 1 -48 1l-134 72z" />
    <glyph glyph-name="underscore" unicode="_" horiz-adv-x="579" 
d="M0 -58h620v-85h-620v85z" />
    <glyph glyph-name="grave" unicode="`" horiz-adv-x="247" 
d="M243 520l-186 40q-63 14 -63 60q0 18 13.5 31.5t31.5 13.5q19 0 49 -20l164 -110z" />
    <glyph glyph-name="a" unicode="a" horiz-adv-x="698" 
d="M392 301q-11 -5 -30 -11q-50 -11 -94 -46q-50 -40 -50 -84q0 -35 21 -64q23 -32 60 -32q18 0 93 28v209zM599 0h-208v29l-78 -17t-110 -17q-68 0 -119 33q-59 39 -59 103q0 81 69 129q48 33 151 61q121 34 147 46q0 22 -28 37q-23 13 -48 13q-75 0 -138 -22
q-22 -8 -77 -36q-24 50 -34 76q104 46 283 46q114 0 253 -39q-19 -29 -22 -69v-319q-3 -17 7.5 -32.5t10.5 -21.5z" />
    <glyph glyph-name="b" unicode="b" horiz-adv-x="676" 
d="M247 -8q-72 0 -232 29l18 57l1 509q0 28 -23 77h205q2 -153 0 -204q78 24 131 24q90 0 166 -66q79 -69 79 -158q0 -140 -107 -209q-90 -59 -238 -59zM409 243q0 66 -33 114q-37 54 -99 54q-17 0 -39.5 -10.5t-20.5 -21.5q0 35 0 -82v-152v-82q29 -17 35 -17q91 0 128 59
q29 46 29 138z" />
    <glyph glyph-name="c" unicode="c" horiz-adv-x="595" 
d="M523 78q0 -47 -104 -71q-72 -17 -142 -17q-110 0 -188 63q-83 68 -83 175q0 117 98 187q86 62 208 66q57 2 120 -14q72 -18 72 -44q0 -14 -49 -62q-34 67 -112 67q-71 0 -108 -62q-32 -53 -32 -128q0 -81 44 -131q46 -54 125 -54q58 0 133 41z" />
    <glyph glyph-name="d" unicode="d" horiz-adv-x="664" 
d="M566 1l-188 -1q0 38 1 41q-61 -47 -168 -46q-87 1 -150 79q-59 73 -54 152q6 105 65 178q66 82 171 82q53 0 125 -29q1 5 -2 141q0 12 -2 23q-5 26 -18 44h218q-24 -56 -24 -67v-536q0 -34 26 -61zM368 402q-40 11 -50 11q-61 0 -97 -57q-31 -49 -31 -115t23 -114
q30 -62 89 -62q20 0 42 8q28 9 28 24q0 -16 1 91q1 87 0 138q-1 73 -5 76z" />
    <glyph glyph-name="e" unicode="e" horiz-adv-x="576" 
d="M433 261q-32 8 -43 8h-202q-2 -13 -2 -28q0 -69 42 -124q46 -61 112 -61q32 0 86 19l54 19q12 0 12 -19q0 -43 -84 -68q-71 -20 -149 -16q-105 5 -179 71q-77 69 -77 170q0 111 90 183q84 65 199 67q95 2 191 -53q-17 -25 -44 -61q-60 59 -116 59q-53 0 -90.5 -32
t-39.5 -71l197 -1q7 0 43 10v-72z" />
    <glyph glyph-name="f" unicode="f" horiz-adv-x="440" 
d="M368 648q0 -6 -22 -47t-27 -44q-6 25 -22 45q-19 22 -41 22q-49 0 -49 -91q0 -12 1 -31.5t1 -24.5h118l-24 -73h-88l-1 -282q0 -69 26 -121q-23 0 -228 -2q9 28 17 56q3 17 3 61l1 292h-28v68l31 3l-1 59l4 42q11 43 47 69q51 36 150 36q29 0 74 -9q58 -11 58 -28z" />
    <glyph glyph-name="g" unicode="g" horiz-adv-x="618" 
d="M542 -49q0 -134 -331 -134q-80 0 -148 22q-96 31 -96 93q0 30 31 46q29 11 57 22q-52 19 -52 70q0 45 44 68q4 3 81 29q-63 31 -84 49q-38 33 -38 85q0 91 73 142q64 46 158 46q76 0 163 -39q-13 34 -13 64q0 19 10 35q15 26 17 30l-4 3h5l-1 -3l94 -65q-19 -20 -39 -39
q-23 -25 -24 -47q32 -53 32 -95q0 -56 -46 -93.5t-103 -37.5q-39 0 -81 28q-45 32 -45 69l4 18q16 -20 49 -20q30 0 55 15q29 18 29 46q0 70 -110 70q-37 0 -62 -36q-22 -32 -22 -71q0 -63 31 -96q20 -20 64 -34t53 -24l-3 -5q-10 -4 -46 -7q-39 -2 -55 -7q-26 -8 -26 -29
q0 -2 11 -6q19 -6 133 -25q107 -17 158 -41q77 -35 77 -96zM401 -98q0 31 -129 62q-108 25 -160 25q-15 0 -27.5 -20.5t-12.5 -36.5q0 -36 73 -53q48 -12 106 -12q34 0 83 8q67 10 67 27z" />
    <glyph glyph-name="h" unicode="h" horiz-adv-x="619" 
d="M527 1h-211q8 11 18 66v287q0 61 -50 61q-37 0 -90 -30l1 -315q0 -32 20 -69h-207q4 14 9 27q7 23 7 48v514q0 54 -16 74h205q-19 -24 -19 -69l1 -150q102 38 155 38q114 0 176 -52q-5 -7 -17 -69v-289q-3 -24 18 -72z" />
    <glyph glyph-name="i" unicode="i" horiz-adv-x="327" 
d="M226 -1h-212q26 47 26 91v311q0 27 -3 37q-4 14 -20 38q58 1 189 0l-1 -386q0 -36 21 -91zM116 516q-40 1 -68 29.5t-25 67.5q3 36 29.5 59t63.5 24q39 0 67 -24.5t30 -61.5q2 -39 -27.5 -66.5t-69.5 -27.5z" />
    <glyph glyph-name="j" unicode="j" horiz-adv-x="331" 
d="M133 514q-42 -3 -74 28t-29 72q4 38 33.5 62t67.5 22t64.5 -27.5t27.5 -62.5q0 -38 -26 -64.5t-64 -29.5zM215 -34q0 -177 -199 -177q-62 0 -62 24q0 6 6 14.5t11 8.5q69 8 69 89v449q0 13 -13 52t-13 51q0 -3 202 0z" />
    <glyph glyph-name="k" unicode="k" horiz-adv-x="591" 
d="M7 664h202q-21 -43 -20 -79q0 -97 -1 -209q-1 -145 -1 -210l174 242q16 36 3 67h168q-57 -32 -82 -66l-93 -129l240 -453l-18 -14q-132 68 -219 170q-53 62 -110 170q-6 -7 -38 -40q-23 -23 -23 -30q0 -34 6.5 -51.5t13.5 -32.5h-207q16 32 19 84v502q0 47 -14 79z" />
    <glyph glyph-name="l" unicode="l" horiz-adv-x="329" 
d="M206 664q1 -64 1 -597q0 -38 23 -66h-219q22 28 26 66l-2 528q-3 41 -21 69h192z" />
    <glyph glyph-name="m" unicode="m" horiz-adv-x="941" 
d="M834 426q-17 -18 -17 -44v-303q0 -38 23 -78q-160 -2 -219 0q23 55 23 78l-1 284q0 38 -44 38q-16 0 -43 -9q-30 -11 -43 -24q-3 -23 -2 -289q0 -42 18 -78h-211q20 44 20 75l1 290q0 12 -11.5 23.5t-22.5 11.5q-66 0 -99 -37v-288q0 -47 23 -75h-212q19 45 19 72v328
q0 14 -23 55l66 3q11 0 126 22q0 -23 3 -44q13 13 70 27t100 14q82 0 136 -48q95 46 157 46q96 0 163 -50z" />
    <glyph glyph-name="n" unicode="n" horiz-adv-x="639" 
d="M529 424q-14 -18 -14 -47v-308q-7 -45 19 -70l-219 2q21 34 21 69l-1 -1v308q0 33 -46 33q-49 0 -88 -28l-1 -309q0 -30 21 -74l-212 2q23 39 18 68v315q0 23 -5 37q-9 17 -18 35q58 -2 109 8q41 8 83 17v-45q84 42 184 42q28 0 82 -15q65 -19 67 -39z" />
    <glyph glyph-name="o" unicode="o" horiz-adv-x="646" 
d="M547 234q-2 -104 -82 -172.5t-188 -68.5q-109 0 -190 69t-82 173q-2 105 80 178q79 71 188 72q112 1 194 -72t80 -179zM365 248q-7 182 -94 179q-50 -2 -71 -60q-12 -37 -15 -116q-9 -199 89 -199t91 196z" />
    <glyph glyph-name="p" unicode="p" horiz-adv-x="644" 
d="M548 236q-3 -97 -61 -162q-60 -70 -154 -70q-29 0 -68 10q-52 13 -52 34l13 19q147 8 147 158q0 209 -142 209q-32 0 -32 -50v-477q0 -49 24 -72h-211q5 7 8 16q9 23 10 50q0 31 1 495q0 4 -10.5 21t-10.5 19q0 21 113 34q82 10 142 10q110 0 195 -68q91 -72 88 -176z
" />
    <glyph glyph-name="q" unicode="q" horiz-adv-x="662" 
d="M565 427q-4 -8 -17 -24q-9 -11 -9 -21q0 -4 1 -9v-457q0 -56 17 -88l-207 1q23 58 23 105v370q0 8 1 26v26q0 71 -57 71q-52 0 -90 -55q-35 -50 -35 -104q0 -99 27 -147q35 -63 125 -63q15 0 15 -14q0 -22 -48 -35q-36 -10 -67 -10q-100 0 -168.5 66.5t-68.5 167.5
q0 128 116 193q93 51 231 51q34 0 119 -16q101 -18 92 -34z" />
    <glyph glyph-name="r" unicode="r" horiz-adv-x="509" 
d="M447 376q0 -44 -32.5 -80t-76.5 -36q-23 0 -44 9q-25 12 -25 32l-2 -1q28 5 28 32q0 39 -62 39q-12 0 -35 -20q-2 -48 0 -270q1 -15 3 -29q5 -33 16 -51h-209q4 8 10 47q6 36 7 36v320q0 10 -14 72h187v-51q77 62 122 62q50 0 88.5 -32t38.5 -79z" />
    <glyph glyph-name="s" unicode="s" horiz-adv-x="554" 
d="M474 106q-2 -72 -85 -99q-54 -17 -158 -17q-102 0 -220 40l-2 6q14 23 35 68q26 -27 71 -44t85 -17q82 0 82 38q0 19 -65 66q-97 69 -122 92q-65 59 -65 108q0 69 86 106q66 29 147 29q37 0 92 -8q62 -9 87 -21q-11 -44 -29 -69q-17 18 -65 31q-43 11 -74 11
q-79 0 -79 -31q0 -17 72 -69q102 -73 134 -102q73 -66 73 -118z" />
    <glyph glyph-name="t" unicode="t" horiz-adv-x="379" 
d="M297 66q0 -28 -49 -50q-42 -20 -75 -20h-34q-73 0 -103 39q-25 33 -25 108v420q31 11 179 105l-1 -192h109l-23 -64h-86v-312q2 -31 44 -31q11 0 27 6t23 6q14 0 14 -15z" />
    <glyph glyph-name="u" unicode="u" horiz-adv-x="645" 
d="M540 1q-188 0 -198 -1v31q-72 -39 -168 -39q-25 0 -90 17q-73 19 -74 35q8 10 17 78v286q0 25 -17 68h213q-11 -19 -17 -68v-259q0 -57 2 -64q8 -25 50 -25q23 0 48 8q30 10 39 26l-1 310q0 21 -14 72h208q-15 -31 -15 -72v-334q8 -69 17 -69z" />
    <glyph glyph-name="v" unicode="v" horiz-adv-x="624" 
d="M527 476q-14 -20 -25 -55q-29 -85 -112 -250q-99 -199 -137 -199q-13 0 -32 25q-81 104 -138 227q-61 132 -78 252q228 -2 228 0l-18 -24q-2 -5 -2 -27q0 -32 46 -137.5t68 -119.5q19 9 63.5 118t44.5 137q0 4 -12 53h104z" />
    <glyph glyph-name="w" unicode="w" horiz-adv-x="1020" 
d="M923 477q-21 -33 -40 -86q-15 -46 -31 -91q-46 -125 -197 -325q-72 88 -189 308q-80 -184 -175 -310q-144 150 -217 326q-5 12 -30 91q-18 55 -39 87h227q-13 -41 -13 -46q0 -55 47 -135q10 -17 82 -121q23 37 48 94q31 68 31 97q0 16 -28 59q-27 40 -42 52l260 -1
q-6 -37 -6 -45q0 -38 43 -130q39 -85 68 -123l64 120q38 79 38 126q0 29 -9 53h108z" />
    <glyph glyph-name="x" unicode="x" horiz-adv-x="717" 
d="M648 1h-298l-23 34h29q40 3 54.5 15.5t14.5 56.5q0 34 -55 72q-31 -27 -92 -121q-3 -8 -3 -15q0 -13 8 -23t15 -19l-287 -2q50 60 89 111q96 123 128 186q-75 58 -214 180q85 -1 223 0q-59 -21 -59 -55q0 -15 13 -31q5 -7 36 -32t34 -29q30 35 63 84q6 10 6 22
q0 9 -12 41h303q-60 -31 -90.5 -67.5t-69.5 -94.5l-64 -94q76 -68 251 -219z" />
    <glyph glyph-name="y" unicode="y" horiz-adv-x="689" 
d="M594 477q-13 -16 -38 -50q-47 -65 -99 -252t-104 -259q-86 -120 -252 -120q-57 0 -61 24l9 12q46 0 103.5 61t57.5 107q0 36 -208 477h302l-2 -35q-80 0 -104 -9q-51 -18 -51 -84q0 -51 35 -138q30 -67 59 -134q23 37 117 400h236z" />
    <glyph glyph-name="z" unicode="z" horiz-adv-x="656" 
d="M260 67q-9 -1 6 -2q37 -2 188 -1q47 1 89 15v-77h-539l294 414l-186 -1q-26 0 -65 -14l1 75h515q22 31 -303 -409z" />
    <glyph glyph-name="braceleft" unicode="{" horiz-adv-x="357" 
d="M174 319q62 -38 62 -128q0 -24 -5 -69.5t-5 -64.5q0 -48 21 -70q26 -27 91 -25v-71l-69 -3q-101 -3 -142 45q-32 36 -32 113q0 25 4 73.5t4 68.5q0 87 -58 96v70q59 11 59 96q0 22 -4.5 71t-4.5 74q0 74 33 111q41 46 145 43l65 -2v-71q-65 0 -91 -27q-22 -21 -22 -66
q0 -20 5.5 -66t5.5 -70q0 -88 -62 -128z" />
    <glyph glyph-name="bar" unicode="|" horiz-adv-x="374" 
d="M119 667h142v-834h-142v834z" />
    <glyph glyph-name="braceright" unicode="}" horiz-adv-x="452" 
d="M223 319q-63 39 -63 125q0 25 6 71.5t6 66.5q0 45 -22 67q-27 27 -92 27v71l69 2q101 3 142 -44q32 -37 32 -113q0 -24 -4 -72.5t-4 -68.5q0 -87 59 -98v-69q-60 -11 -60 -97q0 -21 4.5 -71t4.5 -75q0 -74 -32 -110q-42 -47 -145 -43l-66 3v71h18q54 -2 75 25
q18 21 18 68q0 18 -4 62t-4 66q0 97 62 136z" />
    <glyph glyph-name="asciitilde" unicode="~" horiz-adv-x="338" 
d="M62 697l-38 15q38 93 102 93q23 0 71.5 -21t64.5 -21q46 0 65 33l35 -29q-12 -26 -44 -49.5t-60 -23.5q-23 0 -68 21.5t-67 21.5q-14 0 -33.5 -13.5t-27.5 -26.5z" />
    <glyph glyph-name="Adieresis" unicode="&#xc4;" horiz-adv-x="901" 
d="M141 614q-1 21 0 52h581v-56q-108 2 -132 0q74 -104 126 -247q53 -151 53 -272q0 -35 31 -91l-252 1q20 31 23 39q7 18 6 52q-7 292 -226 507q-111 -110 -183 -292q1 -7 7 -4q65 69 217 69q39 0 90 -17q9 -20 23 -67q16 -55 14 -69l-6 -2q-27 10 -52 32q-28 25 -45 33
q-34 15 -96 15q-79 0 -140 -56.5t-61 -136.5q0 -35 21 -59q30 -33 35 -45q-45 1 -168 0q35 53 37 93q29 180 110 335q58 111 128 185zM305 822q24 0 42 -18.5t18 -42.5q0 -25 -18 -43t-43 -18t-43.5 17.5t-18.5 42.5q0 26 18.5 44t44.5 18zM488 822q24 0 42.5 -18.5
t18.5 -42.5q0 -25 -18.5 -43t-43.5 -18t-43.5 17.5t-18.5 42.5q0 26 18.5 44t44.5 18z" />
    <glyph glyph-name="Aring" unicode="&#xc5;" horiz-adv-x="901" 
d="M414 694q-34 0 -61 20t-27 51t28 52q26 18 60 18t60 -18q28 -21 28 -52t-27 -51t-61 -20zM414 795q-22 0 -35 -10t-13 -20q0 -11 13 -21t35 -10t35 10t13 21q0 10 -13 20t-35 10zM148 614v52h582v-56q-108 2 -133 0q75 -104 126 -247q54 -151 54 -272q0 -35 30 -91
l-252 1q20 31 23 39q7 18 6 52q-6 292 -226 507q-111 -110 -183 -292q1 -7 7 -4q65 69 217 69q39 0 90 -17q9 -20 23 -67q17 -55 14 -69l-6 -2q-27 10 -52 32q-28 25 -45 33q-34 15 -95 15q-80 0 -141 -56.5t-61 -136.5q0 -35 21 -59q30 -33 35 -45q-45 1 -167 0
q34 53 37 93q28 180 109 335q58 111 128 185z" />
    <glyph glyph-name="Ccedilla" unicode="&#xc7;" horiz-adv-x="713" 
d="M263 -177l21 44q60 -35 103 -35q16 0 25 12q4 4 14 27q-17 38 -45 38q-7 0 -15 -3l-1 76q-139 6 -243 103q-108 100 -108 237q0 157 134 261q123 96 284 96q45 0 128 -19q99 -23 104 -49l-36 -44q-77 45 -157 45q-112 0 -175 -92q-56 -80 -56 -198q0 -125 70 -196
t195 -71q28 0 72 22q39 20 64 43q26 -21 29 -68q-137 -64 -263 -70v-47q25 4 27 4q30 0 51 -22t21 -53q0 -40 -30 -62q-26 -20 -68 -20q-53 0 -145 41z" />
    <glyph glyph-name="Eacute" unicode="&#xc9;" horiz-adv-x="609" 
d="M532 0l-533 1q26 36 25 101v462q3 30 -16 101h509v-81q-29 20 -56 16l-249 -1v-92l233 1l54 7v-72l-54 8h-235l2 -377l250 -1q44 0 69 14q1 -32 1 -87zM166 702l155 34q26 5 47 19q26 17 26 38q0 42 -49 54q-16 4 -40 -13q-15 -13 -29 -25l-117 -94z" />
    <glyph glyph-name="Ntilde" unicode="&#xd1;" horiz-adv-x="731" 
d="M607 107q0 -52 28 -106h-116q27 54 27 117v93q-14 14 -449 265l-1 -386q0 -43 29 -89q-40 1 -113 0q19 40 23 89v504l-2 28q-3 26 -15 44h121q-6 0 404 -228v147q-6 38 -6 39q-4 20 -15 42h104q-16 -40 -19 -81v-478zM184 703l-30 11q38 93 102 93q23 0 71.5 -21
t64.5 -21q59 0 74 28l26 -24q-12 -26 -44 -49.5t-60 -23.5q-23 0 -68 21.5t-67 21.5q-15 0 -38.5 -12t-30.5 -24z" />
    <glyph glyph-name="Odieresis" unicode="&#xd6;" horiz-adv-x="942" 
d="M305 820q24 0 42 -18.5t18 -42.5q0 -25 -18 -43t-43 -18t-43.5 17.5t-18.5 42.5q0 26 18.5 44t44.5 18zM488 820q24 0 42.5 -18.5t18.5 -42.5q0 -25 -18.5 -43t-43.5 -18t-43.5 17.5t-18.5 42.5q0 26 18.5 44t44.5 18zM847 296q0 -145 -140 -233q-126 -78 -298 -75
q-160 2 -272 84q-123 88 -123 232q0 138 122 214q104 66 252 66q37 0 55 -9v-38q-15 4 -29 4q-104 0 -147 -60q-36 -51 -36 -162q0 -110 41 -183q50 -91 151 -91q100 0 154 79q47 69 47 174q0 324 -266 324q-109 0 -183 -35l-13 60q144 35 247 35q190 0 309 -96
q129 -105 129 -290z" />
    <glyph glyph-name="Udieresis" unicode="&#xdc;" horiz-adv-x="869" 
d="M766 1h-222v64q-56 -28 -114 -54.5t-123 -26.5q-123 0 -211 78q-91 81 -91 203q0 116 84 218q81 96 196 133q-152 4 -229 0l-1 50l366 -2l1 -46q-100 0 -156 -102q-46 -84 -46 -193q0 -100 42 -171q50 -84 144 -84q54 0 97 28q49 32 49 83v421q0 35 -20 65l236 1
q-25 -35 -25 -71v-520q0 -40 23 -74zM285 820q24 0 42 -18.5t18 -42.5q0 -25 -18 -43t-43 -18t-43.5 17.5t-18.5 42.5q0 26 18.5 44t44.5 18zM518 820q24 0 42.5 -18.5t18.5 -42.5q0 -25 -18.5 -43t-43.5 -18t-43.5 17.5t-18.5 42.5q0 26 18.5 44t44.5 18z" />
    <glyph glyph-name="aacute" unicode="&#xe1;" horiz-adv-x="679" 
d="M372 301q-19 -8 -30 -11q-53 -15 -93 -45q-51 -39 -51 -85q0 -36 23 -66t58 -30q20 0 93 28v209zM579 0h-208v29q-4 0 -41 -9q-110 -25 -147 -25q-68 0 -119 33q-59 39 -59 103q0 80 69 128q47 33 150 62q122 34 148 46q0 23 -28 38q-23 12 -48 12q-102 0 -215 -58
q-24 49 -34 76q106 47 248 47q145 0 288 -40q-21 -32 -21 -66v-329q0 -11 8.5 -25.5t8.5 -21.5zM206 521l155 34q68 15 68 56q0 21 -14.5 38.5t-35.5 17.5q-16 0 -32.5 -13.5t-30.5 -25.5l-117 -94z" />
    <glyph glyph-name="agrave" unicode="&#xe0;" horiz-adv-x="677" 
d="M372 301q-11 -5 -30 -11q-50 -11 -94 -46q-50 -40 -50 -84q0 -35 21 -64q23 -32 60 -32q18 0 93 28v209zM579 0h-208v29l-78 -17t-110 -17q-68 0 -119 33q-59 39 -59 103q0 81 69 129q48 33 151 61q121 34 147 46q0 22 -28 37q-23 13 -48 13q-75 0 -138 -22
q-22 -8 -77 -36q-24 50 -34 76q104 46 283 46q114 0 253 -39q-19 -29 -21 -66l1 -317q-3 -16 6.5 -35t9.5 -24zM395 521l-155 34q-69 15 -69 56q0 44 44 55q17 4 41 -13q14 -13 29 -25l117 -94z" />
    <glyph glyph-name="acircumflex" unicode="&#xe2;" horiz-adv-x="679" 
d="M372 301q-11 -5 -30 -11q-50 -11 -94 -46q-50 -40 -50 -84q0 -35 21 -64q23 -32 60 -32q18 0 93 28v209zM579 0h-208v29l-78 -17t-110 -17q-68 0 -119 33q-59 39 -59 103q0 81 69 129q48 33 151 61q121 34 147 46q0 22 -28 37q-23 13 -48 13q-75 0 -138 -22
q-22 -8 -77 -36q-24 50 -34 76q104 46 283 46q114 0 253 -39q-19 -29 -21 -66l1 -320q-3 -16 6.5 -33t9.5 -23zM185 525l-57 -1l149 129h66l149 -129q-15 0 -62 1l-120 71z" />
    <glyph glyph-name="adieresis" unicode="&#xe4;" horiz-adv-x="669" 
d="M362 301q-11 -5 -30 -11q-50 -11 -94 -46q-50 -40 -50 -84q0 -35 21 -64q23 -32 60 -32q18 0 93 28v209zM569 0h-208v29l-78 -17t-110 -17q-68 0 -119 33q-59 39 -59 103q0 81 69 129q48 33 151 61q121 34 147 46q0 22 -28 37q-23 13 -48 13q-75 0 -138 -22
q-22 -8 -77 -36q-24 50 -34 76q104 46 283 46q114 0 253 -39q-19 -29 -21 -66l-1 -322q-3 -17 7.5 -32.5t10.5 -21.5zM215 650q24 0 42 -18.5t18 -42.5q0 -25 -18 -43t-43 -18t-43.5 17.5t-18.5 42.5q0 26 18.5 44t44.5 18zM398 650q24 0 42.5 -18.5t18.5 -42.5
q0 -25 -18.5 -43t-43.5 -18t-43.5 17.5t-18.5 42.5q0 26 18.5 44t44.5 18z" />
    <glyph glyph-name="atilde" unicode="&#xe3;" horiz-adv-x="679" 
d="M372 301q-11 -5 -30 -11q-50 -11 -94 -46q-50 -40 -50 -84q0 -35 21 -64q23 -32 60 -32q18 0 93 28v209zM579 0h-208v29l-78 -17t-110 -17q-68 0 -119 33q-59 39 -59 103q0 81 69 129q48 33 151 61q121 34 147 46q0 22 -28 37q-23 13 -48 13q-75 0 -138 -22
q-22 -8 -77 -36q-24 50 -34 76q104 46 283 46q114 0 253 -39q-19 -29 -21 -66l1 -325q-3 -17 6.5 -31t9.5 -20zM172 537l-38 15q38 93 102 93q23 0 71.5 -21t64.5 -21q46 0 65 33l35 -29q-12 -26 -44 -49.5t-60 -23.5q-23 0 -68 21.5t-67 21.5q-14 0 -33.5 -13.5
t-27.5 -26.5z" />
    <glyph glyph-name="aring" unicode="&#xe5;" horiz-adv-x="676" 
d="M583 442q-19 -29 -21 -66l-1 -306q3 -38 18 -70h-208v29l-78 -17t-110 -17q-68 0 -119 33q-59 39 -59 103q0 81 69 129q48 33 151 61q121 34 147 46q0 22 -28 37q-23 13 -48 13q-75 0 -138 -22q-22 -8 -77 -36q-24 50 -34 76q104 46 283 46q114 0 253 -39zM372 92v209
q-11 -5 -30 -11q-50 -11 -94 -46q-50 -40 -50 -84q0 -35 21 -64q23 -32 60 -32q18 0 93 28zM327 524q-34 0 -61 20t-27 51t28 52q26 18 60 18t60 -18q28 -21 28 -52t-27 -51t-61 -20zM327 625q-22 0 -35 -10t-13 -20q0 -11 13 -21t35 -10t35 10t13 21q0 10 -13 20t-35 10z
" />
    <glyph glyph-name="ccedilla" unicode="&#xe7;" horiz-adv-x="586" 
d="M199 -143l17 38q51 -31 86 -31q11 0 21.5 8.5t10.5 19.5q0 20 -21 29q-17 8 -37 5l-1 64q-108 0 -186 64q-83 69 -83 174q0 117 98 188q88 65 208 65q41 0 108 -15q84 -18 84 -43q-15 -21 -49 -62q-34 67 -112 67q-70 0 -108 -63q-32 -52 -32 -127q0 -80 44 -131
q46 -54 125 -54q58 0 133 41l18 -16q0 -43 -88 -67q-54 -15 -124 -20l-2 -37q21 2 32 2q26 0 43 -19t17 -45q0 -34 -23 -52.5t-59 -18.5q-43 0 -120 36z" />
    <glyph glyph-name="eacute" unicode="&#xe9;" horiz-adv-x="571" 
d="M483 261q-32 8 -43 8h-252q-2 -13 -2 -28q0 -69 42 -124q46 -61 112 -61q32 0 86 19l54 19q12 0 12 -19q0 -43 -84 -68q-71 -20 -149 -16q-105 5 -179 71q-77 69 -77 170q0 111 90 183q84 65 199 67q95 2 191 -53q-17 -25 -44 -61q-60 59 -116 59q-53 0 -90.5 -32
t-39.5 -71l247 -1q7 0 44 10zM156 521l155 34q68 15 68 56q0 44 -44 55q-16 4 -40 -13q-15 -13 -29 -25l-117 -94z" />
    <glyph glyph-name="egrave" unicode="&#xe8;" horiz-adv-x="571" 
d="M483 261q-32 8 -43 8h-252q-2 -13 -2 -28q0 -69 42 -124q46 -61 112 -61q32 0 86 19l54 19q12 0 12 -19q0 -43 -84 -68q-71 -20 -149 -16q-105 5 -179 71q-77 69 -77 170q0 111 90 183q84 65 199 67q95 2 191 -53q-17 -25 -44 -61q-60 59 -116 59q-53 0 -90.5 -32
t-39.5 -71l247 -1q7 0 44 10zM355 521l-155 34q-69 15 -69 56q0 44 44 55q17 4 41 -13q14 -13 29 -25l117 -94z" />
    <glyph glyph-name="ecircumflex" unicode="&#xea;" horiz-adv-x="573" 
d="M483 261q-32 8 -43 8h-252q-2 -13 -2 -28q0 -69 42 -124q46 -61 112 -61q32 0 86 19l54 19q12 0 12 -19q0 -43 -84 -68q-71 -20 -149 -16q-105 5 -179 71q-77 69 -77 170q0 111 90 183q84 65 199 67q95 2 191 -53q-17 -25 -44 -61q-60 59 -116 59q-53 0 -90.5 -32
t-39.5 -71l247 -1q7 0 44 10zM145 525l-57 -1l149 129h66l149 -129q-15 0 -62 1l-120 71z" />
    <glyph glyph-name="edieresis" unicode="&#xeb;" horiz-adv-x="574" 
d="M483 261q-32 8 -43 8h-252q-2 -13 -2 -28q0 -69 42 -124q46 -61 112 -61q32 0 86 19l54 19q12 0 12 -19q0 -43 -84 -68q-71 -20 -149 -16q-105 5 -179 71q-77 69 -77 170q0 111 90 183q84 65 199 67q95 2 191 -53q-17 -25 -44 -61q-60 59 -116 59q-53 0 -90.5 -32
t-39.5 -71l247 -1q7 0 44 10zM175 650q24 0 42 -18.5t18 -42.5q0 -25 -18 -43t-43 -18t-43.5 17.5t-18.5 42.5q0 26 18.5 44t44.5 18zM358 650q24 0 42.5 -18.5t18.5 -42.5q0 -25 -18.5 -43t-43.5 -18t-43.5 17.5t-18.5 42.5q0 26 18.5 44t44.5 18z" />
    <glyph glyph-name="iacute" unicode="&#xed;" horiz-adv-x="332" 
d="M226 1h-206q19 45 19 50v369q0 9 -22 56q58 1 189 0v-421q0 -5 20 -54zM16 523l155 34q68 15 68 56q0 44 -44 55q-16 4 -40 -13q-15 -13 -29 -25l-117 -94z" />
    <glyph glyph-name="igrave" unicode="&#xec;" horiz-adv-x="330" 
d="M226 1h-206q19 45 19 50v369q0 9 -22 56q58 1 189 0v-421q0 -5 20 -54zM215 523l-155 34q-69 15 -69 56q0 44 44 55q17 4 41 -13q14 -13 29 -25l117 -94z" />
    <glyph glyph-name="icircumflex" unicode="&#xee;" horiz-adv-x="345" 
d="M226 1h-206q19 46 19 54v365q0 9 -22 56q58 1 189 0v-421q0 -5 20 -54zM35 527l-57 -1l109 129h66l109 -129q-15 0 -62 1l-80 71z" />
    <glyph glyph-name="idieresis" unicode="&#xef;" horiz-adv-x="345" 
d="M226 0h-206q19 45 19 50v369q0 9 -23 57q59 1 190 -1v-421q0 -5 20 -54zM45 651q24 0 42 -18.5t18 -42.5q0 -25 -18 -43t-43 -18t-43.5 17.5t-18.5 42.5q0 26 18.5 44t44.5 18zM208 651q24 0 42.5 -18.5t18.5 -42.5q0 -25 -18.5 -43t-43.5 -18t-43.5 17.5t-18.5 42.5
q0 26 18.5 44t44.5 18z" />
    <glyph glyph-name="ntilde" unicode="&#xf1;" horiz-adv-x="630" 
d="M529 424q-14 -18 -14 -47v-171q0 -145 0 -142q0 -47 19 -65l-219 2q21 34 21 59l-1 -1v318q0 33 -46 33q-49 0 -88 -28v-318q0 -24 20 -65l-212 2q23 39 18 68q-1 115 0 337h1q-2 40 -20 55q64 0 188 20v-45q84 42 184 42q28 0 82 -15q65 -19 67 -39zM142 537l-38 15
q38 93 102 93q23 0 71.5 -21t64.5 -21q46 0 65 33l35 -29q-12 -26 -44 -49.5t-60 -23.5q-23 0 -68 21.5t-67 21.5q-14 0 -33.5 -13.5t-27.5 -26.5z" />
    <glyph glyph-name="oacute" unicode="&#xf3;" horiz-adv-x="636" 
d="M547 240q0 -101 -86 -176q-82 -72 -184 -71q-112 0 -191 68.5t-81 173.5q-2 111 80 183q78 67 188 67q118 0 193 -61q81 -67 81 -184zM365 248q0 179 -94 179q-46 0 -70 -68q-16 -50 -16 -108q0 -199 89 -199q91 0 91 196zM166 521l150 36q73 18 73 54q0 44 -44 55
q-16 4 -40 -13q-15 -13 -29 -25l-117 -94z" />
    <glyph glyph-name="ograve" unicode="&#xf2;" horiz-adv-x="634" 
d="M547 234q0 -101 -86 -173q-81 -69 -184 -68q-112 0 -191 68.5t-81 173.5q-2 111 80 183q78 67 188 67q117 0 193 -65q81 -69 81 -186zM365 248q0 179 -94 179q-46 0 -70 -68q-16 -50 -16 -108q0 -199 89 -199q91 0 91 196zM375 521l-155 34q-69 15 -69 56q0 44 44 55
q17 4 41 -13q14 -13 29 -25l117 -94z" />
    <glyph glyph-name="ocircumflex" unicode="&#xf4;" horiz-adv-x="644" 
d="M547 234q0 -101 -86 -173q-81 -69 -184 -68q-112 0 -191 68.5t-81 173.5q-2 111 80 183q78 67 188 67q117 0 193 -65q81 -69 81 -186zM365 248q0 179 -94 179q-46 0 -70 -68q-16 -50 -16 -108q0 -199 89 -199q91 0 91 196zM145 525l-57 -1l149 129h66l149 -129
q-15 0 -62 1l-120 71z" />
    <glyph glyph-name="odieresis" unicode="&#xf6;" horiz-adv-x="645" 
d="M547 234q0 -101 -86 -173q-81 -69 -184 -68q-112 0 -191 68.5t-81 173.5q-2 111 80 183q78 67 188 67q117 0 193 -65q81 -69 81 -186zM365 248q0 179 -94 179q-46 0 -70 -68q-16 -50 -16 -108q0 -199 89 -199q91 0 91 196zM165 650q24 0 42 -18.5t18 -42.5q0 -25 -18 -43
t-43 -18t-43.5 17.5t-18.5 42.5q0 26 18.5 44t44.5 18zM348 650q24 0 42.5 -18.5t18.5 -42.5q0 -25 -18.5 -43t-43.5 -18t-43.5 17.5t-18.5 42.5q0 26 18.5 44t44.5 18z" />
    <glyph glyph-name="otilde" unicode="&#xf5;" horiz-adv-x="642" 
d="M547 234q0 -101 -86 -173q-81 -69 -184 -68q-112 0 -191 68.5t-81 173.5q-2 111 80 183q78 67 188 67q117 0 193 -65q81 -69 81 -186zM365 248q0 179 -94 179q-46 0 -70 -68q-16 -50 -16 -108q0 -199 89 -199q91 0 91 196zM142 537l-38 15q38 93 102 93q23 0 71.5 -21
t64.5 -21q46 0 65 33l35 -29q-12 -26 -44 -49.5t-60 -23.5q-23 0 -68 21.5t-67 21.5q-14 0 -33.5 -13.5t-27.5 -26.5z" />
    <glyph glyph-name="uacute" unicode="&#xfa;" horiz-adv-x="641" 
d="M538 0h-196v32q-72 -39 -168 -39q-25 0 -90 17q-73 19 -74 35q8 10 17 78v285q0 36 -12 68h206q-10 -29 -15 -68v-258q0 -57 2 -64q8 -25 50 -25q23 0 48 8q30 10 39 26v308q3 33 -15 73h208q-15 -31 -15 -76l1 -360q6 -40 14 -40zM166 522l155 34q68 15 68 56
q0 44 -44 55q-16 4 -40 -13q-15 -13 -29 -25l-117 -94z" />
    <glyph glyph-name="ugrave" unicode="&#xf9;" horiz-adv-x="637" 
d="M538 1h-196v32q-72 -39 -168 -39q-25 0 -90 17q-73 19 -74 35q8 10 17 78v285q0 36 -12 68h206q-10 -29 -15 -68v-258q0 -57 2 -64q8 -25 50 -25q23 0 48 8q30 10 39 26v308q3 33 -15 73h208q-15 -31 -15 -76l1 -360q6 -40 14 -40zM355 523l-155 34q-69 15 -69 56
q0 44 44 55q17 4 41 -13q14 -13 29 -25l117 -94z" />
    <glyph glyph-name="ucircumflex" unicode="&#xfb;" horiz-adv-x="631" 
d="M532 0h-196v32q-72 -39 -168 -39q-25 0 -90 17q-73 19 -74 35q8 10 17 78v285q0 36 -12 68h206q-10 -29 -15 -68v-258q0 -57 2 -64q8 -25 50 -25q23 0 48 8q30 10 39 26v308q3 33 -15 73h208q-15 -31 -15 -76l1 -360q6 -40 14 -40zM139 526l-57 -1l149 129h66l149 -129
q-15 0 -62 1l-120 71z" />
    <glyph glyph-name="udieresis" unicode="&#xfc;" horiz-adv-x="632" 
d="M532 1l-200 -1v32q-72 -39 -168 -39q-25 0 -90 17q-73 19 -74 35q8 10 17 78l-1 278q0 11 -14 75h209q-11 -20 -13 -39t-3 -38l-1 -258q-5 -80 54 -80q23 0 48 8q30 10 39 26l1 301q-3 34 -4 40q-4 21 -12 40h208q-15 -31 -15 -76l-1 -324q-3 -27 20 -75zM165 651
q24 0 42 -18.5t18 -42.5q0 -25 -18 -43t-43 -18t-43.5 17.5t-18.5 42.5q0 26 18.5 44t44.5 18zM358 651q24 0 42.5 -18.5t18.5 -42.5q0 -25 -18.5 -43t-43.5 -18t-43.5 17.5t-18.5 42.5q0 26 18.5 44t44.5 18z" />
    <glyph glyph-name="dagger" unicode="&#x2020;" horiz-adv-x="580" 
d="M243 407q-1 25 -9 72q-2 12 -18 71q-12 44 -12 71q0 65 66 65q65 0 65 -66q0 -34 -26 -138q-8 -31 -8 -37v-38q135 39 147 39q63 0 63 -63q0 -26 -16 -43.5t-42 -17.5q-25 0 -76 15q-63 20 -80 23q-1 -107 26 -332q11 -99 11 -130q0 -106 -67 -106q-63 0 -63 100
q0 25 13 136q22 198 26 332q-18 -3 -81 -23q-52 -15 -75 -15q-26 0 -41.5 17t-15.5 43q0 64 63 64q18 0 150 -39z" />
    <glyph glyph-name="degree" unicode="&#xb0;" horiz-adv-x="369" 
d="M152 688q48 0 79 -33.5t31 -81.5t-32 -81t-81 -33q-48 0 -80 33t-32 82q0 47 33.5 80.5t81.5 33.5zM149 645q-29 0 -49.5 -21.5t-20.5 -50.5t21 -50.5t50 -21.5q30 0 49.5 21t19.5 51t-20 51t-50 21z" />
    <glyph glyph-name="cent" unicode="&#xa2;" horiz-adv-x="624" 
d="M308 526q-85 -41 -85 -178q0 -118 85 -165v343zM543 188q0 -65 -185 -84v-65h-50v61h-9q-109 -2 -189 62q-84 69 -84 176q0 111 88 181q80 64 194 71v74h50v-75h6q34 1 91 -14q69 -18 69 -42q0 -13 -49 -62q-35 68 -112 67h-5v-372q17 -3 34 -3q58 0 133 41z" />
    <glyph glyph-name="sterling" unicode="&#xa3;" horiz-adv-x="676" 
d="M37 -5l-35 88q116 78 114 165l-2 41h-101v72h80q-36 72 -36 118q0 92 87 144q73 44 173 44q93 0 165 -36q91 -45 91 -129q0 -40 -25 -66t-64 -26q-34 0 -61 21.5t-27 54.5q0 41 53 68q-52 40 -104 40q-45 0 -78 -23q-36 -26 -36 -70q0 -34 32 -140h130v-72h-123
q-3 -44 -48 -89q-60 -61 -69 -78q36 11 72 21q43 13 66 13q32 0 87.5 -17t84.5 -17q51 0 53 70l1 17h69v-28q2 -76 -34 -131q-41 -65 -113 -65q-45 0 -127 32.5t-122 32.5q-25 0 -77.5 -19.5t-75.5 -35.5z" />
    <glyph glyph-name="section" unicode="&#xa7;" horiz-adv-x="519" 
d="M350 224q63 -45 63 -110q0 -77 -61 -118q-51 -34 -130 -34q-61 0 -110 23q-63 31 -63 89q0 32 19 52.5t51 20.5q60 0 60 -59q0 -27 -25 -48q29 -14 61 -14q39 0 66 16q31 19 31 53q0 43 -85 74q-112 41 -130 51q-71 41 -71 112q0 75 86 122q-57 42 -57 102q0 68 60 107
q51 33 120 33q60 0 105 -22q60 -28 60 -84q0 -27 -19 -46t-47 -19q-24 0 -42 15t-18 40q0 20 18 40q-27 11 -54 11q-85 0 -85 -56q0 -37 84 -67q104 -38 129 -53q70 -43 70 -113q0 -72 -86 -118zM174 412q-24 0 -39 -14.5t-15 -37.5q0 -25 19 -40q14 -11 73 -34t73 -23
q21 0 37 17.5t16 38.5q0 31 -66 63q-60 30 -98 30z" />
    <glyph glyph-name="bullet" unicode="&#x2022;" horiz-adv-x="407" 
d="M86 302q0 42 30.5 71.5t73.5 29.5t73.5 -29.5t30.5 -71.5t-30.5 -71.5t-73.5 -29.5t-73.5 29.5t-30.5 71.5z" />
    <glyph glyph-name="paragraph" unicode="&#xb6;" horiz-adv-x="603" 
d="M377 -83v654h-85v-654h85zM187 -83v403h-13q-78 -3 -128 44t-50 126q0 177 230 177h327v-96h-71v-654h25q3 -83 0 -83h-352q3 2 0 83h32z" />
    <glyph glyph-name="germandbls" unicode="&#xdf;" horiz-adv-x="643" 
d="M552 214q0 -107 -62 -165.5t-168 -58.5q-23 0 -54 13q-37 16 -37 35q0 22 15 22q8 0 26.5 -6t28.5 -6q39 0 61 45q18 37 18 81v95q0 56 -26 96q-30 47 -84 51q-9 1 -26 2v56q10 2 20 1q48 0 69 15t31 61q-12 36 -28 51q-19 18 -53 17q-87 -2 -86 -113l-3 -428
q3 -28 20 -78q-146 -2 -205 0q7 20 15 40q4 14 4 50l-1 382q0 115 72 163q60 40 181 40q83 0 147 -25q88 -35 88 -105q0 -84 -126 -107q86 -32 123 -80q40 -53 40 -144z" />
    <glyph glyph-name="registered" unicode="&#xae;" horiz-adv-x="387" 
d="M173 650q-63 0 -107.5 -44t-44.5 -106t44.5 -105.5t107.5 -43.5t107.5 43.5t44.5 105.5t-44.5 106t-107.5 44zM173 626q53 0 91 -37t38 -89t-38 -89t-91 -37t-90.5 37t-37.5 89t37.5 89t90.5 37zM118 585v-163h27v58h19l40 -60h32l-44 61q19 0 32 16.5t13 35.5
q0 20 -13.5 36t-33.5 16h-72zM145 501v63h37q11 0 19.5 -10t8.5 -21t-8 -21.5t-19 -10.5h-38z" />
    <glyph glyph-name="copyright" unicode="&#xa9;" horiz-adv-x="857" 
d="M399 -13q-145 0 -252 100.5t-107 245.5q0 148 108 249q106 98 256 98q143 0 248 -102.5t105 -244.5q0 -144 -106 -245t-252 -101zM396 627q-120 0 -207.5 -86.5t-87.5 -207.5q0 -122 87.5 -208t210.5 -86t209.5 85.5t86.5 208.5t-87.5 208.5t-211.5 85.5zM405 138
q-88 0 -143.5 54t-55.5 141q0 85 54 140.5t138 55.5q52 0 111 -37l11 31h43v-149h-45q-16 109 -101 109q-58 0 -86 -50q-23 -40 -23 -100t22 -100q28 -50 86 -50q86 0 98 106h50q-6 -77 -43.5 -114t-115.5 -37z" />
    <glyph glyph-name="trademark" unicode="&#x2122;" horiz-adv-x="420" 
d="M163 630h-62v-162h-34v162h-60v33h156v-33zM297 464h-16l-51 115l-21 -111h-38l38 195h22l54 -119l5 -12q2 8 5 12l54 119h21l37 -195h-37l-21 111z" />
    <glyph glyph-name="acute" unicode="&#xb4;" horiz-adv-x="227" 
d="M12 515l156 34q52 12 52 50q0 15 -11 26t-27 11q-14 0 -44 -19l-132 -89z" />
    <glyph glyph-name="dieresis" unicode="&#xa8;" horiz-adv-x="316" 
d="M70 667q25 -1 42.5 -19t17.5 -43t-18 -43t-44 -17q-25 0 -43 17t-19 43q0 25 19 43.5t45 18.5zM253 667q25 -1 42.5 -19t17.5 -43t-18 -42.5t-43 -17.5q-26 -1 -44 16.5t-19 43.5q0 25 19 43.5t45 18.5z" />
    <glyph glyph-name="AE" unicode="&#xc6;" horiz-adv-x="1275" 
d="M141 612q-1 21 0 52l513 1v-57q-40 2 -64 0q17 -24 53 -87q54 69 142 110q85 40 177 44q39 2 71 -2q36 -5 46 -5q16 0 71 -18q59 -18 59 -28q0 -9 -12 -29t-20 -25q-61 45 -147 45q-106 0 -191 -62q-90 -64 -104 -162h311q41 0 72 18q-3 -83 0 -86q-20 5 -72 15
q-81 2 -311 -1q-1 -12 -1 -23q0 -96 83 -171q78 -71 185 -85q0 -1 2 -1q94 0 181 71q11 -17 33 -55q-102 -89 -249 -89q-44 0 -101 18t-87 42q3 -6 19 -42l-241 1q29 79 29 87q3 40 -2 124q-11 31 -16 64q-42 147 -219 321q-111 -110 -183 -292q1 -7 7 -4q65 69 217 69
q39 0 90 -17q9 -20 23 -67q16 -55 14 -69l-6 -2q-27 10 -52 32q-28 25 -45 33q-34 15 -96 15q-80 0 -139 -55q-62 -56 -62 -136q0 -35 21 -59q30 -33 35 -45q-45 1 -168 0q35 53 37 93q29 180 109 335q58 112 127 185z" />
    <glyph glyph-name="Oslash" unicode="&#xd8;" horiz-adv-x="946" 
d="M264 129q44 -90 145 -85l14 1q103 5 155 82q46 67 46 171q0 92 -24 158zM409 -12q-123 0 -229 58l-65 -63l-35 36l57 55q-123 90 -123 230q0 228 307 274q92 9 126 -9l-2 -29q-4 -3 -8 -1q-5 3 -8 3q-7 0 -19.5 2t-19.5 2q-75 0 -120 -71q-38 -61 -38 -140q0 -96 14 -154
l332 323q-35 60 -90 88q-48 24 -126 31q-13 1 -26 1q-77 0 -162 -46l-4 3q-3 23 -8 68q15 5 76.5 14t79.5 9h85q164 0 278 -67l79 77l35 -36l-72 -70q125 -99 125 -277v-13q-71 -298 -439 -298z" />
    <glyph glyph-name="plusminus" unicode="&#xb1;" horiz-adv-x="848" 
d="M744 0h-243q29 32 22 135l-145 65q-161 71 -233 99q-10 -9 -10 -105q0 -133 51 -194q-49 2 -167 0q39 62 49 196q11 159 25 205q45 141 148 216q-72 4 -171 -11q-1 14 0 59h667l-12 -22v-568q-1 -37 19 -75zM530 286q0 13 -2 236q0 65 -41 83q-24 11 -98 11
q-69 0 -140 -55q-74 -57 -78 -123q33 -15 359 -152zM525 229q-1 4 -180.5 81.5t-185.5 77.5q-9 0 -11 -36l375 -163q5 34 2 40z" />
    <glyph glyph-name="yen" unicode="&#xa5;" horiz-adv-x="843" 
d="M192 262h82q-182 300 -200 319q-7 8 -65 84h356v-50h-130q-16 0 -32 -10q-22 -13 -20 -32q1 -8 24 -50q34 -64 127 -205l146 282q1 15 1 30q-2 26 -21 35h301q-21 -20 -50 -55q-56 -112 -200 -348h91v-50h-95v-50h95v-50h-95v-53q4 -33 23 -59h-288q37 47 37 62v50h-87
v50h87v50h-87v50z" />
    <glyph glyph-name="mu" unicode="&#xb5;" horiz-adv-x="676" 
d="M593 -1h-587q7 15 15 30q12 23 11 47v517q-4 32 -24 72h435q4 -44 0 -54h-225v-544q8 1 23 0h92q121 0 177 94q17 29 45 129h39z" />
    <glyph glyph-name="mu" unicode="&#x3bc;" horiz-adv-x="676" 
d="M593 -1h-587q7 15 15 30q12 23 11 47v517q-4 32 -24 72h435q4 -44 0 -54h-225v-544q8 1 23 0h92q121 0 177 94q17 29 45 129h39z" />
    <glyph glyph-name="ordfeminine" unicode="&#xaa;" horiz-adv-x="797" 
d="M716 1q21 0 -10 0h-168h-540l419 600l-293 -1q-32 0 -73 -17v81h665l-426 -593q243 0 301 -1q65 -3 124 26zM510 826l57 1l-149 -129h-66l-149 129q15 0 62 -1l120 -71z" />
    <glyph glyph-name="ordmasculine" unicode="&#xba;" horiz-adv-x="656" 
d="M260 67q-9 -1 6 -2q37 -2 188 -1q47 1 89 15v-77h-539l294 414l-186 -1q-26 0 -65 -14l1 75h515q22 31 -303 -409zM440 666l57 1l-149 -129h-66l-149 129q15 0 62 -1l120 -71z" />
    <glyph glyph-name="ae" unicode="&#xe6;" horiz-adv-x="955" 
d="M372 301q-11 -5 -30 -11q-50 -11 -94 -46q-50 -40 -50 -84q0 -35 21 -64q23 -32 60 -32q18 0 93 28v209zM834 260q-33 9 -44 9h-242q-1 -11 -1 -22q0 -68 51 -128q53 -63 122 -63q32 0 86 19l54 19q6 0 9 -10t3 -17q-2 -29 -61.5 -51.5t-126.5 -22.5q-15 0 -28 1
q-26 3 -58 15q-45 16 -62 41v-50h-165v29l-78 -17t-110 -17q-68 0 -119 33q-59 39 -59 103q0 81 69 129q48 33 151 61q121 34 147 46q0 22 -28 37q-23 13 -48 13q-75 0 -138 -22q-22 -8 -77 -36q-24 50 -34 76q104 46 283 46q120 0 192 -46q53 43 172 47q86 2 169 -53
q-17 -25 -44 -61q-60 59 -116 59q-54 0 -101 -32.5t-49 -70.5l237 -1q7 0 44 10v-73z" />
    <glyph glyph-name="oslash" unicode="&#xf8;" horiz-adv-x="645" 
d="M547 234q0 -101 -86 -173q-81 -69 -184 -68q-88 0 -158 44l-54 -55l-36 35l50 51q-72 68 -74 167q-2 111 80 183q78 67 188 67q96 0 166 -45l52 54l36 -35l-48 -50q68 -68 68 -175zM355 353q-21 74 -84 74q-46 0 -70 -68q-16 -50 -16 -108q0 -40 3 -70zM365 248
q0 24 -1 42l-164 -169q21 -69 74 -69q91 0 91 196z" />
    <glyph glyph-name="questiondown" unicode="&#xbf;" horiz-adv-x="464" 
d="M13 -31q0 84 69 127q58 35 148 35q1 3 1 110q55 2 69 0v-159q-68 -21 -78 -27q-37 -22 -37 -71q0 -106 119 -106q57 0 122 63l18 -18q-35 -72 -91.5 -100t-156.5 -23q-67 3 -125 53.5t-58 115.5zM173 385q0 41 30 70t71 28q42 -1 70 -32t25 -72q-3 -38 -30 -63t-65 -26
q-41 -1 -70.5 27t-30.5 68z" />
    <glyph glyph-name="exclamdown" unicode="&#xa1;" horiz-adv-x="330" 
d="M109 244h49l44 -190q31 -137 31 -180q0 -37 -33 -58q-29 -18 -69 -18q-37 0 -68 18q-36 22 -34 57q2 27 11 63q7 32 15 63q23 110 54 245zM34 389q0 40 29 68t69 27q38 0 65 -25.5t30 -63.5q3 -42 -25.5 -73.5t-70.5 -31.5q-41 0 -69.5 29t-27.5 70z" />
    <glyph glyph-name="logicalnot" unicode="&#xac;" horiz-adv-x="29" 
 />
    <glyph glyph-name="florin" unicode="&#x192;" horiz-adv-x="9" 
 />
    <glyph glyph-name="guillemotleft" unicode="&#xab;" horiz-adv-x="438" 
d="M281 72l-104 164l104 167l57 1l-73 -168l66 -164h-50zM141 72l-104 164l104 167l57 1l-73 -168l66 -164h-50z" />
    <glyph glyph-name="guillemotright" unicode="&#xbb;" horiz-adv-x="437" 
d="M85 414l104 -164l-104 -168h-57l73 168l-66 164h50zM225 414l104 -164l-104 -168h-57l73 168l-66 164h50z" />
    <glyph glyph-name="ellipsis" unicode="&#x2026;" horiz-adv-x="949" 
d="M160 141q32 0 54.5 -23.5t22.5 -55.5q0 -33 -22.5 -56t-55.5 -23t-56 22.5t-23 55.5q0 34 23 57t57 23zM463 141q32 0 54.5 -23.5t22.5 -55.5q0 -33 -22.5 -56t-55.5 -23t-56 22.5t-23 55.5q0 34 23 57t57 23zM766 141q32 0 54.5 -23.5t22.5 -55.5q0 -33 -22.5 -56
t-55.5 -23t-56 22.5t-23 55.5q0 34 23 57t57 23z" />
    <glyph glyph-name="nonbreakingspace" unicode="&#xa0;" 
 />
    <glyph glyph-name="Agrave" unicode="&#xc0;" horiz-adv-x="901" 
d="M119 614v52h582v-56q-108 2 -133 0q75 -104 126 -247q54 -151 54 -272q0 -35 30 -91l-240 1q19 79 18 87q-7 295 -226 511q-111 -110 -184 -292q1 -7 7 -4q65 69 218 69q38 0 89 -17q10 -20 24 -67q16 -55 13 -69l-6 -2q-27 10 -52 32q-28 25 -45 33q-34 15 -95 15
q-80 0 -141 -56.5t-61 -136.5q0 -35 22 -59q29 -33 35 -45q-46 1 -168 0q34 53 37 93q28 180 108 336q59 114 127 186zM473 703l-155 34q-68 15 -68 56q0 42 43 53q17 4 41 -12q15 -12 29 -24l117 -94z" />
    <glyph glyph-name="Atilde" unicode="&#xc3;" horiz-adv-x="901" 
d="M141 614q-1 21 0 52h581v-56q-108 2 -132 0q76 -106 129 -248q57 -154 57 -273q0 -31 24 -89l-241 1q19 79 19 87q-7 295 -227 511q-111 -110 -183 -292q1 -7 7 -4q65 69 217 69q39 0 90 -17q9 -20 23 -67q16 -55 14 -69l-6 -2q-27 10 -52 32q-28 25 -45 33
q-34 15 -96 15q-79 0 -140 -56.5t-61 -136.5q0 -35 21 -59q30 -33 35 -45q-45 1 -168 0q35 53 37 93q29 180 109 336q58 114 127 186zM284 713l-30 11q38 93 102 93q23 0 71.5 -21t64.5 -21q59 0 74 28l26 -24q-12 -26 -44 -49.5t-60 -23.5q-23 0 -68 21.5t-67 21.5
q-15 0 -38.5 -12t-30.5 -24z" />
    <glyph glyph-name="Otilde" unicode="&#xd5;" horiz-adv-x="944" 
d="M848 286q6 -73 -56 -149q-121 -149 -383 -149q-149 0 -265 81q-130 91 -130 235q0 241 307 283q29 -1 52 -2q55 -5 74 -16l-7 -30q-27 7 -50 7q-75 0 -120 -71q-38 -61 -38 -140q0 -176 65 -242q39 -40 119 -46q87 0 149 78q59 75 59 173q0 325 -268 325q-99 0 -182 -45
l-4 3q-3 26 -8 78q26 6 156 13h85q196 0 317 -93q133 -103 128 -293zM284 715l-30 11q38 93 102 93q23 0 71.5 -21t64.5 -21q45 0 73 28l27 -24q-12 -26 -44 -49.5t-60 -23.5q-23 0 -68 21.5t-67 21.5q-15 0 -38.5 -12t-30.5 -24z" />
    <glyph glyph-name="OE" unicode="&#x152;" horiz-adv-x="1228" 
d="M1152 0l-528 -1l14 38q-96 -52 -258 -52q-148 0 -252 88q-112 94 -112 244q0 133 90 200q72 54 215 70q5 -2 56 -4.5t70 -13.5l3 -16q-2 -2 -4 -8t-7 -6q-6 0 -24 3.5t-25 3.5q-79 0 -124 -83q-36 -67 -36 -154q0 -86 34 -163q43 -99 118 -104q14 -2 27 -2q215 0 215 258
q0 157 -57 235q-66 91 -214 91q-127 0 -186 -32q-3 -11 -3 2q-1 8 0 30q1 23 1 24q63 27 226 27q145 0 249 -55q-1 3 -12 44h509v-81q-22 15 -47 15h-278v-92l252 1q11 0 55 7v-72q-55 8 -54 8h-255l-1 -378l273 1q41 0 70 16v-89z" />
    <glyph glyph-name="oe" unicode="&#x153;" horiz-adv-x="930" 
d="M371 259q0 65 -18 108q-25 60 -82 60q-46 0 -70 -68q-16 -49 -16 -108q0 -199 89 -199q90 0 98 151v28q-1 22 -1 28zM833 261q-31 8 -43 8l-254 -1q1 8 1 -35q0 -64 48 -119q51 -58 115 -58q30 0 83 19t57 19q12 0 12 -19q0 -45 -88 -69q-61 -16 -125 -16q-110 0 -188 63
q-79 -60 -174 -60q-111 0 -189 67q-83 71 -83 180q0 108 81 178q77 67 187 67q115 0 191 -63q83 60 193 60q100 0 186 -53q-15 -21 -44 -61q-60 59 -116 59q-47 0 -90 -28q-48 -31 -50 -75l248 1q7 -2 42 3v-67z" />
    <glyph glyph-name="endash" unicode="&#x2013;" horiz-adv-x="723" 
d="M605 183h-599v161h599v-161z" />
    <glyph glyph-name="emdash" unicode="&#x2014;" horiz-adv-x="897" 
d="M779 173h-779v161h779v-161z" />
    <glyph glyph-name="quotedblleft" unicode="&#x201c;" horiz-adv-x="538" 
d="M249 484q0 90 85 150q48 34 70 34t22 -14q0 1 -32.5 -38.5t-32.5 -80.5q0 -11 19 -20q27 -14 35 -22q19 -18 21 -51q1 -37 -24 -64q-27 -30 -67 -30q-35 0 -65.5 31.5t-30.5 66.5v38zM249 484q0 90 85 150q48 34 70 34t22 -14q0 1 -32.5 -38.5t-32.5 -80.5q0 -11 19 -20
q27 -14 35 -22q19 -18 21 -51q1 -37 -24 -64q-27 -30 -67 -30q-35 0 -65.5 31.5t-30.5 66.5v38zM249 484q0 90 85 150q48 34 70 34t22 -14q0 1 -32.5 -38.5t-32.5 -80.5q0 -11 19 -20q27 -14 35 -22q19 -18 21 -51q1 -37 -24 -64q-27 -30 -67 -30q-35 0 -65.5 31.5
t-30.5 66.5v38zM19 484q0 90 85 150q48 34 70 34t22 -14q0 1 -32.5 -38.5t-32.5 -80.5q0 -11 19 -20q27 -14 35 -22q19 -18 21 -51q1 -37 -24 -64q-27 -30 -67 -30q-35 0 -65.5 31.5t-30.5 66.5v38zM19 484q0 90 85 150q48 34 70 34t22 -14q0 1 -32.5 -38.5t-32.5 -80.5
q0 -11 19 -20q27 -14 35 -22q19 -18 21 -51q1 -37 -24 -64q-27 -30 -67 -30q-35 0 -65.5 31.5t-30.5 66.5v38zM19 484q0 90 85 150q48 34 70 34t22 -14q0 1 -32.5 -38.5t-32.5 -80.5q0 -11 19 -20q27 -14 35 -22q19 -18 21 -51q1 -37 -24 -64q-27 -30 -67 -30
q-35 0 -65.5 31.5t-30.5 66.5v38z" />
    <glyph glyph-name="quotedblright" unicode="&#x201d;" horiz-adv-x="537" 
d="M206 533q0 -90 -85 -151q-48 -34 -70 -34t-22 14q0 -1 32.5 38.5t32.5 80.5q0 11 -19 21q-27 13 -35 21q-20 18 -21 51q-1 37 24.5 65.5t66.5 28.5q35 0 65.5 -31.5t30.5 -66.5v-37zM206 533q0 -90 -85 -151q-48 -34 -70 -34t-22 14q0 -1 32.5 38.5t32.5 80.5
q0 11 -19 21q-27 13 -35 21q-20 18 -21 51q-1 37 24.5 65.5t66.5 28.5q35 0 65.5 -31.5t30.5 -66.5v-37zM206 533q0 -90 -85 -151q-48 -34 -70 -34t-22 14q0 -1 32.5 38.5t32.5 80.5q0 11 -19 21q-27 13 -35 21q-20 18 -21 51q-1 37 24.5 65.5t66.5 28.5q35 0 65.5 -31.5
t30.5 -66.5v-37zM436 533q0 -90 -85 -151q-48 -34 -70 -34t-22 14q0 -1 32.5 38.5t32.5 80.5q0 11 -19 21q-27 13 -35 21q-20 18 -21 51q-1 37 24.5 65.5t66.5 28.5q35 0 65.5 -31.5t30.5 -66.5v-37zM436 533q0 -90 -85 -151q-48 -34 -70 -34t-22 14q0 -1 32.5 38.5
t32.5 80.5q0 11 -19 21q-27 13 -35 21q-20 18 -21 51q-1 37 24.5 65.5t66.5 28.5q35 0 65.5 -31.5t30.5 -66.5v-37zM436 533q0 -90 -85 -151q-48 -34 -70 -34t-22 14q0 -1 32.5 38.5t32.5 80.5q0 11 -19 21q-27 13 -35 21q-20 18 -21 51q-1 37 24.5 65.5t66.5 28.5
q35 0 65.5 -31.5t30.5 -66.5v-37z" />
    <glyph glyph-name="quoteleft" unicode="&#x2018;" horiz-adv-x="308" 
d="M19 484q0 90 85 150q48 34 70 34t22 -14q0 1 -32.5 -38.5t-32.5 -80.5q0 -11 19 -20q27 -14 35 -22q19 -18 21 -51q1 -37 -24 -64q-27 -30 -67 -30q-35 0 -65.5 31.5t-30.5 66.5v38zM19 484q0 90 85 150q48 34 70 34t22 -14q0 1 -32.5 -38.5t-32.5 -80.5q0 -11 19 -20
q27 -14 35 -22q19 -18 21 -51q1 -37 -24 -64q-27 -30 -67 -30q-35 0 -65.5 31.5t-30.5 66.5v38zM19 484q0 90 85 150q48 34 70 34t22 -14q0 1 -32.5 -38.5t-32.5 -80.5q0 -11 19 -20q27 -14 35 -22q19 -18 21 -51q1 -37 -24 -64q-27 -30 -67 -30q-35 0 -65.5 31.5
t-30.5 66.5v38z" />
    <glyph glyph-name="quoteright" unicode="&#x2019;" horiz-adv-x="307" 
d="M206 533q0 -90 -85 -151q-48 -34 -70 -34t-22 14q0 -1 32.5 38.5t32.5 80.5q0 11 -19 21q-27 13 -35 21q-20 18 -21 51q-1 37 24.5 65.5t66.5 28.5q35 0 65.5 -31.5t30.5 -66.5v-37zM206 533q0 -90 -85 -151q-48 -34 -70 -34t-22 14q0 -1 32.5 38.5t32.5 80.5
q0 11 -19 21q-27 13 -35 21q-20 18 -21 51q-1 37 24.5 65.5t66.5 28.5q35 0 65.5 -31.5t30.5 -66.5v-37zM206 533q0 -90 -85 -151q-48 -34 -70 -34t-22 14q0 -1 32.5 38.5t32.5 80.5q0 11 -19 21q-27 13 -35 21q-20 18 -21 51q-1 37 24.5 65.5t66.5 28.5q35 0 65.5 -31.5
t30.5 -66.5v-37z" />
    <glyph glyph-name="divide" unicode="&#xf7;" horiz-adv-x="691" 
d="M404 573q0 -38 -26.5 -65t-65.5 -27q-38 0 -64.5 27.5t-26.5 65.5q0 39 27.5 65t65.5 26q37 0 63.5 -27.5t26.5 -64.5zM627 272h-621l-1 138h623zM312 11q-38 0 -64.5 27.5t-26.5 65.5q0 39 27.5 65t65.5 26q37 0 63.5 -27.5t26.5 -64.5q0 -38 -26.5 -65t-65.5 -27z" />
    <glyph glyph-name="ydieresis" unicode="&#xff;" horiz-adv-x="689" 
d="M594 477q-13 -16 -38 -50q-47 -65 -99 -252t-104 -259q-86 -120 -252 -120q-57 0 -61 24l9 12q46 0 103.5 61t57.5 107q0 39 -207 476l302 1l-3 -35q-80 0 -104 -9q-51 -18 -51 -84q0 -51 35 -138q30 -67 59 -134q23 37 117 400h236zM220 666q25 0 42.5 -18t17.5 -44
q0 -25 -18 -42.5t-44 -17.5q-25 0 -43 17.5t-19 42.5q0 26 19 44.5t45 17.5zM403 666q25 0 43 -18t17 -44q0 -25 -18 -42.5t-43 -17.5q-26 0 -44 17.5t-19 42.5q0 26 19 44.5t45 17.5z" />
    <glyph glyph-name="Ydieresis" unicode="&#x178;" horiz-adv-x="818" 
d="M761 665q-48 -45 -185 -303q-140 -263 -140 -317q0 -19 14 -44h-288q27 28 82 112q62 93 54 107q-30 54 -140 224q-114 176 -149 221h356v-50q-4 0 -32.5 2t-47.5 2q-102 0 -102 -46q0 -25 64 -137l86 -144q40 84 81 167q68 140 68 155q0 40 -22 51h301zM310 837
q25 -1 42.5 -19t17.5 -43t-18 -43t-44 -17q-25 0 -43 17t-19 43q0 25 19 43.5t45 18.5zM493 837q25 -1 43 -19t17 -43q0 -25 -18 -42.5t-43 -17.5q-26 -1 -44 16.5t-19 43.5q0 25 19 43.5t45 18.5z" />
    <glyph glyph-name="currency" unicode="&#xa4;" 
 />
    <glyph glyph-name="guilsinglleft" unicode="&#x2039;" horiz-adv-x="318" 
d="M161 72l-104 164l104 167l57 1l-73 -168l66 -164h-50z" />
    <glyph glyph-name="guilsinglright" unicode="&#x203a;" horiz-adv-x="327" 
d="M116 72l105 164l-105 167l-56 1l73 -168l-66 -164h49z" />
    <glyph glyph-name="daggerdbl" unicode="&#x2021;" horiz-adv-x="602" 
d="M201 239q33 64 42 153q-25 -2 -80 -18q-50 -15 -79 -15q-59 0 -59 56q0 59 64 59q16 0 70 -14q61 -16 80 -18q0 31 -18 91t-18 91q0 29 18.5 45.5t48.5 16.5q29 0 48.5 -17.5t19.5 -46.5q0 -30 -18 -89t-18 -91q18 2 80 18q54 14 71 14q27 0 45 -15.5t18 -42.5
q0 -26 -17 -41.5t-43 -15.5q-29 0 -79 15q-55 16 -80 18q8 -89 42 -153q-33 -57 -42 -151q27 3 82 19q50 15 77 15q59 0 59 -56q0 -59 -63 -59q-17 0 -71 14q-61 16 -80 18q1 -31 18.5 -90.5t17.5 -91.5q0 -29 -18.5 -46t-48.5 -17q-29 0 -48 17.5t-19 46.5q0 30 17.5 89.5
t18.5 91.5q-19 -2 -80 -18q-54 -14 -71 -14q-28 0 -45.5 15.5t-17.5 42.5q0 26 16.5 41.5t42.5 15.5q28 0 78 -15q55 -16 81 -19q-8 92 -42 151z" />
    <glyph glyph-name="periodcentered" unicode="&#xb7;" horiz-adv-x="334" 
d="M43 293q0 37 26 63t64 26q37 0 63.5 -26t26.5 -63q0 -36 -26.5 -62t-63.5 -26q-38 0 -64 26t-26 62z" />
    <glyph glyph-name="periodcentered" unicode="&#x2219;" horiz-adv-x="334" 
d="M43 293q0 37 26 63t64 26q37 0 63.5 -26t26.5 -63q0 -36 -26.5 -62t-63.5 -26q-38 0 -64 26t-26 62z" />
    <glyph glyph-name="quotesinglbase" unicode="&#x201a;" horiz-adv-x="320" 
d="M206 43q0 -90 -85 -151q-48 -34 -70 -34t-22 14q0 -1 32.5 38.5t32.5 80.5q0 11 -19 21q-27 13 -35 21q-20 18 -21 51q-1 37 24.5 65.5t66.5 28.5q35 0 65.5 -31.5t30.5 -66.5v-37zM206 43q0 -90 -85 -151q-48 -34 -70 -34t-22 14q0 -1 32.5 38.5t32.5 80.5q0 11 -19 21
q-27 13 -35 21q-20 18 -21 51q-1 37 24.5 65.5t66.5 28.5q35 0 65.5 -31.5t30.5 -66.5v-37zM206 43q0 -90 -85 -151q-48 -34 -70 -34t-22 14q0 -1 32.5 38.5t32.5 80.5q0 11 -19 21q-27 13 -35 21q-20 18 -21 51q-1 37 24.5 65.5t66.5 28.5q35 0 65.5 -31.5t30.5 -66.5v-37z
" />
    <glyph glyph-name="quotedblbase" unicode="&#x201e;" horiz-adv-x="550" 
d="M206 43q0 -90 -85 -151q-48 -34 -70 -34t-22 14q0 -1 32.5 38.5t32.5 80.5q0 11 -19 21q-27 13 -35 21q-20 18 -21 51q-1 37 24.5 65.5t66.5 28.5q35 0 65.5 -31.5t30.5 -66.5v-37zM206 43q0 -90 -85 -151q-48 -34 -70 -34t-22 14q0 -1 32.5 38.5t32.5 80.5q0 11 -19 21
q-27 13 -35 21q-20 18 -21 51q-1 37 24.5 65.5t66.5 28.5q35 0 65.5 -31.5t30.5 -66.5v-37zM206 43q0 -90 -85 -151q-48 -34 -70 -34t-22 14q0 -1 32.5 38.5t32.5 80.5q0 11 -19 21q-27 13 -35 21q-20 18 -21 51q-1 37 24.5 65.5t66.5 28.5q35 0 65.5 -31.5t30.5 -66.5v-37z
M436 43q0 -90 -85 -151q-48 -34 -70 -34t-22 14q0 -1 32.5 38.5t32.5 80.5q0 11 -19 21q-27 13 -35 21q-20 18 -21 51q-1 37 24.5 65.5t66.5 28.5q35 0 65.5 -31.5t30.5 -66.5v-37zM436 43q0 -90 -85 -151q-48 -34 -70 -34t-22 14q0 -1 32.5 38.5t32.5 80.5q0 11 -19 21
q-27 13 -35 21q-20 18 -21 51q-1 37 24.5 65.5t66.5 28.5q35 0 65.5 -31.5t30.5 -66.5v-37zM436 43q0 -90 -85 -151q-48 -34 -70 -34t-22 14q0 -1 32.5 38.5t32.5 80.5q0 11 -19 21q-27 13 -35 21q-20 18 -21 51q-1 37 24.5 65.5t66.5 28.5q35 0 65.5 -31.5t30.5 -66.5v-37z
" />
    <glyph glyph-name="perthousand" unicode="&#x2030;" 
 />
    <glyph glyph-name="Acircumflex" unicode="&#xc2;" horiz-adv-x="901" 
d="M145 615q-5 19 -4 50h581v-56q-108 2 -132 0q75 -104 126 -247q53 -150 53 -271q0 -35 31 -91l-241 1q19 79 19 87q-7 294 -227 510q-111 -110 -183 -292q1 -7 7 -4q65 69 217 69q39 0 90 -17q9 -20 23 -67q16 -55 14 -69l-6 -2q-27 10 -52 32q-28 25 -45 33
q-34 15 -96 15q-80 0 -139 -55q-62 -57 -62 -137q0 -35 21 -59q30 -33 35 -45q-45 1 -168 0q35 53 37 93q29 180 109 336q58 112 127 185zM284 696l-57 -1l149 130h65l150 -130q-15 1 -62 1l-120 72z" />
    <glyph glyph-name="Ecircumflex" unicode="&#xca;" horiz-adv-x="610" 
d="M534 0l-532 1l16 44t6 51q0 479 -1 481q-1 36 -15 88h509v-81q-30 20 -62 16l-244 -1v-92l238 1l50 7v-72l-54 8h-235v-376h246q56 0 77 12q1 -23 1 -87zM134 696l-57 -1l149 130h65l150 -130q-15 1 -62 1l-120 72z" />
    <glyph glyph-name="Aacute" unicode="&#xc1;" horiz-adv-x="901" 
d="M141 613q-1 21 0 52h581v-56q-108 2 -132 0q75 -104 126 -247q53 -150 53 -271q0 -35 31 -91l-241 1q19 79 19 87q-7 294 -227 510q-111 -110 -183 -292q1 -7 7 -4q65 69 217 69q39 0 90 -17q9 -20 23 -67q16 -55 14 -69l-6 -2q-27 10 -52 32q-28 25 -45 33
q-34 15 -96 15q-80 0 -139 -55q-62 -57 -62 -137q0 -35 21 -59q30 -33 35 -45q-45 1 -168 0q35 53 37 93q29 180 109 335q58 111 126 184zM306 702l155 34q68 15 68 56q0 44 -44 55q-16 4 -40 -13q-15 -13 -29 -25l-117 -94z" />
    <glyph glyph-name="Edieresis" unicode="&#xcb;" horiz-adv-x="609" 
d="M532 0l-526 1q22 38 18 95v478q-2 34 -8 50l-14 42q239 -1 515 -1v-81q-30 20 -59 16l-247 -1v-92l229 1l59 7v-72l-59 9l-230 -1v-376h248q51 0 73 12q1 -32 1 -87zM165 821q25 -1 43 -18.5t17 -42.5q0 -26 -18 -43.5t-43 -17.5q-26 0 -44 17.5t-18 42.5q-1 26 18 44.5
t45 17.5zM358 821q25 0 43 -18t18 -43q-1 -26 -19 -43.5t-43 -17.5t-43.5 17.5t-18.5 42.5q-1 26 18 44.5t45 17.5z" />
    <glyph glyph-name="Egrave" unicode="&#xc8;" horiz-adv-x="611" 
d="M532 0l-526 1q22 38 18 95v468q-1 43 -16 101h509v-81q-30 20 -60 16l-245 -1v-93l233 -1l54 9l-1 -77l-56 12h-229l-1 -375l251 1q46 0 68 12q1 -32 1 -87zM365 701l-155 34q-69 15 -69 56q0 44 44 55q17 4 41 -13q14 -13 29 -25l117 -94z" />
    <glyph glyph-name="Iacute" unicode="&#xcd;" horiz-adv-x="372" 
d="M271 665q-27 -24 -26 -63v-525q0 -43 26 -76h-251q7 14 13 29q8 22 10 45q-3 527 0 527q-1 12 -3 23q-5 26 -17 40h248zM36 702l155 34q68 15 68 56q0 44 -44 55q-16 4 -40 -13q-15 -13 -29 -25l-117 -94z" />
    <glyph glyph-name="Icircumflex" unicode="&#xce;" horiz-adv-x="373" 
d="M271 665q-27 -24 -26 -63v-525q0 -43 26 -76h-251q7 14 13 29q8 22 10 45q-3 527 0 527q-1 12 -3 23q-5 26 -17 40h248zM50 696l-57 -1l119 130h65l120 -130q-15 1 -62 1l-90 72z" />
    <glyph glyph-name="Idieresis" unicode="&#xcf;" horiz-adv-x="370" 
d="M271 667q-29 -23 -26 -65v-525q0 -43 26 -76h-251q7 13 14 27q10 21 9 47q-3 527 0 527q-1 13 -3 24q-5 27 -17 41h248zM65 823q24 0 42 -18.5t18 -42.5q0 -25 -18 -43t-43 -18t-43.5 17.5t-18.5 42.5q0 26 18.5 44t44.5 18zM228 823q24 0 42.5 -18.5t18.5 -42.5
q0 -25 -18.5 -43t-43.5 -18t-43.5 17.5t-18.5 42.5q0 26 18.5 44t44.5 18z" />
    <glyph glyph-name="Igrave" unicode="&#xcc;" horiz-adv-x="370" 
d="M271 666q-27 -24 -26 -63v-526q0 -43 26 -76h-251q7 14 13 29q8 22 10 45q-3 528 0 528q-1 12 -3 23q-5 26 -17 40h248zM255 703l-155 34q-69 15 -69 56q0 44 44 55q17 4 41 -13q14 -13 29 -25l117 -94z" />
    <glyph glyph-name="Oacute" unicode="&#xd3;" horiz-adv-x="940" 
d="M848 286q-11 -18 -27 -73q-14 -49 -35 -75q-122 -150 -377 -150q-149 0 -265 81q-130 91 -130 235q0 100 46 157q37 45 115 76l146 50q2 -2 55 -5t71 -13l5 -19q-8 -8 -23 -8q-7 0 -20 2t-19 2q-75 0 -120 -71q-38 -61 -38 -140q0 -103 39 -195q54 -122 147 -92l5 -3
q102 -2 155 78q46 69 46 175q0 320 -273 320q-102 0 -177 -40l-4 3q0 5 -5 80l15 6q16 -3 36 -3q17 0 51.5 4t50.5 4h85q196 0 317 -93q133 -103 128 -293zM306 701l155 34q68 15 68 56q0 44 -44 55q-16 4 -40 -13q-15 -13 -29 -25l-117 -94z" />
    <glyph glyph-name="Ocircumflex" unicode="&#xd4;" horiz-adv-x="940" 
d="M848 286q-11 -18 -27 -73q-14 -49 -35 -75q-122 -150 -377 -150q-149 0 -265 81q-130 91 -130 235q0 100 46 157q37 45 115 76l146 50q2 -2 55 -5t71 -13l5 -19q-8 -8 -23 -8q-7 0 -20 2t-19 2q-75 0 -120 -71q-38 -61 -38 -140q0 -103 39 -195q54 -122 147 -92l5 -3
q102 -2 155 78q46 69 46 175q0 320 -273 320q-102 0 -177 -40l-4 3q0 5 -5 80l15 6q16 -3 36 -3q17 0 51.5 4t50.5 4h85q196 0 317 -93q133 -103 128 -293zM284 695l-57 -1l149 130h65l150 -130q-15 1 -62 1l-120 72z" />
    <glyph glyph-name="Ograve" unicode="&#xd2;" horiz-adv-x="940" 
d="M848 286q-11 -18 -27 -73q-14 -49 -35 -75q-122 -150 -377 -150q-149 0 -265 81q-130 91 -130 235q0 100 46 157q37 45 115 76l146 50q2 -2 55 -5t71 -13l5 -19q-8 -8 -23 -8q-7 0 -20 2t-19 2q-75 0 -120 -71q-38 -61 -38 -140q0 -103 39 -195q54 -122 147 -92l5 -3
q102 -2 155 78q46 69 46 175q0 320 -273 320q-102 0 -177 -40l-4 3q0 5 -5 80l15 6q16 -3 36 -3q17 0 51.5 4t50.5 4h85q196 0 317 -93q133 -103 128 -293zM495 701l-155 34q-69 15 -69 56q0 44 44 55q17 4 41 -13q14 -13 29 -25l117 -94z" />
    <glyph glyph-name="Uacute" unicode="&#xda;" horiz-adv-x="876" 
d="M776 1h-220q2 9 -1 45l-1 19q-56 -28 -114 -54.5t-123 -26.5q-123 0 -211 78q-91 81 -91 203q0 116 84 218q81 96 196 133q-152 4 -229 0l-1 51l366 -3l1 -46q-100 0 -156 -102q-46 -84 -46 -193q0 -100 42 -171q50 -84 144 -84q54 0 97 28q49 32 49 83v422q0 35 -20 65
h228q-17 -35 -17 -73v-518q0 -40 23 -74zM306 701l155 34q68 15 68 56q0 44 -44 55q-16 4 -40 -13q-15 -13 -29 -25l-117 -94z" />
    <glyph glyph-name="Ucircumflex" unicode="&#xdb;" horiz-adv-x="876" 
d="M776 1h-220q2 9 -1 45l-1 19q-56 -28 -114 -54.5t-123 -26.5q-123 0 -211 78q-91 81 -91 203q0 116 84 218q81 96 196 133q-152 4 -229 0l-1 51l366 -3l1 -46q-100 0 -156 -102q-46 -84 -46 -193q0 -100 42 -171q50 -84 144 -84q54 0 97 28q49 32 49 83v422q0 35 -20 65
h228q-17 -35 -17 -73v-518q0 -40 23 -74zM284 695l-57 -1l149 130h65l150 -130q-15 1 -62 1l-120 72z" />
    <glyph glyph-name="Ugrave" unicode="&#xd9;" horiz-adv-x="876" 
d="M776 1h-220q2 9 -1 45l-1 19q-56 -28 -114 -54.5t-123 -26.5q-123 0 -211 78q-91 81 -91 203q0 116 84 218q81 96 196 133q-152 4 -229 0l-1 51l366 -3l1 -46q-100 0 -156 -102q-46 -84 -46 -193q0 -100 42 -171q50 -84 144 -84q54 0 97 28q49 32 49 83v422q0 35 -20 65
h228q-17 -35 -17 -73v-518q0 -40 23 -74zM495 701l-155 34q-69 15 -69 56q0 44 44 55q17 4 41 -13q14 -13 29 -25l117 -94z" />
    <glyph glyph-name="circumflex" unicode="&#x2c6;" horiz-adv-x="304" 
d="M43 529h-44l129 135h59l126 -135h-50l-105 76z" />
    <glyph glyph-name="tilde" unicode="&#x2dc;" horiz-adv-x="338" 
d="M44 539l-39 14q39 94 103 94q23 0 71.5 -21.5t64.5 -21.5q46 0 65 34l35 -30q-12 -26 -44 -49.5t-60 -23.5q-23 0 -68 21.5t-67 21.5q-14 0 -33.5 -13t-27.5 -26z" />
    <glyph glyph-name="macron" unicode="&#xaf;" horiz-adv-x="372" 
d="M36 544v82h297v-82h-297z" />
    <glyph glyph-name="macron" unicode="&#x2c9;" horiz-adv-x="372" 
d="M36 544v82h297v-82h-297z" />
    <glyph glyph-name="cedilla" unicode="&#xb8;" horiz-adv-x="391" 
d="M109 -181l23 49q68 -39 116 -39q42 0 42 36q0 40 -42 40q-13 0 -33 -4v99h42v-56q24 3 42 3q35 0 58 -23.5t23 -58.5q0 -45 -31.5 -68.5t-77.5 -23.5q-59 0 -162 46z" />
    <glyph glyph-name="Scaron" unicode="&#x160;" 
 />
    <glyph glyph-name="scaron" unicode="&#x161;" 
 />
    <glyph glyph-name="brokenbar" unicode="&#xa6;" 
 />
    <glyph glyph-name="Eth" unicode="&#xd0;" 
 />
    <glyph glyph-name="eth" unicode="&#xf0;" 
 />
    <glyph glyph-name="Yacute" unicode="&#xdd;" 
 />
    <glyph glyph-name="yacute" unicode="&#xfd;" 
 />
    <glyph glyph-name="Thorn" unicode="&#xde;" 
 />
    <glyph glyph-name="thorn" unicode="&#xfe;" 
 />
    <glyph glyph-name="minus" unicode="&#xad;" 
 />
    <glyph glyph-name="minus" unicode="&#x2212;" 
 />
    <glyph glyph-name="multiply" unicode="&#xd7;" 
 />
    <glyph glyph-name="onesuperior" unicode="&#xb9;" 
 />
    <glyph glyph-name="twosuperior" unicode="&#xb2;" 
 />
    <glyph glyph-name="threesuperior" unicode="&#xb3;" 
 />
    <glyph glyph-name="onehalf" unicode="&#xbd;" 
 />
    <glyph glyph-name="onequarter" unicode="&#xbc;" 
 />
    <glyph glyph-name="threequarters" unicode="&#xbe;" 
 />
    <glyph glyph-name=".null" 
 />
    <glyph glyph-name="Lslash" unicode="&#x141;" 
 />
    <glyph glyph-name="lslash" unicode="&#x142;" 
 />
    <glyph glyph-name="HT" 
 />
    <glyph glyph-name="LF" 
 />
    <glyph glyph-name="nonmarkingreturn" 
 />
    <glyph glyph-name="Zcaron" unicode="&#x17d;" 
 />
    <glyph glyph-name="zcaron" unicode="&#x17e;" 
 />
    <glyph glyph-name="DLE" 
 />
    <glyph glyph-name="DC1" 
 />
    <glyph glyph-name="DC2" 
 />
    <glyph glyph-name="DC3" 
 />
    <glyph glyph-name="DC4" 
 />
    <glyph glyph-name="RS" 
 />
    <glyph glyph-name="US" 
 />
    <glyph glyph-name="infinity" unicode="&#x221e;" 
 />
    <glyph glyph-name="lessequal" unicode="&#x2264;" horiz-adv-x="17" 
 />
    <glyph glyph-name="greaterequal" unicode="&#x2265;" 
 />
    <glyph glyph-name="partialdiff" unicode="&#x2202;" horiz-adv-x="329" 
d="M206 664q1 -64 1 -597q0 -38 23 -66h-219q22 28 26 66l-2 528q-3 41 -21 69h192z" />
    <glyph glyph-name="summation" unicode="&#x2211;" horiz-adv-x="678" 
d="M615 174q0 -91 -114 -142q-89 -40 -192 -40q-72 0 -163 42q-85 39 -140 94q-1 3 34 34t36 33q85 -141 268 -141q34 0 64 13q38 17 38 47q0 26 -101 104q-172 132 -187 146q-101 87 -101 136q0 99 106 142q74 31 189 31q102 0 177 -52q-11 -47 -39 -67q-42 37 -86 51
q-38 13 -99 13q-23 0 -47 -8q-33 -10 -33 -26q0 -20 101 -92q135 -96 188 -145q101 -96 101 -173zM460 836l57 1l-149 -129h-66l-149 129q15 0 62 -1l120 -71z" />
    <glyph glyph-name="product" unicode="&#x220f;" horiz-adv-x="554" 
d="M474 106q-2 -72 -85 -99q-54 -17 -158 -17q-102 0 -220 40l-2 6q14 23 35 68q26 -27 71 -44t85 -17q82 0 82 38q0 19 -65 66q-97 69 -122 92q-65 59 -65 108q0 69 86 106q66 29 147 29q37 0 92 -8q62 -9 87 -21q-11 -44 -29 -69q-17 18 -65 31q-43 11 -74 11
q-79 0 -79 -31q0 -17 72 -69q102 -73 134 -102q73 -66 73 -118zM370 666l57 1l-149 -129h-66l-149 129q15 0 62 -1l120 -71z" />
    <glyph glyph-name="pi" unicode="&#x3c0;" horiz-adv-x="818" 
d="M761 665q-48 -45 -185 -303q-140 -263 -140 -317q0 -19 14 -44h-288q27 28 82 112q62 93 54 107q-30 54 -140 224q-114 176 -149 221h356v-50q-4 0 -32.5 2t-47.5 2q-102 0 -102 -46q0 -25 64 -137l86 -144q40 84 81 167q68 140 68 155q0 40 -22 51h301zM317 694l155 33
q52 12 52 51q0 14 -11 25.5t-26 11.5t-44 -20l-133 -88z" />
    <glyph glyph-name="integral" unicode="&#x222b;" horiz-adv-x="689" 
d="M594 477q-13 -16 -38 -50q-47 -65 -99 -252t-104 -259q-86 -120 -252 -120q-57 0 -61 24l9 12q46 0 103.5 61t57.5 107q0 36 -208 477h302l-2 -35q-80 0 -104 -9q-51 -18 -51 -84q0 -51 35 -138q30 -67 59 -134q23 37 117 400h236zM207 524l155 33q52 12 52 51
q0 14 -11 25.5t-26 11.5t-44 -20l-133 -88z" />
    <glyph glyph-name="Omega" unicode="&#x3a9;" horiz-adv-x="729" 
d="M16 454h67q42 103 144 165q96 60 206 60q155 0 215 -63l-38 -49q-70 45 -142 45q-138 0 -188 -158h198q16 0 16 -16v-37q0 -16 -16 -16h-213q-4 -30 -4 -61h217q16 0 16 -16v-37q0 -16 -16 -16h-213q30 -199 226 -199q73 0 123 65l33 -69q-31 -26 -96 -46
q-79 -24 -165 -24q-111 0 -204.5 77.5t-117.5 195.5h-48q-16 0 -16 16v37q0 16 16 16h41q0 31 6 61h-47q-16 0 -16 16v37q0 16 16 16z" />
    <glyph glyph-name="Omega" unicode="&#x2126;" horiz-adv-x="729" 
d="M16 454h67q42 103 144 165q96 60 206 60q155 0 215 -63l-38 -49q-70 45 -142 45q-138 0 -188 -158h198q16 0 16 -16v-37q0 -16 -16 -16h-213q-4 -30 -4 -61h217q16 0 16 -16v-37q0 -16 -16 -16h-213q30 -199 226 -199q73 0 123 65l33 -69q-31 -26 -96 -46
q-79 -24 -165 -24q-111 0 -204.5 77.5t-117.5 195.5h-48q-16 0 -16 16v37q0 16 16 16h41q0 31 6 61h-47q-16 0 -16 16v37q0 16 16 16z" />
    <glyph glyph-name="radical" unicode="&#x221a;" horiz-adv-x="29" 
 />
    <glyph glyph-name="approxequal" unicode="&#x2248;" 
 />
    <glyph glyph-name="approxequal" unicode="&#x22f2;" 
 />
    <glyph glyph-name="Delta" unicode="&#x394;" 
 />
    <glyph glyph-name="Delta" unicode="&#x2206;" 
 />
    <glyph glyph-name="lozenge" unicode="&#x25ca;" horiz-adv-x="466" 
d="M210 58l162 316l-156 309l-165 -307z" />
    <glyph glyph-name="fraction" unicode="&#x2044;" 
 />
    <glyph glyph-name="fi" unicode="&#xf001;" 
 />
    <glyph glyph-name="fl" unicode="&#xf002;" 
 />
    <glyph glyph-name="dotlessi" unicode="&#x131;" horiz-adv-x="334" 
d="M226 -1h-206q19 45 19 50v369q0 9 -22 56q58 1 189 0v-421q0 -5 20 -54z" />
    <glyph glyph-name="breve" unicode="&#x2d8;" horiz-adv-x="381" 
d="M40 672h45q15 -38 44 -51q21 -9 69 -9q47 0 69 9q30 13 44 51h45q-10 -52 -23 -76q-40 -74 -135 -74q-71 0 -114 46q-29 31 -44 104z" />
    <glyph glyph-name="dotaccent" unicode="&#x2d9;" horiz-adv-x="151" 
d="M21 581q0 24 17.5 41t42.5 17t42.5 -17t17.5 -41q0 -25 -17.5 -42t-42.5 -17t-42.5 17t-17.5 42z" />
    <glyph glyph-name="ring" unicode="&#x2da;" horiz-adv-x="199" 
d="M101 684q31 0 53 -23t22 -54q0 -32 -22.5 -54.5t-54.5 -22.5t-54.5 22t-22.5 54q0 34 22.5 56t56.5 22zM98 642q-14 0 -24 -10.5t-10 -24.5q0 -36 35 -36q15 0 25.5 10t10.5 25q0 36 -37 36z" />
    <glyph glyph-name="hungarumlaut" unicode="&#x2dd;" horiz-adv-x="299" 
d="M138 501l81 88q17 18 17 35q0 30 -30 30q-8 0 -15 -5q-10 -6 -19 -31l-44 -111zM48 501l81 88q17 18 17 35q0 30 -30 30q-8 0 -15 -5q-10 -6 -19 -31l-44 -111z" />
    <glyph glyph-name="caron" unicode="&#x2c7;" horiz-adv-x="346" 
d="M290 666l57 1l-149 -129h-66l-149 129q15 0 62 -1l120 -71z" />
    </font>
</defs>
</svg>
