<?xml version="1.0" standalone="no"?>
<!DOCTYPE svg PUBLIC "-//W3C//DTD SVG 1.1//EN" "http://www.w3.org/Graphics/SVG/1.1/DTD/svg11.dtd" >
<svg>
<metadata>
Created by FontForge 20120731 at Wed Apr 17 19:23:02 2019
 By www-data
Digitized by Dan X. Solo. Software (c)1998 by Dover Publications, Inc., New York.
</metadata>
<defs>
<font id="OceanaNormal" horiz-adv-x="236" >
  <font-face 
    font-family="Oceana"
    font-weight="400"
    font-stretch="normal"
    units-per-em="1000"
    panose-1="0 0 4 0 0 0 0 0 0 0"
    ascent="800"
    descent="-200"
    x-height="496"
    cap-height="683"
    bbox="-50 -272 881 851"
    underline-thickness="20"
    underline-position="-123"
    unicode-range="U+0020-F002"
  />
<missing-glyph horiz-adv-x="500" 
d="M63 0v800h375v-800h-375zM125 63h250v675h-250v-675z" />
    <glyph glyph-name=".notdef" horiz-adv-x="500" 
d="M63 0v800h375v-800h-375zM125 63h250v675h-250v-675z" />
    <glyph glyph-name="glyph1" horiz-adv-x="0" 
 />
    <glyph glyph-name="glyph2" 
 />
    <glyph glyph-name="space" unicode=" " 
 />
    <glyph glyph-name="exclam" unicode="!" horiz-adv-x="280" 
d="M170 100v-99h-104q1 30 0 97zM192 674q-48 -334 -46 -471q0 -32 4 -49q-24 -1 -66 0v49q1 78 -58 471h166z" />
    <glyph glyph-name="quotedbl" unicode="&#x22;" horiz-adv-x="346" 
d="M100 414h-23l-20 98q-15 78 -15 111q0 59 46 59q45 0 45 -55q0 -32 -14 -113q-10 -50 -19 -100zM222 414h-23q-10 49 -21 98q-14 77 -14 111q0 58 45 58t45 -54q0 -32 -14 -113z" />
    <glyph glyph-name="numbersign" unicode="#" horiz-adv-x="510" 
d="M434 417h-90l-38 -160h89l-15 -62h-90l-48 -193h-47l48 193h-102l-48 -193h-47l48 193h-89l16 62h88l38 160h-87l15 61h89l47 194h47l-47 -194h102l47 194h48l-48 -194h89zM195 417l-39 -160h103l38 160h-102z" />
    <glyph glyph-name="dollar" unicode="$" horiz-adv-x="432" 
d="M157 417v80q-41 -3 -39 -36q1 -30 39 -44zM195 322l-1 -152q22 1 39 8q46 19 46 58q0 59 -84 86zM195 672v-64h20q13 1 18 1h115q2 -2 -2 -8.5t-4 -11.5q0 -9 -33 -110q-8 4 -32 18q-1 -2 -35 -1q-40 3 -47 2v-92q64 -16 110 -53q56 -45 56 -104q0 -70 -45.5 -110.5
t-120.5 -37.5h-1v-69h-38l1 75q-76 12 -80 12q-8 0 -66 -18q9 34 25 130q23 -16 65 -42q28 -11 56 -16v160q-68 20 -96 42q-45 36 -45 102q0 126 142 131v64q0 3 37 0z" />
    <glyph glyph-name="percent" unicode="%" horiz-adv-x="626" 
d="M446 667l-310 -681l-36 18l315 680zM551 207q0 -92 -42 -153q-37 -53 -78 -52q-55 1 -91 77q-30 64 -30 129q0 81 26 137q31 69 90 68q125 -2 125 -206zM496 205q0 38 -17 71q-20 36 -49 36q-64 0 -64 -109q0 -37 14 -84q19 -66 55 -66q26 0 46 63q15 50 15 89zM250 477
q0 -92 -42 -153q-37 -53 -79 -52q-55 1 -90 77q-30 64 -30 129q0 81 25 137q32 69 91 68q125 -2 125 -206zM195 475q0 38 -18.5 72.5t-47.5 34.5q-64 0 -64 -109q0 -37 13 -84q20 -66 55 -66q27 0 46 63q16 50 16 89z" />
    <glyph glyph-name="ampersand" unicode="&#x26;" horiz-adv-x="535" 
d="M394 672l-44 -132h-129q-49 0 -75 -26q-22 -22 -22 -58q0 -31 16 -60t42 -44q13 11 52 41l40 -49q-49 -40 -86 -72q-88 -77 -97 -101q-6 -19 -6 -34q0 -41 51 -51q16 -3 78 -3h99q0 32 1 114l-66 -49l-3 66l219 193v-89l-52 -46v-271h-229q-79 0 -121 24q-54 32 -60 111
q-4 50 40 101q25 29 87 78q-61 39 -88 82q-30 48 -30 117q0 160 196 159z" />
    <glyph glyph-name="quotesingle" unicode="'" horiz-adv-x="225" 
d="M100 414h-23l-20 98q-15 78 -15 111q0 59 46 59q45 0 45 -55q0 -32 -14 -113q-10 -50 -19 -100z" />
    <glyph glyph-name="parenleft" unicode="(" horiz-adv-x="318" 
d="M279 755q-125 -220 -125 -442q0 -253 123 -482l-15 -4q-88 30 -157 185q-68 150 -68 301q0 124 81 279q79 152 144 165z" />
    <glyph glyph-name="parenright" unicode=")" horiz-adv-x="344" 
d="M23 755q124 -220 124 -442q0 -253 -122 -482l15 -4q66 13 144 176q81 168 81 310q0 126 -78 278.5t-147 165.5z" />
    <glyph glyph-name="asterisk" unicode="*" horiz-adv-x="481" 
d="M215 466q-17 -10 -63 -60q-38 -41 -59 -41q-17 0 -29.5 12.5t-12.5 29.5q0 26 28 40q17 8 62 18.5t62 19.5q-19 12 -63 22q-47 10 -62 17q-27 14 -27 40q0 17 12.5 29t29.5 12q21 0 59 -40q46 -50 63 -59v16q0 27 -16.5 63t-16.5 51q0 19 12.5 33.5t31.5 14.5t31.5 -15
t12.5 -34q0 -16 -16 -58.5t-16 -71.5q16 10 63 60q38 40 59 40q17 0 29.5 -12t12.5 -29q0 -26 -29 -40q-15 -7 -60.5 -17.5t-63.5 -21.5q18 -10 63.5 -20.5t61.5 -17.5q28 -14 28 -40q0 -17 -11.5 -28.5t-28.5 -11.5q-22 0 -61 41q-49 49 -63 58v-18q0 -26 15.5 -61.5
t15.5 -50.5q0 -20 -12 -34t-31 -14t-31.5 14t-12.5 33q0 17 16.5 59t16.5 72z" />
    <glyph glyph-name="plus" unicode="+" horiz-adv-x="523" 
d="M291 304v-163h-77v163h-163v77h163v163h77v-163h163v-77h-163z" />
    <glyph glyph-name="comma" unicode="," horiz-adv-x="250" 
d="M63 -135q-3 0 -10.5 12.5t-8.5 13.5q12 8 32 27q25 29 25 66v17l-62 1v117h116v-88q1 -48 -24 -102q-7 -13 -30 -38q-26 -26 -38 -26z" />
    <glyph glyph-name="hyphen" unicode="-" horiz-adv-x="348" 
d="M249 259l-1 -67l-230 -1v69z" />
    <glyph glyph-name="hyphen" unicode="&#x2010;" horiz-adv-x="348" 
d="M249 259l-1 -67l-230 -1v69z" />
    <glyph glyph-name="period" unicode="." horiz-adv-x="239" 
d="M140 127v-126h-124l1 127z" />
    <glyph glyph-name="slash" unicode="/" horiz-adv-x="361" 
d="M228 727h74l-251 -752h-74z" />
    <glyph glyph-name="zero" unicode="0" horiz-adv-x="559" 
d="M280 -13q-106 0 -169 138q-52 112 -52 233q0 126 45 212q58 109 171 109q107 0 170 -104q55 -88 55 -203q0 -122 -52 -239q-64 -146 -168 -146zM268 539q-122 0 -122 -214q0 -65 35 -150q42 -103 97 -103q58 0 101 100q35 83 35 149q0 218 -146 218z" />
    <glyph glyph-name="one" unicode="1" horiz-adv-x="559" 
d="M331 580q-3 -29 -10 -87v-435q0 -21 7 -34q9 -17 10 -26q-39 -2 -116 1q19 40 19 59l-1 418q0 52 -4 63q-4 7 -33 33q42 22 89 64q56 51 64 57q-15 -33 -25 -113z" />
    <glyph glyph-name="two" unicode="2" horiz-adv-x="559" 
d="M378 427q9 29 9 50q0 47 -44 59q-14 4 -69 4h-126q-5 0 -14 -8.5t-15 -8.5l-48 150q115 -3 194 0q227 7 227 -155q0 -98 -86 -182q-81 -62 -162 -125q-87 -68 -88 -127h294q3 0 12 4.5t14 4.5l-1 -93l-409 1q-1 29 0 60q0 12 1 23q-7 58 72 141q51 53 151 130
q86 65 88 72z" />
    <glyph glyph-name="three" unicode="3" horiz-adv-x="559" 
d="M396 171q7 -19 7 -34q0 -41 -52 -51q-16 -3 -78 -3h-167l-26 14q0 -21 -1 -96h225q80 0 121 24q55 32 60 111q4 50 -40 101q-25 29 -87 78q61 39 88 82q31 48 31 117q0 160 -197 159l-207 -1l44 -132h149q49 0 75 -26q23 -22 23 -58q0 -31 -16.5 -60t-42.5 -44
q-13 11 -52 41l-40 -49q49 -40 86 -72q88 -77 97 -101z" />
    <glyph glyph-name="four" unicode="4" horiz-adv-x="559" 
d="M374 239v309l-37 -74q-27 -60 -77 -124l-88 -110zM39 179l3 3q61 71 111 137q122 158 172 265q7 15 11 45q2 10 -7 45h150q-28 -33 -28 -75l1 -362l45 4q23 3 23 12v-126h-69q0 -99 28 -128h-133q19 26 27 131h-335z" />
    <glyph glyph-name="five" unicode="5" horiz-adv-x="559" 
d="M310 474q79 0 125 -62q41 -56 41 -140q0 -107 -62 -184q-70 -88 -187 -87h-141l-1 150l29 -17l133 -1q69 0 112 48q38 43 38 102q0 49 -29 83.5t-81 34.5h-204v271h337q0 -5 1 -49q0 -47 -1 -47l-29 11h-233v-113h152z" />
    <glyph glyph-name="six" unicode="6" horiz-adv-x="559" 
d="M272 590q-51 -5 -79 -62q-21 -43 -21 -91q0 -12 2 -19q13 28 59 39q29 4 57 7q84 0 141 -62q61 -65 61 -168q0 -105 -62 -174.5t-148 -67.5q-90 2 -150 84q-57 78 -63 189q-3 36 -3 69q0 334 209 351q14 1 26 1q63 0 104 -27q30 -19 60 -62q2 0 -50 -67q-3 11 -10 24
q-31 22 -42 27q-24 11 -58 11q-15 0 -33 -2zM162 260q0 -54 34.5 -95t83.5 -41q51 0 86.5 38.5t35.5 90.5q0 53 -35.5 90t-86.5 37t-84.5 -34t-33.5 -86z" />
    <glyph glyph-name="seven" unicode="7" horiz-adv-x="559" 
d="M129 1l231 538h-227l-29 -10l-1 143l353 1v-130l-237 -542h-90z" />
    <glyph glyph-name="eight" unicode="8" horiz-adv-x="559" 
d="M371 502q0 59 -93 61q-58 1 -78 -19q-13 -13 -13 -43q0 -29 16 -54q26 -41 81 -41q42 0 68 38q19 29 19 58zM380 380q51 -26 82.5 -75t31.5 -108q0 -87 -63.5 -147.5t-151.5 -60.5t-151 60.5t-63 147.5q0 59 30.5 107t81.5 75q-40 27 -62 74q-17 38 -17 72q0 63 35 103
q45 52 141 54q184 4 184 -158q0 -93 -78 -144zM260 338q-123 -14 -123 -138q0 -62 38.5 -98t106.5 -36q140 0 140 128q0 59 -32 98.5t-92 45.5q-10 -1 -19 -1q-10 0 -19 1z" />
    <glyph glyph-name="nine" unicode="9" horiz-adv-x="559" 
d="M279 70q56 2 86 64q23 47 23 100q0 14 -2 20q-13 -27 -60 -38q-28 -4 -57 -8q-83 0 -141 62q-61 66 -61 169q0 105 62 174.5t149 67.5q90 -2 152 -85q59 -79 61 -189q7 -402 -196 -415q-66 -4 -121 21q-51 22 -79 63q-3 0 46 60q48 -69 138 -66zM397 413q0 53 -35 94
t-85 41t-86 -36.5t-36 -88.5q0 -53 37 -91.5t87 -38.5q51 0 84.5 34t33.5 86z" />
    <glyph glyph-name="colon" unicode=":" horiz-adv-x="249" 
d="M161 110l-1 -109h-116v109h117zM160 367h-118l1 112l117 1v-113z" />
    <glyph glyph-name="semicolon" unicode=";" horiz-adv-x="243" 
d="M150 367h-117v122l117 1v-123zM63 -135q-3 0 -10.5 12.5t-8.5 13.5q12 8 32 27q25 29 25 66v17l-62 1v117h116v-88q1 -48 -24 -102q-7 -13 -30 -38q-26 -26 -38 -26z" />
    <glyph glyph-name="less" unicode="&#x3c;" horiz-adv-x="480" 
d="M400 74v65l-243 113l243 113v65l-336 -153v-50z" />
    <glyph glyph-name="equal" unicode="=" horiz-adv-x="466" 
d="M19 158v68h368v-68h-368zM19 289v68h368v-68h-368z" />
    <glyph glyph-name="greater" unicode="&#x3e;" horiz-adv-x="465" 
d="M64 74v65l244 113l-244 113v65l336 -153v-50z" />
    <glyph glyph-name="question" unicode="?" horiz-adv-x="492" 
d="M314 427q9 29 9 50q0 47 -44 59q-15 4 -69 4h-126q-6 0 -15 -8.5t-14 -8.5l-48 150q115 -3 194 0q227 7 227 -155q0 -98 -53 -160q-51 -43 -101 -85q-54 -46 -56 -105h-66q-6 57 34 119q26 40 79 90q47 44 49 50zM250 127v-126h-124l1 127z" />
    <glyph glyph-name="at" unicode="@" horiz-adv-x="668" 
d="M551 175h54q-35 -81 -111.5 -131.5t-164.5 -50.5q-136 0 -226 99q-87 96 -87 234q0 140 84 239q89 104 227 104q116 0 200 -77q85 -80 85 -195q0 -75 -38.5 -142t-103.5 -99q-36 -18 -63 -18q-69 0 -62 77q-47 -71 -97 -71q-52 0 -83 42q-29 39 -29 92q0 77 52 145
q56 72 129 72q54 0 70 -59l14 51h80l-66 -260q-4 -16 -4 -28q0 -21 23 -21q17 0 40 17q41 31 67 89q24 54 24 108q0 96 -68.5 163.5t-164.5 67.5q-120 0 -194 -87q-71 -83 -71 -205q0 -123 72 -205q76 -86 197 -86q137 0 215 135zM329 458q-46 0 -82 -84q-30 -70 -30 -124
q0 -70 43 -70q46 0 81 88q28 71 28 126q0 64 -40 64z" />
    <glyph glyph-name="A" unicode="A" horiz-adv-x="569" 
d="M505 45q-43 -43 -135 -124l-73 338l2 5q-83 -74 -189 -122v-97q0 -7 4 -22q6 -19 6 -23h-108q9 18 9 64v562q0 23 -16 48h359q-24 -80 -24 -127q0 -85 8 -129l36 28l43 -80q-20 -21 -56 -52q24 -91 51 -144q20 -37 83 -125zM281 378q-7 51 -15 156h-157v-272
q84 42 172 116z" />
    <glyph glyph-name="B" unicode="B" horiz-adv-x="530" 
d="M452 154q0 -88 -54 -124q-44 -30 -135 -30h-262q11 10 19 39q2 12 5 25v545q0 26 -22 64l244 -1q77 0 118 -26q52 -32 58 -112q7 -96 -106 -184q66 -44 96 -81q39 -50 39 -115zM307 489q0 39 -34 52q-19 7 -63 7h-96l1 -259q55 39 113 92q78 74 79 108zM358 163
q0 33 -39 72q-30 29 -69 51q-137 -97 -137 -104v-103h163q36 0 59 24t23 60z" />
    <glyph glyph-name="C" unicode="C" horiz-adv-x="485" 
d="M4 292q0 181 95 288q100 113 277 106l43 -1l-36 -78q-21 -46 -25 -81q-59 10 -87 10q-87 0 -137 -92q-41 -76 -41 -169q0 -88 42 -145q47 -64 132 -64q79 0 122 44q22 -22 55 -57q-95 -64 -186 -64q-110 0 -182 87.5t-72 215.5z" />
    <glyph glyph-name="D" unicode="D" horiz-adv-x="513" 
d="M152 0h-150q22 35 22 65v533q0 33 -22 75h232q108 0 157 -93q37 -71 37 -188q0 -392 -276 -392zM327 337q0 105 -30 151q-37 58 -137 58h-49v-462h72q11 0 24 2q60 11 94 104q26 72 26 147z" />
    <glyph glyph-name="E" unicode="E" horiz-adv-x="427" 
d="M357 526l-29 16h-237v-187l62 42l47 -62q-38 -22 -109 -70v-182l271 1q-1 -23 -1 -84h-359v673h354q-2 -62 1 -147z" />
    <glyph glyph-name="F" unicode="F" horiz-adv-x="450" 
d="M382 518l-34 21h-230v-174l81 46l43 -66l-119 -67q2 -116 30 -199q24 -69 77 -149q-56 22 -113 43q-79 28 -118 31q0 2 6.5 12.5t7.5 13.5q22 50 23 122t2 143q0 -5 -2 300q0 42 -26 77l372 1q2 -47 0 -155z" />
    <glyph glyph-name="G" unicode="G" horiz-adv-x="522" 
d="M460 269v-141q0 -73 -74 -109q-56 -28 -138 -28q-29 0 -53 4q-106 15 -154 140q-36 92 -36 220q0 141 49 227q62 107 192 107q65 0 107 -23q37 -22 79 -77l-46 -87q-26 38 -51 75q-30 33 -88 33q-154 0 -154 -247q0 -255 156 -255q80 0 88 86q-90 2 -110 0q-2 38 -4 77
q-3 45 -15 75q24 -14 73 -39q78 -34 179 -38z" />
    <glyph glyph-name="H" unicode="H" horiz-adv-x="558" 
d="M492 86l-94 -154q-61 54 -61 154v278l-229 -100v-197q0 -41 19 -67h-117q15 15 15 65v565q0 20 -11 44h55q36 1 54 1q-15 -14 -15 -44v-240l229 100q0 12 1 139q0 24 -13 44h110q-17 -29 -17 -46l-1 -326q0 -183 75 -216z" />
    <glyph glyph-name="I" unicode="I" horiz-adv-x="230" 
d="M121 471v-408q0 -10 9 -28t18 -34q-19 -2 -64 0.5t-69 -0.5q0 1 14 27q12 23 9 34v430q1 29 -3 89q-6 34 -37 102l170 -78q-31 -27 -41 -61q-6 -23 -6 -73z" />
    <glyph glyph-name="J" unicode="J" horiz-adv-x="384" 
d="M302 673q-23 -34 -23 -69q2 -137 0 -458q0 -161 -176 -161q-27 0 -58 4q-16 60 -47 163q28 -10 56 -21q33 -12 59 -12q77 0 87 74v411q1 20 -21 69h123z" />
    <glyph glyph-name="K" unicode="K" horiz-adv-x="526" 
d="M467 62q-21 -25 -100 -122q-64 81 -117 228q-15 40 -53 168q-27 -10 -91 -18v-254q0 -41 21 -63h-123q5 11 11 22q8 22 8 41v555q3 28 -14 54q1 0 53 1h54q-10 -16 -10 -52l-1 -238q47 0 92 24q89 47 89 150q0 26 -5 42q-9 20 -17 40q49 22 157 78l-3 -49
q-3 -46 -23.5 -112t-45.5 -104q-37 -54 -85 -86q7 -72 75 -166q58 -82 128 -139z" />
    <glyph glyph-name="L" unicode="L" horiz-adv-x="431" 
d="M373 0h-345l-1 6q0 5 4 13.5t4 12.5l-1 509q0 20 -9.5 59.5t-20.5 52.5q45 17 135 54q-10 -24 -20 -83q-9 -55 -9 -84v-402h239q-2 0 24 11v-149z" />
    <glyph glyph-name="M" unicode="M" horiz-adv-x="758" 
d="M540 0q27 37 27 109v407l-12 -37q-40 -108 -104 -251q-40 -88 -62 -131q-41 -82 -76 -132l-3 10q-20 57 -53 90q-27 28 -27 32q0 5 27 40q35 44 44 58l-186 326v-412q0 -35 14 -72q8 -18 16 -37h-136q22 33 25 54q2 26 5 53v498q-14 52 -33 69h149q-13 -21 -13 -38
q0 -7 3 -12q98 -200 207 -350q6 0 69 117.5t98 192.5q7 15 11 45q1 10 -7 45h150q-28 -33 -28 -75l-1 -490q0 -27 7 -59q9 -36 22 -50h-133z" />
    <glyph glyph-name="N" unicode="N" horiz-adv-x="535" 
d="M460 698q-15 -23 -24 -67q-6 -35 -13 -70v-590q-145 134 -315 453v-370q0 -13 13.5 -32t14.5 -23h-129q14 13 19 31l6 24l-1 528q0 61 -29 93h111q-7 -30 1 -60q18 -63 107 -219q91 -159 129 -192v351q0 25 -10.5 54.5t-22.5 38.5q48 19 143 50z" />
    <glyph glyph-name="O" unicode="O" horiz-adv-x="550" 
d="M240 -30q-111 0 -179 146q-53 117 -53 243q0 132 47 222q60 115 180 115q113 0 179 -109q57 -94 57 -214q0 -126 -54 -249q-67 -154 -177 -154zM377 320q0 253 -150 253q-124 0 -124 -248q0 -67 36 -155q43 -106 99 -106q58 0 103 102q36 86 36 154z" />
    <glyph glyph-name="P" unicode="P" horiz-adv-x="484" 
d="M421 486q0 -98 -101 -202q-63 -66 -205 -166l2 -62q0 -31 20 -56h-132q21 26 21 59v546q0 2 -3 22q-1 14 -5 24q-5 14 -15 24l201 -1q103 0 155 -39q62 -45 62 -149zM307 448q0 90 -90 90h-100v-333q60 32 121 102q69 80 69 141z" />
    <glyph glyph-name="Q" unicode="Q" horiz-adv-x="551" 
d="M243 -20q-112 -2 -180 135q-56 112 -56 236q0 132 48 226q61 119 180 119q113 0 179 -109q57 -94 57 -214q0 -101 -32 -201q-42 -127 -117 -171q57 -69 89 -69q-21 -34 -57 -94q-59 20 -106 142h-5zM377 320q0 253 -150 253q-124 0 -124 -248q0 -59 34 -143
q38 -99 88 -116q-14 103 8 117l34 -5q-1 -6 -1 -15q0 -31 19 -85q41 32 69 117q23 72 23 125z" />
    <glyph glyph-name="R" unicode="R" horiz-adv-x="526" 
d="M463 74q-7 -7 -33 -28.5t-39 -34.5q-6 -6 -20.5 -23.5t-22.5 -25.5q-12 4 -50 73q-100 182 -109 229l-85 -19v-191q0 -25 26 -54h-131q21 41 21 59l1 557q0 32 -20 58h265q69 0 114 -49t45 -118q0 -71 -42 -124q-27 -35 -78 -67q-42 -26 -42 -31q0 -19 61 -89
q52 -60 66 -71q26 -21 73 -51zM319 469q0 70 -73 69l-140 1l1 -216l22 4q61 11 114 41q76 43 76 101z" />
    <glyph glyph-name="S" unicode="S" horiz-adv-x="574" 
d="M455 21q-15 -16 -62 -29q-42 -11 -70 -11q-43 0 -90 12q-43 13 -87 25q-15 4 -38 4q-61 0 -110 -24q31 48 62 95q34 56 49 102l3 3q5 -2 34 -41q34 -44 70 -67q54 -36 124 -36q32 0 57 33q23 30 23 64q0 36 -31 72q-26 30 -63 50q-60 27 -120 55q-73 34 -107 70
q-47 50 -47 120q0 160 227 155q94 -3 194 0l-44 -136q-26 0 -80 1h-79q-90 0 -90 -57q0 -46 71 -84q55 -26 110 -51q116 -70 138 -131q13 -34 13 -66q0 -70 -57 -128z" />
    <glyph glyph-name="T" unicode="T" horiz-adv-x="451" 
d="M371 521q-6 6 -35 17h-103v-332q0 -74 25 -159.5t56 -123.5h-13q-3 0 -18 10q-19 13 -27 17q-50 22 -148 65q7 14 17 38q6 16 15 81q9 60 9 73v333q-50 -2 -114 -2l-34 -24v159h370v-152z" />
    <glyph glyph-name="U" unicode="U" horiz-adv-x="520" 
d="M442 179q0 -124 -72 -167q-53 -31 -186 -31q-62 0 -113 52.5t-51 114.5v527l103 -1q-9 -21 -19 -45v-188q1 -153 1 -189q0 -74 25 -99t97 -25q71 0 97 27.5t26 98.5q0 7 -16 138q-8 76 -29 226q-3 17 -20 56q28 1 50 1q27 0 65 -4q-11 -36 -11 -47q0 -69 26.5 -219
t26.5 -226z" />
    <glyph glyph-name="V" unicode="V" horiz-adv-x="545" 
d="M464 673l-188 -692h-15q-5 0 -24 14q-60 44 -97 110q-24 40 -49 116q-23 67 -50 214q-32 173 -43 216l-3 22h106q-14 -32 -13 -48q31 -358 146 -464q3 -1 9 20l58 222q53 209 53 245l-9 25h119z" />
    <glyph glyph-name="W" unicode="W" horiz-adv-x="923" 
d="M815 619q-121 -435 -139 -494q-29 -93 -52 -148q-100 69 -157 190q-28 60 -67 207l-135 -389q-33 0 -86 85q-90 144 -129 360q-9 55 -47 243q6 1 106 1q-7 -20 -7 -48q0 -13 2 -27q11 -97 37 -196q42 -162 101 -220q27 71 133 421q6 19 4 41q-2 14 -4 29h104
q-18 -92 -18 -128q0 -107 27 -204q35 -119 103 -181q2 -1 4 2q76 249 132 463q1 5 -1 22q-3 21 -3 25h122q-27 -18 -30 -54z" />
    <glyph glyph-name="X" unicode="X" horiz-adv-x="544" 
d="M483 94q-65 -153 -72 -153q-5 0 -22 19t-26 33q-32 51 -72 127q-33 64 -67 129q-53 -71 -96 -247h-124q9 11 17 26q20 37 36 85q35 111 133 232q-77 124 -132 294q-25 31 -22 35h118q-1 -11 -1 -22q0 -97 89 -242q14 0 52 89q40 94 40 147q0 17 -5 28h121
q-11 -32 -27 -79q-23 -65 -59 -132q-10 -20 -48 -75q-31 -46 -31 -51q0 -6 32.5 -56t59.5 -84q40 -51 106 -103z" />
    <glyph glyph-name="Y" unicode="Y" horiz-adv-x="544" 
d="M12 674q1 -3 10 -23q7 -15 7 -38q0 -283 204 -385q-18 -45 -37 -89q-26 -53 -78 -96l-16 -16q54 -22 98 -63l66 -64q-9 68 -6 122q2 50 34 144q29 80 59 161q31 101 97 300q10 28 19 47q-32 3 -107 0q2 -9 3 -19q2 -21 -4 -42q-53 -175 -89 -273q-16 10 -50 30
q-78 43 -102 152q-5 24 -5 75q0 25 7 43t14 34h-124z" />
    <glyph glyph-name="Z" unicode="Z" horiz-adv-x="479" 
d="M12 16l47 70l248 452h-226l-28 -13l-1 149h351v-131l-278 -502q51 -48 147 -125q55 -35 110 -52q40 -11 75 -11q3 0 21 1.5t26 1.5q1 -8 -18 -29q-23 -25 -81 -99q-89 56 -392 282z" />
    <glyph glyph-name="bracketleft" unicode="[" horiz-adv-x="242" 
d="M259 722v-50h-132v-730h132v-50h-215v830h215z" />
    <glyph glyph-name="backslash" unicode="\" horiz-adv-x="611" 
d="M124 737l431 -737h-74l-431 737h74z" />
    <glyph glyph-name="bracketright" unicode="]" horiz-adv-x="366" 
d="M52 722v-50h132v-730h-132v-50h215v830h-215z" />
    <glyph glyph-name="asciicircum" unicode="^" horiz-adv-x="241" 
d="M258 717q-10 -3 -21 -3q-56 0 -110 53q-70 -58 -127 -58l42 41q11 13 31 52h109q5 -14 14 -28q22 -34 62 -57z" />
    <glyph glyph-name="underscore" unicode="_" horiz-adv-x="467" 
d="M0 -58h500v-90h-500v90z" />
    <glyph glyph-name="grave" unicode="`" horiz-adv-x="226" 
d="M-3 668q24 -26 66 -62q39 -21 114 -32l44 -5q-28 19 -64 49q-38 46 -33 50h-127z" />
    <glyph glyph-name="a" unicode="a" horiz-adv-x="483" 
d="M408 -6q-63 17 -91 17q-24 0 -73.5 -7.5t-73.5 -7.5q-71 0 -113 41.5t-42 111.5q0 81 55 128q53 44 135 44q8 0 92 -19q-1 82 -4 93q-12 44 -70 44q-62 0 -107 -54q-8 1 -32.5 12t-24.5 16q0 30 66 63q60 30 95 30q59 0 102 -26q51 -31 51 -87l-1 -280q0 -72 36 -119z
M295 82v101q-31 27 -81 27q-41 0 -69 -18q-34 -21 -34 -59q0 -67 85 -67q29 0 99 16z" />
    <glyph glyph-name="b" unicode="b" horiz-adv-x="411" 
d="M345 239q0 -130 -64 -187q-58 -53 -183 -53h-93q19 29 17 58l2 421q0 106 -26 127q70 33 121 71q-26 -79 -22 -149q1 -1 0 -21q-1 -19 4 -19q3 0 22 4.5t25 4.5q110 0 160 -91q37 -66 37 -166zM264 224q0 158 -126 158q-24 0 -42 -12v-297h8h10q83 0 116.5 35t33.5 116z
" />
    <glyph glyph-name="c" unicode="c" horiz-adv-x="431" 
d="M372 71q-35 -36 -83 -57q-42 -18 -77 -18q-116 0 -170 94q-39 67 -39 164q0 93 57 168q62 81 152 82q44 0 91 -14t42 -30q-3 -12 -38 -57q-43 31 -92 29q-56 -3 -93 -56q-34 -48 -34 -105q0 -58 24 -95q30 -47 91 -47q47 0 73 21q22 19 43 38q21 -42 53 -117z" />
    <glyph glyph-name="d" unicode="d" horiz-adv-x="446" 
d="M374 54q-6 -24 -86 -43q-62 -14 -84 -14q-197 0 -197 250q0 103 41 171q52 86 158 86q9 0 41 -4q3 7 1 23q-2 23 -2 22q0 48 -13 68t-27 41q25 8 71 32q64 33 76 38q-18 -48 -22 -69q-4 -28 -4 -103v-420q3 -8 27 -43q22 -30 20 -35zM246 126v303q-13 4 -31 4
q-127 0 -127 -189q0 -49 18 -82q26 -47 83 -47q27 0 57 11z" />
    <glyph glyph-name="e" unicode="e" horiz-adv-x="422" 
d="M367 49q-16 -20 -68 -36q-46 -14 -78 -14q-101 0 -161 75q-54 69 -54 174q0 102 47 173q55 82 152 82q118 0 118 -111q0 -79 -77 -125q-64 -38 -150 -40q-1 0 -1 -2q1 0 2 -3t1 -5q0 -36 33.5 -68t69.5 -32q28 0 58 17q9 5 52 34q8 -40 56 -119zM256 394q0 19 -16 32.5
t-35 13.5q-52 0 -85 -50q-30 -44 -30 -98q0 -5 4 -7q62 7 104 28q58 30 58 81z" />
    <glyph glyph-name="f" unicode="f" horiz-adv-x="301" 
d="M221 667q-8 -39 -10 -126q-46 17 -57 17q-31 0 -31 -41q0 -6 -1 -12.5t-1 -7.5h90l2 -110q-28 10 -92 38v-355q0 -41 18 -70h-110q18 36 18 68v376q-2 4 -16 8q-17 4 -22 7v36q12 2 34 -2v72q0 51 40 84q37 29 78 27q40 -1 60 -9z" />
    <glyph glyph-name="g" unicode="g" horiz-adv-x="459" 
d="M383 432q-5 -12 -37 -52q-20 -24 -20 -78v-111q1 -74 1 -111q0 -49 11 -79q7 -13 14 -28q0 -46 -108 -110q-72 -42 -155 -75q-2 1 -5 8q-39 81 -71 131q16 0 47 -3t47 -3q36 0 79 15q48 18 68 43l-5 17q-3 2 -8 1q-7 -2 -9 -2h-48q-182 0 -182 266q0 102 45 166
q51 73 149 73q47 0 100 -19q57 -19 87 -49zM252 79v286q-47 11 -52 11q-53 0 -88 -46q-32 -42 -32 -97q0 -170 122 -170q39 0 50 16z" />
    <glyph glyph-name="h" unicode="h" horiz-adv-x="454" 
d="M361 219l-24 -169q-1 -12 5 -26q9 -20 10 -23q1 0 -9 0q-12 1 -32 1h-76q13 43 47 185q14 52 2 110q-7 35 -34 56t-62 21q-23 0 -50 -11q-31 -11 -31 -25v-260q0 -55 19 -77h-108q15 34 15 75v451l-8 40q-6 27 -22 40q11 2 56 31q49 33 80 44q-4 -3 -18 -48t-14 -58v-108
q37 30 90 30q45 0 94 -27q67 -37 70 -101q9 -82 0 -151z" />
    <glyph glyph-name="i" unicode="i" horiz-adv-x="216" 
d="M124 617q0 -31 -15 -52q-12 -17 -46 -43q-9 11 -65 91q21 14 102 61q7 -4 15.5 -27t8.5 -30zM130 498q-26 -67 -26 -155v-246q-3 -53 22 -95h-114q18 59 18 90l1 274q0 51 -23 79q51 12 122 53z" />
    <glyph glyph-name="j" unicode="j" horiz-adv-x="226" 
d="M129 617q0 -58 -62 -92q-20 37 -61 91q35 19 102 61q21 -31 21 -60zM148 506q-35 -74 -35 -116q0 -7 1 -35t1 -54l-1 -351q0 -61 -34 -113q-38 -58 -96 -58h-22v145q44 11 67 61q19 41 19 92v220q0 24 -12 64q-12 46 -26 57q3 3 66 40q42 24 72 48z" />
    <glyph glyph-name="k" unicode="k" horiz-adv-x="436" 
d="M383 81q-25 -33 -72 -110q-60 17 -108 111q-32 76 -64 153q-19 -4 -42 -15v-159q0 -10 15 -62h-107q18 41 18 69v487q0 45 -22 71q37 16 105 53q2 3 9 7l2 -3q-1 -17 -13 -57.5t-12 -63.5l1 -284l10 -3q45 0 79.5 41t34.5 87q0 24 -12 42q36 26 114 72q9 -24 9 -52
q0 -68 -33 -120q-21 -34 -61 -65q-33 -27 -33 -33q0 -31 51 -83q47 -47 82 -63q16 -6 49 -20z" />
    <glyph glyph-name="l" unicode="l" horiz-adv-x="252" 
d="M182 119q-12 -37 -45 -137q-5 1 -14 1q-36 0 -65 41q-21 31 -35 78q-11 40 -8 46l-1 410q0 1 -2 31q-2 21 -15 55q54 16 125 48q-4 -7 -18 -69q-15 -66 -15 -88l1 -267q0 -154 69 -154q10 0 23 5z" />
    <glyph glyph-name="m" unicode="m" horiz-adv-x="697" 
d="M616 1h-120l10 26q10 29 10 58l1 191q0 41 -18 68q-24 34 -69 34q-17 0 -43 -7q-31 -9 -41 -21v-267q1 -18 3 -33q6 -36 21 -48h-124q22 29 27 78l-1 255q0 22 -32 36q-25 11 -40 11q-12 0 -44 -10q-40 -13 -40 -29l1 -248q0 -44 1 -50q2 -18 14 -44h-109q22 27 18 85
l1 275q-4 6 -25 33q-17 22 -16 25q15 41 87 67q59 21 100 20q46 -2 88 -26q36 -20 35 -21q67 48 124 48q20 0 46 -4q77 -13 102 -97q13 -43 13 -138q0 -185 -3 -185q-1 -38 23 -82z" />
    <glyph glyph-name="n" unicode="n" horiz-adv-x="472" 
d="M392 0h-117q17 25 17 57l-1 240q3 78 -80 78q-39 0 -87 -37l1 -338h-93q11 52 11 57v297q0 9 -42 61q17 36 81 63t123 27q109 -1 149 -79q25 -51 25 -151v-218q-2 -24 13 -57z" />
    <glyph glyph-name="o" unicode="o" horiz-adv-x="462" 
d="M380 247q0 -115 -65 -191q-57 -66 -121 -65q-85 1 -140 96q-46 80 -46 162q0 100 40 171q48 86 140 85q192 -3 192 -258zM295 244q0 48 -27 89q-30 45 -75 45q-99 0 -99 -136q0 -47 21 -105q31 -83 85 -83q41 0 71 79q24 63 24 111z" />
    <glyph glyph-name="p" unicode="p" horiz-adv-x="473" 
d="M373 134q-20 -73 -85 -108q-49 -27 -111 -27h-18h-23q-1 -2 -1 -47q0 -34 6 -52q10 -30 43 -60q-26 -11 -78 -45q-59 -39 -73 -46q21 73 21 170v452q-12 20 -55 71q-2 3 -2 5q0 17 66 43t113 27q57 1 110 -30q63 -36 81 -102q23 -82 23 -137q0 -50 -17 -114zM305 221
q0 61 -19 109q-29 74 -93 70q-26 -2 -39 -11l-21 -14l-1 -277q4 -18 12 -23q5 -3 23 -4q73 -3 109 39q29 33 29 111z" />
    <glyph glyph-name="q" unicode="q" horiz-adv-x="454" 
d="M381 -139q-47 -14 -146 -72q27 84 25 91q-2 6 -2 18q0 14 2.5 46.5t2.5 42.5q0 16 -3 16q-4 0 -27 -3t-28 -3q-126 0 -171 90q-30 59 -30 181q0 93 50 157q58 74 161 74q13 0 26 -1h123q-22 -24 -22 -49v-484v-13v-32q0 -23 39 -59zM269 137l-2 281q7 0 -29 3
q-151 12 -151 -165q0 -80 23 -111q29 -38 110 -38q43 0 49 30z" />
    <glyph glyph-name="r" unicode="r" horiz-adv-x="344" 
d="M278 377q0 -15 -13 -43q-12 -24 -20 -31q-7 -4 -10 0q-2 66 -66 66q-37 0 -44 1v-314q7 -24 11 -56l-106 -1q14 29 14 56v190v80v80q0 32 -10 49q-14 21 -29 42h181q50 0 75 -48q17 -33 17 -71z" />
    <glyph glyph-name="s" unicode="s" horiz-adv-x="440" 
d="M361 139q0 -69 -45 -108.5t-121 -39.5q-4 0 -58.5 9t-59.5 9q-8 0 -66 -18q9 34 25 130q23 -16 65 -42q47 -19 88 -19q25 0 44 8q46 19 46 58q0 55 -68 81q-64 22 -127 43q-68 37 -68 117q0 79 52 110q36 21 106 21h30q19 -1 27 -1h120q2 -2 1 -3q-3 -2 -3 -7
q0 -9 -40 -118q-8 4 -32 18q-2 -2 -41 0q-42 2 -46 0q-20 0 -39 -1q-34 -5 -33 -35q1 -28 34 -42q28 -8 55 -16q67 -21 108 -59q46 -42 46 -95z" />
    <glyph glyph-name="t" unicode="t" horiz-adv-x="351" 
d="M278 93q-5 -15 -48 -124q1 0 -23 7q-89 26 -122 103q-21 50 -21 137v220h-55v61h52q-4 33 -9 66q-8 43 -29 66q31 15 58 30q64 36 93 63q8 7 8 -2q0 3 -18 -45t-18 -87v-92h119v-123q-2 -2 -9 4l-48 46q-24 18 -62 16v-198q1 -34 13 -60q28 -64 106 -84q4 0 13 -4z" />
    <glyph glyph-name="u" unicode="u" horiz-adv-x="464" 
d="M387 76q-67 -49 -82 -57q-57 -30 -127 -30q-60 0 -110 38q-55 42 -54 104l1 105q0 37 -1 111v110q0 27 -13 39h92v-341q11 -32 35 -42q15 -6 52 -6q86 0 94 44v301q0 22 -11 44h100q-12 -20 -12 -29l1 -319z" />
    <glyph glyph-name="v" unicode="v" horiz-adv-x="491" 
d="M418 497q-8 -6 -14 -13q-16 -17 -23 -36q-28 -74 -76 -227q-48 -156 -75 -228h-7q-108 109 -155 248q-19 53 -43 141q-22 83 -22 92l-2 23h111q-12 -24 -12 -63q0 -59 45 -178q44 -114 61 -114q2 0 3 1q21 88 103 354h106z" />
    <glyph glyph-name="w" unicode="w" horiz-adv-x="763" 
d="M698 496q-13 -34 -89 -282q-70 -232 -77 -241q-138 118 -188 318q-33 -105 -83 -226q-15 -22 -37 -72q-3 -5 -11 -5q-39 0 -100 116q-50 93 -68 157q-41 145 -40 227v8q104 0 103 0q-13 -28 -13 -50q0 -76 28 -154q28 -81 78 -134q5 1 13 25q47 140 76 313h106
q-7 -36 -3 -64q9 -70 36 -142q32 -87 74 -128q24 86 49 172q36 137 30 163q38 3 116 -1z" />
    <glyph glyph-name="x" unicode="x" horiz-adv-x="497" 
d="M431 124q-25 -47 -65 -142l-5 -5l-165 235q-63 -62 -75 -212h-111q20 80 69 176q19 38 28 51q19 30 47 53l-131 217h100q10 -34 40 -87q42 -72 48 -85q50 33 82 172h104l-19 -52q-41 -112 -123 -173q-3 -3 29 -41q36 -42 71 -71q47 -37 76 -36z" />
    <glyph glyph-name="y" unicode="y" horiz-adv-x="482" 
d="M7 496q29 -106 57 -211q46 -148 100 -209q-51 -179 -133 -179q-20 0 -23 -5q19 -34 51 -131q2 -2 4 -2q4 0 14 6t14 6q32 0 88 108l64 138q59 130 89 216q34 102 67 203q11 33 21 60h-112q1 -48 -3 -60q-26 -83 -37 -115q-31 -90 -58 -136q-83 93 -84 311h-119z" />
    <glyph glyph-name="z" unicode="z" horiz-adv-x="474" 
d="M418 27q-31 -51 -73 -123q-22 1 -67 19q-67 26 -69 27q-79 25 -214 59l278 395h-210l-38 -11v145h364v-111q-153 -217 -247 -356q92 -28 221 -62q33 18 51 20z" />
    <glyph glyph-name="braceleft" unicode="{" horiz-adv-x="395" 
d="M99 282l-41 41v-80zM119 262q-90 -80 -91 -80q-2 0 0 210l94 -89l179 170v-396zM273 145v259l-129 -122z" />
    <glyph glyph-name="bar" unicode="|" horiz-adv-x="334" 
d="M223 373l-70 137l-72 -136l70 -140zM254 373l-104 -201l-101 203l105 195z" />
    <glyph glyph-name="braceright" unicode="}" horiz-adv-x="383" 
d="M238 282l41 41v-80zM218 262q90 -80 91 -80q2 0 0 210l-94 -89l-178 170v-396zM65 145l-1 259l130 -122z" />
    <glyph glyph-name="asciitilde" unicode="~" horiz-adv-x="292" 
d="M32 726l-6 9q43 73 89 73q21 0 60.5 -21t54.5 -21q40 0 77 33l6 -10q-53 -74 -84 -74q-20 0 -60.5 21t-55.5 21q-36 0 -81 -31z" />
    <glyph glyph-name="Adieresis" unicode="&#xc4;" horiz-adv-x="440" 
d="M187 546q-45 -15 -72 -61t-27 -94q0 -53 21 -90q25 -45 78 -51v296zM372 191q-65 -66 -148 -74v-64h-37v64q-102 10 -149 101q-35 65 -35 156q0 86 50 158q53 77 134 90v50h37v-48q44 -2 84.5 -16t36.5 -28q-3 -12 -38 -57q-41 29 -83 29v-302q34 4 57 24q36 32 38 34
q21 -42 53 -117z" />
    <glyph glyph-name="Aring" unicode="&#xc5;" horiz-adv-x="583" 
d="M197 851q29 0 47.5 -20t18.5 -50q0 -29 -18.5 -49.5t-47.5 -20.5t-49 20.5t-20 49.5t20 49.5t49 20.5zM197 821q-16 0 -27.5 -11.5t-11.5 -28.5q0 -16 11.5 -28t27.5 -12q17 0 28.5 12t11.5 28q0 17 -11.5 28.5t-28.5 11.5zM505 45q-43 -43 -135 -124l-73 338l2 5
q-83 -74 -189 -122v-97q0 -7 4 -22q6 -19 6 -23h-108q9 18 9 64v562q0 23 -16 48h359q-24 -80 -24 -127q0 -85 8 -129l36 28l43 -80q-20 -21 -56 -52q24 -91 51 -144q20 -37 83 -125zM281 378q-7 51 -15 156h-157v-272q84 42 172 116z" />
    <glyph glyph-name="Ccedilla" unicode="&#xc7;" horiz-adv-x="485" 
d="M234 -54q30 11 47 11q20 0 35 -14t15 -34q0 -58 -58 -75q-42 -13 -46 -13q-10 0 -11 13l2 3q64 19 64 59q0 28 -26 28q-6 0 -18.5 -4.5t-18.5 -4.5q-17 0 -22 18l20 59h2q-96 16 -155.5 100.5t-59.5 199.5q0 181 95 288q100 113 277 106l43 -1l-36 -78q-21 -46 -25 -81
q-59 10 -87 10q-87 0 -137 -92q-41 -76 -41 -169q0 -88 42 -145q47 -64 132 -64q79 0 122 44q22 -22 55 -57q-99 -68 -194 -64z" />
    <glyph glyph-name="Eacute" unicode="&#xc9;" horiz-adv-x="444" 
d="M374 526l-29 16h-237v-187l62 42l47 -62q-38 -22 -108 -70v-182l271 1q-2 -23 -2 -84h-358l-1 673h354q-2 -62 1 -147zM302 795q-25 -26 -66 -62q-39 -22 -115 -32l-43 -6q27 20 63 50q38 46 34 50h127z" />
    <glyph glyph-name="Ntilde" unicode="&#xd1;" horiz-adv-x="535" 
d="M460 698q-15 -23 -24 -67q-6 -35 -13 -70v-590q-145 134 -315 453v-370q0 -13 13.5 -32t14.5 -23h-129q14 13 19 31l6 24l-1 528q0 61 -29 93h111q-7 -30 1 -60q18 -63 107 -219q91 -159 129 -192v351q0 25 -10.5 54.5t-22.5 38.5q48 19 143 50zM82 726l-6 9q43 73 89 73
q21 0 60.5 -21t54.5 -21q40 0 77 33l6 -10q-53 -74 -84 -74q-20 0 -60.5 21t-55.5 21q-36 0 -81 -31z" />
    <glyph glyph-name="Odieresis" unicode="&#xd6;" horiz-adv-x="550" 
d="M240 -30q-111 0 -179 146q-53 117 -53 243q0 132 47 222q60 115 180 115q113 0 179 -109q57 -94 57 -214q0 -126 -54 -249q-67 -154 -177 -154zM377 320q0 253 -150 253q-124 0 -124 -248q0 -67 36 -155q43 -106 99 -106q58 0 103 102q36 86 36 154zM269 762
q0 18 13.5 31t32.5 13t32.5 -13t13.5 -31q0 -19 -13.5 -32t-32.5 -13t-32.5 13t-13.5 32zM119 762q0 18 13.5 31t32.5 13t32.5 -13t13.5 -31q0 -19 -13.5 -32t-32.5 -13t-32.5 13t-13.5 32z" />
    <glyph glyph-name="Udieresis" unicode="&#xdc;" horiz-adv-x="519" 
d="M442 179q0 -124 -72 -167q-53 -31 -186 -31q-62 0 -113 52.5t-51 114.5v527l103 -1q-9 -21 -19 -45v-188q1 -153 1 -189q0 -74 25 -99t97 -25q71 0 97 27.5t26 98.5q0 7 -16 138q-8 76 -29 226q-3 17 -20 56q28 1 50 1q27 0 65 -4q-11 -36 -11 -47q0 -69 26.5 -219
t26.5 -226zM229 762q0 18 13.5 31t32.5 13t32.5 -13t13.5 -31q0 -19 -13.5 -32t-32.5 -13t-32.5 13t-13.5 32zM79 762q0 18 13.5 31t32.5 13t32.5 -13t13.5 -31q0 -19 -13.5 -32t-32.5 -13t-32.5 13t-13.5 32z" />
    <glyph glyph-name="aacute" unicode="&#xe1;" horiz-adv-x="488" 
d="M408 -6q-63 17 -91 17q-24 0 -73.5 -7.5t-73.5 -7.5q-71 0 -113 41.5t-42 111.5q0 81 55 128q53 44 135 44q8 0 92 -19q-1 82 -4 93q-12 44 -70 44q-62 0 -107 -54q-8 1 -32.5 12t-24.5 16q0 30 66 63q60 30 95 30q59 0 102 -26q51 -31 51 -87l-1 -280q0 -72 36 -119z
M295 82v101q-31 27 -81 27q-41 0 -69 -18q-34 -21 -34 -59q0 -67 85 -67q29 0 99 16zM336 635q-25 -26 -66 -62q-39 -22 -115 -32l-43 -6q28 20 64 50q38 46 33 50h127z" />
    <glyph glyph-name="agrave" unicode="&#xe0;" horiz-adv-x="488" 
d="M408 -6q-63 17 -91 17q-24 0 -73.5 -7.5t-73.5 -7.5q-71 0 -113 41.5t-42 111.5q0 81 55 128q53 44 135 44q8 0 92 -19q-1 82 -4 93q-12 44 -70 44q-62 0 -107 -54q-8 1 -32.5 12t-24.5 16q0 30 66 63q60 30 95 30q59 0 102 -26q51 -31 51 -87l-1 -280q0 -72 36 -119z
M295 82v101q-31 27 -81 27q-41 0 -69 -18q-34 -21 -34 -59q0 -67 85 -67q29 0 99 16zM90 635q25 -26 66 -62q39 -22 115 -32l43 -6q-28 20 -63 50q-38 46 -34 50h-127z" />
    <glyph glyph-name="acircumflex" unicode="&#xe2;" horiz-adv-x="491" 
d="M408 -6q-63 17 -91 17q-24 0 -73.5 -7.5t-73.5 -7.5q-71 0 -113 41.5t-42 111.5q0 81 55 128q53 44 135 44q8 0 92 -19q-1 82 -4 93q-12 44 -70 44q-62 0 -107 -54q-8 1 -32.5 12t-24.5 16q0 30 66 63q60 30 95 30q59 0 102 -26q51 -31 51 -87l-1 -280q0 -72 36 -119z
M295 82v101q-31 27 -81 27q-41 0 -69 -18q-34 -21 -34 -59q0 -67 85 -67q29 0 99 16zM340 543q-10 -2 -21 -2q-56 0 -109 53q-70 -59 -127 -59l42 42q11 13 30 52h109q5 -15 15 -29q22 -34 61 -57z" />
    <glyph glyph-name="adieresis" unicode="&#xe4;" horiz-adv-x="491" 
d="M408 -6q-63 17 -91 17q-24 0 -73.5 -7.5t-73.5 -7.5q-71 0 -113 41.5t-42 111.5q0 81 55 128q53 44 135 44q8 0 92 -19q-1 82 -4 93q-12 44 -70 44q-62 0 -107 -54q-8 1 -32.5 12t-24.5 16q0 30 66 63q60 30 95 30q59 0 102 -26q51 -31 51 -87l-1 -280q0 -72 36 -119z
M295 82v101q-31 27 -81 27q-41 0 -69 -18q-34 -21 -34 -59q0 -67 85 -67q29 0 99 16zM408 -6q-63 17 -91 17q-24 0 -73.5 -7.5t-73.5 -7.5q-71 0 -113 41.5t-42 111.5q0 81 55 128q53 44 135 44q8 0 92 -19q-1 82 -4 93q-12 44 -70 44q-62 0 -107 -54q-8 1 -32.5 12
t-24.5 16q0 30 66 63q60 30 95 30q59 0 102 -26q51 -31 51 -87l-1 -280q0 -72 36 -119zM295 82v101q-31 27 -81 27q-41 0 -69 -18q-34 -21 -34 -59q0 -67 85 -67q29 0 99 16zM408 -6q-63 17 -91 17q-24 0 -73.5 -7.5t-73.5 -7.5q-71 0 -113 41.5t-42 111.5q0 81 55 128
q53 44 135 44q8 0 92 -19q-1 82 -4 93q-12 44 -70 44q-62 0 -107 -54q-8 1 -32.5 12t-24.5 16q0 30 66 63q60 30 95 30q59 0 102 -26q51 -31 51 -87l-1 -280q0 -72 36 -119zM295 82v101q-31 27 -81 27q-41 0 -69 -18q-34 -21 -34 -59q0 -67 85 -67q29 0 99 16zM239 582
q0 18 13.5 31t32.5 13t32.5 -13t13.5 -31q0 -19 -13.5 -32t-32.5 -13t-32.5 13t-13.5 32zM89 582q0 18 13.5 31t32.5 13t32.5 -13t13.5 -31q0 -19 -13.5 -32t-32.5 -13t-32.5 13t-13.5 32z" />
    <glyph glyph-name="atilde" unicode="&#xe3;" horiz-adv-x="482" 
d="M408 -6q-63 17 -91 17q-24 0 -73.5 -7.5t-73.5 -7.5q-71 0 -113 41.5t-42 111.5q0 81 55 128q53 44 135 44q8 0 92 -19q-1 82 -4 93q-12 44 -70 44q-62 0 -107 -54q-8 1 -32.5 12t-24.5 16q0 30 66 63q60 30 95 30q59 0 102 -26q51 -31 51 -87l-1 -280q0 -72 36 -119z
M295 82v101q-31 27 -81 27q-41 0 -69 -18q-34 -21 -34 -59q0 -67 85 -67q29 0 99 16zM82 546l-6 9q43 73 89 73q21 0 60.5 -21t54.5 -21q40 0 77 33l6 -10q-53 -74 -84 -74q-20 0 -60.5 21t-55.5 21q-36 0 -81 -31z" />
    <glyph glyph-name="aring" unicode="&#xe5;" horiz-adv-x="462" 
d="M217 681q29 0 47.5 -20t18.5 -50q0 -29 -18.5 -49.5t-47.5 -20.5t-49 20.5t-20 49.5t20 49.5t49 20.5zM217 651q-16 0 -27.5 -11.5t-11.5 -28.5q0 -16 11.5 -28t27.5 -12q17 0 28.5 12t11.5 28q0 17 -11.5 28.5t-28.5 11.5zM408 -6q-63 17 -91 17q-24 0 -73.5 -7.5
t-73.5 -7.5q-71 0 -113 41.5t-42 111.5q0 81 55 128q53 44 135 44q8 0 92 -19q-1 82 -4 93q-12 44 -70 44q-62 0 -107 -54q-8 1 -32.5 12t-24.5 16q0 30 66 63q60 30 95 30q59 0 102 -26q51 -31 51 -87l-1 -280q0 -72 36 -119zM295 82v101q-31 27 -81 27q-41 0 -69 -18
q-34 -21 -34 -59q0 -67 85 -67q29 0 99 16z" />
    <glyph glyph-name="ccedilla" unicode="&#xe7;" horiz-adv-x="425" 
d="M204 -45q30 11 47 11q20 0 35 -14t15 -34q0 -58 -58 -75q-42 -13 -46 -13q-10 0 -11 13l2 3q64 19 64 59q0 28 -26 28q-6 0 -18.5 -4.5t-18.5 -4.5q-17 0 -22 18l19 55q-102 11 -149 101q-34 65 -34 156q0 93 57 168q62 81 152 82q44 0 91 -14t42 -30q-3 -12 -38 -57
q-43 31 -92 29q-56 -3 -93 -56q-34 -48 -34 -105q0 -58 24 -95q30 -47 91 -47q47 0 73 21q22 19 43 38q21 -42 53 -117q-68 -69 -152 -75z" />
    <glyph glyph-name="eacute" unicode="&#xe9;" horiz-adv-x="424" 
d="M361 49q-16 -20 -68 -36q-46 -14 -77 -14q-102 0 -162 75q-54 69 -54 174q0 102 48 173q55 82 151 82q118 0 118 -111q0 -79 -77 -125q-64 -38 -150 -40q-1 0 -1 -2q1 0 2 -3t1 -5q0 -36 34 -68t69 -32q28 0 59 17q8 5 51 34q8 -40 56 -119zM251 394q0 19 -16.5 32.5
t-35.5 13.5q-52 0 -85 -50q-29 -44 -29 -98q0 -5 3 -7q62 7 104 28q59 30 59 81zM299 635q-25 -26 -66 -62q-39 -22 -115 -32l-43 -6q27 20 63 50q38 46 34 50h127z" />
    <glyph glyph-name="egrave" unicode="&#xe8;" horiz-adv-x="434" 
d="M367 49q-16 -20 -68 -36q-46 -14 -78 -14q-101 0 -161 75q-54 69 -54 174q0 102 47 173q55 82 152 82q118 0 118 -111q0 -79 -77 -125q-64 -38 -150 -40q-1 0 -1 -2q1 0 2 -3t1 -5q0 -36 33.5 -68t69.5 -32q28 0 58 17q9 5 52 34q8 -40 56 -119zM256 394q0 19 -16 32.5
t-35 13.5q-52 0 -85 -50q-30 -44 -30 -98q0 -5 4 -7q62 7 104 28q58 30 58 81zM71 625q24 -26 66 -62q38 -22 114 -32l44 -6q-28 20 -64 50q-38 46 -33 50h-127z" />
    <glyph glyph-name="ecircumflex" unicode="&#xea;" horiz-adv-x="430" 
d="M367 49q-16 -20 -68 -36q-46 -14 -78 -14q-101 0 -161 75q-54 69 -54 174q0 102 47 173q55 82 152 82q118 0 118 -111q0 -79 -77 -125q-64 -38 -150 -40q-1 0 -1 -2q1 0 2 -3t1 -5q0 -36 33.5 -68t69.5 -32q28 0 58 17q9 5 52 34q8 -40 56 -119zM256 394q0 19 -16 32.5
t-35 13.5q-52 0 -85 -50q-30 -44 -30 -98q0 -5 4 -7q62 7 104 28q58 30 58 81zM315 539q-10 -2 -21 -2q-56 0 -109 53q-70 -59 -127 -59l42 42q11 13 30 52h109q5 -15 15 -29q22 -34 61 -57z" />
    <glyph glyph-name="edieresis" unicode="&#xeb;" horiz-adv-x="434" 
d="M367 49q-16 -20 -68 -36q-46 -14 -78 -14q-101 0 -161 75q-54 69 -54 174q0 102 47 173q55 82 152 82q118 0 118 -111q0 -79 -77 -125q-64 -38 -150 -40q-1 0 -1 -2q1 0 2 -3t1 -5q0 -36 33.5 -68t69.5 -32q28 0 58 17q9 5 52 34q8 -40 56 -119zM256 394q0 19 -16 32.5
t-35 13.5q-52 0 -85 -50q-30 -44 -30 -98q0 -5 4 -7q62 7 104 28q58 30 58 81zM219 592q0 18 13.5 31t32.5 13t32.5 -13t13.5 -31q0 -19 -13.5 -32t-32.5 -13t-32.5 13t-13.5 32zM69 592q0 18 13.5 31t32.5 13t32.5 -13t13.5 -31q0 -19 -13.5 -32t-32.5 -13t-32.5 13
t-13.5 32z" />
    <glyph glyph-name="iacute" unicode="&#xed;" horiz-adv-x="228" 
d="M130 498q-26 -67 -26 -155v-246q-3 -53 22 -95h-114q20 64 20 94l-1 270q0 51 -23 79q51 12 122 53zM206 635q-25 -26 -66 -62q-39 -22 -115 -32l-43 -6q28 20 64 50q38 46 33 50h127z" />
    <glyph glyph-name="igrave" unicode="&#xec;" horiz-adv-x="222" 
d="M130 498q-26 -67 -26 -155v-246q-3 -53 22 -95h-114q18 59 18 90l1 274q0 51 -23 79q51 12 122 53zM-36 635q24 -26 65 -62q39 -22 115 -32l43 -6q-27 20 -63 50q-38 46 -34 50h-126z" />
    <glyph glyph-name="icircumflex" unicode="&#xee;" horiz-adv-x="222" 
d="M130 498q-26 -67 -26 -155v-246q-3 -53 22 -95h-114q18 59 18 90l1 274q0 51 -23 79q51 12 122 53zM182 537q-8 -3 -17 -3q-45 0 -88 53q-55 -58 -101 -58q33 41 34 41q8 13 24 52h87q10 -19 19 -34q23 -38 42 -51z" />
    <glyph glyph-name="idieresis" unicode="&#xef;" horiz-adv-x="211" 
d="M130 498q-26 -67 -26 -155v-246q-3 -53 22 -95h-114q18 59 18 90l1 274q0 51 -23 79q51 12 122 53zM89 592q0 18 13.5 31t32.5 13t32.5 -13t13.5 -31q0 -19 -13.5 -32t-32.5 -13t-32.5 13t-13.5 32zM-41 592q0 18 13.5 31t32.5 13t32.5 -13t13.5 -31q0 -19 -13.5 -32
t-32.5 -13t-32.5 13t-13.5 32z" />
    <glyph glyph-name="ntilde" unicode="&#xf1;" horiz-adv-x="481" 
d="M392 0h-117q16 24 16 64v233q3 78 -80 78q-39 0 -87 -37l1 -338l-99 1q3 11 10 33q7 18 7 23v297q0 9 -42 61q18 38 82 66t122 24q109 -9 148 -78q25 -46 25 -141l1 -229q-2 -24 13 -57zM52 556l-6 9q43 73 89 73q21 0 60.5 -21t54.5 -21q40 0 77 33l6 -10
q-53 -74 -84 -74q-20 0 -60.5 21t-55.5 21q-36 0 -81 -31z" />
    <glyph glyph-name="oacute" unicode="&#xf3;" horiz-adv-x="462" 
d="M380 247q0 -115 -65 -191q-57 -66 -121 -65q-85 1 -140 96q-46 80 -46 162q0 100 40 171q48 86 140 85q192 -3 192 -258zM295 244q0 48 -27 89q-30 45 -75 45q-99 0 -99 -136q0 -47 21 -105q31 -83 85 -83q41 0 71 79q24 63 24 111zM306 635q-25 -26 -66 -62
q-39 -22 -115 -32l-43 -6q28 20 64 50q38 46 33 50h127z" />
    <glyph glyph-name="ograve" unicode="&#xf2;" horiz-adv-x="462" 
d="M380 247q0 -115 -65 -191q-57 -66 -121 -65q-85 1 -140 96q-46 80 -46 162q0 100 40 171q48 86 140 85q192 -3 192 -258zM295 244q0 48 -27 89q-30 45 -75 45q-99 0 -99 -136q0 -47 21 -105q31 -83 85 -83q41 0 71 79q24 63 24 111zM67 635q25 -26 66 -62q39 -22 115 -32
l43 -6q-28 20 -63 50q-39 46 -34 50h-127z" />
    <glyph glyph-name="ocircumflex" unicode="&#xf4;" horiz-adv-x="463" 
d="M380 247q0 -115 -65 -191q-57 -66 -121 -65q-85 1 -140 96q-46 80 -46 162q0 100 40 171q48 86 140 85q192 -3 192 -258zM295 244q0 48 -27 89q-30 45 -75 45q-99 0 -99 -136q0 -47 21 -105q31 -83 85 -83q41 0 71 79q24 63 24 111zM318 547q-10 -3 -21 -3q-56 0 -110 53
q-70 -58 -127 -58l42 41q11 13 31 52h109q5 -14 14 -28q22 -34 62 -57z" />
    <glyph glyph-name="odieresis" unicode="&#xf6;" horiz-adv-x="463" 
d="M380 247q0 -115 -65 -191q-57 -66 -121 -65q-85 1 -140 96q-46 80 -46 162q0 100 40 171q48 86 140 85q192 -3 192 -258zM295 244q0 48 -27 89q-30 45 -75 45q-99 0 -99 -136q0 -47 21 -105q31 -83 85 -83q41 0 71 79q24 63 24 111zM219 592q0 18 13.5 31t32.5 13
t32.5 -13t13.5 -31q0 -19 -13.5 -32t-32.5 -13t-32.5 13t-13.5 32zM69 592q0 18 13.5 31t32.5 13t32.5 -13t13.5 -31q0 -19 -13.5 -32t-32.5 -13t-32.5 13t-13.5 32z" />
    <glyph glyph-name="otilde" unicode="&#xf5;" horiz-adv-x="463" 
d="M380 247q0 -115 -65 -191q-57 -66 -121 -65q-85 1 -140 96q-46 80 -46 162q0 100 40 171q48 86 140 85q192 -3 192 -258zM295 244q0 48 -27 89q-30 45 -75 45q-99 0 -99 -136q0 -47 21 -105q31 -83 85 -83q41 0 71 79q24 63 24 111zM52 546l-6 9q43 73 89 73
q21 0 60.5 -21t54.5 -21q40 0 77 33l6 -10q-53 -74 -84 -74q-20 0 -60.5 21t-55.5 21q-36 0 -81 -31z" />
    <glyph glyph-name="uacute" unicode="&#xfa;" horiz-adv-x="454" 
d="M387 76q-67 -49 -82 -57q-57 -30 -127 -30q-60 0 -110 38q-55 42 -54 104l1 105q0 37 -1 111v110q0 27 -13 39h92v-341q11 -32 35 -42q15 -6 52 -6q86 0 94 44v301q0 22 -11 44h100q-12 -20 -12 -29l1 -319zM316 635q-25 -26 -66 -62q-39 -22 -115 -32l-43 -6
q28 20 64 50q38 46 33 50h127z" />
    <glyph glyph-name="ugrave" unicode="&#xf9;" horiz-adv-x="452" 
d="M387 76q-67 -49 -82 -57q-57 -30 -127 -30q-60 0 -110 38q-55 42 -54 104l1 105q0 37 -1 111v110q0 27 -13 39h92v-341q11 -32 35 -42q15 -6 52 -6q86 0 94 44v301q0 22 -11 44h100q-12 -20 -12 -29l1 -319zM71 635q24 -26 65 -62q39 -22 115 -32l43 -6q-27 20 -63 50
q-38 46 -34 50h-126z" />
    <glyph glyph-name="ucircumflex" unicode="&#xfb;" horiz-adv-x="455" 
d="M387 76q-67 -49 -82 -57q-57 -30 -127 -30q-60 0 -110 38q-55 42 -54 104l1 105q0 37 -1 111v110q0 27 -13 39h92v-341q11 -32 35 -42q15 -6 52 -6q86 0 94 44v301q0 22 -11 44l101 1q-13 -21 -13 -30l1 -319zM318 547q-10 -3 -21 -3q-56 0 -110 53q-70 -58 -127 -58
l42 41q11 13 31 52h109q5 -14 14 -28q22 -34 62 -57z" />
    <glyph glyph-name="udieresis" unicode="&#xfc;" horiz-adv-x="454" 
d="M387 76q-67 -49 -82 -57q-57 -30 -127 -30q-60 0 -110 38q-55 42 -54 104l1 105q0 37 -1 111v110q0 27 -13 39h92v-341q11 -32 35 -42q15 -6 52 -6q86 0 94 44v301q0 22 -11 44l101 1q-13 -21 -13 -30l1 -319zM219 592q0 18 13.5 31t32.5 13t32.5 -13t13.5 -31
q0 -19 -13.5 -32t-32.5 -13t-32.5 13t-13.5 32zM69 592q0 18 13.5 31t32.5 13t32.5 -13t13.5 -31q0 -19 -13.5 -32t-32.5 -13t-32.5 13t-13.5 32z" />
    <glyph glyph-name="dagger" unicode="&#x2020;" horiz-adv-x="431" 
d="M182 455q-27 0 -63 -17t-53 -17q-45 0 -45 47q0 52 46 52q17 0 52.5 -19.5t62.5 -20.5q-1 35 -23 78t-22 58q0 23 16.5 36.5t40.5 13.5q56 0 56 -50q0 -15 -22 -57t-23 -79q28 1 63.5 20.5t51.5 19.5q47 0 47 -53q0 -52 -47 -52q-16 0 -51.5 19.5t-63.5 20.5
q6 -91 58 -146q-35 -67 -46 -154q-6 -44 -9 -161h-29q-3 116 -9 161q-11 88 -45 154q51 55 57 146z" />
    <glyph glyph-name="degree" unicode="&#xb0;" horiz-adv-x="357" 
d="M151 440q-48 0 -83 33.5t-35 81.5t35 81t83 33q49 0 84 -33t35 -81t-35 -81.5t-84 -33.5zM151 620q-28 0 -48 -19.5t-20 -45.5q0 -27 20 -46t48 -19q29 0 49 19t20 46q0 26 -20 45.5t-49 19.5z" />
    <glyph glyph-name="cent" unicode="&#xa2;" horiz-adv-x="440" 
d="M189 547q-45 -14 -73 -60.5t-28 -95.5q0 -54 21 -91q27 -45 80 -50v297zM372 191q-67 -68 -151 -74v-53h-32v53q-103 9 -151 100q-35 65 -35 157q0 87 51 159q54 78 135 89v50h32q1 -7 1 -48q44 -2 84 -15q44 -14 39 -29q-3 -12 -38 -57q-41 29 -85 29v-302q36 3 58 23
q38 34 39 35q21 -42 53 -117z" />
    <glyph glyph-name="sterling" unicode="&#xa3;" horiz-adv-x="536" 
d="M279 269h-84q4 -18 4 -34q0 -65 -87 -148q164 -4 236 21q60 20 115 87l5 -5q-25 -76 -30 -189h-436v80q83 43 91 155q-2 17 -9 33l-93 1v63h54q-36 59 -32 143q4 86 79 148q72 59 157 59q76 0 131 -39q62 -43 62 -117q0 -48 -33 -80t-82 -32q-35 0 -61 18.5t-26 53.5
l6 19q20 -19 41 -19q22 0 39 16.5t17 38.5q0 35 -26.5 56t-62.5 21q-49 0 -85.5 -41t-36.5 -90q0 -12 2 -24q12 -46 42 -131l103 -1v-63z" />
    <glyph glyph-name="section" unicode="&#xa7;" horiz-adv-x="12" 
 />
    <glyph glyph-name="bullet" unicode="&#x2022;" horiz-adv-x="405" 
d="M86 326q0 53 33.5 90.5t81.5 37.5t81.5 -37.5t33.5 -90.5q0 -54 -33.5 -91.5t-81.5 -37.5t-81.5 37.5t-33.5 91.5z" />
    <glyph glyph-name="paragraph" unicode="&#xb6;" horiz-adv-x="654" 
d="M139 3v23q40 0 52 4q27 8 27 37v291q-76 0 -123 38q-52 42 -52 119q0 79 47 120t125 41h350v-25q-33 0 -46 -5q-22 -9 -22 -36v-517q0 -46 12 -56.5t57 -10.5v-23h-427zM396 631h-76v-584h76v584z" />
    <glyph glyph-name="germandbls" unicode="&#xdf;" horiz-adv-x="495" 
d="M56 476q-58 -17 -58 -51v-10q49 12 50 12t5.5 2.5t6.5 1.5q0 2 0 -352q0 -42 -40 -78l150 -1q-36 34 -36 77l-1 464q0 23 28 43q25 19 43 17q73 -6 73 -63q0 -24 -15 -42q-17 -22 -47 -22q-7 0 -14 1l-1 -21q76 -10 103 -77q18 -45 18 -140t-44.5 -197t-112.5 -167l30 10
q73 30 146.5 151t73.5 217q0 89 -26 135q-28 50 -104 82q32 13 49 42q15 23 14 45q-1 80 -33 112q-29 29 -95 29q-13 0 -29 -1q-71 -5 -101 -31q-26 -23 -31 -74q-1 -9 -2 -114z" />
    <glyph glyph-name="registered" unicode="&#xae;" horiz-adv-x="439" 
d="M187 678q67 0 114 -50.5t47 -118.5t-48.5 -117t-116.5 -49t-117 48.5t-49 117.5q0 70 50 119.5t120 49.5zM181 651q-56 0 -95.5 -42t-39.5 -99q0 -58 40 -99.5t97 -41.5q58 0 97.5 41.5t39.5 99.5q0 59 -40 100t-99 41zM164 503v-46q0 -17 3 -18.5t24 -1.5v-16h-99v16
q20 0 22.5 2t2.5 18v103q0 17 -2.5 18.5t-22.5 1.5v17h104q68 0 68 -46q0 -34 -43 -43q24 -10 29 -38.5t11 -28.5q9 0 9 22h16l1 -6q1 -40 -43 -40q-33 0 -39 29q-4 24 -7 47q-5 10 -34 10zM164 520h11q40 0 40 30t-31 30h-5q-15 0 -15 -14v-46z" />
    <glyph glyph-name="copyright" unicode="&#xa9;" horiz-adv-x="788" 
d="M377 672q138 0 236.5 -100t98.5 -239q0 -140 -99.5 -239.5t-239.5 -99.5t-239.5 99.5t-99.5 238.5q0 143 100 241.5t243 98.5zM369 624q-116 0 -196.5 -87t-80.5 -204q0 -119 81.5 -205t199.5 -86t199.5 86t81.5 205q0 121 -82 206t-203 85zM519 518l5 -147l-33 -4
q-31 119 -109 119q-87 0 -87 -150q0 -153 94 -153q85 0 105 106l38 -9q-28 -136 -160 -136q-82 0 -132.5 51t-50.5 133q0 83 53 137.5t136 54.5q47 0 89 -25l26 23h26z" />
    <glyph glyph-name="trademark" unicode="&#x2122;" horiz-adv-x="694" 
d="M244 674l6 -97h-23q-14 74 -54 74q-3 0 -5 -3.5t-2 -7.5v-166q0 -15 2 -25q3 -4 36 -4v-23h-143v23q29 0 31 1q8 3 8 25v169q0 5 -2 8t-6 3q-40 0 -54 -74h-22l5 97h223zM394 674l48 -135l46 135h116l1 -26q-13 5 -18 5q-13 0 -16 -8q-2 -4 -2 -20v-154q0 -12 2 -22
q4 -4 33 -4v-23h-136v23q26 0 30.5 2.5t4.5 23.5v159l-72 -208h-16l-72 206v-134q0 -27 5 -35q7 -14 31 -14v-23h-102v23h4q33 0 33 40v143q0 19 -7 22q-2 1 -27 1v23h114z" />
    <glyph glyph-name="acute" unicode="&#xb4;" horiz-adv-x="226" 
d="M226 668q-24 -26 -66 -62q-39 -21 -114 -32l-44 -5q28 19 64 49q38 46 33 50h127z" />
    <glyph glyph-name="dieresis" unicode="&#xa8;" horiz-adv-x="263" 
d="M161 631q0 18 13.5 31t32.5 13t32.5 -13t13.5 -31q0 -19 -13.5 -32t-32.5 -13t-32.5 13t-13.5 32zM11 631q0 18 13.5 31t32.5 13t32.5 -13t13.5 -31q0 -19 -13.5 -32t-32.5 -13t-32.5 13t-13.5 32z" />
    <glyph glyph-name="AE" unicode="&#xc6;" horiz-adv-x="783" 
d="M713 673q-2 -62 1 -147l-29 16h-237v-187l62 42l47 -62q-38 -22 -109 -70v-182l271 -1q-1 -21 -1 -82h-265l1 -1l-108 1q0 4 5 21t5 24v97q-106 48 -189 122l2 -5l-73 -339q-11 9 -135 125q63 88 83 125q28 53 51 144q-36 30 -56 52l43 80l35 -33q9 49 9 134
q0 46 -24 126h611zM357 252v288h-157q-6 -81 -19 -173q81 -68 176 -115z" />
    <glyph glyph-name="Oslash" unicode="&#xd8;" horiz-adv-x="552" 
d="M471 373q0 -126 -54 -249q-67 -154 -177 -154q-76 0 -133 70l-28 -54l-35 19l38 72q-36 60 -57 145q-17 74 -17 137q0 132 47 222q60 115 180 115q82 0 141 -60l30 57l35 -19l-37 -71q67 -96 67 -230zM321 532q-36 41 -94 41q-124 0 -124 -248q0 -62 32 -146zM377 320
q0 110 -31 174l-190 -361q38 -69 82 -69q58 0 103 102q36 86 36 154z" />
    <glyph glyph-name="plusminus" unicode="&#xb1;" horiz-adv-x="400" 
d="M343 -91q0 -11 -71 -113q-111 37 -190 175q-74 128 -74 252q0 103 41 181q51 97 145 97q61 0 96 -41t35 -103q0 -151 -211 -239q2 -40 63 -99q51 -50 99 -74q19 -9 37 -17q30 -15 30 -19zM255 359q0 27 -16.5 49.5t-42.5 22.5q-52 0 -83 -72q-24 -57 -24 -118v-30
q1 -23 1 -31q59 7 112 63t53 116z" />
    <glyph glyph-name="yen" unicode="&#xa5;" horiz-adv-x="544" 
d="M102 301h90v34q-29 60 -53 111q-58 123 -78 186q-35 37 -31 40l124 2q-1 -11 -1 -22q0 -97 89 -242q14 0 52 89q40 94 40 147q0 17 -5 28h121q-11 -32 -27 -79q-23 -65 -59 -132q-20 -37 -79 -126v-36h94v-41l-94 -1v-58h94v-41l-93 -1v-86q-2 -22 9 -44l14 -28h-143
q-1 -1 -1 0h1q20 32 25 72q-1 14 0 86q-87 0 -89 1v41h89l1 58q-88 0 -90 1v41z" />
    <glyph glyph-name="uni00B5" unicode="&#xb5;" horiz-adv-x="428" 
d="M5 278l50 66v199q0 19 -10 58t-21 52q45 17 135 54q-10 -24 -20 -83q-9 -55 -9 -84v-98l54 72v-58l-54 -71v-247h239q-2 0 24 11v-149h-345l-1 6q0 5 4 13.5t4 12.5v255q-48 -63 -50 -64v55z" />
    <glyph glyph-name="uni00B5" unicode="&#x3bc;" horiz-adv-x="428" 
d="M5 278l50 66v199q0 19 -10 58t-21 52q45 17 135 54q-10 -24 -20 -83q-9 -55 -9 -84v-98l54 72v-58l-54 -71v-247h239q-2 0 24 11v-149h-345l-1 6q0 5 4 13.5t4 12.5v255q-48 -63 -50 -64v55z" />
    <glyph glyph-name="ordfeminine" unicode="&#xaa;" horiz-adv-x="479" 
d="M12 16l47 70l248 452h-226l-28 -13l-1 149h351v-131l-278 -502q51 -48 147 -125q55 -35 110 -52q40 -11 75 -11q3 0 21 1.5t26 1.5q1 -8 -18 -29q-23 -25 -81 -99q-89 56 -392 282zM103 807q10 3 21 3q56 0 110 -54q69 59 126 59l-41 -41q-11 -14 -31 -53h-109
q-5 15 -14 29q-23 34 -62 57z" />
    <glyph glyph-name="ordmasculine" unicode="&#xba;" horiz-adv-x="474" 
d="M418 27q-31 -51 -73 -123q-22 1 -67 19q-67 26 -69 27q-79 25 -214 59l278 395h-210l-38 -11v145h364v-111q-153 -217 -247 -356q92 -28 221 -62q33 18 51 20zM73 667q10 3 21 3q56 0 110 -54q69 59 126 59l-41 -41q-11 -14 -31 -53h-109q-5 15 -14 29q-23 34 -62 57z
" />
    <glyph glyph-name="ae" unicode="&#xe6;" horiz-adv-x="723" 
d="M393 -2q-48 13 -76 13q-24 0 -73.5 -7.5t-73.5 -7.5q-71 0 -113 41.5t-42 111.5q0 81 55 128q53 44 135 44q8 0 92 -19q-1 36 -2.5 71t-14.5 49q-16 17 -57 17q-62 0 -107 -54q-8 1 -32.5 12t-24.5 16q0 30 66 63q60 30 95 30q41 0 78 -16q41 -18 60 -50q53 63 137 63
q118 0 118 -111q0 -79 -77 -125q-64 -38 -150 -40q-1 0 -1 -2q1 0 2 -3t1 -5q0 -36 33.5 -68t69.5 -32q28 0 58 17q9 5 52 34q8 -40 56 -119q-16 -20 -68 -36q-46 -14 -78 -14q-83 0 -139 52q3 -30 21 -53zM546 394q0 19 -16 32.5t-35 13.5q-52 0 -85 -50q-30 -44 -30 -98
q0 -5 4 -7q62 7 104 28q58 30 58 81zM295 82v101q-31 27 -81 27q-41 0 -69 -18q-34 -21 -34 -59q0 -67 85 -67q29 0 99 16z" />
    <glyph glyph-name="oslash" unicode="&#xf8;" horiz-adv-x="465" 
d="M380 247q0 -115 -65 -191q-57 -66 -121 -65q-54 1 -97 41l-24 -43l-31 17l30 53q-64 86 -64 190q0 100 40 171q48 86 140 85q71 -2 116 -38l21 38l30 -18l-26 -46q51 -64 51 -194zM243 360q-23 18 -50 18q-99 0 -99 -136q0 -48 22 -106zM295 244q0 49 -27 89l-134 -235
q27 -44 66 -44q41 0 71 79q24 63 24 111z" />
    <glyph glyph-name="questiondown" unicode="&#xbf;" horiz-adv-x="465" 
d="M122 70q-9 -28 -9 -50q0 -46 43 -58q15 -4 69 -4h127q5 0 14 8.5t15 8.5l47 -150q-114 3 -194 0q-227 -7 -227 155q0 98 54 160q50 42 100 85q55 46 56 105h66q7 -58 -33 -119q-26 -40 -79 -90q-47 -44 -49 -51zM185 370v127h124l-1 -127h-123z" />
    <glyph glyph-name="exclamdown" unicode="&#xa1;" horiz-adv-x="260" 
d="M48 400v99h104q-1 -30 0 -100zM26 -174q48 333 46 471q-1 31 -4 49q23 1 66 0v-50q-1 -77 58 -470h-166z" />
    <glyph glyph-name="logicalnot" unicode="&#xac;" horiz-adv-x="464" 
d="M430 -120q-43 -57 -89 -109q-2 0 -8 11q-4 7 -8 13q-32 70 -41 170q-3 38 -3 159v121q0 60 -11 87q-19 50 -76 50q-47 0 -73 -31v-274v-77h-96l13 58v306q-39 49 -39 58q0 7 24 24q86 60 169 60q38 0 59 -6q42 -12 76.5 -57.5t33.5 -83.5l1 -290q9 -82 13 -95
q13 -52 55 -94z" />
    <glyph glyph-name="florin" unicode="&#x192;" horiz-adv-x="429" 
d="M390 -104q-9 -17 -83 -100q-58 54 -58 169v340q0 32 -23.5 54.5t-58.5 22.5q-16 0 -40.5 -8.5t-29.5 -16.5l1 -281l2 -34q3 -25 14 -43q-47 1 -110 0q11 18 14 48l2 32v421v68q-3 30 -20 58q36 11 130 65q-12 -39 -23 -79q-11 -43 -10 -83l1 -56q20 24 69 24
q160 0 160 -172v-249q0 -55 17 -102q11 -33 30 -58q16 -21 16 -20z" />
    <glyph glyph-name="guillemotleft" unicode="&#xab;" horiz-adv-x="411" 
d="M210 448q-84 -102 -84 -194q0 -93 80 -204h-33q-5 3 -13 8q-46 34 -78 85q-34 56 -34 108q0 110 126 197q13 1 36 0zM338 448q-84 -102 -84 -194q0 -93 80 -204h-33q-5 3 -13 8q-46 34 -78 85q-34 56 -34 108q0 110 126 197q13 1 36 0z" />
    <glyph glyph-name="guillemotright" unicode="&#xbb;" horiz-adv-x="419" 
d="M172 448q84 -102 84 -194q0 -93 -80 -204h33q5 3 12 8q47 34 78 85q35 56 35 108q0 110 -127 197q-12 1 -35 0zM44 448q84 -102 84 -194q0 -93 -80 -204h33q5 3 12 8q47 34 78 85q35 56 35 108q0 110 -127 197q-12 1 -35 0z" />
    <glyph glyph-name="ellipsis" unicode="&#x2026;" horiz-adv-x="829" 
d="M730 127v-126h-122l-1 127zM180 127v-126h-124l1 127zM450 127v-126h-122l-1 127z" />
    <glyph glyph-name="uni00A0" unicode="&#xa0;" 
 />
    <glyph glyph-name="Agrave" unicode="&#xc0;" horiz-adv-x="569" 
d="M505 45q-43 -43 -135 -124l-73 338l2 5q-83 -74 -189 -122v-97q0 -7 4 -22q6 -19 6 -23h-108q9 18 9 64v562q0 23 -16 48h359q-24 -80 -24 -127q0 -85 8 -129l36 28l43 -80q-20 -21 -56 -52q24 -91 51 -144q20 -37 83 -125zM281 378q-7 51 -15 156h-157v-272
q84 42 172 116zM68 805q24 -26 66 -62q38 -22 114 -32l44 -6q-28 20 -64 50q-38 46 -33 50h-127z" />
    <glyph glyph-name="Atilde" unicode="&#xc3;" horiz-adv-x="569" 
d="M505 45q-43 -43 -135 -124l-73 338l2 5q-83 -74 -189 -122v-97q0 -7 4 -22q6 -19 6 -23h-108q9 18 9 64v562q0 23 -16 48h359q-24 -80 -24 -127q0 -85 8 -129l36 28l43 -80q-20 -21 -56 -52q24 -91 51 -144q20 -37 83 -125zM281 378q-7 51 -15 156h-157v-272
q84 42 172 116zM52 726l-6 9q43 73 89 73q21 0 60.5 -21t54.5 -21q40 0 77 33l6 -10q-53 -74 -84 -74q-20 0 -60.5 21t-55.5 21q-36 0 -81 -31z" />
    <glyph glyph-name="Otilde" unicode="&#xd5;" horiz-adv-x="550" 
d="M240 -30q-111 0 -179 146q-53 117 -53 243q0 132 47 222q60 115 180 115q113 0 179 -109q57 -94 57 -214q0 -126 -54 -249q-67 -154 -177 -154zM377 320q0 253 -150 253q-124 0 -124 -248q0 -67 36 -155q43 -106 99 -106q58 0 103 102q36 86 36 154zM82 726l-6 9
q43 73 89 73q21 0 60.5 -21t54.5 -21q40 0 77 33l6 -10q-53 -74 -84 -74q-20 0 -60.5 21t-55.5 21q-36 0 -81 -31z" />
    <glyph glyph-name="OE" unicode="&#x152;" horiz-adv-x="784" 
d="M452 356l61 41l47 -62q-38 -22 -109 -70v-182l270 -1v-82h-359v64q-56 -80 -132 -80q-107 0 -172 140q-51 113 -51 234q0 126 48 217q59 113 169 109q81 -3 138 -61v50l352 2q-2 -63 1 -150l-27 17h-237q0 -10 1 -91q1 -60 0 -95zM362 321q0 242 -145 242
q-118 0 -118 -238q0 -64 34 -149q41 -101 95 -101q56 0 99 98q35 82 35 148z" />
    <glyph glyph-name="oe" unicode="&#x153;" horiz-adv-x="723" 
d="M339 90q-28 -48 -68.5 -74t-76.5 -25q-85 1 -140 96q-46 80 -46 162q0 100 40 171q48 86 140 85q108 -2 155 -84q55 82 152 82q118 0 118 -111q0 -79 -77 -125q-64 -38 -150 -40q-1 0 -1 -2q1 0 2 -3t1 -5q0 -36 33.5 -68t69.5 -32q28 0 58 17q9 5 52 34q8 -40 56 -119
q-16 -20 -68 -36q-46 -14 -78 -14q-112 0 -172 91zM546 394q0 19 -16 32.5t-35 13.5q-52 0 -85 -50q-30 -44 -30 -98q0 -5 4 -7q62 7 104 28q58 30 58 81zM295 244q0 48 -27 89q-30 45 -75 45q-99 0 -99 -136q0 -47 21 -105q31 -83 85 -83q41 0 71 79q24 63 24 111z" />
    <glyph glyph-name="endash" unicode="&#x2013;" horiz-adv-x="517" 
d="M420 277l1 -95h-419v95h418z" />
    <glyph glyph-name="emdash" unicode="&#x2014;" horiz-adv-x="977" 
d="M880 277l1 -95h-879v95h878z" />
    <glyph glyph-name="quotedblleft" unicode="&#x201c;" horiz-adv-x="367" 
d="M85 686q5 0 30 -28q-10 -8 -29 -24q-19 -23 -19 -56q0 -10 3 -19q0 -1 -1 -1q-2 1 -3 2l1 -1l53 -1v-87q-5 -6 -23.5 -12t-27.5 -6q-34 0 -54 18v25q-2 93 11 129q4 13 26 37t33 24zM235 686q5 0 30 -28q-10 -8 -29 -24q-16 -20 -16 -75l-1 -1q-2 1 -3 2l1 -1l53 -1v-87
q-5 -6 -23.5 -12t-27.5 -6q-34 0 -54 18v25q-2 93 11 129q4 13 26 37t33 24z" />
    <glyph glyph-name="quotedblright" unicode="&#x201d;" horiz-adv-x="364" 
d="M199 453q-4 0 -30 28q11 7 28.5 25.5t17.5 73.5q0 1 1 1l3 -3l-1 2l-53 1v87q4 6 23 12t28 6q33 0 54 -18v-25q2 -93 -11 -129q-5 -13 -27 -37t-33 -24zM49 453q-4 0 -30 28q11 7 28.5 25.5t17.5 73.5q0 1 1 1l3 -3l-1 2l-53 1v87q4 6 23 12t28 6q33 0 54 -18v-25
q2 -93 -11 -129q-5 -13 -27 -37t-33 -24z" />
    <glyph glyph-name="quoteleft" unicode="&#x2018;" horiz-adv-x="237" 
d="M105 686q5 0 30 -28q-10 -8 -29 -24q-16 -20 -16 -75l-1 -1q-2 1 -3 2l1 -1l53 -1v-87q-5 -6 -23.5 -12t-27.5 -6q-34 0 -54 18v25q-2 93 11 129q4 13 26 37t33 24z" />
    <glyph glyph-name="quoteright" unicode="&#x2019;" horiz-adv-x="234" 
d="M69 453q-4 0 -30 28q11 7 28.5 25.5t17.5 73.5q0 1 1 1l3 -3l-1 2l-53 1v87q4 6 23 12t28 6q33 0 54 -18v-25q2 -93 -11 -129q-5 -13 -27 -37t-33 -24z" />
    <glyph glyph-name="divide" unicode="&#xf7;" horiz-adv-x="605" 
d="M304 136q33 0 57.5 -25t24.5 -58q0 -35 -24.5 -59.5t-58.5 -24.5q-36 0 -60 24.5t-24 59.5t25 59t60 24zM304 536q33 0 57.5 -25t24.5 -58q0 -35 -24.5 -59.5t-58.5 -24.5q-36 0 -60 24.5t-24 59.5t25 59t60 24zM51 205v95h504v-95h-504z" />
    <glyph glyph-name="ydieresis" unicode="&#xff;" horiz-adv-x="482" 
d="M7 496q29 -106 57 -211q46 -148 100 -209q-51 -179 -133 -179q-20 0 -23 -5q19 -34 51 -131q2 -2 4 -2q4 0 14 6t14 6q32 0 88 108l64 138q59 130 89 216q34 102 67 203q11 33 21 60h-112q1 -48 -3 -60q-26 -83 -37 -115q-31 -90 -58 -136q-83 93 -84 311h-119zM231 601
q0 18 13.5 31t32.5 13t32.5 -13t13.5 -31q0 -19 -13.5 -32t-32.5 -13t-32.5 13t-13.5 32zM81 601q0 18 13.5 31t32.5 13t32.5 -13t13.5 -31q0 -19 -13.5 -32t-32.5 -13t-32.5 13t-13.5 32z" />
    <glyph glyph-name="Ydieresis" unicode="&#x178;" horiz-adv-x="544" 
d="M12 674q1 -3 10 -23q7 -15 7 -38q0 -283 204 -385q-18 -45 -37 -89q-26 -53 -78 -96l-16 -16q54 -22 98 -63l66 -64q-9 68 -6 122q2 50 34 144q29 80 59 161q31 101 97 300q10 28 19 47q-32 3 -107 0q2 -9 3 -19q2 -21 -4 -42q-53 -175 -89 -273q-16 10 -50 30
q-78 43 -102 152q-5 24 -5 75q0 25 7 43t14 34h-124zM271 761q0 18 13.5 31t32.5 13t32.5 -13t13.5 -31q0 -19 -13.5 -32t-32.5 -13t-32.5 13t-13.5 32zM121 761q0 18 13.5 31t32.5 13t32.5 -13t13.5 -31q0 -19 -13.5 -32t-32.5 -13t-32.5 13t-13.5 32z" />
    <glyph glyph-name="currency" unicode="&#xa4;" 
 />
    <glyph glyph-name="guilsinglleft" unicode="&#x2039;" horiz-adv-x="267" 
d="M194 448q-84 -102 -84 -194q0 -93 80 -204h-33q-5 3 -13 8q-46 34 -78 85q-34 56 -34 108q0 110 126 197q13 1 36 0z" />
    <glyph glyph-name="guilsinglright" unicode="&#x203a;" horiz-adv-x="284" 
d="M36 448q84 -102 84 -194q0 -93 -80 -204h33q6 3 13 8q46 34 78 85q35 56 35 108q0 110 -127 197q-12 1 -36 0z" />
    <glyph glyph-name="daggerdbl" unicode="&#x2021;" horiz-adv-x="749" 
d="M722 -98q-11 -19 -48 -73q-40 -59 -43 -59q-14 0 -53 91q-16 35 -19 101q-1 52 -2 103q-1 56 0 143q1 122 1 144q-4 68 -93 68q-27 0 -52 -11q-32 -14 -32 -38v-312q1 -31 18 -58h-113q19 23 19 58q1 15 1 296q0 35 -29 53q-24 15 -55 15q-41 0 -68 -16.5t-24 -36.5
q-1 -117 0 -313q0 -32 16 -56h-100v394q-4 35 -45 53q36 49 101 77q60 26 122 26q20 0 60.5 -18l40.5 -18q5 0 12 5t10 6l54 18q13 3 52 3q85 0 126 -30q53 -40 62 -146l1 -314q9 -92 80 -155z" />
    <glyph glyph-name="periodcentered" unicode="&#xb7;" horiz-adv-x="271" 
d="M57 339q0 26 17.5 44t42.5 18t43 -18t18 -44q0 -25 -18 -43.5t-43 -18.5t-42.5 18.5t-17.5 43.5z" />
    <glyph glyph-name="periodcentered" unicode="&#x2219;" horiz-adv-x="271" 
d="M57 339q0 26 17.5 44t42.5 18t43 -18t18 -44q0 -25 -18 -43.5t-43 -18.5t-42.5 18.5t-17.5 43.5z" />
    <glyph glyph-name="quotesinglbase" unicode="&#x201a;" horiz-adv-x="234" 
d="M69 -127q-4 0 -30 28q11 7 28.5 25.5t17.5 73.5q0 1 1 1l3 -3l-1 2l-53 1v107h105v-45q1 -95 -11 -129q-5 -13 -27 -37t-33 -24z" />
    <glyph glyph-name="quotedblbase" unicode="&#x201e;" horiz-adv-x="365" 
d="M199 -127q-4 0 -30 28q11 7 28.5 25.5t17.5 73.5q0 1 1 1l3 -3l-1 2l-53 1v107h105v-25q4 -108 -11 -149q-5 -13 -27 -37t-33 -24zM49 -127q-4 0 -30 28q11 7 28.5 25.5t17.5 73.5q0 1 1 1l3 -3l-1 2l-53 1v107h105v-25q4 -108 -11 -149q-5 -13 -27 -37t-33 -24z" />
    <glyph glyph-name="perthousand" unicode="&#x2030;" horiz-adv-x="27" 
 />
    <glyph glyph-name="Acircumflex" unicode="&#xc2;" horiz-adv-x="569" 
d="M505 45q-43 -43 -135 -124l-73 338l2 5q-83 -74 -189 -122v-97q0 -7 4 -22q6 -19 6 -23h-108q9 18 9 64v562q0 23 -16 48h359q-24 -80 -24 -127q0 -85 8 -129l36 28l43 -80q-20 -21 -56 -52q24 -91 51 -144q20 -37 83 -125zM281 378q-7 51 -15 156h-157v-272
q84 42 172 116zM318 717q-10 -3 -21 -3q-56 0 -110 53q-70 -58 -127 -58l42 41q11 13 31 52h109q5 -14 14 -28q22 -34 62 -57z" />
    <glyph glyph-name="Ecircumflex" unicode="&#xca;" horiz-adv-x="427" 
d="M357 526l-29 16h-237v-187l62 42l47 -62q-38 -22 -109 -70v-182l271 1q-1 -23 -1 -84h-359v673h354q-2 -62 1 -147zM318 717q-10 -3 -21 -3q-56 0 -110 53q-70 -58 -127 -58l42 41q11 13 31 52h109q5 -14 14 -28q22 -34 62 -57z" />
    <glyph glyph-name="Aacute" unicode="&#xc1;" horiz-adv-x="569" 
d="M505 45q-43 -43 -135 -124l-73 338l2 5q-83 -74 -189 -122v-97q0 -7 4 -22q6 -19 6 -23h-108q9 18 9 64v562q0 23 -16 48h359q-24 -80 -24 -127q0 -85 8 -129l36 28l43 -80q-20 -21 -56 -52q24 -91 51 -144q20 -37 83 -125zM281 378q-7 51 -15 156h-157v-272
q84 42 172 116zM316 808q-24 -26 -66 -62q-39 -21 -114 -32l-44 -5q28 19 64 49q38 46 33 50h127z" />
    <glyph glyph-name="Edieresis" unicode="&#xcb;" horiz-adv-x="427" 
d="M357 526l-29 16h-237v-187l62 42l47 -62q-38 -22 -109 -70v-182l271 1q-1 -23 -1 -84h-359v673h354q-2 -62 1 -147zM209 752q0 18 13.5 31t32.5 13t32.5 -13t13.5 -31q0 -19 -13.5 -32t-32.5 -13t-32.5 13t-13.5 32zM59 752q0 18 13.5 31t32.5 13t32.5 -13t13.5 -31
q0 -19 -13.5 -32t-32.5 -13t-32.5 13t-13.5 32z" />
    <glyph glyph-name="Egrave" unicode="&#xc8;" horiz-adv-x="427" 
d="M357 526l-29 16h-237v-187l62 42l47 -62q-38 -22 -109 -70v-182l271 1q-1 -23 -1 -84h-359v673h354q-2 -62 1 -147zM58 795q24 -26 66 -62q38 -22 114 -32l44 -6q-28 20 -64 50q-38 46 -33 50h-127z" />
    <glyph glyph-name="Iacute" unicode="&#xcd;" horiz-adv-x="230" 
d="M200 805q-24 -26 -65 -62q-39 -22 -115 -32l-43 -6q27 20 63 50q38 46 34 50h126zM131 471v-408q0 -10 9 -28t18 -34q-19 -2 -64 0.5t-69 -0.5q0 1 14 27q12 23 9 34v430q1 29 -3 89q-6 34 -37 102l170 -78q-31 -27 -41 -61q-6 -23 -6 -73z" />
    <glyph glyph-name="Icircumflex" unicode="&#xce;" horiz-adv-x="230" 
d="M208 717q-10 -3 -21 -3q-56 0 -110 53q-70 -58 -127 -58l42 41q11 13 31 52h109q5 -14 14 -28q22 -34 62 -57zM131 471v-408q0 -10 9 -28t18 -34q-19 -2 -64 0.5t-69 -0.5q0 1 14 27q12 23 9 34v430q1 29 -3 89q-6 34 -37 102l170 -78q-31 -27 -41 -61q-6 -23 -6 -73z
" />
    <glyph glyph-name="Idieresis" unicode="&#xcf;" horiz-adv-x="230" 
d="M121 751q0 18 13.5 31t32.5 13t32.5 -13t13.5 -31q0 -19 -13.5 -32t-32.5 -13t-32.5 13t-13.5 32zM-29 751q0 18 13.5 31t32.5 13t32.5 -13t13.5 -31q0 -19 -13.5 -32t-32.5 -13t-32.5 13t-13.5 32zM131 471v-408q0 -10 9 -28t18 -34q-19 -2 -64 0.5t-69 -0.5q0 1 14 27
q12 23 9 34v430q1 29 -3 89q-6 34 -37 102l170 -78q-31 -27 -41 -61q-6 -23 -6 -73z" />
    <glyph glyph-name="Igrave" unicode="&#xcc;" horiz-adv-x="230" 
d="M-12 795q24 -26 66 -62q38 -22 114 -32l44 -6q-28 20 -64 50q-38 46 -33 50h-127zM131 471v-408q0 -10 9 -28t18 -34q-19 -2 -64 0.5t-69 -0.5q0 1 14 27q12 23 9 34v430q1 29 -3 89q-6 34 -37 102l170 -78q-31 -27 -41 -61q-6 -23 -6 -73z" />
    <glyph glyph-name="Oacute" unicode="&#xd3;" horiz-adv-x="550" 
d="M240 -30q-111 0 -179 146q-53 117 -53 243q0 132 47 222q60 115 180 115q113 0 179 -109q57 -94 57 -214q0 -126 -54 -249q-67 -154 -177 -154zM377 320q0 253 -150 253q-124 0 -124 -248q0 -67 36 -155q43 -106 99 -106q58 0 103 102q36 86 36 154zM352 819
q-24 -26 -66 -62q-39 -21 -114 -32l-44 -5q28 19 64 49q38 46 33 50h127z" />
    <glyph glyph-name="Ocircumflex" unicode="&#xd4;" horiz-adv-x="550" 
d="M240 -30q-111 0 -179 146q-53 117 -53 243q0 132 47 222q60 115 180 115q113 0 179 -109q57 -94 57 -214q0 -126 -54 -249q-67 -154 -177 -154zM377 320q0 253 -150 253q-124 0 -124 -248q0 -67 36 -155q43 -106 99 -106q58 0 103 102q36 86 36 154zM358 717
q-10 -3 -21 -3q-56 0 -110 53q-70 -58 -127 -58l42 41q11 13 31 52h109q5 -14 14 -28q22 -34 62 -57z" />
    <glyph glyph-name="Ograve" unicode="&#xd2;" horiz-adv-x="550" 
d="M240 -30q-111 0 -179 146q-53 117 -53 243q0 132 47 222q60 115 180 115q113 0 179 -109q57 -94 57 -214q0 -126 -54 -249q-67 -154 -177 -154zM377 320q0 253 -150 253q-124 0 -124 -248q0 -67 36 -155q43 -106 99 -106q58 0 103 102q36 86 36 154zM112 818
q25 -26 66 -62q39 -21 115 -32l43 -5q-28 19 -63 49q-39 46 -34 50h-127z" />
    <glyph glyph-name="Uacute" unicode="&#xda;" horiz-adv-x="519" 
d="M442 179q0 -124 -72 -167q-53 -31 -186 -31q-62 0 -113 52.5t-51 114.5v527l103 -1q-9 -21 -19 -45v-188q1 -153 1 -189q0 -74 25 -99t97 -25q71 0 97 27.5t26 98.5q0 7 -16 138q-8 76 -29 226q-3 17 -20 56q28 1 50 1q27 0 65 -4q-11 -36 -11 -47q0 -69 26.5 -219
t26.5 -226zM322 805q-25 -26 -66 -62q-39 -22 -115 -32l-43 -6q27 20 63 50q38 46 34 50h127z" />
    <glyph glyph-name="Ucircumflex" unicode="&#xdb;" horiz-adv-x="519" 
d="M442 179q0 -124 -72 -167q-53 -31 -186 -31q-62 0 -113 52.5t-51 114.5v527l103 -1q-9 -21 -19 -45v-188q1 -153 1 -189q0 -74 25 -99t97 -25q71 0 97 27.5t26 98.5q0 7 -16 138q-8 76 -29 226q-3 17 -20 56q28 1 50 1q27 0 65 -4q-11 -36 -11 -47q0 -69 26.5 -219
t26.5 -226zM338 717q-10 -3 -21 -3q-56 0 -110 53q-70 -58 -127 -58l42 41q11 13 31 52h109q5 -14 14 -28q22 -34 62 -57z" />
    <glyph glyph-name="Ugrave" unicode="&#xd9;" horiz-adv-x="519" 
d="M442 179q0 -124 -72 -167q-53 -31 -186 -31q-62 0 -113 52.5t-51 114.5v527l103 -1q-9 -21 -19 -45v-188q1 -153 1 -189q0 -74 25 -99t97 -25q71 0 97 27.5t26 98.5q0 7 -16 138q-8 76 -29 226q-3 17 -20 56q28 1 50 1q27 0 65 -4q-11 -36 -11 -47q0 -69 26.5 -219
t26.5 -226zM98 805q24 -26 66 -62q38 -22 114 -32l44 -6q-28 20 -64 50q-38 46 -33 50h-127z" />
    <glyph glyph-name="circumflex" unicode="&#x2c6;" horiz-adv-x="269" 
d="M260 569q-10 -2 -21 -2q-56 0 -109 53q-70 -59 -127 -59l42 42q11 13 30 52h109q6 -15 15 -29q22 -34 61 -57z" />
    <glyph glyph-name="tilde" unicode="&#x2dc;" horiz-adv-x="377" 
d="M52 556l-6 9q43 73 89 73q21 0 60.5 -21t54.5 -21q40 0 77 33l6 -10q-53 -74 -84 -74q-20 0 -60.5 21t-55.5 21q-36 0 -81 -31z" />
    <glyph glyph-name="macron" unicode="&#xaf;" horiz-adv-x="301" 
d="M20 623h253v-54h-253v54z" />
    <glyph glyph-name="macron" unicode="&#x2c9;" horiz-adv-x="301" 
d="M20 623h253v-54h-253v54z" />
    <glyph glyph-name="cedilla" unicode="&#xb8;" horiz-adv-x="169" 
d="M84 -45q30 11 47 11q20 0 35 -14t15 -34q0 -58 -58 -75q-42 -13 -46 -13q-10 0 -11 13l2 3q64 19 64 59q0 28 -26 28q-6 0 -18.5 -4.5t-18.5 -4.5q-17 0 -22 18l20 59h34z" />
    <glyph glyph-name="Scaron" unicode="&#x160;" 
 />
    <glyph glyph-name="scaron" unicode="&#x161;" 
 />
    <glyph glyph-name="brokenbar" unicode="&#xa6;" 
 />
    <glyph glyph-name="Eth" unicode="&#xd0;" 
 />
    <glyph glyph-name="eth" unicode="&#xf0;" 
 />
    <glyph glyph-name="Yacute" unicode="&#xdd;" 
 />
    <glyph glyph-name="yacute" unicode="&#xfd;" 
 />
    <glyph glyph-name="Thorn" unicode="&#xde;" 
 />
    <glyph glyph-name="thorn" unicode="&#xfe;" 
 />
    <glyph glyph-name="uni00AD" unicode="&#xad;" 
 />
    <glyph glyph-name="uni00AD" unicode="&#x2212;" 
 />
    <glyph glyph-name="multiply" unicode="&#xd7;" 
 />
    <glyph glyph-name="uni00B9" unicode="&#xb9;" 
 />
    <glyph glyph-name="uni00B2" unicode="&#xb2;" 
 />
    <glyph glyph-name="uni00B3" unicode="&#xb3;" 
 />
    <glyph glyph-name="onehalf" unicode="&#xbd;" 
 />
    <glyph glyph-name="onequarter" unicode="&#xbc;" 
 />
    <glyph glyph-name="threequarters" unicode="&#xbe;" 
 />
    <glyph glyph-name="glyph218" 
 />
    <glyph glyph-name="Lslash" unicode="&#x141;" 
 />
    <glyph glyph-name="lslash" unicode="&#x142;" 
 />
    <glyph glyph-name="glyph221" 
 />
    <glyph glyph-name="glyph222" 
 />
    <glyph glyph-name="glyph223" 
 />
    <glyph glyph-name="Zcaron" unicode="&#x17d;" 
 />
    <glyph glyph-name="zcaron" unicode="&#x17e;" 
 />
    <glyph glyph-name="glyph226" 
 />
    <glyph glyph-name="glyph227" 
 />
    <glyph glyph-name="glyph228" 
 />
    <glyph glyph-name="glyph229" 
 />
    <glyph glyph-name="glyph230" 
 />
    <glyph glyph-name="glyph231" 
 />
    <glyph glyph-name="glyph232" 
 />
    <glyph glyph-name="notequal" unicode="&#x2260;" 
 />
    <glyph glyph-name="infinity" unicode="&#x221e;" 
 />
    <glyph glyph-name="lessequal" unicode="&#x2264;" horiz-adv-x="10" 
 />
    <glyph glyph-name="greaterequal" unicode="&#x2265;" 
 />
    <glyph glyph-name="partialdiff" unicode="&#x2202;" horiz-adv-x="245" 
d="M5 278l45 59v225q0 41 -18 85q55 17 126 49q-7 -13 -20 -76.5t-13 -80.5v-103l59 78v-58l-59 -77v-107q0 -154 69 -154q11 0 23 5l-44 -137l-14 1q-72 1 -103 131q-7 28 -5 34l-1 129l-43 -56q-2 -3 -2 -2v55z" />
    <glyph glyph-name="summation" unicode="&#x2211;" horiz-adv-x="574" 
d="M455 21q-15 -16 -62 -29q-42 -11 -70 -11q-43 0 -90 12q-43 13 -87 25q-15 4 -38 4q-61 0 -110 -24q31 48 62 95q34 56 49 102l3 3q5 -2 34 -41q34 -44 70 -67q54 -36 124 -36q32 0 57 33q23 30 23 64q0 36 -31 72q-26 30 -63 50q-60 27 -120 55q-73 34 -107 70
q-47 50 -47 120q0 160 227 155q94 -3 194 0l-44 -136q-26 0 -80 1h-79q-90 0 -90 -57q0 -46 71 -84q55 -26 110 -51q116 -70 138 -131q13 -34 13 -66q0 -70 -57 -128zM143 797q10 3 21 3q56 0 110 -54q69 59 126 59l-41 -41q-11 -14 -31 -53h-109q-5 15 -14 29
q-23 34 -62 57z" />
    <glyph glyph-name="product" unicode="&#x220f;" horiz-adv-x="440" 
d="M361 139q0 -69 -45 -108.5t-121 -39.5q-4 0 -58.5 9t-59.5 9q-8 0 -66 -18q9 34 25 130q23 -16 65 -42q47 -19 88 -19q25 0 44 8q46 19 46 58q0 55 -68 81q-64 22 -127 43q-68 37 -68 117q0 79 52 110q36 21 106 21h30q19 -1 27 -1h120q2 -2 1 -3q-3 -2 -3 -7
q0 -9 -40 -118q-8 4 -32 18q-2 -2 -41 0q-42 2 -46 0q-20 0 -39 -1q-34 -5 -33 -35q1 -28 34 -42q28 -8 55 -16q67 -21 108 -59q46 -42 46 -95zM73 647q10 3 21 3q56 0 110 -54q69 59 126 59l-41 -41q-11 -14 -31 -53h-109q-5 15 -14 29q-23 34 -62 57z" />
    <glyph glyph-name="pi" unicode="&#x3c0;" horiz-adv-x="544" 
d="M12 674q1 -3 10 -23q7 -15 7 -38q0 -283 204 -385q-18 -45 -37 -89q-26 -53 -78 -96l-16 -16q54 -22 98 -63l66 -64q-9 68 -6 122q2 50 34 144q29 80 59 161q31 101 97 300q10 28 19 47q-32 3 -107 0q2 -9 3 -19q2 -21 -4 -42q-53 -175 -89 -273q-16 10 -50 30
q-78 43 -102 152q-5 24 -5 75q0 25 7 43t14 34h-124zM357 801q-25 -26 -66 -62q-39 -21 -115 -32l-43 -5q28 19 64 49q38 46 33 50h127z" />
    <glyph glyph-name="integral" unicode="&#x222b;" horiz-adv-x="482" 
d="M7 496q29 -106 57 -211q46 -148 100 -209q-51 -179 -133 -179q-20 0 -23 -5q19 -34 51 -131q2 -2 4 -2q4 0 14 6t14 6q32 0 88 108l64 138q59 130 89 216q34 102 67 203q11 33 21 60h-112q1 -48 -3 -60q-26 -83 -37 -115q-31 -90 -58 -136q-83 93 -84 311h-119zM327 648
q-25 -26 -66 -62q-39 -21 -115 -32l-43 -5q28 19 64 49q38 46 33 50h127z" />
    <glyph glyph-name="Omega" unicode="&#x3a9;" horiz-adv-x="531" 
d="M11 433h51q33 122 122 189q93 70 232 64l43 -1l-36 -78q-21 -46 -25 -81q-59 10 -87 10q-92 0 -142 -103h196q16 0 16 -16v-20q0 -16 -16 -16h-216q-7 -23 -11 -48h227q16 0 16 -16v-20q0 -16 -16 -16h-232v-6q0 -88 42 -145q46 -64 132 -64q79 0 122 44q22 -22 55 -57
q-95 -64 -186 -64q-108 0 -179.5 84t-74.5 208h-33q-16 0 -16 16v20q0 16 16 16h34q2 25 5 48h-39q-16 0 -16 16v20q0 16 16 16z" />
    <glyph glyph-name="Omega" unicode="&#x2126;" horiz-adv-x="531" 
d="M11 433h51q33 122 122 189q93 70 232 64l43 -1l-36 -78q-21 -46 -25 -81q-59 10 -87 10q-92 0 -142 -103h196q16 0 16 -16v-20q0 -16 -16 -16h-216q-7 -23 -11 -48h227q16 0 16 -16v-20q0 -16 -16 -16h-232v-6q0 -88 42 -145q46 -64 132 -64q79 0 122 44q22 -22 55 -57
q-95 -64 -186 -64q-108 0 -179.5 84t-74.5 208h-33q-16 0 -16 16v20q0 16 16 16h34q2 25 5 48h-39q-16 0 -16 16v20q0 16 16 16z" />
    <glyph glyph-name="radical" unicode="&#x221a;" horiz-adv-x="13" 
 />
    <glyph glyph-name="approxequal" unicode="&#x2248;" 
 />
    <glyph glyph-name="approxequal" unicode="&#x22f2;" 
 />
    <glyph glyph-name="Delta" unicode="&#x394;" 
 />
    <glyph glyph-name="Delta" unicode="&#x2206;" 
 />
    <glyph glyph-name="lozenge" unicode="&#x25ca;" horiz-adv-x="370" 
d="M180 161l110 213l-106 208l-111 -207z" />
    <glyph glyph-name="fraction" unicode="&#x2044;" horiz-adv-x="39" 
 />
    <glyph glyph-name="uniF001" unicode="&#xf001;" horiz-adv-x="14" 
 />
    <glyph glyph-name="uniF002" unicode="&#xf002;" horiz-adv-x="19" 
 />
    <glyph glyph-name="uniF000" unicode="&#xf000;" horiz-adv-x="20" 
 />
    <glyph glyph-name="dotlessi" unicode="&#x131;" horiz-adv-x="221" 
d="M130 498q-26 -67 -26 -155v-246q-3 -53 22 -95h-114q18 59 18 90l1 274q0 51 -23 79q51 12 122 53z" />
    <glyph glyph-name="breve" unicode="&#x2d8;" horiz-adv-x="263" 
d="M215 698h29l1 -12q2 -49 -31.5 -82t-83.5 -33t-83 33t-32 83l1 11h29q6 -77 85 -77q80 0 85 77z" />
    <glyph glyph-name="dotaccent" unicode="&#x2d9;" horiz-adv-x="196" 
d="M51 618q0 21 14.5 36.5t34.5 15.5q21 0 35 -15.5t14 -36.5q0 -22 -14 -37t-35 -15q-20 0 -34.5 15t-14.5 37z" />
    <glyph glyph-name="ring" unicode="&#x2da;" horiz-adv-x="244" 
d="M127 691q29 0 47.5 -20t18.5 -50q0 -29 -18.5 -49.5t-47.5 -20.5t-49 20.5t-20 49.5t20 49.5t49 20.5zM127 661q-16 0 -27.5 -11.5t-11.5 -28.5q0 -16 11.5 -28t27.5 -12q17 0 28.5 12t11.5 28q0 17 -11.5 28.5t-28.5 11.5z" />
    <glyph glyph-name="hungarumlaut" unicode="&#x2dd;" horiz-adv-x="269" 
d="M25 564l35 98q21 59 53 59q27 0 27 -28q0 -18 -18 -40l-80 -98zM133 564l35 98q21 59 53 59q27 0 27 -29q0 -17 -18 -39l-81 -98z" />
    <glyph glyph-name="ogonek" unicode="&#x2db;" horiz-adv-x="308" 
d="M120 0h88q-90 -1 -90 -67q0 -17 11.5 -30.5t28.5 -13.5q31 0 72 37l16 -22q-56 -56 -108 -56q-30 0 -50 19.5t-20 49.5q0 48 52 83z" />
    <glyph glyph-name="caron" unicode="&#x2c7;" horiz-adv-x="269" 
d="M3 647q10 3 21 3q56 0 110 -54q69 59 126 59l-41 -41q-11 -14 -31 -53h-109q-5 15 -14 29q-23 34 -62 57z" />
    </font>
</defs>
</svg>
