<?xml version="1.0" standalone="no"?>
<!DOCTYPE svg PUBLIC "-//W3C//DTD SVG 1.1//EN" "http://www.w3.org/Graphics/SVG/1.1/DTD/svg11.dtd" >
<svg>
<metadata>
Created by FontForge 20120731 at Wed Apr 17 19:29:07 2019
 By www-data
Digitized by Dan X. Solo. Software (c)1998 by Dover Publications, Inc., New York.
</metadata>
<defs>
<font id="Odessa" horiz-adv-x="274" >
  <font-face 
    font-family="Odessa"
    font-weight="400"
    font-stretch="normal"
    units-per-em="1000"
    panose-1="0 0 4 0 0 0 0 0 0 0"
    ascent="800"
    descent="-200"
    x-height="522"
    cap-height="653"
    bbox="-22 -172 1049 830"
    underline-thickness="20"
    underline-position="-123"
    unicode-range="U+0020-25CA"
  />
<missing-glyph horiz-adv-x="500" 
d="M63 0v800h375v-800h-375zM125 63h250v675h-250v-675z" />
    <glyph glyph-name=".notdef" horiz-adv-x="500" 
d="M63 0v800h375v-800h-375zM125 63h250v675h-250v-675z" />
    <glyph glyph-name="glyph1" horiz-adv-x="0" 
 />
    <glyph glyph-name="glyph2" 
 />
    <glyph glyph-name="space" unicode=" " 
 />
    <glyph glyph-name="exclam" unicode="!" horiz-adv-x="223" 
d="M165 74q0 -27 -13 -49q-16 -25 -40 -25q-27 0 -44 31q-15 25 -15 55t15.5 53t44.5 23q22 0 38 -34q14 -28 14 -54zM86 200l-39 423l-29 3v20q8 -1 16 -1q25 0 51.5 19t48.5 19q15 0 33 -8l-38 -475h-43z" />
    <glyph glyph-name="quotedbl" unicode="&#x22;" horiz-adv-x="226" 
d="M64 453h-17l-12 113q-5 45 -5 58q0 39 25 39q26 0 26 -43q0 -17 -4 -54zM148 453h-17l-13 113q-5 41 -5 56q0 41 26 41q25 0 25 -41q0 -14 -4 -56z" />
    <glyph glyph-name="numbersign" unicode="#" horiz-adv-x="390" 
d="M196 656l-35 -203h78l37 203h41l-37 -203h65l-9 -44h-63l-28 -161l68 1l-12 -45h-64l-36 -200h-40l34 200h-79l-35 -200h-38l35 200h-65l12 45l61 -1l28 161h-65l8 44h65l36 203h38zM124 248h80l28 161h-79z" />
    <glyph glyph-name="dollar" unicode="$" horiz-adv-x="422" 
d="M192 550q-50 -1 -78 -34q-25 -28 -25 -68q0 -26 14 -34q42 30 89 35v101zM193 153q-42 6 -40 51q16 -4 28 -4q8 0 11 1v51q-20 20 -55 20q-36 0 -59.5 -28.5t-23.5 -58.5q0 -43 40 -79t97 -36h2v83zM225 288q50 -30 50 -73q0 -17 -13.5 -34.5t-35.5 -24.5v-82
q53 11 86 53q30 39 30 83q0 55 -27 98q-32 49 -90 67v-87zM392 269q0 -76 -33 -132q-44 -73 -133 -85v-58h-33v56h-3q-70 0 -119 43q-47 40 -47 91q0 41 36 79q40 42 96 42q21 0 36 -4v80q-18 2 -29 2q-26 0 -50 -14q-57 40 -58 92q-2 97 134 131v58h35v-55q70 4 134 -36
q-25 -24 -70 -55l-30 24q-18 14 -34 19l1 -98q77 -5 126 -67q41 -54 41 -113z" />
    <glyph glyph-name="percent" unicode="%" horiz-adv-x="515" 
d="M414 652q0 -1 -166.5 -329t-167.5 -329l-17 13l333 654zM361 -4q-42 0 -71 73q-24 60 -24 113v49q0 49 28 110q32 71 73 71q40 0 68 -57q23 -48 23 -96v-57q0 -64 -23 -127q-29 -79 -74 -79zM348 365q-20 0 -30 -32q-7 -23 -7 -48v-83q0 -43 19 -99q23 -69 53 -69
q39 0 39 136q0 65 -13 117q-19 78 -61 78zM111 236q-42 0 -71 73q-24 60 -24 113v49q0 49 28 110q32 71 73 71q40 0 68 -57q23 -48 23 -96v-57q0 -64 -23 -127q-29 -79 -74 -79zM98 605q-20 0 -30 -32q-7 -23 -7 -48v-83q0 -43 19 -99q23 -69 53 -69q39 0 39 136
q0 65 -13 117q-19 78 -61 78z" />
    <glyph glyph-name="ampersand" unicode="&#x26;" horiz-adv-x="585" 
d="M533 111q0 -55 -93 -95q-78 -34 -141 -34q-126 0 -205 72.5t-79 197.5q0 67 55 108q31 23 100 48q-35 14 -67 39q-44 34 -44 67q0 71 70 118q62 42 135 42q49 0 124 -28q89 -34 89 -75q0 -58 -132 -146v-267q0 -43 15 -64l-16 -17q-17 -1 -22 40q-2 17 -1 41v262
q-13 -1 -32 -1q-53 14 -60 55q-3 18 12 33t36 16q31 1 48 -18q12 -13 17 -36l3 -18q56 37 56 82q0 46 -51 83q-47 35 -96 35t-82 -28q-36 -30 -36 -78q0 -49 41 -92q26 -27 76 -56q42 -25 43 -30q0 -8 -5 -13l-12 1q-73 6 -131.5 -42t-58.5 -123q0 -73 71 -132
q68 -57 143 -57q61 0 101 29.5t41 81.5q0 3 -2 124l-83 -47q-5 11 -2 26q86 44 175 110v-214zM254 157q-30 0 -63.5 30t-33.5 60q0 8 6 18t13 10q15 0 19 -20q2 -14 4 -29q19 -41 63 -41q12 0 25 5.5t15 5.5q5 0 3 -26q-29 -13 -51 -13zM321 449q0 57 -44 55q-23 -1 -23 -25
q0 -39 59 -39q8 0 8 9z" />
    <glyph glyph-name="quotesingle" unicode="'" horiz-adv-x="142" 
d="M64 453h-17l-12 113q-5 45 -5 58q0 39 25 39q26 0 26 -43q0 -17 -4 -54z" />
    <glyph glyph-name="parenleft" unicode="(" horiz-adv-x="301" 
d="M87 310q0 126 63 233.5t173 168.5v-17q-141 -101 -141 -385q0 -282 141 -386v-17q-110 62 -173 169.5t-63 233.5z" />
    <glyph glyph-name="parenright" unicode=")" horiz-adv-x="367" 
d="M309 310q0 125 -63.5 233t-172.5 169v-17q141 -101 141 -385q0 -282 -141 -386v-17q110 62 173 169.5t63 233.5z" />
    <glyph glyph-name="asterisk" unicode="*" horiz-adv-x="306" 
d="M245 489q0 -24 -20 -24q-13 0 -44 27q-40 36 -45 39q0 -16 11.5 -47.5t11.5 -46.5q0 -26 -26 -26q-25 0 -25 26q0 15 11 46.5t11 47.5q-10 -5 -40 -40q-26 -29 -44 -29q-24 0 -24 26q0 19 43 32q32 8 63 16l-62 14q-42 10 -42 30q0 31 26 33q12 1 40 -29q35 -37 41 -41
q-2 13 -13 47q-10 30 -10 47q0 27 23 27q28 0 28 -26q0 -17 -10 -47q-11 -34 -13 -48q6 4 42 40q29 30 39 30t17 -9.5t6 -20.5q-2 -16 -42 -28q-57 -18 -59 -19q31 -8 63 -16q43 -11 43 -31z" />
    <glyph glyph-name="plus" unicode="+" horiz-adv-x="574" 
d="M328 228v-212h-50v212h-212v50h212v212h50v-212h212v-50h-212z" />
    <glyph glyph-name="comma" unicode="," horiz-adv-x="207" 
d="M154 68q0 -55 -26 -94q-9 -14 -32 -30q-8 -8 -20 -8q-11 0 -11 11l2 8q9 4 23 13q24 27 24 35v5q-1 6 -4 4q-9 -5 -21 -5q-23 0 -35 25q-10 20 -10 46q0 28 12 52q15 30 40 30q29 0 46 -38q12 -29 12 -54z" />
    <glyph glyph-name="hyphen" unicode="-" horiz-adv-x="322" 
d="M242 367l-19 -41h-202l23 41h198z" />
    <glyph glyph-name="hyphen" unicode="&#x2010;" horiz-adv-x="322" 
d="M242 367l-19 -41h-202l23 41h198z" />
    <glyph glyph-name="period" unicode="." horiz-adv-x="196" 
d="M155 74q0 -25 -12 -47q-15 -27 -41 -27q-30 0 -47 35q-12 26 -12 51q0 26 12 48q17 28 48 28q25 0 40 -38q12 -29 12 -50z" />
    <glyph glyph-name="slash" unicode="/" horiz-adv-x="316" 
d="M339 645l-279 -650l-28 12l279 648q12 -4 28 -10z" />
    <glyph glyph-name="zero" unicode="0" horiz-adv-x="568" 
d="M125 367q-6 -108 56 -218q67 -119 155 -119q55 0 87 81q26 64 26 136q0 138 -47 241q-60 131 -174 130q-51 -1 -79 -101q-19 -66 -24 -150zM501 341q0 -107 -30 -202q-42 -133 -124 -135l-95 -2q-100 -2 -148 95q-37 74 -37 191q0 109 34 217q46 148 130 147q16 0 47 2
t45 2q76 0 131 -124q47 -103 47 -191z" />
    <glyph glyph-name="one" unicode="1" horiz-adv-x="427" 
d="M343 1l-229 -1q-11 2 -11 16q0 11 14 13q16 -1 28 0q39 -5 39 67v434q-39 -4 -71 -51q-21 -31 -26 -50h-9q-7 -1 -8 -1q2 0 1 50q-1 77 190 187v-569q1 -64 40 -64h41q15 -5 15 -18t-14 -13z" />
    <glyph glyph-name="two" unicode="2" horiz-adv-x="568" 
d="M456 1q-8 5 -14 11l-30 20q-29 15 -69 15q-37 0 -109.5 -25.5t-104.5 -25.5q-89 0 -89 46q0 45 191 226l70 64q46 43 68 72q29 38 29 70q0 64 -55 102q-46 32 -106 32q-49 0 -103 -22q-74 -30 -74 -82q0 -28 23 -28q22 0 60 30q8 7 56 52l19 -19q-23 -31 -65 -63
q-48 -36 -75 -36h-4q-22 0 -35.5 18.5t-13.5 39.5q0 61 87 112q79 46 152 45q9 1 36 0q184 -10 184 -123q0 -56 -88 -145t-115 -119q-61 -66 -89 -117q-34 -61 -34 -77q0 -32 20 -32q16 0 51 21q48 29 74 39q53 21 111 21q44 0 101 -18q3 4 10 15l18 -11q-44 -108 -87 -108z
" />
    <glyph glyph-name="three" unicode="3" horiz-adv-x="568" 
d="M516 229v-24q0 -76 -56 -139q-65 -72 -169 -75q-236 -6 -236 173q0 28 20 63l30 -11q-13 -32 -13 -49q0 -54 40.5 -94.5t95.5 -40.5q81 0 138 48q62 51 62 132q0 47 -31.5 83.5t-77.5 36.5q-58 0 -108 -45l-24 22q23 26 83 53q75 34 90 44q43 28 43 66q0 67 -50 105
q-44 34 -111 34q-52 0 -100 -26q-56 -31 -56 -79q0 -8 8 -19t16 -11q48 0 113 79l19 -20q-27 -38 -64 -65q-41 -31 -73 -31q-24 0 -38.5 18t-14.5 43q0 82 86 123q66 33 157 33q180 0 193 -145q4 -39 -26.5 -79t-69.5 -55q95 -22 124 -148z" />
    <glyph glyph-name="four" unicode="4" horiz-adv-x="568" 
d="M497 136q-2 24 -7 38q-16 42 -59 40v-116q1 -16 3 -32.5t11 -29.5q11 -16 47 -16q0 -15 -1 -21h-198v18q40 -5 54 21q9 16 9 54v135q-34 -16 -69 -40q-9 -6 -39 -28q-25 -18 -28 -20q-14 -7 -39 -7q-6 0 -27 1h-27q-38 -1 -54 9q-21 13 -21 50q0 136 113.5 282t244.5 178
q6 -1 15 -5q4 -3 6 -25l-1 -141v-233q53 -15 69 -38t16 -74l-4 -1q-4 -1 -7 0q-1 0 -7 1zM135 286q0 -75 55 -75q36 0 84 17l82 30l-1 345q-72 -34 -146 -141t-74 -176z" />
    <glyph glyph-name="five" unicode="5" horiz-adv-x="568" 
d="M536 240q0 -109 -88 -178q-81 -65 -193 -65q-87 0 -151 46q-72 52 -72 135q0 59 55 129q7 0 26 -19q-46 -63 -46 -114q0 -64 56 -105q51 -38 117 -38q79 0 141 50q65 54 65 131q0 81 -64 133q-60 48 -143 48q-40 0 -88 -23q-9 4 -42 23l-1 258l9 1q14 0 45 -8.5t47 -8.5
q38 0 110 20t108 20q55 0 109 -40q-25 -35 -73 -105l-32 18l21 33q-26 16 -76 16q-21 0 -64.5 -9t-66.5 -9q-47 0 -98 23q-6 -117 0 -188q73 38 157 38q97 0 163 -56q69 -59 69 -156z" />
    <glyph glyph-name="six" unicode="6" horiz-adv-x="568" 
d="M516 210q0 -98 -76 -163q-72 -61 -172 -61q-101 0 -161 74q-56 70 -56 173q0 128 127 268q122 135 251 166l7 -22q-135 -64 -223 -166q-102 -119 -102 -252q0 -80 37 -137q42 -66 118 -66q70 0 113 65q37 56 37 130q0 64 -34.5 104t-97.5 40q-56 0 -125 -77l-13 9v4
q0 41 67 80q63 37 111 33q82 -7 137 -64.5t55 -137.5z" />
    <glyph glyph-name="seven" unicode="7" horiz-adv-x="568" 
d="M550 606q0 -19 -89 -122q-122 -140 -166 -201q-90 -123 -91 -192q0 -17 22 -17q13 0 37 5t35 5q23 -17 63 -87l-15 -11h-5q-18 23 -46 23q-15 0 -44 -6t-43 -6q-17 0 -31.5 10t-14.5 27q0 75 68 205q32 62 126 212q68 109 68 132q0 29 -26 29q-8 0 -94 -36t-144 -36
q-38 0 -108 24l-14 -15l-20 13q20 17 51.5 57t50.5 57l7 -9l-3 -7q15 -18 56 -32q37 -13 64 -13q36 0 112 21.5t112 21.5q28 0 52 -12q30 -15 30 -40z" />
    <glyph glyph-name="eight" unicode="8" horiz-adv-x="568" 
d="M513 155q0 -82 -71 -127q-60 -39 -146 -39q-242 0 -242 169q0 116 171 228q-148 74 -148 171q0 107 214 107q177 0 177 -95q0 -56 -61 -105q-54 -35 -107 -71q79 -36 139 -94q74 -72 74 -144zM389 551q0 81 -112 81q-158 0 -158 -84q0 -38 51 -86.5t90 -52.5
q129 79 129 142zM471 158q0 72 -69 129q-44 37 -132 77q-6 1 -28 -28q-47 -52 -66 -88q-26 -49 -26 -106q0 -55 46 -87q40 -28 97 -28q74 0 121 28q57 34 57 103z" />
    <glyph glyph-name="nine" unicode="9" horiz-adv-x="568" 
d="M51 443q0 98 76 163q72 61 172 61q101 0 161 -74q56 -68 56 -172q0 -128 -127 -268q-121 -135 -250 -167l-7 22q136 65 223 166q102 119 102 253q0 80 -37 137q-42 65 -119 65q-70 0 -112 -64q-37 -57 -37 -131q0 -63 34 -102q35 -42 97 -42q56 0 126 78l13 -10v-3
q0 -41 -65 -79t-113 -34q-82 7 -137.5 64.5t-55.5 136.5z" />
    <glyph glyph-name="colon" unicode=":" horiz-adv-x="208" 
d="M156 74q0 -27 -13 -49q-16 -25 -40 -25q-27 0 -44 31q-15 25 -15 55t15.5 53t44.5 23q22 0 38 -34q14 -28 14 -54zM156 474q0 -27 -13 -49q-16 -25 -40 -25q-27 0 -44 31q-15 25 -15 55t15.5 53t44.5 23q22 0 38 -34q14 -28 14 -54z" />
    <glyph glyph-name="semicolon" unicode=";" horiz-adv-x="224" 
d="M178 484q0 -27 -16 -55q-18 -31 -43 -31q-26 0 -41 33q-13 26 -13 55q0 26 13 49q15 27 39 27q27 0 44 -24.5t17 -53.5zM175 68q0 -87 -58 -124q-12 -8 -20 -8q-11 0 -11 11q0 3 24.5 23.5t24.5 37.5q0 4 -3 4t-10.5 -2.5t-11.5 -2.5q-23 0 -35 25q-10 20 -10 46
q0 28 12 52q15 30 40 30q27 0 44 -34q14 -27 14 -58z" />
    <glyph glyph-name="less" unicode="&#x3c;" horiz-adv-x="314" 
d="M263 405q-7 -2 -188 -148l194 -158l-19 -23l-222 181l114 92q100 80 108 83z" />
    <glyph glyph-name="equal" unicode="=" horiz-adv-x="519" 
d="M46 148v50h424v-50h-424zM46 258v50h424v-50h-424z" />
    <glyph glyph-name="greater" unicode="&#x3e;" horiz-adv-x="305" 
d="M50 405q5 -2 187 -148l-193 -158l19 -23l222 181l-115 92q-51 41 -107 83z" />
    <glyph glyph-name="question" unicode="?" horiz-adv-x="507" 
d="M214 195l-13 2q11 129 153 213q33 20 33 69q0 64 -55 102q-46 33 -106 33q-45 0 -101 -25q-72 -32 -78 -84q-1 -8 5.5 -16t19.5 -8q22 0 60 31q28 25 56 51l20 -19q-25 -31 -66 -62q-48 -36 -75 -36h-4q-22 0 -35.5 18t-13.5 39q0 62 87 113q79 46 152 45q9 1 36 0
q184 -12 184 -123q0 -68 -89 -147q-51 -44 -101 -89q-39 -42 -45 -106zM275 64q0 -25 -12 -47q-15 -27 -41 -27q-30 0 -47 35q-12 26 -12 51q0 26 12 48q17 28 48 28q25 0 40 -38q12 -29 12 -50z" />
    <glyph glyph-name="at" unicode="@" horiz-adv-x="700" 
d="M434 142q-52 0 -68 66q-50 -68 -102 -68q-50 0 -81 40q-30 36 -30 87q0 88 53 163q59 84 143 84q45 0 86 -54l13 39h78l-48 -148q-38 -119 -38 -140q0 -29 29 -29q60 0 100 73q33 61 33 126q0 107 -72 175t-179 68q-122 0 -200 -84t-78 -207q0 -124 77 -210
q79 -89 202 -89q149 0 234 131h46q-39 -77 -116.5 -124t-165.5 -47q-136 0 -228 101q-91 98 -91 235q0 136 92.5 235t228.5 99q119 0 205.5 -79t86.5 -197q0 -89 -59 -165q-64 -81 -151 -81zM366 482q-56 0 -99 -99q-36 -85 -36 -151q0 -61 50 -61q48 0 95 110q41 96 41 153
q0 21 -14.5 34.5t-36.5 13.5z" />
    <glyph glyph-name="A" unicode="A" horiz-adv-x="563" 
d="M389 354q0 -6 -21 -28q-13 -15 -27 -29q-37 -59 -37 -66q0 -3 23.5 -48.5t23.5 -73.5q0 -23 -11 -41q-12 -21 -33 -21q-25 0 -38 30q-11 23 -11 51q0 35 10 66q13 40 13 35q-51 86 -50 103q3 2 11 1q8 0 8 -3q3 -18 41 -77q30 46 30 52q0 22 -37 36q-28 10 -55 10
q-6 0 -18 -2.5t-18 -2.5q-10 0 -10 25q45 30 102 30q25 0 60 -12q44 -15 44 -35zM321 522q-3 -12 -6 -12h-5q-5 1 -9 1q-12 0 -30 -5q-27 -7 -30 -86l-17 -6q1 33 7 58q17 60 62 69q8 2 19 -4.5t9 -14.5zM542 15q0 -14 -24 -14h-105q-18 4 -18 21q0 6 4.5 19.5t4.5 19.5v422
q0 13 -7 53q-15 89 -105 86q-26 -1 -57 -21.5t-47 -44.5q-36 -54 -36 -120q0 -50 39.5 -171t39.5 -169q0 -71 -28 -86q-24 -13 -45 -13q-37 0 -57 5q-36 9 -63 58q-23 44 -23 84q0 91 64 150q3 -2 3 -17q0 6 -25 -35t-25 -81q0 -36 17 -78q20 -51 49 -51q21 0 34 27
q10 21 10 45q0 31 -17 86q-23 72 -26 85q-7 34 -7 81q0 29 11 75.5t24 72.5q25 50 71 93q52 50 99 57q28 4 47 4q2 0 25 -4q52 -9 85.5 -54t33.5 -98v-39l-1 -370q0 -15 2 -35q1 -14 27 -24.5t26 -18.5zM331 113q0 23 -13 50q-13 23 -25 45q-13 -19 -13 -57q0 -79 23 -81
q28 -2 28 43z" />
    <glyph glyph-name="B" unicode="B" horiz-adv-x="554" 
d="M519 241q0 -116 -97 -197q-91 -75 -212 -80q-27 -1 -54 8q-34 11 -40 12q-9 1 -13.5 -10t-7.5 -22l-18 16l13 30q-78 53 -74 150q3 77 81 144q56 48 201 126q111 60 111 87q0 60 -72 90q-54 22 -122 22q-53 0 -117 -36q-73 -41 -73 -90q0 -13 10 -23.5t23 -10.5
q31 0 104 63t94 64l1 -15q-29 -6 -27 -23l-1 -138q-22 -9 -75 -46v130q-18 -15 -33 -26q-38 -26 -58 -27q-58 -3 -58 50q0 76 97 129q82 45 166 45q70 0 142 -33q87 -41 87 -101q0 -12 -67 -55l-86 -54q-2 -1 4 -1q69 0 120 -55t51 -123zM447 209q0 59 -54 106
q-52 44 -112 44q-72 0 -156 -72q-87 -74 -87 -145q0 -32 21 -73q23 -48 52 -49q9 7 45 38v221q22 25 78 49v-226q34 18 91 54q8 6 20 31q10 21 19 21q20 0 20 -23q0 -20 -111 -87q-120 -74 -135 -94q25 -15 68 -14q94 3 166 63q75 64 75 156z" />
    <glyph glyph-name="C" unicode="C" horiz-adv-x="538" 
d="M311 220v-39q-4 -30 -21 -30q-43 0 -80 43t-37 87q-1 107 89 155q5 -23 1 -26q-26 -15 -45 -45q-22 -37 -22 -80q0 -31 23 -65q25 -38 54 -38q8 0 9 32q4 160 1 238q-1 14 -8 49t-7 36q0 9 8 16t17 7q11 0 18 -58v-282zM504 165q-1 -72 -70 -123q-64 -47 -137 -47
q-123 0 -206 97q-79 91 -79 216q0 133 82 239q89 113 218 113q51 0 108 -29q67 -33 67 -78q0 -12 -68 -48q-77 -42 -87 -51q-4 10 -4 28q10 9 69 50q-10 35 -58 54q-41 17 -86 14q-88 -5 -139 -76q-46 -64 -46 -152q0 -105 68 -199q74 -103 176 -103q55 0 108 24
q65 30 66 79l6 7q1 0 12 -15z" />
    <glyph glyph-name="D" unicode="D" horiz-adv-x="603" 
d="M548 386q0 -150 -99 -269q-109 -131 -272 -131q-69 0 -111 29q-48 33 -48 93t94 97q87 31 175 62q94 46 94 129q0 29 -18.5 53.5t-46.5 24.5q-73 0 -73 -108q0 -12 2 -35q1 -18 0 -24l1 -34q-18 -8 -70 -19q-1 27 0 75q1 59 1 74q0 44 39 75q37 28 83 28q45 0 75 -29.5
t30 -75.5q0 -102 -93 -152q-14 -7 -174 -57q-93 -30 -93 -84q0 -45 35 -72q32 -24 81 -24q16 0 17 72q0 49 -1 98q48 19 70 19q1 -7 0 -43q-2 -47 -2 -65q0 -67 15 -67q82 0 156 113q68 103 68 187q0 119 -61 190q-65 75 -181 75q-69 0 -136 -40q-77 -46 -77 -109
q0 -56 40 -72l26 4l16 -13q-1 -15 -11 -19q-3 -1 -18 -1q-36 0 -56 34q-18 29 -18 67q0 87 89 155q83 65 172 65q122 0 201 -79t79 -197z" />
    <glyph glyph-name="E" unicode="E" horiz-adv-x="549" 
d="M508 632l-2 -12q-29 -27 -94 -179l-19 4q43 86 43 103q0 21 -44 42q-39 17 -63 17q-58 0 -82 -26t-24 -85v-228l-19 -3q-15 -1 -50 5l-1 182q0 90 75 150q70 57 164 57q19 0 53.5 -11t52.5 -11q5 0 10 -5zM482 363q0 -7 -58 -73h-7q-3 20 -14 52q-42 57 -162 62v25
q46 11 92 8q35 -3 86 -23q63 -25 63 -51zM374 346q-13 -21 -26 -43q-22 -33 -50 -51q-38 -25 -90 -25q-50 0 -89 20q-48 24 -48 69q0 48 58 77v-17q-39 -37 -39 -61q0 -65 119 -65q48 0 83 23q26 17 45 47q11 18 21 36zM554 86q-9 -12 -43 -52q-41 -46 -47 -46
q-69 45 -161 45q-47 0 -133 -25t-129 -25q-17 0 -34 8q-21 10 -21 25q0 29 36 44q29 9 57 19q38 19 55 56q10 23 18 77l72 -7v-12q0 -58 -56 -93q-25 -16 -103 -43q-56 -19 -56 -38q0 -8 12 -13.5t22 -5.5q30 0 155.5 55t196.5 55q58 0 125 -31l28 13z" />
    <glyph glyph-name="F" unicode="F" horiz-adv-x="526" 
d="M555 576q0 -1 -31 -36q-34 -37 -39 -45q-40 -62 -67 -134q-31 -82 -31 -142q0 -8 5 -28q3 -12 3 -19q0 -11 -11 -11q-12 0 -19.5 13t-5.5 24l23 128q-2 23 -37 38q-29 12 -53 10q-30 -2 -32 -12v-246q1 -15 3 -46q5 -41 24 -41h112q99 0 99 -28q0 -13 -15 -13
q-1 0 -16 4.5t-21 5.5q-80 15 -128 15q-26 0 -176 -17q-14 0 -14 9q0 5 8 10q12 4 23 8q16 7 21 18q9 23 9 46l-1 259q-10 0 -34.5 -2l-24.5 -2q-45 0 -82 32t-37 78q0 74 98 140q103 69 226 69q131 0 211 -76q10 -10 10 -9zM475 527q0 9 -9 17l-18 16q-63 60 -157 60
q-61 0 -127 -25q-55 -21 -92 -59q-41 -42 -41 -88q0 -32 28.5 -57t66.5 -25q34 0 62 11v48q0 27 -6 65q-3 6 -17 16l95 65q1 -21 -1 -168q44 22 60 22q25 0 55 -8t27 -8q8 0 11 5q63 102 63 113z" />
    <glyph glyph-name="G" unicode="G" horiz-adv-x="532" 
d="M302 450l-18 -12q-8 62 -66 62q-36 0 -56 -29q-17 -25 -17 -63q0 -50 42 -75q35 -22 87 -21v-17h-26q-47 0 -84.5 36t-37.5 83q0 42 24 71t66 31q34 2 58.5 -18t27.5 -48zM475 139q0 -32 -83 -90t-122 -58q-110 0 -191 116q-75 107 -70 219q6 151 84 243.5t202 92.5
q38 0 96 -23q68 -27 68 -58q0 -46 -86.5 -116.5t-136.5 -70.5q-36 0 -36 20l16 12q33 -6 37 -6q37 0 82.5 31t45.5 67q0 38 -40.5 71t-79.5 33q-94 0 -144 -84q-42 -69 -42 -170t73 -205q78 -113 174 -113q67 0 67 70l-1 227q-21 -18 -67 -42l-3 16q74 45 81 50q46 30 76 58
l5 -15q-6 -7 -11.5 -13t-5.5 -17l1 -212q0 -5 5.5 -16t5.5 -17zM306 142l-10 -12q-8 0 -8 9l1 253l18 13q-1 -29 -1 -263z" />
    <glyph glyph-name="H" unicode="H" horiz-adv-x="584" 
d="M554 629q0 -15 -83 -72q-4 0 -6 6q7 12 7 19q0 18 -35 32q-28 10 -50 10q-63 0 -127 -60q-7 2 -6 12q2 24 68 66q72 45 129 45q29 0 63 -15q40 -18 40 -43zM535 288q0 -156 -129 -294t-283 -138q-46 0 -88 14q-57 20 -57 57q0 60 81 77q33 7 123 7q57 0 106 18
q67 24 67 70q0 17 -11 28t-28 11q-49 0 -153 -82l-8 1v527q-132 -64 -132 -107q0 -27 42 -27q24 0 74 26v-13q-41 -33 -86 -33q-57 0 -55 58q2 39 102 91q116 59 136 87l9 -8l-9 -42v-245l168 124q77 -56 97 -83q34 -45 34 -124zM460 238q0 52 -34 107q-37 61 -85 61
q-25 0 -103 -62v-218q38 28 78 28q62 0 62 -54q0 -71 -94 -92q-87 -8 -174 -17q-94 -11 -94 -58q0 -29 37 -46q29 -14 62 -14q147 0 248 111q97 108 97 254z" />
    <glyph glyph-name="I" unicode="I" horiz-adv-x="359" 
d="M302 630q-56 -4 -76 -28q-9 -11 -13 -39q1 -63 0 -177q-1 -32 0 -41q52 -39 62 -51q28 -33 28 -83q0 -25 -8 -50q-10 -34 -30 -34q-9 0 -16.5 7.5t-7.5 16.5q0 8 17.5 25.5t17.5 42.5q0 27 -17.5 53.5t-42.5 38.5l1 -203q0 -33 9 -49q13 -26 53 -32q9 -1 19.5 -2.5
t10.5 -11.5q0 -15 -27 -14l-106 4q-63 -2 -130 -3q-10 4 -2 12q2 4 26.5 9t37.5 20q18 20 20 32q1 4 1 40v235q-43 37 -86 73q-32 37 -32 109q0 47 45 97l-17 19q1 9 23 7q140 -11 239 0q14 0 14 -10q0 -12 -13 -13zM129 418l1 145q0 53 -36 53q-25 0 -43 -33
q-16 -28 -16 -55q0 -76 60 -122l34 -26v38z" />
    <glyph glyph-name="J" unicode="J" horiz-adv-x="508" 
d="M465 336q0 -12 -5 -32q-3 -12 -33 -35.5t-43 -23.5q-3 0 -2 10q2 16 2 15t29 15t29 36t-20 32v10q7 7 14 7q29 0 29 -34zM367 187q0 -78 -13 -104q-89 -179 -240 -189q-34 -2 -60 12q-36 21 -36 70q0 77 98 174q95 95 165 97q-2 -7 -2 -25q-60 -6 -138 -77
q-93 -85 -93 -180q0 -21 18.5 -35t42.5 -14q77 0 134 93q51 81 51 162l2 359q6 95 -30 91q-50 -6 -58 -6q-63 0 -62 30q-4 10 16 15q14 -9 29 -18q12 -7 31 -7q37 0 77 12q44 14 69 36q8 7 10 -5q-6 -29 -11 -95v-396z" />
    <glyph glyph-name="K" unicode="K" horiz-adv-x="678" 
d="M599 593q0 -77 -137 -182q-6 0 -6 13q0 -1 29.5 42t29.5 80q0 20 -11 37t-30 17q-6 0 -23.5 -4t-23.5 -4q-5 0 -5 9q0 3 60 35.5t65 32.5q21 0 37 -29q15 -25 15 -47zM727 -93l-6 -2q-114 44 -206 170q-58 79 -120 215q-51 113 -64 120v8q30 17 89 56q6 6 18 -51
q13 -67 41 -128q79 -174 98 -206q52 -89 150 -176v-6zM350 343q-89 -39 -195 -39q-61 0 -108 40.5t-47 99.5q0 89 76 159t167 70q31 0 56 -17q29 -19 29 -48q0 -19 -11 -40q-18 -34 -19 -36q-12 -30 -12 -68v-99q-18 -11 -78 -19v88q0 31 -25 31q-5 0 -16.5 -1.5t-17.5 -1.5
q-21 0 -21 13q0 10 48 15q39 4 83.5 40.5t44.5 73.5q0 23 -16.5 36.5t-40.5 13.5q-79 0 -153 -65.5t-74 -143.5q0 -59 49 -93q42 -30 102 -30q64 0 171 33zM375 -5q-19 0 -61.5 4t-62.5 4q-21 0 -65.5 -5.5t-66.5 -5.5q-7 0 -10 6t1 9q15 10 44 10t39 9q15 16 15 67v188
q15 0 40 7l38 10v-155q0 -103 23 -117q9 -5 38 -7q25 -1 35 -11q7 -13 -7 -13z" />
    <glyph glyph-name="L" unicode="L" horiz-adv-x="552" 
d="M534 612q0 -9 -24 -39t-33 -30l-22 17.5t-60 17.5q-32 0 -65 -16q-13 -6 -58 -34q0 9 3 22q42 35 83 69q50 39 99 39q24 0 48 -11q29 -14 29 -35zM529 64l-62 -70q-32 22 -52.5 28t-61.5 6q-42 0 -123.5 -17t-121.5 -17q-41 0 -41 24q0 19 53 61t53 74v401q0 22 -19 22
q-23 0 -63 -24q-43 -26 -45 -46q-3 -26 44 -26q29 0 68 23v-21q-31 -22 -73 -22q-24 0 -45 11q-27 13 -27 35q0 58 247 153q8 3 10 -1t-2 -9q-15 -11 -15 -46v-437q0 -29 -38 -59q-20 -16 -71 -44q-39 -21 -40 -29q-8 -9 8 -14q44 2 145 47q98 43 154 43q25 0 67 -13
q50 -16 51 -33z" />
    <glyph glyph-name="M" unicode="M" horiz-adv-x="847" 
d="M817 1h-138q-13 2 -13 11q0 8 13.5 11t18.5 17q2 12 5 24q1 33 1 295q0 167 -91 206.5t-192 39.5q-118 0 -215 -39q-60 -24 -113 -81q-58 -62 -58 -115q0 -50 43 -80q37 -27 90 -27q26 0 46 4q2 -2 2 -15q-29 -17 -81 -17q-53 0 -90 29q-41 32 -41 85q0 126 193 240
q127 75 285 75q71 0 148 -29q91 -35 121 -89q17 -30 29 -117l2 -359q-1 -13 -1 -26q2 -15 19 -21q5 0 17 -5q8 0 8 -8t-8 -9zM538 52q4 -53 -29 -53h-77q-16 3 -16 17q0 2 14 9t16 11q16 26 16 63l-1 223q21 12 77 18v-288zM559 557q-20 -20 -20 -51q0 -18 1 -55t1 -56
q-42 -2 -75 -15v98q3 27 -10 27q-1 0 -29 -12q-81 -35 -96 -81q-13 -42 -15 -67q1 13 1 -53v-190q0 -102 -37 -102h-91q-15 0 -15 9q0 3 10 6t31 13q21 14 23 33.5t4 38.5l-1 190q2 7 5 32q6 46 45 98q43 56 97 78q76 32 164 67q7 1 9 -2q1 -3 -2 -6zM656 324q0 -9 -7 -16
t-15 -7q-11 0 -15 6q-2 10 -11 28q-16 21 -70 23q-50 -3 -195 -69l-11 -5v18q16 9 42 23q108 54 191 54q41 0 69 -18q22 -14 22 -37z" />
    <glyph glyph-name="N" unicode="N" horiz-adv-x="622" 
d="M602 17q0 -17 -33 -19q-24 1 -48 1q-40 -4 -53 35q-8 23 -8 76q0 37 12 110.5t12 111.5q0 265 -248 265q-60 0 -121 -40q-67 -44 -67 -101q0 -16 12 -28t29 -12q21 0 102 50q91 55 115 64q5 3 9 3q10 0 10 -11q0 -8 -6 -11t-45 -25l1 -255l-66 -20v209q1 35 0 34
q-23 -15 -46 -31q-46 -28 -77 -28q-27 0 -44.5 19t-17.5 48q0 76 106 139q94 56 176 56q102 0 176 -63q78 -67 78 -167q0 -42 -23.5 -123.5t-22.5 -124.5q1 -68 44 -118zM407 281q0 -48 -93 -78q-86 -25 -173 -50q-93 -35 -93 -95q0 -25 23 -39q19 -13 46 -13q58 0 79 39
q14 27 14 90v19q24 7 69 19q-1 -12 1 -38q1 -2 8.5 -15t7.5 -15q0 -24 -58 -69q-65 -53 -126 -48q-32 2 -57 20q-28 20 -28 49q0 68 89 106q14 6 164 49q89 25 89 60q-6 12 -4 26q5 7 16 10q10 0 18 -8.5t8 -18.5z" />
    <glyph glyph-name="O" unicode="O" horiz-adv-x="563" 
d="M505 341q1 -110 -46 -214q-57 -127 -149 -127h-73q-76 0 -89 4q-58 18 -99 119q-34 86 -34 159q0 80 48 179q54 114 120 111l21 -1l-4 -13l-20 2q-20 2 -56 -36q-52 -55 -67 -154q-2 -12 -2 -25q0 -101 79 -207q84 -114 181 -114q65 0 100 84q28 64 28 139q0 130 -70 250
q-82 141 -205 141q-37 0 -67 -21q-34 -24 -34 -60q0 -21 9 -34l-13 -22q-16 34 -16 54q0 99 136 99q13 0 28 -1q36 1 113 -2q75 -9 132 -125q48 -100 49 -185zM352 244q0 -15 -11.5 -30.5t-26.5 -15.5q-6 0 -14 6t-8 12q0 5 7 16.5t7 18.5q0 43 -48 88q-25 24 -93 70
q-55 37 -64 54l9 15q13 -14 41 -37q201 -121 201 -197z" />
    <glyph glyph-name="P" unicode="P" horiz-adv-x="624" 
d="M205 430q3 49 -19 49q-1 0 -3.5 -1t-4.5 -1q-7 0 -7 4q2 8 4 10q39 26 108 77v-22q0 -53 -2 -80q-2 -1 -5 -4q-23 -12 -71 -32zM588 472q0 -68 -51 -145q-43 -66 -107 -115.5t-148 -83.5l1 -46q1 -68 74 -68q15 0 47 3.5t46 3.5q35 1 35 -22l-21 -10q-61 16 -147 16
q-68 0 -170 -11q-6 -1 -9.5 4.5t-2.5 11.5q8 6 23 7q22 1 24 1q15 3 22 55v295l78 32v-251q104 55 156 113q70 76 70 175q0 76 -81 133q-74 51 -153 51q-252 0 -252 -136q0 -41 39 -68q34 -23 77 -23q41 0 114 38t112 38q32 0 54 -16.5t22 -48.5q0 -36 -24.5 -63.5
t-61.5 -27.5q-45 0 -41 20q-4 24 11 24q4 0 11 -2q4 0 13 -6t14 -6q25 0 42 17.5t17 42.5q0 21 -15.5 33.5t-37.5 12.5q-31 0 -110 -37.5t-127 -37.5q-52 0 -91 30q-42 32 -42 83q0 96 115 154q93 46 197 46q96 0 183 -59q95 -65 95 -157z" />
    <glyph glyph-name="Q" unicode="Q" horiz-adv-x="606" 
d="M502 302q0 -34 -14 -77.5t-34 -70.5l-22 24q10 39 10 81q0 132 -78 244q-87 123 -213 123q-39 0 -65 -20q-30 -22 -30 -60q0 -27 19 -51l-15 -13q-10 1 -17 27q-5 20 -5 35q0 67 55 93q41 20 121 20q14 0 68 -2q111 -3 172 -130q48 -100 48 -223zM587 55
q2 -19 -24.5 -53.5t-45.5 -34.5q-78 0 -134 132l-86 246q-55 132 -133 132q-101 0 -101 -146q0 -76 76 -184q80 -114 151 -114q24 0 42 9q4 2 35 25l11 -14q-3 -17 -37 -34.5t-54 -17.5q-131 0 -161 12q-39 16 -81 119q-38 95 -38 148q0 84 32 144q39 75 116 75
q63 0 117 -67q35 -44 82 -144q50 -104 70.5 -132t56.5 -60q43 -38 69 -43q4 -1 14.5 2t14.5 3q5 0 8 -3zM291 217q0 -14 -9 -26t-23 -12q-9 0 -20 6.5t-11 14.5q0 3 9.5 12.5t9.5 23.5q0 40 -69 119q-53 59 -72 72l14 9q52 -44 102 -102q69 -78 69 -117z" />
    <glyph glyph-name="R" unicode="R" horiz-adv-x="574" 
d="M514 503q0 -45 -27 -88.5t-66 -70.5q-8 9 -20 31q34 51 34 97q0 70 -49.5 115t-120.5 45q-78 0 -154 -36q-92 -45 -92 -115t107 -70q50 0 125 36q85 41 85 84q0 11 -8.5 19t-19.5 8q-39 0 -50 -30q-3 -7 -8 -59q-36 -25 -75 -34l-1 24q0 10 2 41q20 22 63 51q49 33 71 33
q44 0 44 -49q0 -58 -90 -103q-77 -39 -141 -39q-42 0 -79 21q-45 24 -45 62q0 80 116 140q99 50 188 50q90 0 145 -35q66 -42 66 -128zM590 30q0 -8 -32 -38t-43 -30q-31 0 -71 79q-22 44 -66 158q-38 97 -52 115.5t-53 14.5q0 1 -1 3t-1 3q0 6 34.5 28.5t41.5 22.5
q34 0 75 -93q35 -85 71 -171q46 -90 95 -85q2 -4 2 -7zM332 0q-4 -4 -13 -1q-13 4 -14 4l-105 3q-20 1 -53 -4t-49 -5h-16v11q10 6 37.5 9t38.5 12q16 13 17 48q4 215 0 308q8 4 12 4q11 0 30.5 9t28.5 10l4 -4q1 -11 0 -29q-1 -23 -1 -30v-44q6 -10 13 -8l49 12q6 1 10 -11
q-5 -4 -42 -15q-32 -10 -32 -21v-123v-61q-1 -28 16 -40q11 -7 37 -11.5t33 -10.5z" />
    <glyph glyph-name="S" unicode="S" horiz-adv-x="464" 
d="M381 390q0 -45 -36 -71q-26 -20 -79 -32l-82 -16q-14 -3 -65 -20q-2 -6 -2 12q22 13 93 26q76 14 105 28q49 23 49 68q0 41 -31.5 65.5t-73.5 24.5q-11 0 -30.5 -6t-27.5 -6l-8 8q1 17 61 17q51 0 86 -22q41 -27 41 -76zM287 151q0 -31 -48 -31q-64 0 -113 63
q-46 58 -46 124q0 30 1 37q5 21 25 47l10 -8q-21 -35 -21 -68q0 -61 35 -113q39 -59 97 -59q20 0 32 11t15 11q13 0 13 -14zM456 183q0 -75 -71 -138t-146 -63q-74 0 -146 42q-84 47 -84 116q0 32 21 65t50 41q4 -7 8 -15q0 2 -21 -26.5t-21 -64.5q0 -67 69 -106
q57 -32 130 -32q56 0 99.5 40t43.5 95q0 51 -24 87q-21 30 -68 59q17 0 43 15q23 14 36 28q81 -49 81 -143zM399 596q0 -21 -67 -69l-5 4l1 11q3 32 -39 50q-33 15 -71 15q-33 0 -58 -14q-31 -17 -31 -47q0 -46 83 -109q14 -11 124 -81q-4 -17 -32 -29q-23 -11 -44 -11
q-28 0 -95.5 53.5t-74.5 81.5q-5 19 -5 37q0 74 64 124q59 46 136 46q29 0 68 -17q46 -20 46 -45z" />
    <glyph glyph-name="T" unicode="T" horiz-adv-x="585" 
d="M539 575q-114 -58 -160 -95q-77 -63 -102 -152h-6l-7 2q21 124 165 209q-16 -2 -92 33q-79 37 -106 37q-66 0 -116 -23q-37 -18 -101 -69l-9 14q2 11 48 44q53 39 111 64q73 31 131 29q42 -2 122 -43q76 -40 121 -38zM411 182q0 -27 -19.5 -45.5t-46.5 -18.5
q-47 0 -74 47q-23 42 -23 106l22 -5q-4 -34 9 -72q19 -54 66 -59q17 -2 31.5 13.5t14.5 33.5q0 40 -52 70l-98 48q-52 30 -52 70q0 32 27.5 55t64.5 23q9 0 17 -1q-2 -5 -6.5 -9.5t-4.5 -7.5q-38 -7 -49 -13q-23 -12 -23 -46t51 -60q47 -24 94 -47q51 -33 51 -82zM545 224
q0 -94 -79.5 -164t-173.5 -70q-116 0 -186 79q-68 76 -68 193q0 93 59 186q65 103 159 125l6 -6q-94 -50 -130 -122q-32 -63 -32 -174q0 -90 74 -155t180 -65q66 0 102 54q30 46 30 116q0 71 -36.5 123.5t-103.5 76.5l14 11q70 -1 129 -70q56 -66 56 -138z" />
    <glyph glyph-name="U" unicode="U" horiz-adv-x="501" 
d="M313 224q0 -45 -18 -80q-23 -43 -65 -43t-72 55q-25 46 -25 91q0 44 19 105q21 65 48 93l9 -20q-54 -116 -54 -168q0 -45 16 -82q20 -47 59 -47q32 0 49 35q14 28 14 64q0 62 -56 174.5t-56 160.5q0 32 19 62q22 35 52 35q10 0 19.5 -8.5t9.5 -18.5q0 -11 -9 -11
q-3 0 -10 3t-11 3q-24 0 -37 -17.5t-13 -42.5q0 -56 56 -168t56 -175zM445 78q-26 -35 -82.5 -61t-102.5 -26q-109 0 -181 93q-68 86 -68 197q0 45 16.5 132.5t16.5 130.5q0 37 -25 55q1 6 38 30t44 24q19 0 32 -29q11 -23 11 -44q0 -58 -31.5 -171.5t-31.5 -172.5
q0 -81 54 -150q57 -75 137 -75q48 0 66 33q12 24 12 78v302q0 102 1 81q-2 62 -12 62q-13 0 -52 -38q-33 -32 -46 -51l-7 11q93 121 208 173l8 -11l-17 -15v-510q4 -19 12 -48z" />
    <glyph glyph-name="V" unicode="V" horiz-adv-x="601" 
d="M312 626q0 -11 -10 -11q-3 0 -10.5 1t-10.5 1q-26 0 -26 -32q0 -19 16.5 -45l16.5 -26q0 1 -8 -14q-17 13 -31.5 40.5t-14.5 49.5q0 21 13.5 39.5t33.5 18.5q10 0 20.5 -6.5t10.5 -15.5zM554 478q0 -82 -44 -191q-40 -96 -96 -174q-90 -124 -117 -125q-5 12 -15 25
q-116 157 -121 164q-57 85 -83 160q-31 90 -31 202q0 10 -10.5 15.5t-10.5 11.5q112 101 130 101q5 0 9.5 -5t2.5 -9q-24 -61 -24 -142q0 -117 63 -237q46 -89 142 -203q151 151 151 353q0 48 -23 100q-29 63 -72 63q-39 0 -88 -92q-45 -82 -48 -130q-3 -46 14 -77
q17 -34 51 -34q60 0 60 68q0 59 -78 139l8 13q31 -22 59 -65q28 -46 32 -82q4 -44 -20 -68t-63 -24q-84 0 -84 123q0 51 66 171q71 130 122 130q55 0 90 -66q28 -55 28 -115z" />
    <glyph glyph-name="W" unicode="W" horiz-adv-x="766" 
d="M598 382q0 -35 -30 -80q-27 -41 -59 -64q-3 2 -11 15q17 15 33 29q19 18 27 36q16 36 16 49q0 29 -29.5 35.5t-29.5 16.5q0 24 30 24q22 0 37.5 -19t15.5 -42zM717 474q7 -80 -78 -279.5t-126 -203.5l-6 5v22q0 9 -56.5 113.5l-56.5 104.5l40 88q31 -57 56 -100
q59 -101 74 -109q37 60 69 150q35 99 35 160q0 60 -28 115q-34 66 -89 66q-29 0 -90 -51l-84 -72l-8 10q1 16 102.5 93.5t121.5 77.5q57 0 92 -69q26 -53 32 -121zM439 571q-7 -8 -18 -14q-29 25 -36 25q-18 0 -28 -26q-7 -20 -7 -42q0 -27 22 -66t22 -52q0 -3 -37 -97
q-78 121 -78 169q0 55 23 95q27 50 77 50q12 0 32 -15t28 -27zM462 493q0 -34 -37 -135q-29 -78 -56 -135q-11 -3 -21 3q0 -7 44.5 108t44.5 166q0 9 -1 16l20 12q6 -27 6 -35zM399 195q-4 -11 -23 -11q-59 0 -100 32q-45 34 -43 90q2 47 46 93q8 3 8 -20q-36 -48 -36 -78
q0 -32 30 -61.5t63 -33.5q17 0 47 -3zM349 170q-24 -60 -79 -173h-12q-62 88 -124 177q-58 84 -81 156q-29 88 -29 215q0 2 -9 5t-9 9q33 34 130 100l7 -10q-22 -75 -22 -179q0 -14 7 -73q5 -42 64 -166q62 -134 90 -136q16 34 46 81q4 -2 21 -6z" />
    <glyph glyph-name="X" unicode="X" horiz-adv-x="639" 
d="M378 353q-31 14 -90 44l8 15q0 32 97 103q80 59 131 82q18 8 51 26q-8 2 -12 2q-79 0 -135 -48q-6 0 -6 4v9q10 21 30 62h178q-3 -27 -32 -51q-139 -112 -220 -248zM603 72q0 -54 -38.5 -84.5t-93.5 -30.5q-52 0 -89 39t-37 91q0 30 17.5 57.5t45.5 27.5q16 -2 21 -25
q0 -17 -25 -32t-25 -49q0 -35 27 -60.5t62 -25.5q41 0 73 25.5t32 65.5q0 92 -137 183q-126 72 -253 144q-137 83 -137 156q0 49 25 80.5t73 31.5q57 0 98 -41t81 -41t40 -31q0 -20 -18.5 -32.5t-38.5 -12.5q-39 0 -65 34q-19 32 -37 65q-22 34 -52 34q-29 0 -54.5 -22
t-25.5 -51q0 -69 138 -149q127 -72 255 -145q138 -95 138 -202zM346 286q-46 -82 -63 -109q-38 -58 -81 -97q-24 -19 -71 -60l5 -1q22 0 71 26t52 26q0 -27 -30 -71h-39h-110q-10 0 -36 -6t-37 -6q-13 5 -5 18q1 5 7 6q4 1 13 0q9 -2 11 -2q12 0 24 8q48 24 85 84
q22 37 53.5 119.5t50.5 113.5q15 -2 52 -20q33 -17 48 -29z" />
    <glyph glyph-name="Y" unicode="Y" horiz-adv-x="583" 
d="M336 656q0 -21 -30 -34t-30 -30q0 -25 26 -49l-9 -18q-15 11 -42 36q-13 22 -13 46q0 33 17.5 57t48.5 24q32 0 32 -32zM538 565q0 -157 -133 -299q-101 -109 -269 -199q-16 -9 -34 -31q-19 -25 -19 -41q0 -45 47 -45q42 0 98 39q51 35 102 71q63 39 122 39
q32 0 54.5 -18.5t22.5 -50.5q0 -25 -12 -49q-15 -28 -37 -28l-10 2q0 39 -9.5 51.5t-46.5 12.5q-51 0 -148.5 -49t-131.5 -49q-85 0 -85 73q0 45 48 83q29 23 93 53q55 26 61 36q-102 188 -208 377q-27 8 -38 6q1 1 -5.5 3t-3.5 5q114 114 125 114q3 0 5.5 -3.5l2.5 -3.5
q-10 -26 0 -64q0 -9 87 -183q90 -182 110 -184q50 51 88 131q40 86 40 152q0 75 -34 75q-37 0 -83 -75q-43 -71 -43 -112q0 -13 7 -28q7 -18 18 -18q19 0 30 21q9 17 9 38q0 29 -25 70l11 13q48 -40 48 -75q0 -34 -16 -60q-19 -30 -51 -30q-26 0 -42 26q-14 21 -14 49
q0 63 81 164t137 101q21 0 37 -45q14 -38 14 -65z" />
    <glyph glyph-name="Z" unicode="Z" horiz-adv-x="642" 
d="M601 386q0 -86 -123 -160q-111 -66 -206 -66q-65 0 -111 18q-65 25 -65 79q0 60 50 98q45 34 107 36l41 1q55 92 102 140q52 54 135 99q-1 3 -8 1l-11 -2q-88 0 -175 -22q-96 -25 -158 -70q-27 67 -91 115h446q25 0 35.5 5.5t16.5 5.5q14 0 14 -7q0 1 -13.5 -11
t-18.5 -22q-37 -44 -68 -83q-73 -94 -104 -147q14 -1 39 -1q58 0 71 -6q-1 -84 -159 -77q-16 -26 -80 -115l-73 14q-7 -5 64 105l-46 1q-35 1 -63 -15q-34 -19 -34 -52q0 -36 72 -55q50 -13 101 -13q77 0 177 61q110 66 110 136q0 59 -51 59q-9 0 -19 -3l-10 11q0 20 32 20
q30 0 52 -24t22 -54zM566 36q-9 -10 -100 -80q-9 10 -27 27q-45 36 -146 36q-45 0 -137 -16t-126 -16q-3 0 -5 3t-5 4q0 7 41 45q48 45 54 52l55 68q19 -7 77 -17q1 -14 -41 -46q-27 -21 -55 -41l3 -3q148 46 219 46q47 0 108 -25q57 -23 83 -20q13 -4 2 -17z" />
    <glyph glyph-name="bracketleft" unicode="[" horiz-adv-x="858" 
d="M782 405q0 -69 -57.5 -125t-127.5 -56q-102 0 -186 87l-126 162q-70 87 -138 87q-31 0 -59 -12q-36 -16 -36 -43q0 -6 5 -7q4 -1 12 1t9 2q41 0 41 -34q0 -18 -15.5 -31.5t-33.5 -13.5q-22 0 -37 24q-14 21 -14 44q0 56 59 95q52 35 111 35q122 0 180 -86q21 -31 62 -159
q27 -86 76 -86q67 0 67 74q0 10 -4.5 30.5t-4.5 30.5q0 27 20 46.5t47 19.5q14 0 27 -6q17 -8 13 -21q-16 4 -13 4q-13 0 -22 -8t-7 -20q9 -54 9 -65q0 -42 -24 -68q-17 -19 -60 -42l3 -3q30 -6 33 -6q54 0 104.5 49t50.5 103q0 67 -66 113q-59 41 -130 41q-49 0 -76 -9
q-32 -10 -67 -41l-8 32q-3 12 60 33t90 21q91 0 159 -50q74 -55 74 -142zM888 180q0 -63 -93 -108q-85 -41 -189 -43q-127 -3 -220 77q-97 83 -97 210q0 16 5 48q6 36 11 47q4 0 28 -27q-16 -30 -16 -49q0 -75 62 -108q58 -19 118.5 -39t60.5 -65q0 -24 -23 -41
q9 -13 45 -14q-10 0 47 0q47 0 104 18q65 21 89 51q-40 12 -40 50q0 23 17.5 38t40.5 15q22 0 36 -18.5t14 -41.5z" />
    <glyph glyph-name="backslash" unicode="\" horiz-adv-x="417" 
d="M225 366q2 -11 15 -41q11 -25 11 -43q0 -31 -30 -73q-33 -47 -71 -53q10 24 10 33t-11.5 28t-11.5 33t9 35.5t20 21.5q12 0 23.5 -14t16.5 -14q8 0 8 13q0 9 -12 34.5t-14 37.5q-43 3 -89 31q-54 33 -54 72q0 21 17 21t23 -18q2 -7 9 -19q30 -43 94 -47q8 50 44.5 81.5
t88.5 31.5q51 0 51 -38q0 -47 -53 -79q-41 -25 -94 -34zM322 480q-35 0 -62 -21t-34 -54q37 7 67 23q39 20 39 45q0 7 -10 7z" />
    <glyph glyph-name="bracketright" unicode="]" horiz-adv-x="910" 
d="M133 405q0 -69 57.5 -125t127.5 -56q102 0 187 87l126 162q69 87 137 87q31 0 59 -12q36 -16 36 -43q0 -6 -5 -7q-4 -1 -12 1t-9 2q-41 0 -41 -34q0 -18 15.5 -31.5t33.5 -13.5q22 0 37 24q14 21 14 44q0 56 -59 95q-52 35 -111 35q-122 0 -180 -86q-21 -31 -62 -159
q-27 -86 -76 -86q-67 0 -67 74q0 10 5 30.5t5 30.5q0 27 -20.5 46.5t-47.5 19.5q-14 0 -27 -6q-17 -8 -13 -21q16 4 13 4q13 0 22 -8t7 -20l-9 -65q0 -42 24 -68q17 -19 60 -42l-3 -3q-30 -6 -33 -6q-54 0 -104 49t-50 103q0 67 66 113q59 41 129 41q49 0 76 -9
q32 -10 67 -41l8 32q3 13 -60 33.5t-90 20.5q-91 0 -158 -50q-75 -55 -75 -142zM27 180q0 -63 93 -108q85 -41 189 -43q128 -3 221 77q97 83 97 210q0 15 -5.5 49.5t-11.5 45.5q-4 0 -28 -27q16 -30 16 -49q0 -75 -62 -108q-58 -19 -117 -38q-62 -21 -62 -66q0 -23 24 -41
q-10 -13 -46 -14q10 0 -47 0q-47 0 -104 18q-64 21 -89 51q40 12 40 50q0 23 -17.5 38t-40.5 15q-22 0 -36 -18.5t-14 -41.5z" />
    <glyph glyph-name="asciicircum" unicode="^" horiz-adv-x="257" 
d="M171 801l104 -106h-27l-102 56l-102 -56h-27l105 106h49z" />
    <glyph glyph-name="underscore" unicode="_" horiz-adv-x="441" 
d="M-1 -71h473v-30h-473v30z" />
    <glyph glyph-name="grave" unicode="`" horiz-adv-x="307" 
d="M304 674l-141 70q-22 11 -22 34q0 33 32 33q24 0 41 -18l115 -121z" />
    <glyph glyph-name="a" unicode="a" horiz-adv-x="490" 
d="M331 284q0 -5 -18 -23q-22 -22 -23 -24q-31 -41 -31 -52q0 -2 19.5 -39t19.5 -59q0 -18 -9 -32q-10 -17 -28 -17q-21 0 -33 24q-9 19 -9 41q0 29 9 52q1 3 6 15t5 13q-43 71 -42 83q2 1 8 1q7 -1 7 -3q3 -14 35 -61q26 36 26 41q0 18 -31 29q-24 8 -47 8q-6 0 -16 -2
t-15 -2q-8 0 -8 20q38 24 86 24q21 0 52 -10q37 -12 37 -27zM273 418q-3 -10 -15 -11q-24 -1 -28 -2q-22 -6 -26 -69l-13 -4q0 26 6 45q14 47 52 55q8 2 17 -3t7 -11zM461 12q0 -12 -20 -12h-90q-16 9 -16 18q0 4 4 15t4 16v337q0 11 -5 43q-11 71 -90 69q-23 -1 -48.5 -17
t-39.5 -36q-31 -44 -31 -96q0 -40 34 -137t34 -135q0 -57 -24 -69q-19 -10 -39 -10q-30 0 -48 4q-31 7 -53 46q-20 35 -20 67q0 73 54 121q3 -3 3 -14q0 5 -21.5 -28t-21.5 -65q0 -29 14 -62q18 -41 43 -41q17 0 28 21q8 17 8 36q0 25 -15 69q-19 56 -21 68q-6 29 -6 65
q0 23 9.5 60.5t20.5 57.5q22 40 60 75q45 40 84 45q31 4 41 4q-4 0 20 -4q44 -7 73 -43t29 -78v-32l-1 -296q0 -7 2 -28q1 -11 23 -19.5t22 -14.5zM281 91q0 18 -11 40q-11 18 -21 36q-11 -16 -11 -46q0 -63 20 -65q23 -2 23 35z" />
    <glyph glyph-name="b" unicode="b" horiz-adv-x="483" 
d="M441 193q0 -93 -83 -158q-77 -60 -179 -64q-24 -1 -46 6q-30 9 -34 10q-10 1 -18 -26l-16 13l12 24q-66 43 -63 120q2 62 68 115q48 39 171 101q95 48 95 70q0 48 -61 72q-46 18 -104 18q-45 0 -100 -29q-62 -32 -62 -72q0 -10 8.5 -18.5t19.5 -8.5q27 0 89 50.5t80 50.5
v-12q-24 -5 -22 -18l-1 -111q-19 -7 -64 -36v104q-15 -12 -28 -21q-32 -21 -49 -22q-50 -2 -50 40q0 61 82 104q71 36 142 36q60 0 121 -26q74 -33 74 -81q0 -10 -58 -45q-36 -21 -73 -43q1 -1 4 -1q59 0 102 -43.5t43 -98.5zM380 167q0 48 -45 84.5t-96 36.5
q-61 0 -134 -58.5t-73 -115.5q0 -25 18 -59q20 -38 44 -39q8 7 39 30v177q19 20 66 39v-180q28 15 77 43q7 5 18 25q9 17 16 17q16 0 16 -19q0 -17 -94 -70q-103 -59 -115 -75q23 -12 58 -11q80 2 142.5 52t62.5 123z" />
    <glyph glyph-name="c" unicode="c" horiz-adv-x="465" 
d="M264 176q0 -32 0 -31q-2 -24 -17 -24q-37 0 -68.5 34t-31.5 69q-1 86 75 125q5 -19 1 -21q-56 -31 -56 -100q0 -25 19 -52q21 -31 46 -31q7 0 7 26q4 129 1 190q-1 11 -7 39.5t-6 29.5q0 6 7.5 12t14.5 6q9 0 15 -46v-226zM428 132q-1 -57 -60 -98q-54 -38 -116 -38
q-104 0 -175 77q-67 74 -67 173q0 107 70 191q75 91 185 91q43 0 92 -23q57 -27 57 -63q0 -9 -58 -38q-65 -33 -74 -41q-3 8 -3 23q13 11 59 39q-9 28 -50 44q-35 13 -73 11q-75 -4 -119 -61q-38 -50 -38 -121q0 -84 58 -160q63 -82 149 -82q47 0 92 19q55 24 56 63q2 3 6 6
z" />
    <glyph glyph-name="d" unicode="d" horiz-adv-x="518" 
d="M466 309q0 -121 -84 -216q-93 -104 -232 -104q-58 0 -94 24q-41 26 -41 74t80 77q74 25 149 49q80 37 80 104q0 23 -16 42.5t-39 19.5q-62 0 -62 -86q0 -56 1 -47l1 -27q-15 -7 -59 -16v120q0 35 34 59q31 22 70 22t64 -23.5t25 -60.5q0 -81 -79 -121q-12 -6 -147 -46
q-79 -23 -79 -66q0 -36 30 -58q27 -20 68 -20q10 0 13 30q3 21 2 59q-2 60 -2 48q51 15 60 14q-1 6 -1 -86q0 -53 12 -53q69 0 133 90q57 83 57 150q0 95 -52 152q-55 60 -153 60q-58 0 -116 -32q-65 -37 -65 -87q0 -45 34 -58l22 3l14 -10q-2 -16 -25 -16q-30 0 -48 27
q-15 24 -15 54q0 69 75 124q70 51 147 51q104 0 171 -63t67 -157z" />
    <glyph glyph-name="e" unicode="e" horiz-adv-x="479" 
d="M432 506l-2 -10q-24 -21 -80 -143l-16 3q37 69 37 83q0 17 -38 33q-33 14 -54 14q-49 0 -69.5 -21t-20.5 -68l1 -183l-17 -2q-12 -1 -42 4l-1 145q0 72 64 121q60 45 140 45q15 0 44 -8.5t45 -8.5q3 0 9 -4zM410 290q0 -8 -50 -58h-6q-2 16 -11 42q-36 45 -138 49v20
q38 10 78 7q30 -2 74 -18q53 -20 53 -42zM318 277l-22 -34q-19 -26 -43 -41q-32 -20 -76 -20q-43 0 -75 16q-41 19 -41 55q0 37 48 62v-14q-33 -31 -33 -49q0 -52 102 -52q57 0 93 37q17 23 33 47zM471 69q-65 -78 -77 -78q-60 35 -136 35q-40 0 -113.5 -20t-109.5 -20
q-14 0 -29 7q-18 8 -18 20q0 23 30 35q25 7 49 15q32 15 47 45q9 20 15 62l61 -6v-9q0 -46 -47 -75q-21 -12 -88 -34q-47 -16 -47 -31q0 -6 10 -10.5t18 -4.5q25 0 132 44t168 44q50 0 106 -25l24 11z" />
    <glyph glyph-name="f" unicode="f" horiz-adv-x="504" 
d="M471 461q0 -1 -26 -29q-29 -29 -33 -36q-83 -122 -83 -221q0 -5 4 -22q3 -13 3 -15q0 -9 -9 -9q-11 0 -17 10t-5 19l20 103q-2 19 -32 30q-24 9 -45 8q-25 -2 -27 -9v-197q0 -13 2 -37q3 -33 21 -33h95q84 0 84 -22q0 -11 -12 -11q-1 0 -14 4t-18 5q-64 11 -109 11
q-30 0 -150 -13q-11 0 -11 7q0 4 6 8l20 6q14 6 18 15q10 24 7 37v207q-9 0 -29.5 -2l-20.5 -2q-38 0 -69.5 26t-31.5 62q0 61 83 113q88 55 192 55q111 0 179 -61zM404 421q0 8 -7.5 14.5t-15.5 12.5q-53 48 -133 48q-52 0 -109 -20q-47 -17 -78 -47q-34 -34 -34 -71
q0 -26 24 -45.5t56 -19.5q27 0 53 8v39t-5 52q-3 5 -15 13l81 52q1 -18 -1 -135q36 18 51 18q22 0 47.5 -6.5t22.5 -6.5q8 0 9 4q54 86 54 90z" />
    <glyph glyph-name="g" unicode="g" horiz-adv-x="459" 
d="M257 360l-16 -10q-6 50 -56 50q-31 0 -46.5 -21.5t-15.5 -51.5q0 -40 36 -61q29 -17 74 -16v-14h-22q-40 0 -72 28.5t-32 66.5q0 34 20.5 57t56.5 25q28 2 49 -14.5t24 -38.5zM404 111q0 -25 -71 -71.5t-103 -46.5q-94 0 -163 93q-63 85 -59 175q5 120 71 194.5t172 74.5
q32 0 81 -19q58 -22 58 -47q0 -37 -73 -93t-116 -56q-31 0 -31 16l13 10q4 0 15.5 -2.5t16.5 -2.5q32 0 70.5 25t38.5 53q0 31 -34.5 57t-67.5 26q-80 0 -123 -67q-36 -55 -36 -136q0 -80 62 -163q67 -91 148 -91q58 0 58 56l-1 182q-18 -14 -58 -34l-2 13q58 33 69 40
q39 23 64 46l5 -11q-14 -17 -14 -25l1 -169q0 -4 4.5 -13t4.5 -14zM260 114l-8 -10q-7 0 -7 8v201l16 11q-1 -23 -1 -210z" />
    <glyph glyph-name="h" unicode="h" horiz-adv-x="511" 
d="M471 503q0 -12 -71 -57q-3 0 -5 4q6 10 6 16q0 14 -30 25q-23 8 -42 8q-54 0 -108 -48q-6 2 -5 10q2 19 58 52q62 37 110 37q24 0 53 -12q34 -15 34 -35zM455 231q0 -125 -109.5 -235.5t-240.5 -110.5q-40 0 -75 11q-49 16 -49 46q0 48 69 62q28 5 105 5q48 0 90 14
q57 20 57 56q0 32 -34 32q-39 0 -130 -66l-7 1v422q-55 -29 -66 -35q-46 -29 -46 -51t36 -22q23 0 63 21v-11q-36 -26 -73 -26q-49 0 -47 47q2 31 87 72q99 47 116 70l7 -7q-3 -11 -7 -33v-196l143 99q65 -45 82 -66q29 -37 29 -99zM391 191q0 41 -28 85q-32 49 -73 49
q-24 0 -87 -50v-174q32 22 65 22q53 0 53 -43q0 -57 -80 -73l-148 -14q-80 -9 -80 -47q0 -23 32 -37q25 -11 53 -11q124 0 210 89q83 87 83 204z" />
    <glyph glyph-name="i" unicode="i" horiz-adv-x="306" 
d="M257 504q-48 -3 -65 -22q-7 -9 -11 -32v-142q-1 -28 0 -32q43 -31 52 -41q24 -26 24 -66q0 -21 -6 -41q-9 -26 -26 -26q-20 0 -20 19q0 7 14.5 20.5t14.5 33.5q0 21 -14.5 42.5t-35.5 31.5v-163q0 -57 53 -65q8 0 17 -1.5t9 -8.5q0 -13 -23 -12l-91 3q-53 -1 -110 -2
q-8 4 -2 10q2 3 23 7t32 16q15 16 17 26q1 3 1 32v187q-37 29 -74 59q-27 29 -27 87q0 34 38 78l-14 15q1 8 20 5q118 -9 203 0q12 0 12 -7q0 -10 -11 -11zM110 335l1 116q0 42 -31 42q-21 0 -35.5 -24.5t-14.5 -46.5q0 -59 51 -97l29 -21v31z" />
    <glyph glyph-name="j" unicode="j" horiz-adv-x="396" 
d="M396 269q0 -9 -5 -26q-3 -10 -28.5 -28.5t-36.5 -18.5v19l25 13t25 29t-18 26v7q6 6 13 6q25 0 25 -27zM312 150q0 -62 -11 -83q-77 -145 -204 -152q-29 -2 -51 10q-31 17 -31 56q0 61 82 138t142 79q0 -6 -2 -20q-51 -5 -117 -62q-79 -68 -79 -144q0 -17 16 -28t36 -11
q63 0 112 72q45 66 45 132l2 287q5 77 -26 73q-41 -5 -49 -5q-53 0 -53 24q-5 10 14 12q12 -7 24 -13.5t27 -6.5q78 0 123 39q7 5 9 -4q-5 -23 -9 -77v-316z" />
    <glyph glyph-name="k" unicode="k" horiz-adv-x="577" 
d="M509 474q0 -61 -116 -145q-5 0 -5 10q0 -1 25 33t25 64q0 44 -35 44q-5 0 -20 -3t-20 -3q-4 0 -4 7q0 2 51 28t55 26q18 0 31 -21.5t13 -39.5zM618 -74l-5 -2q-97 36 -175 136q-49 64 -102 172q-43 91 -54 96v7q25 14 75 44q5 5 15 -41q13 -56 35 -102q67 -139 83 -165
q44 -70 128 -141v-4zM297 274q-74 -31 -165 -31q-52 0 -92 32.5t-40 79.5q0 71 64.5 127t142.5 56q26 0 49 -14t23 -38q0 -15 -10 -31q-14 -25 -16 -29q-10 -25 -10 -55v-79q-15 -9 -66 -15v70q0 25 -22 25q-4 0 -14 -1t-15 -1q-18 0 -18 10q0 8 41 12q34 3 70 31
q40 30 40 60q0 40 -49 40q-67 0 -130 -52.5t-63 -114.5q0 -47 41 -74q36 -24 87 -24q58 0 146 26zM318 -4q-16 0 -51.5 3t-52.5 3q-19 0 -57 -4t-56 -4q-6 0 -9 4q-2 5 1 8q13 7 34 8h11q20 0 28 9q11 13 11 51v150q24 6 66 14v-124q0 -82 20 -93q7 -4 30 -5t32 -10
q6 -10 -7 -10z" />
    <glyph glyph-name="l" unicode="l" horiz-adv-x="471" 
d="M454 490q0 -8 -20.5 -31.5t-27.5 -23.5q-1 0 -19.5 14t-50.5 14q-27 0 -55 -13q-6 -2 -50 -27q0 8 3 17q35 28 71 55q42 31 84 31q19 0 40 -9q25 -11 25 -27zM449 51l-52 -56q-27 18 -44 22.5t-53 4.5t-105.5 -13.5t-102.5 -13.5q-35 0 -35 20q0 15 45 48.5t45 59.5v320
q0 18 -16 18q-20 0 -55 -20.5t-37 -36.5q-2 -20 38 -20q24 0 57 18v-16q-25 -18 -62 -18q-20 0 -38 8q-23 11 -23 28q0 48 210 123q8 3 9 -1q2 -2 -2 -6q-13 -9 -13 -37v-350q0 -32 -63 -67t-63 -39q-7 -7 6 -11q38 1 122 36.5t132 35.5q21 0 57 -11q42 -12 43 -26z" />
    <glyph glyph-name="m" unicode="m" horiz-adv-x="729" 
d="M694 1h-62h-55q-12 0 -12 9q0 7 12 9t15 12l6 20q1 48 0 237q0 134 -77.5 165t-162.5 31q-101 0 -183 -31q-51 -19 -96 -65q-50 -50 -50 -92q0 -40 36 -64q33 -21 78 -21q26 0 39 2q2 -2 2 -11q-25 -14 -69 -14q-45 0 -76 23q-35 25 -35 68q0 102 163 192q109 60 242 60
q61 0 127 -23q77 -28 102 -71q15 -26 25 -94l2 -287q-1 -11 -1 -21q1 -12 16 -16q4 0 14 -5q8 0 8 -6t-8 -7zM457 42q3 -42 -24 -42h-66q-14 2 -14 13q0 1 12 7t14 9q14 22 14 50l-1 179q19 9 65 14v-230zM476 445q-18 -15 -18 -41q0 -14 1 -44v-44q-34 -2 -63 -12v79
q2 21 -9 21q-4 0 -24 -10q-67 -25 -80.5 -64.5t-13.5 -96.5l1 -152q1 -81 -32 -81h-78q-12 0 -12 7q0 -1 7 6q9 2 27 9q18 12 20 27.5t4 30.5l-1 152q1 2 4 26q5 37 40 80.5t81 60.5q65 25 139 53q6 1 8 -2q1 -2 -1 -5zM558 259q0 -18 -19 -18q-10 0 -12 4q-2 8 -10 23
q-13 16 -60 18q-70 -3 -165 -55l-10 -4v15l36 18q62 29 121 39q64 11 100 -10q19 -11 19 -30z" />
    <glyph glyph-name="n" unicode="n" horiz-adv-x="547" 
d="M511 13q0 -14 -27 -15q-21 1 -41 1q-34 -3 -45 28q-7 18 -7 61q0 29 10.5 88.5t10.5 89.5q0 211 -212 211q-51 0 -102 -32q-58 -35 -58 -80q0 -13 10.5 -22.5t24.5 -9.5q19 0 87 40q78 44 98 51q5 2 8 2q8 0 8 -8q0 -7 -5 -9.5t-38 -19.5l1 -204l-56 -16v167q1 28 0 27
q-20 -12 -39 -25q-39 -22 -66 -22q-23 0 -37.5 15t-14.5 39q0 60 90 111q80 45 149 45q86 0 151 -52t65 -132q0 -34 -20 -99t-19 -100q1 -55 37 -95q19 -17 37 -35zM346 224q0 -38 -79 -62q-73 -20 -147 -40q-79 -27 -79 -75q0 -20 19 -32q16 -10 39 -10q50 0 67 31
q12 21 12 72v16q21 6 59 15q-1 -10 1 -31q0 -2 6.5 -12t6.5 -12q0 -19 -49 -56q-56 -42 -107 -38q-27 2 -48 16q-24 16 -24 40q0 54 75 85q14 5 141 39q75 19 75 47q-5 12 -3 22q3 4 13 7q22 0 22 -22z" />
    <glyph glyph-name="o" unicode="o" horiz-adv-x="483" 
d="M429 272q1 -88 -39 -171q-48 -101 -126 -101h-62q-63 0 -76 4q-49 15 -84 95q-29 68 -29 127q0 63 40 141q47 90 103 90h17l-3 -10l-17 1q-39 2 -75 -67q-31 -62 -31 -105q0 -81 67 -165q72 -91 154 -91q55 0 85 67q24 51 24 111q0 103 -60 200q-70 113 -174 113
q-31 0 -57 -18q-29 -19 -29 -48q0 -18 7 -27l-10 -17q-14 25 -14 43q0 87 139 78q31 2 97 -1q64 -7 111 -101q41 -80 42 -148zM299 195q0 -12 -9.5 -24.5t-22.5 -12.5q-6 0 -12.5 5t-6.5 10q0 3 6 12.5t6 15.5q0 34 -40 70q-22 19 -80 56q-47 30 -54 44l7 11q11 -11 35 -29
q171 -98 171 -158z" />
    <glyph glyph-name="p" unicode="p" horiz-adv-x="542" 
d="M175 344q0 39 -17 39q-1 0 -3.5 -1t-3.5 -1q-6 0 -6 3q0 5 4 9q33 21 91 61q1 -5 1 -17q0 -43 -2 -65l-4 -2q-20 -10 -60 -26zM500 377q0 -54 -43 -115q-37 -52 -90 -92q-57 -42 -127 -67v-37q0 -55 62 -55q13 0 40.5 3t39.5 3q30 1 30 -17l-18 -9q-51 13 -125 13
q-59 0 -144 -9q-5 -1 -8 4t-2 9q7 5 19 5l21 1q13 3 18 44v236l67 26v-201q192 96 192 231q0 60 -69 106q-63 41 -130 41q-214 0 -214 -109q0 -33 33 -54q29 -19 65 -19q35 0 97 30.5t95 30.5q65 0 65 -52q0 -29 -21 -51t-52 -22q-38 0 -35 16q-2 13 1.5 17t17.5 1
q3 -1 11 -5.5t12 -4.5q21 0 35.5 14t14.5 34q0 37 -45 37q-26 0 -93.5 -30t-108.5 -30q-44 0 -77 24q-36 26 -36 66q0 77 98 123q80 37 168 37q82 0 155 -47q81 -52 81 -126z" />
    <glyph glyph-name="q" unicode="q" horiz-adv-x="515" 
d="M427 241q0 -66 -41 -118l-19 20q9 32 9 64q0 105 -67 195q-74 99 -181 99q-33 0 -55 -16q-25 -18 -25 -48q0 -23 16 -41l-13 -10q-8 1 -14 21q-5 16 -5 28q0 90 151 90q10 0 56 -1q95 -3 147 -104q41 -80 41 -179zM499 44q1 -16 -21.5 -43.5t-37.5 -27.5q-67 0 -114 106
l-74 196q-47 106 -113 106q-85 0 -85 -117q0 -61 65 -147q68 -91 128 -91q20 0 35 8q4 2 30 20l9 -11q-2 -14 -31 -28t-46 -14q-112 0 -137 10q-32 13 -68 95q-33 76 -33 118q0 67 27 115q33 60 99 60q53 0 99 -54q30 -35 70 -114q42 -84 59 -106t49 -48q36 -31 58 -35
q4 -1 13 2t12 3q5 0 7 -3zM247 173q0 -11 -8 -20.5t-19 -9.5q-7 0 -16.5 5.5t-9.5 11.5q0 2 8 9.5t8 19.5q0 32 -59 95q-31 29 -61 58l12 7q45 -36 87 -82q58 -63 58 -94z" />
    <glyph glyph-name="r" unicode="r" horiz-adv-x="517" 
d="M437 403q0 -36 -23 -71.5t-56 -56.5q-9 10 -17 25q29 43 29 77q0 57 -42.5 92.5t-102.5 35.5q-66 0 -130 -29q-79 -35 -79 -91t91 -56q42 0 106 29q73 33 73 67q0 22 -24 22q-33 0 -43 -24q-2 -5 -7 -48q-30 -19 -63 -27l-1 19q0 7 2 33q18 18 54 41q42 27 60 27
q37 0 37 -40q0 -46 -77 -82q-65 -31 -119 -31q-36 0 -68 16q-38 19 -38 50q0 64 99 112q84 40 159 40q78 0 124 -28q56 -33 56 -102zM502 24q0 -6 -27.5 -30t-36.5 -24q-26 0 -61 63q-19 36 -56 126q-32 78 -44 93t-45 11q0 -2 -1 5q0 5 29 23t35 18q29 0 63 -75
q31 -68 61 -136q39 -72 81 -68q2 -4 2 -6zM282 0q-3 -3 -11 -1q-11 3 -12 3l-89 2q-16 0 -44.5 -3t-41.5 -3h-14l-1 9q25 5 51 9q28 8 29 46q2 178 0 246q51 17 61 18l2 -3q1 -9 0 -23q-1 -19 -1 -24v-35q7 -7 12 -6l41 9q6 1 9 -9q-4 -3 -36 -12q-27 -7 -27 -16v-99v-49
q-1 -22 14 -32q9 -6 31 -9.5t28 -8.5z" />
    <glyph glyph-name="s" unicode="s" horiz-adv-x="413" 
d="M324 312q0 -51 -62 -73q-5 -2 -106 -22q-18 -5 -55 -16q-1 -2 -1 10q19 10 79 20q64 11 88 23q42 18 42 54q0 32 -26.5 52t-62.5 20q-9 0 -25.5 -4.5t-23.5 -4.5l-7 5q1 14 52 14q44 0 73 -18q35 -21 35 -60zM244 121q0 -25 -41 -25q-54 0 -96 50q-39 47 -39 100
q0 25 1 29q3 16 21 38l8 -6q-17 -29 -17 -55q0 -49 29 -91q34 -47 83 -47q17 0 27 9t13 9q11 0 11 -11zM387 146q0 -59 -60 -110t-124 -51q-63 0 -124 34q-71 38 -71 93q0 26 17.5 52.5t42.5 32.5q4 -5 7 -12q0 2 -18 -21t-18 -52q0 -53 59 -85q49 -26 110 -26
q47 0 84.5 32.5t37.5 75.5q0 72 -78 117q14 1 35.5 12.5t31.5 22.5q68 -40 68 -115zM339 477q0 -17 -57 -55l-4 3v9q3 25 -33 40q-28 12 -60 12q-28 0 -50 -11q-26 -14 -26 -38q0 -37 71 -87q20 -15 106 -65q-4 -14 -25.5 -23t-39.5 -9q-24 0 -81 43t-63 65q-5 18 -5 29
q0 60 55 100q50 36 115 36q25 0 58 -14q39 -16 39 -35z" />
    <glyph glyph-name="t" unicode="t" horiz-adv-x="504" 
d="M458 460q-98 -48 -135 -76q-67 -51 -88 -122h-4l-6 2q18 99 140 167q-14 -2 -80 27t-89 29q-56 0 -98 -18q-32 -14 -86 -55l-8 11q3 17 83 61q93 51 164 48q36 -2 104 -34q64 -32 102 -31zM349 146q0 -21 -16.5 -36t-39.5 -15q-40 0 -63 38q-20 33 -20 84l19 -4
q-3 -28 8 -58q17 -43 56 -47q15 -1 27.5 11t12.5 27l-173 150q0 28 29 47.5t64 14.5q-2 -5 -5.5 -8.5t-3.5 -5.5q-32 -4 -42 -10q-19 -10 -19 -37t43 -48l80 -38q43 -26 43 -65zM463 179q0 -75 -67.5 -131t-147.5 -56q-98 0 -157 62t-59 156q0 74 50 149q56 82 136 99l4 -4
q-79 -40 -110 -98q-27 -50 -27 -139q0 -72 63 -124t153 -52q56 0 86 43q26 37 26 93q0 119 -119 160l12 9q59 -1 108 -55.5t49 -111.5z" />
    <glyph glyph-name="u" unicode="u" horiz-adv-x="434" 
d="M266 179q0 -36 -16 -64q-19 -34 -55 -34q-35 0 -60 44q-22 37 -22 73q0 35 17 85t40 73l8 -16q-46 -87 -46 -135q0 -36 13 -64q18 -38 51 -38q27 0 42 28q11 22 11 51q0 49 -47.5 139.5t-47.5 128.5q0 26 17 51.5t43 25.5q9 0 17 -6.5t8 -14.5q0 -10 -8 -10q-3 0 -9 3
t-9 3q-42 0 -42 -48q0 -45 47.5 -135t47.5 -140zM379 62q-23 -28 -71 -48.5t-87 -20.5q-92 0 -154 75q-58 69 -58 157q0 36 14 106t14 104q0 31 -21 44q1 6 32.5 25t37.5 19q16 0 27 -23q9 -19 9 -36q0 -46 -26.5 -137t-26.5 -138q0 -65 45 -120q49 -60 117 -60q41 0 56 26
q11 19 11 62v242q0 115 -10 115q-11 0 -44 -31q-29 -27 -39 -41l-6 9q78 96 176 139l7 -9l-14 -12v-409q3 -15 11 -38z" />
    <glyph glyph-name="v" unicode="v" horiz-adv-x="518" 
d="M266 500q0 -8 -9 -8q-2 0 -9 1h-10q-21 0 -21 -25q0 -15 14 -36l14 -21q0 2 -7 -11q-15 11 -27 33t-12 39t11 32t29 15q8 0 17.5 -5.5t9.5 -13.5zM471 382q0 -65 -38 -152q-33 -77 -81 -139q-76 -100 -100 -101q-4 10 -12 20q-120 153 -143 194q-57 101 -57 227
q0 9 -9 13t-9 9q98 81 111 81q4 0 8 -4t2 -8q-21 -49 -21 -113q0 -94 54 -190q39 -70 121 -162q128 122 128 282q0 39 -20 81q-24 50 -60 50q-34 0 -76 -73q-38 -66 -41 -105q-2 -37 12.5 -63t43.5 -26q51 0 51 54q0 46 -66 112l6 11q27 -18 51 -53.5t27 -65.5
q3 -34 -17.5 -53.5t-53.5 -19.5q-71 0 -71 99q0 40 56 136q60 104 103 104q47 0 77 -53q24 -44 24 -92z" />
    <glyph glyph-name="w" unicode="w" horiz-adv-x="663" 
d="M509 306q0 -28 -26 -65q-23 -33 -50 -50q-6 2 -10 11q14 12 29 25t22 27q14 28 14 39q0 24 -25 29.5t-25 12.5q0 20 26 20q18 0 31.5 -15.5t13.5 -33.5zM609 380q6 -64 -66 -224t-107 -163l-5 3v18q0 8 -48 91.5l-48 83.5l34 71q27 -46 48 -80q50 -81 62 -88
q32 47 59 120q30 79 30 128q0 48 -24 92q-29 53 -76 53q-24 0 -76 -41l-72 -58l-6 8q1 13 87 75t103 62q48 0 78 -55q22 -42 27 -96zM373 457q-4 -5 -15 -12q-25 21 -31 21q-15 0 -23 -21q-7 -16 -7 -33q0 -23 19 -53.5t19 -41.5q0 -3 -32 -78q-18 28 -36 55q-30 52 -30 81
q0 43 19 76q24 40 67 40q10 0 27 -12.5t23 -21.5zM393 394q0 -27 -32 -107q-25 -65 -47 -108q-10 -3 -18 2q0 -6 37.5 85t37.5 133q0 8 -1 14l18 9q5 -21 5 -28zM339 156q-3 -9 -19 -9q-50 0 -85 25q-39 28 -37 73q2 39 39 74q7 3 7 -16q-30 -38 -30 -62q0 -26 25.5 -50
t52.5 -27q14 1 40 -2q4 0 7 -6zM297 136q-21 -48 -68 -139h-10q-53 71 -105 142q-49 68 -69 125q-24 71 -24 172q0 2 -8 4.5t-8 6.5q28 26 111 80l6 -8q-19 -60 -19 -143q0 -4 6 -58q4 -33 54 -133q53 -108 76 -109q14 27 39 65q4 -1 19 -5z" />
    <glyph glyph-name="x" unicode="x" horiz-adv-x="548" 
d="M322 282q-26 12 -77 36l7 12q0 25 82 82q69 48 111 66q16 6 44 21q-1 0 -5 1h-5q-68 0 -115 -38q-6 0 -6 3v7q9 17 26 50h152q-3 -22 -28 -41q-121 -92 -186 -199zM513 57q0 -43 -33 -67.5t-80 -24.5q-44 0 -75.5 31.5t-31.5 73.5q0 24 15 46t39 22q13 -2 17 -20
q0 -14 -21 -26t-21 -40q0 -27 23 -47.5t53 -20.5q34 0 61.5 20.5t27.5 52.5q0 73 -116 146q-108 58 -216 115q-116 67 -116 125q0 90 84 90q48 0 82.5 -33t70.5 -33q32 0 32 -25q0 -15 -15.5 -25.5t-32.5 -10.5q-33 0 -55 28q-16 25 -31 51q-19 28 -44 28t-47 -18t-22 -41
q0 -55 117 -119l218 -116q117 -76 117 -162zM294 229q-43 -71 -54 -87q-32 -47 -68 -78q-21 -15 -61 -48l5 -1q18 0 60 21t44 21q0 -23 -25 -57h-34h-93q-10 0 -32 -5t-30 -5q-11 5 -4 14q0 4 6 5q3 1 10 0q9 -1 10 -1q7 0 20 6q41 19 72 68q19 30 46 95.5t43 90.5
q37 -6 85 -39z" />
    <glyph glyph-name="y" unicode="y" horiz-adv-x="503" 
d="M286 525q0 -16 -26 -26.5t-26 -24.5q0 -20 23 -40l-8 -14q-13 8 -35 29q-11 17 -11 37q0 26 14.5 45t41.5 19t27 -25zM457 452q0 -126 -112 -240q-87 -88 -229 -159q-14 -7 -29.5 -25.5t-15.5 -31.5q0 -36 39 -36q36 0 84 31l86 58q54 31 104 31q27 0 46 -15.5t19 -40.5
q0 -20 -10 -39q-12 -22 -31 -22l-8 1q-1 32 -9 41.5t-39 9.5q-43 0 -126 -39t-112 -39q-72 0 -72 58q0 36 41 67q24 18 79 42q46 21 51 29q-87 150 -177 301q-21 7 -32 5q-6 2 -7 7q61 59 103 90q3 3 6.5 -1l3.5 -4q-10 -22 0 -51q40 -83 74 -146q76 -146 94 -148
q42 42 74 106q34 69 34 120q0 61 -29 61q-32 0 -70 -58.5t-38 -91.5q0 -10 6 -22q7 -15 16 -15q16 0 26 17q7 13 7 30q0 26 -21 57l10 10q40 -32 40 -60t-13 -48q-16 -24 -44 -24q-22 0 -36 21q-12 17 -12 39q0 50 69 131t117 81q18 0 32 -36q11 -29 11 -52z" />
    <glyph glyph-name="z" unicode="z" horiz-adv-x="549" 
d="M511 308q0 -68 -105 -127q-94 -53 -174 -53q-56 0 -95 14q-55 20 -55 64q0 47 42 78q39 29 91 29h35q47 74 86 113q45 43 115 79q-1 2 -7 1l-9 -2q-176 0 -283 -74q-23 54 -77 92h379q21 0 30 4.5t14 4.5q4 0 9 -2.5t2 -4.5q-20 -12 -26 -25q-31 -35 -58 -66
q-63 -75 -89 -118q12 -1 34 -1q50 0 60 -4q-1 -69 -135 -62q-14 -21 -68 -92l-62 11q-6 -4 55 85h-40q-30 0 -53 -12q-29 -15 -29 -41q0 -29 60 -44q42 -11 87 -11q65 0 151 49q93 53 93 108q0 48 -45 48q-7 0 -15 -2l-8 8q0 16 27 16q25 0 44 -19.5t19 -43.5zM481 28
q-7 -8 -85 -63q-8 7 -23 21q-38 29 -124 29q-38 0 -116.5 -12.5t-106.5 -12.5q6 0 -9 5q0 6 35 36q41 36 46 42l46 55q16 -6 66 -15q1 -11 -34 -37q-24 -16 -47 -32l2 -2q126 36 186 36q40 0 92 -20q48 -18 70 -15q13 -4 2 -15z" />
    <glyph glyph-name="braceleft" unicode="{" horiz-adv-x="1021" 
d="M1040 228q0 -20 -16.5 -37.5t-35.5 -17.5q-39 0 -54 48q10 30 9 33q-9 3 -11 3q-55 0 -84 -42q-25 -36 -25 -93q0 -4 8 -36q-66 -70 -142 -70q-233 0 -339 216l9 8q36 -38 71 -75t67 -52q41 -18 108 -18q71 0 131 51q48 47 96 95q57 51 119 51q33 0 59 -16q30 -18 30 -48
zM563 428q0 -47 -42 -47q-33 0 -33 30q0 16 -14 16q-16 0 -27 -13.5t-11 -29.5q0 -27 38.5 -54t38.5 -64q0 -24 -15.5 -42t-38.5 -18q-43 0 -69 35q-23 32 -23 77q0 56 37.5 102.5t92.5 46.5q21 0 41 -9q25 -11 25 -30zM340 417q0 -84 -84 -84q-38 0 -56 51q-14 46 -28 93
q-19 51 -58 51q-11 0 -22.5 -11.5t-18.5 -13.5l-6 8q3 31 38 51q31 17 65 17q60 0 115 -51t55 -111zM358 302q0 -3 -6.5 -12t-10 -10.5t-13.5 -1.5q-11 0 -21.5 9t-10.5 20q0 10 11 17.5t21 7.5q8 0 19 -11t11 -19zM347 189q0 -68 -69 -68q-50 0 -72 35q-15 32 -29 64
q-18 35 -57 35q-14 0 -29.5 -11t-15.5 -24q0 -9 20 -15.5t20 -29.5q0 -16 -12.5 -26.5t-28.5 -10.5q-53 0 -53 60q0 54 52 85q43 25 100 25q66 0 114 -26q60 -32 60 -93z" />
    <glyph glyph-name="bar" unicode="|" horiz-adv-x="431" 
d="M75 254q5 0 11 3q18 9 10 25q-4 8 4 12q4 2 8 2q11 0 18.5 -9t7.5 -19q0 -9 -9 -25.5t-9 -26.5q0 -15 11 -27.5t26 -12.5q6 0 12 3q30 14 30 49q0 34 -27.5 61.5t-61.5 27.5q-16 0 -29 -7q-28 -14 -28 -32q0 -9 8.5 -16.5t17.5 -7.5zM174 324q15 -31 39 -31q12 0 29 8.5
t17 32.5q0 12 -5.5 38t-5.5 38q0 25 19 34q6 3 15 0q10 -4 14 -3l1 6q-11 17 -38 17q-39 0 -65.5 -33t-26.5 -73q0 -19 7 -34zM195 258q3 -8 15 -8q9 0 15 9.5t2 17.5q-6 12 -24 4q-4 -2 -7 -10.5t-1 -12.5zM265 176q10 0 21 5q30 15 30 46q0 5 -1 16t-1 16q0 25 22 36
q7 3 18 1t15 -9q3 -5 -5 -11.5t-8 -12.5q0 -5 3 -10q10 -20 32 -9q18 9 18 27q0 9 -5 19q-15 33 -57 33q-27 0 -54 -14q-69 -34 -69 -83q0 -19 11.5 -34.5t29.5 -15.5z" />
    <glyph glyph-name="braceright" unicode="}" horiz-adv-x="1036" 
d="M31 228q0 -20 16.5 -37.5t35.5 -17.5q39 0 54 48q-10 31 -10 33l12 3q55 0 84 -42q25 -36 25 -93q0 -4 -8 -36q66 -70 141 -70q234 0 340 216l-9 8q-36 -38 -71 -75t-67 -52q-41 -18 -108 -18q-71 0 -131 51q-48 47 -96 95q-57 51 -119 51q-33 0 -59 -16q-30 -18 -30 -48
zM508 428q0 -47 42 -47q33 0 33 30q0 16 14 16q15 0 26.5 -13.5t11.5 -29.5q0 -27 -38.5 -54t-38.5 -64q0 -24 15 -42t38 -18q44 0 70 35q23 32 23 77q0 56 -36 101q-39 48 -94 48q-21 0 -41 -9q-25 -11 -25 -30zM731 417q0 -84 84 -84q38 0 56 51q14 46 28 93q19 51 58 51
q11 0 22.5 -11.5t18.5 -13.5l5 8q-3 31 -37 51q-31 17 -65 17q-60 0 -115 -51t-55 -111zM713 302q0 -3 6.5 -11.5t10 -10.5t12.5 -2q11 0 22 9t11 20q0 10 -11.5 17.5t-21.5 7.5q-7 0 -18 -11t-11 -19zM724 189q0 -68 69 -68q50 0 72 35q15 32 29 64q18 35 57 35
q14 0 29.5 -11t15.5 -24q0 -9 -20 -15.5t-20 -29.5q0 -16 12.5 -26.5t28.5 -10.5q52 0 52 60q0 54 -51 85q-43 25 -100 25q-66 0 -114 -26q-60 -32 -60 -93z" />
    <glyph glyph-name="asciitilde" unicode="~" horiz-adv-x="252" 
d="M41 704l-16 13q29 61 68 61q18 0 57.5 -23.5t52.5 -23.5q29 0 49 32l18 -16q-30 -62 -68 -62q-17 0 -57 23.5t-53 23.5q-34 0 -51 -28z" />
    <glyph glyph-name="Adieresis" unicode="&#xc4;" horiz-adv-x="563" 
d="M389 354q0 -6 -21 -28q-13 -15 -27 -29q-37 -59 -37 -66q0 -3 23.5 -48.5t23.5 -73.5q0 -23 -11 -41q-12 -21 -33 -21q-25 0 -38 30q-11 23 -11 51q0 35 10 66q13 40 13 35q-51 86 -50 103q3 2 11 1q8 0 8 -3q3 -18 41 -77q30 46 30 52q0 22 -37 36q-28 10 -55 10
q-6 0 -18 -2.5t-18 -2.5q-10 0 -10 25q45 30 102 30q25 0 60 -12q44 -15 44 -35zM321 522q-3 -12 -6 -12h-5q-5 1 -9 1q-12 0 -30 -5q-27 -7 -30 -86l-17 -6q1 33 7 58q17 60 62 69q8 2 19 -4.5t9 -14.5zM542 15q0 -14 -24 -14h-105q-18 4 -18 21q0 6 4.5 19.5t4.5 19.5v422
q0 13 -7 53q-15 89 -105 86q-26 -1 -57 -21.5t-47 -44.5q-36 -54 -36 -120q0 -50 39.5 -171t39.5 -169q0 -71 -28 -86q-24 -13 -45 -13q-37 0 -57 5q-36 9 -63 58q-23 44 -23 84q0 91 64 150q3 -2 3 -17q0 6 -25 -35t-25 -81q0 -36 17 -78q20 -51 49 -51q21 0 34 27
q10 21 10 45q0 31 -17 86q-23 72 -26 85q-7 34 -7 81q0 29 11 75.5t24 72.5q25 50 71 93q52 50 99 57q28 4 47 4q2 0 25 -4q52 -9 85.5 -54t33.5 -98v-39l-1 -370q0 -15 2 -35q1 -14 27 -24.5t26 -18.5zM331 113q0 23 -13 50q-13 23 -25 45q-13 -19 -13 -57q0 -79 23 -81
q28 -2 28 43zM241 778q17 0 29.5 -12.5t12.5 -29.5q0 -18 -12.5 -30.5t-30.5 -12.5q-17 0 -29.5 12.5t-12.5 29.5q0 18 12.5 30.5t30.5 12.5zM378 778q17 0 29 -12.5t12 -29.5q0 -18 -12 -30.5t-30 -12.5t-30.5 12.5t-12.5 29.5q0 18 13 30.5t31 12.5z" />
    <glyph glyph-name="Aring" unicode="&#xc5;" horiz-adv-x="563" 
d="M321 522q-3 -12 -6 -12h-5q-5 1 -9 1q-12 0 -30 -5q-27 -7 -30 -86l-17 -6q1 33 7 58q17 60 62 69q8 2 19 -4.5t9 -14.5zM542 15q0 -14 -24 -14h-105q-18 4 -18 21q0 6 4.5 19.5t4.5 19.5v422q0 13 -7 53q-15 89 -105 86q-26 -1 -57 -21.5t-47 -44.5q-36 -54 -36 -120
q0 -50 39.5 -171t39.5 -169q0 -71 -28 -86q-24 -13 -45 -13q-37 0 -57 5q-36 9 -63 58q-23 44 -23 84q0 91 64 150q3 -2 3 -17q0 6 -25 -35t-25 -81q0 -36 17 -78q20 -51 49 -51q21 0 34 27q10 21 10 45q0 31 -17 86q-23 72 -26 85q-7 34 -7 81q0 29 11 75.5t24 72.5
q25 50 71 93q52 50 99 57q28 4 47 4q2 0 25 -4q52 -9 85.5 -54t33.5 -98v-39l-1 -370q0 -15 2 -35q1 -14 27 -24.5t26 -18.5zM389 354q0 -6 -21 -28q-13 -15 -27 -29q-37 -59 -37 -66q0 -3 23.5 -48.5t23.5 -73.5q0 -23 -11 -41q-12 -21 -33 -21q-25 0 -38 30q-11 23 -11 51
q0 35 10 66q13 40 13 35q-51 86 -50 103q3 2 11 1q8 0 8 -3q3 -18 41 -77q30 46 30 52q0 22 -37 36q-28 10 -55 10q-6 0 -18 -2.5t-18 -2.5q-10 0 -10 25q45 30 102 30q25 0 60 -12q44 -15 44 -35zM331 113q0 23 -13 50q-13 23 -25 45q-13 -19 -13 -57q0 -79 23 -81
q28 -2 28 43zM325 685q-30 0 -52 20.5t-22 49.5t22 49.5t52 20.5t52.5 -20.5t22.5 -49.5q0 -30 -22 -50t-53 -20zM325 795q-18 0 -31 -12t-13 -28t13 -28t31 -12q19 0 32 12t13 28t-13 28t-32 12z" />
    <glyph glyph-name="Ccedilla" unicode="&#xc7;" horiz-adv-x="537" 
d="M311 220v-39q-4 -30 -21 -30q-43 0 -80 43t-37 87q-1 107 89 155q5 -23 1 -26q-26 -15 -45 -45q-22 -37 -22 -80q0 -31 23 -65q25 -38 54 -38q8 0 9 32q4 160 1 238q-1 14 -8 49t-7 36q0 9 8 16t17 7q11 0 18 -58v-282zM297 -5l-13 -35q14 2 22 2q62 0 62 -55
q0 -35 -29 -53q-25 -16 -62 -16q-36 0 -65 13l10 27q30 -10 46 -10q42 0 42 33q0 30 -34 30q-15 0 -26 -4l-7 4l27 66q-112 11 -187 105q-71 89 -71 206q0 133 82 239q89 113 218 113q51 0 108 -29q67 -33 67 -78q0 -12 -68 -48q-77 -42 -87 -51q-4 10 -4 28q10 9 69 50
q-10 35 -58 54q-41 17 -86 14q-88 -5 -139 -76q-46 -64 -46 -152q0 -105 68 -199q74 -103 176 -103q55 0 108 24q65 30 66 79l6 7q1 0 12 -15q-1 -71 -70 -122q-63 -47 -137 -48z" />
    <glyph glyph-name="Eacute" unicode="&#xc9;" horiz-adv-x="549" 
d="M508 632l-2 -12q-29 -27 -94 -179l-19 4q43 86 43 103q0 21 -44 42q-39 17 -63 17q-58 0 -82 -26t-24 -85v-228l-19 -3q-15 -1 -50 5l-1 182q0 90 75 150q70 57 164 57q19 0 53.5 -11t52.5 -11q5 0 10 -5zM482 363q0 -7 -58 -73h-7q-3 20 -14 52q-42 57 -162 62v25
q46 11 92 8q35 -3 86 -23q63 -25 63 -51zM374 346q-13 -21 -26 -43q-22 -33 -50 -51q-38 -25 -90 -25q-50 0 -89 20q-48 24 -48 69q0 48 58 77v-17q-39 -37 -39 -61q0 -65 119 -65q48 0 83 23q26 17 45 47q11 18 21 36zM554 86q-9 -12 -43 -52q-41 -46 -47 -46
q-69 45 -161 45q-47 0 -133 -25t-129 -25q-17 0 -34 8q-21 10 -21 25q0 29 36 44q29 9 57 19q38 19 55 56q10 23 18 77l72 -7v-12q0 -58 -56 -93q-25 -16 -103 -43q-56 -19 -56 -38q0 -8 12 -13.5t22 -5.5q30 0 155.5 55t196.5 55q58 0 125 -31l28 13zM313 674l141 70
q22 11 22 34q0 33 -33 33q-23 0 -40 -18l-115 -121z" />
    <glyph glyph-name="Ntilde" unicode="&#xd1;" horiz-adv-x="622" 
d="M602 17q0 -17 -33 -19q-24 1 -48 1q-40 -4 -53 35q-8 23 -8 76q0 37 12 110.5t12 111.5q0 265 -248 265q-60 0 -121 -40q-67 -44 -67 -101q0 -16 12 -28t29 -12q21 0 102 50q91 55 115 64q5 3 9 3q10 0 10 -11q0 -8 -6 -11t-45 -25l1 -255l-66 -20v209q1 35 0 34
q-23 -15 -46 -31q-46 -28 -77 -28q-27 0 -44.5 19t-17.5 48q0 76 106 139q94 56 176 56q102 0 176 -63q78 -67 78 -167q0 -42 -23.5 -123.5t-22.5 -124.5q1 -68 44 -118zM407 281q0 -48 -93 -78q-86 -25 -173 -50q-93 -35 -93 -95q0 -25 23 -39q19 -13 46 -13q58 0 79 39
q14 27 14 90v19q24 7 69 19q-1 -12 1 -38q1 -2 8.5 -15t7.5 -15q0 -24 -58 -69q-65 -53 -126 -48q-32 2 -57 20q-28 20 -28 49q0 68 89 106q14 6 164 49q89 25 89 60q-6 12 -4 26q5 7 16 10q10 0 18 -8.5t8 -18.5zM192 695l-18 12q26 63 64 66q18 1 59 -19.5t54 -19.5
q30 2 47 36l19 -16q-25 -64 -64 -66q-17 -1 -58.5 19.5t-54.5 19.5q-34 -2 -48 -32z" />
    <glyph glyph-name="Odieresis" unicode="&#xd6;" horiz-adv-x="562" 
d="M505 341q1 -110 -46 -214q-57 -127 -149 -127h-73q-76 0 -89 4q-58 18 -99 119q-34 86 -34 159q0 80 48 179q54 114 120 111l21 -1l-4 -13l-20 2q-20 2 -56 -36q-52 -55 -67 -154q-2 -12 -2 -25q0 -101 79 -207q84 -114 181 -114q65 0 100 84q28 64 28 139q0 130 -70 250
q-82 141 -205 141q-37 0 -67 -21q-34 -24 -34 -60q0 -21 9 -34l-13 -22q-16 34 -16 54q0 99 136 99q13 0 28 -1q36 1 113 -2q75 -9 132 -125q48 -100 49 -185zM352 244q0 -15 -11.5 -30.5t-26.5 -15.5q-6 0 -14 6t-8 12q0 5 7 16.5t7 18.5q0 43 -48 88q-25 24 -93 70
q-55 37 -64 54l9 15q13 -14 41 -37q201 -121 201 -197zM181 778q17 0 29.5 -12.5t12.5 -29.5q0 -18 -12.5 -30.5t-30.5 -12.5q-17 0 -29.5 12.5t-12.5 29.5q0 18 12.5 30.5t30.5 12.5zM318 778q17 0 29 -12.5t12 -29.5q0 -18 -12 -30.5t-30 -12.5t-30.5 12.5t-12.5 29.5
q0 18 13 30.5t31 12.5z" />
    <glyph glyph-name="Udieresis" unicode="&#xdc;" horiz-adv-x="501" 
d="M313 224q0 -45 -18 -80q-23 -43 -65 -43t-72 55q-25 46 -25 91q0 44 19 105q21 65 48 93l9 -20q-54 -116 -54 -168q0 -45 16 -82q20 -47 59 -47q32 0 49 35q14 28 14 64q0 62 -56 174.5t-56 160.5q0 32 19 62q22 35 52 35q10 0 19.5 -8.5t9.5 -18.5q0 -11 -9 -11
q-3 0 -10 3t-11 3q-24 0 -37 -17.5t-13 -42.5q0 -56 56 -168t56 -175zM445 78q-26 -35 -82.5 -61t-102.5 -26q-109 0 -181 93q-68 86 -68 197q0 45 16.5 132.5t16.5 130.5q0 31 -33 53q1 6 43 32t49 26q19 0 31 -30q10 -24 10 -45q0 -58 -31.5 -171.5t-31.5 -172.5
q0 -81 54 -150q57 -75 137 -75q48 0 66 33q12 24 12 78v302q0 102 1 81q-2 62 -12 62q-13 0 -52 -38q-33 -32 -46 -51l-7 11q93 121 208 173l8 -11l-17 -15v-510q4 -19 12 -48zM171 778q17 0 29.5 -12.5t12.5 -29.5q0 -18 -12.5 -30.5t-30.5 -12.5q-17 0 -29.5 12.5
t-12.5 29.5q0 18 12.5 30.5t30.5 12.5zM308 778q17 0 29 -12.5t12 -29.5q0 -18 -12 -30.5t-30 -12.5t-30.5 12.5t-12.5 29.5q0 18 13 30.5t31 12.5z" />
    <glyph glyph-name="aacute" unicode="&#xe1;" horiz-adv-x="480" 
d="M331 284q0 -5 -18 -23q-22 -22 -23 -24q-31 -41 -31 -52q0 -2 19.5 -39t19.5 -59q0 -18 -9 -32q-10 -17 -28 -17q-21 0 -33 24q-9 19 -9 41q0 29 9 52q0 3 5.5 15t5.5 13q-43 71 -42 83q2 1 8 1q7 -1 7 -3q3 -14 35 -61q26 36 26 41q0 18 -31 29q-24 8 -47 8q-6 0 -16 -2
t-15 -2q-8 0 -8 20q38 24 86 24q21 0 52 -10q37 -12 37 -27zM273 418q-3 -10 -15 -11q-24 -1 -28 -2q-22 -6 -26 -69l-13 -4q0 26 6 45q14 47 52 55q8 2 17 -3t7 -11zM461 12q0 -12 -20 -12h-90q-16 9 -16 18q0 4 4 15t4 16v337q0 11 -5 43q-11 71 -90 69q-23 -1 -48.5 -17
t-39.5 -36q-31 -44 -31 -96q0 -40 34 -137t34 -135q0 -57 -24 -69q-19 -10 -39 -10q-30 0 -48 4q-31 7 -53 46q-20 35 -20 67q0 73 54 121q3 -3 3 -14q0 5 -21.5 -28t-21.5 -65q0 -29 14 -62q18 -41 43 -41q17 0 28 21q8 17 8 36q0 25 -15 69q-19 56 -21 68q-6 29 -6 65
q0 23 9.5 60.5t20.5 57.5q22 40 60 75q45 40 84 45q31 4 41 4q-4 0 20 -4q44 -7 73 -43t29 -78v-32l-1 -296q0 -7 2 -28q1 -11 23 -19.5t22 -14.5zM281 91q0 18 -11 40q-11 18 -21 36q-11 -16 -11 -46q0 -63 20 -65q23 -2 23 35zM209 555l134 66q21 10 21 33q0 31 -31 31
q-22 0 -38 -17l-109 -115z" />
    <glyph glyph-name="agrave" unicode="&#xe0;" horiz-adv-x="479" 
d="M331 284q0 -5 -18 -23q-22 -22 -23 -24q-31 -41 -31 -52q0 -2 19.5 -39t19.5 -59q0 -18 -9 -32q-10 -17 -28 -17q-21 0 -33 24q-9 19 -9 41q0 29 9 52q0 3 5.5 15t5.5 13q-43 71 -42 83q2 1 8 1q7 -1 7 -3q3 -14 35 -61q26 36 26 41q0 18 -31 29q-24 8 -47 8q-6 0 -16 -2
t-15 -2q-8 0 -8 20q38 24 86 24q21 0 52 -10q37 -12 37 -27zM273 418q-3 -10 -15 -11q-24 -1 -28 -2q-22 -6 -26 -69l-13 -4q0 26 6 45q14 47 52 55q8 2 17 -3t7 -11zM461 12q0 -12 -20 -12h-90q-16 9 -16 18q0 4 4 15t4 16v337q0 11 -5 43q-11 71 -90 69q-23 -1 -48.5 -17
t-39.5 -36q-31 -44 -31 -96q0 -40 34 -137t34 -135q0 -57 -24 -69q-19 -10 -39 -10q-30 0 -48 4q-31 7 -53 46q-20 35 -20 67q0 73 54 121q3 -3 3 -14q0 5 -21.5 -28t-21.5 -65q0 -29 14 -62q18 -41 43 -41q17 0 28 21q8 17 8 36q0 25 -15 69q-19 56 -21 68q-6 29 -6 65
q0 23 9.5 60.5t20.5 57.5q22 40 60 75q45 40 84 45q31 4 41 4q-4 0 20 -4q44 -7 73 -43t29 -78v-32l-1 -296q0 -7 2 -28q1 -11 23 -19.5t22 -14.5zM281 91q0 18 -11 40q-11 18 -21 36q-11 -16 -11 -46q0 -63 20 -65q23 -2 23 35zM317 555l-134 66q-21 10 -21 33q0 31 31 31
q23 0 39 -17l109 -115z" />
    <glyph glyph-name="acircumflex" unicode="&#xe2;" horiz-adv-x="479" 
d="M331 284q0 -5 -18 -23q-22 -22 -23 -24q-31 -41 -31 -52q0 -2 19.5 -39t19.5 -59q0 -18 -9 -32q-10 -17 -28 -17q-21 0 -33 24q-9 19 -9 41q0 29 9 52q0 3 5.5 15t5.5 13q-43 71 -42 83q2 1 8 1q7 -1 7 -3q3 -14 35 -61q26 36 26 41q0 18 -31 29q-24 8 -47 8q-6 0 -16 -2
t-15 -2q-8 0 -8 20q38 24 86 24q21 0 52 -10q37 -12 37 -27zM273 418q-3 -10 -15 -11q-24 -1 -28 -2q-22 -6 -26 -69l-13 -4q0 26 6 45q14 47 52 55q8 2 17 -3t7 -11zM461 12q0 -12 -20 -12h-90q-16 9 -16 18q0 4 4 15t4 16v337q0 11 -5 43q-11 71 -90 69q-23 -1 -48.5 -17
t-39.5 -36q-31 -44 -31 -96q0 -40 34 -137t34 -135q0 -57 -24 -69q-19 -10 -39 -10q-30 0 -48 4q-31 7 -53 46q-20 35 -20 67q0 73 54 121q3 -3 3 -14q0 5 -21.5 -28t-21.5 -65q0 -29 14 -62q18 -41 43 -41q17 0 28 21q8 17 8 36q0 25 -15 69q-19 56 -21 68q-6 29 -6 65
q0 23 9.5 60.5t20.5 57.5q22 40 60 75q45 40 84 45q31 4 41 4q-4 0 20 -4q44 -7 73 -43t29 -78v-32l-1 -296q0 -7 2 -28q1 -11 23 -19.5t22 -14.5zM281 91q0 18 -11 40q-11 18 -21 36q-11 -16 -11 -46q0 -63 20 -65q23 -2 23 35zM281 641l89 -91h-23l-86 49l-87 -49h-23
l89 91h41z" />
    <glyph glyph-name="adieresis" unicode="&#xe4;" horiz-adv-x="480" 
d="M331 284q0 -5 -18 -23q-22 -22 -23 -24q-31 -41 -31 -52q0 -2 19.5 -39t19.5 -59q0 -18 -9 -32q-10 -17 -28 -17q-21 0 -33 24q-9 19 -9 41q0 29 9 52q0 3 5.5 15t5.5 13q-43 71 -42 83q2 1 8 1q7 -1 7 -3q3 -14 35 -61q26 36 26 41q0 18 -31 29q-24 8 -47 8q-6 0 -16 -2
t-15 -2q-8 0 -8 20q38 24 86 24q21 0 52 -10q37 -12 37 -27zM273 418q-3 -10 -15 -11q-24 -1 -28 -2q-22 -6 -26 -69l-13 -4q0 26 6 45q14 47 52 55q8 2 17 -3t7 -11zM461 12q0 -12 -20 -12h-90q-16 9 -16 18q0 4 4 15t4 16v337q0 11 -5 43q-11 71 -90 69q-23 -1 -48.5 -17
t-39.5 -36q-31 -44 -31 -96q0 -40 34 -137t34 -135q0 -57 -24 -69q-19 -10 -39 -10q-30 0 -48 4q-31 7 -53 46q-20 35 -20 67q0 73 54 121q3 -3 3 -14q0 5 -21.5 -28t-21.5 -65q0 -29 14 -62q18 -41 43 -41q17 0 28 21q8 17 8 36q0 25 -15 69q-19 56 -21 68q-6 29 -6 65
q0 23 9.5 60.5t20.5 57.5q22 40 60 75q45 40 84 45q31 4 41 4q-4 0 20 -4q44 -7 73 -43t29 -78v-32l-1 -296q0 -7 2 -28q1 -11 23 -19.5t22 -14.5zM281 91q0 18 -11 40q-11 18 -21 36q-11 -16 -11 -46q0 -63 20 -65q23 -2 23 35zM201 644q16 0 28 -12t12 -29
q0 -16 -11.5 -28t-28.5 -12t-29 11.5t-12 28.5t12 29t29 12zM331 644q16 0 28 -12t12 -29t-12 -28.5t-29 -11.5q-16 0 -28 12t-12 28q0 17 12 29t29 12z" />
    <glyph glyph-name="atilde" unicode="&#xe3;" horiz-adv-x="480" 
d="M331 284q0 -5 -18 -23q-22 -22 -23 -24q-31 -41 -31 -52q0 -2 19.5 -39t19.5 -59q0 -18 -9 -32q-10 -17 -28 -17q-21 0 -33 24q-9 19 -9 41q0 29 9 52q0 3 5.5 15t5.5 13q-43 71 -42 83q2 1 8 1q7 -1 7 -3q3 -14 35 -61q26 36 26 41q0 18 -31 29q-24 8 -47 8q-6 0 -16 -2
t-15 -2q-8 0 -8 20q38 24 86 24q21 0 52 -10q37 -12 37 -27zM273 418q-3 -10 -15 -11q-24 -1 -28 -2q-22 -6 -26 -69l-13 -4q0 26 6 45q14 47 52 55q8 2 17 -3t7 -11zM461 12q0 -12 -20 -12h-90q-16 9 -16 18q0 4 4 15t4 16v337q0 11 -5 43q-11 71 -90 69q-23 -1 -48.5 -17
t-39.5 -36q-31 -44 -31 -96q0 -40 34 -137t34 -135q0 -57 -24 -69q-19 -10 -39 -10q-30 0 -48 4q-31 7 -53 46q-20 35 -20 67q0 73 54 121q3 -3 3 -14q0 5 -21.5 -28t-21.5 -65q0 -29 14 -62q18 -41 43 -41q17 0 28 21q8 17 8 36q0 25 -15 69q-19 56 -21 68q-6 29 -6 65
q0 23 9.5 60.5t20.5 57.5q22 40 60 75q45 40 84 45q31 4 41 4q-4 0 20 -4q44 -7 73 -43t29 -78v-32l-1 -296q0 -7 2 -28q1 -11 23 -19.5t22 -14.5zM281 91q0 18 -11 40q-11 18 -21 36q-11 -16 -11 -46q0 -63 20 -65q23 -2 23 35zM154 577l-16 11q25 61 60 63
q17 1 56.5 -18.5t51.5 -18.5q28 2 44 33l18 -14q-24 -61 -60 -63q-17 -1 -56.5 18.5t-51.5 18.5q-32 -3 -46 -30z" />
    <glyph glyph-name="aring" unicode="&#xe5;" horiz-adv-x="478" 
d="M331 284q0 -5 -18 -23q-22 -22 -23 -24q-31 -41 -31 -52q0 -2 19.5 -39t19.5 -59q0 -18 -9 -32q-10 -17 -28 -17q-21 0 -33 24q-9 19 -9 41q0 29 9 52q0 3 5.5 15t5.5 13q-43 71 -42 83q2 1 8 1q7 -1 7 -3q3 -14 35 -61q26 36 26 41q0 18 -31 29q-24 8 -47 8q-6 0 -16 -2
t-15 -2q-8 0 -8 20q38 24 86 24q21 0 52 -10q37 -12 37 -27zM273 418q-3 -10 -15 -11q-24 -1 -28 -2q-22 -6 -26 -69l-13 -4q0 26 6 45q14 47 52 55q8 2 17 -3t7 -11zM461 12q0 -12 -20 -12h-90q-16 9 -16 18q0 4 4 15t4 16v337q0 11 -5 43q-11 71 -90 69q-23 -1 -48.5 -17
t-39.5 -36q-31 -44 -31 -96q0 -40 34 -137t34 -135q0 -57 -24 -69q-19 -10 -39 -10q-30 0 -48 4q-31 7 -53 46q-20 35 -20 67q0 73 54 121q3 -3 3 -14q0 5 -21.5 -28t-21.5 -65q0 -29 14 -62q18 -41 43 -41q17 0 28 21q8 17 8 36q0 25 -15 69q-19 56 -21 68q-6 29 -6 65
q0 23 9.5 60.5t20.5 57.5q22 40 60 75q45 40 84 45q31 4 41 4q-4 0 20 -4q44 -7 73 -43t29 -78v-32l-1 -296q0 -7 2 -28q1 -11 23 -19.5t22 -14.5zM281 91q0 18 -11 40q-11 18 -21 36q-11 -16 -11 -46q0 -63 20 -65q23 -2 23 35zM268 559q-27 0 -47 18t-20 45t20 45t47 18
t47 -18t20 -45t-20 -45t-47 -18zM268 658q-17 0 -28.5 -10.5t-11.5 -25.5t11.5 -25.5t28.5 -10.5t28.5 10.5t11.5 25.5t-11.5 25.5t-28.5 10.5z" />
    <glyph glyph-name="ccedilla" unicode="&#xe7;" horiz-adv-x="465" 
d="M264 176q0 -32 0 -31q-2 -24 -17 -24q-37 0 -68.5 34t-31.5 69q-1 86 75 125q5 -19 1 -21q-56 -31 -56 -100q0 -25 19 -52q21 -31 46 -31q7 0 7 26q4 129 1 190q-1 11 -7 39.5t-6 29.5q0 6 7.5 12t14.5 6q9 0 15 -46v-226zM428 132q-1 -55 -56 -96q-51 -37 -112 -39
l-15 -42q12 2 19 2q56 0 56 -49q0 -31 -24.5 -47t-57.5 -16q-30 0 -59 12l10 25q22 -10 41 -10q38 0 38 30q0 27 -31 27q-14 0 -23 -4l-6 4l28 68q-99 7 -164 82q-62 72 -62 167q0 107 70 191q75 91 185 91q43 0 92 -23q57 -27 57 -63q0 -9 -58 -38q-65 -33 -74 -41
q-3 8 -3 23q13 11 59 39q-9 28 -50 44q-35 13 -73 11q-75 -4 -119 -61q-38 -50 -38 -121q0 -84 58 -160q63 -82 149 -82q47 0 92 19q55 24 56 63q2 3 6 6z" />
    <glyph glyph-name="eacute" unicode="&#xe9;" horiz-adv-x="471" 
d="M432 506l-2 -10q-24 -21 -80 -143l-16 3q37 69 37 83q0 17 -38 33q-33 14 -54 14q-49 0 -69.5 -21t-20.5 -68l1 -183l-17 -2q-12 -1 -42 4l-1 145q0 72 64 121q60 45 140 45q15 0 44 -8.5t45 -8.5q3 0 9 -4zM410 290q0 -8 -50 -58h-6q-2 16 -11 42q-36 45 -138 49v20
q38 10 78 7q30 -2 74 -18q53 -20 53 -42zM318 277l-22 -34q-19 -26 -43 -41q-32 -20 -76 -20q-43 0 -75 16q-41 19 -41 55q0 37 48 62v-14q-33 -31 -33 -49q0 -52 102 -52q57 0 93 37q17 23 33 47zM471 69q-65 -78 -77 -78q-60 35 -136 35q-40 0 -113.5 -20t-109.5 -20
q-14 0 -29 7q-18 8 -18 20q0 23 30 35q25 7 49 15q32 15 47 45q9 20 15 62l61 -6v-9q0 -46 -47 -75q-21 -12 -88 -34q-47 -16 -47 -31q0 -6 10 -10.5t18 -4.5q25 0 132 44t168 44q50 0 106 -25l24 11zM239 555l134 66q21 10 21 33q0 31 -31 31q-22 0 -38 -17l-109 -115z" />
    <glyph glyph-name="egrave" unicode="&#xe8;" horiz-adv-x="472" 
d="M432 506l-2 -10q-24 -21 -80 -143l-16 3q37 69 37 83q0 17 -38 33q-33 14 -54 14q-49 0 -69.5 -21t-20.5 -68l1 -183l-17 -2q-12 -1 -42 4l-1 145q0 72 64 121q60 45 140 45q15 0 44 -8.5t45 -8.5q3 0 9 -4zM410 290q0 -8 -50 -58h-6q-2 16 -11 42q-36 45 -138 49v20
q38 10 78 7q30 -2 74 -18q53 -20 53 -42zM318 277l-22 -34q-19 -26 -43 -41q-32 -20 -76 -20q-43 0 -75 16q-41 19 -41 55q0 37 48 62v-14q-33 -31 -33 -49q0 -52 102 -52q57 0 93 37q17 23 33 47zM471 69q-65 -78 -77 -78q-60 35 -136 35q-40 0 -113.5 -20t-109.5 -20
q-14 0 -29 7q-18 8 -18 20q0 23 30 35q25 7 49 15q32 15 47 45q9 20 15 62l61 -6v-9q0 -46 -47 -75q-21 -12 -88 -34q-47 -16 -47 -31q0 -6 10 -10.5t18 -4.5q25 0 132 44t168 44q50 0 106 -25l24 11zM357 555l-134 66q-21 10 -21 33q0 31 31 31q23 0 39 -17l109 -115z" />
    <glyph glyph-name="ecircumflex" unicode="&#xea;" horiz-adv-x="478" 
d="M432 506l-2 -10q-24 -21 -80 -143l-16 3q37 69 37 83q0 17 -38 33q-33 14 -54 14q-49 0 -69.5 -21t-20.5 -68l1 -183l-17 -2q-12 -1 -42 4l-1 145q0 72 64 121q60 45 140 45q15 0 44 -8.5t45 -8.5q3 0 9 -4zM410 290q0 -8 -50 -58h-6q-2 16 -11 42q-36 45 -138 49v20
q38 10 78 7q30 -2 74 -18q53 -20 53 -42zM318 277l-22 -34q-19 -26 -43 -41q-32 -20 -76 -20q-43 0 -75 16q-41 19 -41 55q0 37 48 62v-14q-33 -31 -33 -49q0 -52 102 -52q57 0 93 37q17 23 33 47zM471 69q-65 -78 -77 -78q-60 35 -136 35q-40 0 -113.5 -20t-109.5 -20
q-14 0 -29 7q-18 8 -18 20q0 23 30 35q25 7 49 15q32 15 47 45q9 20 15 62l61 -6v-9q0 -46 -47 -75q-21 -12 -88 -34q-47 -16 -47 -31q0 -6 10 -10.5t18 -4.5q25 0 132 44t168 44q50 0 106 -25l24 11zM311 641l89 -91h-23l-86 49l-87 -49h-23l89 91h41z" />
    <glyph glyph-name="edieresis" unicode="&#xeb;" horiz-adv-x="471" 
d="M432 506l-2 -10q-24 -21 -80 -143l-16 3q37 69 37 83q0 17 -38 33q-33 14 -54 14q-49 0 -69.5 -21t-20.5 -68l1 -183l-17 -2q-12 -1 -42 4l-1 145q0 72 64 121q60 45 140 45q15 0 44 -8.5t45 -8.5q3 0 9 -4zM410 290q0 -8 -50 -58h-6q-2 16 -11 42q-36 45 -138 49v20
q38 10 78 7q30 -2 74 -18q53 -20 53 -42zM318 277l-22 -34q-19 -26 -43 -41q-32 -20 -76 -20q-43 0 -75 16q-41 19 -41 55q0 37 48 62v-14q-33 -31 -33 -49q0 -52 102 -52q57 0 93 37q17 23 33 47zM471 69q-65 -78 -77 -78q-60 35 -136 35q-40 0 -113.5 -20t-109.5 -20
q-14 0 -29 7q-18 8 -18 20q0 23 30 35q25 7 49 15q32 15 47 45q9 20 15 62l61 -6v-9q0 -46 -47 -75q-21 -12 -88 -34q-47 -16 -47 -31q0 -6 10 -10.5t18 -4.5q25 0 132 44t168 44q50 0 106 -25l24 11zM211 644q16 0 28 -12t12 -29q0 -16 -11.5 -28t-28.5 -12t-29 11.5
t-12 28.5t12 29t29 12zM341 644q16 0 28 -12t12 -29t-12 -28.5t-29 -11.5q-16 0 -28 12t-12 28q0 17 12 29t29 12z" />
    <glyph glyph-name="iacute" unicode="&#xed;" horiz-adv-x="313" 
d="M257 504q-48 -3 -65 -22q-7 -9 -11 -32v-142q-1 -28 0 -32q43 -31 52 -41q24 -26 24 -66q0 -21 -6 -41q-9 -26 -26 -26q-20 0 -20 19q0 7 14.5 20.5t14.5 33.5q0 21 -14.5 42.5t-35.5 31.5v-163q0 -57 53 -65q8 0 17 -1.5t9 -8.5q0 -13 -23 -12l-91 3q-53 -1 -110 -2
q-8 4 -2 10q2 3 23 7t32 16q15 16 17 26q1 3 1 32v187q-37 29 -74 59q-27 29 -27 87q0 34 38 78l-14 15q1 8 20 5q118 -9 203 0q12 0 12 -7q0 -10 -11 -11zM110 335l1 116q0 42 -31 42q-21 0 -35.5 -24.5t-14.5 -46.5q0 -59 51 -97l29 -21v31zM79 555l134 66q21 10 21 33
q0 31 -31 31q-22 0 -38 -17l-109 -115z" />
    <glyph glyph-name="igrave" unicode="&#xec;" horiz-adv-x="313" 
d="M257 504q-48 -3 -65 -22q-7 -9 -11 -32v-142q-1 -28 0 -32q43 -31 52 -41q24 -26 24 -66q0 -21 -6 -41q-9 -26 -26 -26q-20 0 -20 19q0 7 14.5 20.5t14.5 33.5q0 21 -14.5 42.5t-35.5 31.5v-163q0 -57 53 -65q8 0 17 -1.5t9 -8.5q0 -13 -23 -12l-91 3q-53 -1 -110 -2
q-8 4 -2 10q2 3 23 7t32 16q15 16 17 26q1 3 1 32v187q-37 29 -74 59q-27 29 -27 87q0 34 38 78l-14 15q1 8 20 5q118 -9 203 0q12 0 12 -7q0 -10 -11 -11zM110 335l1 116q0 42 -31 42q-21 0 -35.5 -24.5t-14.5 -46.5q0 -59 51 -97l29 -21v31zM197 555l-134 66
q-21 10 -21 33q0 31 31 31q23 0 39 -17l109 -115z" />
    <glyph glyph-name="icircumflex" unicode="&#xee;" horiz-adv-x="312" 
d="M257 504q-48 -3 -65 -22q-7 -9 -11 -32v-142q-1 -28 0 -32q43 -31 52 -41q24 -26 24 -66q0 -21 -6 -41q-9 -26 -26 -26q-20 0 -20 19q0 7 14.5 20.5t14.5 33.5q0 21 -14.5 42.5t-35.5 31.5v-163q0 -57 53 -65q8 0 17 -1.5t9 -8.5q0 -13 -23 -12l-91 3q-53 -1 -110 -2
q-8 4 -2 10q2 3 23 7t32 16q15 16 17 26q1 3 1 32v187q-37 29 -74 59q-27 29 -27 87q0 34 38 78l-14 15q1 8 20 5q118 -9 203 0q12 0 12 -7q0 -10 -11 -11zM110 335l1 116q0 42 -31 42q-21 0 -35.5 -24.5t-14.5 -46.5q0 -59 51 -97l29 -21v31zM161 641l89 -91h-23l-86 49
l-87 -49h-23l89 91h41z" />
    <glyph glyph-name="idieresis" unicode="&#xef;" horiz-adv-x="313" 
d="M257 504q-48 -3 -65 -22q-7 -9 -11 -32v-142q-1 -28 0 -32q43 -31 52 -41q24 -26 24 -66q0 -21 -6 -41q-9 -26 -26 -26q-20 0 -20 19q0 7 14.5 20.5t14.5 33.5q0 21 -14.5 42.5t-35.5 31.5v-163q0 -57 53 -65q8 0 17 -1.5t9 -8.5q0 -13 -23 -12l-91 3q-53 -1 -110 -2
q-8 4 -2 10q2 3 23 7t32 16q15 16 17 26q1 3 1 32v187q-37 29 -74 59q-27 29 -27 87q0 34 38 78l-14 15q1 8 20 5q118 -9 203 0q12 0 12 -7q0 -10 -11 -11zM110 335l1 116q0 42 -31 42q-21 0 -35.5 -24.5t-14.5 -46.5q0 -59 51 -97l29 -21v31zM81 644q16 0 28 -12t12 -29
q0 -16 -11.5 -28t-28.5 -12t-29 11.5t-12 28.5t12 29t29 12zM211 644q16 0 28 -12t12 -29t-12 -28.5t-29 -11.5q-16 0 -28 12t-12 28q0 17 12 29t29 12z" />
    <glyph glyph-name="ntilde" unicode="&#xf1;" horiz-adv-x="534" 
d="M511 13q0 -14 -27 -15q-21 1 -41 1q-34 -3 -45 28q-7 18 -7 61q0 29 10.5 88.5t10.5 89.5q0 211 -212 211q-51 0 -102 -32q-58 -35 -58 -80q0 -13 10.5 -22.5t24.5 -9.5q19 0 87 40q78 44 98 51q5 2 8 2q8 0 8 -8q0 -7 -5 -9.5t-38 -19.5l1 -204l-56 -16v167q1 28 0 27
q-20 -12 -39 -25q-39 -22 -66 -22q-23 0 -37.5 15t-14.5 39q0 60 90 111q80 45 149 45q86 0 151 -52t65 -132q0 -34 -20 -99t-19 -100q1 -55 37 -95q19 -17 37 -35zM346 224q0 -38 -79 -62q-73 -20 -147 -40q-79 -27 -79 -75q0 -20 19 -32q16 -10 39 -10q50 0 67 31
q12 21 12 72v16q21 6 59 15q-1 -10 1 -31q0 -2 6.5 -12t6.5 -12q0 -19 -49 -56q-56 -42 -107 -38q-27 2 -48 16q-24 16 -24 40q0 54 75 85q14 5 141 39q75 19 75 47q-5 12 -3 22q3 4 13 7q22 0 22 -22zM154 567l-16 11q25 61 60 63q17 1 56.5 -18.5t51.5 -18.5q28 2 44 33
l18 -14q-24 -61 -60 -63q-17 -1 -56.5 18.5t-51.5 18.5q-32 -3 -46 -30z" />
    <glyph glyph-name="oacute" unicode="&#xf3;" horiz-adv-x="486" 
d="M429 272q1 -88 -39 -171q-48 -101 -126 -101h-62q-63 0 -76 4q-49 15 -84 95q-29 68 -29 127q0 63 40 141q47 90 103 90h17l-3 -10l-17 1q-39 2 -75 -67q-31 -62 -31 -105q0 -81 67 -165q72 -91 154 -91q55 0 85 67q24 51 24 111q0 103 -60 200q-70 113 -174 113
q-31 0 -57 -18q-29 -19 -29 -48q0 -18 7 -27l-10 -17q-14 25 -14 43q0 87 139 78q31 2 97 -1q64 -7 111 -101q41 -80 42 -148zM299 195q0 -12 -9.5 -24.5t-22.5 -12.5q-6 0 -12.5 5t-6.5 10q0 3 6 12.5t6 15.5q0 34 -40 70q-22 19 -80 56q-47 30 -54 44l7 11q11 -11 35 -29
q171 -98 171 -158zM149 555l134 66q21 10 21 33q0 31 -31 31q-22 0 -38 -17l-109 -115z" />
    <glyph glyph-name="ograve" unicode="&#xf2;" horiz-adv-x="486" 
d="M429 272q1 -88 -39 -171q-48 -101 -126 -101h-62q-63 0 -76 4q-49 15 -84 95q-29 68 -29 127q0 63 40 141q47 90 103 90h17l-3 -10l-17 1q-39 2 -75 -67q-31 -62 -31 -105q0 -81 67 -165q72 -91 154 -91q55 0 85 67q24 51 24 111q0 103 -60 200q-70 113 -174 113
q-31 0 -57 -18q-29 -19 -29 -48q0 -18 7 -27l-10 -17q-14 25 -14 43q0 87 139 78q31 2 97 -1q64 -7 111 -101q41 -80 42 -148zM299 195q0 -12 -9.5 -24.5t-22.5 -12.5q-6 0 -12.5 5t-6.5 10q0 3 6 12.5t6 15.5q0 34 -40 70q-22 19 -80 56q-47 30 -54 44l7 11q11 -11 35 -29
q171 -98 171 -158zM267 555l-134 66q-21 10 -21 33q0 31 31 31q23 0 39 -17l109 -115z" />
    <glyph glyph-name="ocircumflex" unicode="&#xf4;" horiz-adv-x="465" 
d="M429 272q1 -88 -39 -171q-48 -101 -126 -101h-62q-63 0 -76 4q-49 15 -84 95q-29 68 -29 127q0 63 40 141q47 90 103 90h17l-3 -10l-17 1q-39 2 -75 -67q-31 -62 -31 -105q0 -81 67 -165q72 -91 154 -91q55 0 85 67q24 51 24 111q0 103 -60 200q-70 113 -174 113
q-31 0 -57 -18q-29 -19 -29 -48q0 -18 7 -27l-10 -17q-14 25 -14 43q0 87 139 78q31 2 97 -1q64 -7 111 -101q41 -80 42 -148zM299 195q0 -12 -9.5 -24.5t-22.5 -12.5q-6 0 -12.5 5t-6.5 10q0 3 6 12.5t6 15.5q0 34 -40 70q-22 19 -80 56q-47 30 -54 44l7 11q11 -11 35 -29
q171 -98 171 -158zM221 641l89 -91h-23l-86 49l-87 -49h-23l89 91h41z" />
    <glyph glyph-name="odieresis" unicode="&#xf6;" horiz-adv-x="465" 
d="M429 272q1 -88 -39 -171q-48 -101 -126 -101h-62q-63 0 -76 4q-49 15 -84 95q-29 68 -29 127q0 63 40 141q47 90 103 90h17l-3 -10l-17 1q-39 2 -75 -67q-31 -62 -31 -105q0 -81 67 -165q72 -91 154 -91q55 0 85 67q24 51 24 111q0 103 -60 200q-70 113 -174 113
q-31 0 -57 -18q-29 -19 -29 -48q0 -18 7 -27l-10 -17q-14 25 -14 43q0 87 139 78q31 2 97 -1q64 -7 111 -101q41 -80 42 -148zM299 195q0 -12 -9.5 -24.5t-22.5 -12.5q-6 0 -12.5 5t-6.5 10q0 3 6 12.5t6 15.5q0 34 -40 70q-22 19 -80 56q-47 30 -54 44l7 11q11 -11 35 -29
q171 -98 171 -158zM141 644q16 0 28 -12t12 -29q0 -16 -11.5 -28t-28.5 -12t-29 11.5t-12 28.5t12 29t29 12zM271 644q16 0 28 -12t12 -29t-12 -28.5t-29 -11.5q-16 0 -28 12t-12 28q0 17 12 29t29 12z" />
    <glyph glyph-name="otilde" unicode="&#xf5;" horiz-adv-x="466" 
d="M429 272q1 -88 -39 -171q-48 -101 -126 -101h-62q-63 0 -76 4q-49 15 -84 95q-29 68 -29 127q0 63 40 141q47 90 103 90h17l-3 -10l-17 1q-39 2 -75 -67q-31 -62 -31 -105q0 -81 67 -165q72 -91 154 -91q55 0 85 67q24 51 24 111q0 103 -60 200q-70 113 -174 113
q-31 0 -57 -18q-29 -19 -29 -48q0 -18 7 -27l-10 -17q-14 25 -14 43q0 87 139 78q31 2 97 -1q64 -7 111 -101q41 -80 42 -148zM299 195q0 -12 -9.5 -24.5t-22.5 -12.5q-6 0 -12.5 5t-6.5 10q0 3 6 12.5t6 15.5q0 34 -40 70q-22 19 -80 56q-47 30 -54 44l7 11q11 -11 35 -29
q171 -98 171 -158zM114 567l-16 11q25 61 60 63q17 1 56.5 -18.5t51.5 -18.5q28 2 44 33l18 -14q-24 -61 -60 -63q-17 -1 -56.5 18.5t-51.5 18.5q-32 -3 -46 -30z" />
    <glyph glyph-name="uacute" unicode="&#xfa;" horiz-adv-x="431" 
d="M266 179q0 -36 -16 -64q-19 -34 -55 -34q-35 0 -60 44q-22 37 -22 73q0 35 17 85t40 73l8 -16q-46 -87 -46 -135q0 -36 13 -64q18 -38 51 -38q27 0 42 28q11 22 11 51q0 49 -47.5 139.5t-47.5 128.5q0 26 17 51.5t43 25.5q9 0 17 -6.5t8 -14.5q0 -10 -8 -10q-3 0 -9 3
t-9 3q-42 0 -42 -48q0 -45 47.5 -135t47.5 -140zM379 62q-23 -28 -71 -48.5t-87 -20.5q-92 0 -154 75q-58 69 -58 157q0 36 14 106t14 104q0 31 -21 44q1 6 32.5 25t37.5 19q16 0 27 -23q9 -19 9 -36q0 -46 -26.5 -137t-26.5 -138q0 -65 45 -120q49 -60 117 -60q41 0 56 26
q11 19 11 62v242q0 115 -10 115q-11 0 -44 -31q-29 -27 -39 -41l-6 9q78 96 176 139l7 -9l-14 -12v-409q3 -15 11 -38zM139 555l134 66q21 10 21 33q0 31 -31 31q-22 0 -38 -17l-109 -115z" />
    <glyph glyph-name="ugrave" unicode="&#xf9;" horiz-adv-x="430" 
d="M266 179q0 -36 -16 -64q-19 -34 -55 -34q-35 0 -60 44q-22 37 -22 73q0 35 17 85t40 73l8 -16q-46 -87 -46 -135q0 -36 13 -64q18 -38 51 -38q27 0 42 28q11 22 11 51q0 49 -47.5 139.5t-47.5 128.5q0 26 17 51.5t43 25.5q9 0 17 -6.5t8 -14.5q0 -10 -8 -10q-3 0 -9 3
t-9 3q-42 0 -42 -48q0 -45 47.5 -135t47.5 -140zM379 62q-23 -28 -71 -48.5t-87 -20.5q-92 0 -154 75q-58 69 -58 157q0 36 14 106t14 104q0 31 -21 44q1 6 32.5 25t37.5 19q16 0 27 -23q9 -19 9 -36q0 -46 -26.5 -137t-26.5 -138q0 -65 45 -120q49 -60 117 -60q41 0 56 26
q11 19 11 62v242q0 115 -10 115q-11 0 -44 -31q-29 -27 -39 -41l-6 9q78 96 176 139l7 -9l-14 -12v-409q3 -15 11 -38zM257 555l-134 66q-21 10 -21 33q0 31 31 31q23 0 39 -17l109 -115z" />
    <glyph glyph-name="ucircumflex" unicode="&#xfb;" horiz-adv-x="430" 
d="M266 179q0 -36 -16 -64q-19 -34 -55 -34q-35 0 -60 44q-22 37 -22 73q0 35 17 85t40 73l8 -16q-46 -87 -46 -135q0 -36 13 -64q18 -38 51 -38q27 0 42 28q11 22 11 51q0 49 -47.5 139.5t-47.5 128.5q0 26 17 51.5t43 25.5q9 0 17 -6.5t8 -14.5q0 -10 -8 -10q-3 0 -9 3
t-9 3q-42 0 -42 -48q0 -45 47.5 -135t47.5 -140zM379 62q-23 -28 -71 -48.5t-87 -20.5q-92 0 -154 75q-58 69 -58 157q0 36 14 106t14 104q0 31 -21 44q1 6 32.5 25t37.5 19q16 0 27 -23q9 -19 9 -36q0 -46 -26.5 -137t-26.5 -138q0 -65 45 -120q49 -60 117 -60q41 0 56 26
q11 19 11 62v242q0 115 -10 115q-11 0 -44 -31q-29 -27 -39 -41l-6 9q78 96 176 139l7 -9l-14 -12v-409q3 -15 11 -38zM211 651l89 -91h-23l-86 49l-87 -49h-23l89 91h41z" />
    <glyph glyph-name="udieresis" unicode="&#xfc;" horiz-adv-x="430" 
d="M266 179q0 -36 -16 -64q-19 -34 -55 -34q-35 0 -60 44q-22 37 -22 73q0 35 17 85t40 73l8 -16q-46 -87 -46 -135q0 -36 13 -64q18 -38 51 -38q27 0 42 28q11 22 11 51q0 49 -47.5 139.5t-47.5 128.5q0 26 17 51.5t43 25.5q9 0 17 -6.5t8 -14.5q0 -10 -8 -10q-3 0 -9 3
t-9 3q-42 0 -42 -48q0 -45 47.5 -135t47.5 -140zM379 62q-23 -28 -71 -48.5t-87 -20.5q-92 0 -154 75q-58 69 -58 157q0 36 14 106t14 104q0 31 -21 44q1 6 32.5 25t37.5 19q16 0 27 -23q9 -19 9 -36q0 -46 -26.5 -137t-26.5 -138q0 -65 45 -120q49 -60 117 -60q41 0 56 26
q11 19 11 62v242q0 115 -10 115q-11 0 -44 -31q-29 -27 -39 -41l-6 9q78 96 176 139l7 -9l-14 -12v-409q3 -15 11 -38zM131 644q16 0 28 -12t12 -29q0 -16 -11.5 -28t-28.5 -12t-29 11.5t-12 28.5t12 29t29 12zM261 644q16 0 28 -12t12 -29t-12 -28.5t-29 -11.5
q-16 0 -28 12t-12 28q0 17 12 29t29 12z" />
    <glyph glyph-name="dagger" unicode="&#x2020;" horiz-adv-x="339" 
d="M170 487q21 1 52.5 15.5t43.5 14.5q33 0 33 -40q0 -44 -37 -44q-11 0 -41 14t-52 15q0 -95 31 -148q-22 -71 -28 -173q-2 -42 -2 -176h-24q0 135 -2 176q-6 99 -28 173q31 53 31 148q-22 -1 -52 -15t-41 -14q-37 0 -37 44q0 40 34 40q11 0 42.5 -14.5t53.5 -15.5
q0 46 -15 93q-10 31 -10 45q0 45 36 45t36 -45q0 -14 -12.5 -60.5t-11.5 -77.5z" />
    <glyph glyph-name="degree" unicode="&#xb0;" horiz-adv-x="167" 
d="M116 817q27 0 45 -19t18 -47t-18.5 -47t-46.5 -19q-27 0 -45.5 19.5t-18.5 47.5q0 27 19 46t47 19zM114 793q-17 0 -28.5 -12.5t-11.5 -29.5t12 -29t28 -12q17 0 28.5 12t11.5 29t-11.5 29.5t-28.5 12.5z" />
    <glyph glyph-name="cent" unicode="&#xa2;" horiz-adv-x="385" 
d="M204 161q5 5 5 -76h-34v78q-75 11 -123.5 71t-48.5 135q0 77 46 143q50 69 126 86v65h34v-61h6q35 0 76 -19q49 -24 49 -56q0 -13 -84 -73q-16 -12 -30 -24l-4 12q-1 3 -1 8v10q8 7 22 27t25 28q-11 27 -59 36v-331h6q37 0 72 15q41 18 42 48q11 11 17 3q2 -2 6 -9
q-1 -50 -51 -85q-45 -31 -97 -31zM175 553q-59 -3 -93 -47q-30 -40 -30 -96q0 -55 34 -109q36 -57 89 -75v327z" />
    <glyph glyph-name="sterling" unicode="&#xa3;" horiz-adv-x="517" 
d="M393 249h-113q4 -20 4 -46t-14.5 -60t-33.5 -54q107 -46 178 -46q38 0 76 43l14 -13q-8 -11 -24 -32q-14 -15 -46 -31.5t-53 -16.5q-124 0 -189 43q-44 -26 -50 -29q-31 -15 -58 -15q-28 0 -51 16t-23 39q0 36 27 61.5t69 25.5t104 -28q0 12 8.5 34.5t8.5 34.5
q0 36 -15 74h-153v30h139q-10 19 -24 40h-115v30h95q-63 95 -63 147q0 79 56.5 127t152.5 48q42 0 94 -34q43 -28 73 -64q-20 -21 -70 -59q-7 37 -52 81q-48 47 -90 47q-93 0 -93 -72q0 -36 24 -85q23 -44 64 -136h143v-30h-132q8 -20 12 -40h120v-30zM166 59q-26 25 -73 25
q-17 0 -29.5 -13.5t-12.5 -27.5q0 -5 11 -12q15 -10 16 -11h5q54 0 83 39z" />
    <glyph glyph-name="section" unicode="&#xa7;" horiz-adv-x="41" 
 />
    <glyph glyph-name="bullet" unicode="&#x2022;" horiz-adv-x="297" 
d="M143 389q35 0 59 -24.5t24 -59.5t-24.5 -59.5t-59.5 -24.5t-59.5 24.5t-24.5 59.5q0 36 24.5 60t60.5 24z" />
    <glyph glyph-name="paragraph" unicode="&#xb6;" horiz-adv-x="390" 
d="M167 305h-22q-142 0 -142 175q0 90 35 132.5t120 42.5h210v-32q-27 -2 -34 -6q-13 -6 -13 -28v-599q0 -43 3 -49q6 -12 44 -15v-32h-258v32q31 0 40 3q17 6 17 31v345zM167 623q-42 1 -57 -35q-9 -22 -9 -73v-73q0 -108 57 -108h9v289zM274 623h-61v-697h61v697z" />
    <glyph glyph-name="germandbls" unicode="&#xdf;" 
 />
    <glyph glyph-name="registered" unicode="&#xae;" horiz-adv-x="386" 
d="M180 662q61 0 105 -45t44 -106q0 -62 -44.5 -106t-106.5 -44t-106 44t-44 106q0 64 44 107.5t108 43.5zM177 643q-54 0 -92 -39t-38 -93t38.5 -93t92.5 -39t92.5 39t38.5 93q0 56 -38 94t-94 38zM156 513v-65h25v-16h-82v16h26v140h-4.5h-10.5q-7 -1 -11 -1v17h83
q64 0 64 -44q0 -31 -41 -42q18 -10 27 -49q2 -5 5 -14q2 -3 4 -3q7 0 7 23h15v-5q0 -41 -31 -41q-26 0 -31 32q-6 39 -14 45.5t-31 6.5zM156 529h22q34 0 34 30q0 29 -25 29h-31v-59z" />
    <glyph glyph-name="copyright" unicode="&#xa9;" horiz-adv-x="730" 
d="M343 670q137 0 235.5 -100.5t98.5 -238.5q0 -140 -99.5 -239.5t-239.5 -99.5q-139 0 -238.5 99.5t-99.5 238.5q0 144 99.5 242t243.5 98zM335 628q-120 0 -205 -88.5t-85 -208.5q0 -123 85.5 -210t208.5 -87q122 0 208 87t86 209q0 125 -86.5 211.5t-211.5 86.5zM477 530
v-166h-32q-17 69 -29 89q-25 44 -78 44q-101 0 -101 -171q0 -157 107 -157q92 0 112 116l36 -6q-18 -147 -154 -147q-82 0 -132 57t-50 140q0 80 50 140q53 64 132 64q43 0 90 -31l20 28h29z" />
    <glyph glyph-name="trademark" unicode="&#x2122;" horiz-adv-x="564" 
d="M189 652l1 -89h-20q0 15 -5 43q-11 26 -38 26q-10 0 -10 -8v-174q28 1 34 1v-21h-108v21l35 -1q-1 24 -1 174q0 8 -10 8q-17 0 -29 -12.5t-13 -29.5q1 -9 -1 -27h-19v89h184zM305 652l58 -153l55 153h77l1 -21h-33q1 -10 1 -18q0 -50 -1 -161l33 -1v-21h-103v21q4 0 32 1
l1 161l-66 -182h-13l-69 183v-116q0 -28 4 -35q6 -12 30 -12v-21h-91v21q24 0 30 11q3 7 3 35q0 111 1 132h-33v23h83z" />
    <glyph glyph-name="acute" unicode="&#xb4;" horiz-adv-x="304" 
d="M163 674l141 70q22 11 22 34q0 33 -33 33q-23 0 -40 -18l-115 -121z" />
    <glyph glyph-name="dieresis" unicode="&#xa8;" horiz-adv-x="320" 
d="M88 774q20 0 34.5 -15t14.5 -35t-14.5 -35t-35.5 -15q-20 0 -35 14.5t-15 35.5t15 35.5t36 14.5zM237 774q20 0 34.5 -15t14.5 -35q0 -21 -14.5 -35.5t-35.5 -14.5q-20 0 -35 14.5t-15 35.5t15 35.5t36 14.5z" />
    <glyph glyph-name="AE" unicode="&#xc6;" horiz-adv-x="791" 
d="M722 363q-33 -44 -101 -130l-8 5v3q0 3 18 31.5t18 44.5q0 46 -64 70q-50 19 -104 17v25q30 9 71 9q40 0 99 -21q71 -24 71 -54zM291 511q-14 0 -30 -5q-30 -9 -30 -86l-17 -6q-1 41 16 79q20 48 56 48q26 0 26 -16q0 -13 -6 -14q2 0 -15 0zM794 86l-90 -98
q-45 29 -140 29q-14 0 -40 -8.5t-38 -8.5h-106q-19 0 -19 10q0 9 16.5 31.5t16.5 34.5v407q0 139 -112 139q-60 0 -102 -66q-38 -58 -38 -120q0 -59 39.5 -170.5t39.5 -169.5q0 -99 -73 -99q-67 0 -105 39.5t-38 107.5q0 91 64 150l3 -17q-50 -52 -50 -116q0 -36 16 -78
q20 -51 50 -51q21 0 34 27q10 21 10 45q0 42 -25 124t-25 128q0 104 67 198q74 103 173 103q87 0 130 -69q74 71 180 71q-10 0 116 -27q-19 -12 -96 -191l-19 4q43 82 43 103q0 22 -44 42q-38 17 -63 17q-91 0 -91 -105v-427q0 -18 8 -30q75 65 149 65q60 0 125 -31l28 13z
M379 354q0 -3 -42.5 -53.5t-42.5 -69.5q0 -4 23.5 -49.5t23.5 -72.5q0 -23 -10 -41q-13 -21 -34 -21q-25 0 -38 30q-11 23 -11 51q0 44 23 101q-51 83 -50 103l19 -2q3 -18 41 -77q30 48 30 52q0 22 -37 36q-28 10 -55 10q-6 0 -18 -2.5t-18 -2.5q-10 0 -10 25q44 30 102 30
q25 0 61 -12q43 -15 43 -35zM321 113q0 23 -13 50q-13 22 -25 45q-13 -21 -13 -57q0 -81 23 -81q28 0 28 43z" />
    <glyph glyph-name="Oslash" unicode="&#xd8;" horiz-adv-x="562" 
d="M377 490l-96 -140q71 -60 71 -106q0 -15 -11.5 -30.5t-26.5 -15.5q-6 0 -14 6t-8 12q0 5 7 16.5t7 18.5q0 38 -39 79l-132 -194q84 -112 180 -112q65 0 100 84q28 64 28 139q0 126 -66 243zM13 9l53 78q-51 99 -51 195q0 80 48 179q54 114 120 111l21 -1l-4 -13l-20 2
q-20 2 -56 -36q-52 -55 -67 -154q-2 -12 -2 -25q0 -86 62 -183l128 188q-21 18 -87 63q-49 34 -57 50l9 15q13 -14 41 -37q67 -40 107 -72l102 150q-79 119 -192 119q-37 0 -67 -21q-34 -24 -34 -60q0 -21 9 -34l-13 -22q-16 34 -16 54q0 99 136 99q13 0 28 -1q36 1 113 -2
q47 -6 88 -56l45 66l25 -17l-51 -74q33 -51 54 -120q19 -63 20 -109q1 -110 -46 -214q-57 -127 -149 -127h-73q-75 0 -89 4q-35 10 -65 55l-45 -67z" />
    <glyph glyph-name="plusminus" unicode="&#xb1;" 
 />
    <glyph glyph-name="yen" unicode="&#xa5;" horiz-adv-x="423" 
d="M357 194h-87l-1 -153q0 -18 35 -38q1 -2 0 -3l-129 1l13 5q23 17 23 35q0 43 1 91v62h-80v30h80v50h-80v30h80v40q-12 34 -52 134q-41 107 -48 119q-10 19 -36 35q-30 20 -34 25h130q0 -2 87 -258q73 115 73 173q0 40 -39 83h90q21 -15 21 -48q0 -45 -67 -136.5
t-67 -92.5v-74h87v-30h-87v-50h87v-30z" />
    <glyph glyph-name="mu" unicode="&#xb5;" horiz-adv-x="552" 
d="M534 612q0 -9 -24 -39t-33 -30l-22 17.5t-60 17.5q-32 0 -65 -16q-13 -6 -58 -34q0 9 3 22q42 35 83 69q50 39 99 39q24 0 48 -11q29 -14 29 -35zM79 269l94 84v201q0 22 -19 22q-23 0 -63 -24q-43 -26 -45 -46q-3 -26 44 -26q29 0 68 23v-21q-31 -22 -73 -22
q-24 0 -45 11q-27 13 -27 35q0 58 247 153q8 3 10 -1t-2 -9q-15 -11 -15 -46v-179q84 74 84 71v-49l-84 -73v-207q0 -29 -38 -59q-20 -16 -71 -44q-39 -21 -40 -29q-8 -9 8 -14q44 2 145 47q98 43 154 43q25 0 67 -13q50 -16 51 -33l-62 -70q-32 22 -52.5 28t-61.5 6
q-42 0 -123.5 -17t-121.5 -17q-41 0 -41 24q0 19 53 61t53 74v151l-92 -79z" />
    <glyph glyph-name="mu" unicode="&#x3bc;" horiz-adv-x="552" 
d="M534 612q0 -9 -24 -39t-33 -30l-22 17.5t-60 17.5q-32 0 -65 -16q-13 -6 -58 -34q0 9 3 22q42 35 83 69q50 39 99 39q24 0 48 -11q29 -14 29 -35zM79 269l94 84v201q0 22 -19 22q-23 0 -63 -24q-43 -26 -45 -46q-3 -26 44 -26q29 0 68 23v-21q-31 -22 -73 -22
q-24 0 -45 11q-27 13 -27 35q0 58 247 153q8 3 10 -1t-2 -9q-15 -11 -15 -46v-179q84 74 84 71v-49l-84 -73v-207q0 -29 -38 -59q-20 -16 -71 -44q-39 -21 -40 -29q-8 -9 8 -14q44 2 145 47q98 43 154 43q25 0 67 -13q50 -16 51 -33l-62 -70q-32 22 -52.5 28t-61.5 6
q-42 0 -123.5 -17t-121.5 -17q-41 0 -41 24q0 19 53 61t53 74v151l-92 -79z" />
    <glyph glyph-name="ordfeminine" unicode="&#xaa;" horiz-adv-x="642" 
d="M601 386q0 -86 -123 -160q-111 -66 -206 -66q-65 0 -111 18q-65 25 -65 79q0 60 50 98q45 34 107 36l41 1q55 92 102 140q52 54 135 99q-1 3 -8 1l-11 -2q-88 0 -175 -22q-96 -25 -158 -70q-27 67 -91 115h446q25 0 35.5 5.5t16.5 5.5q14 0 14 -7q0 1 -13.5 -11
t-18.5 -22q-37 -44 -68 -83q-73 -94 -104 -147q14 -1 39 -1q58 0 71 -6q-1 -84 -159 -77q-16 -26 -80 -115l-73 14q-7 -5 64 105l-46 1q-35 1 -63 -15q-34 -19 -34 -52q0 -36 72 -55q50 -13 101 -13q77 0 177 61q110 66 110 136q0 59 -51 59q-9 0 -19 -3l-10 11q0 20 32 20
q30 0 52 -24t22 -54zM566 36q-9 -10 -100 -80q-9 10 -27 27q-45 36 -146 36q-45 0 -137 -16t-126 -16q-3 0 -5 3t-5 4q0 7 41 45q48 45 54 52l55 68q19 -7 77 -17q1 -14 -41 -46q-27 -21 -55 -41l3 -3q148 46 219 46q47 0 108 -25q57 -23 83 -20q13 -4 2 -17zM313 684
l-95 116h27l92 -67l92 67h27l-94 -116h-49z" />
    <glyph glyph-name="ordmasculine" unicode="&#xba;" horiz-adv-x="546" 
d="M501 308q0 -69 -105 -128q-94 -52 -175 -52q-55 0 -94 14q-55 20 -55 63q0 47 42 78q38 28 91 29l35 1q47 73 86 111q45 43 115 79q-1 2 -7 1l-9 -2q-175 0 -283 -73q-23 54 -77 91h379q21 0 30 4.5t14 4.5q4 0 9 -2.5t2 -4.5q-20 -12 -26 -25q-32 -35 -58 -66
q-62 -75 -88 -117q12 -1 33 -1q49 0 60 -4q-1 -67 -135 -62q-13 -21 -68 -91l-62 11q-6 -5 54 83l-39 1q-29 1 -53 -12q-29 -15 -29 -41q0 -29 61 -44q42 -10 86 -10q65 0 150 48q94 53 94 109q0 46 -44 46q-8 0 -16 -2l-8 9q0 16 27 16q25 0 44 -19.5t19 -42.5zM471 29
q-7 -8 -85 -64q-8 8 -23 22q-39 28 -124 28q-38 0 -116.5 -12.5t-106.5 -12.5q-3 0 -4.5 2.5t-4.5 2.5q0 6 35 36q41 36 46 42l47 54q16 -6 65 -14q1 -11 -35 -36q-23 -17 -47 -33l3 -2q126 36 186 36q40 0 92 -19q48 -19 70 -17q12 -3 2 -13zM256 545l-81 92h23l78 -53
l79 53h22l-79 -92h-42z" />
    <glyph glyph-name="ae" unicode="&#xe6;" horiz-adv-x="664" 
d="M599 294q-27 -36 -83 -106l-6 5v2q0 2 14.5 25.5t14.5 35.5q0 37 -52 57q-41 15 -85 14v20q27 7 58 7q33 0 81 -16q58 -20 58 -44zM246 413q-13 0 -25 -4q-22 -7 -25 -69l-13 -5q-1 33 13 64q17 39 46 39q21 0 21 -14q0 -10 -5 -11q2 0 -12 0zM659 69l-74 -78
q-38 23 -115 23q-12 0 -33 -7t-31 -7h-87q-15 0 -15 8q0 7 13 25.5t13 28.5v328q0 113 -91 113q-49 0 -85 -53q-31 -47 -31 -97q0 -48 33 -138t33 -137q0 -80 -60 -80q-55 0 -86 31.5t-31 87.5q0 73 52 121l2 -14q-41 -43 -41 -94q0 -29 13 -62q17 -42 42 -42q17 0 27 22
q8 16 8 36q0 34 -20.5 100.5t-20.5 103.5q0 84 55 161q61 83 142 83q73 0 107 -57q60 58 148 58q7 0 95 -22q-18 -11 -79 -154l-15 3q35 74 35 83q0 18 -36 34q-31 14 -52 14q-75 0 -75 -85v-345q0 -14 7 -25q61 53 122 53q49 0 102 -25l24 11zM318 287q0 -3 -34.5 -43.5
t-34.5 -56.5q0 -3 19 -40t19 -59q0 -18 -9.5 -34t-26.5 -16q-20 0 -31 24q-9 19 -9 42q0 34 19 81q-42 66 -41 84l15 -2q3 -18 34 -62q25 38 25 42q0 18 -30 29q-23 8 -46 8q-5 0 -15 -2t-14 -2q-5 0 -9 20q35 24 84 24q21 0 50 -9q35 -12 35 -28zM271 92q0 18 -11 40
q-11 19 -21 37q-10 -18 -10 -47q0 -65 19 -65q23 0 23 35z" />
    <glyph glyph-name="oslash" unicode="&#xf8;" horiz-adv-x="486" 
d="M320 398l-81 -114q60 -49 60 -86q0 -12 -9.5 -25t-22.5 -13q-6 0 -12.5 5t-6.5 10q0 4 6 13.5t6 15.5q0 32 -33 63l-112 -157q72 -90 153 -90q55 0 85 68q24 52 24 112q0 102 -57 198zM11 7l45 64q-43 78 -43 158q0 63 42 143q48 91 104 91h14l-3 -10l-16 -1
q-42 -3 -77 -68q-30 -57 -30 -104q0 -69 53 -148l109 152q-17 14 -74 51q-42 27 -49 41l7 11q12 -11 35 -29q29 -17 91 -59l87 121q-68 98 -163 98q-31 0 -57 -18q-29 -19 -29 -49q0 -18 7 -27l-10 -17q-14 25 -14 43q0 90 141 81q30 1 95 -2q37 -4 74 -46l38 53l21 -14
l-43 -60q28 -40 45 -101q14 -52 15 -92q1 -91 -32 -169q-43 -98 -121 -99l-71 -1q-60 -1 -76 4q-31 10 -56 44l-38 -54z" />
    <glyph glyph-name="questiondown" unicode="&#xbf;" horiz-adv-x="501" 
d="M273 456l13 -2q-11 -129 -153 -213q-33 -19 -33 -69q0 -64 55 -102q46 -33 106 -33q49 0 103 22q74 30 74 82q0 28 -23 28q-22 0 -59 -30q-1 0 -57 -51l-19 18q23 31 66 63q47 36 75 36h3q22 0 35.5 -18.5t13.5 -39.5q0 -61 -87 -112q-79 -46 -152 -45q-8 -1 -36 0
q-184 10 -184 123q0 68 90 147q50 44 101 88q38 42 44 107zM212 587q0 24 13 47q15 27 40 27q30 0 47 -35q12 -26 12 -51q0 -26 -12 -48q-16 -28 -47 -28q-25 0 -41 38q-12 29 -12 50z" />
    <glyph glyph-name="exclamdown" unicode="&#xa1;" horiz-adv-x="209" 
d="M39 579q0 27 14.5 50.5t39.5 23.5q27 0 44 -31q14 -26 14 -55q0 -30 -14 -51q-17 -24 -45 -24q-23 0 -39 33q-14 28 -14 54zM119 453l29 -423l29 -3v-20q-8 1 -16 1q-24 0 -46 -19t-45 -19q-16 0 -32 8l38 475h43z" />
    <glyph glyph-name="logicalnot" unicode="&#xac;" 
 />
    <glyph glyph-name="florin" unicode="&#x192;" 
 />
    <glyph glyph-name="guillemotleft" unicode="&#xab;" horiz-adv-x="443" 
d="M205 243l172 159l11 -11l-96 -148l95 -147l-11 -11zM38 243l171 159l11 -11l-95 -148l95 -147l-11 -11z" />
    <glyph glyph-name="guillemotright" unicode="&#xbb;" horiz-adv-x="421" 
d="M221 243l-171 -158l-11 11l95 147l-95 148l11 11zM388 243l-171 -158l-11 11l95 147l-95 148l11 11z" />
    <glyph glyph-name="ellipsis" unicode="&#x2026;" horiz-adv-x="627" 
d="M385 74q0 -25 -12 -47q-15 -27 -41 -27q-30 0 -47 31q-13 24 -13 48q0 27 12 49q16 31 46 31q26 0 42 -31q13 -25 13 -54zM585 74q0 -25 -12 -47q-15 -27 -41 -27q-30 0 -47 31q-13 24 -13 48q0 27 12 49q16 31 46 31q26 0 42 -31q13 -25 13 -54zM185 74q0 -25 -12 -47
q-15 -27 -41 -27q-30 0 -47 31q-13 24 -13 48q0 27 12 49q16 31 46 31q26 0 42 -31q13 -25 13 -54z" />
    <glyph glyph-name="nonbreakingspace" unicode="&#xa0;" 
 />
    <glyph glyph-name="Agrave" unicode="&#xc0;" horiz-adv-x="563" 
d="M389 354q0 -6 -21 -28q-13 -15 -27 -29q-37 -59 -37 -66q0 -3 23.5 -48.5t23.5 -73.5q0 -23 -11 -41q-12 -21 -33 -21q-25 0 -38 30q-11 23 -11 51q0 35 10 66q13 40 13 35q-51 86 -50 103q3 2 11 1q8 0 8 -3q3 -18 41 -77q30 46 30 52q0 22 -37 36q-28 10 -55 10
q-6 0 -18 -2.5t-18 -2.5q-10 0 -10 25q45 30 102 30q25 0 60 -12q44 -15 44 -35zM321 522q-3 -12 -6 -12h-5q-5 1 -9 1q-12 0 -30 -5q-27 -7 -30 -86l-17 -6q1 33 7 58q17 60 62 69q8 2 19 -4.5t9 -14.5zM542 15q0 -14 -24 -14h-105q-18 4 -18 21q0 6 4.5 19.5t4.5 19.5v422
q0 13 -7 53q-15 89 -105 86q-26 -1 -57 -21.5t-47 -44.5q-36 -54 -36 -120q0 -50 39.5 -171t39.5 -169q0 -71 -28 -86q-24 -13 -45 -13q-37 0 -57 5q-36 9 -63 58q-23 44 -23 84q0 91 64 150q3 -2 3 -17q0 6 -25 -35t-25 -81q0 -36 17 -78q20 -51 49 -51q21 0 34 27
q10 21 10 45q0 31 -17 86q-23 72 -26 85q-7 34 -7 81q0 29 11 75.5t24 72.5q25 50 71 93q52 50 99 57q28 4 47 4q2 0 25 -4q52 -9 85.5 -54t33.5 -98v-39l-1 -370q0 -15 2 -35q1 -14 27 -24.5t26 -18.5zM331 113q0 23 -13 50q-13 23 -25 45q-13 -19 -13 -57q0 -79 23 -81
q28 -2 28 43zM365 674l-141 70q-22 11 -22 34q0 33 32 33q24 0 41 -18l114 -121z" />
    <glyph glyph-name="Atilde" unicode="&#xc3;" horiz-adv-x="563" 
d="M389 354q0 -6 -21 -28q-13 -15 -27 -29q-37 -59 -37 -66q0 -3 23.5 -48.5t23.5 -73.5q0 -23 -11 -41q-12 -21 -33 -21q-25 0 -38 30q-11 23 -11 51q0 35 10 66q13 40 13 35q-51 86 -50 103q3 2 11 1q8 0 8 -3q3 -18 41 -77q30 46 30 52q0 22 -37 36q-28 10 -55 10
q-6 0 -18 -2.5t-18 -2.5q-10 0 -10 25q45 30 102 30q25 0 60 -12q44 -15 44 -35zM321 522q-3 -12 -6 -12h-5q-5 1 -9 1q-12 0 -30 -5q-27 -7 -30 -86l-17 -6q1 33 7 58q17 60 62 69q8 2 19 -4.5t9 -14.5zM542 15q0 -14 -24 -14h-105q-18 4 -18 21q0 6 4.5 19.5t4.5 19.5v422
q0 13 -7 53q-15 89 -105 86q-26 -1 -57 -21.5t-47 -44.5q-36 -54 -36 -120q0 -50 39.5 -171t39.5 -169q0 -71 -28 -86q-24 -13 -45 -13q-37 0 -57 5q-36 9 -63 58q-23 44 -23 84q0 91 64 150q3 -2 3 -17q0 6 -25 -35t-25 -81q0 -36 17 -78q20 -51 49 -51q21 0 34 27
q10 21 10 45q0 31 -17 86q-23 72 -26 85q-7 34 -7 81q0 29 11 75.5t24 72.5q25 50 71 93q52 50 99 57q28 4 47 4q2 0 25 -4q52 -9 85.5 -54t33.5 -98v-39l-1 -370q0 -15 2 -35q1 -14 27 -24.5t26 -18.5zM331 113q0 23 -13 50q-13 23 -25 45q-13 -19 -13 -57q0 -79 23 -81
q28 -2 28 43zM192 695l-18 12q26 63 64 66q18 1 59 -19.5t54 -19.5q30 2 47 36l19 -16q-25 -64 -64 -66q-17 -1 -58.5 19.5t-54.5 19.5q-34 -2 -48 -32z" />
    <glyph glyph-name="Otilde" unicode="&#xd5;" horiz-adv-x="562" 
d="M505 341q1 -110 -46 -214q-57 -127 -149 -127h-73q-76 0 -89 4q-58 18 -99 119q-34 86 -34 159q0 80 48 179q54 114 120 111l21 -1l-4 -13l-20 2q-20 2 -56 -36q-52 -55 -67 -154q-2 -12 -2 -25q0 -101 79 -207q84 -114 181 -114q65 0 100 84q28 64 28 139q0 130 -70 250
q-82 141 -205 141q-37 0 -67 -21q-34 -24 -34 -60q0 -21 9 -34l-13 -22q-16 34 -16 54q0 99 136 99q13 0 28 -1q36 1 113 -2q75 -9 132 -125q48 -100 49 -185zM352 244q0 -15 -11.5 -30.5t-26.5 -15.5q-6 0 -14 6t-8 12q0 5 7 16.5t7 18.5q0 43 -48 88q-25 24 -93 70
q-55 37 -64 54l9 15q13 -14 41 -37q201 -121 201 -197zM142 695l-18 12q26 63 64 66q18 1 59 -19.5t54 -19.5q30 2 47 36l19 -16q-25 -64 -64 -66q-17 -1 -58.5 19.5t-54.5 19.5q-34 -2 -48 -32z" />
    <glyph glyph-name="OE" unicode="&#x152;" horiz-adv-x="842" 
d="M772 363q0 -7 -58 -73h-7q-2 19 -14 52q-21 29 -73 47q-44 14 -89 15v25q35 9 71 9q40 0 99 -21q71 -24 71 -54zM262 324q0 -15 -11.5 -30.5t-26.5 -15.5q-6 0 -14 6t-8 12q0 5 7 16.5t7 18.5q0 44 -24 67q-10 10 -49 29q-32 16 -42 36l9 15q17 -10 51.5 -32t71.5 -45
q29 -26 29 -77zM377 292q16 -11 66 -35q-3 132 -74 247q-81 134 -201 134q-37 0 -67 -22q-34 -24 -34 -59q0 -21 9 -34l-13 -22q-16 32 -16 54q0 100 138 100q1 0 66 2q40 1 67 -2q81 -10 139 -132q26 61 92 100q62 36 133 36q7 0 60 -12.5t56 -14.5l-2 -12
q-30 -29 -94 -179l-19 4q43 86 43 103q0 21 -44 42q-38 17 -63 17q-58 0 -81.5 -26t-23.5 -84q0 -107 2 -179q1 -40 2.5 -51t1.5 -13q46 6 76 33q18 17 52 69l16 -10q-46 -66 -57 -76q-31 -28 -87 -31l-1.5 -20.5t-1.5 -29.5q0 -57 -41 -97q-11 -11 -73 -51q-11 -11 -26 -21
q3 0 6 1q10 4 12 4q1 0 1 -1q3 1 133 52q88 34 156 34q60 0 125 -31l28 13l6 -6q-38 -46 -45 -54q-36 -42 -45 -44q-71 45 -161 45q-44 0 -113 -14q-89 -17 -112 -20q0 -7 -172 0q-87 0 -139 101q-42 83 -42 182q0 94 47 185q57 109 142 104l-4 -13q-58 5 -105 -77
q-40 -72 -40 -136q0 -91 67 -191q71 -106 159 -126q13 0 30.5 -1t19.5 -1h1q53 10 84 82q24 57 27 126q-80 19 -103 79l12 13z" />
    <glyph glyph-name="oe" unicode="&#x153;" horiz-adv-x="682" 
d="M616 288q0 -2 -21 -28q-25 -31 -25 -32h-6q-2 16 -11 43q-34 49 -130 51v20q24 8 57 8q32 0 79 -17q57 -21 57 -45zM207 256q0 -12 -9 -25t-21 -13q-5 0 -11 5t-6 10q0 4 5 13.5t5 15.5q0 36 -19 55q-8 8 -39 24q-25 14 -33 30l7 11q13 -8 41 -26t57 -37q23 -22 23 -63z
M300 230q13 -9 53 -28q-4 108 -60 202q-65 110 -161 110q-30 0 -54 -18q-27 -19 -27 -49q0 -15 7 -28l-10 -17q-13 26 -13 44q0 82 111 82h107q64 -8 111 -109q20 51 73 82q50 30 107 30q5 0 47.5 -10t45.5 -12l-2 -10q-27 -27 -75 -147l-15 4q34 68 34 84q0 18 -35 34
q-31 15 -51 15q-46 0 -65 -21.5t-19 -69.5q0 -86 2 -147q1 -33 2 -41.5t1 -10.5q37 5 61 27q13 13 42 56l13 -8q-39 -55 -46 -62q-24 -23 -70 -26l-1 -17t-1 -24q0 -47 -33 -79q-7 -8 -58 -42q-12 -12 -21 -17q8 4 15 3q2 0 107 43q70 28 124 28q48 0 100 -26l23 11l5 -5
l-36 -44q-30 -35 -37 -36q-55 36 -128 36q-35 0 -90 -11q-71 -14 -91 -16q0 -7 -137 0q-70 0 -111 83q-34 68 -34 149q0 77 38 151q45 89 113 86l-3 -11q-47 5 -84 -63q-32 -59 -32 -111q0 -75 53 -157q57 -87 128 -103q34 -2 39 -2h2q42 8 67 67q19 46 22 103
q-64 17 -83 66l10 10z" />
    <glyph glyph-name="endash" unicode="&#x2013;" horiz-adv-x="632" 
d="M0 267h556v-61h-556v61z" />
    <glyph glyph-name="emdash" unicode="&#x2014;" horiz-adv-x="1076" 
d="M0 267h1000v-61h-1000v61z" />
    <glyph glyph-name="quotedblleft" unicode="&#x201c;" horiz-adv-x="365" 
d="M134 448l15 19q-53 35 -53 77q14 4 29 8q25 10 26 53q1 24 -15.5 41.5t-41.5 17.5q-29 0 -45 -21t-16 -51q0 -82 101 -144zM284 448l15 19q-53 35 -53 77q14 4 29 8q25 10 26 53q1 24 -15.5 41.5t-41.5 17.5q-29 0 -45 -21t-16 -51q0 -82 101 -144z" />
    <glyph glyph-name="quotedblright" unicode="&#x201d;" horiz-adv-x="348" 
d="M200 448l-14 19q52 36 52 77q-14 4 -29 8q-24 10 -26 53q-1 24 16 41.5t42 17.5q29 0 45 -21t16 -51q0 -81 -102 -144zM50 448l-14 19q52 36 52 77q-14 4 -29 8q-24 10 -26 53q-1 24 16 41.5t42 17.5q29 0 45 -21t16 -51q0 -81 -102 -144z" />
    <glyph glyph-name="quoteleft" unicode="&#x2018;" horiz-adv-x="213" 
d="M132 448l15 19q-52 36 -52 77l28 8q24 10 26 53q1 24 -15.5 41.5t-41.5 17.5q-29 0 -45 -21t-16 -51q0 -81 101 -144z" />
    <glyph glyph-name="quoteright" unicode="&#x2019;" horiz-adv-x="198" 
d="M50 448l-14 19q52 36 52 77q-14 4 -29 8q-24 10 -26 53q-1 24 16 41.5t42 17.5q29 0 45 -21t16 -51q0 -81 -102 -144z" />
    <glyph glyph-name="divide" unicode="&#xf7;" horiz-adv-x="514" 
d="M264 129q22 0 38.5 -16.5t16.5 -39.5q0 -22 -16.5 -38.5t-39.5 -16.5t-39.5 16.5t-16.5 39.5t17 39t40 16zM264 488q23 0 39 -16t16 -39t-16.5 -39.5t-39.5 -16.5t-39.5 17t-16.5 40t17 38.5t40 15.5zM36 217v72h453v-72h-453z" />
    <glyph glyph-name="ydieresis" unicode="&#xff;" horiz-adv-x="440" 
d="M243 514q0 -15 -22 -24.5t-22 -21.5q0 -18 19 -36l-6 -13q-12 8 -31 26q-9 16 -9 34q0 23 12.5 40.5t35.5 17.5t23 -23zM389 448q0 -204 -291 -360q-11 -6 -24.5 -23t-13.5 -29q0 -32 34 -32t106.5 54t126.5 54q23 0 39 -13.5t16 -36.5q0 -19 -9 -36q-10 -20 -26 -20
l-7 1q0 28 -6.5 37.5t-34.5 9.5q-37 0 -107.5 -35.5t-94.5 -35.5q-62 0 -62 53q0 32 35 60q21 16 67 38q40 19 44 26q-74 136 -150 272q-20 6 -27 5l-4.5 1.5t-2.5 3.5q51 52 88 82q3 2 5.5 -1l2.5 -3q-7 -19 0 -46q0 -7 63 -133q65 -131 80 -133q35 37 63 95q29 62 29 110
q0 54 -25 54q-27 0 -60 -55q-31 -50 -31 -80q0 -9 5.5 -21t12.5 -12q29 0 29 42q0 22 -18 51l8 9q34 -29 34 -54t-12 -43q-13 -22 -36 -22q-19 0 -30 17t-11 37q0 46 58.5 119t99.5 73q15 0 27 -33q10 -27 10 -47zM165 628q14 0 24.5 -10.5t10.5 -25.5t-10.5 -25.5
t-25.5 -10.5t-25.5 10.5t-10.5 25.5t10.5 25.5t26.5 10.5zM272 628q15 0 25.5 -10.5t10.5 -25.5t-10.5 -25.5t-25.5 -10.5t-25.5 10.5t-10.5 25.5t10.5 25.5t25.5 10.5z" />
    <glyph glyph-name="Ydieresis" unicode="&#x178;" horiz-adv-x="583" 
d="M336 656q0 -21 -30 -34t-30 -30q0 -25 26 -49l-9 -18q-15 11 -42 36q-13 22 -13 46q0 33 17.5 57t48.5 24q32 0 32 -32zM538 565q0 -157 -133 -299q-101 -109 -269 -199q-16 -9 -34 -31q-19 -25 -19 -41q0 -45 47 -45q42 0 98 39q51 35 102 71q63 39 122 39
q32 0 54.5 -18.5t22.5 -50.5q0 -25 -12 -49q-15 -28 -37 -28l-10 2q0 39 -9.5 51.5t-46.5 12.5q-51 0 -148.5 -49t-131.5 -49q-85 0 -85 73q0 45 48 83q29 23 93 53q55 26 61 36q-102 188 -208 377q-27 8 -38 6q1 1 -5.5 3t-3.5 5q114 114 125 114q3 0 5.5 -3.5l2.5 -3.5
q-10 -26 0 -64q0 -9 87 -183q90 -182 110 -184q50 51 88 131q40 86 40 152q0 75 -34 75q-37 0 -83 -75q-43 -71 -43 -112q0 -13 7 -28q7 -18 18 -18q19 0 30 21q9 17 9 38q0 29 -25 70l11 13q48 -40 48 -75q0 -34 -16 -60q-19 -30 -51 -30q-26 0 -42 26q-14 21 -14 49
q0 63 81 164t137 101q21 0 37 -45q14 -38 14 -65zM228 814q20 0 34.5 -15t14.5 -35t-14.5 -35t-35.5 -15q-20 0 -35 14.5t-15 35.5t15 35.5t36 14.5zM377 814q20 0 34.5 -15t14.5 -35q0 -21 -14.5 -35.5t-35.5 -14.5q-20 0 -35 14.5t-15 35.5t15 35.5t36 14.5z" />
    <glyph glyph-name="guilsinglleft" unicode="&#x2039;" horiz-adv-x="276" 
d="M38 243l172 159l11 -11l-96 -148l95 -147l-11 -11z" />
    <glyph glyph-name="guilsinglright" unicode="&#x203a;" horiz-adv-x="254" 
d="M221 243l-171 -158l-11 11l95 147l-95 148l11 11z" />
    <glyph glyph-name="daggerdbl" unicode="&#x2021;" horiz-adv-x="322" 
d="M163 487q20 1 47.5 15.5t36.5 14.5q30 0 30 -40q0 -44 -32 -44q-8 0 -35.5 14t-46.5 15q0 -95 27 -144q-27 -49 -27 -145q21 1 46.5 15t35.5 14q32 0 32 -44q0 -40 -30 -40q-9 0 -36.5 14t-47.5 15q-1 -29 10 -75.5t11 -62.5q0 -44 -31 -44q-32 0 -32 45q0 14 8 44
q14 53 14 93q-20 -1 -48 -15t-37 -14q-30 0 -30 40q0 44 32 44q10 0 35.5 -14t47.5 -15q0 93 -28 145q28 51 28 144q-20 -1 -47 -15t-35 -14q-33 0 -33 44q0 40 30 40q9 0 37 -14.5t48 -15.5q0 46 -14 93q-8 40 -8 45q0 45 32 45q31 0 31 -45q0 -19 -10.5 -61t-10.5 -66v-11
z" />
    <glyph glyph-name="periodcentered" unicode="&#xb7;" horiz-adv-x="213" 
d="M100 309q25 0 43 -18t18 -44t-18 -44.5t-44 -18.5t-44.5 18.5t-18.5 44.5t18.5 44t45.5 18z" />
    <glyph glyph-name="periodcentered" unicode="&#x2219;" horiz-adv-x="213" 
d="M100 309q25 0 43 -18t18 -44t-18 -44.5t-44 -18.5t-44.5 18.5t-18.5 44.5t18.5 44t45.5 18z" />
    <glyph glyph-name="quotesinglbase" unicode="&#x201a;" horiz-adv-x="208" 
d="M50 -92l-14 19q52 36 52 77q-14 4 -29 8q-24 10 -26 53q-1 24 16 41.5t42 17.5q29 0 45 -21t16 -51q0 -81 -102 -144z" />
    <glyph glyph-name="quotedblbase" unicode="&#x201e;" horiz-adv-x="358" 
d="M200 -92l-14 19q52 36 52 77q-14 4 -29 8q-24 10 -26 53q-1 24 16 41.5t42 17.5q29 0 45 -21t16 -51q0 -81 -102 -144zM50 -92l-14 19q52 36 52 77q-14 4 -29 8q-24 10 -26 53q-1 24 16 41.5t42 17.5q29 0 45 -21t16 -51q0 -81 -102 -144z" />
    <glyph glyph-name="Acircumflex" unicode="&#xc2;" horiz-adv-x="563" 
d="M389 354q0 -6 -21 -28q-13 -15 -27 -29q-37 -59 -37 -66q0 -3 23.5 -48.5t23.5 -73.5q0 -23 -11 -41q-12 -21 -33 -21q-25 0 -38 30q-11 23 -11 51q0 35 10 66q13 40 13 35q-51 86 -50 103q3 2 11 1q8 0 8 -3q3 -18 41 -77q30 46 30 52q0 22 -37 36q-28 10 -55 10
q-6 0 -18 -2.5t-18 -2.5q-10 0 -10 25q45 30 102 30q25 0 60 -12q44 -15 44 -35zM321 522q-3 -12 -6 -12h-5q-5 1 -9 1q-12 0 -30 -5q-27 -7 -30 -86l-17 -6q1 33 7 58q17 60 62 69q8 2 19 -4.5t9 -14.5zM542 15q0 -14 -24 -14h-105q-18 4 -18 21q0 6 4.5 19.5t4.5 19.5v422
q0 13 -7 53q-15 89 -105 86q-26 -1 -57 -21.5t-47 -44.5q-36 -54 -36 -120q0 -50 39.5 -171t39.5 -169q0 -71 -28 -86q-24 -13 -45 -13q-37 0 -57 5q-36 9 -63 58q-23 44 -23 84q0 91 64 150q3 -2 3 -17q0 6 -25 -35t-25 -81q0 -36 17 -78q20 -51 49 -51q21 0 34 27
q10 21 10 45q0 31 -17 86q-23 72 -26 85q-7 34 -7 81q0 29 11 75.5t24 72.5q25 50 71 93q52 50 99 57q28 4 47 4q2 0 25 -4q52 -9 85.5 -54t33.5 -98v-39l-1 -370q0 -15 2 -35q1 -14 27 -24.5t26 -18.5zM331 113q0 23 -13 50q-13 23 -25 45q-13 -19 -13 -57q0 -79 23 -81
q28 -2 28 43zM341 801l104 -106h-27l-102 56l-102 -56h-27l105 106h49z" />
    <glyph glyph-name="Ecircumflex" unicode="&#xca;" horiz-adv-x="549" 
d="M508 632l-2 -12q-29 -27 -94 -179l-19 4q43 86 43 103q0 21 -44 42q-39 17 -63 17q-58 0 -82 -26t-24 -85v-228l-19 -3q-15 -1 -50 5l-1 182q0 90 75 150q70 57 164 57q19 0 53.5 -11t52.5 -11q5 0 10 -5zM482 363q0 -7 -58 -73h-7q-3 20 -14 52q-42 57 -162 62v25
q46 11 92 8q35 -3 86 -23q63 -25 63 -51zM374 346q-13 -21 -26 -43q-22 -33 -50 -51q-38 -25 -90 -25q-50 0 -89 20q-48 24 -48 69q0 48 58 77v-17q-39 -37 -39 -61q0 -65 119 -65q48 0 83 23q26 17 45 47q11 18 21 36zM554 86q-9 -12 -43 -52q-41 -46 -47 -46
q-69 45 -161 45q-47 0 -133 -25t-129 -25q-17 0 -34 8q-21 10 -21 25q0 29 36 44q29 9 57 19q38 19 55 56q10 23 18 77l72 -7v-12q0 -58 -56 -93q-25 -16 -103 -43q-56 -19 -56 -38q0 -8 12 -13.5t22 -5.5q30 0 155.5 55t196.5 55q58 0 125 -31l28 13zM361 801l104 -106h-27
l-102 56l-102 -56h-27l105 106h49z" />
    <glyph glyph-name="Aacute" unicode="&#xc1;" horiz-adv-x="563" 
d="M389 354q0 -6 -21 -28q-13 -15 -27 -29q-37 -59 -37 -66q0 -3 23.5 -48.5t23.5 -73.5q0 -23 -11 -41q-12 -21 -33 -21q-25 0 -38 30q-11 23 -11 51q0 35 10 66q13 40 13 35q-51 86 -50 103q3 2 11 1q8 0 8 -3q3 -18 41 -77q30 46 30 52q0 22 -37 36q-28 10 -55 10
q-6 0 -18 -2.5t-18 -2.5q-10 0 -10 25q45 30 102 30q25 0 60 -12q44 -15 44 -35zM321 522q-3 -12 -6 -12h-5q-5 1 -9 1q-12 0 -30 -5q-27 -7 -30 -86l-17 -6q1 33 7 58q17 60 62 69q8 2 19 -4.5t9 -14.5zM542 15q0 -14 -24 -14h-105q-18 4 -18 21q0 6 4.5 19.5t4.5 19.5v422
q0 13 -7 53q-15 89 -105 86q-26 -1 -57 -21.5t-47 -44.5q-36 -54 -36 -120q0 -50 39.5 -171t39.5 -169q0 -71 -28 -86q-24 -13 -45 -13q-37 0 -57 5q-36 9 -63 58q-23 44 -23 84q0 91 64 150q3 -2 3 -17q0 6 -25 -35t-25 -81q0 -36 17 -78q20 -51 49 -51q21 0 34 27
q10 21 10 45q0 31 -17 86q-23 72 -26 85q-7 34 -7 81q0 29 11 75.5t24 72.5q25 50 71 93q52 50 99 57q28 4 47 4q2 0 25 -4q52 -9 85.5 -54t33.5 -98v-39l-1 -370q0 -15 2 -35q1 -14 27 -24.5t26 -18.5zM331 113q0 23 -13 50q-13 23 -25 45q-13 -19 -13 -57q0 -79 23 -81
q28 -2 28 43zM233 674l141 70q22 11 22 34q0 33 -33 33q-23 0 -40 -18l-115 -121z" />
    <glyph glyph-name="Edieresis" unicode="&#xcb;" horiz-adv-x="549" 
d="M508 632l-2 -12q-29 -27 -94 -179l-19 4q43 86 43 103q0 21 -44 42q-39 17 -63 17q-58 0 -82 -26t-24 -85v-228l-19 -3q-15 -1 -50 5l-1 182q0 90 75 150q70 57 164 57q19 0 53.5 -11t52.5 -11q5 0 10 -5zM482 363q0 -7 -58 -73h-7q-3 20 -14 52q-42 57 -162 62v25
q46 11 92 8q35 -3 86 -23q63 -25 63 -51zM374 346q-13 -21 -26 -43q-22 -33 -50 -51q-38 -25 -90 -25q-50 0 -89 20q-48 24 -48 69q0 48 58 77v-17q-39 -37 -39 -61q0 -65 119 -65q48 0 83 23q26 17 45 47q11 18 21 36zM554 86q-9 -12 -43 -52q-41 -46 -47 -46
q-69 45 -161 45q-47 0 -133 -25t-129 -25q-17 0 -34 8q-21 10 -21 25q0 29 36 44q29 9 57 19q38 19 55 56q10 23 18 77l72 -7v-12q0 -58 -56 -93q-25 -16 -103 -43q-56 -19 -56 -38q0 -8 12 -13.5t22 -5.5q30 0 155.5 55t196.5 55q58 0 125 -31l28 13zM281 778
q17 0 29.5 -12.5t12.5 -29.5q0 -18 -12.5 -30.5t-30.5 -12.5q-17 0 -29.5 12.5t-12.5 29.5q0 18 12.5 30.5t30.5 12.5zM418 778q17 0 29 -12.5t12 -29.5q0 -18 -12 -30.5t-30 -12.5t-30.5 12.5t-12.5 29.5q0 18 13 30.5t31 12.5z" />
    <glyph glyph-name="Egrave" unicode="&#xc8;" horiz-adv-x="549" 
d="M508 632l-2 -12q-29 -27 -94 -179l-19 4q43 86 43 103q0 21 -44 42q-39 17 -63 17q-58 0 -82 -26t-24 -85v-228l-19 -3q-15 -1 -50 5l-1 182q0 90 75 150q70 57 164 57q19 0 53.5 -11t52.5 -11q5 0 10 -5zM482 363q0 -7 -58 -73h-7q-3 20 -14 52q-42 57 -162 62v25
q46 11 92 8q35 -3 86 -23q63 -25 63 -51zM374 346q-13 -21 -26 -43q-22 -33 -50 -51q-38 -25 -90 -25q-50 0 -89 20q-48 24 -48 69q0 48 58 77v-17q-39 -37 -39 -61q0 -65 119 -65q48 0 83 23q26 17 45 47q11 18 21 36zM554 86q-9 -12 -43 -52q-41 -46 -47 -46
q-69 45 -161 45q-47 0 -133 -25t-129 -25q-17 0 -34 8q-21 10 -21 25q0 29 36 44q29 9 57 19q38 19 55 56q10 23 18 77l72 -7v-12q0 -58 -56 -93q-25 -16 -103 -43q-56 -19 -56 -38q0 -8 12 -13.5t22 -5.5q30 0 155.5 55t196.5 55q58 0 125 -31l28 13zM384 684l-141 70
q-22 11 -22 34q0 33 32 33q24 0 41 -18l115 -121z" />
    <glyph glyph-name="Iacute" unicode="&#xcd;" horiz-adv-x="358" 
d="M302 630q-56 -4 -76 -28q-9 -11 -13 -39q1 -63 0 -177q-1 -32 0 -41q52 -39 62 -51q28 -33 28 -83q0 -25 -8 -50q-10 -34 -30 -34q-9 0 -16.5 7.5t-7.5 16.5q0 8 17.5 25.5t17.5 42.5q0 27 -17.5 53.5t-42.5 38.5l1 -203q0 -33 9 -49q13 -26 53 -32q9 -1 19.5 -2.5
t10.5 -11.5q0 -15 -27 -14l-106 4q-63 -2 -130 -3q-10 4 -2 12q2 4 26.5 9t37.5 20q18 20 20 32q1 4 1 40v235q-43 37 -86 73q-32 37 -32 109q0 47 45 97l-17 19q1 9 23 7q140 -11 239 0q14 0 14 -10q0 -12 -13 -13zM129 418l1 145q0 53 -36 53q-25 0 -43 -33
q-16 -28 -16 -55q0 -76 60 -122l34 -26v38zM103 674l141 70q22 11 22 34q0 33 -33 33q-23 0 -40 -18l-115 -121z" />
    <glyph glyph-name="Icircumflex" unicode="&#xce;" horiz-adv-x="347" 
d="M302 630q-56 -4 -76 -28q-9 -11 -13 -39q1 -63 0 -177q-1 -32 0 -41q52 -39 62 -51q28 -33 28 -83q0 -25 -8 -50q-10 -34 -30 -34q-9 0 -16.5 7.5t-7.5 16.5q0 8 17.5 25.5t17.5 42.5q0 27 -17.5 53.5t-42.5 38.5l1 -203q0 -33 9 -49q13 -26 53 -32q9 -1 19.5 -2.5
t10.5 -11.5q0 -15 -27 -14l-106 4q-63 -2 -130 -3q-10 4 -2 12q2 4 26.5 9t37.5 20q18 20 20 32q1 4 1 40v235q-43 37 -86 73q-32 37 -32 109q0 47 45 97l-17 19q1 9 23 7q140 -11 239 0q14 0 14 -10q0 -12 -13 -13zM129 418l1 145q0 53 -36 53q-25 0 -43 -33
q-16 -28 -16 -55q0 -76 60 -122l34 -26v38zM201 801l104 -106h-27l-102 56l-102 -56h-27l105 106h49z" />
    <glyph glyph-name="Idieresis" unicode="&#xcf;" horiz-adv-x="347" 
d="M302 630q-56 -4 -76 -28q-9 -11 -13 -39q1 -63 0 -177q-1 -32 0 -41q52 -39 62 -51q28 -33 28 -83q0 -25 -8 -50q-10 -34 -30 -34q-9 0 -16.5 7.5t-7.5 16.5q0 8 17.5 25.5t17.5 42.5q0 27 -17.5 53.5t-42.5 38.5l1 -203q0 -33 9 -49q13 -26 53 -32q9 -1 19.5 -2.5
t10.5 -11.5q0 -15 -27 -14l-106 4q-63 -2 -130 -3q-10 4 -2 12q2 4 26.5 9t37.5 20q18 20 20 32q1 4 1 40v235q-43 37 -86 73q-32 37 -32 109q0 47 45 97l-17 19q1 9 23 7q140 -11 239 0q14 0 14 -10q0 -12 -13 -13zM129 418l1 145q0 53 -36 53q-25 0 -43 -33
q-16 -28 -16 -55q0 -76 60 -122l34 -26v38zM111 778q17 0 29.5 -12.5t12.5 -29.5q0 -18 -12.5 -30.5t-30.5 -12.5q-17 0 -29.5 12.5t-12.5 29.5q0 18 12.5 30.5t30.5 12.5zM248 778q17 0 29 -12.5t12 -29.5q0 -18 -12 -30.5t-30 -12.5t-30.5 12.5t-12.5 29.5q0 18 13 30.5
t31 12.5z" />
    <glyph glyph-name="Igrave" unicode="&#xcc;" horiz-adv-x="358" 
d="M302 630q-56 -4 -76 -28q-9 -11 -13 -39q1 -63 0 -177q-1 -32 0 -41q52 -39 62 -51q28 -33 28 -83q0 -25 -8 -50q-10 -34 -30 -34q-9 0 -16.5 7.5t-7.5 16.5q0 8 17.5 25.5t17.5 42.5q0 27 -17.5 53.5t-42.5 38.5l1 -203q0 -33 9 -49q13 -26 53 -32q9 -1 19.5 -2.5
t10.5 -11.5q0 -15 -27 -14l-106 4q-63 -2 -130 -3q-10 4 -2 12q2 4 26.5 9t37.5 20q18 20 20 32q1 4 1 40v235q-43 37 -86 73q-32 37 -32 109q0 47 45 97l-17 19q1 9 23 7q140 -11 239 0q14 0 14 -10q0 -12 -13 -13zM129 418l1 145q0 53 -36 53q-25 0 -43 -33
q-16 -28 -16 -55q0 -76 60 -122l34 -26v38zM234 674l-141 70q-22 11 -22 34q0 33 32 33q24 0 41 -18l115 -121z" />
    <glyph glyph-name="Oacute" unicode="&#xd3;" horiz-adv-x="562" 
d="M505 341q1 -110 -46 -214q-57 -127 -149 -127h-73q-76 0 -89 4q-58 18 -99 119q-34 86 -34 159q0 80 48 179q54 114 120 111l21 -1l-4 -13l-20 2q-20 2 -56 -36q-52 -55 -67 -154q-2 -12 -2 -25q0 -101 79 -207q84 -114 181 -114q65 0 100 84q28 64 28 139q0 130 -70 250
q-82 141 -205 141q-37 0 -67 -21q-34 -24 -34 -60q0 -21 9 -34l-13 -22q-16 34 -16 54q0 99 136 99q13 0 28 -1q36 1 113 -2q75 -9 132 -125q48 -100 49 -185zM352 244q0 -15 -11.5 -30.5t-26.5 -15.5q-6 0 -14 6t-8 12q0 5 7 16.5t7 18.5q0 43 -48 88q-25 24 -93 70
q-55 37 -64 54l9 15q13 -14 41 -37q201 -121 201 -197zM183 674l141 70q22 11 22 34q0 33 -33 33q-23 0 -40 -18l-115 -121z" />
    <glyph glyph-name="Ocircumflex" unicode="&#xd4;" horiz-adv-x="562" 
d="M505 341q1 -110 -46 -214q-57 -127 -149 -127h-73q-76 0 -89 4q-58 18 -99 119q-34 86 -34 159q0 80 48 179q54 114 120 111l21 -1l-4 -13l-20 2q-20 2 -56 -36q-52 -55 -67 -154q-2 -12 -2 -25q0 -101 79 -207q84 -114 181 -114q65 0 100 84q28 64 28 139q0 130 -70 250
q-82 141 -205 141q-37 0 -67 -21q-34 -24 -34 -60q0 -21 9 -34l-13 -22q-16 34 -16 54q0 99 136 99q13 0 28 -1q36 1 113 -2q75 -9 132 -125q48 -100 49 -185zM352 244q0 -15 -11.5 -30.5t-26.5 -15.5q-6 0 -14 6t-8 12q0 5 7 16.5t7 18.5q0 43 -48 88q-25 24 -93 70
q-55 37 -64 54l9 15q13 -14 41 -37q201 -121 201 -197zM261 801l104 -106h-27l-102 56l-102 -56h-27l105 106h49z" />
    <glyph glyph-name="Ograve" unicode="&#xd2;" horiz-adv-x="562" 
d="M505 341q1 -110 -46 -214q-57 -127 -149 -127h-73q-76 0 -89 4q-58 18 -99 119q-34 86 -34 159q0 80 48 179q54 114 120 111l21 -1l-4 -13l-20 2q-20 2 -56 -36q-52 -55 -67 -154q-2 -12 -2 -25q0 -101 79 -207q84 -114 181 -114q65 0 100 84q28 64 28 139q0 130 -70 250
q-82 141 -205 141q-37 0 -67 -21q-34 -24 -34 -60q0 -21 9 -34l-13 -22q-16 34 -16 54q0 99 136 99q13 0 28 -1q36 1 113 -2q75 -9 132 -125q48 -100 49 -185zM352 244q0 -15 -11.5 -30.5t-26.5 -15.5q-6 0 -14 6t-8 12q0 5 7 16.5t7 18.5q0 43 -48 88q-25 24 -93 70
q-55 37 -64 54l9 15q13 -14 41 -37q201 -121 201 -197zM304 674l-141 70q-22 11 -22 34q0 33 32 33q24 0 41 -18l115 -121z" />
    <glyph glyph-name="Uacute" unicode="&#xda;" horiz-adv-x="501" 
d="M313 224q0 -45 -18 -80q-23 -43 -65 -43t-72 55q-25 46 -25 91q0 44 19 105q21 65 48 93l9 -20q-54 -116 -54 -168q0 -45 16 -82q20 -47 59 -47q32 0 49 35q14 28 14 64q0 62 -56 174.5t-56 160.5q0 32 19 62q22 35 52 35q10 0 19.5 -8.5t9.5 -18.5q0 -11 -9 -11
q-3 0 -10 3t-11 3q-24 0 -37 -17.5t-13 -42.5q0 -56 56 -168t56 -175zM445 78q-26 -35 -82.5 -61t-102.5 -26q-109 0 -181 93q-68 86 -68 197q0 45 16.5 132.5t16.5 130.5q0 37 -25 55q1 6 38 30t44 24q19 0 32 -29q11 -23 11 -44q0 -58 -31.5 -171.5t-31.5 -172.5
q0 -81 54 -150q57 -75 137 -75q48 0 66 33q12 24 12 78v302q0 102 1 81q-2 62 -12 62q-13 0 -52 -38q-33 -32 -46 -51l-7 11q93 121 208 173l8 -11l-17 -15v-510q4 -19 12 -48zM163 674l141 70q22 11 22 34q0 33 -33 33q-23 0 -40 -18l-115 -121z" />
    <glyph glyph-name="Ucircumflex" unicode="&#xdb;" horiz-adv-x="501" 
d="M313 224q0 -45 -18 -80q-23 -43 -65 -43t-72 55q-25 46 -25 91q0 44 19 105q21 65 48 93l9 -20q-54 -116 -54 -168q0 -45 16 -82q20 -47 59 -47q32 0 49 35q14 28 14 64q0 62 -56 174.5t-56 160.5q0 32 19 62q22 35 52 35q10 0 19.5 -8.5t9.5 -18.5q0 -11 -9 -11
q-3 0 -10 3t-11 3q-24 0 -37 -17.5t-13 -42.5q0 -56 56 -168t56 -175zM445 78q-26 -35 -82.5 -61t-102.5 -26q-109 0 -181 93q-68 86 -68 197q0 45 16.5 132.5t16.5 130.5q0 37 -25 55q1 6 38 30t44 24q19 0 32 -29q11 -23 11 -44q0 -58 -31.5 -171.5t-31.5 -172.5
q0 -81 54 -150q57 -75 137 -75q48 0 66 33q12 24 12 78v302q0 102 1 81q-2 62 -12 62q-13 0 -52 -38q-33 -32 -46 -51l-7 11q93 121 208 173l8 -11l-17 -15v-510q4 -19 12 -48zM261 801l104 -106h-27l-102 56l-102 -56h-27l105 106h49z" />
    <glyph glyph-name="Ugrave" unicode="&#xd9;" horiz-adv-x="501" 
d="M313 224q0 -45 -18 -80q-23 -43 -65 -43t-72 55q-25 46 -25 91q0 44 19 105q21 65 48 93l9 -20q-54 -116 -54 -168q0 -45 16 -82q20 -47 59 -47q32 0 49 35q14 28 14 64q0 62 -56 174.5t-56 160.5q0 32 19 62q22 35 52 35q10 0 19.5 -8.5t9.5 -18.5q0 -11 -9 -11
q-3 0 -10 3t-11 3q-24 0 -37 -17.5t-13 -42.5q0 -56 56 -168t56 -175zM450 651l-17 -15v-510q4 -19 12 -48q-26 -35 -82.5 -61t-102.5 -26q-109 0 -181 93q-68 86 -68 197q0 45 16.5 132.5t16.5 130.5q0 37 -25 55q1 6 38 30t44 24q19 0 32 -29q11 -23 11 -44
q0 -58 -31.5 -171.5t-31.5 -172.5q0 -81 54 -150q57 -75 137 -75q48 0 66 33q12 24 12 78v302q0 102 1 81q-2 62 -12 62q-13 0 -52 -38q-33 -32 -46 -51l-7 11q93 121 208 173zM304 674l-141 70q-22 11 -22 34q0 33 32 33q24 0 41 -18l115 -121z" />
    <glyph glyph-name="circumflex" unicode="&#x2c6;" horiz-adv-x="257" 
d="M171 801l104 -106h-27l-102 56l-102 -56h-27l105 106h49z" />
    <glyph glyph-name="tilde" unicode="&#x2dc;" horiz-adv-x="252" 
d="M41 714l-16 13q29 61 68 61q18 0 57.5 -23.5t52.5 -23.5q29 0 49 32l18 -16q-30 -62 -68 -62q-17 0 -57 23.5t-53 23.5q-34 0 -51 -28z" />
    <glyph glyph-name="macron" unicode="&#xaf;" horiz-adv-x="199" 
d="M10 782h203v-34h-203v34z" />
    <glyph glyph-name="macron" unicode="&#x2c9;" horiz-adv-x="199" 
d="M10 782h203v-34h-203v34z" />
    <glyph glyph-name="cedilla" unicode="&#xb8;" horiz-adv-x="166" 
d="M112 0l-18 -50q14 2 22 2q62 0 62 -55q0 -35 -29 -53q-25 -16 -62 -16q-36 0 -65 13l10 27q30 -10 46 -10q42 0 42 33q0 30 -34 30q-15 0 -26 -4l-7 4l33 79h26z" />
    <glyph glyph-name="Scaron" unicode="&#x160;" 
 />
    <glyph glyph-name="scaron" unicode="&#x161;" 
 />
    <glyph glyph-name="brokenbar" unicode="&#xa6;" 
 />
    <glyph glyph-name="Eth" unicode="&#xd0;" 
 />
    <glyph glyph-name="eth" unicode="&#xf0;" 
 />
    <glyph glyph-name="Yacute" unicode="&#xdd;" 
 />
    <glyph glyph-name="yacute" unicode="&#xfd;" 
 />
    <glyph glyph-name="Thorn" unicode="&#xde;" 
 />
    <glyph glyph-name="thorn" unicode="&#xfe;" 
 />
    <glyph glyph-name="minus" unicode="&#xad;" 
 />
    <glyph glyph-name="minus" unicode="&#x2212;" 
 />
    <glyph glyph-name="multiply" unicode="&#xd7;" 
 />
    <glyph glyph-name="onesuperior" unicode="&#xb9;" 
 />
    <glyph glyph-name="twosuperior" unicode="&#xb2;" 
 />
    <glyph glyph-name="threesuperior" unicode="&#xb3;" 
 />
    <glyph glyph-name="onehalf" unicode="&#xbd;" 
 />
    <glyph glyph-name="onequarter" unicode="&#xbc;" 
 />
    <glyph glyph-name="threequarters" unicode="&#xbe;" 
 />
    <glyph glyph-name=".null" 
 />
    <glyph glyph-name="Lslash" unicode="&#x141;" 
 />
    <glyph glyph-name="lslash" unicode="&#x142;" 
 />
    <glyph glyph-name="HT" 
 />
    <glyph glyph-name="LF" 
 />
    <glyph glyph-name="nonmarkingreturn" 
 />
    <glyph glyph-name="Zcaron" unicode="&#x17d;" 
 />
    <glyph glyph-name="zcaron" unicode="&#x17e;" 
 />
    <glyph glyph-name="DLE" 
 />
    <glyph glyph-name="DC1" 
 />
    <glyph glyph-name="DC2" 
 />
    <glyph glyph-name="DC3" 
 />
    <glyph glyph-name="DC4" 
 />
    <glyph glyph-name="RS" 
 />
    <glyph glyph-name="US" 
 />
    <glyph glyph-name="notequal" unicode="&#x2260;" 
 />
    <glyph glyph-name="infinity" unicode="&#x221e;" 
 />
    <glyph glyph-name="lessequal" unicode="&#x2264;" 
 />
    <glyph glyph-name="greaterequal" unicode="&#x2265;" 
 />
    <glyph glyph-name="partialdiff" unicode="&#x2202;" horiz-adv-x="459" 
d="M429 498q0 -7 -19.5 -31.5t-26.5 -24.5l-18 14.5t-49 14.5q-35 0 -100 -41q0 8 3 18q33 28 67 56q40 32 81 32q19 0 39 -9q23 -12 23 -29zM59 219l76 69v163q0 18 -15 18q-19 0 -52.5 -20.5t-35.5 -36.5q-2 -21 36 -21q23 0 55 19v-17q-25 -18 -59 -18q-20 0 -37 8
q-22 11 -22 29q0 47 201 125q7 2 8 -1q2 -3 -1 -7q-12 -10 -12 -38v-146q68 61 68 58v-40l-68 -59v-169q0 -32 -60.5 -67.5t-61.5 -39.5q-6 -8 7 -11q36 1 118 37q79 36 125 36q20 0 55 -11q40 -13 41 -27l-50 -57q-26 19 -43 23.5t-50 4.5q-34 0 -100.5 -14t-98.5 -14
q-34 0 -34 20q0 15 43 49.5t43 60.5v123l-74 -65z" />
    <glyph glyph-name="summation" unicode="&#x2211;" horiz-adv-x="493" 
d="M381 390q0 -45 -36 -71q-26 -20 -79 -32l-82 -16q-14 -3 -65 -20q-2 -6 -2 12q22 13 93 26q76 14 105 28q49 23 49 68q0 41 -31.5 65.5t-73.5 24.5q-11 0 -30.5 -6t-27.5 -6l-8 8q1 17 61 17q51 0 86 -22q41 -27 41 -76zM287 151q0 -31 -48 -31q-64 0 -113 63
q-46 58 -46 124q0 30 1 37q5 21 25 47l10 -8q-21 -35 -21 -68q0 -61 35 -113q39 -59 97 -59q20 0 32 11t15 11q13 0 13 -14zM456 183q0 -75 -71 -138t-146 -63q-74 0 -146 42q-84 47 -84 116q0 32 21 65t50 41q4 -7 8 -15q0 2 -21 -26.5t-21 -64.5q0 -67 69 -106
q57 -32 130 -32q56 0 99.5 40t43.5 95q0 51 -24 87q-21 30 -68 59q17 0 43 15q23 14 36 28q81 -49 81 -143zM399 596q0 -21 -67 -69l-5 4l1 11q3 32 -39 50q-33 15 -71 15q-33 0 -58 -14q-31 -17 -31 -47q0 -46 83 -109q14 -11 124 -81q-4 -17 -32 -29q-23 -11 -44 -11
q-28 0 -95.5 53.5t-74.5 81.5q-5 19 -5 37q0 74 64 124q59 46 136 46q29 0 68 -17q46 -20 46 -45zM233 689l-95 116h27l92 -67l92 67h27l-94 -116h-49z" />
    <glyph glyph-name="product" unicode="&#x220f;" horiz-adv-x="416" 
d="M312 314q0 -52 -60 -75q-5 -2 -103 -24q-12 -2 -54 -16q-2 -5 -2 10q18 10 77 21q63 12 87 23q41 20 41 57q0 34 -26 54.5t-61 20.5q-9 0 -25.5 -5t-22.5 -5l-7 6q1 14 51 14q42 0 71 -18q34 -22 34 -63zM234 116q0 -26 -40 -26q-53 0 -94 52q-38 49 -38 103q0 25 1 31
q4 17 21 39l8 -7q-17 -29 -17 -56q0 -50 29 -94q32 -49 80 -49q17 0 27 9t12 9q11 0 11 -11zM374 142q0 -61 -59 -113.5t-121 -52.5q-61 0 -121 34q-70 40 -70 97q0 26 17.5 53.5t41.5 34.5q4 -6 7 -13q0 2 -17.5 -21.5t-17.5 -53.5q0 -56 57 -88q48 -27 108 -27
q46 0 82.5 33.5t36.5 78.5q0 74 -77 121q14 0 35 12t31 24q67 -41 67 -119zM327 485q0 -18 -56 -57l-4 3l1 9q2 27 -32 42q-28 12 -59 12q-28 0 -49 -12q-25 -14 -25 -39q0 -38 69 -90q12 -9 103 -67q-4 -14 -27 -24q-19 -9 -36 -9q-24 0 -79.5 44t-61.5 68q-5 15 -5 30
q0 62 54 103q49 38 112 38q25 0 57 -14q38 -16 38 -37zM190 562l-79 97h22l76 -56l77 56h22l-78 -97h-40z" />
    <glyph glyph-name="pi" unicode="&#x3c0;" horiz-adv-x="583" 
d="M336 656q0 -21 -30 -34t-30 -30q0 -25 26 -49l-9 -18q-15 11 -42 36q-13 22 -13 46q0 33 17.5 57t48.5 24q32 0 32 -32zM538 565q0 -157 -133 -299q-101 -109 -269 -199q-16 -9 -34 -31q-19 -25 -19 -41q0 -45 47 -45q42 0 98 39q51 35 102 71q63 39 122 39
q32 0 54.5 -18.5t22.5 -50.5q0 -25 -12 -49q-15 -28 -37 -28l-10 2q0 39 -9.5 51.5t-46.5 12.5q-51 0 -148.5 -49t-131.5 -49q-85 0 -85 73q0 45 48 83q29 23 93 53q55 26 61 36q-102 188 -208 377q-27 8 -38 6q1 1 -5.5 3t-3.5 5q114 114 125 114q3 0 5.5 -3.5l2.5 -3.5
q-10 -26 0 -64q0 -9 87 -183q90 -182 110 -184q50 51 88 131q40 86 40 152q0 75 -34 75q-37 0 -83 -75q-43 -71 -43 -112q0 -13 7 -28q7 -18 18 -18q19 0 30 21q9 17 9 38q0 29 -25 70l11 13q48 -40 48 -75q0 -34 -16 -60q-19 -30 -51 -30q-26 0 -42 26q-14 21 -14 49
q0 63 81 164t137 101q21 0 37 -45q14 -38 14 -65zM244 693l141 70q22 11 22 34q0 33 -33 33q-23 0 -40 -18l-115 -121z" />
    <glyph glyph-name="integral" unicode="&#x222b;" horiz-adv-x="496" 
d="M284 530q0 -17 -24.5 -27.5t-24.5 -24.5q0 -22 21 -40l-7 -14q-45 30 -45 66q0 26 14.5 45.5t39.5 19.5q26 0 26 -25zM447 456q0 -129 -107 -241q-75 -80 -218 -161q-13 -8 -27 -25q-16 -20 -16 -33q0 -36 38 -36q34 0 80 31l82 58q51 31 98 31q26 0 44 -15t18 -41
q0 -20 -9 -39q-12 -23 -30 -23l-8 2q0 31 -8 41t-37 10q-42 0 -120 -39.5t-107 -39.5q-68 0 -68 59q0 37 38 67q23 18 74 42q45 21 51 30q-83 152 -168 304q-19 7 -31 5q-1 1 -4 2t-3 5q0 1 45 43t53 48q1 1 3 1q5 0 6 -6q-4 -12 -4 -23t4 -29q1 -1 23 -48q37 -80 65 -134
q57 -111 71 -114q42 42 72 107q32 69 32 125q0 57 -28 57q-30 0 -67 -61q-34 -57 -34 -90q0 -10 5 -22q6 -15 15 -15q31 0 31 48q0 24 -20 56l9 11q39 -32 39 -61q0 -27 -13 -48q-16 -25 -41 -25q-21 0 -34 21q-12 18 -12 40q0 49 65 131.5t112 82.5q16 0 30 -37
q11 -30 11 -52zM209 560l114 56q18 9 18 28q0 26 -27 26q-18 0 -32 -14l-93 -98z" />
    <glyph glyph-name="Omega" unicode="&#x3a9;" horiz-adv-x="588" 
d="M15 426h56q32 100 104 164q78 70 177 70q51 0 108 -28q67 -34 67 -79q0 -12 -30 -35l-42 -30q-22 58 -52 84q-35 28 -94 28q-79 0 -133 -50q-49 -47 -63 -124h221q16 0 16 -16v-5q0 -16 -16 -16h-226v-17q0 -13 1 -26h225q16 0 16 -16v-5q0 -16 -16 -16h-219
q21 -95 83 -163q68 -76 154 -76q56 0 108 24q65 30 66 79l6 7l12 -15q-1 -71 -70 -123q-63 -47 -137 -47q-123 0 -206 96q-79 92 -79 217v1h-37q-16 0 -16 16v5q0 16 16 16h39q2 21 7 43h-46q-16 0 -16 16v5q0 16 16 16z" />
    <glyph glyph-name="Omega" unicode="&#x2126;" horiz-adv-x="588" 
d="M15 426h56q32 100 104 164q78 70 177 70q51 0 108 -28q67 -34 67 -79q0 -12 -30 -35l-42 -30q-22 58 -52 84q-35 28 -94 28q-79 0 -133 -50q-49 -47 -63 -124h221q16 0 16 -16v-5q0 -16 -16 -16h-226v-17q0 -13 1 -26h225q16 0 16 -16v-5q0 -16 -16 -16h-219
q21 -95 83 -163q68 -76 154 -76q56 0 108 24q65 30 66 79l6 7l12 -15q-1 -71 -70 -123q-63 -47 -137 -47q-123 0 -206 96q-79 92 -79 217v1h-37q-16 0 -16 16v5q0 16 16 16h39q2 21 7 43h-46q-16 0 -16 16v5q0 16 16 16z" />
    <glyph glyph-name="radical" unicode="&#x221a;" 
 />
    <glyph glyph-name="approxequal" unicode="&#x2248;" 
 />
    <glyph glyph-name="approxequal" unicode="&#x22f2;" 
 />
    <glyph glyph-name="Delta" unicode="&#x394;" 
 />
    <glyph glyph-name="Delta" unicode="&#x2206;" 
 />
    <glyph glyph-name="lozenge" unicode="&#x25ca;" horiz-adv-x="312" 
d="M150 130l104 202l-100 199l-106 -197z" />
    <glyph glyph-name="dotlessi" unicode="&#x131;" horiz-adv-x="311" 
d="M257 504q-48 -3 -65 -22q-7 -9 -11 -32v-142q-1 -28 0 -32q43 -31 52 -41q24 -26 24 -66q0 -21 -6 -41q-9 -26 -26 -26q-20 0 -20 19q0 7 14.5 20.5t14.5 33.5q0 21 -14.5 42.5t-35.5 31.5v-163q0 -57 53 -65q8 0 17 -1.5t9 -8.5q0 -13 -23 -12l-91 3q-53 -1 -110 -2
q-8 4 -2 10q2 3 23 7t32 16q15 16 17 26q1 3 1 32v187q-37 29 -74 59q-27 29 -27 87q0 34 38 78l-14 15q1 8 20 5q118 -9 203 0q12 0 12 -7q0 -10 -11 -11zM110 335l1 116q0 42 -31 42q-21 0 -35.5 -24.5t-14.5 -46.5q0 -59 51 -97l29 -21v31z" />
    <glyph glyph-name="breve" unicode="&#x2d8;" horiz-adv-x="223" 
d="M212 800h26v-11q0 -43 -28.5 -72.5t-72.5 -29.5q-45 0 -73.5 29t-28.5 74v10h26q4 -69 76 -69q32 0 52.5 18.5t22.5 50.5z" />
    <glyph glyph-name="dotaccent" unicode="&#x2d9;" horiz-adv-x="128" 
d="M88 794q20 0 34.5 -15t14.5 -35t-14.5 -35t-35.5 -15q-20 0 -35 14.5t-15 35.5t15 35.5t36 14.5z" />
    <glyph glyph-name="ring" unicode="&#x2da;" horiz-adv-x="196" 
d="M135 685q-30 0 -52 20.5t-22 49.5t22 49.5t52 20.5t52.5 -20.5t22.5 -49.5q0 -30 -22 -50t-53 -20zM135 795q-18 0 -31 -12t-13 -28t13 -28t31 -12q19 0 32 12t13 28t-13 28t-32 12z" />
    <glyph glyph-name="hungarumlaut" unicode="&#x2dd;" horiz-adv-x="258" 
d="M57 681l32 89q19 52 47 52q25 0 25 -25q0 -17 -16 -36l-73 -88zM172 681l32 89q19 52 47 52q25 0 25 -25q0 -17 -16 -36l-73 -88z" />
    <glyph glyph-name="ogonek" unicode="&#x2db;" horiz-adv-x="256" 
d="M120 0h88q-90 -2 -90 -67q0 -17 11.5 -30.5t28.5 -13.5q31 0 72 37l16 -22q-58 -56 -108 -56q-30 0 -50 19.5t-20 49.5q0 49 52 83z" />
    <glyph glyph-name="caron" unicode="&#x2c7;" horiz-adv-x="248" 
d="M122 685l-95 116h27l92 -67l92 67h27l-94 -116h-49z" />
  </font>
</defs>
</svg>
