<?xml version="1.0" standalone="no"?>
<!DOCTYPE svg PUBLIC "-//W3C//DTD SVG 1.1//EN" "http://www.w3.org/Graphics/SVG/1.1/DTD/svg11.dtd" >
<svg>
<metadata>
Created by FontForge 20120731 at Wed Apr 17 19:31:43 2019
 By www-data
Generated by Fontographer 4.1.4
</metadata>
<defs>
<font id="OrbitAntique" horiz-adv-x="20" >
  <font-face 
    font-family="Orbit Antique"
    font-weight="400"
    font-stretch="normal"
    units-per-em="1000"
    panose-1="0 0 4 0 0 0 0 0 0 0"
    ascent="800"
    descent="-200"
    x-height="427"
    cap-height="685"
    bbox="-29.069 -201 1308 867"
    underline-thickness="20"
    underline-position="-123"
    unicode-range="U+0020-F002"
  />
<missing-glyph horiz-adv-x="500" 
d="M63 0v800h375v-800h-375zM125 63h250v675h-250v-675z" />
    <glyph glyph-name=".notdef" horiz-adv-x="500" 
d="M63 0v800h375v-800h-375zM125 63h250v675h-250v-675z" />
    <glyph glyph-name=".null" horiz-adv-x="0" 
 />
    <glyph glyph-name="nonmarkingreturn" horiz-adv-x="257" 
 />
    <glyph glyph-name="space" unicode=" " horiz-adv-x="257" 
 />
    <glyph glyph-name="exclam" unicode="!" horiz-adv-x="248" 
d="M222 580q0 -47 -21 -85q-23 -44 -39 -136q-23 -130 -27 -144h-30q-10 69 -35 206q-12 35 -23 70q-19 55 -19 82q0 48 27.5 79t72.5 31t71 -34q23 -29 23 -69zM201 79q0 -33 -24 -59.5t-55 -26.5q-37 0 -61 29q-20 26 -20 57t23 58.5t56 27.5q35 0 60 -30q21 -26 21 -56z
" />
    <glyph glyph-name="quotedbl" unicode="&#x22;" horiz-adv-x="301" 
d="M63 448l-30 179q-2 8 -2 16q0 43 43 43t43 -44q0 -27 -13 -95q-10 -50 -19 -99h-22zM209 448q-9 49 -19 98q-13 69 -13 95q0 45 43 45t43 -42q0 -9 -1 -17l-31 -179h-22z" />
    <glyph glyph-name="numbersign" unicode="#" horiz-adv-x="545" 
d="M521 469l-15 -65h-115l-37 -138h121q-5 -23 -17 -66h-119l-52 -199h-66l52 198h-88l-52 -198h-67l50 199h-97q8 20 21 63l89 1q14 42 40 137h-98l17 65h93q18 68 52 206q45 -1 72 0q-18 -68 -52 -204h86q19 70 56 204h61l-49 -203h114zM325 403h-92l-32 -138h89z" />
    <glyph glyph-name="dollar" unicode="$" horiz-adv-x="560" 
d="M267 49h-40v88q-51 10 -135 20q-41 1 -79 -32q-10 9 -10 38q0 30 20.5 54t51.5 24q29 0 93.5 -31.5t74.5 -31.5q2 0 24.5 -2.5t25.5 -2.5q42 0 75 16q46 22 46 67q0 51 -74 62q-67 11 -96 11q-76 -1 -131 16q-89 29 -89 100q0 38 35 75.5t84 48.5q27 6 84 10v93h40v-93
q56 -5 107 -18q65 -17 83 -39q-8 -16 -24 -47q-94 55 -176 55q-118 0 -118 -49q0 -45 115 -45q7 0 64 -5q199 -19 199 -155q0 -69 -72 -109q-54 -30 -127 -37q-21 -2 -51 1v-82z" />
    <glyph glyph-name="percent" unicode="%" horiz-adv-x="693" 
d="M656 213q0 -80 -29 -141q-37 -78 -108 -78q-69 0 -109 72q-32 59 -32 134q0 71 35 138q42 79 105 79q69 0 107 -71q31 -57 31 -133zM590 672q-132 -197 -480 -675q-22 2 -39 0l483 675h36zM283 474q2 -58 -22 -122q-35 -96 -109 -97q-70 -2 -109 77q-32 63 -32 143
q0 68 35 129q40 71 103 71q63 1 101 -69q31 -57 33 -132zM589 208q0 57 -11 99q-18 67 -60 67q-70 0 -70 -165q0 -169 70 -169q71 0 71 168zM216 474q-2 69 -8 96q-15 62 -58 62q-68 0 -68 -156q0 -176 69 -176q70 0 65 174z" />
    <glyph glyph-name="ampersand" unicode="&#x26;" horiz-adv-x="901" 
d="M806 0l-203 1q-6 19 -20.5 58t-37.5 73q-118 -142 -291 -142q-57 0 -121 27q-70 30 -96 74q-21 35 -21 73q0 70 67 134q62 59 140 77q6 1 3 7q0 1 -12 9q-63 44 -65 106q-3 99 80 145q63 34 153 32q15 -1 42 -2q57 -4 112 -52q50 -44 67 -91q-13 -8 -41 -20q-4 6 -15 22
q-71 101 -147 101q-46 0 -80 -24q-40 -28 -40 -76q0 -41 29 -70q21 -20 73 -46q32 -15 101 -50q65 -35 92 -66q81 107 170 107q58 0 94.5 -32t36.5 -94q0 -47 -35 -75q-31 -26 -77 -26q-4 0 -31 8q9 16 20 45q2 8 2 24q0 58 -60 58q-37 0 -77 -47q44 -42 71 -99
q14 -34 39 -97q15 -37 75 -62q1 -3 3 -8v-2zM287 323q-7 2 -13 2q-40 0 -74 -50q-30 -44 -30 -78q0 -54 37 -96q41 -46 98 -46q53 0 100 32q18 13 51 44q43 40 43 54q0 22 -93 78q-87 53 -119 60z" />
    <glyph glyph-name="quotesingle" unicode="'" horiz-adv-x="204" 
d="M91 448l-30 179q-2 8 -2 16q0 43 43 43t43 -44q0 -27 -13 -95q-10 -50 -19 -99h-22z" />
    <glyph glyph-name="parenleft" unicode="(" horiz-adv-x="282" 
d="M247 -47q0 -3 -8.5 -9t-13.5 -4q-85 52 -137 191q-43 115 -43 216q0 86 58 216q61 134 116 161l23 -14q-96 -148 -96 -366q0 -81 26 -180q18 -67 49 -144q26 -66 26 -67z" />
    <glyph glyph-name="parenright" unicode=")" horiz-adv-x="275" 
d="M26 -47q0 -3 8.5 -9t12.5 -4q85 52 137 191q44 115 44 216q0 86 -59 216q-60 134 -116 161l-22 -14q96 -148 96 -366q0 -81 -27 -180q-17 -67 -48 -144q-26 -66 -26 -67z" />
    <glyph glyph-name="asterisk" unicode="*" horiz-adv-x="339" 
d="M281 493q0 -29 -28 -29q-15 0 -47 31q-39 39 -47 44q0 -18 13.5 -52t13.5 -50q0 -27 -30 -27q-28 0 -28 27q0 17 12.5 50.5t12.5 51.5q-12 -6 -46 -44q-28 -31 -48 -31q-27 0 -27 28q0 20 49 34q34 9 69 18q-34 10 -68 19q-48 15 -48 37q0 26 29 26q14 0 45 -31
q39 -39 46 -44q-2 15 -14 51q-11 32 -11 50q0 29 28 29t28 -28q0 -19 -11 -51q-13 -37 -15 -51q7 5 47 43q33 32 44 32q29 0 29 -26q0 -21 -47 -36q-35 -10 -69 -20q35 -9 70 -17q48 -13 48 -34z" />
    <glyph glyph-name="plus" unicode="+" horiz-adv-x="329" 
d="M297 207h-122v-137q-11 2 -37 1v134l-120 1v36h119v134h39v-132h121v-37z" />
    <glyph glyph-name="comma" unicode="," horiz-adv-x="223" 
d="M163 54q0 -53 -18 -97q-10 -25 -40 -58t-47 -33q-5 0 -14 10q10 12 32 40q8 9 19 38.5t11 39.5v11q-1 2 -9 -3t-11 -5t-10 -1t-10 -1q-34 0 -52 30q-13 23 -13 51q0 34 27 58q24 21 55 21q80 0 80 -101z" />
    <glyph glyph-name="hyphen" unicode="-" horiz-adv-x="341" 
d="M319 245h-295v113h295v-113z" />
    <glyph glyph-name="hyphen" unicode="&#x2010;" horiz-adv-x="341" 
d="M319 245h-295v113h295v-113z" />
    <glyph glyph-name="period" unicode="." horiz-adv-x="240" 
d="M184 75q-1 -34 -24 -58t-56 -24q-34 0 -57 24t-24 58q0 36 23.5 62t58.5 26q34 -1 57 -27t22 -61z" />
    <glyph glyph-name="slash" unicode="/" horiz-adv-x="264" 
d="M283 651l-241 -655q1 0 -34 7q-2 3 -3 7l244 661q17 -9 34 -12v-8z" />
    <glyph glyph-name="zero" unicode="0" horiz-adv-x="687" 
d="M626 320q0 -131 -87 -231q-83 -95 -213 -95q-80 0 -141 49q-129 102 -124 318q2 114 82 214q86 109 199 109q133 0 214 -118q70 -104 70 -246zM485 352q0 288 -148 288q-89 0 -121 -107q-19 -62 -19 -179q0 -133 13 -184q30 -124 133 -124q142 0 142 306z" />
    <glyph glyph-name="one" unicode="1" horiz-adv-x="373" 
d="M309 -3q-14 0 -53.5 7t-41.5 7q-18 0 -60 -6.5t-60 -6.5q49 47 49 68l1 482q-49 -40 -106 -53q4 13 8 34q4 33 0 55q17 -5 48 7q36 13 49 38q9 18 15 49q15 -12 56 -12q37 0 56 5q2 -1 10 4.5t10 5.5t2 -2q0 -3 -13 -22t-12 -36v-551q0 -15 17 -39q24 -32 25 -34z" />
    <glyph glyph-name="two" unicode="2" horiz-adv-x="687" 
d="M650 93q0 -56 -68 -84q-51 -21 -116 -21q-55 0 -140 12q-110 16 -140 19h-23q-5 2 -15 2q-20 0 -64 -13t-46 -13q42 73 158 174q169 146 183 161q88 89 88 160q0 55 -38 88t-94 33q-59 0 -109 -40q-46 -35 -73 -93q-32 22 -47 38q74 83 127 117q75 50 166 50
q73 0 149 -43q88 -50 88 -118q0 -96 -101 -178q-41 -33 -214 -132q-140 -81 -191 -146q11 0 36.5 4.5t45.5 4.5q12 0 25 -1q77 -9 137 -9q179 0 179 72q0 27 -20.5 39t-41.5 23l4 8q57 -6 100 -32q55 -33 55 -82z" />
    <glyph glyph-name="three" unicode="3" horiz-adv-x="687" 
d="M643 187q0 -94 -104 -149q-85 -47 -189 -47t-190 34q-116 45 -116 131q0 56 41 85q35 26 92 26q33 0 69 -28q16 -15 31 -29q-109 -30 -109 -90q0 -40 62 -66q49 -21 96 -21q69 0 112 49q40 48 40 117q0 89 -54 133q-48 39 -131 39q-26 0 -55 -4v43q91 0 136 14
q80 25 80 97q0 44 -42 75q-38 28 -84 28q-60 0 -110 -38q-12 -10 -84 -85q-22 18 -41 41q110 141 280 141q72 0 145 -44q83 -50 83 -116q0 -58 -53 -97q-5 -4 -98 -54q38 -11 77 -23q52 -19 79 -51q37 -42 37 -111z" />
    <glyph glyph-name="four" unicode="4" horiz-adv-x="687" 
d="M665 149q-25 17 -79 30h-53v-92q15 -63 39 -87h-214q41 52 41 91v86h-377q-2 16 0 46q166 202 390 447q46 -9 54 -9q28 0 84 13q-7 -16 -17 -54v-389h49q18 1 33 4q35 7 50 20v-106zM399 232l1 337l-284 -330q0 -2 4 -7h204h32h43z" />
    <glyph glyph-name="five" unicode="5" horiz-adv-x="687" 
d="M641 225q0 -120 -119 -183q-97 -51 -228 -50q-83 0 -160 39q-88 43 -88 105q0 44 33 70q30 23 75 23q47 0 92 -26q-55 -23 -55 -81q0 -34 47 -63q43 -26 80 -26q75 0 120 57q41 53 41 130q0 76 -47 130q-50 57 -125 57q-91 0 -151 -52l-45 36q3 180 2 281h475v-169
q-47 46 -100 45h-323v-119q69 36 165 36q115 0 210 -67q101 -72 101 -173z" />
    <glyph glyph-name="six" unicode="6" horiz-adv-x="687" 
d="M633 205q0 -63 -58 -126q-53 -59 -117 -78q-37 -12 -94 -12q-135 0 -224 99q-86 95 -86 233q0 141 86 248q91 115 229 115q66 0 135 -31q85 -38 85 -96q0 -75 -85 -75q-11 0 -31.5 10t-28.5 19q12 12 23 25q15 17 15 28q0 39 -40 62q-33 18 -75 18q-53 0 -92 -26
q-42 -27 -56 -75q-20 -69 -20 -115q0 -22 6 -55q55 52 129 66q30 5 59 5q101 0 167 -58q73 -65 73 -181zM494 211q0 68 -28 119q-36 63 -100 63q-76 0 -118 -48.5t-42 -125.5q0 -74 33 -127q40 -63 111 -63q73 0 111 57q33 49 33 125z" />
    <glyph glyph-name="seven" unicode="7" horiz-adv-x="608" 
d="M591 672q-195 -392 -227 -578q-7 -41 -4 -92l-220 -2l114 198q60 104 224 348h-325q-64 0 -117 -59l10 185h545z" />
    <glyph glyph-name="eight" unicode="8" horiz-adv-x="687" 
d="M631 207q2 -103 -110 -164q-90 -49 -195 -49q-99 0 -179 55q-91 61 -91 155q0 95 64 145q20 16 109 53q-112 47 -112 124q0 84 83 125q64 31 158 31q75 0 142 -35q81 -42 81 -110q0 -50 -34 -87q-21 -22 -72 -52q24 -10 48 -21q44 -23 71 -57q36 -47 37 -113zM468 509
q0 53 -27 90q-31 42 -82 42q-45 0 -79 -22q-40 -26 -40 -69q0 -58 35 -94q38 -40 108 -40q7 0 21 -3.5t20 -3.5q13 0 29 44q15 39 15 56zM481 200q0 64 -22.5 100t-79.5 55q-29 10 -105 29q-27 -25 -48 -66q-22 -45 -22 -82q0 -74 25 -128q34 -70 100 -70q152 0 152 162z
" />
    <glyph glyph-name="nine" unicode="9" horiz-adv-x="687" 
d="M634 319q0 -119 -89 -221q-92 -106 -209 -106q-91 0 -156 17q-104 29 -104 96q0 34 22.5 55t56.5 21q22 0 52.5 -10.5t43.5 -26.5q-40 -15 -40 -56q0 -25 47 -40q35 -11 67 -11q87 0 134 72q41 62 41 154v37q-46 -50 -99 -69q-45 -16 -121 -16q-87 0 -157 68t-70 153
q0 98 94 172q87 68 189 68q155 0 231 -102q67 -91 67 -255zM500 434q0 197 -168 197q-67 0 -108 -65q-35 -56 -35 -127q0 -72 39 -122q43 -54 113 -54q78 0 120 48q39 44 39 123z" />
    <glyph glyph-name="colon" unicode=":" horiz-adv-x="233" 
d="M188 354q0 -35 -24 -59.5t-58 -24.5q-33 1 -55.5 26t-22.5 59q0 35 23 60t57 25t57 -25.5t23 -60.5zM188 81q1 -35 -23 -60.5t-58 -25.5q-34 1 -56.5 26t-22.5 59q0 35 23 60t57 25t57 -24.5t23 -59.5z" />
    <glyph glyph-name="semicolon" unicode=";" horiz-adv-x="241" 
d="M183 66q0 -28 -8 -60q-5 -20 -22 -58q-11 -17 -34 -40q-30 -30 -42 -30q-18 0 -18 11q0 -1 23 25t31 47q13 34 13 57q-4 4 -9 4q-3 0 -19 -5t-19 -5q-32 0 -48 26q-13 21 -13 52q0 29 25.5 54.5t55.5 25.5q84 0 84 -104zM188 354q0 -35 -24 -59.5t-58 -24.5
q-33 1 -55.5 26t-22.5 59q0 35 23 60t57 25t57 -25.5t23 -60.5z" />
    <glyph glyph-name="less" unicode="&#x3c;" horiz-adv-x="307" 
d="M262 414l-166 -145l164 -150q-8 -9 -22 -27l-200 173l197 174q21 -15 27 -25z" />
    <glyph glyph-name="equal" unicode="=" horiz-adv-x="351" 
d="M312 303h-302v38h302v-38zM315 207h-307v38h307v-38z" />
    <glyph glyph-name="greater" unicode="&#x3e;" horiz-adv-x="305" 
d="M266 267l-203 -177q-5 5 -14 15.5t-12 13.5l164 146l-169 148q13 16 29 29z" />
    <glyph glyph-name="question" unicode="?" horiz-adv-x="513" 
d="M499 519q0 -74 -62 -123q-29 -23 -114 -62q-61 -28 -61 -51q0 -17 25 -17q12 0 41 14q8 -4 8 -17q0 -27 -23.5 -47t-49.5 -20q-31 0 -55 19q-27 21 -27 53q0 47 46 87q44 34 87 67q46 42 46 91q0 46 -40 86t-83 40q-48 0 -98 -22q-71 -30 -71 -86q0 -52 52 -52
q35 0 35 27q0 13 -10.5 22.5t-21.5 18.5q11 18 24.5 24t33.5 6q38 0 69 -20q36 -23 36 -62q0 -48 -55 -77q-44 -23 -86 -23q-51 0 -93.5 36.5t-42.5 85.5q0 96 98 141q68 31 158 31q83 0 150 -37q84 -47 84 -133zM336 73q0 -34 -24.5 -58.5t-55.5 -24.5q-35 0 -57.5 25.5
t-22.5 59.5q0 31 22.5 56.5t57.5 25.5q34 0 57 -24.5t23 -59.5z" />
    <glyph glyph-name="at" unicode="@" horiz-adv-x="746" 
d="M503 169q-66 0 -92 52q-30 -19 -59 -38q-33 -18 -70 -18q-52 0 -84 39q-29 36 -29 89q0 90 51 161q57 78 143 78q50 0 87 -49l12 37l77 1l-3 -10l-56 -232q0 -41 41 -41q57 0 89 61q27 49 27 112q0 108 -77 168q-70 54 -182 54q-131 0 -219.5 -88.5t-88.5 -218.5
q0 -117 81.5 -195.5t199.5 -78.5q72 0 142 25q33 12 129 59l28 -41q-125 -98 -295 -98q-146 0 -248 89q-106 92 -106 236q0 164 112 265q109 98 274 98q132 0 219 -67q96 -73 96 -200q0 -92 -52 -166q-58 -83 -147 -83zM366 468q-44 0 -79 -69q-30 -59 -30 -108q0 -22 8 -41
q11 -24 30 -24q57 0 92 65q30 54 30 116q0 61 -51 61z" />
    <glyph glyph-name="A" unicode="A" horiz-adv-x="873" 
d="M848 1l-236 -1q20 29 20 51t-41 116q-33 77 -56 120q-59 -35 -130 -35q-57 0 -113 38l-62 -108q-33 -61 -47 -115q-10 -37 3 -66h-142q59 38 199 317q-41 37 -83 37q-20 0 -39 -18t-19 -38q0 -11 12.5 -29t23.5 -21q-15 -24 -47 -24q-38 0 -64.5 25.5t-26.5 63.5
q0 48 34.5 79.5t83.5 31.5q71 0 149 -50q24 34 72 132q52 105 52 129q0 11 -17 40q23 -5 47 -10q28 -5 47 -5q66 0 101 17l-11 -46q109 -275 138 -341q107 -251 152 -290zM522 330l-96 243h-7l-101 -227q16 -18 49 -31t58 -13q60 0 94 21z" />
    <glyph glyph-name="B" unicode="B" horiz-adv-x="700" 
d="M648 185q0 -103 -82 -152q-66 -40 -175 -40q-47 0 -144.5 13t-144.5 13q-21 0 -50 -7q-25 -7 -49 -13q1 11 17.5 32.5t16.5 33.5l-1 528q0 38 -31 77h458q68 0 114 -31q53 -36 53 -99q0 -56 -60 -89q-27 -16 -108 -39q37 -19 75 -38q50 -27 76 -64q35 -49 35 -125z
M497 545q0 31 -39 53q-33 19 -68 19h-207v-107q23 35 53 34q0 -45 39 -73q35 -27 82 -27q48 0 91 26q49 30 49 75zM495 210q0 118 -61 158q-25 16 -131 36q-86 17 -119 68l1 -357q0 -46 47 -59q24 -7 84 -7q96 0 135 32q44 36 44 129z" />
    <glyph glyph-name="C" unicode="C" horiz-adv-x="850" 
d="M832 9h-10q-9 11 -35.5 19t-41.5 5l-168 -30q-106 -20 -167 -20q-158 0 -269 96q-118 101 -118 257q0 159 110 257q105 94 267 94q94 0 180 -35q90 -36 151 -102q-15 -19 -49 -44q-41 61 -110 97t-143 36q-126 0 -194 -100q-58 -86 -58 -218q0 -118 65 -204
q72 -94 187 -94q54 0 110 29l85 53q46 28 78 28q100 0 130 -124z" />
    <glyph glyph-name="D" unicode="D" horiz-adv-x="786" 
d="M733 337q0 -158 -94.5 -254t-249.5 -92l-90 3l-5 5q-55 5 -110 9q-67 6 -110 6q-10 0 -39 -8q-25 -7 -38 -4q30 36 34 43q9 17 9 54v448q0 82 -40 124h376q163 0 257 -84q100 -88 100 -250zM580 331q0 101 -44 188q-54 107 -148 107h-212v-556q44 -29 123 -29h46
q107 0 174 94q61 83 61 196z" />
    <glyph glyph-name="E" unicode="E" horiz-adv-x="766" 
d="M716 125q0 -76 -73 -119q-62 -35 -141 -35t-194 14l-194 26q-4 0 -34 -5q-44 -7 -67 -19v13q10 6 19 23.5t9 31.5v535q0 51 -38 81h540l45 -87q-72 43 -104 43h-305v-168h335q23 0 51 22q13 -14 29 -45q18 -35 27 -47q-62 22 -74 22h-371v-351l5 -4q56 -9 112 -19
q88 -15 142 -15q50 0 75 12q13 6 63 56q0 22 -12.5 41.5t-33.5 19.5t-33 -9h-9q9 33 40 60t65 29q57 4 91.5 -27t34.5 -79z" />
    <glyph glyph-name="F" unicode="F" horiz-adv-x="683" 
d="M644 403q-52 27 -76 27h-381l-1 -349q4 -39 37 -80h-211l20 26q16 25 16 49l-1 513q0 64 -35 83h544q5 -10 38 -82q-42 31 -52 31h-354v-141l353 -1q27 0 29 0.5t26 12.5z" />
    <glyph glyph-name="G" unicode="G" horiz-adv-x="817" 
d="M771 104q-23 -3 -65 -14q-41 -26 -122 -75q-19 -12 -79 -22q-56 -9 -95 -9q-158 0 -264 81q-120 91 -120 254q0 132 63 212q122 155 332 155q71 0 118.5 -15t109.5 -56q35 -24 35 -35q0 -12 -15 -25.5t-25 -12.5q-31 26 -99 68q-64 27 -117 27q-128 0 -194 -111
q-51 -87 -51 -207q0 -109 54 -189q66 -96 184 -96q67 0 115 24q64 34 64 101q0 96 -134 120q-2 4 5 42q1 0 5 1t7 1q37 0 103.5 -28t98.5 -28q24 0 80 25q0 -1 -11 -29q-13 -33 -13 -64q0 -50 30 -87v-8z" />
    <glyph glyph-name="H" unicode="H" horiz-adv-x="680" 
d="M625 679q-21 -34 -25 -56q-2 -5 -6 -52l-1 -483q0 -43 36 -87l-207 1l20 30q11 20 15 50v268h-285l-1 -262q-3 -21 33 -87h-198q29 58 29 86q1 24 0 505q-2 13 -32 86q11 -5 53 -11q36 -6 44 -6q32 0 52 6q25 8 51 15q-9 -19 -17 -39q-12 -27 -12 -42v-212h283v192
q0 44 -23 82q-6 10 -6 12q47 -15 107 -15q19 0 46 9.5t44 9.5z" />
    <glyph glyph-name="I" unicode="I" horiz-adv-x="272" 
d="M222 0h-213q11 12 22.5 39t13.5 41v506q-4 36 -31 94q42 -20 91 -20q56 0 109 25q-30 -57 -32 -89l-1 -509q4 -37 16 -53.5t25 -33.5z" />
    <glyph glyph-name="J" unicode="J" horiz-adv-x="625" 
d="M575 679q-10 -21 -19 -43q-15 -34 -15 -49v-399q0 -18 10.5 -54t21.5 -48l-115 -65q-82 -32 -202 -32q-78 0 -153 31q-105 43 -105 125q0 71 55 108q46 30 112 30q24 0 64.5 -34t40.5 -53v-26q-5 2 -34 19q-10 5 -29 5q-29 0 -47 -25q-16 -21 -16 -47q0 -51 56 -75
q36 -16 81 -16q51 0 88.5 45t37.5 97q0 74 1 204q2 163 2 203q-12 77 -33 96q76 -19 97 -19q42 0 101 22z" />
    <glyph glyph-name="K" unicode="K" horiz-adv-x="743" 
d="M715 3q-38 -13 -60 -13q-14 0 -44 7.5t-44 7.5q-69 0 -122 -14q10 20 10 36t-14 35q-12 16 -24 31q-56 82 -171 243q-19 -21 -76 -96v-184q0 -17 8.5 -30.5t16.5 -27.5h-187q6 9 15.5 32t9.5 30v554q0 21 -18 63q9 -5 43.5 -12.5t46.5 -7.5q61 0 90 20q-25 -48 -25 -63
v-294q102 149 182 247q88 109 159 109q137 0 137 -100q0 -40 -33 -71t-73 -31q-42 0 -70 26q2 4 24 18q16 10 16 45q0 46 -32 46q-30 0 -54 -33l-95 -131q0 -4 123 -172q125 -171 143 -191q48 -54 118 -79z" />
    <glyph glyph-name="L" unicode="L" horiz-adv-x="732" 
d="M691 127q0 -51 -30.5 -91t-79.5 -52q-25 -5 -68 -5q-62 0 -184 18.5t-182 18.5q-104 0 -134 -12q10 17 20.5 36.5t10.5 36.5v521q0 22 -29 81q45 -17 98 -17q52 0 109 19q-22 -43 -27 -76q-4 -24 -4 -81l-1 -454q40 0 106 -8q63 -21 124 -21q43 0 77 15q45 19 45 55
q0 13 -13.5 26t-26.5 13q-7 0 -38 -31q-5 12 -5 25q0 31 27 60q33 35 84 35q49 0 85 -32t36 -80z" />
    <glyph glyph-name="M" unicode="M" horiz-adv-x="864" 
d="M812 1h-202q20 20 26 48q2 15 5 30l-1 513q-43 -82 -119 -239q-78 -161 -78 -170q0 -24 28 -49q25 -23 39 -20q-23 -8 -65 -25q-14 -8 -100 -71q-76 205 -242 525l1 -456q10 -57 35 -86h-136q32 66 32 87v525q0 24 -30 70q45 -16 109 -16q46 0 130 14l-10 -20
q-9 -17 -9 -31q0 -8 3 -15q11 -26 35 -78q45 -90 140 -272q59 122 171 349q6 13 6 24q0 16 -17 45q-2 0 53.5 -14t71.5 -14q65 0 124 29q-11 -14 -21.5 -29t-10.5 -41v-540q0 -46 32 -73z" />
    <glyph glyph-name="N" unicode="N" horiz-adv-x="688" 
d="M668 1h-228q9 15 9 31q0 9 -3 19l-3 10q0 10 -163 248q-157 230 -185 266l-1 -473l10 -52q8 -33 19 -49h-114q7 9 19 47.5t12 53.5l-2 518q0 13 -29 58l60 -14q24 -5 65 -5q42 0 111 15q0 3 -3 -29q-2 -18 5 -29q101 -155 310 -462l1 406v49q-4 25 -26 64q5 0 29 -6
q21 -5 24 -5q-4 0 51 12q-22 -46 -25 -70q-1 -1 -1 -44v-473q0 -9 58 -86z" />
    <glyph glyph-name="O" unicode="O" horiz-adv-x="890" 
d="M828 324q-1 -136 -130 -237q-123 -98 -270 -98q-150 0 -272 100q-130 105 -130 249q0 165 120 264q111 90 273 90q183 0 297 -101.5t112 -266.5zM664 320q0 313 -250 313q-113 0 -173 -98q-50 -82 -50 -202q0 -290 237 -290q113 0 177 84q59 77 59 193z" />
    <glyph glyph-name="P" unicode="P" horiz-adv-x="703" 
d="M654 546q-6 -82 -117 -120q-71 -24 -143 -24q-24 -3 -49 -3q-120 0 -170 66v-401q3 -28 22 -63h-199q27 48 27 66v510q0 42 -29 95l516 1q51 0 98 -40t44 -87zM501 550q0 46 -53 67q-36 14 -78 13l-198 -1v-127q32 41 67 41q18 0 31 -15q-1 -1 -23 -14q-13 -7 -10 -26
q2 -19 40 -31q29 -8 56 -8q168 0 168 101z" />
    <glyph glyph-name="Q" unicode="Q" horiz-adv-x="908" 
d="M846 320q0 -184 -214 -285q16 -23 39 -44q30 -25 51 -25q15 0 35 12q16 11 32 21v-36q0 -39 -50 -69q-43 -27 -84 -27q-61 0 -108 37q-30 24 -78 89q-55 3 -62 3q-126 -5 -247 85q-133 99 -133 237q0 171 131 273q115 91 273 91q160 0 280 -92q135 -102 135 -270z
M672 315q0 132 -58 220q-67 99 -186 99q-129 0 -189 -110q-45 -82 -45 -207q0 -124 63 -199q68 -80 190 -80q-27 45 -64 75q-26 20 -44 25q-1 3 0 4q6 15 42 24q27 8 49 8q90 0 136 -62q7 -9 20 -18q45 38 69 112q17 56 17 109z" />
    <glyph glyph-name="R" unicode="R" horiz-adv-x="701" 
d="M665 -7l-135 17l-72 -15l-28 6q21 25 21 49q0 6 -2 11q-5 16 -58 140q-59 137 -84 182q-3 6 -15 7q-15 1 -20 3q-77 32 -77 99q0 26 15.5 46.5t39.5 20.5q-12 -24 -12 -38q0 -36 41 -56q31 -15 60 -15h7q40 0 86 22q60 30 60 76q0 27 -27 49.5t-54 22.5h-241l2 -534
q0 -20 13.5 -45.5t29.5 -39.5h-211q34 47 37 89v498q-4 26 -32 83l465 -1q66 3 115.5 -34t49.5 -100q-1 -76 -53 -115q-45 -32 -116 -32q-1 -1 -16 1q-13 2 -13 -1q0 -2 138 -307q21 -46 86 -89z" />
    <glyph glyph-name="S" unicode="S" horiz-adv-x="786" 
d="M730 225q0 -106 -104 -174q-93 -61 -206 -61q-20 0 -37 2t-124 22q-80 14 -120 14q-24 0 -42 -3q-28 -5 -98 -44q0 59 27 99q34 50 101 48q28 -1 120 -38.5t172 -42.5q56 3 101 17q96 31 96 100q0 22 -16 44.5t-43 32.5q-58 21 -95 28q-103 16 -214 38q-198 36 -198 191
q0 94 111 146q82 39 169 39q108 0 190 -43q30 -16 111 -77q-37 -19 -41 -21q-25 -16 -33 -33q-4 22 -19 43q-32 41 -93 64q-53 20 -113 20q-59 0 -105 -19q-64 -26 -64 -81q0 -54 121 -85q24 -6 164 -28q282 -43 282 -198z" />
    <glyph glyph-name="T" unicode="T" horiz-adv-x="700" 
d="M671 565q-28 18 -83 49q-22 9 -34 9l-149 2l-1 -538q0 -15 14.5 -45.5t28.5 -40.5h-226q13 3 31.5 34.5t18.5 48.5v540h-153q-6 0 -34 -9q-19 -7 -40 -23q-28 -22 -37 -27v8q0 4 26 47.5t34 51.5q7 1 74 0h465q23 -33 65 -107z" />
    <glyph glyph-name="U" unicode="U" horiz-adv-x="683" 
d="M635 672q-22 -19 -31 -48q-2 -7 -8 -52l-1 -400q0 -50 -21 -94q-25 -53 -69 -69q-49 -17 -154 -17q-179 0 -104 -1q-59 0 -104 10t-75 59q-27 43 -27 91q0 12 2 22v390q0 63 -37 109h219q-25 -32 -33 -58q-4 -24 -8 -49v-398q7 -122 158 -122q115 0 145 26q25 22 35 58
q0 1 9 59l-1 372q0 77 -38 112h143z" />
    <glyph glyph-name="V" unicode="V" horiz-adv-x="813" 
d="M791 677q-34 -26 -37 -29q-20 -17 -30 -35q-31 -59 -134 -274q-112 -233 -110 -244q5 -33 50 -96h-251q34 50 34 80q0 39 -94 241l-116 256q-14 22 -28 39q-34 43 -65 59q86 -13 135 -13l136 13q-33 -16 -33 -54q0 -12 6.5 -39.5t76.5 -192.5q73 -172 104 -226
q52 109 105 218q91 196 91 231q0 52 -5 63q19 -3 47 -10q25 -6 27 -6q31 0 91 19z" />
    <glyph glyph-name="W" unicode="W" horiz-adv-x="1017" 
d="M1005 673q-20 -16 -53 -50q-16 -24 -43 -100q-25 -69 -75 -208q-1 -4 -63 -189q8 -30 17 -54q23 -57 45 -73h-210q26 45 26 70q0 12 -5 23q-59 179 -146 430q-3 -3 -126 -406q6 -22 15 -41q20 -47 47 -76l-239 1q42 40 39 95l-151 456q-7 19 -18 38q-25 48 -65 92
q51 -23 114 -23q52 0 113 15q-16 -26 -16 -46q0 -14 6 -38q15 -65 117 -358q5 13 60 199.5t55 190.5q0 32 -21 57q15 -3 53 -15q22 -7 56 -7q26 0 51 8q33 11 38 12q-14 -35 -11 -56l125 -382q110 301 110 358q0 36 -26 76q44 -11 76 -11q3 0 42.5 3.5t43.5 3.5z" />
    <glyph glyph-name="X" unicode="X" horiz-adv-x="781" 
d="M778 -1h-277q29 32 29 67q0 23 -26 54l-42 46q-23 31 -89 109q-151 -193 -160 -220q-4 -10 -4 -19q0 -14 14 -37h-228q51 15 99 65q3 3 77 93q141 172 141 184q0 10 -98.5 131.5t-118.5 139.5q-32 29 -85 61q46 -13 124 -13q120 0 174 13q-24 -21 -24 -49q0 -14 3 -18
l122 -153l114 151q8 10 8 26q0 27 -33 43l96 -11q56 0 121 10q-48 -32 -84 -68q-3 -3 -57 -75l-108 -145q80 -103 242 -308q23 -26 70 -77z" />
    <glyph glyph-name="Y" unicode="Y" horiz-adv-x="824" 
d="M811 681q-43 -21 -79 -59q-22 -22 -130.5 -184t-108.5 -169l1 -215q2 -21 35 -52h-223q34 33 37 54q1 62 -1 207q-79 117 -114 163q-73 96 -113 165q-30 44 -53 58q-28 15 -56 29l154 -21l150 18q-32 -17 -32 -56q0 -17 8 -29q60 -86 174 -261q47 85 158 262q12 16 12 32
q0 23 -31 55q47 -21 98 -21q22 0 114 24z" />
    <glyph glyph-name="Z" unicode="Z" horiz-adv-x="807" 
d="M755 125q0 -87 -116 -125q-77 -25 -187 -25q-6 0 -121 13q-163 18 -230 18q-41 0 -93 -8q0 2 -1 4v3q66 77 189 247q155 214 256 361h-265q-87 0 -141 -43l37 100h592l-441 -614q54 -17 222 -17q125 0 125 67q0 17 -10.5 31.5t-27.5 14.5q-20 0 -57 -42v6q-1 86 47 121
q35 26 93 23q55 -3 92 -41t37 -94z" />
    <glyph glyph-name="bracketleft" unicode="[" horiz-adv-x="136" 
d="M120 -40h-112v754q44 3 105 0v-42q-30 4 -57 0v-671q6 -4 8 -4h56v-37z" />
    <glyph glyph-name="backslash" unicode="\" horiz-adv-x="330" 
d="M288 13q-13 -2 -36 -11l-248 665q4 2 39 12z" />
    <glyph glyph-name="bracketright" unicode="]" horiz-adv-x="183" 
d="M118 -39h-114v40h64v676q-15 3 -59 0q1 7 0 41h109v-757z" />
    <glyph glyph-name="asciicircum" unicode="^" horiz-adv-x="332" 
d="M356 712q-13 -12 -26 -16l-128 62l-127 -67q-7 4 -22 13q-1 7 8 13q47 38 141 111z" />
    <glyph glyph-name="underscore" unicode="_" horiz-adv-x="556" 
d="M-1 -82h557v-25h-557v25z" />
    <glyph glyph-name="grave" unicode="`" horiz-adv-x="229" 
d="M206 728q0 -2 -8 -19q-30 8 -78 26q-34 11 -68.5 23t-34.5 31q0 14 8 28q10 18 26 18q8 0 64 -41q45 -33 91 -66z" />
    <glyph glyph-name="a" unicode="a" horiz-adv-x="550" 
d="M511 355q-39 -24 -39 -83v-205q0 -34 29 -66l-156 -1q6 27 5 56l-1 9q-28 -36 -87 -55q-50 -16 -104 -16q-57 0 -103 29q-53 34 -53 88q0 77 89 119q33 15 166 49q90 23 90 54q0 25 -35 40q-27 11 -57 11q-24 0 -72 -13.5t-70 -26.5q-49 -28 -52 -28q-5 0 -14.5 15
t-9.5 20q3 4 13 12q36 27 110 49.5t122 22.5q90 0 229 -80zM351 251q-17 -15 -79 -30q-68 -16 -95 -31q-46 -26 -46 -76q0 -29 19 -47t47 -18q26 0 71.5 21t64 39.5t18.5 40.5q2 90 0 101z" />
    <glyph glyph-name="b" unicode="b" horiz-adv-x="542" 
d="M496 226q0 -103 -55 -166q-58 -67 -159 -67q-84 0 -117 58v-25q0 -20 1 -26h-159q39 42 39 82v486q0 39 -6.5 56.5t-31.5 49.5q49 -10 78 -10q3 0 81 13v-280q59 37 109 37q10 0 30 -1h31q14 0 49 -20t47 -32q63 -65 63 -155zM365 226q0 63 -23 111q-29 60 -86 60
q-93 0 -93 -162v-44q0 -28 1 -39q3 -45 29 -77q28 -36 71 -36q53 0 80 71q21 53 21 116z" />
    <glyph glyph-name="c" unicode="c" horiz-adv-x="533" 
d="M518 -1q-41 22 -77 22q-11 0 -81.5 -15.5t-100.5 -15.5q4 0 -36 2q-79 3 -141 72.5t-62 147.5q0 79 46 132q79 91 221 91q64 0 122 -39q40 -28 59 -58q-38 -29 -39 -29q-46 73 -141 73q-73 0 -111 -53q-33 -45 -33 -119q0 -60 41.5 -112t97.5 -52q36 0 86.5 31.5
t76.5 31.5q72 0 72 -110z" />
    <glyph glyph-name="d" unicode="d" horiz-adv-x="540" 
d="M498 1h-147q4 39 4 51q-54 -61 -145 -61q-90 0 -149 74q-54 66 -54 148q0 79 53 144q60 73 147 75q59 1 96 -21q18 -11 50 -46l-1 236q-4 17 -8 35q-6 23 -17 38q10 0 39 -7q25 -6 46 -6q47 0 84 19q-23 -37 -23 -76l-2 -506q1 -24 3 -49q4 -28 24 -48zM360 204
q0 67 -29 120q-35 65 -98 65q-53 0 -79 -64q-19 -47 -19 -111q0 -60 22 -104q31 -66 100 -66q56 0 83 55q20 41 20 105z" />
    <glyph glyph-name="e" unicode="e" horiz-adv-x="526" 
d="M495 24q0 -12 -2 -21q-17 13 -33 25q-21 14 -38 14q-24 0 -87 -25.5t-96 -25.5q-107 0 -173 58q-69 62 -69 168q0 89 76 155q73 63 164 63q69 0 128 -36t96 -97q-93 -26 -181 -74q-124 -66 -124 -126q0 -31 30 -50q25 -16 58 -16q42 0 99.5 37t84.5 37q67 0 67 -86z
M310 324q0 27 -24 46.5t-52 19.5q-45 0 -84.5 -47.5t-39.5 -94.5q0 -61 22 -88q28 53 111 102q67 39 67 62z" />
    <glyph glyph-name="f" unicode="f" horiz-adv-x="390" 
d="M383 564q0 -31 -23 -57.5t-54 -26.5t-53 16q-26 17 -26 47q0 14 6 29h5q12 0 23 7.5t11 18.5q0 17 -16 27.5t-33 10.5q-33 0 -40 -32q-2 -28 -4 -57v-16q0 -75 -1 -103h101v-43h-98l-1 -313q0 -43 27 -72h-172q30 15 30 70l1 312h-63l-1 46h63v93q0 27 -6 61
q-9 42 -21 55q17 4 84 28q50 18 86 18q63 0 114 -28q61 -33 61 -91z" />
    <glyph glyph-name="g" unicode="g" horiz-adv-x="555" 
d="M508 -15q0 -83 -97 -128q-75 -35 -169 -35q-95 0 -157 24q-89 35 -89 115q0 46 27.5 73.5t73.5 27.5q31 0 57 -23t26 -53q0 -6 -4.5 -23t-7.5 -17q-5 0 -19 6t-19 6q-40 0 -40 -27q0 -66 144 -66q55 0 93 17q50 24 50 72q0 54 -47 69q-44 7 -89 14q-9 2 -9 5q0 6 8 24
q10 24 11 26q-2 -1 -4 -1q-76 0 -133 50t-57 125q0 84 60 133q55 45 141 48q-1 9 -1 19q0 37 17 65q20 32 54 31q65 -3 65 -50q0 -45 -34 -45q-16 0 -31 7q8 23 8 31q0 14 -15 14q-31 0 -31 -54q0 -9 1 -18q73 -2 130 -54t57 -125q0 -96 -114 -150l5 -3q57 -10 95 -41
q44 -36 44 -89zM359 271q0 49 -23 84q-27 39 -74 39q-41 0 -65 -29t-24 -71q0 -68 15 -102q23 -50 83 -50q43 0 68 45q20 37 20 84z" />
    <glyph glyph-name="h" unicode="h" horiz-adv-x="551" 
d="M508 2h-179q28 54 28 64v231q0 18 -3 29q-19 66 -93 66q-32 0 -59.5 -21t-39.5 -51q-7 -17 -7 -15v-263q0 -12 23 -40h-179q25 16 25 74l1 530q0 43 -26 75q38 -14 78 -14q26 0 86 12q-8 -13 -8 -24v-271q70 56 149 56q91 0 163 -44q11 -10 34 -28q-9 -17 -18 -35
q-3 -7 -3 -48l1 -206q0 -49 27 -77z" />
    <glyph glyph-name="i" unicode="i" horiz-adv-x="253" 
d="M196 567q0 -34 -29 -62t-63 -28q-39 0 -65.5 29t-26.5 68q0 31 31 56q28 24 58 24q36 0 65.5 -24.5t29.5 -62.5zM211 2h-194q25 24 35 71l3 241q0 80 -41 115q3 0 43.5 -6t51.5 -6q12 0 36.5 5t37.5 5q-11 -30 -11 -37v-317q0 -18 15 -38q22 -29 24 -33z" />
    <glyph glyph-name="j" unicode="j" horiz-adv-x="393" 
d="M365 565q0 -40 -28 -66t-64 -26q-39 0 -65 26t-26 63q0 36 24.5 64t61.5 28t67 -26.5t30 -62.5zM364 -99q-83 -32 -101 -38q-51 -16 -95 -16q-57 0 -98 29q-49 33 -49 92q0 35 24 61t61 26q32 0 55 -18t23 -49q0 -43 -42 -59q0 10 -8.5 21t-22.5 11q-24 0 -24 -26
q0 -20 22 -36q19 -14 34 -14q33 0 55 16q26 18 26 51q0 2 -6 30.5t-6 39.5v334q0 18 -40 73l17 -4q1 0 32.5 -6.5t42.5 -6.5q45 0 93 15q-7 -13 -13 -26q-13 -29 -11 -39v-313q-7 -109 30 -141z" />
    <glyph glyph-name="k" unicode="k" horiz-adv-x="536" 
d="M510 0h-214q18 28 18 46q0 35 -108 190q-17 -12 -19 -13q-10 -9 -13 -17v-55q0 -56 3 -76q9 -48 40 -74h-203q32 42 32 80v481q0 21 -16 64q-16 40 -24 45q41 -11 85 -11q46 0 106 17q-17 -17 -20 -50l-4 -50v-309q2 0 6 4t6 5q106 154 195 154q38 0 70 -28t32 -68
q0 -29 -20.5 -50t-45.5 -21q-13 0 -35 7q-29 9 -29 22q0 2 5 13t5 15q0 26 -29 26q-18 0 -28 -9q-13 -16 -27 -33l112 -176q69 -102 120 -129z" />
    <glyph glyph-name="l" unicode="l" horiz-adv-x="245" 
d="M196 0h-193q33 35 33 103v505q-3 36 -35 64q24 -8 90 -8q40 0 84 15q-4 -16 -12 -37v-545q0 -67 33 -97z" />
    <glyph glyph-name="m" unicode="m" horiz-adv-x="867" 
d="M812 1h-193q-1 2 14.5 25t15.5 45v176q0 55 -11 82q-17 44 -63 44q-38 0 -68 -21q-33 -23 -33 -60l-1 -195q4 -25 8.5 -49.5t31.5 -47.5h-206q38 44 38 63v240q0 30 -22 52t-52 22q-28 0 -62 -24q-37 -26 -37 -52v-238q0 -33 34 -63h-200q34 28 33 57v285q0 38 -43 81
q90 -12 91 -12q13 0 39 7q33 8 41 9q-1 -10 -1 -38l5 -9q47 55 138 55q42 0 84 -13q52 -15 71 -42q54 54 144 54q41 0 70.5 -9t71.5 -39q45 -33 44 -51q0 -3 -8.5 -22.5t-8.5 -23.5l1 -212q1 -20 12 -39t22 -37z" />
    <glyph glyph-name="n" unicode="n" horiz-adv-x="539" 
d="M481 -4q-52 11 -78 11q-64 0 -84 -12q22 37 22 58l1 262q0 28 -31 46q-27 14 -57 14q-41 0 -72 -26q-34 -28 -34 -69l-1 -220q0 -22 4.5 -32t24.5 -31q-45 13 -99 13q-13 0 -79 -12q9 8 19 29t10 33l1 254q1 41 -5 61q-7 25 -30 52h157q-4 -24 0 -44q53 51 152 51
q121 0 180 -83q-23 -27 -23 -38v-129q-1 -86 -1 -131q0 -21 24 -59v0q0 1 -1 2z" />
    <glyph glyph-name="o" unicode="o" horiz-adv-x="553" 
d="M499 215q0 -113 -68 -170q-64 -54 -178 -54q-113 0 -180 53q-74 58 -74 169q0 103 72 166q69 60 177 60q118 0 184.5 -58.5t66.5 -165.5zM362 233q0 171 -110 168q-71 -1 -97 -58q-18 -38 -18 -115q0 -103 11 -136q23 -68 105 -68q76 0 98 74q11 35 11 135z" />
    <glyph glyph-name="p" unicode="p" horiz-adv-x="550" 
d="M496 211q0 -93 -66 -158t-156 -65q-39 0 -62 9q-18 8 -54 34l-1 -2q0 -40 1 -103q0 -43 37 -72h-193q19 35 20 38q3 7 5 34l-2 444q0 10 -9 27q-8 13 -17 27q37 -8 80 -8q19 0 75 16q0 -14 2 -43q42 31 64 39q18 7 59 8q90 4 153.5 -64t63.5 -161zM369 207
q0 185 -107 185q-79 0 -100 -77q-7 -28 -7 -119v-62q5 -49 29 -75q31 -33 90 -33q95 0 95 181z" />
    <glyph glyph-name="q" unicode="q" horiz-adv-x="549" 
d="M512 -150h-205q7 6 21 30.5t14 35.5l1 105q-16 -10 -34 -18q-41 -19 -79 -20q-99 -3 -168 70q-63 68 -63 153q0 81 57 152q63 79 151 79q49 0 68 -6.5t64 -38.5q0 1 -1 37q25 -7 82 -14q27 0 86 12q0 -2 -15 -28.5t-15 -38.5v-450q0 -7 9 -25q12 -24 27 -35zM346 191
q0 86 -10 119q-22 79 -100 79q-105 0 -105 -187q0 -176 97 -176q33 0 73.5 27.5t43.5 57.5q1 10 1 80z" />
    <glyph glyph-name="r" unicode="r" horiz-adv-x="452" 
d="M406 321q0 -62 -46 -91q-25 -16 -54 -16q-42 0 -64 24q-19 21 -19 52q0 22 10.5 38t26.5 16q15 -19 30 -15q20 5 20 26q0 32 -40 32q-45 0 -76.5 -27.5t-31.5 -70.5l-1 -219q-2 -15 13.5 -33.5t30.5 -36.5h-199q36 40 36 71v279q0 23 -7 39q-11 19 -21 38q10 0 33.5 -5
t35.5 -5q16 0 86 13q4 -8 0 -32l4 -4q47 38 109 38q54 0 88 -28q36 -31 36 -83z" />
    <glyph glyph-name="s" unicode="s" horiz-adv-x="560" 
d="M517 136q0 -69 -72 -109q-54 -30 -127 -37q-38 -3 -118 12q-85 16 -108 15q-39 2 -79 -32q-10 9 -10 38q0 30 20.5 54t51.5 24q29 0 93.5 -31.5t74.5 -31.5q2 0 24.5 -2.5t25.5 -2.5q42 0 75 16q46 22 46 67q0 51 -74 62q-67 11 -96 11q-76 -1 -131 16q-89 29 -89 100
q0 38 35 75.5t84.5 48.5t98.5 11q48 0 114 -15q80 -18 101 -43q-8 -16 -24 -47q-94 55 -176 55q-118 0 -118 -49q0 -45 115 -45q7 0 64 -5q199 -19 199 -155z" />
    <glyph glyph-name="t" unicode="t" horiz-adv-x="295" 
d="M276 435q-7 -23 -24 -76q-15 14 -34 14l-26 -1v-300q0 -35 33 -72h-178q35 51 35 74v295h-80q6 18 17 60q4 -2 63 -2v121q0 11 -18 35l-20 26q61 -12 81 -12q10 0 35 5q33 6 46 13q0 -2 -6 -29t-6 -29v-129h46q18 2 36 7z" />
    <glyph glyph-name="u" unicode="u" horiz-adv-x="537" 
d="M491 0h-150q2 16 -4 40q-22 -23 -68 -37q-40 -13 -76 -13q-51 0 -100.5 22.5t-81.5 61.5q23 27 23 32v263q0 11 -9.5 36t-13.5 28q65 -15 84 -15q54 0 80 17q-24 -47 -24 -66l-1 -253q0 -36 34 -54q24 -12 56 -12q40 0 70.5 26.5t30.5 67.5v227q0 18 -27 60
q75 -13 86 -13q3 0 36 5q37 6 50 7q-30 -34 -30 -58v-269q0 -81 35 -103z" />
    <glyph glyph-name="v" unicode="v" horiz-adv-x="590" 
d="M552 433q-43 -36 -67 -70q-6 -8 -51 -94t-103 -199l34 -70h-171q7 10 13.5 19.5t6.5 25.5q0 18 -77 166q-75 142 -101 180q-15 14 -44 42q58 -17 105 -17q49 0 95 15q-6 -12 -11 -25t-5 -27q0 -21 55 -122q41 -76 73 -126q27 48 67 127q53 105 53 121q0 32 -10 52
q27 -12 64 -12q35 0 74 14z" />
    <glyph glyph-name="w" unicode="w" horiz-adv-x="792" 
d="M755 427q-34 -28 -53 -68q-14 -32 -27 -64q-20 -41 -52 -126q-20 -52 -39 -103q5 -25 25 -66h-158q18 18 18 43q0 22 -36 108q-27 61 -53 121l-83 -205q5 -29 24 -65h-156q14 9 16 19v24q0 36 -50 142q-27 65 -73 168q-10 19 -25 38q-21 26 -28 36q36 -15 86 -15
q27 0 92 17q-12 -25 -12 -58q0 -38 101 -241l79 196q-12 38 -30 67q-11 11 -30 34q21 -5 41 -11q25 -6 42 -6q3 0 39 6t39 6l14 6q-1 -8 -5.5 -28.5t-4.5 -23.5q0 -37 91 -243q29 61 58 123q54 114 54 129q0 18 -10 40q-1 -1 19.5 -7t28.5 -6q4 0 28 4q16 2 30 9z" />
    <glyph glyph-name="x" unicode="x" horiz-adv-x="537" 
d="M492 0l-198 1q0 2 6.5 14t6.5 22q0 15 -29 59l-40 60q-9 -7 -41 -54q-34 -52 -36 -66q-1 -22 11 -35h-175l44 22q27 14 42 29q30 28 75 90q41 58 41 64q0 -1 -135 178q-4 6 -51 47q61 -14 95 -14q15 0 106 9q-2 -7 -8.5 -14t-6.5 -19q0 -23 24 -56q21 -27 41 -54
q6 3 35 45t29 49q0 37 -10 52q45 -11 74 -11q1 0 87 10q-47 -26 -94 -86l-82 -106q29 -41 136 -193q7 -10 53 -43z" />
    <glyph glyph-name="y" unicode="y" horiz-adv-x="579" 
d="M574 429q-19 -14 -54 -49q-12 -16 -25 -46q-17 -40 -22 -49q-66 -125 -154 -285q-41 -76 -46 -83q-30 -45 -70 -62q-24 -10 -54 -10q-39 0 -71 24q-35 26 -35 64q0 27 21.5 50t48.5 23q63 0 66 -54q-16 6 -27 6q-7 0 -15 -3q-15 -14 -15 -25q0 -30 35 -30q32 0 68.5 45.5
t36.5 79.5q0 12 -90 170q-77 136 -105 182q-15 23 -60 53q53 -18 104 -18q45 0 113 15l-14 -18q-8 -12 -8 -21q0 -29 127 -256l120 238q4 34 -12 59q37 -9 67 -9q38 0 70 9z" />
    <glyph glyph-name="z" unicode="z" horiz-adv-x="526" 
d="M504 427l-336 -375q35 1 41 0q124 -14 128 -14q20 0 38 11q22 12 22 31q0 20 -19 20q-14 0 -25 -8q-3 3 0 28q3 21 22 34t42 13q32 0 57 -23t25 -54q0 -80 -101 -96q-25 -4 -33 -4q-15 0 -64 3q-56 3 -61 6q-121 8 -149 8q-27 0 -60 -5t-26 -6h-11l334 380h-200
q-23 0 -88 -41l33 92h431z" />
    <glyph glyph-name="braceleft" unicode="{" horiz-adv-x="420" 
d="M392 -149h-42q-84 0 -123 40q-32 32 -38 98q-2 19 -2 127q0 70 -48 113q-44 39 -116 48v43q100 18 134 69q27 39 27 125q0 14 -1 46t-1 50q0 80 70 114q45 22 138 29v-28q-86 -10 -117 -49q-24 -30 -24 -95q0 -15 1.5 -50t1.5 -54q0 -81 -59 -125q-41 -31 -133 -54
q115 -25 160 -82q34 -43 34 -116q0 -16 -2 -47.5t-2 -45.5q0 -57 25 -85q32 -37 117 -43v-28z" />
    <glyph glyph-name="bar" unicode="|" horiz-adv-x="129" 
d="M81 -63h-39v818h39v-818z" />
    <glyph glyph-name="braceright" unicode="}" horiz-adv-x="426" 
d="M404 282q-109 -7 -143 -85q-21 -47 -21 -171q0 -104 -54 -142q-45 -33 -154 -33v25q86 13 119 52q27 30 27 87q0 17 -3.5 54.5t-3.5 55.5q0 80 51 120q45 36 145 56q-115 35 -145 58q-48 37 -48 122q0 25 4 55q-9 61 -17 122q-19 57 -131 67v28h31q90 0 132 -39
q35 -32 44 -99q3 -27 3 -134q0 -70 48 -112q44 -39 116 -47v-40z" />
    <glyph glyph-name="asciitilde" unicode="~" horiz-adv-x="351" 
d="M322 779q-32 -36 -37 -40q-26 -24 -59 -25q-20 0 -61 13q-46 15 -64 17q-29 4 -42.5 -7.5t-12.5 -11.5q-6 0 -20 8q4 20 36 42.5t54 22.5q25 0 70.5 -15.5t62.5 -15.5q27 0 36 8q19 18 20 18q5 -2 17 -14z" />
    <glyph glyph-name="Adieresis" unicode="&#xc4;" horiz-adv-x="873" 
d="M841 1l-236 -1q20 29 20 51t-41 116q-33 77 -56 120q-59 -35 -130 -35q-57 0 -113 38l-62 -108q-33 -61 -47 -115q-10 -37 3 -66h-142q59 38 199 317q-41 37 -83 37q-20 0 -39 -18t-19 -38q0 -11 12.5 -29t22.5 -21q-14 -24 -46 -24q-38 0 -65 25.5t-27 63.5
q0 48 35 79.5t83 31.5q72 0 150 -50q24 34 72 132q52 105 52 129q0 11 -17 40q23 -5 47 -10q28 -5 47 -5q66 0 101 17l-11 -46q109 -275 138 -341q107 -251 152 -290zM515 330l-96 243h-7l-101 -227q16 -18 49 -31t58 -13q60 0 94 21zM594 763q0 -20 -14.5 -34t-34.5 -15
q-20 0 -35 13.5t-16 34.5q-1 20 11.5 35t32.5 18q22 2 39 -14t17 -38zM421 763q0 -20 -14.5 -34t-34.5 -15q-21 0 -36 14t-15 35q-1 20 12.5 35t34.5 16t37 -14t16 -37z" />
    <glyph glyph-name="Aring" unicode="&#xc5;" horiz-adv-x="873" 
d="M545 762q0 -27 -21 -51t-49 -24h-16q-29 0 -50 24t-21 52q0 30 23.5 51.5t54.5 21.5q33 0 56 -20.5t23 -53.5zM841 1h-235q1 5 10 30q7 21 6 24q-5 26 -49 126q-23 51 -45 103q-69 -32 -128 -32q-39 0 -64 10.5t-51 21.5l-56 -104q-55 -107 -55 -130q0 -18 15 -48h-139
q17 12 44 43q33 53 74 133q34 67 68 135q-36 33 -80 33q-24 0 -40 -17.5t-16 -35.5q0 -40 32 -49q-17 -21 -61 -21q-75 0 -75 89q0 49 38 79q33 27 77 27q37 0 78 -12q45 -14 71 -37q3 0 5 4q29 51 57 101q37 67 49 103q9 27 9 39t-18 54q41 -21 97 -21t108 26
q-17 -24 -17 -66q0 -5 72 -170l176 -378q5 -12 12 -22q15 -26 31 -38zM510 762q0 15 -12 27.5t-30 12.5q-16 0 -30.5 -11.5t-14.5 -27.5q0 -38 43 -38q16 0 28 8q16 11 16 29zM514 322q-3 9 -54 120q-34 75 -44 115l-100 -210q13 -17 49 -31q33 -14 55 -14q60 0 94 20z" />
    <glyph glyph-name="Ccedilla" unicode="&#xc7;" horiz-adv-x="821" 
d="M391 -55q6 3 40 3q35 0 54 -23q17 -19 17 -47q0 -79 -84 -79q-66 0 -93 38q3 5 9 17l33 -12q15 -5 39 -5q42 0 42 37q0 17 -3 23q-7 10 -32 11q-34 3 -51 -13v89q-149 9 -251 103q-108 100 -108 249q0 159 110 257q105 94 267 94q94 0 180 -35q90 -36 151 -102
q-15 -19 -49 -44q-41 61 -110 97t-143 36q-126 0 -194 -100q-58 -86 -58 -218q0 -118 65 -204q72 -94 187 -94q54 0 110 29l85 53q46 28 78 28q100 0 130 -124h-10q-9 11 -35.5 19t-41.5 5q-83 -15 -167 -30q-107 -20 -167 -20v-38z" />
    <glyph glyph-name="Eacute" unicode="&#xc9;" horiz-adv-x="766" 
d="M716 125q0 -76 -73 -119q-62 -35 -141 -35t-194 14l-194 26q-4 0 -34 -5q-44 -7 -67 -19v13q10 6 19 23.5t9 31.5v535q0 51 -38 81h540l45 -87q-72 43 -104 43h-305v-168h335q23 0 51 22q13 -14 29 -45q18 -35 27 -47q-62 22 -74 22h-371v-351l5 -4q56 -9 112 -19
q88 -15 142 -15q50 0 75 12q13 6 63 56q0 22 -12.5 41.5t-33.5 19.5t-33 -9h-9q9 33 40 60t65 29q57 4 91.5 -27t34.5 -79zM437 790q0 -4 -5 -15.5t-9 -13.5t-91.5 -32.5t-89.5 -30.5q-3 0 -13 14v8q15 10 45 29q33 24 67 48q50 35 66 35q14 0 22 -13.5t8 -28.5z" />
    <glyph glyph-name="Ntilde" unicode="&#xd1;" horiz-adv-x="688" 
d="M668 1h-228q9 15 9 31q0 9 -3 19l-3 10q0 10 -163 248q-157 230 -185 266l-1 -473l10 -52q8 -33 19 -49h-114q7 9 19 47.5t12 53.5l-2 518q0 13 -29 58l60 -14q24 -5 65 -5q42 0 111 15q0 3 -3 -29q-2 -18 5 -29q101 -155 310 -462l1 406v49q-4 25 -26 64q5 0 29 -6
q21 -5 24 -5q-4 0 51 12q-22 -46 -25 -70q-1 -1 -1 -44v-473q0 -9 58 -86zM484 784q-32 -37 -36 -41q-27 -23 -60 -24q-20 -1 -70 12q-58 16 -74 18q-29 3 -43 -8.5t-12 -11.5q-6 0 -21 8q5 20 37 43t53 23q25 0 80.5 -16t72.5 -16q28 0 36 8q19 18 20 19q5 -2 17 -14z" />
    <glyph glyph-name="Odieresis" unicode="&#xd6;" horiz-adv-x="890" 
d="M828 324q-1 -136 -130 -237q-123 -98 -270 -98q-150 0 -272 100q-130 105 -130 249q0 165 120 264q111 90 273 90q183 0 297 -101.5t112 -266.5zM664 320q0 313 -250 313q-113 0 -173 -98q-50 -82 -50 -202q0 -290 237 -290q113 0 177 84q59 77 59 193zM554 773
q0 -20 -14.5 -34t-34.5 -15q-20 0 -35 13.5t-16 34.5q-1 20 11.5 35t32.5 18q22 2 39 -14t17 -38zM381 773q0 -20 -14.5 -34t-34.5 -15q-21 0 -36 14t-15 35q0 20 13 35t34 16t37 -14t16 -37z" />
    <glyph glyph-name="Udieresis" unicode="&#xdc;" horiz-adv-x="683" 
d="M635 672q-22 -19 -31 -48q-2 -7 -8 -52l-1 -400q0 -50 -21 -94q-25 -53 -69 -69q-49 -17 -154 -17q-179 0 -104 -1q-59 0 -104 10t-75 59q-27 43 -27 91q0 12 2 22v390q0 63 -37 109h219q-25 -32 -33 -58q-4 -24 -8 -49v-398q7 -122 158 -122q115 0 145 26q25 22 35 58
q0 1 9 59l-1 372q0 77 -38 112h143zM454 763q0 -20 -14.5 -34t-34.5 -15q-20 0 -35 13.5t-16 34.5q-1 20 11.5 35t32.5 18q22 2 39 -14t17 -38zM281 763q0 -20 -14.5 -34t-34.5 -15q-21 0 -36 14t-15 35q-1 20 12.5 35t34.5 16t37 -14t16 -37z" />
    <glyph glyph-name="aacute" unicode="&#xe1;" horiz-adv-x="550" 
d="M511 355q-39 -24 -39 -83v-205q0 -34 29 -66l-156 -1q6 27 5 56l-1 9q-28 -36 -87 -55q-50 -16 -104 -16q-57 0 -103 29q-53 34 -53 88q0 77 89 119q33 15 166 49q90 23 90 54q0 25 -35 40q-27 11 -57 11q-24 0 -72 -13.5t-70 -26.5q-49 -28 -52 -28q-5 0 -14.5 15
t-9.5 20q3 4 13 12q36 27 110 49.5t122 22.5q90 0 229 -80zM351 251q-17 -15 -79 -30q-68 -16 -95 -31q-46 -26 -46 -76q0 -29 19 -47t47 -18q26 0 71.5 21t64 39.5t18.5 40.5q2 90 0 101zM370 537q0 -4 -5 -15.5t-9 -13.5t-91.5 -32t-89.5 -30q-3 0 -13 13v8q15 10 45 29
q33 24 67 48q50 36 66 36q14 0 22 -14t8 -29z" />
    <glyph glyph-name="agrave" unicode="&#xe0;" horiz-adv-x="550" 
d="M504 355q-39 -24 -39 -83v-205q0 -34 29 -66l-156 -1q6 27 5 56l-1 9q-28 -36 -87 -55q-50 -16 -104 -16q-57 0 -104 29q-52 34 -52 88q0 77 89 119q32 15 166 49q90 23 90 54q0 25 -35 40q-27 11 -57 11q-24 0 -72 -13.5t-70 -26.5q-49 -28 -52 -28q-5 0 -14.5 15
t-9.5 20q3 4 13 12q36 27 110 49.5t122 22.5q90 0 229 -80zM344 251q-17 -15 -79 -30q-68 -16 -95 -31q-46 -26 -46 -76q0 -29 19 -47t47 -18q26 0 71.5 21t64 39.5t18.5 40.5q2 90 0 101zM358 475q1 -2 -8 -19q-29 8 -77 26q-34 11 -68.5 23t-34.5 31q0 14 8 28
q10 18 26 18q8 0 64 -41z" />
    <glyph glyph-name="acircumflex" unicode="&#xe2;" horiz-adv-x="550" 
d="M511 355q-39 -24 -39 -83v-205q0 -34 29 -66l-156 -1q6 27 5 56l-1 9q-28 -36 -87 -55q-50 -16 -104 -16q-57 0 -103 29q-53 34 -53 88q0 77 89 119q33 15 166 49q90 23 90 54q0 25 -35 40q-27 11 -57 11q-24 0 -72 -13.5t-70 -26.5q-49 -28 -52 -28q-5 0 -14.5 15
t-9.5 20q3 4 13 12q36 27 110 49.5t122 22.5q90 0 229 -80zM351 251q-17 -15 -79 -30q-68 -16 -95 -31q-46 -26 -46 -76q0 -29 19 -47t47 -18q26 0 71.5 21t64 39.5t18.5 40.5q2 90 0 101zM426 492q-13 -12 -26 -16l-128 62l-127 -67q-7 4 -22 13q-1 7 8 13q47 38 141 111z
" />
    <glyph glyph-name="adieresis" unicode="&#xe4;" horiz-adv-x="550" 
d="M511 355q-39 -24 -39 -83v-205q0 -34 29 -66l-156 -1q6 27 5 56l-1 9q-28 -36 -87 -55q-50 -16 -104 -16q-57 0 -103 29q-53 34 -53 88q0 77 89 119q33 15 166 49q90 23 90 54q0 25 -35 40q-27 11 -57 11q-24 0 -72 -13.5t-70 -26.5q-49 -28 -52 -28q-5 0 -14.5 15
t-9.5 20q3 4 13 12q36 27 110 49.5t122 22.5q90 0 229 -80zM351 251q-17 -15 -79 -30q-68 -16 -95 -31q-46 -26 -46 -76q0 -29 19 -47t47 -18q26 0 71.5 21t64 39.5t18.5 40.5q2 90 0 101zM234 523q0 -20 -14.5 -34t-34.5 -15q-20 0 -35 13.5t-16 34.5q-1 20 11.5 35
t32.5 18q22 2 39 -14t17 -38zM404 523q0 -20 -14.5 -34t-34.5 -15q-21 0 -35.5 13.5t-15.5 34.5q-1 20 11.5 35t32.5 18q22 2 39 -14t17 -38z" />
    <glyph glyph-name="atilde" unicode="&#xe3;" horiz-adv-x="550" 
d="M511 355q-39 -24 -39 -83v-205q0 -34 29 -66l-156 -1q6 27 5 56l-1 9q-28 -36 -87 -55q-50 -16 -104 -16q-57 0 -103 29q-53 34 -53 88q0 77 89 119q33 15 166 49q90 23 90 54q0 25 -35 40q-27 11 -57 11q-24 0 -72 -13.5t-70 -26.5q-49 -28 -52 -28q-5 0 -14.5 15
t-9.5 20q3 4 13 12q36 27 110 49.5t122 22.5q90 0 229 -80zM351 251q-17 -15 -79 -30q-68 -16 -95 -31q-46 -26 -46 -76q0 -29 19 -47t47 -18q26 0 71.5 21t64 39.5t18.5 40.5q2 90 0 101zM419 539q-32 -36 -37 -40q-26 -24 -59 -25q-20 0 -61 13q-46 15 -64 17
q-29 4 -42.5 -7.5t-12.5 -11.5q-6 0 -20 8q4 20 36 42.5t54 22.5q25 0 70.5 -15.5t62.5 -15.5q27 0 36 8q19 18 20 18q5 -2 17 -14z" />
    <glyph glyph-name="aring" unicode="&#xe5;" horiz-adv-x="550" 
d="M511 355q-39 -24 -39 -83v-205q0 -34 29 -66l-156 -1q6 27 5 56l-1 9q-28 -36 -87 -55q-50 -16 -104 -16q-57 0 -103 29q-53 34 -53 88q0 77 89 119q33 15 166 49q90 23 90 54q0 25 -35 40q-27 11 -57 11q-24 0 -72 -13.5t-70 -26.5q-49 -28 -52 -28q-5 0 -14.5 15
t-9.5 20q3 4 13 12q36 27 110 49.5t122 22.5q90 0 229 -80zM351 251q-17 -15 -79 -30q-68 -16 -95 -31q-46 -26 -46 -76q0 -29 19 -47t47 -18q26 0 71.5 21t64 39.5t18.5 40.5q2 90 0 101zM345 552q0 -27 -21 -51t-49 -24h-16q-29 0 -50 24t-21 52q0 30 23.5 51.5t54.5 21.5
q33 0 56 -20.5t23 -53.5zM310 552q0 15 -12 27.5t-30 12.5q-16 0 -30.5 -11.5t-14.5 -27.5q0 -38 43 -38q16 0 28 8q16 11 16 29z" />
    <glyph glyph-name="ccedilla" unicode="&#xe7;" horiz-adv-x="547" 
d="M265 -44q4 3 30 3q27 0 42 -23q12 -20 12 -45q0 -67 -63 -67q-51 0 -71 33q1 4 6 14l25 -10q12 -5 30 -5q33 0 33 32q0 35 -27 38q-26 2 -39 -11v76l-20 1q-79 3 -141 72.5t-62 147.5q0 79 46 132q79 91 221 91q64 0 122 -39q40 -28 59 -58q-38 -29 -39 -29
q-46 73 -141 73q-73 0 -111 -53q-33 -45 -33 -119q0 -60 41.5 -112t97.5 -52q36 0 86.5 31.5t76.5 31.5q72 0 72 -110q-41 22 -77 22q-12 0 -77 -14q-68 -16 -99 -17v-34z" />
    <glyph glyph-name="eacute" unicode="&#xe9;" horiz-adv-x="526" 
d="M495 24q0 -12 -2 -21q-17 13 -33 25q-21 14 -38 14q-24 0 -87 -25.5t-96 -25.5q-107 0 -173 58q-69 62 -69 168q0 89 76 155q73 63 164 63q69 0 128 -36t96 -97q-93 -26 -181 -74q-124 -66 -124 -126q0 -31 30 -50q25 -16 58 -16q42 0 99.5 37t84.5 37q67 0 67 -86z
M310 324q0 27 -24 46.5t-52 19.5q-45 0 -84.5 -47.5t-39.5 -94.5q0 -61 22 -88q28 53 111 102q67 39 67 62zM350 537q0 -4 -5 -15.5t-9 -13.5t-91.5 -32t-89.5 -30q-3 0 -13 13v8q15 10 45 29q33 24 67 48q50 36 66 36q14 0 22 -14t8 -29z" />
    <glyph glyph-name="egrave" unicode="&#xe8;" horiz-adv-x="526" 
d="M495 24q0 -12 -2 -21q-17 13 -33 25q-21 14 -38 14q-24 0 -87 -25.5t-96 -25.5q-107 0 -173 58q-69 62 -69 168q0 89 76 155q73 63 164 63q69 0 128 -36t96 -97q-93 -26 -181 -74q-124 -66 -124 -126q0 -31 30 -50q25 -16 58 -16q42 0 99.5 37t84.5 37q67 0 67 -86z
M310 324q0 27 -24 46.5t-52 19.5q-45 0 -84.5 -47.5t-39.5 -94.5q0 -61 22 -88q28 53 111 102q67 39 67 62zM336 475q0 -2 -8 -19q-30 8 -78 26q-34 11 -68.5 23t-34.5 31q0 14 8 28q10 18 26 18q8 0 64 -41q45 -33 91 -66z" />
    <glyph glyph-name="ecircumflex" unicode="&#xea;" horiz-adv-x="526" 
d="M495 24q0 -12 -2 -21q-17 13 -33 25q-21 14 -38 14q-24 0 -87 -25.5t-96 -25.5q-107 0 -173 58q-69 62 -69 168q0 89 76 155q73 63 164 63q69 0 128 -36t96 -97q-93 -26 -181 -74q-124 -66 -124 -126q0 -31 30 -50q25 -16 58 -16q42 0 99.5 37t84.5 37q67 0 67 -86z
M310 324q0 27 -24 46.5t-52 19.5q-45 0 -84.5 -47.5t-39.5 -94.5q0 -61 22 -88q28 53 111 102q67 39 67 62zM396 492q-13 -12 -26 -16l-128 62l-127 -67q-7 4 -22 13q-1 7 8 13q47 38 141 111z" />
    <glyph glyph-name="edieresis" unicode="&#xeb;" horiz-adv-x="534" 
d="M505 24q0 -12 -2 -21q-17 13 -33 25q-21 14 -38 14q-24 0 -87 -25.5t-96 -25.5q-107 0 -173 58q-69 62 -69 168q0 89 76 155q73 63 164 63q69 0 128 -36t96 -97q-93 -26 -181 -74q-124 -66 -124 -126q0 -31 30 -50q25 -16 58 -16q42 0 99.5 37t84.5 37q67 0 67 -86z
M320 324q0 27 -24 46.5t-52 19.5q-45 0 -84.5 -47.5t-39.5 -94.5q0 -61 22 -88q28 53 111 102q67 39 67 62zM224 523q0 -20 -14.5 -34t-34.5 -15q-21 0 -35.5 13.5t-15.5 34.5q-1 20 11.5 35t32.5 18q22 2 39 -14t17 -38zM394 523q0 -20 -14.5 -34t-34.5 -15q-20 0 -35 13.5
t-16 34.5q-1 20 11.5 35t32.5 18q22 2 39 -14t17 -38z" />
    <glyph glyph-name="iacute" unicode="&#xed;" horiz-adv-x="253" 
d="M211 2h-194q25 24 35 71l3 241q0 80 -41 115q3 0 43.5 -6t51.5 -6q12 0 36.5 5t37.5 5q-11 -30 -11 -37v-317q0 -18 15 -38q22 -29 24 -33zM210 537q0 -4 -5 -15.5t-9 -13.5t-91.5 -32t-89.5 -30q-3 0 -13 13v8q15 10 45 29q33 24 67 48q50 36 66 36q14 0 22 -14t8 -29z
" />
    <glyph glyph-name="igrave" unicode="&#xec;" horiz-adv-x="253" 
d="M211 2h-194q25 24 35 71l3 241q0 80 -41 115q3 0 43.5 -6t51.5 -6q12 0 36.5 5t37.5 5q-11 -30 -11 -37v-317q0 -18 15 -38q22 -29 24 -33zM196 475q0 -2 -8 -19q-30 8 -78 26q-34 11 -68.5 23t-34.5 31q0 14 8 28q10 18 26 18q8 0 64 -41q45 -33 91 -66z" />
    <glyph glyph-name="icircumflex" unicode="&#xee;" horiz-adv-x="253" 
d="M211 2h-194q25 24 35 71l3 241q0 80 -41 115q3 0 43.5 -6t51.5 -6q12 0 36.5 5t37.5 5q-11 -30 -11 -37v-317q0 -18 15 -38q22 -29 24 -33zM223 497q-7 -9 -23 -21l-98 62l-97 -67q-3 3 -13 11q-3 17 -2 17q24 18 56.5 55t55.5 54z" />
    <glyph glyph-name="idieresis" unicode="&#xef;" horiz-adv-x="253" 
d="M211 2h-194q25 24 35 71l3 241q0 80 -41 115q3 0 43.5 -6t51.5 -6q12 0 36.5 5t37.5 5q-11 -30 -11 -37v-317q0 -18 15 -38q22 -29 24 -33zM84 523q0 -20 -14.5 -34t-34.5 -15q-21 0 -35.5 13.5t-15.5 34.5q-1 20 11.5 35t32.5 18q22 2 39 -14t17 -38zM224 523
q0 -20 -14.5 -34t-34.5 -15q-21 0 -35.5 13.5t-15.5 34.5q-1 20 11.5 35t32.5 18q22 2 39 -14t17 -38z" />
    <glyph glyph-name="ntilde" unicode="&#xf1;" horiz-adv-x="544" 
d="M389 539q-32 -36 -37 -40q-26 -24 -59 -25q-20 0 -61 13q-46 15 -64 17q-29 4 -42.5 -7.5t-12.5 -11.5q-6 0 -20 8q4 20 36 42.5t54 22.5q25 0 70.5 -15.5t62.5 -15.5q27 0 36 8q19 18 20 18q5 -2 17 -14zM488 -4q-52 11 -78 11q-64 0 -84 -12q22 37 22 58l1 262
q0 28 -31 46q-27 14 -57 14q-41 0 -72 -26q-34 -28 -34 -69v-220q0 -22 4 -32t24 -31q-45 13 -99 13q-13 0 -79 -12q9 8 19 29t10 33l1 254q1 41 -5 61q-7 25 -30 52h157q-4 -24 0 -44q53 51 152 51q121 0 180 -83q-23 -27 -23 -38v-129q-1 -86 -1 -131q0 -21 24 -59v0
q0 1 -1 2z" />
    <glyph glyph-name="oacute" unicode="&#xf3;" horiz-adv-x="553" 
d="M499 215q0 -113 -68 -170q-64 -54 -178 -54q-113 0 -180 53q-74 58 -74 169q0 103 72 166q69 60 177 60q118 0 184.5 -58.5t66.5 -165.5zM362 233q0 171 -110 168q-71 -1 -97 -58q-18 -38 -18 -115q0 -103 11 -136q23 -68 105 -68q76 0 98 74q11 35 11 135zM370 537
q0 -4 -5 -15.5t-9 -13.5t-91.5 -32t-89.5 -30q-3 0 -13 13v8q15 10 45 29q33 24 67 48q50 36 66 36q14 0 22 -14t8 -29z" />
    <glyph glyph-name="ograve" unicode="&#xf2;" horiz-adv-x="553" 
d="M499 215q0 -113 -68 -170q-64 -54 -178 -54q-113 0 -180 53q-74 58 -74 169q0 103 72 166q69 60 177 60q118 0 184.5 -58.5t66.5 -165.5zM362 233q0 171 -110 168q-71 -1 -97 -58q-18 -38 -18 -115q0 -103 11 -136q23 -68 105 -68q76 0 98 74q11 35 11 135zM336 475
q0 -2 -8 -19q-30 8 -78 26q-34 11 -68.5 23t-34.5 31q0 14 8 28q10 18 26 18q8 0 64 -41q45 -33 91 -66z" />
    <glyph glyph-name="ocircumflex" unicode="&#xf4;" horiz-adv-x="553" 
d="M506 215q0 -113 -68 -170q-63 -54 -178 -54q-113 0 -180 53q-74 58 -74 169q0 103 72 166q69 60 177 60q118 0 184.5 -58.5t66.5 -165.5zM369 233q0 171 -110 168q-71 -1 -97 -58q-18 -38 -18 -115q0 -103 11 -136q23 -68 105 -68q76 0 98 74q11 35 11 135zM413 492
q-13 -12 -26 -16l-128 62l-127 -67q-7 4 -22 13q-1 7 8 13q48 38 141 111z" />
    <glyph glyph-name="odieresis" unicode="&#xf6;" horiz-adv-x="553" 
d="M499 215q0 -113 -68 -170q-64 -54 -178 -54q-113 0 -180 53q-74 58 -74 169q0 103 72 166q69 60 177 60q118 0 184.5 -58.5t66.5 -165.5zM362 233q0 171 -110 168q-71 -1 -97 -58q-18 -38 -18 -115q0 -103 11 -136q23 -68 105 -68q76 0 98 74q11 35 11 135zM214 523
q0 -20 -14.5 -34t-34.5 -15q-20 0 -35 13.5t-16 34.5q-1 20 11.5 35t32.5 18q22 2 39 -14t17 -38zM384 523q0 -20 -14.5 -34t-34.5 -15q-21 0 -35.5 13.5t-15.5 34.5q-1 20 11.5 35t32.5 18q22 2 39 -14t17 -38z" />
    <glyph glyph-name="otilde" unicode="&#xf5;" horiz-adv-x="553" 
d="M499 215q0 -113 -68 -170q-64 -54 -178 -54q-113 0 -180 53q-74 58 -74 169q0 103 72 166q69 60 177 60q118 0 184.5 -58.5t66.5 -165.5zM362 233q0 171 -110 168q-71 -1 -97 -58q-18 -38 -18 -115q0 -103 11 -136q23 -68 105 -68q76 0 98 74q11 35 11 135zM389 539
q-32 -36 -37 -40q-26 -24 -59 -25q-20 0 -61 13q-46 15 -64 17q-29 4 -42.5 -7.5t-12.5 -11.5q-6 0 -20 8q4 20 36 42.5t54 22.5q25 0 70.5 -15.5t62.5 -15.5q27 0 36 8q19 18 20 18q5 -2 17 -14z" />
    <glyph glyph-name="uacute" unicode="&#xfa;" horiz-adv-x="537" 
d="M484 0h-150q2 16 -4 40q-22 -23 -68 -37q-40 -13 -77 -13q-51 0 -100 22.5t-81 61.5q23 27 23 32l-1 263q0 11 -9 36t-13 28q65 -15 83 -15q55 0 80 17q-23 -47 -23 -66l-1 -253q0 -36 34 -54q24 -12 56 -12q40 0 70.5 26.5t30.5 67.5v227q0 18 -27 60q75 -13 86 -13
q3 0 36 5q37 6 50 7q-30 -34 -30 -58v-269q0 -81 35 -103zM350 547q0 -4 -5 -15.5t-9 -13.5t-91.5 -32t-89.5 -30q-3 0 -13 13v8q15 10 45 29q33 24 67 48q50 36 66 36q14 0 22 -14t8 -29z" />
    <glyph glyph-name="ugrave" unicode="&#xf9;" horiz-adv-x="537" 
d="M484 0h-150q2 16 -4 40q-22 -23 -68 -37q-40 -13 -77 -13q-51 0 -100 22.5t-81 61.5q23 27 23 32l-1 263q0 11 -9 36t-13 28q65 -15 83 -15q55 0 80 17q-23 -47 -23 -66l-1 -253q0 -36 34 -54q24 -12 56 -12q40 0 70.5 26.5t30.5 67.5v227q0 18 -27 60q75 -13 86 -13
q3 0 36 5q37 6 50 7q-30 -34 -30 -58v-269q0 -81 35 -103zM326 475q0 -2 -8 -19q-30 8 -78 26q-34 11 -68.5 23t-34.5 31q0 14 8 28q10 18 26 18q8 0 64 -41q45 -33 91 -66z" />
    <glyph glyph-name="ucircumflex" unicode="&#xfb;" horiz-adv-x="537" 
d="M484 0h-150q2 16 -4 40q-22 -23 -68 -37q-40 -13 -77 -13q-51 0 -100 22.5t-81 61.5q23 27 23 32l-1 263q0 11 -9 36t-13 28q65 -15 83 -15q55 0 80 17q-23 -47 -23 -66l-1 -253q0 -36 34 -54q24 -12 56 -12q40 0 70.5 26.5t30.5 67.5v227q0 18 -27 60q75 -13 86 -13
q3 0 36 5q37 6 50 7q-30 -34 -30 -58v-269q0 -81 35 -103zM386 492q-13 -12 -26 -16l-128 62l-127 -67q-7 4 -22 13q-1 7 8 13q47 38 141 111z" />
    <glyph glyph-name="udieresis" unicode="&#xfc;" horiz-adv-x="537" 
d="M484 0h-150q2 16 -4 40q-22 -23 -68 -37q-40 -13 -77 -13q-51 0 -100 22.5t-81 61.5q23 27 23 32l-1 263q0 11 -9 36t-13 28q65 -15 83 -15q55 0 80 17q-23 -47 -23 -66l-1 -253q0 -36 34 -54q24 -12 56 -12q40 0 70.5 26.5t30.5 67.5v227q0 18 -27 60q75 -13 86 -13
q3 0 36 5q37 6 50 7q-30 -34 -30 -58v-269q0 -81 35 -103zM204 523q0 -20 -14.5 -34t-34.5 -15q-21 0 -35.5 13.5t-15.5 34.5q-1 20 11.5 35t32.5 18q22 2 39 -14t17 -38zM374 523q0 -20 -14.5 -34t-34.5 -15q-20 0 -35 13.5t-16 34.5q-1 20 11.5 35t32.5 18q22 2 39 -14
t17 -38z" />
    <glyph glyph-name="dagger" unicode="&#x2020;" horiz-adv-x="491" 
d="M269 509q35 1 73 16q54 21 69 21q21 0 35 -14t14 -36q0 -24 -15 -39.5t-39 -15.5q-16 0 -63 19q-38 17 -74 18q0 -119 44 -186q-31 -87 -40 -215q-4 -59 -4 -221h-34q0 165 -4 221q-8 124 -41 215q45 68 45 186q-36 -1 -74 -18q-46 -19 -63 -19q-24 0 -39 15.5t-15 39.5
q0 22 14 36t36 14q14 0 68 -21q38 -15 73 -16q0 58 -22 116q-14 39 -14 56q0 56 53 56t53 -56q0 -18 -14 -56q-22 -59 -22 -116z" />
    <glyph glyph-name="degree" unicode="&#xb0;" horiz-adv-x="241" 
d="M115 685q37 0 63.5 -27t26.5 -65t-26.5 -65t-63.5 -27q-38 0 -64.5 27t-26.5 65t26.5 65t64.5 27zM115 660q-27 0 -46.5 -19.5t-19.5 -47.5t19.5 -47.5t46.5 -19.5q26 0 45.5 19.5t19.5 47.5t-19.5 47.5t-45.5 19.5z" />
    <glyph glyph-name="cent" unicode="&#xa2;" horiz-adv-x="522" 
d="M267 109h-40v95l-11 1q-74 3 -133 62t-59 125q0 67 44 112q63 65 159 75v93h40v-91h9q61 1 116 -33q37 -23 56 -49q-36 -25 -37 -24q-44 61 -133 61q-70 0 -105 -44q-31 -39 -31 -101q0 -52 39 -96t92 -44q34 0 71 27t61 27q68 0 68 -94q-38 19 -72 19q-12 0 -58 -11
q-50 -12 -76 -15v-95z" />
    <glyph glyph-name="sterling" unicode="&#xa3;" horiz-adv-x="608" 
d="M608 94q0 -41 -43 -72q-37 -26 -85 -34h-35q-32 0 -133.5 15.5t-151.5 15.5q-55 0 -140 -33h-9q0 1 -1.5 2.5t-1.5 5.5q0 11 45 69q23 29 46 57q40 54 50 96q6 28 7 34v20h-109v70h77q0 -1 5 4q-7 8 -19 17q-67 54 -67 145q0 85 87 132q75 39 181 37q165 -3 256 -170
q-25 -20 -38 -20q-1 0 -25 31.5t-41 43.5q-68 48 -121 48q-55 0 -96 -25q-52 -31 -52 -90q0 -64 64 -151h92v-86q-18 13 -45 14h-39q-24 -44 -80 -110q-44 -51 -87 -101q28 7 55 14q33 8 62 9q23 1 55.5 -8.5t73.5 -9.5q2 0 28 1h28q6 0 23 4q43 10 57 17q31 16 31 49
q0 17 -17 36.5t-41 23.5q0 2 1.5 6.5t1.5 5.5h12q-8 0 25 -7q47 -8 79 -36q35 -31 35 -70z" />
    <glyph glyph-name="bullet" unicode="&#x2022;" horiz-adv-x="406" 
d="M100 298q0 40 29.5 69t71.5 29t71.5 -29t29.5 -69q0 -41 -29.5 -69.5t-71.5 -28.5t-71.5 28.5t-29.5 69.5z" />
    <glyph glyph-name="paragraph" unicode="&#xb6;" horiz-adv-x="462" 
d="M18 462q0 -82 60 -135q57 -50 141 -49v-148q0 -153 0 -152q-2 -51 -17.5 -65t-65.5 -14q10 16 10 27q0 18 -13 30t-31 12q-17 0 -29.5 -11.5t-12.5 -29.5q0 -58 99 -58q31 0 62 14q4 2 47 25l-2 736q-16 1 -32 1q-216 0 -216 -183zM298 643h122v-21q-13 0 -34 -23
q-24 -25 -26 -50q-3 -34 0 -380q1 -111 -1 -137q-3 -40 -16 -57q-6 -9 -44 -40z" />
    <glyph glyph-name="germandbls" unicode="&#xdf;" horiz-adv-x="558" 
d="M523 160q0 -123 -55 -203q-67 -94 -196 -94q-62 0 -120 20q23 6 71 15q109 17 145 111q20 52 20 168q0 127 -50 176q-30 31 -68 31q-16 0 -24 -2v50q7 -3 23 -3q44 0 72 24t28 66q0 45 -47 80q-41 32 -80 32q-50 0 -69 -46l1 -531q2 -16 11.5 -29.5t19.5 -25.5h-170
q26 27 26 55v325h-62v49h60v79q0 29 -9 70q-10 46 -20 54q6 1 102 30q54 17 105 17q75 0 148 -34q97 -45 97 -124q0 -66 -113 -116q154 -60 154 -244z" />
    <glyph glyph-name="registered" unicode="&#xae;" horiz-adv-x="374" 
d="M172 383q-62 0 -106 45t-44 108q0 62 44 106t106 44t104.5 -44.5t42.5 -107.5t-42.5 -107t-104.5 -44zM172 406q51 0 88 37.5t37 90.5t-37 90.5t-88 37.5q-54 1 -90 -36t-36 -92q0 -53 37.5 -90.5t88.5 -37.5zM186 534l47 -72h-26l-47 72h-26v-72h-22v157h68q-6 0 -5 1h7
q52 0 52 -40q0 -44 -48 -46zM136 557h45q30 0 30 23q0 17 -34 17h-41v-40z" />
    <glyph glyph-name="copyright" unicode="&#xa9;" horiz-adv-x="772" 
d="M366 -6q-143 0 -242.5 100t-99.5 244q0 145 99.5 245t242.5 100t243 -100t100 -245q0 -144 -100 -244t-243 -100zM366 640q-122 0 -211 -88t-89 -214q0 -125 89 -213t211 -88t211 88t89 213q0 126 -89 214t-211 88zM375 144q-86 0 -136.5 55t-50.5 142q0 83 52 139.5
t136 56.5q59 0 103 -34t54 -91h-45q-22 81 -112 81q-67 0 -106 -44t-39 -110q0 -60 34 -103q40 -49 109 -49q94 0 115 79h43q-13 -57 -55.5 -89.5t-101.5 -32.5z" />
    <glyph glyph-name="trademark" unicode="&#x2122;" horiz-adv-x="481" 
d="M441 670v-196h-27v167h-2l-66 -167h-17l-65 167v0v-167h-28v196h46l56 -141l57 141h46zM189 670v-29h-64v-167h-28v167h-65v29h157z" />
    <glyph glyph-name="acute" unicode="&#xb4;" horiz-adv-x="243" 
d="M210 797q0 -4 -5 -15.5t-9 -13.5t-91.5 -32t-89.5 -30q-3 0 -13 13v8q15 10 45 29q33 24 67 48q50 36 66 36q14 0 22 -14t8 -29z" />
    <glyph glyph-name="dieresis" unicode="&#xa8;" horiz-adv-x="341" 
d="M134 783q0 -20 -14.5 -34t-34.5 -15q-20 0 -35 13.5t-16 34.5q-1 20 11.5 35t32.5 18q22 2 39 -14t17 -38zM304 783q0 -20 -14.5 -34t-34.5 -15q-21 0 -35.5 13.5t-15.5 34.5q-1 20 11.5 35t32.5 18q22 2 39 -14t17 -38z" />
    <glyph glyph-name="AE" unicode="&#xc6;" horiz-adv-x="1116" 
d="M1113 131q0 -70 -62 -114q-55 -38 -127 -38q-55 0 -164.5 19t-160.5 19q-20 0 -120 -18q13 11 27 36.5t14 40.5l-2 214l-3 13l-58 -28q-36 -17 -61 -17q-42 0 -92 39l-116 -138q-71 -94 -66 -155h-125q56 40 142 152q65 86 131 172q-7 13 -27 25t-34 12q-27 0 -48.5 -26
t-21.5 -54q0 -20 18 -32l-30 -19q-40 -1 -62.5 23t-22.5 65q0 117 152 117q69 0 115 -54q45 46 102 123q47 64 95 129l-22 35h477l39 -86q-22 13 -43 25q-25 15 -45 15h-266v-165h278q7 0 26.5 10t26.5 16l5 -1q9 -16 44 -90q-52 20 -64 20h-315v-349q146 -37 214 -37
q127 0 127 79q0 18 -9 33q-11 19 -29 19q-14 0 -35 -21l-4 23q0 26 33 53t59 27q44 0 77 -34t33 -78zM515 335v238l-171 -218q20 -43 79 -43q49 0 92 23z" />
    <glyph glyph-name="Oslash" unicode="&#xd8;" horiz-adv-x="866" 
d="M820 334q0 -157 -130 -257q-120 -92 -282 -92q-142 0 -223 48q-6 5 -20 13q-21 -24 -59 -66l-34 35l54 59q-123 92 -123 264q0 165 133 260q117 84 289 84q125 0 226 -62l62 65q14 -8 37 -31l-58 -61q62 -41 96 -113q32 -68 32 -146zM590 556q-67 77 -184 77
q-122 0 -182 -93q-51 -78 -51 -206q0 -112 32 -181zM652 336q0 98 -36 178l-385 -404q62 -77 176 -77q125 0 190 92q55 80 55 211z" />
    <glyph glyph-name="plusminus" unicode="&#xb1;" 
 />
    <glyph glyph-name="yen" unicode="&#xa5;" horiz-adv-x="824" 
d="M236 262h113v1q-79 117 -114 163q-73 96 -113 165q-30 44 -53 58q-28 15 -56 29l154 -21l150 18q-32 -17 -32 -56q0 -17 8 -29q60 -86 174 -261q47 85 158 262q12 16 12 32q0 23 -31 55q47 -21 98 -21q22 0 114 24q-43 -21 -79 -59q-22 -22 -130.5 -184t-108.5 -169v-7
h111v-45h-111v-55h111v-45h-110v-63q0 -20 35 -52h-223q34 33 36 54t2 61h-115v45h114v55h-114v45z" />
    <glyph glyph-name="mu" unicode="&#xb5;" horiz-adv-x="732" 
d="M272 390l-81 -72l1 -239q66 -4 104 -17q63 -21 124 -21q43 0 77 15q45 19 45 55q0 13 -13.5 26t-26.5 13q-7 0 -38 -31q-5 12 -5 25q0 31 27 60q33 35 84 35q49 0 85 -32t36 -80q0 -51 -30.5 -91t-79.5 -52q-25 -5 -68 -5q-62 0 -184 18.5t-182 18.5q-104 0 -134 -12
q10 17 20.5 36.5t10.5 36.5v110l-44 -39l-3 62q7 5 47 39v349q0 22 -29 81q45 -17 98 -17q52 0 109 19q-22 -43 -27 -76q-4 -23 -4 -81v-148l81 70v-56z" />
    <glyph glyph-name="mu" unicode="&#x3bc;" horiz-adv-x="732" 
d="M272 390l-81 -72l1 -239q66 -4 104 -17q63 -21 124 -21q43 0 77 15q45 19 45 55q0 13 -13.5 26t-26.5 13q-7 0 -38 -31q-5 12 -5 25q0 31 27 60q33 35 84 35q49 0 85 -32t36 -80q0 -51 -30.5 -91t-79.5 -52q-25 -5 -68 -5q-62 0 -184 18.5t-182 18.5q-104 0 -134 -12
q10 17 20.5 36.5t10.5 36.5v110l-44 -39l-3 62q7 5 47 39v349q0 22 -29 81q45 -17 98 -17q52 0 109 19q-22 -43 -27 -76q-4 -23 -4 -81v-148l81 70v-56z" />
    <glyph glyph-name="ordfeminine" unicode="&#xaa;" horiz-adv-x="807" 
d="M755 125q0 -87 -116 -125q-77 -25 -187 -25q-6 0 -121 13q-163 18 -230 18q-41 0 -93 -8q0 2 -1 4v3q66 77 189 247q155 214 256 361h-265q-87 0 -141 -43l37 100h592l-441 -614q54 -17 222 -17q125 0 125 67q0 17 -10.5 31.5t-27.5 14.5q-20 0 -57 -42v6q-1 86 47 121
q35 26 93 23q55 -3 92 -41t37 -94zM223 817q13 12 26 16l128 -62l127 67q7 -4 22 -13q0 -1 -11 -10q-46 -39 -138 -114z" />
    <glyph glyph-name="ordmasculine" unicode="&#xba;" horiz-adv-x="526" 
d="M504 427l-336 -375q35 1 41 0q124 -14 128 -14q20 0 38 11q22 12 22 31q0 20 -19 20q-14 0 -25 -8q-3 3 0 28q3 21 22 34t42 13q32 0 57 -23t25 -54q0 -80 -101 -96q-25 -4 -33 -4q-15 0 -64 3q-56 3 -61 6q-121 8 -149 8q-27 0 -60 -5t-26 -6h-11l334 380h-200
q-23 0 -88 -41l33 92h431zM123 587q13 12 26 16l128 -62l127 67q7 -4 22 -13q0 -1 -11 -10q-46 -39 -138 -114z" />
    <glyph glyph-name="ae" unicode="&#xe6;" horiz-adv-x="879" 
d="M660 324q0 27 -24 46.5t-52 19.5q-45 0 -84.5 -47.5t-39.5 -94.5q0 -61 22 -88q28 53 111 102q67 39 67 62zM412 53q-54 -38 -122 -51q-45 -8 -132 -8q-57 0 -103 29q-53 34 -53 88q0 77 89 119q33 15 166 49q90 23 90 54q0 25 -35 40q-27 11 -57 11q-24 0 -72 -13.5
t-70 -26.5q-49 -28 -52 -28q-5 0 -14.5 15t-9.5 20q3 4 13 12q36 27 110 49.5t122 22.5q80 0 164 -46q66 46 141 46q69 0 128 -36t96 -97q-93 -26 -181 -74q-124 -66 -124 -126q0 -31 30 -50q25 -16 58 -16q42 0 99.5 37t84.5 37q67 0 67 -86q0 -12 -2 -21q-17 13 -33 25
q-21 14 -38 14q-24 0 -87 -25.5t-96 -25.5q-111 0 -177 62zM353 256q-18 -15 -81 -31q-69 -18 -95 -34q-46 -27 -46 -77q0 -28 19 -46.5t47 -18.5q43 0 96 14q71 19 71 49q0 3 -1 7q-19 61 -10 137z" />
    <glyph glyph-name="oslash" unicode="&#xf8;" horiz-adv-x="546" 
d="M498 210q0 -110 -67 -168q-63 -54 -175 -54q-39 0 -84 11q-53 12 -77 32q-13 -8 -46 -39l-21 24l-26 -25q12 16 60 63q-55 53 -55 165q0 95 75 160q72 63 169 63q88 0 150 -45l50 50l27 -24q-27 -32 -45 -48l34 -48q31 -47 31 -117zM345 342q-11 22 -38.5 38.5
t-53.5 16.5q-41 0 -76 -32t-35 -73v-151zM361 299l-202 -208q24 -65 96 -65q106 0 106 166v53q1 32 0 54z" />
    <glyph glyph-name="questiondown" unicode="&#xbf;" horiz-adv-x="574" 
d="M9 -20q0 74 61 123q29 23 114 62q61 28 61 50q0 18 -25 18q-12 0 -40 -14q-9 4 -9 17q0 27 25 48q22 19 48 19q31 0 57 -20t26 -52q0 -47 -47 -87q-43 -34 -86 -67q-47 -42 -47 -91q0 -46 40 -86t84 -40q48 0 98 22q70 30 70 86q0 52 -51 52q-35 0 -35 -27
q0 -13 10 -22.5t21 -18.5q-10 -18 -23.5 -24t-33.5 -6q-38 0 -69 20q-37 23 -37 61q0 49 56 78q43 23 86 23q50 0 93 -36.5t43 -85.5q0 -96 -99 -141q-68 -31 -157 -31q-83 0 -150 37q-84 47 -84 133zM172 425q0 35 24 59.5t56 24.5q35 0 57.5 -25.5t22.5 -59.5
q0 -31 -22 -55q-24 -27 -58 -27q-35 0 -57.5 24.5t-22.5 58.5z" />
    <glyph glyph-name="exclamdown" unicode="&#xa1;" horiz-adv-x="286" 
d="M28 -95q0 48 20 86q23 43 39 136q24 130 27 144h31q9 -69 34 -206l24 -70q19 -55 19 -82q0 -48 -27.5 -79t-73.5 -31q-45 0 -71 34q-22 29 -22 68zM48 407q0 33 24 59.5t55 26.5q38 0 60 -27.5t22 -58.5t-23 -57q-24 -29 -56 -29q-36 0 -60 29q-22 26 -22 57z" />
    <glyph glyph-name="logicalnot" unicode="&#xac;" 
 />
    <glyph glyph-name="florin" unicode="&#x192;" 
 />
    <glyph glyph-name="guillemotleft" unicode="&#xab;" horiz-adv-x="371" 
d="M312 52h-20l-152 182l152 178h19l-78 -178zM171 52h-20l-152 182l152 178h18l-78 -178z" />
    <glyph glyph-name="guillemotright" unicode="&#xbb;" horiz-adv-x="353" 
d="M13 52h20l152 182l-152 178h-19l78 -178zM154 52h20l152 182l-152 178h-18l78 -178z" />
    <glyph glyph-name="ellipsis" unicode="&#x2026;" horiz-adv-x="956" 
d="M438 72q0 34 23.5 58t56.5 24t56 -24t23 -58t-23 -58.5t-56 -24.5t-56.5 24.5t-23.5 58.5zM751 72q0 34 23.5 58t56.5 24t56 -24t23 -58t-23 -58.5t-56 -24.5t-56.5 24.5t-23.5 58.5zM114 72q0 34 23.5 58t56.5 24t56 -24t23 -58t-23 -58.5t-56 -24.5t-56.5 24.5
t-23.5 58.5z" />
    <glyph glyph-name="nonbreakingspace" unicode="&#xa0;" horiz-adv-x="257" 
 />
    <glyph glyph-name="Agrave" unicode="&#xc0;" horiz-adv-x="873" 
d="M841 1l-236 -1q20 29 20 51t-41 116q-33 77 -56 120q-59 -35 -130 -35q-57 0 -113 38l-62 -108q-33 -61 -47 -115q-10 -37 3 -66h-142q59 38 199 317q-41 37 -83 37q-20 0 -39 -18t-19 -38q0 -11 12.5 -29t22.5 -21q-14 -24 -46 -24q-38 0 -65 25.5t-27 63.5
q0 48 35 79.5t83 31.5q72 0 150 -50q24 34 72 132q52 105 52 129q0 11 -17 40q23 -5 47 -10q28 -5 47 -5q66 0 101 17l-11 -46q109 -275 138 -341q107 -251 152 -290zM515 330l-96 243h-7l-101 -227q16 -18 49 -31t58 -13q60 0 94 21zM556 715q0 -2 -8 -19q-30 8 -78 26
q-34 11 -68.5 23t-34.5 31q0 14 8 28q10 18 26 18q8 0 64 -41q45 -33 91 -66z" />
    <glyph glyph-name="Atilde" unicode="&#xc3;" horiz-adv-x="873" 
d="M841 1l-236 -1q20 29 20 51t-41 116q-33 77 -56 120q-59 -35 -130 -35q-57 0 -113 38l-62 -108q-33 -61 -47 -115q-10 -37 3 -66h-142q59 38 199 317q-41 37 -83 37q-20 0 -39 -18t-19 -38q0 -11 12.5 -29t22.5 -21q-14 -24 -46 -24q-38 0 -65 25.5t-27 63.5
q0 48 35 79.5t83 31.5q72 0 150 -50q24 34 72 132q52 105 52 129q0 11 -17 40q23 -5 47 -10q28 -5 47 -5q66 0 101 17l-11 -46q109 -275 138 -341q107 -251 152 -290zM515 330l-96 243h-7l-101 -227q16 -18 49 -31t58 -13q60 0 94 21zM612 789q-32 -36 -37 -40
q-26 -24 -59 -25q-20 0 -61 13q-46 15 -64 17q-29 4 -42.5 -7.5t-12.5 -11.5q-6 0 -20 8q4 20 36 42.5t54 22.5q25 0 70.5 -15.5t62.5 -15.5q27 0 36 8q19 18 20 18q5 -2 17 -14z" />
    <glyph glyph-name="Otilde" unicode="&#xd5;" horiz-adv-x="885" 
d="M824 315q-1 -135 -128 -235q-122 -97 -268 -97q-148 0 -269 99q-129 104 -129 247q0 163 119 260q109 90 270 90q181 0 294 -100.5t111 -263.5zM662 310q0 311 -248 311q-112 0 -171 -98q-50 -81 -50 -199q0 -287 235 -287q111 0 175 83q59 76 59 190zM550 775
q-31 -36 -36 -40q-26 -23 -58 -24q-20 -1 -60 13q-46 15 -64 17q-28 3 -42 -8.5t-12 -11.5q-6 0 -20 8q4 20 35.5 42.5t52.5 22.5q25 0 70.5 -15.5t61.5 -15.5q27 0 36 8q19 18 20 18q5 -2 16 -14z" />
    <glyph glyph-name="OE" unicode="&#x152;" horiz-adv-x="1303" 
d="M1308 128q0 -66 -80 -108q-71 -36 -143 -31q-31 -3 -64 -3q-69 0 -158.5 14.5t-102.5 14.5q-7 0 -12 -1q-15 1 -56 -13t-57 -12q3 9 18 30q12 17 12 31l-1 19q-114 -79 -265 -79t-267 98q-122 103 -122 252q0 156 122 253q113 89 274 89q140 0 253 -73l-2 24
q-9 10 -30 38h515l43 -81q-62 38 -95 38h-293v-176h315q10 0 48 22l8 -2l46 -86q-50 21 -66 21h-350v-348q126 -29 263 -29q39 0 72 19q40 22 40 57q0 20 -13.5 34.5t-31.5 14.5q-16 0 -28 -13l-5 -1l-6 17q0 22 38 48.5t61 26.5q45 0 82.5 -30.5t37.5 -74.5zM636 331
q0 131 -51 212q-61 97 -185 97q-117 0 -177 -92q-52 -79 -52 -202q0 -132 49 -212q59 -99 183 -99q118 0 180 93q53 79 53 203z" />
    <glyph glyph-name="oe" unicode="&#x153;" horiz-adv-x="886" 
d="M858 38q0 -2 -8 -30q-8 2 -26.5 17t-47.5 15q-25 0 -87.5 -23.5t-98.5 -23.5q-83 0 -156 63q-67 -62 -183 -62q-111 0 -174 49q-69 55 -69 165q0 103 69 166q67 60 168 60q111 0 182 -71q80 71 172 71q57 0 113 -29q63 -34 107 -98q-83 -27 -152 -61q-146 -73 -146 -136
q0 -31 28 -51q22 -17 45 -17q22 0 90 38.5t100 38.5t54 -31q20 -26 20 -50zM666 324q0 21 -25 46t-50 25q-48 0 -86 -52q-33 -45 -33 -87q0 -52 8 -71q4 -10 9 -16q22 26 64 65q34 20 88 56q25 20 25 34zM354 211q0 78 -11 112q-23 69 -98 69q-55 0 -85 -44q-24 -36 -24 -86
v-95q2 -60 28 -97q30 -44 82 -44h10q69 0 90 76q8 32 8 109z" />
    <glyph glyph-name="endash" unicode="&#x2013;" horiz-adv-x="464" 
d="M457 322l-2 -94h-452v94h454z" />
    <glyph glyph-name="emdash" unicode="&#x2014;" horiz-adv-x="961" 
d="M899 321l-2 -93h-894v94z" />
    <glyph glyph-name="quotedblleft" unicode="&#x201c;" horiz-adv-x="389" 
d="M3 499q0 53 32.5 106.5t81.5 72.5l6 -6q0 -1 -1 -5q-50 -48 -52 -105q1 0 4 -3q87 4 87 -78q0 -33 -17 -59q-21 -31 -57 -31q-43 0 -66 39q-18 30 -18 69zM197 490q0 54 25 102q30 57 88 88l9 -8q-22 -21 -38 -53t-17 -54q0 -1 4 -3q29 -2 42 -4q24 -3 37 -33
q10 -22 10 -45q0 -33 -21 -61t-54 -28q-26 0 -49 19.5t-29.5 52t-6.5 27.5z" />
    <glyph glyph-name="quotedblright" unicode="&#x201d;" horiz-adv-x="389" 
d="M357 573q0 -53 -31 -105q-34 -55 -83 -74l-6 5q0 2 1 6q50 47 52 104q-1 1 -4 3q-87 -4 -87 79q0 33 17 59q21 30 57 30q43 0 66 -38q18 -31 18 -69zM163 581q0 -54 -25 -102q-30 -57 -88 -88l-9 9q22 21 38 52.5t17 54.5q0 1 -4 3q-29 2 -42 4q-24 3 -37 32
q-10 23 -10 46q0 33 21 60.5t54 27.5q26 0 49 -19t29.5 -52t6.5 -28z" />
    <glyph glyph-name="quoteleft" unicode="&#x2018;" horiz-adv-x="199" 
d="M8 498q0 47 24 95q30 58 84 87q3 0 11 -8q-41 -36 -55 -107q1 -1 4 -3q89 5 89 -81q0 -32 -17 -57q-21 -30 -57 -30q-43 0 -65 36q-18 29 -18 68z" />
    <glyph glyph-name="quoteright" unicode="&#x2019;" horiz-adv-x="199" 
d="M165 576q0 -47 -24 -95q-30 -58 -84 -87q-3 0 -11 8q41 36 55 107q-1 1 -4 3q-89 -5 -89 81q0 32 17 57q21 30 57 30q42 0 65 -36q18 -29 18 -68z" />
    <glyph glyph-name="ydieresis" unicode="&#xff;" horiz-adv-x="579" 
d="M574 429q-19 -14 -54 -49q-12 -16 -25 -46q-17 -40 -22 -49q-66 -125 -154 -285q-41 -76 -46 -83q-30 -45 -70 -62q-24 -10 -54 -10q-39 0 -71 24q-35 26 -35 64q0 27 21.5 50t48.5 23q63 0 66 -54q-16 6 -27 6q-7 0 -15 -3q-15 -14 -15 -25q0 -30 35 -30q32 0 68.5 45.5
t36.5 79.5q0 12 -90 170q-77 136 -105 182q-15 23 -60 53q53 -18 104 -18q45 0 113 15l-14 -18q-8 -12 -8 -21q0 -29 127 -256l120 238q4 34 -12 59q37 -9 67 -9q38 0 70 9zM254 523q0 -20 -14.5 -34t-34.5 -15q-20 0 -35 13.5t-16 34.5q-1 20 11.5 35t32.5 18q22 2 39 -14
t17 -38zM424 523q0 -20 -14.5 -34t-34.5 -15q-21 0 -35.5 13.5t-15.5 34.5q-1 20 11.5 35t32.5 18q22 2 39 -14t17 -38z" />
    <glyph glyph-name="Ydieresis" unicode="&#x178;" horiz-adv-x="824" 
d="M818 681q-43 -21 -79 -59q-22 -22 -130.5 -184t-108.5 -169l1 -215q2 -21 35 -52h-223q34 33 37 54q1 62 -1 207q-79 117 -114 163q-73 96 -113 165q-30 44 -53 58q-28 15 -56 29l154 -21l150 18q-32 -17 -32 -56q0 -17 8 -29q60 -86 174 -261q47 85 158 262q12 16 12 32
q0 23 -31 55q47 -21 98 -21q22 0 114 24zM394 763q0 -20 -14.5 -34t-34.5 -15q-20 0 -35 13.5t-16 34.5q-1 20 11.5 35t32.5 18q22 2 39 -14t17 -38zM564 763q0 -20 -14.5 -34t-34.5 -15q-21 0 -35.5 13.5t-15.5 34.5q-1 20 11.5 35t32.5 18q22 2 39 -14t17 -38z" />
    <glyph glyph-name="currency" unicode="&#xa4;" 
 />
    <glyph glyph-name="guilsinglleft" unicode="&#x2039;" horiz-adv-x="230" 
d="M171 52h-20l-152 182l152 178h18l-78 -178z" />
    <glyph glyph-name="guilsinglright" unicode="&#x203a;" horiz-adv-x="211" 
d="M12 52h20l152 182l-152 178h-19l78 -178z" />
    <glyph glyph-name="daggerdbl" unicode="&#x2021;" horiz-adv-x="495" 
d="M271 509q26 1 72.5 19t68.5 18q21 0 35.5 -14.5t14.5 -35.5q0 -23 -15.5 -39t-38.5 -16q-21 0 -66.5 18t-70.5 19q0 -118 46 -181q-46 -63 -46 -181q26 0 71 18t66 18q23 0 38.5 -16t15.5 -39q0 -21 -14.5 -35.5t-35.5 -14.5q-22 0 -68.5 18t-72.5 19v-2q0 -32 18 -88
t18 -82q0 -25 -14.5 -40.5t-38.5 -15.5q-52 0 -52 56q0 27 18 84t18 88q-26 -1 -72.5 -19t-68.5 -18t-36 14.5t-14 35.5q0 23 15.5 39t38.5 16q21 0 66 -18t71 -18q0 118 -46 181q46 63 46 181q-26 -1 -71 -19t-66 -18q-23 0 -38.5 16t-15.5 39q0 21 14 35.5t36 14.5
t68.5 -18t72.5 -19q0 32 -18 88.5t-18 83.5q0 56 52 56q24 0 38.5 -15.5t14.5 -39.5q0 -25 -18.5 -77.5t-17.5 -82.5v-13z" />
    <glyph glyph-name="periodcentered" unicode="&#xb7;" horiz-adv-x="233" 
d="M188 354q0 -35 -24 -59.5t-58 -24.5q-33 1 -55.5 26t-22.5 59q0 35 23 60t57 25t57 -25.5t23 -60.5z" />
    <glyph glyph-name="periodcentered" unicode="&#x2219;" horiz-adv-x="233" 
d="M188 354q0 -35 -24 -59.5t-58 -24.5q-33 1 -55.5 26t-22.5 59q0 35 23 60t57 25t57 -25.5t23 -60.5z" />
    <glyph glyph-name="quotesinglbase" unicode="&#x201a;" horiz-adv-x="241" 
d="M183 66q0 -28 -8 -60q-5 -20 -22 -58q-11 -17 -34 -40q-30 -30 -42 -30q-18 0 -18 11q0 -1 23 25t31 47q2 9 6 26q3 9 7 24v7q-4 4 -9 4q-3 0 -19 -5t-19 -5q-32 0 -48 26q-13 21 -13 52q0 29 25.5 54.5t55.5 25.5q84 0 84 -104z" />
    <glyph glyph-name="quotedblbase" unicode="&#x201e;" horiz-adv-x="420" 
d="M393 66q0 -28 -8 -60q-5 -20 -22 -58q-11 -17 -34 -40q-30 -30 -42 -30q-18 0 -18 11q0 -1 23 25t31 47q2 9 6 26q3 9 7 24v7q-4 4 -9 4q-3 0 -19 -5t-19 -5q-32 0 -48 26q-13 21 -13 52q0 29 25.5 54.5t55.5 25.5q84 0 84 -104zM183 66q0 -28 -8 -60q-5 -20 -22 -58
q-11 -17 -34 -40q-30 -30 -42 -30q-18 0 -18 11q0 -1 23 25t31 47q2 9 6 26q3 9 7 24v7q-4 4 -9 4q-3 0 -19 -5t-19 -5q-32 0 -48 26q-13 21 -13 52q0 29 25.5 54.5t55.5 25.5q84 0 84 -104z" />
    <glyph glyph-name="perthousand" unicode="&#x2030;" horiz-adv-x="25" 
 />
    <glyph glyph-name="Acircumflex" unicode="&#xc2;" horiz-adv-x="873" 
d="M841 1l-236 -1q20 29 20 51t-41 116q-33 77 -56 120q-59 -35 -130 -35q-57 0 -113 38l-62 -108q-33 -61 -47 -115q-10 -37 3 -66h-142q59 38 199 317q-41 37 -83 37q-20 0 -39 -18t-19 -38q0 -11 12.5 -29t22.5 -21q-14 -24 -46 -24q-38 0 -65 25.5t-27 63.5
q0 48 35 79.5t83 31.5q72 0 150 -50q24 34 72 132q52 105 52 129q0 11 -17 40q23 -5 47 -10q28 -5 47 -5q66 0 101 17l-11 -46q109 -275 138 -341q107 -251 152 -290zM515 330l-96 243h-7l-101 -227q16 -18 49 -31t58 -13q60 0 94 21zM614 722q-13 -13 -26 -16l-127 62
l-127 -67q-7 4 -22 13q-1 6 8 13q47 37 141 110z" />
    <glyph glyph-name="Ecircumflex" unicode="&#xca;" horiz-adv-x="766" 
d="M716 125q0 -76 -73 -119q-62 -35 -141 -35t-194 14l-194 26q-4 0 -34 -5q-44 -7 -67 -19v13q10 6 19 23.5t9 31.5v535q0 51 -38 81h540l45 -87q-72 43 -104 43h-305v-168h335q23 0 51 22q13 -14 29 -45q18 -35 27 -47q-62 22 -74 22h-371v-351l5 -4q56 -9 112 -19
q88 -15 142 -15q50 0 75 12q13 6 63 56q0 22 -12.5 41.5t-33.5 19.5t-33 -9h-9q9 33 40 60t65 29q57 4 91.5 -27t34.5 -79zM474 732q-13 -13 -26 -16l-127 62l-127 -67q-8 7 -23 19l9 7q47 37 141 110z" />
    <glyph glyph-name="Aacute" unicode="&#xc1;" horiz-adv-x="873" 
d="M841 1l-236 -1q20 29 20 51t-41 116q-33 77 -56 120q-59 -35 -130 -35q-57 0 -113 38l-62 -108q-33 -61 -47 -115q-10 -37 3 -66h-142q59 38 199 317q-41 37 -83 37q-20 0 -39 -18t-19 -38q0 -11 12.5 -29t22.5 -21q-14 -24 -46 -24q-38 0 -65 25.5t-27 63.5
q0 48 35 79.5t83 31.5q72 0 150 -50q24 34 72 132q52 105 52 129q0 11 -17 40q23 -5 47 -10q28 -5 47 -5q66 0 101 17l-11 -46q109 -275 138 -341q107 -251 152 -290zM515 330l-96 243h-7l-101 -227q16 -18 49 -31t58 -13q60 0 94 21zM560 797q0 -4 -5 -15.5t-9 -13.5
t-91.5 -32t-89.5 -30q-3 0 -13 13v8q15 10 45 29q33 24 67 48q50 36 66 36q14 0 22 -14t8 -29z" />
    <glyph glyph-name="Edieresis" unicode="&#xcb;" horiz-adv-x="766" 
d="M716 125q0 -76 -73 -119q-62 -35 -141 -35t-194 14l-194 26q-4 0 -34 -5q-44 -7 -67 -19v13q10 6 19 23.5t9 31.5v535q0 51 -38 81h540l45 -87q-72 43 -104 43h-305v-168h335q23 0 51 22q13 -14 29 -45q18 -35 27 -47q-62 22 -74 22h-371v-351l5 -4q56 -9 112 -19
q88 -15 142 -15q50 0 75 12q13 6 63 56q0 22 -12.5 41.5t-33.5 19.5t-33 -9h-9q9 33 40 60t65 29q57 4 91.5 -27t34.5 -79zM284 763q0 -20 -14.5 -34t-34.5 -15q-21 0 -35.5 13.5t-15.5 34.5q-1 20 11.5 35t32.5 18q22 2 39 -14t17 -38zM454 763q0 -20 -14.5 -34t-34.5 -15
q-20 0 -35 13.5t-16 34.5q-1 20 11.5 35t32.5 18q22 2 39 -14t17 -38z" />
    <glyph glyph-name="Egrave" unicode="&#xc8;" horiz-adv-x="766" 
d="M716 125q0 -76 -73 -119q-62 -35 -141 -35t-194 14l-194 26q-4 0 -34 -5q-44 -7 -67 -19v13q10 6 19 23.5t9 31.5v535q0 51 -38 81h540l45 -87q-72 43 -104 43h-305v-168h335q23 0 51 22q13 -14 29 -45q18 -35 27 -47q-62 22 -74 22h-371v-351l5 -4q56 -9 112 -19
q88 -15 142 -15q50 0 75 12q13 6 63 56q0 22 -12.5 41.5t-33.5 19.5t-33 -9h-9q9 33 40 60t65 29q57 4 91.5 -27t34.5 -79zM396 725q0 -2 -8 -19q-30 8 -78 26q-34 11 -68.5 23t-34.5 31q0 14 8 28q10 18 26 18q8 0 64 -41q45 -33 91 -66z" />
    <glyph glyph-name="Iacute" unicode="&#xcd;" horiz-adv-x="272" 
d="M222 0h-213q11 12 22.5 39t13.5 41v506q-4 36 -31 94q42 -20 91 -20q56 0 109 25q-30 -57 -32 -89l-1 -509q4 -37 16 -53.5t25 -33.5zM210 797q0 -4 -5 -15.5t-9 -13.5t-91.5 -32t-89.5 -30q-3 0 -13 13v8q15 10 45 29q33 24 67 48q50 36 66 36q14 0 22 -14t8 -29z" />
    <glyph glyph-name="Icircumflex" unicode="&#xce;" horiz-adv-x="272" 
d="M222 0h-213q11 12 22.5 39t13.5 41v506q-4 36 -31 94q42 -20 91 -20q56 0 109 25q-30 -57 -32 -89l-1 -509q4 -37 16 -53.5t25 -33.5zM251 722q-13 -13 -26 -16l-107 62l-117 -67q-3 2 -12 9q-4 16 -2 17q42 37 131 110z" />
    <glyph glyph-name="Idieresis" unicode="&#xcf;" horiz-adv-x="272" 
d="M222 0h-213q11 12 22.5 39t13.5 41v506q-4 36 -31 94q42 -20 91 -20q56 0 109 25q-30 -57 -32 -89l-1 -509q4 -37 16 -53.5t25 -33.5zM244 763q0 -20 -14.5 -34t-34.5 -15q-21 0 -35.5 13.5t-15.5 34.5q-1 20 11.5 35t32.5 18q22 2 39 -14t17 -38zM71 763
q0 -20 -14.5 -34.5t-34.5 -14.5q-21 0 -36 14t-15 35q-1 20 12.5 34.5t34.5 16.5q21 1 37 -14t16 -37z" />
    <glyph glyph-name="Igrave" unicode="&#xcc;" horiz-adv-x="272" 
d="M222 0h-213q11 12 22.5 39t13.5 41v506q-4 36 -31 94q42 -20 91 -20q56 0 109 25q-30 -57 -32 -89l-1 -509q4 -37 16 -53.5t25 -33.5zM206 725q0 -2 -8 -19q-30 8 -78 26q-34 11 -68.5 23t-34.5 31q0 14 8 28q10 18 26 18q8 0 64 -41q45 -33 91 -66z" />
    <glyph glyph-name="Oacute" unicode="&#xd3;" horiz-adv-x="890" 
d="M828 324q-1 -136 -130 -237q-123 -98 -270 -98q-150 0 -272 100q-130 105 -130 249q0 165 120 264q111 90 273 90q183 0 297 -101.5t112 -266.5zM664 320q0 313 -250 313q-113 0 -173 -98q-50 -82 -50 -202q0 -290 237 -290q113 0 177 84q59 77 59 193zM530 807
q0 -4 -5 -15.5t-9 -13.5t-91.5 -32t-89.5 -30q-3 0 -13 13v8q15 10 45 29q33 24 67 48q50 36 66 36q14 0 22 -14t8 -29z" />
    <glyph glyph-name="Ocircumflex" unicode="&#xd4;" horiz-adv-x="890" 
d="M828 324q-1 -136 -130 -237q-123 -98 -270 -98q-150 0 -272 100q-130 105 -130 249q0 165 120 264q111 90 273 90q183 0 297 -101.5t112 -266.5zM664 320q0 313 -250 313q-113 0 -173 -98q-50 -82 -50 -202q0 -290 237 -290q113 0 177 84q59 77 59 193zM574 740
q-13 -13 -26 -16l-127 62l-127 -67q-12 11 -20 16q-1 5 6 10q47 38 141 110z" />
    <glyph glyph-name="Ograve" unicode="&#xd2;" horiz-adv-x="890" 
d="M828 324q-1 -136 -130 -237q-123 -98 -270 -98q-150 0 -272 100q-130 105 -130 249q0 165 120 264q111 90 273 90q183 0 297 -101.5t112 -266.5zM664 320q0 313 -250 313q-113 0 -173 -98q-50 -82 -50 -202q0 -290 237 -290q113 0 177 84q59 77 59 193zM516 735
q0 -2 -8 -19q-30 8 -78 26q-34 11 -68.5 23t-34.5 31q0 14 8 28q10 18 26 18q8 0 64 -41q45 -33 91 -66z" />
    <glyph glyph-name="Uacute" unicode="&#xda;" horiz-adv-x="683" 
d="M635 672q-22 -19 -31 -48q-2 -7 -8 -52l-1 -400q0 -50 -21 -94q-25 -53 -69 -69q-49 -17 -154 -17q-179 0 -104 -1q-59 0 -104 10t-75 59q-27 43 -27 91q0 12 2 22v390q0 63 -37 109h219q-25 -32 -33 -58q-4 -24 -8 -49v-398q7 -122 158 -122q115 0 145 26q25 22 35 58
q0 1 9 59l-1 372q0 77 -38 112h143zM420 797q0 -4 -5 -15.5t-9 -13.5t-91.5 -32t-89.5 -30q-3 0 -13 13v8q15 10 45 29q33 24 67 48q50 36 66 36q14 0 22 -14t8 -29z" />
    <glyph glyph-name="Ucircumflex" unicode="&#xdb;" horiz-adv-x="683" 
d="M635 672q-22 -19 -31 -48q-2 -7 -8 -52l-1 -400q0 -50 -21 -94q-25 -53 -69 -69q-49 -17 -154 -17q-179 0 -104 -1q-59 0 -104 10t-75 59q-27 43 -27 91q0 12 2 22v390q0 63 -37 109h219q-25 -32 -33 -58q-4 -24 -8 -49v-398q7 -122 158 -122q115 0 145 26q25 22 35 58
q0 1 9 59l-1 372q0 77 -38 112h143zM476 722q-13 -12 -26 -16l-128 62l-127 -67q-7 4 -22 13q-1 7 8 13q47 38 141 111z" />
    <glyph glyph-name="Ugrave" unicode="&#xd9;" horiz-adv-x="683" 
d="M635 672q-23 -19 -32 -50q-4 -13 -10 -54l2 -396q0 -50 -21 -94q-25 -53 -69 -69q-49 -17 -154 -17q-179 0 -104 -1q-59 0 -104 10t-75 59q-27 43 -27 91q0 12 2 22v390q0 63 -37 109h219q-25 -32 -33 -58q-4 -24 -8 -49v-398q7 -122 158 -122q115 0 145 26q25 22 35 58
q0 1 9 59l-1 372q0 77 -38 112h143zM416 715q0 -2 -8 -19q-30 8 -78 26q-34 11 -68.5 23t-34.5 31q0 14 8 28q10 18 26 18q8 0 64 -41q45 -33 91 -66z" />
    <glyph glyph-name="circumflex" unicode="&#x2c6;" horiz-adv-x="332" 
d="M316 742q-13 -12 -26 -16l-128 62l-127 -67q-7 4 -22 13q-1 7 8 13q47 38 141 111z" />
    <glyph glyph-name="tilde" unicode="&#x2dc;" horiz-adv-x="351" 
d="M309 809q-32 -36 -37 -40q-26 -24 -59 -25q-20 0 -61 13q-46 15 -64 17q-29 4 -42.5 -7.5t-12.5 -11.5q-6 0 -20 8q4 20 36 42.5t54 22.5q25 0 70.5 -15.5t62.5 -15.5q27 0 36 8q19 18 20 18q5 -2 17 -14z" />
    <glyph glyph-name="macron" unicode="&#xaf;" horiz-adv-x="280" 
d="M12 804h233v-52h-233v52z" />
    <glyph glyph-name="macron" unicode="&#x2c9;" horiz-adv-x="280" 
d="M12 804h233v-52h-233v52z" />
    <glyph glyph-name="cedilla" unicode="&#xb8;" horiz-adv-x="328" 
d="M121 -45q6 3 40 3t54 -28q17 -23 17 -52q0 -79 -84 -79q-66 0 -93 38q3 5 9 17l33 -12q15 -5 39 -5q42 0 42 37q0 20 -3 28q-7 15 -32 16q-34 3 -51 -13v95h29v-45z" />
    <glyph glyph-name="Eth" unicode="&#xd0;" horiz-adv-x="573" 
d="M441 267q38 10 33 35q-8 22 -47 52q-25 20 -105 52q-73 29 -99 57q-12 14 -16 26q-6 22 26 30l15 4q13 4 35 6q97 9 171 -2l-24 -6q-64 9 -161 0q-16 -1 -27 -4q-23 -8 -20 -24q3 -10 15 -22q26 -28 98 -57q80 -33 106 -52q48 -38 48 -65q0 -22 -38 -32l-15 -4
q-89 -24 -231 -25h-47q-23 3 -27 18q-2 5 -2 9l16 4v-9q5 -13 28 -15l46 1q141 1 222 23z" />
    <glyph glyph-name="notequal" unicode="&#x2260;" horiz-adv-x="25" 
 />
    <glyph glyph-name="infinity" unicode="&#x221e;" 
 />
    <glyph glyph-name="lessequal" unicode="&#x2264;" 
 />
    <glyph glyph-name="greaterequal" unicode="&#x2265;" 
 />
    <glyph glyph-name="partialdiff" unicode="&#x2202;" horiz-adv-x="245" 
d="M-8 218l54 45v345q0 34 -35 64q24 -8 90 -8q40 0 84 15q-4 -16 -12 -37v-274l48 39l1 -45l-49 -39v-226q0 -67 33 -97h-193q33 34 33 103v116l-54 -44v43z" />
    <glyph glyph-name="summation" unicode="&#x2211;" horiz-adv-x="786" 
d="M730 225q0 -106 -104 -174q-93 -61 -206 -61q-20 0 -37 2t-124 22q-80 14 -120 14q-24 0 -42 -3q-28 -5 -98 -44q0 59 27 99q34 50 101 48q28 -1 120 -38.5t172 -42.5q56 3 101 17q96 31 96 100q0 22 -16 44.5t-43 32.5q-58 21 -95 28q-103 16 -214 38q-198 36 -198 191
q0 94 111 146q82 39 169 39q108 0 190 -43q30 -16 111 -77q-37 -19 -41 -21q-25 -16 -33 -33q-4 22 -19 43q-32 41 -93 64q-53 20 -113 20q-59 0 -105 -19q-64 -26 -64 -81q0 -54 121 -85q25 -6 164 -28q282 -43 282 -198zM203 827q13 12 26 16l128 -62l127 67q7 -4 22 -13
q0 -1 -11 -10q-46 -39 -138 -114z" />
    <glyph glyph-name="product" unicode="&#x220f;" horiz-adv-x="560" 
d="M517 136q0 -69 -72 -109q-54 -30 -127 -37q-38 -3 -118 12q-85 16 -108 15q-39 2 -79 -32q-10 9 -10 38q0 30 20.5 54t51.5 24q29 0 93.5 -31.5t74.5 -31.5q2 0 24.5 -2.5t25.5 -2.5q42 0 75 16q46 22 46 67q0 51 -74 62q-67 11 -96 11q-76 -1 -131 16q-89 29 -89 100
q0 38 35 75.5t84.5 48.5t98.5 11q48 0 114 -15q80 -18 101 -43q-8 -16 -24 -47q-94 55 -176 55q-118 0 -118 -49q0 -45 115 -45q7 0 64 -5q199 -19 199 -155zM93 587q13 12 26 16l128 -62l127 67q7 -4 22 -13q0 -1 -11 -10q-46 -39 -138 -114z" />
    <glyph glyph-name="pi" unicode="&#x3c0;" horiz-adv-x="824" 
d="M818 681q-43 -21 -79 -59q-22 -22 -130.5 -184t-108.5 -169l1 -215q2 -21 35 -52h-223q34 33 37 54q1 62 -1 207q-79 117 -114 163q-73 96 -113 165q-30 44 -53 58q-28 15 -56 29l154 -21l150 18q-32 -17 -32 -56q0 -17 8 -29q60 -86 174 -261q47 85 158 262q12 16 12 32
q0 23 -31 55q47 -21 98 -21q22 0 114 24zM550 797q0 -4 -5 -15.5t-9 -13.5t-91.5 -32t-89.5 -30q-3 0 -13 13v8q15 10 45 29q33 24 67 48q50 36 66 36q14 0 22 -14t8 -29z" />
    <glyph glyph-name="integral" unicode="&#x222b;" horiz-adv-x="579" 
d="M574 429q-19 -14 -54 -49q-12 -16 -25 -46q-17 -40 -22 -49q-66 -125 -154 -285q-41 -76 -46 -83q-30 -45 -70 -62q-24 -10 -54 -10q-39 0 -71 24q-35 26 -35 64q0 27 21.5 50t48.5 23q63 0 66 -54q-16 6 -27 6q-7 0 -15 -3q-15 -14 -15 -25q0 -30 35 -30q32 0 68.5 45.5
t36.5 79.5q0 12 -90 170q-77 136 -105 182q-15 23 -60 53q53 -18 104 -18q45 0 113 15l-14 -18q-8 -12 -8 -21q0 -29 127 -256l120 238q4 34 -12 59q37 -9 67 -9q38 0 70 9zM390 537q0 -4 -5 -15.5t-9 -13.5t-91.5 -32t-89.5 -30q-3 0 -13 13v8q15 10 45 29q33 24 67 48
q50 36 66 36q14 0 22 -14t8 -29z" />
    <glyph glyph-name="Omega" unicode="&#x3a9;" horiz-adv-x="775" 
d="M17 331h40v5q-1 26 3 54h-43q-14 0 -14 16v9q0 16 14 16h50q27 119 117 187.5t211 68.5q85 0 162 -35q82 -36 137 -102q-14 -19 -44 -44q-37 61 -99.5 97t-129.5 36q-87 0 -145 -61q-50 -54 -70 -147h252q14 0 14 -16v-9q0 -16 -14 -16h-259q-4 -29 -5 -59h264
q14 0 14 -16v-9q0 -16 -14 -16h-262q8 -110 66 -185q63 -82 159 -82q107 0 236 116q20 2 35 -21t15 -49q0 -21 -11 -30q-207 -56 -291 -56q-131 0 -228 83q-102 86 -118 224h-42q-14 0 -14 16v9q0 16 14 16z" />
    <glyph glyph-name="Omega" unicode="&#x2126;" horiz-adv-x="775" 
d="M17 331h40v5q-1 26 3 54h-43q-14 0 -14 16v9q0 16 14 16h50q27 119 117 187.5t211 68.5q85 0 162 -35q82 -36 137 -102q-14 -19 -44 -44q-37 61 -99.5 97t-129.5 36q-87 0 -145 -61q-50 -54 -70 -147h252q14 0 14 -16v-9q0 -16 -14 -16h-259q-4 -29 -5 -59h264
q14 0 14 -16v-9q0 -16 -14 -16h-262q8 -110 66 -185q63 -82 159 -82q107 0 236 116q20 2 35 -21t15 -49q0 -21 -11 -30q-207 -56 -291 -56q-131 0 -228 83q-102 86 -118 224h-42q-14 0 -14 16v9q0 16 14 16z" />
    <glyph glyph-name="radical" unicode="&#x221a;" 
 />
    <glyph glyph-name="approxequal" unicode="&#x2248;" 
 />
    <glyph glyph-name="approxequal" unicode="&#x22f2;" 
 />
    <glyph glyph-name="Delta" unicode="&#x394;" 
 />
    <glyph glyph-name="Delta" unicode="&#x2206;" 
 />
    <glyph glyph-name="fraction" unicode="&#x2044;" 
 />
    <glyph glyph-name="fi" unicode="&#xf001;" horiz-adv-x="513" 
d="M447 592v0q2 0 0 0zM486 2h-194q25 23 35 71l3 240q0 46 -7 71q-7 1 -142 1l-1 -313q0 -43 27 -72h-172q30 15 30 70l1 312h-63l-1 46h63v93q0 27 -6 61q-9 42 -21 55q13 3 92 28q58 19 94 19q180 0 214 -59q31 -26 31 -64q0 -34 -29 -61.5t-63 -27.5q-39 0 -64 26
t-25 65q0 35 35 63q-7 12 -105 12q-33 0 -38 -33q-1 -29 -1 -58v-16q0 -33 -1 -103l203 -1h38q26 -1 39 -1q-11 -29 -11 -36v-318q0 -18 15 -37q22 -30 24 -33z" />
    <glyph glyph-name="fl" unicode="&#xf002;" horiz-adv-x="519" 
d="M485 1h-193q33 34 33 102v500q-4 28 -41 35q-13 3 -51 3q-34 0 -46 -35q-1 -4 -8 -59v-16q0 -75 -1 -103h91v-43h-88l-1 -313q0 -43 27 -72h-172q30 15 30 70l1 312h-63l-1 46h63v93q0 27 -6 61q-9 42 -21 55q17 4 84 28q50 18 86 18q98 0 147 -16q20 -3 27 -3
q38 0 82 16q-4 -16 -11 -38l-1 -545q0 -67 33 -96z" />
    <glyph glyph-name="apple" unicode="&#xf000;" horiz-adv-x="22" 
 />
    <glyph glyph-name="dotlessi" unicode="&#x131;" horiz-adv-x="253" 
d="M211 2h-194q25 24 35 71l3 241q0 80 -41 115q3 0 43.5 -6t51.5 -6q12 0 36.5 5t37.5 5q-11 -30 -11 -37v-317q0 -18 15 -38q22 -29 24 -33z" />
    <glyph glyph-name="breve" unicode="&#x2d8;" horiz-adv-x="326" 
d="M46 839q3 -15 35 -34q36 -23 73 -22q82 2 120 56l29 -21q-63 -89 -151 -85q-50 2 -90.5 27.5t-46.5 60.5z" />
    <glyph glyph-name="dotaccent" unicode="&#x2d9;" horiz-adv-x="220" 
d="M107 725q-26 0 -45 19t-19 45t19 44.5t45 18.5t45 -18.5t19 -44.5t-19 -45t-45 -19z" />
    <glyph glyph-name="ring" unicode="&#x2da;" horiz-adv-x="223" 
d="M107 851q29 0 49.5 -20t20.5 -49q0 -28 -20.5 -48t-49.5 -20t-49.5 20t-20.5 48q0 29 20.5 49t49.5 20zM107 821q-17 0 -28.5 -11.5t-11.5 -27.5q0 -15 11.5 -26.5t28.5 -11.5t28.5 11.5t11.5 26.5q0 16 -11.5 27.5t-28.5 11.5z" />
    <glyph glyph-name="hungarumlaut" unicode="&#x2dd;" horiz-adv-x="398" 
d="M63 733l-20 16l58 87q21 31 43 31q17 0 29 -12t12 -29q0 -25 -48 -52zM204 733l-19 16l58 87q21 31 43 31q17 0 29 -12t12 -29q0 -24 -49 -52z" />
    <glyph glyph-name="ogonek" unicode="&#x2db;" horiz-adv-x="447" 
d="M206 0h51q-22 -19 -35 -33q-27 -29 -27 -61q0 -44 46 -44q29 0 70 20l12 -35q-53 -38 -108 -38q-36 0 -60 21.5t-24 57.5q0 42 31 75q17 18 44 37z" />
    <glyph glyph-name="caron" unicode="&#x2c7;" horiz-adv-x="332" 
d="M2 833q13 13 26 16l128 -62l126 67q8 -4 22 -13q2 -6 -7 -13q-48 -38 -141 -110z" />
    </font>
</defs>
</svg>
