<?xml version="1.0" standalone="no"?>
<!DOCTYPE svg PUBLIC "-//W3C//DTD SVG 1.1//EN" "http://www.w3.org/Graphics/SVG/1.1/DTD/svg11.dtd" >
<svg>
<metadata>
Created by FontForge 20120731 at Wed Apr 17 19:37:31 2019
 By www-data
Digitized by Dan X. Solo. Software (c)1998 by Dover Publications, Inc., New York.
</metadata>
<defs>
<font id="Skjald" horiz-adv-x="234" >
  <font-face 
    font-family="Skjald"
    font-weight="400"
    font-stretch="normal"
    units-per-em="1000"
    panose-1="0 0 4 0 0 0 0 0 0 0"
    ascent="800"
    descent="-200"
    x-height="502"
    cap-height="679"
    bbox="-134 -246 1135 946"
    underline-thickness="20"
    underline-position="-123"
    unicode-range="U+0020-F001"
  />
<missing-glyph horiz-adv-x="500" 
d="M63 0v800h375v-800h-375zM125 63h250v675h-250v-675z" />
    <glyph glyph-name=".notdef" horiz-adv-x="500" 
d="M63 0v800h375v-800h-375zM125 63h250v675h-250v-675z" />
    <glyph glyph-name="glyph1" horiz-adv-x="0" 
 />
    <glyph glyph-name="glyph2" 
 />
    <glyph glyph-name="space" unicode=" " 
 />
    <glyph glyph-name="exclam" unicode="!" horiz-adv-x="212" 
d="M158 605q0 -74 -37 -194.5t-37 -189.5q0 -33 5 -66q-1 -2 -2 -3q-2 2 -5 3q-1 -1 -1 -3q-18 28 -33 74q-16 50 -16 86q0 7 19 141t19 141q0 17 -10 48q-10 27 -17 38h114q-3 -13 -1 -40q2 -39 2 -35zM147 68q0 -20 -13 -40q-16 -23 -39 -23q-27 0 -44 23q-14 19 -14 37
q0 24 18 42t37 18q27 0 43 -23q12 -18 12 -34z" />
    <glyph glyph-name="quotedbl" unicode="&#x22;" horiz-adv-x="334" 
d="M267 623q0 -44 -41 -170l-15 3v3q-44 139 -44 172q0 20 14.5 36.5t33.5 16.5q52 0 52 -61zM137 623q0 -44 -41 -170l-15 3v3q-44 139 -44 172q0 20 14.5 36.5t33.5 16.5q52 0 52 -61z" />
    <glyph glyph-name="numbersign" unicode="#" horiz-adv-x="438" 
d="M410 504l-10 -59h-82l-30 -193h84l-11 -60h-83l-26 -191h-37l27 191h-124l-28 -191h-37l28 191h-74l9 60h74l30 193h-75l11 59h73l25 170h37l-25 -170h125l26 170h36l-26 -170h83zM282 445h-126l-31 -193h127z" />
    <glyph glyph-name="dollar" unicode="$" horiz-adv-x="386" 
d="M368 188q0 -108 -64 -156q-39 -28 -95 -31v-61h-34v59q-19 4 -39 8q-42 11 -68 36q-36 33 -36 88q0 23 25 59q31 45 36 58q-3 4 -6 8.5t-11 4.5q-11 0 -35.5 -23t-36.5 -41q1 7 -5 10q-4 3 29.5 38t52.5 35q50 0 50 -61q0 -7 -19.5 -59t-18.5 -59q2 -28 19.5 -49.5
t43.5 -25.5l19 -4v314q-112 108 -112 162q0 1 -2 20q-1 17 0 28q1 17 5 25q20 38 39 55q26 22 68 24q2 11 0 45h33q-2 -26 0 -42q48 -12 73 -56q22 -37 17 -74q-4 -25 -18 -41q-2 24 -9 70q-10 38 -39 63l-24 11v-179q90 -86 119 -128q43 -61 43 -131zM174 476l-1 152
q-23 1 -40 -18t-13 -49q7 -42 54 -85zM316 146q-2 34 -36.5 83.5t-69.5 70.5v-278l20 2q36 6 62.5 44.5t23.5 77.5z" />
    <glyph glyph-name="percent" unicode="%" horiz-adv-x="594" 
d="M556 167q0 -69 -33 -120q-37 -59 -103 -59q-60 0 -99 60q-34 52 -34 116t37 127l8 -6q-7 -66 -7 -60q0 -63 34 -127q39 -75 96 -75q63 0 63 96q0 64 -30 123q-36 71 -93 71q-12 0 -23 -5q-14 -7 -14 -17q0 -15 29 -18.5t29 -17.5q0 -17 -26 -17q-20 0 -33.5 13.5
t-13.5 33.5q0 32 25 51.5t57 19.5q68 0 103 -64q28 -51 28 -125zM278 490q0 -69 -32 -120q-38 -59 -103 -59q-61 0 -100 59q-33 53 -33 117q0 63 36 127l8 -6q-6 -66 -6 -61q0 -63 33 -126q39 -76 96 -76q63 0 63 97q0 64 -29 123q-37 71 -94 71q-11 0 -23.5 -6t-12.5 -16
q0 -15 29 -18.5t29 -17.5q0 -17 -27 -17q-20 0 -33.5 13.5t-13.5 32.5q0 32 25 52t58 20q67 0 102 -64q28 -51 28 -125zM514 664l-450 -685l-27 18l450 685z" />
    <glyph glyph-name="ampersand" unicode="&#x26;" horiz-adv-x="745" 
d="M766 539q0 -32 -23 -50t-56 -18q-15 0 -44 8t-44 8q-28 0 -69 -31q-32 -25 -55 -54q83 -87 83 -175q0 -96 -81 -165q-77 -67 -174 -67q-114 0 -204 75q-95 79 -95 190q0 61 43 117q40 51 99 80q-72 58 -72 111q0 51 36 81t89 30q51 0 71 -31q14 -22 14 -70q0 -9 -1 -27
v-27q0 -4 14 -4q27 0 50 28q18 24 36 49q-1 -36 -33.5 -67.5t-68.5 -31.5q-61 0 -61 40q0 15 9 43.5t9 43.5q0 32 -45 32q-33 0 -64.5 -28t-31.5 -60q0 -39 32 -69t72 -37q-115 -65 -115 -184q0 -100 63 -176q68 -82 165 -82q84 0 141 66q53 62 53 148q0 103 -52 148
q-53 -33 -88 -33q-25 0 -46 11q-27 13 -27 35q0 21 28 35q23 12 45 12q30 0 82 -27q15 14 42.5 56.5t44.5 58.5q29 27 62 27q16 0 60 -19t63 -19q28 0 28 27q0 14 -22 42l8 13q30 -29 30 -63zM440 396q-40 31 -70 31q-34 0 -48 -23q-4 -8 -4 -10q0 -9 17.5 -17t28.5 -8
q22 0 40 9z" />
    <glyph glyph-name="quotesingle" unicode="'" horiz-adv-x="204" 
d="M137 623q0 -44 -41 -170l-15 3v3q-44 139 -44 172q0 20 14.5 36.5t33.5 16.5q52 0 52 -61z" />
    <glyph glyph-name="parenleft" unicode="(" horiz-adv-x="242" 
d="M246 -63q0 -9 -8 -17q-110 65 -167 193q-45 100 -45 201q0 110 42 207q54 122 164 193q8 -7 8 -16q-93 -59 -120 -189q-12 -59 -12 -199q0 -131 13 -189q29 -127 125 -184z" />
    <glyph glyph-name="parenright" unicode=")" horiz-adv-x="297" 
d="M16 -63q0 -9 9 -17q110 65 167 193q44 100 44 201q0 110 -42 207q-53 122 -163 193q-8 -7 -8 -16q93 -59 120 -189q12 -59 12 -199q0 -131 -13 -189q-29 -127 -126 -184z" />
    <glyph glyph-name="asterisk" unicode="*" horiz-adv-x="295" 
d="M281 493q0 -29 -28 -29q-15 0 -47 31q-39 39 -47 44q0 -18 13.5 -52t13.5 -50q0 -27 -30 -27q-28 0 -28 27q0 17 12.5 50.5t12.5 51.5q-12 -6 -46 -44q-28 -31 -48 -31q-27 0 -27 28q0 20 49 34q34 9 69 18q-34 10 -68 19q-48 15 -48 37q0 26 29 26q14 0 45 -31
q39 -39 46 -44q-2 15 -14 51q-11 32 -11 50q0 29 28 29t28 -28q0 -19 -11 -51q-13 -37 -15 -51q7 5 47 43q33 32 44 32q29 0 29 -26q0 -21 -47 -36q-35 -10 -69 -20q35 -9 70 -17q48 -13 48 -34z" />
    <glyph glyph-name="plus" unicode="+" horiz-adv-x="519" 
d="M533 257h-221v-221h-43v221h-222v43h222v222h43v-222h221v-43z" />
    <glyph glyph-name="comma" unicode="," horiz-adv-x="184" 
d="M118 68q0 2 -8 -39q-3 -18 -54 -69q-54 -54 -79 -53h-24q24 14 48 41q29 32 29 51q0 7 -11 34.5t-11 34.5q0 20 12 39q16 24 43 24q21 0 38 -22.5t17 -40.5z" />
    <glyph glyph-name="hyphen" unicode="-" horiz-adv-x="260" 
d="M243 317q-9 -32 -35 -56t-56 -24q-7 0 -45 10t-44 10q-15 0 -47 -16q10 31 44 52q29 19 53 19q7 0 41 -8.5t41 -8.5q16 0 48 22z" />
    <glyph glyph-name="hyphen" unicode="&#x2010;" horiz-adv-x="260" 
d="M243 317q-9 -32 -35 -56t-56 -24q-7 0 -45 10t-44 10q-15 0 -47 -16q10 31 44 52q29 19 53 19q7 0 41 -8.5t41 -8.5q16 0 48 22z" />
    <glyph glyph-name="period" unicode="." horiz-adv-x="187" 
d="M112 62q0 -23 -17.5 -40t-39.5 -17q-25 0 -39 20q-13 17 -13 43q0 21 10 39q14 24 39 24q29 0 46 -24q14 -21 14 -45z" />
    <glyph glyph-name="slash" unicode="/" horiz-adv-x="387" 
d="M362 702l-324 -727l-34 -1l1 2v0v0v0q0 1 325 726q3 -3 16 -2q20 2 16 2z" />
    <glyph glyph-name="zero" unicode="0" horiz-adv-x="506" 
d="M443 198q0 -84 -55 -144.5t-138 -60.5t-136 59q-51 56 -51 140q0 72 57.5 135.5t129.5 63.5t132.5 -60.5t60.5 -132.5zM389 147q0 73 -56 137q-59 65 -131 65q-36 0 -64 -34.5t-28 -72.5q0 -67 55 -141q59 -78 123 -78q47 0 76 40q25 36 25 84z" />
    <glyph glyph-name="one" unicode="1" horiz-adv-x="506" 
d="M367 31v-32h-223v32h66l1 388q-15 -15 -52 -60l-21 20q104 139 159 206v-554h70z" />
    <glyph glyph-name="two" unicode="2" horiz-adv-x="506" 
d="M465 159l-144 -226l-26 12l32 55q-20 -1 -287 -1q-1 26 19 50q80 87 160 173q76 88 76 161q0 44 -22 76q-26 37 -67 37q-57 0 -82 -72q-15 -46 -15 -112q-16 25 -16 50q0 59 37 112q44 63 114 63q52 0 94 -37q46 -40 46 -96q0 -114 -258 -325l248 1l65 95z" />
    <glyph glyph-name="three" unicode="3" horiz-adv-x="506" 
d="M468 139q0 -119 -101 -210q-75 -68 -195 -112q-90 -32 -126 -32h-3q1 1 5 3l-11 30q31 5 57 11q62 15 93 32q188 103 188 246q0 82 -65 132q-17 13 -24 13q-5 0 -41.5 -15t-47.5 -13q7 9 34 25q32 18 44 28q48 38 66 69q16 27 16 67q0 34 -16 58.5t-47 24.5
q-42 0 -72 -48q-28 -44 -26 -88q-23 0 -23 14q0 70 45 114t111 44q42 0 76 -22q41 -25 41 -68q0 -53 -83 -134q3 -6 52 -53q44 -42 47 -71q0 -4 3 -20t3 -25z" />
    <glyph glyph-name="four" unicode="4" horiz-adv-x="506" 
d="M472 68q-21 15 -31.5 46t-26.5 42q-27 18 -98 19v-144h70v-32h-225v32h63v141h-18q-28 0 -81 -9q-57 -10 -79 -11l-12 15q1 7 63 76q72 82 111 150q60 103 60 198q0 33 -29 94q112 -43 112 -151q0 -72 -58 -138q-25 -29 -119 -108q-76 -63 -100 -107q62 19 148 17v37
l1 34q31 13 92 42v-113h131v71h26v-201z" />
    <glyph glyph-name="five" unicode="5" horiz-adv-x="506" 
d="M479 554q-48 -76 -136 -102q-51 -16 -141 -16h-87v-78q17 2 34 2q109 0 181 -53q77 -56 77 -147q0 -121 -115 -233q-112 -108 -252 -132l-13 16q132 40 214.5 124.5t82.5 174.5q0 68 -46 114t-112 46q-36 0 -46 -16q-7 -10 -11 -55q-10 0 -23 13v313l320 2
q21 -2 41.5 12.5t31.5 14.5z" />
    <glyph glyph-name="six" unicode="6" horiz-adv-x="506" 
d="M452 676q-148 -72 -233 -190q-82 -114 -82 -237q0 -62 32 -133q43 -96 117 -96q44 0 72 45q23 36 23 71q0 45 -29.5 83.5t-71.5 38.5q-41 0 -76 -41q-2 44 29 78t67 34q47 0 86 -48q36 -45 36 -85q0 -82 -47 -144q-52 -67 -131 -67q-94 0 -147 79q-43 64 -43 144
q0 132 107.5 265.5t275.5 212.5q4 -2 15 -10z" />
    <glyph glyph-name="seven" unicode="7" horiz-adv-x="506" 
d="M489 514q-7 0 -14 -13q-9 -17 -14 -21q-149 -121 -216 -279q-39 -94 -73 -285q-4 -26 -4 -52q0 -47 14 -83q-36 12 -64 76q-24 57 -24 104q0 153 272 463l-243 1l36 -75l-19 -6l-123 215l23 11l33 -56h416z" />
    <glyph glyph-name="eight" unicode="8" horiz-adv-x="506" 
d="M441 171q0 -82 -67 -133q-58 -45 -129 -45q-77 0 -130 56q-50 53 -50 119q0 40 15 73q23 51 94 127q65 70 65 73q0 4 -23 26q-27 28 -41 51q-23 36 -25 74q-1 35 29 65.5t75 30.5q37 0 71 -25q38 -29 38 -73q0 -46 -89 -148q104 -109 131 -150q36 -54 36 -121zM322 575
q0 25 -21 52q-25 31 -59 31q-30 0 -49.5 -19t-19.5 -49q0 -26 27 -67q29 -44 60 -61q16 11 39 51.5t23 61.5zM352 198q0 48 -28 113q-29 70 -71 110l-116 -131q-47 -62 -47 -119q0 -50 29 -89q34 -47 93 -47q66 0 106 57q34 48 34 106z" />
    <glyph glyph-name="nine" unicode="9" horiz-adv-x="506" 
d="M455 287q0 -159 -120.5 -306.5t-276.5 -183.5l-7 16q140 56 226 162q94 116 94 259q0 82 -35 158q-44 94 -116 94q-52 0 -81 -37.5t-29 -90.5t28 -91q31 -42 82 -42q16 0 37 15l32 26q1 -36 -29 -76q-32 -43 -67 -43q-55 0 -93 53q-35 47 -38 105q-3 84 55 156.5
t133 72.5q94 0 152 -78q53 -71 53 -169z" />
    <glyph glyph-name="colon" unicode=":" horiz-adv-x="203" 
d="M126 58q0 -58 -52 -58q-25 0 -40 17.5t-15 42.5q0 26 15 43.5t37 17.5q55 0 55 -63zM125 418q0 -21 -17.5 -39.5t-34.5 -18.5q-22 0 -38 24q-14 20 -14 37q0 18 18 36.5t37 18.5q21 0 37 -24q12 -20 12 -34z" />
    <glyph glyph-name="semicolon" unicode=";" horiz-adv-x="176" 
d="M125 418q0 -21 -17.5 -39.5t-34.5 -18.5q-22 0 -38 24q-14 20 -14 37q0 18 18 36.5t37 18.5q21 0 37 -24q12 -20 12 -34zM125 73q0 -45 -54.5 -101t-98.5 -65q4 8 38 44q27 29 27 51q0 5 -7.5 33.5t-7.5 45.5q0 16 6 27q15 23 45 23q52 0 52 -58z" />
    <glyph glyph-name="less" unicode="&#x3c;" horiz-adv-x="274" 
d="M189 26l-162 157l162 157l30 -18l-143 -140l144 -137z" />
    <glyph glyph-name="equal" unicode="=" horiz-adv-x="361" 
d="M362 331l-1 -39h-323v39h324zM362 166h-324v42h324v-42z" />
    <glyph glyph-name="greater" unicode="&#x3e;" horiz-adv-x="227" 
d="M58 26l162 157l-162 157l-31 -18l144 -140l-145 -137z" />
    <glyph glyph-name="question" unicode="?" horiz-adv-x="351" 
d="M323 548q0 -54 -52 -114l-96 -98q-51 -57 -51 -107q0 -40 21 -40q12 0 29 12v-24q1 -24 -27 -24q-26 0 -39 35q-8 22 -8 41q0 45 67.5 155t67.5 175q0 37 -16 65q-21 36 -63 36q-27 0 -56 -17t-29 -40q0 -7 24.5 -45.5t24.5 -44.5q0 -18 -18 -30q-13 -9 -23 -9
q-22 0 -46 9q-27 11 -35 27q5 -1 7 16q0 -1 1 -4l36 -29q23 -4 23 22q0 7 -13.5 38.5t-13.5 38.5q0 45 50 71q39 20 76 20q58 0 105 -34q54 -39 54 -101zM197 58q0 -58 -55 -58q-26 0 -40 24q-11 18 -9 36q3 55 52 55q52 0 52 -57z" />
    <glyph glyph-name="at" unicode="@" horiz-adv-x="771" 
d="M722 415q0 -93 -56 -179q-64 -97 -153 -97q-87 0 -83 100q-59 -96 -134 -96q-114 0 -114 152q0 93 55 169q61 84 150 84q70 0 90 -53l8 41l69 13q-21 -81 -41 -163q-24 -98 -24 -166q0 -49 48 -49q63 0 106 95q35 78 35 151q0 120 -74 184q-70 62 -191 62
q-163 0 -257 -108q-89 -102 -89 -267q0 -127 78.5 -206t204.5 -79q135 0 265 100l-6 -31q-72 -50 -123 -71q-66 -27 -140 -27q-147 0 -240 83q-98 87 -98 232q0 181 110.5 290t292.5 109q133 0 219 -69q92 -74 92 -204zM460 461q0 28 -19 45t-46 17q-61 0 -103 -93
q-34 -76 -34 -147q0 -106 68 -106q58 0 100 117q34 94 34 167z" />
    <glyph glyph-name="A" unicode="A" horiz-adv-x="802" 
d="M766 0h-238v31l83 -1l-187 398h-128l-178 -397h86v-30h-199v30h72l272 615h-55q-51 -58 -108 -58q-16 0 -52.5 24.5t-55.5 21.5q-11 -1 -32 -17t-32 -33v20q18 63 88 74q27 4 65.5 -19t39.5 -23q17 -1 45 14q22 13 37 26h214l1 -30h-80l290 -616l52 1v-31zM412 458
q-18 44 -54 122q-17 -44 -52 -122h106z" />
    <glyph glyph-name="B" unicode="B" horiz-adv-x="670" 
d="M627 93q0 -108 -87 -170q-70 -48 -173 -56q-58 -4 -132 24.5t-117 69.5l15 15q33 -32 91 -54q55 -21 97 -21q90 0 148 62q55 59 55 147q0 85 -56 157q-59 75 -167 121q-29 12 -131 31l-1 -389q-5 0 84 0v-31h-244v31h71l-1 617h-68v31h241q82 3 156 -44q82 -52 82 -127
q0 -33 -27 -70t-52 -43q16 44 16 65q0 89 -75 143q-64 47 -146 47q-8 0 -19 -1.5t-17 -1.5v-199q134 -23 229 -65q228 -103 228 -289z" />
    <glyph glyph-name="C" unicode="C" horiz-adv-x="591" 
d="M586 -37v-33q0 2 -5 2q-6 0 -51.5 -10t-62.5 -9q-168 12 -298 98q-162 106 -162 276q0 146 126 260.5t293 119.5q1 2 1 4q0 5 -10 17.5t-13 19.5q22 5 22 10l130 -209l-23 -11q-60 123 -151 123q-93 0 -171 -67t-100 -159q-7 -29 -7 -99q0 -167 110 -260q100 -86 263 -89
q21 -1 54 6q47 9 55 10z" />
    <glyph glyph-name="D" unicode="D" horiz-adv-x="629" 
d="M574 330q0 -183 -168 -268q-119 -60 -286 -60h-106v28q41 2 70 1v614h-69v31l176 2q166 5 267 -75q90 -71 112 -194q4 -25 4 -79zM474 342q0 14 -10 88q-9 61 -86 135q-81 79 -150 79h-53v-610h23q145 19 216 110q60 78 60 198z" />
    <glyph glyph-name="E" unicode="E" horiz-adv-x="662" 
d="M659 160l-124 -223l-20 9q22 37 22 49q0 5 -4 5h-519v31l61 1l1 615l-69 -1v32h441q-6 15 -17 41q2 0 9.5 6t10.5 6l87 -181l-17 -5q-34 45 -51 62q-42 40 -83 38l-222 1q-2 -35 0 -118h272q7 11 -6 42q2 0 6.5 7t7.5 7l99 -182l-14 -14q-22 29 -45 57q-53 56 -95 54
l-225 -2v-466h262q23 0 87 32q55 27 72 40q12 11 27 32q23 31 25 34q5 0 21 -9z" />
    <glyph glyph-name="F" unicode="F" horiz-adv-x="565" 
d="M267 1l-256 -1v31l66 -1l-1 617l-69 -1v32h441q-6 15 -17 41q2 0 9.5 6t10.5 6l84 -174l-14 -12q-34 45 -51 62q-42 40 -83 38l-223 1q-3 -73 1 -118h281q1 2 1 4l-16 38q2 0 10 5t11 5l92 -178l-20 -12q-21 27 -42 55q-49 53 -91 52h-226l-1 -467h104z" />
    <glyph glyph-name="G" unicode="G" horiz-adv-x="672" 
d="M626 31v-30h-212q-52 0 -110 12t-89 29q-109 59 -158 124q-52 69 -52 162q0 199 184 292q117 59 243 59q21 0 15 -2l-19 38q2 3 9.5 7t10.5 7q35 -69 105 -208l-14 -10q-22 30 -43 52q-50 55 -84 68q-19 7 -44 7q-53 0 -106 -24q-156 -72 -156 -274q0 -124 89 -216
q86 -90 191 -90h64q1 7 1 340h-68v26h247v-25h-90q0 -260 2 -344h84z" />
    <glyph glyph-name="H" unicode="H" horiz-adv-x="674" 
d="M616 646h-68v-615l68 -1l-1 -30h-229v31h68v467q-53 2 -70 0q-2 -28 -19 -49q-21 -24 -52 -24t-51.5 21t-23.5 52h-74v-467h72v-31h-231v31h70v615q-22 1 -68 1l1 32h223l-1 -33h-66v-121h97q0 -26 11 -47q14 -27 41 -26q49 1 44 75l96 -1v120q-8 3 -35 1t-35 0v31h233
v-32z" />
    <glyph glyph-name="I" unicode="I" horiz-adv-x="317" 
d="M262 1h-248v31h72v614h-69v33h237v-33l-75 -2l1 -612h82v-31z" />
    <glyph glyph-name="J" unicode="J" horiz-adv-x="268" 
d="M249 646h-80l1 -332q1 -44 -1 -89q-4 -124 -97 -240q-90 -112 -198 -140q-8 8 -8 19q85 23 155 119q65 91 65 168l-1 495h-75v33h239v-33z" />
    <glyph glyph-name="K" unicode="K" horiz-adv-x="615" 
d="M568 51q0 -88 -25 -122l-9 8q7 30 7 60q0 120 -100 235q-73 87 -187 155q-9 0 -90 -93v-263l87 1v-34h-248v34l74 -1l1 614h-74v33h230v-33h-70v-292l283 293l-77 -1v17q1 13 1 16q97 0 194 1v-34h-62q-55 -54 -172 -175q237 -187 237 -419z" />
    <glyph glyph-name="L" unicode="L" horiz-adv-x="573" 
d="M608 194l-140 -268l-24 12q11 16 30 62h-469v32l73 -1l1 614h-69v32h244v-32l-81 1v-614h155q83 0 151 51q52 39 109 121z" />
    <glyph glyph-name="M" unicode="M" horiz-adv-x="958" 
d="M913 0h-252v30h94l-174 560l-154 -288l-144 276l-172 -548l90 1v-31h-192v31h58l192 616h-50v32l127 -1l120 -227l105 195h-48v33h216l-1 -33h-62l188 -616h58z" />
    <glyph glyph-name="N" unicode="N" horiz-adv-x="708" 
d="M652 647h-65v-613q6 -4 17 -4q5 0 17 1.5t18 1.5q7 0 13 -2v-32l-198 1v30h93v128l-426 432v-559h85v-31h-191v31h69v616q-45 2 -72 0v31h151l388 -382v347q-6 4 -37 4q-19 0 -49.5 -25t-48.5 -26q-18 -2 -49 21.5t-54 23.5q-13 0 -32.5 -5.5t-23.5 -5.5q2 20 22.5 38
t39.5 18q36 0 70 -23q31 -22 48 -19q33 5 62 34h153v-31z" />
    <glyph glyph-name="O" unicode="O" horiz-adv-x="668" 
d="M614 330q0 -133 -73 -230q-82 -110 -216 -110q-152 0 -238 108q-73 92 -79 232q-5 136 65 239q81 117 224 117q144 0 236 -122q81 -106 81 -234zM550 250q0 29 -12.5 83.5t-24.5 80.5q-44 94 -117 161q-78 71 -148 71q-88 0 -140 -79q-42 -63 -42 -136q0 -124 78 -246
q94 -148 236 -148q82 0 130 70q40 61 40 143z" />
    <glyph glyph-name="P" unicode="P" horiz-adv-x="599" 
d="M565 433q0 -117 -120 -199q-102 -70 -204 -70q-18 0 -31 16q254 28 254 233q0 239 -244 233q-11 3 -34 0v-616h80v-30h-253l-1 30h83v616h-83v32h268q119 6 211 -81q74 -71 74 -164z" />
    <glyph glyph-name="Q" unicode="Q" horiz-adv-x="687" 
d="M645 34q0 -41 -62 -67q16 35 16 50q0 20 -7 23q2 -1 -11 -1q-29 0 -77 -46q-92 -87 -93 -88q-59 -49 -115 -54q-34 -3 -63 21q-34 27 -33 69v24q2 17 17 31q-105 53 -158 171q-42 93 -47 213q-6 134 65 219q75 90 205 87q131 -2 227 -114q86 -98 96 -213q2 -21 2 -41
q0 -137 -71 -228q-78 -102 -213 -101q-6 0 -31 3t-32 3q-33 -3 -33 -51q0 -68 76 -68q42 0 104 53l104 98q58 52 91 52q19 0 31 -13t12 -32zM549 263q0 67 -40 154q-43 95 -109 156q-78 71 -165 71q-79 0 -127 -70q-39 -58 -41 -128q-3 -101 49 -213q58 -125 148 -171
q115 135 115 190q0 23 -14.5 39.5t-39.5 16.5q-18 0 -29 -8q-8 -21 -25 -65q-11 7 -11 23q0 29 27 64q31 40 69 40q23 0 46 -22q28 -27 28 -66q0 -42 -53 -109q-48 -56 -95 -111q24 -18 81 -18q85 0 138 72q48 66 48 155z" />
    <glyph glyph-name="R" unicode="R" horiz-adv-x="635" 
d="M629 28q-31 -39 -77 -39q-52 0 -84.5 30t-32.5 77v165q-2 65 -90 113q-38 21 -150 59q4 8 0 23q115 -24 213 -88q112 -73 114 -150q1 -38 0 -126q-1 -76 43 -75q27 1 55 27zM482 510q0 -34 -25 -70.5t-56 -49.5q16 42 16 71q0 78 -49 131.5t-127 53.5h-69v-616h73v-30
h-224v30h59v616h-62v32l255 1q74 0 138 -46q71 -51 71 -123z" />
    <glyph glyph-name="S" unicode="S" horiz-adv-x="686" 
d="M638 238q0 -119 -92 -189q-79 -59 -180 -59q-39 0 -105 15l-66 15q-33 0 -33 -31q0 -17 10 -38l-17 -10l-150 275q3 2 10.5 5.5t9.5 6.5q42 -100 151 -160q93 -52 182 -52h34q64 0 132 54q75 60 75 134q0 91 -118 151q-109 44 -218 87q-118 51 -118 120q0 65 56 99
q40 25 97 30q47 4 103 -14q28 -10 56 -21q9 -1 15 -1q13 0 17 9q6 16 10 20q-5 8 -17 38q14 8 17 6q12 -19 105 -205q-13 -11 -17 -9q-42 67 -127 109q-77 38 -151 38q-107 0 -107 -59q0 -43 113 -79q159 -50 210 -83q113 -72 113 -202z" />
    <glyph glyph-name="T" unicode="T" horiz-adv-x="740" 
d="M726 520q-6 -10 -11 -10q-4 0 -29 32q-14 20 -29 40q-61 70 -200 63h-52v-613h83v-31h-253v29q21 3 82 0l-1 616h-52q-114 0 -177 -49q-29 -23 -53 -57q-14 -19 -28 -39q-3 -2 -6.5 2.5t-7.5 6.5q38 74 120 216q5 -1 15 -8q-17 -35 -17 -41l510 1q2 2 2 4q0 4 -6.5 15.5
t-8.5 22.5l16 5q16 -48 103 -205z" />
    <glyph glyph-name="U" unicode="U" horiz-adv-x="647" 
d="M591 1h-188q-20 -1 -38 0q-149 6 -258 142q-96 119 -96 235q0 52 29 122q34 82 83 112q3 7 3 12q0 21 -40 23q-33 0 -67 -1q-5 6 -3 32h203q-75 -71 -98 -134q-15 -40 -15 -113q0 -140 63 -257q80 -145 219 -144h39v617q-6 3 -28 0t-34 0l2 32h224l-1 -33h-77
q-1 -44 -1 -617h79v-28z" />
    <glyph glyph-name="V" unicode="V" horiz-adv-x="829" 
d="M809 645h-87l-268 -615h46v-30h-197v30h49q-54 122 -151 348q-32 78 -121 267h-63v34h228v-34h-57l245 -566l238 560l-12 10q1 0 -13 0q-20 0 -55 -28.5t-88 -28.5q-7 0 -69.5 20.5t-70.5 20.5q-21 0 -39 -15q-28 -24 -29 -25q2 35 38.5 64.5t75.5 29.5q18 0 71.5 -21
t58.5 -21q31 0 34 1q22 5 52 33h183z" />
    <glyph glyph-name="W" unicode="W" horiz-adv-x="995" 
d="M968 645h-58l-250 -614h85v-32h-214v32h61l-109 277l-109 -277h71l-1 -31h-224l-2 31h74l-4 12l-235 602h-57v32h226v-32h-61l202 -528l100 253l-107 275h-50v33h191v-33l-40 1l56 -142l61 141h-35l1 33h115v-33h-37l-85 -194l125 -323l202 517h-68l-1 33h177v-33z" />
    <glyph glyph-name="X" unicode="X" horiz-adv-x="799" 
d="M773 1h-270v29h94l-240 364l-235 -364h94v-29h-212v29h71l256 396l-141 220h-76l-1 33l248 -1l-1 -32h-52l84 -129l88 129h-49v32h173v-32h-75l-117 -164l293 -452h68v-29z" />
    <glyph glyph-name="Y" unicode="Y" horiz-adv-x="630" 
d="M573 -1h-233l1 32h72v613h-60l-1 35h226l-2 -35h-69l1 -612h65v-33zM398 122q-36 -8 -73 -8q-107 0 -209.5 97t-102.5 204q0 68 37 131.5t97 97.5h-121l-1 34h198q-62 -52 -85 -96q-26 -48 -26 -124q0 -118 72 -220q80 -112 193 -112q15 0 21 -4z" />
    <glyph glyph-name="Z" unicode="Z" horiz-adv-x="618" 
d="M634 248l-135 -313l-24 11q6 17 26 55h-490q0 84 3 106q17 137 87 232q53 72 167 153q207 150 213 154h-251q-121 0 -186 -117l-16 8l71 194h22q-6 -21 -18 -53q35 3 455 0q-152 -114 -303 -302q-156 -194 -213 -346h297q123 0 205 106q15 19 72 121q13 -9 18 -9z" />
    <glyph glyph-name="bracketleft" unicode="[" horiz-adv-x="689" 
d="M20 811q0 -4 2 -9q3 3 20 3q-1 54 32 81q28 22 72 22q42 0 81 -15q47 -19 47 -49q0 -22 -53 -40q-82 -28 -98 -37q-53 -29 -53 -79q0 -73 61 -123q56 -45 125 -45q67 0 192.5 66t204.5 66v25q-36 2 -82 -7q-15 -3 -98 -41q-49 -25 -98 -49q-65 -31 -101 -31
q-128 0 -128 74q0 38 43 58q22 11 84 24q52 11 62 23q32 38 32 78q0 57 -58 98.5t-133 41.5q-56 0 -102 -26q-34 -19 -46 -49q-8 -21 -8 -60z" />
    <glyph glyph-name="backslash" unicode="\" 
 />
    <glyph glyph-name="bracketright" unicode="]" horiz-adv-x="637" 
d="M634 811q0 -4 -2 -9q-3 3 -20 3q0 54 -33 81q-27 22 -71 22q-42 0 -81 -15q-47 -19 -47 -49q0 -22 53 -40q82 -28 98 -37q53 -29 53 -79q0 -73 -61 -123q-56 -45 -125 -45q-68 0 -193.5 66t-203.5 66v25q36 2 82 -7q15 -3 98 -41q49 -25 98 -49q65 -31 101 -31
q127 0 127 74q0 38 -42 58q-22 11 -85 24q-51 11 -62 23q-32 38 -32 78q0 57 58.5 98.5t132.5 41.5q57 0 103 -26q34 -19 46 -49q8 -21 8 -60z" />
    <glyph glyph-name="asciicircum" unicode="^" horiz-adv-x="260" 
d="M35 703l-2 4l124 92l122 -95l-2 -5l-120 50z" />
    <glyph glyph-name="underscore" unicode="_" horiz-adv-x="448" 
d="M480 -134h-480v36h480v-36z" />
    <glyph glyph-name="grave" unicode="`" horiz-adv-x="205" 
d="M220 715q-70 59 -149 121q-4 2 -9 2q-14 0 -24 -14t-10 -31q0 -9 3 -16l185 -68z" />
    <glyph glyph-name="a" unicode="a" horiz-adv-x="484" 
d="M455 1h-137v32q-25 -11 -51 -21q-57 -19 -105 -18q-158 4 -158 125q0 95 118 179q52 37 196 106q-7 49 -39 65q-15 7 -49 7q-40 0 -96 -37q-64 -42 -91 -99q-4 8 -15 8l100 209q11 -4 18 -14q-12 -21 -25 -52q44 14 101 14q58 0 109 -27q67 -34 67 -97v-350q10 -3 27 -1
q19 2 30 1v-30zM317 66l1 311l-19 -10q-83 -43 -138 -96q-70 -66 -70 -126q0 -53 35.5 -84.5t89.5 -31.5q21 0 58 13t43 24z" />
    <glyph glyph-name="b" unicode="b" horiz-adv-x="479" 
d="M425 255q0 -102 -88 -181q-83 -73 -177 -73h-160v31q1 -2 72 -1v577l-71 -34l-4 23l215 103v-23l-52 -26v-149q36 -6 89 -20q176 -75 176 -227zM332 252q0 83 -28 134q-41 72 -145 100v-457h20q69 9 113 79q40 64 40 144z" />
    <glyph glyph-name="c" unicode="c" horiz-adv-x="415" 
d="M408 1q-33 -13 -90 -13q-118 0 -210 72q-100 78 -100 195q0 106 78.5 179.5t204.5 76.5q1 1 1 2t-4 7.5t-4 13.5l-7 15l20 8l77 -182l-12 -6q-24 31 -33 47q-14 28 -53 43q-29 11 -56 11q-69 0 -102 -68q-23 -49 -23 -112q0 -100 56 -182q67 -97 176 -97q39 0 74 12
q0 -3 3.5 -11t3.5 -11z" />
    <glyph glyph-name="d" unicode="d" horiz-adv-x="440" 
d="M407 1l-134 -1q-114 0 -188 63q-79 67 -79 179q0 102 82 174q66 59 176 92v82l-56 -29l-4 27l203 107l-1 -27l-58 -32v-605h59v-30zM262 32v454q-80 -24 -127 -95q-44 -67 -44 -155q0 -63 42 -129q47 -75 106 -75h23z" />
    <glyph glyph-name="e" unicode="e" horiz-adv-x="449" 
d="M434 460l-319 -303q49 -136 194 -136q50 0 90 24l9 -25q-41 -28 -125 -28q-108 0 -191 73q-87 76 -87 183q0 104 60 179q65 80 167 80q75 0 147 -68q21 25 41 35zM289 405q0 26 -21.5 53.5t-48.5 27.5q-62 0 -98 -80q-29 -64 -29 -135q0 -35 12 -80l112 96q73 67 73 118z
" />
    <glyph glyph-name="f" unicode="f" horiz-adv-x="377" 
d="M393 669q-55 -88 -103 -142q0 8 5 28t5 27q0 31 -21 57.5t-52 26.5q-33 0 -60 -34q-24 -30 -24 -55v-83l80 1q9 0 17 2q19 5 27 18q10 -7 15 -7q-47 -83 -87 -126q-2 5 10 49q-4 12 -7.5 23t-18.5 10q-12 -2 -33 0v-284q0 -110 -27 -213q-33 -126 -96 -183q6 27 19 84
q5 21 19 133v463h-62l1 30h61q3 61 21 103q41 101 148 94q22 -1 59 -15q44 -16 55 -33q8 3 17 15q15 18 17 19q4 -1 15 -8z" />
    <glyph glyph-name="g" unicode="g" horiz-adv-x="635" 
d="M640 491q-46 -33 -137 -101l-14 15q29 25 29 43q0 29 -35 29q-31 0 -31 -54q0 -24 4 -34q32 -77 29 -133q-8 -160 -131 -236q55 2 107 -28q65 -36 65 -99t-57 -99q-48 -31 -108 -31q-62 0 -130 25q-33 12 -102 48q-51 25 -70 26q-22 0 -43 -8l-42 -16q-5 11 -3 16
q107 82 188 123q9 -67 83 -114q68 -42 142 -42q35 0 66 14q47 21 47 64q0 36 -39 61q-32 21 -75 27q-5 1 -107 5q-72 2 -117 20q-71 28 -113 103q-37 67 -37 138q0 98 66 176q69 83 167 83q101 0 190 -93q-3 12 -3 26q0 81 91 86q21 2 76 -42q3 4 30 17zM404 198
q0 82 -38 167q-53 118 -148 118q-66 0 -103 -57q-30 -47 -30 -112q0 -72 43 -164q59 -126 154 -126q61 0 95 62q27 50 27 112z" />
    <glyph glyph-name="h" unicode="h" horiz-adv-x="503" 
d="M448 230q0 -72 -40 -177q-47 -123 -109 -159q33 89 39 110q25 83 25 153q0 89 -34 183q-51 137 -147 137q-26 0 -28 -1q-5 -1 -5 -11l-1 -320q0 -7 3 -46l4 -60q11 -12 29 -12q46 0 37 2v-26h-208q0 2 -3 9.5t-3 10.5q23 3 68 17l-1 540l-67 -43l-12 18l201 142l14 -14
l-58 -48v-141q28 7 48 7q9 0 15 -2q113 -28 175 -103q58 -71 58 -166z" />
    <glyph glyph-name="i" unicode="i" horiz-adv-x="252" 
d="M187 624q0 -23 -18.5 -37.5t-36.5 -14.5q-16 0 -34 14t-18 35q0 26 18 40t38 14q22 0 38 -18q13 -16 13 -33zM226 29v-29l-195 1l-1 28h64v368l-12 5l-58 -29l-7 15l184 115l8 -14q-9 -8 -17 -16q-23 -29 -23 -57v-387h57z" />
    <glyph glyph-name="j" unicode="j" horiz-adv-x="214" 
d="M158 627q0 -24 -17.5 -39t-36.5 -15t-33.5 17t-14.5 37q0 19 14 36t37 17q24 0 37.5 -17t13.5 -36zM186 498q-13 -19 -26 -37q-19 -27 -19 -49v-312q0 -7 -3.5 -24.5t-4.5 -26.5q-3 -61 -74.5 -125t-129.5 -64q-8 0 -12.5 3t-6.5 3q1 9 26 19q40 16 48 21q65 37 79 147
q5 32 5 189q0 114 -10 150q-31 -22 -51 -28l-7 14q77 64 173 123z" />
    <glyph glyph-name="k" unicode="k" horiz-adv-x="493" 
d="M479 461q-7 0 -28 1t-31 1q-16 -1 -27 -5q-23 -10 -53 -39.5t-30 -40.5q0 -8 25 -38q33 -40 41 -51q27 -42 46 -114q18 -66 18 -111q0 -47 -27 -122q-32 -88 -71 -104q17 35 40 93q7 27 7 70q0 81 -40.5 164.5t-109.5 146.5q-29 -30 -88 -88v-196q36 -8 73 1v-27h-218v21
h62v539q-19 -15 -55 -40l-14 14q78 66 98 82q57 46 92 68h13q-13 -26 -27 -52q-23 -45 -23 -63v-288q2 -5 7 -5l174 188q-17 -5 -35 -5q-26 0 -44 13q2 1 12 10q3 2 10 2q-9 0 50.5 -2t146.5 -2z" />
    <glyph glyph-name="l" unicode="l" horiz-adv-x="215" 
d="M222 17q-15 -21 -55 -21q-35 0 -76 24q-49 29 -49 70v468l-9 9q-21 -18 -28 -18q-6 0 -14 3q44 44 163 128l-20 -38q-13 -23 -13 -32v-522q0 -24 38 -49q35 -23 57 -23q4 0 6 1z" />
    <glyph glyph-name="m" unicode="m" horiz-adv-x="578" 
d="M543 4q-6 -7 -169 -1q24 24 40 20v376q-1 32 -40 32q-33 0 -63 -37v-366q14 -3 34 -11q0 -6 -6 -13.5t-13 -7.5q-126 0 -133 14q15 7 39 23v366q0 11 -13 24.5t-24 13.5q-13 0 -38 -15q-31 -19 -32 -39l5 -355q14 -3 34 -11q0 -6 -6 -13.5t-14 -7.5l-138 7q6 6 6 20h38
v376q-3 3 -18 0q-17 -2 -26 1q47 40 143 93q2 0 15 -13q0 -1 -18 -15q-14 -12 -14 -24q0 -5 2 -10q19 18 55 43q20 8 43 8q31 0 48 -14q12 -10 29 -42q23 16 45 33q30 23 62 23q20 0 46 -17q30 -19 30 -41v-172q0 -42 2 -61q2 -26 0 -63q-3 -44 -3 -52q0 -33 12 -51
q10 -3 21.5 -5.5t18.5 -15.5z" />
    <glyph glyph-name="n" unicode="n" horiz-adv-x="469" 
d="M431 0h-171v30l43 1v349q0 71 -62 71q-46 0 -96 -65v-356h55v-30h-178l1 28h49v395l-51 -32l-10 19q58 41 177 117l14 -17l-62 -47v-35q66 73 133 73q33 0 70 -26q39 -29 39 -60v-385l49 1v-31z" />
    <glyph glyph-name="o" unicode="o" horiz-adv-x="481" 
d="M424 271q0 -96 -49 -179q-61 -103 -165 -99q-14 1 -43 8q-36 10 -53 22q-47 33 -77 104q-28 65 -30 128q-2 96 47 170q58 86 158 86q32 0 67 -10q77 -23 116 -107q29 -61 29 -123zM365 200q0 66 -43 155q-57 119 -148 119q-52 0 -85 -52q-28 -45 -27 -104q2 -82 49 -172
q59 -111 144 -111q49 0 82 60q28 50 28 105z" />
    <glyph glyph-name="p" unicode="p" horiz-adv-x="482" 
d="M425 262q0 -84 -62 -163q-66 -85 -148 -85l-18 1q139 64 139 219q0 86 -30 149q-39 81 -115 81h-39v-455q2 -108 -29 -165.5t-92 -55.5q44 49 44 135l1 541h-70v31h162q257 2 257 -233z" />
    <glyph glyph-name="q" unicode="q" horiz-adv-x="478" 
d="M437 14q-33 -77 -63 -122q-8 10 0 57l-36 1v-51q0 -33 13 -69q14 -39 37 -60h-24q-14 0 -47.5 32t-41.5 49q-16 33 -12 97h-100v23l100 1v493h-28q-63 0 -103 -72q-38 -66 -32 -142q15 -198 149 -239q-9 -9 -31 -9q-7 0 -23 8q-25 11 -28 12q-77 30 -119 106
q-34 61 -35 129q-2 96 67 166t158 70h156q-1 -12 0 -29h-54v-494q19 1 32 1q8 0 27 14q29 22 38 28z" />
    <glyph glyph-name="r" unicode="r" horiz-adv-x="368" 
d="M336 431q-30 -31 -92 -86q-3 -2 -5 3.5t-4 3.5q0 1 16 27q12 19 13 40q1 14 -10 23.5t-26 9.5q-30 0 -61 -32.5t-31 -59.5l1 -330h54q1 -19 1 -29h-177v30q56 0 47 -1v399l-41 -21l-7 17q51 28 153 83q4 -6 13 -17l-43 -28v-36q27 22 54 43q40 32 73 32q23 0 46 -19
q28 -22 26 -52z" />
    <glyph glyph-name="s" unicode="s" horiz-adv-x="407" 
d="M363 131q0 -73 -59 -108q-42 -25 -96 -25q-8 0 -49 9q-24 5 -49 10q-22 4 -25 -29q-2 -14 0 -34l-17 -1l-65 233l16 4q17 -39 51 -99q51 -66 143 -66q39 0 71 17q41 22 41 61q0 54 -77 103l-142 84q-76 52 -76 114q0 48 47 77q35 21 69 21q43 0 83 -24q22 -13 45 -26
q12 -3 28 15q12 14 19 31q3 -3 10 -7t10 -6q-26 -47 -76 -142l-19 8q8 14 8 32q0 35 -26 61q-32 31 -86 31q-20 0 -39 -12q-23 -15 -23 -37q0 -29 73 -72q109 -65 137 -88q73 -62 73 -135z" />
    <glyph glyph-name="t" unicode="t" horiz-adv-x="329" 
d="M296 531q-25 -52 -78 -155q0 3 -3 2q-6 -1 -3 -1q-2 0 -2 5q8 61 8 53q0 28 -21 28h-27l-1 -379q0 -30 33 -46q23 -11 43 -11t29 4q-22 -38 -71 -38q-47 0 -68 18q-34 28 -40 78v374h-85v31h85v78q2 8 -5 8q-3 0 -8 -2q-11 -5 -37 -15l-8 17l170 88q0 -3 7 -11
q-38 -27 -44 -52l-2 -44l-1 -67h61q26 -2 56 43z" />
    <glyph glyph-name="u" unicode="u" horiz-adv-x="457" 
d="M390 32v-31h-183q-69 0 -135 84q-59 75 -62 133q-6 147 99 246q-26 -3 -77 -1v32q41 0 147 1v-33q-4 1 -17 1q-33 0 -54 -70q-16 -55 -16 -102q0 -76 27 -152q38 -110 113 -110h26l1 365q0 22 -5 40q-8 33 -29 53q10 16 16 14q41 -38 151 -150l-10 -20l-41 33v-332z" />
    <glyph glyph-name="v" unicode="v" horiz-adv-x="497" 
d="M482 463h-64l-188 -467l-17 4l-167 391l-34 -30l-11 16l133 126q-10 -51 -10 -57q0 -17 6 -32l116 -293l134 342h-74v32h176v-32z" />
    <glyph glyph-name="w" unicode="w" horiz-adv-x="588" 
d="M570 464h-54l-175 -468h-14q-21 36 -68 126l-59 -131q-5 2 -12 1l-151 400q-3 0 -12 -9.5t-14 -12.5l-12 17q40 41 130 122q-1 -6 -11 -37q-9 -24 -9 -39q0 -12 5 -23l108 -307q18 41 61 134l63 -131l131 358h-68v31h161v-31z" />
    <glyph glyph-name="x" unicode="x" horiz-adv-x="508" 
d="M522 30l2 -31h-203l-2 31h53l-124 218l-140 -218h75v-31h-170v31h51l165 251l-75 128l-43 -40l-16 15l126 131q-4 -8 -4 -19q0 -24 23 -67l36 -70l70 108l-40 -3v31h135v-31h-57l-89 -141l174 -293h53z" />
    <glyph glyph-name="y" unicode="y" horiz-adv-x="510" 
d="M479 465h-49q-34 -63 -115 -269q-85 -213 -85 -240q0 -45 32 -74q26 -23 55 -23q28 0 56 21q33 23 33 54q0 33 -28 55q-23 20 -47 20q-7 0 -22 -2.5t-20 -2.5q21 50 56 144q0 -33 49 -86t51 -78q2 -61 -30 -103q-36 -48 -102 -48q-13 0 -34 6q-74 22 -74 120q0 37 10 73
l-172 387l-46 -28l-9 19l154 105l7 -21q-24 -29 -24 -51q0 -12 7 -24l120 -277l138 323l-68 1l1 30h156v-31z" />
    <glyph glyph-name="z" unicode="z" horiz-adv-x="396" 
d="M376 154q-38 -106 -81 -194h-19q0 -9 10 41l-278 -1l2 59q5 144 77 242q60 84 192 161q-12 5 -65 5q-67 0 -95 -11q-46 -18 -108 -88l-10 5q0 9 34 70q17 30 45 94q17 8 17 -3q-8 -17 -18 -39h281q-110 -94 -197 -236q-51 -84 -116 -228q7 0 45 -1t43 -1q90 0 137 26
q51 29 86 108z" />
    <glyph glyph-name="braceleft" unicode="{" horiz-adv-x="920" 
d="M29 143q0 -41 25 -71q27 -33 68 -33q44 0 95 37t71 37q46 0 46 -41q0 -27 -26 -35q-11 0 -32 -1q-43 -6 -43 -26q0 -10 10 -20t18 -10t11 3q0 1 -15 8q-11 5 -11 17q0 11 26 13q38 3 50 9q26 11 26 45q0 35 -27.5 59t-62.5 21q-36 -4 -90 -46.5t-66 -42.5q-28 0 -45 29
q-14 23 -14 45q0 19 6 30q22 41 92 62q11 4 54 4q110 0 260 -45q1 -1 18 -31q9 -12 30 -39q103 -138 237 -138q50 0 99 37t50 79q2 62 -54 108q-29 21 -58 41l-1 25q-1 16 -5 31q-10 36 -54 63q-40 24 -86 26q-39 2 -90 -15q-107 63 -107 173q0 31 10 63q5 15 26 34t37 22
q27 5 46 5q44 0 65 -27q17 -21 33 -82q7 -25 27.5 -41t46.5 -16q53 0 90 57q5 8 14.5 21t21.5 13q16 0 19 -15q2 -7 2 -14q0 -37 -37 -56q-32 -17 -32 -33q0 -11 19 -19l26 2v12q-4 0 -11 -2t-10 -1q-8 3 -10 5q-1 1 0 3q2 3 2 6q25 14 46 39q24 29 24 55q0 23 -17 40.5
t-41 17.5q-13 0 -36 -12.5t-30 -21.5q-33 -45 -62 -45q-21 0 -34 27l-20 44q-4 17 -21.5 38t-36.5 28q-32 13 -64 13q-64 0 -106.5 -47t-42.5 -119q0 -15 2 -30q4 -34 41 -77q33 -39 70 -64q1 -1 -2 -3q-107 -26 -117 -24q-111 110 -184 116q-71 5 -71 -56q0 -43 49 -66
q38 -19 86 -19q6 0 112 4l78 -107q-3 -3 -6 -3q-8 0 -66 24q-63 26 -64 27q-93 28 -117 28q-61 0 -110.5 -44.5t-49.5 -107.5zM149 410q0 30 35 30q34 0 84 -29.5t81 -67.5q-46 -4 -87 -4q-29 0 -64 15q-49 21 -49 56zM385 333l122 26l128 -56q71 -31 122 -61
q-8 -17 -20 -28q-9 -7 -33.5 -16.5t-29.5 -9.5q-47 -11 -113 3q-5 0 -44 5q-48 48 -132 137zM558 367q35 13 63 13q51 0 93 -27q48 -32 48 -80q0 -7 -1 -15zM531 179l54 -10h62q56 0 98 33q8 11 24 27l54 -40q30 -24 30 -60q0 -34 -26.5 -59.5t-58.5 -25.5q-64 0 -129 46
q-54 44 -108 89z" />
    <glyph glyph-name="bar" unicode="|" horiz-adv-x="438" 
d="M370 309q0 -12 -13 -21.5t-26 -12.5l2 12q0 11 -16 11q-5 0 -51 -24.5t-74 -24.5q-123 0 -123 122q0 73 47 122.5t120 49.5q49 0 81.5 -29t32.5 -76q0 -45 -31 -82q-32 -40 -78 -40q-10 0 -23.5 10.5t-10.5 19.5l17 65q0 40 -39 40q-16 0 -27.5 -12t-11.5 -28
q0 -14 10 -34q-25 9 -25 31q0 38 21.5 62.5t60.5 24.5q29 0 49 -19t20 -47q0 -26 -24 -51t-24 -36q0 -12 8 -12q36 0 64 40q25 37 25 74q0 39 -32 62q-28 20 -69 20q-63 0 -105 -51q-38 -48 -38 -113q0 -41 30 -67.5t71 -26.5t93.5 31.5t64.5 31.5q24 0 24 -22z" />
    <glyph glyph-name="braceright" unicode="}" horiz-adv-x="885" 
d="M882 143q0 -41 -25 -71q-27 -33 -69 -33q-43 0 -94.5 37t-71.5 37q-45 0 -45 -41q0 -27 26 -35q11 0 32 -1q42 -6 42 -26q0 -10 -10 -20t-18 -10q-7 0 -11 3q1 1 14 7t13 18q0 11 -27 13q-38 3 -49 9q-27 11 -27 45q0 35 28 59t62 21q37 -4 90.5 -46.5t65.5 -42.5
q28 0 46 29q13 23 13 45q0 19 -6 30q-21 41 -91 62q-11 4 -54 4q-110 0 -261 -45q0 -1 -17 -31q-10 -12 -31 -39q-103 -138 -236 -138q-51 0 -99.5 37t-49.5 79q-2 62 54 108q28 21 57 41q1 0 2 25q1 16 5 31q9 36 53 63q41 24 86 26q40 2 90 -15q108 63 108 173
q0 31 -11 63q-5 15 -26 34t-37 22q-26 5 -45 5q-44 0 -65 -27q-17 -21 -34 -82q-6 -25 -27 -41t-46 -16q-54 0 -90 57q-5 8 -15 21t-22 13q-16 0 -19 -15q-1 -7 -1 -14q0 -37 36 -56q32 -17 32 -33q0 -11 -18 -19l-26 2v12q3 0 10.5 -2t10.5 -1q7 3 9 5q1 1 0 3q-1 3 -1 6
q-26 14 -46 39q-24 29 -24 55q0 23 17 40.5t41 17.5q12 0 35.5 -12.5t29.5 -21.5q33 -45 63 -45q21 0 34 27l20 44q3 17 20.5 38t36.5 28q33 13 65 13q64 0 106 -47t42 -119q0 -15 -2 -30q-4 -34 -41 -77q-32 -39 -70 -64q0 -1 2 -3q108 -26 118 -24q111 110 184 116
q70 5 70 -56q0 -43 -48 -66q-39 -19 -86 -19q-6 0 -112 4l-79 -107q3 -3 7 -3q8 0 65 24q63 26 65 27q93 28 117 28q61 0 110.5 -44.5t49.5 -107.5zM761 410q0 30 -34 30t-84 -29.5t-82 -67.5q47 -4 87 -4q30 0 65 15q48 21 48 56zM525 333l-122 26l-128 -56
q-70 -31 -121 -61q7 -17 20 -28q9 -7 33 -16.5t30 -9.5q47 -11 112 3q6 0 45 5q47 48 131 137zM353 367q-35 13 -63 13q-51 0 -94 -27q-47 -32 -47 -80q0 -7 1 -15zM380 179l-54 -10h-63q-55 0 -97 33q-8 11 -24 27l-54 -40q-30 -24 -30 -60q0 -34 26.5 -59.5t58.5 -25.5
q64 0 128 46q55 44 109 89z" />
    <glyph glyph-name="asciitilde" unicode="~" horiz-adv-x="249" 
d="M13 699q17 71 82 71q25 0 59 -17.5t54 -17.5q14 0 26 10t23 20l10 -11q-13 -18 -26 -35.5t-40 -18.5q-25 -1 -60.5 16.5t-54.5 17.5q-42 0 -58 -37z" />
    <glyph glyph-name="Adieresis" unicode="&#xc4;" horiz-adv-x="803" 
d="M766 0h-238v31l83 -1l-187 398h-128l-178 -397h86v-30h-199v30h72l272 615h-55q-51 -58 -108 -58q-16 0 -52.5 24.5t-55.5 21.5q-11 -1 -32 -17t-32 -33v20q18 63 88 74q27 4 65.5 -19t39.5 -23q17 -1 45 14q22 13 37 26h214l1 -30h-80l290 -616l52 1v-31zM412 458
q-18 44 -54 122q-17 -44 -52 -122h106zM420 757q0 19 13.5 33t32.5 14q20 0 33.5 -14t13.5 -33t-13.5 -33t-33.5 -14q-19 0 -32.5 14t-13.5 33zM260 757q0 19 13.5 33t32.5 14q20 0 33.5 -14t13.5 -33t-13.5 -33t-33.5 -14q-19 0 -32.5 14t-13.5 33z" />
    <glyph glyph-name="Aring" unicode="&#xc5;" horiz-adv-x="802" 
d="M766 0h-238v31l83 -1l-187 398h-128l-178 -397h86v-30h-199v30h72l272 615h-55q-51 -58 -108 -58q-16 0 -52.5 24.5t-55.5 21.5q-11 -1 -32 -17t-32 -33v20q18 63 88 74q27 4 65.5 -19t39.5 -23q17 -1 45 14q22 13 37 26h214l1 -30h-80l290 -616l52 1v-31zM412 458
q-18 44 -54 122q-17 -44 -52 -122h106z" />
    <glyph glyph-name="Ccedilla" unicode="&#xc7;" horiz-adv-x="547" 
d="M353 -243q-43 0 -82 15l11 26q33 -11 59 -11q61 0 61 44q0 20 -15.5 31.5t-35.5 11.5q-15 0 -34 -5l-4 2l35 80q-144 33 -232 107q-109 91 -109 229q0 146 126 260.5t293 119.5q1 2 1 4q0 5 -10 17.5t-13 19.5q22 5 22 10l130 -209l-23 -11q-61 123 -151 123
q-93 0 -171 -67t-100 -159q-7 -29 -7 -99q0 -165 110 -250q97 -76 263 -79q21 -1 54 6q47 9 55 10v-33q0 2 -5 2q-6 0 -51.5 -10t-62.5 -9q-46 3 -93 12l-17 -45q24 4 34 4q34 0 56.5 -16.5t22.5 -48.5q0 -41 -38 -64q-32 -18 -79 -18z" />
    <glyph glyph-name="Eacute" unicode="&#xc9;" horiz-adv-x="635" 
d="M659 160l-124 -223l-20 9q22 37 22 49q0 5 -4 5h-519v31l61 1l-1 613l-67 -1v34h441q-6 15 -17 41q2 0 9.5 6t10.5 6l87 -181l-17 -5q-34 45 -51 62q-42 40 -83 38l-222 -1q-2 -34 0 -116l276 1q2 2 2 4q0 1 -17 40q3 0 9.5 5.5t9.5 5.5l99 -182l-14 -14q-22 28 -45 55
q-53 55 -95 53l-225 -2v-463h262q23 0 87 32q55 27 72 40q12 11 27 32q23 31 25 34q5 0 21 -9zM183 715q70 59 148 121q5 2 10 2q13 0 23.5 -14t10.5 -31q0 -9 -3 -16l-185 -68z" />
    <glyph glyph-name="Ntilde" unicode="&#xd1;" horiz-adv-x="706" 
d="M652 647h-65v-613q6 -4 17 -4q5 0 17 1.5t18 1.5q7 0 13 -2v-31h-198v30h93v128l-426 432v-559h85v-31h-191v31h69v616q-45 2 -72 0v31h151l388 -382l-1 350h-81v32h183v-31zM203 729q17 71 82 71q25 0 59 -17.5t54 -17.5q14 0 26 10t23 20l10 -11q-13 -18 -26 -35.5
t-40 -18.5q-25 -1 -60.5 16.5t-54.5 17.5q-42 0 -58 -37z" />
    <glyph glyph-name="Odieresis" unicode="&#xd6;" horiz-adv-x="668" 
d="M614 330q0 -133 -73 -230q-82 -110 -216 -110q-152 0 -238 108q-73 92 -79 232q-5 136 65 239q81 117 224 117q144 0 236 -122q81 -106 81 -234zM550 250q0 29 -12.5 83.5t-24.5 80.5q-44 94 -117 161q-78 71 -148 71q-88 0 -140 -79q-42 -63 -42 -136q0 -124 78 -246
q94 -148 236 -148q82 0 130 70q40 61 40 143zM320 757q0 19 13.5 33t32.5 14q20 0 33.5 -14t13.5 -33t-13.5 -33t-33.5 -14q-19 0 -32.5 14t-13.5 33zM160 757q0 19 13.5 33t32.5 14q20 0 33.5 -14t13.5 -33t-13.5 -33t-33.5 -14q-19 0 -32.5 14t-13.5 33z" />
    <glyph glyph-name="Udieresis" unicode="&#xdc;" horiz-adv-x="642" 
d="M591 1h-188q-20 -1 -38 0q-149 6 -258 142q-96 119 -96 235q0 52 29 122q34 82 83 112q3 7 3 12q0 21 -40 23q-33 0 -67 -1q-5 6 -3 32h203q-75 -71 -98 -134q-15 -40 -15 -113q0 -140 63 -257q80 -145 219 -144h39v617q-6 3 -28 0t-34 0l1 32h225l-1 -33h-77
q-1 -44 -1 -617h79v-28zM330 757q0 19 13.5 33t32.5 14q20 0 33.5 -14t13.5 -33t-13.5 -33t-33.5 -14q-19 0 -32.5 14t-13.5 33zM170 757q0 19 13.5 33t32.5 14q20 0 33.5 -14t13.5 -33t-13.5 -33t-33.5 -14q-19 0 -32.5 14t-13.5 33z" />
    <glyph glyph-name="aacute" unicode="&#xe1;" horiz-adv-x="485" 
d="M455 1h-137v32q-25 -11 -51 -21q-57 -19 -105 -18q-158 4 -158 125q0 95 118 179q52 37 196 106q-7 49 -39 65q-15 7 -49 7q-40 0 -96 -37q-64 -42 -91 -99q-4 8 -15 8l87 182q11 -4 20 -9q-6 -10 -14 -30q44 14 101 14q58 0 109 -27q67 -34 67 -97v-350q10 -3 27 -1
q19 2 30 1v-30zM317 66l1 311l-19 -10q-83 -43 -138 -96q-70 -66 -70 -126q0 -53 35.5 -84.5t89.5 -31.5q21 0 58 13t43 24zM133 565q70 59 148 121q5 2 10 2q13 0 23.5 -14t10.5 -31q0 -9 -3 -16l-185 -68z" />
    <glyph glyph-name="agrave" unicode="&#xe0;" horiz-adv-x="486" 
d="M455 1h-137v32q-25 -11 -51 -21q-57 -19 -105 -18q-158 4 -158 125q0 95 118 179q52 37 196 106q-7 49 -39 65q-15 7 -49 7q-40 0 -96 -37q-64 -42 -91 -99q-4 8 -15 8l100 209q11 -4 18 -14q-12 -21 -25 -52q44 14 101 14q58 0 109 -27q67 -34 67 -97v-350q10 -3 27 -1
q19 2 30 1v-30zM317 66l1 311l-19 -10q-83 -43 -138 -96q-70 -66 -70 -126q0 -53 35.5 -84.5t89.5 -31.5q21 0 58 13t43 24zM308 545q-71 59 -149 121q-5 2 -9 2q-14 0 -24.5 -14t-10.5 -31q0 -9 4 -16l184 -68z" />
    <glyph glyph-name="acircumflex" unicode="&#xe2;" horiz-adv-x="484" 
d="M455 1h-137v32q-25 -11 -51 -21q-57 -19 -105 -18q-158 4 -158 125q0 95 118 179q52 37 196 106q-7 49 -39 65q-15 7 -49 7q-40 0 -96 -37q-64 -42 -91 -99q-4 8 -15 8l100 209q11 -4 18 -14q-12 -21 -25 -52q44 14 101 14q58 0 109 -27q67 -34 67 -97v-350q10 -3 27 -1
q19 2 30 1v-30zM317 66l1 311l-19 -10q-83 -43 -138 -96q-70 -66 -70 -126q0 -53 35.5 -84.5t89.5 -31.5q21 0 58 13t43 24zM95 583l-2 4l124 92l122 -95l-2 -5l-120 50z" />
    <glyph glyph-name="adieresis" unicode="&#xe4;" horiz-adv-x="484" 
d="M455 1h-137v32q-25 -11 -51 -21q-57 -19 -105 -18q-158 4 -158 125q0 95 118 179q52 37 196 106q-7 49 -39 65q-15 7 -49 7q-40 0 -96 -37q-64 -42 -91 -99q-4 8 -15 8l100 209q11 -4 18 -14q-12 -21 -25 -52q44 14 101 14q58 0 109 -27q67 -34 67 -97v-350q10 -3 27 -1
q19 2 30 1v-30zM317 66l1 311l-19 -10q-83 -43 -138 -96q-70 -66 -70 -126q0 -53 35.5 -84.5t89.5 -31.5q21 0 58 13t43 24zM250 617q0 19 13.5 33t32.5 14q20 0 33.5 -14t13.5 -33t-13.5 -33t-33.5 -14q-19 0 -32.5 14t-13.5 33zM90 617q0 19 13.5 33t32.5 14
q20 0 33.5 -14t13.5 -33t-13.5 -33t-33.5 -14q-19 0 -32.5 14t-13.5 33z" />
    <glyph glyph-name="atilde" unicode="&#xe3;" horiz-adv-x="484" 
d="M455 1h-137v32q-25 -11 -51 -21q-57 -19 -105 -18q-158 4 -158 125q0 95 118 179q52 37 196 106q-7 49 -39 65q-15 7 -49 7q-40 0 -96 -37q-64 -42 -91 -99q-4 8 -15 8l100 209q11 -4 18 -14q-12 -21 -25 -52q44 14 101 14q58 0 109 -27q67 -34 67 -97v-350q10 -3 27 -1
q19 2 30 1v-30zM317 66l1 311l-19 -10q-83 -43 -138 -96q-70 -66 -70 -126q0 -53 35.5 -84.5t89.5 -31.5q21 0 58 13t43 24zM123 579q17 71 82 71q25 0 59 -17.5t54 -17.5q14 0 26 10t23 20l10 -11q-13 -18 -26 -35.5t-40 -18.5q-25 -1 -60.5 16.5t-54.5 17.5q-42 0 -58 -37
z" />
    <glyph glyph-name="aring" unicode="&#xe5;" horiz-adv-x="492" 
d="M455 1h-137v32q-25 -11 -51 -21q-57 -19 -105 -18q-158 4 -158 125q0 95 118 179q52 37 196 106q-7 49 -39 65q-15 7 -49 7q-40 0 -96 -37q-64 -42 -91 -99q-4 8 -15 8l100 209q11 -4 18 -14q-12 -21 -25 -52q44 14 101 14q58 0 109 -27q67 -34 67 -97v-350q10 -3 27 -1
q19 2 30 1v-30zM317 66l1 311l-19 -10q-83 -43 -138 -96q-70 -66 -70 -126q0 -53 35.5 -84.5t89.5 -31.5q21 0 58 13t43 24z" />
    <glyph glyph-name="ccedilla" unicode="&#xe7;" horiz-adv-x="429" 
d="M408 1q-33 -13 -90 -13q-29 0 -58 5l-18 -47q20 3 29 3q67 0 67 -54q0 -36 -32 -55q-28 -16 -67 -16q-37 0 -70 13l9 23q28 -10 50 -10q52 0 52 38q0 36 -43 36q-13 0 -29 -4l-3 2l33 76q-97 23 -160 89q-70 72 -70 168q0 106 78.5 179.5t204.5 76.5q1 1 1 2t-4 7.5
t-4 13.5l-7 15l20 8l77 -182l-12 -6q-24 31 -33 47q-14 28 -53 43q-29 11 -56 11q-69 0 -102 -68q-23 -49 -23 -112q0 -100 56 -182q67 -97 176 -97q39 0 74 12q0 -3 3.5 -11t3.5 -11z" />
    <glyph glyph-name="eacute" unicode="&#xe9;" horiz-adv-x="449" 
d="M434 460l-319 -303q49 -136 194 -136q50 0 90 24l9 -25q-41 -28 -125 -28q-108 0 -191 73q-87 76 -87 183q0 104 60 179q65 80 167 80q75 0 147 -68q21 25 41 35zM289 405q0 26 -21.5 53.5t-48.5 27.5q-62 0 -98 -80q-29 -64 -29 -135q0 -35 12 -80l112 96q73 67 73 118z
M143 545q70 59 148 121q5 2 10 2q13 0 23.5 -14t10.5 -31q0 -9 -3 -16l-185 -68z" />
    <glyph glyph-name="egrave" unicode="&#xe8;" horiz-adv-x="447" 
d="M434 460l-319 -303q49 -136 194 -136q50 0 90 24l9 -25q-41 -28 -125 -28q-108 0 -191 73q-87 76 -87 183q0 104 60 179q65 80 167 80q75 0 147 -68q21 25 41 35zM289 405q0 26 -21.5 53.5t-48.5 27.5q-62 0 -98 -80q-29 -64 -29 -135q0 -35 12 -80l112 96q73 67 73 118z
M308 545q-71 59 -149 121q-5 2 -9 2q-14 0 -24.5 -14t-10.5 -31q0 -9 4 -16l184 -68z" />
    <glyph glyph-name="ecircumflex" unicode="&#xea;" horiz-adv-x="449" 
d="M434 460l-319 -303q49 -136 194 -136q50 0 90 24l9 -25q-41 -28 -125 -28q-108 0 -191 73q-87 76 -87 183q0 104 60 179q65 80 167 80q75 0 147 -68q21 25 41 35zM289 405q0 26 -21.5 53.5t-48.5 27.5q-62 0 -98 -80q-29 -64 -29 -135q0 -35 12 -80l112 96q73 67 73 118z
M105 543l-2 4l124 92l122 -95l-2 -5l-120 50z" />
    <glyph glyph-name="edieresis" unicode="&#xeb;" horiz-adv-x="449" 
d="M434 460l-319 -303q49 -136 194 -136q50 0 90 24l9 -25q-41 -28 -125 -28q-108 0 -191 73q-87 76 -87 183q0 104 60 179q65 80 167 80q75 0 147 -68q21 25 41 35zM289 405q0 26 -21.5 53.5t-48.5 27.5q-62 0 -98 -80q-29 -64 -29 -135q0 -35 12 -80l112 96q73 67 73 118z
M260 597q0 19 13.5 33t32.5 14q20 0 33.5 -14t13.5 -33t-13.5 -33t-33.5 -14q-19 0 -32.5 14t-13.5 33zM100 597q0 19 13.5 33t32.5 14q20 0 33.5 -14t13.5 -33t-13.5 -33t-33.5 -14q-19 0 -32.5 14t-13.5 33z" />
    <glyph glyph-name="iacute" unicode="&#xed;" horiz-adv-x="254" 
d="M219 29v-29l-195 1l-1 28h63v368l-11 5l-58 -29l-7 15l184 115l8 -14q-9 -8 -17 -16q-23 -29 -23 -57l-1 -387h58zM3 545q70 59 148 121q5 2 10 2q13 0 23.5 -14t10.5 -31q0 -9 -3 -16l-185 -68z" />
    <glyph glyph-name="igrave" unicode="&#xec;" horiz-adv-x="254" 
d="M219 29v-29l-195 1l-1 28h63v368l-11 5l-58 -29l-7 15l184 115l8 -14q-9 -8 -17 -16q-23 -29 -23 -57l-1 -387h58zM198 545q-71 59 -149 121q-5 2 -9 2q-14 0 -24.5 -14t-10.5 -31q0 -9 4 -16l184 -68z" />
    <glyph glyph-name="icircumflex" unicode="&#xee;" horiz-adv-x="279" 
d="M219 29v-29l-195 1l-1 28h63v368l-11 5l-58 -29l-7 15l184 115l8 -14q-9 -8 -17 -16q-23 -29 -23 -57l-1 -387h58zM-5 543l-2 4l124 92l122 -95l-2 -5l-120 50z" />
    <glyph glyph-name="idieresis" unicode="&#xef;" horiz-adv-x="279" 
d="M219 29v-29l-195 1l-1 28h63v368l-11 5l-58 -29l-7 15l184 115l8 -14q-9 -8 -17 -16q-23 -29 -23 -57l-1 -387h58zM160 597q0 19 13.5 33t32.5 14q20 0 33.5 -14t13.5 -33t-13.5 -33t-33.5 -14q-19 0 -32.5 14t-13.5 33zM0 597q0 19 13.5 33t32.5 14q20 0 33.5 -14
t13.5 -33t-13.5 -33t-33.5 -14q-19 0 -32.5 14t-13.5 33z" />
    <glyph glyph-name="ntilde" unicode="&#xf1;" horiz-adv-x="472" 
d="M431 0h-171v30l43 1v349q0 71 -62 71q-46 0 -96 -65v-356h55v-30h-178l1 28h49v395l-51 -32l-10 19q58 41 177 117l14 -17l-62 -47v-35q66 73 133 73q33 0 70 -26q39 -29 39 -60v-385l49 1v-31zM73 559q17 71 82 71q25 0 59 -17.5t54 -17.5q14 0 26 10t23 20l10 -11
q-13 -18 -26 -35.5t-40 -18.5q-25 -1 -60.5 16.5t-54.5 17.5q-42 0 -58 -37z" />
    <glyph glyph-name="oacute" unicode="&#xf3;" horiz-adv-x="481" 
d="M424 271q0 -96 -49 -179q-61 -103 -165 -99q-14 1 -43 8q-36 10 -53 22q-47 33 -77 104q-28 65 -30 128q-2 96 47 170q58 86 158 86q32 0 67 -10q77 -23 116 -107q29 -61 29 -123zM365 200q0 66 -43 155q-57 119 -148 119q-52 0 -85 -52q-28 -45 -27 -104q2 -82 49 -172
q59 -111 144 -111q49 0 82 60q28 50 28 105zM123 545q70 59 148 121q5 2 10 2q13 0 23.5 -14t10.5 -31q0 -9 -3 -16l-185 -68z" />
    <glyph glyph-name="ograve" unicode="&#xf2;" horiz-adv-x="481" 
d="M424 271q0 -96 -49 -179q-61 -103 -165 -99q-14 1 -43 8q-36 10 -53 22q-47 33 -77 104q-28 65 -30 128q-2 96 47 170q58 86 158 86q32 0 67 -10q77 -23 116 -107q29 -61 29 -123zM365 200q0 66 -43 155q-57 119 -148 119q-52 0 -85 -52q-28 -45 -27 -104q2 -82 49 -172
q59 -111 144 -111q49 0 82 60q28 50 28 105zM298 545q-71 59 -149 121q-5 2 -9 2q-14 0 -24.5 -14t-10.5 -31q0 -9 4 -16l184 -68z" />
    <glyph glyph-name="ocircumflex" unicode="&#xf4;" horiz-adv-x="479" 
d="M424 271q0 -96 -49 -179q-61 -103 -165 -99q-14 1 -43 8q-36 10 -53 22q-47 33 -77 104q-28 65 -30 128q-2 96 47 170q58 86 158 86q32 0 67 -10q77 -23 116 -107q29 -61 29 -123zM365 200q0 66 -43 155q-57 119 -148 119q-52 0 -85 -52q-28 -45 -27 -104q2 -82 49 -172
q59 -111 144 -111q49 0 82 60q28 50 28 105zM95 543l-2 4l124 92l122 -95l-2 -5l-120 50z" />
    <glyph glyph-name="odieresis" unicode="&#xf6;" horiz-adv-x="481" 
d="M424 271q0 -96 -49 -179q-61 -103 -165 -99q-14 1 -43 8q-36 10 -53 22q-47 33 -77 104q-28 65 -30 128q-2 96 47 170q58 86 158 86q32 0 67 -10q77 -23 116 -107q29 -61 29 -123zM365 200q0 66 -43 155q-57 119 -148 119q-52 0 -85 -52q-28 -45 -27 -104q2 -82 49 -172
q59 -111 144 -111q49 0 82 60q28 50 28 105zM250 597q0 19 13.5 33t32.5 14q20 0 33.5 -14t13.5 -33t-13.5 -33t-33.5 -14q-19 0 -32.5 14t-13.5 33zM90 597q0 19 13.5 33t32.5 14q20 0 33.5 -14t13.5 -33t-13.5 -33t-33.5 -14q-19 0 -32.5 14t-13.5 33z" />
    <glyph glyph-name="otilde" unicode="&#xf5;" horiz-adv-x="481" 
d="M424 271q0 -96 -49 -179q-61 -103 -165 -99q-14 1 -43 8q-36 10 -53 22q-47 33 -77 104q-28 65 -30 128q-2 96 47 170q58 86 158 86q32 0 67 -10q77 -23 116 -107q29 -61 29 -123zM365 200q0 66 -43 155q-57 119 -148 119q-52 0 -85 -52q-28 -45 -27 -104q2 -82 49 -172
q59 -111 144 -111q49 0 82 60q28 50 28 105zM83 549q17 71 82 71q25 0 59 -17.5t54 -17.5q14 0 26 10t23 20l10 -11q-13 -18 -26 -35.5t-40 -18.5q-25 -1 -60.5 16.5t-54.5 17.5q-42 0 -58 -37z" />
    <glyph glyph-name="uacute" unicode="&#xfa;" horiz-adv-x="450" 
d="M390 32v-31h-183q-69 0 -135 84q-59 75 -62 133q-6 147 99 246q-26 -3 -77 -1v32q41 0 150 -1l-3 -31q-4 1 -17 1q-33 0 -54 -70q-16 -55 -16 -102q0 -76 27 -152q38 -110 113 -110h26l1 365q0 22 -5 40q-8 33 -29 53q10 16 16 14q41 -38 151 -150l-10 -20l-41 33v-332z
M103 545q70 59 148 121q5 2 10 2q13 0 23.5 -14t10.5 -31q0 -9 -3 -16l-185 -68z" />
    <glyph glyph-name="ugrave" unicode="&#xf9;" horiz-adv-x="448" 
d="M390 32v-31h-183q-69 0 -135 84q-59 75 -62 133q-6 147 99 246q-26 -3 -77 -1v32q41 0 147 1v-33q-4 1 -17 1q-33 0 -54 -70q-16 -55 -16 -102q0 -76 27 -152q38 -110 113 -110h26l1 365q0 22 -5 40q-8 33 -29 53q10 16 16 14q41 -38 151 -150l-10 -20l-41 33v-332z
M288 545q-71 59 -149 121q-5 2 -9 2q-14 0 -24.5 -14t-10.5 -31q0 -9 4 -16l184 -68z" />
    <glyph glyph-name="ucircumflex" unicode="&#xfb;" horiz-adv-x="450" 
d="M390 32v-31h-183q-69 0 -135 84q-59 75 -62 133q-6 147 99 246q-26 -3 -77 -1v32q41 0 147 1v-33q-4 1 -17 1q-33 0 -54 -70q-16 -55 -16 -102q0 -76 27 -152q38 -110 113 -110h26l1 365q0 22 -5 40q-8 33 -29 53q10 16 16 14q41 -38 151 -150l-10 -20l-41 33v-332z
M75 543l-2 4l124 92l122 -95l-2 -5l-120 50z" />
    <glyph glyph-name="udieresis" unicode="&#xfc;" horiz-adv-x="451" 
d="M390 32v-31h-183q-69 0 -135 84q-59 75 -62 133q-6 147 99 246q-26 -3 -77 -1v32q41 0 147 1v-33q-4 1 -17 1q-33 0 -54 -70q-16 -55 -16 -102q0 -76 27 -152q38 -110 113 -110h26l1 365q0 22 -5 40q-8 33 -29 53q10 16 16 14q41 -38 151 -150l-10 -20l-41 33v-332z
M230 597q0 19 13.5 33t32.5 14q20 0 33.5 -14t13.5 -33t-13.5 -33t-33.5 -14q-19 0 -32.5 14t-13.5 33zM70 597q0 19 13.5 33t32.5 14q20 0 33.5 -14t13.5 -33t-13.5 -33t-33.5 -14q-19 0 -32.5 14t-13.5 33z" />
    <glyph glyph-name="dagger" unicode="&#x2020;" horiz-adv-x="466" 
d="M405 414q-24 0 -63.5 19t-59.5 19l-18 -1q8 -59 64 -105q-60 -102 -67 -350h-18q-10 247 -70 349q57 41 64 106l-16 1q-23 1 -63.5 -18t-62.5 -19t-39.5 14.5t-17.5 37.5q0 21 16.5 36t38.5 15q23 0 67.5 -20.5t76.5 -20.5q-2 29 -24 82q-22 50 -22 79q0 27 17 46t42 19
q28 0 44 -20.5t16 -48.5q0 -29 -21 -79q-23 -53 -25 -82q20 3 73 25q45 19 70 19q23 0 39.5 -14.5t16.5 -37.5q0 -24 -16.5 -37.5t-41.5 -13.5z" />
    <glyph glyph-name="degree" unicode="&#xb0;" horiz-adv-x="210" 
d="M103 688q36 0 61.5 -25t25.5 -60t-25.5 -59.5t-61.5 -24.5t-62 24.5t-26 59.5t26 60t62 25zM103 663q-26 0 -44.5 -17.5t-18.5 -42.5q0 -24 18.5 -41.5t44.5 -17.5t44 17.5t18 41.5q0 25 -18 42.5t-44 17.5z" />
    <glyph glyph-name="cent" unicode="&#xa2;" horiz-adv-x="291" 
d="M244 251q-9 -21 -37 -21q-41 0 -61 8v-101h-20l1 51q0 31 -1 54q-48 15 -78 64q-29 45 -29 97q0 48 26 81.5t72 41.5v105l19 1q0 -20 1 -39q2 -47 2 -65q18 0 20 -2q7 -9 8 -9q5 5 15 36q22 -55 47 -98l-7 -6q-17 17 -35 34q-22 20 -43 20q-30 0 -51 -36q-18 -32 -18 -65
q0 -69 39.5 -111t105.5 -42q12 0 24 2z" />
    <glyph glyph-name="sterling" unicode="&#xa3;" horiz-adv-x="558" 
d="M572 142q0 -48 -56 -98q-48 -43 -84 -51q-32 -7 -49 -7q-40 0 -108 34t-73 34q-2 0 -57 -33t-103 -33q-46 0 -46 39q0 9 12 25t22 22q38 21 88 24q44 0 88 1q8 11 19 35q12 28 12 46q0 40 -97 138h-110l-1 31h96q1 2 -28 60q-32 65 -29 106q4 69 58.5 122.5t129.5 53.5
q55 0 98 -28q53 -33 53 -90q0 -10 -10.5 -40t-22.5 -49q-1 -6 19 -6q28 0 77 72q4 -5 14 -15q-22 -41 -62 -68q-37 -23 -67 -23q-27 0 -45 14t-18 35q0 15 30 41t30 52q0 43 -39 64q-26 14 -54 14q-47 0 -81 -23q-39 -26 -39 -74q0 -40 28.5 -103.5t68.5 -114.5h154v-31
h-136q33 -61 33 -91q0 -73 -50 -127q0 -3 7.5 -5t9.5 -3q21 -4 78 -18q49 -11 56 -11q115 0 172 90q12 1 12 -11zM173 69q-21 7 -54 7q-49 0 -95 -34q-4 -12 -4 -19q0 -9 9 -12q5 -1 27 -1q17 0 61.5 22.5t55.5 36.5z" />
    <glyph glyph-name="section" unicode="&#xa7;" horiz-adv-x="393" 
 />
    <glyph glyph-name="bullet" unicode="&#x2022;" horiz-adv-x="523" 
d="M456 330q0 -67 -48.5 -116t-116.5 -49t-116.5 48.5t-48.5 116.5t48.5 116.5t116.5 48.5t116.5 -48.5t48.5 -116.5z" />
    <glyph glyph-name="paragraph" unicode="&#xb6;" horiz-adv-x="431" 
d="M18 462q0 -82 59 -134q56 -49 140 -49l1 -146v-68q1 -39 1 -54q0 -73 -14 -92.5t-69 -19.5q10 16 10 27q0 18 -13 30t-31 12q-17 0 -29.5 -11.5t-12.5 -29.5q0 -58 99 -58q31 0 57 14q21 12 42 25v737q-110 -3 -166 -35q-74 -44 -74 -148zM305 640h115v-18q-13 0 -34 -23
q-24 -25 -26 -50q-4 -39 0 -380q1 -139 -4.5 -162t-50.5 -72v705z" />
    <glyph glyph-name="germandbls" unicode="&#xdf;" horiz-adv-x="446" 
d="M384 549q-1 -36 -34 -58q-30 -17 -61 -34q-32 -20 -31 -50q1 -31 41 -72q62 -64 73 -80q39 -55 39 -120t-42 -109.5t-104 -44.5q-42 0 -75 30q-14 20 -14 43q0 17 9 31q8 10 20 10q23 0 23 -26q0 -5 -2 -16.5t-2 -17.5q0 -28 45 -28q32 0 55 26.5t23 59.5q0 49 -37 105
l-68 92q-36 51 -35 90q0 37 31 64q29 20 57 41q31 26 31 62q0 45 -33 82t-76 37q-34 0 -61 -37q-25 -33 -25 -63l1 -420q0 -112 -25 -211q-32 -124 -94 -181q6 27 19 84q5 21 19 133v493l-49 1l-2 29h51q3 57 20 98q42 98 149 99q51 4 102 -29q62 -42 62 -113z" />
    <glyph glyph-name="registered" unicode="&#xae;" horiz-adv-x="367" 
d="M172 383q-62 0 -106 45t-44 108q0 62 44 106t106 44t104.5 -44.5t42.5 -107.5t-42.5 -107t-104.5 -44zM172 406q51 0 88 37.5t37 90.5t-37 90.5t-88 37.5q-54 1 -90 -36t-36 -92q0 -53 37.5 -90.5t88.5 -37.5zM186 534l47 -72h-26l-47 72h-26v-72h-22v157h68q-6 0 -5 1h7
q52 0 52 -40q0 -44 -48 -46zM136 557h45q30 0 30 23q0 17 -34 17h-41v-40z" />
    <glyph glyph-name="copyright" unicode="&#xa9;" horiz-adv-x="762" 
d="M366 -6q-143 0 -242.5 100t-99.5 244q0 145 99.5 245t242.5 100t243 -100t100 -245q0 -144 -100 -244t-243 -100zM366 640q-122 0 -211 -88t-89 -214q0 -125 89 -213t211 -88t211 88t89 213q0 126 -89 214t-211 88zM375 144q-86 0 -136.5 55t-50.5 142q0 83 52 139.5
t136 56.5q59 0 103 -34t54 -91h-45q-22 81 -112 81q-67 0 -106 -44t-39 -110q0 -60 34 -103q40 -49 109 -49q94 0 115 79h43q-13 -57 -55.5 -89.5t-101.5 -32.5z" />
    <glyph glyph-name="trademark" unicode="&#x2122;" horiz-adv-x="472" 
d="M401 646v-196h-27v167h-2l-66 -167h-17l-65 167v0v-167h-28v196h46l56 -141l57 141h46zM159 646v-29h-64v-167h-28v167h-65v29h157z" />
    <glyph glyph-name="acute" unicode="&#xb4;" horiz-adv-x="191" 
d="M-1 539q71 59 149 121q5 2 9 2q14 0 24 -14.5t10 -30.5q0 -9 -3 -16l-185 -68z" />
    <glyph glyph-name="dieresis" unicode="&#xa8;" horiz-adv-x="292" 
d="M180 592q0 20 13.5 33.5t33.5 13.5q19 0 32.5 -13.5t13.5 -33.5q0 -19 -13.5 -32.5t-32.5 -13.5q-20 0 -33.5 13.5t-13.5 32.5zM20 592q0 20 13.5 33.5t33.5 13.5q19 0 32.5 -13.5t13.5 -33.5q0 -19 -13.5 -32.5t-32.5 -13.5q-20 0 -33.5 13.5t-13.5 32.5z" />
    <glyph glyph-name="AE" unicode="&#xc6;" horiz-adv-x="1122" 
d="M652 0h-178v1h-10v31h55q0 209 -2 396l-141 1l-267 -398h86l-1 -30h-199l1 30h72l422 613l-20 8q-20 -18 -40 -35q-39 -29 -74 -29q-15 0 -40 24.5t-46 21.5q-25 -3 -72 -45l-6 15q52 67 114 76q28 4 60.5 -20.5t33.5 -24.5q17 0 35.5 19t31.5 22l31 4l400 -1
q-6 15 -17 40q3 0 10.5 6.5t9.5 6.5l88 -181l-17 -6q-75 101 -135 101l-134 1l-1 -1l-86 -1v-183h272q1 1 1 5q0 9 -15 45q2 0 10 3t11 3l100 -182l-14 -14l-46 56q-53 55 -95 54l-224 -1l-1 -399h262q24 0 88 32q54 27 71 40q13 10 28 32q22 31 24 34q5 0 21 -9l-123 -223
l-20 9q21 37 21 49q0 5 -4 5h-330zM520 458q1 24 -1 166q-20 -20 -64 -85t-62 -82z" />
    <glyph glyph-name="Oslash" unicode="&#xd8;" horiz-adv-x="666" 
d="M154 169l138 180q47 62 143 186q-97 111 -187 111q-88 0 -140 -79q-42 -63 -42 -136q0 -56 22 -125q24 -76 66 -137zM458 506q-75 -100 -282 -366q87 -103 204 -103q82 0 130 70q40 61 40 143q0 29 -12.5 83.5t-24.5 80.5q-22 48 -55 92zM578 669l-1 -2l-1 -2l-5 -6
q-26 -36 -54 -75q97 -110 97 -254q0 -133 -73 -230q-82 -110 -216 -110q-125 0 -207 75l-58 -75l-28 21l61 80q-79 93 -85 239q-5 136 65 239q81 117 224 117q111 0 195 -76q27 37 51 70l4 5q19 -1 16 -8q19 -1 15 -8z" />
    <glyph glyph-name="plusminus" unicode="&#xb1;" horiz-adv-x="9" 
 />
    <glyph glyph-name="yen" unicode="&#xa5;" horiz-adv-x="567" 
d="M251 209zM251 164zM337 164zM337 209zM251 309zM251 264zM337 264zM337 309zM134 309h117v37l-171 300h-76l-1 33l238 -1l1 -32h-54l129 -250l122 250h-58v32h173v-32h-75l-142 -299v-38h118v-45h-118v-55h118v-45h-118l-1 -131h82v-31h-237v31h71l-1 131h-117v45h117v55
h-117v45z" />
    <glyph glyph-name="mu" unicode="&#xb5;" horiz-adv-x="573" 
d="M12 235l67 79v331h-69v32h244v-32l-81 1v-222l63 75v-53l-63 -74v-340h155q83 0 151 51q52 39 109 121l20 -10l-140 -268l-24 12q11 16 30 62h-469v32l73 -1l1 232q-64 -73 -67 -75v47z" />
    <glyph glyph-name="mu" unicode="&#x3bc;" horiz-adv-x="573" 
d="M12 235l67 79v331h-69v32h244v-32l-81 1v-222l63 75v-53l-63 -74v-340h155q83 0 151 51q52 39 109 121l20 -10l-140 -268l-24 12q11 16 30 62h-469v32l73 -1l1 232q-64 -73 -67 -75v47z" />
    <glyph glyph-name="ordfeminine" unicode="&#xaa;" horiz-adv-x="618" 
d="M634 248l-135 -313l-24 11q6 17 26 55h-490q0 84 3 106q17 137 87 232q53 72 167 153q207 150 213 154h-251q-121 0 -186 -117l-16 8l71 194h22q-6 -21 -18 -53q35 3 455 0q-152 -114 -303 -302q-156 -194 -213 -346h297q123 0 205 106q15 19 72 121q13 -9 18 -9z
M424 809l-122 -97l-121 100l121 -50z" />
    <glyph glyph-name="ordmasculine" unicode="&#xba;" horiz-adv-x="396" 
d="M376 154q-38 -106 -81 -194h-19q0 -9 10 41l-278 -1l2 59q5 144 77 242q60 84 192 161q-12 5 -65 5q-67 0 -95 -11q-46 -18 -108 -88l-10 5q0 9 34 70q17 30 45 94q17 8 17 -3q-8 -17 -18 -39h281q-110 -94 -197 -236q-51 -84 -116 -228q7 0 45 -1t43 -1q90 0 137 26
q51 29 86 108zM314 629l-122 -97l-121 100l121 -50z" />
    <glyph glyph-name="ae" unicode="&#xe6;" horiz-adv-x="779" 
d="M599 405q0 26 -21.5 53.5t-48.5 27.5q-62 0 -98 -80q-29 -64 -29 -135q0 -35 12 -80l112 96q73 67 73 118zM398 -1l-80 2v32q-25 -11 -51 -21q-57 -19 -105 -18q-158 4 -158 125q0 95 118 179q52 37 196 106q-7 49 -39 65q-15 7 -49 7q-40 0 -96 -37q-64 -42 -91 -99
q-4 8 -15 8l100 209q11 -4 18 -14q-12 -21 -25 -52q44 14 101 14q113 0 157 -73q64 75 163 75q75 0 147 -68q21 25 41 35l14 -14l-319 -303q49 -136 194 -136q50 0 90 24l9 -25q-41 -28 -125 -28q-111 0 -195 76v-69zM317 66l1 311l-19 -10q-82 -40 -139 -95
q-69 -67 -69 -127q0 -53 35.5 -84.5t89.5 -31.5q21 0 58 13t43 24z" />
    <glyph glyph-name="oslash" unicode="&#xf8;" horiz-adv-x="482" 
d="M318 364l-185 -253q53 -76 122 -76q49 0 82 60q28 50 28 105q0 73 -47 164zM115 139l186 253q-52 82 -127 82q-52 0 -85 -52q-28 -45 -27 -104q2 -87 53 -179zM24 14l43 58q-57 82 -60 183q-2 96 47 170q58 86 158 86q32 0 67 -10q40 -12 71 -42l32 44l24 -18l-36 -49
q54 -72 54 -165q0 -96 -49 -179q-61 -103 -165 -99q-14 1 -43 8q-36 10 -51.5 21t-29.5 26l-38 -52z" />
    <glyph glyph-name="questiondown" unicode="&#xbf;" horiz-adv-x="371" 
d="M8 -46q0 55 51 114l96 98q52 58 52 108q0 39 -22 39q-11 0 -29 -12v25q-1 24 27 24q27 0 39 -36q8 -21 8 -40q0 -45 -67.5 -155t-67.5 -175q0 -37 17 -65q21 -37 62 -37q27 0 56.5 17.5t29.5 40.5q0 7 -25 45t-25 45q0 17 18 29q14 10 24 10q22 0 45 -10q27 -10 36 -26
q-5 0 -7 -16l-2 4l-35 29q-24 4 -24 -23q0 -6 14 -38t14 -38q0 -45 -51 -71q-38 -20 -75 -20q-59 0 -106 34q-53 39 -53 100zM134 445q0 58 55 58q26 0 40 -24q10 -18 9 -37q-4 -55 -52 -55q-52 0 -52 58z" />
    <glyph glyph-name="exclamdown" unicode="&#xa1;" horiz-adv-x="219" 
d="M32 -100q0 75 37 195t37 189q0 33 -5 66q1 2 2 3q2 -2 5 -3q1 1 1 3q18 -28 33 -74q16 -50 16 -86q0 -6 -19 -140.5t-19 -141.5q0 -17 10 -48q10 -27 17 -38h-114q3 13 1 40q-2 39 -2 35zM43 437q0 20 14.5 41.5t37.5 21.5q27 0 44 -23q14 -19 14 -37q0 -24 -18 -42
t-37 -18q-27 0 -43 23q-12 18 -12 34z" />
    <glyph glyph-name="logicalnot" unicode="&#xac;" horiz-adv-x="31" 
 />
    <glyph glyph-name="florin" unicode="&#x192;" 
 />
    <glyph glyph-name="guillemotleft" unicode="&#xab;" horiz-adv-x="445" 
d="M368 47l-152 168l152 166l11 1l-93 -167l93 -168h-11zM227 47l-149 168l149 166l12 1l-91 -167l94 -168h-15z" />
    <glyph glyph-name="guillemotright" unicode="&#xbb;" horiz-adv-x="368" 
d="M69 47l151 168l-151 166l-12 1l94 -167l-94 -168h12zM210 47l148 168l-148 166l-13 1l91 -167l-94 -168h16z" />
    <glyph glyph-name="ellipsis" unicode="&#x2026;" horiz-adv-x="615" 
d="M540 62q0 -23 -17.5 -40.5t-39.5 -17.5q-25 0 -38.5 19t-13.5 44q0 21 10 39q14 24 39 24q28 0 46 -24q14 -20 14 -44zM340 62q0 -23 -17.5 -40.5t-39.5 -17.5q-25 0 -38.5 19t-13.5 44q0 21 10 39q14 24 39 24q28 0 46 -24q14 -20 14 -44zM140 62q0 -23 -17.5 -40.5
t-39.5 -17.5q-25 0 -38.5 19t-13.5 44q0 21 10 39q14 24 39 24q28 0 46 -24q14 -20 14 -44z" />
    <glyph glyph-name="nonbreakingspace" unicode="&#xa0;" 
 />
    <glyph glyph-name="Agrave" unicode="&#xc0;" horiz-adv-x="803" 
d="M766 0h-238v31l83 -1l-187 398h-128l-178 -397h86v-30h-199v30h72l272 615h-55q-51 -58 -108 -58q-16 0 -52.5 24.5t-55.5 21.5q-11 -1 -32 -17t-32 -33v20q18 63 88 74q27 4 65.5 -19t39.5 -23q17 -1 45 14q22 13 37 26h214l1 -30h-80l290 -616l52 1v-31zM412 458
q-18 44 -54 122q-17 -44 -52 -122h106zM488 715q-70 59 -148 121q-5 2 -10 2q-13 0 -23.5 -14t-10.5 -31q0 -9 3 -16l185 -68z" />
    <glyph glyph-name="Atilde" unicode="&#xc3;" horiz-adv-x="803" 
d="M766 0h-238v31l83 -1l-187 398h-128l-178 -397h86v-30h-199v30h72l272 615h-55q-51 -58 -108 -58q-16 0 -52.5 24.5t-55.5 21.5q-11 -1 -32 -17t-32 -33v20q18 63 88 74q27 4 65.5 -19t39.5 -23q17 -1 45 14q22 13 37 26h214l1 -30h-80l290 -616l52 1v-31zM412 458
q-18 44 -54 122q-17 -44 -52 -122h106zM263 729q17 71 82 71q25 0 59 -17.5t54 -17.5q14 0 26 10t23 20l10 -11q-13 -18 -26 -35.5t-40 -18.5q-25 -1 -60.5 16.5t-54.5 17.5q-42 0 -58 -37z" />
    <glyph glyph-name="Otilde" unicode="&#xd5;" horiz-adv-x="668" 
d="M614 330q0 -133 -73 -230q-82 -110 -216 -110q-152 0 -238 108q-73 92 -79 232q-5 136 65 239q81 117 224 117q144 0 236 -122q81 -106 81 -234zM550 250q0 29 -12.5 83.5t-24.5 80.5q-44 94 -117 161q-78 71 -148 71q-88 0 -140 -79q-42 -63 -42 -136q0 -124 78 -246
q94 -148 236 -148q82 0 130 70q40 61 40 143zM173 729q17 71 82 71q25 0 59 -17.5t54 -17.5q14 0 26 10t23 20l10 -11q-13 -18 -26 -35.5t-40 -18.5q-25 -1 -60.5 16.5t-54.5 17.5q-42 0 -58 -37z" />
    <glyph glyph-name="OE" unicode="&#x152;" horiz-adv-x="1138" 
d="M552 115q-83 -125 -227 -125q-152 0 -238 108q-73 92 -79 232q-5 136 65 239q81 117 224 117q161 0 255 -150v111h-69v32h441q-6 15 -17 40q3 0 10 6.5t10 6.5l88 -181l-18 -6q-74 101 -134 101l-222 1q-2 -35 0 -118h279q3 4 -6 20q-14 23 -15 25q3 0 11 5.5t11 5.5
l100 -182l-14 -14q-23 27 -45 54q-53 54 -95 54l-226 1v-466h262q24 0 87 32q55 27 72 40q12 10 28 32q22 31 24 34q5 0 21 -9l-123 -223l-21 9q22 37 22 49q0 5 -4 5h-509v31l51 1zM550 250q0 29 -12.5 83.5t-24.5 80.5q-44 94 -117 161q-78 71 -148 71q-88 0 -140 -79
q-42 -63 -42 -136q0 -124 78 -246q94 -148 236 -148q82 0 130 70q40 61 40 143z" />
    <glyph glyph-name="oe" unicode="&#x153;" horiz-adv-x="829" 
d="M649 405q0 26 -21.5 53.5t-48.5 27.5q-62 0 -98 -80q-29 -64 -29 -135q0 -35 12 -80l112 96q73 67 73 118zM396 133q-61 -145 -186 -140q-14 1 -43 8q-36 10 -53 22q-47 33 -77 104q-28 65 -30 128q-2 96 47 170q58 86 158 86q32 0 67 -10q80 -24 120 -114
q64 120 193 120q75 0 147 -68q21 25 41 35l14 -14l-319 -303q49 -136 194 -136q50 0 90 24l9 -25q-41 -28 -125 -28q-75 0 -143 39t-104 102zM365 200q0 66 -43 155q-57 119 -148 119q-52 0 -85 -52q-28 -45 -27 -104q2 -82 49 -172q59 -111 144 -111q49 0 82 60
q28 50 28 105z" />
    <glyph glyph-name="endash" unicode="&#x2013;" horiz-adv-x="453" 
d="M2 189v53h376v-53h-376z" />
    <glyph glyph-name="emdash" unicode="&#x2014;" horiz-adv-x="823" 
d="M748 242v-53h-746v53h746z" />
    <glyph glyph-name="quotedblleft" unicode="&#x201c;" horiz-adv-x="307" 
d="M260 509q0 -25 -16.5 -40t-33.5 -15q-29 0 -46 28q-14 23 -14 55q0 36 26 82.5t55 64.5q-26 -53 -26 -76q0 -21 27.5 -46t27.5 -53zM120 509q0 -25 -16.5 -40t-33.5 -15q-29 0 -46 28q-14 23 -14 55q0 36 26 82.5t55 64.5q-26 -53 -26 -76q0 -21 27.5 -46t27.5 -53z" />
    <glyph glyph-name="quotedblright" unicode="&#x201d;" horiz-adv-x="322" 
d="M10 629q0 25 18 41q15 14 31 14q30 0 47 -28q14 -23 14 -54q0 -37 -26 -83.5t-56 -64.5q27 53 27 76q0 21 -27.5 46t-27.5 53zM150 629q0 25 18 41q15 14 31 14q30 0 47 -28q14 -23 14 -54q0 -37 -26 -83.5t-56 -64.5q27 53 27 76q0 21 -27.5 46t-27.5 53z" />
    <glyph glyph-name="quoteleft" unicode="&#x2018;" horiz-adv-x="167" 
d="M120 509q0 -25 -16.5 -40t-33.5 -15q-29 0 -46 28q-14 23 -14 55q0 36 26 82.5t55 64.5q-26 -53 -26 -76q0 -21 27.5 -46t27.5 -53z" />
    <glyph glyph-name="quoteright" unicode="&#x2019;" horiz-adv-x="222" 
d="M158 621q0 -87 -123 -156h-19q54 51 54 84q0 7 -11 38.5t-11 38.5q0 21 17.5 39.5t37.5 18.5q27 0 43 -24q12 -18 12 -39z" />
    <glyph glyph-name="divide" unicode="&#xf7;" horiz-adv-x="172" 
d="M112 382q0 -23 -17.5 -40t-39.5 -17q-25 0 -39 20q-13 17 -13 43q0 21 10 39q14 24 39 24q29 0 46 -24q14 -21 14 -45zM112 62q0 -23 -17.5 -40t-39.5 -17q-25 0 -39 20q-13 17 -13 43q0 21 10 39q14 24 39 24q29 0 46 -24q14 -21 14 -45z" />
    <glyph glyph-name="ydieresis" unicode="&#xff;" horiz-adv-x="510" 
d="M479 465h-49q-34 -63 -115 -269q-85 -213 -85 -240q0 -45 32 -74q26 -23 55 -23q28 0 56 21q33 23 33 54q0 33 -28 55q-23 20 -47 20q-7 0 -22 -2.5t-20 -2.5q21 50 56 144q0 -33 49 -86t51 -78q2 -61 -30 -103q-36 -48 -102 -48q-13 0 -34 6q-74 22 -74 120q0 37 10 73
l-172 387l-46 -28l-9 19l154 105l7 -21q-24 -29 -24 -51q0 -12 7 -24l120 -277l138 323l-68 1l1 30h156v-31zM280 592q0 20 13.5 33.5t33.5 13.5q19 0 32.5 -13.5t13.5 -33.5q0 -19 -13.5 -32.5t-32.5 -13.5q-20 0 -33.5 13.5t-13.5 32.5zM120 592q0 20 13.5 33.5t33.5 13.5
q19 0 32.5 -13.5t13.5 -33.5q0 -19 -13.5 -32.5t-32.5 -13.5q-20 0 -33.5 13.5t-13.5 32.5z" />
    <glyph glyph-name="Ydieresis" unicode="&#x178;" horiz-adv-x="630" 
d="M573 -1h-233l1 32h72v613h-60l-1 35h226l-2 -35h-69l1 -612h65v-33zM398 122q-36 -8 -73 -8q-107 0 -209.5 97t-102.5 204q0 68 37 131.5t97 97.5h-121l-1 34h198q-62 -52 -85 -96q-26 -48 -26 -124q0 -118 72 -220q80 -112 193 -112q15 0 21 -4zM340 772q0 20 13.5 33.5
t33.5 13.5q19 0 32.5 -13.5t13.5 -33.5q0 -19 -13.5 -32.5t-32.5 -13.5q-20 0 -33.5 13.5t-13.5 32.5zM180 772q0 20 13.5 33.5t33.5 13.5q19 0 32.5 -13.5t13.5 -33.5q0 -19 -13.5 -32.5t-32.5 -13.5q-20 0 -33.5 13.5t-13.5 32.5z" />
    <glyph glyph-name="currency" unicode="&#xa4;" horiz-adv-x="673" 
d="M615 273q0 -67 -40 -163q-34 -78 -68 -155l-18 7l16 39h-489v30h75v615h-79v32h244v-32h-74l-1 -615h211q72 0 135 88q59 81 59 157q0 100 -50 180q-58 93 -152 93q-23 0 -46 -20t-23 -43q0 -24 37.5 -63.5t37.5 -71.5q0 -29 -20.5 -50.5t-48.5 -21.5q-18 0 -45.5 16
t-38.5 31l11 16q50 -40 67 -40q23 0 23 23q0 3 -37.5 53.5t-37.5 84.5q0 44 42 78q40 31 85 31q101 0 167 -102q58 -90 58 -197z" />
    <glyph glyph-name="guilsinglleft" unicode="&#x2039;" horiz-adv-x="1038" 
d="M500 55q-74 -65 -175 -65q-152 0 -238 108q-73 92 -79 232q-5 136 65 239q81 117 224 117q106 0 187 -69q74 70 183 69q144 0 236 -122q81 -106 81 -234q0 -133 -73 -230q-82 -110 -216 -110q-116 0 -195 65zM614 330q0 -113 -55 -204q83 -89 191 -89q82 0 130 70
q40 61 40 143q0 29 -12.5 83.5t-24.5 80.5q-44 94 -117 161q-78 71 -148 71q-67 0 -115 -47q53 -54 83 -130q28 -70 28 -139zM427 543q-93 103 -179 103q-88 0 -140 -79q-42 -63 -42 -136q0 -124 78 -246q94 -148 236 -148q58 0 100 36q-95 94 -102 257q-4 117 49 213z
M550 250q0 29 -12.5 83.5t-24.5 80.5q-25 53 -61 100q-16 -43 -16 -83q0 -60 24 -133q27 -81 74 -142q16 45 16 94z" />
    <glyph glyph-name="guilsinglright" unicode="&#x203a;" horiz-adv-x="776" 
d="M720 253q0 -99 -64 -178q-68 -86 -167 -86q-47 0 -87 18t-36 18q-8 0 -27 -11q-23 -15 -29 -17q-19 -8 -71 -8q-104 0 -167 82q-55 73 -55 173t52 176q63 91 174 92q36 1 78.5 -14.5t41.5 -15.5q-2 0 37 18t80 18q108 0 179 -92q61 -80 61 -173zM642 175q0 68 -48 171
q-63 136 -153 136q-26 0 -51 -14q84 -105 84 -215q0 -80 -60 -177q45 -60 103 -56q57 3 92 51q33 44 33 104zM408 163q0 51 -26.5 127t-51.5 95v-104q0 -30 26 -93q19 -47 37 -79q15 44 15 54zM341 46q-42 31 -69 113q-21 64 -21 112q0 82 54 154q-18 21 -49.5 36t-49.5 15
q-60 0 -91 -50q-26 -40 -26 -100q0 -81 41 -173q58 -128 157 -128q5 0 23 5q23 8 31 16z" />
    <glyph glyph-name="daggerdbl" unicode="&#x2021;" horiz-adv-x="13" 
 />
    <glyph glyph-name="periodcentered" unicode="&#xb7;" horiz-adv-x="15" 
 />
    <glyph glyph-name="periodcentered" unicode="&#x2219;" horiz-adv-x="15" 
 />
    <glyph glyph-name="quotesinglbase" unicode="&#x201a;" horiz-adv-x="166" 
d="M10 89q0 25 18 41q15 14 31 14q30 0 47 -28q14 -23 14 -54q0 -37 -26 -83.5t-56 -64.5q27 53 27 76q0 21 -27.5 46t-27.5 53z" />
    <glyph glyph-name="quotedblbase" unicode="&#x201e;" horiz-adv-x="317" 
d="M10 89q0 25 18 41q15 14 31 14q30 0 47 -28q14 -23 14 -54q0 -37 -26 -83.5t-56 -64.5q27 53 27 76q0 21 -27.5 46t-27.5 53zM150 89q0 25 18 41q15 14 31 14q30 0 47 -28q14 -23 14 -54q0 -37 -26 -83.5t-56 -64.5q27 53 27 76q0 21 -27.5 46t-27.5 53z" />
    <glyph glyph-name="Acircumflex" unicode="&#xc2;" horiz-adv-x="801" 
d="M766 0h-238v31l83 -1l-187 398h-128l-178 -397h86v-30h-199v30h72l272 615h-55q-51 -58 -108 -58q-16 0 -52.5 24.5t-55.5 21.5q-11 -1 -32 -17t-32 -33v20q18 63 88 74q27 4 65.5 -19t39.5 -23q17 -1 45 14q22 13 37 26h214l1 -30h-80l290 -616l52 1v-31zM412 458
q-18 44 -54 122q-17 -44 -52 -122h106zM265 703l-2 4l124 92l122 -95l-2 -5l-120 50z" />
    <glyph glyph-name="Ecircumflex" unicode="&#xca;" horiz-adv-x="635" 
d="M659 160l-124 -223l-20 9q22 37 22 49q0 5 -4 5h-519v31l61 1l1 614l-69 -1v33h441q-6 15 -17 41q2 0 9.5 6t10.5 6l87 -181l-17 -5q-34 45 -51 62q-42 40 -83 38h-222q-2 -34 0 -117l280 1q3 5 -5 22l-14 28q3 0 9.5 2.5t9.5 2.5l99 -182l-14 -14q-22 29 -45 57
q-53 56 -95 54l-225 -2v-466h262q23 0 87 32q55 27 72 40q12 11 27 32q23 31 25 34q5 0 21 -9zM135 703l-2 4l124 92l122 -95l-2 -5l-120 50z" />
    <glyph glyph-name="Aacute" unicode="&#xc1;" horiz-adv-x="803" 
d="M766 0h-238v31l83 -1l-187 398h-128l-178 -397h86v-30h-199v30h72l272 615h-55q-51 -58 -108 -58q-16 0 -52.5 24.5t-55.5 21.5q-11 -1 -32 -17t-32 -33v20q18 63 88 74q27 4 65.5 -19t39.5 -23q17 -1 45 14q22 13 37 26h214l1 -30h-80l290 -616l52 1v-31zM412 458
q-18 44 -54 122q-17 -44 -52 -122h106zM293 715q70 59 148 121q5 2 10 2q13 0 23.5 -14t10.5 -31q0 -9 -3 -16l-185 -68z" />
    <glyph glyph-name="Edieresis" unicode="&#xcb;" horiz-adv-x="635" 
d="M659 160l-124 -223l-20 9q22 37 22 49q0 5 -4 5h-519v31l61 1v614l-68 -1v33h441q-6 15 -17 41q2 0 9.5 6t10.5 6l87 -181l-17 -5q-34 45 -51 62q-42 40 -83 38h-222q-2 -34 0 -117l280 1q3 5 -5 19q-14 24 -14 25q3 0 9.5 5.5t9.5 5.5l99 -182l-14 -14q-22 29 -45 57
q-53 56 -95 54l-225 -2v-466h262q23 0 87 32q55 27 72 40q12 11 27 32q23 31 25 34q5 0 21 -9zM290 757q0 19 13.5 33t32.5 14q20 0 33.5 -14t13.5 -33t-13.5 -33t-33.5 -14q-19 0 -32.5 14t-13.5 33zM130 757q0 19 13.5 33t32.5 14q20 0 33.5 -14t13.5 -33t-13.5 -33
t-33.5 -14q-19 0 -32.5 14t-13.5 33z" />
    <glyph glyph-name="Egrave" unicode="&#xc8;" horiz-adv-x="635" 
d="M659 160l-124 -223l-20 9q22 37 22 49q0 5 -4 5h-519v31l61 1l1 614l-69 -1v33h441q-6 15 -17 41q2 0 9.5 6t10.5 6l87 -181l-17 -5q-34 45 -51 62q-42 40 -83 38h-222q-2 -34 0 -117l276 1q2 2 2 5t-17 42q3 0 9.5 4t9.5 4l99 -182l-14 -14q-22 29 -45 57q-53 56 -95 54
l-225 -2v-466h262q23 0 87 32q55 27 72 40q12 11 27 32q23 31 25 34q5 0 21 -9zM358 715q-70 59 -148 121q-5 2 -10 2q-13 0 -23.5 -14t-10.5 -31q0 -9 3 -16l185 -68z" />
    <glyph glyph-name="Iacute" unicode="&#xcd;" horiz-adv-x="317" 
d="M262 1h-248v31h72v614h-69v33h237v-33l-75 -2l1 -612h82v-31zM43 715q70 59 148 121q5 2 10 2q13 0 23.5 -14t10.5 -31q0 -9 -3 -16l-185 -68z" />
    <glyph glyph-name="Icircumflex" unicode="&#xce;" horiz-adv-x="317" 
d="M262 1h-248v31h72v614h-69v33h237v-33l-75 -2l1 -612h82v-31zM15 703l-2 4l124 92l122 -95l-2 -5l-120 50z" />
    <glyph glyph-name="Idieresis" unicode="&#xcf;" horiz-adv-x="317" 
d="M262 1h-248v31h72v614h-69v33h237v-33l-75 -1l1 -613h82v-31zM160 757q0 19 13.5 33t32.5 14q20 0 33.5 -14t13.5 -33t-13.5 -33t-33.5 -14q-19 0 -32.5 14t-13.5 33zM0 757q0 19 13.5 33t32.5 14q20 0 33.5 -14t13.5 -33t-13.5 -33t-33.5 -14q-19 0 -32.5 14t-13.5 33z
" />
    <glyph glyph-name="Igrave" unicode="&#xcc;" horiz-adv-x="317" 
d="M262 1h-248v31h72v614h-69v33h237v-33l-75 -2l1 -612h82v-31zM228 715q-70 59 -148 121q-5 2 -10 2q-13 0 -23.5 -14t-10.5 -31q0 -9 3 -16l185 -68z" />
    <glyph glyph-name="Oacute" unicode="&#xd3;" horiz-adv-x="668" 
d="M614 330q0 -133 -73 -230q-82 -110 -216 -110q-152 0 -238 108q-73 92 -79 232q-5 136 65 239q81 117 224 117q144 0 236 -122q81 -106 81 -234zM550 250q0 29 -12.5 83.5t-24.5 80.5q-44 94 -117 161q-78 71 -148 71q-88 0 -140 -79q-42 -63 -42 -136q0 -124 78 -246
q94 -148 236 -148q82 0 130 70q40 61 40 143zM183 715q70 59 148 121q5 2 10 2q13 0 23.5 -14t10.5 -31q0 -9 -3 -16l-185 -68z" />
    <glyph glyph-name="Ocircumflex" unicode="&#xd4;" horiz-adv-x="668" 
d="M614 330q0 -133 -73 -230q-82 -110 -216 -110q-152 0 -238 108q-73 92 -79 232q-5 136 65 239q81 117 224 117q144 0 236 -122q81 -106 81 -234zM550 250q0 29 -12.5 83.5t-24.5 80.5q-44 94 -117 161q-78 71 -148 71q-88 0 -140 -79q-42 -63 -42 -136q0 -124 78 -246
q94 -148 236 -148q82 0 130 70q40 61 40 143zM165 703l-2 4l124 92l122 -95l-2 -5l-120 50z" />
    <glyph glyph-name="Ograve" unicode="&#xd2;" horiz-adv-x="668" 
d="M614 330q0 -133 -73 -230q-82 -110 -216 -110q-152 0 -238 108q-73 92 -79 232q-5 136 65 239q81 117 224 117q144 0 236 -122q81 -106 81 -234zM550 250q0 29 -12.5 83.5t-24.5 80.5q-44 94 -117 161q-78 71 -148 71q-88 0 -140 -79q-42 -63 -42 -136q0 -124 78 -246
q94 -148 236 -148q82 0 130 70q40 61 40 143zM388 715q-70 59 -148 121q-5 2 -10 2q-13 0 -23.5 -14t-10.5 -31q0 -9 3 -16l185 -68z" />
    <glyph glyph-name="Uacute" unicode="&#xda;" horiz-adv-x="647" 
d="M591 1h-188q-20 -1 -38 0q-149 6 -258 142q-96 119 -96 235q0 52 29 122q34 82 83 112q3 7 3 12q0 21 -40 23q-33 0 -67 -1q-5 6 -3 32h203q-75 -71 -98 -134q-15 -40 -15 -113q0 -140 63 -257q80 -145 219 -144h39v617q-6 3 -28 0t-34 0l1 32h225l-1 -33h-77
q-1 -44 -1 -617h79v-28zM193 715q70 59 148 121q5 2 10 2q13 0 23.5 -14t10.5 -31q0 -9 -3 -16l-185 -68z" />
    <glyph glyph-name="Ucircumflex" unicode="&#xdb;" horiz-adv-x="647" 
d="M591 1h-188q-20 -1 -38 0q-149 6 -258 142q-96 119 -96 235q0 52 29 122q34 82 83 112q3 7 3 12q0 21 -40 23q-33 0 -67 -1q-5 6 -3 32h203q-75 -71 -98 -134q-15 -40 -15 -113q0 -140 63 -257q80 -145 219 -144h39v617h-62l2 32h224v-34q-21 0 -78 1q-1 -44 -1 -617h79
v-28zM185 703l-2 4l124 92l122 -95l-2 -5l-120 50z" />
    <glyph glyph-name="Ugrave" unicode="&#xd9;" horiz-adv-x="647" 
d="M591 1h-188q-20 -1 -38 0q-149 6 -258 142q-96 119 -96 235q0 52 29 122q34 82 83 112q3 7 3 12q0 21 -40 23q-33 0 -67 -1q-5 6 -3 32h203q-75 -71 -98 -134q-15 -40 -15 -113q0 -140 63 -257q80 -145 219 -144h39v617q-6 3 -28 0t-34 0l2 32h224l-1 -33h-77
q-1 -44 -1 -617h79v-28zM394 715q-71 59 -149 121q-5 2 -10 2q-13 0 -23.5 -14t-10.5 -31q0 -9 3 -16l185 -68z" />
    <glyph glyph-name="circumflex" unicode="&#x2c6;" horiz-adv-x="270" 
d="M11 726l-3 5l125 92l122 -96l-2 -4l-120 50z" />
    <glyph glyph-name="tilde" unicode="&#x2dc;" horiz-adv-x="276" 
d="M9 742q17 72 82 72q25 0 59 -17.5t54 -17.5q15 0 26.5 10t22.5 20l10 -12q-13 -18 -26 -35t-40 -18q-25 -1 -60.5 16.5t-54.5 17.5q-42 0 -58 -38z" />
    <glyph glyph-name="macron" unicode="&#xaf;" horiz-adv-x="290" 
d="M266 797l1 -43h-259v43h258z" />
    <glyph glyph-name="macron" unicode="&#x2c9;" horiz-adv-x="290" 
d="M266 797l1 -43h-259v43h258z" />
    <glyph glyph-name="cedilla" unicode="&#xb8;" horiz-adv-x="219" 
d="M111 3q1 0 4.5 -16t6.5 -16q19 -5 38 -29q14 -18 14 -42q0 -32 -21 -56t-53 -24q-27 0 -45.5 17t-18.5 43q0 25 17 25q7 0 14 -6q-3 -11 -3 -18q0 -11 10 -24t22 -13q24 0 24 51q0 31 -8 38q-17 16 -26 34q-5 11 1 35q1 -3 12 -1q14 2 12 2z" />
    <glyph glyph-name="Scaron" unicode="&#x160;" 
 />
    <glyph glyph-name="scaron" unicode="&#x161;" 
 />
    <glyph glyph-name="brokenbar" unicode="&#xa6;" 
 />
    <glyph glyph-name="Eth" unicode="&#xd0;" 
 />
    <glyph glyph-name="eth" unicode="&#xf0;" 
 />
    <glyph glyph-name="Yacute" unicode="&#xdd;" 
 />
    <glyph glyph-name="yacute" unicode="&#xfd;" 
 />
    <glyph glyph-name="Thorn" unicode="&#xde;" 
 />
    <glyph glyph-name="thorn" unicode="&#xfe;" 
 />
    <glyph glyph-name="minus" unicode="&#xad;" 
 />
    <glyph glyph-name="minus" unicode="&#x2212;" 
 />
    <glyph glyph-name="multiply" unicode="&#xd7;" 
 />
    <glyph glyph-name="onesuperior" unicode="&#xb9;" 
 />
    <glyph glyph-name="twosuperior" unicode="&#xb2;" 
 />
    <glyph glyph-name="threesuperior" unicode="&#xb3;" 
 />
    <glyph glyph-name="onehalf" unicode="&#xbd;" 
 />
    <glyph glyph-name="onequarter" unicode="&#xbc;" 
 />
    <glyph glyph-name="threequarters" unicode="&#xbe;" 
 />
    <glyph glyph-name=".null" 
 />
    <glyph glyph-name="Lslash" unicode="&#x141;" 
 />
    <glyph glyph-name="lslash" unicode="&#x142;" 
 />
    <glyph glyph-name="HT" 
 />
    <glyph glyph-name="LF" 
 />
    <glyph glyph-name="nonmarkingreturn" 
 />
    <glyph glyph-name="Zcaron" unicode="&#x17d;" 
 />
    <glyph glyph-name="zcaron" unicode="&#x17e;" 
 />
    <glyph glyph-name="DLE" 
 />
    <glyph glyph-name="DC1" 
 />
    <glyph glyph-name="DC2" 
 />
    <glyph glyph-name="DC3" 
 />
    <glyph glyph-name="DC4" 
 />
    <glyph glyph-name="RS" 
 />
    <glyph glyph-name="US" 
 />
    <glyph glyph-name="notequal" unicode="&#x2260;" 
 />
    <glyph glyph-name="infinity" unicode="&#x221e;" 
 />
    <glyph glyph-name="lessequal" unicode="&#x2264;" horiz-adv-x="34" 
 />
    <glyph glyph-name="greaterequal" unicode="&#x2265;" horiz-adv-x="12" 
 />
    <glyph glyph-name="partialdiff" unicode="&#x2202;" horiz-adv-x="215" 
d="M222 17q-15 -21 -55 -21q-35 0 -76 24q-49 29 -49 70v468h-13q-7 -2 -13.5 -6t-10.5 -4t-14 4q44 44 163 128l-20 -38q-13 -23 -13 -32v-522q0 -24 38 -49q35 -23 57 -23q4 0 6 1zM3 211l183 215v-54l-183 -208v47z" />
    <glyph glyph-name="summation" unicode="&#x2211;" horiz-adv-x="686" 
d="M638 238q0 -119 -92 -189q-79 -59 -180 -59q-39 0 -105 15l-66 15q-33 0 -33 -31q0 -17 10 -38l-17 -10l-150 275q3 2 10.5 5.5t9.5 6.5q42 -100 151 -160q93 -52 182 -52h34q64 0 132 54q75 60 75 134q0 91 -118 151q-109 44 -218 87q-118 51 -118 120q0 64 61 99
q43 25 102 30q47 4 103 -14q28 -10 56 -21q9 -1 15 -1q11 0 11 9q0 14 6 20q-5 8 -17 38q14 8 17 6q12 -19 105 -205q-13 -11 -17 -9q-42 67 -127 109q-77 38 -151 38q-107 0 -107 -59q0 -43 113 -79q159 -50 210 -83q113 -72 113 -202zM427 813l-122 -97l-120 100l120 -50z
" />
    <glyph glyph-name="product" unicode="&#x220f;" horiz-adv-x="407" 
d="M363 131q0 -73 -59 -108q-42 -25 -96 -25q-8 0 -49 9q-24 5 -49 10q-22 4 -25 -29q-2 -14 0 -34l-17 -1l-65 233l16 4q17 -39 51 -99q51 -66 143 -66q39 0 71 17q41 22 41 61q0 54 -77 103l-142 84q-76 52 -76 114q0 48 47 77q35 21 69 21q43 0 83 -24q22 -13 45 -26
q12 -3 28 15q12 14 19 31q3 -3 10 -7t10 -6q-26 -47 -76 -142l-19 8q8 14 8 32q0 35 -26 61q-32 31 -86 31q-20 0 -39 -12q-23 -15 -23 -37q0 -29 73 -72q109 -65 137 -88q73 -62 73 -135zM294 629l-122 -97l-121 100l121 -50z" />
    <glyph glyph-name="pi" unicode="&#x3c0;" horiz-adv-x="630" 
d="M573 -1h-233l1 32h72v613h-60l-1 35h226l-2 -35h-69l1 -612h65v-33zM398 122q-36 -8 -73 -8q-107 0 -209.5 97t-102.5 204q0 68 37 131.5t97 97.5h-121l-1 34h198q-62 -52 -85 -96q-26 -48 -26 -124q0 -118 72 -220q80 -112 193 -112q15 0 21 -4zM192 709q71 59 149 121
q5 2 9 2q14 0 24.5 -14t10.5 -31q0 -9 -4 -16l-184 -68z" />
    <glyph glyph-name="integral" unicode="&#x222b;" horiz-adv-x="510" 
d="M479 465h-49q-34 -63 -115 -269q-85 -213 -85 -240q0 -45 32 -74q26 -23 55 -23q28 0 56 21q33 23 33 54q0 33 -28 55q-23 20 -47 20q-7 0 -22 -2.5t-20 -2.5q21 50 56 144q0 -33 49 -86t51 -78q2 -61 -30 -103q-36 -48 -102 -48q-13 0 -34 6q-74 22 -74 120q0 37 10 73
l-172 387l-46 -28l-9 19l154 105l7 -21q-24 -29 -24 -51q0 -12 7 -24l120 -277l138 323l-68 1l1 30h156v-31zM167 545q71 59 149 122q5 2 9 2q14 0 24.5 -14.5t10.5 -31.5q0 -9 -3 -16l-185 -67z" />
    <glyph glyph-name="Omega" unicode="&#x3a9;" horiz-adv-x="644" 
d="M0 425h70q49 102 155.5 170.5t230.5 71.5q1 2 1 4q0 5 -10 17.5t-13 19.5q22 5 22 10l130 -209l-23 -11q-61 123 -151 123q-84 0 -159 -58t-103 -138h305v-35h-315q-4 -23 -5 -66l320 1v-35l-321 1q2 -164 111 -257q100 -84 262 -87q21 -1 54 6q47 9 55 10v-33q0 2 -5 2
q-6 0 -51.5 -10t-62.5 -9q-168 12 -299 98q-162 106 -161 276v5h-40v32h42q5 33 16 66h-55v35z" />
    <glyph glyph-name="Omega" unicode="&#x2126;" horiz-adv-x="644" 
d="M0 425h70q49 102 155.5 170.5t230.5 71.5q1 2 1 4q0 5 -10 17.5t-13 19.5q22 5 22 10l130 -209l-23 -11q-61 123 -151 123q-84 0 -159 -58t-103 -138h305v-35h-315q-4 -23 -5 -66l320 1v-35l-321 1q2 -164 111 -257q100 -84 262 -87q21 -1 54 6q47 9 55 10v-33q0 2 -5 2
q-6 0 -51.5 -10t-62.5 -9q-168 12 -299 98q-162 106 -161 276v5h-40v32h42q5 33 16 66h-55v35z" />
    <glyph glyph-name="radical" unicode="&#x221a;" 
 />
    <glyph glyph-name="approxequal" unicode="&#x2248;" 
 />
    <glyph glyph-name="approxequal" unicode="&#x22f2;" 
 />
    <glyph glyph-name="Delta" unicode="&#x394;" 
 />
    <glyph glyph-name="Delta" unicode="&#x2206;" 
 />
    <glyph glyph-name="lozenge" unicode="&#x25ca;" horiz-adv-x="337" 
d="M296 298l-90 -39l-40 -91l-39 91l-91 39l91 40l39 90l40 -90z" />
    <glyph glyph-name="fraction" unicode="&#x2044;" horiz-adv-x="663" 
d="M612 647h-83l1 -617h84l1 -28h-256l1 28h79v340h-350q-30 -74 -40 -120q-7 -32 -11 -95q-6 -79 22 -165q38 -119 122 -119q26 1 125 50t143 49q41 0 68 -17q31 -20 31 -57q0 -26 -26 -44q-39 -26 -42 -30t-3 -9q0 -12 19 -17q-12 -6 -19 -3q-31 12 -29 31q1 11 38 36.5
t37 32.5q0 31 -37 31q-11 0 -114 -46t-157 -46q-212 0 -210 328q0 144 72 280q86 165 240 224q39 16 101 14h193v-31zM438 399v251h-42q-82 5 -186 -92q-97 -90 -109 -158z" />
    <glyph glyph-name="fi" unicode="&#xf001;" horiz-adv-x="20" 
 />
    <glyph glyph-name="dotlessi" unicode="&#x131;" horiz-adv-x="265" 
d="M219 29v-29l-195 1l-1 28h63v368l-11 5l-58 -29l-7 15l184 115l8 -14q-9 -8 -17 -16q-23 -29 -23 -57l-1 -387h58z" />
    <glyph glyph-name="breve" unicode="&#x2d8;" horiz-adv-x="264" 
d="M127 733q-106 0 -113 91h32q15 -34 81 -34t80 34h33q-8 -91 -113 -91z" />
    <glyph glyph-name="dotaccent" unicode="&#x2d9;" horiz-adv-x="202" 
d="M99 849q28 0 47.5 -19.5t19.5 -47.5t-20 -47t-47 -19q-28 0 -47.5 19t-19.5 47t19.5 47.5t47.5 19.5z" />
    <glyph glyph-name="ring" unicode="&#x2da;" horiz-adv-x="173" 
d="M85 833q26 0 45 -18.5t19 -45.5q0 -26 -19 -45t-45 -19q-27 0 -45.5 19t-18.5 45q0 27 18.5 45.5t45.5 18.5zM85 803q-14 0 -24 -10t-10 -24t10 -24t24 -10t24 10t10 24t-10 24t-24 10z" />
    <glyph glyph-name="hungarumlaut" unicode="&#x2dd;" horiz-adv-x="269" 
d="M53 725l35 98q21 59 53 59q27 0 27 -28q0 -18 -18 -40l-80 -98zM181 725l35 98q21 59 53 59q27 0 27 -29q0 -17 -18 -39l-81 -98z" />
    <glyph glyph-name="ogonek" unicode="&#x2db;" horiz-adv-x="289" 
d="M120 0l88 4q-49 -12 -61 -19q-29 -16 -29 -52q0 -17 11.5 -30.5t28.5 -13.5q31 0 72 37l16 -22q-56 -56 -108 -56q-31 0 -56 20.5t-25 49.5q0 40 63 82z" />
    <glyph glyph-name="caron" unicode="&#x2c7;" horiz-adv-x="260" 
d="M252 805l-122 -96l-120 100l120 -50z" />
    </font>
</defs>
</svg>
