<svg xmlns="http://www.w3.org/2000/svg" viewBox="0 0 541.867 541.867" height="2048" width="2048">
   <path d="M238.553 37.306l-35.958 93.134c-2.98 7.76-4.535 17.11-4.664 28.045l-2.527 196.057c0 4.41-2.591 6.614-7.775 6.614-5.183 0-7.774-2.205-7.774-6.614l-2.527-196.057c-.13-10.936-1.684-20.284-4.665-28.045l-35.957-93.134c22.935-3.704 39.91-5.556 50.923-5.556 11.014 0 27.989 1.852 50.924 5.556zm-104.957 0L97.64 130.44c-2.98 7.76-4.535 17.11-4.665 28.045l-2.526 196.057c0 4.41-2.592 6.614-7.775 6.614s-7.774-2.205-7.774-6.614l-2.527-196.057c-.13-10.936-1.685-20.284-4.665-28.045L31.75 37.306c22.935-3.704 39.91-5.556 50.923-5.556 11.014 0 27.989 1.852 50.923 5.556zM274.24 440.796c0 7.055-2.204 10.583-6.614 10.583l-109.14 3.44c-11.113.176-20.462 2.293-28.046 6.35l-93.134 48.948c-3.704-31.221-5.556-54.328-5.556-69.321 0-14.993 1.852-38.1 5.556-69.321l93.134 48.948c7.584 4.057 16.933 6.173 28.045 6.35l109.141 3.44c4.41 0 6.615 3.527 6.615 10.583zM513.292 477.573l-3.567 3.44q-20.888-31.222-60.287-108.745-39.399-77.522-47.55-103.452 8.151-25.93 47.55-103.452 39.4-77.523 60.287-108.743l3.567 3.44q-9.68 40.745-24.115 115.887-15.454 79.904-15.454 92.868 0 12.965 15.454 92.87 14.435 75.14 24.114 115.887zM335.12 37.306l-32.096 94.72c-2.49 7.409-3.793 16.581-3.906 27.517L296.06 503.37c0 4.41-2.264 6.615-6.793 6.615-4.528 0-6.793-2.205-6.793-6.615l-3.056-343.826c-.114-10.936-1.416-20.108-3.907-27.517l-32.095-94.72c21.057-3.881 36.342-5.822 45.852-5.822 9.51 0 24.794 1.94 45.852 5.82zM429.541 37.306l-32.096 94.72c-2.49 7.409-3.792 16.581-3.906 27.517l-3.057 343.827c0 4.41-2.264 6.615-6.793 6.615-4.528 0-6.792-2.205-6.792-6.615l-3.057-343.826c-.113-10.936-1.415-20.108-3.905-27.517l-32.097-94.72c21.058-3.88 36.342-5.82 45.852-5.82 9.51 0 24.794 1.94 45.852 5.82z" />
</svg>