<svg xmlns="http://www.w3.org/2000/svg" viewBox="0 0 541.867 541.867" height="2048" width="2048">
   <path d="M510.117 479.69l-5.557 3.44q-32.543-31.222-93.927-108.745-61.383-77.522-74.083-103.452 12.7-25.929 74.083-103.452 61.384-77.523 93.927-108.743l5.557 3.44q-15.082 40.745-37.57 115.887-24.078 79.904-24.078 92.868 0 12.965 24.077 92.87 22.49 75.14 37.57 115.887zM174.624 62.442l-50.005 94.72q-4.498 8.203-5.821 21.961 17.198.794 54.504 5.292l-50.006 94.72q-6.35 11.907-6.88 29.105 14.024.529 55.563 5.556l-50.006 94.72q-7.144 13.76-7.408 23.284l-.794 46.832q0 6.614-10.583 6.614-10.584 0-10.584-6.614L91.81 431.8q-.264-9.525-7.408-23.283l-50.006-94.721q18.52-2.381 55.562-5.556-.53-17.198-6.88-29.104l-50.004-94.721q18.256-2.117 54.504-5.292-1.323-13.758-5.82-21.96L31.75 62.442q49.213-5.821 71.438-5.821t71.437 5.82zM342.37 62.442l-50.005 94.72q-4.498 8.203-5.821 21.961 17.198.794 54.504 5.292l-50.006 94.72q-6.35 11.907-6.88 29.105 14.024.529 55.563 5.556l-50.006 94.72q-7.144 13.76-7.408 23.284l-.794 46.832q0 6.614-10.583 6.614-10.584 0-10.584-6.614l-.794-46.832q-.264-9.525-7.408-23.283l-50.006-94.721q18.52-2.381 55.562-5.556-.53-17.198-6.88-29.104l-50.004-94.721q18.256-2.117 54.504-5.292-1.323-13.758-5.82-21.96l-50.008-94.721q49.213-5.821 71.438-5.821t71.437 5.82z" />
</svg>