<svg xmlns="http://www.w3.org/2000/svg" viewBox="0 0 541.867 541.867" height="2048" width="2048">
   <path d="M443.971 533.31l-5.557 4.324q-32.543-39.242-93.927-136.677-61.383-97.434-74.083-130.025 12.7-32.589 74.083-130.024 61.384-97.436 93.927-136.675l5.557 4.324q-15.082 51.21-37.57 145.653-24.078 100.428-24.078 116.722 0 16.295 24.077 116.725 22.49 94.44 37.57 145.653zM240.77 11.477l-50.005 117.874q-4.498 10.208-5.821 27.33 17.198.987 54.504 6.585L189.442 281.14q-6.35 14.817-6.88 36.22 14.024.658 55.563 6.914l-50.006 117.873q-7.144 17.124-7.408 28.976l-.794 58.28q0 8.23-10.583 8.23-10.584 0-10.584-8.23l-.794-58.28q-.264-11.853-7.408-28.974l-50.006-117.875q18.52-2.963 55.562-6.915-.53-21.402-6.88-36.218L99.22 163.266q18.256-2.635 54.504-6.586-1.323-17.12-5.82-27.328L97.896 11.477q49.213-7.244 71.438-7.244t71.437 7.243z" />
</svg>