<svg xmlns="http://www.w3.org/2000/svg" viewBox="0 0 541.867 541.867" height="2048" width="2048">
   <path d="M263.495 11.477l-50.007 117.874c-3.88 9.22-5.91 20.633-6.085 34.244l-4.763 365.807c0 5.488-3.528 8.232-10.584 8.232-7.055 0-10.583-2.744-10.583-8.232l-4.763-365.808c-.176-13.61-2.204-25.024-6.085-34.243L120.62 11.477c32.808-4.83 56.62-7.244 71.437-7.244s38.63 2.415 71.438 7.243zM164.54 268.965c0 8.114-5.82 12.524-8.73 12.7-2.91.177-108.745 56.886-108.745 56.886-3.88-32.632-5.82-55.827-5.82-69.586 0-13.758 1.94-36.953 5.82-69.585 0 0 105.833 56.709 108.744 56.885 2.91.177 8.73 4.586 8.73 12.7zM352.425 199.496c0 7.055-2.076 10.583-6.227 10.583L234.36 268.817c-3.487-31.221-5.23-54.328-5.23-69.321 0-14.993 1.743-38.1 5.23-69.321l111.838 58.737c4.151 0 6.227 3.528 6.227 10.584zM352.425 342.371c0 7.055-2.076 10.583-6.227 10.583L234.36 411.692c-3.487-31.221-5.23-54.328-5.23-69.321 0-14.993 1.743-38.1 5.23-69.321l111.838 58.738c4.151 0 6.227 3.527 6.227 10.583zM504.825 533.31l-5.557 4.324q-32.543-39.242-93.927-136.677-61.382-97.434-74.082-130.025 12.7-32.589 74.082-130.024 61.384-97.436 93.927-136.675l5.557 4.324q-15.082 51.21-37.57 145.653-24.078 100.428-24.078 116.722 0 16.295 24.077 116.725 22.49 94.44 37.57 145.653z" />
</svg>