<svg xmlns="http://www.w3.org/2000/svg" viewBox="-10 0 2048 2048" width="2048" height="2048">
   <path d="M649.996 40.538L461 439.83c-14.667 31.231-22.335 69.898-23.002 115.998L420 2004.114c0 18.59-13.332 27.886-39.998 27.886-26.669 0-40.003-9.295-40.003-27.886L322.001 555.832c-.668-46.1-8.335-84.766-23.002-115.997L110 40.539C233.999 24.18 324 16 380.002 16 435.999 16 525.998 24.178 650 40.534zM529.346 1440L518 1416.311c68.661-92.5 188.238-225.986 358.728-400.458 170.49-174.47 284.248-279.755 341.271-315.853 57.025 36.098 170.783 141.382 341.273 315.853 170.49 174.472 290.066 307.958 358.728 400.458L1906.653 1440c-89.609-42.866-217.04-96.26-382.294-160.183-175.727-68.435-277.846-102.653-306.36-102.653-28.512 0-130.63 34.218-306.358 102.653C746.388 1343.74 618.956 1397.134 529.346 1440zM529.346 756L518 732.31c68.661-92.5 188.238-225.985 358.728-400.457C1047.218 157.383 1160.976 52.097 1217.999 16c57.025 36.097 170.783 141.382 341.273 315.853C1729.762 506.325 1849.338 639.81 1918 732.31L1906.653 756c-89.609-42.865-217.04-96.26-382.294-160.183-175.727-68.435-277.846-102.651-306.36-102.651-28.512 0-130.63 34.216-306.358 102.651-165.253 63.924-292.685 117.318-382.295 160.183zM1921.5 1769c0 30.667-11 46.667-33 48-53.018.089-886.282 8.974-928.5 31l-348 184c-14.667-123.333-22-211-22-263s7.333-139.667 22-263l348 184c34 18 867.167 28.333 928.5 31 22 1.333 33 17.333 33 48z" />
</svg>