<svg xmlns="http://www.w3.org/2000/svg" viewBox="0 0 541.867 541.867" height="2048" width="2048">
   <path d="M499.533 507.47l-4.762 2.647c-27.34-23.284-55.034-47.89-83.08-73.82-14.287-13.228-35.1-33.69-62.441-61.382 12.17-13.759 32.985-34.22 62.442-61.384 28.046-25.929 55.739-50.535 83.079-73.819l4.762 2.646a24471.107 24471.107 0 01-27.516 65.352c-10.231 26.282-17.286 48.684-21.167 67.205 3.88 18.52 10.936 40.922 21.167 67.204a24469.71 24469.71 0 0127.516 65.352zm-153.458 0l-4.762 2.647c-27.34-23.284-55.034-47.89-83.08-73.82-14.287-13.228-35.101-33.69-62.441-61.382 12.17-13.759 32.984-34.22 62.441-61.384 28.046-25.929 55.74-50.535 83.08-73.819l4.762 2.646a24474.395 24474.395 0 01-27.517 65.352c-10.23 26.282-17.286 48.684-21.166 67.205 3.88 18.52 10.936 40.922 21.166 67.204 9.173 21.696 18.345 43.48 27.517 65.352zm-153.458 0l-4.763 2.647c-27.34-23.284-55.033-47.89-83.079-73.82-14.287-13.228-35.101-33.69-62.442-61.382 12.171-13.759 32.985-34.22 62.442-61.384 28.046-25.929 55.739-50.535 83.08-73.819l4.762 2.646A24474.4 24474.4 0 01165.1 307.71c-10.23 26.282-17.286 48.684-21.167 67.205 3.881 18.52 10.936 40.922 21.167 67.204 9.172 21.696 18.344 43.48 27.517 65.352zM62.442 245.798l94.72-50.006c7.409-3.881 16.581-5.91 27.517-6.086l293.952-4.762c4.41 0 6.615-3.528 6.615-10.584 0-7.055-2.205-10.583-6.615-10.583l-293.952-4.762c-10.936-.177-20.108-2.205-27.516-6.086l-94.721-50.006c-3.881 32.808-5.821 56.62-5.821 71.437s1.94 38.63 5.82 71.438zm137.054-87.445c7.055 0 10.76-4.762 10.848-7.144.088-2.38 58.473-113.903 58.473-113.903-31.221-3.704-54.328-5.556-69.321-5.556-14.993 0-38.1 1.852-69.321 5.556 0 0 58.385 111.522 58.473 113.903.088 2.382 3.792 7.144 10.848 7.144zm142.875 0c7.055 0 10.76-4.762 10.848-7.144.088-2.38 58.473-113.903 58.473-113.903-31.221-3.704-54.328-5.556-69.321-5.556-14.993 0-38.1 1.852-69.321 5.556 0 0 58.385 111.522 58.473 113.903.088 2.382 3.792 7.144 10.848 7.144z" />
</svg>