<svg xmlns="http://www.w3.org/2000/svg" viewBox="0 0 132.821 138.906" height="52.5" width="50.2">
   <path d="M88.774 22.621H62.946c-3.465 3.813-8.19 9.532-14.332 17.331h-4.252v-17.33H18.69a361.008 361.008 0 00-14.174 17.33H.265V.265h3.78C4.831.61 9.713 6.33 18.69 16.902h25.67V.265h4.096c.787.346 5.512 6.065 14.489 16.637h25.828V.265h3.78c.63.346 5.512 6.065 14.646 16.637h25.356v5.72H107.2c-5.04 5.718-5.04 5.718-14.331 17.33h-4.095zM93 92.033L115.529 136 47.942 90.335l67.587-48.119c-8.895 13.94-15.94 28.449-22.53 43.024h39.557v6.793zM.265 39.953h70.73L41.13 65.992v72.649H30.914v-72.65z" />
</svg>