<svg xmlns="http://www.w3.org/2000/svg" viewBox="0 0 541.867 541.867" height="2048" width="2048">
   <path d="M156.35 220.133l-2.892-5.557c17.493-21.695 47.956-53.003 91.39-93.926 43.432-40.922 72.413-65.616 86.94-74.083 14.528 8.467 43.508 33.16 86.941 74.083 43.434 40.923 73.897 72.231 91.388 93.926l-2.891 5.557c-22.828-10.055-55.292-22.578-97.391-37.57-44.768-16.051-70.783-24.077-78.046-24.077-7.264 0-33.28 8.026-78.048 24.076-42.098 14.993-74.562 27.517-97.392 37.57zM156.35 537.634l-2.892-5.557c17.493-21.695 47.956-53.004 91.39-93.927 43.432-40.922 72.413-65.616 86.94-74.083 14.528 8.467 43.508 33.16 86.941 74.083 43.434 40.923 73.897 72.232 91.388 93.927l-2.891 5.557c-22.828-10.055-55.292-22.578-97.391-37.571-44.768-16.051-70.783-24.077-78.046-24.077-7.264 0-33.28 8.026-78.048 24.077-42.098 14.993-74.562 27.517-97.392 37.57zM113.771 529.402c0 5.488-3.528 8.232-10.583 8.232-7.056 0-10.584-2.744-10.584-8.232-1.477-113.485-2.987-226.97-4.498-340.453l-.264-25.353c-.177-13.61-2.205-25.024-6.086-34.242L31.75 11.477c32.808-4.828 56.62-7.244 71.438-7.244 14.816 0 38.628 2.415 71.437 7.243l-50.006 117.876c-3.88 9.22-5.91 20.633-6.086 34.242l-.264 25.354c-1.523 113.484-3.009 226.969-4.498 340.454zM156.35 378.884l-2.892-5.557c17.493-21.695 47.956-53.004 91.39-93.927 43.432-40.922 72.413-65.616 86.94-74.083 14.528 8.467 43.508 33.16 86.941 74.083 43.434 40.923 73.897 72.232 91.388 93.927l-2.891 5.557c-22.828-10.055-55.292-22.578-97.391-37.571-44.768-16.051-70.783-24.077-78.046-24.077-7.264 0-33.28 8.026-78.048 24.077-42.098 14.993-74.562 27.517-97.392 37.57z" />
</svg>