<svg xmlns="http://www.w3.org/2000/svg" height="2048" width="2048" viewBox="-10 0 2048 2048">
   <path d="M376.424 16L466 306l50 160 60 70-50 50-70-60-160-50L6 386.462C122.362 233.738 239.975 123.671 376.424 16zM1966 2015.661L1946.793 2032c-75-98.873-183.232-271.063-324.695-516.569C1480.634 1269.925 1395.268 1106.114 1366 1024c29.268-82.115 114.634-245.925 256.098-491.431C1763.561 287.063 1871.793 114.873 1946.793 16L1966 32.339c-34.756 129.037-78.049 312.539-129.878 550.504-55.488 253.048-83.232 400.1-83.232 441.157 0 41.057 27.744 188.11 83.232 441.156 51.83 237.966 95.122 421.468 129.878 550.505zM1531.057 57.333l-189.002 399.545c-14.666 31.25-22.333 69.939-23 116.07l-18 1436.102c0 18.6-13.333 27.901-40 27.9-26.667 0-40-9.3-40-27.9l-18-1436.103c-.666-46.13-8.333-84.819-23-116.069l-189-399.545c124-16.37 214-24.553 270.001-24.553 55.999 0 146 8.184 270 24.552zM942 2015.661L922.793 2032c-75-98.873-183.232-271.063-324.695-516.569C456.634 1269.925 371.268 1106.114 342 1024c29.268-82.115 114.634-245.925 256.098-491.431C739.56 287.063 847.793 114.873 922.793 16L942 32.339c-34.756 129.037-78.049 312.539-129.878 550.504C756.634 835.892 728.89 982.944 728.89 1024c0 41.057 27.744 188.11 83.232 441.156 51.83 237.966 95.122 421.468 129.878 550.505z" />
</svg>