<?xml version="1.0" encoding="UTF-8" standalone="no"?>
<svg
   xmlns:dc="http://purl.org/dc/elements/1.1/"
   xmlns:cc="http://creativecommons.org/ns#"
   xmlns:rdf="http://www.w3.org/1999/02/22-rdf-syntax-ns#"
   xmlns:svg="http://www.w3.org/2000/svg"
   xmlns="http://www.w3.org/2000/svg"
   xmlns:sodipodi="http://sodipodi.sourceforge.net/DTD/sodipodi-0.dtd"
   xmlns:inkscape="http://www.inkscape.org/namespaces/inkscape"
   sodipodi:docname="000-004-061_ho.svg"
   inkscape:version="1.0 (4035a4fb49, 2020-05-01)"
   id="svg841"
   version="1.1"
   viewBox="0 0 541.86665 541.86668"
   height="2048"
   width="2048">
  <defs
     id="defs835" />
  <sodipodi:namedview
     inkscape:window-maximized="1"
     inkscape:window-y="-8"
     inkscape:window-x="-8"
     inkscape:window-height="1018"
     inkscape:window-width="1920"
     units="px"
     showgrid="false"
     inkscape:document-rotation="0"
     inkscape:current-layer="layer1"
     inkscape:document-units="px"
     inkscape:cy="1045.7143"
     inkscape:cx="1200"
     inkscape:zoom="0.35"
     inkscape:pageshadow="2"
     inkscape:pageopacity="0.0"
     borderopacity="1.0"
     bordercolor="#666666"
     pagecolor="#ffffff"
     id="base" />
  <metadata
     id="metadata838">
    <rdf:RDF>
      <cc:Work
         rdf:about="">
        <dc:format>image/svg+xml</dc:format>
        <dc:type
           rdf:resource="http://purl.org/dc/dcmitype/StillImage" />
        <dc:title></dc:title>
      </cc:Work>
    </rdf:RDF>
  </metadata>
  <g
     id="layer1"
     inkscape:groupmode="layer"
     inkscape:label="图层 1">
    <path
       id="path1492"
       d="m 146.05,181.23958 -48.94792,93.13334 c -4.05685,7.76102 -6.17351,17.10981 -6.34999,28.04583 L 87.31249,498.475 c 0,4.40981 -3.52768,6.61458 -10.58333,6.61458 -7.055637,0 -10.583327,-2.20477 -10.583327,-6.61458 l -3.43959,-196.05625 c -0.17647,-10.93602 -2.29314,-20.28481 -6.34999,-28.04583 L 7.4083333,181.23958 c 31.2208297,-3.70416 54.3276897,-5.55625 69.3208267,-5.55625 14.99316,0 38.1,1.85209 69.32084,5.55625 z"
       style="stroke-width:1" />
    <path
       id="path1490"
       d="m 287.86669,181.23958 -48.94792,93.13334 c -4.05686,7.76102 -6.17352,17.10981 -6.35,28.04583 L 229.12919,498.475 c 0,4.40981 -3.52769,6.61458 -10.58334,6.61458 -7.05564,0 -10.58333,-2.20477 -10.58333,-6.61458 l -3.43958,-196.05625 c -0.17648,-10.93602 -2.29315,-20.28481 -6.35,-28.04583 l -48.94792,-93.13334 c 31.22083,-3.70416 54.32769,-5.55625 69.32083,-5.55625 14.99315,0 38.1,1.85209 69.32084,5.55625 z"
       style="stroke-width:1" />
    <path
       id="path1488"
       d="m 147.10833,101.33542 c 0,8.11397 -2.91042,12.34731 -8.73125,12.7 -9.525,0.35269 -15.96311,0.88185 -19.31458,1.5875 -5.99731,1.05833 -12.17084,3.2631 -18.52084,6.61458 L 8.4666633,170.92083 c -3.88064,-32.63185 -5.82083,-55.82708 -5.82083,-69.58541 0,-13.758337 1.94019,-36.953564 5.82083,-69.58542 L 100.54166,80.433333 c 8.99584,4.7625 21.60773,7.49644 37.83542,8.202083 5.82083,0.35269 8.73125,4.586023 8.73125,12.700004 z"
       style="stroke-width:1;fill:#ff0000;fill-opacity:1" />
    <path
       id="path1486"
       d="m 292.62919,101.33542 c 0,8.11397 -2.91042,12.34731 -8.73125,12.7 -9.525,0.35269 -15.96311,0.88185 -19.31459,1.5875 -5.99731,1.05833 -12.17083,3.2631 -18.52083,6.61458 l -92.075,48.68333 c -3.88064,-32.63185 -5.82083,-55.82708 -5.82083,-69.58541 0,-13.758337 1.94019,-36.953564 5.82083,-69.58542 l 92.075,48.683333 c 8.99583,4.7625 21.60773,7.49644 37.83542,8.202083 5.82083,0.35269 8.73125,4.586023 8.73125,12.700004 z"
       style="stroke-width:1;fill:#ff0000;fill-opacity:1" />
    <path
       id="path1517"
       d="m 403.59451,507.73543 -3.99816,2.91041 c -26.18387,-26.63481 -57.22832,-60.58958 -93.13334,-101.86458 -18.34444,-21.16667 -28.61428,-33.07292 -30.80926,-35.71875 -11.60239,-13.75833 -21.08835,-26.45833 -28.45741,-38.1 9.25054,-14.46398 29.0061,-39.07023 59.26667,-73.81875 35.90502,-41.275 66.94947,-75.22977 93.13334,-101.86458 l 3.99816,2.91041 c -9.09392,26.63481 -16.85503,49.91815 -23.28334,69.85 -10.66165,32.63186 -16.14947,49.56519 -16.46297,50.8 -5.95795,19.57917 -10.19128,36.95356 -12.7,52.12292 2.97909,18.16814 12.7,52.47561 29.16297,102.92292 6.42831,19.93185 14.18942,43.21518 23.28334,69.85 z"
       style="stroke-width:0.249451" />
    <path
       id="path1515"
       d="m 527.65468,507.73543 -3.99815,2.91041 c -26.18388,-26.63481 -57.22832,-60.58958 -93.13334,-101.86458 -18.34445,-21.16667 -28.61428,-33.07292 -30.80927,-35.71875 -11.60239,-13.75833 -21.08835,-26.45833 -28.4574,-38.1 9.25054,-14.46398 29.0061,-39.07023 59.26667,-73.81875 35.90502,-41.275 66.94946,-75.22977 93.13334,-101.86458 l 3.99815,2.91041 c -9.09391,26.63481 -16.85502,49.91815 -23.28333,69.85 -10.66166,32.63186 -16.14947,49.56519 -16.46297,50.8 -5.95795,19.57917 -10.19128,36.95356 -12.7,52.12292 2.97909,18.16814 12.7,52.47561 29.16297,102.92292 6.42831,19.93185 14.18942,43.21518 23.28333,69.85 z"
       style="stroke-width:0.249451" />
    <path
       sodipodi:nodetypes="sccccsccccs"
       id="path2"
       d="m 532.60625,103.1875 c 0,7.40833 -2.29314,11.1125 -6.87916,11.1125 l -102.84738,4.23333 c -10.93602,0.17648 -20.10833,2.20477 -27.51666,6.08542 L 300.64222,174.625 c -3.88065,-32.80833 -5.82084,-56.62084 -5.82084,-71.4375 0,-14.81667 1.94019,-38.62917 5.82084,-71.4375 l 94.72083,50.00625 c 7.40833,3.88064 16.58064,5.90894 27.51666,6.08541 L 525.72709,92.075 c 4.58602,0 6.87916,3.70416 6.87916,11.1125 z"
       style="stroke-width:0.264583;fill:#0000ff;fill-opacity:1" />
  </g>
</svg>
