<?xml version="1.0" encoding="UTF-8" standalone="no"?>
<svg
   xmlns:dc="http://purl.org/dc/elements/1.1/"
   xmlns:cc="http://creativecommons.org/ns#"
   xmlns:rdf="http://www.w3.org/1999/02/22-rdf-syntax-ns#"
   xmlns:svg="http://www.w3.org/2000/svg"
   xmlns="http://www.w3.org/2000/svg"
   xmlns:sodipodi="http://sodipodi.sourceforge.net/DTD/sodipodi-0.dtd"
   xmlns:inkscape="http://www.inkscape.org/namespaces/inkscape"
   inkscape:version="1.0 (4035a4fb49, 2020-05-01)"
   sodipodi:docname="000-004-062_双连字号.svg"
   id="svg4"
   version="1.1"
   height="2048"
   width="2048"
   viewBox="-10 0 2048 2048">
  <metadata
     id="metadata10">
    <rdf:RDF>
      <cc:Work
         rdf:about="">
        <dc:format>image/svg+xml</dc:format>
        <dc:type
           rdf:resource="http://purl.org/dc/dcmitype/StillImage" />
        <dc:title></dc:title>
      </cc:Work>
    </rdf:RDF>
  </metadata>
  <defs
     id="defs8" />
  <sodipodi:namedview
     inkscape:current-layer="svg4"
     inkscape:window-maximized="1"
     inkscape:window-y="-8"
     inkscape:window-x="-8"
     inkscape:cy="1060.6122"
     inkscape:cx="331.77662"
     inkscape:zoom="0.2464242"
     showgrid="false"
     id="namedview6"
     inkscape:window-height="1018"
     inkscape:window-width="1920"
     inkscape:pageshadow="2"
     inkscape:pageopacity="0"
     guidetolerance="10"
     gridtolerance="10"
     objecttolerance="10"
     borderopacity="1"
     bordercolor="#666666"
     pagecolor="#ffffff" />
  <path
     id="path2"
     d="m 596,612 c -41.333,-0.667 -76,-8.333 -104,-23 L 134,400 c -14.667,124 -22,214 -22,270 0,56 7.333,146 22,270 L 492,751 c 28,-14.667 62.667,-22.333 104,-23 h 836 c 41.333,0.667 76,8.333 104,23 l 358,189 c 14.667,-124 22,-214 22,-270 0,-56 -7.333,-146 -22,-270 l -358,189 c -28,14.667 -62.667,22.333 -104,23 z" />
  <path
     d="m 596,1320 c -41.333,-0.667 -76,-8.333 -104,-23 L 134,1108 c -14.667,124 -22,214 -22,270 0,56 7.333,146 22,270 l 358,-189 c 28,-14.667 62.667,-22.333 104,-23 h 836 c 41.333,0.667 76,8.333 104,23 l 358,189 c 14.667,-124 22,-214 22,-270 0,-56 -7.333,-146 -22,-270 l -358,189 c -28,14.667 -62.667,22.333 -104,23 z"
     id="path2-2" />
</svg>
