<svg xmlns="http://www.w3.org/2000/svg" viewBox="0 0 541.867 541.867" height="2048" width="2048">
   <path d="M170.392 37.306l-48.948 93.134c-4.057 7.76-6.174 17.11-6.35 28.045l-3.44 196.057c0 4.41-3.528 6.614-10.583 6.614-7.056 0-10.583-2.205-10.583-6.614l-3.44-196.057c-.177-10.936-2.293-20.284-6.35-28.045L31.75 37.306c31.22-3.704 54.328-5.556 69.32-5.556 14.994 0 38.1 1.852 69.322 5.556zM345.546 440.531c0 8.114-2.91 12.348-8.731 12.7-9.525.353-185.297.882-188.648 1.588-5.998 1.058-12.171 3.263-18.521 6.614L37.57 510.117c-3.88-32.632-5.821-55.827-5.821-69.586 0-13.758 1.94-36.953 5.82-69.585l92.076 48.683c8.996 4.763 190.94 7.497 207.169 8.202 5.82.353 8.73 4.586 8.73 12.7zM338.629 197.38c0 7.055-2.205 10.583-6.615 10.583l-50.535 1.852c-8.996.176-18.345 2.822-28.046 7.937L160.3 266.7c-3.705-31.22-5.557-54.328-5.557-69.32 0-14.994 1.852-38.1 5.557-69.322l93.133 48.948c9.701 5.116 19.05 7.761 28.046 7.938l50.535 1.852c4.41 0 6.615 3.528 6.615 10.583zm0 142.874c0 7.056-2.205 10.583-6.615 10.583l-50.535 1.853c-8.996.176-18.345 2.822-28.046 7.937L160.3 409.575c-3.705-31.22-5.557-54.328-5.557-69.32 0-14.994 1.852-38.1 5.557-69.322l93.133 48.948c9.701 5.116 19.05 7.761 28.046 7.938l50.535 1.852c4.41 0 6.615 3.528 6.615 10.583zM510.117 477.573l-5.557 3.44q-32.543-31.221-93.927-108.744-61.383-77.523-74.083-103.452 12.7-25.93 74.083-103.452Q472.017 87.842 504.56 56.62l5.557 3.44q-15.082 40.745-37.571 115.887-24.077 79.904-24.077 92.869 0 12.964 24.077 92.868 22.49 75.142 37.57 115.888z" />
</svg>