<svg xmlns="http://www.w3.org/2000/svg" width="2048" height="2048" viewBox="0 0 541.867 541.867">
   <path d="M454.554 479.69l-5.557 3.44q-32.543-31.222-93.926-108.745-61.383-77.522-74.083-103.452 12.7-25.93 74.083-103.452 61.383-77.523 93.926-108.743l5.557 3.44q-15.082 40.745-37.57 115.887-24.077 79.904-24.077 92.868 0 12.965 24.076 92.87 22.49 75.14 37.57 115.887zM185.32 31.75c11.177 35.537 21.894 71.227 33.369 106.665 3.475 11.292 11.363 20.099 19.612 28.163 11.748 12.295 23.77 24.347 35.346 36.795 2.935 7.498-8.797 19.26-15.942 13.751-15.443-14.793-30.64-29.856-46.242-44.476-13.964-10.693-31.712-13.551-47.973-19.187l-76.177-23.693c20.966-26.472 42.212-53.15 68.786-74.3 9.593-8.086 19.37-15.95 29.222-23.718z" />
</svg>