<svg xmlns="http://www.w3.org/2000/svg" width="1536" height="2048" viewBox="0 0 406.4 541.867">
   <path d="M363.141 170.921c0 7.056-2.205 10.583-6.615 10.583l-197.247 4.762c-10.936.177-20.108 2.206-27.516 6.086l-94.72 50.006c-3.88-32.808-5.822-56.62-5.822-71.438 0-14.816 1.94-38.628 5.82-71.437l94.721 50.007c7.41 3.881 16.581 5.91 27.517 6.086l197.247 4.762c4.41 0 6.615 3.528 6.615 10.583zM363.141 318.56c0 7.054-2.205 10.582-6.615 10.582l-197.247 4.763c-10.936.176-20.108 2.204-27.516 6.085l-94.72 50.006c-3.88-32.808-5.822-56.62-5.822-71.437s1.94-38.63 5.82-71.438l94.722 50.007c7.408 3.88 16.58 5.908 27.516 6.085l197.247 4.763c4.41 0 6.615 3.527 6.615 10.583zM24.17 537.634l-3.003-6.269q27.25-36.71 94.913-105.954 67.664-69.243 90.295-83.57 22.632 14.327 90.295 83.57 67.663 69.244 94.914 105.954l-3.003 6.269q-35.563-17.014-101.148-42.382-69.742-27.16-81.058-27.16-11.315 0-81.057 27.16-65.585 25.37-101.149 42.38z" />
</svg>