<?xml version="1.0" encoding="UTF-8" standalone="no"?>
<svg
   xmlns:dc="http://purl.org/dc/elements/1.1/"
   xmlns:cc="http://creativecommons.org/ns#"
   xmlns:rdf="http://www.w3.org/1999/02/22-rdf-syntax-ns#"
   xmlns:svg="http://www.w3.org/2000/svg"
   xmlns="http://www.w3.org/2000/svg"
   xmlns:sodipodi="http://sodipodi.sourceforge.net/DTD/sodipodi-0.dtd"
   xmlns:inkscape="http://www.inkscape.org/namespaces/inkscape"
   inkscape:version="1.0 (4035a4fb49, 2020-05-01)"
   sodipodi:docname="000-004-062_ヰ.svg"
   id="svg4"
   version="1.1"
   height="2048"
   width="2048"
   viewBox="-10 0 2048 2048">
  <metadata
     id="metadata10">
    <rdf:RDF>
      <cc:Work
         rdf:about="">
        <dc:format>image/svg+xml</dc:format>
        <dc:type
           rdf:resource="http://purl.org/dc/dcmitype/StillImage" />
      </cc:Work>
    </rdf:RDF>
  </metadata>
  <defs
     id="defs8" />
  <sodipodi:namedview
     inkscape:current-layer="svg4"
     inkscape:window-maximized="1"
     inkscape:window-y="-8"
     inkscape:window-x="-8"
     inkscape:cy="864.00223"
     inkscape:cx="-86.758427"
     inkscape:zoom="0.15189994"
     showgrid="false"
     id="namedview6"
     inkscape:window-height="1018"
     inkscape:window-width="1920"
     inkscape:pageshadow="2"
     inkscape:pageopacity="0"
     guidetolerance="10"
     gridtolerance="10"
     objecttolerance="10"
     borderopacity="1"
     bordercolor="#666666"
     pagecolor="#ffffff" />
  <path
     id="path841"
     d="M 376.424,16 466,306 516,466 576,536 526,586 456,526 296,476 6,386.462 C 122.362,233.738 239.975,123.671 376.424,16 Z" />
  <path
     style="stroke-width:1.05596"
     id="path839"
     d="M 1966,2015.6613 1946.793,2032 c -75,-98.8732 -183.232,-271.0628 -324.695,-516.5688 C 1480.634,1269.9252 1395.268,1106.1141 1366,1024 1395.268,941.8848 1480.634,778.07476 1622.098,532.56878 1763.561,287.0628 1871.793,114.8732 1946.793,16 L 1966,32.338743 C 1931.244,161.37612 1887.951,344.87784 1836.122,582.84278 1780.634,835.89092 1752.89,982.94296 1752.89,1024 c 0,41.057 27.744,188.1102 83.232,441.1561 51.83,237.9661 95.122,421.4678 129.878,550.5052 z" />
  <path
     sodipodi:nodetypes="cccccccccccc"
     id="path837"
     d="M 1531.0568,57.332828 1342.0553,456.87809 c -14.6666,31.24932 -22.3337,69.9389 -23,116.06957 l -18.0002,1436.10224 c 8e-4,18.6009 -13.3326,27.9011 -40.0002,27.9005 -26.6665,2e-4 -39.9997,-9.3006 -39.9993,-27.9007 L 1203.0553,572.94673 c -0.6664,-46.12917 -8.3336,-84.81864 -22.9995,-116.06866 L 991.05554,57.333474 C 1115.0552,40.963762 1205.055,32.779557 1261.056,32.779722 c 55.9988,-5.43e-4 145.9999,8.184394 269.9996,24.552256 z" />
  <path
     style="stroke-width:1.05596"
     id="path2"
     d="M 942,2015.6613 922.793,2032 c -75,-98.8732 -183.232,-271.0628 -324.695,-516.5688 C 456.634,1269.9252 371.268,1106.1141 342,1024 371.268,941.8848 456.634,778.07476 598.098,532.56878 739.56,287.0628 847.793,114.8732 922.793,16 L 942,32.338743 C 907.244,161.37612 863.951,344.87784 812.122,582.84278 756.634,835.89204 728.89,982.94407 728.89,1024 c 0,41.057 27.744,188.1102 83.232,441.1561 51.83,237.9661 95.122,421.4678 129.878,550.5052 z" />
</svg>
