<svg xmlns="http://www.w3.org/2000/svg" viewBox="-10 0 2048 2048" width="2048" height="2048">
   <path d="M2025.576 722c-42.24-134.314-82.744-269.204-126.116-403.142-13.132-42.68-42.945-75.966-74.124-106.444-44.402-46.468-89.841-92.02-133.59-139.066-11.092-28.34 33.249-72.796 60.253-51.975 58.369 55.912 115.808 112.84 174.774 168.098 52.776 40.414 119.856 51.22 181.314 72.52L2396 351.537c-79.24 100.053-159.541 200.885-259.978 280.82-36.256 30.562-73.21 60.286-110.446 89.643zM1622 598l-189 358c-20.667 39.333-31.333 74-32 104l-9 307.5c0 16.667-13.333 25-40 25s-40-8.333-40-25l-9-307.5c-.667-30-11.333-64.667-32-104l-189-358c47.333-6 118.333-13 213-21l-1-77c-.667-41.333-8.333-76-23-104L1082 38c124-14.667 214-22 270-22s146 7.333 270 22l-189 358c-14.667 28-22.333 62.667-23 104l-1 77c39.333 2 110.333 9 213 21zM962 598L773 956c-20.667 39.333-31.333 74-32 104l-9 307.5c0 16.667-13.333 25-40 25s-40-8.333-40-25l-9-307.5c-.667-30-11.333-64.667-32-104L422 598c47.333-6 118.333-13 213-21l-1-77c-.667-41.333-8.333-76-23-104L422 38c124-14.667 214-22 270-22s146 7.333 270 22L773 396c-14.667 28-22.333 62.667-23 104l-1 77c39.333 2 110.333 9 213 21zM124.653 2032L110 2011c88.672-82 243.096-200.333 463.272-355S940.358 1408 1014 1376c73.642 32 220.552 125.333 440.728 280 220.176 154.667 374.6 273 463.272 355l-14.653 21c-115.725-38-280.293-85.333-493.706-142-226.939-60.667-358.82-91-395.641-91-36.822 0-168.702 30.333-395.64 91-213.414 56.667-377.982 104-493.707 142z" />
</svg>