<svg xmlns="http://www.w3.org/2000/svg" width="2048" height="2048" viewBox="0 0 541.867 541.867">
   <path d="M400.183 75.671c0 7.055-2.205 10.583-6.615 10.583l-85.593 2.381c-7.937.177-17.11 3-27.517 8.467l-94.72 50.006c-1.588-12.523-3.44-31.309-5.557-56.356l-20.373.264c-10.936.177-20.108 2.205-27.517 6.086l-94.72 50.006c-3.88-32.808-5.821-56.62-5.821-71.438 0-14.817 1.94-38.629 5.82-71.437l94.721 50.006c7.409 3.88 16.581 5.91 27.517 6.086l20.373.264c.53-10.407 2.381-29.192 5.556-56.356l94.721 50.006c10.407 5.468 19.579 8.29 27.517 8.467l85.593 2.381c4.41 0 6.615 3.528 6.615 10.583zM333.374 168.275l-50.006 94.72c-3.88 7.41-5.908 16.581-6.085 27.517l-4.763 238.787c0 4.41-3.528 6.615-10.583 6.615s-10.583-2.205-10.583-6.615l-4.762-238.786c-.177-10.936-2.205-20.108-6.085-27.517l-50.007-94.72c32.809-3.88 56.621-5.82 71.438-5.82s38.63 1.94 71.437 5.82zM174.624 168.275l-50.006 94.72c-3.88 7.41-5.909 16.581-6.086 27.517l-4.762 238.787c0 4.41-3.528 6.615-10.583 6.615-7.056 0-10.584-2.205-10.584-6.615l-4.762-238.786c-.177-10.936-2.205-20.108-6.086-27.517l-50.005-94.72c32.808-3.881 56.62-5.822 71.438-5.822 14.816 0 38.628 1.94 71.437 5.82zM504.826 533.31l-5.557 4.324c-21.695-26.161-53.004-71.72-93.927-136.677C364.42 336 339.726 292.66 331.259 270.932c8.467-21.726 33.161-65.067 74.083-130.024C446.265 75.95 477.574 30.392 499.269 4.233l5.557 4.324c-10.055 34.14-22.578 82.692-37.571 145.653-16.051 66.952-24.077 105.86-24.077 116.723s8.026 49.771 24.077 116.723c14.993 62.96 27.517 111.512 37.57 145.654z" />
</svg>