<svg xmlns="http://www.w3.org/2000/svg" viewBox="0 0 541.867 541.867" height="2048" width="2048">
   <path d="M207.963 270.933c0 8.114-5.821 12.524-8.731 12.7-2.91.177-108.744 56.886-108.744 56.886-3.88-32.632-5.821-55.827-5.821-69.586 0-13.758 1.94-36.953 5.82-69.585 0 0 105.834 56.709 108.745 56.885 2.91.177 8.73 4.586 8.73 12.7zM296.334 11.477l-50.007 117.874c-3.88 9.22-5.91 20.634-6.085 34.244l-4.762 365.807c0 5.488-3.528 8.232-10.584 8.232-7.055 0-10.583-2.744-10.583-8.232l-4.763-365.808c-.176-13.609-2.204-25.023-6.085-34.242L153.459 11.477c32.808-4.83 56.62-7.244 71.437-7.244s38.63 2.415 71.438 7.243zM457.2 533.31l-5.556 4.324q-32.543-39.242-93.927-136.677-61.383-97.434-74.083-130.025 12.7-32.589 74.083-130.024Q419.1 43.472 451.644 4.233l5.557 4.324q-15.082 51.21-37.571 145.653-24.077 100.428-24.077 116.722 0 16.295 24.077 116.725 22.49 94.44 37.57 145.653z" />
</svg>