<svg xmlns="http://www.w3.org/2000/svg" height="2048" width="1536" viewBox="-10 0 1536 2048">
   <path d="M1441.5 703c0 30.667-11 46.667-33 48-53.018.089-946.282 8.974-988.5 31L72 966C57.333 842.667 50 755 50 703s7.333-139.667 22-263l348 184c34 18 927.167 28.333 988.5 31 22 1.333 33 17.333 33 48zM61.346 2030.789L50 2007.075c68.662-92.599 188.238-226.227 358.728-400.885C579.218 1431.533 692.976 1326.136 750 1290c57.024 36.136 170.781 141.533 341.272 316.19 170.49 174.658 290.066 308.286 358.728 400.885l-11.346 23.714c-89.61-42.912-217.041-96.362-382.295-160.354-175.727-68.508-277.847-102.762-306.359-102.762-28.513 0-130.632 34.254-306.358 102.762-165.255 63.992-292.686 117.442-382.296 160.354zM61.346 1540.79L50 1517.074c68.662-92.599 188.238-226.226 358.728-400.885C579.218 941.533 692.976 836.136 750 800c57.024 36.136 170.781 141.533 341.272 316.19 170.49 174.659 290.066 308.286 358.728 400.885l-11.346 23.714c-89.61-42.911-217.041-96.362-382.295-160.354-175.727-68.508-277.847-102.761-306.359-102.761-28.513 0-130.632 34.253-306.358 102.761-165.255 63.992-292.686 117.443-382.296 160.354z" />
</svg>