<svg xmlns="http://www.w3.org/2000/svg" width="2048" height="2048" viewBox="0 0 541.867 541.867">
   <path d="M510.117 533.31l-5.557 4.324q-32.543-39.242-93.927-136.677-61.383-97.434-74.083-130.025 12.7-32.589 74.083-130.024Q472.017 43.472 504.56 4.233l5.557 4.324q-15.082 51.21-37.571 145.653-24.077 100.428-24.077 116.722 0 16.295 24.077 116.725 22.49 94.44 37.57 145.653zM367.355 342.371c0 7.055-2.205 10.583-6.615 10.583l-50.535 1.852c-8.996.177-18.345 2.822-28.046 7.938l-93.133 48.948c-3.704-31.221-5.556-54.328-5.556-69.321 0-14.993 1.852-38.1 5.556-69.321l93.133 48.948c9.701 5.115 19.05 7.761 28.046 7.937l50.535 1.853c4.41 0 6.615 3.527 6.615 10.583zM367.355 199.496c0 7.055-2.205 10.583-6.615 10.583l-50.535 1.852c-8.996.177-18.345 2.822-28.046 7.938l-93.133 48.948c-3.704-31.221-5.556-54.328-5.556-69.321 0-14.993 1.852-38.1 5.556-69.321l93.133 48.948c9.701 5.115 19.05 7.761 28.046 7.937l50.535 1.852c4.41 0 6.615 3.528 6.615 10.584zM174.625 195.862l-50.006 117.875q-8.202 19.426-8.467 34.243l-2.381 181.422q0 8.232-10.583 8.232-10.584 0-10.584-8.232L90.223 347.98q-.265-14.816-8.467-34.243L31.75 195.864q18.785-2.964 56.356-6.915l-.264-25.353q-.265-20.414-6.086-34.242L31.75 11.477q49.212-7.244 71.438-7.244 22.224 0 71.437 7.243l-50.006 117.876q-5.821 13.829-6.086 34.242l-.264 25.354q15.61.988 56.356 6.914z" />
</svg>