<svg xmlns="http://www.w3.org/2000/svg" viewBox="-10 0 2048 2048" width="2048" height="2048">
   <path d="M1284 1335c-26.667 0-40-8.333-40-25l-7-711c-.667-34-10.667-69.333-30-106l-185-352c118-14 205.333-21 262-21s144 7 262 21l-185 352c-19.333 36.667-29.333 72-30 106l-7 711c0 16.667-13.333 25-40 25zm-540 0c-26.667 0-40-8.333-40-25l-7-711c-.667-34-10.667-69.333-30-106L482 141c118-14 205.333-21 262-21s144 7 262 21L821 493c-19.333 36.667-29.333 72-30 106l-7 711c0 16.667-13.333 25-40 25zM225 1928l-13-21q118-123 411-355t391-280q98 48 391 280t411 355l-13 21q-154-57-438-142-302-91-351-91t-351 91q-284 85-438 142z" />
</svg>