<svg xmlns="http://www.w3.org/2000/svg" height="2048" width="2048" viewBox="-10 0 2048 2048">
   <path d="M1878 1918l-18 10c-103.333-88-208-181-314-279-54-50-132.667-127.333-236-232 46-52 124.667-129.333 236-232 106-98 210.667-191 314-279l18 10c-34.667 82.667-69.333 165-104 247-38.667 99.333-65.333 184-80 254 14.667 70 41.333 154.667 80 254 34.667 82 69.333 164.333 104 247zm-580 0l-18 10c-103.333-88-208-181-314-279-54-50-132.667-127.333-236-232 46-52 124.667-129.333 236-232 106-98 210.667-191 314-279l18 10c-34.667 82.667-69.333 165-104 247-38.667 99.333-65.333 184-80 254 14.667 70 41.333 154.667 80 254 34.667 82 69.333 164.333 104 247zm-580 0l-18 10c-103.333-88-208-181-314-279-54-50-132.667-127.333-236-232 46-52 124.667-129.333 236-232 106-98 210.667-191 314-279l18 10c-34.667 82.667-69.333 165-104 247-38.667 99.333-65.333 184-80 254 14.667 70 41.333 154.667 80 254 34.667 82 69.333 164.333 104 247z" fill="currentColor" />
</svg>