<svg xmlns="http://www.w3.org/2000/svg" width="2048" height="2048" viewBox="0 0 541.867 541.867">
   <path d="M509.985 103.188c0 7.055-2.205 10.583-6.615 10.583l-46.189 2.381c-7.937.177-17.11 2.999-27.517 8.467l-94.72 50.006c-1.588-12.523-3.44-31.309-5.557-56.356l-20.373.264c-10.936.177-20.108 2.205-27.517 6.086l-94.72 50.006c-3.88-32.808-5.821-56.62-5.821-71.438 0-14.817 1.94-38.629 5.82-71.437l94.721 50.006c7.409 3.88 16.581 5.91 27.517 6.086l20.373.264c.53-10.407 2.381-29.192 5.556-56.356l94.721 50.006c10.407 5.468 19.579 8.29 27.517 8.467l46.189 2.381c4.41 0 6.615 3.528 6.615 10.583zM327.27 517.046l-4.498 2.91c-29.457-26.634-64.382-60.589-104.775-101.864-20.637-21.167-32.19-33.073-34.66-35.719-13.053-13.758-23.725-26.458-32.015-38.1 10.407-14.464 32.632-39.07 66.675-73.818 40.393-41.275 75.318-75.23 104.775-101.865l4.498 2.91c-10.23 26.635-18.962 49.92-26.194 69.85-11.994 32.632-18.168 49.566-18.52 50.8-6.703 19.58-11.466 36.954-14.288 52.123 3.351 18.168 14.287 52.476 32.808 102.923 7.232 19.932 15.963 43.215 26.194 69.85zM496.604 517.046l-4.498 2.91c-29.457-26.634-64.382-60.589-104.775-101.864-20.637-21.167-32.19-33.073-34.66-35.719-13.053-13.758-23.725-26.458-32.015-38.1 10.407-14.464 32.632-39.07 66.675-73.818 40.393-41.275 75.318-75.23 104.775-101.865l4.498 2.91c-10.23 26.635-18.962 49.92-26.194 69.85-11.994 32.632-18.168 49.566-18.52 50.8-6.703 19.58-11.466 36.954-14.288 52.123 3.35 18.168 14.287 52.476 32.808 102.923 7.232 19.932 15.963 43.215 26.194 69.85zM174.624 37.571l-50.005 94.72c-2.999 5.469-4.939 12.789-5.821 21.961 11.465.53 29.633 2.293 54.504 5.292l-50.006 94.72c-4.233 7.938-6.527 17.64-6.88 29.105 9.35.353 27.87 2.205 55.563 5.556l-50.006 94.72c-4.763 9.173-7.232 16.935-7.408 23.284l-.794 96.441c0 4.41-3.528 6.614-10.583 6.614-7.056 0-10.584-2.204-10.584-6.614l-.794-96.441c-.176-6.35-2.645-14.111-7.408-23.283l-50.006-94.721c12.347-1.587 30.867-3.44 55.562-5.556-.353-11.465-2.647-21.167-6.88-29.104l-50.004-94.721c12.17-1.411 30.339-3.175 54.504-5.292-.882-9.172-2.822-16.492-5.82-21.96L31.75 37.571c32.809-3.88 56.621-5.821 71.438-5.821s38.629 1.94 71.437 5.82z" />
</svg>