<svg xmlns="http://www.w3.org/2000/svg" viewBox="0 0 541.867 541.867" height="2048" width="2048">
   <path d="M446.352 507.487l-4.498 2.63c-29.457-24.068-64.382-54.75-104.775-92.047-20.637-19.126-32.19-29.885-34.66-32.276-13.053-12.432-23.725-23.908-32.015-34.427 10.407-13.07 32.632-35.305 66.675-66.704 40.393-37.297 75.318-67.979 104.775-92.046l4.498 2.63c-10.23 24.067-18.962 45.106-26.194 63.117-11.994 29.487-18.168 44.788-18.52 45.904-6.703 17.692-11.466 33.391-14.288 47.099 3.351 16.417 14.287 47.417 32.808 93.002 7.232 18.011 15.963 39.05 26.194 63.118zm-174.625 0l-4.498 2.63c-29.457-24.068-64.382-54.75-104.775-92.047-20.637-19.126-32.19-29.885-34.66-32.276-13.053-12.432-23.725-23.908-32.015-34.427 10.407-13.07 32.632-35.305 66.675-66.704 40.393-37.297 75.318-67.979 104.775-92.046l4.498 2.63c-10.23 24.067-18.962 45.106-26.194 63.117-11.994 29.487-18.168 44.788-18.52 45.904-6.703 17.692-11.466 33.391-14.288 47.099 3.351 16.417 14.287 47.417 32.808 93.002 7.232 18.011 15.963 39.05 26.194 63.118zM62.442 245.798l94.72-50.006c7.409-3.881 16.581-5.91 27.517-6.086l293.952-4.762c4.41 0 6.615-3.528 6.615-10.584 0-7.055-2.205-10.583-6.615-10.583l-293.952-4.762c-10.936-.177-20.108-2.205-27.516-6.086l-94.721-50.006c-3.881 32.808-5.821 56.62-5.821 71.437s1.94 38.63 5.82 71.438zm137.054-87.445c7.055 0 10.76-4.762 10.848-7.144.088-2.38 58.473-113.903 58.473-113.903-31.221-3.704-54.328-5.556-69.321-5.556-14.993 0-38.1 1.852-69.321 5.556 0 0 58.385 111.522 58.473 113.903.088 2.382 3.792 7.144 10.848 7.144zm142.875 0c7.055 0 10.76-4.762 10.848-7.144.088-2.38 58.473-113.903 58.473-113.903-31.221-3.704-54.328-5.556-69.321-5.556-14.993 0-38.1 1.852-69.321 5.556 0 0 58.385 111.522 58.473 113.903.088 2.382 3.792 7.144 10.848 7.144z" />
</svg>