<svg xmlns="http://www.w3.org/2000/svg" height="2048" width="2048" viewBox="-10 0 2048 2048">
   <path d="M1014 214c-56 0-146 7.333-270 22l189 358c14.667 28 22.333 62.667 23 104l4 272-364-4c-41.333-.667-76-8.333-104-23L134 754c-14.667 124-22 214-22 270s7.333 146 22 270l358-189c28-14.667 62.667-22.333 104-23l366-4 12 731c0 16.667 13.333 25 40 25s40-8.333 40-25l12-731 366 4c41.333.667 76 8.333 104 23l358 189c14.667-124 22-214 22-270s-7.333-146-22-270l-358 189c-28 14.667-62.667 22.333-104 23l-364 4 4-272c.667-41.333 8.333-76 23-104l189-358c-124-14.667-214-22-270-22z" />
</svg>