<svg xmlns="http://www.w3.org/2000/svg" viewBox="-10 0 2048 2048" width="2048" height="2048">
   <path d="M1422.286 956c-.667-41.333-8.333-76-23-104l-189-358c124-14.667 214-22 270-22s146 7.333 270 22l-189 358c-14.667 28-22.333 62.667-23 104v136c.667 41.333 8.333 76 23 104l189 358c-124 14.667-214 22-270 22s-146-7.333-270-22l189-358c14.667-28 22.333-62.667 23-104zM879.565 0c103.738 95.2 206.26 191.766 310.79 286.073 32.714 30.397 75.175 44.316 117.416 55.121 61.687 18.042 123.815 34.772 185.225 53.64 23.776 18.997 7.604 79.668-26.193 75.138-78.505-19.236-156.712-39.818-235.407-58.19-65.913-8.611-129.408 15.571-193.283 27.853L744 506.042c18.597-126.268 37.724-253.742 84.738-373.185C844.855 88.261 861.996 44.042 879.565 0zM879.565 2047.042c103.738-95.199 206.26-191.765 310.79-286.073 32.714-30.397 75.175-44.316 117.416-55.121 61.687-18.041 123.815-34.771 185.225-53.64 23.776-18.997 7.604-79.667-26.193-75.138-78.505 19.237-156.712 39.818-235.407 58.19-65.913 8.612-129.408-15.57-193.283-27.853L744 1541c18.597 126.269 37.724 253.742 84.738 373.185 16.117 44.597 33.258 88.816 50.827 132.857z" />
</svg>