<svg xmlns="http://www.w3.org/2000/svg" width="2048" height="2048" viewBox="0 0 541.867 541.867">
   <path d="M62.177 537.634l-3.44-5.557c20.814-21.695 57.062-53.004 108.744-93.927 51.682-40.922 86.166-65.616 103.452-74.083 17.286 8.467 51.77 33.16 103.452 74.083 51.682 40.923 87.93 72.232 108.744 93.927l-3.44 5.557c-27.163-10.055-65.793-22.578-115.887-37.571-53.27-16.052-84.226-24.077-92.869-24.077s-39.6 8.025-92.868 24.077c-50.095 14.993-88.724 27.517-115.888 37.57zM62.177 386.292l-3.44-5.556c20.814-21.696 57.062-53.005 108.744-93.927 51.682-40.922 86.166-65.617 103.452-74.083 17.286 8.466 51.77 33.16 103.452 74.083 51.682 40.922 87.93 72.231 108.744 93.927l-3.44 5.556c-27.163-10.054-65.793-22.577-115.887-37.57-53.27-16.052-84.226-24.078-92.869-24.078s-39.6 8.026-92.868 24.078c-50.095 14.993-88.724 27.516-115.888 37.57zM195.263 215.901c-7.056 0-10.584-2.205-10.584-6.615l-4.762-76.994c-.177-10.936-2.205-20.108-6.086-27.516l-50.006-94.722c32.808-3.88 56.62-5.82 71.438-5.82 14.816 0 38.629 1.94 71.437 5.82l-50.006 94.721c-3.88 7.408-5.91 16.58-6.086 27.516l-4.762 76.994c0 4.41-3.528 6.615-10.584 6.615zM342.37 215.901c-7.055 0-10.582-2.205-10.582-6.615l-4.763-76.994c-.176-10.936-2.205-20.108-6.085-27.516l-50.007-94.722c32.809-3.88 56.621-5.82 71.438-5.82s38.629 1.94 71.437 5.82l-50.006 94.721c-3.88 7.408-5.909 16.58-6.085 27.516l-4.763 76.994c0 4.41-3.528 6.615-10.583 6.615zM668.72 102.241c-35.537 11.176-71.226 21.893-106.664 33.369-11.293 3.474-20.1 11.362-28.163 19.612-12.295 11.748-24.347 23.77-36.795 35.345-7.498 2.935-19.26-8.797-13.752-15.942 14.794-15.443 29.856-30.64 44.476-46.242 10.693-13.964 13.552-31.712 19.188-47.973l23.692-76.177c26.473 20.966 53.151 42.212 74.3 68.786 8.087 9.593 15.951 19.37 23.719 29.222z" />
</svg>