<?xml version="1.0" encoding="UTF-8" standalone="no"?>
<svg
   xmlns:dc="http://purl.org/dc/elements/1.1/"
   xmlns:cc="http://creativecommons.org/ns#"
   xmlns:rdf="http://www.w3.org/1999/02/22-rdf-syntax-ns#"
   xmlns:svg="http://www.w3.org/2000/svg"
   xmlns="http://www.w3.org/2000/svg"
   xmlns:sodipodi="http://sodipodi.sourceforge.net/DTD/sodipodi-0.dtd"
   xmlns:inkscape="http://www.inkscape.org/namespaces/inkscape"
   sodipodi:docname="000-004-061_pa.svg"
   inkscape:version="1.0 (4035a4fb49, 2020-05-01)"
   id="svg841"
   version="1.1"
   viewBox="0 0 541.86665 541.86668"
   height="2048"
   width="2048">
  <defs
     id="defs835" />
  <sodipodi:namedview
     inkscape:window-maximized="1"
     inkscape:window-y="-8"
     inkscape:window-x="-8"
     inkscape:window-height="1018"
     inkscape:window-width="1920"
     units="px"
     showgrid="false"
     inkscape:document-rotation="0"
     inkscape:current-layer="layer1"
     inkscape:document-units="px"
     inkscape:cy="1045.7143"
     inkscape:cx="1085.7143"
     inkscape:zoom="0.35"
     inkscape:pageshadow="2"
     inkscape:pageopacity="0.0"
     borderopacity="1.0"
     bordercolor="#666666"
     pagecolor="#ffffff"
     id="base" />
  <metadata
     id="metadata838">
    <rdf:RDF>
      <cc:Work
         rdf:about="">
        <dc:format>image/svg+xml</dc:format>
        <dc:type
           rdf:resource="http://purl.org/dc/dcmitype/StillImage" />
        <dc:title></dc:title>
      </cc:Work>
    </rdf:RDF>
  </metadata>
  <g
     id="layer1"
     inkscape:groupmode="layer"
     inkscape:label="图层 1">
    <path
       style="stroke-width:0.264583"
       d="m 176.2125,103.98125 c 0,8.11397 -2.91042,12.34731 -8.73125,12.7 -9.525,0.35269 -15.96311,0.88185 -19.31458,1.5875 -5.99731,1.05833 -12.17084,3.2631 -18.52084,6.61458 l -92.075,48.68333 C 33.69019,140.93481 31.75,117.73958 31.75,103.98125 c 0,-13.758337 1.94019,-36.953557 5.82083,-69.585417 l 92.075,48.68333 c 8.99584,4.7625 21.60773,7.49644 37.83542,8.20209 5.82083,0.35269 8.73125,4.58602 8.73125,12.699997 z m -1.05833,79.90416 -48.94792,93.13334 c -4.05686,7.76102 -6.17352,17.10981 -6.35,28.04583 l -3.43958,196.05625 c 0,4.40981 -3.52769,6.61458 -10.58334,6.61458 -7.05564,0 -10.58333,-2.20477 -10.58333,-6.61458 L 91.81042,305.06458 c -0.17648,-10.93602 -2.29315,-20.28481 -6.35,-28.04583 L 36.5125,183.88541 c 31.22083,-3.70416 54.32769,-5.55625 69.32083,-5.55625 14.99315,0 38.1,1.85209 69.32084,5.55625 z"
       id="path2" />
    <path
       d="m 383.64604,62.441823 -50.00697,94.719947 c -3.88,7.40899 -5.91,16.58099 -6.085,27.51698 l -4.762,293.95181 c 0,4.40999 -3.52799,6.615 -10.58399,6.615 -7.05499,0 -10.58299,-2.20501 -10.58299,-6.615 l -4.763,-293.95181 c -0.176,-10.93599 -2.204,-20.10799 -6.085,-27.51598 L 240.77113,62.441823 c 32.80798,-3.881 56.61996,-5.82099 71.43695,-5.82099 14.81699,0 38.62998,1.93999 71.43796,5.81999 z M 295.27509,270.93269 c 0,8.114 -5.82099,12.524 -8.73099,12.7 -2.91,0.177 -108.74393,56.88595 -108.74393,56.88595 -3.88,-32.63197 -5.821,-55.82695 -5.821,-69.58595 0,-13.75798 1.94,-36.95297 5.82,-69.58495 0,0 105.83393,56.70896 108.74493,56.88496 2.91,0.177 8.72999,4.586 8.72999,12.69999 z"
       style="stroke-width:1"
       id="path1427" />
    <path
       id="path2-7"
       d="m 510.11611,479.68955 -5.55602,3.44001 Q 472.01711,451.90759 410.63317,374.38462 349.2502,296.86268 336.55021,270.93269 349.2502,245.00371 410.63317,167.48076 472.01613,89.957803 504.56009,58.737823 l 5.557,3.44 q -15.082,40.744977 -37.57097,115.886927 -24.07698,79.90395 -24.07698,92.86794 0,12.965 24.07698,92.86994 22.48998,75.13995 37.56999,115.88692 z"
       style="stroke-width:1" />
  </g>
</svg>
