<svg xmlns="http://www.w3.org/2000/svg" height="2048" width="1536" viewBox="-10 0 1536 2048">
   <path d="M1378 550c0 28-8.667 42-26 42l-758 16c-41.333.667-76 8.333-104 23L132 820c-14.667-124-22-214-22-270s7.333-146 22-270l358 189c28 14.667 62.667 22.333 104 23l758 16c17.333 0 26 14 26 42zM1366 2020.404L1349.23 2032c-109.826-106.124-240.04-241.416-390.64-405.873-76.945-84.338-120.02-131.778-129.228-142.32C780.697 1428.988 740.909 1378.386 710 1332c38.8-57.631 121.664-155.673 248.59-294.127 150.6-164.457 280.814-299.749 390.64-405.873l16.77 11.596c-38.144 106.126-70.697 198.897-97.66 278.313-44.72 130.02-67.738 197.49-69.053 202.41-24.99 78.012-42.746 147.24-53.269 207.682 12.496 72.389 53.27 209.085 122.322 410.09 26.963 79.416 59.516 172.188 97.66 278.313zM766 2020.404L749.23 2032c-109.826-106.124-240.04-241.416-390.64-405.873-76.945-84.338-120.02-131.778-129.228-142.32C180.697 1428.988 140.91 1378.386 110 1332c38.8-57.631 121.664-155.673 248.59-294.127C509.19 873.416 639.403 738.124 749.23 632L766 643.596c-38.144 106.126-70.697 198.897-97.66 278.313-44.72 130.02-67.738 197.49-69.053 202.41-24.99 78.012-42.746 147.24-53.269 207.681 12.496 72.39 53.27 209.086 122.322 410.09 26.963 79.417 59.516 172.188 97.66 278.314z" />
</svg>