<svg xmlns="http://www.w3.org/2000/svg" height="2048" width="2048" viewBox="-10 0 2048 2048">
   <path d="M1921.5 1769c0 30.667-11 46.667-33 48-53.018.089-886.282 8.974-928.5 31l-348 184c-14.667-123.333-22-211-22-263s7.333-139.667 22-263l348 184c34 18 867.167 28.333 928.5 31 22 1.333 33 17.333 33 48zM1921.5 1113c0 30.667-11 46.667-33 48-53.018.089-886.282 8.974-928.5 31l-348 184c-14.667-123.333-22-211-22-263s7.333-139.667 22-263l348 184c34 18 867.167 28.333 928.5 31 22 1.333 33 17.333 33 48zM420 2004.116c0 18.59-13.332 27.884-39.998 27.884-26.669 0-40.003-9.294-40.003-27.884L322.001 555.832c-.668-46.101-8.335-84.767-23.002-115.998L110 40.539C233.999 24.18 324 16 380.002 16 435.999 16 525.999 24.178 650 40.534L461 439.831c-14.665 31.233-22.333 69.898-23 115.997zM529.346 756L518 732.31c68.662-92.5 188.238-225.985 358.728-400.457C1047.218 157.383 1160.976 52.097 1218 16c57.024 36.097 170.782 141.382 341.271 315.853C1729.761 506.325 1849.34 639.81 1918 732.31L1906.654 756c-89.61-42.865-217.041-96.26-382.294-160.183-175.728-68.435-277.847-102.651-306.36-102.651-28.513 0-130.632 34.216-306.36 102.651C746.388 659.74 618.957 713.134 529.347 756zM2744 386.424c-134.314 42.24-269.204 82.744-403.142 126.116-42.68 13.132-75.966 42.945-106.444 74.124-46.468 44.402-92.02 89.841-139.066 133.59-28.34 11.092-72.796-33.249-51.975-60.253 55.912-58.369 112.84-115.808 168.098-174.774 40.414-52.776 51.22-119.856 72.52-181.314L2373.537 16c100.053 79.24 200.885 159.541 280.82 259.978 30.562 36.256 60.286 73.21 89.643 110.446z" />
</svg>