<svg xmlns="http://www.w3.org/2000/svg" viewBox="0 0 541.867 541.867" height="2048" width="2048">
   <path d="M174.624 175.983L124.619 281.63c-5.468 11.608-8.29 21.838-8.467 30.691l-2.381 217.935c0 4.918-3.528 7.378-10.583 7.378-7.056 0-10.584-2.46-10.584-7.378L90.223 312.32c-.177-8.852-2.999-19.083-8.467-30.69L31.75 175.984c12.523-1.77 31.309-3.837 56.356-6.198l-.264-22.723c-.177-12.197-2.205-22.427-6.086-30.69L31.75 10.725c32.808-4.328 56.62-6.493 71.438-6.493 14.816 0 38.628 2.164 71.437 6.492l-50.006 105.647c-3.88 8.264-5.91 18.494-6.086 30.691l-.264 22.723c10.407.591 29.192 2.656 56.356 6.197zM510.117 534.566l-4.437 3.068c-29.058-28.078-63.51-63.874-103.357-107.387-20.358-22.315-31.754-34.867-34.191-37.656-12.876-14.504-23.404-27.893-31.582-40.166 10.266-15.248 32.19-41.188 65.773-77.82 39.846-43.513 74.299-79.31 103.357-107.388l4.437 3.068c-10.092 28.079-18.705 52.626-25.84 73.637-11.831 34.401-17.922 52.253-18.269 53.554-6.612 20.642-11.31 38.958-14.094 54.95 3.304 19.152 14.093 55.32 32.363 108.503 7.135 21.012 15.747 45.558 25.84 73.637zM324.38 534.566l-4.438 3.068c-29.058-28.078-63.51-63.874-103.357-107.387-20.357-22.315-31.754-34.867-34.19-37.656-12.877-14.504-23.405-27.893-31.582-40.166 10.266-15.248 32.19-41.188 65.772-77.82 39.847-43.513 74.299-79.31 103.357-107.388l4.437 3.068c-10.091 28.079-18.705 52.626-25.84 73.637-11.83 34.401-17.921 52.253-18.268 53.554-6.613 20.642-11.311 38.958-14.095 54.95 3.306 19.152 14.094 55.32 32.364 108.503 7.134 21.012 15.747 45.558 25.84 73.637zM509.985 75.671c0 7.055-2.205 10.583-6.615 10.583l-41.937 2.381c-7.937.177-17.11 3-27.517 8.467l-94.72 50.006c-1.588-12.523-3.44-31.309-5.557-56.356l-20.373.264c-10.936.177-20.108 2.205-27.517 6.086l-94.72 50.006c-3.88-32.808-5.82-56.62-5.82-71.438 0-14.817 1.94-38.629 5.82-71.437l94.72 50.006c7.41 3.88 16.581 5.91 27.517 6.086l20.373.264c.53-10.407 2.381-29.192 5.556-56.356l94.721 50.006c10.407 5.468 19.58 8.29 27.517 8.467l41.937 2.381c4.41 0 6.615 3.528 6.615 10.583z" />
</svg>