<svg xmlns="http://www.w3.org/2000/svg" viewBox="0 0 541.867 541.867" height="2048" width="2048">
   <path d="M283.634 183.885l-48.948 93.134c-4.057 7.76-6.173 17.11-6.35 28.046l-3.44 196.056c0 4.41-3.527 6.614-10.583 6.614-7.055 0-10.583-2.204-10.583-6.614l-3.44-196.056c-.176-10.936-2.293-20.285-6.35-28.046l-48.947-93.134c31.22-3.704 54.327-5.556 69.32-5.556 14.993 0 38.1 1.852 69.321 5.556zM348.193 103.981c0 8.114-2.91 12.348-8.732 12.7-9.525.353-121.796.882-125.147 1.588-5.998 1.058-12.171 3.263-18.521 6.614l-92.076 48.684c-3.88-32.632-5.821-55.827-5.821-69.586 0-13.758 1.94-36.953 5.82-69.585l92.076 48.683c8.996 4.763 127.441 7.497 143.668 8.202 5.821.353 8.731 4.586 8.731 12.7zM443.971 479.69l-5.557 3.44c-21.695-20.815-53.004-57.063-93.927-108.745-40.922-51.681-65.616-86.165-74.083-103.452 8.467-17.286 33.161-51.77 74.083-103.452 40.923-51.682 72.232-87.93 93.927-108.743l5.557 3.44c-10.054 27.163-22.578 65.792-37.57 115.887-16.052 53.27-24.078 84.225-24.078 92.868s8.026 39.6 24.077 92.87c14.994 50.093 27.517 88.722 37.57 115.887z" />
</svg>