<svg xmlns="http://www.w3.org/2000/svg" viewBox="-10 0 2048 2048" width="2048" height="2048">
   <path d="M1014 681c-30.667 0-46.667-11-48-33-.169-52.608-9.118-101.035-31-143L751 157c123.333-14.667 211-22 263-22s139.667 7.333 263 22l-184 348c-18 34-28.333 81.667-31 143-1.333 22-17.333 33-48 33zm0 560c-30.667 0-46.667-11-48-33-.149-52.98-8.983-100.799-31-143L751 717c123.333-14.667 211-22 263-22s139.667 7.333 263 22l-184 348c-18 34-28.333 81.667-31 143-1.333 22-17.333 33-48 33zm-789 672l-13-21c78.667-82 215.667-200.333 411-355s325.667-248 391-280c65.333 32 195.667 125.333 391 280s332.333 273 411 355l-13 21c-102.667-38-248.667-85.333-438-142-201.333-60.667-318.333-91-351-91-32.667 0-149.667 30.333-351 91-189.333 56.667-335.333 104-438 142z" />
</svg>