<?xml version="1.0" encoding="UTF-8" standalone="no"?>
<svg
   xmlns:dc="http://purl.org/dc/elements/1.1/"
   xmlns:cc="http://creativecommons.org/ns#"
   xmlns:rdf="http://www.w3.org/1999/02/22-rdf-syntax-ns#"
   xmlns:svg="http://www.w3.org/2000/svg"
   xmlns="http://www.w3.org/2000/svg"
   xmlns:sodipodi="http://sodipodi.sourceforge.net/DTD/sodipodi-0.dtd"
   xmlns:inkscape="http://www.inkscape.org/namespaces/inkscape"
   sodipodi:docname="000-004-061_hu.svg"
   inkscape:version="1.0 (4035a4fb49, 2020-05-01)"
   id="svg841"
   version="1.1"
   viewBox="0 0 541.86665 541.86668"
   height="2048"
   width="2048">
  <defs
     id="defs835" />
  <sodipodi:namedview
     inkscape:window-maximized="1"
     inkscape:window-y="-8"
     inkscape:window-x="-8"
     inkscape:window-height="1018"
     inkscape:window-width="1920"
     units="px"
     showgrid="false"
     inkscape:document-rotation="0"
     inkscape:current-layer="layer1"
     inkscape:document-units="px"
     inkscape:cy="1045.7143"
     inkscape:cx="1200"
     inkscape:zoom="0.35"
     inkscape:pageshadow="2"
     inkscape:pageopacity="0.0"
     borderopacity="1.0"
     bordercolor="#666666"
     pagecolor="#ffffff"
     id="base" />
  <metadata
     id="metadata838">
    <rdf:RDF>
      <cc:Work
         rdf:about="">
        <dc:format>image/svg+xml</dc:format>
        <dc:type
           rdf:resource="http://purl.org/dc/dcmitype/StillImage" />
        <dc:title></dc:title>
      </cc:Work>
    </rdf:RDF>
  </metadata>
  <g
     id="layer1"
     inkscape:groupmode="layer"
     inkscape:label="图层 1">
    <path
       d="m 440.17867,479.68955 -4.59175,3.44001 C 417.65636,462.31458 391.78115,426.06661 357.96131,374.38462 324.14148,322.70366 303.7324,288.21869 296.7357,270.93269 c 6.9967,-17.28598 27.40496,-51.76996 61.22561,-103.45193 33.81984,-51.68197 59.69422,-87.929947 77.62561,-108.742937 l 4.59175,3.44 c -8.30911,27.16298 -18.65869,65.791957 -31.0496,115.886927 -13.2661,53.26897 -19.89916,84.22495 -19.89916,92.86794 0,8.643 6.63306,39.59998 19.89834,92.86994 12.39173,50.09298 22.74131,88.72295 31.04958,115.88692 z m 95.338,0 -4.59256,3.44001 c -17.92974,-20.81498 -43.80496,-57.06295 -77.62562,-108.74494 -33.81982,-51.68096 -54.22808,-86.16593 -61.22562,-103.45193 6.99754,-17.28598 27.40497,-51.76996 61.22562,-103.45193 33.82066,-51.68197 59.69588,-87.929947 77.62562,-108.742937 l 4.59256,3.44 c -8.30993,27.16298 -18.6595,65.791957 -31.05042,115.886927 -13.26611,53.26897 -19.89834,84.22495 -19.89834,92.86794 0,8.643 6.63223,39.59998 19.89834,92.86994 12.39092,50.09298 22.74132,88.72295 31.04959,115.88692 z M 340.468,37.57099 299.14073,132.29094 c -3.20661,7.40866 -4.8832,16.58099 -5.02975,27.51698 l -3.93554,341.3127 c 0,4.41 -2.91542,6.615 -8.74628,6.615 -5.83141,0 -8.74711,-2.205 -8.74711,-6.615 l -3.93553,-341.3117 c -0.14601,-10.93599 -1.82259,-20.10832 -5.02976,-27.51698 L 222.39032,37.57099 C 249.50437,33.69033 269.18426,31.75 281.42999,31.75 c 12.24463,0 31.92423,1.939997 59.03883,5.81999 z m -94.4622,63.76443 c 0,8.11397 -2.40531,12.34731 -7.21592,12.7 -7.8719,0.35269 -13.19266,0.88185 -15.96248,1.5875 -4.95645,1.05833 -10.05854,3.2631 -15.30648,6.61458 l -76.09508,48.68333 c -3.20714,-32.63185 -4.8106,-55.82708 -4.8106,-69.58541 0,-13.758337 1.60346,-36.953564 4.8106,-69.58542 l 76.09508,48.683333 c 7.43458,4.7625 17.85764,7.49644 31.26896,8.202083 4.81061,0.35269 7.21592,4.586023 7.21592,12.700004 z m -120.26524,0 c 0,8.11397 -2.40531,12.34731 -7.21591,12.7 -7.87191,0.35269 -13.19266,0.88185 -15.96248,1.5875 -4.956455,1.05833 -10.058548,3.2631 -15.306485,6.61458 L 11.160606,170.92083 C 7.9534637,138.28898 6.35,115.09375 6.35,101.33542 6.35,87.577083 7.9534637,64.381856 11.160606,31.75 l 76.095079,48.683333 c 7.434582,4.7625 17.857645,7.49644 31.268965,8.202083 4.8106,0.35269 7.21591,4.586023 7.21591,12.700004 z m 116.32928,79.90416 -40.45284,93.13334 c -3.35278,7.76102 -5.10209,17.10981 -5.24794,28.04583 L 193.52643,498.475 c 0,4.40981 -2.91545,6.61458 -8.74657,6.61458 -5.83111,0 -8.74655,-2.20477 -8.74655,-6.61458 l -2.84263,-196.05625 c -0.14586,-10.93602 -1.89517,-20.28481 -5.24794,-28.04583 l -40.45285,-93.13334 c 25.80235,-3.70416 44.89894,-5.55625 57.28997,-5.55625 12.39104,0 31.48762,1.85209 57.28998,5.55625 z m -117.20393,0 -40.452855,93.13334 c -3.35277,7.76102 -5.102077,17.10981 -5.247928,28.04583 L 76.322481,498.475 c 0,4.40981 -2.91544,6.61458 -8.746559,6.61458 -5.831108,0 -8.746555,-2.20477 -8.746555,-6.61458 L 55.986729,302.41875 C 55.840886,291.48273 54.091571,282.13394 50.7388,274.37292 L 10.285952,181.23958 c 25.802353,-3.70416 44.898942,-5.55625 57.28997,-5.55625 12.391048,0 31.48762,1.85209 57.289988,5.55625 z"
       style="stroke-width:0.909091"
       id="path2" />
  </g>
</svg>
