<svg xmlns="http://www.w3.org/2000/svg" width="2048" height="2048" viewBox="0 0 541.867 541.867">
   <path d="M113.771 478.631c0 4.41-3.528 6.615-10.583 6.615-7.056 0-10.584-2.205-10.584-6.615l-4.498-273.578-.264-20.373c-.177-10.936-2.205-20.108-6.086-27.517L31.75 62.442c32.808-3.88 56.62-5.821 71.438-5.821 14.816 0 38.628 1.94 71.437 5.82l-50.006 94.721c-3.88 7.409-5.91 16.581-6.086 27.517l-.264 20.373zm2.688 31.486l-3.217-5.557c19.464-21.695 53.362-53.004 101.693-93.927 48.33-40.922 80.579-65.616 96.744-74.083 16.166 8.467 48.414 33.161 96.744 74.083 48.331 40.923 82.23 72.232 101.694 93.927l-3.217 5.557c-25.402-10.055-61.526-22.578-108.373-37.571-49.815-16.051-78.765-24.077-86.848-24.077-8.082 0-37.03 8.026-86.846 24.077-46.847 14.993-82.971 27.517-108.374 37.57zm393.526-406.929c0 7.055-2.205 10.583-6.615 10.583l-148.148 4.762c-10.936.177-20.108 2.205-27.516 6.086l-94.721 50.006c-3.881-32.808-5.821-56.62-5.821-71.438 0-14.816 1.94-38.628 5.82-71.437l94.72 50.006c7.41 3.88 16.582 5.91 27.518 6.086l148.148 4.762c4.41 0 6.615 3.528 6.615 10.583zm0 147.108c0 7.055-2.205 10.583-6.615 10.583l-148.148 4.763c-10.936.176-20.108 2.204-27.516 6.085l-94.721 50.006c-3.881-32.808-5.821-56.62-5.821-71.437s1.94-38.63 5.82-71.438l94.722 50.007c7.408 3.88 16.58 5.908 27.516 6.085l148.148 4.763c4.41 0 6.615 3.528 6.615 10.583z" />
</svg>