<svg xmlns="http://www.w3.org/2000/svg" viewBox="0 0 541.867 541.867" height="2048" width="2048">
   <path d="M206.375 123.825c0 7.056-2.205 10.583-6.615 10.583l-39.952 4.763c-10.936.176-20.108 2.205-27.516 6.085L37.57 195.262c-3.88-32.808-5.821-56.62-5.821-71.437s1.94-38.63 5.82-71.438l94.722 50.007c7.408 3.88 16.58 5.909 27.516 6.085l39.952 4.763c4.41 0 6.615 3.527 6.615 10.583zm0 147.108c0 7.056-2.205 10.584-6.615 10.584l-39.952 4.762c-10.936.177-20.108 2.205-27.516 6.086L37.57 342.37c-3.88-32.808-5.821-56.621-5.821-71.438 0-14.816 1.94-38.629 5.82-71.437l94.722 50.006c7.408 3.88 16.58 5.91 27.516 6.085l39.952 4.763c4.41 0 6.615 3.528 6.615 10.583zm0 147.109c0 7.055-2.205 10.583-6.615 10.583l-39.952 4.763c-10.936.176-20.108 2.204-27.516 6.085L37.57 489.479c-3.88-32.808-5.821-56.62-5.821-71.437s1.94-38.63 5.82-71.438l94.722 50.006c7.408 3.881 16.58 5.91 27.516 6.086l39.952 4.762c4.41 0 6.615 3.528 6.615 10.584zM342.37 62.442l-50.005 94.72q-5.821 11.113-6.086 27.517l-4.762 293.952q0 6.615-10.583 6.615-10.584 0-10.584-6.615l-4.762-293.951q-.265-16.404-6.086-27.517l-50.006-94.721q49.212-5.821 71.438-5.821 22.224 0 71.437 5.82zM510.117 479.69l-5.556 3.44q-32.544-31.221-93.927-108.744-61.384-77.523-74.084-103.453 12.7-25.93 74.084-103.452 61.383-77.523 93.927-108.743l5.556 3.44q-15.08 40.745-37.57 115.887-24.078 79.904-24.078 92.868 0 12.965 24.077 92.87 22.49 75.14 37.57 115.887z" />
</svg>