<svg xmlns="http://www.w3.org/2000/svg" width="2048" height="2048" viewBox="0 0 541.867 541.867">
   <path d="M113.771 478.631c0 4.41-3.528 6.615-10.583 6.615-7.056 0-10.584-2.205-10.584-6.615L87.842 184.68c-.177-10.936-2.205-20.108-6.086-27.517L31.75 62.442c32.808-3.88 56.62-5.821 71.438-5.821 14.816 0 38.628 1.94 71.437 5.82l-50.006 94.721c-3.88 7.409-5.91 16.581-6.086 27.517zm238.314 21.167l-4.498 2.91c-29.457-26.634-64.382-60.59-104.775-101.864-20.638-21.167-32.191-33.073-34.66-35.719-13.053-13.758-23.725-26.458-32.015-38.1 10.407-14.464 32.632-39.07 66.675-73.819 40.393-41.275 75.318-75.23 104.775-101.864l4.498 2.91c-10.231 26.635-18.962 49.918-26.194 69.85-11.994 32.632-18.168 49.565-18.521 50.8-6.703 19.58-11.465 36.954-14.287 52.123 3.351 18.168 14.287 52.476 32.808 102.923 7.232 19.932 15.963 43.215 26.194 69.85zm158.032 0l-4.498 2.91c-29.457-26.634-64.382-60.59-104.775-101.864-20.638-21.167-32.191-33.073-34.66-35.719-13.053-13.758-23.725-26.458-32.015-38.1 10.407-14.464 32.632-39.07 66.675-73.819 40.393-41.275 75.318-75.23 104.775-101.864l4.498 2.91c-10.231 26.635-18.962 49.918-26.194 69.85-11.994 32.632-18.168 49.565-18.52 50.8-6.704 19.58-11.466 36.954-14.288 52.123 3.351 18.168 14.287 52.476 32.808 102.923 7.232 19.932 15.963 43.215 26.194 69.85zm0-388.673c0 7.408-2.293 11.113-6.88 11.113l-167.292 4.233c-10.936.176-20.108 2.205-27.517 6.085l-94.72 50.006c-3.881-32.808-5.821-56.62-5.821-71.437s1.94-38.63 5.82-71.438l94.721 50.007c7.409 3.88 16.581 5.909 27.517 6.085l167.292 4.233c4.587 0 6.88 3.705 6.88 11.113z" />
</svg>