<svg xmlns="http://www.w3.org/2000/svg" viewBox="0 0 541.867 541.867" height="2048" width="2048">
   <path d="M510.117 479.69l-5.557 3.44q-32.543-31.222-93.927-108.745-61.383-77.522-74.083-103.452 12.7-25.929 74.083-103.452 61.384-77.523 93.927-108.743l5.557 3.44q-15.082 40.745-37.571 115.887-24.077 79.904-24.077 92.868 0 12.965 24.077 92.87 22.49 75.14 37.57 115.887zM176.213 103.981c0 8.114-2.91 12.348-8.732 12.7-9.525.353-15.963.882-19.314 1.588-5.998 1.058-12.171 3.263-18.521 6.614L37.57 173.567c-3.88-32.632-5.821-55.827-5.821-69.586 0-13.758 1.94-36.953 5.82-69.585l92.076 48.683c8.996 4.763 21.608 7.497 37.835 8.202 5.821.353 8.731 4.586 8.731 12.7zm-1.059 79.904l-48.948 93.134c-4.057 7.76-6.173 17.11-6.35 28.046l-3.44 196.056c0 4.41-3.527 6.614-10.583 6.614-7.055 0-10.583-2.204-10.583-6.614l-3.44-196.056c-.176-10.936-2.293-20.285-6.35-28.046l-48.947-93.134c31.22-3.704 54.327-5.556 69.32-5.556 14.993 0 38.1 1.852 69.321 5.556z" />
</svg>