<svg xmlns="http://www.w3.org/2000/svg" viewBox="0 0 541.867 541.867" height="2048" width="2048">
   <path d="M190.5 197.38c0 7.055-2.205 10.582-6.615 10.582l-24.077 4.763c-10.936.176-20.108 2.205-27.516 6.085L37.57 268.817c-3.88-32.809-5.821-56.621-5.821-71.438s1.94-38.629 5.82-71.437l94.722 50.006c7.408 3.88 16.58 5.909 27.516 6.085l24.077 4.763c4.41 0 6.615 3.528 6.615 10.583zm0 147.107c0 7.056-2.205 10.584-6.615 10.584l-24.077 4.762c-10.936.177-20.108 2.205-27.516 6.086L37.57 415.925c-3.88-32.808-5.821-56.62-5.821-71.438 0-14.816 1.94-38.629 5.82-71.437l94.722 50.006c7.408 3.88 16.58 5.91 27.516 6.086l24.077 4.762c4.41 0 6.615 3.528 6.615 10.584zM342.37 210.608l-50.005 94.72q-8.202 15.61-8.467 27.518l-2.381 145.785q0 6.615-10.583 6.615-10.584 0-10.584-6.615l-2.381-145.785q-.265-11.906-8.467-27.517l-50.006-94.72q18.785-2.381 56.356-5.556l-.264-20.373q-.265-16.404-6.086-27.517l-50.006-94.721q49.212-5.821 71.438-5.821 22.224 0 71.437 5.82l-50.006 94.72q-5.821 11.114-6.086 27.518l-.264 20.373q15.61.794 56.356 5.556zM510.117 479.69l-5.557 3.44q-32.543-31.222-93.927-108.745-61.383-77.522-74.083-103.452 12.7-25.93 74.083-103.452 61.384-77.523 93.927-108.743l5.557 3.44q-15.082 40.745-37.57 115.887-24.078 79.904-24.078 92.868 0 12.965 24.077 92.87 22.49 75.14 37.57 115.887z" />
</svg>