<svg xmlns="http://www.w3.org/2000/svg" height="2048" width="2048" viewBox="-10 0 2048 2048">
   <path d="M1921.5 1663c0 30.667-11 46.667-33 48-53.018.089-751.282 8.974-793.5 31l-348 184c-14.667-123.333-22-211-22-263s7.333-139.667 22-263l348 184c34 18 732.167 28.333 793.5 31 22 1.333 33 17.333 33 48zM648.734 1368l-10.371-23.714c62.759-92.599 172.055-226.227 327.887-400.885 155.833-174.657 259.81-280.054 311.931-316.19 52.122 36.136 156.1 141.533 311.932 316.19 155.832 174.658 265.128 308.286 327.887 400.885L1907.629 1368c-81.906-42.912-198.381-96.362-349.427-160.354-160.62-68.508-253.96-102.762-280.02-102.762-26.062 0-119.402 34.254-280.02 102.762C847.114 1271.638 730.64 1325.088 648.733 1368zm0-507.21l-10.371-23.715c62.759-92.599 172.055-226.227 327.887-400.885 155.833-174.657 259.81-280.054 311.931-316.19 52.122 36.136 156.1 141.533 311.932 316.19C1745.945 610.848 1855.24 744.476 1918 837.075l-10.371 23.714c-81.906-42.911-198.381-96.362-349.427-160.354-160.62-68.508-253.96-102.761-280.02-102.761-26.062 0-119.402 34.253-280.02 102.761C847.114 764.427 730.64 817.878 648.733 860.79zM649.996 701.998l-188.995 358c-20.667 39.332-31.334 74-32.001 104.001l-9 738.5c0 16.668-13.332 25.002-39.998 25.002-26.669 0-40.003-8.334-40.003-25.002L331 1164c-.668-29.999-11.335-64.666-32.001-104L110 702.004c47.332-6.002 118.332-13.003 212.999-21.003l-.998-77c-.668-41.333-8.335-76-23.002-104.001L110 142.001C233.999 127.334 324 120 380.002 120c55.997 0 145.997 7.332 269.998 21.997l-189 358C446.335 528 438.667 562.666 438 603.998l-.998 77C476.333 683 547.333 690 650 701.999z" />
</svg>