<svg xmlns="http://www.w3.org/2000/svg" viewBox="0 0 541.867 541.867" height="2048" width="2048">
   <path d="M397.242 62.442l-46.175 94.72q-5.374 11.113-5.619 27.517L341.05 478.63q0 6.615-9.772 6.615t-9.772-6.615l-4.397-293.951q-.245-16.404-5.62-27.517l-46.175-94.72q45.443-5.821 65.965-5.821 20.522 0 65.964 5.82zm-135.838 0l-46.175 94.72q-5.374 11.113-5.62 27.517l-4.397 293.952q0 6.615-9.772 6.615-9.773 0-9.773-6.615L181.27 184.68q-.245-16.404-5.62-27.517l-46.174-94.721q45.442-5.821 65.965-5.821 20.521 0 65.964 5.82zM510.117 479.69l-5.132 3.44q-30.05-31.222-86.73-108.745-56.681-77.522-68.409-103.452 11.728-25.93 68.408-103.452 56.681-77.523 86.731-108.743l5.132 3.44q-13.927 40.745-34.693 115.887-22.233 79.904-22.233 92.868 0 12.965 22.233 92.87 20.767 75.14 34.692 115.887zM178.338 210.642c0 5.125-2.036 7.687-6.107 7.687l-22.233 3.46c-10.098.128-18.568 1.601-25.409 4.42l-87.464 36.324c-3.583-23.831-5.375-41.129-5.375-51.891 0-10.763 1.792-28.06 5.375-51.892l87.464 36.324c6.841 2.819 15.31 4.292 25.409 4.42l22.233 3.46c4.071 0 6.107 2.563 6.107 7.688zm0 106.858c0 5.125-2.036 7.688-6.107 7.688l-22.233 3.46c-10.098.127-18.568 1.6-25.409 4.42l-87.464 36.324c-3.583-23.832-5.375-41.13-5.375-51.892 0-10.763 1.792-28.06 5.375-51.892l87.464 36.325c6.841 2.818 15.31 4.292 25.409 4.42l22.233 3.46c4.071 0 6.107 2.562 6.107 7.687zm0 106.858c0 5.125-2.036 7.688-6.107 7.688l-22.233 3.46c-10.098.128-18.568 1.601-25.409 4.42L37.125 476.25c-3.583-23.832-5.375-41.129-5.375-51.892 0-10.762 1.792-28.06 5.375-51.891l87.464 36.324c6.841 2.819 15.31 4.292 25.409 4.42l22.233 3.46c4.071 0 6.107 2.562 6.107 7.687z" />
</svg>