<svg xmlns="http://www.w3.org/2000/svg" viewBox="0 0 541.867 541.867" height="2048" width="2048">
   <path d="M155.046 339.46c0 8.114-5.821 12.524-8.731 12.7-2.91.177-108.744 56.886-108.744 56.886-3.88-32.632-5.821-55.827-5.821-69.586 0-13.758 1.94-36.953 5.82-69.585 0 0 105.834 56.71 108.745 56.885 2.91.177 8.73 4.586 8.73 12.7zM248.708 10.726l-50.007 105.646c-3.88 8.264-5.91 18.494-6.085 30.691l-4.762 383.193c0 4.918-3.528 7.378-10.584 7.378-7.055 0-10.583-2.46-10.583-7.378l-4.763-383.193c-.176-12.197-2.204-22.427-6.085-30.69L105.833 10.726c32.808-4.329 56.62-6.493 71.437-6.493s38.63 2.164 71.438 6.492zM155.046 193.94c0 8.113-5.821 12.523-8.731 12.7-2.91.176-108.744 56.885-108.744 56.885-3.88-32.632-5.821-55.827-5.821-69.586 0-13.758 1.94-36.953 5.82-69.585 0 0 105.834 56.71 108.745 56.885 2.91.177 8.73 4.586 8.73 12.7zM195.192 537.634l-2.575-5.557q23.358-32.543 81.354-93.927 57.998-61.383 77.396-74.083 19.399 12.7 77.396 74.083 57.997 61.384 81.354 93.927l-2.574 5.557q-30.481-15.082-86.698-37.571-59.778-24.077-69.478-24.077-9.699 0-69.477 24.077-56.216 22.49-86.7 37.57zM509.985 75.671c0 7.055-2.205 10.583-6.615 10.583l-121.312 4.762c-10.936.177-20.108 2.205-27.516 6.086l-94.72 50.006C255.942 114.3 254 90.488 254 75.67c0-14.816 1.94-38.628 5.82-71.437l94.721 50.006c7.41 3.88 16.581 5.91 27.517 6.086l121.312 4.762c4.41 0 6.615 3.528 6.615 10.583zM509.985 256.646c0 7.055-2.205 10.583-6.615 10.583l-121.312 4.763c-10.936.176-20.108 2.204-27.516 6.085l-94.72 50.006c-3.88-32.808-5.822-56.62-5.822-71.437s1.94-38.63 5.82-71.438l94.722 50.007c7.408 3.88 16.58 5.908 27.516 6.085l121.312 4.763c4.41 0 6.615 3.528 6.615 10.583z" />
</svg>