<?xml version="1.0" encoding="UTF-8" standalone="no"?>
<svg
   xmlns:dc="http://purl.org/dc/elements/1.1/"
   xmlns:cc="http://creativecommons.org/ns#"
   xmlns:rdf="http://www.w3.org/1999/02/22-rdf-syntax-ns#"
   xmlns:svg="http://www.w3.org/2000/svg"
   xmlns="http://www.w3.org/2000/svg"
   xmlns:sodipodi="http://sodipodi.sourceforge.net/DTD/sodipodi-0.dtd"
   xmlns:inkscape="http://www.inkscape.org/namespaces/inkscape"
   inkscape:version="1.0 (4035a4fb49, 2020-05-01)"
   sodipodi:docname="000-004-059_part-12.svg"
   id="svg4"
   version="1.1"
   height="2048"
   width="2048"
   viewBox="-10 0 2048 2048">
  <metadata
     id="metadata10">
    <rdf:RDF>
      <cc:Work
         rdf:about="">
        <dc:format>image/svg+xml</dc:format>
        <dc:type
           rdf:resource="http://purl.org/dc/dcmitype/StillImage" />
      </cc:Work>
    </rdf:RDF>
  </metadata>
  <defs
     id="defs8" />
  <sodipodi:namedview
     inkscape:current-layer="svg4"
     inkscape:window-maximized="1"
     inkscape:window-y="-8"
     inkscape:window-x="-8"
     inkscape:cy="1561.1418"
     inkscape:cx="669.35152"
     inkscape:zoom="0.20234694"
     showgrid="false"
     id="namedview6"
     inkscape:window-height="1018"
     inkscape:window-width="1920"
     inkscape:pageshadow="2"
     inkscape:pageopacity="0"
     guidetolerance="10"
     gridtolerance="10"
     objecttolerance="10"
     borderopacity="1"
     bordercolor="#666666"
     pagecolor="#ffffff" />
  <path
     d="M 226,926 584,737 c 28,-14.667 62.667,-22.333 104,-23 l 1111,-18 c 16.667,0 25,-13.333 25,-40 0,-26.667 -8.333,-40 -25,-40 L 688,598 c -41.333,-0.667 -76,-8.333 -104,-23 L 226,386 c -14.667,124 -22,214 -22,270 0,56 7.333,146 22,270 z M 812,596.5 c 20.35649,0 30.53436,-16.6665 30.53436,-25 C 842.53436,563.1665 1012,141 1012,141 921.92367,127 855.25725,120 812,120 c -43.25725,0 -109.92367,7 -200,21 0,0 169.46564,422.1665 169.46564,430.5 0,8.3335 10.17787,25 30.53436,25 z m 400,0 c 20.3565,0 30.5344,-16.6665 30.5344,-25 C 1242.5344,563.1665 1412,141 1412,141 c -90.0763,-14 -156.7427,-21 -200,-21 -43.2573,0 -109.9237,7 -200,21 0,0 169.4657,422.1665 169.4657,430.5 0,8.3335 10.1778,25 30.5343,25 z m 400,0 c 20.3565,0 30.5344,-16.6665 30.5344,-25 C 1642.5344,563.1665 1812,141 1812,141 c -90.0763,-14 -156.7427,-21 -200,-21 -43.2573,0 -109.9237,7 -200,21 0,0 169.4656,422.1665 169.4656,430.5 0,8.3335 10.1779,25 30.5344,25 z"
     id="path2" />
</svg>
