<svg xmlns="http://www.w3.org/2000/svg" viewBox="-10 0 2048 2048" width="2048" height="2048">
   <path d="M1921.5 383c0 30.667-11 46.667-33 48-53.018.089-1366.282 8.974-1408.5 31L132 646c-14.667-123.333-22-211-22-263s7.333-139.667 22-263l348 184c34 18 1347.167 28.333 1408.5 31 22 1.333 33 17.333 33 48zM124.653 1928L110 1904.286c88.672-92.599 243.096-226.227 463.272-400.885 220.176-174.657 367.086-280.054 440.728-316.19 73.642 36.136 220.552 141.533 440.728 316.19 220.176 174.658 374.6 308.286 463.272 400.885L1903.347 1928c-115.725-42.912-280.293-96.362-493.706-160.354-226.939-68.508-358.82-102.762-395.641-102.762-36.822 0-168.702 34.254-395.64 102.762-213.414 63.992-377.982 117.442-493.707 160.354zm0-587.21L110 1317.074c88.672-92.599 243.096-226.226 463.272-400.885C793.448 741.533 940.358 636.136 1014 600c73.642 36.136 220.552 141.533 440.728 316.19 220.176 174.659 374.6 308.286 463.272 400.885l-14.653 23.714c-115.725-42.911-280.293-96.362-493.706-160.354-226.939-68.508-358.82-102.761-395.641-102.761-36.822 0-168.702 34.253-395.64 102.761-213.414 63.992-377.982 117.443-493.707 160.354z" />
</svg>