<svg xmlns="http://www.w3.org/2000/svg" viewBox="0 0 541.867 541.867" height="2048" width="2048">
   <path d="M62.442 245.798l94.72-50.006c7.409-3.881 16.581-5.91 27.517-6.086l293.952-4.762c4.41 0 6.615-3.528 6.615-10.584 0-7.055-2.205-10.583-6.615-10.583l-293.952-4.762c-10.936-.177-20.108-2.205-27.516-6.086l-94.721-50.006c-3.881 32.808-5.821 56.62-5.821 71.437s1.94 38.63 5.82 71.438zm137.054-87.445c7.055 0 10.76-4.762 10.848-7.144.088-2.38 58.473-113.903 58.473-113.903-31.221-3.704-54.328-5.556-69.321-5.556-14.993 0-38.1 1.852-69.321 5.556 0 0 58.385 111.522 58.473 113.903.088 2.382 3.792 7.144 10.848 7.144zm142.875 0c7.055 0 10.76-4.762 10.848-7.144.088-2.38 58.473-113.903 58.473-113.903-31.221-3.704-54.328-5.556-69.321-5.556-14.993 0-38.1 1.852-69.321 5.556 0 0 58.385 111.522 58.473 113.903.088 2.382 3.792 7.144 10.848 7.144zM62.177 510.117l-3.44-5.557c20.814-21.695 57.062-53.004 108.744-93.927 51.682-40.922 86.166-65.616 103.452-74.083 17.286 8.467 51.77 33.161 103.452 74.083 51.682 40.923 87.93 72.232 108.744 93.927l-3.44 5.557c-27.163-10.055-65.793-22.578-115.887-37.571-53.27-16.052-84.226-24.077-92.869-24.077s-39.6 8.025-92.868 24.077c-50.095 14.993-88.724 27.517-115.888 37.57zm0-137.584l-3.44-5.556c20.814-21.696 57.062-53.005 108.744-93.927 51.682-40.922 86.166-65.617 103.452-74.083 17.286 8.466 51.77 33.16 103.452 74.083 51.682 40.922 87.93 72.231 108.744 93.927l-3.44 5.556c-27.163-10.054-65.793-22.577-115.887-37.57-53.27-16.052-84.226-24.078-92.869-24.078s-39.6 8.026-92.868 24.078c-50.095 14.993-88.724 27.516-115.888 37.57z" />
</svg>