<svg xmlns="http://www.w3.org/2000/svg" width="2048" height="2048" viewBox="0 0 541.867 541.867">
   <path d="M509.985 447.147c0 7.055-2.205 10.583-6.615 10.583l-46.189 2.38c-7.937.177-17.11 3-27.517 8.468l-94.72 50.006c-1.588-12.524-3.44-31.31-5.557-56.356l-20.373.264c-10.936.176-20.108 2.205-27.517 6.086l-94.72 50.006c-3.88-32.808-5.821-56.621-5.821-71.438s1.94-38.63 5.82-71.437l94.721 50.006c7.409 3.88 16.581 5.909 27.517 6.086l20.373.264c.53-10.407 2.381-29.192 5.556-56.356l94.721 50.006c10.407 5.468 19.579 8.29 27.517 8.467l46.189 2.38c4.41 0 6.615 3.528 6.615 10.584zM369.604 380.206l-4.498 2.91c-29.457-26.634-64.382-60.589-104.775-101.864-20.637-21.167-32.19-33.073-34.66-35.719-13.053-13.758-23.725-26.458-32.015-38.1 10.407-14.464 32.632-39.07 66.675-73.818 40.393-41.275 75.318-75.23 104.775-101.865l4.498 2.91c-10.23 26.635-18.962 49.919-26.194 69.85-11.994 32.632-18.168 49.566-18.52 50.8-6.703 19.58-11.466 36.954-14.288 52.123 3.35 18.168 14.287 52.476 32.808 102.923 7.232 19.932 15.963 43.215 26.194 69.85zM496.604 380.206l-4.498 2.91c-29.457-26.634-64.382-60.589-104.775-101.864-20.637-21.167-32.19-33.073-34.66-35.719-13.053-13.758-23.725-26.458-32.015-38.1 10.407-14.464 32.632-39.07 66.675-73.818 40.393-41.275 75.318-75.23 104.775-101.865l4.498 2.91c-10.23 26.635-18.962 49.919-26.194 69.85-11.994 32.632-18.168 49.566-18.52 50.8-6.703 19.58-11.466 36.954-14.288 52.123 3.35 18.168 14.287 52.476 32.808 102.923 7.232 19.932 15.963 43.215 26.194 69.85zM191.03 181.239l-48.948 93.134c-4.057 7.76-6.173 17.11-6.35 28.046l-3.44 200.951c0 4.41-3.527 6.614-10.583 6.614-7.055 0-10.583-2.204-10.583-6.614l-3.44-200.951c-.176-10.936-2.293-20.285-6.35-28.046l-48.947-93.134c31.22-3.704 54.327-5.556 69.32-5.556 14.993 0 38.1 1.852 69.321 5.556zM255.59 101.335c0 8.114-2.91 12.348-8.733 12.7-9.525.353-95.338.882-98.689 1.588-5.998 1.058-12.171 3.263-18.521 6.614l-92.076 48.684c-3.88-32.632-5.821-55.827-5.821-69.586 0-13.758 1.94-36.953 5.82-69.585l92.076 48.683c8.996 4.763 100.983 7.497 117.21 8.202 5.821.353 8.731 4.586 8.731 12.7z" />
</svg>