<svg xmlns="http://www.w3.org/2000/svg" viewBox="0 0 132.821 138.906" height="52.5" width="50.2">
   <path d="M17.693 92.626V65.673c-3.624-3.451-9.49-8.546-17.428-14.955v-4.273h17.428V19.821c-3.624-3.615-9.49-8.71-17.428-15.12V.266h39.687v4.273c-.345.657-5.867 5.752-16.565 15.283v26.624h16.565v4.109c-5.177 5.094-8.628 7.724-16.565 15.12v26.952h16.565v3.944c-.345.657-5.867 5.916-16.565 15.612v26.46h-5.694v-26.46L.265 97.062v-4.436zM111.8 91.143l10.492 47.499-34.67-47.499H65.499l15.054 47.499-40.6-50.244 40.6-53.265-15.054 45.851h22.125l34.67-45.85-10.493 45.85h20.756v10.16zM40.636 52.156V.265L67.78 20.307h64.777v10.708H67.78z" />
</svg>