<svg xmlns="http://www.w3.org/2000/svg" width="2048" height="2048" viewBox="0 0 541.867 541.867">
   <path d="M256.978 11.477l-50.007 117.874c-3.88 9.22-5.91 20.633-6.085 34.244l-4.762 365.807c0 5.488-3.528 8.232-10.584 8.232-7.055 0-10.583-2.744-10.583-8.232l-4.763-365.808c-.176-13.609-2.204-25.023-6.085-34.242L114.103 11.477c32.808-4.83 56.62-7.244 71.437-7.244s38.63 2.415 71.438 7.243zM163.315 265.029c0 8.114-5.82 12.524-8.73 12.7-2.91.177-108.745 56.886-108.745 56.886-3.88-32.632-5.82-55.827-5.82-69.586 0-13.758 1.94-36.953 5.82-69.585 0 0 105.833 56.709 108.744 56.885 2.91.177 8.73 4.586 8.73 12.7zM370.417 525.66l-4.057 3.507c-26.578-32.09-58.09-73-94.535-122.729-18.62-25.503-29.044-39.847-31.272-43.035-11.778-16.576-21.406-31.877-28.886-45.903 9.389-17.427 29.442-47.072 60.158-88.939 36.445-49.73 67.957-90.64 94.535-122.728l4.057 3.507c-9.23 32.09-17.108 60.141-23.633 84.156-10.822 39.316-16.392 59.717-16.71 61.205-6.048 23.59-10.345 44.523-12.892 62.8 3.024 21.888 12.89 63.222 29.602 124.002 6.525 24.013 14.403 52.067 23.633 84.157zM508.794 525.66l-4.058 3.507c-26.578-32.09-58.09-73-94.534-122.729-18.62-25.503-29.045-39.847-31.272-43.035-11.777-16.576-21.406-31.877-28.886-45.903 9.39-17.427 29.442-47.072 60.158-88.939 36.445-49.73 67.956-90.64 94.534-122.728l4.058 3.507c-9.23 32.09-17.108 60.141-23.634 84.156-10.821 39.316-16.392 59.717-16.71 61.205-6.048 23.59-10.345 44.523-12.89 62.8 3.023 21.888 12.89 63.222 29.6 124.002 6.526 24.013 14.403 52.067 23.634 84.157zM510.117 75.671c0 7.408-2.293 11.113-6.88 11.113l-116.578 4.233c-10.936.176-20.109 2.205-27.517 6.085l-94.72 50.006c-3.882-32.808-5.822-56.62-5.822-71.437s1.94-38.63 5.821-71.438l94.72 50.007c7.41 3.88 16.582 5.91 27.518 6.085l116.578 4.233c4.587 0 6.88 3.705 6.88 11.113z" />
</svg>