<?xml version="1.0" encoding="UTF-8" standalone="no"?>
<svg
   xmlns:dc="http://purl.org/dc/elements/1.1/"
   xmlns:cc="http://creativecommons.org/ns#"
   xmlns:rdf="http://www.w3.org/1999/02/22-rdf-syntax-ns#"
   xmlns:svg="http://www.w3.org/2000/svg"
   xmlns="http://www.w3.org/2000/svg"
   xmlns:sodipodi="http://sodipodi.sourceforge.net/DTD/sodipodi-0.dtd"
   xmlns:inkscape="http://www.inkscape.org/namespaces/inkscape"
   sodipodi:docname="000-004-061_pi.svg"
   inkscape:version="1.0 (4035a4fb49, 2020-05-01)"
   id="svg841"
   version="1.1"
   viewBox="0 0 541.86665 541.86668"
   height="2048"
   width="2048">
  <defs
     id="defs835" />
  <sodipodi:namedview
     inkscape:window-maximized="1"
     inkscape:window-y="-8"
     inkscape:window-x="-8"
     inkscape:window-height="1018"
     inkscape:window-width="1920"
     units="px"
     showgrid="false"
     inkscape:document-rotation="0"
     inkscape:current-layer="layer1"
     inkscape:document-units="px"
     inkscape:cy="1045.7143"
     inkscape:cx="1085.7143"
     inkscape:zoom="0.35"
     inkscape:pageshadow="2"
     inkscape:pageopacity="0.0"
     borderopacity="1.0"
     bordercolor="#666666"
     pagecolor="#ffffff"
     id="base" />
  <metadata
     id="metadata838">
    <rdf:RDF>
      <cc:Work
         rdf:about="">
        <dc:format>image/svg+xml</dc:format>
        <dc:type
           rdf:resource="http://purl.org/dc/dcmitype/StillImage" />
        <dc:title></dc:title>
      </cc:Work>
    </rdf:RDF>
  </metadata>
  <g
     id="layer1"
     inkscape:groupmode="layer"
     inkscape:label="图层 1">
    <path
       d="m 413.01306,37.570996 -50.00597,94.719944 c -3.88,7.40866 -5.90833,16.58099 -6.085,27.51698 l -4.76299,341.3127 c 0,4.41 -3.52767,6.615 -10.583,6.615 -7.05533,0 -10.58299,-2.205 -10.58299,-6.615 l -4.762,-341.3117 c -0.17667,-10.93599 -2.205,-20.10832 -6.08499,-27.51698 L 270.13915,37.571996 C 302.9478,33.691332 326.76045,31.751 341.5771,31.751 c 14.81666,0 38.62898,1.939999 71.43697,5.819996 z m -147.10791,0 -50.00596,94.719944 c -3.88,7.40866 -5.90867,16.58099 -6.086,27.51698 l -4.762,341.3127 c 0,4.41 -3.52766,6.615 -10.58299,6.615 -7.05599,0 -10.58399,-2.205 -10.58399,-6.615 l -4.762,-341.3117 c -0.17667,-10.93599 -2.20533,-20.10832 -6.086,-27.51698 L 123.03124,37.570996 C 155.83922,33.690332 179.65187,31.75 194.4692,31.75 c 14.81599,0 38.6283,1.939999 71.43695,5.819996 z m 269.34676,442.118554 -5.55699,3.44001 q -32.54298,-31.22197 -93.92693,-108.74494 -61.38296,-77.52194 -74.08296,-103.45193 12.7,-25.92898 74.08296,-103.45193 61.38395,-77.522952 93.92693,-108.742929 l 5.55699,3.439998 q -15.08199,40.744981 -37.57097,115.886921 -24.07697,79.90395 -24.07697,92.86794 0,12.965 24.07697,92.86994 22.48998,75.13995 37.56999,115.88692 z M 151.07708,103.98125 c 0,8.11397 -2.91042,12.34731 -8.73125,12.7 -9.525,0.35269 -15.96311,0.88185 -19.31458,1.5875 -5.99731,1.05833 -12.17084,3.2631 -18.52084,6.61458 L 12.435413,173.56666 C 8.5547733,140.93481 6.6145833,117.73958 6.6145833,103.98125 c 0,-13.758337 1.94019,-36.953557 5.8208297,-69.585417 l 92.074997,48.68333 c 8.99584,4.7625 21.60773,7.49644 37.83542,8.20209 5.82083,0.35269 8.73125,4.58602 8.73125,12.699997 z m -1.05833,79.90416 -48.94792,93.13334 c -4.056857,7.76102 -6.173517,17.10981 -6.349997,28.04583 l -3.43958,196.05625 c 0,4.40981 -3.52769,6.61458 -10.58334,6.61458 -7.05564,0 -10.58333,-2.20477 -10.58333,-6.61458 l -3.43958,-196.05625 c -0.17648,-10.93602 -2.29315,-20.28481 -6.35,-28.04583 l -48.94792,-93.13334 c 31.22083,-3.70416 54.32769,-5.55625 69.32083,-5.55625 14.99315,0 38.099997,1.85209 69.320837,5.55625 z"
       style="stroke-width:1"
       id="path2-3" />
  </g>
</svg>
