<svg xmlns="http://www.w3.org/2000/svg" viewBox="-10 0 2048 2048" width="2048" height="2048">
   <path d="M1921.5 383c0 30.667-11 46.667-33 48-53.018.089-791.282 8.974-833.5 31L707 646c-14.667-123.333-22-211-22-263s7.333-139.667 22-263l348 184c34 18 772.167 28.333 833.5 31 22 1.333 33 17.333 33 48zM524.681 1928l-11.384-23.714c68.892-92.599 188.87-226.227 359.933-400.885 171.063-174.657 285.203-280.054 342.418-316.19 57.216 36.136 171.356 141.533 342.419 316.19 171.062 174.658 291.04 308.286 359.933 400.885L1906.615 1928c-89.91-42.912-217.77-96.362-383.578-160.354-176.318-68.508-278.78-102.762-307.389-102.762-28.608 0-131.07 34.254-307.388 102.762-165.808 63.992-293.668 117.442-383.579 160.354zm0-587.21l-11.384-23.715c68.892-92.599 188.87-226.226 359.933-400.885 171.063-174.657 285.203-280.054 342.418-316.19 57.216 36.136 171.356 141.533 342.419 316.19 171.063 174.658 291.04 308.286 359.933 400.885l-11.385 23.714c-89.91-42.911-217.77-96.362-383.578-160.354-176.318-68.508-278.78-102.761-307.389-102.761-28.608 0-131.07 34.253-307.388 102.761-165.808 63.992-293.668 117.443-383.579 160.354zM649.996 142L461 499.998c-14.667 28.001-22.335 62.669-23.002 104.001L420 1902.5c0 16.668-13.332 25.002-39.998 25.002-26.669 0-40.003-8.334-40.003-25.002L322.001 604.002c-.668-41.333-8.335-76-23.002-104.001L110 142.001C233.999 127.334 324 120 380.002 120c55.997 0 145.996 7.332 269.998 21.997z" />
</svg>