<svg xmlns="http://www.w3.org/2000/svg" viewBox="0 0 541.867 541.867" height="2048" width="2048">
   <path d="M510.117 428.625c0 7.408-2.293 11.113-6.88 11.113l-164.203 4.233c-10.936.176-20.109 2.205-27.517 6.085l-94.72 50.006c-3.882-32.808-5.822-56.62-5.822-71.437s1.94-38.63 5.821-71.438l94.72 50.007c7.41 3.88 16.582 5.91 27.518 6.085l164.203 4.233c4.587 0 6.88 3.705 6.88 11.113zM369.887 396.081l-4.497 2.91c-29.457-26.634-64.382-60.59-104.775-101.864-20.638-21.167-32.191-33.073-34.66-35.719-13.054-13.758-23.725-26.458-32.015-38.1 10.406-14.464 32.631-39.07 66.675-73.819 40.393-41.275 75.318-75.23 104.775-101.864l4.497 2.91c-10.23 26.635-18.961 49.918-26.193 69.85-11.995 32.632-18.168 49.565-18.521 50.8-6.703 19.58-11.465 36.954-14.288 52.123 3.352 18.168 14.288 52.476 32.809 102.923 7.232 19.932 15.963 43.215 26.193 69.85zm140.23 0l-4.498 2.91c-29.457-26.634-64.382-60.59-104.775-101.864-20.638-21.167-32.191-33.073-34.66-35.719-13.053-13.758-23.725-26.458-32.015-38.1 10.407-14.464 32.632-39.07 66.675-73.819 40.393-41.275 75.318-75.23 104.775-101.864l4.498 2.91c-10.231 26.635-18.962 49.918-26.194 69.85-11.994 32.632-18.168 49.565-18.52 50.8-6.704 19.58-11.466 36.954-14.288 52.123 3.351 18.168 14.287 52.476 32.808 102.923 7.232 19.932 15.963 43.215 26.194 69.85zM174.625 62.442l-50.006 94.72q-4.498 8.203-5.821 21.96 17.198.795 54.504 5.293l-50.006 94.72q-6.35 11.907-6.88 29.105 14.024.529 55.563 5.556l-50.006 94.72q-7.144 13.759-7.408 23.284l-.794 46.831q0 6.615-10.583 6.615-10.584 0-10.584-6.615L91.81 431.8q-.264-9.525-7.408-23.283l-50.006-94.721q18.52-2.381 55.562-5.556-.529-17.198-6.879-29.105l-50.006-94.72q18.256-2.117 54.504-5.292-1.323-13.758-5.82-21.96L31.75 62.441q49.212-5.821 71.438-5.821 22.224 0 71.437 5.82z" />
</svg>