<svg xmlns="http://www.w3.org/2000/svg" width="2048" height="2048" viewBox="0 0 541.867 541.867">
   <path d="M491.067 533.31l-5.557 4.324q-32.543-39.242-93.927-136.677Q330.2 303.523 317.5 270.932q12.7-32.589 74.083-130.024Q452.967 43.472 485.51 4.233l5.557 4.324q-15.082 51.21-37.57 145.653-24.078 100.428-24.078 116.722 0 16.295 24.077 116.725 22.49 94.44 37.57 145.653zM342.372 11.477l-50.006 117.874c-3.88 9.22-5.909 20.634-6.085 34.244l-4.763 365.807c0 5.488-3.528 8.232-10.583 8.232-7.056 0-10.584-2.744-10.584-8.232l-4.762-365.808c-.177-13.609-2.205-25.023-6.085-34.242L199.496 11.477c32.809-4.83 56.621-7.244 71.438-7.244 14.816 0 38.629 2.415 71.437 7.243zM226.219 344.488c0 7.055-2.205 10.583-6.615 10.583l-61.119 1.852c-8.995.177-18.344 2.822-28.045 7.938l-93.134 48.948c-3.704-31.221-5.556-54.328-5.556-69.321 0-14.993 1.852-38.1 5.556-69.321l93.134 48.948c9.701 5.115 19.05 7.76 28.045 7.937l61.12 1.853c4.41 0 6.614 3.527 6.614 10.583zM226.219 201.613c0 7.055-2.205 10.583-6.615 10.583l-61.119 1.852c-8.995.177-18.344 2.822-28.045 7.938l-93.134 48.948c-3.704-31.221-5.556-54.328-5.556-69.321 0-14.993 1.852-38.1 5.556-69.321l93.134 48.948c9.701 5.115 19.05 7.76 28.045 7.937l61.12 1.852c4.41 0 6.614 3.528 6.614 10.584z" />
</svg>