<svg xmlns="http://www.w3.org/2000/svg" viewBox="0 0 541.867 541.867" height="2048" width="2048">
   <path d="M504.826 506.24l-5.557 3.877c-21.695-23.462-53.004-64.32-93.927-122.575-40.922-58.255-65.616-97.124-74.083-116.61 8.467-19.484 33.161-58.354 74.083-116.609 40.923-58.255 72.232-99.113 93.927-122.573l5.557 3.878c-10.055 30.618-22.578 74.16-37.571 130.625-16.051 60.044-24.077 94.938-24.077 104.68 0 9.742 8.026 44.636 24.077 104.68 14.993 56.465 27.517 100.007 37.57 130.626zM174.624 200.025l-50.006 94.72c-3.88 7.41-5.909 16.581-6.086 27.517L113.77 503.37c0 4.41-3.528 6.615-10.583 6.615-7.056 0-10.584-2.205-10.584-6.615l-4.762-181.107c-.177-10.936-2.205-20.108-6.086-27.517l-50.005-94.72c32.808-3.881 56.62-5.822 71.438-5.822 14.816 0 38.628 1.94 71.437 5.82zM333.374 200.025l-50.006 94.72c-3.88 7.41-5.908 16.581-6.085 27.517L272.52 503.37c0 4.41-3.528 6.615-10.583 6.615s-10.583-2.205-10.583-6.615l-4.762-181.107c-.177-10.936-2.205-20.108-6.085-27.517l-50.007-94.72c32.809-3.88 56.621-5.82 71.438-5.82s38.63 1.94 71.437 5.82zM400.183 103.188c0 7.055-2.205 10.583-6.615 10.583l-85.593 2.381c-7.937.177-17.11 2.999-27.517 8.467l-94.72 50.006c-1.588-12.523-3.44-31.309-5.557-56.356l-20.373.264c-10.936.177-20.108 2.205-27.517 6.086l-94.72 50.006c-3.88-32.808-5.821-56.62-5.821-71.438 0-14.817 1.94-38.629 5.82-71.437l94.721 50.006c7.409 3.88 16.581 5.91 27.517 6.086l20.373.264c.53-10.407 2.381-29.192 5.556-56.356l94.721 50.006c10.407 5.468 19.579 8.29 27.517 8.467l85.593 2.381c4.41 0 6.615 3.528 6.615 10.583z" />
</svg>