<svg xmlns="http://www.w3.org/2000/svg" viewBox="0 0 541.867 541.867" height="2048" width="2048">
   <path d="M62.442 245.004l94.72-50.006c7.409-3.88 16.581-5.909 27.517-6.085l293.952-4.763c4.41 0 6.615-3.528 6.615-10.583 0-7.056-2.205-10.584-6.615-10.584l-293.952-4.762c-10.936-.177-20.108-2.205-27.516-6.086L62.442 102.13c-3.881 32.808-5.821 56.621-5.821 71.438 0 14.816 1.94 38.629 5.82 71.437zm155.046-87.18c5.385 0 8.078-4.41 8.078-6.615s44.838-113.903 44.838-113.903c-23.833-3.704-41.471-5.556-52.916-5.556-11.446 0-29.084 1.852-52.917 5.556 0 0 44.838 111.698 44.838 113.903 0 2.205 2.693 6.615 8.079 6.615zm105.833 0c5.386 0 8.079-4.41 8.079-6.615s44.838-113.903 44.838-113.903c-23.833-3.704-41.472-5.556-52.917-5.556s-29.084 1.852-52.917 5.556c0 0 44.838 111.698 44.838 113.903 0 2.205 2.693 6.615 8.079 6.615zm105.833 0c5.386 0 8.08-4.41 8.08-6.615S482.07 37.306 482.07 37.306c-23.833-3.704-41.472-5.556-52.917-5.556s-29.084 1.852-52.917 5.556c0 0 44.838 111.698 44.838 113.903 0 2.205 2.693 6.615 8.08 6.615zM446.352 507.487l-4.498 2.63c-29.457-24.068-64.382-54.75-104.775-92.047-20.637-19.126-32.19-29.885-34.66-32.276-13.053-12.432-23.725-23.908-32.015-34.427 10.407-13.07 32.632-35.305 66.675-66.704 40.393-37.297 75.318-67.979 104.775-92.046l4.498 2.63c-10.23 24.067-18.962 45.106-26.194 63.117-11.994 29.487-18.168 44.788-18.52 45.904-6.703 17.692-11.466 33.391-14.288 47.099 3.351 16.417 14.287 47.417 32.808 93.002 7.232 18.011 15.963 39.05 26.194 63.118zm-174.625 0l-4.498 2.63c-29.457-24.068-64.382-54.75-104.775-92.047-20.637-19.126-32.19-29.885-34.66-32.276-13.053-12.432-23.725-23.908-32.015-34.427 10.407-13.07 32.632-35.305 66.675-66.704 40.393-37.297 75.318-67.979 104.775-92.046l4.498 2.63c-10.23 24.067-18.962 45.106-26.194 63.117-11.994 29.487-18.168 44.788-18.52 45.904-6.703 17.692-11.466 33.391-14.288 47.099 3.351 16.417 14.287 47.417 32.808 93.002 7.232 18.011 15.963 39.05 26.194 63.118z" />
</svg>