<?xml version="1.0" encoding="UTF-8" standalone="no"?>
<svg
   xmlns:dc="http://purl.org/dc/elements/1.1/"
   xmlns:cc="http://creativecommons.org/ns#"
   xmlns:rdf="http://www.w3.org/1999/02/22-rdf-syntax-ns#"
   xmlns:svg="http://www.w3.org/2000/svg"
   xmlns="http://www.w3.org/2000/svg"
   xmlns:sodipodi="http://sodipodi.sourceforge.net/DTD/sodipodi-0.dtd"
   xmlns:inkscape="http://www.inkscape.org/namespaces/inkscape"
   sodipodi:docname="000-004-061_he.svg"
   inkscape:version="1.0 (4035a4fb49, 2020-05-01)"
   id="svg841"
   version="1.1"
   viewBox="0 0 541.86665 541.86668"
   height="2048"
   width="2048">
  <defs
     id="defs835" />
  <sodipodi:namedview
     inkscape:window-maximized="1"
     inkscape:window-y="-8"
     inkscape:window-x="-8"
     inkscape:window-height="1018"
     inkscape:window-width="1920"
     units="px"
     showgrid="false"
     inkscape:document-rotation="0"
     inkscape:current-layer="layer1"
     inkscape:document-units="px"
     inkscape:cy="1045.7143"
     inkscape:cx="1200"
     inkscape:zoom="0.35"
     inkscape:pageshadow="2"
     inkscape:pageopacity="0.0"
     borderopacity="1.0"
     bordercolor="#666666"
     pagecolor="#ffffff"
     id="base" />
  <metadata
     id="metadata838">
    <rdf:RDF>
      <cc:Work
         rdf:about="">
        <dc:format>image/svg+xml</dc:format>
        <dc:type
           rdf:resource="http://purl.org/dc/dcmitype/StillImage" />
        <dc:title></dc:title>
      </cc:Work>
    </rdf:RDF>
  </metadata>
  <g
     id="layer1"
     inkscape:groupmode="layer"
     inkscape:label="图层 1">
    <path
       id="path1492"
       d="m 146.05,181.23958 -48.94792,93.13334 c -4.05685,7.76102 -6.17351,17.10981 -6.34999,28.04583 L 87.31249,498.475 c 0,4.40981 -3.52768,6.61458 -10.58333,6.61458 -7.055637,0 -10.583327,-2.20477 -10.583327,-6.61458 l -3.43959,-196.05625 c -0.17647,-10.93602 -2.29314,-20.28481 -6.34999,-28.04583 L 7.4083333,181.23958 c 31.2208297,-3.70416 54.3276897,-5.55625 69.3208267,-5.55625 14.99316,0 38.1,1.85209 69.32084,5.55625 z"
       style="stroke-width:1" />
    <path
       id="path1490"
       d="m 287.86669,181.23958 -48.94792,93.13334 c -4.05686,7.76102 -6.17352,17.10981 -6.35,28.04583 L 229.12919,498.475 c 0,4.40981 -3.52769,6.61458 -10.58334,6.61458 -7.05564,0 -10.58333,-2.20477 -10.58333,-6.61458 l -3.43958,-196.05625 c -0.17648,-10.93602 -2.29315,-20.28481 -6.35,-28.04583 l -48.94792,-93.13334 c 31.22083,-3.70416 54.32769,-5.55625 69.32083,-5.55625 14.99315,0 38.1,1.85209 69.32084,5.55625 z"
       style="stroke-width:1" />
    <path
       id="path1488"
       d="m 147.10833,101.33542 c 0,8.11397 -2.91042,12.34731 -8.73125,12.7 -9.525,0.35269 -15.96311,0.88185 -19.31458,1.5875 -5.99731,1.05833 -12.17084,3.2631 -18.52084,6.61458 L 8.4666633,170.92083 c -3.88064,-32.63185 -5.82083,-55.82708 -5.82083,-69.58541 0,-13.758337 1.94019,-36.953564 5.82083,-69.58542 L 100.54166,80.433333 c 8.99584,4.7625 21.60773,7.49644 37.83542,8.202083 5.82083,0.35269 8.73125,4.586023 8.73125,12.700004 z"
       style="stroke-width:1" />
    <path
       id="path1486"
       d="m 292.62919,101.33542 c 0,8.11397 -2.91042,12.34731 -8.73125,12.7 -9.525,0.35269 -15.96311,0.88185 -19.31459,1.5875 -5.99731,1.05833 -12.17083,3.2631 -18.52083,6.61458 l -92.075,48.68333 c -3.88064,-32.63185 -5.82083,-55.82708 -5.82083,-69.58541 0,-13.758337 1.94019,-36.953564 5.82083,-69.58542 l 92.075,48.683333 c 8.99583,4.7625 21.60773,7.49644 37.83542,8.202083 5.82083,0.35269 8.73125,4.586023 8.73125,12.700004 z"
       style="stroke-width:1" />
    <path
       id="path1504"
       d="m 240.71119,499.53335 -2.36,-5.55699 q 21.41098,-32.54298 74.57491,-93.92695 53.16394,-61.38294 70.94592,-74.08294 17.78198,12.7 70.94592,74.08294 53.16394,61.38397 74.57492,93.92695 l -2.36,5.55699 q -27.94297,-15.08199 -79.47391,-37.57096 -54.79694,-24.07698 -63.68793,-24.07698 -8.88999,0 -63.68792,24.07698 -51.53094,22.48998 -79.47391,37.56998 z"
       style="stroke-width:0.828121" />
    <path
       sodipodi:nodetypes="sccccsccccsssccccsccccs"
       d="m 532.47417,103.18796 c 0,7.05533 -2.205,10.58299 -6.615,10.58299 l -103.35767,4.762 c -10.93599,0.17667 -20.10799,2.20533 -27.51598,6.086 l -94.72095,50.00596 c -3.88066,-32.80797 -5.82099,-56.62062 -5.82099,-71.43795 0,-14.815993 1.94,-38.628313 5.81999,-71.43696 l 94.72095,50.00597 c 7.40866,3.880667 16.58099,5.909333 27.51698,6.086 l 103.35767,4.762 c 4.41,0 6.615,3.527663 6.615,10.58299 z m 0,147.1079 c 0,7.05533 -2.205,10.583 -6.615,10.583 l -103.35767,4.76299 c -10.93599,0.176 -20.10799,2.20433 -27.51598,6.085 l -94.72095,50.00598 c -3.88066,-32.80799 -5.82099,-56.62031 -5.82099,-71.43697 0,-14.81665 1.94,-38.6293 5.81999,-71.43795 l 94.72195,50.00697 c 7.40799,3.87999 16.57999,5.90832 27.51598,6.08499 l 103.35767,4.763 c 4.41,0 6.615,3.52766 6.615,10.58299 z"
       style="stroke-width:1"
       id="path2" />
  </g>
</svg>
