<svg xmlns="http://www.w3.org/2000/svg" viewBox="0 0 541.867 541.867" height="2048" width="2048">
   <path d="M170.392 37.306l-48.948 93.134c-4.057 7.76-6.174 17.11-6.35 28.045l-3.44 196.057c0 4.41-3.528 6.614-10.583 6.614-7.056 0-10.583-2.205-10.583-6.614l-3.44-196.057c-.177-10.936-2.293-20.284-6.35-28.045L31.75 37.306c31.22-3.704 54.328-5.556 69.32-5.556 14.994 0 38.1 1.852 69.322 5.556zM218.546 440.531c0 8.114-2.91 12.348-8.731 12.7-9.525.353-58.297.882-61.648 1.588-5.998 1.058-12.171 3.263-18.521 6.614L37.57 510.117c-3.88-32.632-5.821-55.827-5.821-69.586 0-13.758 1.94-36.953 5.82-69.585l92.076 48.683c8.996 4.763 63.94 7.497 80.169 8.202 5.82.353 8.73 4.586 8.73 12.7zM323.358 491.86l-4.497 2.91c-29.457-26.634-64.382-60.589-104.775-101.864-20.638-21.166-32.191-33.073-34.66-35.719-13.054-13.758-23.725-26.458-32.015-38.1 10.406-14.463 32.631-39.07 66.675-73.818 40.393-41.275 75.318-75.23 104.775-101.865l4.497 2.91c-10.23 26.635-18.961 49.919-26.193 69.85-11.995 32.632-18.168 49.566-18.521 50.8-6.703 19.58-11.465 36.954-14.288 52.123 3.352 18.169 14.288 52.476 32.809 102.923 7.232 19.932 15.963 43.216 26.193 69.85zM497.983 491.86l-4.497 2.91c-29.457-26.634-64.382-60.589-104.775-101.864-20.638-21.166-32.191-33.073-34.66-35.719-13.054-13.758-23.725-26.458-32.015-38.1 10.406-14.463 32.631-39.07 66.675-73.818 40.393-41.275 75.318-75.23 104.775-101.865l4.497 2.91c-10.23 26.635-18.961 49.919-26.193 69.85-11.995 32.632-18.168 49.566-18.521 50.8-6.703 19.58-11.465 36.954-14.288 52.123 3.352 18.169 14.288 52.476 32.809 102.923 7.232 19.932 15.963 43.216 26.193 69.85zM510.117 103.188c0 7.408-2.293 11.112-6.88 11.112l-201.31 4.233c-10.936.177-20.108 2.205-27.516 6.086l-94.721 50.006c-3.88-32.808-5.821-56.62-5.821-71.438 0-14.816 1.94-38.629 5.82-71.437l94.722 50.006c7.408 3.88 16.58 5.91 27.516 6.086l201.31 4.233c4.587 0 6.88 3.704 6.88 11.113z" />
</svg>