<svg xmlns="http://www.w3.org/2000/svg" viewBox="0 0 541.867 541.867" height="2048" width="2048">
   <path d="M509.324 75.671c0 7.408-2.293 11.113-6.88 11.113l-166.499 4.233c-10.936.176-20.108 2.205-27.517 6.085l-94.72 50.006c-3.881-32.808-5.821-56.62-5.821-71.437s1.94-38.63 5.82-71.438l94.721 50.007c7.409 3.88 16.581 5.91 27.517 6.085l166.499 4.233c4.587 0 6.88 3.705 6.88 11.113zm-2.382 449.99l-4.437 3.506c-29.058-32.09-63.51-73-103.357-122.728-20.359-25.502-31.755-39.847-34.191-43.035-12.876-16.576-23.404-31.877-31.582-45.904 10.266-17.426 32.19-47.072 65.773-88.939 39.846-49.729 74.299-90.638 103.357-122.728l4.437 3.506c-10.093 32.09-18.705 60.143-25.84 84.157-11.831 39.316-17.922 59.717-18.269 61.205-6.613 23.59-11.31 44.523-14.095 62.8 3.306 21.888 14.094 63.223 32.364 124.003 7.135 24.015 15.747 52.067 25.84 84.157zm-158.75 0l-4.437 3.506c-29.059-32.09-63.51-73-103.357-122.728-20.359-25.502-31.756-39.847-34.191-43.035-12.877-16.576-23.404-31.877-31.582-45.904 10.266-17.426 32.19-47.072 65.773-88.939 39.846-49.729 74.298-90.638 103.357-122.728l4.437 3.506c-10.093 32.09-18.705 60.143-25.84 84.157-11.831 39.316-17.922 59.717-18.27 61.205-6.612 23.59-11.31 44.523-14.094 62.8 3.306 21.888 14.094 63.223 32.364 124.003 7.135 24.015 15.747 52.067 25.84 84.157zM174.625 195.862l-50.006 117.875q-8.202 19.426-8.467 34.243l-2.381 181.422q0 8.232-10.583 8.232-10.584 0-10.584-8.232L90.223 347.98q-.265-14.816-8.467-34.243L31.75 195.864q18.785-2.964 56.356-6.915l-.264-25.353q-.265-20.414-6.086-34.244L31.75 11.477q49.212-7.244 71.438-7.244 22.224 0 71.437 7.243l-50.006 117.875q-5.821 13.83-6.086 34.244l-.264 25.353q15.61.988 56.356 6.914zM720.298 102.241c-35.537 11.176-71.227 21.893-106.665 33.369-11.292 3.474-20.099 11.362-28.163 19.612-12.295 11.748-24.347 23.77-36.795 35.345-7.498 2.935-19.26-8.797-13.751-15.942 14.793-15.443 29.855-30.64 44.476-46.242 10.693-13.964 13.551-31.712 19.187-47.973L622.28 4.233c26.472 20.966 53.15 42.212 74.3 68.786 8.086 9.593 15.95 19.37 23.718 29.222z" />
</svg>