<svg xmlns="http://www.w3.org/2000/svg" viewBox="0 0 541.867 541.867" height="2048" width="2048">
   <path d="M509.985 250.296c0 7.055-2.205 10.583-6.615 10.583l-120.86 4.763c-10.936.176-20.108 2.204-27.516 6.085l-94.72 50.006c-3.881-32.808-5.822-56.62-5.822-71.437s1.94-38.63 5.82-71.438l94.722 50.007c7.408 3.88 16.58 5.908 27.516 6.085l120.86 4.763c4.41 0 6.615 3.528 6.615 10.583zM509.985 103.188c0 7.055-2.205 10.583-6.615 10.583l-120.86 4.762c-10.936.177-20.108 2.205-27.516 6.086l-94.72 50.006c-3.881-32.808-5.822-56.62-5.822-71.438 0-14.816 1.94-38.628 5.82-71.437l94.721 50.006c7.41 3.88 16.581 5.91 27.517 6.086l120.86 4.762c4.41 0 6.615 3.528 6.615 10.583zM206.72 510.117l-2.567-5.557q23.288-32.543 81.11-93.927 57.824-61.383 77.164-74.083 19.34 12.7 77.163 74.083 57.823 61.384 81.11 93.927l-2.566 5.557q-30.39-15.082-86.438-37.571-59.599-24.077-69.269-24.077-9.67 0-69.269 24.077-56.047 22.49-86.439 37.57zM155.046 247.317c0 8.114-5.821 12.524-8.731 12.7-2.91.177-108.744 56.886-108.744 56.886-3.88-32.632-5.821-55.827-5.821-69.586 0-13.758 1.94-36.953 5.82-69.585 0 0 105.834 56.709 108.745 56.885 2.91.177 8.73 4.586 8.73 12.7zM250.548 37.571l-50.007 94.72c-3.88 7.409-5.91 16.581-6.085 27.517l-4.762 343.562c0 4.41-3.528 6.615-10.584 6.615-7.055 0-10.583-2.205-10.583-6.615l-4.763-343.562c-.176-10.936-2.204-20.108-6.085-27.516l-50.006-94.721c32.808-3.881 56.62-5.821 71.437-5.821s38.63 1.94 71.438 5.82z" />
</svg>