<svg xmlns="http://www.w3.org/2000/svg" viewBox="0 0 541.867 541.867" height="2048" width="2048">
   <path d="M373.063 533.31l-5.556 4.324c-21.696-26.162-53.006-71.72-93.928-136.677-40.922-64.956-65.617-108.299-74.083-130.025 8.466-21.726 33.16-65.067 74.083-130.024C314.501 75.95 345.811 30.392 367.507 4.233l5.556 4.324c-10.054 34.14-22.577 82.691-37.57 145.653-16.053 66.952-24.079 105.86-24.079 116.722 0 10.863 8.026 49.772 24.078 116.725 14.994 62.96 27.517 111.512 37.57 145.653zM510.117 533.31l-5.557 4.324c-21.695-26.162-53.004-71.72-93.927-136.677C369.711 336 345.017 292.658 336.55 270.932c8.467-21.726 33.161-65.067 74.083-130.024C451.556 75.95 482.865 30.392 504.56 4.233l5.557 4.324c-10.055 34.14-22.578 82.691-37.571 145.653-16.052 66.952-24.077 105.86-24.077 116.722 0 10.863 8.025 49.772 24.077 116.725 14.993 62.96 27.517 111.512 37.57 145.653zM129.758 4.233c11.176 35.537 21.893 71.227 33.368 106.665 3.475 11.292 11.363 20.1 19.612 28.163 11.748 12.295 23.77 24.347 35.346 36.795 2.935 7.498-8.797 19.26-15.942 13.751-15.443-14.793-30.64-29.856-46.242-44.476-13.964-10.693-31.712-13.55-47.973-19.187L31.75 102.251c20.966-26.472 42.212-53.15 68.786-74.3 9.593-8.086 19.37-15.95 29.222-23.718z" />
</svg>