<?xml version="1.0" encoding="UTF-8" standalone="no"?>
<svg
   xmlns:dc="http://purl.org/dc/elements/1.1/"
   xmlns:cc="http://creativecommons.org/ns#"
   xmlns:rdf="http://www.w3.org/1999/02/22-rdf-syntax-ns#"
   xmlns:svg="http://www.w3.org/2000/svg"
   xmlns="http://www.w3.org/2000/svg"
   xmlns:sodipodi="http://sodipodi.sourceforge.net/DTD/sodipodi-0.dtd"
   xmlns:inkscape="http://www.inkscape.org/namespaces/inkscape"
   sodipodi:docname="000-004-061_pu.svg"
   inkscape:version="1.0 (4035a4fb49, 2020-05-01)"
   id="svg841"
   version="1.1"
   viewBox="0 0 541.86665 541.86668"
   height="2048"
   width="2048">
  <defs
     id="defs835" />
  <sodipodi:namedview
     inkscape:window-maximized="1"
     inkscape:window-y="-8"
     inkscape:window-x="-8"
     inkscape:window-height="1018"
     inkscape:window-width="1920"
     units="px"
     showgrid="false"
     inkscape:document-rotation="0"
     inkscape:current-layer="layer1"
     inkscape:document-units="px"
     inkscape:cy="1045.7143"
     inkscape:cx="1085.7143"
     inkscape:zoom="0.35"
     inkscape:pageshadow="2"
     inkscape:pageopacity="0.0"
     borderopacity="1.0"
     bordercolor="#666666"
     pagecolor="#ffffff"
     id="base" />
  <metadata
     id="metadata838">
    <rdf:RDF>
      <cc:Work
         rdf:about="">
        <dc:format>image/svg+xml</dc:format>
        <dc:type
           rdf:resource="http://purl.org/dc/dcmitype/StillImage" />
        <dc:title></dc:title>
      </cc:Work>
    </rdf:RDF>
  </metadata>
  <g
     id="layer1"
     inkscape:groupmode="layer"
     inkscape:label="图层 1">
    <path
       d="m 404.67944,479.68955 -5.55601,3.44001 c -21.69597,-20.81498 -53.00496,-57.06295 -93.92694,-108.74494 -40.92197,-51.68096 -65.61695,-86.16593 -74.08295,-103.45193 8.466,-17.28598 33.15998,-51.76996 74.08295,-103.45193 40.92198,-51.68196 72.22997,-87.929942 93.92694,-108.742929 l 5.55601,3.439998 c -10.05401,27.162979 -22.577,65.791961 -37.56999,115.886921 -16.05198,53.26897 -24.07798,84.22495 -24.07798,92.86794 0,8.643 8.026,39.59998 24.07698,92.86994 14.99399,50.09298 27.51698,88.72295 37.56998,115.88692 z m 116.41767,0 -5.55699,3.44001 C 493.84514,462.31458 462.53614,426.06661 421.61317,374.38462 380.69121,322.70366 355.99722,288.21869 347.53021,270.93269 355.99722,253.64671 380.6902,219.16273 421.61317,167.48076 462.53614,115.7988 493.84514,79.550818 515.54012,58.737831 l 5.55699,3.439998 c -10.05501,27.162979 -22.57798,65.791961 -37.57099,115.886921 -16.05198,53.26897 -24.07698,84.22495 -24.07698,92.86794 0,8.643 8.025,39.59998 24.07698,92.86994 14.99301,50.09298 27.51699,88.72295 37.56999,115.88692 z M 281.38327,37.570996 231.37731,132.29094 c -3.88,7.40866 -5.90867,16.58099 -6.086,27.51698 l -4.762,341.3127 c 0,4.41 -3.52766,6.615 -10.58299,6.615 -7.05599,0 -10.58399,-2.205 -10.58399,-6.615 l -4.762,-341.3117 c -0.17667,-10.93599 -2.20533,-20.10832 -6.086,-27.51698 L 138.50936,37.570996 C 171.31734,33.690332 195.12999,31.75 209.94732,31.75 c 14.81599,0 38.6283,1.939999 71.43695,5.819996 z M 165.23229,103.98125 c 0,8.11397 -2.91042,12.34731 -8.73125,12.7 -9.525,0.35269 -15.96311,0.88185 -19.31458,1.5875 -5.99731,1.05833 -12.17084,3.2631 -18.52084,6.61458 l -92.074999,48.68333 c -3.880639,-32.63185 -5.820829,-55.82708 -5.820829,-69.58541 0,-13.758337 1.94019,-36.953557 5.820829,-69.585417 l 92.074999,48.68333 c 8.99584,4.7625 21.60773,7.49644 37.83542,8.20209 5.82083,0.35269 8.73125,4.58602 8.73125,12.699997 z m -1.05833,79.90416 -48.94792,93.13334 c -4.05686,7.76102 -6.17352,17.10981 -6.35,28.04583 l -3.43958,196.05625 c 0,4.40981 -3.52769,6.61458 -10.583339,6.61458 -7.05564,0 -10.58333,-2.20477 -10.58333,-6.61458 l -3.43958,-196.05625 c -0.17648,-10.93602 -2.29315,-20.28481 -6.35,-28.04583 l -48.94792,-93.13334 c 31.22083,-3.70416 54.32769,-5.55625 69.32083,-5.55625 14.993149,0 38.099999,1.85209 69.320839,5.55625 z"
       style="stroke-width:1"
       id="path2" />
  </g>
</svg>
