<svg xmlns="http://www.w3.org/2000/svg" viewBox="-10 0 2048 2048" width="2048" height="2048">
   <path d="M1313.886 1096.705C1248.78 1221.547 1182.04 1345.57 1118 1470.947c-20.894 39.466-23.35 84.083-22.853 127.68-1.461 64.256-1.541 128.596-3.873 192.798-12.196 27.882-74.985 27.964-79.357-5.854-1.737-80.809-2.098-161.678-4.72-242.447-8.742-65.895-48.534-120.968-76.93-179.488L790 1096.733c126.78-14.718 254.86-29.235 382.401-14.737 47.248 4.025 94.397 9.138 141.485 14.709zM1313.886 730.981l-222.613-494.72c-12.196-27.882-74.985-27.963-79.357 5.854L790 730.954c126.78 14.717 254.86 29.234 382.401 14.736 47.248-4.025 94.397-9.138 141.485-14.709z" />
</svg>