<svg xmlns="http://www.w3.org/2000/svg" viewBox="0 0 541.867 541.867" height="2048" width="2048">
   <g stroke="#000" stroke-width="2.646">
      <path d="M362.26 382.13a139.528 139.528 0 00-4.548.08 128.512 128.512 0 00-22.902 2.73c-3.313 8.565-1.535 13.344 0 18.273 7.668 2.408 14.245 6.191 18.19 13.56l11.245 79.544 11.657-80.947c3.281-5.3 4.779-11.13 16.373-14.054 2.926-11.311.447-11.811 0-16.373-9.705-1.566-19.548-2.783-30.015-2.81zm-113.358 45.556c-11.263 14.007-21.78 29.141-28.442 50.022 5.807 7.115 10.75 7.909 15.793 9.015 5.881-5.477 12.48-9.396 20.836-9.179l74.662 29.6-64.577-50.187c-2.981-5.474-7.241-9.644-4.048-21.167-8.384-8.136-10.035-6.236-14.224-8.104zm231.593 1.159c-9.091 1.286-12.399 5.104-15.955 8.848 1.64 7.866 1.614 15.53-2.897 22.569l-63.995 48.62 76.399-29.271c6.226.28 11.967-1.254 20.174 7.442 11.298-2.963 10.539-5.405 14.304-8.022-6.154-16.886-13.608-33.679-28.03-50.186zM100.47 33.073l43.903 38.78v43.49h-72.76L33.413 72.844l-.33 113.189 38.777-44.397h72.18l.334 286.955v2.646l11.99 78.879 14.304-78.549V141.547h74.165l37.042 47.956V71.355l-34.975 44.4h-76.068V72.76l44.9-39.687z" />
   </g>
</svg>