<svg xmlns="http://www.w3.org/2000/svg" viewBox="0 0 541.867 541.867" height="2048" width="2048">
   <path d="M174.625 62.442l-50.006 94.72q-4.498 8.203-5.821 21.96 17.198.795 54.504 5.293l-50.006 94.72q-6.35 11.907-6.88 29.105 14.024.529 55.563 5.556l-50.006 94.72q-7.144 13.759-7.408 23.284l-.794 46.831q0 6.615-10.583 6.615-10.584 0-10.584-6.615L91.81 431.8q-.264-9.525-7.408-23.283l-50.006-94.721q18.52-2.381 55.562-5.556-.529-17.198-6.879-29.105l-50.006-94.72q18.256-2.117 54.504-5.292-1.323-13.758-5.82-21.96L31.75 62.441q49.212-5.821 71.438-5.821 22.224 0 71.437 5.82zM371.217 199.496c0 7.055-2.205 10.583-6.615 10.583l-61.119 1.852c-8.995.177-18.344 2.822-28.045 7.938l-93.134 48.948c-3.704-31.221-5.556-54.328-5.556-69.321 0-14.993 1.852-38.1 5.556-69.321l93.134 48.948c9.701 5.115 19.05 7.761 28.045 7.937l61.12 1.852c4.409 0 6.614 3.528 6.614 10.584zm0 142.875c0 7.055-2.205 10.583-6.615 10.583l-61.119 1.852c-8.995.177-18.344 2.822-28.045 7.938l-93.134 48.948c-3.704-31.221-5.556-54.328-5.556-69.321 0-14.993 1.852-38.1 5.556-69.321l93.134 48.948c9.701 5.115 19.05 7.761 28.045 7.937l61.12 1.853c4.409 0 6.614 3.527 6.614 10.583zM510.117 479.69l-5.557 3.44q-32.543-31.222-93.927-108.745-61.383-77.522-74.083-103.452 12.7-25.929 74.083-103.452 61.384-77.523 93.927-108.743l5.557 3.44q-15.082 40.745-37.571 115.887-24.077 79.904-24.077 92.868 0 12.965 24.077 92.87 22.49 75.14 37.57 115.887z" />
</svg>