<svg xmlns="http://www.w3.org/2000/svg" viewBox="0 0 541.867 541.867" height="2048" width="2048">
   <path d="M307.71 286.147c8.114 0 12.348-2.91 12.7-8.731l56.886-112.845c-32.632-3.88-55.827-5.821-69.586-5.821-13.758 0-36.953 1.94-69.585 5.82l56.885 112.846c.353 5.82 4.586 8.73 12.7 8.73zM37.57 174.625l94.722-50.006c7.408-3.88 16.58-5.91 27.516-6.086l343.562-4.762c4.41 0 6.614-3.528 6.614-10.583 0-7.056-2.204-10.584-6.614-10.584l-343.562-4.762c-10.936-.177-20.108-2.205-27.516-6.086L37.57 31.75c-3.88 32.808-5.821 56.62-5.821 71.438 0 14.816 1.94 38.629 5.82 71.437zM235.478 164.571l-50.005 94.72c-3.88 7.409-5.91 16.58-6.086 27.517l-4.762 216.562c0 4.41-3.528 6.615-10.583 6.615-7.056 0-10.584-2.205-10.584-6.615l-4.762-216.561c-.177-10.936-2.205-20.108-6.086-27.517L92.604 164.57c32.808-3.88 56.62-5.821 71.438-5.821 14.816 0 38.628 1.94 71.437 5.82zM491.067 507.054l-5.556 3.063q-32.544-27.796-93.927-96.812-61.384-69.017-74.084-92.102 12.7-23.084 74.084-92.1 61.383-69.017 93.927-96.811l5.556 3.062q-15.08 36.274-37.57 103.171-24.078 71.137-24.078 82.678 0 11.543 24.077 82.68 22.49 66.896 37.57 103.171z" />
</svg>