<svg xmlns="http://www.w3.org/2000/svg" width="2048" height="2048" viewBox="0 0 541.867 541.867">
   <path d="M443.971 477.573l-5.557 3.44c-21.695-20.815-53.004-57.063-93.927-108.745-40.922-51.681-65.616-86.166-74.083-103.452 8.467-17.286 33.16-51.77 74.083-103.452 40.923-51.682 72.232-87.93 93.927-108.743l5.557 3.44c-10.055 27.163-22.579 65.792-37.57 115.887-16.053 53.269-24.078 84.225-24.078 92.868s8.025 39.6 24.077 92.87c14.993 50.093 27.517 88.723 37.57 115.887zM324.38 440.531c0 8.114-2.91 12.348-8.73 12.7-9.526.353-111.214.882-114.565 1.588-5.998 1.058-12.171 3.263-18.521 6.614l-92.076 48.684c-3.88-32.632-5.821-55.827-5.821-69.586 0-13.758 1.94-36.953 5.82-69.585l92.076 48.683c8.996 4.763 116.858 7.497 133.085 8.202 5.82.353 8.73 4.586 8.73 12.7zM273.58 37.306l-48.948 93.134c-4.057 7.76-6.174 17.11-6.35 28.045l-3.44 243.682c0 4.41-3.528 6.614-10.583 6.614-7.056 0-10.583-2.205-10.583-6.614l-3.44-243.682c-.177-10.936-2.293-20.284-6.35-28.045l-48.948-93.134c31.22-3.704 54.328-5.556 69.32-5.556 14.994 0 38.1 1.852 69.322 5.556z" />
</svg>