<svg xmlns="http://www.w3.org/2000/svg" viewBox="-10 0 2048 2048" width="2048" height="2048">
   <path d="M1921.5 383c0 30.667-11 46.667-33 48-53.018.089-551.282 8.974-593.5 31L947 646c-14.667-123.333-22-211-22-263s7.333-139.667 22-263l348 184c34 18 532.167 28.333 593.5 31 22 1.333 33 17.333 33 48zM735.396 1928l-9.663-23.714c58.474-92.599 160.307-226.227 305.5-400.885 145.192-174.657 242.07-280.054 290.633-316.19 48.563 36.136 145.441 141.533 290.634 316.19 145.193 174.658 247.026 308.286 305.5 400.885l-9.663 23.714c-76.313-42.912-184.836-96.362-325.57-160.354-149.652-68.508-236.619-102.762-260.9-102.762-24.282 0-111.25 34.254-260.902 102.762-140.733 63.992-249.256 117.442-325.57 160.354zm0-587.21l-9.663-23.715c58.474-92.599 160.307-226.226 305.5-400.885 145.192-174.657 242.07-280.054 290.633-316.19 48.563 36.136 145.441 141.533 290.634 316.19 145.193 174.658 247.026 308.286 305.5 400.885l-9.663 23.714c-76.313-42.911-184.836-96.362-325.57-160.354-149.652-68.508-236.619-102.761-260.9-102.761-24.282 0-111.25 34.253-260.902 102.761-140.733 63.992-249.256 117.443-325.57 160.354zM576 862.998c0 30.667-22 47.335-32.999 48-10.998.67-411 215.002-411 215.002C117.336 1002.667 110 915 110 862.998 110 811 117.332 723.333 131.997 600c0 0 400.002 214.333 411.004 214.998 10.999.67 32.996 17.333 32.996 48zM910 142L720.999 499.998C706.333 528 698.661 562.666 698 603.998L680 1902.5c0 16.668-13.334 25.002-40.002 25.002-26.665 0-39.999-8.334-39.999-25.002L582 604c-.666-41.333-8.33-76-22.999-103.998l-188.999-358C494 127.332 583.998 120 640 120c56.001 0 146.003 7.332 270.002 21.997zM576 1412.998c0 30.667-22 47.335-32.999 48-10.998.67-411 215.002-411 215.002C117.336 1552.667 110 1465 110 1412.998c0-51.998 7.332-139.665 21.997-262.998 0 0 400.002 214.333 411.004 214.998 10.999.67 32.996 17.333 32.996 48z" />
</svg>