<svg xmlns="http://www.w3.org/2000/svg" width="1536" height="2048" viewBox="0 0 406.4 541.867">
   <path d="M221.457 534.202l-5.556 3.432c-21.696-20.764-53.006-56.92-93.928-108.474-40.922-51.552-65.617-85.951-74.083-103.194 8.466-17.243 33.16-51.64 74.083-103.194 40.922-51.554 72.232-87.71 93.928-108.472l5.556 3.432c-10.054 27.095-22.577 65.628-37.57 115.597-16.053 53.137-24.08 84.016-24.08 92.637 0 8.621 8.027 39.501 24.079 92.638 14.994 49.969 27.517 88.502 37.57 115.598zm137.054 0l-5.557 3.432c-21.695-20.764-53.004-56.92-93.927-108.474-40.922-51.553-65.616-85.951-74.083-103.194 8.467-17.243 33.16-51.64 74.083-103.194s72.232-87.71 93.927-108.472l5.557 3.432c-10.055 27.095-22.578 65.628-37.571 115.597-16.052 53.137-24.077 84.016-24.077 92.637 0 8.621 8.025 39.501 24.077 92.638 14.993 49.969 27.517 88.502 37.57 115.598z" />
</svg>