<svg xmlns="http://www.w3.org/2000/svg" height="2048" width="2048" viewBox="-10 0 2048 2048">
   <path d="M1903 2015.66l-21 16.34c-82-98.873-200.333-271.063-355-516.569-154.667-245.505-248-409.317-280-491.431 32-82.114 125.333-245.926 280-491.431C1681.667 287.063 1800 114.873 1882 16l21 16.34c-38 129.037-85.333 312.538-142 550.503-60.667 253.047-91 400.1-91 441.157 0 41.058 30.333 188.11 91 441.157 56.667 237.965 104 421.466 142 550.504zM692 754l358 189c39.333 20.667 74 31.333 104 32l67.5 9c16.667 0 25 13.333 25 40s-8.333 40-25 40l-67.5 9c-30 .667-64.667 11.333-104 32l-358 189c-6-47.333-13-118.333-21-213l-77 1c-41.333.667-76 8.333-104 23l-358 189c-14.667-124-22-214-22-270s7.333-146 22-270l358 189c28 14.667 62.667 22.333 104 23l77 1c2-39.333 9-110.333 21-213zM2379.759 16c42.24 134.314 82.744 269.204 126.116 403.142 13.132 42.681 42.945 75.966 74.124 106.444 44.402 46.468 89.84 92.02 133.59 139.066 11.092 28.34-33.25 72.796-60.253 51.975-58.37-55.912-115.808-112.84-174.774-168.098-52.776-40.414-119.856-51.219-181.314-72.52l-287.913-89.546c79.24-100.053 159.54-200.885 259.978-280.819 36.256-30.563 73.21-60.287 110.446-89.644z" />
</svg>