<svg xmlns="http://www.w3.org/2000/svg" width="2048" height="2048" viewBox="0 0 541.867 541.867">
   <path d="M342.37 241.301c-7.055 0-10.582-2.205-10.582-6.615l-4.763-76.994c-.176-10.936-2.205-20.108-6.085-27.516l-50.007-94.722c32.809-3.88 56.621-5.821 71.438-5.821s38.629 1.94 71.437 5.82l-50.006 94.722c-3.88 7.408-5.909 16.58-6.085 27.516l-4.763 76.994c0 4.41-3.528 6.615-10.583 6.615zm-147.107 0c-7.056 0-10.584-2.205-10.584-6.615l-4.762-76.994c-.177-10.936-2.205-20.108-6.086-27.516l-50.006-94.722c32.808-3.88 56.62-5.821 71.438-5.821 14.816 0 38.629 1.94 71.437 5.82l-50.006 94.722c-3.88 7.408-5.91 16.58-6.086 27.516l-4.762 76.994c0 4.41-3.528 6.615-10.584 6.615zM62.177 386.292l-3.44-5.556c20.814-21.696 57.062-53.005 108.744-93.927 51.682-40.922 86.166-65.617 103.452-74.083 17.286 8.466 51.77 33.16 103.452 74.083 51.682 40.922 87.93 72.231 108.744 93.927l-3.44 5.556c-27.163-10.054-65.793-22.577-115.887-37.57-53.27-16.052-84.226-24.078-92.869-24.078s-39.6 8.026-92.868 24.078c-50.095 14.993-88.724 27.516-115.888 37.57zm0 121.709l-3.44-5.557c20.814-21.695 57.062-53.004 108.744-93.927 51.682-40.922 86.166-65.616 103.452-74.083 17.286 8.467 51.77 33.161 103.452 74.083 51.682 40.923 87.93 72.232 108.744 93.927l-3.44 5.557c-27.163-10.055-65.793-22.578-115.887-37.571-53.27-16.052-84.226-24.077-92.869-24.077s-39.6 8.025-92.868 24.077C127.97 485.423 89.341 497.947 62.177 508z" />
</svg>