<svg xmlns="http://www.w3.org/2000/svg" viewBox="0 0 132.821 138.906" height="52.5" width="50.2">
   <path d="M17.693 92.626V65.673c-3.624-3.451-9.49-8.546-17.428-14.955v-4.273h17.428V19.821c-3.624-3.615-9.49-8.71-17.428-15.12V.266h39.687v4.273c-.345.657-5.867 5.752-16.565 15.283v26.624h16.565v4.109c-5.177 5.094-8.628 7.724-16.565 15.12v26.952h16.565v3.944c-.345.657-5.867 5.916-16.565 15.612v26.46h-5.694v-26.46L.265 97.062v-4.436zM111.04 72.17l21.516 60.264L90.73 73.462l-9.639.517v64.663h-6.713V74.497h-10.5l-23.925 30.262V35.182L63.878 64.41h10.5V35.96L54.41.264h46.302L81.09 35.182v28.969h9.64l41.826-60.265-21.516 58.713h21.344v9.57z" />
</svg>