<svg xmlns="http://www.w3.org/2000/svg" viewBox="0 0 541.867 541.867" height="2048" width="2048">
   <path d="M176.742 330.994l-48.948 93.133c-4.057 7.585-6.174 16.933-6.35 28.046l-1.059 46.037c-.176 5.998-4.498 8.996-12.964 8.996-8.467 0-12.788-2.998-12.965-8.996l-1.058-46.037c-.177-11.113-2.293-20.461-6.35-28.046L38.1 330.994c31.22-3.704 54.328-5.557 69.32-5.557 14.994 0 38.1 1.853 69.322 5.557zM188.383 254c0 8.643-2.469 12.965-7.408 12.965l-21.167 2.38c-10.936.177-20.108 2.206-27.516 6.086L37.57 325.438C33.69 292.629 31.75 268.817 31.75 254s1.94-38.63 5.82-71.438l94.722 50.007c7.408 3.88 16.58 5.909 27.516 6.085l21.167 2.381c4.939 0 7.408 4.322 7.408 12.965zM188.383 103.188c0 8.643-2.469 12.964-7.408 12.964l-21.167 2.381c-10.936.177-20.108 2.205-27.516 6.086L37.57 174.625c-3.88-32.808-5.821-56.62-5.821-71.438 0-14.816 1.94-38.629 5.82-71.437l94.722 50.006c7.408 3.88 16.58 5.91 27.516 6.086l21.167 2.38c4.939 0 7.408 4.322 7.408 12.965zM343.957 210.608l-50.005 94.72q-8.202 15.61-8.467 27.518l-2.38 145.785q0 6.615-10.584 6.615t-10.584-6.615l-2.38-145.785q-.266-11.906-8.468-27.517l-50.006-94.72q18.785-2.381 56.356-5.556l-.264-20.373q-.265-16.404-6.086-27.517l-50.006-94.721q49.212-5.821 71.438-5.821 22.224 0 71.437 5.82l-50.006 94.72q-5.82 11.114-6.086 27.518l-.264 20.373q15.61.794 56.356 5.556zM510.117 479.69l-5.557 3.44q-32.543-31.222-93.927-108.745-61.383-77.522-74.083-103.452 12.7-25.93 74.083-103.452 61.384-77.523 93.927-108.743l5.557 3.44q-15.082 40.745-37.57 115.887-24.078 79.904-24.078 92.868 0 12.965 24.077 92.87 22.49 75.14 37.57 115.887z" />
</svg>