<svg xmlns="http://www.w3.org/2000/svg" viewBox="0 0 541.867 541.867" height="2048" width="2048">
   <path d="M273.58 9.79l-48.948 93.133c-4.057 7.76-6.174 17.11-6.35 28.045l-3.44 259.557c0 4.41-3.528 6.614-10.583 6.614-7.056 0-10.583-2.205-10.583-6.614l-3.44-259.557c-.177-10.936-2.293-20.284-6.35-28.045L134.938 9.79c31.22-3.704 54.328-5.556 69.32-5.556 14.994 0 38.1 1.852 69.322 5.556zM324.38 464.344c0 8.114-2.91 12.348-8.73 12.7-9.526.353-111.214.882-114.565 1.588-5.998 1.058-12.171 3.263-18.521 6.614L90.488 533.93c-3.88-32.632-5.821-55.827-5.821-69.586 0-13.758 1.94-36.953 5.82-69.585l92.076 48.683c8.996 4.763 116.858 7.497 133.085 8.202 5.82.353 8.73 4.586 8.73 12.7zM443.971 533.31l-5.557 4.324c-21.695-26.162-53.004-71.72-93.927-136.677-40.922-64.956-65.616-108.299-74.083-130.025 8.467-21.726 33.16-65.067 74.083-130.024C385.41 75.95 416.719 30.392 438.414 4.233l5.557 4.324c-10.055 34.14-22.579 82.691-37.57 145.653-16.053 66.952-24.078 105.86-24.078 116.722 0 10.863 8.025 49.772 24.077 116.725 14.993 62.96 27.517 111.512 37.57 145.653z" />
</svg>