<svg xmlns="http://www.w3.org/2000/svg" width="2048" height="2048" viewBox="0 0 541.867 541.867">
   <path d="M510.117 479.69l-5.557 3.44q-32.543-31.222-93.927-108.745-61.383-77.522-74.083-103.452 12.7-25.93 74.083-103.452 61.384-77.523 93.927-108.743l5.557 3.44q-15.082 40.745-37.57 115.887-24.078 79.904-24.078 92.868 0 12.965 24.077 92.87 22.49 75.14 37.57 115.887zM342.37 195.862l-50.005 117.874q-8.202 19.425-8.467 34.244l-2.381 181.422q0 8.232-10.583 8.232-10.584 0-10.584-8.232l-2.381-181.422q-.265-14.816-8.467-34.243l-50.006-117.874q18.785-2.963 56.356-6.914l-.264-25.353q-.265-20.414-6.086-34.244L199.496 11.477q49.212-7.244 71.438-7.244 22.224 0 71.437 7.243L292.365 129.35q-5.821 13.83-6.086 34.245l-.264 25.353q15.61.988 56.356 6.914zM190.5 344.487c0 7.056-2.205 10.584-6.615 10.584l-24.077 4.762c-10.936.177-20.108 2.205-27.516 6.086L37.57 415.925c-3.88-32.808-5.821-56.62-5.821-71.438 0-14.816 1.94-38.629 5.82-71.437l94.722 50.006c7.408 3.88 16.58 5.91 27.516 6.086l24.077 4.762c4.41 0 6.615 3.528 6.615 10.584zM190.5 197.38c0 7.055-2.205 10.582-6.615 10.582l-24.077 4.763c-10.936.176-20.108 2.205-27.516 6.085L37.57 268.817c-3.88-32.809-5.821-56.621-5.821-71.438s1.94-38.629 5.82-71.437l94.722 50.006c7.408 3.88 16.58 5.909 27.516 6.085l24.077 4.763c4.41 0 6.615 3.528 6.615 10.583z" />
</svg>