<?xml version="1.0" encoding="UTF-8" standalone="no"?>
<svg
   xmlns:dc="http://purl.org/dc/elements/1.1/"
   xmlns:cc="http://creativecommons.org/ns#"
   xmlns:rdf="http://www.w3.org/1999/02/22-rdf-syntax-ns#"
   xmlns:svg="http://www.w3.org/2000/svg"
   xmlns="http://www.w3.org/2000/svg"
   xmlns:sodipodi="http://sodipodi.sourceforge.net/DTD/sodipodi-0.dtd"
   xmlns:inkscape="http://www.inkscape.org/namespaces/inkscape"
   inkscape:version="1.0 (4035a4fb49, 2020-05-01)"
   sodipodi:docname="000-004-062_间隔点.svg"
   id="svg4"
   version="1.1"
   height="2048"
   width="2048"
   viewBox="-10 0 2048 2048">
  <metadata
     id="metadata10">
    <rdf:RDF>
      <cc:Work
         rdf:about="">
        <dc:format>image/svg+xml</dc:format>
        <dc:type
           rdf:resource="http://purl.org/dc/dcmitype/StillImage" />
        <dc:title></dc:title>
      </cc:Work>
    </rdf:RDF>
  </metadata>
  <defs
     id="defs8" />
  <sodipodi:namedview
     inkscape:current-layer="svg4"
     inkscape:window-maximized="1"
     inkscape:window-y="-8"
     inkscape:window-x="-8"
     inkscape:cy="1060.6122"
     inkscape:cx="331.77662"
     inkscape:zoom="0.2464242"
     showgrid="false"
     id="namedview6"
     inkscape:window-height="1018"
     inkscape:window-width="1920"
     inkscape:pageshadow="2"
     inkscape:pageopacity="0"
     guidetolerance="10"
     gridtolerance="10"
     objecttolerance="10"
     borderopacity="1"
     bordercolor="#666666"
     pagecolor="#ffffff" />
  <path
     sodipodi:nodetypes="cccsccccccscccc"
     id="path2"
     d="m 1072,956 c 0.667,-41.333 8.333,-76 23,-104 l 189,-358 c -124,-14.667 -214,-22 -270,-22 -56,0 -146,7.333 -270,22 l 189,358 c 14.667,28 22.333,62.667 23,104 v 136 c -0.667,41.333 -8.333,76 -23,104 l -189,358 c 124,14.667 214,22 270,22 56,0 146,-7.333 270,-22 l -189,-358 c -14.667,-28 -22.333,-62.667 -23,-104 z" />
</svg>
