<svg xmlns="http://www.w3.org/2000/svg" viewBox="0 0 541.867 541.867" height="2048" width="2048">
   <path d="M373.063 533.31l-5.556 4.324c-21.696-26.162-53.006-71.72-93.928-136.677-40.922-64.956-65.617-108.299-74.083-130.025 8.466-21.726 33.16-65.067 74.083-130.024C314.501 75.95 345.811 30.392 367.507 4.233l5.556 4.324c-10.054 34.14-22.577 82.691-37.57 145.653-16.053 66.952-24.079 105.86-24.079 116.722 0 10.863 8.026 49.772 24.078 116.725 14.994 62.96 27.517 111.512 37.57 145.653zm137.056 0l-5.557 4.324c-21.696-26.162-53.005-71.72-93.928-136.677C369.71 336 345.017 292.658 336.55 270.932c8.467-21.726 33.161-65.067 74.084-130.024C451.557 75.95 482.866 30.392 504.562 4.233l5.557 4.324c-10.056 34.14-22.579 82.691-37.572 145.653-16.052 66.952-24.077 105.86-24.077 116.722 0 10.863 8.025 49.772 24.077 116.725 14.993 62.96 27.517 111.512 37.57 145.653zM174.625 11.478L124.62 129.352q-4.498 10.208-5.82 27.328 17.197.99 54.503 6.587L123.296 281.14q-6.35 14.818-6.88 36.22 14.024.658 55.563 6.914l-50.006 117.874q-7.144 17.122-7.408 28.975l-.794 58.279q0 8.232-10.584 8.232-10.583 0-10.583-8.232l-.794-58.279q-.264-11.853-7.408-28.974L34.396 324.274q18.52-2.963 55.562-6.914-.529-21.402-6.879-36.22L33.073 163.267q18.256-2.635 54.504-6.586-1.323-17.12-5.82-27.328L31.75 11.477q49.212-7.244 71.438-7.244 22.224 0 71.437 7.243zM703.711 102.241c-35.537 11.176-71.227 21.893-106.665 33.369-11.292 3.474-20.099 11.362-28.163 19.612-12.295 11.748-24.347 23.77-36.794 35.345-7.499 2.935-19.261-8.797-13.752-15.942 14.793-15.443 29.855-30.64 44.476-46.242C573.506 114.42 576.364 96.671 582 80.41l23.693-76.177c26.472 20.966 53.15 42.212 74.3 68.786 8.086 9.593 15.95 19.37 23.718 29.222z" />
</svg>