<svg xmlns="http://www.w3.org/2000/svg" width="2048" height="2048" viewBox="0 0 541.867 541.867">
   <path d="M510.117 533.31l-5.557 4.324q-32.543-39.242-93.927-136.677-61.383-97.434-74.083-130.025 12.7-32.589 74.083-130.024Q472.017 43.472 504.56 4.233l5.557 4.324q-15.082 51.21-37.57 145.653-24.078 100.428-24.078 116.722 0 16.295 24.077 116.725 22.49 94.44 37.57 145.653zM368.042 342.371c0 7.055-2.205 10.583-6.615 10.583l-61.119 1.852c-8.995.177-18.344 2.822-28.045 7.938l-93.134 48.948c-3.704-31.221-5.556-54.328-5.556-69.321 0-14.993 1.852-38.1 5.556-69.321l93.134 48.948c9.701 5.115 19.05 7.761 28.045 7.937l61.12 1.853c4.409 0 6.614 3.527 6.614 10.583zM368.042 199.496c0 7.055-2.205 10.583-6.615 10.583l-61.119 1.852c-8.995.177-18.344 2.822-28.045 7.938l-93.134 48.948c-3.704-31.221-5.556-54.328-5.556-69.321 0-14.993 1.852-38.1 5.556-69.321l93.134 48.948c9.701 5.115 19.05 7.761 28.045 7.937l61.12 1.852c4.409 0 6.614 3.528 6.614 10.584zM174.625 11.478l-50.006 117.874q-4.498 10.208-5.821 27.328 17.198.99 54.504 6.587L123.296 281.14q-6.35 14.818-6.88 36.22 14.024.658 55.563 6.914l-50.006 117.874q-7.144 17.122-7.408 28.975l-.794 58.279q0 8.232-10.583 8.232-10.584 0-10.584-8.232l-.794-58.279q-.264-11.853-7.408-28.974L34.396 324.274q18.52-2.963 55.562-6.914-.529-21.402-6.879-36.22L33.073 163.267q18.256-2.635 54.504-6.586-1.323-17.12-5.82-27.328L31.75 11.477q49.212-7.244 71.438-7.244 22.224 0 71.437 7.243z" />
</svg>