<svg xmlns="http://www.w3.org/2000/svg" viewBox="0 0 541.867 541.867" height="2048" width="2048">
   <path d="M510.117 533.31l-5.557 4.324c-21.695-26.162-53.004-71.72-93.927-136.677C369.711 336 345.017 292.66 336.55 270.932c8.467-21.726 33.161-65.067 74.083-130.024C451.556 75.95 482.865 30.392 504.56 4.233l5.557 4.324c-10.055 34.14-22.578 82.691-37.571 145.653-16.051 66.953-24.077 105.86-24.077 116.722 0 10.863 8.026 49.772 24.077 116.725 14.993 62.96 27.517 111.51 37.57 145.653zM341.974 199.496c0 7.055-2.205 10.583-6.615 10.583l-49.874 1.852c-8.996.177-18.345 2.822-28.046 7.938l-93.133 48.948c-3.704-31.221-5.556-54.328-5.556-69.321 0-14.993 1.852-38.1 5.556-69.321l93.133 48.948c9.701 5.115 19.05 7.761 28.046 7.937l49.874 1.852c4.41 0 6.615 3.528 6.615 10.584zm0 142.875c0 7.055-2.205 10.583-6.615 10.583l-49.874 1.852c-8.996.177-18.345 2.822-28.046 7.938l-93.133 48.948c-3.704-31.221-5.556-54.328-5.556-69.321 0-14.993 1.852-38.1 5.556-69.321l93.133 48.948c9.701 5.115 19.05 7.761 28.046 7.937l49.874 1.853c4.41 0 6.615 3.527 6.615 10.583zM113.771 529.402c0 5.488-3.528 8.232-10.583 8.232-7.056 0-10.584-2.744-10.584-8.232-1.477-113.485-2.987-226.97-4.498-340.453l-.264-25.353c-.177-13.61-2.205-25.024-6.086-34.242L31.75 11.477c32.808-4.828 56.62-7.244 71.438-7.244 14.816 0 38.628 2.415 71.437 7.243l-50.006 117.876c-3.88 9.22-5.91 20.633-6.086 34.242l-.264 25.354c-1.523 113.484-3.009 226.969-4.498 340.454z" />
</svg>