<svg xmlns="http://www.w3.org/2000/svg" viewBox="-10 0 2048 2048" width="2048" height="2048">
   <path d="M1082 1913.347L1062.793 1928c-75-88.672-183.232-243.096-324.695-463.272C596.634 1244.552 511.268 1097.642 482 1024c29.268-73.643 114.634-220.552 256.098-440.728C879.56 363.096 987.793 208.672 1062.793 120L1082 134.653c-34.756 115.724-78.049 280.293-129.878 493.706C896.634 855.3 868.89 987.18 868.89 1024c0 36.821 27.744 168.702 83.232 395.64 51.83 213.414 95.122 377.983 129.878 493.707zM1649.768 190.689L1407 560.042c-18.873 28.904-31.85 66.15-38.93 111.739l-190.39 1225.359c-2.588 18.42-17.086 25.774-43.494 22.062-26.407-3.711-38.316-14.777-35.727-33.196l154.74-1230.37c5.76-45.773 3.552-85.153-6.622-118.14l-131.555-421.96c125.071 1.047 215.334 5.468 270.79 13.262 55.454 7.793 143.44 28.424 263.955 61.89zM1918 1913.347L1898.793 1928c-75-88.672-183.232-243.096-324.695-463.272C1432.634 1244.552 1347.268 1097.642 1318 1024c29.268-73.643 114.634-220.552 256.098-440.728 141.463-220.176 249.695-374.6 324.695-463.272L1918 134.653c-34.756 115.724-78.049 280.293-129.878 493.706-55.488 226.94-83.232 358.82-83.232 395.641 0 36.821 27.744 168.702 83.232 395.64 51.83 213.414 95.122 377.983 129.878 493.707zM480.424 120L570 410l50 160 60 70-50 50-70-60-160-50-290-89.538C226.362 337.738 343.975 227.671 480.424 120z" />
</svg>