<svg xmlns="http://www.w3.org/2000/svg" viewBox="0 0 541.867 541.867" height="2048" width="2048">
   <path d="M510.117 129.758c-35.538 11.176-71.227 21.893-106.665 33.368-11.293 3.475-20.1 11.363-28.163 19.612-12.295 11.748-24.347 23.77-36.795 35.346-7.498 2.935-19.26-8.797-13.752-15.942 14.794-15.443 29.856-30.64 44.476-46.242 10.693-13.964 13.552-31.712 19.188-47.973l23.692-76.177c26.472 20.966 53.151 42.212 74.3 68.786 8.087 9.592 15.951 19.37 23.719 29.222zM62.177 510.117l-3.44-5.557q31.221-32.543 108.744-93.927 77.523-61.383 103.452-74.083 25.93 12.7 103.452 74.083 77.523 61.384 108.744 93.927l-3.44 5.557q-40.745-15.082-115.887-37.571-79.904-24.077-92.869-24.077-12.964 0-92.868 24.077-75.142 22.49-115.888 37.57z" />
</svg>