<svg xmlns="http://www.w3.org/2000/svg" viewBox="0 0 541.867 541.867" height="2048" width="2048">
   <path d="M62.177 510.117l-3.44-5.557c20.814-21.695 57.062-53.004 108.744-93.927 51.682-40.922 86.166-65.616 103.452-74.083 17.286 8.467 51.77 33.161 103.452 74.083 51.682 40.923 87.93 72.232 108.744 93.927l-3.44 5.557c-27.163-10.055-65.793-22.578-115.887-37.571-53.27-16.052-84.226-24.077-92.869-24.077s-39.6 8.025-92.868 24.077c-50.095 14.993-88.724 27.517-115.888 37.57zm0-137.584l-3.44-5.556c20.814-21.696 57.062-53.005 108.744-93.927 51.682-40.922 86.166-65.617 103.452-74.083 17.286 8.466 51.77 33.16 103.452 74.083 51.682 40.922 87.93 72.231 108.744 93.927l-3.44 5.556c-27.163-10.054-65.793-22.577-115.887-37.57-53.27-16.052-84.226-24.078-92.869-24.078s-39.6 8.026-92.868 24.078c-50.095 14.993-88.724 27.516-115.888 37.57zM62.442 245.004l94.72-50.006c7.409-3.88 16.581-5.909 27.517-6.085l293.952-4.763c4.41 0 6.615-3.528 6.615-10.583 0-7.056-2.205-10.584-6.615-10.584l-293.952-4.762c-10.936-.177-20.108-2.205-27.516-6.086L62.442 102.13c-3.881 32.808-5.821 56.621-5.821 71.438 0 14.816 1.94 38.629 5.82 71.437zm155.046-87.18c5.385 0 8.078-4.41 8.078-6.615s44.838-113.903 44.838-113.903c-23.833-3.704-41.471-5.556-52.916-5.556-11.446 0-29.084 1.852-52.917 5.556 0 0 44.838 111.698 44.838 113.903 0 2.205 2.693 6.615 8.079 6.615zm105.833 0c5.386 0 8.079-4.41 8.079-6.615s44.838-113.903 44.838-113.903c-23.833-3.704-41.472-5.556-52.917-5.556s-29.084 1.852-52.917 5.556c0 0 44.838 111.698 44.838 113.903 0 2.205 2.693 6.615 8.079 6.615zm105.833 0c5.386 0 8.08-4.41 8.08-6.615S482.07 37.306 482.07 37.306c-23.833-3.704-41.472-5.556-52.917-5.556s-29.084 1.852-52.917 5.556c0 0 44.838 111.698 44.838 113.903 0 2.205 2.693 6.615 8.08 6.615z" />
</svg>