<svg xmlns="http://www.w3.org/2000/svg" width="1536" height="2048" viewBox="0 0 406.4 541.867">
   <path d="M20.995 537.634l-3.003-5.557c18.166-21.695 49.805-53.004 94.913-93.927 45.11-40.922 75.208-65.616 90.296-74.083 15.087 8.467 45.185 33.16 90.294 74.083 45.109 40.923 76.747 72.232 94.914 93.927l-3.003 5.557c-23.708-10.055-57.425-22.578-101.148-37.571-46.495-16.052-73.514-24.077-81.057-24.077-7.545 0-34.565 8.025-81.058 24.077-43.724 14.993-77.44 27.517-101.148 37.57zM20.995 373.062l-3.003-5.556c18.166-21.696 49.805-53.005 94.913-93.927 45.11-40.922 75.208-65.617 90.296-74.083 15.087 8.466 45.185 33.16 90.294 74.083 45.109 40.922 76.747 72.231 94.914 93.927l-3.003 5.556c-23.708-10.054-57.425-22.577-101.148-37.57-46.495-16.052-73.514-24.078-81.057-24.078-7.545 0-34.565 8.026-81.058 24.078-43.724 14.993-77.44 27.516-101.148 37.57z" />
</svg>