<svg xmlns="http://www.w3.org/2000/svg" viewBox="0 0 541.867 541.867" height="2048" width="2048">
   <path d="M510.117 132.292c0 7.408-2.293 11.113-6.88 11.113l-116.578 4.233c-10.936.176-20.109 2.205-27.517 6.085l-94.72 50.006c-3.882-32.808-5.822-56.62-5.822-71.437s1.94-38.63 5.821-71.438l94.72 50.007c7.41 3.88 16.582 5.909 27.518 6.085l116.578 4.233c4.587 0 6.88 3.705 6.88 11.113zM508.794 482.088l-4.058 2.63c-26.578-24.068-58.09-54.75-94.534-92.047-18.62-19.127-29.045-29.885-31.272-32.276-11.777-12.432-21.406-23.908-28.886-34.428 9.39-13.07 29.442-35.304 60.158-66.704 36.445-37.297 67.956-67.98 94.534-92.046l4.058 2.63c-9.23 24.067-17.108 45.106-23.634 63.117-10.821 29.487-16.392 44.788-16.71 45.904-6.048 17.693-10.345 33.392-12.89 47.1 3.023 16.416 12.89 47.417 29.6 93.002 6.526 18.01 14.403 39.05 23.634 63.118zM368.565 482.088l-4.057 2.63c-26.578-24.068-58.09-54.75-94.535-92.047-18.62-19.127-29.044-29.885-31.272-32.276-11.778-12.432-21.406-23.908-28.886-34.428 9.389-13.07 29.442-35.304 60.158-66.704 36.445-37.297 67.957-67.98 94.535-92.046l4.057 2.63c-9.23 24.067-17.108 45.106-23.633 63.117-10.822 29.487-16.392 44.788-16.71 45.904-6.048 17.693-10.345 33.392-12.892 47.1 3.024 16.416 12.891 47.417 29.602 93.002 6.525 18.01 14.403 39.05 23.633 63.118zM163.315 265.029c0 8.114-5.82 12.524-8.73 12.7-2.91.177-108.745 56.886-108.745 56.886-3.88-32.632-5.82-55.827-5.82-69.586 0-13.758 1.94-36.953 5.82-69.585 0 0 105.833 56.709 108.744 56.885 2.91.177 8.73 4.586 8.73 12.7zM256.978 58.506l-50.007 94.72c-3.88 7.409-5.91 16.58-6.085 27.517l-4.762 293.952c0 4.41-3.528 6.615-10.584 6.615-7.055 0-10.583-2.205-10.583-6.615l-4.763-293.952c-.176-10.936-2.204-20.108-6.085-27.516l-50.006-94.721c32.808-3.881 56.62-5.821 71.437-5.821s38.63 1.94 71.438 5.82z" />
</svg>