<?xml version="1.0" encoding="UTF-8" standalone="no"?>
<svg
   xmlns:dc="http://purl.org/dc/elements/1.1/"
   xmlns:cc="http://creativecommons.org/ns#"
   xmlns:rdf="http://www.w3.org/1999/02/22-rdf-syntax-ns#"
   xmlns:svg="http://www.w3.org/2000/svg"
   xmlns="http://www.w3.org/2000/svg"
   xmlns:sodipodi="http://sodipodi.sourceforge.net/DTD/sodipodi-0.dtd"
   xmlns:inkscape="http://www.inkscape.org/namespaces/inkscape"
   sodipodi:docname="000-004-061_pya.svg"
   inkscape:version="1.0 (4035a4fb49, 2020-05-01)"
   id="svg841"
   version="1.1"
   viewBox="0 0 541.86665 541.86668"
   height="2048"
   width="2048">
  <defs
     id="defs835" />
  <sodipodi:namedview
     inkscape:window-maximized="1"
     inkscape:window-y="-8"
     inkscape:window-x="-8"
     inkscape:window-height="1018"
     inkscape:window-width="1920"
     units="px"
     showgrid="false"
     inkscape:document-rotation="0"
     inkscape:current-layer="layer1"
     inkscape:document-units="px"
     inkscape:cy="1045.7143"
     inkscape:cx="742.85714"
     inkscape:zoom="0.35"
     inkscape:pageshadow="2"
     inkscape:pageopacity="0.0"
     borderopacity="1.0"
     bordercolor="#666666"
     pagecolor="#ffffff"
     id="base" />
  <metadata
     id="metadata838">
    <rdf:RDF>
      <cc:Work
         rdf:about="">
        <dc:format>image/svg+xml</dc:format>
        <dc:type
           rdf:resource="http://purl.org/dc/dcmitype/StillImage" />
        <dc:title></dc:title>
      </cc:Work>
    </rdf:RDF>
  </metadata>
  <g
     id="layer1"
     inkscape:groupmode="layer"
     inkscape:label="图层 1">
    <path
       style="stroke-width:0.264583"
       d="m 176.2125,103.98125 c 0,8.11397 -2.91042,12.34731 -8.73125,12.7 -9.525,0.35269 -15.96311,0.88185 -19.31458,1.5875 -5.99731,1.05833 -12.17084,3.2631 -18.52083,6.61458 l -92.075,48.68333 C 33.69019,140.93481 31.75,117.73958 31.75,103.98125 c 0,-13.758334 1.94019,-36.953561 5.82084,-69.585417 l 92.075,48.683333 c 8.99583,4.7625 21.60772,7.49644 37.83541,8.202083 5.82083,0.35269 8.73125,4.586023 8.73125,12.700001 z m -1.05833,79.90416 -48.94792,93.13334 c -4.05685,7.76102 -6.17352,17.10981 -6.35,28.04583 l -3.43958,196.05625 c 0,4.40981 -3.52769,6.61458 -10.58333,6.61458 -7.05565,0 -10.58334,-2.20477 -10.58334,-6.61458 L 91.81042,305.06458 c -0.17648,-10.93602 -2.29314,-20.28481 -6.35,-28.04583 L 36.5125,183.88541 c 31.22084,-3.70416 54.32769,-5.55625 69.32084,-5.55625 14.99314,0 38.09999,1.85209 69.32083,5.55625 z"
       id="path2" />
    <path
       sodipodi:nodetypes="ccccsccccccccscccccc"
       id="path1427"
       d="m 343.95724,185.7369 -50.00497,94.72094 c -5.468,10.40666 -8.29033,19.57898 -8.467,27.51697 l -2.381,193.14581 c 0,4.41 -3.52766,6.615 -10.58299,6.615 -7.05599,0 -10.58399,-2.205 -10.58399,-6.615 l -2.381,-193.14581 c -0.17667,-7.93732 -2.999,-17.10964 -8.467,-27.51697 L 201.08333,185.7389 c 12.52332,-1.58799 31.30864,-3.44032 56.35596,-5.55699 l -0.264,-20.37299 c -0.17667,-10.93599 -2.20533,-20.10832 -6.086,-27.51698 L 201.08333,37.571 c 32.80797,-3.880667 56.62062,-5.821 71.43795,-5.821 14.81599,0 38.62831,1.94 71.43696,5.82 l -50.00597,94.72094 c -3.88067,7.40866 -5.90933,16.58099 -6.086,27.51698 l -0.264,20.37299 c 10.40667,0.52933 29.19199,2.38133 56.35597,5.55599 z"
       style="stroke-width:1" />
    <path
       id="path2-2"
       d="m 510.11646,479.68955 -5.55699,3.44001 Q 472.01648,451.90759 410.63252,374.38462 349.24955,296.86268 336.54956,270.93269 349.24955,245.00371 410.63252,167.48076 472.01648,89.957813 504.55947,58.737833 l 5.55699,3.44 q -15.08199,40.744967 -37.56999,115.886917 -24.07798,79.90395 -24.07798,92.86794 0,12.965 24.07698,92.86994 22.49,75.13995 37.56998,115.88692 z"
       style="stroke-width:1" />
  </g>
</svg>
