<svg xmlns="http://www.w3.org/2000/svg" width="2048" height="2048" viewBox="0 0 541.867 541.867">
   <path d="M174.625 62.442l-50.006 94.72q-5.821 11.113-6.086 27.517l-4.762 293.952q0 6.615-10.583 6.615-10.584 0-10.584-6.615L87.842 184.68q-.265-16.404-6.086-27.517L31.75 62.442q49.212-5.821 71.438-5.821 22.224 0 71.437 5.82zM510.117 479.69l-5.556 3.44q-32.544-31.221-93.927-108.744-61.384-77.523-74.084-103.453 12.7-25.929 74.084-103.452 61.383-77.523 93.927-108.743l5.556 3.44q-15.081 40.745-37.57 115.887-24.078 79.904-24.078 92.868 0 12.965 24.077 92.87 22.49 75.141 37.571 115.887z" />
</svg>