<svg xmlns="http://www.w3.org/2000/svg" width="2048" height="2048" viewBox="0 0 541.867 541.867">
   <path d="M174.625 62.442l-50.006 94.72q-4.498 8.203-5.821 21.96 17.198.795 54.504 5.293l-50.006 94.72q-6.35 11.907-6.88 29.105 14.024.529 55.563 5.556l-50.006 94.72q-7.144 13.759-7.408 23.284l-.794 46.831q0 6.615-10.583 6.615-10.584 0-10.584-6.615L91.81 431.8q-.264-9.525-7.408-23.283l-50.006-94.721q18.52-2.381 55.562-5.556-.529-17.198-6.879-29.105l-50.006-94.72q18.256-2.117 54.504-5.292-1.323-13.758-5.82-21.96L31.75 62.441q49.212-5.821 71.438-5.821 22.224 0 71.437 5.82zM127.042 510.117l-3.217-5.557q29.197-32.543 101.693-93.927 72.497-61.383 96.745-74.083 24.248 12.7 96.744 74.083 72.496 61.384 101.693 93.927l-3.217 5.557q-38.103-15.082-108.373-37.571-74.723-24.077-86.847-24.077-12.124 0-86.847 24.077-70.27 22.49-108.374 37.57zM509.985 103.188c0 7.055-2.205 10.583-6.615 10.583l-168.485 4.762c-10.936.177-20.108 2.205-27.516 6.086l-94.72 50.006c-3.881-32.808-5.822-56.62-5.822-71.438 0-14.816 1.94-38.628 5.82-71.437l94.721 50.006c7.41 3.88 16.581 5.91 27.517 6.086l168.485 4.762c4.41 0 6.615 3.528 6.615 10.583zm0 147.108c0 7.055-2.205 10.583-6.615 10.583l-168.485 4.763c-10.936.176-20.108 2.204-27.516 6.085l-94.72 50.006c-3.881-32.808-5.822-56.62-5.822-71.437s1.94-38.63 5.82-71.438l94.722 50.007c7.408 3.88 16.58 5.908 27.516 6.085l168.485 4.763c4.41 0 6.615 3.528 6.615 10.583z" />
</svg>