<svg xmlns="http://www.w3.org/2000/svg" width="2048" height="2048" viewBox="0 0 541.867 541.867">
   <path d="M504.825 479.69l-5.557 3.44q-32.543-31.222-93.927-108.745-61.383-77.522-74.083-103.452 12.7-25.929 74.083-103.452 61.384-77.523 93.927-108.743l5.557 3.44q-15.082 40.745-37.57 115.887-24.078 79.904-24.078 92.868 0 12.965 24.077 92.87 22.49 75.14 37.57 115.887zM352.425 342.371c0 7.055-2.076 10.583-6.227 10.583L234.36 411.692c-3.487-31.221-5.23-54.328-5.23-69.321 0-14.993 1.743-38.1 5.23-69.321l111.838 58.738c4.151 0 6.227 3.527 6.227 10.583zM352.425 199.496c0 7.055-2.076 10.583-6.227 10.583L234.36 268.817c-3.487-31.221-5.23-54.328-5.23-69.321 0-14.993 1.743-38.1 5.23-69.321l111.838 58.737c4.151 0 6.227 3.528 6.227 10.584zM164.54 268.965c0 8.114-5.82 12.524-8.73 12.7-2.91.177-108.745 56.886-108.745 56.886-3.88-32.632-5.82-55.827-5.82-69.586 0-13.758 1.94-36.953 5.82-69.585 0 0 105.833 56.709 108.744 56.885 2.91.177 8.73 4.586 8.73 12.7zM263.495 62.442l-50.007 94.72c-3.88 7.409-5.91 16.58-6.085 27.517L202.64 478.63c0 4.41-3.528 6.615-10.584 6.615-7.055 0-10.583-2.205-10.583-6.615l-4.763-293.952c-.176-10.936-2.204-20.108-6.085-27.516L120.62 62.442c32.808-3.881 56.62-5.821 71.437-5.821s38.63 1.94 71.438 5.82z" />
</svg>