<svg xmlns="http://www.w3.org/2000/svg" viewBox="-10 0 1536 2048" width="1536" height="2048">
   <path d="M1358 2019.032L1337 2032q-123-117.706-355-409.975Q750 1329.755 702 1232q48-97.756 280-390.025Q1214 549.705 1337 432l21 12.968q-57 153.615-142 436.907-91 301.247-91 350.125 0 48.878 91 350.125 85 283.292 142 436.908zM794.5 962c0 26.667-8.333 40-25 40l-180.5 7c-34 .667-69.333 10.667-106 30l-352 185c-14-118-21-205.333-21-262s7-144 21-262l352 185c36.667 19.333 72 29.333 106 30l180.5 7c16.667 0 25 13.333 25 40zM794.5 1502c0 26.667-8.333 40-25 40l-180.5 7c-34 .667-69.333 10.667-106 30l-352 185c-14-118-21-205.333-21-262s7-144 21-262l352 185c36.667 19.333 72 29.333 106 30l180.5 7c16.667 0 25 13.333 25 40z" />
</svg>