<svg xmlns="http://www.w3.org/2000/svg" viewBox="-10 0 2048 2048" width="2048" height="2048">
   <path d="M1921.5 383c0 30.667-11 46.667-33 48-53.018.089-791.282 8.974-833.5 31L707 646c-14.667-123.333-22-211-22-263s7.333-139.667 22-263l348 184c34 18 772.167 28.333 833.5 31 22 1.333 33 17.333 33 48zM602.955 1928l-10.745-23.714c65.023-92.599 178.26-226.227 339.713-400.885 161.453-174.657 269.18-280.054 323.182-316.19 54.001 36.136 161.73 141.533 323.182 316.19 161.453 174.658 274.69 308.286 339.713 400.885L1907.255 1928c-84.86-42.912-205.536-96.362-362.03-160.354-166.412-68.508-263.119-102.762-290.12-102.762-27.001 0-123.708 34.254-290.12 102.762-156.493 63.992-277.17 117.442-362.03 160.354zm0-587.21l-10.745-23.715c65.023-92.599 178.26-226.226 339.713-400.885 161.453-174.657 269.18-280.054 323.182-316.19 54.001 36.136 161.73 141.533 323.182 316.19 161.453 174.658 274.69 308.286 339.713 400.885l-10.745 23.714c-84.86-42.911-205.536-96.362-362.03-160.354-166.412-68.508-263.119-102.761-290.12-102.761-27.001 0-123.708 34.253-290.12 102.761-156.493 63.992-277.17 117.443-362.03 160.354zM649.996 142L461 499.998c-11.334 20.67-18.667 48.337-22 83.002C482.333 585 551 591.667 644.998 603.001L456 960.997C440 991 431.333 1027.667 429.997 1071c35.336 1.333 105.337 8.333 210.002 21L451 1449.995c-18 34.67-27.333 64.005-27.999 88.002l-3 364.503c0 16.665-13.333 24.998-40 24.998-26.668 0-40.002-8.333-40.002-24.998L337 1538c-.666-24-9.999-53.333-28-88l-188.998-358C166.665 1086 236.664 1079 329.999 1071c-1.336-43.333-10.004-80-26.004-109.999l-188.99-358c45.998-5.335 114.665-12.002 205.998-20.002-3.333-34.665-10.666-62.332-21.997-82.998L110 142.001C234.001 127.334 324.002 120 380.002 120S526 127.332 650 141.997z" />
</svg>