<svg xmlns="http://www.w3.org/2000/svg" width="2048" height="2048" viewBox="0 0 541.867 541.867">
   <path d="M485.246 75.671q0 10.583-6.615 10.583l-145.785 2.381q-11.906.265-27.517 8.467l-94.72 50.006q-2.382-18.785-5.557-56.356l-20.373.264q-16.404.265-27.517 6.086l-94.72 50.006q-5.821-49.212-5.821-71.438 0-22.225 5.82-71.437l94.721 50.006q11.113 5.821 27.517 6.086l20.373.264q.794-15.61 5.556-56.356l94.721 50.006q15.61 8.202 27.517 8.467l145.785 2.381q6.615 0 6.615 10.583zM271.727 524.822l-4.498 3.287c-29.457-30.084-64.382-68.437-104.775-115.058-20.637-23.909-32.19-37.357-34.66-40.345-13.053-15.54-23.725-29.885-32.015-43.035 10.407-16.337 32.632-44.13 66.675-83.379 40.393-46.621 75.318-84.974 104.775-115.059l4.498 3.287c-10.23 30.085-18.962 56.385-26.194 78.897-11.994 36.859-18.168 55.986-18.52 57.38-6.703 22.116-11.466 41.74-14.288 58.874 3.351 20.521 14.287 59.273 32.808 116.254 7.232 22.513 15.963 48.812 26.194 78.897zM446.352 524.822l-4.498 3.287c-29.457-30.084-64.382-68.437-104.775-115.058-20.637-23.909-32.19-37.357-34.66-40.345-13.053-15.54-23.725-29.885-32.015-43.035 10.407-16.337 32.632-44.13 66.675-83.379 40.393-46.621 75.318-84.974 104.775-115.059l4.498 3.287c-10.23 30.085-18.962 56.385-26.194 78.897-11.994 36.859-18.168 55.986-18.52 57.38-6.703 22.116-11.466 41.74-14.288 58.874 3.351 20.521 14.287 59.273 32.808 116.254 7.232 22.513 15.963 48.812 26.194 78.897z" />
</svg>