<svg xmlns="http://www.w3.org/2000/svg" viewBox="0 0 541.867 541.867" height="2048" width="2048">
   <path d="M176.742 330.994l-48.948 93.133c-4.057 7.585-6.174 16.933-6.35 28.046l-1.059 46.037c-.176 5.998-4.498 8.996-12.964 8.996-8.467 0-12.788-2.998-12.965-8.996l-1.058-46.037c-.177-11.113-2.293-20.461-6.35-28.046L38.1 330.994c31.22-3.704 54.328-5.557 69.32-5.557 14.994 0 38.1 1.853 69.322 5.557zM188.383 254c0 8.643-2.469 12.965-7.408 12.965l-21.167 2.38c-10.936.177-20.108 2.206-27.516 6.086L37.57 325.438C33.69 292.629 31.75 268.817 31.75 254s1.94-38.63 5.82-71.438l94.722 50.007c7.408 3.88 16.58 5.909 27.516 6.085l21.167 2.381c4.939 0 7.408 4.322 7.408 12.965zM188.383 103.188c0 8.643-2.469 12.964-7.408 12.964l-21.167 2.381c-10.936.177-20.108 2.205-27.516 6.086L37.57 174.625c-3.88-32.808-5.821-56.62-5.821-71.438 0-14.816 1.94-38.629 5.82-71.437l94.722 50.006c7.408 3.88 16.58 5.91 27.516 6.086l21.167 2.38c4.939 0 7.408 4.322 7.408 12.965zM367.506 499.798l-4.498 2.91c-29.456-26.634-64.381-60.59-104.775-101.864-20.637-21.167-32.19-33.073-34.66-35.719-13.053-13.758-23.724-26.458-32.015-38.1 10.407-14.464 32.632-39.07 66.675-73.819 40.394-41.275 75.319-75.23 104.775-101.864l4.498 2.91c-10.23 26.635-18.962 49.918-26.193 69.85-11.995 32.632-18.169 49.565-18.521 50.8-6.703 19.58-11.465 36.954-14.288 52.123 3.352 18.168 14.288 52.476 32.809 102.923 7.231 19.932 15.963 43.215 26.193 69.85zM505.09 499.798l-4.498 2.91c-29.457-26.634-64.382-60.59-104.775-101.864-20.638-21.167-32.191-33.073-34.66-35.719-13.053-13.758-23.725-26.458-32.015-38.1 10.407-14.464 32.632-39.07 66.675-73.819 40.393-41.275 75.318-75.23 104.775-101.864l4.498 2.91c-10.231 26.635-18.962 49.918-26.194 69.85-11.994 32.632-18.168 49.565-18.521 50.8-6.703 19.58-11.465 36.954-14.287 52.123 3.351 18.168 14.287 52.476 32.808 102.923 7.232 19.932 15.963 43.215 26.194 69.85zM510.117 103.188c0 7.408-2.293 11.112-6.88 11.112l-157.162 4.233c-10.936.177-20.108 2.205-27.517 6.086l-94.72 50.006c-3.881-32.808-5.821-56.62-5.821-71.438 0-14.816 1.94-38.629 5.82-71.437l94.721 50.006c7.409 3.88 16.581 5.91 27.517 6.086l157.163 4.233c4.586 0 6.879 3.704 6.879 11.113z" />
</svg>