<svg xmlns="http://www.w3.org/2000/svg" viewBox="0 0 541.867 541.867" height="2048" width="2048">
   <path d="M240.77 11.477l-50.005 117.874q-5.821 13.83-6.086 34.244l-4.762 365.807q0 8.232-10.583 8.232-10.584 0-10.584-8.232l-4.762-365.806q-.265-20.414-6.086-34.244L97.896 11.477q49.212-7.244 71.438-7.244 22.224 0 71.437 7.243zM443.971 533.31l-5.556 4.324q-32.544-39.24-93.927-136.676-61.384-97.435-74.084-130.026 12.7-32.589 74.084-130.024 61.383-97.436 93.927-136.675l5.556 4.324q-15.08 51.21-37.57 145.653-24.078 100.428-24.078 116.722 0 16.295 24.077 116.725 22.49 94.441 37.571 145.653zM679.325 102.241c-35.537 11.176-71.227 21.893-106.665 33.369-11.292 3.474-20.099 11.362-28.163 19.612-12.295 11.748-24.347 23.77-36.794 35.345-7.499 2.935-19.261-8.797-13.752-15.942 14.793-15.443 29.855-30.64 44.476-46.242 10.693-13.964 13.551-31.712 19.187-47.973l23.693-76.177c26.472 20.966 53.15 42.212 74.3 68.786 8.086 9.593 15.95 19.37 23.718 29.222z" />
</svg>