<svg xmlns="http://www.w3.org/2000/svg" viewBox="0 0 541.867 541.867" height="2048" width="2048">
   <path d="M174.624 175.983L124.62 281.63c-5.468 11.608-8.29 21.838-8.467 30.691l-2.381 217.935c0 4.918-3.528 7.378-10.583 7.378-7.056 0-10.584-2.46-10.584-7.378L90.223 312.32c-.177-8.852-2.999-19.083-8.467-30.69L31.75 175.984c12.523-1.77 31.309-3.837 56.356-6.198l-.264-22.723c-.177-12.197-2.205-22.427-6.086-30.69L31.75 10.725c32.808-4.328 56.62-6.493 71.438-6.493 14.816 0 38.628 2.164 71.437 6.492L124.62 116.372c-3.88 8.264-5.91 18.494-6.086 30.691l-.264 22.723c10.407.591 29.192 2.656 56.356 6.197zM510.117 397.822l-4.437 3.287c-29.058-30.084-63.51-68.437-103.357-115.058-20.358-23.909-31.755-37.357-34.191-40.345-12.876-15.54-23.404-29.885-31.582-43.035 10.266-16.337 32.19-44.13 65.773-83.379C442.169 72.671 476.622 34.318 505.68 4.233l4.437 3.287c-10.092 30.085-18.705 56.385-25.84 78.897-11.831 36.859-17.922 55.986-18.269 57.38-6.612 22.116-11.31 41.74-14.094 58.874 3.304 20.521 14.093 59.273 32.363 116.254 7.135 22.513 15.747 48.812 25.84 78.897zM366.713 397.822l-4.437 3.287c-29.059-30.084-63.511-68.437-103.357-115.058-20.358-23.909-31.755-37.357-34.191-40.345-12.877-15.54-23.404-29.885-31.582-43.035 10.266-16.337 32.19-44.13 65.773-83.379 39.846-46.621 74.298-84.974 103.357-115.059l4.437 3.287c-10.092 30.085-18.706 56.385-25.84 78.897-11.831 36.859-17.922 55.986-18.27 57.38-6.611 22.116-11.31 41.74-14.094 58.874 3.305 20.521 14.094 59.273 32.364 116.254 7.134 22.513 15.747 48.812 25.84 78.897zM509.985 466.197c0 7.055-2.205 10.583-6.615 10.583l-68.395 2.38c-7.937.177-17.11 3-27.517 8.468l-94.72 50.006c-1.588-12.524-3.44-31.31-5.557-56.356l-20.373.264c-10.936.176-20.108 2.205-27.517 6.086l-94.72 50.006c-3.88-32.808-5.82-56.621-5.82-71.438s1.94-38.63 5.82-71.437l94.72 50.006c7.41 3.88 16.581 5.909 27.517 6.086l20.373.264c.53-10.407 2.381-29.192 5.556-56.356l94.721 50.006c10.407 5.468 19.58 8.29 27.517 8.467l68.395 2.38c4.41 0 6.615 3.528 6.615 10.584z" />
</svg>