<svg xmlns="http://www.w3.org/2000/svg" width="2048" height="2048" viewBox="0 0 541.867 541.867">
   <path d="M509.985 256.646c0 7.055-2.205 10.583-6.615 10.583l-163.645 4.763c-10.936.176-20.108 2.204-27.516 6.085l-94.721 50.006c-3.881-32.808-5.821-56.62-5.821-71.437s1.94-38.63 5.82-71.438l94.722 50.007c7.408 3.88 16.58 5.908 27.516 6.085l163.645 4.763c4.41 0 6.615 3.528 6.615 10.583zM509.985 75.671c0 7.055-2.205 10.583-6.615 10.583l-163.645 4.762c-10.936.177-20.108 2.205-27.516 6.086l-94.721 50.006c-3.881-32.808-5.821-56.62-5.821-71.438 0-14.816 1.94-38.628 5.82-71.437l94.72 50.006c7.41 3.88 16.582 5.91 27.518 6.086l163.645 4.762c4.41 0 6.615 3.528 6.615 10.583zM142.703 510.117l-3.003-5.557q27.25-32.543 94.914-93.927 67.663-61.383 90.294-74.083 22.632 12.7 90.295 74.083 67.663 61.384 94.914 93.927l-3.003 5.557q-35.562-15.082-101.148-37.571-69.741-24.077-81.058-24.077-11.315 0-81.056 24.077-65.586 22.49-101.15 37.57zM174.625 195.862l-50.006 117.875q-8.202 19.426-8.467 34.243l-2.381 181.422q0 8.232-10.583 8.232-10.584 0-10.584-8.232L90.223 347.98q-.265-14.816-8.467-34.243L31.75 195.864q18.785-2.964 56.356-6.915l-.264-25.353q-.265-20.414-6.086-34.244L31.75 11.477q49.212-7.244 71.438-7.244 22.224 0 71.437 7.243l-50.006 117.875q-5.821 13.83-6.086 34.244l-.264 25.353q15.61.988 56.356 6.914z" />
</svg>