<svg xmlns="http://www.w3.org/2000/svg" viewBox="-10 0 2048 2048" width="2048" height="2048">
   <path d="M1903 1813l-21 13c-82-78.667-200.333-215.667-355-411s-248-325.667-280-391c32-65.333 125.333-195.667 280-391s273-332.333 355-411l21 13c-38 102.667-85.333 248.667-142 438-60.667 201.333-91 318.333-91 351 0 32.667 30.333 149.667 91 351 56.667 189.333 104 335.333 142 438zM671 663c0 30.667-11 46.667-33 48-52.608.169-101.035 9.118-143 31L147 926c-14.667-123.333-22-211-22-263s7.333-139.667 22-263l348 184c34 18 81.667 28.333 143 31 22 1.333 33 17.333 33 48zm560 0c0 30.667-11 46.667-33 48-52.98.149-100.799 8.983-143 31L707 926c-14.667-123.333-22-211-22-263s7.333-139.667 22-263l348 184c34 18 81.667 28.333 143 31 22 1.333 33 17.333 33 48zM671 1365c0 30.667-11 46.667-33 48-52.608.169-101.035 9.118-143 31l-348 184c-14.667-123.333-22-211-22-263s7.333-139.667 22-263l348 184c34 18 81.667 28.333 143 31 22 1.333 33 17.333 33 48zm560 0c0 30.667-11 46.667-33 48-52.98.149-100.799 8.983-143 31l-348 184c-14.667-123.333-22-211-22-263s7.333-139.667 22-263l348 184c34 18 81.667 28.333 143 31 22 1.333 33 17.333 33 48z" />
</svg>