<svg xmlns="http://www.w3.org/2000/svg" viewBox="0 0 406.4 541.867" height="2048" width="1536">
   <path d="M364.067 534.566l-4.437 3.068c-29.059-28.079-63.51-63.875-103.357-107.388-20.358-22.315-31.755-34.866-34.191-37.655-12.877-14.504-23.404-27.892-31.582-40.166 10.266-15.248 32.19-41.188 65.773-77.82 39.846-43.513 74.298-79.309 103.357-107.388l4.437 3.068c-10.092 28.079-18.705 52.626-25.84 73.637-11.831 34.401-17.922 52.253-18.269 53.554-6.612 20.642-11.31 38.958-14.095 54.95 3.306 19.152 14.094 55.32 32.364 108.503 7.135 21.012 15.747 45.558 25.84 73.637zM205.317 534.566l-4.437 3.068c-29.059-28.079-63.511-63.875-103.357-107.388-20.358-22.315-31.755-34.866-34.191-37.655-12.877-14.504-23.404-27.892-31.582-40.166 10.266-15.248 32.19-41.188 65.773-77.82 39.846-43.513 74.298-79.309 103.357-107.388l4.437 3.068c-10.092 28.079-18.706 52.626-25.84 73.637-11.831 34.401-17.922 52.253-18.27 53.554-6.611 20.642-11.31 38.958-14.094 54.95 3.306 19.152 14.094 55.32 32.364 108.503 7.134 21.012 15.747 45.558 25.84 73.637zM365.125 142.876c0 7.055-2.205 10.583-6.615 10.583l-18.785 2.38c-7.937.177-17.11 3-27.517 8.468l-94.72 50.006c-1.588-12.524-3.44-31.31-5.557-56.356l-20.373.264c-10.936.176-20.108 2.205-27.517 6.086l-94.72 50.006c-3.88-32.808-5.821-56.621-5.821-71.438s1.94-38.63 5.82-71.437l94.721 50.006c7.409 3.88 16.581 5.909 27.517 6.086l20.373.264c.53-10.407 2.381-29.192 5.556-56.356l94.721 50.006c10.407 5.468 19.579 8.29 27.517 8.467l18.785 2.38c4.41 0 6.615 3.528 6.615 10.584z" />
</svg>