<svg xmlns="http://www.w3.org/2000/svg" viewBox="-10 0 2048 2048" width="2048" height="2048">
   <path d="M124.653 2032L110 2011c88.672-82 243.096-200.333 463.272-355S940.358 1408 1014 1376c73.642 32 220.552 125.333 440.728 280 220.176 154.667 374.6 273 463.272 355l-14.653 21c-115.725-38-280.293-85.333-493.706-142-226.94-60.667-358.82-91-395.641-91-36.822 0-168.702 30.333-395.64 91-213.414 56.667-377.982 104-493.707 142zM1284 598l-189 358c-20.667 39.333-31.333 74-32 104l-9 267.5c0 16.667-13.333 25-40 25s-40-8.333-40-25l-9-267.5c-.667-30-11.333-64.667-32-104L744 598c47.333-6 118.333-13 213-21l-1-77c-.667-41.333-8.333-76-23-104L744 38c124-14.667 214-22 270-22s146 7.333 270 22l-189 358c-14.667 28-22.333 62.667-23 104l-1 77c39.333 2 110.333 9 213 21z" />
</svg>