<svg xmlns="http://www.w3.org/2000/svg" viewBox="0 0 541.867 541.867" height="2048" width="2048">
   <path d="M270.933 287.007c8.114 0 12.348-2.91 12.7-8.732l56.886-112.844c-32.632-3.88-55.827-5.821-69.586-5.821-13.758 0-36.953 1.94-69.585 5.82l56.885 112.845c.353 5.821 4.586 8.732 12.7 8.732zM37.57 174.625l94.722-50.006c7.408-3.88 16.58-5.91 27.516-6.086l343.562-4.762c4.41 0 6.614-3.528 6.614-10.583 0-7.056-2.204-10.584-6.614-10.584l-343.562-4.762c-10.936-.177-20.108-2.205-27.516-6.086L37.57 31.75c-3.88 32.808-5.821 56.62-5.821 71.438 0 14.816 1.94 38.629 5.82 71.437zM62.177 510.117l-3.44-5.557q31.221-32.543 108.744-93.927 77.523-61.383 103.452-74.083 25.93 12.7 103.452 74.083 77.523 61.384 108.744 93.927l-3.44 5.557q-40.745-15.082-115.887-37.571-79.904-24.077-92.869-24.077-12.964 0-92.868 24.077-75.142 22.49-115.888 37.57z" />
</svg>