<svg xmlns="http://www.w3.org/2000/svg" viewBox="0 0 132.821 138.906" height="52.5" width="50.2">
   <path d="M88.774 22.621H62.946c-3.465 3.813-8.19 9.532-14.332 17.331h-4.252v-17.33H18.69a361.008 361.008 0 00-14.174 17.33H.265V.265h3.78C4.831.61 9.713 6.33 18.69 16.902h25.67V.265h4.096c.787.346 5.512 6.065 14.489 16.637h25.828V.265h3.78c.63.346 5.512 6.065 14.646 16.637h25.356v5.72H107.2c-5.04 5.718-5.04 5.718-14.331 17.33h-4.095zM118.148 92.788l14.408 43.967-46.28-43.967H73.833l14.408 43.967L36.285 90.9 88.24 42.97 73.833 85.806h12.443l46.28-42.835-14.408 42.835h14.19v6.982zM.265 39.952h58.723L34.32 65.992v72.65h-8.732v-72.65z" />
</svg>