<svg xmlns="http://www.w3.org/2000/svg" width="2560" height="2048" viewBox="0 0 677.334 541.867">
   <path d="M629.797 102.242c-35.538 11.176-71.227 21.892-106.665 33.368-11.293 3.474-20.1 11.362-28.164 19.612-12.294 11.748-24.346 23.77-36.794 35.345-7.498 2.935-19.26-8.797-13.752-15.942 14.794-15.443 29.856-30.64 44.476-46.242 10.693-13.963 13.552-31.712 19.188-47.972l23.692-76.177c26.473 20.965 53.151 42.212 74.3 68.785 8.087 9.593 15.951 19.37 23.719 29.223zm-50.888 431.645l-5.557 3.217q-32.543-29.197-93.927-101.694-61.383-72.495-74.083-96.744 12.7-24.248 74.083-96.744 61.384-72.497 93.927-101.693l5.557 3.218q-15.082 38.103-37.57 108.373-24.078 74.722-24.078 86.846 0 12.125 24.077 86.849 22.49 70.267 37.57 108.372zM291.04 145.62l-50.005 87.703q-4.498 7.596-5.821 20.334 17.198.735 54.504 4.9l-50.006 87.704q-6.35 11.024-6.88 26.95 14.024.49 55.563 5.144l-50.006 87.703q-7.144 12.74-7.408 21.56l-.794 43.361q0 6.124-10.583 6.124-10.584 0-10.584-6.124l-.794-43.362q-.264-8.82-7.408-21.558l-50.006-87.704q18.52-2.205 55.562-5.145-.53-15.925-6.88-26.949l-50.004-87.703q18.256-1.96 54.504-4.9-1.323-12.738-5.82-20.334l-50.008-87.704q49.213-5.39 71.438-5.39t71.437 5.39zm141.288 0l-50.005 87.703q-4.498 7.596-5.821 20.334 17.198.735 54.504 4.9L381 346.262q-6.35 11.024-6.88 26.95 14.024.49 55.563 5.144l-50.006 87.703q-7.144 12.74-7.408 21.56l-.794 43.361q0 6.124-10.583 6.124-10.584 0-10.584-6.124l-.794-43.362q-.264-8.82-7.408-21.558L292.1 378.355q18.52-2.205 55.562-5.145-.53-15.925-6.88-26.949l-50.004-87.703q18.256-1.96 54.504-4.9-1.323-12.738-5.82-20.334l-50.008-87.704q49.213-5.39 71.438-5.39t71.437 5.39zM129.646 529.402c0 5.488-3.528 8.232-10.583 8.232-7.056 0-10.584-2.744-10.584-8.232-1.477-113.485-2.987-226.97-4.498-340.453l-.264-25.353c-.177-13.61-2.205-25.024-6.086-34.242L47.625 11.477c32.808-4.828 56.62-7.244 71.438-7.244 14.816 0 38.628 2.415 71.437 7.243l-50.006 117.876c-3.88 9.22-5.91 20.633-6.086 34.242l-.264 25.354c-1.523 113.484-3.009 226.969-4.498 340.454z" />
</svg>