<?xml version="1.0" encoding="UTF-8" standalone="no"?>
<svg
   xmlns:dc="http://purl.org/dc/elements/1.1/"
   xmlns:cc="http://creativecommons.org/ns#"
   xmlns:rdf="http://www.w3.org/1999/02/22-rdf-syntax-ns#"
   xmlns:svg="http://www.w3.org/2000/svg"
   xmlns="http://www.w3.org/2000/svg"
   xmlns:sodipodi="http://sodipodi.sourceforge.net/DTD/sodipodi-0.dtd"
   xmlns:inkscape="http://www.inkscape.org/namespaces/inkscape"
   inkscape:version="1.0 (4035a4fb49, 2020-05-01)"
   sodipodi:docname="000-004-062_パ.svg"
   id="svg4"
   version="1.1"
   width="2048"
   height="2048"
   viewBox="0 0 541.867 541.867">
  <metadata
     id="metadata10">
    <rdf:RDF>
      <cc:Work
         rdf:about="">
        <dc:format>image/svg+xml</dc:format>
        <dc:type
           rdf:resource="http://purl.org/dc/dcmitype/StillImage" />
      </cc:Work>
    </rdf:RDF>
  </metadata>
  <defs
     id="defs8" />
  <sodipodi:namedview
     inkscape:current-layer="svg4"
     inkscape:window-maximized="1"
     inkscape:window-y="-8"
     inkscape:window-x="-8"
     inkscape:cy="939.09818"
     inkscape:cx="714.00359"
     inkscape:zoom="0.15189994"
     showgrid="false"
     id="namedview6"
     inkscape:window-height="1018"
     inkscape:window-width="1920"
     inkscape:pageshadow="2"
     inkscape:pageopacity="0"
     guidetolerance="10"
     gridtolerance="10"
     objecttolerance="10"
     borderopacity="1"
     bordercolor="#666666"
     pagecolor="#ffffff" />
  <path
     style="stroke-width:1.11555"
     id="path2"
     d="m 174.62399,195.86172 -50.005,117.8751 q -8.202,19.42579 -8.467,34.2434 l -2.381,181.42144 q 0,8.232 -10.583,8.232 -10.583995,0 -10.583995,-8.232 l -2.381,-181.42144 q -0.265,-14.81637 -8.466999,-34.2434 L 31.75,195.86421 q 18.784998,-2.96427 56.355995,-6.91538 l -0.264,-25.35308 q -0.265,-20.41388 -6.085999,-34.2434 L 31.75,11.477252 q 49.211996,-7.2439161 71.43799,-7.2439161 22.224,0 71.437,7.2426711 l -50.006,117.875103 q -5.821,13.82952 -6.086,34.24339 l -0.264,25.35309 q 15.61,0.98809 56.356,6.91413 z m 335.49297,334.85781 -5.557,4.28089 q -32.543,-38.85407 -93.92699,-135.3272 -61.383,-96.47188 -74.08299,-128.74034 12.69999,-32.26722 74.08299,-128.74034 61.38399,-96.473134 93.92699,-135.3247136 l 5.557,4.2808916 q -15.082,50.70492 -37.57,144.215022 -24.07799,99.43615 -24.07799,115.56914 0,16.13423 24.07699,115.57163 22.49,93.50761 37.57,144.21502 z M 342.36997,195.86172 292.36498,313.73557 q -8.202,19.42579 -8.467,34.24465 l -2.381,181.42144 q 0,8.232 -10.583,8.232 -10.584,0 -10.584,-8.232 l -2.381,-181.42144 q -0.265,-14.81637 -8.467,-34.2434 L 199.49599,195.86297 q 18.78499,-2.96303 56.35599,-6.91414 l -0.264,-25.35308 q -0.265,-20.41388 -6.086,-34.2434 L 199.49599,11.477252 q 49.21199,-7.2439161 71.43799,-7.2439161 22.224,0 71.43699,7.2426711 L 292.36498,129.34986 q -5.821,13.83077 -6.086,34.24464 l -0.264,25.35309 q 15.61,0.98809 56.35599,6.91413 z" />
</svg>
