<?xml version="1.0" encoding="UTF-8" standalone="no"?>
<svg
   xmlns:dc="http://purl.org/dc/elements/1.1/"
   xmlns:cc="http://creativecommons.org/ns#"
   xmlns:rdf="http://www.w3.org/1999/02/22-rdf-syntax-ns#"
   xmlns:svg="http://www.w3.org/2000/svg"
   xmlns="http://www.w3.org/2000/svg"
   xmlns:sodipodi="http://sodipodi.sourceforge.net/DTD/sodipodi-0.dtd"
   xmlns:inkscape="http://www.inkscape.org/namespaces/inkscape"
   inkscape:version="1.0 (4035a4fb49, 2020-05-01)"
   sodipodi:docname="000-004-062_ãƒ.svg"
   id="svg4"
   version="1.1"
   width="2048"
   height="2048"
   viewBox="0 0 541.867 541.867">
  <metadata
     id="metadata10">
    <rdf:RDF>
      <cc:Work
         rdf:about="">
        <dc:format>image/svg+xml</dc:format>
        <dc:type
           rdf:resource="http://purl.org/dc/dcmitype/StillImage" />
      </cc:Work>
    </rdf:RDF>
  </metadata>
  <defs
     id="defs8" />
  <sodipodi:namedview
     inkscape:current-layer="svg4"
     inkscape:window-maximized="1"
     inkscape:window-y="-8"
     inkscape:window-x="-8"
     inkscape:cy="1024"
     inkscape:cx="1024"
     inkscape:zoom="0.40332031"
     showgrid="false"
     id="namedview6"
     inkscape:window-height="1018"
     inkscape:window-width="1920"
     inkscape:pageshadow="2"
     inkscape:pageopacity="0"
     guidetolerance="10"
     gridtolerance="10"
     objecttolerance="10"
     borderopacity="1"
     bordercolor="#666666"
     pagecolor="#ffffff" />
  <path
     style="stroke-width:1.1211"
     id="path843"
     d="m 510.11704,533.31007 -5.557,4.32359 c -21.695,-26.16023 -53.00401,-71.71881 -93.92701,-136.67572 -40.92201,-64.95692 -65.61601,-108.2984 -74.08301,-130.02444 8.467,-21.72604 33.161,-65.06752 74.08301,-130.02443 40.923,-64.956924 72.23201,-110.515499 93.92701,-136.6757341 l 5.557,4.3235902 c -10.055,34.1400239 -22.578,82.6924339 -37.571,145.6534639 -16.05201,66.95281 -24.07701,105.86009 -24.07701,116.72311 0,10.86302 8.025,49.77156 24.07701,116.72186 14.993,62.96228 27.517,111.51343 37.57,145.65471 z" />
  <path
     style="stroke-width:1.1211"
     id="path841"
     d="m 393.70002,533.31007 -5.556,4.32359 c -21.696,-26.16023 -53.005,-71.71881 -93.92701,-136.67572 C 253.294,336.00102 228.6,292.65954 220.133,270.9335 228.6,249.20746 253.294,205.86598 294.21701,140.90907 335.13902,75.952146 366.44702,30.393571 388.14402,4.2333359 l 5.556,4.3235902 c -10.054,34.1400239 -22.578,82.6924339 -37.57,145.6534639 -16.052,66.95281 -24.078,105.86009 -24.078,116.72311 0,10.86302 8.026,49.77156 24.077,116.72186 14.993,62.96228 27.517,111.51343 37.571,145.65471 z" />
  <path
     sodipodi:nodetypes="cccccscccccc"
     id="path839"
     d="m 216.29771,418.042 c 0,7.055 -2.205,10.583 -6.615,10.583 l -49.87471,4.763 c -10.936,0.176 -20.108,2.204 -27.516,6.085 L 37.57,489.479 c -3.88,-32.808 -5.821,-56.62 -5.821,-71.437 0,-14.817 1.94,-38.63 5.82,-71.438 l 94.722,50.006 c 7.408,3.881 16.58,5.91 27.516,6.086 l 49.87471,4.762 c 4.41,0 6.615,3.528 6.615,10.584 z" />
  <path
     sodipodi:nodetypes="cccccscccccc"
     id="path837"
     d="m 216.29721,270.933 c 0,7.056 -2.205,10.584 -6.614,10.584 l -49.87521,4.762 c -10.936,0.177 -20.108,2.205 -27.516,6.086 L 37.57,342.37 c -3.88,-32.808 -5.821,-56.621 -5.821,-71.438 0,-14.816 1.94,-38.629 5.82,-71.437 l 94.722,50.006 c 7.408,3.88 16.58,5.91 27.516,6.085 l 49.87521,4.763 c 4.41,0 6.614,3.528 6.614,10.583 z" />
  <path
     sodipodi:nodetypes="cccccscccccc"
     id="path2"
     d="m 216.29771,123.825 c 0,7.056 -2.205,10.583 -6.615,10.583 l -49.87471,4.763 c -10.936,0.176 -20.108,2.205 -27.516,6.085 L 37.57,195.262 c -3.88,-32.808 -5.821,-56.62 -5.821,-71.437 0,-14.817 1.94,-38.63 5.82,-71.438 l 94.722,50.007 c 7.408,3.88 16.58,5.909 27.516,6.085 l 49.87471,4.763 c 4.41,0 6.615,3.527 6.615,10.583 z" />
</svg>
