<svg xmlns="http://www.w3.org/2000/svg" viewBox="-10 0 2048 2048" width="2048" height="2048">
   <path d="M552.13 860.79l-11.16-23.715c67.535-92.599 185.15-226.227 352.842-400.885 167.693-174.657 279.585-280.054 335.673-316.19 56.088 36.136 167.98 141.533 335.672 316.19C1732.85 610.848 1850.465 744.476 1918 837.075l-11.16 23.714c-88.14-42.911-213.48-96.362-376.022-160.354-172.844-68.508-273.288-102.761-301.333-102.761-28.045 0-128.489 34.253-301.333 102.761C765.61 764.427 640.27 817.878 552.13 860.79zM420 1902.5c0 16.667-13.332 25-39.998 25-26.669 0-40.003-8.333-40.003-25L322.001 604.001c-.668-41.333-8.335-76-23.002-104.001L110 142.001C233.999 127.334 324 120 380.002 120c55.997 0 145.997 7.332 269.998 21.997l-189 358C446.335 528 438.667 562.666 438 603.998zM1921.5 1133c0 30.667-11 46.667-33 48-53.018.089-871.282 8.974-913.5 31l-348 184c-14.667-123.333-22-211-22-263s7.333-139.667 22-263l348 184c34 18 852.167 28.333 913.5 31 22 1.333 33 17.333 33 48zm0 530c0 30.667-11 46.667-33 48-53.018.089-871.282 8.974-913.5 31l-348 184c-14.667-123.333-22-211-22-263s7.333-139.667 22-263l348 184c34 18 852.167 28.333 913.5 31 22 1.333 33 17.333 33 48z" />
</svg>