<svg xmlns="http://www.w3.org/2000/svg" width="2048" height="2048" viewBox="0 0 541.867 541.867">
   <path d="M113.771 478.631c0 4.41-3.528 6.615-10.583 6.615-7.056 0-10.584-2.205-10.584-6.615-1.477-91.193-2.987-182.386-4.498-273.578l-.264-20.373c-.177-10.936-2.205-20.108-6.086-27.516L31.75 62.442c32.808-3.88 56.62-5.821 71.438-5.821 14.816 0 38.628 1.94 71.437 5.82l-50.006 94.722c-3.88 7.408-5.91 16.58-6.086 27.516l-.264 20.373c-1.523 91.193-3.009 182.386-4.498 273.579zm253.584-279.135c0 7.055-2.205 10.583-6.615 10.583l-50.535 1.852c-8.996.177-18.345 2.822-28.046 7.938l-93.133 48.948c-3.704-31.221-5.556-54.328-5.556-69.321 0-14.993 1.852-38.1 5.556-69.321l93.133 48.948c9.701 5.115 19.05 7.761 28.046 7.937l50.535 1.852c4.41 0 6.615 3.528 6.615 10.584zm0 142.875c0 7.055-2.205 10.583-6.615 10.583l-50.535 1.852c-8.996.177-18.345 2.822-28.046 7.938l-93.133 48.948c-3.704-31.221-5.556-54.328-5.556-69.321 0-14.993 1.852-38.1 5.556-69.321l93.133 48.948c9.701 5.115 19.05 7.761 28.046 7.937l50.535 1.853c4.41 0 6.615 3.527 6.615 10.583zM510.117 479.69l-5.557 3.44c-21.695-20.815-53.004-57.063-93.927-108.745-40.922-51.681-65.616-86.165-74.083-103.452 8.467-17.286 33.161-51.77 74.083-103.452 40.923-51.682 72.232-87.93 93.927-108.743l5.557 3.44c-10.055 27.163-22.578 65.792-37.571 115.887-16.051 53.27-24.077 84.225-24.077 92.868s8.026 39.6 24.077 92.87c14.993 50.093 27.517 88.722 37.57 115.887z" />
</svg>