<svg xmlns="http://www.w3.org/2000/svg" height="2048" width="2048" viewBox="-10 0 2048 2048">
   <path d="M225 1928l-13-21c78.667-82 215.667-200.333 411-355s325.667-248 391-280c65.333 32 195.667 125.333 391 280s332.333 273 411 355l-13 21c-102.667-38-248.667-85.333-438-142-201.333-60.667-318.333-91-351-91-32.667 0-149.667 30.333-351 91-189.333 56.667-335.333 104-438 142zm0-520l-13-21c78.667-82 215.667-200.333 411-355s325.667-248 391-280c65.333 32 195.667 125.333 391 280s332.333 273 411 355l-13 21c-102.667-38-248.667-85.333-438-142-201.333-60.667-318.333-91-351-91-32.667 0-149.667 30.333-351 91-189.333 56.667-335.333 104-438 142z" fill="currentColor" />
</svg>