<svg xmlns="http://www.w3.org/2000/svg" viewBox="0 0 541.867 541.867" height="2048" width="2048">
   <path d="M205.581 342.371c0 7.055-4.762 10.76-7.144 10.848-2.38.088-113.506 58.473-113.506 58.473-3.704-31.221-5.556-54.328-5.556-69.321 0-14.993 1.852-38.1 5.556-69.321 0 0 111.125 58.385 113.506 58.473 2.382.088 7.144 3.792 7.144 10.848zM205.581 199.496c0 7.055-4.762 10.76-7.144 10.848-2.38.088-113.506 58.473-113.506 58.473-3.704-31.221-5.556-54.328-5.556-69.321 0-14.993 1.852-38.1 5.556-69.321 0 0 111.125 58.385 113.506 58.473 2.382.088 7.144 3.792 7.144 10.848zM342.372 62.442l-50.006 94.72c-3.88 7.409-5.909 16.581-6.085 27.517l-4.763 293.952c0 4.41-3.528 6.615-10.583 6.615-7.056 0-10.584-2.205-10.584-6.615l-4.762-293.952c-.177-10.936-2.205-20.108-6.085-27.516l-50.008-94.721c32.809-3.881 56.621-5.821 71.438-5.821 14.816 0 38.629 1.94 71.437 5.82zM491.067 479.69l-5.557 3.44q-32.543-31.222-93.927-108.745Q330.2 296.863 317.5 270.933q12.7-25.929 74.083-103.452 61.384-77.523 93.927-108.743l5.557 3.44q-15.082 40.745-37.57 115.887-24.078 79.904-24.078 92.868 0 12.965 24.077 92.87 22.49 75.14 37.57 115.887z" />
</svg>