<svg xmlns="http://www.w3.org/2000/svg" width="2048" height="2048" viewBox="0 0 541.867 541.867">
   <path d="M31.75 466.329c0-7.056 2.205-10.584 6.615-10.584l27.384-2.381c7.937-.177 17.11-2.999 27.517-8.467l94.72-50.006c1.588 12.523 3.44 31.309 5.557 56.356l20.373-.265c10.936-.176 20.108-2.205 27.516-6.085l94.721-50.006c3.88 32.808 5.821 56.62 5.821 71.437s-1.94 38.63-5.82 71.438l-94.723-50.007c-7.408-3.88-16.58-5.909-27.516-6.085l-20.373-.265c-.53 10.407-2.382 29.193-5.557 56.357l-94.719-50.007c-10.407-5.468-19.58-8.29-27.517-8.466l-27.384-2.382c-4.41 0-6.615-3.527-6.615-10.583zm167.349-308.108l50.006 94.72c5.468 10.408 8.29 19.58 8.467 27.517l2.381 134.541c0 4.41 3.528 6.615 10.583 6.615 7.056 0 10.584-2.205 10.584-6.615l2.381-134.54c.176-7.938 2.999-17.11 8.467-27.517l50.006-94.721c-12.524-1.588-31.31-3.44-56.356-5.556l.264-20.373c.177-10.936 2.205-20.109 6.086-27.517l50.006-94.72c-32.808-3.881-56.62-5.822-71.438-5.822-14.816 0-38.629 1.94-71.437 5.821l50.006 94.721c3.88 7.408 5.91 16.58 6.086 27.517l.264 20.373c-10.407.529-29.192 2.38-56.356 5.556z" />
</svg>