<svg xmlns="http://www.w3.org/2000/svg" viewBox="0 0 541.867 541.867" height="2048" width="2048">
   <path d="M62.442 245.004l94.72-50.006c7.409-3.88 16.581-5.909 27.517-6.085l293.952-4.763c4.41 0 6.615-3.528 6.615-10.583 0-7.056-2.205-10.584-6.615-10.584l-293.952-4.762c-10.936-.177-20.108-2.205-27.516-6.086L62.442 102.13c-3.881 32.808-5.821 56.621-5.821 71.438 0 14.816 1.94 38.629 5.82 71.437zm208.491-85.857c8.114 0 12.348-2.91 12.7-8.731L340.52 37.57c-32.632-3.88-55.827-5.821-69.586-5.821-13.758 0-36.953 1.94-69.585 5.82l56.885 112.846c.353 5.82 4.586 8.73 12.7 8.73zM446.352 507.487l-4.498 2.63c-29.457-24.068-64.382-54.75-104.775-92.047-20.637-19.126-32.19-29.885-34.66-32.276-13.053-12.432-23.725-23.908-32.015-34.427 10.407-13.07 32.632-35.305 66.675-66.704 40.393-37.297 75.318-67.979 104.775-92.046l4.498 2.63c-10.23 24.067-18.962 45.106-26.194 63.117-11.994 29.487-18.168 44.788-18.52 45.904-6.703 17.692-11.466 33.391-14.288 47.099 3.351 16.417 14.287 47.417 32.808 93.002 7.232 18.011 15.963 39.05 26.194 63.118zm-174.625 0l-4.498 2.63c-29.457-24.068-64.382-54.75-104.775-92.047-20.637-19.126-32.19-29.885-34.66-32.276-13.053-12.432-23.725-23.908-32.015-34.427 10.407-13.07 32.632-35.305 66.675-66.704 40.393-37.297 75.318-67.979 104.775-92.046l4.498 2.63c-10.23 24.067-18.962 45.106-26.194 63.117-11.994 29.487-18.168 44.788-18.52 45.904-6.703 17.692-11.466 33.391-14.288 47.099 3.351 16.417 14.287 47.417 32.808 93.002 7.232 18.011 15.963 39.05 26.194 63.118z" fill="currentColor" />
</svg>