<svg xmlns="http://www.w3.org/2000/svg" height="2048" width="2048" viewBox="-10 0 2048 2048">
   <path d="M1206.5 754c0 31.333-11 47.333-33 48l-73.5 5c-42 .667-77.333 8.667-106 24l-352 185c-14-118-21-205.333-21-262s7-144 21-262l352 185c28.667 15.333 64 23.333 106 24l73.5 5c22 .667 33 16.667 33 48zm0 540c0 31.333-11 47.333-33 48l-73.5 5c-42 .667-77.333 8.667-106 24l-352 185c-14-118-21-205.333-21-262s7-144 21-262l352 185c28.667 15.333 64 23.333 106 24l73.5 5c22 .667 33 16.667 33 48zM650 236L461 594c-14.667 28-22.333 62.667-23 104l-18 1111c0 16.667-13.333 25-40 25s-40-8.333-40-25L322 698c-.667-41.333-8.333-76-23-104L110 236c124-14.667 214-22 270-22s146 7.333 270 22z" />
</svg>