<svg xmlns="http://www.w3.org/2000/svg" viewBox="0 0 541.867 541.867" height="2048" width="2048">
   <path d="M510.117 533.31l-5.557 4.324c-21.695-26.16-53.004-71.72-93.927-136.676C369.711 336 345.017 292.66 336.55 270.933c8.467-21.726 33.161-65.067 74.083-130.024C451.556 75.952 482.865 30.394 504.56 4.233l5.557 4.324c-10.055 34.14-22.578 82.692-37.571 145.653-16.052 66.953-24.077 105.86-24.077 116.723 0 10.864 8.025 49.772 24.077 116.722 14.993 62.963 27.517 111.514 37.57 145.655zm-121.709 0l-5.556 4.324c-21.696-26.16-53.005-71.72-93.927-136.676C248.003 336 223.308 292.66 214.842 270.933c8.466-21.726 33.16-65.067 74.083-130.024 40.922-64.957 72.231-110.515 93.927-136.676l5.556 4.324c-10.054 34.14-22.577 82.692-37.57 145.653-16.052 66.953-24.078 105.86-24.078 116.723 0 10.864 8.026 49.772 24.078 116.722 14.993 62.963 27.516 111.514 37.57 145.655zM243.417 344.487c0 7.056-2.205 10.584-6.615 10.584l-76.994 4.762c-10.936.177-20.108 2.205-27.516 6.086L37.57 415.925c-3.88-32.808-5.821-56.62-5.821-71.438 0-14.816 1.94-38.629 5.82-71.437l94.722 50.006c7.408 3.88 16.58 5.91 27.516 6.086l76.994 4.762c4.41 0 6.615 3.528 6.615 10.584zm0-147.107c0 7.055-2.205 10.582-6.615 10.582l-76.994 4.763c-10.936.176-20.108 2.205-27.516 6.085L37.57 268.817c-3.88-32.809-5.821-56.621-5.821-71.438s1.94-38.629 5.82-71.437l94.722 50.006c7.408 3.88 16.58 5.909 27.516 6.085l76.994 4.763c4.41 0 6.615 3.528 6.615 10.583zM635.712 4.233c11.176 35.538 21.893 71.227 33.368 106.665 3.475 11.293 11.363 20.1 19.612 28.163 11.748 12.295 23.77 24.347 35.346 36.795 2.935 7.498-8.797 19.26-15.942 13.752-15.443-14.794-30.64-29.856-46.242-44.476-13.964-10.693-31.712-13.552-47.973-19.188l-76.177-23.692c20.966-26.473 42.212-53.151 68.786-74.3 9.593-8.087 19.37-15.951 29.222-23.719z" />
</svg>