<svg xmlns="http://www.w3.org/2000/svg" viewBox="0 0 541.867 541.867" height="2048" width="2048">
   <path d="M170.392 37.306l-48.948 93.134c-4.057 7.76-6.174 17.11-6.35 28.045l-3.44 196.057c0 4.41-3.528 6.614-10.583 6.614-7.056 0-10.583-2.205-10.583-6.614l-3.44-196.057c-.177-10.936-2.293-20.284-6.35-28.045L31.75 37.306c31.22-3.704 54.328-5.556 69.32-5.556 14.994 0 38.1 1.852 69.322 5.556zM176.213 440.531c0 8.114-2.91 12.348-8.732 12.7-9.525.353-15.963.882-19.314 1.588-5.998 1.058-12.171 3.263-18.521 6.614L37.57 510.117c-3.88-32.632-5.821-55.827-5.821-69.586 0-13.758 1.94-36.953 5.82-69.585l92.076 48.683c8.996 4.763 21.608 7.497 37.835 8.202 5.821.353 8.731 4.586 8.731 12.7zM178.054 494.242l-2.787-5.557q25.295-32.543 88.105-93.927 62.81-61.383 83.817-74.083 21.01 12.7 83.818 74.083 62.81 61.384 88.105 93.927l-2.787 5.557q-33.012-15.082-93.893-37.571-64.738-24.077-75.243-24.077-10.503 0-75.242 24.077-60.88 22.49-93.893 37.57zM509.985 103.188c0 7.055-2.205 10.583-6.615 10.583l-203.333 4.762c-10.936.177-20.108 2.205-27.516 6.086l-94.72 50.006c-3.881-32.808-5.822-56.62-5.822-71.438 0-14.816 1.94-38.628 5.82-71.437l94.721 50.006c7.409 3.88 16.581 5.91 27.517 6.086l203.333 4.762c4.41 0 6.615 3.528 6.615 10.583zm0 147.108c0 7.055-2.205 10.583-6.615 10.583l-203.333 4.763c-10.936.176-20.108 2.204-27.516 6.085l-94.72 50.006c-3.881-32.808-5.822-56.62-5.822-71.437s1.94-38.63 5.82-71.438l94.722 50.007c7.408 3.88 16.58 5.908 27.516 6.085l203.333 4.763c4.41 0 6.615 3.528 6.615 10.583z" />
</svg>