<svg xmlns="http://www.w3.org/2000/svg" height="2048" width="2048" viewBox="-10 0 2048 2048">
   <path d="M910 40.538L720.999 439.83c-14.666 31.232-22.338 69.897-22.999 115.997l-18 1448.286c0 18.59-13.334 27.886-40.002 27.886-26.665 0-39.999-9.295-39.999-27.886L582 555.83c-.666-46.1-8.33-84.767-22.999-115.994L370.002 40.54C494 24.178 583.998 16 640 16c56.001 0 146.003 8.178 270.002 24.534zM576 929.998c0 30.667-22 47.334-32.999 48-10.998.669-411 215.002-411 215.002C117.336 1069.666 110 982 110 929.998c0-52 7.332-139.665 21.997-262.999 0 0 400.002 214.333 411.004 214.999 10.999.669 32.996 17.332 32.996 48zM727.726 1340L718 1316.31c58.853-92.5 161.347-225.985 307.482-400.457 146.133-174.47 243.64-279.756 292.517-315.853 48.878 36.097 146.385 141.382 292.52 315.853 146.134 174.471 248.628 307.957 307.481 400.457l-9.726 23.689c-76.808-42.865-186.034-96.26-327.681-160.183-150.623-68.435-238.154-102.651-262.592-102.651-24.44 0-111.972 34.216-262.595 102.651-141.645 63.924-250.872 117.318-327.681 160.183zM727.726 2032L718 2008.311c58.853-92.5 161.347-225.986 307.481-400.458 146.134-174.47 243.64-279.756 292.518-315.853 48.878 36.097 146.385 141.382 292.52 315.853 146.134 174.472 248.628 307.958 307.481 400.458l-9.726 23.689c-76.808-42.866-186.034-96.26-327.681-160.183-150.623-68.435-238.154-102.653-262.592-102.653-24.44 0-111.972 34.218-262.595 102.653C913.761 1935.74 804.534 1989.134 727.725 2032zM1921.5 279c0 30.667-11 46.667-33 48-53.018.089-546.282 8.974-588.5 31L952 542c-14.667-123.333-22-211-22-263s7.333-139.667 22-263l348 184c34 18 527.167 28.333 588.5 31 22 1.333 33 17.333 33 48z" />
</svg>