<svg xmlns="http://www.w3.org/2000/svg" viewBox="0 0 541.867 541.867" height="2048" width="2048">
   <path d="M129.758 31.75c11.176 35.537 21.893 71.227 33.368 106.665 3.475 11.292 11.363 20.099 19.612 28.163 11.748 12.295 23.77 24.347 35.346 36.795 2.935 7.498-8.797 19.26-15.942 13.751-15.443-14.793-30.64-29.856-46.242-44.476-13.964-10.693-31.712-13.551-47.973-19.187L31.75 129.768c20.966-26.472 42.212-53.15 68.786-74.3 9.593-8.086 19.37-15.95 29.222-23.718zM62.177 510.117l-3.44-5.557q31.221-32.543 108.744-93.927 77.523-61.383 103.452-74.083 25.93 12.7 103.452 74.083 77.523 61.384 108.744 93.927l-3.44 5.557q-40.745-15.082-115.887-37.571-79.904-24.077-92.869-24.077-12.964 0-92.868 24.077-75.142 22.49-115.888 37.57z" />
</svg>