<svg xmlns="http://www.w3.org/2000/svg" width="2048" height="2048" viewBox="0 0 541.867 541.867">
   <path d="M510.117 533.31l-5.557 4.324c-21.695-26.16-53.004-71.72-93.927-136.676C369.711 336 345.017 292.66 336.55 270.933c8.467-21.726 33.161-65.067 74.083-130.024C451.556 75.952 482.865 30.394 504.56 4.233l5.557 4.324c-10.055 34.14-22.578 82.692-37.571 145.653-16.052 66.953-24.077 105.86-24.077 116.723 0 10.864 8.025 49.772 24.077 116.722 14.993 62.963 27.517 111.514 37.57 145.655zM393.7 533.31l-5.556 4.324c-21.696-26.16-53.005-71.72-93.927-136.676C253.294 336 228.6 292.66 220.133 270.933c8.467-21.726 33.161-65.067 74.084-130.024 40.922-64.957 72.23-110.515 93.927-136.676l5.556 4.324c-10.054 34.14-22.578 82.692-37.57 145.653-16.052 66.953-24.078 105.86-24.078 116.724 0 10.863 8.026 49.771 24.077 116.721 14.993 62.963 27.517 111.514 37.571 145.655zM216.298 418.042c0 7.055-2.205 10.583-6.615 10.583l-49.875 4.763c-10.936.176-20.108 2.204-27.516 6.085L37.57 489.479c-3.88-32.808-5.821-56.62-5.821-71.437s1.94-38.63 5.82-71.438l94.722 50.006c7.408 3.881 16.58 5.91 27.516 6.086l49.875 4.762c4.41 0 6.615 3.528 6.615 10.584zM216.297 270.933c0 7.056-2.205 10.584-6.614 10.584l-49.875 4.762c-10.936.177-20.108 2.205-27.516 6.086L37.57 342.37c-3.88-32.808-5.821-56.621-5.821-71.438 0-14.816 1.94-38.629 5.82-71.437l94.722 50.006c7.408 3.88 16.58 5.91 27.516 6.085l49.875 4.763c4.41 0 6.614 3.528 6.614 10.583zM216.298 123.825c0 7.056-2.205 10.583-6.615 10.583l-49.875 4.763c-10.936.176-20.108 2.205-27.516 6.085L37.57 195.262c-3.88-32.808-5.821-56.62-5.821-71.437s1.94-38.63 5.82-71.438l94.722 50.007c7.408 3.88 16.58 5.909 27.516 6.085l49.875 4.763c4.41 0 6.615 3.527 6.615 10.583z" />
</svg>