<?xml version="1.0" encoding="UTF-8" standalone="no"?>
<svg
   xmlns:dc="http://purl.org/dc/elements/1.1/"
   xmlns:cc="http://creativecommons.org/ns#"
   xmlns:rdf="http://www.w3.org/1999/02/22-rdf-syntax-ns#"
   xmlns:svg="http://www.w3.org/2000/svg"
   xmlns="http://www.w3.org/2000/svg"
   xmlns:sodipodi="http://sodipodi.sourceforge.net/DTD/sodipodi-0.dtd"
   xmlns:inkscape="http://www.inkscape.org/namespaces/inkscape"
   inkscape:version="1.0 (4035a4fb49, 2020-05-01)"
   sodipodi:docname="000-004-062_ペ.svg"
   id="svg4"
   version="1.1"
   viewBox="0 0 541.867 541.867"
   height="2048"
   width="2048">
  <metadata
     id="metadata10">
    <rdf:RDF>
      <cc:Work
         rdf:about="">
        <dc:format>image/svg+xml</dc:format>
        <dc:type
           rdf:resource="http://purl.org/dc/dcmitype/StillImage" />
      </cc:Work>
    </rdf:RDF>
  </metadata>
  <defs
     id="defs8" />
  <sodipodi:namedview
     inkscape:current-layer="svg4"
     inkscape:window-maximized="1"
     inkscape:window-y="-8"
     inkscape:window-x="-8"
     inkscape:cy="900.02906"
     inkscape:cx="1024"
     inkscape:zoom="0.40332031"
     showgrid="false"
     id="namedview6"
     inkscape:window-height="1018"
     inkscape:window-width="1920"
     inkscape:pageshadow="2"
     inkscape:pageopacity="0"
     guidetolerance="10"
     gridtolerance="10"
     objecttolerance="10"
     borderopacity="1"
     bordercolor="#666666"
     pagecolor="#ffffff" />
  <path
     id="path841"
     d="m 283.768,418.042 c 0,7.055 -2.205,10.583 -6.615,10.583 l -85.594,4.763 c -10.936,0.176 -20.108,2.204 -27.516,6.085 l -94.722,50.006 c -3.88,-32.808 -5.821,-56.62 -5.821,-71.437 0,-14.817 1.94,-38.63 5.82,-71.438 l 94.722,50.006 c 7.408,3.881 16.58,5.91 27.516,6.086 l 85.594,4.762 c 4.41,0 6.615,3.528 6.615,10.584 z" />
  <path
     id="path839"
     d="m 283.768,270.933 c 0,7.056 -2.206,10.584 -6.615,10.584 l -85.594,4.762 c -10.936,0.177 -20.108,2.205 -27.516,6.086 L 69.321,342.37 C 65.441,309.562 63.5,285.749 63.5,270.932 c 0,-14.816 1.94,-38.629 5.82,-71.437 l 94.722,50.006 c 7.408,3.88 16.58,5.91 27.516,6.085 l 85.594,4.763 c 4.41,0 6.614,3.528 6.614,10.583 z" />
  <path
     id="path837"
     d="m 283.768,123.825 c 0,7.056 -2.205,10.583 -6.615,10.583 l -85.594,4.763 c -10.936,0.176 -20.108,2.205 -27.516,6.085 l -94.722,50.006 c -3.88,-32.808 -5.821,-56.62 -5.821,-71.437 0,-14.817 1.94,-38.63 5.82,-71.438 l 94.722,50.007 c 7.408,3.88 16.58,5.909 27.516,6.085 l 85.594,4.763 c 4.41,0 6.615,3.527 6.615,10.583 z" />
  <path
     style="stroke-width:1.1211"
     id="path2"
     d="m 480.48404,532.51632 -5.557,4.32359 C 453.23203,510.67968 421.92303,465.1211 381.00002,400.16419 340.07801,335.20727 315.384,291.86579 306.917,270.13975 315.384,248.41371 340.07701,205.07223 381.00002,140.11532 421.92303,75.158395 453.23203,29.59982 474.92704,3.4395854 l 5.557,4.3235902 c -10.055,34.1400234 -22.57801,82.6924334 -37.57101,145.6534644 -16.052,66.95281 -24.07701,105.86009 -24.07701,116.72311 0,10.86302 8.02501,49.77156 24.07701,116.72186 14.993,62.96228 27.51701,111.51343 37.57001,145.65471 z" />
</svg>
