<?xml version="1.0" encoding="UTF-8" standalone="no"?>
<svg
   xmlns:dc="http://purl.org/dc/elements/1.1/"
   xmlns:cc="http://creativecommons.org/ns#"
   xmlns:rdf="http://www.w3.org/1999/02/22-rdf-syntax-ns#"
   xmlns:svg="http://www.w3.org/2000/svg"
   xmlns="http://www.w3.org/2000/svg"
   xmlns:sodipodi="http://sodipodi.sourceforge.net/DTD/sodipodi-0.dtd"
   xmlns:inkscape="http://www.inkscape.org/namespaces/inkscape"
   inkscape:version="1.0 (4035a4fb49, 2020-05-01)"
   sodipodi:docname="000-004-062_ヱ.svg"
   id="svg4"
   version="1.1"
   width="2048"
   height="2048"
   viewBox="0 0 541.867 541.867">
  <metadata
     id="metadata10">
    <rdf:RDF>
      <cc:Work
         rdf:about="">
        <dc:format>image/svg+xml</dc:format>
        <dc:type
           rdf:resource="http://purl.org/dc/dcmitype/StillImage" />
      </cc:Work>
    </rdf:RDF>
  </metadata>
  <defs
     id="defs8" />
  <sodipodi:namedview
     inkscape:current-layer="svg4"
     inkscape:window-maximized="1"
     inkscape:window-y="-8"
     inkscape:window-x="-8"
     inkscape:cy="605.75687"
     inkscape:cx="199.74709"
     inkscape:zoom="0.14010263"
     showgrid="false"
     id="namedview6"
     inkscape:window-height="1018"
     inkscape:window-width="1920"
     inkscape:pageshadow="2"
     inkscape:pageopacity="0"
     guidetolerance="10"
     gridtolerance="10"
     objecttolerance="10"
     borderopacity="1"
     bordercolor="#666666"
     pagecolor="#ffffff" />
  <path
     id="path841"
     d="m 400.183,75.671336 c 0,7.055 -2.205,10.583 -6.615,10.583 l -85.593,2.381 c -7.937,0.177 -17.11,2.999 -27.517,8.467 l -94.72,50.006004 c -1.588,-12.523 -3.44,-31.309 -5.557,-56.356004 l -20.373,0.264 c -10.936,0.177 -20.108,2.205 -27.517,6.086 l -94.72,50.006004 c -3.88,-32.808 -5.821,-56.620004 -5.821,-71.438004 0,-14.817 1.94,-38.629 5.82,-71.4370001 l 94.721,50.0060001 c 7.409,3.88 16.581,5.91 27.517,6.086 l 20.373,0.264 c 0.53,-10.407 2.381,-29.192 5.556,-56.3560001 l 94.721,50.0060001 c 10.407,5.468 19.579,8.29 27.517,8.467 l 85.593,2.381 c 4.41,0 6.615,3.528 6.615,10.583 z" />
  <path
     sodipodi:nodetypes="ccccsccccscc"
     id="path839"
     d="m 333.374,168.27498 -50.006,94.72 c -3.88,7.41 -5.908,16.581 -6.085,27.517 l -4.763,238.7871 c 0,4.41 -3.528,6.615 -10.583,6.615 -7.055,0 -10.583,-2.205 -10.583,-6.615 l -4.762,-238.7861 c -0.177,-10.936 -2.205,-20.108 -6.085,-27.517 l -50.007,-94.72 c 32.809,-3.88 56.621,-5.82 71.438,-5.82 14.817,0 38.63,1.94 71.437,5.82 z" />
  <path
     sodipodi:nodetypes="ccccsccccscc"
     id="path837"
     d="m 174.624,168.27498 -50.006,94.72 c -3.88,7.41 -5.909,16.581 -6.086,27.517 l -4.762,238.7871 c 0,4.41 -3.528,6.615 -10.583,6.615 -7.056,0 -10.584,-2.205 -10.584,-6.615 l -4.762,-238.7861 c -0.177,-10.936 -2.205,-20.108 -6.086,-27.517 l -50.005,-94.72 c 32.808,-3.881 56.62,-5.822 71.438,-5.822 14.816,0 38.628,1.94 71.437,5.82 z" />
  <path
     style="stroke-width:1.05596"
     id="path2"
     d="m 504.826,533.31064 -5.557,4.32303 C 477.574,511.4725 446.265,465.91403 405.342,400.95713 364.42,336.00023 339.726,292.65958 331.259,270.93183 339.726,249.20631 364.42,205.86454 405.342,140.90765 446.265,75.950746 477.574,30.392272 499.269,4.2333359 l 5.557,4.324141 C 494.771,42.697899 482.248,91.249156 467.255,154.21012 c -16.051,66.95172 -24.077,105.86007 -24.077,116.72283 0,10.86276 8.026,49.77111 24.077,116.72282 14.993,62.96097 27.517,111.51222 37.57,145.65376 z" />
</svg>
