<svg xmlns="http://www.w3.org/2000/svg" width="2048" height="2048" viewBox="0 0 541.867 541.867">
   <path d="M480.484 477.573l-5.557 3.44c-21.695-20.814-53.004-57.062-93.927-108.744-40.922-51.682-65.616-86.166-74.083-103.452 8.467-17.286 33.16-51.77 74.083-103.452 40.923-51.682 72.232-87.93 93.927-108.744l5.557 3.44c-10.055 27.163-22.578 65.793-37.571 115.887-16.052 53.27-24.077 84.226-24.077 92.869s8.025 39.6 24.077 92.868c14.993 50.095 27.517 88.724 37.57 115.888zM283.768 123.825c0 7.056-2.205 10.583-6.615 10.583l-85.594 4.763c-10.936.176-20.108 2.205-27.516 6.085l-94.722 50.006c-3.88-32.808-5.821-56.62-5.821-71.437s1.94-38.63 5.82-71.438l94.722 50.007c7.408 3.88 16.58 5.909 27.516 6.085l85.594 4.763c4.41 0 6.615 3.527 6.615 10.583zm0 147.108c0 7.056-2.206 10.584-6.615 10.584l-85.594 4.762c-10.936.177-20.108 2.205-27.516 6.086L69.321 342.37c-3.88-32.808-5.821-56.621-5.821-71.438 0-14.816 1.94-38.629 5.82-71.437l94.722 50.006c7.408 3.88 16.58 5.91 27.516 6.085l85.594 4.763c4.41 0 6.614 3.528 6.614 10.583zm0 147.109c0 7.055-2.205 10.583-6.615 10.583l-85.594 4.763c-10.936.176-20.108 2.204-27.516 6.085l-94.722 50.006c-3.88-32.808-5.821-56.62-5.821-71.437s1.94-38.63 5.82-71.438l94.722 50.006c7.408 3.881 16.58 5.91 27.516 6.086l85.594 4.762c4.41 0 6.615 3.528 6.615 10.584z" />
</svg>