<?xml version="1.0" standalone="no"?>
<!DOCTYPE svg PUBLIC "-//W3C//DTD SVG 1.1//EN" "http://www.w3.org/Graphics/SVG/1.1/DTD/svg11.dtd">
<svg xmlns="http://www.w3.org/2000/svg" xmlns:xlink="http://www.w3.org/1999/xlink" version="1.1">
    <metadata>
        Created by FontForge 20201107 at Fri Jan 31 05:27:03 2020
        By fANhAN iNSiDE
        Copyright (c) SIL International, 2015-2020
    </metadata>
    <defs>
        <font id="Alkalami-Regular" horiz-adv-x="0">
            <font-face font-family="Alkalami" font-weight="400" font-stretch="normal" units-per-em="1000" panose-1="0 0 0 0 0 0 0 0 0 0" ascent="800" descent="-200" x-height="419" cap-height="660" bbox="-1212 -908 1684 1372.15" underline-thickness="50" underline-position="-125" unicode-range="U+0020-FFFD" />
            <missing-glyph horiz-adv-x="1033" d="M60 -226v925h913v-925h-913zM76 -209h881v891h-881v-891zM96 -52q46 -13 94 -20.5t95 -7.5q107 0 204 37t163 116q2 33 3 52.5t1 44.5q0 31 -3 63.5t-8 66.5v1v1q0 2 3 3.5t7 4.5q21 8 47 8q3 -20 5.5 -57.5t2.5 -96.5q0 -16 2.5 -20t12.5 -4h33q6 0 7.5 7.5t1.5 27.5
q-1 59 -7 89.5t-6 35.5q0 4 10 10q21 8 47 8q3 -20 5.5 -55.5t2.5 -109.5q0 -10 1.5 -11.5t6.5 -1.5h35q8 0 11 6.5t3 28.5q0 59 -6.5 89.5t-6.5 35.5q0 4 10 10q10 4 23.5 6t23.5 2q2 -14 4 -31.5t3.5 -46t1.5 -76.5q0 -61 -7.5 -100.5t-27.5 -39.5h-172
q-51 -67 -119.5 -114t-145.5 -71t-155 -24q-37 0 -73.5 5.5t-71.5 16.5q-14 5 -28 22.5t-23.5 41.5t-9.5 47zM681 489q13 3 27 4t30 1h13t13 -1q5 -13 7 -33t2 -37q0 -22 -4 -39.5t-12 -19.5q-13 -3 -28 -3.5t-30 -0.5h-13.5t-13.5 1q-5 14 -7.5 32t-2.5 37q0 23 4.5 40.5
t14.5 18.5zM812 497q13 3 27 4t30 1h12.5h13.5q5 -14 7 -33.5t2 -37.5q0 -22 -4 -39t-12 -19q-13 -3 -28 -4t-31 -1q-7 0 -13.5 0.5t-13.5 0.5q-5 14 -7.5 32t-2.5 37q0 23 5 40.5t15 18.5zM727 655q8 4 31 6t47 2h21.5t17.5 -2q5 -15 7.5 -36t2.5 -41q0 -50 -17 -62
q-6 -4 -29.5 -6t-49.5 -2q-11 0 -22 0.5t-20 1.5q-10 33 -10 75q0 26 5.5 43t15.5 21z" />
            <glyph glyph-name="uni0627.fina" unicode="&#x627;" horiz-adv-x="224" arabic-form="final" d="M115 -30q-1 -35 -1.5 -66.5t-1.5 -57.5q0 -13 -14.5 -17.5t-25.5 -4.5q-2 113 -5.5 235t-7.5 242t-10 225v1.5v1.5q0 7 10 13q13 6 32.5 10t39.5 4q-2 -88 -4.5 -191.5t-5.5 -202.5q0 -11 5.5 -15.5t31.5 -5.5t86 -1l-1 -133v-7h-119q-6 0 -7.5 -5t-1.5 -25z" />
            <glyph glyph-name="uni0623.fina" unicode="&#x623;" horiz-adv-x="314" arabic-form="final" d="M115 -30q-1 -35 -1.5 -66.5t-1.5 -57.5q0 -13 -14.5 -17.5t-25.5 -4.5q-2 113 -5.5 235t-7.5 242t-10 225v1.5v1.5q0 7 10 13q13 6 32.5 10t39.5 4q-2 -88 -4.5 -191.5t-5.5 -202.5q0 -8 6 -12.5t26.5 -6.5t63.5 -2.5t117 -0.5l-1 -133v-7h-209q-6 0 -7.5 -5t-1.5 -25z
M98 325q-18 0 -20.5 14t1 36.5t3.5 46.5q0 19 -4 40.5t0 37t29 15.5q9 0 11.5 10t11.5 8q0 -13 1.5 -15.5t7.5 -2.5h122q5 0 6.5 -17t1.5 -26h-131q-4 0 -6.5 -7.5t-2.5 -15t4 -7.5h128q5 0 6.5 -17t1.5 -27h-134q-3 0 -5.5 -7.5t-2 -15t4.5 -7.5h129q5 0 6.5 -16.5
t1.5 -26.5h-137q-8 0 -8 -18q-10 7 -14 12.5t-12 5.5z" />
            <glyph glyph-name="uni0625.fina" unicode="&#x625;" horiz-adv-x="314" arabic-form="final" d="M115 -30q0 -23 -0.5 -55.5t-1 -63t-1.5 -48.5l-33 -22q-4 0 -6.5 29.5t-5 81t-4 116.5t-3.5 136.5t-3.5 142t-3.5 132.5t-4 107v1.5v1.5q0 7 10 13q13 6 32.5 10t39.5 4q-2 -88 -4.5 -191.5t-5.5 -202.5q0 -8 6 -12.5t26.5 -6.5t63.5 -2.5t117 -0.5l-1 -133v-7h-209
q-6 0 -7.5 -5t-1.5 -25zM79 -219l13 190q9 0 11.5 10t11.5 8q0 -13 1.5 -15.5t7.5 -2.5h122q5 0 6.5 -17t1.5 -26h-130q-4 0 -6.5 -7.5t-2.5 -15t4 -7.5h127q5 0 6.5 -17t1.5 -27h-132q-3 0 -5.5 -7.5t-2 -15t4.5 -7.5h127q5 0 6.5 -16.5t1.5 -26.5h-137h-38z" />
            <glyph glyph-name="uni0622.fina" unicode="&#x622;" horiz-adv-x="344" arabic-form="final" d="M165 -30q-1 -35 -1.5 -66.5t-1.5 -57.5q0 -13 -14.5 -17.5t-25.5 -4.5q-2 113 -5.5 235t-7.5 242t-10 225v1.5v1.5q0 7 10 13q13 6 32.5 10t39.5 4q-2 -88 -4.5 -191.5t-5.5 -202.5q0 -7 5 -11.5t23.5 -6.5t57.5 -3t107 -1l-1 -133v-7h-189q-6 0 -7.5 -5t-1.5 -25z
M65 573q-41 0 -60.5 21t-19.5 49q0 30 22 53t68 23q31 0 55.5 -9.5t48.5 -20.5t53 -18q3 19 14.5 28.5t22.5 9.5q19 0 28 -14.5t9 -33.5t-11 -36t-34 -17q-32 0 -62 13.5l-60 27t-63 13.5q-12 0 -18 -5t-6 -11q0 -7 7 -12.5t21 -5.5q18 0 44 11q1 -4 1.5 -10t0.5 -14
q0 -27 -8 -30q-16 -7 -28.5 -9.5t-24.5 -2.5z" />
            <glyph glyph-name="uni066E.init" unicode="&#x66e;" horiz-adv-x="339" d="M202 246q11 5 27 7.5t29 2.5q4 -17 6.5 -43t2.5 -61q0 -37 -4 -72t-13 -57.5t-25 -22.5h-245v140h212q7 0 9.5 6.5t2.5 16.5q0 19 -7 42t-7 29q0 7 12 12z" />
            <glyph glyph-name="uni066E.medi" unicode="&#x66e;" horiz-adv-x="329" d="M242 148q1 -8 17 -8h90v-140h-369v140h185q12 0 12 19q0 21 -6.5 45t-6.5 30q0 7 12 12q25 10 56 10q6 -30 7 -54t3 -54z" />
            <glyph glyph-name="uni066E.fina" unicode="&#x66e;" horiz-adv-x="444" d="M50 140h230q12 0 12 19q0 21 -6.5 45t-6.5 30q0 7 12 12q25 10 56 10q6 -30 7 -54t3 -54q1 -8 17 -8h90v-140h-374q-16 0 -24.5 22t-12 54.5t-3.5 63.5z" />
            <glyph glyph-name="uni0628.init" unicode="&#x628;" horiz-adv-x="339" arabic-form="initial" d="M202 246q11 5 27 7.5t29 2.5q4 -17 6.5 -43t2.5 -61q0 -37 -4 -72t-13 -57.5t-25 -22.5h-245v140h212q7 0 9.5 6.5t2.5 16.5q0 19 -7 42t-7 29q0 7 12 12zM74 -45q10 5 38 7t56 2h26t22 -2q6 -18 9 -43.5t3 -49.5q0 -61 -21 -75q-7 -5 -35.5 -7.5t-59.5 -2.5
q-14 0 -27 0.5t-24 1.5q-6 18 -9 42.5t-3 48.5q0 31 6.5 52t18.5 26z" />
            <glyph glyph-name="uni0628.medi" unicode="&#x628;" horiz-adv-x="329" arabic-form="medial" d="M242 148q1 -8 17 -8h90v-140h-369v140h185q12 0 12 19q0 21 -6.5 45t-6.5 30q0 7 12 12q25 10 56 10q6 -30 7 -54t3 -54zM98 -45q10 5 38 7t56 2h26t22 -2q6 -18 9 -43.5t3 -49.5q0 -61 -21 -75q-7 -5 -35.5 -7.5t-59.5 -2.5q-14 0 -27 0.5t-24 1.5q-6 18 -9 42.5
t-3 48.5q0 31 6.5 52t18.5 26z" />
            <glyph glyph-name="uni0628.fina" unicode="&#x628;" horiz-adv-x="444" arabic-form="final" d="M50 140h230q12 0 12 19q0 21 -6.5 45t-6.5 30q0 7 12 12q25 10 56 10q6 -30 7 -54t3 -54q1 -8 17 -8h90v-140h-374q-16 0 -24.5 22t-12 54.5t-3.5 63.5zM149 -55q10 5 38 7t56 2h26t22 -2q6 -18 9 -43.5t3 -49.5q0 -61 -21 -75q-7 -5 -35.5 -7.5t-59.5 -2.5
q-14 0 -27 0.5t-24 1.5q-6 18 -9 42.5t-3 48.5q0 31 6.5 52t18.5 26z" />
            <glyph glyph-name="uni067E.init" unicode="&#x67e;" horiz-adv-x="450" arabic-form="initial" d="M202 246q11 5 27 7.5t29 2.5q4 -17 6.5 -43t2.5 -61q0 -37 -4 -72t-13 -57.5t-25 -22.5h-245v140h212q7 0 9.5 6.5t2.5 16.5q0 19 -7 42t-7 29q0 7 12 12zM40 -60q32 6 70 6h15.5t15.5 -1q6 -16 8.5 -40t2.5 -45q0 -27 -4.5 -48t-14.5 -23q-16 -4 -34 -5t-37 -1
q-8 0 -16.5 0.5t-16.5 1.5q-6 16 -9 38.5t-3 44.5q0 28 5.5 49.5t17.5 22.5zM199 -50q32 6 69 6h15.5t15.5 -1q6 -16 8.5 -40t2.5 -45q0 -27 -4.5 -48t-14.5 -23q-16 -4 -34 -5t-37 -1q-8 0 -16.5 0.5t-16.5 1.5q-6 16 -9 38.5t-3 44.5q0 28 5.5 49.5t18.5 22.5zM102 -239
q10 5 38 7t56 2h26t22 -2q6 -18 9 -43.5t3 -49.5q0 -61 -21 -75q-7 -5 -35.5 -7.5t-59.5 -2.5q-14 0 -27 0.5t-24 1.5q-6 18 -9 42.5t-3 48.5q0 31 6.5 52t18.5 26z" />
            <glyph glyph-name="uni067E.medi" unicode="&#x67e;" horiz-adv-x="389" arabic-form="medial" d="M302 148q1 -8 17 -8h90v-140h-429v140h245q12 0 12 19q0 21 -6.5 45t-6.5 30q0 7 12 12q25 10 56 10q6 -30 7 -54t3 -54zM50 -60q32 6 70 6h15.5t15.5 -1q6 -16 8.5 -40t2.5 -45q0 -27 -4.5 -48t-14.5 -23q-16 -4 -34 -5t-37 -1q-8 0 -16.5 0.5t-16.5 1.5q-6 16 -9 38.5
t-3 44.5q0 28 5.5 49.5t17.5 22.5zM209 -50q32 6 69 6h15.5t15.5 -1q6 -16 8.5 -40t2.5 -45q0 -27 -4.5 -48t-14.5 -23q-16 -4 -34 -5t-37 -1q-8 0 -16.5 0.5t-16.5 1.5q-6 16 -9 38.5t-3 44.5q0 28 5.5 49.5t18.5 22.5zM112 -239q10 5 38 7t56 2h26t22 -2q6 -18 9 -43.5
t3 -49.5q0 -61 -21 -75q-7 -5 -35.5 -7.5t-59.5 -2.5q-14 0 -27 0.5t-24 1.5q-6 18 -9 42.5t-3 48.5q0 31 6.5 52t18.5 26z" />
            <glyph glyph-name="uni067E.fina" unicode="&#x67e;" horiz-adv-x="430" arabic-form="final" d="M30 140h250q12 0 12 19q0 21 -6.5 45t-6.5 30q0 7 12 12q25 10 56 10q6 -30 7 -54t3 -54q1 -8 17 -8h90v-140h-394q-16 0 -24.5 22t-12 54.5t-3.5 63.5zM85 -60q32 6 70 6h15.5t15.5 -1q6 -16 8.5 -40t2.5 -45q0 -27 -4.5 -48t-14.5 -23q-16 -4 -34 -5t-37 -1
q-8 0 -16.5 0.5t-16.5 1.5q-6 16 -9 38.5t-3 44.5q0 28 5.5 49.5t17.5 22.5zM244 -50q32 6 69 6h15.5t15.5 -1q6 -16 8.5 -40t2.5 -45q0 -27 -4.5 -48t-14.5 -23q-16 -4 -34 -5t-37 -1q-8 0 -16.5 0.5t-16.5 1.5q-6 16 -9 38.5t-3 44.5q0 28 5.5 49.5t18.5 22.5zM147 -239
q10 5 38 7t56 2h26t22 -2q6 -18 9 -43.5t3 -49.5q0 -61 -21 -75q-7 -5 -35.5 -7.5t-59.5 -2.5q-14 0 -27 0.5t-24 1.5q-6 18 -9 42.5t-3 48.5q0 31 6.5 52t18.5 26z" />
            <glyph glyph-name="uni067B.init" unicode="&#x67b;" horiz-adv-x="314" arabic-form="initial" d="M106 -220q35 6 76 6h16.5t17.5 -1q7 -16 9.5 -40t2.5 -45q0 -27 -4.5 -48t-15.5 -23q-18 -4 -38 -5t-40 -1q-9 0 -18 0.5t-18 1.5q-7 16 -10 38.5t-3 44.5q0 28 6 49.5t19 22.5zM107 -34q17 4 35.5 5t39.5 1h16.5t17.5 -1q7 -16 9.5 -40t2.5 -45q0 -27 -4.5 -48
t-15.5 -23q-18 -4 -38 -5t-40 -1q-9 0 -18 0.5t-18 1.5q-7 16 -10 38.5t-3 44.5q0 28 6 48.5t20 23.5zM202 246q11 5 27 7.5t29 2.5q4 -17 6.5 -43t2.5 -61q0 -37 -4 -72t-13 -57.5t-25 -22.5h-245v140h212q7 0 9.5 6.5t2.5 16.5q0 19 -7 42t-7 29q0 7 12 12z" />
            <glyph glyph-name="uni067B.medi" unicode="&#x67b;" horiz-adv-x="329" arabic-form="medial" d="M125 -220q35 6 76 6h16.5t17.5 -1q7 -16 9.5 -40t2.5 -45q0 -27 -4.5 -48t-15.5 -23q-18 -4 -38 -5t-40 -1q-9 0 -18 0.5t-18 1.5q-7 16 -10 38.5t-3 44.5q0 28 6 49.5t19 22.5zM126 -34q17 4 35.5 5t39.5 1h16.5t17.5 -1q7 -16 9.5 -40t2.5 -45q0 -27 -4.5 -48
t-15.5 -23q-18 -4 -38 -5t-40 -1q-9 0 -18 0.5t-18 1.5q-7 16 -10 38.5t-3 44.5q0 28 6 48.5t20 23.5zM242 148q1 -8 17 -8h90v-140h-369v140h185q12 0 12 19q0 21 -6.5 45t-6.5 30q0 7 12 12q25 10 56 10q6 -30 7 -54t3 -54z" />
            <glyph glyph-name="uni067B.fina" unicode="&#x67b;" horiz-adv-x="448" arabic-form="final" d="M174 -220q35 6 76 6h16.5t17.5 -1q7 -16 9.5 -40t2.5 -45q0 -27 -4.5 -48t-15.5 -23q-18 -4 -38 -5t-40 -1q-9 0 -18 0.5t-18 1.5q-7 16 -10 38.5t-3 44.5q0 28 6 49.5t19 22.5zM175 -34q17 4 35.5 5t39.5 1h16.5t17.5 -1q7 -16 9.5 -40t2.5 -45q0 -27 -4.5 -48
t-15.5 -23q-18 -4 -38 -5t-40 -1q-9 0 -18 0.5t-18 1.5q-7 16 -10 38.5t-3 44.5q0 28 6 48.5t20 23.5zM50 140h230q12 0 12 19q0 21 -6.5 45t-6.5 30q0 7 12 12q25 10 56 10q6 -30 7 -54t3 -54q1 -8 17 -8h90v-140h-374q-16 0 -24.5 22t-12 54.5t-3.5 63.5z" />
            <glyph glyph-name="uni062A.init" unicode="&#x62a;" horiz-adv-x="339" arabic-form="initial" d="M202 246q11 5 27 7.5t29 2.5q4 -17 6.5 -43t2.5 -61q0 -37 -4 -72t-13 -57.5t-25 -22.5h-245v140h212q7 0 9.5 6.5t2.5 16.5q0 19 -7 42t-7 29q0 7 12 12zM92 457q32 6 70 6h15.5t15.5 -1q6 -16 8.5 -40t2.5 -45q0 -27 -4.5 -48t-14.5 -23q-16 -4 -34 -5t-37 -1
q-8 0 -16.5 0.5t-16.5 1.5q-6 16 -9 38.5t-3 44.5q0 28 5.5 49.5t17.5 22.5zM251 467q32 6 69 6h15.5t15.5 -1q6 -16 8.5 -40t2.5 -45q0 -27 -4.5 -48t-14.5 -23q-16 -4 -34 -5t-37 -1q-8 0 -16.5 0.5t-16.5 1.5q-6 16 -9 38.5t-3 44.5q0 28 5.5 49.5t18.5 22.5z" />
            <glyph glyph-name="uni062A.medi" unicode="&#x62a;" horiz-adv-x="329" arabic-form="medial" d="M242 148q1 -8 17 -8h90v-140h-369v140h185q12 0 12 19q0 21 -6.5 45t-6.5 30q0 7 12 12q25 10 56 10q6 -30 7 -54t3 -54zM65 459q32 6 70 6h15.5t15.5 -1q6 -16 8.5 -40t2.5 -45q0 -27 -4.5 -48t-14.5 -23q-16 -4 -34 -5t-37 -1q-8 0 -16.5 0.5t-16.5 1.5q-6 16 -9 38.5
t-3 44.5q0 28 5.5 49.5t17.5 22.5zM224 469q32 6 69 6h15.5t15.5 -1q6 -16 8.5 -40t2.5 -45q0 -27 -4.5 -48t-14.5 -23q-16 -4 -34 -5t-37 -1q-8 0 -16.5 0.5t-16.5 1.5q-6 16 -9 38.5t-3 44.5q0 28 5.5 49.5t18.5 22.5z" />
            <glyph glyph-name="uni062A.fina" unicode="&#x62a;" horiz-adv-x="444" arabic-form="final" d="M50 140h230q12 0 12 19q0 21 -6.5 45t-6.5 30q0 7 12 12q25 10 56 10q6 -30 7 -54t3 -54q1 -8 17 -8h90v-140h-374q-16 0 -24.5 22t-12 54.5t-3.5 63.5zM179 464q32 6 70 6h15.5t15.5 -1q6 -16 8.5 -40t2.5 -45q0 -27 -4.5 -48t-14.5 -23q-16 -4 -34 -5t-37 -1
q-8 0 -16.5 0.5t-16.5 1.5q-6 16 -9 38.5t-3 44.5q0 28 5.5 49.5t17.5 22.5zM338 474q32 6 69 6h15.5t15.5 -1q6 -16 8.5 -40t2.5 -45q0 -27 -4.5 -48t-14.5 -23q-16 -4 -34 -5t-37 -1q-8 0 -16.5 0.5t-16.5 1.5q-6 16 -9 38.5t-3 44.5q0 28 5.5 49.5t18.5 22.5z" />
            <glyph glyph-name="uni062B.init" unicode="&#x62b;" horiz-adv-x="339" arabic-form="initial" d="M202 246q11 5 27 7.5t29 2.5q4 -17 6.5 -43t2.5 -61q0 -37 -4 -72t-13 -57.5t-25 -22.5h-245v140h212q7 0 9.5 6.5t2.5 16.5q0 19 -7 42t-7 29q0 7 12 12zM91 452q32 6 70 6h15.5t15.5 -1q6 -16 8.5 -40t2.5 -45q0 -27 -4.5 -48t-14.5 -23q-16 -4 -34 -5t-37 -1
q-8 0 -16.5 0.5t-16.5 1.5q-6 16 -9 38.5t-3 44.5q0 28 5.5 49.5t17.5 22.5zM250 462q32 6 69 6h15.5t15.5 -1q6 -16 8.5 -40t2.5 -45q0 -27 -4.5 -48t-14.5 -23q-16 -4 -34 -5t-37 -1q-8 0 -16.5 0.5t-16.5 1.5q-6 16 -9 38.5t-3 44.5q0 28 5.5 49.5t18.5 22.5zM147 653
q10 5 38 7t56 2h26t22 -2q6 -18 9 -43.5t3 -49.5q0 -61 -21 -75q-7 -5 -35.5 -7.5t-59.5 -2.5q-14 0 -27 0.5t-24 1.5q-6 18 -9 42.5t-3 48.5q0 31 6.5 52t18.5 26z" />
            <glyph glyph-name="uni062B.medi" unicode="&#x62b;" horiz-adv-x="329" arabic-form="medial" d="M242 148q1 -8 17 -8h90v-140h-369v140h185q12 0 12 19q0 21 -6.5 45t-6.5 30q0 7 12 12q25 10 56 10q6 -30 7 -54t3 -54zM64 454q32 6 70 6h15.5t15.5 -1q6 -16 8.5 -40t2.5 -45q0 -27 -4.5 -48t-14.5 -23q-16 -4 -34 -5t-37 -1q-8 0 -16.5 0.5t-16.5 1.5q-6 16 -9 38.5
t-3 44.5q0 28 5.5 49.5t17.5 22.5zM223 464q32 6 69 6h15.5t15.5 -1q6 -16 8.5 -40t2.5 -45q0 -27 -4.5 -48t-14.5 -23q-16 -4 -34 -5t-37 -1q-8 0 -16.5 0.5t-16.5 1.5q-6 16 -9 38.5t-3 44.5q0 28 5.5 49.5t18.5 22.5zM120 655q10 5 38 7t56 2h26t22 -2q6 -18 9 -43.5
t3 -49.5q0 -61 -21 -75q-7 -5 -35.5 -7.5t-59.5 -2.5q-14 0 -27 0.5t-24 1.5q-6 18 -9 42.5t-3 48.5q0 31 6.5 52t18.5 26z" />
            <glyph glyph-name="uni062B.fina" unicode="&#x62b;" horiz-adv-x="444" arabic-form="final" d="M50 140h230q12 0 12 19q0 21 -6.5 45t-6.5 30q0 7 12 12q25 10 56 10q6 -30 7 -54t3 -54q1 -8 17 -8h90v-140h-374q-16 0 -24.5 22t-12 54.5t-3.5 63.5zM178 459q32 6 70 6h15.5t15.5 -1q6 -16 8.5 -40t2.5 -45q0 -27 -4.5 -48t-14.5 -23q-16 -4 -34 -5t-37 -1
q-8 0 -16.5 0.5t-16.5 1.5q-6 16 -9 38.5t-3 44.5q0 28 5.5 49.5t17.5 22.5zM337 469q32 6 69 6h15.5t15.5 -1q6 -16 8.5 -40t2.5 -45q0 -27 -4.5 -48t-14.5 -23q-16 -4 -34 -5t-37 -1q-8 0 -16.5 0.5t-16.5 1.5q-6 16 -9 38.5t-3 44.5q0 28 5.5 49.5t18.5 22.5zM234 660
q10 5 38 7t56 2h26t22 -2q6 -18 9 -43.5t3 -49.5q0 -61 -21 -75q-7 -5 -35.5 -7.5t-59.5 -2.5q-14 0 -27 0.5t-24 1.5q-6 18 -9 42.5t-3 48.5q0 31 6.5 52t18.5 26z" />
            <glyph glyph-name="uni062C.init" unicode="&#x62c;" horiz-adv-x="505" arabic-form="initial" d="M-20 0v140h419q9 0 16 -16t11 -41.5t4 -53.5v-12.5v-4.5t-1 -12h-72.5h-105h-113h-98h-60.5zM382 94l-46 3l-57 43q26 0 31 2.5t5 17.5q0 29 -4 44.5t-21 21.5t-58 6q-41 1 -75.5 0t-39.5 -1q-12 0 -23.5 26t-11.5 69q0 10 1 20t3 20q24 1 61 2t76.5 1t72 -0.5t48.5 -1.5
q14 -1 23 -5.5t14 -24.5t5 -68q0 -18 -2.5 -27t-4.5 -22t-2 -45q0 -25 3.5 -30t16.5 -5zM160 -45q10 5 38 7t56 2h26t22 -2q6 -18 9 -43.5t3 -49.5q0 -61 -21 -75q-7 -5 -35.5 -7.5t-59.5 -2.5q-14 0 -27 0.5t-24 1.5q-6 18 -9 42.5t-3 48.5q0 31 6.5 52t18.5 26z" />
            <glyph glyph-name="uni062C.medi" unicode="&#x62c;" horiz-adv-x="403" arabic-form="medial" d="M423 207h-81h-78q-3 0 -5 -1.5t-1 -10.5q2 -33 6 -44t14 -11h23.5h13h22.5q17 0 25 -22.5t11 -55t3 -62.5h-396v140h197q9 0 15 2.5t5 13.5q-2 34 -6 42.5t-18 8.5q-37 0 -66 0.5t-31 0.5q-26 0 -37.5 33t-11.5 108q66 -1 139.5 -1.5t131.5 -0.5h76h33.5h15.5v-140z
M132 -45q10 5 38 7t56 2h26t22 -2q6 -18 9 -43.5t3 -49.5q0 -61 -21 -75q-7 -5 -35.5 -7.5t-59.5 -2.5q-14 0 -27 0.5t-24 1.5q-6 18 -9 42.5t-3 48.5q0 31 6.5 52t18.5 26z" />
            <glyph glyph-name="uni062C.fina" unicode="&#x62c;" horiz-adv-x="558" arabic-form="final" d="M47 -572q-20 0 -32 4q13 143 30.5 239t51.5 153t95 82t160 25q55 0 85.5 -1t42.5 -2t16.5 -4t6.5 -12q4 -13 7.5 -38.5t3.5 -46.5q0 -23 -3 -38q-34 1 -75.5 2t-81.5 1q-22 0 -43.5 -0.5t-41.5 -1.5q-66 -3 -105 -28.5t-60.5 -71.5t-33.5 -111.5t-23 -150.5zM398 -110
l-46 3l-36 37q17 2 21 5t4 18q0 18 -2.5 28t-13.5 14t-38 4q-22 1 -35 1t-28 1q-9 0 -15.5 18t-10.5 42.5t-4.5 47.5t1.5 33q17 -1 55 -1.5t82 -0.5h82h56h108v-140h-24h-50.5h-51h-25.5q-17 0 -21.5 -6.5t-3.5 -25.5q2 -17 4.5 -24.5t14 -10t36.5 -4.5zM270 -256q10 5 38 7
t56 2h26t22 -2q6 -18 9 -43.5t3 -49.5q0 -61 -21 -75q-7 -5 -35.5 -7.5t-59.5 -2.5q-14 0 -27 0.5t-24 1.5q-6 18 -9 42.5t-3 48.5q0 31 6.5 52t18.5 26z" />
            <glyph glyph-name="uni0683.init" unicode="&#x683;" horiz-adv-x="505" arabic-form="initial" d="M-20 0v140h419q9 0 16 -16t11 -41.5t4 -53.5v-12.5v-4.5t-1 -12h-72.5h-105h-113h-98h-60.5zM382 94l-46 3l-57 43q26 0 31 2.5t5 17.5q0 29 -4 44.5t-21 21.5t-58 6q-41 1 -75.5 0t-39.5 -1q-12 0 -23.5 26t-11.5 69q0 10 1 20t3 20q24 1 61 2t76.5 1t72 -0.5t48.5 -1.5
q14 -1 23 -5.5t14 -24.5t5 -68q0 -18 -2.5 -27t-4.5 -22t-2 -45q0 -25 3.5 -30t16.5 -5zM77 -60q32 6 70 6h15.5t15.5 -1q6 -16 8.5 -40t2.5 -45q0 -27 -4.5 -48t-14.5 -23q-16 -4 -34 -5t-37 -1q-8 0 -16.5 0.5t-16.5 1.5q-6 16 -9 38.5t-3 44.5q0 28 5.5 49.5t17.5 22.5z
M236 -50q32 6 69 6h15.5t15.5 -1q6 -16 8.5 -40t2.5 -45q0 -27 -4.5 -48t-14.5 -23q-16 -4 -34 -5t-37 -1q-8 0 -16.5 0.5t-16.5 1.5q-6 16 -9 38.5t-3 44.5q0 28 5.5 49.5t18.5 22.5z" />
            <glyph glyph-name="uni0683.medi" unicode="&#x683;" horiz-adv-x="403" arabic-form="medial" d="M423 207h-81h-78q-3 0 -5 -1.5t-1 -10.5q2 -33 6 -44t14 -11h23.5h13h22.5q17 0 25 -22.5t11 -55t3 -62.5h-396v140h197q9 0 15 2.5t5 13.5q-2 34 -6 42.5t-18 8.5q-37 0 -66 0.5t-31 0.5q-26 0 -37.5 33t-11.5 108q66 -1 139.5 -1.5t131.5 -0.5h76h33.5h15.5v-140z
M77 -60q32 6 70 6h15.5t15.5 -1q6 -16 8.5 -40t2.5 -45q0 -27 -4.5 -48t-14.5 -23q-16 -4 -34 -5t-37 -1q-8 0 -16.5 0.5t-16.5 1.5q-6 16 -9 38.5t-3 44.5q0 28 5.5 49.5t17.5 22.5zM236 -50q32 6 69 6h15.5t15.5 -1q6 -16 8.5 -40t2.5 -45q0 -27 -4.5 -48t-14.5 -23
q-16 -4 -34 -5t-37 -1q-8 0 -16.5 0.5t-16.5 1.5q-6 16 -9 38.5t-3 44.5q0 28 5.5 49.5t18.5 22.5z" />
            <glyph glyph-name="uni0683.fina" unicode="&#x683;" horiz-adv-x="558" arabic-form="final" d="M47 -572q-20 0 -32 4q13 143 30.5 239t51.5 153t95 82t160 25q55 0 85.5 -1t42.5 -2t16.5 -4t6.5 -12q4 -13 7.5 -38.5t3.5 -46.5q0 -23 -3 -38q-34 1 -75.5 2t-81.5 1q-22 0 -43.5 -0.5t-41.5 -1.5q-66 -3 -105 -28.5t-60.5 -71.5t-33.5 -111.5t-23 -150.5zM398 -110
l-46 3l-36 37q17 2 21 5t4 18q0 18 -2.5 28t-13.5 14t-38 4q-22 1 -35 1t-28 1q-9 0 -15.5 18t-10.5 42.5t-4.5 47.5t1.5 33q17 -1 55 -1.5t82 -0.5h82h56h108v-140h-24h-50.5h-51h-25.5q-17 0 -21.5 -6.5t-3.5 -25.5q2 -17 4.5 -24.5t14 -10t36.5 -4.5zM244 -267q32 6 70 6
h15.5t15.5 -1q6 -16 8.5 -40t2.5 -45q0 -27 -4.5 -48t-14.5 -23q-16 -4 -34 -5t-37 -1q-8 0 -16.5 0.5t-16.5 1.5q-6 16 -9 38.5t-3 44.5q0 28 5.5 49.5t17.5 22.5zM403 -257q32 6 69 6h15.5t15.5 -1q6 -16 8.5 -40t2.5 -45q0 -27 -4.5 -48t-14.5 -23q-16 -4 -34 -5t-37 -1
q-8 0 -16.5 0.5t-16.5 1.5q-6 16 -9 38.5t-3 44.5q0 28 5.5 49.5t18.5 22.5z" />
            <glyph glyph-name="uni062D.init" unicode="&#x62d;" horiz-adv-x="505" arabic-form="initial" d="M-20 0v140h419q9 0 16 -16t11 -41.5t4 -53.5v-12.5v-4.5t-1 -12h-72.5h-105h-113h-98h-60.5zM382 94l-46 3l-57 43q26 0 31 2.5t5 17.5q0 29 -4 44.5t-21 21.5t-58 6q-41 1 -75.5 0t-39.5 -1q-12 0 -23.5 26t-11.5 69q0 10 1 20t3 20q24 1 61 2t76.5 1t72 -0.5t48.5 -1.5
q14 -1 23 -5.5t14 -24.5t5 -68q0 -18 -2.5 -27t-4.5 -22t-2 -45q0 -25 3.5 -30t16.5 -5z" />
            <glyph glyph-name="uni062D.medi" unicode="&#x62d;" horiz-adv-x="403" arabic-form="medial" d="M423 207h-81h-78q-3 0 -5 -1.5t-1 -10.5q2 -33 6 -44t14 -11h23.5h13h22.5q17 0 25 -22.5t11 -55t3 -62.5h-396v140h197q9 0 15 2.5t5 13.5q-2 34 -6 42.5t-18 8.5q-37 0 -66 0.5t-31 0.5q-26 0 -37.5 33t-11.5 108q66 -1 139.5 -1.5t131.5 -0.5h76h33.5h15.5v-140z" />
            <glyph glyph-name="uni062D.fina" unicode="&#x62d;" horiz-adv-x="558" arabic-form="final" d="M47 -572q-20 0 -32 4q13 143 30.5 239t51.5 153t95 82t160 25q55 0 85.5 -1t42.5 -2t16.5 -4t6.5 -12q4 -13 7.5 -38.5t3.5 -46.5q0 -23 -3 -38q-34 1 -75.5 2t-81.5 1q-22 0 -43.5 -0.5t-41.5 -1.5q-66 -3 -105 -28.5t-60.5 -71.5t-33.5 -111.5t-23 -150.5zM398 -110
l-46 3l-36 37q17 2 21 5t4 18q0 18 -2.5 28t-13.5 14t-38 4q-22 1 -35 1t-28 1q-9 0 -15.5 18t-10.5 42.5t-4.5 47.5t1.5 33q17 -1 55 -1.5t82 -0.5h82h56h108v-140h-24h-50.5h-51h-25.5q-17 0 -21.5 -6.5t-3.5 -25.5q2 -17 4.5 -24.5t14 -10t36.5 -4.5z" />
            <glyph glyph-name="uni062E.init" unicode="&#x62e;" horiz-adv-x="505" arabic-form="initial" d="M-20 0v140h419q9 0 16 -16t11 -41.5t4 -53.5v-12.5v-4.5t-1 -12h-72.5h-105h-113h-98h-60.5zM382 94l-46 3l-57 43q26 0 31 2.5t5 17.5q0 29 -4 44.5t-21 21.5t-58 6q-41 1 -75.5 0t-39.5 -1q-12 0 -23.5 26t-11.5 69q0 10 1 20t3 20q24 1 61 2t76.5 1t72 -0.5t48.5 -1.5
q14 -1 23 -5.5t14 -24.5t5 -68q0 -18 -2.5 -27t-4.5 -22t-2 -45q0 -25 3.5 -30t16.5 -5zM158 583q10 5 38 7t56 2h26t22 -2q6 -18 9 -43.5t3 -49.5q0 -61 -21 -75q-7 -5 -35.5 -7.5t-59.5 -2.5q-14 0 -27 0.5t-24 1.5q-6 18 -9 42.5t-3 48.5q0 31 6.5 52t18.5 26z" />
            <glyph glyph-name="uni062E.fina.1" unicode="&#x62e;" horiz-adv-x="403" arabic-form="medial" d="M423 207h-81h-78q-3 0 -5 -1.5t-1 -10.5q2 -33 6 -44t14 -11h23.5h13h22.5q17 0 25 -22.5t11 -55t3 -62.5h-396v140h197q9 0 15 2.5t5 13.5q-2 34 -6 42.5t-18 8.5q-37 0 -66 0.5t-31 0.5q-26 0 -37.5 33t-11.5 108q66 -1 139.5 -1.5t131.5 -0.5h76h33.5h15.5v-140z
M135 542q10 5 38 7t56 2h26t22 -2q6 -18 9 -43.5t3 -49.5q0 -61 -21 -75q-7 -5 -35.5 -7.5t-59.5 -2.5q-14 0 -27 0.5t-24 1.5q-6 18 -9 42.5t-3 48.5q0 31 6.5 52t18.5 26z" />
            <glyph glyph-name="uni062E.fina" unicode="&#x62e;" horiz-adv-x="558" arabic-form="final" d="M47 -572q-20 0 -32 4q13 143 30.5 239t51.5 153t95 82t160 25q55 0 85.5 -1t42.5 -2t16.5 -4t6.5 -12q4 -13 7.5 -38.5t3.5 -46.5q0 -23 -3 -38q-34 1 -75.5 2t-81.5 1q-22 0 -43.5 -0.5t-41.5 -1.5q-66 -3 -105 -28.5t-60.5 -71.5t-33.5 -111.5t-23 -150.5zM398 -110
l-46 3l-36 37q17 2 21 5t4 18q0 18 -2.5 28t-13.5 14t-38 4q-22 1 -35 1t-28 1q-9 0 -15.5 18t-10.5 42.5t-4.5 47.5t1.5 33q17 -1 55 -1.5t82 -0.5h82h56h108v-140h-24h-50.5h-51h-25.5q-17 0 -21.5 -6.5t-3.5 -25.5q2 -17 4.5 -24.5t14 -10t36.5 -4.5zM313 354q10 5 38 7
t56 2h26t22 -2q6 -18 9 -43.5t3 -49.5q0 -61 -21 -75q-7 -5 -35.5 -7.5t-59.5 -2.5q-14 0 -27 0.5t-24 1.5q-6 18 -9 42.5t-3 48.5q0 31 6.5 52t18.5 26z" />
            <glyph glyph-name="uni062F.fina" unicode="&#x62f;" horiz-adv-x="475" arabic-form="final" d="M184 249h68.5t45.5 1l38 2t46 2q8 -28 11 -54.5t3 -49.5q0 -7 2 -8.5t15 -1.5h43h39v-140h-280h-10t-22 -1q-34 -2 -40.5 -13t-8.5 -31q-3 -44 -5.5 -86t-4 -73t-1.5 -42q0 -25 -36 -25q-4 59 -7 99.5t-5.5 70t-3.5 54.5t-3 54q0 5 -0.5 10.5t-0.5 10.5q0 44 9 64t18 27
t9 11t-6 9t-14.5 18t-15.5 39t-9 71q-2 50 -5 96.5t-5.5 82.5t-2.5 54q0 7 4 11t9 7q13 6 32.5 9t35.5 3q-3 -41 -6 -89.5t-3 -104.5q0 -35 4 -54t18 -26t45 -7z" />
            <glyph glyph-name="uni0630.fina" unicode="&#x630;" horiz-adv-x="475" arabic-form="final" d="M184 249h68.5t45.5 1l38 2t46 2q8 -28 11 -54.5t3 -49.5q0 -7 2 -8.5t15 -1.5h43h39v-140h-280h-10t-22 -1q-34 -2 -40.5 -13t-8.5 -31q-3 -44 -5.5 -86t-4 -73t-1.5 -42q0 -25 -36 -25q-4 59 -7 99.5t-5.5 70t-3.5 54.5t-3 54q0 5 -0.5 10.5t-0.5 10.5q0 44 9 64t18 27
t9 11t-6 9t-14.5 18t-15.5 39t-9 71q-2 50 -5 96.5t-5.5 82.5t-2.5 54q0 7 4 11t9 7q13 6 32.5 9t35.5 3q-3 -41 -6 -89.5t-3 -104.5q0 -35 4 -54t18 -26t45 -7zM209 497q10 5 38 7t56 2h26t22 -2q6 -18 9 -43.5t3 -49.5q0 -61 -21 -75q-7 -5 -35.5 -7.5t-59.5 -2.5
q-14 0 -27 0.5t-24 1.5q-6 18 -9 42.5t-3 48.5q0 31 6.5 52t18.5 26z" />
            <glyph glyph-name="uni0631.fina" unicode="&#x631;" horiz-adv-x="363" arabic-form="final" d="M-315 -428q77 56 155.5 120.5t151 130t131.5 125t97 105.5q8 10 11.5 26.5t3.5 32.5t-5 47.5t-17 71.5v1.5v1.5q0 7 12 11q14 5 31.5 8t31.5 3q6 -30 9.5 -54t7.5 -54q1 -5 3.5 -6.5t13.5 -1.5h61v-140h-32q-72 -65 -143 -120.5t-146.5 -108t-163 -107.5t-192.5 -120
q-6 0 -13.5 9.5t-7.5 18.5z" />
            <glyph glyph-name="uni0632.fina" unicode="&#x632;" horiz-adv-x="363" arabic-form="final" d="M-315 -428q77 56 155.5 120.5t151 130t131.5 125t97 105.5q8 10 11.5 26.5t3.5 32.5t-5 47.5t-17 71.5v1.5v1.5q0 7 12 11q14 5 31.5 8t31.5 3q6 -30 9.5 -54t7.5 -54q1 -5 3.5 -6.5t13.5 -1.5h61v-140h-32q-72 -65 -143 -120.5t-146.5 -108t-163 -107.5t-192.5 -120
q-6 0 -13.5 9.5t-7.5 18.5zM151 458q10 5 38 7t56 2h26t22 -2q6 -18 9 -43.5t3 -49.5q0 -61 -21 -75q-7 -5 -35.5 -7.5t-59.5 -2.5q-14 0 -27 0.5t-24 1.5q-6 18 -9 42.5t-3 48.5q0 31 6.5 52t18.5 26z" />
            <glyph glyph-name="uni0698.fina" unicode="&#x698;" horiz-adv-x="363" arabic-form="final" d="M-315 -428q77 56 155.5 120.5t151 130t131.5 125t97 105.5q8 10 11.5 26.5t3.5 32.5t-5 47.5t-17 71.5v1.5v1.5q0 7 12 11q14 5 31.5 8t31.5 3q6 -30 9.5 -54t7.5 -54q1 -5 3.5 -6.5t13.5 -1.5h61v-140h-32q-72 -65 -143 -120.5t-146.5 -108t-163 -107.5t-192.5 -120
q-6 0 -13.5 9.5t-7.5 18.5zM80 464q32 6 70 6h15.5t15.5 -1q6 -16 8.5 -40t2.5 -45q0 -27 -4.5 -48t-14.5 -23q-16 -4 -34 -5t-37 -1q-8 0 -16.5 0.5t-16.5 1.5q-6 16 -9 38.5t-3 44.5q0 28 5.5 49.5t17.5 22.5zM239 474q32 6 69 6h15.5t15.5 -1q6 -16 8.5 -40t2.5 -45
q0 -27 -4.5 -48t-14.5 -23q-16 -4 -34 -5t-37 -1q-8 0 -16.5 0.5t-16.5 1.5q-6 16 -9 38.5t-3 44.5q0 28 5.5 49.5t18.5 22.5zM136 665q10 5 38 7t56 2h26t22 -2q6 -18 9 -43.5t3 -49.5q0 -61 -21 -75q-7 -5 -35.5 -7.5t-59.5 -2.5q-14 0 -27 0.5t-24 1.5q-6 18 -9 42.5
t-3 48.5q0 31 6.5 52t18.5 26z" />
            <glyph glyph-name="uni0633.init" unicode="&#x633;" horiz-adv-x="486" arabic-form="initial" d="M200 140q8 0 9.5 9t1.5 34q-1 71 -8 108t-7 43q0 7 12 12q11 5 27 7.5t29 2.5q4 -25 7 -65t3 -122q0 -19 2 -24t8 -5h42q11 0 14 8t3 35q0 71 -7.5 108t-7.5 43q0 7 12 12q11 5 27 7.5t29 2.5q3 -16 5 -36.5t4 -52.5t2 -85q1 -78 -8.5 -130t-33.5 -52h-385v140h87
q7 0 9.5 9t2.5 34q-1 71 -8 108t-7 43q0 7 12 12q11 5 27 7.5t29 2.5q4 -25 7 -67t3 -107q0 -27 3 -34.5t15 -7.5h40z" />
            <glyph glyph-name="uni0633.medi" unicode="&#x633;" horiz-adv-x="472" arabic-form="medial" d="M492 140v-140h-512v140h87q7 0 9.5 9t2.5 34q-1 71 -8 108t-7 43q0 7 12 12q11 5 27 7.5t29 2.5q4 -25 7 -67t3 -107q0 -27 3 -34.5t15 -7.5h40q8 0 9.5 9t1.5 34q-1 71 -8 108t-7 43q0 7 12 12q11 5 27 7.5t29 2.5q4 -25 7 -65t3 -122q0 -19 2 -24t8 -5h42q11 0 14 8
t3 35q0 71 -7.5 108t-7.5 43q0 7 12 12q11 5 27 7.5t29 2.5q3 -16 4.5 -37t3 -57.5t3.5 -99.5q1 -16 5 -19t13 -3h67z" />
            <glyph glyph-name="uni0633.fina" unicode="&#x633;" horiz-adv-x="475" arabic-form="final" d="M69 46q8 42 9.5 71.5t1.5 59.5q0 37 -3.5 76.5t-9.5 80.5v1v1q0 4 12 10q11 5 27 7.5t29 2.5q4 -25 7 -70t3 -117q0 -19 3 -24t15 -5h40q8 0 9.5 9t1.5 34q-1 71 -8 108t-7 43q0 7 12 12q11 5 27 7.5t29 2.5q3 -16 5 -40t3.5 -62t1.5 -98q0 -11 2 -13.5t8 -2.5h42
q11 0 14 8t3 35q0 71 -7.5 108t-7.5 43q0 7 12 12q11 5 27 7.5t29 2.5q3 -17 6 -37.5t5.5 -55t2.5 -92.5q0 -21 6.5 -26t19.5 -5h56v-140h-323q-90 -126 -195.5 -216t-219 -147.5t-227.5 -85t-220 -27.5q-49 0 -110.5 2.5t-123.5 10.5t-111 25q-18 7 -37.5 34t-32 61.5
t-9.5 62.5q178 -57 348 -64.5t323.5 33.5t283.5 130.5t228 226.5z" />
            <glyph glyph-name="uni0634.init" unicode="&#x634;" horiz-adv-x="486" arabic-form="initial" d="M200 140q8 0 9.5 9t1.5 34q-1 71 -8 108t-7 43q0 7 12 12q11 5 27 7.5t29 2.5q4 -25 7 -65t3 -122q0 -19 2 -24t8 -5h42q11 0 14 8t3 35q0 71 -7.5 108t-7.5 43q0 7 12 12q11 5 27 7.5t29 2.5q3 -16 5 -36.5t4 -52.5t2 -85q1 -78 -8.5 -130t-33.5 -52h-385v140h87
q7 0 9.5 9t2.5 34q-1 71 -8 108t-7 43q0 7 12 12q11 5 27 7.5t29 2.5q4 -25 7 -67t3 -107q0 -27 3 -34.5t15 -7.5h40zM109 550q32 6 70 6h15.5t15.5 -1q6 -16 8.5 -40t2.5 -45q0 -27 -4.5 -48t-14.5 -23q-16 -4 -34 -5t-37 -1q-8 0 -16.5 0.5t-16.5 1.5q-6 16 -9 38.5
t-3 44.5q0 28 5.5 49.5t17.5 22.5zM268 560q32 6 69 6h15.5t15.5 -1q6 -16 8.5 -40t2.5 -45q0 -27 -4.5 -48t-14.5 -23q-16 -4 -34 -5t-37 -1q-8 0 -16.5 0.5t-16.5 1.5q-6 16 -9 38.5t-3 44.5q0 28 5.5 49.5t18.5 22.5zM165 751q10 5 38 7t56 2h26t22 -2q6 -18 9 -43.5
t3 -49.5q0 -61 -21 -75q-7 -5 -35.5 -7.5t-59.5 -2.5q-14 0 -27 0.5t-24 1.5q-6 18 -9 42.5t-3 48.5q0 31 6.5 52t18.5 26z" />
            <glyph glyph-name="uni0634.medi" unicode="&#x634;" horiz-adv-x="472" arabic-form="medial" d="M492 140v-140h-512v140h87q7 0 9.5 9t2.5 34q-1 71 -8 108t-7 43q0 7 12 12q11 5 27 7.5t29 2.5q4 -25 7 -67t3 -107q0 -27 3 -34.5t15 -7.5h40q8 0 9.5 9t1.5 34q-1 71 -8 108t-7 43q0 7 12 12q11 5 27 7.5t29 2.5q4 -25 7 -65t3 -122q0 -19 2 -24t8 -5h42q11 0 14 8
t3 35q0 71 -7.5 108t-7.5 43q0 7 12 12q11 5 27 7.5t29 2.5q3 -16 4.5 -37t3 -57.5t3.5 -99.5q1 -16 5 -19t13 -3h67zM111 542q32 6 70 6h15.5t15.5 -1q6 -16 8.5 -40t2.5 -45q0 -27 -4.5 -48t-14.5 -23q-16 -4 -34 -5t-37 -1q-8 0 -16.5 0.5t-16.5 1.5q-6 16 -9 38.5
t-3 44.5q0 28 5.5 49.5t17.5 22.5zM270 552q32 6 69 6h15.5t15.5 -1q6 -16 8.5 -40t2.5 -45q0 -27 -4.5 -48t-14.5 -23q-16 -4 -34 -5t-37 -1q-8 0 -16.5 0.5t-16.5 1.5q-6 16 -9 38.5t-3 44.5q0 28 5.5 49.5t18.5 22.5zM167 743q10 5 38 7t56 2h26t22 -2q6 -18 9 -43.5
t3 -49.5q0 -61 -21 -75q-7 -5 -35.5 -7.5t-59.5 -2.5q-14 0 -27 0.5t-24 1.5q-6 18 -9 42.5t-3 48.5q0 31 6.5 52t18.5 26z" />
            <glyph glyph-name="uni0634.fina" unicode="&#x634;" horiz-adv-x="475" arabic-form="final" d="M69 46q8 42 9.5 71.5t1.5 59.5q0 37 -3.5 76.5t-9.5 80.5v1v1q0 4 12 10q11 5 27 7.5t29 2.5q4 -25 7 -70t3 -117q0 -19 3 -24t15 -5h40q8 0 9.5 9t1.5 34q-1 71 -8 108t-7 43q0 7 12 12q11 5 27 7.5t29 2.5q3 -16 5 -40t3.5 -62t1.5 -98q0 -11 2 -13.5t8 -2.5h42
q11 0 14 8t3 35q0 71 -7.5 108t-7.5 43q0 7 12 12q11 5 27 7.5t29 2.5q3 -17 6 -37.5t5.5 -55t2.5 -92.5q0 -21 6.5 -26t19.5 -5h56v-140h-323q-90 -126 -195.5 -216t-219 -147.5t-227.5 -85t-220 -27.5q-49 0 -110.5 2.5t-123.5 10.5t-111 25q-18 7 -37.5 34t-32 61.5
t-9.5 62.5q178 -57 348 -64.5t323.5 33.5t283.5 130.5t228 226.5zM117 553q32 6 70 6h15.5t15.5 -1q6 -16 8.5 -40t2.5 -45q0 -27 -4.5 -48t-14.5 -23q-16 -4 -34 -5t-37 -1q-8 0 -16.5 0.5t-16.5 1.5q-6 16 -9 38.5t-3 44.5q0 28 5.5 49.5t17.5 22.5zM276 563q32 6 69 6
h15.5t15.5 -1q6 -16 8.5 -40t2.5 -45q0 -27 -4.5 -48t-14.5 -23q-16 -4 -34 -5t-37 -1q-8 0 -16.5 0.5t-16.5 1.5q-6 16 -9 38.5t-3 44.5q0 28 5.5 49.5t18.5 22.5zM173 754q10 5 38 7t56 2h26t22 -2q6 -18 9 -43.5t3 -49.5q0 -61 -21 -75q-7 -5 -35.5 -7.5t-59.5 -2.5
q-14 0 -27 0.5t-24 1.5q-6 18 -9 42.5t-3 48.5q0 31 6.5 52t18.5 26z" />
            <glyph glyph-name="uni0635.init" unicode="&#x635;" horiz-adv-x="747" arabic-form="initial" d="M80 240q0 67 6.5 98t22.5 41.5t42 12.5q38 3 99.5 4.5t127.5 1.5q71 0 136 -1.5t104 -4.5q25 -2 37.5 -19.5t17 -61t4.5 -125.5q0 -45 -3.5 -88t-15 -70.5t-34.5 -27.5h-644v140h83q9 0 12.5 5t4 26t0.5 69zM143 223q0 -41 4 -58.5t14.5 -21t28.5 -3.5h405q11 0 16 3.5
t5 19.5q0 47 -9.5 67.5t-41.5 22.5q-26 2 -66.5 3t-86.5 1.5t-90 0.5q-53 0 -95 -1t-59 -3q-15 -2 -20 -9t-5 -22z" />
            <glyph glyph-name="uni0635.medi" unicode="&#x635;" horiz-adv-x="736" arabic-form="medial" d="M128 223q0 -41 4 -58.5t14.5 -21t28.5 -3.5h405q11 0 16 3.5t5 19.5q0 47 -9.5 67.5t-41.5 22.5q-26 2 -66.5 3t-86.5 1.5t-90 0.5q-53 0 -95 -1t-59 -3q-15 -2 -20 -9t-5 -22zM51 140q11 0 14 7t3 41v14.5v16.5q-1 76 5 112t22 47.5t44 13.5q38 3 99.5 4.5t127.5 1.5
q71 0 136 -1.5t104 -4.5q25 -2 37.5 -18.5t17 -59.5t4.5 -125q0 -35 3.5 -42t16.5 -7h71v-140h-776v140h71z" />
            <glyph glyph-name="uni0635.fina" unicode="&#x635;" horiz-adv-x="751" arabic-form="final" d="M133 233q0 -41 4 -58.5t14.5 -21t28.5 -3.5h405q11 0 16 3.5t5 19.5q0 47 -9.5 67.5t-41.5 22.5q-26 2 -66.5 3t-86.5 1.5t-90 0.5q-53 0 -95 -1t-59 -3q-15 -2 -20 -9t-5 -22zM70 78v63v109q0 67 6.5 98t22.5 41.5t42 12.5q38 3 99.5 4.5t127.5 1.5q71 0 136 -1.5
t104 -4.5q25 -2 37.5 -21t17 -69t4.5 -147q0 -18 9 -21.5t31 -3.5h64v-140h-601q-90 -138 -199 -230t-226 -146t-233.5 -77.5t-221.5 -23.5q-103 0 -182 10.5t-152 33.5q-18 6 -38.5 32.5t-34.5 61.5t-14 65q103 -35 207.5 -56t207.5 -21q165 0 316 49t272.5 145t197.5 235z
" />
            <glyph glyph-name="uni0636.init" unicode="&#x636;" horiz-adv-x="747" arabic-form="initial" d="M80 240q0 67 6.5 98t22.5 41.5t42 12.5q38 3 99.5 4.5t127.5 1.5q71 0 136 -1.5t104 -4.5q25 -2 37.5 -19.5t17 -61t4.5 -125.5q0 -45 -3.5 -88t-15 -70.5t-34.5 -27.5h-644v140h83q9 0 12.5 5t4 26t0.5 69zM143 223q0 -41 4 -58.5t14.5 -21t28.5 -3.5h405q11 0 16 3.5
t5 19.5q0 47 -9.5 67.5t-41.5 22.5q-26 2 -66.5 3t-86.5 1.5t-90 0.5q-53 0 -95 -1t-59 -3q-15 -2 -20 -9t-5 -22zM309 622q10 5 38 7t56 2h26t22 -2q6 -18 9 -43.5t3 -49.5q0 -61 -21 -75q-7 -5 -35.5 -7.5t-59.5 -2.5q-14 0 -27 0.5t-24 1.5q-6 18 -9 42.5t-3 48.5
q0 31 6.5 52t18.5 26z" />
            <glyph glyph-name="uni0636.medi" unicode="&#x636;" horiz-adv-x="736" arabic-form="medial" d="M128 223q0 -41 4 -58.5t14.5 -21t28.5 -3.5h405q11 0 16 3.5t5 19.5q0 47 -9.5 67.5t-41.5 22.5q-26 2 -66.5 3t-86.5 1.5t-90 0.5q-53 0 -95 -1t-59 -3q-15 -2 -20 -9t-5 -22zM51 140q11 0 14 7t3 41v14.5v16.5q-1 76 5 112t22 47.5t44 13.5q38 3 99.5 4.5t127.5 1.5
q71 0 136 -1.5t104 -4.5q25 -2 37.5 -18.5t17 -59.5t4.5 -125q0 -35 3.5 -42t16.5 -7h71v-140h-776v140h71zM308 622q10 5 38 7t56 2h26t22 -2q6 -18 9 -43.5t3 -49.5q0 -61 -21 -75q-7 -5 -35.5 -7.5t-59.5 -2.5q-14 0 -27 0.5t-24 1.5q-6 18 -9 42.5t-3 48.5q0 31 6.5 52
t18.5 26z" />
            <glyph glyph-name="uni0636.fina" unicode="&#x636;" horiz-adv-x="751" arabic-form="final" d="M133 233q0 -41 4 -58.5t14.5 -21t28.5 -3.5h405q11 0 16 3.5t5 19.5q0 47 -9.5 67.5t-41.5 22.5q-26 2 -66.5 3t-86.5 1.5t-90 0.5q-53 0 -95 -1t-59 -3q-15 -2 -20 -9t-5 -22zM70 78v63v109q0 67 6.5 98t22.5 41.5t42 12.5q38 3 99.5 4.5t127.5 1.5q71 0 136 -1.5
t104 -4.5q25 -2 37.5 -21t17 -69t4.5 -147q0 -18 9 -21.5t31 -3.5h64v-140h-601q-90 -138 -199 -230t-226 -146t-233.5 -77.5t-221.5 -23.5q-103 0 -182 10.5t-152 33.5q-18 6 -38.5 32.5t-34.5 61.5t-14 65q103 -35 207.5 -56t207.5 -21q165 0 316 49t272.5 145t197.5 235z
M306 632q10 5 38 7t56 2h26t22 -2q6 -18 9 -43.5t3 -49.5q0 -61 -21 -75q-7 -5 -35.5 -7.5t-59.5 -2.5q-14 0 -27 0.5t-24 1.5q-6 18 -9 42.5t-3 48.5q0 31 6.5 52t18.5 26z" />
            <glyph glyph-name="uni0637.init" unicode="&#x637;" horiz-adv-x="747" arabic-form="initial" d="M580 140q14 0 22.5 3.5t8.5 19.5q0 38 -5.5 54.5t-17.5 21t-33 5.5q-46 3 -103 3.5t-116 0t-113 -2.5q-37 -1 -52.5 -6t-18 -20.5t-1.5 -48.5q1 -21 7 -25.5t27 -4.5h395zM-20 140h80q9 0 14.5 3.5t8 17t2.5 43.5q0 56 -3.5 114.5t-7.5 110t-8.5 89t-7.5 50.5
q-1 7 1.5 10t8.5 6q13 6 35 10t38 2q3 -59 4.5 -113t2.5 -81q1 -15 5 -19t11 -4q135 0 240.5 2t196.5 -1q30 -1 45 -18.5t20.5 -57t5.5 -108.5q0 -50 -3 -95t-14 -73t-36 -28h-639v140z" />
            <glyph glyph-name="uni0637.medi" unicode="&#x637;" horiz-adv-x="789" arabic-form="medial" d="M614 140q14 0 22.5 3.5t8.5 19.5q0 38 -5.5 54.5t-17.5 21t-33 5.5q-46 3 -103 3.5t-116 0t-113 -2.5q-37 -1 -52.5 -6t-18 -20.5t-1.5 -48.5q1 -21 7 -25.5t27 -4.5h395zM-20 140h114q9 0 14.5 3.5t8 17t2.5 43.5q0 56 -3.5 114.5t-7.5 110t-8.5 89t-7.5 50.5
q-1 7 1.5 10t8.5 6q13 6 35 10t38 2q3 -59 4.5 -113t2.5 -81q1 -15 5 -19t11 -4q135 0 240.5 2t196.5 -1q30 -1 45 -18.5t20.5 -57t5.5 -108.5q0 -28 1.5 -39.5t7 -14t17.5 -2.5h77v-140h-829v140z" />
            <glyph glyph-name="uni0637.fina" unicode="&#x637;" horiz-adv-x="798" arabic-form="final" d="M616 140q14 0 22.5 3.5t8.5 19.5q0 38 -5.5 54.5t-17.5 21t-33 5.5q-46 3 -103 3.5t-116 0t-113 -2.5q-37 -1 -52.5 -6t-18 -20.5t-1.5 -48.5q1 -21 7 -25.5t27 -4.5h395zM734 140h84v-140h-747q-16 0 -24.5 22t-12 54.5t-3.5 63.5h65q9 0 14.5 3.5t8 17t2.5 43.5
q0 56 -3.5 114.5t-7.5 110t-8.5 89t-7.5 50.5q-1 7 1.5 10t8.5 6q13 6 35 10t38 2q3 -59 4.5 -109.5t2.5 -77.5q1 -15 5 -19t11 -4q135 0 240.5 2t196.5 -1q30 -1 45 -18.5t20.5 -59t5.5 -113.5q0 -28 1.5 -39.5t7 -14t17.5 -2.5z" />
            <glyph glyph-name="uni069F.init" unicode="&#x69f;" horiz-adv-x="747" d="M580 140q14 0 22.5 3.5t8.5 19.5q0 38 -5.5 54.5t-17.5 21t-33 5.5q-46 3 -103 3.5t-116 0t-113 -2.5q-37 -1 -52.5 -6t-18 -20.5t-1.5 -48.5q1 -21 7 -25.5t27 -4.5h395zM-20 140h80q9 0 14.5 3.5t8 17t2.5 43.5q0 56 -3.5 114.5t-7.5 110t-8.5 89t-7.5 50.5
q-1 7 1.5 10t8.5 6q13 6 35 10t38 2q3 -59 4.5 -113t2.5 -81q1 -15 5 -19t11 -4q135 0 240.5 2t196.5 -1q30 -1 45 -18.5t20.5 -57t5.5 -108.5q0 -50 -3 -95t-14 -73t-36 -28h-639v140zM261 586q32 6 70 6h15.5t15.5 -1q6 -16 8.5 -40t2.5 -45q0 -27 -4.5 -48t-14.5 -23
q-16 -4 -34 -5t-37 -1q-8 0 -16.5 0.5t-16.5 1.5q-6 16 -9 38.5t-3 44.5q0 28 5.5 49.5t17.5 22.5zM420 596q32 6 69 6h15.5t15.5 -1q6 -16 8.5 -40t2.5 -45q0 -27 -4.5 -48t-14.5 -23q-16 -4 -34 -5t-37 -1q-8 0 -16.5 0.5t-16.5 1.5q-6 16 -9 38.5t-3 44.5q0 28 5.5 49.5
t18.5 22.5zM317 787q10 5 38 7t56 2h26t22 -2q6 -18 9 -43.5t3 -49.5q0 -61 -21 -75q-7 -5 -35.5 -7.5t-59.5 -2.5q-14 0 -27 0.5t-24 1.5q-6 18 -9 42.5t-3 48.5q0 31 6.5 52t18.5 26z" />
            <glyph glyph-name="uni069F.medi" unicode="&#x69f;" horiz-adv-x="789" d="M614 140q14 0 22.5 3.5t8.5 19.5q0 38 -5.5 54.5t-17.5 21t-33 5.5q-46 3 -103 3.5t-116 0t-113 -2.5q-37 -1 -52.5 -6t-18 -20.5t-1.5 -48.5q1 -21 7 -25.5t27 -4.5h395zM-20 140h114q9 0 14.5 3.5t8 17t2.5 43.5q0 56 -3.5 114.5t-7.5 110t-8.5 89t-7.5 50.5
q-1 7 1.5 10t8.5 6q13 6 35 10t38 2q3 -59 4.5 -113t2.5 -81q1 -15 5 -19t11 -4q135 0 240.5 2t196.5 -1q30 -1 45 -18.5t20.5 -57t5.5 -108.5q0 -28 1.5 -39.5t7 -14t17.5 -2.5h77v-140h-829v140zM305 586q32 6 70 6h15.5t15.5 -1q6 -16 8.5 -40t2.5 -45q0 -27 -4.5 -48
t-14.5 -23q-16 -4 -34 -5t-37 -1q-8 0 -16.5 0.5t-16.5 1.5q-6 16 -9 38.5t-3 44.5q0 28 5.5 49.5t17.5 22.5zM464 596q32 6 69 6h15.5t15.5 -1q6 -16 8.5 -40t2.5 -45q0 -27 -4.5 -48t-14.5 -23q-16 -4 -34 -5t-37 -1q-8 0 -16.5 0.5t-16.5 1.5q-6 16 -9 38.5t-3 44.5
q0 28 5.5 49.5t18.5 22.5zM361 787q10 5 38 7t56 2h26t22 -2q6 -18 9 -43.5t3 -49.5q0 -61 -21 -75q-7 -5 -35.5 -7.5t-59.5 -2.5q-14 0 -27 0.5t-24 1.5q-6 18 -9 42.5t-3 48.5q0 31 6.5 52t18.5 26z" />
            <glyph glyph-name="uni069F.fina" unicode="&#x69f;" horiz-adv-x="798" d="M616 140q14 0 22.5 3.5t8.5 19.5q0 38 -5.5 54.5t-17.5 21t-33 5.5q-46 3 -103 3.5t-116 0t-113 -2.5q-37 -1 -52.5 -6t-18 -20.5t-1.5 -48.5q1 -21 7 -25.5t27 -4.5h395zM734 140h84v-140h-747q-16 0 -24.5 22t-12 54.5t-3.5 63.5h65q9 0 14.5 3.5t8 17t2.5 43.5
q0 56 -3.5 114.5t-7.5 110t-8.5 89t-7.5 50.5q-1 7 1.5 10t8.5 6q13 6 35 10t38 2q3 -59 4.5 -109.5t2.5 -77.5q1 -15 5 -19t11 -4q135 0 240.5 2t196.5 -1q30 -1 45 -18.5t20.5 -59t5.5 -113.5q0 -28 1.5 -39.5t7 -14t17.5 -2.5zM303 596q32 6 70 6h15.5t15.5 -1
q6 -16 8.5 -40t2.5 -45q0 -27 -4.5 -48t-14.5 -23q-16 -4 -34 -5t-37 -1q-8 0 -16.5 0.5t-16.5 1.5q-6 16 -9 38.5t-3 44.5q0 28 5.5 49.5t17.5 22.5zM462 606q32 6 69 6h15.5t15.5 -1q6 -16 8.5 -40t2.5 -45q0 -27 -4.5 -48t-14.5 -23q-16 -4 -34 -5t-37 -1q-8 0 -16.5 0.5
t-16.5 1.5q-6 16 -9 38.5t-3 44.5q0 28 5.5 49.5t18.5 22.5zM359 797q10 5 38 7t56 2h26t22 -2q6 -18 9 -43.5t3 -49.5q0 -61 -21 -75q-7 -5 -35.5 -7.5t-59.5 -2.5q-14 0 -27 0.5t-24 1.5q-6 18 -9 42.5t-3 48.5q0 31 6.5 52t18.5 26z" />
            <glyph glyph-name="uni0638.init" unicode="&#x638;" horiz-adv-x="747" arabic-form="initial" d="M580 140q14 0 22.5 3.5t8.5 19.5q0 38 -5.5 54.5t-17.5 21t-33 5.5q-46 3 -103 3.5t-116 0t-113 -2.5q-37 -1 -52.5 -6t-18 -20.5t-1.5 -48.5q1 -21 7 -25.5t27 -4.5h395zM-20 140h80q9 0 14.5 3.5t8 17t2.5 43.5q0 56 -3.5 114.5t-7.5 110t-8.5 89t-7.5 50.5
q-1 7 1.5 10t8.5 6q13 6 35 10t38 2q3 -59 4.5 -113t2.5 -81q1 -15 5 -19t11 -4q135 0 240.5 2t196.5 -1q30 -1 45 -18.5t20.5 -57t5.5 -108.5q0 -50 -3 -95t-14 -73t-36 -28h-639v140zM322 618q10 5 38 7t56 2h26t22 -2q6 -18 9 -43.5t3 -49.5q0 -61 -21 -75
q-7 -5 -35.5 -7.5t-59.5 -2.5q-14 0 -27 0.5t-24 1.5q-6 18 -9 42.5t-3 48.5q0 31 6.5 52t18.5 26z" />
            <glyph glyph-name="uni0638.medi" unicode="&#x638;" horiz-adv-x="789" arabic-form="medial" d="M614 140q14 0 22.5 3.5t8.5 19.5q0 38 -5.5 54.5t-17.5 21t-33 5.5q-46 3 -103 3.5t-116 0t-113 -2.5q-37 -1 -52.5 -6t-18 -20.5t-1.5 -48.5q1 -21 7 -25.5t27 -4.5h395zM-20 140h114q9 0 14.5 3.5t8 17t2.5 43.5q0 56 -3.5 114.5t-7.5 110t-8.5 89t-7.5 50.5
q-1 7 1.5 10t8.5 6q13 6 35 10t38 2q3 -59 4.5 -113t2.5 -81q1 -15 5 -19t11 -4q135 0 240.5 2t196.5 -1q30 -1 45 -18.5t20.5 -57t5.5 -108.5q0 -28 1.5 -39.5t7 -14t17.5 -2.5h77v-140h-829v140zM366 618q10 5 38 7t56 2h26t22 -2q6 -18 9 -43.5t3 -49.5q0 -61 -21 -75
q-7 -5 -35.5 -7.5t-59.5 -2.5q-14 0 -27 0.5t-24 1.5q-6 18 -9 42.5t-3 48.5q0 31 6.5 52t18.5 26z" />
            <glyph glyph-name="uni0638.fina" unicode="&#x638;" horiz-adv-x="798" arabic-form="final" d="M616 140q14 0 22.5 3.5t8.5 19.5q0 38 -5.5 54.5t-17.5 21t-33 5.5q-46 3 -103 3.5t-116 0t-113 -2.5q-37 -1 -52.5 -6t-18 -20.5t-1.5 -48.5q1 -21 7 -25.5t27 -4.5h395zM734 140h84v-140h-747q-16 0 -24.5 22t-12 54.5t-3.5 63.5h65q9 0 14.5 3.5t8 17t2.5 43.5
q0 56 -3.5 114.5t-7.5 110t-8.5 89t-7.5 50.5q-1 7 1.5 10t8.5 6q13 6 35 10t38 2q3 -59 4.5 -109.5t2.5 -77.5q1 -15 5 -19t11 -4q135 0 240.5 2t196.5 -1q30 -1 45 -18.5t20.5 -59t5.5 -113.5q0 -28 1.5 -39.5t7 -14t17.5 -2.5zM364 628q10 5 38 7t56 2h26t22 -2
q6 -18 9 -43.5t3 -49.5q0 -61 -21 -75q-7 -5 -35.5 -7.5t-59.5 -2.5q-14 0 -27 0.5t-24 1.5q-6 18 -9 42.5t-3 48.5q0 31 6.5 52t18.5 26z" />
            <glyph glyph-name="uni0639.init" unicode="&#x639;" horiz-adv-x="483" arabic-form="initial" d="M-20 140h428q16 0 24.5 -3.5t12.5 -15.5q5 -16 8 -40t3 -46q0 -10 -0.5 -19t-1.5 -16h-54.5h-86h-100.5h-99.5h-83h-50.5v140zM416 221q-69 4 -114.5 7.5t-67 -2t-21.5 -28.5q1 -22 8.5 -40t35.5 -18l-54 -37l-43 10l-36 27q20 0 26.5 7.5t1.5 23.5q-11 38 -17.5 60
t-9 39t-2.5 39q0 32 26 42.5t66 12.5q44 2 92 1t90 -6q8 -1 12.5 -17t7 -39t2.5 -44q0 -26 -3 -38z" />
            <glyph glyph-name="uni0639.medi" unicode="&#x639;" horiz-adv-x="572" arabic-form="medial" d="M311 97l-53 3l-45 40q28 0 32.5 4t4.5 23q0 11 -2.5 21.5t-9.5 18.5q-9 10 -31.5 12.5t-53 2t-63.5 1.5q-6 0 -8 2.5t-4 7.5q-14 28 -25.5 63.5t-11.5 75.5q40 36 82.5 81.5t82.5 93.5t71 90q18 0 37 -13.5t34.5 -30.5t19.5 -30q31 -49 53.5 -82t44.5 -63t51 -70
q1 -31 -10.5 -62t-24.5 -55q-6 -10 -9.5 -13.5t-11.5 -3.5q-11 0 -37 -1t-51.5 -2.5t-36.5 -5.5q-8 -3 -12.5 -9t-3.5 -25q1 -21 5 -26t21 -5zM-20 0v140h612v-140h-612zM313 241l-68 -13q0 39 15.5 63t41.5 37t57.5 18t61.5 5q5 0 5.5 2.5t-6.5 11.5q-21 27 -44 58t-43 54
q-2 3 -5.5 3t-5.5 -2q-17 -17 -45 -48.5t-56 -56.5q-6 -6 2 -7q88 -10 90 -125z" />
            <glyph glyph-name="uni0639.fina" unicode="&#x639;" horiz-adv-x="536" arabic-form="final" d="M275 239l-80 -11q0 16 2 31.5t15.5 31t47.5 32.5t97 35q5 2 6.5 2.5t-1.5 3.5q-7 9 -22.5 26.5t-32.5 37.5t-31 35q-2 3 -5.5 3t-5.5 -2l-41.5 -41.5t-52.5 -49.5q-6 -6 2 -7q53 -9 76 -40t26 -87zM127 244q0 2 -18 0.5t-39 -3.5t-30 -2q-10 0 -14 8q-11 25 -19 62t-6 68
q40 35 79 78.5t75.5 89t65.5 85.5q5 5 12 5q17 0 43.5 -20.5t41.5 -51.5q36 -58 73 -109.5t80 -96.5q0 -33 -10 -64.5t-21.5 -51.5t-15.5 -21q-40 -6 -78.5 -14t-61.5 -16q-8 -3 -9.5 -4.5t-1.5 -6.5q0 -18 3.5 -28.5t14.5 -10.5h265v-140h-315q-11 0 -20.5 30t-9.5 75v18.5
v31.5q0 6 -4 3q-61 -35 -98 -90.5t-55 -145t-25 -227.5q-1 -11 -11 -16t-22 -5q-2 117 2.5 201.5t16.5 146.5t33.5 107.5t53.5 84.5q11 13 18 21t7 9z" />
            <glyph glyph-name="uni06A0.init" unicode="&#x6a0;" horiz-adv-x="483" d="M-20 140h428q16 0 24.5 -3.5t12.5 -15.5q5 -16 8 -40t3 -46q0 -10 -0.5 -19t-1.5 -16h-54.5h-86h-100.5h-99.5h-83h-50.5v140zM416 221q-69 4 -114.5 7.5t-67 -2t-21.5 -28.5q1 -22 8.5 -40t35.5 -18l-54 -37l-43 10l-36 27q20 0 26.5 7.5t1.5 23.5q-11 38 -17.5 60
t-9 39t-2.5 39q0 32 26 42.5t66 12.5q44 2 92 1t90 -6q8 -1 12.5 -17t7 -39t2.5 -44q0 -26 -3 -38zM145 560q32 6 70 6h15.5t15.5 -1q6 -16 8.5 -40t2.5 -45q0 -27 -4.5 -48t-14.5 -23q-16 -4 -34 -5t-37 -1q-8 0 -16.5 0.5t-16.5 1.5q-6 16 -9 38.5t-3 44.5q0 28 5.5 49.5
t17.5 22.5zM304 570q32 6 69 6h15.5t15.5 -1q6 -16 8.5 -40t2.5 -45q0 -27 -4.5 -48t-14.5 -23q-16 -4 -34 -5t-37 -1q-8 0 -16.5 0.5t-16.5 1.5q-6 16 -9 38.5t-3 44.5q0 28 5.5 49.5t18.5 22.5zM201 761q10 5 38 7t56 2h26t22 -2q6 -18 9 -43.5t3 -49.5q0 -61 -21 -75
q-7 -5 -35.5 -7.5t-59.5 -2.5q-14 0 -27 0.5t-24 1.5q-6 18 -9 42.5t-3 48.5q0 31 6.5 52t18.5 26z" />
            <glyph glyph-name="uni06A0.medi" unicode="&#x6a0;" horiz-adv-x="572" d="M311 97l-53 3l-45 40q28 0 32.5 4t4.5 23q0 11 -2.5 21.5t-9.5 18.5q-9 10 -31.5 12.5t-53 2t-63.5 1.5q-6 0 -8 2.5t-4 7.5q-14 28 -25.5 63.5t-11.5 75.5q40 36 82.5 81.5t82.5 93.5t71 90q18 0 37 -13.5t34.5 -30.5t19.5 -30q31 -49 53.5 -82t44.5 -63t51 -70
q1 -31 -10.5 -62t-24.5 -55q-6 -10 -9.5 -13.5t-11.5 -3.5q-11 0 -37 -1t-51.5 -2.5t-36.5 -5.5q-8 -3 -12.5 -9t-3.5 -25q1 -21 5 -26t21 -5zM-20 0v140h612v-140h-612zM313 241l-68 -13q0 39 15.5 63t41.5 37t57.5 18t61.5 5q5 0 5.5 2.5t-6.5 11.5q-21 27 -44 58t-43 54
q-2 3 -5.5 3t-5.5 -2q-17 -17 -45 -48.5t-56 -56.5q-6 -6 2 -7q88 -10 90 -125zM193.081 795.692q26.4316 4.95605 57.8193 4.95605h12.8027q6.19531 0 12.8027 -0.826172q4.95605 -13.2158 7.02148 -33.0391q2.06445 -19.8242 2.06445 -37.1699
q0 -22.3018 -3.7168 -39.6475t-11.9766 -18.9971q-13.2158 -3.30469 -28.084 -4.12988q-14.8672 -0.826172 -30.5615 -0.826172q-6.60742 0 -13.6289 0.413086q-7.02051 0.413086 -13.6289 1.23828q-4.95605 13.2158 -7.43359 31.8008t-2.47754 36.7568
q0 23.1279 4.54297 40.8867t14.4541 18.584zM324.414 803.952q26.4316 4.95605 56.9932 4.95605h12.8027q6.19434 0 12.8027 -0.826172q4.95605 -13.2148 7.02051 -33.0391q2.06543 -19.8242 2.06543 -37.1699q0 -22.3008 -3.7168 -39.6475
q-3.71777 -17.3457 -11.9775 -18.9971q-13.2158 -3.30469 -28.083 -4.12988q-14.8682 -0.826172 -30.5615 -0.826172q-6.6084 0 -13.6289 0.413086q-7.02148 0.413086 -13.6289 1.23828q-4.95605 13.2168 -7.43457 31.8008q-2.47754 18.585 -2.47754 36.7568
q0 23.1279 4.54297 40.8867t15.2812 18.584zM239.337 961.717q8.25977 4.12988 31.3877 5.78125q23.127 1.65234 46.2549 1.65234h21.4756q9.91211 0 18.1719 -1.65234q4.95605 -14.8672 7.43359 -35.9307q2.47852 -21.0625 2.47852 -40.8857q0 -50.3857 -17.3457 -61.9492
q-5.78223 -4.12988 -29.3223 -6.19531q-23.541 -2.06445 -49.1465 -2.06445q-11.5645 0 -22.3018 0.413086q-10.7383 0.413086 -19.8242 1.23828q-4.95605 14.8682 -7.43359 35.1045q-2.47754 20.2373 -2.47754 40.0605q0 25.6055 5.36816 42.9512
q5.36914 17.3467 15.2812 21.4766z" />
            <glyph glyph-name="uni06A0.fina" unicode="&#x6a0;" horiz-adv-x="536" d="M275 239l-80 -11q0 16 2 31.5t15.5 31t47.5 32.5t97 35q5 2 6.5 2.5t-1.5 3.5q-7 9 -22.5 26.5t-32.5 37.5t-31 35q-2 3 -5.5 3t-5.5 -2l-41.5 -41.5t-52.5 -49.5q-6 -6 2 -7q53 -9 76 -40t26 -87zM127 244q0 2 -18 0.5t-39 -3.5t-30 -2q-10 0 -14 8q-11 25 -19 62t-6 68
q40 35 79 78.5t75.5 89t65.5 85.5q5 5 12 5q17 0 43.5 -20.5t41.5 -51.5q36 -58 73 -109.5t80 -96.5q0 -33 -10 -64.5t-21.5 -51.5t-15.5 -21q-40 -6 -78.5 -14t-61.5 -16q-8 -3 -9.5 -4.5t-1.5 -6.5q0 -18 3.5 -28.5t14.5 -10.5h265v-140h-315q-11 0 -20.5 30t-9.5 75v18.5
v31.5q0 6 -4 3q-61 -35 -98 -90.5t-55 -145t-25 -227.5q-1 -11 -11 -16t-22 -5q-2 117 2.5 201.5t16.5 146.5t33.5 107.5t53.5 84.5q11 13 18 21t7 9zM133.081 780.692q26.4316 4.95605 57.8193 4.95605h12.8027q6.19531 0 12.8027 -0.826172
q4.95605 -13.2158 7.02148 -33.0391q2.06445 -19.8242 2.06445 -37.1699q0 -22.3018 -3.7168 -39.6475t-11.9766 -18.9971q-13.2158 -3.30469 -28.084 -4.12988q-14.8672 -0.826172 -30.5615 -0.826172q-6.60742 0 -13.6289 0.413086q-7.02051 0.413086 -13.6289 1.23828
q-4.95605 13.2158 -7.43359 31.8008t-2.47754 36.7568q0 23.1279 4.54297 40.8867t14.4541 18.584zM264.414 788.952q26.4316 4.95605 56.9932 4.95605h12.8027q6.19434 0 12.8027 -0.826172q4.95605 -13.2148 7.02051 -33.0391q2.06543 -19.8242 2.06543 -37.1699
q0 -22.3008 -3.7168 -39.6475q-3.71777 -17.3457 -11.9775 -18.9971q-13.2158 -3.30469 -28.083 -4.12988q-14.8682 -0.826172 -30.5615 -0.826172q-6.6084 0 -13.6289 0.413086q-7.02148 0.413086 -13.6289 1.23828q-4.95605 13.2168 -7.43457 31.8008
q-2.47754 18.585 -2.47754 36.7568q0 23.1279 4.54297 40.8867t15.2812 18.584zM179.337 946.717q8.25977 4.12988 31.3877 5.78125q23.127 1.65234 46.2549 1.65234h21.4756q9.91211 0 18.1719 -1.65234q4.95605 -14.8672 7.43359 -35.9307
q2.47852 -21.0625 2.47852 -40.8857q0 -50.3857 -17.3457 -61.9492q-5.78223 -4.12988 -29.3223 -6.19531q-23.541 -2.06445 -49.1465 -2.06445q-11.5645 0 -22.3018 0.413086q-10.7383 0.413086 -19.8242 1.23828q-4.95605 14.8682 -7.43359 35.1045
q-2.47754 20.2373 -2.47754 40.0605q0 25.6055 5.36816 42.9512q5.36914 17.3467 15.2812 21.4766z" />
            <glyph glyph-name="uni063A.init" unicode="&#x63a;" horiz-adv-x="483" arabic-form="initial" d="M-20 140h428q16 0 24.5 -3.5t12.5 -15.5q5 -16 8 -40t3 -46q0 -10 -0.5 -19t-1.5 -16h-54.5h-86h-100.5h-99.5h-83h-50.5v140zM416 221q-69 4 -114.5 7.5t-67 -2t-21.5 -28.5q1 -22 8.5 -40t35.5 -18l-54 -37l-43 10l-36 27q20 0 26.5 7.5t1.5 23.5q-11 38 -17.5 60
t-9 39t-2.5 39q0 32 26 42.5t66 12.5q44 2 92 1t90 -6q8 -1 12.5 -17t7 -39t2.5 -44q0 -26 -3 -38zM206 574q10 5 38 7t56 2h26t22 -2q6 -18 9 -43.5t3 -49.5q0 -61 -21 -75q-7 -5 -35.5 -7.5t-59.5 -2.5q-14 0 -27 0.5t-24 1.5q-6 18 -9 42.5t-3 48.5q0 31 6.5 52t18.5 26z
" />
            <glyph glyph-name="uni063A.medi" unicode="&#x63a;" horiz-adv-x="572" arabic-form="medial" d="M311 97l-53 3l-45 40q28 0 32.5 4t4.5 23q0 11 -2.5 21.5t-9.5 18.5q-9 10 -31.5 12.5t-53 2t-63.5 1.5q-6 0 -8 2.5t-4 7.5q-14 28 -25.5 63.5t-11.5 75.5q40 36 82.5 81.5t82.5 93.5t71 90q18 0 37 -13.5t34.5 -30.5t19.5 -30q31 -49 53.5 -82t44.5 -63t51 -70
q1 -31 -10.5 -62t-24.5 -55q-6 -10 -9.5 -13.5t-11.5 -3.5q-11 0 -37 -1t-51.5 -2.5t-36.5 -5.5q-8 -3 -12.5 -9t-3.5 -25q1 -21 5 -26t21 -5zM-20 0v140h612v-140h-612zM313 241l-68 -13q0 39 15.5 63t41.5 37t57.5 18t61.5 5q5 0 5.5 2.5t-6.5 11.5q-21 27 -44 58t-43 54
q-2 3 -5.5 3t-5.5 -2q-17 -17 -45 -48.5t-56 -56.5q-6 -6 2 -7q88 -10 90 -125zM222 837q10 5 38 7t56 2h26t22 -2q6 -18 9 -43.5t3 -49.5q0 -61 -21 -75q-7 -5 -35.5 -7.5t-59.5 -2.5q-14 0 -27 0.5t-24 1.5q-6 18 -9 42.5t-3 48.5q0 31 6.5 52t18.5 26z" />
            <glyph glyph-name="uni063A.fina" unicode="&#x63a;" horiz-adv-x="536" arabic-form="final" d="M275 239l-80 -11q0 16 2 31.5t15.5 31t47.5 32.5t97 35q5 2 6.5 2.5t-1.5 3.5q-7 9 -22.5 26.5t-32.5 37.5t-31 35q-2 3 -5.5 3t-5.5 -2l-41.5 -41.5t-52.5 -49.5q-6 -6 2 -7q53 -9 76 -40t26 -87zM127 244q0 2 -18 0.5t-39 -3.5t-30 -2q-10 0 -14 8q-11 25 -19 62t-6 68
q40 35 79 78.5t75.5 89t65.5 85.5q5 5 12 5q17 0 43.5 -20.5t41.5 -51.5q36 -58 73 -109.5t80 -96.5q0 -33 -10 -64.5t-21.5 -51.5t-15.5 -21q-40 -6 -78.5 -14t-61.5 -16q-8 -3 -9.5 -4.5t-1.5 -6.5q0 -18 3.5 -28.5t14.5 -10.5h265v-140h-315q-11 0 -20.5 30t-9.5 75v18.5
v31.5q0 6 -4 3q-61 -35 -98 -90.5t-55 -145t-25 -227.5q-1 -11 -11 -16t-22 -5q-2 117 2.5 201.5t16.5 146.5t33.5 107.5t53.5 84.5q11 13 18 21t7 9zM174 842q10 5 38 7t56 2h26t22 -2q6 -18 9 -43.5t3 -49.5q0 -61 -21 -75q-7 -5 -35.5 -7.5t-59.5 -2.5q-14 0 -27 0.5
t-24 1.5q-6 18 -9 42.5t-3 48.5q0 31 6.5 52t18.5 26z" />
            <glyph glyph-name="uni0641.init" unicode="&#x641;" horiz-adv-x="520" arabic-form="initial" d="M236 344q11 -1 30 -1h35q22 0 37.5 0.5t32.5 1.5q11 1 15 3t4 12q0 12 -3 35t-6.5 42t-8.5 19t-28.5 -16.5t-53.5 -41t-57 -49.5q-6 -5 3 -5zM379 200q-37 2 -61.5 2.5t-44 1t-42.5 0.5q-32 0 -59.5 -0.5t-70.5 -2.5q-8 17 -15.5 46.5t-12 60.5t-4.5 52q0 15 7 21
q28 28 68 64.5t83 74t80.5 69t62.5 51t29 19.5q9 0 20 -6t20 -13.5t9 -12.5q5 -70 8.5 -146t3.5 -149q0 -90 -6 -165.5t-19.5 -121t-36.5 -45.5h-418v140h397q5 0 9.5 7.5t4.5 45.5q0 7 -12 7zM100 780q10 5 38 7t56 2h26t22 -2q6 -18 9 -43.5t3 -49.5q0 -61 -21 -75
q-7 -5 -35.5 -7.5t-59.5 -2.5q-14 0 -27 0.5t-24 1.5q-6 18 -9 42.5t-3 48.5q0 31 6.5 52t18.5 26z" />
            <glyph glyph-name="uni0641.medi" unicode="&#x641;" horiz-adv-x="538" arabic-form="medial" d="M240 344q11 -1 30 -1h35q22 0 37.5 0.5t32.5 1.5q11 1 15 3t4 12q0 12 -3 35t-6.5 42t-8.5 19t-28.5 -16.5t-53.5 -41t-57 -49.5q-6 -5 3 -5zM477 140h58.5h22.5v-140h-578v140h401q5 0 9.5 7.5t4.5 45.5q0 7 -12 7q-37 2 -61.5 2.5t-44 1t-42.5 0.5q-32 0 -59.5 -0.5
t-70.5 -2.5q-8 17 -15.5 46.5t-12 60.5t-4.5 52q0 15 7 21q28 28 69 64.5t84.5 74t82.5 69t64.5 51t29.5 19.5t13.5 -6t19 -13.5t9.5 -12.5q5 -70 8.5 -149t3.5 -152v-108t1 -54.5t4 -20t8 -3.5zM110 780q10 5 38 7t56 2h26t22 -2q6 -18 9 -43.5t3 -49.5q0 -61 -21 -75
q-7 -5 -35.5 -7.5t-59.5 -2.5q-14 0 -27 0.5t-24 1.5q-6 18 -9 42.5t-3 48.5q0 31 6.5 52t18.5 26z" />
            <glyph glyph-name="uni0641.fina" unicode="&#x641;" horiz-adv-x="558" arabic-form="final" d="M264 344q11 -1 30 -1h35q22 0 37.5 0.5t32.5 1.5q11 1 15 3t4 12q0 12 -3 35t-6.5 42t-8.5 19t-28.5 -16.5t-53.5 -41t-57 -49.5q-6 -5 3 -5zM488 326q0 -69 0.5 -107t2 -55t4.5 -20.5t8 -3.5h55.5h19.5v-140h-460q-16 0 -24.5 22t-12 54.5t-3.5 63.5h327q5 0 9.5 7.5
t4.5 45.5q0 7 -12 7q-37 2 -61.5 2.5t-44 1t-42.5 0.5q-32 0 -59.5 -0.5t-70.5 -2.5q-8 17 -15.5 46.5t-12 60.5t-4.5 52q0 15 7 21q28 28 69 64.5t84.5 74t82.5 69t64.5 51t29.5 19.5t13.5 -6t19 -13.5t9.5 -12.5q5 -70 8.5 -149t3.5 -152zM120 720q10 5 38 7t56 2h26
t22 -2q6 -18 9 -43.5t3 -49.5q0 -61 -21 -75q-7 -5 -35.5 -7.5t-59.5 -2.5q-14 0 -27 0.5t-24 1.5q-6 18 -9 42.5t-3 48.5q0 31 6.5 52t18.5 26z" />
            <glyph glyph-name="uni06A4.init" unicode="&#x6a4;" horiz-adv-x="520" arabic-form="initial" d="M236 344q11 -1 30 -1h35q22 0 37.5 0.5t32.5 1.5q11 1 15 3t4 12q0 12 -3 35t-6.5 42t-8.5 19t-28.5 -16.5t-53.5 -41t-57 -49.5q-6 -5 3 -5zM379 200q-37 2 -61.5 2.5t-44 1t-42.5 0.5q-32 0 -59.5 -0.5t-70.5 -2.5q-8 17 -15.5 46.5t-12 60.5t-4.5 52q0 15 7 21
q28 28 68 64.5t83 74t80.5 69t62.5 51t29 19.5q9 0 20 -6t20 -13.5t9 -12.5q5 -70 8.5 -146t3.5 -149q0 -90 -6 -165.5t-19.5 -121t-36.5 -45.5h-418v140h397q5 0 9.5 7.5t4.5 45.5q0 7 -12 7zM37.0811 693.692q26.4316 4.95605 57.8193 4.95605h12.8027
q6.19531 0 12.8027 -0.826172q4.95605 -13.2158 7.02148 -33.0391q2.06445 -19.8242 2.06445 -37.1699q0 -22.3018 -3.7168 -39.6475t-11.9766 -18.9971q-13.2158 -3.30469 -28.084 -4.12988q-14.8672 -0.826172 -30.5615 -0.826172q-6.60742 0 -13.6289 0.413086
q-7.02051 0.413086 -13.6289 1.23828q-4.95605 13.2158 -7.43359 31.8008t-2.47754 36.7568q0 23.1279 4.54297 40.8867t14.4541 18.584zM168.414 701.952q26.4316 4.95605 56.9932 4.95605h12.8027q6.19434 0 12.8027 -0.826172q4.95605 -13.2148 7.02051 -33.0391
q2.06543 -19.8242 2.06543 -37.1699q0 -22.3008 -3.7168 -39.6475q-3.71777 -17.3457 -11.9775 -18.9971q-13.2158 -3.30469 -28.083 -4.12988q-14.8682 -0.826172 -30.5615 -0.826172q-6.6084 0 -13.6289 0.413086q-7.02148 0.413086 -13.6289 1.23828
q-4.95605 13.2168 -7.43457 31.8008q-2.47754 18.585 -2.47754 36.7568q0 23.1279 4.54297 40.8867t15.2812 18.584zM83.3369 859.717q8.25977 4.12988 31.3877 5.78125q23.127 1.65234 46.2549 1.65234h21.4756q9.91211 0 18.1719 -1.65234
q4.95605 -14.8672 7.43359 -35.9307q2.47852 -21.0625 2.47852 -40.8857q0 -50.3857 -17.3457 -61.9492q-5.78223 -4.12988 -29.3223 -6.19531q-23.541 -2.06445 -49.1465 -2.06445q-11.5645 0 -22.3018 0.413086q-10.7383 0.413086 -19.8242 1.23828
q-4.95605 14.8682 -7.43359 35.1045q-2.47754 20.2373 -2.47754 40.0605q0 25.6055 5.36816 42.9512q5.36914 17.3467 15.2812 21.4766z" />
            <glyph glyph-name="uni06A4.medi" unicode="&#x6a4;" horiz-adv-x="538" arabic-form="medial" d="M240 344q11 -1 30 -1h35q22 0 37.5 0.5t32.5 1.5q11 1 15 3t4 12q0 12 -3 35t-6.5 42t-8.5 19t-28.5 -16.5t-53.5 -41t-57 -49.5q-6 -5 3 -5zM477 140h58.5h22.5v-140h-578v140h401q5 0 9.5 7.5t4.5 45.5q0 7 -12 7q-37 2 -61.5 2.5t-44 1t-42.5 0.5q-32 0 -59.5 -0.5
t-70.5 -2.5q-8 17 -15.5 46.5t-12 60.5t-4.5 52q0 15 7 21q28 28 69 64.5t84.5 74t82.5 69t64.5 51t29.5 19.5t13.5 -6t19 -13.5t9.5 -12.5q5 -70 8.5 -149t3.5 -152v-108t1 -54.5t4 -20t8 -3.5zM53.0811 693.692q26.4316 4.95605 57.8193 4.95605h12.8027
q6.19531 0 12.8027 -0.826172q4.95605 -13.2158 7.02148 -33.0391q2.06445 -19.8242 2.06445 -37.1699q0 -22.3018 -3.7168 -39.6475t-11.9766 -18.9971q-13.2158 -3.30469 -28.084 -4.12988q-14.8672 -0.826172 -30.5615 -0.826172q-6.60742 0 -13.6289 0.413086
q-7.02051 0.413086 -13.6289 1.23828q-4.95605 13.2158 -7.43359 31.8008t-2.47754 36.7568q0 23.1279 4.54297 40.8867t14.4541 18.584zM184.414 701.952q26.4316 4.95605 56.9932 4.95605h12.8027q6.19434 0 12.8027 -0.826172q4.95605 -13.2148 7.02051 -33.0391
q2.06543 -19.8242 2.06543 -37.1699q0 -22.3008 -3.7168 -39.6475q-3.71777 -17.3457 -11.9775 -18.9971q-13.2158 -3.30469 -28.083 -4.12988q-14.8682 -0.826172 -30.5615 -0.826172q-6.6084 0 -13.6289 0.413086q-7.02148 0.413086 -13.6289 1.23828
q-4.95605 13.2168 -7.43457 31.8008q-2.47754 18.585 -2.47754 36.7568q0 23.1279 4.54297 40.8867t15.2812 18.584zM99.3369 859.717q8.25977 4.12988 31.3877 5.78125q23.127 1.65234 46.2549 1.65234h21.4756q9.91211 0 18.1719 -1.65234
q4.95605 -14.8672 7.43359 -35.9307q2.47852 -21.0625 2.47852 -40.8857q0 -50.3857 -17.3457 -61.9492q-5.78223 -4.12988 -29.3223 -6.19531q-23.541 -2.06445 -49.1465 -2.06445q-11.5645 0 -22.3018 0.413086q-10.7383 0.413086 -19.8242 1.23828
q-4.95605 14.8682 -7.43359 35.1045q-2.47754 20.2373 -2.47754 40.0605q0 25.6055 5.36816 42.9512q5.36914 17.3467 15.2812 21.4766z" />
            <glyph glyph-name="uni06A4.fina" unicode="&#x6a4;" horiz-adv-x="558" arabic-form="final" d="M264 344q11 -1 30 -1h35q22 0 37.5 0.5t32.5 1.5q11 1 15 3t4 12q0 12 -3 35t-6.5 42t-8.5 19t-28.5 -16.5t-53.5 -41t-57 -49.5q-6 -5 3 -5zM488 326q0 -69 0.5 -107t2 -55t4.5 -20.5t8 -3.5h55.5h19.5v-140h-460q-16 0 -24.5 22t-12 54.5t-3.5 63.5h327q5 0 9.5 7.5
t4.5 45.5q0 7 -12 7q-37 2 -61.5 2.5t-44 1t-42.5 0.5q-32 0 -59.5 -0.5t-70.5 -2.5q-8 17 -15.5 46.5t-12 60.5t-4.5 52q0 15 7 21q28 28 69 64.5t84.5 74t82.5 69t64.5 51t29.5 19.5t13.5 -6t19 -13.5t9.5 -12.5q5 -70 8.5 -149t3.5 -152zM83.0811 693.692
q26.4316 4.95605 57.8193 4.95605h12.8027q6.19531 0 12.8027 -0.826172q4.95605 -13.2158 7.02148 -33.0391q2.06445 -19.8242 2.06445 -37.1699q0 -22.3018 -3.7168 -39.6475t-11.9766 -18.9971q-13.2158 -3.30469 -28.084 -4.12988
q-14.8672 -0.826172 -30.5615 -0.826172q-6.60742 0 -13.6289 0.413086q-7.02051 0.413086 -13.6289 1.23828q-4.95605 13.2158 -7.43359 31.8008t-2.47754 36.7568q0 23.1279 4.54297 40.8867t14.4541 18.584zM214.414 701.952q26.4316 4.95605 56.9932 4.95605h12.8027
q6.19434 0 12.8027 -0.826172q4.95605 -13.2148 7.02051 -33.0391q2.06543 -19.8242 2.06543 -37.1699q0 -22.3008 -3.7168 -39.6475q-3.71777 -17.3457 -11.9775 -18.9971q-13.2158 -3.30469 -28.083 -4.12988q-14.8682 -0.826172 -30.5615 -0.826172
q-6.6084 0 -13.6289 0.413086q-7.02148 0.413086 -13.6289 1.23828q-4.95605 13.2168 -7.43457 31.8008q-2.47754 18.585 -2.47754 36.7568q0 23.1279 4.54297 40.8867t15.2812 18.584zM129.337 859.717q8.25977 4.12988 31.3877 5.78125q23.127 1.65234 46.2549 1.65234
h21.4756q9.91211 0 18.1719 -1.65234q4.95605 -14.8672 7.43359 -35.9307q2.47852 -21.0625 2.47852 -40.8857q0 -50.3857 -17.3457 -61.9492q-5.78223 -4.12988 -29.3223 -6.19531q-23.541 -2.06445 -49.1465 -2.06445q-11.5645 0 -22.3018 0.413086
q-10.7383 0.413086 -19.8242 1.23828q-4.95605 14.8682 -7.43359 35.1045q-2.47754 20.2373 -2.47754 40.0605q0 25.6055 5.36816 42.9512q5.36914 17.3467 15.2812 21.4766z" />
            <glyph glyph-name="uni06A1.init" unicode="&#x6a1;" horiz-adv-x="520" d="M236 344q11 -1 30 -1h35q22 0 37.5 0.5t32.5 1.5q11 1 15 3t4 12q0 12 -3 35t-6.5 42t-8.5 19t-28.5 -16.5t-53.5 -41t-57 -49.5q-6 -5 3 -5zM379 200q-37 2 -61.5 2.5t-44 1t-42.5 0.5q-32 0 -59.5 -0.5t-70.5 -2.5q-8 17 -15.5 46.5t-12 60.5t-4.5 52q0 15 7 21
q28 28 68 64.5t83 74t80.5 69t62.5 51t29 19.5q9 0 20 -6t20 -13.5t9 -12.5q5 -70 8.5 -146t3.5 -149q0 -90 -6 -165.5t-19.5 -121t-36.5 -45.5h-418v140h397q5 0 9.5 7.5t4.5 45.5q0 7 -12 7z" />
            <glyph glyph-name="uni06A1.medi" unicode="&#x6a1;" horiz-adv-x="538" d="M240 344q11 -1 30 -1h35q22 0 37.5 0.5t32.5 1.5q11 1 15 3t4 12q0 12 -3 35t-6.5 42t-8.5 19t-28.5 -16.5t-53.5 -41t-57 -49.5q-6 -5 3 -5zM477 140h58.5h22.5v-140h-578v140h401q5 0 9.5 7.5t4.5 45.5q0 7 -12 7q-37 2 -61.5 2.5t-44 1t-42.5 0.5q-32 0 -59.5 -0.5
t-70.5 -2.5q-8 17 -15.5 46.5t-12 60.5t-4.5 52q0 15 7 21q28 28 69 64.5t84.5 74t82.5 69t64.5 51t29.5 19.5t13.5 -6t19 -13.5t9.5 -12.5q5 -70 8.5 -149t3.5 -152v-108t1 -54.5t4 -20t8 -3.5z" />
            <glyph glyph-name="uni06A1.fina" unicode="&#x6a1;" horiz-adv-x="558" d="M264 344q11 -1 30 -1h35q22 0 37.5 0.5t32.5 1.5q11 1 15 3t4 12q0 12 -3 35t-6.5 42t-8.5 19t-28.5 -16.5t-53.5 -41t-57 -49.5q-6 -5 3 -5zM488 326q0 -69 0.5 -107t2 -55t4.5 -20.5t8 -3.5h55.5h19.5v-140h-460q-16 0 -24.5 22t-12 54.5t-3.5 63.5h327q5 0 9.5 7.5
t4.5 45.5q0 7 -12 7q-37 2 -61.5 2.5t-44 1t-42.5 0.5q-32 0 -59.5 -0.5t-70.5 -2.5q-8 17 -15.5 46.5t-12 60.5t-4.5 52q0 15 7 21q28 28 69 64.5t84.5 74t82.5 69t64.5 51t29.5 19.5t13.5 -6t19 -13.5t9.5 -12.5q5 -70 8.5 -149t3.5 -152z" />
            <glyph glyph-name="uni06A2.init" unicode="&#x6a2;" horiz-adv-x="520" d="M236 344q11 -1 30 -1h35q22 0 37.5 0.5t32.5 1.5q11 1 15 3t4 12q0 12 -3 35t-6.5 42t-8.5 19t-28.5 -16.5t-53.5 -41t-57 -49.5q-6 -5 3 -5zM379 200q-37 2 -61.5 2.5t-44 1t-42.5 0.5q-32 0 -59.5 -0.5t-70.5 -2.5q-8 17 -15.5 46.5t-12 60.5t-4.5 52q0 15 7 21
q28 28 68 64.5t83 74t80.5 69t62.5 51t29 19.5q9 0 20 -6t20 -13.5t9 -12.5q5 -70 8.5 -146t3.5 -149q0 -90 -6 -165.5t-19.5 -121t-36.5 -45.5h-418v140h397q5 0 9.5 7.5t4.5 45.5q0 7 -12 7zM189 -55q10 5 38 7t56 2h26t22 -2q6 -18 9 -43.5t3 -49.5q0 -61 -21 -75
q-7 -5 -35.5 -7.5t-59.5 -2.5q-14 0 -27 0.5t-24 1.5q-6 18 -9 42.5t-3 48.5q0 31 6.5 52t18.5 26z" />
            <glyph glyph-name="uni06A2.medi" unicode="&#x6a2;" horiz-adv-x="538" d="M240 344q11 -1 30 -1h35q22 0 37.5 0.5t32.5 1.5q11 1 15 3t4 12q0 12 -3 35t-6.5 42t-8.5 19t-28.5 -16.5t-53.5 -41t-57 -49.5q-6 -5 3 -5zM477 140h58.5h22.5v-140h-578v140h401q5 0 9.5 7.5t4.5 45.5q0 7 -12 7q-37 2 -61.5 2.5t-44 1t-42.5 0.5q-32 0 -59.5 -0.5
t-70.5 -2.5q-8 17 -15.5 46.5t-12 60.5t-4.5 52q0 15 7 21q28 28 69 64.5t84.5 74t82.5 69t64.5 51t29.5 19.5t13.5 -6t19 -13.5t9.5 -12.5q5 -70 8.5 -149t3.5 -152v-108t1 -54.5t4 -20t8 -3.5zM219 -45q10 5 38 7t56 2h26t22 -2q6 -18 9 -43.5t3 -49.5q0 -61 -21 -75
q-7 -5 -35.5 -7.5t-59.5 -2.5q-14 0 -27 0.5t-24 1.5q-6 18 -9 42.5t-3 48.5q0 31 6.5 52t18.5 26z" />
            <glyph glyph-name="uni06A2.fina" unicode="&#x6a2;" horiz-adv-x="558" d="M264 344q11 -1 30 -1h35q22 0 37.5 0.5t32.5 1.5q11 1 15 3t4 12q0 12 -3 35t-6.5 42t-8.5 19t-28.5 -16.5t-53.5 -41t-57 -49.5q-6 -5 3 -5zM488 326q0 -69 0.5 -107t2 -55t4.5 -20.5t8 -3.5h55.5h19.5v-140h-460q-16 0 -24.5 22t-12 54.5t-3.5 63.5h327q5 0 9.5 7.5
t4.5 45.5q0 7 -12 7q-37 2 -61.5 2.5t-44 1t-42.5 0.5q-32 0 -59.5 -0.5t-70.5 -2.5q-8 17 -15.5 46.5t-12 60.5t-4.5 52q0 15 7 21q28 28 69 64.5t84.5 74t82.5 69t64.5 51t29.5 19.5t13.5 -6t19 -13.5t9.5 -12.5q5 -70 8.5 -149t3.5 -152zM252 -45q10 5 38 7t56 2h26
t22 -2q6 -18 9 -43.5t3 -49.5q0 -61 -21 -75q-7 -5 -35.5 -7.5t-59.5 -2.5q-14 0 -27 0.5t-24 1.5q-6 18 -9 42.5t-3 48.5q0 31 6.5 52t18.5 26z" />
            <glyph glyph-name="uni066F.init" unicode="&#x66f;" horiz-adv-x="520" d="M236 344q11 -1 30 -1h35q22 0 37.5 0.5t32.5 1.5q11 1 15 3t4 12q0 12 -3 35t-6.5 42t-8.5 19t-28.5 -16.5t-53.5 -41t-57 -49.5q-6 -5 3 -5zM379 200q-37 2 -61.5 2.5t-44 1t-42.5 0.5q-32 0 -59.5 -0.5t-70.5 -2.5q-8 17 -15.5 46.5t-12 60.5t-4.5 52q0 15 7 21
q28 28 68 64.5t83 74t80.5 69t62.5 51t29 19.5q9 0 20 -6t20 -13.5t9 -12.5q5 -70 8.5 -146t3.5 -149q0 -90 -6 -165.5t-19.5 -121t-36.5 -45.5h-418v140h397q5 0 9.5 7.5t4.5 45.5q0 7 -12 7z" />
            <glyph glyph-name="uni066F.medi" unicode="&#x66f;" horiz-adv-x="538" d="M240 344q11 -1 30 -1h35q22 0 37.5 0.5t32.5 1.5q11 1 15 3t4 12q0 12 -3 35t-6.5 42t-8.5 19t-28.5 -16.5t-53.5 -41t-57 -49.5q-6 -5 3 -5zM477 140h58.5h22.5v-140h-578v140h401q5 0 9.5 7.5t4.5 45.5q0 7 -12 7q-37 2 -61.5 2.5t-44 1t-42.5 0.5q-32 0 -59.5 -0.5
t-70.5 -2.5q-8 17 -15.5 46.5t-12 60.5t-4.5 52q0 15 7 21q28 28 69 64.5t84.5 74t82.5 69t64.5 51t29.5 19.5t13.5 -6t19 -13.5t9.5 -12.5q5 -70 8.5 -149t3.5 -152v-108t1 -54.5t4 -20t8 -3.5z" />
            <glyph glyph-name="uni066F.fina" unicode="&#x66f;" horiz-adv-x="536" d="M235 144q11 0 25 -0.5t30 -0.5h39t38 2q7 1 8.5 3t1.5 12q0 17 -2.5 39.5t-6 39.5t-7.5 17q-5 0 -25 -16.5t-47.5 -40.5t-56.5 -47q-4 -3 -3 -5.5t6 -2.5zM454 140h102v-140h-112q-4 0 -5 -5q-2 -19 -4.5 -37.5t-6.5 -35.5q-2 -10 -13.5 -26t-25.5 -31q-36 -40 -99 -84
t-148 -83t-188 -63.5t-219 -24.5q-53 0 -109 8t-115 26q-13 4 -27 26.5t-24 54t-10 60.5q74 -22 148 -33t135 -11q112 0 207.5 19.5t170.5 49t128.5 60.5t83 54t32.5 29q4 7 7.5 23.5t2.5 23.5h-254q-6 14 -13.5 38t-13.5 50t-10 47.5t-4 31.5q0 6 22.5 29.5t59 55.5t77 67
t78 65.5t62 49.5t27.5 19q4 0 13.5 -5t18 -11.5t8.5 -11.5q4 -20 7 -62t5 -97t2 -117q0 -9 4 -9z" />
            <glyph glyph-name="uni0642.init" unicode="&#x642;" horiz-adv-x="520" arabic-form="initial" d="M236 344q11 -1 30 -1h35q22 0 37.5 0.5t32.5 1.5q11 1 15 3t4 12q0 12 -3 35t-6.5 42t-8.5 19t-28.5 -16.5t-53.5 -41t-57 -49.5q-6 -5 3 -5zM379 200q-37 2 -61.5 2.5t-44 1t-42.5 0.5q-32 0 -59.5 -0.5t-70.5 -2.5q-8 17 -15.5 46.5t-12 60.5t-4.5 52q0 15 7 21
q28 28 68 64.5t83 74t80.5 69t62.5 51t29 19.5q9 0 20 -6t20 -13.5t9 -12.5q5 -70 8.5 -146t3.5 -149q0 -90 -6 -165.5t-19.5 -121t-36.5 -45.5h-418v140h397q5 0 9.5 7.5t4.5 45.5q0 7 -12 7zM40 753q32 6 70 6h15.5t15.5 -1q6 -16 8.5 -40t2.5 -45q0 -27 -4.5 -48
t-14.5 -23q-16 -4 -34 -5t-37 -1q-8 0 -16.5 0.5t-16.5 1.5q-6 16 -9 38.5t-3 44.5q0 28 5.5 49.5t17.5 22.5zM199 763q32 6 69 6h15.5t15.5 -1q6 -16 8.5 -40t2.5 -45q0 -27 -4.5 -48t-14.5 -23q-16 -4 -34 -5t-37 -1q-8 0 -16.5 0.5t-16.5 1.5q-6 16 -9 38.5t-3 44.5
q0 28 5.5 49.5t18.5 22.5z" />
            <glyph glyph-name="uni0642.medi" unicode="&#x642;" horiz-adv-x="538" arabic-form="medial" d="M240 344q11 -1 30 -1h35q22 0 37.5 0.5t32.5 1.5q11 1 15 3t4 12q0 12 -3 35t-6.5 42t-8.5 19t-28.5 -16.5t-53.5 -41t-57 -49.5q-6 -5 3 -5zM477 140h58.5h22.5v-140h-578v140h401q5 0 9.5 7.5t4.5 45.5q0 7 -12 7q-37 2 -61.5 2.5t-44 1t-42.5 0.5q-32 0 -59.5 -0.5
t-70.5 -2.5q-8 17 -15.5 46.5t-12 60.5t-4.5 52q0 15 7 21q28 28 69 64.5t84.5 74t82.5 69t64.5 51t29.5 19.5t13.5 -6t19 -13.5t9.5 -12.5q5 -70 8.5 -149t3.5 -152v-108t1 -54.5t4 -20t8 -3.5zM50 753q32 6 70 6h15.5t15.5 -1q6 -16 8.5 -40t2.5 -45q0 -27 -4.5 -48
t-14.5 -23q-16 -4 -34 -5t-37 -1q-8 0 -16.5 0.5t-16.5 1.5q-6 16 -9 38.5t-3 44.5q0 28 5.5 49.5t17.5 22.5zM209 763q32 6 69 6h15.5t15.5 -1q6 -16 8.5 -40t2.5 -45q0 -27 -4.5 -48t-14.5 -23q-16 -4 -34 -5t-37 -1q-8 0 -16.5 0.5t-16.5 1.5q-6 16 -9 38.5t-3 44.5
q0 28 5.5 49.5t18.5 22.5z" />
            <glyph glyph-name="uni0642.fina" unicode="&#x642;" horiz-adv-x="536" arabic-form="final" d="M235 144q11 0 25 -0.5t30 -0.5h39t38 2q7 1 8.5 3t1.5 12q0 17 -2.5 39.5t-6 39.5t-7.5 17q-5 0 -25 -16.5t-47.5 -40.5t-56.5 -47q-4 -3 -3 -5.5t6 -2.5zM454 140h102v-140h-112q-4 0 -5 -5q-2 -19 -4.5 -37.5t-6.5 -35.5q-2 -10 -13.5 -26t-25.5 -31q-36 -40 -99 -84
t-148 -83t-188 -63.5t-219 -24.5q-53 0 -109 8t-115 26q-13 4 -27 26.5t-24 54t-10 60.5q74 -22 148 -33t135 -11q112 0 207.5 19.5t170.5 49t128.5 60.5t83 54t32.5 29q4 7 7.5 23.5t2.5 23.5h-254q-6 14 -13.5 38t-13.5 50t-10 47.5t-4 31.5q0 6 22.5 29.5t59 55.5t77 67
t78 65.5t62 49.5t27.5 19q4 0 13.5 -5t18 -11.5t8.5 -11.5q4 -20 7 -62t5 -97t2 -117q0 -9 4 -9zM67 589q32 6 70 6h15.5t15.5 -1q6 -16 8.5 -40t2.5 -45q0 -27 -4.5 -48t-14.5 -23q-16 -4 -34 -5t-37 -1q-8 0 -16.5 0.5t-16.5 1.5q-6 16 -9 38.5t-3 44.5q0 28 5.5 49.5
t17.5 22.5zM226 599q32 6 69 6h15.5t15.5 -1q6 -16 8.5 -40t2.5 -45q0 -27 -4.5 -48t-14.5 -23q-16 -4 -34 -5t-37 -1q-8 0 -16.5 0.5t-16.5 1.5q-6 16 -9 38.5t-3 44.5q0 28 5.5 49.5t18.5 22.5z" />
            <glyph glyph-name="uni06A7.init" unicode="&#x6a7;" horiz-adv-x="520" d="M236 344q11 -1 30 -1h35q22 0 37.5 0.5t32.5 1.5q11 1 15 3t4 12q0 12 -3 35t-6.5 42t-8.5 19t-28.5 -16.5t-53.5 -41t-57 -49.5q-6 -5 3 -5zM379 200q-37 2 -61.5 2.5t-44 1t-42.5 0.5q-32 0 -59.5 -0.5t-70.5 -2.5q-8 17 -15.5 46.5t-12 60.5t-4.5 52q0 15 7 21
q28 28 68 64.5t83 74t80.5 69t62.5 51t29 19.5q9 0 20 -6t20 -13.5t9 -12.5q5 -70 8.5 -146t3.5 -149q0 -90 -6 -165.5t-19.5 -121t-36.5 -45.5h-418v140h397q5 0 9.5 7.5t4.5 45.5q0 7 -12 7zM80 730q10 5 38 7t56 2h26t22 -2q6 -18 9 -43.5t3 -49.5q0 -61 -21 -75
q-7 -5 -35.5 -7.5t-59.5 -2.5q-14 0 -27 0.5t-24 1.5q-6 18 -9 42.5t-3 48.5q0 31 6.5 52t18.5 26z" />
            <glyph glyph-name="uni06A7.medi" unicode="&#x6a7;" horiz-adv-x="538" d="M240 344q11 -1 30 -1h35q22 0 37.5 0.5t32.5 1.5q11 1 15 3t4 12q0 12 -3 35t-6.5 42t-8.5 19t-28.5 -16.5t-53.5 -41t-57 -49.5q-6 -5 3 -5zM477 140h58.5h22.5v-140h-578v140h401q5 0 9.5 7.5t4.5 45.5q0 7 -12 7q-37 2 -61.5 2.5t-44 1t-42.5 0.5q-32 0 -59.5 -0.5
t-70.5 -2.5q-8 17 -15.5 46.5t-12 60.5t-4.5 52q0 15 7 21q28 28 69 64.5t84.5 74t82.5 69t64.5 51t29.5 19.5t13.5 -6t19 -13.5t9.5 -12.5q5 -70 8.5 -149t3.5 -152v-108t1 -54.5t4 -20t8 -3.5zM89 730q10 5 38 7t56 2h26t22 -2q6 -18 9 -43.5t3 -49.5q0 -61 -21 -75
q-7 -5 -35.5 -7.5t-59.5 -2.5q-14 0 -27 0.5t-24 1.5q-6 18 -9 42.5t-3 48.5q0 31 6.5 52t18.5 26z" />
            <glyph glyph-name="uni06A7.fina" unicode="&#x6a7;" horiz-adv-x="536" d="M235 144q11 0 25 -0.5t30 -0.5h39t38 2q7 1 8.5 3t1.5 12q0 17 -2.5 39.5t-6 39.5t-7.5 17q-5 0 -25 -16.5t-47.5 -40.5t-56.5 -47q-4 -3 -3 -5.5t6 -2.5zM454 140h102v-140h-112q-4 0 -5 -5q-2 -19 -4.5 -37.5t-6.5 -35.5q-2 -10 -13.5 -26t-25.5 -31q-36 -40 -99 -84
t-148 -83t-188 -63.5t-219 -24.5q-53 0 -109 8t-115 26q-13 4 -27 26.5t-24 54t-10 60.5q74 -22 148 -33t135 -11q112 0 207.5 19.5t170.5 49t128.5 60.5t83 54t32.5 29q4 7 7.5 23.5t2.5 23.5h-254q-6 14 -13.5 38t-13.5 50t-10 47.5t-4 31.5q0 6 22.5 29.5t59 55.5t77 67
t78 65.5t62 49.5t27.5 19q4 0 13.5 -5t18 -11.5t8.5 -11.5q4 -20 7 -62t5 -97t2 -117q0 -9 4 -9zM110 520q10 5 38 7t56 2h26t22 -2q6 -18 9 -43.5t3 -49.5q0 -61 -21 -75q-7 -5 -35.5 -7.5t-59.5 -2.5q-14 0 -27 0.5t-24 1.5q-6 18 -9 42.5t-3 48.5q0 31 6.5 52t18.5 26z
" />
            <glyph glyph-name="uni06A8.init" unicode="&#x6a8;" horiz-adv-x="520" d="M236 344q11 -1 30 -1h35q22 0 37.5 0.5t32.5 1.5q11 1 15 3t4 12q0 12 -3 35t-6.5 42t-8.5 19t-28.5 -16.5t-53.5 -41t-57 -49.5q-6 -5 3 -5zM379 200q-37 2 -61.5 2.5t-44 1t-42.5 0.5q-32 0 -59.5 -0.5t-70.5 -2.5q-8 17 -15.5 46.5t-12 60.5t-4.5 52q0 15 7 21
q28 28 68 64.5t83 74t80.5 69t62.5 51t29 19.5q9 0 20 -6t20 -13.5t9 -12.5q5 -70 8.5 -146t3.5 -149q0 -90 -6 -165.5t-19.5 -121t-36.5 -45.5h-418v140h397q5 0 9.5 7.5t4.5 45.5q0 7 -12 7zM37.0811 693.692q26.4316 4.95605 57.8193 4.95605h12.8027
q6.19531 0 12.8027 -0.826172q4.95605 -13.2158 7.02148 -33.0391q2.06445 -19.8242 2.06445 -37.1699q0 -22.3018 -3.7168 -39.6475t-11.9766 -18.9971q-13.2158 -3.30469 -28.084 -4.12988q-14.8672 -0.826172 -30.5615 -0.826172q-6.60742 0 -13.6289 0.413086
q-7.02051 0.413086 -13.6289 1.23828q-4.95605 13.2158 -7.43359 31.8008t-2.47754 36.7568q0 23.1279 4.54297 40.8867t14.4541 18.584zM168.414 701.952q26.4316 4.95605 56.9932 4.95605h12.8027q6.19434 0 12.8027 -0.826172q4.95605 -13.2148 7.02051 -33.0391
q2.06543 -19.8242 2.06543 -37.1699q0 -22.3008 -3.7168 -39.6475q-3.71777 -17.3457 -11.9775 -18.9971q-13.2158 -3.30469 -28.083 -4.12988q-14.8682 -0.826172 -30.5615 -0.826172q-6.6084 0 -13.6289 0.413086q-7.02148 0.413086 -13.6289 1.23828
q-4.95605 13.2168 -7.43457 31.8008q-2.47754 18.585 -2.47754 36.7568q0 23.1279 4.54297 40.8867t15.2812 18.584zM83.3369 859.717q8.25977 4.12988 31.3877 5.78125q23.127 1.65234 46.2549 1.65234h21.4756q9.91211 0 18.1719 -1.65234
q4.95605 -14.8672 7.43359 -35.9307q2.47852 -21.0625 2.47852 -40.8857q0 -50.3857 -17.3457 -61.9492q-5.78223 -4.12988 -29.3223 -6.19531q-23.541 -2.06445 -49.1465 -2.06445q-11.5645 0 -22.3018 0.413086q-10.7383 0.413086 -19.8242 1.23828
q-4.95605 14.8682 -7.43359 35.1045q-2.47754 20.2373 -2.47754 40.0605q0 25.6055 5.36816 42.9512q5.36914 17.3467 15.2812 21.4766z" />
            <glyph glyph-name="uni06A8.medi" unicode="&#x6a8;" horiz-adv-x="538" d="M240 344q11 -1 30 -1h35q22 0 37.5 0.5t32.5 1.5q11 1 15 3t4 12q0 12 -3 35t-6.5 42t-8.5 19t-28.5 -16.5t-53.5 -41t-57 -49.5q-6 -5 3 -5zM477 140h58.5h22.5v-140h-578v140h401q5 0 9.5 7.5t4.5 45.5q0 7 -12 7q-37 2 -61.5 2.5t-44 1t-42.5 0.5q-32 0 -59.5 -0.5
t-70.5 -2.5q-8 17 -15.5 46.5t-12 60.5t-4.5 52q0 15 7 21q28 28 69 64.5t84.5 74t82.5 69t64.5 51t29.5 19.5t13.5 -6t19 -13.5t9.5 -12.5q5 -70 8.5 -149t3.5 -152v-108t1 -54.5t4 -20t8 -3.5zM53.0811 693.692q26.4316 4.95605 57.8193 4.95605h12.8027
q6.19531 0 12.8027 -0.826172q4.95605 -13.2158 7.02148 -33.0391q2.06445 -19.8242 2.06445 -37.1699q0 -22.3018 -3.7168 -39.6475t-11.9766 -18.9971q-13.2158 -3.30469 -28.084 -4.12988q-14.8672 -0.826172 -30.5615 -0.826172q-6.60742 0 -13.6289 0.413086
q-7.02051 0.413086 -13.6289 1.23828q-4.95605 13.2158 -7.43359 31.8008t-2.47754 36.7568q0 23.1279 4.54297 40.8867t14.4541 18.584zM184.414 701.952q26.4316 4.95605 56.9932 4.95605h12.8027q6.19434 0 12.8027 -0.826172q4.95605 -13.2148 7.02051 -33.0391
q2.06543 -19.8242 2.06543 -37.1699q0 -22.3008 -3.7168 -39.6475q-3.71777 -17.3457 -11.9775 -18.9971q-13.2158 -3.30469 -28.083 -4.12988q-14.8682 -0.826172 -30.5615 -0.826172q-6.6084 0 -13.6289 0.413086q-7.02148 0.413086 -13.6289 1.23828
q-4.95605 13.2168 -7.43457 31.8008q-2.47754 18.585 -2.47754 36.7568q0 23.1279 4.54297 40.8867t15.2812 18.584zM99.3369 859.717q8.25977 4.12988 31.3877 5.78125q23.127 1.65234 46.2549 1.65234h21.4756q9.91211 0 18.1719 -1.65234
q4.95605 -14.8672 7.43359 -35.9307q2.47852 -21.0625 2.47852 -40.8857q0 -50.3857 -17.3457 -61.9492q-5.78223 -4.12988 -29.3223 -6.19531q-23.541 -2.06445 -49.1465 -2.06445q-11.5645 0 -22.3018 0.413086q-10.7383 0.413086 -19.8242 1.23828
q-4.95605 14.8682 -7.43359 35.1045q-2.47754 20.2373 -2.47754 40.0605q0 25.6055 5.36816 42.9512q5.36914 17.3467 15.2812 21.4766z" />
            <glyph glyph-name="uni06A8.fina" unicode="&#x6a8;" horiz-adv-x="536" d="M235 144q11 0 25 -0.5t30 -0.5h39t38 2q7 1 8.5 3t1.5 12q0 17 -2.5 39.5t-6 39.5t-7.5 17q-5 0 -25 -16.5t-47.5 -40.5t-56.5 -47q-4 -3 -3 -5.5t6 -2.5zM454 140h102v-140h-112q-4 0 -5 -5q-2 -19 -4.5 -37.5t-6.5 -35.5q-2 -10 -13.5 -26t-25.5 -31q-36 -40 -99 -84
t-148 -83t-188 -63.5t-219 -24.5q-53 0 -109 8t-115 26q-13 4 -27 26.5t-24 54t-10 60.5q74 -22 148 -33t135 -11q112 0 207.5 19.5t170.5 49t128.5 60.5t83 54t32.5 29q4 7 7.5 23.5t2.5 23.5h-254q-6 14 -13.5 38t-13.5 50t-10 47.5t-4 31.5q0 6 22.5 29.5t59 55.5t77 67
t78 65.5t62 49.5t27.5 19q4 0 13.5 -5t18 -11.5t8.5 -11.5q4 -20 7 -62t5 -97t2 -117q0 -9 4 -9zM13.0811 493.692q26.4316 4.95605 57.8193 4.95605h12.8027q6.19531 0 12.8027 -0.826172q4.95605 -13.2158 7.02148 -33.0391q2.06445 -19.8242 2.06445 -37.1699
q0 -22.3018 -3.7168 -39.6475t-11.9766 -18.9971q-13.2158 -3.30469 -28.084 -4.12988q-14.8672 -0.826172 -30.5615 -0.826172q-6.60742 0 -13.6289 0.413086q-7.02051 0.413086 -13.6289 1.23828q-4.95605 13.2158 -7.43359 31.8008t-2.47754 36.7568
q0 23.1279 4.54297 40.8867t14.4541 18.584zM144.414 501.952q26.4316 4.95605 56.9932 4.95605h12.8027q6.19434 0 12.8027 -0.826172q4.95605 -13.2148 7.02051 -33.0391q2.06543 -19.8242 2.06543 -37.1699q0 -22.3008 -3.7168 -39.6475
q-3.71777 -17.3457 -11.9775 -18.9971q-13.2158 -3.30469 -28.083 -4.12988q-14.8682 -0.826172 -30.5615 -0.826172q-6.6084 0 -13.6289 0.413086q-7.02148 0.413086 -13.6289 1.23828q-4.95605 13.2168 -7.43457 31.8008q-2.47754 18.585 -2.47754 36.7568
q0 23.1279 4.54297 40.8867t15.2812 18.584zM59.3369 659.717q8.25977 4.12988 31.3877 5.78125q23.127 1.65234 46.2549 1.65234h21.4756q9.91211 0 18.1719 -1.65234q4.95605 -14.8672 7.43359 -35.9307q2.47852 -21.0625 2.47852 -40.8857q0 -50.3857 -17.3457 -61.9492
q-5.78223 -4.12988 -29.3223 -6.19531q-23.541 -2.06445 -49.1465 -2.06445q-11.5645 0 -22.3018 0.413086q-10.7383 0.413086 -19.8242 1.23828q-4.95605 14.8682 -7.43359 35.1045q-2.47754 20.2373 -2.47754 40.0605q0 25.6055 5.36816 42.9512
q5.36914 17.3467 15.2812 21.4766z" />
            <glyph glyph-name="uni0643.init" unicode="&#x643;" horiz-adv-x="800" arabic-form="initial" d="M308 342h122h117t95 -0.5t56 -2.5q32 -4 39.5 -48t7.5 -110q0 -87 -9.5 -134t-31.5 -47h-724v140h683q14 0 17.5 2t3.5 11q0 34 -11.5 40.5t-42.5 7.5q-22 1 -67 1.5t-103.5 0.5t-120 -0.5t-116.5 -1t-93 -1.5q-15 0 -25 19t-15.5 51.5t-7.5 69.5q40 34 97 73.5t123 82
t134 84.5t131 80q9 -1 16.5 -7t9.5 -16q-55 -48 -110.5 -98t-105 -96t-86.5 -85q-10 -10 -7 -13.5t24 -2.5z" />
            <glyph glyph-name="uni0643.medi" unicode="&#x643;" horiz-adv-x="799" arabic-form="medial" d="M286 358q-10 -10 -7 -13.5t24 -2.5h122h117t95 -0.5t56 -2.5q32 -4 39.5 -51t7.5 -125q0 -17 5.5 -20t18.5 -3h27h28v-140h-839v140h678q14 0 17.5 2t3.5 11q0 34 -11.5 40.5t-42.5 7.5q-22 1 -67 1.5t-103.5 0.5t-120 -0.5t-116.5 -1t-93 -1.5q-15 0 -25 19t-15.5 51.5
t-7.5 69.5q40 34 97 73.5t123 82t134 84.5t131 80q9 -1 16.5 -7t9.5 -16q-55 -48 -110.5 -98t-105 -96t-86.5 -85z" />
            <glyph glyph-name="uni0643.fina" unicode="&#x643;" horiz-adv-x="784" arabic-form="final" d="M271 358q-10 -10 -7 -13.5t24 -2.5h122h117t95 -0.5t56 -2.5q32 -4 39.5 -51t7.5 -125q0 -17 5.5 -20t18.5 -3h27h28v-140h-714q-16 0 -24.5 22t-12 54.5t-3.5 63.5h593q14 0 17.5 2t3.5 11q0 34 -11.5 40.5t-42.5 7.5q-22 1 -67 1.5t-103.5 0.5t-120 -0.5t-116.5 -1
t-93 -1.5q-15 0 -25 19t-15.5 51.5t-7.5 69.5q40 34 97 73.5t123 82t134 84.5t131 80q9 -1 16.5 -7t9.5 -16q-55 -48 -110.5 -98t-105 -96t-86.5 -85z" />
            <glyph glyph-name="uni06A9.init" unicode="&#x6a9;" horiz-adv-x="800" arabic-form="initial" d="M308 342h122h117t95 -0.5t56 -2.5q32 -4 39.5 -48t7.5 -110q0 -87 -9.5 -134t-31.5 -47h-724v140h683q14 0 17.5 2t3.5 11q0 34 -11.5 40.5t-42.5 7.5q-22 1 -67 1.5t-103.5 0.5t-120 -0.5t-116.5 -1t-93 -1.5q-15 0 -25 19t-15.5 51.5t-7.5 69.5q40 34 97 73.5t123 82
t134 84.5t131 80q9 -1 16.5 -7t9.5 -16q-55 -48 -110.5 -98t-105 -96t-86.5 -85q-10 -10 -7 -13.5t24 -2.5z" />
            <glyph glyph-name="uni06A9.medi" unicode="&#x6a9;" horiz-adv-x="799" arabic-form="medial" d="M286 358q-10 -10 -7 -13.5t24 -2.5h122h117t95 -0.5t56 -2.5q32 -4 39.5 -51t7.5 -125q0 -17 5.5 -20t18.5 -3h27h28v-140h-839v140h678q14 0 17.5 2t3.5 11q0 34 -11.5 40.5t-42.5 7.5q-22 1 -67 1.5t-103.5 0.5t-120 -0.5t-116.5 -1t-93 -1.5q-15 0 -25 19t-15.5 51.5
t-7.5 69.5q40 34 97 73.5t123 82t134 84.5t131 80q9 -1 16.5 -7t9.5 -16q-55 -48 -110.5 -98t-105 -96t-86.5 -85z" />
            <glyph glyph-name="uni06A9.fina" unicode="&#x6a9;" horiz-adv-x="784" arabic-form="final" d="M271 358q-10 -10 -7 -13.5t24 -2.5h122h117t95 -0.5t56 -2.5q32 -4 39.5 -51t7.5 -125q0 -17 5.5 -20t18.5 -3h27h28v-140h-714q-16 0 -24.5 22t-12 54.5t-3.5 63.5h593q14 0 17.5 2t3.5 11q0 34 -11.5 40.5t-42.5 7.5q-22 1 -67 1.5t-103.5 0.5t-120 -0.5t-116.5 -1
t-93 -1.5q-15 0 -25 19t-15.5 51.5t-7.5 69.5q40 34 97 73.5t123 82t134 84.5t131 80q9 -1 16.5 -7t9.5 -16q-55 -48 -110.5 -98t-105 -96t-86.5 -85z" />
            <glyph glyph-name="uni06AF.init" unicode="&#x6af;" horiz-adv-x="800" arabic-form="initial" d="M308 342h122h117t95 -0.5t56 -2.5q32 -4 39.5 -48t7.5 -110q0 -87 -9.5 -134t-31.5 -47h-724v140h683q14 0 17.5 2t3.5 11q0 34 -11.5 40.5t-42.5 7.5q-22 1 -67 1.5t-103.5 0.5t-120 -0.5t-116.5 -1t-93 -1.5q-15 0 -25 19t-15.5 51.5t-7.5 69.5q40 34 97 73.5t123 82
t134 84.5t131 80q9 -1 16.5 -7t9.5 -16q-55 -48 -110.5 -98t-105 -96t-86.5 -85q-10 -10 -7 -13.5t24 -2.5zM85 485q60 35 126 70t130 65.5t115 50.5q20 -5 25 -26q-106 -61 -199 -118.5t-189 -126.5q-6 6 -9.5 21t-3 33t4.5 31z" />
            <glyph glyph-name="uni06AF.medi" unicode="&#x6af;" horiz-adv-x="799" arabic-form="medial" d="M286 358q-10 -10 -7 -13.5t24 -2.5h122h117t95 -0.5t56 -2.5q32 -4 39.5 -51t7.5 -125q0 -17 5.5 -20t18.5 -3h27h28v-140h-839v140h678q14 0 17.5 2t3.5 11q0 34 -11.5 40.5t-42.5 7.5q-22 1 -67 1.5t-103.5 0.5t-120 -0.5t-116.5 -1t-93 -1.5q-15 0 -25 19t-15.5 51.5
t-7.5 69.5q40 34 97 73.5t123 82t134 84.5t131 80q9 -1 16.5 -7t9.5 -16q-55 -48 -110.5 -98t-105 -96t-86.5 -85zM58 485q60 35 126 70t130 65.5t115 50.5q20 -5 25 -26q-106 -61 -199 -118.5t-189 -126.5q-6 6 -9.5 21t-3 33t4.5 31z" />
            <glyph glyph-name="uni06AF.fina" unicode="&#x6af;" horiz-adv-x="784" arabic-form="final" d="M271 358q-10 -10 -7 -13.5t24 -2.5h122h117t95 -0.5t56 -2.5q32 -4 39.5 -51t7.5 -125q0 -17 5.5 -20t18.5 -3h27h28v-140h-714q-16 0 -24.5 22t-12 54.5t-3.5 63.5h593q14 0 17.5 2t3.5 11q0 34 -11.5 40.5t-42.5 7.5q-22 1 -67 1.5t-103.5 0.5t-120 -0.5t-116.5 -1
t-93 -1.5q-15 0 -25 19t-15.5 51.5t-7.5 69.5q40 34 97 73.5t123 82t134 84.5t131 80q9 -1 16.5 -7t9.5 -16q-55 -48 -110.5 -98t-105 -96t-86.5 -85zM55 485q60 35 126 70t130 65.5t115 50.5q20 -5 25 -26q-106 -61 -199 -118.5t-189 -126.5q-6 6 -9.5 21t-3 33t4.5 31z
" />
            <glyph glyph-name="uni06AA.init" unicode="&#x6aa;" horiz-adv-x="1120" d="M348 342h101.5h133.5h144h134t104 -1t53 -2q32 -4 39.5 -48t7.5 -110q0 -87 -9.5 -134t-31.5 -47h-1044v140h1003q14 0 17.5 2t3.5 11q0 34 -11.5 40.5t-42.5 7.5q-15 1 -58.5 1.5t-105.5 0.5h-133.5h-145t-140.5 -0.5t-118.5 -1t-78.5 -1.5q-15 0 -25 19t-15.5 51.5
t-7.5 69.5q32 27 80.5 58.5t105.5 64.5t116.5 65t115.5 60t100 49q9 -1 16.5 -7t9.5 -16q-34 -24 -79.5 -56t-94 -67.5t-91 -69.5t-70.5 -63q-10 -10 -7 -13.5t24 -2.5z" />
            <glyph glyph-name="uni06AA.medi" unicode="&#x6aa;" horiz-adv-x="1119" d="M-30 140h1008q14 0 17.5 2t3.5 11q0 34 -11.5 40.5t-42.5 7.5q-18 1 -61.5 1.5t-104.5 0.5h-131.5h-142.5t-137 -0.5t-115.5 -1t-77.5 -1.5q-15 0 -25 19t-15.5 51.5t-7.5 69.5q32 27 80.5 58.5t105.5 64.5t116.5 65t115.5 60t100 49q9 -1 16.5 -7t9.5 -16
q-34 -24 -79.5 -56t-94 -67.5t-91 -69.5t-70.5 -63q-10 -10 -7 -13.5t24 -2.5h101h131.5h141.5h131.5t102 -1t52.5 -2q32 -4 39.5 -51t7.5 -125q0 -17 5.5 -20t18.5 -3h27h28v-140h-1169v140z" />
            <glyph glyph-name="uni06AA.fina" unicode="&#x6aa;" horiz-adv-x="1124" d="M1144 0h-1054q-16 0 -24.5 22t-12 54.5t-3.5 63.5h933q14 0 17.5 2t3.5 11q0 34 -11.5 40.5t-42.5 7.5q-15 1 -58.5 1.5t-105.5 0.5h-133.5h-145t-140.5 -0.5t-118.5 -1t-78.5 -1.5q-15 0 -25 19t-15.5 51.5t-7.5 69.5q32 27 80.5 58.5t105.5 64.5t116.5 65t115.5 60
t100 49q9 -1 16.5 -7t9.5 -16q-34 -24 -79.5 -56t-94 -67.5t-91 -69.5t-70.5 -63q-10 -10 -7 -13.5t24 -2.5h101.5h133.5h144h134t104 -1t53 -2q32 -4 39.5 -51t7.5 -125q0 -17 5.5 -20t18.5 -3h27h28v-140z" />
            <glyph glyph-name="uni06AD.init" unicode="&#x6ad;" horiz-adv-x="800" arabic-form="initial" d="M308 342h122h117t95 -0.5t56 -2.5q32 -4 39.5 -48t7.5 -110q0 -87 -9.5 -134t-31.5 -47h-724v140h683q14 0 17.5 2t3.5 11q0 34 -11.5 40.5t-42.5 7.5q-22 1 -67 1.5t-103.5 0.5t-120 -0.5t-116.5 -1t-93 -1.5q-15 0 -25 19t-15.5 51.5t-7.5 69.5q40 34 97 73.5t123 82
t134 84.5t131 80q9 -1 16.5 -7t9.5 -16q-55 -48 -110.5 -98t-105 -96t-86.5 -85q-10 -10 -7 -13.5t24 -2.5zM83.0811 620.692q26.4316 4.95605 57.8193 4.95605h12.8027q6.19531 0 12.8027 -0.826172q4.95605 -13.2158 7.02148 -33.0391q2.06445 -19.8242 2.06445 -37.1699
q0 -22.3018 -3.7168 -39.6475t-11.9766 -18.9971q-13.2158 -3.30469 -28.084 -4.12988q-14.8672 -0.826172 -30.5615 -0.826172q-6.60742 0 -13.6289 0.413086q-7.02051 0.413086 -13.6289 1.23828q-4.95605 13.2158 -7.43359 31.8008t-2.47754 36.7568
q0 23.1279 4.54297 40.8867t14.4541 18.584zM214.414 628.952q26.4316 4.95605 56.9932 4.95605h12.8027q6.19434 0 12.8027 -0.826172q4.95605 -13.2148 7.02051 -33.0391q2.06543 -19.8242 2.06543 -37.1699q0 -22.3008 -3.7168 -39.6475
q-3.71777 -17.3457 -11.9775 -18.9971q-13.2158 -3.30469 -28.083 -4.12988q-14.8682 -0.826172 -30.5615 -0.826172q-6.6084 0 -13.6289 0.413086q-7.02148 0.413086 -13.6289 1.23828q-4.95605 13.2168 -7.43457 31.8008q-2.47754 18.585 -2.47754 36.7568
q0 23.1279 4.54297 40.8867t15.2812 18.584zM129.337 786.717q8.25977 4.12988 31.3877 5.78125q23.127 1.65234 46.2549 1.65234h21.4756q9.91211 0 18.1719 -1.65234q4.95605 -14.8672 7.43359 -35.9307q2.47852 -21.0625 2.47852 -40.8857q0 -50.3857 -17.3457 -61.9492
q-5.78223 -4.12988 -29.3223 -6.19531q-23.541 -2.06445 -49.1465 -2.06445q-11.5645 0 -22.3018 0.413086q-10.7383 0.413086 -19.8242 1.23828q-4.95605 14.8682 -7.43359 35.1045q-2.47754 20.2373 -2.47754 40.0605q0 25.6055 5.36816 42.9512
q5.36914 17.3467 15.2812 21.4766z" />
            <glyph glyph-name="uni06AD.medi" unicode="&#x6ad;" horiz-adv-x="799" arabic-form="medial" d="M286 358q-10 -10 -7 -13.5t24 -2.5h122h117t95 -0.5t56 -2.5q32 -4 39.5 -51t7.5 -125q0 -17 5.5 -20t18.5 -3h27h28v-140h-839v140h678q14 0 17.5 2t3.5 11q0 34 -11.5 40.5t-42.5 7.5q-22 1 -67 1.5t-103.5 0.5t-120 -0.5t-116.5 -1t-93 -1.5q-15 0 -25 19t-15.5 51.5
t-7.5 69.5q40 34 97 73.5t123 82t134 84.5t131 80q9 -1 16.5 -7t9.5 -16q-55 -48 -110.5 -98t-105 -96t-86.5 -85zM83.0811 620.692q26.4316 4.95605 57.8193 4.95605h12.8027q6.19531 0 12.8027 -0.826172q4.95605 -13.2158 7.02148 -33.0391
q2.06445 -19.8242 2.06445 -37.1699q0 -22.3018 -3.7168 -39.6475t-11.9766 -18.9971q-13.2158 -3.30469 -28.084 -4.12988q-14.8672 -0.826172 -30.5615 -0.826172q-6.60742 0 -13.6289 0.413086q-7.02051 0.413086 -13.6289 1.23828q-4.95605 13.2158 -7.43359 31.8008
t-2.47754 36.7568q0 23.1279 4.54297 40.8867t14.4541 18.584zM214.414 628.952q26.4316 4.95605 56.9932 4.95605h12.8027q6.19434 0 12.8027 -0.826172q4.95605 -13.2148 7.02051 -33.0391q2.06543 -19.8242 2.06543 -37.1699q0 -22.3008 -3.7168 -39.6475
q-3.71777 -17.3457 -11.9775 -18.9971q-13.2158 -3.30469 -28.083 -4.12988q-14.8682 -0.826172 -30.5615 -0.826172q-6.6084 0 -13.6289 0.413086q-7.02148 0.413086 -13.6289 1.23828q-4.95605 13.2168 -7.43457 31.8008q-2.47754 18.585 -2.47754 36.7568
q0 23.1279 4.54297 40.8867t15.2812 18.584zM129.337 786.717q8.25977 4.12988 31.3877 5.78125q23.127 1.65234 46.2549 1.65234h21.4756q9.91211 0 18.1719 -1.65234q4.95605 -14.8672 7.43359 -35.9307q2.47852 -21.0625 2.47852 -40.8857q0 -50.3857 -17.3457 -61.9492
q-5.78223 -4.12988 -29.3223 -6.19531q-23.541 -2.06445 -49.1465 -2.06445q-11.5645 0 -22.3018 0.413086q-10.7383 0.413086 -19.8242 1.23828q-4.95605 14.8682 -7.43359 35.1045q-2.47754 20.2373 -2.47754 40.0605q0 25.6055 5.36816 42.9512
q5.36914 17.3467 15.2812 21.4766z" />
            <glyph glyph-name="uni06AD.fina" unicode="&#x6ad;" horiz-adv-x="784" arabic-form="final" d="M271 358q-10 -10 -7 -13.5t24 -2.5h122h117t95 -0.5t56 -2.5q32 -4 39.5 -51t7.5 -125q0 -17 5.5 -20t18.5 -3h27h28v-140h-714q-16 0 -24.5 22t-12 54.5t-3.5 63.5h593q14 0 17.5 2t3.5 11q0 34 -11.5 40.5t-42.5 7.5q-22 1 -67 1.5t-103.5 0.5t-120 -0.5t-116.5 -1
t-93 -1.5q-15 0 -25 19t-15.5 51.5t-7.5 69.5q40 34 97 73.5t123 82t134 84.5t131 80q9 -1 16.5 -7t9.5 -16q-55 -48 -110.5 -98t-105 -96t-86.5 -85zM83.0811 620.692q26.4316 4.95605 57.8193 4.95605h12.8027q6.19531 0 12.8027 -0.826172
q4.95605 -13.2158 7.02148 -33.0391q2.06445 -19.8242 2.06445 -37.1699q0 -22.3018 -3.7168 -39.6475t-11.9766 -18.9971q-13.2158 -3.30469 -28.084 -4.12988q-14.8672 -0.826172 -30.5615 -0.826172q-6.60742 0 -13.6289 0.413086q-7.02051 0.413086 -13.6289 1.23828
q-4.95605 13.2158 -7.43359 31.8008t-2.47754 36.7568q0 23.1279 4.54297 40.8867t14.4541 18.584zM214.414 628.952q26.4316 4.95605 56.9932 4.95605h12.8027q6.19434 0 12.8027 -0.826172q4.95605 -13.2148 7.02051 -33.0391q2.06543 -19.8242 2.06543 -37.1699
q0 -22.3008 -3.7168 -39.6475q-3.71777 -17.3457 -11.9775 -18.9971q-13.2158 -3.30469 -28.083 -4.12988q-14.8682 -0.826172 -30.5615 -0.826172q-6.6084 0 -13.6289 0.413086q-7.02148 0.413086 -13.6289 1.23828q-4.95605 13.2168 -7.43457 31.8008
q-2.47754 18.585 -2.47754 36.7568q0 23.1279 4.54297 40.8867t15.2812 18.584zM129.337 786.717q8.25977 4.12988 31.3877 5.78125q23.127 1.65234 46.2549 1.65234h21.4756q9.91211 0 18.1719 -1.65234q4.95605 -14.8672 7.43359 -35.9307
q2.47852 -21.0625 2.47852 -40.8857q0 -50.3857 -17.3457 -61.9492q-5.78223 -4.12988 -29.3223 -6.19531q-23.541 -2.06445 -49.1465 -2.06445q-11.5645 0 -22.3018 0.413086q-10.7383 0.413086 -19.8242 1.23828q-4.95605 14.8682 -7.43359 35.1045
q-2.47754 20.2373 -2.47754 40.0605q0 25.6055 5.36816 42.9512q5.36914 17.3467 15.2812 21.4766z" />
            <glyph glyph-name="uni0644.init" unicode="&#x644;" horiz-adv-x="244" arabic-form="initial" d="M-20 0v140h121q5 0 7 3.5t2 22.5q0 9 -0.5 23.5t-1.5 33.5q-1 42 -7.5 59t-14.5 22.5t-14 11t-7 24.5q-1 30 -2.5 68t-2.5 75q14 14 32.5 26.5t34.5 24.5q8 7 17 7t17 -8q1 -12 2.5 -41t2.5 -67.5t1.5 -80.5t1 -80t0.5 -65q-1 -79 -6.5 -122t-14.5 -60t-19 -17h-149z" />
            <glyph glyph-name="uni0644.medi" unicode="&#x644;" horiz-adv-x="289" arabic-form="medial" d="M117 223q-1 42 -7.5 59t-14.5 22.5t-14 11t-7 24.5q-1 30 -2.5 68t-2.5 75q14 14 32.5 26.5t34.5 24.5q18 14 34 -1q1 -12 2.5 -41t2.5 -67.5t1.5 -80.5t1 -80t0.5 -65q0 -40 4.5 -49.5t18.5 -9.5h58h50v-140h-329v140h125q8 0 11 5t3 22.5t-2 55.5z" />
            <glyph glyph-name="uni0644.fina" unicode="&#x644;" horiz-adv-x="277" arabic-form="final" d="M-812 -257q69 -23 137 -34.5t134 -11.5q197 0 365.5 92t291.5 280v36v30v52.5t-1 35.5q-3 42 -9.5 60.5t-14 25t-13 11.5t-6.5 20q-1 30 -2.5 68t-2.5 75q14 14 32.5 26.5t34.5 24.5q8 7 17 7t17 -8q3 -180 9 -375q0 -10 3 -14t16 -4h101v-140h-90q-7 0 -26.5 -23
t-51.5 -61.5t-77.5 -84t-104.5 -91t-131.5 -84t-158 -61.5t-185.5 -23q-55 0 -108.5 5.5t-105.5 23.5q-25 9 -45 48.5t-25 93.5z" />
            <glyph glyph-name="uni0645.init" unicode="&#x645;" horiz-adv-x="408" arabic-form="initial" d="M-20 0v140h57q22 0 26 11.5t4 50.5q0 122 34 188t108 66q70 0 102 -63t32 -184q0 -94 -14 -151.5t-48 -57.5h-301zM206 136q30 0 45 5t20.5 21t5.5 48q0 44 -17 68t-54 24q-73 0 -73 -87q0 -33 5.5 -50t21 -23t46.5 -6z" />
            <glyph glyph-name="uni0645.medi" unicode="&#x645;" horiz-adv-x="458" arabic-form="medial" d="M-20 0v140h92q18 0 21.5 12t3.5 52q0 120 34 186t108 66q70 0 102 -64.5t32 -185.5q0 -43 2.5 -54.5t20.5 -11.5h82v-140h-125h-141h-132.5h-99.5zM236 136q30 0 45 5t20.5 21t5.5 48q0 44 -17 68t-54 24q-73 0 -73 -87q0 -33 5.5 -50t21 -23t46.5 -6z" />
            <glyph glyph-name="uni0645.fina" unicode="&#x645;" horiz-adv-x="489" arabic-form="final" d="M509 0h-162h-155q-7 0 -13 -31t-12 -84t-12 -119t-12 -137q-1 -10 -13.5 -14.5t-23.5 -4.5q-3 48 -8.5 108.5t-12 127t-13 130t-11.5 118t-8 91.5q0 4 19.5 25.5t52 53t73 66.5t82 66.5t78.5 52.5q7 0 18.5 -5t21 -11.5t9.5 -11.5q3 -23 5.5 -57.5t4.5 -70t3.5 -62.5
t1.5 -35q0 -37 5 -46.5t25 -9.5h57v-140zM357 154q0 19 -3 44.5t-7.5 45t-9.5 19.5q-4 0 -19.5 -10.5t-36 -26.5t-40.5 -33t-33 -30.5t-13 -18.5q0 -2 19.5 -3t47.5 -1h55q23 0 31.5 2.5t8.5 11.5z" />
            <glyph glyph-name="uni0646.init" unicode="&#x646;" horiz-adv-x="339" arabic-form="initial" d="M202 246q11 5 27 7.5t29 2.5q4 -17 6.5 -43t2.5 -61q0 -37 -4 -72t-13 -57.5t-25 -22.5h-245v140h212q7 0 9.5 6.5t2.5 16.5q0 19 -7 42t-7 29q0 7 12 12zM89 474q10 5 38 7t56 2h26t22 -2q6 -18 9 -43.5t3 -49.5q0 -61 -21 -75q-7 -5 -35.5 -7.5t-59.5 -2.5
q-14 0 -27 0.5t-24 1.5q-6 18 -9 42.5t-3 48.5q0 31 6.5 52t18.5 26z" />
            <glyph glyph-name="uni0646.medi" unicode="&#x646;" horiz-adv-x="329" arabic-form="medial" d="M242 148q1 -8 17 -8h90v-140h-369v140h185q12 0 12 19q0 21 -6.5 45t-6.5 30q0 7 12 12q25 10 56 10q6 -30 7 -54t3 -54zM125 486q10 5 38 7t56 2h26t22 -2q6 -18 9 -43.5t3 -49.5q0 -61 -21 -75q-7 -5 -35.5 -7.5t-59.5 -2.5q-14 0 -27 0.5t-24 1.5q-6 18 -9 42.5
t-3 48.5q0 31 6.5 52t18.5 26z" />
            <glyph glyph-name="uni0646.fina" unicode="&#x646;" horiz-adv-x="252" arabic-form="final" d="M121 57q0 35 -9.5 84.5t-20.5 89.5v1.5v1.5q0 7 12 11q30 11 60 11q6 -30 10.5 -54t8.5 -54q1 -8 17 -8h73v-140h-27q-7 0 -28.5 -26t-58.5 -68t-90 -93t-124 -102t-160 -93t-198.5 -68t-239.5 -26q-118 0 -210 14t-162 39q-25 9 -43.5 48t-18.5 83q0 5 0.5 11t1.5 12
q113 -37 222 -56t212 -19q234 0 432.5 99t340.5 302zM37 501q10 5 38 7t56 2h26t22 -2q6 -18 9 -43.5t3 -49.5q0 -61 -21 -75q-7 -5 -35.5 -7.5t-59.5 -2.5q-14 0 -27 0.5t-24 1.5q-6 18 -9 42.5t-3 48.5q0 31 6.5 52t18.5 26z" />
            <glyph glyph-name="uni06BA.init" unicode="&#x6ba;" horiz-adv-x="339" d="M202 246q11 5 27 7.5t29 2.5q4 -17 6.5 -43t2.5 -61q0 -37 -4 -72t-13 -57.5t-25 -22.5h-245v140h212q7 0 9.5 6.5t2.5 16.5q0 19 -7 42t-7 29q0 7 12 12z" />
            <glyph glyph-name="uni06BA.medi" unicode="&#x6ba;" horiz-adv-x="329" d="M242 148q1 -8 17 -8h90v-140h-369v140h185q12 0 12 19q0 21 -6.5 45t-6.5 30q0 7 12 12q25 10 56 10q6 -30 7 -54t3 -54z" />
            <glyph glyph-name="uni06BA.fina" unicode="&#x6ba;" horiz-adv-x="252" arabic-form="final" d="M121 57q0 35 -9.5 84.5t-20.5 89.5v1.5v1.5q0 7 12 11q30 11 60 11q6 -30 10.5 -54t8.5 -54q1 -8 17 -8h73v-140h-27q-7 0 -28.5 -26t-58.5 -68t-90 -93t-124 -102t-160 -93t-198.5 -68t-239.5 -26q-118 0 -210 14t-162 39q-25 9 -43.5 48t-18.5 83q0 5 0.5 11t1.5 12
q113 -37 222 -56t212 -19q234 0 432.5 99t340.5 302z" />
            <glyph glyph-name="uni0647.init" unicode="&#x647;" horiz-adv-x="505" arabic-form="initial" d="M-20 0v140h91q11 0 11 38q0 26 -3 74.5t-6 124.5q-1 26 29 34.5t85 8.5q45 0 105 -2.5t130 -1.5q3 -10 5 -48t4.5 -89.5t3.5 -104.5q2 -74 -2.5 -111.5t-15.5 -50t-30 -12.5h-407zM147 140h28.5h36.5q10 0 14 4t4 15q0 26 -2.5 62.5t-5.5 60.5q-19 1 -35.5 1h-27.5
q-10 0 -13 -5.5t-3 -25.5q0 -16 1.5 -43t2.5 -69zM294 140h28.5h36.5q10 0 14 4t4 15q0 26 -2.5 62.5t-5.5 60.5q-19 1 -35.5 1h-27.5q-10 0 -13 -5.5t-3 -25.5q0 -16 1.5 -43t2.5 -69z" />
            <glyph glyph-name="uni0647.medi" unicode="&#x647;" horiz-adv-x="501" arabic-form="medial" d="M287 140h28.5h36.5q10 0 14 4t4 15q0 26 -2.5 62.5t-5.5 60.5q-19 1 -35.5 1h-27.5q-10 0 -13 -5.5t-3 -25.5q0 -16 1.5 -43t2.5 -69zM-20 0v140h84q11 0 11 38q0 26 -3 74.5t-6 124.5q-1 26 29 34.5t85 8.5q45 0 105 -2.5t130 -1.5q3 -10 5 -48t4.5 -89.5t3.5 -104.5
q1 -23 5.5 -28.5t16.5 -5.5h71v-140h-541zM136 252q0 -16 1.5 -43t2.5 -69h28.5h36.5q10 0 14 4t4 15q0 26 -2.5 62.5t-5.5 60.5q-19 1 -35.5 1h-27.5q-10 0 -13 -5.5t-3 -25.5z" />
            <glyph glyph-name="uni0647.fina" unicode="&#x647;" horiz-adv-x="514" arabic-form="final" d="M372 157q0 32 -6 59t-24 27q-3 0 -16.5 -9t-32 -22.5t-36.5 -27.5t-30 -25t-12 -14t14.5 -5t33.5 -2h32q39 1 55 2.5t19 5.5t3 11zM442 140h92v-140h-146h-158h-141q-9 20 -17 50t-12.5 62t-4.5 58q0 6 21 26.5t54.5 49t72.5 59.5t75 58t62 45.5t33 20.5q14 0 32.5 -14
t19.5 -28q2 -18 3 -49t1.5 -65.5t1 -63.5t1.5 -43q1 -16 3 -21t7 -5z" />
            <glyph glyph-name="uni0629.fina" unicode="&#x629;" horiz-adv-x="514" arabic-form="final" d="M372 157q0 32 -6 59t-24 27q-3 0 -16.5 -9t-32 -22.5t-36.5 -27.5t-30 -25t-12 -14t14.5 -5t33.5 -2h32q39 1 55 2.5t19 5.5t3 11zM442 140h92v-140h-146h-158h-141q-9 20 -17 50t-12.5 62t-4.5 58q0 6 21 26.5t54.5 49t72.5 59.5t75 58t62 45.5t33 20.5q14 0 32.5 -14
t19.5 -28q2 -18 3 -49t1.5 -65.5t1 -63.5t1.5 -43q1 -16 3 -21t7 -5zM139 601q32 6 70 6h15.5t15.5 -1q6 -16 8.5 -40t2.5 -45q0 -27 -4.5 -48t-14.5 -23q-16 -4 -34 -5t-37 -1q-8 0 -16.5 0.5t-16.5 1.5q-6 16 -9 38.5t-3 44.5q0 28 5.5 49.5t17.5 22.5zM298 611q32 6 69 6
h15.5t15.5 -1q6 -16 8.5 -40t2.5 -45q0 -27 -4.5 -48t-14.5 -23q-16 -4 -34 -5t-37 -1q-8 0 -16.5 0.5t-16.5 1.5q-6 16 -9 38.5t-3 44.5q0 28 5.5 49.5t18.5 22.5z" />
            <glyph glyph-name="uni0648.fina" unicode="&#x648;" horiz-adv-x="529" arabic-form="final" d="M228 144q11 -1 30 -1h35q22 0 39 0.5t38 1.5q7 1 8.5 3t1.5 12q0 17 -2.5 39.5t-6 39.5t-7.5 17q-5 0 -28.5 -16t-53.5 -39.5t-57 -48.5q-4 -3 -3 -5.5t6 -2.5zM-119 -448q-14 11 -17 26q83 68 162.5 139t145 141t106.5 133q2 3 0.5 5t-14.5 3t-46 1h-114q-6 14 -13.5 38
t-13.5 50t-10 47.5t-4 31.5q0 6 23.5 29.5t60.5 55.5t79.5 67t80.5 65.5t63.5 49.5t28.5 19q4 0 13.5 -5t18 -11.5t8.5 -11.5q3 -49 5.5 -115.5t3.5 -133.5q1 -25 5 -30.5t14 -5.5h82v-140h-82q-89 -87 -181 -163.5t-192 -146.5t-213 -138z" />
            <glyph glyph-name="uni0624.fina" unicode="&#x624;" horiz-adv-x="616" arabic-form="final" d="M205 144q11 -1 30 -1h35q22 0 39 0.5t38 1.5q7 1 8.5 3t1.5 12q0 17 -2.5 39.5t-6 39.5t-7.5 17q-5 0 -28.5 -16t-53.5 -39.5t-57 -48.5q-4 -3 -3 -5.5t6 -2.5zM-213 -408q-14 11 -17 26q157 98 275 191t206 182q4 5 -2 7t-44 2h-124q-6 14 -13.5 38t-13.5 50t-10 47.5
t-4 31.5q0 6 23.5 29.5t60.5 55.5t79.5 67t80.5 65.5t63.5 49.5t28.5 19q4 0 13.5 -5t18 -11.5t8.5 -11.5q3 -49 5.5 -115.5t3.5 -133.5q1 -25 5 -30.5t14 -5.5h192v-140h-176q-81 -63 -158 -116t-157.5 -101t-168 -94.5t-189.5 -96.5zM384 217q-18 0 -20.5 14t1 36.5
t3.5 46.5q0 19 -4 40.5t0 37t29 15.5q9 0 11.5 10t11.5 8q1 -13 2.5 -15.5t6.5 -2.5h122q5 0 6.5 -17t1.5 -26h-124q-4 0 -6.5 -7.5t-2.5 -15t4 -7.5h121q5 0 6.5 -17t1.5 -27h-126q-3 0 -5 -7.5t-0.5 -15t5.5 -7.5h118q5 0 6.5 -16.5t1.5 -26.5h-123q-4 0 -5.5 -7.5
t-1.5 -33.5q-7 5 -14.5 14.5t-14 18t-12.5 8.5z" />
            <glyph glyph-name="uni06C6.fina" unicode="&#x6c6;" horiz-adv-x="529" arabic-form="final" d="M228 144q11 -1 30 -1h35q22 0 39 0.5t38 1.5q7 1 8.5 3t1.5 12q0 17 -2.5 39.5t-6 39.5t-7.5 17q-5 0 -28.5 -16t-53.5 -39.5t-57 -48.5q-4 -3 -3 -5.5t6 -2.5zM-119 -448q-14 11 -17 26q83 68 162.5 139t145 141t106.5 133q2 3 0.5 5t-14.5 3t-46 1h-114q-6 14 -13.5 38
t-13.5 50t-10 47.5t-4 31.5q0 6 23.5 29.5t60.5 55.5t79.5 67t80.5 65.5t63.5 49.5t28.5 19q4 0 13.5 -5t18 -11.5t8.5 -11.5q3 -49 5.5 -115.5t3.5 -133.5q1 -25 5 -30.5t14 -5.5h82v-140h-82q-89 -87 -181 -163.5t-192 -146.5t-213 -138zM67 590q0 6 8.5 14.5t19 15
t15.5 6.5l95 -115l95 115q13 -6 27.5 -19t11.5 -17l-119 -149q-15 -1 -31 0q-45 68 -122 149z" />
            <glyph glyph-name="uni06C8.fina" unicode="&#x6c8;" horiz-adv-x="529" arabic-form="final" d="M228 144q11 -1 30 -1h35q22 0 39 0.5t38 1.5q7 1 8.5 3t1.5 12q0 17 -2.5 39.5t-6 39.5t-7.5 17q-5 0 -28.5 -16t-53.5 -39.5t-57 -48.5q-4 -3 -3 -5.5t6 -2.5zM-119 -448q-14 11 -17 26q83 68 162.5 139t145 141t106.5 133q2 3 0.5 5t-14.5 3t-46 1h-114q-6 14 -13.5 38
t-13.5 50t-10 47.5t-4 31.5q0 6 23.5 29.5t60.5 55.5t79.5 67t80.5 65.5t63.5 49.5t28.5 19q4 0 13.5 -5t18 -11.5t8.5 -11.5q3 -49 5.5 -115.5t3.5 -133.5q1 -25 5 -30.5t14 -5.5h82v-140h-82q-89 -87 -181 -163.5t-192 -146.5t-213 -138zM217 448q-1 -7 -11.5 -9.5
t-20.5 -2.5q-2 56 -4 99t-5 82t-8 81v0v1q0 5 7 7q10 4 26 6t32 2q-4 -70 -8.5 -139t-7.5 -127z" />
            <glyph glyph-name="uni06C9.fina" unicode="&#x6c9;" horiz-adv-x="529" arabic-form="final" d="M228 144q11 -1 30 -1h35q22 0 39 0.5t38 1.5q7 1 8.5 3t1.5 12q0 17 -2.5 39.5t-6 39.5t-7.5 17q-5 0 -28.5 -16t-53.5 -39.5t-57 -48.5q-4 -3 -3 -5.5t6 -2.5zM-119 -448q-14 11 -17 26q83 68 162.5 139t145 141t106.5 133q2 3 0.5 5t-14.5 3t-46 1h-114q-6 14 -13.5 38
t-13.5 50t-10 47.5t-4 31.5q0 6 23.5 29.5t60.5 55.5t79.5 67t80.5 65.5t63.5 49.5t28.5 19q4 0 13.5 -5t18 -11.5t8.5 -11.5q3 -49 5.5 -115.5t3.5 -133.5q1 -25 5 -30.5t14 -5.5h82v-140h-82q-89 -87 -181 -163.5t-192 -146.5t-213 -138zM76 498q39 39 67 73t43 55l15 21
q10 0 25 -10.5t26 -24.5l94 -114q2 -2 -5 -10t-17 -16t-19 -12l-92 114l-90 -108q-5 0 -16.5 5.5t-21 13t-9.5 13.5z" />
            <glyph glyph-name="uni0649.init" unicode="&#x649;" horiz-adv-x="339" d="M202 246q11 5 27 7.5t29 2.5q4 -17 6.5 -43t2.5 -61q0 -37 -4 -72t-13 -57.5t-25 -22.5h-245v140h212q7 0 9.5 6.5t2.5 16.5q0 19 -7 42t-7 29q0 7 12 12z" />
            <glyph glyph-name="uni0649.medi" unicode="&#x649;" horiz-adv-x="329" d="M242 148q1 -8 17 -8h90v-140h-369v140h185q12 0 12 19q0 21 -6.5 45t-6.5 30q0 7 12 12q25 10 56 10q6 -30 7 -54t3 -54z" />
            <glyph glyph-name="uni0649.fina" unicode="&#x649;" horiz-adv-x="562" arabic-form="final" d="M-731 -222q65 -42 144 -63.5t165 -21.5q188 0 353 78t313 234q-48 14 -78 19t-61 9q-6 11 -12.5 34t-10.5 48t-4 42q77 25 134 56.5t103 67.5t91 74q26 -2 43.5 -11.5t19.5 -27.5q2 -16 2.5 -32t0.5 -42v-28.5v-35.5q0 -28 30.5 -33t79.5 -5v-140h-148q-17 0 -22 45
t-5 115q0 16 -3.5 21t-14.5 5q-9 0 -29.5 -9t-45 -20.5t-46.5 -21.5q42 -15 70 -27.5t29 -18.5q1 -5 1.5 -13.5t0.5 -19.5q0 -12 -1 -25t-4 -31q-17 -28 -54 -71.5t-91.5 -93t-123.5 -98t-150 -88.5t-171.5 -64t-186.5 -24q-81 0 -147 16t-120 46q-15 8 -27 35t-18.5 60.5
t-5.5 59.5z" />
            <glyph glyph-name="uni064A.init" unicode="&#x64a;" horiz-adv-x="339" arabic-form="initial" d="M202 246q11 5 27 7.5t29 2.5q4 -17 6.5 -43t2.5 -61q0 -37 -4 -72t-13 -57.5t-25 -22.5h-245v140h212q7 0 9.5 6.5t2.5 16.5q0 19 -7 42t-7 29q0 7 12 12zM10 -50q32 6 70 6h15.5t15.5 -1q6 -16 8.5 -40t2.5 -45q0 -27 -4.5 -48t-14.5 -23q-16 -4 -34 -5t-37 -1
q-8 0 -16.5 0.5t-16.5 1.5q-6 16 -9 38.5t-3 44.5q0 28 5.5 49.5t17.5 22.5zM169 -40q32 6 69 6h15.5t15.5 -1q6 -16 8.5 -40t2.5 -45q0 -27 -4.5 -48t-14.5 -23q-16 -4 -34 -5t-37 -1q-8 0 -16.5 0.5t-16.5 1.5q-6 16 -9 38.5t-3 44.5q0 28 5.5 49.5t18.5 22.5z" />
            <glyph glyph-name="uni064A.medi" unicode="&#x64a;" horiz-adv-x="329" arabic-form="medial" d="M242 148q1 -8 17 -8h90v-140h-369v140h185q12 0 12 19q0 21 -6.5 45t-6.5 30q0 7 12 12q25 10 56 10q6 -30 7 -54t3 -54zM37 -50q32 6 70 6h15.5t15.5 -1q6 -16 8.5 -40t2.5 -45q0 -27 -4.5 -48t-14.5 -23q-16 -4 -34 -5t-37 -1q-8 0 -16.5 0.5t-16.5 1.5q-6 16 -9 38.5
t-3 44.5q0 28 5.5 49.5t17.5 22.5zM196 -40q32 6 69 6h15.5t15.5 -1q6 -16 8.5 -40t2.5 -45q0 -27 -4.5 -48t-14.5 -23q-16 -4 -34 -5t-37 -1q-8 0 -16.5 0.5t-16.5 1.5q-6 16 -9 38.5t-3 44.5q0 28 5.5 49.5t18.5 22.5z" />
            <glyph glyph-name="uni064A.fina" unicode="&#x64a;" horiz-adv-x="562" arabic-form="final" d="M-731 -222q65 -42 144 -63.5t165 -21.5q188 0 353 78t313 234q-48 14 -78 19t-61 9q-6 11 -12.5 34t-10.5 48t-4 42q77 25 134 56.5t103 67.5t91 74q26 -2 43.5 -11.5t19.5 -27.5q2 -16 2.5 -32t0.5 -42v-28.5v-35.5q0 -28 30.5 -33t79.5 -5v-140h-148q-17 0 -22 45
t-5 115q0 16 -3.5 21t-14.5 5q-9 0 -29.5 -9t-45 -20.5t-46.5 -21.5q42 -15 70 -27.5t29 -18.5q1 -5 1.5 -13.5t0.5 -19.5q0 -12 -1 -25t-4 -31q-17 -28 -54 -71.5t-91.5 -93t-123.5 -98t-150 -88.5t-171.5 -64t-186.5 -24q-81 0 -147 16t-120 46q-15 8 -27 35t-18.5 60.5
t-5.5 59.5zM-427 -475q32 6 70 6h15.5t15.5 -1q6 -16 8.5 -40t2.5 -45q0 -27 -4.5 -48t-14.5 -23q-16 -4 -34 -5t-37 -1q-8 0 -16.5 0.5t-16.5 1.5q-6 16 -9 38.5t-3 44.5q0 28 5.5 49.5t17.5 22.5zM-268 -465q32 6 69 6h15.5t15.5 -1q6 -16 8.5 -40t2.5 -45q0 -27 -4.5 -48
t-14.5 -23q-16 -4 -34 -5t-37 -1q-8 0 -16.5 0.5t-16.5 1.5q-6 16 -9 38.5t-3 44.5q0 28 5.5 49.5t18.5 22.5z" />
            <glyph glyph-name="uni0626.init" unicode="&#x626;" horiz-adv-x="339" arabic-form="initial" d="M202 246q11 5 27 7.5t29 2.5q4 -17 6.5 -43t2.5 -61q0 -37 -4 -72t-13 -57.5t-25 -22.5h-245v140h212q7 0 9.5 6.5t2.5 16.5q0 19 -7 42t-7 29q0 7 12 12zM143 322q-13 0 -17.5 7.5t-4.5 19.5q0 14 3 32.5t3 37.5q0 14 -3 30.5t-3 29.5q0 14 6 23.5t25 9.5h154
q5 0 6.5 -17t1.5 -26h-126q-7 0 -10.5 -8t-3.5 -14q0 -8 4 -8h128q5 0 6.5 -17t1.5 -27h-129q-5 0 -8 -6.5t-3 -12.5q0 -11 7 -11h125q5 0 6.5 -16.5t1.5 -26.5h-171z" />
            <glyph glyph-name="uni0626.medi" unicode="&#x626;" horiz-adv-x="329" arabic-form="medial" d="M242 148q1 -8 17 -8h90v-140h-369v140h185q12 0 12 19q0 21 -6.5 45t-6.5 30q0 7 12 12q25 10 56 10q6 -30 7 -54t3 -54zM116 324q-13 0 -17.5 7.5t-4.5 19.5q0 14 3 32.5t3 37.5q0 14 -3 30.5t-3 29.5q0 14 6 23.5t25 9.5h154q5 0 6.5 -17t1.5 -26h-126q-7 0 -10.5 -8
t-3.5 -14q0 -8 4 -8h128q5 0 6.5 -17t1.5 -27h-129q-5 0 -8 -6.5t-3 -12.5q0 -11 7 -11h125q5 0 6.5 -16.5t1.5 -26.5h-171z" />
            <glyph glyph-name="uni0626.fina" unicode="&#x626;" horiz-adv-x="562" arabic-form="final" d="M-731 -222q65 -42 144 -63.5t165 -21.5q188 0 353 78t313 234q-48 14 -78 19t-61 9q-6 11 -12.5 34t-10.5 48t-4 42q77 25 134 56.5t103 67.5t91 74q26 -2 43.5 -11.5t19.5 -27.5q2 -16 2.5 -32t0.5 -42v-28.5v-35.5q0 -28 30.5 -33t79.5 -5v-140h-148q-17 0 -22 45
t-5 115q0 16 -3.5 21t-14.5 5q-9 0 -29.5 -9t-45 -20.5t-46.5 -21.5q42 -15 70 -27.5t29 -18.5q1 -5 1.5 -13.5t0.5 -19.5q0 -12 -1 -25t-4 -31q-17 -28 -54 -71.5t-91.5 -93t-123.5 -98t-150 -88.5t-171.5 -64t-186.5 -24q-81 0 -147 16t-120 46q-15 8 -27 35t-18.5 60.5
t-5.5 59.5zM113 341q-13 0 -17.5 7.5t-4.5 19.5q0 14 3 32.5t3 37.5q0 14 -3 30.5t-3 29.5q0 14 6 23.5t25 9.5h154q5 0 6.5 -17t1.5 -26h-126q-7 0 -10.5 -8t-3.5 -14q0 -8 4 -8h128q5 0 6.5 -17t1.5 -27h-129q-5 0 -8 -6.5t-3 -12.5q0 -11 7 -11h125q5 0 6.5 -16.5
t1.5 -26.5h-171z" />
            <glyph glyph-name="uni06CC.init" unicode="&#x6cc;" horiz-adv-x="339" arabic-form="initial" d="M202 246q11 5 27 7.5t29 2.5q4 -17 6.5 -43t2.5 -61q0 -37 -4 -72t-13 -57.5t-25 -22.5h-245v140h212q7 0 9.5 6.5t2.5 16.5q0 19 -7 42t-7 29q0 7 12 12zM10 -50q32 6 70 6h15.5t15.5 -1q6 -16 8.5 -40t2.5 -45q0 -27 -4.5 -48t-14.5 -23q-16 -4 -34 -5t-37 -1
q-8 0 -16.5 0.5t-16.5 1.5q-6 16 -9 38.5t-3 44.5q0 28 5.5 49.5t17.5 22.5zM169 -40q32 6 69 6h15.5t15.5 -1q6 -16 8.5 -40t2.5 -45q0 -27 -4.5 -48t-14.5 -23q-16 -4 -34 -5t-37 -1q-8 0 -16.5 0.5t-16.5 1.5q-6 16 -9 38.5t-3 44.5q0 28 5.5 49.5t18.5 22.5z" />
            <glyph glyph-name="uni06CC.medi" unicode="&#x6cc;" horiz-adv-x="329" arabic-form="medial" d="M242 148q1 -8 17 -8h90v-140h-369v140h185q12 0 12 19q0 21 -6.5 45t-6.5 30q0 7 12 12q25 10 56 10q6 -30 7 -54t3 -54zM37 -50q32 6 70 6h15.5t15.5 -1q6 -16 8.5 -40t2.5 -45q0 -27 -4.5 -48t-14.5 -23q-16 -4 -34 -5t-37 -1q-8 0 -16.5 0.5t-16.5 1.5q-6 16 -9 38.5
t-3 44.5q0 28 5.5 49.5t17.5 22.5zM196 -40q32 6 69 6h15.5t15.5 -1q6 -16 8.5 -40t2.5 -45q0 -27 -4.5 -48t-14.5 -23q-16 -4 -34 -5t-37 -1q-8 0 -16.5 0.5t-16.5 1.5q-6 16 -9 38.5t-3 44.5q0 28 5.5 49.5t18.5 22.5z" />
            <glyph glyph-name="uni06CC.fina" unicode="&#x6cc;" horiz-adv-x="562" arabic-form="final" d="M-731 -222q65 -42 144 -63.5t165 -21.5q188 0 353 78t313 234q-48 14 -78 19t-61 9q-6 11 -12.5 34t-10.5 48t-4 42q77 25 134 56.5t103 67.5t91 74q26 -2 43.5 -11.5t19.5 -27.5q2 -16 2.5 -32t0.5 -42v-28.5v-35.5q0 -28 30.5 -33t79.5 -5v-140h-148q-17 0 -22 45
t-5 115q0 16 -3.5 21t-14.5 5q-9 0 -29.5 -9t-45 -20.5t-46.5 -21.5q42 -15 70 -27.5t29 -18.5q1 -5 1.5 -13.5t0.5 -19.5q0 -12 -1 -25t-4 -31q-17 -28 -54 -71.5t-91.5 -93t-123.5 -98t-150 -88.5t-171.5 -64t-186.5 -24q-81 0 -147 16t-120 46q-15 8 -27 35t-18.5 60.5
t-5.5 59.5z" />
            <glyph glyph-name="uni063F.init" unicode="&#x63f;" horiz-adv-x="339" d="M202 246q11 5 27 7.5t29 2.5q4 -17 6.5 -43t2.5 -61q0 -37 -4 -72t-13 -57.5t-25 -22.5h-245v140h212q7 0 9.5 6.5t2.5 16.5q0 19 -7 42t-7 29q0 7 12 12zM10 -50q32 6 70 6h15.5t15.5 -1q6 -16 8.5 -40t2.5 -45q0 -27 -4.5 -48t-14.5 -23q-16 -4 -34 -5t-37 -1
q-8 0 -16.5 0.5t-16.5 1.5q-6 16 -9 38.5t-3 44.5q0 28 5.5 49.5t17.5 22.5zM169 -40q32 6 69 6h15.5t15.5 -1q6 -16 8.5 -40t2.5 -45q0 -27 -4.5 -48t-14.5 -23q-16 -4 -34 -5t-37 -1q-8 0 -16.5 0.5t-16.5 1.5q-6 16 -9 38.5t-3 44.5q0 28 5.5 49.5t18.5 22.5zM88 452
q32 6 70 6h15.5t15.5 -1q6 -16 8.5 -40t2.5 -45q0 -27 -4.5 -48t-14.5 -23q-16 -4 -34 -5t-37 -1q-8 0 -16.5 0.5t-16.5 1.5q-6 16 -9 38.5t-3 44.5q0 28 5.5 49.5t17.5 22.5zM247 462q32 6 69 6h15.5t15.5 -1q6 -16 8.5 -40t2.5 -45q0 -27 -4.5 -48t-14.5 -23
q-16 -4 -34 -5t-37 -1q-8 0 -16.5 0.5t-16.5 1.5q-6 16 -9 38.5t-3 44.5q0 28 5.5 49.5t18.5 22.5zM144 653q10 5 38 7t56 2h26t22 -2q6 -18 9 -43.5t3 -49.5q0 -61 -21 -75q-7 -5 -35.5 -7.5t-59.5 -2.5q-14 0 -27 0.5t-24 1.5q-6 18 -9 42.5t-3 48.5q0 31 6.5 52t18.5 26z
" />
            <glyph glyph-name="uni063F.medi" unicode="&#x63f;" horiz-adv-x="329" d="M242 148q1 -8 17 -8h90v-140h-369v140h185q12 0 12 19q0 21 -6.5 45t-6.5 30q0 7 12 12q25 10 56 10q6 -30 7 -54t3 -54zM37 -50q32 6 70 6h15.5t15.5 -1q6 -16 8.5 -40t2.5 -45q0 -27 -4.5 -48t-14.5 -23q-16 -4 -34 -5t-37 -1q-8 0 -16.5 0.5t-16.5 1.5q-6 16 -9 38.5
t-3 44.5q0 28 5.5 49.5t17.5 22.5zM196 -40q32 6 69 6h15.5t15.5 -1q6 -16 8.5 -40t2.5 -45q0 -27 -4.5 -48t-14.5 -23q-16 -4 -34 -5t-37 -1q-8 0 -16.5 0.5t-16.5 1.5q-6 16 -9 38.5t-3 44.5q0 28 5.5 49.5t18.5 22.5zM50 454q32 6 70 6h15.5t15.5 -1q6 -16 8.5 -40
t2.5 -45q0 -27 -4.5 -48t-14.5 -23q-16 -4 -34 -5t-37 -1q-8 0 -16.5 0.5t-16.5 1.5q-6 16 -9 38.5t-3 44.5q0 28 5.5 49.5t17.5 22.5zM209 464q32 6 69 6h15.5t15.5 -1q6 -16 8.5 -40t2.5 -45q0 -27 -4.5 -48t-14.5 -23q-16 -4 -34 -5t-37 -1q-8 0 -16.5 0.5t-16.5 1.5
q-6 16 -9 38.5t-3 44.5q0 28 5.5 49.5t18.5 22.5zM106 655q10 5 38 7t56 2h26t22 -2q6 -18 9 -43.5t3 -49.5q0 -61 -21 -75q-7 -5 -35.5 -7.5t-59.5 -2.5q-14 0 -27 0.5t-24 1.5q-6 18 -9 42.5t-3 48.5q0 31 6.5 52t18.5 26z" />
            <glyph glyph-name="uni063F.fina" unicode="&#x63f;" horiz-adv-x="562" d="M-731 -222q65 -42 144 -63.5t165 -21.5q188 0 353 78t313 234q-48 14 -78 19t-61 9q-6 11 -12.5 34t-10.5 48t-4 42q77 25 134 56.5t103 67.5t91 74q26 -2 43.5 -11.5t19.5 -27.5q2 -16 2.5 -32t0.5 -42v-28.5v-35.5q0 -28 30.5 -33t79.5 -5v-140h-148q-17 0 -22 45
t-5 115q0 16 -3.5 21t-14.5 5q-9 0 -29.5 -9t-45 -20.5t-46.5 -21.5q42 -15 70 -27.5t29 -18.5q1 -5 1.5 -13.5t0.5 -19.5q0 -12 -1 -25t-4 -31q-17 -28 -54 -71.5t-91.5 -93t-123.5 -98t-150 -88.5t-171.5 -64t-186.5 -24q-81 0 -147 16t-120 46q-15 8 -27 35t-18.5 60.5
t-5.5 59.5zM32 465q32 6 70 6h15.5t15.5 -1q6 -16 8.5 -40t2.5 -45q0 -27 -4.5 -48t-14.5 -23q-16 -4 -34 -5t-37 -1q-8 0 -16.5 0.5t-16.5 1.5q-6 16 -9 38.5t-3 44.5q0 28 5.5 49.5t17.5 22.5zM191 475q32 6 69 6h15.5t15.5 -1q6 -16 8.5 -40t2.5 -45q0 -27 -4.5 -48
t-14.5 -23q-16 -4 -34 -5t-37 -1q-8 0 -16.5 0.5t-16.5 1.5q-6 16 -9 38.5t-3 44.5q0 28 5.5 49.5t18.5 22.5zM88 666q10 5 38 7t56 2h26t22 -2q6 -18 9 -43.5t3 -49.5q0 -61 -21 -75q-7 -5 -35.5 -7.5t-59.5 -2.5q-14 0 -27 0.5t-24 1.5q-6 18 -9 42.5t-3 48.5q0 31 6.5 52
t18.5 26z" />
            <glyph glyph-name="uni06D0.init" unicode="&#x6d0;" horiz-adv-x="314" arabic-form="initial" d="M106 -220q35 6 76 6h16.5t17.5 -1q7 -16 9.5 -40t2.5 -45q0 -27 -4.5 -48t-15.5 -23q-18 -4 -38 -5t-40 -1q-9 0 -18 0.5t-18 1.5q-7 16 -10 38.5t-3 44.5q0 28 6 49.5t19 22.5zM107 -34q17 4 35.5 5t39.5 1h16.5t17.5 -1q7 -16 9.5 -40t2.5 -45q0 -27 -4.5 -48
t-15.5 -23q-18 -4 -38 -5t-40 -1q-9 0 -18 0.5t-18 1.5q-7 16 -10 38.5t-3 44.5q0 28 6 48.5t20 23.5zM202 246q11 5 27 7.5t29 2.5q4 -17 6.5 -43t2.5 -61q0 -37 -4 -72t-13 -57.5t-25 -22.5h-245v140h212q7 0 9.5 6.5t2.5 16.5q0 19 -7 42t-7 29q0 7 12 12z" />
            <glyph glyph-name="uni06D0.medi" unicode="&#x6d0;" horiz-adv-x="329" arabic-form="medial" d="M125 -220q35 6 76 6h16.5t17.5 -1q7 -16 9.5 -40t2.5 -45q0 -27 -4.5 -48t-15.5 -23q-18 -4 -38 -5t-40 -1q-9 0 -18 0.5t-18 1.5q-7 16 -10 38.5t-3 44.5q0 28 6 49.5t19 22.5zM126 -34q17 4 35.5 5t39.5 1h16.5t17.5 -1q7 -16 9.5 -40t2.5 -45q0 -27 -4.5 -48
t-15.5 -23q-18 -4 -38 -5t-40 -1q-9 0 -18 0.5t-18 1.5q-7 16 -10 38.5t-3 44.5q0 28 6 48.5t20 23.5zM242 148q1 -8 17 -8h90v-140h-369v140h185q12 0 12 19q0 21 -6.5 45t-6.5 30q0 7 12 12q25 10 56 10q6 -30 7 -54t3 -54z" />
            <glyph glyph-name="uni06D0.fina" unicode="&#x6d0;" horiz-adv-x="562" arabic-form="final" d="M-731 -222q65 -42 144 -63.5t165 -21.5q188 0 353 78t313 234q-48 14 -78 19t-61 9q-6 11 -12.5 34t-10.5 48t-4 42q77 25 134 56.5t103 67.5t91 74q26 -2 43.5 -11.5t19.5 -27.5q2 -16 2.5 -32t0.5 -42v-28.5v-35.5q0 -28 30.5 -33t79.5 -5v-140h-148q-17 0 -22 45
t-5 115q0 16 -3.5 21t-14.5 5q-9 0 -29.5 -9t-45 -20.5t-46.5 -21.5q42 -15 70 -27.5t29 -18.5q1 -5 1.5 -13.5t0.5 -19.5q0 -12 -1 -25t-4 -31q-17 -28 -54 -71.5t-91.5 -93t-123.5 -98t-150 -88.5t-171.5 -64t-186.5 -24q-81 0 -147 16t-120 46q-15 8 -27 35t-18.5 60.5
t-5.5 59.5zM-471 -665q35 6 76 6h16.5t17.5 -1q7 -16 9.5 -40t2.5 -45q0 -27 -4.5 -48t-15.5 -23q-18 -4 -38 -5t-40 -1q-9 0 -18 0.5t-18 1.5q-7 16 -10 38.5t-3 44.5q0 28 6 49.5t19 22.5zM-470 -479q17 4 35.5 5t39.5 1h16.5t17.5 -1q7 -16 9.5 -40t2.5 -45
q0 -27 -4.5 -48t-15.5 -23q-18 -4 -38 -5t-40 -1q-9 0 -18 0.5t-18 1.5q-7 16 -10 38.5t-3 44.5q0 28 6 48.5t20 23.5z" />
            <glyph glyph-name="uni06D1.init" unicode="&#x6d1;" horiz-adv-x="339" d="M202 246q11 5 27 7.5t29 2.5q4 -17 6.5 -43t2.5 -61q0 -37 -4 -72t-13 -57.5t-25 -22.5h-245v140h212q7 0 9.5 6.5t2.5 16.5q0 19 -7 42t-7 29q0 7 12 12zM27 -40q32 6 70 6h15.5t15.5 -1q6 -16 8.5 -40t2.5 -45q0 -27 -4.5 -48t-14.5 -23q-16 -4 -34 -5t-37 -1
q-8 0 -16.5 0.5t-16.5 1.5q-6 16 -9 38.5t-3 44.5q0 28 5.5 49.5t17.5 22.5zM186 -30q32 6 69 6h15.5t15.5 -1q6 -16 8.5 -40t2.5 -45q0 -27 -4.5 -48t-14.5 -23q-16 -4 -34 -5t-37 -1q-8 0 -16.5 0.5t-16.5 1.5q-6 16 -9 38.5t-3 44.5q0 28 5.5 49.5t18.5 22.5zM89 -219
q10 5 38 7t56 2h26t22 -2q6 -18 9 -43.5t3 -49.5q0 -61 -21 -75q-7 -5 -35.5 -7.5t-59.5 -2.5q-14 0 -27 0.5t-24 1.5q-6 18 -9 42.5t-3 48.5q0 31 6.5 52t18.5 26z" />
            <glyph glyph-name="uni06D1.medi" unicode="&#x6d1;" horiz-adv-x="329" d="M242 148q1 -8 17 -8h90v-140h-369v140h185q12 0 12 19q0 21 -6.5 45t-6.5 30q0 7 12 12q25 10 56 10q6 -30 7 -54t3 -54zM34 -50q32 6 70 6h15.5t15.5 -1q6 -16 8.5 -40t2.5 -45q0 -27 -4.5 -48t-14.5 -23q-16 -4 -34 -5t-37 -1q-8 0 -16.5 0.5t-16.5 1.5q-6 16 -9 38.5
t-3 44.5q0 28 5.5 49.5t17.5 22.5zM193 -40q32 6 69 6h15.5t15.5 -1q6 -16 8.5 -40t2.5 -45q0 -27 -4.5 -48t-14.5 -23q-16 -4 -34 -5t-37 -1q-8 0 -16.5 0.5t-16.5 1.5q-6 16 -9 38.5t-3 44.5q0 28 5.5 49.5t18.5 22.5zM96 -229q10 5 38 7t56 2h26t22 -2q6 -18 9 -43.5
t3 -49.5q0 -61 -21 -75q-7 -5 -35.5 -7.5t-59.5 -2.5q-14 0 -27 0.5t-24 1.5q-6 18 -9 42.5t-3 48.5q0 31 6.5 52t18.5 26z" />
            <glyph glyph-name="uni06D1.fina" unicode="&#x6d1;" horiz-adv-x="522" d="M-269 -351q32 6 70 6h15.5t15.5 -1q6 -16 8.5 -40t2.5 -45q0 -27 -4.5 -48t-14.5 -23q-16 -4 -34 -5t-37 -1q-8 0 -16.5 0.5t-16.5 1.5q-6 16 -9 38.5t-3 44.5q0 28 5.5 49.5t17.5 22.5zM-110 -341q32 6 69 6h15.5t15.5 -1q6 -16 8.5 -40t2.5 -45q0 -27 -4.5 -48
t-14.5 -23q-16 -4 -34 -5t-37 -1q-8 0 -16.5 0.5t-16.5 1.5q-6 16 -9 38.5t-3 44.5q0 28 5.5 49.5t18.5 22.5zM-207 -530q10 5 38 7t56 2h26t22 -2q6 -18 9 -43.5t3 -49.5q0 -61 -21 -75q-7 -5 -35.5 -7.5t-59.5 -2.5q-14 0 -27 0.5t-24 1.5q-6 18 -9 42.5t-3 48.5
q0 31 6.5 52t18.5 26zM502 316q2 -16 2.5 -32t0.5 -42v-28.5v-35.5q0 -28 10.5 -33t29.5 -5v-140h-78q-17 0 -22 45t-5 115q0 16 -4.5 21t-15.5 5q-5 0 -26 -8.5t-47.5 -20t-48.5 -22.5q42 -16 70 -28.5t29 -18.5q1 -7 1.5 -14t0.5 -15q0 -16 -1.5 -36.5t-3.5 -32.5
q-117 -164 -244 -235t-251 -71q-86 0 -159.5 24t-131.5 67q-18 13 -24 41.5t-6 57.5q0 13 1 25t5 23q74 -56 154.5 -84t161.5 -28q107 0 206 49t169 146q-38 14 -64.5 19.5t-65.5 8.5q-6 11 -12.5 34t-10.5 48t-4 42q77 25 133.5 56.5t102 67.5t87.5 74q26 -2 43 -11.5
t18 -27.5z" />
            <glyph glyph-name="uni06D2.fina" unicode="&#x6d2;" horiz-adv-x="402" arabic-form="final" d="M162 140h260v-140h-340zM188 196q-1 -39 -15.5 -81.5t-32.5 -80t-32 -62.5t-14 -30q0 -9 6.5 -11t19.5 -2h286q9 -21 15 -53.5t6 -61.5q0 -16 -2.5 -20.5t-13.5 -4.5h-383q-16 0 -29.5 9t-13.5 49q0 35 16 72t39.5 82t47 101t37.5 127q22 -1 37 -10t26 -23z" />
            <glyph glyph-name="uni06D3.fina" unicode="&#x6d3;" horiz-adv-x="402" arabic-form="final" d="M73 263q-13 0 -17.5 7.5t-4.5 19.5q0 14 3 32.5t3 37.5q0 14 -3 30.5t-3 29.5q0 14 6 23.5t25 9.5h154q5 0 6.5 -17t1.5 -26h-126q-7 0 -10.5 -8t-3.5 -14q0 -8 4 -8h128q5 0 6.5 -17t1.5 -27h-129q-5 0 -8 -6.5t-3 -12.5q0 -11 7 -11h125q5 0 6.5 -16.5t1.5 -26.5h-171z
M162 140h260v-140h-340zM188 196q-1 -39 -15.5 -81.5t-32.5 -80t-32 -62.5t-14 -30q0 -9 6.5 -11t19.5 -2h286q9 -21 15 -53.5t6 -61.5q0 -16 -2.5 -20.5t-13.5 -4.5h-383q-16 0 -29.5 9t-13.5 49q0 35 16 72t39.5 82t47 101t37.5 127q22 -1 37 -10t26 -23z" />
            <glyph glyph-name="uniFDF2" unicode="&#xfdf2;" horiz-adv-x="938" arabic-form="isolated" d="M372 157q0 32 -6 59t-24 27q-3 0 -16.5 -9t-32 -22.5t-36.5 -27.5t-30 -25t-12 -14t14.5 -5t33.5 -2h32q39 1 55 2.5t19 5.5t3 11zM55 170q0 6 21 26.5t54.5 49t72.5 59.5t75 58t62 45.5t33 20.5q14 0 32.5 -14t19.5 -28q2 -18 3 -49t1.5 -65.5t1 -63.5t1.5 -43
q1 -16 3 -21t7 -5h74q11 0 13 21t0 55q-2 38 -8.5 54t-14.5 21.5t-14 10.5t-7 20q-1 30 -2.5 68t-2.5 75q14 14 32.5 26.5t34.5 24.5q18 14 34 -1q1 -12 2.5 -41t2.5 -67t1.5 -78.5t1 -76.5t0.5 -60q0 -18 4.5 -35t18.5 -17h72q5 0 7.5 5.5t3.5 29t-2 78.5q-1 27 -8.5 39
t-16 16.5t-15 10.5t-7.5 21q-1 38 -2.5 73.5t-2.5 72.5q14 11 32.5 26t34.5 21q11 4 19 2t15 -7q1 -12 2.5 -46.5t2.5 -79.5t2 -91t1.5 -82t0.5 -51q-1 -78 -4 -116t-11 -50t-24 -12h-623q-9 20 -17 50t-12.5 62t-4.5 58zM869 -14q-1 -13 -15.5 -17.5t-25.5 -4.5
q-4 124 -9.5 264t-13.5 298v1.5v1.5q0 7 10 13q13 6 32.5 10t39.5 4q-2 -85 -4.5 -170t-5 -161.5t-5 -138t-3.5 -100.5z" />
            <glyph glyph-name=".notdef" horiz-adv-x="1033" d="M60 -226v925h913v-925h-913zM76 -209h881v891h-881v-891zM96 -52q46 -13 94 -20.5t95 -7.5q107 0 204 37t163 116q2 33 3 52.5t1 44.5q0 31 -3 63.5t-8 66.5v1v1q0 2 3 3.5t7 4.5q21 8 47 8q3 -20 5.5 -57.5t2.5 -96.5q0 -16 2.5 -20t12.5 -4h33q6 0 7.5 7.5t1.5 27.5
q-1 59 -7 89.5t-6 35.5q0 4 10 10q21 8 47 8q3 -20 5.5 -55.5t2.5 -109.5q0 -10 1.5 -11.5t6.5 -1.5h35q8 0 11 6.5t3 28.5q0 59 -6.5 89.5t-6.5 35.5q0 4 10 10q10 4 23.5 6t23.5 2q2 -14 4 -31.5t3.5 -46t1.5 -76.5q0 -61 -7.5 -100.5t-27.5 -39.5h-172
q-51 -67 -119.5 -114t-145.5 -71t-155 -24q-37 0 -73.5 5.5t-71.5 16.5q-14 5 -28 22.5t-23.5 41.5t-9.5 47zM681 489q13 3 27 4t30 1h13t13 -1q5 -13 7 -33t2 -37q0 -22 -4 -39.5t-12 -19.5q-13 -3 -28 -3.5t-30 -0.5h-13.5t-13.5 1q-5 14 -7.5 32t-2.5 37q0 23 4.5 40.5
t14.5 18.5zM812 497q13 3 27 4t30 1h12.5h13.5q5 -14 7 -33.5t2 -37.5q0 -22 -4 -39t-12 -19q-13 -3 -28 -4t-31 -1q-7 0 -13.5 0.5t-13.5 0.5q-5 14 -7.5 32t-2.5 37q0 23 5 40.5t15 18.5zM727 655q8 4 31 6t47 2h21.5t17.5 -2q5 -15 7.5 -36t2.5 -41q0 -50 -17 -62
q-6 -4 -29.5 -6t-49.5 -2q-11 0 -22 0.5t-20 1.5q-10 33 -10 75q0 26 5.5 43t15.5 21z" />
            <glyph glyph-name=".null" />
            <glyph glyph-name="nonmarkingreturn" horiz-adv-x="100" />
            <glyph glyph-name="space" unicode=" " horiz-adv-x="200" />
            <glyph glyph-name="space.ar" horiz-adv-x="70" />
            <glyph glyph-name="tab" horiz-adv-x="600" />
            <glyph glyph-name="exclam" unicode="!" horiz-adv-x="263" d="M68 743q41 -6 74 -15.5t61 -26.5q-11 -104 -20.5 -190.5t-15.5 -168t-9 -171.5h-60q-5 90 -12.5 171.5t-20.5 170.5t-35 198zM128 119q15 0 28.5 -2t28.5 -6q3 -15 4.5 -28t1.5 -28q0 -26 -6 -55q-15 -2 -28.5 -5t-28.5 -3q-12 0 -25 3t-29 5q-2 14 -4.5 27.5t-2.5 27.5
q0 15 2.5 28t4.5 28q16 4 29 6t25 2z" />
            <glyph glyph-name="quotedbl" unicode="&#x22;" horiz-adv-x="465" d="M95 477q-10 82 -15 143.5t-9 120.5q27 12 57 12q20 0 39 -4t34 -11q-7 -52 -19.5 -116t-42.5 -150zM262 477q-10 82 -15 143.5t-9 120.5q27 12 57 12q20 0 39 -4t34 -11q-7 -52 -19.5 -116t-42.5 -150z" />
            <glyph glyph-name="numbersign" unicode="#" horiz-adv-x="738" d="M428 584l-239 -722h-96l238 722h97zM648 584l-239 -722h-96l239 722h96zM672 165v-80h-659v80h659zM725 359v-79h-660v79h660z" />
            <glyph glyph-name="dollar" unicode="$" horiz-adv-x="602" d="M288 -65h-63q3 89 4 190t1 205.5t-1 205.5t-4 190h63q-3 -89 -4 -190t-1 -205.5t1 -205.5t4 -190zM378 -65h-63q3 89 4 190t1 205.5t-1 205.5t-4 190h63q-3 -89 -4 -190t-1 -205.5t1 -205.5t4 -190zM307 673q56 0 115 -12.5t101 -33.5q-11 -49 -19 -85.5t-16 -75.5h-66
l-10 109q-15 20 -45 30.5t-63 10.5q-40 0 -72 -22t-32 -64q0 -33 25 -55.5t64.5 -41t84 -38.5t84.5 -47.5t65 -68.5t25 -102q0 -66 -38 -107.5t-98.5 -60.5t-128.5 -19q-62 0 -123 15t-105 42q10 45 18 80.5t16 84.5h67l14 -130q23 -16 50.5 -25t57.5 -9q48 0 85 23.5
t37 77.5q0 42 -24.5 68t-62.5 44t-80.5 35t-81 40t-62.5 59t-24 93q0 62 33 103t88.5 61.5t120.5 20.5z" />
            <glyph glyph-name="percent" unicode="%" horiz-adv-x="770" d="M192 671q69 0 115 -42t46 -121t-46 -121t-115 -42q-70 0 -116 42t-46 121t46 121t116 42zM192 626q-26 0 -43.5 -29.5t-17.5 -88.5q0 -58 17.5 -88t43.5 -30t43 30t17 88q0 59 -17 88.5t-43 29.5zM653 683l-440 -701h-90l439 701h91zM589 320q69 0 115 -42t46 -121
t-46 -121t-115 -42q-70 0 -116 42t-46 121t46 121t116 42zM589 275q-26 0 -43.5 -29.5t-17.5 -88.5q0 -58 17.5 -88t43.5 -30t43 30t17 88q0 59 -17 88.5t-43 29.5z" />
            <glyph glyph-name="ampersand" unicode="&#x26;" horiz-adv-x="759" d="M595 104q25 11 52.5 25t47.5 24l14 -35q-45 -38 -80.5 -71.5t-74.5 -70.5q-35 15 -87 59.5t-113.5 109.5t-128.5 143q-29 34 -59.5 69t-51.5 72t-21 78q0 43 23.5 78.5t68.5 57t109 21.5q38 0 88.5 -9t100.5 -35q-7 -35 -16.5 -76.5t-18.5 -78.5h-53l-23 109
q-25 23 -51 31t-56 8q-20 -13 -27.5 -37t-7.5 -44q0 -35 21 -67.5t58 -71t85 -93.5q53 -59 102.5 -112.5t98.5 -83.5zM250 363q-36 -29 -53 -68.5t-17 -80.5q0 -40 15.5 -75t45 -56.5t70.5 -21.5q52 0 91 24.5t65.5 65t39.5 89t13 95.5q0 40 -9 74l112 -11
q-22 -144 -77 -233.5t-129.5 -131t-157.5 -41.5q-71 0 -120 27t-74 70.5t-25 91.5q0 43 20.5 84t62.5 73.5t106 48.5zM739 340q-85 9 -172 17.5t-170 8.5l16 54h314z" />
            <glyph glyph-name="quotesingle" unicode="'" horiz-adv-x="298" d="M95 477q-10 82 -15 143.5t-9 120.5q27 12 57 12q20 0 39 -4t34 -11q-7 -52 -19.5 -116t-42.5 -150z" />
            <glyph glyph-name="parenleft" unicode="(" horiz-adv-x="354" d="M293 804l26 -30q-53 -39 -88 -104.5t-52.5 -144.5t-17.5 -161q0 -81 17 -158t51.5 -141t85.5 -106l-26 -37q-89 47 -149 116.5t-90 153.5t-30 172t30.5 172.5t91 154.5t151.5 113z" />
            <glyph glyph-name="parenright" unicode=")" horiz-adv-x="354" d="M61 804l-26 -30q53 -39 88 -104.5t52.5 -144.5t17.5 -161q0 -81 -17 -158t-51.5 -141t-85.5 -106l26 -37q89 47 149 116.5t90 153.5t30 172t-30.5 172.5t-91 154.5t-151.5 113z" />
            <glyph glyph-name="asterisk" unicode="*" horiz-adv-x="420" d="M46 482l27 39q22 0 49.5 -8.5t52.5 -15.5q-22 14 -47.5 27.5t-41.5 28.5l7 45l47 9q15 -16 28.5 -41t26.5 -48q-6 26 -14.5 52.5t-8.5 47.5l39 29l37 -29q0 -21 -8.5 -47t-14.5 -52q14 23 26.5 47.5t27.5 38.5l48 -7l5 -46q-14 -15 -38.5 -27.5t-47.5 -26.5q26 6 52 14.5
t47 8.5l29 -39l-29 -37q-21 0 -47 8.5t-52 14.5q23 -13 47.5 -26t38.5 -28l-7 -48l-46 -5q-15 14 -27.5 39t-26.5 47q6 -25 14.5 -52.5t8.5 -48.5l-37 -27l-39 27q0 22 8.5 49.5t15.5 52.5q-14 -22 -27.5 -47.5t-28.5 -41.5l-45 7l-9 47q16 15 41.5 28.5t47.5 27.5
q-25 -7 -52.5 -15.5t-49.5 -8.5z" />
            <glyph glyph-name="plus" unicode="+" horiz-adv-x="571" d="M536 372v-83q-75 2 -162.5 2.5t-175.5 0t-163 -2.5v83q75 -1 163 -1.5t175.5 0t162.5 1.5zM327 80h-83q2 75 2.5 163t0 175.5t-2.5 162.5h83q-1 -75 -1.5 -162.5t0 -175.5t1.5 -163z" />
            <glyph glyph-name="comma" unicode="," horiz-adv-x="244" d="M-13 -158q46 36 71.5 63t38 48t17.5 39q-10 1 -23.5 4t-21.5 5q-8 34 -8 62q0 32 8 58q14 5 27.5 8.5t31.5 3.5q35 0 63 -11q10 -28 10 -60q0 -35 -13 -74t-52 -85.5t-117 -104.5z" />
            <glyph glyph-name="uni2010" unicode="&#x2010;" horiz-adv-x="348" d="M300 310v-83h-252v83h252z" />
            <glyph glyph-name="hyphen" unicode="-" horiz-adv-x="348" d="M300 310v-83h-252v83h252z" />
            <glyph glyph-name="period" unicode="." horiz-adv-x="255" d="M123 133q14 0 29 -3t31 -8q9 -30 9 -60q0 -29 -9 -61q-16 -4 -31 -7.5t-29 -3.5q-16 0 -30.5 3.5t-30.5 7.5q-9 32 -9 61q0 30 9 60q16 5 30.5 8t30.5 3z" />
            <glyph glyph-name="slash" unicode="/" horiz-adv-x="438" d="M412 763l-301 -901h-85l300 901h86z" />
            <glyph glyph-name="zero" unicode="0" horiz-adv-x="561" d="M281 625q115 0 185 -82.5t70 -239.5q0 -99 -32 -168t-89 -105t-134 -36t-134.5 36t-89.5 105t-32 168q0 157 70.5 239.5t185.5 82.5zM275 572q-26 0 -52 -26t-43.5 -85t-17.5 -158q0 -93 18 -149.5t46.5 -81.5t61.5 -25q26 0 51.5 25t42.5 81.5t17 149.5q0 99 -17.5 158
t-46 85t-60.5 26z" />
            <glyph glyph-name="zero.small" horiz-adv-x="350" d="M175 468q42 0 79.5 -24.5t61.5 -78t24 -140.5q0 -88 -24 -139t-62 -73t-79 -22t-79.5 22t-62.5 73t-24 139q0 86 24 139.5t62.5 78.5t79.5 25zM175 426q-16 0 -31.5 -16t-26 -59.5t-10.5 -125.5q0 -78 10.5 -119t26.5 -56.5t32 -15.5t31.5 15t26 56.5t10.5 119.5
q0 82 -10.5 125t-26 59.5t-32.5 16.5z" />
            <glyph glyph-name="one" unicode="1" horiz-adv-x="466" d="M324 630q-1 -67 -1.5 -113t-1 -78.5t-1 -60.5t-0.5 -59q0 -45 0.5 -83.5t1.5 -77.5t2 -88l122 -25l-16 -45q-28 2 -78.5 2.5t-100.5 0.5q-28 0 -64.5 -0.5t-70.5 -1t-56 -1.5l-16 45l127 25q2 47 2.5 84t1 72.5t0.5 78.5q0 39 -0.5 65.5l-1 53t-2.5 66.5l-118 -3l-18 50
q57 8 120 29t115 64h54z" />
            <glyph glyph-name="one.small" horiz-adv-x="340" d="M224 469q0 -62 -0.5 -102.5t-1 -70t-0.5 -58.5q0 -48 0.5 -92.5t1.5 -95.5l83 -18l-11 -31q-20 1 -53.5 1.5t-65.5 0.5q-30 0 -67 -1t-60 -1l-11 31l85 18q2 49 2.5 91t0.5 87q0 41 -0.5 78t-2.5 79l-79 -2l-13 35q18 4 45 11t54.5 17t48.5 23h44z" />
            <glyph glyph-name="two" unicode="2" horiz-adv-x="538" d="M40 459q49 80 115 125t144 45q46 0 88.5 -16.5t70 -51.5t27.5 -91q0 -30 -8 -57.5t-29 -59t-61 -72.5t-103.5 -97.5t-155.5 -136.5l15 59q20 -1 41.5 -1h44.5q35 0 78.5 1t88.5 3t84 5l16 -114q-54 2 -109.5 3t-118.5 1q-48 0 -83.5 -0.5t-65 -1t-61.5 -2.5l-18 41
q89 91 148 151.5t94 101.5t49.5 70.5t14.5 59.5q0 46 -30 74.5t-80 28.5q-44 0 -83.5 -22t-89.5 -78zM411 105q12 30 20.5 56.5t18.5 53.5h53q-4 -41 -6 -84t-2 -86q0 -11 0.5 -22.5t0.5 -22.5z" />
            <glyph glyph-name="two.small" horiz-adv-x="390" d="M35 348q38 53 84 86.5t98 33.5q54 0 91 -31.5t37 -87.5q0 -42 -28.5 -85t-78 -96.5t-113.5 -126.5l10 36q50 0 95 1.5t103 9.5l11 -88q-37 2 -75 2.5t-82 0.5q-32 0 -63.5 -0.5t-69.5 -2.5l-11 29q69 77 109 125t59 77t24.5 48.5t5.5 40.5q0 32 -18 51t-48 19
q-24 0 -51.5 -13t-67.5 -56zM285 81q9 20 15 38.5t13 37.5h36q-2 -28 -4 -58t-2 -62q0 -9 0.5 -18t0.5 -19z" />
            <glyph glyph-name="three" unicode="3" horiz-adv-x="509" d="M242 -8q-46 0 -102 18t-110 70l19 44q41 -34 86.5 -51.5t86.5 -17.5q54 0 90.5 32t36.5 87q0 41 -22.5 69t-59 42.5t-77.5 14.5l-17 46q36 38 60.5 64.5t43 51t37.5 53.5q-18 1 -36.5 1.5t-44.5 0.5q-27 0 -48.5 -0.5t-50.5 -2.5q-10 -22 -18 -46.5t-19 -50.5h-49
q4 48 4.5 104.5t0.5 98.5q44 -1 92 -2t93 -1q53 0 99.5 1t97.5 2l10 -73q-36 -36 -73 -70.5t-68 -67.5q65 -14 104.5 -44.5t57.5 -70t18 -82.5q0 -54 -28.5 -104.5t-82.5 -83t-131 -32.5z" />
            <glyph glyph-name="three.small" horiz-adv-x="370" d="M179 -2q-35 0 -71 10.5t-65 31.5l7 38q32 -15 56.5 -23.5t50.5 -8.5q39 0 69.5 22.5t30.5 63.5q0 34 -17 54t-43 30t-54 11l-10 41q26 26 40 42t24 30.5t23 34.5q-13 1 -23.5 1.5t-24.5 0.5q-19 0 -34 -0.5t-35 -2.5q-7 -16 -12.5 -32.5t-13.5 -34.5h-34q2 22 3.5 50
t2.5 55.5t1 47.5q30 -1 64 -2t65 -1q67 0 139 3l14 -51q-31 -31 -58 -56t-53 -49q70 -17 99.5 -61t29.5 -91q0 -51 -25 -85.5t-64 -51.5t-82 -17z" />
            <glyph glyph-name="four" unicode="4" horiz-adv-x="565" d="M423 628q-1 -94 -1 -178.5v-170.5v-86.5t0.5 -82t1.5 -100.5h-144q3 56 3.5 99t0.5 94q0 52 -1 100t-1 113q-45 -68 -75 -110t-59 -78q26 -5 74.5 -6.5t95.5 -1.5q45 0 72.5 0.5t47.5 1t39.5 2t47.5 4.5v-82q-40 2 -80 3t-87 1h-109h-63.5t-60.5 -1t-87 -3l-23 52
q88 98 180 204t174 226h54zM423 70l97 -25l-17 -45q-19 1 -41 1.5t-55 1t-86 0.5q-22 0 -52.5 -0.5l-61 -1t-52.5 -1.5l-17 45l145 25h140z" />
            <glyph glyph-name="four.small" horiz-adv-x="390" d="M314 468q-1 -66 -1 -125v-119v-106.5t1 -117.5h-98q2 40 2.5 79t0.5 77q0 47 -1 86t-1 85q-31 -47 -57.5 -86t-49.5 -78q39 -1 69.5 -2.5t57.5 -1.5q30 0 62 1.5t69 3.5v-61q-26 1 -71 1.5t-95 0.5q-49 0 -96 -0.5t-79 -1.5v60q62 68 116.5 144.5t111.5 160.5h59z" />
            <glyph glyph-name="five" unicode="5" horiz-adv-x="504" d="M52 321q8 47 13 101.5t8.5 107t3.5 90.5q44 -1 79 -1.5t85 -0.5h45t57 0.5t56 1t41 0.5l-4 -123q-30 9 -74.5 14.5t-90 7.5t-79.5 2.5t-45 0.5q-7 -23 -11 -47.5t-6 -51.5q19 3 36.5 4t45.5 1q82 0 139.5 -31.5t87.5 -80t30 -101.5q0 -75 -39.5 -124.5t-104.5 -74
t-143 -24.5q-68 0 -137 18l8 54q59 -18 117 -18q48 0 87 13.5t62.5 41.5t23.5 71q0 33 -18.5 61.5t-55 46t-90.5 17.5q-34 0 -57.5 -3t-39.5 -8z" />
            <glyph glyph-name="five.small" horiz-adv-x="370" d="M31 237q5 33 8.5 74t6 81t3.5 68q31 -1 56 -1.5t65 -0.5q17 0 42.5 0.5t50.5 1t39 0.5l-3 -88q-21 7 -52 10.5t-62.5 5t-55.5 2t-32 0.5l-14 -81q15 3 30 4.5t37 1.5q60 0 101 -21.5t61.5 -56t20.5 -73.5q0 -41 -25 -80.5t-75 -64.5t-127 -25q-18 0 -38 2t-43 9l6 41
q14 -6 33.5 -8.5t40.5 -2.5q68 0 100.5 30.5t32.5 66.5q0 35 -30.5 64t-91.5 29q-22 0 -38.5 -2t-31.5 -5z" />
            <glyph glyph-name="six" unicode="6" horiz-adv-x="534" d="M156 347q23 21 60.5 37t78.5 16q69 0 114 -28t67.5 -72.5t22.5 -93.5q0 -52 -25.5 -100.5t-75.5 -80t-125 -31.5q-78 0 -131 33.5t-80 88t-27 116.5q0 94 48 177t138 142t215 82l17 -38q-141 -39 -207 -129t-66 -218q0 -100 30 -150.5t67 -50.5q28 0 46 19.5t27 50.5
t9 66q0 38 -10.5 73t-30.5 57.5t-50 22.5q-29 0 -50 -10t-33.5 -22.5t-16.5 -19.5z" />
            <glyph glyph-name="six.small" horiz-adv-x="390" d="M108 250q16 14 46.5 26.5t55.5 12.5q50 0 81.5 -19.5t47 -50.5t15.5 -68q0 -38 -17 -74t-51.5 -58.5t-89.5 -22.5q-52 0 -88 24t-54.5 65.5t-18.5 91.5q0 59 27 115t86 102.5t153 76.5l15 -29q-91 -43 -133.5 -109t-42.5 -145q0 -81 23 -116.5t45 -35.5t34.5 28t12.5 63
q0 27 -6.5 53t-20.5 43t-37 17q-34 0 -53 -14t-23 -22z" />
            <glyph glyph-name="seven" unicode="7" horiz-adv-x="474" d="M110 510q-11 -27 -19.5 -52t-16.5 -50h-49q3 59 4.5 116.5t1.5 95.5q46 -1 101.5 -2t97.5 -1q68 0 115.5 1t95.5 2l28 -45q-61 -102 -97 -189.5t-53.5 -160t-24 -129.5t-10.5 -96h-147q20 116 77 246.5t152 263.5q-54 3 -94 4t-77.5 0t-84.5 -4z" />
            <glyph glyph-name="seven.small" horiz-adv-x="350" d="M87 377q-14 -35 -25 -71h-34q2 41 4 84.5t2 70.5q32 -1 71 -1.5t68 -0.5q47 0 80.5 0.5t67.5 1.5l17 -26q-56 -100 -83 -181t-36.5 -144t-13.5 -111h-105q20 98 57.5 186.5t95.5 191.5q-22 1 -44.5 1h-42.5h-38.5t-40.5 -1z" />
            <glyph glyph-name="eight" unicode="8" horiz-adv-x="505" d="M443 486q0 -24 -17 -54.5t-52 -57t-90 -40.5l-47 32q43 17 64 37.5t28 40t7 34.5q0 49 -29 74t-65 25q-29 0 -49.5 -20t-20.5 -52q0 -28 22 -49.5t57.5 -40.5t74.5 -39.5t74.5 -47t57.5 -62t22 -85.5q0 -57 -29 -99t-80.5 -65t-120.5 -23q-78 0 -127.5 24t-73.5 63
t-24 82q0 33 18 69t58 67t105 48l33 -22q-47 -29 -65 -73.5t-18 -84.5t15.5 -66t40 -39.5t49.5 -13.5q34 0 60.5 23.5t26.5 69.5q0 37 -22 63t-57 47t-74 40.5t-74 43t-57 54.5t-22 75q0 49 26 86t73.5 58t109.5 21q67 0 109.5 -20.5t62.5 -53t20 -69.5z" />
            <glyph glyph-name="eight.small" horiz-adv-x="390" d="M219 244l-33 22q27 13 47.5 40t20.5 53q0 32 -21.5 49t-44.5 17q-19 0 -33 -11.5t-14 -36.5q0 -26 22 -45.5t54 -38t64 -40.5t54 -52.5t22 -74.5q0 -45 -24.5 -75t-62.5 -45t-79 -15q-40 0 -76.5 13.5t-59.5 41t-23 67.5q0 45 34 83.5t110 56.5l11 -15
q-24 -21 -38.5 -52.5t-14.5 -69.5q0 -41 22 -61.5t47 -20.5q22 0 39.5 16.5t17.5 47.5q0 34 -22 57t-54 41.5t-64 38t-54 46.5t-22 68q0 56 43.5 87t107.5 31q66 0 102 -31t36 -72q0 -36 -30.5 -71t-83.5 -49z" />
            <glyph glyph-name="nine" unicode="9" horiz-adv-x="538" d="M382 276q-23 -21 -62.5 -37t-80.5 -16q-68 0 -113.5 28t-68 72.5t-22.5 93.5q0 52 25 100.5t75.5 80t125.5 31.5q79 0 132.5 -33.5t81.5 -88t28 -116.5q0 -94 -45.5 -177t-133 -142t-212.5 -82l-17 38q141 39 202 129.5t61 217.5q0 67 -15 111.5t-38 67t-48 22.5
q-27 0 -45.5 -19.5t-27.5 -50.5t-9 -66q0 -37 10.5 -72.5t31 -58t49.5 -22.5t51 10t36 22.5t17 19.5z" />
            <glyph glyph-name="nine.small" horiz-adv-x="380" d="M271 212q-16 -14 -46.5 -26.5t-55.5 -12.5q-50 0 -81.5 19.5t-47 50.5t-15.5 68q0 38 17 74t51.5 58.5t89.5 22.5q52 0 88 -24t54.5 -65.5t18.5 -91.5q0 -59 -27 -115t-86 -102.5t-153 -76.5l-15 29q91 43 133.5 109t42.5 145q0 81 -23 116.5t-45 35.5t-34.5 -28
t-12.5 -63q0 -27 6.5 -53t20.5 -43t37 -17q34 0 53 14t23 22z" />
            <glyph glyph-name="colon" unicode=":" horiz-adv-x="257" d="M123 140q14 0 29 -3t31 -8q9 -30 9 -60q0 -29 -9 -61q-16 -4 -31 -7.5t-29 -3.5q-16 0 -30.5 3.5t-30.5 7.5q-9 32 -9 61q0 30 9 60q16 5 30.5 8t30.5 3zM123 439q14 0 29 -3t31 -8q9 -30 9 -60q0 -29 -9 -61q-16 -4 -31 -7.5t-29 -3.5q-16 0 -30.5 3.5t-30.5 7.5
q-9 32 -9 61q0 30 9 60q16 5 30.5 8t30.5 3z" />
            <glyph glyph-name="semicolon" unicode=";" horiz-adv-x="304" d="M-13 -158q46 36 71.5 63t38 48t17.5 39q-10 1 -23.5 4t-21.5 5q-8 34 -8 62q0 32 8 58q14 5 27.5 8.5t31.5 3.5q35 0 63 -11q10 -28 10 -60q0 -35 -13 -74t-52 -85.5t-117 -104.5zM132 413q14 0 29 -3t31 -8q9 -30 9 -60q0 -29 -9 -61q-16 -4 -31 -7.5t-29 -3.5
q-16 0 -30.5 3.5t-30.5 7.5q-9 32 -9 61q0 30 9 60q16 5 30.5 8t30.5 3z" />
            <glyph glyph-name="less" unicode="&#x3c;" horiz-adv-x="565" d="M35 370l495 230v-80l-463 -222v73l463 -222v-80l-495 231v70z" />
            <glyph glyph-name="equal" unicode="=" horiz-adv-x="571" d="M536 301v-83q-75 2 -162.5 2.5t-175.5 0t-163 -2.5v83q75 -1 163 -1.5t175.5 0t162.5 1.5zM536 471v-83q-75 2 -162.5 2.5t-175.5 0t-163 -2.5v83q75 -1 163 -1.5t175.5 0t162.5 1.5z" />
            <glyph glyph-name="greater" unicode="&#x3e;" horiz-adv-x="565" d="M530 370l-495 230v-80l463 -222v73l-463 -222v-80l495 231v70z" />
            <glyph glyph-name="question" unicode="?" horiz-adv-x="458" d="M188 721q76 0 125.5 -31.5t74.5 -81.5t25 -106q0 -55 -25.5 -107t-76.5 -86t-128 -37q-2 -22 -3 -45t-3 -56h-62q-3 39 -7 71.5t-9 69.5t-13 86q9 -1 20.5 -1h35.5q84 0 118 39t34 97q0 38 -10 68t-28 55q-6 1 -11.5 1h-11.5q-37 0 -66.5 -9t-55.5 -23l-20 -105h-50
q-7 44 -16 84t-20 83q35 15 81.5 24.5t101.5 9.5zM147 117q15 0 28.5 -2t28.5 -6q3 -15 4.5 -28t1.5 -28q0 -26 -6 -55q-15 -2 -28.5 -5t-28.5 -3q-12 0 -25 3t-29 5q-2 14 -4.5 27.5t-2.5 27.5q0 15 2.5 28t4.5 28q16 4 29 6t25 2z" />
            <glyph glyph-name="at" unicode="@" horiz-adv-x="740" d="M365 -134q-63 0 -123.5 20.5t-109.5 61.5t-78 101t-29 138q0 89 29.5 155t80 110.5t112.5 66.5t128 22q85 0 148.5 -27t106 -72t64 -100t21.5 -111q0 -54 -20.5 -103t-62 -85t-105.5 -51q-46 3 -73.5 23.5t-39 48t-11.5 51.5q0 12 5.5 41.5t13.5 67t17 75.5t16 69t10 46
q31 0 66.5 -14.5t55.5 -25.5q-20 -47 -35.5 -97t-24.5 -93t-9 -69q0 -20 3.5 -39.5t17.5 -33.5q56 15 89.5 61t33.5 119q0 90 -39 151t-105.5 91.5t-148.5 30.5q-54 0 -105 -17.5t-91.5 -55t-64.5 -96t-24 -139.5q0 -70 25 -121.5t66.5 -85.5t93 -51t103.5 -17
q60 0 122.5 16.5t120.5 52.5l18 -34q-64 -43 -133 -62t-135 -19zM271 -4q-43 0 -71 24.5t-42 63.5t-14 85q0 44 12.5 89t37 82t60.5 59.5t83 22.5q30 0 55 -13.5t40 -31.5l-14 -56q-14 17 -31.5 34t-36.5 17q-26 -15 -45 -50.5t-29 -78.5t-10 -82q0 -37 10.5 -63t32.5 -26
q27 0 52.5 33t46.5 88t34 119l2 -136q-13 -42 -37 -83.5t-58 -69t-78 -27.5z" />
            <glyph glyph-name="A" unicode="A" horiz-adv-x="715" d="M384 664q59 -165 126.5 -318.5t124.5 -286.5l78 -21l-13 -38q-31 2 -69.5 2.5t-69.5 0.5q-18 0 -47.5 -0.5t-58.5 -1t-47 -1.5l-14 38l78 21q-30 77 -75.5 187.5t-97.5 234.5zM384 664q-7 -18 -13.5 -33t-13.5 -36t-15 -57q-19 -52 -42.5 -116.5t-48 -131t-44.5 -127
t-31 -104.5l74 -21l-13 -38q-64 3 -118 3q-50 0 -104 -3l-13 38l74 21q19 35 44.5 88.5t54 118.5t57.5 135t55 137.5t46 125.5h51zM477 225v-78q-43 5 -81.5 6t-70.5 1q-34 0 -66.5 -1t-71.5 -6v77q39 -5 71.5 -7t66.5 -2q32 0 70.5 2t81.5 8z" />
            <glyph glyph-name="B" unicode="B" horiz-adv-x="644" d="M33 0l-13 38l88 21q2 86 3.5 164.5t1.5 155.5q0 62 -1 114t-4 104l-88 24l10 39q32 -2 69 -3t83 -1q45 0 92.5 2t87.5 2q67 0 107.5 -22.5t58.5 -58t18 -75.5q0 -46 -27.5 -84t-76 -60.5t-111.5 -22.5q4 0 -7 -0.5t-27 -1t-27 -0.5q-8 0 -22.5 0.5t-27.5 2t-18 3.5v49
q31 -5 53 -7.5t46 -2.5h23t8.5 0.5t15.5 1.5q27 16 40 45.5t13 61.5q0 43 -22.5 77.5t-70.5 34.5q-15 0 -26.5 -2t-22.5 -7q0 -69 -0.5 -125.5t-1 -89.5l-0.5 -33v-102.5v-73t0.5 -55.5t1.5 -51l-3 -19q-4 -4 -5 -11t-6.5 -14t-20.5 -11.5t-46 -3.5q-45 1 -79.5 -0.5
t-65.5 -2.5zM347 -1q-35 0 -71 2t-98 2q-2 0 7.5 7.5t22.5 19t24.5 22.5t14.5 18q32 -10 55.5 -13.5t45.5 -3.5q58 14 82.5 50t24.5 77q0 35 -16.5 67.5t-49.5 53.5t-84 21q-11 0 -38 -2t-67 -7l5 46q32 4 67.5 6t63.5 2q80 0 140 -18.5t94 -58.5t34 -107q0 -51 -27.5 -92.5
t-84 -66.5t-145.5 -25z" />
            <glyph glyph-name="C" unicode="C" horiz-adv-x="651" d="M578 156l38 -50q-63 -58 -122 -84.5t-136 -26.5q-95 0 -167 43.5t-111.5 120t-39.5 176.5q0 63 20 123t60 108t101.5 76.5t143.5 28.5q63 0 125 -13.5t117 -39.5q-10 -43 -19.5 -88.5t-17.5 -89.5h-58l-20 116q-39 29 -91.5 40.5t-108.5 11.5q-61 -33 -86 -100t-25 -150
q0 -89 27 -153.5t74 -99t106 -34.5q55 0 96.5 21t93.5 64z" />
            <glyph glyph-name="D" unicode="D" horiz-adv-x="728" d="M181 656q41 0 80.5 2t99.5 2q59 0 115 -20t102 -60t73 -101.5t27 -144.5q0 -88 -29 -151.5t-76 -104t-102 -60t-107 -19.5q-49 0 -89.5 2t-90.5 2l74 73q42 -13 81 -17t71 -4q39 25 64 66t37 91.5t12 102.5q0 55 -12.5 107t-37 94t-60 66.5t-80.5 24.5q-23 0 -40 -3
t-35 -8q-1 -57 -1 -119v-121q0 -73 0.5 -144t1.5 -139l41 -43l-11 -29q-17 1 -31 1t-30.5 0.5t-43.5 0.5q-50 1 -85 -0.5t-66 -2.5l-13 38l88 20q2 95 4 167t2 131q0 68 -1.5 130.5t-3.5 110.5l-88 24l12 39q30 -1 51 -2t43.5 -1.5t53.5 -0.5z" />
            <glyph glyph-name="E" unicode="E" horiz-adv-x="602" d="M416 371v-84q-23 4 -39 6.5t-34.5 4t-49.5 1.5q-24 0 -51.5 -1t-60.5 -6v74q35 -3 60.5 -4.5t49.5 -1.5q31 0 50 1.5t35.5 4t39.5 5.5zM445 454q-1 -30 -2.5 -59.5t-1.5 -61.5q0 -33 1.5 -70.5t2.5 -58.5h-55l-33 104v43l33 103h55zM567 0q-88 3 -379 3q-35 0 -68 -0.5
t-88 -2.5l-12 38l88 21q2 81 3.5 159.5t1.5 157.5q0 63 -1.5 116t-3.5 105l-88 24l13 39q50 -2 90 -3t69 -1h70t86 0.5t87 1t74.5 1t47.5 1.5q-3 -63 -5 -111.5t-3 -86.5h-64l-18 105q-25 13 -60 19t-74 6q-18 0 -36.5 -1.5t-37.5 -3.5q-1 -90 -1.5 -170t-0.5 -154
q0 -46 0.5 -94t1.5 -100q17 -2 35 -3.5t36 -1.5q40 0 78 6t63 19l23 121h64q0 -46 2.5 -102.5t6.5 -107.5z" />
            <glyph glyph-name="F" unicode="F" horiz-adv-x="579" d="M418 371v-84q-22 4 -39 6.5t-37 4t-52 1.5q-24 0 -48.5 -1t-58.5 -6v74q34 -3 58.5 -4.5t48.5 -1.5q32 0 52 1.5t37 4t39 5.5zM447 454q-1 -30 -2.5 -62t-1.5 -64q0 -31 1.5 -63t2.5 -61h-55l-33 104v43l33 103h55zM25 38l85 21q2 71 3.5 140t1.5 136q0 68 -1 136t-4 126
l-90 24l13 39q26 -1 46 -2t44 -1.5t59 -0.5h80.5t107 0.5t107.5 1.5t82 2q-2 -52 -4.5 -101t-3.5 -97h-64l-18 106q-35 15 -86 21.5t-122 -2.5q0 -65 -0.5 -119.5t-1 -92t-0.5 -50.5v-110.5t0.5 -78.5t1.5 -68l121 -31l-13 -37q-33 1 -59 1.5t-55 1t-73 0.5q-40 0 -73 -0.5
t-71 -2.5z" />
            <glyph glyph-name="G" unicode="G" horiz-adv-x="738" d="M481 93q2 29 3 51.5t1 44.5t-1 43t-4 42l-89 27l11 37q34 -2 74 -3t84 -1q38 0 73.5 1t71.5 3l13 -37l-88 -27q-1 -24 -2 -48.5t0 -50.5q0 -30 2.5 -62.5t3.5 -70.5q-58 -18 -117 -33.5t-140 -15.5q-90 0 -153.5 28.5t-102.5 76t-57.5 107t-18.5 122.5q0 66 20 127.5
t61 110.5t105.5 77.5t152.5 28.5q63 0 121.5 -10.5t118.5 -38.5q-10 -46 -19 -91t-16 -92h-67l-20 132q-48 20 -90 28t-100 8q-55 -40 -81 -107t-26 -155q0 -54 10.5 -106t32 -94t55 -67t79.5 -25q30 0 53 10.5t46 29.5z" />
            <glyph glyph-name="H" unicode="H" horiz-adv-x="773" d="M335 660l11 -39l-88 -24q-1 -106 -1.5 -177.5t-0.5 -94.5v-111t0.5 -82t1.5 -73l88 -21l-11 -38q-54 3 -152 3q-46 0 -82.5 -1t-67.5 -2l-13 38l88 21q2 85 3 155t1 145q0 52 -1 110t-3 128l-88 24l12 39q32 -2 71 -3.5t85 -1.5q40 0 80 2t67 3zM552 368v-72
q-87 6 -174 6q-40 0 -79 -1.5t-77 -3.5v70q38 -2 77 -3.5t79 -1.5q87 0 174 6zM742 660l11 -39l-88 -24q0 -76 -0.5 -137.5t-1 -116t-0.5 -109.5q0 -40 0.5 -83t1.5 -92l88 -21l-11 -38q-54 3 -150 3q-46 0 -83.5 -1t-68.5 -2l-13 38l88 21q2 85 3.5 154t1.5 141
q0 53 -1.5 112t-3.5 131l-88 24l12 39q31 -2 71 -3.5t86 -1.5q40 0 79.5 2t66.5 3z" />
            <glyph glyph-name="I" unicode="I" horiz-adv-x="393" d="M350 660l13 -39l-91 -24q0 -85 -0.5 -150t-0.5 -122.5v-120.5t1 -145l91 -21l-13 -38q-54 3 -152 3q-46 0 -85 -1t-70 -2l-13 38l92 21q2 81 3.5 144t1.5 120.5t-1 123t-4 150.5l-92 24l13 39q39 -2 76 -3t83 -1q41 0 81 1.5t67 2.5z" />
            <glyph glyph-name="J" unicode="J" horiz-adv-x="396" d="M276 177q-1 -47 -9.5 -89t-32.5 -83.5t-70.5 -87t-124.5 -99.5l-34 43q47 46 73.5 89.5t38 97t13.5 127.5q5 137 1 247t-6 173l-96 26l10 39q23 -1 45.5 -2t50.5 -1.5t69 -0.5q59 0 91.5 1.5t58.5 2.5l12 -39l-89 -26q0 -55 0.5 -115.5t0.5 -133.5t-2 -169z" />
            <glyph glyph-name="K" unicode="K" horiz-adv-x="740" d="M33 0l-13 38l88 21q2 56 3 97.5t1.5 78t0.5 77.5q0 56 -1.5 128.5t-3.5 154.5l-88 26l12 39q32 -2 71 -3t85 -1q43 0 78.5 1.5t69.5 2.5l11 -39l-89 -26q0 -66 -0.5 -112.5t-0.5 -85.5v-85v-116t1 -137l89 -21l-11 -38q-54 3 -152 3q-46 0 -83 -1t-68 -2zM701 0
q-60 3 -113 3q-34 0 -68.5 -1t-51.5 -1q-27 47 -50 85t-45 74t-47.5 75.5t-58.5 88.5q19 14 43 28t45 26.5t28 20.5q41 -65 77 -121t73.5 -109t80.5 -110l101 -21zM353 313l-86 11q62 55 103 98.5t72.5 86t62.5 91.5l-81 21l12 39q35 -2 65 -2.5t64 -0.5q68 0 120 3l12 -39
l-87 -21q-70 -74 -132.5 -143t-124.5 -144z" />
            <glyph glyph-name="L" unicode="L" horiz-adv-x="604" d="M20 621l13 39q36 -2 70 -3t81 -1q43 0 89 1t88 3l14 -39l-114 -23q-1 -83 -1 -150v-135q0 -52 -0.5 -119.5t1.5 -124.5q62 -7 115.5 -3t96.5 23l23 121h64q0 -46 2.5 -103.5t6.5 -106.5q-122 2 -217 2.5t-164 0.5q-51 0 -87.5 -1t-67.5 -2l-12 38l89 21q2 79 3.5 137.5
t1.5 106.5q0 68 0.5 140.5t-5.5 153.5z" />
            <glyph glyph-name="M" unicode="M" horiz-adv-x="965" d="M685 660l71 -61q-45 -85 -80.5 -159t-67 -144.5t-61.5 -145t-63 -159.5h-54l9 106q68 123 126.5 262.5t119.5 300.5zM204 589q-5 -50 -8 -115t-4 -137t-0.5 -143.5t2.5 -134.5l107 -21l-14 -38q-37 2 -67 2.5t-69 0.5q-47 0 -78.5 -0.5t-57.5 -2.5l-13 38l100 21
q8 86 13.5 178.5t8 183.5t2.5 170l-99 28l16 41q32 -1 59.5 -2t61.5 -1q30 0 59 1t52 2q33 -74 62 -138t58 -124t61 -120.5t72 -128.5l-44 -158h-54q-37 81 -65.5 140.5t-52 107t-45.5 90.5t-45.5 90t-52.5 106zM913 660l16 -41l-93 -28q3 -68 5 -122t4 -100.5t4 -92.5
t4.5 -98.5t6.5 -118.5l93 -21l-16 -38q-26 2 -59 2.5t-92 0.5q-54 0 -88.5 -1t-64.5 -2l-14 38l93 21q-2 108 -5.5 196.5t-7.5 173t-11 179.5l-3 52q22 -1 49 -2t55 -1q32 0 65 1t59 2z" />
            <glyph glyph-name="N" unicode="N" horiz-adv-x="774" d="M266 660q54 -83 111 -157.5t116.5 -148.5t121.5 -155l-16 -209h-10q-62 90 -115.5 161t-102.5 131.5t-97 120t-99 127.5q5 37 21.5 62t36.5 41t33 27zM266 660l-67 -92v-79.5v-129.5q0 -62 3 -132t10 -168l101 -21l-14 -38q-27 2 -65 2.5t-71 0.5q-30 0 -64.5 -1
t-65.5 -2l-13 38l101 21q5 81 7.5 155.5t2.5 146.5q0 59 -1.5 116.5t-3.5 116.5l-104 27l12 39q62 -3 122 -3q24 0 57.5 1t52.5 2zM740 660l14 -39l-88 -21q-6 -106 -8.5 -196t-2.5 -179q0 -56 1 -113.5t2 -121.5h-63l-12 43q3 51 4.5 94.5t1.5 95.5q0 83 -3.5 178.5
t-11.5 198.5l-87 21l12 39q31 -1 59 -2.5t59 -1.5q32 0 64 1t59 3z" />
            <glyph glyph-name="O" unicode="O" horiz-adv-x="715" d="M357 670q77 0 136 -28t99.5 -75.5t61.5 -107t21 -122.5q0 -69 -19 -131t-57.5 -111t-98 -77t-139.5 -28t-140.5 28.5t-100.5 77t-60 111t-20 131.5q0 90 34.5 165.5t105 121t177.5 45.5zM537 296q0 62 -14.5 119t-40.5 101.5t-62.5 70.5t-81.5 26q-56 0 -91.5 -34.5
t-52 -89.5t-16.5 -119q0 -62 14.5 -120t41.5 -104t64 -72.5t81 -26.5q57 0 91.5 35.5t50.5 92.5t16 121z" />
            <glyph glyph-name="P" unicode="P" horiz-adv-x="619" d="M359 660q112 0 166 -51.5t54 -135.5q0 -64 -31.5 -112.5t-90 -75.5t-139.5 -27q-18 0 -44 3t-55 9v63q33 -7 56.5 -11.5t41.5 -4.5q14 0 26 1.5t23 3.5q32 21 47.5 58.5t15.5 79.5q0 36 -11 68.5t-33 53t-54 20.5q-20 0 -37 -2.5t-30 -4.5v-72.5v-92.5v-89v-63v-54.5v-34
v-28v-37v-60.5l110 -26l-14 -38q-52 3 -171 3q-49 0 -86 -1t-68 -2l-15 38l93 21q2 45 3 101.5t1.5 111.5t0.5 94q0 52 -0.5 88.5t-1.5 69t-3 72.5l-89 26l11 38q31 -1 54 -2t46.5 -1.5t52.5 -0.5q31 0 56 1t51.5 2t63.5 1z" />
            <glyph glyph-name="Q" unicode="Q" horiz-adv-x="714" d="M660 -20l39 -28q-43 -91 -94 -134.5t-103 -43.5q-30 0 -63 13.5t-66 33.5t-64.5 40.5t-60 34t-52.5 13.5q-53 0 -103 -33l-25 38q41 29 83.5 47.5t81.5 18.5q37 0 81 -13t89 -30.5t86 -30.5t72 -13q28 15 51 36t48 51zM357 670q77 0 136 -28t99.5 -75.5t61.5 -107
t21 -122.5q0 -69 -19 -131t-57.5 -111t-98 -77t-139.5 -28t-140.5 28.5t-100.5 77t-60 111t-20 131.5q0 90 34.5 165.5t105 121t177.5 45.5zM537 296q0 62 -14.5 119t-40.5 101.5t-62.5 70.5t-81.5 26q-56 0 -91.5 -34.5t-52 -89.5t-16.5 -119q0 -62 14.5 -120t41.5 -104
t64 -72.5t81 -26.5q57 0 91.5 35.5t50.5 92.5t16 121z" />
            <glyph glyph-name="R" unicode="R" horiz-adv-x="695" d="M364 660q75 0 122.5 -23.5t70.5 -62t23 -84.5q0 -34 -13.5 -71t-42.5 -68.5t-76 -51t-113 -19.5q-34 0 -61 2t-60 9v63q32 -7 58 -11.5t50 -4.5q12 0 23.5 1.5t24.5 3.5q23 18 39 49t16 91t-30.5 91t-74.5 31q-28 0 -61 -9v-104.5v-92.5v-165v-175l88 -21l-14 -38
q-26 2 -59 2.5t-95 0.5q-46 0 -79.5 -1t-64.5 -2l-15 38l88 21q3 68 4 133t1 124q0 78 -1.5 148.5t-3.5 131.5l-88 26l11 38q21 -1 49.5 -2t56.5 -1.5t46 -0.5q31 0 54 1t51.5 2t75.5 1zM410 327q15 -26 45.5 -71.5t69.5 -97.5t78 -99l90 -21l-16 -38q-18 2 -50.5 2h-58.5
h-60t-55 -2q-21 38 -47 83t-52 89.5t-47 80t-33 52.5q9 10 29.5 14.5t44 6t41.5 1.5h21z" />
            <glyph glyph-name="S" unicode="S" horiz-adv-x="589" d="M300 673q55 0 112 -12.5t98 -33.5q-10 -49 -18 -85.5t-16 -75.5h-64l-10 109q-14 20 -43.5 30.5t-61.5 10.5q-39 0 -70 -22t-31 -64q0 -33 24.5 -55.5t63 -41t81.5 -38.5t81.5 -47.5t63 -68.5t24.5 -102q0 -66 -37 -107.5t-95.5 -60.5t-124.5 -19q-61 0 -120 15t-102 42
q11 45 18.5 80.5t14.5 84.5h65l14 -130q23 -16 49.5 -25t55.5 -9q47 0 82.5 23.5t35.5 77.5q0 42 -23.5 68t-60.5 44t-78.5 35t-78.5 40t-60.5 59t-23.5 93q0 62 32.5 103t86 61.5t116.5 20.5z" />
            <glyph glyph-name="T" unicode="T" horiz-adv-x="670" d="M407 600q-1 -99 -1 -175.5v-145.5v-102t1 -113l106 -26l-13 -38q-26 2 -72.5 2.5t-94.5 0.5q-46 0 -92.5 -1t-77.5 -2l-14 38l108 26q2 74 3.5 135.5t1.5 124.5q0 59 -1.5 126.5t-3.5 149.5h150zM635 660q-7 -61 -9 -116.5t-2 -102.5h-65l-26 145q-17 2 -38 2.5t-42 0.5
q-31 0 -62 -2t-56 -7q-26 5 -59 6.5t-66 1.5q-19 0 -37 -0.5t-34 -1.5l-26 -145h-65q-1 47 -4 101t-9 118q34 -1 83.5 -2t107 -1.5t116.5 -0.5q60 0 116 0.5t102 1.5t75 2z" />
            <glyph glyph-name="U" unicode="U" horiz-adv-x="788" d="M754 660l14 -39l-88 -21q-7 -112 -11.5 -209.5t-9.5 -171.5q-4 -63 -28.5 -106t-62 -69t-82.5 -38t-90 -12q-73 0 -133 20t-97.5 65.5t-46.5 123.5q-5 47 -6 110t-1 135.5t-2 146.5l-90 26l12 39q31 -1 72.5 -2.5t80.5 -1.5q49 0 88 1.5l65 2.5l12 -39l-89 -26
q-3 -78 -3 -152q0 -75 2.5 -134.5t4.5 -90.5q7 -76 45.5 -116t108.5 -40q74 0 117.5 37.5t52.5 119.5q2 22 3 58.5t1 78.5q0 53 -1.5 117.5t-6.5 126.5l-90 21l14 39q30 -2 62 -3t58 -1q32 0 69 1.5t56 2.5z" />
            <glyph glyph-name="V" unicode="V" horiz-adv-x="708" d="M341 -9q-64 173 -129 321.5t-127 288.5l-78 20l13 39q31 -1 69.5 -2t69.5 -1q18 0 47 0.5l58 1t47 1.5l14 -39l-77 -20q32 -99 73 -202.5t100 -219.5q2 -8 -2.5 -29t-12.5 -48t-18.5 -52.5t-22.5 -42t-24 -16.5zM341 -9q7 18 10.5 32t7.5 33.5t12 55.5q28 63 58 146
t57 172.5t44 170.5l-75 20l13 39q65 -3 118 -3q26 0 50.5 1t51.5 2l13 -39l-71 -20q-41 -95 -82.5 -199.5t-80 -209t-72.5 -201.5h-54z" />
            <glyph glyph-name="W" unicode="W" horiz-adv-x="1000" d="M325 660l14 -39l-85 -21q18 -69 34 -124t32 -103.5t34.5 -98t41.5 -108.5l-44 -175h-53q-29 94 -54 172t-49 148t-48.5 140.5t-52.5 148.5l-88 21l14 39q35 -3 66 -3.5t80 -0.5q48 0 85.5 1t72.5 3zM557 660l-19 -166q-34 -90 -64.5 -168.5t-60 -158.5t-61.5 -176
l-28 101q39 100 68.5 188.5t55.5 179.5t53 200h56zM557 660q27 -83 49 -145.5t43 -115.5t44 -108.5t52 -124.5l-55 -140l-32 -34q-31 85 -55.5 149t-45 117t-41.5 104.5t-47 110.5l32 187h56zM980 660l13 -39l-86 -21q-26 -70 -48.5 -136.5t-45 -137.5t-47 -152.5
t-55.5 -181.5h-53l25 133q39 102 74 226.5t52 248.5l-93 21l14 39q34 -1 67.5 -2.5t66.5 -1.5q35 0 62 1.5t54 2.5z" />
            <glyph glyph-name="X" unicode="X" horiz-adv-x="697" d="M328 660l14 -39l-61 -16q31 -62 79.5 -150.5t109.5 -190.5t129 -205l78 -21l-15 -38q-30 1 -62.5 2t-68.5 1q-49 0 -90 -0.5t-67 -2.5l-17 38l67 21q-47 89 -100.5 182t-109 185t-109.5 177l-81 18l14 39q30 -2 72 -2.5t74 -0.5q21 0 47.5 0.5t52.5 1.5t44 1zM362 304
q-50 -73 -88.5 -134t-63.5 -111l82 -21l-14 -38q-32 2 -63 2.5t-71 0.5q-32 0 -57.5 -0.5t-52.5 -2.5l-14 38l84 21q50 62 106.5 137.5t112.5 161.5zM339 368q55 78 90.5 139t49.5 95l-76 19l14 39q32 -1 58.5 -2t63.5 -1q27 0 51.5 1t51.5 2l14 -39l-74 -21
q-47 -59 -97 -129t-109 -160z" />
            <glyph glyph-name="Y" unicode="Y" horiz-adv-x="671" d="M313 660l15 -39l-66 -16q15 -33 36.5 -84.5t50.5 -111.5t64 -122l-121 -89q-22 49 -47.5 104t-51 110.5t-50.5 104.5t-46 86l-77 18l13 39q31 -1 61 -2t69 -1q53 0 88 1t62 2zM413 297q-1 -53 -1.5 -92.5t0.5 -73.5t2 -72l101 -21l-13 -38q-26 2 -65 2.5t-98 0.5
q-61 0 -94 -1t-63 -2l-13 38l102 21q2 39 2.5 70t0 65t-2.5 81zM636 660l15 -39l-80 -21q-19 -32 -43 -80t-50 -103t-50 -110t-42 -102l-40 74q18 33 37 75.5t36.5 88t32 87t24.5 72.5l-83 19l14 39q31 -1 57 -2t60 -1t60 1z" />
            <glyph glyph-name="Z" unicode="Z" horiz-adv-x="588" d="M77 0q-23 20 -37 46q50 77 97 154t88 149t73 133t51 106q-14 2 -27 2h-26q-32 0 -62 -3.5t-54 -11.5q-16 -28 -28 -53.5t-24 -59.5h-61q4 49 6 99t3 99q62 -1 117 -1.5t107 -0.5t102.5 0.5t103.5 1.5q8 -11 16 -25.5t13 -26.5q-101 -161 -176.5 -293t-128.5 -248
q12 -1 24.5 -1.5t24.5 -0.5q37 0 72.5 4.5t60.5 12.5q18 23 37 58t35 66l64 -20q-13 -49 -22.5 -96t-17.5 -90q-49 2 -107.5 2h-117.5h-113t-93 -2z" />
            <glyph glyph-name="bracketleft" unicode="[" horiz-adv-x="372" d="M317 20v-50h-282l24 50h258zM317 763v-48h-258l-24 48h282zM35 763l145 -21q-4 -94 -6 -188t-2 -188t2 -188.5t6 -188.5l-145 -19q5 100 7.5 199t2.5 198t-2.5 198t-7.5 198z" />
            <glyph glyph-name="bracketright" unicode="]" horiz-adv-x="345" d="M28 714v50h282l-24 -50h-258zM28 -29v48h258l24 -48h-282zM310 -29l-145 21q4 94 6 188t2 188t-2 188.5t-6 188.5l145 19q-5 -100 -7.5 -199t-2.5 -198t2.5 -198t7.5 -198z" />
            <glyph glyph-name="backslash" unicode="\" horiz-adv-x="278" d="M304 -138h-86l-300 901h85z" />
            <glyph glyph-name="underscore" unicode="_" horiz-adv-x="560" d="M512 46v-77h-464v77h464z" />
            <glyph glyph-name="a" unicode="a" horiz-adv-x="494" d="M274 436q53 0 92 -32.5t39 -98.5q0 -43 -1.5 -72t-3 -51.5t-1.5 -46.5q0 -28 3.5 -39.5t19.5 -11.5q14 0 42 13l18 -44q-36 -25 -69 -41.5t-70 -16.5q-31 0 -54 24.5t-23 77.5q0 49 4.5 96.5t4.5 84.5q0 31 -9 50t-30 26q-46 -2 -88 -17t-86 -38l-26 43q57 42 115.5 68
t122.5 26zM345 279l-60 -83q-22 -5 -39 -10t-31 -8q-34 -7 -47 -17.5t-13 -36.5q0 -21 11 -33t30 -12q23 0 58.5 21.5t60.5 54.5l19 -41q-16 -20 -45.5 -49t-70.5 -51.5t-90 -22.5q-25 0 -48.5 13.5t-39 40.5t-15.5 67q0 42 25.5 65.5t69.5 36.5t97 22q36 6 67 15.5t61 27.5
z" />
            <glyph glyph-name="b" unicode="b" horiz-adv-x="576" d="M244 745q-1 -28 -1 -57.5v-58.5q0 -52 0.5 -94t1 -83.5t0.5 -93.5v-59.5v-81.5t0.5 -80t0.5 -55l-22 -19q-11 -13 -27.5 -29.5l-33.5 -33.5h-62q2 26 3 68t2 92t1.5 101t1 96t0.5 77q0 59 -3 114t-10 123l-80 13l-9 43q17 1 46.5 2t64.5 3.5t68.5 5.5t57.5 7zM383 436
q55 0 92 -30.5t56.5 -79t19.5 -102.5q0 -57 -21.5 -109.5t-64.5 -86t-108 -33.5q-55 0 -96.5 31t-71.5 79l26 42q16 -32 43 -57t73 -25q27 0 46 20.5t29 53.5t10 69t-10 70.5t-30 58.5t-50 28q-31 -5 -56 -46.5t-25 -114.5l-29 87q10 39 31.5 72t55.5 53t80 20z" />
            <glyph glyph-name="c" unicode="c" horiz-adv-x="433" d="M425 69q-34 -31 -80.5 -53t-106.5 -22q-72 0 -120.5 32t-72.5 82t-24 105q0 56 25 107t75.5 83.5t128.5 32.5q42 0 82.5 -9.5t77.5 -32.5q-14 -52 -20 -85.5t-12 -63.5h-50l-15 91q-25 21 -57 33t-64 10q-21 -25 -32.5 -59t-11.5 -70q0 -54 19 -93t50.5 -60.5t68.5 -21.5
q25 0 53.5 10.5t58.5 32.5z" />
            <glyph glyph-name="d" unicode="d" horiz-adv-x="542" d="M466 747q0 -64 -0.5 -140t-0.5 -173v-156.5t0.5 -133t1.5 -86.5l75 -21l-15 -37q-26 2 -51 2h-61q-27 0 -45 -0.5t-32 -1.5q-1 20 -3.5 37.5t-4.5 36.5q1 45 1.5 90t0.5 87v57t-1 58q0 46 -1.5 100t-4 108t-6.5 98l-81 13l-9 43q17 0 47 2t65.5 4.5t68.5 6t56 6.5z
M205 436q55 0 97 -29t61 -82l-31 -85q0 35 -14.5 63.5t-35.5 47t-40 22.5q-40 -12 -62.5 -55t-22.5 -99q0 -76 29 -113t66 -37q35 0 66.5 38t43.5 100l31 -45q-27 -73 -73.5 -121t-114.5 -48q-45 0 -87.5 25.5t-69.5 76t-27 126.5q0 71 28 119t70.5 72t85.5 24z" />
            <glyph glyph-name="e" unicode="e" horiz-adv-x="440" d="M233 437q50 0 92.5 -22t68 -66.5t25.5 -111.5q-22 -4 -58 -7t-79 -4.5t-86 -1.5q-32 0 -55 1t-31 2v48h33.5t50.5 1t54.5 3t44.5 5q-1 21 -11.5 42.5t-31.5 36.5t-54 15q-20 -19 -32 -52.5t-12 -77.5q0 -90 37.5 -132.5t92.5 -42.5q56 0 118 40l22 -46q-43 -39 -92 -56
t-97 -17q-56 0 -104.5 24.5t-78 73.5t-29.5 122q0 74 30.5 123.5t79 74.5t102.5 25z" />
            <glyph glyph-name="f" unicode="f" horiz-adv-x="346" d="M109 455q5 105 39.5 169t85 93t102.5 29q90 0 126 -46q-2 -37 -12 -64t-27 -53h-54q-16 52 -37.5 77t-47.5 29q-22 -25 -34 -73.5t-12 -128.5v-86.5t0.5 -108.5t1.5 -116t2 -108l104 -31l-15 -37q-17 1 -45 1.5t-58 1t-54 0.5q-30 -1 -70.5 -1.5t-71.5 -1.5l-17 37l87 21
q2 67 2 125t0.5 122t4.5 150zM30 420h314l12 -80q-85 9 -172 17.5t-170 8.5z" />
            <glyph glyph-name="g" unicode="g" horiz-adv-x="492" d="M140 183l48 -12q-23 -40 -23 -60q0 -27 29 -33t69 -8q31 -2 64 -6.5t61.5 -18t46 -42t17.5 -78.5q0 -49 -26.5 -92.5t-81.5 -70.5t-139 -27q-64 0 -107 19t-65 50t-22 66q0 44 33.5 85.5t101.5 64.5l19 -11q-20 -24 -29.5 -48t-9.5 -47q0 -45 36.5 -76t101.5 -31
q42 0 75 19.5t33 63.5q0 32 -37.5 48.5t-131.5 16.5q-65 0 -107 25t-42 83q31 40 49 66t37 54zM193 389q-20 -14 -27.5 -43t-7.5 -53q0 -26 12 -54t33 -47t49 -19q17 8 27.5 35t10.5 61q0 26 -14 53.5t-36 47t-47 19.5zM220 431q69 0 111.5 -21.5t62.5 -56t20 -73.5
q0 -42 -22 -77.5t-66 -57t-110 -21.5q-58 0 -99.5 20.5t-63.5 54.5t-22 75q0 42 21.5 77.5t63.5 57.5t104 22zM513 423q0 -25 -1 -54.5t-1 -43.5q-49 21 -85.5 32t-71.5 15l-47 38q32 4 74 7t78.5 4.5t53.5 1.5z" />
            <glyph glyph-name="h" unicode="h" horiz-adv-x="617" d="M232 745v-190t-0.5 -157t-1.5 -107l3 -233l74 -21l-14 -37q-33 2 -65.5 2.5t-72.5 0.5q-39 0 -73 -1t-63 -2l-17 37l87 21q3 65 4.5 143t1.5 157q0 89 -2.5 166t-8.5 149l-78 13l-11 41q50 1 111 6t126 12zM400 435q62 0 98.5 -43t40.5 -111q2 -18 1 -56.5t-1.5 -83.5
t-0.5 -83l74 -21l-15 -37q-54 3 -130 3q-38 0 -69 -1t-57 -2l-14 37l73 21q2 34 3 57.5t1.5 47t-0.5 55.5q-1 70 -24.5 96t-70.5 26q-44 -29 -61.5 -69t-16.5 -78l-36 44q7 57 35.5 102t72.5 70.5t97 25.5z" />
            <glyph glyph-name="i" unicode="i" horiz-adv-x="305" d="M230 435q-1 -58 -2.5 -111t-1.5 -96q0 -37 1.5 -85t2.5 -85l80 -21l-17 -37q-26 2 -52.5 2.5t-79.5 0.5q-49 0 -76.5 -1t-58.5 -2l-16 37l85 21q2 50 2.5 87t-0.5 81q0 23 -0.5 41t-1.5 40.5t-4 57.5l-71 13l-15 38q23 1 59.5 3t79.5 6t86 10zM155 509q-32 0 -55 24
t-23 59q0 33 23 57t55 24t55 -24t23 -57q0 -35 -23 -59t-55 -24z" />
            <glyph glyph-name="j" unicode="j" horiz-adv-x="285" d="M230 433q-1 -53 -2 -107.5t-1 -97.5v-49t0.5 -66.5t0.5 -69.5v-58q0 -41 -14 -80.5t-53.5 -82.5t-116.5 -95l-37 38q35 37 50.5 64t25.5 61q13 47 14 109t0 150q0 22 -1.5 60t-4 80.5t-5.5 77.5l-69 11l-12 42q17 0 45.5 1t61.5 2.5t64.5 4t53.5 5.5zM155 509
q-32 0 -55 24t-23 59q0 30 23.5 55.5t54.5 25.5q32 0 55 -24t23 -57q0 -35 -23 -59t-55 -24z" />
            <glyph glyph-name="k" unicode="k" horiz-adv-x="599" d="M232 745v-80t-0.5 -125t-1 -142.5t-0.5 -133.5l5 -206l68 -21l-15 -37q-37 2 -66.5 2.5t-64.5 0.5q-40 0 -72.5 -0.5t-65.5 -2.5l-17 37l86 21q6 113 6 235q0 112 -2 208.5t-8 171.5l-80 13l-9 41q17 1 47 3t65 4.5t68 5t57 5.5zM240 219q26 26 47 45.5t41 42.5t43 56
l-83 21l12 37q31 -1 60.5 -2t65.5 -1q65 0 117 3l14 -37l-83 -20q-38 -33 -62.5 -55t-45 -42.5t-48.5 -47.5l35 53q31 -51 51.5 -85t41.5 -63t51 -66l77 -21l-10 -37q-28 2 -52.5 2h-53.5h-52.5t-48.5 -2q-29 52 -55.5 105t-61.5 114z" />
            <glyph glyph-name="l" unicode="l" horiz-adv-x="319" d="M232 745q-1 -170 -0.5 -346.5t3.5 -340.5l79 -21l-19 -37q-18 1 -33.5 1.5t-37 1t-58.5 0.5q-33 0 -54.5 -0.5t-38.5 -1t-38 -1.5l-19 37l79 21q2 107 2.5 219.5t-1 215t-5.5 179.5l-86 14l-10 39q23 2 62 4t85.5 6t89.5 10z" />
            <glyph glyph-name="m" unicode="m" horiz-adv-x="925" d="M398 435q61 0 97.5 -43t40.5 -114q2 -18 1 -55.5t-1.5 -82t-0.5 -82.5l74 -21l-14 -37q-27 2 -60.5 2.5t-69.5 0.5q-34 0 -65 -1t-57 -2l-14 37l74 21q1 34 2 56.5t1.5 45t-0.5 54.5q-1 73 -24.5 99.5t-70.5 26.5q-44 -29 -61 -71.5t-16 -78.5l-37 42q7 58 34 103.5
t70.5 72.5t96.5 27zM234 438v-54.5v-42.5t-1 -55l2 -228l73 -21l-13 -37q-33 2 -65 2.5t-67 0.5t-62.5 -1t-57.5 -2l-16 37l75 21q1 39 2 63.5t1.5 44.5t0.5 45q0 30 -0.5 51.5t-2.5 45t-5 58.5l-74 12l-12 42q50 2 103.5 5.5t118.5 12.5zM701 435q62 0 98.5 -43t40.5 -114
q1 -18 0 -55.5t-1.5 -82t0.5 -82.5l74 -21l-15 -37q-27 2 -60.5 2.5t-69.5 0.5q-34 0 -64.5 -1t-56.5 -2l-14 37l73 21q2 34 2.5 56.5l1 45t0.5 54.5q-1 73 -24.5 99.5t-71.5 26.5q-43 -29 -60.5 -71.5t-17.5 -78.5l-36 42q7 58 34.5 103.5t70.5 72.5t96 27z" />
            <glyph glyph-name="n" unicode="n" horiz-adv-x="623" d="M404 435q57 0 93.5 -43t40.5 -111q1 -18 0 -56.5t-1.5 -83.5t-0.5 -83l75 -21l-16 -37q-26 2 -59 2.5t-65 0.5q-39 0 -70 -1t-57 -2l-13 37l73 21q1 34 2 57.5t1.5 47t-0.5 55.5q-1 61 -22 89t-62 37q-44 -29 -64 -71t-19 -80l-37 44q7 57 34.5 102t70.5 70.5t96 25.5z
M241 440v-53.5t-0.5 -41t-2.5 -54.5l4 -233l73 -21l-13 -37q-34 2 -64 2.5t-66 0.5q-39 0 -67.5 -1t-57.5 -2l-16 37l75 21q0 32 2.5 75.5t2.5 82.5q0 29 -0.5 48.5t-2.5 41t-6 56.5l-78 19l-12 38q59 3 111.5 8.5t117.5 12.5z" />
            <glyph glyph-name="o" unicode="o" horiz-adv-x="504" d="M257 434q74 0 123.5 -31t74 -81t24.5 -108q0 -59 -25 -110.5t-75 -82.5t-125 -31t-126 31.5t-77 83.5t-26 111q0 58 25.5 107.5t77 80t129.5 30.5zM165 237q0 -50 11.5 -95t34.5 -73t55 -28q38 0 56.5 41.5t18.5 103.5q0 50 -11.5 94.5t-34 73t-55.5 28.5
q-38 0 -56.5 -41.5t-18.5 -103.5z" />
            <glyph glyph-name="p" unicode="p" horiz-adv-x="582" d="M239 435q2 -36 4.5 -65t3.5 -49q-1 -32 -1 -63v-66v-69.5t1 -79t2 -102t2 -138.5l100 -24l-14 -39q-26 2 -66 3t-84 1q-49 0 -80 -1t-60 -3l-15 39l79 20q2 20 2.5 56t1 77.5t0.5 77v53.5q0 46 -0.5 88t-2 92t-5.5 120l-84 15l-11 41q17 1 46 2t62 2.5t64.5 4.5t54.5 7z
M385 436q57 0 95.5 -30.5t57.5 -79t19 -102.5q0 -57 -22 -109.5t-66 -86t-111 -33.5q-55 0 -96.5 31t-71.5 79l21 42q15 -32 48.5 -57t72.5 -25q30 0 50 20.5t30 53.5t10 69t-10 70.5t-31 58.5t-54 28q-14 -3 -33.5 -24t-33.5 -52t-14 -65l-28 67q9 48 34.5 80t60.5 48.5
t72 16.5z" />
            <glyph glyph-name="q" unicode="q" horiz-adv-x="530" d="M463 434q-2 -112 -3.5 -213t-1.5 -197q0 -61 1 -111.5t2 -113.5l79 -20l-13 -39q-26 2 -56 3t-82 1q-20 0 -48.5 -0.5t-57 -1.5t-48.5 -2l-12 39l98 23q1 104 2.5 203.5t1.5 199.5v86.5t-2 75.5q18 16 29 25t22 18.5t28 23.5h61zM205 436q55 0 92.5 -29t59.5 -82l-31 -85
q0 35 -13 63.5t-32.5 47t-38.5 22.5q-40 -12 -62.5 -55t-22.5 -99q0 -76 29 -113t66 -37q35 0 66.5 38t43.5 100l31 -45q-27 -73 -73.5 -121t-114.5 -48q-45 0 -87.5 25.5t-69.5 76t-27 126.5q0 71 28 119t70.5 72t85.5 24z" />
            <glyph glyph-name="r" unicode="r" horiz-adv-x="482" d="M228 434q1 -23 3 -54t4 -56.5t2 -34.5l7 -227l99 -25l-15 -37q-17 1 -45 1.5t-58 1t-54 0.5q-31 0 -67 -1t-66 -2l-15 37l81 21v80.5v77.5q0 23 -0.5 42.5t-1.5 44t-4 60.5l-68 11l-14 42q23 1 61.5 3t79.5 6t71 9zM362 436q28 0 52 -10.5t46 -33.5q-6 -30 -11 -52
t-11.5 -43.5t-15.5 -52.5h-56q-7 37 -20.5 64.5t-36.5 37.5q-25 -16 -47.5 -59.5t-22.5 -115.5l-39 58q8 56 31 103t56.5 75.5t74.5 28.5z" />
            <glyph glyph-name="s" unicode="s" horiz-adv-x="387" d="M26 26q8 38 13.5 63.5t9.5 55.5h50l16 -78q13 -11 31 -17t36 -6q25 0 44.5 12t19.5 37q0 21 -15.5 34.5t-39.5 24t-51 21t-51 26.5t-39.5 40t-15.5 61q0 51 25 80.5t65.5 42.5t85.5 13q35 0 73 -8t69 -23q-8 -35 -14.5 -62t-11.5 -53l-52 1l-13 68q-18 24 -59 24
q-22 0 -40.5 -10t-18.5 -33q0 -22 16 -35.5t41.5 -23.5t54.5 -21.5t54.5 -28.5t41.5 -43.5t16 -67.5q0 -48 -26 -76.5t-69 -41t-93 -12.5q-38 0 -77 8t-76 28z" />
            <glyph glyph-name="t" unicode="t" horiz-adv-x="346" d="M200 552q-2 -35 -3 -81.5t-1.5 -96t0 -94.5t1 -78t1.5 -46q2 -37 13 -52t35 -15q17 0 36 6t50 25l20 -40q-25 -21 -53.5 -42t-62 -34.5t-74.5 -13.5q-23 0 -45 9.5t-35.5 33t-13.5 63.5q0 -1 0.5 18t1 50.5t1.5 66.5t1.5 66t1 50.5t0.5 17.5q-1 11 -12.5 19t-26.5 14
t-27 11t-13 11q24 4 41 8t37 9q22 29 39.5 54.5t40.5 60.5h23h24zM338 421v-73l-343 20v52z" />
            <glyph glyph-name="u" unicode="u" horiz-adv-x="611" d="M230 -17q-63 0 -98.5 43t-40.5 125q-2 35 -2 86.5t1 129.5l-71 11l-12 41q58 0 114.5 4t105.5 11q-2 -46 -4.5 -84.5t-2.5 -78t3 -91.5q3 -58 27 -80t47 -22q24 5 45 32.5t34 67t13 78.5l26 -85q-6 -49 -31 -92t-64.5 -69.5t-89.5 -26.5zM397 0q-1 30 -3.5 64t-3.5 81
l-6 221l-72 12l-12 41q59 0 114 4t105 11l-0.5 -23t-1 -57t-1.5 -67.5t-1.5 -56.5l-0.5 -23q1 -34 3.5 -64.5t6.5 -84.5l75 -21l-19 -37q-26 2 -48.5 2h-57.5q-15 0 -39 -1t-38 -1z" />
            <glyph glyph-name="v" unicode="v" horiz-adv-x="579" d="M286 419l17 -38l-76 -22q16 -37 27 -63.5t22.5 -51t27 -54t39.5 -72.5q2 -10 -7 -30.5t-22.5 -43t-27 -38t-21.5 -15.5q-27 55 -49.5 100l-43 86t-43.5 85t-52 97l-67 22l10 38q30 -1 58.5 -2t66.5 -1q42 0 78 1t63 2zM563 419l16 -38l-75 -22q-38 -71 -64.5 -129.5
t-50.5 -115.5t-53 -123h-71q42 86 80.5 174.5t69.5 193.5l-77 22l15 38q32 -1 56.5 -2t50.5 -1q34 0 55 1t48 2z" />
            <glyph glyph-name="w" unicode="w" horiz-adv-x="794" d="M292 419l15 -38l-71 -21q12 -37 21.5 -65.5t19.5 -54t22 -55t30 -68.5q0 -10 -10 -30.5t-24 -42.5t-27.5 -37.5t-21.5 -15.5q-29 74 -54 133.5t-50.5 116t-55.5 119.5l-76 21l16 38l60 -2t64 -1q88 0 142 3zM391 424l54 -1l-9 -106q-35 -79 -68 -162.5t-63 -163.5h-59
q21 47 42 103.5t40.5 115.5t36 114t26.5 100zM445 423q26 -69 46 -120.5t39.5 -99t43.5 -105.5q0 -10 -10 -28t-25 -36t-29.5 -30.5t-23.5 -12.5q-23 62 -40.5 108t-35.5 87t-44 89zM767 419l17 -38l-82 -21q-30 -67 -56.5 -126.5t-51 -118t-50.5 -124.5h-58q35 80 71 175
t58 194l-80 21l15 38q62 -3 113 -3q34 0 55.5 1t48.5 2z" />
            <glyph glyph-name="x" unicode="x" horiz-adv-x="530" d="M258 419l17 -38l-46 -19q37 -55 70.5 -102t72.5 -94.5t89 -105.5l69 -22l-13 -38q-30 2 -55 2.5t-60 0.5q-49 0 -80 -0.5t-58 -2.5l-17 38l53 19q-31 39 -56.5 73t-50 68t-53 73t-64.5 88l-76 22l12 38q30 -1 65.5 -2t66.5 -1q60 0 114 3zM282 192q-34 -38 -61.5 -75.5
t-43.5 -56.5l62 -22l-15 -38q-31 2 -52 2.5t-53 0.5q-34 0 -55 -0.5t-48 -2.5l-16 38l87 22q18 18 44 49.5t55.5 68t58.5 69.5zM242 227q33 38 60.5 76.5t42.5 55.5l-62 22l15 38q25 -1 43.5 -2t48.5 -1q34 0 55 1t48 2l16 -38l-76 -22q-20 -23 -46 -55.5t-53.5 -66.5
t-54.5 -65z" />
            <glyph glyph-name="y" unicode="y" horiz-adv-x="586" d="M571 421l15 -38l-77 -19q-67 -145 -130.5 -283.5t-103.5 -270.5l92 -31l-16 -39q-24 2 -59 3t-71 1q-24 0 -54.5 -0.5t-57.5 -1.5t-43 -2l-16 40l117 32q28 40 62.5 104t70.5 140.5t67.5 156t53.5 151.5l-78 19l14 38q31 -1 55.5 -1.5t50.5 -0.5q27 0 54 0.5t54 1.5z
M284 420l18 -38l-72 -20q12 -37 22 -65t20.5 -53.5t25 -56.5t35.5 -74q2 -10 -5 -33.5t-18.5 -49t-24 -43.5t-20.5 -18q-28 62 -51 111t-44 93.5t-44 89.5t-50 99l-76 20l14 38q30 -1 60.5 -2t69.5 -1q42 0 78 1t62 2z" />
            <glyph glyph-name="z" unicode="z" horiz-adv-x="420" d="M39 0q-9 8 -14.5 17.5t-8.5 19.5q43 57 84.5 117.5t77 115t58.5 90.5q-5 1 -11 1h-12q-26 0 -54.5 -3.5t-42.5 -9.5q-17 -30 -34 -76h-55q4 36 6.5 78.5t2.5 69.5q35 -2 64 -2.5t57 -0.5h60q37 0 76.5 1t86.5 2q6 -7 12.5 -18.5t9.5 -19.5q-26 -34 -59 -81.5t-64.5 -96
t-55 -88t-31.5 -58.5q5 -1 11 -1.5t13 -0.5q20 0 46 4.5t48 14.5q14 17 24.5 36t21.5 41l54 -13q-7 -31 -14 -67.5t-11 -71.5q-35 2 -83.5 2h-98.5h-93t-71 -2z" />
            <glyph glyph-name="braceleft" unicode="{" horiz-adv-x="265" d="M20 381q25 8 41 24t16 41q0 46 -9 82.5t-18.5 67.5t-9.5 58q0 39 36.5 76t131.5 83q12 -14 22 -35q-32 -19 -44.5 -40.5t-12.5 -45.5q0 -27 9.5 -57t19 -63.5t9.5 -71.5q0 -31 -21 -55.5t-48 -42.5t-46 -33q19 -14 46 -32.5t48 -42.5t21 -56q0 -37 -9.5 -71t-19 -64
t-9.5 -57q0 -24 12.5 -45t44.5 -41q-10 -21 -22 -35q-95 47 -131.5 83.5t-36.5 75.5q0 28 9.5 58.5t18.5 67t9 82.5q0 25 -16 41t-41 24v24z" />
            <glyph glyph-name="braceright" unicode="}" horiz-adv-x="265" d="M245 381q-25 8 -41 24t-16 41q0 46 9 82.5t18.5 67.5t9.5 58q0 39 -36.5 76t-131.5 83q-12 -14 -22 -35q32 -19 44.5 -40.5t12.5 -45.5q0 -27 -9.5 -57t-19 -63.5t-9.5 -71.5q0 -31 21 -55.5t48 -42.5t46 -33q-19 -14 -46 -32.5t-48 -42.5t-21 -56q0 -37 9.5 -71t19 -64
t9.5 -57q0 -24 -12.5 -45t-44.5 -41q10 -21 22 -35q95 47 131.5 83.5t36.5 75.5q0 28 -9.5 58.5t-18.5 67t-9 82.5q0 25 16 41t41 24v24z" />
            <glyph glyph-name="bar" unicode="|" horiz-adv-x="261" d="M186 763q-4 -112 -5 -224.5t-1 -225.5t2.5 -225.5t3.5 -225.5h-111q2 113 4 225.5t2 225.5t-0.5 225.5t-5.5 224.5h111z" />
            <glyph glyph-name="asciitilde" unicode="~" horiz-adv-x="620" d="M421 206q-40 0 -72 14.5t-60.5 33t-59 33t-67.5 14.5q-15 -5 -35 -20t-39 -31.5t-32 -28.5l-32 20q21 30 48.5 65t61 59.5t71.5 24.5q40 0 70.5 -13t56 -29.5t52 -29.5t59.5 -13q29 8 65.5 29t58.5 41l28 -20q-24 -40 -53 -74t-59.5 -54.5t-61.5 -20.5z" />
            <glyph glyph-name="uni00A0" unicode="&#xa0;" horiz-adv-x="200" />
            <glyph glyph-name="uni00A0.ar" horiz-adv-x="70" />
            <glyph glyph-name="exclamdown" unicode="&#xa1;" horiz-adv-x="263" d="M165 -22q-41 6 -74 15.5t-61 26.5q11 104 20.5 190.5t15.5 168t9 171.5h60q5 -90 12.5 -171.5t20.5 -170.5t35 -198zM105 602q-15 0 -28.5 2t-28.5 6q-3 15 -4.5 28t-1.5 28q0 26 6 55q15 2 28.5 5t28.5 3q12 0 25 -3t29 -5q2 -14 4.5 -27.5t2.5 -27.5q0 -15 -2.5 -28
t-4.5 -28q-16 -4 -29 -6t-25 -2z" />
            <glyph glyph-name="cent" unicode="&#xa2;" horiz-adv-x="433" d="M275 -90h-63q3 89 4 161t1 139.5t-1 139.5t-4 161h63q-3 -89 -4 -161t-1 -139.5t1 -139.5t4 -161zM425 69q-34 -31 -80.5 -53t-106.5 -22q-72 0 -120.5 32t-72.5 82t-24 105q0 56 25 107t75.5 83.5t128.5 32.5q42 0 82.5 -9.5t77.5 -32.5q-14 -52 -20 -85.5t-12 -63.5
h-50l-15 91q-25 21 -57 33t-64 10q-21 -25 -32.5 -59t-11.5 -70q0 -54 19 -93t50.5 -60.5t68.5 -21.5q25 0 53.5 10.5t58.5 32.5z" />
            <glyph glyph-name="sterling" unicode="&#xa3;" horiz-adv-x="639" d="M589 0h-505l-13 38l89 22q22 20 32 48.5t10 62.5q0 32 -10.5 67.5t-25 73t-25 76t-10.5 76.5q0 66 32 112.5t85 70.5t116 24q47 0 95.5 -10.5t92.5 -45.5q-2 -37 -12 -74t-27 -63h-54q-16 67 -54.5 102t-105.5 39q-16 -28 -22.5 -54t-6.5 -52q0 -40 11 -78.5t25.5 -77.5
t25.5 -79t11 -84q0 -40 -32 -70.5t-72 -49.5q25 -3 57.5 -6.5t66.5 -3.5q36 0 70 5.5t59 19.5l24 121h64q2 -105 9 -210zM53 303v63q58 -2 104.5 -3.5t91.5 -1.5q44 0 91 1.5t104 3.5v-63q-57 3 -104 4t-91 1q-45 0 -91.5 -1t-104.5 -4z" />
            <glyph glyph-name="currency" unicode="&#xa4;" horiz-adv-x="521" d="M260 162q-55 0 -92 23.5t-55.5 60t-18.5 76.5t18.5 76.5t56 59.5t93.5 23q54 0 89.5 -23t53 -59t17.5 -76t-18 -77t-54 -60.5t-90 -23.5zM259 237q43 0 64.5 26.5t21.5 57.5q0 32 -22.5 58.5t-66.5 26.5q-43 0 -64.5 -25.5t-21.5 -57.5t22.5 -59t66.5 -27zM412 531
q14 -16 28.5 -31t30.5 -29q-39 -31 -72 -71l-58 57q19 18 36.5 36t34.5 38zM50 169q20 17 38 35t36 37l57 -59q-40 -33 -71 -72q-14 17 -28.5 31.5t-31.5 27.5zM471 169q-16 -13 -30.5 -27.5t-28.5 -31.5q-16 20 -33.5 38t-37.5 34l58 59q32 -38 72 -72zM110 531
q17 -20 34.5 -38t36.5 -36l-57 -57q-17 20 -35 37.5t-39 33.5q32 28 60 60z" />
            <glyph glyph-name="yen" unicode="&#xa5;" horiz-adv-x="600" d="M554 256v-63q-76 4 -143 5t-134 0t-144 -5v63q77 -3 144 -4.5t134 0t143 4.5zM554 346v-63q-76 4 -143 5t-134 0t-144 -5v63q77 -3 144 -4.5t134 0t143 4.5zM313 660l15 -39l-66 -16q15 -33 36.5 -84.5t50.5 -111.5t64 -122l-121 -89q-22 49 -47.5 104t-51 110.5
t-50.5 104.5t-46 86l-77 18l13 39q31 -1 61 -2t69 -1q53 0 88 1t62 2zM413 297q-1 -53 -1.5 -92.5t0.5 -73.5t2 -72l101 -21l-13 -38q-26 2 -65 2.5t-98 0.5q-61 0 -94 -1t-63 -2l-13 38l102 21q2 39 2.5 70t0 65t-2.5 81zM636 660l15 -39l-80 -21q-19 -32 -43 -80t-50 -103
t-50 -110t-42 -102l-40 74q18 33 37 75.5t36.5 88t32 87t24.5 72.5l-83 19l14 39q31 -1 57 -2t60 -1t60 1z" />
            <glyph glyph-name="brokenbar" unicode="&#xa6;" horiz-adv-x="413" d="M248 430h-83q4 156 0 311h83q-4 -155 0 -311zM248 -100h-83q4 156 0 311h83q-4 -155 0 -311z" />
            <glyph glyph-name="section" unicode="&#xa7;" horiz-adv-x="557" d="M249 310q-28 -6 -48.5 -26t-20.5 -52t23.5 -53.5t60 -38t77.5 -34.5t77.5 -42t60 -60t23.5 -89q0 -62 -35 -101.5t-91 -58t-119 -18.5q-49 0 -104 14.5t-96 40.5q11 43 18 76.5t14 80.5h62l13 -124q34 -23 69 -29.5t64.5 3t48 32.5t18.5 58t-22.5 56.5t-57.5 36
t-74.5 29.5t-74.5 36.5t-57.5 56t-22.5 88.5q0 77 50.5 120t124.5 53zM285 69q33 7 56 29t23 64q0 40 -22.5 65t-57.5 42t-74.5 33t-74.5 38t-57.5 56.5t-22.5 88.5q0 59 31 98t82 58.5t111 19.5q52 0 106 -12t94 -32q-10 -46 -17.5 -81t-15.5 -72h-61l-9 103q-13 19 -41 29
t-59 10q-37 0 -66.5 -20.5t-29.5 -60.5q0 -32 23.5 -53.5t60 -39t77.5 -36.5t77.5 -45t60 -65.5t23.5 -97.5q0 -52 -25 -88.5t-67 -57t-93 -28.5z" />
            <glyph glyph-name="copyright" unicode="&#xa9;" horiz-adv-x="786" d="M395 15q62 0 117.5 24.5t98 67.5t67 99.5t24.5 120.5q0 62 -24.5 117.5t-67 98t-98 67t-117.5 24.5q-64 0 -120.5 -24.5t-99.5 -67t-67.5 -98t-24.5 -117.5q0 -64 25 -120.5t68.5 -99.5t99.5 -67.5t119 -24.5zM394 -33q-75 0 -140 28t-114 77t-77 114t-28 140
q0 74 28 138.5t77 113.5t114 77t140 28q74 0 138.5 -28t113.5 -77t77 -113.5t28 -138.5q0 -75 -28 -140t-77 -114t-113.5 -77t-138.5 -28zM521 227l28 -36q-36 -36 -73.5 -55t-87.5 -19q-69 0 -115.5 30.5t-70 79t-23.5 100.5q0 57 23.5 106t69.5 79.5t111 30.5q52 0 90 -11
t74 -31q-10 -44 -15 -68.5t-10 -54.5h-41l-13 73q-26 21 -59 34t-64 13q-25 -29 -37.5 -64.5t-12.5 -94.5q0 -78 28.5 -123t80.5 -45q36 0 61.5 14t55.5 42z" />
            <glyph glyph-name="registered" unicode="&#xae;" horiz-adv-x="786" d="M395 15q62 0 117.5 24.5t98 67.5t67 99.5t24.5 120.5q0 62 -24.5 117.5t-67 98t-98 67t-117.5 24.5q-64 0 -120.5 -24.5t-99.5 -67t-67.5 -98t-24.5 -117.5q0 -64 25 -120.5t68.5 -99.5t99.5 -67.5t119 -24.5zM394 -33q-75 0 -140 28t-114 77t-77 114t-28 140
q0 74 28 138.5t77 113.5t114 77t140 28q74 0 138.5 -28t113.5 -77t77 -113.5t28 -138.5q0 -75 -28 -140t-77 -114t-113.5 -77t-138.5 -28zM209 139l-10 29l59 15q2 38 2.5 74.5t0.5 78.5q0 37 -0.5 71.5t-2.5 74.5l-59 16l7 30q25 -3 45 -3.5t62 -0.5q31 0 49.5 1t34 2
t35.5 1q66 0 98.5 -34t32.5 -75q0 -30 -17 -59t-50 -47.5t-82 -18.5q-17 0 -26 0.5t-17 2t-23 3.5v44q20 -4 31.5 -6.5t20.5 -2.5h10.5t9.5 1q19 11 28 31.5t9 43.5q0 29 -14 52t-41 23q-10 0 -20 -2.5t-20 -6.5q-1 -36 -1.5 -71.5t-0.5 -75.5t0.5 -76t1.5 -71l59 -15
l-11 -29q-19 1 -37.5 1.5t-58.5 0.5q-38 0 -60 -0.5t-45 -1.5zM464 139q-28 56 -51 96.5t-47 77.5q12 0 33 3t39.5 5.5t21.5 2.5q20 -30 41.5 -62t56.5 -79l60 -15l-10 -29q-13 1 -30 1h-37h-38t-39 -1z" />
            <glyph glyph-name="ordfeminine" unicode="&#xaa;" horiz-adv-x="372" d="M25 316q47 -1 102 -1.5t109.5 0t101.5 1.5v-42q-47 1 -101.5 1.5t-109.5 0t-102 -1.5v42zM206 680q39 0 68.5 -24.5t29.5 -73.5t-2.5 -75t-2.5 -53q0 -21 3 -29.5t15 -8.5q10 0 31 10l14 -33q-27 -19 -52 -31.5t-53 -12.5q-23 0 -40 18.5t-17 58.5q0 36 3 71.5t3 64.5
q0 47 -29 57q-35 -2 -66.5 -13t-63.5 -29l-20 33q43 31 87 50.5t92 19.5zM259 562l-45 -62q-17 -4 -30 -7.5t-23 -5.5q-26 -6 -35.5 -14t-9.5 -27q0 -34 31 -34q17 0 43.5 16.5t45.5 40.5l15 -30q-12 -15 -34.5 -37t-53 -39t-67.5 -17q-28 0 -52.5 22.5t-24.5 68.5
q0 31 19 49t52 27.5t73 16.5q27 5 50 12t46 20z" />
            <glyph glyph-name="guillemotleft" unicode="&#xab;" horiz-adv-x="574" d="M490 457l39 -34q-39 -51 -75 -105.5t-63 -106.5q28 -52 64 -106.5t74 -104.5l-39 -35q-60 57 -122.5 114.5t-109.5 107.5v48q47 50 109 108t123 114zM287 457l39 -34q-39 -51 -75 -105.5t-63 -106.5q28 -52 64 -106.5t74 -104.5l-39 -35q-60 57 -122.5 114.5
t-109.5 107.5v48q47 50 109 108t123 114z" />
            <glyph glyph-name="logicalnot" unicode="&#xac;" horiz-adv-x="571" d="M536 471l-3 -83q-75 2 -162 2.5t-174 0t-162 -2.5v83q75 -1 163 -1.5t175.5 0t162.5 1.5zM453 465l83 6q-1 -56 -1.5 -94.5t-0.5 -71t0.5 -71t1.5 -94.5h-83q1 56 1.5 93.5t0.5 69t-0.5 69t-1.5 93.5z" />
            <glyph glyph-name="uni00AD" unicode="&#xad;" horiz-adv-x="348" d="M300 310v-83h-252v83h252z" />
            <glyph glyph-name="degree" unicode="&#xb0;" horiz-adv-x="314" d="M140 487q29 0 49.5 21t20.5 50t-20.5 49.5t-49.5 20.5t-50 -20.5t-21 -49.5t21.5 -50t49.5 -21zM140 428q-36 0 -65.5 17.5t-47 47t-17.5 65.5t17.5 65t47 46.5t65.5 17.5t65 -17.5t46.5 -46.5t17.5 -65t-17.5 -65.5t-46.5 -47t-65 -17.5z" />
            <glyph glyph-name="plusminus" unicode="&#xb1;" horiz-adv-x="571" d="M536 454v-83q-75 2 -162.5 2.5t-175.5 0t-163 -2.5v83q75 -1 163 -1.5t175.5 0t162.5 1.5zM327 195h-83q4 221 0 441h83q-4 -220 0 -441zM536 152v-83q-75 2 -162.5 2.5t-175.5 0t-163 -2.5v83q75 -1 163 -1.5t175.5 0t162.5 1.5z" />
            <glyph glyph-name="asciicircum" unicode="^" horiz-adv-x="551" d="M299 671q49 -88 100.5 -177t106.5 -178h-87l-166 273h54l-174 -273h-88q59 89 114.5 178t107.5 177h32z" />
            <glyph glyph-name="uni00B5" unicode="&#xb5;" horiz-adv-x="641" d="M207 434q-1 -24 -4 -62t-5 -81t-2 -82v-19.5t1 -18.5q2 -46 16 -79t49 -33q16 7 33 26.5t29.5 47.5t12.5 58l48 -3q-6 -53 -27 -99.5t-59 -75t-96 -28.5q-42 0 -72 25.5t-46 64t-18 76.5q-1 11 -1 30v42v40v43v66.5t-2 61.5h143zM117 182q-3 -39 -3 -72q0 -91 17 -144.5
t43.5 -81.5t53.5 -42q-10 -30 -54 -45t-99 -15q-6 51 -8 114t-2 121q0 55 1 99.5t1 65.5h50zM475 434q-2 -38 -5.5 -85t-6 -88.5t-2.5 -65.5q0 -58 10 -86t35 -28q14 0 33.5 8.5t44.5 24.5l27 -39q-102 -91 -174 -91q-46 0 -73 41t-27 126q0 54 -0.5 95.5t-1.5 85t-5 102.5
h145z" />
            <glyph glyph-name="paragraph" unicode="&#xb6;" horiz-adv-x="595" d="M281 -60q2 34 2.5 77.5t1.5 89.5t1 87.5v71.5q-66 0 -122 19.5t-90 64t-34 118.5q0 56 25 98.5t79.5 66.5t142.5 24q28 0 60.5 -0.5t63.5 -0.5q30 0 53 0.5t46.5 1.5t53.5 2l11 -38l-89 -26q-1 -40 -2.5 -72.5t-2 -69t-0.5 -88.5v-65.5t0.5 -92.5l1 -102t1.5 -95t2 -71
h-81q0 3 -0.5 40t-0.5 96t-0.5 129t-0.5 139.5v127.5v93v35h-38v-35v-93t-0.5 -127.5t-0.5 -139.5t-0.5 -129t-1 -96t-0.5 -40h-81z" />
            <glyph glyph-name="periodcentered" unicode="&#xb7;" horiz-adv-x="179" d="M90 391q13 0 26 -3t26 -7q4 -13 6.5 -26t2.5 -26t-2.5 -26t-6.5 -26q-13 -4 -26 -7t-26 -3t-26 3t-27 7q-8 27 -8 52t8 52q14 4 27 7t26 3z" />
            <glyph glyph-name="ordmasculine" unicode="&#xba;" horiz-adv-x="377" d="M25 316q47 -1 102 -1.5t109.5 0t101.5 1.5v-42q-47 1 -101.5 1.5t-109.5 0t-102 -1.5v42zM193 684q55 0 92 -23.5t55.5 -61t18.5 -80.5q0 -45 -19 -83.5t-56.5 -61.5t-92.5 -23q-57 0 -95 23.5t-57.5 62t-19.5 83.5q0 44 19 81t57.5 60t97.5 23zM124 536q0 -38 8.5 -71.5
t25.5 -54.5t42 -21q28 0 42 31t14 78q0 37 -9 70.5t-26 55t-41 21.5q-29 0 -42.5 -31.5t-13.5 -77.5z" />
            <glyph glyph-name="guillemotright" unicode="&#xbb;" horiz-adv-x="584" d="M84 457l-39 -34q39 -51 75 -105.5t63 -106.5q-28 -52 -64 -106.5t-74 -104.5l39 -35q60 57 122.5 114.5t109.5 107.5v48q-47 50 -109 108t-123 114zM297 457l-39 -34q39 -51 75 -105.5t63 -106.5q-28 -52 -64 -106.5t-74 -104.5l39 -35q60 57 122.5 114.5t109.5 107.5v48
q-47 50 -109 108t-123 114z" />
            <glyph glyph-name="onesuperior" unicode="&#xb9;" horiz-adv-x="342" d="M238 670q-1 -62 -1.5 -115t-0.5 -98q0 -33 0.5 -74t1.5 -79l84 -22l-11 -31q-23 1 -53.5 1.5t-71.5 0.5q-20 0 -46 -0.5t-50.5 -1t-40.5 -0.5l-11 31l92 22q1 28 1 68v80q0 18 -0.5 42t-1.5 46t-2 33l-89 -1l-18 41q53 5 91.5 16t81.5 41h45z" />
            <glyph glyph-name="twosuperior" unicode="&#xb2;" horiz-adv-x="356" d="M20 563q37 42 78 73.5t100 31.5q53 0 90 -30.5t37 -87.5q0 -44 -33 -86.5t-85.5 -83.5t-112.5 -82l30 31q42 1 73.5 2t64 4t74.5 10q-1 -22 -1.5 -48t-1.5 -46q-40 2 -84.5 2.5t-80.5 0.5q-17 0 -56 -0.5t-75 -2.5l-15 32q92 83 141 139t49 108q0 35 -25 52t-64.5 4.5
t-82.5 -64.5z" />
            <glyph glyph-name="threesuperior" unicode="&#xb3;" horiz-adv-x="372" d="M170 247q-37 0 -74.5 10.5t-70.5 32.5l9 43q32 -18 59 -25t55 -7q41 0 63.5 23.5t22.5 53.5q0 27 -21 52.5t-66 33.5l-9 21q17 17 38 41.5t40 49.5q-14 1 -27.5 1h-26.5h-32t-33 -2q-7 -14 -12 -26t-11 -32h-40q1 19 1.5 41t0.5 44q0 17 -0.5 32.5t-1.5 25.5q33 -1 68 -1
h70h70t68 1l17 -50q-25 -24 -40 -39t-26 -25.5t-24 -23.5q53 -15 77.5 -53t24.5 -78q0 -37 -19.5 -70t-57.5 -53.5t-92 -20.5z" />
            <glyph glyph-name="onehalf" unicode="&#xbd;" horiz-adv-x="901" d="M774 693l-550 -741h-81l549 741h82zM253 670q-1 -62 -1.5 -115t-0.5 -98q0 -33 0.5 -74t1.5 -79l84 -22l-11 -31q-23 1 -53.5 1.5t-71.5 0.5q-20 0 -46 -0.5t-50.5 -1t-40.5 -0.5l-11 31l92 22q1 28 1 68v80q0 18 -0.5 42t-1.5 46t-2 33l-89 -1l-18 41q53 5 91.5 16
t81.5 41h45zM550 312q37 42 78 73.5t100 31.5q53 0 90 -30.5t37 -87.5q0 -45 -33 -87t-85.5 -83t-112.5 -82l30 31q42 1 73.5 2t64 4t74.5 10q-1 -22 -1.5 -48t-1.5 -46q-40 2 -84.5 2.5t-80.5 0.5q-17 0 -56 -0.5t-75 -2.5l-15 32q92 83 141 139t49 108q0 35 -25 52
t-64.5 4.5t-82.5 -64.5z" />
            <glyph glyph-name="onequarter" unicode="&#xbc;" horiz-adv-x="865" d="M774 693l-550 -741h-81l549 741h82zM253 670q-1 -62 -1.5 -115t-0.5 -98q0 -33 0.5 -74t1.5 -79l84 -22l-11 -31q-23 1 -53.5 1.5t-71.5 0.5q-20 0 -46 -0.5t-50.5 -1t-40.5 -0.5l-11 31l92 22q1 28 1 68v80q0 18 -0.5 42t-1.5 46t-2 33l-89 -1l-18 41q53 5 91.5 16
t81.5 41h45zM759 418q-1 -103 -1 -176t1 -130t4 -113h-109q1 20 2 58t1.5 82.5t1 84.5t0.5 64q-25 -38 -41.5 -63t-29.5 -43.5t-26 -38.5q14 -1 48.5 -2.5t68.5 -1.5q37 0 69.5 0.5t73.5 3.5v-55q-43 2 -84 2.5t-91 0.5h-55t-47 -0.5t-68 -2.5v51q65 72 123.5 136t121.5 143
h37z" />
            <glyph glyph-name="threequarters" unicode="&#xbe;" horiz-adv-x="840" d="M108 -48l549 741h82l-550 -741h-81zM719 420q-1 -103 -1 -176t1 -130t4 -113h-109q1 20 2 58t1.5 82.5t1 84.5t0.5 64q-25 -38 -41.5 -63t-29.5 -43.5t-26 -38.5q14 -1 48.5 -2.5t68.5 -1.5q37 0 69.5 0.5t73.5 3.5v-55q-43 2 -84 2.5t-91 0.5h-55t-47 -0.5t-68 -2.5v51
q65 72 123.5 136t121.5 143h37zM180 247q-37 0 -74.5 10.5t-70.5 32.5l9 43q32 -18 59 -25t55 -7q41 0 63.5 23.5t22.5 53.5q0 27 -21 52.5t-66 33.5l-9 21q17 17 38 41.5t40 49.5q-14 1 -27.5 1h-26.5h-32t-33 -2q-7 -14 -12 -26t-11 -32h-40q1 19 1.5 41t0.5 44
q0 17 -0.5 32.5t-1.5 25.5q33 -1 68 -1h70h70t68 1l17 -50q-25 -24 -40 -39t-26 -25.5t-24 -23.5q53 -15 77.5 -53t24.5 -78q0 -37 -19.5 -70t-57.5 -53.5t-92 -20.5z" />
            <glyph glyph-name="questiondown" unicode="&#xbf;" horiz-adv-x="473" d="M270 -8q-76 0 -125.5 31.5t-74.5 81.5t-25 106q0 55 25.5 107t76.5 86t128 37q2 22 3 45t3 56h62q3 -39 7 -71.5t9 -69.5t13 -86q-9 1 -20.5 1h-35.5q-84 0 -118 -39t-34 -97q0 -38 10 -68t28 -55q6 -1 11.5 -1h11.5q37 0 66.5 9t55.5 23l20 105h50q7 -44 16 -84t20 -83
q-35 -15 -81.5 -24.5t-101.5 -9.5zM311 596q-15 0 -28.5 2t-28.5 6q-3 15 -4.5 28t-1.5 28q0 26 6 55q15 2 28.5 5t28.5 3q12 0 25 -3t29 -5q2 -14 4.5 -27.5t2.5 -27.5q0 -15 -2.5 -28t-4.5 -28q-16 -4 -29 -6t-25 -2z" />
            <glyph glyph-name="Agrave" unicode="&#xc0;" horiz-adv-x="715" d="M384 664q59 -165 126.5 -318.5t124.5 -286.5l78 -21l-13 -38q-31 2 -69.5 2.5t-69.5 0.5q-18 0 -47.5 -0.5t-58.5 -1t-47 -1.5l-14 38l78 21q-30 77 -75.5 187.5t-97.5 234.5zM384 664q-7 -18 -13.5 -33t-13.5 -36t-15 -57q-19 -52 -42.5 -116.5t-48 -131t-44.5 -127
t-31 -104.5l74 -21l-13 -38q-64 3 -118 3q-50 0 -104 -3l-13 38l74 21q19 35 44.5 88.5t54 118.5t57.5 135t55 137.5t46 125.5h51zM477 225v-78q-43 5 -81.5 6t-70.5 1q-34 0 -66.5 -1t-71.5 -6v77q39 -5 71.5 -7t66.5 -2q32 0 70.5 2t81.5 8zM298 946q9 -4 19.5 -10
t18.5 -9q15 -54 36.5 -107t49.5 -106l-43 -27q-48 53 -83.5 98.5t-67.5 94.5q13 20 32 37t38 29z" />
            <glyph glyph-name="Aacute" unicode="&#xc1;" horiz-adv-x="715" d="M384 664q59 -165 126.5 -318.5t124.5 -286.5l78 -21l-13 -38q-31 2 -69.5 2.5t-69.5 0.5q-18 0 -47.5 -0.5t-58.5 -1t-47 -1.5l-14 38l78 21q-30 77 -75.5 187.5t-97.5 234.5zM384 664q-7 -18 -13.5 -33t-13.5 -36t-15 -57q-19 -52 -42.5 -116.5t-48 -131t-44.5 -127
t-31 -104.5l74 -21l-13 -38q-64 3 -118 3q-50 0 -104 -3l-13 38l74 21q19 35 44.5 88.5t54 118.5t57.5 135t55 137.5t46 125.5h51zM477 225v-78q-43 5 -81.5 6t-70.5 1q-34 0 -66.5 -1t-71.5 -6v77q39 -5 71.5 -7t66.5 -2q32 0 70.5 2t81.5 8zM413 946q20 -12 38.5 -29
t31.5 -37q-31 -49 -67 -94.5t-84 -98.5l-43 27q29 53 50 106t36 107q8 3 18.5 9t19.5 10z" />
            <glyph glyph-name="Acircumflex" unicode="&#xc2;" horiz-adv-x="715" d="M384 664q59 -165 126.5 -318.5t124.5 -286.5l78 -21l-13 -38q-31 2 -69.5 2.5t-69.5 0.5q-18 0 -47.5 -0.5t-58.5 -1t-47 -1.5l-14 38l78 21q-30 77 -75.5 187.5t-97.5 234.5zM384 664q-7 -18 -13.5 -33t-13.5 -36t-15 -57q-19 -52 -42.5 -116.5t-48 -131t-44.5 -127
t-31 -104.5l74 -21l-13 -38q-64 3 -118 3q-50 0 -104 -3l-13 38l74 21q19 35 44.5 88.5t54 118.5t57.5 135t55 137.5t46 125.5h51zM477 225v-78q-43 5 -81.5 6t-70.5 1q-34 0 -66.5 -1t-71.5 -6v77q39 -5 71.5 -7t66.5 -2q32 0 70.5 2t81.5 8zM376 901q34 -35 68 -72.5
t75 -84.5l-31 -36q-45 29 -82.5 52t-75.5 39q-29 -19 -53.5 -39.5t-56.5 -49.5l-36 36q35 37 76.5 79.5t74.5 75.5h41z" />
            <glyph glyph-name="Atilde" unicode="&#xc3;" horiz-adv-x="715" d="M384 664q59 -165 126.5 -318.5t124.5 -286.5l78 -21l-13 -38q-31 2 -69.5 2.5t-69.5 0.5q-18 0 -47.5 -0.5t-58.5 -1t-47 -1.5l-14 38l78 21q-30 77 -75.5 187.5t-97.5 234.5zM384 664q-7 -18 -13.5 -33t-13.5 -36t-15 -57q-19 -52 -42.5 -116.5t-48 -131t-44.5 -127
t-31 -104.5l74 -21l-13 -38q-64 3 -118 3q-50 0 -104 -3l-13 38l74 21q19 35 44.5 88.5t54 118.5t57.5 135t55 137.5t46 125.5h51zM477 225v-78q-43 5 -81.5 6t-70.5 1q-34 0 -66.5 -1t-71.5 -6v77q39 -5 71.5 -7t66.5 -2q32 0 70.5 2t81.5 8zM193 722l-36 20q15 30 39 60
t51.5 49.5t51.5 19.5q29 0 52.5 -13.5t47.5 -27.5t54 -14q15 8 36 24t36 36l33 -20q-13 -30 -37 -60t-51.5 -49.5t-52.5 -19.5q-29 0 -53.5 14t-47.5 27.5t-50 13.5q-16 -8 -37.5 -25.5t-35.5 -34.5z" />
            <glyph glyph-name="Adieresis" unicode="&#xc4;" horiz-adv-x="715" d="M384 664q59 -165 126.5 -318.5t124.5 -286.5l78 -21l-13 -38q-31 2 -69.5 2.5t-69.5 0.5q-18 0 -47.5 -0.5t-58.5 -1t-47 -1.5l-14 38l78 21q-30 77 -75.5 187.5t-97.5 234.5zM384 664q-7 -18 -13.5 -33t-13.5 -36t-15 -57q-19 -52 -42.5 -116.5t-48 -131t-44.5 -127
t-31 -104.5l74 -21l-13 -38q-64 3 -118 3q-50 0 -104 -3l-13 38l74 21q19 35 44.5 88.5t54 118.5t57.5 135t55 137.5t46 125.5h51zM477 225v-78q-43 5 -81.5 6t-70.5 1q-34 0 -66.5 -1t-71.5 -6v77q39 -5 71.5 -7t66.5 -2q32 0 70.5 2t81.5 8zM272 707q-26 0 -44.5 19.5
t-18.5 47.5q0 27 18.5 46t44.5 19t44.5 -19t18.5 -46q0 -28 -18.5 -47.5t-44.5 -19.5zM444 707q-26 0 -44.5 19.5t-18.5 47.5q0 27 18.5 46t44.5 19q25 0 44 -19t19 -46q0 -28 -19 -47.5t-44 -19.5z" />
            <glyph glyph-name="Aring" unicode="&#xc5;" horiz-adv-x="715" d="M384 664q59 -165 126.5 -318.5t124.5 -286.5l78 -21l-13 -38q-31 2 -69.5 2.5t-69.5 0.5q-18 0 -47.5 -0.5t-58.5 -1t-47 -1.5l-14 38l78 21q-30 77 -75.5 187.5t-97.5 234.5zM384 664q-7 -18 -13.5 -33t-13.5 -36t-15 -57q-19 -52 -42.5 -116.5t-48 -131t-44.5 -127
t-31 -104.5l74 -21l-13 -38q-64 3 -118 3q-50 0 -104 -3l-13 38l74 21q19 35 44.5 88.5t54 118.5t57.5 135t55 137.5t46 125.5h51zM477 225v-78q-43 5 -81.5 6t-70.5 1q-34 0 -66.5 -1t-71.5 -6v77q39 -5 71.5 -7t66.5 -2q32 0 70.5 2t81.5 8zM358 771q20 0 33.5 14t13.5 34
t-13.5 33.5t-33.5 13.5t-34 -13.5t-14 -33.5t14.5 -34t33.5 -14zM358 709q-46 0 -78 32t-32 78q0 45 32 77t78 32q45 0 77 -32t32 -77q0 -46 -32 -78t-77 -32z" />
            <glyph glyph-name="AE" unicode="&#xc6;" horiz-adv-x="916" d="M469 596q-68 -120 -124 -213t-100 -171t-78 -153l74 -21l-13 -38q-64 3 -118 3q-26 0 -50.5 -0.5t-51.5 -2.5l-13 38l72 21q28 35 64 89t75 118.5t77 131t71.5 127t57.5 105.5zM448 225v-78q-37 5 -70 6t-61 1q-29 0 -57 -1t-62 -6v77q34 -5 62 -7t57 -2q28 0 61 2t70 8z
M727 371v-84q-23 4 -39 6.5t-34.5 4t-49.5 1.5q-24 0 -51.5 -1t-60.5 -6v74q35 -3 60.5 -4.5t49.5 -1.5q31 0 50 1.5t35.5 4t39.5 5.5zM756 454q-1 -30 -2.5 -59.5t-1.5 -61.5q0 -33 1.5 -70.5t2.5 -58.5h-55l-33 104v43l33 103h55zM878 0q-88 3 -379 3q-35 0 -68.5 -0.5
t-88.5 -2.5l-12 38l89 21q2 81 3.5 159.5t1.5 157.5q0 63 -1.5 116t-3.5 105l-96 24l13 39q50 -2 94 -3t73 -1h70t86 0.5t87 1t74.5 1t47.5 1.5q-3 -63 -5 -111.5t-3 -86.5h-64l-18 105q-25 13 -60 19t-74 6q-18 0 -36.5 -1.5t-37.5 -3.5q-1 -90 -1.5 -170t-0.5 -154
q0 -46 0.5 -94t1.5 -100q17 -2 35 -3.5t36 -1.5q40 0 78 6t63 19l23 121h64q0 -46 2.5 -102.5t6.5 -107.5z" />
            <glyph glyph-name="Ccedilla" unicode="&#xc7;" horiz-adv-x="651" d="M578 156l38 -50q-63 -58 -122 -84.5t-136 -26.5q-95 0 -167 43.5t-111.5 120t-39.5 176.5q0 63 20 123t60 108t101.5 76.5t143.5 28.5q63 0 125 -13.5t117 -39.5q-10 -43 -19.5 -88.5t-17.5 -89.5h-58l-20 116q-39 29 -91.5 40.5t-108.5 11.5q-61 -33 -86 -100t-25 -150
q0 -89 27 -153.5t74 -99t106 -34.5q55 0 96.5 21t93.5 64zM334 3h52l-13 -55q41 -9 66.5 -31t25.5 -51q0 -31 -33.5 -65.5t-123.5 -84.5l-28 41q35 23 57 40t32 36q-2 12 -17 23.5t-58 17.5z" />
            <glyph glyph-name="Egrave" unicode="&#xc8;" horiz-adv-x="602" d="M416 371v-84q-23 4 -39 6.5t-34.5 4t-49.5 1.5q-24 0 -51.5 -1t-60.5 -6v74q35 -3 60.5 -4.5t49.5 -1.5q31 0 50 1.5t35.5 4t39.5 5.5zM445 454q-1 -30 -2.5 -59.5t-1.5 -61.5q0 -33 1.5 -70.5t2.5 -58.5h-55l-33 104v43l33 103h55zM567 0q-88 3 -379 3q-35 0 -68 -0.5
t-88 -2.5l-12 38l88 21q2 81 3.5 159.5t1.5 157.5q0 63 -1.5 116t-3.5 105l-88 24l13 39q50 -2 90 -3t69 -1h70t86 0.5t87 1t74.5 1t47.5 1.5q-3 -63 -5 -111.5t-3 -86.5h-64l-18 105q-25 13 -60 19t-74 6q-18 0 -36.5 -1.5t-37.5 -3.5q-1 -90 -1.5 -170t-0.5 -154
q0 -46 0.5 -94t1.5 -100q17 -2 35 -3.5t36 -1.5q40 0 78 6t63 19l23 121h64q0 -46 2.5 -102.5t6.5 -107.5zM263 945q9 -4 19.5 -10t18.5 -9q15 -54 36.5 -107t49.5 -106l-43 -27q-48 53 -83.5 98.5t-67.5 94.5q13 20 32 37t38 29z" />
            <glyph glyph-name="Eacute" unicode="&#xc9;" horiz-adv-x="602" d="M416 371v-84q-23 4 -39 6.5t-34.5 4t-49.5 1.5q-24 0 -51.5 -1t-60.5 -6v74q35 -3 60.5 -4.5t49.5 -1.5q31 0 50 1.5t35.5 4t39.5 5.5zM445 454q-1 -30 -2.5 -59.5t-1.5 -61.5q0 -33 1.5 -70.5t2.5 -58.5h-55l-33 104v43l33 103h55zM567 0q-88 3 -379 3q-35 0 -68 -0.5
t-88 -2.5l-12 38l88 21q2 81 3.5 159.5t1.5 157.5q0 63 -1.5 116t-3.5 105l-88 24l13 39q50 -2 90 -3t69 -1h70t86 0.5t87 1t74.5 1t47.5 1.5q-3 -63 -5 -111.5t-3 -86.5h-64l-18 105q-25 13 -60 19t-74 6q-18 0 -36.5 -1.5t-37.5 -3.5q-1 -90 -1.5 -170t-0.5 -154
q0 -46 0.5 -94t1.5 -100q17 -2 35 -3.5t36 -1.5q40 0 78 6t63 19l23 121h64q0 -46 2.5 -102.5t6.5 -107.5zM378 945q20 -12 38.5 -29t31.5 -37q-31 -49 -67 -94.5t-84 -98.5l-43 27q29 53 50 106t36 107q8 3 18.5 9t19.5 10z" />
            <glyph glyph-name="Ecircumflex" unicode="&#xca;" horiz-adv-x="602" d="M416 371v-84q-23 4 -39 6.5t-34.5 4t-49.5 1.5q-24 0 -51.5 -1t-60.5 -6v74q35 -3 60.5 -4.5t49.5 -1.5q31 0 50 1.5t35.5 4t39.5 5.5zM445 454q-1 -30 -2.5 -59.5t-1.5 -61.5q0 -33 1.5 -70.5t2.5 -58.5h-55l-33 104v43l33 103h55zM567 0q-88 3 -379 3q-35 0 -68 -0.5
t-88 -2.5l-12 38l88 21q2 81 3.5 159.5t1.5 157.5q0 63 -1.5 116t-3.5 105l-88 24l13 39q50 -2 90 -3t69 -1h70t86 0.5t87 1t74.5 1t47.5 1.5q-3 -63 -5 -111.5t-3 -86.5h-64l-18 105q-25 13 -60 19t-74 6q-18 0 -36.5 -1.5t-37.5 -3.5q-1 -90 -1.5 -170t-0.5 -154
q0 -46 0.5 -94t1.5 -100q17 -2 35 -3.5t36 -1.5q40 0 78 6t63 19l23 121h64q0 -46 2.5 -102.5t6.5 -107.5zM341 900q34 -35 68 -72.5t75 -84.5l-31 -36q-45 29 -82.5 52t-75.5 39q-29 -19 -53.5 -39.5t-56.5 -49.5l-36 36q35 37 76.5 79.5t74.5 75.5h41z" />
            <glyph glyph-name="Edieresis" unicode="&#xcb;" horiz-adv-x="602" d="M416 371v-84q-23 4 -39 6.5t-34.5 4t-49.5 1.5q-24 0 -51.5 -1t-60.5 -6v74q35 -3 60.5 -4.5t49.5 -1.5q31 0 50 1.5t35.5 4t39.5 5.5zM445 454q-1 -30 -2.5 -59.5t-1.5 -61.5q0 -33 1.5 -70.5t2.5 -58.5h-55l-33 104v43l33 103h55zM567 0q-88 3 -379 3q-35 0 -68 -0.5
t-88 -2.5l-12 38l88 21q2 81 3.5 159.5t1.5 157.5q0 63 -1.5 116t-3.5 105l-88 24l13 39q50 -2 90 -3t69 -1h70t86 0.5t87 1t74.5 1t47.5 1.5q-3 -63 -5 -111.5t-3 -86.5h-64l-18 105q-25 13 -60 19t-74 6q-18 0 -36.5 -1.5t-37.5 -3.5q-1 -90 -1.5 -170t-0.5 -154
q0 -46 0.5 -94t1.5 -100q17 -2 35 -3.5t36 -1.5q40 0 78 6t63 19l23 121h64q0 -46 2.5 -102.5t6.5 -107.5zM237 706q-26 0 -44.5 19.5t-18.5 47.5q0 27 18.5 46t44.5 19t44.5 -19t18.5 -46q0 -28 -18.5 -47.5t-44.5 -19.5zM409 706q-26 0 -44.5 19.5t-18.5 47.5
q0 27 18.5 46t44.5 19q25 0 44 -19t19 -46q0 -28 -19 -47.5t-44 -19.5z" />
            <glyph glyph-name="Igrave" unicode="&#xcc;" horiz-adv-x="393" d="M350 660l13 -39l-91 -24q0 -85 -0.5 -150t-0.5 -122.5v-120.5t1 -145l91 -21l-13 -38q-54 3 -152 3q-46 0 -85 -1t-70 -2l-13 38l92 21q2 81 3.5 144t1.5 120.5t-1 123t-4 150.5l-92 24l13 39q39 -2 76 -3t83 -1q41 0 81 1.5t67 2.5zM139 945q9 -4 19.5 -10t18.5 -9
q15 -54 36.5 -107t49.5 -106l-43 -27q-48 53 -83.5 98.5t-67.5 94.5q13 20 32 37t38 29z" />
            <glyph glyph-name="Iacute" unicode="&#xcd;" horiz-adv-x="393" d="M350 660l13 -39l-91 -24q0 -85 -0.5 -150t-0.5 -122.5v-120.5t1 -145l91 -21l-13 -38q-54 3 -152 3q-46 0 -85 -1t-70 -2l-13 38l92 21q2 81 3.5 144t1.5 120.5t-1 123t-4 150.5l-92 24l13 39q39 -2 76 -3t83 -1q41 0 81 1.5t67 2.5zM254 945q20 -12 38.5 -29t31.5 -37
q-31 -49 -67 -94.5t-84 -98.5l-43 27q29 53 50 106t36 107q8 3 18.5 9t19.5 10z" />
            <glyph glyph-name="Icircumflex" unicode="&#xce;" horiz-adv-x="393" d="M350 660l13 -39l-91 -24q0 -85 -0.5 -150t-0.5 -122.5v-120.5t1 -145l91 -21l-13 -38q-54 3 -152 3q-46 0 -85 -1t-70 -2l-13 38l92 21q2 81 3.5 144t1.5 120.5t-1 123t-4 150.5l-92 24l13 39q39 -2 76 -3t83 -1q41 0 81 1.5t67 2.5zM217 900q34 -35 68 -72.5t75 -84.5
l-31 -36q-45 29 -82.5 52t-75.5 39q-29 -19 -53.5 -39.5t-56.5 -49.5l-36 36q35 37 76.5 79.5t74.5 75.5h41z" />
            <glyph glyph-name="Idieresis" unicode="&#xcf;" horiz-adv-x="393" d="M350 660l13 -39l-91 -24q0 -85 -0.5 -150t-0.5 -122.5v-120.5t1 -145l91 -21l-13 -38q-54 3 -152 3q-46 0 -85 -1t-70 -2l-13 38l92 21q2 81 3.5 144t1.5 120.5t-1 123t-4 150.5l-92 24l13 39q39 -2 76 -3t83 -1q41 0 81 1.5t67 2.5zM113 706q-26 0 -44.5 19.5
t-18.5 47.5q0 27 18.5 46t44.5 19t44.5 -19t18.5 -46q0 -28 -18.5 -47.5t-44.5 -19.5zM285 706q-26 0 -44.5 19.5t-18.5 47.5q0 27 18.5 46t44.5 19q25 0 44 -19t19 -46q0 -28 -19 -47.5t-44 -19.5z" />
            <glyph glyph-name="Eth" unicode="&#xd0;" horiz-adv-x="728" d="M16 365q33 -1 79.5 -2t97 -1t97 1t79.5 2v-71q-33 1 -79.5 1.5t-97 0.5t-97 -0.5t-79.5 -1.5v71zM181 656q41 0 80.5 2t99.5 2q59 0 115 -20t102 -60t73 -101.5t27 -144.5q0 -88 -29 -151.5t-76 -104t-102 -60t-107 -19.5q-49 0 -89.5 2t-90.5 2l74 73q42 -13 81 -17
t71 -4q39 25 64 66t37 91.5t12 102.5q0 55 -12.5 107t-37 94t-60 66.5t-80.5 24.5q-23 0 -40 -3t-35 -8q-1 -57 -1 -119v-121q0 -73 0.5 -144t1.5 -139l41 -43l-11 -29q-17 1 -31 1t-30.5 0.5t-43.5 0.5q-50 1 -85 -0.5t-66 -2.5l-13 38l88 20q2 95 4 167t2 131
q0 68 -1.5 130.5t-3.5 110.5l-88 24l12 39q30 -1 51 -2t43.5 -1.5t53.5 -0.5z" />
            <glyph glyph-name="Ntilde" unicode="&#xd1;" horiz-adv-x="774" d="M266 660q54 -83 111 -157.5t116.5 -148.5t121.5 -155l-16 -209h-10q-62 90 -115.5 161t-102.5 131.5t-97 120t-99 127.5q5 37 21.5 62t36.5 41t33 27zM266 660l-67 -92v-79.5v-129.5q0 -62 3 -132t10 -168l101 -21l-14 -38q-27 2 -65 2.5t-71 0.5q-30 0 -64.5 -1
t-65.5 -2l-13 38l101 21q5 81 7.5 155.5t2.5 146.5q0 59 -1.5 116.5t-3.5 116.5l-104 27l12 39q62 -3 122 -3q24 0 57.5 1t52.5 2zM740 660l14 -39l-88 -21q-6 -106 -8.5 -196t-2.5 -179q0 -56 1 -113.5t2 -121.5h-63l-12 43q3 51 4.5 94.5t1.5 95.5q0 83 -3.5 178.5
t-11.5 198.5l-87 21l12 39q31 -1 59 -2.5t59 -1.5q32 0 64 1t59 3zM217 721l-36 20q15 30 39 60t51.5 49.5t51.5 19.5q29 0 52.5 -13.5t47.5 -27.5t54 -14q15 8 36 24t36 36l33 -20q-13 -30 -37 -60t-51.5 -49.5t-52.5 -19.5q-29 0 -53.5 14t-47.5 27.5t-50 13.5
q-16 -8 -37.5 -25.5t-35.5 -34.5z" />
            <glyph glyph-name="Ograve" unicode="&#xd2;" horiz-adv-x="715" d="M357 670q77 0 136 -28t99.5 -75.5t61.5 -107t21 -122.5q0 -69 -19 -131t-57.5 -111t-98 -77t-139.5 -28t-140.5 28.5t-100.5 77t-60 111t-20 131.5q0 90 34.5 165.5t105 121t177.5 45.5zM537 296q0 62 -14.5 119t-40.5 101.5t-62.5 70.5t-81.5 26q-56 0 -91.5 -34.5
t-52 -89.5t-16.5 -119q0 -62 14.5 -120t41.5 -104t64 -72.5t81 -26.5q57 0 91.5 35.5t50.5 92.5t16 121zM298 945q9 -4 19.5 -10t18.5 -9q15 -54 36.5 -107t49.5 -106l-43 -27q-48 53 -83.5 98.5t-67.5 94.5q13 20 32 37t38 29z" />
            <glyph glyph-name="Oacute" unicode="&#xd3;" horiz-adv-x="715" d="M357 670q77 0 136 -28t99.5 -75.5t61.5 -107t21 -122.5q0 -69 -19 -131t-57.5 -111t-98 -77t-139.5 -28t-140.5 28.5t-100.5 77t-60 111t-20 131.5q0 90 34.5 165.5t105 121t177.5 45.5zM537 296q0 62 -14.5 119t-40.5 101.5t-62.5 70.5t-81.5 26q-56 0 -91.5 -34.5
t-52 -89.5t-16.5 -119q0 -62 14.5 -120t41.5 -104t64 -72.5t81 -26.5q57 0 91.5 35.5t50.5 92.5t16 121zM413 945q20 -12 38.5 -29t31.5 -37q-31 -49 -67 -94.5t-84 -98.5l-43 27q29 53 50 106t36 107q8 3 18.5 9t19.5 10z" />
            <glyph glyph-name="Ocircumflex" unicode="&#xd4;" horiz-adv-x="715" d="M357 670q77 0 136 -28t99.5 -75.5t61.5 -107t21 -122.5q0 -69 -19 -131t-57.5 -111t-98 -77t-139.5 -28t-140.5 28.5t-100.5 77t-60 111t-20 131.5q0 90 34.5 165.5t105 121t177.5 45.5zM537 296q0 62 -14.5 119t-40.5 101.5t-62.5 70.5t-81.5 26q-56 0 -91.5 -34.5
t-52 -89.5t-16.5 -119q0 -62 14.5 -120t41.5 -104t64 -72.5t81 -26.5q57 0 91.5 35.5t50.5 92.5t16 121zM376 900q34 -35 68 -72.5t75 -84.5l-31 -36q-45 29 -82.5 52t-75.5 39q-29 -19 -53.5 -39.5t-56.5 -49.5l-36 36q35 37 76.5 79.5t74.5 75.5h41z" />
            <glyph glyph-name="Otilde" unicode="&#xd5;" horiz-adv-x="715" d="M357 670q77 0 136 -28t99.5 -75.5t61.5 -107t21 -122.5q0 -69 -19 -131t-57.5 -111t-98 -77t-139.5 -28t-140.5 28.5t-100.5 77t-60 111t-20 131.5q0 90 34.5 165.5t105 121t177.5 45.5zM537 296q0 62 -14.5 119t-40.5 101.5t-62.5 70.5t-81.5 26q-56 0 -91.5 -34.5
t-52 -89.5t-16.5 -119q0 -62 14.5 -120t41.5 -104t64 -72.5t81 -26.5q57 0 91.5 35.5t50.5 92.5t16 121zM193 721l-36 20q15 30 39 60t51.5 49.5t51.5 19.5q29 0 52.5 -13.5t47.5 -27.5t54 -14q15 8 36 24t36 36l33 -20q-13 -30 -37 -60t-51.5 -49.5t-52.5 -19.5
q-29 0 -53.5 14t-47.5 27.5t-50 13.5q-16 -8 -37.5 -25.5t-35.5 -34.5z" />
            <glyph glyph-name="Odieresis" unicode="&#xd6;" horiz-adv-x="715" d="M357 670q77 0 136 -28t99.5 -75.5t61.5 -107t21 -122.5q0 -69 -19 -131t-57.5 -111t-98 -77t-139.5 -28t-140.5 28.5t-100.5 77t-60 111t-20 131.5q0 90 34.5 165.5t105 121t177.5 45.5zM537 296q0 62 -14.5 119t-40.5 101.5t-62.5 70.5t-81.5 26q-56 0 -91.5 -34.5
t-52 -89.5t-16.5 -119q0 -62 14.5 -120t41.5 -104t64 -72.5t81 -26.5q57 0 91.5 35.5t50.5 92.5t16 121zM272 706q-26 0 -44.5 19.5t-18.5 47.5q0 27 18.5 46t44.5 19t44.5 -19t18.5 -46q0 -28 -18.5 -47.5t-44.5 -19.5zM444 706q-26 0 -44.5 19.5t-18.5 47.5q0 27 18.5 46
t44.5 19q25 0 44 -19t19 -46q0 -28 -19 -47.5t-44 -19.5z" />
            <glyph glyph-name="multiply" unicode="&#xd7;" horiz-adv-x="513" d="M488 138l-59 -59q-59 62 -129.5 133t-141.5 141.5t-133 129.5l59 59q60 -61 130 -132.5t141.5 -141.5t132.5 -130zM84 79l-59 59q62 60 133 130t141.5 141.5t129.5 132.5l59 -59q-61 -59 -132.5 -129.5t-141.5 -141.5t-130 -133z" />
            <glyph glyph-name="Oslash" unicode="&#xd8;" horiz-adv-x="715" d="M78 4l469 704l69 -41l-470 -704zM357 670q77 0 136 -28t99.5 -75.5t61.5 -107t21 -122.5q0 -69 -19 -131t-57.5 -111t-98 -77t-139.5 -28t-140.5 28.5t-100.5 77t-60 111t-20 131.5q0 90 34.5 165.5t105 121t177.5 45.5zM537 296q0 62 -14.5 119t-40.5 101.5t-62.5 70.5
t-81.5 26q-56 0 -91.5 -34.5t-52 -89.5t-16.5 -119q0 -62 14.5 -120t41.5 -104t64 -72.5t81 -26.5q57 0 91.5 35.5t50.5 92.5t16 121z" />
            <glyph glyph-name="Ugrave" unicode="&#xd9;" horiz-adv-x="788" d="M754 660l14 -39l-88 -21q-7 -112 -11.5 -209.5t-9.5 -171.5q-4 -63 -28.5 -106t-62 -69t-82.5 -38t-90 -12q-73 0 -133 20t-97.5 65.5t-46.5 123.5q-5 47 -6 110t-1 135.5t-2 146.5l-90 26l12 39q31 -1 72.5 -2.5t80.5 -1.5q49 0 88 1.5l65 2.5l12 -39l-89 -26
q-3 -78 -3 -152q0 -75 2.5 -134.5t4.5 -90.5q7 -76 45.5 -116t108.5 -40q74 0 117.5 37.5t52.5 119.5q2 22 3 58.5t1 78.5q0 53 -1.5 117.5t-6.5 126.5l-90 21l14 39q30 -2 62 -3t58 -1q32 0 69 1.5t56 2.5zM344 945q9 -4 19.5 -10t18.5 -9q15 -54 36.5 -107t49.5 -106
l-43 -27q-48 53 -83.5 98.5t-67.5 94.5q13 20 32 37t38 29z" />
            <glyph glyph-name="Uacute" unicode="&#xda;" horiz-adv-x="788" d="M754 660l14 -39l-88 -21q-7 -112 -11.5 -209.5t-9.5 -171.5q-4 -63 -28.5 -106t-62 -69t-82.5 -38t-90 -12q-73 0 -133 20t-97.5 65.5t-46.5 123.5q-5 47 -6 110t-1 135.5t-2 146.5l-90 26l12 39q31 -1 72.5 -2.5t80.5 -1.5q49 0 88 1.5l65 2.5l12 -39l-89 -26
q-3 -78 -3 -152q0 -75 2.5 -134.5t4.5 -90.5q7 -76 45.5 -116t108.5 -40q74 0 117.5 37.5t52.5 119.5q2 22 3 58.5t1 78.5q0 53 -1.5 117.5t-6.5 126.5l-90 21l14 39q30 -2 62 -3t58 -1q32 0 69 1.5t56 2.5zM459 945q20 -12 38.5 -29t31.5 -37q-31 -49 -67 -94.5t-84 -98.5
l-43 27q29 53 50 106t36 107q8 3 18.5 9t19.5 10z" />
            <glyph glyph-name="Ucircumflex" unicode="&#xdb;" horiz-adv-x="788" d="M754 660l14 -39l-88 -21q-7 -112 -11.5 -209.5t-9.5 -171.5q-4 -63 -28.5 -106t-62 -69t-82.5 -38t-90 -12q-73 0 -133 20t-97.5 65.5t-46.5 123.5q-5 47 -6 110t-1 135.5t-2 146.5l-90 26l12 39q31 -1 72.5 -2.5t80.5 -1.5q49 0 88 1.5l65 2.5l12 -39l-89 -26
q-3 -78 -3 -152q0 -75 2.5 -134.5t4.5 -90.5q7 -76 45.5 -116t108.5 -40q74 0 117.5 37.5t52.5 119.5q2 22 3 58.5t1 78.5q0 53 -1.5 117.5t-6.5 126.5l-90 21l14 39q30 -2 62 -3t58 -1q32 0 69 1.5t56 2.5zM422 900q34 -35 68 -72.5t75 -84.5l-31 -36q-45 29 -82.5 52
t-75.5 39q-29 -19 -53.5 -39.5t-56.5 -49.5l-36 36q35 37 76.5 79.5t74.5 75.5h41z" />
            <glyph glyph-name="Udieresis" unicode="&#xdc;" horiz-adv-x="788" d="M754 660l14 -39l-88 -21q-7 -112 -11.5 -209.5t-9.5 -171.5q-4 -63 -28.5 -106t-62 -69t-82.5 -38t-90 -12q-73 0 -133 20t-97.5 65.5t-46.5 123.5q-5 47 -6 110t-1 135.5t-2 146.5l-90 26l12 39q31 -1 72.5 -2.5t80.5 -1.5q49 0 88 1.5l65 2.5l12 -39l-89 -26
q-3 -78 -3 -152q0 -75 2.5 -134.5t4.5 -90.5q7 -76 45.5 -116t108.5 -40q74 0 117.5 37.5t52.5 119.5q2 22 3 58.5t1 78.5q0 53 -1.5 117.5t-6.5 126.5l-90 21l14 39q30 -2 62 -3t58 -1q32 0 69 1.5t56 2.5zM318 706q-26 0 -44.5 19.5t-18.5 47.5q0 27 18.5 46t44.5 19
t44.5 -19t18.5 -46q0 -28 -18.5 -47.5t-44.5 -19.5zM490 706q-26 0 -44.5 19.5t-18.5 47.5q0 27 18.5 46t44.5 19q25 0 44 -19t19 -46q0 -28 -19 -47.5t-44 -19.5z" />
            <glyph glyph-name="Yacute" unicode="&#xdd;" horiz-adv-x="671" d="M313 660l15 -39l-66 -16q15 -33 36.5 -84.5t50.5 -111.5t64 -122l-121 -89q-22 49 -47.5 104t-51 110.5t-50.5 104.5t-46 86l-77 18l13 39q31 -1 61 -2t69 -1q53 0 88 1t62 2zM413 297q-1 -53 -1.5 -92.5t0.5 -73.5t2 -72l101 -21l-13 -38q-26 2 -65 2.5t-98 0.5
q-61 0 -94 -1t-63 -2l-13 38l102 21q2 39 2.5 70t0 65t-2.5 81zM636 660l15 -39l-80 -21q-19 -32 -43 -80t-50 -103t-50 -110t-42 -102l-40 74q18 33 37 75.5t36.5 88t32 87t24.5 72.5l-83 19l14 39q31 -1 57 -2t60 -1t60 1zM421 945q20 -12 38.5 -29t31.5 -37
q-31 -49 -67 -94.5t-84 -98.5l-43 27q29 53 50 106t36 107q8 3 18.5 9t19.5 10z" />
            <glyph glyph-name="Thorn" unicode="&#xde;" horiz-adv-x="629" d="M340 660l13 -39l-91 -24q0 -85 -0.5 -150t-0.5 -122.5v-120.5t1 -145l91 -21l-13 -38q-54 3 -152 3q-46 0 -85 -1t-70 -2l-13 38l92 21q2 81 3.5 144t1.5 120.5t-1 123t-4 150.5l-92 24l13 39q39 -2 76 -3t83 -1q41 0 81 1.5t67 2.5zM198 525q31 5 56 7.5t51.5 3.5
t63.5 1q70 0 119 -25t75 -69t26 -100q0 -64 -31.5 -112.5t-90 -75.5t-139.5 -27q-18 0 -44 3t-55 9v63q30 -10 69.5 -14t77.5 3q32 21 47.5 58.5t15.5 79.5q0 88 -50 123.5t-145 18.5z" />
            <glyph glyph-name="germandbls" unicode="&#xdf;" horiz-adv-x="637" d="M46 0l-16 37l76 21q2 5 3 13.5t2 30t1.5 63.5t1 113t0.5 179q0 77 34 141t93.5 102.5t136.5 38.5q73 0 116 -23t62 -59t19 -76q0 -44 -15.5 -74.5t-38 -51t-45.5 -35.5t-38.5 -28.5t-15.5 -30.5q0 -27 21 -44t52.5 -32.5t63 -35t52.5 -50t21 -79.5q0 -45 -27.5 -74
t-71 -43t-92.5 -14q-80 0 -145 31q8 38 11 74t7 66h52l13 -93q13 -10 30 -16t34 -6q25 0 44 13.5t19 38.5q0 30 -20.5 48.5t-50.5 32.5t-60 30t-50.5 40t-20.5 64q0 34 13.5 54t33 35t39.5 33t33.5 47.5t13.5 80.5q0 27 -11 54.5t-36 46t-67 18.5q-22 -16 -40 -42t-29 -70.5
t-11 -116.5q0 -38 0.5 -89t0.5 -104t0.5 -98t0.5 -72q0 -37 -2.5 -54.5t-7.5 -34.5h-31.5h-57.5h-60h-40z" />
            <glyph glyph-name="agrave" unicode="&#xe0;" horiz-adv-x="494" d="M274 436q53 0 92 -32.5t39 -98.5q0 -43 -1.5 -72t-3 -51.5t-1.5 -46.5q0 -28 3.5 -39.5t19.5 -11.5q14 0 42 13l18 -44q-36 -25 -69 -41.5t-70 -16.5q-31 0 -54 24.5t-23 77.5q0 49 4.5 96.5t4.5 84.5q0 31 -9 50t-30 26q-46 -2 -88 -17t-86 -38l-26 43q57 42 115.5 68
t122.5 26zM345 279l-60 -83q-22 -5 -39 -10t-31 -8q-34 -7 -47 -17.5t-13 -36.5q0 -21 11 -33t30 -12q23 0 58.5 21.5t60.5 54.5l19 -41q-16 -20 -45.5 -49t-70.5 -51.5t-90 -22.5q-25 0 -48.5 13.5t-39 40.5t-15.5 67q0 42 25.5 65.5t69.5 36.5t97 22q36 6 67 15.5t61 27.5
zM181 719q9 -4 19.5 -10t18.5 -9q15 -54 36.5 -107t49.5 -106l-43 -27q-48 53 -83.5 98.5t-67.5 94.5q13 20 32 37t38 29z" />
            <glyph glyph-name="aacute" unicode="&#xe1;" horiz-adv-x="494" d="M274 436q53 0 92 -32.5t39 -98.5q0 -43 -1.5 -72t-3 -51.5t-1.5 -46.5q0 -28 3.5 -39.5t19.5 -11.5q14 0 42 13l18 -44q-36 -25 -69 -41.5t-70 -16.5q-31 0 -54 24.5t-23 77.5q0 49 4.5 96.5t4.5 84.5q0 31 -9 50t-30 26q-46 -2 -88 -17t-86 -38l-26 43q57 42 115.5 68
t122.5 26zM345 279l-60 -83q-22 -5 -39 -10t-31 -8q-34 -7 -47 -17.5t-13 -36.5q0 -21 11 -33t30 -12q23 0 58.5 21.5t60.5 54.5l19 -41q-16 -20 -45.5 -49t-70.5 -51.5t-90 -22.5q-25 0 -48.5 13.5t-39 40.5t-15.5 67q0 42 25.5 65.5t69.5 36.5t97 22q36 6 67 15.5t61 27.5
zM296 719q20 -12 38.5 -29t31.5 -37q-31 -49 -67 -94.5t-84 -98.5l-43 27q29 53 50 106t36 107q8 3 18.5 9t19.5 10z" />
            <glyph glyph-name="acircumflex" unicode="&#xe2;" horiz-adv-x="494" d="M274 436q53 0 92 -32.5t39 -98.5q0 -43 -1.5 -72t-3 -51.5t-1.5 -46.5q0 -28 3.5 -39.5t19.5 -11.5q14 0 42 13l18 -44q-36 -25 -69 -41.5t-70 -16.5q-31 0 -54 24.5t-23 77.5q0 49 4.5 96.5t4.5 84.5q0 31 -9 50t-30 26q-46 -2 -88 -17t-86 -38l-26 43q57 42 115.5 68
t122.5 26zM345 279l-60 -83q-22 -5 -39 -10t-31 -8q-34 -7 -47 -17.5t-13 -36.5q0 -21 11 -33t30 -12q23 0 58.5 21.5t60.5 54.5l19 -41q-16 -20 -45.5 -49t-70.5 -51.5t-90 -22.5q-25 0 -48.5 13.5t-39 40.5t-15.5 67q0 42 25.5 65.5t69.5 36.5t97 22q36 6 67 15.5t61 27.5
zM259 674q34 -35 68 -72.5t75 -84.5l-31 -36q-45 29 -82.5 52t-75.5 39q-29 -19 -53.5 -39.5t-56.5 -49.5l-36 36q35 37 76.5 79.5t74.5 75.5h41z" />
            <glyph glyph-name="atilde" unicode="&#xe3;" horiz-adv-x="494" d="M274 436q53 0 92 -32.5t39 -98.5q0 -43 -1.5 -72t-3 -51.5t-1.5 -46.5q0 -28 3.5 -39.5t19.5 -11.5q14 0 42 13l18 -44q-36 -25 -69 -41.5t-70 -16.5q-31 0 -54 24.5t-23 77.5q0 49 4.5 96.5t4.5 84.5q0 31 -9 50t-30 26q-46 -2 -88 -17t-86 -38l-26 43q57 42 115.5 68
t122.5 26zM345 279l-60 -83q-22 -5 -39 -10t-31 -8q-34 -7 -47 -17.5t-13 -36.5q0 -21 11 -33t30 -12q23 0 58.5 21.5t60.5 54.5l19 -41q-16 -20 -45.5 -49t-70.5 -51.5t-90 -22.5q-25 0 -48.5 13.5t-39 40.5t-15.5 67q0 42 25.5 65.5t69.5 36.5t97 22q36 6 67 15.5t61 27.5
zM76 495l-36 20q15 30 39 60t51.5 49.5t51.5 19.5q29 0 52.5 -13.5t47.5 -27.5t54 -14q15 8 36 24t36 36l33 -20q-13 -30 -37 -60t-51.5 -49.5t-52.5 -19.5q-29 0 -53.5 14t-47.5 27.5t-50 13.5q-16 -8 -37.5 -25.5t-35.5 -34.5z" />
            <glyph glyph-name="adieresis" unicode="&#xe4;" horiz-adv-x="494" d="M274 436q53 0 92 -32.5t39 -98.5q0 -43 -1.5 -72t-3 -51.5t-1.5 -46.5q0 -28 3.5 -39.5t19.5 -11.5q14 0 42 13l18 -44q-36 -25 -69 -41.5t-70 -16.5q-31 0 -54 24.5t-23 77.5q0 49 4.5 96.5t4.5 84.5q0 31 -9 50t-30 26q-46 -2 -88 -17t-86 -38l-26 43q57 42 115.5 68
t122.5 26zM345 279l-60 -83q-22 -5 -39 -10t-31 -8q-34 -7 -47 -17.5t-13 -36.5q0 -21 11 -33t30 -12q23 0 58.5 21.5t60.5 54.5l19 -41q-16 -20 -45.5 -49t-70.5 -51.5t-90 -22.5q-25 0 -48.5 13.5t-39 40.5t-15.5 67q0 42 25.5 65.5t69.5 36.5t97 22q36 6 67 15.5t61 27.5
zM155 480q-26 0 -44.5 19.5t-18.5 47.5q0 27 18.5 46t44.5 19t44.5 -19t18.5 -46q0 -28 -18.5 -47.5t-44.5 -19.5zM327 480q-26 0 -44.5 19.5t-18.5 47.5q0 27 18.5 46t44.5 19q25 0 44 -19t19 -46q0 -28 -19 -47.5t-44 -19.5z" />
            <glyph glyph-name="aring" unicode="&#xe5;" horiz-adv-x="494" d="M274 436q53 0 92 -32.5t39 -98.5q0 -43 -1.5 -72t-3 -51.5t-1.5 -46.5q0 -28 3.5 -39.5t19.5 -11.5q14 0 42 13l18 -44q-36 -25 -69 -41.5t-70 -16.5q-31 0 -54 24.5t-23 77.5q0 49 4.5 96.5t4.5 84.5q0 31 -9 50t-30 26q-46 -2 -88 -17t-86 -38l-26 43q57 42 115.5 68
t122.5 26zM345 279l-60 -83q-22 -5 -39 -10t-31 -8q-34 -7 -47 -17.5t-13 -36.5q0 -21 11 -33t30 -12q23 0 58.5 21.5t60.5 54.5l19 -41q-16 -20 -45.5 -49t-70.5 -51.5t-90 -22.5q-25 0 -48.5 13.5t-39 40.5t-15.5 67q0 42 25.5 65.5t69.5 36.5t97 22q36 6 67 15.5t61 27.5
zM241 544q20 0 33.5 14t13.5 34t-13.5 33.5t-33.5 13.5t-34 -13.5t-14 -33.5t14.5 -34t33.5 -14zM241 482q-46 0 -78 32t-32 78q0 45 32 77t78 32q45 0 77 -32t32 -77q0 -46 -32 -78t-77 -32z" />
            <glyph glyph-name="ae" unicode="&#xe6;" horiz-adv-x="692" d="M345 279l-60 -83q-22 -5 -39 -10t-31 -8q-34 -7 -47 -17.5t-13 -36.5q0 -21 11 -33t30 -12q23 0 58.5 21.5t60.5 54.5l29 -41q-12 -15 -33.5 -36t-50 -40.5t-62 -33t-70.5 -13.5q-25 0 -48.5 13.5t-39 40.5t-15.5 67q0 42 25.5 65.5t69.5 36.5t97 22q36 6 67 15.5
t61 27.5zM671 237q-22 -4 -58 -7t-79 -4.5t-86 -1.5q-32 0 -55 1t-31 2v48h33.5t50.5 1t54.5 3t44.5 5q-1 21 -11.5 42.5t-31.5 36.5t-54 15q-20 -19 -32 -52.5t-12 -77.5q0 -90 37.5 -132.5t92.5 -42.5q56 0 118 40l22 -46q-43 -39 -92 -56t-97 -17q-56 0 -104.5 24.5
t-78 73.5t-29.5 122q0 74 30.5 123.5t79 74.5t102.5 25q50 0 92.5 -22t68 -66.5t25.5 -111.5zM273 224q1 14 1.5 28t0.5 26q0 31 -9 50t-30 26q-46 -2 -88 -17t-86 -38l-26 43q57 42 115.5 68t122.5 26q53 0 92 -32.5t39 -98.5q0 -31 -0.5 -54.5t-2.5 -43.5z" />
            <glyph glyph-name="ccedilla" unicode="&#xe7;" horiz-adv-x="433" d="M425 69q-34 -31 -80.5 -53t-106.5 -22q-72 0 -120.5 32t-72.5 82t-24 105q0 56 25 107t75.5 83.5t128.5 32.5q42 0 82.5 -9.5t77.5 -32.5q-14 -52 -20 -85.5t-12 -63.5h-50l-15 91q-25 21 -57 33t-64 10q-21 -25 -32.5 -59t-11.5 -70q0 -54 19 -93t50.5 -60.5t68.5 -21.5
q25 0 53.5 10.5t58.5 32.5zM203 3h52l-13 -55q41 -9 66.5 -31t25.5 -51q0 -31 -33.5 -65.5t-123.5 -84.5l-28 41q35 23 57 40t32 36q-2 12 -17 23.5t-58 17.5z" />
            <glyph glyph-name="egrave" unicode="&#xe8;" horiz-adv-x="440" d="M233 437q50 0 92.5 -22t68 -66.5t25.5 -111.5q-22 -4 -58 -7t-79 -4.5t-86 -1.5q-32 0 -55 1t-31 2v48h33.5t50.5 1t54.5 3t44.5 5q-1 21 -11.5 42.5t-31.5 36.5t-54 15q-20 -19 -32 -52.5t-12 -77.5q0 -90 37.5 -132.5t92.5 -42.5q56 0 118 40l22 -46q-43 -39 -92 -56
t-97 -17q-56 0 -104.5 24.5t-78 73.5t-29.5 122q0 74 30.5 123.5t79 74.5t102.5 25zM169 719q9 -4 19.5 -10t18.5 -9q15 -54 36.5 -107t49.5 -106l-43 -27q-48 53 -83.5 98.5t-67.5 94.5q13 20 32 37t38 29z" />
            <glyph glyph-name="eacute" unicode="&#xe9;" horiz-adv-x="440" d="M233 437q50 0 92.5 -22t68 -66.5t25.5 -111.5q-22 -4 -58 -7t-79 -4.5t-86 -1.5q-32 0 -55 1t-31 2v48h33.5t50.5 1t54.5 3t44.5 5q-1 21 -11.5 42.5t-31.5 36.5t-54 15q-20 -19 -32 -52.5t-12 -77.5q0 -90 37.5 -132.5t92.5 -42.5q56 0 118 40l22 -46q-43 -39 -92 -56
t-97 -17q-56 0 -104.5 24.5t-78 73.5t-29.5 122q0 74 30.5 123.5t79 74.5t102.5 25zM284 719q20 -12 38.5 -29t31.5 -37q-31 -49 -67 -94.5t-84 -98.5l-43 27q29 53 50 106t36 107q8 3 18.5 9t19.5 10z" />
            <glyph glyph-name="ecircumflex" unicode="&#xea;" horiz-adv-x="440" d="M233 437q50 0 92.5 -22t68 -66.5t25.5 -111.5q-22 -4 -58 -7t-79 -4.5t-86 -1.5q-32 0 -55 1t-31 2v48h33.5t50.5 1t54.5 3t44.5 5q-1 21 -11.5 42.5t-31.5 36.5t-54 15q-20 -19 -32 -52.5t-12 -77.5q0 -90 37.5 -132.5t92.5 -42.5q56 0 118 40l22 -46q-43 -39 -92 -56
t-97 -17q-56 0 -104.5 24.5t-78 73.5t-29.5 122q0 74 30.5 123.5t79 74.5t102.5 25zM247 674q34 -35 68 -72.5t75 -84.5l-31 -36q-45 29 -82.5 52t-75.5 39q-29 -19 -53.5 -39.5t-56.5 -49.5l-36 36q35 37 76.5 79.5t74.5 75.5h41z" />
            <glyph glyph-name="edieresis" unicode="&#xeb;" horiz-adv-x="440" d="M233 437q50 0 92.5 -22t68 -66.5t25.5 -111.5q-22 -4 -58 -7t-79 -4.5t-86 -1.5q-32 0 -55 1t-31 2v48h33.5t50.5 1t54.5 3t44.5 5q-1 21 -11.5 42.5t-31.5 36.5t-54 15q-20 -19 -32 -52.5t-12 -77.5q0 -90 37.5 -132.5t92.5 -42.5q56 0 118 40l22 -46q-43 -39 -92 -56
t-97 -17q-56 0 -104.5 24.5t-78 73.5t-29.5 122q0 74 30.5 123.5t79 74.5t102.5 25zM143 480q-26 0 -44.5 19.5t-18.5 47.5q0 27 18.5 46t44.5 19t44.5 -19t18.5 -46q0 -28 -18.5 -47.5t-44.5 -19.5zM315 480q-26 0 -44.5 19.5t-18.5 47.5q0 27 18.5 46t44.5 19q25 0 44 -19
t19 -46q0 -28 -19 -47.5t-44 -19.5z" />
            </font>
</defs>
</svg>
