<?xml version="1.0" standalone="no"?>
<!DOCTYPE svg PUBLIC "-//W3C//DTD SVG 1.1//EN" "http://www.w3.org/Graphics/SVG/1.1/DTD/svg11.dtd">
<svg xmlns="http://www.w3.org/2000/svg" xmlns:xlink="http://www.w3.org/1999/xlink" version="1.1">
    <metadata>
        Created by FontForge 20201107 at Wed Apr 28 05:16:50 2021
        By fANhAN iNSiDE
        Copyright (c) 2014-2021, SIL International (http://www.sil.org) with Reserved Font Names "Awami" and "SIL".
    </metadata>
    <defs>
        <font id="AwamiNastaliq-Regular" horiz-adv-x="0">
            <font-face font-family="Awami Nastaliq" font-weight="400" font-stretch="normal" units-per-em="2048" panose-1="0 0 0 0 0 0 0 0 0 0" ascent="1638" descent="-410" x-height="917" cap-height="1357" bbox="-2214.4 -3295.75 8991 4759.6" underline-thickness="50" underline-position="-125" unicode-range="U+0020-FFFD" />
            <missing-glyph horiz-adv-x="1495" d="M319 705q2 7 12 -1.5t8 -15.5q-12 -64 20.5 -99t91 -50.5t125 -18.5t122.5 -3q201 0 334.5 41.5t185.5 170.5q2 7 11.5 -1.5t7.5 -15.5q-23 -121 -86.5 -194.5t-188 -106.5t-331.5 -33q-181 0 -258.5 38.5t-82.5 111.5t29 177zM917 768q0 -4 -20.5 -25.5t-42 -41.5
t-25.5 -20q-56 29 -92 85q0 5 21 27t44 43t27 21q35 -55 88 -89zM751 767q0 -4 -20 -25.5t-41.5 -41.5t-25.5 -20q-30 15 -52.5 36.5t-39.5 48.5q0 5 21 27t43.5 43t27.5 21q36 -56 87 -89zM115 1587h1265v-1587h-1265v1587zM172 57h1150v1472h-1150v-1472z" />
            <glyph glyph-name="absLigatureAllah" unicode="&#xfdf2;" horiz-adv-x="2346" arabic-form="isolated" d="M1803 1129q0 -198 -36.5 -365.5t-95 -291t-125.5 -192t-127 -68.5q-81 0 -122.5 67.5t-62 189t-40.5 283.5q-3 30 11 76.5t34 88t36.5 58t17.5 -14.5q8 -224 46 -313.5t127 -89.5q83 0 138.5 66.5t56.5 210.5q1 112 -1 214t-1 218.5t10 271.5q5 83 33.5 159t61.5 132
t53 78q15 17 26 -7t7 -38q-6 -22 -20 -67t-18 -159q-3 -112 -5 -197t-3 -158.5t-1 -151.5zM2064 1540q6 83 34 159.5t61.5 132t53.5 76.5q15 17 26 -7t7 -38q-3 -15 -12.5 -39t-17.5 -67.5t-8 -119.5q0 -169 -2.5 -317.5t-10.5 -285.5q-10 -172 -39.5 -320.5t-63 -250
t-56.5 -133.5q-10 -15 -27.5 5t-14.5 33q5 19 17 50t25 87.5t18 150.5q12 203 3 427t7 457zM794 972q-7 -17 -18 -64t-11 -76q0 -41 3 -102t4.5 -122.5t-3 -107t-18.5 -59t-42 24.5q-70 -190 -218 -307t-360 -168q-16 -4 -28 15.5t1 29.5q118 86 240 216.5t228 310.5
t174 413q5 14 29 10.5t19 -14.5zM1295 1000q0 -112 8.5 -223.5t24.5 -176.5q6 -23 -9 -43.5t-35 -26t-28 14.5q-15 -79 -52 -159.5t-86.5 -148t-104 -108.5t-103.5 -41q-81 0 -128 67.5t-69.5 188.5t-32.5 283q-1 24 10.5 68t29 94t35 94.5t29 70t10.5 18.5
q-24 -193 -6.5 -311.5t63.5 -173t107 -54.5q49 0 94 29.5t73 91t25 157.5q-3 101 -1 213t10 260q5 83 33.5 159t61.5 132t53 78q15 17 26 -7t7 -38q-6 -22 -20 -67t-18 -159q-3 -85 -5 -154t-2 -128zM1447 2076q1 11 24 16t23 -5q0 -13 0.5 -52t-4 -90t-19 -101.5t-43 -88
t-77.5 -48.5q-52 -12 -78 9t-36 39q-13 -28 -36.5 -57t-63.5 -38q-62 -14 -90 19.5t-33 90.5t3 116.5t18 97.5q3 11 26.5 16t21.5 -5q-4 -16 -6.5 -54t1 -79t18.5 -67.5t46 -19.5q27 6 44.5 40t29 78.5t18 83.5t10.5 54q3 11 25.5 16t21.5 -6q-1 -15 -1.5 -52t5 -77.5
t21 -66.5t46.5 -19q29 7 45.5 40t24.5 75.5t11 80.5t4 54zM1218 2698q4 42 30 77.5t39 46.5q12 9 30 -4.5t7 -28.5q-10 -12 -15 -65q-5 -59 -4 -138.5t-3 -125.5q-8 -87 -35 -157t-40 -86q-8 -10 -29.5 2.5t-16.5 25.5l15 30t14 68q5 45 4.5 108t-1 128.5t4.5 118.5z" />
            <glyph glyph-name="absRialSign" unicode="&#xfdfc;" horiz-adv-x="2028" arabic-form="isolated" d="M925 344q26 194 22 405t1 430q2 79 25 149t52.5 123.5t52.5 80.5q14 17 24.5 -7t3.5 -39q-5 -12 -11.5 -39t-9.5 -96q-3 -68 -8.5 -164t-10 -187.5t-6.5 -147.5q-7 -234 -51.5 -442.5t-123 -369.5t-188 -252.5t-246.5 -91.5q-129 0 -213 81.5t-116.5 217.5t-7.5 301.5
t113 333.5v1q8 15 24.5 3.5t9.5 -28.5q-41 -101 -52.5 -217.5t13 -220t90.5 -169.5t180 -66q95 0 166.5 38.5t122 96t81.5 117t46.5 104.5t16.5 55zM1881 843q4 20 25 16t19 -23v-1q-8 -67 -26.5 -148t-42 -159t-47.5 -135.5t-44 -77.5q-15 -15 -56.5 -29t-92.5 -25t-96 -18
t-68 -9q-16 -1 -26 18t4 26q168 87 290.5 222.5t160.5 342.5zM1363 -103q0 -16 -27.5 -48t-60.5 -59t-50 -27q-19 0 -53.5 26t-62.5 58.5t-28 49.5t27 49t60 59t50 27q23 0 35 -21t39 -47q27 -28 49 -42t22 -25zM1445 53q23 0 34.5 -20t39.5 -48t49 -41.5t21 -24.5v1
q1 -16 -26 -49t-60 -60.5t-51 -27.5q-19 0 -54 26.5t-63 59t-28 50.5q0 17 27 49t60.5 58.5t50.5 26.5zM1354 1036q6 -119 43.5 -173t94.5 -54q29 0 62.5 25t59 63.5t29.5 77.5q1 8 13 -1t10 -17q-31 -175 -86 -274t-145 -99q-46 0 -82.5 27.5t-60.5 97.5t-35 199
q-3 40 -4 109t0 145.5t4.5 142t8.5 98.5q14 87 44 147.5t55 91.5q14 17 25.5 -6.5t4.5 -38.5q-10 -22 -21 -67t-13 -79q-3 -77 -5.5 -161.5t-2.5 -153t1 -100.5z" />
            <glyph glyph-name="ligAllahlong" unicode="&#xfdfa;" horiz-adv-x="3487" arabic-form="isolated" d="M2327 742q-59 -65 -104.5 -96.5t-80 -53.5t-63.5 -61q-21 -28 -21 -53q0 -18 23.5 -42.5t56 -51t63 -50t43.5 -37.5q18 -17 31.5 -49.5t8 -90t-44.5 -150.5q-45 -107 -168 -198t-331 -146t-508 -55q-251 0 -415.5 23.5t-260.5 64t-142 90.5t-59 103.5t-13 103.5
q0 61 13 123t58 144.5t141 202.5q3 4 13 -6t3 -22q-26 -48 -61.5 -105t-63 -118.5t-30.5 -121t35 -112.5t132.5 -93.5t262 -64t425.5 -23.5q269 0 450 37.5t287.5 90t152.5 99t46 64.5q0 19 -41 48t-94.5 65.5t-94.5 79t-41 88.5q0 53 28.5 101t62.5 90q57 68 115 110.5
t98 82t40 97.5q0 47 -0.5 120t-1 157.5t0.5 166.5t5 147q5 69 35.5 128t46.5 77q8 9 14.5 -4t4.5 -21q-4 -12 -11.5 -37t-9.5 -88q-2 -62 -3.5 -151t-1.5 -171.5v-126.5q3 -77 37 -159t94.5 -138.5t142.5 -56.5q32 0 66.5 23.5t67 54.5t59.5 54.5t43 23.5q23 0 58 -21
t97 -21q91 0 150 27t88.5 57t31.5 37q5 13 -14 39.5t-69 26.5q-55 0 -116.5 -52.5t-120.5 -138.5q-8 3 -23 7l-15 4q38 53 87.5 119t109.5 114t127 48q43 0 60.5 -30t17.5 -53q0 -102 -44.5 -186.5t-115.5 -134.5t-151 -50q-51 0 -88.5 22.5t-60 45t-28.5 22.5t-33 -30
t-66.5 -68.5t-84 -68.5t-85.5 -30q-63 0 -115 30.5t-88 78.5t-50 99zM2965 1711q54 0 74.5 -25.5t12 -51.5t-42.5 -26q-26 0 -43 13.5t-56 13.5q-41 0 -64 -33.5t-25 -50.5q-1 -21 15.5 -53t50 -49t83.5 7l-164 -148q-58 13 -82.5 42t-24.5 63q0 20 13.5 48.5t56.5 80.5
q27 33 57 72.5t64.5 68t74.5 28.5zM1568 1192q125 0 215 -19.5t160 -19.5q46 0 87.5 34.5t74 80.5t53 83t23.5 42q3 4 11 -1.5t6 -10.5q-5 -13 -13.5 -33.5t-15.5 -34.5q75 -28 147.5 -21.5t120.5 48t48 116.5q1 93 -1 205t5 241q5 70 35.5 128.5t46.5 76.5q9 10 15 -3.5
t4 -21.5q-4 -12 -11.5 -37t-9.5 -88q-4 -94 -4.5 -183t-0.5 -154q4 -112 49 -157.5t139 -45.5q52 0 121 14t127 42.5t75 70.5q5 11 20.5 5t10.5 -19q-23 -74 -68 -143.5t-122.5 -114t-199.5 -44.5q-51 0 -107 45.5t-73 125.5q-17 -27 -48.5 -61.5t-66.5 -67t-65.5 -53.5
t-46.5 -21q-31 0 -81 26t-79 50q-27 -52 -61 -113.5t-83 -105t-122 -43.5q-91 0 -147.5 12t-107.5 23.5t-124 11.5q-34 0 -86 -32.5t-114 -104.5q-3 -4 -9.5 -0.5t-4.5 7.5q53 117 102.5 173.5t94 74t81.5 17.5zM1471 584q0 -146 -34.5 -261.5t-84 -181.5t-94.5 -66
q-67 0 -87.5 82t-37.5 218q-2 16 6 42t19 49t20 32t10 -8q5 -124 26 -174t70 -50q46 0 77 37t32 117v109.5t-0.5 184.5t-1 222.5t0 226.5t2 196.5t3.5 129.5q5 69 35.5 128t46.5 77q8 9 14.5 -4t4.5 -21q-4 -12 -12 -37t-10 -89q-1 -31 -1.5 -107t-1 -177t-1 -209.5
t-1 -206.5t-0.5 -167.5v-91.5zM911 475q-2 -6 -6 -37.5t-7 -64t-3 -43.5q0 -38 3 -72.5t-2.5 -44.5t-31.5 25q-40 -106 -96.5 -156.5t-174.5 -79.5q-10 -3 -16 8.5t1 16.5q65 48 120.5 102t102 136t83.5 212q3 8 16 5.5t11 -7.5zM1189 512q0 -62 4.5 -124t14.5 -98
q5 -19 -14.5 -33t-25.5 3q-11 -58 -43 -111.5t-72.5 -87t-77.5 -33.5q-67 0 -93 82t-34 217q-1 22 15 59.5t32.5 66t15.5 22.5q-13 -107 -3.5 -162t35 -74t59.5 -19q41 0 75 26t32 106q-1 19 -1 93v180.5t0.5 225t1 228t2 190t2.5 107.5q4 69 35 127.5t47 77.5q8 9 14 -4
t4 -21q-3 -12 -11 -37t-10 -89q0 -16 -0.5 -85.5t-1 -170t-1 -210.5t-1 -209t-0.5 -165.5v-77.5zM1637 1104q4 70 25.5 138.5t44.5 116t29 52.5q21 18 25.5 10t1.5 -24t-5 -24q-3 -19 -14 -56t-11 -132q0 -94 3.5 -162t8.5 -130t7 -138q4 -118 -12.5 -231.5t-39 -196
t-37.5 -109.5q-7 -12 -18.5 4.5t-9.5 27.5q4 23 19 72.5t21 167.5q4 85 -3 155.5t-17.5 139t-16.5 145.5t-1 174zM1075 1279q50 0 84.5 18t60.5 41t49 41t49 18q16 0 38.5 -13.5t38.5 -13.5q26 0 51 25.5t48 59.5t41.5 59.5t30.5 25.5t22.5 -20t44.5 -20q20 0 39 27t33.5 67
t20.5 78q2 6 12.5 0t9.5 -12q-4 -26 -15 -67.5t-29 -83t-41.5 -70t-52.5 -28.5q-26 0 -34 5.5t-17 5.5q-7 0 -24.5 -21.5t-41.5 -49t-51 -49t-54 -21.5q-21 0 -46 16t-41 16q-22 0 -45.5 -29.5t-53.5 -68t-69.5 -68t-94.5 -29.5q-47 0 -93.5 55t-64.5 130
q-21 -64 -66.5 -110t-90.5 -78.5t-66.5 -54.5t6.5 -38q27 -16 52 -34t25 -60q0 -43 -11 -70.5t-31 -47.5q-12 -12 -55 -22t-96.5 -21t-99.5 -24t-64 -31q-63 -61 -83 -89.5t-31 -43.5q-6 -8 -14 -43t-8 -95q0 -25 -3.5 -99t-11 -172.5t-19.5 -202t-28 -188.5
q-3 -18 -20.5 -29t-14.5 8q13 104 17.5 226.5t5 237.5t0.5 195q0 140 55.5 238.5t138 157t161.5 76.5q-16 9 -26.5 22t-10.5 41q0 59 34 94t84 60.5t100 56.5t84 81t35 134q1 63 0 118t-0.5 118.5t5.5 149.5q4 69 35 128t47 77q8 9 14 -4t4 -21q-3 -12 -11 -37t-10 -89
q-4 -94 -4.5 -155t-0.5 -126q5 -116 52 -187t116 -71zM2358 338q5 0 26.5 7t31.5 6q47 -1 79.5 -15.5t75.5 -37.5q21 40 44.5 75.5t72.5 74.5q-35 -58 -57.5 -121.5t-26.5 -123.5q-1 -5 -5 -9t-9 2q-43 50 -99 82.5t-133 59.5zM1471 1960q53 0 94 -16t95 -29q38 35 60 75
t71 80q-37 -62 -65 -126t-33 -127q-47 47 -95.5 81t-126.5 62zM2469 1014q5 0 27 6.5t32 6.5q46 -1 79 -15.5t76 -37.5q20 40 43.5 75t72.5 74q-35 -58 -57.5 -121.5t-26.5 -122.5q-1 -6 -5 -9.5t-9 1.5q-43 50 -98.5 82.5t-133.5 60.5zM1479 88q5 0 27 7t32 6
q46 -1 79 -15.5t76 -37.5q20 40 43.5 75.5t72.5 74.5q-35 -58 -57.5 -121.5t-26.5 -123.5q-1 -5 -5 -9t-9 2q-43 50 -98.5 82.5t-133.5 59.5zM283 1372q5 0 27 6.5t32 6.5q47 -2 79.5 -16t75.5 -37q20 40 44 75t73 74q-76 -123 -85 -244q0 -6 -4.5 -9.5t-9.5 1.5
q-42 50 -98 82.5t-134 60.5zM690 700q5 0 27 6.5t32 5.5q46 -1 79 -15t76 -37q20 39 43.5 74.5t72.5 74.5q-35 -58 -57.5 -121.5t-26.5 -122.5q-1 -6 -5 -9.5t-9 1.5q-43 50 -98.5 82.5t-133.5 60.5zM1285 1836q0 5 13 7.5t13 -2.5v-35.5t-6 -61t-23 -60t-51 -33.5
q-28 -6 -42.5 4.5t-20.5 19.5q-7 -14 -20 -28.5t-35 -18.5q-46 -10 -59.5 21t-9 73t11.5 68q2 5 15 7.5t12 -2.5q-3 -10 -4.5 -39t6 -52.5t30.5 -18.5q20 4 31.5 31.5t17 57t8.5 39.5q2 6 14.5 8t11.5 -3q-1 -10 -0.5 -38t9 -51t31.5 -18q21 4 30.5 30.5t12.5 55t4 39.5z
M1154 2106q2 20 16.5 37t22.5 22q6 5 16 -1.5t4 -14.5q-5 -5 -8 -31q-3 -28 -2.5 -66.5t-1.5 -60.5q-5 -42 -20 -75.5t-22 -41.5q-4 -5 -16 1t-9 13q2 4 8 13.5t8 32.5q4 34 2 83.5t2 88.5zM2090 1951q41 0 67 -37t38.5 -90.5t12.5 -103.5q0 -64 -23.5 -124t-52 -103.5
t-41.5 -56.5q-9 -9 -54.5 -18t-97 -15.5t-78.5 -7.5q-9 0 -14 11.5t4 15.5q32 13 82.5 38t101 56t85 63t34.5 60q0 20 -13 15q-98 -34 -142 -0.5t-7 171.5q24 90 49.5 108t48.5 18zM3005 2042q0 6 13 8.5t13 -2.5v-39.5t-6 -67.5t-23 -67t-51 -37q-28 -7 -42.5 4.5
t-20.5 21.5q-7 -16 -20 -31.5t-35 -20.5q-35 -8 -50.5 10.5t-18 50.5t1.5 65t10 54q2 6 15 8.5t12 -2.5q-3 -12 -4.5 -44t6 -58t30.5 -21q20 5 31.5 35.5t17 63t8.5 44.5q2 6 14.5 8.5t11.5 -3.5q-1 -11 -0.5 -42t9 -56.5t31.5 -20.5q21 5 30.5 34t12.5 60.5t4 44.5z
M2044 839q0 -10 -22 -36.5t-47 -49.5t-34 -23q-12 0 -38.5 22.5t-48.5 49t-22 37.5q0 10 21.5 36.5t46.5 50t34 23.5q6 0 15 -16t36 -43q28 -27 43.5 -36t15.5 -15zM2214 859q1 -10 -21 -37t-47 -50t-34 -23q-12 0 -38.5 22.5t-49 49t-22.5 38.5q0 10 22 36.5t47 49.5t34 23
q6 0 15 -16t37 -43q26 -27 41.5 -35.5t15.5 -14.5z" />
            <glyph glyph-name="ligJallajalalouhou" unicode="&#xfdfb;" horiz-adv-x="2918" arabic-form="isolated" d="M428 991q5 0 28 6.5t33 6.5q47 -1 81 -16t78 -38q21 41 45 77t75 76q-36 -60 -59 -124.5t-27 -126.5q-1 -6 -5.5 -10t-9.5 2q-43 51 -101 85t-138 62zM1874 759q-44 -285 -159.5 -446.5t-310 -228t-476.5 -66.5q-247 0 -418 75t-262 200t-97.5 277t74.5 305q5 8 18 2.5
t9 -15.5q-33 -77 -31.5 -165.5t43.5 -174t131 -156t230 -112.5t342 -42q212 0 360.5 43t244.5 107.5t149.5 131t75.5 115.5t23 59q10 73 14 176.5t4.5 222.5t-0.5 239.5t-0.5 229.5t4.5 191q4 71 35 132t47 80q9 9 15.5 -5t4.5 -22q-3 -13 -10 -38.5t-10 -90.5
q-2 -39 -4.5 -110.5t-5.5 -158.5t-6 -172.5t-5 -152.5t-3 -99q-1 -28 -1.5 -56t-2.5 -54q3 -88 47 -141.5t106.5 -77t118.5 -23.5q63 0 137.5 24.5t139.5 63t99 80.5q-46 1 -80.5 25t-84.5 24q-38 0 -72 -40t-62 -94.5t-50 -99.5q-4 -8 -17.5 -8t-9.5 11q35 80 65.5 154.5
t67 123t90.5 48.5q44 0 70 -12t50.5 -24t63.5 -12q12 0 17.5 5t9.5 9q5 5 15.5 -1.5t10.5 -13.5t-22.5 -55t-66 -115.5t-105 -133.5t-140 -110t-170.5 -44q-79 0 -149 59t-101 157zM1171 516q5 0 28 7t33 7q47 -2 81 -17t78 -38q21 41 45 77.5t75 76.5q-36 -60 -59 -125
t-28 -126q0 -6 -4.5 -10t-9.5 2q-43 51 -101 84.5t-138 61.5zM1879 261q5 0 27.5 7t32.5 6q48 -1 81.5 -16t78.5 -38q21 41 45 77.5t75 76.5q-37 -60 -59.5 -125t-27.5 -127q-1 -6 -5 -9.5t-9 1.5q-44 52 -101.5 85.5t-137.5 61.5zM1233 2004q5 0 27.5 7t33.5 6
q47 -1 81 -16t78 -38q21 41 45 77t75 76q-37 -60 -59.5 -124.5t-27.5 -126.5q0 -6 -4.5 -9.5t-9.5 1.5q-43 52 -101 85.5t-138 61.5zM727 666q34 0 57 -16.5t49 -33t70 -16.5q49 0 91 39.5t43 140.5q1 64 0.5 142t0.5 150.5t4 121.5q4 71 35.5 131t48.5 79q9 10 15 -3.5
t4 -21.5q-4 -13 -13 -38.5t-9 -90.5q0 -97 -1.5 -199t-5.5 -181q-4 -91 -32.5 -173t-70 -145t-85.5 -99t-80 -36q-23 0 -54.5 19t-65.5 37.5t-66 18.5q-35 0 -74 -13.5t-104 -87.5q-3 -3 -9.5 0t-4.5 8q54 120 98 176.5t82.5 73.5t76.5 17zM1371 1516q3 53 20 100.5t37 82.5
t32 48q8 11 14.5 -4t4.5 -24q-3 -14 -12.5 -42t-9.5 -100q0 -106 -1 -199.5t-6 -179.5q-6 -108 -24 -201t-38 -157t-33 -84q-6 -10 -16 2.5t-8 21.5q4 17 17 54.5t17 126.5q7 128 2 268.5t4 286.5zM1722 1305q0 -177 -36 -294.5t-88.5 -186t-103.5 -97t-82 -28.5
q-38 0 -89.5 25t-93 57.5t-50.5 53.5q-3 8 1.5 18t9.5 7q31 -19 95.5 -34t125.5 -15q53 0 105.5 35t90.5 82t45 83q5 23 7.5 89t3 158t0.5 195t0.5 202.5t1.5 179.5t3 124q5 71 36.5 131.5t47.5 79.5q9 10 15 -4t4 -22q-3 -12 -10.5 -38t-10.5 -91q-6 -108 -6 -243v-252
q0 -88 40.5 -142t97 -78.5t103.5 -24.5q63 0 137.5 24.5t139.5 63t100 80.5q-46 1 -81 25t-85 24q-38 0 -72 -40t-62 -94.5t-50 -99.5q-4 -8 -17.5 -8t-8.5 11q35 80 65 154.5t66.5 123t90.5 48.5q44 0 70 -12t50.5 -24t63.5 -12q12 0 17.5 5.5l9.5 9.5q5 4 16 -2.5
t11 -13.5t-22 -55t-64 -115.5t-103.5 -133.5t-140.5 -110t-175 -44q-42 0 -83 34t-76 86t-60 105zM2147 1743q-51 -33 -64.5 -49.5t-27.5 -38.5q-5 -9 -12.5 0t-7.5 17q0 68 112 141q51 33 65 49.5t27 38.5q6 9 13 0t7 -17q0 -37 -28.5 -71t-83.5 -70zM2556 1208
q0 -10 -22.5 -37.5t-48.5 -51.5t-35 -24q-12 0 -39.5 23t-50.5 50.5t-23 39.5q0 10 22.5 37.5t48 51.5t35.5 24q6 0 15.5 -16.5t37.5 -44.5t44 -37t16 -15zM2768 686q0 -10 -22.5 -37.5t-48.5 -51.5t-35 -24q-12 0 -39.5 23t-50.5 50.5t-23 39.5q0 10 22.5 37.5t48 51.5
t35.5 24q6 0 15.5 -16.5t37.5 -44.5t44 -37t16 -15zM676 1373q0 -83 -52.5 -138t-189.5 -80q-13 -2 -23.5 10.5t1.5 16.5q52 17 106 42t90 54.5t36 62.5t-28 33q-15 0 -25 -10.5t-10 -24.5q0 -19 23.5 -34.5t35.5 1.5q-1 -10 -23 -36t-35 -26q-8 3 -26.5 13.5t-18.5 48.5
q0 26 14 56.5t35 51.5t43 21q26 0 36.5 -19.5t10.5 -42.5zM1152 1736q0 -83 -52.5 -138t-189.5 -80q-13 -2 -23.5 10.5t1.5 16.5q52 17 106 42t90 54.5t36 62.5t-28 33q-15 0 -25 -10.5t-10 -24.5q0 -19 23.5 -34.5t35.5 1.5q-1 -10 -23 -36t-35 -26q-8 3 -26.5 13.5
t-18.5 48.5q0 26 14 56.5t35 51.5t43 21q26 0 36.5 -19.5t10.5 -42.5z" />
            <glyph glyph-name=".notdef" horiz-adv-x="1495" d="M319 705q2 7 12 -1.5t8 -15.5q-12 -64 20.5 -99t91 -50.5t125 -18.5t122.5 -3q201 0 334.5 41.5t185.5 170.5q2 7 11.5 -1.5t7.5 -15.5q-23 -121 -86.5 -194.5t-188 -106.5t-331.5 -33q-181 0 -258.5 38.5t-82.5 111.5t29 177zM917 768q0 -4 -20.5 -25.5t-42 -41.5
t-25.5 -20q-56 29 -92 85q0 5 21 27t44 43t27 21q35 -55 88 -89zM751 767q0 -4 -20 -25.5t-41.5 -41.5t-25.5 -20q-30 15 -52.5 36.5t-39.5 48.5q0 5 21 27t43.5 43t27.5 21q36 -56 87 -89zM115 1587h1265v-1587h-1265v1587zM172 57h1150v1472h-1150v-1472z" />
            <glyph glyph-name="NULL" />
            <glyph glyph-name="CR" />
            <glyph glyph-name="space" unicode=" " horiz-adv-x="345" />
            <glyph glyph-name="tab" horiz-adv-x="575" />
            <glyph glyph-name="exclam" unicode="!" horiz-adv-x="682" d="M455 1239q0 -13 -0.5 -30t-3.5 -37l-90 -813h-40l-86 813q-8 63 -8 76q0 67 33.5 104t82.5 37q38 0 75 -33.5t37 -116.5zM451 85q0 -47 -32.5 -81t-76.5 -34q-34 0 -73.5 27t-39.5 88q0 53 37 80.5t76 27.5q38 0 73.5 -29t35.5 -79z" />
            <glyph glyph-name="exclam.arab" horiz-adv-x="650" d="M461.807 85.7002q0 -9.10059 -16.4502 -31.501t-39.5508 -47.251q-23.0996 -24.8496 -44.1006 -42.3506q-21 -17.5 -29.4004 -17.5q-11.2002 0 -33.6006 17.1504t-46.5508 41.3008t-40.9502 46.5508q-16.8008 22.4004 -16.8008 33.6006q0 9.7998 16.4502 31.8506
q16.4502 22.0498 39.5508 46.5508q23.1006 24.5 43.751 42.001q20.6504 17.5 29.75 17.5q7.7002 -0.700195 18.9004 -19.9502q11.2002 -19.251 45.501 -54.251q34.3008 -33.6006 53.9014 -44.8008q19.5996 -11.2002 19.5996 -18.9004zM318.75 1332.78
q7.5 66.3994 42.5 127.599q35 61.1982 76.875 105.598t66.875 61.1992q18.75 13.5996 32.5 -5.59961q13.75 -19.2002 8.75 -30.3994q-3.75 -12 -15.625 -31.2002q-11.875 -19.1992 -21.875 -53.999q-10 -34.7988 -10 -95.5986q0 -135.197 -3.125 -253.996
q-3.125 -118.798 -13.125 -228.396q-12.5 -137.598 -49.375 -256.396q-36.875 -118.799 -78.75 -199.997q-41.875 -81.1992 -70.625 -106.799q-12.5 -12 -34.375 4t-18.125 26.3994q6.25 15.2002 21.25 40t31.25 69.999t22.5 120.397q15 162.397 3.75 341.595t8.75 365.595z
" />
            <glyph glyph-name="quotedbl" unicode="&#x22;" horiz-adv-x="835" d="M703 1281q0 -19 -4.5 -64.5t-17.5 -119.5l-55 -292h-50l-53 292q-13 63 -18.5 105t-5.5 65q0 122 102 122q48 0 75 -32t27 -76zM335 1280q0 -19 -7 -65t-21 -117l-55 -293h-40l-56 296q-12 60 -16.5 101.5t-4.5 64.5q0 68 27.5 95t70.5 27q44 0 73 -30.5t29 -78.5z" />
            <glyph glyph-name="quotedbl.arab" horiz-adv-x="835" d="M181 1313q4 35 34 48.5t63 13.5t62.5 -13.5t20.5 -48.5q-18 -70 -32.5 -149.5t-25.5 -151.5t-17.5 -120t-9.5 -54q-6 -15 -26 -20t-39.5 0t-24.5 20q-4 13 -9.5 87.5t-6 179.5t10.5 208zM488 1313q4 35 34 48.5t63 13.5t62.5 -13.5t20.5 -48.5q-18 -70 -32.5 -149.5
t-25.5 -151.5t-17.5 -120t-9.5 -54q-6 -15 -26 -20t-39.5 0t-24.5 20q-4 13 -9.5 87.5t-6 179.5t10.5 208z" />
            <glyph glyph-name="numbersign" unicode="#" horiz-adv-x="1026" d="M715 427l-92 -457h-80l89 457h-338l-95 -457h-84l92 457h-171v84h186l72 343h-258v80h278l90 455h81l-88 -455h337l96 455h82l-93 -455h170v-80h-184l-71 -343h255v-84h-274zM378 854l-71 -343h343l70 343h-342z" />
            <glyph glyph-name="dollar" unicode="$" horiz-adv-x="1026" d="M922 337q0 -108 -56.5 -188.5t-146.5 -126t-192 -52.5v-126h-64v126q-88 5 -185.5 27.5t-168.5 53.5v284h43q11 -142 88.5 -213t222.5 -84v583q-112 73 -191 134.5t-121 131.5t-42 169q0 85 35.5 145.5t90.5 99t116 58t112 22.5v92h64v-92q40 -1 75 -7t63 -11
q13 -4 62.5 -22t130.5 -50v-300h-39q-11 142 -76 225t-216 97v-508q111 -79 186.5 -137t121.5 -107.5t66.5 -102t20.5 -121.5zM463 1313q-32 -4 -79.5 -20.5t-83.5 -57t-36 -117.5q0 -69 35 -121.5t81.5 -88.5t82.5 -59v464zM764 289q0 88 -62 148.5t-175 139.5v-539
q37 3 93 27.5t100 78.5t44 145z" />
            <glyph glyph-name="percent" unicode="%" horiz-adv-x="1773" d="M1619 508q0 -121 -37.5 -219.5t-98 -170t-131 -110t-136.5 -38.5q-105 0 -162 38.5t-78.5 102.5t-21.5 141q0 84 36.5 169t99 156t142.5 114.5t168 43.5q70 0 119 -34t74.5 -86t25.5 -107zM543 -30h-99l717 1288q-93 -39 -194.5 -50t-161.5 12q0 -23 7.5 -53t7.5 -56
q0 -104 -39.5 -197.5t-102.5 -165.5t-136.5 -113.5t-141.5 -41.5q-121 0 -182.5 74.5t-61.5 207.5q0 83 36 168.5t98.5 158t142.5 117t167 44.5q63 0 97 -17.5t60.5 -40t64 -39.5t107.5 -16q93 1 174.5 38.5t132.5 104.5h99zM1566 497q0 60 -36 115.5t-106 55.5
q-65 0 -122 -50t-100 -127.5t-67 -162t-24 -153.5q0 -58 29 -99.5t99 -41.5q72 0 132 48t103.5 121.5t67.5 152.5t24 141zM767 1140q0 26 -6 48.5t-11 46.5q-58 17 -87 43t-56 26q-28 0 -76.5 -36.5t-99 -102t-85 -154.5t-34.5 -195q0 -66 27.5 -108.5t100.5 -42.5
q69 0 128 45t104 117t70 154.5t25 158.5z" />
            <glyph glyph-name="absPercentSign" unicode="&#x66a;" horiz-adv-x="977" d="M607 1128q33 60 79.5 106t90 74.5t66.5 36.5q18 8 32 -10.5t15 -44t-21 -42.5q-13 -10 -33 -39t-56 -92q-33 -60 -69.5 -137.5t-73 -158t-70 -151.5t-60.5 -120q-67 -122 -142 -222t-135.5 -165.5t-85.5 -83.5q-17 -11 -33.5 6.5t-22 44t8.5 42.5q15 20 51 55.5t91 135.5
q40 72 85 168.5t92.5 202.5t96 208.5t94.5 185.5zM839 210q1 -11 -18 -36.5t-45.5 -53.5t-50.5 -48.5t-34 -20.5q-13 0 -38.5 19.5t-53 47.5t-46.5 53.5t-19 38.5q0 11 18.5 36t45 53t50 48t34.5 20q8 0 21 -22.5t52 -61.5t61.5 -52t22.5 -21zM411 1189q1 -11 -18 -36.5
t-45.5 -53.5t-50.5 -48.5t-34 -20.5q-13 0 -38.5 19.5t-53 47.5t-46.5 53.5t-19 38.5q0 11 18.5 36t45 53t50 48t34.5 20q8 0 21 -22.5t52 -61.5t61.5 -52t22.5 -21z" />
            <glyph glyph-name="absPerMilleSign" unicode="&#x609;" horiz-adv-x="1307" d="M607 1128q33 60 80 105.5t90.5 74.5t65.5 37q18 7 32 -11t15 -43.5t-21 -42.5q-13 -10 -33.5 -39t-55.5 -92q-34 -60 -70.5 -137t-73 -157.5t-69.5 -152t-60 -120.5q-67 -122 -141.5 -222.5t-135.5 -166t-86 -82.5q-17 -11 -33.5 6.5t-22 44t8.5 42.5q15 20 51 55.5
t91 135.5q40 72 85 168.5t92.5 202.5t96 208.5t94.5 185.5zM809 210q1 -11 -18 -36.5t-45.5 -53.5t-50.5 -48.5t-34 -20.5q-13 0 -38.5 19.5t-53 47.5t-46.5 53.5t-19 38.5q0 11 18.5 36t45 53t50 48t34.5 20q8 0 21 -22.5t52 -61.5t61.5 -52t22.5 -21zM432 1189
q1 -11 -18 -36.5t-45.5 -53.5t-50.5 -48.5t-34 -20.5q-13 0 -38.5 19.5t-53 47.5t-46.5 53.5t-19 38.5q0 11 18.5 36t45 53t50 48t34.5 20q8 0 21 -22.5t52 -61.5t61.5 -52t22.5 -21zM1219 210q1 -11 -18 -36.5t-45.5 -53.5t-50.5 -48.5t-34 -20.5q-13 0 -38.5 19.5
t-53 47.5t-46.5 53.5t-19 38.5q0 11 18.5 36t45 53t50 48t34.5 20q8 0 21 -22.5t52 -61.5t61.5 -52t22.5 -21z" />
            <glyph glyph-name="absPerTenThousandSign" unicode="&#x60a;" horiz-adv-x="1717" d="M607 1128q33 60 80 105.5t90.5 74.5t65.5 37q18 7 32 -11t15 -43.5t-21 -42.5q-13 -10 -33.5 -39t-55.5 -92q-34 -60 -70.5 -137t-73 -157.5t-69.5 -152t-60 -120.5q-67 -122 -141.5 -222.5t-135.5 -166t-86 -82.5q-17 -11 -33.5 6.5t-22 44t8.5 42.5q15 20 51 55.5
t91 135.5q40 72 85 168.5t92.5 202.5t96 208.5t94.5 185.5zM432 1189q1 -11 -18 -36.5t-45.5 -53.5t-50.5 -48.5t-34 -20.5q-13 0 -38.5 19.5t-53 47.5t-46.5 53.5t-19 38.5q0 11 18.5 36t45 53t50 48t34.5 20q8 0 21 -22.5t52 -61.5t61.5 -52t22.5 -21zM809 210
q1 -11 -18 -36.5t-45.5 -53.5t-50.5 -48.5t-34 -20.5q-13 0 -38.5 19.5t-53 47.5t-46.5 53.5t-19 38.5q0 11 18.5 36t45 53t50 48t34.5 20q8 0 21 -22.5t52 -61.5t61.5 -52t22.5 -21zM1219 210q1 -11 -18 -36.5t-45.5 -53.5t-50.5 -48.5t-34 -20.5q-13 0 -38.5 19.5
t-53 47.5t-46.5 53.5t-19 38.5q0 11 18.5 36t45 53t50 48t34.5 20q8 0 21 -22.5t52 -61.5t61.5 -52t22.5 -21zM1629 210q1 -11 -18 -36.5t-45.5 -53.5t-50.5 -48.5t-34 -20.5q-13 0 -38.5 19.5t-53 47.5t-46.5 53.5t-19 38.5q0 11 18.5 36t45 53t50 48t34.5 20q8 0 21 -22.5
t52 -61.5t61.5 -52t22.5 -21z" />
            <glyph glyph-name="ampersand" unicode="&#x26;" horiz-adv-x="1596" d="M1532 244q-8 -37 -28 -84.5t-56 -91t-91.5 -72t-134.5 -28.5q-78 0 -144 32.5t-118 78t-88 85.5q-41 -36 -101.5 -82t-143 -80t-192.5 -34q-120 0 -200 44.5t-120 114t-40 142.5q0 93 41 169t105.5 136.5t136.5 106t133 77.5q-24 53 -53.5 130.5t-29.5 169.5
q0 115 53 188t133.5 108t162.5 35q89 0 149 -35t90.5 -91t30.5 -120q0 -72 -33.5 -128.5t-85.5 -99.5t-108 -75.5t-102 -57.5q122 -221 266 -413q176 209 176 355q0 48 -20 71.5t-43 31.5t-33 8v39h423v-39q-42 -5 -71.5 -11.5t-55 -26.5t-55.5 -64.5t-74 -125.5
q-43 -80 -94 -154t-105 -143q30 -33 73 -77.5t100 -77.5t127 -33q64 0 101.5 26.5t56.5 61.5t25 60zM911 1148q0 77 -47 123.5t-107 46.5q-72 0 -110.5 -37.5t-52.5 -81t-14 -63.5q0 -70 28.5 -149t56.5 -137q41 19 99 56t102.5 96.5t44.5 145.5zM819 220q-67 92 -113 157
t-71 108q-25 44 -52.5 94t-59.5 111q-39 -21 -95.5 -62.5t-100 -107t-43.5 -161.5q0 -66 28.5 -127.5t85 -101.5t138.5 -40q93 0 162.5 45t120.5 85z" />
            <glyph glyph-name="quotesingle" unicode="'" horiz-adv-x="371" d="M286 1281q0 -17 -7 -63t-21 -120l-53 -293h-45l-53 296q-13 62 -17.5 103.5t-4.5 62.5q0 122 94 122q56 0 81.5 -36.5t25.5 -71.5z" />
            <glyph glyph-name="quotesingle.arab" horiz-adv-x="371" d="M111 1313q4 35 34 48.5t63 13.5t62.5 -13.5t20.5 -48.5q-18 -70 -32.5 -149.5t-25.5 -151.5t-17.5 -120t-9.5 -54q-6 -15 -26 -20t-39.5 0t-24.5 20q-4 13 -9.5 87.5t-6 179.5t10.5 208z" />
            <glyph glyph-name="parenleft" unicode="(" horiz-adv-x="682" d="M635 -440q-167 78 -290.5 220.5t-191.5 326.5t-68 386q0 205 69 388.5t193 324.5t288 218v-42q-167 -88 -263 -308.5t-96 -553.5q0 -123 12.5 -254.5t49 -257t108 -232t189.5 -178.5v-38z" />
            <glyph glyph-name="parenleft.arab" horiz-adv-x="682" d="M509 -426q-163 78 -260.5 212t-135.5 303.5t-22.5 354.5t78 366t167 338.5t243.5 269.5q12 10 28 -1.5t24.5 -29.5t-1.5 -28q-139 -142 -233 -308t-136.5 -339.5t-27.5 -339t94 -308t229 -245.5q15 -10 17.5 -52t-5 -90.5t-23 -80.5t-36.5 -22z" />
            <glyph glyph-name="parenright" unicode=")" horiz-adv-x="682" d="M600 489q0 -204 -71.5 -389.5t-196.5 -326.5t-287 -213v38q172 91 267.5 311t95.5 554q0 98 -8 221.5t-41.5 252.5t-107.5 246t-206 202v39q177 -88 301 -230t189 -322t65 -383z" />
            <glyph glyph-name="parenright.arab" horiz-adv-x="682" d="M168 1410q163 -77 260.5 -211.5t135.5 -304t22.5 -354.5t-78 -366t-167 -338.5t-243.5 -269.5q-12 -9 -28 2t-24.5 29t1.5 28q139 142 233 308t136.5 339.5t27.5 339t-94 308t-229 245.5q-15 10 -17.5 52t5 90.5t23 80.5t36.5 22z" />
            <glyph glyph-name="asterisk" unicode="*" horiz-adv-x="1026" d="M881 1175q0 -43 -37.5 -70t-92.5 -44t-108 -28.5t-85 -23.5q33 -14 86.5 -27.5t107.5 -30.5t91 -44t37 -68q0 -31 -22 -51.5t-53 -20.5q-43 0 -92.5 40.5t-96 89.5t-81.5 76q0 -49 15.5 -94.5t30.5 -89.5t15 -89q0 -40 -21.5 -73.5t-66.5 -33.5q-37 0 -56.5 35t-19.5 69
q0 64 25 138.5t40 138.5q-28 -20 -62.5 -54.5t-71.5 -70t-72 -59.5t-64 -24q-28 0 -54.5 19.5t-26.5 49.5q0 42 38.5 70.5t94 47.5t109.5 32.5t86 23.5q-31 17 -85 28.5t-110 27.5t-94.5 42t-38.5 71q0 32 21 52t53 20q44 0 94.5 -40.5t98.5 -89.5t83 -77q-5 42 -21 94.5
t-29.5 101.5t-13.5 79q0 39 21 72.5t67 33.5q38 0 57 -34.5t19 -69.5q0 -64 -25 -136.5t-36 -140.5q40 28 86.5 76.5t93.5 88.5t89 40q29 0 53 -20.5t24 -52.5z" />
            <glyph glyph-name="asterisk.arab" horiz-adv-x="1026" d="M434 1340q3 23 31 32.5t61.5 7t55.5 -16.5t14 -38q-61 -181 -70 -365t31 -351q4 -14 -22 -23t-32 7q-59 165 -76.5 364t7.5 383zM777 1208q22 9 44 -10.5t36.5 -50t13 -56.5t-25.5 -31q-187 -37 -351 -121t-288 -203q-10 -10 -31 8t-10 31q113 134 276.5 248.5
t335.5 184.5zM166 1115q-18 15 -12.5 43.5t24.5 56t42.5 39.5t39.5 -6q126 -144 281 -244t319 -148q14 -4 9 -31t-22 -24q-172 32 -353.5 116t-327.5 198z" />
            <glyph glyph-name="plus" unicode="+" horiz-adv-x="1972" d="M1046 530v-530h-120v530h-530v123h530v530h120v-530h531v-123h-531z" />
            <glyph glyph-name="plus.arab" horiz-adv-x="1972" d="M926 1157q3 13 28.5 19.5t57.5 6.5t54.5 -6.5t19.5 -19.5q-17 -75 -23 -188.5t-7.5 -245.5t-3 -263.5t-7.5 -245.5t-23 -189q-3 -13 -28.5 -19.5t-57.5 -6.5t-54.5 6.5t-19.5 19.5q17 75 23.5 188.5t7.5 245.5t2.5 264t8 245.5t22.5 188.5zM1549 649q18 -3 25.5 -31.5
t4 -55t-21.5 -23.5q-76 13 -189.5 13.5t-245.5 -5.5t-263.5 -11.5t-245.5 -5.5t-190 13q-17 4 -25 32t-4 54.5t21 23.5q76 -13 190 -13.5t245.5 5t263.5 11t245.5 5.5t189.5 -12z" />
            <glyph glyph-name="comma" unicode="," horiz-adv-x="512" d="M408 -10q0 -85 -41.5 -150t-108.5 -110.5t-146 -72.5v46q50 14 99 50t81.5 89t32.5 119q0 11 -4 25t-17 14q-23 0 -43.5 -15t-43.5 -15q-41 0 -73 26.5t-32 86.5q0 53 38.5 84.5t90.5 31.5q59 0 113 -52.5t54 -156.5z" />
            <glyph glyph-name="absComma" unicode="&#x60c;" horiz-adv-x="661" d="M317 680q7 10 23 5.5t12 -12.5q-65 -124 -81 -228.5t9.5 -168t83.5 -63.5q-21 9 -29 43.5t10.5 66t73.5 31.5q43 0 67.5 -39t28.5 -96.5t-14 -115t-59.5 -96.5t-109.5 -39q-69 0 -119.5 48.5t-65 141t23.5 224.5t146 298z" />
            <glyph glyph-name="minus" unicode="&#x2212;" horiz-adv-x="682" d="M83 382v153h517v-153h-517z" />
            <glyph glyph-name="minus.arab" horiz-adv-x="682" d="M574 532q13 -1 21 -25t9.5 -53.5t-4 -51.5t-18.5 -21q-75 9 -131 8t-106 -6t-106 -6t-131 8q-13 2 -21 25.5t-9.5 53t4 52t18.5 20.5q75 -9 131 -8t106 6t106 6t131 -8z" />
            <glyph glyph-name="hyphenminus" unicode="-" horiz-adv-x="682" d="M83 382v153h517v-153h-517z" />
            <glyph glyph-name="hyphenminus.arab" horiz-adv-x="682" d="M574 532q13 -1 21 -25t9.5 -53.5t-4 -51.5t-18.5 -21q-75 9 -131 8t-106 -6t-106 -6t-131 8q-13 2 -21 25.5t-9.5 53t4 52t18.5 20.5q75 -9 131 -8t106 6t106 6t131 -8z" />
            <glyph glyph-name="period" unicode="." horiz-adv-x="512" d="M367 85q0 -46 -31 -80.5t-80 -34.5q-50 0 -80 34.5t-30 80.5q0 47 31.5 78.5t78.5 31.5q45 0 78 -31t33 -79z" />
            <glyph glyph-name="absFullStop" unicode="&#x6d4;" horiz-adv-x="888" d="M783 232q-13 -62 -43.5 -115t-88 -84.5t-151.5 -31.5q-110 0 -199 26.5t-168 64.5q-16 8 -24 31.5t-3 43.5t25 17q239 -24 381 -8.5t173 61.5q5 7 30 9t47.5 -1t20.5 -13z" />
            <glyph glyph-name="absFullStop.dot" horiz-adv-x="657" d="M461.807 85.7002q0 -9.10059 -16.4502 -31.501t-39.5508 -47.251q-23.0996 -24.8496 -44.1006 -42.3506q-21 -17.5 -29.4004 -17.5q-11.2002 0 -33.6006 17.1504t-46.5508 41.3008t-40.9502 46.5508q-16.8008 22.4004 -16.8008 33.6006q0 9.7998 16.4502 31.8506
q16.4502 22.0498 39.5508 46.5508q23.1006 24.5 43.751 42.001q20.6504 17.5 29.75 17.5q7.7002 -0.700195 18.9004 -19.9502q11.2002 -19.251 45.501 -54.251q34.3008 -33.6006 53.9014 -44.8008q19.5996 -11.2002 19.5996 -18.9004z" />
            <glyph glyph-name="slash" unicode="/" horiz-adv-x="570" d="M95 -30h-84l494 1454h79z" />
            <glyph glyph-name="slash.arab" horiz-adv-x="570" d="M428 1410q3 18 36 18.5t64.5 -10t29.5 -28.5q-14 -111 -54 -252t-93 -296l-106 -310t-95 -296t-59 -252q-2 -13 -22.5 -16.5t-46 0.5t-44.5 13.5t-17 22.5q17 111 58 252t93.5 296t105 310.5t93.5 296t57 251.5z" />
            <glyph glyph-name="fraction" unicode="&#x2044;" horiz-adv-x="1061" d="M120 -30h-120l941 1423h120z" />
            <glyph glyph-name="fraction.arab" horiz-adv-x="1061" d="M919 1410q5 12 27.5 12.5t48 -7.5t42.5 -20.5t12 -24.5q-36 -92 -105.5 -204.5t-157.5 -236.5t-183 -251.5t-185 -251.5t-162 -236.5t-114 -205.5q-6 -12 -28 -12.5t-47.5 7.5t-42.5 20.5t-12 24.5q39 93 110 205.5t160 236.5t184 251.5t184 251.5t159.5 236.5
t109.5 204.5z" />
            <glyph glyph-name="zero" unicode="0" horiz-adv-x="1026" d="M952 690q0 -137 -29 -264.5t-85.5 -229t-139.5 -161t-192 -59.5q-100 0 -179.5 58.5t-136 157.5t-86.5 223t-30 255q0 217 62 378t163 250t218 89q115 0 214 -84.5t160 -241t61 -371.5zM757 735q0 273 -61.5 429t-180.5 156q-42 0 -85 -29.5t-79.5 -103t-58.5 -205
t-22 -335.5q0 -302 66 -455t175 -153q71 0 126.5 64.5t87.5 217t32 414.5z" />
            <glyph glyph-name="one" unicode="1" horiz-adv-x="1026" d="M775 0h-511v38q86 0 122.5 15t45 58.5t8.5 129.5v732v85q0 65 -11.5 109.5t-51 54.5t-123.5 -29l-13 32l329 162h35v-1146q0 -86 7.5 -129.5t43 -58.5t119.5 -15v-38z" />
            <glyph glyph-name="two" unicode="2" horiz-adv-x="1026" d="M941 260l-97 -260h-799v38q176 161 300.5 291t197.5 236q144 206 144 371q0 87 -29.5 144.5t-73 91t-88.5 47.5t-77 14q-96 0 -157.5 -41.5t-94.5 -95.5t-47 -92h-35q6 45 25.5 109t61 127t113.5 105t184 42q97 0 186 -43.5t146 -123.5t57 -191q-1 -106 -49.5 -209
t-115.5 -191t-125 -149q-125 -137 -202 -218t-108 -110h355q102 0 153.5 8.5t79.5 32t58 67.5h37z" />
            <glyph glyph-name="three" unicode="3" horiz-adv-x="1026" d="M857 450q0 -139 -65.5 -246t-185.5 -167.5t-286 -60.5q-114 0 -163 21t-60.5 47t-11.5 41q0 29 24 50t55 21q49 -1 89 -23.5t86.5 -45t113.5 -23.5q60 0 118.5 32.5t97 91.5t38.5 139q0 137 -61 207t-135 101q-86 36 -199 38v31q20 2 69.5 16.5t104.5 49.5t95 95.5
t40 154.5q0 88 -37.5 137.5t-89.5 70t-96 20.5q-155 0 -260 -166l-33 16q15 32 39.5 80t65.5 96t104.5 80.5t156.5 32.5q98 0 160 -32.5t96 -80t47 -92.5t13 -71q0 -151 -183 -306q43 -16 102.5 -56t105 -112.5t45.5 -186.5z" />
            <glyph glyph-name="four" unicode="4" horiz-adv-x="1026" d="M952 359h-178v-359h-167v359h-575v126l630 902h112v-887h178v-141zM607 500v675l-477 -675h477z" />
            <glyph glyph-name="five" unicode="5" horiz-adv-x="1026" d="M889 1357l-77 -169h-408l-90 -183q39 -2 106 -20t144 -55t146 -96.5t113 -144.5t44 -200q0 -127 -51 -223.5t-132.5 -160.5t-174.5 -96.5t-178 -32.5q-117 0 -175 40t-58 93q0 15 14.5 43.5t64.5 28.5q48 0 82.5 -25.5t76 -50.5t108.5 -26q78 0 144.5 39t107.5 107.5
t41 156.5q0 62 -31.5 147.5t-117.5 159.5q-74 61 -152.5 90.5t-153.5 39.5t-138 11l260 527h485z" />
            <glyph glyph-name="six" unicode="6" horiz-adv-x="1026" d="M946 458q0 -120 -52.5 -230.5t-149 -181t-229.5 -70.5q-125 0 -221.5 76.5t-150.5 203t-54 276.5q0 149 42 269.5t106.5 213.5t131.5 157q130 120 259.5 167.5t232.5 47.5h58v-38q-119 -6 -213 -52.5t-170 -121.5q-49 -49 -116.5 -152t-105.5 -266q145 101 290 101
q46 0 104 -21t112.5 -67.5t90 -123.5t35.5 -188zM767 348q0 106 -27 203t-84.5 159t-149.5 62q-60 0 -112.5 -30.5t-96.5 -57.5q-8 -66 -13.5 -120.5t-5.5 -96.5q0 -69 17.5 -145.5t52 -143t84 -107t112.5 -39.5q89 4 156 83.5t67 232.5z" />
            <glyph glyph-name="seven" unicode="7" horiz-adv-x="1026" d="M931 1320l-451 -1350h-111l406 1223h-373q-109 0 -166 -26.5t-84.5 -65t-46.5 -74.5l-30 10l132 320h724v-37z" />
            <glyph glyph-name="eight" unicode="8" horiz-adv-x="1026" d="M907 321q0 -45 -17.5 -104t-61.5 -114t-120.5 -91t-195.5 -36q-127 0 -214 51t-131.5 128t-44.5 155q0 86 47.5 157.5t111.5 126.5t115 88q-54 45 -113.5 99t-101 123t-41.5 159q0 101 52 173.5t137 111.5t183 39q112 0 183.5 -34t111 -83.5t55 -98.5t15.5 -79
q0 -81 -46 -143.5t-111 -110.5t-122 -85q60 -45 132 -107t124.5 -142.5t52.5 -182.5zM734 1104q0 86 -32 134.5t-82 68.5t-105 20q-93 0 -161 -51t-68 -146q0 -69 31.5 -119.5t91 -100.5t142.5 -120q51 50 92.5 91t66 92.5t24.5 130.5zM766 241q0 64 -32.5 121.5t-83.5 108
t-106.5 94.5t-100.5 82q-28 -23 -67.5 -66.5t-69.5 -109.5t-30 -157q0 -136 72.5 -209t178.5 -73q96 0 167.5 54.5t71.5 154.5z" />
            <glyph glyph-name="nine" unicode="9" horiz-adv-x="1026" d="M936 827q0 -337 -229 -588q-19 -23 -65.5 -67t-116.5 -90.5t-161 -79t-198 -32.5h-57v38q35 2 97.5 13t135.5 44.5t138 101.5q74 83 135.5 187t96.5 244q-77 -53 -148 -77.5t-137 -24.5q-111 0 -188 58.5t-116.5 150.5t-39.5 194q0 143 59 253t155 172.5t207 62.5
q104 0 184.5 -50t135.5 -132.5t83.5 -181.5t28.5 -196zM747 877q0 147 -41.5 246.5t-103 149.5t-121.5 47q-89 -2 -155 -82t-66 -234q0 -186 68.5 -302.5t179.5 -116.5q40 0 86 14t83.5 34t50.5 37q8 65 13.5 117t5.5 90z" />
            <glyph glyph-name="zero.small" horiz-adv-x="851" d="M789 574q0 -115 -24.5 -221.5t-71.5 -190.5t-115.5 -133t-157.5 -49q-84 -1 -151 47.5t-113.5 131.5t-71 186t-24.5 210q0 180 51.5 314t135.5 208t181 74q94 0 176.5 -70t133.5 -199.5t51 -307.5zM627 611q0 224 -52 354.5t-150 130.5q-34 0 -70 -24.5t-66 -85.5
t-48.5 -170t-18.5 -278q0 -252 55 -379t144 -127q61 0 107 53.5t72.5 180.5t26.5 345z" />
            <glyph glyph-name="one.small" horiz-adv-x="851" d="M646 0h-423v32q71 0 102 12.5t38 48.5t7 107v607v72q0 57 -9.5 92.5t-42.5 42.5t-103 -23l-11 26l273 134h29v-951q0 -73 6.5 -108.5t36 -47.5t97.5 -12v-32z" />
            <glyph glyph-name="two.small" horiz-adv-x="851" d="M797 215l-81 -215h-663v32q147 134 250 242t164 195q118 169 118 308q0 98 -40.5 151t-93 73.5t-88.5 20.5q-80 0 -130.5 -34t-78 -78.5t-39.5 -76.5h-28q3 39 19 92.5t51.5 105t96 86t152.5 34.5q80 0 154 -35t121 -101.5t47 -160.5q0 -86 -41 -172.5t-96.5 -160.5
t-101.5 -123q-105 -113 -169.5 -180t-89.5 -92h294q87 2 129 8.5t64.5 25.5t48.5 55h31z" />
            <glyph glyph-name="three.small" horiz-adv-x="851" d="M745 374q0 -115 -54.5 -204t-154.5 -139.5t-237 -50.5q-95 0 -135.5 17.5t-49.5 39.5t-9 34q0 22 18.5 41t46.5 19q40 -1 73.5 -20.5t72 -38.5t93.5 -19q50 0 99 26.5t81 75.5t32 116q0 115 -50.5 172t-113.5 85q-72 30 -164 30v27q15 0 58 13.5t86 41.5q43 27 78 78.5
t35 127.5q0 73 -31 114t-74.5 58.5t-81.5 17.5q-126 0 -215 -138l-27 14q12 27 32.5 67t54.5 79.5t86.5 66t130.5 26.5q81 0 132.5 -27t79.5 -66t39 -76.5t11 -59.5q0 -123 -153 -254q37 -12 86.5 -45.5t86.5 -94t38 -154.5z" />
            <glyph glyph-name="four.small" horiz-adv-x="851" d="M807 299h-148v-299h-139v299h-479v105l525 747h93v-736h148v-116zM520 415v560l-396 -560h396z" />
            <glyph glyph-name="five.small" horiz-adv-x="851" d="M753 1127l-63 -140h-338l-75 -152q31 -2 86.5 -17t119.5 -46t121.5 -80.5t94.5 -120t37 -165.5q0 -106 -42 -185.5t-110 -133t-145 -80.5t-148 -27q-96 0 -145 32.5t-49 78.5q0 11 12.5 35.5t52.5 24.5t69 -21t63.5 -42.5t89.5 -21.5q64 0 120 32.5t90.5 89t34.5 128.5
q0 53 -26.5 124t-97.5 132q-96 74 -193 95t-177 23l217 437h401z" />
            <glyph glyph-name="six.small" horiz-adv-x="851" d="M781 379q0 -98 -43.5 -190t-123.5 -150.5t-191 -58.5q-103 0 -183 63.5t-125.5 168.5t-45.5 230q0 124 35.5 224.5t89 177.5t108.5 129q110 100 215.5 139t194.5 39h47v-31q-99 -5 -176.5 -43.5t-140.5 -101.5q-42 -37 -98.5 -126t-85.5 -220q119 83 239 83
q38 0 86.5 -17t93.5 -55.5t74.5 -102.5t29.5 -158zM632 289q0 87 -22 168t-69.5 132.5t-123.5 51.5q-50 0 -95 -25t-78 -48q-16 -109 -16 -180q0 -79 25 -163t74 -142t120 -58q76 6 130.5 70.5t54.5 193.5z" />
            <glyph glyph-name="seven.small" horiz-adv-x="851" d="M781 1096l-375 -1121h-92l337 1016h-308q-93 0 -140 -22t-68.5 -54t-39.5 -63l-26 10l112 265h600v-31z" />
            <glyph glyph-name="eight.small" horiz-adv-x="851" d="M752 267q0 -38 -15 -87t-51.5 -94.5t-100.5 -75.5t-162 -30q-105 0 -177.5 42.5t-109.5 107t-37 128.5q0 70 38.5 130t92 106t97.5 72q-45 41 -94.5 84.5t-83.5 99t-34 132.5q0 84 43 144.5t113.5 92.5t151.5 32q92 0 151.5 -28t92.5 -69t46 -81.5t13 -65.5
q0 -67 -38 -119t-92 -91.5t-102 -70.5q50 -39 110 -90.5t103.5 -118t44.5 -150.5zM607 918q0 107 -56.5 145.5t-125.5 38.5q-75 0 -132 -43t-57 -119q0 -58 25.5 -100.5t74.5 -84.5t119 -98q44 40 78 74t54 77.5t20 109.5zM632 200q2 71 -44 131.5t-109 112t-113 94.5
q-23 -21 -56 -57t-57.5 -90t-24.5 -130q0 -113 59 -174.5t148 -61.5q81 0 139 46t58 129z" />
            <glyph glyph-name="nine.small" horiz-adv-x="851" d="M780 687q0 -281 -190 -489q-18 -18 -56.5 -55t-96 -76t-132.5 -66t-165 -26h-47v31q29 1 81 11t112.5 38t112.5 83q63 70 113.5 155.5t80.5 203.5q-125 -85 -237 -85q-92 0 -155.5 47.5t-96.5 124.5t-33 163q0 120 49 211t129 142t172 51q86 0 153 -41.5t113 -110
t69.5 -150t23.5 -162.5zM623 728q0 122 -35 205t-86 124.5t-101 38.5q-73 0 -128.5 -67.5t-55.5 -195.5q0 -154 57.5 -250.5t148.5 -96.5q34 -1 72.5 10.5t69.5 28.5t42 30q6 56 11 98.5t5 74.5z" />
            <glyph glyph-name="zero.smaller" horiz-adv-x="392" d="M363 263q0 -69 -19 -131.5t-56.5 -101.5t-94.5 -39q-51 0 -88 38.5t-56.5 99t-19.5 126.5q0 126 49.5 200.5t119.5 74.5q66 0 115.5 -71.5t49.5 -195.5zM290 281q0 103 -24.5 163.5t-68.5 60.5q-21 0 -43 -21t-37 -77t-15 -160q0 -115 26 -173.5t66 -58.5q42 0 69 57.5
t27 208.5z" />
            <glyph glyph-name="one.smaller" horiz-adv-x="392" d="M298 0h-196v14q51 0 59.5 15t8.5 63v279v33q0 37 -11.5 57t-59.5 -6l-5 13l126 62h13v-438q0 -48 8.5 -63t56.5 -15v-14z" />
            <glyph glyph-name="two.smaller" horiz-adv-x="392" d="M367 99l-37 -99h-305v14q131 122 190 201q55 79 55 144q0 44 -19 68t-43.5 33.5t-40.5 9.5q-52 0 -80 -32t-33 -55h-14q2 24 15.5 58.5t44.5 61.5t86 27q56 0 103 -36t47 -101q0 -62 -40 -118t-71 -91q-48 -53 -77.5 -84t-41.5 -43h137q57 0 75 8.5t35 33.5h14z" />
            <glyph glyph-name="three.smaller" horiz-adv-x="392" d="M343 171q0 -79 -55 -129.5t-150 -50.5q-66 0 -78 16.5t-12 24.5q0 11 9.5 19.5t19.5 8.5q30 0 51 -18t61 -18q34 0 65 27t31 73q0 53 -23 80t-53 39q-30 13 -74 13v13q10 2 38 12t53.5 35.5t25.5 73.5q0 50 -29.5 68t-55.5 18q-58 0 -99 -62l-13 6q8 16 23 42t42.5 47
t74.5 21q50 0 76 -21t35.5 -46t9.5 -39q0 -58 -70 -116q25 -7 61 -39.5t36 -97.5z" />
            <glyph glyph-name="four.smaller" horiz-adv-x="392" d="M371 138h-67v-138h-65v138h-219v47l241 345h43v-339h67v-53zM239 191v257l-183 -257h183z" />
            <glyph glyph-name="five.smaller" horiz-adv-x="392" d="M347 519l-30 -66h-155l-34 -69q19 -1 53.5 -11.5t70.5 -33.5t61 -60t25 -93q0 -64 -33 -107.5t-80 -65.5t-90 -22q-46 0 -68 15.5t-22 34.5q0 7 5.5 17.5t25.5 10.5q26 0 44.5 -19t56.5 -19q44 0 78.5 31.5t34.5 83.5q-1 23 -12 56t-47 61q-41 35 -87 44t-82 9l100 203
h185z" />
            <glyph glyph-name="six.smaller" horiz-adv-x="392" d="M360 175q0 -68 -44.5 -126t-121.5 -58q-72 0 -117 63t-45 150q0 86 34 146t73 97q49 47 98.5 65t89.5 18h21v-15q-86 -4 -144 -67q-22 -16 -47 -57.5t-39 -100.5q55 38 111 38q23 0 53.5 -14.5t54 -48t23.5 -90.5zM291 133q0 62 -24 111.5t-76 49.5q-21 0 -42.5 -11
t-36.5 -22q-4 -25 -6.5 -46t-2.5 -37q0 -35 12.5 -74t35.5 -66t55 -27q33 4 59 33t26 89z" />
            <glyph glyph-name="seven.smaller" horiz-adv-x="392" d="M360 505l-174 -517h-42l155 467h-141q-64 0 -84 -20t-30 -43l-12 5l50 122h278v-14z" />
            <glyph glyph-name="eight.smaller" horiz-adv-x="392" d="M345 122q0 -22 -12.5 -53t-45 -54.5t-93.5 -23.5q-73 0 -110.5 42t-37.5 85q0 50 38 86t65 57q-30 28 -63 60.5t-33 84.5q0 58 43 91t98 33q57 0 87.5 -22t42 -49t11.5 -42q0 -45 -37.5 -77.5t-69.5 -50.5q34 -28 75.5 -68t41.5 -99zM279 422q0 50 -26 67.5t-58 17.5
q-34 0 -60.5 -19.5t-26.5 -56.5t26 -63t75 -67q31 31 50.5 53t19.5 68zM292 92q0 48 -44 87.5t-80 67.5q-16 -14 -39.5 -44.5t-23.5 -82.5q0 -51 27.5 -80t67.5 -29q36 0 64 22.5t28 58.5z" />
            <glyph glyph-name="nine.smaller" horiz-adv-x="392" d="M360 316q0 -129 -89 -224q-9 -12 -37.5 -37t-71.5 -45.5t-98 -21.5h-21v15q20 0 61.5 11.5t80.5 48.5q28 32 51.5 72t36.5 94q-56 -40 -110 -40q-61 0 -96 48.5t-35 106.5q0 82 49 134t112 52q53 0 90.5 -33t57 -82t19.5 -99zM286 336q0 83 -33 127t-68 42
q-33 -2 -59 -31.5t-26 -90.5q0 -70 27 -114.5t68 -44.5q24 0 49 10.5t35 20.5q7 49 7 81z" />
            <glyph glyph-name="absSmallUprightRectangularZero" unicode="&#x6e0;" d="M156 240q0 -112 -38.5 -176t-121.5 -64q-82 0 -118 64t-36 176t38.5 176t120.5 64q83 0 119 -64t36 -176zM88 240q0 89 -22 147t-66 58q-43 0 -66.5 -58t-23.5 -147q0 -206 87 -206q91 0 91 206z" />
            <glyph glyph-name="colon" unicode=":" horiz-adv-x="573" d="M398 834q0 -50 -34.5 -80t-74.5 -30q-46 0 -80 32.5t-34 77.5q0 47 34 78.5t80 31.5q43 0 76 -31.5t33 -78.5zM398 85q0 -52 -35 -83.5t-77 -31.5q-43 0 -77.5 32t-34.5 83q0 55 37.5 82.5t74.5 27.5t74.5 -29t37.5 -81z" />
            <glyph glyph-name="colon.arab" horiz-adv-x="657" d="M461.807 661.7q0 -9.10059 -16.4502 -31.501t-39.5508 -47.251q-23.0996 -24.8496 -44.1006 -42.3506q-21 -17.5 -29.4004 -17.5q-11.2002 0 -33.6006 17.1504t-46.5508 41.3008t-40.9502 46.5508q-16.8008 22.4004 -16.8008 33.6006q0 9.7998 16.4502 31.8506
q16.4502 22.0498 39.5508 46.5508q23.1006 24.5 43.751 42.001q20.6504 17.5 29.75 17.5q7.7002 -0.700195 18.9004 -19.9502q11.2002 -19.251 45.501 -54.251q34.3008 -33.6006 53.9014 -44.8008q19.5996 -11.2002 19.5996 -18.9004zM461.807 85.7002
q0 -9.10059 -16.4502 -31.501t-39.5508 -47.251q-23.0996 -24.8496 -44.1006 -42.3506q-21 -17.5 -29.4004 -17.5q-11.2002 0 -33.6006 17.1504t-46.5508 41.3008t-40.9502 46.5508q-16.8008 22.4004 -16.8008 33.6006q0 9.7998 16.4502 31.8506
q16.4502 22.0498 39.5508 46.5508q23.1006 24.5 43.751 42.001q20.6504 17.5 29.75 17.5q7.7002 -0.700195 18.9004 -19.9502q11.2002 -19.251 45.501 -54.251q34.3008 -33.6006 53.9014 -44.8008q19.5996 -11.2002 19.5996 -18.9004z" />
            <glyph glyph-name="semicolon" unicode=";" horiz-adv-x="573" d="M423 835q0 -49 -34.5 -78.5t-74.5 -29.5q-46 0 -79.5 31.5t-33.5 76.5q0 48 33.5 79.5t79.5 31.5q44 0 76.5 -31.5t32.5 -79.5zM469 -10q0 -85 -41.5 -150t-109.5 -110.5t-147 -72.5v46q51 14 100.5 50t82 89t32.5 119q0 11 -4 25t-16 14q-25 0 -44.5 -15t-43.5 -15
q-42 0 -74.5 26.5t-32.5 86.5q0 53 39.5 84.5t90.5 31.5q58 0 113 -52.5t55 -156.5z" />
            <glyph glyph-name="absSemicolon" unicode="&#x61b;" horiz-adv-x="589" d="M446 651q0 -11 -19 -36.5t-45.5 -53.5t-50 -48t-33.5 -20q-13 0 -51.5 30t-72.5 78.5t-34 103.5q0 76 48.5 158.5t126.5 167.5q8 9 24.5 -6t7.5 -26q-29 -40 -42 -75.5t-13 -65.5q0 -46 23.5 -81t53.5 -60.5t53.5 -41.5t23.5 -24zM448 174q1 -11 -18 -36.5t-45.5 -53.5
t-50.5 -48.5t-34 -20.5q-13 0 -38.5 19.5t-53 47.5t-46.5 53.5t-19 38.5q0 11 18.5 36t45 53t50 48t34.5 20q8 0 21 -22.5t52 -61.5t61.5 -52t22.5 -21z" />
            <glyph glyph-name="less" unicode="&#x3c;" horiz-adv-x="1972" d="M396 530v123l1181 453v-122l-1056 -393l1056 -392v-122z" />
            <glyph glyph-name="less.arab" horiz-adv-x="1972" d="M1563 1060q16 3 19 -16t-3 -45.5t-19 -49t-29 -26.5q-68 -17 -168.5 -46.5t-209 -65t-203 -69.5t-154 -62t-59.5 -43t62.5 -46.5t161.5 -71t212.5 -78.5t217.5 -69t173 -43q19 -3 19 -43t-12.5 -89.5t-31.5 -86.5t-37 -34q-68 10 -167.5 39.5t-214.5 72t-231.5 90.5
t-220.5 95.5t-182 87t-115 64.5q-14 10 -14.5 44.5t18.5 47.5q46 29 133 69.5t199 87t234.5 92.5t241 86t217.5 68.5t163 39.5z" />
            <glyph glyph-name="equal" unicode="=" horiz-adv-x="1972" d="M396 710v123h1181v-123h-1181zM396 351v123h1181v-123h-1181z" />
            <glyph glyph-name="equal.arab" horiz-adv-x="1972" d="M1549 844q13 -3 21 -25t9.5 -49.5t-4 -47.5t-18.5 -18q-76 13 -189.5 13.5t-245.5 -5.5t-263.5 -11.5t-245.5 -5.5t-190 13q-13 3 -21 25t-9.5 49.5t4 47.5t18.5 18q76 -13 190 -13.5t245.5 5t263.5 11t245.5 5.5t189.5 -12zM1549 486q13 -2 21 -24.5t9.5 -50t-4 -47.5
t-18.5 -18q-76 13 -189.5 13t-245.5 -6l-264 -12t-245.5 -5.5t-189.5 14.5q-13 2 -21 24.5t-9.5 50t4 47.5t18.5 18q76 -13 190 -13t246 6l264 12t245.5 5.5t188.5 -14.5z" />
            <glyph glyph-name="greater" unicode="&#x3e;" horiz-adv-x="1972" d="M396 77v122l1054 392l-1054 393v122l1181 -453v-123z" />
            <glyph glyph-name="greater.arab" horiz-adv-x="1972" d="M400 86q-16 -3 -19 16t3 45.5t19 49t29 26.5q68 17 168.5 46.5t209 65t203 69.5t154 62t59.5 43t-62.5 46.5t-161.5 71t-212.5 78.5t-217.5 69t-173 43q-19 3 -19 43t12.5 89.5t31.5 86.5t37 34q68 -10 167.5 -39.5t214.5 -72t231.5 -90.5t220.5 -95.5t182.5 -87
t114.5 -64.5q14 -10 15 -44.5t-19 -47.5q-46 -29 -133 -69.5t-199 -87t-234.5 -92.5t-241 -86t-217.5 -68.5t-163 -39.5z" />
            <glyph glyph-name="question" unicode="?" horiz-adv-x="911" d="M828 1073q0 -76 -26 -138t-62 -110t-67 -83q-71 -80 -118 -140.5t-71.5 -124.5t-28.5 -157h-43q6 120 38 224.5t99 213.5q30 53 62 137t32 163q0 100 -36.5 160.5t-90 87.5t-105.5 27q-97 0 -144 -44t-47 -88q0 -28 16 -59.5t32 -60.5t16 -52q0 -42 -27 -64t-53 -22
q-14 0 -41 12.5t-49 46.5t-22 99q0 75 41.5 140.5t122.5 106.5t197 41q163 0 269 -84t106 -232zM551 85q0 -55 -35 -84t-73 -29q-44 0 -80 29.5t-36 83.5q0 48 35 80t81 32q41 0 74.5 -31t33.5 -81z" />
            <glyph glyph-name="absQuestionMark" unicode="&#x61f;" horiz-adv-x="963" d="M849 1417q-4 -13 -31.5 -32.5t-59.5 -35t-53 -19t-13 15.5q33 75 21 122t-52.5 65.5t-93.5 8t-104 -51.5t-85 -113.5t-34 -176.5q0 -73 25.5 -129t59 -111t58.5 -126.5t25.5 -174.5t-41.5 -255q-4 -14 -31.5 -26.5t-51.5 -15t-20 13.5q34 121 17 213t-61 167.5t-95.5 147
t-88.5 149t-37 174.5q0 100 46.5 175.5t121 126t162 76t171.5 27t148.5 -22.5t93 -72t3.5 -120zM532 86q0 -10 -16.5 -32t-39.5 -47t-44 -42.5t-30 -17.5q-11 0 -33.5 17t-46.5 41.5t-41 47t-17 33.5q0 9 16.5 31.5t39.5 47t44 42t30 17.5q7 -1 18.5 -20.5t45.5 -54.5
q34 -33 54 -44.5t20 -18.5z" />
            <glyph glyph-name="at" unicode="@" horiz-adv-x="1889" d="M1838 171q-16 -56 -57.5 -134.5t-111 -162t-169.5 -156t-231.5 -117.5t-297.5 -45q-218 0 -382 79t-273.5 209.5t-164 287.5t-54.5 314q0 193 55.5 349t151.5 273.5t218 196.5t256 119t265 40q196 0 358 -78t259.5 -231t97.5 -378q0 -148 -42 -276t-117.5 -224.5
t-175.5 -150.5t-217 -54q-86 0 -118.5 37t-31.5 101.5t15 145.5q-49 -59 -111.5 -125.5t-134.5 -112.5t-149 -46q-70 0 -124.5 61t-54.5 169q0 98 35 198t93 191t130 162t147.5 112t143.5 41q64 0 100.5 -25t53 -57.5t20.5 -56.5l31 109l157 24l-114 -400
q-22 -76 -44 -152.5t-37 -138t-15 -92.5q0 -14 15.5 -44.5t61.5 -30.5q60 0 132 44t138.5 129t109 206.5t42.5 275.5q0 193 -88 330.5t-234.5 211t-324.5 73.5q-173 0 -328 -69.5t-274.5 -196.5t-187.5 -301.5t-68 -385.5q0 -151 48 -294t144.5 -257.5t244.5 -181.5t347 -67
q152 0 270.5 39.5t208.5 103t154 138t106 146t65 125.5h58zM1127 515q76 189 51.5 296.5t-119.5 107.5q-59 0 -117.5 -47.5t-110.5 -122.5t-91.5 -161t-62.5 -164t-23 -130q0 -73 39 -107.5t76 -34.5q67 0 136.5 54t128.5 137.5t93 171.5z" />
            <glyph glyph-name="A" unicode="A" horiz-adv-x="1473" d="M1457 -3l-535 3v38q71 1 102 20.5t34.5 51t-9 70.5t-29.5 80l-82 195h-526l-92 -216q-25 -61 -31.5 -103t27.5 -66t128 -32v-38h-429v38q87 6 132 63.5t94 168.5l477 1119h35l472 -1129q41 -95 71.5 -141t67 -61.5t93.5 -19.5v-41zM911 528l-230 551l-237 -551h467z" />
            <glyph glyph-name="B" unicode="B" horiz-adv-x="1333" d="M1255 371q0 -72 -36 -146t-101 -127q-66 -49 -167.5 -73.5t-276.5 -24.5h-638v38h49q85 0 122 54q10 17 16 54t6 95v877q0 126 -28 160q-42 42 -116 42h-49v37h585q180 0 292.5 -33.5t173 -87.5t83.5 -118t23 -124q0 -99 -61.5 -181.5t-185.5 -117.5q161 -30 235 -119
t74 -205zM982 1004q0 116 -93.5 200.5t-284.5 84.5q-52 0 -97 -4t-85 -15v-523q39 -9 85 -11t106 -2q199 0 284 70.5t85 199.5zM1023 355q0 135 -108.5 222.5t-314.5 87.5q-127 0 -178 -11v-556q59 -13 116.5 -20t114.5 -7q180 0 275 80t95 204z" />
            <glyph glyph-name="C" unicode="C" horiz-adv-x="1368" d="M1296 319q-100 -178 -235.5 -264.5t-326.5 -86.5q-157 0 -279.5 55t-207.5 151.5t-129 221t-44 262.5q0 148 49 280t140 233.5t218.5 159.5t284.5 58q103 0 173 -23.5t113 -47.5t63 -24q62 0 83 95h37l31 -462h-31q-62 209 -179 300t-275 91q-139 0 -247.5 -71.5
t-170.5 -218t-62 -371.5q0 -292 140.5 -446t369.5 -154q89 0 162 23.5t143 84.5t150 174z" />
            <glyph glyph-name="D" unicode="D" horiz-adv-x="1481" d="M1402 687q0 -191 -80.5 -347t-248.5 -248t-430 -92h-607v38h51q89 0 120 54q10 17 16 54t6 95v877q0 126 -25 160q-45 42 -117 42h-51v37h552q225 0 366.5 -38t238.5 -122q94 -84 151.5 -218t57.5 -292zM1175 676q0 189 -70 324.5t-193.5 208t-284.5 72.5
q-45 0 -95.5 -6.5t-109.5 -23.5v-1153q63 -13 116 -21t97 -8q154 -1 276 72t193 209.5t71 325.5z" />
            <glyph glyph-name="E" unicode="E" horiz-adv-x="1251" d="M1206 342l-117 -342h-1046v38h47q17 0 52.5 6.5t54.5 24.5q20 18 30 50.5t10 121.5v880q0 67 -7 106t-18 53q-37 40 -122 40h-47v37h1046l15 -296h-39q-10 44 -20 84t-32.5 71t-71 49t-137.5 18h-377v-536h300q92 0 134 20.5t56.5 64t23.5 111.5h38v-472h-38
q-9 71 -24 115.5t-57 65.5t-133 21h-300v-449v-60q0 -40 22 -65t94 -25h229q83 0 137.5 10.5t94.5 38.5t77 81t85 138h40z" />
            <glyph glyph-name="F" unicode="F" horiz-adv-x="1140" d="M1058 1061h-37q-22 84 -54.5 132.5t-90 69t-156.5 20.5h-300v-532h246q89 0 126.5 39.5t51.5 144.5h37v-460h-37q0 98 -37 144.5t-141 46.5h-246v-425q0 -66 3.5 -102t19.5 -50q19 -26 53.5 -38.5t69.5 -12.5h49v-38h-581v38h49q81 0 121 49q23 34 23 154v877
q0 73 -6.5 107.5t-21.5 49.5q-21 22 -52.5 33.5t-63.5 11.5h-49v37h1009z" />
            <glyph glyph-name="G" unicode="G" horiz-adv-x="1481" d="M1450 704h-23q-77 0 -107 -53q-21 -37 -21 -147v-414q-112 -65 -230.5 -93.5t-246.5 -28.5q-235 0 -403 92t-258 248.5t-90 349.5q0 125 46.5 253.5t137.5 236.5t225 174.5t310 66.5q114 0 190 -22t122.5 -43.5t71.5 -21.5q12 0 28 16.5t20 70.5h38l34 -429h-34
q-66 195 -181.5 277t-267.5 82q-165 0 -278.5 -81.5t-171.5 -221t-60 -313.5q-2 -194 67 -344.5t188.5 -235.5t268.5 -85q72 0 142 17t137 58v391q0 85 -13.5 127.5t-51.5 57t-112 15.5v35h523v-35z" />
            <glyph glyph-name="H" unicode="H" horiz-adv-x="1481" d="M1440 0h-582v38h49q83 0 120 49q11 15 18.5 53t7.5 101v413h-633v-413q0 -69 6 -104t20 -52q17 -21 52.5 -34t69.5 -13h50v-38h-582v38h49q81 0 120 49q24 33 24 154v877q0 71 -5.5 104.5t-22.5 52.5q-13 20 -49.5 32.5t-66.5 12.5h-49v37h582v-37h-50q-33 0 -64 -9
t-53 -33q-14 -16 -22.5 -49t-8.5 -111v-390h633v390q0 73 -8 109.5t-22 50.5q-42 42 -116 42h-49v37h582v-37h-50q-30 0 -62.5 -11t-53.5 -31q-22 -25 -26.5 -52.5t-4.5 -107.5v-877q0 -66 4 -99t20 -55q19 -26 54 -37.5t69 -11.5h50v-38z" />
            <glyph glyph-name="I" unicode="I" horiz-adv-x="682" d="M632 0h-581v38h49q82 0 120 49q24 29 24 154v877q0 70 -3 101t-19 51q-18 24 -52.5 37t-69.5 13h-49v37h581v-37h-49q-79 0 -120 -48q-11 -17 -18 -55t-7 -99v-877q0 -66 6 -102t17 -54q10 -16 49 -31.5t73 -15.5h49v-38z" />
            <glyph glyph-name="J" unicode="J" horiz-adv-x="798" d="M784 1320h-49q-78 0 -120 -48q-24 -36 -24 -154v-665q0 -155 -36 -251t-91 -146.5t-114 -69t-106 -18.5q-99 0 -150 48t-51 106q0 55 31.5 80t69.5 25q46 0 69 -28.5t36.5 -65.5t29.5 -65.5t46 -28.5q26 0 50.5 34t24.5 119v926q0 60 -3.5 94.5t-15.5 53.5
q-15 22 -50.5 38t-78.5 16h-47v37h579v-37z" />
            <glyph glyph-name="K" unicode="K" horiz-adv-x="1481" d="M1497 0h-645v38q59 0 83 18t26 44q5 21 -12.5 45t-60.5 68l-408 407l-60 -60v-319q0 -65 4 -99t20 -55q17 -24 51 -36.5t71 -12.5h47v-38h-577v38h47q83 0 122 49q22 28 22 154v877q0 69 -6.5 106.5t-19.5 53.5q-11 14 -48.5 28t-69.5 14h-47v37h577v-37h-47
q-30 0 -61 -8.5t-52 -30.5q-16 -13 -24.5 -46t-8.5 -117v-426q11 9 44.5 40.5t93.5 86.5q149 138 238 233.5t121 140.5q26 38 26 72q0 20 -20 37.5t-71 17.5h-32v37h500v-37q-43 0 -78 -10t-91 -44q-33 -21 -53.5 -35.5t-48.5 -40.5t-80.5 -79t-148.5 -151l-207 -207
l500 -499q124 -123 212 -167q43 -23 86 -33.5t86 -15.5v-38z" />
            <glyph glyph-name="L" unicode="L" horiz-adv-x="1251" d="M1211 369l-119 -369h-1054v38q59 0 104 10t70 46t25 113v943q0 77 -25 112.5t-70 46t-104 10.5v38h589v-38q-59 0 -104 -10.5t-70.5 -46t-25.5 -112.5v-894q0 -77 18 -113t56 -46t97 -10h137q122 0 185 9.5t103 49.5q53 43 84.5 91t67.5 137z" />
            <glyph glyph-name="M" unicode="M" horiz-adv-x="1824" d="M1780 0h-577v38h47q89 0 124 52q22 31 22 147v905l-524 -1142h-35l-523 1142v-905q0 -127 29 -158q32 -41 116 -41h47v-38h-470v38h47q83 0 122 52q9 16 14 51.5t5 95.5v884q0 65 -8 104t-35 58q-22 18 -53 27.5t-92 9.5v37h383l492 -1061l485 1061h384v-37h-47
q-85 0 -124 -50q-21 -35 -21 -149v-884q0 -124 29 -158q35 -41 116 -41h47v-38z" />
            <glyph glyph-name="N" unicode="N" horiz-adv-x="1481" d="M1450 1320h-46q-90 0 -123 -50q-21 -34 -21 -149v-1143h-35l-898 1093v-834q0 -126 28 -158q38 -41 119 -41h47v-38h-474v38h47q91 0 123 52q24 32 24 147v943q-14 14 -36.5 48t-67 63t-126.5 29v37h332l829 -1018v782q0 128 -29 157q-37 42 -117 42h-45v37h469v-37z" />
            <glyph glyph-name="O" unicode="O" horiz-adv-x="1481" d="M1400 687q0 -154 -50.5 -285.5t-141 -228.5t-212 -151t-262.5 -54q-138 0 -258.5 51t-211.5 145.5t-142 226t-51 291.5q0 153 51.5 282t144 224.5t216 148t268.5 52.5q133 0 250.5 -52t207 -147t140.5 -223t51 -280zM1174 660q0 310 -109 483t-336 175
q-204 0 -316 -169.5t-112 -459.5q0 -193 49.5 -339t145.5 -227.5t235 -83.5q194 0 317.5 150.5t125.5 470.5z" />
            <glyph glyph-name="P" unicode="P" horiz-adv-x="1140" d="M1068 982q0 -103 -44 -189t-147.5 -136.5t-283.5 -49.5h-34q-24 0 -52 2t-87 9v-377q0 -64 6 -104t24 -54q38 -45 115 -45h50v-38h-579v38h49q87 0 122 54q8 16 14 52.5t6 96.5v877q0 125 -26 160q-42 42 -116 42h-49v37h494q106 0 209 -16t173 -69q67 -49 111.5 -117
t44.5 -173zM839 961q3 83 -29.5 155.5t-97.5 117t-161 44.5q-24 0 -57 -6t-74 -14v-574q53 -8 93.5 -9.5t69.5 -1.5q105 0 179.5 78.5t76.5 209.5z" />
            <glyph glyph-name="Q" unicode="Q" horiz-adv-x="1481" d="M1402 678q0 -166 -63 -306t-175 -239.5t-260 -145.5q98 -173 217 -258.5t274 -97.5v-33q-162 7 -321.5 63.5t-293.5 143t-222 182.5q-179 63 -286 170t-154 242.5t-47 281.5q0 153 51.5 282.5t144 225t215.5 148t265 52.5q135 0 253.5 -52.5t209 -147.5t141.5 -225
t51 -286zM1174 653q0 202 -50.5 350t-148.5 229t-241 81q-201 0 -317 -161t-116 -471q0 -191 49.5 -336t146.5 -226t237 -81q209 -2 324.5 163t115.5 452z" />
            <glyph glyph-name="R" unicode="R" horiz-adv-x="1368" d="M1387 0h-364l-458 635q-28 -1 -48 -3t-36 -2q-15 0 -29.5 0.5t-31.5 4.5v-394q0 -129 30 -158q38 -45 115 -45h53v-38h-582v38h51q88 0 122 54q20 32 20 149v877q0 126 -25 160q-45 42 -117 42h-51v37h492q109 0 189.5 -7.5t132.5 -24.5q104 -34 174.5 -117t70.5 -197
q0 -128 -82 -219t-252 -132l277 -390q62 -86 113 -133.5t106.5 -69t129.5 -29.5v-38zM869 994q0 126 -79 206.5t-213 80.5q-54 0 -157 -16v-567h57q200 0 296 84t96 212z" />
            <glyph glyph-name="S" unicode="S" horiz-adv-x="1140" d="M1032 346q0 -103 -55.5 -189t-152 -137.5t-220.5 -51.5q-93 0 -163.5 19.5t-120.5 39t-82 19.5q-24 0 -39 -17.5t-22 -60.5h-36v467h36q18 -141 77.5 -226t145 -123.5t181.5 -38.5q125 0 198 66.5t73 155.5q0 68 -32 115t-103.5 94.5t-190.5 114.5q-162 91 -247.5 157.5
t-117 132t-31.5 149.5q0 96 48.5 177t137.5 130.5t210 49.5q78 0 137.5 -19t103 -38.5t71.5 -19.5q23 0 38.5 16.5t27.5 60.5h37v-470h-37q-20 190 -127 290.5t-250 100.5q-66 0 -120 -29t-86 -76.5t-32 -103.5q0 -54 28 -98t101.5 -93.5t207.5 -122.5q96 -52 160 -92
t99 -67q69 -51 108 -124.5t39 -157.5z" />
            <glyph glyph-name="T" unicode="T" horiz-adv-x="1248" d="M1201 1038h-43q-10 74 -25 109.5t-38 58.5q-32 35 -75 51.5t-110 16.5h-192v-1037q0 -123 27 -158q36 -41 116 -41h49v-38h-577v38h49q84 0 122 52q10 16 16 51.5t6 95.5v1037h-163q-80 0 -118 -9t-66 -35q-73 -54 -85 -192h-45l15 319h1125z" />
            <glyph glyph-name="U" unicode="U" horiz-adv-x="1481" d="M1459 1320h-51q-77 0 -122 -69q-21 -25 -21 -140v-553q0 -140 -24.5 -252t-95.5 -188q-72 -78 -164.5 -114t-241.5 -36q-166 0 -269 42.5t-158 112.5t-77 152.5t-25 164t-3 145.5v533q0 127 -33 163q-28 39 -113 39h-31v37h547v-37h-50q-42 0 -63 -12.5t-39 -40.5
q-11 -19 -18 -56t-7 -93v-592q0 -67 7.5 -148t39.5 -155t104.5 -122t201.5 -48q123 0 205.5 44t120.5 78q42 40 62.5 103t26.5 129t6 113v48v550q0 125 -29 160q-40 42 -116 42h-50v37h480v-37z" />
            <glyph glyph-name="V" unicode="V" horiz-adv-x="1481" d="M1455 1357v-37q-74 -8 -108 -45q-52 -48 -96 -149l-471 -1158h-38l-507 1172q-24 58 -39 84t-26.5 36.5t-23.5 19.5q-23 17 -51.5 27t-77.5 13v37h556v-37q-115 -7 -138 -48q-19 -27 -10 -74.5t42 -124.5l347 -797l321 789q29 75 41 121t-4 72q-11 17 -36 33.5t-99 28.5
v37h418z" />
            <glyph glyph-name="W" unicode="W" horiz-adv-x="1935" d="M1919 1357v-37q-46 0 -81.5 -16.5t-66.5 -73.5q-9 -17 -26.5 -58.5t-39.5 -106.5l-377 -1097h-40l-307 867l-308 -867h-38l-402 1129q-27 74 -40.5 109.5t-22 49.5t-21.5 22q-31 42 -121 42v37h500v-37h-24q-73 0 -96 -45q-6 -13 -8 -30t7.5 -54t35.5 -112l264 -763
l227 648q-11 37 -23 72t-26 68q-22 56 -48 109t-55 75q-20 16 -43.5 24t-65.5 8v37h528v-37h-35q-108 0 -108 -87q0 -28 10 -71t33 -106l262 -740l257 749q31 92 40.5 137.5t-11.5 75.5q-19 26 -53 34t-81 8v37h404z" />
            <glyph glyph-name="X" unicode="X" horiz-adv-x="1481" d="M1455 0h-581v38q95 0 120 37q14 21 15.5 38.5t-13.5 47.5t-53 87l-230 350l-286 -365q-40 -51 -50 -72.5t-10 -45.5q0 -31 25.5 -53t104.5 -24v-38h-484v38q90 2 178 70.5t157 153.5l322 406l-268 393q-69 103 -125.5 158t-111.5 77t-122 24v37h627v-37q-78 -1 -110 -26
q-30 -26 -29.5 -56t46.5 -102l210 -311l240 305q86 106 52 151q-13 19 -38 29t-98 10v37h483v-37q-73 -2 -122.5 -27t-93 -73.5t-101.5 -122.5l-274 -344l292 -434q62 -91 104.5 -146t76.5 -83t68.5 -38.5t78.5 -13.5v-38z" />
            <glyph glyph-name="Y" unicode="Y" horiz-adv-x="1481" d="M1450 1320h-24q-25 0 -74.5 -20t-93.5 -67q-39 -43 -100 -143l-330 -514v-339q0 -128 30 -158q35 -41 121 -41h42v-38h-575v38h47q84 0 122 52q9 16 14.5 51.5t5.5 95.5v321l-371 568q-33 48 -56.5 82.5t-51.5 57.5q-26 20 -62.5 37t-76.5 17v37h583v-37h-30
q-18 0 -48 -6.5t-54 -25t-24 -55.5q0 -34 60 -132l283 -436l269 417q44 70 57.5 112.5t-15.5 79.5q-11 20 -37 33t-82 13v37h471v-37z" />
            <glyph glyph-name="Z" unicode="Z" horiz-adv-x="1251" d="M1195 359l-62 -359h-1105v38l868 1240h-433q-78 0 -122.5 -11.5t-74.5 -38.5q-25 -22 -44.5 -67.5t-35.5 -142.5h-38l27 339h1005l-891 -1274h555q131 0 194 55q67 52 126 228z" />
            <glyph glyph-name="bracketleft" unicode="[" horiz-adv-x="682" d="M166 -406v1795h441v-77h-291v-1639h291v-79h-441z" />
            <glyph glyph-name="bracketleft.arab" horiz-adv-x="682" d="M143 -405q-7 9 -4.5 83t9 196.5t9.5 275.5q4 153 6 318t4 321t4.5 283t6 206.5t9.5 89.5t56 17.5t120 10.5t136.5 2t104.5 -8q18 -3 18 -23.5t-11 -39.5t-29 -18q-61 5 -101.5 6.5t-74.5 -0.5t-76 -8q-8 -83 -13 -209t-8 -277.5t-4.5 -311.5t-3.5 -312
q-1 -163 -9.5 -300.5t-9.5 -226.5q67 5 143 9t179 -9q18 -2 18 -23t-11 -40.5t-29 -17.5q-55 7 -126 5t-138.5 -6.5t-115.5 -4.5t-59 12z" />
            <glyph glyph-name="backslash" unicode="\" horiz-adv-x="570" d="M496 -30l-494 1454h87l488 -1454h-81z" />
            <glyph glyph-name="backslash.arab" horiz-adv-x="570" d="M150 1410q17 -111 57.5 -251.5t93 -296t105 -310.5t93.5 -296t58 -252q2 -13 -17 -22.5t-44.5 -13.5t-46 -0.5t-22.5 16.5q-17 111 -59 252t-95 296l-106 310t-93 296t-54 252q-2 18 29.5 28.5t65 10t35.5 -18.5z" />
            <glyph glyph-name="bracketright" unicode="]" horiz-adv-x="682" d="M77 -408v81h290v1639h-290v77h440v-1797h-440z" />
            <glyph glyph-name="bracketright.arab" horiz-adv-x="682" d="M534 1388q8 -8 5 -82.5t-9 -196.5t-10 -276q-4 -153 -6 -318t-4 -321t-4.5 -283t-6 -206.5t-9.5 -89.5t-56 -17.5t-120 -10.5t-136.5 -2t-104.5 8q-17 3 -17.5 23.5t11 40t28.5 17.5q61 -4 101.5 -6t74.5 0t76 8q8 83 13 209t8 277.5t5 312t3 311.5q2 164 10 301.5
t9 225.5q-67 -4 -143 -8.5t-179 8.5q-17 2 -17.5 23t11 40.5t28.5 17.5q56 -7 126.5 -5t138 6.5t115.5 4.5t59 -12z" />
            <glyph glyph-name="asciicircum" unicode="^" horiz-adv-x="643" d="M643 1043h-70l-252 214l-250 -214h-71l258 344h128z" />
            <glyph glyph-name="underscore" unicode="_" horiz-adv-x="643" d="M0 -296v110h643v-110h-643z" />
            <glyph glyph-name="grave" unicode="`" horiz-adv-x="703" d="M384 1043l-295 187q-25 16 -57 39t-32 50q0 77 64 77q26 0 58.5 -19.5t60.5 -48.5l284 -285h-83z" />
            <glyph glyph-name="a" unicode="a" horiz-adv-x="911" d="M910 190v-58q-113 -149 -220 -149q-44 0 -75.5 31t-31.5 118q-80 -63 -126 -95t-81 -43t-84 -11q-98 0 -158 64t-60 170q0 51 19 97t72 92t154 95.5t264 105.5v38q0 133 -41.5 185.5t-129.5 52.5q-62 0 -98.5 -32t-39.5 -79l2 -60q2 -44 -21.5 -69t-61.5 -25
q-84 0 -84 95q0 72 47.5 123.5t124 79t163.5 27.5q133 0 198.5 -38t87 -108t21.5 -167v-311q0 -65 2.5 -106t3.5 -55q7 -49 43 -49q21 0 37 13t73 68zM583 197v352q-154 -60 -226.5 -108t-93 -90.5t-20.5 -86.5q0 -70 40.5 -118.5t98.5 -48.5q39 -3 88.5 23t112.5 77z" />
            <glyph glyph-name="b" unicode="b" horiz-adv-x="1026" d="M954 496q0 -152 -65.5 -271t-173.5 -187t-234 -68q-158 0 -333 119v948q0 103 -3 151t-10 65.5t-19 26.5q-16 14 -39.5 13.5t-70.5 -15.5l-14 35l277 111h47v-666q132 185 288 185q93 0 173 -54t128.5 -154t48.5 -239zM781 438q0 172 -77 269t-181 97q-38 0 -84 -19
t-123 -88v-551q101 -101 216 -101q60 0 117.5 44t94.5 131.5t37 217.5z" />
            <glyph glyph-name="c" unicode="c" horiz-adv-x="911" d="M842 348q-18 -110 -74.5 -195.5t-137 -134t-171.5 -48.5q-108 0 -196.5 60t-141 169.5t-52.5 258.5q0 145 59.5 254t159 170t218.5 61q137 0 223 -71q90 -72 90 -148q0 -35 -23.5 -60t-71.5 -25q-20 0 -44 6.5t-43 31.5t-24 80q-4 54 -37 87t-102 33q-115 0 -178 -95
t-63 -238q0 -108 34.5 -202.5t101 -153t161.5 -58.5q86 0 155.5 45.5t128.5 187.5z" />
            <glyph glyph-name="d" unicode="d" horiz-adv-x="1026" d="M1034 85l-277 -115h-45v132q-62 -64 -125 -98t-143 -34q-101 0 -187 58.5t-138 160.5t-52 231q0 89 29.5 181.5t86.5 170t140 125t189 47.5q123 0 200 -77v170q0 102 -3.5 149t-10 64.5t-17.5 29.5q-17 17 -43 14t-65 -16l-15 35l276 111h46v-1061q0 -97 1.5 -146.5
t8 -70t21.5 -30.5q30 -26 110 4zM712 174v473q0 50 -25.5 104t-73 92.5t-113.5 39.5q-67 3 -123.5 -43.5t-90.5 -133.5t-34 -206q0 -148 43.5 -239.5t109 -133.5t130.5 -44q89 0 177 91z" />
            <glyph glyph-name="e" unicode="e" horiz-adv-x="911" d="M820 355l32 -20q-12 -90 -61.5 -173.5t-130 -137.5t-185.5 -54q-108 0 -199 58.5t-146 166t-55 253.5q0 156 54.5 267t150.5 170t220 59q152 0 252 -99t100 -272h-635q0 -137 46 -234.5t122.5 -149t165.5 -53.5t156 45t113 174zM217 628h426q0 101 -36 154t-83 72.5
t-80 19.5q-80 0 -147.5 -63t-79.5 -183z" />
            <glyph glyph-name="f" unicode="f" horiz-adv-x="682" d="M80 0v38h42q24 0 46 5.5t45 25.5q23 22 32 54t9 120v601h-179v73h179v62q0 124 33 205.5t84 130t105.5 72t99 30.5t63.5 7q59 0 117 -23.5t96.5 -63t38.5 -86.5q0 -25 -22.5 -54t-57.5 -29q-40 0 -65 27t-47.5 62.5t-54 63t-84.5 28.5q-64 0 -93 -38t-37 -118.5
t-8 -210.5v-65h236v-73h-236v-601q0 -131 29 -163q33 -42 99 -42h82v-38h-552z" />
            <glyph glyph-name="g" unicode="g" horiz-adv-x="1026" d="M463 -444q-100 0 -192.5 28t-151 72t-58.5 92q0 40 38 96.5t145 163.5q-46 29 -70.5 52t-24.5 58t29 82t132 135q-88 38 -131 117t-43 161q0 86 43.5 161.5t125 122t195.5 46.5q79 0 129.5 -17t96 -34.5t108.5 -17.5q47 0 70 2.5t44 2.5q14 0 26 -4q14 -2 14 -40
q0 -5 -2.5 -18t-6.5 -20q-8 -8 -33 -8q-10 -1 -24 0h-117q54 -74 54 -184q2 -83 -40.5 -153.5t-123.5 -113t-196 -42.5q-34 0 -69.5 4.5t-70.5 15.5q-40 -30 -65.5 -75t5.5 -74q13 -13 39.5 -18t98 -8t220.5 -9q27 0 79 -4.5t107 -24.5t94 -64t39 -124q0 -92 -67 -174
t-183 -133.5t-263 -51.5zM551 -321q120 0 198 30t116.5 75.5t38.5 93.5q0 33 -20.5 53t-75.5 31t-161 16q-112 5 -199.5 9t-148.5 13q-43 -51 -68.5 -90t-25.5 -85q0 -63 96 -104.5t250 -41.5zM511 345q72 0 121.5 55.5t49.5 179.5q0 140 -52.5 228t-146.5 88
q-72 0 -122.5 -57t-50.5 -182q0 -136 52.5 -224t148.5 -88z" />
            <glyph glyph-name="h" unicode="h" horiz-adv-x="1026" d="M28 0v38q92 0 115.5 33t23.5 118v967q0 71 -13 104.5t-54 33.5q-13 0 -32 -3.5t-40 -12.5l-17 35l278 111h46v-671q80 120 156.5 155t147.5 35q87 0 135.5 -38.5t70.5 -101t27 -134.5t5 -139v-341q0 -89 23.5 -120t114.5 -31v-38h-453v38q87 0 117.5 28.5t30.5 122.5v341
q0 45 -1 95.5t-13 95.5t-43 73t-91 28q-46 0 -99 -23t-128 -109v-501q0 -62 9 -95t40.5 -44.5t96.5 -11.5v-38h-453z" />
            <glyph glyph-name="i" unicode="i" horiz-adv-x="570" d="M77 0v38q87 0 113.5 28.5t26.5 122.5v489q0 66 -14 100t-55 34q-13 0 -30.5 -4t-40.5 -11l-13 36l278 110h42v-754q0 -94 27.5 -122.5t114.5 -28.5v-38h-449zM301 1126q-43 0 -72.5 28.5t-29.5 73.5t30.5 72.5t71.5 27.5q42 0 71.5 -28.5t29.5 -71.5q0 -42 -28.5 -72
t-72.5 -30z" />
            <glyph glyph-name="j" unicode="j" horiz-adv-x="570" d="M22 -444q-94 0 -137 35t-43 66q0 37 24.5 62t58.5 25q35 0 60.5 -16t57.5 -48q46 -43 81 -43q48 0 67.5 41.5t22.5 103.5t3 124v652q0 131 -6.5 180t-21.5 60q-21 15 -46 14.5t-68 -15.5l-11 36l278 110h42v-923q0 -239 -102.5 -351.5t-259.5 -112.5zM297 1126
q-44 0 -73 28.5t-29 73.5q0 43 31 73t71 30q38 0 70.5 -30t32.5 -73q0 -40 -28.5 -71t-74.5 -31z" />
            <glyph glyph-name="k" unicode="k" horiz-adv-x="1026" d="M13 0v38q48 0 79 5.5t48 23.5q26 27 26 134v834q0 105 -2 153.5t-8 65.5t-18 26q-11 10 -34 14t-70 -16l-21 35l277 111h47v-896l231 196q65 55 79.5 75t14.5 35q0 20 -16 34t-55 17v32h398v-32q-81 -3 -135 -26q-27 -10 -56.5 -30.5t-63.5 -51.5l-241 -215l241 -300
q59 -73 91.5 -111.5t51 -55.5t34 -26t39.5 -24q10 -5 32 -6t55 -1v-38h-446v38q56 0 62 23q4 7 4 16q0 23 -39 75l-281 354v-299q0 -64 4.5 -92t17.5 -44q18 -20 39 -26.5t85 -6.5v-38h-470z" />
            <glyph glyph-name="l" unicode="l" horiz-adv-x="570" d="M77 0v38q46 0 68 5t38 26q11 15 20 44.5t9 93.5v831q0 104 -3 152.5t-9.5 65t-16.5 24.5q-19 13 -40 13q-28 0 -66 -15l-18 35l276 111h43v-1217q0 -58 6.5 -88t19.5 -45q15 -19 39 -27.5t84 -8.5v-38h-450z" />
            <glyph glyph-name="m" unicode="m" horiz-adv-x="1596" d="M30 0v38q58 0 87.5 12.5t39.5 49t10 107.5v351q0 103 -3 164.5t-31 81t-103 -6.5l-17 36l279 110h43v-193q74 80 128.5 121.5t99.5 56.5t90 15q82 0 146 -46.5t86 -146.5q102 116 173.5 154.5t147.5 38.5q111 0 177 -77t66 -262v-397q0 -105 27.5 -137t111.5 -32v-38
h-453v38q72 0 102.5 16.5t37 54t6.5 98.5v397q0 123 -36.5 172t-114.5 49q-43 0 -104 -25.5t-132 -99.5v-493q0 -65 7.5 -102t38.5 -52t101 -15v-38h-465v38q79 0 110 18t36 55.5t5 95.5v397q0 122 -42.5 172.5t-114.5 50.5q-71 0 -132 -41.5t-103 -85.5v-493
q0 -77 12.5 -113t44.5 -46t91 -10v-38h-453z" />
            <glyph glyph-name="n" unicode="n" horiz-adv-x="1026" d="M26 0v38q86 0 112 32t26 137v342q0 108 -3 158t-9.5 67t-16.5 24q-35 29 -109 -1l-16 36l280 110h41v-192q164 192 308 192q134 0 187.5 -94t53.5 -249v-393q0 -102 25 -135.5t116 -33.5v-38h-459v38q69 0 100.5 13t40.5 49.5t9 106.5v374q0 126 -31.5 182.5t-112.5 56.5
q-57 0 -117 -31.5t-120 -98.5v-483q0 -71 10 -107.5t42 -49t98 -12.5v-38h-455z" />
            <glyph glyph-name="o" unicode="o" horiz-adv-x="1026" d="M503 -30q-129 0 -227 67t-152.5 176.5t-54.5 236.5q0 124 53.5 236.5t153 184.5t236.5 72q133 0 232 -62t154.5 -168t55.5 -238q0 -88 -28 -177.5t-84 -163.5t-141 -119t-198 -45zM544 43q101 0 162 79.5t61 275.5q0 136 -35 245t-99 173t-152 64q-52 0 -104.5 -31.5
t-87.5 -107.5t-35 -209q0 -131 36 -242.5t101.5 -179t152.5 -67.5z" />
            <glyph glyph-name="p" unicode="p" horiz-adv-x="1026" d="M-12 -440v38q75 3 108.5 16t42.5 51.5t9 114.5v867q0 77 -4.5 104t-28.5 46q-16 10 -41 12t-68 -17l-12 35l287 114h38v-214q68 119 140.5 167.5t153.5 48.5q101 0 178.5 -59.5t121.5 -161.5t44 -229q0 -144 -53.5 -262.5t-148 -189.5t-219.5 -71q-42 0 -98.5 12.5
t-118.5 70.5v-277q0 -72 8 -109.5t40.5 -51.5t106.5 -17v-38h-486zM532 32q119 0 192 98t73 268q0 149 -36.5 242t-96.5 136.5t-132 43.5q-60 0 -105.5 -43t-107.5 -111v-343q0 -104 8 -146q16 -52 66.5 -98.5t138.5 -46.5z" />
            <glyph glyph-name="q" unicode="q" horiz-adv-x="1026" d="M562 -440v38q59 0 91.5 10t45.5 45t13 110v397q-90 -108 -157 -149t-144 -41q-84 0 -163 53t-130 153.5t-51 242.5q0 153 62.5 271.5t169.5 185.5t241 67q57 0 106 -14t83 -49l60 30t55 33h36v-1180q0 -70 11.5 -105.5t44 -47.5t93.5 -12v-38h-467zM515 113
q64 0 107.5 27.5t89.5 79.5v433q0 98 -50.5 159.5t-153.5 61.5q-110 0 -190.5 -94.5t-80.5 -288.5q0 -126 38.5 -210t102 -126t137.5 -42z" />
            <glyph glyph-name="r" unicode="r" horiz-adv-x="703" d="M17 0v38q57 0 89 9.5t45 45.5t13 114v355q0 97 -2.5 143t-9 63.5t-17.5 29.5q-23 13 -49.5 14.5t-68.5 -15.5l-9 36l284 110h39v-206q114 206 237 206q56 0 93 -31t37 -79q0 -36 -26.5 -65t-64.5 -29q-33 0 -56.5 18t-43 36t-41.5 18q-26 0 -61.5 -42t-73.5 -115v-441
q0 -88 32 -131.5t130 -43.5v-38h-476z" />
            <glyph glyph-name="s" unicode="s" horiz-adv-x="798" d="M420 -30q-74 0 -137.5 28t-108.5 34q-12 0 -21 -16t-15 -29h-33v327h33q26 -139 105.5 -210.5t176.5 -71.5q74 0 115.5 40.5t41.5 94.5q2 46 -15 82t-67 74.5t-150 88.5q-96 51 -149.5 94.5t-74.5 89t-21 102.5q0 102 77.5 173.5t220.5 71.5q62 0 119 -18t81 -18
q14 0 23.5 6t21.5 30h33v-313h-33q-34 149 -99 202t-148 53q-92 0 -135 -33t-44 -86q-2 -57 27 -101t123 -91l148 -70q212 -95 212 -273q0 -70 -43 -129.5t-113 -95.5t-151 -36z" />
            <glyph glyph-name="t" unicode="t" horiz-adv-x="570" d="M343 -30q-43 0 -85 18t-69 70t-27 155v636h-147v31q41 15 86.5 52t84.5 83q18 24 33 45t33.5 57t46.5 102h30v-302h215v-68h-215v-612q0 -89 26.5 -119.5t64.5 -32.5t66 20.5t46 61.5h41q-31 -100 -101 -148.5t-129 -48.5z" />
            <glyph glyph-name="u" unicode="u" horiz-adv-x="1026" d="M393 -30q-80 0 -127.5 34.5t-71 89t-31 116.5t-7.5 117v410q0 89 -34.5 116t-121.5 27v37h323v-613q0 -53 10.5 -101t43.5 -78.5t98 -30.5q41 0 97 27t132 103v521q0 83 -34.5 108t-112.5 27v37h315v-674q0 -82 14.5 -110t47.5 -28q14 0 35.5 3.5t43.5 11.5l14 -35
l-277 -115h-46v196q-77 -81 -129.5 -123t-94.5 -57.5t-87 -15.5z" />
            <glyph glyph-name="v" unicode="v" horiz-adv-x="1026" d="M504 -30l-329 777q-18 51 -41 74.5t-49 42.5q-9 4 -25.5 7t-44.5 9v37h435v-37h-30q-19 0 -35 -3.5t-24 -15.5q-19 -20 -21 -52.5t21 -81.5l213 -507l215 527q17 42 22 67t-6 43q-4 7 -24 15t-74 8v37h302v-37q-55 -6 -75 -21q-33 -30 -62 -101l-326 -788h-42z" />
            <glyph glyph-name="w" unicode="w" horiz-adv-x="1481" d="M453 -30l-295 772q-31 75 -58 97q-23 29 -89 41v37h387v-37q-54 -5 -71 -19q-17 -17 -17.5 -44.5t17.5 -74.5l199 -527l196 430l-52 136q-24 61 -63 83q-21 11 -81 16v37h435v-37q-36 -3 -61.5 -8t-40.5 -15q-11 -13 -18.5 -41t8.5 -52l209 -527l190 505q22 54 22 86
q0 12 -16.5 32t-79.5 20v37h290v-37q-91 -14 -131 -116l-306 -794h-41l-229 588l-266 -588h-38z" />
            <glyph glyph-name="x" unicode="x" horiz-adv-x="1026" d="M36 0v38q39 2 75.5 36t112.5 135l195 257l-175 252q-48 72 -80.5 106t-62.5 44.5t-73 11.5v37h431v-37q-58 2 -70.5 -26t0.5 -48l131 -205l134 197q14 22 7.5 52t-68.5 30v37h311v-37q-42 -1 -74 -18t-65.5 -54.5t-82.5 -102.5l-124 -169l229 -327q26 -39 43 -61
t34 -39.5t43 -44.5q8 -10 36.5 -17.5t58.5 -8.5v-38h-434v38q51 0 70 16t19 37t-7 35l-191 280l-199 -266q-12 -17 -14 -40.5t18 -41.5t71 -20v-38h-299z" />
            <glyph glyph-name="y" unicode="y" horiz-adv-x="1026" d="M195 -444q-59 0 -97.5 33t-38.5 82q0 40 26.5 65t76.5 25q21 0 51 -8.5t55.5 -17.5t32.5 -9q32 0 67.5 32.5t71.5 119.5l64 160l-329 690q-12 25 -31 58.5t-50.5 61t-82.5 32.5v37h429v-37h-21q-38 0 -65 -17.5t-27 -50.5q0 -39 34 -108l222 -461l206 507q15 27 19 59
t-8 49q-6 6 -19 14t-66 8v37h298v-37q-43 -2 -70 -26t-66 -112l-373 -916q-52 -129 -137 -199.5t-172 -70.5z" />
            <glyph glyph-name="z" unicode="z" horiz-adv-x="911" d="M41 0v38l610 811h-303q-47 0 -78.5 -5t-49.5 -10q-29 -14 -50 -52t-29 -120h-39l7 255h768v-37l-615 -813h336q103 0 139 18q23 11 39.5 23.5t29 50t21.5 122.5h34l-11 -281h-809z" />
            <glyph glyph-name="braceleft" unicode="{" horiz-adv-x="981" d="M775 -443q-96 11 -181 64.5t-138.5 137.5t-53.5 184q0 80 23 158.5t23 144.5q0 64 -37 111t-90.5 75t-102.5 34v51q48 6 101.5 32.5t91 72.5t37.5 109q0 71 -23 154.5t-23 167.5q0 96 54.5 176.5t140 132.5t178.5 62v-35q-99 -25 -161.5 -90t-62.5 -175q0 -71 22.5 -138
t22.5 -140q0 -133 -78 -222t-197 -133q120 -42 197.5 -133t77.5 -226q0 -70 -22.5 -136t-22.5 -137q0 -111 62.5 -175.5t161.5 -89.5v-37z" />
            <glyph glyph-name="braceleft.arab" horiz-adv-x="981" d="M766 1423q9 2 10 -14.5t-5 -34t-18 -21.5q-116 -34 -158 -86t-38.5 -126.5t23.5 -176.5q24 -117 4.5 -200t-64 -137.5t-98 -85.5t-97.5 -45q-7 -2 -7.5 -5t6.5 -5q45 -9 100.5 -44.5t101 -95.5t64 -141.5t-10.5 -182.5q-38 -134 -18.5 -215t81 -123.5t146.5 -63.5
q5 -1 2.5 -18t-10.5 -32.5t-20 -12.5q-209 51 -302 197t-29 363q84 286 -216 351q-8 2 -4 24.5t16 25.5q92 26 148 63.5t70 110.5t-20 203q-35 133 -12.5 228t80.5 157t132 96.5t143 46.5z" />
            <glyph glyph-name="bar" unicode="|" horiz-adv-x="660" d="M281 -508v2078h100v-2078h-100z" />
            <glyph glyph-name="bar.arab" horiz-adv-x="660" d="M320 1556q4 18 36 23.5t61 0t25 -23.5q-12 -54 -20.5 -178t-15 -293.5t-11.5 -362t-10.5 -385t-12 -362t-15 -293.5t-20.5 -178q-4 -17 -36 -23t-61 0t-25 23q12 54 20.5 178t15 293.5t12 362t10.5 385t11.5 362t15 293.5t20.5 178z" />
            <glyph glyph-name="braceright" unicode="}" horiz-adv-x="981" d="M761 466q-48 -6 -101.5 -34t-90.5 -75t-37 -111q0 -66 22.5 -144.5t22.5 -158.5q0 -100 -53 -184t-138 -137.5t-181 -64.5v37q99 25 160.5 89.5t61.5 175.5q0 71 -21.5 137t-21.5 136q0 135 77.5 226t196.5 133q-118 44 -196 133t-78 222q0 73 21.5 140t21.5 138
q0 110 -61.5 175t-160.5 90v35q93 -10 178.5 -62t139.5 -132.5t54 -176.5q0 -84 -22.5 -167.5t-22.5 -154.5q0 -63 37.5 -109t91 -72.5t100.5 -32.5v-51z" />
            <glyph glyph-name="braceright.arab" horiz-adv-x="981" d="M214 -446q-9 -1 -10 15t5.5 34t17.5 21q116 34 158 86t39 127t-24 176q-24 117 -4.5 200t64 137.5t98 86t97.5 44.5q8 2 8 5.5t-7 4.5q-45 9 -100.5 44.5t-101 95.5t-64 142t10.5 182q39 135 19 215.5t-81 123t-147 63.5q-5 1 -2.5 18t11 32.5t19.5 12.5
q209 -51 302 -196.5t29 -363.5q-84 -286 216 -351q8 -1 4 -24t-16 -26q-92 -25 -148 -63t-70 -111t20 -203q35 -133 12.5 -228t-80.5 -157t-132 -96.5t-143 -46.5z" />
            <glyph glyph-name="asciitilde" unicode="~" horiz-adv-x="1115" d="M1076 630q-28 -53 -68.5 -103.5t-93.5 -82.5t-119 -32q-59 0 -121.5 22.5t-124.5 51.5t-121.5 51.5t-113.5 22.5q-55 0 -95 -30t-70 -74t-55 -85l-55 73q32 57 69.5 111.5t89.5 90t125 35.5q54 0 120 -23t133.5 -53.5t127.5 -53.5t101 -23q47 0 88.5 28t74.5 69t52 80z
" />
            <glyph glyph-name="Euro" unicode="&#x20ac;" horiz-adv-x="1026" d="M232 572q16 -250 116.5 -382.5t257.5 -132.5q66 0 120 23.5t106 84.5t111 174l22 -20q-75 -179 -175 -265t-240 -86q-142 0 -246.5 81.5t-165.5 219t-74 303.5h-123l20 83h100v3q0 17 0.5 34.5t1.5 34.5h-122l20 85h111q23 162 90.5 293t172 207.5t238.5 76.5
q76 0 127.5 -23.5t83.5 -47.5t47 -24q46 0 61 95h28l23 -462h-23q-46 208 -132.5 299.5t-202.5 91.5q-136 0 -230.5 -123.5t-117.5 -382.5h542l-21 -85h-527q-1 -17 -1 -34.5v-35.5v-2h512l-20 -83h-490z" />
            <glyph glyph-name="quotesinglbase" unicode="&#x201a;" horiz-adv-x="682" d="M499 0q0 -78 -29 -134.5t-72 -94t-86.5 -59.5t-72.5 -32v44q36 21 74.5 48.5t65.5 66t27 92.5q0 39 -15 50t-22 11q-13 0 -34 -8t-41 -8q-34 0 -67.5 28t-33.5 79q0 59 45.5 87.5t86.5 28.5q61 0 117.5 -53.5t56.5 -145.5z" />
            <glyph glyph-name="quotesinglbase.arab" horiz-adv-x="682" d="M371 214q102 -52 135.5 -115t11.5 -131.5t-86 -141t-156 -144.5q-7 -5 -17 9.5t-14 33t3 23.5q83 61 94.5 103t-31 82t-123.5 94q-22 15 -6.5 49.5t51 71t74.5 58t64 8.5z" />
            <glyph glyph-name="florin" unicode="&#x192;" horiz-adv-x="682" d="M891 1251q0 -26 -23 -54.5t-58 -28.5q-39 -1 -63.5 25.5t-48 63t-55 64t-83.5 27.5q-64 0 -93 -38t-37 -118.5t-8 -209.5v-66h236v-72h-236v-840q0 -124 -28.5 -206t-73 -130t-93 -72t-88.5 -31t-60 -7q-88 0 -148.5 52t-60.5 120q0 26 21.5 54t55.5 28q50 0 69 -27
t29 -62.5t28.5 -62.5t67.5 -27q72 0 92.5 86.5t20.5 280.5v844h-179v72h179v62q0 124 33 205.5t84 130t105.5 72t99 30.5t63.5 7q58 0 116 -24t97 -63t39 -85z" />
            <glyph glyph-name="quotedblbase" unicode="&#x201e;" horiz-adv-x="910" d="M852 -2q0 -79 -29 -135t-72.5 -93.5t-87 -59.5t-72.5 -31v43q36 21 74.5 48.5t65.5 66t27 92.5q0 38 -14.5 49.5t-21.5 11.5q-13 0 -34 -8t-41 -8q-34 0 -67.5 28t-33.5 78q0 60 45.5 88.5t86.5 28.5q40 0 80 -24.5t67 -69t27 -105.5zM373 0q0 -78 -29 -134.5t-72 -94
t-86.5 -59.5t-72.5 -32v44q35 21 74 48.5t66.5 66t27.5 92.5q0 39 -15.5 50t-22.5 11q-14 0 -35 -8t-41 -8q-34 0 -67 28t-33 79q0 59 45.5 87.5t86.5 28.5q62 0 118 -53.5t56 -145.5z" />
            <glyph glyph-name="quotedblbase.arab" horiz-adv-x="910" d="M248 214q102 -52 135.5 -115t11.5 -131.5t-86 -141t-156 -144.5q-7 -5 -17 9.5t-14 33t3 23.5q83 61 94.5 103t-31 82t-123.5 94q-22 15 -6.5 49.5t51 71t74.5 58t64 8.5zM701 214q102 -52 135.5 -115t11.5 -131.5t-86 -141t-156 -144.5q-7 -5 -17 9.5t-14 33t3 23.5
q83 61 94.5 103t-31 82t-123.5 94q-22 15 -6.5 49.5t51 71t74.5 58t64 8.5z" />
            <glyph glyph-name="ellipsis" unicode="&#x2026;" horiz-adv-x="2055" d="M1822 85q0 -46 -30.5 -80.5t-79.5 -34.5q-52 0 -81.5 34.5t-29.5 80.5q0 47 32 78.5t79 31.5q44 0 77 -31t33 -79zM1136 85q0 -46 -31 -80.5t-79 -34.5q-52 0 -82 34.5t-30 80.5q0 47 31.5 78.5t80.5 31.5q44 0 77 -31t33 -79zM453 85q0 -46 -30.5 -80.5t-79.5 -34.5
q-52 0 -81 34.5t-29 80.5q0 47 32 78.5t78 31.5q44 0 77 -31t33 -79z" />
            <glyph glyph-name="ellipsis.arab" horiz-adv-x="2055" d="M1846 91q0 -10 -16.5 -32.5t-39.5 -47t-44 -42t-30 -17.5q-11 0 -33.5 17t-46.5 41t-41 47t-17 34q0 9 16.5 31.5t39.5 47t44 42t30 17.5q8 -1 19 -20t45 -54q35 -34 54.5 -45t19.5 -19zM1158 91q0 -10 -16.5 -32.5t-39.5 -47t-44 -42t-30 -17.5q-11 0 -33.5 17t-46.5 41
t-41 47t-17 34q0 9 16.5 31.5t39.5 47t44 42t30 17.5q8 -1 19 -20t45 -54q35 -34 54.5 -45t19.5 -19zM477 91q0 -10 -16.5 -32.5t-39.5 -47t-44 -42t-30 -17.5q-11 0 -33.5 17t-46.5 41t-41 47t-17 34q0 9 16.5 31.5t39.5 47t44 42t30 17.5q8 -1 19 -20t45 -54
q35 -34 54.5 -45t19.5 -19z" />
            <glyph glyph-name="uni2025" unicode="&#x2025;" horiz-adv-x="1370" d="M1136 85q0 -46 -31 -80.5t-79 -34.5q-52 0 -82 34.5t-30 80.5q0 47 31.5 78.5t80.5 31.5q44 0 77 -31t33 -79zM453 85q0 -46 -30.5 -80.5t-79.5 -34.5q-52 0 -81 34.5t-29 80.5q0 47 32 78.5t78 31.5q44 0 77 -31t33 -79z" />
            <glyph glyph-name="uni2025.arab" horiz-adv-x="1367" d="M477.139 90.7012q0 -9.11719 -16.5049 -31.5586t-39.6816 -47.3369q-23.1777 -24.8955 -44.2471 -42.4287q-21.0703 -17.5322 -29.498 -17.5322q-11.2373 0 -33.7119 17.1816q-22.4746 17.1826 -46.7051 41.377t-41.0869 46.6357q-16.8555 22.4414 -16.8555 33.6621
q0 9.81836 16.5049 31.9092t39.6816 46.6357t43.8955 42.0781q20.7188 17.5322 29.8496 17.5322q7.72559 -0.701172 18.9629 -19.9873q11.2373 -19.2852 45.6514 -54.3496q34.4141 -33.6621 54.0791 -44.8828q19.666 -11.2207 19.666 -18.9355zM1158.14 90.7012
q0 -9.11719 -16.5049 -31.5586t-39.6816 -47.3369q-23.1777 -24.8955 -44.2471 -42.4287q-21.0703 -17.5322 -29.498 -17.5322q-11.2373 0 -33.7119 17.1816q-22.4746 17.1826 -46.7051 41.377t-41.0869 46.6357q-16.8555 22.4414 -16.8555 33.6621
q0 9.81836 16.5049 31.9092t39.6816 46.6357t43.8955 42.0781q20.7188 17.5322 29.8496 17.5322q7.72559 -0.701172 18.9629 -19.9873q11.2373 -19.2852 45.6514 -54.3496q34.4141 -33.6621 54.0791 -44.8828q19.666 -11.2207 19.666 -18.9355z" />
            <glyph glyph-name="dagger" unicode="&#x2020;" horiz-adv-x="1026" d="M926 912q0 -55 -38.5 -74t-67.5 -19q-27 0 -68.5 10t-94.5 37q-27 13 -69.5 21t-61.5 9q1 -46 8 -81.5t17 -61.5q25 -52 75 -93q-25 -93 -42 -183.5t-26 -180.5q-9 -91 -17 -270t-15 -446h-37q-3 216 -11 391.5t-23 309.5q-9 98 -26.5 193.5t-42.5 185.5q26 22 44.5 45
t28.5 48q11 23 17.5 59.5t12.5 83.5q-62 -3 -134 -35q-103 -42 -151 -42q-49 0 -76.5 26.5t-27.5 66.5q0 46 32.5 73.5t72.5 27.5q35 0 69 -15.5t81 -36.5q63 -26 134 -27q0 20 -8 62t-30 85q-30 64 -41.5 112t-11.5 82q0 64 33.5 96.5t76.5 32.5q52 0 81 -42.5t29 -86.5
q0 -48 -18 -96t-35 -90q-16 -43 -27 -81.5t-12 -73.5q35 1 67.5 8.5t63.5 18.5q50 20 87.5 35.5t74.5 15.5q41 0 74 -26.5t33 -73.5z" />
            <glyph glyph-name="daggerdbl" unicode="&#x2021;" horiz-adv-x="1026" d="M885 -13q0 -49 -27.5 -71.5t-65.5 -22.5q-19 0 -49.5 10.5t-76.5 27.5q-23 11 -54.5 20.5t-81.5 10.5q0 -32 13 -74t23 -62q49 -110 49 -163q0 -49 -31 -78t-72 -29q-32 0 -66 28.5t-34 80.5q0 31 15.5 76t31.5 90q23 62 32 131q-54 0 -87.5 -11.5t-58.5 -24.5
q-37 -15 -65 -24t-47 -9q-32 0 -62 19.5t-30 70.5q0 50 32.5 70.5t65.5 20.5q37 0 112 -33q23 -10 52 -21.5t88 -11.5q-12 59 -28 92q-17 29 -67 69q14 22 37 63t41.5 106.5t18.5 158.5q0 96 -18 158.5t-41 99t-38 53.5q22 17 39 34t24 33q11 16 18 42t14 62
q-21 -2 -48.5 -6.5t-97.5 -36.5q-33 -14 -63 -19.5t-55 -5.5q-33 0 -60 20t-27 66q0 41 24.5 64t59.5 23q47 0 134 -34q60 -26 87 -29.5t46 -5.5q0 21 -10 63.5t-28 87.5q-10 26 -26 69t-16 78q0 40 26 75.5t75 35.5q55 0 76 -37t21 -77q0 -41 -14.5 -73.5t-28.5 -70.5
q-28 -65 -36 -151q23 2 59 8.5t76 26.5q25 11 58.5 22.5t73.5 11.5q35 0 61.5 -20.5t26.5 -67.5q0 -46 -30 -66t-65 -20q-28 0 -64.5 10.5t-59.5 20.5q-64 30 -88.5 32t-47.5 6q7 -63 28 -99q15 -32 68 -72q-17 -25 -40 -64t-39.5 -101.5t-16.5 -159.5q0 -133 34 -204.5
t62 -109.5q-47 -36 -68 -72q-9 -16 -16 -37.5t-12 -53.5q35 2 68.5 11t59.5 22q43 17 76 26t58 9q35 0 64 -23t29 -64z" />
            <glyph glyph-name="circumflex" unicode="&#x2c6;" horiz-adv-x="643" d="M573 1043l-252 214l-250 -214h-71l258 344h128l257 -344h-70z" />
            <glyph glyph-name="perthousand" unicode="&#x2030;" horiz-adv-x="2165" d="M2130 508q0 -121 -37.5 -219.5t-98 -170t-131.5 -110t-137 -38.5q-104 0 -160.5 38.5t-78 102.5t-21.5 141q0 84 36.5 169t99 156t142.5 114.5t167 43.5q70 0 118.5 -34t74.5 -86t26 -107zM1393 508q0 -121 -37.5 -219.5t-98 -170t-131.5 -110t-138 -38.5
q-104 0 -160.5 38.5t-78 102.5t-21.5 141q0 84 36.5 169t99 156t143 114.5t167.5 43.5q70 0 118.5 -34t74.5 -86t26 -107zM316 -32h-98l794 1331q-95 -85 -197 -92t-194 21q7 -34 7 -77q0 -67 -22.5 -154t-67.5 -168t-112 -134t-156 -53q-88 0 -139 43t-73 110.5t-22 139.5
q0 101 36 184.5t95.5 145t129.5 95t138 33.5q35 0 69.5 -21t75 -48t89.5 -48t112 -21q71 0 113 19t74.5 51t72.5 70h123zM2077 497q0 60 -36.5 115.5t-106.5 55.5q-64 0 -121 -49t-100.5 -126t-68 -162.5t-24.5 -159.5q0 -58 34.5 -97.5t95.5 -39.5q72 0 132 48t103.5 121.5
t67.5 152.5t24 141zM1340 497q0 60 -37 115.5t-106 55.5q-64 0 -121 -50.5t-100.5 -129t-68 -163.5t-24.5 -154q0 -58 34 -97.5t95 -39.5q72 0 132 48t104 121.5t68 152.5t24 141zM576 1150q0 25 -1.5 50.5t-12.5 44.5q-73 39 -124 90q-58 -12 -104 -64.5t-77.5 -123.5
t-48 -143t-16.5 -123q0 -80 20.5 -128.5t81.5 -48.5q54 0 104.5 39t90.5 104.5t63.5 144.5t23.5 158z" />
            <glyph glyph-name="Scaron" unicode="&#x160;" horiz-adv-x="1140" d="M1032 346q0 -103 -55.5 -189t-152 -137.5t-220.5 -51.5q-93 0 -163.5 19.5t-120.5 39t-82 19.5q-24 0 -39 -17.5t-22 -60.5h-36v467h36q18 -141 77.5 -226t145 -123.5t181.5 -38.5q125 0 198 66.5t73 155.5q0 68 -32 115t-103.5 94.5t-190.5 114.5q-162 91 -247.5 157.5
t-117 132t-31.5 149.5q0 96 48.5 177t137.5 130.5t210 49.5q78 0 137.5 -19t103 -38.5t71.5 -19.5q23 0 38.5 16.5t27.5 60.5h37v-470h-37q-20 190 -127 290.5t-250 100.5q-66 0 -120 -29t-86 -76.5t-32 -103.5q0 -54 28 -98t101.5 -93.5t207.5 -122.5q96 -52 160 -92
t99 -67q69 -51 108 -124.5t39 -157.5zM643 1475h-128l-259 344h72l250 -212l251 212h71z" />
            <glyph glyph-name="guilsinglleft" unicode="&#x2039;" horiz-adv-x="682" d="M506 -8l-388 474l388 469h54l-244 -469l244 -474h-54z" />
            <glyph glyph-name="guilsinglleft.arab" horiz-adv-x="682" d="M121 465q0 34 19.5 88t49 115t62 118.5t58.5 98t38 52.5q11 11 50 17t83.5 6t74.5 -6t22 -17q-7 -10 -31 -52t-55.5 -100t-61.5 -120.5t-49.5 -116t-19.5 -83.5t19.5 -83.5t49.5 -115.5t61.5 -120.5t55.5 -100t31 -52.5q8 -12 -13.5 -16t-50 0t-42.5 16q-13 11 -52 51.5
t-89.5 97.5t-98.5 119t-79.5 116t-31.5 88z" />
            <glyph glyph-name="OE" unicode="&#x152;" horiz-adv-x="1824" d="M1656 0h-484h-170q-6 0 -46.5 -2.5t-94.5 -5t-102 -5t-70 -2.5q-182 0 -320.5 92.5t-216 249t-77.5 349.5t75 350t216.5 250.5t343.5 93.5q13 0 60.5 -2.5t134.5 -4.5q68 -4 135.5 -5t131.5 -1h472l12 -296h-30q-13 58 -20 95.5t-22 54.5q-12 13 -26 29.5t-55.5 29.5
t-139.5 13h-257v-533h182q119 0 162 47q26 23 36.5 59t10.5 87h41v-472h-41q-6 121 -50 161q-43 41 -159 41h-182v-449q0 -67 8.5 -99t34.5 -41t76 -9h106q89 0 151 12t114 61q36 35 69 83t61 111h39zM912 1043q0 131 -18 173q-41 89 -181 89q-202 0 -305 -173t-103 -464
q0 -113 21.5 -222t69 -197.5t125 -141t189.5 -52.5q150 0 186 97q16 45 16 190v701z" />
            <glyph glyph-name="Zcaron" unicode="&#x17d;" horiz-adv-x="1251" d="M1195 359l-62 -359h-1105v38l868 1240h-433q-78 0 -122.5 -11.5t-74.5 -38.5q-25 -22 -44.5 -67.5t-35.5 -142.5h-38l27 339h1005l-891 -1274h555q131 0 194 55q67 52 126 228zM683 1473h-128l-259 344h72l250 -212l251 212h71z" />
            <glyph glyph-name="caron" unicode="&#x2c7;" horiz-adv-x="643" d="M386 1043h-128l-258 344h71l250 -212l252 212h70z" />
            <glyph glyph-name="ring" unicode="&#x2da;" horiz-adv-x="690" d="M613 1235q0 -86 -59 -139t-131 -53q-47 0 -91.5 24t-73 67.5t-28.5 100.5q0 86 58.5 138.5t134.5 52.5q72 0 131 -51.5t59 -139.5zM545 1235q0 55 -38 88.5t-84 33.5q-49 0 -86.5 -33.5t-37.5 -88.5q0 -58 38.5 -90.5t85.5 -32.5q51 0 86.5 36.5t35.5 86.5z" />
            <glyph glyph-name="quoteleft" unicode="&#x2018;" horiz-adv-x="682" d="M491 986q0 -59 -45.5 -88t-86.5 -29q-61 0 -117 54t-56 145q0 79 29 135.5t72 94t86.5 59.5t72.5 32v-45q-36 -20 -75 -47.5t-66 -66t-27 -92.5q0 -38 15 -50t23 -12q13 0 34.5 8t40.5 8q34 0 67 -28t33 -78z" />
            <glyph glyph-name="quoteleft.arab" horiz-adv-x="682" d="M321 1613q-102 53 -135.5 115.5t-11.5 131t86 141t156 144.5q8 6 17.5 -9t14 -33t-3.5 -24q-82 -60 -94 -102.5t30.5 -82.5t123.5 -94q22 -15 6.5 -49.5t-51 -71t-74.5 -58t-64 -8.5z" />
            <glyph glyph-name="quoteright" unicode="&#x2019;" horiz-adv-x="682" d="M497 1189q0 -78 -29 -134t-72 -94t-86.5 -60t-72.5 -32v43q35 21 74 49t66 66.5t27 92.5q0 39 -15 50t-22 11q-14 0 -34.5 -7.5t-40.5 -7.5q-34 0 -67 27.5t-33 78.5q0 59 45.5 88t85.5 29q61 0 117.5 -54t56.5 -146z" />
            <glyph glyph-name="quoteright.arab" horiz-adv-x="682" d="M360 2032q102 -52 135.5 -115t11.5 -131.5t-86 -141t-156 -144.5q-7 -5 -17 9.5t-14 33t3 23.5q83 61 94.5 103t-31 82t-123.5 94q-22 15 -6.5 49.5t51 71t74.5 58t64 8.5z" />
            <glyph glyph-name="quotedblleft" unicode="&#x201c;" horiz-adv-x="1043" d="M852 988q0 -58 -45.5 -87t-86.5 -29q-61 0 -117.5 54t-56.5 145q0 78 29 134.5t72 94t86.5 59.5t72.5 31v-43q-35 -21 -74 -48.5t-66 -66t-27 -92.5q0 -38 15 -49.5t22 -11.5q14 0 35.5 8t39.5 8q35 0 68 -28t33 -79zM373 989q0 -58 -45.5 -86.5t-86.5 -28.5
q-61 0 -117.5 53.5t-56.5 145.5q0 78 29 134t72 94t86.5 60t72.5 32v-44q-35 -20 -74 -48t-66 -66.5t-27 -92.5q0 -39 15.5 -50t21.5 -11q14 0 35 8t41 8q35 0 67.5 -28t32.5 -80z" />
            <glyph glyph-name="quotedblleft.arab" horiz-adv-x="1131" d="M321 1614q-102 53 -135.5 115.5t-11.5 131t86 141t156 144.5q8 6 17.5 -9t14 -33t-3.5 -24q-82 -60 -94 -102.5t30.5 -82.5t123.5 -94q22 -15 6.5 -49.5t-51 -71t-74.5 -58t-64 -8.5zM771 1614q-102 53 -135.5 115.5t-11.5 131t86 141t156 144.5q8 6 17 -9t14 -33t-3 -24
q-82 -60 -94 -102.5t30.5 -82.5t123.5 -94q22 -15 6.5 -49.5t-51 -71t-74.5 -58t-64 -8.5z" />
            <glyph glyph-name="quotedblright" unicode="&#x201d;" horiz-adv-x="1043" d="M976 1188q0 -78 -29 -134.5t-72.5 -94t-87 -60t-72.5 -32.5v44q36 21 75 48.5t66 66.5t27 92q0 38 -14.5 50t-22.5 12q-13 0 -34 -8t-40 -8q-34 0 -68 28t-34 78q0 59 45.5 88t88.5 29q40 0 79.5 -24.5t66 -69t26.5 -105.5zM497 1189q0 -78 -29 -134t-72 -94t-86.5 -60
t-72.5 -32v43q35 21 74 49t66 66.5t27 92.5q0 39 -15 50t-22 11q-14 0 -34.5 -7.5t-40.5 -7.5q-34 0 -67 27.5t-33 78.5q0 59 45.5 88t85.5 29q61 0 117.5 -54t56.5 -146z" />
            <glyph glyph-name="quotedblright.arab" horiz-adv-x="1134" d="M360 2032q102 -52 135.5 -115t11.5 -131.5t-86 -141t-156 -144.5q-7 -5 -17 9.5t-14 33t3 23.5q83 61 94.5 103t-31 82t-123.5 94q-22 15 -6.5 49.5t51 71t74.5 58t64 8.5zM813 2032q102 -52 135.5 -115t11.5 -131.5t-86 -141t-156 -144.5q-7 -5 -17 9.5t-14 33t3 23.5
q83 61 94.5 103t-31 82t-123.5 94q-22 15 -6.5 49.5t51 71t74.5 58t64 8.5z" />
            <glyph glyph-name="bullet" unicode="&#x2022;" horiz-adv-x="591" d="M523 670q0 -94 -66 -160t-161 -66t-161 66t-66 160q0 95 66 161t161 66t161 -66t66 -161z" />
            <glyph glyph-name="bullet.arab" horiz-adv-x="591" d="M69 673q0 32 23 71t58.5 74.5t74.5 58.5t71 23t71 -23t74.5 -58.5t58.5 -74.5t23 -71t-23 -71t-58.5 -74.5t-74.5 -58.5t-71 -23t-71 23t-74.5 58.5t-58.5 74.5t-23 71z" />
            <glyph glyph-name="endash" unicode="&#x2013;" horiz-adv-x="986" d="M-43 451v77h1058v-77h-1058z" />
            <glyph glyph-name="endash.arab" horiz-adv-x="1025" d="M1014 527q18 -3 25.5 -24t4 -40t-21.5 -16q-76 13 -177 13.5t-214.5 -5.5t-227 -11.5t-215 -5.5t-177.5 13q-17 4 -25 24.5t-4 39.5t21 16q76 -13 177.5 -13.5t215 5l227 11t214.5 5.5t177 -12z" />
            <glyph glyph-name="emdash" unicode="&#x2014;" horiz-adv-x="1972" d="M0 451v77h1972v-77h-1972z" />
            <glyph glyph-name="emdash.arab" horiz-adv-x="1945" d="M1934 527q18 -3 25.5 -24t4 -40t-21.5 -16q-54 9 -172 11.5t-276.5 0t-338 -6.5t-358.5 -8.5t-337.5 -6t-276.5 1t-172 12.5q-17 3 -25 24t-4 40t21 16q54 -9 172 -11.5t277 0t338 6.5t358.5 8.5t338 6t276 -1t171.5 -12.5z" />
            <glyph glyph-name="tilde" unicode="&#x2dc;" horiz-adv-x="682" d="M628 1344h54q-5 -54 -35 -104t-77 -82t-104 -32t-92.5 14t-63 33t-59.5 33t-82 14q-40 0 -76 -30t-40 -64h-53q23 89 76.5 149t150.5 60q52 0 90.5 -23t78 -46t92.5 -23q50 0 89 26.5t51 74.5z" />
            <glyph glyph-name="trademark" unicode="&#x2122;" horiz-adv-x="2010" d="M1577 550v35q73 0 96 24t23 106v496l-307 -661h-32l-311 648v-480q0 -54 7.5 -83t35.5 -39.5t89 -10.5v-35h-306v35q82 0 97 30t15 103v465q0 53 -5 82.5t-28.5 42t-78.5 12.5v37h286l274 -573l264 573h280v-37q-56 4 -80 -13t-28.5 -48.5t-4.5 -72.5v-468
q0 -83 21.5 -108t91.5 -25v-35h-399zM767 1158q-7 65 -47 102t-146 37h-75v-579q0 -77 16 -103.5t90 -29.5v-35h-376v35q43 8 64 14.5t28.5 31.5t7.5 87v579h-75q-89 0 -130 -28.5t-60 -110.5h-32l13 199h742l17 -199h-37z" />
            <glyph glyph-name="scaron" unicode="&#x161;" horiz-adv-x="798" d="M419 -30q-74 0 -137.5 28t-108.5 34q-12 0 -21 -16t-15 -29h-33v327h33q26 -139 105.5 -210.5t176.5 -71.5q74 0 115.5 40.5t41.5 94.5q2 46 -15 82t-67 74.5t-150 88.5q-96 51 -149.5 94.5t-74.5 89t-21 102.5q0 102 77.5 173.5t220.5 71.5q62 0 119 -18t81 -18
q14 0 23.5 6t21.5 30h33v-313h-33q-34 149 -99 202t-148 53q-92 0 -135 -33t-44 -86q-2 -57 27 -101t123 -91l148 -70q212 -95 212 -273q0 -70 -43 -129.5t-113 -95.5t-151 -36zM483 1043h-128l-259 344h72l250 -212l251 212h71z" />
            <glyph glyph-name="guilsinglright" unicode="&#x203a;" horiz-adv-x="682" d="M175 -8h-53l245 469l-245 474h53l390 -474z" />
            <glyph glyph-name="guilsinglright.arab" horiz-adv-x="682" d="M570 465q0 -34 -31.5 -88t-79.5 -116t-98.5 -119t-89.5 -97.5t-52 -51.5q-14 -12 -42.5 -16t-50 0t-13.5 16q7 11 31 52.5t55.5 100t61.5 120.5t49.5 115.5t19.5 83.5t-19.5 83.5t-49.5 116t-61.5 120.5t-55.5 100t-31 52q-7 11 22.5 17t74 6t83.5 -6t50 -17
q12 -12 38 -52.5t58.5 -98t62 -118.5t49 -115t19.5 -88z" />
            <glyph glyph-name="oe" unicode="&#x153;" horiz-adv-x="1481" d="M1413 339q-36 -187 -123.5 -277t-216.5 -92q-95 -1 -165 47.5t-103 117.5q-58 -77 -136 -120t-186 -45q-116 -1 -210.5 57.5t-150 165.5t-55.5 251q0 153 56 265t152.5 173t215.5 61q104 0 183.5 -43t130.5 -116q100 160 282 160q155 0 243 -100t83 -270h-547
q-10 -202 67.5 -319t206.5 -117q77 0 137 48t104 169zM1217 639q0 54 -16.5 109t-55.5 92t-107 37q-58 0 -114 -57t-58 -181h351zM715 378q0 149 -28 264t-86 180.5t-148 65.5q-81 0 -140 -77t-59 -271q0 -140 31 -252.5t88.5 -178.5t137.5 -66q87 0 145.5 74t58.5 261z" />
            <glyph glyph-name="zcaron" unicode="&#x17e;" horiz-adv-x="911" d="M41 0v38l610 811h-303q-47 0 -78.5 -5t-49.5 -10q-29 -14 -50 -52t-29 -120h-39l7 255h768v-37l-615 -813h336q103 0 139 18q23 11 39.5 23.5t29 50t21.5 122.5h34l-11 -281h-809zM526 1043h-128l-259 344h72l250 -212l251 212h71z" />
            <glyph glyph-name="Ydieresis" unicode="&#x178;" horiz-adv-x="1481" d="M1450 1320h-24q-25 0 -74.5 -20t-93.5 -67q-39 -43 -100 -143l-330 -514v-339q0 -128 30 -158q35 -41 121 -41h42v-38h-575v38h47q84 0 122 52q9 16 14.5 51.5t5.5 95.5v321l-371 568q-33 48 -56.5 82.5t-51.5 57.5q-26 20 -62.5 37t-76.5 17v37h583v-37h-30
q-18 0 -48 -6.5t-54 -25t-24 -55.5q0 -34 60 -132l283 -436l269 417q44 70 57.5 112.5t-15.5 79.5q-11 20 -37 33t-82 13v37h471v-37zM1038 1666q0 -40 -30.5 -71t-72.5 -31q-41 0 -72 31t-31 71q0 39 32.5 71t70.5 32q42 0 72.5 -31t30.5 -72zM628 1666q0 -40 -30.5 -71
t-73.5 -31q-40 0 -70 31t-30 71q0 39 31.5 71t68.5 32q43 0 73.5 -31t30.5 -72z" />
            <glyph glyph-name="exclamdown" unicode="&#xa1;" horiz-adv-x="682" d="M453 861q0 -53 -36.5 -80.5t-74.5 -27.5q-39 0 -75 29.5t-36 78.5t33 82t78 33q33 0 72 -26.5t39 -88.5zM455 -301q0 -67 -33.5 -104.5t-82.5 -37.5q-37 0 -74.5 34.5t-37.5 116.5q0 12 0.5 29.5t3.5 38.5l90 812h40l87 -812q4 -37 5.5 -51.5t1.5 -25.5z" />
            <glyph glyph-name="cent" unicode="&#xa2;" horiz-adv-x="1026" d="M872 363l27 -15q-16 -111 -73.5 -196t-138.5 -133.5t-170 -48.5q-72 0 -141 30q-14 -46 -30 -90t-37 -100l-68 -188h-72l151 410q-86 60 -140 168t-54 258q0 145 59.5 254t159.5 170t220 61q21 0 41.5 -1.5t40.5 -6.5l142 392h70l-147 -410q41 -18 75 -45q88 -69 88 -148
q0 -35 -23 -60t-71 -25q-21 0 -44.5 6.5t-42 31.5t-24.5 80q0 17 -5 32l-222 -614q31 -20 66.5 -32.5t78.5 -12.5q83 0 153.5 45.5t130.5 187.5zM290 544q0 -92 24.5 -176t74.5 -141q-1 0 21.5 58.5t52.5 140.5q20 57 42 115.5t42 114.5q20 57 35.5 102t35.5 99
q-18 9 -38.5 14.5t-49.5 5.5q-113 0 -176.5 -95t-63.5 -238z" />
            <glyph glyph-name="sterling" unicode="&#xa3;" horiz-adv-x="1026" d="M979 304q-9 -77 -44 -153t-95.5 -125.5t-149.5 -49.5q-62 0 -109 19t-96 55t-119 88q-13 -26 -38.5 -64.5t-62.5 -68t-88 -29.5q-64 0 -90 41.5t-26 87.5q0 64 29.5 97.5t68 45.5t65.5 12q32 0 52.5 -2.5t33.5 -5.5q8 77 0 182t-18 226h-194v96h194q-4 76 -9 124.5
t-5 73.5q0 149 58 244.5t144 142t171 46.5q77 0 134 -30.5t88 -77.5t31 -98q0 -29 -24 -56t-53 -27q-32 0 -56 28t-24 90q0 44 -28 79.5t-93 35.5q-79 0 -130.5 -60.5t-51.5 -220.5q0 -45 5 -110.5t10.5 -119t6.5 -64.5h258v-96h-258q0 -23 0.5 -85.5t-11.5 -150.5t-51 -189
q98 -32 176.5 -57.5t148.5 -25.5q80 0 123 28.5t62.5 66.5t26.5 67zM299 171q-10 8 -32 18t-54 10q-48 0 -71.5 -24.5t-23.5 -61.5q0 -42 20 -59.5t48 -17.5q40 0 68.5 37t44.5 98z" />
            <glyph glyph-name="currency" unicode="&#xa4;" horiz-adv-x="1203" d="M1073 316l-204 204q-53 -46 -119.5 -70.5t-134.5 -24.5q-73 0 -140.5 23t-121.5 72l-204 -204l-70 70l203 203q-43 53 -65 118.5t-22 134.5t21.5 139t69.5 122l-207 207l70 71l209 -207q52 42 120 64t137 22q144 0 249 -88l209 209l70 -71l-205 -206q42 -52 65.5 -121.5
t23.5 -138.5q0 -70 -21 -136t-65 -119l202 -203zM914 844q0 83 -40 152t-108 110.5t-151 41.5q-85 0 -155 -41t-111.5 -110t-41.5 -155q0 -84 42 -153t112 -110t154 -41t151.5 42t107.5 111.5t40 152.5z" />
            <glyph glyph-name="yen" unicode="&#xa5;" horiz-adv-x="1026" d="M598 353v-109q0 -56 3 -98t22 -66q18 -20 50 -29.5t55 -9.5h41v-41h-517v41h34q34 0 66 8.5t54 33.5q16 18 17.5 63.5t1.5 97.5v109h-405v72h405v145l-13 35h-392v73h358l-212 497q-19 44 -36.5 72.5t-37.5 41.5q-17 16 -39.5 23t-50.5 8v37h444v-37q-65 -3 -100 -24
q-34 -22 -23 -48t20 -50l214 -520l212 505q10 26 19 61.5t-19 54.5q-18 13 -39.5 16.5t-51.5 4.5v37h348v-37q-60 0 -90 -24q-19 -16 -40.5 -49t-43.5 -81l-217 -488h370v-73h-400l-7 -17v-163h407v-72h-407z" />
            <glyph glyph-name="brokenbar" unicode="&#xa6;" horiz-adv-x="681" d="M290 662v788h100v-788h-100zM290 -391v789h100v-789h-100z" />
            <glyph glyph-name="section" unicode="&#xa7;" horiz-adv-x="1026" d="M869 481q0 -92 -38.5 -159.5t-90 -112t-90.5 -69.5q34 -37 78 -98.5t44 -156.5q0 -85 -39.5 -149.5t-105 -100t-142.5 -35.5q-56 0 -113.5 25.5t-96 75.5t-38.5 124q0 44 25 66t52 22q45 0 61 -33.5t16 -53.5t-9 -54.5t-9 -55.5q0 -38 39.5 -57.5t80.5 -19.5q46 0 86 25
t64.5 63t24.5 76q0 64 -33 116t-80.5 93.5t-91.5 72.5q-142 104 -224.5 202.5t-82.5 216.5q0 92 39.5 159.5t91.5 112.5t89 68q-20 25 -49.5 62.5t-52 87t-22.5 110.5q0 98 48.5 160.5t115.5 92.5t120 30q65 0 123 -26.5t94.5 -76t36.5 -118.5q0 -41 -22.5 -66.5
t-55.5 -25.5q-35 0 -57.5 25t-22.5 52q0 16 7.5 45t7.5 52q0 41 -29 68t-82 27q-82 0 -127.5 -53.5t-45.5 -121.5q0 -86 53.5 -142t126.5 -112q66 -50 142 -113t130 -142t54 -178zM724 526q-27 42 -73.5 86t-96.5 84.5t-90 71t-53 44.5q-50 -29 -96 -79.5t-58 -119
t39 -152.5q39 -66 100.5 -117t122.5 -93.5t96 -83.5q52 33 97.5 84t56 120t-44.5 155z" />
            <glyph glyph-name="dieresis" unicode="&#xa8;" horiz-adv-x="613" d="M613 1228q0 -40 -30.5 -71t-71.5 -31q-42 0 -72.5 31t-30.5 71q0 39 32 71t71 32q41 0 71.5 -31t30.5 -72zM204 1228q0 -40 -31 -71t-73 -31q-40 0 -70 31t-30 71q0 39 31 71t69 32q42 0 73 -31t31 -72z" />
            <glyph glyph-name="copyright" unicode="&#xa9;" horiz-adv-x="1558" d="M1490 678q0 -150 -55 -279t-153 -226t-226.5 -151t-275.5 -54t-275.5 53.5t-226.5 149.5t-153.5 225.5t-55.5 281.5q0 166 60.5 297.5t162.5 224t229 141t259 48.5q150 0 279 -54.5t226 -151.5t151 -226.5t54 -278.5zM1427 678q0 137 -50.5 255t-139.5 206.5t-206 138
t-251 49.5q-120 0 -235 -45t-208.5 -129.5t-149 -204.5t-55.5 -270q0 -140 51.5 -258t141 -205t206.5 -135t249 -48q129 0 245.5 47.5t207 134t142.5 205t52 259.5zM1166 429q-69 -99 -163.5 -150.5t-220.5 -51.5q-125 0 -230 56.5t-168.5 157t-63.5 232.5q0 148 71 251
t185 157.5t243 54.5q95 0 144 -23t78 -23t36 16.5t13 29.5h40l20 -279h-38q-12 39 -43 94t-93 97t-168 42q-152 0 -237.5 -106t-85.5 -281q0 -210 92.5 -311.5t241.5 -101.5q196 0 311 161z" />
            <glyph glyph-name="ordfeminine" unicode="&#xaa;" horiz-adv-x="653" d="M651 885q-80 -88 -155 -88q-32 0 -54.5 18t-22.5 70q-59 -37 -92 -56t-58 -25.5t-60 -6.5q-70 0 -114 38t-44 101q0 41 26.5 77.5t105.5 75t236 83.5v21q0 80 -31 112t-94 32q-44 0 -70 -19t-29 -48l2 -35q2 -28 -15 -42.5t-44 -14.5q-61 0 -61 57q0 64 73.5 100.5
t168.5 36.5t141.5 -23t62 -64.5t15.5 -98.5v-189q0 -38 0.5 -62.5t4.5 -32.5q1 -30 31 -30q11 0 25 7t52 41v-35zM59 654v44h580v-44h-580zM419 1136q-112 -36 -164 -65t-66.5 -54.5t-14.5 -52.5q0 -40 29 -69t71 -31q27 -2 63.5 14.5t81.5 47.5v210z" />
            <glyph glyph-name="guillemotleft" unicode="&#xab;" horiz-adv-x="1026" d="M904 -8l-396 474l396 469h56l-245 -469l245 -474h-56zM451 -8l-387 474l387 469h55l-244 -469l244 -474h-55z" />
            <glyph glyph-name="guillemotleft.arab" horiz-adv-x="1026" d="M503 465q0 34 19.5 88t49 115t62 118.5t58.5 98t38 52.5q11 11 50 17t83.5 6t74.5 -6t22 -17q-7 -10 -31 -52t-55.5 -100t-61.5 -120.5t-49.5 -116t-19.5 -83.5t19.5 -83.5t49.5 -115.5t61.5 -120.5t55.5 -100t31 -52.5q8 -12 -13.5 -16t-50 0t-42.5 16q-13 11 -52 51.5
t-89.5 97.5t-98.5 119t-79.5 116t-31.5 88zM61 465q0 34 19.5 88t49 115t62 118.5t58.5 98t38 52.5q11 11 50 17t83.5 6t74.5 -6t22 -17q-7 -10 -31 -52t-55.5 -100t-61.5 -120.5t-49.5 -116t-19.5 -83.5t19.5 -83.5t49.5 -115.5t61.5 -120.5t55.5 -100t31 -52.5
q8 -12 -13.5 -16t-50 0t-42.5 16q-13 11 -52 51.5t-89.5 97.5t-98.5 119t-79.5 116t-31.5 88z" />
            <glyph glyph-name="logicalnot" unicode="&#xac;" horiz-adv-x="1222" d="M1026 373v337h-947v118h1064v-455h-117z" />
            <glyph glyph-name="sfthyphen" unicode="&#xad;" horiz-adv-x="682" d="M83 382v153h517v-153h-517z" />
            <glyph glyph-name="sfthyphen.arab" horiz-adv-x="682" d="M574 532q13 -1 21 -25t9.5 -53.5t-4 -51.5t-18.5 -21q-75 9 -131 8t-106 -6t-106 -6t-131 8q-13 2 -21 25.5t-9.5 53t4 52t18.5 20.5q75 -9 131 -8t106 6t106 6t131 -8z" />
            <glyph glyph-name="registered" unicode="&#xae;" horiz-adv-x="1558" d="M1490 678q0 -150 -55 -279t-153 -226t-226.5 -151t-275.5 -54t-275.5 53.5t-226.5 149.5t-153.5 225.5t-55.5 281.5q0 166 60.5 297.5t162.5 224t229 141t259 48.5q150 0 279 -54.5t226 -151.5t151 -226.5t54 -278.5zM1427 678q0 137 -50.5 255t-139.5 206.5t-206 138
t-251 49.5q-120 0 -235 -45t-208.5 -129.5t-149 -204.5t-55.5 -270q0 -140 51.5 -258t141 -205t206.5 -135t249 -48q129 0 245.5 47.5t207 134t142.5 205t52 259.5zM994 250l-294 404h-77v-309q0 -16 10 -28t20 -20q21 -13 89 -13v-34h-368v34q24 0 49 3.5t38 22.5
q12 14 14 43t2 67v523q0 80 -2 89q-3 9 -9 18.5t-16 15.5q-19 13 -64 13v36h388q143 0 220 -66t77 -158q0 -74 -39 -119.5t-90.5 -69t-91.5 -34.5l208 -297q20 -30 36 -46.5t32 -27.5q17 -10 54 -13v-34h-186zM911 880q0 76 -54.5 133.5t-149.5 57.5q-34 0 -84 -13v-360
q33 0 81 4t95.5 20.5t79.5 54t32 103.5z" />
            <glyph glyph-name="overscore" unicode="&#xaf;" horiz-adv-x="643" d="M0 1126v110h643v-110h-643z" />
            <glyph glyph-name="degree" unicode="&#xb0;" horiz-adv-x="630" d="M532 1203q0 -91 -63 -154t-153 -63q-91 0 -154.5 63t-63.5 154q0 89 63.5 153t154.5 64q90 0 153 -64t63 -153zM453 1203q0 58 -39.5 98.5t-97.5 40.5t-98.5 -40.5t-40.5 -98.5t40.5 -98t98.5 -40t97.5 40t39.5 98z" />
            <glyph glyph-name="plusminus" unicode="&#xb1;" horiz-adv-x="1972" d="M1046 705v-354h-120v354h-530v123h530v355h120v-355h531v-123h-531zM396 0v122h1181v-122h-1181z" />
            <glyph glyph-name="plusminus.arab" horiz-adv-x="1972" d="M916 1177q3 13 28.5 19.5t57.5 6.5t54.5 -6.5t19.5 -19.5q-21 -94 -23.5 -198.5t1.5 -212.5t1.5 -212.5t-23.5 -198.5q-3 -13 -28.5 -19.5t-57.5 -6.5t-54.5 6.5t-19.5 19.5q21 94 23.5 198.5t-1 212.5t-1.5 213t23 198zM1549 819q18 -3 25.5 -31.5t4 -55t-21.5 -23.5
q-76 13 -189.5 13.5t-245.5 -5.5t-263.5 -11.5t-245.5 -5.5t-190 13q-17 4 -25 32t-4 54.5t21 23.5q76 -13 190 -13.5t245.5 5t263.5 11t245.5 5.5t189.5 -12zM1549 114q18 -3 25.5 -31.5t4 -55t-21.5 -23.5q-76 13 -189.5 13.5t-245.5 -5.5t-263.5 -11.5t-245.5 -5.5
t-190 13q-17 4 -25 32t-4 54.5t21 23.5q76 -13 190 -13.5t245.5 5t263.5 11t245.5 5.5t189.5 -12z" />
            <glyph glyph-name="twosuperior" unicode="&#xb2;" horiz-adv-x="737" d="M607 806h-575v22q125 98 216 177t143 140q102 125 102 223q0 71 -35.5 109.5t-81.5 54t-77 15.5q-67 0 -111 -25.5t-68 -58.5t-33 -55h-26q5 28 19 67t43.5 76.5t81 62.5t132.5 25q70 0 134.5 -26t105.5 -74t41 -115q0 -64 -35.5 -126t-84.5 -114.5t-90 -88.5
q-88 -82 -144 -131.5t-78 -66.5h257q73 0 109.5 5.5t56 19.5t42.5 39h25z" />
            <glyph glyph-name="threesuperior" unicode="&#xb3;" horiz-adv-x="737" d="M615 1076q0 -124 -103.5 -204t-282.5 -80q-81 0 -116 12.5t-43.5 28.5t-8.5 25q0 17 17 29t40 12q36 0 64.5 -13.5t61 -27.5t81.5 -14q65 0 124 43.5t59 116.5q0 65 -28.5 104.5t-71 61t-85 30.5t-71 10l-28.5 1v17q14 2 49.5 11t76 29.5t69.5 57t29 93.5q0 53 -27 82.5
t-64.5 42t-70.5 12.5q-114 0 -188 -101l-23 11q14 26 42 67t81 73.5t141 32.5q95 0 143.5 -32.5t66 -72.5t17.5 -61q0 -90 -131 -184q31 -9 73.5 -33t74.5 -67.5t32 -112.5z" />
            <glyph glyph-name="acute" unicode="&#xb4;" horiz-adv-x="703" d="M703 1331q0 -30 -25.5 -55t-57.5 -46l-297 -187h-82l285 285q26 28 58 48t66 20q15 0 34 -22.5t19 -42.5z" />
            <glyph glyph-name="micro" unicode="&#xb5;" horiz-adv-x="1161" d="M1084 207q-8 -127 -65 -182t-134 -55q-59 0 -101 40t-56 152q-85 -97 -159.5 -144.5t-154.5 -47.5q-22 0 -70.5 12.5t-85.5 74.5v-47q0 -63 12 -126.5t23.5 -119t11.5 -95.5q0 -49 -28.5 -81t-64.5 -32q-34 0 -61 31t-27 78q0 46 10 82t22.5 85t22.5 133t10 227v722h162
v-532q0 -73 5 -121.5t13 -74.5q11 -37 43.5 -64.5t80.5 -27.5q117 0 235 135v685h168v-650q0 -88 9 -126t24 -46.5t32 -8.5q32 0 51 26.5t32 97.5h40z" />
            <glyph glyph-name="paragraph" unicode="&#xb6;" horiz-adv-x="929" d="M800 1302v-1746h-73v1746h-187v-1746h-73v1048q-86 2 -171 17.5t-155 55.5t-112 113.5t-42 191.5q0 109 39.5 181.5t105 115t145.5 60.5t161 18h496v-55h-134z" />
            <glyph glyph-name="periodcentered" unicode="&#xb7;" horiz-adv-x="371" d="M301 670q0 -49 -33.5 -83t-81.5 -34q-49 0 -83 34t-34 83t34 83t83 34q48 0 81.5 -34t33.5 -83z" />
            <glyph glyph-name="periodcentered.arab" horiz-adv-x="371" d="M320.139 673.701q0 -9.11719 -16.5049 -31.5586t-39.6816 -47.3369q-23.1777 -24.8955 -44.2471 -42.4287q-21.0703 -17.5322 -29.498 -17.5322q-11.2373 0 -33.7119 17.1816q-22.4746 17.1826 -46.7051 41.377t-41.0869 46.6357q-16.8555 22.4414 -16.8555 33.6621
q0 9.81836 16.5049 31.9092t39.6816 46.6357t43.8955 42.0781q20.7188 17.5322 29.8496 17.5322q7.72559 -0.701172 18.9629 -19.9873q11.2373 -19.2852 45.6514 -54.3496q34.4141 -33.6621 54.0791 -44.8828q19.666 -11.2207 19.666 -18.9355z" />
            <glyph glyph-name="bulletOperator" unicode="&#x2219;" horiz-adv-x="427" d="M346 770q0 -55 -38.5 -94.5t-93.5 -39.5q-57 0 -96 39.5t-39 94.5q0 56 39 95t96 39q55 0 93.5 -39t38.5 -95z" />
            <glyph glyph-name="bulletOperator.arab" horiz-adv-x="427" d="M369.588 773.808q0 -10.499 -19.0205 -36.3428t-45.7305 -54.5137q-26.709 -28.6709 -50.9912 -48.8613q-24.2812 -20.1904 -33.9941 -20.1904q-12.9502 0 -38.8506 19.7861q-25.9004 19.7871 -53.8242 47.6504q-27.9238 27.8623 -47.3486 53.7061
q-19.4258 25.8438 -19.4258 38.7656q0 11.3066 19.0205 36.7471q19.0205 25.4395 45.7305 53.7061t50.5869 48.457t34.3984 20.1904q8.90332 -0.807617 21.8535 -23.0176q12.9502 -22.209 52.6104 -62.5898q39.6602 -38.7656 62.3232 -51.6875
q22.6621 -12.9219 22.6621 -21.8057z" />
            <glyph glyph-name="cedilla" unicode="&#xb8;" horiz-adv-x="429" d="M429 -270q0 -54 -38.5 -93t-99 -59.5t-125.5 -20.5q-42 0 -85 10t-81 22l30 66q27 -10 64 -18t62 -8q120 0 120 87q0 35 -20.5 55.5t-54.5 23.5q-24 2 -48 -1t-44 -9l-17 11l97 229h73l-63 -160q25 7 59 7q66 0 118.5 -34t52.5 -108z" />
            <glyph glyph-name="onesuperior" unicode="&#xb9;" horiz-adv-x="737" d="M190 806v22q61 0 87.5 9.5t32.5 36t6 76.5v440q0 54 -3 94t-30.5 53t-99.5 -14l-9 20l237 96h25v-689q0 -52 5 -78t30.5 -35t86.5 -9v-22h-368z" />
            <glyph glyph-name="ordmasculine" unicode="&#xba;" horiz-adv-x="751" d="M695 1092q0 -71 -36.5 -141t-108.5 -116t-179 -46q-92 0 -163 39.5t-111 105t-40 142.5q0 75 38.5 142.5t110 110.5t170.5 43q95 0 167 -37.5t112 -101t40 -141.5zM69 654v44h615v-44h-615zM560 1044q0 124 -55 207.5t-150 83.5q-37 0 -74.5 -19t-63 -64.5t-25.5 -125.5
q0 -79 26 -145.5t72.5 -107t109.5 -40.5q72 0 116 47t44 164z" />
            <glyph glyph-name="guillemotright" unicode="&#xbb;" horiz-adv-x="1026" d="M574 -8h-54l244 471l-244 472h54l387 -472zM122 -8h-56l244 471l-244 472h56l395 -472z" />
            <glyph glyph-name="guillemotright.arab" horiz-adv-x="1026" d="M516 465q0 -34 -31.5 -88t-79.5 -116t-98.5 -119t-89.5 -97.5t-52 -51.5q-14 -12 -42.5 -16t-50 0t-13.5 16q7 11 31 52.5t55.5 100t61.5 120.5t49.5 115.5t19.5 83.5t-19.5 83.5t-49.5 116t-61.5 120.5t-55.5 100t-31 52q-7 11 22.5 17t74 6t83.5 -6t50 -17
q12 -12 38 -52.5t58.5 -98t62 -118.5t49 -115t19.5 -88zM968 465q0 -34 -31.5 -88t-79.5 -116t-98.5 -119t-89.5 -97.5t-52 -51.5q-14 -12 -42.5 -16t-50 0t-13.5 16q7 11 31 52.5t55.5 100t61.5 120.5t49.5 115.5t19.5 83.5t-19.5 83.5t-49.5 116t-61.5 120.5t-55.5 100
t-31 52q-7 11 22.5 17t74 6t83.5 -6t50 -17q12 -12 38 -52.5t58.5 -98t62 -118.5t49 -115t19.5 -88z" />
            <glyph glyph-name="onequarter" unicode="&#xbc;" horiz-adv-x="1519" d="M1243 212v-220h-100v220h-348v74l383 547h65v-537h109v-84h-109zM351 -15h-99l934 1397h92zM179 526v23q52 0 74 8.5t27.5 34.5t5.5 78v442q0 55 -2.5 96t-25 54t-84.5 -17l-8 22l200 98h20v-695q0 -52 4.5 -78t26.5 -34.5t74 -8.5v-23h-312zM1143 704l-289 -408h289v408
z" />
            <glyph glyph-name="onehalf" unicode="&#xbd;" horiz-adv-x="1519" d="M1322 -8h-485v23q108 98 183.5 177t119.5 141q87 127 87 227q0 70 -30 109t-68.5 54.5t-63.5 15.5q-58 0 -95.5 -25t-58 -57.5t-28.5 -55.5h-19q3 27 14.5 66t36.5 77t69 63.5t113 25.5q58 0 111.5 -26t88 -75t34.5 -117q0 -63 -29.5 -125.5t-70 -116t-75.5 -91.5
q-75 -81 -121.5 -130.5t-66.5 -66.5h215q63 0 93.5 5t46.5 19t35 40h24zM333 -15h-98l863 1397h97zM149 526v23q52 0 74 8.5t27.5 34.5t5.5 78v442q0 55 -2 96t-24.5 54t-85.5 -17l-8 22l199 98h23v-695q0 -52 4.5 -78t26 -34.5t72.5 -8.5v-23h-312z" />
            <glyph glyph-name="threequarters" unicode="&#xbe;" horiz-adv-x="1519" d="M1270 212v-220h-102v220h-348v74l383 547h67v-537h109v-84h-109zM397 -15h-100l933 1397h92zM607 797q0 -127 -87 -208t-238 -81q-68 0 -98 13.5t-37 29.5t-7 25q0 18 15.5 30t34.5 12q29 0 53 -14t52.5 -28t70.5 -14q53 0 103.5 44t50.5 116q0 82 -36.5 125.5t-84.5 61
t-84.5 20l-36.5 2.5v19q12 2 42 10.5t64 29.5t58 58t24 94q0 53 -22.5 83t-54 42.5t-58.5 12.5q-94 0 -157 -100l-22 9q13 26 36 68t67 75t119 33q81 0 122 -33t55.5 -73t14.5 -62q0 -88 -111 -185q26 -10 61.5 -34.5t63 -68t27.5 -112.5zM1168 704l-288 -408h288v408z" />
            <glyph glyph-name="uni2074" unicode="&#x2074;" horiz-adv-x="737" d="M557 1021v-215h-119v215h-416v77l455 541h80v-533h130v-85h-130zM438 1512l-346 -406h346v406z" />
            <glyph glyph-name="questiondown" unicode="&#xbf;" horiz-adv-x="911" d="M577 861q0 -48 -34.5 -79.5t-79.5 -31.5q-41 0 -75.5 31t-34.5 80q0 56 36 84.5t74 28.5q44 0 79 -29t35 -84zM812 -154q0 -75 -41.5 -141t-122 -107t-197.5 -41q-162 0 -268 84.5t-106 232.5q0 76 26 138t62.5 110.5t67.5 82.5q71 81 117.5 140.5t71.5 124t28 157.5h43
q-6 -120 -37.5 -224t-97.5 -214q-31 -53 -63.5 -137t-32.5 -164q0 -100 36.5 -160t91 -87t106.5 -27q95 0 141.5 43.5t46.5 88.5q0 28 -16 59t-31.5 60.5t-15.5 51.5q0 43 27 64.5t55 21.5q13 0 39 -12t48 -46t22 -99z" />
            <glyph glyph-name="uni02D0" unicode="&#x2d0;" horiz-adv-x="427" d="M262 604h-95l-92 313h278zM75 0l92 314h95l91 -314h-278z" />
            <glyph glyph-name="Agrave" unicode="&#xc0;" horiz-adv-x="1473" d="M1457 -3l-535 3v38q71 1 102 20.5t34.5 51t-9 70.5t-29.5 80l-82 195h-526l-92 -216q-25 -61 -31.5 -103t27.5 -66t128 -32v-38h-429v38q87 6 132 63.5t94 168.5l477 1119h35l472 -1129q41 -95 71.5 -141t67 -61.5t93.5 -19.5v-41zM911 528l-230 551l-237 -551h467z
M831 1478l-294 187q-25 16 -57.5 39t-32.5 50q0 77 65 77q26 0 58 -19.5t60 -48.5l285 -285h-84z" />
            <glyph glyph-name="Aacute" unicode="&#xc1;" horiz-adv-x="1473" d="M1457 -3l-535 3v38q71 1 102 20.5t34.5 51t-9 70.5t-29.5 80l-82 195h-526l-92 -216q-25 -61 -31.5 -103t27.5 -66t128 -32v-38h-429v38q87 6 132 63.5t94 168.5l477 1119h35l472 -1129q41 -95 71.5 -141t67 -61.5t93.5 -19.5v-41zM911 528l-230 551l-237 -551h467z
M1023 1761q0 -30 -25.5 -55t-57.5 -46l-296 -187h-83l285 285q26 28 58.5 48t65.5 20q15 0 34 -22.5t19 -42.5z" />
            <glyph glyph-name="Acircumflex" unicode="&#xc2;" horiz-adv-x="1473" d="M1457 -3l-535 3v38q71 1 102 20.5t34.5 51t-9 70.5t-29.5 80l-82 195h-526l-92 -216q-25 -61 -31.5 -103t27.5 -66t128 -32v-38h-429v38q87 6 132 63.5t94 168.5l477 1119h35l472 -1129q41 -95 71.5 -141t67 -61.5t93.5 -19.5v-41zM911 528l-230 551l-237 -551h467z
M1051 1473h-71l-251 214l-250 -214h-72l259 344h128z" />
            <glyph glyph-name="Atilde" unicode="&#xc3;" horiz-adv-x="1473" d="M1457 -3l-535 3v38q71 1 102 20.5t34.5 51t-9 70.5t-29.5 80l-82 195h-526l-92 -216q-25 -61 -31.5 -103t27.5 -66t128 -32v-38h-429v38q87 6 132 63.5t94 168.5l477 1119h35l472 -1129q41 -95 71.5 -141t67 -61.5t93.5 -19.5v-41zM911 528l-230 551l-237 -551h467z
M1020 1784h54q-5 -54 -35.5 -104t-77.5 -82t-105 -32q-55 0 -90.5 14t-63.5 33t-60 33t-81 14q-40 0 -76 -30t-40 -64h-53q20 89 75 149t151 60q51 0 90.5 -23l79 -46t91.5 -23q47 0 88 26.5t53 74.5z" />
            <glyph glyph-name="Adieresis" unicode="&#xc4;" horiz-adv-x="1473" d="M1457 -3l-535 3v38q71 1 102 20.5t34.5 51t-9 70.5t-29.5 80l-82 195h-526l-92 -216q-25 -61 -31.5 -103t27.5 -66t128 -32v-38h-429v38q87 6 132 63.5t94 168.5l477 1119h35l472 -1129q41 -95 71.5 -141t67 -61.5t93.5 -19.5v-41zM911 528l-230 551l-237 -551h467z
M1045 1668q0 -40 -30.5 -71t-72.5 -31q-41 0 -72 31t-31 71q0 39 32.5 71t70.5 32q42 0 72.5 -31t30.5 -72zM635 1668q0 -40 -30.5 -71t-73.5 -31q-40 0 -70 31t-30 71q0 39 31.5 71t68.5 32q43 0 73.5 -31t30.5 -72z" />
            <glyph glyph-name="Aring" unicode="&#xc5;" horiz-adv-x="1473" d="M1457 -3l-535 3v38q71 1 102 20.5t34.5 51t-9 70.5t-29.5 80l-82 195h-526l-92 -216q-25 -61 -31.5 -103t27.5 -66t128 -32v-38h-429v38q87 6 132 63.5t94 168.5l477 1119h35l472 -1129q41 -95 71.5 -141t67 -61.5t93.5 -19.5v-41zM911 528l-230 551l-237 -551h467z
M922 1673q0 -86 -59 -139t-131 -53q-47 0 -91.5 24t-73 67.5t-28.5 100.5q0 86 58.5 138.5t134.5 52.5q72 0 131 -51.5t59 -139.5zM854 1673q0 55 -38 88.5t-84 33.5q-49 0 -86.5 -33.5t-37.5 -88.5q0 -58 38.5 -90.5t85.5 -32.5q51 0 86.5 36.5t35.5 86.5z" />
            <glyph glyph-name="AE" unicode="&#xc6;" horiz-adv-x="1824" d="M1658 0h-1019v38h50q83 0 123 49q23 29 23 154v285h-395l-124 -234q-56 -103 -69 -151.5t27 -73.5q34 -22 128 -29v-38h-426v38q48 0 75 17q29 18 66.5 65.5t95.5 153.5l414 770q77 145 77 195q0 33 -33.5 54.5t-140.5 26.5v37h1113l15 -296h-32q-20 92 -42.5 140t-72 65
t-151.5 17h-333v-536h259q117 0 162 43.5t55 152.5h35v-469h-35q-10 79 -28 122t-60.5 60t-128.5 17h-259v-451q0 -40 0.5 -68.5t7.5 -38.5q8 -13 29 -27t79 -14h182q113 0 185 27.5t122 86.5t96 155h37zM835 1283l-358 -683h358v683z" />
            <glyph glyph-name="Ccedilla" unicode="&#xc7;" horiz-adv-x="1368" d="M1296 319q-100 -178 -235.5 -264.5t-326.5 -86.5q-157 0 -279.5 55t-207.5 151.5t-129 221t-44 262.5q0 148 49 280t140 233.5t218.5 159.5t284.5 58q103 0 173 -23.5t113 -47.5t63 -24q62 0 83 95h37l31 -462h-31q-62 209 -179 300t-275 91q-139 0 -247.5 -71.5
t-170.5 -218t-62 -371.5q0 -292 140.5 -446t369.5 -154q89 0 162 23.5t143 84.5t150 174zM904 -270q0 -54 -39 -93t-99 -59.5t-125 -20.5q-42 0 -85 10t-82 22l30 66q27 -10 64.5 -18t62.5 -8q119 0 119 87q0 35 -20.5 55.5t-54.5 23.5q-24 2 -47.5 -1t-44.5 -9l-17 11
l98 229h72l-62 -160q25 7 59 7q65 0 118 -34t53 -108z" />
            <glyph glyph-name="Egrave" unicode="&#xc8;" horiz-adv-x="1295" d="M1205 342l-117 -342h-1046v38h47q17 0 52.5 6.5t54.5 24.5q20 18 30 50.5t10 121.5v880q0 67 -7 106t-18 53q-37 40 -122 40h-47v37h1046l15 -296h-39q-10 44 -20 84t-32.5 71t-71 49t-137.5 18h-377v-536h300q92 0 134 20.5t56.5 64t23.5 111.5h38v-472h-38
q-9 71 -24 115.5t-57 65.5t-133 21h-300v-449v-60q0 -40 22 -65t94 -25h229q83 0 137.5 10.5t94.5 38.5t77 81t85 138h40zM722 1473l-294 187q-25 16 -57.5 39t-32.5 50q0 77 65 77q26 0 58 -19.5t60 -48.5l285 -285h-84z" />
            <glyph glyph-name="Eacute" unicode="&#xc9;" horiz-adv-x="1251" d="M1206 342l-117 -342h-1046v38h47q17 0 52.5 6.5t54.5 24.5q20 18 30 50.5t10 121.5v880q0 67 -7 106t-18 53q-37 40 -122 40h-47v37h1046l15 -296h-39q-10 44 -20 84t-32.5 71t-71 49t-137.5 18h-377v-536h300q92 0 134 20.5t56.5 64t23.5 111.5h38v-472h-38
q-9 71 -24 115.5t-57 65.5t-133 21h-300v-449v-60q0 -40 22 -65t94 -25h229q83 0 137.5 10.5t94.5 38.5t77 81t85 138h40zM905 1761q0 -30 -25.5 -55t-57.5 -46l-296 -187h-83l285 285q26 28 58.5 48t65.5 20q15 0 34 -22.5t19 -42.5z" />
            <glyph glyph-name="Ecircumflex" unicode="&#xca;" horiz-adv-x="1251" d="M1206 342l-117 -342h-1046v38h47q17 0 52.5 6.5t54.5 24.5q20 18 30 50.5t10 121.5v880q0 67 -7 106t-18 53q-37 40 -122 40h-47v37h1046l15 -296h-39q-10 44 -20 84t-32.5 71t-71 49t-137.5 18h-377v-536h300q92 0 134 20.5t56.5 64t23.5 111.5h38v-472h-38
q-9 71 -24 115.5t-57 65.5t-133 21h-300v-449v-60q0 -40 22 -65t94 -25h229q83 0 137.5 10.5t94.5 38.5t77 81t85 138h40zM951 1473h-71l-251 214l-250 -214h-72l259 344h128z" />
            <glyph glyph-name="Edieresis" unicode="&#xcb;" horiz-adv-x="1251" d="M1206 342l-117 -342h-1046v38h47q17 0 52.5 6.5t54.5 24.5q20 18 30 50.5t10 121.5v880q0 67 -7 106t-18 53q-37 40 -122 40h-47v37h1046l15 -296h-39q-10 44 -20 84t-32.5 71t-71 49t-137.5 18h-377v-536h300q92 0 134 20.5t56.5 64t23.5 111.5h38v-472h-38
q-9 71 -24 115.5t-57 65.5t-133 21h-300v-449v-60q0 -40 22 -65t94 -25h229q83 0 137.5 10.5t94.5 38.5t77 81t85 138h40zM932 1663q0 -40 -30.5 -71t-72.5 -31q-41 0 -72 31t-31 71q0 39 32.5 71t70.5 32q42 0 72.5 -31t30.5 -72zM522 1663q0 -40 -30.5 -71t-73.5 -31
q-40 0 -70 31t-30 71q0 39 31.5 71t68.5 32q43 0 73.5 -31t30.5 -72z" />
            <glyph glyph-name="Igrave" unicode="&#xcc;" horiz-adv-x="685" d="M635 0h-581v38h49q82 0 120 49q24 29 24 154v877q0 70 -3 101t-19 51q-18 24 -52.5 37t-69.5 13h-49v37h581v-37h-49q-79 0 -120 -48q-11 -17 -18 -55t-7 -99v-877q0 -66 6 -102t17 -54q10 -16 49 -31.5t73 -15.5h49v-38zM434 1474l-294 187q-25 16 -57.5 39t-32.5 50
q0 77 65 77q26 0 58 -19.5t60 -48.5l285 -285h-84z" />
            <glyph glyph-name="Iacute" unicode="&#xcd;" horiz-adv-x="682" d="M632 0h-581v38h49q82 0 120 49q24 29 24 154v877q0 70 -3 101t-19 51q-18 24 -52.5 37t-69.5 13h-49v37h581v-37h-49q-79 0 -120 -48q-11 -17 -18 -55t-7 -99v-877q0 -66 6 -102t17 -54q10 -16 49 -31.5t73 -15.5h49v-38zM625 1761q0 -30 -25.5 -55t-57.5 -46l-296 -187
h-83l285 285q26 28 58.5 48t65.5 20q15 0 34 -22.5t19 -42.5z" />
            <glyph glyph-name="Icircumflex" unicode="&#xce;" horiz-adv-x="683" d="M631 0h-581v38h49q82 0 120 49q24 29 24 154v877q0 70 -3 101t-19 51q-18 24 -52.5 37t-69.5 13h-49v37h581v-37h-49q-79 0 -120 -48q-11 -17 -18 -55t-7 -99v-877q0 -66 6 -102t17 -54q10 -16 49 -31.5t73 -15.5h49v-38zM663 1473h-71l-251 214l-250 -214h-72l259 344
h128z" />
            <glyph glyph-name="Idieresis" unicode="&#xcf;" horiz-adv-x="683" d="M630 0h-581v38h49q82 0 120 49q24 29 24 154v877q0 70 -3 101t-19 51q-18 24 -52.5 37t-69.5 13h-49v37h581v-37h-49q-79 0 -120 -48q-11 -17 -18 -55t-7 -99v-877q0 -66 6 -102t17 -54q10 -16 49 -31.5t73 -15.5h49v-38zM648 1668q0 -40 -30.5 -71t-72.5 -31
q-41 0 -72 31t-31 71q0 39 32.5 71t70.5 32q42 0 72.5 -31t30.5 -72zM238 1668q0 -40 -30.5 -71t-73.5 -31q-40 0 -70 31t-30 71q0 39 31.5 71t68.5 32q43 0 73.5 -31t30.5 -72z" />
            <glyph glyph-name="Eth" unicode="&#xd0;" horiz-adv-x="1481" d="M36 678v114h783v-114h-783zM1402 687q0 -191 -80.5 -347t-248.5 -248t-430 -92h-607v38h51q88 0 120 54q22 36 22 149v877q0 126 -25 160q-45 42 -117 42h-51v37h552q225 0 366.5 -37t238.5 -123q95 -83 152 -217t57 -293zM1175 676q0 188 -70 323.5t-193.5 208.5
t-284.5 73q-45 0 -95.5 -6.5t-109.5 -23.5v-1153q63 -13 116 -21t97 -8q154 -1 276 72t193 209.5t71 325.5z" />
            <glyph glyph-name="Ntilde" unicode="&#xd1;" horiz-adv-x="1481" d="M1450 1320h-46q-90 0 -123 -50q-21 -34 -21 -149v-1143h-35l-898 1093v-834q0 -126 28 -158q38 -41 119 -41h47v-38h-474v38h47q91 0 123 52q24 32 24 147v943q-14 14 -36.5 48t-67 63t-126.5 29v37h332l829 -1018v782q0 128 -29 157q-37 42 -117 42h-45v37h469v-37z
M1016 1780h54q-5 -54 -35.5 -104t-77.5 -82t-105 -32q-55 0 -90.5 14t-63.5 33t-60 33t-81 14q-40 0 -76 -30t-40 -64h-53q20 89 75 149t151 60q51 0 90.5 -23l79 -46t91.5 -23q47 0 88 26.5t53 74.5z" />
            <glyph glyph-name="Ograve" unicode="&#xd2;" horiz-adv-x="1551" d="M1400 687q0 -154 -50.5 -285.5t-141 -228.5t-212 -151t-262.5 -54q-138 0 -258.5 51t-211.5 145.5t-142 226t-51 291.5q0 153 51.5 282t144 224.5t216 148t268.5 52.5q133 0 250.5 -52t207 -147t140.5 -223t51 -280zM1174 660q0 310 -109 483t-336 175
q-204 0 -316 -169.5t-112 -459.5q0 -193 49.5 -339t145.5 -227.5t235 -83.5q194 0 317.5 150.5t125.5 470.5zM824 1473l-294 187q-25 16 -57.5 39t-32.5 50q0 77 65 77q26 0 58 -19.5t60 -48.5l285 -285h-84z" />
            <glyph glyph-name="Oacute" unicode="&#xd3;" horiz-adv-x="1481" d="M1400 687q0 -154 -50.5 -285.5t-141 -228.5t-212 -151t-262.5 -54q-138 0 -258.5 51t-211.5 145.5t-142 226t-51 291.5q0 153 51.5 282t144 224.5t216 148t268.5 52.5q133 0 250.5 -52t207 -147t140.5 -223t51 -280zM1174 660q0 310 -109 483t-336 175
q-204 0 -316 -169.5t-112 -459.5q0 -193 49.5 -339t145.5 -227.5t235 -83.5q194 0 317.5 150.5t125.5 470.5zM1025 1762q0 -30 -25.5 -55t-57.5 -46l-296 -187h-83l285 285q26 28 58.5 48t65.5 20q15 0 34 -22.5t19 -42.5z" />
            <glyph glyph-name="Ocircumflex" unicode="&#xd4;" horiz-adv-x="1481" d="M1400 687q0 -154 -50.5 -285.5t-141 -228.5t-212 -151t-262.5 -54q-138 0 -258.5 51t-211.5 145.5t-142 226t-51 291.5q0 153 51.5 282t144 224.5t216 148t268.5 52.5q133 0 250.5 -52t207 -147t140.5 -223t51 -280zM1174 660q0 310 -109 483t-336 175
q-204 0 -316 -169.5t-112 -459.5q0 -193 49.5 -339t145.5 -227.5t235 -83.5q194 0 317.5 150.5t125.5 470.5zM1053 1475h-71l-251 214l-250 -214h-72l259 344h128z" />
            <glyph glyph-name="Otilde" unicode="&#xd5;" horiz-adv-x="1481" d="M1400 687q0 -154 -50.5 -285.5t-141 -228.5t-212 -151t-262.5 -54q-138 0 -258.5 51t-211.5 145.5t-142 226t-51 291.5q0 153 51.5 282t144 224.5t216 148t268.5 52.5q133 0 250.5 -52t207 -147t140.5 -223t51 -280zM1174 660q0 310 -109 483t-336 175
q-204 0 -316 -169.5t-112 -459.5q0 -193 49.5 -339t145.5 -227.5t235 -83.5q194 0 317.5 150.5t125.5 470.5zM1025 1782h54q-5 -54 -35.5 -104t-77.5 -82t-105 -32q-55 0 -90.5 14t-63.5 33t-60 33t-81 14q-40 0 -76 -30t-40 -64h-53q20 89 75 149t151 60q51 0 90.5 -23
l79 -46t91.5 -23q47 0 88 26.5t53 74.5z" />
            <glyph glyph-name="Odieresis" unicode="&#xd6;" horiz-adv-x="1481" d="M1400 687q0 -154 -50.5 -285.5t-141 -228.5t-212 -151t-262.5 -54q-138 0 -258.5 51t-211.5 145.5t-142 226t-51 291.5q0 153 51.5 282t144 224.5t216 148t268.5 52.5q133 0 250.5 -52t207 -147t140.5 -223t51 -280zM1174 660q0 310 -109 483t-336 175
q-204 0 -316 -169.5t-112 -459.5q0 -193 49.5 -339t145.5 -227.5t235 -83.5q194 0 317.5 150.5t125.5 470.5zM1044 1663q0 -40 -30.5 -71t-72.5 -31q-41 0 -72 31t-31 71q0 39 32.5 71t70.5 32q42 0 72.5 -31t30.5 -72zM634 1663q0 -40 -30.5 -71t-73.5 -31q-40 0 -70 31
t-30 71q0 39 31.5 71t68.5 32q43 0 73.5 -31t30.5 -72z" />
            <glyph glyph-name="multiply" unicode="&#xd7;" horiz-adv-x="1972" d="M1442 59l-456 458l-456 -458l-77 77l454 455l-454 455l77 78l456 -458l456 458l77 -78l-454 -455l454 -455z" />
            <glyph glyph-name="multiply.arab" horiz-adv-x="1972" d="M1435 1118q15 10 41 -4.5t42 -36t1 -31.5q-52 -37 -130.5 -113.5t-172 -175t-192 -204.5t-192 -205t-172 -175t-130.5 -114q-15 -10 -41 4.5t-41.5 36t-1.5 31.5q53 37 131.5 113.5t172 175t192 205t192 205t171.5 175t130 113.5zM453 1041q-10 15 4.5 41t36 42t31.5 1
q37 -52 113.5 -130.5t175.5 -172t205.5 -191.5t205.5 -191.5t175 -172t112 -131.5q11 -15 -4 -41t-36.5 -41.5t-31.5 -1.5q-37 53 -113.5 131t-175.5 171.5t-206 192t-205.5 192t-174.5 172t-112 130.5z" />
            <glyph glyph-name="Oslash" unicode="&#xd8;" horiz-adv-x="1481" d="M751 1389q114 0 216 -38t184 -108l129 157l60 -43l-135 -166q90 -93 142.5 -222.5t52.5 -281.5q0 -154 -50.5 -285t-141 -228.5t-211.5 -151.5t-263 -54q-233 0 -407 139l-126 -154l-60 47l129 158q-93 95 -146 228.5t-53 295.5q0 153 51.5 282t144 224.5t216.5 148
t268 52.5zM729 1318q-203 0 -315.5 -168.5t-112.5 -460.5q0 -112 17 -209.5t57 -192.5l692 853q-116 177 -338 178zM731 39q195 0 318 150.5t125 470.5q1 117 -14 213.5t-55 194.5l-692 -853q56 -84 136.5 -129.5t181.5 -46.5z" />
            <glyph glyph-name="Ugrave" unicode="&#xd9;" horiz-adv-x="1511" d="M1460 1320h-51q-77 0 -122 -69q-21 -25 -21 -140v-553q0 -140 -24.5 -252t-95.5 -188q-72 -78 -164.5 -114t-241.5 -36q-166 0 -269 42.5t-158 112.5t-77 152.5t-25 164t-3 145.5v533q0 127 -33 163q-28 39 -113 39h-31v37h547v-37h-50q-42 0 -63 -12.5t-39 -40.5
q-11 -19 -18 -56t-7 -93v-592q0 -67 7.5 -148t39.5 -155t104.5 -122t201.5 -48q123 0 205.5 44t120.5 78q42 40 62.5 103t26.5 129t6 113v48v550q0 125 -29 160q-40 42 -116 42h-50v37h480v-37zM838 1473l-294 187q-25 16 -57.5 39t-32.5 50q0 77 65 77q26 0 58 -19.5
t60 -48.5l285 -285h-84z" />
            <glyph glyph-name="Uacute" unicode="&#xda;" horiz-adv-x="1481" d="M1459 1320h-51q-77 0 -122 -69q-21 -25 -21 -140v-553q0 -140 -24.5 -252t-95.5 -188q-72 -78 -164.5 -114t-241.5 -36q-166 0 -269 42.5t-158 112.5t-77 152.5t-25 164t-3 145.5v533q0 127 -33 163q-28 39 -113 39h-31v37h547v-37h-50q-42 0 -63 -12.5t-39 -40.5
q-11 -19 -18 -56t-7 -93v-592q0 -67 7.5 -148t39.5 -155t104.5 -122t201.5 -48q123 0 205.5 44t120.5 78q42 40 62.5 103t26.5 129t6 113v48v550q0 125 -29 160q-40 42 -116 42h-50v37h480v-37zM1035 1761q0 -30 -25.5 -55t-57.5 -46l-296 -187h-83l285 285q26 28 58.5 48
t65.5 20q15 0 34 -22.5t19 -42.5z" />
            <glyph glyph-name="Ucircumflex" unicode="&#xdb;" horiz-adv-x="1481" d="M1459 1320h-51q-77 0 -122 -69q-21 -25 -21 -140v-553q0 -140 -24.5 -252t-95.5 -188q-72 -78 -164.5 -114t-241.5 -36q-166 0 -269 42.5t-158 112.5t-77 152.5t-25 164t-3 145.5v533q0 127 -33 163q-28 39 -113 39h-31v37h547v-37h-50q-42 0 -63 -12.5t-39 -40.5
q-11 -19 -18 -56t-7 -93v-592q0 -67 7.5 -148t39.5 -155t104.5 -122t201.5 -48q123 0 205.5 44t120.5 78q42 40 62.5 103t26.5 129t6 113v48v550q0 125 -29 160q-40 42 -116 42h-50v37h480v-37zM1067 1473h-71l-251 214l-250 -214h-72l259 344h128z" />
            <glyph glyph-name="Udieresis" unicode="&#xdc;" horiz-adv-x="1481" d="M1459 1320h-51q-77 0 -122 -69q-21 -25 -21 -140v-553q0 -140 -24.5 -252t-95.5 -188q-72 -78 -164.5 -114t-241.5 -36q-166 0 -269 42.5t-158 112.5t-77 152.5t-25 164t-3 145.5v533q0 127 -33 163q-28 39 -113 39h-31v37h547v-37h-50q-42 0 -63 -12.5t-39 -40.5
q-11 -19 -18 -56t-7 -93v-592q0 -67 7.5 -148t39.5 -155t104.5 -122t201.5 -48q123 0 205.5 44t120.5 78q42 40 62.5 103t26.5 129t6 113v48v550q0 125 -29 160q-40 42 -116 42h-50v37h480v-37zM1055 1664q0 -40 -30.5 -71t-72.5 -31q-41 0 -72 31t-31 71q0 39 32.5 71
t70.5 32q42 0 72.5 -31t30.5 -72zM645 1664q0 -40 -30.5 -71t-73.5 -31q-40 0 -70 31t-30 71q0 39 31.5 71t68.5 32q43 0 73.5 -31t30.5 -72z" />
            <glyph glyph-name="Yacute" unicode="&#xdd;" horiz-adv-x="1481" d="M1450 1320h-24q-25 0 -74.5 -20t-93.5 -67q-39 -43 -100 -143l-330 -514v-339q0 -128 30 -158q35 -41 121 -41h42v-38h-575v38h47q84 0 122 52q9 16 14.5 51.5t5.5 95.5v321l-371 568q-33 48 -56.5 82.5t-51.5 57.5q-26 20 -62.5 37t-76.5 17v37h583v-37h-30
q-18 0 -48 -6.5t-54 -25t-24 -55.5q0 -34 60 -132l283 -436l269 417q44 70 57.5 112.5t-15.5 79.5q-11 20 -37 33t-82 13v37h471v-37zM1025 1768q0 -30 -25.5 -55t-57.5 -46l-296 -187h-83l285 285q26 28 58.5 48t65.5 20q15 0 34 -22.5t19 -42.5z" />
            <glyph glyph-name="Thorn" unicode="&#xde;" horiz-adv-x="1140" d="M1063 681q0 -75 -29.5 -140.5t-79.5 -115.5q-35 -35 -81.5 -62t-134 -42.5t-247.5 -15.5h-71v-61q0 -128 35 -169q36 -37 119 -37h41v-38h-577v38h36q95 0 133 54q20 31 20 149v870q0 111 -12 137q-8 30 -46 51t-94 21h-37v37h577v-37h-41q-33 0 -78 -15.5t-58 -56.5
q-11 -33 -14.5 -58t-3.5 -75v-65h76q120 0 193 -7.5t120.5 -24.5t89.5 -45q69 -47 116.5 -120.5t47.5 -171.5zM830 678q0 73 -29 134.5t-83 101.5q-26 19 -48.5 32t-66.5 20t-136 7h-47v-599h46q133 0 212.5 40t115.5 109t36 155z" />
            <glyph glyph-name="germandbls" unicode="&#xdf;" horiz-adv-x="1026" d="M960 422q0 -114 -40.5 -213t-116 -160t-180.5 -61q-83 0 -137.5 45.5t-56.5 115.5q-1 39 21 63.5t61 24.5q38 0 59.5 -22t22.5 -57q2 -13 -5 -36t-7 -32q0 -23 16 -33.5t42 -13.5q67 0 108.5 68.5t41.5 202.5q0 206 -70.5 327t-222.5 134v58q99 0 156.5 58.5t57.5 212.5
q0 137 -54 195t-139 58q-52 0 -93.5 -24.5t-65 -93t-23.5 -202.5v-1037h-299v38q78 1 104.5 36t26.5 150v744q0 245 92 350.5t267 105.5q158 0 254.5 -90.5t96.5 -235.5q0 -51 -13.5 -102t-54.5 -95.5t-122 -78.5q129 -36 201 -135t72 -265z" />
            <glyph glyph-name="agrave" unicode="&#xe0;" horiz-adv-x="911" d="M910 190v-58q-113 -149 -220 -149q-44 0 -75.5 31t-31.5 118q-80 -63 -126 -95t-81 -43t-84 -11q-98 0 -158 64t-60 170q0 51 19 97t72 92t154 95.5t264 105.5v38q0 133 -41.5 185.5t-129.5 52.5q-62 0 -98.5 -32t-39.5 -79l2 -60q2 -44 -21.5 -69t-61.5 -25
q-84 0 -84 95q0 72 47.5 123.5t124 79t163.5 27.5q133 0 198.5 -38t87 -108t21.5 -167v-311q0 -65 2.5 -106t3.5 -55q7 -49 43 -49q21 0 37 13t73 68zM583 197v352q-154 -60 -226.5 -108t-93 -90.5t-20.5 -86.5q0 -70 40.5 -118.5t98.5 -48.5q39 -3 88.5 23t112.5 77z
M537 1044l-294 187q-25 16 -57.5 39t-32.5 50q0 77 65 77q26 0 58 -19.5t60 -48.5l285 -285h-84z" />
            <glyph glyph-name="aacute" unicode="&#xe1;" horiz-adv-x="911" d="M910 190v-58q-113 -149 -220 -149q-44 0 -75.5 31t-31.5 118q-80 -63 -126 -95t-81 -43t-84 -11q-98 0 -158 64t-60 170q0 51 19 97t72 92t154 95.5t264 105.5v38q0 133 -41.5 185.5t-129.5 52.5q-62 0 -98.5 -32t-39.5 -79l2 -60q2 -44 -21.5 -69t-61.5 -25
q-84 0 -84 95q0 72 47.5 123.5t124 79t163.5 27.5q133 0 198.5 -38t87 -108t21.5 -167v-311q0 -65 2.5 -106t3.5 -55q7 -49 43 -49q21 0 37 13t73 68zM583 197v352q-154 -60 -226.5 -108t-93 -90.5t-20.5 -86.5q0 -70 40.5 -118.5t98.5 -48.5q39 -3 88.5 23t112.5 77z
M735 1331q0 -30 -25.5 -55t-57.5 -46l-296 -187h-83l285 285q26 28 58.5 48t65.5 20q15 0 34 -22.5t19 -42.5z" />
            <glyph glyph-name="acircumflex" unicode="&#xe2;" horiz-adv-x="911" d="M910 190v-58q-113 -149 -220 -149q-44 0 -75.5 31t-31.5 118q-80 -63 -126 -95t-81 -43t-84 -11q-98 0 -158 64t-60 170q0 51 19 97t72 92t154 95.5t264 105.5v38q0 133 -41.5 185.5t-129.5 52.5q-62 0 -98.5 -32t-39.5 -79l2 -60q2 -44 -21.5 -69t-61.5 -25
q-84 0 -84 95q0 72 47.5 123.5t124 79t163.5 27.5q133 0 198.5 -38t87 -108t21.5 -167v-311q0 -65 2.5 -106t3.5 -55q7 -49 43 -49q21 0 37 13t73 68zM583 197v352q-154 -60 -226.5 -108t-93 -90.5t-20.5 -86.5q0 -70 40.5 -118.5t98.5 -48.5q39 -3 88.5 23t112.5 77z
M766 1043h-71l-251 214l-250 -214h-72l259 344h128z" />
            <glyph glyph-name="atilde" unicode="&#xe3;" horiz-adv-x="911" d="M910 190v-58q-113 -149 -220 -149q-44 0 -75.5 31t-31.5 118q-80 -63 -126 -95t-81 -43t-84 -11q-98 0 -158 64t-60 170q0 51 19 97t72 92t154 95.5t264 105.5v38q0 133 -41.5 185.5t-129.5 52.5q-62 0 -98.5 -32t-39.5 -79l2 -60q2 -44 -21.5 -69t-61.5 -25
q-84 0 -84 95q0 72 47.5 123.5t124 79t163.5 27.5q133 0 198.5 -38t87 -108t21.5 -167v-311q0 -65 2.5 -106t3.5 -55q7 -49 43 -49q21 0 37 13t73 68zM583 197v352q-154 -60 -226.5 -108t-93 -90.5t-20.5 -86.5q0 -70 40.5 -118.5t98.5 -48.5q39 -3 88.5 23t112.5 77z
M735 1344h54q-5 -54 -35.5 -104t-77.5 -82t-105 -32q-55 0 -90.5 14t-63.5 33t-60 33t-81 14q-40 0 -76 -30t-40 -64h-53q20 89 75 149t151 60q51 0 90.5 -23l79 -46t91.5 -23q47 0 88 26.5t53 74.5z" />
            <glyph glyph-name="adieresis" unicode="&#xe4;" horiz-adv-x="911" d="M910 190v-58q-113 -149 -220 -149q-44 0 -75.5 31t-31.5 118q-80 -63 -126 -95t-81 -43t-84 -11q-98 0 -158 64t-60 170q0 51 19 97t72 92t154 95.5t264 105.5v38q0 133 -41.5 185.5t-129.5 52.5q-62 0 -98.5 -32t-39.5 -79l2 -60q2 -44 -21.5 -69t-61.5 -25
q-84 0 -84 95q0 72 47.5 123.5t124 79t163.5 27.5q133 0 198.5 -38t87 -108t21.5 -167v-311q0 -65 2.5 -106t3.5 -55q7 -49 43 -49q21 0 37 13t73 68zM583 197v352q-154 -60 -226.5 -108t-93 -90.5t-20.5 -86.5q0 -70 40.5 -118.5t98.5 -48.5q39 -3 88.5 23t112.5 77z
M745 1228q0 -40 -30.5 -71t-72.5 -31q-41 0 -72 31t-31 71q0 39 32.5 71t70.5 32q42 0 72.5 -31t30.5 -72zM335 1228q0 -40 -30.5 -71t-73.5 -31q-40 0 -70 31t-30 71q0 39 31.5 71t68.5 32q43 0 73.5 -31t30.5 -72z" />
            <glyph glyph-name="aring" unicode="&#xe5;" horiz-adv-x="911" d="M910 190v-58q-113 -149 -220 -149q-44 0 -75.5 31t-31.5 118q-80 -63 -126 -95t-81 -43t-84 -11q-98 0 -158 64t-60 170q0 51 19 97t72 92t154 95.5t264 105.5v38q0 133 -41.5 185.5t-129.5 52.5q-62 0 -98.5 -32t-39.5 -79l2 -60q2 -44 -21.5 -69t-61.5 -25
q-84 0 -84 95q0 72 47.5 123.5t124 79t163.5 27.5q133 0 198.5 -38t87 -108t21.5 -167v-311q0 -65 2.5 -106t3.5 -55q7 -49 43 -49q21 0 37 13t73 68zM583 197v352q-154 -60 -226.5 -108t-93 -90.5t-20.5 -86.5q0 -70 40.5 -118.5t98.5 -48.5q39 -3 88.5 23t112.5 77z
M639 1235q0 -86 -59 -139t-131 -53q-47 0 -91.5 24t-73 67.5t-28.5 100.5q0 86 58.5 138.5t134.5 52.5q72 0 131 -51.5t59 -139.5zM571 1235q0 55 -38 88.5t-84 33.5q-49 0 -86.5 -33.5t-37.5 -88.5q0 -58 38.5 -90.5t85.5 -32.5q51 0 86.5 36.5t35.5 86.5z" />
            <glyph glyph-name="ae" unicode="&#xe6;" horiz-adv-x="1368" d="M1305 320q-24 -91 -69.5 -171t-119 -129.5t-181.5 -49.5q-46 0 -92 9t-95.5 43t-108.5 110q-29 -24 -78.5 -62.5t-116 -69t-147.5 -30.5q-61 0 -112 31.5t-81 84t-30 115.5q0 93 48 154t156 116t287 127v91q0 110 -40.5 154.5t-108.5 44.5q-65 0 -102.5 -31.5
t-39.5 -75.5q-2 -69 -10.5 -102t-25 -44t-43.5 -14q-49 0 -69.5 29t-20.5 68q0 49 36 101t110.5 88t191.5 36q123 0 185.5 -34.5t83.5 -86.5q49 67 114 94t155 27q148 0 235 -98t89 -277h-571q0 -123 10.5 -201.5t39.5 -127.5q40 -70 100 -93.5t105 -23.5q15 0 48 4t75 23.5
t85 65t77 128.5zM1113 632q-1 130 -53 186t-131 56q-76 0 -134.5 -59t-60.5 -183h379zM612 186q-22 40 -34.5 112.5t-12.5 145.5v88q-76 -28 -150 -62.5t-123 -84.5t-49 -127q0 -73 46.5 -125.5t112.5 -53.5q38 -1 82 20t128 87z" />
            <glyph glyph-name="ccedilla" unicode="&#xe7;" horiz-adv-x="911" d="M842 348q-18 -110 -74.5 -195.5t-137 -134t-171.5 -48.5q-108 0 -196.5 60t-141 169.5t-52.5 258.5q0 145 59.5 254t159 170t218.5 61q137 0 223 -71q90 -72 90 -148q0 -35 -23.5 -60t-71.5 -25q-20 0 -44 6.5t-43 31.5t-24 80q-4 54 -37 87t-102 33q-115 0 -178 -95
t-63 -238q0 -108 34.5 -202.5t101 -153t161.5 -58.5q86 0 155.5 45.5t128.5 187.5zM670 -270q0 -54 -39 -93t-99 -59.5t-125 -20.5q-42 0 -85 10t-82 22l30 66q27 -10 64.5 -18t62.5 -8q119 0 119 87q0 35 -20.5 55.5t-54.5 23.5q-24 2 -47.5 -1t-44.5 -9l-17 11l98 229h72
l-62 -160q25 7 59 7q65 0 118 -34t53 -108z" />
            <glyph glyph-name="egrave" unicode="&#xe8;" horiz-adv-x="986" d="M821 355l32 -20q-12 -90 -61.5 -173.5t-130 -137.5t-185.5 -54q-108 0 -199 58.5t-146 166t-55 253.5q0 156 54.5 267t150.5 170t220 59q152 0 252 -99t100 -272h-635q0 -137 46 -234.5t122.5 -149t165.5 -53.5t156 45t113 174zM218 628h426q0 101 -36 154t-83 72.5
t-80 19.5q-80 0 -147.5 -63t-79.5 -183zM579 1043l-295 187q-25 16 -57 39t-32 50q0 77 64 77q26 0 58.5 -19.5t60.5 -48.5l284 -285h-83z" />
            <glyph glyph-name="eacute" unicode="&#xe9;" horiz-adv-x="911" d="M820 355l32 -20q-12 -90 -61.5 -173.5t-130 -137.5t-185.5 -54q-108 0 -199 58.5t-146 166t-55 253.5q0 156 54.5 267t150.5 170t220 59q152 0 252 -99t100 -272h-635q0 -137 46 -234.5t122.5 -149t165.5 -53.5t156 45t113 174zM217 628h426q0 101 -36 154t-83 72.5
t-80 19.5q-80 0 -147.5 -63t-79.5 -183zM765 1331q0 -30 -25.5 -55t-57.5 -46l-296 -187h-83l285 285q26 28 58.5 48t65.5 20q15 0 34 -22.5t19 -42.5z" />
            <glyph glyph-name="ecircumflex" unicode="&#xea;" horiz-adv-x="911" d="M820 355l32 -20q-12 -90 -61.5 -173.5t-130 -137.5t-185.5 -54q-108 0 -199 58.5t-146 166t-55 253.5q0 156 54.5 267t150.5 170t220 59q152 0 252 -99t100 -272h-635q0 -137 46 -234.5t122.5 -149t165.5 -53.5t156 45t113 174zM217 628h426q0 101 -36 154t-83 72.5
t-80 19.5q-80 0 -147.5 -63t-79.5 -183zM810 1043h-71l-251 214l-250 -214h-72l259 344h128z" />
            <glyph glyph-name="edieresis" unicode="&#xeb;" horiz-adv-x="911" d="M820 355l32 -20q-12 -90 -61.5 -173.5t-130 -137.5t-185.5 -54q-108 0 -199 58.5t-146 166t-55 253.5q0 156 54.5 267t150.5 170t220 59q152 0 252 -99t100 -272h-635q0 -137 46 -234.5t122.5 -149t165.5 -53.5t156 45t113 174zM217 628h426q0 101 -36 154t-83 72.5
t-80 19.5q-80 0 -147.5 -63t-79.5 -183zM795 1228q0 -40 -30.5 -71t-72.5 -31q-41 0 -72 31t-31 71q0 39 32.5 71t70.5 32q42 0 72.5 -31t30.5 -72zM385 1228q0 -40 -30.5 -71t-73.5 -31q-40 0 -70 31t-30 71q0 39 31.5 71t68.5 32q43 0 73.5 -31t30.5 -72z" />
            <glyph glyph-name="igrave" unicode="&#xec;" horiz-adv-x="570" d="M77 0v38q50 0 74.5 6.5t38.5 24.5q13 17 20 45.5t7 92.5v353q0 123 -3.5 171.5t-23.5 65.5q-18 17 -43.5 15.5t-69.5 -15.5l-13 36l278 110h42v-736q0 -61 5.5 -91.5t18.5 -44.5q20 -22 41 -27.5t77 -5.5v-38h-449zM387 1043l-294 187q-25 16 -57.5 39t-32.5 50
q0 77 65 77q26 0 58 -19.5t60 -48.5l285 -285h-84z" />
            <glyph glyph-name="iacute" unicode="&#xed;" horiz-adv-x="570" d="M77 0v38q50 0 74.5 6.5t38.5 24.5q13 17 20 45.5t7 92.5v353q0 123 -3.5 171.5t-23.5 65.5q-18 17 -43.5 15.5t-69.5 -15.5l-13 36l278 110h42v-736q0 -61 5.5 -91.5t18.5 -44.5q20 -22 41 -27.5t77 -5.5v-38h-449zM575 1331q0 -30 -25.5 -55t-57.5 -46l-296 -187h-83
l285 285q26 28 58.5 48t65.5 20q15 0 34 -22.5t19 -42.5z" />
            <glyph glyph-name="icircumflex" unicode="&#xee;" horiz-adv-x="570" d="M83 0v38q50 0 74.5 6.5t38.5 24.5q13 17 20 45.5t7 92.5v353q0 123 -3.5 171.5t-23.5 65.5q-18 17 -43.5 15.5t-69.5 -15.5l-13 36l278 110h42v-736q0 -61 5.5 -91.5t18.5 -44.5q20 -22 41 -27.5t77 -5.5v-38h-449zM616 1043h-71l-251 214l-250 -214h-72l259 344h128z
" />
            <glyph glyph-name="idieresis" unicode="&#xef;" horiz-adv-x="570" d="M82 0v38q50 0 74.5 6.5t38.5 24.5q13 17 20 45.5t7 92.5v353q0 123 -3.5 171.5t-23.5 65.5q-18 17 -43.5 15.5t-69.5 -15.5l-13 36l278 110h42v-736q0 -61 5.5 -91.5t18.5 -44.5q20 -22 41 -27.5t77 -5.5v-38h-449zM601 1228q0 -40 -30.5 -71t-72.5 -31q-41 0 -72 31
t-31 71q0 39 32.5 71t70.5 32q42 0 72.5 -31t30.5 -72zM191 1228q0 -40 -30.5 -71t-73.5 -31q-40 0 -70 31t-30 71q0 39 31.5 71t68.5 32q43 0 73.5 -31t30.5 -72z" />
            <glyph glyph-name="eth" unicode="&#xf0;" horiz-adv-x="1005" d="M950 474q0 -127 -53.5 -242.5t-154 -188.5t-242.5 -73q-121 0 -219 62t-156 169.5t-58 241.5q0 128 54.5 240t150 182t217.5 70q43 0 77 -7t92 -51q-40 82 -86.5 155.5t-102.5 139.5l-249 -137l-27 55l232 132q-43 44 -70.5 69t-52.5 44t-63 46l25 43q61 -29 122 -68
t126 -86l249 138l36 -56l-231 -130q185 -163 284.5 -360t99.5 -388zM766 376q0 229 -79 364t-207 135q-58 0 -110 -32.5t-84.5 -110t-33.5 -212.5q-1 -133 36 -241t104 -172t157 -64q93 0 155 78t62 255z" />
            <glyph glyph-name="ntilde" unicode="&#xf1;" horiz-adv-x="1026" d="M26 0v38q86 0 112 32t26 137v342q0 108 -3 158t-9.5 67t-16.5 24q-35 29 -109 -1l-16 36l280 110h41v-192q164 192 308 192q134 0 187.5 -94t53.5 -249v-393q0 -102 25 -135.5t116 -33.5v-38h-459v38q69 0 100.5 13t40.5 49.5t9 106.5v374q0 126 -31.5 182.5t-112.5 56.5
q-57 0 -117 -31.5t-120 -98.5v-483q0 -71 10 -107.5t42 -49t98 -12.5v-38h-455zM805 1344h54q-5 -54 -35.5 -104t-77.5 -82t-105 -32q-55 0 -90.5 14t-63.5 33t-60 33t-81 14q-40 0 -76 -30t-40 -64h-53q20 89 75 149t151 60q51 0 90.5 -23l79 -46t91.5 -23q47 0 88 26.5
t53 74.5z" />
            <glyph glyph-name="ograve" unicode="&#xf2;" horiz-adv-x="1095" d="M505 -30q-129 0 -227 67t-152.5 176.5t-54.5 236.5q0 124 53.5 236.5t153 184.5t236.5 72q133 0 232 -62t154.5 -168t55.5 -238q0 -88 -28 -177.5t-84 -163.5t-141 -119t-198 -45zM546 43q101 0 162 79.5t61 275.5q0 136 -35 245t-99 173t-152 64q-52 0 -104.5 -31.5
t-87.5 -107.5t-35 -209q0 -131 36 -242.5t101.5 -179t152.5 -67.5zM603 1043l-294 187q-25 16 -57.5 39t-32.5 50q0 77 65 77q26 0 58 -19.5t60 -48.5l285 -285h-84z" />
            <glyph glyph-name="oacute" unicode="&#xf3;" horiz-adv-x="1026" d="M503 -30q-129 0 -227 67t-152.5 176.5t-54.5 236.5q0 124 53.5 236.5t153 184.5t236.5 72q133 0 232 -62t154.5 -168t55.5 -238q0 -88 -28 -177.5t-84 -163.5t-141 -119t-198 -45zM544 43q101 0 162 79.5t61 275.5q0 136 -35 245t-99 173t-152 64q-52 0 -104.5 -31.5
t-87.5 -107.5t-35 -209q0 -131 36 -242.5t101.5 -179t152.5 -67.5zM800 1331q0 -30 -25.5 -55t-57.5 -46l-296 -187h-83l285 285q26 28 58.5 48t65.5 20q15 0 34 -22.5t19 -42.5z" />
            <glyph glyph-name="ocircumflex" unicode="&#xf4;" horiz-adv-x="1026" d="M503 -30q-129 0 -227 67t-152.5 176.5t-54.5 236.5q0 124 53.5 236.5t153 184.5t236.5 72q133 0 232 -62t154.5 -168t55.5 -238q0 -88 -28 -177.5t-84 -163.5t-141 -119t-198 -45zM544 43q101 0 162 79.5t61 275.5q0 136 -35 245t-99 173t-152 64q-52 0 -104.5 -31.5
t-87.5 -107.5t-35 -209q0 -131 36 -242.5t101.5 -179t152.5 -67.5zM835 1043h-71l-251 214l-250 -214h-72l259 344h128z" />
            <glyph glyph-name="otilde" unicode="&#xf5;" horiz-adv-x="1026" d="M503 -30q-129 0 -227 67t-152.5 176.5t-54.5 236.5q0 124 53.5 236.5t153 184.5t236.5 72q133 0 232 -62t154.5 -168t55.5 -238q0 -88 -28 -177.5t-84 -163.5t-141 -119t-198 -45zM544 43q101 0 162 79.5t61 275.5q0 136 -35 245t-99 173t-152 64q-52 0 -104.5 -31.5
t-87.5 -107.5t-35 -209q0 -131 36 -242.5t101.5 -179t152.5 -67.5zM797 1344h54q-5 -54 -35.5 -104t-77.5 -82t-105 -32q-55 0 -90.5 14t-63.5 33t-60 33t-81 14q-40 0 -76 -30t-40 -64h-53q20 89 75 149t151 60q51 0 90.5 -23l79 -46t91.5 -23q47 0 88 26.5t53 74.5z" />
            <glyph glyph-name="odieresis" unicode="&#xf6;" horiz-adv-x="1026" d="M503 -30q-129 0 -227 67t-152.5 176.5t-54.5 236.5q0 124 53.5 236.5t153 184.5t236.5 72q133 0 232 -62t154.5 -168t55.5 -238q0 -88 -28 -177.5t-84 -163.5t-141 -119t-198 -45zM544 43q101 0 162 79.5t61 275.5q0 136 -35 245t-99 173t-152 64q-52 0 -104.5 -31.5
t-87.5 -107.5t-35 -209q0 -131 36 -242.5t101.5 -179t152.5 -67.5zM816 1228q0 -40 -30.5 -71t-72.5 -31q-41 0 -72 31t-31 71q0 39 32.5 71t70.5 32q42 0 72.5 -31t30.5 -72zM406 1228q0 -40 -30.5 -71t-73.5 -31q-40 0 -70 31t-30 71q0 39 31.5 71t68.5 32q43 0 73.5 -31
t30.5 -72z" />
            <glyph glyph-name="divide" unicode="&#xf7;" horiz-adv-x="1972" d="M1104 910q0 -51 -34.5 -85.5t-83.5 -34.5t-84 34.5t-35 85.5q0 48 35 82.5t84 34.5t83.5 -34.5t34.5 -82.5zM396 530v123h1181v-123h-1181zM1104 274q0 -49 -34.5 -82.5t-83.5 -33.5t-84 33.5t-35 82.5q0 51 35 85t84 34t83.5 -34t34.5 -85z" />
            <glyph glyph-name="oslash" unicode="&#xf8;" horiz-adv-x="1023" d="M954 475q0 -88 -28 -177.5t-84.5 -163.5t-141 -119t-197.5 -45q-98 0 -176 39q-59 28 -109 74l-135 -150l-47 43l139 155q-44 57 -75 136q-31 86 -31 183q0 124 53.5 236.5t153 184.5t236.5 72q97 0 180 -37q64 -27 112 -72l132 147l46 -45l-133 -148q46 -56 73 -130
q32 -87 32 -183zM690 741q-36 65 -89.5 102t-119.5 37q-52 0 -104.5 -31.5t-87.5 -107.5t-35 -209q0 -96 20 -187q10 -39 23 -78l404 452q-5 14 -11 22zM767 398q0 99 -20 191q-3 17 -8.5 32.5t-10.5 31.5l-403 -449l8 -15q38 -67 92 -106.5t119 -39.5q99 0 161 79.5
t62 275.5z" />
            <glyph glyph-name="ugrave" unicode="&#xf9;" horiz-adv-x="1026" d="M393 -30q-80 0 -127.5 34.5t-71 89t-31 116.5t-7.5 117v410q0 89 -34.5 116t-121.5 27v37h323v-613q0 -53 10.5 -101t43.5 -78.5t98 -30.5q41 0 97 27t132 103v521q0 83 -34.5 108t-112.5 27v37h315v-674q0 -82 14.5 -110t47.5 -28q14 0 35.5 3.5t43.5 11.5l14 -35
l-277 -115h-46v196q-77 -81 -129.5 -123t-94.5 -57.5t-87 -15.5zM606 1043l-294 187q-25 16 -57.5 39t-32.5 50q0 77 65 77q26 0 58 -19.5t60 -48.5l285 -285h-84z" />
            <glyph glyph-name="uacute" unicode="&#xfa;" horiz-adv-x="1026" d="M393 -30q-80 0 -127.5 34.5t-71 89t-31 116.5t-7.5 117v410q0 89 -34.5 116t-121.5 27v37h323v-613q0 -53 10.5 -101t43.5 -78.5t98 -30.5q41 0 97 27t132 103v521q0 83 -34.5 108t-112.5 27v37h315v-674q0 -82 14.5 -110t47.5 -28q14 0 35.5 3.5t43.5 11.5l14 -35
l-277 -115h-46v196q-77 -81 -129.5 -123t-94.5 -57.5t-87 -15.5zM800 1331q0 -30 -25.5 -55t-57.5 -46l-296 -187h-83l285 285q26 28 58.5 48t65.5 20q15 0 34 -22.5t19 -42.5z" />
            <glyph glyph-name="ucircumflex" unicode="&#xfb;" horiz-adv-x="1026" d="M393 -30q-80 0 -127.5 34.5t-71 89t-31 116.5t-7.5 117v410q0 89 -34.5 116t-121.5 27v37h323v-613q0 -53 10.5 -101t43.5 -78.5t98 -30.5q41 0 97 27t132 103v521q0 83 -34.5 108t-112.5 27v37h315v-674q0 -82 14.5 -110t47.5 -28q14 0 35.5 3.5t43.5 11.5l14 -35
l-277 -115h-46v196q-77 -81 -129.5 -123t-94.5 -57.5t-87 -15.5zM833 1043h-71l-251 214l-250 -214h-72l259 344h128z" />
            <glyph glyph-name="udieresis" unicode="&#xfc;" horiz-adv-x="1026" d="M393 -30q-80 0 -127.5 34.5t-71 89t-31 116.5t-7.5 117v410q0 89 -34.5 116t-121.5 27v37h323v-613q0 -53 10.5 -101t43.5 -78.5t98 -30.5q41 0 97 27t132 103v521q0 83 -34.5 108t-112.5 27v37h315v-674q0 -82 14.5 -110t47.5 -28q14 0 35.5 3.5t43.5 11.5l14 -35
l-277 -115h-46v196q-77 -81 -129.5 -123t-94.5 -57.5t-87 -15.5zM820 1228q0 -40 -30.5 -71t-72.5 -31q-41 0 -72 31t-31 71q0 39 32.5 71t70.5 32q42 0 72.5 -31t30.5 -72zM410 1228q0 -40 -30.5 -71t-73.5 -31q-40 0 -70 31t-30 71q0 39 31.5 71t68.5 32q43 0 73.5 -31
t30.5 -72z" />
            <glyph glyph-name="yacute" unicode="&#xfd;" horiz-adv-x="1026" d="M195 -444q-59 0 -97.5 33t-38.5 82q0 40 26.5 65t76.5 25q21 0 51 -8.5t55.5 -17.5t32.5 -9q32 0 67.5 32.5t71.5 119.5l64 160l-329 690q-12 25 -31 58.5t-50.5 61t-82.5 32.5v37h429v-37h-21q-38 0 -65 -17.5t-27 -50.5q0 -39 34 -108l222 -461l206 507q15 27 19 59
t-8 49q-6 6 -19 14t-66 8v37h298v-37q-43 -2 -70 -26t-66 -112l-373 -916q-52 -129 -137 -199.5t-172 -70.5zM835 1331q0 -30 -25.5 -55t-57.5 -46l-296 -187h-83l285 285q26 28 58.5 48t65.5 20q15 0 34 -22.5t19 -42.5z" />
            <glyph glyph-name="thorn" unicode="&#xfe;" horiz-adv-x="1005" d="M957 493q0 -144 -52.5 -262t-147 -188.5t-221.5 -72.5q-61 0 -107 12.5t-110 70.5v-277q0 -72 8.5 -108.5t41.5 -50t105 -17.5v-38h-482v38q72 4 106 14.5t44 47t10 118.5v1350q0 91 -6.5 115t-27.5 35q-15 11 -38.5 13.5t-69.5 -15.5l-12 34l283 112h38v-697
q70 121 141 168.5t153 47.5q102 0 179.5 -59.5t121 -161.5t43.5 -229zM777 398q0 116 -30 207t-85 143t-130 52q-28 0 -52.5 -6t-60.5 -34t-100 -94v-343q0 -110 8 -146q14 -52 65.5 -97.5t139.5 -47.5q113 -1 179 97.5t66 268.5z" />
            <glyph glyph-name="ydieresis" unicode="&#xff;" horiz-adv-x="1026" d="M195 -444q-59 0 -97.5 33t-38.5 82q0 40 26.5 65t76.5 25q21 0 51 -8.5t55.5 -17.5t32.5 -9q32 0 67.5 32.5t71.5 119.5l64 160l-329 690q-12 25 -31 58.5t-50.5 61t-82.5 32.5v37h429v-37h-21q-38 0 -65 -17.5t-27 -50.5q0 -39 34 -108l222 -461l206 507q15 27 19 59
t-8 49q-6 6 -19 14t-66 8v37h298v-37q-43 -2 -70 -26t-66 -112l-373 -916q-52 -129 -137 -199.5t-172 -70.5zM856 1228q0 -40 -30.5 -71t-72.5 -31q-41 0 -72 31t-31 71q0 39 32.5 71t70.5 32q42 0 72.5 -31t30.5 -72zM446 1228q0 -40 -30.5 -71t-73.5 -31q-40 0 -70 31
t-30 71q0 39 31.5 71t68.5 32q43 0 73.5 -31t30.5 -72z" />
            <glyph glyph-name="dotlessi" unicode="&#x131;" horiz-adv-x="570" d="M77 0v38q50 0 74.5 6.5t38.5 24.5q13 17 20 45.5t7 92.5v353q0 123 -3.5 171.5t-23.5 65.5q-18 17 -43.5 15.5t-69.5 -15.5l-13 36l278 110h42v-736q0 -61 5.5 -91.5t18.5 -44.5q20 -22 41 -27.5t77 -5.5v-38h-449z" />
            <glyph glyph-name="gravecomb" unicode="&#x300;" d="M-419 1043l-294 187q-25 16 -57.5 39t-32.5 50q0 77 65 77q26 0 58 -19.5t60 -48.5l285 -285h-84z" />
            <glyph glyph-name="acutecomb" unicode="&#x301;" d="M-225 1331q0 -30 -25.5 -55t-57.5 -46l-296 -187h-83l285 285q26 28 58.5 48t65.5 20q15 0 34 -22.5t19 -42.5z" />
            <glyph glyph-name="uni0302" unicode="&#x302;" d="M-190 1043h-71l-251 214l-250 -214h-72l259 344h128z" />
            <glyph glyph-name="tildecomb" unicode="&#x303;" d="M-225 1344h54q-5 -54 -35.5 -104t-77.5 -82t-105 -32q-55 0 -90.5 14t-63.5 33t-60 33t-81 14q-40 0 -76 -30t-40 -64h-53q20 89 75 149t151 60q51 0 90.5 -23l79 -46t91.5 -23q47 0 88 26.5t53 74.5z" />
            <glyph glyph-name="uni0308" unicode="&#x308;" d="M-205 1228q0 -40 -30.5 -71t-72.5 -31q-41 0 -72 31t-31 71q0 39 32.5 71t70.5 32q42 0 72.5 -31t30.5 -72zM-615 1228q0 -40 -30.5 -71t-73.5 -31q-40 0 -70 31t-30 71q0 39 31.5 71t68.5 32q43 0 73.5 -31t30.5 -72z" />
            <glyph glyph-name="uni030A" unicode="&#x30a;" d="M-321 1235q0 -86 -59 -139t-131 -53q-47 0 -91.5 24t-73 67.5t-28.5 100.5q0 86 58.5 138.5t134.5 52.5q72 0 131 -51.5t59 -139.5zM-389 1235q0 55 -38 88.5t-84 33.5q-49 0 -86.5 -33.5t-37.5 -88.5q0 -58 38.5 -90.5t85.5 -32.5q51 0 86.5 36.5t35.5 86.5z" />
            <glyph glyph-name="uni030C" unicode="&#x30c;" d="M-447 1043h-128l-259 344h72l250 -212l251 212h71z" />
            <glyph glyph-name="uni0327" unicode="&#x327;" d="M-297 -270q0 -54 -39 -93t-99 -59.5t-125 -20.5q-42 0 -85 10t-82 22l30 66q27 -10 64.5 -18t62.5 -8q119 0 119 87q0 35 -20.5 55.5t-54.5 23.5q-24 2 -47.5 -1t-44.5 -9l-17 11l98 229h72l-62 -160q25 7 59 7q65 0 118 -34t53 -108z" />
            <glyph glyph-name="breve" unicode="&#x2d8;" horiz-adv-x="580" d="M580 1366q-6 -88 -38.5 -161.5t-95.5 -117.5t-160 -44q-93 0 -158 44t-98 117.5t-30 161.5h61q12 -54 47 -99.5t82.5 -73t95.5 -27.5q95 0 154.5 58.5t79.5 141.5h60z" />
            <glyph glyph-name="dotaccent" unicode="&#x2d9;" horiz-adv-x="205" d="M205 1228q0 -102 -103 -102q-46 0 -74 28t-28 74t28 74.5t74 28.5q49 0 76 -28t27 -75z" />
            <glyph glyph-name="Ogonek" unicode="&#x2db;" horiz-adv-x="389" d="M527 -174q-34 -34 -77.5 -68.5t-109.5 -34.5q-64 0 -103.5 42t-39.5 100q0 71 38 129t125 106h77q-36 -22 -80 -73.5t-44 -125.5q0 -28 20.5 -56.5t55.5 -28.5q30 0 66.5 16t71.5 48v-54z" />
            <glyph glyph-name="RingAbv" horiz-adv-x="439" d="M439 1419q0 -66 -31.5 -115.5t-81 -77.5t-104.5 -28q-54 0 -105 28t-84 77.5t-33 115.5q0 98 66.5 159t155.5 61q55 0 104.5 -26.5t81 -76t31.5 -117.5zM361 1419q0 63 -43 101.5t-96 38.5q-58 0 -100.5 -38.5t-42.5 -101.5q0 -66 44 -103t99 -37q58 0 98.5 41.5
t40.5 98.5z" />
            <glyph glyph-name="ModMacron" unicode="&#x2c9;" horiz-adv-x="739" d="M0 1294v127h739v-127h-739z" />
            <glyph glyph-name="enQuad" unicode="&#x2000;" horiz-adv-x="1178" />
            <glyph glyph-name="emQuad" unicode="&#x2001;" horiz-adv-x="2355" />
            <glyph glyph-name="enSpace" unicode="&#x2002;" horiz-adv-x="1178" />
            <glyph glyph-name="emSpace" unicode="&#x2003;" horiz-adv-x="2355" />
            <glyph glyph-name="threePerEmSpace" unicode="&#x2004;" horiz-adv-x="784" />
            <glyph glyph-name="fourPerEmSpace" unicode="&#x2005;" horiz-adv-x="589" />
            <glyph glyph-name="sixPerEmSpace" unicode="&#x2006;" horiz-adv-x="393" />
            <glyph glyph-name="figureSpace" unicode="&#x2007;" horiz-adv-x="1026" />
            <glyph glyph-name="punctuationSpace" unicode="&#x2008;" horiz-adv-x="512" />
            <glyph glyph-name="thinSpace" unicode="&#x2009;" horiz-adv-x="230" />
            <glyph glyph-name="hairSpace" unicode="&#x200a;" horiz-adv-x="115" />
            <glyph glyph-name="zerospace" unicode="&#x200b;" />
            <glyph glyph-name="zeronojoin" unicode="&#x200c;" />
            <glyph glyph-name="zerojoin" unicode="&#x200d;" />
            <glyph glyph-name="zeronojoin.showInv" d="M295 1420l-16 -25q-51 34 -99 50.5t-102 21.5l147 -147l-30 -33l-185 182h-22l-181 -180l-32 33l145 145q-53 -5 -101 -20.5t-98 -49.5l-16 23q54 49 110 80t126 41l-164 164l33 30l190 -190l193 194l30 -32l-166 -166q70 -10 126 -41t112 -80zM33 1332q0 -13 -9.5 -23
t-23.5 -10t-23.5 10t-9.5 23q0 33 33 33t33 -33zM33 1182q0 -32 -33 -32t-33 32q0 31 33 31t33 -31zM33 1033q0 -33 -33 -33t-33 33q0 12 9.5 21.5t23.5 9.5t23.5 -9.5t9.5 -21.5zM33 881q0 -30 -33 -30t-33 30q0 33 33 33t33 -33zM33 732q0 -13 -9.5 -23t-23.5 -10
t-23.5 10t-9.5 23q0 33 33 33t33 -33zM33 582q0 -32 -33 -32t-33 32q0 31 33 31t33 -31zM33 433q0 -33 -33 -33t-33 33q0 30 33 30t33 -30zM33 282q0 -32 -33 -32t-33 32q0 31 33 31t33 -31zM33 133q0 -33 -33 -33t-33 33q0 30 33 30t33 -30zM33 -18q0 -32 -33 -32t-33 32
q0 31 33 31t33 -31zM33 -167q0 -33 -33 -33t-33 33q0 30 33 30t33 -30z" />
            <glyph glyph-name="zerojoin.showInv" d="M0 1545q107 0 175 -40.5t120 -84.5q0 -5 -8 -15l-8 -10q-60 42 -122 58t-157 16t-157 -15t-122 -57l-8 9q-8 10 -8 14q50 44 119.5 84.5t175.5 40.5zM33 1332q0 -13 -9.5 -23t-23.5 -10t-23.5 10t-9.5 23q0 33 33 33t33 -33zM33 732q0 -13 -9.5 -23t-23.5 -10t-23.5 10
t-9.5 23q0 33 33 33t33 -33zM33 1033q0 -33 -33 -33t-33 33q0 12 9.5 21.5t23.5 9.5t23.5 -9.5t9.5 -21.5zM33 1182q0 -32 -33 -32t-33 32q0 31 33 31t33 -31zM33 582q0 -32 -33 -32t-33 32q0 31 33 31t33 -31zM33 433q0 -33 -33 -33t-33 33q0 30 33 30t33 -30zM33 881
q0 -30 -33 -30t-33 30q0 33 33 33t33 -33zM33 282q0 -32 -33 -32t-33 32q0 31 33 31t33 -31zM33 133q0 -33 -33 -33t-33 33q0 30 33 30t33 -30zM33 -18q0 -32 -33 -32t-33 32q0 31 33 31t33 -31zM33 -167q0 -33 -33 -33t-33 33q0 30 33 30t33 -30z" />
            <glyph glyph-name="leftToRightMark" unicode="&#x200e;" d="M140 1501l-220 -140v280z" />
            <glyph glyph-name="rightToLeftMark" unicode="&#x200f;" d="M80 1361l-220 140l220 140v-280z" />
            <glyph glyph-name="arabicLetterMark" unicode="&#x61c;" d="M80 1361l-220 140l220 140v-280zM123 1725q0 -9 -12 -9q-8 0 -11 7l-50 136h-139l-51 -136q-4 -7 -12 -7q-11 0 -11 10v1.5v1.5l139 349q3 9 10 9t10 -11l126 -347zM-15 2041l-63 -161h122z" />
            <glyph glyph-name="hyphen" unicode="&#x2010;" horiz-adv-x="682" d="M83 382v153h517v-153h-517z" />
            <glyph glyph-name="hyphen.arab" horiz-adv-x="682" d="M574 532q13 -1 21 -25t9.5 -53.5t-4 -51.5t-18.5 -21q-75 9 -131 8t-106 -6t-106 -6t-131 8q-13 2 -21 25.5t-9.5 53t4 52t18.5 20.5q75 -9 131 -8t106 6t106 6t131 -8z" />
            <glyph glyph-name="noBreakHyphen" unicode="&#x2011;" horiz-adv-x="682" d="M83 382v153h517v-153h-517z" />
            <glyph glyph-name="noBreakHyphen.arab" horiz-adv-x="682" d="M574 532q13 -1 21 -25t9.5 -53.5t-4 -51.5t-18.5 -21q-75 9 -131 8t-106 -6t-106 -6t-131 8q-13 2 -21 25.5t-9.5 53t4 52t18.5 20.5q75 -9 131 -8t106 6t106 6t131 -8z" />
            <glyph glyph-name="figureDash" unicode="&#x2012;" horiz-adv-x="1026" d="M2 382v153h1024v-153h-1024z" />
            <glyph glyph-name="figureDash.arab" horiz-adv-x="1026" d="M1004 532q13 -1 21 -25t9.5 -53.5t-4 -51.5t-18.5 -21q-60 7 -160 7.5t-218.5 -2.5l-237 -6t-218.5 -2.5t-160 7.5q-13 2 -21 25.5t-9.5 53t4 52t18.5 20.5q60 -7 160 -7.5t218.5 2.5l237 6t218.5 3t160 -8z" />
            <glyph glyph-name="horizontalBar" unicode="&#x2015;" horiz-adv-x="1725" d="M2 382v153h1725v-153h-1725z" />
            <glyph glyph-name="horizontalBar.arab" horiz-adv-x="1725" d="M1711 532q13 -1 21 -25t9.5 -53.5t-4 -51.5t-18.5 -21q-43 5 -145.5 6.5t-243.5 0.5t-301 -3t-320.5 -4t-301.5 -3t-243.5 0.5t-145.5 6.5q-13 2 -21 25.5t-9.5 53t4 52t18.5 20.5q43 -5 145.5 -6.5t243.5 -0.5t301.5 3t320.5 4t301 3t243.5 -0.5t145.5 -6.5z" />
            <glyph glyph-name="hyphenationPoint" unicode="&#x2027;" horiz-adv-x="321" d="M261 582q0 -44 -29.5 -72.5t-71.5 -28.5q-43 0 -72 28.5t-29 72.5q0 42 29 70.5t72 28.5q42 0 71.5 -28.5t29.5 -70.5z" />
            <glyph glyph-name="hyphenationPoint.arab" horiz-adv-x="321" d="M261 582q0 -14 -20 -38.5t-44 -43.5t-37 -19t-37.5 19t-44 43.5t-19.5 38.5q0 13 19.5 36.5t44 43t37.5 19.5t37 -19.5t44 -43t20 -36.5z" />
            <glyph glyph-name="lineSeparator" unicode="&#x2028;" />
            <glyph glyph-name="paragraphSeparator" unicode="&#x2029;" />
            <glyph glyph-name="leftToRightEmbedding" unicode="&#x202a;" d="M76 -204v101h-123v1663h47v-1616h76v99l135 -124z" />
            <glyph glyph-name="rightToLeftEmbedding" unicode="&#x202b;" d="M-76 -103v-101l-135 123l135 124v-99h76l-1 1616h48l1 -1663h-124z" />
            <glyph glyph-name="popDirectionalFormatting" unicode="&#x202c;" d="M23 1470v-1596h71v-47h-188v47h71v1596h-100l123 135l123 -135h-100z" />
            <glyph glyph-name="leftToRightOverride" unicode="&#x202d;" d="M76 1488v100h-243v45h243v100l135 -121zM38 1412q0 -15 -11 -26.5t-27 -11.5t-27 11.5t-11 26.5t11 26.5t27 11.5t27 -11.5t11 -26.5zM38 1239q0 -15 -11 -26t-27 -11t-27 11t-11 26t11 25.5t27 10.5t27 -10.5t11 -25.5zM38 1068q0 -16 -11 -27t-27 -11t-27 11t-11 27
q0 14 11 25t27 11t27 -11t11 -25zM38 893q0 -13 -11 -23.5t-27 -10.5t-27 10.5t-11 23.5q0 17 11 27.5t27 10.5t27 -10.5t11 -27.5zM38 722q0 -15 -11 -26.5t-27 -11.5t-27 11.5t-11 26.5t11 26.5t27 11.5t27 -11.5t11 -26.5zM38 549q0 -15 -11 -26t-27 -11t-27 11t-11 26
t11 25.5t27 10.5t27 -10.5t11 -25.5zM38 378q0 -16 -11 -27t-27 -11t-27 11t-11 27q0 14 11 24t27 10t27 -10t11 -24zM38 204q0 -15 -11 -26t-27 -11t-27 11t-11 26t11 25.5t27 10.5t27 -10.5t11 -25.5zM38 33q0 -16 -11 -27t-27 -11t-27 11t-11 27q0 14 11 24t27 10t27 -10
t11 -24zM39 -140q0 -16 -11 -27t-27 -11t-27 11t-11 27q0 14 11 24t27 10t27 -10t11 -24z" />
            <glyph glyph-name="rightToLeftOverride" unicode="&#x202e;" d="M-187 1612l135 121v-100h243v-45h-243v-100zM38 1412q0 -15 -11 -26.5t-27 -11.5t-27 11.5t-11 26.5t11 26.5t27 11.5t27 -11.5t11 -26.5zM38 1239q0 -15 -11 -26t-27 -11t-27 11t-11 26t11 25.5t27 10.5t27 -10.5t11 -25.5zM38 1068q0 -16 -11 -27t-27 -11t-27 11
t-11 27q0 14 11 25t27 11t27 -11t11 -25zM38 893q0 -13 -11 -23.5t-27 -10.5t-27 10.5t-11 23.5q0 17 11 27.5t27 10.5t27 -10.5t11 -27.5zM38 722q0 -15 -11 -26.5t-27 -11.5t-27 11.5t-11 26.5t11 26.5t27 11.5t27 -11.5t11 -26.5zM38 549q0 -15 -11 -26t-27 -11t-27 11
t-11 26t11 25.5t27 10.5t27 -10.5t11 -25.5zM38 378q0 -16 -11 -27t-27 -11t-27 11t-11 27q0 14 11 24t27 10t27 -10t11 -24zM38 204q0 -15 -11 -26t-27 -11t-27 11t-11 26t11 25.5t27 10.5t27 -10.5t11 -25.5zM38 33q0 -16 -11 -27t-27 -11t-27 11t-11 27q0 14 11 24t27 10
t27 -10t11 -24zM38 -140q0 -16 -11 -27t-27 -11t-27 11t-11 27q0 14 11 24t27 10t27 -10t11 -24z" />
            <glyph glyph-name="narrowNoBreakSpace" unicode="&#x202f;" horiz-adv-x="150" />
            <glyph glyph-name="narrowNoBreakSpace.showInv_alt" horiz-adv-x="1182" d="M809 609q-11 0 -13 12v347q3 12 13 12h63q57 0 81 -26t24 -64q0 -28 -12 -50.5t-41 -33.5q32 -13 47.5 -40t15.5 -55q0 -38 -29 -70t-86 -32h-63zM671 159q-2 -13 -11 -13t-12 12v348q3 12 13 12h63q57 0 86 -31t29 -69t-29 -70t-86 -32h-53v-157zM548 161q0 -11 -11 -11
h-187q-10 0 -10 13q0 11 10 11h174v151h-174q-11 0 -11 11v174q0 13 11 13h187q10 0 10 -12q0 -13 -10 -13h-175v-153h175q11 0 11 -9v-175zM819 632h50q48 0 72 24t24 53t-24 57t-72 28h-50v-162zM671 339h50q48 0 72 24t24 53t-24 54t-72 25h-50v-156zM819 821h50
q48 0 67 19t19 48t-19 49t-67 20h-50v-136zM627 1072q0 -15 -11.5 -26.5t-26.5 -11.5q-16 0 -27 11.5t-11 26.5t11 26.5t27 11.5q15 0 26.5 -11.5t11.5 -26.5zM281 1072q0 -15 -11 -26.5t-25 -11.5q-16 0 -27 11.5t-11 26.5t11 26.5t27 11.5q14 0 25 -11.5t11 -26.5z
M971 1072q0 -15 -11.5 -26.5t-26.5 -11.5q-14 0 -25 11.5t-11 26.5t11 26.5t25 11.5q15 0 26.5 -11.5t11.5 -26.5zM452 1072q0 -15 -10.5 -26.5t-25.5 -11.5t-26 11.5t-11 26.5t11 26.5t26 11.5t25.5 -11.5t10.5 -26.5zM1142 1072q0 -15 -10.5 -26.5t-24.5 -11.5
q-16 0 -27 11.5t-11 26.5t11 26.5t27 11.5q14 0 24.5 -11.5t10.5 -26.5zM1142 382q0 -15 -10.5 -26.5t-24.5 -11.5q-16 0 -27 11.5t-11 26.5t11 26.5t27 11.5q14 0 24.5 -11.5t10.5 -26.5zM627 38q0 -16 -11.5 -27t-26.5 -11q-16 0 -27 11t-11 27q0 14 11 24t27 10
q15 0 26.5 -10t11.5 -24zM798 1072q0 -15 -10.5 -26.5t-26.5 -11.5q-14 0 -24.5 11.5t-10.5 26.5t10.5 26.5t24.5 11.5q16 0 26.5 -11.5t10.5 -26.5zM108 382q0 -15 -10.5 -26.5t-27.5 -11.5q-13 0 -23.5 11.5t-10.5 26.5t10.5 26.5t23.5 11.5q17 0 27.5 -11.5t10.5 -26.5z
M108 1072q0 -15 -10.5 -26.5t-27.5 -11.5q-13 0 -23.5 11.5t-10.5 26.5t10.5 26.5t23.5 11.5q17 0 27.5 -11.5t10.5 -26.5zM1142 728q0 -16 -10.5 -27t-24.5 -11q-16 0 -27 11t-11 27q0 14 11 25t27 11q14 0 24.5 -11t10.5 -25zM1142 209q0 -15 -10.5 -26t-24.5 -11
q-16 0 -27 11t-11 26t11 25.5t27 10.5q14 0 24.5 -10.5t10.5 -25.5zM1142 899q0 -15 -10.5 -26t-24.5 -11q-16 0 -27 11t-11 26t11 25.5t27 10.5q14 0 24.5 -10.5t10.5 -25.5zM108 728q0 -38 -38 -38q-13 0 -23.5 11t-10.5 27q0 14 10.5 25t23.5 11q17 0 27.5 -11t10.5 -25z
M281 38q0 -16 -11 -27t-25 -11q-16 0 -27 11t-11 27q0 14 11 24t27 10q14 0 25 -10t11 -24zM971 38q0 -16 -11.5 -27t-26.5 -11q-14 0 -25 11t-11 27q0 14 11 24t25 10q15 0 26.5 -10t11.5 -24zM108 899q0 -15 -10.5 -26t-27.5 -11q-13 0 -23.5 11t-10.5 26t10.5 25.5
t23.5 10.5q38 0 38 -36zM108 209q0 -15 -10.5 -26t-27.5 -11q-13 0 -23.5 11t-10.5 26t10.5 25.5t23.5 10.5q38 0 38 -36zM1142 553q0 -13 -10.5 -23.5t-24.5 -10.5q-16 0 -27 10.5t-11 23.5q0 17 11 27.5t27 10.5q14 0 24.5 -10.5t10.5 -27.5zM452 38q0 -38 -36 -38
q-15 0 -26 11t-11 27q0 14 11 24t26 10t25.5 -10t10.5 -24zM1142 38q0 -16 -10.5 -27t-24.5 -11q-16 0 -27 11t-11 27q0 14 11 24t27 10q14 0 24.5 -10t10.5 -24zM108 553q0 -13 -10.5 -23.5t-27.5 -10.5q-13 0 -23.5 10.5t-10.5 23.5q0 17 10.5 27.5t23.5 10.5q38 0 38 -38
zM798 38q0 -38 -37 -38q-14 0 -24.5 11t-10.5 27q0 14 10.5 24t24.5 10q16 0 26.5 -10t10.5 -24zM108 38q0 -38 -38 -38q-13 0 -23.5 11t-10.5 27q0 14 10.5 24t23.5 10q17 0 27.5 -10t10.5 -24zM377 971q3 12 11 12q9 0 12 -12v-350q0 -12 -13 -12h-13q-9 0 -13 12
l-124 323v-326q-3 -12 -11 -12q-9 0 -12 12v350q0 12 13 12h11q9 0 13 -12l126 -318v321zM667 971q3 12 11 12q9 0 12 -12v-350q0 -12 -13 -12h-13q-9 0 -13 12l-124 323v-326q-3 -12 -11 -12q-9 0 -12 12v350q0 12 13 12h11q9 0 13 -12l126 -318v321z" />
            <glyph glyph-name="wordJoiner" unicode="&#x2060;" horiz-adv-x="1" />
            <glyph glyph-name="inhibitArabicFormShaping" unicode="&#x206c;" d="M553 1072q0 -15 -10.5 -26.5t-24.5 -11.5q-16 0 -27 11.5t-11 26.5t11 26.5t27 11.5q14 0 24.5 -11.5t10.5 -26.5zM382 1072q0 -15 -11.5 -26.5t-26.5 -11.5q-14 0 -25 11.5t-11 26.5t11 26.5t25 11.5q15 0 26.5 -11.5t11.5 -26.5zM553 899q0 -15 -10.5 -26t-24.5 -11
q-16 0 -27 11t-11 26t11 25.5t27 10.5q14 0 24.5 -10.5t10.5 -25.5zM209 1072q0 -15 -10.5 -26.5t-26.5 -11.5q-14 0 -24.5 11.5t-10.5 26.5t10.5 26.5t24.5 11.5q16 0 26.5 -11.5t10.5 -26.5zM553 728q0 -16 -10.5 -27t-24.5 -11q-16 0 -27 11t-11 27q0 14 11 25t27 11
q14 0 24.5 -11t10.5 -25zM38 1072q0 -15 -11.5 -26.5t-26.5 -11.5q-16 0 -27 11.5t-11 26.5t11 26.5t27 11.5q15 0 26.5 -11.5t11.5 -26.5zM553 553q0 -13 -10.5 -23.5t-24.5 -10.5q-16 0 -27 10.5t-11 23.5q0 17 11 27.5t27 10.5q14 0 24.5 -10.5t10.5 -27.5zM-137 1072
q0 -15 -10.5 -26.5t-25.5 -11.5t-26 11.5t-11 26.5t11 26.5t26 11.5t25.5 -11.5t10.5 -26.5zM553 382q0 -15 -10.5 -26.5t-24.5 -11.5q-16 0 -27 11.5t-11 26.5t11 26.5t27 11.5q14 0 24.5 -11.5t10.5 -26.5zM-59 591q-13 0 -13 13q0 11 13 11h47v325h-47q-13 0 -13 12
t13 12h117q13 0 13 -12t-13 -12h-47v-325h47q13 0 13 -11q0 -13 -13 -13h-117zM553 209q0 -15 -10.5 -26t-24.5 -11q-16 0 -27 11t-11 26t11 25.5t27 10.5q14 0 24.5 -10.5t10.5 -25.5zM-308 1072q0 -15 -11 -26.5t-25 -11.5q-16 0 -27 11.5t-11 26.5t11 26.5t27 11.5
q14 0 25 -11.5t11 -26.5zM391 160q0 -12 -12 -12h-186q-10 0 -10 13q0 11 10 11h174v151h-174q-12 0 -12 12v173q0 13 12 13h186q11 0 11 -12t-11 -12h-175v-153h175q12 0 12 -9v-175zM-481 1072q0 -15 -10.5 -26.5t-27.5 -11.5q-13 0 -23.5 11.5t-10.5 26.5t10.5 26.5
t23.5 11.5q17 0 27.5 -11.5t10.5 -26.5zM553 38q0 -16 -10.5 -27t-24.5 -11q-16 0 -27 11t-11 27q0 14 11 24t27 10q14 0 24.5 -10t10.5 -24zM-481 899q0 -15 -10.5 -26t-27.5 -11q-13 0 -23.5 11t-10.5 26t10.5 25.5t23.5 10.5q38 0 38 -36zM382 38q0 -16 -11.5 -27
t-26.5 -11q-14 0 -25 11t-11 27q0 14 11 24t25 10q15 0 26.5 -10t11.5 -24zM-47 497v-153h141q10 0 10 -11q0 -10 -10 -10h-141v-163q0 -11 -12 -11q-11 0 -11 11v348q0 13 11 13h193q13 0 13 -12t-13 -12h-181zM-481 728q0 -38 -38 -38q-13 0 -23.5 11t-10.5 27
q0 14 10.5 25t23.5 11q17 0 27.5 -11t10.5 -25zM209 38q0 -38 -37 -38q-14 0 -24.5 11t-10.5 27q0 14 10.5 24t24.5 10q16 0 26.5 -10t10.5 -24zM-114 160q0 -9 -12 -9q-8 0 -11 7l-50 136h-139l-51 -136q-4 -7 -12 -7q-11 0 -11 10v1.5v1.5l139 349q3 9 10 9t10 -11
l126 -347zM-481 553q0 -13 -10.5 -23.5t-27.5 -10.5q-13 0 -23.5 10.5t-10.5 23.5q0 17 10.5 27.5t23.5 10.5q38 0 38 -38zM38 38q0 -16 -11.5 -27t-26.5 -11q-16 0 -27 11t-11 27q0 14 11 24t27 10q15 0 26.5 -10t11.5 -24zM-481 382q0 -15 -10.5 -26.5t-27.5 -11.5
q-13 0 -23.5 11.5t-10.5 26.5t10.5 26.5t23.5 11.5q17 0 27.5 -11.5t10.5 -26.5zM-137 38q0 -38 -36 -38q-15 0 -26 11t-11 27q0 14 11 24t26 10t25.5 -10t10.5 -24zM-481 209q0 -15 -10.5 -26t-27.5 -11q-13 0 -23.5 11t-10.5 26t10.5 25.5t23.5 10.5q38 0 38 -36zM-308 38
q0 -16 -11 -27t-25 -11q-16 0 -27 11t-11 27q0 14 11 24t27 10q14 0 25 -10t11 -24zM-481 38q0 -38 -38 -38q-13 0 -23.5 11t-10.5 27q0 14 10.5 24t23.5 10q17 0 27.5 -10t10.5 -24zM-252 476l-63 -161h122z" />
            <glyph glyph-name="activateArabicFormShaping" unicode="&#x206d;" horiz-adv-x="1" d="M554 1072q0 -15 -10.5 -26.5t-24.5 -11.5q-16 0 -27 11.5t-11 26.5t11 26.5t27 11.5q14 0 24.5 -11.5t10.5 -26.5zM383 1072q0 -15 -11.5 -26.5t-26.5 -11.5q-14 0 -25 11.5t-11 26.5t11 26.5t25 11.5q15 0 26.5 -11.5t11.5 -26.5zM554 899q0 -15 -10.5 -26t-24.5 -11
q-16 0 -27 11t-11 26t11 25.5t27 10.5q14 0 24.5 -10.5t10.5 -25.5zM210 1072q0 -15 -10.5 -26.5t-26.5 -11.5q-14 0 -24.5 11.5t-10.5 26.5t10.5 26.5t24.5 11.5q16 0 26.5 -11.5t10.5 -26.5zM554 728q0 -16 -10.5 -27t-24.5 -11q-16 0 -27 11t-11 27q0 14 11 25t27 11
q14 0 24.5 -11t10.5 -25zM39 1072q0 -15 -11.5 -26.5t-26.5 -11.5q-16 0 -27 11.5t-11 26.5t11 26.5t27 11.5q15 0 26.5 -11.5t11.5 -26.5zM554 553q0 -13 -10.5 -23.5t-24.5 -10.5q-16 0 -27 10.5t-11 23.5q0 17 11 27.5t27 10.5q14 0 24.5 -10.5t10.5 -27.5zM-136 1072
q0 -15 -10.5 -26.5t-25.5 -11.5t-26 11.5t-11 26.5t11 26.5t26 11.5t25.5 -11.5t10.5 -26.5zM554 382q0 -15 -10.5 -26.5t-24.5 -11.5q-16 0 -27 11.5t-11 26.5t11 26.5t27 11.5q14 0 24.5 -11.5t10.5 -26.5zM139 603q0 -10 -12 -10q-7 0 -11 7l-50 137h-138l-55 -137
q-2 -7 -10 -7q-11 0 -11 11v1.5v1.5l137 349q7 9 12 9q8 0 11 -12l126 -346zM-307 1072q0 -15 -11 -26.5t-25 -11.5q-16 0 -27 11.5t-11 26.5t11 26.5t27 11.5q14 0 25 -11.5t11 -26.5zM554 209q0 -15 -10.5 -26t-24.5 -11q-16 0 -27 11t-11 26t11 25.5t27 10.5
q14 0 24.5 -10.5t10.5 -25.5zM-480 1072q0 -15 -10.5 -26.5t-27.5 -11.5q-13 0 -23.5 11.5t-10.5 26.5t10.5 26.5t23.5 11.5q17 0 27.5 -11.5t10.5 -26.5zM554 38q0 -16 -10.5 -27t-24.5 -11q-16 0 -27 11t-11 27q0 14 11 24t27 10q14 0 24.5 -10t10.5 -24zM-480 899
q0 -15 -10.5 -26t-27.5 -11q-13 0 -23.5 11t-10.5 26t10.5 25.5t23.5 10.5q38 0 38 -36zM383 38q0 -16 -11.5 -27t-26.5 -11q-14 0 -25 11t-11 27q0 14 11 24t25 10q15 0 26.5 -10t11.5 -24zM-46 497v-153h141q10 0 10 -11q0 -10 -10 -10h-141v-163q0 -11 -12 -11
q-11 0 -11 11v348q0 13 11 13h193q13 0 13 -12t-13 -12h-181zM-480 728q0 -38 -38 -38q-13 0 -23.5 11t-10.5 27q0 14 10.5 25t23.5 11q17 0 27.5 -11t10.5 -25zM210 38q0 -38 -37 -38q-14 0 -24.5 11t-10.5 27q0 14 10.5 24t24.5 10q16 0 26.5 -10t10.5 -24zM-480 553
q0 -13 -10.5 -23.5t-27.5 -10.5q-13 0 -23.5 10.5t-10.5 23.5q0 17 10.5 27.5t23.5 10.5q38 0 38 -38zM39 38q0 -16 -11.5 -27t-26.5 -11q-16 0 -27 11t-11 27q0 14 11 24t27 10q15 0 26.5 -10t11.5 -24zM-480 382q0 -15 -10.5 -26.5t-27.5 -11.5q-13 0 -23.5 11.5
t-10.5 26.5t10.5 26.5t23.5 11.5q17 0 27.5 -11.5t10.5 -26.5zM-136 38q0 -38 -36 -38q-15 0 -26 11t-11 27q0 14 11 24t26 10t25.5 -10t10.5 -24zM-480 209q0 -15 -10.5 -26t-27.5 -11q-13 0 -23.5 11t-10.5 26t10.5 25.5t23.5 10.5q38 0 38 -36zM-307 38q0 -16 -11 -27
t-25 -11q-16 0 -27 11t-11 27q0 14 11 24t27 10q14 0 25 -10t11 -24zM-480 38q0 -38 -38 -38q-13 0 -23.5 11t-10.5 27q0 14 10.5 24t23.5 10q17 0 27.5 -10t10.5 -24zM1 919l-63 -161h121zM392 160q0 -12 -12 -12h-186q-10 0 -10 13q0 11 10 11h174v151h-174q-12 0 -12 12
v173q0 13 12 13h186q11 0 11 -12t-11 -12h-175v-153h175q12 0 12 -9v-175zM-113 160q0 -9 -12 -9q-8 0 -11 7l-50 136h-139l-51 -136q-4 -7 -12 -7q-11 0 -11 10v1.5v1.5l139 349q3 9 10 9t10 -11l126 -347zM-251 476l-63 -161h122z" />
            <glyph glyph-name="leftToRightIsolate" unicode="&#x2066;" d="M0 1615h47v-1701h76v99l135 -124l-135 -123v101h-247v1748h47v-1701h77v1701z" />
            <glyph glyph-name="rightToLeftIsolate" unicode="&#x2067;" d="M124 -133h-247v-101l-135 123l135 124v-99h76v1701h47v-1701h77v1701h47v-1742v-6z" />
            <glyph glyph-name="firstStrongIsolate" unicode="&#x2068;" d="M-164 -28h80v1596h-71v47h310v-47h-71v-1596h80l-164 -185zM38 1568h-76v-1596h76v1596z" />
            <glyph glyph-name="popDirectionalIsolate" unicode="&#x2069;" d="M164 1470h-80v-1596h71v-47h-310v47h71v1596h-80l164 185zM-38 -126h76v1596h-76v-1596z" />
            <glyph glyph-name="leftToRightIsolate_alt" d="M554 1072q0 -15 -10.5 -26.5t-24.5 -11.5q-16 0 -27 11.5t-11 26.5t11 26.5t27 11.5q14 0 24.5 -11.5t10.5 -26.5zM383 1072q0 -15 -11.5 -26.5t-26.5 -11.5q-14 0 -25 11.5t-11 26.5t11 26.5t25 11.5q15 0 26.5 -11.5t11.5 -26.5zM554 899q0 -15 -10.5 -26t-24.5 -11
q-16 0 -27 11t-11 26t11 25.5t27 10.5q14 0 24.5 -10.5t10.5 -25.5zM210 1072q0 -15 -10.5 -26.5t-26.5 -11.5q-14 0 -24.5 11.5t-10.5 26.5t10.5 26.5t24.5 11.5q16 0 26.5 -11.5t10.5 -26.5zM554 728q0 -16 -10.5 -27t-24.5 -11q-16 0 -27 11t-11 27q0 14 11 25t27 11
q14 0 24.5 -11t10.5 -25zM39 1072q0 -15 -11.5 -26.5t-26.5 -11.5q-16 0 -27 11.5t-11 26.5t11 26.5t27 11.5q15 0 26.5 -11.5t11.5 -26.5zM554 553q0 -13 -10.5 -23.5t-24.5 -10.5q-16 0 -27 10.5t-11 23.5q0 17 11 27.5t27 10.5q14 0 24.5 -10.5t10.5 -27.5zM-136 1072
q0 -15 -10.5 -26.5t-25.5 -11.5t-26 11.5t-11 26.5t11 26.5t26 11.5t25.5 -11.5t10.5 -26.5zM554 382q0 -15 -10.5 -26.5t-24.5 -11.5q-16 0 -27 11.5t-11 26.5t11 26.5t27 11.5q14 0 24.5 -11.5t10.5 -26.5zM554 209q0 -15 -10.5 -26t-24.5 -11q-16 0 -27 11t-11 26
t11 25.5t27 10.5q14 0 24.5 -10.5t10.5 -25.5zM-307 1072q0 -15 -11 -26.5t-25 -11.5q-16 0 -27 11.5t-11 26.5t11 26.5t27 11.5q14 0 25 -11.5t11 -26.5zM-480 1072q0 -15 -10.5 -26.5t-27.5 -11.5q-13 0 -23.5 11.5t-10.5 26.5t10.5 26.5t23.5 11.5q17 0 27.5 -11.5
t10.5 -26.5zM554 38q0 -16 -10.5 -27t-24.5 -11q-16 0 -27 11t-11 27q0 14 11 24t27 10q14 0 24.5 -10t10.5 -24zM-480 899q0 -15 -10.5 -26t-27.5 -11q-13 0 -23.5 11t-10.5 26t10.5 25.5t23.5 10.5q38 0 38 -36zM383 38q0 -16 -11.5 -27t-26.5 -11q-14 0 -25 11t-11 27
q0 14 11 24t25 10q15 0 26.5 -10t11.5 -24zM-480 728q0 -38 -38 -38q-13 0 -23.5 11t-10.5 27q0 14 10.5 25t23.5 11q17 0 27.5 -11t10.5 -25zM210 38q0 -38 -37 -38q-14 0 -24.5 11t-10.5 27q0 14 10.5 24t24.5 10q16 0 26.5 -10t10.5 -24zM-480 553q0 -13 -10.5 -23.5
t-27.5 -10.5q-13 0 -23.5 10.5t-10.5 23.5q0 17 10.5 27.5t23.5 10.5q38 0 38 -38zM39 38q0 -16 -11.5 -27t-26.5 -11q-16 0 -27 11t-11 27q0 14 11 24t27 10q15 0 26.5 -10t11.5 -24zM-480 382q0 -15 -10.5 -26.5t-27.5 -11.5q-13 0 -23.5 11.5t-10.5 26.5t10.5 26.5
t23.5 11.5q17 0 27.5 -11.5t10.5 -26.5zM-136 38q0 -38 -36 -38q-15 0 -26 11t-11 27q0 14 11 24t26 10t25.5 -10t10.5 -24zM-480 209q0 -15 -10.5 -26t-27.5 -11q-13 0 -23.5 11t-10.5 26t10.5 25.5t23.5 10.5q38 0 38 -36zM-307 38q0 -16 -11 -27t-25 -11q-16 0 -27 11
t-11 27q0 14 11 24t27 10q14 0 25 -10t11 -24zM-480 38q0 -38 -38 -38q-13 0 -23.5 11t-10.5 27q0 14 10.5 24t23.5 10q17 0 27.5 -10t10.5 -24zM-125 369q13 0 13 -13q0 -11 -13 -11h-193q-11 0 -11 13v348q0 10 11 10q12 0 12 -10v-337h181zM186 345q-13 0 -13 13
q0 11 13 11h47v324h-47q-13 0 -13 13q0 12 13 12h117q13 0 13 -12q0 -13 -13 -13h-47v-324h47q13 0 13 -11q0 -13 -13 -13h-117zM-43 359q-2 -13 -11 -13q-10 0 -12 12v348q2 12 13 12h63q57 0 86 -31t29 -69q0 -31 -19.5 -58.5t-57.5 -38.5l79 -160q1 -2 1 -6
q0 -10 -11 -10q-8 0 -10 6l-82 165h-68v-157zM-43 539h50q48 0 72 24t24 53t-24 54t-72 25h-50v-156z" />
            <glyph glyph-name="rightToLeftIsolate_alt" d="M553 1072q0 -15 -10.5 -26.5t-24.5 -11.5q-16 0 -27 11.5t-11 26.5t11 26.5t27 11.5q14 0 24.5 -11.5t10.5 -26.5zM382 1072q0 -15 -11.5 -26.5t-26.5 -11.5q-14 0 -25 11.5t-11 26.5t11 26.5t25 11.5q15 0 26.5 -11.5t11.5 -26.5zM553 899q0 -15 -10.5 -26t-24.5 -11
q-16 0 -27 11t-11 26t11 25.5t27 10.5q14 0 24.5 -10.5t10.5 -25.5zM209 1072q0 -15 -10.5 -26.5t-26.5 -11.5q-14 0 -24.5 11.5t-10.5 26.5t10.5 26.5t24.5 11.5q16 0 26.5 -11.5t10.5 -26.5zM553 728q0 -16 -10.5 -27t-24.5 -11q-16 0 -27 11t-11 27q0 14 11 25t27 11
q14 0 24.5 -11t10.5 -25zM38 1072q0 -15 -11.5 -26.5t-26.5 -11.5q-16 0 -27 11.5t-11 26.5t11 26.5t27 11.5q15 0 26.5 -11.5t11.5 -26.5zM553 553q0 -13 -10.5 -23.5t-24.5 -10.5q-16 0 -27 10.5t-11 23.5q0 17 11 27.5t27 10.5q14 0 24.5 -10.5t10.5 -27.5zM-137 1072
q0 -15 -10.5 -26.5t-25.5 -11.5t-26 11.5t-11 26.5t11 26.5t26 11.5t25.5 -11.5t10.5 -26.5zM553 382q0 -15 -10.5 -26.5t-24.5 -11.5q-16 0 -27 11.5t-11 26.5t11 26.5t27 11.5q14 0 24.5 -11.5t10.5 -26.5zM553 209q0 -15 -10.5 -26t-24.5 -11q-16 0 -27 11t-11 26
t11 25.5t27 10.5q14 0 24.5 -10.5t10.5 -25.5zM-308 1072q0 -15 -11 -26.5t-25 -11.5q-16 0 -27 11.5t-11 26.5t11 26.5t27 11.5q14 0 25 -11.5t11 -26.5zM-481 1072q0 -15 -10.5 -26.5t-27.5 -11.5q-13 0 -23.5 11.5t-10.5 26.5t10.5 26.5t23.5 11.5q17 0 27.5 -11.5
t10.5 -26.5zM553 38q0 -16 -10.5 -27t-24.5 -11q-16 0 -27 11t-11 27q0 14 11 24t27 10q14 0 24.5 -10t10.5 -24zM-481 899q0 -15 -10.5 -26t-27.5 -11q-13 0 -23.5 11t-10.5 26t10.5 25.5t23.5 10.5q38 0 38 -36zM382 38q0 -16 -11.5 -27t-26.5 -11q-14 0 -25 11t-11 27
q0 14 11 24t25 10q15 0 26.5 -10t11.5 -24zM-481 728q0 -38 -38 -38q-13 0 -23.5 11t-10.5 27q0 14 10.5 25t23.5 11q17 0 27.5 -11t10.5 -25zM209 38q0 -38 -37 -38q-14 0 -24.5 11t-10.5 27q0 14 10.5 24t24.5 10q16 0 26.5 -10t10.5 -24zM-481 553q0 -13 -10.5 -23.5
t-27.5 -10.5q-13 0 -23.5 10.5t-10.5 23.5q0 17 10.5 27.5t23.5 10.5q38 0 38 -38zM38 38q0 -16 -11.5 -27t-26.5 -11q-16 0 -27 11t-11 27q0 14 11 24t27 10q15 0 26.5 -10t11.5 -24zM-481 382q0 -15 -10.5 -26.5t-27.5 -11.5q-13 0 -23.5 11.5t-10.5 26.5t10.5 26.5
t23.5 11.5q17 0 27.5 -11.5t10.5 -26.5zM-137 38q0 -38 -36 -38q-15 0 -26 11t-11 27q0 14 11 24t26 10t25.5 -10t10.5 -24zM-481 209q0 -15 -10.5 -26t-27.5 -11q-13 0 -23.5 11t-10.5 26t10.5 25.5t23.5 10.5q38 0 38 -36zM-308 38q0 -16 -11 -27t-25 -11q-16 0 -27 11
t-11 27q0 14 11 24t27 10q14 0 25 -10t11 -24zM-481 38q0 -38 -38 -38q-13 0 -23.5 11t-10.5 27q0 14 10.5 24t23.5 10q17 0 27.5 -10t10.5 -24zM116 369q13 0 13 -13q0 -11 -13 -11h-193q-12 0 -12 13v348q0 10 12 10q11 0 11 -10v-337h182zM185 345q-13 0 -13 13
q0 11 13 11h47v324h-47q-13 0 -13 13q0 12 13 12h117q13 0 13 -12q0 -13 -13 -13h-47v-324h47q13 0 13 -11q0 -13 -13 -13h-117zM-307 359q-2 -13 -12 -13q-9 0 -11 12v348q2 12 12 12h64q57 0 86 -31t29 -69q0 -31 -19.5 -58.5t-57.5 -38.5l79 -160q1 -2 1 -6
q0 -10 -11 -10q-7 0 -11 6l-81 165h-68v-157zM-307 539h49q49 0 73 24t24 53t-24 54t-73 25h-49v-156z" />
            <glyph glyph-name="firstStrongIsolate_alt" d="M553 1072q0 -15 -10.5 -26.5t-24.5 -11.5q-16 0 -27 11.5t-11 26.5t11 26.5t27 11.5q14 0 24.5 -11.5t10.5 -26.5zM382 1072q0 -15 -11.5 -26.5t-26.5 -11.5q-14 0 -25 11.5t-11 26.5t11 26.5t25 11.5q15 0 26.5 -11.5t11.5 -26.5zM553 899q0 -15 -10.5 -26t-24.5 -11
q-16 0 -27 11t-11 26t11 25.5t27 10.5q14 0 24.5 -10.5t10.5 -25.5zM209 1072q0 -15 -10.5 -26.5t-26.5 -11.5q-14 0 -24.5 11.5t-10.5 26.5t10.5 26.5t24.5 11.5q16 0 26.5 -11.5t10.5 -26.5zM553 728q0 -16 -10.5 -27t-24.5 -11q-16 0 -27 11t-11 27q0 14 11 25t27 11
q14 0 24.5 -11t10.5 -25zM38 1072q0 -15 -11.5 -26.5t-26.5 -11.5q-16 0 -27 11.5t-11 26.5t11 26.5t27 11.5q15 0 26.5 -11.5t11.5 -26.5zM553 553q0 -13 -10.5 -23.5t-24.5 -10.5q-16 0 -27 10.5t-11 23.5q0 17 11 27.5t27 10.5q14 0 24.5 -10.5t10.5 -27.5zM-137 1072
q0 -15 -10.5 -26.5t-25.5 -11.5t-26 11.5t-11 26.5t11 26.5t26 11.5t25.5 -11.5t10.5 -26.5zM553 382q0 -15 -10.5 -26.5t-24.5 -11.5q-16 0 -27 11.5t-11 26.5t11 26.5t27 11.5q14 0 24.5 -11.5t10.5 -26.5zM553 209q0 -15 -10.5 -26t-24.5 -11q-16 0 -27 11t-11 26
t11 25.5t27 10.5q14 0 24.5 -10.5t10.5 -25.5zM-308 1072q0 -15 -11 -26.5t-25 -11.5q-16 0 -27 11.5t-11 26.5t11 26.5t27 11.5q14 0 25 -11.5t11 -26.5zM-481 1072q0 -15 -10.5 -26.5t-27.5 -11.5q-13 0 -23.5 11.5t-10.5 26.5t10.5 26.5t23.5 11.5q17 0 27.5 -11.5
t10.5 -26.5zM553 38q0 -16 -10.5 -27t-24.5 -11q-16 0 -27 11t-11 27q0 14 11 24t27 10q14 0 24.5 -10t10.5 -24zM-481 899q0 -15 -10.5 -26t-27.5 -11q-13 0 -23.5 11t-10.5 26t10.5 25.5t23.5 10.5q38 0 38 -36zM382 38q0 -16 -11.5 -27t-26.5 -11q-14 0 -25 11t-11 27
q0 14 11 24t25 10q15 0 26.5 -10t11.5 -24zM-481 728q0 -38 -38 -38q-13 0 -23.5 11t-10.5 27q0 14 10.5 25t23.5 11q17 0 27.5 -11t10.5 -25zM209 38q0 -38 -37 -38q-14 0 -24.5 11t-10.5 27q0 14 10.5 24t24.5 10q16 0 26.5 -10t10.5 -24zM-481 553q0 -13 -10.5 -23.5
t-27.5 -10.5q-13 0 -23.5 10.5t-10.5 23.5q0 17 10.5 27.5t23.5 10.5q38 0 38 -38zM38 38q0 -16 -11.5 -27t-26.5 -11q-16 0 -27 11t-11 27q0 14 11 24t27 10q15 0 26.5 -10t11.5 -24zM-481 382q0 -15 -10.5 -26.5t-27.5 -11.5q-13 0 -23.5 11.5t-10.5 26.5t10.5 26.5
t23.5 11.5q17 0 27.5 -11.5t10.5 -26.5zM-137 38q0 -38 -36 -38q-15 0 -26 11t-11 27q0 14 11 24t26 10t25.5 -10t10.5 -24zM-481 209q0 -15 -10.5 -26t-27.5 -11q-13 0 -23.5 11t-10.5 26t10.5 25.5t23.5 10.5q38 0 38 -36zM-308 38q0 -16 -11 -27t-25 -11q-16 0 -27 11
t-11 27q0 14 11 24t27 10q14 0 25 -10t11 -24zM-481 38q0 -38 -38 -38q-13 0 -23.5 11t-10.5 27q0 14 10.5 24t23.5 10q17 0 27.5 -10t10.5 -24zM-298 693v-153h141q11 0 11 -10t-11 -10h-141v-164q0 -10 -12 -10q-11 0 -11 10v349q0 13 11 13h194q12 0 12 -12
q0 -13 -12 -13h-182zM140 356q0 -11 -11 -11h-187q-10 0 -10 13q0 11 10 11h174v151h-174q-11 0 -11 11v174q0 13 11 13h187q10 0 10 -12q0 -13 -10 -13h-175v-153h175q11 0 11 -9v-175zM198 345q-13 0 -13 13q0 11 13 11h47v324h-47q-13 0 -13 13q0 12 13 12h117
q13 0 13 -12q0 -13 -13 -13h-47v-324h47q13 0 13 -11q0 -13 -13 -13h-117z" />
            <glyph glyph-name="popDirectionalIsolate_alt" d="M553 1072q0 -15 -10.5 -26.5t-24.5 -11.5q-16 0 -27 11.5t-11 26.5t11 26.5t27 11.5q14 0 24.5 -11.5t10.5 -26.5zM382 1072q0 -15 -11.5 -26.5t-26.5 -11.5q-14 0 -25 11.5t-11 26.5t11 26.5t25 11.5q15 0 26.5 -11.5t11.5 -26.5zM553 899q0 -15 -10.5 -26t-24.5 -11
q-16 0 -27 11t-11 26t11 25.5t27 10.5q14 0 24.5 -10.5t10.5 -25.5zM209 1072q0 -15 -10.5 -26.5t-26.5 -11.5q-14 0 -24.5 11.5t-10.5 26.5t10.5 26.5t24.5 11.5q16 0 26.5 -11.5t10.5 -26.5zM553 728q0 -16 -10.5 -27t-24.5 -11q-16 0 -27 11t-11 27q0 14 11 25t27 11
q14 0 24.5 -11t10.5 -25zM38 1072q0 -15 -11.5 -26.5t-26.5 -11.5q-16 0 -27 11.5t-11 26.5t11 26.5t27 11.5q15 0 26.5 -11.5t11.5 -26.5zM553 553q0 -13 -10.5 -23.5t-24.5 -10.5q-16 0 -27 10.5t-11 23.5q0 17 11 27.5t27 10.5q14 0 24.5 -10.5t10.5 -27.5zM-137 1072
q0 -15 -10.5 -26.5t-25.5 -11.5t-26 11.5t-11 26.5t11 26.5t26 11.5t25.5 -11.5t10.5 -26.5zM553 382q0 -15 -10.5 -26.5t-24.5 -11.5q-16 0 -27 11.5t-11 26.5t11 26.5t27 11.5q14 0 24.5 -11.5t10.5 -26.5zM553 209q0 -15 -10.5 -26t-24.5 -11q-16 0 -27 11t-11 26
t11 25.5t27 10.5q14 0 24.5 -10.5t10.5 -25.5zM-308 1072q0 -15 -11 -26.5t-25 -11.5q-16 0 -27 11.5t-11 26.5t11 26.5t27 11.5q14 0 25 -11.5t11 -26.5zM-481 1072q0 -15 -10.5 -26.5t-27.5 -11.5q-13 0 -23.5 11.5t-10.5 26.5t10.5 26.5t23.5 11.5q17 0 27.5 -11.5
t10.5 -26.5zM553 38q0 -16 -10.5 -27t-24.5 -11q-16 0 -27 11t-11 27q0 14 11 24t27 10q14 0 24.5 -10t10.5 -24zM-481 899q0 -15 -10.5 -26t-27.5 -11q-13 0 -23.5 11t-10.5 26t10.5 25.5t23.5 10.5q38 0 38 -36zM382 38q0 -16 -11.5 -27t-26.5 -11q-14 0 -25 11t-11 27
q0 14 11 24t25 10q15 0 26.5 -10t11.5 -24zM-481 728q0 -38 -38 -38q-13 0 -23.5 11t-10.5 27q0 14 10.5 25t23.5 11q17 0 27.5 -11t10.5 -25zM209 38q0 -38 -37 -38q-14 0 -24.5 11t-10.5 27q0 14 10.5 24t24.5 10q16 0 26.5 -10t10.5 -24zM-481 553q0 -13 -10.5 -23.5
t-27.5 -10.5q-13 0 -23.5 10.5t-10.5 23.5q0 17 10.5 27.5t23.5 10.5q38 0 38 -38zM38 38q0 -16 -11.5 -27t-26.5 -11q-16 0 -27 11t-11 27q0 14 11 24t27 10q15 0 26.5 -10t11.5 -24zM-481 382q0 -15 -10.5 -26.5t-27.5 -11.5q-13 0 -23.5 11.5t-10.5 26.5t10.5 26.5
t23.5 11.5q17 0 27.5 -11.5t10.5 -26.5zM-137 38q0 -38 -36 -38q-15 0 -26 11t-11 27q0 14 11 24t26 10t25.5 -10t10.5 -24zM-481 209q0 -15 -10.5 -26t-27.5 -11q-13 0 -23.5 11t-10.5 26t10.5 25.5t23.5 10.5q38 0 38 -36zM-308 38q0 -16 -11 -27t-25 -11q-16 0 -27 11
t-11 27q0 14 11 24t27 10q14 0 25 -10t11 -24zM-481 38q0 -38 -38 -38q-13 0 -23.5 11t-10.5 27q0 14 10.5 24t23.5 10q17 0 27.5 -10t10.5 -24zM177 345q-13 0 -13 13q0 11 13 11h47v324h-47q-13 0 -13 13q0 12 13 12h117q13 0 13 -12q0 -13 -13 -13h-47v-324h47
q13 0 13 -11q0 -13 -13 -13h-117zM-287 359q-2 -13 -11 -13t-12 12v348q3 12 13 12h63q57 0 86 -31t29 -69t-29 -70t-86 -32h-53v-157zM-287 539h50q48 0 72 24t24 53t-24 54t-72 25h-50v-156zM-73 706q2 12 13 12h63q57 0 86 -31t29 -69v-172q0 -37 -29 -69t-86 -32h-76
v361zM-50 368h50q48 0 72 24t24 53v171q0 29 -24 54t-72 25h-50v-327z" />
            <glyph glyph-name="circledash" unicode="&#x25cc;" horiz-adv-x="1066" d="M420 857q3 -10 3 -20q0 -19 -12.5 -33.5t-32.5 -14.5q-19 0 -34.5 14t-15.5 34q0 18 14.5 33t34.5 15q31 0 43 -28zM735 97q1 -4 2 -8.5t1 -9.5q0 -18 -13.5 -33t-34.5 -15q-18 0 -32.5 14t-14.5 35q0 17 13 31.5t32 14.5q33 0 47 -29zM275 782q15 -13 15 -32
q0 -49 -47 -49q-20 0 -34 13.5t-14 32.5q0 20 14.5 35t33.5 15q17 0 32 -15zM858 202q14 -16 14 -34q0 -19 -14 -33t-35 -14q-19 0 -33.5 14t-14.5 33q0 20 13.5 33.5t32.5 13.5q21 0 37 -13zM171 659q31 -13 31 -46q0 -19 -15.5 -32.5t-33.5 -13.5q-21 0 -34 15t-13 33
q0 21 14.5 35t32.5 14q5 0 9.5 -1.5t8.5 -3.5zM930 345q30 -13 30 -44q0 -20 -14.5 -33.5t-33.5 -13.5q-22 0 -34.5 14.5t-12.5 32.5q0 23 15 35t33 12q11 0 17 -3zM122 505q19 0 34 -13.5t15 -32.5q0 -20 -15 -34t-33 -14h-2q-19 0 -32.5 14.5t-13.5 32.5q0 20 13.5 33.5
t33.5 13.5zM943 506q20 0 34 -14t14 -34q0 -18 -13.5 -32t-33.5 -14h-3q-18 0 -31.5 14t-13.5 32q0 20 15 33.5t32 14.5zM135 344q8 4 19 4q20 0 34 -13t14 -33q0 -19 -14 -34t-34 -15q-19 0 -33.5 14.5t-14.5 34.5q0 31 29 42zM895 659q4 2 8.5 3.5t8.5 1.5q18 0 33 -14
t15 -35q0 -18 -13.5 -33t-34.5 -15q-18 0 -32 14t-14 33q0 33 29 45zM209 200q15 15 32 15q21 0 35 -13.5t14 -33.5q0 -19 -13.5 -33.5t-33.5 -14.5q-19 0 -33.5 14.5t-14.5 33.5q0 18 14 32zM789 782q17 15 34 15q20 0 34 -14.5t14 -33.5q0 -20 -14 -34.5t-34 -14.5
q-19 0 -33 15t-14 34q0 20 13 33zM332 97q14 29 45 29q20 0 33.5 -15t13.5 -33q0 -20 -15 -33.5t-33 -13.5q-19 0 -33.5 15t-14.5 32q0 5 4 19zM646 856q13 29 44 29q21 0 34.5 -15t13.5 -34t-15 -33t-33 -14q-19 0 -33 15.5t-14 33.5q0 9 3 18zM486 47q0 20 14 34t34 14
q19 0 33 -14t14 -34q0 -19 -14 -33t-33 -14q-20 0 -34 14t-14 33zM486 868q0 20 14 34.5t34 14.5q19 0 33 -14.5t14 -34.5q0 -19 -14 -33t-33 -14q-20 0 -34 14t-14 33z" />
            <glyph glyph-name="FontBslnSideBrngMrkrLft" unicode="&#xf130;" horiz-adv-x="391" d="M346 -339v294h-294v45h339v-339h-45z" />
            <glyph glyph-name="FontBslnSideBrngMrkrRt" unicode="&#xf131;" horiz-adv-x="391" d="M45 -45v-294h-45v339h339v-45h-294z" />
            <glyph glyph-name="zeroWidthNoBreakSpace" unicode="&#xfeff;" />
            <glyph glyph-name="zeroWidthNoBreakSpace.showInv" d="M33 1232q0 -13 -9.5 -23t-23.5 -10t-23.5 10t-9.5 23q0 33 33 33t33 -33zM33 632q0 -13 -9.5 -23t-23.5 -10t-23.5 10t-9.5 23q0 33 33 33t33 -33zM33 933q0 -33 -33 -33t-33 33q0 12 9.5 21.5t23.5 9.5t23.5 -9.5t9.5 -21.5zM33 1082q0 -32 -33 -32t-33 32q0 31 33 31
t33 -31zM33 482q0 -32 -33 -32t-33 32q0 31 33 31t33 -31zM33 333q0 -33 -33 -33t-33 33q0 30 33 30t33 -30zM33 781q0 -30 -33 -30t-33 30q0 33 33 33t33 -33zM33 182q0 -32 -33 -32t-33 32q0 31 33 31t33 -31zM33 33q0 -33 -33 -33t-33 33q0 30 33 30t33 -30zM33 -117
q0 -33 -33 -33t-33 33q0 30 33 30t33 -30zM33 1532q0 -13 -9.5 -23t-23.5 -10t-23.5 10t-9.5 23q0 33 33 33t33 -33zM33 1382q0 -32 -33 -32t-33 32q0 31 33 31t33 -31z" />
            <glyph glyph-name="zeroWidthNoBreakSpace.showInv_alt" d="M-361 150q-11 0 -13 12v347q3 12 13 12h63q57 0 81 -26t24 -64q0 -28 -12 -50.5t-41 -33.5q32 -13 47.5 -40t15.5 -55q0 -38 -29 -70t-86 -32h-62h-1zM243 159q-2 -13 -11 -13t-12 12v348q3 12 13 12h63q57 0 86 -31t29 -69t-29 -70t-86 -32h-53v-157zM120 161
q0 -11 -11 -11h-187q-10 0 -10 13q0 11 10 11h174v151h-174q-11 0 -11 11v174q0 13 11 13h187q10 0 10 -12q0 -13 -10 -13h-175v-153h175q11 0 11 -9v-175zM-351 173h50q48 0 72 24t24 53t-24 57t-72 28h-50v-162zM243 339h50q48 0 72 24t24 53t-24 54t-72 25h-50v-156z
M-351 362h50q48 0 67 19t19 48t-19 49t-67 20h-50v-136zM-366 623l131 323h-140q-10 0 -10 13q0 11 10 11h165q8 0 10 -7q1 -4 -0.5 -8.5t-2.5 -6.5l-133 -322h140q10 0 10 -12q0 -13 -10 -13h-163q-8 0 -10 7q-1 4 0.5 8.5t2.5 6.5zM38 1072q0 -15 -11.5 -26.5t-26.5 -11.5
q-16 0 -27 11.5t-11 26.5t11 26.5t27 11.5q15 0 26.5 -11.5t11.5 -26.5zM-308 1072q0 -15 -11 -26.5t-25 -11.5q-16 0 -27 11.5t-11 26.5t11 26.5t27 11.5q14 0 25 -11.5t11 -26.5zM382 1072q0 -15 -11.5 -26.5t-26.5 -11.5q-14 0 -25 11.5t-11 26.5t11 26.5t25 11.5
q15 0 26.5 -11.5t11.5 -26.5zM-137 1072q0 -15 -10.5 -26.5t-25.5 -11.5t-26 11.5t-11 26.5t11 26.5t26 11.5t25.5 -11.5t10.5 -26.5zM553 1072q0 -15 -10.5 -26.5t-24.5 -11.5q-16 0 -27 11.5t-11 26.5t11 26.5t27 11.5q14 0 24.5 -11.5t10.5 -26.5zM553 382
q0 -15 -10.5 -26.5t-24.5 -11.5q-16 0 -27 11.5t-11 26.5t11 26.5t27 11.5q14 0 24.5 -11.5t10.5 -26.5zM38 38q0 -16 -11.5 -27t-26.5 -11q-16 0 -27 11t-11 27q0 14 11 24t27 10q15 0 26.5 -10t11.5 -24zM209 1072q0 -15 -10.5 -26.5t-26.5 -11.5q-14 0 -24.5 11.5
t-10.5 26.5t10.5 26.5t24.5 11.5q16 0 26.5 -11.5t10.5 -26.5zM-481 382q0 -15 -10.5 -26.5t-27.5 -11.5q-13 0 -23.5 11.5t-10.5 26.5t10.5 26.5t23.5 11.5q17 0 27.5 -11.5t10.5 -26.5zM-481 1072q0 -15 -10.5 -26.5t-27.5 -11.5q-13 0 -23.5 11.5t-10.5 26.5t10.5 26.5
t23.5 11.5q17 0 27.5 -11.5t10.5 -26.5zM553 728q0 -16 -10.5 -27t-24.5 -11q-16 0 -27 11t-11 27q0 14 11 25t27 11q14 0 24.5 -11t10.5 -25zM553 209q0 -15 -10.5 -26t-24.5 -11q-16 0 -27 11t-11 26t11 25.5t27 10.5q14 0 24.5 -10.5t10.5 -25.5zM553 899
q0 -15 -10.5 -26t-24.5 -11q-16 0 -27 11t-11 26t11 25.5t27 10.5q14 0 24.5 -10.5t10.5 -25.5zM-481 728q0 -38 -38 -38q-13 0 -23.5 11t-10.5 27q0 14 10.5 25t23.5 11q17 0 27.5 -11t10.5 -25zM-308 38q0 -16 -11 -27t-25 -11q-16 0 -27 11t-11 27q0 14 11 24t27 10
q14 0 25 -10t11 -24zM382 38q0 -16 -11.5 -27t-26.5 -11q-14 0 -25 11t-11 27q0 14 11 24t25 10q15 0 26.5 -10t11.5 -24zM-481 899q0 -15 -10.5 -26t-27.5 -11q-13 0 -23.5 11t-10.5 26t10.5 25.5t23.5 10.5q38 0 38 -36zM-481 209q0 -15 -10.5 -26t-27.5 -11
q-13 0 -23.5 11t-10.5 26t10.5 25.5t23.5 10.5q38 0 38 -36zM553 553q0 -13 -10.5 -23.5t-24.5 -10.5q-16 0 -27 10.5t-11 23.5q0 17 11 27.5t27 10.5q14 0 24.5 -10.5t10.5 -27.5zM-137 38q0 -38 -36 -38q-15 0 -26 11t-11 27q0 14 11 24t26 10t25.5 -10t10.5 -24zM553 38
q0 -16 -10.5 -27t-24.5 -11q-16 0 -27 11t-11 27q0 14 11 24t27 10q14 0 24.5 -10t10.5 -24zM-481 553q0 -13 -10.5 -23.5t-27.5 -10.5q-13 0 -23.5 10.5t-10.5 23.5q0 17 10.5 27.5t23.5 10.5q38 0 38 -38zM209 38q0 -38 -37 -38q-14 0 -24.5 11t-10.5 27q0 14 10.5 24
t24.5 10q16 0 26.5 -10t10.5 -24zM-481 38q0 -38 -38 -38q-13 0 -23.5 11t-10.5 27q0 14 10.5 24t23.5 10q17 0 27.5 -10t10.5 -24zM-68 614q-3 -12 -12 -12q-10 0 -12 12l-5 35.5t-12.5 88t-15.5 104.5t-13 87.5l-5 35.5q-1 5 3.5 8.5t6.5 3.5q12 0 13 -12l45 -287l70 218
q3 12 12 12t12 -12l69 -216l48 285q2 12 13 12q12 0 10 -12l-59 -351q-2 -12 -12 -12q-9 0 -12 12q0 11 -68 241zM378 961q3 12 11 12q9 0 12 -12v-350q0 -12 -13 -12h-13q-9 0 -13 12l-124 323v-326q-3 -12 -11 -12q-9 0 -12 12v350q0 12 13 12h11q9 0 13 -12l126 -318v321
z" />
            <glyph glyph-name="nobreakspace.showInv_xtight" horiz-adv-x="75" d="M120 599q-11 0 -13 12v347q3 12 13 12h63q57 0 81 -26t24 -64q0 -28 -12 -50.5t-41 -33.5q32 -13 47.5 -40t15.5 -55q0 -38 -29 -70t-86 -32h-62h-1zM130 159q-2 -13 -11 -13t-12 12v348q3 12 13 12h63q57 0 86 -31t29 -69t-29 -70t-86 -32h-53v-157zM-23 161
q0 -11 -11 -11h-187q-10 0 -10 13q0 11 10 11h174v151h-174q-11 0 -11 11v174q0 13 11 13h187q10 0 10 -12q0 -13 -10 -13h-175v-153h175q11 0 11 -9v-175zM130 622h50q48 0 72 24t24 53t-24 57t-72 28h-50v-162zM130 339h50q48 0 72 24t24 53t-24 54t-72 25h-50v-156z
M130 811h50q48 0 67 19t19 48t-19 49t-67 20h-50v-136zM75 1072q0 -15 -11.5 -26.5t-26.5 -11.5q-16 0 -27 11.5t-11 26.5t11 26.5t27 11.5q15 0 26.5 -11.5t11.5 -26.5zM-271 1072q0 -15 -11 -26.5t-25 -11.5q-16 0 -27 11.5t-11 26.5t11 26.5t27 11.5q14 0 25 -11.5
t11 -26.5zM419 1072q0 -15 -11.5 -26.5t-26.5 -11.5q-14 0 -25 11.5t-11 26.5t11 26.5t25 11.5q15 0 26.5 -11.5t11.5 -26.5zM-100 1072q0 -15 -10.5 -26.5t-25.5 -11.5t-26 11.5t-11 26.5t11 26.5t26 11.5t25.5 -11.5t10.5 -26.5zM590 1072q0 -15 -10.5 -26.5t-24.5 -11.5
q-16 0 -27 11.5t-11 26.5t11 26.5t27 11.5q14 0 24.5 -11.5t10.5 -26.5zM590 382q0 -15 -10.5 -26.5t-24.5 -11.5q-16 0 -27 11.5t-11 26.5t11 26.5t27 11.5q14 0 24.5 -11.5t10.5 -26.5zM75 38q0 -16 -11.5 -27t-26.5 -11q-16 0 -27 11t-11 27q0 14 11 24t27 10
q15 0 26.5 -10t11.5 -24zM246 1072q0 -15 -10.5 -26.5t-26.5 -11.5q-14 0 -24.5 11.5t-10.5 26.5t10.5 26.5t24.5 11.5q16 0 26.5 -11.5t10.5 -26.5zM-444 382q0 -15 -10.5 -26.5t-27.5 -11.5q-13 0 -23.5 11.5t-10.5 26.5t10.5 26.5t23.5 11.5q17 0 27.5 -11.5t10.5 -26.5z
M-444 1072q0 -15 -10.5 -26.5t-27.5 -11.5q-13 0 -23.5 11.5t-10.5 26.5t10.5 26.5t23.5 11.5q17 0 27.5 -11.5t10.5 -26.5zM590 728q0 -16 -10.5 -27t-24.5 -11q-16 0 -27 11t-11 27q0 14 11 25t27 11q14 0 24.5 -11t10.5 -25zM590 209q0 -15 -10.5 -26t-24.5 -11
q-16 0 -27 11t-11 26t11 25.5t27 10.5q14 0 24.5 -10.5t10.5 -25.5zM590 899q0 -15 -10.5 -26t-24.5 -11q-16 0 -27 11t-11 26t11 25.5t27 10.5q14 0 24.5 -10.5t10.5 -25.5zM-444 728q0 -38 -38 -38q-13 0 -23.5 11t-10.5 27q0 14 10.5 25t23.5 11q17 0 27.5 -11t10.5 -25z
M-271 38q0 -16 -11 -27t-25 -11q-16 0 -27 11t-11 27q0 14 11 24t27 10q14 0 25 -10t11 -24zM419 38q0 -16 -11.5 -27t-26.5 -11q-14 0 -25 11t-11 27q0 14 11 24t25 10q15 0 26.5 -10t11.5 -24zM-444 899q0 -15 -10.5 -26t-27.5 -11q-13 0 -23.5 11t-10.5 26t10.5 25.5
t23.5 10.5q38 0 38 -36zM-444 209q0 -15 -10.5 -26t-27.5 -11q-13 0 -23.5 11t-10.5 26t10.5 25.5t23.5 10.5q38 0 38 -36zM590 553q0 -13 -10.5 -23.5t-24.5 -10.5q-16 0 -27 10.5t-11 23.5q0 17 11 27.5t27 10.5q14 0 24.5 -10.5t10.5 -27.5zM-100 38q0 -38 -36 -38
q-15 0 -26 11t-11 27q0 14 11 24t26 10t25.5 -10t10.5 -24zM590 38q0 -16 -10.5 -27t-24.5 -11q-16 0 -27 11t-11 27q0 14 11 24t27 10q14 0 24.5 -10t10.5 -24zM-444 553q0 -13 -10.5 -23.5t-27.5 -10.5q-13 0 -23.5 10.5t-10.5 23.5q0 17 10.5 27.5t23.5 10.5q38 0 38 -38
zM246 38q0 -38 -37 -38q-14 0 -24.5 11t-10.5 27q0 14 10.5 24t24.5 10q16 0 26.5 -10t10.5 -24zM-444 38q0 -38 -38 -38q-13 0 -23.5 11t-10.5 27q0 14 10.5 24t23.5 10q17 0 27.5 -10t10.5 -24zM-55 961q3 12 11 12q9 0 12 -12v-350q0 -12 -13 -12h-13q-9 0 -13 12
l-124 323v-326q-3 -12 -11 -12q-9 0 -12 12v350q0 12 13 12h11q9 0 13 -12l126 -318v321z" />
            <glyph glyph-name="nobreakspace.showInv_tight" horiz-adv-x="150" d="M158 599q-11 0 -13 12v347q3 12 13 12h63q57 0 81 -26t24 -64q0 -28 -12 -50.5t-41 -33.5q32 -13 47.5 -40t15.5 -55q0 -38 -29 -70t-86 -32h-62h-1zM168 159q-2 -13 -11 -13t-12 12v348q3 12 13 12h63q57 0 86 -31t29 -69t-29 -70t-86 -32h-53v-157zM15 161
q0 -11 -11 -11h-187q-10 0 -10 13q0 11 10 11h174v151h-174q-11 0 -11 11v174q0 13 11 13h187q10 0 10 -12q0 -13 -10 -13h-175v-153h175q11 0 11 -9v-175zM168 622h50q48 0 72 24t24 53t-24 57t-72 28h-50v-162zM168 339h50q48 0 72 24t24 53t-24 54t-72 25h-50v-156z
M168 811h50q48 0 67 19t19 48t-19 49t-67 20h-50v-136zM113 1072q0 -15 -11.5 -26.5t-26.5 -11.5q-16 0 -27 11.5t-11 26.5t11 26.5t27 11.5q15 0 26.5 -11.5t11.5 -26.5zM-233 1072q0 -15 -11 -26.5t-25 -11.5q-16 0 -27 11.5t-11 26.5t11 26.5t27 11.5q14 0 25 -11.5
t11 -26.5zM457 1072q0 -15 -11.5 -26.5t-26.5 -11.5q-14 0 -25 11.5t-11 26.5t11 26.5t25 11.5q15 0 26.5 -11.5t11.5 -26.5zM-62 1072q0 -15 -10.5 -26.5t-25.5 -11.5t-26 11.5t-11 26.5t11 26.5t26 11.5t25.5 -11.5t10.5 -26.5zM628 1072q0 -15 -10.5 -26.5t-24.5 -11.5
q-16 0 -27 11.5t-11 26.5t11 26.5t27 11.5q14 0 24.5 -11.5t10.5 -26.5zM628 382q0 -15 -10.5 -26.5t-24.5 -11.5q-16 0 -27 11.5t-11 26.5t11 26.5t27 11.5q14 0 24.5 -11.5t10.5 -26.5zM113 38q0 -16 -11.5 -27t-26.5 -11q-16 0 -27 11t-11 27q0 14 11 24t27 10
q15 0 26.5 -10t11.5 -24zM284 1072q0 -15 -10.5 -26.5t-26.5 -11.5q-14 0 -24.5 11.5t-10.5 26.5t10.5 26.5t24.5 11.5q16 0 26.5 -11.5t10.5 -26.5zM-406 382q0 -15 -10.5 -26.5t-27.5 -11.5q-13 0 -23.5 11.5t-10.5 26.5t10.5 26.5t23.5 11.5q17 0 27.5 -11.5t10.5 -26.5z
M-406 1072q0 -15 -10.5 -26.5t-27.5 -11.5q-13 0 -23.5 11.5t-10.5 26.5t10.5 26.5t23.5 11.5q17 0 27.5 -11.5t10.5 -26.5zM628 728q0 -16 -10.5 -27t-24.5 -11q-16 0 -27 11t-11 27q0 14 11 25t27 11q14 0 24.5 -11t10.5 -25zM628 209q0 -15 -10.5 -26t-24.5 -11
q-16 0 -27 11t-11 26t11 25.5t27 10.5q14 0 24.5 -10.5t10.5 -25.5zM628 899q0 -15 -10.5 -26t-24.5 -11q-16 0 -27 11t-11 26t11 25.5t27 10.5q14 0 24.5 -10.5t10.5 -25.5zM-406 728q0 -38 -38 -38q-13 0 -23.5 11t-10.5 27q0 14 10.5 25t23.5 11q17 0 27.5 -11t10.5 -25z
M-233 38q0 -16 -11 -27t-25 -11q-16 0 -27 11t-11 27q0 14 11 24t27 10q14 0 25 -10t11 -24zM457 38q0 -16 -11.5 -27t-26.5 -11q-14 0 -25 11t-11 27q0 14 11 24t25 10q15 0 26.5 -10t11.5 -24zM-406 899q0 -15 -10.5 -26t-27.5 -11q-13 0 -23.5 11t-10.5 26t10.5 25.5
t23.5 10.5q38 0 38 -36zM-406 209q0 -15 -10.5 -26t-27.5 -11q-13 0 -23.5 11t-10.5 26t10.5 25.5t23.5 10.5q38 0 38 -36zM628 553q0 -13 -10.5 -23.5t-24.5 -10.5q-16 0 -27 10.5t-11 23.5q0 17 11 27.5t27 10.5q14 0 24.5 -10.5t10.5 -27.5zM-62 38q0 -38 -36 -38
q-15 0 -26 11t-11 27q0 14 11 24t26 10t25.5 -10t10.5 -24zM628 38q0 -16 -10.5 -27t-24.5 -11q-16 0 -27 11t-11 27q0 14 11 24t27 10q14 0 24.5 -10t10.5 -24zM-406 553q0 -13 -10.5 -23.5t-27.5 -10.5q-13 0 -23.5 10.5t-10.5 23.5q0 17 10.5 27.5t23.5 10.5q38 0 38 -38
zM284 38q0 -38 -37 -38q-14 0 -24.5 11t-10.5 27q0 14 10.5 24t24.5 10q16 0 26.5 -10t10.5 -24zM-406 38q0 -38 -38 -38q-13 0 -23.5 11t-10.5 27q0 14 10.5 24t23.5 10q17 0 27.5 -10t10.5 -24zM-17 961q3 12 11 12q9 0 12 -12v-350q0 -12 -13 -12h-13q-9 0 -13 12
l-124 323v-326q-3 -12 -11 -12q-9 0 -12 12v350q0 12 13 12h11q9 0 13 -12l126 -318v321z" />
            <glyph glyph-name="nobreakspace.showInv" horiz-adv-x="225" d="M195 599q-11 0 -13 12v347q3 12 13 12h63q57 0 81 -26t24 -64q0 -28 -12 -50.5t-41 -33.5q32 -13 47.5 -40t15.5 -55q0 -38 -29 -70t-86 -32h-62h-1zM205 159q-2 -13 -11 -13t-12 12v348q3 12 13 12h63q57 0 86 -31t29 -69t-29 -70t-86 -32h-53v-157zM52 161
q0 -11 -11 -11h-187q-10 0 -10 13q0 11 10 11h174v151h-174q-11 0 -11 11v174q0 13 11 13h187q10 0 10 -12q0 -13 -10 -13h-175v-153h175q11 0 11 -9v-175zM205 622h50q48 0 72 24t24 53t-24 57t-72 28h-50v-162zM205 339h50q48 0 72 24t24 53t-24 54t-72 25h-50v-156z
M205 811h50q48 0 67 19t19 48t-19 49t-67 20h-50v-136zM150 1072q0 -15 -11.5 -26.5t-26.5 -11.5q-16 0 -27 11.5t-11 26.5t11 26.5t27 11.5q15 0 26.5 -11.5t11.5 -26.5zM-196 1072q0 -15 -11 -26.5t-25 -11.5q-16 0 -27 11.5t-11 26.5t11 26.5t27 11.5q14 0 25 -11.5
t11 -26.5zM494 1072q0 -15 -11.5 -26.5t-26.5 -11.5q-14 0 -25 11.5t-11 26.5t11 26.5t25 11.5q15 0 26.5 -11.5t11.5 -26.5zM-25 1072q0 -15 -10.5 -26.5t-25.5 -11.5t-26 11.5t-11 26.5t11 26.5t26 11.5t25.5 -11.5t10.5 -26.5zM665 1072q0 -15 -10.5 -26.5t-24.5 -11.5
q-16 0 -27 11.5t-11 26.5t11 26.5t27 11.5q14 0 24.5 -11.5t10.5 -26.5zM665 382q0 -15 -10.5 -26.5t-24.5 -11.5q-16 0 -27 11.5t-11 26.5t11 26.5t27 11.5q14 0 24.5 -11.5t10.5 -26.5zM150 38q0 -16 -11.5 -27t-26.5 -11q-16 0 -27 11t-11 27q0 14 11 24t27 10
q15 0 26.5 -10t11.5 -24zM321 1072q0 -15 -10.5 -26.5t-26.5 -11.5q-14 0 -24.5 11.5t-10.5 26.5t10.5 26.5t24.5 11.5q16 0 26.5 -11.5t10.5 -26.5zM-369 382q0 -15 -10.5 -26.5t-27.5 -11.5q-13 0 -23.5 11.5t-10.5 26.5t10.5 26.5t23.5 11.5q17 0 27.5 -11.5t10.5 -26.5z
M-369 1072q0 -15 -10.5 -26.5t-27.5 -11.5q-13 0 -23.5 11.5t-10.5 26.5t10.5 26.5t23.5 11.5q17 0 27.5 -11.5t10.5 -26.5zM665 728q0 -16 -10.5 -27t-24.5 -11q-16 0 -27 11t-11 27q0 14 11 25t27 11q14 0 24.5 -11t10.5 -25zM665 209q0 -15 -10.5 -26t-24.5 -11
q-16 0 -27 11t-11 26t11 25.5t27 10.5q14 0 24.5 -10.5t10.5 -25.5zM665 899q0 -15 -10.5 -26t-24.5 -11q-16 0 -27 11t-11 26t11 25.5t27 10.5q14 0 24.5 -10.5t10.5 -25.5zM-369 728q0 -38 -38 -38q-13 0 -23.5 11t-10.5 27q0 14 10.5 25t23.5 11q17 0 27.5 -11t10.5 -25z
M-196 38q0 -16 -11 -27t-25 -11q-16 0 -27 11t-11 27q0 14 11 24t27 10q14 0 25 -10t11 -24zM494 38q0 -16 -11.5 -27t-26.5 -11q-14 0 -25 11t-11 27q0 14 11 24t25 10q15 0 26.5 -10t11.5 -24zM-369 899q0 -15 -10.5 -26t-27.5 -11q-13 0 -23.5 11t-10.5 26t10.5 25.5
t23.5 10.5q38 0 38 -36zM-369 209q0 -15 -10.5 -26t-27.5 -11q-13 0 -23.5 11t-10.5 26t10.5 25.5t23.5 10.5q38 0 38 -36zM665 553q0 -13 -10.5 -23.5t-24.5 -10.5q-16 0 -27 10.5t-11 23.5q0 17 11 27.5t27 10.5q14 0 24.5 -10.5t10.5 -27.5zM-25 38q0 -38 -36 -38
q-15 0 -26 11t-11 27q0 14 11 24t26 10t25.5 -10t10.5 -24zM665 38q0 -16 -10.5 -27t-24.5 -11q-16 0 -27 11t-11 27q0 14 11 24t27 10q14 0 24.5 -10t10.5 -24zM-369 553q0 -13 -10.5 -23.5t-27.5 -10.5q-13 0 -23.5 10.5t-10.5 23.5q0 17 10.5 27.5t23.5 10.5q38 0 38 -38
zM321 38q0 -38 -37 -38q-14 0 -24.5 11t-10.5 27q0 14 10.5 24t24.5 10q16 0 26.5 -10t10.5 -24zM-369 38q0 -38 -38 -38q-13 0 -23.5 11t-10.5 27q0 14 10.5 24t23.5 10q17 0 27.5 -10t10.5 -24zM20 961q3 12 11 12q9 0 12 -12v-350q0 -12 -13 -12h-13q-9 0 -13 12
l-124 323v-326q-3 -12 -11 -12q-9 0 -12 12v350q0 12 13 12h11q9 0 13 -12l126 -318v321z" />
            <glyph glyph-name="nobreakspace.showInv_wide" horiz-adv-x="300" d="M233 599q-11 0 -13 12v347q3 12 13 12h63q57 0 81 -26t24 -64q0 -28 -12 -50.5t-41 -33.5q32 -13 47.5 -40t15.5 -55q0 -38 -29 -70t-86 -32h-62h-1zM243 159q-2 -13 -11 -13t-12 12v348q3 12 13 12h63q57 0 86 -31t29 -69t-29 -70t-86 -32h-53v-157zM90 161
q0 -11 -11 -11h-187q-10 0 -10 13q0 11 10 11h174v151h-174q-11 0 -11 11v174q0 13 11 13h187q10 0 10 -12q0 -13 -10 -13h-175v-153h175q11 0 11 -9v-175zM243 622h50q48 0 72 24t24 53t-24 57t-72 28h-50v-162zM243 339h50q48 0 72 24t24 53t-24 54t-72 25h-50v-156z
M243 811h50q48 0 67 19t19 48t-19 49t-67 20h-50v-136zM188 1072q0 -15 -11.5 -26.5t-26.5 -11.5q-16 0 -27 11.5t-11 26.5t11 26.5t27 11.5q15 0 26.5 -11.5t11.5 -26.5zM-158 1072q0 -15 -11 -26.5t-25 -11.5q-16 0 -27 11.5t-11 26.5t11 26.5t27 11.5q14 0 25 -11.5
t11 -26.5zM532 1072q0 -15 -11.5 -26.5t-26.5 -11.5q-14 0 -25 11.5t-11 26.5t11 26.5t25 11.5q15 0 26.5 -11.5t11.5 -26.5zM13 1072q0 -15 -10.5 -26.5t-25.5 -11.5t-26 11.5t-11 26.5t11 26.5t26 11.5t25.5 -11.5t10.5 -26.5zM703 1072q0 -15 -10.5 -26.5t-24.5 -11.5
q-16 0 -27 11.5t-11 26.5t11 26.5t27 11.5q14 0 24.5 -11.5t10.5 -26.5zM703 382q0 -15 -10.5 -26.5t-24.5 -11.5q-16 0 -27 11.5t-11 26.5t11 26.5t27 11.5q14 0 24.5 -11.5t10.5 -26.5zM188 38q0 -16 -11.5 -27t-26.5 -11q-16 0 -27 11t-11 27q0 14 11 24t27 10
q15 0 26.5 -10t11.5 -24zM359 1072q0 -15 -10.5 -26.5t-26.5 -11.5q-14 0 -24.5 11.5t-10.5 26.5t10.5 26.5t24.5 11.5q16 0 26.5 -11.5t10.5 -26.5zM-331 382q0 -15 -10.5 -26.5t-27.5 -11.5q-13 0 -23.5 11.5t-10.5 26.5t10.5 26.5t23.5 11.5q17 0 27.5 -11.5t10.5 -26.5z
M-331 1072q0 -15 -10.5 -26.5t-27.5 -11.5q-13 0 -23.5 11.5t-10.5 26.5t10.5 26.5t23.5 11.5q17 0 27.5 -11.5t10.5 -26.5zM703 728q0 -16 -10.5 -27t-24.5 -11q-16 0 -27 11t-11 27q0 14 11 25t27 11q14 0 24.5 -11t10.5 -25zM703 209q0 -15 -10.5 -26t-24.5 -11
q-16 0 -27 11t-11 26t11 25.5t27 10.5q14 0 24.5 -10.5t10.5 -25.5zM703 899q0 -15 -10.5 -26t-24.5 -11q-16 0 -27 11t-11 26t11 25.5t27 10.5q14 0 24.5 -10.5t10.5 -25.5zM-331 728q0 -38 -38 -38q-13 0 -23.5 11t-10.5 27q0 14 10.5 25t23.5 11q17 0 27.5 -11t10.5 -25z
M-158 38q0 -16 -11 -27t-25 -11q-16 0 -27 11t-11 27q0 14 11 24t27 10q14 0 25 -10t11 -24zM532 38q0 -16 -11.5 -27t-26.5 -11q-14 0 -25 11t-11 27q0 14 11 24t25 10q15 0 26.5 -10t11.5 -24zM-331 899q0 -15 -10.5 -26t-27.5 -11q-13 0 -23.5 11t-10.5 26t10.5 25.5
t23.5 10.5q38 0 38 -36zM-331 209q0 -15 -10.5 -26t-27.5 -11q-13 0 -23.5 11t-10.5 26t10.5 25.5t23.5 10.5q38 0 38 -36zM703 553q0 -13 -10.5 -23.5t-24.5 -10.5q-16 0 -27 10.5t-11 23.5q0 17 11 27.5t27 10.5q14 0 24.5 -10.5t10.5 -27.5zM13 38q0 -38 -36 -38
q-15 0 -26 11t-11 27q0 14 11 24t26 10t25.5 -10t10.5 -24zM703 38q0 -16 -10.5 -27t-24.5 -11q-16 0 -27 11t-11 27q0 14 11 24t27 10q14 0 24.5 -10t10.5 -24zM-331 553q0 -13 -10.5 -23.5t-27.5 -10.5q-13 0 -23.5 10.5t-10.5 23.5q0 17 10.5 27.5t23.5 10.5q38 0 38 -38
zM359 38q0 -38 -37 -38q-14 0 -24.5 11t-10.5 27q0 14 10.5 24t24.5 10q16 0 26.5 -10t10.5 -24zM-331 38q0 -38 -38 -38q-13 0 -23.5 11t-10.5 27q0 14 10.5 24t23.5 10q17 0 27.5 -10t10.5 -24zM58 961q3 12 11 12q9 0 12 -12v-350q0 -12 -13 -12h-13q-9 0 -13 12
l-124 323v-326q-3 -12 -11 -12q-9 0 -12 12v350q0 12 13 12h11q9 0 13 -12l126 -318v321z" />
            <glyph glyph-name="nobreakspace.showInv_xwide" horiz-adv-x="375" d="M271 599q-11 0 -13 12v347q3 12 13 12h63q57 0 81 -26t24 -64q0 -28 -12 -50.5t-41 -33.5q32 -13 47.5 -40t15.5 -55q0 -38 -29 -70t-86 -32h-62h-1zM281 159q-2 -13 -11 -13t-12 12v348q3 12 13 12h63q57 0 86 -31t29 -69t-29 -70t-86 -32h-53v-157zM128 161
q0 -11 -11 -11h-187q-10 0 -10 13q0 11 10 11h174v151h-174q-11 0 -11 11v174q0 13 11 13h187q10 0 10 -12q0 -13 -10 -13h-175v-153h175q11 0 11 -9v-175zM281 622h50q48 0 72 24t24 53t-24 57t-72 28h-50v-162zM281 339h50q48 0 72 24t24 53t-24 54t-72 25h-50v-156z
M281 811h50q48 0 67 19t19 48t-19 49t-67 20h-50v-136zM226 1072q0 -15 -11.5 -26.5t-26.5 -11.5q-16 0 -27 11.5t-11 26.5t11 26.5t27 11.5q15 0 26.5 -11.5t11.5 -26.5zM-120 1072q0 -15 -11 -26.5t-25 -11.5q-16 0 -27 11.5t-11 26.5t11 26.5t27 11.5q14 0 25 -11.5
t11 -26.5zM570 1072q0 -15 -11.5 -26.5t-26.5 -11.5q-14 0 -25 11.5t-11 26.5t11 26.5t25 11.5q15 0 26.5 -11.5t11.5 -26.5zM51 1072q0 -15 -10.5 -26.5t-25.5 -11.5t-26 11.5t-11 26.5t11 26.5t26 11.5t25.5 -11.5t10.5 -26.5zM741 1072q0 -15 -10.5 -26.5t-24.5 -11.5
q-16 0 -27 11.5t-11 26.5t11 26.5t27 11.5q14 0 24.5 -11.5t10.5 -26.5zM741 382q0 -15 -10.5 -26.5t-24.5 -11.5q-16 0 -27 11.5t-11 26.5t11 26.5t27 11.5q14 0 24.5 -11.5t10.5 -26.5zM226 38q0 -16 -11.5 -27t-26.5 -11q-16 0 -27 11t-11 27q0 14 11 24t27 10
q15 0 26.5 -10t11.5 -24zM397 1072q0 -15 -10.5 -26.5t-26.5 -11.5q-14 0 -24.5 11.5t-10.5 26.5t10.5 26.5t24.5 11.5q16 0 26.5 -11.5t10.5 -26.5zM-293 382q0 -15 -10.5 -26.5t-27.5 -11.5q-13 0 -23.5 11.5t-10.5 26.5t10.5 26.5t23.5 11.5q17 0 27.5 -11.5t10.5 -26.5z
M-293 1072q0 -15 -10.5 -26.5t-27.5 -11.5q-13 0 -23.5 11.5t-10.5 26.5t10.5 26.5t23.5 11.5q17 0 27.5 -11.5t10.5 -26.5zM741 728q0 -16 -10.5 -27t-24.5 -11q-16 0 -27 11t-11 27q0 14 11 25t27 11q14 0 24.5 -11t10.5 -25zM741 209q0 -15 -10.5 -26t-24.5 -11
q-16 0 -27 11t-11 26t11 25.5t27 10.5q14 0 24.5 -10.5t10.5 -25.5zM741 899q0 -15 -10.5 -26t-24.5 -11q-16 0 -27 11t-11 26t11 25.5t27 10.5q14 0 24.5 -10.5t10.5 -25.5zM-293 728q0 -38 -38 -38q-13 0 -23.5 11t-10.5 27q0 14 10.5 25t23.5 11q17 0 27.5 -11t10.5 -25z
M-120 38q0 -16 -11 -27t-25 -11q-16 0 -27 11t-11 27q0 14 11 24t27 10q14 0 25 -10t11 -24zM570 38q0 -16 -11.5 -27t-26.5 -11q-14 0 -25 11t-11 27q0 14 11 24t25 10q15 0 26.5 -10t11.5 -24zM-293 899q0 -15 -10.5 -26t-27.5 -11q-13 0 -23.5 11t-10.5 26t10.5 25.5
t23.5 10.5q38 0 38 -36zM-293 209q0 -15 -10.5 -26t-27.5 -11q-13 0 -23.5 11t-10.5 26t10.5 25.5t23.5 10.5q38 0 38 -36zM741 553q0 -13 -10.5 -23.5t-24.5 -10.5q-16 0 -27 10.5t-11 23.5q0 17 11 27.5t27 10.5q14 0 24.5 -10.5t10.5 -27.5zM51 38q0 -38 -36 -38
q-15 0 -26 11t-11 27q0 14 11 24t26 10t25.5 -10t10.5 -24zM741 38q0 -16 -10.5 -27t-24.5 -11q-16 0 -27 11t-11 27q0 14 11 24t27 10q14 0 24.5 -10t10.5 -24zM-293 553q0 -13 -10.5 -23.5t-27.5 -10.5q-13 0 -23.5 10.5t-10.5 23.5q0 17 10.5 27.5t23.5 10.5q38 0 38 -38
zM397 38q0 -38 -37 -38q-14 0 -24.5 11t-10.5 27q0 14 10.5 24t24.5 10q16 0 26.5 -10t10.5 -24zM-293 38q0 -38 -38 -38q-13 0 -23.5 11t-10.5 27q0 14 10.5 24t23.5 10q17 0 27.5 -10t10.5 -24zM96 961q3 12 11 12q9 0 12 -12v-350q0 -12 -13 -12h-13q-9 0 -13 12
l-124 323v-326q-3 -12 -11 -12q-9 0 -12 12v350q0 12 13 12h11q9 0 13 -12l126 -318v321z" />
            <glyph glyph-name="ObjectReplChar" unicode="&#xfffc;" horiz-adv-x="1182" d="M1142 1072q0 -15 -10.5 -26.5t-24.5 -11.5q-16 0 -27 11.5t-11 26.5t11 26.5t27 11.5q14 0 24.5 -11.5t10.5 -26.5zM971 1072q0 -15 -11.5 -26.5t-26.5 -11.5q-14 0 -25 11.5t-11 26.5t11 26.5t25 11.5q15 0 26.5 -11.5t11.5 -26.5zM1142 899q0 -15 -10.5 -26t-24.5 -11
q-16 0 -27 11t-11 26t11 25.5t27 10.5q14 0 24.5 -10.5t10.5 -25.5zM798 1072q0 -15 -10.5 -26.5t-26.5 -11.5q-14 0 -24.5 11.5t-10.5 26.5t10.5 26.5t24.5 11.5q16 0 26.5 -11.5t10.5 -26.5zM1142 728q0 -16 -10.5 -27t-24.5 -11q-16 0 -27 11t-11 27q0 14 11 25t27 11
q14 0 24.5 -11t10.5 -25zM627 1072q0 -15 -11.5 -26.5t-26.5 -11.5q-16 0 -27 11.5t-11 26.5t11 26.5t27 11.5q15 0 26.5 -11.5t11.5 -26.5zM1142 553q0 -13 -10.5 -23.5t-24.5 -10.5q-16 0 -27 10.5t-11 23.5q0 17 11 27.5t27 10.5q14 0 24.5 -10.5t10.5 -27.5zM452 1072
q0 -15 -10.5 -26.5t-25.5 -11.5t-26 11.5t-11 26.5t11 26.5t26 11.5t25.5 -11.5t10.5 -26.5zM1142 382q0 -15 -10.5 -26.5t-24.5 -11.5q-16 0 -27 11.5t-11 26.5t11 26.5t27 11.5q14 0 24.5 -11.5t10.5 -26.5zM1142 209q0 -15 -10.5 -26t-24.5 -11q-16 0 -27 11t-11 26
t11 25.5t27 10.5q14 0 24.5 -10.5t10.5 -25.5zM281 1072q0 -15 -11 -26.5t-25 -11.5q-16 0 -27 11.5t-11 26.5t11 26.5t27 11.5q14 0 25 -11.5t11 -26.5zM108 1072q0 -15 -10.5 -26.5t-27.5 -11.5q-13 0 -23.5 11.5t-10.5 26.5t10.5 26.5t23.5 11.5q17 0 27.5 -11.5
t10.5 -26.5zM1142 38q0 -16 -10.5 -27t-24.5 -11q-16 0 -27 11t-11 27q0 14 11 24t27 10q14 0 24.5 -10t10.5 -24zM108 899q0 -15 -10.5 -26t-27.5 -11q-13 0 -23.5 11t-10.5 26t10.5 25.5t23.5 10.5q38 0 38 -36zM971 38q0 -16 -11.5 -27t-26.5 -11q-14 0 -25 11t-11 27
q0 14 11 24t25 10q15 0 26.5 -10t11.5 -24zM108 728q0 -38 -38 -38q-13 0 -23.5 11t-10.5 27q0 14 10.5 25t23.5 11q17 0 27.5 -11t10.5 -25zM798 38q0 -38 -37 -38q-14 0 -24.5 11t-10.5 27q0 14 10.5 24t24.5 10q16 0 26.5 -10t10.5 -24zM108 553q0 -13 -10.5 -23.5
t-27.5 -10.5q-13 0 -23.5 10.5t-10.5 23.5q0 17 10.5 27.5t23.5 10.5q38 0 38 -38zM627 38q0 -16 -11.5 -27t-26.5 -11q-16 0 -27 11t-11 27q0 14 11 24t27 10q15 0 26.5 -10t11.5 -24zM108 382q0 -15 -10.5 -26.5t-27.5 -11.5q-13 0 -23.5 11.5t-10.5 26.5t10.5 26.5
t23.5 11.5q17 0 27.5 -11.5t10.5 -26.5zM452 38q0 -38 -36 -38q-15 0 -26 11t-11 27q0 14 11 24t26 10t25.5 -10t10.5 -24zM108 209q0 -15 -10.5 -26t-27.5 -11q-13 0 -23.5 11t-10.5 26t10.5 25.5t23.5 10.5q38 0 38 -36zM281 38q0 -16 -11 -27t-25 -11q-16 0 -27 11
t-11 27q0 14 11 24t27 10q14 0 25 -10t11 -24zM108 38q0 -38 -38 -38q-13 0 -23.5 11t-10.5 27q0 14 10.5 24t23.5 10q17 0 27.5 -10t10.5 -24zM877 693q-13 0 -13 13q0 12 13 12h117q13 0 13 -12q0 -13 -13 -13h-47v-259q0 -37 -25.5 -64.5t-55.5 -27.5q-34 0 -56.5 24.5
t-22.5 82.5q0 13 12 13q11 0 11 -14q0 -27 13 -54.5t44 -27.5q25 0 41 23.5t16 50.5v253h-47zM539 348q-11 0 -13 12v347q3 12 13 12h63q57 0 81 -26t24 -64q0 -28 -12 -50.5t-41 -33.5q32 -13 47.5 -40t15.5 -55q0 -38 -29 -70t-86 -32h-63zM549 371h50q48 0 72 24t24 53
t-24 57t-72 28h-50v-162zM549 560h50q48 0 67 19t19 48t-19 49t-67 20h-50v-136zM327 342q-52 2 -71 23.5t-19 57.5v219q0 36 19 57.5t71 22.5q53 -1 71.5 -22.5t18.5 -57.5v-219q0 -36 -18.5 -57.5t-71.5 -23.5zM327 699q-41 -1 -54.5 -16t-13.5 -43v-218q0 -28 13.5 -41.5
t54.5 -15.5q41 2 54.5 15.5t13.5 41.5v218q0 28 -13.5 43t-54.5 16z" />
            </font>
</defs>
</svg>
